<svg width="16" height="16" viewBox="0 0 16 16" xmlns="http://www.w3.org/2000/svg"><title>icons/system/binary/header/portfolio/ic-portfolio-active-light</title><g transform="translate(0 1)" fill="none" fill-rule="evenodd"><rect fill="#2A3052" y="2" width="16" height="12" rx="1"/><path d="M3.151 9.5h9.698l2.428-1.62a.5.5 0 0 0 .223-.415V3a.5.5 0 0 0-.5-.5H1a.5.5 0 0 0-.5.5v4.465a.5.5 0 0 0 .223.416L3.15 9.5z" stroke="#FFF"/><rect fill="#FFF" x="6" y="7" width="4" height="1" rx=".5"/><rect stroke="#2A3052" x=".5" y="2.5" width="15" height="11" rx="1"/><path d="M5.5 2.5h5V1a.5.5 0 0 0-.5-.5H6a.5.5 0 0 0-.5.5v1.5z" stroke="#2A3052"/></g></svg>