<svg id="Layer_1" xmlns="http://www.w3.org/2000/svg" viewBox="0 0 900 400"><style>.st0{fill:#fff}.st1{fill:#95989a}.st2{enable-background:new}.st3{fill:#2a3052}.st4{fill:#dedede}.st5{opacity:.6;enable-background:new}</style><title>cw-chart</title><g id="Rectangle_202"><path class="st0" d="M0 0h900v400H0z"/><path class="st1" d="M900 400H0V0h900v400zM1 399h898V1H1v398z"/></g><g class="st2" id="Number_of_transactions_on_binary.com"><path class="st3" d="M407 339.5c-.1.9-.4 1.6-1 2.1s-1.3.7-2.2.7c-1 0-1.8-.4-2.4-1.1s-.9-1.7-.9-2.9v-.8c0-.8.1-1.5.4-2.1s.7-1.1 1.2-1.4 1.1-.5 1.8-.5c.9 0 1.6.3 2.2.8s.9 1.2 1 2.1H406c-.1-.7-.3-1.2-.6-1.5s-.8-.5-1.4-.5c-.7 0-1.3.3-1.7.8-.4.5-.6 1.3-.6 2.3v.8c0 .9.2 1.7.6 2.2.4.5.9.8 1.6.8.6 0 1.1-.1 1.4-.4s.6-.8.7-1.5h1zM409.5 342.2h-1.1v-9h1.1v9zM411.3 334.2c0-.2.1-.3.2-.4s.3-.2.5-.2.4.1.5.2.2.3.2.4-.1.3-.2.4-.3.2-.5.2-.4-.1-.5-.2-.2-.2-.2-.4zm1.2 8h-1.1v-6.3h1.1v6.3zM416.8 342.4c-.9 0-1.6-.3-2.1-.8s-.8-1.3-.8-2.3v-.3c0-.6.1-1.2.4-1.7s.6-.9 1-1.2.9-.4 1.4-.4c.8 0 1.5.3 1.9.8s.7 1.3.7 2.3v.5H415c0 .6.2 1.1.5 1.5s.8.6 1.3.6c.4 0 .7-.1 1-.2s.5-.4.7-.6l.7.5c-.5.8-1.3 1.3-2.4 1.3zm-.1-5.7c-.4 0-.8.2-1.1.5s-.5.8-.6 1.3h3.2v-.1c0-.6-.2-1-.4-1.3s-.7-.4-1.1-.4zM421.6 335.9v.8c.5-.6 1.1-.9 1.9-.9 1.3 0 2 .8 2 2.3v4.2h-1.1V338c0-.5-.1-.8-.3-1s-.5-.3-1-.3c-.4 0-.7.1-.9.3s-.5.4-.6.7v4.5h-1.1v-6.3h1.1zM428.6 334.4v1.5h1.2v.8h-1.2v3.9c0 .3.1.4.2.6s.3.2.5.2c.1 0 .3 0 .5-.1v.9c-.3.1-.6.1-.8.1-.5 0-.8-.1-1.1-.4s-.4-.7-.4-1.2v-3.9h-1.2v-.8h1.2v-1.5h1.1zM436.1 339.6l.2 1.1.2-1 1.7-6h.9l1.6 6 .2 1 .2-1.1 1.3-5.8h1.1l-2.1 8.5h-1l-1.8-6.2-.1-.7-.1.7-1.8 6.2h-1l-2.1-8.5h1.1l1.5 5.8zM444.7 334.2c0-.2.1-.3.2-.4s.3-.2.5-.2.4.1.5.2.2.3.2.4-.1.3-.2.4-.3.2-.5.2-.4-.1-.5-.2-.2-.2-.2-.4zm1.2 8h-1.1v-6.3h1.1v6.3zM449.1 334.4v1.5h1.2v.8h-1.2v3.9c0 .3.1.4.2.6s.3.2.5.2c.1 0 .3 0 .5-.1v.9c-.3.1-.6.1-.8.1-.5 0-.8-.1-1.1-.4s-.4-.7-.4-1.2v-3.9h-1.2v-.8h1.2v-1.5h1.1zM452.6 336.7c.5-.6 1.1-.9 1.9-.9 1.3 0 2 .8 2 2.3v4.2h-1.1V338c0-.5-.1-.8-.3-1s-.5-.3-1-.3c-.4 0-.7.1-.9.3s-.5.4-.6.7v4.5h-1.1v-9h1.1v3.5zM457.9 339c0-1 .2-1.8.7-2.3s1.1-.9 1.8-.9 1.3.3 1.8.8v-3.3h1.1v9h-1l-.1-.7c-.4.5-1 .8-1.8.8-.7 0-1.3-.3-1.8-.9s-.7-1.4-.7-2.5zm1.1.1c0 .7.1 1.3.4 1.7s.7.6 1.2.6c.7 0 1.2-.3 1.5-.9v-2.9c-.3-.6-.8-.9-1.5-.9-.5 0-.9.2-1.2.6s-.4 1-.4 1.8zM468 336.9h-.5c-.7 0-1.2.3-1.4.9v4.5H465V336h1.1v.7c.4-.6.9-.8 1.5-.8.2 0 .4 0 .5.1v.9zM472.7 342.2c-.1-.1-.1-.3-.2-.7-.5.5-1.1.8-1.8.8-.6 0-1.1-.2-1.5-.5s-.6-.8-.6-1.3c0-.7.3-1.2.8-1.5s1.2-.5 2.1-.5h1.1v-.5c0-.4-.1-.7-.3-.9s-.6-.3-1-.3-.7.1-1 .3-.4.4-.4.7h-1.1c0-.3.1-.6.3-.9s.5-.5.9-.7.8-.3 1.3-.3c.7 0 1.3.2 1.7.5s.6.9.6 1.5v2.9c0 .6.1 1 .2 1.4v.1h-1.1zm-1.8-.8c.3 0 .7-.1 1-.3s.5-.4.7-.7v-1.3h-.8c-1.3 0-2 .4-2 1.2 0 .3.1.6.3.8s.4.3.8.3zM480.9 340.7l1.2-4.8h1.1l-1.8 6.3h-.9l-1.5-4.8-1.5 4.8h-.9l-1.8-6.3h1.1l1.2 4.7 1.5-4.7h.9l1.4 4.8zM488.2 342.2c-.1-.1-.1-.3-.2-.7-.5.5-1.1.8-1.8.8-.6 0-1.1-.2-1.5-.5s-.6-.8-.6-1.3c0-.7.3-1.2.8-1.5s1.2-.5 2.1-.5h1.1v-.5c0-.4-.1-.7-.3-.9s-.6-.3-1-.3-.7.1-1 .3-.4.4-.4.7h-1.1c0-.3.1-.6.3-.9s.5-.5.9-.7.8-.3 1.3-.3c.7 0 1.3.2 1.7.5s.6.9.6 1.5v2.9c0 .6.1 1 .2 1.4v.1h-1.1zm-1.8-.8c.3 0 .7-.1 1-.3s.5-.4.7-.7v-1.3h-.8c-1.3 0-2 .4-2 1.2 0 .3.1.6.3.8s.4.3.8.3zM492 342.2h-1.1v-9h1.1v9zM497.4 340.6c0-.3-.1-.5-.3-.7s-.6-.3-1.2-.4-1-.3-1.3-.4-.6-.4-.7-.6-.2-.5-.2-.8c0-.5.2-1 .7-1.3s1-.5 1.7-.5 1.3.2 1.7.6.7.8.7 1.4h-1.1c0-.3-.1-.6-.4-.8s-.6-.3-1-.3-.7.1-.9.3-.3.4-.3.7c0 .3.1.5.3.6s.6.3 1.1.4 1 .3 1.3.4.6.4.7.6.2.5.2.9c0 .6-.2 1-.7 1.4s-1 .5-1.8.5c-.5 0-1-.1-1.3-.3s-.7-.4-.9-.8-.3-.7-.3-1h1.1c0 .4.2.7.4.9s.6.3 1.1.3c.4 0 .7-.1 1-.2s.4-.7.4-.9zM502.8 338.8c0-.9.1-1.7.4-2.5s.6-1.6 1.1-2.2 1-1.1 1.5-1.4l.2.7c-.6.4-1 1.1-1.4 2s-.6 1.9-.6 3v.5c0 1.5.3 2.8.8 3.9.3.7.7 1.2 1.2 1.6l-.2.7c-.5-.3-1-.8-1.5-1.5-1-1.4-1.5-3-1.5-4.8zM513.2 333.7v5.8c0 .8-.3 1.5-.8 2s-1.2.8-2 .9h-.3c-.9 0-1.7-.3-2.2-.8s-.8-1.2-.8-2.1v-5.8h1.1v5.8c0 .6.2 1.1.5 1.4s.8.5 1.5.5c.6 0 1.1-.2 1.5-.5s.5-.8.5-1.4v-5.8h1zM517.4 338.4c-1-.3-1.7-.6-2.1-1s-.7-.9-.7-1.5c0-.7.3-1.2.8-1.7s1.2-.7 2.1-.7c.6 0 1.1.1 1.6.3s.8.5 1.1.9.4.8.4 1.3h-1.1c0-.5-.2-.9-.5-1.2s-.8-.4-1.4-.4c-.6 0-1 .1-1.3.4-.3.2-.5.6-.5 1 0 .3.1.6.4.9.3.2.8.5 1.5.7.7.2 1.3.4 1.7.7s.7.5.9.8.3.7.3 1.1c0 .7-.3 1.2-.8 1.7s-1.3.6-2.2.6c-.6 0-1.1-.1-1.6-.3s-.9-.5-1.2-.9-.4-.8-.4-1.3h1.1c0 .5.2.9.6 1.2s.9.4 1.5.4 1-.1 1.4-.4.5-.6.5-1-.1-.7-.4-1-.9-.3-1.7-.6zM522.1 342.2v-8.5h2.4c.7 0 1.4.2 2 .5s1 .8 1.3 1.4.5 1.3.5 2.1v.5c0 .8-.2 1.5-.5 2.1s-.8 1.1-1.3 1.4-1.2.5-2 .5h-2.4zm1.1-7.6v6.7h1.2c.9 0 1.5-.3 2-.8s.7-1.3.7-2.3v-.5c0-1-.2-1.7-.7-2.3-.5-.5-1.1-.8-1.9-.8h-1.3zM532.3 338.8c0 .9-.1 1.7-.3 2.5s-.6 1.5-1 2.2-1 1.2-1.5 1.4l-.2-.7c.6-.5 1.1-1.2 1.5-2.1s.6-2 .6-3.2v-.2c0-.8-.1-1.6-.3-2.3s-.4-1.3-.7-1.9-.7-1-1-1.3l.2-.7c.5.3 1 .8 1.5 1.4s.8 1.4 1 2.2.2 1.8.2 2.7z"/></g><path class="st3" d="M364.7 332.5h26v13h-26z" id="Rectangle_203"/><path class="st4" d="M147.6 58.5h694.3v2H147.6z" id="Line_63"/><path class="st4" d="M147.6 86h694.3v2H147.6z" id="Line_169"/><path class="st4" d="M147.6 113.5h694.3v2H147.6z" id="Line_170"/><path class="st4" d="M147.6 141h694.3v2H147.6z" id="Line_171"/><path class="st4" d="M147.6 168.5h694.3v2H147.6z" id="Line_172"/><path class="st4" d="M147.6 196h694.3v2H147.6z" id="Line_64"/><path class="st4" d="M147.6 223.5h694.3v2H147.6z" id="Line_65"/><path class="st4" d="M147.6 251h694.3v2H147.6z" id="Line_66"/><path class="st4" d="M147.6 278.5h694.3v2H147.6z" id="Line_67"/><g class="st2" id="_160_000_000"><path d="M63.1 60.8c0-.4-.1-.7-.4-.9s-.7-.5-1.3-.7c-.8-.3-1.4-.6-1.8-1s-.6-.9-.6-1.6c0-.6.2-1.2.6-1.6s.9-.7 1.5-.7V53h.9v1.3c.7.1 1.2.4 1.5.8s.5 1.1.5 1.9h-1c0-.6-.1-1-.4-1.3s-.6-.5-1.1-.5c-.5 0-.8.1-1.1.4-.2.2-.4.6-.4 1s.1.7.4 1c.3.2.7.5 1.3.6.6.2 1.1.4 1.4.6s.6.5.7.8.2.7.2 1.1c0 .7-.2 1.2-.6 1.6s-1 .6-1.7.7v1.1h-.9V63c-.7-.1-1.3-.3-1.7-.8s-.6-1.1-.6-1.8h1.1c0 .5.1 1 .4 1.3s.7.4 1.2.4.9-.1 1.2-.4.7-.4.7-.9zM69.1 63H68v-7.2l-2.2.8v-1l3.1-1.2h.2V63zM76.5 54.5v.9h-.2c-.8 0-1.5.3-2 .8s-.8 1.2-.9 2c.4-.5 1.1-.8 1.8-.8s1.3.3 1.8.8.7 1.2.7 2c0 .9-.2 1.6-.7 2.1s-1.1.8-1.9.8c-.8 0-1.5-.3-2-.9s-.8-1.4-.8-2.4v-.4c0-1.6.3-2.8 1-3.6s1.7-1.3 3-1.3h.2zm-1.4 3.8c-.4 0-.7.1-1 .3s-.5.5-.7.8v.4c0 .7.2 1.3.5 1.7s.7.6 1.2.6.9-.2 1.2-.5.4-.8.4-1.4c0-.6-.1-1.1-.4-1.4s-.7-.5-1.2-.5zM84.4 59.4c0 1.3-.2 2.2-.7 2.8s-1.1.9-2 .9c-.9 0-1.6-.3-2-.9s-.7-1.5-.7-2.7v-1.4c0-1.3.2-2.2.7-2.8s1.1-.9 2-.9c.9 0 1.6.3 2 .9s.7 1.5.7 2.7v1.4zm-1.1-1.5c0-.9-.1-1.6-.4-2s-.7-.6-1.2-.6c-.6 0-1 .2-1.2.6s-.4 1.1-.4 1.9v1.7c0 .9.1 1.6.4 2s.7.7 1.2.7.9-.2 1.2-.6.4-1.1.4-2v-1.7zM85.8 64.7l-.6-.4c.4-.5.6-1 .6-1.6v-1h1.1v.8c0 .4-.1.8-.3 1.2s-.5.8-.8 1zM93.4 59.4c0 1.3-.2 2.2-.7 2.8s-1.1.9-2 .9c-.9 0-1.6-.3-2-.9s-.7-1.5-.7-2.7v-1.4c0-1.3.2-2.2.7-2.8s1.1-.9 2-.9c.9 0 1.6.3 2 .9s.7 1.5.7 2.7v1.4zm-1-1.5c0-.9-.1-1.6-.4-2s-.7-.6-1.2-.6c-.6 0-1 .2-1.2.6s-.4 1.1-.4 1.9v1.7c0 .9.1 1.6.4 2s.7.7 1.2.7.9-.2 1.2-.6.4-1.1.4-2v-1.7zM100.2 59.4c0 1.3-.2 2.2-.7 2.8s-1.1.9-2 .9c-.9 0-1.6-.3-2-.9s-.7-1.5-.7-2.7v-1.4c0-1.3.2-2.2.7-2.8s1.1-.9 2-.9c.9 0 1.6.3 2 .9s.7 1.5.7 2.7v1.4zm-1.1-1.5c0-.9-.1-1.6-.4-2s-.7-.6-1.2-.6c-.6 0-1 .2-1.2.6s-.4 1.1-.4 1.9v1.7c0 .9.1 1.6.4 2s.7.7 1.2.7.9-.2 1.2-.6.4-1.1.4-2v-1.7zM106.9 59.4c0 1.3-.2 2.2-.7 2.8s-1.1.9-2 .9c-.9 0-1.6-.3-2-.9s-.7-1.5-.7-2.7v-1.4c0-1.3.2-2.2.7-2.8s1.1-.9 2-.9c.9 0 1.6.3 2 .9s.7 1.5.7 2.7v1.4zm-1.1-1.5c0-.9-.1-1.6-.4-2s-.7-.6-1.2-.6c-.6 0-1 .2-1.2.6s-.4 1.1-.4 1.9v1.7c0 .9.1 1.6.4 2s.7.7 1.2.7.9-.2 1.2-.6.4-1.1.4-2v-1.7zM108.4 64.7l-.6-.4c.4-.5.6-1 .6-1.6v-1h1.1v.8c0 .4-.1.8-.3 1.2s-.5.8-.8 1zM116 59.4c0 1.3-.2 2.2-.7 2.8s-1.1.9-2 .9c-.9 0-1.6-.3-2-.9s-.7-1.5-.7-2.7v-1.4c0-1.3.2-2.2.7-2.8s1.1-.9 2-.9c.9 0 1.6.3 2 .9s.7 1.5.7 2.7v1.4zm-1.1-1.5c0-.9-.1-1.6-.4-2s-.7-.6-1.2-.6c-.6 0-1 .2-1.2.6s-.4 1.1-.4 1.9v1.7c0 .9.1 1.6.4 2s.7.7 1.2.7.9-.2 1.2-.6.4-1.1.4-2v-1.7zM122.8 59.4c0 1.3-.2 2.2-.7 2.8s-1.1.9-2 .9c-.9 0-1.6-.3-2-.9s-.7-1.5-.7-2.7v-1.4c0-1.3.2-2.2.7-2.8s1.1-.9 2-.9c.9 0 1.6.3 2 .9s.7 1.5.7 2.7v1.4zm-1.1-1.5c0-.9-.1-1.6-.4-2s-.7-.6-1.2-.6c-.6 0-1 .2-1.2.6s-.4 1.1-.4 1.9v1.7c0 .9.1 1.6.4 2s.7.7 1.2.7.9-.2 1.2-.6.4-1.1.4-2v-1.7zM129.5 59.4c0 1.3-.2 2.2-.7 2.8s-1.1.9-2 .9c-.9 0-1.6-.3-2-.9s-.7-1.5-.7-2.7v-1.4c0-1.3.2-2.2.7-2.8s1.1-.9 2-.9c.9 0 1.6.3 2 .9s.7 1.5.7 2.7v1.4zm-1.1-1.5c0-.9-.1-1.6-.4-2s-.7-.6-1.2-.6c-.6 0-1 .2-1.2.6s-.4 1.1-.4 1.9v1.7c0 .9.1 1.6.4 2s.7.7 1.2.7.9-.2 1.2-.6.4-1.1.4-2v-1.7z"/></g><g class="st2" id="_2007"><path d="M418.6 298H413v-.8l3-3.3c.4-.5.7-.9.9-1.2s.2-.6.2-1-.1-.8-.4-1.1-.6-.4-1.1-.4c-.5 0-1 .2-1.3.5s-.4.7-.4 1.3h-1.1c0-.8.3-1.4.8-1.9s1.2-.7 2-.7 1.4.2 1.9.6.7 1 .7 1.7c0 .8-.5 1.8-1.6 3l-2.3 2.5h4.3v.8zM425.1 294.4c0 1.3-.2 2.2-.7 2.8s-1.1.9-2 .9c-.9 0-1.6-.3-2-.9s-.7-1.5-.7-2.7v-1.4c0-1.3.2-2.2.7-2.8s1.1-.9 2-.9c.9 0 1.6.3 2 .9s.7 1.5.7 2.7v1.4zm-1.1-1.5c0-.9-.1-1.6-.4-2s-.7-.6-1.2-.6c-.6 0-1 .2-1.2.6s-.4 1.1-.4 1.9v1.7c0 .9.1 1.6.4 2s.7.7 1.2.7.9-.2 1.2-.6.4-1.1.4-2v-1.7zM431.8 294.4c0 1.3-.2 2.2-.7 2.8s-1.1.9-2 .9c-.9 0-1.6-.3-2-.9s-.7-1.5-.7-2.7v-1.4c0-1.3.2-2.2.7-2.8s1.1-.9 2-.9c.9 0 1.6.3 2 .9s.7 1.5.7 2.7v1.4zm-1-1.5c0-.9-.1-1.6-.4-2s-.7-.6-1.2-.6c-.6 0-1 .2-1.2.6s-.4 1.1-.4 1.9v1.7c0 .9.1 1.6.4 2s.7.7 1.2.7.9-.2 1.2-.6.4-1.1.4-2v-1.7zM438.7 290.1l-3.5 7.9h-1.1l3.5-7.6H433v-.9h5.8v.6z"/></g><g class="st2" id="_2003"><path d="M272.8 298h-5.6v-.8l3-3.3c.4-.5.7-.9.9-1.2s.2-.6.2-1-.1-.8-.4-1.1-.6-.4-1.1-.4c-.5 0-1 .2-1.3.5s-.4.7-.4 1.3H267c0-.8.3-1.4.8-1.9s1.2-.7 2-.7 1.4.2 1.9.6.7 1 .7 1.7c0 .8-.5 1.8-1.6 3l-2.3 2.5h4.3v.8zM279.3 294.4c0 1.3-.2 2.2-.7 2.8s-1.1.9-2 .9c-.9 0-1.6-.3-2-.9s-.7-1.5-.7-2.7v-1.4c0-1.3.2-2.2.7-2.8s1.1-.9 2-.9c.9 0 1.6.3 2 .9s.7 1.5.7 2.7v1.4zm-1-1.5c0-.9-.1-1.6-.4-2s-.7-.6-1.2-.6c-.6 0-1 .2-1.2.6s-.4 1.1-.4 1.9v1.7c0 .9.1 1.6.4 2s.7.7 1.2.7.9-.2 1.2-.6.4-1.1.4-2v-1.7zM286.1 294.4c0 1.3-.2 2.2-.7 2.8s-1.1.9-2 .9c-.9 0-1.6-.3-2-.9s-.7-1.5-.7-2.7v-1.4c0-1.3.2-2.2.7-2.8s1.1-.9 2-.9c.9 0 1.6.3 2 .9s.7 1.5.7 2.7v1.4zm-1.1-1.5c0-.9-.1-1.6-.4-2s-.7-.6-1.2-.6c-.6 0-1 .2-1.2.6s-.4 1.1-.4 1.9v1.7c0 .9.1 1.6.4 2s.7.7 1.2.7.9-.2 1.2-.6.4-1.1.4-2v-1.7zM289 293.2h.8c.5 0 .9-.1 1.2-.4s.4-.6.4-1.1c0-1-.5-1.5-1.5-1.5-.5 0-.8.1-1.1.4s-.4.6-.4 1.1h-1.1c0-.7.2-1.2.7-1.7s1.1-.7 1.9-.7c.8 0 1.4.2 1.9.6s.7 1 .7 1.8c0 .4-.1.7-.4 1.1s-.6.6-1 .8c.5.1.8.4 1.1.7s.4.8.4 1.3c0 .8-.2 1.4-.8 1.8s-1.2.7-2 .7-1.5-.2-2-.7-.8-1-.8-1.7h1.1c0 .4.1.8.4 1.1s.7.4 1.2.4.9-.1 1.2-.4.4-.7.4-1.2-.2-.9-.5-1.1-.7-.4-1.3-.4h-.5v-.9z"/></g><g class="st2" id="_2011"><path d="M564.4 298h-5.6v-.8l3-3.3c.4-.5.7-.9.9-1.2s.2-.6.2-1-.1-.8-.4-1.1-.6-.4-1.1-.4c-.5 0-1 .2-1.3.5s-.4.7-.4 1.3h-1.1c0-.8.3-1.4.8-1.9s1.2-.7 2-.7 1.4.2 1.9.6.7 1 .7 1.7c0 .8-.5 1.8-1.6 3l-2.3 2.5h4.3v.8zM570.9 294.4c0 1.3-.2 2.2-.7 2.8s-1.1.9-2 .9c-.9 0-1.6-.3-2-.9s-.7-1.5-.7-2.7v-1.4c0-1.3.2-2.2.7-2.8s1.1-.9 2-.9c.9 0 1.6.3 2 .9s.7 1.5.7 2.7v1.4zm-1.1-1.5c0-.9-.1-1.6-.4-2s-.7-.6-1.2-.6c-.6 0-1 .2-1.2.6s-.4 1.1-.4 1.9v1.7c0 .9.1 1.6.4 2s.7.7 1.2.7.9-.2 1.2-.6.4-1.1.4-2v-1.7zM575.8 298h-1.1v-7.2l-2.2.8v-1l3.1-1.2h.2v8.6zM582.6 298h-1.1v-7.2l-2.2.8v-1l3.1-1.2h.2v8.6z"/></g><g class="st2" id="_2001"><path d="M199.9 298h-5.6v-.8l3-3.3c.4-.5.7-.9.9-1.2s.2-.6.2-1-.1-.8-.4-1.1-.6-.4-1.1-.4c-.5 0-1 .2-1.3.5s-.4.7-.4 1.3h-1.1c0-.8.3-1.4.8-1.9s1.2-.7 2-.7 1.4.2 1.9.6.7 1 .7 1.7c0 .8-.5 1.8-1.6 3l-2.3 2.5h4.3v.8zM206.4 294.4c0 1.3-.2 2.2-.7 2.8s-1.1.9-2 .9c-.9 0-1.6-.3-2-.9s-.7-1.5-.7-2.7v-1.4c0-1.3.2-2.2.7-2.8s1.1-.9 2-.9c.9 0 1.6.3 2 .9s.7 1.5.7 2.7v1.4zm-1-1.5c0-.9-.1-1.6-.4-2s-.7-.6-1.2-.6c-.6 0-1 .2-1.2.6s-.4 1.1-.4 1.9v1.7c0 .9.1 1.6.4 2s.7.7 1.2.7.9-.2 1.2-.6.4-1.1.4-2v-1.7zM213.2 294.4c0 1.3-.2 2.2-.7 2.8s-1.1.9-2 .9c-.9 0-1.6-.3-2-.9s-.7-1.5-.7-2.7v-1.4c0-1.3.2-2.2.7-2.8s1.1-.9 2-.9c.9 0 1.6.3 2 .9s.7 1.5.7 2.7v1.4zm-1.1-1.5c0-.9-.1-1.6-.4-2s-.7-.6-1.2-.6c-.6 0-1 .2-1.2.6s-.4 1.1-.4 1.9v1.7c0 .9.1 1.6.4 2s.7.7 1.2.7.9-.2 1.2-.6.4-1.1.4-2v-1.7zM218.1 298H217v-7.2l-2.2.8v-1l3.1-1.2h.2v8.6z"/></g><g class="st2" id="_2009"><path d="M491.5 298h-5.6v-.8l3-3.3c.4-.5.7-.9.9-1.2s.2-.6.2-1-.1-.8-.4-1.1-.6-.4-1.1-.4c-.5 0-1 .2-1.3.5s-.4.7-.4 1.3h-1.1c0-.8.3-1.4.8-1.9s1.2-.7 2-.7 1.4.2 1.9.6.7 1 .7 1.7c0 .8-.5 1.8-1.6 3l-2.3 2.5h4.3v.8zM498 294.4c0 1.3-.2 2.2-.7 2.8s-1.1.9-2 .9c-.9 0-1.6-.3-2-.9s-.7-1.5-.7-2.7v-1.4c0-1.3.2-2.2.7-2.8s1.1-.9 2-.9c.9 0 1.6.3 2 .9s.7 1.5.7 2.7v1.4zm-1.1-1.5c0-.9-.1-1.6-.4-2s-.7-.6-1.2-.6c-.6 0-1 .2-1.2.6s-.4 1.1-.4 1.9v1.7c0 .9.1 1.6.4 2s.7.7 1.2.7.9-.2 1.2-.6.4-1.1.4-2v-1.7zM504.7 294.4c0 1.3-.2 2.2-.7 2.8s-1.1.9-2 .9c-.9 0-1.6-.3-2-.9s-.7-1.5-.7-2.7v-1.4c0-1.3.2-2.2.7-2.8s1.1-.9 2-.9c.9 0 1.6.3 2 .9s.7 1.5.7 2.7v1.4zm-1-1.5c0-.9-.1-1.6-.4-2s-.7-.6-1.2-.6c-.6 0-1 .2-1.2.6s-.4 1.1-.4 1.9v1.7c0 .9.1 1.6.4 2s.7.7 1.2.7.9-.2 1.2-.6.4-1.1.4-2v-1.7zM510.3 294.3c-.2.3-.5.5-.8.7s-.7.2-1 .2c-.5 0-.9-.1-1.3-.4s-.6-.6-.8-1-.3-.9-.3-1.5.1-1.1.3-1.5.5-.8.9-1 .9-.4 1.4-.4c.8 0 1.5.3 2 .9s.7 1.5.7 2.6v.3c0 1.7-.3 2.9-1 3.6s-1.6 1.2-3 1.2h-.2v-.9h.2c.9 0 1.6-.2 2.1-.7.5-.4.7-1.1.8-2.1zm-1.7 0c.4 0 .7-.1 1-.3s.5-.5.7-.8v-.4c0-.7-.2-1.3-.5-1.7s-.7-.7-1.2-.7-.9.2-1.1.5-.4.8-.4 1.4c0 .6.1 1.1.4 1.4s.6.6 1.1.6z"/></g><g class="st2" id="_2005"><path d="M345.7 298h-5.6v-.8l3-3.3c.4-.5.7-.9.9-1.2s.2-.6.2-1-.1-.8-.4-1.1-.6-.4-1.1-.4c-.5 0-1 .2-1.3.5s-.4.7-.4 1.3h-1c0-.8.3-1.4.8-1.9s1.2-.7 2-.7 1.4.2 1.9.6.7 1 .7 1.7c0 .8-.5 1.8-1.6 3l-2.3 2.5h4.3v.8zM352.2 294.4c0 1.3-.2 2.2-.7 2.8s-1.1.9-2 .9c-.9 0-1.6-.3-2-.9s-.7-1.5-.7-2.7v-1.4c0-1.3.2-2.2.7-2.8s1.1-.9 2-.9c.9 0 1.6.3 2 .9s.7 1.5.7 2.7v1.4zm-1.1-1.5c0-.9-.1-1.6-.4-2s-.7-.6-1.2-.6c-.6 0-1 .2-1.2.6s-.4 1.1-.4 1.9v1.7c0 .9.1 1.6.4 2s.7.7 1.2.7.9-.2 1.2-.6.4-1.1.4-2v-1.7zM359 294.4c0 1.3-.2 2.2-.7 2.8s-1.1.9-2 .9c-.9 0-1.6-.3-2-.9s-.7-1.5-.7-2.7v-1.4c0-1.3.2-2.2.7-2.8s1.1-.9 2-.9c.9 0 1.6.3 2 .9s.7 1.5.7 2.7v1.4zm-1.1-1.5c0-.9-.1-1.6-.4-2s-.7-.6-1.2-.6c-.6 0-1 .2-1.2.6s-.4 1.1-.4 1.9v1.7c0 .9.1 1.6.4 2s.7.7 1.2.7.9-.2 1.2-.6.4-1.1.4-2v-1.7zM360.8 293.8l.4-4.3h4.4v1h-3.5l-.3 2.3c.4-.2.9-.4 1.4-.4.8 0 1.4.3 1.9.8s.7 1.2.7 2.1c0 .9-.2 1.6-.7 2.1s-1.1.8-2 .8c-.8 0-1.4-.2-1.8-.6s-.7-1-.8-1.7h1c.1.5.2.9.5 1.1s.7.4 1.1.4c.5 0 .9-.2 1.2-.5s.4-.8.4-1.4c0-.6-.2-1-.5-1.4s-.7-.5-1.2-.5-.8.1-1.1.3l-.3.2-.8-.3z"/></g><g class="st2" id="_2013"><path d="M637.3 298h-5.6v-.8l3-3.3c.4-.5.7-.9.9-1.2s.2-.6.2-1-.1-.8-.4-1.1-.6-.4-1.1-.4c-.5 0-1 .2-1.3.5s-.4.7-.4 1.3h-1.1c0-.8.3-1.4.8-1.9s1.2-.7 2-.7 1.4.2 1.9.6.7 1 .7 1.7c0 .8-.5 1.8-1.6 3l-2.3 2.5h4.3v.8zM643.8 294.4c0 1.3-.2 2.2-.7 2.8s-1.1.9-2 .9c-.9 0-1.6-.3-2-.9s-.7-1.5-.7-2.7v-1.4c0-1.3.2-2.2.7-2.8s1.1-.9 2-.9c.9 0 1.6.3 2 .9s.7 1.5.7 2.7v1.4zm-1.1-1.5c0-.9-.1-1.6-.4-2s-.7-.6-1.2-.6c-.6 0-1 .2-1.2.6s-.4 1.1-.4 1.9v1.7c0 .9.1 1.6.4 2s.7.7 1.2.7.9-.2 1.2-.6.4-1.1.4-2v-1.7zM648.7 298h-1.1v-7.2l-2.2.8v-1l3.1-1.2h.2v8.6zM653.5 293.2h.8c.5 0 .9-.1 1.2-.4s.4-.6.4-1.1c0-1-.5-1.5-1.5-1.5-.5 0-.8.1-1.1.4s-.4.6-.4 1.1h-1.1c0-.7.2-1.2.7-1.7s1.1-.7 1.9-.7c.8 0 1.4.2 1.9.6s.7 1 .7 1.8c0 .4-.1.7-.4 1.1s-.6.6-1 .8c.5.1.8.4 1.1.7s.4.8.4 1.3c0 .8-.2 1.4-.8 1.8s-1.2.7-2 .7-1.5-.2-2-.7-.8-1-.8-1.7h1.1c0 .4.1.8.4 1.1s.7.4 1.2.4.9-.1 1.2-.4.4-.7.4-1.2-.2-.9-.5-1.1-.7-.4-1.3-.4h-.8v-.9z"/></g><g class="st2" id="_2000"><path d="M163.5 298h-5.6v-.8l3-3.3c.4-.5.7-.9.9-1.2s.2-.6.2-1-.1-.8-.4-1.1-.6-.4-1.1-.4c-.5 0-1 .2-1.3.5s-.4.7-.4 1.3h-1.1c0-.8.3-1.4.8-1.9s1.2-.7 2-.7 1.4.2 1.9.6.7 1 .7 1.7c0 .8-.5 1.8-1.6 3l-2.3 2.5h4.3v.8zM170 294.4c0 1.3-.2 2.2-.7 2.8s-1.1.9-2 .9c-.9 0-1.6-.3-2-.9s-.7-1.5-.7-2.7v-1.4c0-1.3.2-2.2.7-2.8s1.1-.9 2-.9c.9 0 1.6.3 2 .9s.7 1.5.7 2.7v1.4zm-1.1-1.5c0-.9-.1-1.6-.4-2s-.7-.6-1.2-.6c-.6 0-1 .2-1.2.6s-.4 1.1-.4 1.9v1.7c0 .9.1 1.6.4 2s.7.7 1.2.7.9-.2 1.2-.6.4-1.1.4-2v-1.7zM176.7 294.4c0 1.3-.2 2.2-.7 2.8s-1.1.9-2 .9c-.9 0-1.6-.3-2-.9s-.7-1.5-.7-2.7v-1.4c0-1.3.2-2.2.7-2.8s1.1-.9 2-.9c.9 0 1.6.3 2 .9s.7 1.5.7 2.7v1.4zm-1-1.5c0-.9-.1-1.6-.4-2s-.7-.6-1.2-.6c-.6 0-1 .2-1.2.6s-.4 1.1-.4 1.9v1.7c0 .9.1 1.6.4 2s.7.7 1.2.7.9-.2 1.2-.6.4-1.1.4-2v-1.7zM183.5 294.4c0 1.3-.2 2.2-.7 2.8s-1.1.9-2 .9c-.9 0-1.6-.3-2-.9s-.7-1.5-.7-2.7v-1.4c0-1.3.2-2.2.7-2.8s1.1-.9 2-.9c.9 0 1.6.3 2 .9s.7 1.5.7 2.7v1.4zm-1.1-1.5c0-.9-.1-1.6-.4-2s-.7-.6-1.2-.6c-.6 0-1 .2-1.2.6s-.4 1.1-.4 1.9v1.7c0 .9.1 1.6.4 2s.7.7 1.2.7.9-.2 1.2-.6.4-1.1.4-2v-1.7z"/></g><g class="st2" id="_2008"><path d="M455.1 298h-5.6v-.8l3-3.3c.4-.5.7-.9.9-1.2s.2-.6.2-1-.1-.8-.4-1.1-.6-.4-1.1-.4c-.5 0-1 .2-1.3.5s-.4.7-.4 1.3h-1.1c0-.8.3-1.4.8-1.9s1.2-.7 2-.7 1.4.2 1.9.6.7 1 .7 1.7c0 .8-.5 1.8-1.6 3l-2.3 2.5h4.3v.8zM461.6 294.4c0 1.3-.2 2.2-.7 2.8s-1.1.9-2 .9c-.9 0-1.6-.3-2-.9s-.7-1.5-.7-2.7v-1.4c0-1.3.2-2.2.7-2.8s1.1-.9 2-.9c.9 0 1.6.3 2 .9s.7 1.5.7 2.7v1.4zm-1.1-1.5c0-.9-.1-1.6-.4-2s-.7-.6-1.2-.6c-.6 0-1 .2-1.2.6s-.4 1.1-.4 1.9v1.7c0 .9.1 1.6.4 2s.7.7 1.2.7.9-.2 1.2-.6.4-1.1.4-2v-1.7zM468.3 294.4c0 1.3-.2 2.2-.7 2.8s-1.1.9-2 .9c-.9 0-1.6-.3-2-.9s-.7-1.5-.7-2.7v-1.4c0-1.3.2-2.2.7-2.8s1.1-.9 2-.9c.9 0 1.6.3 2 .9s.7 1.5.7 2.7v1.4zm-1.1-1.5c0-.9-.1-1.6-.4-2s-.7-.6-1.2-.6c-.6 0-1 .2-1.2.6s-.4 1.1-.4 1.9v1.7c0 .9.1 1.6.4 2s.7.7 1.2.7.9-.2 1.2-.6.4-1.1.4-2v-1.7zM474.9 291.7c0 .4-.1.8-.3 1.1s-.5.6-.9.8c.4.2.8.5 1.1.8s.4.8.4 1.2c0 .7-.2 1.3-.7 1.8s-1.2.7-2 .7-1.5-.2-2-.7-.7-1-.7-1.8c0-.5.1-.9.4-1.2s.6-.7 1-.8c-.4-.2-.7-.4-.9-.8s-.3-.7-.3-1.1c0-.7.2-1.3.7-1.7s1.1-.6 1.8-.6c.8 0 1.4.2 1.8.6s.6 1 .6 1.7zm-.9 4c0-.5-.2-.9-.5-1.2s-.7-.5-1.2-.5-.9.1-1.2.4-.4.7-.4 1.2.1.9.4 1.1.7.4 1.2.4.9-.1 1.2-.4.5-.5.5-1zm-1.7-5.4c-.4 0-.8.1-1 .4s-.4.6-.4 1.1c0 .4.1.8.4 1.1s.6.4 1 .4.8-.1 1-.4.4-.6.4-1.1-.1-.8-.4-1.1-.5-.4-1-.4z"/></g><g class="st2" id="_2004"><path d="M309.3 298h-5.6v-.8l3-3.3c.4-.5.7-.9.9-1.2s.2-.6.2-1-.1-.8-.4-1.1-.6-.4-1.1-.4c-.5 0-1 .2-1.3.5s-.4.7-.4 1.3h-1.1c0-.8.3-1.4.8-1.9s1.2-.7 2-.7 1.4.2 1.9.6.7 1 .7 1.7c0 .8-.5 1.8-1.6 3l-2.3 2.5h4.3v.8zM315.8 294.4c0 1.3-.2 2.2-.7 2.8s-1.1.9-2 .9c-.9 0-1.6-.3-2-.9s-.7-1.5-.7-2.7v-1.4c0-1.3.2-2.2.7-2.8s1.1-.9 2-.9c.9 0 1.6.3 2 .9s.7 1.5.7 2.7v1.4zm-1.1-1.5c0-.9-.1-1.6-.4-2s-.7-.6-1.2-.6c-.6 0-1 .2-1.2.6s-.4 1.1-.4 1.9v1.7c0 .9.1 1.6.4 2s.7.7 1.2.7.9-.2 1.2-.6.4-1.1.4-2v-1.7zM322.5 294.4c0 1.3-.2 2.2-.7 2.8s-1.1.9-2 .9c-.9 0-1.6-.3-2-.9s-.7-1.5-.7-2.7v-1.4c0-1.3.2-2.2.7-2.8s1.1-.9 2-.9c.9 0 1.6.3 2 .9s.7 1.5.7 2.7v1.4zm-1.1-1.5c0-.9-.1-1.6-.4-2s-.7-.6-1.2-.6c-.6 0-1 .2-1.2.6s-.4 1.1-.4 1.9v1.7c0 .9.1 1.6.4 2s.7.7 1.2.7.9-.2 1.2-.6.4-1.1.4-2v-1.7zM328.5 295.2h1.2v.9h-1.2v2h-1.1v-2h-3.9v-.6l3.8-5.9h1.2v5.6zm-3.8 0h2.7V291l-.1.2-2.6 4z"/></g><g class="st2" id="_2012"><path d="M600.8 298h-5.6v-.8l3-3.3c.4-.5.7-.9.9-1.2s.2-.6.2-1-.1-.8-.4-1.1-.6-.4-1.1-.4c-.5 0-1 .2-1.3.5s-.4.7-.4 1.3H595c0-.8.3-1.4.8-1.9s1.2-.7 2-.7 1.4.2 1.9.6.7 1 .7 1.7c0 .8-.5 1.8-1.6 3l-2.3 2.5h4.3v.8zM607.3 294.4c0 1.3-.2 2.2-.7 2.8s-1.1.9-2 .9c-.9 0-1.6-.3-2-.9s-.7-1.5-.7-2.7v-1.4c0-1.3.2-2.2.7-2.8s1.1-.9 2-.9c.9 0 1.6.3 2 .9s.7 1.5.7 2.7v1.4zm-1-1.5c0-.9-.1-1.6-.4-2s-.7-.6-1.2-.6c-.6 0-1 .2-1.2.6s-.4 1.1-.4 1.9v1.7c0 .9.1 1.6.4 2s.7.7 1.2.7.9-.2 1.2-.6.4-1.1.4-2v-1.7zM612.3 298h-1.1v-7.2l-2.2.8v-1l3.1-1.2h.2v8.6zM621.1 298h-5.6v-.8l3-3.3c.4-.5.7-.9.9-1.2s.2-.6.2-1-.1-.8-.4-1.1-.6-.4-1.1-.4c-.5 0-1 .2-1.3.5s-.4.7-.4 1.3h-1.1c0-.8.3-1.4.8-1.9s1.2-.7 2-.7 1.4.2 1.9.6.7 1 .7 1.7c0 .8-.5 1.8-1.6 3l-2.3 2.5h4.3v.8z"/></g><g class="st2" id="_2002"><path d="M236.4 298h-5.6v-.8l3-3.3c.4-.5.7-.9.9-1.2s.2-.6.2-1-.1-.8-.4-1.1-.6-.4-1.1-.4c-.5 0-1 .2-1.3.5s-.4.7-.4 1.3h-1.1c0-.8.3-1.4.8-1.9s1.2-.7 2-.7 1.4.2 1.9.6.7 1 .7 1.7c0 .8-.5 1.8-1.6 3l-2.3 2.5h4.3v.8zM242.9 294.4c0 1.3-.2 2.2-.7 2.8s-1.1.9-2 .9c-.9 0-1.6-.3-2-.9s-.7-1.5-.7-2.7v-1.4c0-1.3.2-2.2.7-2.8s1.1-.9 2-.9c.9 0 1.6.3 2 .9s.7 1.5.7 2.7v1.4zm-1.1-1.5c0-.9-.1-1.6-.4-2s-.7-.6-1.2-.6c-.6 0-1 .2-1.2.6s-.4 1.1-.4 1.9v1.7c0 .9.1 1.6.4 2s.7.7 1.2.7.9-.2 1.2-.6.4-1.1.4-2v-1.7zM249.6 294.4c0 1.3-.2 2.2-.7 2.8s-1.1.9-2 .9c-.9 0-1.6-.3-2-.9s-.7-1.5-.7-2.7v-1.4c0-1.3.2-2.2.7-2.8s1.1-.9 2-.9c.9 0 1.6.3 2 .9s.7 1.5.7 2.7v1.4zm-1.1-1.5c0-.9-.1-1.6-.4-2s-.7-.6-1.2-.6c-.6 0-1 .2-1.2.6s-.4 1.1-.4 1.9v1.7c0 .9.1 1.6.4 2s.7.7 1.2.7.9-.2 1.2-.6.4-1.1.4-2v-1.7zM256.6 298H251v-.8l3-3.3c.4-.5.7-.9.9-1.2s.2-.6.2-1-.1-.8-.4-1.1-.6-.4-1.1-.4c-.5 0-1 .2-1.3.5s-.4.7-.4 1.3h-1.1c0-.8.3-1.4.8-1.9s1.2-.7 2-.7 1.4.2 1.9.6.7 1 .7 1.7c0 .8-.5 1.8-1.6 3l-2.3 2.5h4.3v.8z"/></g><g class="st2" id="_2010"><path d="M527.9 298h-5.6v-.8l3-3.3c.4-.5.7-.9.9-1.2s.2-.6.2-1-.1-.8-.4-1.1-.6-.4-1.1-.4c-.5 0-1 .2-1.3.5s-.4.7-.4 1.3h-1.1c0-.8.3-1.4.8-1.9s1.2-.7 2-.7 1.4.2 1.9.6.7 1 .7 1.7c0 .8-.5 1.8-1.6 3l-2.3 2.5h4.3v.8zM534.4 294.4c0 1.3-.2 2.2-.7 2.8s-1.1.9-2 .9c-.9 0-1.6-.3-2-.9s-.7-1.5-.7-2.7v-1.4c0-1.3.2-2.2.7-2.8s1.1-.9 2-.9c.9 0 1.6.3 2 .9s.7 1.5.7 2.7v1.4zm-1-1.5c0-.9-.1-1.6-.4-2s-.7-.6-1.2-.6c-.6 0-1 .2-1.2.6s-.4 1.1-.4 1.9v1.7c0 .9.1 1.6.4 2s.7.7 1.2.7.9-.2 1.2-.6.4-1.1.4-2v-1.7zM539.4 298h-1.1v-7.2l-2.2.8v-1l3.1-1.2h.2v8.6zM547.9 294.4c0 1.3-.2 2.2-.7 2.8s-1.1.9-2 .9c-.9 0-1.6-.3-2-.9s-.7-1.5-.7-2.7v-1.4c0-1.3.2-2.2.7-2.8s1.1-.9 2-.9c.9 0 1.6.3 2 .9s.7 1.5.7 2.7v1.4zm-1.1-1.5c0-.9-.1-1.6-.4-2s-.7-.6-1.2-.6c-.6 0-1 .2-1.2.6s-.4 1.1-.4 1.9v1.7c0 .9.1 1.6.4 2s.7.7 1.2.7.9-.2 1.2-.6.4-1.1.4-2v-1.7z"/></g><g class="st2" id="_2006"><path d="M382.2 298h-5.6v-.8l3-3.3c.4-.5.7-.9.9-1.2s.2-.6.2-1-.1-.8-.4-1.1-.6-.4-1.1-.4c-.5 0-1 .2-1.3.5s-.4.7-.4 1.3h-1.1c0-.8.3-1.4.8-1.9s1.2-.7 2-.7 1.4.2 1.9.6.7 1 .7 1.7c0 .8-.5 1.8-1.6 3l-2.3 2.5h4.3v.8zM388.7 294.4c0 1.3-.2 2.2-.7 2.8s-1.1.9-2 .9c-.9 0-1.6-.3-2-.9s-.7-1.5-.7-2.7v-1.4c0-1.3.2-2.2.7-2.8s1.1-.9 2-.9c.9 0 1.6.3 2 .9s.7 1.5.7 2.7v1.4zm-1.1-1.5c0-.9-.1-1.6-.4-2s-.7-.6-1.2-.6c-.6 0-1 .2-1.2.6s-.4 1.1-.4 1.9v1.7c0 .9.1 1.6.4 2s.7.7 1.2.7.9-.2 1.2-.6.4-1.1.4-2v-1.7zM395.4 294.4c0 1.3-.2 2.2-.7 2.8s-1.1.9-2 .9c-.9 0-1.6-.3-2-.9s-.7-1.5-.7-2.7v-1.4c0-1.3.2-2.2.7-2.8s1.1-.9 2-.9c.9 0 1.6.3 2 .9s.7 1.5.7 2.7v1.4zm-1.1-1.5c0-.9-.1-1.6-.4-2s-.7-.6-1.2-.6c-.6 0-1 .2-1.2.6s-.4 1.1-.4 1.9v1.7c0 .9.1 1.6.4 2s.7.7 1.2.7.9-.2 1.2-.6.4-1.1.4-2v-1.7zM401 289.5v.9h-.2c-.8 0-1.5.3-2 .8s-.8 1.2-.9 2c.4-.5 1.1-.8 1.8-.8s1.3.3 1.8.8.7 1.2.7 2c0 .9-.2 1.6-.7 2.1s-1.1.8-1.9.8c-.8 0-1.5-.3-2-.9s-.8-1.4-.8-2.4v-.4c0-1.6.3-2.8 1-3.6s1.7-1.3 3-1.3h.2zm-1.4 3.8c-.4 0-.7.1-1 .3s-.5.5-.7.8v.4c0 .7.2 1.3.5 1.7s.7.6 1.2.6.9-.2 1.2-.5.4-.8.4-1.4c0-.6-.1-1.1-.4-1.4s-.7-.5-1.2-.5z"/></g><g class="st2" id="_2014"><path d="M673.7 298h-5.6v-.8l3-3.3c.4-.5.7-.9.9-1.2s.2-.6.2-1-.1-.8-.4-1.1-.6-.4-1.1-.4c-.5 0-1 .2-1.3.5s-.4.7-.4 1.3h-1c0-.8.3-1.4.8-1.9s1.2-.7 2-.7 1.4.2 1.9.6.7 1 .7 1.7c0 .8-.5 1.8-1.6 3l-2.3 2.5h4.3v.8zM680.2 294.4c0 1.3-.2 2.2-.7 2.8s-1.1.9-2 .9c-.9 0-1.6-.3-2-.9s-.7-1.5-.7-2.7v-1.4c0-1.3.2-2.2.7-2.8s1.1-.9 2-.9c.9 0 1.6.3 2 .9s.7 1.5.7 2.7v1.4zm-1.1-1.5c0-.9-.1-1.6-.4-2s-.7-.6-1.2-.6c-.6 0-1 .2-1.2.6s-.4 1.1-.4 1.9v1.7c0 .9.1 1.6.4 2s.7.7 1.2.7.9-.2 1.2-.6.4-1.1.4-2v-1.7zM685.2 298h-1.1v-7.2l-2.2.8v-1l3.1-1.2h.2v8.6zM692.9 295.2h1.2v.9h-1.2v2h-1.1v-2h-3.9v-.6l3.8-5.9h1.2v5.6zm-3.7 0h2.7V291l-.1.2-2.6 4z"/></g><g class="st2" id="_2015"><path d="M710.2 298h-5.6v-.8l3-3.3c.4-.5.7-.9.9-1.2s.2-.6.2-1-.1-.8-.4-1.1-.6-.4-1.1-.4c-.5 0-1 .2-1.3.5s-.4.7-.4 1.3h-1.1c0-.8.3-1.4.8-1.9s1.2-.7 2-.7 1.4.2 1.9.6.7 1 .7 1.7c0 .8-.5 1.8-1.6 3l-2.3 2.5h4.3v.8zM716.7 294.4c0 1.3-.2 2.2-.7 2.8s-1.1.9-2 .9c-.9 0-1.6-.3-2-.9s-.7-1.5-.7-2.7v-1.4c0-1.3.2-2.2.7-2.8s1.1-.9 2-.9c.9 0 1.6.3 2 .9s.7 1.5.7 2.7v1.4zm-1.1-1.5c0-.9-.1-1.6-.4-2s-.7-.6-1.2-.6c-.6 0-1 .2-1.2.6s-.4 1.1-.4 1.9v1.7c0 .9.1 1.6.4 2s.7.7 1.2.7.9-.2 1.2-.6.4-1.1.4-2v-1.7zM721.6 298h-1.1v-7.2l-2.2.8v-1l3.1-1.2h.2v8.6zM725.3 293.8l.4-4.3h4.4v1h-3.5l-.3 2.3c.4-.2.9-.4 1.4-.4.8 0 1.4.3 1.9.8s.7 1.2.7 2.1c0 .9-.2 1.6-.7 2.1s-1.1.8-2 .8c-.8 0-1.4-.2-1.8-.6s-.7-1-.8-1.7h1c.1.5.2.9.5 1.1s.7.4 1.1.4c.5 0 .9-.2 1.2-.5s.4-.8.4-1.4c0-.6-.2-1-.5-1.4s-.7-.5-1.2-.5-.8.1-1.1.3l-.3.2-.8-.3z"/></g><g class="st2" id="_2017"><path d="M819.5 298h-5.6v-.8l3-3.3c.4-.5.7-.9.9-1.2s.2-.6.2-1-.1-.8-.4-1.1-.6-.4-1.1-.4c-.5 0-1 .2-1.3.5s-.4.7-.4 1.3h-1.1c0-.8.3-1.4.8-1.9s1.2-.7 2-.7 1.4.2 1.9.6.7 1 .7 1.7c0 .8-.5 1.8-1.6 3l-2.3 2.5h4.3v.8zM826 294.4c0 1.3-.2 2.2-.7 2.8s-1.1.9-2 .9c-.9 0-1.6-.3-2-.9s-.7-1.5-.7-2.7v-1.4c0-1.3.2-2.2.7-2.8s1.1-.9 2-.9c.9 0 1.6.3 2 .9s.7 1.5.7 2.7v1.4zm-1.1-1.5c0-.9-.1-1.6-.4-2s-.7-.6-1.2-.6c-.6 0-1 .2-1.2.6s-.4 1.1-.4 1.9v1.7c0 .9.1 1.6.4 2s.7.7 1.2.7.9-.2 1.2-.6.4-1.1.4-2v-1.7zM830.9 298h-1.1v-7.2l-2.2.8v-1l3.1-1.2h.2v8.6zM839.3 291.7c0 .4-.1.8-.3 1.1s-.5.6-.9.8c.4.2.8.5 1.1.8s.4.8.4 1.2c0 .7-.2 1.3-.7 1.8s-1.2.7-2 .7-1.5-.2-2-.7-.7-1-.7-1.8c0-.5.1-.9.4-1.2s.6-.7 1-.8c-.4-.2-.7-.4-.9-.8s-.3-.7-.3-1.1c0-.7.2-1.3.7-1.7s1.1-.6 1.8-.6c.8 0 1.4.2 1.8.6s.6 1 .6 1.7zm-.9 4c0-.5-.2-.9-.5-1.2s-.7-.5-1.2-.5-.9.1-1.2.4-.4.7-.4 1.2.1.9.4 1.1.7.4 1.2.4.9-.1 1.2-.4.5-.5.5-1zm-1.6-5.4c-.4 0-.8.1-1 .4s-.4.6-.4 1.1c0 .4.1.8.4 1.1s.6.4 1 .4.8-.1 1-.4.4-.6.4-1.1-.1-.8-.4-1.1-.6-.4-1-.4z"/></g><g class="st2" id="_2017-2"><path d="M783.1 298h-5.6v-.8l3-3.3c.4-.5.7-.9.9-1.2s.2-.6.2-1-.1-.8-.4-1.1-.6-.4-1.1-.4c-.5 0-1 .2-1.3.5s-.4.7-.4 1.3h-1.1c0-.8.3-1.4.8-1.9s1.2-.7 2-.7 1.4.2 1.9.6.7 1 .7 1.7c0 .8-.5 1.8-1.6 3l-2.3 2.5h4.3v.8zM789.6 294.4c0 1.3-.2 2.2-.7 2.8s-1.1.9-2 .9c-.9 0-1.6-.3-2-.9s-.7-1.5-.7-2.7v-1.4c0-1.3.2-2.2.7-2.8s1.1-.9 2-.9c.9 0 1.6.3 2 .9s.7 1.5.7 2.7v1.4zm-1.1-1.5c0-.9-.1-1.6-.4-2s-.7-.6-1.2-.6c-.6 0-1 .2-1.2.6s-.4 1.1-.4 1.9v1.7c0 .9.1 1.6.4 2s.7.7 1.2.7.9-.2 1.2-.6.4-1.1.4-2v-1.7zM794.5 298h-1.1v-7.2l-2.2.8v-1l3.1-1.2h.2v8.6zM803.2 290.1l-3.5 7.9h-1.1l3.5-7.6h-4.6v-.9h5.8v.6z"/></g><g class="st2" id="_2016"><path d="M746.6 298H741v-.8l3-3.3c.4-.5.7-.9.9-1.2s.2-.6.2-1-.1-.8-.4-1.1-.6-.4-1.1-.4c-.5 0-1 .2-1.3.5s-.4.7-.4 1.3h-1.1c0-.8.3-1.4.8-1.9s1.2-.7 2-.7 1.4.2 1.9.6.7 1 .7 1.7c0 .8-.5 1.8-1.6 3l-2.3 2.5h4.3v.8zM753.1 294.4c0 1.3-.2 2.2-.7 2.8s-1.1.9-2 .9c-.9 0-1.6-.3-2-.9s-.7-1.5-.7-2.7v-1.4c0-1.3.2-2.2.7-2.8s1.1-.9 2-.9c.9 0 1.6.3 2 .9s.7 1.5.7 2.7v1.4zm-1.1-1.5c0-.9-.1-1.6-.4-2s-.7-.6-1.2-.6c-.6 0-1 .2-1.2.6s-.4 1.1-.4 1.9v1.7c0 .9.1 1.6.4 2s.7.7 1.2.7.9-.2 1.2-.6.4-1.1.4-2v-1.7zM758.1 298H757v-7.2l-2.2.8v-1l3.1-1.2h.2v8.6zM765.5 289.5v.9h-.2c-.8 0-1.5.3-2 .8s-.8 1.2-.9 2c.4-.5 1.1-.8 1.8-.8s1.3.3 1.8.8.7 1.2.7 2c0 .9-.2 1.6-.7 2.1s-1.1.8-1.9.8c-.8 0-1.5-.3-2-.9s-.8-1.4-.8-2.4v-.4c0-1.6.3-2.8 1-3.6s1.7-1.3 3-1.3h.2zm-1.4 3.8c-.4 0-.7.1-1 .3s-.5.5-.7.8v.4c0 .7.2 1.3.5 1.7s.7.6 1.2.6.9-.2 1.2-.5.4-.8.4-1.4c0-.6-.1-1.1-.4-1.4s-.8-.5-1.2-.5z"/></g><g class="st2" id="_120_000_000"><path d="M63.1 115.5c0-.4-.1-.7-.4-.9s-.7-.5-1.3-.7c-.8-.3-1.4-.6-1.8-1s-.6-.9-.6-1.6c0-.6.2-1.2.6-1.6s.9-.7 1.5-.7v-1.3h.9v1.3c.7.1 1.2.4 1.5.8s.5 1.1.5 1.9h-1c0-.6-.1-1-.4-1.3s-.6-.4-1-.4c-.5 0-.8.1-1.1.4-.2.2-.4.6-.4 1s.1.7.4 1c.3.2.7.5 1.3.6.6.2 1.1.4 1.4.6s.6.5.7.8.2.7.2 1.1c0 .7-.2 1.2-.6 1.6s-1 .6-1.7.7v1.1h-.9v-1.1c-.7-.1-1.3-.3-1.7-.8s-.6-1.1-.6-1.8h1.1c0 .5.1 1 .4 1.3s.7.4 1.2.4.9-.1 1.2-.4.6-.6.6-1zM69.1 117.7H68v-7.2l-2.2.8v-1l3.1-1.2h.2v8.6zM77.9 117.7h-5.6v-.8l3-3.3c.4-.5.7-.9.9-1.2s.2-.6.2-1-.1-.8-.4-1.1-.6-.4-1.1-.4c-.5 0-1 .2-1.3.5s-.4.7-.4 1.3h-1.1c0-.8.3-1.4.8-1.9s1.2-.7 2-.7 1.4.2 1.9.6.7 1 .7 1.7c0 .8-.5 1.8-1.6 3l-2.3 2.5h4.3v.8zM84.4 114.1c0 1.3-.2 2.2-.7 2.8s-1.1.9-2 .9c-.9 0-1.6-.3-2-.9s-.7-1.5-.7-2.7v-1.4c0-1.3.2-2.2.7-2.8s1.1-.9 2-.9c.9 0 1.6.3 2 .9s.7 1.5.7 2.7v1.4zm-1.1-1.5c0-.9-.1-1.6-.4-2s-.7-.6-1.2-.6c-.6 0-1 .2-1.2.6s-.4 1.1-.4 1.9v1.7c0 .9.1 1.6.4 2s.7.7 1.2.7.9-.2 1.2-.6.4-1.1.4-2v-1.7zM85.8 119.4l-.6-.4c.4-.5.6-1 .6-1.6v-1h1.1v.8c0 .4-.1.8-.3 1.2s-.5.8-.8 1zM93.4 114.1c0 1.3-.2 2.2-.7 2.8s-1.1.9-2 .9c-.9 0-1.6-.3-2-.9s-.7-1.5-.7-2.7v-1.4c0-1.3.2-2.2.7-2.8s1.1-.9 2-.9c.9 0 1.6.3 2 .9s.7 1.5.7 2.7v1.4zm-1-1.5c0-.9-.1-1.6-.4-2s-.7-.6-1.2-.6c-.6 0-1 .2-1.2.6s-.4 1.1-.4 1.9v1.7c0 .9.1 1.6.4 2s.7.7 1.2.7.9-.2 1.2-.6.4-1.1.4-2v-1.7zM100.2 114.1c0 1.3-.2 2.2-.7 2.8s-1.1.9-2 .9c-.9 0-1.6-.3-2-.9s-.7-1.5-.7-2.7v-1.4c0-1.3.2-2.2.7-2.8s1.1-.9 2-.9c.9 0 1.6.3 2 .9s.7 1.5.7 2.7v1.4zm-1.1-1.5c0-.9-.1-1.6-.4-2s-.7-.6-1.2-.6c-.6 0-1 .2-1.2.6s-.4 1.1-.4 1.9v1.7c0 .9.1 1.6.4 2s.7.7 1.2.7.9-.2 1.2-.6.4-1.1.4-2v-1.7zM106.9 114.1c0 1.3-.2 2.2-.7 2.8s-1.1.9-2 .9c-.9 0-1.6-.3-2-.9s-.7-1.5-.7-2.7v-1.4c0-1.3.2-2.2.7-2.8s1.1-.9 2-.9c.9 0 1.6.3 2 .9s.7 1.5.7 2.7v1.4zm-1.1-1.5c0-.9-.1-1.6-.4-2s-.7-.6-1.2-.6c-.6 0-1 .2-1.2.6s-.4 1.1-.4 1.9v1.7c0 .9.1 1.6.4 2s.7.7 1.2.7.9-.2 1.2-.6.4-1.1.4-2v-1.7zM108.4 119.4l-.6-.4c.4-.5.6-1 .6-1.6v-1h1.1v.8c0 .4-.1.8-.3 1.2s-.5.8-.8 1zM116 114.1c0 1.3-.2 2.2-.7 2.8s-1.1.9-2 .9c-.9 0-1.6-.3-2-.9s-.7-1.5-.7-2.7v-1.4c0-1.3.2-2.2.7-2.8s1.1-.9 2-.9c.9 0 1.6.3 2 .9s.7 1.5.7 2.7v1.4zm-1.1-1.5c0-.9-.1-1.6-.4-2s-.7-.6-1.2-.6c-.6 0-1 .2-1.2.6s-.4 1.1-.4 1.9v1.7c0 .9.1 1.6.4 2s.7.7 1.2.7.9-.2 1.2-.6.4-1.1.4-2v-1.7zM122.8 114.1c0 1.3-.2 2.2-.7 2.8s-1.1.9-2 .9c-.9 0-1.6-.3-2-.9s-.7-1.5-.7-2.7v-1.4c0-1.3.2-2.2.7-2.8s1.1-.9 2-.9c.9 0 1.6.3 2 .9s.7 1.5.7 2.7v1.4zm-1.1-1.5c0-.9-.1-1.6-.4-2s-.7-.6-1.2-.6c-.6 0-1 .2-1.2.6s-.4 1.1-.4 1.9v1.7c0 .9.1 1.6.4 2s.7.7 1.2.7.9-.2 1.2-.6.4-1.1.4-2v-1.7zM129.5 114.1c0 1.3-.2 2.2-.7 2.8s-1.1.9-2 .9c-.9 0-1.6-.3-2-.9s-.7-1.5-.7-2.7v-1.4c0-1.3.2-2.2.7-2.8s1.1-.9 2-.9c.9 0 1.6.3 2 .9s.7 1.5.7 2.7v1.4zm-1.1-1.5c0-.9-.1-1.6-.4-2s-.7-.6-1.2-.6c-.6 0-1 .2-1.2.6s-.4 1.1-.4 1.9v1.7c0 .9.1 1.6.4 2s.7.7 1.2.7.9-.2 1.2-.6.4-1.1.4-2v-1.7z"/></g><g class="st2" id="_140_000_000"><path d="M63.1 88.2c0-.4-.1-.7-.4-.9s-.7-.5-1.3-.7c-.8-.3-1.4-.6-1.8-1s-.6-.9-.6-1.6c0-.6.2-1.2.6-1.6s.9-.7 1.5-.7v-1.3h.9v1.3c.7.1 1.2.4 1.5.8s.5 1.1.5 1.9h-1c0-.6-.1-1-.4-1.3s-.6-.5-1.1-.5c-.5 0-.8.1-1.1.4-.2.2-.4.6-.4 1s.1.7.4 1c.3.2.7.5 1.3.6.6.2 1.1.4 1.4.6s.6.5.7.8.2.7.2 1.1c0 .7-.2 1.2-.6 1.6s-1 .6-1.7.7v1.1h-.9v-1.1c-.7-.1-1.3-.3-1.7-.8s-.6-1.1-.6-1.8h1.1c0 .5.1 1 .4 1.3s.7.4 1.2.4.9-.1 1.2-.4.7-.5.7-.9zM69.1 90.4H68v-7.2l-2.2.8v-1l3.1-1.2h.2v8.6zM76.8 87.5H78v.9h-1.2v2h-1.1v-2h-3.9v-.6l3.8-5.9h1.2v5.6zm-3.7 0h2.7v-4.2l-.1.2-2.6 4zM84.4 86.7c0 1.3-.2 2.2-.7 2.8s-1.1.9-2 .9c-.9 0-1.6-.3-2-.9s-.7-1.4-.7-2.6v-1.4c0-1.3.2-2.2.7-2.8s1.1-.9 2-.9c.9 0 1.6.3 2 .9s.7 1.5.7 2.7v1.3zm-1.1-1.5c0-.9-.1-1.6-.4-2s-.7-.6-1.2-.6c-.6 0-1 .2-1.2.6s-.4 1.1-.4 1.9v1.7c0 .9.1 1.6.4 2s.7.7 1.2.7.9-.2 1.2-.6.4-1.1.4-2v-1.7zM85.8 92.1l-.6-.4c.4-.5.6-1 .6-1.6v-1h1.1v.8c0 .4-.1.8-.3 1.2s-.5.7-.8 1zM93.4 86.7c0 1.3-.2 2.2-.7 2.8s-1.1.9-2 .9c-.9 0-1.6-.3-2-.9S88 88 88 86.8v-1.4c0-1.3.2-2.2.7-2.8s1.1-.9 2-.9c.9 0 1.6.3 2 .9s.7 1.5.7 2.7v1.4zm-1-1.5c0-.9-.1-1.6-.4-2s-.7-.6-1.2-.6c-.6 0-1 .2-1.2.6s-.4 1.1-.4 1.9v1.7c0 .9.1 1.6.4 2s.7.7 1.2.7.9-.2 1.2-.6.4-1.1.4-2v-1.7zM100.2 86.7c0 1.3-.2 2.2-.7 2.8s-1.1.9-2 .9c-.9 0-1.6-.3-2-.9s-.7-1.5-.7-2.7v-1.4c0-1.3.2-2.2.7-2.8s1.1-.9 2-.9c.9 0 1.6.3 2 .9s.7 1.5.7 2.7v1.4zm-1.1-1.5c0-.9-.1-1.6-.4-2s-.7-.6-1.2-.6c-.6 0-1 .2-1.2.6s-.4 1.1-.4 1.9v1.7c0 .9.1 1.6.4 2s.7.7 1.2.7.9-.2 1.2-.6.4-1.1.4-2v-1.7zM106.9 86.7c0 1.3-.2 2.2-.7 2.8s-1.1.9-2 .9c-.9 0-1.6-.3-2-.9s-.7-1.5-.7-2.7v-1.4c0-1.3.2-2.2.7-2.8s1.1-.9 2-.9c.9 0 1.6.3 2 .9s.7 1.5.7 2.7v1.4zm-1.1-1.5c0-.9-.1-1.6-.4-2s-.7-.6-1.2-.6c-.6 0-1 .2-1.2.6s-.4 1.1-.4 1.9v1.7c0 .9.1 1.6.4 2s.7.7 1.2.7.9-.2 1.2-.6.4-1.1.4-2v-1.7zM108.4 92.1l-.6-.4c.4-.5.6-1 .6-1.6v-1h1.1v.8c0 .4-.1.8-.3 1.2s-.5.7-.8 1zM116 86.7c0 1.3-.2 2.2-.7 2.8s-1.1.9-2 .9c-.9 0-1.6-.3-2-.9s-.7-1.5-.7-2.7v-1.4c0-1.3.2-2.2.7-2.8s1.1-.9 2-.9c.9 0 1.6.3 2 .9s.7 1.5.7 2.7v1.4zm-1.1-1.5c0-.9-.1-1.6-.4-2s-.7-.6-1.2-.6c-.6 0-1 .2-1.2.6s-.4 1.1-.4 1.9v1.7c0 .9.1 1.6.4 2s.7.7 1.2.7.9-.2 1.2-.6.4-1.1.4-2v-1.7zM122.8 86.7c0 1.3-.2 2.2-.7 2.8s-1.1.9-2 .9c-.9 0-1.6-.3-2-.9s-.7-1.5-.7-2.7v-1.4c0-1.3.2-2.2.7-2.8s1.1-.9 2-.9c.9 0 1.6.3 2 .9s.7 1.5.7 2.7v1.4zm-1.1-1.5c0-.9-.1-1.6-.4-2s-.7-.6-1.2-.6c-.6 0-1 .2-1.2.6s-.4 1.1-.4 1.9v1.7c0 .9.1 1.6.4 2s.7.7 1.2.7.9-.2 1.2-.6.4-1.1.4-2v-1.7zM129.5 86.7c0 1.3-.2 2.2-.7 2.8s-1.1.9-2 .9c-.9 0-1.6-.3-2-.9s-.7-1.5-.7-2.7v-1.4c0-1.3.2-2.2.7-2.8s1.1-.9 2-.9c.9 0 1.6.3 2 .9s.7 1.5.7 2.7v1.4zm-1.1-1.5c0-.9-.1-1.6-.4-2s-.7-.6-1.2-.6c-.6 0-1 .2-1.2.6s-.4 1.1-.4 1.9v1.7c0 .9.1 1.6.4 2s.7.7 1.2.7.9-.2 1.2-.6.4-1.1.4-2v-1.7z"/></g><g class="st2" id="_80_000_000"><path d="M69.8 170.1c0-.4-.1-.7-.4-.9s-.7-.5-1.3-.7c-.8-.3-1.4-.6-1.8-1s-.6-.9-.6-1.6c0-.6.2-1.2.6-1.6s.9-.7 1.5-.7v-1.3h.9v1.3c.7.1 1.2.4 1.5.8s.5 1.1.5 1.9h-1.1c0-.6-.1-1-.4-1.3s-.6-.5-1.1-.5c-.5 0-.8.1-1.1.4-.2.2-.4.6-.4 1s.1.7.4 1c.3.2.7.5 1.3.6.6.2 1.1.4 1.4.6s.6.5.7.8.2.7.2 1.1c0 .7-.2 1.2-.6 1.6s-1 .6-1.7.7v1.1h-.9v-1.1c-.7-.1-1.3-.3-1.7-.8s-.6-1.1-.6-1.8h1.1c0 .5.1 1 .4 1.3s.7.4 1.2.4.9-.1 1.2-.4.8-.4.8-.9zM77.5 166c0 .4-.1.8-.3 1.1s-.5.6-.9.8c.4.2.8.5 1.1.8s.4.8.4 1.2c0 .7-.2 1.3-.7 1.8s-1.2.7-2 .7-1.5-.2-2-.7-.7-1-.7-1.8c0-.5.1-.9.4-1.2s.6-.7 1-.8c-.4-.2-.7-.4-.9-.8s-.3-.7-.3-1.1c0-.7.2-1.3.7-1.7s1.1-.6 1.8-.6c.8 0 1.4.2 1.8.6s.6 1 .6 1.7zm-.9 4c0-.5-.2-.9-.5-1.2s-.7-.5-1.2-.5-.9.1-1.2.4-.4.7-.4 1.2.1.9.4 1.1.7.4 1.2.4.9-.1 1.2-.4.5-.5.5-1zm-1.7-5.4c-.4 0-.8.1-1 .4s-.4.6-.4 1.1c0 .4.1.8.4 1.1s.6.4 1 .4.8-.1 1-.4.4-.6.4-1.1-.1-.8-.4-1.1-.5-.4-1-.4zM84.4 168.7c0 1.3-.2 2.2-.7 2.8s-1.1.9-2 .9c-.9 0-1.6-.3-2-.9s-.7-1.5-.7-2.7v-1.4c0-1.3.2-2.2.7-2.8s1.1-.9 2-.9c.9 0 1.6.3 2 .9s.7 1.5.7 2.7v1.4zm-1.1-1.5c0-.9-.1-1.6-.4-2s-.7-.6-1.2-.6c-.6 0-1 .2-1.2.6s-.4 1.1-.4 1.9v1.7c0 .9.1 1.6.4 2s.7.7 1.2.7.9-.2 1.2-.6.4-1.1.4-2v-1.7zM85.8 174l-.6-.4c.4-.5.6-1 .6-1.6v-1h1.1v.8c0 .4-.1.8-.3 1.2s-.5.8-.8 1zM93.5 168.7c0 1.3-.2 2.2-.7 2.8s-1.1.9-2 .9c-.9 0-1.6-.3-2-.9s-.7-1.5-.7-2.7v-1.4c0-1.3.2-2.2.7-2.8s1.1-.9 2-.9c.9 0 1.6.3 2 .9s.7 1.5.7 2.7v1.4zm-1.1-1.5c0-.9-.1-1.6-.4-2s-.7-.6-1.2-.6c-.6 0-1 .2-1.2.6s-.4 1.1-.4 1.9v1.7c0 .9.1 1.6.4 2s.7.7 1.2.7.9-.2 1.2-.6.4-1.1.4-2v-1.7zM100.2 168.7c0 1.3-.2 2.2-.7 2.8s-1.1.9-2 .9c-.9 0-1.6-.3-2-.9s-.7-1.5-.7-2.7v-1.4c0-1.3.2-2.2.7-2.8s1.1-.9 2-.9c.9 0 1.6.3 2 .9s.7 1.5.7 2.7v1.4zm-1.1-1.5c0-.9-.1-1.6-.4-2s-.7-.6-1.2-.6c-.6 0-1 .2-1.2.6s-.4 1.1-.4 1.9v1.7c0 .9.1 1.6.4 2s.7.7 1.2.7.9-.2 1.2-.6.4-1.1.4-2v-1.7zM106.9 168.7c0 1.3-.2 2.2-.7 2.8s-1.1.9-2 .9c-.9 0-1.6-.3-2-.9s-.7-1.5-.7-2.7v-1.4c0-1.3.2-2.2.7-2.8s1.1-.9 2-.9c.9 0 1.6.3 2 .9s.7 1.5.7 2.7v1.4zm-1-1.5c0-.9-.1-1.6-.4-2s-.7-.6-1.2-.6c-.6 0-1 .2-1.2.6s-.4 1.1-.4 1.9v1.7c0 .9.1 1.6.4 2s.7.7 1.2.7.9-.2 1.2-.6.4-1.1.4-2v-1.7zM108.4 174l-.6-.4c.4-.5.6-1 .6-1.6v-1h1.1v.8c0 .4-.1.8-.3 1.2s-.5.8-.8 1zM116 168.7c0 1.3-.2 2.2-.7 2.8s-1.1.9-2 .9c-.9 0-1.6-.3-2-.9s-.7-1.5-.7-2.7v-1.4c0-1.3.2-2.2.7-2.8s1.1-.9 2-.9c.9 0 1.6.3 2 .9s.7 1.5.7 2.7v1.4zm-1.1-1.5c0-.9-.1-1.6-.4-2s-.7-.6-1.2-.6c-.6 0-1 .2-1.2.6s-.4 1.1-.4 1.9v1.7c0 .9.1 1.6.4 2s.7.7 1.2.7.9-.2 1.2-.6.4-1.1.4-2v-1.7zM122.8 168.7c0 1.3-.2 2.2-.7 2.8s-1.1.9-2 .9c-.9 0-1.6-.3-2-.9s-.7-1.5-.7-2.7v-1.4c0-1.3.2-2.2.7-2.8s1.1-.9 2-.9c.9 0 1.6.3 2 .9s.7 1.5.7 2.7v1.4zm-1.1-1.5c0-.9-.1-1.6-.4-2s-.7-.6-1.2-.6c-.6 0-1 .2-1.2.6s-.4 1.1-.4 1.9v1.7c0 .9.1 1.6.4 2s.7.7 1.2.7.9-.2 1.2-.6.4-1.1.4-2v-1.7zM129.5 168.7c0 1.3-.2 2.2-.7 2.8s-1.1.9-2 .9c-.9 0-1.6-.3-2-.9s-.7-1.5-.7-2.7v-1.4c0-1.3.2-2.2.7-2.8s1.1-.9 2-.9c.9 0 1.6.3 2 .9s.7 1.5.7 2.7v1.4zm-1.1-1.5c0-.9-.1-1.6-.4-2s-.7-.6-1.2-.6c-.6 0-1 .2-1.2.6s-.4 1.1-.4 1.9v1.7c0 .9.1 1.6.4 2s.7.7 1.2.7.9-.2 1.2-.6.4-1.1.4-2v-1.7z"/></g><g class="st2" id="_100_000_000"><path d="M63.1 142.8c0-.4-.1-.7-.4-.9s-.7-.5-1.3-.7c-.8-.3-1.4-.6-1.8-1s-.6-.9-.6-1.6c0-.6.2-1.2.6-1.6s.9-.7 1.5-.7V135h.9v1.3c.7.1 1.2.4 1.5.8s.5 1.1.5 1.9h-1c0-.6-.1-1-.4-1.3s-.6-.5-1.1-.5c-.5 0-.8.1-1.1.4-.2.2-.4.6-.4 1s.1.7.4 1c.3.2.7.5 1.3.6.6.2 1.1.4 1.4.6s.6.5.7.8.2.7.2 1.1c0 .7-.2 1.2-.6 1.6s-1 .6-1.7.7v1.1H61V145c-.7-.1-1.3-.3-1.7-.8s-.6-1.1-.6-1.8h1.1c0 .5.1 1 .4 1.3s.7.4 1.2.4.9-.1 1.2-.4.5-.5.5-.9zM69.1 145H68v-7.2l-2.2.8v-1l3.1-1.2h.2v8.6zM77.6 141.4c0 1.3-.2 2.2-.7 2.8s-1.1.9-2 .9c-.9 0-1.6-.3-2-.9s-.7-1.5-.7-2.7v-1.4c0-1.3.2-2.2.7-2.8s1.1-.9 2-.9c.9 0 1.6.3 2 .9s.7 1.5.7 2.7v1.4zm-1.1-1.5c0-.9-.1-1.6-.4-2s-.7-.6-1.2-.6c-.6 0-1 .2-1.2.6s-.4 1.1-.4 1.9v1.7c0 .9.1 1.6.4 2s.7.7 1.2.7.9-.2 1.2-.6.4-1.1.4-2v-1.7zM84.3 141.4c0 1.3-.2 2.2-.7 2.8s-1.1.9-2 .9c-.9 0-1.6-.3-2-.9s-.7-1.5-.7-2.7v-1.4c0-1.3.2-2.2.7-2.8s1.1-.9 2-.9c.9 0 1.6.3 2 .9s.7 1.5.7 2.7v1.4zm-1-1.5c0-.9-.1-1.6-.4-2s-.7-.6-1.2-.6c-.6 0-1 .2-1.2.6s-.4 1.1-.4 1.9v1.7c0 .9.1 1.6.4 2s.7.7 1.2.7.9-.2 1.2-.6.4-1.1.4-2v-1.7zM85.8 146.7l-.6-.4c.4-.5.6-1 .6-1.6v-1h1.1v.8c0 .4-.1.8-.3 1.2s-.5.8-.8 1zM93.4 141.4c0 1.3-.2 2.2-.7 2.8s-1.1.9-2 .9c-.9 0-1.6-.3-2-.9s-.7-1.5-.7-2.7v-1.4c0-1.3.2-2.2.7-2.8s1.1-.9 2-.9c.9 0 1.6.3 2 .9s.7 1.5.7 2.7v1.4zm-1-1.5c0-.9-.1-1.6-.4-2s-.7-.6-1.2-.6c-.6 0-1 .2-1.2.6s-.4 1.1-.4 1.9v1.7c0 .9.1 1.6.4 2s.7.7 1.2.7.9-.2 1.2-.6.4-1.1.4-2v-1.7zM100.2 141.4c0 1.3-.2 2.2-.7 2.8s-1.1.9-2 .9c-.9 0-1.6-.3-2-.9s-.7-1.5-.7-2.7v-1.4c0-1.3.2-2.2.7-2.8s1.1-.9 2-.9c.9 0 1.6.3 2 .9s.7 1.5.7 2.7v1.4zm-1.1-1.5c0-.9-.1-1.6-.4-2s-.7-.6-1.2-.6c-.6 0-1 .2-1.2.6s-.4 1.1-.4 1.9v1.7c0 .9.1 1.6.4 2s.7.7 1.2.7.9-.2 1.2-.6.4-1.1.4-2v-1.7zM106.9 141.4c0 1.3-.2 2.2-.7 2.8s-1.1.9-2 .9c-.9 0-1.6-.3-2-.9s-.7-1.5-.7-2.7v-1.4c0-1.3.2-2.2.7-2.8s1.1-.9 2-.9c.9 0 1.6.3 2 .9s.7 1.5.7 2.7v1.4zm-1.1-1.5c0-.9-.1-1.6-.4-2s-.7-.6-1.2-.6c-.6 0-1 .2-1.2.6s-.4 1.1-.4 1.9v1.7c0 .9.1 1.6.4 2s.7.7 1.2.7.9-.2 1.2-.6.4-1.1.4-2v-1.7zM108.4 146.7l-.6-.4c.4-.5.6-1 .6-1.6v-1h1.1v.8c0 .4-.1.8-.3 1.2s-.5.8-.8 1zM116 141.4c0 1.3-.2 2.2-.7 2.8s-1.1.9-2 .9c-.9 0-1.6-.3-2-.9s-.7-1.5-.7-2.7v-1.4c0-1.3.2-2.2.7-2.8s1.1-.9 2-.9c.9 0 1.6.3 2 .9s.7 1.5.7 2.7v1.4zm-1.1-1.5c0-.9-.1-1.6-.4-2s-.7-.6-1.2-.6c-.6 0-1 .2-1.2.6s-.4 1.1-.4 1.9v1.7c0 .9.1 1.6.4 2s.7.7 1.2.7.9-.2 1.2-.6.4-1.1.4-2v-1.7zM122.7 141.4c0 1.3-.2 2.2-.7 2.8s-1.1.9-2 .9c-.9 0-1.6-.3-2-.9s-.7-1.5-.7-2.7v-1.4c0-1.3.2-2.2.7-2.8s1.1-.9 2-.9c.9 0 1.6.3 2 .9s.7 1.5.7 2.7v1.4zm-1-1.5c0-.9-.1-1.6-.4-2s-.7-.6-1.2-.6c-.6 0-1 .2-1.2.6s-.4 1.1-.4 1.9v1.7c0 .9.1 1.6.4 2s.7.7 1.2.7.9-.2 1.2-.6.4-1.1.4-2v-1.7zM129.5 141.4c0 1.3-.2 2.2-.7 2.8s-1.1.9-2 .9c-.9 0-1.6-.3-2-.9s-.7-1.5-.7-2.7v-1.4c0-1.3.2-2.2.7-2.8s1.1-.9 2-.9c.9 0 1.6.3 2 .9s.7 1.5.7 2.7v1.4zm-1.1-1.5c0-.9-.1-1.6-.4-2s-.7-.6-1.2-.6c-.6 0-1 .2-1.2.6s-.4 1.1-.4 1.9v1.7c0 .9.1 1.6.4 2s.7.7 1.2.7.9-.2 1.2-.6.4-1.1.4-2v-1.7z"/></g><g class="st2" id="_40_000_000"><path d="M69.8 224.8c0-.4-.1-.7-.4-.9s-.7-.5-1.3-.7c-.8-.3-1.4-.6-1.8-1s-.6-.9-.6-1.6c0-.6.2-1.2.6-1.6s.9-.7 1.5-.7V217h.9v1.3c.7.1 1.2.4 1.5.8s.5 1.1.5 1.9h-1.1c0-.6-.1-1-.4-1.3s-.6-.5-1.1-.5c-.5 0-.8.1-1.1.4-.2.2-.4.6-.4 1s.1.7.4 1c.3.2.7.5 1.3.6.6.2 1.1.4 1.4.6s.6.5.7.8.2.7.2 1.1c0 .7-.2 1.2-.6 1.6s-1 .6-1.7.7v1.1h-.9V227c-.7-.1-1.3-.3-1.7-.8s-.6-1.1-.6-1.8h1.1c0 .5.1 1 .4 1.3s.7.4 1.2.4.9-.1 1.2-.4.8-.5.8-.9zM76.9 224.1H78v.9h-1.2v2h-1.1v-2h-3.9v-.6l3.8-5.9h1.2v5.6zm-3.8 0h2.7V220l-.1.2-2.6 3.9zM84.4 223.4c0 1.3-.2 2.2-.7 2.8s-1.1.9-2 .9c-.9 0-1.6-.3-2-.9s-.7-1.5-.7-2.7v-1.4c0-1.3.2-2.2.7-2.8s1.1-.9 2-.9c.9 0 1.6.3 2 .9s.7 1.5.7 2.7v1.4zm-1.1-1.5c0-.9-.1-1.6-.4-2s-.7-.6-1.2-.6c-.6 0-1 .2-1.2.6s-.4 1.1-.4 1.9v1.7c0 .9.1 1.6.4 2s.7.7 1.2.7.9-.2 1.2-.6.4-1.1.4-2v-1.7zM85.8 228.7l-.6-.4c.4-.5.6-1 .6-1.6v-1h1.1v.8c0 .4-.1.8-.3 1.2s-.5.8-.8 1zM93.5 223.4c0 1.3-.2 2.2-.7 2.8s-1.1.9-2 .9c-.9 0-1.6-.3-2-.9s-.7-1.5-.7-2.7v-1.4c0-1.3.2-2.2.7-2.8s1.1-.9 2-.9c.9 0 1.6.3 2 .9s.7 1.5.7 2.7v1.4zm-1.1-1.5c0-.9-.1-1.6-.4-2s-.7-.6-1.2-.6c-.6 0-1 .2-1.2.6s-.4 1.1-.4 1.9v1.7c0 .9.1 1.6.4 2s.7.7 1.2.7.9-.2 1.2-.6.4-1.1.4-2v-1.7zM100.2 223.4c0 1.3-.2 2.2-.7 2.8s-1.1.9-2 .9c-.9 0-1.6-.3-2-.9s-.7-1.5-.7-2.7v-1.4c0-1.3.2-2.2.7-2.8s1.1-.9 2-.9c.9 0 1.6.3 2 .9s.7 1.5.7 2.7v1.4zm-1.1-1.5c0-.9-.1-1.6-.4-2s-.7-.6-1.2-.6c-.6 0-1 .2-1.2.6s-.4 1.1-.4 1.9v1.7c0 .9.1 1.6.4 2s.7.7 1.2.7.9-.2 1.2-.6.4-1.1.4-2v-1.7zM106.9 223.4c0 1.3-.2 2.2-.7 2.8s-1.1.9-2 .9c-.9 0-1.6-.3-2-.9s-.7-1.5-.7-2.7v-1.4c0-1.3.2-2.2.7-2.8s1.1-.9 2-.9c.9 0 1.6.3 2 .9s.7 1.5.7 2.7v1.4zm-1-1.5c0-.9-.1-1.6-.4-2s-.7-.6-1.2-.6c-.6 0-1 .2-1.2.6s-.4 1.1-.4 1.9v1.7c0 .9.1 1.6.4 2s.7.7 1.2.7.9-.2 1.2-.6.4-1.1.4-2v-1.7zM108.4 228.7l-.6-.4c.4-.5.6-1 .6-1.6v-1h1.1v.8c0 .4-.1.8-.3 1.2s-.5.8-.8 1zM116 223.4c0 1.3-.2 2.2-.7 2.8s-1.1.9-2 .9c-.9 0-1.6-.3-2-.9s-.7-1.5-.7-2.7v-1.4c0-1.3.2-2.2.7-2.8s1.1-.9 2-.9c.9 0 1.6.3 2 .9s.7 1.5.7 2.7v1.4zm-1.1-1.5c0-.9-.1-1.6-.4-2s-.7-.6-1.2-.6c-.6 0-1 .2-1.2.6s-.4 1.1-.4 1.9v1.7c0 .9.1 1.6.4 2s.7.7 1.2.7.9-.2 1.2-.6.4-1.1.4-2v-1.7zM122.8 223.4c0 1.3-.2 2.2-.7 2.8s-1.1.9-2 .9c-.9 0-1.6-.3-2-.9s-.7-1.5-.7-2.7v-1.4c0-1.3.2-2.2.7-2.8s1.1-.9 2-.9c.9 0 1.6.3 2 .9s.7 1.5.7 2.7v1.4zm-1.1-1.5c0-.9-.1-1.6-.4-2s-.7-.6-1.2-.6c-.6 0-1 .2-1.2.6s-.4 1.1-.4 1.9v1.7c0 .9.1 1.6.4 2s.7.7 1.2.7.9-.2 1.2-.6.4-1.1.4-2v-1.7zM129.5 223.4c0 1.3-.2 2.2-.7 2.8s-1.1.9-2 .9c-.9 0-1.6-.3-2-.9s-.7-1.5-.7-2.7v-1.4c0-1.3.2-2.2.7-2.8s1.1-.9 2-.9c.9 0 1.6.3 2 .9s.7 1.5.7 2.7v1.4zm-1.1-1.5c0-.9-.1-1.6-.4-2s-.7-.6-1.2-.6c-.6 0-1 .2-1.2.6s-.4 1.1-.4 1.9v1.7c0 .9.1 1.6.4 2s.7.7 1.2.7.9-.2 1.2-.6.4-1.1.4-2v-1.7z"/></g><g class="st2" id="_60_000_000"><path d="M69.8 197.5c0-.4-.1-.7-.4-.9s-.7-.5-1.3-.7c-.8-.3-1.4-.6-1.8-1s-.6-.9-.6-1.6c0-.6.2-1.2.6-1.6s.9-.7 1.5-.7v-1.3h.9v1.3c.7.1 1.2.4 1.5.8s.5 1.1.5 1.9h-1.1c0-.6-.1-1-.4-1.3s-.6-.5-1.1-.5c-.5 0-.8.1-1.1.4-.2.2-.4.6-.4 1s.1.7.4 1c.3.2.7.5 1.3.6.6.2 1.1.4 1.4.6s.6.5.7.8.2.7.2 1.1c0 .7-.2 1.2-.6 1.6s-1 .6-1.7.7v1.1h-.9v-1.1c-.7-.1-1.3-.3-1.7-.8s-.6-1.1-.6-1.8h1.1c0 .5.1 1 .4 1.3s.7.4 1.2.4.9-.1 1.2-.4.8-.5.8-.9zM76.5 191.1v.9h-.2c-.8 0-1.5.3-2 .8s-.8 1.2-.9 2c.4-.5 1.1-.8 1.8-.8s1.3.3 1.8.8.7 1.2.7 2c0 .9-.2 1.6-.7 2.1s-1.1.8-1.9.8c-.8 0-1.5-.3-2-.9s-.8-1.4-.8-2.4v-.4c0-1.6.3-2.8 1-3.6s1.7-1.3 3-1.3h.2zm-1.4 3.9c-.4 0-.7.1-1 .3s-.5.5-.7.8v.4c0 .7.2 1.3.5 1.7s.7.6 1.2.6.9-.2 1.2-.5.4-.8.4-1.4c0-.6-.1-1.1-.4-1.4s-.7-.5-1.2-.5zM84.4 196c0 1.3-.2 2.2-.7 2.8s-1.1.9-2 .9c-.9 0-1.6-.3-2-.9s-.7-1.5-.7-2.7v-1.4c0-1.3.2-2.2.7-2.8s1.1-.9 2-.9c.9 0 1.6.3 2 .9s.7 1.5.7 2.7v1.4zm-1.1-1.5c0-.9-.1-1.6-.4-2s-.7-.6-1.2-.6c-.6 0-1 .2-1.2.6s-.4 1.1-.4 1.9v1.7c0 .9.1 1.6.4 2s.7.7 1.2.7.9-.2 1.2-.6.4-1.1.4-2v-1.7zM85.8 201.4l-.6-.4c.4-.5.6-1 .6-1.6v-1h1.1v.8c0 .4-.1.8-.3 1.2s-.5.7-.8 1zM93.5 196c0 1.3-.2 2.2-.7 2.8s-1.1.9-2 .9c-.9 0-1.6-.3-2-.9s-.7-1.5-.7-2.7v-1.4c0-1.3.2-2.2.7-2.8s1.1-.9 2-.9c.9 0 1.6.3 2 .9s.7 1.5.7 2.7v1.4zm-1.1-1.5c0-.9-.1-1.6-.4-2s-.7-.6-1.2-.6c-.6 0-1 .2-1.2.6s-.4 1.1-.4 1.9v1.7c0 .9.1 1.6.4 2s.7.7 1.2.7.9-.2 1.2-.6.4-1.1.4-2v-1.7zM100.2 196c0 1.3-.2 2.2-.7 2.8s-1.1.9-2 .9c-.9 0-1.6-.3-2-.9s-.7-1.5-.7-2.7v-1.4c0-1.3.2-2.2.7-2.8s1.1-.9 2-.9c.9 0 1.6.3 2 .9s.7 1.5.7 2.7v1.4zm-1.1-1.5c0-.9-.1-1.6-.4-2s-.7-.6-1.2-.6c-.6 0-1 .2-1.2.6s-.4 1.1-.4 1.9v1.7c0 .9.1 1.6.4 2s.7.7 1.2.7.9-.2 1.2-.6.4-1.1.4-2v-1.7zM106.9 196c0 1.3-.2 2.2-.7 2.8s-1.1.9-2 .9c-.9 0-1.6-.3-2-.9s-.7-1.5-.7-2.7v-1.4c0-1.3.2-2.2.7-2.8s1.1-.9 2-.9c.9 0 1.6.3 2 .9s.7 1.5.7 2.7v1.4zm-1-1.5c0-.9-.1-1.6-.4-2s-.7-.6-1.2-.6c-.6 0-1 .2-1.2.6s-.4 1.1-.4 1.9v1.7c0 .9.1 1.6.4 2s.7.7 1.2.7.9-.2 1.2-.6.4-1.1.4-2v-1.7zM108.4 201.4l-.6-.4c.4-.5.6-1 .6-1.6v-1h1.1v.8c0 .4-.1.8-.3 1.2s-.5.7-.8 1zM116 196c0 1.3-.2 2.2-.7 2.8s-1.1.9-2 .9c-.9 0-1.6-.3-2-.9s-.7-1.5-.7-2.7v-1.4c0-1.3.2-2.2.7-2.8s1.1-.9 2-.9c.9 0 1.6.3 2 .9s.7 1.5.7 2.7v1.4zm-1.1-1.5c0-.9-.1-1.6-.4-2s-.7-.6-1.2-.6c-.6 0-1 .2-1.2.6s-.4 1.1-.4 1.9v1.7c0 .9.1 1.6.4 2s.7.7 1.2.7.9-.2 1.2-.6.4-1.1.4-2v-1.7zM122.8 196c0 1.3-.2 2.2-.7 2.8s-1.1.9-2 .9c-.9 0-1.6-.3-2-.9s-.7-1.5-.7-2.7v-1.4c0-1.3.2-2.2.7-2.8s1.1-.9 2-.9c.9 0 1.6.3 2 .9s.7 1.5.7 2.7v1.4zm-1.1-1.5c0-.9-.1-1.6-.4-2s-.7-.6-1.2-.6c-.6 0-1 .2-1.2.6s-.4 1.1-.4 1.9v1.7c0 .9.1 1.6.4 2s.7.7 1.2.7.9-.2 1.2-.6.4-1.1.4-2v-1.7zM129.5 196c0 1.3-.2 2.2-.7 2.8s-1.1.9-2 .9c-.9 0-1.6-.3-2-.9s-.7-1.5-.7-2.7v-1.4c0-1.3.2-2.2.7-2.8s1.1-.9 2-.9c.9 0 1.6.3 2 .9s.7 1.5.7 2.7v1.4zm-1.1-1.5c0-.9-.1-1.6-.4-2s-.7-.6-1.2-.6c-.6 0-1 .2-1.2.6s-.4 1.1-.4 1.9v1.7c0 .9.1 1.6.4 2s.7.7 1.2.7.9-.2 1.2-.6.4-1.1.4-2v-1.7z"/></g><g class="st2" id="_20_000_000"><path d="M69.8 252.1c0-.4-.1-.7-.4-.9s-.7-.5-1.3-.7c-.8-.3-1.4-.6-1.8-1s-.6-.9-.6-1.6c0-.6.2-1.2.6-1.6s.9-.7 1.5-.7v-1.3h.9v1.3c.7.1 1.2.4 1.5.8s.5 1.1.5 1.9h-1.1c0-.6-.1-1-.4-1.3s-.6-.5-1.1-.5c-.5 0-.8.1-1.1.4-.2.2-.4.6-.4 1s.1.7.4 1c.3.2.7.5 1.3.6.6.2 1.1.4 1.4.6s.6.5.7.8.2.7.2 1.1c0 .7-.2 1.2-.6 1.6s-1 .6-1.7.7v1.1h-.9v-1.1c-.7-.1-1.3-.3-1.7-.8s-.6-1.1-.6-1.8h1.1c0 .5.1 1 .4 1.3s.7.4 1.2.4.9-.1 1.2-.4.8-.4.8-.9zM77.9 254.3h-5.6v-.8l3-3.3c.4-.5.7-.9.9-1.2s.2-.6.2-1-.1-.8-.4-1.1-.6-.4-1.1-.4c-.5 0-1 .2-1.3.5s-.4.7-.4 1.3h-1.1c0-.8.3-1.4.8-1.9s1.2-.7 2-.7 1.4.2 1.9.6.7 1 .7 1.7c0 .8-.5 1.8-1.6 3l-2.3 2.5h4.3v.8zM84.4 250.7c0 1.3-.2 2.2-.7 2.8s-1.1.9-2 .9c-.9 0-1.6-.3-2-.9s-.7-1.5-.7-2.7v-1.4c0-1.3.2-2.2.7-2.8s1.1-.9 2-.9c.9 0 1.6.3 2 .9s.7 1.5.7 2.7v1.4zm-1.1-1.5c0-.9-.1-1.6-.4-2s-.7-.6-1.2-.6c-.6 0-1 .2-1.2.6s-.4 1.1-.4 1.9v1.7c0 .9.1 1.6.4 2s.7.7 1.2.7.9-.2 1.2-.6.4-1.1.4-2v-1.7zM85.8 256l-.6-.4c.4-.5.6-1 .6-1.6v-1h1.1v.8c0 .4-.1.8-.3 1.2s-.5.8-.8 1zM93.5 250.7c0 1.3-.2 2.2-.7 2.8s-1.1.9-2 .9c-.9 0-1.6-.3-2-.9s-.7-1.5-.7-2.7v-1.4c0-1.3.2-2.2.7-2.8s1.1-.9 2-.9c.9 0 1.6.3 2 .9s.7 1.5.7 2.7v1.4zm-1.1-1.5c0-.9-.1-1.6-.4-2s-.7-.6-1.2-.6c-.6 0-1 .2-1.2.6s-.4 1.1-.4 1.9v1.7c0 .9.1 1.6.4 2s.7.7 1.2.7.9-.2 1.2-.6.4-1.1.4-2v-1.7zM100.2 250.7c0 1.3-.2 2.2-.7 2.8s-1.1.9-2 .9c-.9 0-1.6-.3-2-.9s-.7-1.5-.7-2.7v-1.4c0-1.3.2-2.2.7-2.8s1.1-.9 2-.9c.9 0 1.6.3 2 .9s.7 1.5.7 2.7v1.4zm-1.1-1.5c0-.9-.1-1.6-.4-2s-.7-.6-1.2-.6c-.6 0-1 .2-1.2.6s-.4 1.1-.4 1.9v1.7c0 .9.1 1.6.4 2s.7.7 1.2.7.9-.2 1.2-.6.4-1.1.4-2v-1.7zM106.9 250.7c0 1.3-.2 2.2-.7 2.8s-1.1.9-2 .9c-.9 0-1.6-.3-2-.9s-.7-1.5-.7-2.7v-1.4c0-1.3.2-2.2.7-2.8s1.1-.9 2-.9c.9 0 1.6.3 2 .9s.7 1.5.7 2.7v1.4zm-1-1.5c0-.9-.1-1.6-.4-2s-.7-.6-1.2-.6c-.6 0-1 .2-1.2.6s-.4 1.1-.4 1.9v1.7c0 .9.1 1.6.4 2s.7.7 1.2.7.9-.2 1.2-.6.4-1.1.4-2v-1.7zM108.4 256l-.6-.4c.4-.5.6-1 .6-1.6v-1h1.1v.8c0 .4-.1.8-.3 1.2s-.5.8-.8 1zM116 250.7c0 1.3-.2 2.2-.7 2.8s-1.1.9-2 .9c-.9 0-1.6-.3-2-.9s-.7-1.5-.7-2.7v-1.4c0-1.3.2-2.2.7-2.8s1.1-.9 2-.9c.9 0 1.6.3 2 .9s.7 1.5.7 2.7v1.4zm-1.1-1.5c0-.9-.1-1.6-.4-2s-.7-.6-1.2-.6c-.6 0-1 .2-1.2.6s-.4 1.1-.4 1.9v1.7c0 .9.1 1.6.4 2s.7.7 1.2.7.9-.2 1.2-.6.4-1.1.4-2v-1.7zM122.8 250.7c0 1.3-.2 2.2-.7 2.8s-1.1.9-2 .9c-.9 0-1.6-.3-2-.9s-.7-1.5-.7-2.7v-1.4c0-1.3.2-2.2.7-2.8s1.1-.9 2-.9c.9 0 1.6.3 2 .9s.7 1.5.7 2.7v1.4zm-1.1-1.5c0-.9-.1-1.6-.4-2s-.7-.6-1.2-.6c-.6 0-1 .2-1.2.6s-.4 1.1-.4 1.9v1.7c0 .9.1 1.6.4 2s.7.7 1.2.7.9-.2 1.2-.6.4-1.1.4-2v-1.7zM129.5 250.7c0 1.3-.2 2.2-.7 2.8s-1.1.9-2 .9c-.9 0-1.6-.3-2-.9s-.7-1.5-.7-2.7v-1.4c0-1.3.2-2.2.7-2.8s1.1-.9 2-.9c.9 0 1.6.3 2 .9s.7 1.5.7 2.7v1.4zm-1.1-1.5c0-.9-.1-1.6-.4-2s-.7-.6-1.2-.6c-.6 0-1 .2-1.2.6s-.4 1.1-.4 1.9v1.7c0 .9.1 1.6.4 2s.7.7 1.2.7.9-.2 1.2-.6.4-1.1.4-2v-1.7z"/></g><path d="M129.7 276.4c0 1.3-.2 2.2-.7 2.8s-1.1.9-2 .9c-.9 0-1.6-.3-2-.9s-.7-1.5-.7-2.7v-1.4c0-1.3.2-2.2.7-2.8s1.1-.9 2-.9c.9 0 1.6.3 2 .9s.7 1.5.7 2.7v1.4zm-1.1-1.5c0-.9-.1-1.6-.4-2s-.7-.6-1.2-.6c-.6 0-1 .2-1.2.6s-.4 1.1-.4 1.9v1.7c0 .9.1 1.6.4 2s.7.7 1.2.7.9-.2 1.2-.6.4-1.1.4-2v-1.7z" class="st2" id="_0"/><path class="st3" d="M741 136h23v143h-23z" id="Rectangle_204"/><g id="Rectangle_228" class="st5"><path class="st3" d="M813.9 79.5h23V279h-23z"/></g><path class="st3" d="M777.4 107.5h23V279h-23z" id="Rectangle_228-2"/><path class="st3" d="M704.6 156h23v123h-23z" id="Rectangle_205"/><path class="st3" d="M668.1 222h23v57h-23z" id="Rectangle_680"/><path class="st3" d="M631.7 237h23v42h-23z" id="Rectangle_206"/><path class="st3" d="M595.2 259h23v20h-23z" id="Rectangle_207"/><path class="st3" d="M303.7 270.8h23v8.2h-23z" id="Rectangle_210"/><path class="st3" d="M267.2 271.7h23v7.4h-23z" id="Rectangle_677"/><path class="st3" d="M157.9 278.4h23v.6h-23v-.6z" id="Path_540"/><path class="st3" d="M194.3 278.4h23v.6h-23v-.6z" id="Path_541"/><path class="st3" d="M230.8 277.5h23v1.5h-23v-1.5z" id="Path_542"/><path class="st3" d="M340.1 270.2h23v8.9h-23z" id="Rectangle_212"/><path class="st3" d="M413 266h23v13h-23z" id="Rectangle_678"/><path class="st3" d="M449.4 262.5h23V279h-23z" id="Rectangle_214"/><path class="st3" d="M485.9 264.2h23v14.9h-23z" id="Rectangle_679"/><path class="st3" d="M376.6 263.2h23v15.9h-23z" id="Rectangle_215"/><path class="st3" d="M558.8 263.3h23V279h-23z" id="Rectangle_216"/><path class="st3" d="M522.3 265h23v14h-23z" id="Rectangle_217"/><g id="projected"><g class="st2"><path class="st0" d="M826.1 202.6c1.1 0 2 .3 2.7.8s1 1.2 1 2.1c0 .9-.3 1.6-.9 2.1h3.6v1.3h-10.2v-1.2l.8-.1c-.6-.5-1-1.2-1-2.1 0-.9.3-1.6 1-2.1s1.6-.8 2.8-.8h.2zm-.2 1.3c-.8 0-1.5.2-2 .5s-.7.8-.7 1.5c0 .8.3 1.3 1 1.7h3.5c.7-.4 1-1 1-1.7 0-.6-.2-1.1-.7-1.4-.4-.5-1.1-.6-2.1-.6z"/></g><g class="st2"><path class="st0" d="M823.4 197.3v.6c0 .8.4 1.4 1.1 1.7h5.2v1.3h-7.4v-1.2h.9c-.7-.4-1-1-1-1.8 0-.2 0-.4.1-.6h1.1z"/></g><g class="st2"><path class="st0" d="M825.9 196.6c-.7 0-1.4-.1-2-.4s-1-.7-1.3-1.2-.5-1.1-.5-1.7c0-1 .3-1.8 1-2.4s1.6-.9 2.8-.9h.1c.7 0 1.4.1 1.9.4.6.3 1 .7 1.3 1.2s.5 1.1.5 1.8c0 1-.3 1.8-1 2.4s-1.5.8-2.8.8zm.2-1.3c.8 0 1.5-.2 2-.6s.7-.9.7-1.5-.3-1.2-.8-1.5c-.5-.4-1.2-.6-2.1-.6-.8 0-1.5.2-2 .6-.5.4-.8.9-.8 1.5s.2 1.1.7 1.5 1.4.6 2.3.6zM820.3 188.3c-.2 0-.4-.1-.5-.2-.1-.1-.2-.3-.2-.6 0-.2.1-.4.2-.6s.3-.2.5-.2.4.1.5.2.2.3.2.6-.1.4-.2.6-.3.2-.5.2zm2-1.4h8.3c1.4 0 2.1.6 2.1 1.9 0 .3 0 .5-.1.8h-1c0-.1.1-.3.1-.6s-.1-.5-.2-.6c-.2-.1-.4-.2-.8-.2h-8.3v-1.3zM829.8 181.8c0 1-.3 1.8-1 2.4-.7.6-1.5.9-2.6.9h-.2c-.7 0-1.4-.1-2-.4-.6-.3-1-.7-1.4-1.2-.3-.5-.5-1-.5-1.6 0-1 .3-1.7 1-2.2s1.5-.8 2.7-.8h.5v5c.7 0 1.3-.2 1.8-.6.4-.4.7-.9.7-1.6 0-.4-.1-.8-.3-1.1s-.4-.6-.7-.8l.6-.8c1 .7 1.4 1.6 1.4 2.8zm-6.6.2c0 .5.2.9.6 1.3.4.3.9.6 1.6.6v-3.7h-.1c-.6 0-1.1.2-1.5.5-.4.3-.6.8-.6 1.3zM828.8 174.5c0-.5-.1-.8-.4-1.2s-.6-.5-1-.6v-1.2c.4 0 .8.2 1.2.4s.7.6.9 1.1.3.9.3 1.4c0 1-.3 1.8-1 2.4-.7.6-1.6.9-2.8.9h-.2c-.7 0-1.4-.1-1.9-.4s-1-.6-1.3-1.1-.5-1.1-.5-1.8c0-.8.2-1.5.7-2.1s1.1-.8 1.9-.9v1.2c-.5 0-.9.2-1.2.5-.3.3-.5.7-.5 1.2 0 .6.2 1.1.7 1.5.5.4 1.1.5 2 .5h.2c.9 0 1.5-.2 2-.5s.9-.6.9-1.3zM820.5 168.4h1.8V167h1v1.4h4.6c.3 0 .5-.1.7-.2s.2-.3.2-.6c0-.1 0-.3-.1-.6h1c.1.3.1.7.1 1 0 .6-.2 1-.5 1.3s-.8.4-1.5.4h-4.6v1.3h-1v-1.3h-1.8v-1.3zM829.8 162.5c0 1-.3 1.8-1 2.4-.7.6-1.5.9-2.6.9h-.2c-.7 0-1.4-.1-2-.4-.6-.3-1-.7-1.4-1.2-.3-.5-.5-1-.5-1.6 0-1 .3-1.7 1-2.2s1.5-.8 2.7-.8h.5v5c.7 0 1.3-.2 1.8-.6.4-.4.7-.9.7-1.6 0-.4-.1-.8-.3-1.1s-.4-.6-.7-.8l.6-.8c1 .6 1.4 1.6 1.4 2.8zm-6.6.2c0 .5.2.9.6 1.3.4.3.9.6 1.6.6v-3.7h-.1c-.6 0-1.1.2-1.5.5-.4.3-.6.7-.6 1.3zM825.9 158.5c-1.1 0-2-.3-2.7-.8-.7-.5-1-1.2-1-2.1 0-.9.3-1.6.9-2.1h-3.9v-1.3h10.5v1.2l-.8.1c.6.5.9 1.2.9 2.1 0 .9-.4 1.6-1.1 2.1s-1.5.8-2.8.8zm.2-1.3c.8 0 1.5-.2 2-.5s.7-.8.7-1.4c0-.8-.4-1.4-1.1-1.8h-3.4c-.7.4-1 1-1 1.7 0 .6.2 1.1.7 1.4s1.1.6 2.1.6z"/></g></g></svg>