<svg id="Layer_1" data-name="Layer 1" xmlns="http://www.w3.org/2000/svg" viewBox="0 0 900 400"><defs><style>.cls-1{fill:#fff;}.cls-2,.cls-5{fill:none;}.cls-2{stroke:#95989a;}.cls-3,.cls-6,.cls-7{isolation:isolate;}.cls-4,.cls-6,.cls-7{fill:#2a3052;}.cls-5{stroke:#dedede;stroke-width:2px;}.cls-6{opacity:0.6;}</style></defs><title>cw-chart</title><g id="Rectangle_202" data-name="Rectangle 202"><rect class="cls-1" width="900" height="400"/><rect class="cls-2" x="0.5" y="0.5" width="899" height="399"/></g><g id="Number_of_transactions_on_binary.com" data-name="Number of transactions on binary.com" class="cls-3"><g class="cls-3"><path class="cls-4" d="M406.814,339.505l.012.035a2.568,2.568,0,0,1-.844,2.013,3.216,3.216,0,0,1-2.291.811,3.01,3.01,0,0,1-2.358-1.025,3.774,3.774,0,0,1-.911-2.6V337.22a3.786,3.786,0,0,1,.911-2.605,3.006,3.006,0,0,1,2.358-1.028,3.315,3.315,0,0,1,2.3.77,2.548,2.548,0,0,1,.832,2.042l-.012.036h-1.107a1.9,1.9,0,0,0-.527-1.418,2.027,2.027,0,0,0-1.489-.522,1.821,1.821,0,0,0-1.541.778,3.176,3.176,0,0,0-.574,1.933v1.527a3.194,3.194,0,0,0,.574,1.945,1.821,1.821,0,0,0,1.541.778,2.037,2.037,0,0,0,1.489-.518,1.922,1.922,0,0,0,.527-1.433Z"/><path class="cls-4" d="M409.416,342.241h-1.154V333.1h1.154Z"/><path class="cls-4" d="M412.439,334.278h-1.154V333.1h1.154Zm0,7.963h-1.154V335.9h1.154Z"/><path class="cls-4" d="M416.846,342.364a2.676,2.676,0,0,1-2.107-.882,3.319,3.319,0,0,1-.782-2.288v-.257a3.25,3.25,0,0,1,.806-2.253,2.481,2.481,0,0,1,1.907-.9,2.4,2.4,0,0,1,1.939.774,3.077,3.077,0,0,1,.657,2.062v.721h-4.114l-.017.029a2.488,2.488,0,0,0,.463,1.5,1.475,1.475,0,0,0,1.248.587,2.912,2.912,0,0,0,1.028-.167,2.366,2.366,0,0,0,.765-.46l.451.751a2.682,2.682,0,0,1-.9.56A3.6,3.6,0,0,1,416.846,342.364Zm-.176-5.672a1.248,1.248,0,0,0-.99.488,2.3,2.3,0,0,0-.5,1.223l.012.03h2.923v-.152a1.763,1.763,0,0,0-.363-1.134A1.3,1.3,0,0,0,416.67,336.692Z"/><path class="cls-4" d="M421.592,335.9l.082.944a2.3,2.3,0,0,1,.794-.783,2.121,2.121,0,0,1,1.087-.278,2.068,2.068,0,0,1,1.588.6,2.634,2.634,0,0,1,.562,1.854v4h-1.154v-3.978a1.721,1.721,0,0,0-.331-1.19,1.329,1.329,0,0,0-1.011-.351,1.629,1.629,0,0,0-.882.24,1.75,1.75,0,0,0-.612.656v4.623h-1.154V335.9Z"/><path class="cls-4" d="M428.9,334.372V335.9h1.2v.856h-1.2v3.849a.862.862,0,0,0,.185.627.667.667,0,0,0,.489.182,1.2,1.2,0,0,0,.22-.023,1.457,1.457,0,0,0,.214-.059l.152.791a1.026,1.026,0,0,1-.378.173,1.906,1.906,0,0,1-.5.067,1.491,1.491,0,0,1-1.119-.425,1.845,1.845,0,0,1-.416-1.333v-3.849h-1.008V335.9h1.008v-1.529Z"/><path class="cls-4" d="M436.439,339.288l.159,1.066.035.006.228-1.072,1.565-5.578h1.019l1.576,5.578.235,1.1h.035l.17-1.1,1.271-5.578h1.155l-2.057,8.531H440.8l-1.682-5.918-.152-.767h-.035l-.147.767-1.711,5.918h-1.031l-2.051-8.531h1.149Z"/><path class="cls-4" d="M446.359,334.278h-1.154V333.1h1.154Zm0,7.963h-1.154V335.9h1.154Z"/><path class="cls-4" d="M449.658,334.372V335.9h1.2v.856h-1.2v3.849a.862.862,0,0,0,.185.627.667.667,0,0,0,.489.182,1.211,1.211,0,0,0,.22-.023,1.457,1.457,0,0,0,.214-.059l.152.791a1.026,1.026,0,0,1-.378.173,1.906,1.906,0,0,1-.5.067,1.491,1.491,0,0,1-1.119-.425,1.845,1.845,0,0,1-.416-1.333v-3.849H447.5V335.9H448.5v-1.529Z"/><path class="cls-4" d="M453.438,336.751a2.331,2.331,0,0,1,.805-.712,2.212,2.212,0,0,1,1.058-.255,2.045,2.045,0,0,1,1.579.61,2.68,2.68,0,0,1,.565,1.875v3.972h-1.154v-3.984a1.694,1.694,0,0,0-.337-1.16,1.282,1.282,0,0,0-1-.375,1.709,1.709,0,0,0-.87.225,1.878,1.878,0,0,0-.641.613v4.681h-1.155V333.1h1.155Z"/><path class="cls-4" d="M458.84,339.188a4.233,4.233,0,0,1,.653-2.466,2.106,2.106,0,0,1,1.831-.938,2.287,2.287,0,0,1,.988.2,2.023,2.023,0,0,1,.735.6V333.1H464.2v9.14h-.943l-.135-.779a2.059,2.059,0,0,1-.762.674,2.293,2.293,0,0,1-1.049.228,2.175,2.175,0,0,1-1.816-.841,3.494,3.494,0,0,1-.656-2.211Zm1.154.124a2.691,2.691,0,0,0,.393,1.538,1.371,1.371,0,0,0,1.218.577,1.527,1.527,0,0,0,.868-.235,1.757,1.757,0,0,0,.574-.656v-2.959a1.78,1.78,0,0,0-.577-.624,1.53,1.53,0,0,0-.853-.231,1.317,1.317,0,0,0-1.227.685,3.535,3.535,0,0,0-.4,1.781Z"/><path class="cls-4" d="M468.924,336.921l-.592-.035a1.316,1.316,0,0,0-.77.217,1.384,1.384,0,0,0-.484.609v4.529h-1.154V335.9h1.031l.111.926a2.2,2.2,0,0,1,.665-.767,1.556,1.556,0,0,1,.912-.276,1.391,1.391,0,0,1,.246.021,1.451,1.451,0,0,1,.193.044Z"/><path class="cls-4" d="M473.934,342.241c-.039-.191-.07-.36-.091-.507a3.627,3.627,0,0,1-.038-.442,2.687,2.687,0,0,1-.841.765,2.152,2.152,0,0,1-1.116.307,2.073,2.073,0,0,1-1.509-.507,1.86,1.86,0,0,1-.519-1.4,1.636,1.636,0,0,1,.736-1.421,3.431,3.431,0,0,1,2-.513h1.254V337.9a1.162,1.162,0,0,0-.34-.881,1.335,1.335,0,0,0-.961-.326,1.383,1.383,0,0,0-.905.285.853.853,0,0,0-.349.682h-1.1l-.011-.035a1.533,1.533,0,0,1,.653-1.266,2.688,2.688,0,0,1,1.778-.574,2.621,2.621,0,0,1,1.735.548,1.942,1.942,0,0,1,.656,1.579v3.053a6.056,6.056,0,0,0,.035.656,3.46,3.46,0,0,0,.129.621Zm-1.916-.849a2.058,2.058,0,0,0,1.13-.322,1.534,1.534,0,0,0,.657-.736v-1.028h-1.3a1.685,1.685,0,0,0-1.116.35,1.047,1.047,0,0,0-.419.824.864.864,0,0,0,.263.666A1.106,1.106,0,0,0,472.018,341.392Z"/><path class="cls-4" d="M478.258,339.933l.135.767h.035l.164-.767,1.265-4.032h.926l1.272,4.032.181.855h.035l.17-.855,1-4.032h1.148l-1.84,6.34h-.932l-1.224-3.861-.264-1.078-.035.006-.252,1.072-1.207,3.861H477.9l-1.839-6.34h1.148Z"/><path class="cls-4" d="M489.613,342.241c-.039-.191-.069-.36-.091-.507a3.838,3.838,0,0,1-.038-.442,2.683,2.683,0,0,1-.84.765,2.152,2.152,0,0,1-1.117.307,2.069,2.069,0,0,1-1.508-.507,1.86,1.86,0,0,1-.519-1.4,1.637,1.637,0,0,1,.735-1.421,3.436,3.436,0,0,1,2-.513h1.254V337.9a1.162,1.162,0,0,0-.339-.881,1.335,1.335,0,0,0-.961-.326,1.386,1.386,0,0,0-.906.285.854.854,0,0,0-.348.682h-1.1l-.012-.035a1.537,1.537,0,0,1,.654-1.266,2.686,2.686,0,0,1,1.778-.574,2.617,2.617,0,0,1,1.734.548,1.94,1.94,0,0,1,.657,1.579v3.053a5.812,5.812,0,0,0,.035.656,3.3,3.3,0,0,0,.129.621Zm-1.916-.849a2.062,2.062,0,0,0,1.131-.322,1.526,1.526,0,0,0,.656-.736v-1.028h-1.295a1.689,1.689,0,0,0-1.116.35,1.05,1.05,0,0,0-.419.824.865.865,0,0,0,.264.666A1.1,1.1,0,0,0,487.7,341.392Z"/><path class="cls-4" d="M493.562,342.241h-1.154V333.1h1.154Z"/><path class="cls-4" d="M499.023,340.554a.784.784,0,0,0-.29-.627,2.72,2.72,0,0,0-1.1-.428,4.624,4.624,0,0,1-1.738-.682,1.379,1.379,0,0,1-.583-1.172,1.655,1.655,0,0,1,.657-1.317,2.985,2.985,0,0,1,3.471.025,1.675,1.675,0,0,1,.624,1.382l-.011.036h-1.1a1.008,1.008,0,0,0-.349-.748,1.286,1.286,0,0,0-.922-.331,1.327,1.327,0,0,0-.914.27.842.842,0,0,0-.3.65.727.727,0,0,0,.263.592,2.728,2.728,0,0,0,1.073.387,4.627,4.627,0,0,1,1.787.7,1.412,1.412,0,0,1,.586,1.187,1.639,1.639,0,0,1-.683,1.365,2.864,2.864,0,0,1-1.784.521,2.786,2.786,0,0,1-1.91-.615,1.754,1.754,0,0,1-.662-1.436l.011-.035h1.1a1.059,1.059,0,0,0,.457.895,1.77,1.77,0,0,0,1,.283,1.636,1.636,0,0,0,.964-.249A.768.768,0,0,0,499.023,340.554Z"/><path class="cls-4" d="M504.531,338.778a7.843,7.843,0,0,1,.932-3.943,5.394,5.394,0,0,1,1.957-2.18l.035.006.223.68a5.006,5.006,0,0,0-1.4,2.01,8.66,8.66,0,0,0-.594,3.416v.076a8.706,8.706,0,0,0,.591,3.416,5.44,5.44,0,0,0,1.4,2.062l-.223.633h-.035a5.39,5.39,0,0,1-1.957-2.177,7.839,7.839,0,0,1-.932-3.946Z"/><path class="cls-4" d="M515.025,333.71v5.783a2.591,2.591,0,0,1-.9,2.133,3.621,3.621,0,0,1-2.364.738,3.411,3.411,0,0,1-2.282-.741,2.635,2.635,0,0,1-.876-2.13V333.71h1.154v5.779a1.88,1.88,0,0,0,.551,1.466,2.075,2.075,0,0,0,1.453.5,2.268,2.268,0,0,0,1.532-.5,1.823,1.823,0,0,0,.583-1.466V333.71Z"/><path class="cls-4" d="M521.559,340.093a1.259,1.259,0,0,0-.44-.976,3.71,3.71,0,0,0-1.558-.661,5.154,5.154,0,0,1-2.113-.951,1.968,1.968,0,0,1-.759-1.58,2.072,2.072,0,0,1,.818-1.668,3.237,3.237,0,0,1,2.118-.67,3.152,3.152,0,0,1,2.229.767,2.265,2.265,0,0,1,.8,1.782l-.011.035h-1.1a1.584,1.584,0,0,0-.5-1.213,2.422,2.422,0,0,0-2.742-.073,1.267,1.267,0,0,0-.46,1.016,1.121,1.121,0,0,0,.5.929,4.717,4.717,0,0,0,1.617.653,4.619,4.619,0,0,1,2.051.985,2.1,2.1,0,0,1,.7,1.611,1.965,1.965,0,0,1-.844,1.658,3.6,3.6,0,0,1-2.2.627,3.813,3.813,0,0,1-2.259-.694,2.1,2.1,0,0,1-.952-1.855l.012-.035h1.1a1.434,1.434,0,0,0,.6,1.248,2.518,2.518,0,0,0,1.494.428,2.322,2.322,0,0,0,1.383-.367A1.162,1.162,0,0,0,521.559,340.093Z"/><path class="cls-4" d="M524.4,342.241V333.71h2.619a3.5,3.5,0,0,1,3.7,3.686v1.166a3.5,3.5,0,0,1-3.7,3.679Zm1.154-7.623v6.715h1.465a2.356,2.356,0,0,0,1.866-.778,2.921,2.921,0,0,0,.682-2v-1.176a2.9,2.9,0,0,0-.682-1.986,2.356,2.356,0,0,0-1.866-.778Z"/><path class="cls-4" d="M534.426,338.831a7.819,7.819,0,0,1-.935,3.946,5.428,5.428,0,0,1-1.954,2.177H531.5l-.223-.633a4.98,4.98,0,0,0,1.392-2.024,8.822,8.822,0,0,0,.6-3.454v-.076a8.516,8.516,0,0,0-.618-3.419,5.646,5.646,0,0,0-1.374-2.06l.223-.633h.035a5.433,5.433,0,0,1,1.954,2.18,7.823,7.823,0,0,1,.935,3.943Z"/></g></g><rect id="Rectangle_203" data-name="Rectangle 203" class="cls-4" x="364.731" y="332.526" width="26" height="13"/><line id="Line_63" data-name="Line 63" class="cls-5" x1="147.606" y1="59.528" x2="841.928" y2="59.528"/><line id="Line_169" data-name="Line 169" class="cls-5" x1="147.606" y1="87.028" x2="841.928" y2="87.028"/><line id="Line_170" data-name="Line 170" class="cls-5" x1="147.606" y1="114.528" x2="841.928" y2="114.528"/><line id="Line_171" data-name="Line 171" class="cls-5" x1="147.606" y1="142.028" x2="841.928" y2="142.028"/><line id="Line_172" data-name="Line 172" class="cls-5" x1="147.606" y1="169.528" x2="841.928" y2="169.528"/><line id="Line_64" data-name="Line 64" class="cls-5" x1="147.606" y1="197.028" x2="841.928" y2="197.028"/><line id="Line_65" data-name="Line 65" class="cls-5" x1="147.606" y1="224.528" x2="841.928" y2="224.528"/><line id="Line_66" data-name="Line 66" class="cls-5" x1="147.606" y1="252.028" x2="841.928" y2="252.028"/><line id="Line_67" data-name="Line 67" class="cls-5" x1="147.606" y1="279.528" x2="841.928" y2="279.528"/><g id="_160_000_000" data-name=" 160 000 000" class="cls-3"><g class="cls-3"><path d="M63.047,60.825a1.223,1.223,0,0,0-.375-.9,3.224,3.224,0,0,0-1.231-.668,4.268,4.268,0,0,1-1.787-.955,2.145,2.145,0,0,1-.6-1.594,2.252,2.252,0,0,1,.553-1.576,2.384,2.384,0,0,1,1.527-.733v-1.3h.926v1.3a2.243,2.243,0,0,1,1.526.841,2.992,2.992,0,0,1,.542,1.878H62.977a2.088,2.088,0,0,0-.37-1.289,1.208,1.208,0,0,0-1.025-.492,1.228,1.228,0,0,0-1.377,1.347,1.236,1.236,0,0,0,.355.92,3.455,3.455,0,0,0,1.28.668,4.431,4.431,0,0,1,1.781.964,2.11,2.11,0,0,1,.58,1.567,2.149,2.149,0,0,1-.6,1.6,2.684,2.684,0,0,1-1.659.706v1.125H61.02V63.128a2.69,2.69,0,0,1-1.653-.735,2.406,2.406,0,0,1-.621-1.849l.012-.029h1.113a1.6,1.6,0,0,0,.454,1.286,1.67,1.67,0,0,0,1.116.384,1.772,1.772,0,0,0,1.181-.361A1.24,1.24,0,0,0,63.047,60.825Z"/><path d="M68.824,63.028H67.67V55.622l-1.746.024v-.833l2.9-.316Z"/><path d="M75.545,54.374a3.814,3.814,0,0,1,.87.1,2.834,2.834,0,0,1,.712.252l-.246.884a3.509,3.509,0,0,0-.6-.237,2.637,2.637,0,0,0-.735-.091,1.766,1.766,0,0,0-1.474.733,3.061,3.061,0,0,0-.559,1.91v.135a2.813,2.813,0,0,1,.858-.513,2.891,2.891,0,0,1,1.04-.185,2.281,2.281,0,0,1,1.822.791,2.964,2.964,0,0,1,.68,2,3.174,3.174,0,0,1-.724,2.159,2.425,2.425,0,0,1-1.93.835,2.671,2.671,0,0,1-2.074-.908,3.685,3.685,0,0,1-.821-2.56V58.054a3.834,3.834,0,0,1,.914-2.66A2.925,2.925,0,0,1,75.545,54.374Zm-.393,3.85a1.983,1.983,0,0,0-1.007.24,1.611,1.611,0,0,0-.633.638v.69a2.885,2.885,0,0,0,.5,1.813,1.524,1.524,0,0,0,1.248.638,1.252,1.252,0,0,0,1.1-.6,2.649,2.649,0,0,0,.4-1.49,2.187,2.187,0,0,0-.425-1.386A1.413,1.413,0,0,0,75.152,58.224Z"/><path d="M84.439,59.776a3.825,3.825,0,0,1-.723,2.5,2.7,2.7,0,0,1-3.976,0,3.794,3.794,0,0,1-.732-2.5V57.755a3.817,3.817,0,0,1,.729-2.505,2.69,2.69,0,0,1,3.973,0,3.817,3.817,0,0,1,.729,2.505Zm-1.154-2.269a2.854,2.854,0,0,0-.4-1.665,1.485,1.485,0,0,0-2.323,0,2.862,2.862,0,0,0-.4,1.665v2.5a2.867,2.867,0,0,0,.4,1.671,1.346,1.346,0,0,0,1.166.565,1.326,1.326,0,0,0,1.158-.562,2.916,2.916,0,0,0,.395-1.674Z"/><path d="M86.953,62.747l-.879,1.793h-.685l.41-1.852v-.955h1.154Z"/><path d="M93.568,59.776a3.825,3.825,0,0,1-.723,2.5,2.7,2.7,0,0,1-3.976,0,3.794,3.794,0,0,1-.732-2.5V57.755a3.817,3.817,0,0,1,.729-2.505,2.69,2.69,0,0,1,3.973,0,3.817,3.817,0,0,1,.729,2.505Zm-1.154-2.269a2.854,2.854,0,0,0-.4-1.665,1.486,1.486,0,0,0-2.324,0,2.871,2.871,0,0,0-.4,1.665v2.5a2.867,2.867,0,0,0,.4,1.671,1.346,1.346,0,0,0,1.166.565,1.326,1.326,0,0,0,1.158-.562,2.916,2.916,0,0,0,.395-1.674Z"/><path d="M100.33,59.776a3.819,3.819,0,0,1-.724,2.5,2.7,2.7,0,0,1-3.975,0,3.794,3.794,0,0,1-.733-2.5V57.755a3.817,3.817,0,0,1,.73-2.505,2.69,2.69,0,0,1,3.973,0,3.817,3.817,0,0,1,.729,2.505Zm-1.154-2.269a2.846,2.846,0,0,0-.4-1.665,1.485,1.485,0,0,0-2.323,0,2.871,2.871,0,0,0-.4,1.665v2.5a2.867,2.867,0,0,0,.4,1.671,1.345,1.345,0,0,0,1.166.565,1.323,1.323,0,0,0,1.157-.562,2.907,2.907,0,0,0,.4-1.674Z"/><path d="M107.092,59.776a3.819,3.819,0,0,1-.724,2.5,2.7,2.7,0,0,1-3.975,0,3.788,3.788,0,0,1-.733-2.5V57.755a3.812,3.812,0,0,1,.73-2.505,2.689,2.689,0,0,1,3.972,0,3.812,3.812,0,0,1,.73,2.505Zm-1.154-2.269a2.846,2.846,0,0,0-.4-1.665,1.485,1.485,0,0,0-2.323,0,2.862,2.862,0,0,0-.4,1.665v2.5a2.859,2.859,0,0,0,.405,1.671,1.344,1.344,0,0,0,1.166.565,1.324,1.324,0,0,0,1.157-.562,2.907,2.907,0,0,0,.4-1.674Z"/><path d="M109.605,62.747l-.878,1.793h-.686l.41-1.852v-.955h1.154Z"/><path d="M116.221,59.776a3.825,3.825,0,0,1-.724,2.5,2.44,2.44,0,0,1-1.983.87,2.466,2.466,0,0,1-1.993-.873,3.794,3.794,0,0,1-.732-2.5V57.755a3.812,3.812,0,0,1,.73-2.505,2.689,2.689,0,0,1,3.972,0,3.812,3.812,0,0,1,.73,2.505Zm-1.155-2.269a2.846,2.846,0,0,0-.4-1.665,1.485,1.485,0,0,0-2.323,0,2.862,2.862,0,0,0-.4,1.665v2.5a2.859,2.859,0,0,0,.405,1.671,1.344,1.344,0,0,0,1.166.565,1.326,1.326,0,0,0,1.157-.562,2.908,2.908,0,0,0,.395-1.674Z"/><path d="M122.982,59.776a3.825,3.825,0,0,1-.723,2.5,2.7,2.7,0,0,1-3.976,0,3.794,3.794,0,0,1-.732-2.5V57.755a3.817,3.817,0,0,1,.729-2.505,2.69,2.69,0,0,1,3.973,0,3.817,3.817,0,0,1,.729,2.505Zm-1.154-2.269a2.854,2.854,0,0,0-.4-1.665,1.485,1.485,0,0,0-2.323,0,2.862,2.862,0,0,0-.4,1.665v2.5a2.867,2.867,0,0,0,.4,1.671,1.346,1.346,0,0,0,1.166.565,1.326,1.326,0,0,0,1.158-.562,2.916,2.916,0,0,0,.395-1.674Z"/><path d="M129.744,59.776a3.825,3.825,0,0,1-.723,2.5,2.7,2.7,0,0,1-3.976,0,3.794,3.794,0,0,1-.733-2.5V57.755a3.817,3.817,0,0,1,.73-2.505,2.69,2.69,0,0,1,3.973,0,3.817,3.817,0,0,1,.729,2.505Zm-1.154-2.269a2.846,2.846,0,0,0-.4-1.665,1.485,1.485,0,0,0-2.323,0,2.871,2.871,0,0,0-.4,1.665v2.5a2.867,2.867,0,0,0,.4,1.671,1.345,1.345,0,0,0,1.166.565,1.323,1.323,0,0,0,1.157-.562,2.907,2.907,0,0,0,.4-1.674Z"/></g></g><g id="_2007" data-name=" 2007" class="cls-3"><g class="cls-3"><path d="M418.535,298.028H413v-.8l2.795-3.1a7.827,7.827,0,0,0,1.017-1.33,2.088,2.088,0,0,0,.266-1.008,1.6,1.6,0,0,0-.371-1.075,1.235,1.235,0,0,0-.988-.437,1.694,1.694,0,0,0-1.3.454,1.813,1.813,0,0,0-.42,1.275h-1.107l-.012-.035a2.4,2.4,0,0,1,.732-1.852,2.878,2.878,0,0,1,2.11-.75,2.5,2.5,0,0,1,1.832.671,2.292,2.292,0,0,1,.681,1.708,2.719,2.719,0,0,1-.412,1.4,8.96,8.96,0,0,1-1.158,1.5l-2.244,2.438.012.029h4.1Z"/><path d="M425.162,294.776a3.819,3.819,0,0,1-.723,2.5,2.7,2.7,0,0,1-3.976,0,3.794,3.794,0,0,1-.733-2.5v-2.021a3.817,3.817,0,0,1,.731-2.5,2.69,2.69,0,0,1,3.973,0,3.817,3.817,0,0,1,.728,2.5Zm-1.154-2.269a2.846,2.846,0,0,0-.4-1.665,1.486,1.486,0,0,0-2.324,0,2.871,2.871,0,0,0-.4,1.665v2.5a2.867,2.867,0,0,0,.4,1.671,1.345,1.345,0,0,0,1.166.565,1.325,1.325,0,0,0,1.158-.562,2.908,2.908,0,0,0,.395-1.674Z"/><path d="M431.924,294.776a3.819,3.819,0,0,1-.723,2.5,2.7,2.7,0,0,1-3.976,0,3.788,3.788,0,0,1-.733-2.5v-2.021a3.812,3.812,0,0,1,.731-2.5,2.689,2.689,0,0,1,3.972,0,3.812,3.812,0,0,1,.729,2.5Zm-1.154-2.269a2.846,2.846,0,0,0-.4-1.665,1.486,1.486,0,0,0-2.324,0,2.862,2.862,0,0,0-.4,1.665v2.5a2.859,2.859,0,0,0,.4,1.671,1.344,1.344,0,0,0,1.166.565,1.326,1.326,0,0,0,1.158-.562,2.908,2.908,0,0,0,.395-1.674Z"/><path d="M438.814,290.4a12,12,0,0,0-2.087,3.261,14.56,14.56,0,0,0-.784,3.442l-.093.92H434.7l.094-.92a12.51,12.51,0,0,1,.955-3.6,13.891,13.891,0,0,1,1.94-3.1h-4.641V289.5h5.771Z"/></g></g><g id="_2003" data-name=" 2003" class="cls-3"><g class="cls-3"><path d="M272.759,298.028h-5.531v-.8l2.794-3.1a7.881,7.881,0,0,0,1.017-1.33,2.09,2.09,0,0,0,.267-1.008,1.6,1.6,0,0,0-.372-1.075,1.235,1.235,0,0,0-.988-.437,1.694,1.694,0,0,0-1.3.454,1.808,1.808,0,0,0-.419,1.275h-1.108l-.012-.035a2.4,2.4,0,0,1,.733-1.852,2.877,2.877,0,0,1,2.109-.75,2.5,2.5,0,0,1,1.831.671,2.293,2.293,0,0,1,.683,1.708,2.73,2.73,0,0,1-.413,1.4,9,9,0,0,1-1.157,1.5l-2.244,2.438.011.029h4.1Z"/><path d="M279.386,294.776a3.819,3.819,0,0,1-.724,2.5,2.7,2.7,0,0,1-3.975,0,3.788,3.788,0,0,1-.733-2.5v-2.021a3.812,3.812,0,0,1,.73-2.5,2.689,2.689,0,0,1,3.972,0,3.812,3.812,0,0,1,.73,2.5Zm-1.155-2.269a2.846,2.846,0,0,0-.4-1.665,1.485,1.485,0,0,0-2.323,0,2.862,2.862,0,0,0-.4,1.665v2.5a2.859,2.859,0,0,0,.4,1.671,1.344,1.344,0,0,0,1.166.565,1.324,1.324,0,0,0,1.157-.562,2.908,2.908,0,0,0,.395-1.674Z"/><path d="M286.147,294.776a3.825,3.825,0,0,1-.723,2.5,2.7,2.7,0,0,1-3.976,0,3.794,3.794,0,0,1-.732-2.5v-2.021a3.817,3.817,0,0,1,.729-2.5,2.69,2.69,0,0,1,3.973,0,3.817,3.817,0,0,1,.729,2.5Zm-1.154-2.269a2.854,2.854,0,0,0-.4-1.665,1.485,1.485,0,0,0-2.323,0,2.862,2.862,0,0,0-.4,1.665v2.5a2.867,2.867,0,0,0,.4,1.671,1.346,1.346,0,0,0,1.166.565,1.326,1.326,0,0,0,1.158-.562,2.916,2.916,0,0,0,.395-1.674Z"/><path d="M289.089,293.229H290.1a1.345,1.345,0,0,0,1.087-.383,1.632,1.632,0,0,0,.319-1.07,1.554,1.554,0,0,0-.363-1.113,1.416,1.416,0,0,0-1.073-.381,1.486,1.486,0,0,0-1.081.4,1.4,1.4,0,0,0-.407,1.051h-1.107l-.012-.035a2.066,2.066,0,0,1,.7-1.643,2.693,2.693,0,0,1,1.907-.677,2.723,2.723,0,0,1,1.887.63,2.284,2.284,0,0,1,.7,1.8,2.048,2.048,0,0,1-1.277,1.851,1.877,1.877,0,0,1,1.087.791,2.527,2.527,0,0,1-.446,3.041,2.857,2.857,0,0,1-1.954.668,2.933,2.933,0,0,1-1.93-.63,2.019,2.019,0,0,1-.736-1.708l.018-.035h1.1a1.412,1.412,0,0,0,.413,1.069,1.569,1.569,0,0,0,1.133.4,1.6,1.6,0,0,0,1.149-.4,1.552,1.552,0,0,0,.416-1.174,1.332,1.332,0,0,0-1.535-1.535h-1.008Z"/></g></g><g id="_2011" data-name=" 2011" class="cls-3"><g class="cls-3"><path d="M564.314,298.028h-5.531v-.8l2.795-3.1a7.881,7.881,0,0,0,1.017-1.33,2.1,2.1,0,0,0,.266-1.008,1.6,1.6,0,0,0-.372-1.075,1.233,1.233,0,0,0-.987-.437,1.7,1.7,0,0,0-1.3.454,1.813,1.813,0,0,0-.419,1.275h-1.107l-.012-.035a2.4,2.4,0,0,1,.733-1.852,2.875,2.875,0,0,1,2.109-.75,2.5,2.5,0,0,1,1.831.671,2.293,2.293,0,0,1,.683,1.708,2.73,2.73,0,0,1-.413,1.4,9.013,9.013,0,0,1-1.158,1.5l-2.244,2.438.012.029h4.1Z"/><path d="M570.941,294.776a3.825,3.825,0,0,1-.723,2.5,2.7,2.7,0,0,1-3.976,0,3.794,3.794,0,0,1-.732-2.5v-2.021a3.817,3.817,0,0,1,.729-2.5,2.69,2.69,0,0,1,3.973,0,3.817,3.817,0,0,1,.729,2.5Zm-1.154-2.269a2.854,2.854,0,0,0-.4-1.665,1.486,1.486,0,0,0-2.324,0,2.871,2.871,0,0,0-.4,1.665v2.5a2.867,2.867,0,0,0,.4,1.671,1.346,1.346,0,0,0,1.166.565,1.326,1.326,0,0,0,1.158-.562,2.916,2.916,0,0,0,.395-1.674Z"/><path d="M575.6,298.028h-1.155v-7.406l-1.746.024v-.833l2.9-.316Z"/><path d="M582.355,298.028H581.2v-7.406l-1.746.024v-.833l2.9-.316Z"/></g></g><g id="_2001" data-name=" 2001" class="cls-3"><g class="cls-3"><path d="M199.871,298.028H194.34v-.8l2.795-3.1a7.792,7.792,0,0,0,1.015-1.33,2.091,2.091,0,0,0,.268-1.008,1.6,1.6,0,0,0-.373-1.075,1.231,1.231,0,0,0-.986-.437,1.7,1.7,0,0,0-1.305.454,1.812,1.812,0,0,0-.418,1.275h-1.107l-.012-.035a2.4,2.4,0,0,1,.732-1.852,2.878,2.878,0,0,1,2.11-.75,2.5,2.5,0,0,1,1.83.671,2.293,2.293,0,0,1,.683,1.708,2.722,2.722,0,0,1-.414,1.4,8.938,8.938,0,0,1-1.156,1.5l-2.244,2.438.012.029h4.1Z"/><path d="M206.5,294.776a3.819,3.819,0,0,1-.725,2.5,2.438,2.438,0,0,1-1.982.87,2.463,2.463,0,0,1-1.992-.873,3.794,3.794,0,0,1-.733-2.5v-2.021a3.817,3.817,0,0,1,.729-2.5,2.69,2.69,0,0,1,3.973,0,3.817,3.817,0,0,1,.73,2.5Zm-1.154-2.269a2.845,2.845,0,0,0-.4-1.665,1.484,1.484,0,0,0-2.322,0,2.871,2.871,0,0,0-.4,1.665v2.5a2.859,2.859,0,0,0,.4,1.671,1.345,1.345,0,0,0,1.166.565,1.321,1.321,0,0,0,1.156-.562,2.907,2.907,0,0,0,.4-1.674Z"/><path d="M213.26,294.776a3.819,3.819,0,0,1-.725,2.5,2.438,2.438,0,0,1-1.982.87,2.463,2.463,0,0,1-1.992-.873,3.788,3.788,0,0,1-.733-2.5v-2.021a3.812,3.812,0,0,1,.729-2.5,2.689,2.689,0,0,1,3.972,0,3.812,3.812,0,0,1,.731,2.5Zm-1.155-2.269a2.846,2.846,0,0,0-.4-1.665,1.484,1.484,0,0,0-2.322,0,2.862,2.862,0,0,0-.4,1.665v2.5a2.859,2.859,0,0,0,.405,1.671,1.344,1.344,0,0,0,1.166.565,1.323,1.323,0,0,0,1.156-.562,2.907,2.907,0,0,0,.4-1.674Z"/><path d="M217.918,298.028h-1.154v-7.406l-1.746.024v-.833l2.9-.316Z"/></g></g><g id="_2009" data-name=" 2009" class="cls-3"><g class="cls-3"><path d="M491.424,298.028h-5.531v-.8l2.8-3.1a7.864,7.864,0,0,0,1.016-1.33,2.09,2.09,0,0,0,.267-1.008,1.6,1.6,0,0,0-.372-1.075,1.235,1.235,0,0,0-.988-.437,1.694,1.694,0,0,0-1.3.454,1.808,1.808,0,0,0-.419,1.275h-1.108l-.011-.035a2.4,2.4,0,0,1,.732-1.852,2.877,2.877,0,0,1,2.109-.75,2.5,2.5,0,0,1,1.831.671,2.293,2.293,0,0,1,.683,1.708,2.73,2.73,0,0,1-.413,1.4,8.949,8.949,0,0,1-1.157,1.5l-2.244,2.438.011.029h4.1Z"/><path d="M498.051,294.776a3.819,3.819,0,0,1-.724,2.5,2.7,2.7,0,0,1-3.975,0,3.788,3.788,0,0,1-.733-2.5v-2.021a3.812,3.812,0,0,1,.73-2.5,2.689,2.689,0,0,1,3.972,0,3.812,3.812,0,0,1,.73,2.5Zm-1.155-2.269a2.846,2.846,0,0,0-.4-1.665,1.485,1.485,0,0,0-2.323,0,2.862,2.862,0,0,0-.4,1.665v2.5a2.859,2.859,0,0,0,.4,1.671,1.344,1.344,0,0,0,1.166.565,1.324,1.324,0,0,0,1.157-.562,2.908,2.908,0,0,0,.4-1.674Z"/><path d="M504.812,294.776a3.825,3.825,0,0,1-.723,2.5,2.7,2.7,0,0,1-3.976,0,3.794,3.794,0,0,1-.732-2.5v-2.021a3.817,3.817,0,0,1,.729-2.5,2.69,2.69,0,0,1,3.973,0,3.817,3.817,0,0,1,.729,2.5Zm-1.154-2.269a2.854,2.854,0,0,0-.4-1.665,1.485,1.485,0,0,0-2.323,0,2.862,2.862,0,0,0-.4,1.665v2.5a2.867,2.867,0,0,0,.4,1.671,1.346,1.346,0,0,0,1.166.565,1.326,1.326,0,0,0,1.158-.562,2.916,2.916,0,0,0,.4-1.674Z"/><path d="M508.475,297.243a1.637,1.637,0,0,0,1.35-.637,3,3,0,0,0,.507-1.894v-.387a1.876,1.876,0,0,1-.718.63,2.117,2.117,0,0,1-.958.214,2.58,2.58,0,0,1-1.963-.765,3.336,3.336,0,0,1,.044-4.21,2.473,2.473,0,0,1,1.872-.82,2.725,2.725,0,0,1,2.107.835,3.509,3.509,0,0,1,.77,2.458V294.7a3.607,3.607,0,0,1-.835,2.561,2.847,2.847,0,0,1-2.176.89,4.979,4.979,0,0,1-.917-.086,3.3,3.3,0,0,1-.835-.261l.175-.889a2.645,2.645,0,0,0,.718.255A4.469,4.469,0,0,0,508.475,297.243Zm.181-2.982a1.915,1.915,0,0,0,1.064-.276,1.585,1.585,0,0,0,.612-.7v-.737a2.8,2.8,0,0,0-.431-1.692,1.477,1.477,0,0,0-1.256-.573,1.336,1.336,0,0,0-1.079.565,2.615,2.615,0,0,0-.032,2.87A1.337,1.337,0,0,0,508.656,294.261Z"/></g></g><g id="_2005" data-name=" 2005" class="cls-3"><g class="cls-3"><path d="M345.647,298.028h-5.531v-.8l2.8-3.1a7.881,7.881,0,0,0,1.017-1.33,2.1,2.1,0,0,0,.266-1.008,1.6,1.6,0,0,0-.372-1.075,1.233,1.233,0,0,0-.987-.437,1.7,1.7,0,0,0-1.3.454,1.813,1.813,0,0,0-.419,1.275h-1.107l-.012-.035a2.4,2.4,0,0,1,.733-1.852,2.875,2.875,0,0,1,2.109-.75,2.5,2.5,0,0,1,1.831.671,2.293,2.293,0,0,1,.683,1.708,2.73,2.73,0,0,1-.413,1.4,9.013,9.013,0,0,1-1.158,1.5l-2.244,2.438.012.029h4.1Z"/><path d="M352.274,294.776a3.825,3.825,0,0,1-.723,2.5,2.7,2.7,0,0,1-3.976,0,3.794,3.794,0,0,1-.732-2.5v-2.021a3.817,3.817,0,0,1,.729-2.5,2.69,2.69,0,0,1,3.973,0,3.817,3.817,0,0,1,.729,2.5Zm-1.154-2.269a2.854,2.854,0,0,0-.4-1.665,1.485,1.485,0,0,0-2.323,0,2.862,2.862,0,0,0-.4,1.665v2.5a2.867,2.867,0,0,0,.4,1.671,1.346,1.346,0,0,0,1.166.565,1.326,1.326,0,0,0,1.158-.562,2.916,2.916,0,0,0,.395-1.674Z"/><path d="M359.036,294.776a3.819,3.819,0,0,1-.724,2.5,2.7,2.7,0,0,1-3.975,0,3.794,3.794,0,0,1-.733-2.5v-2.021a3.817,3.817,0,0,1,.73-2.5,2.69,2.69,0,0,1,3.973,0,3.817,3.817,0,0,1,.729,2.5Zm-1.154-2.269a2.846,2.846,0,0,0-.4-1.665,1.485,1.485,0,0,0-2.323,0,2.871,2.871,0,0,0-.4,1.665v2.5a2.867,2.867,0,0,0,.4,1.671,1.345,1.345,0,0,0,1.166.565,1.323,1.323,0,0,0,1.157-.562,2.907,2.907,0,0,0,.4-1.674Z"/><path d="M360.729,294.179l.493-4.682h4.271v1.025H362.2l-.281,2.4a2.661,2.661,0,0,1,.6-.331,2.216,2.216,0,0,1,.764-.144,2.3,2.3,0,0,1,1.855.768,3.089,3.089,0,0,1,.676,2.1,3,3,0,0,1-.688,2.062,2.535,2.535,0,0,1-2.007.779,2.753,2.753,0,0,1-1.805-.591,2.05,2.05,0,0,1-.691-1.741l.012-.035h1.043a1.415,1.415,0,0,0,.4,1.077,1.445,1.445,0,0,0,1.04.382,1.367,1.367,0,0,0,1.137-.514,2.234,2.234,0,0,0,.4-1.411,2.126,2.126,0,0,0-.41-1.345,1.354,1.354,0,0,0-1.131-.527,1.817,1.817,0,0,0-.984.2,1.175,1.175,0,0,0-.446.627Z"/></g></g><g id="_2013" data-name=" 2013" class="cls-3"><g class="cls-3"><path d="M637.2,298.028h-5.531v-.8l2.795-3.1a7.809,7.809,0,0,0,1.016-1.33,2.09,2.09,0,0,0,.267-1.008,1.6,1.6,0,0,0-.372-1.075,1.233,1.233,0,0,0-.987-.437,1.7,1.7,0,0,0-1.3.454,1.813,1.813,0,0,0-.419,1.275h-1.107l-.012-.035a2.4,2.4,0,0,1,.732-1.852,2.878,2.878,0,0,1,2.11-.75,2.5,2.5,0,0,1,1.831.671,2.293,2.293,0,0,1,.682,1.708,2.721,2.721,0,0,1-.413,1.4,8.949,8.949,0,0,1-1.157,1.5l-2.244,2.438.012.029h4.1Z"/><path d="M643.83,294.776a3.819,3.819,0,0,1-.724,2.5,2.7,2.7,0,0,1-3.975,0,3.794,3.794,0,0,1-.733-2.5v-2.021a3.817,3.817,0,0,1,.73-2.5,2.69,2.69,0,0,1,3.973,0,3.817,3.817,0,0,1,.729,2.5Zm-1.154-2.269a2.846,2.846,0,0,0-.4-1.665,1.485,1.485,0,0,0-2.323,0,2.871,2.871,0,0,0-.4,1.665v2.5a2.867,2.867,0,0,0,.4,1.671,1.345,1.345,0,0,0,1.166.565,1.323,1.323,0,0,0,1.157-.562,2.907,2.907,0,0,0,.4-1.674Z"/><path d="M648.488,298.028h-1.154v-7.406l-1.746.024v-.833l2.9-.316Z"/><path d="M653.527,293.229h1.008a1.344,1.344,0,0,0,1.087-.383,1.626,1.626,0,0,0,.319-1.07,1.554,1.554,0,0,0-.363-1.113,1.412,1.412,0,0,0-1.072-.381,1.484,1.484,0,0,0-1.081.4,1.4,1.4,0,0,0-.407,1.051H651.91l-.012-.035a2.067,2.067,0,0,1,.7-1.643,2.693,2.693,0,0,1,1.907-.677,2.723,2.723,0,0,1,1.887.63,2.288,2.288,0,0,1,.7,1.8,2.051,2.051,0,0,1-1.278,1.851,1.877,1.877,0,0,1,1.087.791,2.525,2.525,0,0,1-.445,3.041,2.859,2.859,0,0,1-1.954.668,2.937,2.937,0,0,1-1.931-.63,2.016,2.016,0,0,1-.735-1.708l.017-.035h1.1a1.415,1.415,0,0,0,.413,1.069,1.57,1.57,0,0,0,1.134.4,1.6,1.6,0,0,0,1.148-.4,1.548,1.548,0,0,0,.416-1.174,1.332,1.332,0,0,0-1.535-1.535h-1.008Z"/></g></g><g id="_2000" data-name=" 2000" class="cls-3"><g class="cls-3"><path d="M163.424,298.028h-5.531v-.8l2.795-3.1a7.864,7.864,0,0,0,1.016-1.33,2.09,2.09,0,0,0,.267-1.008,1.6,1.6,0,0,0-.372-1.075,1.235,1.235,0,0,0-.988-.437,1.694,1.694,0,0,0-1.3.454,1.808,1.808,0,0,0-.419,1.275h-1.108l-.011-.035a2.4,2.4,0,0,1,.732-1.852,2.877,2.877,0,0,1,2.109-.75,2.5,2.5,0,0,1,1.831.671,2.293,2.293,0,0,1,.683,1.708,2.73,2.73,0,0,1-.413,1.4,8.949,8.949,0,0,1-1.157,1.5l-2.244,2.438.011.029h4.1Z"/><path d="M170.051,294.776a3.819,3.819,0,0,1-.724,2.5,2.7,2.7,0,0,1-3.975,0,3.788,3.788,0,0,1-.733-2.5v-2.021a3.812,3.812,0,0,1,.73-2.5,2.689,2.689,0,0,1,3.972,0,3.812,3.812,0,0,1,.73,2.5Zm-1.155-2.269a2.846,2.846,0,0,0-.4-1.665,1.485,1.485,0,0,0-2.323,0,2.862,2.862,0,0,0-.4,1.665v2.5a2.859,2.859,0,0,0,.405,1.671,1.344,1.344,0,0,0,1.166.565,1.324,1.324,0,0,0,1.157-.562,2.908,2.908,0,0,0,.395-1.674Z"/><path d="M176.812,294.776a3.825,3.825,0,0,1-.723,2.5,2.7,2.7,0,0,1-3.976,0,3.794,3.794,0,0,1-.732-2.5v-2.021a3.817,3.817,0,0,1,.729-2.5,2.69,2.69,0,0,1,3.973,0,3.817,3.817,0,0,1,.729,2.5Zm-1.154-2.269a2.854,2.854,0,0,0-.4-1.665,1.485,1.485,0,0,0-2.323,0,2.862,2.862,0,0,0-.4,1.665v2.5a2.867,2.867,0,0,0,.4,1.671,1.346,1.346,0,0,0,1.166.565,1.326,1.326,0,0,0,1.158-.562,2.916,2.916,0,0,0,.395-1.674Z"/><path d="M183.574,294.776a3.825,3.825,0,0,1-.723,2.5,2.7,2.7,0,0,1-3.976,0,3.794,3.794,0,0,1-.732-2.5v-2.021a3.817,3.817,0,0,1,.729-2.5,2.69,2.69,0,0,1,3.973,0,3.817,3.817,0,0,1,.729,2.5Zm-1.154-2.269a2.854,2.854,0,0,0-.4-1.665,1.486,1.486,0,0,0-2.324,0,2.871,2.871,0,0,0-.4,1.665v2.5a2.867,2.867,0,0,0,.4,1.671,1.345,1.345,0,0,0,1.166.565,1.323,1.323,0,0,0,1.157-.562,2.907,2.907,0,0,0,.4-1.674Z"/></g></g><g id="_2008" data-name=" 2008" class="cls-3"><g class="cls-3"><path d="M454.979,298.028h-5.531v-.8l2.8-3.1a7.881,7.881,0,0,0,1.017-1.33,2.088,2.088,0,0,0,.266-1.008,1.6,1.6,0,0,0-.372-1.075,1.233,1.233,0,0,0-.987-.437,1.7,1.7,0,0,0-1.3.454,1.813,1.813,0,0,0-.419,1.275h-1.107l-.012-.035a2.4,2.4,0,0,1,.733-1.852,2.875,2.875,0,0,1,2.109-.75,2.5,2.5,0,0,1,1.831.671,2.293,2.293,0,0,1,.683,1.708,2.73,2.73,0,0,1-.413,1.4,9.013,9.013,0,0,1-1.158,1.5l-2.244,2.438.012.029h4.1Z"/><path d="M461.606,294.776a3.825,3.825,0,0,1-.723,2.5,2.7,2.7,0,0,1-3.976,0,3.794,3.794,0,0,1-.732-2.5v-2.021a3.817,3.817,0,0,1,.729-2.5,2.69,2.69,0,0,1,3.973,0,3.817,3.817,0,0,1,.729,2.5Zm-1.154-2.269a2.854,2.854,0,0,0-.4-1.665,1.485,1.485,0,0,0-2.323,0,2.862,2.862,0,0,0-.4,1.665v2.5a2.867,2.867,0,0,0,.4,1.671,1.346,1.346,0,0,0,1.166.565,1.326,1.326,0,0,0,1.158-.562,2.916,2.916,0,0,0,.395-1.674Z"/><path d="M468.368,294.776a3.825,3.825,0,0,1-.723,2.5,2.7,2.7,0,0,1-3.976,0,3.794,3.794,0,0,1-.732-2.5v-2.021a3.817,3.817,0,0,1,.729-2.5,2.69,2.69,0,0,1,3.973,0,3.817,3.817,0,0,1,.729,2.5Zm-1.154-2.269a2.846,2.846,0,0,0-.4-1.665,1.485,1.485,0,0,0-2.323,0,2.871,2.871,0,0,0-.4,1.665v2.5a2.867,2.867,0,0,0,.4,1.671,1.345,1.345,0,0,0,1.166.565,1.323,1.323,0,0,0,1.157-.562,2.907,2.907,0,0,0,.4-1.674Z"/><path d="M474.954,291.724a1.9,1.9,0,0,1-.375,1.169,2.236,2.236,0,0,1-1.014.747,2.552,2.552,0,0,1,1.181.808,1.972,1.972,0,0,1,.442,1.272,2.188,2.188,0,0,1-.77,1.807,3.549,3.549,0,0,1-4.02,0,2.2,2.2,0,0,1-.764-1.807,2,2,0,0,1,.433-1.272,2.5,2.5,0,0,1,1.172-.808,2.159,2.159,0,0,1-1-.747,1.94,1.94,0,0,1-.363-1.169,2.2,2.2,0,0,1,.694-1.738,2.678,2.678,0,0,1,1.837-.612,2.717,2.717,0,0,1,1.837.612A2.168,2.168,0,0,1,474.954,291.724Zm-.914,3.969a1.539,1.539,0,0,0-.463-1.152,1.611,1.611,0,0,0-1.172-.45,1.539,1.539,0,0,0-1.617,1.6,1.477,1.477,0,0,0,.445,1.138,1.885,1.885,0,0,0,2.356,0A1.465,1.465,0,0,0,474.04,295.693Zm-.24-3.946a1.462,1.462,0,0,0-.4-1.049,1.421,1.421,0,0,0-2-.014,1.48,1.48,0,0,0-.381,1.063,1.427,1.427,0,0,0,.384,1.043,1.47,1.47,0,0,0,2,0A1.421,1.421,0,0,0,473.8,291.747Z"/></g></g><g id="_2004" data-name=" 2004" class="cls-3"><g class="cls-3"><path d="M309.2,298.028h-5.531v-.8l2.795-3.1a7.809,7.809,0,0,0,1.016-1.33,2.09,2.09,0,0,0,.267-1.008,1.6,1.6,0,0,0-.372-1.075,1.233,1.233,0,0,0-.987-.437,1.7,1.7,0,0,0-1.3.454,1.813,1.813,0,0,0-.419,1.275h-1.107l-.012-.035a2.4,2.4,0,0,1,.732-1.852,2.878,2.878,0,0,1,2.11-.75,2.5,2.5,0,0,1,1.831.671,2.293,2.293,0,0,1,.682,1.708,2.721,2.721,0,0,1-.413,1.4,8.949,8.949,0,0,1-1.157,1.5l-2.244,2.438.012.029h4.1Z"/><path d="M315.83,294.776a3.819,3.819,0,0,1-.724,2.5,2.7,2.7,0,0,1-3.975,0,3.794,3.794,0,0,1-.733-2.5v-2.021a3.817,3.817,0,0,1,.73-2.5,2.69,2.69,0,0,1,3.973,0,3.817,3.817,0,0,1,.729,2.5Zm-1.154-2.269a2.846,2.846,0,0,0-.4-1.665,1.485,1.485,0,0,0-2.323,0,2.871,2.871,0,0,0-.4,1.665v2.5a2.867,2.867,0,0,0,.4,1.671,1.345,1.345,0,0,0,1.166.565,1.323,1.323,0,0,0,1.157-.562,2.907,2.907,0,0,0,.4-1.674Z"/><path d="M322.592,294.776a3.819,3.819,0,0,1-.724,2.5,2.7,2.7,0,0,1-3.975,0,3.788,3.788,0,0,1-.733-2.5v-2.021a3.812,3.812,0,0,1,.73-2.5,2.689,2.689,0,0,1,3.972,0,3.812,3.812,0,0,1,.73,2.5Zm-1.154-2.269a2.846,2.846,0,0,0-.4-1.665,1.485,1.485,0,0,0-2.323,0,2.862,2.862,0,0,0-.4,1.665v2.5a2.859,2.859,0,0,0,.4,1.671,1.344,1.344,0,0,0,1.166.565,1.324,1.324,0,0,0,1.157-.562,2.907,2.907,0,0,0,.4-1.674Z"/><path d="M328.562,295.157h1.178v.908h-1.178v1.963h-1.148v-1.963h-3.832v-.651l3.762-5.917h1.218Zm-3.75,0h2.6v-4l-.035-.006-.111.293Z"/></g></g><g id="_2012" data-name=" 2012" class="cls-3"><g class="cls-3"><path d="M600.759,298.028h-5.531v-.8l2.794-3.1a7.881,7.881,0,0,0,1.017-1.33,2.09,2.09,0,0,0,.267-1.008,1.6,1.6,0,0,0-.372-1.075,1.235,1.235,0,0,0-.988-.437,1.694,1.694,0,0,0-1.3.454,1.808,1.808,0,0,0-.419,1.275h-1.108l-.012-.035a2.4,2.4,0,0,1,.733-1.852,2.877,2.877,0,0,1,2.109-.75,2.5,2.5,0,0,1,1.831.671,2.293,2.293,0,0,1,.683,1.708,2.73,2.73,0,0,1-.413,1.4,9,9,0,0,1-1.157,1.5l-2.244,2.438.011.029h4.1Z"/><path d="M607.386,294.776a3.819,3.819,0,0,1-.724,2.5,2.7,2.7,0,0,1-3.975,0,3.788,3.788,0,0,1-.733-2.5v-2.021a3.812,3.812,0,0,1,.73-2.5,2.689,2.689,0,0,1,3.972,0,3.812,3.812,0,0,1,.73,2.5Zm-1.155-2.269a2.846,2.846,0,0,0-.4-1.665,1.485,1.485,0,0,0-2.323,0,2.862,2.862,0,0,0-.4,1.665v2.5a2.859,2.859,0,0,0,.405,1.671,1.344,1.344,0,0,0,1.166.565,1.324,1.324,0,0,0,1.157-.562,2.908,2.908,0,0,0,.395-1.674Z"/><path d="M612.044,298.028H610.89v-7.406l-1.746.024v-.833l2.9-.316Z"/><path d="M621.032,298.028H615.5v-.8l2.8-3.1a7.809,7.809,0,0,0,1.016-1.33,2.09,2.09,0,0,0,.267-1.008,1.6,1.6,0,0,0-.372-1.075,1.233,1.233,0,0,0-.987-.437,1.7,1.7,0,0,0-1.3.454,1.813,1.813,0,0,0-.419,1.275H615.39l-.012-.035a2.4,2.4,0,0,1,.732-1.852,2.878,2.878,0,0,1,2.11-.75,2.5,2.5,0,0,1,1.831.671,2.293,2.293,0,0,1,.682,1.708,2.721,2.721,0,0,1-.413,1.4,8.949,8.949,0,0,1-1.157,1.5l-2.244,2.438.012.029h4.1Z"/></g></g><g id="_2002" data-name=" 2002" class="cls-3"><g class="cls-3"><path d="M236.314,298.028h-5.531v-.8l2.8-3.1a7.881,7.881,0,0,0,1.017-1.33,2.1,2.1,0,0,0,.266-1.008,1.6,1.6,0,0,0-.372-1.075,1.233,1.233,0,0,0-.987-.437,1.7,1.7,0,0,0-1.3.454,1.813,1.813,0,0,0-.419,1.275h-1.107l-.012-.035a2.4,2.4,0,0,1,.733-1.852,2.875,2.875,0,0,1,2.109-.75,2.5,2.5,0,0,1,1.831.671,2.293,2.293,0,0,1,.683,1.708,2.73,2.73,0,0,1-.413,1.4,9.013,9.013,0,0,1-1.158,1.5l-2.244,2.438.012.029h4.1Z"/><path d="M242.941,294.776a3.825,3.825,0,0,1-.723,2.5,2.7,2.7,0,0,1-3.976,0,3.794,3.794,0,0,1-.732-2.5v-2.021a3.817,3.817,0,0,1,.729-2.5,2.69,2.69,0,0,1,3.973,0,3.817,3.817,0,0,1,.729,2.5Zm-1.154-2.269a2.854,2.854,0,0,0-.4-1.665,1.486,1.486,0,0,0-2.324,0,2.871,2.871,0,0,0-.4,1.665v2.5a2.867,2.867,0,0,0,.4,1.671,1.346,1.346,0,0,0,1.166.565,1.326,1.326,0,0,0,1.158-.562,2.916,2.916,0,0,0,.4-1.674Z"/><path d="M249.7,294.776a3.819,3.819,0,0,1-.724,2.5,2.7,2.7,0,0,1-3.975,0,3.794,3.794,0,0,1-.733-2.5v-2.021a3.817,3.817,0,0,1,.73-2.5,2.69,2.69,0,0,1,3.973,0,3.817,3.817,0,0,1,.729,2.5Zm-1.154-2.269a2.846,2.846,0,0,0-.4-1.665,1.485,1.485,0,0,0-2.323,0,2.871,2.871,0,0,0-.4,1.665v2.5a2.867,2.867,0,0,0,.4,1.671,1.345,1.345,0,0,0,1.166.565,1.323,1.323,0,0,0,1.157-.562,2.907,2.907,0,0,0,.4-1.674Z"/><path d="M256.594,298.028h-5.532v-.8l2.795-3.1a7.881,7.881,0,0,0,1.017-1.33,2.09,2.09,0,0,0,.267-1.008,1.6,1.6,0,0,0-.372-1.075,1.235,1.235,0,0,0-.988-.437,1.694,1.694,0,0,0-1.3.454,1.808,1.808,0,0,0-.419,1.275h-1.108l-.012-.035a2.4,2.4,0,0,1,.733-1.852,2.877,2.877,0,0,1,2.109-.75,2.5,2.5,0,0,1,1.831.671,2.293,2.293,0,0,1,.683,1.708,2.73,2.73,0,0,1-.413,1.4,9,9,0,0,1-1.157,1.5l-2.245,2.438.012.029h4.1Z"/></g></g><g id="_2010" data-name=" 2010" class="cls-3"><g class="cls-3"><path d="M527.868,298.028h-5.531v-.8l2.795-3.1a7.809,7.809,0,0,0,1.016-1.33,2.09,2.09,0,0,0,.267-1.008,1.6,1.6,0,0,0-.372-1.075,1.233,1.233,0,0,0-.987-.437,1.7,1.7,0,0,0-1.3.454,1.813,1.813,0,0,0-.419,1.275h-1.107l-.012-.035a2.4,2.4,0,0,1,.732-1.852,2.878,2.878,0,0,1,2.11-.75,2.5,2.5,0,0,1,1.831.671,2.293,2.293,0,0,1,.682,1.708,2.721,2.721,0,0,1-.413,1.4,8.949,8.949,0,0,1-1.157,1.5l-2.244,2.438.012.029h4.1Z"/><path d="M534.5,294.776a3.819,3.819,0,0,1-.724,2.5,2.7,2.7,0,0,1-3.975,0,3.794,3.794,0,0,1-.733-2.5v-2.021a3.817,3.817,0,0,1,.73-2.5,2.69,2.69,0,0,1,3.973,0,3.817,3.817,0,0,1,.729,2.5Zm-1.154-2.269a2.846,2.846,0,0,0-.4-1.665,1.485,1.485,0,0,0-2.323,0,2.871,2.871,0,0,0-.4,1.665v2.5a2.867,2.867,0,0,0,.4,1.671,1.345,1.345,0,0,0,1.166.565,1.323,1.323,0,0,0,1.157-.562,2.907,2.907,0,0,0,.4-1.674Z"/><path d="M539.153,298.028H538v-7.406l-1.746.024v-.833l2.9-.316Z"/><path d="M548.013,294.776a3.825,3.825,0,0,1-.724,2.5,2.44,2.44,0,0,1-1.983.87,2.466,2.466,0,0,1-1.993-.873,3.794,3.794,0,0,1-.732-2.5v-2.021a3.812,3.812,0,0,1,.73-2.5,2.689,2.689,0,0,1,3.972,0,3.812,3.812,0,0,1,.73,2.5Zm-1.155-2.269a2.846,2.846,0,0,0-.4-1.665,1.485,1.485,0,0,0-2.323,0,2.862,2.862,0,0,0-.4,1.665v2.5a2.859,2.859,0,0,0,.4,1.671,1.344,1.344,0,0,0,1.166.565,1.326,1.326,0,0,0,1.157-.562,2.908,2.908,0,0,0,.395-1.674Z"/></g></g><g id="_2006" data-name=" 2006" class="cls-3"><g class="cls-3"><path d="M382.092,298.028h-5.531v-.8l2.794-3.1a7.881,7.881,0,0,0,1.017-1.33,2.09,2.09,0,0,0,.267-1.008,1.6,1.6,0,0,0-.372-1.075,1.235,1.235,0,0,0-.988-.437,1.694,1.694,0,0,0-1.3.454,1.808,1.808,0,0,0-.419,1.275h-1.108l-.011-.035a2.4,2.4,0,0,1,.732-1.852,2.877,2.877,0,0,1,2.109-.75,2.5,2.5,0,0,1,1.831.671,2.293,2.293,0,0,1,.683,1.708,2.73,2.73,0,0,1-.413,1.4,9,9,0,0,1-1.157,1.5l-2.244,2.438.011.029h4.1Z"/><path d="M388.719,294.776a3.819,3.819,0,0,1-.724,2.5,2.7,2.7,0,0,1-3.975,0,3.788,3.788,0,0,1-.733-2.5v-2.021a3.812,3.812,0,0,1,.73-2.5,2.689,2.689,0,0,1,3.972,0,3.812,3.812,0,0,1,.73,2.5Zm-1.155-2.269a2.846,2.846,0,0,0-.4-1.665,1.485,1.485,0,0,0-2.323,0,2.862,2.862,0,0,0-.4,1.665v2.5a2.859,2.859,0,0,0,.405,1.671,1.344,1.344,0,0,0,1.166.565,1.324,1.324,0,0,0,1.157-.562,2.908,2.908,0,0,0,.4-1.674Z"/><path d="M395.48,294.776a3.825,3.825,0,0,1-.723,2.5,2.7,2.7,0,0,1-3.976,0,3.794,3.794,0,0,1-.732-2.5v-2.021a3.817,3.817,0,0,1,.729-2.5,2.69,2.69,0,0,1,3.973,0,3.817,3.817,0,0,1,.729,2.5Zm-1.154-2.269a2.854,2.854,0,0,0-.4-1.665,1.485,1.485,0,0,0-2.323,0,2.862,2.862,0,0,0-.4,1.665v2.5a2.867,2.867,0,0,0,.4,1.671,1.346,1.346,0,0,0,1.166.565,1.326,1.326,0,0,0,1.158-.562,2.916,2.916,0,0,0,.4-1.674Z"/><path d="M400.1,289.374a3.82,3.82,0,0,1,.87.1,2.834,2.834,0,0,1,.712.252l-.247.884a3.467,3.467,0,0,0-.6-.237,2.637,2.637,0,0,0-.735-.091,1.764,1.764,0,0,0-1.474.733,3.061,3.061,0,0,0-.56,1.91v.135a2.806,2.806,0,0,1,.859-.513,2.891,2.891,0,0,1,1.04-.185,2.282,2.282,0,0,1,1.822.791,2.969,2.969,0,0,1,.68,2,3.179,3.179,0,0,1-.724,2.159,2.426,2.426,0,0,1-1.931.835,2.672,2.672,0,0,1-2.074-.908,3.685,3.685,0,0,1-.82-2.56v-1.629a3.834,3.834,0,0,1,.914-2.66A2.922,2.922,0,0,1,400.1,289.374Zm-.393,3.85a1.984,1.984,0,0,0-1.008.24,1.624,1.624,0,0,0-.633.638v.69a2.885,2.885,0,0,0,.5,1.813,1.524,1.524,0,0,0,1.248.638,1.254,1.254,0,0,0,1.105-.6,2.649,2.649,0,0,0,.395-1.49,2.187,2.187,0,0,0-.424-1.386A1.414,1.414,0,0,0,399.711,293.224Z"/></g></g><g id="_2014" data-name=" 2014" class="cls-3"><g class="cls-3"><path d="M673.647,298.028h-5.531v-.8l2.795-3.1a7.881,7.881,0,0,0,1.017-1.33,2.1,2.1,0,0,0,.266-1.008,1.6,1.6,0,0,0-.372-1.075,1.233,1.233,0,0,0-.987-.437,1.7,1.7,0,0,0-1.3.454,1.813,1.813,0,0,0-.419,1.275h-1.107l-.012-.035a2.4,2.4,0,0,1,.733-1.852,2.875,2.875,0,0,1,2.109-.75,2.5,2.5,0,0,1,1.831.671,2.293,2.293,0,0,1,.683,1.708,2.73,2.73,0,0,1-.413,1.4,9.013,9.013,0,0,1-1.158,1.5l-2.244,2.438.012.029h4.1Z"/><path d="M680.274,294.776a3.825,3.825,0,0,1-.723,2.5,2.7,2.7,0,0,1-3.976,0,3.794,3.794,0,0,1-.732-2.5v-2.021a3.817,3.817,0,0,1,.729-2.5,2.69,2.69,0,0,1,3.973,0,3.817,3.817,0,0,1,.729,2.5Zm-1.154-2.269a2.854,2.854,0,0,0-.4-1.665,1.485,1.485,0,0,0-2.323,0,2.862,2.862,0,0,0-.4,1.665v2.5a2.867,2.867,0,0,0,.4,1.671,1.346,1.346,0,0,0,1.166.565,1.326,1.326,0,0,0,1.158-.562,2.916,2.916,0,0,0,.395-1.674Z"/><path d="M684.933,298.028h-1.155v-7.406l-1.746.024v-.833l2.9-.316Z"/><path d="M693,295.157h1.178v.908H693v1.963h-1.148v-1.963h-3.832v-.651l3.761-5.917H693Zm-3.75,0h2.6v-4l-.036-.006-.111.293Z"/></g></g><g id="_2015" data-name=" 2015" class="cls-3"><g class="cls-3"><path d="M710.092,298.028h-5.531v-.8l2.794-3.1a7.881,7.881,0,0,0,1.017-1.33,2.09,2.09,0,0,0,.267-1.008,1.6,1.6,0,0,0-.372-1.075,1.235,1.235,0,0,0-.988-.437,1.694,1.694,0,0,0-1.3.454,1.808,1.808,0,0,0-.419,1.275h-1.108l-.011-.035a2.4,2.4,0,0,1,.732-1.852,2.877,2.877,0,0,1,2.109-.75,2.5,2.5,0,0,1,1.831.671,2.293,2.293,0,0,1,.683,1.708,2.73,2.73,0,0,1-.413,1.4,9,9,0,0,1-1.157,1.5l-2.244,2.438.011.029h4.1Z"/><path d="M716.719,294.776a3.819,3.819,0,0,1-.724,2.5,2.7,2.7,0,0,1-3.975,0,3.788,3.788,0,0,1-.733-2.5v-2.021a3.812,3.812,0,0,1,.73-2.5,2.689,2.689,0,0,1,3.972,0,3.812,3.812,0,0,1,.73,2.5Zm-1.155-2.269a2.846,2.846,0,0,0-.4-1.665,1.485,1.485,0,0,0-2.323,0,2.862,2.862,0,0,0-.4,1.665v2.5a2.859,2.859,0,0,0,.4,1.671,1.344,1.344,0,0,0,1.166.565,1.324,1.324,0,0,0,1.157-.562,2.908,2.908,0,0,0,.395-1.674Z"/><path d="M721.377,298.028h-1.154v-7.406l-1.746.024v-.833l2.9-.316Z"/><path d="M725.168,294.179l.492-4.682h4.272v1.025h-3.293l-.282,2.4a2.661,2.661,0,0,1,.6-.331,2.226,2.226,0,0,1,.765-.144,2.3,2.3,0,0,1,1.854.768,3.089,3.089,0,0,1,.677,2.1,3,3,0,0,1-.689,2.062,2.533,2.533,0,0,1-2.006.779,2.752,2.752,0,0,1-1.8-.591,2.05,2.05,0,0,1-.692-1.741l.012-.035h1.043a1.416,1.416,0,0,0,.4,1.077,1.444,1.444,0,0,0,1.04.382,1.363,1.363,0,0,0,1.136-.514,2.228,2.228,0,0,0,.4-1.411,2.12,2.12,0,0,0-.411-1.345,1.353,1.353,0,0,0-1.13-.527,1.819,1.819,0,0,0-.985.2,1.173,1.173,0,0,0-.445.627Z"/></g></g><g id="_2017" data-name=" 2017" class="cls-3"><g class="cls-3"><path d="M819.424,298.028h-5.531v-.8l2.795-3.1a7.864,7.864,0,0,0,1.016-1.33,2.09,2.09,0,0,0,.267-1.008,1.6,1.6,0,0,0-.372-1.075,1.235,1.235,0,0,0-.988-.437,1.694,1.694,0,0,0-1.3.454,1.808,1.808,0,0,0-.419,1.275h-1.108l-.011-.035a2.4,2.4,0,0,1,.732-1.852,2.877,2.877,0,0,1,2.109-.75,2.5,2.5,0,0,1,1.831.671,2.293,2.293,0,0,1,.683,1.708,2.73,2.73,0,0,1-.413,1.4,8.949,8.949,0,0,1-1.157,1.5l-2.244,2.438.011.029h4.1Z"/><path d="M826.051,294.776a3.819,3.819,0,0,1-.724,2.5,2.7,2.7,0,0,1-3.975,0,3.788,3.788,0,0,1-.733-2.5v-2.021a3.812,3.812,0,0,1,.73-2.5,2.689,2.689,0,0,1,3.972,0,3.812,3.812,0,0,1,.73,2.5Zm-1.155-2.269a2.846,2.846,0,0,0-.4-1.665,1.485,1.485,0,0,0-2.323,0,2.862,2.862,0,0,0-.4,1.665v2.5a2.859,2.859,0,0,0,.4,1.671,1.344,1.344,0,0,0,1.166.565,1.324,1.324,0,0,0,1.157-.562,2.908,2.908,0,0,0,.395-1.674Z"/><path d="M830.709,298.028h-1.154v-7.406l-1.746.024v-.833l2.9-.316Z"/><path d="M839.393,291.724a1.9,1.9,0,0,1-.375,1.169,2.236,2.236,0,0,1-1.014.747,2.557,2.557,0,0,1,1.181.808,1.977,1.977,0,0,1,.442,1.272,2.189,2.189,0,0,1-.771,1.807,3.548,3.548,0,0,1-4.019,0,2.2,2.2,0,0,1-.765-1.807,2,2,0,0,1,.434-1.272,2.5,2.5,0,0,1,1.172-.808,2.159,2.159,0,0,1-1-.747,1.941,1.941,0,0,1-.364-1.169,2.2,2.2,0,0,1,.695-1.738,2.677,2.677,0,0,1,1.837-.612,2.719,2.719,0,0,1,1.837.612A2.172,2.172,0,0,1,839.393,291.724Zm-.914,3.969a1.542,1.542,0,0,0-.463-1.152,1.615,1.615,0,0,0-1.172-.45,1.539,1.539,0,0,0-1.617,1.6,1.474,1.474,0,0,0,.445,1.138,1.883,1.883,0,0,0,2.355,0A1.466,1.466,0,0,0,838.479,295.693Zm-.241-3.946a1.465,1.465,0,0,0-.4-1.049,1.421,1.421,0,0,0-2-.014,1.48,1.48,0,0,0-.381,1.063,1.427,1.427,0,0,0,.384,1.043,1.47,1.47,0,0,0,2,0A1.424,1.424,0,0,0,838.238,291.747Z"/></g></g><g id="_2017-2" data-name=" 2017" class="cls-3"><g class="cls-3"><path d="M782.979,298.028h-5.531v-.8l2.8-3.1a7.881,7.881,0,0,0,1.017-1.33,2.088,2.088,0,0,0,.266-1.008,1.6,1.6,0,0,0-.372-1.075,1.233,1.233,0,0,0-.987-.437,1.7,1.7,0,0,0-1.3.454,1.813,1.813,0,0,0-.419,1.275h-1.107l-.012-.035a2.4,2.4,0,0,1,.733-1.852,2.875,2.875,0,0,1,2.109-.75,2.5,2.5,0,0,1,1.831.671,2.293,2.293,0,0,1,.683,1.708,2.73,2.73,0,0,1-.413,1.4,9.013,9.013,0,0,1-1.158,1.5l-2.244,2.438.012.029h4.1Z"/><path d="M789.606,294.776a3.825,3.825,0,0,1-.723,2.5,2.7,2.7,0,0,1-3.976,0,3.794,3.794,0,0,1-.732-2.5v-2.021a3.817,3.817,0,0,1,.729-2.5,2.69,2.69,0,0,1,3.973,0,3.817,3.817,0,0,1,.729,2.5Zm-1.154-2.269a2.854,2.854,0,0,0-.4-1.665,1.485,1.485,0,0,0-2.323,0,2.862,2.862,0,0,0-.4,1.665v2.5a2.867,2.867,0,0,0,.4,1.671,1.346,1.346,0,0,0,1.166.565,1.326,1.326,0,0,0,1.158-.562,2.916,2.916,0,0,0,.395-1.674Z"/><path d="M794.265,298.028H793.11v-7.406l-1.746.024v-.833l2.9-.316Z"/><path d="M803.253,290.4a12.019,12.019,0,0,0-2.089,3.261,14.566,14.566,0,0,0-.782,3.442l-.094.92h-1.154l.094-.92a12.51,12.51,0,0,1,.955-3.6,13.886,13.886,0,0,1,1.939-3.1h-4.641V289.5h5.772Z"/></g></g><g id="_2016" data-name=" 2016" class="cls-3"><g class="cls-3"><path d="M746.535,298.028H741v-.8l2.795-3.1a7.827,7.827,0,0,0,1.017-1.33,2.088,2.088,0,0,0,.266-1.008,1.6,1.6,0,0,0-.371-1.075,1.235,1.235,0,0,0-.988-.437,1.694,1.694,0,0,0-1.3.454,1.813,1.813,0,0,0-.42,1.275h-1.107l-.012-.035a2.4,2.4,0,0,1,.732-1.852,2.878,2.878,0,0,1,2.11-.75,2.5,2.5,0,0,1,1.832.671,2.292,2.292,0,0,1,.681,1.708,2.719,2.719,0,0,1-.412,1.4,8.96,8.96,0,0,1-1.158,1.5l-2.244,2.438.012.029h4.1Z"/><path d="M753.162,294.776a3.819,3.819,0,0,1-.723,2.5,2.7,2.7,0,0,1-3.976,0,3.794,3.794,0,0,1-.733-2.5v-2.021a3.817,3.817,0,0,1,.731-2.5,2.69,2.69,0,0,1,3.973,0,3.817,3.817,0,0,1,.728,2.5Zm-1.154-2.269a2.846,2.846,0,0,0-.4-1.665,1.486,1.486,0,0,0-2.324,0,2.871,2.871,0,0,0-.4,1.665v2.5a2.867,2.867,0,0,0,.4,1.671,1.345,1.345,0,0,0,1.166.565,1.325,1.325,0,0,0,1.158-.562,2.908,2.908,0,0,0,.395-1.674Z"/><path d="M757.82,298.028h-1.154v-7.406l-1.746.024v-.833l2.9-.316Z"/><path d="M764.541,289.374a3.823,3.823,0,0,1,.871.1,2.811,2.811,0,0,1,.711.252l-.246.884a3.467,3.467,0,0,0-.6-.237,2.645,2.645,0,0,0-.736-.091,1.764,1.764,0,0,0-1.473.733,3.061,3.061,0,0,0-.56,1.91v.135a2.818,2.818,0,0,1,.859-.513,2.886,2.886,0,0,1,1.039-.185,2.284,2.284,0,0,1,1.823.791,2.968,2.968,0,0,1,.679,2,3.178,3.178,0,0,1-.722,2.159,2.429,2.429,0,0,1-1.932.835,2.672,2.672,0,0,1-2.074-.908,3.685,3.685,0,0,1-.821-2.56v-1.629a3.834,3.834,0,0,1,.914-2.66A2.925,2.925,0,0,1,764.541,289.374Zm-.393,3.85a1.983,1.983,0,0,0-1.007.24,1.611,1.611,0,0,0-.633.638v.69a2.885,2.885,0,0,0,.5,1.813,1.524,1.524,0,0,0,1.248.638,1.253,1.253,0,0,0,1.105-.6,2.649,2.649,0,0,0,.395-1.49,2.187,2.187,0,0,0-.424-1.386A1.415,1.415,0,0,0,764.148,293.224Z"/></g></g><g id="_120_000_000" data-name=" 120 000 000" class="cls-3"><g class="cls-3"><path d="M63.047,115.482a1.223,1.223,0,0,0-.375-.9,3.224,3.224,0,0,0-1.231-.668,4.257,4.257,0,0,1-1.787-.955,2.145,2.145,0,0,1-.6-1.594,2.254,2.254,0,0,1,.553-1.576,2.388,2.388,0,0,1,1.527-.732v-1.3h.926v1.3a2.243,2.243,0,0,1,1.526.841,2.992,2.992,0,0,1,.542,1.878H62.977a2.088,2.088,0,0,0-.37-1.289A1.208,1.208,0,0,0,61.582,110a1.228,1.228,0,0,0-1.377,1.348,1.235,1.235,0,0,0,.355.919,3.441,3.441,0,0,0,1.28.668,4.443,4.443,0,0,1,1.781.964,2.113,2.113,0,0,1,.58,1.568,2.147,2.147,0,0,1-.6,1.6,2.679,2.679,0,0,1-1.659.706V118.9H61.02v-1.119a2.685,2.685,0,0,1-1.653-.735,2.4,2.4,0,0,1-.621-1.849l.012-.029h1.113a1.6,1.6,0,0,0,.454,1.286,1.67,1.67,0,0,0,1.116.384,1.766,1.766,0,0,0,1.181-.361A1.24,1.24,0,0,0,63.047,115.482Z"/><path d="M68.824,117.686H67.67v-7.407l-1.746.024v-.832l2.9-.317Z"/><path d="M77.812,117.686H72.281v-.8l2.795-3.1a7.881,7.881,0,0,0,1.017-1.33,2.088,2.088,0,0,0,.266-1.008,1.6,1.6,0,0,0-.372-1.075,1.233,1.233,0,0,0-.987-.437,1.694,1.694,0,0,0-1.3.455,1.808,1.808,0,0,0-.419,1.274H72.17l-.012-.035a2.4,2.4,0,0,1,.733-1.852,2.875,2.875,0,0,1,2.109-.75,2.5,2.5,0,0,1,1.831.671,2.293,2.293,0,0,1,.683,1.708,2.737,2.737,0,0,1-.413,1.4,9.1,9.1,0,0,1-1.158,1.5L73.7,116.748l.012.029h4.1Z"/><path d="M84.439,114.434a3.823,3.823,0,0,1-.723,2.5,2.7,2.7,0,0,1-3.976,0,3.794,3.794,0,0,1-.732-2.5v-2.022a3.817,3.817,0,0,1,.729-2.505,2.69,2.69,0,0,1,3.973,0,3.817,3.817,0,0,1,.729,2.505Zm-1.154-2.27a2.854,2.854,0,0,0-.4-1.665,1.485,1.485,0,0,0-2.323,0,2.862,2.862,0,0,0-.4,1.665v2.5a2.867,2.867,0,0,0,.4,1.671,1.346,1.346,0,0,0,1.166.565,1.326,1.326,0,0,0,1.158-.562,2.916,2.916,0,0,0,.395-1.674Z"/><path d="M86.953,117.4l-.879,1.793h-.685l.41-1.851v-.955h1.154Z"/><path d="M93.568,114.434a3.823,3.823,0,0,1-.723,2.5,2.7,2.7,0,0,1-3.976,0,3.794,3.794,0,0,1-.732-2.5v-2.022a3.817,3.817,0,0,1,.729-2.505,2.69,2.69,0,0,1,3.973,0,3.817,3.817,0,0,1,.729,2.505Zm-1.154-2.27a2.854,2.854,0,0,0-.4-1.665,1.486,1.486,0,0,0-2.324,0,2.871,2.871,0,0,0-.4,1.665v2.5a2.867,2.867,0,0,0,.4,1.671,1.346,1.346,0,0,0,1.166.565,1.326,1.326,0,0,0,1.158-.562,2.916,2.916,0,0,0,.395-1.674Z"/><path d="M100.33,114.434a3.818,3.818,0,0,1-.724,2.5,2.438,2.438,0,0,1-1.983.871,2.463,2.463,0,0,1-1.992-.873,3.794,3.794,0,0,1-.733-2.5v-2.022a3.817,3.817,0,0,1,.73-2.505,2.69,2.69,0,0,1,3.973,0,3.817,3.817,0,0,1,.729,2.505Zm-1.154-2.27a2.846,2.846,0,0,0-.4-1.665,1.485,1.485,0,0,0-2.323,0,2.871,2.871,0,0,0-.4,1.665v2.5a2.867,2.867,0,0,0,.4,1.671,1.345,1.345,0,0,0,1.166.565,1.323,1.323,0,0,0,1.157-.562,2.907,2.907,0,0,0,.4-1.674Z"/><path d="M107.092,114.434a3.818,3.818,0,0,1-.724,2.5,2.438,2.438,0,0,1-1.983.871,2.463,2.463,0,0,1-1.992-.873,3.788,3.788,0,0,1-.733-2.5v-2.022a3.812,3.812,0,0,1,.73-2.505,2.689,2.689,0,0,1,3.972,0,3.812,3.812,0,0,1,.73,2.505Zm-1.154-2.27a2.846,2.846,0,0,0-.4-1.665,1.485,1.485,0,0,0-2.323,0,2.862,2.862,0,0,0-.4,1.665v2.5a2.859,2.859,0,0,0,.405,1.671,1.344,1.344,0,0,0,1.166.565,1.324,1.324,0,0,0,1.157-.562,2.907,2.907,0,0,0,.4-1.674Z"/><path d="M109.605,117.4l-.878,1.793h-.686l.41-1.851v-.955h1.154Z"/><path d="M116.221,114.434a3.824,3.824,0,0,1-.724,2.5,2.438,2.438,0,0,1-1.983.871,2.466,2.466,0,0,1-1.993-.873,3.794,3.794,0,0,1-.732-2.5v-2.022a3.812,3.812,0,0,1,.73-2.505,2.689,2.689,0,0,1,3.972,0,3.812,3.812,0,0,1,.73,2.505Zm-1.155-2.27a2.846,2.846,0,0,0-.4-1.665,1.485,1.485,0,0,0-2.323,0,2.862,2.862,0,0,0-.4,1.665v2.5a2.859,2.859,0,0,0,.405,1.671,1.344,1.344,0,0,0,1.166.565,1.326,1.326,0,0,0,1.157-.562,2.908,2.908,0,0,0,.395-1.674Z"/><path d="M122.982,114.434a3.823,3.823,0,0,1-.723,2.5,2.7,2.7,0,0,1-3.976,0,3.794,3.794,0,0,1-.732-2.5v-2.022a3.817,3.817,0,0,1,.729-2.505,2.69,2.69,0,0,1,3.973,0,3.817,3.817,0,0,1,.729,2.505Zm-1.154-2.27a2.854,2.854,0,0,0-.4-1.665,1.485,1.485,0,0,0-2.323,0,2.862,2.862,0,0,0-.4,1.665v2.5a2.867,2.867,0,0,0,.4,1.671,1.346,1.346,0,0,0,1.166.565,1.326,1.326,0,0,0,1.158-.562,2.916,2.916,0,0,0,.395-1.674Z"/><path d="M129.744,114.434a3.823,3.823,0,0,1-.723,2.5,2.7,2.7,0,0,1-3.976,0,3.794,3.794,0,0,1-.733-2.5v-2.022a3.817,3.817,0,0,1,.73-2.505,2.69,2.69,0,0,1,3.973,0,3.817,3.817,0,0,1,.729,2.505Zm-1.154-2.27a2.846,2.846,0,0,0-.4-1.665,1.485,1.485,0,0,0-2.323,0,2.871,2.871,0,0,0-.4,1.665v2.5a2.867,2.867,0,0,0,.4,1.671,1.345,1.345,0,0,0,1.166.565,1.323,1.323,0,0,0,1.157-.562,2.907,2.907,0,0,0,.4-1.674Z"/></g></g><g id="_140_000_000" data-name=" 140 000 000" class="cls-3"><g class="cls-3"><path d="M63.047,88.153a1.223,1.223,0,0,0-.375-.9,3.224,3.224,0,0,0-1.231-.668,4.257,4.257,0,0,1-1.787-.955,2.145,2.145,0,0,1-.6-1.594,2.254,2.254,0,0,1,.553-1.576,2.389,2.389,0,0,1,1.527-.733V80.437h.926v1.3a2.243,2.243,0,0,1,1.526.841,2.992,2.992,0,0,1,.542,1.878H62.977a2.088,2.088,0,0,0-.37-1.289,1.208,1.208,0,0,0-1.025-.492,1.228,1.228,0,0,0-1.377,1.347,1.236,1.236,0,0,0,.355.92,3.455,3.455,0,0,0,1.28.668,4.431,4.431,0,0,1,1.781.964,2.111,2.111,0,0,1,.58,1.568,2.148,2.148,0,0,1-.6,1.6,2.679,2.679,0,0,1-1.659.706v1.125H61.02V90.456a2.685,2.685,0,0,1-1.653-.735,2.4,2.4,0,0,1-.621-1.849l.012-.029h1.113a1.6,1.6,0,0,0,.454,1.286,1.67,1.67,0,0,0,1.116.384,1.766,1.766,0,0,0,1.181-.361A1.24,1.24,0,0,0,63.047,88.153Z"/><path d="M68.824,90.356H67.67V82.95l-1.746.024v-.832l2.9-.317Z"/><path d="M76.893,87.485H78.07v.909H76.893v1.962H75.744V88.394H71.912v-.652l3.762-5.917h1.219Zm-3.75,0h2.6v-4l-.035-.005-.111.293Z"/><path d="M84.439,87.1a3.825,3.825,0,0,1-.723,2.5,2.7,2.7,0,0,1-3.976,0,3.794,3.794,0,0,1-.732-2.5V85.083a3.817,3.817,0,0,1,.729-2.5,2.69,2.69,0,0,1,3.973,0,3.817,3.817,0,0,1,.729,2.5Zm-1.154-2.269a2.854,2.854,0,0,0-.4-1.665,1.485,1.485,0,0,0-2.323,0,2.862,2.862,0,0,0-.4,1.665v2.5a2.867,2.867,0,0,0,.4,1.671,1.346,1.346,0,0,0,1.166.565,1.326,1.326,0,0,0,1.158-.562,2.916,2.916,0,0,0,.395-1.674Z"/><path d="M86.953,90.075l-.879,1.793h-.685l.41-1.851v-.955h1.154Z"/><path d="M93.568,87.1a3.825,3.825,0,0,1-.723,2.5,2.7,2.7,0,0,1-3.976,0,3.794,3.794,0,0,1-.732-2.5V85.083a3.817,3.817,0,0,1,.729-2.5,2.69,2.69,0,0,1,3.973,0,3.817,3.817,0,0,1,.729,2.5Zm-1.154-2.269a2.854,2.854,0,0,0-.4-1.665,1.486,1.486,0,0,0-2.324,0,2.871,2.871,0,0,0-.4,1.665v2.5a2.867,2.867,0,0,0,.4,1.671,1.346,1.346,0,0,0,1.166.565,1.326,1.326,0,0,0,1.158-.562,2.916,2.916,0,0,0,.395-1.674Z"/><path d="M100.33,87.1a3.819,3.819,0,0,1-.724,2.5,2.7,2.7,0,0,1-3.975,0,3.794,3.794,0,0,1-.733-2.5V85.083a3.817,3.817,0,0,1,.73-2.5,2.69,2.69,0,0,1,3.973,0,3.817,3.817,0,0,1,.729,2.5Zm-1.154-2.269a2.846,2.846,0,0,0-.4-1.665,1.485,1.485,0,0,0-2.323,0,2.871,2.871,0,0,0-.4,1.665v2.5a2.867,2.867,0,0,0,.4,1.671,1.345,1.345,0,0,0,1.166.565,1.323,1.323,0,0,0,1.157-.562,2.907,2.907,0,0,0,.4-1.674Z"/><path d="M107.092,87.1a3.819,3.819,0,0,1-.724,2.5,2.7,2.7,0,0,1-3.975,0,3.788,3.788,0,0,1-.733-2.5V85.083a3.812,3.812,0,0,1,.73-2.5,2.689,2.689,0,0,1,3.972,0,3.812,3.812,0,0,1,.73,2.5Zm-1.154-2.269a2.846,2.846,0,0,0-.4-1.665,1.485,1.485,0,0,0-2.323,0,2.862,2.862,0,0,0-.4,1.665v2.5a2.859,2.859,0,0,0,.405,1.671,1.344,1.344,0,0,0,1.166.565,1.324,1.324,0,0,0,1.157-.562,2.907,2.907,0,0,0,.4-1.674Z"/><path d="M109.605,90.075l-.878,1.793h-.686l.41-1.851v-.955h1.154Z"/><path d="M116.221,87.1a3.825,3.825,0,0,1-.724,2.5,2.44,2.44,0,0,1-1.983.87,2.466,2.466,0,0,1-1.993-.873,3.794,3.794,0,0,1-.732-2.5V85.083a3.812,3.812,0,0,1,.73-2.5,2.689,2.689,0,0,1,3.972,0,3.812,3.812,0,0,1,.73,2.5Zm-1.155-2.269a2.846,2.846,0,0,0-.4-1.665,1.485,1.485,0,0,0-2.323,0,2.862,2.862,0,0,0-.4,1.665v2.5a2.859,2.859,0,0,0,.405,1.671,1.344,1.344,0,0,0,1.166.565,1.326,1.326,0,0,0,1.157-.562,2.908,2.908,0,0,0,.395-1.674Z"/><path d="M122.982,87.1a3.825,3.825,0,0,1-.723,2.5,2.7,2.7,0,0,1-3.976,0,3.794,3.794,0,0,1-.732-2.5V85.083a3.817,3.817,0,0,1,.729-2.5,2.69,2.69,0,0,1,3.973,0,3.817,3.817,0,0,1,.729,2.5Zm-1.154-2.269a2.854,2.854,0,0,0-.4-1.665,1.485,1.485,0,0,0-2.323,0,2.862,2.862,0,0,0-.4,1.665v2.5a2.867,2.867,0,0,0,.4,1.671,1.346,1.346,0,0,0,1.166.565,1.326,1.326,0,0,0,1.158-.562,2.916,2.916,0,0,0,.395-1.674Z"/><path d="M129.744,87.1a3.825,3.825,0,0,1-.723,2.5,2.7,2.7,0,0,1-3.976,0,3.794,3.794,0,0,1-.733-2.5V85.083a3.817,3.817,0,0,1,.73-2.5,2.69,2.69,0,0,1,3.973,0,3.817,3.817,0,0,1,.729,2.5Zm-1.154-2.269a2.846,2.846,0,0,0-.4-1.665,1.485,1.485,0,0,0-2.323,0,2.871,2.871,0,0,0-.4,1.665v2.5a2.867,2.867,0,0,0,.4,1.671,1.345,1.345,0,0,0,1.166.565,1.323,1.323,0,0,0,1.157-.562,2.907,2.907,0,0,0,.4-1.674Z"/></g></g><g id="_80_000_000" data-name=" 80 000 000" class="cls-3"><g class="cls-3"><path d="M69.8,170.139a1.224,1.224,0,0,0-.375-.9,3.238,3.238,0,0,0-1.231-.668,4.24,4.24,0,0,1-1.787-.955,2.143,2.143,0,0,1-.6-1.594,2.254,2.254,0,0,1,.553-1.576,2.385,2.385,0,0,1,1.527-.732v-1.3h.925v1.3a2.242,2.242,0,0,1,1.527.84,2.992,2.992,0,0,1,.542,1.878H69.732a2.1,2.1,0,0,0-.369-1.289,1.209,1.209,0,0,0-1.025-.492,1.23,1.23,0,0,0-1.377,1.348,1.24,1.24,0,0,0,.354.92,3.485,3.485,0,0,0,1.281.668,4.438,4.438,0,0,1,1.781.964,2.109,2.109,0,0,1,.58,1.567,2.147,2.147,0,0,1-.6,1.6,2.688,2.688,0,0,1-1.659.707v1.125h-.92v-1.12a2.684,2.684,0,0,1-1.652-.735,2.4,2.4,0,0,1-.621-1.849l.012-.029h1.113a1.6,1.6,0,0,0,.454,1.286,1.67,1.67,0,0,0,1.116.384,1.771,1.771,0,0,0,1.181-.36A1.242,1.242,0,0,0,69.8,170.139Z"/><path d="M77.508,166.037a1.9,1.9,0,0,1-.375,1.169,2.236,2.236,0,0,1-1.014.747,2.559,2.559,0,0,1,1.181.809,1.971,1.971,0,0,1,.442,1.271,2.193,2.193,0,0,1-.77,1.808,3.549,3.549,0,0,1-4.02,0,2.2,2.2,0,0,1-.764-1.808,2,2,0,0,1,.433-1.271,2.5,2.5,0,0,1,1.172-.809,2.159,2.159,0,0,1-1-.747,1.94,1.94,0,0,1-.363-1.169,2.192,2.192,0,0,1,.694-1.737,2.677,2.677,0,0,1,1.837-.612,2.719,2.719,0,0,1,1.837.612A2.165,2.165,0,0,1,77.508,166.037Zm-.914,3.97a1.543,1.543,0,0,0-.463-1.153,1.617,1.617,0,0,0-1.172-.45,1.583,1.583,0,0,0-1.169.45,1.566,1.566,0,0,0-.448,1.153,1.476,1.476,0,0,0,.445,1.138,1.885,1.885,0,0,0,2.356,0A1.472,1.472,0,0,0,76.594,170.007Zm-.24-3.946a1.46,1.46,0,0,0-.4-1.049,1.422,1.422,0,0,0-2-.015,1.482,1.482,0,0,0-.381,1.064,1.429,1.429,0,0,0,.384,1.043,1.473,1.473,0,0,0,2,0A1.423,1.423,0,0,0,76.354,166.061Z"/><path d="M84.439,169.09a3.825,3.825,0,0,1-.723,2.5,2.7,2.7,0,0,1-3.976,0,3.794,3.794,0,0,1-.732-2.5v-2.022a3.817,3.817,0,0,1,.729-2.505,2.692,2.692,0,0,1,3.973,0,3.817,3.817,0,0,1,.729,2.505Zm-1.154-2.27a2.854,2.854,0,0,0-.4-1.665,1.486,1.486,0,0,0-2.323,0,2.862,2.862,0,0,0-.4,1.665v2.5a2.865,2.865,0,0,0,.4,1.671,1.347,1.347,0,0,0,1.166.566,1.327,1.327,0,0,0,1.158-.563,2.913,2.913,0,0,0,.395-1.674Z"/><path d="M86.953,172.061l-.879,1.793h-.685L85.8,172v-.955h1.154Z"/><path d="M93.568,169.09a3.825,3.825,0,0,1-.723,2.5,2.7,2.7,0,0,1-3.976,0,3.794,3.794,0,0,1-.732-2.5v-2.022a3.817,3.817,0,0,1,.729-2.505,2.692,2.692,0,0,1,3.973,0,3.817,3.817,0,0,1,.729,2.505Zm-1.154-2.27a2.854,2.854,0,0,0-.4-1.665,1.487,1.487,0,0,0-2.324,0,2.871,2.871,0,0,0-.4,1.665v2.5a2.865,2.865,0,0,0,.4,1.671,1.347,1.347,0,0,0,1.166.566,1.327,1.327,0,0,0,1.158-.563,2.913,2.913,0,0,0,.395-1.674Z"/><path d="M100.33,169.09a3.819,3.819,0,0,1-.724,2.5,2.7,2.7,0,0,1-3.975,0,3.794,3.794,0,0,1-.733-2.5v-2.022a3.817,3.817,0,0,1,.73-2.505,2.692,2.692,0,0,1,3.973,0,3.817,3.817,0,0,1,.729,2.505Zm-1.154-2.27a2.846,2.846,0,0,0-.4-1.665,1.486,1.486,0,0,0-2.323,0,2.871,2.871,0,0,0-.4,1.665v2.5a2.865,2.865,0,0,0,.4,1.671,1.346,1.346,0,0,0,1.166.566,1.324,1.324,0,0,0,1.157-.563,2.9,2.9,0,0,0,.4-1.674Z"/><path d="M107.092,169.09a3.819,3.819,0,0,1-.724,2.5,2.7,2.7,0,0,1-3.975,0,3.788,3.788,0,0,1-.733-2.5v-2.022a3.812,3.812,0,0,1,.73-2.505,2.691,2.691,0,0,1,3.972,0,3.812,3.812,0,0,1,.73,2.505Zm-1.154-2.27a2.846,2.846,0,0,0-.4-1.665,1.486,1.486,0,0,0-2.323,0,2.862,2.862,0,0,0-.4,1.665v2.5a2.857,2.857,0,0,0,.405,1.671,1.345,1.345,0,0,0,1.166.566,1.325,1.325,0,0,0,1.157-.563,2.9,2.9,0,0,0,.4-1.674Z"/><path d="M109.605,172.061l-.878,1.793h-.686l.41-1.852v-.955h1.154Z"/><path d="M116.221,169.09a3.825,3.825,0,0,1-.724,2.5,2.44,2.44,0,0,1-1.983.87,2.466,2.466,0,0,1-1.993-.873,3.794,3.794,0,0,1-.732-2.5v-2.022a3.812,3.812,0,0,1,.73-2.505,2.691,2.691,0,0,1,3.972,0,3.812,3.812,0,0,1,.73,2.505Zm-1.155-2.27a2.846,2.846,0,0,0-.4-1.665,1.486,1.486,0,0,0-2.323,0,2.862,2.862,0,0,0-.4,1.665v2.5a2.857,2.857,0,0,0,.405,1.671,1.345,1.345,0,0,0,1.166.566,1.326,1.326,0,0,0,1.157-.563,2.905,2.905,0,0,0,.395-1.674Z"/><path d="M122.982,169.09a3.825,3.825,0,0,1-.723,2.5,2.7,2.7,0,0,1-3.976,0,3.794,3.794,0,0,1-.732-2.5v-2.022a3.817,3.817,0,0,1,.729-2.505,2.692,2.692,0,0,1,3.973,0,3.817,3.817,0,0,1,.729,2.505Zm-1.154-2.27a2.854,2.854,0,0,0-.4-1.665,1.486,1.486,0,0,0-2.323,0,2.862,2.862,0,0,0-.4,1.665v2.5a2.865,2.865,0,0,0,.4,1.671,1.347,1.347,0,0,0,1.166.566,1.327,1.327,0,0,0,1.158-.563,2.913,2.913,0,0,0,.395-1.674Z"/><path d="M129.744,169.09a3.825,3.825,0,0,1-.723,2.5,2.7,2.7,0,0,1-3.976,0,3.794,3.794,0,0,1-.733-2.5v-2.022a3.817,3.817,0,0,1,.73-2.505,2.692,2.692,0,0,1,3.973,0,3.817,3.817,0,0,1,.729,2.505Zm-1.154-2.27a2.846,2.846,0,0,0-.4-1.665,1.486,1.486,0,0,0-2.323,0,2.871,2.871,0,0,0-.4,1.665v2.5a2.865,2.865,0,0,0,.4,1.671,1.346,1.346,0,0,0,1.166.566,1.324,1.324,0,0,0,1.157-.563,2.9,2.9,0,0,0,.4-1.674Z"/></g></g><g id="_100_000_000" data-name=" 100 000 000" class="cls-3"><g class="cls-3"><path d="M63.041,142.811a1.224,1.224,0,0,0-.375-.9,3.227,3.227,0,0,0-1.23-.668,4.255,4.255,0,0,1-1.788-.955,2.143,2.143,0,0,1-.6-1.594,2.25,2.25,0,0,1,.554-1.576,2.385,2.385,0,0,1,1.526-.732v-1.3h.926v1.3a2.242,2.242,0,0,1,1.526.84,2.992,2.992,0,0,1,.542,1.878H62.971a2.1,2.1,0,0,0-.369-1.289,1.211,1.211,0,0,0-1.026-.492A1.228,1.228,0,0,0,60.2,138.68a1.237,1.237,0,0,0,.355.92,3.47,3.47,0,0,0,1.28.668,4.424,4.424,0,0,1,1.781.963,2.113,2.113,0,0,1,.58,1.568,2.147,2.147,0,0,1-.6,1.6,2.678,2.678,0,0,1-1.658.706v1.125h-.92v-1.119a2.685,2.685,0,0,1-1.653-.735,2.408,2.408,0,0,1-.621-1.849l.012-.029h1.113a1.6,1.6,0,0,0,.454,1.286,1.671,1.671,0,0,0,1.117.384,1.77,1.77,0,0,0,1.18-.36A1.242,1.242,0,0,0,63.041,142.811Z"/><path d="M68.818,145.014H67.664v-7.407l-1.746.024V136.8l2.9-.317Z"/><path d="M77.678,141.762a3.819,3.819,0,0,1-.724,2.5,2.7,2.7,0,0,1-3.975,0,3.788,3.788,0,0,1-.733-2.5V139.74a3.812,3.812,0,0,1,.73-2.5,2.689,2.689,0,0,1,3.972,0,3.812,3.812,0,0,1,.73,2.5Zm-1.155-2.27a2.846,2.846,0,0,0-.4-1.665,1.486,1.486,0,0,0-2.323,0,2.862,2.862,0,0,0-.4,1.665v2.5a2.859,2.859,0,0,0,.405,1.671,1.345,1.345,0,0,0,1.166.566,1.325,1.325,0,0,0,1.157-.563,2.908,2.908,0,0,0,.395-1.674Z"/><path d="M84.439,141.762a3.825,3.825,0,0,1-.723,2.5,2.7,2.7,0,0,1-3.976,0,3.794,3.794,0,0,1-.732-2.5V139.74a3.817,3.817,0,0,1,.729-2.5,2.69,2.69,0,0,1,3.973,0,3.817,3.817,0,0,1,.729,2.5Zm-1.154-2.27a2.854,2.854,0,0,0-.4-1.665,1.486,1.486,0,0,0-2.323,0,2.862,2.862,0,0,0-.4,1.665v2.5a2.867,2.867,0,0,0,.4,1.671,1.347,1.347,0,0,0,1.166.566,1.327,1.327,0,0,0,1.158-.563,2.916,2.916,0,0,0,.395-1.674Z"/><path d="M86.953,144.732l-.879,1.793h-.685l.41-1.851v-.955h1.154Z"/><path d="M93.568,141.762a3.825,3.825,0,0,1-.723,2.5,2.7,2.7,0,0,1-3.976,0,3.794,3.794,0,0,1-.732-2.5V139.74a3.817,3.817,0,0,1,.729-2.5,2.69,2.69,0,0,1,3.973,0,3.817,3.817,0,0,1,.729,2.5Zm-1.154-2.27a2.854,2.854,0,0,0-.4-1.665,1.487,1.487,0,0,0-2.324,0,2.871,2.871,0,0,0-.4,1.665v2.5a2.867,2.867,0,0,0,.4,1.671,1.347,1.347,0,0,0,1.166.566,1.327,1.327,0,0,0,1.158-.563,2.916,2.916,0,0,0,.395-1.674Z"/><path d="M100.33,141.762a3.819,3.819,0,0,1-.724,2.5,2.7,2.7,0,0,1-3.975,0,3.794,3.794,0,0,1-.733-2.5V139.74a3.817,3.817,0,0,1,.73-2.5,2.69,2.69,0,0,1,3.973,0,3.817,3.817,0,0,1,.729,2.5Zm-1.154-2.27a2.846,2.846,0,0,0-.4-1.665,1.486,1.486,0,0,0-2.323,0,2.871,2.871,0,0,0-.4,1.665v2.5a2.867,2.867,0,0,0,.4,1.671,1.346,1.346,0,0,0,1.166.566,1.324,1.324,0,0,0,1.157-.563,2.907,2.907,0,0,0,.4-1.674Z"/><path d="M107.092,141.762a3.819,3.819,0,0,1-.724,2.5,2.7,2.7,0,0,1-3.975,0,3.788,3.788,0,0,1-.733-2.5V139.74a3.812,3.812,0,0,1,.73-2.5,2.689,2.689,0,0,1,3.972,0,3.812,3.812,0,0,1,.73,2.5Zm-1.154-2.27a2.846,2.846,0,0,0-.4-1.665,1.486,1.486,0,0,0-2.323,0,2.862,2.862,0,0,0-.4,1.665v2.5a2.859,2.859,0,0,0,.405,1.671,1.345,1.345,0,0,0,1.166.566,1.325,1.325,0,0,0,1.157-.563,2.907,2.907,0,0,0,.4-1.674Z"/><path d="M109.605,144.732l-.878,1.793h-.686l.41-1.851v-.955h1.154Z"/><path d="M116.221,141.762a3.825,3.825,0,0,1-.724,2.5,2.44,2.44,0,0,1-1.983.87,2.466,2.466,0,0,1-1.993-.873,3.794,3.794,0,0,1-.732-2.5V139.74a3.812,3.812,0,0,1,.73-2.5,2.689,2.689,0,0,1,3.972,0,3.812,3.812,0,0,1,.73,2.5Zm-1.155-2.27a2.846,2.846,0,0,0-.4-1.665,1.486,1.486,0,0,0-2.323,0,2.862,2.862,0,0,0-.4,1.665v2.5a2.859,2.859,0,0,0,.405,1.671,1.345,1.345,0,0,0,1.166.566,1.326,1.326,0,0,0,1.157-.563,2.908,2.908,0,0,0,.395-1.674Z"/><path d="M122.982,141.762a3.825,3.825,0,0,1-.723,2.5,2.7,2.7,0,0,1-3.976,0,3.794,3.794,0,0,1-.732-2.5V139.74a3.817,3.817,0,0,1,.729-2.5,2.69,2.69,0,0,1,3.973,0,3.817,3.817,0,0,1,.729,2.5Zm-1.154-2.27a2.854,2.854,0,0,0-.4-1.665,1.486,1.486,0,0,0-2.323,0,2.862,2.862,0,0,0-.4,1.665v2.5a2.867,2.867,0,0,0,.4,1.671,1.347,1.347,0,0,0,1.166.566,1.327,1.327,0,0,0,1.158-.563,2.916,2.916,0,0,0,.395-1.674Z"/><path d="M129.744,141.762a3.825,3.825,0,0,1-.723,2.5,2.7,2.7,0,0,1-3.976,0,3.794,3.794,0,0,1-.733-2.5V139.74a3.817,3.817,0,0,1,.73-2.5,2.69,2.69,0,0,1,3.973,0,3.817,3.817,0,0,1,.729,2.5Zm-1.154-2.27a2.846,2.846,0,0,0-.4-1.665,1.486,1.486,0,0,0-2.323,0,2.871,2.871,0,0,0-.4,1.665v2.5a2.867,2.867,0,0,0,.4,1.671,1.346,1.346,0,0,0,1.166.566,1.324,1.324,0,0,0,1.157-.563,2.907,2.907,0,0,0,.4-1.674Z"/></g></g><g id="_40_000_000" data-name=" 40 000 000" class="cls-3"><g class="cls-3"><path d="M69.8,224.8a1.224,1.224,0,0,0-.375-.9,3.238,3.238,0,0,0-1.231-.668,4.24,4.24,0,0,1-1.787-.955,2.141,2.141,0,0,1-.6-1.593,2.256,2.256,0,0,1,.553-1.577,2.385,2.385,0,0,1,1.527-.732V217.08h.925v1.3a2.243,2.243,0,0,1,1.527.841,2.988,2.988,0,0,1,.542,1.878H69.732a2.092,2.092,0,0,0-.369-1.289,1.208,1.208,0,0,0-1.025-.493,1.23,1.23,0,0,0-1.377,1.348,1.239,1.239,0,0,0,.354.92,3.485,3.485,0,0,0,1.281.668,4.438,4.438,0,0,1,1.781.964,2.11,2.11,0,0,1,.58,1.567,2.151,2.151,0,0,1-.6,1.6,2.687,2.687,0,0,1-1.659.706v1.125h-.92V227.1a2.691,2.691,0,0,1-1.652-.736,2.4,2.4,0,0,1-.621-1.848l.012-.03h1.113a1.6,1.6,0,0,0,.454,1.286,1.67,1.67,0,0,0,1.116.384,1.771,1.771,0,0,0,1.181-.36A1.24,1.24,0,0,0,69.8,224.8Z"/><path d="M76.893,224.129H78.07v.908H76.893V227H75.744v-1.963H71.912v-.651l3.762-5.917h1.219Zm-3.75,0h2.6v-4l-.035-.006-.111.293Z"/><path d="M84.439,223.748a3.825,3.825,0,0,1-.723,2.5,2.7,2.7,0,0,1-3.976,0,3.794,3.794,0,0,1-.732-2.5v-2.021a3.817,3.817,0,0,1,.729-2.5,2.69,2.69,0,0,1,3.973,0,3.817,3.817,0,0,1,.729,2.5Zm-1.154-2.269a2.857,2.857,0,0,0-.4-1.666,1.486,1.486,0,0,0-2.323,0,2.866,2.866,0,0,0-.4,1.666v2.5a2.863,2.863,0,0,0,.4,1.67,1.347,1.347,0,0,0,1.166.566,1.327,1.327,0,0,0,1.158-.563,2.912,2.912,0,0,0,.395-1.673Z"/><path d="M86.953,226.719l-.879,1.793h-.685l.41-1.852v-.955h1.154Z"/><path d="M93.568,223.748a3.825,3.825,0,0,1-.723,2.5,2.7,2.7,0,0,1-3.976,0,3.794,3.794,0,0,1-.732-2.5v-2.021a3.817,3.817,0,0,1,.729-2.5,2.69,2.69,0,0,1,3.973,0,3.817,3.817,0,0,1,.729,2.5Zm-1.154-2.269a2.857,2.857,0,0,0-.4-1.666,1.487,1.487,0,0,0-2.324,0,2.874,2.874,0,0,0-.4,1.666v2.5a2.863,2.863,0,0,0,.4,1.67,1.347,1.347,0,0,0,1.166.566,1.327,1.327,0,0,0,1.158-.563,2.912,2.912,0,0,0,.395-1.673Z"/><path d="M100.33,223.748a3.819,3.819,0,0,1-.724,2.5,2.7,2.7,0,0,1-3.975,0,3.794,3.794,0,0,1-.733-2.5v-2.021a3.817,3.817,0,0,1,.73-2.5,2.69,2.69,0,0,1,3.973,0,3.817,3.817,0,0,1,.729,2.5Zm-1.154-2.269a2.849,2.849,0,0,0-.4-1.666,1.486,1.486,0,0,0-2.323,0,2.874,2.874,0,0,0-.4,1.666v2.5a2.863,2.863,0,0,0,.4,1.67,1.346,1.346,0,0,0,1.166.566,1.324,1.324,0,0,0,1.157-.563,2.9,2.9,0,0,0,.4-1.673Z"/><path d="M107.092,223.748a3.819,3.819,0,0,1-.724,2.5,2.7,2.7,0,0,1-3.975,0,3.788,3.788,0,0,1-.733-2.5v-2.021a3.812,3.812,0,0,1,.73-2.5,2.689,2.689,0,0,1,3.972,0,3.812,3.812,0,0,1,.73,2.5Zm-1.154-2.269a2.849,2.849,0,0,0-.4-1.666,1.486,1.486,0,0,0-2.323,0,2.866,2.866,0,0,0-.4,1.666v2.5a2.855,2.855,0,0,0,.405,1.67,1.345,1.345,0,0,0,1.166.566,1.325,1.325,0,0,0,1.157-.563,2.9,2.9,0,0,0,.4-1.673Z"/><path d="M109.605,226.719l-.878,1.793h-.686l.41-1.852v-.955h1.154Z"/><path d="M116.221,223.748a3.825,3.825,0,0,1-.724,2.5,2.44,2.44,0,0,1-1.983.87,2.466,2.466,0,0,1-1.993-.873,3.794,3.794,0,0,1-.732-2.5v-2.021a3.812,3.812,0,0,1,.73-2.5,2.689,2.689,0,0,1,3.972,0,3.812,3.812,0,0,1,.73,2.5Zm-1.155-2.269a2.85,2.85,0,0,0-.4-1.666,1.486,1.486,0,0,0-2.323,0,2.866,2.866,0,0,0-.4,1.666v2.5a2.855,2.855,0,0,0,.405,1.67,1.345,1.345,0,0,0,1.166.566,1.326,1.326,0,0,0,1.157-.563,2.9,2.9,0,0,0,.395-1.673Z"/><path d="M122.982,223.748a3.825,3.825,0,0,1-.723,2.5,2.7,2.7,0,0,1-3.976,0,3.794,3.794,0,0,1-.732-2.5v-2.021a3.817,3.817,0,0,1,.729-2.5,2.69,2.69,0,0,1,3.973,0,3.817,3.817,0,0,1,.729,2.5Zm-1.154-2.269a2.857,2.857,0,0,0-.4-1.666,1.486,1.486,0,0,0-2.323,0,2.866,2.866,0,0,0-.4,1.666v2.5a2.863,2.863,0,0,0,.4,1.67,1.347,1.347,0,0,0,1.166.566,1.327,1.327,0,0,0,1.158-.563,2.912,2.912,0,0,0,.395-1.673Z"/><path d="M129.744,223.748a3.825,3.825,0,0,1-.723,2.5,2.7,2.7,0,0,1-3.976,0,3.794,3.794,0,0,1-.733-2.5v-2.021a3.817,3.817,0,0,1,.73-2.5,2.69,2.69,0,0,1,3.973,0,3.817,3.817,0,0,1,.729,2.5Zm-1.154-2.269a2.849,2.849,0,0,0-.4-1.666,1.486,1.486,0,0,0-2.323,0,2.874,2.874,0,0,0-.4,1.666v2.5a2.863,2.863,0,0,0,.4,1.67,1.346,1.346,0,0,0,1.166.566,1.324,1.324,0,0,0,1.157-.563,2.9,2.9,0,0,0,.4-1.673Z"/></g></g><g id="_60_000_000" data-name=" 60 000 000" class="cls-3"><g class="cls-3"><path d="M69.8,197.468a1.224,1.224,0,0,0-.375-.9A3.238,3.238,0,0,0,68.2,195.9a4.24,4.24,0,0,1-1.787-.955,2.142,2.142,0,0,1-.6-1.594,2.255,2.255,0,0,1,.553-1.576,2.385,2.385,0,0,1,1.527-.732v-1.295h.925v1.3a2.243,2.243,0,0,1,1.527.841,2.988,2.988,0,0,1,.542,1.878H69.732a2.1,2.1,0,0,0-.369-1.29,1.209,1.209,0,0,0-1.025-.492,1.23,1.23,0,0,0-1.377,1.348,1.24,1.24,0,0,0,.354.92,3.485,3.485,0,0,0,1.281.668,4.438,4.438,0,0,1,1.781.964,2.109,2.109,0,0,1,.58,1.567,2.151,2.151,0,0,1-.6,1.6,2.692,2.692,0,0,1-1.659.706v1.125h-.92v-1.119a2.691,2.691,0,0,1-1.652-.736,2.4,2.4,0,0,1-.621-1.848l.012-.03h1.113a1.6,1.6,0,0,0,.454,1.286,1.67,1.67,0,0,0,1.116.384,1.771,1.771,0,0,0,1.181-.36A1.24,1.24,0,0,0,69.8,197.468Z"/><path d="M75.545,191.017a3.87,3.87,0,0,1,.87.1,2.915,2.915,0,0,1,.712.252l-.246.885a3.353,3.353,0,0,0-.6-.237,2.637,2.637,0,0,0-.735-.091,1.767,1.767,0,0,0-1.474.732,3.063,3.063,0,0,0-.559,1.91v.135a2.813,2.813,0,0,1,.858-.513,2.891,2.891,0,0,1,1.04-.184,2.281,2.281,0,0,1,1.822.791,2.96,2.96,0,0,1,.68,2,3.176,3.176,0,0,1-.724,2.159,2.425,2.425,0,0,1-1.93.835,2.674,2.674,0,0,1-2.074-.908,3.688,3.688,0,0,1-.821-2.561V194.7a3.837,3.837,0,0,1,.914-2.66A2.924,2.924,0,0,1,75.545,191.017Zm-.393,3.849a1.983,1.983,0,0,0-1.007.24,1.624,1.624,0,0,0-.633.638v.691a2.887,2.887,0,0,0,.5,1.813,1.524,1.524,0,0,0,1.248.638,1.251,1.251,0,0,0,1.1-.6,2.643,2.643,0,0,0,.4-1.489,2.188,2.188,0,0,0-.425-1.387A1.416,1.416,0,0,0,75.152,194.866Z"/><path d="M84.439,196.419a3.825,3.825,0,0,1-.723,2.5,2.7,2.7,0,0,1-3.976,0,3.794,3.794,0,0,1-.732-2.5V194.4a3.816,3.816,0,0,1,.729-2.5,2.69,2.69,0,0,1,3.973,0,3.816,3.816,0,0,1,.729,2.5Zm-1.154-2.27a2.854,2.854,0,0,0-.4-1.665,1.486,1.486,0,0,0-2.323,0,2.862,2.862,0,0,0-.4,1.665v2.5a2.865,2.865,0,0,0,.4,1.671,1.347,1.347,0,0,0,1.166.566,1.327,1.327,0,0,0,1.158-.563,2.913,2.913,0,0,0,.395-1.674Z"/><path d="M86.953,199.39l-.879,1.793h-.685l.41-1.852v-.955h1.154Z"/><path d="M93.568,196.419a3.825,3.825,0,0,1-.723,2.5,2.7,2.7,0,0,1-3.976,0,3.794,3.794,0,0,1-.732-2.5V194.4a3.816,3.816,0,0,1,.729-2.5,2.69,2.69,0,0,1,3.973,0,3.816,3.816,0,0,1,.729,2.5Zm-1.154-2.27a2.854,2.854,0,0,0-.4-1.665,1.487,1.487,0,0,0-2.324,0,2.871,2.871,0,0,0-.4,1.665v2.5a2.865,2.865,0,0,0,.4,1.671,1.347,1.347,0,0,0,1.166.566,1.327,1.327,0,0,0,1.158-.563,2.913,2.913,0,0,0,.395-1.674Z"/><path d="M100.33,196.419a3.819,3.819,0,0,1-.724,2.5,2.7,2.7,0,0,1-3.975,0,3.794,3.794,0,0,1-.733-2.5V194.4a3.816,3.816,0,0,1,.73-2.5,2.69,2.69,0,0,1,3.973,0,3.816,3.816,0,0,1,.729,2.5Zm-1.154-2.27a2.846,2.846,0,0,0-.4-1.665,1.486,1.486,0,0,0-2.323,0,2.871,2.871,0,0,0-.4,1.665v2.5a2.865,2.865,0,0,0,.4,1.671,1.346,1.346,0,0,0,1.166.566,1.324,1.324,0,0,0,1.157-.563,2.9,2.9,0,0,0,.4-1.674Z"/><path d="M107.092,196.419a3.819,3.819,0,0,1-.724,2.5,2.7,2.7,0,0,1-3.975,0,3.788,3.788,0,0,1-.733-2.5V194.4a3.811,3.811,0,0,1,.73-2.5,2.689,2.689,0,0,1,3.972,0,3.811,3.811,0,0,1,.73,2.5Zm-1.154-2.27a2.846,2.846,0,0,0-.4-1.665,1.486,1.486,0,0,0-2.323,0,2.862,2.862,0,0,0-.4,1.665v2.5a2.857,2.857,0,0,0,.405,1.671,1.345,1.345,0,0,0,1.166.566,1.325,1.325,0,0,0,1.157-.563,2.9,2.9,0,0,0,.4-1.674Z"/><path d="M109.605,199.39l-.878,1.793h-.686l.41-1.852v-.955h1.154Z"/><path d="M116.221,196.419a3.825,3.825,0,0,1-.724,2.5,2.44,2.44,0,0,1-1.983.87,2.466,2.466,0,0,1-1.993-.873,3.794,3.794,0,0,1-.732-2.5V194.4a3.811,3.811,0,0,1,.73-2.5,2.689,2.689,0,0,1,3.972,0,3.811,3.811,0,0,1,.73,2.5Zm-1.155-2.27a2.846,2.846,0,0,0-.4-1.665,1.486,1.486,0,0,0-2.323,0,2.862,2.862,0,0,0-.4,1.665v2.5a2.857,2.857,0,0,0,.405,1.671,1.345,1.345,0,0,0,1.166.566,1.326,1.326,0,0,0,1.157-.563,2.905,2.905,0,0,0,.395-1.674Z"/><path d="M122.982,196.419a3.825,3.825,0,0,1-.723,2.5,2.7,2.7,0,0,1-3.976,0,3.794,3.794,0,0,1-.732-2.5V194.4a3.816,3.816,0,0,1,.729-2.5,2.69,2.69,0,0,1,3.973,0,3.816,3.816,0,0,1,.729,2.5Zm-1.154-2.27a2.854,2.854,0,0,0-.4-1.665,1.486,1.486,0,0,0-2.323,0,2.862,2.862,0,0,0-.4,1.665v2.5a2.865,2.865,0,0,0,.4,1.671,1.347,1.347,0,0,0,1.166.566,1.327,1.327,0,0,0,1.158-.563,2.913,2.913,0,0,0,.395-1.674Z"/><path d="M129.744,196.419a3.825,3.825,0,0,1-.723,2.5,2.7,2.7,0,0,1-3.976,0,3.794,3.794,0,0,1-.733-2.5V194.4a3.816,3.816,0,0,1,.73-2.5,2.69,2.69,0,0,1,3.973,0,3.816,3.816,0,0,1,.729,2.5Zm-1.154-2.27a2.846,2.846,0,0,0-.4-1.665,1.486,1.486,0,0,0-2.323,0,2.871,2.871,0,0,0-.4,1.665v2.5a2.865,2.865,0,0,0,.4,1.671,1.346,1.346,0,0,0,1.166.566,1.324,1.324,0,0,0,1.157-.563,2.9,2.9,0,0,0,.4-1.674Z"/></g></g><g id="_20_000_000" data-name=" 20 000 000" class="cls-3"><g class="cls-3"><path d="M69.8,252.125a1.222,1.222,0,0,0-.375-.9,3.224,3.224,0,0,0-1.231-.668,4.251,4.251,0,0,1-1.787-.956,2.141,2.141,0,0,1-.6-1.593,2.252,2.252,0,0,1,.553-1.576,2.381,2.381,0,0,1,1.527-.733v-1.3h.925v1.3a2.243,2.243,0,0,1,1.527.841,2.992,2.992,0,0,1,.542,1.878H69.732a2.092,2.092,0,0,0-.369-1.289,1.21,1.21,0,0,0-1.025-.493,1.23,1.23,0,0,0-1.377,1.348,1.239,1.239,0,0,0,.354.92,3.485,3.485,0,0,0,1.281.668,4.438,4.438,0,0,1,1.781.964,2.11,2.11,0,0,1,.58,1.567,2.151,2.151,0,0,1-.6,1.6,2.687,2.687,0,0,1-1.659.706v1.125h-.92v-1.119a2.691,2.691,0,0,1-1.652-.736,2.4,2.4,0,0,1-.621-1.848l.012-.03h1.113a1.6,1.6,0,0,0,.454,1.287,1.675,1.675,0,0,0,1.116.383,1.771,1.771,0,0,0,1.181-.36A1.24,1.24,0,0,0,69.8,252.125Z"/><path d="M77.812,254.328H72.281v-.8l2.795-3.1a7.881,7.881,0,0,0,1.017-1.33,2.091,2.091,0,0,0,.266-1.008,1.6,1.6,0,0,0-.372-1.075,1.233,1.233,0,0,0-.987-.437,1.694,1.694,0,0,0-1.3.454,1.813,1.813,0,0,0-.419,1.275H72.17l-.012-.036a2.4,2.4,0,0,1,.733-1.851,2.875,2.875,0,0,1,2.109-.75,2.5,2.5,0,0,1,1.831.671,2.292,2.292,0,0,1,.683,1.708,2.733,2.733,0,0,1-.413,1.4,9.013,9.013,0,0,1-1.158,1.5L73.7,253.391l.012.029h4.1Z"/><path d="M84.439,251.076a3.825,3.825,0,0,1-.723,2.5,2.7,2.7,0,0,1-3.976,0,3.794,3.794,0,0,1-.732-2.5v-2.021a3.817,3.817,0,0,1,.729-2.5,2.69,2.69,0,0,1,3.973,0,3.817,3.817,0,0,1,.729,2.5Zm-1.154-2.269a2.852,2.852,0,0,0-.4-1.665,1.485,1.485,0,0,0-2.323,0,2.86,2.86,0,0,0-.4,1.665v2.5a2.867,2.867,0,0,0,.4,1.671,1.349,1.349,0,0,0,1.166.565,1.327,1.327,0,0,0,1.158-.563,2.912,2.912,0,0,0,.395-1.673Z"/><path d="M86.953,254.047l-.879,1.793h-.685l.41-1.852v-.955h1.154Z"/><path d="M93.568,251.076a3.825,3.825,0,0,1-.723,2.5,2.7,2.7,0,0,1-3.976,0,3.794,3.794,0,0,1-.732-2.5v-2.021a3.817,3.817,0,0,1,.729-2.5,2.69,2.69,0,0,1,3.973,0,3.817,3.817,0,0,1,.729,2.5Zm-1.154-2.269a2.852,2.852,0,0,0-.4-1.665,1.486,1.486,0,0,0-2.324,0,2.868,2.868,0,0,0-.4,1.665v2.5a2.867,2.867,0,0,0,.4,1.671,1.349,1.349,0,0,0,1.166.565,1.327,1.327,0,0,0,1.158-.563,2.912,2.912,0,0,0,.395-1.673Z"/><path d="M100.33,251.076a3.819,3.819,0,0,1-.724,2.5,2.7,2.7,0,0,1-3.975,0,3.794,3.794,0,0,1-.733-2.5v-2.021a3.817,3.817,0,0,1,.73-2.5,2.69,2.69,0,0,1,3.973,0,3.817,3.817,0,0,1,.729,2.5Zm-1.154-2.269a2.844,2.844,0,0,0-.4-1.665,1.485,1.485,0,0,0-2.323,0,2.868,2.868,0,0,0-.4,1.665v2.5a2.867,2.867,0,0,0,.4,1.671,1.348,1.348,0,0,0,1.166.565,1.324,1.324,0,0,0,1.157-.563,2.9,2.9,0,0,0,.4-1.673Z"/><path d="M107.092,251.076a3.819,3.819,0,0,1-.724,2.5,2.7,2.7,0,0,1-3.975,0,3.788,3.788,0,0,1-.733-2.5v-2.021a3.812,3.812,0,0,1,.73-2.5,2.689,2.689,0,0,1,3.972,0,3.812,3.812,0,0,1,.73,2.5Zm-1.154-2.269a2.844,2.844,0,0,0-.4-1.665,1.485,1.485,0,0,0-2.323,0,2.86,2.86,0,0,0-.4,1.665v2.5a2.859,2.859,0,0,0,.405,1.671,1.346,1.346,0,0,0,1.166.565,1.325,1.325,0,0,0,1.157-.563,2.9,2.9,0,0,0,.4-1.673Z"/><path d="M109.605,254.047l-.878,1.793h-.686l.41-1.852v-.955h1.154Z"/><path d="M116.221,251.076a3.825,3.825,0,0,1-.724,2.5,2.44,2.44,0,0,1-1.983.87,2.466,2.466,0,0,1-1.993-.873,3.794,3.794,0,0,1-.732-2.5v-2.021a3.812,3.812,0,0,1,.73-2.5,2.689,2.689,0,0,1,3.972,0,3.812,3.812,0,0,1,.73,2.5Zm-1.155-2.269a2.844,2.844,0,0,0-.4-1.665,1.485,1.485,0,0,0-2.323,0,2.86,2.86,0,0,0-.4,1.665v2.5a2.859,2.859,0,0,0,.405,1.671,1.346,1.346,0,0,0,1.166.565,1.326,1.326,0,0,0,1.157-.563,2.9,2.9,0,0,0,.395-1.673Z"/><path d="M122.982,251.076a3.825,3.825,0,0,1-.723,2.5,2.7,2.7,0,0,1-3.976,0,3.794,3.794,0,0,1-.732-2.5v-2.021a3.817,3.817,0,0,1,.729-2.5,2.69,2.69,0,0,1,3.973,0,3.817,3.817,0,0,1,.729,2.5Zm-1.154-2.269a2.852,2.852,0,0,0-.4-1.665,1.485,1.485,0,0,0-2.323,0,2.86,2.86,0,0,0-.4,1.665v2.5a2.867,2.867,0,0,0,.4,1.671,1.349,1.349,0,0,0,1.166.565,1.327,1.327,0,0,0,1.158-.563,2.912,2.912,0,0,0,.395-1.673Z"/><path d="M129.744,251.076a3.825,3.825,0,0,1-.723,2.5,2.7,2.7,0,0,1-3.976,0,3.794,3.794,0,0,1-.733-2.5v-2.021a3.817,3.817,0,0,1,.73-2.5,2.69,2.69,0,0,1,3.973,0,3.817,3.817,0,0,1,.729,2.5Zm-1.154-2.269a2.844,2.844,0,0,0-.4-1.665,1.485,1.485,0,0,0-2.323,0,2.868,2.868,0,0,0-.4,1.665v2.5a2.867,2.867,0,0,0,.4,1.671,1.348,1.348,0,0,0,1.166.565,1.324,1.324,0,0,0,1.157-.563,2.9,2.9,0,0,0,.4-1.673Z"/></g></g><g id="_0" data-name=" 0" class="cls-3"><g class="cls-3"><path d="M129.744,276.776a3.825,3.825,0,0,1-.723,2.5,2.7,2.7,0,0,1-3.976,0,3.794,3.794,0,0,1-.733-2.5v-2.021a3.817,3.817,0,0,1,.73-2.5,2.69,2.69,0,0,1,3.973,0,3.817,3.817,0,0,1,.729,2.5Zm-1.154-2.269a2.846,2.846,0,0,0-.4-1.665,1.485,1.485,0,0,0-2.323,0,2.871,2.871,0,0,0-.4,1.665v2.5a2.867,2.867,0,0,0,.4,1.671,1.345,1.345,0,0,0,1.166.565,1.323,1.323,0,0,0,1.157-.562,2.907,2.907,0,0,0,.4-1.674Z"/></g></g><rect id="Rectangle_204" data-name="Rectangle 204" class="cls-4" x="741" y="138.787" width="23" height="140.242"/><rect id="Rectangle_228" data-name="Rectangle 228" class="cls-6" x="813.889" y="79.5" width="23" height="199.528"/><rect id="Rectangle_228-2" data-name="Rectangle 228" class="cls-7" x="813.889" y="177.5" width="23" height="101.528"/><rect id="Rectangle_228-3" data-name="Rectangle 228" class="cls-7" x="777.444" y="107.5" width="23" height="171.528"/><rect id="Rectangle_205" data-name="Rectangle 205" class="cls-4" x="704.556" y="154.833" width="23" height="124.195"/><rect id="Rectangle_680" data-name="Rectangle 680" class="cls-4" x="668.111" y="222" width="23" height="57.028"/><rect id="Rectangle_206" data-name="Rectangle 206" class="cls-4" x="631.667" y="237" width="23" height="42.028"/><rect id="Rectangle_207" data-name="Rectangle 207" class="cls-4" x="595.222" y="261.5" width="23" height="17.528"/><rect id="Rectangle_210" data-name="Rectangle 210" class="cls-4" x="303.667" y="270.833" width="23" height="8.195"/><rect id="Rectangle_677" data-name="Rectangle 677" class="cls-4" x="267.222" y="271.667" width="23" height="7.362"/><path id="Path_540" data-name="Path 540" class="cls-4" d="M157.889,278.368h23v.66h-23Z"/><path id="Path_541" data-name="Path 541" class="cls-4" d="M194.333,278.368h23v.66h-23Z"/><path id="Path_542" data-name="Path 542" class="cls-4" d="M230.778,277.5h23v1.528h-23Z"/><rect id="Rectangle_212" data-name="Rectangle 212" class="cls-4" x="340.111" y="270.167" width="23" height="8.862"/><rect id="Rectangle_678" data-name="Rectangle 678" class="cls-4" x="413" y="266.75" width="23" height="12.278"/><rect id="Rectangle_214" data-name="Rectangle 214" class="cls-4" x="449.444" y="262.5" width="23" height="16.528"/><rect id="Rectangle_679" data-name="Rectangle 679" class="cls-4" x="485.889" y="264.167" width="23" height="14.862"/><rect id="Rectangle_215" data-name="Rectangle 215" class="cls-4" x="376.556" y="263.167" width="23" height="15.862"/><rect id="Rectangle_216" data-name="Rectangle 216" class="cls-4" x="558.778" y="263.333" width="23" height="15.695"/><rect id="Rectangle_217" data-name="Rectangle 217" class="cls-4" x="522.333" y="265" width="23" height="14.028"/><g id="projected" class="cls-3"><g class="cls-3"><path class="cls-1" d="M826.283,157.784a4.069,4.069,0,0,1,2.58.766,2.529,2.529,0,0,1,.982,2.112,2.908,2.908,0,0,1-.23,1.2,2.287,2.287,0,0,1-.686.879h3.616v1.347h-10.24v-1.032l.957-.212a2.431,2.431,0,0,1-.814-.9,2.7,2.7,0,0,1-.28-1.257,2.457,2.457,0,0,1,1.09-2.136,4.927,4.927,0,0,1,2.882-.763Zm-.147,1.347a3.893,3.893,0,0,0-2.065.5,1.6,1.6,0,0,0-.809,1.459,1.808,1.808,0,0,0,.262.991,1.965,1.965,0,0,0,.721.663h3.57a1.9,1.9,0,0,0,.714-.663,1.857,1.857,0,0,0,.256-1,1.657,1.657,0,0,0-.7-1.449,3.069,3.069,0,0,0-1.806-.492Z"/><path class="cls-1" d="M823.494,152.63l-.041.69a1.537,1.537,0,0,0,.253.9,1.626,1.626,0,0,0,.711.564H829.7v1.347h-7.4v-1.2l1.08-.13a2.566,2.566,0,0,1-.9-.776,1.816,1.816,0,0,1-.321-1.063,1.756,1.756,0,0,1,.023-.287,2.179,2.179,0,0,1,.052-.226Z"/><path class="cls-1" d="M825.935,151.782a4.078,4.078,0,0,1-2.7-.888,3.294,3.294,0,0,1,0-4.843,4.051,4.051,0,0,1,2.707-.893h.15a4.055,4.055,0,0,1,2.707.889,3.309,3.309,0,0,1,0,4.844,4.055,4.055,0,0,1-2.7.891Zm.146-1.346a3.491,3.491,0,0,0,1.94-.5,1.791,1.791,0,0,0,0-2.935,3.491,3.491,0,0,0-1.94-.5h-.149a3.465,3.465,0,0,0-1.933.5,1.644,1.644,0,0,0-.771,1.472,1.621,1.621,0,0,0,.771,1.459,3.5,3.5,0,0,0,1.933.5Z"/><path class="cls-1" d="M820.384,142v1.347h-1.347V142Zm1.921-.041h8a2.453,2.453,0,0,1,1.76.588,2.147,2.147,0,0,1,.618,1.634,2.263,2.263,0,0,1-.03.385,3.074,3.074,0,0,1-.093.373l-1.059-.095a1.507,1.507,0,0,0,.058-.274,2.276,2.276,0,0,0,.024-.294.9.9,0,0,0-.3-.708,1.478,1.478,0,0,0-.977-.262h-8Z"/><path class="cls-1" d="M829.845,136.818a3.117,3.117,0,0,1-1.029,2.457,3.867,3.867,0,0,1-2.67.913h-.3a3.793,3.793,0,0,1-2.629-.94,2.894,2.894,0,0,1-1.049-2.225,2.8,2.8,0,0,1,.9-2.262,3.594,3.594,0,0,1,2.407-.766h.84v4.8l.035.02a2.9,2.9,0,0,0,1.748-.54,1.72,1.72,0,0,0,.685-1.456,3.361,3.361,0,0,0-.195-1.2,2.739,2.739,0,0,0-.536-.892l.876-.527a3.124,3.124,0,0,1,.653,1.046A4.2,4.2,0,0,1,829.845,136.818Zm-6.617.2a1.46,1.46,0,0,0,.569,1.156,2.7,2.7,0,0,0,1.427.588l.034-.014v-3.411h-.177a2.045,2.045,0,0,0-1.322.424A1.509,1.509,0,0,0,823.228,137.023Z"/><path class="cls-1" d="M828.785,129.477a1.815,1.815,0,0,0-.414-1.18,1.261,1.261,0,0,0-1.015-.509v-1.21l.041-.014a2.083,2.083,0,0,1,1.7.852,3.1,3.1,0,0,1,.745,2.061,2.99,2.99,0,0,1-1.053,2.467,4.062,4.062,0,0,1-2.646.855h-.287a4.039,4.039,0,0,1-2.634-.858,3.366,3.366,0,0,1-.291-4.587,2.376,2.376,0,0,1,1.879-.8l.041.013v1.217a1.558,1.558,0,0,0-1.151.479,1.643,1.643,0,0,0-.475,1.21,1.618,1.618,0,0,0,.761,1.513,3.572,3.572,0,0,0,1.867.455h.287a3.621,3.621,0,0,0,1.887-.451A1.624,1.624,0,0,0,828.785,129.477Z"/><path class="cls-1" d="M820.521,123.276h1.784v-1.4h1v1.4h4.491a1,1,0,0,0,.731-.215.775.775,0,0,0,.212-.571,1.275,1.275,0,0,0-.027-.256,1.723,1.723,0,0,0-.068-.25l.922-.177a1.171,1.171,0,0,1,.2.441,2.245,2.245,0,0,1,.079.584,1.746,1.746,0,0,1-.5,1.306,2.159,2.159,0,0,1-1.556.485H823.3V125.8h-1v-1.176h-1.784Z"/><path class="cls-1" d="M829.845,117.145a3.12,3.12,0,0,1-1.029,2.457,3.871,3.871,0,0,1-2.67.913h-.3a3.794,3.794,0,0,1-2.629-.941,2.893,2.893,0,0,1-1.049-2.224,2.8,2.8,0,0,1,.9-2.263,3.594,3.594,0,0,1,2.407-.766h.84v4.8l.035.021a2.911,2.911,0,0,0,1.748-.54,1.721,1.721,0,0,0,.685-1.456,3.363,3.363,0,0,0-.195-1.2,2.75,2.75,0,0,0-.536-.892l.876-.527a3.134,3.134,0,0,1,.653,1.046A4.2,4.2,0,0,1,829.845,117.145Zm-6.617.2a1.458,1.458,0,0,0,.569,1.155,2.687,2.687,0,0,0,1.427.588l.034-.014v-3.411h-.177a2.05,2.05,0,0,0-1.322.424A1.51,1.51,0,0,0,823.228,117.35Z"/><path class="cls-1" d="M826.14,113.118a4.928,4.928,0,0,1-2.878-.763,2.451,2.451,0,0,1-1.094-2.135,2.653,2.653,0,0,1,.239-1.152,2.35,2.35,0,0,1,.7-.858h-4.067v-1.347H829.7v1.1l-.909.157a2.39,2.39,0,0,1,.786.889,2.67,2.67,0,0,1,.267,1.223,2.538,2.538,0,0,1-.982,2.12,4.074,4.074,0,0,1-2.58.765Zm.143-1.347a3.138,3.138,0,0,0,1.795-.458,1.6,1.6,0,0,0,.673-1.421,1.784,1.784,0,0,0-.273-1.012,2.043,2.043,0,0,0-.766-.67H824.26a2.074,2.074,0,0,0-.729.673,1.787,1.787,0,0,0-.269,1,1.541,1.541,0,0,0,.8,1.433,4.143,4.143,0,0,0,2.078.46Z"/></g></g></svg>