<svg id="Layer_1" data-name="Layer 1" xmlns="http://www.w3.org/2000/svg" viewBox="0 0 900 400"><defs><style>.cls-1{fill:#fff}.cls-2,.cls-5{fill:none}.cls-2{stroke:#95989a}.cls-3,.cls-6,.cls-7{isolation:isolate}.cls-4,.cls-6,.cls-7{fill:#2a3052}.cls-5{stroke:#dedede;stroke-width:2px}.cls-6{opacity:.6}</style></defs><title>cw-chart</title><g id="Rectangle_202" data-name="Rectangle 202"><path class="cls-1" d="M0 0h900v400H0z"/><path class="cls-2" d="M.5.5h899v399H.5z"/></g><g id="Number_of_transactions_on_binary.com" data-name="Number of transactions on binary.com" class="cls-3"><g class="cls-3"><path class="cls-4" d="M406.81 339.5a2.58 2.58 0 0 1-.85 2 3.22 3.22 0 0 1-2.29.81 3 3 0 0 1-2.36-1 3.8 3.8 0 0 1-.91-2.6v-1.52a3.8 3.8 0 0 1 .91-2.6 3 3 0 0 1 2.36-1 3.27 3.27 0 0 1 2.3.77 2.56 2.56 0 0 1 .84 2h-1.1a1.89 1.89 0 0 0-.53-1.41 2 2 0 0 0-1.49-.52 1.81 1.81 0 0 0-1.54.77 3.21 3.21 0 0 0-.57 1.94v1.52a3.22 3.22 0 0 0 .57 1.95 1.82 1.82 0 0 0 1.54.78 2.06 2.06 0 0 0 1.49-.52 2 2 0 0 0 .53-1.44zm2.61 2.74h-1.16v-9.14h1.16zm3.02-7.96h-1.15v-1.18h1.15zm0 8h-1.15v-6.38h1.15zm4.41.08a2.66 2.66 0 0 1-2.11-.88 3.33 3.33 0 0 1-.78-2.29v-.25a3.29 3.29 0 0 1 .8-2.26 2.5 2.5 0 0 1 1.91-.9 2.39 2.39 0 0 1 1.94.78 3.05 3.05 0 0 1 .66 2.06v.72h-4.12a2.53 2.53 0 0 0 .47 1.5 1.47 1.47 0 0 0 1.25.59 2.87 2.87 0 0 0 1-.17 2.46 2.46 0 0 0 .77-.46l.45.75a2.82 2.82 0 0 1-.9.56 3.58 3.58 0 0 1-1.34.25zm-.18-5.67a1.23 1.23 0 0 0-1 .49 2.28 2.28 0 0 0-.5 1.22h2.92v-.15a1.76 1.76 0 0 0-.36-1.13 1.28 1.28 0 0 0-1.06-.43zm4.92-.79l.08.94a2.38 2.38 0 0 1 .8-.78 2.17 2.17 0 0 1 1.08-.28 2.06 2.06 0 0 1 1.59.6 2.64 2.64 0 0 1 .57 1.86v4h-1.16v-4a1.73 1.73 0 0 0-.33-1.19 1.34 1.34 0 0 0-1-.35 1.61 1.61 0 0 0-.88.24 1.79 1.79 0 0 0-.62.66v4.62h-1.15v-6.32zm7.31-1.53v1.53h1.21v.86h-1.21v3.85a.87.87 0 0 0 .19.62.68.68 0 0 0 .49.19h.22a.65.65 0 0 0 .21-.06l.15.79a1.06 1.06 0 0 1-.37.18 2.2 2.2 0 0 1-.5.06 1.49 1.49 0 0 1-1.12-.42 1.83 1.83 0 0 1-.42-1.33v-3.85h-1v-.86h1v-1.53zm7.54 4.92l.16 1.06.23-1.07 1.57-5.58h1l1.57 5.58.24 1.09.17-1.09 1.27-5.58h1.16l-2.06 8.53h-1l-1.68-5.92-.16-.76-.15.76-1.71 5.92h-1l-2.05-8.52h1.15zm9.92-5.01h-1.15v-1.18h1.15zm0 8h-1.15v-6.38h1.15zm3.3-7.91v1.53h1.2v.86h-1.2v3.85a.87.87 0 0 0 .18.62.7.7 0 0 0 .49.19h.22a.79.79 0 0 0 .22-.06l.15.79a1.12 1.12 0 0 1-.38.18 2.14 2.14 0 0 1-.5.06 1.51 1.51 0 0 1-1.12-.42 1.83 1.83 0 0 1-.42-1.33v-3.85h-1v-.86h1v-1.53zm3.78 2.38a2.36 2.36 0 0 1 .8-.71 2.22 2.22 0 0 1 1.06-.26 2.07 2.07 0 0 1 1.58.61 2.68 2.68 0 0 1 .57 1.88v4h-1.16v-4a1.66 1.66 0 0 0-.34-1.16 1.27 1.27 0 0 0-1-.38 1.71 1.71 0 0 0-.87.23 1.87 1.87 0 0 0-.64.61v4.68h-1.16v-9.15h1.16zm5.4 2.44a4.29 4.29 0 0 1 .65-2.47 2.13 2.13 0 0 1 1.83-.94 2.22 2.22 0 0 1 1 .21 2.13 2.13 0 0 1 .74.6v-3.49h1.15v9.14h-.94l-.14-.78a2.06 2.06 0 0 1-.76.68 2.32 2.32 0 0 1-1.05.22 2.16 2.16 0 0 1-1.81-.84 3.46 3.46 0 0 1-.66-2.21zm1.15.12a2.65 2.65 0 0 0 .4 1.54 1.37 1.37 0 0 0 1.22.58 1.48 1.48 0 0 0 .86-.24 1.67 1.67 0 0 0 .58-.65v-3a1.85 1.85 0 0 0-.58-.63 1.56 1.56 0 0 0-.85-.23 1.31 1.31 0 0 0-1.23.69 3.55 3.55 0 0 0-.4 1.78zm8.93-2.39h-.59a1.36 1.36 0 0 0-.77.21 1.4 1.4 0 0 0-.48.61v4.53h-1.16v-6.37h1l.11.93a2.19 2.19 0 0 1 .66-.77 1.6 1.6 0 0 1 .91-.28h.25l.19.05zm5.01 5.32q-.06-.28-.09-.51v-.44a2.6 2.6 0 0 1-.84.77 2.15 2.15 0 0 1-1.11.3 2.06 2.06 0 0 1-1.51-.5 1.86 1.86 0 0 1-.52-1.4 1.63 1.63 0 0 1 .74-1.42 3.43 3.43 0 0 1 2-.51h1.25v-.63a1.14 1.14 0 0 0-.34-.88 1.3 1.3 0 0 0-1-.33 1.37 1.37 0 0 0-.9.29.85.85 0 0 0-.35.68h-1.1a1.5 1.5 0 0 1 .65-1.26 2.7 2.7 0 0 1 1.78-.58 2.62 2.62 0 0 1 1.73.55 1.94 1.94 0 0 1 .66 1.58v3.66a4.26 4.26 0 0 0 .13.62zm-1.91-.85a2.1 2.1 0 0 0 1.13-.32 1.51 1.51 0 0 0 .65-.74v-1h-1.29a1.65 1.65 0 0 0-1.12.35 1 1 0 0 0-.42.82.87.87 0 0 0 .27.67 1.1 1.1 0 0 0 .76.22zm6.24-1.46l.13.77.16-.77 1.27-4h.92l1.27 4 .19.86.17-.86 1-4h1.15l-1.84 6.34h-.94l-1.22-3.86-.26-1.08-.25 1.07-1.21 3.86h-.93l-1.84-6.34h1.15zm11.35 2.31q-.06-.28-.09-.51v-.44a2.6 2.6 0 0 1-.84.77 2.15 2.15 0 0 1-1.11.3 2.06 2.06 0 0 1-1.51-.5 1.86 1.86 0 0 1-.52-1.4 1.63 1.63 0 0 1 .74-1.42 3.43 3.43 0 0 1 2-.51h1.25v-.63a1.14 1.14 0 0 0-.34-.88 1.3 1.3 0 0 0-1-.33 1.37 1.37 0 0 0-.9.29.85.85 0 0 0-.35.68h-1.1a1.5 1.5 0 0 1 .65-1.26 2.7 2.7 0 0 1 1.78-.58 2.64 2.64 0 0 1 1.73.55 1.94 1.94 0 0 1 .66 1.58v3.66a4.26 4.26 0 0 0 .13.62zm-1.91-.85a2.1 2.1 0 0 0 1.13-.32 1.51 1.51 0 0 0 .65-.74v-1h-1.29a1.65 1.65 0 0 0-1.12.35 1 1 0 0 0-.42.82.87.87 0 0 0 .27.67 1.1 1.1 0 0 0 .78.22zm5.86.85h-1.15v-9.14h1.15zm5.44-1.69a.75.75 0 0 0-.29-.62 2.61 2.61 0 0 0-1.1-.43 4.82 4.82 0 0 1-1.73-.68 1.39 1.39 0 0 1-.59-1.18 1.64 1.64 0 0 1 .66-1.31 2.62 2.62 0 0 1 1.71-.55 2.57 2.57 0 0 1 1.76.57 1.68 1.68 0 0 1 .63 1.39H499a1 1 0 0 0-.35-.75 1.28 1.28 0 0 0-.92-.33 1.32 1.32 0 0 0-.91.27.85.85 0 0 0-.3.65.73.73 0 0 0 .26.59 2.66 2.66 0 0 0 1.07.39 4.62 4.62 0 0 1 1.79.7 1.42 1.42 0 0 1 .59 1.19 1.63 1.63 0 0 1-.68 1.36 2.86 2.86 0 0 1-1.79.52 2.79 2.79 0 0 1-1.91-.61 1.78 1.78 0 0 1-.66-1.44h1.1a1 1 0 0 0 .46.89 1.76 1.76 0 0 0 1 .29 1.66 1.66 0 0 0 1-.25.77.77 0 0 0 .25-.66zm5.53-1.77a7.88 7.88 0 0 1 .93-3.95 5.42 5.42 0 0 1 2-2.17l.22.68a5 5 0 0 0-1.4 2 8.6 8.6 0 0 0-.59 3.42v.07a8.6 8.6 0 0 0 .59 3.42 5.36 5.36 0 0 0 1.4 2.06l-.22.63a5.35 5.35 0 0 1-2-2.17 7.88 7.88 0 0 1-.93-3.95zm10.47-5.07v5.78a2.63 2.63 0 0 1-.91 2.14 3.62 3.62 0 0 1-2.36.73 3.41 3.41 0 0 1-2.29-.74 2.63 2.63 0 0 1-.87-2.13v-5.78h1.15v5.78a1.93 1.93 0 0 0 .55 1.47 2.1 2.1 0 0 0 1.46.5 2.29 2.29 0 0 0 1.53-.5 1.84 1.84 0 0 0 .58-1.47v-5.78zm6.56 6.38a1.26 1.26 0 0 0-.44-1 3.59 3.59 0 0 0-1.56-.66 5.18 5.18 0 0 1-2.11-1 1.94 1.94 0 0 1-.76-1.58 2 2 0 0 1 .82-1.66 3.2 3.2 0 0 1 2.11-.67 3.14 3.14 0 0 1 2.23.76 2.26 2.26 0 0 1 .8 1.79h-1.1a1.58 1.58 0 0 0-.49-1.21 2.47 2.47 0 0 0-2.75-.08 1.29 1.29 0 0 0-.46 1 1.13 1.13 0 0 0 .5.93 4.52 4.52 0 0 0 1.62.65 4.62 4.62 0 0 1 2 1 2.09 2.09 0 0 1 .7 1.61 2 2 0 0 1-.84 1.66 3.58 3.58 0 0 1-2.2.62 3.81 3.81 0 0 1-2.26-.69 2.07 2.07 0 0 1-.95-1.85h1.1a1.44 1.44 0 0 0 .6 1.25 2.56 2.56 0 0 0 1.5.43 2.35 2.35 0 0 0 1.38-.37 1.18 1.18 0 0 0 .56-.93zm2.83 2.15v-8.53H527a3.52 3.52 0 0 1 3.71 3.69v1.16a3.5 3.5 0 0 1-3.71 3.68zm1.16-7.62v6.71H527a2.37 2.37 0 0 0 1.87-.78 2.91 2.91 0 0 0 .68-2v-1.18a2.92 2.92 0 0 0-.68-2 2.37 2.37 0 0 0-1.87-.78zm8.88 4.21a7.88 7.88 0 0 1-.94 3.95 5.34 5.34 0 0 1-2 2.17l-.22-.63a4.94 4.94 0 0 0 1.39-2 8.83 8.83 0 0 0 .6-3.46v-.07a8.36 8.36 0 0 0-.62-3.42 5.62 5.62 0 0 0-1.37-2.06l.22-.63a5.41 5.41 0 0 1 2 2.17 7.88 7.88 0 0 1 .94 3.95z"/></g></g><path id="Rectangle_203" data-name="Rectangle 203" class="cls-4" d="M364.73 332.53h26v13h-26z"/><path id="Line_63" data-name="Line 63" class="cls-5" d="M144.23 59.53h694.32"/><path id="Line_169" data-name="Line 169" class="cls-5" d="M144.23 87.03h694.32"/><path id="Line_170" data-name="Line 170" class="cls-5" d="M144.23 114.53h694.32"/><path id="Line_171" data-name="Line 171" class="cls-5" d="M144.23 142.03h694.32"/><path id="Line_172" data-name="Line 172" class="cls-5" d="M144.23 169.53h694.32"/><path id="Line_64" data-name="Line 64" class="cls-5" d="M144.23 197.03h694.32"/><path id="Line_65" data-name="Line 65" class="cls-5" d="M144.23 224.53h694.32"/><path id="Line_66" data-name="Line 66" class="cls-5" d="M144.23 252.03h694.32"/><path id="Line_67" data-name="Line 67" class="cls-5" d="M144.23 279.53h694.32"/><g id="_160_000_000" data-name="160 000 000" class="cls-3"><path d="M65.45 63h-1.16v-7.38h-1.74v-.84l2.9-.31zm6.72-8.63a4.3 4.3 0 0 1 .87.1 2.78 2.78 0 0 1 .71.26l-.25.88a3.13 3.13 0 0 0-.6-.24 2.65 2.65 0 0 0-.73-.09 1.81 1.81 0 0 0-1.48.73 3.09 3.09 0 0 0-.56 1.91v.14a2.92 2.92 0 0 1 1.9-.7 2.3 2.3 0 0 1 1.82.79 3 3 0 0 1 .68 2 3.2 3.2 0 0 1-.72 2.16 2.45 2.45 0 0 1-1.93.83 2.64 2.64 0 0 1-2.07-.91 3.66 3.66 0 0 1-.81-2.55v-1.63a3.84 3.84 0 0 1 .91-2.66 2.92 2.92 0 0 1 2.26-1.02zm-.4 3.85a2 2 0 0 0-1 .24 1.71 1.71 0 0 0-.64.64v.69a2.92 2.92 0 0 0 .5 1.82 1.53 1.53 0 0 0 1.25.63 1.24 1.24 0 0 0 1.1-.6 2.59 2.59 0 0 0 .4-1.49 2.18 2.18 0 0 0-.38-1.38 1.44 1.44 0 0 0-1.23-.55zm9.29 1.56a3.82 3.82 0 0 1-.72 2.5 2.71 2.71 0 0 1-4 0 3.78 3.78 0 0 1-.73-2.5v-2a3.78 3.78 0 0 1 .73-2.5 2.68 2.68 0 0 1 4 0 3.78 3.78 0 0 1 .73 2.5zm-1.15-2.27a2.92 2.92 0 0 0-.4-1.67 1.36 1.36 0 0 0-1.17-.56 1.34 1.34 0 0 0-1.16.56 2.92 2.92 0 0 0-.4 1.67V60a2.88 2.88 0 0 0 .41 1.67 1.36 1.36 0 0 0 1.16.56 1.31 1.31 0 0 0 1.16-.56 2.84 2.84 0 0 0 .4-1.67zm3.67 5.24l-.88 1.79H82l.41-1.85v-1h1.16zm6.61-2.97a3.82 3.82 0 0 1-.72 2.5 2.71 2.71 0 0 1-4 0 3.78 3.78 0 0 1-.73-2.5v-2a3.78 3.78 0 0 1 .73-2.5 2.68 2.68 0 0 1 4 0 3.78 3.78 0 0 1 .73 2.5zM89 57.51a2.83 2.83 0 0 0-.41-1.67 1.48 1.48 0 0 0-2.32 0 2.92 2.92 0 0 0-.4 1.67V60a2.88 2.88 0 0 0 .41 1.67 1.36 1.36 0 0 0 1.16.56 1.31 1.31 0 0 0 1.16-.56A2.92 2.92 0 0 0 89 60zm8 2.27a3.82 3.82 0 0 1-.72 2.5 2.44 2.44 0 0 1-2 .87 2.49 2.49 0 0 1-2-.87 3.78 3.78 0 0 1-.73-2.5v-2a3.78 3.78 0 0 1 .73-2.5 2.68 2.68 0 0 1 4 0 3.78 3.78 0 0 1 .73 2.5zm-1.2-2.27a2.92 2.92 0 0 0-.4-1.67 1.49 1.49 0 0 0-2.33 0 2.92 2.92 0 0 0-.4 1.67V60a2.88 2.88 0 0 0 .41 1.67 1.36 1.36 0 0 0 1.17.56 1.3 1.3 0 0 0 1.15-.56 2.84 2.84 0 0 0 .4-1.67zm7.91 2.27a3.82 3.82 0 0 1-.72 2.5 2.43 2.43 0 0 1-2 .87 2.49 2.49 0 0 1-2-.87 3.84 3.84 0 0 1-.73-2.5v-2a3.84 3.84 0 0 1 .73-2.5 2.68 2.68 0 0 1 4 0 3.78 3.78 0 0 1 .73 2.5zm-1.15-2.27a2.84 2.84 0 0 0-.4-1.67 1.49 1.49 0 0 0-2.33 0 2.92 2.92 0 0 0-.39 1.67V60a2.88 2.88 0 0 0 .4 1.67 1.36 1.36 0 0 0 1.17.56 1.3 1.3 0 0 0 1.15-.56 2.84 2.84 0 0 0 .4-1.67zm3.67 5.24l-.88 1.79h-.69l.41-1.85v-1h1.16zm6.61-2.97a3.82 3.82 0 0 1-.72 2.5 2.43 2.43 0 0 1-2 .87 2.49 2.49 0 0 1-2-.87 3.84 3.84 0 0 1-.73-2.5v-2a3.78 3.78 0 0 1 .73-2.5 2.68 2.68 0 0 1 4 0 3.78 3.78 0 0 1 .73 2.5zm-1.15-2.27a2.92 2.92 0 0 0-.4-1.67 1.49 1.49 0 0 0-2.33 0 2.92 2.92 0 0 0-.39 1.67V60a2.88 2.88 0 0 0 .4 1.67 1.36 1.36 0 0 0 1.17.56 1.3 1.3 0 0 0 1.15-.56 2.84 2.84 0 0 0 .4-1.67zm7.91 2.27a3.82 3.82 0 0 1-.72 2.5 2.7 2.7 0 0 1-4 0 3.79 3.79 0 0 1-.74-2.5v-2a3.84 3.84 0 0 1 .73-2.5 2.69 2.69 0 0 1 4 0 3.84 3.84 0 0 1 .72 2.5zm-1.15-2.27a2.84 2.84 0 0 0-.4-1.67 1.36 1.36 0 0 0-1.16-.56 1.33 1.33 0 0 0-1.16.56 2.84 2.84 0 0 0-.4 1.67V60a2.88 2.88 0 0 0 .4 1.67 1.36 1.36 0 0 0 1.17.56 1.29 1.29 0 0 0 1.15-.56 2.84 2.84 0 0 0 .4-1.67zm7.92 2.27a3.82 3.82 0 0 1-.73 2.5 2.43 2.43 0 0 1-2 .87 2.47 2.47 0 0 1-2-.87 3.79 3.79 0 0 1-.74-2.5v-2a3.84 3.84 0 0 1 .73-2.5 2.69 2.69 0 0 1 4 0 3.84 3.84 0 0 1 .73 2.5zm-1.16-2.27a2.84 2.84 0 0 0-.4-1.67 1.48 1.48 0 0 0-2.32 0 2.84 2.84 0 0 0-.4 1.67V60a2.88 2.88 0 0 0 .4 1.67 1.36 1.36 0 0 0 1.17.56 1.32 1.32 0 0 0 1.16-.56 2.92 2.92 0 0 0 .39-1.67z" class="cls-3"/></g><g id="_2007" data-name="2007" class="cls-3"><path d="M415.16 298h-5.53v-.8l2.79-3.1a8 8 0 0 0 1-1.33 2.07 2.07 0 0 0 .27-1 1.59 1.59 0 0 0-.38-1.07 1.23 1.23 0 0 0-1-.44 1.68 1.68 0 0 0-1.31.46 1.79 1.79 0 0 0-.42 1.27h-1.1a2.41 2.41 0 0 1 .74-1.86 2.86 2.86 0 0 1 2.11-.75 2.54 2.54 0 0 1 1.83.67 2.32 2.32 0 0 1 .68 1.71 2.78 2.78 0 0 1-.41 1.4 8.71 8.71 0 0 1-1.16 1.5l-2.27 2.43h4.1zm6.63-3.22a3.82 3.82 0 0 1-.73 2.5 2.7 2.7 0 0 1-4 0 3.79 3.79 0 0 1-.74-2.5v-2a3.84 3.84 0 0 1 .73-2.5 2.47 2.47 0 0 1 2-.88 2.44 2.44 0 0 1 2 .88 3.79 3.79 0 0 1 .74 2.5zm-1.16-2.27a2.84 2.84 0 0 0-.4-1.67 1.36 1.36 0 0 0-1.16-.56 1.33 1.33 0 0 0-1.16.56 2.84 2.84 0 0 0-.4 1.67V295a2.88 2.88 0 0 0 .4 1.67 1.36 1.36 0 0 0 1.17.56 1.29 1.29 0 0 0 1.15-.56 2.84 2.84 0 0 0 .4-1.67zm7.92 2.27a3.82 3.82 0 0 1-.73 2.5 2.43 2.43 0 0 1-2 .87 2.47 2.47 0 0 1-2-.87 3.78 3.78 0 0 1-.73-2.5v-2a3.84 3.84 0 0 1 .72-2.5 2.69 2.69 0 0 1 4 0 3.84 3.84 0 0 1 .73 2.5zm-1.16-2.27a2.84 2.84 0 0 0-.4-1.67 1.48 1.48 0 0 0-2.32 0 2.84 2.84 0 0 0-.4 1.67V295a2.88 2.88 0 0 0 .4 1.67 1.36 1.36 0 0 0 1.17.56 1.32 1.32 0 0 0 1.16-.56 2.92 2.92 0 0 0 .39-1.67zm8.05-2.1a11.87 11.87 0 0 0-2.09 3.26 14.49 14.49 0 0 0-.78 3.44l-.1.92h-1.15l.09-.92a12.48 12.48 0 0 1 1-3.61 13.79 13.79 0 0 1 1.94-3.09h-4.64v-.91h5.77z" class="cls-3"/></g><g id="_2003" data-name="2003" class="cls-3"><path d="M269.38 298h-5.53v-.8l2.79-3.1a8 8 0 0 0 1-1.33 2.07 2.07 0 0 0 .27-1 1.64 1.64 0 0 0-.37-1.07 1.25 1.25 0 0 0-1-.44 1.68 1.68 0 0 0-1.31.46 1.83 1.83 0 0 0-.41 1.27h-1.11a2.4 2.4 0 0 1 .73-1.86 2.88 2.88 0 0 1 2.11-.75 2.54 2.54 0 0 1 1.83.67 2.32 2.32 0 0 1 .68 1.71 2.78 2.78 0 0 1-.41 1.4 8.71 8.71 0 0 1-1.16 1.5l-2.24 2.44h4.1zm6.62-3.22a3.77 3.77 0 0 1-.73 2.5 2.43 2.43 0 0 1-2 .87 2.47 2.47 0 0 1-2-.87 3.78 3.78 0 0 1-.73-2.5v-2a3.78 3.78 0 0 1 .73-2.5 2.44 2.44 0 0 1 2-.88 2.47 2.47 0 0 1 2 .88 3.84 3.84 0 0 1 .73 2.5zm-1.16-2.27a2.84 2.84 0 0 0-.4-1.67 1.48 1.48 0 0 0-2.32 0 2.84 2.84 0 0 0-.4 1.67V295a3 3 0 0 0 .4 1.67 1.36 1.36 0 0 0 1.17.56 1.32 1.32 0 0 0 1.16-.56 2.92 2.92 0 0 0 .39-1.67zm7.93 2.27a3.82 3.82 0 0 1-.72 2.5 2.71 2.71 0 0 1-4 0 3.78 3.78 0 0 1-.73-2.5v-2a3.78 3.78 0 0 1 .73-2.5 2.44 2.44 0 0 1 2-.88 2.47 2.47 0 0 1 2 .88 3.78 3.78 0 0 1 .73 2.5zm-1.15-2.27a2.83 2.83 0 0 0-.41-1.67 1.48 1.48 0 0 0-2.32 0 2.84 2.84 0 0 0-.4 1.67V295a2.88 2.88 0 0 0 .41 1.67 1.34 1.34 0 0 0 1.16.56 1.31 1.31 0 0 0 1.16-.56 2.92 2.92 0 0 0 .4-1.67zm4.09.72h1a1.38 1.38 0 0 0 1.09-.38 1.66 1.66 0 0 0 .31-1.07 1.59 1.59 0 0 0-.36-1.12 1.42 1.42 0 0 0-1.07-.38 1.46 1.46 0 0 0-1.08.4 1.39 1.39 0 0 0-.41 1.05h-1.11a2.08 2.08 0 0 1 .7-1.64 3.08 3.08 0 0 1 3.8-.05 2.32 2.32 0 0 1 .7 1.8 2 2 0 0 1-.32 1.05 2 2 0 0 1-1 .8 1.88 1.88 0 0 1 1.09.79 2.35 2.35 0 0 1 .32 1.21 2.29 2.29 0 0 1-.77 1.83 2.84 2.84 0 0 1-1.95.67 2.93 2.93 0 0 1-1.93-.63 2 2 0 0 1-.74-1.71h1.1a1.41 1.41 0 0 0 .42 1.07 1.57 1.57 0 0 0 1.13.39 1.62 1.62 0 0 0 1.15-.39 1.56 1.56 0 0 0 .41-1.18 1.59 1.59 0 0 0-.37-1.16 1.55 1.55 0 0 0-1.16-.37h-1z" class="cls-3"/></g><g id="_2011" data-name="2011" class="cls-3"><path d="M560.94 298h-5.53v-.8l2.79-3.1a8 8 0 0 0 1-1.33 2.17 2.17 0 0 0 .26-1 1.58 1.58 0 0 0-.37-1.07 1.25 1.25 0 0 0-1-.44 1.66 1.66 0 0 0-1.3.46 1.79 1.79 0 0 0-.42 1.27h-1.11a2.43 2.43 0 0 1 .73-1.86 2.9 2.9 0 0 1 2.11-.75 2.55 2.55 0 0 1 1.9.62 2.32 2.32 0 0 1 .68 1.71 2.7 2.7 0 0 1-.42 1.4 8.61 8.61 0 0 1-1.15 1.5l-2.25 2.44h4.11zm6.62-3.22a3.82 3.82 0 0 1-.72 2.5 2.43 2.43 0 0 1-2 .87 2.49 2.49 0 0 1-2-.87 3.84 3.84 0 0 1-.73-2.5v-2a3.84 3.84 0 0 1 .73-2.5 2.68 2.68 0 0 1 4 0 3.78 3.78 0 0 1 .73 2.5zm-1.15-2.27a2.84 2.84 0 0 0-.4-1.67 1.49 1.49 0 0 0-2.33 0 2.92 2.92 0 0 0-.39 1.67V295a2.88 2.88 0 0 0 .4 1.67 1.36 1.36 0 0 0 1.17.56 1.3 1.3 0 0 0 1.15-.56 2.84 2.84 0 0 0 .4-1.67zm5.81 5.49h-1.15v-7.41h-1.75v-.84l2.9-.31zm6.78 0h-1.16v-7.41h-1.74v-.84l2.9-.31z" class="cls-3"/></g><g id="_2001" data-name="2001" class="cls-3"><path d="M196.49 298H191v-.8l2.8-3.1a7.32 7.32 0 0 0 1-1.33 2.07 2.07 0 0 0 .27-1 1.58 1.58 0 0 0-.37-1.07 1.25 1.25 0 0 0-1-.44 1.66 1.66 0 0 0-1.3.46 1.79 1.79 0 0 0-.4 1.28h-1.11a2.4 2.4 0 0 1 .73-1.86 2.88 2.88 0 0 1 2.11-.75 2.51 2.51 0 0 1 1.83.67 2.28 2.28 0 0 1 .68 1.71 2.69 2.69 0 0 1-.41 1.4 8.23 8.23 0 0 1-1.16 1.5l-2.24 2.44h4.1zm6.63-3.22a3.82 3.82 0 0 1-.72 2.5 2.71 2.71 0 0 1-4 0 3.78 3.78 0 0 1-.73-2.5v-2a3.78 3.78 0 0 1 .73-2.5 2.44 2.44 0 0 1 2-.88 2.47 2.47 0 0 1 2 .88 3.78 3.78 0 0 1 .73 2.5zm-1.12-2.27a2.84 2.84 0 0 0-.4-1.67 1.48 1.48 0 0 0-2.32 0 2.84 2.84 0 0 0-.4 1.67V295a2.88 2.88 0 0 0 .41 1.67 1.34 1.34 0 0 0 1.16.56 1.31 1.31 0 0 0 1.16-.56A2.92 2.92 0 0 0 202 295zm7.88 2.27a3.82 3.82 0 0 1-.72 2.5 2.71 2.71 0 0 1-4 0 3.78 3.78 0 0 1-.73-2.5v-2a3.78 3.78 0 0 1 .73-2.5 2.68 2.68 0 0 1 4 0 3.78 3.78 0 0 1 .73 2.5zm-1.15-2.27a2.92 2.92 0 0 0-.4-1.67 1.36 1.36 0 0 0-1.17-.56 1.34 1.34 0 0 0-1.16.56 2.92 2.92 0 0 0-.4 1.67V295a2.88 2.88 0 0 0 .41 1.67 1.36 1.36 0 0 0 1.16.56 1.31 1.31 0 0 0 1.16-.56 2.84 2.84 0 0 0 .4-1.67zm5.81 5.49h-1.16v-7.41h-1.74v-.84l2.9-.31z" class="cls-3"/></g><g id="_2009" data-name="2009" class="cls-3"><path d="M488.05 298h-5.54v-.8l2.8-3.1a8 8 0 0 0 1-1.33 2.17 2.17 0 0 0 .26-1 1.58 1.58 0 0 0-.37-1.07 1.25 1.25 0 0 0-1-.44 1.66 1.66 0 0 0-1.3.46 1.79 1.79 0 0 0-.42 1.27h-1.08a2.43 2.43 0 0 1 .73-1.86 2.88 2.88 0 0 1 2.11-.75 2.51 2.51 0 0 1 1.83.67 2.29 2.29 0 0 1 .69 1.71 2.7 2.7 0 0 1-.42 1.4 8.61 8.61 0 0 1-1.15 1.5l-2.25 2.44h4.11zm6.62-3.22a3.82 3.82 0 0 1-.72 2.5 2.43 2.43 0 0 1-2 .87 2.49 2.49 0 0 1-2-.87 3.84 3.84 0 0 1-.73-2.5v-2a3.78 3.78 0 0 1 .73-2.5 2.68 2.68 0 0 1 4 0 3.78 3.78 0 0 1 .73 2.5zm-1.15-2.27a2.92 2.92 0 0 0-.4-1.67 1.49 1.49 0 0 0-2.33 0 2.92 2.92 0 0 0-.39 1.67V295a2.88 2.88 0 0 0 .4 1.67 1.36 1.36 0 0 0 1.17.56 1.3 1.3 0 0 0 1.15-.56 2.84 2.84 0 0 0 .4-1.67zm7.91 2.27a3.82 3.82 0 0 1-.72 2.5 2.7 2.7 0 0 1-4 0 3.79 3.79 0 0 1-.74-2.5v-2a3.84 3.84 0 0 1 .73-2.5 2.69 2.69 0 0 1 4 0 3.84 3.84 0 0 1 .72 2.5zm-1.15-2.27a2.84 2.84 0 0 0-.4-1.67 1.36 1.36 0 0 0-1.16-.56 1.33 1.33 0 0 0-1.16.56 2.84 2.84 0 0 0-.4 1.67V295a2.88 2.88 0 0 0 .4 1.67 1.36 1.36 0 0 0 1.17.56 1.29 1.29 0 0 0 1.15-.56 2.84 2.84 0 0 0 .4-1.67zm4.82 4.73a1.65 1.65 0 0 0 1.35-.63 3 3 0 0 0 .5-1.9v-.38a2 2 0 0 1-.71.63 2.18 2.18 0 0 1-1 .21 2.56 2.56 0 0 1-2-.77 2.9 2.9 0 0 1-.73-2.1 3 3 0 0 1 .77-2.11 2.49 2.49 0 0 1 1.87-.82 2.73 2.73 0 0 1 2.11.84 3.52 3.52 0 0 1 .77 2.46v2a3.59 3.59 0 0 1-.84 2.56 2.84 2.84 0 0 1-2.17.89 5.82 5.82 0 0 1-.92-.08 3.45 3.45 0 0 1-.84-.27l.18-.88a2.68 2.68 0 0 0 .72.25 4.4 4.4 0 0 0 .94.1zm.18-3a1.94 1.94 0 0 0 1.06-.27 1.6 1.6 0 0 0 .61-.71v-.73a2.75 2.75 0 0 0-.43-1.69 1.44 1.44 0 0 0-1.25-.58 1.33 1.33 0 0 0-1.08.57 2.23 2.23 0 0 0-.45 1.44 2.29 2.29 0 0 0 .42 1.43 1.33 1.33 0 0 0 1.12.56z" class="cls-3"/></g><g id="_2005" data-name="2005" class="cls-3"><path d="M342.27 298h-5.53v-.8l2.79-3.1a8 8 0 0 0 1-1.33 2.07 2.07 0 0 0 .27-1 1.59 1.59 0 0 0-.38-1.07 1.21 1.21 0 0 0-1-.44 1.68 1.68 0 0 0-1.31.46 1.79 1.79 0 0 0-.42 1.27h-1.1a2.4 2.4 0 0 1 .73-1.86 2.88 2.88 0 0 1 2.11-.75 2.54 2.54 0 0 1 1.83.67 2.32 2.32 0 0 1 .68 1.71 2.78 2.78 0 0 1-.41 1.4 8.71 8.71 0 0 1-1.16 1.5l-2.24 2.44h4.1zm6.63-3.22a3.77 3.77 0 0 1-.73 2.5 2.43 2.43 0 0 1-2 .87 2.47 2.47 0 0 1-2-.87 3.79 3.79 0 0 1-.74-2.5v-2a3.84 3.84 0 0 1 .73-2.5 2.69 2.69 0 0 1 4 0 3.84 3.84 0 0 1 .73 2.5zm-1.16-2.27a2.84 2.84 0 0 0-.4-1.67 1.48 1.48 0 0 0-2.32 0 2.84 2.84 0 0 0-.4 1.67V295a2.88 2.88 0 0 0 .4 1.67 1.36 1.36 0 0 0 1.17.56 1.32 1.32 0 0 0 1.16-.56 2.92 2.92 0 0 0 .39-1.67zm7.92 2.27a3.77 3.77 0 0 1-.73 2.5 2.43 2.43 0 0 1-2 .87 2.47 2.47 0 0 1-2-.87 3.78 3.78 0 0 1-.73-2.5v-2a3.78 3.78 0 0 1 .73-2.5 2.44 2.44 0 0 1 2-.88 2.47 2.47 0 0 1 2 .88 3.78 3.78 0 0 1 .73 2.5zm-1.16-2.27a2.84 2.84 0 0 0-.4-1.67 1.48 1.48 0 0 0-2.32 0 2.84 2.84 0 0 0-.4 1.67V295a2.88 2.88 0 0 0 .41 1.67 1.48 1.48 0 0 0 2.32 0 2.92 2.92 0 0 0 .39-1.67zm2.85 1.67l.49-4.68h4.28v1h-3.3l-.28 2.4a2.89 2.89 0 0 1 .6-.33 2.24 2.24 0 0 1 .77-.15 2.32 2.32 0 0 1 1.85.77 3.1 3.1 0 0 1 .68 2.1 3 3 0 0 1-.69 2.06 2.54 2.54 0 0 1-2 .78 2.76 2.76 0 0 1-1.8-.59 2 2 0 0 1-.69-1.74h1a1.4 1.4 0 0 0 .4 1.08 1.44 1.44 0 0 0 1 .38 1.37 1.37 0 0 0 1.14-.51 2.23 2.23 0 0 0 .4-1.41 2.09 2.09 0 0 0-.41-1.35 1.35 1.35 0 0 0-1.13-.52 1.77 1.77 0 0 0-1 .2 1.2 1.2 0 0 0-.45.63z" class="cls-3"/></g><g id="_2013" data-name="2013" class="cls-3"><path d="M633.83 298h-5.54v-.8l2.8-3.1a8 8 0 0 0 1-1.33 2.17 2.17 0 0 0 .26-1 1.58 1.58 0 0 0-.37-1.07 1.25 1.25 0 0 0-1-.44 1.66 1.66 0 0 0-1.3.46 1.79 1.79 0 0 0-.42 1.27h-1.11a2.43 2.43 0 0 1 .73-1.86 2.88 2.88 0 0 1 2.11-.75 2.51 2.51 0 0 1 1.83.67 2.29 2.29 0 0 1 .69 1.71 2.7 2.7 0 0 1-.42 1.4 8.61 8.61 0 0 1-1.15 1.5l-2.25 2.44h4.11zm6.62-3.22a3.82 3.82 0 0 1-.72 2.5 2.44 2.44 0 0 1-2 .87 2.49 2.49 0 0 1-2-.87 3.78 3.78 0 0 1-.73-2.5v-2a3.78 3.78 0 0 1 .73-2.5 2.68 2.68 0 0 1 4 0 3.78 3.78 0 0 1 .73 2.5zm-1.15-2.27a2.92 2.92 0 0 0-.4-1.67 1.49 1.49 0 0 0-2.33 0 2.92 2.92 0 0 0-.4 1.67V295a2.88 2.88 0 0 0 .41 1.67 1.36 1.36 0 0 0 1.17.56 1.3 1.3 0 0 0 1.15-.56 2.84 2.84 0 0 0 .4-1.67zm5.81 5.49H644v-7.41h-1.75v-.84l2.9-.31zm5.04-4.77h1a1.35 1.35 0 0 0 1.08-.38 1.61 1.61 0 0 0 .32-1.07 1.59 1.59 0 0 0-.36-1.12 1.42 1.42 0 0 0-1.07-.38 1.46 1.46 0 0 0-1.08.4 1.39 1.39 0 0 0-.41 1.05h-1.11a2.05 2.05 0 0 1 .7-1.64A3.07 3.07 0 0 1 653 290a2.29 2.29 0 0 1 .71 1.8 2 2 0 0 1-.32 1.05 2 2 0 0 1-1 .8 1.92 1.92 0 0 1 1.09.79 2.35 2.35 0 0 1 .32 1.21 2.29 2.29 0 0 1-.77 1.83 2.84 2.84 0 0 1-2 .67 2.93 2.93 0 0 1-1.93-.63 2 2 0 0 1-.74-1.71h1.1a1.44 1.44 0 0 0 .41 1.07 1.56 1.56 0 0 0 2.7-1.18 1.59 1.59 0 0 0-.37-1.16 1.55 1.55 0 0 0-1.16-.37h-1z" class="cls-3"/></g><g id="_2000" data-name="2000" class="cls-3"><path d="M160.05 298h-5.54v-.8l2.8-3.1a8 8 0 0 0 1-1.33 2.17 2.17 0 0 0 .26-1 1.58 1.58 0 0 0-.37-1.07 1.25 1.25 0 0 0-1-.44 1.66 1.66 0 0 0-1.3.46 1.79 1.79 0 0 0-.42 1.27h-1.08a2.43 2.43 0 0 1 .73-1.86 2.88 2.88 0 0 1 2.11-.75 2.51 2.51 0 0 1 1.83.67 2.29 2.29 0 0 1 .69 1.71 2.7 2.7 0 0 1-.42 1.4 8.61 8.61 0 0 1-1.15 1.5l-2.25 2.44h4.11zm6.62-3.22a3.82 3.82 0 0 1-.72 2.5 2.43 2.43 0 0 1-2 .87 2.49 2.49 0 0 1-2-.87 3.84 3.84 0 0 1-.73-2.5v-2a3.78 3.78 0 0 1 .73-2.5 2.68 2.68 0 0 1 4 0 3.78 3.78 0 0 1 .73 2.5zm-1.15-2.27a2.92 2.92 0 0 0-.4-1.67 1.49 1.49 0 0 0-2.33 0 2.92 2.92 0 0 0-.39 1.67V295a2.88 2.88 0 0 0 .4 1.67 1.36 1.36 0 0 0 1.17.56 1.3 1.3 0 0 0 1.15-.56 2.84 2.84 0 0 0 .4-1.67zm7.91 2.27a3.82 3.82 0 0 1-.72 2.5 2.7 2.7 0 0 1-4 0 3.79 3.79 0 0 1-.74-2.5v-2a3.84 3.84 0 0 1 .73-2.5 2.69 2.69 0 0 1 4 0 3.84 3.84 0 0 1 .72 2.5zm-1.15-2.27a2.84 2.84 0 0 0-.4-1.67 1.36 1.36 0 0 0-1.16-.56 1.33 1.33 0 0 0-1.16.56 2.84 2.84 0 0 0-.4 1.67V295a2.88 2.88 0 0 0 .4 1.67 1.36 1.36 0 0 0 1.17.56 1.29 1.29 0 0 0 1.15-.56 2.84 2.84 0 0 0 .4-1.67zm7.92 2.27a3.77 3.77 0 0 1-.73 2.5 2.43 2.43 0 0 1-2 .87 2.47 2.47 0 0 1-2-.87 3.79 3.79 0 0 1-.74-2.5v-2a3.84 3.84 0 0 1 .73-2.5 2.69 2.69 0 0 1 4 0 3.84 3.84 0 0 1 .73 2.5zm-1.2-2.27a2.84 2.84 0 0 0-.4-1.67 1.48 1.48 0 0 0-2.32 0 2.84 2.84 0 0 0-.4 1.67V295a2.88 2.88 0 0 0 .4 1.67 1.36 1.36 0 0 0 1.17.56 1.32 1.32 0 0 0 1.16-.56A2.92 2.92 0 0 0 179 295z" class="cls-3"/></g><g id="_2008" data-name="2008" class="cls-3"><path d="M451.6 298h-5.53v-.8l2.8-3.1a7.83 7.83 0 0 0 1-1.33 2.07 2.07 0 0 0 .27-1 1.64 1.64 0 0 0-.37-1.07 1.25 1.25 0 0 0-1-.44 1.65 1.65 0 0 0-1.3.46 1.79 1.79 0 0 0-.42 1.27H446a2.4 2.4 0 0 1 .73-1.86 2.88 2.88 0 0 1 2.11-.75 2.53 2.53 0 0 1 1.83.67 2.28 2.28 0 0 1 .68 1.71 2.69 2.69 0 0 1-.41 1.4 8.71 8.71 0 0 1-1.16 1.5l-2.24 2.44h4.1zm6.63-3.22a3.77 3.77 0 0 1-.73 2.5 2.43 2.43 0 0 1-2 .87 2.47 2.47 0 0 1-2-.87 3.78 3.78 0 0 1-.73-2.5v-2a3.78 3.78 0 0 1 .73-2.5 2.44 2.44 0 0 1 2-.88 2.47 2.47 0 0 1 2 .88 3.78 3.78 0 0 1 .73 2.5zm-1.16-2.27a2.84 2.84 0 0 0-.4-1.67 1.48 1.48 0 0 0-2.32 0 2.84 2.84 0 0 0-.4 1.67V295a2.88 2.88 0 0 0 .41 1.67 1.33 1.33 0 0 0 1.16.56 1.31 1.31 0 0 0 1.16-.56 2.92 2.92 0 0 0 .39-1.67zm7.93 2.27a3.82 3.82 0 0 1-.72 2.5 2.71 2.71 0 0 1-4 0 3.78 3.78 0 0 1-.73-2.5v-2a3.78 3.78 0 0 1 .73-2.5 2.68 2.68 0 0 1 4 0 3.78 3.78 0 0 1 .73 2.5zm-1.15-2.27a2.83 2.83 0 0 0-.41-1.67 1.48 1.48 0 0 0-2.32 0 2.92 2.92 0 0 0-.4 1.67V295a2.88 2.88 0 0 0 .41 1.67 1.36 1.36 0 0 0 1.16.56 1.31 1.31 0 0 0 1.16-.56 2.92 2.92 0 0 0 .4-1.67zm7.73-.79a1.89 1.89 0 0 1-.38 1.17 2.19 2.19 0 0 1-1 .75 2.56 2.56 0 0 1 1.18.81 2 2 0 0 1 .44 1.27 2.21 2.21 0 0 1-.77 1.81 3.57 3.57 0 0 1-4 0 2.2 2.2 0 0 1-.76-1.81 2 2 0 0 1 .43-1.27 2.48 2.48 0 0 1 1.17-.81 2.11 2.11 0 0 1-1-.75 1.94 1.94 0 0 1-.36-1.17 2.17 2.17 0 0 1 .69-1.73 3 3 0 0 1 3.67 0 2.13 2.13 0 0 1 .69 1.73zm-.92 4a1.54 1.54 0 0 0-.46-1.15 1.61 1.61 0 0 0-1.17-.45 1.54 1.54 0 0 0-1.62 1.6 1.45 1.45 0 0 0 .45 1.14 1.63 1.63 0 0 0 1.18.41 1.69 1.69 0 0 0 1.17-.41 1.48 1.48 0 0 0 .45-1.17zm-.24-3.94a1.48 1.48 0 0 0-.39-1.05 1.33 1.33 0 0 0-1-.42 1.36 1.36 0 0 0-1 .4 1.52 1.52 0 0 0-.38 1.07 1.45 1.45 0 0 0 .38 1 1.49 1.49 0 0 0 2 0 1.45 1.45 0 0 0 .39-1.03z" class="cls-3"/></g><g id="_2004" data-name="2004" class="cls-3"><path d="M305.83 298h-5.54v-.8l2.8-3.1a8 8 0 0 0 1-1.33 2.17 2.17 0 0 0 .26-1 1.58 1.58 0 0 0-.37-1.07 1.25 1.25 0 0 0-1-.44 1.66 1.66 0 0 0-1.3.46 1.79 1.79 0 0 0-.42 1.27h-1.11a2.43 2.43 0 0 1 .73-1.86 2.88 2.88 0 0 1 2.11-.75 2.51 2.51 0 0 1 1.83.67 2.29 2.29 0 0 1 .69 1.71 2.7 2.7 0 0 1-.42 1.4 8.61 8.61 0 0 1-1.15 1.5l-2.25 2.44h4.11zm6.62-3.22a3.82 3.82 0 0 1-.72 2.5 2.44 2.44 0 0 1-2 .87 2.49 2.49 0 0 1-2-.87 3.78 3.78 0 0 1-.73-2.5v-2a3.78 3.78 0 0 1 .73-2.5 2.68 2.68 0 0 1 4 0 3.78 3.78 0 0 1 .73 2.5zm-1.15-2.27a2.92 2.92 0 0 0-.4-1.67 1.49 1.49 0 0 0-2.33 0 2.92 2.92 0 0 0-.4 1.67V295a2.88 2.88 0 0 0 .41 1.67 1.36 1.36 0 0 0 1.17.56 1.3 1.3 0 0 0 1.15-.56 2.84 2.84 0 0 0 .4-1.67zm7.91 2.27a3.82 3.82 0 0 1-.72 2.5 2.43 2.43 0 0 1-2 .87 2.49 2.49 0 0 1-2-.87 3.84 3.84 0 0 1-.73-2.5v-2a3.84 3.84 0 0 1 .73-2.5 2.68 2.68 0 0 1 4 0 3.78 3.78 0 0 1 .73 2.5zm-1.15-2.27a2.84 2.84 0 0 0-.4-1.67 1.49 1.49 0 0 0-2.33 0 2.92 2.92 0 0 0-.39 1.67V295a2.88 2.88 0 0 0 .4 1.67 1.36 1.36 0 0 0 1.17.56 1.3 1.3 0 0 0 1.15-.56 2.84 2.84 0 0 0 .4-1.67zm7.12 2.65h1.18v.91h-1.18v2H324v-2h-3.8v-.66l3.8-5.91h1.21zm-3.75 0H324v-4l-.11.29z" class="cls-3"/></g><g id="_2012" data-name="2012" class="cls-3"><path d="M597.38 298h-5.53v-.8l2.79-3.1a8 8 0 0 0 1-1.33 2.07 2.07 0 0 0 .27-1 1.64 1.64 0 0 0-.37-1.07 1.25 1.25 0 0 0-1-.44 1.68 1.68 0 0 0-1.31.46 1.83 1.83 0 0 0-.41 1.27h-1.11a2.4 2.4 0 0 1 .73-1.86 2.88 2.88 0 0 1 2.11-.75 2.54 2.54 0 0 1 1.83.67 2.32 2.32 0 0 1 .68 1.71 2.78 2.78 0 0 1-.41 1.4 8.71 8.71 0 0 1-1.16 1.5l-2.24 2.44h4.1zm6.62-3.22a3.77 3.77 0 0 1-.73 2.5 2.43 2.43 0 0 1-2 .87 2.47 2.47 0 0 1-2-.87 3.78 3.78 0 0 1-.73-2.5v-2a3.78 3.78 0 0 1 .73-2.5 2.44 2.44 0 0 1 2-.88 2.47 2.47 0 0 1 2 .88 3.84 3.84 0 0 1 .73 2.5zm-1.16-2.27a2.84 2.84 0 0 0-.4-1.67 1.48 1.48 0 0 0-2.32 0 2.84 2.84 0 0 0-.4 1.67V295a3 3 0 0 0 .4 1.67 1.36 1.36 0 0 0 1.17.56 1.32 1.32 0 0 0 1.16-.56 2.92 2.92 0 0 0 .39-1.67zm5.83 5.49h-1.16v-7.41h-1.74v-.84l2.9-.31zm8.98 0h-5.53v-.8l2.8-3.1a7.32 7.32 0 0 0 1-1.33 2.07 2.07 0 0 0 .27-1 1.58 1.58 0 0 0-.37-1.07 1.25 1.25 0 0 0-1-.44 1.66 1.66 0 0 0-1.3.46 1.79 1.79 0 0 0-.42 1.27H612a2.4 2.4 0 0 1 .73-1.86 2.88 2.88 0 0 1 2.11-.75 2.51 2.51 0 0 1 1.83.67 2.29 2.29 0 0 1 .69 1.71 2.7 2.7 0 0 1-.42 1.4 8.61 8.61 0 0 1-1.15 1.5l-2.25 2.44h4.1z" class="cls-3"/></g><g id="_2002" data-name="2002" class="cls-3"><path d="M232.94 298h-5.53v-.8l2.79-3.1a8 8 0 0 0 1-1.33 2.17 2.17 0 0 0 .26-1 1.58 1.58 0 0 0-.37-1.07 1.25 1.25 0 0 0-1-.44 1.66 1.66 0 0 0-1.3.46 1.79 1.79 0 0 0-.42 1.27h-1.11a2.43 2.43 0 0 1 .73-1.86 2.9 2.9 0 0 1 2.11-.75 2.55 2.55 0 0 1 1.9.62 2.32 2.32 0 0 1 .68 1.71 2.7 2.7 0 0 1-.42 1.4 8.61 8.61 0 0 1-1.15 1.5l-2.25 2.44h4.11zm6.62-3.22a3.82 3.82 0 0 1-.72 2.5 2.43 2.43 0 0 1-2 .87 2.49 2.49 0 0 1-2-.87 3.84 3.84 0 0 1-.73-2.5v-2a3.84 3.84 0 0 1 .73-2.5 2.68 2.68 0 0 1 4 0 3.78 3.78 0 0 1 .73 2.5zm-1.15-2.27a2.84 2.84 0 0 0-.4-1.67 1.49 1.49 0 0 0-2.33 0 2.92 2.92 0 0 0-.39 1.67V295a2.88 2.88 0 0 0 .4 1.67 1.36 1.36 0 0 0 1.17.56 1.3 1.3 0 0 0 1.15-.56 2.84 2.84 0 0 0 .4-1.67zm7.92 2.27a3.82 3.82 0 0 1-.73 2.5 2.7 2.7 0 0 1-4 0 3.79 3.79 0 0 1-.74-2.5v-2a3.84 3.84 0 0 1 .73-2.5 2.69 2.69 0 0 1 4 0 3.84 3.84 0 0 1 .73 2.5zm-1.16-2.27a2.84 2.84 0 0 0-.4-1.67 1.36 1.36 0 0 0-1.16-.56 1.33 1.33 0 0 0-1.16.56 2.84 2.84 0 0 0-.4 1.67V295a2.88 2.88 0 0 0 .4 1.67 1.36 1.36 0 0 0 1.17.56 1.32 1.32 0 0 0 1.16-.56 2.92 2.92 0 0 0 .39-1.67zm8.05 5.49h-5.54v-.8l2.8-3.1a8 8 0 0 0 1-1.33 2.17 2.17 0 0 0 .26-1 1.58 1.58 0 0 0-.37-1.07 1.25 1.25 0 0 0-1-.44 1.66 1.66 0 0 0-1.3.46 1.79 1.79 0 0 0-.42 1.27h-1.11a2.43 2.43 0 0 1 .73-1.86 2.88 2.88 0 0 1 2.11-.75 2.51 2.51 0 0 1 1.83.67 2.29 2.29 0 0 1 .69 1.71 2.7 2.7 0 0 1-.42 1.4 8.61 8.61 0 0 1-1.15 1.5l-2.25 2.44h4.11z" class="cls-3"/></g><g id="_2010" data-name="2010" class="cls-3"><path d="M524.49 298H519v-.8l2.79-3.1a8 8 0 0 0 1-1.33 2.07 2.07 0 0 0 .27-1 1.64 1.64 0 0 0-.37-1.07 1.25 1.25 0 0 0-1-.44 1.68 1.68 0 0 0-1.31.46A1.78 1.78 0 0 0 520 292h-1.11a2.4 2.4 0 0 1 .73-1.86 2.88 2.88 0 0 1 2.11-.75 2.54 2.54 0 0 1 1.83.67 2.32 2.32 0 0 1 .68 1.71 2.78 2.78 0 0 1-.41 1.4 8.71 8.71 0 0 1-1.16 1.5l-2.24 2.44h4.1zm6.63-3.22a3.77 3.77 0 0 1-.73 2.5 2.43 2.43 0 0 1-2 .87 2.47 2.47 0 0 1-2-.87 3.78 3.78 0 0 1-.73-2.5v-2a3.78 3.78 0 0 1 .73-2.5 2.44 2.44 0 0 1 2-.88 2.47 2.47 0 0 1 2 .88 3.84 3.84 0 0 1 .73 2.5zm-1.12-2.27a2.84 2.84 0 0 0-.4-1.67 1.48 1.48 0 0 0-2.32 0 2.84 2.84 0 0 0-.4 1.67V295a2.88 2.88 0 0 0 .4 1.67 1.36 1.36 0 0 0 1.17.56 1.32 1.32 0 0 0 1.16-.56A2.92 2.92 0 0 0 530 295zm5.78 5.49h-1.16v-7.41h-1.74v-.84l2.9-.31zm8.85-3.22a3.82 3.82 0 0 1-.72 2.5 2.7 2.7 0 0 1-4 0 3.79 3.79 0 0 1-.74-2.5v-2a3.84 3.84 0 0 1 .73-2.5 2.69 2.69 0 0 1 4 0 3.84 3.84 0 0 1 .72 2.5zm-1.15-2.27a2.84 2.84 0 0 0-.4-1.67 1.36 1.36 0 0 0-1.16-.56 1.33 1.33 0 0 0-1.16.56 2.84 2.84 0 0 0-.4 1.67V295a2.88 2.88 0 0 0 .4 1.67 1.36 1.36 0 0 0 1.17.56 1.29 1.29 0 0 0 1.15-.56 2.84 2.84 0 0 0 .4-1.67z" class="cls-3"/></g><g id="_2006" data-name="2006" class="cls-3"><path d="M378.71 298h-5.53v-.8l2.8-3.1a7.32 7.32 0 0 0 1-1.33 2.07 2.07 0 0 0 .27-1 1.58 1.58 0 0 0-.37-1.07 1.25 1.25 0 0 0-1-.44 1.66 1.66 0 0 0-1.3.46 1.79 1.79 0 0 0-.42 1.27h-1.11a2.4 2.4 0 0 1 .73-1.86 2.88 2.88 0 0 1 2.11-.75 2.51 2.51 0 0 1 1.83.67 2.29 2.29 0 0 1 .69 1.71 2.7 2.7 0 0 1-.42 1.4 8.23 8.23 0 0 1-1.16 1.5l-2.24 2.44h4.1zm6.63-3.22a3.82 3.82 0 0 1-.72 2.5 2.71 2.71 0 0 1-4 0 3.78 3.78 0 0 1-.73-2.5v-2a3.78 3.78 0 0 1 .73-2.5 2.68 2.68 0 0 1 4 0 3.78 3.78 0 0 1 .73 2.5zm-1.15-2.27a2.92 2.92 0 0 0-.4-1.67 1.36 1.36 0 0 0-1.17-.56 1.34 1.34 0 0 0-1.16.56 2.92 2.92 0 0 0-.4 1.67V295a2.88 2.88 0 0 0 .41 1.67 1.36 1.36 0 0 0 1.16.56 1.31 1.31 0 0 0 1.16-.56 2.92 2.92 0 0 0 .4-1.67zm7.91 2.27a3.82 3.82 0 0 1-.72 2.5 2.43 2.43 0 0 1-2 .87 2.49 2.49 0 0 1-2-.87 3.84 3.84 0 0 1-.73-2.5v-2a3.78 3.78 0 0 1 .73-2.5 2.68 2.68 0 0 1 4 0 3.78 3.78 0 0 1 .73 2.5zm-1.1-2.27a2.92 2.92 0 0 0-.4-1.67 1.49 1.49 0 0 0-2.33 0 2.92 2.92 0 0 0-.39 1.67V295a2.88 2.88 0 0 0 .4 1.67 1.36 1.36 0 0 0 1.17.56 1.3 1.3 0 0 0 1.15-.56 2.84 2.84 0 0 0 .4-1.67zm5.73-3.14a4.3 4.3 0 0 1 .87.1 2.78 2.78 0 0 1 .71.26l-.25.88a3.13 3.13 0 0 0-.6-.24 2.65 2.65 0 0 0-.73-.09 1.79 1.79 0 0 0-1.48.73 3.09 3.09 0 0 0-.56 1.91v.14a2.92 2.92 0 0 1 1.9-.7 2.3 2.3 0 0 1 1.82.79 3 3 0 0 1 .68 2 3.2 3.2 0 0 1-.72 2.16 2.45 2.45 0 0 1-1.93.83 2.67 2.67 0 0 1-2.08-.91 3.71 3.71 0 0 1-.82-2.56v-1.63a3.84 3.84 0 0 1 .92-2.66 2.92 2.92 0 0 1 2.27-1.01zm-.4 3.85a2 2 0 0 0-1 .24 1.71 1.71 0 0 0-.64.64v.69a2.92 2.92 0 0 0 .5 1.82 1.53 1.53 0 0 0 1.25.63 1.24 1.24 0 0 0 1.1-.6 2.59 2.59 0 0 0 .4-1.49 2.13 2.13 0 0 0-.43-1.38 1.41 1.41 0 0 0-1.18-.55z" class="cls-3"/></g><g id="_2014" data-name="2014" class="cls-3"><path d="M670.27 298h-5.53v-.8l2.79-3.1a8 8 0 0 0 1-1.33 2.07 2.07 0 0 0 .27-1 1.59 1.59 0 0 0-.38-1.07 1.21 1.21 0 0 0-1-.44 1.68 1.68 0 0 0-1.31.46 1.79 1.79 0 0 0-.42 1.27h-1.1a2.4 2.4 0 0 1 .73-1.86 2.88 2.88 0 0 1 2.11-.75 2.54 2.54 0 0 1 1.83.67 2.32 2.32 0 0 1 .68 1.71 2.78 2.78 0 0 1-.41 1.4 8.71 8.71 0 0 1-1.16 1.5l-2.24 2.44h4.1zm6.63-3.22a3.77 3.77 0 0 1-.73 2.5 2.43 2.43 0 0 1-2 .87 2.47 2.47 0 0 1-2-.87 3.79 3.79 0 0 1-.74-2.5v-2a3.84 3.84 0 0 1 .73-2.5 2.69 2.69 0 0 1 4 0 3.84 3.84 0 0 1 .73 2.5zm-1.16-2.27a2.84 2.84 0 0 0-.4-1.67 1.48 1.48 0 0 0-2.32 0 2.84 2.84 0 0 0-.4 1.67V295a2.88 2.88 0 0 0 .4 1.67 1.36 1.36 0 0 0 1.17.56 1.32 1.32 0 0 0 1.16-.56 2.92 2.92 0 0 0 .39-1.67zm5.81 5.49h-1.15v-7.41h-1.75v-.84l2.9-.31zm8.07-2.84h1.18v.91h-1.18v2h-1.15v-2h-3.83v-.66l3.76-5.91h1.22zm-3.75 0h2.6v-4l-.11.29z" class="cls-3"/></g><g id="_2015" data-name="2015" class="cls-3"><path d="M706.71 298h-5.53v-.8l2.8-3.1a7.32 7.32 0 0 0 1-1.33 2.07 2.07 0 0 0 .27-1 1.58 1.58 0 0 0-.37-1.07 1.25 1.25 0 0 0-1-.44 1.66 1.66 0 0 0-1.3.46 1.79 1.79 0 0 0-.42 1.27h-1.11a2.4 2.4 0 0 1 .73-1.86 2.88 2.88 0 0 1 2.11-.75 2.51 2.51 0 0 1 1.83.67 2.29 2.29 0 0 1 .69 1.71 2.7 2.7 0 0 1-.42 1.4 8.23 8.23 0 0 1-1.16 1.5l-2.24 2.44h4.1zm6.63-3.22a3.82 3.82 0 0 1-.72 2.5 2.71 2.71 0 0 1-4 0 3.78 3.78 0 0 1-.73-2.5v-2a3.78 3.78 0 0 1 .73-2.5 2.68 2.68 0 0 1 4 0 3.78 3.78 0 0 1 .73 2.5zm-1.15-2.27a2.92 2.92 0 0 0-.4-1.67 1.36 1.36 0 0 0-1.17-.56 1.34 1.34 0 0 0-1.16.56 2.92 2.92 0 0 0-.4 1.67V295a2.88 2.88 0 0 0 .41 1.67 1.36 1.36 0 0 0 1.16.56 1.31 1.31 0 0 0 1.16-.56 2.92 2.92 0 0 0 .4-1.67zM718 298h-1.16v-7.41h-1.74v-.84l2.9-.31zm3.79-3.82l.49-4.68h4.27v1h-3.29l-.28 2.4a2.89 2.89 0 0 1 .6-.33 2.23 2.23 0 0 1 .76-.15 2.32 2.32 0 0 1 1.86.77 3.1 3.1 0 0 1 .68 2.1 3 3 0 0 1-.69 2.06 2.54 2.54 0 0 1-2 .78 2.76 2.76 0 0 1-1.8-.59 2.08 2.08 0 0 1-.7-1.74h1a1.4 1.4 0 0 0 .4 1.08 1.42 1.42 0 0 0 1 .38 1.37 1.37 0 0 0 1.14-.51 2.23 2.23 0 0 0 .4-1.41 2.15 2.15 0 0 0-.41-1.35 1.35 1.35 0 0 0-1.13-.52 1.77 1.77 0 0 0-1 .2 1.15 1.15 0 0 0-.45.63z" class="cls-3"/></g><g id="_2017" data-name="2017" class="cls-3"><path d="M816.05 298h-5.54v-.8l2.8-3.1a8 8 0 0 0 1-1.33 2.17 2.17 0 0 0 .26-1 1.58 1.58 0 0 0-.37-1.07 1.25 1.25 0 0 0-1-.44 1.66 1.66 0 0 0-1.3.46 1.79 1.79 0 0 0-.42 1.27h-1.08a2.43 2.43 0 0 1 .73-1.86 2.88 2.88 0 0 1 2.11-.75 2.51 2.51 0 0 1 1.83.67 2.29 2.29 0 0 1 .69 1.71 2.7 2.7 0 0 1-.42 1.4 8.61 8.61 0 0 1-1.15 1.5l-2.25 2.44h4.11zm6.62-3.22a3.82 3.82 0 0 1-.72 2.5 2.43 2.43 0 0 1-2 .87 2.49 2.49 0 0 1-2-.87 3.84 3.84 0 0 1-.73-2.5v-2a3.78 3.78 0 0 1 .73-2.5 2.68 2.68 0 0 1 4 0 3.78 3.78 0 0 1 .73 2.5zm-1.15-2.27a2.92 2.92 0 0 0-.4-1.67 1.49 1.49 0 0 0-2.33 0 2.92 2.92 0 0 0-.39 1.67V295a2.88 2.88 0 0 0 .4 1.67 1.36 1.36 0 0 0 1.17.56 1.3 1.3 0 0 0 1.15-.56 2.84 2.84 0 0 0 .4-1.67zm5.81 5.49h-1.15v-7.41h-1.75v-.84l2.9-.31zm8.67-6.28a1.88 1.88 0 0 1-.37 1.17 2.19 2.19 0 0 1-1 .75 2.56 2.56 0 0 1 1.18.81 2 2 0 0 1 .44 1.27 2.21 2.21 0 0 1-.77 1.81 3.57 3.57 0 0 1-4 0 2.21 2.21 0 0 1-.77-1.81 2 2 0 0 1 .44-1.27 2.48 2.48 0 0 1 1.17-.81 2.07 2.07 0 0 1-1-.75 1.94 1.94 0 0 1-.37-1.17 2.18 2.18 0 0 1 .7-1.73 3 3 0 0 1 3.67 0 2.12 2.12 0 0 1 .68 1.73zm-.91 4a1.54 1.54 0 0 0-.46-1.15 1.61 1.61 0 0 0-1.17-.45 1.54 1.54 0 0 0-1.62 1.6 1.48 1.48 0 0 0 .44 1.14 1.9 1.9 0 0 0 2.36 0 1.48 1.48 0 0 0 .46-1.17zm-.24-3.94a1.45 1.45 0 0 0-.4-1.05 1.29 1.29 0 0 0-1-.42 1.34 1.34 0 0 0-1 .4 1.52 1.52 0 0 0-.38 1.07 1.45 1.45 0 0 0 .38 1 1.36 1.36 0 0 0 1 .39 1.33 1.33 0 0 0 1-.39 1.41 1.41 0 0 0 .41-1.03z" class="cls-3"/></g><g id="_2017-2" data-name="2017" class="cls-3"><path d="M779.6 298h-5.53v-.8l2.8-3.1a7.83 7.83 0 0 0 1-1.33 2.07 2.07 0 0 0 .27-1 1.64 1.64 0 0 0-.37-1.07 1.25 1.25 0 0 0-1-.44 1.65 1.65 0 0 0-1.3.46 1.79 1.79 0 0 0-.42 1.27H774a2.4 2.4 0 0 1 .73-1.86 2.88 2.88 0 0 1 2.11-.75 2.53 2.53 0 0 1 1.83.67 2.28 2.28 0 0 1 .68 1.71 2.69 2.69 0 0 1-.41 1.4 8.71 8.71 0 0 1-1.16 1.5l-2.24 2.44h4.1zm6.63-3.22a3.77 3.77 0 0 1-.73 2.5 2.43 2.43 0 0 1-2 .87 2.47 2.47 0 0 1-2-.87 3.78 3.78 0 0 1-.73-2.5v-2a3.78 3.78 0 0 1 .73-2.5 2.44 2.44 0 0 1 2-.88 2.47 2.47 0 0 1 2 .88 3.78 3.78 0 0 1 .73 2.5zm-1.16-2.27a2.84 2.84 0 0 0-.4-1.67 1.48 1.48 0 0 0-2.32 0 2.84 2.84 0 0 0-.4 1.67V295a2.88 2.88 0 0 0 .41 1.67 1.33 1.33 0 0 0 1.16.56 1.31 1.31 0 0 0 1.16-.56 2.92 2.92 0 0 0 .39-1.67zm5.82 5.49h-1.16v-7.41h-1.74v-.84l2.9-.31zm8.99-7.59a11.64 11.64 0 0 0-2.09 3.26 14 14 0 0 0-.79 3.44l-.09.92h-1.15l.09-.92a12.48 12.48 0 0 1 .95-3.61 14.15 14.15 0 0 1 1.94-3.09h-4.64v-.91h5.78z" class="cls-3"/></g><g id="_2016" data-name="2016" class="cls-3"><path d="M743.16 298h-5.53v-.8l2.79-3.1a8 8 0 0 0 1-1.33 2.07 2.07 0 0 0 .27-1 1.59 1.59 0 0 0-.38-1.07 1.23 1.23 0 0 0-1-.44 1.68 1.68 0 0 0-1.31.46 1.79 1.79 0 0 0-.42 1.27h-1.1a2.41 2.41 0 0 1 .74-1.86 2.86 2.86 0 0 1 2.11-.75 2.54 2.54 0 0 1 1.83.67 2.32 2.32 0 0 1 .68 1.71 2.78 2.78 0 0 1-.41 1.4 8.71 8.71 0 0 1-1.16 1.5l-2.27 2.43h4.1zm6.63-3.22a3.82 3.82 0 0 1-.73 2.5 2.7 2.7 0 0 1-4 0 3.79 3.79 0 0 1-.74-2.5v-2a3.84 3.84 0 0 1 .73-2.5 2.47 2.47 0 0 1 2-.88 2.44 2.44 0 0 1 2 .88 3.79 3.79 0 0 1 .74 2.5zm-1.16-2.27a2.84 2.84 0 0 0-.4-1.67 1.36 1.36 0 0 0-1.16-.56 1.33 1.33 0 0 0-1.16.56 2.84 2.84 0 0 0-.4 1.67V295a2.88 2.88 0 0 0 .4 1.67 1.36 1.36 0 0 0 1.17.56 1.29 1.29 0 0 0 1.15-.56 2.84 2.84 0 0 0 .4-1.67zm5.81 5.49h-1.15v-7.41h-1.75v-.84l2.9-.31zm6.72-8.63a4.14 4.14 0 0 1 .87.1 2.73 2.73 0 0 1 .72.26l-.25.88a3.13 3.13 0 0 0-.6-.24 2.68 2.68 0 0 0-.74-.09 1.77 1.77 0 0 0-1.47.73 3.09 3.09 0 0 0-.56 1.91v.14a2.92 2.92 0 0 1 1.9-.7 2.3 2.3 0 0 1 1.82.79 3 3 0 0 1 .68 2 3.2 3.2 0 0 1-.72 2.16 2.46 2.46 0 0 1-1.93.83 2.67 2.67 0 0 1-2.08-.91 3.71 3.71 0 0 1-.82-2.56v-1.63a3.84 3.84 0 0 1 .92-2.66 2.91 2.91 0 0 1 2.26-1.01zm-.39 3.85a2 2 0 0 0-1 .24 1.76 1.76 0 0 0-.63.64v.69a2.92 2.92 0 0 0 .5 1.82 1.53 1.53 0 0 0 1.25.63 1.24 1.24 0 0 0 1.1-.6 2.67 2.67 0 0 0 .4-1.49 2.19 2.19 0 0 0-.43-1.38 1.41 1.41 0 0 0-1.19-.55z" class="cls-3"/></g><g id="_120_000_000" data-name="120 000 000" class="cls-3"><path d="M65.45 117.69h-1.16v-7.41h-1.74v-.83l2.9-.32zm8.98 0H68.9v-.8l2.8-3.1a7.32 7.32 0 0 0 1-1.33 2.1 2.1 0 0 0 .27-1 1.58 1.58 0 0 0-.37-1.07 1.22 1.22 0 0 0-1-.44 1.69 1.69 0 0 0-1.3.45 1.83 1.83 0 0 0-.42 1.28h-1.09a2.39 2.39 0 0 1 .73-1.85 2.88 2.88 0 0 1 2.11-.75 2.47 2.47 0 0 1 1.83.67 2.29 2.29 0 0 1 .69 1.71 2.7 2.7 0 0 1-.42 1.4 9 9 0 0 1-1.15 1.5l-2.25 2.44h4.1zm6.63-3.26a3.85 3.85 0 0 1-.72 2.51 2.71 2.71 0 0 1-4 0 3.81 3.81 0 0 1-.73-2.51v-2a3.78 3.78 0 0 1 .73-2.5 2.68 2.68 0 0 1 4 0 3.78 3.78 0 0 1 .73 2.5zm-1.15-2.27a2.9 2.9 0 0 0-.4-1.66 1.36 1.36 0 0 0-1.17-.56 1.34 1.34 0 0 0-1.16.56 2.9 2.9 0 0 0-.4 1.66v2.5a2.83 2.83 0 0 0 .41 1.67 1.47 1.47 0 0 0 2.32 0 2.87 2.87 0 0 0 .4-1.68zm3.67 5.24l-.88 1.8H82l.41-1.85v-1h1.16zm6.61-2.97a3.85 3.85 0 0 1-.72 2.51 2.71 2.71 0 0 1-4 0 3.81 3.81 0 0 1-.73-2.51v-2a3.78 3.78 0 0 1 .73-2.5 2.68 2.68 0 0 1 4 0 3.78 3.78 0 0 1 .73 2.5zM89 112.16a2.82 2.82 0 0 0-.41-1.66 1.48 1.48 0 0 0-2.32 0 2.9 2.9 0 0 0-.4 1.66v2.5a2.83 2.83 0 0 0 .41 1.67 1.47 1.47 0 0 0 2.32 0 3 3 0 0 0 .4-1.68zm8 2.27a3.85 3.85 0 0 1-.72 2.51 2.44 2.44 0 0 1-2 .87 2.49 2.49 0 0 1-2-.87 3.81 3.81 0 0 1-.73-2.51v-2a3.78 3.78 0 0 1 .73-2.5 2.68 2.68 0 0 1 4 0 3.78 3.78 0 0 1 .73 2.5zm-1.15-2.27a2.9 2.9 0 0 0-.4-1.66 1.49 1.49 0 0 0-2.33 0 2.9 2.9 0 0 0-.4 1.66v2.5a2.83 2.83 0 0 0 .41 1.67 1.35 1.35 0 0 0 1.17.57 1.33 1.33 0 0 0 1.15-.56 2.87 2.87 0 0 0 .4-1.68zm7.86 2.27a3.85 3.85 0 0 1-.72 2.51 2.43 2.43 0 0 1-2 .87 2.49 2.49 0 0 1-2-.87 3.87 3.87 0 0 1-.73-2.51v-2a3.84 3.84 0 0 1 .73-2.5 2.68 2.68 0 0 1 4 0 3.78 3.78 0 0 1 .73 2.5zm-1.15-2.27a2.82 2.82 0 0 0-.4-1.66 1.49 1.49 0 0 0-2.33 0 2.91 2.91 0 0 0-.39 1.66v2.5a2.84 2.84 0 0 0 .4 1.67 1.35 1.35 0 0 0 1.17.57 1.33 1.33 0 0 0 1.15-.56 2.87 2.87 0 0 0 .4-1.68zm3.67 5.24l-.88 1.8h-.69l.41-1.85v-1h1.16zm6.61-2.97a3.85 3.85 0 0 1-.72 2.51 2.43 2.43 0 0 1-2 .87 2.49 2.49 0 0 1-2-.87 3.87 3.87 0 0 1-.73-2.51v-2a3.78 3.78 0 0 1 .73-2.5 2.68 2.68 0 0 1 4 0 3.78 3.78 0 0 1 .73 2.5zm-1.15-2.27a2.9 2.9 0 0 0-.4-1.66 1.49 1.49 0 0 0-2.33 0 2.91 2.91 0 0 0-.39 1.66v2.5a2.84 2.84 0 0 0 .4 1.67 1.35 1.35 0 0 0 1.17.57 1.33 1.33 0 0 0 1.15-.56 2.87 2.87 0 0 0 .4-1.68zm7.91 2.27a3.85 3.85 0 0 1-.72 2.51 2.7 2.7 0 0 1-4 0 3.81 3.81 0 0 1-.74-2.51v-2a3.84 3.84 0 0 1 .73-2.5 2.69 2.69 0 0 1 4 0 3.84 3.84 0 0 1 .72 2.5zm-1.15-2.27a2.82 2.82 0 0 0-.4-1.66 1.36 1.36 0 0 0-1.16-.56 1.33 1.33 0 0 0-1.16.56 2.82 2.82 0 0 0-.4 1.66v2.5a2.84 2.84 0 0 0 .4 1.67 1.35 1.35 0 0 0 1.17.57 1.31 1.31 0 0 0 1.15-.56 2.87 2.87 0 0 0 .4-1.68zm7.92 2.27a3.85 3.85 0 0 1-.73 2.51 2.43 2.43 0 0 1-2 .87 2.47 2.47 0 0 1-2-.87 3.81 3.81 0 0 1-.74-2.51v-2a3.84 3.84 0 0 1 .73-2.5 2.69 2.69 0 0 1 4 0 3.84 3.84 0 0 1 .73 2.5zm-1.16-2.27a2.82 2.82 0 0 0-.4-1.66 1.48 1.48 0 0 0-2.32 0 2.82 2.82 0 0 0-.4 1.66v2.5a2.84 2.84 0 0 0 .4 1.67 1.48 1.48 0 0 0 2.33 0 3 3 0 0 0 .39-1.68z" class="cls-3"/></g><g id="_140_000_000" data-name="140 000 000" class="cls-3"><path d="M65.45 90.36h-1.16V83h-1.74v-.83l2.9-.31zm8.06-2.87h1.18v.9h-1.18v2h-1.14v-2h-3.84v-.65l3.77-5.91h1.21zm-3.75 0h2.61v-4l-.11.29zm11.3-.39a3.85 3.85 0 0 1-.72 2.51 2.71 2.71 0 0 1-4 0 3.81 3.81 0 0 1-.73-2.51v-2a3.78 3.78 0 0 1 .73-2.5 2.68 2.68 0 0 1 4 0 3.78 3.78 0 0 1 .73 2.5zm-1.15-2.27a2.9 2.9 0 0 0-.4-1.66 1.36 1.36 0 0 0-1.17-.56 1.34 1.34 0 0 0-1.16.56 2.9 2.9 0 0 0-.4 1.66v2.5a2.89 2.89 0 0 0 .41 1.67 1.36 1.36 0 0 0 1.16.56 1.33 1.33 0 0 0 1.16-.56 2.87 2.87 0 0 0 .4-1.68zm3.67 5.25l-.88 1.79H82l.42-1.87v-1h1.16zm6.61-2.98a3.85 3.85 0 0 1-.72 2.51 2.71 2.71 0 0 1-4 0 3.81 3.81 0 0 1-.73-2.51v-2a3.78 3.78 0 0 1 .73-2.5 2.68 2.68 0 0 1 4 0 3.78 3.78 0 0 1 .73 2.5zM89 84.83a2.82 2.82 0 0 0-.41-1.66 1.48 1.48 0 0 0-2.32 0 2.9 2.9 0 0 0-.4 1.66v2.5a2.89 2.89 0 0 0 .45 1.67 1.36 1.36 0 0 0 1.16.56 1.33 1.33 0 0 0 1.16-.56 3 3 0 0 0 .4-1.68zm8 2.27a3.85 3.85 0 0 1-.72 2.51 2.44 2.44 0 0 1-2 .87 2.49 2.49 0 0 1-2-.87 3.81 3.81 0 0 1-.73-2.51v-2a3.78 3.78 0 0 1 .73-2.5 2.68 2.68 0 0 1 4 0 3.78 3.78 0 0 1 .73 2.5zm-1.2-2.27a2.9 2.9 0 0 0-.4-1.66 1.49 1.49 0 0 0-2.33 0 2.9 2.9 0 0 0-.4 1.66v2.5a2.89 2.89 0 0 0 .41 1.67 1.36 1.36 0 0 0 1.17.56A1.33 1.33 0 0 0 95.4 89a2.87 2.87 0 0 0 .4-1.68zm7.91 2.27a3.85 3.85 0 0 1-.72 2.51 2.43 2.43 0 0 1-2 .87 2.49 2.49 0 0 1-2-.87 3.87 3.87 0 0 1-.73-2.51v-2a3.84 3.84 0 0 1 .73-2.5 2.68 2.68 0 0 1 4 0 3.78 3.78 0 0 1 .73 2.5zm-1.15-2.27a2.82 2.82 0 0 0-.4-1.66 1.49 1.49 0 0 0-2.33 0 2.91 2.91 0 0 0-.39 1.66v2.5a2.89 2.89 0 0 0 .4 1.68 1.36 1.36 0 0 0 1.17.56 1.33 1.33 0 0 0 1.15-.56 2.87 2.87 0 0 0 .4-1.68zm3.67 5.25l-.88 1.79h-.69l.41-1.85v-1h1.16zm6.61-2.98a3.85 3.85 0 0 1-.72 2.51 2.43 2.43 0 0 1-2 .87 2.49 2.49 0 0 1-2-.87 3.87 3.87 0 0 1-.73-2.51v-2a3.78 3.78 0 0 1 .73-2.5 2.68 2.68 0 0 1 4 0 3.78 3.78 0 0 1 .73 2.5zm-1.15-2.27a2.9 2.9 0 0 0-.4-1.66 1.49 1.49 0 0 0-2.33 0 2.91 2.91 0 0 0-.39 1.66v2.5A2.89 2.89 0 0 0 109 89a1.36 1.36 0 0 0 1.17.56 1.33 1.33 0 0 0 1.15-.56 2.87 2.87 0 0 0 .4-1.68zm7.91 2.27a3.85 3.85 0 0 1-.72 2.51 2.7 2.7 0 0 1-4 0 3.81 3.81 0 0 1-.74-2.51v-2a3.84 3.84 0 0 1 .73-2.5 2.69 2.69 0 0 1 4 0 3.84 3.84 0 0 1 .72 2.5zm-1.15-2.27a2.82 2.82 0 0 0-.4-1.66 1.36 1.36 0 0 0-1.16-.56 1.33 1.33 0 0 0-1.16.56 2.82 2.82 0 0 0-.4 1.66v2.5a2.89 2.89 0 0 0 .4 1.68 1.36 1.36 0 0 0 1.17.56 1.31 1.31 0 0 0 1.15-.56 2.87 2.87 0 0 0 .4-1.68zm7.92 2.27a3.85 3.85 0 0 1-.73 2.51 2.43 2.43 0 0 1-2 .87 2.47 2.47 0 0 1-2-.87 3.81 3.81 0 0 1-.74-2.51v-2a3.84 3.84 0 0 1 .73-2.5 2.69 2.69 0 0 1 4 0 3.84 3.84 0 0 1 .73 2.5zm-1.16-2.27a2.82 2.82 0 0 0-.4-1.66 1.48 1.48 0 0 0-2.32 0 2.82 2.82 0 0 0-.4 1.66v2.5a2.89 2.89 0 0 0 .4 1.68 1.36 1.36 0 0 0 1.17.56 1.34 1.34 0 0 0 1.16-.56 3 3 0 0 0 .39-1.68z" class="cls-3"/></g><g id="_80_000_000" data-name="80 000 000" class="cls-3"><path d="M74.13 166a1.93 1.93 0 0 1-.38 1.17 2.19 2.19 0 0 1-1 .74 2.51 2.51 0 0 1 1.18.81 1.94 1.94 0 0 1 .44 1.27 2.18 2.18 0 0 1-.77 1.81 3 3 0 0 1-2 .62 3.09 3.09 0 0 1-2-.62 2.2 2.2 0 0 1-.76-1.81 2 2 0 0 1 .43-1.27 2.46 2.46 0 0 1 1.18-.81 2.19 2.19 0 0 1-1-.74 2 2 0 0 1-.36-1.17 2.21 2.21 0 0 1 .69-1.74 2.69 2.69 0 0 1 1.84-.61 2.72 2.72 0 0 1 1.84.61 2.19 2.19 0 0 1 .67 1.74zm-.91 4a1.57 1.57 0 0 0-.47-1.16 1.61 1.61 0 0 0-1.17-.45A1.54 1.54 0 0 0 70 170a1.45 1.45 0 0 0 .45 1.13 1.85 1.85 0 0 0 2.35 0 1.43 1.43 0 0 0 .42-1.13zm-.22-3.94a1.49 1.49 0 0 0-.4-1.05 1.44 1.44 0 0 0-2 0 1.48 1.48 0 0 0-.38 1.06 1.41 1.41 0 0 0 .39 1 1.3 1.3 0 0 0 1 .4 1.32 1.32 0 0 0 1-.4 1.41 1.41 0 0 0 .39-1.01zm8.06 3.03a3.82 3.82 0 0 1-.72 2.5 2.71 2.71 0 0 1-4 0 3.77 3.77 0 0 1-.73-2.5v-2a3.81 3.81 0 0 1 .73-2.51 2.7 2.7 0 0 1 4 0 3.81 3.81 0 0 1 .73 2.51zm-1.15-2.27a2.88 2.88 0 0 0-.4-1.66 1.34 1.34 0 0 0-1.17-.56 1.32 1.32 0 0 0-1.16.56 2.88 2.88 0 0 0-.4 1.66v2.5a2.83 2.83 0 0 0 .41 1.67 1.34 1.34 0 0 0 1.16.57 1.32 1.32 0 0 0 1.16-.57 2.84 2.84 0 0 0 .4-1.67zm3.67 5.24l-.88 1.79H82l.41-1.85v-.95h1.16zm6.61-2.97a3.82 3.82 0 0 1-.72 2.5 2.71 2.71 0 0 1-4 0 3.77 3.77 0 0 1-.73-2.5v-2a3.81 3.81 0 0 1 .73-2.51 2.7 2.7 0 0 1 4 0 3.81 3.81 0 0 1 .73 2.51zM89 166.82a2.8 2.8 0 0 0-.41-1.66 1.48 1.48 0 0 0-2.32 0 2.88 2.88 0 0 0-.4 1.66v2.5a2.83 2.83 0 0 0 .41 1.67 1.34 1.34 0 0 0 1.16.57 1.32 1.32 0 0 0 1.16-.57 2.92 2.92 0 0 0 .4-1.67zm8 2.27a3.82 3.82 0 0 1-.72 2.5 2.44 2.44 0 0 1-2 .87 2.49 2.49 0 0 1-2-.87 3.77 3.77 0 0 1-.73-2.5v-2a3.81 3.81 0 0 1 .73-2.51 2.7 2.7 0 0 1 4 0 3.81 3.81 0 0 1 .73 2.51zm-1.15-2.27a2.88 2.88 0 0 0-.4-1.66 1.49 1.49 0 0 0-2.33 0 2.88 2.88 0 0 0-.4 1.66v2.5a2.83 2.83 0 0 0 .41 1.67 1.35 1.35 0 0 0 1.17.57 1.31 1.31 0 0 0 1.1-.56 2.84 2.84 0 0 0 .4-1.67zm7.86 2.27a3.82 3.82 0 0 1-.72 2.5 2.43 2.43 0 0 1-2 .87 2.49 2.49 0 0 1-2-.87 3.82 3.82 0 0 1-.73-2.5v-2a3.87 3.87 0 0 1 .73-2.51 2.7 2.7 0 0 1 4 0 3.81 3.81 0 0 1 .73 2.51zm-1.15-2.27a2.8 2.8 0 0 0-.4-1.66 1.49 1.49 0 0 0-2.33 0 2.89 2.89 0 0 0-.39 1.66v2.5a2.84 2.84 0 0 0 .4 1.67 1.35 1.35 0 0 0 1.17.57 1.31 1.31 0 0 0 1.15-.57 2.84 2.84 0 0 0 .4-1.67zm3.67 5.24l-.88 1.79h-.69l.41-1.85v-.95h1.16zm6.61-2.97a3.82 3.82 0 0 1-.72 2.5 2.43 2.43 0 0 1-2 .87 2.49 2.49 0 0 1-2-.87 3.82 3.82 0 0 1-.73-2.5v-2a3.81 3.81 0 0 1 .73-2.51 2.7 2.7 0 0 1 4 0 3.81 3.81 0 0 1 .73 2.51zm-1.15-2.27a2.88 2.88 0 0 0-.4-1.66 1.49 1.49 0 0 0-2.33 0 2.89 2.89 0 0 0-.39 1.66v2.5A2.84 2.84 0 0 0 109 171a1.35 1.35 0 0 0 1.17.57 1.31 1.31 0 0 0 1.15-.57 2.84 2.84 0 0 0 .4-1.67zm7.91 2.27a3.82 3.82 0 0 1-.72 2.5 2.7 2.7 0 0 1-4 0 3.77 3.77 0 0 1-.74-2.5v-2a3.87 3.87 0 0 1 .73-2.51 2.71 2.71 0 0 1 4 0 3.87 3.87 0 0 1 .72 2.51zm-1.15-2.27a2.8 2.8 0 0 0-.4-1.66 1.33 1.33 0 0 0-1.16-.56 1.31 1.31 0 0 0-1.16.56 2.8 2.8 0 0 0-.4 1.66v2.5a2.84 2.84 0 0 0 .4 1.67 1.35 1.35 0 0 0 1.17.57 1.3 1.3 0 0 0 1.15-.57 2.84 2.84 0 0 0 .4-1.67zm7.92 2.27a3.82 3.82 0 0 1-.73 2.5 2.43 2.43 0 0 1-2 .87 2.47 2.47 0 0 1-2-.87 3.77 3.77 0 0 1-.74-2.5v-2a3.87 3.87 0 0 1 .73-2.51 2.71 2.71 0 0 1 4 0 3.87 3.87 0 0 1 .73 2.51zm-1.16-2.27a2.8 2.8 0 0 0-.4-1.66 1.48 1.48 0 0 0-2.32 0 2.8 2.8 0 0 0-.4 1.66v2.5a2.84 2.84 0 0 0 .4 1.67 1.35 1.35 0 0 0 1.17.57 1.33 1.33 0 0 0 1.16-.57 2.92 2.92 0 0 0 .39-1.67z" class="cls-3"/></g><g id="_100_000_000" data-name="100 000 000" class="cls-3"><path d="M65.44 145h-1.15v-7.4h-1.75v-.83l2.9-.32zm8.86-3.24a3.85 3.85 0 0 1-.72 2.51 2.7 2.7 0 0 1-4 0 3.77 3.77 0 0 1-.73-2.5v-2a3.77 3.77 0 0 1 .73-2.5 2.68 2.68 0 0 1 4 0 3.77 3.77 0 0 1 .73 2.5zm-1.15-2.27a2.8 2.8 0 0 0-.41-1.66 1.48 1.48 0 0 0-2.32 0 2.88 2.88 0 0 0-.4 1.66V142a2.83 2.83 0 0 0 .41 1.67 1.47 1.47 0 0 0 2.32 0 3 3 0 0 0 .4-1.68zm7.91 2.27a3.85 3.85 0 0 1-.72 2.51 2.7 2.7 0 0 1-4 0 3.77 3.77 0 0 1-.73-2.5v-2a3.77 3.77 0 0 1 .73-2.5 2.68 2.68 0 0 1 4 0 3.77 3.77 0 0 1 .73 2.5zm-1.15-2.27a2.88 2.88 0 0 0-.4-1.66 1.34 1.34 0 0 0-1.17-.56 1.32 1.32 0 0 0-1.16.56 2.88 2.88 0 0 0-.4 1.66V142a2.83 2.83 0 0 0 .41 1.67 1.47 1.47 0 0 0 2.32 0 2.89 2.89 0 0 0 .4-1.68zm3.67 5.24l-.88 1.8H82l.41-1.86v-.95h1.16zm6.61-2.97a3.85 3.85 0 0 1-.72 2.51 2.7 2.7 0 0 1-4 0 3.77 3.77 0 0 1-.73-2.5v-2a3.77 3.77 0 0 1 .73-2.5 2.68 2.68 0 0 1 4 0 3.77 3.77 0 0 1 .73 2.5zM89 139.49a2.8 2.8 0 0 0-.41-1.66 1.48 1.48 0 0 0-2.32 0 2.88 2.88 0 0 0-.4 1.66V142a2.83 2.83 0 0 0 .41 1.67 1.47 1.47 0 0 0 2.32 0A3 3 0 0 0 89 142zm8 2.27a3.85 3.85 0 0 1-.72 2.51 2.7 2.7 0 0 1-4 0 3.77 3.77 0 0 1-.73-2.5v-2a3.77 3.77 0 0 1 .73-2.5 2.68 2.68 0 0 1 4 0 3.77 3.77 0 0 1 .73 2.5zm-1.15-2.27a2.88 2.88 0 0 0-.4-1.66 1.49 1.49 0 0 0-2.33 0 2.88 2.88 0 0 0-.4 1.66V142a2.83 2.83 0 0 0 .41 1.67 1.35 1.35 0 0 0 1.17.57 1.33 1.33 0 0 0 1.15-.56 2.89 2.89 0 0 0 .4-1.68zm7.86 2.27a3.85 3.85 0 0 1-.72 2.51 2.43 2.43 0 0 1-2 .87 2.46 2.46 0 0 1-2-.88 3.82 3.82 0 0 1-.73-2.5v-2a3.82 3.82 0 0 1 .73-2.5 2.68 2.68 0 0 1 4 0 3.77 3.77 0 0 1 .73 2.5zm-1.15-2.27a2.8 2.8 0 0 0-.4-1.66 1.49 1.49 0 0 0-2.33 0 2.89 2.89 0 0 0-.39 1.66V142a2.84 2.84 0 0 0 .4 1.67 1.35 1.35 0 0 0 1.17.57 1.33 1.33 0 0 0 1.15-.56 2.89 2.89 0 0 0 .4-1.68zm3.67 5.24l-.88 1.8h-.69l.41-1.86v-.95h1.16zm6.61-2.97a3.85 3.85 0 0 1-.72 2.51 2.43 2.43 0 0 1-2 .87 2.46 2.46 0 0 1-2-.88 3.82 3.82 0 0 1-.73-2.5v-2a3.77 3.77 0 0 1 .73-2.5 2.68 2.68 0 0 1 4 0 3.77 3.77 0 0 1 .73 2.5zm-1.15-2.27a2.88 2.88 0 0 0-.4-1.66 1.49 1.49 0 0 0-2.33 0 2.89 2.89 0 0 0-.39 1.66V142a2.84 2.84 0 0 0 .4 1.67 1.35 1.35 0 0 0 1.17.57 1.33 1.33 0 0 0 1.15-.56 2.89 2.89 0 0 0 .4-1.68zm7.91 2.27a3.85 3.85 0 0 1-.72 2.51 2.69 2.69 0 0 1-4 0 3.77 3.77 0 0 1-.74-2.5v-2a3.82 3.82 0 0 1 .73-2.5 2.69 2.69 0 0 1 4 0 3.82 3.82 0 0 1 .72 2.5zm-1.15-2.27a2.8 2.8 0 0 0-.4-1.66 1.33 1.33 0 0 0-1.16-.56 1.31 1.31 0 0 0-1.16.56 2.8 2.8 0 0 0-.4 1.66V142a2.84 2.84 0 0 0 .4 1.67 1.35 1.35 0 0 0 1.17.57 1.31 1.31 0 0 0 1.15-.56 2.89 2.89 0 0 0 .4-1.68zm7.92 2.27a3.85 3.85 0 0 1-.73 2.51 2.69 2.69 0 0 1-4 0 3.77 3.77 0 0 1-.74-2.5v-2a3.82 3.82 0 0 1 .73-2.5 2.69 2.69 0 0 1 4 0 3.82 3.82 0 0 1 .73 2.5zm-1.16-2.27a2.8 2.8 0 0 0-.4-1.66 1.48 1.48 0 0 0-2.32 0 2.8 2.8 0 0 0-.4 1.66V142a2.84 2.84 0 0 0 .4 1.67 1.48 1.48 0 0 0 2.33 0 3 3 0 0 0 .39-1.68z" class="cls-3"/></g><g id="_40_000_000" data-name="40 000 000" class="cls-3"><path d="M73.51 224.13h1.18v.87h-1.18v2h-1.14v-2h-3.84v-.65l3.77-5.92h1.21zm-3.75 0h2.61v-4l-.11.29zm11.3-.38a3.82 3.82 0 0 1-.72 2.5 2.71 2.71 0 0 1-4 0 3.78 3.78 0 0 1-.73-2.5v-2a3.81 3.81 0 0 1 .73-2.51 2.7 2.7 0 0 1 4 0 3.81 3.81 0 0 1 .73 2.51zm-1.15-2.27a2.94 2.94 0 0 0-.4-1.67 1.36 1.36 0 0 0-1.17-.56 1.34 1.34 0 0 0-1.16.56 2.94 2.94 0 0 0-.4 1.67V224a2.86 2.86 0 0 0 .41 1.67 1.33 1.33 0 0 0 1.16.56 1.31 1.31 0 0 0 1.16-.56 2.84 2.84 0 0 0 .4-1.67zm3.67 5.24l-.88 1.79H82l.41-1.85v-.95h1.16zm6.61-2.97a3.82 3.82 0 0 1-.72 2.5 2.71 2.71 0 0 1-4 0 3.78 3.78 0 0 1-.73-2.5v-2a3.81 3.81 0 0 1 .73-2.51 2.7 2.7 0 0 1 4 0 3.81 3.81 0 0 1 .73 2.51zM89 221.48a2.86 2.86 0 0 0-.41-1.67 1.48 1.48 0 0 0-2.32 0 2.94 2.94 0 0 0-.4 1.67V224a2.86 2.86 0 0 0 .41 1.67 1.33 1.33 0 0 0 1.16.56 1.31 1.31 0 0 0 1.16-.56A2.92 2.92 0 0 0 89 224zm8 2.27a3.82 3.82 0 0 1-.72 2.5 2.44 2.44 0 0 1-2 .87 2.49 2.49 0 0 1-2-.87 3.78 3.78 0 0 1-.73-2.5v-2a3.81 3.81 0 0 1 .73-2.51 2.7 2.7 0 0 1 4 0 3.81 3.81 0 0 1 .73 2.51zm-1.15-2.27a2.94 2.94 0 0 0-.4-1.67 1.49 1.49 0 0 0-2.33 0 2.94 2.94 0 0 0-.4 1.67V224a2.86 2.86 0 0 0 .41 1.67 1.34 1.34 0 0 0 1.17.56 1.3 1.3 0 0 0 1.15-.56 2.84 2.84 0 0 0 .4-1.67zm7.86 2.27a3.82 3.82 0 0 1-.72 2.5 2.43 2.43 0 0 1-2 .87 2.49 2.49 0 0 1-2-.87 3.84 3.84 0 0 1-.73-2.5v-2a3.87 3.87 0 0 1 .73-2.51 2.7 2.7 0 0 1 4 0 3.81 3.81 0 0 1 .73 2.51zm-1.15-2.27a2.86 2.86 0 0 0-.4-1.67 1.49 1.49 0 0 0-2.33 0 2.94 2.94 0 0 0-.39 1.67V224a2.86 2.86 0 0 0 .4 1.67 1.34 1.34 0 0 0 1.17.56 1.3 1.3 0 0 0 1.15-.56 2.84 2.84 0 0 0 .4-1.67zm3.67 5.24l-.88 1.79h-.69l.41-1.85v-.95h1.16zm6.61-2.97a3.82 3.82 0 0 1-.72 2.5 2.43 2.43 0 0 1-2 .87 2.49 2.49 0 0 1-2-.87 3.84 3.84 0 0 1-.73-2.5v-2a3.81 3.81 0 0 1 .73-2.51 2.7 2.7 0 0 1 4 0 3.81 3.81 0 0 1 .73 2.51zm-1.15-2.27a2.94 2.94 0 0 0-.4-1.67 1.49 1.49 0 0 0-2.33 0 2.94 2.94 0 0 0-.39 1.67V224a2.86 2.86 0 0 0 .4 1.67 1.34 1.34 0 0 0 1.17.56 1.3 1.3 0 0 0 1.15-.56 2.84 2.84 0 0 0 .4-1.67zm7.91 2.27a3.82 3.82 0 0 1-.72 2.5 2.7 2.7 0 0 1-4 0 3.79 3.79 0 0 1-.74-2.5v-2a3.87 3.87 0 0 1 .73-2.51 2.71 2.71 0 0 1 4 0 3.87 3.87 0 0 1 .72 2.51zm-1.15-2.27a2.86 2.86 0 0 0-.4-1.67 1.36 1.36 0 0 0-1.16-.56 1.33 1.33 0 0 0-1.16.56 2.86 2.86 0 0 0-.4 1.67V224a2.86 2.86 0 0 0 .4 1.67 1.34 1.34 0 0 0 1.17.56 1.29 1.29 0 0 0 1.15-.56 2.84 2.84 0 0 0 .4-1.67zm7.92 2.27a3.82 3.82 0 0 1-.73 2.5 2.43 2.43 0 0 1-2 .87 2.47 2.47 0 0 1-2-.87 3.79 3.79 0 0 1-.74-2.5v-2a3.87 3.87 0 0 1 .73-2.51 2.71 2.71 0 0 1 4 0 3.87 3.87 0 0 1 .73 2.51zm-1.16-2.27a2.86 2.86 0 0 0-.4-1.67 1.48 1.48 0 0 0-2.32 0 2.86 2.86 0 0 0-.4 1.67V224a2.86 2.86 0 0 0 .4 1.67 1.34 1.34 0 0 0 1.17.56 1.32 1.32 0 0 0 1.16-.56 2.92 2.92 0 0 0 .39-1.67z" class="cls-3"/></g><g id="_60_000_000" data-name="60 000 000" class="cls-3"><path d="M72.17 191a3.69 3.69 0 0 1 .87.1 2.79 2.79 0 0 1 .71.25l-.25.88a3.92 3.92 0 0 0-.6-.23 2.63 2.63 0 0 0-.73-.1 1.79 1.79 0 0 0-1.48.74 3.07 3.07 0 0 0-.56 1.91v.13a2.76 2.76 0 0 1 .86-.51 3 3 0 0 1 1-.19 2.27 2.27 0 0 1 1.82.8 2.91 2.91 0 0 1 .68 2 3.2 3.2 0 0 1-.72 2.16 2.41 2.41 0 0 1-1.93.83 2.66 2.66 0 0 1-2.07-.9 3.68 3.68 0 0 1-.82-2.56v-1.61a3.82 3.82 0 0 1 .95-2.7 2.92 2.92 0 0 1 2.27-1zm-.4 3.85a2 2 0 0 0-1 .24 1.68 1.68 0 0 0-.64.63v.69a2.92 2.92 0 0 0 .5 1.82 1.54 1.54 0 0 0 1.25.64 1.24 1.24 0 0 0 1.1-.6 2.61 2.61 0 0 0 .4-1.49 2.21 2.21 0 0 0-.42-1.39 1.44 1.44 0 0 0-1.19-.52zm9.29 1.57a3.82 3.82 0 0 1-.72 2.5 2.71 2.71 0 0 1-4 0 3.78 3.78 0 0 1-.73-2.5v-2a3.81 3.81 0 0 1 .73-2.51 2.7 2.7 0 0 1 4 0 3.81 3.81 0 0 1 .73 2.51zm-1.15-2.27a2.94 2.94 0 0 0-.4-1.67 1.36 1.36 0 0 0-1.17-.56 1.34 1.34 0 0 0-1.16.56 2.94 2.94 0 0 0-.4 1.67v2.5a2.86 2.86 0 0 0 .41 1.67 1.34 1.34 0 0 0 1.16.57 1.32 1.32 0 0 0 1.16-.57 2.84 2.84 0 0 0 .4-1.67zm3.67 5.24l-.88 1.79H82l.41-1.85v-1h1.16zm6.61-2.97a3.82 3.82 0 0 1-.72 2.5 2.71 2.71 0 0 1-4 0 3.78 3.78 0 0 1-.73-2.5v-2a3.81 3.81 0 0 1 .73-2.51 2.7 2.7 0 0 1 4 0 3.81 3.81 0 0 1 .73 2.51zM89 194.15a2.86 2.86 0 0 0-.41-1.67 1.48 1.48 0 0 0-2.32 0 2.94 2.94 0 0 0-.4 1.67v2.5a2.86 2.86 0 0 0 .41 1.67 1.34 1.34 0 0 0 1.16.57 1.32 1.32 0 0 0 1.16-.57 2.92 2.92 0 0 0 .4-1.67zm8 2.27a3.82 3.82 0 0 1-.72 2.5 2.44 2.44 0 0 1-2 .87 2.49 2.49 0 0 1-2-.87 3.78 3.78 0 0 1-.73-2.5v-2a3.81 3.81 0 0 1 .73-2.51 2.7 2.7 0 0 1 4 0 3.81 3.81 0 0 1 .72 2.49zm-1.15-2.27a2.94 2.94 0 0 0-.4-1.67 1.49 1.49 0 0 0-2.33 0 2.94 2.94 0 0 0-.4 1.67v2.5a2.86 2.86 0 0 0 .41 1.67 1.35 1.35 0 0 0 1.17.57 1.31 1.31 0 0 0 1.15-.57 2.84 2.84 0 0 0 .4-1.67zm7.86 2.27a3.82 3.82 0 0 1-.72 2.5 2.43 2.43 0 0 1-2 .87 2.49 2.49 0 0 1-2-.87 3.84 3.84 0 0 1-.73-2.5v-2a3.87 3.87 0 0 1 .73-2.51 2.7 2.7 0 0 1 4 0 3.81 3.81 0 0 1 .73 2.51zm-1.15-2.27a2.86 2.86 0 0 0-.4-1.67 1.49 1.49 0 0 0-2.33 0 2.94 2.94 0 0 0-.39 1.67v2.5a2.86 2.86 0 0 0 .4 1.67 1.35 1.35 0 0 0 1.17.57 1.31 1.31 0 0 0 1.15-.57 2.84 2.84 0 0 0 .4-1.67zm3.67 5.24l-.88 1.79h-.69l.41-1.85v-1h1.16zm6.61-2.97a3.82 3.82 0 0 1-.72 2.5 2.43 2.43 0 0 1-2 .87 2.49 2.49 0 0 1-2-.87 3.84 3.84 0 0 1-.73-2.5v-2a3.81 3.81 0 0 1 .73-2.51 2.7 2.7 0 0 1 4 0 3.81 3.81 0 0 1 .73 2.51zm-1.15-2.27a2.94 2.94 0 0 0-.4-1.67 1.49 1.49 0 0 0-2.33 0 2.94 2.94 0 0 0-.39 1.67v2.5a2.86 2.86 0 0 0 .4 1.67 1.35 1.35 0 0 0 1.17.57 1.31 1.31 0 0 0 1.15-.57 2.84 2.84 0 0 0 .4-1.67zm7.91 2.27a3.82 3.82 0 0 1-.72 2.5 2.7 2.7 0 0 1-4 0 3.79 3.79 0 0 1-.74-2.5v-2a3.87 3.87 0 0 1 .73-2.51 2.71 2.71 0 0 1 4 0 3.87 3.87 0 0 1 .72 2.51zm-1.15-2.27a2.86 2.86 0 0 0-.4-1.67 1.36 1.36 0 0 0-1.16-.56 1.33 1.33 0 0 0-1.16.56 2.86 2.86 0 0 0-.4 1.67v2.5a2.86 2.86 0 0 0 .4 1.67 1.35 1.35 0 0 0 1.17.57 1.3 1.3 0 0 0 1.15-.57 2.84 2.84 0 0 0 .4-1.67zm7.92 2.27a3.82 3.82 0 0 1-.73 2.5 2.43 2.43 0 0 1-2 .87 2.47 2.47 0 0 1-2-.87 3.79 3.79 0 0 1-.74-2.5v-2a3.87 3.87 0 0 1 .73-2.51 2.71 2.71 0 0 1 4 0 3.87 3.87 0 0 1 .73 2.51zm-1.16-2.27a2.86 2.86 0 0 0-.4-1.67 1.48 1.48 0 0 0-2.32 0 2.86 2.86 0 0 0-.4 1.67v2.5a2.86 2.86 0 0 0 .4 1.67 1.35 1.35 0 0 0 1.17.57 1.33 1.33 0 0 0 1.16-.57 2.92 2.92 0 0 0 .39-1.67z" class="cls-3"/></g><g id="_20_000_000" data-name="20 000 000" class="cls-3"><path d="M74.43 254.33H68.9v-.8l2.8-3.1a7.32 7.32 0 0 0 1-1.33 2.07 2.07 0 0 0 .27-1 1.58 1.58 0 0 0-.37-1.07 1.25 1.25 0 0 0-1-.44 1.66 1.66 0 0 0-1.3.46 1.79 1.79 0 0 0-.42 1.27h-1.09a2.4 2.4 0 0 1 .73-1.86 2.88 2.88 0 0 1 2.11-.75 2.51 2.51 0 0 1 1.83.67 2.29 2.29 0 0 1 .69 1.71 2.7 2.7 0 0 1-.42 1.4 8.61 8.61 0 0 1-1.15 1.5l-2.25 2.44h4.1zm6.63-3.25a3.82 3.82 0 0 1-.72 2.5 2.71 2.71 0 0 1-4 0 3.78 3.78 0 0 1-.73-2.5v-2a3.78 3.78 0 0 1 .73-2.5 2.68 2.68 0 0 1 4 0 3.78 3.78 0 0 1 .73 2.5zm-1.15-2.27a2.92 2.92 0 0 0-.4-1.67 1.36 1.36 0 0 0-1.17-.56 1.34 1.34 0 0 0-1.16.56 2.92 2.92 0 0 0-.4 1.67v2.5a2.88 2.88 0 0 0 .41 1.67 1.36 1.36 0 0 0 1.16.56 1.31 1.31 0 0 0 1.16-.56 2.84 2.84 0 0 0 .4-1.67zm3.67 5.24l-.88 1.79H82l.41-1.85v-1h1.16zm6.61-2.97a3.82 3.82 0 0 1-.72 2.5 2.71 2.71 0 0 1-4 0 3.78 3.78 0 0 1-.73-2.5v-2a3.78 3.78 0 0 1 .73-2.5 2.68 2.68 0 0 1 4 0 3.78 3.78 0 0 1 .73 2.5zM89 248.81a2.83 2.83 0 0 0-.41-1.67 1.48 1.48 0 0 0-2.32 0 2.92 2.92 0 0 0-.4 1.67v2.5a2.88 2.88 0 0 0 .41 1.67 1.36 1.36 0 0 0 1.16.56 1.31 1.31 0 0 0 1.16-.56 2.92 2.92 0 0 0 .4-1.67zm8 2.27a3.82 3.82 0 0 1-.72 2.5 2.44 2.44 0 0 1-2 .87 2.49 2.49 0 0 1-2-.87 3.78 3.78 0 0 1-.73-2.5v-2a3.78 3.78 0 0 1 .73-2.5 2.68 2.68 0 0 1 4 0 3.78 3.78 0 0 1 .73 2.5zm-1.15-2.27a2.92 2.92 0 0 0-.4-1.67 1.49 1.49 0 0 0-2.33 0 2.92 2.92 0 0 0-.4 1.67v2.5a2.88 2.88 0 0 0 .41 1.67 1.36 1.36 0 0 0 1.17.56 1.3 1.3 0 0 0 1.1-.54 2.84 2.84 0 0 0 .4-1.67zm7.86 2.27a3.82 3.82 0 0 1-.72 2.5 2.43 2.43 0 0 1-2 .87 2.49 2.49 0 0 1-2-.87 3.84 3.84 0 0 1-.73-2.5v-2a3.84 3.84 0 0 1 .73-2.5 2.68 2.68 0 0 1 4 0 3.78 3.78 0 0 1 .73 2.5zm-1.15-2.27a2.84 2.84 0 0 0-.4-1.67 1.49 1.49 0 0 0-2.33 0 2.92 2.92 0 0 0-.39 1.67v2.5a2.88 2.88 0 0 0 .4 1.67 1.36 1.36 0 0 0 1.17.56 1.3 1.3 0 0 0 1.15-.56 2.84 2.84 0 0 0 .4-1.67zm3.67 5.24l-.88 1.79h-.69l.41-1.85v-1h1.16zm6.61-2.97a3.82 3.82 0 0 1-.72 2.5 2.43 2.43 0 0 1-2 .87 2.49 2.49 0 0 1-2-.87 3.84 3.84 0 0 1-.73-2.5v-2a3.78 3.78 0 0 1 .73-2.5 2.68 2.68 0 0 1 4 0 3.78 3.78 0 0 1 .73 2.5zm-1.15-2.27a2.92 2.92 0 0 0-.4-1.67 1.49 1.49 0 0 0-2.33 0 2.92 2.92 0 0 0-.39 1.67v2.5A2.88 2.88 0 0 0 109 253a1.36 1.36 0 0 0 1.17.56 1.3 1.3 0 0 0 1.15-.56 2.84 2.84 0 0 0 .4-1.67zm7.91 2.27a3.82 3.82 0 0 1-.72 2.5 2.7 2.7 0 0 1-4 0 3.79 3.79 0 0 1-.74-2.5v-2a3.84 3.84 0 0 1 .73-2.5 2.69 2.69 0 0 1 4 0 3.84 3.84 0 0 1 .72 2.5zm-1.15-2.27a2.84 2.84 0 0 0-.4-1.67 1.36 1.36 0 0 0-1.16-.56 1.33 1.33 0 0 0-1.16.56 2.84 2.84 0 0 0-.4 1.67v2.5a2.88 2.88 0 0 0 .4 1.67 1.36 1.36 0 0 0 1.17.56 1.29 1.29 0 0 0 1.15-.56 2.84 2.84 0 0 0 .4-1.67zm7.92 2.27a3.82 3.82 0 0 1-.73 2.5 2.43 2.43 0 0 1-2 .87 2.47 2.47 0 0 1-2-.87 3.79 3.79 0 0 1-.74-2.5v-2a3.84 3.84 0 0 1 .73-2.5 2.69 2.69 0 0 1 4 0 3.84 3.84 0 0 1 .73 2.5zm-1.16-2.27a2.84 2.84 0 0 0-.4-1.67 1.48 1.48 0 0 0-2.32 0 2.84 2.84 0 0 0-.4 1.67v2.5a2.88 2.88 0 0 0 .4 1.67 1.36 1.36 0 0 0 1.17.56 1.32 1.32 0 0 0 1.16-.56 2.92 2.92 0 0 0 .39-1.67z" class="cls-3"/></g><g id="_0" data-name="0" class="cls-3"><path d="M126.37 276.78a3.82 3.82 0 0 1-.73 2.5 2.43 2.43 0 0 1-2 .87 2.47 2.47 0 0 1-2-.87 3.79 3.79 0 0 1-.74-2.5v-2a3.84 3.84 0 0 1 .73-2.5 2.69 2.69 0 0 1 4 0 3.84 3.84 0 0 1 .73 2.5zm-1.16-2.27a2.84 2.84 0 0 0-.4-1.67 1.48 1.48 0 0 0-2.32 0 2.84 2.84 0 0 0-.4 1.67V277a2.88 2.88 0 0 0 .4 1.67 1.36 1.36 0 0 0 1.17.56 1.32 1.32 0 0 0 1.16-.56 2.92 2.92 0 0 0 .39-1.67z" class="cls-3"/></g><path id="Rectangle_204" data-name="Rectangle 204" class="cls-4" d="M737.62 136h23v143.03h-23z"/><path id="Rectangle_228" data-name="Rectangle 228" class="cls-6" d="M810.51 79.5h23v199.53h-23z"/><path id="Rectangle_228-2" data-name="Rectangle 228" class="cls-7" d="M774.07 107.5h23v171.53h-23z"/><path id="Rectangle_205" data-name="Rectangle 205" class="cls-4" d="M701.18 156h23v123.03h-23z"/><path id="Rectangle_680" data-name="Rectangle 680" class="cls-4" d="M664.73 222h23v57.03h-23z"/><path id="Rectangle_206" data-name="Rectangle 206" class="cls-4" d="M628.29 237h23v42.03h-23z"/><path id="Rectangle_207" data-name="Rectangle 207" class="cls-4" d="M591.84 259.03h23v20h-23z"/><path id="Rectangle_210" data-name="Rectangle 210" class="cls-4" d="M300.29 270.83h23v8.19h-23z"/><path id="Rectangle_677" data-name="Rectangle 677" class="cls-4" d="M263.84 271.67h23v7.36h-23z"/><path id="Path_540" data-name="Path 540" class="cls-4" d="M154.51 278.37h23v.63h-23z"/><path id="Path_541" data-name="Path 541" class="cls-4" d="M191 278.37h23v.63h-23z"/><path id="Path_542" data-name="Path 542" class="cls-4" d="M227.4 277.5h23v1.5h-23z"/><path id="Rectangle_212" data-name="Rectangle 212" class="cls-4" d="M336.73 270.17h23v8.86h-23z"/><path id="Rectangle_678" data-name="Rectangle 678" class="cls-4" d="M409.62 266h23v13.03h-23z"/><path id="Rectangle_214" data-name="Rectangle 214" class="cls-4" d="M446.07 262.5h23v16.53h-23z"/><path id="Rectangle_679" data-name="Rectangle 679" class="cls-4" d="M482.51 264.17h23v14.86h-23z"/><path id="Rectangle_215" data-name="Rectangle 215" class="cls-4" d="M373.18 263.17h23v15.86h-23z"/><path id="Rectangle_216" data-name="Rectangle 216" class="cls-4" d="M555.4 263.33h23v15.69h-23z"/><path id="Rectangle_217" data-name="Rectangle 217" class="cls-4" d="M518.96 265h23v14.03h-23z"/><g id="projected" class="cls-3"><g class="cls-3"><path class="cls-1" d="M822.91 202.53a4.1 4.1 0 0 1 2.58.77 2.53 2.53 0 0 1 1 2.11 3 3 0 0 1-.23 1.2 2.28 2.28 0 0 1-.69.88h3.62v1.35h-10.26v-1l1-.21a2.49 2.49 0 0 1-.81-.9 2.66 2.66 0 0 1-.28-1.26 2.44 2.44 0 0 1 1.09-2.13 4.93 4.93 0 0 1 2.88-.77zm-.15 1.35a3.92 3.92 0 0 0-2.07.5 1.6 1.6 0 0 0-.81 1.46 1.79 1.79 0 0 0 .27 1 1.92 1.92 0 0 0 .72.66h3.57a2 2 0 0 0 .71-.66 1.9 1.9 0 0 0 .26-1 1.68 1.68 0 0 0-.7-1.45 3.07 3.07 0 0 0-1.81-.49zm-2.64-6.5v.69a1.52 1.52 0 0 0 .25.9 1.61 1.61 0 0 0 .71.56h5.28v1.35h-7.39v-1.2l1.08-.13a2.56 2.56 0 0 1-.9-.78 1.84 1.84 0 0 1-.32-1.06 2.64 2.64 0 0 1 0-.29 1.62 1.62 0 0 1 .06-.22zm2.44-.85a4 4 0 0 1-2.71-.89 3 3 0 0 1-1.06-2.41 3 3 0 0 1 1.06-2.43 4.09 4.09 0 0 1 2.71-.89h.15a4 4 0 0 1 2.7.89 3 3 0 0 1 1.06 2.42 3 3 0 0 1-1.06 2.42 4 4 0 0 1-2.7.89zm.14-1.34a3.49 3.49 0 0 0 1.94-.5 1.79 1.79 0 0 0 0-2.94 3.49 3.49 0 0 0-1.94-.5h-.15a3.45 3.45 0 0 0-1.93.51 1.78 1.78 0 0 0 0 2.93 3.53 3.53 0 0 0 1.93.5zm-5.7-8.44v1.35h-1.35v-1.35zm1.92 0h8a2.42 2.42 0 0 1 1.76.59 2.14 2.14 0 0 1 .62 1.63 2.38 2.38 0 0 1 0 .39 3.28 3.28 0 0 1-.09.37l-1.06-.1a1.91 1.91 0 0 0 .06-.27v-.29a.89.89 0 0 0-.3-.71 1.46 1.46 0 0 0-1-.26h-8zm7.55-5.18a3.15 3.15 0 0 1-1 2.46 3.93 3.93 0 0 1-2.67.91h-.3a3.83 3.83 0 0 1-2.63-.94 2.9 2.9 0 0 1-1.05-2.23 2.81 2.81 0 0 1 .9-2.26 3.61 3.61 0 0 1 2.41-.76h.84v4.79a2.85 2.85 0 0 0 1.75-.54 1.7 1.7 0 0 0 .69-1.45 3.35 3.35 0 0 0-.2-1.2 2.81 2.81 0 0 0-.53-.89l.87-.53a3.15 3.15 0 0 1 .66 1.05 4.26 4.26 0 0 1 .26 1.59zm-6.62.2a1.47 1.47 0 0 0 .57 1.16 2.73 2.73 0 0 0 1.43.59v-3.41h-.18a2 2 0 0 0-1.32.43 1.51 1.51 0 0 0-.5 1.23zm5.56-7.54a1.8 1.8 0 0 0-.42-1.18 1.25 1.25 0 0 0-1-.51v-1.21a2.1 2.1 0 0 1 1.7.86 3.08 3.08 0 0 1 .75 2.06 3 3 0 0 1-1.06 2.46 4 4 0 0 1-2.64.86h-.29a4 4 0 0 1-2.63-.86 3.36 3.36 0 0 1-.29-4.59 2.36 2.36 0 0 1 1.88-.79v1.22a1.55 1.55 0 0 0-1.15.48 1.64 1.64 0 0 0-.48 1.21 1.61 1.61 0 0 0 .76 1.51 3.62 3.62 0 0 0 1.87.46h.28a3.62 3.62 0 0 0 1.89-.46 1.6 1.6 0 0 0 .83-1.52zm-8.27-6.23h1.79v-1.41h1V168h4.5a1 1 0 0 0 .73-.22.77.77 0 0 0 .21-.57 1.3 1.3 0 0 0 0-.26 1.82 1.82 0 0 0-.07-.25l.93-.17a1.13 1.13 0 0 1 .2.44 2.32 2.32 0 0 1 .08.58 1.76 1.76 0 0 1-.5 1.31 2.16 2.16 0 0 1-1.55.48h-4.5v1.18h-1v-1.18h-1.79zm9.33-6.11a3.15 3.15 0 0 1-1 2.46 3.88 3.88 0 0 1-2.67.91h-.3a3.79 3.79 0 0 1-2.63-.94 2.87 2.87 0 0 1-1.05-2.22 2.8 2.8 0 0 1 .9-2.26 3.61 3.61 0 0 1 2.41-.77h.84v4.8a2.85 2.85 0 0 0 1.75-.54 1.72 1.72 0 0 0 .69-1.46 3.33 3.33 0 0 0-.2-1.19 2.86 2.86 0 0 0-.53-.9l.87-.52a3.21 3.21 0 0 1 .66 1 4.34 4.34 0 0 1 .26 1.63zm-6.62.21a1.44 1.44 0 0 0 .57 1.15 2.65 2.65 0 0 0 1.43.59v-3.41h-.18a2.08 2.08 0 0 0-1.32.42 1.52 1.52 0 0 0-.5 1.25zm2.91-4.23a5 5 0 0 1-2.88-.76 2.45 2.45 0 0 1-1.09-2.14 2.63 2.63 0 0 1 .24-1.15 2.32 2.32 0 0 1 .7-.86h-4.07v-1.35h10.66v1.1l-.91.16a2.4 2.4 0 0 1 .79.89 2.64 2.64 0 0 1 .27 1.22 2.54 2.54 0 0 1-1 2.12 4.1 4.1 0 0 1-2.58.77zm.15-1.35a3.11 3.11 0 0 0 1.79-.46 1.59 1.59 0 0 0 .67-1.42 1.79 1.79 0 0 0-.27-1 2 2 0 0 0-.77-.67h-3.45a2.14 2.14 0 0 0-.73.67 1.8 1.8 0 0 0-.27 1 1.54 1.54 0 0 0 .8 1.43 4.13 4.13 0 0 0 2.08.46z"/></g></g></svg>