<svg width="940" height="410" viewBox="0 0 940 410" xmlns="http://www.w3.org/2000/svg" xmlns:xlink="http://www.w3.org/1999/xlink"><title>Client Withdrawals</title><defs><path id="a" d="M0 0h940v410H0z"/></defs><g fill="none" fill-rule="evenodd"><mask id="b" fill="#fff"><use xlink:href="#a"/></mask><g mask="url(#b)"><path d="M20.903 132.62c0-.39-.136-.718-.409-.984-.273-.267-.733-.508-1.38-.724-.902-.275-1.559-.634-1.972-1.076-.412-.442-.618-1.004-.618-1.685 0-.694.202-1.263.606-1.708.404-.444.96-.708 1.666-.793v-1.39h.946v1.396c.71.098 1.264.396 1.66.895.395.5.593 1.183.593 2.05h-1.168c0-.596-.141-1.07-.425-1.421-.284-.352-.667-.527-1.149-.527-.504 0-.889.13-1.155.39-.267.26-.4.623-.4 1.089 0 .431.14.775.422 1.031.281.256.745.49 1.39.699.645.209 1.15.44 1.51.691.363.252.63.545.8.88.172.334.258.725.258 1.174 0 .715-.215 1.29-.645 1.726-.429.436-1.031.695-1.805.775v1.212h-.94v-1.212c-.787-.072-1.404-.352-1.85-.841-.447-.489-.67-1.152-.67-1.99h1.174c0 .588.155 1.04.464 1.358.309.318.747.476 1.314.476.554 0 .99-.133 1.307-.4.318-.266.476-.63.476-1.091zm6.494 2.38h-1.18v-7.827l-2.368.87v-1.066l3.364-1.264h.184V135zm9.236-3.942c0 1.375-.235 2.397-.705 3.066s-1.204 1.003-2.202 1.003c-.986 0-1.716-.327-2.19-.98-.474-.655-.72-1.631-.737-2.93v-1.568c0-1.358.235-2.368.705-3.028.47-.66 1.206-.99 2.209-.99.995 0 1.727.318 2.196.955.47.637.711 1.62.724 2.949v1.523zm-1.174-1.606c0-.994-.14-1.719-.42-2.174-.279-.455-.72-.682-1.326-.682-.6 0-1.039.226-1.314.679-.275.453-.417 1.149-.425 2.088v1.88c0 .998.145 1.735.435 2.211.29.476.729.714 1.317.714.58 0 1.01-.224 1.291-.672.282-.449.429-1.156.442-2.12v-1.924zm8.474 1.606c0 1.375-.235 2.397-.705 3.066s-1.204 1.003-2.202 1.003c-.986 0-1.716-.327-2.19-.98-.474-.655-.72-1.631-.737-2.93v-1.568c0-1.358.235-2.368.705-3.028.47-.66 1.206-.99 2.209-.99.994 0 1.726.318 2.196.955.47.637.711 1.62.724 2.949v1.523zm-1.175-1.606c0-.994-.14-1.719-.419-2.174-.279-.455-.721-.682-1.326-.682-.601 0-1.04.226-1.314.679-.275.453-.417 1.149-.425 2.088v1.88c0 .998.145 1.735.434 2.211.29.476.73.714 1.318.714.58 0 1.01-.224 1.291-.672.282-.449.429-1.156.441-2.12v-1.924zm2.762 7.389l-.667-.457c.398-.555.605-1.126.622-1.714v-1.06h1.15v.92c0 .428-.106.855-.315 1.282-.21.428-.473.77-.79 1.029zm8.264-5.783c0 1.375-.235 2.397-.704 3.066-.47.669-1.204 1.003-2.203 1.003-.986 0-1.716-.327-2.19-.98-.474-.655-.72-1.631-.736-2.93v-1.568c0-1.358.235-2.368.704-3.028.47-.66 1.206-.99 2.21-.99.994 0 1.726.318 2.196.955.47.637.71 1.62.723 2.949v1.523zm-1.174-1.606c0-.994-.14-1.719-.419-2.174-.28-.455-.721-.682-1.327-.682-.6 0-1.039.226-1.314.679-.275.453-.416 1.149-.425 2.088v1.88c0 .998.145 1.735.435 2.211.29.476.729.714 1.317.714.58 0 1.01-.224 1.292-.672.281-.449.428-1.156.441-2.12v-1.924zm8.474 1.606c0 1.375-.235 2.397-.704 3.066-.47.669-1.204 1.003-2.203 1.003-.986 0-1.716-.327-2.19-.98-.474-.655-.72-1.631-.736-2.93v-1.568c0-1.358.234-2.368.704-3.028.47-.66 1.206-.99 2.21-.99.994 0 1.726.318 2.195.955.47.637.711 1.62.724 2.949v1.523zm-1.174-1.606c0-.994-.14-1.719-.42-2.174-.278-.455-.72-.682-1.326-.682-.6 0-1.039.226-1.314.679-.275.453-.417 1.149-.425 2.088v1.88c0 .998.145 1.735.435 2.211.29.476.729.714 1.317.714.58 0 1.01-.224 1.292-.672.281-.449.428-1.156.44-2.12v-1.924zm8.474 1.606c0 1.375-.235 2.397-.705 3.066s-1.204 1.003-2.202 1.003c-.986 0-1.716-.327-2.19-.98-.474-.655-.72-1.631-.737-2.93v-1.568c0-1.358.235-2.368.705-3.028.47-.66 1.206-.99 2.209-.99.994 0 1.727.318 2.196.955.47.637.711 1.62.724 2.949v1.523zm-1.174-1.606c0-.994-.14-1.719-.42-2.174-.279-.455-.72-.682-1.326-.682-.6 0-1.039.226-1.314.679-.275.453-.417 1.149-.425 2.088v1.88c0 .998.145 1.735.435 2.211.29.476.728.714 1.317.714.58 0 1.01-.224 1.291-.672.282-.449.429-1.156.442-2.12v-1.924zm2.76 7.389l-.666-.457c.398-.555.605-1.126.622-1.714v-1.06h1.15v.92c0 .428-.105.855-.315 1.282-.21.428-.473.77-.79 1.029zm8.265-5.783c0 1.375-.234 2.397-.704 3.066s-1.204 1.003-2.203 1.003c-.986 0-1.716-.327-2.19-.98-.474-.655-.72-1.631-.736-2.93v-1.568c0-1.358.235-2.368.705-3.028.47-.66 1.206-.99 2.209-.99.994 0 1.726.318 2.196.955.47.637.71 1.62.723 2.949v1.523zm-1.174-1.606c0-.994-.14-1.719-.419-2.174-.28-.455-.721-.682-1.326-.682-.601 0-1.04.226-1.314.679-.275.453-.417 1.149-.426 2.088v1.88c0 .998.145 1.735.435 2.211.29.476.729.714 1.317.714.58 0 1.01-.224 1.292-.672.281-.449.428-1.156.441-2.12v-1.924zm8.474 1.606c0 1.375-.235 2.397-.704 3.066-.47.669-1.204 1.003-2.203 1.003-.986 0-1.716-.327-2.19-.98-.474-.655-.72-1.631-.736-2.93v-1.568c0-1.358.235-2.368.704-3.028.47-.66 1.206-.99 2.21-.99.994 0 1.726.318 2.196.955.47.637.71 1.62.723 2.949v1.523zm-1.174-1.606c0-.994-.14-1.719-.419-2.174-.28-.455-.721-.682-1.327-.682-.6 0-1.039.226-1.314.679-.275.453-.416 1.149-.425 2.088v1.88c0 .998.145 1.735.435 2.211.29.476.729.714 1.317.714.58 0 1.01-.224 1.292-.672.281-.449.428-1.156.441-2.12v-1.924zm8.474 1.606c0 1.375-.235 2.397-.704 3.066-.47.669-1.204 1.003-2.203 1.003-.986 0-1.716-.327-2.19-.98-.474-.655-.72-1.631-.736-2.93v-1.568c0-1.358.234-2.368.704-3.028.47-.66 1.206-.99 2.21-.99.994 0 1.726.318 2.195.955.47.637.711 1.62.724 2.949v1.523zm-1.174-1.606c0-.994-.14-1.719-.42-2.174-.278-.455-.72-.682-1.326-.682-.6 0-1.039.226-1.314.679-.275.453-.417 1.149-.425 2.088v1.88c0 .998.145 1.735.435 2.211.29.476.729.714 1.317.714.58 0 1.01-.224 1.292-.672.281-.449.428-1.156.44-2.12v-1.924z" fill="#000"/><path fill="#DEDEDE" d="M100 129h760v2H100z"/><path d="M20.903 92.62c0-.39-.136-.718-.409-.984-.273-.267-.733-.508-1.38-.724-.902-.275-1.559-.634-1.972-1.076-.412-.442-.618-1.004-.618-1.685 0-.694.202-1.263.606-1.708.404-.444.96-.708 1.666-.793v-1.39h.946v1.396c.71.098 1.264.396 1.66.895.395.5.593 1.183.593 2.05h-1.168c0-.596-.141-1.07-.425-1.421-.284-.352-.667-.527-1.149-.527-.504 0-.889.13-1.155.39-.267.26-.4.623-.4 1.089 0 .431.14.775.422 1.031.281.256.745.49 1.39.699.645.209 1.15.44 1.51.691.363.252.63.545.8.88.172.334.258.725.258 1.174 0 .715-.215 1.29-.645 1.726-.429.436-1.031.695-1.805.775v1.212h-.94v-1.212c-.787-.072-1.404-.352-1.85-.841-.447-.489-.67-1.152-.67-1.99h1.174c0 .588.155 1.04.464 1.358.309.318.747.476 1.314.476.554 0 .99-.133 1.307-.4.318-.266.476-.63.476-1.091zM27.397 95h-1.18v-7.827l-2.368.87v-1.066l3.364-1.264h.184V95zm9.496 0h-6.055v-.844l3.199-3.555c.474-.537.8-.974.98-1.31.18-.337.27-.685.27-1.045 0-.482-.146-.878-.438-1.187-.292-.309-.681-.463-1.168-.463-.584 0-1.038.166-1.361.498-.324.332-.486.795-.486 1.387H30.66c0-.85.274-1.538.822-2.063.548-.525 1.281-.787 2.2-.787.858 0 1.538.225 2.037.676.5.45.749 1.05.749 1.8 0 .91-.58 1.993-1.74 3.25l-2.475 2.685h4.64V95zm7.04-3.942c0 1.375-.235 2.397-.705 3.066s-1.204 1.003-2.202 1.003c-.986 0-1.716-.327-2.19-.98-.474-.655-.72-1.631-.737-2.93v-1.568c0-1.358.235-2.368.705-3.028.47-.66 1.206-.99 2.209-.99.994 0 1.726.318 2.196.955.47.637.711 1.62.724 2.949v1.523zm-1.175-1.606c0-.994-.14-1.719-.419-2.174-.279-.455-.721-.682-1.326-.682-.601 0-1.04.226-1.314.679-.275.453-.417 1.149-.425 2.088v1.88c0 .998.145 1.735.434 2.211.29.476.73.714 1.318.714.58 0 1.01-.224 1.291-.672.282-.449.429-1.156.441-2.12v-1.924zm2.762 7.389l-.667-.457c.398-.555.605-1.126.622-1.714v-1.06h1.15v.92c0 .428-.106.855-.315 1.282-.21.428-.473.77-.79 1.029zm8.264-5.783c0 1.375-.235 2.397-.704 3.066-.47.669-1.204 1.003-2.203 1.003-.986 0-1.716-.327-2.19-.98-.474-.655-.72-1.631-.736-2.93v-1.568c0-1.358.235-2.368.704-3.028.47-.66 1.206-.99 2.21-.99.994 0 1.726.318 2.196.955.47.637.71 1.62.723 2.949v1.523zm-1.174-1.606c0-.994-.14-1.719-.419-2.174-.28-.455-.721-.682-1.327-.682-.6 0-1.039.226-1.314.679-.275.453-.416 1.149-.425 2.088v1.88c0 .998.145 1.735.435 2.211.29.476.729.714 1.317.714.58 0 1.01-.224 1.292-.672.281-.449.428-1.156.441-2.12v-1.924zm8.474 1.606c0 1.375-.235 2.397-.704 3.066-.47.669-1.204 1.003-2.203 1.003-.986 0-1.716-.327-2.19-.98-.474-.655-.72-1.631-.736-2.93v-1.568c0-1.358.234-2.368.704-3.028.47-.66 1.206-.99 2.21-.99.994 0 1.726.318 2.195.955.47.637.711 1.62.724 2.949v1.523zm-1.174-1.606c0-.994-.14-1.719-.42-2.174-.278-.455-.72-.682-1.326-.682-.6 0-1.039.226-1.314.679-.275.453-.417 1.149-.425 2.088v1.88c0 .998.145 1.735.435 2.211.29.476.729.714 1.317.714.58 0 1.01-.224 1.292-.672.281-.449.428-1.156.44-2.12v-1.924zm8.474 1.606c0 1.375-.235 2.397-.705 3.066s-1.204 1.003-2.202 1.003c-.986 0-1.716-.327-2.19-.98-.474-.655-.72-1.631-.737-2.93v-1.568c0-1.358.235-2.368.705-3.028.47-.66 1.206-.99 2.209-.99.994 0 1.727.318 2.196.955.47.637.711 1.62.724 2.949v1.523zm-1.174-1.606c0-.994-.14-1.719-.42-2.174-.279-.455-.72-.682-1.326-.682-.6 0-1.039.226-1.314.679-.275.453-.417 1.149-.425 2.088v1.88c0 .998.145 1.735.435 2.211.29.476.728.714 1.317.714.58 0 1.01-.224 1.291-.672.282-.449.429-1.156.442-2.12v-1.924zm2.76 7.389l-.666-.457c.398-.555.605-1.126.622-1.714v-1.06h1.15v.92c0 .428-.105.855-.315 1.283-.21.427-.473.77-.79 1.028zm8.265-5.783c0 1.375-.234 2.397-.704 3.066s-1.204 1.003-2.203 1.003c-.986 0-1.716-.327-2.19-.98-.474-.655-.72-1.631-.736-2.93v-1.568c0-1.358.235-2.368.705-3.028.47-.66 1.206-.99 2.209-.99.994 0 1.726.318 2.196.955.47.637.71 1.62.723 2.949v1.523zm-1.174-1.606c0-.994-.14-1.719-.419-2.174-.28-.455-.721-.682-1.326-.682-.601 0-1.04.226-1.314.679-.275.453-.417 1.149-.426 2.088v1.88c0 .998.145 1.735.435 2.211.29.476.729.714 1.317.714.58 0 1.01-.224 1.292-.672.281-.449.428-1.156.441-2.12v-1.924zm8.474 1.606c0 1.375-.235 2.397-.704 3.066-.47.669-1.204 1.003-2.203 1.003-.986 0-1.716-.327-2.19-.98-.474-.655-.72-1.631-.736-2.93v-1.568c0-1.358.235-2.368.704-3.028.47-.66 1.206-.99 2.21-.99.994 0 1.726.318 2.196.955.47.637.71 1.62.723 2.949v1.523zm-1.174-1.606c0-.994-.14-1.719-.419-2.174-.28-.455-.721-.682-1.327-.682-.6 0-1.039.226-1.314.679-.275.453-.416 1.149-.425 2.088v1.88c0 .998.145 1.735.435 2.211.29.476.729.714 1.317.714.58 0 1.01-.224 1.292-.672.281-.449.428-1.156.441-2.12v-1.924zm8.474 1.606c0 1.375-.235 2.397-.704 3.066-.47.669-1.204 1.003-2.203 1.003-.986 0-1.716-.327-2.19-.98-.474-.655-.72-1.631-.736-2.93v-1.568c0-1.358.234-2.368.704-3.028.47-.66 1.206-.99 2.21-.99.994 0 1.726.318 2.195.955.47.637.711 1.62.724 2.949v1.523zm-1.174-1.606c0-.994-.14-1.719-.42-2.174-.278-.455-.72-.682-1.326-.682-.6 0-1.039.226-1.314.679-.275.453-.417 1.149-.425 2.088v1.88c0 .998.145 1.735.435 2.211.29.476.729.714 1.317.714.58 0 1.01-.224 1.292-.672.281-.449.428-1.156.44-2.12v-1.924z" fill="#000"/><path fill="#DEDEDE" d="M100 89h760v2H100z"/><path d="M20.903 52.62c0-.39-.136-.718-.409-.984-.273-.267-.733-.508-1.38-.724-.902-.275-1.559-.634-1.972-1.076-.412-.442-.618-1.004-.618-1.685 0-.694.202-1.263.606-1.708.404-.444.96-.708 1.666-.793v-1.39h.946v1.396c.71.098 1.264.396 1.66.895.395.5.593 1.183.593 2.05h-1.168c0-.596-.141-1.07-.425-1.421-.284-.352-.667-.527-1.149-.527-.504 0-.889.13-1.155.39-.267.26-.4.623-.4 1.089 0 .431.14.775.422 1.031.281.256.745.49 1.39.699.645.209 1.15.44 1.51.691.363.252.63.545.8.88.172.334.258.725.258 1.174 0 .715-.215 1.29-.645 1.726-.429.436-1.031.695-1.805.775v1.212h-.94v-1.212c-.787-.072-1.404-.352-1.85-.841-.447-.489-.67-1.152-.67-1.99h1.174c0 .588.155 1.04.464 1.358.309.318.747.476 1.314.476.554 0 .99-.133 1.307-.4.318-.266.476-.63.476-1.091zM27.397 55h-1.18v-7.827l-2.368.87v-1.066l3.364-1.264h.184V55zm8.398-3.104h1.282v.958h-1.282V55h-1.18v-2.146h-4.21v-.691l4.14-6.405h1.25v6.138zm-4.056 0h2.875v-4.532l-.14.254-2.735 4.278zm12.194-.838c0 1.375-.235 2.397-.705 3.066s-1.204 1.003-2.202 1.003c-.986 0-1.716-.327-2.19-.98-.474-.655-.72-1.631-.737-2.93v-1.568c0-1.358.235-2.368.705-3.028.47-.66 1.206-.99 2.209-.99.994 0 1.726.318 2.196.955.47.637.711 1.62.724 2.949v1.523zm-1.175-1.606c0-.994-.14-1.719-.419-2.174-.279-.455-.721-.682-1.326-.682-.601 0-1.04.226-1.314.679-.275.453-.417 1.149-.425 2.088v1.88c0 .998.145 1.735.434 2.211.29.476.73.714 1.318.714.58 0 1.01-.224 1.291-.672.282-.449.429-1.156.441-2.12v-1.924zm2.762 7.389l-.667-.457c.398-.555.605-1.126.622-1.714v-1.06h1.15v.92c0 .428-.106.855-.315 1.282-.21.428-.473.77-.79 1.029zm8.264-5.783c0 1.375-.235 2.397-.704 3.066-.47.669-1.204 1.003-2.203 1.003-.986 0-1.716-.327-2.19-.98-.474-.655-.72-1.631-.736-2.93v-1.568c0-1.358.235-2.368.704-3.028.47-.66 1.206-.99 2.21-.99.994 0 1.726.318 2.196.955.47.637.71 1.62.723 2.949v1.523zm-1.174-1.606c0-.994-.14-1.719-.419-2.174-.28-.455-.721-.682-1.327-.682-.6 0-1.039.226-1.314.679-.275.453-.416 1.149-.425 2.088v1.88c0 .998.145 1.735.435 2.211.29.476.729.714 1.317.714.58 0 1.01-.224 1.292-.672.281-.449.428-1.156.441-2.12v-1.924zm8.474 1.606c0 1.375-.235 2.397-.704 3.066-.47.669-1.204 1.003-2.203 1.003-.986 0-1.716-.327-2.19-.98-.474-.655-.72-1.631-.736-2.93v-1.568c0-1.358.234-2.368.704-3.028.47-.66 1.206-.99 2.21-.99.994 0 1.726.318 2.195.955.47.637.711 1.62.724 2.949v1.523zm-1.174-1.606c0-.994-.14-1.719-.42-2.174-.278-.455-.72-.682-1.326-.682-.6 0-1.039.226-1.314.679-.275.453-.417 1.149-.425 2.088v1.88c0 .998.145 1.735.435 2.211.29.476.729.714 1.317.714.58 0 1.01-.224 1.292-.672.281-.449.428-1.156.44-2.12v-1.924zm8.474 1.606c0 1.375-.235 2.397-.705 3.066s-1.204 1.003-2.202 1.003c-.986 0-1.716-.327-2.19-.98-.474-.655-.72-1.631-.737-2.93v-1.568c0-1.358.235-2.368.705-3.028.47-.66 1.206-.99 2.209-.99.994 0 1.727.318 2.196.955.47.637.711 1.62.724 2.949v1.523zm-1.174-1.606c0-.994-.14-1.719-.42-2.174-.279-.455-.72-.682-1.326-.682-.6 0-1.039.226-1.314.679-.275.453-.417 1.149-.425 2.088v1.88c0 .998.145 1.735.435 2.211.29.476.728.714 1.317.714.58 0 1.01-.224 1.291-.672.282-.449.429-1.156.442-2.12v-1.924zm2.76 7.389l-.666-.457c.398-.555.605-1.126.622-1.714v-1.06h1.15v.92c0 .428-.105.855-.315 1.282-.21.428-.473.77-.79 1.029zm8.265-5.783c0 1.375-.234 2.397-.704 3.066s-1.204 1.003-2.203 1.003c-.986 0-1.716-.327-2.19-.98-.474-.655-.72-1.631-.736-2.93v-1.568c0-1.358.235-2.368.705-3.028.47-.66 1.206-.99 2.209-.99.994 0 1.726.318 2.196.955.47.637.71 1.62.723 2.949v1.523zm-1.174-1.606c0-.994-.14-1.719-.419-2.174-.28-.455-.721-.682-1.326-.682-.601 0-1.04.226-1.314.679-.275.453-.417 1.149-.426 2.088v1.88c0 .998.145 1.735.435 2.211.29.476.729.714 1.317.714.58 0 1.01-.224 1.292-.672.281-.449.428-1.156.441-2.12v-1.924zm8.474 1.606c0 1.375-.235 2.397-.704 3.066-.47.669-1.204 1.003-2.203 1.003-.986 0-1.716-.327-2.19-.98-.474-.655-.72-1.631-.736-2.93v-1.568c0-1.358.235-2.368.704-3.028.47-.66 1.206-.99 2.21-.99.994 0 1.726.318 2.196.955.47.637.71 1.62.723 2.949v1.523zm-1.174-1.606c0-.994-.14-1.719-.419-2.174-.28-.455-.721-.682-1.327-.682-.6 0-1.039.226-1.314.679-.275.453-.416 1.149-.425 2.088v1.88c0 .998.145 1.735.435 2.211.29.476.729.714 1.317.714.58 0 1.01-.224 1.292-.672.281-.449.428-1.156.441-2.12v-1.924zm8.474 1.606c0 1.375-.235 2.397-.704 3.066-.47.669-1.204 1.003-2.203 1.003-.986 0-1.716-.327-2.19-.98-.474-.655-.72-1.631-.736-2.93v-1.568c0-1.358.234-2.368.704-3.028.47-.66 1.206-.99 2.21-.99.994 0 1.726.318 2.195.955.47.637.711 1.62.724 2.949v1.523zm-1.174-1.606c0-.994-.14-1.719-.42-2.174-.278-.455-.72-.682-1.326-.682-.6 0-1.039.226-1.314.679-.275.453-.417 1.149-.425 2.088v1.88c0 .998.145 1.735.435 2.211.29.476.729.714 1.317.714.58 0 1.01-.224 1.292-.672.281-.449.428-1.156.44-2.12v-1.924z" fill="#000"/><path fill="#DEDEDE" d="M100 49h760v2H100z"/><path d="M28.203 172.62c0-.39-.136-.718-.41-.984-.272-.267-.732-.508-1.38-.724-.901-.275-1.558-.634-1.97-1.076-.413-.442-.62-1.004-.62-1.685 0-.694.202-1.263.607-1.708.404-.444.96-.708 1.666-.793v-1.39h.946v1.396c.71.098 1.264.396 1.66.895.395.5.593 1.183.593 2.05h-1.168c0-.596-.142-1.07-.425-1.421-.284-.352-.667-.527-1.15-.527-.503 0-.888.13-1.154.39-.267.26-.4.623-.4 1.089 0 .431.14.775.422 1.031.281.256.745.49 1.39.699.645.209 1.149.44 1.51.691.363.252.63.545.8.88.172.334.258.725.258 1.174 0 .715-.215 1.29-.645 1.726-.43.436-1.031.695-1.806.775v1.212h-.94v-1.212c-.786-.072-1.403-.352-1.85-.841-.446-.489-.67-1.152-.67-1.99h1.175c0 .588.155 1.04.464 1.358.309.318.747.476 1.314.476.554 0 .99-.133 1.307-.4.318-.266.476-.63.476-1.091zm8.24-4.45c0 .461-.122.872-.365 1.231-.244.36-.573.641-.988.845.483.207.865.51 1.146.907.282.398.422.849.422 1.352 0 .8-.27 1.437-.809 1.911-.54.474-1.25.711-2.13.711-.888 0-1.6-.238-2.136-.714-.535-.476-.803-1.112-.803-1.908 0-.499.137-.95.41-1.352a2.55 2.55 0 0 1 1.133-.914 2.422 2.422 0 0 1-.971-.844 2.177 2.177 0 0 1-.356-1.225c0-.779.25-1.397.75-1.854.499-.457 1.157-.685 1.973-.685.813 0 1.47.228 1.971.685.502.457.753 1.075.753 1.854zm-.959 4.31c0-.516-.164-.937-.492-1.263-.328-.326-.756-.489-1.285-.489-.53 0-.954.16-1.273.482-.32.322-.48.745-.48 1.27s.156.937.467 1.238c.311.3.744.45 1.298.45.55 0 .982-.15 1.295-.453.313-.303.47-.715.47-1.235zm-1.765-5.884c-.46 0-.834.143-1.12.428-.286.286-.428.674-.428 1.165 0 .47.14.85.422 1.14.281.29.657.434 1.126.434.47 0 .846-.145 1.127-.435.282-.29.422-.67.422-1.139 0-.47-.146-.853-.438-1.149-.292-.296-.662-.444-1.11-.444zm10.214 4.462c0 1.375-.235 2.397-.705 3.066s-1.204 1.003-2.202 1.003c-.986 0-1.716-.327-2.19-.98-.474-.655-.72-1.631-.737-2.93v-1.568c0-1.358.235-2.368.705-3.028.47-.66 1.206-.99 2.209-.99.994 0 1.726.318 2.196.955.47.637.711 1.62.724 2.949v1.523zm-1.175-1.606c0-.994-.14-1.719-.419-2.174-.279-.455-.721-.682-1.326-.682-.601 0-1.04.226-1.314.679-.275.453-.417 1.149-.425 2.088v1.88c0 .998.145 1.735.434 2.211.29.476.73.714 1.318.714.58 0 1.01-.224 1.291-.672.282-.449.429-1.156.441-2.12v-1.924zm2.762 7.389l-.667-.457c.398-.555.605-1.126.622-1.714v-1.06h1.15v.92c0 .428-.106.855-.315 1.282-.21.428-.473.77-.79 1.029zm8.264-5.783c0 1.375-.235 2.397-.704 3.066-.47.669-1.204 1.003-2.203 1.003-.986 0-1.716-.327-2.19-.98-.474-.655-.72-1.631-.736-2.93v-1.568c0-1.358.235-2.368.704-3.028.47-.66 1.206-.99 2.21-.99.994 0 1.726.318 2.196.955.47.637.71 1.62.723 2.949v1.523zm-1.174-1.606c0-.994-.14-1.719-.419-2.174-.28-.455-.721-.682-1.327-.682-.6 0-1.039.226-1.314.679-.275.453-.416 1.149-.425 2.088v1.88c0 .998.145 1.735.435 2.211.29.476.729.714 1.317.714.58 0 1.01-.224 1.292-.672.281-.449.428-1.156.441-2.12v-1.924zm8.474 1.606c0 1.375-.235 2.397-.704 3.066-.47.669-1.204 1.003-2.203 1.003-.986 0-1.716-.327-2.19-.98-.474-.655-.72-1.631-.736-2.93v-1.568c0-1.358.234-2.368.704-3.028.47-.66 1.206-.99 2.21-.99.994 0 1.726.318 2.195.955.47.637.711 1.62.724 2.949v1.523zm-1.174-1.606c0-.994-.14-1.719-.42-2.174-.278-.455-.72-.682-1.326-.682-.6 0-1.039.226-1.314.679-.275.453-.417 1.149-.425 2.088v1.88c0 .998.145 1.735.435 2.211.29.476.729.714 1.317.714.58 0 1.01-.224 1.292-.672.281-.449.428-1.156.44-2.12v-1.924zm8.474 1.606c0 1.375-.235 2.397-.705 3.066s-1.204 1.003-2.202 1.003c-.986 0-1.716-.327-2.19-.98-.474-.655-.72-1.631-.737-2.93v-1.568c0-1.358.235-2.368.705-3.028.47-.66 1.206-.99 2.209-.99.994 0 1.727.318 2.196.955.47.637.711 1.62.724 2.949v1.523zm-1.174-1.606c0-.994-.14-1.719-.42-2.174-.279-.455-.72-.682-1.326-.682-.6 0-1.039.226-1.314.679-.275.453-.417 1.149-.425 2.088v1.88c0 .998.145 1.735.435 2.211.29.476.728.714 1.317.714.58 0 1.01-.224 1.291-.672.282-.449.429-1.156.442-2.12v-1.924zm2.76 7.389l-.666-.457c.398-.555.605-1.126.622-1.714v-1.06h1.15v.92c0 .428-.105.855-.315 1.282-.21.428-.473.77-.79 1.029zm8.265-5.783c0 1.375-.234 2.397-.704 3.066s-1.204 1.003-2.203 1.003c-.986 0-1.716-.327-2.19-.98-.474-.655-.72-1.631-.736-2.93v-1.568c0-1.358.235-2.368.705-3.028.47-.66 1.206-.99 2.209-.99.994 0 1.726.318 2.196.955.47.637.71 1.62.723 2.949v1.523zm-1.174-1.606c0-.994-.14-1.719-.419-2.174-.28-.455-.721-.682-1.326-.682-.601 0-1.04.226-1.314.679-.275.453-.417 1.149-.426 2.088v1.88c0 .998.145 1.735.435 2.211.29.476.729.714 1.317.714.58 0 1.01-.224 1.292-.672.281-.449.428-1.156.441-2.12v-1.924zm8.474 1.606c0 1.375-.235 2.397-.704 3.066-.47.669-1.204 1.003-2.203 1.003-.986 0-1.716-.327-2.19-.98-.474-.655-.72-1.631-.736-2.93v-1.568c0-1.358.235-2.368.704-3.028.47-.66 1.206-.99 2.21-.99.994 0 1.726.318 2.196.955.47.637.71 1.62.723 2.949v1.523zm-1.174-1.606c0-.994-.14-1.719-.419-2.174-.28-.455-.721-.682-1.327-.682-.6 0-1.039.226-1.314.679-.275.453-.416 1.149-.425 2.088v1.88c0 .998.145 1.735.435 2.211.29.476.729.714 1.317.714.58 0 1.01-.224 1.292-.672.281-.449.428-1.156.441-2.12v-1.924zm8.474 1.606c0 1.375-.235 2.397-.704 3.066-.47.669-1.204 1.003-2.203 1.003-.986 0-1.716-.327-2.19-.98-.474-.655-.72-1.631-.736-2.93v-1.568c0-1.358.234-2.368.704-3.028.47-.66 1.206-.99 2.21-.99.994 0 1.726.318 2.195.955.47.637.711 1.62.724 2.949v1.523zm-1.174-1.606c0-.994-.14-1.719-.42-2.174-.278-.455-.72-.682-1.326-.682-.6 0-1.039.226-1.314.679-.275.453-.417 1.149-.425 2.088v1.88c0 .998.145 1.735.435 2.211.29.476.729.714 1.317.714.58 0 1.01-.224 1.292-.672.281-.449.428-1.156.44-2.12v-1.924z" fill="#000"/><path fill="#DEDEDE" d="M100 169h760v2H100z"/><path d="M28.203 212.62c0-.39-.136-.718-.41-.984-.272-.267-.732-.508-1.38-.724-.901-.275-1.558-.634-1.97-1.076-.413-.442-.62-1.004-.62-1.685 0-.694.202-1.263.607-1.708.404-.444.96-.708 1.666-.793v-1.39h.946v1.396c.71.098 1.264.396 1.66.895.395.5.593 1.183.593 2.05h-1.168c0-.596-.142-1.07-.425-1.421-.284-.352-.667-.527-1.15-.527-.503 0-.888.13-1.154.39-.267.26-.4.623-.4 1.089 0 .431.14.775.422 1.031.281.256.745.49 1.39.699.645.209 1.149.44 1.51.691.363.252.63.545.8.88.172.334.258.725.258 1.174 0 .715-.215 1.29-.645 1.726-.43.436-1.031.695-1.806.775v1.212h-.94v-1.212c-.786-.072-1.403-.352-1.85-.841-.446-.489-.67-1.152-.67-1.99h1.175c0 .588.155 1.04.464 1.358.309.318.747.476 1.314.476.554 0 .99-.133 1.307-.4.318-.266.476-.63.476-1.091zm7.243-6.869v.997h-.216c-.914.017-1.642.288-2.183.813-.542.524-.855 1.263-.94 2.215.487-.559 1.151-.838 1.993-.838.804 0 1.446.284 1.927.85.48.568.72 1.3.72 2.197 0 .952-.259 1.714-.777 2.285-.519.571-1.214.857-2.086.857-.884 0-1.601-.34-2.151-1.019-.55-.679-.826-1.554-.826-2.625v-.45c0-1.701.363-3.002 1.089-3.9.726-.9 1.806-1.36 3.24-1.382h.21zm-1.543 4.165c-.402 0-.772.12-1.11.361a1.885 1.885 0 0 0-.705.908v.432c0 .761.171 1.375.514 1.84.343.466.77.699 1.282.699.53 0 .945-.195 1.248-.584.302-.39.454-.9.454-1.53 0-.635-.154-1.148-.46-1.54a1.475 1.475 0 0 0-1.223-.586zm10.03 1.142c0 1.375-.235 2.397-.705 3.066s-1.204 1.003-2.202 1.003c-.986 0-1.716-.327-2.19-.98-.474-.655-.72-1.631-.737-2.93v-1.568c0-1.358.235-2.368.705-3.028.47-.66 1.206-.99 2.209-.99.994 0 1.726.318 2.196.955.47.637.711 1.62.724 2.949v1.523zm-1.175-1.606c0-.994-.14-1.719-.419-2.174-.279-.455-.721-.682-1.326-.682-.601 0-1.04.226-1.314.679-.275.453-.417 1.149-.425 2.088v1.88c0 .998.145 1.735.434 2.211.29.476.73.714 1.318.714.58 0 1.01-.224 1.291-.672.282-.449.429-1.156.441-2.12v-1.924zm2.762 7.389l-.667-.457c.398-.555.605-1.126.622-1.714v-1.06h1.15v.92c0 .428-.106.855-.315 1.282-.21.428-.473.77-.79 1.029zm8.264-5.783c0 1.375-.235 2.397-.704 3.066-.47.669-1.204 1.003-2.203 1.003-.986 0-1.716-.327-2.19-.98-.474-.655-.72-1.631-.736-2.93v-1.568c0-1.358.235-2.368.704-3.028.47-.66 1.206-.99 2.21-.99.994 0 1.726.318 2.196.955.47.637.71 1.62.723 2.949v1.523zm-1.174-1.606c0-.994-.14-1.719-.419-2.174-.28-.455-.721-.682-1.327-.682-.6 0-1.039.226-1.314.679-.275.453-.416 1.149-.425 2.088v1.88c0 .998.145 1.735.435 2.211.29.476.729.714 1.317.714.58 0 1.01-.224 1.292-.672.281-.449.428-1.156.441-2.12v-1.924zm8.474 1.606c0 1.375-.235 2.397-.704 3.066-.47.669-1.204 1.003-2.203 1.003-.986 0-1.716-.327-2.19-.98-.474-.655-.72-1.631-.736-2.93v-1.568c0-1.358.234-2.368.704-3.028.47-.66 1.206-.99 2.21-.99.994 0 1.726.318 2.195.955.47.637.711 1.62.724 2.949v1.523zm-1.174-1.606c0-.994-.14-1.719-.42-2.174-.278-.455-.72-.682-1.326-.682-.6 0-1.039.226-1.314.679-.275.453-.417 1.149-.425 2.088v1.88c0 .998.145 1.735.435 2.211.29.476.729.714 1.317.714.58 0 1.01-.224 1.292-.672.281-.449.428-1.156.44-2.12v-1.924zm8.474 1.606c0 1.375-.235 2.397-.705 3.066s-1.204 1.003-2.202 1.003c-.986 0-1.716-.327-2.19-.98-.474-.655-.72-1.631-.737-2.93v-1.568c0-1.358.235-2.368.705-3.028.47-.66 1.206-.99 2.209-.99.994 0 1.727.318 2.196.955.47.637.711 1.62.724 2.949v1.523zm-1.174-1.606c0-.994-.14-1.719-.42-2.174-.279-.455-.72-.682-1.326-.682-.6 0-1.039.226-1.314.679-.275.453-.417 1.149-.425 2.088v1.88c0 .998.145 1.735.435 2.211.29.476.728.714 1.317.714.58 0 1.01-.224 1.291-.672.282-.449.429-1.156.442-2.12v-1.924zm2.76 7.389l-.666-.457c.398-.555.605-1.126.622-1.714v-1.06h1.15v.92c0 .428-.105.855-.315 1.282-.21.428-.473.77-.79 1.029zm8.265-5.783c0 1.375-.234 2.397-.704 3.066s-1.204 1.003-2.203 1.003c-.986 0-1.716-.327-2.19-.98-.474-.655-.72-1.631-.736-2.93v-1.568c0-1.358.235-2.368.705-3.028.47-.66 1.206-.99 2.209-.99.994 0 1.726.318 2.196.955.47.637.71 1.62.723 2.949v1.523zm-1.174-1.606c0-.994-.14-1.719-.419-2.174-.28-.455-.721-.682-1.326-.682-.601 0-1.04.226-1.314.679-.275.453-.417 1.149-.426 2.088v1.88c0 .998.145 1.735.435 2.211.29.476.729.714 1.317.714.58 0 1.01-.224 1.292-.672.281-.449.428-1.156.441-2.12v-1.924zm8.474 1.606c0 1.375-.235 2.397-.704 3.066-.47.669-1.204 1.003-2.203 1.003-.986 0-1.716-.327-2.19-.98-.474-.655-.72-1.631-.736-2.93v-1.568c0-1.358.235-2.368.704-3.028.47-.66 1.206-.99 2.21-.99.994 0 1.726.318 2.196.955.47.637.71 1.62.723 2.949v1.523zm-1.174-1.606c0-.994-.14-1.719-.419-2.174-.28-.455-.721-.682-1.327-.682-.6 0-1.039.226-1.314.679-.275.453-.416 1.149-.425 2.088v1.88c0 .998.145 1.735.435 2.211.29.476.729.714 1.317.714.58 0 1.01-.224 1.292-.672.281-.449.428-1.156.441-2.12v-1.924zm8.474 1.606c0 1.375-.235 2.397-.704 3.066-.47.669-1.204 1.003-2.203 1.003-.986 0-1.716-.327-2.19-.98-.474-.655-.72-1.631-.736-2.93v-1.568c0-1.358.234-2.368.704-3.028.47-.66 1.206-.99 2.21-.99.994 0 1.726.318 2.195.955.47.637.711 1.62.724 2.949v1.523zm-1.174-1.606c0-.994-.14-1.719-.42-2.174-.278-.455-.72-.682-1.326-.682-.6 0-1.039.226-1.314.679-.275.453-.417 1.149-.425 2.088v1.88c0 .998.145 1.735.435 2.211.29.476.729.714 1.317.714.58 0 1.01-.224 1.292-.672.281-.449.428-1.156.44-2.12v-1.924z" fill="#000"/><path fill="#DEDEDE" d="M100 209h760v2H100z"/><path d="M28.203 252.62c0-.39-.136-.718-.41-.984-.272-.267-.732-.508-1.38-.724-.901-.275-1.558-.634-1.97-1.076-.413-.442-.62-1.004-.62-1.685 0-.694.202-1.263.607-1.708.404-.444.96-.708 1.666-.793v-1.39h.946v1.396c.71.098 1.264.396 1.66.895.395.5.593 1.183.593 2.05h-1.168c0-.596-.142-1.07-.425-1.421-.284-.352-.667-.527-1.15-.527-.503 0-.888.13-1.154.39-.267.26-.4.623-.4 1.089 0 .431.14.775.422 1.031.281.256.745.49 1.39.699.645.209 1.149.44 1.51.691.363.252.63.545.8.88.172.334.258.725.258 1.174 0 .715-.215 1.29-.645 1.726-.43.436-1.031.695-1.806.775v1.212h-.94v-1.212c-.786-.072-1.403-.352-1.85-.841-.446-.489-.67-1.152-.67-1.99h1.175c0 .588.155 1.04.464 1.358.309.318.747.476 1.314.476.554 0 .99-.133 1.307-.4.318-.266.476-.63.476-1.091zm7.592-.724h1.282v.958h-1.282V255h-1.18v-2.146h-4.21v-.691l4.14-6.405h1.25v6.138zm-4.056 0h2.875v-4.532l-.14.254-2.735 4.278zm12.194-.838c0 1.375-.235 2.397-.705 3.066s-1.204 1.003-2.202 1.003c-.986 0-1.716-.327-2.19-.98-.474-.655-.72-1.631-.737-2.93v-1.568c0-1.358.235-2.368.705-3.028.47-.66 1.206-.99 2.209-.99.994 0 1.726.318 2.196.955.47.637.711 1.62.724 2.949v1.523zm-1.175-1.606c0-.994-.14-1.719-.419-2.174-.279-.455-.721-.682-1.326-.682-.601 0-1.04.226-1.314.679-.275.453-.417 1.149-.425 2.088v1.88c0 .998.145 1.735.434 2.211.29.476.73.714 1.318.714.58 0 1.01-.224 1.291-.672.282-.449.429-1.156.441-2.12v-1.924zm2.762 7.389l-.667-.457c.398-.555.605-1.126.622-1.714v-1.06h1.15v.92c0 .428-.106.855-.315 1.282-.21.428-.473.77-.79 1.029zm8.264-5.783c0 1.375-.235 2.397-.704 3.066-.47.669-1.204 1.003-2.203 1.003-.986 0-1.716-.327-2.19-.98-.474-.655-.72-1.631-.736-2.93v-1.568c0-1.358.235-2.368.704-3.028.47-.66 1.206-.99 2.21-.99.994 0 1.726.318 2.196.955.47.637.71 1.62.723 2.949v1.523zm-1.174-1.606c0-.994-.14-1.719-.419-2.174-.28-.455-.721-.682-1.327-.682-.6 0-1.039.226-1.314.679-.275.453-.416 1.149-.425 2.088v1.88c0 .998.145 1.735.435 2.211.29.476.729.714 1.317.714.58 0 1.01-.224 1.292-.672.281-.449.428-1.156.441-2.12v-1.924zm8.474 1.606c0 1.375-.235 2.397-.704 3.066-.47.669-1.204 1.003-2.203 1.003-.986 0-1.716-.327-2.19-.98-.474-.655-.72-1.631-.736-2.93v-1.568c0-1.358.234-2.368.704-3.028.47-.66 1.206-.99 2.21-.99.994 0 1.726.318 2.195.955.47.637.711 1.62.724 2.949v1.523zm-1.174-1.606c0-.994-.14-1.719-.42-2.174-.278-.455-.72-.682-1.326-.682-.6 0-1.039.226-1.314.679-.275.453-.417 1.149-.425 2.088v1.88c0 .998.145 1.735.435 2.211.29.476.729.714 1.317.714.58 0 1.01-.224 1.292-.672.281-.449.428-1.156.44-2.12v-1.924zm8.474 1.606c0 1.375-.235 2.397-.705 3.066s-1.204 1.003-2.202 1.003c-.986 0-1.716-.327-2.19-.98-.474-.655-.72-1.631-.737-2.93v-1.568c0-1.358.235-2.368.705-3.028.47-.66 1.206-.99 2.209-.99.994 0 1.727.318 2.196.955.47.637.711 1.62.724 2.949v1.523zm-1.174-1.606c0-.994-.14-1.719-.42-2.174-.279-.455-.72-.682-1.326-.682-.6 0-1.039.226-1.314.679-.275.453-.417 1.149-.425 2.088v1.88c0 .998.145 1.735.435 2.211.29.476.728.714 1.317.714.58 0 1.01-.224 1.291-.672.282-.449.429-1.156.442-2.12v-1.924zm2.76 7.389l-.666-.457c.398-.555.605-1.126.622-1.714v-1.06h1.15v.92c0 .428-.105.855-.315 1.282-.21.428-.473.77-.79 1.029zm8.265-5.783c0 1.375-.234 2.397-.704 3.066s-1.204 1.003-2.203 1.003c-.986 0-1.716-.327-2.19-.98-.474-.655-.72-1.631-.736-2.93v-1.568c0-1.358.235-2.368.705-3.028.47-.66 1.206-.99 2.209-.99.994 0 1.726.318 2.196.955.47.637.71 1.62.723 2.949v1.523zm-1.174-1.606c0-.994-.14-1.719-.419-2.174-.28-.455-.721-.682-1.326-.682-.601 0-1.04.226-1.314.679-.275.453-.417 1.149-.426 2.088v1.88c0 .998.145 1.735.435 2.211.29.476.729.714 1.317.714.58 0 1.01-.224 1.292-.672.281-.449.428-1.156.441-2.12v-1.924zm8.474 1.606c0 1.375-.235 2.397-.704 3.066-.47.669-1.204 1.003-2.203 1.003-.986 0-1.716-.327-2.19-.98-.474-.655-.72-1.631-.736-2.93v-1.568c0-1.358.235-2.368.704-3.028.47-.66 1.206-.99 2.21-.99.994 0 1.726.318 2.196.955.47.637.71 1.62.723 2.949v1.523zm-1.174-1.606c0-.994-.14-1.719-.419-2.174-.28-.455-.721-.682-1.327-.682-.6 0-1.039.226-1.314.679-.275.453-.416 1.149-.425 2.088v1.88c0 .998.145 1.735.435 2.211.29.476.729.714 1.317.714.58 0 1.01-.224 1.292-.672.281-.449.428-1.156.441-2.12v-1.924zm8.474 1.606c0 1.375-.235 2.397-.704 3.066-.47.669-1.204 1.003-2.203 1.003-.986 0-1.716-.327-2.19-.98-.474-.655-.72-1.631-.736-2.93v-1.568c0-1.358.234-2.368.704-3.028.47-.66 1.206-.99 2.21-.99.994 0 1.726.318 2.195.955.47.637.711 1.62.724 2.949v1.523zm-1.174-1.606c0-.994-.14-1.719-.42-2.174-.278-.455-.72-.682-1.326-.682-.6 0-1.039.226-1.314.679-.275.453-.417 1.149-.425 2.088v1.88c0 .998.145 1.735.435 2.211.29.476.729.714 1.317.714.58 0 1.01-.224 1.292-.672.281-.449.428-1.156.44-2.12v-1.924z" fill="#000"/><path fill="#DEDEDE" d="M100 249h760v2H100z"/><path d="M28.203 292.62c0-.39-.136-.718-.41-.984-.272-.267-.732-.508-1.38-.724-.901-.275-1.558-.634-1.97-1.076-.413-.442-.62-1.004-.62-1.685 0-.694.202-1.263.607-1.708.404-.444.96-.708 1.666-.793v-1.39h.946v1.396c.71.098 1.264.396 1.66.895.395.5.593 1.183.593 2.05h-1.168c0-.596-.142-1.07-.425-1.421-.284-.352-.667-.527-1.15-.527-.503 0-.888.13-1.154.39-.267.26-.4.623-.4 1.089 0 .431.14.775.422 1.031.281.256.745.49 1.39.699.645.209 1.149.44 1.51.691.363.252.63.545.8.88.172.334.258.725.258 1.174 0 .715-.215 1.29-.645 1.726-.43.436-1.031.695-1.806.775v1.212h-.94v-1.212c-.786-.072-1.403-.352-1.85-.841-.446-.489-.67-1.152-.67-1.99h1.175c0 .588.155 1.04.464 1.358.309.318.747.476 1.314.476.554 0 .99-.133 1.307-.4.318-.266.476-.63.476-1.091zm8.69 2.38h-6.055v-.844l3.199-3.555c.474-.537.8-.974.98-1.31.18-.337.27-.685.27-1.045 0-.482-.146-.878-.438-1.187-.292-.309-.681-.463-1.168-.463-.584 0-1.038.166-1.361.498-.324.332-.486.795-.486 1.387H30.66c0-.85.274-1.538.822-2.063.548-.525 1.281-.787 2.2-.787.858 0 1.538.225 2.037.676.5.45.749 1.05.749 1.8 0 .91-.58 1.993-1.74 3.25l-2.475 2.685h4.64V295zm7.04-3.942c0 1.375-.235 2.397-.705 3.066s-1.204 1.003-2.202 1.003c-.986 0-1.716-.327-2.19-.98-.474-.655-.72-1.631-.737-2.93v-1.568c0-1.358.235-2.368.705-3.028.47-.66 1.206-.99 2.209-.99.994 0 1.726.318 2.196.955.47.637.711 1.62.724 2.949v1.523zm-1.175-1.606c0-.994-.14-1.719-.419-2.174-.279-.455-.721-.682-1.326-.682-.601 0-1.04.226-1.314.679-.275.453-.417 1.149-.425 2.088v1.88c0 .998.145 1.735.434 2.211.29.476.73.714 1.318.714.58 0 1.01-.224 1.291-.672.282-.449.429-1.156.441-2.12v-1.924zm2.762 7.389l-.667-.457c.398-.555.605-1.126.622-1.714v-1.06h1.15v.92c0 .428-.106.855-.315 1.283-.21.427-.473.77-.79 1.028zm8.264-5.783c0 1.375-.235 2.397-.704 3.066-.47.669-1.204 1.003-2.203 1.003-.986 0-1.716-.327-2.19-.98-.474-.655-.72-1.631-.736-2.93v-1.568c0-1.358.235-2.368.704-3.028.47-.66 1.206-.99 2.21-.99.994 0 1.726.318 2.196.955.47.637.71 1.62.723 2.949v1.523zm-1.174-1.606c0-.994-.14-1.719-.419-2.174-.28-.455-.721-.682-1.327-.682-.6 0-1.039.226-1.314.679-.275.453-.416 1.149-.425 2.088v1.88c0 .998.145 1.735.435 2.211.29.476.729.714 1.317.714.58 0 1.01-.224 1.292-.672.281-.449.428-1.156.441-2.12v-1.924zm8.474 1.606c0 1.375-.235 2.397-.704 3.066-.47.669-1.204 1.003-2.203 1.003-.986 0-1.716-.327-2.19-.98-.474-.655-.72-1.631-.736-2.93v-1.568c0-1.358.234-2.368.704-3.028.47-.66 1.206-.99 2.21-.99.994 0 1.726.318 2.195.955.47.637.711 1.62.724 2.949v1.523zm-1.174-1.606c0-.994-.14-1.719-.42-2.174-.278-.455-.72-.682-1.326-.682-.6 0-1.039.226-1.314.679-.275.453-.417 1.149-.425 2.088v1.88c0 .998.145 1.735.435 2.211.29.476.729.714 1.317.714.58 0 1.01-.224 1.292-.672.281-.449.428-1.156.44-2.12v-1.924zm8.474 1.606c0 1.375-.235 2.397-.705 3.066s-1.204 1.003-2.202 1.003c-.986 0-1.716-.327-2.19-.98-.474-.655-.72-1.631-.737-2.93v-1.568c0-1.358.235-2.368.705-3.028.47-.66 1.206-.99 2.209-.99.994 0 1.727.318 2.196.955.47.637.711 1.62.724 2.949v1.523zm-1.174-1.606c0-.994-.14-1.719-.42-2.174-.279-.455-.72-.682-1.326-.682-.6 0-1.039.226-1.314.679-.275.453-.417 1.149-.425 2.088v1.88c0 .998.145 1.735.435 2.211.29.476.728.714 1.317.714.58 0 1.01-.224 1.291-.672.282-.449.429-1.156.442-2.12v-1.924zm2.76 7.389l-.666-.457c.398-.555.605-1.126.622-1.714v-1.06h1.15v.92c0 .428-.105.855-.315 1.283-.21.427-.473.77-.79 1.028zm8.265-5.783c0 1.375-.234 2.397-.704 3.066s-1.204 1.003-2.203 1.003c-.986 0-1.716-.327-2.19-.98-.474-.655-.72-1.631-.736-2.93v-1.568c0-1.358.235-2.368.705-3.028.47-.66 1.206-.99 2.209-.99.994 0 1.726.318 2.196.955.47.637.71 1.62.723 2.949v1.523zm-1.174-1.606c0-.994-.14-1.719-.419-2.174-.28-.455-.721-.682-1.326-.682-.601 0-1.04.226-1.314.679-.275.453-.417 1.149-.426 2.088v1.88c0 .998.145 1.735.435 2.211.29.476.729.714 1.317.714.58 0 1.01-.224 1.292-.672.281-.449.428-1.156.441-2.12v-1.924zm8.474 1.606c0 1.375-.235 2.397-.704 3.066-.47.669-1.204 1.003-2.203 1.003-.986 0-1.716-.327-2.19-.98-.474-.655-.72-1.631-.736-2.93v-1.568c0-1.358.235-2.368.704-3.028.47-.66 1.206-.99 2.21-.99.994 0 1.726.318 2.196.955.47.637.71 1.62.723 2.949v1.523zm-1.174-1.606c0-.994-.14-1.719-.419-2.174-.28-.455-.721-.682-1.327-.682-.6 0-1.039.226-1.314.679-.275.453-.416 1.149-.425 2.088v1.88c0 .998.145 1.735.435 2.211.29.476.729.714 1.317.714.58 0 1.01-.224 1.292-.672.281-.449.428-1.156.441-2.12v-1.924zm8.474 1.606c0 1.375-.235 2.397-.704 3.066-.47.669-1.204 1.003-2.203 1.003-.986 0-1.716-.327-2.19-.98-.474-.655-.72-1.631-.736-2.93v-1.568c0-1.358.234-2.368.704-3.028.47-.66 1.206-.99 2.21-.99.994 0 1.726.318 2.195.955.47.637.711 1.62.724 2.949v1.523zm-1.174-1.606c0-.994-.14-1.719-.42-2.174-.278-.455-.72-.682-1.326-.682-.6 0-1.039.226-1.314.679-.275.453-.417 1.149-.425 2.088v1.88c0 .998.145 1.735.435 2.211.29.476.729.714 1.317.714.58 0 1.01-.224 1.292-.672.281-.449.428-1.156.44-2.12v-1.924z" fill="#000"/><path fill="#DEDEDE" d="M100 289h760v2H100z"/><path d="M92.835 331.058c0 1.375-.235 2.397-.704 3.066-.47.669-1.204 1.003-2.203 1.003-.986 0-1.716-.327-2.19-.98-.474-.655-.72-1.631-.736-2.93v-1.568c0-1.358.234-2.368.704-3.028.47-.66 1.206-.99 2.21-.99.994 0 1.726.318 2.195.955.47.637.711 1.62.724 2.949v1.523zm-1.174-1.606c0-.994-.14-1.719-.42-2.174-.278-.455-.72-.682-1.326-.682-.6 0-1.039.226-1.314.679-.275.453-.417 1.149-.425 2.088v1.88c0 .998.145 1.735.435 2.211.29.476.729.714 1.317.714.58 0 1.01-.224 1.292-.672.281-.449.428-1.156.44-2.12v-1.924z" fill="#000"/><path fill="#DEDEDE" d="M100 329h760v2H100z"/></g><g mask="url(#b)"><path d="M123.224 357h-6.056v-.844l3.2-3.555c.474-.537.8-.974.98-1.31.18-.337.27-.685.27-1.045 0-.482-.146-.878-.438-1.187-.292-.309-.681-.463-1.168-.463-.584 0-1.038.166-1.361.498-.324.332-.486.795-.486 1.387h-1.174c0-.85.274-1.538.822-2.063.548-.525 1.28-.787 2.2-.787.858 0 1.537.225 2.037.676.5.45.749 1.05.749 1.8 0 .91-.58 1.993-1.74 3.25l-2.475 2.685h4.64V357zm7.04-3.942c0 1.375-.235 2.397-.705 3.066s-1.204 1.003-2.203 1.003c-.986 0-1.716-.327-2.19-.98-.473-.655-.719-1.631-.736-2.93v-1.568c0-1.358.235-2.368.705-3.028.47-.66 1.206-.99 2.209-.99.994 0 1.726.318 2.196.955.47.637.711 1.62.724 2.949v1.523zm-1.175-1.606c0-.994-.14-1.719-.419-2.174-.279-.455-.721-.682-1.326-.682-.601 0-1.04.226-1.314.679-.275.453-.417 1.149-.426 2.088v1.88c0 .998.145 1.735.435 2.211.29.476.73.714 1.317.714.58 0 1.01-.224 1.292-.672.282-.449.429-1.156.441-2.12v-1.924zm8.474 1.606c0 1.375-.234 2.397-.704 3.066s-1.204 1.003-2.203 1.003c-.986 0-1.716-.327-2.19-.98-.474-.655-.72-1.631-.736-2.93v-1.568c0-1.358.235-2.368.705-3.028.47-.66 1.206-.99 2.209-.99.994 0 1.726.318 2.196.955.47.637.71 1.62.723 2.949v1.523zm-1.174-1.606c0-.994-.14-1.719-.419-2.174-.28-.455-.721-.682-1.326-.682-.601 0-1.04.226-1.314.679-.275.453-.417 1.149-.426 2.088v1.88c0 .998.145 1.735.435 2.211.29.476.729.714 1.317.714.58 0 1.01-.224 1.292-.672.281-.449.428-1.156.441-2.12v-1.924zm8.474 1.606c0 1.375-.235 2.397-.704 3.066-.47.669-1.204 1.003-2.203 1.003-.986 0-1.716-.327-2.19-.98-.474-.655-.72-1.631-.736-2.93v-1.568c0-1.358.235-2.368.704-3.028.47-.66 1.206-.99 2.21-.99.994 0 1.726.318 2.196.955.47.637.71 1.62.723 2.949v1.523zm-1.174-1.606c0-.994-.14-1.719-.419-2.174-.28-.455-.721-.682-1.327-.682-.6 0-1.039.226-1.314.679-.275.453-.416 1.149-.425 2.088v1.88c0 .998.145 1.735.435 2.211.29.476.729.714 1.317.714.58 0 1.01-.224 1.292-.672.281-.449.428-1.156.441-2.12v-1.924zm21.535 5.048h-6.056v-.844l3.2-3.555c.474-.537.8-.974.98-1.31.18-.337.27-.685.27-1.045 0-.482-.146-.878-.438-1.187-.292-.309-.681-.463-1.168-.463-.584 0-1.038.166-1.361.498-.324.332-.486.795-.486 1.387h-1.174c0-.85.274-1.538.822-2.063.548-.525 1.28-.787 2.2-.787.858 0 1.537.225 2.037.676.5.45.749 1.05.749 1.8 0 .91-.58 1.993-1.74 3.25l-2.475 2.685h4.64v.958zm7.04-3.942c0 1.375-.235 2.397-.705 3.066s-1.204 1.003-2.203 1.003c-.986 0-1.716-.327-2.19-.98-.473-.655-.719-1.631-.736-2.93v-1.568c0-1.358.235-2.368.705-3.028.47-.66 1.206-.99 2.209-.99.994 0 1.726.318 2.196.955.47.637.711 1.62.724 2.949v1.523zm-1.175-1.606c0-.994-.14-1.719-.419-2.174-.279-.455-.721-.682-1.326-.682-.601 0-1.04.226-1.314.679-.275.453-.417 1.149-.426 2.088v1.88c0 .998.145 1.735.435 2.211.29.476.73.714 1.317.714.58 0 1.01-.224 1.292-.672.282-.449.429-1.156.441-2.12v-1.924zm8.474 1.606c0 1.375-.234 2.397-.704 3.066s-1.204 1.003-2.203 1.003c-.986 0-1.716-.327-2.19-.98-.474-.655-.72-1.631-.736-2.93v-1.568c0-1.358.235-2.368.705-3.028.47-.66 1.206-.99 2.209-.99.994 0 1.726.318 2.196.955.47.637.71 1.62.723 2.949v1.523zm-1.174-1.606c0-.994-.14-1.719-.419-2.174-.28-.455-.721-.682-1.326-.682-.601 0-1.04.226-1.314.679-.275.453-.417 1.149-.426 2.088v1.88c0 .998.145 1.735.435 2.211.29.476.729.714 1.317.714.58 0 1.01-.224 1.292-.672.281-.449.428-1.156.441-2.12v-1.924zm6.538 5.548h-1.18v-7.827l-2.368.87v-1.066l3.364-1.264h.184v9.287z" fill="#000"/><path fill="#293055" d="M158 329h30v2h-30zm42-2h30v4h-30z"/><path d="M207.224 356.5h-6.056v-.844l3.2-3.555c.474-.537.8-.974.98-1.31.18-.337.27-.685.27-1.045 0-.482-.146-.878-.438-1.187-.292-.309-.681-.463-1.168-.463-.584 0-1.038.166-1.361.498-.324.332-.486.795-.486 1.387h-1.174c0-.85.274-1.538.822-2.063.548-.525 1.28-.787 2.2-.787.858 0 1.537.225 2.037.676.5.45.749 1.05.749 1.8 0 .91-.58 1.993-1.74 3.25l-2.475 2.685h4.64v.958zm7.04-3.942c0 1.375-.235 2.397-.705 3.066s-1.204 1.003-2.203 1.003c-.986 0-1.716-.327-2.19-.98-.473-.655-.719-1.631-.736-2.93v-1.568c0-1.358.235-2.368.705-3.028.47-.66 1.206-.99 2.209-.99.994 0 1.726.318 2.196.955.47.637.711 1.62.724 2.949v1.523zm-1.175-1.606c0-.994-.14-1.719-.419-2.174-.279-.455-.721-.682-1.326-.682-.601 0-1.04.226-1.314.679-.275.453-.417 1.149-.426 2.088v1.88c0 .998.145 1.735.435 2.211.29.476.73.714 1.317.714.58 0 1.01-.224 1.292-.672.282-.449.429-1.156.441-2.12v-1.924zm8.474 1.606c0 1.375-.234 2.397-.704 3.066s-1.204 1.003-2.203 1.003c-.986 0-1.716-.327-2.19-.98-.474-.655-.72-1.631-.736-2.93v-1.568c0-1.358.235-2.368.705-3.028.47-.66 1.206-.99 2.209-.99.994 0 1.726.318 2.196.955.47.637.71 1.62.723 2.949v1.523zm-1.174-1.606c0-.994-.14-1.719-.419-2.174-.28-.455-.721-.682-1.326-.682-.601 0-1.04.226-1.314.679-.275.453-.417 1.149-.426 2.088v1.88c0 .998.145 1.735.435 2.211.29.476.729.714 1.317.714.58 0 1.01-.224 1.292-.672.281-.449.428-1.156.441-2.12v-1.924zm8.735 5.548h-6.056v-.844l3.2-3.555c.473-.537.8-.974.98-1.31.18-.337.27-.685.27-1.045 0-.482-.146-.878-.438-1.187-.292-.309-.682-.463-1.168-.463-.584 0-1.038.166-1.362.498-.324.332-.486.795-.486 1.387h-1.174c0-.85.274-1.538.822-2.063.548-.525 1.281-.787 2.2-.787.859 0 1.538.225 2.037.676.5.45.75 1.05.75 1.8 0 .91-.58 1.993-1.74 3.25l-2.476 2.685h4.64v.958z" fill="#000"/><path fill="#293055" d="M242 320h30v11h-30z"/><path d="M249.224 356.5h-6.056v-.844l3.2-3.555c.474-.537.8-.974.98-1.31.18-.337.27-.685.27-1.045 0-.482-.146-.878-.438-1.187-.292-.309-.681-.463-1.168-.463-.584 0-1.038.166-1.361.498-.324.332-.486.795-.486 1.387h-1.174c0-.85.274-1.538.822-2.063.548-.525 1.28-.787 2.2-.787.858 0 1.537.225 2.037.676.5.45.749 1.05.749 1.8 0 .91-.58 1.993-1.74 3.25l-2.475 2.685h4.64v.958zm7.04-3.942c0 1.375-.235 2.397-.705 3.066s-1.204 1.003-2.203 1.003c-.986 0-1.716-.327-2.19-.98-.473-.655-.719-1.631-.736-2.93v-1.568c0-1.358.235-2.368.705-3.028.47-.66 1.206-.99 2.209-.99.994 0 1.726.318 2.196.955.47.637.711 1.62.724 2.949v1.523zm-1.175-1.606c0-.994-.14-1.719-.419-2.174-.279-.455-.721-.682-1.326-.682-.601 0-1.04.226-1.314.679-.275.453-.417 1.149-.426 2.088v1.88c0 .998.145 1.735.435 2.211.29.476.73.714 1.317.714.58 0 1.01-.224 1.292-.672.282-.449.429-1.156.441-2.12v-1.924zm8.474 1.606c0 1.375-.234 2.397-.704 3.066s-1.204 1.003-2.203 1.003c-.986 0-1.716-.327-2.19-.98-.474-.655-.72-1.631-.736-2.93v-1.568c0-1.358.235-2.368.705-3.028.47-.66 1.206-.99 2.209-.99.994 0 1.726.318 2.196.955.47.637.71 1.62.723 2.949v1.523zm-1.174-1.606c0-.994-.14-1.719-.419-2.174-.28-.455-.721-.682-1.326-.682-.601 0-1.04.226-1.314.679-.275.453-.417 1.149-.426 2.088v1.88c0 .998.145 1.735.435 2.211.29.476.729.714 1.317.714.58 0 1.01-.224 1.292-.672.281-.449.428-1.156.441-2.12v-1.924zm4.386.356h.883c.554-.009.99-.155 1.307-.438.318-.284.476-.667.476-1.15 0-1.083-.54-1.624-1.618-1.624-.508 0-.913.145-1.216.435-.302.29-.454.673-.454 1.152h-1.174c0-.732.268-1.34.803-1.825.535-.485 1.216-.727 2.04-.727.873 0 1.556.23 2.051.692.495.461.743 1.102.743 1.923 0 .402-.13.791-.39 1.168-.26.377-.615.658-1.064.844.508.161.9.428 1.178.8.277.373.415.827.415 1.365 0 .83-.27 1.487-.812 1.974-.542.487-1.246.73-2.114.73-.867 0-1.573-.235-2.117-.705s-.816-1.09-.816-1.86h1.181c0 .487.159.876.476 1.168.318.292.743.438 1.276.438.567 0 1-.148 1.301-.444.3-.296.451-.721.451-1.276 0-.537-.165-.95-.495-1.238-.33-.287-.806-.435-1.428-.444h-.883v-.958z" fill="#000"/><path fill="#293055" d="M284 316h30v15h-30z"/><path d="M291.224 356.5h-6.056v-.844l3.2-3.555c.474-.537.8-.974.98-1.31.18-.337.27-.685.27-1.045 0-.482-.146-.878-.438-1.187-.292-.309-.681-.463-1.168-.463-.584 0-1.038.166-1.361.498-.324.332-.486.795-.486 1.387h-1.174c0-.85.274-1.538.822-2.063.548-.525 1.28-.787 2.2-.787.858 0 1.537.225 2.037.676.5.45.749 1.05.749 1.8 0 .91-.58 1.993-1.74 3.25l-2.475 2.685h4.64v.958zm7.04-3.942c0 1.375-.235 2.397-.705 3.066s-1.204 1.003-2.203 1.003c-.986 0-1.716-.327-2.19-.98-.473-.655-.719-1.631-.736-2.93v-1.568c0-1.358.235-2.368.705-3.028.47-.66 1.206-.99 2.209-.99.994 0 1.726.318 2.196.955.47.637.711 1.62.724 2.949v1.523zm-1.175-1.606c0-.994-.14-1.719-.419-2.174-.279-.455-.721-.682-1.326-.682-.601 0-1.04.226-1.314.679-.275.453-.417 1.149-.426 2.088v1.88c0 .998.145 1.735.435 2.211.29.476.73.714 1.317.714.58 0 1.01-.224 1.292-.672.282-.449.429-1.156.441-2.12v-1.924zm8.474 1.606c0 1.375-.234 2.397-.704 3.066s-1.204 1.003-2.203 1.003c-.986 0-1.716-.327-2.19-.98-.474-.655-.72-1.631-.736-2.93v-1.568c0-1.358.235-2.368.705-3.028.47-.66 1.206-.99 2.209-.99.994 0 1.726.318 2.196.955.47.637.71 1.62.723 2.949v1.523zm-1.174-1.606c0-.994-.14-1.719-.419-2.174-.28-.455-.721-.682-1.326-.682-.601 0-1.04.226-1.314.679-.275.453-.417 1.149-.426 2.088v1.88c0 .998.145 1.735.435 2.211.29.476.729.714 1.317.714.58 0 1.01-.224 1.292-.672.281-.449.428-1.156.441-2.12v-1.924zm7.636 2.444h1.283v.958h-1.283v2.146h-1.18v-2.146h-4.209v-.691l4.139-6.405h1.25v6.138zm-4.056 0h2.876v-4.532l-.14.254-2.736 4.278z" fill="#000"/><path fill="#293055" d="M326 314h30v17h-30z"/><path d="M333.224 356.5h-6.056v-.844l3.2-3.555c.474-.537.8-.974.98-1.31.18-.337.27-.685.27-1.045 0-.482-.146-.878-.438-1.187-.292-.309-.681-.463-1.168-.463-.584 0-1.038.166-1.361.498-.324.332-.486.795-.486 1.387h-1.174c0-.85.274-1.538.822-2.063.548-.525 1.28-.787 2.2-.787.858 0 1.537.225 2.037.676.5.45.749 1.05.749 1.8 0 .91-.58 1.993-1.74 3.25l-2.475 2.685h4.64v.958zm7.04-3.942c0 1.375-.235 2.397-.705 3.066s-1.204 1.003-2.203 1.003c-.986 0-1.716-.327-2.19-.98-.473-.655-.719-1.631-.736-2.93v-1.568c0-1.358.235-2.368.705-3.028.47-.66 1.206-.99 2.209-.99.994 0 1.726.318 2.196.955.47.637.711 1.62.724 2.949v1.523zm-1.175-1.606c0-.994-.14-1.719-.419-2.174-.279-.455-.721-.682-1.326-.682-.601 0-1.04.226-1.314.679-.275.453-.417 1.149-.426 2.088v1.88c0 .998.145 1.735.435 2.211.29.476.73.714 1.317.714.58 0 1.01-.224 1.292-.672.282-.449.429-1.156.441-2.12v-1.924zm8.474 1.606c0 1.375-.234 2.397-.704 3.066s-1.204 1.003-2.203 1.003c-.986 0-1.716-.327-2.19-.98-.474-.655-.72-1.631-.736-2.93v-1.568c0-1.358.235-2.368.705-3.028.47-.66 1.206-.99 2.209-.99.994 0 1.726.318 2.196.955.47.637.71 1.62.723 2.949v1.523zm-1.174-1.606c0-.994-.14-1.719-.419-2.174-.28-.455-.721-.682-1.326-.682-.601 0-1.04.226-1.314.679-.275.453-.417 1.149-.426 2.088v1.88c0 .998.145 1.735.435 2.211.29.476.729.714 1.317.714.58 0 1.01-.224 1.292-.672.281-.449.428-1.156.441-2.12v-1.924zm3.218.914l.47-4.608h4.735v1.085h-3.738l-.28 2.52a2.99 2.99 0 0 1 1.543-.4c.842 0 1.51.279 2.006.835.495.557.742 1.309.742 2.257 0 .952-.257 1.702-.77 2.25-.515.548-1.233.822-2.156.822-.817 0-1.483-.226-2-.68-.516-.452-.81-1.078-.882-1.878h1.111c.072.529.26.928.565 1.196.305.27.707.403 1.206.403.546 0 .975-.186 1.286-.558.31-.373.466-.887.466-1.543 0-.617-.168-1.114-.505-1.488-.336-.375-.783-.562-1.342-.562-.512 0-.914.112-1.206.337l-.311.253-.94-.24z" fill="#000"/><path fill="#293055" d="M368 305h30v26h-30z"/><path d="M375.224 356.5h-6.056v-.844l3.2-3.555c.474-.537.8-.974.98-1.31.18-.337.27-.685.27-1.045 0-.482-.146-.878-.438-1.187-.292-.309-.681-.463-1.168-.463-.584 0-1.038.166-1.361.498-.324.332-.486.795-.486 1.387h-1.174c0-.85.274-1.538.822-2.063.548-.525 1.28-.787 2.2-.787.858 0 1.537.225 2.037.676.5.45.749 1.05.749 1.8 0 .91-.58 1.993-1.74 3.25l-2.475 2.685h4.64v.958zm7.04-3.942c0 1.375-.235 2.397-.705 3.066s-1.204 1.003-2.203 1.003c-.986 0-1.716-.327-2.19-.98-.473-.655-.719-1.631-.736-2.93v-1.568c0-1.358.235-2.368.705-3.028.47-.66 1.206-.99 2.209-.99.994 0 1.726.318 2.196.955.47.637.711 1.62.724 2.949v1.523zm-1.175-1.606c0-.994-.14-1.719-.419-2.174-.279-.455-.721-.682-1.326-.682-.601 0-1.04.226-1.314.679-.275.453-.417 1.149-.426 2.088v1.88c0 .998.145 1.735.435 2.211.29.476.73.714 1.317.714.58 0 1.01-.224 1.292-.672.282-.449.429-1.156.441-2.12v-1.924zm8.474 1.606c0 1.375-.234 2.397-.704 3.066s-1.204 1.003-2.203 1.003c-.986 0-1.716-.327-2.19-.98-.474-.655-.72-1.631-.736-2.93v-1.568c0-1.358.235-2.368.705-3.028.47-.66 1.206-.99 2.209-.99.994 0 1.726.318 2.196.955.47.637.71 1.62.723 2.949v1.523zm-1.174-1.606c0-.994-.14-1.719-.419-2.174-.28-.455-.721-.682-1.326-.682-.601 0-1.04.226-1.314.679-.275.453-.417 1.149-.426 2.088v1.88c0 .998.145 1.735.435 2.211.29.476.729.714 1.317.714.58 0 1.01-.224 1.292-.672.281-.449.428-1.156.441-2.12v-1.924zm7.287-3.7v.996h-.216c-.914.017-1.641.288-2.183.813-.542.524-.855 1.263-.94 2.215.487-.559 1.151-.838 1.994-.838.804 0 1.446.284 1.926.85.48.568.72 1.3.72 2.197 0 .952-.259 1.714-.777 2.285-.518.571-1.214.857-2.085.857-.885 0-1.602-.34-2.152-1.019-.55-.679-.825-1.554-.825-2.625v-.45c0-1.701.363-3.002 1.088-3.9.726-.9 1.806-1.36 3.24-1.382h.21zm-1.542 4.164c-.402 0-.773.12-1.111.361a1.885 1.885 0 0 0-.705.908v.432c0 .761.172 1.375.515 1.84.342.466.77.699 1.282.699.529 0 .944-.195 1.247-.584.303-.39.454-.9.454-1.53 0-.635-.153-1.148-.46-1.54a1.475 1.475 0 0 0-1.222-.586z" fill="#000"/><path fill="#293055" d="M410 311h30v20h-30z"/><path d="M417.224 356.5h-6.056v-.844l3.2-3.555c.474-.537.8-.974.98-1.31.18-.337.27-.685.27-1.045 0-.482-.146-.878-.438-1.187-.292-.309-.681-.463-1.168-.463-.584 0-1.038.166-1.361.498-.324.332-.486.795-.486 1.387h-1.174c0-.85.274-1.538.822-2.063.548-.525 1.28-.787 2.2-.787.858 0 1.537.225 2.037.676.5.45.749 1.05.749 1.8 0 .91-.58 1.993-1.74 3.25l-2.475 2.685h4.64v.958zm7.04-3.942c0 1.375-.235 2.397-.705 3.066s-1.204 1.003-2.203 1.003c-.986 0-1.716-.327-2.19-.98-.473-.655-.719-1.631-.736-2.93v-1.568c0-1.358.235-2.368.705-3.028.47-.66 1.206-.99 2.209-.99.994 0 1.726.318 2.196.955.47.637.711 1.62.724 2.949v1.523zm-1.175-1.606c0-.994-.14-1.719-.419-2.174-.279-.455-.721-.682-1.326-.682-.601 0-1.04.226-1.314.679-.275.453-.417 1.149-.426 2.088v1.88c0 .998.145 1.735.435 2.211.29.476.73.714 1.317.714.58 0 1.01-.224 1.292-.672.282-.449.429-1.156.441-2.12v-1.924zm8.474 1.606c0 1.375-.234 2.397-.704 3.066s-1.204 1.003-2.203 1.003c-.986 0-1.716-.327-2.19-.98-.474-.655-.72-1.631-.736-2.93v-1.568c0-1.358.235-2.368.705-3.028.47-.66 1.206-.99 2.209-.99.994 0 1.726.318 2.196.955.47.637.71 1.62.723 2.949v1.523zm-1.174-1.606c0-.994-.14-1.719-.419-2.174-.28-.455-.721-.682-1.326-.682-.601 0-1.04.226-1.314.679-.275.453-.417 1.149-.426 2.088v1.88c0 .998.145 1.735.435 2.211.29.476.729.714 1.317.714.58 0 1.01-.224 1.292-.672.281-.449.428-1.156.441-2.12v-1.924zm8.646-3.034l-3.828 8.582h-1.231l3.815-8.277h-5.002v-.965h6.246v.66z" fill="#000"/><path fill="#293055" d="M452 305h30v26h-30z"/><path d="M459.224 356.5h-6.056v-.844l3.2-3.555c.474-.537.8-.974.98-1.31.18-.337.27-.685.27-1.045 0-.482-.146-.878-.438-1.187-.292-.309-.681-.463-1.168-.463-.584 0-1.038.166-1.361.498-.324.332-.486.795-.486 1.387h-1.174c0-.85.274-1.538.822-2.063.548-.525 1.28-.787 2.2-.787.858 0 1.537.225 2.037.676.5.45.749 1.05.749 1.8 0 .91-.58 1.993-1.74 3.25l-2.475 2.685h4.64v.958zm7.04-3.942c0 1.375-.235 2.397-.705 3.066s-1.204 1.003-2.203 1.003c-.986 0-1.716-.327-2.19-.98-.473-.655-.719-1.631-.736-2.93v-1.568c0-1.358.235-2.368.705-3.028.47-.66 1.206-.99 2.209-.99.994 0 1.726.318 2.196.955.47.637.711 1.62.724 2.949v1.523zm-1.175-1.606c0-.994-.14-1.719-.419-2.174-.279-.455-.721-.682-1.326-.682-.601 0-1.04.226-1.314.679-.275.453-.417 1.149-.426 2.088v1.88c0 .998.145 1.735.435 2.211.29.476.73.714 1.317.714.58 0 1.01-.224 1.292-.672.282-.449.429-1.156.441-2.12v-1.924zm8.474 1.606c0 1.375-.234 2.397-.704 3.066s-1.204 1.003-2.203 1.003c-.986 0-1.716-.327-2.19-.98-.474-.655-.72-1.631-.736-2.93v-1.568c0-1.358.235-2.368.705-3.028.47-.66 1.206-.99 2.209-.99.994 0 1.726.318 2.196.955.47.637.71 1.62.723 2.949v1.523zm-1.174-1.606c0-.994-.14-1.719-.419-2.174-.28-.455-.721-.682-1.326-.682-.601 0-1.04.226-1.314.679-.275.453-.417 1.149-.426 2.088v1.88c0 .998.145 1.735.435 2.211.29.476.729.714 1.317.714.58 0 1.01-.224 1.292-.672.281-.449.428-1.156.441-2.12v-1.924zm8.284-1.282c0 .461-.122.872-.365 1.231-.243.36-.572.641-.987.845.482.207.864.51 1.146.907.281.398.422.849.422 1.352 0 .8-.27 1.437-.81 1.911s-1.25.711-2.13.711c-.888 0-1.6-.238-2.135-.714-.536-.476-.803-1.112-.803-1.908 0-.499.136-.95.41-1.352.272-.402.65-.706 1.132-.914a2.422 2.422 0 0 1-.971-.844 2.177 2.177 0 0 1-.355-1.225c0-.779.25-1.397.749-1.854.499-.457 1.157-.685 1.974-.685.812 0 1.47.228 1.97.685.502.457.753 1.075.753 1.854zm-.959 4.31c0-.516-.164-.937-.492-1.263-.328-.326-.756-.489-1.285-.489-.529 0-.953.16-1.273.482-.32.322-.479.745-.479 1.27s.156.937.467 1.238c.31.3.743.45 1.298.45.55 0 .981-.15 1.295-.453.313-.303.47-.715.47-1.235zm-1.764-5.884c-.462 0-.835.143-1.12.428-.286.286-.43.674-.43 1.165 0 .47.142.85.423 1.14.281.29.657.434 1.127.434s.845-.145 1.126-.435c.282-.29.423-.67.423-1.139 0-.47-.146-.853-.438-1.149-.292-.296-.663-.444-1.111-.444z" fill="#000"/><path fill="#293055" d="M494 308h30v23h-30z"/><path d="M501.224 356.5h-6.056v-.844l3.2-3.555c.474-.537.8-.974.98-1.31.18-.337.27-.685.27-1.045 0-.482-.146-.878-.438-1.187-.292-.309-.681-.463-1.168-.463-.584 0-1.038.166-1.361.498-.324.332-.486.795-.486 1.387h-1.174c0-.85.274-1.538.822-2.063.548-.525 1.28-.787 2.2-.787.858 0 1.537.225 2.037.676.5.45.749 1.05.749 1.8 0 .91-.58 1.993-1.74 3.25l-2.475 2.685h4.64v.958zm7.04-3.942c0 1.375-.235 2.397-.705 3.066s-1.204 1.003-2.203 1.003c-.986 0-1.716-.327-2.19-.98-.473-.655-.719-1.631-.736-2.93v-1.568c0-1.358.235-2.368.705-3.028.47-.66 1.206-.99 2.209-.99.994 0 1.726.318 2.196.955.47.637.711 1.62.724 2.949v1.523zm-1.175-1.606c0-.994-.14-1.719-.419-2.174-.279-.455-.721-.682-1.326-.682-.601 0-1.04.226-1.314.679-.275.453-.417 1.149-.426 2.088v1.88c0 .998.145 1.735.435 2.211.29.476.73.714 1.317.714.58 0 1.01-.224 1.292-.672.282-.449.429-1.156.441-2.12v-1.924zm8.474 1.606c0 1.375-.234 2.397-.704 3.066s-1.204 1.003-2.203 1.003c-.986 0-1.716-.327-2.19-.98-.474-.655-.72-1.631-.736-2.93v-1.568c0-1.358.235-2.368.705-3.028.47-.66 1.206-.99 2.209-.99.994 0 1.726.318 2.196.955.47.637.71 1.62.723 2.949v1.523zm-1.174-1.606c0-.994-.14-1.719-.419-2.174-.28-.455-.721-.682-1.326-.682-.601 0-1.04.226-1.314.679-.275.453-.417 1.149-.426 2.088v1.88c0 .998.145 1.735.435 2.211.29.476.729.714 1.317.714.58 0 1.01-.224 1.292-.672.281-.449.428-1.156.441-2.12v-1.924zm7.18 1.486a2.873 2.873 0 0 1-.88.704 2.38 2.38 0 0 1-1.12.267c-.533 0-.998-.131-1.393-.394a2.558 2.558 0 0 1-.918-1.108 3.776 3.776 0 0 1-.323-1.577c0-.618.117-1.174.352-1.67a2.588 2.588 0 0 1 1-1.136c.431-.262.935-.393 1.51-.393.914 0 1.635.342 2.162 1.025.527.683.79 1.615.79 2.796v.343c0 1.798-.355 3.111-1.066 3.939-.711.827-1.784 1.251-3.219 1.272h-.228v-.99h.247c.97-.017 1.714-.27 2.235-.758.52-.49.804-1.263.85-2.32zm-1.81 0c.394 0 .757-.121 1.089-.362.332-.242.574-.54.727-.895v-.47c0-.77-.167-1.397-.502-1.879-.334-.482-.757-.724-1.27-.724-.516 0-.93.198-1.243.594-.314.396-.47.917-.47 1.565 0 .63.151 1.15.454 1.558.302.408.707.612 1.215.612z" fill="#000"/><path fill="#293055" d="M536 310h30v21h-30z"/><path d="M543.224 356.5h-6.056v-.844l3.2-3.555c.474-.537.8-.974.98-1.31.18-.337.27-.685.27-1.045 0-.482-.146-.878-.438-1.187-.292-.309-.681-.463-1.168-.463-.584 0-1.038.166-1.361.498-.324.332-.486.795-.486 1.387h-1.174c0-.85.274-1.538.822-2.063.548-.525 1.28-.787 2.2-.787.858 0 1.537.225 2.037.676.5.45.749 1.05.749 1.8 0 .91-.58 1.993-1.74 3.25l-2.475 2.685h4.64v.958zm7.04-3.942c0 1.375-.235 2.397-.705 3.066s-1.204 1.003-2.203 1.003c-.986 0-1.716-.327-2.19-.98-.473-.655-.719-1.631-.736-2.93v-1.568c0-1.358.235-2.368.705-3.028.47-.66 1.206-.99 2.209-.99.994 0 1.726.318 2.196.955.47.637.711 1.62.724 2.949v1.523zm-1.175-1.606c0-.994-.14-1.719-.419-2.174-.279-.455-.721-.682-1.326-.682-.601 0-1.04.226-1.314.679-.275.453-.417 1.149-.426 2.088v1.88c0 .998.145 1.735.435 2.211.29.476.73.714 1.317.714.58 0 1.01-.224 1.292-.672.282-.449.429-1.156.441-2.12v-1.924zm6.538 5.548h-1.18v-7.827l-2.368.87v-1.066l3.364-1.264h.184v9.287zm9.236-3.942c0 1.375-.235 2.397-.704 3.066-.47.669-1.204 1.003-2.203 1.003-.986 0-1.716-.327-2.19-.98-.474-.655-.72-1.631-.736-2.93v-1.568c0-1.358.235-2.368.704-3.028.47-.66 1.206-.99 2.21-.99.994 0 1.726.318 2.196.955.47.637.71 1.62.723 2.949v1.523zm-1.174-1.606c0-.994-.14-1.719-.419-2.174-.28-.455-.721-.682-1.327-.682-.6 0-1.039.226-1.314.679-.275.453-.416 1.149-.425 2.088v1.88c0 .998.145 1.735.435 2.211.29.476.729.714 1.317.714.58 0 1.01-.224 1.292-.672.281-.449.428-1.156.441-2.12v-1.924z" fill="#000"/><path fill="#293055" d="M578 307h30v24h-30z"/><path d="M585.224 356.5h-6.056v-.844l3.2-3.555c.474-.537.8-.974.98-1.31.18-.337.27-.685.27-1.045 0-.482-.146-.878-.438-1.187-.292-.309-.681-.463-1.168-.463-.584 0-1.038.166-1.361.498-.324.332-.486.795-.486 1.387h-1.174c0-.85.274-1.538.822-2.063.548-.525 1.28-.787 2.2-.787.858 0 1.537.225 2.037.676.5.45.749 1.05.749 1.8 0 .91-.58 1.993-1.74 3.25l-2.475 2.685h4.64v.958zm7.04-3.942c0 1.375-.235 2.397-.705 3.066s-1.204 1.003-2.203 1.003c-.986 0-1.716-.327-2.19-.98-.473-.655-.719-1.631-.736-2.93v-1.568c0-1.358.235-2.368.705-3.028.47-.66 1.206-.99 2.209-.99.994 0 1.726.318 2.196.955.47.637.711 1.62.724 2.949v1.523zm-1.175-1.606c0-.994-.14-1.719-.419-2.174-.279-.455-.721-.682-1.326-.682-.601 0-1.04.226-1.314.679-.275.453-.417 1.149-.426 2.088v1.88c0 .998.145 1.735.435 2.211.29.476.73.714 1.317.714.58 0 1.01-.224 1.292-.672.282-.449.429-1.156.441-2.12v-1.924zm6.538 5.548h-1.18v-7.827l-2.368.87v-1.066l3.364-1.264h.184v9.287zm7.3 0h-1.18v-7.827l-2.368.87v-1.066l3.364-1.264h.184v9.287z" fill="#000"/><path fill="#293055" d="M620 301h30v30h-30z"/><path d="M627.224 356.5h-6.056v-.844l3.2-3.555c.474-.537.8-.974.98-1.31.18-.337.27-.685.27-1.045 0-.482-.146-.878-.438-1.187-.292-.309-.681-.463-1.168-.463-.584 0-1.038.166-1.361.498-.324.332-.486.795-.486 1.387h-1.174c0-.85.274-1.538.822-2.063.548-.525 1.28-.787 2.2-.787.858 0 1.537.225 2.037.676.5.45.749 1.05.749 1.8 0 .91-.58 1.993-1.74 3.25l-2.475 2.685h4.64v.958zm7.04-3.942c0 1.375-.235 2.397-.705 3.066s-1.204 1.003-2.203 1.003c-.986 0-1.716-.327-2.19-.98-.473-.655-.719-1.631-.736-2.93v-1.568c0-1.358.235-2.368.705-3.028.47-.66 1.206-.99 2.209-.99.994 0 1.726.318 2.196.955.47.637.711 1.62.724 2.949v1.523zm-1.175-1.606c0-.994-.14-1.719-.419-2.174-.279-.455-.721-.682-1.326-.682-.601 0-1.04.226-1.314.679-.275.453-.417 1.149-.426 2.088v1.88c0 .998.145 1.735.435 2.211.29.476.73.714 1.317.714.58 0 1.01-.224 1.292-.672.282-.449.429-1.156.441-2.12v-1.924zm6.538 5.548h-1.18v-7.827l-2.368.87v-1.066l3.364-1.264h.184v9.287zm9.497 0h-6.056v-.844l3.2-3.555c.473-.537.8-.974.98-1.31.18-.337.27-.685.27-1.045 0-.482-.146-.878-.438-1.187-.292-.309-.682-.463-1.168-.463-.584 0-1.038.166-1.362.498-.324.332-.486.795-.486 1.387h-1.174c0-.85.274-1.538.822-2.063.548-.525 1.281-.787 2.2-.787.859 0 1.538.225 2.037.676.5.45.75 1.05.75 1.8 0 .91-.58 1.993-1.74 3.25l-2.476 2.685h4.64v.958z" fill="#000"/><path fill="#293055" d="M662 265h30v66h-30z"/><path d="M669.224 356.5h-6.056v-.844l3.2-3.555c.474-.537.8-.974.98-1.31.18-.337.27-.685.27-1.045 0-.482-.146-.878-.438-1.187-.292-.309-.681-.463-1.168-.463-.584 0-1.038.166-1.361.498-.324.332-.486.795-.486 1.387h-1.174c0-.85.274-1.538.822-2.063.548-.525 1.28-.787 2.2-.787.858 0 1.537.225 2.037.676.5.45.749 1.05.749 1.8 0 .91-.58 1.993-1.74 3.25l-2.475 2.685h4.64v.958zm7.04-3.942c0 1.375-.235 2.397-.705 3.066s-1.204 1.003-2.203 1.003c-.986 0-1.716-.327-2.19-.98-.473-.655-.719-1.631-.736-2.93v-1.568c0-1.358.235-2.368.705-3.028.47-.66 1.206-.99 2.209-.99.994 0 1.726.318 2.196.955.47.637.711 1.62.724 2.949v1.523zm-1.175-1.606c0-.994-.14-1.719-.419-2.174-.279-.455-.721-.682-1.326-.682-.601 0-1.04.226-1.314.679-.275.453-.417 1.149-.426 2.088v1.88c0 .998.145 1.735.435 2.211.29.476.73.714 1.317.714.58 0 1.01-.224 1.292-.672.282-.449.429-1.156.441-2.12v-1.924zm6.538 5.548h-1.18v-7.827l-2.368.87v-1.066l3.364-1.264h.184v9.287zm5.148-5.192h.883c.554-.009.99-.155 1.307-.438.318-.284.476-.667.476-1.15 0-1.083-.54-1.624-1.618-1.624-.508 0-.913.145-1.216.435-.302.29-.454.673-.454 1.152h-1.174c0-.732.268-1.34.803-1.825.535-.485 1.216-.727 2.04-.727.873 0 1.556.23 2.051.692.495.461.743 1.102.743 1.923 0 .402-.13.791-.39 1.168-.26.377-.615.658-1.064.844.508.161.9.428 1.178.8.277.373.415.827.415 1.365 0 .83-.27 1.487-.812 1.974-.542.487-1.246.73-2.114.73-.867 0-1.573-.235-2.117-.705s-.816-1.09-.816-1.86h1.181c0 .487.159.876.476 1.168.318.292.743.438 1.276.438.567 0 1-.148 1.301-.444.3-.296.451-.721.451-1.276 0-.537-.165-.95-.495-1.238-.33-.287-.806-.435-1.428-.444h-.883v-.958z" fill="#000"/><path fill="#293055" d="M704 245h30v86h-30z"/><path d="M711.224 356.5h-6.056v-.844l3.2-3.555c.474-.537.8-.974.98-1.31.18-.337.27-.685.27-1.045 0-.482-.146-.878-.438-1.187-.292-.309-.681-.463-1.168-.463-.584 0-1.038.166-1.361.498-.324.332-.486.795-.486 1.387h-1.174c0-.85.274-1.538.822-2.063.548-.525 1.28-.787 2.2-.787.858 0 1.537.225 2.037.676.5.45.749 1.05.749 1.8 0 .91-.58 1.993-1.74 3.25l-2.475 2.685h4.64v.958zm7.04-3.942c0 1.375-.235 2.397-.705 3.066s-1.204 1.003-2.203 1.003c-.986 0-1.716-.327-2.19-.98-.473-.655-.719-1.631-.736-2.93v-1.568c0-1.358.235-2.368.705-3.028.47-.66 1.206-.99 2.209-.99.994 0 1.726.318 2.196.955.47.637.711 1.62.724 2.949v1.523zm-1.175-1.606c0-.994-.14-1.719-.419-2.174-.279-.455-.721-.682-1.326-.682-.601 0-1.04.226-1.314.679-.275.453-.417 1.149-.426 2.088v1.88c0 .998.145 1.735.435 2.211.29.476.73.714 1.317.714.58 0 1.01-.224 1.292-.672.282-.449.429-1.156.441-2.12v-1.924zm6.538 5.548h-1.18v-7.827l-2.368.87v-1.066l3.364-1.264h.184v9.287zm8.398-3.104h1.283v.958h-1.283v2.146h-1.18v-2.146h-4.209v-.691l4.139-6.405h1.25v6.138zm-4.056 0h2.876v-4.532l-.14.254-2.736 4.278z" fill="#000"/><path fill="#293055" d="M746 142h30v189h-30z"/><path d="M753.224 356.5h-6.056v-.844l3.2-3.555c.474-.537.8-.974.98-1.31.18-.337.27-.685.27-1.045 0-.482-.146-.878-.438-1.187-.292-.309-.681-.463-1.168-.463-.584 0-1.038.166-1.361.498-.324.332-.486.795-.486 1.387h-1.174c0-.85.274-1.538.822-2.063.548-.525 1.28-.787 2.2-.787.858 0 1.537.225 2.037.676.5.45.749 1.05.749 1.8 0 .91-.58 1.993-1.74 3.25l-2.475 2.685h4.64v.958zm7.04-3.942c0 1.375-.235 2.397-.705 3.066s-1.204 1.003-2.203 1.003c-.986 0-1.716-.327-2.19-.98-.473-.655-.719-1.631-.736-2.93v-1.568c0-1.358.235-2.368.705-3.028.47-.66 1.206-.99 2.209-.99.994 0 1.726.318 2.196.955.47.637.711 1.62.724 2.949v1.523zm-1.175-1.606c0-.994-.14-1.719-.419-2.174-.279-.455-.721-.682-1.326-.682-.601 0-1.04.226-1.314.679-.275.453-.417 1.149-.426 2.088v1.88c0 .998.145 1.735.435 2.211.29.476.73.714 1.317.714.58 0 1.01-.224 1.292-.672.282-.449.429-1.156.441-2.12v-1.924zm6.538 5.548h-1.18v-7.827l-2.368.87v-1.066l3.364-1.264h.184v9.287zm3.98-4.634l.47-4.608h4.736v1.085h-3.74l-.279 2.52a2.99 2.99 0 0 1 1.543-.4c.842 0 1.51.279 2.006.835.495.557.742 1.309.742 2.257 0 .952-.257 1.702-.77 2.25-.515.548-1.233.822-2.156.822-.817 0-1.483-.226-2-.68-.516-.452-.81-1.078-.882-1.878h1.111c.072.529.26.928.565 1.196.305.27.707.403 1.206.403.546 0 .975-.186 1.286-.558.31-.373.466-.887.466-1.543 0-.617-.168-1.114-.505-1.488-.336-.375-.783-.562-1.342-.562-.512 0-.914.112-1.206.337l-.311.253-.94-.24z" fill="#000"/><path fill="#293055" d="M788 122h30v209h-30z"/><path d="M795.224 356.5h-6.056v-.844l3.2-3.555c.474-.537.8-.974.98-1.31.18-.337.27-.685.27-1.045 0-.482-.146-.878-.438-1.187-.292-.309-.681-.463-1.168-.463-.584 0-1.038.166-1.361.498-.324.332-.486.795-.486 1.387h-1.174c0-.85.274-1.538.822-2.063.548-.525 1.28-.787 2.2-.787.858 0 1.537.225 2.037.676.5.45.749 1.05.749 1.8 0 .91-.58 1.993-1.74 3.25l-2.475 2.685h4.64v.958zm7.04-3.942c0 1.375-.235 2.397-.705 3.066s-1.204 1.003-2.203 1.003c-.986 0-1.716-.327-2.19-.98-.473-.655-.719-1.631-.736-2.93v-1.568c0-1.358.235-2.368.705-3.028.47-.66 1.206-.99 2.209-.99.994 0 1.726.318 2.196.955.47.637.711 1.62.724 2.949v1.523zm-1.175-1.606c0-.994-.14-1.719-.419-2.174-.279-.455-.721-.682-1.326-.682-.601 0-1.04.226-1.314.679-.275.453-.417 1.149-.426 2.088v1.88c0 .998.145 1.735.435 2.211.29.476.73.714 1.317.714.58 0 1.01-.224 1.292-.672.282-.449.429-1.156.441-2.12v-1.924zm6.538 5.548h-1.18v-7.827l-2.368.87v-1.066l3.364-1.264h.184v9.287zm8.05-9.249v.997h-.217c-.914.017-1.641.288-2.183.813-.542.524-.855 1.263-.94 2.215.487-.559 1.151-.838 1.994-.838.804 0 1.446.284 1.926.85.48.568.72 1.3.72 2.197 0 .952-.259 1.714-.777 2.285-.518.571-1.214.857-2.085.857-.885 0-1.602-.34-2.152-1.019-.55-.679-.825-1.554-.825-2.625v-.45c0-1.701.363-3.002 1.088-3.9.726-.9 1.806-1.36 3.24-1.382h.21zm-1.543 4.165c-.402 0-.773.12-1.111.361a1.885 1.885 0 0 0-.705.908v.432c0 .761.172 1.375.515 1.84.342.466.77.699 1.282.699.529 0 .944-.195 1.247-.584.303-.39.454-.9.454-1.53 0-.635-.153-1.148-.46-1.54a1.475 1.475 0 0 0-1.222-.586z" fill="#000"/><path fill-opacity=".4" fill="#293055" d="M830 95h30v236h-30z"/><path d="M844.096 236.87h5.01v1.687h-12.797v-4.72c0-1.4.358-2.497 1.072-3.291.715-.794 1.661-1.191 2.84-1.191 1.241 0 2.198.388 2.869 1.165.67.776 1.006 1.888 1.006 3.335v3.015zm-1.38 0v-3.033c0-.902-.212-1.593-.637-2.074-.425-.48-1.038-.72-1.841-.72-.762 0-1.371.24-1.828.72-.457.48-.695 1.14-.712 1.978v3.129h5.018zm-1.66-14.01a4.873 4.873 0 0 0-.062.8c0 1.066.454 1.79 1.362 2.17h6.75v1.627h-9.51v-1.582l1.099-.027c-.85-.533-1.275-1.289-1.275-2.267 0-.317.041-.557.123-.721h1.512zm3.207-.888c-.931 0-1.77-.183-2.513-.55-.745-.365-1.319-.875-1.723-1.528-.404-.654-.607-1.4-.607-2.237 0-1.295.449-2.343 1.345-3.142.897-.8 2.089-1.2 3.577-1.2h.115c.925 0 1.756.177 2.491.532a4.038 4.038 0 0 1 1.719 1.52c.41.66.615 1.417.615 2.272 0 1.29-.449 2.334-1.345 3.134-.896.8-2.083 1.2-3.56 1.2h-.114zm.194-1.635c1.054 0 1.9-.244 2.54-.733.638-.49.958-1.144.958-1.965 0-.826-.324-1.482-.972-1.969-.647-.486-1.554-.729-2.72-.729-1.043 0-1.888.248-2.535.743-.648.495-.972 1.152-.972 1.973 0 .803.32 1.45.958 1.942.639.492 1.553.738 2.743.738zm-4.86-10.74h10.608c1.828 0 2.742.83 2.742 2.488 0 .357-.053.688-.158.993h-1.301c.047-.188.07-.434.07-.739 0-.363-.098-.64-.294-.83-.197-.19-.538-.286-1.024-.286h-10.644v-1.626zm-2.523 1.793a.975.975 0 0 1-.664-.242c-.184-.16-.277-.396-.277-.707 0-.316.091-.557.273-.72a.96.96 0 0 1 .668-.247.93.93 0 0 1 .659.246c.176.164.264.405.264.721 0 .316-.088.554-.264.712a.949.949 0 0 1-.66.237zm12.208-8.358c0 1.289-.424 2.338-1.27 3.146-.847.809-1.98 1.213-3.397 1.213h-.3c-.942 0-1.785-.18-2.526-.54-.741-.36-1.321-.865-1.74-1.512a3.8 3.8 0 0 1-.629-2.105c0-1.236.408-2.197 1.222-2.883.815-.685 1.98-1.028 3.498-1.028h.677v6.442c.937-.023 1.695-.297 2.272-.822.577-.524.866-1.19.866-2 0-.573-.118-1.06-.352-1.458a3.666 3.666 0 0 0-.932-1.046l.774-.993c1.224.797 1.837 1.992 1.837 3.586zm-8.526.202c0 .656.24 1.207.717 1.652.477.446 1.147.721 2.008.826v-4.763h-.123c-.826.047-1.466.27-1.92.668-.455.398-.682.937-.682 1.617zm7.199-9.607a2.34 2.34 0 0 0-.528-1.52c-.351-.434-.79-.674-1.318-.72v-1.539c.545.03 1.063.217 1.556.563a3.7 3.7 0 0 1 1.177 1.384c.293.577.44 1.188.44 1.832 0 1.295-.432 2.325-1.297 3.09-.864.764-2.046 1.147-3.546 1.147h-.272c-.926 0-1.75-.17-2.47-.51-.72-.34-1.28-.828-1.679-1.463-.398-.636-.598-1.388-.598-2.255 0-1.066.32-1.952.958-2.658.64-.706 1.468-1.083 2.488-1.13v1.538c-.616.047-1.12.28-1.516.699-.396.419-.594.936-.594 1.551 0 .826.298 1.467.892 1.92.595.455 1.455.682 2.58.682h.308c1.095 0 1.94-.226 2.53-.677.593-.451.889-1.096.889-1.934zm-10.662-7.813h2.303v-1.775h1.257v1.775h5.897c.381 0 .667-.08.857-.237.19-.159.286-.428.286-.809 0-.187-.035-.445-.105-.773h1.318c.117.427.176.843.176 1.248 0 .726-.22 1.274-.66 1.643-.439.37-1.063.554-1.872.554h-5.897v1.731h-1.257v-1.731h-2.303v-1.626zm11.989-7.62c0 1.289-.424 2.338-1.27 3.146-.847.809-1.98 1.213-3.397 1.213h-.3c-.942 0-1.785-.18-2.526-.54-.741-.36-1.321-.865-1.74-1.512a3.8 3.8 0 0 1-.629-2.105c0-1.236.408-2.197 1.222-2.883.815-.685 1.98-1.028 3.498-1.028h.677v6.442c.937-.023 1.695-.297 2.272-.821.577-.525.866-1.191.866-2 0-.574-.118-1.06-.352-1.459a3.666 3.666 0 0 0-.932-1.046l.774-.993c1.224.797 1.837 1.992 1.837 3.586zm-8.526.202c0 .656.24 1.207.717 1.652.477.446 1.147.721 2.008.827v-4.764h-.123c-.826.047-1.466.27-1.92.668-.455.398-.682.937-.682 1.617zm3.516-5.396c-1.459 0-2.632-.346-3.52-1.038-.888-.691-1.332-1.596-1.332-2.715 0-1.114.381-1.995 1.143-2.646h-4.957v-1.626h13.5v1.494l-1.02.08c.797.65 1.196 1.555 1.196 2.715 0 1.102-.451 2-1.354 2.694-.902.694-2.08 1.042-3.533 1.042h-.123zm.185-1.626c1.078 0 1.921-.223 2.53-.668.61-.446.915-1.06.915-1.846 0-1.031-.463-1.784-1.389-2.259h-4.368c-.896.486-1.345 1.234-1.345 2.241 0 .797.308 1.418.923 1.864.615.445 1.527.668 2.734.668z" fill="#FFF"/><path d="M837.224 356.5h-6.056v-.844l3.2-3.555c.474-.537.8-.974.98-1.31.18-.337.27-.685.27-1.045 0-.482-.146-.878-.438-1.187-.292-.309-.681-.463-1.168-.463-.584 0-1.038.166-1.361.498-.324.332-.486.795-.486 1.387h-1.174c0-.85.274-1.538.822-2.063.548-.525 1.28-.787 2.2-.787.858 0 1.537.225 2.037.676.5.45.749 1.05.749 1.8 0 .91-.58 1.993-1.74 3.25l-2.475 2.685h4.64v.958zm7.04-3.942c0 1.375-.235 2.397-.705 3.066s-1.204 1.003-2.203 1.003c-.986 0-1.716-.327-2.19-.98-.473-.655-.719-1.631-.736-2.93v-1.568c0-1.358.235-2.368.705-3.028.47-.66 1.206-.99 2.209-.99.994 0 1.726.318 2.196.955.47.637.711 1.62.724 2.949v1.523zm-1.175-1.606c0-.994-.14-1.719-.419-2.174-.279-.455-.721-.682-1.326-.682-.601 0-1.04.226-1.314.679-.275.453-.417 1.149-.426 2.088v1.88c0 .998.145 1.735.435 2.211.29.476.73.714 1.317.714.58 0 1.01-.224 1.292-.672.282-.449.429-1.156.441-2.12v-1.924zm6.538 5.548h-1.18v-7.827l-2.368.87v-1.066l3.364-1.264h.184v9.287zm9.408-8.582l-3.828 8.582h-1.231l3.815-8.277h-5.002v-.965h6.246v.66z" fill="#000"/></g><g mask="url(#b)"><path fill="#293055" d="M348 390h40v20h-40z"/><path d="M405.871 402.067c-.114.978-.475 1.732-1.082 2.263-.607.531-1.415.797-2.422.797-1.092 0-1.967-.391-2.625-1.174-.658-.783-.987-1.83-.987-3.142v-.89c0-.858.154-1.614.46-2.265.307-.652.742-1.152 1.305-1.501.563-.35 1.215-.524 1.955-.524.982 0 1.769.274 2.361.822.593.548.938 1.306 1.035 2.276h-1.225c-.106-.737-.335-1.27-.689-1.6-.353-.33-.847-.495-1.482-.495-.779 0-1.389.288-1.831.863-.442.576-.664 1.394-.664 2.457v.895c0 1.003.21 1.8.629 2.393.419.592 1.005.888 1.758.888.677 0 1.197-.153 1.559-.46.361-.307.602-.84.72-1.603h1.225zm2.755 2.933h-1.174v-9.75h1.174V405zm3.155 0h-1.175v-6.868h1.175V405zm-1.27-8.69c0-.19.058-.351.175-.482.116-.132.289-.197.517-.197.229 0 .402.065.52.197a.694.694 0 0 1 .178.482c0 .19-.059.35-.177.476-.119.127-.292.19-.52.19-.23 0-.402-.063-.518-.19a.678.678 0 0 1-.175-.476zm5.999 8.817c-.931 0-1.689-.306-2.273-.917-.584-.612-.876-1.43-.876-2.454v-.215c0-.682.13-1.29.39-1.825a3.043 3.043 0 0 1 1.093-1.257 2.745 2.745 0 0 1 1.52-.454c.893 0 1.587.294 2.082.882.495.588.742 1.43.742 2.527v.488h-4.652c.017.677.214 1.224.593 1.641.379.417.86.625 1.444.625.415 0 .766-.084 1.054-.253.288-.17.54-.394.755-.673l.718.558c-.576.885-1.44 1.327-2.59 1.327zm-.146-6.157c-.474 0-.872.172-1.194.517-.321.345-.52.828-.596 1.45h3.44v-.088c-.034-.597-.194-1.06-.482-1.387-.288-.328-.677-.492-1.168-.492zm5.294-.838l.038.863c.525-.66 1.21-.99 2.056-.99 1.452 0 2.184.819 2.197 2.456V405h-1.175v-4.545c-.004-.495-.117-.861-.34-1.098-.221-.237-.567-.356-1.037-.356-.38 0-.715.102-1.003.305a2.07 2.07 0 0 0-.673.8V405h-1.174v-6.868h1.11zm7.655-1.663v1.663h1.282v.908h-1.282v4.259c0 .275.057.481.171.619.115.137.31.206.584.206.136 0 .322-.025.559-.076V405c-.309.085-.61.127-.901.127-.525 0-.92-.159-1.187-.476-.267-.318-.4-.768-.4-1.352v-4.26h-1.25v-.907h1.25v-1.663h1.174zm8.049 5.617l.178 1.22.26-1.099 1.828-6.45h1.028l1.784 6.45.254 1.117.197-1.244 1.434-6.322h1.225L443.31 405h-1.111l-1.905-6.735-.146-.704-.146.704-1.974 6.735h-1.11l-2.235-9.242h1.219l1.46 6.328zM447.994 405h-1.174v-6.868h1.174V405zm-1.27-8.69c0-.19.059-.351.175-.482.117-.132.289-.197.518-.197.228 0 .402.065.52.197a.694.694 0 0 1 .178.482c0 .19-.06.35-.178.476-.118.127-.292.19-.52.19-.229 0-.401-.063-.518-.19a.678.678 0 0 1-.174-.476zm4.742.159v1.663h1.283v.908h-1.283v4.259c0 .275.057.481.172.619.114.137.309.206.584.206.135 0 .321-.025.558-.076V405c-.309.085-.61.127-.901.127-.525 0-.92-.159-1.187-.476-.267-.318-.4-.768-.4-1.352v-4.26h-1.25v-.907h1.25v-1.663h1.174zm3.828 2.494c.52-.639 1.198-.958 2.031-.958 1.452 0 2.184.819 2.196 2.456V405h-1.174v-4.545c-.004-.495-.117-.861-.34-1.098-.222-.237-.568-.356-1.037-.356-.381 0-.715.102-1.003.305a2.07 2.07 0 0 0-.673.8V405h-1.174v-9.75h1.174v3.713zm5.7 2.546c0-1.054.25-1.901.75-2.542.499-.642 1.152-.962 1.96-.962.805 0 1.442.275 1.911.825v-3.58h1.175V405h-1.08l-.057-.736c-.47.575-1.123.863-1.961.863-.796 0-1.444-.326-1.946-.978-.501-.651-.752-1.502-.752-2.551v-.09zm1.174.133c0 .779.161 1.388.483 1.828.321.44.766.66 1.333.66.745 0 1.288-.334 1.631-1.003v-3.154c-.351-.648-.89-.972-1.618-.972-.576 0-1.025.223-1.346.667-.322.444-.483 1.102-.483 1.974zm9.763-2.456a3.519 3.519 0 0 0-.577-.045c-.77 0-1.293.328-1.568.984V405h-1.175v-6.868h1.143l.019.793c.385-.613.93-.92 1.638-.92.228 0 .402.03.52.089v1.092zm5.066 5.814c-.068-.135-.123-.377-.165-.724-.546.567-1.198.851-1.956.851-.677 0-1.232-.192-1.666-.575a1.859 1.859 0 0 1-.65-1.456c0-.715.271-1.27.815-1.667.544-.395 1.309-.593 2.295-.593h1.142v-.54c0-.41-.122-.737-.368-.98-.245-.244-.607-.365-1.085-.365-.42 0-.77.105-1.054.317-.283.212-.425.468-.425.768h-1.18c0-.343.12-.674.364-.993.244-.32.574-.573.99-.759.417-.186.875-.28 1.375-.28.791 0 1.411.199 1.86.594.448.396.68.94.698 1.635v3.161c0 .63.08 1.132.241 1.504V405h-1.231zm-1.95-.895c.369 0 .718-.095 1.048-.286.33-.19.57-.438.718-.742v-1.41h-.92c-1.44 0-2.16.422-2.16 1.264 0 .368.124.656.37.863.244.207.56.311.945.311zm10.862-.724l1.32-5.25h1.174l-2 6.869h-.951l-1.67-5.205-1.625 5.205h-.952l-1.993-6.868h1.168l1.352 5.141 1.6-5.141h.945l1.632 5.25zm7.928 1.619c-.068-.135-.123-.377-.165-.724-.546.567-1.198.851-1.955.851-.677 0-1.233-.192-1.666-.575a1.859 1.859 0 0 1-.651-1.456c0-.715.272-1.27.816-1.667.543-.395 1.308-.593 2.294-.593h1.143v-.54c0-.41-.123-.737-.368-.98-.246-.244-.608-.365-1.086-.365-.419 0-.77.105-1.053.317-.284.212-.426.468-.426.768h-1.18c0-.343.121-.674.365-.993.243-.32.573-.573.99-.759.417-.186.875-.28 1.374-.28.791 0 1.411.199 1.86.594.448.396.681.94.698 1.635v3.161c0 .63.08 1.132.241 1.504V405h-1.231zm-1.949-.895c.368 0 .717-.095 1.048-.286.33-.19.569-.438.717-.742v-1.41h-.92c-1.44 0-2.159.422-2.159 1.264 0 .368.123.656.368.863.246.207.561.311.946.311zm6.056.895h-1.174v-9.75h1.174V405zm5.878-1.822c0-.317-.12-.564-.359-.74-.239-.175-.656-.326-1.25-.453-.595-.127-1.067-.28-1.416-.457-.349-.178-.607-.39-.774-.635a1.518 1.518 0 0 1-.251-.876c0-.563.238-1.039.714-1.428.476-.39 1.084-.584 1.825-.584.779 0 1.41.2 1.895.603.484.402.727.916.727 1.542h-1.181c0-.321-.137-.598-.41-.831-.272-.233-.616-.35-1.031-.35-.427 0-.762.094-1.003.28a.88.88 0 0 0-.362.73c0 .284.112.497.337.641.224.144.63.282 1.215.413.586.13 1.061.287 1.425.47.364.181.634.4.81.656.175.256.263.569.263.937a1.76 1.76 0 0 1-.736 1.476c-.491.37-1.128.555-1.91.555-.551 0-1.038-.097-1.46-.292a2.374 2.374 0 0 1-.994-.816 1.966 1.966 0 0 1-.359-1.133h1.174c.022.394.18.706.473.937.294.23.683.345 1.165.345.444 0 .801-.09 1.07-.27.268-.18.403-.42.403-.72zm5.878-1.93c0-.956.128-1.874.384-2.754.256-.88.638-1.68 1.145-2.4.508-.72 1.035-1.227 1.581-1.523l.241.774c-.618.474-1.124 1.198-1.52 2.171-.396.973-.613 2.063-.65 3.27l-.007.539c0 1.633.298 3.05.895 4.253.36.719.787 1.282 1.282 1.688l-.24.717c-.564-.313-1.101-.837-1.613-1.574-.999-1.439-1.498-3.159-1.498-5.16zm11.178-5.49v6.284c-.004.872-.278 1.585-.822 2.14-.544.554-1.281.865-2.212.932l-.324.013c-1.011 0-1.818-.273-2.418-.819-.601-.546-.906-1.297-.915-2.253v-6.297h1.207v6.259c0 .668.184 1.188.552 1.558.368.37.893.555 1.574.555.69 0 1.218-.184 1.584-.552.366-.368.549-.886.549-1.555v-6.265h1.225zm4.646 5.122c-1.045-.3-1.805-.67-2.282-1.107a2.116 2.116 0 0 1-.714-1.622c0-.728.291-1.33.873-1.806.582-.476 1.338-.714 2.27-.714.634 0 1.2.123 1.697.368.498.245.883.584 1.156 1.016.273.431.41.903.41 1.415h-1.226c0-.558-.178-.997-.533-1.317-.356-.32-.857-.48-1.505-.48-.6 0-1.07.133-1.406.398-.336.264-.504.631-.504 1.1 0 .377.16.696.479.956.32.26.863.498 1.631.714.768.216 1.37.454 1.803.714.434.26.755.564.965.911.21.347.314.756.314 1.225 0 .75-.292 1.35-.876 1.8-.584.45-1.365.676-2.342.676a4.344 4.344 0 0 1-1.777-.365c-.55-.243-.975-.577-1.273-1a2.44 2.44 0 0 1-.448-1.44h1.225c0 .558.207.999.62 1.323.412.324.963.485 1.653.485.643 0 1.136-.13 1.479-.393.343-.263.514-.62.514-1.073 0-.453-.159-.803-.476-1.05-.317-.248-.893-.492-1.727-.734zm4.99 4.12v-9.242h2.609c.804 0 1.515.178 2.132.533a3.606 3.606 0 0 1 1.432 1.517c.336.656.507 1.41.51 2.26v.59c0 .872-.167 1.636-.504 2.292a3.55 3.55 0 0 1-1.44 1.51c-.625.352-1.352.532-2.181.54h-2.558zm1.218-8.24v7.243h1.283c.94 0 1.67-.292 2.193-.876.522-.584.784-1.415.784-2.494v-.54c0-1.05-.247-1.865-.74-2.447-.493-.582-1.192-.877-2.098-.885h-1.422zm9.833 4.552c0 .944-.124 1.848-.371 2.714a8.024 8.024 0 0 1-1.137 2.396c-.51.732-1.044 1.252-1.602 1.561l-.248-.717c.652-.5 1.175-1.275 1.571-2.326.396-1.052.598-2.219.606-3.501v-.203c0-.889-.093-1.715-.279-2.479a8.366 8.366 0 0 0-.778-2.053c-.332-.606-.705-1.077-1.12-1.416l.248-.717c.558.309 1.09.825 1.596 1.549a8.041 8.041 0 0 1 1.136 2.393c.252.871.378 1.805.378 2.799z" fill="#000"/></g></g></svg>