<svg version="1.1" id="Layer_1" xmlns="http://www.w3.org/2000/svg" x="0" y="0" viewBox="0 0 900 400" xml:space="preserve"><style>.st0{fill:#fff}.st1{fill:#e98024}</style><path class="st0" d="M-32.9-17.7h966.2v433.9H-32.9z"/><path class="st1" d="M303.7 347.8h22.1c.6 0 1 .4 1 1v11.5h-24.1v-11.5c0-.7.4-1 1-1z"/><path d="M343.6 357.4h-1.1l-4.1-6.3v6.3h-1.1v-8.2h1.1l4.1 6.3v-6.3h1.1v8.2zm5.6-.6c-.4.5-1 .7-1.8.7-.7 0-1.2-.2-1.4-.6-.4-.4-.5-1-.5-1.6v-3.9h1.1v3.9c0 1 .4 1.3 1.2 1.3s1.3-.3 1.6-.9v-4.4h1.1v6.1h-1l-.3-.6zm3.6-5.5v.7c.5-.5 1.1-.8 1.8-.8.9 0 1.4.3 1.7 1 .2-.3.5-.6.8-.7.3-.2.7-.3 1.2-.3 1.3 0 2 .7 2 2.1v4h-1.1v-4c0-.5-.1-.8-.3-1-.2-.2-.6-.3-1-.3s-.7.1-1 .4c-.3.2-.4.6-.5 1v4h-1.1v-4c0-.9-.5-1.3-1.3-1.3-.7 0-1.2.3-1.4.9v4.4h-.9v-6.1h1.1zm14.3 3.1c0 1-.2 1.6-.7 2.2-.4.6-1 .9-1.7.9-.8 0-1.3-.3-1.8-.9l-.1.7h-1v-8.7h1.1v3.3c.4-.5 1-.8 1.7-.8s1.3.3 1.7.9c.4.6.8 1.3.8 2.4zm-1.1-.1c0-.7-.1-1.3-.4-1.6-.3-.4-.7-.6-1.2-.6-.7 0-1.2.3-1.4 1v2.6c.3.7.9 1 1.5 1 .5 0 .9-.2 1.2-.6.1-.5.3-1 .3-1.8zm4.9 3.2c-.9 0-1.5-.3-2-.8-.5-.6-.8-1.3-.8-2.2v-.2c0-.6.1-1.2.4-1.6.3-.5.6-.9 1-1.2s.9-.4 1.3-.4c.8 0 1.4.3 1.8.8s.7 1.3.7 2.2v.5h-4.2c0 .6.2 1.1.5 1.4.4.4.8.6 1.3.6.4 0 .7-.1 1-.2.3-.2.5-.4.7-.6l.7.5c-.6.8-1.4 1.2-2.4 1.2zm-.2-5.5c-.4 0-.8.2-1.1.5-.3.3-.5.8-.6 1.3h3.1v-.1c0-.5-.2-1-.4-1.3-.2-.2-.5-.4-1-.4zm6.8.2h-.5c-.7 0-1.2.3-1.3.9v4.3h-1.1v-6.1h1.1v.7c.4-.6.9-.9 1.4-.9.2 0 .4 0 .5.1l-.1 1zm3.4 2.1c0-.6.1-1.2.4-1.6.2-.5.6-.9 1-1.1.4-.3.9-.4 1.4-.4.9 0 1.5.3 2 .9s.8 1.3.8 2.3v.1c0 .6-.1 1.2-.4 1.6-.2.5-.6.9-1 1.1-.4.3-.9.4-1.4.4-.9 0-1.5-.3-2-.9-.5-.7-.8-1.4-.8-2.4zm1.1.1c0 .7.2 1.3.5 1.6.3.4.8.6 1.3.6s1-.2 1.3-.6.5-1 .5-1.7-.2-1.3-.5-1.6c-.3-.4-.8-.7-1.3-.6-.5 0-1 .2-1.3.6-.3.3-.5.9-.5 1.7zm6.4 3v-5.3h-1v-.8h1v-.7c0-.7.2-1.2.5-1.5.4-.4.9-.6 1.4-.6.2 0 .5 0 .7.1l-.1.9c-.2 0-.4-.1-.6-.1-.4 0-.6.1-.8.3-.2.2-.3.5-.3.9v.7h1.3v.8h-1.3v5.3h-.8zm7.7-7.6v1.4h1.2v.8h-1.2v3.8c0 .3.1.4.2.6.1.1.3.2.5.2.1 0 .3 0 .5-.1v.9c-.3.1-.6.1-.8.1-.5 0-.9-.1-1.1-.4s-.4-.7-.4-1.2v-3.8h-1.2v-.8h1.2v-1.4l1.1-.1zm5.3 2.4h-.4c-.7 0-1.2.3-1.3.9v4.3h-1.1v-6.1h1.1v.7c.4-.6.9-.9 1.4-.9.2 0 .4 0 .5.1l-.2 1zm4.6 5.2c-.1-.1-.1-.3-.2-.7-.5.5-1.1.8-1.7.8s-1.1-.2-1.4-.5c-.4-.4-.6-.8-.6-1.3 0-.7.2-1.2.8-1.4.5-.4 1.2-.5 2-.5h1.1v-.5c0-.4-.1-.7-.3-.9-.2-.2-.6-.3-1-.3s-.7.1-1 .3c-.3.2-.4.4-.4.7h-1.1c0-.3.1-.6.3-.9.2-.3.6-.5.9-.7.4-.2.8-.3 1.3-.3.7 0 1.3.2 1.6.5.4.3.6.9.6 1.4v2.8c0 .6.1 1 .2 1.3v.1l-1.1.1zm-1.8-.8c.3 0 .7-.1 1-.3.3-.2.5-.4.7-.7v-1.3h-.9c-1.3 0-1.9.4-1.9 1.2 0 .3.1.6.3.8s.4.3.8.3zm5.2-5.3v.8c.5-.6 1.1-.9 1.8-.9 1.3 0 1.9.8 1.9 2.2v4H412v-4c0-.5-.1-.8-.3-1-.2-.2-.5-.3-1-.3-.4 0-.7.1-.9.3-.3.2-.5.4-.6.7v4.3h-1.1v-6.1h1.3zm9 4.4c0-.3-.1-.5-.3-.7-.2-.2-.6-.3-1.2-.4-.5-.1-1-.3-1.3-.4-.3-.2-.6-.4-.7-.6-.2-.2-.2-.5-.2-.8 0-.5.2-1 .7-1.3.4-.4 1-.5 1.6-.5.7 0 1.3.2 1.6.6.4.4.7.8.7 1.3h-1.1c0-.3-.1-.6-.4-.8-.3-.2-.6-.3-1-.3s-.7.1-.9.3c-.2.2-.3.4-.3.7 0 .3.1.5.3.6.2.1.6.3 1.1.4s1 .3 1.3.4c.3.2.6.4.7.6.2.2.2.5.2.9 0 .6-.2 1-.7 1.3s-1 .5-1.7.5c-.5 0-1-.1-1.3-.3-.4-.2-.7-.4-.9-.8-.2-.3-.3-.7-.3-1h1.1c0 .4.2.7.4.9.3.2.6.3 1.1.3.4 0 .7-.1 1-.2.4-.2.5-.4.5-.7zm6.1 1.7c-.1-.1-.1-.3-.2-.7-.5.5-1.1.8-1.7.8s-1.1-.2-1.4-.5c-.4-.4-.6-.8-.6-1.3 0-.7.2-1.2.8-1.4.5-.4 1.2-.5 2-.5h1.1v-.5c0-.4-.1-.7-.3-.9-.2-.2-.6-.3-1-.3s-.7.1-1 .3c-.3.2-.4.4-.4.7h-1.1c0-.3.1-.6.3-.9.2-.3.6-.5.9-.7.4-.2.8-.3 1.3-.3.7 0 1.3.2 1.6.5.4.3.6.9.6 1.4v2.8c0 .6.1 1 .2 1.3v.1l-1.1.1zm-1.7-.8c.3 0 .7-.1 1-.3.3-.2.5-.4.7-.7v-1.3h-.9c-1.3 0-1.9.4-1.9 1.2 0 .3.1.6.3.8.2.2.5.3.8.3zm6.7 0c.4 0 .7-.1 1-.4.3-.2.5-.5.5-.9h1c0 .4-.1.7-.4 1-.2.3-.6.6-.9.8-.4.2-.8.3-1.2.3-.9 0-1.4-.3-2-.9-.5-.6-.8-1.3-.8-2.3v-.2c0-.6.1-1.2.3-1.5.2-.5.6-.9 1-1.1.4-.3.9-.4 1.4-.4.7 0 1.3.2 1.7.6s.7 1 .8 1.6h-1c0-.4-.2-.7-.5-1s-.7-.4-1-.4c-.5 0-1 .2-1.3.6s-.5 1-.5 1.6v.2c0 .7.1 1.3.5 1.6.5.6.9.8 1.4.8zm5-6.8v1.4h1.2v.8h-1.2v3.8c0 .3.1.4.2.6.1.1.3.2.5.2.1 0 .3 0 .5-.1v.9c-.3.1-.6.1-.8.1-.5 0-.9-.1-1.1-.4s-.4-.7-.4-1.2v-3.8h-1.2v-.8h1.2v-1.4l1.1-.1zm3.5 7.6h-1.1v-6.1h1.1v6.1zm-1.2-7.7c0-.2.1-.3.2-.4s.3-.2.5-.2.4.1.5.2.2.3.2.4c0 .2-.1.3-.2.4s-.3.2-.5.2-.4-.1-.5-.2-.2-.3-.2-.4zm2.5 4.6c0-.6.1-1.2.4-1.6.2-.5.6-.9 1-1.1.4-.3.9-.4 1.4-.4.9 0 1.5.3 2 .9s.8 1.3.8 2.3v.1c0 .6-.1 1.2-.4 1.6-.2.5-.6.9-1 1.1-.4.3-.9.4-1.4.4-.9 0-1.5-.3-2-.9-.5-.7-.8-1.4-.8-2.4zm1.1.1c0 .7.2 1.3.5 1.6.3.4.8.6 1.3.6s1-.2 1.3-.6.5-1 .5-1.7-.2-1.3-.5-1.6c-.3-.4-.8-.7-1.3-.6-.5 0-1 .2-1.3.6-.3.3-.5.9-.5 1.7zm6.8-3.1v.8c.5-.6 1.1-.9 1.8-.9 1.3 0 1.9.8 1.9 2.2v4h-1.1v-4c0-.5-.1-.8-.3-1-.2-.2-.5-.3-1-.3-.4 0-.7.1-.9.3-.3.2-.5.4-.6.7v4.3h-1.1v-6.1h1.3zm9 4.4c0-.3-.1-.5-.3-.7-.2-.2-.6-.3-1.2-.4-.5-.1-1-.3-1.3-.4-.3-.2-.6-.4-.7-.6-.2-.2-.2-.5-.2-.8 0-.5.2-1 .7-1.3.4-.4 1-.5 1.6-.5.7 0 1.3.2 1.6.6.4.4.7.8.7 1.3H456c0-.3-.1-.6-.4-.8-.3-.2-.6-.3-1-.3s-.7.1-.9.3c-.2.2-.3.4-.3.7 0 .3.1.5.3.6.2.1.6.3 1.1.4s1 .3 1.3.4c.3.2.6.4.7.6.2.2.2.5.2.9 0 .6-.2 1-.7 1.3s-1 .5-1.7.5c-.5 0-1-.1-1.3-.3-.4-.2-.7-.4-.9-.8-.2-.3-.3-.7-.3-1h1.1c0 .4.2.7.4.9.3.2.6.3 1.1.3.4 0 .7-.1 1-.2.4-.2.5-.4.5-.7zm5-1.4c0-.6.1-1.2.4-1.6.2-.5.6-.9 1-1.1.4-.3.9-.4 1.4-.4.9 0 1.5.3 2 .9s.8 1.3.8 2.3v.1c0 .6-.1 1.2-.4 1.6-.2.5-.6.9-1 1.1-.4.3-.9.4-1.4.4-.9 0-1.5-.3-2-.9-.6-.7-.8-1.4-.8-2.4zm1 .1c0 .7.2 1.3.5 1.6.3.4.8.6 1.3.6s1-.2 1.3-.6.5-1 .5-1.7-.2-1.3-.5-1.6c-.3-.4-.8-.7-1.3-.6-.5 0-1 .2-1.3.6-.3.3-.5.9-.5 1.7zm6.8-3.1v.8c.5-.6 1.1-.9 1.8-.9 1.3 0 1.9.8 1.9 2.2v4h-1.1v-4c0-.5-.1-.8-.3-1-.2-.2-.5-.3-1-.3-.4 0-.7.1-.9.3-.3.2-.5.4-.6.7v4.3h-1.1v-6.1h1.3zm8.4 6.1v-8.2h2.7c.9 0 1.5.2 2 .6s.7 1 .7 1.6c0 .4-.1.8-.3 1.1-.2.3-.6.6-.9.7.5.1.8.4 1.1.7.3.4.4.8.4 1.3 0 .8-.2 1.3-.7 1.7s-1.2.7-2 .7l-3-.2zm1.1-3.9v3h1.8c.5 0 .9-.1 1.2-.4.3-.3.5-.6.5-1.1 0-1-.6-1.4-1.6-1.4l-1.9-.1zm0-.8h1.6c.5 0 .9-.1 1.2-.4.3-.2.4-.6.4-1 0-.5-.1-.8-.4-1s-.7-.3-1.2-.3h-1.6v2.7zm7 4.7h-1v-6.1h1.1l-.1 6.1zm-1-7.7c0-.2.1-.3.2-.4s.3-.2.5-.2.4.1.5.2.2.3.2.4c0 .2-.1.3-.2.4s-.3.2-.5.2-.4-.1-.5-.2c-.2-.1-.2-.3-.2-.4zm3.7 1.6v.8c.5-.6 1.1-.9 1.8-.9 1.3 0 1.9.8 1.9 2.2v4h-1.1v-4c0-.5-.1-.8-.3-1-.2-.2-.5-.3-1-.3-.4 0-.7.1-.9.3-.3.2-.5.4-.6.7v4.3h-1.1v-6.1h1.3zm9.2 6.1c-.1-.1-.1-.3-.2-.7-.5.5-1.1.8-1.7.8s-1.1-.2-1.4-.5c-.4-.4-.6-.8-.6-1.3 0-.7.2-1.2.8-1.4.5-.4 1.2-.5 2-.5h1.1v-.5c0-.4-.1-.7-.3-.9-.2-.2-.6-.3-1-.3s-.7.1-1 .3c-.3.2-.4.4-.4.7h-1.1c0-.3.1-.6.3-.9.2-.3.6-.5.9-.7.4-.2.8-.3 1.3-.3.7 0 1.3.2 1.6.5.4.3.6.9.6 1.4v2.8c0 .6.1 1 .2 1.3v.1l-1.1.1zm-1.8-.8c.3 0 .7-.1 1-.3.3-.2.5-.4.7-.7v-1.3h-.8c-1.3 0-1.9.4-1.9 1.2 0 .3.1.6.3.8s.4.3.7.3zm7.2-4.4h-.5c-.7 0-1.2.3-1.3.9v4.3h-1v-6.1h1.1v.7c.4-.6.9-.9 1.4-.9.2 0 .4 0 .5.1l-.2 1zm3.1 3.6l1.4-4.6h1.2l-2.4 7c-.4 1.1-1 1.5-1.8 1.5h-.2l-.4-.1v-.9h.3c.4 0 .7-.1.9-.2.2-.1.4-.4.5-.8l.2-.6-2.2-6.1h1.2l1.3 4.8zm2.9 1c0-.2.1-.3.2-.5.1-.1.3-.2.5-.2s.4.1.5.2.2.3.2.5-.1.3-.2.5c-.1.1-.3.2-.5.2s-.4-.1-.5-.2c-.2-.1-.2-.3-.2-.5zm5.4-.2c.4 0 .7-.1 1-.4.3-.2.4-.5.5-.9h1c0 .4-.1.7-.4 1-.2.3-.6.6-.9.8-.4.2-.8.3-1.2.3-.9 0-1.4-.3-2-.9-.5-.6-.8-1.3-.8-2.3v-.2c0-.6.1-1.2.3-1.5.2-.5.6-.9 1-1.1.4-.3.9-.4 1.4-.4.7 0 1.3.2 1.7.6.5.4.7 1 .8 1.6h-1c0-.4-.2-.7-.5-1s-.7-.4-1-.4c-.5 0-1 .2-1.3.6s-.5 1-.5 1.6v.2c0 .7.2 1.3.5 1.6.5.6.9.8 1.4.8zm3.4-2.3c0-.6.1-1.2.4-1.6.2-.5.6-.9 1-1.1.4-.3.9-.4 1.4-.4.9 0 1.5.3 2 .9s.8 1.3.8 2.3v.1c0 .6-.1 1.2-.4 1.6-.2.5-.6.9-1 1.1-.4.3-.9.4-1.4.4-.9 0-1.5-.3-2-.9-.5-.7-.8-1.4-.8-2.4zm1 .1c0 .7.2 1.3.5 1.6.3.4.8.6 1.3.6s1-.2 1.3-.6.5-1 .5-1.7-.2-1.3-.5-1.6-.8-.7-1.3-.6c-.5 0-1 .2-1.3.6-.3.3-.5.9-.5 1.7zm6.8-3.1v.7c.5-.5 1.1-.8 1.8-.8.9 0 1.4.3 1.7 1 .2-.3.5-.6.8-.7.3-.2.7-.3 1.2-.3 1.3 0 2 .7 2 2.1v4h-1.1v-4c0-.5-.1-.8-.3-1s-.6-.3-1-.3-.7.1-1 .4c-.3.2-.4.6-.5 1v4h-1.1v-4c0-.9-.5-1.3-1.3-1.3-.7 0-1.2.3-1.4.9v4.4h-1.1v-6.1h1.3z" fill-rule="evenodd" clip-rule="evenodd"/><path d="M96.8 297.7h773.3v1.9H96.8v-1.9zm0-42.3h773.3v1.9H96.8v-1.9zm0-42.3h773.3v1.9H96.8v-1.9zm0-42.4h773.3v1.9H96.8v-1.9zm0-42.3h773.3v1.9H96.8v-1.9zm0-42.3h773.3V88H96.8v-1.9zm0-42.4h773.3v1.9H96.8v-1.9z" fill="#dedede"/><path class="st0" d="M816.4 78.3h24.1v185.8h-24.1z"/><path class="st1" d="M782.8 146.6h22.1c.6 0 1 .4 1 1v150.2h-24.1V147.5c.1-.5.4-.9 1-.9zM748.2 203.2h22.1c.6 0 1 .4 1 1v93.5h-24.1v-93.5c0-.5.4-1 1-1z"/><path d="M817.4 85.1h22.1c.6 0 1 .5 1 1.4v211.3h-24.1V86.4c.1-.8.5-1.3 1-1.3z" opacity=".5" fill="#e98024"/><path class="st1" d="M714.5 197h22.1c.6 0 1 .4 1 1v99.8h-24.1V198c0-.5.4-1 1-1zM680.8 224H703c.6 0 1 .4 1 1v72.7h-24.1V225c0-.6.4-1 .9-1zM647.2 222.2h22.1c.6 0 1 .4 1 1v74.6h-24.1v-74.6c0-.6.4-1 1-1zM613.5 268.4h22.1c.6 0 1 .4 1 1v28.4h-24.1v-28.4c0-.6.4-1 1-1zM579.8 278.3h22.1c.6 0 1 .4 1 1v18.5h-24.1v-18.5c0-.6.4-1 1-1zM546.1 291.3h22.1c.6 0 1 .4 1 1v5.5h-24.1v-5.5c.1-.6.5-1 1-1zM512.5 295.5h22.1c.6 0 1 .4 1 1v1.3h-24.1v-1.3c0-.6.4-1 1-1zM478.8 296.2h22.1c.6 0 1-.1 1 .4v1.1h-24.1v-1.1c0-.5.4-.4 1-.4zM445.1 295.9h22.1c.6 0 1 .4 1 1v.9h-24.1v-.9c.1-.5.4-1 1-1zM410.5 296.1h22.1c.6 0 1 .4 1 1v.7h-24.1v-.7c0-.6.4-1 1-1zM377.8 296.8h22.1c.6 0 1 .4 1 1h-24.1c0-.7.4-1 1-1zM344.1 296.8h22.1c.6 0 1 .4 1 1h-24.1c0-.7.4-1 1-1zM310.4 296.8h22.1c.6 0 1 .4 1 1h-24.1c.1-.7.4-1 1-1z"/><path d="M32.8 85.7c.5 0 .8-.1 1.1-.4.2-.2.3-.6.3-1s-.1-.7-.3-1-.6-.4-1-.4-.8.1-1.1.4-.4.6-.4 1h-1.1c0-.6.2-1.1.7-1.6.5-.4 1.1-.7 1.9-.7s1.4.2 1.8.6c.4.4.6 1 .6 1.7 0 .4-.1.7-.3 1s-.5.6-.8.7c.4.2.7.4.9.8s.3.7.3 1.2c0 .8-.2 1.3-.7 1.8-.5.4-1.1.6-1.9.6-.7 0-1.3-.2-1.8-.6s-.8-1-.8-1.6h1.1c0 .4.1.7.4 1s.7.4 1.1.4c.5 0 .8-.1 1.1-.4s.4-.6.4-1.1-.1-.9-.4-1.2c-.2-.3-.6-.4-1.1-.4h-.9v-.9l.9.1zM42 83.1c-1 1.2-1.7 2.3-2.1 3.3s-.5 2-.5 3.2v.9h-1.1v-.9c0-1.2.2-2.4.7-3.4s1.1-2 2-3.1h-4.4v-.9H42v.9zM43.5 86.8l.5-4.6h4.1v1h-3.2l-.3 2.4.6-.3c.2-.1.5-.1.7-.1.8 0 1.4.2 1.8.7.4.5.6 1.1.6 2 0 .8-.2 1.5-.7 2-.4.5-1.1.7-1.9.7-.7 0-1.3-.2-1.7-.6s-.7-.9-.7-1.7h1c0 .4.1.8.4 1 .3.2.6.4 1 .4.5 0 .8-.2 1.1-.5s.4-.8.4-1.4c0-.5-.1-.9-.4-1.3-.3-.3-.6-.5-1.1-.5-.4 0-.8.1-.9.2-.2.1-.3.3-.4.6h-.9zM50.8 90.1l-.8 1.7h-.7l.4-1.8v-.9h1.1v1zM57.1 87.5c0 .9-.2 1.7-.7 2.2s-1.1.8-1.9.8c-.8 0-1.4-.3-1.9-.8s-.7-1.3-.7-2.2v-2.4c0-.9.2-1.7.7-2.2s1.1-.8 1.9-.8c.8 0 1.4.3 1.9.8s.7 1.3.7 2.2v2.4zM56 84.9c0-.6-.1-1.1-.4-1.4s-.6-.5-1.1-.5-.8.2-1.1.5-.4.8-.4 1.4v2.9c0 .6.1 1.1.4 1.4s.6.5 1.1.5.9-.2 1.1-.5c.3-.3.4-.8.4-1.4v-2.9zM63.6 87.5c0 .9-.2 1.7-.7 2.2s-1.1.8-1.9.8c-.8 0-1.4-.3-1.9-.8s-.7-1.3-.7-2.2v-2.4c0-.9.2-1.7.7-2.2s1.1-.8 1.9-.8c.8 0 1.4.3 1.9.8s.7 1.3.7 2.2v2.4zm-1.1-2.6c0-.6-.1-1.1-.4-1.4s-.6-.5-1.1-.5-.8.2-1.1.5-.4.8-.4 1.4v2.9c0 .6.1 1.1.4 1.4s.6.5 1.1.5.9-.2 1.1-.5c.3-.3.4-.8.4-1.4v-2.9zM70.1 87.5c0 .9-.2 1.7-.7 2.2s-1.1.8-1.9.8-1.4-.3-1.9-.8-.7-1.3-.7-2.2v-2.4c0-.9.2-1.7.7-2.2s1.1-.8 1.9-.8 1.4.3 1.9.8.7 1.3.7 2.2v2.4zM69 84.9c0-.6-.1-1.1-.4-1.4s-.6-.5-1.1-.5-.8.2-1.1.5-.4.8-.4 1.4v2.9c0 .6.1 1.1.4 1.4s.6.5 1.1.5.9-.2 1.1-.5c.3-.3.4-.8.4-1.4v-2.9zM72.6 90.1l-.8 1.7h-.7l.4-1.8v-.9h1.1v1zM78.9 87.5c0 .9-.2 1.7-.7 2.2s-1.1.8-1.9.8-1.4-.3-1.9-.8-.7-1.3-.7-2.2v-2.4c0-.9.2-1.7.7-2.2s1.1-.8 1.9-.8 1.4.3 1.9.8.7 1.3.7 2.2v2.4zm-1.1-2.6c0-.6-.1-1.1-.4-1.4s-.6-.5-1.1-.5-.8.2-1.1.5-.4.8-.4 1.4v2.9c0 .6.1 1.1.4 1.4s.6.5 1.1.5.9-.2 1.1-.5c.3-.3.4-.8.4-1.4v-2.9zM85.4 87.5c0 .9-.2 1.7-.7 2.2s-1.1.8-1.9.8-1.4-.3-1.9-.8-.7-1.3-.7-2.2v-2.4c0-.9.2-1.7.7-2.2s1.1-.8 1.9-.8 1.4.3 1.9.8.7 1.3.7 2.2v2.4zm-1.1-2.6c0-.6-.1-1.1-.4-1.4s-.6-.5-1.1-.5-.8.2-1.1.5-.4.8-.4 1.4v2.9c0 .6.1 1.1.4 1.4s.6.5 1.1.5.9-.2 1.1-.5c.3-.3.4-.8.4-1.4v-2.9zM91.9 87.5c0 .9-.2 1.7-.7 2.2s-1.1.8-1.9.8-1.4-.3-1.9-.8-.7-1.3-.7-2.2v-2.4c0-.9.2-1.7.7-2.2s1.1-.8 1.9-.8 1.4.3 1.9.8.7 1.3.7 2.2v2.4zm-1.1-2.6c0-.6-.1-1.1-.4-1.4s-.6-.5-1.1-.5-.8.2-1.1.5-.4.8-.4 1.4v2.9c0 .6.1 1.1.4 1.4s.6.5 1.1.5.9-.2 1.1-.5c.3-.3.4-.8.4-1.4v-2.9zM32.8 128.1c.5 0 .8-.1 1.1-.4.2-.2.3-.6.3-1s-.1-.7-.3-1-.6-.4-1-.4-.8.1-1.1.4-.4.6-.4 1h-1.1c0-.6.2-1.1.7-1.6.5-.4 1.1-.7 1.9-.7s1.4.2 1.8.6c.4.4.6 1 .6 1.7 0 .4-.1.7-.3 1-.2.3-.5.6-.8.7.4.2.7.4.9.8.2.3.3.7.3 1.2 0 .8-.2 1.3-.7 1.8-.5.4-1.1.6-1.9.6-.7 0-1.3-.2-1.8-.6-.5-.4-.8-1-.8-1.6h1.1c0 .4.1.7.4 1s.7.4 1.1.4c.5 0 .8-.1 1.1-.4.3-.3.4-.6.4-1.1s-.1-.9-.4-1.2c-.2-.3-.6-.4-1.1-.4h-.9v-.9l.9.1zM41.9 129.8c0 .9-.2 1.7-.7 2.2s-1.1.8-1.9.8c-.8 0-1.4-.3-1.9-.8s-.7-1.3-.7-2.2v-2.4c0-.9.2-1.7.7-2.2s1.1-.8 1.9-.8c.8 0 1.4.3 1.9.8s.7 1.3.7 2.2v2.4zm-1.1-2.6c0-.6-.1-1.1-.4-1.4s-.6-.5-1.1-.5-.8.2-1.1.5-.4.8-.4 1.4v2.9c0 .6.1 1.1.4 1.4s.6.5 1.1.5.9-.2 1.1-.5.4-.8.4-1.4v-2.9zM48.4 129.8c0 .9-.2 1.7-.7 2.2s-1.1.8-1.9.8c-.8 0-1.4-.3-1.9-.8s-.7-1.3-.7-2.2v-2.4c0-.9.2-1.7.7-2.2s1.1-.8 1.9-.8c.8 0 1.4.3 1.9.8s.7 1.3.7 2.2v2.4zm-1.1-2.6c0-.6-.1-1.1-.4-1.4s-.6-.5-1.1-.5-.8.2-1.1.5-.4.8-.4 1.4v2.9c0 .6.1 1.1.4 1.4s.6.5 1.1.5.9-.2 1.1-.5.4-.8.4-1.4v-2.9zM50.8 132.5l-.8 1.7h-.7l.4-1.8v-.9h1.1v1zM57.1 129.8c0 .9-.2 1.7-.7 2.2s-1.1.8-1.9.8c-.8 0-1.4-.3-1.9-.8s-.7-1.3-.7-2.2v-2.4c0-.9.2-1.7.7-2.2s1.1-.8 1.9-.8c.8 0 1.4.3 1.9.8s.7 1.3.7 2.2v2.4zm-1.1-2.6c0-.6-.1-1.1-.4-1.4s-.6-.5-1.1-.5-.8.2-1.1.5-.4.8-.4 1.4v2.9c0 .6.1 1.1.4 1.4s.6.5 1.1.5.9-.2 1.1-.5c.3-.3.4-.8.4-1.4v-2.9zM63.6 129.8c0 .9-.2 1.7-.7 2.2s-1.1.8-1.9.8c-.8 0-1.4-.3-1.9-.8s-.7-1.3-.7-2.2v-2.4c0-.9.2-1.7.7-2.2s1.1-.8 1.9-.8c.8 0 1.4.3 1.9.8s.7 1.3.7 2.2v2.4zm-1.1-2.6c0-.6-.1-1.1-.4-1.4s-.6-.5-1.1-.5-.8.2-1.1.5-.4.8-.4 1.4v2.9c0 .6.1 1.1.4 1.4s.6.5 1.1.5.9-.2 1.1-.5.4-.8.4-1.4v-2.9zM70.1 129.8c0 .9-.2 1.7-.7 2.2s-1.1.8-1.9.8-1.4-.3-1.9-.8-.7-1.3-.7-2.2v-2.4c0-.9.2-1.7.7-2.2s1.1-.8 1.9-.8 1.4.3 1.9.8.7 1.3.7 2.2v2.4zm-1.1-2.6c0-.6-.1-1.1-.4-1.4s-.6-.5-1.1-.5-.8.2-1.1.5-.4.8-.4 1.4v2.9c0 .6.1 1.1.4 1.4s.6.5 1.1.5.9-.2 1.1-.5.4-.8.4-1.4v-2.9zM72.6 132.5l-.8 1.7h-.7l.4-1.8v-.9h1.1v1zM78.9 129.8c0 .9-.2 1.7-.7 2.2s-1.1.8-1.9.8-1.4-.3-1.9-.8-.7-1.3-.7-2.2v-2.4c0-.9.2-1.7.7-2.2s1.1-.8 1.9-.8 1.4.3 1.9.8.7 1.3.7 2.2v2.4zm-1.1-2.6c0-.6-.1-1.1-.4-1.4s-.6-.5-1.1-.5-.8.2-1.1.5-.4.8-.4 1.4v2.9c0 .6.1 1.1.4 1.4s.6.5 1.1.5.9-.2 1.1-.5.4-.8.4-1.4v-2.9zM85.4 129.8c0 .9-.2 1.7-.7 2.2s-1.1.8-1.9.8-1.4-.3-1.9-.8-.7-1.3-.7-2.2v-2.4c0-.9.2-1.7.7-2.2s1.1-.8 1.9-.8 1.4.3 1.9.8.7 1.3.7 2.2v2.4zm-1.1-2.6c0-.6-.1-1.1-.4-1.4s-.6-.5-1.1-.5-.8.2-1.1.5-.4.8-.4 1.4v2.9c0 .6.1 1.1.4 1.4.3.3.6.5 1.1.5s.9-.2 1.1-.5.4-.8.4-1.4v-2.9zM91.9 129.8c0 .9-.2 1.7-.7 2.2s-1.1.8-1.9.8-1.4-.3-1.9-.8-.7-1.3-.7-2.2v-2.4c0-.9.2-1.7.7-2.2s1.1-.8 1.9-.8 1.4.3 1.9.8.7 1.3.7 2.2v2.4zm-1.1-2.6c0-.6-.1-1.1-.4-1.4s-.6-.5-1.1-.5-.8.2-1.1.5-.4.8-.4 1.4v2.9c0 .6.1 1.1.4 1.4s.6.5 1.1.5.9-.2 1.1-.5.4-.8.4-1.4v-2.9zM35.5 175.1h-5.1v-.8l2.6-3.1c.5-.6.8-1 .9-1.3.2-.3.2-.7.2-1 0-.4-.1-.7-.3-.9s-.5-.4-.9-.4c-.5 0-.9.1-1.1.4s-.4.7-.4 1.1h-1.1c0-.7.2-1.2.7-1.7s1.1-.7 1.9-.7c.7 0 1.3.2 1.7.6.4.4.6.9.6 1.6 0 .4-.1.9-.4 1.3-.2.4-.6.9-1.1 1.6l-2.1 2.4h3.7v.9h.2zM41.9 175.1h-5.1v-.8l2.6-3.1c.5-.6.8-1 .9-1.3s.2-.7.2-1c0-.4-.1-.7-.3-.9s-.5-.4-.9-.4c-.5 0-.9.1-1.1.4s-.4.7-.4 1.1h-1.1c0-.7.2-1.2.7-1.7s1.1-.7 1.9-.7c.7 0 1.3.2 1.7.6s.6.9.6 1.6c0 .4-.1.9-.4 1.3-.2.4-.6.9-1.1 1.6l-2.1 2.4h3.7v.9h.2zM43.5 171.4l.5-4.6h4.1v1h-3.2l-.3 2.4.6-.3c.2-.1.5-.1.7-.1.8 0 1.4.2 1.8.7.4.5.6 1.1.6 2 0 .8-.2 1.5-.7 2-.4.5-1.1.7-1.9.7-.7 0-1.3-.2-1.7-.6s-.7-.9-.7-1.7h1c0 .4.1.8.4 1 .3.2.6.4 1 .4.5 0 .8-.2 1.1-.5s.4-.8.4-1.4c0-.5-.1-.9-.4-1.3-.3-.3-.6-.5-1.1-.5-.4 0-.8.1-.9.2-.2.1-.3.3-.4.6h-.9zM50.8 174.8l-.8 1.7h-.7l.4-1.8v-.9h1.1v1zM57.1 172.2c0 .9-.2 1.7-.7 2.2s-1.1.8-1.9.8c-.8 0-1.4-.3-1.9-.8s-.7-1.3-.7-2.2v-2.4c0-.9.2-1.7.7-2.2s1.1-.8 1.9-.8c.8 0 1.4.3 1.9.8s.7 1.3.7 2.2v2.4zm-1.1-2.7c0-.6-.1-1.1-.4-1.4s-.6-.5-1.1-.5-.8.2-1.1.5-.4.8-.4 1.4v2.9c0 .6.1 1.1.4 1.4.3.3.6.5 1.1.5s.9-.2 1.1-.5c.3-.3.4-.8.4-1.4v-2.9zM63.6 172.2c0 .9-.2 1.7-.7 2.2s-1.1.8-1.9.8c-.8 0-1.4-.3-1.9-.8s-.7-1.3-.7-2.2v-2.4c0-.9.2-1.7.7-2.2s1.1-.8 1.9-.8c.8 0 1.4.3 1.9.8s.7 1.3.7 2.2v2.4zm-1.1-2.7c0-.6-.1-1.1-.4-1.4s-.6-.5-1.1-.5-.8.2-1.1.5-.4.8-.4 1.4v2.9c0 .6.1 1.1.4 1.4.3.3.6.5 1.1.5s.9-.2 1.1-.5.4-.8.4-1.4v-2.9zM70.1 172.2c0 .9-.2 1.7-.7 2.2s-1.1.8-1.9.8-1.4-.3-1.9-.8-.7-1.3-.7-2.2v-2.4c0-.9.2-1.7.7-2.2s1.1-.8 1.9-.8 1.4.3 1.9.8.7 1.3.7 2.2v2.4zm-1.1-2.7c0-.6-.1-1.1-.4-1.4-.3-.3-.6-.5-1.1-.5s-.8.2-1.1.5-.4.8-.4 1.4v2.9c0 .6.1 1.1.4 1.4.3.3.6.5 1.1.5s.9-.2 1.1-.5.4-.8.4-1.4v-2.9zM72.6 174.8l-.8 1.7h-.7l.4-1.8v-.9h1.1v1zM78.9 172.2c0 .9-.2 1.7-.7 2.2s-1.1.8-1.9.8-1.4-.3-1.9-.8-.7-1.3-.7-2.2v-2.4c0-.9.2-1.7.7-2.2s1.1-.8 1.9-.8 1.4.3 1.9.8.7 1.3.7 2.2v2.4zm-1.1-2.7c0-.6-.1-1.1-.4-1.4-.3-.3-.6-.5-1.1-.5s-.8.2-1.1.5-.4.8-.4 1.4v2.9c0 .6.1 1.1.4 1.4.3.3.6.5 1.1.5s.9-.2 1.1-.5.4-.8.4-1.4v-2.9zM85.4 172.2c0 .9-.2 1.7-.7 2.2s-1.1.8-1.9.8-1.4-.3-1.9-.8-.7-1.3-.7-2.2v-2.4c0-.9.2-1.7.7-2.2s1.1-.8 1.9-.8 1.4.3 1.9.8.7 1.3.7 2.2v2.4zm-1.1-2.7c0-.6-.1-1.1-.4-1.4-.3-.3-.6-.5-1.1-.5s-.8.2-1.1.5-.4.8-.4 1.4v2.9c0 .6.1 1.1.4 1.4.3.3.6.5 1.1.5s.9-.2 1.1-.5.4-.8.4-1.4v-2.9zM91.9 172.2c0 .9-.2 1.7-.7 2.2s-1.1.8-1.9.8-1.4-.3-1.9-.8-.7-1.3-.7-2.2v-2.4c0-.9.2-1.7.7-2.2s1.1-.8 1.9-.8 1.4.3 1.9.8.7 1.3.7 2.2v2.4zm-1.1-2.7c0-.6-.1-1.1-.4-1.4-.3-.3-.6-.5-1.1-.5s-.8.2-1.1.5-.4.8-.4 1.4v2.9c0 .6.1 1.1.4 1.4.3.3.6.5 1.1.5s.9-.2 1.1-.5.4-.8.4-1.4v-2.9z"/><g><path d="M33.5 217.4h-1.1v-7.2h-1.8v-.9l2.9-.3v8.4zM37 213.7l.5-4.6h4.1v1h-3.2l-.3 2.4.6-.3c.2-.1.5-.1.7-.1.8 0 1.4.2 1.8.7.4.5.6 1.1.6 2 0 .8-.2 1.5-.7 2-.4.5-1.1.7-1.9.7-.7 0-1.3-.2-1.7-.6s-.7-.9-.7-1.7h1c0 .4.1.8.4 1 .3.2.6.4 1 .4.5 0 .8-.2 1.1-.5s.4-.8.4-1.4c0-.5-.1-.9-.4-1.3-.3-.3-.6-.5-1.1-.5-.4 0-.8.1-.9.2-.2.1-.3.3-.4.6H37zM48.4 214.5c0 .9-.2 1.7-.7 2.2s-1.1.8-1.9.8c-.8 0-1.4-.3-1.9-.8s-.7-1.3-.7-2.2v-2.4c0-.9.2-1.7.7-2.2s1.1-.8 1.9-.8c.8 0 1.4.3 1.9.8s.7 1.3.7 2.2v2.4zm-1.1-2.6c0-.6-.1-1.1-.4-1.4s-.6-.5-1.1-.5-.8.2-1.1.5-.4.8-.4 1.4v2.9c0 .6.1 1.1.4 1.4.3.3.6.5 1.1.5s.9-.2 1.1-.5.4-.8.4-1.4v-2.9zM50.8 217.1l-.8 1.7h-.7l.4-1.8v-.9h1.1v1zM57.1 214.5c0 .9-.2 1.7-.7 2.2s-1.1.8-1.9.8c-.8 0-1.4-.3-1.9-.8s-.7-1.3-.7-2.2v-2.4c0-.9.2-1.7.7-2.2s1.1-.8 1.9-.8c.8 0 1.4.3 1.9.8s.7 1.3.7 2.2v2.4zm-1.1-2.6c0-.6-.1-1.1-.4-1.4s-.6-.5-1.1-.5-.8.2-1.1.5-.4.8-.4 1.4v2.9c0 .6.1 1.1.4 1.4.3.3.6.5 1.1.5s.9-.2 1.1-.5c.3-.3.4-.8.4-1.4v-2.9zM63.6 214.5c0 .9-.2 1.7-.7 2.2s-1.1.8-1.9.8c-.8 0-1.4-.3-1.9-.8s-.7-1.3-.7-2.2v-2.4c0-.9.2-1.7.7-2.2s1.1-.8 1.9-.8c.8 0 1.4.3 1.9.8s.7 1.3.7 2.2v2.4zm-1.1-2.6c0-.6-.1-1.1-.4-1.4s-.6-.5-1.1-.5-.8.2-1.1.5-.4.8-.4 1.4v2.9c0 .6.1 1.1.4 1.4.3.3.6.5 1.1.5s.9-.2 1.1-.5.4-.8.4-1.4v-2.9zM70.1 214.5c0 .9-.2 1.7-.7 2.2s-1.1.8-1.9.8-1.4-.3-1.9-.8-.7-1.3-.7-2.2v-2.4c0-.9.2-1.7.7-2.2s1.1-.8 1.9-.8 1.4.3 1.9.8.7 1.3.7 2.2v2.4zm-1.1-2.6c0-.6-.1-1.1-.4-1.4-.3-.3-.6-.5-1.1-.5s-.8.2-1.1.5-.4.8-.4 1.4v2.9c0 .6.1 1.1.4 1.4.3.3.6.5 1.1.5s.9-.2 1.1-.5.4-.8.4-1.4v-2.9zM72.6 217.1l-.8 1.7h-.7l.4-1.8v-.9h1.1v1zM78.9 214.5c0 .9-.2 1.7-.7 2.2s-1.1.8-1.9.8-1.4-.3-1.9-.8-.7-1.3-.7-2.2v-2.4c0-.9.2-1.7.7-2.2s1.1-.8 1.9-.8 1.4.3 1.9.8.7 1.3.7 2.2v2.4zm-1.1-2.6c0-.6-.1-1.1-.4-1.4-.3-.3-.6-.5-1.1-.5s-.8.2-1.1.5-.4.8-.4 1.4v2.9c0 .6.1 1.1.4 1.4.3.3.6.5 1.1.5s.9-.2 1.1-.5.4-.8.4-1.4v-2.9zM85.4 214.5c0 .9-.2 1.7-.7 2.2s-1.1.8-1.9.8-1.4-.3-1.9-.8-.7-1.3-.7-2.2v-2.4c0-.9.2-1.7.7-2.2s1.1-.8 1.9-.8 1.4.3 1.9.8.7 1.3.7 2.2v2.4zm-1.1-2.6c0-.6-.1-1.1-.4-1.4-.3-.3-.6-.5-1.1-.5s-.8.2-1.1.5-.4.8-.4 1.4v2.9c0 .6.1 1.1.4 1.4.3.3.6.5 1.1.5s.9-.2 1.1-.5.4-.8.4-1.4v-2.9zM91.9 214.5c0 .9-.2 1.7-.7 2.2s-1.1.8-1.9.8-1.4-.3-1.9-.8-.7-1.3-.7-2.2v-2.4c0-.9.2-1.7.7-2.2s1.1-.8 1.9-.8 1.4.3 1.9.8.7 1.3.7 2.2v2.4zm-1.1-2.6c0-.6-.1-1.1-.4-1.4-.3-.3-.6-.5-1.1-.5s-.8.2-1.1.5-.4.8-.4 1.4v2.9c0 .6.1 1.1.4 1.4.3.3.6.5 1.1.5s.9-.2 1.1-.5.4-.8.4-1.4v-2.9z"/></g><g><path d="M42 252.4c-1 1.2-1.7 2.3-2.1 3.3-.4.9-.5 2-.5 3.2v.9h-1.1v-.9c0-1.2.2-2.4.7-3.4s1.1-2 2-3.1h-4.4v-.9H42v.9zM43.5 256.1l.5-4.6h4.1v1h-3.2l-.3 2.4.6-.3c.2-.1.5-.1.7-.1.8 0 1.4.2 1.8.7s.6 1.1.6 2c0 .8-.2 1.5-.7 2-.4.5-1.1.7-1.9.7-.7 0-1.3-.2-1.7-.6s-.7-.9-.7-1.7h1c0 .4.1.8.4 1 .3.2.6.4 1 .4.5 0 .8-.2 1.1-.5s.4-.8.4-1.4c0-.5-.1-.9-.4-1.3-.3-.3-.6-.5-1.1-.5-.4 0-.8.1-.9.2-.2.1-.3.3-.4.6h-.9zM50.8 259.5l-.8 1.7h-.7l.4-1.8v-.9h1.1v1zM57.1 256.8c0 .9-.2 1.7-.7 2.2s-1.1.8-1.9.8c-.8 0-1.4-.3-1.9-.8s-.7-1.3-.7-2.2v-2.4c0-.9.2-1.7.7-2.2s1.1-.8 1.9-.8c.8 0 1.4.3 1.9.8s.7 1.3.7 2.2v2.4zm-1.1-2.6c0-.6-.1-1.1-.4-1.4s-.6-.5-1.1-.5-.8.2-1.1.5-.4.8-.4 1.4v2.9c0 .6.1 1.1.4 1.4.3.3.6.5 1.1.5s.9-.2 1.1-.5c.3-.3.4-.8.4-1.4v-2.9zM63.6 256.8c0 .9-.2 1.7-.7 2.2s-1.1.8-1.9.8c-.8 0-1.4-.3-1.9-.8s-.7-1.3-.7-2.2v-2.4c0-.9.2-1.7.7-2.2s1.1-.8 1.9-.8c.8 0 1.4.3 1.9.8s.7 1.3.7 2.2v2.4zm-1.1-2.6c0-.6-.1-1.1-.4-1.4s-.6-.5-1.1-.5-.8.2-1.1.5-.4.8-.4 1.4v2.9c0 .6.1 1.1.4 1.4.3.3.6.5 1.1.5s.9-.2 1.1-.5.4-.8.4-1.4v-2.9zM70.1 256.8c0 .9-.2 1.7-.7 2.2s-1.1.8-1.9.8-1.4-.3-1.9-.8-.7-1.3-.7-2.2v-2.4c0-.9.2-1.7.7-2.2s1.1-.8 1.9-.8 1.4.3 1.9.8.7 1.3.7 2.2v2.4zm-1.1-2.6c0-.6-.1-1.1-.4-1.4-.3-.3-.6-.5-1.1-.5s-.8.2-1.1.5-.4.8-.4 1.4v2.9c0 .6.1 1.1.4 1.4s.6.5 1.1.5.9-.2 1.1-.5.4-.8.4-1.4v-2.9zM72.6 259.5l-.8 1.7h-.7l.4-1.8v-.9h1.1v1zM78.9 256.8c0 .9-.2 1.7-.7 2.2s-1.1.8-1.9.8-1.4-.3-1.9-.8-.7-1.3-.7-2.2v-2.4c0-.9.2-1.7.7-2.2s1.1-.8 1.9-.8 1.4.3 1.9.8.7 1.3.7 2.2v2.4zm-1.1-2.6c0-.6-.1-1.1-.4-1.4-.3-.3-.6-.5-1.1-.5s-.8.2-1.1.5-.4.8-.4 1.4v2.9c0 .6.1 1.1.4 1.4s.6.5 1.1.5.9-.2 1.1-.5.4-.8.4-1.4v-2.9zM85.4 256.8c0 .9-.2 1.7-.7 2.2s-1.1.8-1.9.8-1.4-.3-1.9-.8-.7-1.3-.7-2.2v-2.4c0-.9.2-1.7.7-2.2s1.1-.8 1.9-.8 1.4.3 1.9.8.7 1.3.7 2.2v2.4zm-1.1-2.6c0-.6-.1-1.1-.4-1.4-.3-.3-.6-.5-1.1-.5s-.8.2-1.1.5-.4.8-.4 1.4v2.9c0 .6.1 1.1.4 1.4s.6.5 1.1.5.9-.2 1.1-.5.4-.8.4-1.4v-2.9zM91.9 256.8c0 .9-.2 1.7-.7 2.2s-1.1.8-1.9.8-1.4-.3-1.9-.8-.7-1.3-.7-2.2v-2.4c0-.9.2-1.7.7-2.2s1.1-.8 1.9-.8 1.4.3 1.9.8.7 1.3.7 2.2v2.4zm-1.1-2.6c0-.6-.1-1.1-.4-1.4-.3-.3-.6-.5-1.1-.5s-.8.2-1.1.5-.4.8-.4 1.4v2.9c0 .6.1 1.1.4 1.4s.6.5 1.1.5.9-.2 1.1-.5.4-.8.4-1.4v-2.9z"/></g><g><path d="M91.9 299.2c0 .9-.2 1.7-.7 2.2s-1.1.8-1.9.8-1.4-.3-1.9-.8-.7-1.3-.7-2.2v-2.4c0-.9.2-1.7.7-2.2s1.1-.8 1.9-.8 1.4.3 1.9.8.7 1.3.7 2.2v2.4zm-1.1-2.7c0-.6-.1-1.1-.4-1.4s-.6-.5-1.1-.5-.8.2-1.1.5c-.3.3-.4.8-.4 1.4v2.9c0 .6.1 1.1.4 1.4s.6.5 1.1.5.9-.2 1.1-.5.4-.8.4-1.4v-2.9z"/></g><g><path d="M110.5 315h-1.1v-7.2h-1.8v-.8l2.9-.3v8.3zM115.9 314.3c.5 0 1-.2 1.3-.6s.5-.9.5-1.6v-.7c-.2.3-.4.5-.7.6-.3.1-.6.2-.9.2-.8 0-1.4-.2-1.9-.7-.4-.5-.7-1.2-.7-2s.2-1.5.7-2 1.1-.8 1.8-.8c.8 0 1.5.3 2 .8s.7 1.2.7 2.2v2.5c0 .9-.3 1.7-.8 2.2s-1.2.8-2.1.8c-.3 0-.6 0-.9-.1s-.6-.1-.8-.3l.2-.8c.2.1.5.2.7.3h.9zm.2-2.9c.4 0 .7-.1 1-.3s.5-.4.6-.7v-1c0-.6-.1-1.1-.4-1.4s-.7-.5-1.2-.5c-.4 0-.7.2-1 .5-.3.4-.4.8-.4 1.4s.1 1 .4 1.4.5.6 1 .6zM122.4 314.3c.5 0 1-.2 1.3-.6s.5-.9.5-1.6v-.7c-.2.3-.4.5-.7.6-.3.1-.6.2-.9.2-.8 0-1.4-.2-1.9-.7-.4-.5-.7-1.2-.7-2s.2-1.5.7-2 1.1-.8 1.8-.8c.8 0 1.5.3 2 .8s.7 1.2.7 2.2v2.5c0 .9-.3 1.7-.8 2.2s-1.2.8-2.1.8c-.3 0-.6 0-.9-.1s-.6-.1-.8-.3l.2-.8c.2.1.5.2.7.3h.9zm.2-2.9c.4 0 .7-.1 1-.3.3-.2.5-.4.6-.7v-1c0-.6-.1-1.1-.4-1.4s-.7-.5-1.2-.5c-.4 0-.7.2-1 .5-.3.4-.4.8-.4 1.4s.1 1 .4 1.4c.2.4.5.6 1 .6zM128.9 314.3c.5 0 1-.2 1.3-.6s.5-.9.5-1.6v-.7c-.2.3-.4.5-.7.6s-.6.2-.9.2c-.8 0-1.4-.2-1.9-.7-.4-.5-.7-1.2-.7-2s.2-1.5.7-2 1.1-.8 1.8-.8c.8 0 1.5.3 2 .8s.7 1.2.7 2.2v2.5c0 .9-.3 1.7-.8 2.2s-1.2.8-2.1.8c-.3 0-.6 0-.9-.1-.3-.1-.6-.1-.8-.3l.2-.8c.2.1.5.2.7.3h.9zm.2-2.9c.4 0 .7-.1 1-.3s.5-.4.6-.7v-1c0-.6-.1-1.1-.4-1.4-.3-.3-.7-.5-1.2-.5-.4 0-.7.2-1 .5-.3.4-.4.8-.4 1.4s.1 1 .4 1.4c.2.4.5.6 1 .6z"/></g><g><path d="M146 315h-5.1v-.8l2.6-3.1c.5-.6.8-1 .9-1.3.2-.3.2-.7.2-1 0-.4-.1-.7-.3-.9-.2-.2-.5-.4-.9-.4-.5 0-.9.1-1.1.4s-.4.7-.4 1.1h-1.1c0-.7.2-1.2.7-1.7s1.1-.7 1.9-.7c.7 0 1.3.2 1.7.6s.6.9.6 1.6c0 .4-.1.9-.4 1.3-.2.4-.6.9-1.1 1.6l-2.1 2.4h3.7v.9h.2zM152.4 312.1c0 .9-.2 1.7-.7 2.2s-1.1.8-1.9.8c-.8 0-1.4-.3-1.9-.8s-.7-1.3-.7-2.2v-2.4c0-.9.2-1.7.7-2.2s1.1-.8 1.9-.8c.8 0 1.4.3 1.9.8s.7 1.3.7 2.2v2.4zm-1.1-2.6c0-.6-.1-1.1-.4-1.4-.3-.3-.6-.5-1.1-.5s-.8.2-1.1.5-.4.8-.4 1.4v2.9c0 .6.1 1.1.4 1.4.3.3.6.5 1.1.5s.9-.2 1.1-.5c.3-.3.4-.8.4-1.4v-2.9zM158.9 312.1c0 .9-.2 1.7-.7 2.2s-1.1.8-1.9.8c-.8 0-1.4-.3-1.9-.8s-.7-1.3-.7-2.2v-2.4c0-.9.2-1.7.7-2.2s1.1-.8 1.9-.8c.8 0 1.4.3 1.9.8s.7 1.3.7 2.2v2.4zm-1.1-2.6c0-.6-.1-1.1-.4-1.4-.3-.3-.6-.5-1.1-.5s-.8.2-1.1.5-.4.8-.4 1.4v2.9c0 .6.1 1.1.4 1.4.3.3.6.5 1.1.5s.9-.2 1.1-.5c.3-.3.4-.8.4-1.4v-2.9zM165.4 312.1c0 .9-.2 1.7-.7 2.2s-1.1.8-1.9.8c-.8 0-1.4-.3-1.9-.8s-.7-1.3-.7-2.2v-2.4c0-.9.2-1.7.7-2.2s1.1-.8 1.9-.8c.8 0 1.4.3 1.9.8s.7 1.3.7 2.2v2.4zm-1.1-2.6c0-.6-.1-1.1-.4-1.4-.3-.3-.6-.5-1.1-.5s-.8.2-1.1.5-.4.8-.4 1.4v2.9c0 .6.1 1.1.4 1.4.3.3.6.5 1.1.5s.9-.2 1.1-.5c.3-.3.4-.8.4-1.4v-2.9z"/></g><g><path d="M178.8 315h-5.1v-.8l2.6-3.1c.5-.6.8-1 .9-1.3.2-.3.2-.7.2-1 0-.4-.1-.7-.3-.9-.2-.2-.5-.4-.9-.4-.5 0-.9.1-1.1.4s-.4.7-.4 1.1h-1.1c0-.7.2-1.2.7-1.7s1.1-.7 1.9-.7c.7 0 1.3.2 1.7.6s.6.9.6 1.6c0 .4-.1.9-.4 1.3-.2.4-.6.9-1.1 1.6l-2.1 2.4h3.7v.9h.2zM185.2 312.1c0 .9-.2 1.7-.7 2.2s-1.1.8-1.9.8c-.8 0-1.4-.3-1.9-.8s-.7-1.3-.7-2.2v-2.4c0-.9.2-1.7.7-2.2s1.1-.8 1.9-.8c.8 0 1.4.3 1.9.8s.7 1.3.7 2.2v2.4zm-1.1-2.6c0-.6-.1-1.1-.4-1.4-.3-.3-.6-.5-1.1-.5s-.8.2-1.1.5-.4.8-.4 1.4v2.9c0 .6.1 1.1.4 1.4.3.3.6.5 1.1.5s.9-.2 1.1-.5c.3-.3.4-.8.4-1.4v-2.9zM191.7 312.1c0 .9-.2 1.7-.7 2.2s-1.1.8-1.9.8c-.8 0-1.4-.3-1.9-.8s-.7-1.3-.7-2.2v-2.4c0-.9.2-1.7.7-2.2s1.1-.8 1.9-.8c.8 0 1.4.3 1.9.8s.7 1.3.7 2.2v2.4zm-1.1-2.6c0-.6-.1-1.1-.4-1.4-.3-.3-.6-.5-1.1-.5s-.8.2-1.1.5-.4.8-.4 1.4v2.9c0 .6.1 1.1.4 1.4.3.3.6.5 1.1.5s.9-.2 1.1-.5c.3-.3.4-.8.4-1.4v-2.9zM196.3 315h-1.1v-7.2h-1.8v-.8l2.9-.3v8.3z"/></g><g><path d="M213.4 315h-5.1v-.8l2.6-3.1c.5-.6.8-1 .9-1.3.2-.3.2-.7.2-1 0-.4-.1-.7-.3-.9-.2-.2-.5-.4-.9-.4-.5 0-.9.1-1.1.4s-.4.7-.4 1.1h-1.1c0-.7.2-1.2.7-1.7s1.1-.7 1.9-.7c.7 0 1.3.2 1.7.6s.6.9.6 1.6c0 .4-.1.9-.4 1.3-.2.4-.6.9-1.1 1.6l-2.1 2.4h3.7v.9h.2zM219.8 312.1c0 .9-.2 1.7-.7 2.2s-1.1.8-1.9.8c-.8 0-1.4-.3-1.9-.8s-.7-1.3-.7-2.2v-2.4c0-.9.2-1.7.7-2.2s1.1-.8 1.9-.8c.8 0 1.4.3 1.9.8s.7 1.3.7 2.2v2.4zm-1.1-2.6c0-.6-.1-1.1-.4-1.4-.3-.3-.6-.5-1.1-.5s-.8.2-1.1.5-.4.8-.4 1.4v2.9c0 .6.1 1.1.4 1.4.3.3.6.5 1.1.5s.9-.2 1.1-.5c.3-.3.4-.8.4-1.4v-2.9zM226.3 312.1c0 .9-.2 1.7-.7 2.2s-1.1.8-1.9.8c-.8 0-1.4-.3-1.9-.8s-.7-1.3-.7-2.2v-2.4c0-.9.2-1.7.7-2.2s1.1-.8 1.9-.8c.8 0 1.4.3 1.9.8s.7 1.3.7 2.2v2.4zm-1.1-2.6c0-.6-.1-1.1-.4-1.4-.3-.3-.6-.5-1.1-.5s-.8.2-1.1.5-.4.8-.4 1.4v2.9c0 .6.1 1.1.4 1.4.3.3.6.5 1.1.5s.9-.2 1.1-.5c.3-.3.4-.8.4-1.4v-2.9zM232.9 315h-5.1v-.8l2.6-3.1c.5-.6.8-1 .9-1.3.2-.3.2-.7.2-1 0-.4-.1-.7-.3-.9-.2-.2-.5-.4-.9-.4-.5 0-.9.1-1.1.4s-.4.7-.4 1.1h-1.1c0-.7.2-1.2.7-1.7s1.1-.7 1.9-.7c.7 0 1.3.2 1.7.6s.6.9.6 1.6c0 .4-.1.9-.4 1.3-.2.4-.6.9-1.1 1.6l-2.1 2.4h3.7v.9h.2z"/></g><g><path d="M246.9 315h-5.1v-.8l2.6-3.1c.5-.6.8-1 .9-1.3.2-.3.2-.7.2-1 0-.4-.1-.7-.3-.9-.2-.2-.5-.4-.9-.4-.5 0-.9.1-1.1.4s-.4.7-.4 1.1h-1.1c0-.7.2-1.2.7-1.7s1.1-.7 1.9-.7c.7 0 1.3.2 1.7.6s.6.9.6 1.6c0 .4-.1.9-.4 1.3-.2.4-.6.9-1.1 1.6l-2.1 2.4h3.7v.9h.2zM253.3 312.1c0 .9-.2 1.7-.7 2.2s-1.1.8-1.9.8c-.8 0-1.4-.3-1.9-.8s-.7-1.3-.7-2.2v-2.4c0-.9.2-1.7.7-2.2s1.1-.8 1.9-.8c.8 0 1.4.3 1.9.8s.7 1.3.7 2.2v2.4zm-1.1-2.6c0-.6-.1-1.1-.4-1.4-.3-.3-.6-.5-1.1-.5s-.8.2-1.1.5-.4.8-.4 1.4v2.9c0 .6.1 1.1.4 1.4.3.3.6.5 1.1.5s.9-.2 1.1-.5c.3-.3.4-.8.4-1.4v-2.9zM259.8 312.1c0 .9-.2 1.7-.7 2.2s-1.1.8-1.9.8-1.4-.3-1.9-.8-.7-1.3-.7-2.2v-2.4c0-.9.2-1.7.7-2.2s1.1-.8 1.9-.8 1.4.3 1.9.8.7 1.3.7 2.2v2.4zm-1.1-2.6c0-.6-.1-1.1-.4-1.4s-.6-.5-1.1-.5-.8.2-1.1.5c-.3.3-.4.8-.4 1.4v2.9c0 .6.1 1.1.4 1.4s.6.5 1.1.5.9-.2 1.1-.5.4-.8.4-1.4v-2.9zM263.7 310.4c.5 0 .8-.1 1.1-.4.2-.2.3-.6.3-1s-.1-.7-.3-1c-.2-.3-.6-.4-1-.4s-.8.1-1.1.4c-.3.3-.4.6-.4 1h-1.1c0-.6.2-1.1.7-1.6.5-.4 1.1-.7 1.9-.7s1.4.2 1.8.6.6 1 .6 1.7c0 .4-.1.7-.3 1-.2.3-.5.6-.8.7.4.2.7.4.9.8.2.3.3.7.3 1.2 0 .8-.2 1.3-.7 1.8-.5.4-1.1.6-1.9.6-.7 0-1.3-.2-1.8-.6s-.8-1-.8-1.6h1.1c0 .4.1.7.4 1s.7.4 1.1.4c.5 0 .8-.1 1.1-.4.3-.3.4-.6.4-1.1s-.1-.9-.4-1.2-.6-.4-1.1-.4h-.9v-.9h.9v.1z"/></g><g><path d="M280.9 315h-5.1v-.8l2.6-3.1c.5-.6.8-1 .9-1.3.2-.3.2-.7.2-1 0-.4-.1-.7-.3-.9-.2-.2-.5-.4-.9-.4-.5 0-.9.1-1.1.4-.3.3-.4.7-.4 1.1h-1.1c0-.7.2-1.2.7-1.7s1.1-.7 1.9-.7c.7 0 1.3.2 1.7.6.4.4.6.9.6 1.6 0 .4-.1.9-.4 1.3-.2.4-.6.9-1.1 1.6l-2.1 2.4h3.7v.9h.2zM287.3 312.1c0 .9-.2 1.7-.7 2.2s-1.1.8-1.9.8-1.4-.3-1.9-.8-.7-1.3-.7-2.2v-2.4c0-.9.2-1.7.7-2.2s1.1-.8 1.9-.8 1.4.3 1.9.8.7 1.3.7 2.2v2.4zm-1.1-2.6c0-.6-.1-1.1-.4-1.4s-.6-.5-1.1-.5-.8.2-1.1.5c-.3.3-.4.8-.4 1.4v2.9c0 .6.1 1.1.4 1.4s.6.5 1.1.5.9-.2 1.1-.5.4-.8.4-1.4v-2.9zM293.8 312.1c0 .9-.2 1.7-.7 2.2s-1.1.8-1.9.8-1.4-.3-1.9-.8-.7-1.3-.7-2.2v-2.4c0-.9.2-1.7.7-2.2s1.1-.8 1.9-.8 1.4.3 1.9.8.7 1.3.7 2.2v2.4zm-1.1-2.6c0-.6-.1-1.1-.4-1.4s-.6-.5-1.1-.5-.8.2-1.1.5c-.3.3-.4.8-.4 1.4v2.9c0 .6.1 1.1.4 1.4s.6.5 1.1.5.9-.2 1.1-.5c.3-.3.4-.8.4-1.4v-2.9zM299.4 312.3h1.1v.9h-1.1v1.9h-1.1v-1.9h-3.5v-.6l3.5-5.7h1.2v5.4h-.1zm-3.4 0h2.3v-3.9l-.1.3-2.2 3.6z"/></g><g><path d="M314.4 315h-5.1v-.8l2.6-3.1c.5-.6.8-1 .9-1.3.2-.3.2-.7.2-1 0-.4-.1-.7-.3-.9-.2-.2-.5-.4-.9-.4-.5 0-.9.1-1.1.4-.3.3-.4.7-.4 1.1h-1.1c0-.7.2-1.2.7-1.7s1.1-.7 1.9-.7c.7 0 1.3.2 1.7.6.4.4.6.9.6 1.6 0 .4-.1.9-.4 1.3-.2.4-.6.9-1.1 1.6l-2.1 2.4h3.7v.9h.2zM320.9 312.1c0 .9-.2 1.7-.7 2.2s-1.1.8-1.9.8-1.4-.3-1.9-.8-.7-1.3-.7-2.2v-2.4c0-.9.2-1.7.7-2.2s1.1-.8 1.9-.8 1.4.3 1.9.8.7 1.3.7 2.2v2.4zm-1.2-2.6c0-.6-.1-1.1-.4-1.4s-.6-.5-1.1-.5-.8.2-1.1.5c-.3.3-.4.8-.4 1.4v2.9c0 .6.1 1.1.4 1.4s.6.5 1.1.5.9-.2 1.1-.5.4-.8.4-1.4v-2.9zM327.4 312.1c0 .9-.2 1.7-.7 2.2s-1.1.8-1.9.8-1.4-.3-1.9-.8-.7-1.3-.7-2.2v-2.4c0-.9.2-1.7.7-2.2s1.1-.8 1.9-.8 1.4.3 1.9.8.7 1.3.7 2.2v2.4zm-1.2-2.6c0-.6-.1-1.1-.4-1.4s-.6-.5-1.1-.5-.8.2-1.1.5c-.3.3-.4.8-.4 1.4v2.9c0 .6.1 1.1.4 1.4s.6.5 1.1.5.9-.2 1.1-.5c.3-.3.4-.8.4-1.4v-2.9zM329 311.4l.5-4.6h4.1v1h-3.2l-.3 2.4.6-.3c.2-.1.5-.1.7-.1.8 0 1.4.2 1.8.7s.6 1.1.6 2c0 .8-.2 1.5-.7 2-.4.5-1.1.7-1.9.7-.7 0-1.3-.2-1.7-.6s-.7-.9-.7-1.7h1c0 .4.1.8.4 1s.6.4 1 .4c.5 0 .8-.2 1.1-.5.3-.3.4-.8.4-1.4 0-.5-.1-.9-.4-1.3s-.6-.5-1.1-.5c-.4 0-.8.1-.9.2s-.3.3-.4.6h-.9z"/></g><g><path d="M348.1 315H343v-.8l2.6-3.1c.5-.6.8-1 .9-1.3.2-.3.2-.7.2-1 0-.4-.1-.7-.3-.9-.2-.2-.5-.4-.9-.4-.5 0-.9.1-1.1.4-.3.3-.4.7-.4 1.1h-1c0-.7.2-1.2.7-1.7s1.1-.7 1.9-.7c.7 0 1.3.2 1.7.6.4.4.6.9.6 1.6 0 .4-.1.9-.4 1.3-.2.4-.6.9-1.1 1.6l-2.1 2.4h3.7l.1.9zM354.5 312.1c0 .9-.2 1.7-.7 2.2s-1.1.8-1.9.8-1.4-.3-1.9-.8-.7-1.3-.7-2.2v-2.4c0-.9.2-1.7.7-2.2s1.1-.8 1.9-.8 1.4.3 1.9.8.7 1.3.7 2.2v2.4zm-1.1-2.6c0-.6-.1-1.1-.4-1.4s-.6-.5-1.1-.5-.8.2-1.1.5c-.3.3-.4.8-.4 1.4v2.9c0 .6.1 1.1.4 1.4s.6.5 1.1.5.9-.2 1.1-.5.4-.8.4-1.4v-2.9zM361 312.1c0 .9-.2 1.7-.7 2.2s-1.1.8-1.9.8-1.4-.3-1.9-.8-.7-1.3-.7-2.2v-2.4c0-.9.2-1.7.7-2.2s1.1-.8 1.9-.8 1.4.3 1.9.8.7 1.3.7 2.2v2.4zm-1.1-2.6c0-.6-.1-1.1-.4-1.4s-.6-.5-1.1-.5-.8.2-1.1.5c-.3.3-.4.8-.4 1.4v2.9c0 .6.1 1.1.4 1.4s.6.5 1.1.5.9-.2 1.1-.5.4-.8.4-1.4v-2.9zM365.3 306.7c.3 0 .6 0 1 .1.3.1.6.1.8.2l-.2.9c-.2-.1-.4-.2-.7-.2-.2-.1-.5-.1-.8-.1-.5 0-.9.2-1.3.7-.3.4-.5 1-.5 1.7v.6c.2-.2.5-.4.8-.5s.7-.2 1-.2c.7 0 1.3.2 1.7.7.4.5.6 1.1.6 1.9s-.2 1.5-.7 2-1.1.8-1.9.8-1.4-.3-1.9-.9-.8-1.4-.8-2.4v-2c0-1 .3-1.8.8-2.4.6-.6 1.3-.9 2.1-.9zm-.3 3.9c-.3 0-.6.1-.9.2-.2.1-.4.3-.6.6v.6c0 .7.2 1.2.5 1.6s.7.6 1.1.6c.5 0 .8-.2 1.1-.5.2-.4.4-.8.4-1.4 0-.5-.1-1-.4-1.3-.3-.2-.7-.4-1.2-.4z"/></g><g><path d="M381.8 315h-5.1v-.8l2.6-3.1c.5-.6.8-1 .9-1.3.2-.3.2-.7.2-1 0-.4-.1-.7-.3-.9s-.5-.4-.9-.4c-.5 0-.9.1-1.1.4-.3.3-.4.7-.4 1.1h-1.1c0-.7.2-1.2.7-1.7s1.1-.7 1.9-.7c.7 0 1.3.2 1.7.6s.6.9.6 1.6c0 .4-.1.9-.4 1.3-.2.4-.6.9-1.1 1.6l-2.1 2.4h3.7v.9h.2zM388.2 312.1c0 .9-.2 1.7-.7 2.2s-1.1.8-1.9.8-1.4-.3-1.9-.8-.7-1.3-.7-2.2v-2.4c0-.9.2-1.7.7-2.2s1.1-.8 1.9-.8 1.4.3 1.9.8.7 1.3.7 2.2v2.4zm-1.1-2.6c0-.6-.1-1.1-.4-1.4s-.6-.5-1.1-.5-.8.2-1.1.5c-.3.3-.4.8-.4 1.4v2.9c0 .6.1 1.1.4 1.4s.6.5 1.1.5.9-.2 1.1-.5c.3-.3.4-.8.4-1.4v-2.9zM394.7 312.1c0 .9-.2 1.7-.7 2.2s-1.1.8-1.9.8-1.4-.3-1.9-.8-.7-1.3-.7-2.2v-2.4c0-.9.2-1.7.7-2.2s1.1-.8 1.9-.8 1.4.3 1.9.8.7 1.3.7 2.2v2.4zm-1.1-2.6c0-.6-.1-1.1-.4-1.4s-.6-.5-1.1-.5-.8.2-1.1.5c-.3.3-.4.8-.4 1.4v2.9c0 .6.1 1.1.4 1.4s.6.5 1.1.5.9-.2 1.1-.5c.3-.3.4-.8.4-1.4v-2.9zM401.3 307.7c-1 1.2-1.7 2.3-2.1 3.3-.4.9-.5 2-.5 3.2v.9h-1.1v-.9c0-1.2.2-2.4.7-3.4s1.1-2 2-3.1h-4.4v-.9h5.4v.9z"/></g><g><path d="M414.5 315h-5.1v-.8l2.6-3.1c.5-.6.8-1 .9-1.3.2-.3.2-.7.2-1 0-.4-.1-.7-.3-.9-.2-.2-.5-.4-.9-.4-.5 0-.9.1-1.1.4-.3.3-.4.7-.4 1.1h-1.1c0-.7.2-1.2.7-1.7s1.1-.7 1.9-.7c.7 0 1.3.2 1.7.6.4.4.6.9.6 1.6 0 .4-.1.9-.4 1.3-.2.4-.6.9-1.1 1.6l-2.1 2.4h3.7v.9h.2zM420.9 312.1c0 .9-.2 1.7-.7 2.2s-1.1.8-1.9.8-1.4-.3-1.9-.8-.7-1.3-.7-2.2v-2.4c0-.9.2-1.7.7-2.2s1.1-.8 1.9-.8 1.4.3 1.9.8.7 1.3.7 2.2v2.4zm-1.1-2.6c0-.6-.1-1.1-.4-1.4s-.6-.5-1.1-.5-.8.2-1.1.5c-.3.3-.4.8-.4 1.4v2.9c0 .6.1 1.1.4 1.4s.6.5 1.1.5.9-.2 1.1-.5.4-.8.4-1.4v-2.9zM427.4 312.1c0 .9-.2 1.7-.7 2.2s-1.1.8-1.9.8-1.4-.3-1.9-.8-.7-1.3-.7-2.2v-2.4c0-.9.2-1.7.7-2.2s1.1-.8 1.9-.8 1.4.3 1.9.8.7 1.3.7 2.2v2.4zm-1.1-2.6c0-.6-.1-1.1-.4-1.4s-.6-.5-1.1-.5-.8.2-1.1.5c-.3.3-.4.8-.4 1.4v2.9c0 .6.1 1.1.4 1.4s.6.5 1.1.5.9-.2 1.1-.5.4-.8.4-1.4v-2.9zM433.7 308.9c0 .4-.1.8-.4 1.1-.2.3-.6.6-1 .7.5.2.8.4 1.1.8s.4.8.4 1.2c0 .8-.2 1.3-.7 1.8-.5.4-1.1.6-1.9.6s-1.5-.2-2-.6-.8-1-.8-1.8c0-.5.1-.9.4-1.2s.7-.6 1.2-.8c-.4-.2-.8-.4-1-.7-.2-.3-.4-.7-.4-1.1 0-.7.2-1.3.7-1.6s1.1-.6 1.8-.6 1.3.2 1.7.6c.7.4.9.9.9 1.6zm-.8 3.9c0-.4-.1-.8-.4-1.1-.3-.3-.7-.4-1.1-.4-.5 0-.9.1-1.2.4-.3.3-.5.7-.5 1.1 0 .5.2.8.5 1.1.3.3.7.4 1.2.4.4 0 .8-.1 1.1-.4.2-.3.4-.7.4-1.1zm-.3-3.9c0-.4-.1-.7-.4-1s-.6-.4-.9-.4c-.4 0-.7.1-1 .4-.3.2-.4.6-.4 1s.1.8.4 1c.3.3.6.4 1 .4s.7-.1.9-.4.4-.5.4-1z"/></g><g><path d="M449.1 315H444v-.8l2.6-3.1c.5-.6.8-1 .9-1.3.2-.3.2-.7.2-1 0-.4-.1-.7-.3-.9-.2-.2-.5-.4-.9-.4-.5 0-.9.1-1.1.4-.3.3-.4.7-.4 1.1h-1c0-.7.2-1.2.7-1.7s1.1-.7 1.9-.7c.7 0 1.3.2 1.7.6.4.4.6.9.6 1.6 0 .4-.1.9-.4 1.3-.2.4-.6.9-1.1 1.6l-2.1 2.4h3.7l.1.9zM455.5 312.1c0 .9-.2 1.7-.7 2.2s-1.1.8-1.9.8-1.4-.3-1.9-.8-.7-1.3-.7-2.2v-2.4c0-.9.2-1.7.7-2.2s1.1-.8 1.9-.8 1.4.3 1.9.8.7 1.3.7 2.2v2.4zm-1.1-2.6c0-.6-.1-1.1-.4-1.4s-.6-.5-1.1-.5-.8.2-1.1.5c-.3.3-.4.8-.4 1.4v2.9c0 .6.1 1.1.4 1.4s.6.5 1.1.5.9-.2 1.1-.5.4-.8.4-1.4v-2.9zM462 312.1c0 .9-.2 1.7-.7 2.2s-1.1.8-1.9.8-1.4-.3-1.9-.8-.7-1.3-.7-2.2v-2.4c0-.9.2-1.7.7-2.2s1.1-.8 1.9-.8 1.4.3 1.9.8.7 1.3.7 2.2v2.4zm-1.1-2.6c0-.6-.1-1.1-.4-1.4s-.6-.5-1.1-.5-.8.2-1.1.5c-.3.3-.4.8-.4 1.4v2.9c0 .6.1 1.1.4 1.4s.6.5 1.1.5.9-.2 1.1-.5.4-.8.4-1.4v-2.9zM465.5 314.3c.5 0 1-.2 1.3-.6s.5-.9.5-1.6v-.7c-.2.3-.4.5-.7.6-.3.1-.6.2-.9.2-.8 0-1.4-.2-1.9-.7-.4-.5-.7-1.2-.7-2s.2-1.5.7-2 1.1-.8 1.8-.8c.8 0 1.5.3 2 .8s.7 1.2.7 2.2v2.5c0 .9-.3 1.7-.8 2.2s-1.2.8-2.1.8c-.3 0-.6 0-.9-.1s-.6-.1-.8-.3l.2-.8c.2.1.5.2.7.3h.9zm.2-2.9c.4 0 .7-.1 1-.3s.5-.4.6-.7v-1c0-.6-.1-1.1-.4-1.4s-.7-.5-1.2-.5c-.4 0-.7.2-1 .5s-.4.8-.4 1.4.1 1 .4 1.4.6.6 1 .6z"/></g><g><path d="M482.8 315h-5.1v-.8l2.6-3.1c.5-.6.8-1 .9-1.3.2-.3.2-.7.2-1 0-.4-.1-.7-.3-.9s-.5-.4-.9-.4c-.5 0-.9.1-1.1.4-.3.3-.4.7-.4 1.1h-1.1c0-.7.2-1.2.7-1.7s1.1-.7 1.9-.7c.7 0 1.3.2 1.7.6s.6.9.6 1.6c0 .4-.1.9-.4 1.3-.2.4-.6.9-1.1 1.6l-2.1 2.4h3.7v.9h.2zM489.2 312.1c0 .9-.2 1.7-.7 2.2s-1.1.8-1.9.8-1.4-.3-1.9-.8-.7-1.3-.7-2.2v-2.4c0-.9.2-1.7.7-2.2s1.1-.8 1.9-.8 1.4.3 1.9.8.7 1.3.7 2.2v2.4zm-1.1-2.6c0-.6-.1-1.1-.4-1.4s-.6-.5-1.1-.5-.8.2-1.1.5c-.3.3-.4.8-.4 1.4v2.9c0 .6.1 1.1.4 1.4s.6.5 1.1.5.9-.2 1.1-.5c.3-.3.4-.8.4-1.4v-2.9zM493.9 315h-1.1v-7.2H491v-.8l2.9-.3v8.3zM502.2 312.1c0 .9-.2 1.7-.7 2.2s-1.1.8-1.9.8-1.4-.3-1.9-.8-.7-1.3-.7-2.2v-2.4c0-.9.2-1.7.7-2.2s1.1-.8 1.9-.8 1.4.3 1.9.8.7 1.3.7 2.2v2.4zm-1.1-2.6c0-.6-.1-1.1-.4-1.4s-.6-.5-1.1-.5-.8.2-1.1.5c-.3.3-.4.8-.4 1.4v2.9c0 .6.1 1.1.4 1.4s.6.5 1.1.5.9-.2 1.1-.5c.3-.3.4-.8.4-1.4v-2.9z"/></g><g><path d="M516.5 315h-5.1v-.8l2.6-3.1c.5-.6.8-1 .9-1.3.2-.3.2-.7.2-1 0-.4-.1-.7-.3-.9s-.5-.4-.9-.4c-.5 0-.9.1-1.1.4-.3.3-.4.7-.4 1.1h-1.1c0-.7.2-1.2.7-1.7.5-.5 1.1-.7 1.9-.7.7 0 1.3.2 1.7.6s.6.9.6 1.6c0 .4-.1.9-.4 1.3-.2.4-.6.9-1.1 1.6l-2.1 2.4h3.7v.9h.2zM522.9 312.1c0 .9-.2 1.7-.7 2.2s-1.1.8-1.9.8c-.8 0-1.4-.3-1.9-.8s-.7-1.3-.7-2.2v-2.4c0-.9.2-1.7.7-2.2s1.1-.8 1.9-.8c.8 0 1.4.3 1.9.8s.7 1.3.7 2.2v2.4zm-1.1-2.6c0-.6-.1-1.1-.4-1.4-.3-.3-.6-.5-1.1-.5s-.8.2-1.1.5-.4.8-.4 1.4v2.9c0 .6.1 1.1.4 1.4.3.3.6.5 1.1.5s.9-.2 1.1-.5.4-.8.4-1.4v-2.9zM527.5 315h-1.1v-7.2h-1.8v-.8l2.9-.3v8.3zM534 315h-1.1v-7.2h-1.8v-.8l2.9-.3v8.3z"/></g><g><path d="M583.8 315h-5.1v-.8l2.6-3.1c.5-.6.8-1 .9-1.3.2-.3.2-.7.2-1 0-.4-.1-.7-.3-.9s-.5-.4-.9-.4c-.5 0-.9.1-1.1.4s-.4.7-.4 1.1h-1.1c0-.7.2-1.2.7-1.7s1.1-.7 1.9-.7c.7 0 1.3.2 1.7.6s.6.9.6 1.6c0 .4-.1.9-.4 1.3-.2.4-.6.9-1.1 1.6l-2.1 2.4h3.7v.9h.2zM590.2 312.1c0 .9-.2 1.7-.7 2.2s-1.1.8-1.9.8c-.8 0-1.4-.3-1.9-.8s-.7-1.3-.7-2.2v-2.4c0-.9.2-1.7.7-2.2s1.1-.8 1.9-.8c.8 0 1.4.3 1.9.8s.7 1.3.7 2.2v2.4zm-1.1-2.6c0-.6-.1-1.1-.4-1.4-.3-.3-.6-.5-1.1-.5s-.8.2-1.1.5-.4.8-.4 1.4v2.9c0 .6.1 1.1.4 1.4.3.3.6.5 1.1.5s.9-.2 1.1-.5c.3-.3.4-.8.4-1.4v-2.9zM594.9 315h-1.1v-7.2H592v-.8l2.9-.3v8.3zM600.6 310.4c.5 0 .8-.1 1.1-.4.2-.2.3-.6.3-1s-.1-.7-.3-1-.6-.4-1-.4-.8.1-1.1.4-.4.6-.4 1h-1.1c0-.6.2-1.1.7-1.6s1.1-.7 1.9-.7c.8 0 1.4.2 1.8.6s.6 1 .6 1.7c0 .4-.1.7-.3 1s-.5.6-.8.7c.4.2.7.4.9.8.2.3.3.7.3 1.2 0 .8-.2 1.3-.7 1.8-.5.4-1.1.6-1.9.6-.7 0-1.3-.2-1.8-.6s-.8-1-.8-1.6h1.1c0 .4.1.7.4 1 .3.3.7.4 1.1.4.5 0 .8-.1 1.1-.4s.4-.6.4-1.1-.1-.9-.4-1.2c-.2-.3-.6-.4-1.1-.4h-.9v-.9h.9v.1z"/></g><g><path d="M617.5 315h-5.1v-.8l2.6-3.1c.5-.6.8-1 .9-1.3.2-.3.2-.7.2-1 0-.4-.1-.7-.3-.9s-.5-.4-.9-.4c-.5 0-.9.1-1.1.4s-.4.7-.4 1.1h-1.1c0-.7.2-1.2.7-1.7s1.1-.7 1.9-.7c.7 0 1.3.2 1.7.6s.6.9.6 1.6c0 .4-.1.9-.4 1.3-.2.4-.6.9-1.1 1.6l-2.1 2.4h3.7v.9h.2zM623.9 312.1c0 .9-.2 1.7-.7 2.2s-1.1.8-1.9.8c-.8 0-1.4-.3-1.9-.8s-.7-1.3-.7-2.2v-2.4c0-.9.2-1.7.7-2.2s1.1-.8 1.9-.8c.8 0 1.4.3 1.9.8s.7 1.3.7 2.2v2.4zm-1.1-2.6c0-.6-.1-1.1-.4-1.4-.3-.3-.6-.5-1.1-.5s-.8.2-1.1.5-.4.8-.4 1.4v2.9c0 .6.1 1.1.4 1.4.3.3.6.5 1.1.5s.9-.2 1.1-.5c.3-.3.4-.8.4-1.4v-2.9zM628.6 315h-1.1v-7.2h-1.8v-.8l2.9-.3v8.3zM636.1 312.3h1.1v.9h-1.1v1.9H635v-1.9h-3.5v-.6l3.5-5.7h1.2v5.4h-.1zm-3.5 0h2.3v-3.9l-.1.3-2.2 3.6z"/></g><g><path d="M651.2 315h-5.1v-.8l2.6-3.1c.5-.6.8-1 .9-1.3.2-.3.2-.7.2-1 0-.4-.1-.7-.3-.9-.2-.2-.5-.4-.9-.4-.5 0-.9.1-1.1.4-.3.3-.4.7-.4 1.1H646c0-.7.2-1.2.7-1.7s1.1-.7 1.9-.7c.7 0 1.3.2 1.7.6s.6.9.6 1.6c0 .4-.1.9-.4 1.3-.2.4-.6.9-1.1 1.6l-2.1 2.4h3.7v.9h.2zM657.6 312.1c0 .9-.2 1.7-.7 2.2s-1.1.8-1.9.8c-.8 0-1.4-.3-1.9-.8s-.7-1.3-.7-2.2v-2.4c0-.9.2-1.7.7-2.2s1.1-.8 1.9-.8c.8 0 1.4.3 1.9.8s.7 1.3.7 2.2v2.4zm-1.1-2.6c0-.6-.1-1.1-.4-1.4-.3-.3-.6-.5-1.1-.5s-.8.2-1.1.5-.4.8-.4 1.4v2.9c0 .6.1 1.1.4 1.4.3.3.6.5 1.1.5s.9-.2 1.1-.5c.3-.3.4-.8.4-1.4v-2.9zM662.2 315h-1.1v-7.2h-1.8v-.8l2.9-.3v8.3zM665.7 311.4l.5-4.6h4.1v1h-3.2l-.3 2.4.6-.3c.2-.1.5-.1.7-.1.8 0 1.4.2 1.8.7.4.5.6 1.1.6 2 0 .8-.2 1.5-.7 2-.4.5-1.1.7-1.9.7-.7 0-1.3-.2-1.7-.6-.5-.4-.7-.9-.7-1.7h1c0 .4.1.8.4 1 .3.2.6.4 1 .4.5 0 .8-.2 1.1-.5s.4-.8.4-1.4c0-.5-.1-.9-.4-1.3-.3-.3-.6-.5-1.1-.5-.4 0-.8.1-.9.2s-.3.3-.4.6h-.9z"/></g><g><path d="M684.8 315h-5.1v-.8l2.6-3.1c.5-.6.8-1 .9-1.3.2-.3.2-.7.2-1 0-.4-.1-.7-.3-.9-.2-.2-.5-.4-.9-.4-.5 0-.9.1-1.1.4-.3.3-.4.7-.4 1.1h-1.1c0-.7.2-1.2.7-1.7s1.1-.7 1.9-.7c.7 0 1.3.2 1.7.6s.6.9.6 1.6c0 .4-.1.9-.4 1.3-.2.4-.6.9-1.1 1.6l-2.1 2.4h3.7v.9h.2zM691.3 312.1c0 .9-.2 1.7-.7 2.2s-1.1.8-1.9.8c-.8 0-1.4-.3-1.9-.8s-.7-1.3-.7-2.2v-2.4c0-.9.2-1.7.7-2.2s1.1-.8 1.9-.8c.8 0 1.4.3 1.9.8s.7 1.3.7 2.2v2.4zm-1.2-2.6c0-.6-.1-1.1-.4-1.4-.3-.3-.6-.5-1.1-.5s-.8.2-1.1.5-.4.8-.4 1.4v2.9c0 .6.1 1.1.4 1.4.3.3.6.5 1.1.5s.9-.2 1.1-.5c.3-.3.4-.8.4-1.4v-2.9zM695.9 315h-1.1v-7.2H693v-.8l2.9-.3v8.3zM702 306.7c.3 0 .6 0 1 .1.3.1.6.1.8.2l-.2.9c-.2-.1-.4-.2-.7-.2-.2-.1-.5-.1-.8-.1-.5 0-.9.2-1.3.7-.3.4-.5 1-.5 1.7v.6c.2-.2.5-.4.8-.5s.7-.2 1-.2c.7 0 1.3.2 1.7.7s.6 1.1.6 1.9-.2 1.5-.7 2-1.1.8-1.9.8c-.8 0-1.4-.3-1.9-.9s-.8-1.4-.8-2.4v-2c0-1 .3-1.8.8-2.4.6-.6 1.3-.9 2.1-.9zm-.3 3.9c-.3 0-.6.1-.9.2-.2.1-.4.3-.6.6v.6c0 .7.2 1.2.5 1.6s.7.6 1.1.6c.5 0 .8-.2 1.1-.5.2-.4.4-.8.4-1.4 0-.5-.1-1-.4-1.3-.3-.2-.7-.4-1.2-.4z"/></g><g><path d="M718.5 315h-5.1v-.8l2.6-3.1c.5-.6.8-1 .9-1.3.2-.3.2-.7.2-1 0-.4-.1-.7-.3-.9s-.5-.4-.9-.4c-.5 0-.9.1-1.1.4-.3.3-.4.7-.4 1.1h-1.1c0-.7.2-1.2.7-1.7s1.1-.7 1.9-.7c.7 0 1.3.2 1.7.6s.6.9.6 1.6c0 .4-.1.9-.4 1.3-.2.4-.6.9-1.1 1.6l-2.1 2.4h3.7v.9h.2zM724.9 312.1c0 .9-.2 1.7-.7 2.2s-1.1.8-1.9.8c-.8 0-1.4-.3-1.9-.8s-.7-1.3-.7-2.2v-2.4c0-.9.2-1.7.7-2.2s1.1-.8 1.9-.8c.8 0 1.4.3 1.9.8s.7 1.3.7 2.2v2.4zm-1.1-2.6c0-.6-.1-1.1-.4-1.4-.3-.3-.6-.5-1.1-.5s-.8.2-1.1.5-.4.8-.4 1.4v2.9c0 .6.1 1.1.4 1.4.3.3.6.5 1.1.5s.9-.2 1.1-.5.4-.8.4-1.4v-2.9zM729.6 315h-1.1v-7.2h-1.8v-.8l2.9-.3v8.3zM738.1 307.7c-1 1.2-1.7 2.3-2.1 3.3-.4.9-.5 2-.5 3.2v.9h-1.1v-.9c0-1.2.2-2.4.7-3.4s1.1-2 2-3.1h-4.4v-.9h5.4v.9z"/></g><g><path d="M752.2 315h-5.1v-.8l2.6-3.1c.5-.6.8-1 .9-1.3.2-.3.2-.7.2-1 0-.4-.1-.7-.3-.9s-.5-.4-.9-.4c-.5 0-.9.1-1.1.4s-.4.7-.4 1.1H747c0-.7.2-1.2.7-1.7s1.1-.7 1.9-.7c.7 0 1.3.2 1.7.6s.6.9.6 1.6c0 .4-.1.9-.4 1.3-.2.4-.6.9-1.1 1.6l-2.1 2.4h3.7v.9h.2zM758.6 312.1c0 .9-.2 1.7-.7 2.2s-1.1.8-1.9.8c-.8 0-1.4-.3-1.9-.8s-.7-1.3-.7-2.2v-2.4c0-.9.2-1.7.7-2.2s1.1-.8 1.9-.8c.8 0 1.4.3 1.9.8s.7 1.3.7 2.2v2.4zm-1.1-2.6c0-.6-.1-1.1-.4-1.4-.3-.3-.6-.5-1.1-.5s-.8.2-1.1.5-.4.8-.4 1.4v2.9c0 .6.1 1.1.4 1.4.3.3.6.5 1.1.5s.9-.2 1.1-.5c.3-.3.4-.8.4-1.4v-2.9zM763.2 315h-1.1v-7.2h-1.8v-.8l2.9-.3v8.3zM771.4 308.9c0 .4-.1.8-.4 1.1-.2.3-.6.6-1 .7.5.2.8.4 1.1.8s.4.8.4 1.2c0 .8-.2 1.3-.7 1.8-.5.4-1.1.6-1.9.6-.8 0-1.5-.2-2-.6s-.8-1-.8-1.8c0-.5.1-.9.4-1.2.3-.4.7-.6 1.2-.8-.4-.2-.8-.4-1-.7-.2-.3-.4-.7-.4-1.1 0-.7.2-1.3.7-1.6s1.1-.6 1.8-.6 1.3.2 1.7.6c.7.4.9.9.9 1.6zm-.8 3.9c0-.4-.1-.8-.4-1.1-.3-.3-.7-.4-1.1-.4-.5 0-.9.1-1.2.4s-.5.7-.5 1.1c0 .5.2.8.5 1.1.3.3.7.4 1.2.4.4 0 .8-.1 1.1-.4.2-.3.4-.7.4-1.1zm-.3-3.9c0-.4-.1-.7-.4-1-.2-.3-.6-.4-.9-.4-.4 0-.7.1-1 .4-.3.2-.4.6-.4 1s.1.8.4 1c.3.3.6.4 1 .4s.7-.1.9-.4c.3-.2.4-.5.4-1z"/></g><g><path d="M786.8 315h-5.1v-.8l2.6-3.1c.5-.6.8-1 .9-1.3.2-.3.2-.7.2-1 0-.4-.1-.7-.3-.9s-.5-.4-.9-.4c-.5 0-.9.1-1.1.4s-.4.7-.4 1.1h-1.1c0-.7.2-1.2.7-1.7s1.1-.7 1.9-.7c.7 0 1.3.2 1.7.6s.6.9.6 1.6c0 .4-.1.9-.4 1.3-.2.4-.6.9-1.1 1.6l-2.1 2.4h3.7v.9h.2zM793.2 312.1c0 .9-.2 1.7-.7 2.2s-1.1.8-1.9.8c-.8 0-1.4-.3-1.9-.8s-.7-1.3-.7-2.2v-2.4c0-.9.2-1.7.7-2.2s1.1-.8 1.9-.8c.8 0 1.4.3 1.9.8s.7 1.3.7 2.2v2.4zm-1.1-2.6c0-.6-.1-1.1-.4-1.4-.3-.3-.6-.5-1.1-.5s-.8.2-1.1.5-.4.8-.4 1.4v2.9c0 .6.1 1.1.4 1.4.3.3.6.5 1.1.5s.9-.2 1.1-.5c.3-.3.4-.8.4-1.4v-2.9zM797.9 315h-1.1v-7.2H795v-.8l2.9-.3v8.3zM803.2 314.3c.5 0 1-.2 1.3-.6s.5-.9.5-1.6v-.7c-.2.3-.4.5-.7.6s-.6.2-.9.2c-.8 0-1.4-.2-1.9-.7-.4-.5-.7-1.2-.7-2s.2-1.5.7-2 1.1-.8 1.8-.8c.8 0 1.5.3 2 .8s.7 1.2.7 2.2v2.5c0 .9-.3 1.7-.8 2.2s-1.2.8-2.1.8c-.3 0-.6 0-.9-.1-.3-.1-.6-.1-.8-.3l.2-.8c.2.1.5.2.7.3h.9zm.2-2.9c.4 0 .7-.1 1-.3s.5-.4.6-.7v-1c0-.6-.1-1.1-.4-1.4s-.7-.5-1.2-.5c-.4 0-.7.2-1 .5-.3.4-.4.8-.4 1.4s.1 1 .4 1.4.6.6 1 .6z"/></g><g><path d="M550.1 315H545v-.8l2.6-3.1c.5-.6.8-1 .9-1.3.2-.3.2-.7.2-1 0-.4-.1-.7-.3-.9s-.5-.4-.9-.4c-.5 0-.9.1-1.1.4-.3.3-.4.7-.4 1.1h-1c0-.7.2-1.2.7-1.7s1.1-.7 1.9-.7c.7 0 1.3.2 1.7.6s.6.9.6 1.6c0 .4-.1.9-.4 1.3-.2.4-.6.9-1.1 1.6l-2.1 2.4h3.7l.1.9zM556.6 312.1c0 .9-.2 1.7-.7 2.2s-1.1.8-1.9.8c-.8 0-1.4-.3-1.9-.8s-.7-1.3-.7-2.2v-2.4c0-.9.2-1.7.7-2.2s1.1-.8 1.9-.8c.8 0 1.4.3 1.9.8s.7 1.3.7 2.2v2.4zm-1.1-2.6c0-.6-.1-1.1-.4-1.4-.3-.3-.6-.5-1.1-.5s-.8.2-1.1.5-.4.8-.4 1.4v2.9c0 .6.1 1.1.4 1.4.3.3.6.5 1.1.5s.9-.2 1.1-.5c.3-.3.4-.8.4-1.4v-2.9zM561.2 315h-1.1v-7.2h-1.8v-.8l2.9-.3v8.3zM569.6 315h-5.1v-.8l2.6-3.1c.5-.6.8-1 .9-1.3.2-.3.2-.7.2-1 0-.4-.1-.7-.3-.9s-.5-.4-.9-.4c-.5 0-.9.1-1.1.4s-.4.7-.4 1.1h-1.1c0-.7.2-1.2.7-1.7s1.1-.7 1.9-.7c.7 0 1.3.2 1.7.6s.6.9.6 1.6c0 .4-.1.9-.4 1.3-.2.4-.6.9-1.1 1.6l-2.1 2.4h3.7v.9h.2z"/></g><g><path d="M34.5 45.3h1.1v.9h-1.1v1.9h-1.1v-1.9h-3.5v-.6l3.5-5.7h1.2v5.4h-.1zm-3.4 0h2.3v-3.9l-.1.3-2.2 3.6zM37 44.4l.5-4.6h4.1v1h-3.2l-.3 2.4.6-.3c.2-.1.5-.1.7-.1.8 0 1.4.2 1.8.7.4.5.6 1.1.6 2 0 .8-.2 1.5-.7 2-.4.5-1.1.7-1.9.7-.7 0-1.3-.2-1.7-.6-.5-.4-.7-.9-.7-1.7h1c0 .4.1.8.4 1 .3.2.6.4 1 .4.5 0 .8-.2 1.1-.5s.4-.8.4-1.4c0-.5-.1-.9-.4-1.3-.3-.3-.6-.5-1.1-.5-.4 0-.8.1-.9.2-.2.1-.3.3-.4.6H37zM48.4 45.2c0 .9-.2 1.7-.7 2.2s-1.1.8-1.9.8c-.8 0-1.4-.3-1.9-.8s-.7-1.3-.7-2.2v-2.4c0-.9.2-1.7.7-2.2s1.1-.8 1.9-.8c.8 0 1.4.3 1.9.8s.7 1.3.7 2.2v2.4zm-1.1-2.7c0-.6-.1-1.1-.4-1.4s-.6-.5-1.1-.5-.8.2-1.1.5-.4.8-.4 1.4v2.9c0 .6.1 1.1.4 1.4s.6.5 1.1.5.9-.2 1.1-.5c.3-.3.4-.8.4-1.4v-2.9zM50.8 47.8l-.8 1.7h-.7l.4-1.8v-.9h1.1v1zM57.1 45.2c0 .9-.2 1.7-.7 2.2s-1.1.8-1.9.8c-.8 0-1.4-.3-1.9-.8s-.7-1.3-.7-2.2v-2.4c0-.9.2-1.7.7-2.2s1.1-.8 1.9-.8c.8 0 1.4.3 1.9.8s.7 1.3.7 2.2v2.4zM56 42.5c0-.6-.1-1.1-.4-1.4-.3-.3-.6-.5-1.1-.5s-.8.2-1.1.5-.4.8-.4 1.4v2.9c0 .6.1 1.1.4 1.4.3.3.6.5 1.1.5s.9-.2 1.1-.5c.3-.3.4-.8.4-1.4v-2.9zM63.6 45.2c0 .9-.2 1.7-.7 2.2s-1.1.8-1.9.8c-.8 0-1.4-.3-1.9-.8s-.7-1.3-.7-2.2v-2.4c0-.9.2-1.7.7-2.2s1.1-.8 1.9-.8c.8 0 1.4.3 1.9.8s.7 1.3.7 2.2v2.4zm-1.1-2.7c0-.6-.1-1.1-.4-1.4s-.6-.5-1.1-.5-.8.2-1.1.5-.4.8-.4 1.4v2.9c0 .6.1 1.1.4 1.4s.6.5 1.1.5.9-.2 1.1-.5c.3-.3.4-.8.4-1.4v-2.9zM70.1 45.2c0 .9-.2 1.7-.7 2.2s-1.1.8-1.9.8-1.4-.3-1.9-.8-.7-1.3-.7-2.2v-2.4c0-.9.2-1.7.7-2.2s1.1-.8 1.9-.8 1.4.3 1.9.8.7 1.3.7 2.2v2.4zM69 42.5c0-.6-.1-1.1-.4-1.4-.3-.3-.6-.5-1.1-.5s-.8.2-1.1.5-.4.8-.4 1.4v2.9c0 .6.1 1.1.4 1.4s.6.5 1.1.5.9-.2 1.1-.5c.3-.3.4-.8.4-1.4v-2.9zM72.6 47.8l-.8 1.7h-.7l.4-1.8v-.9h1.1v1zM78.9 45.2c0 .9-.2 1.7-.7 2.2s-1.1.8-1.9.8-1.4-.3-1.9-.8-.7-1.3-.7-2.2v-2.4c0-.9.2-1.7.7-2.2s1.1-.8 1.9-.8 1.4.3 1.9.8.7 1.3.7 2.2v2.4zm-1.1-2.7c0-.6-.1-1.1-.4-1.4-.3-.3-.6-.5-1.1-.5s-.8.2-1.1.5-.4.8-.4 1.4v2.9c0 .6.1 1.1.4 1.4.3.3.6.5 1.1.5s.9-.2 1.1-.5c.3-.3.4-.8.4-1.4v-2.9zM85.4 45.2c0 .9-.2 1.7-.7 2.2s-1.1.8-1.9.8-1.4-.3-1.9-.8-.7-1.3-.7-2.2v-2.4c0-.9.2-1.7.7-2.2s1.1-.8 1.9-.8 1.4.3 1.9.8.7 1.3.7 2.2v2.4zm-1.1-2.7c0-.6-.1-1.1-.4-1.4-.3-.3-.6-.5-1.1-.5s-.8.2-1.1.5-.4.8-.4 1.4v2.9c0 .6.1 1.1.4 1.4s.6.5 1.1.5.9-.2 1.1-.5c.3-.3.4-.8.4-1.4v-2.9zM91.9 45.2c0 .9-.2 1.7-.7 2.2s-1.1.8-1.9.8-1.4-.3-1.9-.8-.7-1.3-.7-2.2v-2.4c0-.9.2-1.7.7-2.2s1.1-.8 1.9-.8 1.4.3 1.9.8.7 1.3.7 2.2v2.4zm-1.1-2.7c0-.6-.1-1.1-.4-1.4-.3-.3-.6-.5-1.1-.5s-.8.2-1.1.5-.4.8-.4 1.4v2.9c0 .6.1 1.1.4 1.4s.6.5 1.1.5.9-.2 1.1-.5c.3-.3.4-.8.4-1.4v-2.9z"/></g><g><path d="M821.5 315h-5.1v-.8l2.6-3.1c.5-.6.8-1 .9-1.3.2-.3.2-.7.2-1 0-.4-.1-.7-.3-.9s-.5-.4-.9-.4c-.5 0-.9.1-1.1.4-.3.3-.4.7-.4 1.1h-1.1c0-.7.2-1.2.7-1.7s1.1-.7 1.9-.7c.7 0 1.3.2 1.7.6s.6.9.6 1.6c0 .4-.1.9-.4 1.3-.2.4-.6.9-1.1 1.6l-2.1 2.4h3.7v.9h.2zM827.9 312.1c0 .9-.2 1.7-.7 2.2s-1.1.8-1.9.8c-.8 0-1.4-.3-1.9-.8s-.7-1.3-.7-2.2v-2.4c0-.9.2-1.7.7-2.2s1.1-.8 1.9-.8c.8 0 1.4.3 1.9.8s.7 1.3.7 2.2v2.4zm-1.1-2.7c0-.6-.1-1.1-.4-1.4-.3-.3-.6-.5-1.1-.5s-.8.2-1.1.5-.4.8-.4 1.4v2.9c0 .6.1 1.1.4 1.4.3.3.6.5 1.1.5s.9-.2 1.1-.5c.3-.3.4-.8.4-1.4v-2.9zM834.5 315h-5.1v-.8l2.6-3.1c.5-.6.8-1 .9-1.3.2-.3.2-.7.2-1 0-.4-.1-.7-.3-.9s-.5-.4-.9-.4c-.5 0-.9.1-1.1.4-.3.3-.4.7-.4 1.1h-1.1c0-.7.2-1.2.7-1.7s1.1-.7 1.9-.7c.7 0 1.3.2 1.7.6s.6.9.6 1.6c0 .4-.1.9-.4 1.3-.2.4-.6.9-1.1 1.6l-2.1 2.4h3.7v.9h.2zM840.9 312.1c0 .9-.2 1.7-.7 2.2s-1.1.8-1.9.8c-.8 0-1.4-.3-1.9-.8s-.7-1.3-.7-2.2v-2.4c0-.9.2-1.7.7-2.2s1.1-.8 1.9-.8c.8 0 1.4.3 1.9.8s.7 1.3.7 2.2v2.4zm-1.1-2.7c0-.6-.1-1.1-.4-1.4-.3-.3-.6-.5-1.1-.5s-.8.2-1.1.5-.4.8-.4 1.4v2.9c0 .6.1 1.1.4 1.4.3.3.6.5 1.1.5s.9-.2 1.1-.5c.3-.3.4-.8.4-1.4v-2.9z"/></g><g><path class="st0" d="M828.6 212h3.3v1.1h-8.2V210c0-.9.2-1.6.7-2 .5-.5 1-.7 1.8-.7.7 0 1.3.2 1.8.7.4.5.7 1.2.7 2l-.1 2zm-.9 0v-2c0-.6-.1-1-.4-1.2s-.7-.4-1.1-.4c-.5 0-.8.1-1.1.4-.3.3-.5.7-.5 1.2v2h3.1zM826.8 202.9v.6c0 .3.1.5.2.7.1.2.3.4.6.5h4.4v1.1h-6.1v-1l.9-.1c-.3-.2-.6-.4-.7-.6-.2-.3-.3-.5-.3-.9v-.2-.2l1 .1zM828.8 202c-.9 0-1.6-.2-2.2-.7-.6-.5-.9-1.2-.9-2s.3-1.5.9-2c.6-.5 1.3-.7 2.2-.7h.1c.9 0 1.7.2 2.2.7.6.5.9 1.2.9 2s-.3 1.5-.9 2c-.6.5-1.3.7-2.3.7zm.1-1.1c.6 0 1.2-.1 1.6-.4s.6-.7.6-1.2-.2-.9-.6-1.2-1-.4-1.6-.4h-.1c-.6 0-1.2.1-1.6.4s-.6.7-.6 1.2.2.9.6 1.2 1 .4 1.7.4zM824.2 193.8v1.1h-1.1v-1.1h1.1zm1.6 0h6.6c.6 0 1.1.2 1.5.5s.5.8.5 1.3v.3c0 .1 0 .2-.1.3l-.9-.1v-.2-.2c0-.2-.1-.4-.2-.6-.2-.1-.4-.2-.8-.2h-6.6v-1.1zM832 189.4c0 .9-.3 1.6-.8 2-.6.5-1.3.7-2.2.7h-.2c-.9 0-1.6-.3-2.2-.8-.6-.5-.9-1.1-.9-1.9 0-.8.3-1.4.8-1.8.5-.4 1.2-.6 2-.6h.6v3.9c.6 0 1.1-.1 1.5-.4.4-.3.6-.7.6-1.2 0-.4-.1-.7-.2-1-.1-.3-.3-.5-.4-.7l.7-.4c.2.2.4.5.5.9s.2.8.2 1.3zm-5.5.2c0 .4.1.7.4 1 .3.3.7.4 1.1.5v-2.8h-.1c-.4 0-.8.1-1.1.3-.1.2-.3.6-.3 1zM831.1 183.4c0-.3-.1-.6-.3-.9s-.5-.4-.8-.4v-1c.5 0 1 .2 1.4.7s.6 1 .6 1.6c0 .9-.3 1.5-.9 2-.6.5-1.3.7-2.2.7h-.2c-.9 0-1.6-.2-2.2-.7-.6-.5-.9-1.1-.9-2 0-.7.2-1.2.6-1.7.4-.4.9-.6 1.6-.6v1c-.4 0-.7.1-.9.4-.3.2-.4.5-.4.9 0 .5.2.9.6 1.2.4.2.9.4 1.5.4h.2c.6 0 1.1-.1 1.6-.4s.7-.7.7-1.2zM824.3 178.1h1.5v-1.2h.8v1.2h3.7c.3 0 .5-.1.6-.2s.2-.3.2-.5v-.2c0-.1 0-.1-.1-.2l.8-.2c.1.1.1.2.2.4s.1.3.1.5c0 .5-.1.8-.4 1.1-.3.3-.7.4-1.3.4h-3.7v1h-.8v-1h-1.5l-.1-1.1zM832 173.1c0 .9-.3 1.6-.8 2-.6.5-1.3.7-2.2.7h-.2c-.9 0-1.6-.3-2.2-.8-.6-.5-.9-1.1-.9-1.9 0-.8.3-1.4.8-1.8.5-.4 1.2-.6 2-.6h.6v3.9c.6 0 1.1-.1 1.5-.4.4-.3.6-.7.6-1.2 0-.4-.1-.7-.2-1-.1-.3-.3-.5-.4-.7l.7-.4c.2.2.4.5.5.9s.2.8.2 1.3zm-5.5.2c0 .4.1.7.4 1 .3.3.7.4 1.1.5V172h-.1c-.4 0-.8.1-1.1.3-.1.2-.3.5-.3 1zM829 169.7c-1 0-1.8-.2-2.4-.6-.6-.4-.9-1-.9-1.8 0-.4.1-.7.2-.9.1-.3.3-.5.6-.7h-3.4v-1.1h8.8v.9l-.8.2c.3.2.5.4.7.7s.2.6.2 1c0 .7-.3 1.3-.8 1.7s-1.2.6-2.2.6zm.1-1.1c.6 0 1.1-.1 1.5-.4.4-.3.6-.6.6-1.2 0-.3-.1-.6-.2-.8l-.6-.6h-2.8c-.3.1-.5.3-.6.6-.1.2-.2.5-.2.8 0 .5.2.9.7 1.2.4.3 1 .4 1.7.4h-.1z"/></g></svg>