<svg xmlns="http://www.w3.org/2000/svg" width="96" height="96"><g fill="none" fill-rule="evenodd"><path fill="#CC2E3D" fill-rule="nonzero" d="M42.187 3.595c2.388-4.794 9.234-4.794 11.622 0L74.005 43.98l21.3 42.612c2.16 4.32-.984 9.408-5.814 9.408H6.511c-4.836 0-7.974-5.088-5.814-9.408l21.3-42.612 20.19-40.386zM48 66a4.286 4.286 0 004.274-3.99l1.68-24.568C54.396 33.492 51.61 30 48 30s-6.396 3.492-5.954 7.442l1.68 24.567A4.286 4.286 0 0048 66zm6 12.07v-.14c0-3.35-2.545-5.93-6.003-5.93C44.551 72 42 74.584 42 77.93v.14c0 3.346 2.55 5.93 5.997 5.93C51.455 84 54 81.41 54 78.07z"/><path d="M0 0h96v96H0z"/></g></svg>