<svg width="16" height="16" xmlns="http://www.w3.org/2000/svg"><g fill="none" fill-rule="evenodd"><path d="M0 0h16v16H0z"/><path d="M4.5 11.5h7v-7h-7v7zm8-8v9h-9v-9h9z" fill="#2A3052" fill-rule="nonzero"/><path d="M2.698 9.5H.218v-.537L1.36 7.762c.281-.32.422-.576.422-.764 0-.153-.033-.27-.1-.35-.067-.08-.163-.12-.29-.12a.362.362 0 0 0-.306.16.657.657 0 0 0-.117.4H.144A1.167 1.167 0 0 1 .762 6.05c.193-.104.41-.156.65-.156.383 0 .68.089.887.266.207.178.31.432.31.764 0 .14-.025.277-.077.41a1.793 1.793 0 0 1-.243.417 6.12 6.12 0 0 1-.531.584l-.46.53h1.4V9.5zM9.107 8.194h.47v.825h-.47V10h-1.07v-.98H6.252l-.064-.655 1.85-2.977v-.01h1.07v2.816zm-1.9 0h.83V6.772l-.066.108-.765 1.314zM15.205 5.894v.647h-.037c-.308 0-.56.074-.758.221a.933.933 0 0 0-.365.614.962.962 0 0 1 .703-.273c.308 0 .553.112.735.336.182.225.273.52.273.884 0 .226-.053.434-.16.623a1.141 1.141 0 0 1-.446.443c-.192.107-.404.16-.636.16-.253 0-.478-.058-.677-.172a1.183 1.183 0 0 1-.463-.492 1.62 1.62 0 0 1-.171-.738v-.33c0-.365.078-.695.235-.987.157-.292.381-.52.673-.687.291-.166.614-.249.97-.249h.124zm-.743 1.838a.47.47 0 0 0-.437.262v.246c0 .45.156.674.467.674.125 0 .23-.056.313-.168a.687.687 0 0 0 .126-.423.674.674 0 0 0-.128-.426.41.41 0 0 0-.34-.165z" fill="#2A3052"/></g></svg>