<svg xmlns="http://www.w3.org/2000/svg" width="135" height="40" viewBox="0 0 135 40">
  <g fill="none" fill-rule="evenodd">
    <path fill="#A6A6A6" d="M130.197,40 L4.729,40 C2.122,40 0,37.872 0,35.267 L0,4.726 C0,2.12 2.122,0 4.729,0 L130.197,0 C132.803,0 135,2.12 135,4.726 L135,35.267 C135,37.872 132.803,40 130.197,40 L130.197,40 L130.197,40 Z"/>
    <path fill="#000000" d="M134.032,35.268 C134.032,37.384 132.318,39.098 130.198,39.098 L4.729,39.098 C2.61,39.098 0.89,37.384 0.89,35.268 L0.89,4.725 C0.89,2.61 2.61,0.89 4.729,0.89 L130.197,0.89 C132.318,0.89 134.031,2.61 134.031,4.725 L134.032,35.268 L134.032,35.268 L134.032,35.268 Z"/>
    <g fill="#FFFFFF" transform="translate(12 6)">
      <path d="M18.128 13.784C18.099 10.561 20.767 8.993 20.889 8.92 19.378 6.717 17.036 6.416 16.213 6.392 14.246 6.185 12.338 7.569 11.336 7.569 10.314 7.569 8.771 6.412 7.108 6.446 4.968 6.479 2.966 7.718 1.868 9.642-.398 13.565 1.292 19.33 3.463 22.501 4.549 24.054 5.818 25.788 7.479 25.727 9.104 25.66 9.711 24.691 11.672 24.691 13.615 24.691 14.185 25.727 15.879 25.688 17.623 25.66 18.721 24.128 19.769 22.561 21.024 20.781 21.528 19.028 21.548 18.938 21.507 18.924 18.161 17.647 18.128 13.784L18.128 13.784zM14.928 4.306C15.802 3.213 16.4 1.726 16.234.217 14.969.273 13.387 1.092 12.476 2.161 11.67 3.103 10.95 4.647 11.136 6.099 12.557 6.205 14.016 5.382 14.928 4.306L14.928 4.306z"/>
    </g>
    <g fill="#FFFFFF" transform="translate(42 18)">
      <path d="M11.645 13.504L9.374 13.504 8.13 9.595 3.806 9.595 2.621 13.504.41 13.504 4.694.196 7.34.196 11.645 13.504 11.645 13.504zM7.755 7.955L6.63 4.48C6.511 4.125 6.288 3.289 5.959 1.973L5.919 1.973C5.788 2.539 5.577 3.375 5.287 4.48L4.182 7.955 7.755 7.955 7.755 7.955zM22.662 8.588C22.662 10.22 22.221 11.51 21.339 12.457 20.549 13.3 19.568 13.721 18.397 13.721 17.133 13.721 16.225 13.267 15.672 12.359L15.632 12.359 15.632 17.414 13.5 17.414 13.5 7.067C13.5 6.041 13.473 4.988 13.421 3.908L15.296 3.908 15.415 5.429 15.455 5.429C16.166 4.283 17.245 3.711 18.693 3.711 19.825 3.711 20.77 4.158 21.526 5.053 22.284 5.949 22.662 7.127 22.662 8.588L22.662 8.588zM20.49 8.666C20.49 7.732 20.28 6.962 19.858 6.356 19.397 5.724 18.778 5.408 18.002 5.408 17.476 5.408 16.998 5.584 16.571 5.931 16.143 6.281 15.863 6.738 15.732 7.304 15.666 7.568 15.633 7.784 15.633 7.954L15.633 9.554C15.633 10.252 15.847 10.841 16.275 11.322 16.703 11.803 17.259 12.043 17.943 12.043 18.746 12.043 19.371 11.733 19.818 11.115 20.266 10.496 20.49 9.68 20.49 8.666L20.49 8.666zM33.699 8.588C33.699 10.22 33.258 11.51 32.375 12.457 31.586 13.3 30.605 13.721 29.434 13.721 28.17 13.721 27.262 13.267 26.71 12.359L26.67 12.359 26.67 17.414 24.538 17.414 24.538 7.067C24.538 6.041 24.511 4.988 24.459 3.908L26.334 3.908 26.453 5.429 26.493 5.429C27.203 4.283 28.282 3.711 29.731 3.711 30.862 3.711 31.807 4.158 32.565 5.053 33.32 5.949 33.699 7.127 33.699 8.588L33.699 8.588zM31.527 8.666C31.527 7.732 31.316 6.962 30.894 6.356 30.433 5.724 29.816 5.408 29.039 5.408 28.512 5.408 28.035 5.584 27.607 5.931 27.179 6.281 26.9 6.738 26.769 7.304 26.704 7.568 26.67 7.784 26.67 7.954L26.67 9.554C26.67 10.252 26.884 10.841 27.31 11.322 27.738 11.802 28.294 12.043 28.98 12.043 29.783 12.043 30.408 11.733 30.855 11.115 31.303 10.496 31.527 9.68 31.527 8.666L31.527 8.666zM46.039 9.772C46.039 10.904 45.646 11.825 44.857 12.536 43.99 13.313 42.783 13.701 41.232 13.701 39.8 13.701 38.652 13.425 37.783 12.872L38.277 11.095C39.213 11.661 40.24 11.945 41.359 11.945 42.162 11.945 42.787 11.763 43.236 11.401 43.683 11.039 43.906 10.553 43.906 9.947 43.906 9.407 43.722 8.952 43.353 8.583 42.986 8.214 42.373 7.871 41.517 7.554 39.187 6.685 38.023 5.412 38.023 3.738 38.023 2.644 38.431 1.747 39.248 1.049 40.062.35 41.148.001 42.506.001 43.717.001 44.723.212 45.526.633L44.993 2.371C44.243 1.963 43.395 1.759 42.446 1.759 41.696 1.759 41.11 1.944 40.69 2.312 40.335 2.641 40.157 3.042 40.157 3.517 40.157 4.043 40.36 4.478 40.768 4.82 41.123 5.136 41.768 5.478 42.704 5.847 43.849 6.308 44.69 6.847 45.231 7.465 45.77 8.081 46.039 8.852 46.039 9.772L46.039 9.772zM53.088 5.508L50.738 5.508 50.738 10.167C50.738 11.352 51.152 11.944 51.982 11.944 52.363 11.944 52.679 11.911 52.929 11.845L52.988 13.464C52.568 13.621 52.015 13.7 51.33 13.7 50.488 13.7 49.83 13.443 49.355 12.93 48.882 12.416 48.644 11.554 48.644 10.343L48.644 5.506 47.244 5.506 47.244 3.906 48.644 3.906 48.644 2.149 50.738 1.517 50.738 3.906 53.088 3.906 53.088 5.508 53.088 5.508zM63.691 8.627C63.691 10.102 63.269 11.313 62.427 12.26 61.544 13.235 60.372 13.721 58.911 13.721 57.503 13.721 56.382 13.254 55.546 12.32 54.71 11.386 54.292 10.207 54.292 8.786 54.292 7.299 54.722 6.081 55.585 5.134 56.446 4.186 57.608 3.712 59.069 3.712 60.477 3.712 61.61 4.179 62.465 5.114 63.283 6.021 63.691 7.192 63.691 8.627L63.691 8.627zM61.479 8.696C61.479 7.811 61.29 7.052 60.907 6.419 60.46 5.653 59.821 5.271 58.993 5.271 58.136 5.271 57.485 5.654 57.038 6.419 56.655 7.053 56.466 7.824 56.466 8.736 56.466 9.621 56.655 10.38 57.038 11.012 57.499 11.778 58.143 12.16 58.974 12.16 59.788 12.16 60.427 11.77 60.888 10.992 61.281 10.347 61.479 9.58 61.479 8.696L61.479 8.696zM70.621 5.783C70.41 5.744 70.185 5.724 69.949 5.724 69.199 5.724 68.619 6.007 68.211 6.574 67.856 7.074 67.678 7.706 67.678 8.469L67.678 13.504 65.547 13.504 65.567 6.93C65.567 5.824 65.54 4.817 65.487 3.909L67.344 3.909 67.422 5.745 67.481 5.745C67.706 5.114 68.061 4.606 68.547 4.225 69.022 3.882 69.535 3.711 70.088 3.711 70.285 3.711 70.463 3.725 70.621 3.75L70.621 5.783 70.621 5.783zM80.156 8.252C80.156 8.634 80.131 8.956 80.078 9.219L73.682 9.219C73.707 10.167 74.016 10.892 74.61 11.392 75.149 11.839 75.846 12.063 76.702 12.063 77.649 12.063 78.513 11.912 79.29 11.609L79.624 13.089C78.716 13.485 77.644 13.682 76.407 13.682 74.919 13.682 73.751 13.244 72.901 12.369 72.053 11.494 71.628 10.319 71.628 8.845 71.628 7.398 72.023 6.193 72.814 5.232 73.642 4.206 74.761 3.693 76.169 3.693 77.552 3.693 78.599 4.206 79.31 5.232 79.873 6.047 80.156 7.055 80.156 8.252L80.156 8.252zM78.123 7.699C78.137 7.067 77.998 6.521 77.709 6.06 77.34 5.467 76.773 5.171 76.01 5.171 75.313 5.171 74.746 5.46 74.313 6.04 73.958 6.501 73.747 7.054 73.682 7.698L78.123 7.698 78.123 7.699z"/>
    </g>
    <g fill="#FFFFFF" transform="translate(43 4)">
      <path d="M4.549 9.438L4.549 6.408C4.549 6.196 4.523 5.998 4.472 5.817 4.42 5.635 4.339 5.479 4.231 5.348 4.122 5.218 3.983 5.115 3.817 5.038 3.65 4.962 3.451 4.924 3.22 4.924 2.68 4.924 2.269 5.102 1.988 5.456 1.706 5.811 1.564 6.307 1.564 6.944 1.564 7.296 1.605 7.591 1.687 7.831 1.769 8.071 1.875 8.263 2.005 8.409 2.136 8.555 2.279 8.659 2.438 8.723 2.595 8.786 2.753 8.819 2.911 8.819 3.039 8.819 3.149 8.81 3.244 8.792 3.338 8.774 3.433 8.747 3.53 8.71L3.676 9.329C3.572 9.378 3.451 9.417 3.312 9.448 3.173 9.479 3.027 9.493 2.875 9.493 2.603 9.493 2.338 9.441 2.083 9.338 1.829 9.235 1.605 9.079 1.415 8.869 1.224 8.66 1.07 8.396.955 8.077.84 7.758.782 7.381.782 6.944.782 6.562.832 6.207.932 5.879 1.032 5.551 1.182 5.268 1.382 5.028 1.582 4.789 1.834 4.599 2.137 4.46 2.441 4.32 2.795 4.251 3.202 4.251 3.571 4.251 3.89 4.309 4.157 4.424 4.424 4.539 4.644 4.697 4.817 4.897 4.99 5.097 5.119 5.328 5.204 5.589 5.289 5.85 5.331 6.126 5.331 6.417L5.331 9.438 4.549 9.438 4.549 9.438zM9.126 9.438L9.126 6.153C9.126 5.334 8.765 4.924 8.043 4.924 7.752 4.924 7.479 4.977 7.224 5.083 6.969 5.189 6.754 5.315 6.578 5.461L6.368 4.869C6.459 4.79 6.57 4.713 6.7 4.637 6.831 4.561 6.973 4.494 7.128 4.437 7.283 4.379 7.443 4.334 7.61 4.301 7.777 4.267 7.945 4.251 8.115 4.251 8.71 4.251 9.157 4.419 9.458 4.756 9.758 5.093 9.908 5.57 9.908 6.19L9.908 9.439 9.126 9.439 9.126 9.438zM11.101 8.401C11.32 8.535 11.552 8.644 11.797 8.729 12.043 8.814 12.312 8.856 12.603 8.856 13.064 8.856 13.432 8.698 13.708 8.383 13.984 8.068 14.122 7.582 14.122 6.927 14.122 6.236 13.99 5.729 13.726 5.407 13.462 5.085 13.087 4.925 12.602 4.925 12.281 4.925 12.004 4.966 11.774 5.048 11.544 5.13 11.313 5.247 11.083 5.398L10.9 4.77C11.143 4.612 11.418 4.487 11.724 4.393 12.03 4.299 12.344 4.252 12.665 4.252 13.399 4.252 13.956 4.481 14.335 4.939 14.714 5.397 14.904 6.036 14.904 6.855 14.904 7.729 14.702 8.393 14.299 8.848 13.896 9.303 13.323 9.53 12.583 9.53 12.237 9.53 11.931 9.488 11.664 9.403 11.397 9.319 11.145 9.197 10.909 9.039L11.101 8.401 11.101 8.401zM16.924 7.619C16.924 8.05 17.009 8.364 17.179 8.561 17.349 8.758 17.625 8.856 18.007 8.856 18.158 8.856 18.309 8.829 18.457 8.774 18.606 8.719 18.747 8.643 18.881 8.546 19.014 8.449 19.132 8.338 19.235 8.213 19.339 8.089 19.423 7.957 19.49 7.817L19.49 4.342 20.272 4.342 20.272 9.438 19.536 9.438 19.49 8.692C19.314 8.947 19.095 9.15 18.835 9.301 18.574 9.453 18.237 9.529 17.825 9.529 17.266 9.529 16.846 9.367 16.564 9.042 16.282 8.718 16.141 8.246 16.141 7.627L16.141 4.342 16.923 4.342 16.923 7.619 16.924 7.619zM20.182 3.105C20.049 3.105 19.949 3.133 19.882 3.188 19.816 3.244 19.781 3.339 19.781 3.475L19.781 3.669 18.917 3.669 18.917 3.369C18.917 3.078 19.001 2.852 19.167 2.691 19.334 2.53 19.588 2.45 19.927 2.45L20.81 2.45 20.81 3.105 20.182 3.105 20.182 3.105zM22.32 9.438L22.32 3.848C22.32 3.569 22.276 3.327 22.188 3.12 22.1 2.913 21.999 2.74 21.883 2.598 21.767 2.456 21.654 2.347 21.541 2.271 21.428 2.195 21.35 2.148 21.301 2.13L21.283 1.966C21.38 1.796 21.503 1.646 21.651 1.516 21.799 1.386 21.966 1.276 22.152 1.188 22.337 1.1 22.537 1.035 22.753.993 22.968.951 23.191.93 23.422.93 23.791.93 24.089.952 24.314.997 24.539 1.042 24.742 1.1 24.923 1.172L24.805 1.858C24.629 1.761 24.424 1.691 24.191 1.649 23.958 1.607 23.725 1.585 23.495 1.585 23.204 1.585 22.938 1.619 22.699 1.685 22.459 1.752 22.285 1.855 22.176 1.995 22.48 2.159 22.71 2.415 22.867 2.764 23.025 3.113 23.103 3.496 23.103 3.915L23.103 9.439 22.32 9.439 22.32 9.438zM28.018 9.438L27.344 7.126C27.174 6.568 26.865 6.283 26.416 6.271L25.278 7.209 25.278 9.438 24.496 9.438 24.496 4.342 25.278 4.342 25.278 6.344 27.699 4.342 28.755 4.342 26.971 5.817C27.299 5.865 27.552 6.002 27.731 6.226 27.91 6.451 28.051 6.73 28.155 7.063L28.855 9.438 28.018 9.438 28.018 9.438zM33.067 9.438L33.067 6.981 31.794 6.981C31.362 6.981 31.023 7.064 30.774 7.231 30.525 7.398 30.401 7.654 30.401 8 30.401 8.297 30.489 8.518 30.665 8.66 30.841 8.802 31.062 8.874 31.329 8.874 31.457 8.874 31.592 8.86 31.734 8.833 31.876 8.806 32.003 8.768 32.112 8.719L32.239 9.365C32.105 9.413 31.951 9.453 31.775 9.483 31.599 9.513 31.423 9.528 31.247 9.528 31.017 9.528 30.803 9.496 30.606 9.433 30.409 9.369 30.237 9.275 30.091 9.151 29.945 9.027 29.83 8.869 29.745 8.678 29.66 8.487 29.617 8.264 29.617 8.009 29.617 7.475 29.805 7.058 30.181 6.758 30.557 6.458 31.124 6.308 31.883 6.308L33.066 6.308 33.066 6.19C33.066 5.79 32.972 5.476 32.784 5.248 32.596 5.02 32.263 4.907 31.783 4.907 31.437 4.907 31.116 4.959 30.818 5.062 30.521 5.165 30.263 5.292 30.045 5.444L29.791 4.889C29.882 4.81 29.998 4.733 30.141 4.657 30.284 4.581 30.445 4.513 30.623 4.452 30.801 4.391 30.995 4.343 31.201 4.306 31.407 4.269 31.623 4.251 31.847 4.251 32.502 4.251 33 4.425 33.34 4.774 33.68 5.123 33.85 5.591 33.85 6.18L33.85 9.438 33.067 9.438 33.067 9.438zM38.855 9.438L38.855 6.408C38.855 6.196 38.829 5.998 38.778 5.817 38.726 5.635 38.645 5.479 38.537 5.348 38.428 5.218 38.289 5.115 38.123 5.038 37.956 4.962 37.757 4.924 37.526 4.924 36.986 4.924 36.575 5.102 36.294 5.456 36.012 5.811 35.87 6.307 35.87 6.944 35.87 7.296 35.911 7.591 35.993 7.831 36.075 8.071 36.181 8.263 36.311 8.409 36.442 8.555 36.585 8.659 36.744 8.723 36.901 8.786 37.059 8.819 37.217 8.819 37.345 8.819 37.455 8.81 37.55 8.792 37.644 8.774 37.739 8.747 37.836 8.71L37.982 9.329C37.878 9.378 37.757 9.417 37.618 9.448 37.479 9.479 37.333 9.493 37.181 9.493 36.909 9.493 36.644 9.441 36.389 9.338 36.135 9.235 35.911 9.079 35.721 8.869 35.53 8.66 35.376 8.396 35.261 8.077 35.146 7.758 35.088 7.381 35.088 6.944 35.088 6.562 35.138 6.207 35.238 5.879 35.338 5.551 35.488 5.268 35.688 5.028 35.888 4.789 36.14 4.599 36.443 4.46 36.747 4.32 37.101 4.251 37.508 4.251 37.877 4.251 38.196 4.309 38.463 4.424 38.73 4.539 38.95 4.697 39.123 4.897 39.296 5.097 39.425 5.328 39.51 5.589 39.595 5.85 39.637 6.126 39.637 6.417L39.637 9.438 38.855 9.438 38.855 9.438zM41.385 9.438L41.385 3.368C41.385 2.998 41.447 2.677 41.572 2.404 41.697 2.131 41.868 1.897 42.087 1.703L39.839 1.703 39.839 1.048 43.088 1.048 43.088 1.594C42.796 1.728 42.57 1.927 42.409 2.191 42.249 2.455 42.168 2.788 42.168 3.189L42.168 9.439 41.385 9.439 41.385 9.438zM47.218 9.438L47.218 6.408C47.218 6.196 47.192 5.998 47.141 5.817 47.089 5.635 47.008 5.479 46.9 5.348 46.791 5.218 46.652 5.115 46.486 5.038 46.319 4.962 46.12 4.924 45.889 4.924 45.349 4.924 44.938 5.102 44.657 5.456 44.375 5.811 44.233 6.307 44.233 6.944 44.233 7.296 44.274 7.591 44.356 7.831 44.438 8.071 44.544 8.263 44.674 8.409 44.805 8.555 44.948 8.659 45.107 8.723 45.264 8.786 45.422 8.819 45.58 8.819 45.708 8.819 45.818 8.81 45.913 8.792 46.007 8.774 46.102 8.747 46.199 8.71L46.345 9.329C46.241 9.378 46.12 9.417 45.981 9.448 45.842 9.479 45.696 9.493 45.544 9.493 45.272 9.493 45.007 9.441 44.752 9.338 44.498 9.235 44.274 9.079 44.084 8.869 43.893 8.66 43.739 8.396 43.624 8.077 43.509 7.758 43.451 7.381 43.451 6.944 43.451 6.562 43.501 6.207 43.601 5.879 43.701 5.551 43.851 5.268 44.051 5.028 44.251 4.789 44.503 4.599 44.806 4.46 45.11 4.32 45.464 4.251 45.871 4.251 46.24 4.251 46.559 4.309 46.826 4.424 47.093 4.539 47.313 4.697 47.486 4.897 47.659 5.097 47.788 5.328 47.873 5.589 47.958 5.85 48 6.126 48 6.417L48 9.438 47.218 9.438 47.218 9.438zM46.672 3.651C46.569 3.651 46.478 3.614 46.4 3.542 46.32 3.469 46.28 3.372 46.28 3.25L46.28 2.996C46.28 2.93 46.271 2.882 46.254 2.855 46.235 2.828 46.19 2.814 46.117 2.814L45.635 2.814 45.635 2.177 46.381 2.177C46.551 2.177 46.686 2.213 46.786 2.286 46.886 2.359 46.935 2.474 46.935 2.632L46.935 2.86C46.935 2.908 46.946 2.946 46.967 2.974 46.989 3 47.033 3.014 47.1 3.014L48.329 3.014 48.329 3.651 46.672 3.651 46.672 3.651zM52.878 6.171C52.878 5.734 52.796 5.418 52.633 5.22 52.469 5.023 52.253 4.924 51.987 4.924 51.793 4.924 51.609 4.953 51.436 5.01 51.263 5.067 51.101 5.144 50.95 5.238 50.798 5.332 50.662 5.443 50.54 5.57 50.419 5.697 50.319 5.828 50.24 5.962L50.24 9.438 49.458 9.438 49.458 4.342 50.194 4.342 50.24 5.089C50.331 4.985 50.438 4.884 50.563 4.784 50.687 4.684 50.825 4.595 50.977 4.515 51.128 4.436 51.292 4.373 51.468 4.324 51.644 4.276 51.828 4.251 52.023 4.251 52.291 4.251 52.525 4.296 52.728 4.388 52.932 4.479 53.103 4.609 53.243 4.779 53.383 4.949 53.487 5.151 53.556 5.384 53.626 5.618 53.661 5.88 53.661 6.171L53.661 9.438 52.878 9.438 52.878 6.171 52.878 6.171z"/>
      <polygon points="50.103 3.651 50.103 3.014 53.269 3.014 53.269 2.177 54.006 2.177 54.006 3.651"/>
      <polygon points="53.614 1.731 53.614 .511 54.351 .511 54.351 1.731"/>
    </g>
  </g>
</svg>
