<?xml version="1.0" encoding="UTF-8" standalone="no"?>
<svg width="135px" height="40px" viewBox="0 0 135 40" version="1.1" xmlns="http://www.w3.org/2000/svg" xmlns:xlink="http://www.w3.org/1999/xlink">
    <!-- Generator: Sketch 39.1 (31720) - http://www.bohemiancoding.com/sketch -->
    <title>apple vietnamese</title>
    <desc>Created with Sketch.</desc>
    <defs></defs>
    <g id="apps" stroke="none" stroke-width="1" fill="none" fill-rule="evenodd">
        <g id="localized-badges" transform="translate(-30.000000, -457.000000)">
            <g id="apple-vietnamese" transform="translate(30.000000, 457.000000)">
                <g id="VN_Download_on_the">
                    <g id="Group">
                        <path d="M130.197,40 L4.729,40 C2.122,40 0,37.872 0,35.267 L0,4.726 C0,2.12 2.122,0 4.729,0 L130.197,0 C132.803,0 135,2.12 135,4.726 L135,35.267 C135,37.872 132.803,40 130.197,40 L130.197,40 L130.197,40 Z" id="Shape" fill="#DEDEDE"></path>
                        <path d="M134.032,35.268 C134.032,37.384 132.318,39.098 130.198,39.098 L4.729,39.098 C2.61,39.098 0.89,37.384 0.89,35.268 L0.89,4.725 C0.89,2.61 2.61,0.89 4.729,0.89 L130.197,0.89 C132.318,0.89 134.031,2.61 134.031,4.725 L134.032,35.268 L134.032,35.268 L134.032,35.268 Z" id="Shape" fill="#000000"></path>
                        <g transform="translate(12.000000, 6.000000)" id="Shape" fill="#FFFFFF">
                            <path d="M18.128,13.784 C18.099,10.561 20.767,8.993 20.889,8.92 C19.378,6.717 17.036,6.416 16.213,6.392 C14.246,6.185 12.338,7.569 11.336,7.569 C10.314,7.569 8.771,6.412 7.108,6.446 C4.968,6.479 2.966,7.718 1.868,9.642 C-0.398,13.565 1.292,19.33 3.463,22.501 C4.549,24.054 5.818,25.788 7.479,25.727 C9.104,25.66 9.711,24.691 11.672,24.691 C13.615,24.691 14.185,25.727 15.879,25.688 C17.623,25.66 18.721,24.128 19.769,22.561 C21.024,20.781 21.528,19.028 21.548,18.938 C21.507,18.924 18.161,17.647 18.128,13.784 L18.128,13.784 Z"></path>
                            <path d="M14.928,4.306 C15.802,3.213 16.4,1.726 16.234,0.217 C14.969,0.273 13.387,1.092 12.476,2.161 C11.67,3.103 10.95,4.647 11.136,6.099 C12.557,6.205 14.016,5.382 14.928,4.306 L14.928,4.306 Z"></path>
                        </g>
                        <g transform="translate(42.000000, 18.000000)" id="Shape" fill="#FFFFFF">
                            <path d="M11.645,13.504 L9.374,13.504 L8.13,9.595 L3.806,9.595 L2.621,13.504 L0.41,13.504 L4.694,0.196 L7.34,0.196 L11.645,13.504 L11.645,13.504 Z M7.755,7.955 L6.63,4.48 C6.511,4.125 6.288,3.289 5.959,1.973 L5.919,1.973 C5.788,2.539 5.577,3.375 5.287,4.48 L4.182,7.955 L7.755,7.955 L7.755,7.955 Z"></path>
                            <path d="M22.662,8.588 C22.662,10.22 22.221,11.51 21.339,12.457 C20.549,13.3 19.568,13.721 18.397,13.721 C17.133,13.721 16.225,13.267 15.672,12.359 L15.632,12.359 L15.632,17.414 L13.5,17.414 L13.5,7.067 C13.5,6.041 13.473,4.988 13.421,3.908 L15.296,3.908 L15.415,5.429 L15.455,5.429 C16.166,4.283 17.245,3.711 18.693,3.711 C19.825,3.711 20.77,4.158 21.526,5.053 C22.284,5.949 22.662,7.127 22.662,8.588 L22.662,8.588 Z M20.49,8.666 C20.49,7.732 20.28,6.962 19.858,6.356 C19.397,5.724 18.778,5.408 18.002,5.408 C17.476,5.408 16.998,5.584 16.571,5.931 C16.143,6.281 15.863,6.738 15.732,7.304 C15.666,7.568 15.633,7.784 15.633,7.954 L15.633,9.554 C15.633,10.252 15.847,10.841 16.275,11.322 C16.703,11.803 17.259,12.043 17.943,12.043 C18.746,12.043 19.371,11.733 19.818,11.115 C20.266,10.496 20.49,9.68 20.49,8.666 L20.49,8.666 Z"></path>
                            <path d="M33.699,8.588 C33.699,10.22 33.258,11.51 32.375,12.457 C31.586,13.3 30.605,13.721 29.434,13.721 C28.17,13.721 27.262,13.267 26.71,12.359 L26.67,12.359 L26.67,17.414 L24.538,17.414 L24.538,7.067 C24.538,6.041 24.511,4.988 24.459,3.908 L26.334,3.908 L26.453,5.429 L26.493,5.429 C27.203,4.283 28.282,3.711 29.731,3.711 C30.862,3.711 31.807,4.158 32.565,5.053 C33.32,5.949 33.699,7.127 33.699,8.588 L33.699,8.588 Z M31.527,8.666 C31.527,7.732 31.316,6.962 30.894,6.356 C30.433,5.724 29.816,5.408 29.039,5.408 C28.512,5.408 28.035,5.584 27.607,5.931 C27.179,6.281 26.9,6.738 26.769,7.304 C26.704,7.568 26.67,7.784 26.67,7.954 L26.67,9.554 C26.67,10.252 26.884,10.841 27.31,11.322 C27.738,11.802 28.294,12.043 28.98,12.043 C29.783,12.043 30.408,11.733 30.855,11.115 C31.303,10.496 31.527,9.68 31.527,8.666 L31.527,8.666 Z"></path>
                            <path d="M46.039,9.772 C46.039,10.904 45.646,11.825 44.857,12.536 C43.99,13.313 42.783,13.701 41.232,13.701 C39.8,13.701 38.652,13.425 37.783,12.872 L38.277,11.095 C39.213,11.661 40.24,11.945 41.359,11.945 C42.162,11.945 42.787,11.763 43.236,11.401 C43.683,11.039 43.906,10.553 43.906,9.947 C43.906,9.407 43.722,8.952 43.353,8.583 C42.986,8.214 42.373,7.871 41.517,7.554 C39.187,6.685 38.023,5.412 38.023,3.738 C38.023,2.644 38.431,1.747 39.248,1.049 C40.062,0.35 41.148,0.001 42.506,0.001 C43.717,0.001 44.723,0.212 45.526,0.633 L44.993,2.371 C44.243,1.963 43.395,1.759 42.446,1.759 C41.696,1.759 41.11,1.944 40.69,2.312 C40.335,2.641 40.157,3.042 40.157,3.517 C40.157,4.043 40.36,4.478 40.768,4.82 C41.123,5.136 41.768,5.478 42.704,5.847 C43.849,6.308 44.69,6.847 45.231,7.465 C45.77,8.081 46.039,8.852 46.039,9.772 L46.039,9.772 Z"></path>
                            <path d="M53.088,5.508 L50.738,5.508 L50.738,10.167 C50.738,11.352 51.152,11.944 51.982,11.944 C52.363,11.944 52.679,11.911 52.929,11.845 L52.988,13.464 C52.568,13.621 52.015,13.7 51.33,13.7 C50.488,13.7 49.83,13.443 49.355,12.93 C48.882,12.416 48.644,11.554 48.644,10.343 L48.644,5.506 L47.244,5.506 L47.244,3.906 L48.644,3.906 L48.644,2.149 L50.738,1.517 L50.738,3.906 L53.088,3.906 L53.088,5.508 L53.088,5.508 Z"></path>
                            <path d="M63.691,8.627 C63.691,10.102 63.269,11.313 62.427,12.26 C61.544,13.235 60.372,13.721 58.911,13.721 C57.503,13.721 56.382,13.254 55.546,12.32 C54.71,11.386 54.292,10.207 54.292,8.786 C54.292,7.299 54.722,6.081 55.585,5.134 C56.446,4.186 57.608,3.712 59.069,3.712 C60.477,3.712 61.61,4.179 62.465,5.114 C63.283,6.021 63.691,7.192 63.691,8.627 L63.691,8.627 Z M61.479,8.696 C61.479,7.811 61.29,7.052 60.907,6.419 C60.46,5.653 59.821,5.271 58.993,5.271 C58.136,5.271 57.485,5.654 57.038,6.419 C56.655,7.053 56.466,7.824 56.466,8.736 C56.466,9.621 56.655,10.38 57.038,11.012 C57.499,11.778 58.143,12.16 58.974,12.16 C59.788,12.16 60.427,11.77 60.888,10.992 C61.281,10.347 61.479,9.58 61.479,8.696 L61.479,8.696 Z"></path>
                            <path d="M70.621,5.783 C70.41,5.744 70.185,5.724 69.949,5.724 C69.199,5.724 68.619,6.007 68.211,6.574 C67.856,7.074 67.678,7.706 67.678,8.469 L67.678,13.504 L65.547,13.504 L65.567,6.93 C65.567,5.824 65.54,4.817 65.487,3.909 L67.344,3.909 L67.422,5.745 L67.481,5.745 C67.706,5.114 68.061,4.606 68.547,4.225 C69.022,3.882 69.535,3.711 70.088,3.711 C70.285,3.711 70.463,3.725 70.621,3.75 L70.621,5.783 L70.621,5.783 Z"></path>
                            <path d="M80.156,8.252 C80.156,8.634 80.131,8.956 80.078,9.219 L73.682,9.219 C73.707,10.167 74.016,10.892 74.61,11.392 C75.149,11.839 75.846,12.063 76.702,12.063 C77.649,12.063 78.513,11.912 79.29,11.609 L79.624,13.089 C78.716,13.485 77.644,13.682 76.407,13.682 C74.919,13.682 73.751,13.244 72.901,12.369 C72.053,11.494 71.628,10.319 71.628,8.845 C71.628,7.398 72.023,6.193 72.814,5.232 C73.642,4.206 74.761,3.693 76.169,3.693 C77.552,3.693 78.599,4.206 79.31,5.232 C79.873,6.047 80.156,7.055 80.156,8.252 L80.156,8.252 Z M78.123,7.699 C78.137,7.067 77.998,6.521 77.709,6.06 C77.34,5.467 76.773,5.171 76.01,5.171 C75.313,5.171 74.746,5.46 74.313,6.04 C73.958,6.501 73.747,7.054 73.682,7.698 L78.123,7.698 L78.123,7.699 Z"></path>
                        </g>
                        <g transform="translate(43.000000, 5.000000)" id="Shape" fill="#FFFFFF">
                            <polygon points="4.809 2.778 2.937 2.778 2.937 8.433 1.889 8.433 1.889 2.778 0.027 2.778 0.027 1.896 4.809 1.896"></polygon>
                            <path d="M8.073,8.433 L7.996,7.89 L7.967,7.89 C7.651,8.323 7.192,8.54 6.59,8.54 C6.376,8.54 6.183,8.504 6.008,8.433 C5.833,8.362 5.681,8.265 5.552,8.142 C5.422,8.019 5.323,7.874 5.251,7.705 C5.18,7.537 5.145,7.352 5.145,7.152 C5.145,6.564 5.384,6.122 5.863,5.828 C6.342,5.534 7.02,5.387 7.9,5.387 L7.9,5.3 C7.9,4.679 7.574,4.369 6.922,4.369 C6.457,4.369 6.047,4.486 5.693,4.718 L5.48,4.03 C5.913,3.759 6.452,3.623 7.097,3.623 C8.33,3.623 8.947,4.273 8.947,5.573 L8.947,7.309 C8.947,7.794 8.97,8.169 9.015,8.434 L8.073,8.434 L8.073,8.433 Z M7.927,6.086 C7.342,6.086 6.906,6.16 6.62,6.309 C6.334,6.458 6.191,6.701 6.191,7.037 C6.191,7.283 6.258,7.467 6.393,7.59 C6.528,7.713 6.699,7.774 6.905,7.774 C7.04,7.774 7.168,7.75 7.291,7.701 C7.413,7.653 7.52,7.586 7.613,7.502 C7.707,7.418 7.782,7.316 7.841,7.196 C7.899,7.076 7.927,6.949 7.927,6.813 L7.927,6.086 L7.927,6.086 Z M6.832,3.176 C6.857,3.066 6.901,2.972 6.963,2.895 C7.025,2.818 7.086,2.745 7.148,2.677 C7.21,2.609 7.262,2.543 7.308,2.478 C7.353,2.413 7.375,2.335 7.375,2.245 C7.375,2.148 7.345,2.07 7.283,2.012 C7.221,1.954 7.145,1.925 7.055,1.925 C6.951,1.925 6.862,1.959 6.787,2.027 C6.712,2.095 6.65,2.171 6.599,2.255 L6.23,2.031 C6.321,1.843 6.449,1.682 6.614,1.546 C6.778,1.41 6.99,1.342 7.249,1.342 C7.495,1.342 7.7,1.413 7.865,1.555 C8.03,1.698 8.112,1.882 8.112,2.108 C8.112,2.25 8.083,2.371 8.025,2.472 C7.966,2.572 7.899,2.664 7.821,2.748 C7.744,2.832 7.663,2.916 7.579,3 C7.495,3.084 7.424,3.185 7.365,3.301 L6.832,3.176 L6.832,3.176 Z"></path>
                            <path d="M11.649,2.312 C11.649,2.5 11.587,2.651 11.465,2.768 C11.342,2.885 11.184,2.943 10.989,2.943 C10.814,2.943 10.667,2.883 10.548,2.764 C10.428,2.644 10.368,2.494 10.368,2.313 C10.368,2.132 10.43,1.983 10.553,1.867 C10.676,1.751 10.827,1.692 11.009,1.692 C11.19,1.692 11.342,1.751 11.465,1.867 C11.587,1.982 11.649,2.131 11.649,2.312 L11.649,2.312 Z M11.533,8.433 L10.485,8.433 L10.485,3.719 L11.533,3.719 L11.533,8.433 L11.533,8.433 Z"></path>
                            <path d="M19.612,3.719 L17.827,8.433 L16.808,8.433 L15.081,3.719 L16.206,3.719 L17.012,6.212 C17.148,6.626 17.261,7.024 17.351,7.405 L17.38,7.405 C17.458,7.062 17.571,6.665 17.72,6.212 L18.515,3.719 L19.612,3.719 L19.612,3.719 Z"></path>
                            <path d="M24.399,5.853 C24.399,5.943 24.395,6.029 24.389,6.11 C24.382,6.191 24.372,6.264 24.36,6.328 L21.217,6.328 C21.23,6.774 21.37,7.119 21.639,7.361 C21.907,7.603 22.261,7.725 22.701,7.725 C23.16,7.725 23.584,7.651 23.972,7.502 L24.136,8.23 C23.69,8.424 23.163,8.521 22.555,8.521 C22.187,8.521 21.857,8.464 21.566,8.351 C21.275,8.238 21.029,8.078 20.829,7.871 C20.629,7.664 20.475,7.415 20.368,7.124 C20.262,6.833 20.209,6.507 20.209,6.145 C20.209,5.783 20.262,5.448 20.368,5.141 C20.475,4.834 20.626,4.567 20.819,4.341 C21.013,4.114 21.248,3.937 21.522,3.807 C21.797,3.678 22.103,3.613 22.439,3.613 C22.737,3.613 23.006,3.666 23.25,3.773 C23.492,3.879 23.699,4.031 23.87,4.229 C24.042,4.426 24.173,4.663 24.263,4.937 C24.353,5.211 24.399,5.517 24.399,5.853 L24.399,5.853 Z M22.789,1.73 L23.633,3.146 L22.896,3.146 L22.42,2.254 L22.4,2.254 L21.925,3.146 L21.207,3.146 L22.031,1.73 L22.789,1.73 L22.789,1.73 Z M23.399,5.582 C23.399,5.213 23.31,4.914 23.132,4.685 C22.954,4.456 22.698,4.34 22.362,4.34 C22.057,4.34 21.8,4.456 21.586,4.689 C21.373,4.922 21.25,5.219 21.218,5.582 L23.399,5.582 L23.399,5.582 Z M23.681,0.887 L24.311,2.225 L23.739,2.225 L22.799,0.887 L23.681,0.887 L23.681,0.887 Z"></path>
                            <path d="M30.529,4.504 L29.375,4.504 L29.375,6.794 C29.375,7.376 29.578,7.667 29.986,7.667 C30.174,7.667 30.328,7.651 30.451,7.618 L30.48,8.413 C30.273,8.491 30.001,8.53 29.666,8.53 C29.252,8.53 28.928,8.404 28.695,8.152 C28.463,7.9 28.345,7.476 28.345,6.881 L28.345,4.504 L27.657,4.504 L27.657,3.719 L28.345,3.719 L28.345,2.855 L29.374,2.545 L29.374,3.718 L30.528,3.718 L30.528,4.504 L30.529,4.504 Z"></path>
                            <path d="M34.225,4.641 C34.121,4.621 34.012,4.612 33.895,4.612 C33.526,4.612 33.243,4.751 33.041,5.029 C32.867,5.275 32.779,5.585 32.779,5.96 L32.779,8.434 L31.73,8.434 L31.74,5.204 C31.74,4.661 31.728,4.166 31.703,3.72 L32.613,3.72 L32.652,4.622 L32.681,4.622 C32.79,4.311 32.966,4.062 33.204,3.875 C33.438,3.707 33.69,3.623 33.962,3.623 C34.058,3.623 34.146,3.629 34.224,3.642 L34.224,4.641 L34.225,4.641 Z"></path>
                            <path d="M39.174,5.853 C39.174,5.943 39.17,6.029 39.164,6.11 C39.158,6.191 39.148,6.264 39.135,6.328 L35.992,6.328 C36.006,6.774 36.146,7.119 36.414,7.361 C36.682,7.603 37.037,7.725 37.476,7.725 C37.935,7.725 38.359,7.651 38.747,7.502 L38.911,8.23 C38.464,8.424 37.938,8.521 37.329,8.521 C36.962,8.521 36.632,8.464 36.341,8.351 C36.05,8.238 35.804,8.078 35.603,7.871 C35.404,7.664 35.249,7.415 35.142,7.124 C35.037,6.833 34.984,6.507 34.984,6.145 C34.984,5.783 35.037,5.448 35.142,5.141 C35.249,4.834 35.4,4.567 35.593,4.341 C35.788,4.114 36.023,3.937 36.296,3.807 C36.571,3.678 36.878,3.613 37.214,3.613 C37.511,3.613 37.78,3.666 38.025,3.773 C38.267,3.879 38.474,4.031 38.644,4.229 C38.816,4.426 38.947,4.663 39.037,4.937 C39.129,5.211 39.174,5.517 39.174,5.853 L39.174,5.853 Z M38.447,3.146 L37.718,3.146 L37.185,2.273 L37.165,2.273 L36.642,3.146 L35.923,3.146 L36.845,1.74 L37.515,1.74 L38.447,3.146 L38.447,3.146 Z M38.174,5.582 C38.174,5.213 38.086,4.914 37.908,4.685 C37.73,4.456 37.473,4.34 37.137,4.34 C36.832,4.34 36.575,4.456 36.362,4.689 C36.149,4.922 36.026,5.219 35.993,5.582 L38.174,5.582 L38.174,5.582 Z"></path>
                            <path d="M44.498,8.433 L43.451,8.433 L43.451,5.733 C43.451,4.901 43.135,4.485 42.5,4.485 C42.189,4.485 41.938,4.599 41.744,4.828 C41.55,5.057 41.453,5.327 41.453,5.636 L41.453,8.432 L40.404,8.432 L40.404,5.066 C40.404,4.652 40.392,4.203 40.367,3.717 L41.287,3.717 L41.336,4.454 L41.365,4.454 C41.488,4.225 41.67,4.036 41.908,3.885 C42.193,3.709 42.51,3.62 42.859,3.62 C43.298,3.62 43.664,3.762 43.955,4.047 C44.318,4.396 44.498,4.917 44.498,5.609 L44.498,8.433 L44.498,8.433 Z"></path>
                        </g>
                    </g>
                </g>
            </g>
        </g>
    </g>
</svg>