<?xml version="1.0" encoding="UTF-8" standalone="no"?>
<svg width="135px" height="40px" viewBox="0 0 135 40" version="1.1" xmlns="http://www.w3.org/2000/svg" xmlns:xlink="http://www.w3.org/1999/xlink">
    <!-- Generator: Sketch 39.1 (31720) - http://www.bohemiancoding.com/sketch -->
    <title>apple russian</title>
    <desc>Created with Sketch.</desc>
    <defs></defs>
    <g id="apps" stroke="none" stroke-width="1" fill="none" fill-rule="evenodd">
        <g id="localized-badges" transform="translate(-30.000000, -675.000000)">
            <g id="apple-russian" transform="translate(30.000000, 675.000000)">
                <g id="RU_Download_on_the">
                    <g id="Group">
                        <path d="M130.197,40 L4.729,40 C2.122,40 0,37.872 0,35.267 L0,4.726 C0,2.12 2.122,0 4.729,0 L130.197,0 C132.803,0 135,2.12 135,4.726 L135,35.267 C135,37.872 132.803,40 130.197,40 L130.197,40 L130.197,40 Z" id="Shape" fill="#DEDEDE"></path>
                        <path d="M134.032,35.268 C134.032,37.384 132.318,39.098 130.198,39.098 L4.729,39.098 C2.61,39.098 0.89,37.384 0.89,35.268 L0.89,4.725 C0.89,2.61 2.61,0.89 4.729,0.89 L130.197,0.89 C132.318,0.89 134.031,2.61 134.031,4.725 L134.032,35.268 L134.032,35.268 L134.032,35.268 Z" id="Shape" fill="#000000"></path>
                        <g transform="translate(12.000000, 6.000000)" id="Shape" fill="#FFFFFF">
                            <path d="M18.128,13.784 C18.099,10.561 20.767,8.993 20.889,8.92 C19.378,6.717 17.036,6.416 16.213,6.392 C14.246,6.185 12.338,7.569 11.336,7.569 C10.314,7.569 8.771,6.412 7.108,6.446 C4.968,6.479 2.966,7.718 1.868,9.642 C-0.398,13.565 1.292,19.33 3.463,22.501 C4.549,24.054 5.818,25.788 7.479,25.727 C9.104,25.66 9.711,24.691 11.672,24.691 C13.615,24.691 14.185,25.727 15.879,25.688 C17.623,25.66 18.721,24.128 19.769,22.561 C21.024,20.781 21.528,19.028 21.548,18.938 C21.507,18.924 18.161,17.647 18.128,13.784 L18.128,13.784 Z"></path>
                            <path d="M14.928,4.306 C15.802,3.213 16.4,1.726 16.234,0.217 C14.969,0.273 13.387,1.092 12.476,2.161 C11.67,3.103 10.95,4.647 11.136,6.099 C12.557,6.205 14.016,5.382 14.928,4.306 L14.928,4.306 Z"></path>
                        </g>
                        <g transform="translate(42.000000, 18.000000)" id="Shape" fill="#FFFFFF">
                            <path d="M11.645,13.504 L9.374,13.504 L8.13,9.595 L3.806,9.595 L2.621,13.504 L0.41,13.504 L4.694,0.196 L7.34,0.196 L11.645,13.504 L11.645,13.504 Z M7.755,7.955 L6.63,4.48 C6.511,4.125 6.288,3.289 5.959,1.973 L5.919,1.973 C5.788,2.539 5.577,3.375 5.287,4.48 L4.182,7.955 L7.755,7.955 L7.755,7.955 Z"></path>
                            <path d="M22.662,8.588 C22.662,10.22 22.221,11.51 21.339,12.457 C20.549,13.3 19.568,13.721 18.397,13.721 C17.133,13.721 16.225,13.267 15.672,12.359 L15.632,12.359 L15.632,17.414 L13.5,17.414 L13.5,7.067 C13.5,6.041 13.473,4.988 13.421,3.908 L15.296,3.908 L15.415,5.429 L15.455,5.429 C16.166,4.283 17.245,3.711 18.693,3.711 C19.825,3.711 20.77,4.158 21.526,5.053 C22.284,5.949 22.662,7.127 22.662,8.588 L22.662,8.588 Z M20.49,8.666 C20.49,7.732 20.28,6.962 19.858,6.356 C19.397,5.724 18.778,5.408 18.002,5.408 C17.476,5.408 16.998,5.584 16.571,5.931 C16.143,6.281 15.863,6.738 15.732,7.304 C15.666,7.568 15.633,7.784 15.633,7.954 L15.633,9.554 C15.633,10.252 15.847,10.841 16.275,11.322 C16.703,11.803 17.259,12.043 17.943,12.043 C18.746,12.043 19.371,11.733 19.818,11.115 C20.266,10.496 20.49,9.68 20.49,8.666 L20.49,8.666 Z"></path>
                            <path d="M33.699,8.588 C33.699,10.22 33.258,11.51 32.375,12.457 C31.586,13.3 30.605,13.721 29.434,13.721 C28.17,13.721 27.262,13.267 26.71,12.359 L26.67,12.359 L26.67,17.414 L24.538,17.414 L24.538,7.067 C24.538,6.041 24.511,4.988 24.459,3.908 L26.334,3.908 L26.453,5.429 L26.493,5.429 C27.203,4.283 28.282,3.711 29.731,3.711 C30.862,3.711 31.807,4.158 32.565,5.053 C33.32,5.949 33.699,7.127 33.699,8.588 L33.699,8.588 Z M31.527,8.666 C31.527,7.732 31.316,6.962 30.894,6.356 C30.433,5.724 29.816,5.408 29.039,5.408 C28.512,5.408 28.035,5.584 27.607,5.931 C27.179,6.281 26.9,6.738 26.769,7.304 C26.704,7.568 26.67,7.784 26.67,7.954 L26.67,9.554 C26.67,10.252 26.884,10.841 27.31,11.322 C27.738,11.802 28.294,12.043 28.98,12.043 C29.783,12.043 30.408,11.733 30.855,11.115 C31.303,10.496 31.527,9.68 31.527,8.666 L31.527,8.666 Z"></path>
                            <path d="M46.039,9.772 C46.039,10.904 45.646,11.825 44.857,12.536 C43.99,13.313 42.783,13.701 41.232,13.701 C39.8,13.701 38.652,13.425 37.783,12.872 L38.277,11.095 C39.213,11.661 40.24,11.945 41.359,11.945 C42.162,11.945 42.787,11.763 43.236,11.401 C43.683,11.039 43.906,10.553 43.906,9.947 C43.906,9.407 43.722,8.952 43.353,8.583 C42.986,8.214 42.373,7.871 41.517,7.554 C39.187,6.685 38.023,5.412 38.023,3.738 C38.023,2.644 38.431,1.747 39.248,1.049 C40.062,0.35 41.148,0.001 42.506,0.001 C43.717,0.001 44.723,0.212 45.526,0.633 L44.993,2.371 C44.243,1.963 43.395,1.759 42.446,1.759 C41.696,1.759 41.11,1.944 40.69,2.312 C40.335,2.641 40.157,3.042 40.157,3.517 C40.157,4.043 40.36,4.478 40.768,4.82 C41.123,5.136 41.768,5.478 42.704,5.847 C43.849,6.308 44.69,6.847 45.231,7.465 C45.77,8.081 46.039,8.852 46.039,9.772 L46.039,9.772 Z"></path>
                            <path d="M53.088,5.508 L50.738,5.508 L50.738,10.167 C50.738,11.352 51.152,11.944 51.982,11.944 C52.363,11.944 52.679,11.911 52.929,11.845 L52.988,13.464 C52.568,13.621 52.015,13.7 51.33,13.7 C50.488,13.7 49.83,13.443 49.355,12.93 C48.882,12.416 48.644,11.554 48.644,10.343 L48.644,5.506 L47.244,5.506 L47.244,3.906 L48.644,3.906 L48.644,2.149 L50.738,1.517 L50.738,3.906 L53.088,3.906 L53.088,5.508 L53.088,5.508 Z"></path>
                            <path d="M63.691,8.627 C63.691,10.102 63.269,11.313 62.427,12.26 C61.544,13.235 60.372,13.721 58.911,13.721 C57.503,13.721 56.382,13.254 55.546,12.32 C54.71,11.386 54.292,10.207 54.292,8.786 C54.292,7.299 54.722,6.081 55.585,5.134 C56.446,4.186 57.608,3.712 59.069,3.712 C60.477,3.712 61.61,4.179 62.465,5.114 C63.283,6.021 63.691,7.192 63.691,8.627 L63.691,8.627 Z M61.479,8.696 C61.479,7.811 61.29,7.052 60.907,6.419 C60.46,5.653 59.821,5.271 58.993,5.271 C58.136,5.271 57.485,5.654 57.038,6.419 C56.655,7.053 56.466,7.824 56.466,8.736 C56.466,9.621 56.655,10.38 57.038,11.012 C57.499,11.778 58.143,12.16 58.974,12.16 C59.788,12.16 60.427,11.77 60.888,10.992 C61.281,10.347 61.479,9.58 61.479,8.696 L61.479,8.696 Z"></path>
                            <path d="M70.621,5.783 C70.41,5.744 70.185,5.724 69.949,5.724 C69.199,5.724 68.619,6.007 68.211,6.574 C67.856,7.074 67.678,7.706 67.678,8.469 L67.678,13.504 L65.547,13.504 L65.567,6.93 C65.567,5.824 65.54,4.817 65.487,3.909 L67.344,3.909 L67.422,5.745 L67.481,5.745 C67.706,5.114 68.061,4.606 68.547,4.225 C69.022,3.882 69.535,3.711 70.088,3.711 C70.285,3.711 70.463,3.725 70.621,3.75 L70.621,5.783 L70.621,5.783 Z"></path>
                            <path d="M80.156,8.252 C80.156,8.634 80.131,8.956 80.078,9.219 L73.682,9.219 C73.707,10.167 74.016,10.892 74.61,11.392 C75.149,11.839 75.846,12.063 76.702,12.063 C77.649,12.063 78.513,11.912 79.29,11.609 L79.624,13.089 C78.716,13.485 77.644,13.682 76.407,13.682 C74.919,13.682 73.751,13.244 72.901,12.369 C72.053,11.494 71.628,10.319 71.628,8.845 C71.628,7.398 72.023,6.193 72.814,5.232 C73.642,4.206 74.761,3.693 76.169,3.693 C77.552,3.693 78.599,4.206 79.31,5.232 C79.873,6.047 80.156,7.055 80.156,8.252 L80.156,8.252 Z M78.123,7.699 C78.137,7.067 77.998,6.521 77.709,6.06 C77.34,5.467 76.773,5.171 76.01,5.171 C75.313,5.171 74.746,5.46 74.313,6.04 C73.958,6.501 73.747,7.054 73.682,7.698 L78.123,7.698 L78.123,7.699 Z"></path>
                        </g>
                        <g transform="translate(43.000000, 6.000000)" id="Shape" fill="#FFFFFF">
                            <path d="M0.424,1.273 C0.651,1.137 0.907,1.023 1.195,0.929 C1.482,0.835 1.82,0.788 2.209,0.788 C2.836,0.788 3.33,0.937 3.692,1.234 C4.054,1.531 4.235,1.932 4.235,2.437 C4.235,2.838 4.114,3.174 3.872,3.446 C3.63,3.718 3.32,3.899 2.945,3.989 L2.945,4.018 C3.152,4.051 3.348,4.107 3.532,4.188 C3.717,4.269 3.879,4.377 4.017,4.513 C4.156,4.649 4.266,4.807 4.347,4.989 C4.427,5.17 4.468,5.37 4.468,5.591 C4.468,5.953 4.395,6.257 4.249,6.503 C4.103,6.749 3.913,6.949 3.677,7.105 C3.442,7.26 3.178,7.372 2.887,7.439 C2.596,7.506 2.305,7.541 2.014,7.541 C1.703,7.541 1.396,7.508 1.092,7.444 C0.788,7.38 0.507,7.273 0.248,7.124 L0.51,6.319 C0.678,6.403 0.895,6.484 1.16,6.562 C1.425,6.64 1.693,6.678 1.965,6.678 C2.411,6.678 2.756,6.578 2.998,6.378 C3.24,6.177 3.362,5.909 3.362,5.573 C3.362,5.346 3.313,5.161 3.216,5.015 C3.118,4.869 2.992,4.755 2.837,4.67 C2.682,4.586 2.509,4.528 2.318,4.496 C2.127,4.464 1.938,4.447 1.751,4.447 L1.314,4.447 L1.314,3.65 L1.751,3.65 C1.951,3.65 2.137,3.625 2.309,3.572 C2.48,3.521 2.629,3.448 2.755,3.354 C2.881,3.26 2.98,3.148 3.051,3.019 C3.121,2.89 3.157,2.744 3.157,2.582 C3.157,2.291 3.053,2.063 2.846,1.898 C2.639,1.733 2.361,1.65 2.012,1.65 C1.773,1.65 1.533,1.689 1.294,1.766 C1.055,1.844 0.841,1.928 0.653,2.018 L0.424,1.273 L0.424,1.273 Z"></path>
                            <path d="M8.755,7.433 L8.678,6.89 L8.649,6.89 C8.333,7.323 7.874,7.54 7.272,7.54 C7.058,7.54 6.865,7.504 6.69,7.433 C6.515,7.362 6.363,7.265 6.234,7.142 C6.104,7.019 6.005,6.874 5.933,6.705 C5.862,6.537 5.827,6.352 5.827,6.152 C5.827,5.564 6.066,5.122 6.545,4.828 C7.024,4.534 7.702,4.387 8.582,4.387 L8.582,4.3 C8.582,3.679 8.256,3.369 7.604,3.369 C7.139,3.369 6.729,3.486 6.375,3.718 L6.162,3.03 C6.595,2.759 7.134,2.623 7.779,2.623 C9.012,2.623 9.629,3.273 9.629,4.573 L9.629,6.309 C9.629,6.794 9.652,7.169 9.697,7.434 L8.755,7.434 L8.755,7.433 Z M8.61,5.086 C8.025,5.086 7.589,5.16 7.303,5.309 C7.017,5.458 6.874,5.701 6.874,6.037 C6.874,6.283 6.941,6.467 7.076,6.59 C7.211,6.713 7.382,6.774 7.588,6.774 C7.723,6.774 7.851,6.75 7.974,6.701 C8.096,6.653 8.203,6.586 8.296,6.502 C8.39,6.418 8.465,6.316 8.524,6.196 C8.582,6.076 8.61,5.949 8.61,5.813 L8.61,5.086 L8.61,5.086 Z"></path>
                            <polygon points="14.683 2.719 14.683 3.582 12.723 3.582 12.723 7.433 11.676 7.433 11.676 2.719"></polygon>
                            <path d="M20.677,5.018 C20.677,5.393 20.625,5.736 20.522,6.046 C20.418,6.357 20.275,6.622 20.09,6.841 C19.906,7.061 19.686,7.233 19.431,7.355 C19.175,7.478 18.893,7.54 18.582,7.54 C17.961,7.54 17.515,7.317 17.243,6.871 L17.223,6.871 L17.223,9.354 L16.175,9.354 L16.175,4.271 C16.175,4.019 16.172,3.765 16.165,3.509 C16.159,3.254 16.149,2.99 16.137,2.718 L17.058,2.718 L17.117,3.465 L17.137,3.465 C17.486,2.903 18.016,2.621 18.728,2.621 C19.005,2.621 19.263,2.679 19.499,2.795 C19.735,2.912 19.94,3.075 20.115,3.285 C20.29,3.495 20.427,3.747 20.527,4.042 C20.627,4.337 20.677,4.662 20.677,5.018 L20.677,5.018 Z M19.611,5.057 C19.611,4.824 19.583,4.609 19.528,4.412 C19.473,4.215 19.392,4.047 19.286,3.908 C19.18,3.769 19.05,3.659 18.898,3.578 C18.746,3.497 18.576,3.457 18.388,3.457 C18.24,3.457 18.094,3.49 17.951,3.554 C17.808,3.618 17.684,3.706 17.578,3.816 C17.471,3.926 17.386,4.059 17.321,4.214 C17.256,4.369 17.223,4.534 17.223,4.709 L17.223,5.495 C17.223,5.669 17.25,5.831 17.306,5.98 C17.361,6.129 17.438,6.258 17.538,6.368 C17.638,6.478 17.758,6.564 17.897,6.625 C18.036,6.687 18.189,6.717 18.357,6.717 C18.752,6.717 19.059,6.567 19.279,6.266 C19.499,5.965 19.611,5.561 19.611,5.057 L19.611,5.057 Z"></path>
                            <path d="M26.305,2.719 L25.111,5.988 C24.827,6.764 24.55,7.399 24.282,7.894 C24.013,8.389 23.757,8.749 23.511,8.976 C23.149,9.299 22.764,9.497 22.356,9.567 L22.104,8.685 C22.375,8.614 22.634,8.475 22.88,8.268 C23.125,8.061 23.322,7.803 23.472,7.492 C23.524,7.389 23.549,7.318 23.549,7.279 C23.549,7.24 23.529,7.166 23.491,7.056 L21.783,2.72 L22.937,2.72 L23.83,5.349 C23.876,5.472 23.921,5.611 23.966,5.766 C24.012,5.921 24.06,6.093 24.112,6.28 L24.132,6.28 C24.164,6.176 24.2,6.046 24.238,5.887 C24.277,5.729 24.329,5.546 24.393,5.339 L25.189,2.72 L26.305,2.72 L26.305,2.719 Z"></path>
                            <path d="M28.119,4.678 L28.603,4.678 C28.958,4.678 29.234,4.614 29.427,4.484 C29.62,4.354 29.718,4.196 29.718,4.008 C29.718,3.814 29.636,3.659 29.47,3.543 C29.306,3.427 29.077,3.368 28.786,3.368 C28.598,3.368 28.409,3.399 28.22,3.46 C28.029,3.522 27.853,3.598 27.691,3.688 L27.42,3.01 C27.691,2.862 27.961,2.76 28.231,2.705 C28.499,2.65 28.768,2.622 29.04,2.622 C29.255,2.622 29.47,2.643 29.686,2.685 C29.901,2.727 30.094,2.798 30.262,2.898 C30.43,2.998 30.569,3.129 30.674,3.291 C30.781,3.453 30.834,3.653 30.834,3.893 C30.834,4.042 30.805,4.173 30.746,4.286 C30.689,4.399 30.611,4.499 30.514,4.586 C30.418,4.673 30.309,4.745 30.19,4.799 C30.071,4.854 29.948,4.895 29.827,4.921 L29.827,4.95 C29.981,4.97 30.132,5.009 30.278,5.067 C30.423,5.125 30.553,5.201 30.671,5.295 C30.786,5.389 30.88,5.502 30.952,5.634 C31.022,5.767 31.057,5.917 31.057,6.085 C31.057,6.363 30.991,6.596 30.854,6.783 C30.719,6.971 30.545,7.119 30.334,7.229 C30.125,7.339 29.893,7.418 29.641,7.467 C29.389,7.515 29.143,7.54 28.905,7.54 C28.614,7.54 28.325,7.509 28.042,7.448 C27.757,7.386 27.501,7.291 27.274,7.162 L27.547,6.473 C27.715,6.564 27.906,6.64 28.123,6.701 C28.34,6.762 28.561,6.793 28.787,6.793 C29.142,6.793 29.416,6.724 29.607,6.585 C29.796,6.446 29.892,6.273 29.892,6.066 C29.892,5.93 29.861,5.816 29.796,5.722 C29.731,5.628 29.64,5.552 29.525,5.494 C29.408,5.436 29.273,5.395 29.117,5.373 C28.963,5.35 28.793,5.339 28.613,5.339 L28.119,5.339 L28.119,4.678 L28.119,4.678 Z"></path>
                            <path d="M33.715,2.719 L33.715,4.387 C33.715,4.769 33.709,5.112 33.695,5.415 C33.681,5.719 33.666,6.039 33.646,6.375 L33.666,6.394 C33.789,6.148 33.91,5.908 34.029,5.671 C34.15,5.435 34.271,5.194 34.394,4.948 L35.558,2.717 L36.915,2.717 L36.915,7.431 L35.925,7.431 L35.925,5.763 C35.925,5.414 35.935,5.065 35.95,4.716 C35.966,4.366 35.983,4.014 36.003,3.658 L35.954,3.658 C35.845,3.949 35.735,4.201 35.624,4.415 C35.515,4.628 35.405,4.848 35.296,5.075 C35.095,5.463 34.896,5.851 34.698,6.239 C34.501,6.627 34.292,7.025 34.073,7.432 L32.716,7.432 L32.716,2.719 L33.715,2.719 L33.715,2.719 Z"></path>
                            <polygon points="42.445 2.719 42.445 3.582 41.01 3.582 41.01 7.433 39.98 7.433 39.98 3.582 38.554 3.582 38.554 2.719"></polygon>
                            <path d="M47.789,4.853 C47.789,4.943 47.785,5.029 47.779,5.11 C47.773,5.191 47.763,5.264 47.75,5.328 L44.607,5.328 C44.621,5.774 44.761,6.119 45.029,6.361 C45.297,6.603 45.652,6.725 46.091,6.725 C46.55,6.725 46.974,6.651 47.362,6.502 L47.526,7.23 C47.079,7.424 46.553,7.521 45.944,7.521 C45.577,7.521 45.247,7.464 44.956,7.351 C44.665,7.238 44.419,7.078 44.218,6.871 C44.019,6.664 43.864,6.415 43.757,6.124 C43.652,5.833 43.599,5.507 43.599,5.145 C43.599,4.783 43.652,4.448 43.757,4.141 C43.864,3.834 44.015,3.567 44.208,3.341 C44.403,3.114 44.638,2.937 44.911,2.807 C45.186,2.678 45.493,2.613 45.829,2.613 C46.126,2.613 46.395,2.666 46.64,2.773 C46.882,2.879 47.089,3.031 47.259,3.229 C47.431,3.426 47.562,3.663 47.652,3.937 C47.744,4.211 47.789,4.517 47.789,4.853 L47.789,4.853 Z M46.789,4.582 C46.789,4.213 46.701,3.914 46.523,3.685 C46.345,3.456 46.088,3.34 45.752,3.34 C45.447,3.34 45.19,3.456 44.977,3.689 C44.764,3.922 44.641,4.219 44.608,4.582 L46.789,4.582 L46.789,4.582 Z"></path>
                            <path d="M52.01,2.758 C52.198,2.726 52.436,2.7 52.727,2.68 C53.018,2.66 53.315,2.651 53.62,2.651 C53.813,2.651 54.032,2.663 54.274,2.685 C54.516,2.707 54.749,2.759 54.967,2.84 C55.188,2.921 55.371,3.042 55.52,3.204 C55.669,3.366 55.745,3.585 55.745,3.863 C55.745,4.006 55.718,4.134 55.667,4.246 C55.614,4.359 55.546,4.458 55.458,4.542 C55.37,4.626 55.27,4.696 55.157,4.75 C55.044,4.805 54.927,4.846 54.803,4.871 L54.813,4.9 C55.155,4.958 55.434,5.081 55.647,5.269 C55.86,5.457 55.967,5.715 55.967,6.045 C55.967,6.375 55.875,6.637 55.696,6.831 C55.514,7.025 55.292,7.171 55.026,7.268 C54.76,7.365 54.481,7.427 54.186,7.453 C53.893,7.478 53.629,7.492 53.397,7.492 C53.137,7.492 52.883,7.486 52.635,7.472 C52.385,7.459 52.178,7.446 52.01,7.433 L52.01,2.758 L52.01,2.758 Z M53.018,4.64 L53.551,4.64 C53.713,4.64 53.867,4.629 54.012,4.606 C54.158,4.584 54.285,4.548 54.395,4.5 C54.506,4.451 54.59,4.387 54.653,4.306 C54.714,4.225 54.745,4.127 54.745,4.01 C54.745,3.797 54.657,3.64 54.477,3.54 C54.299,3.44 54.02,3.39 53.639,3.39 C53.53,3.39 53.434,3.393 53.352,3.4 C53.272,3.406 53.161,3.416 53.018,3.429 L53.018,4.64 L53.018,4.64 Z M53.018,6.725 C53.147,6.738 53.256,6.747 53.342,6.754 C53.43,6.761 53.531,6.764 53.649,6.764 C53.792,6.764 53.936,6.755 54.085,6.735 C54.233,6.716 54.37,6.679 54.493,6.624 C54.616,6.57 54.714,6.496 54.788,6.402 C54.862,6.309 54.901,6.185 54.901,6.031 C54.901,5.761 54.78,5.575 54.542,5.472 C54.302,5.369 53.98,5.318 53.571,5.318 L53.018,5.318 L53.018,6.725 L53.018,6.725 Z"></path>
                        </g>
                    </g>
                </g>
            </g>
        </g>
    </g>
</svg>