<?xml version="1.0" encoding="UTF-8" standalone="no"?>
<svg width="135px" height="40px" viewBox="0 0 135 40" version="1.1" xmlns="http://www.w3.org/2000/svg" xmlns:xlink="http://www.w3.org/1999/xlink">
    <!-- Generator: Sketch 39.1 (31720) - http://www.bohemiancoding.com/sketch -->
    <title>apple spanish</title>
    <desc>Created with Sketch.</desc>
    <defs></defs>
    <g id="apps" stroke="none" stroke-width="1" fill="none" fill-rule="evenodd">
        <g id="localized-badges" transform="translate(-30.000000, -820.000000)">
            <g id="apple-spanish" transform="translate(30.000000, 820.000000)">
                <g id="ES_Download_on_the">
                    <g id="Group">
                        <path d="M130.197,40 L4.729,40 C2.122,40 0,37.872 0,35.267 L0,4.726 C0,2.12 2.122,0 4.729,0 L130.197,0 C132.803,0 135,2.12 135,4.726 L135,35.267 C135,37.872 132.803,40 130.197,40 L130.197,40 L130.197,40 Z" id="Shape" fill="#DEDEDE"></path>
                        <path d="M134.032,35.268 C134.032,37.384 132.318,39.098 130.198,39.098 L4.729,39.098 C2.61,39.098 0.89,37.384 0.89,35.268 L0.89,4.725 C0.89,2.61 2.61,0.89 4.729,0.89 L130.197,0.89 C132.318,0.89 134.031,2.61 134.031,4.725 L134.032,35.268 L134.032,35.268 L134.032,35.268 Z" id="Shape" fill="#000000"></path>
                        <g transform="translate(12.000000, 6.000000)" id="Shape" fill="#FFFFFF">
                            <path d="M18.128,13.784 C18.099,10.561 20.767,8.993 20.889,8.92 C19.378,6.717 17.036,6.416 16.213,6.392 C14.246,6.185 12.338,7.569 11.336,7.569 C10.314,7.569 8.771,6.412 7.108,6.446 C4.968,6.479 2.966,7.718 1.868,9.642 C-0.398,13.565 1.292,19.33 3.463,22.501 C4.549,24.054 5.818,25.788 7.479,25.727 C9.104,25.66 9.711,24.691 11.672,24.691 C13.615,24.691 14.185,25.727 15.879,25.688 C17.623,25.66 18.721,24.128 19.769,22.561 C21.024,20.781 21.528,19.028 21.548,18.938 C21.507,18.924 18.161,17.647 18.128,13.784 L18.128,13.784 Z"></path>
                            <path d="M14.928,4.306 C15.802,3.213 16.4,1.726 16.234,0.217 C14.969,0.273 13.387,1.092 12.476,2.161 C11.67,3.103 10.95,4.647 11.136,6.099 C12.557,6.205 14.016,5.382 14.928,4.306 L14.928,4.306 Z"></path>
                        </g>
                        <g transform="translate(42.000000, 18.000000)" id="Shape" fill="#FFFFFF">
                            <path d="M11.645,13.504 L9.374,13.504 L8.13,9.595 L3.806,9.595 L2.621,13.504 L0.41,13.504 L4.694,0.196 L7.34,0.196 L11.645,13.504 L11.645,13.504 Z M7.755,7.955 L6.63,4.48 C6.511,4.125 6.288,3.289 5.959,1.973 L5.919,1.973 C5.788,2.539 5.577,3.375 5.287,4.48 L4.182,7.955 L7.755,7.955 L7.755,7.955 Z"></path>
                            <path d="M22.662,8.588 C22.662,10.22 22.221,11.51 21.339,12.457 C20.549,13.3 19.568,13.721 18.397,13.721 C17.133,13.721 16.225,13.267 15.672,12.359 L15.632,12.359 L15.632,17.414 L13.5,17.414 L13.5,7.067 C13.5,6.041 13.473,4.988 13.421,3.908 L15.296,3.908 L15.415,5.429 L15.455,5.429 C16.166,4.283 17.245,3.711 18.693,3.711 C19.825,3.711 20.77,4.158 21.526,5.053 C22.284,5.949 22.662,7.127 22.662,8.588 L22.662,8.588 Z M20.49,8.666 C20.49,7.732 20.28,6.962 19.858,6.356 C19.397,5.724 18.778,5.408 18.002,5.408 C17.476,5.408 16.998,5.584 16.571,5.931 C16.143,6.281 15.863,6.738 15.732,7.304 C15.666,7.568 15.633,7.784 15.633,7.954 L15.633,9.554 C15.633,10.252 15.847,10.841 16.275,11.322 C16.703,11.803 17.259,12.043 17.943,12.043 C18.746,12.043 19.371,11.733 19.818,11.115 C20.266,10.496 20.49,9.68 20.49,8.666 L20.49,8.666 Z"></path>
                            <path d="M33.699,8.588 C33.699,10.22 33.258,11.51 32.375,12.457 C31.586,13.3 30.605,13.721 29.434,13.721 C28.17,13.721 27.262,13.267 26.71,12.359 L26.67,12.359 L26.67,17.414 L24.538,17.414 L24.538,7.067 C24.538,6.041 24.511,4.988 24.459,3.908 L26.334,3.908 L26.453,5.429 L26.493,5.429 C27.203,4.283 28.282,3.711 29.731,3.711 C30.862,3.711 31.807,4.158 32.565,5.053 C33.32,5.949 33.699,7.127 33.699,8.588 L33.699,8.588 Z M31.527,8.666 C31.527,7.732 31.316,6.962 30.894,6.356 C30.433,5.724 29.816,5.408 29.039,5.408 C28.512,5.408 28.035,5.584 27.607,5.931 C27.179,6.281 26.9,6.738 26.769,7.304 C26.704,7.568 26.67,7.784 26.67,7.954 L26.67,9.554 C26.67,10.252 26.884,10.841 27.31,11.322 C27.738,11.802 28.294,12.043 28.98,12.043 C29.783,12.043 30.408,11.733 30.855,11.115 C31.303,10.496 31.527,9.68 31.527,8.666 L31.527,8.666 Z"></path>
                            <path d="M46.039,9.772 C46.039,10.904 45.646,11.825 44.857,12.536 C43.99,13.313 42.783,13.701 41.232,13.701 C39.8,13.701 38.652,13.425 37.783,12.872 L38.277,11.095 C39.213,11.661 40.24,11.945 41.359,11.945 C42.162,11.945 42.787,11.763 43.236,11.401 C43.683,11.039 43.906,10.553 43.906,9.947 C43.906,9.407 43.722,8.952 43.353,8.583 C42.986,8.214 42.373,7.871 41.517,7.554 C39.187,6.685 38.023,5.412 38.023,3.738 C38.023,2.644 38.431,1.747 39.248,1.049 C40.062,0.35 41.148,0.001 42.506,0.001 C43.717,0.001 44.723,0.212 45.526,0.633 L44.993,2.371 C44.243,1.963 43.395,1.759 42.446,1.759 C41.696,1.759 41.11,1.944 40.69,2.312 C40.335,2.641 40.157,3.042 40.157,3.517 C40.157,4.043 40.36,4.478 40.768,4.82 C41.123,5.136 41.768,5.478 42.704,5.847 C43.849,6.308 44.69,6.847 45.231,7.465 C45.77,8.081 46.039,8.852 46.039,9.772 L46.039,9.772 Z"></path>
                            <path d="M53.088,5.508 L50.738,5.508 L50.738,10.167 C50.738,11.352 51.152,11.944 51.982,11.944 C52.363,11.944 52.679,11.911 52.929,11.845 L52.988,13.464 C52.568,13.621 52.015,13.7 51.33,13.7 C50.488,13.7 49.83,13.443 49.355,12.93 C48.882,12.416 48.644,11.554 48.644,10.343 L48.644,5.506 L47.244,5.506 L47.244,3.906 L48.644,3.906 L48.644,2.149 L50.738,1.517 L50.738,3.906 L53.088,3.906 L53.088,5.508 L53.088,5.508 Z"></path>
                            <path d="M63.691,8.627 C63.691,10.102 63.269,11.313 62.427,12.26 C61.544,13.235 60.372,13.721 58.911,13.721 C57.503,13.721 56.382,13.254 55.546,12.32 C54.71,11.386 54.292,10.207 54.292,8.786 C54.292,7.299 54.722,6.081 55.585,5.134 C56.446,4.186 57.608,3.712 59.069,3.712 C60.477,3.712 61.61,4.179 62.465,5.114 C63.283,6.021 63.691,7.192 63.691,8.627 L63.691,8.627 Z M61.479,8.696 C61.479,7.811 61.29,7.052 60.907,6.419 C60.46,5.653 59.821,5.271 58.993,5.271 C58.136,5.271 57.485,5.654 57.038,6.419 C56.655,7.053 56.466,7.824 56.466,8.736 C56.466,9.621 56.655,10.38 57.038,11.012 C57.499,11.778 58.143,12.16 58.974,12.16 C59.788,12.16 60.427,11.77 60.888,10.992 C61.281,10.347 61.479,9.58 61.479,8.696 L61.479,8.696 Z"></path>
                            <path d="M70.621,5.783 C70.41,5.744 70.185,5.724 69.949,5.724 C69.199,5.724 68.619,6.007 68.211,6.574 C67.856,7.074 67.678,7.706 67.678,8.469 L67.678,13.504 L65.547,13.504 L65.567,6.93 C65.567,5.824 65.54,4.817 65.487,3.909 L67.344,3.909 L67.422,5.745 L67.481,5.745 C67.706,5.114 68.061,4.606 68.547,4.225 C69.022,3.882 69.535,3.711 70.088,3.711 C70.285,3.711 70.463,3.725 70.621,3.75 L70.621,5.783 L70.621,5.783 Z"></path>
                            <path d="M80.156,8.252 C80.156,8.634 80.131,8.956 80.078,9.219 L73.682,9.219 C73.707,10.167 74.016,10.892 74.61,11.392 C75.149,11.839 75.846,12.063 76.702,12.063 C77.649,12.063 78.513,11.912 79.29,11.609 L79.624,13.089 C78.716,13.485 77.644,13.682 76.407,13.682 C74.919,13.682 73.751,13.244 72.901,12.369 C72.053,11.494 71.628,10.319 71.628,8.845 C71.628,7.398 72.023,6.193 72.814,5.232 C73.642,4.206 74.761,3.693 76.169,3.693 C77.552,3.693 78.599,4.206 79.31,5.232 C79.873,6.047 80.156,7.055 80.156,8.252 L80.156,8.252 Z M78.123,7.699 C78.137,7.067 77.998,6.521 77.709,6.06 C77.34,5.467 76.773,5.171 76.01,5.171 C75.313,5.171 74.746,5.46 74.313,6.04 C73.958,6.501 73.747,7.054 73.682,7.698 L78.123,7.698 L78.123,7.699 Z"></path>
                        </g>
                        <g transform="translate(43.000000, 6.000000)" id="Shape" fill="#FFFFFF">
                            <path d="M5.236,1.077 L5.003,1.914 C4.641,1.746 4.228,1.662 3.762,1.662 C3.057,1.662 2.497,1.876 2.083,2.305 C1.644,2.753 1.424,3.38 1.424,4.184 C1.424,4.956 1.628,5.562 2.035,6 C2.442,6.438 3.008,6.657 3.732,6.657 C4.243,6.657 4.672,6.576 5.022,6.414 L5.207,7.242 C4.818,7.428 4.266,7.52 3.548,7.52 C2.566,7.52 1.786,7.232 1.21,6.657 C0.615,6.062 0.318,5.254 0.318,4.232 C0.318,3.185 0.641,2.344 1.288,1.71 C1.915,1.103 2.726,0.798 3.723,0.798 C4.381,0.798 4.886,0.891 5.236,1.077 L5.236,1.077 Z"></path>
                            <path d="M11.027,5.037 C11.027,5.762 10.82,6.356 10.406,6.822 C9.972,7.301 9.397,7.54 8.679,7.54 C7.987,7.54 7.436,7.311 7.025,6.851 C6.615,6.392 6.41,5.813 6.41,5.115 C6.41,4.385 6.621,3.786 7.045,3.321 C7.469,2.856 8.039,2.623 8.757,2.623 C9.449,2.623 10.005,2.852 10.426,3.311 C10.826,3.757 11.027,4.333 11.027,5.037 L11.027,5.037 Z M9.94,5.071 C9.94,4.636 9.846,4.263 9.659,3.952 C9.439,3.576 9.126,3.388 8.719,3.388 C8.298,3.388 7.978,3.576 7.758,3.952 C7.57,4.263 7.477,4.642 7.477,5.09 C7.477,5.525 7.571,5.898 7.758,6.209 C7.985,6.585 8.301,6.773 8.709,6.773 C9.109,6.773 9.423,6.582 9.649,6.199 C9.843,5.882 9.94,5.506 9.94,5.071 L9.94,5.071 Z"></path>
                            <path d="M16.662,7.433 L15.614,7.433 L15.614,4.733 C15.614,3.901 15.298,3.485 14.664,3.485 C14.353,3.485 14.102,3.599 13.907,3.828 C13.714,4.057 13.616,4.327 13.616,4.636 L13.616,7.432 L12.568,7.432 L12.568,4.066 C12.568,3.652 12.555,3.203 12.53,2.717 L13.451,2.717 L13.5,3.456 L13.529,3.456 C13.651,3.227 13.833,3.038 14.072,2.887 C14.356,2.711 14.674,2.622 15.022,2.622 C15.462,2.622 15.828,2.764 16.119,3.049 C16.481,3.398 16.662,3.919 16.662,4.611 L16.662,7.433 L16.662,7.433 Z"></path>
                            <path d="M21.386,6.079 C21.386,6.517 21.225,6.869 20.902,7.134 C20.579,7.399 20.132,7.531 19.563,7.531 C19.026,7.531 18.571,7.424 18.196,7.211 L18.419,6.435 C18.781,6.655 19.166,6.765 19.573,6.765 C20.11,6.765 20.378,6.568 20.378,6.173 C20.378,5.999 20.32,5.855 20.204,5.741 C20.087,5.628 19.88,5.516 19.583,5.407 C18.742,5.096 18.322,4.644 18.322,4.049 C18.322,3.642 18.477,3.302 18.787,3.03 C19.098,2.759 19.509,2.623 20.019,2.623 C20.485,2.623 20.882,2.718 21.212,2.908 L20.989,3.66 C20.685,3.479 20.365,3.389 20.029,3.389 C19.809,3.389 19.637,3.441 19.514,3.544 C19.392,3.648 19.33,3.779 19.33,3.941 C19.33,4.102 19.394,4.234 19.523,4.337 C19.633,4.434 19.846,4.54 20.164,4.656 C20.979,4.966 21.386,5.44 21.386,6.079 L21.386,6.079 Z"></path>
                            <path d="M23.996,7.433 L22.948,7.433 L22.948,2.719 L23.996,2.719 L23.996,7.433 L23.996,7.433 Z M24.898,0.74 L23.724,2.146 L22.996,2.146 L23.83,0.74 L24.898,0.74 L24.898,0.74 Z"></path>
                            <path d="M29.99,2.719 C29.963,3.101 29.951,3.547 29.951,4.058 L29.951,6.754 C29.951,7.769 29.724,8.481 29.271,8.888 C28.857,9.263 28.275,9.45 27.525,9.45 C26.873,9.45 26.345,9.327 25.944,9.081 L26.187,8.276 C26.582,8.515 27.027,8.635 27.525,8.635 C28.451,8.635 28.912,8.137 28.912,7.141 L28.912,6.685 L28.892,6.685 C28.601,7.164 28.14,7.403 27.505,7.403 C26.937,7.403 26.468,7.187 26.099,6.753 C25.73,6.32 25.547,5.77 25.547,5.104 C25.547,4.348 25.76,3.736 26.187,3.271 C26.582,2.838 27.062,2.621 27.632,2.621 C28.273,2.621 28.732,2.87 29.009,3.368 L29.029,3.368 L29.068,2.718 L29.99,2.718 L29.99,2.719 Z M28.902,5.416 L28.902,4.582 C28.902,4.265 28.804,3.994 28.605,3.767 C28.408,3.54 28.146,3.428 27.822,3.428 C27.465,3.428 27.17,3.576 26.939,3.874 C26.709,4.172 26.593,4.569 26.593,5.067 C26.593,5.52 26.7,5.885 26.915,6.163 C27.136,6.467 27.438,6.619 27.821,6.619 C28.053,6.619 28.264,6.55 28.448,6.411 C28.634,6.272 28.766,6.083 28.843,5.844 C28.883,5.726 28.902,5.583 28.902,5.416 L28.902,5.416 Z"></path>
                            <path d="M35.887,7.433 L34.965,7.433 L34.906,6.715 L34.886,6.715 C34.556,7.265 34.058,7.54 33.392,7.54 C32.927,7.54 32.556,7.394 32.277,7.103 C31.947,6.747 31.783,6.21 31.783,5.493 L31.783,2.719 L32.83,2.719 L32.83,5.319 C32.83,6.225 33.141,6.677 33.762,6.677 C34.229,6.677 34.551,6.451 34.733,5.998 C34.778,5.882 34.801,5.749 34.801,5.6 L34.801,2.719 L35.848,2.719 L35.848,6.075 C35.848,6.521 35.861,6.974 35.887,7.433 L35.887,7.433 Z"></path>
                            <path d="M41.592,4.853 C41.592,5.041 41.578,5.199 41.553,5.328 L38.41,5.328 C38.422,5.794 38.574,6.149 38.865,6.395 C39.131,6.615 39.472,6.725 39.892,6.725 C40.359,6.725 40.783,6.651 41.163,6.502 L41.327,7.23 C40.882,7.424 40.354,7.521 39.747,7.521 C39.017,7.521 38.442,7.306 38.024,6.876 C37.608,6.446 37.399,5.869 37.399,5.145 C37.399,4.434 37.592,3.842 37.981,3.37 C38.389,2.866 38.938,2.614 39.629,2.614 C40.309,2.614 40.822,2.866 41.172,3.37 C41.451,3.77 41.592,4.265 41.592,4.853 L41.592,4.853 Z M40.592,4.582 C40.598,4.271 40.53,4.003 40.389,3.777 C40.207,3.485 39.93,3.34 39.555,3.34 C39.211,3.34 38.934,3.482 38.719,3.767 C38.545,3.994 38.442,4.265 38.41,4.582 L40.592,4.582 L40.592,4.582 Z"></path>
                            <polygon points="44.16 7.433 43.113 7.433 43.113 0.556 44.16 0.556"></polygon>
                            <path d="M50.33,5.037 C50.33,5.762 50.123,6.356 49.709,6.822 C49.275,7.301 48.699,7.54 47.982,7.54 C47.289,7.54 46.738,7.311 46.328,6.851 C45.918,6.392 45.713,5.813 45.713,5.115 C45.713,4.385 45.924,3.786 46.348,3.321 C46.772,2.856 47.342,2.623 48.059,2.623 C48.752,2.623 49.307,2.852 49.729,3.311 C50.129,3.757 50.33,4.333 50.33,5.037 L50.33,5.037 Z M49.242,5.071 C49.242,4.636 49.148,4.263 48.961,3.952 C48.742,3.576 48.428,3.388 48.022,3.388 C47.6,3.388 47.28,3.576 47.061,3.952 C46.873,4.263 46.78,4.642 46.78,5.09 C46.78,5.525 46.874,5.898 47.061,6.209 C47.288,6.585 47.604,6.773 48.012,6.773 C48.412,6.773 48.725,6.582 48.951,6.199 C49.146,5.882 49.242,5.506 49.242,5.071 L49.242,5.071 Z"></path>
                            <path d="M58.584,4.853 C58.584,5.041 58.57,5.199 58.545,5.328 L55.402,5.328 C55.416,5.794 55.566,6.149 55.857,6.395 C56.123,6.615 56.466,6.725 56.886,6.725 C57.351,6.725 57.775,6.651 58.157,6.502 L58.321,7.23 C57.874,7.424 57.348,7.521 56.739,7.521 C56.009,7.521 55.434,7.306 55.018,6.876 C54.6,6.446 54.393,5.869 54.393,5.145 C54.393,4.434 54.586,3.842 54.975,3.37 C55.381,2.866 55.93,2.614 56.623,2.614 C57.301,2.614 57.816,2.866 58.164,3.37 C58.445,3.77 58.584,4.265 58.584,4.853 L58.584,4.853 Z M57.584,4.582 C57.592,4.271 57.523,4.003 57.381,3.777 C57.199,3.486 56.922,3.34 56.547,3.34 C56.205,3.34 55.926,3.482 55.713,3.767 C55.539,3.994 55.436,4.265 55.402,4.582 L57.584,4.582 L57.584,4.582 Z"></path>
                            <path d="M64.199,7.433 L63.152,7.433 L63.152,4.733 C63.152,3.901 62.836,3.485 62.201,3.485 C61.89,3.485 61.639,3.599 61.445,3.828 C61.251,4.057 61.154,4.327 61.154,4.636 L61.154,7.432 L60.105,7.432 L60.105,4.066 C60.105,3.652 60.093,3.203 60.068,2.717 L60.988,2.717 L61.037,3.454 L61.066,3.454 C61.189,3.225 61.371,3.036 61.609,2.885 C61.894,2.709 62.211,2.62 62.56,2.62 C62.999,2.62 63.365,2.762 63.656,3.047 C64.019,3.396 64.199,3.917 64.199,4.609 L64.199,7.433 L64.199,7.433 Z"></path>
                            <path d="M72.756,4.853 C72.756,5.041 72.742,5.199 72.717,5.328 L69.574,5.328 C69.586,5.794 69.738,6.149 70.029,6.395 C70.295,6.615 70.636,6.725 71.056,6.725 C71.523,6.725 71.947,6.651 72.327,6.502 L72.491,7.23 C72.046,7.424 71.518,7.521 70.911,7.521 C70.181,7.521 69.606,7.306 69.188,6.876 C68.772,6.446 68.563,5.869 68.563,5.145 C68.563,4.434 68.756,3.842 69.145,3.37 C69.553,2.866 70.102,2.614 70.793,2.614 C71.473,2.614 71.986,2.866 72.336,3.37 C72.615,3.77 72.756,4.265 72.756,4.853 L72.756,4.853 Z M71.756,4.582 C71.762,4.271 71.694,4.003 71.553,3.777 C71.371,3.486 71.094,3.34 70.719,3.34 C70.375,3.34 70.098,3.482 69.883,3.767 C69.709,3.994 69.606,4.265 69.574,4.582 L71.756,4.582 L71.756,4.582 Z"></path>
                            <polygon points="75.326 7.433 74.277 7.433 74.277 0.556 75.326 0.556"></polygon>
                        </g>
                    </g>
                </g>
            </g>
        </g>
    </g>
</svg>