<?xml version="1.0" encoding="UTF-8" standalone="no"?>
<svg width="135px" height="40px" viewBox="0 0 135 40" version="1.1" xmlns="http://www.w3.org/2000/svg" xmlns:xlink="http://www.w3.org/1999/xlink">
    <!-- Generator: Sketch 39.1 (31720) - http://www.bohemiancoding.com/sketch -->
    <title>apple simplified-cn chinese</title>
    <desc>Created with Sketch.</desc>
    <defs></defs>
    <g id="apps" stroke="none" stroke-width="1" fill="none" fill-rule="evenodd">
        <g id="localized-badges" transform="translate(-30.000000, -94.000000)">
            <g id="apple-simplified-cn-chinese" transform="translate(30.000000, 94.000000)">
                <g id="SC_Download_on_the_App_Store">
                    <g id="Group">
                        <path d="M130.197,40 L4.729,40 C2.122,40 0,37.872 0,35.267 L0,4.726 C0,2.12 2.122,0 4.729,0 L130.197,0 C132.803,0 135,2.12 135,4.726 L135,35.267 C135,37.872 132.803,40 130.197,40 L130.197,40 L130.197,40 Z" id="Shape" fill="#DEDEDE"></path>
                        <path d="M134.032,35.268 C134.032,37.384 132.318,39.098 130.198,39.098 L4.729,39.098 C2.61,39.098 0.89,37.384 0.89,35.268 L0.89,4.725 C0.89,2.61 2.61,0.89 4.729,0.89 L130.197,0.89 C132.318,0.89 134.031,2.61 134.031,4.725 L134.032,35.268 L134.032,35.268 L134.032,35.268 Z" id="Shape" fill="#000000"></path>
                        <g transform="translate(12.000000, 6.000000)" id="Shape" fill="#FFFFFF">
                            <path d="M18.128,13.784 C18.099,10.561 20.767,8.993 20.889,8.92 C19.378,6.717 17.036,6.416 16.213,6.392 C14.246,6.185 12.338,7.569 11.336,7.569 C10.314,7.569 8.771,6.412 7.108,6.446 C4.968,6.479 2.966,7.718 1.868,9.642 C-0.398,13.565 1.292,19.33 3.463,22.501 C4.549,24.054 5.818,25.788 7.479,25.727 C9.104,25.66 9.711,24.691 11.672,24.691 C13.615,24.691 14.185,25.727 15.879,25.688 C17.623,25.66 18.721,24.128 19.769,22.561 C21.024,20.781 21.528,19.028 21.548,18.938 C21.507,18.924 18.161,17.647 18.128,13.784 L18.128,13.784 Z"></path>
                            <path d="M14.928,4.306 C15.802,3.213 16.4,1.726 16.234,0.217 C14.969,0.273 13.387,1.092 12.476,2.161 C11.67,3.103 10.95,4.647 11.136,6.099 C12.557,6.205 14.016,5.382 14.928,4.306 L14.928,4.306 Z"></path>
                        </g>
                        <g transform="translate(44.000000, 5.000000)" id="Shape" fill="#FFFFFF">
                            <path d="M10.006,12.03 L8,12.03 L6.9,8.575 L3.079,8.575 L2.032,12.03 L0.077,12.03 L3.864,0.269 L6.202,0.269 L10.006,12.03 L10.006,12.03 Z M6.568,7.127 L5.573,4.056 C5.469,3.742 5.271,3.003 4.98,1.84 L4.945,1.84 C4.828,2.34 4.642,3.079 4.386,4.056 L3.409,7.127 L6.568,7.127 L6.568,7.127 Z"></path>
                            <path d="M19.742,7.685 C19.742,9.128 19.353,10.268 18.574,11.105 C17.875,11.85 17.01,12.222 15.972,12.222 C14.857,12.222 14.054,11.821 13.566,11.018 L13.531,11.018 L13.531,15.485 L11.646,15.485 L11.646,6.341 C11.646,5.433 11.623,4.503 11.576,3.549 L13.234,3.549 L13.339,4.893 L13.373,4.893 C14.002,3.881 14.955,3.374 16.234,3.374 C17.236,3.374 18.07,3.77 18.74,4.561 C19.408,5.353 19.742,6.394 19.742,7.685 L19.742,7.685 Z M17.824,7.755 C17.824,6.929 17.636,6.249 17.265,5.713 C16.857,5.155 16.31,4.876 15.624,4.876 C15.159,4.876 14.737,5.03 14.358,5.338 C13.979,5.646 13.733,6.05 13.616,6.551 C13.557,6.783 13.53,6.976 13.53,7.127 L13.53,8.541 C13.53,9.158 13.718,9.678 14.096,10.103 C14.475,10.528 14.965,10.74 15.571,10.74 C16.28,10.74 16.833,10.467 17.229,9.92 C17.625,9.372 17.824,8.651 17.824,7.755 L17.824,7.755 Z"></path>
                            <path d="M29.497,7.685 C29.497,9.128 29.107,10.268 28.328,11.105 C27.63,11.85 26.764,12.222 25.727,12.222 C24.611,12.222 23.808,11.821 23.32,11.018 L23.285,11.018 L23.285,15.485 L21.4,15.485 L21.4,6.341 C21.4,5.433 21.377,4.503 21.331,3.549 L22.988,3.549 L23.092,4.893 L23.127,4.893 C23.755,3.881 24.709,3.374 25.988,3.374 C26.989,3.374 27.823,3.77 28.493,4.561 C29.162,5.353 29.497,6.394 29.497,7.685 L29.497,7.685 Z M27.578,7.755 C27.578,6.929 27.391,6.249 27.019,5.713 C26.612,5.155 26.065,4.876 25.378,4.876 C24.913,4.876 24.491,5.03 24.113,5.338 C23.734,5.646 23.487,6.05 23.371,6.551 C23.312,6.783 23.284,6.976 23.284,7.127 L23.284,8.541 C23.284,9.158 23.472,9.678 23.851,10.103 C24.229,10.528 24.72,10.74 25.325,10.74 C26.035,10.74 26.588,10.467 26.983,9.92 C27.378,9.373 27.578,8.651 27.578,7.755 L27.578,7.755 Z"></path>
                            <path d="M42.759,8.732 C42.759,9.732 42.41,10.546 41.714,11.175 C40.948,11.862 39.88,12.204 38.511,12.204 C37.245,12.204 36.23,11.96 35.463,11.471 L35.899,9.901 C36.725,10.401 37.633,10.651 38.623,10.651 C39.333,10.651 39.886,10.491 40.281,10.17 C40.677,9.85 40.875,9.421 40.875,8.885 C40.875,8.407 40.712,8.006 40.387,7.679 C40.061,7.353 39.52,7.05 38.764,6.77 C36.704,6.001 35.675,4.876 35.675,3.396 C35.675,2.429 36.035,1.637 36.757,1.019 C37.478,0.401 38.438,0.093 39.636,0.093 C40.706,0.093 41.596,0.279 42.306,0.651 L41.835,2.187 C41.172,1.827 40.421,1.646 39.584,1.646 C38.921,1.646 38.403,1.809 38.03,2.135 C37.717,2.426 37.559,2.781 37.559,3.199 C37.559,3.664 37.74,4.048 38.1,4.351 C38.414,4.63 38.984,4.933 39.81,5.258 C40.822,5.665 41.567,6.142 42.043,6.689 C42.52,7.238 42.759,7.918 42.759,8.732 L42.759,8.732 Z"></path>
                            <path d="M48.988,4.963 L46.911,4.963 L46.911,9.081 C46.911,10.128 47.278,10.652 48.011,10.652 C48.349,10.652 48.627,10.623 48.849,10.565 L48.902,11.996 C48.529,12.135 48.041,12.205 47.436,12.205 C46.691,12.205 46.11,11.978 45.691,11.525 C45.272,11.071 45.062,10.309 45.062,9.239 L45.062,4.963 L43.824,4.963 L43.824,3.55 L45.062,3.55 L45.062,1.997 L46.912,1.439 L46.912,3.55 L48.989,3.55 L48.989,4.963 L48.988,4.963 Z"></path>
                            <path d="M58.358,7.72 C58.358,9.023 57.985,10.093 57.241,10.931 C56.462,11.792 55.427,12.222 54.136,12.222 C52.891,12.222 51.899,11.809 51.16,10.983 C50.421,10.157 50.052,9.116 50.052,7.859 C50.052,6.545 50.433,5.468 51.196,4.63 C51.958,3.793 52.984,3.374 54.275,3.374 C55.52,3.374 56.52,3.787 57.277,4.613 C57.997,5.417 58.358,6.452 58.358,7.72 L58.358,7.72 Z M56.403,7.781 C56.403,6.999 56.235,6.328 55.897,5.769 C55.501,5.092 54.937,4.754 54.205,4.754 C53.448,4.754 52.873,5.092 52.477,5.769 C52.139,6.329 51.971,7.011 51.971,7.816 C51.971,8.598 52.139,9.269 52.477,9.829 C52.884,10.506 53.455,10.844 54.187,10.844 C54.909,10.844 55.472,10.5 55.879,9.811 C56.229,9.24 56.403,8.563 56.403,7.781 L56.403,7.781 Z"></path>
                            <path d="M64.482,5.208 C64.296,5.173 64.098,5.156 63.889,5.156 C63.226,5.156 62.713,5.406 62.353,5.906 C62.04,6.348 61.882,6.907 61.882,7.581 L61.882,12.031 L59.997,12.031 L60.015,6.22 C60.015,5.242 59.992,4.353 59.945,3.55 L61.586,3.55 L61.656,5.173 L61.708,5.173 C61.906,4.615 62.22,4.167 62.65,3.83 C63.069,3.527 63.523,3.376 64.011,3.376 C64.186,3.376 64.342,3.388 64.482,3.411 L64.482,5.208 L64.482,5.208 Z"></path>
                            <path d="M72.91,7.389 C72.91,7.726 72.887,8.012 72.841,8.244 L67.188,8.244 C67.21,9.081 67.484,9.722 68.007,10.163 C68.485,10.559 69.101,10.756 69.857,10.756 C70.695,10.756 71.457,10.623 72.143,10.355 L72.44,11.664 C71.637,12.013 70.689,12.187 69.595,12.187 C68.281,12.187 67.248,11.8 66.498,11.026 C65.747,10.253 65.372,9.214 65.372,7.911 C65.372,6.632 65.722,5.567 66.419,4.718 C67.152,3.811 68.141,3.357 69.386,3.357 C70.608,3.357 71.532,3.811 72.16,4.718 C72.66,5.44 72.91,6.33 72.91,7.389 L72.91,7.389 Z M71.113,6.9 C71.125,6.342 71.003,5.859 70.747,5.452 C70.421,4.929 69.921,4.667 69.246,4.667 C68.63,4.667 68.129,4.923 67.745,5.435 C67.432,5.843 67.245,6.331 67.187,6.901 L71.113,6.901 L71.113,6.9 Z"></path>
                        </g>
                        <g transform="translate(44.000000, 21.000000)" id="Shape" fill="#FFFFFF">
                            <path d="M12.827,2.984 L6.606,2.984 L6.606,13.874 L5.155,13.874 L5.155,2.984 L0.023,2.984 L0.023,1.63 L12.827,1.63 L12.827,2.984 L12.827,2.984 Z M12.547,8.974 L11.491,10.03 C9.983,8.6 8.428,7.242 6.821,5.955 L7.828,4.998 C9.456,6.273 11.029,7.599 12.547,8.974 L12.547,8.974 Z"></path>
                            <path d="M21.919,7.488 L17.712,7.488 C17.426,7.994 17.19,8.396 17.002,8.693 L18.207,8.693 L18.207,7.818 L19.511,7.818 L19.511,8.693 L21.606,8.693 L21.606,9.847 L19.511,9.847 L19.511,10.788 L21.755,10.59 L21.524,11.745 L19.511,11.927 L19.511,13.808 L18.207,13.808 L18.207,12.025 L14.709,12.388 L14.561,11.101 C15.903,11.036 17.119,10.964 18.207,10.887 L18.207,9.847 L17.217,9.847 C16.414,9.847 15.787,9.919 15.336,10.062 L14.973,8.857 C15.336,8.814 15.589,8.685 15.732,8.47 C15.876,8.255 16.073,7.928 16.327,7.488 L14.792,7.488 L14.792,6.334 L16.921,6.334 C17.053,6.059 17.168,5.772 17.268,5.476 L18.505,5.838 L18.274,6.334 L21.92,6.334 L21.92,7.488 L21.919,7.488 Z M27.777,10.904 C27.6,12.202 27.414,13.009 27.215,13.33 C27.017,13.648 26.717,13.809 26.316,13.809 C25.915,13.809 25.486,13.605 25.029,13.198 C24.573,12.792 24.179,12.329 23.849,11.812 C23.178,12.483 22.315,13.182 21.259,13.908 L20.252,12.918 C21.451,12.181 22.44,11.39 23.222,10.542 C22.948,9.728 22.749,8.725 22.628,7.53 C22.507,6.337 22.446,5.625 22.446,5.393 L14.675,5.393 L14.675,4.222 L18.008,4.222 L18.008,3.282 L15.484,3.282 L15.484,2.11 L18.008,2.11 L18.008,0.774 L19.328,0.774 L19.328,2.11 L21.704,2.11 L21.704,3.282 L19.328,3.282 L19.328,4.222 L22.396,4.222 L22.331,0.757 L23.635,0.757 C23.635,2.154 23.656,3.309 23.7,4.222 L27.545,4.222 L27.545,5.393 L23.75,5.393 L23.75,5.559 C23.75,5.779 23.788,6.321 23.865,7.184 C23.942,8.047 24.047,8.76 24.178,9.321 C24.74,8.485 25.206,7.484 25.58,6.317 L26.785,6.78 C26.202,8.44 25.525,9.772 24.756,10.772 C24.932,11.114 25.182,11.452 25.506,11.788 C25.83,12.124 26.042,12.291 26.142,12.291 C26.241,12.291 26.326,12.134 26.398,11.821 C26.469,11.507 26.521,11.092 26.554,10.575 L27.777,10.904 L27.777,10.904 Z M27.249,3.148 L26.209,3.974 C25.615,3.247 24.982,2.566 24.312,1.927 L25.286,1.118 C26.066,1.879 26.721,2.555 27.249,3.148 L27.249,3.148 Z"></path>
                        </g>
                    </g>
                </g>
            </g>
        </g>
    </g>
</svg>