<?xml version="1.0" encoding="UTF-8" standalone="no"?>
<svg width="135px" height="40px" viewBox="0 0 135 40" version="1.1" xmlns="http://www.w3.org/2000/svg" xmlns:xlink="http://www.w3.org/1999/xlink">
    <!-- Generator: Sketch 39.1 (31720) - http://www.bohemiancoding.com/sketch -->
    <title>apple arabic</title>
    <desc>Created with Sketch.</desc>
    <defs></defs>
    <g id="apps" stroke="none" stroke-width="1" fill="none" fill-rule="evenodd">
        <g id="localized-badges" transform="translate(-30.000000, -530.000000)">
            <g id="apple-arabic" transform="translate(30.000000, 530.000000)">
                <g id="AR_Download_on_the_App_Store">
                    <g id="Group">
                        <path d="M130.197,40 L4.729,40 C2.122,40 0,37.872 0,35.267 L0,4.726 C0,2.12 2.122,0 4.729,0 L130.197,0 C132.803,0 135,2.12 135,4.726 L135,35.267 C135,37.872 132.803,40 130.197,40 L130.197,40 L130.197,40 Z" id="Shape" fill="#DEDEDE"></path>
                        <path d="M134.032,35.268 C134.032,37.384 132.318,39.098 130.198,39.098 L4.729,39.098 C2.61,39.098 0.89,37.384 0.89,35.268 L0.89,4.725 C0.89,2.61 2.61,0.89 4.729,0.89 L130.197,0.89 C132.318,0.89 134.031,2.61 134.031,4.725 L134.032,35.268 L134.032,35.268 L134.032,35.268 Z" id="Shape" fill="#000000"></path>
                        <g transform="translate(12.000000, 6.000000)" id="Shape" fill="#FFFFFF">
                            <path d="M18.128,13.784 C18.099,10.561 20.767,8.993 20.889,8.92 C19.378,6.717 17.036,6.416 16.213,6.392 C14.246,6.185 12.338,7.569 11.336,7.569 C10.314,7.569 8.771,6.412 7.108,6.446 C4.968,6.479 2.966,7.718 1.868,9.642 C-0.398,13.565 1.292,19.33 3.463,22.501 C4.549,24.054 5.818,25.788 7.479,25.727 C9.104,25.66 9.711,24.691 11.672,24.691 C13.615,24.691 14.185,25.727 15.879,25.688 C17.623,25.66 18.721,24.128 19.769,22.561 C21.024,20.781 21.528,19.028 21.548,18.938 C21.507,18.924 18.161,17.647 18.128,13.784 L18.128,13.784 Z"></path>
                            <path d="M14.928,4.306 C15.802,3.213 16.4,1.726 16.234,0.217 C14.969,0.273 13.387,1.092 12.476,2.161 C11.67,3.103 10.95,4.647 11.136,6.099 C12.557,6.205 14.016,5.382 14.928,4.306 L14.928,4.306 Z"></path>
                        </g>
                        <g transform="translate(42.000000, 18.000000)" id="Shape" fill="#FFFFFF">
                            <path d="M11.645,13.504 L9.374,13.504 L8.13,9.595 L3.806,9.595 L2.621,13.504 L0.41,13.504 L4.694,0.196 L7.34,0.196 L11.645,13.504 L11.645,13.504 Z M7.755,7.955 L6.63,4.48 C6.511,4.125 6.288,3.289 5.959,1.973 L5.919,1.973 C5.788,2.539 5.577,3.375 5.287,4.48 L4.182,7.955 L7.755,7.955 L7.755,7.955 Z"></path>
                            <path d="M22.662,8.588 C22.662,10.22 22.221,11.51 21.339,12.457 C20.549,13.3 19.568,13.721 18.397,13.721 C17.133,13.721 16.225,13.267 15.672,12.359 L15.632,12.359 L15.632,17.414 L13.5,17.414 L13.5,7.067 C13.5,6.041 13.473,4.988 13.421,3.908 L15.296,3.908 L15.415,5.429 L15.455,5.429 C16.166,4.283 17.245,3.711 18.693,3.711 C19.825,3.711 20.77,4.158 21.526,5.053 C22.284,5.949 22.662,7.127 22.662,8.588 L22.662,8.588 Z M20.49,8.666 C20.49,7.732 20.28,6.962 19.858,6.356 C19.397,5.724 18.778,5.408 18.002,5.408 C17.476,5.408 16.998,5.584 16.571,5.931 C16.143,6.281 15.863,6.738 15.732,7.304 C15.666,7.568 15.633,7.784 15.633,7.954 L15.633,9.554 C15.633,10.252 15.847,10.841 16.275,11.322 C16.703,11.803 17.259,12.043 17.943,12.043 C18.746,12.043 19.371,11.733 19.818,11.115 C20.266,10.496 20.49,9.68 20.49,8.666 L20.49,8.666 Z"></path>
                            <path d="M33.699,8.588 C33.699,10.22 33.258,11.51 32.375,12.457 C31.586,13.3 30.605,13.721 29.434,13.721 C28.17,13.721 27.262,13.267 26.71,12.359 L26.67,12.359 L26.67,17.414 L24.538,17.414 L24.538,7.067 C24.538,6.041 24.511,4.988 24.459,3.908 L26.334,3.908 L26.453,5.429 L26.493,5.429 C27.203,4.283 28.282,3.711 29.731,3.711 C30.862,3.711 31.807,4.158 32.565,5.053 C33.32,5.949 33.699,7.127 33.699,8.588 L33.699,8.588 Z M31.527,8.666 C31.527,7.732 31.316,6.962 30.894,6.356 C30.433,5.724 29.816,5.408 29.039,5.408 C28.512,5.408 28.035,5.584 27.607,5.931 C27.179,6.281 26.9,6.738 26.769,7.304 C26.704,7.568 26.67,7.784 26.67,7.954 L26.67,9.554 C26.67,10.252 26.884,10.841 27.31,11.322 C27.738,11.802 28.294,12.043 28.98,12.043 C29.783,12.043 30.408,11.733 30.855,11.115 C31.303,10.496 31.527,9.68 31.527,8.666 L31.527,8.666 Z"></path>
                            <path d="M46.039,9.772 C46.039,10.904 45.646,11.825 44.857,12.536 C43.99,13.313 42.783,13.701 41.232,13.701 C39.8,13.701 38.652,13.425 37.783,12.872 L38.277,11.095 C39.213,11.661 40.24,11.945 41.359,11.945 C42.162,11.945 42.787,11.763 43.236,11.401 C43.683,11.039 43.906,10.553 43.906,9.947 C43.906,9.407 43.722,8.952 43.353,8.583 C42.986,8.214 42.373,7.871 41.517,7.554 C39.187,6.685 38.023,5.412 38.023,3.738 C38.023,2.644 38.431,1.747 39.248,1.049 C40.062,0.35 41.148,0.001 42.506,0.001 C43.717,0.001 44.723,0.212 45.526,0.633 L44.993,2.371 C44.243,1.963 43.395,1.759 42.446,1.759 C41.696,1.759 41.11,1.944 40.69,2.312 C40.335,2.641 40.157,3.042 40.157,3.517 C40.157,4.043 40.36,4.478 40.768,4.82 C41.123,5.136 41.768,5.478 42.704,5.847 C43.849,6.308 44.69,6.847 45.231,7.465 C45.77,8.081 46.039,8.852 46.039,9.772 L46.039,9.772 Z"></path>
                            <path d="M53.088,5.508 L50.738,5.508 L50.738,10.167 C50.738,11.352 51.152,11.944 51.982,11.944 C52.363,11.944 52.679,11.911 52.929,11.845 L52.988,13.464 C52.568,13.621 52.015,13.7 51.33,13.7 C50.488,13.7 49.83,13.443 49.355,12.93 C48.882,12.416 48.644,11.554 48.644,10.343 L48.644,5.506 L47.244,5.506 L47.244,3.906 L48.644,3.906 L48.644,2.149 L50.738,1.517 L50.738,3.906 L53.088,3.906 L53.088,5.508 L53.088,5.508 Z"></path>
                            <path d="M63.691,8.627 C63.691,10.102 63.269,11.313 62.427,12.26 C61.544,13.235 60.372,13.721 58.911,13.721 C57.503,13.721 56.382,13.254 55.546,12.32 C54.71,11.386 54.292,10.207 54.292,8.786 C54.292,7.299 54.722,6.081 55.585,5.134 C56.446,4.186 57.608,3.712 59.069,3.712 C60.477,3.712 61.61,4.179 62.465,5.114 C63.283,6.021 63.691,7.192 63.691,8.627 L63.691,8.627 Z M61.479,8.696 C61.479,7.811 61.29,7.052 60.907,6.419 C60.46,5.653 59.821,5.271 58.993,5.271 C58.136,5.271 57.485,5.654 57.038,6.419 C56.655,7.053 56.466,7.824 56.466,8.736 C56.466,9.621 56.655,10.38 57.038,11.012 C57.499,11.778 58.143,12.16 58.974,12.16 C59.788,12.16 60.427,11.77 60.888,10.992 C61.281,10.347 61.479,9.58 61.479,8.696 L61.479,8.696 Z"></path>
                            <path d="M70.621,5.783 C70.41,5.744 70.185,5.724 69.949,5.724 C69.199,5.724 68.619,6.007 68.211,6.574 C67.856,7.074 67.678,7.706 67.678,8.469 L67.678,13.504 L65.547,13.504 L65.567,6.93 C65.567,5.824 65.54,4.817 65.487,3.909 L67.344,3.909 L67.422,5.745 L67.481,5.745 C67.706,5.114 68.061,4.606 68.547,4.225 C69.022,3.882 69.535,3.711 70.088,3.711 C70.285,3.711 70.463,3.725 70.621,3.75 L70.621,5.783 L70.621,5.783 Z"></path>
                            <path d="M80.156,8.252 C80.156,8.634 80.131,8.956 80.078,9.219 L73.682,9.219 C73.707,10.167 74.016,10.892 74.61,11.392 C75.149,11.839 75.846,12.063 76.702,12.063 C77.649,12.063 78.513,11.912 79.29,11.609 L79.624,13.089 C78.716,13.485 77.644,13.682 76.407,13.682 C74.919,13.682 73.751,13.244 72.901,12.369 C72.053,11.494 71.628,10.319 71.628,8.845 C71.628,7.398 72.023,6.193 72.814,5.232 C73.642,4.206 74.761,3.693 76.169,3.693 C77.552,3.693 78.599,4.206 79.31,5.232 C79.873,6.047 80.156,7.055 80.156,8.252 L80.156,8.252 Z M78.123,7.699 C78.137,7.067 77.998,6.521 77.709,6.06 C77.34,5.467 76.773,5.171 76.01,5.171 C75.313,5.171 74.746,5.46 74.313,6.04 C73.958,6.501 73.747,7.054 73.682,7.698 L78.123,7.698 L78.123,7.699 Z"></path>
                        </g>
                        <g transform="translate(91.000000, 4.000000)" id="Shape" fill="#FFFFFF">
                            <path d="M1.193,5.419 L1.888,5.527 C1.781,5.898 1.681,6.259 1.681,6.719 C1.681,7.622 2.313,8.183 3.234,8.183 C3.668,8.183 4.337,8.02 4.716,7.487 C4.833,7.333 4.941,7.09 4.941,6.972 C4.941,6.764 4.933,6.62 4.888,6.43 C4.698,5.644 4.372,5.039 4.228,4.759 L5.113,4.389 C5.24,4.623 5.565,5.365 5.691,6.033 C5.845,6.105 6.071,6.133 6.314,6.133 C6.63,6.133 6.984,6.278 6.984,6.711 C6.984,6.964 6.866,7.289 6.314,7.289 C6.044,7.289 5.8,7.253 5.691,7.199 C5.656,7.497 5.511,7.876 5.357,8.112 C4.941,8.771 4.246,9.277 3.108,9.277 C1.609,9.277 0.814,8.274 0.814,6.992 C0.814,6.404 0.986,5.826 1.193,5.419 L1.193,5.419 Z M2.477,3.296 C2.477,2.935 2.711,2.7 3.037,2.7 C3.38,2.7 3.606,2.935 3.606,3.296 C3.606,3.657 3.379,3.883 3.037,3.883 C2.711,3.884 2.477,3.658 2.477,3.296 L2.477,3.296 Z"></path>
                            <path d="M5.631,6.711 C5.631,6.44 5.766,6.133 6.326,6.133 L6.335,6.133 C6.75,6.133 6.913,5.934 7.104,5.438 C7.545,4.327 7.925,3.866 8.674,3.866 C9.668,3.866 10.219,5.041 10.219,5.962 C10.219,6.703 9.778,7.29 9.063,7.29 C8.512,7.29 8.006,7.082 7.428,6.676 C7.184,7.055 6.949,7.29 6.335,7.29 L6.309,7.29 C5.992,7.289 5.631,7.136 5.631,6.711 L5.631,6.711 Z M9.072,6.178 C9.298,6.178 9.461,6.106 9.461,5.871 C9.461,5.41 9.072,4.823 8.621,4.823 C8.305,4.823 8.06,4.994 7.844,5.672 C8.15,5.943 8.693,6.178 9.072,6.178 L9.072,6.178 Z"></path>
                            <path d="M18.215,5.311 C18.332,6.061 18.803,6.133 19.164,6.133 C19.48,6.133 19.832,6.278 19.832,6.711 C19.832,6.964 19.715,7.289 19.164,7.289 C18.884,7.289 18.504,7.217 18.269,6.9 C18.269,7.569 18.124,7.984 17.917,8.246 C17.392,8.996 16.479,9.348 15.595,9.348 C14.304,9.348 13.337,8.553 13.337,7.162 C13.337,6.728 13.437,6.232 13.661,5.707 L14.356,5.825 C14.249,6.196 14.194,6.521 14.194,6.81 C14.194,7.803 14.882,8.309 15.756,8.309 C16.406,8.309 17.039,8.056 17.301,7.668 C17.383,7.533 17.391,7.388 17.383,7.171 L17.121,0.757 L18.041,0.694 L18.215,5.311 L18.215,5.311 Z"></path>
                            <path d="M18.551,6.693 C18.551,6.476 18.688,6.133 19.166,6.133 L19.391,6.133 C19.989,6.133 20.376,6.079 20.575,5.961 L20.575,5.835 C20.557,5.185 20.214,4.417 19.862,3.829 L20.747,3.504 C21.091,4.146 21.415,5.166 21.415,5.97 C21.415,6.25 21.37,6.584 21.27,6.819 C21.027,7.036 20.62,7.289 19.274,7.289 L19.167,7.289 C18.668,7.289 18.551,6.946 18.551,6.693 L18.551,6.693 Z M20.186,9.114 C20.186,9.457 19.961,9.674 19.645,9.674 C19.329,9.674 19.094,9.475 19.094,9.114 C19.094,8.762 19.328,8.545 19.645,8.545 C19.962,8.545 20.186,8.762 20.186,9.114 L20.186,9.114 Z M21.559,9.114 C21.559,9.457 21.334,9.674 21.008,9.674 C20.692,9.674 20.475,9.475 20.475,9.114 C20.475,8.762 20.692,8.545 21.008,8.545 C21.334,8.545 21.559,8.762 21.559,9.114 L21.559,9.114 Z"></path>
                            <path d="M23.602,2.754 C23.602,2.393 23.836,2.157 24.171,2.157 C24.514,2.157 24.74,2.392 24.74,2.754 C24.74,3.116 24.513,3.341 24.162,3.341 C23.836,3.341 23.602,3.115 23.602,2.754 L23.602,2.754 Z"></path>
                            <path d="M26.557,2.355 C26.557,1.994 26.791,1.759 27.125,1.759 C27.469,1.759 27.695,1.993 27.695,2.355 C27.695,2.717 27.468,2.942 27.117,2.942 C26.791,2.943 26.557,2.717 26.557,2.355 L26.557,2.355 Z"></path>
                            <path d="M23.484,8.292 C24.188,8.292 24.929,7.723 24.929,7.018 C24.929,6.611 24.64,5.852 24.079,4.958 L24.936,4.642 C25.245,5.184 25.551,5.329 25.985,5.329 C26.546,5.329 26.969,5.04 27.042,4.507 L27.801,4.435 C27.747,4.715 27.72,4.968 27.72,5.149 C27.72,5.899 28.136,6.115 28.714,6.133 C29.029,6.133 29.382,6.278 29.382,6.711 C29.382,6.964 29.273,7.289 28.714,7.289 C27.801,7.289 27.142,6.837 27.052,5.907 C26.816,6.214 26.337,6.358 25.931,6.358 C25.831,6.358 25.687,6.331 25.624,6.322 C25.696,6.566 25.714,6.9 25.714,7.063 C25.714,8.201 24.864,9.393 23.546,9.393 C23.05,9.393 22.499,9.24 22.191,8.86 L22.336,8.011 C22.652,8.201 23.041,8.292 23.484,8.292 L23.484,8.292 Z"></path>
                            <path d="M28.102,6.693 C28.102,6.476 28.237,6.133 28.716,6.133 L28.942,6.133 C29.538,6.133 29.926,6.079 30.126,5.961 L30.126,5.835 C30.108,5.185 29.765,4.417 29.413,3.829 L30.298,3.504 C30.642,4.146 30.966,5.166 30.966,5.97 C30.966,6.25 30.921,6.584 30.821,6.819 C30.577,7.036 30.171,7.289 28.825,7.289 L28.717,7.289 C28.219,7.289 28.102,6.946 28.102,6.693 L28.102,6.693 Z M28.219,1.996 C28.219,1.644 28.453,1.427 28.77,1.427 C29.096,1.427 29.321,1.644 29.321,1.996 C29.321,2.348 29.096,2.556 28.77,2.556 C28.453,2.556 28.219,2.357 28.219,1.996 L28.219,1.996 Z M29.609,1.996 C29.609,1.644 29.826,1.427 30.142,1.427 C30.468,1.427 30.685,1.644 30.685,1.996 C30.685,2.348 30.468,2.556 30.142,2.556 C29.826,2.556 29.609,2.357 29.609,1.996 L29.609,1.996 Z"></path>
                        </g>
                    </g>
                </g>
            </g>
        </g>
    </g>
</svg>