<?xml version="1.0" encoding="UTF-8" standalone="no"?>
<svg width="135px" height="40px" viewBox="0 0 135 40" version="1.1" xmlns="http://www.w3.org/2000/svg" xmlns:xlink="http://www.w3.org/1999/xlink">
    <!-- Generator: Sketch 39.1 (31720) - http://www.bohemiancoding.com/sketch -->
    <title>apple french</title>
    <desc>Created with Sketch.</desc>
    <defs></defs>
    <g id="apps" stroke="none" stroke-width="1" fill="none" fill-rule="evenodd">
        <g id="localized-badges" transform="translate(-30.000000, -893.000000)">
            <g id="apple-french" transform="translate(30.000000, 893.000000)">
                <g id="FR_Download_on_the_App_Store">
                    <g id="Group">
                        <path d="M130.229,40 L4.76,40 C2.153,40 0,37.872 0,35.267 L0,4.726 C0,2.12 2.153,0 4.76,0 L130.228,0 C132.834,0 135,2.12 135,4.726 L135,35.267 C135,37.872 132.834,40 130.229,40 L130.229,40 L130.229,40 Z" id="Shape" fill="#DEDEDE"></path>
                        <path d="M134.032,35.268 C134.032,37.384 132.318,39.098 130.198,39.098 L4.729,39.098 C2.61,39.098 0.89,37.384 0.89,35.268 L0.89,4.725 C0.89,2.61 2.61,0.89 4.729,0.89 L130.197,0.89 C132.318,0.89 134.031,2.61 134.031,4.725 L134.032,35.268 L134.032,35.268 L134.032,35.268 Z" id="Shape" fill="#000000"></path>
                        <g transform="translate(12.000000, 6.000000)" id="Shape" fill="#FFFFFF">
                            <path d="M18.159,13.784 C18.13,10.561 20.798,8.993 20.92,8.92 C19.409,6.717 17.067,6.416 16.244,6.392 C14.277,6.185 12.369,7.569 11.367,7.569 C10.345,7.569 8.802,6.412 7.139,6.446 C4.999,6.479 2.997,7.718 1.899,9.642 C-0.367,13.565 1.323,19.33 3.494,22.501 C4.58,24.054 5.849,25.788 7.51,25.727 C9.135,25.66 9.742,24.691 11.703,24.691 C13.646,24.691 14.216,25.727 15.91,25.688 C17.654,25.66 18.752,24.128 19.8,22.561 C21.055,20.781 21.559,19.028 21.579,18.938 C21.539,18.924 18.192,17.647 18.159,13.784 L18.159,13.784 Z"></path>
                            <path d="M14.959,4.306 C15.833,3.213 16.431,1.726 16.265,0.217 C15,0.273 13.417,1.091 12.507,2.161 C11.701,3.103 10.981,4.647 11.167,6.099 C12.588,6.205 14.047,5.382 14.959,4.306 L14.959,4.306 Z"></path>
                        </g>
                        <g transform="translate(43.000000, 18.000000)" id="Shape" fill="#FFFFFF">
                            <polygon points="2.175 13.504 0.231 13.504 0.231 0.742 2.175 0.742"></polygon>
                            <path d="M7.251,1.048 C6.735,2.86 6.123,4.348 5.415,5.512 L4.209,5.638 C4.737,4.198 5.115,2.728 5.343,1.228 L7.251,1.048 L7.251,1.048 Z"></path>
                            <path d="M16.773,13.504 L14.703,13.504 L13.569,9.941 L9.627,9.941 L8.547,13.504 L6.531,13.504 L10.437,1.372 L12.849,1.372 L16.773,13.504 L16.773,13.504 Z M13.227,8.445 L12.201,5.277 C12.093,4.954 11.889,4.191 11.589,2.991 L11.553,2.991 C11.433,3.507 11.241,4.269 10.977,5.277 L9.969,8.445 L13.227,8.445 L13.227,8.445 Z"></path>
                            <path d="M26.816,9.021 C26.816,10.509 26.414,11.685 25.609,12.549 C24.889,13.318 23.995,13.701 22.927,13.701 C21.775,13.701 20.947,13.287 20.443,12.459 L20.407,12.459 L20.407,17.067 L18.463,17.067 L18.463,7.634 C18.463,6.697 18.439,5.738 18.391,4.754 L20.101,4.754 L20.209,6.141 L20.245,6.141 C20.893,5.096 21.877,4.575 23.197,4.575 C24.229,4.575 25.09,4.983 25.78,5.799 C26.471,6.616 26.816,7.689 26.816,9.021 L26.816,9.021 Z M24.836,9.094 C24.836,8.242 24.644,7.54 24.26,6.989 C23.84,6.413 23.276,6.125 22.568,6.125 C22.088,6.125 21.652,6.284 21.263,6.603 C20.873,6.92 20.618,7.337 20.498,7.853 C20.438,8.093 20.408,8.291 20.408,8.447 L20.408,9.905 C20.408,10.542 20.603,11.079 20.993,11.516 C21.383,11.954 21.89,12.173 22.514,12.173 C23.246,12.173 23.816,11.891 24.224,11.327 C24.632,10.762 24.836,10.019 24.836,9.094 L24.836,9.094 Z"></path>
                            <path d="M36.879,9.021 C36.879,10.509 36.477,11.685 35.672,12.549 C34.953,13.318 34.059,13.701 32.99,13.701 C31.838,13.701 31.01,13.287 30.506,12.459 L30.471,12.459 L30.471,17.067 L28.526,17.067 L28.526,7.634 C28.526,6.697 28.503,5.738 28.456,4.754 L30.165,4.754 L30.272,6.141 L30.309,6.141 C30.957,5.096 31.94,4.575 33.26,4.575 C34.293,4.575 35.153,4.983 35.844,5.799 C36.533,6.616 36.879,7.689 36.879,9.021 L36.879,9.021 Z M34.898,9.094 C34.898,8.242 34.707,7.54 34.322,6.989 C33.902,6.413 33.338,6.125 32.631,6.125 C32.151,6.125 31.715,6.284 31.326,6.603 C30.935,6.92 30.68,7.337 30.56,7.853 C30.499,8.093 30.47,8.291 30.47,8.447 L30.47,9.905 C30.47,10.542 30.665,11.079 31.054,11.516 C31.445,11.954 31.952,12.173 32.575,12.173 C33.307,12.173 33.878,11.891 34.286,11.327 C34.693,10.762 34.898,10.019 34.898,9.094 L34.898,9.094 Z"></path>
                            <path d="M48.127,10.103 C48.127,11.134 47.768,11.974 47.051,12.623 C46.26,13.331 45.158,13.685 43.746,13.685 C42.439,13.685 41.392,13.433 40.601,12.929 L41.05,11.309 C41.902,11.826 42.839,12.083 43.859,12.083 C44.591,12.083 45.162,11.918 45.57,11.587 C45.978,11.257 46.183,10.815 46.183,10.262 C46.183,9.769 46.015,9.355 45.679,9.018 C45.343,8.682 44.784,8.369 44.005,8.08 C41.88,7.287 40.817,6.127 40.817,4.601 C40.817,3.603 41.19,2.786 41.934,2.149 C42.678,1.512 43.668,1.193 44.905,1.193 C46.009,1.193 46.926,1.385 47.659,1.769 L47.173,3.352 C46.489,2.98 45.714,2.794 44.851,2.794 C44.167,2.794 43.632,2.962 43.249,3.298 C42.925,3.598 42.763,3.964 42.763,4.397 C42.763,4.876 42.949,5.272 43.322,5.585 C43.644,5.873 44.232,6.185 45.086,6.521 C46.129,6.941 46.897,7.433 47.389,7.998 C47.881,8.563 48.127,9.262 48.127,10.103 L48.127,10.103 Z"></path>
                            <path d="M54.553,6.214 L52.412,6.214 L52.412,10.462 C52.412,11.542 52.789,12.082 53.545,12.082 C53.893,12.082 54.182,12.052 54.41,11.992 L54.463,13.468 C54.08,13.613 53.576,13.684 52.951,13.684 C52.183,13.684 51.584,13.451 51.152,12.982 C50.718,12.514 50.504,11.729 50.504,10.625 L50.504,6.215 L49.225,6.215 L49.225,4.757 L50.504,4.757 L50.504,3.155 L52.412,2.579 L52.412,4.757 L54.553,4.757 L54.553,6.214 L54.553,6.214 Z"></path>
                            <path d="M64.219,9.059 C64.219,10.402 63.834,11.506 63.067,12.371 C62.262,13.259 61.196,13.703 59.864,13.703 C58.579,13.703 57.555,13.277 56.794,12.425 C56.032,11.573 55.651,10.499 55.651,9.203 C55.651,7.847 56.044,6.737 56.831,5.873 C57.616,5.009 58.675,4.577 60.007,4.577 C61.292,4.577 62.323,5.003 63.103,5.854 C63.846,6.682 64.219,7.75 64.219,9.059 L64.219,9.059 Z M62.203,9.121 C62.203,8.314 62.029,7.623 61.68,7.045 C61.272,6.348 60.692,5.998 59.934,5.998 C59.155,5.998 58.561,6.348 58.153,7.045 C57.805,7.623 57.632,8.326 57.632,9.156 C57.632,9.964 57.806,10.655 58.153,11.232 C58.573,11.93 59.161,12.28 59.917,12.28 C60.661,12.28 61.243,11.925 61.663,11.215 C62.021,10.625 62.203,9.927 62.203,9.121 L62.203,9.121 Z"></path>
                            <path d="M70.535,6.466 C70.344,6.43 70.14,6.412 69.924,6.412 C69.24,6.412 68.711,6.67 68.34,7.185 C68.016,7.642 67.854,8.218 67.854,8.914 L67.854,13.504 L65.911,13.504 L65.929,7.51 C65.929,6.502 65.906,5.584 65.857,4.756 L67.55,4.756 L67.62,6.43 L67.675,6.43 C67.88,5.854 68.202,5.393 68.648,5.044 C69.08,4.732 69.548,4.576 70.052,4.576 C70.232,4.576 70.394,4.588 70.536,4.611 L70.536,6.466 L70.535,6.466 Z"></path>
                            <path d="M79.23,8.716 C79.23,9.065 79.205,9.358 79.158,9.598 L73.326,9.598 C73.349,10.462 73.633,11.122 74.172,11.578 C74.664,11.986 75.301,12.189 76.08,12.189 C76.943,12.189 77.73,12.051 78.437,11.776 L78.744,13.126 C77.916,13.486 76.937,13.666 75.81,13.666 C74.453,13.666 73.388,13.268 72.615,12.469 C71.842,11.671 71.455,10.6 71.455,9.256 C71.455,7.936 71.814,6.838 72.533,5.962 C73.291,5.025 74.31,4.559 75.594,4.559 C76.854,4.559 77.809,5.026 78.457,5.962 C78.973,6.706 79.23,7.624 79.23,8.716 L79.23,8.716 Z M77.377,8.212 C77.389,7.636 77.262,7.139 76.998,6.718 C76.662,6.178 76.146,5.908 75.449,5.908 C74.814,5.908 74.299,6.172 73.902,6.699 C73.578,7.12 73.386,7.624 73.326,8.212 L77.377,8.212 L77.377,8.212 Z"></path>
                        </g>
                        <g transform="translate(43.000000, 6.000000)" id="Shape" fill="#FFFFFF">
                            <polygon points="4.84 1.778 2.968 1.778 2.968 7.433 1.92 7.433 1.92 1.778 0.058 1.778 0.058 0.896 4.84 0.896"></polygon>
                            <path d="M9.981,4.853 C9.981,5.041 9.967,5.199 9.942,5.328 L6.799,5.328 C6.812,5.794 6.963,6.149 7.254,6.395 C7.52,6.615 7.862,6.725 8.282,6.725 C8.748,6.725 9.172,6.651 9.553,6.502 L9.717,7.23 C9.271,7.424 8.744,7.521 8.136,7.521 C7.406,7.521 6.831,7.306 6.414,6.876 C5.997,6.446 5.789,5.869 5.789,5.145 C5.789,4.434 5.982,3.842 6.371,3.37 C6.778,2.866 7.327,2.614 8.019,2.614 C8.698,2.614 9.212,2.866 9.561,3.37 C9.841,3.77 9.981,4.265 9.981,4.853 L9.981,4.853 Z M8.981,4.582 C8.988,4.271 8.919,4.003 8.778,3.777 C8.596,3.486 8.319,3.34 7.944,3.34 C7.601,3.34 7.323,3.482 7.109,3.767 C6.935,3.994 6.832,4.265 6.799,4.582 L8.981,4.582 L8.981,4.582 Z M9.409,0.74 L8.235,2.146 L7.507,2.146 L8.351,0.74 L9.409,0.74 L9.409,0.74 Z"></path>
                            <polygon points="12.55 7.433 11.502 7.433 11.502 0.556 12.55 0.556"></polygon>
                            <path d="M18.293,4.853 C18.293,5.041 18.279,5.199 18.254,5.328 L15.111,5.328 C15.124,5.794 15.275,6.149 15.566,6.395 C15.832,6.615 16.174,6.725 16.594,6.725 C17.06,6.725 17.484,6.651 17.865,6.502 L18.029,7.23 C17.583,7.424 17.056,7.521 16.448,7.521 C15.718,7.521 15.143,7.306 14.726,6.876 C14.309,6.446 14.101,5.869 14.101,5.145 C14.101,4.434 14.294,3.842 14.683,3.37 C15.09,2.866 15.639,2.614 16.331,2.614 C17.01,2.614 17.524,2.866 17.873,3.37 C18.154,3.77 18.293,4.265 18.293,4.853 L18.293,4.853 Z M17.293,4.582 C17.3,4.271 17.231,4.003 17.09,3.777 C16.908,3.486 16.631,3.34 16.256,3.34 C15.913,3.34 15.635,3.482 15.421,3.767 C15.247,3.994 15.144,4.265 15.111,4.582 L17.293,4.582 L17.293,4.582 Z M17.721,0.74 L16.547,2.146 L15.82,2.146 L16.664,0.74 L17.721,0.74 L17.721,0.74 Z"></path>
                            <path d="M23.181,2.845 L22.978,3.64 C22.712,3.511 22.409,3.446 22.066,3.446 C21.607,3.446 21.243,3.6 20.974,3.907 C20.706,4.214 20.572,4.604 20.572,5.076 C20.572,5.574 20.713,5.968 20.994,6.259 C21.275,6.55 21.633,6.696 22.066,6.696 C22.389,6.696 22.706,6.632 23.016,6.502 L23.162,7.288 C22.819,7.45 22.387,7.531 21.862,7.531 C21.144,7.531 20.572,7.313 20.145,6.876 C19.718,6.439 19.505,5.856 19.505,5.125 C19.505,4.395 19.734,3.794 20.193,3.326 C20.652,2.858 21.269,2.623 22.046,2.623 C22.486,2.622 22.865,2.696 23.181,2.845 L23.181,2.845 Z"></path>
                            <path d="M28.709,7.433 L27.662,7.433 L27.662,4.753 C27.662,3.908 27.346,3.485 26.711,3.485 C26.227,3.485 25.893,3.73 25.712,4.22 C25.68,4.323 25.663,4.449 25.663,4.597 L25.663,7.432 L24.615,7.432 L24.615,0.556 L25.663,0.556 L25.663,3.397 L25.683,3.397 C26.014,2.88 26.484,2.622 27.1,2.622 C27.534,2.622 27.891,2.764 28.176,3.049 C28.531,3.404 28.709,3.932 28.709,4.63 L28.709,7.433 L28.709,7.433 Z"></path>
                            <path d="M34.084,7.433 L33.143,7.433 L33.065,6.89 L33.036,6.89 C32.714,7.323 32.255,7.54 31.659,7.54 C31.214,7.54 30.854,7.397 30.583,7.113 C30.337,6.855 30.214,6.534 30.214,6.153 C30.214,5.577 30.454,5.138 30.937,4.834 C31.419,4.53 32.097,4.381 32.97,4.388 L32.97,4.3 C32.97,3.679 32.644,3.369 31.991,3.369 C31.526,3.369 31.116,3.486 30.762,3.718 L30.549,3.03 C30.987,2.759 31.528,2.623 32.166,2.623 C33.398,2.623 34.016,3.273 34.016,4.573 L34.016,6.309 C34.016,6.78 34.039,7.155 34.084,7.433 L34.084,7.433 Z M32.996,5.813 L32.996,5.086 C31.84,5.066 31.262,5.383 31.262,6.036 C31.262,6.282 31.328,6.466 31.463,6.589 C31.598,6.712 31.77,6.773 31.975,6.773 C32.205,6.773 32.42,6.7 32.616,6.555 C32.813,6.409 32.934,6.224 32.979,5.997 C32.99,5.946 32.996,5.884 32.996,5.813 L32.996,5.813 Z"></path>
                            <path d="M38.342,3.641 C38.238,3.621 38.129,3.612 38.012,3.612 C37.645,3.612 37.36,3.751 37.158,4.029 C36.984,4.275 36.896,4.585 36.896,4.96 L36.896,7.434 L35.85,7.434 L35.86,4.204 C35.86,3.661 35.846,3.166 35.821,2.72 L36.733,2.72 L36.772,3.622 L36.801,3.622 C36.91,3.311 37.084,3.062 37.324,2.875 C37.556,2.707 37.808,2.623 38.08,2.623 C38.178,2.623 38.266,2.629 38.342,2.642 L38.342,3.641 L38.342,3.641 Z"></path>
                            <path d="M43.812,2.719 C43.787,3.101 43.773,3.547 43.773,4.058 L43.773,6.754 C43.773,7.769 43.546,8.481 43.095,8.888 C42.681,9.263 42.099,9.45 41.349,9.45 C40.695,9.45 40.167,9.327 39.767,9.081 L40.009,8.276 C40.404,8.515 40.851,8.635 41.349,8.635 C42.273,8.635 42.736,8.137 42.736,7.141 L42.736,6.685 L42.716,6.685 C42.425,7.164 41.962,7.403 41.329,7.403 C40.759,7.403 40.29,7.187 39.923,6.753 C39.554,6.32 39.37,5.77 39.37,5.104 C39.37,4.348 39.583,3.736 40.009,3.271 C40.404,2.838 40.886,2.621 41.454,2.621 C42.095,2.621 42.554,2.87 42.833,3.368 L42.851,3.368 L42.89,2.718 L43.812,2.718 L43.812,2.719 Z M42.727,5.416 L42.727,4.582 C42.727,4.265 42.627,3.994 42.43,3.767 C42.231,3.54 41.971,3.428 41.645,3.428 C41.288,3.428 40.995,3.576 40.764,3.874 C40.534,4.172 40.418,4.569 40.418,5.067 C40.418,5.52 40.525,5.885 40.74,6.163 C40.959,6.467 41.261,6.619 41.644,6.619 C41.878,6.619 42.087,6.55 42.273,6.411 C42.459,6.272 42.589,6.083 42.668,5.844 C42.707,5.726 42.727,5.583 42.727,5.416 L42.727,5.416 Z"></path>
                            <path d="M49.516,4.853 C49.516,5.041 49.502,5.199 49.477,5.328 L46.334,5.328 C46.348,5.794 46.498,6.149 46.789,6.395 C47.055,6.615 47.398,6.725 47.818,6.725 C48.283,6.725 48.707,6.651 49.089,6.502 L49.253,7.23 C48.806,7.424 48.28,7.521 47.671,7.521 C46.941,7.521 46.366,7.306 45.95,6.876 C45.532,6.446 45.325,5.869 45.325,5.145 C45.325,4.434 45.518,3.842 45.907,3.37 C46.313,2.866 46.862,2.614 47.555,2.614 C48.233,2.614 48.748,2.866 49.096,3.37 C49.377,3.77 49.516,4.265 49.516,4.853 L49.516,4.853 Z M48.516,4.582 C48.524,4.271 48.455,4.003 48.313,3.777 C48.131,3.486 47.854,3.34 47.479,3.34 C47.137,3.34 46.858,3.482 46.645,3.767 C46.471,3.994 46.368,4.265 46.334,4.582 L48.516,4.582 L48.516,4.582 Z"></path>
                            <path d="M53.531,3.641 C53.427,3.621 53.318,3.612 53.201,3.612 C52.832,3.612 52.549,3.751 52.347,4.029 C52.173,4.275 52.085,4.585 52.085,4.96 L52.085,7.434 L51.036,7.434 L51.046,4.204 C51.046,3.661 51.034,3.166 51.009,2.72 L51.919,2.72 L51.958,3.622 L51.987,3.622 C52.096,3.311 52.272,3.062 52.51,2.875 C52.744,2.707 52.996,2.623 53.268,2.623 C53.364,2.623 53.452,2.629 53.53,2.642 L53.53,3.641 L53.531,3.641 Z"></path>
                            <path d="M61.893,7.433 L60.961,7.433 L60.912,6.676 L60.883,6.676 C60.586,7.252 60.082,7.54 59.371,7.54 C58.801,7.54 58.33,7.317 57.955,6.871 C57.58,6.425 57.393,5.846 57.393,5.135 C57.393,4.372 57.596,3.754 58.002,3.282 C58.397,2.842 58.883,2.622 59.457,2.622 C60.092,2.622 60.535,2.835 60.787,3.262 L60.807,3.262 L60.807,0.556 L61.854,0.556 L61.854,6.163 C61.854,6.622 61.867,7.045 61.893,7.433 L61.893,7.433 Z M60.807,5.445 L60.807,4.659 C60.807,4.523 60.797,4.413 60.778,4.329 C60.719,4.077 60.592,3.865 60.397,3.694 C60.202,3.523 59.969,3.437 59.696,3.437 C59.307,3.437 59.001,3.592 58.776,3.903 C58.551,4.214 58.44,4.611 58.44,5.096 C58.44,5.562 58.547,5.94 58.762,6.231 C58.989,6.541 59.293,6.696 59.676,6.696 C60.02,6.696 60.297,6.567 60.504,6.308 C60.705,6.069 60.807,5.781 60.807,5.445 L60.807,5.445 Z"></path>
                            <path d="M67.246,7.433 L66.305,7.433 L66.229,6.89 L66.2,6.89 C65.876,7.323 65.417,7.54 64.823,7.54 C64.376,7.54 64.016,7.397 63.745,7.113 C63.499,6.855 63.378,6.534 63.378,6.153 C63.378,5.577 63.618,5.138 64.101,4.834 C64.581,4.53 65.259,4.381 66.132,4.388 L66.132,4.3 C66.132,3.679 65.806,3.369 65.155,3.369 C64.69,3.369 64.28,3.486 63.925,3.718 L63.712,3.03 C64.151,2.759 64.691,2.623 65.329,2.623 C66.563,2.623 67.179,3.273 67.179,4.573 L67.179,6.309 C67.178,6.78 67.201,7.155 67.246,7.433 L67.246,7.433 Z M66.16,5.813 L66.16,5.086 C65.002,5.066 64.424,5.383 64.424,6.036 C64.424,6.282 64.492,6.466 64.627,6.589 C64.762,6.712 64.932,6.773 65.137,6.773 C65.369,6.773 65.582,6.7 65.78,6.555 C65.975,6.409 66.096,6.224 66.141,5.997 C66.154,5.946 66.16,5.884 66.16,5.813 L66.16,5.813 Z"></path>
                            <path d="M73.105,7.433 L72.056,7.433 L72.056,4.733 C72.056,3.901 71.74,3.485 71.107,3.485 C70.796,3.485 70.545,3.599 70.349,3.828 C70.156,4.057 70.058,4.327 70.058,4.636 L70.058,7.432 L69.011,7.432 L69.011,4.066 C69.011,3.652 68.997,3.203 68.972,2.717 L69.894,2.717 L69.943,3.454 L69.972,3.454 C70.093,3.225 70.275,3.036 70.515,2.885 C70.798,2.709 71.117,2.62 71.464,2.62 C71.905,2.62 72.271,2.762 72.562,3.047 C72.923,3.396 73.105,3.917 73.105,4.609 L73.105,7.433 L73.105,7.433 Z"></path>
                            <path d="M77.83,6.079 C77.83,6.517 77.668,6.869 77.346,7.134 C77.022,7.399 76.576,7.531 76.006,7.531 C75.469,7.531 75.014,7.424 74.639,7.211 L74.862,6.435 C75.225,6.655 75.61,6.765 76.016,6.765 C76.553,6.765 76.821,6.568 76.821,6.173 C76.821,5.999 76.764,5.855 76.647,5.741 C76.53,5.628 76.323,5.516 76.026,5.407 C75.186,5.096 74.766,4.644 74.766,4.049 C74.766,3.642 74.92,3.302 75.231,3.03 C75.542,2.758 75.952,2.623 76.463,2.623 C76.928,2.623 77.326,2.718 77.656,2.908 L77.431,3.661 C77.128,3.48 76.808,3.39 76.472,3.39 C76.251,3.39 76.079,3.442 75.956,3.545 C75.835,3.649 75.772,3.78 75.772,3.942 C75.772,4.103 75.836,4.235 75.965,4.338 C76.076,4.435 76.289,4.541 76.606,4.657 C77.422,4.966 77.83,5.44 77.83,6.079 L77.83,6.079 Z"></path>
                        </g>
                    </g>
                </g>
            </g>
        </g>
    </g>
</svg>