<?xml version="1.0" encoding="UTF-8" standalone="no"?>
<svg width="135px" height="40px" viewBox="0 0 135 40" version="1.1" xmlns="http://www.w3.org/2000/svg" xmlns:xlink="http://www.w3.org/1999/xlink">
    <!-- Generator: Sketch 39.1 (31720) - http://www.bohemiancoding.com/sketch -->
    <title>apple italian</title>
    <desc>Created with Sketch.</desc>
    <defs></defs>
    <g id="apps" stroke="none" stroke-width="1" fill="none" fill-rule="evenodd">
        <g id="localized-badges" transform="translate(-30.000000, -385.000000)">
            <g id="apple-italian" transform="translate(30.000000, 385.000000)">
                <g id="IT_Download_on_the_App_Store">
                    <g id="Group">
                        <path d="M130.197,40 L4.729,40 C2.122,40 0,37.872 0,35.267 L0,4.726 C0,2.12 2.122,0 4.729,0 L130.197,0 C132.803,0 135,2.12 135,4.726 L135,35.267 C135,37.872 132.803,40 130.197,40 L130.197,40 L130.197,40 Z" id="Shape" fill="#DEDEDE"></path>
                        <path d="M134.032,35.268 C134.032,37.384 132.318,39.098 130.198,39.098 L4.729,39.098 C2.61,39.098 0.89,37.384 0.89,35.268 L0.89,4.725 C0.89,2.61 2.61,0.89 4.729,0.89 L130.197,0.89 C132.318,0.89 134.031,2.61 134.031,4.725 L134.032,35.268 L134.032,35.268 L134.032,35.268 Z" id="Shape" fill="#000000"></path>
                        <g transform="translate(12.000000, 6.000000)" id="Shape" fill="#FFFFFF">
                            <path d="M18.133,13.784 C18.104,10.561 20.772,8.993 20.894,8.92 C19.383,6.717 17.041,6.416 16.218,6.392 C14.251,6.185 12.343,7.569 11.341,7.569 C10.319,7.569 8.776,6.412 7.113,6.446 C4.973,6.479 2.971,7.718 1.873,9.642 C-0.393,13.565 1.297,19.33 3.468,22.501 C4.554,24.054 5.823,25.788 7.484,25.727 C9.109,25.66 9.716,24.691 11.677,24.691 C13.62,24.691 14.19,25.727 15.884,25.688 C17.628,25.66 18.726,24.128 19.774,22.561 C21.029,20.781 21.533,19.028 21.553,18.938 C21.513,18.924 18.167,17.647 18.133,13.784 L18.133,13.784 Z"></path>
                            <path d="M14.933,4.306 C15.807,3.213 16.405,1.726 16.239,0.217 C14.974,0.273 13.392,1.092 12.481,2.161 C11.675,3.103 10.955,4.647 11.141,6.099 C12.562,6.205 14.021,5.382 14.933,4.306 L14.933,4.306 Z"></path>
                        </g>
                        <g transform="translate(42.000000, 18.000000)" id="Shape" fill="#FFFFFF">
                            <path d="M11.649,13.504 L9.378,13.504 L8.134,9.595 L3.81,9.595 L2.625,13.504 L0.414,13.504 L4.698,0.196 L7.344,0.196 L11.649,13.504 L11.649,13.504 Z M7.759,7.955 L6.634,4.48 C6.515,4.125 6.292,3.289 5.963,1.973 L5.923,1.973 C5.792,2.539 5.581,3.375 5.291,4.48 L4.186,7.955 L7.759,7.955 L7.759,7.955 Z"></path>
                            <path d="M22.666,8.588 C22.666,10.22 22.225,11.51 21.343,12.457 C20.553,13.3 19.572,13.721 18.401,13.721 C17.137,13.721 16.229,13.267 15.676,12.359 L15.636,12.359 L15.636,17.414 L13.504,17.414 L13.504,7.067 C13.504,6.041 13.477,4.988 13.425,3.908 L15.3,3.908 L15.419,5.429 L15.459,5.429 C16.17,4.283 17.249,3.711 18.697,3.711 C19.829,3.711 20.774,4.158 21.53,5.053 C22.288,5.949 22.666,7.127 22.666,8.588 L22.666,8.588 Z M20.494,8.666 C20.494,7.732 20.284,6.962 19.862,6.356 C19.401,5.724 18.782,5.408 18.006,5.408 C17.48,5.408 17.002,5.584 16.575,5.931 C16.147,6.281 15.867,6.738 15.736,7.304 C15.67,7.568 15.637,7.784 15.637,7.954 L15.637,9.554 C15.637,10.252 15.851,10.841 16.279,11.322 C16.707,11.803 17.263,12.043 17.947,12.043 C18.75,12.043 19.375,11.733 19.822,11.115 C20.27,10.496 20.494,9.68 20.494,8.666 L20.494,8.666 Z"></path>
                            <path d="M33.703,8.588 C33.703,10.22 33.262,11.51 32.379,12.457 C31.59,13.3 30.609,13.721 29.438,13.721 C28.174,13.721 27.266,13.267 26.714,12.359 L26.675,12.359 L26.675,17.414 L24.543,17.414 L24.543,7.067 C24.543,6.041 24.516,4.988 24.464,3.908 L26.339,3.908 L26.458,5.429 L26.498,5.429 C27.208,4.283 28.287,3.711 29.736,3.711 C30.867,3.711 31.812,4.158 32.57,5.053 C33.324,5.949 33.703,7.127 33.703,8.588 L33.703,8.588 Z M31.531,8.666 C31.531,7.732 31.32,6.962 30.898,6.356 C30.437,5.724 29.82,5.408 29.043,5.408 C28.516,5.408 28.039,5.584 27.611,5.931 C27.183,6.281 26.904,6.738 26.773,7.304 C26.708,7.568 26.674,7.784 26.674,7.954 L26.674,9.554 C26.674,10.252 26.888,10.841 27.314,11.322 C27.742,11.802 28.298,12.043 28.984,12.043 C29.787,12.043 30.412,11.733 30.859,11.115 C31.307,10.496 31.531,9.68 31.531,8.666 L31.531,8.666 Z"></path>
                            <path d="M46.043,9.772 C46.043,10.904 45.65,11.825 44.861,12.536 C43.994,13.313 42.787,13.701 41.236,13.701 C39.804,13.701 38.656,13.425 37.787,12.872 L38.281,11.095 C39.217,11.661 40.244,11.945 41.363,11.945 C42.166,11.945 42.791,11.763 43.24,11.401 C43.687,11.039 43.91,10.553 43.91,9.947 C43.91,9.407 43.726,8.952 43.357,8.583 C42.99,8.214 42.377,7.871 41.521,7.554 C39.191,6.685 38.027,5.412 38.027,3.738 C38.027,2.644 38.435,1.747 39.252,1.049 C40.066,0.35 41.152,0.001 42.51,0.001 C43.721,0.001 44.727,0.212 45.53,0.633 L44.997,2.371 C44.247,1.963 43.399,1.759 42.45,1.759 C41.7,1.759 41.114,1.944 40.694,2.312 C40.339,2.641 40.161,3.042 40.161,3.517 C40.161,4.043 40.364,4.478 40.772,4.82 C41.127,5.136 41.772,5.478 42.708,5.847 C43.853,6.308 44.694,6.847 45.235,7.465 C45.773,8.081 46.043,8.852 46.043,9.772 L46.043,9.772 Z"></path>
                            <path d="M53.092,5.508 L50.742,5.508 L50.742,10.167 C50.742,11.352 51.156,11.944 51.986,11.944 C52.367,11.944 52.683,11.911 52.933,11.845 L52.992,13.464 C52.572,13.621 52.019,13.7 51.334,13.7 C50.492,13.7 49.834,13.443 49.359,12.93 C48.886,12.416 48.648,11.554 48.648,10.343 L48.648,5.506 L47.248,5.506 L47.248,3.906 L48.648,3.906 L48.648,2.149 L50.742,1.517 L50.742,3.906 L53.092,3.906 L53.092,5.508 L53.092,5.508 Z"></path>
                            <path d="M63.695,8.627 C63.695,10.102 63.273,11.313 62.431,12.26 C61.548,13.235 60.376,13.721 58.915,13.721 C57.507,13.721 56.386,13.254 55.55,12.32 C54.714,11.386 54.296,10.207 54.296,8.786 C54.296,7.299 54.726,6.081 55.589,5.134 C56.45,4.186 57.612,3.712 59.073,3.712 C60.481,3.712 61.614,4.179 62.469,5.114 C63.287,6.021 63.695,7.192 63.695,8.627 L63.695,8.627 Z M61.482,8.696 C61.482,7.811 61.293,7.052 60.91,6.419 C60.463,5.653 59.824,5.271 58.996,5.271 C58.139,5.271 57.488,5.654 57.041,6.419 C56.658,7.053 56.469,7.824 56.469,8.736 C56.469,9.621 56.658,10.38 57.041,11.012 C57.502,11.778 58.146,12.16 58.977,12.16 C59.791,12.16 60.43,11.77 60.891,10.992 C61.285,10.347 61.482,9.58 61.482,8.696 L61.482,8.696 Z"></path>
                            <path d="M70.625,5.783 C70.414,5.744 70.189,5.724 69.953,5.724 C69.203,5.724 68.623,6.007 68.215,6.574 C67.86,7.074 67.682,7.706 67.682,8.469 L67.682,13.504 L65.551,13.504 L65.571,6.93 C65.571,5.824 65.544,4.817 65.491,3.909 L67.348,3.909 L67.426,5.745 L67.485,5.745 C67.71,5.114 68.065,4.606 68.551,4.225 C69.026,3.882 69.539,3.711 70.092,3.711 C70.289,3.711 70.467,3.725 70.625,3.75 L70.625,5.783 L70.625,5.783 Z"></path>
                            <path d="M80.16,8.252 C80.16,8.634 80.135,8.956 80.082,9.219 L73.686,9.219 C73.711,10.167 74.02,10.892 74.614,11.392 C75.153,11.839 75.85,12.063 76.706,12.063 C77.653,12.063 78.517,11.912 79.294,11.609 L79.628,13.089 C78.72,13.485 77.648,13.682 76.411,13.682 C74.923,13.682 73.755,13.244 72.905,12.369 C72.057,11.494 71.632,10.319 71.632,8.845 C71.632,7.398 72.027,6.193 72.818,5.232 C73.646,4.206 74.765,3.693 76.173,3.693 C77.556,3.693 78.603,4.206 79.314,5.232 C79.877,6.047 80.16,7.055 80.16,8.252 L80.16,8.252 Z M78.127,7.699 C78.141,7.067 78.002,6.521 77.713,6.06 C77.344,5.467 76.777,5.171 76.014,5.171 C75.317,5.171 74.75,5.46 74.317,6.04 C73.962,6.501 73.751,7.054 73.686,7.698 L78.127,7.698 L78.127,7.699 Z"></path>
                        </g>
                        <g transform="translate(43.000000, 6.000000)" id="Shape" fill="#FFFFFF">
                            <path d="M4.424,5.6 C4.424,6.157 4.231,6.609 3.844,6.958 C3.418,7.339 2.824,7.53 2.063,7.53 C1.36,7.53 0.794,7.394 0.369,7.122 L0.611,6.249 C1.071,6.527 1.575,6.666 2.126,6.666 C2.521,6.666 2.827,6.577 3.048,6.398 C3.268,6.22 3.377,5.982 3.377,5.684 C3.377,5.418 3.287,5.195 3.106,5.014 C2.925,4.833 2.625,4.664 2.205,4.509 C1.06,4.082 0.488,3.457 0.488,2.634 C0.488,2.096 0.688,1.656 1.089,1.313 C1.49,0.97 2.024,0.798 2.69,0.798 C3.285,0.798 3.78,0.902 4.174,1.109 L3.912,1.963 C3.543,1.762 3.126,1.662 2.66,1.662 C2.292,1.662 2.004,1.753 1.797,1.933 C1.623,2.095 1.535,2.292 1.535,2.525 C1.535,2.784 1.636,2.997 1.836,3.165 C2.011,3.32 2.327,3.489 2.787,3.669 C3.349,3.896 3.763,4.161 4.028,4.464 C4.292,4.769 4.424,5.147 4.424,5.6 L4.424,5.6 Z"></path>
                            <path d="M9.39,2.845 L9.187,3.64 C8.921,3.511 8.618,3.446 8.275,3.446 C7.816,3.446 7.452,3.6 7.183,3.907 C6.915,4.214 6.781,4.604 6.781,5.076 C6.781,5.574 6.922,5.968 7.203,6.259 C7.484,6.55 7.842,6.696 8.275,6.696 C8.598,6.696 8.915,6.632 9.225,6.502 L9.371,7.288 C9.028,7.45 8.596,7.531 8.071,7.531 C7.353,7.531 6.781,7.313 6.354,6.876 C5.927,6.439 5.714,5.856 5.714,5.125 C5.714,4.395 5.943,3.794 6.402,3.326 C6.861,2.858 7.478,2.623 8.255,2.623 C8.695,2.622 9.074,2.696 9.39,2.845 L9.39,2.845 Z"></path>
                            <path d="M14.356,7.433 L13.415,7.433 L13.338,6.89 L13.309,6.89 C12.986,7.323 12.527,7.54 11.932,7.54 C11.486,7.54 11.126,7.397 10.855,7.113 C10.609,6.855 10.487,6.534 10.487,6.153 C10.487,5.577 10.727,5.138 11.21,4.834 C11.691,4.53 12.369,4.381 13.242,4.388 L13.242,4.3 C13.242,3.679 12.916,3.369 12.264,3.369 C11.799,3.369 11.389,3.486 11.035,3.718 L10.822,3.03 C11.26,2.759 11.801,2.623 12.439,2.623 C13.672,2.623 14.289,3.273 14.289,4.573 L14.289,6.309 C14.288,6.78 14.311,7.155 14.356,7.433 L14.356,7.433 Z M13.269,5.813 L13.269,5.086 C12.112,5.066 11.534,5.383 11.534,6.036 C11.534,6.282 11.601,6.466 11.736,6.589 C11.871,6.712 12.042,6.773 12.247,6.773 C12.478,6.773 12.692,6.7 12.889,6.555 C13.086,6.41 13.206,6.224 13.251,5.997 C13.263,5.946 13.269,5.884 13.269,5.813 L13.269,5.813 Z"></path>
                            <path d="M18.615,3.641 C18.511,3.621 18.402,3.612 18.285,3.612 C17.917,3.612 17.633,3.751 17.431,4.029 C17.257,4.275 17.169,4.585 17.169,4.96 L17.169,7.434 L16.121,7.434 L16.131,4.204 C16.131,3.661 16.118,3.166 16.093,2.72 L17.004,2.72 L17.043,3.622 L17.072,3.622 C17.181,3.311 17.356,3.062 17.595,2.875 C17.828,2.707 18.08,2.623 18.352,2.623 C18.449,2.623 18.537,2.629 18.614,2.642 L18.614,3.641 L18.615,3.641 Z"></path>
                            <path d="M21.117,1.312 C21.117,1.5 21.055,1.651 20.933,1.768 C20.81,1.885 20.652,1.943 20.457,1.943 C20.282,1.943 20.135,1.883 20.016,1.764 C19.896,1.644 19.836,1.494 19.836,1.313 C19.836,1.132 19.898,0.983 20.021,0.867 C20.144,0.751 20.295,0.692 20.477,0.692 C20.658,0.692 20.81,0.751 20.933,0.867 C21.055,0.982 21.117,1.131 21.117,1.312 L21.117,1.312 Z M21,7.433 L19.952,7.433 L19.952,2.719 L21,2.719 L21,7.433 L21,7.433 Z"></path>
                            <path d="M26.229,2.845 L26.026,3.64 C25.76,3.511 25.456,3.446 25.113,3.446 C24.654,3.446 24.29,3.6 24.021,3.907 C23.753,4.214 23.619,4.604 23.619,5.076 C23.619,5.574 23.76,5.968 24.041,6.259 C24.322,6.55 24.68,6.696 25.113,6.696 C25.436,6.696 25.753,6.632 26.063,6.502 L26.209,7.288 C25.866,7.45 25.433,7.531 24.909,7.531 C24.191,7.531 23.619,7.313 23.192,6.876 C22.765,6.439 22.552,5.856 22.552,5.125 C22.552,4.395 22.781,3.794 23.24,3.326 C23.699,2.858 24.316,2.623 25.093,2.623 C25.533,2.622 25.912,2.696 26.229,2.845 L26.229,2.845 Z"></path>
                            <path d="M31.193,7.433 L30.252,7.433 L30.176,6.89 L30.147,6.89 C29.823,7.323 29.364,7.54 28.77,7.54 C28.323,7.54 27.963,7.397 27.692,7.113 C27.446,6.855 27.325,6.534 27.325,6.153 C27.325,5.577 27.565,5.138 28.048,4.834 C28.528,4.53 29.206,4.381 30.079,4.388 L30.079,4.3 C30.079,3.679 29.753,3.369 29.102,3.369 C28.637,3.369 28.227,3.486 27.872,3.718 L27.659,3.03 C28.098,2.759 28.638,2.623 29.276,2.623 C30.51,2.623 31.126,3.273 31.126,4.573 L31.126,6.309 C31.125,6.78 31.148,7.155 31.193,7.433 L31.193,7.433 Z M30.107,5.813 L30.107,5.086 C28.949,5.066 28.371,5.383 28.371,6.036 C28.371,6.282 28.439,6.466 28.574,6.589 C28.709,6.712 28.879,6.773 29.084,6.773 C29.316,6.773 29.529,6.7 29.727,6.555 C29.922,6.409 30.043,6.224 30.088,5.997 C30.102,5.946 30.107,5.884 30.107,5.813 L30.107,5.813 Z"></path>
                            <path d="M38.672,6.079 C38.672,6.517 38.512,6.869 38.188,7.134 C37.866,7.399 37.418,7.531 36.85,7.531 C36.313,7.531 35.858,7.424 35.483,7.211 L35.706,6.435 C36.067,6.655 36.452,6.765 36.86,6.765 C37.397,6.765 37.665,6.568 37.665,6.173 C37.665,5.999 37.606,5.855 37.491,5.741 C37.374,5.628 37.167,5.516 36.87,5.407 C36.028,5.096 35.608,4.644 35.608,4.049 C35.608,3.642 35.764,3.302 36.073,3.03 C36.384,2.759 36.796,2.623 37.305,2.623 C37.772,2.623 38.168,2.718 38.498,2.908 L38.275,3.66 C37.97,3.479 37.65,3.389 37.314,3.389 C37.095,3.389 36.923,3.441 36.8,3.544 C36.677,3.648 36.616,3.779 36.616,3.941 C36.616,4.102 36.68,4.234 36.809,4.337 C36.918,4.434 37.131,4.54 37.45,4.656 C38.266,4.966 38.672,5.44 38.672,6.079 L38.672,6.079 Z"></path>
                            <path d="M44.309,7.433 L43.387,7.433 L43.328,6.715 L43.308,6.715 C42.978,7.265 42.48,7.54 41.814,7.54 C41.349,7.54 40.978,7.394 40.699,7.103 C40.369,6.747 40.205,6.21 40.205,5.493 L40.205,2.719 L41.252,2.719 L41.252,5.319 C41.252,6.225 41.563,6.677 42.184,6.677 C42.651,6.677 42.973,6.451 43.155,5.998 C43.2,5.882 43.223,5.749 43.223,5.6 L43.223,2.719 L44.27,2.719 L44.27,6.075 C44.27,6.521 44.283,6.974 44.309,7.433 L44.309,7.433 Z"></path>
                        </g>
                    </g>
                </g>
            </g>
        </g>
    </g>
</svg>