<?xml version="1.0" encoding="UTF-8" standalone="no"?>
<svg width="135px" height="40px" viewBox="0 0 135 40" version="1.1" xmlns="http://www.w3.org/2000/svg" xmlns:xlink="http://www.w3.org/1999/xlink">
    <!-- Generator: Sketch 39.1 (31720) - http://www.bohemiancoding.com/sketch -->
    <title>apple traditional-tw chinese</title>
    <desc>Created with Sketch.</desc>
    <defs></defs>
    <g id="apps" stroke="none" stroke-width="1" fill="none" fill-rule="evenodd">
        <g id="localized-badges" transform="translate(-30.000000, -167.000000)">
            <g id="apple-traditional-tw-chinese" transform="translate(30.000000, 167.000000)">
                <g id="TC_Download_on_the">
                    <g id="Group">
                        <path d="M130.197,40 L4.729,40 C2.122,40 0,37.872 0,35.267 L0,4.726 C0,2.12 2.122,0 4.729,0 L130.197,0 C132.803,0 135,2.12 135,4.726 L135,35.267 C135,37.872 132.803,40 130.197,40 L130.197,40 L130.197,40 Z" id="Shape" fill="#DEDEDE"></path>
                        <path d="M134.032,35.268 C134.032,37.384 132.318,39.098 130.198,39.098 L4.729,39.098 C2.61,39.098 0.89,37.384 0.89,35.268 L0.89,4.725 C0.89,2.61 2.61,0.89 4.729,0.89 L130.197,0.89 C132.318,0.89 134.031,2.61 134.031,4.725 L134.032,35.268 L134.032,35.268 L134.032,35.268 Z" id="Shape" fill="#000000"></path>
                        <g transform="translate(12.000000, 6.000000)" id="Shape" fill="#FFFFFF">
                            <path d="M18.128,13.784 C18.099,10.561 20.767,8.993 20.889,8.92 C19.378,6.717 17.036,6.416 16.213,6.392 C14.246,6.185 12.338,7.569 11.336,7.569 C10.314,7.569 8.771,6.412 7.108,6.446 C4.968,6.479 2.966,7.718 1.868,9.642 C-0.398,13.565 1.292,19.33 3.463,22.501 C4.549,24.054 5.818,25.788 7.479,25.727 C9.104,25.66 9.711,24.691 11.672,24.691 C13.615,24.691 14.185,25.727 15.879,25.688 C17.623,25.66 18.721,24.128 19.769,22.561 C21.024,20.781 21.528,19.028 21.548,18.938 C21.507,18.924 18.161,17.647 18.128,13.784 L18.128,13.784 Z"></path>
                            <path d="M14.928,4.306 C15.802,3.213 16.4,1.726 16.234,0.217 C14.969,0.273 13.387,1.092 12.476,2.161 C11.67,3.103 10.95,4.647 11.136,6.099 C12.557,6.205 14.016,5.382 14.928,4.306 L14.928,4.306 Z"></path>
                        </g>
                        <g transform="translate(44.000000, 5.000000)" id="Shape" fill="#FFFFFF">
                            <path d="M10.006,12.03 L8,12.03 L6.9,8.575 L3.079,8.575 L2.032,12.03 L0.077,12.03 L3.864,0.269 L6.202,0.269 L10.006,12.03 L10.006,12.03 Z M6.568,7.127 L5.573,4.056 C5.469,3.742 5.271,3.003 4.98,1.84 L4.945,1.84 C4.828,2.34 4.642,3.079 4.386,4.056 L3.409,7.127 L6.568,7.127 L6.568,7.127 Z"></path>
                            <path d="M19.742,7.685 C19.742,9.128 19.353,10.268 18.574,11.105 C17.875,11.85 17.01,12.222 15.972,12.222 C14.857,12.222 14.054,11.821 13.566,11.018 L13.531,11.018 L13.531,15.485 L11.646,15.485 L11.646,6.341 C11.646,5.433 11.623,4.503 11.576,3.549 L13.234,3.549 L13.339,4.893 L13.373,4.893 C14.002,3.881 14.955,3.374 16.234,3.374 C17.236,3.374 18.07,3.77 18.74,4.561 C19.408,5.353 19.742,6.394 19.742,7.685 L19.742,7.685 Z M17.824,7.755 C17.824,6.929 17.636,6.249 17.265,5.713 C16.857,5.155 16.31,4.876 15.624,4.876 C15.159,4.876 14.737,5.03 14.358,5.338 C13.979,5.646 13.733,6.05 13.616,6.551 C13.557,6.783 13.53,6.976 13.53,7.127 L13.53,8.541 C13.53,9.158 13.718,9.678 14.096,10.103 C14.475,10.528 14.965,10.74 15.571,10.74 C16.28,10.74 16.833,10.467 17.229,9.92 C17.625,9.372 17.824,8.651 17.824,7.755 L17.824,7.755 Z"></path>
                            <path d="M29.497,7.685 C29.497,9.128 29.107,10.268 28.328,11.105 C27.63,11.85 26.764,12.222 25.727,12.222 C24.611,12.222 23.808,11.821 23.32,11.018 L23.285,11.018 L23.285,15.485 L21.4,15.485 L21.4,6.341 C21.4,5.433 21.377,4.503 21.331,3.549 L22.988,3.549 L23.092,4.893 L23.127,4.893 C23.755,3.881 24.709,3.374 25.988,3.374 C26.989,3.374 27.823,3.77 28.493,4.561 C29.162,5.353 29.497,6.394 29.497,7.685 L29.497,7.685 Z M27.578,7.755 C27.578,6.929 27.391,6.249 27.019,5.713 C26.612,5.155 26.065,4.876 25.378,4.876 C24.913,4.876 24.491,5.03 24.113,5.338 C23.734,5.646 23.487,6.05 23.371,6.551 C23.312,6.783 23.284,6.976 23.284,7.127 L23.284,8.541 C23.284,9.158 23.472,9.678 23.851,10.103 C24.229,10.528 24.72,10.74 25.325,10.74 C26.035,10.74 26.588,10.467 26.983,9.92 C27.378,9.373 27.578,8.651 27.578,7.755 L27.578,7.755 Z"></path>
                            <path d="M42.759,8.732 C42.759,9.732 42.41,10.546 41.714,11.175 C40.948,11.862 39.88,12.204 38.511,12.204 C37.245,12.204 36.23,11.96 35.463,11.471 L35.899,9.901 C36.725,10.401 37.633,10.651 38.623,10.651 C39.333,10.651 39.886,10.491 40.281,10.17 C40.677,9.85 40.875,9.421 40.875,8.885 C40.875,8.407 40.712,8.006 40.387,7.679 C40.061,7.353 39.52,7.05 38.764,6.77 C36.704,6.001 35.675,4.876 35.675,3.396 C35.675,2.429 36.035,1.637 36.757,1.019 C37.478,0.401 38.438,0.093 39.636,0.093 C40.706,0.093 41.596,0.279 42.306,0.651 L41.835,2.187 C41.172,1.827 40.421,1.646 39.584,1.646 C38.921,1.646 38.403,1.809 38.03,2.135 C37.717,2.426 37.559,2.781 37.559,3.199 C37.559,3.664 37.74,4.048 38.1,4.351 C38.414,4.63 38.984,4.933 39.81,5.258 C40.822,5.665 41.567,6.142 42.043,6.689 C42.52,7.238 42.759,7.918 42.759,8.732 L42.759,8.732 Z"></path>
                            <path d="M48.988,4.963 L46.911,4.963 L46.911,9.081 C46.911,10.128 47.278,10.652 48.011,10.652 C48.349,10.652 48.627,10.623 48.849,10.565 L48.902,11.996 C48.529,12.135 48.041,12.205 47.436,12.205 C46.691,12.205 46.11,11.978 45.691,11.525 C45.272,11.071 45.062,10.309 45.062,9.239 L45.062,4.963 L43.824,4.963 L43.824,3.55 L45.062,3.55 L45.062,1.997 L46.912,1.439 L46.912,3.55 L48.989,3.55 L48.989,4.963 L48.988,4.963 Z"></path>
                            <path d="M58.358,7.72 C58.358,9.023 57.985,10.093 57.241,10.931 C56.462,11.792 55.427,12.222 54.136,12.222 C52.891,12.222 51.899,11.809 51.16,10.983 C50.421,10.157 50.052,9.116 50.052,7.859 C50.052,6.545 50.433,5.468 51.196,4.63 C51.958,3.793 52.984,3.374 54.275,3.374 C55.52,3.374 56.52,3.787 57.277,4.613 C57.997,5.417 58.358,6.452 58.358,7.72 L58.358,7.72 Z M56.403,7.781 C56.403,6.999 56.235,6.328 55.897,5.769 C55.501,5.092 54.937,4.754 54.205,4.754 C53.448,4.754 52.873,5.092 52.477,5.769 C52.139,6.329 51.971,7.011 51.971,7.816 C51.971,8.598 52.139,9.269 52.477,9.829 C52.884,10.506 53.455,10.844 54.187,10.844 C54.909,10.844 55.472,10.5 55.879,9.811 C56.229,9.24 56.403,8.563 56.403,7.781 L56.403,7.781 Z"></path>
                            <path d="M64.482,5.208 C64.296,5.173 64.098,5.156 63.889,5.156 C63.226,5.156 62.713,5.406 62.353,5.906 C62.04,6.348 61.882,6.907 61.882,7.581 L61.882,12.031 L59.997,12.031 L60.015,6.22 C60.015,5.242 59.992,4.353 59.945,3.55 L61.586,3.55 L61.656,5.173 L61.708,5.173 C61.906,4.615 62.22,4.167 62.65,3.83 C63.069,3.527 63.523,3.376 64.011,3.376 C64.186,3.376 64.342,3.388 64.482,3.411 L64.482,5.208 L64.482,5.208 Z"></path>
                            <path d="M72.91,7.389 C72.91,7.726 72.887,8.012 72.841,8.244 L67.188,8.244 C67.21,9.081 67.484,9.722 68.007,10.163 C68.485,10.559 69.101,10.756 69.857,10.756 C70.695,10.756 71.457,10.623 72.143,10.355 L72.44,11.664 C71.637,12.013 70.689,12.187 69.595,12.187 C68.281,12.187 67.248,11.8 66.498,11.026 C65.747,10.253 65.372,9.214 65.372,7.911 C65.372,6.632 65.722,5.567 66.419,4.718 C67.152,3.811 68.141,3.357 69.386,3.357 C70.608,3.357 71.532,3.811 72.16,4.718 C72.66,5.44 72.91,6.33 72.91,7.389 L72.91,7.389 Z M71.113,6.9 C71.125,6.342 71.003,5.859 70.747,5.452 C70.421,4.929 69.921,4.667 69.246,4.667 C68.63,4.667 68.129,4.923 67.745,5.435 C67.432,5.843 67.245,6.331 67.187,6.901 L71.113,6.901 L71.113,6.9 Z"></path>
                        </g>
                        <g transform="translate(44.000000, 21.000000)" id="Shape" fill="#FFFFFF">
                            <path d="M5.143,14.291 L5.143,3.205 L0.164,3.205 L0.164,2.109 L12.509,2.124 L12.494,3.205 L6.3,3.205 L6.285,14.291 L5.143,14.291 L5.143,14.291 Z M10.597,10.602 C10.31,10.206 10.006,9.85 9.685,9.534 C9.365,9.219 9.043,8.934 8.722,8.682 C8.401,8.43 8.087,8.21 7.781,8.022 C7.475,7.834 7.193,7.667 6.936,7.518 L7.44,6.674 C7.915,6.852 8.346,7.065 8.737,7.311 C9.128,7.559 9.506,7.834 9.871,8.141 C10.138,8.369 10.399,8.616 10.656,8.882 C10.913,9.148 11.17,9.43 11.427,9.727 L10.597,10.602 L10.597,10.602 Z"></path>
                            <path d="M24.394,0.927 C24.394,1.155 24.396,1.342 24.401,1.49 C24.406,1.638 24.414,1.797 24.423,1.965 L25.09,1.326 C25.584,1.505 26.018,1.757 26.387,2.082 C26.758,2.408 27.102,2.779 27.418,3.194 C27.338,3.322 27.244,3.436 27.135,3.535 C27.028,3.634 26.918,3.738 26.809,3.846 L27.817,3.846 L27.817,4.899 L24.543,4.899 C24.621,5.749 24.708,6.549 24.802,7.299 C24.896,8.051 24.988,8.791 25.077,9.523 C25.423,8.901 25.669,8.286 25.817,7.678 C25.965,7.07 26.069,6.381 26.128,5.61 L27.181,5.922 C27.113,6.91 26.935,7.826 26.648,8.671 C26.361,9.517 25.97,10.299 25.478,11.021 C25.605,11.376 25.771,11.732 25.974,12.087 C26.175,12.442 26.431,12.749 26.738,13.006 C26.787,13.036 26.832,13.021 26.871,12.962 C26.92,12.814 26.959,12.648 26.99,12.465 C27.019,12.282 27.035,12.103 27.041,11.925 C27.047,11.746 27.049,11.573 27.049,11.405 C27.049,11.237 27.043,11.094 27.033,10.975 L28.115,11.36 C28.086,11.815 28.039,12.26 27.974,12.694 C27.91,13.13 27.765,13.519 27.536,13.866 C27.348,14.083 27.097,14.201 26.78,14.221 C26.602,14.211 26.434,14.166 26.276,14.087 C26.118,14.008 25.973,13.909 25.838,13.791 C25.705,13.672 25.584,13.541 25.477,13.398 C25.368,13.254 25.268,13.119 25.18,12.99 C25.09,12.851 25.004,12.699 24.921,12.531 C24.837,12.363 24.755,12.21 24.676,12.071 C24.558,12.219 24.405,12.378 24.217,12.545 C24.029,12.714 23.829,12.889 23.616,13.072 C23.403,13.255 23.178,13.434 22.942,13.613 C22.705,13.791 22.472,13.959 22.245,14.117 L21.371,13.271 C21.677,13.093 21.939,12.933 22.156,12.79 C22.374,12.646 22.527,12.535 22.616,12.457 L19.933,12.457 L19.933,14.25 L18.762,14.25 L18.762,12.457 L14.879,12.457 L14.879,11.449 L18.776,11.449 L18.791,10.886 L16.035,10.886 L16.035,7.063 L18.791,7.063 L18.791,6.574 L15.428,6.574 L15.428,5.61 L18.791,5.596 L18.791,4.913 L15.16,4.913 L15.16,3.846 L18.732,3.846 L18.717,3.135 L15.723,3.135 L15.723,2.143 L18.717,2.143 L18.732,0.942 L19.858,0.942 L19.858,2.143 L22.911,2.143 L22.926,3.135 L19.873,3.135 L19.858,3.846 L23.326,3.846 L23.267,0.927 L24.394,0.927 L24.394,0.927 Z M18.792,7.98 L17.103,7.966 L17.103,8.44 L18.778,8.44 L18.792,7.98 L18.792,7.98 Z M18.777,9.33 L17.102,9.33 L17.102,9.967 L18.777,9.967 L18.777,9.33 L18.777,9.33 Z M23.549,11.642 C23.609,11.592 23.707,11.492 23.845,11.338 C23.984,11.185 24.113,11.029 24.231,10.871 C24.102,10.466 23.994,10.021 23.905,9.537 C23.816,9.053 23.74,8.552 23.676,8.033 C23.612,7.513 23.557,6.99 23.513,6.462 C23.468,5.934 23.426,5.422 23.387,4.928 L19.905,4.928 L19.905,5.596 L23.224,5.596 L23.239,6.559 L19.905,6.559 L19.905,7.063 L22.661,7.047 L22.661,10.886 L19.905,10.886 L19.905,11.449 L23.536,11.449 L23.549,11.642 L23.549,11.642 Z M21.593,7.967 L19.904,7.967 L19.904,8.441 L21.593,8.441 L21.593,7.967 L21.593,7.967 Z M21.593,9.314 L19.904,9.33 L19.904,9.967 L21.593,9.967 L21.593,9.314 L21.593,9.314 Z M26.559,3.846 C26.291,3.442 25.983,3.09 25.631,2.794 C25.281,2.498 24.873,2.251 24.409,2.053 C24.429,2.399 24.441,2.723 24.446,3.024 C24.451,3.326 24.464,3.6 24.483,3.846 L26.559,3.846 L26.559,3.846 Z"></path>
                        </g>
                    </g>
                </g>
            </g>
        </g>
    </g>
</svg>