<?xml version="1.0" encoding="UTF-8" standalone="no"?>
<svg width="135px" height="40px" viewBox="0 0 135 40" version="1.1" xmlns="http://www.w3.org/2000/svg" xmlns:xlink="http://www.w3.org/1999/xlink">
    <!-- Generator: Sketch 39.1 (31720) - http://www.bohemiancoding.com/sketch -->
    <title>apple bahasa indonesia</title>
    <desc>Created with Sketch.</desc>
    <defs></defs>
    <g id="apps" stroke="none" stroke-width="1" fill="none" fill-rule="evenodd">
        <g id="localized-badges" transform="translate(-30.000000, -312.000000)">
            <g id="apple-bahasa-indonesia" transform="translate(30.000000, 312.000000)">
                <g id="ID_Download_on_the_App_Store">
                    <g id="Group">
                        <path d="M130.197,40 L4.729,40 C2.122,40 0,37.872 0,35.267 L0,4.726 C0,2.12 2.122,0 4.729,0 L130.197,0 C132.803,0 135,2.12 135,4.726 L135,35.267 C135,37.872 132.803,40 130.197,40 L130.197,40 L130.197,40 Z" id="Shape" fill="#DEDEDE"></path>
                        <path d="M134.032,35.268 C134.032,37.384 132.318,39.098 130.198,39.098 L4.729,39.098 C2.61,39.098 0.89,37.384 0.89,35.268 L0.89,4.725 C0.89,2.61 2.61,0.89 4.729,0.89 L130.197,0.89 C132.318,0.89 134.031,2.61 134.031,4.725 L134.032,35.268 L134.032,35.268 L134.032,35.268 Z" id="Shape" fill="#000000"></path>
                        <g transform="translate(12.000000, 6.000000)" id="Shape" fill="#FFFFFF">
                            <path d="M18.128,13.784 C18.099,10.561 20.767,8.993 20.889,8.92 C19.378,6.717 17.036,6.416 16.213,6.392 C14.246,6.185 12.338,7.569 11.336,7.569 C10.314,7.569 8.771,6.412 7.108,6.446 C4.968,6.479 2.966,7.718 1.868,9.642 C-0.398,13.565 1.292,19.33 3.463,22.501 C4.549,24.054 5.818,25.788 7.479,25.727 C9.104,25.66 9.711,24.691 11.672,24.691 C13.615,24.691 14.185,25.727 15.879,25.688 C17.623,25.66 18.721,24.128 19.769,22.561 C21.024,20.781 21.528,19.028 21.548,18.938 C21.507,18.924 18.161,17.647 18.128,13.784 L18.128,13.784 Z"></path>
                            <path d="M14.928,4.306 C15.802,3.213 16.4,1.726 16.234,0.217 C14.969,0.273 13.387,1.092 12.476,2.161 C11.67,3.103 10.95,4.647 11.136,6.099 C12.557,6.205 14.016,5.382 14.928,4.306 L14.928,4.306 Z"></path>
                        </g>
                        <g transform="translate(42.000000, 18.000000)" id="Shape" fill="#FFFFFF">
                            <path d="M11.645,13.504 L9.374,13.504 L8.13,9.595 L3.806,9.595 L2.621,13.504 L0.41,13.504 L4.694,0.196 L7.34,0.196 L11.645,13.504 L11.645,13.504 Z M7.755,7.955 L6.63,4.48 C6.511,4.125 6.288,3.289 5.959,1.973 L5.919,1.973 C5.788,2.539 5.577,3.375 5.287,4.48 L4.182,7.955 L7.755,7.955 L7.755,7.955 Z"></path>
                            <path d="M22.662,8.588 C22.662,10.22 22.221,11.51 21.339,12.457 C20.549,13.3 19.568,13.721 18.397,13.721 C17.133,13.721 16.225,13.267 15.672,12.359 L15.632,12.359 L15.632,17.414 L13.5,17.414 L13.5,7.067 C13.5,6.041 13.473,4.988 13.421,3.908 L15.296,3.908 L15.415,5.429 L15.455,5.429 C16.166,4.283 17.245,3.711 18.693,3.711 C19.825,3.711 20.77,4.158 21.526,5.053 C22.284,5.949 22.662,7.127 22.662,8.588 L22.662,8.588 Z M20.49,8.666 C20.49,7.732 20.28,6.962 19.858,6.356 C19.397,5.724 18.778,5.408 18.002,5.408 C17.476,5.408 16.998,5.584 16.571,5.931 C16.143,6.281 15.863,6.738 15.732,7.304 C15.666,7.568 15.633,7.784 15.633,7.954 L15.633,9.554 C15.633,10.252 15.847,10.841 16.275,11.322 C16.703,11.803 17.259,12.043 17.943,12.043 C18.746,12.043 19.371,11.733 19.818,11.115 C20.266,10.496 20.49,9.68 20.49,8.666 L20.49,8.666 Z"></path>
                            <path d="M33.699,8.588 C33.699,10.22 33.258,11.51 32.375,12.457 C31.586,13.3 30.605,13.721 29.434,13.721 C28.17,13.721 27.262,13.267 26.71,12.359 L26.67,12.359 L26.67,17.414 L24.538,17.414 L24.538,7.067 C24.538,6.041 24.511,4.988 24.459,3.908 L26.334,3.908 L26.453,5.429 L26.493,5.429 C27.203,4.283 28.282,3.711 29.731,3.711 C30.862,3.711 31.807,4.158 32.565,5.053 C33.32,5.949 33.699,7.127 33.699,8.588 L33.699,8.588 Z M31.527,8.666 C31.527,7.732 31.316,6.962 30.894,6.356 C30.433,5.724 29.816,5.408 29.039,5.408 C28.512,5.408 28.035,5.584 27.607,5.931 C27.179,6.281 26.9,6.738 26.769,7.304 C26.704,7.568 26.67,7.784 26.67,7.954 L26.67,9.554 C26.67,10.252 26.884,10.841 27.31,11.322 C27.738,11.802 28.294,12.043 28.98,12.043 C29.783,12.043 30.408,11.733 30.855,11.115 C31.303,10.496 31.527,9.68 31.527,8.666 L31.527,8.666 Z"></path>
                            <path d="M46.039,9.772 C46.039,10.904 45.646,11.825 44.857,12.536 C43.99,13.313 42.783,13.701 41.232,13.701 C39.8,13.701 38.652,13.425 37.783,12.872 L38.277,11.095 C39.213,11.661 40.24,11.945 41.359,11.945 C42.162,11.945 42.787,11.763 43.236,11.401 C43.683,11.039 43.906,10.553 43.906,9.947 C43.906,9.407 43.722,8.952 43.353,8.583 C42.986,8.214 42.373,7.871 41.517,7.554 C39.187,6.685 38.023,5.412 38.023,3.738 C38.023,2.644 38.431,1.747 39.248,1.049 C40.062,0.35 41.148,0.001 42.506,0.001 C43.717,0.001 44.723,0.212 45.526,0.633 L44.993,2.371 C44.243,1.963 43.395,1.759 42.446,1.759 C41.696,1.759 41.11,1.944 40.69,2.312 C40.335,2.641 40.157,3.042 40.157,3.517 C40.157,4.043 40.36,4.478 40.768,4.82 C41.123,5.136 41.768,5.478 42.704,5.847 C43.849,6.308 44.69,6.847 45.231,7.465 C45.77,8.081 46.039,8.852 46.039,9.772 L46.039,9.772 Z"></path>
                            <path d="M53.088,5.508 L50.738,5.508 L50.738,10.167 C50.738,11.352 51.152,11.944 51.982,11.944 C52.363,11.944 52.679,11.911 52.929,11.845 L52.988,13.464 C52.568,13.621 52.015,13.7 51.33,13.7 C50.488,13.7 49.83,13.443 49.355,12.93 C48.882,12.416 48.644,11.554 48.644,10.343 L48.644,5.506 L47.244,5.506 L47.244,3.906 L48.644,3.906 L48.644,2.149 L50.738,1.517 L50.738,3.906 L53.088,3.906 L53.088,5.508 L53.088,5.508 Z"></path>
                            <path d="M63.691,8.627 C63.691,10.102 63.269,11.313 62.427,12.26 C61.544,13.235 60.372,13.721 58.911,13.721 C57.503,13.721 56.382,13.254 55.546,12.32 C54.71,11.386 54.292,10.207 54.292,8.786 C54.292,7.299 54.722,6.081 55.585,5.134 C56.446,4.186 57.608,3.712 59.069,3.712 C60.477,3.712 61.61,4.179 62.465,5.114 C63.283,6.021 63.691,7.192 63.691,8.627 L63.691,8.627 Z M61.479,8.696 C61.479,7.811 61.29,7.052 60.907,6.419 C60.46,5.653 59.821,5.271 58.993,5.271 C58.136,5.271 57.485,5.654 57.038,6.419 C56.655,7.053 56.466,7.824 56.466,8.736 C56.466,9.621 56.655,10.38 57.038,11.012 C57.499,11.778 58.143,12.16 58.974,12.16 C59.788,12.16 60.427,11.77 60.888,10.992 C61.281,10.347 61.479,9.58 61.479,8.696 L61.479,8.696 Z"></path>
                            <path d="M70.621,5.783 C70.41,5.744 70.185,5.724 69.949,5.724 C69.199,5.724 68.619,6.007 68.211,6.574 C67.856,7.074 67.678,7.706 67.678,8.469 L67.678,13.504 L65.547,13.504 L65.567,6.93 C65.567,5.824 65.54,4.817 65.487,3.909 L67.344,3.909 L67.422,5.745 L67.481,5.745 C67.706,5.114 68.061,4.606 68.547,4.225 C69.022,3.882 69.535,3.711 70.088,3.711 C70.285,3.711 70.463,3.725 70.621,3.75 L70.621,5.783 L70.621,5.783 Z"></path>
                            <path d="M80.156,8.252 C80.156,8.634 80.131,8.956 80.078,9.219 L73.682,9.219 C73.707,10.167 74.016,10.892 74.61,11.392 C75.149,11.839 75.846,12.063 76.702,12.063 C77.649,12.063 78.513,11.912 79.29,11.609 L79.624,13.089 C78.716,13.485 77.644,13.682 76.407,13.682 C74.919,13.682 73.751,13.244 72.901,12.369 C72.053,11.494 71.628,10.319 71.628,8.845 C71.628,7.398 72.023,6.193 72.814,5.232 C73.642,4.206 74.761,3.693 76.169,3.693 C77.552,3.693 78.599,4.206 79.31,5.232 C79.873,6.047 80.156,7.055 80.156,8.252 L80.156,8.252 Z M78.123,7.699 C78.137,7.067 77.998,6.521 77.709,6.06 C77.34,5.467 76.773,5.171 76.01,5.171 C75.313,5.171 74.746,5.46 74.313,6.04 C73.958,6.501 73.747,7.054 73.682,7.698 L78.123,7.698 L78.123,7.699 Z"></path>
                        </g>
                        <g transform="translate(43.000000, 6.000000)" id="Shape" fill="#FFFFFF">
                            <path d="M6.238,3.903 C6.238,5.116 5.875,6.029 5.148,6.643 C4.474,7.21 3.518,7.493 2.278,7.493 C1.665,7.493 1.138,7.466 0.698,7.413 L0.698,0.783 C1.271,0.69 1.891,0.643 2.558,0.643 C3.738,0.643 4.628,0.9 5.228,1.413 C5.901,1.993 6.238,2.823 6.238,3.903 L6.238,3.903 Z M5.098,3.933 C5.098,3.146 4.889,2.543 4.473,2.123 C4.056,1.703 3.448,1.493 2.648,1.493 C2.308,1.493 2.018,1.516 1.778,1.563 L1.778,6.603 C1.912,6.623 2.155,6.633 2.508,6.633 C3.334,6.633 3.973,6.403 4.423,5.943 C4.873,5.483 5.098,4.813 5.098,3.933 L5.098,3.933 Z"></path>
                            <path d="M12.278,4.963 C12.278,5.71 12.064,6.323 11.638,6.803 C11.191,7.296 10.598,7.543 9.858,7.543 C9.144,7.543 8.576,7.307 8.153,6.833 C7.729,6.36 7.518,5.763 7.518,5.043 C7.518,4.29 7.736,3.673 8.172,3.193 C8.609,2.713 9.197,2.473 9.938,2.473 C10.651,2.473 11.224,2.71 11.658,3.183 C12.071,3.643 12.278,4.236 12.278,4.963 L12.278,4.963 Z M11.158,4.998 C11.158,4.55 11.061,4.165 10.868,3.845 C10.641,3.457 10.318,3.263 9.898,3.263 C9.464,3.263 9.134,3.457 8.908,3.845 C8.715,4.166 8.618,4.557 8.618,5.018 C8.618,5.466 8.715,5.851 8.908,6.171 C9.141,6.559 9.468,6.753 9.888,6.753 C10.301,6.753 10.624,6.556 10.858,6.162 C11.058,5.834 11.158,5.446 11.158,4.998 L11.158,4.998 Z"></path>
                            <path d="M20.378,2.573 L18.857,7.433 L17.867,7.433 L17.237,5.323 C17.077,4.796 16.947,4.273 16.847,3.753 L16.826,3.753 C16.733,4.287 16.603,4.81 16.436,5.323 L15.766,7.433 L14.766,7.433 L13.336,2.573 L14.445,2.573 L14.995,4.883 C15.129,5.429 15.239,5.949 15.325,6.443 L15.346,6.443 C15.426,6.037 15.559,5.52 15.745,4.893 L16.435,2.573 L17.315,2.573 L17.975,4.843 C18.135,5.396 18.265,5.929 18.365,6.443 L18.395,6.443 C18.468,5.943 18.579,5.41 18.725,4.843 L19.315,2.573 L20.378,2.573 L20.378,2.573 Z"></path>
                            <path d="M25.978,7.433 L24.898,7.433 L24.898,4.65 C24.898,3.792 24.571,3.363 23.918,3.363 C23.598,3.363 23.338,3.481 23.138,3.717 C22.939,3.953 22.838,4.231 22.838,4.55 L22.838,7.433 L21.758,7.433 L21.758,3.963 C21.758,3.537 21.745,3.073 21.718,2.573 L22.668,2.573 L22.718,3.333 L22.748,3.333 C22.875,3.097 23.061,2.901 23.309,2.746 C23.602,2.564 23.928,2.473 24.288,2.473 C24.741,2.473 25.118,2.619 25.418,2.913 C25.791,3.273 25.979,3.81 25.979,4.523 L25.979,7.433 L25.978,7.433 Z"></path>
                            <polygon points="28.957 7.433 27.877 7.433 27.877 0.343 28.957 0.343"></polygon>
                            <path d="M35.316,4.963 C35.316,5.71 35.103,6.323 34.677,6.803 C34.23,7.296 33.636,7.543 32.896,7.543 C32.183,7.543 31.615,7.307 31.191,6.833 C30.767,6.36 30.556,5.763 30.556,5.043 C30.556,4.29 30.775,3.673 31.21,3.193 C31.648,2.713 32.235,2.473 32.976,2.473 C33.689,2.473 34.263,2.71 34.697,3.183 C35.109,3.643 35.316,4.236 35.316,4.963 L35.316,4.963 Z M34.197,4.998 C34.197,4.55 34.099,4.165 33.906,3.845 C33.679,3.457 33.357,3.263 32.937,3.263 C32.503,3.263 32.173,3.457 31.947,3.845 C31.754,4.166 31.656,4.557 31.656,5.018 C31.656,5.466 31.754,5.851 31.947,6.171 C32.179,6.559 32.506,6.753 32.927,6.753 C33.339,6.753 33.663,6.556 33.896,6.162 C34.098,5.834 34.197,5.446 34.197,4.998 L34.197,4.998 Z"></path>
                            <path d="M40.547,7.433 L39.576,7.433 L39.496,6.873 L39.467,6.873 C39.133,7.32 38.66,7.543 38.047,7.543 C37.588,7.543 37.217,7.397 36.938,7.103 C36.684,6.836 36.557,6.506 36.557,6.113 C36.557,5.52 36.805,5.066 37.303,4.753 C37.799,4.44 38.496,4.287 39.397,4.293 L39.397,4.203 C39.397,3.563 39.061,3.243 38.389,3.243 C37.91,3.243 37.489,3.363 37.123,3.603 L36.902,2.893 C37.355,2.613 37.91,2.473 38.57,2.473 C39.841,2.473 40.476,3.143 40.476,4.483 L40.476,6.273 C40.477,6.76 40.5,7.146 40.547,7.433 L40.547,7.433 Z M39.428,5.763 L39.428,5.013 C38.235,4.993 37.637,5.32 37.637,5.993 C37.637,6.246 37.707,6.436 37.846,6.563 C37.985,6.69 38.16,6.753 38.373,6.753 C38.611,6.753 38.832,6.678 39.033,6.528 C39.236,6.378 39.361,6.186 39.406,5.953 C39.42,5.9 39.428,5.836 39.428,5.763 L39.428,5.763 Z"></path>
                            <path d="M46.688,7.433 L45.727,7.433 L45.678,6.653 L45.647,6.653 C45.34,7.246 44.821,7.543 44.088,7.543 C43.5,7.543 43.014,7.313 42.627,6.853 C42.24,6.393 42.047,5.796 42.047,5.063 C42.047,4.276 42.258,3.64 42.678,3.153 C43.084,2.699 43.584,2.473 44.178,2.473 C44.83,2.473 45.287,2.693 45.547,3.133 L45.567,3.133 L45.567,0.343 L46.647,0.343 L46.647,6.123 C46.646,6.597 46.66,7.033 46.688,7.433 L46.688,7.433 Z M45.566,5.383 L45.566,4.573 C45.566,4.433 45.556,4.32 45.537,4.233 C45.476,3.973 45.346,3.755 45.144,3.578 C44.945,3.401 44.703,3.313 44.421,3.313 C44.021,3.313 43.704,3.473 43.472,3.793 C43.242,4.113 43.126,4.523 43.126,5.023 C43.126,5.503 43.237,5.893 43.458,6.193 C43.692,6.513 44.007,6.673 44.401,6.673 C44.756,6.673 45.04,6.54 45.255,6.273 C45.463,6.026 45.566,5.73 45.566,5.383 L45.566,5.383 Z"></path>
                            <path d="M55.807,7.433 L54.848,7.433 L54.797,6.653 L54.768,6.653 C54.461,7.246 53.94,7.543 53.207,7.543 C52.621,7.543 52.133,7.313 51.748,6.853 C51.361,6.393 51.168,5.796 51.168,5.063 C51.168,4.276 51.377,3.64 51.797,3.153 C52.203,2.699 52.703,2.473 53.297,2.473 C53.951,2.473 54.406,2.693 54.668,3.133 L54.688,3.133 L54.688,0.343 L55.768,0.343 L55.768,6.123 C55.768,6.597 55.781,7.033 55.807,7.433 L55.807,7.433 Z M54.688,5.383 L54.688,4.573 C54.688,4.433 54.678,4.32 54.657,4.233 C54.596,3.973 54.468,3.755 54.266,3.578 C54.064,3.401 53.825,3.313 53.543,3.313 C53.141,3.313 52.824,3.473 52.594,3.793 C52.364,4.113 52.248,4.523 52.248,5.023 C52.248,5.503 52.357,5.893 52.578,6.193 C52.812,6.513 53.127,6.673 53.521,6.673 C53.876,6.673 54.162,6.54 54.375,6.273 C54.584,6.026 54.688,5.73 54.688,5.383 L54.688,5.383 Z"></path>
                            <path d="M58.938,1.123 C58.938,1.316 58.874,1.473 58.749,1.593 C58.622,1.713 58.458,1.773 58.259,1.773 C58.077,1.773 57.927,1.711 57.804,1.588 C57.679,1.465 57.618,1.31 57.618,1.123 C57.618,0.936 57.68,0.783 57.807,0.663 C57.934,0.543 58.09,0.483 58.278,0.483 C58.464,0.483 58.622,0.543 58.749,0.663 C58.873,0.783 58.938,0.937 58.938,1.123 L58.938,1.123 Z M58.816,7.433 L57.736,7.433 L57.736,2.573 L58.816,2.573 L58.816,7.433 L58.816,7.433 Z"></path>
                        </g>
                    </g>
                </g>
            </g>
        </g>
    </g>
</svg>