<?xml version="1.0" encoding="UTF-8" standalone="no"?>
<svg width="135px" height="40px" viewBox="0 0 135 40" version="1.1" xmlns="http://www.w3.org/2000/svg" xmlns:xlink="http://www.w3.org/1999/xlink">
    <!-- Generator: Sketch 39.1 (31720) - http://www.bohemiancoding.com/sketch -->
    <title>google arabic</title>
    <desc>Created with Sketch.</desc>
    <defs>
        <linearGradient x1="91.5039455%" y1="4.96190818%" x2="-38.3274021%" y2="71.8998046%" id="linearGradient-1">
            <stop stop-color="#00A0FF" offset="0%"></stop>
            <stop stop-color="#00A1FF" offset="0.66%"></stop>
            <stop stop-color="#00BEFF" offset="26.01%"></stop>
            <stop stop-color="#00D2FF" offset="51.22%"></stop>
            <stop stop-color="#00DFFF" offset="76.04%"></stop>
            <stop stop-color="#00E3FF" offset="100%"></stop>
        </linearGradient>
        <linearGradient x1="107.583323%" y1="49.9941541%" x2="-130.477432%" y2="49.9941541%" id="linearGradient-2">
            <stop stop-color="#FFE000" offset="0%"></stop>
            <stop stop-color="#FFBD00" offset="40.87%"></stop>
            <stop stop-color="#FFA500" offset="77.54%"></stop>
            <stop stop-color="#FF9C00" offset="100%"></stop>
        </linearGradient>
        <linearGradient x1="86.252547%" y1="17.8365388%" x2="-50.1402373%" y2="194.798424%" id="linearGradient-3">
            <stop stop-color="#FF3A44" offset="0%"></stop>
            <stop stop-color="#C31162" offset="100%"></stop>
        </linearGradient>
        <linearGradient x1="-18.8097807%" y1="-54.1488449%" x2="42.0933717%" y2="24.8670947%" id="linearGradient-4">
            <stop stop-color="#32A071" offset="0%"></stop>
            <stop stop-color="#2DA771" offset="6.85%"></stop>
            <stop stop-color="#15CF74" offset="47.62%"></stop>
            <stop stop-color="#06E775" offset="80.09%"></stop>
            <stop stop-color="#00F076" offset="100%"></stop>
        </linearGradient>
    </defs>
    <g id="apps" stroke="none" stroke-width="1" fill="none" fill-rule="evenodd">
        <g id="localized-badges" transform="translate(-198.000000, -530.000000)">
            <g id="google-arabic" transform="translate(198.000000, 530.000000)">
                <g id="artwork">
                    <g id="Group">
                        <path d="M130,40 L5,40 C2.25,40 0,37.75 0,35 L0,5 C0,2.25 2.25,0 5,0 L130,0 C132.75,0 135,2.25 135,5 L135,35 C135,37.75 132.75,40 130,40 L130,40 Z" id="Shape" fill="#000000"></path>
                        <path d="M130,0.8 C132.316,0.8 134.2,2.684 134.2,5 L134.2,35 C134.2,37.316 132.316,39.2 130,39.2 L5,39.2 C2.684,39.2 0.8,37.316 0.8,35 L0.8,5 C0.8,2.684 2.684,0.8 5,0.8 L130,0.8 L130,0.8 Z M130,0 L5,0 C2.25,0 0,2.25 0,5 L0,35 C0,37.75 2.25,40 5,40 L130,40 C132.75,40 135,37.75 135,35 L135,5 C135,2.25 132.75,0 130,0 L130,0 L130,0 Z" id="Shape" fill="#A6A6A6"></path>
                        <path d="M68.136,21.751 C65.784,21.751 63.867,23.54 63.867,26.004 C63.867,28.453 65.784,30.257 68.136,30.257 C70.489,30.257 72.406,28.453 72.406,26.004 C72.405,23.54 70.488,21.751 68.136,21.751 L68.136,21.751 Z M68.136,28.583 C66.847,28.583 65.736,27.52 65.736,26.005 C65.736,24.474 66.848,23.427 68.136,23.427 C69.425,23.427 70.536,24.474 70.536,26.005 C70.536,27.519 69.425,28.583 68.136,28.583 L68.136,28.583 Z M58.822,21.751 C56.47,21.751 54.553,23.54 54.553,26.004 C54.553,28.453 56.47,30.257 58.822,30.257 C61.175,30.257 63.092,28.453 63.092,26.004 C63.092,23.54 61.175,21.751 58.822,21.751 L58.822,21.751 Z M58.822,28.583 C57.533,28.583 56.422,27.52 56.422,26.005 C56.422,24.474 57.534,23.427 58.822,23.427 C60.111,23.427 61.222,24.474 61.222,26.005 C61.223,27.519 60.111,28.583 58.822,28.583 L58.822,28.583 Z M47.744,23.057 L47.744,24.861 L52.062,24.861 C51.933,25.876 51.595,26.617 51.079,27.132 C50.451,27.76 49.468,28.453 47.744,28.453 C45.086,28.453 43.008,26.31 43.008,23.652 C43.008,20.994 45.086,18.851 47.744,18.851 C49.178,18.851 50.225,19.415 50.998,20.14 L52.271,18.867 C51.191,17.836 49.758,17.047 47.744,17.047 C44.103,17.047 41.042,20.011 41.042,23.652 C41.042,27.293 44.103,30.257 47.744,30.257 C49.709,30.257 51.192,29.612 52.351,28.404 C53.543,27.212 53.914,25.536 53.914,24.183 C53.914,23.765 53.882,23.378 53.817,23.056 L47.744,23.056 L47.744,23.057 Z M93.052,24.458 C92.698,23.508 91.618,21.751 89.411,21.751 C87.22,21.751 85.399,23.475 85.399,26.004 C85.399,28.388 87.204,30.257 89.62,30.257 C91.569,30.257 92.697,29.065 93.165,28.372 L91.715,27.405 C91.232,28.114 90.571,28.581 89.62,28.581 C88.67,28.581 87.993,28.146 87.558,27.292 L93.245,24.94 L93.052,24.458 L93.052,24.458 Z M87.252,25.876 C87.204,24.232 88.525,23.395 89.476,23.395 C90.217,23.395 90.845,23.766 91.055,24.297 L87.252,25.876 L87.252,25.876 Z M82.629,30 L84.497,30 L84.497,17.499 L82.629,17.499 L82.629,30 L82.629,30 Z M79.567,22.702 L79.503,22.702 C79.084,22.202 78.278,21.751 77.264,21.751 C75.137,21.751 73.188,23.62 73.188,26.021 C73.188,28.405 75.137,30.258 77.264,30.258 C78.279,30.258 79.084,29.807 79.503,29.292 L79.567,29.292 L79.567,29.904 C79.567,31.531 78.697,32.401 77.296,32.401 C76.152,32.401 75.443,31.58 75.153,30.887 L73.526,31.564 C73.993,32.691 75.233,34.077 77.296,34.077 C79.487,34.077 81.34,32.788 81.34,29.646 L81.34,22.01 L79.568,22.01 L79.568,22.702 L79.567,22.702 Z M77.425,28.583 C76.136,28.583 75.057,27.503 75.057,26.021 C75.057,24.522 76.136,23.427 77.425,23.427 C78.697,23.427 79.696,24.522 79.696,26.021 C79.696,27.503 78.697,28.583 77.425,28.583 L77.425,28.583 Z M101.806,17.499 L97.335,17.499 L97.335,30 L99.2,30 L99.2,25.264 L101.805,25.264 C103.873,25.264 105.907,23.767 105.907,21.382 C105.907,18.997 103.874,17.499 101.806,17.499 L101.806,17.499 Z M101.854,23.524 L99.2,23.524 L99.2,19.239 L101.854,19.239 C103.249,19.239 104.041,20.394 104.041,21.382 C104.041,22.35 103.249,23.524 101.854,23.524 L101.854,23.524 Z M113.386,21.729 C112.035,21.729 110.636,22.324 110.057,23.643 L111.713,24.334 C112.067,23.643 112.727,23.417 113.418,23.417 C114.383,23.417 115.364,23.996 115.38,25.025 L115.38,25.154 C115.042,24.961 114.318,24.672 113.434,24.672 C111.649,24.672 109.831,25.653 109.831,27.486 C109.831,29.159 111.295,30.236 112.935,30.236 C114.189,30.236 114.881,29.673 115.315,29.013 L115.379,29.013 L115.379,29.978 L117.181,29.978 L117.181,25.185 C117.182,22.967 115.524,21.729 113.386,21.729 L113.386,21.729 Z M113.16,28.58 C112.55,28.58 111.697,28.274 111.697,27.518 C111.697,26.553 112.759,26.183 113.676,26.183 C114.495,26.183 114.882,26.36 115.38,26.601 C115.235,27.76 114.238,28.58 113.16,28.58 L113.16,28.58 Z M123.743,22.002 L121.604,27.422 L121.54,27.422 L119.32,22.002 L117.31,22.002 L120.639,29.577 L118.741,33.791 L120.687,33.791 L125.818,22.002 L123.743,22.002 L123.743,22.002 Z M106.937,30 L108.802,30 L108.802,17.499 L106.937,17.499 L106.937,30 L106.937,30 Z" id="Shape" fill="#FFFFFF"></path>
                        <g transform="translate(9.000000, 7.000000)" id="Shape">
                            <path d="M1.436,0.538 C1.145,0.846 0.973,1.324 0.973,1.943 L0.973,24.059 C0.973,24.679 1.145,25.156 1.436,25.464 L1.51,25.536 L13.899,13.147 L13.899,13.001 L13.899,12.855 L1.51,0.465 L1.436,0.538 L1.436,0.538 Z" fill="url(#linearGradient-1)"></path>
                            <path d="M18.028,17.278 L13.899,13.147 L13.899,13.001 L13.899,12.855 L18.029,8.725 L18.122,8.778 L23.015,11.558 C24.412,12.352 24.412,13.651 23.015,14.446 L18.122,17.226 L18.028,17.278 L18.028,17.278 Z" fill="url(#linearGradient-2)"></path>
                            <path d="M18.122,17.225 L13.898,13.001 L1.436,25.464 C1.896,25.952 2.657,26.012 3.514,25.526 L18.122,17.225" fill="url(#linearGradient-3)"></path>
                            <path d="M18.122,8.777 L3.514,0.477 C2.657,-0.01 1.896,0.051 1.436,0.539 L13.899,13.002 L18.122,8.777 L18.122,8.777 Z" fill="url(#linearGradient-4)"></path>
                            <g transform="translate(0.000000, 17.000000)" fill="#000000">
                                <path d="M18.029,0.132 L3.514,8.38 C2.702,8.841 1.976,8.81 1.51,8.391 L1.51,8.391 L1.436,8.465 L1.436,8.465 L1.51,8.537 L1.51,8.537 C1.976,8.957 2.702,8.988 3.514,8.526 L18.122,0.226 L18.029,0.132 L18.029,0.132 Z" opacity="0.2"></path>
                                <path d="M1.436,8.318 C1.145,8.01 0.973,7.532 0.973,6.913 L0.973,7.059 C0.973,7.678 1.145,8.156 1.436,8.464 L1.51,8.39 L1.436,8.318 L1.436,8.318 Z" opacity="0.12"></path>
                            </g>
                            <path d="M23.015,14.299 L18.029,17.132 L18.122,17.225 L23.015,14.445 C23.714,14.048 24.063,13.525 24.063,13.002 L24.063,13.002 C24.004,13.475 23.648,13.938 23.015,14.299 L23.015,14.299 Z" fill="#000000" opacity="0.12"></path>
                            <path d="M3.514,0.623 L23.015,11.703 C23.649,12.063 24.004,12.527 24.063,13.001 L24.063,13.001 C24.063,12.478 23.714,11.954 23.015,11.557 L3.514,0.477 C2.116,-0.317 0.973,0.343 0.973,1.943 L0.973,2.089 C0.973,0.489 2.116,-0.171 3.514,0.623 L3.514,0.623 Z" fill="#FFFFFF" opacity="0.25"></path>
                        </g>
                    </g>
                    <g id="Group" transform="translate(68.000000, 4.000000)" stroke="#FFFFFF" stroke-width="0.2" fill="#FFFFFF">
                        <path d="M2.427,10.505 C1.8,10.505 1.312,10.325 0.96,9.965 C0.609,9.606 0.434,9.096 0.434,8.437 C0.434,8.226 0.448,8.026 0.475,7.838 C0.501,7.65 0.56,7.376 0.649,7.014 L1.052,7.111 C0.969,7.433 0.928,7.694 0.928,7.895 C0.928,8.432 1.063,8.85 1.331,9.149 C1.6,9.448 1.974,9.598 2.453,9.598 C2.998,9.598 3.54,9.466 4.081,9.201 C4.622,8.936 4.983,8.61 5.166,8.223 C4.687,7.174 4.446,6.474 4.446,6.123 C4.446,5.933 4.5,5.761 4.607,5.607 C4.714,5.453 4.901,5.297 5.166,5.14 C5.198,5.398 5.282,5.872 5.418,6.563 L5.424,6.606 C5.667,6.728 5.934,6.789 6.225,6.789 C6.286,6.789 6.316,6.819 6.316,6.88 L6.316,7.535 C6.316,7.596 6.286,7.626 6.225,7.626 C5.977,7.626 5.755,7.581 5.559,7.492 L5.575,7.809 C5.575,8.26 5.431,8.692 5.145,9.103 C4.859,9.514 4.466,9.852 3.969,10.113 C3.471,10.375 2.957,10.505 2.427,10.505 L2.427,10.505 Z M3.303,4.495 C3.131,4.742 2.895,5.011 2.594,5.301 C2.268,5.043 2.004,4.805 1.804,4.587 C2.18,4.211 2.436,3.942 2.573,3.781 C2.805,4.035 3.048,4.273 3.303,4.495 L3.303,4.495 Z" id="Shape"></path>
                        <path d="M6.276,7.626 C6.215,7.626 6.184,7.596 6.184,7.535 L6.184,6.88 C6.184,6.819 6.215,6.789 6.276,6.789 C6.555,6.789 6.791,6.722 6.982,6.588 C7.173,6.453 7.339,6.249 7.479,5.973 L7.7,5.533 C7.982,4.931 8.259,4.507 8.529,4.26 C8.799,4.013 9.096,3.889 9.419,3.889 C9.634,3.889 9.848,4.02 10.061,4.281 C10.274,4.542 10.446,4.879 10.577,5.291 C10.708,5.703 10.773,6.1 10.773,6.483 C10.773,6.709 10.731,6.914 10.649,7.098 C10.567,7.283 10.421,7.459 10.214,7.627 C9.773,7.627 9.305,7.566 8.809,7.444 C8.313,7.322 7.899,7.165 7.566,6.971 C7.394,7.204 7.207,7.371 7.002,7.473 C6.798,7.576 6.556,7.626 6.276,7.626 L6.276,7.626 Z M9.972,6.789 C9.957,6.334 9.871,5.899 9.714,5.484 C9.557,5.069 9.4,4.86 9.247,4.86 C9.106,4.86 8.976,4.901 8.854,4.984 C8.732,5.067 8.611,5.193 8.489,5.365 C8.367,5.537 8.203,5.827 7.995,6.235 C8.511,6.518 9.17,6.703 9.972,6.789 L9.972,6.789 Z" id="Shape"></path>
                        <path d="M16.782,7.197 C16.382,7.161 16.106,7.126 15.956,7.093 C15.806,7.059 15.648,7.01 15.485,6.947 C15.322,6.885 15.155,6.805 14.983,6.708 C14.811,6.611 14.681,6.518 14.593,6.429 C14.505,6.34 14.461,6.257 14.461,6.182 C14.461,6.085 14.511,5.919 14.609,5.682 C14.707,5.445 14.789,5.272 14.853,5.161 C14.964,4.957 15.207,4.722 15.581,4.454 C15.955,4.187 16.352,3.97 16.771,3.802 L16.733,3.501 C16.987,3.272 17.254,3.08 17.533,2.926 L17.636,6.498 C17.969,6.691 18.35,6.788 18.78,6.788 C18.842,6.788 18.872,6.818 18.872,6.879 L18.872,7.534 C18.872,7.595 18.842,7.625 18.78,7.625 C18.337,7.625 17.976,7.542 17.701,7.375 C17.426,7.209 17.266,6.973 17.223,6.669 L17.185,6.438 L16.782,7.197 L16.782,7.197 Z M14.999,5.671 C15.293,5.921 15.619,6.088 15.978,6.171 C16.335,6.254 16.731,6.298 17.165,6.305 L16.881,4.533 L16.875,4.512 C15.997,4.812 15.372,5.199 14.999,5.671 L14.999,5.671 Z" id="Shape"></path>
                        <path d="M21.772,5.124 C21.873,5.124 21.962,5.153 22.042,5.21 C21.909,5.529 21.793,5.795 21.692,6.01 C21.591,6.225 21.531,6.345 21.509,6.37 C21.756,6.528 21.987,6.637 22.199,6.698 C22.411,6.759 22.643,6.789 22.894,6.789 C22.955,6.789 22.986,6.819 22.986,6.88 L22.986,7.535 C22.986,7.596 22.955,7.626 22.894,7.626 C22.217,7.626 21.637,7.413 21.154,6.987 L20.976,7.223 C20.902,7.306 20.635,7.393 20.179,7.486 C19.722,7.579 19.274,7.626 18.833,7.626 C18.772,7.626 18.741,7.596 18.741,7.535 L18.741,6.88 C18.741,6.819 18.772,6.789 18.833,6.789 C19.288,6.789 19.674,6.769 19.99,6.73 C20.307,6.69 20.531,6.625 20.662,6.531 C20.793,6.437 20.985,6.146 21.239,5.656 L21.432,5.302 C21.499,5.183 21.612,5.124 21.772,5.124 L21.772,5.124 Z M20.79,9.018 C20.657,9.229 20.44,9.48 20.14,9.77 C19.811,9.505 19.568,9.281 19.41,9.099 C19.603,8.92 19.84,8.673 20.119,8.358 C20.183,8.425 20.407,8.645 20.79,9.018 L20.79,9.018 Z M22.45,8.862 C22.317,9.07 22.096,9.319 21.789,9.609 C21.471,9.355 21.228,9.131 21.063,8.938 C21.228,8.788 21.464,8.541 21.772,8.197 C21.837,8.268 22.063,8.489 22.45,8.862 L22.45,8.862 Z" id="Shape"></path>
                        <path d="M23.065,7.626 C23.004,7.626 22.973,7.596 22.973,7.535 L22.973,6.88 C22.973,6.819 23.004,6.789 23.065,6.789 C23.48,6.789 23.881,6.694 24.268,6.504 C24.171,5.731 24.055,4.337 23.918,2.325 L23.811,0.859 C24.03,0.633 24.277,0.429 24.553,0.247 C24.599,1.253 24.637,2.834 24.665,4.99 L24.703,6.499 C25.035,6.692 25.417,6.789 25.847,6.789 C25.911,6.789 25.944,6.819 25.944,6.88 L25.944,7.535 C25.944,7.596 25.912,7.626 25.847,7.626 C25.31,7.626 24.889,7.495 24.584,7.234 C24.316,7.384 24.074,7.487 23.859,7.543 C23.646,7.599 23.381,7.626 23.065,7.626 L23.065,7.626 Z" id="Shape"></path>
                        <path d="M25.904,7.626 C25.843,7.626 25.812,7.596 25.812,7.535 L25.812,6.88 C25.812,6.819 25.843,6.789 25.904,6.789 C26.377,6.789 26.834,6.778 27.273,6.757 C27.098,6.642 26.945,6.485 26.814,6.284 C26.683,6.083 26.619,5.87 26.619,5.645 C26.619,5.333 26.704,5.006 26.874,4.662 C27.044,4.318 27.264,4.041 27.531,3.829 C27.801,3.618 28.081,3.512 28.375,3.512 C28.629,3.512 28.873,3.575 29.105,3.702 C29.337,3.829 29.608,4.027 29.916,4.296 L29.723,4.645 C29.434,4.534 29.222,4.464 29.09,4.436 C28.957,4.407 28.812,4.393 28.654,4.393 C28.203,4.393 27.732,4.527 27.242,4.796 C27.242,5.111 27.317,5.399 27.47,5.658 C27.622,5.918 27.844,6.126 28.133,6.284 C28.424,6.442 28.766,6.531 29.159,6.553 C29.438,6.496 29.705,6.427 29.959,6.346 C30.214,6.266 30.57,6.136 31.028,5.957 C31.129,6.05 31.178,6.181 31.178,6.349 L31.167,6.462 C31.124,6.709 30.972,6.865 30.71,6.929 C29.837,7.147 29.176,7.297 28.729,7.377 C28.282,7.458 27.822,7.52 27.351,7.563 C26.88,7.606 26.398,7.626 25.904,7.626 L25.904,7.626 Z" id="Shape"></path>
                        <path d="M39.337,8.223 L39.058,6.445 C38.747,4.583 38.542,3.286 38.444,2.553 C38.345,1.821 38.297,1.339 38.297,1.106 C38.297,0.859 38.354,0.668 38.469,0.531 C38.583,0.395 38.766,0.3 39.016,0.246 C39.028,0.292 39.037,0.335 39.049,0.375 C39.059,0.415 39.179,0.807 39.408,1.551 L39.15,1.777 L39.171,1.949 L39.53,5.209 C39.594,5.685 39.643,6.142 39.676,6.579 L39.681,6.6 C39.917,6.725 40.187,6.788 40.488,6.788 C40.549,6.788 40.579,6.818 40.579,6.879 L40.579,7.534 C40.579,7.595 40.549,7.625 40.488,7.625 C40.222,7.625 39.972,7.566 39.736,7.448 L39.746,7.808 C39.746,8.263 39.605,8.696 39.322,9.108 C39.039,9.52 38.65,9.856 38.156,10.115 C37.662,10.375 37.152,10.505 36.626,10.505 C35.999,10.505 35.511,10.325 35.16,9.965 C34.808,9.606 34.633,9.096 34.633,8.437 C34.633,8.226 34.647,8.026 34.674,7.838 C34.7,7.65 34.759,7.376 34.848,7.014 L35.251,7.111 C35.169,7.433 35.127,7.694 35.127,7.895 C35.127,8.432 35.262,8.85 35.53,9.149 C35.799,9.448 36.173,9.598 36.652,9.598 C37,9.598 37.361,9.537 37.738,9.415 C38.113,9.293 38.445,9.127 38.731,8.915 C39.017,8.703 39.22,8.473 39.337,8.223 L39.337,8.223 Z" id="Shape"></path>
                        <path d="M49.188,7.626 C48.876,7.626 48.567,7.564 48.259,7.438 C47.95,7.313 47.698,7.148 47.501,6.944 C47.175,7.155 46.776,7.322 46.306,7.444 C45.836,7.566 45.366,7.627 44.896,7.627 C44.367,7.627 43.822,7.57 43.263,7.455 C42.704,7.34 42.261,7.192 41.931,7.009 L41.743,7.224 C41.5,7.493 41.098,7.627 40.54,7.627 C40.479,7.627 40.448,7.597 40.448,7.536 L40.448,6.88 C40.448,6.819 40.479,6.789 40.54,6.789 C40.869,6.789 41.131,6.729 41.324,6.609 C41.517,6.489 41.713,6.257 41.909,5.913 L42.081,5.607 C42.157,5.478 42.273,5.414 42.431,5.414 C42.535,5.414 42.62,5.448 42.689,5.516 C42.535,5.889 42.425,6.142 42.361,6.279 C42.541,6.365 42.723,6.437 42.91,6.494 C44.313,4.632 45.51,3.701 46.498,3.701 C46.705,3.701 46.961,3.785 47.266,3.953 C47.571,4.121 47.842,4.338 48.082,4.603 C48.322,4.868 48.441,5.101 48.441,5.301 C48.441,5.745 48.3,6.141 48.017,6.488 C48.35,6.689 48.741,6.789 49.188,6.789 C49.252,6.789 49.285,6.819 49.285,6.88 L49.285,7.535 C49.284,7.596 49.252,7.626 49.188,7.626 L49.188,7.626 Z M45.009,6.789 C45.965,6.789 46.945,6.476 47.947,5.849 C47.725,5.462 47.459,5.161 47.147,4.944 C46.835,4.727 46.528,4.619 46.223,4.619 C45.875,4.619 45.462,4.788 44.982,5.127 C44.503,5.465 43.982,5.965 43.42,6.628 C43.992,6.735 44.521,6.789 45.009,6.789 L45.009,6.789 Z" id="Shape"></path>
                        <path d="M49.243,7.626 C49.182,7.626 49.151,7.596 49.151,7.535 L49.151,6.88 C49.151,6.819 49.182,6.789 49.243,6.789 C50.321,6.789 51.168,6.696 51.784,6.51 L52.395,6.301 C52.811,6.143 53.18,6.036 53.502,5.979 C53.215,5.836 52.932,5.653 52.652,5.431 C52.355,5.198 52.115,5.036 51.93,4.945 C51.745,4.853 51.556,4.808 51.363,4.808 C51.012,4.808 50.697,4.897 50.418,5.077 L50.16,5.238 C50.053,5.131 50,4.988 50,4.808 C50,4.532 50.121,4.31 50.365,4.142 C50.608,3.974 50.928,3.89 51.326,3.89 C51.558,3.89 51.794,3.94 52.032,4.04 C52.27,4.14 52.547,4.305 52.862,4.534 C53.245,4.817 53.571,5.029 53.84,5.171 C54.109,5.312 54.381,5.413 54.656,5.474 C54.931,5.535 55.333,5.565 55.859,5.565 L55.44,6.376 C55.211,6.347 55.005,6.328 54.822,6.317 L54.785,6.312 L54.559,6.317 C54.305,6.317 54.062,6.355 53.831,6.43 C53.6,6.505 53.241,6.668 52.754,6.919 C52.206,7.202 51.711,7.391 51.269,7.485 C50.828,7.579 50.152,7.626 49.243,7.626 L49.243,7.626 Z" id="Shape"></path>
                        <path d="M57.254,3.963 L57.254,4.651 C57.254,5.36 57.229,6.321 57.179,7.535 L56.674,7.626 C56.627,5.055 56.528,2.921 56.373,1.224 L56.368,1.084 C56.368,0.851 56.426,0.666 56.542,0.528 C56.658,0.39 56.842,0.296 57.093,0.246 C57.104,0.292 57.114,0.335 57.125,0.375 C57.136,0.415 57.256,0.807 57.485,1.551 L57.189,1.803 L57.194,1.857 C57.234,2.646 57.254,3.348 57.254,3.963 L57.254,3.963 Z" id="Shape"></path>
                    </g>
                </g>
            </g>
        </g>
    </g>
</svg>