<?xml version="1.0" encoding="UTF-8" standalone="no"?>
<svg width="135px" height="40px" viewBox="0 0 135 40" version="1.1" xmlns="http://www.w3.org/2000/svg" xmlns:xlink="http://www.w3.org/1999/xlink">
    <!-- Generator: Sketch 39.1 (31720) - http://www.bohemiancoding.com/sketch -->
    <title>google traditional-tw chinese</title>
    <desc>Created with Sketch.</desc>
    <defs>
        <linearGradient x1="91.5000774%" y1="4.96589685%" x2="-38.3312703%" y2="71.9037932%" id="linearGradient-1">
            <stop stop-color="#00A0FF" offset="0%"></stop>
            <stop stop-color="#00A1FF" offset="0.66%"></stop>
            <stop stop-color="#00BEFF" offset="26.01%"></stop>
            <stop stop-color="#00D2FF" offset="51.22%"></stop>
            <stop stop-color="#00DFFF" offset="76.04%"></stop>
            <stop stop-color="#00E3FF" offset="100%"></stop>
        </linearGradient>
        <linearGradient x1="107.583323%" y1="49.9941541%" x2="-130.477432%" y2="49.9941541%" id="linearGradient-2">
            <stop stop-color="#FFE000" offset="0%"></stop>
            <stop stop-color="#FFBD00" offset="40.87%"></stop>
            <stop stop-color="#FFA500" offset="77.54%"></stop>
            <stop stop-color="#FF9C00" offset="100%"></stop>
        </linearGradient>
        <linearGradient x1="86.2495505%" y1="17.8409123%" x2="-50.1432338%" y2="194.807615%" id="linearGradient-3">
            <stop stop-color="#FF3A44" offset="0%"></stop>
            <stop stop-color="#C31162" offset="100%"></stop>
        </linearGradient>
        <linearGradient x1="-18.8067841%" y1="-54.1488449%" x2="42.0963682%" y2="24.8670947%" id="linearGradient-4">
            <stop stop-color="#32A071" offset="0%"></stop>
            <stop stop-color="#2DA771" offset="6.85%"></stop>
            <stop stop-color="#15CF74" offset="47.62%"></stop>
            <stop stop-color="#06E775" offset="80.09%"></stop>
            <stop stop-color="#00F076" offset="100%"></stop>
        </linearGradient>
    </defs>
    <g id="apps" stroke="none" stroke-width="1" fill="none" fill-rule="evenodd">
        <g id="localized-badges" transform="translate(-198.000000, -167.000000)">
            <g id="google-traditional-tw-chinese" transform="translate(198.000000, 167.000000)">
                <g id="Group">
                    <g id="artwork">
                        <g id="Group">
                            <path d="M130,40 L5,40 C2.25,40 0,37.75 0,35 L0,5 C0,2.25 2.25,0 5,0 L130,0 C132.75,0 135,2.25 135,5 L135,35 C135,37.75 132.75,40 130,40 L130,40 Z" id="Shape" fill="#000000"></path>
                            <path d="M130,0.8 C132.316,0.8 134.2,2.684 134.2,5 L134.2,35 C134.2,37.316 132.316,39.2 130,39.2 L5,39.2 C2.684,39.2 0.8,37.316 0.8,35 L0.8,5 C0.8,2.684 2.684,0.8 5,0.8 L130,0.8 L130,0.8 Z M130,0 L5,0 C2.25,0 0,2.25 0,5 L0,35 C0,37.75 2.25,40 5,40 L130,40 C132.75,40 135,37.75 135,35 L135,5 C135,2.25 132.75,0 130,0 L130,0 L130,0 Z" id="Shape" fill="#A6A6A6"></path>
                            <path d="M64.725,12.79 C62.669,12.79 60.993,14.353 60.993,16.508 C60.993,18.649 62.669,20.226 64.725,20.226 C66.781,20.226 68.456,18.649 68.456,16.508 C68.456,14.353 66.78,12.79 64.725,12.79 L64.725,12.79 Z M64.725,18.761 C63.599,18.761 62.627,17.832 62.627,16.508 C62.627,15.17 63.599,14.255 64.725,14.255 C65.851,14.255 66.823,15.17 66.823,16.508 C66.823,17.832 65.851,18.761 64.725,18.761 L64.725,18.761 Z M56.584,12.79 C54.528,12.79 52.852,14.353 52.852,16.508 C52.852,18.649 54.528,20.226 56.584,20.226 C58.64,20.226 60.315,18.649 60.315,16.508 C60.315,14.353 58.64,12.79 56.584,12.79 L56.584,12.79 Z M56.584,18.761 C55.457,18.761 54.485,17.832 54.485,16.508 C54.485,15.17 55.457,14.255 56.584,14.255 C57.71,14.255 58.682,15.17 58.682,16.508 C58.682,17.832 57.71,18.761 56.584,18.761 L56.584,18.761 Z M46.9,13.931 L46.9,15.508 L50.674,15.508 C50.562,16.395 50.266,17.043 49.815,17.494 C49.266,18.043 48.407,18.649 46.9,18.649 C44.576,18.649 42.76,16.776 42.76,14.452 C42.76,12.129 44.576,10.256 46.9,10.256 C48.153,10.256 49.068,10.749 49.745,11.382 L50.857,10.27 C49.914,9.369 48.66,8.679 46.9,8.679 C43.717,8.679 41.042,11.27 41.042,14.452 C41.042,17.635 43.717,20.226 46.9,20.226 C48.618,20.226 49.914,19.663 50.927,18.606 C51.969,17.564 52.293,16.1 52.293,14.917 C52.293,14.551 52.265,14.213 52.209,13.931 L46.9,13.931 L46.9,13.931 Z M86.504,15.156 C86.193,14.325 85.25,12.79 83.321,12.79 C81.406,12.79 79.814,14.297 79.814,16.508 C79.814,18.592 81.391,20.226 83.503,20.226 C85.207,20.226 86.192,19.184 86.601,18.578 L85.334,17.733 C84.911,18.353 84.334,18.761 83.503,18.761 C82.672,18.761 82.081,18.381 81.7,17.635 L86.672,15.579 L86.504,15.156 L86.504,15.156 Z M81.434,16.395 C81.392,14.959 82.547,14.227 83.377,14.227 C84.025,14.227 84.574,14.551 84.757,15.016 L81.434,16.395 L81.434,16.395 Z M77.393,20 L79.027,20 L79.027,9.072 L77.393,9.072 L77.393,20 L77.393,20 Z M74.717,13.621 L74.66,13.621 C74.294,13.184 73.59,12.79 72.703,12.79 C70.845,12.79 69.141,14.424 69.141,16.522 C69.141,18.606 70.845,20.226 72.703,20.226 C73.59,20.226 74.294,19.831 74.66,19.381 L74.717,19.381 L74.717,19.916 C74.717,21.338 73.956,22.099 72.732,22.099 C71.732,22.099 71.112,21.38 70.859,20.775 L69.437,21.366 C69.845,22.351 70.929,23.562 72.732,23.562 C74.647,23.562 76.266,22.436 76.266,19.69 L76.266,13.015 L74.717,13.015 L74.717,13.621 L74.717,13.621 Z M72.844,18.761 C71.718,18.761 70.774,17.818 70.774,16.522 C70.774,15.212 71.718,14.255 72.844,14.255 C73.956,14.255 74.829,15.213 74.829,16.522 C74.829,17.817 73.956,18.761 72.844,18.761 L72.844,18.761 Z M94.155,9.073 L90.247,9.073 L90.247,20 L91.878,20 L91.878,15.86 L94.155,15.86 C95.963,15.86 97.74,14.551 97.74,12.466 C97.74,10.381 95.963,9.073 94.155,9.073 L94.155,9.073 Z M94.197,14.339 L91.878,14.339 L91.878,10.593 L94.197,10.593 C95.417,10.593 96.109,11.603 96.109,12.466 C96.109,13.313 95.417,14.339 94.197,14.339 L94.197,14.339 Z M104.277,12.77 C103.096,12.77 101.873,13.29 101.367,14.443 L102.815,15.047 C103.124,14.443 103.701,14.246 104.305,14.246 C105.148,14.246 106.005,14.752 106.02,15.652 L106.02,15.764 C105.724,15.596 105.092,15.343 104.319,15.343 C102.758,15.343 101.17,16.2 101.17,17.803 C101.17,19.265 102.449,20.207 103.884,20.207 C104.981,20.207 105.585,19.715 105.964,19.138 L106.021,19.138 L106.021,19.982 L107.595,19.982 L107.595,15.793 C107.595,13.853 106.146,12.77 104.277,12.77 L104.277,12.77 Z M104.08,18.759 C103.546,18.759 102.801,18.492 102.801,17.831 C102.801,16.987 103.729,16.664 104.53,16.664 C105.247,16.664 105.585,16.819 106.02,17.03 C105.894,18.042 105.022,18.759 104.08,18.759 L104.08,18.759 Z M113.33,13.009 L111.461,17.747 L111.404,17.747 L109.465,13.009 L107.707,13.009 L110.617,19.631 L108.958,23.314 L110.659,23.314 L115.143,13.009 L113.33,13.009 L113.33,13.009 Z M98.64,20 L100.271,20 L100.271,9.073 L98.64,9.073 L98.64,20 L98.64,20 Z" id="Shape" fill="#FFFFFF"></path>
                            <g transform="translate(9.000000, 7.000000)" id="Shape">
                                <path d="M1.436,0.538 C1.145,0.846 0.973,1.324 0.973,1.943 L0.973,24.059 C0.973,24.679 1.145,25.157 1.436,25.464 L1.51,25.536 L13.899,13.147 L13.899,13.001 L13.899,12.855 L1.51,0.465 L1.436,0.538 L1.436,0.538 Z" fill="url(#linearGradient-1)"></path>
                                <path d="M18.028,17.278 L13.899,13.147 L13.899,13.001 L13.899,12.855 L18.029,8.725 L18.122,8.778 L23.015,11.558 C24.412,12.352 24.412,13.651 23.015,14.446 L18.122,17.226 L18.028,17.278 L18.028,17.278 Z" fill="url(#linearGradient-2)"></path>
                                <path d="M18.122,17.225 L13.898,13.001 L1.436,25.464 C1.896,25.951 2.657,26.012 3.514,25.526 L18.122,17.225" fill="url(#linearGradient-3)"></path>
                                <path d="M18.122,8.777 L3.514,0.477 C2.657,-0.01 1.896,0.051 1.436,0.539 L13.899,13.002 L18.122,8.777 L18.122,8.777 Z" fill="url(#linearGradient-4)"></path>
                                <g transform="translate(0.000000, 17.000000)" fill="#000000">
                                    <path d="M18.029,0.132 L3.514,8.379 C2.702,8.841 1.976,8.81 1.51,8.39 L1.51,8.39 L1.436,8.465 L1.436,8.465 L1.51,8.536 L1.51,8.536 C1.976,8.956 2.702,8.987 3.514,8.525 L18.122,0.224 L18.029,0.132 L18.029,0.132 Z" opacity="0.2"></path>
                                    <path d="M1.436,8.318 C1.145,8.01 0.973,7.532 0.973,6.913 L0.973,7.059 C0.973,7.678 1.145,8.156 1.436,8.464 L1.51,8.389 L1.436,8.318 L1.436,8.318 Z" opacity="0.12"></path>
                                </g>
                                <path d="M23.015,14.299 L18.029,17.132 L18.122,17.225 L23.015,14.445 C23.714,14.049 24.063,13.525 24.063,13.002 L24.063,13.002 C24.004,13.475 23.648,13.938 23.015,14.299 L23.015,14.299 Z" fill="#000000" opacity="0.12"></path>
                                <path d="M3.514,0.623 L23.015,11.703 C23.649,12.063 24.004,12.527 24.063,13.001 L24.063,13.001 C24.063,12.478 23.714,11.954 23.015,11.557 L3.514,0.477 C2.116,-0.317 0.973,0.343 0.973,1.943 L0.973,2.089 C0.973,0.489 2.116,-0.171 3.514,0.623 L3.514,0.623 Z" fill="#FFFFFF" opacity="0.25"></path>
                            </g>
                        </g>
                    </g>
                    <g id="Layer_3" transform="translate(41.000000, 26.000000)" stroke-width="0.2" stroke="#FFFFFF" fill="#FFFFFF">
                        <g id="Group">
                            <path d="M0.436,6.381 L7.246,6.381 L7.246,6.884 L0.436,6.884 L0.436,6.381 L0.436,6.381 Z M7.035,1.779 L7.035,2.274 L0.698,2.274 L0.698,1.779 L3.558,1.779 L3.558,0.247 L4.227,0.293 C4.219,0.345 4.181,0.383 4.077,0.397 L4.077,1.779 L7.035,1.779 L7.035,1.779 Z M2.192,2.688 C2.583,3.702 2.853,4.993 2.898,5.856 C2.845,5.856 2.793,5.864 2.379,5.968 C2.35,5.119 2.079,3.814 1.711,2.808 L2.192,2.688 L2.192,2.688 Z M6.149,2.785 C6.126,2.838 6.058,2.883 5.961,2.889 C5.736,3.88 5.315,5.344 4.963,6.17 L4.513,6.042 C4.843,5.187 5.226,3.677 5.421,2.626 L6.149,2.785 L6.149,2.785 Z" id="Shape"></path>
                            <path d="M10.514,5.547 C10.288,5.225 10.041,4.902 9.793,4.632 L10.184,4.414 C10.74,5.021 11.332,5.84 11.587,6.389 L11.167,6.636 C11.077,6.434 10.935,6.186 10.776,5.931 C9.86,6.223 8.922,6.516 8.314,6.697 C8.306,6.757 8.268,6.795 8.216,6.817 L7.99,6.223 C8.148,6.186 8.328,6.141 8.523,6.088 L8.523,0.668 L11.218,0.668 L11.218,4.144 L9.003,4.144 L9.003,5.961 L10.514,5.547 L10.514,5.547 Z M10.746,1.148 L9.005,1.148 L9.005,2.169 L10.746,2.169 L10.746,1.148 L10.746,1.148 Z M9.005,3.671 L10.746,3.671 L10.746,2.627 L9.005,2.627 L9.005,3.671 L9.005,3.671 Z M14.636,0.668 L14.636,5.314 C14.636,5.96 14.313,5.975 13.24,5.975 C13.218,5.832 13.135,5.592 13.059,5.45 C13.307,5.457 13.539,5.465 13.712,5.465 C14.08,5.465 14.125,5.465 14.125,5.307 L14.125,1.171 L12.436,1.171 L12.436,7.222 L11.925,7.222 L11.925,0.668 L14.636,0.668 L14.636,0.668 Z" id="Shape"></path>
                            <path d="M22.354,1.313 L19.17,1.313 L19.088,1.335 L19.088,2.642 L19.125,2.597 C20.078,3.062 21.31,3.76 21.933,4.241 L21.58,4.691 C21.039,4.255 19.988,3.618 19.088,3.137 L19.088,7.213 L18.555,7.213 L18.555,1.313 L15.59,1.313 L15.59,0.81 L22.355,0.81 L22.355,1.313 L22.354,1.313 Z" id="Shape"></path>
                            <path d="M27.679,2.379 C27.746,3.333 27.867,4.211 28.039,4.924 C28.452,4.279 28.774,3.559 29.015,2.808 L29.601,2.973 C29.579,3.026 29.526,3.055 29.443,3.055 C29.158,3.942 28.746,4.797 28.213,5.547 C28.46,6.276 28.775,6.727 29.158,6.727 C29.384,6.727 29.473,6.344 29.518,5.405 C29.623,5.51 29.796,5.631 29.923,5.669 C29.833,6.862 29.653,7.223 29.12,7.223 C28.572,7.223 28.159,6.765 27.851,6.007 C27.468,6.48 27.025,6.893 26.53,7.223 C26.447,7.103 26.297,6.945 26.162,6.847 C26.35,6.728 26.537,6.592 26.71,6.45 L25.231,6.45 L25.231,7.23 L24.773,7.23 L24.773,6.45 L23.114,6.45 L23.114,6.045 L24.773,6.045 L24.773,5.6 L23.444,5.6 L23.444,3.739 L24.773,3.739 L24.773,3.303 L23.234,3.303 L23.234,2.912 L24.773,2.912 L24.773,2.409 L25.388,2.455 C25.381,2.5 25.335,2.537 25.239,2.552 L25.239,2.912 L26.815,2.912 L26.815,3.303 L25.239,3.303 L25.239,3.739 L26.612,3.739 L26.612,5.6 L25.231,5.6 L25.231,6.043 L26.845,6.043 L26.845,6.336 C27.137,6.073 27.415,5.773 27.663,5.45 C27.415,4.617 27.265,3.551 27.183,2.379 L23.024,2.379 L23.024,1.943 L24.773,1.943 L24.773,1.291 L23.362,1.291 L23.362,0.87 L24.773,0.87 L24.773,0.24 L25.411,0.277 C25.404,0.33 25.366,0.367 25.262,0.382 L25.262,0.869 L26.665,0.869 L26.665,1.29 L25.262,1.29 L25.262,1.942 L27.161,1.942 C27.131,1.395 27.108,0.824 27.108,0.254 C27.611,0.276 27.693,0.284 27.768,0.292 C27.768,0.352 27.723,0.389 27.618,0.404 C27.618,0.929 27.626,1.44 27.648,1.942 L29.833,1.942 L29.833,2.378 L27.679,2.378 L27.679,2.379 Z M23.835,4.054 L23.835,4.512 L24.804,4.512 L24.804,4.054 L23.835,4.054 L23.835,4.054 Z M23.835,4.819 L23.835,5.285 L24.804,5.285 L24.804,4.819 L23.835,4.819 L23.835,4.819 Z M26.207,4.512 L26.207,4.054 L25.209,4.054 L25.209,4.512 L26.207,4.512 L26.207,4.512 Z M26.207,5.285 L26.207,4.819 L25.209,4.819 L25.209,5.285 L26.207,5.285 L26.207,5.285 Z M28.527,0.359 C28.924,0.66 29.397,1.095 29.608,1.396 L29.232,1.688 C29.022,1.373 28.564,0.922 28.167,0.607 L28.527,0.359 L28.527,0.359 Z" id="Shape"></path>
                        </g>
                    </g>
                </g>
            </g>
        </g>
    </g>
</svg>