<?xml version="1.0" encoding="UTF-8" standalone="no"?>
<svg width="135px" height="40px" viewBox="0 0 135 40" version="1.1" xmlns="http://www.w3.org/2000/svg" xmlns:xlink="http://www.w3.org/1999/xlink">
    <!-- Generator: Sketch 39.1 (31720) - http://www.bohemiancoding.com/sketch -->
    <title>google italian</title>
    <desc>Created with Sketch.</desc>
    <defs>
        <linearGradient x1="91.5039455%" y1="4.96190818%" x2="-38.3274021%" y2="71.8998046%" id="linearGradient-1">
            <stop stop-color="#00A0FF" offset="0%"></stop>
            <stop stop-color="#00A1FF" offset="0.66%"></stop>
            <stop stop-color="#00BEFF" offset="26.01%"></stop>
            <stop stop-color="#00D2FF" offset="51.22%"></stop>
            <stop stop-color="#00DFFF" offset="76.04%"></stop>
            <stop stop-color="#00E3FF" offset="100%"></stop>
        </linearGradient>
        <linearGradient x1="107.583323%" y1="49.9941541%" x2="-130.477432%" y2="49.9941541%" id="linearGradient-2">
            <stop stop-color="#FFE000" offset="0%"></stop>
            <stop stop-color="#FFBD00" offset="40.87%"></stop>
            <stop stop-color="#FFA500" offset="77.54%"></stop>
            <stop stop-color="#FF9C00" offset="100%"></stop>
        </linearGradient>
        <linearGradient x1="86.252547%" y1="17.8365388%" x2="-50.1402373%" y2="194.798424%" id="linearGradient-3">
            <stop stop-color="#FF3A44" offset="0%"></stop>
            <stop stop-color="#C31162" offset="100%"></stop>
        </linearGradient>
        <linearGradient x1="-18.8097807%" y1="-54.1488449%" x2="42.0933717%" y2="24.8670947%" id="linearGradient-4">
            <stop stop-color="#32A071" offset="0%"></stop>
            <stop stop-color="#2DA771" offset="6.85%"></stop>
            <stop stop-color="#15CF74" offset="47.62%"></stop>
            <stop stop-color="#06E775" offset="80.09%"></stop>
            <stop stop-color="#00F076" offset="100%"></stop>
        </linearGradient>
    </defs>
    <g id="apps" stroke="none" stroke-width="1" fill="none" fill-rule="evenodd">
        <g id="localized-badges" transform="translate(-198.000000, -385.000000)">
            <g id="google-italian" transform="translate(198.000000, 385.000000)">
                <g id="artwork">
                    <g id="Group">
                        <path d="M130,40 L5,40 C2.25,40 0,37.75 0,35 L0,5 C0,2.25 2.25,0 5,0 L130,0 C132.75,0 135,2.25 135,5 L135,35 C135,37.75 132.75,40 130,40 L130,40 Z" id="Shape" fill="#000000"></path>
                        <path d="M130,0.8 C132.316,0.8 134.2,2.684 134.2,5 L134.2,35 C134.2,37.316 132.316,39.2 130,39.2 L5,39.2 C2.684,39.2 0.8,37.316 0.8,35 L0.8,5 C0.8,2.684 2.684,0.8 5,0.8 L130,0.8 L130,0.8 Z M130,0 L5,0 C2.25,0 0,2.25 0,5 L0,35 C0,37.75 2.25,40 5,40 L130,40 C132.75,40 135,37.75 135,35 L135,5 C135,2.25 132.75,0 130,0 L130,0 L130,0 Z" id="Shape" fill="#A6A6A6"></path>
                        <path d="M68.136,21.751 C65.784,21.751 63.867,23.54 63.867,26.004 C63.867,28.453 65.784,30.257 68.136,30.257 C70.489,30.257 72.406,28.453 72.406,26.004 C72.405,23.54 70.488,21.751 68.136,21.751 L68.136,21.751 Z M68.136,28.583 C66.847,28.583 65.736,27.52 65.736,26.005 C65.736,24.474 66.848,23.427 68.136,23.427 C69.425,23.427 70.536,24.474 70.536,26.005 C70.536,27.519 69.425,28.583 68.136,28.583 L68.136,28.583 Z M58.822,21.751 C56.47,21.751 54.553,23.54 54.553,26.004 C54.553,28.453 56.47,30.257 58.822,30.257 C61.175,30.257 63.092,28.453 63.092,26.004 C63.092,23.54 61.175,21.751 58.822,21.751 L58.822,21.751 Z M58.822,28.583 C57.533,28.583 56.422,27.52 56.422,26.005 C56.422,24.474 57.534,23.427 58.822,23.427 C60.111,23.427 61.222,24.474 61.222,26.005 C61.223,27.519 60.111,28.583 58.822,28.583 L58.822,28.583 Z M47.744,23.057 L47.744,24.861 L52.062,24.861 C51.933,25.876 51.595,26.617 51.079,27.132 C50.451,27.76 49.468,28.453 47.744,28.453 C45.086,28.453 43.008,26.31 43.008,23.652 C43.008,20.994 45.086,18.851 47.744,18.851 C49.178,18.851 50.225,19.415 50.998,20.14 L52.271,18.867 C51.191,17.836 49.758,17.047 47.744,17.047 C44.103,17.047 41.042,20.011 41.042,23.652 C41.042,27.293 44.103,30.257 47.744,30.257 C49.709,30.257 51.192,29.612 52.351,28.404 C53.543,27.212 53.914,25.536 53.914,24.183 C53.914,23.765 53.882,23.378 53.817,23.056 L47.744,23.056 L47.744,23.057 Z M93.052,24.458 C92.698,23.508 91.618,21.751 89.411,21.751 C87.22,21.751 85.399,23.475 85.399,26.004 C85.399,28.388 87.204,30.257 89.62,30.257 C91.569,30.257 92.697,29.065 93.165,28.372 L91.715,27.405 C91.232,28.114 90.571,28.581 89.62,28.581 C88.67,28.581 87.993,28.146 87.558,27.292 L93.245,24.94 L93.052,24.458 L93.052,24.458 Z M87.252,25.876 C87.204,24.232 88.525,23.395 89.476,23.395 C90.217,23.395 90.845,23.766 91.055,24.297 L87.252,25.876 L87.252,25.876 Z M82.629,30 L84.497,30 L84.497,17.499 L82.629,17.499 L82.629,30 L82.629,30 Z M79.567,22.702 L79.503,22.702 C79.084,22.202 78.278,21.751 77.264,21.751 C75.137,21.751 73.188,23.62 73.188,26.021 C73.188,28.405 75.137,30.258 77.264,30.258 C78.279,30.258 79.084,29.807 79.503,29.292 L79.567,29.292 L79.567,29.904 C79.567,31.531 78.697,32.401 77.296,32.401 C76.152,32.401 75.443,31.58 75.153,30.887 L73.526,31.564 C73.993,32.691 75.233,34.077 77.296,34.077 C79.487,34.077 81.34,32.788 81.34,29.646 L81.34,22.01 L79.568,22.01 L79.568,22.702 L79.567,22.702 Z M77.425,28.583 C76.136,28.583 75.057,27.503 75.057,26.021 C75.057,24.522 76.136,23.427 77.425,23.427 C78.697,23.427 79.696,24.522 79.696,26.021 C79.696,27.503 78.697,28.583 77.425,28.583 L77.425,28.583 Z M101.806,17.499 L97.335,17.499 L97.335,30 L99.2,30 L99.2,25.264 L101.805,25.264 C103.873,25.264 105.907,23.767 105.907,21.382 C105.907,18.997 103.874,17.499 101.806,17.499 L101.806,17.499 Z M101.854,23.524 L99.2,23.524 L99.2,19.239 L101.854,19.239 C103.249,19.239 104.041,20.394 104.041,21.382 C104.041,22.35 103.249,23.524 101.854,23.524 L101.854,23.524 Z M113.386,21.729 C112.035,21.729 110.636,22.324 110.057,23.643 L111.713,24.334 C112.067,23.643 112.727,23.417 113.418,23.417 C114.383,23.417 115.364,23.996 115.38,25.025 L115.38,25.154 C115.042,24.961 114.318,24.672 113.434,24.672 C111.649,24.672 109.831,25.653 109.831,27.486 C109.831,29.159 111.295,30.236 112.935,30.236 C114.189,30.236 114.881,29.673 115.315,29.013 L115.379,29.013 L115.379,29.978 L117.181,29.978 L117.181,25.185 C117.182,22.967 115.524,21.729 113.386,21.729 L113.386,21.729 Z M113.16,28.58 C112.55,28.58 111.697,28.274 111.697,27.518 C111.697,26.553 112.759,26.183 113.676,26.183 C114.495,26.183 114.882,26.36 115.38,26.601 C115.235,27.76 114.238,28.58 113.16,28.58 L113.16,28.58 Z M123.743,22.002 L121.604,27.422 L121.54,27.422 L119.32,22.002 L117.31,22.002 L120.639,29.577 L118.741,33.791 L120.687,33.791 L125.818,22.002 L123.743,22.002 L123.743,22.002 Z M106.937,30 L108.802,30 L108.802,17.499 L106.937,17.499 L106.937,30 L106.937,30 Z" id="Shape" fill="#FFFFFF"></path>
                        <g transform="translate(9.000000, 7.000000)" id="Shape">
                            <path d="M1.436,0.538 C1.145,0.846 0.973,1.324 0.973,1.943 L0.973,24.059 C0.973,24.679 1.145,25.156 1.436,25.464 L1.51,25.536 L13.899,13.147 L13.899,13.001 L13.899,12.855 L1.51,0.465 L1.436,0.538 L1.436,0.538 Z" fill="url(#linearGradient-1)"></path>
                            <path d="M18.028,17.278 L13.899,13.147 L13.899,13.001 L13.899,12.855 L18.029,8.725 L18.122,8.778 L23.015,11.558 C24.412,12.352 24.412,13.651 23.015,14.446 L18.122,17.226 L18.028,17.278 L18.028,17.278 Z" fill="url(#linearGradient-2)"></path>
                            <path d="M18.122,17.225 L13.898,13.001 L1.436,25.464 C1.896,25.952 2.657,26.012 3.514,25.526 L18.122,17.225" fill="url(#linearGradient-3)"></path>
                            <path d="M18.122,8.777 L3.514,0.477 C2.657,-0.01 1.896,0.051 1.436,0.539 L13.899,13.002 L18.122,8.777 L18.122,8.777 Z" fill="url(#linearGradient-4)"></path>
                            <g transform="translate(0.000000, 17.000000)" fill="#000000">
                                <path d="M18.029,0.132 L3.514,8.38 C2.702,8.841 1.976,8.81 1.51,8.391 L1.51,8.391 L1.436,8.465 L1.436,8.465 L1.51,8.537 L1.51,8.537 C1.976,8.957 2.702,8.988 3.514,8.526 L18.122,0.226 L18.029,0.132 L18.029,0.132 Z" opacity="0.2"></path>
                                <path d="M1.436,8.318 C1.145,8.01 0.973,7.532 0.973,6.913 L0.973,7.059 C0.973,7.678 1.145,8.156 1.436,8.464 L1.51,8.39 L1.436,8.318 L1.436,8.318 Z" opacity="0.12"></path>
                            </g>
                            <path d="M23.015,14.299 L18.029,17.132 L18.122,17.225 L23.015,14.445 C23.714,14.048 24.063,13.525 24.063,13.002 L24.063,13.002 C24.004,13.475 23.648,13.938 23.015,14.299 L23.015,14.299 Z" fill="#000000" opacity="0.12"></path>
                            <path d="M3.514,0.623 L23.015,11.703 C23.649,12.063 24.004,12.527 24.063,13.001 L24.063,13.001 C24.063,12.478 23.714,11.954 23.015,11.557 L3.514,0.477 C2.116,-0.317 0.973,0.343 0.973,1.943 L0.973,2.089 C0.973,0.489 2.116,-0.171 3.514,0.623 L3.514,0.623 Z" fill="#FFFFFF" opacity="0.25"></path>
                        </g>
                    </g>
                    <g id="Group" transform="translate(41.000000, 6.000000)" stroke="#FFFFFF" stroke-width="0.2" fill="#FFFFFF">
                        <path d="M0.267,7 L0.267,1 L2.102,1 C3.024,1 3.761,1.278 4.315,1.834 C4.868,2.39 5.144,3.111 5.144,4 C5.144,4.888 4.868,5.61 4.315,6.166 C3.761,6.722 3.023,7 2.102,7 L0.267,7 L0.267,7 Z M1.037,6.263 L2.101,6.263 C2.793,6.263 3.342,6.065 3.747,5.668 C4.152,5.272 4.354,4.715 4.354,4.001 C4.354,3.292 4.152,2.737 3.747,2.337 C3.342,1.938 2.793,1.738 2.101,1.738 L1.037,1.738 L1.037,6.263 L1.037,6.263 Z" id="Shape"></path>
                        <polygon id="Shape" points="6.226 7 6.226 1 6.997 1 6.997 7"></polygon>
                        <path d="M10.062,7.134 C9.626,7.134 9.201,6.992 8.785,6.707 C8.368,6.422 8.096,6.022 7.968,5.508 L8.672,5.223 C8.756,5.553 8.927,5.83 9.187,6.056 C9.448,6.282 9.739,6.395 10.063,6.395 C10.398,6.395 10.685,6.307 10.922,6.131 C11.159,5.955 11.277,5.716 11.277,5.414 C11.277,5.079 11.159,4.821 10.922,4.639 C10.685,4.457 10.309,4.288 9.795,4.132 C9.264,3.965 8.861,3.748 8.588,3.483 C8.315,3.218 8.177,2.879 8.177,2.465 C8.177,2.035 8.348,1.661 8.689,1.342 C9.03,1.023 9.474,0.864 10.021,0.864 C10.53,0.864 10.943,0.991 11.261,1.245 C11.579,1.499 11.786,1.777 11.881,2.079 L11.178,2.372 C11.127,2.183 11.003,2.006 10.805,1.844 C10.607,1.682 10.351,1.601 10.037,1.601 C9.741,1.601 9.488,1.683 9.279,1.848 C9.069,2.013 8.965,2.218 8.965,2.464 C8.965,2.688 9.062,2.876 9.254,3.03 C9.447,3.183 9.731,3.322 10.105,3.445 C10.401,3.54 10.648,3.632 10.847,3.722 C11.045,3.811 11.246,3.93 11.45,4.078 C11.654,4.226 11.807,4.411 11.911,4.631 C12.015,4.851 12.066,5.107 12.066,5.398 C12.066,5.689 12.006,5.948 11.886,6.177 C11.766,6.406 11.606,6.588 11.407,6.722 C11.209,6.856 10.996,6.958 10.766,7.028 C10.536,7.098 10.303,7.134 10.062,7.134 L10.062,7.134 Z" id="Shape"></path>
                        <path d="M13.942,7 L13.171,7 L13.171,1 L15.216,1 C15.724,1 16.164,1.169 16.535,1.507 C16.907,1.845 17.093,2.271 17.093,2.785 C17.093,3.299 16.907,3.724 16.535,4.062 C16.164,4.4 15.723,4.569 15.216,4.569 L13.942,4.569 L13.942,7 L13.942,7 Z M13.942,3.832 L15.233,3.832 C15.557,3.832 15.817,3.724 16.012,3.506 C16.207,3.288 16.305,3.048 16.305,2.785 C16.305,2.522 16.207,2.282 16.012,2.064 C15.817,1.846 15.557,1.737 15.233,1.737 L13.942,1.737 L13.942,3.832 L13.942,3.832 Z" id="Shape"></path>
                        <path d="M22.972,6.225 C22.382,6.831 21.649,7.134 20.772,7.134 C19.895,7.134 19.162,6.831 18.573,6.225 C17.983,5.619 17.689,4.877 17.689,4 C17.689,3.123 17.983,2.381 18.573,1.775 C19.162,1.169 19.895,0.865 20.772,0.865 C21.644,0.865 22.376,1.17 22.968,1.779 C23.56,2.388 23.856,3.128 23.856,4 C23.855,4.877 23.561,5.619 22.972,6.225 L22.972,6.225 Z M19.142,5.722 C19.586,6.172 20.129,6.396 20.772,6.396 C21.415,6.396 21.959,6.171 22.402,5.722 C22.846,5.272 23.069,4.698 23.069,4 C23.069,3.302 22.846,2.728 22.402,2.278 C21.959,1.828 21.415,1.604 20.772,1.604 C20.129,1.604 19.586,1.829 19.142,2.278 C18.699,2.728 18.476,3.302 18.476,4 C18.476,4.698 18.698,5.272 19.142,5.722 L19.142,5.722 Z" id="Shape"></path>
                        <polygon id="Shape" points="24.938 7 24.938 1 25.876 1 28.792 5.667 28.825 5.667 28.792 4.511 28.792 1 29.563 1 29.563 7 28.758 7 25.707 2.106 25.674 2.106 25.707 3.262 25.707 7"></polygon>
                        <polygon id="Shape" points="30.938 7 30.938 1 31.709 1 31.709 7"></polygon>
                        <path d="M33.082,7 L33.082,1 L35.252,1 C35.722,1 36.128,1.155 36.472,1.465 C36.816,1.776 36.988,2.165 36.988,2.634 C36.988,2.919 36.914,3.171 36.765,3.388 C36.618,3.606 36.42,3.771 36.174,3.883 L36.174,3.916 C36.47,4.017 36.713,4.19 36.903,4.436 C37.092,4.682 37.188,4.967 37.188,5.291 C37.188,5.783 37.007,6.19 36.647,6.514 C36.287,6.838 35.861,7 35.369,7 L33.082,7 L33.082,7 Z M33.853,3.572 L35.252,3.572 C35.543,3.572 35.776,3.476 35.952,3.283 C36.128,3.091 36.216,2.88 36.216,2.651 C36.216,2.422 36.131,2.212 35.96,2.023 C35.79,1.833 35.565,1.738 35.286,1.738 L33.852,1.738 L33.852,3.572 L33.853,3.572 Z M33.853,6.263 L35.404,6.263 C35.7,6.263 35.94,6.159 36.125,5.952 C36.31,5.746 36.401,5.519 36.401,5.273 C36.401,5.027 36.306,4.803 36.116,4.599 C35.927,4.395 35.678,4.293 35.37,4.293 L33.853,4.293 L33.853,6.263 L33.853,6.263 Z" id="Shape"></path>
                        <polygon id="Shape" points="38.228 7 38.228 1 38.999 1 38.999 7"></polygon>
                        <polygon id="Shape" points="40.373 7 40.373 1 41.144 1 41.144 6.263 43.742 6.263 43.742 7"></polygon>
                        <polygon id="Shape" points="48.216 1.737 45.484 1.737 45.484 3.639 47.948 3.639 47.948 4.36 45.484 4.36 45.484 6.262 48.216 6.262 48.216 7 44.713 7 44.713 1 48.216 1"></polygon>
                        <path d="M52.875,7.134 C52.439,7.134 52.014,6.992 51.598,6.707 C51.181,6.422 50.909,6.022 50.781,5.508 L51.485,5.223 C51.569,5.553 51.74,5.83 52,6.056 C52.261,6.282 52.552,6.395 52.876,6.395 C53.211,6.395 53.498,6.307 53.735,6.131 C53.972,5.955 54.09,5.716 54.09,5.414 C54.09,5.079 53.972,4.821 53.735,4.639 C53.498,4.457 53.122,4.288 52.608,4.132 C52.077,3.965 51.674,3.748 51.401,3.483 C51.128,3.218 50.99,2.879 50.99,2.465 C50.99,2.035 51.161,1.661 51.502,1.342 C51.843,1.023 52.287,0.864 52.834,0.864 C53.343,0.864 53.756,0.991 54.074,1.245 C54.392,1.499 54.599,1.777 54.694,2.079 L53.991,2.372 C53.94,2.183 53.816,2.006 53.618,1.844 C53.42,1.682 53.164,1.601 52.85,1.601 C52.554,1.601 52.301,1.683 52.092,1.848 C51.882,2.013 51.778,2.218 51.778,2.464 C51.778,2.688 51.875,2.876 52.067,3.03 C52.26,3.183 52.544,3.322 52.918,3.445 C53.214,3.54 53.461,3.632 53.66,3.722 C53.858,3.811 54.059,3.93 54.263,4.078 C54.467,4.226 54.62,4.411 54.724,4.631 C54.828,4.851 54.879,5.107 54.879,5.398 C54.879,5.689 54.819,5.948 54.699,6.177 C54.579,6.406 54.419,6.588 54.22,6.722 C54.022,6.856 53.809,6.958 53.579,7.028 C53.349,7.098 53.115,7.134 52.875,7.134 L52.875,7.134 Z" id="Shape"></path>
                        <path d="M58.071,7.134 C57.411,7.134 56.877,6.916 56.466,6.481 C56.056,6.045 55.851,5.475 55.851,4.772 L55.851,1 L56.622,1 L56.622,4.805 C56.622,5.28 56.746,5.663 56.995,5.957 C57.243,6.25 57.602,6.396 58.072,6.396 C58.541,6.396 58.9,6.25 59.148,5.957 C59.397,5.663 59.521,5.279 59.521,4.805 L59.521,1 L60.292,1 L60.292,4.771 C60.292,5.48 60.092,6.052 59.692,6.484 C59.293,6.918 58.752,7.134 58.071,7.134 L58.071,7.134 Z" id="Shape"></path>
                    </g>
                </g>
            </g>
        </g>
    </g>
</svg>