<?xml version="1.0" encoding="UTF-8" standalone="no"?>
<svg width="135px" height="40px" viewBox="0 0 135 40" version="1.1" xmlns="http://www.w3.org/2000/svg" xmlns:xlink="http://www.w3.org/1999/xlink">
    <!-- Generator: Sketch 39.1 (31720) - http://www.bohemiancoding.com/sketch -->
    <title>google french</title>
    <desc>Created with Sketch.</desc>
    <defs>
        <linearGradient x1="91.5039455%" y1="4.96190818%" x2="-38.3274021%" y2="71.8998046%" id="linearGradient-1">
            <stop stop-color="#00A0FF" offset="0%"></stop>
            <stop stop-color="#00A1FF" offset="0.66%"></stop>
            <stop stop-color="#00BEFF" offset="26.01%"></stop>
            <stop stop-color="#00D2FF" offset="51.22%"></stop>
            <stop stop-color="#00DFFF" offset="76.04%"></stop>
            <stop stop-color="#00E3FF" offset="100%"></stop>
        </linearGradient>
        <linearGradient x1="107.583323%" y1="49.9941541%" x2="-130.477432%" y2="49.9941541%" id="linearGradient-2">
            <stop stop-color="#FFE000" offset="0%"></stop>
            <stop stop-color="#FFBD00" offset="40.87%"></stop>
            <stop stop-color="#FFA500" offset="77.54%"></stop>
            <stop stop-color="#FF9C00" offset="100%"></stop>
        </linearGradient>
        <linearGradient x1="86.252547%" y1="17.8365388%" x2="-50.1402373%" y2="194.798424%" id="linearGradient-3">
            <stop stop-color="#FF3A44" offset="0%"></stop>
            <stop stop-color="#C31162" offset="100%"></stop>
        </linearGradient>
        <linearGradient x1="-18.8097807%" y1="-54.1488449%" x2="42.0933717%" y2="24.8670947%" id="linearGradient-4">
            <stop stop-color="#32A071" offset="0%"></stop>
            <stop stop-color="#2DA771" offset="6.85%"></stop>
            <stop stop-color="#15CF74" offset="47.62%"></stop>
            <stop stop-color="#06E775" offset="80.09%"></stop>
            <stop stop-color="#00F076" offset="100%"></stop>
        </linearGradient>
    </defs>
    <g id="apps" stroke="none" stroke-width="1" fill="none" fill-rule="evenodd">
        <g id="localized-badges" transform="translate(-198.000000, -893.000000)">
            <g id="google-french" transform="translate(198.000000, 893.000000)">
                <g id="artwork">
                    <g id="Group">
                        <path d="M130,40 L5,40 C2.25,40 0,37.75 0,35 L0,5 C0,2.25 2.25,0 5,0 L130,0 C132.75,0 135,2.25 135,5 L135,35 C135,37.75 132.75,40 130,40 L130,40 Z" id="Shape" fill="#000000"></path>
                        <path d="M130,0.8 C132.316,0.8 134.2,2.684 134.2,5 L134.2,35 C134.2,37.316 132.316,39.2 130,39.2 L5,39.2 C2.684,39.2 0.8,37.316 0.8,35 L0.8,5 C0.8,2.684 2.684,0.8 5,0.8 L130,0.8 L130,0.8 Z M130,0 L5,0 C2.25,0 0,2.25 0,5 L0,35 C0,37.75 2.25,40 5,40 L130,40 C132.75,40 135,37.75 135,35 L135,5 C135,2.25 132.75,0 130,0 L130,0 L130,0 Z" id="Shape" fill="#A6A6A6"></path>
                        <path d="M68.136,21.751 C65.784,21.751 63.867,23.54 63.867,26.004 C63.867,28.453 65.784,30.257 68.136,30.257 C70.489,30.257 72.406,28.453 72.406,26.004 C72.405,23.54 70.488,21.751 68.136,21.751 L68.136,21.751 Z M68.136,28.583 C66.847,28.583 65.736,27.52 65.736,26.005 C65.736,24.474 66.848,23.427 68.136,23.427 C69.425,23.427 70.536,24.474 70.536,26.005 C70.536,27.519 69.425,28.583 68.136,28.583 L68.136,28.583 Z M58.822,21.751 C56.47,21.751 54.553,23.54 54.553,26.004 C54.553,28.453 56.47,30.257 58.822,30.257 C61.175,30.257 63.092,28.453 63.092,26.004 C63.092,23.54 61.175,21.751 58.822,21.751 L58.822,21.751 Z M58.822,28.583 C57.533,28.583 56.422,27.52 56.422,26.005 C56.422,24.474 57.534,23.427 58.822,23.427 C60.111,23.427 61.222,24.474 61.222,26.005 C61.223,27.519 60.111,28.583 58.822,28.583 L58.822,28.583 Z M47.744,23.057 L47.744,24.861 L52.062,24.861 C51.933,25.876 51.595,26.617 51.079,27.132 C50.451,27.76 49.468,28.453 47.744,28.453 C45.086,28.453 43.008,26.31 43.008,23.652 C43.008,20.994 45.086,18.851 47.744,18.851 C49.178,18.851 50.225,19.415 50.998,20.14 L52.271,18.867 C51.191,17.836 49.758,17.047 47.744,17.047 C44.103,17.047 41.042,20.011 41.042,23.652 C41.042,27.293 44.103,30.257 47.744,30.257 C49.709,30.257 51.192,29.612 52.351,28.404 C53.543,27.212 53.914,25.536 53.914,24.183 C53.914,23.765 53.882,23.378 53.817,23.056 L47.744,23.056 L47.744,23.057 Z M93.052,24.458 C92.698,23.508 91.618,21.751 89.411,21.751 C87.22,21.751 85.399,23.475 85.399,26.004 C85.399,28.388 87.204,30.257 89.62,30.257 C91.569,30.257 92.697,29.065 93.165,28.372 L91.715,27.405 C91.232,28.114 90.571,28.581 89.62,28.581 C88.67,28.581 87.993,28.146 87.558,27.292 L93.245,24.94 L93.052,24.458 L93.052,24.458 Z M87.252,25.876 C87.204,24.232 88.525,23.395 89.476,23.395 C90.217,23.395 90.845,23.766 91.055,24.297 L87.252,25.876 L87.252,25.876 Z M82.629,30 L84.497,30 L84.497,17.499 L82.629,17.499 L82.629,30 L82.629,30 Z M79.567,22.702 L79.503,22.702 C79.084,22.202 78.278,21.751 77.264,21.751 C75.137,21.751 73.188,23.62 73.188,26.021 C73.188,28.405 75.137,30.258 77.264,30.258 C78.279,30.258 79.084,29.807 79.503,29.292 L79.567,29.292 L79.567,29.904 C79.567,31.531 78.697,32.401 77.296,32.401 C76.152,32.401 75.443,31.58 75.153,30.887 L73.526,31.564 C73.993,32.691 75.233,34.077 77.296,34.077 C79.487,34.077 81.34,32.788 81.34,29.646 L81.34,22.01 L79.568,22.01 L79.568,22.702 L79.567,22.702 Z M77.425,28.583 C76.136,28.583 75.057,27.503 75.057,26.021 C75.057,24.522 76.136,23.427 77.425,23.427 C78.697,23.427 79.696,24.522 79.696,26.021 C79.696,27.503 78.697,28.583 77.425,28.583 L77.425,28.583 Z M101.806,17.499 L97.335,17.499 L97.335,30 L99.2,30 L99.2,25.264 L101.805,25.264 C103.873,25.264 105.907,23.767 105.907,21.382 C105.907,18.997 103.874,17.499 101.806,17.499 L101.806,17.499 Z M101.854,23.524 L99.2,23.524 L99.2,19.239 L101.854,19.239 C103.249,19.239 104.041,20.394 104.041,21.382 C104.041,22.35 103.249,23.524 101.854,23.524 L101.854,23.524 Z M113.386,21.729 C112.035,21.729 110.636,22.324 110.057,23.643 L111.713,24.334 C112.067,23.643 112.727,23.417 113.418,23.417 C114.383,23.417 115.364,23.996 115.38,25.025 L115.38,25.154 C115.042,24.961 114.318,24.672 113.434,24.672 C111.649,24.672 109.831,25.653 109.831,27.486 C109.831,29.159 111.295,30.236 112.935,30.236 C114.189,30.236 114.881,29.673 115.315,29.013 L115.379,29.013 L115.379,29.978 L117.181,29.978 L117.181,25.185 C117.182,22.967 115.524,21.729 113.386,21.729 L113.386,21.729 Z M113.16,28.58 C112.55,28.58 111.697,28.274 111.697,27.518 C111.697,26.553 112.759,26.183 113.676,26.183 C114.495,26.183 114.882,26.36 115.38,26.601 C115.235,27.76 114.238,28.58 113.16,28.58 L113.16,28.58 Z M123.743,22.002 L121.604,27.422 L121.54,27.422 L119.32,22.002 L117.31,22.002 L120.639,29.577 L118.741,33.791 L120.687,33.791 L125.818,22.002 L123.743,22.002 L123.743,22.002 Z M106.937,30 L108.802,30 L108.802,17.499 L106.937,17.499 L106.937,30 L106.937,30 Z" id="Shape" fill="#FFFFFF"></path>
                        <g transform="translate(9.000000, 7.000000)" id="Shape">
                            <path d="M1.436,0.538 C1.145,0.846 0.973,1.324 0.973,1.943 L0.973,24.059 C0.973,24.679 1.145,25.156 1.436,25.464 L1.51,25.536 L13.899,13.147 L13.899,13.001 L13.899,12.855 L1.51,0.465 L1.436,0.538 L1.436,0.538 Z" fill="url(#linearGradient-1)"></path>
                            <path d="M18.028,17.278 L13.899,13.147 L13.899,13.001 L13.899,12.855 L18.029,8.725 L18.122,8.778 L23.015,11.558 C24.412,12.352 24.412,13.651 23.015,14.446 L18.122,17.226 L18.028,17.278 L18.028,17.278 Z" fill="url(#linearGradient-2)"></path>
                            <path d="M18.122,17.225 L13.898,13.001 L1.436,25.464 C1.896,25.952 2.657,26.012 3.514,25.526 L18.122,17.225" fill="url(#linearGradient-3)"></path>
                            <path d="M18.122,8.777 L3.514,0.477 C2.657,-0.01 1.896,0.051 1.436,0.539 L13.899,13.002 L18.122,8.777 L18.122,8.777 Z" fill="url(#linearGradient-4)"></path>
                            <g transform="translate(0.000000, 17.000000)" fill="#000000">
                                <path d="M18.029,0.132 L3.514,8.38 C2.702,8.841 1.976,8.81 1.51,8.391 L1.51,8.391 L1.436,8.465 L1.436,8.465 L1.51,8.537 L1.51,8.537 C1.976,8.957 2.702,8.988 3.514,8.526 L18.122,0.226 L18.029,0.132 L18.029,0.132 Z" opacity="0.2"></path>
                                <path d="M1.436,8.318 C1.145,8.01 0.973,7.532 0.973,6.913 L0.973,7.059 C0.973,7.678 1.145,8.156 1.436,8.464 L1.51,8.39 L1.436,8.318 L1.436,8.318 Z" opacity="0.12"></path>
                            </g>
                            <path d="M23.015,14.299 L18.029,17.132 L18.122,17.225 L23.015,14.445 C23.714,14.048 24.063,13.525 24.063,13.002 L24.063,13.002 C24.004,13.475 23.648,13.938 23.015,14.299 L23.015,14.299 Z" fill="#000000" opacity="0.12"></path>
                            <path d="M3.514,0.623 L23.015,11.703 C23.649,12.063 24.004,12.527 24.063,13.001 L24.063,13.001 C24.063,12.478 23.714,11.954 23.015,11.557 L3.514,0.477 C2.116,-0.317 0.973,0.343 0.973,1.943 L0.973,2.089 C0.973,0.489 2.116,-0.171 3.514,0.623 L3.514,0.623 Z" fill="#FFFFFF" opacity="0.25"></path>
                        </g>
                    </g>
                    <g id="Group" transform="translate(41.000000, 6.000000)" stroke="#FFFFFF" stroke-width="0.2" fill="#FFFFFF">
                        <path d="M0.278,7 L0.278,1 L2.113,1 C3.035,1 3.772,1.278 4.326,1.834 C4.879,2.39 5.155,3.111 5.155,4 C5.155,4.888 4.879,5.61 4.326,6.166 C3.772,6.722 3.035,7 2.113,7 L0.278,7 L0.278,7 Z M1.049,6.263 L2.113,6.263 C2.805,6.263 3.354,6.065 3.759,5.668 C4.164,5.272 4.366,4.715 4.366,4.001 C4.366,3.292 4.164,2.737 3.759,2.337 C3.354,1.938 2.805,1.738 2.113,1.738 L1.049,1.738 L1.049,6.263 L1.049,6.263 Z" id="Shape"></path>
                        <polygon id="Shape" points="6.237 7 6.237 1 7.008 1 7.008 7"></polygon>
                        <path d="M10.074,7.134 C9.638,7.134 9.213,6.992 8.797,6.707 C8.38,6.422 8.108,6.022 7.98,5.508 L8.684,5.223 C8.768,5.553 8.939,5.83 9.199,6.056 C9.46,6.282 9.751,6.395 10.075,6.395 C10.41,6.395 10.697,6.307 10.934,6.131 C11.171,5.955 11.289,5.716 11.289,5.414 C11.289,5.079 11.171,4.821 10.934,4.639 C10.697,4.457 10.321,4.288 9.807,4.132 C9.276,3.965 8.873,3.748 8.6,3.483 C8.327,3.218 8.189,2.879 8.189,2.465 C8.189,2.035 8.36,1.661 8.701,1.342 C9.042,1.023 9.486,0.864 10.033,0.864 C10.542,0.864 10.955,0.991 11.273,1.245 C11.591,1.499 11.798,1.777 11.893,2.079 L11.19,2.372 C11.139,2.183 11.015,2.006 10.817,1.844 C10.619,1.682 10.363,1.601 10.049,1.601 C9.753,1.601 9.5,1.683 9.291,1.848 C9.081,2.013 8.977,2.218 8.977,2.464 C8.977,2.688 9.074,2.876 9.266,3.03 C9.459,3.183 9.743,3.322 10.117,3.445 C10.413,3.54 10.66,3.632 10.859,3.722 C11.057,3.811 11.258,3.93 11.462,4.078 C11.666,4.226 11.819,4.411 11.923,4.631 C12.027,4.851 12.078,5.107 12.078,5.398 C12.078,5.689 12.018,5.948 11.898,6.177 C11.778,6.406 11.618,6.588 11.419,6.722 C11.221,6.856 11.008,6.958 10.778,7.028 C10.548,7.098 10.314,7.134 10.074,7.134 L10.074,7.134 Z" id="Shape"></path>
                        <path d="M13.954,7 L13.183,7 L13.183,1 L15.228,1 C15.736,1 16.176,1.169 16.547,1.507 C16.919,1.845 17.105,2.271 17.105,2.785 C17.105,3.299 16.919,3.724 16.547,4.062 C16.176,4.4 15.735,4.569 15.228,4.569 L13.954,4.569 L13.954,7 L13.954,7 Z M13.954,3.832 L15.245,3.832 C15.569,3.832 15.829,3.724 16.024,3.506 C16.219,3.288 16.317,3.048 16.317,2.785 C16.317,2.522 16.219,2.282 16.024,2.064 C15.829,1.846 15.569,1.737 15.245,1.737 L13.954,1.737 L13.954,3.832 L13.954,3.832 Z" id="Shape"></path>
                        <path d="M22.983,6.225 C22.393,6.831 21.66,7.134 20.783,7.134 C19.906,7.134 19.173,6.831 18.584,6.225 C17.994,5.619 17.7,4.877 17.7,4 C17.7,3.123 17.994,2.381 18.584,1.775 C19.173,1.169 19.906,0.865 20.783,0.865 C21.655,0.865 22.387,1.17 22.979,1.779 C23.571,2.388 23.867,3.128 23.867,4 C23.867,4.877 23.572,5.619 22.983,6.225 L22.983,6.225 Z M19.153,5.722 C19.597,6.172 20.14,6.396 20.783,6.396 C21.426,6.396 21.97,6.171 22.413,5.722 C22.857,5.272 23.08,4.698 23.08,4 C23.08,3.302 22.857,2.728 22.413,2.278 C21.97,1.828 21.426,1.604 20.783,1.604 C20.14,1.604 19.597,1.829 19.153,2.278 C18.71,2.728 18.487,3.302 18.487,4 C18.487,4.698 18.71,5.272 19.153,5.722 L19.153,5.722 Z" id="Shape"></path>
                        <polygon id="Shape" points="24.949 7 24.949 1 25.887 1 28.803 5.667 28.836 5.667 28.803 4.511 28.803 1 29.574 1 29.574 7 28.769 7 25.718 2.106 25.685 2.106 25.718 3.262 25.718 7"></polygon>
                        <polygon id="Shape" points="30.949 7 30.949 1 31.72 1 31.72 7"></polygon>
                        <path d="M33.094,7 L33.094,1 L35.264,1 C35.734,1 36.14,1.155 36.484,1.465 C36.828,1.776 37,2.165 37,2.634 C37,2.919 36.926,3.171 36.777,3.388 C36.63,3.606 36.432,3.771 36.186,3.883 L36.186,3.916 C36.482,4.017 36.725,4.19 36.915,4.436 C37.104,4.682 37.2,4.967 37.2,5.291 C37.2,5.783 37.019,6.19 36.659,6.514 C36.299,6.838 35.873,7 35.381,7 L33.094,7 L33.094,7 Z M33.864,3.572 L35.263,3.572 C35.554,3.572 35.787,3.476 35.963,3.283 C36.139,3.091 36.227,2.88 36.227,2.651 C36.227,2.422 36.142,2.212 35.971,2.023 C35.801,1.833 35.576,1.738 35.297,1.738 L33.863,1.738 L33.863,3.572 L33.864,3.572 Z M33.864,6.263 L35.415,6.263 C35.711,6.263 35.951,6.159 36.136,5.952 C36.321,5.746 36.412,5.519 36.412,5.273 C36.412,5.027 36.317,4.803 36.127,4.599 C35.938,4.395 35.689,4.293 35.381,4.293 L33.864,4.293 L33.864,6.263 L33.864,6.263 Z" id="Shape"></path>
                        <polygon id="Shape" points="38.239 7 38.239 1 39.01 1 39.01 6.263 41.608 6.263 41.608 7"></polygon>
                        <polygon id="Shape" points="46.083 1.737 43.351 1.737 43.351 3.639 45.815 3.639 45.815 4.36 43.351 4.36 43.351 6.262 46.083 6.262 46.083 7 42.58 7 42.58 1 46.083 1"></polygon>
                        <path d="M50.742,7.134 C50.306,7.134 49.881,6.992 49.465,6.707 C49.048,6.422 48.776,6.022 48.648,5.508 L49.352,5.223 C49.436,5.553 49.607,5.83 49.867,6.056 C50.128,6.282 50.419,6.395 50.743,6.395 C51.078,6.395 51.365,6.307 51.602,6.131 C51.839,5.955 51.957,5.716 51.957,5.414 C51.957,5.079 51.839,4.821 51.602,4.639 C51.365,4.457 50.989,4.288 50.475,4.132 C49.944,3.965 49.541,3.748 49.268,3.483 C48.995,3.218 48.857,2.879 48.857,2.465 C48.857,2.035 49.028,1.661 49.369,1.342 C49.71,1.023 50.154,0.864 50.701,0.864 C51.21,0.864 51.623,0.991 51.941,1.245 C52.259,1.499 52.466,1.777 52.561,2.079 L51.858,2.372 C51.807,2.183 51.683,2.006 51.485,1.844 C51.287,1.682 51.031,1.601 50.717,1.601 C50.421,1.601 50.168,1.683 49.959,1.848 C49.749,2.013 49.645,2.218 49.645,2.464 C49.645,2.688 49.742,2.876 49.934,3.03 C50.127,3.183 50.411,3.322 50.785,3.445 C51.081,3.54 51.328,3.632 51.527,3.722 C51.725,3.811 51.926,3.93 52.13,4.078 C52.334,4.226 52.487,4.411 52.591,4.631 C52.695,4.851 52.746,5.107 52.746,5.398 C52.746,5.689 52.686,5.948 52.566,6.177 C52.446,6.406 52.286,6.588 52.087,6.722 C51.889,6.856 51.676,6.958 51.446,7.028 C51.216,7.098 50.982,7.134 50.742,7.134 L50.742,7.134 Z" id="Shape"></path>
                        <path d="M55.938,7.134 C55.278,7.134 54.744,6.916 54.333,6.481 C53.923,6.045 53.718,5.475 53.718,4.772 L53.718,1 L54.489,1 L54.489,4.805 C54.489,5.28 54.613,5.663 54.862,5.957 C55.11,6.25 55.469,6.396 55.939,6.396 C56.408,6.396 56.767,6.25 57.015,5.957 C57.264,5.663 57.388,5.279 57.388,4.805 L57.388,1 L58.159,1 L58.159,4.771 C58.159,5.48 57.959,6.052 57.559,6.484 C57.159,6.918 56.618,7.134 55.938,7.134 L55.938,7.134 Z" id="Shape"></path>
                        <path d="M59.398,7 L59.398,1 L61.443,1 C61.951,1 62.391,1.169 62.762,1.507 C63.134,1.845 63.32,2.271 63.32,2.785 C63.32,3.204 63.183,3.574 62.909,3.895 C62.636,4.216 62.295,4.418 61.887,4.502 L61.87,4.527 L63.555,6.966 L63.555,7 L62.642,7 L61.025,4.57 L60.17,4.57 L60.17,7 L59.398,7 L59.398,7 Z M60.169,3.849 L61.409,3.849 C61.717,3.849 61.98,3.748 62.201,3.547 C62.422,3.346 62.532,3.092 62.532,2.785 C62.532,2.522 62.434,2.282 62.239,2.064 C62.044,1.846 61.784,1.737 61.46,1.737 L60.169,1.737 L60.169,3.849 L60.169,3.849 Z" id="Shape"></path>
                    </g>
                </g>
            </g>
        </g>
    </g>
</svg>