<svg xmlns="http://www.w3.org/2000/svg" width="135" height="40" viewBox="0 0 135 40">
  <defs>
    <linearGradient id="a" x1="91.504%" x2="-38.327%" y1="4.962%" y2="71.9%">
      <stop stop-color="#00A0FF" offset="0%"/>
      <stop stop-color="#00A1FF" offset=".66%"/>
      <stop stop-color="#00BEFF" offset="26.01%"/>
      <stop stop-color="#00D2FF" offset="51.22%"/>
      <stop stop-color="#00DFFF" offset="76.04%"/>
      <stop stop-color="#00E3FF" offset="100%"/>
    </linearGradient>
    <linearGradient id="b" x1="107.583%" x2="-130.477%" y1="49.994%" y2="49.994%">
      <stop stop-color="#FFE000" offset="0%"/>
      <stop stop-color="#FFBD00" offset="40.87%"/>
      <stop stop-color="#FFA500" offset="77.54%"/>
      <stop stop-color="#FF9C00" offset="100%"/>
    </linearGradient>
    <linearGradient id="c" x1="86.253%" x2="-50.14%" y1="17.837%" y2="194.798%">
      <stop stop-color="#FF3A44" offset="0%"/>
      <stop stop-color="#C31162" offset="100%"/>
    </linearGradient>
    <linearGradient id="d" x1="-18.81%" x2="42.093%" y1="-54.149%" y2="24.867%">
      <stop stop-color="#32A071" offset="0%"/>
      <stop stop-color="#2DA771" offset="6.85%"/>
      <stop stop-color="#15CF74" offset="47.62%"/>
      <stop stop-color="#06E775" offset="80.09%"/>
      <stop stop-color="#00F076" offset="100%"/>
    </linearGradient>
  </defs>
  <g fill="none" fill-rule="evenodd">
    <path fill="#000000" d="M130,40 L5,40 C2.25,40 0,37.75 0,35 L0,5 C0,2.25 2.25,0 5,0 L130,0 C132.75,0 135,2.25 135,5 L135,35 C135,37.75 132.75,40 130,40 L130,40 Z"/>
    <path fill="#A6A6A6" d="M130,0.8 C132.316,0.8 134.2,2.684 134.2,5 L134.2,35 C134.2,37.316 132.316,39.2 130,39.2 L5,39.2 C2.684,39.2 0.8,37.316 0.8,35 L0.8,5 C0.8,2.684 2.684,0.8 5,0.8 L130,0.8 L130,0.8 Z M130,0 L5,0 C2.25,0 0,2.25 0,5 L0,35 C0,37.75 2.25,40 5,40 L130,40 C132.75,40 135,37.75 135,35 L135,5 C135,2.25 132.75,0 130,0 L130,0 L130,0 Z"/>
    <path fill="#FFFFFF" d="M68.136,21.751 C65.784,21.751 63.867,23.54 63.867,26.004 C63.867,28.453 65.784,30.257 68.136,30.257 C70.489,30.257 72.406,28.453 72.406,26.004 C72.405,23.54 70.488,21.751 68.136,21.751 L68.136,21.751 Z M68.136,28.583 C66.847,28.583 65.736,27.52 65.736,26.005 C65.736,24.474 66.848,23.427 68.136,23.427 C69.425,23.427 70.536,24.474 70.536,26.005 C70.536,27.519 69.425,28.583 68.136,28.583 L68.136,28.583 Z M58.822,21.751 C56.47,21.751 54.553,23.54 54.553,26.004 C54.553,28.453 56.47,30.257 58.822,30.257 C61.175,30.257 63.092,28.453 63.092,26.004 C63.092,23.54 61.175,21.751 58.822,21.751 L58.822,21.751 Z M58.822,28.583 C57.533,28.583 56.422,27.52 56.422,26.005 C56.422,24.474 57.534,23.427 58.822,23.427 C60.111,23.427 61.222,24.474 61.222,26.005 C61.223,27.519 60.111,28.583 58.822,28.583 L58.822,28.583 Z M47.744,23.057 L47.744,24.861 L52.062,24.861 C51.933,25.876 51.595,26.617 51.079,27.132 C50.451,27.76 49.468,28.453 47.744,28.453 C45.086,28.453 43.008,26.31 43.008,23.652 C43.008,20.994 45.086,18.851 47.744,18.851 C49.178,18.851 50.225,19.415 50.998,20.14 L52.271,18.867 C51.191,17.836 49.758,17.047 47.744,17.047 C44.103,17.047 41.042,20.011 41.042,23.652 C41.042,27.293 44.103,30.257 47.744,30.257 C49.709,30.257 51.192,29.612 52.351,28.404 C53.543,27.212 53.914,25.536 53.914,24.183 C53.914,23.765 53.882,23.378 53.817,23.056 L47.744,23.056 L47.744,23.057 Z M93.052,24.458 C92.698,23.508 91.618,21.751 89.411,21.751 C87.22,21.751 85.399,23.475 85.399,26.004 C85.399,28.388 87.204,30.257 89.62,30.257 C91.569,30.257 92.697,29.065 93.165,28.372 L91.715,27.405 C91.232,28.114 90.571,28.581 89.62,28.581 C88.67,28.581 87.993,28.146 87.558,27.292 L93.245,24.94 L93.052,24.458 L93.052,24.458 Z M87.252,25.876 C87.204,24.232 88.525,23.395 89.476,23.395 C90.217,23.395 90.845,23.766 91.055,24.297 L87.252,25.876 L87.252,25.876 Z M82.629,30 L84.497,30 L84.497,17.499 L82.629,17.499 L82.629,30 L82.629,30 Z M79.567,22.702 L79.503,22.702 C79.084,22.202 78.278,21.751 77.264,21.751 C75.137,21.751 73.188,23.62 73.188,26.021 C73.188,28.405 75.137,30.258 77.264,30.258 C78.279,30.258 79.084,29.807 79.503,29.292 L79.567,29.292 L79.567,29.904 C79.567,31.531 78.697,32.401 77.296,32.401 C76.152,32.401 75.443,31.58 75.153,30.887 L73.526,31.564 C73.993,32.691 75.233,34.077 77.296,34.077 C79.487,34.077 81.34,32.788 81.34,29.646 L81.34,22.01 L79.568,22.01 L79.568,22.702 L79.567,22.702 Z M77.425,28.583 C76.136,28.583 75.057,27.503 75.057,26.021 C75.057,24.522 76.136,23.427 77.425,23.427 C78.697,23.427 79.696,24.522 79.696,26.021 C79.696,27.503 78.697,28.583 77.425,28.583 L77.425,28.583 Z M101.806,17.499 L97.335,17.499 L97.335,30 L99.2,30 L99.2,25.264 L101.805,25.264 C103.873,25.264 105.907,23.767 105.907,21.382 C105.907,18.997 103.874,17.499 101.806,17.499 L101.806,17.499 Z M101.854,23.524 L99.2,23.524 L99.2,19.239 L101.854,19.239 C103.249,19.239 104.041,20.394 104.041,21.382 C104.041,22.35 103.249,23.524 101.854,23.524 L101.854,23.524 Z M113.386,21.729 C112.035,21.729 110.636,22.324 110.057,23.643 L111.713,24.334 C112.067,23.643 112.727,23.417 113.418,23.417 C114.383,23.417 115.364,23.996 115.38,25.025 L115.38,25.154 C115.042,24.961 114.318,24.672 113.434,24.672 C111.649,24.672 109.831,25.653 109.831,27.486 C109.831,29.159 111.295,30.236 112.935,30.236 C114.189,30.236 114.881,29.673 115.315,29.013 L115.379,29.013 L115.379,29.978 L117.181,29.978 L117.181,25.185 C117.182,22.967 115.524,21.729 113.386,21.729 L113.386,21.729 Z M113.16,28.58 C112.55,28.58 111.697,28.274 111.697,27.518 C111.697,26.553 112.759,26.183 113.676,26.183 C114.495,26.183 114.882,26.36 115.38,26.601 C115.235,27.76 114.238,28.58 113.16,28.58 L113.16,28.58 Z M123.743,22.002 L121.604,27.422 L121.54,27.422 L119.32,22.002 L117.31,22.002 L120.639,29.577 L118.741,33.791 L120.687,33.791 L125.818,22.002 L123.743,22.002 L123.743,22.002 Z M106.937,30 L108.802,30 L108.802,17.499 L106.937,17.499 L106.937,30 L106.937,30 Z"/>
    <g transform="translate(9 7)">
      <path fill="url(#a)" d="M1.436,0.538 C1.145,0.846 0.973,1.324 0.973,1.943 L0.973,24.059 C0.973,24.679 1.145,25.156 1.436,25.464 L1.51,25.536 L13.899,13.147 L13.899,13.001 L13.899,12.855 L1.51,0.465 L1.436,0.538 L1.436,0.538 Z"/>
      <path fill="url(#b)" d="M18.028,17.278 L13.899,13.147 L13.899,13.001 L13.899,12.855 L18.029,8.725 L18.122,8.778 L23.015,11.558 C24.412,12.352 24.412,13.651 23.015,14.446 L18.122,17.226 L18.028,17.278 L18.028,17.278 Z"/>
      <path fill="url(#c)" d="M18.122,17.225 L13.898,13.001 L1.436,25.464 C1.896,25.952 2.657,26.012 3.514,25.526 L18.122,17.225"/>
      <path fill="url(#d)" d="M18.122,8.777 L3.514,0.477 C2.657,-0.01 1.896,0.051 1.436,0.539 L13.899,13.002 L18.122,8.777 L18.122,8.777 Z"/>
      <g fill="#000000" transform="translate(0 17)">
        <path d="M18.029,0.132 L3.514,8.38 C2.702,8.841 1.976,8.81 1.51,8.391 L1.51,8.391 L1.436,8.465 L1.436,8.465 L1.51,8.537 L1.51,8.537 C1.976,8.957 2.702,8.988 3.514,8.526 L18.122,0.226 L18.029,0.132 L18.029,0.132 Z" opacity=".2"/>
        <path d="M1.436,8.318 C1.145,8.01 0.973,7.532 0.973,6.913 L0.973,7.059 C0.973,7.678 1.145,8.156 1.436,8.464 L1.51,8.39 L1.436,8.318 L1.436,8.318 Z" opacity=".12"/>
      </g>
      <path fill="#000000" d="M23.015,14.299 L18.029,17.132 L18.122,17.225 L23.015,14.445 C23.714,14.048 24.063,13.525 24.063,13.002 L24.063,13.002 C24.004,13.475 23.648,13.938 23.015,14.299 L23.015,14.299 Z" opacity=".12"/>
      <path fill="#FFFFFF" d="M3.514,0.623 L23.015,11.703 C23.649,12.063 24.004,12.527 24.063,13.001 L24.063,13.001 C24.063,12.478 23.714,11.954 23.015,11.557 L3.514,0.477 C2.116,-0.317 0.973,0.343 0.973,1.943 L0.973,2.089 C0.973,0.489 2.116,-0.171 3.514,0.623 L3.514,0.623 Z" opacity=".25"/>
    </g>
    <g fill="#FFFFFF" stroke="#FFFFFF" stroke-width=".2" transform="translate(41 2)">
      <path d="M2.521 9.288C2.265 9.267 2.068 9.182 1.929 9.033 1.79 8.884 1.721 8.683 1.721 8.43 1.721 8.159 1.801 7.947 1.96 7.795 2.12 7.643 2.346 7.567 2.638 7.567 2.939 7.567 3.168 7.649 3.326 7.813 3.484 7.977 3.563 8.214 3.563 8.524 3.563 8.687 3.543 8.834 3.504 8.967 3.465 9.099 3.409 9.223 3.339 9.337 3.269 9.451 3.184 9.561 3.086 9.664 2.988 9.768 2.881 9.873 2.763 9.978 2.652 10.077 2.53 10.176 2.395 10.276 2.261 10.376 2.132 10.469 2.009 10.558 1.886 10.647 1.774 10.729 1.672 10.804 1.571 10.879 1.497 10.944 1.448 10.998L.658 10.998.658 10.46C.658 10.216.649 10.001.631 9.812.613 9.624.59 9.453.562 9.299.533 9.146.502 9.006.469 8.879.436 8.752.405 8.628.376 8.504.347 8.38.324 8.255.306 8.127.288 7.999.28 7.858.28 7.705.28 7.422.334 7.164.442 6.933.55 6.702.707 6.502.912 6.337 1.117 6.172 1.366 6.044 1.66 5.953 1.953 5.863 2.285 5.817 2.655 5.817 3.077 5.817 3.435 5.868 3.73 5.968 4.025 6.069 4.266 6.21 4.453 6.39 4.64 6.57 4.775 6.786 4.859 7.036 4.944 7.286 4.986 7.558 4.986 7.853L4.986 11 4.227 11 4.227 7.911C4.227 7.682 4.195 7.477 4.129 7.294 4.065 7.112 3.967 6.957 3.836 6.829 3.705 6.701 3.541 6.603 3.344 6.535 3.147 6.468 2.917 6.433 2.655 6.433 2.402 6.433 2.176 6.462 1.975 6.521 1.775 6.58 1.605 6.664 1.465 6.772 1.324 6.88 1.217 7.012 1.142 7.168 1.067 7.323 1.029 7.497 1.029 7.689 1.029 7.897 1.046 8.095 1.077 8.285 1.108 8.474 1.146 8.672 1.19 8.876 1.233 9.081 1.275 9.3 1.316 9.533 1.357 9.766 1.386 10.029 1.404 10.321 1.473 10.252 1.567 10.174 1.686 10.087 1.805 9.999 1.923 9.909 2.04 9.816 2.158 9.723 2.264 9.63 2.356 9.539 2.452 9.447 2.506 9.363 2.521 9.288L2.521 9.288zM3.067 8.43C3.067 8.294 3.027 8.19 2.948 8.116 2.868 8.042 2.761 8.005 2.63 8.005 2.506 8.005 2.403 8.042 2.322 8.116 2.241 8.19 2.2 8.294 2.2 8.43 2.2 8.556 2.241 8.658 2.322 8.735 2.403 8.812 2.506 8.85 2.63 8.85 2.762 8.85 2.868 8.811 2.948 8.735 3.027 8.658 3.067 8.557 3.067 8.43L3.067 8.43zM8.978 11L8.219 11 8.219 7.708C8.219 7.518 8.197 7.346 8.151 7.191 8.106 7.036 8.038 6.902 7.946 6.791 7.854 6.68 7.738 6.594 7.598 6.534 7.457 6.473 7.293 6.444 7.103 6.444 6.844 6.444 6.584 6.495 6.322 6.597 6.06 6.7 5.812 6.835 5.577 7.004L5.229 6.448C5.485 6.261 5.766 6.11 6.074 5.994 6.381 5.878 6.722 5.82 7.099 5.82 7.4 5.82 7.667 5.864 7.901 5.951 8.134 6.039 8.331 6.163 8.49 6.326 8.65 6.489 8.771 6.686 8.854 6.918 8.936 7.15 8.978 7.41 8.978 7.699L8.978 11 8.978 11zM11.154 10.223C11.154 9.949 11.23 9.737 11.382 9.586 11.534 9.435 11.744 9.36 12.012 9.36 12.052 9.36 12.095 9.362 12.144 9.365 12.192 9.368 12.223 9.372 12.239 9.378L12.239 7.752C12.239 7.563 12.217 7.388 12.171 7.228 12.126 7.069 12.058 6.93 11.966 6.812 11.874 6.695 11.758 6.604 11.618 6.539 11.477 6.474 11.313 6.442 11.123 6.442 10.864 6.442 10.606 6.488 10.349 6.582 10.092 6.675 9.845 6.806 9.611 6.975L9.25 6.447C9.506 6.26 9.787 6.109 10.095 5.993 10.402 5.877 10.743 5.819 11.12 5.819 11.421 5.819 11.688 5.863 11.922 5.95 12.155 6.038 12.352 6.162 12.511 6.325 12.671 6.488 12.792 6.685 12.875 6.917 12.957 7.149 12.999 7.409 12.999 7.698L12.999 10.223C12.999 10.494 12.919 10.705 12.76 10.855 12.6 11.005 12.371 11.081 12.073 11.081 11.781 11.081 11.554 11.006 11.395 10.855 11.233 10.705 11.154 10.494 11.154 10.223L11.154 10.223zM11.642 10.223C11.642 10.355 11.682 10.46 11.762 10.537 11.841 10.614 11.948 10.652 12.08 10.652 12.203 10.652 12.306 10.613 12.387 10.537 12.469 10.46 12.509 10.355 12.509 10.223 12.509 10.097 12.469 9.996 12.387 9.92 12.306 9.845 12.203 9.807 12.08 9.807 11.947 9.807 11.841 9.845 11.762 9.92 11.682 9.996 11.642 10.097 11.642 10.223L11.642 10.223zM17.83 5.914L17.83 9.221C18.041 9.245 18.22 9.287 18.367 9.347 18.514 9.408 18.636 9.481 18.728 9.569 18.822 9.656 18.889 9.756 18.931 9.867 18.973 9.978 18.994 10.097 18.994 10.224 18.994 10.495 18.913 10.706 18.75 10.856 18.588 11.006 18.344 11.082 18.019 11.082 17.844 11.082 17.696 11.061 17.574 11.017 17.453 10.974 17.354 10.909 17.281 10.823 17.207 10.738 17.154 10.63 17.121 10.5 17.088 10.37 17.071 10.22 17.071 10.048L17.071 9.74C16.921 9.77 16.767 9.824 16.612 9.903 16.457 9.982 16.308 10.077 16.165 10.19 16.022 10.303 15.888 10.428 15.762 10.567 15.635 10.706 15.527 10.85 15.436 11.001L14.678 11.001 14.678 7.568C14.662 7.574 14.631 7.579 14.585 7.582 14.538 7.585 14.495 7.586 14.456 7.586 14.187 7.586 13.977 7.511 13.826 7.362 13.674 7.213 13.597 7.001 13.597 6.728 13.597 6.457 13.677 6.246 13.836 6.093 13.996 5.941 14.222 5.865 14.514 5.865 14.812 5.865 15.04 5.941 15.199 6.093 15.358 6.245 15.435 6.456 15.435 6.728L15.435 10.111C15.532 9.99 15.642 9.882 15.767 9.786 15.892 9.689 16.027 9.605 16.169 9.533 16.311 9.461 16.46 9.4 16.611 9.352 16.763 9.304 16.917 9.269 17.07 9.248L17.07 5.915 17.83 5.915 17.83 5.914zM14.086 6.728C14.086 6.854 14.125 6.956 14.203 7.033 14.281 7.11 14.389 7.148 14.523 7.148 14.647 7.148 14.75 7.109 14.831 7.033 14.912 6.956 14.953 6.854 14.953 6.728 14.953 6.595 14.912 6.492 14.831 6.416 14.75 6.341 14.647 6.303 14.523 6.303 14.388 6.303 14.281 6.341 14.203 6.416 14.125 6.491 14.086 6.595 14.086 6.728L14.086 6.728zM18.467 10.223C18.467 10.081 18.416 9.965 18.316 9.873 18.216 9.781 18.053 9.719 17.831 9.685L17.831 10.196C17.831 10.331 17.853 10.434 17.898 10.505 17.943 10.576 18.023 10.611 18.137 10.611 18.234 10.611 18.313 10.579 18.374 10.514 18.436 10.45 18.467 10.353 18.467 10.223L18.467 10.223zM17.028 2.306C17.028 2.523 16.956 2.698 16.809 2.832 16.663 2.966 16.457 3.033 16.193 3.033 15.933 3.033 15.728 2.964 15.576 2.825 15.425 2.686 15.348 2.497 15.348 2.256 15.348 2.123 15.371 2.007 15.417 1.908 15.464 1.808 15.54 1.722 15.646 1.65 15.752 1.578 15.891 1.519 16.066 1.474 16.241 1.429 16.455 1.396 16.708 1.374 17.042 1.344 17.313 1.311 17.523 1.272 17.732 1.234 17.896 1.189 18.015 1.134 18.134 1.079 18.217 1.015 18.266.94 18.314.865 18.347.777 18.365.678L19.029.678C19.002.841 18.963.982 18.91 1.102 18.857 1.222 18.779 1.323 18.677 1.405 18.575 1.487 18.444 1.552 18.282 1.602 18.121 1.651 17.917 1.688 17.67 1.712 17.528 1.724 17.409 1.735 17.311 1.746 17.213 1.756 17.133 1.766 17.07 1.775 17.007 1.784 16.957 1.792 16.919 1.799 16.881 1.807 16.852 1.815 16.831 1.824 16.876 1.864 16.921 1.921 16.964 1.998 17.007 2.077 17.028 2.179 17.028 2.306L17.028 2.306zM15.805 2.251C15.805 2.368 15.84 2.461 15.911 2.529 15.981 2.596 16.075 2.631 16.193 2.631 16.301 2.631 16.391 2.597 16.464 2.529 16.536 2.461 16.572 2.368 16.572 2.251 16.572 2.136 16.536 2.045 16.464 1.978 16.392 1.911 16.302 1.876 16.193 1.876 16.075 1.876 15.981 1.91 15.911 1.978 15.84 2.046 15.805 2.137 15.805 2.251L15.805 2.251zM21.363 4.83C21.363 4.472 21.268 4.199 21.079 4.011 20.89 3.823 20.591 3.729 20.184 3.729L19.525 3.729C19.525 3.343 19.556 3.025 19.618 2.773 19.68 2.521 19.78 2.321 19.921 2.172 20.061 2.023 20.243 1.919 20.47 1.86 20.696 1.801 20.974 1.772 21.305 1.772L23.5 1.772 23.5 2.373 21.237 2.373C21.107 2.373 20.985 2.389 20.869 2.421 20.753 2.452 20.653 2.499 20.568 2.561 20.484 2.623 20.417 2.701 20.368 2.796 20.318 2.891 20.293 3.001 20.293 3.128L20.339 3.128C20.66 3.128 20.935 3.159 21.16 3.221 21.385 3.283 21.57 3.384 21.712 3.523 21.853 3.664 21.957 3.845 22.024 4.07 22.089 4.295 22.123 4.568 22.123 4.89L22.123 9.379C22.139 9.373 22.169 9.369 22.216 9.366 22.263 9.363 22.306 9.361 22.345 9.361 22.613 9.361 22.823 9.436 22.975 9.585 23.127 9.734 23.204 9.945 23.204 10.22 23.204 10.491 23.124 10.702 22.965 10.855 22.805 11.006 22.579 11.083 22.287 11.083 21.989 11.083 21.761 11.007 21.602 10.855 21.444 10.703 21.365 10.491 21.365 10.22L21.365 4.83 21.363 4.83zM22.714 10.219C22.714 10.093 22.675 9.991 22.597 9.916 22.519 9.841 22.411 9.803 22.277 9.803 22.153 9.803 22.05 9.841 21.969 9.916 21.888 9.991 21.847 10.092 21.847 10.219 21.847 10.351 21.888 10.456 21.969 10.532 22.05 10.609 22.153 10.647 22.277 10.647 22.412 10.647 22.519 10.609 22.597 10.532 22.675 10.456 22.714 10.351 22.714 10.219L22.714 10.219z"/>
      <path d="M28.268 11L27.509 11 27.509 8.737C27.509 8.52 27.49 8.34 27.452 8.195 27.415 8.05 27.37 7.957 27.319 7.915 27.102 8.102 26.886 8.301 26.671 8.514 26.456 8.726 26.252 8.958 26.06 9.209 25.867 9.461 25.691 9.734 25.532 10.029 25.372 10.324 25.239 10.648 25.134 11L24.376 11 24.376 7.567C24.36 7.573 24.329 7.578 24.283 7.581 24.236 7.584 24.193 7.585 24.154 7.585 23.885 7.585 23.675 7.51 23.524 7.361 23.372 7.212 23.295 7 23.295 6.727 23.295 6.456 23.375 6.245 23.534 6.092 23.694 5.94 23.92 5.864 24.212 5.864 24.51 5.864 24.738 5.94 24.897 6.092 25.056 6.244 25.133 6.455 25.133 6.727L25.133 9.608C25.227 9.421 25.344 9.233 25.484 9.041 25.624 8.849 25.776 8.666 25.94 8.49 26.104 8.314 26.274 8.147 26.451 7.991 26.627 7.834 26.796 7.697 26.959 7.58 26.89 7.529 26.822 7.473 26.758 7.411 26.694 7.349 26.636 7.282 26.586 7.207 26.537 7.134 26.497 7.055 26.467 6.97 26.437 6.885 26.422 6.796 26.422 6.699 26.422 6.563 26.443 6.444 26.487 6.34 26.53 6.236 26.592 6.149 26.672 6.078 26.752 6.008 26.849 5.954 26.961 5.918 27.074 5.882 27.2 5.864 27.339 5.864 27.474 5.864 27.599 5.881 27.713 5.916 27.828 5.951 27.926 6.002 28.009 6.072 28.092 6.142 28.156 6.227 28.203 6.33 28.25 6.432 28.273 6.551 28.273 6.686 28.273 6.858 28.23 7.008 28.144 7.138 28.058 7.268 27.945 7.389 27.803 7.504 27.903 7.595 27.983 7.686 28.044 7.777 28.105 7.868 28.153 7.965 28.187 8.066 28.22 8.167 28.242 8.273 28.252 8.384 28.262 8.495 28.268 8.614 28.268 8.741L28.268 11 28.268 11zM23.783 6.728C23.783 6.854 23.822 6.956 23.9 7.033 23.978 7.11 24.086 7.148 24.22 7.148 24.344 7.148 24.447 7.109 24.528 7.033 24.609 6.956 24.65 6.854 24.65 6.728 24.65 6.595 24.609 6.492 24.528 6.416 24.447 6.341 24.344 6.303 24.22 6.303 24.085 6.303 23.978 6.341 23.9 6.416 23.822 6.491 23.783 6.595 23.783 6.728L23.783 6.728zM27.686 6.7C27.686 6.583 27.655 6.492 27.593 6.427 27.531 6.363 27.446 6.33 27.338 6.33 27.223 6.33 27.137 6.363 27.08 6.429 27.022 6.495 26.994 6.583 26.994 6.691 26.994 6.745 27.005 6.797 27.025 6.846 27.046 6.896 27.075 6.942 27.111 6.984 27.147 7.026 27.189 7.065 27.235 7.099 27.282 7.134 27.33 7.165 27.378 7.192 27.456 7.138 27.527 7.072 27.59 6.993 27.653 6.916 27.686 6.817 27.686 6.7L27.686 6.7zM33.797 11L33.074 11C32.963 10.666 32.831 10.352 32.678 10.059 32.527 9.765 32.361 9.509 32.182 9.291 32.002 9.073 31.812 8.9 31.611 8.774 31.409 8.648 31.201 8.584 30.987 8.584 30.864 8.584 30.75 8.598 30.646 8.625 30.542 8.652 30.454 8.693 30.379 8.747 30.306 8.801 30.247 8.869 30.205 8.95 30.163 9.032 30.142 9.126 30.142 9.235L30.142 9.384C30.158 9.378 30.189 9.374 30.238 9.371 30.286 9.368 30.328 9.367 30.364 9.367 30.635 9.367 30.845 9.441 30.996 9.591 31.147 9.739 31.223 9.951 31.223 10.225 31.223 10.496 31.144 10.707 30.986 10.857 30.828 11.007 30.603 11.083 30.311 11.083 30.012 11.083 29.784 11.008 29.623 10.857 29.464 10.707 29.384 10.496 29.384 10.225L29.384 9.227C29.384 9.043 29.412 8.874 29.468 8.721 29.524 8.567 29.611 8.434 29.728 8.321 29.845 8.208 29.995 8.12 30.177 8.057 30.359 7.994 30.576 7.962 30.829 7.962 31.106 7.962 31.362 8.014 31.598 8.12 31.832 8.225 32.043 8.363 32.23 8.531 32.417 8.7 32.579 8.891 32.715 9.105 32.853 9.319 32.96 9.534 33.038 9.751L33.038 7.999C33.038 7.737 33 7.509 32.923 7.315 32.846 7.121 32.738 6.959 32.6 6.829 32.462 6.7 32.294 6.603 32.099 6.54 31.904 6.477 31.688 6.445 31.453 6.445 31.073 6.445 30.733 6.494 30.432 6.594 30.131 6.694 29.85 6.83 29.588 7.005L29.235 6.449C29.511 6.257 29.831 6.103 30.192 5.991 30.553 5.879 30.972 5.822 31.448 5.822 31.831 5.822 32.168 5.87 32.46 5.967 32.752 6.064 32.997 6.203 33.196 6.385 33.394 6.567 33.545 6.79 33.645 7.053 33.745 7.316 33.796 7.615 33.796 7.949L33.796 11 33.797 11zM30.739 10.223C30.739 10.097 30.699 9.996 30.619 9.92 30.54 9.845 30.433 9.807 30.301 9.807 30.175 9.807 30.072 9.845 29.991 9.92 29.912 9.996 29.872 10.096 29.872 10.223 29.872 10.355 29.912 10.46 29.991 10.537 30.071 10.614 30.175 10.652 30.301 10.652 30.434 10.652 30.54 10.613 30.619 10.537 30.699 10.46 30.739 10.355 30.739 10.223L30.739 10.223zM36.997 9.288C36.741 9.267 36.544 9.182 36.405 9.033 36.266 8.884 36.197 8.683 36.197 8.43 36.197 8.159 36.277 7.947 36.436 7.795 36.596 7.643 36.822 7.567 37.114 7.567 37.415 7.567 37.644 7.649 37.802 7.813 37.96 7.977 38.039 8.214 38.039 8.524 38.039 8.687 38.019 8.834 37.98 8.967 37.941 9.099 37.885 9.223 37.815 9.337 37.745 9.451 37.66 9.561 37.562 9.664 37.464 9.768 37.357 9.873 37.239 9.978 37.128 10.077 37.006 10.176 36.871 10.276 36.737 10.376 36.608 10.469 36.485 10.558 36.362 10.647 36.25 10.729 36.148 10.804 36.047 10.879 35.973 10.944 35.924 10.998L35.134 10.998 35.134 10.46C35.134 10.216 35.125 10.001 35.107 9.812 35.089 9.624 35.066 9.453 35.038 9.299 35.009 9.146 34.978 9.006 34.945 8.879 34.912 8.752 34.881 8.628 34.852 8.504 34.823 8.38 34.8 8.255 34.782 8.127 34.764 7.999 34.756 7.858 34.756 7.705 34.756 7.422 34.81 7.164 34.918 6.933 35.026 6.702 35.183 6.502 35.388 6.337 35.593 6.172 35.842 6.044 36.136 5.953 36.429 5.863 36.761 5.817 37.131 5.817 37.553 5.817 37.911 5.868 38.206 5.968 38.501 6.069 38.742 6.21 38.929 6.39 39.116 6.57 39.251 6.786 39.335 7.036 39.42 7.286 39.462 7.558 39.462 7.853L39.462 11 38.703 11 38.703 7.911C38.703 7.682 38.671 7.477 38.605 7.294 38.541 7.112 38.443 6.957 38.312 6.829 38.181 6.701 38.017 6.603 37.82 6.535 37.623 6.468 37.393 6.433 37.131 6.433 36.878 6.433 36.652 6.462 36.451 6.521 36.251 6.58 36.081 6.664 35.941 6.772 35.8 6.88 35.693 7.012 35.618 7.168 35.543 7.323 35.505 7.497 35.505 7.689 35.505 7.897 35.522 8.095 35.553 8.285 35.584 8.474 35.622 8.672 35.666 8.876 35.709 9.081 35.751 9.3 35.792 9.533 35.833 9.766 35.862 10.029 35.88 10.321 35.949 10.252 36.043 10.174 36.162 10.087 36.282 10 36.4 9.91 36.518 9.816 36.636 9.723 36.742 9.63 36.834 9.539 36.928 9.447 36.981 9.363 36.997 9.288L36.997 9.288zM37.543 8.43C37.543 8.294 37.503 8.19 37.424 8.116 37.344 8.042 37.237 8.005 37.106 8.005 36.982 8.005 36.879 8.042 36.798 8.116 36.717 8.19 36.676 8.294 36.676 8.43 36.676 8.556 36.717 8.658 36.798 8.735 36.879 8.812 36.982 8.85 37.106 8.85 37.238 8.85 37.344 8.811 37.424 8.735 37.503 8.658 37.543 8.557 37.543 8.43L37.543 8.43zM40.17 3.372L40.445 2.785C40.535 2.59 40.622 2.422 40.705 2.282 40.788 2.142 40.873 2.027 40.96 1.936 41.048 1.846 41.142 1.779 41.242 1.737 41.344 1.695 41.459 1.674 41.588 1.674 41.817 1.674 41.997 1.757 42.13 1.924 42.263 2.091 42.329 2.367 42.329 2.753L42.329 9.378C42.344 9.372 42.375 9.368 42.421 9.365 42.468 9.362 42.511 9.36 42.55 9.36 42.819 9.36 43.029 9.435 43.18 9.584 43.332 9.733 43.409 9.944 43.409 10.219 43.409 10.49 43.329 10.701 43.17 10.854 43.01 11.005 42.784 11.082 42.492 11.082 42.194 11.082 41.966 11.006 41.807 10.854 41.65 10.702 41.571 10.49 41.571 10.219L41.571 2.721C41.571 2.555 41.559 2.44 41.537 2.375 41.515 2.31 41.477 2.278 41.427 2.278 41.403 2.278 41.377 2.283 41.352 2.294 41.327 2.305 41.298 2.328 41.266 2.364 41.235 2.4 41.2 2.451 41.161 2.517 41.122 2.583 41.076 2.672 41.025 2.784L40.225 4.401 39.669 4.401 39.231 1.673 39.931 1.673 40.17 3.372 40.17 3.372zM42.92 10.219C42.92 10.093 42.881 9.991 42.803 9.916 42.725 9.841 42.618 9.803 42.483 9.803 42.359 9.803 42.257 9.841 42.175 9.916 42.094 9.991 42.053 10.092 42.053 10.219 42.053 10.351 42.094 10.456 42.175 10.532 42.257 10.609 42.359 10.647 42.483 10.647 42.619 10.647 42.725 10.609 42.803 10.532 42.881 10.456 42.92 10.351 42.92 10.219L42.92 10.219zM46.027 9.288C45.771 9.267 45.574 9.182 45.435 9.033 45.296 8.884 45.227 8.683 45.227 8.43 45.227 8.159 45.307 7.947 45.466 7.795 45.626 7.643 45.852 7.567 46.144 7.567 46.445 7.567 46.674 7.649 46.832 7.813 46.99 7.977 47.069 8.214 47.069 8.524 47.069 8.687 47.049 8.834 47.01 8.967 46.971 9.099 46.915 9.223 46.845 9.337 46.775 9.451 46.69 9.561 46.592 9.664 46.494 9.768 46.387 9.873 46.269 9.978 46.158 10.077 46.036 10.176 45.901 10.276 45.767 10.376 45.638 10.469 45.515 10.558 45.392 10.647 45.28 10.729 45.178 10.804 45.077 10.879 45.003 10.944 44.954 10.998L44.164 10.998 44.164 10.46C44.164 10.216 44.155 10.001 44.137 9.812 44.119 9.624 44.096 9.453 44.068 9.299 44.039 9.146 44.008 9.006 43.975 8.879 43.942 8.752 43.911 8.628 43.882 8.504 43.853 8.38 43.83 8.255 43.812 8.127 43.794 7.999 43.786 7.858 43.786 7.705 43.786 7.422 43.84 7.164 43.948 6.933 44.056 6.702 44.213 6.502 44.418 6.337 44.623 6.172 44.872 6.044 45.166 5.953 45.459 5.863 45.791 5.817 46.161 5.817 46.583 5.817 46.941 5.868 47.236 5.968 47.531 6.069 47.772 6.21 47.959 6.39 48.146 6.57 48.281 6.786 48.365 7.036 48.45 7.286 48.492 7.558 48.492 7.853L48.492 11 47.733 11 47.733 7.911C47.733 7.682 47.701 7.477 47.635 7.294 47.571 7.112 47.473 6.957 47.342 6.829 47.211 6.701 47.047 6.603 46.85 6.535 46.653 6.468 46.423 6.433 46.161 6.433 45.908 6.433 45.682 6.462 45.481 6.521 45.281 6.58 45.111 6.664 44.971 6.772 44.83 6.88 44.723 7.012 44.648 7.168 44.573 7.323 44.535 7.497 44.535 7.689 44.535 7.897 44.552 8.095 44.583 8.285 44.614 8.474 44.652 8.672 44.696 8.876 44.739 9.081 44.781 9.3 44.822 9.533 44.863 9.766 44.892 10.029 44.91 10.321 44.979 10.252 45.073 10.174 45.192 10.087 45.311 9.999 45.429 9.909 45.546 9.816 45.664 9.723 45.77 9.63 45.862 9.539 45.958 9.447 46.012 9.363 46.027 9.288L46.027 9.288zM46.573 8.43C46.573 8.294 46.533 8.19 46.454 8.116 46.374 8.042 46.267 8.005 46.136 8.005 46.012 8.005 45.909 8.042 45.828 8.116 45.747 8.19 45.706 8.294 45.706 8.43 45.706 8.556 45.747 8.658 45.828 8.735 45.909 8.812 46.012 8.85 46.136 8.85 46.268 8.85 46.374 8.811 46.454 8.735 46.533 8.658 46.573 8.557 46.573 8.43L46.573 8.43zM48.087 1.718C48.087 1.805 48.07 1.891 48.037 1.975 48.005 2.059 47.964 2.139 47.916 2.212 47.867 2.286 47.817 2.352 47.765 2.408 47.712 2.466 47.666 2.512 47.627 2.548 47.922 2.545 48.156 2.515 48.331 2.458 48.506 2.401 48.64 2.31 48.733 2.185 48.826 2.06 48.886 1.9 48.914 1.705 48.941 1.509 48.954 1.272 48.954.996L49.623.996C49.623 1.33 49.602 1.622 49.558 1.872 49.514 2.122 49.424 2.329 49.287 2.493 49.15 2.657 48.952 2.78 48.693 2.861 48.434 2.942 48.089 2.983 47.659 2.983L47.158 2.983 47.158 2.541C47.215 2.501 47.271 2.456 47.327 2.403 47.383 2.351 47.433 2.295 47.478 2.236 47.523 2.177 47.559 2.117 47.586 2.055 47.613 1.993 47.627 1.934 47.627 1.877 47.566 1.925 47.502 1.962 47.435 1.988 47.368 2.014 47.291 2.026 47.207 2.026 47.083 2.026 46.985 1.98 46.913 1.888 46.841 1.796 46.805 1.672 46.805 1.515 46.805 1.355 46.848 1.229 46.934 1.136 47.02 1.043 47.164.996 47.37.996 47.497.996 47.605 1.016 47.697 1.055 47.789 1.094 47.864 1.147 47.921 1.213 47.979 1.279 48.021 1.356 48.048 1.443 48.075 1.53 48.087 1.622 48.087 1.718L48.087 1.718zM47.161 1.515C47.161 1.572 47.179 1.617 47.213 1.65 47.248 1.683 47.295 1.7 47.356 1.7 47.411 1.7 47.455 1.683 47.49 1.65 47.524 1.617 47.542 1.572 47.542 1.515 47.542 1.455 47.524 1.407 47.49 1.373 47.455 1.338 47.411 1.321 47.356 1.321 47.227 1.321 47.161 1.386 47.161 1.515L47.161 1.515zM52.656 11.09C52.452 11.09 52.281 11.073 52.143 11.038 52.006 11.004 51.888 10.943 51.789 10.857 51.689 10.772 51.601 10.657 51.525 10.514 51.448 10.371 51.369 10.191 51.288 9.974L51.049 9.342C50.997 9.363 50.93 9.383 50.846 9.401 50.761 9.419 50.689 9.428 50.629 9.428 50.33 9.428 50.104 9.353 49.949 9.202 49.794 9.052 49.716 8.84 49.716 8.565 49.716 8.297 49.795 8.087 49.953 7.935 50.111 7.783 50.337 7.707 50.629 7.707 50.771 7.707 50.892 7.727 50.992 7.766 51.092 7.805 51.182 7.866 51.261 7.949 51.34 8.032 51.41 8.138 51.476 8.269 51.54 8.4 51.608 8.558 51.677 8.741L52.111 9.888C52.189 10.093 52.268 10.237 52.347 10.32 52.427 10.403 52.528 10.444 52.648 10.444 52.774 10.444 52.878 10.403 52.96 10.322 53.041 10.241 53.082 10.096 53.082 9.888L53.082 7.752C53.082 7.563 53.052 7.388 52.991 7.228 52.931 7.069 52.842 6.931 52.722 6.815 52.602 6.699 52.455 6.609 52.278 6.544 52.101 6.479 51.894 6.447 51.659 6.447 51.379 6.447 51.097 6.497 50.812 6.596 50.528 6.696 50.254 6.833 49.993 7.007L49.64 6.447C49.913 6.263 50.215 6.113 50.543 5.995 50.871 5.877 51.243 5.819 51.658 5.819 51.999 5.819 52.304 5.864 52.573 5.952 52.843 6.041 53.071 6.167 53.26 6.331 53.448 6.495 53.592 6.692 53.691 6.923 53.791 7.153 53.84 7.411 53.84 7.697L53.84 9.861C53.84 10.066 53.819 10.245 53.779 10.399 53.738 10.552 53.671 10.68 53.578 10.783 53.484 10.886 53.362 10.962 53.212 11.013 53.062 11.064 52.876 11.09 52.656 11.09L52.656 11.09zM50.199 8.565C50.199 8.695 50.239 8.797 50.319 8.872 50.398 8.948 50.505 8.985 50.637 8.985 50.763 8.985 50.866 8.948 50.947 8.872 51.026 8.797 51.066 8.695 51.066 8.565 51.066 8.433 51.026 8.329 50.947 8.253 50.867 8.178 50.763 8.14 50.637 8.14 50.504 8.14 50.398 8.178 50.319 8.253 50.239 8.329 50.199 8.433 50.199 8.565L50.199 8.565zM59.227 11L58.468 11 58.468 7.708C58.468 7.518 58.446 7.346 58.4 7.191 58.355 7.036 58.287 6.902 58.195 6.791 58.103 6.68 57.987 6.594 57.847 6.534 57.706 6.473 57.542 6.444 57.352 6.444 57.093 6.444 56.833 6.495 56.571 6.597 56.309 6.7 56.061 6.835 55.826 7.004L55.478 6.448C55.734 6.261 56.015 6.11 56.323 5.994 56.63 5.878 56.971 5.82 57.348 5.82 57.649 5.82 57.916 5.864 58.15 5.951 58.383 6.039 58.58 6.163 58.739 6.326 58.899 6.489 59.02 6.686 59.103 6.918 59.185 7.15 59.227 7.41 59.227 7.699L59.227 11 59.227 11zM60.402 11L60.402 9.225C60.402 9.065 60.42 8.922 60.456 8.796 60.492 8.67 60.551 8.559 60.63 8.464 60.71 8.369 60.814 8.289 60.94 8.225 61.067 8.161 61.22 8.108 61.401 8.069 61.326 8.006 61.233 7.951 61.123 7.906 61.014 7.861 60.902 7.823 60.789 7.793 60.677 7.763 60.571 7.741 60.473 7.728 60.375 7.714 60.302 7.708 60.254 7.708 60.266 7.431 60.316 7.176 60.405 6.945 60.494 6.713 60.627 6.513 60.802 6.346 60.977 6.179 61.2 6.049 61.468 5.957 61.737 5.865 62.055 5.819 62.426 5.819 62.847 5.819 63.198 5.87 63.481 5.97 63.762 6.071 63.987 6.212 64.156 6.392 64.325 6.572 64.444 6.788 64.515 7.038 64.585 7.288 64.621 7.56 64.621 7.855L64.621 11 63.861 11 63.861 7.911C63.861 7.682 63.836 7.477 63.785 7.294 63.733 7.112 63.651 6.957 63.539 6.829 63.426 6.701 63.278 6.603 63.097 6.535 62.914 6.468 62.691 6.433 62.426 6.433 62.182 6.433 61.976 6.459 61.807 6.512 61.638 6.565 61.5 6.634 61.392 6.72 61.284 6.806 61.201 6.903 61.143 7.011 61.086 7.119 61.048 7.228 61.031 7.336 61.151 7.354 61.268 7.384 61.383 7.426 61.498 7.468 61.604 7.516 61.701 7.571 61.8 7.625 61.886 7.683 61.961 7.745 62.036 7.807 62.097 7.864 62.142 7.919L62.142 8.176C61.971 8.212 61.823 8.257 61.698 8.311 61.573 8.365 61.471 8.434 61.393 8.517 61.314 8.6 61.256 8.7 61.219 8.817 61.181 8.935 61.162 9.073 61.162 9.233L61.162 11 60.402 11 60.402 11z"/>
    </g>
  </g>
</svg>
