<?xml version="1.0" encoding="UTF-8" standalone="no"?>
<svg width="135px" height="40px" viewBox="0 0 135 40" version="1.1" xmlns="http://www.w3.org/2000/svg" xmlns:xlink="http://www.w3.org/1999/xlink">
    <!-- Generator: Sketch 39.1 (31720) - http://www.bohemiancoding.com/sketch -->
    <title>google portuguese</title>
    <desc>Created with Sketch.</desc>
    <defs>
        <linearGradient x1="91.5039455%" y1="4.96190818%" x2="-38.3274021%" y2="71.8998046%" id="linearGradient-1">
            <stop stop-color="#00A0FF" offset="0%"></stop>
            <stop stop-color="#00A1FF" offset="0.66%"></stop>
            <stop stop-color="#00BEFF" offset="26.01%"></stop>
            <stop stop-color="#00D2FF" offset="51.22%"></stop>
            <stop stop-color="#00DFFF" offset="76.04%"></stop>
            <stop stop-color="#00E3FF" offset="100%"></stop>
        </linearGradient>
        <linearGradient x1="107.583323%" y1="49.9941541%" x2="-130.477432%" y2="49.9941541%" id="linearGradient-2">
            <stop stop-color="#FFE000" offset="0%"></stop>
            <stop stop-color="#FFBD00" offset="40.87%"></stop>
            <stop stop-color="#FFA500" offset="77.54%"></stop>
            <stop stop-color="#FF9C00" offset="100%"></stop>
        </linearGradient>
        <linearGradient x1="86.252547%" y1="17.8365388%" x2="-50.1402373%" y2="194.798424%" id="linearGradient-3">
            <stop stop-color="#FF3A44" offset="0%"></stop>
            <stop stop-color="#C31162" offset="100%"></stop>
        </linearGradient>
        <linearGradient x1="-18.8097807%" y1="-54.1488449%" x2="42.0933717%" y2="24.8670947%" id="linearGradient-4">
            <stop stop-color="#32A071" offset="0%"></stop>
            <stop stop-color="#2DA771" offset="6.85%"></stop>
            <stop stop-color="#15CF74" offset="47.62%"></stop>
            <stop stop-color="#06E775" offset="80.09%"></stop>
            <stop stop-color="#00F076" offset="100%"></stop>
        </linearGradient>
    </defs>
    <g id="apps" stroke="none" stroke-width="1" fill="none" fill-rule="evenodd">
        <g id="localized-badges" transform="translate(-198.000000, -748.000000)">
            <g id="google-portuguese" transform="translate(198.000000, 748.000000)">
                <g id="artwork">
                    <g id="Group">
                        <path d="M130,40 L5,40 C2.25,40 0,37.75 0,35 L0,5 C0,2.25 2.25,0 5,0 L130,0 C132.75,0 135,2.25 135,5 L135,35 C135,37.75 132.75,40 130,40 L130,40 Z" id="Shape" fill="#000000"></path>
                        <path d="M130,0.8 C132.316,0.8 134.2,2.684 134.2,5 L134.2,35 C134.2,37.316 132.316,39.2 130,39.2 L5,39.2 C2.684,39.2 0.8,37.316 0.8,35 L0.8,5 C0.8,2.684 2.684,0.8 5,0.8 L130,0.8 L130,0.8 Z M130,0 L5,0 C2.25,0 0,2.25 0,5 L0,35 C0,37.75 2.25,40 5,40 L130,40 C132.75,40 135,37.75 135,35 L135,5 C135,2.25 132.75,0 130,0 L130,0 L130,0 Z" id="Shape" fill="#A6A6A6"></path>
                        <path d="M68.136,21.751 C65.784,21.751 63.867,23.54 63.867,26.004 C63.867,28.453 65.784,30.257 68.136,30.257 C70.489,30.257 72.406,28.453 72.406,26.004 C72.405,23.54 70.488,21.751 68.136,21.751 L68.136,21.751 Z M68.136,28.583 C66.847,28.583 65.736,27.52 65.736,26.005 C65.736,24.474 66.848,23.427 68.136,23.427 C69.425,23.427 70.536,24.474 70.536,26.005 C70.536,27.519 69.425,28.583 68.136,28.583 L68.136,28.583 Z M58.822,21.751 C56.47,21.751 54.553,23.54 54.553,26.004 C54.553,28.453 56.47,30.257 58.822,30.257 C61.175,30.257 63.092,28.453 63.092,26.004 C63.092,23.54 61.175,21.751 58.822,21.751 L58.822,21.751 Z M58.822,28.583 C57.533,28.583 56.422,27.52 56.422,26.005 C56.422,24.474 57.534,23.427 58.822,23.427 C60.111,23.427 61.222,24.474 61.222,26.005 C61.223,27.519 60.111,28.583 58.822,28.583 L58.822,28.583 Z M47.744,23.057 L47.744,24.861 L52.062,24.861 C51.933,25.876 51.595,26.617 51.079,27.132 C50.451,27.76 49.468,28.453 47.744,28.453 C45.086,28.453 43.008,26.31 43.008,23.652 C43.008,20.994 45.086,18.851 47.744,18.851 C49.178,18.851 50.225,19.415 50.998,20.14 L52.271,18.867 C51.191,17.836 49.758,17.047 47.744,17.047 C44.103,17.047 41.042,20.011 41.042,23.652 C41.042,27.293 44.103,30.257 47.744,30.257 C49.709,30.257 51.192,29.612 52.351,28.404 C53.543,27.212 53.914,25.536 53.914,24.183 C53.914,23.765 53.882,23.378 53.817,23.056 L47.744,23.056 L47.744,23.057 Z M93.052,24.458 C92.698,23.508 91.618,21.751 89.411,21.751 C87.22,21.751 85.399,23.475 85.399,26.004 C85.399,28.388 87.204,30.257 89.62,30.257 C91.569,30.257 92.697,29.065 93.165,28.372 L91.715,27.405 C91.232,28.114 90.571,28.581 89.62,28.581 C88.67,28.581 87.993,28.146 87.558,27.292 L93.245,24.94 L93.052,24.458 L93.052,24.458 Z M87.252,25.876 C87.204,24.232 88.525,23.395 89.476,23.395 C90.217,23.395 90.845,23.766 91.055,24.297 L87.252,25.876 L87.252,25.876 Z M82.629,30 L84.497,30 L84.497,17.499 L82.629,17.499 L82.629,30 L82.629,30 Z M79.567,22.702 L79.503,22.702 C79.084,22.202 78.278,21.751 77.264,21.751 C75.137,21.751 73.188,23.62 73.188,26.021 C73.188,28.405 75.137,30.258 77.264,30.258 C78.279,30.258 79.084,29.807 79.503,29.292 L79.567,29.292 L79.567,29.904 C79.567,31.531 78.697,32.401 77.296,32.401 C76.152,32.401 75.443,31.58 75.153,30.887 L73.526,31.564 C73.993,32.691 75.233,34.077 77.296,34.077 C79.487,34.077 81.34,32.788 81.34,29.646 L81.34,22.01 L79.568,22.01 L79.568,22.702 L79.567,22.702 Z M77.425,28.583 C76.136,28.583 75.057,27.503 75.057,26.021 C75.057,24.522 76.136,23.427 77.425,23.427 C78.697,23.427 79.696,24.522 79.696,26.021 C79.696,27.503 78.697,28.583 77.425,28.583 L77.425,28.583 Z M101.806,17.499 L97.335,17.499 L97.335,30 L99.2,30 L99.2,25.264 L101.805,25.264 C103.873,25.264 105.907,23.767 105.907,21.382 C105.907,18.997 103.874,17.499 101.806,17.499 L101.806,17.499 Z M101.854,23.524 L99.2,23.524 L99.2,19.239 L101.854,19.239 C103.249,19.239 104.041,20.394 104.041,21.382 C104.041,22.35 103.249,23.524 101.854,23.524 L101.854,23.524 Z M113.386,21.729 C112.035,21.729 110.636,22.324 110.057,23.643 L111.713,24.334 C112.067,23.643 112.727,23.417 113.418,23.417 C114.383,23.417 115.364,23.996 115.38,25.025 L115.38,25.154 C115.042,24.961 114.318,24.672 113.434,24.672 C111.649,24.672 109.831,25.653 109.831,27.486 C109.831,29.159 111.295,30.236 112.935,30.236 C114.189,30.236 114.881,29.673 115.315,29.013 L115.379,29.013 L115.379,29.978 L117.181,29.978 L117.181,25.185 C117.182,22.967 115.524,21.729 113.386,21.729 L113.386,21.729 Z M113.16,28.58 C112.55,28.58 111.697,28.274 111.697,27.518 C111.697,26.553 112.759,26.183 113.676,26.183 C114.495,26.183 114.882,26.36 115.38,26.601 C115.235,27.76 114.238,28.58 113.16,28.58 L113.16,28.58 Z M123.743,22.002 L121.604,27.422 L121.54,27.422 L119.32,22.002 L117.31,22.002 L120.639,29.577 L118.741,33.791 L120.687,33.791 L125.818,22.002 L123.743,22.002 L123.743,22.002 Z M106.937,30 L108.802,30 L108.802,17.499 L106.937,17.499 L106.937,30 L106.937,30 Z" id="Shape" fill="#FFFFFF"></path>
                        <g transform="translate(9.000000, 7.000000)" id="Shape">
                            <path d="M1.436,0.538 C1.145,0.846 0.973,1.324 0.973,1.943 L0.973,24.059 C0.973,24.679 1.145,25.156 1.436,25.464 L1.51,25.536 L13.899,13.147 L13.899,13.001 L13.899,12.855 L1.51,0.465 L1.436,0.538 L1.436,0.538 Z" fill="url(#linearGradient-1)"></path>
                            <path d="M18.028,17.278 L13.899,13.147 L13.899,13.001 L13.899,12.855 L18.029,8.725 L18.122,8.778 L23.015,11.558 C24.412,12.352 24.412,13.651 23.015,14.446 L18.122,17.226 L18.028,17.278 L18.028,17.278 Z" fill="url(#linearGradient-2)"></path>
                            <path d="M18.122,17.225 L13.898,13.001 L1.436,25.464 C1.896,25.952 2.657,26.012 3.514,25.526 L18.122,17.225" fill="url(#linearGradient-3)"></path>
                            <path d="M18.122,8.777 L3.514,0.477 C2.657,-0.01 1.896,0.051 1.436,0.539 L13.899,13.002 L18.122,8.777 L18.122,8.777 Z" fill="url(#linearGradient-4)"></path>
                            <g transform="translate(0.000000, 17.000000)" fill="#000000">
                                <path d="M18.029,0.132 L3.514,8.38 C2.702,8.841 1.976,8.81 1.51,8.391 L1.51,8.391 L1.436,8.465 L1.436,8.465 L1.51,8.537 L1.51,8.537 C1.976,8.957 2.702,8.988 3.514,8.526 L18.122,0.226 L18.029,0.132 L18.029,0.132 Z" opacity="0.2"></path>
                                <path d="M1.436,8.318 C1.145,8.01 0.973,7.532 0.973,6.913 L0.973,7.059 C0.973,7.678 1.145,8.156 1.436,8.464 L1.51,8.39 L1.436,8.318 L1.436,8.318 Z" opacity="0.12"></path>
                            </g>
                            <path d="M23.015,14.299 L18.029,17.132 L18.122,17.225 L23.015,14.445 C23.714,14.048 24.063,13.525 24.063,13.002 L24.063,13.002 C24.004,13.475 23.648,13.938 23.015,14.299 L23.015,14.299 Z" fill="#000000" opacity="0.12"></path>
                            <path d="M3.514,0.623 L23.015,11.703 C23.649,12.063 24.004,12.527 24.063,13.001 L24.063,13.001 C24.063,12.478 23.714,11.954 23.015,11.557 L3.514,0.477 C2.116,-0.317 0.973,0.343 0.973,1.943 L0.973,2.089 C0.973,0.489 2.116,-0.171 3.514,0.623 L3.514,0.623 Z" fill="#FFFFFF" opacity="0.25"></path>
                        </g>
                    </g>
                    <g id="Group" transform="translate(41.000000, 5.000000)" stroke="#FFFFFF" stroke-width="0.2" fill="#FFFFFF">
                        <path d="M0.338,8 L0.338,2 L2.173,2 C3.095,2 3.832,2.278 4.386,2.834 C4.939,3.39 5.215,4.111 5.215,5 C5.215,5.888 4.939,6.61 4.386,7.166 C3.832,7.722 3.095,8 2.173,8 L0.338,8 L0.338,8 Z M1.108,7.263 L2.172,7.263 C2.864,7.263 3.413,7.065 3.818,6.668 C4.223,6.272 4.425,5.715 4.425,5.001 C4.425,4.292 4.223,3.737 3.818,3.337 C3.413,2.938 2.864,2.738 2.172,2.738 L1.108,2.738 L1.108,7.263 L1.108,7.263 Z" id="Shape"></path>
                        <polygon id="Shape" points="6.297 8 6.297 2 7.068 2 7.068 8"></polygon>
                        <path d="M10.134,8.134 C9.698,8.134 9.273,7.992 8.857,7.707 C8.44,7.422 8.168,7.022 8.04,6.508 L8.744,6.223 C8.828,6.553 8.999,6.83 9.259,7.056 C9.52,7.282 9.811,7.395 10.135,7.395 C10.47,7.395 10.757,7.307 10.994,7.131 C11.231,6.955 11.349,6.716 11.349,6.414 C11.349,6.079 11.231,5.821 10.994,5.639 C10.757,5.457 10.381,5.288 9.867,5.132 C9.336,4.965 8.933,4.748 8.66,4.483 C8.387,4.218 8.249,3.879 8.249,3.465 C8.249,3.035 8.42,2.661 8.761,2.342 C9.102,2.023 9.546,1.864 10.093,1.864 C10.602,1.864 11.015,1.991 11.333,2.245 C11.651,2.499 11.858,2.777 11.953,3.079 L11.25,3.372 C11.199,3.183 11.075,3.006 10.877,2.844 C10.679,2.682 10.423,2.601 10.109,2.601 C9.813,2.601 9.56,2.683 9.351,2.848 C9.141,3.013 9.037,3.218 9.037,3.464 C9.037,3.688 9.134,3.876 9.326,4.03 C9.519,4.183 9.803,4.322 10.177,4.445 C10.473,4.54 10.72,4.632 10.919,4.722 C11.117,4.811 11.318,4.93 11.522,5.078 C11.726,5.226 11.879,5.411 11.983,5.631 C12.087,5.851 12.138,6.107 12.138,6.398 C12.138,6.689 12.078,6.948 11.958,7.177 C11.838,7.406 11.678,7.588 11.479,7.722 C11.281,7.856 11.068,7.958 10.838,8.028 C10.608,8.098 10.374,8.134 10.134,8.134 L10.134,8.134 Z" id="Shape"></path>
                        <path d="M14.014,8 L13.243,8 L13.243,2 L15.288,2 C15.796,2 16.236,2.169 16.607,2.507 C16.979,2.845 17.165,3.271 17.165,3.785 C17.165,4.299 16.979,4.724 16.607,5.062 C16.236,5.4 15.795,5.569 15.288,5.569 L14.014,5.569 L14.014,8 L14.014,8 Z M14.014,4.832 L15.305,4.832 C15.629,4.832 15.889,4.724 16.084,4.506 C16.279,4.288 16.377,4.048 16.377,3.785 C16.377,3.522 16.279,3.282 16.084,3.064 C15.889,2.846 15.629,2.737 15.305,2.737 L14.014,2.737 L14.014,4.832 L14.014,4.832 Z" id="Shape"></path>
                        <path d="M23.043,7.225 C22.453,7.831 21.72,8.134 20.843,8.134 C19.966,8.134 19.233,7.831 18.644,7.225 C18.054,6.619 17.76,5.877 17.76,5 C17.76,4.123 18.054,3.381 18.644,2.775 C19.233,2.169 19.966,1.865 20.843,1.865 C21.715,1.865 22.447,2.17 23.039,2.779 C23.631,3.388 23.927,4.128 23.927,5 C23.927,5.877 23.632,6.619 23.043,7.225 L23.043,7.225 Z M19.213,6.722 C19.657,7.172 20.2,7.396 20.843,7.396 C21.486,7.396 22.03,7.171 22.473,6.722 C22.917,6.272 23.14,5.698 23.14,5 C23.14,4.302 22.917,3.728 22.473,3.278 C22.03,2.828 21.486,2.604 20.843,2.604 C20.2,2.604 19.657,2.829 19.213,3.278 C18.77,3.728 18.547,4.302 18.547,5 C18.547,5.698 18.77,6.272 19.213,6.722 L19.213,6.722 Z" id="Shape"></path>
                        <polygon id="Shape" points="25.009 8 25.009 2 25.947 2 28.863 6.667 28.896 6.667 28.863 5.511 28.863 2 29.634 2 29.634 8 28.83 8 25.779 3.106 25.746 3.106 25.779 4.262 25.779 8"></polygon>
                        <path d="M31.009,8 L31.009,2 L31.78,2 L31.78,8 L31.009,8 L31.009,8 Z M31.729,1.531 L31.058,1.531 L31.495,0.458 L32.333,0.458 L31.729,1.531 L31.729,1.531 Z" id="Shape"></path>
                        <polygon id="Shape" points="34.637 8 32.526 2 33.38 2 35.023 6.869 35.056 6.869 36.766 2 37.62 2 35.441 8"></polygon>
                        <polygon id="Shape" points="41.995 2.737 39.263 2.737 39.263 4.639 41.727 4.639 41.727 5.36 39.263 5.36 39.263 7.262 41.995 7.262 41.995 8 38.492 8 38.492 2 41.995 2"></polygon>
                        <polygon id="Shape" points="43.202 8 43.202 2 43.973 2 43.973 7.263 46.571 7.263 46.571 8"></polygon>
                        <polygon id="Shape" points="49.554 8 49.554 2 50.492 2 53.408 6.667 53.441 6.667 53.408 5.511 53.408 2 54.179 2 54.179 8 53.374 8 50.323 3.106 50.29 3.106 50.323 4.262 50.323 8"></polygon>
                        <path d="M60.459,7.225 C59.869,7.831 59.136,8.134 58.259,8.134 C57.382,8.134 56.649,7.831 56.06,7.225 C55.47,6.619 55.176,5.877 55.176,5 C55.176,4.123 55.47,3.381 56.06,2.775 C56.649,2.169 57.382,1.865 58.259,1.865 C59.131,1.865 59.863,2.17 60.455,2.779 C61.047,3.388 61.343,4.128 61.343,5 C61.343,5.877 61.048,6.619 60.459,7.225 L60.459,7.225 Z M56.629,6.722 C57.073,7.172 57.616,7.396 58.259,7.396 C58.902,7.396 59.446,7.171 59.889,6.722 C60.333,6.272 60.556,5.698 60.556,5 C60.556,4.302 60.333,3.728 59.889,3.278 C59.446,2.828 58.902,2.604 58.259,2.604 C57.616,2.604 57.073,2.829 56.629,3.278 C56.186,3.728 55.963,4.302 55.963,5 C55.963,5.698 56.186,6.272 56.629,6.722 L56.629,6.722 Z" id="Shape"></path>
                    </g>
                </g>
            </g>
        </g>
    </g>
</svg>