<svg xmlns="http://www.w3.org/2000/svg" width="70" height="66"><g fill="none" fill-rule="evenodd"><path stroke="#FFF" stroke-width="1.255" d="M27.352 48.176l6.716 6.692a4.94 4.94 0 0 0 3.515 1.452c2.74 0 4.971-2.222 4.971-4.955 0-.917-4.752-6.787-4.752-6.787m0 0l-7.315-7.29a1.298 1.298 0 0 0-.918-.38H16.583c0-.714-.58-1.294-1.299-1.294H1v23.294h14.284c.719 0 1.299-.58 1.299-1.294h3.59l13.882 6.918a4.248 4.248 0 0 0 4.038-.13l28.329-16.468a4.245 4.245 0 0 0 2.104-3.653 4.216 4.216 0 0 0-1.512-3.236 4.256 4.256 0 0 0-3.46-.93l-25.752 4.463zM24.05 4.142C25.98 2.115 28.54 1 31.26 1c2.72 0 5.28 1.115 7.21 3.142l.724.761c.399.416 1.127.416 1.526 0l.723-.761C43.373 2.115 45.934 1 48.654 1c2.72 0 5.28 1.115 7.209 3.142 4.017 4.217 4.017 11.08 0 15.297L39.957 36.141 24.05 19.439c-4.018-4.217-4.018-11.08 0-15.297zm-9.13 30.96v23.806"/><path fill="#FFF" d="M40.65 21.051c0 .558.184 1.03.553 1.417.37.387.9.581 1.593.581.67 0 1.187-.194 1.552-.581.365-.388.547-.86.547-1.417v-.73c0-.57-.184-1.045-.552-1.427-.37-.38-.893-.571-1.57-.571-.678 0-1.2.192-1.57.576-.369.386-.553.858-.553 1.421v.731zm-1.095-.73c0-.789.295-1.454.886-1.998s1.369-.816 2.332-.816c.956 0 1.731.272 2.326.816.595.544.892 1.21.892 1.997v.731c0 .795-.295 1.462-.887 2.003-.59.54-1.36.81-2.308.81-.971 0-1.755-.27-2.349-.81-.595-.54-.892-1.208-.892-2.003v-.73zm-4.698 2.212l-.835-.45 8.028-10.672.836.45-8.029 10.672zm-2.484-9.171c0 .55.186 1.019.559 1.406.373.388.905.582 1.598.582.67 0 1.187-.194 1.552-.582.365-.387.548-.856.548-1.406v-.722a2 2 0 0 0-.553-1.416c-.37-.394-.892-.59-1.57-.59-.677 0-1.202.196-1.575.59a1.986 1.986 0 0 0-.559 1.416v.722zm-1.084-.722c0-.794.295-1.463.886-2.007s1.368-.815 2.332-.815c.956 0 1.73.271 2.32.815.592.544.887 1.213.887 2.007v.722c0 .787-.294 1.453-.88 1.993-.588.54-1.356.811-2.304.811-.972 0-1.755-.27-2.349-.811-.595-.54-.892-1.206-.892-1.993v-.722z"/></g></svg>