<svg xmlns="http://www.w3.org/2000/svg" width="62" height="66"><g fill="none" fill-rule="evenodd" stroke="#FFF" stroke-width="1.28"><path d="M60.382 37.374c0-7.034-6.326-12.742-14.013-12.879v25.757c7.687-.135 14.013-5.844 14.013-12.878zM15.309 24.497C7.414 24.497 1 30.268 1 37.386 1 44.508 7.422 50.28 15.316 50.28c.097 0 .305-.011.305-.014V24.508s-.216-.011-.312-.011zm18.112 34.647c2.588 0 4.686 1.242 4.686 2.776 0 1.533-2.098 2.776-4.686 2.776s-4.686-1.243-4.686-2.776c0-1.534 2.098-2.776 4.686-2.776z"/><path d="M50.981 49.379v5.943c0 3.644-2.946 6.598-6.58 6.598h-6.294M7.562 26.356C7.562 8.823 18.106 1 31.112 1s23.551 8.356 23.551 25.89m-41.58-2.238v25.376m35.805-25.28v25.28"/></g></svg>