<svg width="300" height="199" viewBox="0 0 300 199" xmlns="http://www.w3.org/2000/svg"><title>Group 2</title><g fill="none" fill-rule="evenodd"><path fill="#F1F2F2" fill-rule="nonzero" d="M0 0h300v199H0z"/><path d="M39.125 55.375V74.75H75.25V55.375H39.125zm0-1H75.25V34h1v20.375h36.125V34h1v20.375H149.5V34h1v20.375h36.125V34h1v20.375h36.125V34h1v20.375h36.125V34h1v20.375H299.5v1h-37.625V74.75H299.5v1h-37.625v19.375H299.5v1h-37.625V115.5H299.5v1h-37.625v19.375H299.5v1h-37.625v19.375H299.5v1h-37.625v19.375H299.5v1h-37.625V199h-1v-21.375H224.75V199h-1v-21.375h-36.125V199h-1v-21.375H150.5V199h-1v-21.375h-36.125V199h-1v-21.375H76.25V199h-1v-21.375H39.125V199h-1v-21.375H1.5v-1h36.625V157.25H1.5v-1h36.625v-19.375H1.5v-1h36.625V116.5H1.5v-1h36.625V96.125H1.5v-1h36.625V75.75H1.5v-1h36.625V55.375H1.5v-1h36.625V34h1v20.375zm221.75 1H224.75V74.75h36.125V55.375zm-37.125 0h-36.125V74.75h36.125V55.375zm-37.125 0H150.5V74.75h36.125V55.375zm-37.125 0h-36.125V74.75H149.5V55.375zm-37.125 0H76.25V74.75h36.125V55.375zM39.125 75.75v19.375H75.25V75.75H39.125zm221.75 0H224.75v19.375h36.125V75.75zm-37.125 0h-36.125v19.375h36.125V75.75zm-37.125 0H150.5v19.375h36.125V75.75zm-37.125 0h-36.125v19.375H149.5V75.75zm-37.125 0H76.25v19.375h36.125V75.75zm-73.25 20.375V115.5H75.25V96.125H39.125zm221.75 0H224.75V115.5h36.125V96.125zm-37.125 0h-36.125V115.5h36.125V96.125zm-37.125 0H150.5V115.5h36.125V96.125zm-37.125 0h-36.125V115.5H149.5V96.125zm-37.125 0H76.25V115.5h36.125V96.125zM39.125 116.5v19.375H75.25V116.5H39.125zm221.75 0H224.75v19.375h36.125V116.5zm-37.125 0h-36.125v19.375h36.125V116.5zm-37.125 0H150.5v19.375h36.125V116.5zm-37.125 0h-36.125v19.375H149.5V116.5zm-37.125 0H76.25v19.375h36.125V116.5zm-73.25 20.375v19.375H75.25v-19.375H39.125zm221.75 0H224.75v19.375h36.125v-19.375zm-37.125 0h-36.125v19.375h36.125v-19.375zm-37.125 0H150.5v19.375h36.125v-19.375zm-37.125 0h-36.125v19.375H149.5v-19.375zm-37.125 0H76.25v19.375h36.125v-19.375zm-73.25 20.375v19.375H75.25V157.25H39.125zm221.75 0H224.75v19.375h36.125V157.25zm-37.125 0h-36.125v19.375h36.125V157.25zm-37.125 0H150.5v19.375h36.125V157.25zm-37.125 0h-36.125v19.375H149.5V157.25zm-37.125 0H76.25v19.375h36.125V157.25z" fill="#DFDEDE" fill-rule="nonzero"/><path stroke="#C2C2C2" stroke-width="2" d="M1 1h298v197H1z"/><path fill="#C2C2C2" fill-rule="nonzero" d="M0 33h300v2H0z"/><g transform="translate(4 35.217)"><path d="M.9 37.663h290.625" stroke="#15212D" stroke-width="1.133" fill="#D8D8D8" fill-rule="nonzero" stroke-dasharray="7.5"/><path d="M237.863.725V161" stroke="#2A3052" stroke-width="1.211" stroke-linejoin="round"/><path d="M.9 130.25h290.625" stroke="#15212D" stroke-width="1.133" fill="#D8D8D8" fill-rule="nonzero" stroke-dasharray="7.5"/><path stroke="#2A3052" stroke-width="3.633" stroke-linecap="round" stroke-linejoin="round" d="M17.25 82.063L53.115 66l26.494 21.96 38.066-80.595 44.918 122.993 28.848-61.497 46.185-31.54"/><path d="M251.09 21.584a2.888 2.888 0 0 1-.945 1.995c-.616.5-1.396.756-2.19.716a3.12 3.12 0 0 1-1.683-.45 2.974 2.974 0 0 1-1.125-1.29 4.65 4.65 0 0 1-.413-1.938v-.75a4.684 4.684 0 0 1 .401-1.992 3.022 3.022 0 0 1 1.152-1.331 3.21 3.21 0 0 1 1.736-.465 3.083 3.083 0 0 1 2.13.72c.562.532.898 1.26.937 2.033h-1.383a1.976 1.976 0 0 0-.503-1.245 1.661 1.661 0 0 0-1.181-.383 1.624 1.624 0 0 0-1.395.664 3.307 3.307 0 0 0-.495 1.942v.709c-.045.69.116 1.377.461 1.976.301.452.819.712 1.361.683a1.8 1.8 0 0 0 1.23-.371 1.92 1.92 0 0 0 .525-1.223h1.38zm2.535 2.603h-1.335v-8.438h1.335v8.438zm1.2-3.027a3.506 3.506 0 0 1 .35-1.575c.212-.446.55-.82.974-1.076a2.737 2.737 0 0 1 1.436-.375 2.595 2.595 0 0 1 1.95.773c.52.558.81 1.292.814 2.055l.004.315c.01.542-.106 1.08-.338 1.57-.21.444-.547.816-.967 1.07a2.76 2.76 0 0 1-1.451.378 2.58 2.58 0 0 1-2.014-.836 3.21 3.21 0 0 1-.754-2.231l-.004-.068zm1.34.113c-.032.507.1 1.012.374 1.44.242.34.64.535 1.058.517.416.016.812-.182 1.05-.525.28-.464.411-1.003.375-1.545a2.363 2.363 0 0 0-.387-1.428 1.305 1.305 0 0 0-2.088-.008 2.595 2.595 0 0 0-.387 1.553l.004-.004zm8.65 1.297a.604.604 0 0 0-.296-.543 3.124 3.124 0 0 0-.975-.33 5.014 5.014 0 0 1-1.136-.36 1.519 1.519 0 0 1-1.001-1.403 1.582 1.582 0 0 1 .648-1.286 2.561 2.561 0 0 1 1.65-.514 2.666 2.666 0 0 1 1.722.525c.425.325.669.834.656 1.369h-1.335a.825.825 0 0 0-.285-.638 1.095 1.095 0 0 0-.758-.258 1.181 1.181 0 0 0-.72.206.637.637 0 0 0-.277.544.54.54 0 0 0 .262.476c.328.168.68.285 1.043.345.427.082.842.221 1.234.412.266.13.494.327.663.57.151.244.227.527.218.814a1.549 1.549 0 0 1-.668 1.301c-.51.35-1.121.525-1.74.495a3.075 3.075 0 0 1-1.3-.262 2.141 2.141 0 0 1-.89-.724 1.717 1.717 0 0 1-.318-.997h1.293a.937.937 0 0 0 .357.73c.254.182.562.271.873.256a1.35 1.35 0 0 0 .803-.203.623.623 0 0 0 .277-.525zm5.093 1.725a2.76 2.76 0 0 1-2.059-.798 2.899 2.899 0 0 1-.787-2.127v-.165c-.01-.549.106-1.093.34-1.59.212-.447.546-.826.965-1.091a2.55 2.55 0 0 1 1.387-.39c.71-.042 1.4.243 1.875.773.477.627.711 1.406.66 2.193v.537h-3.881c.016.433.189.847.487 1.162.288.287.681.443 1.088.431a1.808 1.808 0 0 0 1.492-.742l.72.686a2.4 2.4 0 0 1-.952.825 2.985 2.985 0 0 1-1.335.3v-.004zm-.161-5.092c-.34-.012-.666.13-.89.386-.246.307-.396.68-.43 1.073h2.546v-.102a1.624 1.624 0 0 0-.36-1.012 1.114 1.114 0 0 0-.866-.345z" fill="#2A3052" fill-rule="nonzero"/><ellipse cx="8.363" cy="9.35" rx="8.137" ry="8.475" opacity=".6" transform="translate(229.5 27)" fill="#FFF" fill-rule="nonzero"/><ellipse stroke="#E88024" stroke-width="2.422" cx="237.863" cy="36.35" rx="8.137" ry="8.475"/><ellipse cx="8.137" cy="9.35" rx="8.137" ry="8.475" opacity=".6" transform="translate(154.5 120.75)" fill="#FFF" fill-rule="nonzero"/><ellipse stroke="#E88024" stroke-width="2.422" cx="162.637" cy="130.1" rx="8.137" ry="8.475"/></g><g fill="#2A3052" fill-rule="nonzero"><path d="M19.316 131.911c-.029-.143-.029-.258-.029-.402a2.66 2.66 0 0 1-.775.718c-.316.201-.66.287-1.034.287-.603 0-1.062-.143-1.378-.488a1.751 1.751 0 0 1-.488-1.292c0-.574.23-1.005.689-1.32.46-.316 1.062-.489 1.837-.489h1.149v-.574c0-.344-.115-.631-.316-.832-.2-.201-.517-.316-.89-.316-.344 0-.632.086-.833.258a.846.846 0 0 0-.315.632h-1.005v-.029c-.029-.43.172-.833.603-1.177.43-.345.976-.546 1.636-.546.66 0 1.206.173 1.608.517.402.345.603.833.603 1.464v2.843c0 .2 0 .402.029.603.028.2.057.402.115.574h-1.12v.058c-.029-.173-.058-.345-.086-.489zm-1.738-.344c.373 0 .746-.086 1.033-.287.316-.201.517-.43.603-.69v-.947h-1.177c-.43 0-.775.115-1.033.316a.963.963 0 0 0-.374.775c0 .259.086.46.23.632.172.115.402.2.718.2zM23.643 124.796v1.505h1.173v.842h-1.173v3.76c0 .301.06.482.18.602s.271.18.482.18c.06 0 .12 0 .21-.03.09 0 .15-.03.21-.06l.151.782c-.09.06-.21.12-.36.18-.151.03-.332.061-.482.061a1.474 1.474 0 0 1-1.083-.421c-.27-.27-.391-.722-.391-1.294v-3.76h-.963v-.842h.963v-1.505h1.083zM8.543 132.514V124.3h2.623c1.381 0 2.83.74 2.83 2.001 0 1.262-.784 1.557-1.191 1.806 1.127.294 1.69 1.011 1.69 2.152 0 1.712-1.456 2.255-2.647 2.255H8.543zm1.132-4.744h1.576c.96 0 1.577-.453 1.577-1.434 0-.98-.96-1.092-1.626-1.092H9.675v2.526zm.002.896v2.95h2.238c.66 0 1.503-.457 1.503-1.475s-.837-1.475-1.503-1.475H9.677zM18.866 124.236c.467.013.466.021.773-.012 0 .494-.379 1.156-1.533 1.156s-1.792-.519-1.792-1.156l.842.012c.001.417.318.625.95.625.672-.067.635-.203.76-.625zM17.695 124.076h.567l.878-1.026h-.878z"/><g><path d="M37.462 132.002c-.03-.147-.03-.265-.03-.412-.206.295-.47.53-.794.736a1.922 1.922 0 0 1-1.06.294c-.618 0-1.09-.147-1.413-.5a1.796 1.796 0 0 1-.5-1.325c0-.589.235-1.03.706-1.354.47-.324 1.09-.5 1.884-.5h1.177v-.59c0-.352-.117-.647-.323-.853-.206-.206-.53-.324-.913-.324-.353 0-.648.089-.854.265a.868.868 0 0 0-.324.648h-1.03v-.03c-.03-.441.177-.853.618-1.207.442-.353 1.001-.559 1.678-.559s1.237.177 1.649.53c.412.353.618.854.618 1.501v2.915c0 .206 0 .412.03.618.029.206.058.412.117.589H37.55v.059c-.03-.177-.059-.354-.088-.5zm-1.782-.353c.383 0 .765-.088 1.06-.294.324-.206.53-.442.618-.707v-.971h-1.207c-.442 0-.795.117-1.06.323a.988.988 0 0 0-.383.795.97.97 0 0 0 .236.648c.177.118.412.206.736.206zM27.184 129.474c0-.952.202-1.73.606-2.308.403-.577.98-.865 1.701-.865.346 0 .663.058.923.202.26.115.49.317.692.548v-3.26h1.067v8.567h-.865l-.115-.721c-.179.262-.416.48-.692.634a2.134 2.134 0 0 1-.981.202c-.721 0-1.269-.26-1.673-.779-.404-.519-.605-1.211-.605-2.076v-.144h-.058zm1.053.116c0 .606.115 1.096.374 1.442.26.346.606.548 1.125.548.318 0 .577-.086.808-.23.23-.145.404-.347.519-.606v-2.769a1.511 1.511 0 0 0-.548-.577 1.45 1.45 0 0 0-.779-.23c-.519 0-.894.201-1.125.634-.23.433-.374.98-.374 1.673v.115zM44.04 126.43h1.069v6.05h-1.07v-.897c-.339.438-.898 1.143-2.02 1.024-1.123-.118-1.817-.999-1.822-1.97-.005-.97.005-4.535 0-4.206h1.06v2.292c0 2.68.59 2.978 1.396 2.978.806 0 1.2-.681 1.387-.909-.01-1.274-.01-2.727 0-4.361z"/><path d="M33.261 124.74v.798h-3.558v-.797zM34.399 124.401h-.77l-1.117-1.414h1.117zM35.21 125.427h-1.097l1.574-1.485h.87l1.65 1.485h-1.154l-.893-.87z"/></g></g><path d="M15.866 21.342v-3.9h-.813v-1.081h.813v-3.726h3.038c1.065 0 1.942.34 2.631 1.02.69.68 1.035 1.551 1.035 2.616v1.441c0 1.068-.345 1.94-1.035 2.616-.69.676-1.566 1.014-2.63 1.014h-3.039zm3.2-3.9h-1.453v2.56h1.291c.574 0 1.037-.214 1.388-.643.35-.428.526-.977.526-1.647v-1.453c0-.666-.176-1.212-.526-1.639-.351-.426-.814-.64-1.388-.64h-1.291v2.38h1.453v1.083zm4.503.605c0-.965.269-1.755.807-2.371.538-.616 1.284-.924 2.236-.924.957 0 1.707.307 2.249.92.542.615.813 1.406.813 2.375v.125c0 .973-.27 1.766-.81 2.377-.54.612-1.287.918-2.24.918-.956 0-1.705-.306-2.245-.918-.54-.611-.81-1.404-.81-2.377v-.125zm1.74.125c0 .59.103 1.064.31 1.42.208.357.543.536 1.005.536.45 0 .78-.18.99-.538.21-.36.314-.832.314-1.418v-.125c0-.574-.106-1.043-.317-1.405-.211-.363-.544-.545-.999-.545-.45 0-.78.183-.99.548-.209.364-.313.832-.313 1.402v.125zm1.656-6.063h1.944l.012.036-1.657 1.554h-1.489l1.19-1.59zm5.382 2.763l.078.926c.215-.33.48-.588.795-.771a2.065 2.065 0 0 1 1.059-.275c.654 0 1.164.21 1.53.63.367.421.55 1.086.55 1.995v3.965h-1.751v-3.959c0-.462-.081-.79-.243-.984-.161-.193-.403-.29-.726-.29-.26 0-.487.05-.685.147-.197.098-.36.232-.487.404v4.682H30.72v-6.47h1.626zm5.06 3.288c0-1.02.22-1.843.663-2.47.443-.625 1.065-.938 1.866-.938.363 0 .682.082.957.245.275.164.51.397.705.7l.138-.825h1.5v6.44c0 .841-.274 1.492-.824 1.952-.55.46-1.318.691-2.303.691-.327 0-.673-.045-1.04-.134a4.832 4.832 0 0 1-1.017-.368l.293-1.304c.267.128.543.224.828.29.285.066.593.099.924.099.479 0 .83-.1 1.056-.3.225-.199.338-.51.338-.932v-.586a1.953 1.953 0 0 1-.676.556c-.26.128-.556.191-.891.191-.793 0-1.411-.29-1.854-.873-.442-.582-.664-1.351-.664-2.308v-.126zm1.745.126c0 .566.095 1.012.285 1.337.189.325.499.487.93.487.266 0 .493-.049.678-.147a1.12 1.12 0 0 0 .446-.427V16.73c-.112-.2-.26-.353-.446-.46a1.306 1.306 0 0 0-.667-.162c-.426 0-.737.19-.933.568-.195.38-.293.874-.293 1.483v.126zm9.15.006H44.78v-1.345h3.522v1.345zm7.81-4.312h-2.488v7.362h-1.746V13.98h-2.452v-1.345h6.686v1.345zm2.53 1.71c.202-.294.452-.524.747-.69a1.97 1.97 0 0 1 .98-.248c.674 0 1.203.224 1.588.673.385.448.577 1.14.577 2.078v3.839h-1.746V17.49c0-.503-.08-.858-.242-1.068-.162-.209-.404-.314-.727-.314-.267 0-.5.043-.696.129a1.202 1.202 0 0 0-.482.368v4.736h-1.746v-9.329h1.746v3.678zm9.023 5.652a3.673 3.673 0 0 1-.164-.467 3.245 3.245 0 0 1-.1-.502c-.179.315-.416.576-.71.783-.296.208-.647.311-1.053.311-.678 0-1.2-.174-1.567-.523-.367-.349-.55-.824-.55-1.426 0-.634.244-1.125.732-1.474.489-.349 1.201-.523 2.138-.523h.98v-.515c0-.31-.08-.552-.244-.723-.164-.172-.407-.257-.73-.257-.283 0-.501.068-.655.206-.153.137-.23.326-.23.565h-1.68l-.012-.036c-.028-.546.21-1.017.714-1.414.505-.397 1.164-.595 1.977-.595.777 0 1.406.195 1.887.586.48.39.72.95.72 1.68v2.673c0 .303.023.588.069.855.046.268.118.533.218.796h-1.74zm-1.597-1.166c.303 0 .574-.076.814-.228.239-.151.402-.326.49-.526v-.915h-.98c-.372 0-.652.092-.841.275a.904.904 0 0 0-.284.676c0 .22.07.394.212.523.142.13.338.195.59.195zm-.323-7.924h1.436l1.77 1.513-.012.036h-1.567l-.915-.855-.903.855h-1.573l-.012-.036 1.776-1.513zm3.558-1.1h1.615l-1.28 1.62h-1.22l.885-1.62zm6.961 7.134c0 .957-.221 1.726-.664 2.308-.442.582-1.06.873-1.853.873-.34 0-.64-.062-.903-.188a1.855 1.855 0 0 1-.676-.553v3.103h-1.74v-8.957H72l.102.765c.191-.283.422-.501.69-.655.27-.153.584-.23.943-.23.8 0 1.423.313 1.865.939.443.626.664 1.449.664 2.47v.125zm-1.746-.126c0-.61-.102-1.104-.305-1.483-.203-.378-.514-.568-.933-.568-.263 0-.487.054-.673.162a1.152 1.152 0 0 0-.44.46v2.835c.109.183.255.323.44.418.186.096.414.144.685.144.423 0 .733-.166.93-.496.197-.331.296-.78.296-1.346v-.126z" fill="#020202" fill-rule="nonzero"/><path d="M161.697 182.133h-2.636v7.389h-1.424v-7.39h-2.596v-1.142h6.656v1.143zm2.344 1.869a2.26 2.26 0 0 1 .77-.691 2.075 2.075 0 0 1 1.005-.246c.672 0 1.197.211 1.574.635.377.424.565 1.077.565 1.96v3.862h-1.424v-3.873c0-.497-.096-.857-.29-1.082-.193-.224-.481-.336-.864-.336-.305 0-.568.053-.791.16a1.44 1.44 0 0 0-.545.449v4.682h-1.424v-9.141h1.424v3.621zm9.211 5.52a5.255 5.255 0 0 1-.126-.47 3.35 3.35 0 0 1-.067-.456 2.442 2.442 0 0 1-.768.747c-.32.201-.678.302-1.072.302-.66 0-1.167-.17-1.52-.51-.354-.34-.53-.807-.53-1.4 0-.614.241-1.091.726-1.433.484-.342 1.166-.513 2.045-.513h1.107v-.556c0-.333-.097-.592-.29-.78-.193-.187-.474-.281-.84-.281-.325 0-.583.077-.774.231a.736.736 0 0 0-.287.601l-1.372.006-.005-.035c-.028-.5.196-.944.67-1.33.475-.387 1.093-.58 1.855-.58.738 0 1.334.187 1.787.562.453.375.68.914.68 1.617v2.819c0 .261.017.512.053.753.035.24.091.475.17.706h-1.442zm-1.74-1.02c.355 0 .677-.09.964-.27.287-.18.477-.384.571-.615v-.937h-1.13c-.415 0-.74.102-.974.307-.234.205-.351.447-.351.724 0 .242.079.435.237.577.158.143.386.214.683.214zm-.194-7.945h1.16l1.717 1.5-.017.035h-1.342l-.937-.873-.938.873h-1.342l-.017-.035 1.716-1.5zm3.252-1.055h1.407l-1.225 1.564h-1.025l.843-1.564z" fill="#2A3052"/></g></svg>