<?xml version="1.0" encoding="UTF-8"?>
<svg width="299px" height="197px" viewBox="0 0 299 197" version="1.1" xmlns="http://www.w3.org/2000/svg" xmlns:xlink="http://www.w3.org/1999/xlink">
    <!-- Generator: Sketch 53.1 (72631) - https://sketchapp.com -->
    <title>differs</title>
    <desc>Created with Sketch.</desc>
    <g id="Page-1" stroke="none" stroke-width="1" fill="none" fill-rule="evenodd">
        <g id="differs" fill-rule="nonzero">
            <polygon id="Path" fill="#F1F1F2" points="0 0 299 0 299 197 0 197"></polygon>
            <path d="M5.006734,55.1610127 L5.006734,53.953698 L295.006734,53.953698 L295.006734,55.1610127 L5.006734,55.1610127 Z M5.006734,75.4589619 L5.006734,74.2516472 L295.006734,74.2516472 L295.006734,75.4589619 L5.006734,75.4589619 Z M5.006734,136.386168 L5.006734,135.178853 L295.006734,135.178853 L295.006734,136.386168 L5.006734,136.386168 Z M5.006734,156.683106 L5.006734,155.475791 L295.006734,155.475791 L295.006734,156.683106 L5.006734,156.683106 Z M5.006734,176.982065 L5.006734,175.774751 L295.006734,175.774751 L295.006734,176.982065 L5.006734,176.982065 Z M39.437378,34.260417 L40.6466508,34.260417 L40.6466508,194.260417 L39.437378,194.260417 L39.437378,34.260417 Z M76.1367396,34.260417 L77.3460124,34.260417 L77.3460124,194.260417 L76.1367396,194.260417 L76.1367396,34.260417 Z M112.835106,34.260417 L114.044378,34.260417 L114.044378,194.260417 L112.835106,194.260417 L112.835106,34.260417 Z M149.496648,34.260417 L150.70592,34.260417 L150.70592,194.260417 L149.496648,194.260417 L149.496648,34.260417 Z M186.195014,34.260417 L187.404287,34.260417 L187.404287,194.260417 L186.195014,194.260417 L186.195014,34.260417 Z M222.894375,34.260417 L224.103648,34.260417 L224.103648,194.260417 L222.894375,194.260417 L222.894375,34.260417 Z M259.592742,34.260417 L260.802015,34.260417 L260.802015,194.260417 L259.592742,194.260417 L259.592742,34.260417 Z M5.006734,116.09024 L5.006734,114.882925 L295.006734,114.882925 L295.006734,116.09024 L5.006734,116.09024 Z" id="Shape" fill="#DEDEDD"></path>
            <path d="M2,2 L2,195 L297,195 L297,2 L2,2 Z M0,0 L299,0 L299,197 L0,197 L0,0 Z" id="bg" fill="#C2C2C2"></path>
            <polygon id="Path" fill="#293052" points="3.60706375 97.1320967 3.60706375 95.9129921 5.4361812 95.9129921 5.4361812 97.1320967"></polygon>
            <path d="M9.09341274,97.1320967 L9.09341274,95.9129921 L12.7517296,95.9129921 L12.7517296,97.1320967 L9.09341274,97.1320967 Z M16.4100464,97.1320967 L16.4100464,95.9129921 L20.0683633,95.9129921 L20.0683633,97.1320967 L16.4100464,97.1320967 Z M23.7266801,97.1320967 L23.7266801,95.9129921 L27.384997,95.9129921 L27.384997,97.1320967 L23.7266801,97.1320967 Z M31.0433138,97.1320967 L31.0433138,95.9129921 L34.7016307,95.9129921 L34.7016307,97.1320967 L31.0433138,97.1320967 Z M38.3599475,97.1320967 L38.3599475,95.9129921 L42.0182644,95.9129921 L42.0182644,97.1320967 L38.3599475,97.1320967 Z M45.6765812,97.1320967 L45.6765812,95.9129921 L49.3348981,95.9129921 L49.3348981,97.1320967 L45.6765812,97.1320967 Z M52.9932149,97.1320967 L52.9932149,95.9129921 L56.6515318,95.9129921 L56.6515318,97.1320967 L52.9932149,97.1320967 Z M60.3098486,97.1320967 L60.3098486,95.9129921 L63.9681655,95.9129921 L63.9681655,97.1320967 L60.3098486,97.1320967 Z M67.6264824,97.1320967 L67.6264824,95.9129921 L71.2847992,95.9129921 L71.2847992,97.1320967 L67.6264824,97.1320967 Z M74.9431161,97.1320967 L74.9431161,95.9129921 L78.6014329,95.9129921 L78.6014329,97.1320967 L74.9431161,97.1320967 Z M82.2597498,97.1320967 L82.2597498,95.9129921 L85.9180666,95.9129921 L85.9180666,97.1320967 L82.2597498,97.1320967 Z M89.5763835,97.1320967 L89.5763835,95.9129921 L93.2347003,95.9129921 L93.2347003,97.1320967 L89.5763835,97.1320967 Z M96.8930172,97.1320967 L96.8930172,95.9129921 L100.551334,95.9129921 L100.551334,97.1320967 L96.8930172,97.1320967 Z M104.209651,97.1320967 L104.209651,95.9129921 L107.867968,95.9129921 L107.867968,97.1320967 L104.209651,97.1320967 Z M111.526285,97.1320967 L111.526285,95.9129921 L115.184601,95.9129921 L115.184601,97.1320967 L111.526285,97.1320967 Z M118.842918,97.1320967 L118.842918,95.9129921 L122.501235,95.9129921 L122.501235,97.1320967 L118.842918,97.1320967 Z M126.159552,97.1320967 L126.159552,95.9129921 L129.817869,95.9129921 L129.817869,97.1320967 L126.159552,97.1320967 Z M133.476186,97.1320967 L133.476186,95.9129921 L137.134503,95.9129921 L137.134503,97.1320967 L133.476186,97.1320967 Z M140.792819,97.1320967 L140.792819,95.9129921 L144.451136,95.9129921 L144.451136,97.1320967 L140.792819,97.1320967 Z M148.109453,97.1320967 L148.109453,95.9129921 L151.76777,95.9129921 L151.76777,97.1320967 L148.109453,97.1320967 Z M155.426087,97.1320967 L155.426087,95.9129921 L159.084404,95.9129921 L159.084404,97.1320967 L155.426087,97.1320967 Z M162.74272,97.1320967 L162.74272,95.9129921 L166.401037,95.9129921 L166.401037,97.1320967 L162.74272,97.1320967 Z M170.059354,97.1320967 L170.059354,95.9129921 L173.717671,95.9129921 L173.717671,97.1320967 L170.059354,97.1320967 Z M177.375988,97.1320967 L177.375988,95.9129921 L181.034305,95.9129921 L181.034305,97.1320967 L177.375988,97.1320967 Z M184.692622,97.1320967 L184.692622,95.9129921 L188.350938,95.9129921 L188.350938,97.1320967 L184.692622,97.1320967 Z M192.009255,97.1320967 L192.009255,95.9129921 L195.667572,95.9129921 L195.667572,97.1320967 L192.009255,97.1320967 Z M199.325889,97.1320967 L199.325889,95.9129921 L202.984206,95.9129921 L202.984206,97.1320967 L199.325889,97.1320967 Z M206.642523,97.1320967 L206.642523,95.9129921 L210.30084,95.9129921 L210.30084,97.1320967 L206.642523,97.1320967 Z M213.959156,97.1320967 L213.959156,95.9129921 L217.617473,95.9129921 L217.617473,97.1320967 L213.959156,97.1320967 Z M221.27579,97.1320967 L221.27579,95.9129921 L224.934107,95.9129921 L224.934107,97.1320967 L221.27579,97.1320967 Z M228.592424,97.1320967 L228.592424,95.9129921 L232.250741,95.9129921 L232.250741,97.1320967 L228.592424,97.1320967 Z M235.909057,97.1320967 L235.909057,95.9129921 L239.567374,95.9129921 L239.567374,97.1320967 L235.909057,97.1320967 Z M243.225691,97.1320967 L243.225691,95.9129921 L246.884008,95.9129921 L246.884008,97.1320967 L243.225691,97.1320967 Z M250.542325,97.1320967 L250.542325,95.9129921 L254.200642,95.9129921 L254.200642,97.1320967 L250.542325,97.1320967 Z M257.858959,97.1320967 L257.858959,95.9129921 L261.517275,95.9129921 L261.517275,97.1320967 L257.858959,97.1320967 Z M265.175592,97.1320967 L265.175592,95.9129921 L268.833909,95.9129921 L268.833909,97.1320967 L265.175592,97.1320967 Z M272.492226,97.1320967 L272.492226,95.9129921 L276.150543,95.9129921 L276.150543,97.1320967 L272.492226,97.1320967 Z M279.80886,97.1320967 L279.80886,95.9129921 L283.467177,95.9129921 L283.467177,97.1320967 L279.80886,97.1320967 Z M287.125493,97.1320967 L287.125493,95.9129921 L290.78381,95.9129921 L290.78381,97.1320967 L287.125493,97.1320967 Z" id="Path" fill="#293052"></path>
            <polygon id="Path" fill="#293052" points="294.173859 97.1320967 294.173859 95.9129921 295.964849 95.9129921 295.964849 97.1320967"></polygon>
            <polygon id="Path" fill="#C2C2C2" points="2 30 2 28 298 28 298 30"></polygon>
            <path d="M222.578148,95.2605323 C223.275138,94.5438873 224.421115,94.5279539 225.13776,95.224944 C225.854405,95.9219341 225.870338,97.0679116 225.173348,97.7845565 L193.205432,130.653955 C192.643515,131.231719 191.767293,131.368367 191.056131,130.989143 L149.23658,108.689026 L106.750039,133.583086 C106.221112,133.893 105.571266,133.914138 105.023317,133.639254 L75.113283,118.634591 C74.9850265,118.57025 74.8648756,118.490886 74.7553606,118.398172 L37.7576224,87.0761923 C36.9946395,86.4302573 36.8997534,85.2881036 37.5456885,84.5251206 C38.1916235,83.7621377 39.3337772,83.6672516 40.0967602,84.3131867 L76.9296432,115.495601 L105.767997,129.962646 L148.279904,105.053722 C148.822661,104.735706 149.491606,104.722286 150.046681,105.018277 L191.5589,127.154511 L222.578148,95.2605323 Z" id="Path" fill="#293052"></path>
            <path d="M188.232113,146.497671 L152.950113,146.497671 L147.386506,138.260417 L142.052667,146.497671 L106.769663,146.497671 C105.508052,146.496045 104.297479,147.004336 103.404256,147.910725 C102.511033,148.817114 102.008329,150.047354 102.006734,151.330805 L102.006734,176.350826 C102.008329,177.634278 102.511033,178.864518 103.404256,179.770906 C104.297479,180.677295 105.508052,181.185586 106.769663,181.183961 L188.232113,181.183961 C189.514208,181.215382 190.754709,180.720157 191.673623,179.810064 C192.591325,178.900897 193.108789,177.652945 193.108422,176.349805 L193.108422,151.369593 C193.119006,150.060058 192.606223,148.802328 191.68767,147.884836 C190.767637,146.965927 189.521067,146.465147 188.232113,146.49665 L188.232113,146.497671 Z" id="Path" fill="#E88024"></path>
            <ellipse id="Oval" fill="#FFFFFF" opacity="0.6" cx="223.874745" cy="96.5225444" rx="8.19239933" ry="8.54653368"></ellipse>
            <path d="M223.875748,106.288183 C218.666106,106.288183 214.464244,101.904686 214.464244,96.5225444 C214.464244,91.1404028 218.666106,86.7569062 223.875748,86.7569062 C229.08539,86.7569062 233.287252,91.1404028 233.287252,96.5225444 C233.287252,101.904686 229.08539,106.288183 223.875748,106.288183 Z M223.875748,103.849973 C227.71518,103.849973 230.849043,100.580643 230.849043,96.5225444 C230.849043,92.4644456 227.71518,89.1951153 223.875748,89.1951153 C220.036316,89.1951153 216.902453,92.4644456 216.902453,96.5225444 C216.902453,100.580643 220.036316,103.849973 223.875748,103.849973 Z" id="Oval" fill="#E88024"></path>
            <polygon id="Path" fill="#E88024" points="246.926842 87.5126014 275.694054 87.5126014 275.694054 106.692031 246.927846 106.692031"></polygon>
            <path d="M260.719973,90.721762 C261.137789,90.6751563 261.559362,90.6751563 261.977178,90.721762 C262.368487,90.8156687 262.751768,90.9442801 263.121003,91.1086169 L262.701601,92.8877413 L261.710285,92.617249 L260.719973,92.617249 C260.036783,92.6045789 259.387516,92.9195203 258.967111,93.4675133 C258.493201,94.1396548 258.276647,94.9646118 258.358074,95.7876221 C258.649047,95.4946739 259.000221,95.2701143 259.386513,95.1302749 C259.838023,94.9638967 260.316624,94.8853009 260.796228,94.8985703 C261.769483,94.8556998 262.702604,95.2864459 263.310638,96.0581143 C263.944758,96.9145029 264.267839,97.9668708 264.225698,99.0355703 C264.264567,100.169093 263.852152,101.27061 263.081872,102.090601 C262.320496,102.903268 261.250489,103.34069 260.14806,103.289954 C258.968161,103.336694 257.827129,102.856421 257.024614,101.975259 C256.184462,100.963739 255.760991,99.6610925 255.842661,98.3394356 L255.842661,95.9427724 C255.759685,94.5168736 256.2555,93.1188015 257.214248,92.0752439 C258.144672,91.1441197 259.416568,90.6530694 260.719973,90.721762 Z M260.14806,96.7930366 C259.755221,96.7863085 259.365527,96.8653181 259.005238,97.0247413 C258.717469,97.1491897 258.467686,97.3497261 258.281819,97.605534 L258.281819,98.4170107 C258.230648,99.2029692 258.416268,99.9848449 258.814601,100.660565 C259.107581,101.143368 259.627319,101.436316 260.186188,101.433254 C260.673743,101.431234 261.123652,101.166251 261.368141,100.73712 C261.713295,100.239006 261.899919,99.6449433 261.900923,99.0355703 C261.931023,98.445591 261.770487,97.8617361 261.444396,97.3728086 C261.149623,96.9486337 260.657128,96.7136345 260.14806,96.754249 L260.14806,96.7930366 Z" id="Shape" fill="#FFFFFF"></path>
            <polygon id="Path" fill="#E88024" points="250.432567 97.1023164 247.079352 100.505415 241.859896 97.1023164 247.079352 93.7380055"></polygon>
            <path d="M116,20.6513672 L116,11.4091797 L118.608887,11.4091797 C119.412927,11.4091797 120.123858,11.5869123 120.741699,11.9423828 C121.359541,12.2978533 121.836668,12.8035449 122.173096,13.4594727 C122.509523,14.1154004 122.67985,14.8686481 122.684082,15.7192383 L122.684082,16.3095703 C122.684082,17.1813195 122.515871,17.9451465 122.179443,18.6010742 C121.843016,19.257002 121.362715,19.7605777 120.738525,20.1118164 C120.114336,20.4630551 119.387537,20.6429036 118.558105,20.6513672 L116,20.6513672 Z M117.21875,12.4121094 L117.21875,19.6547852 L118.500977,19.6547852 C119.440434,19.6547852 120.171465,19.3627959 120.694092,18.7788086 C121.216718,18.1948213 121.478027,17.3632866 121.478027,16.2841797 L121.478027,15.7446289 C121.478027,14.6951445 121.231529,13.8794788 120.738525,13.2976074 C120.245522,12.715736 119.546228,12.420573 118.640625,12.4121094 L117.21875,12.4121094 Z M131.672363,13.2373047 C131.672363,13.9990272 131.516847,14.5353988 131.205811,14.8464355 C130.894774,15.1574723 130.40072,15.3214517 129.723633,15.3383789 L129.723633,20.6513672 L128.606445,20.6513672 L128.581055,19.972168 C128.124021,20.5096056 127.453292,20.7783203 126.568848,20.7783203 C125.836748,20.7783203 125.279217,20.565676 124.89624,20.1403809 C124.513263,19.7150858 124.319661,19.0856161 124.31543,18.2519531 L124.31543,13.7832031 L125.489746,13.7832031 L125.489746,18.2202148 C125.489746,19.2612357 125.912919,19.7817383 126.759277,19.7817383 C127.656417,19.7817383 128.253091,19.4474317 128.549316,18.7788086 L128.549316,13.7832031 L129.723633,13.7832031 L129.723633,14.6147461 C130.011395,14.6062825 130.227213,14.5650232 130.371094,14.4909668 C130.514975,14.4169104 130.617594,14.3037117 130.678955,14.1513672 C130.740316,13.9990227 130.770996,13.6943382 130.770996,13.2373047 L131.672363,13.2373047 Z M126.289551,22.206543 C126.289551,22.0161123 126.347737,21.8553066 126.464111,21.7241211 C126.580486,21.5929355 126.752929,21.5273438 126.981445,21.5273438 C127.209962,21.5273438 127.383463,21.5929355 127.501953,21.7241211 C127.620443,21.8553066 127.679688,22.0161123 127.679688,22.206543 C127.679688,22.3969736 127.620443,22.5556634 127.501953,22.6826172 C127.383463,22.8095709 127.209962,22.8730469 126.981445,22.8730469 C126.752929,22.8730469 126.580486,22.8095709 126.464111,22.6826172 C126.347737,22.5556634 126.289551,22.3969736 126.289551,22.206543 Z M135.976074,20.6513672 L135.976074,16.4238281 L134.757324,16.4238281 L134.757324,15.465332 L135.976074,15.465332 L135.976074,11.4091797 L138.584961,11.4091797 C139.389001,11.4091797 140.099932,11.5869123 140.717773,11.9423828 C141.335615,12.2978533 141.812742,12.8035449 142.14917,13.4594727 C142.485597,14.1154004 142.655924,14.8686481 142.660156,15.7192383 L142.660156,16.3095703 C142.660156,17.1813195 142.491945,17.9451465 142.155518,18.6010742 C141.81909,19.257002 141.338789,19.7605777 140.7146,20.1118164 C140.09041,20.4630551 139.363611,20.6429036 138.53418,20.6513672 L135.976074,20.6513672 Z M138.794434,16.4238281 L137.194824,16.4238281 L137.194824,19.6547852 L138.470703,19.6547852 C139.410161,19.6547852 140.141192,19.3649118 140.663818,18.7851562 C141.186445,18.2054007 141.44987,17.3886771 141.454102,16.3349609 L141.454102,15.7446289 C141.454102,14.6951445 141.207603,13.8794788 140.7146,13.2976074 C140.221596,12.715736 139.522303,12.420573 138.616699,12.4121094 L137.194824,12.4121094 L137.194824,15.465332 L138.794434,15.465332 L138.794434,16.4238281 Z M144.005859,17.1538086 C144.005859,16.4809537 144.138101,15.8758165 144.402588,15.3383789 C144.667075,14.8009413 145.035235,14.3862319 145.50708,14.0942383 C145.978925,13.8022446 146.517412,13.65625 147.122559,13.65625 C148.057785,13.65625 148.814206,13.9799772 149.391846,14.6274414 C149.969485,15.2749056 150.258301,16.1360623 150.258301,17.2109375 L150.258301,17.293457 C150.258301,17.9620802 150.130291,18.5619277 149.874268,19.0930176 C149.618244,19.6241075 149.2522,20.0377589 148.776123,20.3339844 C148.300046,20.6302098 147.753096,20.7783203 147.135254,20.7783203 C146.20426,20.7783203 145.449954,20.4545931 144.872314,19.8071289 C144.294675,19.1596647 144.005859,18.3027397 144.005859,17.2363281 L144.005859,17.1538086 Z M145.186523,17.293457 C145.186523,18.0551796 145.363198,18.6666644 145.716553,19.1279297 C146.069907,19.589195 146.542803,19.8198242 147.135254,19.8198242 C147.731937,19.8198242 148.20589,19.5860212 148.557129,19.1184082 C148.908368,18.6507952 149.083984,17.9959352 149.083984,17.1538086 C149.083984,16.4005496 148.905194,15.7901228 148.547607,15.3225098 C148.190021,14.8548968 147.715009,14.6210938 147.122559,14.6210938 C146.542803,14.6210938 146.075197,14.851723 145.719727,15.3129883 C145.364256,15.7742536 145.186523,16.4344033 145.186523,17.293457 Z M155.971191,20.6513672 C155.903483,20.5159498 155.84847,20.2747413 155.806152,19.9277344 C155.260251,20.4947945 154.608565,20.7783203 153.851074,20.7783203 C153.173988,20.7783203 152.618573,20.5868346 152.184814,20.2038574 C151.751056,19.8208802 151.53418,19.3352894 151.53418,18.7470703 C151.53418,18.0318975 151.806068,17.4764831 152.349854,17.0808105 C152.893639,16.685138 153.658524,16.4873047 154.644531,16.4873047 L155.787109,16.4873047 L155.787109,15.9477539 C155.787109,15.5372701 155.664389,15.2103691 155.418945,14.967041 C155.173501,14.723713 154.811689,14.6020508 154.333496,14.6020508 C153.914549,14.6020508 153.563315,14.707844 153.279785,14.9194336 C152.996255,15.1310232 152.854492,15.3870428 152.854492,15.6875 L151.673828,15.6875 C151.673828,15.3447248 151.79549,15.0135921 152.038818,14.6940918 C152.282146,14.3745915 152.612221,14.1217457 153.029053,13.9355469 C153.445884,13.749348 153.903969,13.65625 154.40332,13.65625 C155.194665,13.65625 155.814614,13.8540833 156.263184,14.2497559 C156.711754,14.6454284 156.944499,15.1902635 156.961426,15.8842773 L156.961426,19.0454102 C156.961426,19.6759472 157.041829,20.177407 157.202637,20.5498047 L157.202637,20.6513672 L155.971191,20.6513672 Z M154.022461,19.7563477 C154.390627,19.7563477 154.739744,19.6611338 155.069824,19.4707031 C155.399904,19.2802725 155.638997,19.0327164 155.787109,18.7280273 L155.787109,17.3188477 L154.866699,17.3188477 C153.42789,17.3188477 152.708496,17.7399046 152.708496,18.5820312 C152.708496,18.9501972 152.831216,19.2379547 153.07666,19.4453125 C153.322104,19.6526703 153.637368,19.7563477 154.022461,19.7563477 Z M155.10791,10.9013672 L156.529785,10.9013672 L154.828613,12.7675781 L153.882812,12.7675781 L155.10791,10.9013672 Z M159.913086,13.7832031 L159.951172,14.6464844 C160.475914,13.9863248 161.161454,13.65625 162.007812,13.65625 C163.459317,13.65625 164.191406,14.4750895 164.204102,16.112793 L164.204102,20.6513672 L163.029785,20.6513672 L163.029785,16.1064453 C163.025553,15.6113256 162.912355,15.2452811 162.690186,15.0083008 C162.468016,14.7713204 162.122073,14.652832 161.652344,14.652832 C161.271482,14.652832 160.937176,14.7543935 160.649414,14.9575195 C160.361652,15.1606455 160.137371,15.4272444 159.976562,15.7573242 L159.976562,20.6513672 L158.802246,20.6513672 L158.802246,13.7832031 L159.913086,13.7832031 Z M176.175781,17.71875 C176.061523,18.696294 175.700768,19.4505996 175.093506,19.9816895 C174.486244,20.5127793 173.679041,20.7783203 172.671875,20.7783203 C171.580073,20.7783203 170.705163,20.3868854 170.047119,19.6040039 C169.389075,18.8211224 169.060059,17.7737696 169.060059,16.4619141 L169.060059,15.5732422 C169.060059,14.7141884 169.213459,13.9588249 169.520264,13.3071289 C169.827069,12.6554329 170.261879,12.155031 170.824707,11.8059082 C171.387535,11.4567854 172.039222,11.2822266 172.779785,11.2822266 C173.761561,11.2822266 174.548662,11.556231 175.141113,12.104248 C175.733564,12.6522651 176.07845,13.4108024 176.175781,14.3798828 L174.950684,14.3798828 C174.844889,13.643551 174.615318,13.1103532 174.261963,12.7802734 C173.908608,12.4501937 173.414554,12.2851562 172.779785,12.2851562 C172.001135,12.2851562 171.390709,12.5729138 170.948486,13.1484375 C170.506264,13.7239612 170.285156,14.5428007 170.285156,15.6049805 L170.285156,16.5 C170.285156,17.5029347 170.494627,18.3006155 170.913574,18.8930664 C171.332522,19.4855173 171.918616,19.7817383 172.671875,19.7817383 C173.348962,19.7817383 173.868406,19.6283381 174.230225,19.3215332 C174.592043,19.0147283 174.832193,18.4804726 174.950684,17.71875 L176.175781,17.71875 Z M178.829102,14.6147461 C179.349612,13.9757455 180.026689,13.65625 180.860352,13.65625 C182.311856,13.65625 183.043945,14.4750895 183.056641,16.112793 L183.056641,20.6513672 L181.882324,20.6513672 L181.882324,16.1064453 C181.878092,15.6113256 181.764894,15.2452811 181.542725,15.0083008 C181.320556,14.7713204 180.974612,14.652832 180.504883,14.652832 C180.124022,14.652832 179.789715,14.7543935 179.501953,14.9575195 C179.214191,15.1606455 178.98991,15.4272444 178.829102,15.7573242 L178.829102,20.6513672 L177.654785,20.6513672 L177.654785,10.9013672 L178.829102,10.9013672 L178.829102,14.6147461 Z M192.146484,13.2373047 C192.146484,13.9990272 191.990968,14.5353988 191.679932,14.8464355 C191.368895,15.1574723 190.874841,15.3214517 190.197754,15.3383789 L190.197754,20.6513672 L189.080566,20.6513672 L189.055176,19.972168 C188.598142,20.5096056 187.927413,20.7783203 187.042969,20.7783203 C186.310869,20.7783203 185.753339,20.565676 185.370361,20.1403809 C184.987384,19.7150858 184.793783,19.0856161 184.789551,18.2519531 L184.789551,13.7832031 L185.963867,13.7832031 L185.963867,18.2202148 C185.963867,19.2612357 186.38704,19.7817383 187.233398,19.7817383 C188.130538,19.7817383 188.727212,19.4474317 189.023438,18.7788086 L189.023438,13.7832031 L190.197754,13.7832031 L190.197754,14.6147461 C190.485516,14.6062825 190.701334,14.5650232 190.845215,14.4909668 C190.989096,14.4169104 191.091715,14.3037117 191.153076,14.1513672 C191.214437,13.9990227 191.245117,13.6943382 191.245117,13.2373047 L192.146484,13.2373047 Z M189.861328,11.2314453 C189.861328,11.6884788 189.731202,12.0587551 189.470947,12.3422852 C189.210692,12.6258152 188.885907,12.7675781 188.496582,12.7675781 C188.323079,12.7675781 188.172852,12.7464195 188.045898,12.7041016 C187.918945,12.6617836 187.752849,12.5750332 187.547607,12.4438477 C187.342366,12.3126621 187.194255,12.2333172 187.103271,12.2058105 C187.012288,12.1783039 186.907553,12.1645508 186.789062,12.1645508 C186.615559,12.1645508 186.467449,12.2312005 186.344727,12.364502 C186.222005,12.4978034 186.160645,12.6681305 186.160645,12.8754883 L185.373535,12.8310547 C185.373535,12.3782529 185.501545,12.003745 185.757568,11.7075195 C186.013592,11.4112941 186.338377,11.2631836 186.731934,11.2631836 C186.880046,11.2631836 187.013346,11.2843422 187.131836,11.3266602 C187.250326,11.3689781 187.411132,11.4514968 187.614258,11.5742188 C187.817384,11.6969407 187.9729,11.7773436 188.080811,11.8154297 C188.188721,11.8535158 188.308268,11.8725586 188.439453,11.8725586 C188.62142,11.8725586 188.772704,11.8006192 188.893311,11.6567383 C189.013917,11.5128574 189.074219,11.3457041 189.074219,11.1552734 L189.861328,11.2314453 Z M200.074707,18.8295898 C200.074707,18.5122054 199.955161,18.2657073 199.716064,18.0900879 C199.476968,17.9144685 199.060143,17.7631842 198.465576,17.6362305 C197.871009,17.5092767 197.399172,17.3569345 197.050049,17.1791992 C196.700926,17.001464 196.442791,16.7898775 196.275635,16.5444336 C196.108479,16.2989897 196.024902,16.0070004 196.024902,15.668457 C196.024902,15.1056287 196.262937,14.6295592 196.739014,14.2402344 C197.21509,13.8509095 197.823401,13.65625 198.563965,13.65625 C199.342615,13.65625 199.9742,13.8572571 200.45874,14.2592773 C200.94328,14.6612976 201.185547,15.1754526 201.185547,15.8017578 L200.004883,15.8017578 C200.004883,15.4801416 199.86841,15.2029634 199.595459,14.9702148 C199.322508,14.7374663 198.97868,14.6210938 198.563965,14.6210938 C198.136554,14.6210938 197.802247,14.7141918 197.561035,14.9003906 C197.319823,15.0865895 197.199219,15.3299139 197.199219,15.6303711 C197.199219,15.9139012 197.31136,16.1276034 197.535645,16.2714844 C197.75993,16.4153653 198.165118,16.5528965 198.751221,16.684082 C199.337324,16.8152676 199.812335,16.9718415 200.17627,17.1538086 C200.540204,17.3357756 200.809976,17.5547676 200.985596,17.810791 C201.161215,18.0668144 201.249023,18.3789044 201.249023,18.7470703 C201.249023,19.3606802 201.003583,19.8526186 200.512695,20.2229004 C200.021807,20.5931822 199.384932,20.7783203 198.602051,20.7783203 C198.051918,20.7783203 197.565269,20.6809906 197.14209,20.4863281 C196.718911,20.2916657 196.387778,20.0197771 196.148682,19.6706543 C195.909585,19.3215315 195.790039,18.9438497 195.790039,18.5375977 L196.964355,18.5375977 C196.985514,18.9311543 197.143146,19.2432443 197.437256,19.473877 C197.731365,19.7045096 198.119626,19.8198242 198.602051,19.8198242 C199.046389,19.8198242 199.402912,19.7299 199.671631,19.5500488 C199.94035,19.3701977 200.074707,19.1300471 200.074707,18.8295898 Z M202.467773,17.1538086 C202.467773,16.4809537 202.600015,15.8758165 202.864502,15.3383789 C203.128989,14.8009413 203.497149,14.3862319 203.968994,14.0942383 C204.440839,13.8022446 204.979326,13.65625 205.584473,13.65625 C206.519699,13.65625 207.27612,13.9799772 207.85376,14.6274414 C208.431399,15.2749056 208.720215,16.1360623 208.720215,17.2109375 L208.720215,17.293457 C208.720215,17.9620802 208.592205,18.5619277 208.336182,19.0930176 C208.080158,19.6241075 207.714114,20.0377589 207.238037,20.3339844 C206.761961,20.6302098 206.21501,20.7783203 205.597168,20.7783203 C204.666174,20.7783203 203.911868,20.4545931 203.334229,19.8071289 C202.756589,19.1596647 202.467773,18.3027397 202.467773,17.2363281 L202.467773,17.1538086 Z M203.648438,17.293457 C203.648438,18.0551796 203.825112,18.6666644 204.178467,19.1279297 C204.531821,19.589195 205.004717,19.8198242 205.597168,19.8198242 C206.193851,19.8198242 206.667804,19.5860212 207.019043,19.1184082 C207.370282,18.6507952 207.545898,17.9959352 207.545898,17.1538086 C207.545898,16.4005496 207.367108,15.7901228 207.009521,15.3225098 C206.651935,14.8548968 206.176924,14.6210938 205.584473,14.6210938 C205.004717,14.6210938 204.537111,14.851723 204.181641,15.3129883 C203.82617,15.7742536 203.648438,16.4344033 203.648438,17.293457 Z M205.063965,11.0981445 L206.028809,11.0981445 L207.869629,12.7675781 L206.619141,12.7675781 L205.546387,11.7583008 L204.467285,12.7675781 L203.210449,12.7675781 L205.063965,11.0981445 Z M208.30127,10 L209.570801,10 L208.294922,11.644043 L207.399902,11.644043 L208.30127,10 Z M220.393555,17.71875 C220.279296,18.696294 219.918541,19.4505996 219.311279,19.9816895 C218.704017,20.5127793 217.896815,20.7783203 216.889648,20.7783203 C215.797846,20.7783203 214.922936,20.3868854 214.264893,19.6040039 C213.606849,18.8211224 213.277832,17.7737696 213.277832,16.4619141 L213.277832,15.5732422 C213.277832,14.7141884 213.431232,13.9588249 213.738037,13.3071289 C214.044842,12.6554329 214.479652,12.155031 215.04248,11.8059082 C215.605309,11.4567854 216.256995,11.2822266 216.997559,11.2822266 C217.979334,11.2822266 218.766436,11.556231 219.358887,12.104248 C219.951338,12.6522651 220.296223,13.4108024 220.393555,14.3798828 L219.168457,14.3798828 C219.062662,13.643551 218.833091,13.1103532 218.479736,12.7802734 C218.126382,12.4501937 217.632327,12.2851562 216.997559,12.2851562 C216.218909,12.2851562 215.608482,12.5729138 215.16626,13.1484375 C214.724038,13.7239612 214.50293,14.5428007 214.50293,15.6049805 L214.50293,16.5 C214.50293,17.5029347 214.7124,18.3006155 215.131348,18.8930664 C215.550295,19.4855173 216.136389,19.7817383 216.889648,19.7817383 C217.566735,19.7817383 218.08618,19.6283381 218.447998,19.3215332 C218.809816,19.0147283 219.049967,18.4804726 219.168457,17.71875 L220.393555,17.71875 Z M226.112793,19.972168 C225.655759,20.5096056 224.98503,20.7783203 224.100586,20.7783203 C223.368486,20.7783203 222.810956,20.565676 222.427979,20.1403809 C222.045001,19.7150858 221.8514,19.0856161 221.847168,18.2519531 L221.847168,13.7832031 L223.021484,13.7832031 L223.021484,18.2202148 C223.021484,19.2612357 223.444657,19.7817383 224.291016,19.7817383 C225.188156,19.7817383 225.784829,19.4474317 226.081055,18.7788086 L226.081055,13.7832031 L227.255371,13.7832031 L227.255371,20.6513672 L226.138184,20.6513672 L226.112793,19.972168 Z M228.728027,17.1538086 C228.728027,16.4809537 228.860269,15.8758165 229.124756,15.3383789 C229.389243,14.8009413 229.757403,14.3862319 230.229248,14.0942383 C230.701093,13.8022446 231.23958,13.65625 231.844727,13.65625 C232.779953,13.65625 233.536374,13.9799772 234.114014,14.6274414 C234.691653,15.2749056 234.980469,16.1360623 234.980469,17.2109375 L234.980469,17.293457 C234.980469,17.9620802 234.852459,18.5619277 234.596436,19.0930176 C234.340412,19.6241075 233.974368,20.0377589 233.498291,20.3339844 C233.022214,20.6302098 232.475264,20.7783203 231.857422,20.7783203 C230.926428,20.7783203 230.172122,20.4545931 229.594482,19.8071289 C229.016843,19.1596647 228.728027,18.3027397 228.728027,17.2363281 L228.728027,17.1538086 Z M229.908691,17.293457 C229.908691,18.0551796 230.085366,18.6666644 230.438721,19.1279297 C230.792075,19.589195 231.264971,19.8198242 231.857422,19.8198242 C232.454105,19.8198242 232.928058,19.5860212 233.279297,19.1184082 C233.630536,18.6507952 233.806152,17.9959352 233.806152,17.1538086 C233.806152,16.4005496 233.627362,15.7901228 233.269775,15.3225098 C232.912189,14.8548968 232.437177,14.6210938 231.844727,14.6210938 C231.264971,14.6210938 230.797365,14.851723 230.441895,15.3129883 C230.086424,15.7742536 229.908691,16.4344033 229.908691,17.293457 Z M231.324219,11.0981445 L232.289062,11.0981445 L234.129883,12.7675781 L232.879395,12.7675781 L231.806641,11.7583008 L230.727539,12.7675781 L229.470703,12.7675781 L231.324219,11.0981445 Z M234.561523,10 L235.831055,10 L234.555176,11.644043 L233.660156,11.644043 L234.561523,10 Z M237.729004,20.6513672 L236.554688,20.6513672 L236.554688,13.7832031 L237.729004,13.7832031 L237.729004,20.6513672 Z M236.459473,11.9614258 C236.459473,11.7709951 236.517659,11.6101895 236.634033,11.4790039 C236.750407,11.3478184 236.92285,11.2822266 237.151367,11.2822266 C237.379884,11.2822266 237.553385,11.3478184 237.671875,11.4790039 C237.790365,11.6101895 237.849609,11.7709951 237.849609,11.9614258 C237.849609,12.1518564 237.790365,12.3105462 237.671875,12.4375 C237.553385,12.5644538 237.379884,12.6279297 237.151367,12.6279297 C236.92285,12.6279297 236.750407,12.5644538 236.634033,12.4375 C236.517659,12.3105462 236.459473,12.1518564 236.459473,11.9614258 Z M249.808594,17.71875 C249.694335,18.696294 249.333581,19.4505996 248.726318,19.9816895 C248.119056,20.5127793 247.311854,20.7783203 246.304688,20.7783203 C245.212885,20.7783203 244.337975,20.3868854 243.679932,19.6040039 C243.021888,18.8211224 242.692871,17.7737696 242.692871,16.4619141 L242.692871,15.5732422 C242.692871,14.7141884 242.846271,13.9588249 243.153076,13.3071289 C243.459881,12.6554329 243.894691,12.155031 244.45752,11.8059082 C245.020348,11.4567854 245.672034,11.2822266 246.412598,11.2822266 C247.394373,11.2822266 248.181475,11.556231 248.773926,12.104248 C249.366377,12.6522651 249.711263,13.4108024 249.808594,14.3798828 L248.583496,14.3798828 C248.477701,13.643551 248.24813,13.1103532 247.894775,12.7802734 C247.541421,12.4501937 247.047366,12.2851562 246.412598,12.2851562 C245.633948,12.2851562 245.023521,12.5729138 244.581299,13.1484375 C244.139077,13.7239612 243.917969,14.5428007 243.917969,15.6049805 L243.917969,16.5 C243.917969,17.5029347 244.127439,18.3006155 244.546387,18.8930664 C244.965334,19.4855173 245.551429,19.7817383 246.304688,19.7817383 C246.981774,19.7817383 247.501219,19.6283381 247.863037,19.3215332 C248.224855,19.0147283 248.465006,18.4804726 248.583496,17.71875 L249.808594,17.71875 Z M255.527832,19.972168 C255.070798,20.5096056 254.40007,20.7783203 253.515625,20.7783203 C252.783525,20.7783203 252.225995,20.565676 251.843018,20.1403809 C251.46004,19.7150858 251.266439,19.0856161 251.262207,18.2519531 L251.262207,13.7832031 L252.436523,13.7832031 L252.436523,18.2202148 C252.436523,19.2612357 252.859696,19.7817383 253.706055,19.7817383 C254.603195,19.7817383 255.199868,19.4474317 255.496094,18.7788086 L255.496094,13.7832031 L256.67041,13.7832031 L256.67041,20.6513672 L255.553223,20.6513672 L255.527832,19.972168 Z M254.670898,12.7675781 L253.661621,12.7675781 L252.023926,10.9013672 L253.439453,10.9013672 L254.670898,12.7675781 Z M259.564941,13.7832031 L259.603027,14.6464844 C260.12777,13.9863248 260.81331,13.65625 261.659668,13.65625 C263.111173,13.65625 263.843262,14.4750895 263.855957,16.112793 L263.855957,20.6513672 L262.681641,20.6513672 L262.681641,16.1064453 C262.677409,15.6113256 262.56421,15.2452811 262.342041,15.0083008 C262.119872,14.7713204 261.773928,14.652832 261.304199,14.652832 C260.923338,14.652832 260.589031,14.7543935 260.30127,14.9575195 C260.013508,15.1606455 259.789226,15.4272444 259.628418,15.7573242 L259.628418,20.6513672 L258.454102,20.6513672 L258.454102,13.7832031 L259.564941,13.7832031 Z M265.347656,17.1601562 C265.347656,16.0895129 265.595212,15.2378775 266.090332,14.6052246 C266.585452,13.9725717 267.24137,13.65625 268.058105,13.65625 C268.896,13.65625 269.549802,13.952471 270.019531,14.5449219 L270.07666,13.7832031 L271.149414,13.7832031 L271.149414,20.4863281 C271.149414,21.3750044 270.885989,22.0753555 270.359131,22.5874023 C269.832273,23.0994492 269.124516,23.3554688 268.23584,23.3554688 C267.74072,23.3554688 267.256187,23.2496755 266.782227,23.0380859 C266.308266,22.8264963 265.946453,22.5366229 265.696777,22.168457 L266.306152,21.4638672 C266.809736,22.0859406 267.425452,22.3969727 268.15332,22.3969727 C268.724612,22.3969727 269.170002,22.236167 269.489502,21.9145508 C269.809002,21.5929346 269.96875,21.1401396 269.96875,20.5561523 L269.96875,19.9658203 C269.499021,20.5074897 268.857914,20.7783203 268.04541,20.7783203 C267.24137,20.7783203 266.590741,20.4545931 266.093506,19.8071289 C265.59627,19.1596647 265.347656,18.2773493 265.347656,17.1601562 Z M266.52832,17.293457 C266.52832,18.067875 266.68701,18.6761859 267.004395,19.1184082 C267.321779,19.5606305 267.76611,19.7817383 268.337402,19.7817383 C269.077966,19.7817383 269.621743,19.4453159 269.96875,18.7724609 L269.96875,15.6367188 C269.609048,14.980791 269.069502,14.652832 268.350098,14.652832 C267.778806,14.652832 267.332358,14.8749978 267.010742,15.3193359 C266.689126,15.7636741 266.52832,16.4217079 266.52832,17.293457 Z" id="path-1" fill="#2A3052"></path>
            <path d="M282.878906,16.1767578 L283.76123,16.1767578 C284.315595,16.1682942 284.751463,16.0222996 285.068847,15.7387695 C285.386232,15.4552394 285.544922,15.072268 285.544922,14.5898437 C285.544922,13.506505 285.005376,12.9648437 283.926269,12.9648437 C283.418454,12.9648437 283.013266,13.1097804 282.710693,13.3996582 C282.40812,13.6895359 282.256836,14.0735653 282.256836,14.5517578 L281.082519,14.5517578 C281.082519,13.8196578 281.350176,13.2113468 281.885498,12.7268066 C282.420819,12.2422664 283.10107,12 283.926269,12 C284.798018,12 285.481443,12.2306292 285.976562,12.6918945 C286.471682,13.1531598 286.719238,13.7942667 286.719238,14.6152344 C286.719238,15.0172546 286.589112,15.4065736 286.328857,15.7832031 C286.068602,16.1598326 285.714195,16.4412425 285.265625,16.6274414 C285.77344,16.7882495 286.165933,17.0548484 286.443115,17.4272461 C286.720297,17.7996438 286.858886,18.2545546 286.858886,18.7919922 C286.858886,19.6214234 286.588056,20.2794572 286.046386,20.7661133 C285.504717,21.2527693 284.800134,21.4960937 283.932617,21.4960937 C283.0651,21.4960937 282.359459,21.2612328 281.815674,20.7915039 C281.271888,20.321775 281,19.7018267 281,18.9316406 L282.180664,18.9316406 C282.180664,19.4182967 282.339354,19.8076157 282.656738,20.0996094 C282.974122,20.391603 283.399411,20.5375976 283.932617,20.5375976 C284.499677,20.5375976 284.933429,20.3894871 285.233886,20.0932617 C285.534344,19.7970363 285.68457,19.3717475 285.68457,18.8173828 C285.68457,18.2799452 285.519533,17.8673517 285.189453,17.5795898 C284.859373,17.291828 284.383304,17.1437175 283.76123,17.1352539 L282.878906,17.1352539 L282.878906,16.1767578 Z" id="path-1" fill="#2A3052"></path>
            <path d="M275,19.8300781 C275,19.6425772 275.055664,19.4863287 275.166992,19.3613281 C275.278321,19.2363275 275.445312,19.1738281 275.667969,19.1738281 C275.890626,19.1738281 276.05957,19.2363275 276.174805,19.3613281 C276.29004,19.4863287 276.347656,19.6425772 276.347656,19.8300781 C276.347656,20.0097665 276.29004,20.1601556 276.174805,20.28125 C276.05957,20.4023444 275.890626,20.4628906 275.667969,20.4628906 C275.445312,20.4628906 275.278321,20.4023444 275.166992,20.28125 C275.055664,20.1601556 275,20.0097665 275,19.8300781 Z M275.00586,14.65625 C275.00586,14.4687491 275.061523,14.3125006 275.172852,14.1875 C275.28418,14.0624994 275.451171,14 275.673828,14 C275.896486,14 276.065429,14.0624994 276.180664,14.1875 C276.295899,14.3125006 276.353516,14.4687491 276.353516,14.65625 C276.353516,14.8359384 276.295899,14.9863275 276.180664,15.1074219 C276.065429,15.2285162 275.896486,15.2890625 275.673828,15.2890625 C275.451171,15.2890625 275.28418,15.2285162 275.172852,15.1074219 C275.061523,14.9863275 275.00586,14.8359384 275.00586,14.65625 Z" id="path-4" fill="#2A3052"></path>
            <path d="M128.078125,170.058594 L128.078125,159.833984 L124.210938,159.833984 L124.210938,158.574219 L134.060547,158.574219 L134.060547,159.833984 L130.251953,159.833984 L130.251953,170.058594 L128.078125,170.058594 Z M137.089844,170.058594 L135.027344,170.058594 L135.027344,158.117188 L137.089844,158.117188 L137.089844,162.417969 C137.128906,162.382812 137.171875,162.344727 137.21875,162.303711 C137.265625,162.262695 137.310547,162.226563 137.353516,162.195312 C137.576173,162.01953 137.892576,161.85547 138.302734,161.703125 C138.603517,161.589843 138.974607,161.533203 139.416016,161.533203 C139.708986,161.533203 139.98828,161.5625 140.253906,161.621094 C140.519533,161.679688 140.765624,161.764648 140.992188,161.875977 C141.218751,161.987305 141.421874,162.121093 141.601562,162.277344 C141.781251,162.433595 141.929687,162.609374 142.046875,162.804688 C142.171876,163.031251 142.267578,163.312498 142.333984,163.648438 C142.400391,163.984377 142.433594,164.365232 142.433594,164.791016 L142.433594,170.058594 L140.365234,170.058594 L140.365234,165.376953 C140.365234,164.615231 140.322266,164.103517 140.236328,163.841797 C140.11914,163.478514 139.982423,163.25 139.826172,163.15625 C139.548827,162.98828 139.298829,162.904297 139.076172,162.904297 C138.939452,162.904297 138.789063,162.93457 138.625,162.995117 C138.460937,163.055664 138.294923,163.138671 138.126953,163.244141 C138.005859,163.326172 137.88086,163.449218 137.751953,163.613281 C137.623046,163.777345 137.498047,163.976561 137.376953,164.210938 C137.279296,164.394532 137.207031,164.633788 137.160156,164.928711 C137.113281,165.223634 137.089844,165.574217 137.089844,165.980469 L137.089844,170.058594 Z M148.855469,170.058594 C148.816406,169.937499 148.78125,169.819337 148.75,169.704102 C148.71875,169.588867 148.693359,169.486329 148.673828,169.396484 C148.486327,169.544923 148.300782,169.669921 148.117188,169.771484 C147.933593,169.873047 147.748048,169.96289 147.560547,170.041016 C147.349608,170.119141 147.131837,170.178711 146.907227,170.219727 C146.682616,170.260742 146.455079,170.28125 146.224609,170.28125 C145.439449,170.28125 144.806643,170.08008 144.326172,169.677734 C143.779294,169.208982 143.505859,168.644535 143.505859,167.984375 C143.505859,167.234371 143.884762,166.609377 144.642578,166.109375 C144.958986,165.906249 145.418942,165.708985 146.022461,165.517578 C146.62598,165.326171 147.33984,165.148438 148.164062,164.984375 L148.615234,164.896484 L148.615234,163.982422 C148.615234,163.451169 148.501954,163.117188 148.275391,162.980469 C147.939451,162.777343 147.595705,162.675781 147.244141,162.675781 C146.810545,162.675781 146.441408,162.796874 146.136719,163.039062 C145.910155,163.214845 145.796875,163.490232 145.796875,163.865234 L145.796875,164.041016 L143.611328,164.041016 L143.611328,163.865234 C143.611328,163.705077 143.65625,163.528321 143.746094,163.334961 C143.835938,163.141601 143.968749,162.935548 144.144531,162.716797 C144.281251,162.548827 144.468749,162.387696 144.707031,162.233398 C144.945314,162.079101 145.212889,161.94336 145.509766,161.826172 C145.767579,161.724609 146.045897,161.648438 146.344727,161.597656 C146.643556,161.546875 146.958983,161.521484 147.291016,161.521484 C147.626955,161.521484 147.941405,161.545898 148.234375,161.594727 C148.527345,161.643555 148.794921,161.716796 149.037109,161.814453 C149.333986,161.927735 149.58789,162.050781 149.798828,162.183594 C150.009767,162.316407 150.166015,162.449218 150.267578,162.582031 C150.400391,162.769532 150.502929,163.0166 150.575195,163.323242 C150.647461,163.629884 150.683594,163.984373 150.683594,164.386719 L150.683594,167.5625 C150.683594,167.738282 150.685547,167.917968 150.689453,168.101562 C150.693359,168.285157 150.699219,168.472655 150.707031,168.664062 C150.722656,169.070315 150.810546,169.535154 150.970703,170.058594 L148.855469,170.058594 Z M148.615234,166.039062 C147.994138,166.187501 147.475588,166.342773 147.05957,166.504883 C146.643553,166.666993 146.330079,166.826171 146.119141,166.982422 C145.82617,167.216798 145.679688,167.558592 145.679688,168.007812 C145.679688,168.242189 145.720703,168.446288 145.802734,168.620117 C145.884766,168.793946 145.998046,168.917968 146.142578,168.992188 C146.244141,169.035156 146.34082,169.070312 146.432617,169.097656 C146.524415,169.125 146.603515,169.138672 146.669922,169.138672 C146.931642,169.138672 147.248045,169.031251 147.619141,168.816406 C147.744141,168.746093 147.86914,168.635743 147.994141,168.485352 C148.119141,168.33496 148.238281,168.158204 148.351562,167.955078 L148.345703,167.955078 C148.431641,167.794921 148.498047,167.606446 148.544922,167.389648 C148.591797,167.17285 148.615234,166.935548 148.615234,166.677734 L148.615234,166.039062 Z M146.353516,158.392578 C146.400391,158.853518 146.513671,159.193358 146.693359,159.412109 C146.806641,159.541016 146.909179,159.640625 147.000977,159.710938 C147.092774,159.78125 147.169922,159.816406 147.232422,159.816406 C147.294922,159.816406 147.373046,159.779297 147.466797,159.705078 C147.560547,159.630859 147.658203,159.531251 147.759766,159.40625 C147.833985,159.296874 147.90332,159.152345 147.967773,158.972656 C148.032227,158.792968 148.076172,158.59961 148.099609,158.392578 L149.746094,158.392578 C149.691406,158.931643 149.533204,159.400389 149.271484,159.798828 C149.18164,159.931641 149.062501,160.065429 148.914062,160.200195 C148.765624,160.334962 148.585939,160.468749 148.375,160.601562 C148.05078,160.800782 147.669924,160.900391 147.232422,160.900391 C147.029296,160.900391 146.830079,160.875 146.634766,160.824219 C146.439452,160.773437 146.253907,160.700196 146.078125,160.604492 C145.902343,160.508789 145.739259,160.392579 145.588867,160.255859 C145.438476,160.11914 145.306641,159.966798 145.193359,159.798828 C144.935546,159.392576 144.775391,158.923831 144.712891,158.392578 L146.353516,158.392578 Z M145,157.765625 L147.273438,155.257812 L149.458984,155.257812 L146.828125,157.765625 L145,157.765625 Z M154.146484,170.058594 L152.083984,170.058594 L152.083984,161.761719 L154.146484,161.761719 L154.146484,162.417969 C154.185547,162.382812 154.228515,162.344727 154.275391,162.303711 C154.322266,162.262695 154.367187,162.226563 154.410156,162.195312 C154.632814,162.01953 154.949217,161.85547 155.359375,161.703125 C155.660158,161.589843 156.031248,161.533203 156.472656,161.533203 C156.765626,161.533203 157.044921,161.5625 157.310547,161.621094 C157.576173,161.679688 157.822264,161.764648 158.048828,161.875977 C158.275392,161.987305 158.478515,162.121093 158.658203,162.277344 C158.837892,162.433595 158.986328,162.609374 159.103516,162.804688 C159.228516,163.031251 159.324218,163.312498 159.390625,163.648438 C159.457032,163.984377 159.490234,164.365232 159.490234,164.791016 L159.490234,170.058594 L157.421875,170.058594 L157.421875,165.376953 C157.421875,164.615231 157.378907,164.103517 157.292969,163.841797 C157.171874,163.474608 157.031251,163.246094 156.871094,163.15625 C156.734374,163.074218 156.605469,163.011719 156.484375,162.96875 C156.363281,162.925781 156.246094,162.904297 156.132812,162.904297 C155.996093,162.904297 155.845704,162.93457 155.681641,162.995117 C155.517577,163.055664 155.351563,163.138671 155.183594,163.244141 C155.062499,163.326172 154.937501,163.449218 154.808594,163.613281 C154.679687,163.777345 154.554688,163.976561 154.433594,164.210938 C154.335937,164.394532 154.263672,164.633788 154.216797,164.928711 C154.169922,165.223634 154.146484,165.574217 154.146484,165.980469 L154.146484,170.058594 Z M166.462891,169.220703 C166.177733,169.494142 165.841799,169.702148 165.455078,169.844727 C165.068357,169.987305 164.632815,170.058594 164.148438,170.058594 C163.007807,170.058594 162.115238,169.669926 161.470703,168.892578 C160.7832,168.056636 160.439453,167.039068 160.439453,165.839844 C160.439453,165.05859 160.589842,164.304691 160.890625,163.578125 C161.156251,162.957028 161.597653,162.445315 162.214844,162.042969 C162.74219,161.703123 163.408199,161.533203 164.212891,161.533203 C164.51758,161.533203 164.79785,161.558593 165.053711,161.609375 C165.309572,161.660157 165.541015,161.738281 165.748047,161.84375 C165.869141,161.90625 165.99121,161.980468 166.114258,162.066406 C166.237305,162.152344 166.353515,162.242187 166.462891,162.335938 L166.462891,161.761719 L168.525391,161.761719 L168.525391,168.505859 C168.525391,169.310551 168.475586,169.994138 168.375977,170.556641 C168.276367,171.119143 168.132813,171.552733 167.945312,171.857422 C167.785155,172.091798 167.57715,172.315429 167.321289,172.52832 C167.065428,172.741212 166.781252,172.923827 166.46875,173.076172 C166.199217,173.205079 165.88965,173.303711 165.540039,173.37207 C165.190428,173.44043 164.814455,173.474609 164.412109,173.474609 C164.04492,173.474609 163.697267,173.448242 163.369141,173.395508 C163.041014,173.342773 162.742189,173.265626 162.472656,173.164062 C162.167967,173.046874 161.894532,172.914063 161.652344,172.765625 C161.410155,172.617187 161.226563,172.468751 161.101562,172.320312 C160.949218,172.124999 160.829102,171.930665 160.741211,171.737305 C160.65332,171.543944 160.609375,171.365235 160.609375,171.201172 L160.609375,171.019531 L162.677734,171.019531 L162.677734,171.195312 C162.677734,171.382813 162.71289,171.545898 162.783203,171.68457 C162.853516,171.823243 162.953124,171.93164 163.082031,172.009766 C163.273438,172.111329 163.479491,172.190429 163.700195,172.24707 C163.9209,172.303711 164.152343,172.332031 164.394531,172.332031 C164.792971,172.332031 165.139647,172.249024 165.43457,172.083008 C165.729494,171.916991 165.980468,171.650392 166.1875,171.283203 C166.371095,170.966795 166.462891,170.289068 166.462891,169.25 L166.462891,169.220703 Z M166.462891,165.664062 C166.462891,164.742183 166.265627,164.046877 165.871094,163.578125 C165.429685,163.050779 164.982424,162.787109 164.529297,162.787109 C164.287108,162.787109 164.048829,162.855468 163.814453,162.992188 C163.580077,163.128907 163.357423,163.326171 163.146484,163.583984 C162.958983,163.830079 162.81543,164.1416 162.71582,164.518555 C162.61621,164.89551 162.566406,165.339841 162.566406,165.851562 C162.566406,166.472659 162.646484,167.015623 162.806641,167.480469 C162.966798,167.945315 163.195311,168.289061 163.492188,168.511719 C163.664063,168.617188 163.83789,168.702148 164.013672,168.766602 C164.189454,168.831055 164.351562,168.863281 164.5,168.863281 C164.750001,168.863281 164.99121,168.78711 165.223633,168.634766 C165.456056,168.482421 165.67578,168.263673 165.882812,167.978516 L165.876953,167.978516 C166.064454,167.70117 166.208984,167.369143 166.310547,166.982422 C166.41211,166.595701 166.462891,166.156252 166.462891,165.664062 Z" id="Thắng" fill="#FFFFFF"></path>
            <path d="M19.2919922,16.7226562 L18.1494141,17.953125 L18.1494141,21 L15.9521484,21 L15.9521484,10.3359375 L18.1494141,10.3359375 L18.1494141,15.1699219 L19.1162109,13.8442383 L21.8334961,10.3359375 L24.5361328,10.3359375 L20.7495117,15.074707 L24.6459961,21 L22.03125,21 L19.2919922,16.7226562 Z M27.3999023,13.9394531 C27.9614286,13.2656216 28.6669879,12.9287109 29.5166016,12.9287109 C31.2353602,12.9287109 32.1069335,13.9272361 32.1313477,15.9243164 L32.1313477,21 L30.0146484,21 L30.0146484,15.9829102 C30.0146484,15.5288063 29.9169932,15.1931163 29.7216797,14.9758301 C29.5263662,14.7585438 29.2016624,14.6499023 28.7475586,14.6499023 C28.1274383,14.6499023 27.678224,14.8891578 27.3999023,15.3676758 L27.3999023,21 L25.2832031,21 L25.2832031,9.75 L27.3999023,9.75 L27.3999023,13.9394531 Z M38.3203125,21 C38.2226558,20.8095694 38.1518557,20.5727553 38.1079102,20.2895508 C37.5952123,20.8608427 36.928715,21.1464844 36.1083984,21.1464844 C35.3320274,21.1464844 34.6887233,20.9218772 34.1784668,20.4726562 C33.6682103,20.0234353 33.4130859,19.4570347 33.4130859,18.7734375 C33.4130859,17.9335896 33.7243621,17.2890647 34.3469238,16.8398438 C34.9694855,16.3906228 35.8691347,16.1635742 37.0458984,16.1586914 L38.0200195,16.1586914 L38.0200195,15.7045898 C38.0200195,15.3383771 37.9260263,15.0454113 37.7380371,14.8256836 C37.5500479,14.6059559 37.25342,14.4960938 36.8481445,14.4960938 C36.4916974,14.4960938 36.2121592,14.5815421 36.0095215,14.7524414 C35.8068838,14.9233407 35.7055664,15.1577134 35.7055664,15.4555664 L33.5888672,15.4555664 C33.5888672,14.9965797 33.7304673,14.5717793 34.0136719,14.1811523 C34.2968764,13.7905254 34.697263,13.484132 35.2148438,13.2619629 C35.7324245,13.0397938 36.3134733,12.9287109 36.9580078,12.9287109 C37.9345752,12.9287109 38.7097139,13.1740698 39.2834473,13.6647949 C39.8571806,14.15552 40.144043,14.8452104 40.144043,15.7338867 L40.144043,19.1689453 C40.1489258,19.9209022 40.2539052,20.4897442 40.4589844,20.8754883 L40.4589844,21 L38.3203125,21 Z M36.5698242,19.527832 C36.8823258,19.527832 37.1704088,19.4582526 37.434082,19.3190918 C37.6977552,19.1799309 37.8930658,18.9931652 38.0200195,18.7587891 L38.0200195,17.3964844 L37.2290039,17.3964844 C36.1694283,17.3964844 35.6054691,17.7626917 35.5371094,18.4951172 L35.5297852,18.6196289 C35.5297852,18.8833021 35.6225577,19.1005851 35.8081055,19.2714844 C35.9936533,19.4423837 36.247557,19.527832 36.5698242,19.527832 Z M37.3754883,9.75 L39.6826172,9.75 L37.6538086,12.0205078 L35.9326172,12.0205078 L37.3754883,9.75 Z M45.065918,19.4399414 C45.4565449,19.4399414 45.7739246,19.3325206 46.0180664,19.1176758 C46.2622083,18.902831 46.3891601,18.6171893 46.3989258,18.2607422 L48.3837891,18.2607422 C48.3789062,18.7978542 48.2324233,19.2897927 47.9443359,19.7365723 C47.6562486,20.1833518 47.2619654,20.5300281 46.7614746,20.7766113 C46.2609838,21.0231946 45.7080108,21.1464844 45.1025391,21.1464844 C43.9697209,21.1464844 43.0761751,20.7863806 42.421875,20.0661621 C41.7675749,19.3459437 41.4404297,18.3510806 41.4404297,17.081543 L41.4404297,16.9423828 C41.4404297,15.7216736 41.7651335,14.7475622 42.4145508,14.0200195 C43.0639681,13.2924768 43.9550725,12.9287109 45.0878906,12.9287109 C46.0791065,12.9287109 46.8737763,13.2106905 47.4719238,13.7746582 C48.0700714,14.3386259 48.3740234,15.0893508 48.3837891,16.0268555 L46.3989258,16.0268555 C46.3891601,15.6166972 46.2622083,15.2834485 46.0180664,15.0270996 C45.7739246,14.7707507 45.4516622,14.6425781 45.0512695,14.6425781 C44.558103,14.6425781 44.1857923,14.8220197 43.9343262,15.1809082 C43.6828601,15.5397967 43.5571289,16.1220663 43.5571289,16.9277344 L43.5571289,17.1474609 C43.5571289,17.9628947 43.6816394,18.5488263 43.9306641,18.9052734 C44.1796887,19.2617205 44.5581029,19.4399414 45.065918,19.4399414 Z M55.2758789,13.0751953 L55.3417969,13.9907227 C55.908206,13.2827113 56.6674757,12.9287109 57.6196289,12.9287109 C58.4594769,12.9287109 59.0844706,13.1752905 59.4946289,13.668457 C59.9047872,14.1616236 60.114746,14.8989209 60.1245117,15.8803711 L60.1245117,21 L58.0078125,21 L58.0078125,15.9316406 C58.0078125,15.4824196 57.9101572,15.1564952 57.7148438,14.9538574 C57.5195303,14.7512197 57.1948265,14.6499023 56.7407227,14.6499023 C56.1450166,14.6499023 55.6982437,14.9038061 55.4003906,15.4116211 L55.4003906,21 L53.2836914,21 L53.2836914,13.0751953 L55.2758789,13.0751953 Z M63.7939453,13.9394531 C64.3554716,13.2656216 65.0610309,12.9287109 65.9106445,12.9287109 C67.6294031,12.9287109 68.5009764,13.9272361 68.5253906,15.9243164 L68.5253906,21 L66.4086914,21 L66.4086914,15.9829102 C66.4086914,15.5288063 66.3110361,15.1931163 66.1157227,14.9758301 C65.9204092,14.7585438 65.5957054,14.6499023 65.1416016,14.6499023 C64.5214813,14.6499023 64.072267,14.8891578 63.7939453,15.3676758 L63.7939453,21 L61.6772461,21 L61.6772461,9.75 L63.7939453,9.75 L63.7939453,13.9394531 Z M74.7143555,21 C74.6166987,20.8095694 74.5458987,20.5727553 74.5019531,20.2895508 C73.9892552,20.8608427 73.322758,21.1464844 72.5024414,21.1464844 C71.7260703,21.1464844 71.0827662,20.9218772 70.5725098,20.4726562 C70.0622533,20.0234353 69.8071289,19.4570347 69.8071289,18.7734375 C69.8071289,17.9335896 70.1184051,17.2890647 70.7409668,16.8398438 C71.3635285,16.3906228 72.2631777,16.1635742 73.4399414,16.1586914 L74.4140625,16.1586914 L74.4140625,15.7045898 C74.4140625,15.3383771 74.3200693,15.0454113 74.1320801,14.8256836 C73.9440909,14.6059559 73.647463,14.4960938 73.2421875,14.4960938 C72.8857404,14.4960938 72.6062022,14.5815421 72.4035645,14.7524414 C72.2009267,14.9233407 72.0996094,15.1577134 72.0996094,15.4555664 L69.9829102,15.4555664 C69.9829102,14.9965797 70.1245103,14.5717793 70.4077148,14.1811523 C70.6909194,13.7905254 71.091306,13.484132 71.6088867,13.2619629 C72.1264674,13.0397938 72.7075163,12.9287109 73.3520508,12.9287109 C74.3286182,12.9287109 75.1037569,13.1740698 75.6774902,13.6647949 C76.2512236,14.15552 76.5380859,14.8452104 76.5380859,15.7338867 L76.5380859,19.1689453 C76.5429688,19.9209022 76.6479482,20.4897442 76.8530273,20.8754883 L76.8530273,21 L74.7143555,21 Z M72.9638672,19.527832 C73.2763688,19.527832 73.5644518,19.4582526 73.828125,19.3190918 C74.0917982,19.1799309 74.2871087,18.9931652 74.4140625,18.7587891 L74.4140625,17.3964844 L73.6230469,17.3964844 C72.5634713,17.3964844 71.9995121,17.7626917 71.9311523,18.4951172 L71.9238281,18.6196289 C71.9238281,18.8833021 72.0166006,19.1005851 72.2021484,19.2714844 C72.3876962,19.4423837 72.6416,19.527832 72.9638672,19.527832 Z M82.9101562,20.1943359 C82.3876927,20.8291047 81.6650437,21.1464844 80.7421875,21.1464844 C79.8925739,21.1464844 79.244387,20.9023462 78.7976074,20.4140625 C78.3508278,19.9257788 78.1225586,19.2104539 78.112793,18.2680664 L78.112793,13.0751953 L80.2294922,13.0751953 L80.2294922,18.1948242 C80.2294922,19.0200237 80.605465,19.4326172 81.3574219,19.4326172 C82.0751989,19.4326172 82.568358,19.1835962 82.8369141,18.6855469 L82.8369141,13.0751953 L84.9609375,13.0751953 L84.9609375,21 L82.96875,21 L82.9101562,20.1943359 Z" id="Khacnhau" fill="#000000"></path>
        </g>
    </g>
</svg>