<?xml version="1.0" encoding="UTF-8"?>
<svg width="299px" height="197px" viewBox="0 0 299 197" version="1.1" xmlns="http://www.w3.org/2000/svg" xmlns:xlink="http://www.w3.org/1999/xlink">
    <!-- Generator: Sketch 52.6 (67491) - http://www.bohemiancoding.com/sketch -->
    <title>end outside</title>
    <desc>Created with Sketch.</desc>
    <g id="Page-1" stroke="none" stroke-width="1" fill="none" fill-rule="evenodd">
        <g id="end-outside">
            <g id="ends-outside">
                <polygon id="Path" fill="#F1F2F2" points="0 0 299 0 299 197 0 197"></polygon>
                <path d="M1.98671096,1.9798995 L1.98671096,195.020101 L297.013289,195.020101 L297.013289,1.9798995 L1.98671096,1.9798995 Z M299,0 L299,197 L0,197 L0,0 L299,0 Z" id="Path" fill="#C2C2C2" fill-rule="nonzero"></path>
                <g id="Group-6" transform="translate(2.000000, 33.000000)">
                    <path d="M2.887,23.4456836 L2.887,22.2388448 L292.54325,22.2388448 L292.54325,23.4456836 L2.887,23.4456836 Z M2.887,63.9796458 L2.887,62.772807 L292.54325,62.772807 L292.54325,63.9796458 L2.887,63.9796458 Z M2.887,104.513608 L2.887,103.30677 L292.54325,103.30677 L292.54325,104.513608 L2.887,104.513608 Z M2.887,145.010211 L2.887,143.803373 L292.54325,143.803373 L292.54325,145.010211 L2.887,145.010211 Z M37.2665806,2.59396226 L38.4734194,2.59396226 L38.4734194,162.264151 L37.2665806,162.264151 L37.2665806,2.59396226 Z M73.9314556,2.59396226 L75.1382944,2.59396226 L75.1382944,162.264151 L73.9314556,162.264151 L73.9314556,2.59396226 Z M110.558956,2.59396226 L111.765794,2.59396226 L111.765794,162.264151 L110.558956,162.264151 L110.558956,2.59396226 Z M147.223831,2.59396226 L148.430669,2.59396226 L148.430669,162.264151 L147.223831,162.264151 L147.223831,2.59396226 Z M183.851331,2.59396226 L185.058169,2.59396226 L185.058169,162.264151 L183.851331,162.264151 L183.851331,2.59396226 Z M220.478831,2.59396226 L221.685669,2.59396226 L221.685669,162.264151 L220.478831,162.264151 L220.478831,2.59396226 Z M2.887,84.2279477 L2.887,83.0211089 L292.54325,83.0211089 L292.54325,84.2279477 L2.887,84.2279477 Z" id="Shape" fill="#DFDEDE" fill-rule="nonzero"></path>
                    <path d="M257.143706,2.59396226 L258.350544,2.59396226 L258.350544,162.264151 L257.143706,162.264151 L257.143706,2.59396226 Z M2.887,43.7313439 L2.887,42.5245051 L292.54325,42.5245051 L292.54325,43.7313439 L2.887,43.7313439 Z M2.887,124.76191 L2.887,123.555072 L292.54325,123.555072 L292.54325,124.76191 L2.887,124.76191 Z" id="Shape" fill="#2A3052" fill-rule="nonzero"></path>
                    <polygon id="Path" fill="#C2C2C2" fill-rule="nonzero" points="0.794 2.60551619 0.794 0.191464945 294.63625 0.191464945 294.63625 2.60551619"></polygon>
                    <path d="M38.7780566,85.19078 C37.9130397,85.6922858 36.8052541,85.3976018 36.3037483,84.5325849 C35.8022425,83.667568 36.0969265,82.5597824 36.9619434,82.0582766 L73.6268184,60.8012955 C74.2847374,60.4198577 75.110905,60.4902479 75.6948117,60.9774903 L108.13667,88.0486852 L146.812609,61.8768219 C147.491995,61.4170836 148.395598,61.4715961 149.014788,62.0096747 L184.376286,92.7389481 L256.475138,21.5539476 C257.186655,20.8514485 258.332942,20.8587594 259.035442,21.570277 C259.737941,22.2817946 259.73063,23.4280816 259.019112,24.1305808 L185.726737,96.493977 C185.053337,97.1588418 183.981505,97.1929357 183.267212,96.5722121 L147.68976,65.655274 L109.037516,91.8111026 C108.369276,92.2632987 107.482446,92.2187049 106.862938,91.701755 L74.3473092,64.5690015 L38.7780566,85.19078 Z" id="Path" fill="#2A3052" fill-rule="nonzero"></path>
                    <path d="M185.987125,114.445283 L151.0415,114.445283 L145.6595,106.263774 L140.2775,114.445283 L105.331875,114.445283 C104.07173,114.451176 102.865994,114.959272 101.98197,115.856931 C101.097947,116.754589 100.608676,117.967645 100.622625,119.22717 L100.622625,143.921132 C100.606032,146.539822 102.712091,148.678366 105.331875,148.703019 L186.0245,148.703019 C187.284645,148.697126 188.490381,148.18903 189.374405,147.291371 C190.258428,146.393713 190.747699,145.180657 190.73375,143.921132 L190.73375,119.22717 C190.73971,117.963586 190.242729,116.749496 189.352348,115.8525 C188.461966,114.955504 187.251275,114.449236 185.987125,114.445283 Z" id="Path" fill="#E88024"></path>
                    <g id="Group" opacity="0.6" transform="translate(249.412500, 12.830189)" fill="#FFFFFF">
                        <ellipse id="Oval" cx="8.334625" cy="9.22754717" rx="8.110375" ry="8.44301887"></ellipse>
                    </g>
                    <path d="M257.747125,31.7077803 C252.590171,31.7077803 248.429724,27.3766949 248.429724,22.0577358 C248.429724,16.7387767 252.590171,12.4076913 257.747125,12.4076913 C262.904079,12.4076913 267.064526,16.7387767 267.064526,22.0577358 C267.064526,27.3766949 262.904079,31.7077803 257.747125,31.7077803 Z M257.747125,29.293729 C261.548644,29.293729 264.650474,26.0646778 264.650474,22.0577358 C264.650474,18.0507938 261.548644,14.8217426 257.747125,14.8217426 C253.945606,14.8217426 250.843776,18.0507938 250.843776,22.0577358 C250.843776,26.0646778 253.945606,29.293729 257.747125,29.293729 Z" id="Oval" fill="#E88024" fill-rule="nonzero"></path>
                    <g id="Group" opacity="0.6" transform="translate(28.900000, 74.603774)" fill="#FFFFFF">
                        <ellipse id="Oval" cx="8.97" cy="9.0207547" rx="8.110375" ry="8.44301887"></ellipse>
                    </g>
                    <path d="M37.87,93.2745728 C32.7130457,93.2745728 28.5525994,88.9434874 28.5525994,83.6245283 C28.5525994,78.3055692 32.7130457,73.9744838 37.87,73.9744838 C43.0269543,73.9744838 47.1874006,78.3055692 47.1874006,83.6245283 C47.1874006,88.9434874 43.0269543,93.2745728 37.87,93.2745728 Z M37.87,90.8605215 C41.6715185,90.8605215 44.7733494,87.6314703 44.7733494,83.6245283 C44.7733494,79.6175863 41.6715185,76.3885351 37.87,76.3885351 C34.0684815,76.3885351 30.9666506,79.6175863 30.9666506,83.6245283 C30.9666506,87.6314703 34.0684815,90.8605215 37.87,90.8605215 Z" id="Oval" fill="#E88024" fill-rule="nonzero"></path>
                </g>
            </g>
            <path d="M17.559,18.034 L16.873,18.034 L16.873,21.932 L15,21.932 L15,12.597 L16.872,12.597 L16.872,16.412 L17.398,16.412 L19.956,12.597 L22.27,12.597 L19.039,16.937 L22.52,21.932 L20.135,21.932 L17.558,18.034 L17.559,18.034 Z M26.067,22.067 C25.033,22.067 24.225,21.749 23.643,21.114 C23.063,20.48 22.771,19.662 22.771,18.662 L22.771,18.406 C22.771,17.366 23.054,16.516 23.618,15.854 C24.182,15.191 24.958,14.862 25.945,14.866 C26.877,14.866 27.592,15.152 28.09,15.722 C28.588,16.293 28.837,17.062 28.837,18.027 L28.837,18.995 L24.7,18.995 L24.681,19.034 C24.711,19.508 24.855,19.894 25.114,20.188 C25.372,20.483 25.756,20.63 26.264,20.63 C26.6242357,20.6375196 26.9837436,20.5944325 27.332,20.502 C27.625,20.417 27.927,20.286 28.24,20.111 L28.746,21.265 C28.468,21.492 28.092,21.682 27.618,21.835 C27.143,21.99 26.626,22.067 26.066,22.067 L26.067,22.067 Z M25.945,16.309 C25.569,16.309 25.279,16.439 25.076,16.697 C24.873,16.956 24.751,17.299 24.708,17.726 L24.721,17.758 L27.003,17.758 L27.003,17.617 C27.003,17.211 26.92,16.891 26.753,16.658 C26.586,16.425 26.317,16.309 25.945,16.309 Z M25.048,12.18 L26.586,12.18 L28.484,13.802 L28.471,13.841 L26.791,13.841 L25.811,12.924 L24.842,13.841 L23.156,13.841 L23.143,13.802 L25.048,12.18 Z M28.862,11 L30.594,11 L29.22,12.738 L27.913,12.738 L28.861,11 L28.862,11 Z M32.171,13.296 L32.171,14.995 L33.344,14.995 L33.344,16.309 L32.171,16.309 L32.171,19.842 C32.171,20.111 32.227,20.303 32.341,20.419 C32.4587457,20.5361566 32.6200403,20.5988621 32.786,20.592 C32.9574833,20.5931143 33.1282342,20.5695392 33.293,20.522 L33.447,21.874 C33.0852172,22.0038386 32.7033654,22.0688346 32.319,22.066 C31.673,22.066 31.176,21.889 30.828,21.534 C30.479,21.18 30.305,20.618 30.305,19.848 L30.305,16.309 L29.292,16.309 L29.292,14.995 L30.305,14.995 L30.305,13.295 L32.171,13.295 L32.171,13.296 Z M44.417,14.039 L41.75,14.039 L41.75,21.932 L39.877,21.932 L39.877,14.038 L37.25,14.038 L37.25,12.598 L44.418,12.598 L44.418,14.04 L44.417,14.039 Z M47.129,15.873 C47.347,15.557 47.614,15.31 47.93,15.133 C48.2514376,14.953921 48.6140673,14.8618848 48.982,14.866 C49.704,14.866 50.272,15.106 50.684,15.588 C51.097,16.068 51.303,16.811 51.303,17.816 L51.303,21.932 L49.43,21.932 L49.43,17.802 C49.43,17.264 49.343,16.882 49.17,16.658 C48.997,16.434 48.737,16.322 48.39,16.322 C48.105,16.322 47.856,16.368 47.644,16.46 C47.4412238,16.5451964 47.2635986,16.6808249 47.128,16.854 L47.128,21.932 L45.256,21.932 L45.256,11.93 L47.128,11.93 L47.128,15.873 L47.129,15.873 Z M56.964,20.906 C56.7703427,21.2573172 56.490152,21.5533417 56.15,21.766 C55.82,21.966 55.438,22.066 55.002,22.066 C54.272,22.066 53.7,21.819 53.287,21.323 C52.875,20.827 52.668,20.058 52.668,19.015 L52.668,14.995 L54.534,14.995 L54.534,19.027 C54.534,19.634 54.616,20.05 54.781,20.275 C54.946,20.499 55.201,20.611 55.547,20.611 C55.847,20.611 56.103,20.563 56.317,20.467 C56.53,20.371 56.706,20.229 56.842,20.041 L56.842,14.995 L58.715,14.995 L58.715,21.932 L57.163,21.932 L56.964,20.906 Z M56.06,12.167 L58.144,12.167 L58.157,12.206 L56.381,13.873 L54.784,13.873 L56.06,12.167 Z M63.023,20.63 C63.348,20.63 63.606,20.533 63.799,20.339 C63.991,20.144 64.087,19.885 64.087,19.559 L65.793,19.559 L65.806,19.599 C65.823,20.299 65.562,20.886 65.023,21.359 C64.485,21.83 63.818,22.067 63.023,22.067 C61.997,22.067 61.204,21.739 60.644,21.082 C60.084,20.426 59.804,19.587 59.804,18.566 L59.804,18.374 C59.804,17.356 60.084,16.517 60.641,15.857 C61.199,15.197 61.989,14.867 63.011,14.867 C63.857,14.867 64.538,15.11 65.056,15.597 C65.573,16.085 65.823,16.726 65.806,17.521 L65.793,17.559 L64.087,17.559 C64.087,17.2 63.992,16.902 63.802,16.665 C63.612,16.428 63.348,16.309 63.01,16.309 C62.527,16.309 62.184,16.502 61.981,16.889 C61.778,17.276 61.677,17.771 61.677,18.374 L61.677,18.566 C61.677,19.181 61.778,19.679 61.981,20.06 C62.184,20.44 62.531,20.63 63.023,20.63 Z M72.179,18.2 L72.179,21.932 L70.307,21.932 L70.307,12.597 L73.538,12.597 C74.602,12.597 75.435,12.839 76.035,13.324 C76.635,13.81 76.936,14.486 76.936,15.354 C76.936,15.832 76.809,16.246 76.555,16.594 C76.3,16.943 75.929,17.224 75.442,17.437 C75.994,17.6 76.39,17.871 76.632,18.252 C76.873,18.632 76.994,19.102 76.994,19.662 L76.994,20.348 C76.994,20.609 77.029,20.881 77.1,21.166 C77.17,21.45 77.29,21.66 77.462,21.797 L77.462,21.932 L75.532,21.932 C75.361,21.795 75.251,21.569 75.202,21.252 C75.1537833,20.9486918 75.1290432,20.6421151 75.128,20.335 L75.128,19.675 C75.128,19.209 75.001,18.847 74.747,18.588 C74.492,18.33 74.132,18.2 73.667,18.2 L72.179,18.2 Z M72.179,16.758 L73.506,16.758 C74.032,16.758 74.423,16.647 74.679,16.424 C74.936,16.202 75.064,15.873 75.064,15.437 C75.064,15.01 74.934,14.67 74.676,14.417 C74.417,14.165 74.038,14.039 73.538,14.039 L72.178,14.039 L72.178,16.758 L72.179,16.758 Z M82.623,21.932 C82.5531702,21.7694754 82.4943703,21.6024304 82.447,21.432 C82.3975153,21.255408 82.3620715,21.0751797 82.341,20.893 C82.1525441,21.2264346 81.8918361,21.5134525 81.578,21.733 C81.262,21.955 80.886,22.067 80.45,22.067 C79.723,22.067 79.163,21.88 78.77,21.506 C78.377,21.132 78.18,20.622 78.18,19.976 C78.18,19.296 78.442,18.77 78.965,18.396 C79.489,18.022 80.253,17.835 81.257,17.835 L82.309,17.835 L82.309,17.284 C82.309,16.95 82.221,16.692 82.046,16.508 C81.871,16.324 81.61,16.232 81.264,16.232 C80.96,16.232 80.726,16.306 80.562,16.453 C80.397,16.601 80.315,16.803 80.315,17.059 L78.513,17.059 L78.5,17.021 C78.47,16.435 78.726,15.93 79.267,15.504 C79.807,15.079 80.514,14.866 81.386,14.866 C82.219,14.866 82.893,15.076 83.409,15.495 C83.924,15.914 84.181,16.515 84.181,17.296 L84.181,20.162 C84.181,20.487 84.206,20.792 84.255,21.079 C84.304,21.366 84.382,21.649 84.489,21.932 L82.623,21.932 Z M80.911,20.682 C81.236,20.682 81.527,20.6 81.783,20.438 C82.04,20.276 82.215,20.088 82.309,19.874 L82.309,18.893 L81.257,18.893 C80.86,18.893 80.56,18.991 80.357,19.188 C80.1577793,19.3755206 80.0470135,19.6384529 80.052,19.912 C80.052,20.147 80.128,20.334 80.28,20.473 C80.431,20.613 80.642,20.682 80.911,20.682 Z M96.543,21.932 L94.67,21.932 L90.907,15.636 L90.868,15.642 L90.868,21.932 L88.996,21.932 L88.996,12.597 L90.868,12.597 L94.632,18.887 L94.67,18.88 L94.67,12.597 L96.543,12.597 L96.543,21.932 Z M97.844,18.521 C97.844,17.427 98.081,16.544 98.556,15.873 C99.03,15.202 99.697,14.866 100.556,14.866 C100.946,14.866 101.287,14.954 101.582,15.129 C101.877,15.305 102.129,15.555 102.339,15.879 L102.486,14.995 L104.096,14.995 L104.096,21.9 C104.096,22.802 103.8,23.5 103.211,23.993 C102.621,24.487 101.798,24.733 100.742,24.733 C100.392,24.733 100.02,24.686 99.626,24.589 C99.2490715,24.4988561 98.8834501,24.3666957 98.536,24.195 L98.851,22.797 C99.137,22.934 99.433,23.037 99.739,23.108 C100.063926,23.180677 100.396052,23.2162379 100.729,23.214 C101.242,23.214 101.619,23.107 101.861,22.894 C102.102,22.68 102.223,22.347 102.223,21.894 L102.223,21.265 C102.018,21.525 101.776,21.725 101.499,21.861 C101.200552,22.0026732 100.873309,22.0731878 100.543,22.067 C99.693,22.067 99.03,21.755 98.556,21.13 C98.081,20.506 97.844,19.681 97.844,18.656 L97.844,18.521 Z M99.716,18.656 C99.716,19.263 99.818,19.74 100.021,20.089 C100.224,20.437 100.556,20.611 101.018,20.611 C101.304,20.611 101.547,20.559 101.745,20.454 C101.944125,20.3491723 102.109762,20.1904658 102.223,19.996 L102.223,16.988 C102.11169,16.7828297 101.946396,16.6120026 101.745,16.494 C101.526644,16.373802 101.280157,16.314079 101.031,16.321 C100.573,16.321 100.24,16.524 100.031,16.93 C99.821,17.336 99.716,17.866 99.716,18.52 L99.716,18.655 L99.716,18.656 Z M105.243,18.399 C105.243,17.365 105.531,16.517 106.109,15.857 C106.686,15.197 107.485,14.867 108.506,14.867 C109.532,14.867 110.336,15.196 110.917,15.854 C111.498,16.512 111.789,17.36 111.789,18.399 L111.789,18.534 C111.789,19.577 111.499,20.426 110.92,21.082 C110.341,21.739 109.54,22.067 108.52,22.067 C107.493,22.067 106.69,21.739 106.112,21.082 C105.532,20.426 105.243,19.577 105.243,18.534 L105.243,18.399 Z M107.109,18.534 C107.109,19.166 107.219,19.674 107.442,20.057 C107.664,20.439 108.023,20.63 108.519,20.63 C109.002,20.63 109.356,20.438 109.58,20.053 C109.805,19.669 109.917,19.163 109.917,18.533 L109.917,18.399 C109.917,17.784 109.804,17.281 109.577,16.892 C109.351,16.503 108.994,16.309 108.507,16.309 C108.023,16.309 107.67,16.505 107.445,16.896 C107.221,17.286 107.109,17.788 107.109,18.399 L107.109,18.534 Z M117.034,21.932 C116.96383,21.7695006 116.904696,21.6024551 116.857,21.432 C116.807853,21.2553805 116.772744,21.0751526 116.752,20.893 C116.563544,21.2264346 116.302836,21.5134525 115.989,21.733 C115.672,21.955 115.296,22.067 114.86,22.067 C114.134,22.067 113.574,21.88 113.18,21.506 C112.787,21.132 112.59,20.622 112.59,19.976 C112.59,19.296 112.852,18.77 113.376,18.396 C113.9,18.022 114.664,17.835 115.668,17.835 L116.72,17.835 L116.72,17.284 C116.72,16.95 116.632,16.692 116.457,16.508 C116.281,16.324 116.021,16.232 115.675,16.232 C115.371,16.232 115.137,16.306 114.972,16.453 C114.808,16.601 114.726,16.803 114.726,17.059 L112.924,17.059 L112.911,17.021 C112.881,16.435 113.137,15.93 113.677,15.504 C114.218,15.079 114.924,14.866 115.797,14.866 C116.63,14.866 117.304,15.076 117.819,15.495 C118.334,15.914 118.592,16.515 118.592,17.296 L118.592,20.162 C118.592,20.487 118.616,20.792 118.665,21.079 C118.715,21.366 118.793,21.649 118.9,21.932 L117.034,21.932 Z M115.322,20.682 C115.647,20.682 115.937,20.6 116.194,20.438 C116.45,20.276 116.626,20.088 116.72,19.874 L116.72,18.893 L115.668,18.893 C115.271,18.893 114.97,18.991 114.768,19.188 C114.568779,19.3755206 114.458014,19.6384529 114.463,19.912 C114.463,20.147 114.539,20.334 114.69,20.473 C114.842,20.613 115.053,20.682 115.322,20.682 Z M116.623,13.738 L115.014,13.738 L113.27,12.071 L113.283,12.033 L115.367,12.033 L116.623,13.738 Z M121.964,21.932 L120.092,21.932 L120.092,14.995 L121.964,14.995 L121.964,21.932 Z M121.964,13.334 L120.092,13.334 L120.092,11.93 L121.964,11.93 L121.964,13.334 Z" id="Shape" fill="#020202" fill-rule="nonzero"></path>
            <path d="M19.868,66.355 L19.906,66.362 L24.002,58.809 L25.565,58.809 L24.175,68.097 L22.917,68.097 L23.957,61.143 L23.919,61.131 L20.066,68.097 L19.192,68.097 L17.374,60.901 L17.336,60.901 L16.257,68.097 L15.001,68.097 L16.391,58.809 L18.044,58.809 L19.868,66.355 Z M30.643,68.097 L30.713,67.108 C30.461086,67.4563628 30.1326778,67.7423516 29.753,67.944 C29.3731391,68.1382219 28.9515952,68.2367424 28.525,68.231 C27.797,68.231 27.253,67.987 26.892,67.501 C26.53,67.013 26.426,66.268 26.579,65.264 L27.185,61.194 L28.442,61.194 L27.829,65.277 C27.715,66.038 27.744,66.551 27.919,66.815 C28.093,67.078 28.414,67.21 28.882,67.21 C29.32,67.21 29.701,67.115 30.024,66.926 C30.347,66.737 30.611,66.47 30.814,66.126 L31.548,61.194 L32.805,61.194 L31.772,68.097 L30.642,68.097 L30.643,68.097 Z M28.913,70.247 L27.523,70.247 L27.715,68.971 L29.105,68.971 L28.914,70.247 L28.913,70.247 Z M36.473,67.248 C36.843,67.248 37.195,67.118 37.529,66.859 C37.863,66.599 38.059,66.285 38.119,65.915 L39.255,65.915 L39.267,65.953 C39.191,66.574 38.858,67.109 38.269,67.558 C37.68,68.006 37.033,68.231 36.327,68.231 C35.399,68.231 34.712,67.898 34.263,67.232 C33.814,66.567 33.663,65.749 33.807,64.78 L33.845,64.512 C33.998,63.504 34.385,62.678 35.006,62.033 C35.627,61.389 36.424,61.067 37.398,61.067 C38.143,61.067 38.732,61.307 39.165,61.787 C39.599,62.268 39.755,62.853 39.631,63.542 L39.618,63.574 L38.47,63.574 C38.534,63.136 38.453,62.774 38.228,62.486 C38.002,62.199 37.677,62.056 37.252,62.056 C36.66,62.056 36.18,62.299 35.81,62.786 C35.44,63.273 35.206,63.848 35.108,64.512 L35.07,64.78 C34.96,65.494 35.008,66.084 35.217,66.55 C35.425,67.016 35.844,67.248 36.473,67.248 Z M46.718,59.53 L46.47,61.194 L47.777,61.194 L47.637,62.126 L46.329,62.126 L45.704,66.317 C45.653,66.653 45.684,66.884 45.797,67.009 C45.909,67.135 46.078,67.197 46.304,67.197 C46.4668078,67.1899297 46.6277691,67.1596232 46.782,67.107 L46.827,67.969 C46.72,68.046 46.573,68.109 46.383,68.157 C46.194,68.207 46.01,68.231 45.832,68.231 C45.338,68.231 44.959,68.076 44.692,67.765 C44.427,67.455 44.345,66.972 44.447,66.317 L45.073,62.126 L43.975,62.126 L44.115,61.194 L45.213,61.194 L45.462,59.53 L46.718,59.53 Z M49.448,68.097 L48.192,68.097 L49.225,61.194 L50.482,61.194 L49.45,68.098 L49.448,68.097 Z M50.75,59.427 L49.493,59.427 L49.685,58.145 L50.941,58.145 L50.75,59.427 Z M54.22,68.231 C53.268,68.231 52.552,67.91 52.074,67.268 C51.595,66.625 51.433,65.796 51.586,64.78 L51.63,64.499 C51.78,63.469 52.184,62.64 52.846,62.011 C53.506,61.381 54.256,61.067 55.094,61.067 C55.984,61.067 56.624,61.358 57.014,61.941 C57.406,62.524 57.531,63.283 57.391,64.218 L57.295,64.882 L52.83,64.882 C52.732,65.613 52.804,66.191 53.047,66.614 C53.289,67.037 53.729,67.248 54.367,67.248 C54.7544194,67.2514862 55.1395998,67.188924 55.506,67.063 C55.856,66.94 56.16,66.774 56.415,66.566 L56.785,67.382 C56.505,67.621 56.149,67.822 55.719,67.985 C55.289,68.149 54.79,68.231 54.22,68.231 Z M54.948,62.056 C54.527,62.056 54.145,62.226 53.803,62.566 C53.46,62.906 53.215,63.336 53.066,63.855 L53.078,63.893 L56.185,63.893 L56.198,63.791 C56.274,63.276 56.215,62.858 56.019,62.537 C55.824,62.217 55.466,62.056 54.948,62.056 Z M57.123,59.772 L57.097,59.932 L56.07,59.932 L55.273,58.987 L54.201,59.931 L53.181,59.931 L53.206,59.766 L54.999,58.254 L55.764,58.254 L57.123,59.772 Z M62.686,68.097 L62.756,67.108 C62.504086,67.4563628 62.1756778,67.7423516 61.796,67.944 C61.4161391,68.1382219 60.9945952,68.2367424 60.568,68.231 C59.84,68.231 59.296,67.987 58.935,67.501 C58.573,67.013 58.469,66.268 58.622,65.264 L59.228,61.194 L60.485,61.194 L59.872,65.277 C59.758,66.038 59.787,66.551 59.962,66.815 C60.136,67.078 60.457,67.21 60.925,67.21 C61.363,67.21 61.744,67.115 62.067,66.926 C62.39,66.737 62.654,66.47 62.857,66.126 L63.591,61.194 L64.848,61.194 L63.815,68.097 L62.685,68.097 L62.686,68.097 Z M71.763,67.248 C72.133,67.248 72.485,67.118 72.819,66.859 C73.153,66.599 73.349,66.285 73.409,65.915 L74.545,65.915 L74.557,65.953 C74.481,66.574 74.148,67.109 73.559,67.558 C72.97,68.006 72.323,68.231 71.617,68.231 C70.689,68.231 70.002,67.898 69.553,67.232 C69.104,66.567 68.953,65.749 69.097,64.78 L69.135,64.512 C69.288,63.504 69.675,62.678 70.296,62.033 C70.917,61.389 71.714,61.067 72.688,61.067 C73.433,61.067 74.022,61.307 74.455,61.787 C74.889,62.268 75.045,62.853 74.921,63.542 L74.908,63.574 L73.76,63.574 C73.824,63.136 73.743,62.774 73.518,62.486 C73.292,62.199 72.967,62.056 72.542,62.056 C71.95,62.056 71.47,62.299 71.1,62.786 C70.73,63.273 70.496,63.848 70.398,64.512 L70.36,64.78 C70.25,65.494 70.298,66.084 70.507,66.55 C70.715,67.016 71.134,67.248 71.763,67.248 Z M79.973,68.097 C79.965,67.859 79.961,67.667 79.961,67.52 C79.961,67.373 79.969,67.223 79.986,67.07 C79.6906892,67.4056619 79.3373945,67.6854523 78.943,67.896 C78.533,68.119 78.113,68.231 77.683,68.231 C76.99,68.231 76.476,68.045 76.143,67.673 C75.809,67.3 75.691,66.795 75.789,66.158 C75.8675682,65.5067763 76.2445343,64.9291313 76.809,64.595 C77.392,64.233 78.147,64.052 79.074,64.052 L80.439,64.052 L80.541,63.37 C80.605,62.949 80.531,62.625 80.321,62.397 C80.111,62.169 79.778,62.056 79.323,62.056 C78.936,62.056 78.595,62.158 78.302,62.362 C78.009,62.566 77.842,62.811 77.804,63.096 L76.605,63.108 L76.599,63.07 C76.649,62.547 76.954,62.082 77.511,61.676 C78.068,61.27 78.744,61.066 79.54,61.066 C80.292,61.066 80.883,61.268 81.313,61.67 C81.743,62.072 81.904,62.643 81.798,63.383 L81.3,66.706 C81.258,66.966 81.233,67.206 81.227,67.43 C81.221,67.653 81.234,67.876 81.268,68.097 L79.973,68.097 Z M78.028,67.178 C78.462,67.178 78.883,67.059 79.291,66.821 C79.699,66.583 79.981,66.315 80.139,66.017 L80.311,64.901 L78.901,64.901 C78.413,64.901 77.991,65.031 77.639,65.29 C77.286,65.55 77.086,65.847 77.039,66.183 C76.988,66.502 77.044,66.748 77.208,66.92 C77.372,67.092 77.645,67.178 78.028,67.178 Z M83.15,64.582 C83.308,63.522 83.708,62.672 84.353,62.03 C84.997,61.388 85.798,61.067 86.755,61.067 C87.673,61.067 88.37,61.4 88.844,62.065 C89.318,62.731 89.481,63.57 89.332,64.582 L89.306,64.722 C89.145,65.79 88.743,66.642 88.101,67.277 C87.458,67.913 86.657,68.231 85.696,68.231 C84.777,68.231 84.081,67.899 83.606,67.236 C83.132,66.572 82.972,65.734 83.125,64.722 L83.15,64.582 Z M84.381,64.722 C84.267,65.479 84.328,66.089 84.566,66.553 C84.805,67.017 85.23,67.248 85.842,67.248 C86.416,67.248 86.9,67.008 87.294,66.524 C87.687,66.042 87.939,65.441 88.05,64.722 L88.075,64.582 C88.185,63.833 88.121,63.225 87.88,62.757 C87.64,62.29 87.216,62.056 86.608,62.056 C86.029,62.056 85.544,62.299 85.15,62.786 C84.757,63.273 84.509,63.872 84.407,64.582 L84.381,64.722 Z M19.894,170.17 L19.932,170.176 L24.05,162.583 L25.62,162.583 L24.223,171.921 L22.959,171.921 L24.005,164.931 L23.966,164.918 L20.093,171.921 L19.214,171.921 L17.386,164.687 L17.348,164.687 L16.264,171.921 L15.001,171.921 L16.399,162.583 L18.059,162.583 L19.894,170.17 Z M30.726,171.92 L30.796,170.927 C30.5427242,171.27704 30.2126107,171.564392 29.831,171.767 C29.461,171.959 29.05,172.056 28.597,172.056 C27.866,172.056 27.318,171.811 26.955,171.321 C26.591,170.831 26.487,170.082 26.641,169.073 L27.25,164.982 L28.513,164.982 L27.898,169.086 C27.782,169.852 27.812,170.366 27.988,170.632 C28.163,170.897 28.485,171.029 28.956,171.029 C29.396,171.029 29.779,170.934 30.104,170.744 C30.429,170.554 30.694,170.286 30.899,169.939 L31.636,164.982 L32.9,164.982 L31.86,171.921 L30.726,171.921 L30.726,171.92 Z M28.988,174.082 L27.59,174.082 L27.782,172.799 L29.18,172.799 L28.988,174.082 Z M36.588,171.068 C36.959,171.068 37.313,170.938 37.648,170.677 C37.984,170.416 38.182,170.1 38.242,169.727 L39.384,169.727 L39.396,169.766 C39.319,170.39 38.985,170.928 38.393,171.379 C37.801,171.83 37.15,172.056 36.44,172.056 C35.508,172.056 34.816,171.721 34.365,171.052 C33.915,170.382 33.761,169.561 33.907,168.586 L33.945,168.316 C34.099,167.303 34.488,166.473 35.112,165.826 C35.737,165.177 36.538,164.854 37.517,164.854 C38.266,164.854 38.857,165.095 39.294,165.578 C39.73,166.061 39.886,166.649 39.762,167.342 L39.749,167.374 L38.595,167.374 C38.659,166.934 38.578,166.569 38.351,166.28 C38.124,165.992 37.797,165.848 37.37,165.848 C36.776,165.848 36.292,166.092 35.92,166.582 C35.548,167.072 35.313,167.65 35.215,168.317 L35.177,168.586 C35.065,169.304 35.115,169.898 35.324,170.366 C35.534,170.834 35.954,171.068 36.587,171.068 L36.588,171.068 Z M46.887,163.308 L46.637,164.982 L47.952,164.982 L47.81,165.918 L46.496,165.918 L45.867,170.132 C45.816,170.469 45.847,170.702 45.96,170.827 C46.074,170.954 46.243,171.017 46.47,171.017 C46.539,171.017 46.62,171.007 46.717,170.987 C46.813,170.969 46.891,170.948 46.951,170.927 L46.996,171.793 C46.889,171.87 46.741,171.933 46.55,171.982 C46.36,172.031 46.175,172.056 45.996,172.056 C45.5,172.056 45.118,171.899 44.851,171.587 C44.584,171.275 44.501,170.79 44.604,170.132 L45.232,165.918 L44.13,165.918 L44.271,164.982 L45.374,164.982 L45.624,163.308 L46.888,163.308 L46.887,163.308 Z M49.632,171.921 L48.368,171.921 L49.408,164.981 L50.67,164.981 L49.63,171.921 L49.632,171.921 Z M50.94,163.205 L49.677,163.205 L49.869,161.916 L51.132,161.916 L50.94,163.206 L50.94,163.205 Z M54.429,172.055 C53.471,172.055 52.752,171.733 52.271,171.087 C51.79,170.442 51.626,169.607 51.781,168.586 L51.825,168.304 C51.975,167.269 52.382,166.435 53.047,165.803 C53.712,165.17 54.465,164.853 55.307,164.853 C56.201,164.853 56.844,165.146 57.237,165.733 C57.631,166.318 57.757,167.081 57.617,168.022 L57.52,168.689 L53.03,168.689 C52.932,169.424 53.005,170.004 53.249,170.429 C53.493,170.855 53.935,171.068 54.576,171.068 C54.986,171.068 55.368,171.006 55.721,170.882 C56.074,170.758 56.378,170.592 56.635,170.382 L57.007,171.202 C56.6869419,171.463512 56.3247922,171.668764 55.936,171.809 C55.504,171.973 55.002,172.056 54.429,172.056 L54.429,172.055 Z M55.159,165.848 C54.737,165.848 54.353,166.018 54.009,166.361 C53.654134,166.721298 53.3988164,167.167501 53.268,167.656 L53.281,167.695 L56.404,167.695 L56.417,167.592 C56.494,167.075 56.434,166.655 56.237,166.332 C56.041,166.009 55.682,165.848 55.16,165.848 L55.159,165.848 Z M57.347,163.552 L57.321,163.712 L56.29,163.712 L55.488,162.762 L54.411,163.712 L53.384,163.712 L53.41,163.545 L55.212,162.025 L55.982,162.025 L57.348,163.552 L57.347,163.552 Z M62.939,171.921 L63.009,170.927 C62.7557242,171.27704 62.4256107,171.564392 62.044,171.767 C61.674,171.959 61.264,172.056 60.81,172.056 C60.079,172.056 59.532,171.811 59.168,171.321 C58.805,170.831 58.7,170.082 58.854,169.073 L59.464,164.982 L60.727,164.982 L60.111,169.086 C59.995,169.852 60.025,170.366 60.201,170.632 C60.376,170.897 60.699,171.029 61.169,171.029 C61.609,171.029 61.992,170.934 62.317,170.744 C62.642,170.554 62.907,170.286 63.112,169.939 L63.85,164.982 L65.113,164.982 L64.074,171.921 L62.94,171.921 L62.939,171.921 Z M72.225,163.308 L71.975,164.982 L73.29,164.982 L73.149,165.918 L71.834,165.918 L71.206,170.132 C71.154,170.469 71.186,170.702 71.299,170.827 C71.412,170.954 71.582,171.017 71.809,171.017 C71.877,171.017 71.959,171.007 72.055,170.987 C72.152,170.969 72.23,170.948 72.289,170.927 L72.334,171.793 C72.227,171.87 72.079,171.933 71.889,171.982 C71.699,172.031 71.513,172.056 71.334,172.056 C70.838,172.056 70.456,171.899 70.189,171.587 C69.922,171.275 69.839,170.79 69.942,170.132 L70.571,165.918 L69.468,165.918 L69.608,164.982 L70.712,164.982 L70.962,163.308 L72.225,163.308 Z M75.772,165.873 C76.062,165.548 76.394,165.297 76.766,165.12 C77.1408082,164.941933 77.5510542,164.850995 77.966,164.854 C78.679,164.854 79.215,165.078 79.572,165.527 C79.929,165.976 80.041,166.657 79.908,167.573 L79.254,171.921 L77.991,171.921 L78.645,167.56 C78.735,166.97 78.677,166.542 78.472,166.277 C78.267,166.012 77.918,165.88 77.426,165.88 C77.0781855,165.876298 76.73445,165.955121 76.423,166.11 C76.118246,166.262954 75.8516981,166.482343 75.643,166.752 L74.868,171.921 L73.604,171.921 L75.104,161.916 L76.368,161.916 L75.772,165.873 Z M85.334,171.921 C85.325,171.681 85.321,171.488 85.321,171.341 C85.321,171.193 85.33,171.042 85.347,170.888 C85.06,171.218 84.711,171.494 84.298,171.718 C83.9114407,171.936079 83.4758169,172.052383 83.032,172.056 C82.335,172.056 81.818,171.868 81.482,171.494 C81.147,171.12 81.028,170.613 81.127,169.971 C81.2061744,169.316307 81.5853689,168.735688 82.153,168.4 C82.739,168.037 83.498,167.855 84.43,167.855 L85.802,167.855 L85.905,167.169 C85.969,166.745 85.895,166.419 85.683,166.191 C85.472,165.962 85.137,165.848 84.68,165.848 C84.29,165.848 83.949,165.95 83.654,166.155 C83.359,166.361 83.192,166.606 83.154,166.893 L81.948,166.906 L81.941,166.867 C81.993,166.341 82.298,165.874 82.858,165.466 C83.418,165.058 84.098,164.854 84.898,164.854 C85.655,164.854 86.248,165.056 86.681,165.46 C87.112,165.864 87.275,166.438 87.168,167.182 L86.668,170.522 C86.625,170.784 86.6,171.026 86.594,171.251 C86.588,171.475 86.602,171.699 86.636,171.921 L85.334,171.921 Z M83.378,170.997 C83.814,170.997 84.238,170.877 84.648,170.638 C85.058,170.398 85.342,170.129 85.501,169.83 L85.674,168.708 L84.256,168.708 C83.765,168.708 83.342,168.838 82.986,169.099 C82.632,169.359 82.431,169.659 82.384,169.997 C82.332,170.317 82.389,170.564 82.554,170.737 C82.718,170.911 82.994,170.997 83.378,170.997 Z M84.641,162.057 L85.655,162.057 L87.258,163.706 L87.238,163.744 L85.968,163.744 L85.045,162.737 L83.827,163.744 L82.557,163.744 L82.544,163.706 L84.641,162.057 Z M88.124,160.947 L89.425,160.947 L89.445,160.987 L87.918,162.615 L86.976,162.615 L88.124,160.948 L88.124,160.947 Z" id="Shape" fill="#6D6E71" fill-rule="nonzero"></path>
            <g id="Group" transform="translate(19.770000, 129.758000)" fill="#2A3052" fill-rule="nonzero">
                <path d="M11.567,9.22 C11.537,9.074 11.537,8.957 11.537,8.81 C11.3252509,9.10436003 11.0566215,9.35326731 10.747,9.542 C10.4317257,9.74029034 10.065379,9.84213057 9.693,9.835 C9.079,9.835 8.61,9.688 8.288,9.337 C7.94865783,8.98471661 7.76865029,8.50867258 7.79,8.02 C7.79,7.434 8.025,6.995 8.493,6.673 C8.962,6.351 9.576,6.175 10.367,6.175 L11.537,6.175 L11.537,5.59 C11.537,5.238 11.421,4.946 11.216,4.74 C11.011,4.536 10.689,4.419 10.308,4.419 C9.957,4.419 9.664,4.506 9.459,4.682 C9.26296619,4.83950085 9.14538039,5.07467245 9.137,5.326 L8.112,5.326 L8.112,5.296 C8.083,4.858 8.288,4.448 8.727,4.096 C9.167,3.746 9.723,3.54 10.397,3.54 C11.069,3.54 11.626,3.716 12.036,4.067 C12.446,4.419 12.65,4.917 12.65,5.56 L12.65,8.459 C12.65,8.664 12.65,8.869 12.68,9.074 C12.709,9.279 12.738,9.484 12.797,9.659 L11.655,9.659 L11.655,9.718 C11.625,9.542 11.596,9.366 11.567,9.22 Z M9.795,8.869 C10.175,8.869 10.556,8.781 10.849,8.576 C11.171,8.371 11.376,8.136 11.464,7.873 L11.464,6.907 L10.264,6.907 C9.824,6.907 9.473,7.024 9.21,7.229 C8.96592392,7.41783929 8.82481407,7.71042928 8.829,8.019 C8.829,8.283 8.917,8.489 9.063,8.664 C9.239,8.781 9.473,8.869 9.795,8.869 Z M15.98,1.965 L15.98,3.499 L17.176,3.499 L17.176,4.358 L15.98,4.358 L15.98,8.192 C15.98,8.499 16.04,8.682 16.164,8.806 C16.286,8.928 16.44,8.99 16.654,8.99 C16.716,8.99 16.777,8.99 16.869,8.959 C16.961,8.959 17.023,8.929 17.084,8.898 L17.237,9.695 C17.1208409,9.7685663 16.9975485,9.83021247 16.869,9.879 C16.716,9.909 16.532,9.941 16.379,9.941 C15.9673035,9.95515136 15.5678428,9.7997051 15.274,9.511 C14.998,9.235 14.875,8.775 14.875,8.192 L14.875,4.358 L13.894,4.358 L13.894,3.498 L14.875,3.498 L14.875,1.965 L15.98,1.965 Z" id="Shape"></path>
                <path d="M0.582,9.835 L0.582,1.458 L3.257,1.458 C4.665,1.458 6.143,2.213 6.143,3.499 C6.143,4.786 5.343,5.087 4.928,5.341 C6.078,5.641 6.652,6.371 6.652,7.535 C6.652,9.281 5.167,9.835 3.952,9.835 L0.582,9.835 Z M1.737,4.997 L3.344,4.997 C4.323,4.997 4.951,4.535 4.951,3.535 C4.951,2.535 3.971,2.421 3.293,2.421 L1.737,2.421 L1.737,4.997 Z M1.739,5.91 L1.739,8.92 L4.021,8.92 C4.694,8.92 5.553,8.453 5.553,7.415 C5.553,6.377 4.7,5.91 4.021,5.91 L1.739,5.91 Z" id="Shape" stroke="#979797" stroke-width="0.5"></path>
                <path d="M11.109,1.393 C11.585,1.407 11.584,1.415 11.897,1.381 C11.897,1.885 11.511,2.561 10.334,2.561 C9.157,2.561 8.506,2.031 8.506,1.381 L9.366,1.393 C9.366,1.818 9.689,2.031 10.334,2.031 C11.019,1.962 10.982,1.823 11.109,1.393 Z M9.914,1.23 L10.493,1.23 L11.388,0.184 L10.493,0.184 L9.914,1.23 Z" id="Shape"></path>
                <g id="Shape" transform="translate(19.000000, 0.000000)">
                    <path d="M11.071,9.313 C11.041,9.163 11.041,9.043 11.041,8.893 C10.831,9.193 10.561,9.433 10.231,9.643 C9.901,9.853 9.54,9.943 9.15,9.943 C8.52,9.943 8.039,9.793 7.709,9.433 C7.36109732,9.07155108 7.17673991,8.58318468 7.199,8.082 C7.199,7.482 7.439,7.032 7.919,6.701 C8.399,6.371 9.029,6.191 9.84,6.191 L11.04,6.191 L11.04,5.591 C11.04,5.231 10.92,4.93 10.71,4.72 C10.5,4.51 10.17,4.39 9.78,4.39 C9.42,4.39 9.12,4.48 8.91,4.66 C8.7,4.84 8.58,5.08 8.58,5.32 L7.529,5.32 L7.529,5.29 C7.499,4.84 7.709,4.42 8.159,4.06 C8.609,3.7 9.179,3.489 9.87,3.489 C10.56,3.489 11.131,3.669 11.551,4.029 C11.971,4.389 12.181,4.899 12.181,5.56 L12.181,8.532 C12.181,8.742 12.181,8.952 12.211,9.162 C12.241,9.372 12.271,9.582 12.331,9.762 L11.161,9.762 L11.161,9.823 C11.131,9.643 11.101,9.463 11.071,9.313 Z M9.254,8.953 C9.644,8.953 10.034,8.863 10.334,8.653 C10.664,8.443 10.874,8.202 10.965,7.932 L10.965,6.942 L9.735,6.942 C9.284,6.942 8.924,7.062 8.654,7.272 C8.384,7.482 8.264,7.782 8.264,8.082 C8.264,8.352 8.354,8.562 8.504,8.742 C8.684,8.862 8.924,8.952 9.254,8.952 L9.254,8.953 Z M0.59,6.734 C0.59,5.764 0.796,4.97 1.208,4.381 C1.62,3.793 2.208,3.499 2.943,3.499 C3.296,3.499 3.62,3.558 3.884,3.705 C4.149,3.823 4.384,4.028 4.59,4.264 L4.59,0.941 L5.678,0.941 L5.678,9.675 L4.796,9.675 L4.678,8.94 C4.49596832,9.20744882 4.25427913,9.42894019 3.972,9.587 C3.65972147,9.73400301 3.31695347,9.80461322 2.972,9.793 C2.237,9.793 1.679,9.528 1.267,8.999 C0.855,8.469 0.649,7.763 0.649,6.881 L0.649,6.734 L0.59,6.734 Z M1.664,6.853 C1.664,7.471 1.781,7.971 2.046,8.323 C2.311,8.676 2.664,8.883 3.193,8.883 C3.517,8.883 3.781,8.794 4.017,8.647 C4.25225619,8.49979726 4.43684952,8.28414759 4.546,8.029 L4.546,5.206 C4.41553323,4.96358729 4.22250993,4.76055026 3.987,4.618 C3.75008423,4.46571484 3.47463529,4.38419028 3.193,4.383 C2.663,4.383 2.281,4.588 2.046,5.03 C1.811,5.47 1.664,6.03 1.664,6.735 L1.664,6.853 Z M17.778,3.631 L18.868,3.631 L18.868,9.801 L17.778,9.801 L17.778,8.885 C17.432,9.332 16.862,10.051 15.718,9.93 C14.573,9.808 13.865,8.91 13.86,7.921 C13.855,6.931 13.865,3.296 13.86,3.631 L14.94,3.631 L14.94,5.969 C14.94,8.703 15.542,9.005 16.364,9.005 C17.186,9.005 17.589,8.311 17.778,8.079 C17.768,6.779 17.768,5.297 17.778,3.631 Z"></path>
                    <path d="M6.787,1.908 L6.787,2.721 L3.16,2.721 L3.16,1.908 L6.787,1.908 Z M7.948,1.562 L7.163,1.562 L6.024,0.12 L7.163,0.12 L7.948,1.562 Z M8.776,2.608 L7.656,2.608 L9.261,1.094 L10.148,1.094 L11.831,2.608 L10.654,2.608 L9.744,1.72 L8.776,2.608 Z"></path>
                </g>
            </g>
            <g id="Group" transform="translate(262.770000, 63.758000)" fill="#2A3052" fill-rule="nonzero">
                <path d="M15.943,1.477 L15.943,2.59 L16.811,2.59 L16.811,3.213 L15.943,3.213 L15.943,5.994 C15.943,6.217 15.988,6.35 16.077,6.439 C16.1714823,6.5318366 16.3007526,6.5804945 16.433,6.573 C16.477,6.573 16.522,6.573 16.589,6.551 C16.6436491,6.54940199 16.6969915,6.5339155 16.744,6.506 L16.856,7.085 C16.7716995,7.13820011 16.6822465,7.18275909 16.589,7.218 C16.4719706,7.24392087 16.3527984,7.25898477 16.233,7.263 C15.9345329,7.27312046 15.6449852,7.16033782 15.432,6.951 C15.232,6.751 15.142,6.417 15.142,5.994 L15.142,3.213 L14.43,3.213 L14.43,2.59 L15.142,2.59 L15.142,1.477 L15.943,1.477 Z M25.407,2.661 L26.202,2.661 L26.202,7.159 L25.407,7.159 L25.407,6.492 C25.155,6.818 24.739,7.342 23.904,7.254 C23.07,7.165 22.554,6.511 22.55,5.789 C22.546,5.067 22.554,2.417 22.55,2.661 L23.338,2.661 L23.338,4.365 C23.338,6.359 23.776,6.58 24.376,6.58 C24.976,6.58 25.269,6.073 25.407,5.904 C25.4,4.957 25.4,3.876 25.407,2.661 Z M30.203,4.136 C30.498,4.128 30.775,4.136 30.953,4.136 C30.953,2.816 29.906,2.467 29.065,2.467 C28.223,2.467 27.176,3.231 27.176,4.868 C27.176,6.506 28.095,7.303 29.235,7.262 C30.375,7.221 30.953,6.354 30.953,5.716 C30.62,5.724 30.536,5.724 30.203,5.716 C30.203,6.319 29.66,6.636 29.235,6.636 C28.217,6.636 27.986,5.648 27.986,4.863 C27.986,4.077 28.246,3.108 29.156,3.108 C29.926,3.108 30.203,3.706 30.203,4.136 Z M11.519,1.606 L11.519,2.691 L12.365,2.691 L12.365,3.299 L11.519,3.299 L11.519,6.012 C11.519,6.229 11.562,6.36 11.649,6.446 C11.736,6.533 11.844,6.576 11.996,6.576 C12.04,6.576 12.083,6.576 12.148,6.555 C12.2015921,6.55354991 12.2539204,6.53840225 12.3,6.511 L12.409,7.076 C12.3269234,7.12796265 12.2398161,7.1715163 12.149,7.206 C12.0345734,7.23102952 11.9180775,7.24542414 11.801,7.249 C11.51,7.259 11.227,7.149 11.019,6.946 C10.824,6.75 10.737,6.425 10.737,6.012 L10.737,3.3 L10.043,3.3 L10.043,2.692 L10.737,2.692 L10.737,1.607 L11.519,1.607 L11.519,1.606 Z M9.548,5.07 L6.672,5.07 C6.672,5.604 6.782,5.99 6.999,6.228 C7.286,6.541 7.587,6.654 8.001,6.613 C8.723,6.541 8.862,6.347 9.161,6.176 L9.466,6.699 C9.11,7.066 8.541,7.25 7.758,7.25 C6.584,7.25 5.869,6.278 5.822,5.12 C5.776,3.962 6.238,2.618 7.758,2.562 C9.047,2.596 9.644,3.432 9.548,5.07 Z M8.741,4.433 C8.733,3.619 8.405,3.211 7.759,3.211 C7.113,3.211 6.759,3.619 6.699,4.433 L8.741,4.433 Z M0.905,1.118 L1.713,1.118 L1.713,3.801 L2.2,3.801 L4.436,1.118 L5.356,1.118 L2.904,4.001 L5.528,7.172 L4.522,7.172 L2.282,4.462 L1.712,4.462 L1.712,7.172 L0.905,7.172 L0.905,1.118 Z M6.855,1.824 L6.033,1.824 L7.213,0.721 L7.843,0.721 L9.086,1.824 L8.212,1.824 L7.56,1.156 L6.855,1.824 Z M9.379,0.029 L8.821,1.118 L9.379,1.118 L10.243,0.028 L9.379,0.029 Z M17.725,0.774 L17.725,7.264 L18.52,7.264 L18.52,3.934 C18.626,3.586 18.955,3.396 19.506,3.364 C20.333,3.317 20.544,3.878 20.544,4.27 L20.544,7.263 L21.381,7.263 C21.3629147,6.19539797 21.3495813,5.12772072 21.341,4.06 C21.341,3.568 20.863,2.559 19.594,2.729 C18.722,2.955 18.786,3.121 18.52,3.365 C18.502,3.176 18.502,2.329 18.52,0.821 L17.725,0.774 Z M24.756,1.132 L24.154,1.132 L24.925,0.029 L25.876,0.029 L24.756,1.132 Z" id="Shape"></path>
            </g>
            <path d="M175.114,165.72 L172.611,165.72 L172.611,157.65 L175.114,157.65 L175.114,165.72 Z M175.114,169.965 L172.611,169.965 L172.611,167.797 L175.114,167.797 L175.114,169.965 Z M150.656,160.365 L152.658,160.365 L152.758,161.823 C153.578,160.6 154.642,160.056 155.948,160.192 C156.706,160.27 158.302,160.518 158.778,162.667 C158.952,163.456 158.915,164.787 158.902,166.597 C158.896743,167.812994 158.896743,169.029006 158.902,170.245 L156.706,170.245 L156.706,164.055 C156.706,163.328 156.502,162.515 155.892,162.208 C155.053,161.785 153.474,161.963 152.84,163.028 L152.84,170.245 L150.656,170.245 L150.656,160.365 Z M142.895,163.178 C142.217,163.174 141.507,163.174 140.765,163.178 C140.765,162.11 141.529,160.171 144.589,160.171 C147.649,160.171 148.383,162.274 148.466,162.726 C148.549,163.178 148.253,169.524 148.893,170.246 L146.62,170.248 C146.432,169.606 146.338,169.131 146.338,168.823 C145.983,169.256 145.374,170.047 144.436,170.338 C143.499,170.628 141.371,170.784 140.499,168.742 C139.924,167.395 140.291,165.881 141.371,165.187 C143.155,164.041 145.607,164.424 146.338,164.424 C146.433,162.38 145.822,161.904 144.436,161.904 C143.513,161.904 142.999,162.329 142.895,163.178 Z M146.337,165.822 C145.58898,165.805571 144.840634,165.811907 144.093,165.841 C143.201,165.919 142.406,166.579 142.473,167.519 C142.554,168.639 143.829,168.845 144.826,168.522 C145.663,168.251 146.246,167.55 146.337,167.252 L146.337,165.822 Z M167.918,161.252 L168.14,159.995 L169.955,159.995 L169.955,170.05 C169.961,173.554 166.027,174.896 162.411,173.146 C162.618,172.112 162.732,171.534 162.753,171.412 C164.328,171.938 168.248,173.255 167.749,168.892 C165.499,171.198 162.951,169.801 162.071,168.262 C161.098,166.562 160.465,161.492 163.594,160.125 C165.396,159.337 166.837,159.713 167.918,161.252 Z M167.728,162.784 C167.301,162.137 167.027,161.596 165.588,161.596 C164.151,161.596 163.251,163.36 163.563,166.069 C163.875,168.777 166.815,168.777 167.729,167.064 L167.729,162.784 L167.728,162.784 Z M130.144,155.98 L132.256,155.98 C132.296,159.442 132.315,161.328 132.315,161.639 C132.83,160.839 134.323,159.749 135.915,160.243 C138.444,161.025 138.329,162.674 138.444,163.781 C138.52,164.519 138.52,166.673 138.444,170.245 L136.254,170.245 C136.313,167.296 136.313,165.202 136.254,163.961 C136.333,161.811 133.659,161.164 132.256,163.085 L132.315,170.245 L130.145,170.245 L130.145,155.98 L130.144,155.98 Z M128.755,156.903 L128.755,158.581 L124.631,158.581 L124.631,170.145 L122.342,170.145 L122.342,158.581 L118.474,158.581 L118.474,156.903 L128.755,156.903 Z M145.854,156.77 L147.5,156.77 C147.42,157.556 146.869,158.812 144.596,158.812 C142.324,158.812 141.532,157.386 141.706,156.77 L143.316,156.747 C143.446,157.385 143.876,157.704 144.604,157.704 C145.333,157.704 145.749,157.392 145.854,156.77 Z M143.998,156.448 L145.182,156.448 L146.623,154.724 L145.031,154.724 L143.998,156.448 Z" id="Shape" fill="#FFFFFF" fill-rule="nonzero"></path>
        </g>
    </g>
</svg>