<svg width="301" height="200" viewBox="0 0 301 200" xmlns="http://www.w3.org/2000/svg"><title>vietnamese end bet</title><g fill="none" fill-rule="evenodd"><path fill="#F1F2F2" fill-rule="nonzero" d="M.558.85h300v199h-300z"/><path d="M39.683 56.225V75.6h36.125V56.225H39.683zm0-1h36.125V34.85h1v20.375h36.125V34.85h1v20.375h36.125V34.85h1v20.375h36.125V34.85h1v20.375h36.125V34.85h1v20.375h36.125V34.85h1v20.375h37.625v1h-37.625V75.6h37.625v1h-37.625v19.375h37.625v1h-37.625v19.375h37.625v1h-37.625v19.375h37.625v1h-37.625V157.1h37.625v1h-37.625v19.375h37.625v1h-37.625v21.375h-1v-21.375h-36.125v21.375h-1v-21.375h-36.125v21.375h-1v-21.375h-36.125v21.375h-1v-21.375h-36.125v21.375h-1v-21.375H76.808v21.375h-1v-21.375H39.683v21.375h-1v-21.375H2.058v-1h36.625V158.1H2.058v-1h36.625v-19.375H2.058v-1h36.625V117.35H2.058v-1h36.625V96.975H2.058v-1h36.625V76.6H2.058v-1h36.625V56.225H2.058v-1h36.625V34.85h1v20.375zm221.75 1h-36.125V75.6h36.125V56.225zm-37.125 0h-36.125V75.6h36.125V56.225zm-37.125 0h-36.125V75.6h36.125V56.225zm-37.125 0h-36.125V75.6h36.125V56.225zm-37.125 0H76.808V75.6h36.125V56.225zM39.683 76.6v19.375h36.125V76.6H39.683zm221.75 0h-36.125v19.375h36.125V76.6zm-37.125 0h-36.125v19.375h36.125V76.6zm-37.125 0h-36.125v19.375h36.125V76.6zm-37.125 0h-36.125v19.375h36.125V76.6zm-37.125 0H76.808v19.375h36.125V76.6zm-73.25 20.375v19.375h36.125V96.975H39.683zm221.75 0h-36.125v19.375h36.125V96.975zm-37.125 0h-36.125v19.375h36.125V96.975zm-37.125 0h-36.125v19.375h36.125V96.975zm-37.125 0h-36.125v19.375h36.125V96.975zm-37.125 0H76.808v19.375h36.125V96.975zm-73.25 20.375v19.375h36.125V117.35H39.683zm221.75 0h-36.125v19.375h36.125V117.35zm-37.125 0h-36.125v19.375h36.125V117.35zm-37.125 0h-36.125v19.375h36.125V117.35zm-37.125 0h-36.125v19.375h36.125V117.35zm-37.125 0H76.808v19.375h36.125V117.35zm-73.25 20.375V157.1h36.125v-19.375H39.683zm221.75 0h-36.125V157.1h36.125v-19.375zm-37.125 0h-36.125V157.1h36.125v-19.375zm-37.125 0h-36.125V157.1h36.125v-19.375zm-37.125 0h-36.125V157.1h36.125v-19.375zm-37.125 0H76.808V157.1h36.125v-19.375zM39.683 158.1v19.375h36.125V158.1H39.683zm221.75 0h-36.125v19.375h36.125V158.1zm-37.125 0h-36.125v19.375h36.125V158.1zm-37.125 0h-36.125v19.375h36.125V158.1zm-37.125 0h-36.125v19.375h36.125V158.1zm-37.125 0H76.808v19.375h36.125V158.1z" fill="#DFDEDE" fill-rule="nonzero"/><path stroke="#C2C2C2" stroke-width="2" d="M1.558 1.85h298v197h-298z"/><path fill="#C2C2C2" fill-rule="nonzero" d="M.558 33.85h300v2h-300z"/><g transform="translate(4.558 35.05)"><path d="M256.613.725V161M.9 41.412h290.625M.9 122.75h290.625" stroke="#2A3052" stroke-width="1.211" stroke-linejoin="round"/><path stroke="#2A3052" stroke-width="3.633" stroke-linecap="round" stroke-linejoin="round" d="M36 82.063l41.625-20.326 39.713 24.188 28.875-28.5 36.862 31.35 36.75-27.038 36.788 9.976"/><path d="M184.613 113H149.55l-5.4-8.213-5.4 8.213h-35.063a4.747 4.747 0 0 0-4.724 4.8v24.788a4.77 4.77 0 0 0 4.725 4.8h80.962a4.747 4.747 0 0 0 4.725-4.8V117.8a4.777 4.777 0 0 0-4.762-4.8z" fill="#E88024" fill-rule="nonzero"/><ellipse cx="8.363" cy="8.6" rx="8.137" ry="8.475" opacity=".6" transform="translate(248.25 64.5)" fill="#FFF" fill-rule="nonzero"/><ellipse stroke="#E88024" stroke-width="2.422" cx="256.613" cy="73.1" rx="8.137" ry="8.475"/><ellipse cx="9" cy="9.063" rx="8.137" ry="8.475" opacity=".6" transform="translate(27 73)" fill="#FFF" fill-rule="nonzero"/><ellipse stroke="#E88024" stroke-width="2.422" cx="36" cy="82.063" rx="8.137" ry="8.475"/></g><path d="M19.643 19.431h-.694v3.942h-1.893v-9.439h1.893v3.857h.532l2.586-3.857h2.34l-3.267 4.389 3.52 5.05H22.25l-2.606-3.942zm8.602 4.078c-1.046 0-1.862-.321-2.45-.963-.588-.642-.882-1.468-.882-2.48v-.259c0-1.05.286-1.91.856-2.58.57-.67 1.355-1.003 2.353-.998.942 0 1.665.288 2.169.865.503.577.755 1.354.755 2.33v.98h-4.181l-.02.039c.03.48.176.868.438 1.166.261.299.649.448 1.163.448.424 0 .784-.044 1.08-.13.296-.086.601-.218.917-.395l.512 1.166c-.28.23-.661.422-1.14.577a5.06 5.06 0 0 1-1.57.234zm-.123-5.822c-.38 0-.673.131-.878.393-.206.261-.33.608-.373 1.04l.013.032h2.308v-.142c0-.41-.084-.734-.253-.97-.169-.235-.44-.353-.817-.353zm-.907-4.174h1.555l1.92 1.64-.014.039h-1.698l-.992-.927-.979.927h-1.705l-.013-.04 1.926-1.64zm3.857-1.193h1.75l-1.387 1.757h-1.323l.96-1.757zm3.345 2.32v1.718h1.186v1.33h-1.186v3.571c0 .273.057.467.172.584a.603.603 0 0 0 .45.175 1.807 1.807 0 0 0 .512-.072l.156 1.368a3.304 3.304 0 0 1-1.14.194c-.654 0-1.156-.179-1.508-.537-.353-.359-.529-.927-.529-1.705v-3.579h-1.024v-1.329h1.024v-1.717h1.887zm12.382.753h-2.697v7.98h-1.893v-7.98H39.55v-1.459h7.248v1.459zm2.742 1.854c.22-.32.49-.57.81-.75.32-.179.674-.268 1.063-.268.73 0 1.304.243 1.721.73.417.485.626 1.236.626 2.252v4.162h-1.893v-4.175c0-.545-.088-.93-.263-1.157-.175-.227-.437-.34-.787-.34-.29 0-.541.046-.755.139a1.303 1.303 0 0 0-.522.398v5.135h-1.893V13.26h1.893v3.987zm9.944 5.088c-.216.376-.49.666-.823.87-.333.202-.72.304-1.16.304-.74 0-1.318-.25-1.735-.752-.417-.502-.625-1.28-.625-2.334v-4.065h1.886v4.078c0 .614.083 1.034.25 1.26.166.228.424.341.774.341.303 0 .562-.048.778-.146.216-.097.394-.24.532-.43v-5.103h1.893v7.015h-1.569l-.2-1.038zm-.914-8.835h2.107l.013.039-1.796 1.685h-1.614l1.29-1.724zm7.04 8.557c.329 0 .59-.099.785-.295.194-.197.291-.46.291-.788h1.725l.013.039c.017.709-.247 1.302-.791 1.78-.545.477-1.219.716-2.023.716-1.037 0-1.839-.332-2.405-.995-.566-.664-.85-1.512-.85-2.545v-.194c0-1.029.283-1.877.847-2.545.564-.667 1.362-1.001 2.395-1.001.856 0 1.545.246 2.068.739.523.493.776 1.14.759 1.945l-.013.039h-1.725c0-.364-.096-.665-.288-.905-.193-.24-.46-.36-.8-.36-.49 0-.836.196-1.041.587-.206.391-.308.891-.308 1.5v.195c0 .623.102 1.126.308 1.51.205.385.556.578 1.053.578zm14.599.026c-.294.384-.733.718-1.316 1.001-.583.283-1.335.425-2.256.425-1.14 0-2.074-.359-2.8-1.076-.726-.718-1.09-1.65-1.09-2.794v-1.971c0-1.141.353-2.071 1.057-2.79.705-.72 1.61-1.08 2.716-1.08 1.154 0 2.038.273 2.652.82.613.547.91 1.276.888 2.188l-.013.039h-1.783c0-.502-.145-.892-.434-1.17-.29-.28-.711-.419-1.264-.419-.58 0-1.046.224-1.4.671-.355.448-.532 1.024-.532 1.728v1.984c0 .713.181 1.294.544 1.743.364.45.85.675 1.46.675.449 0 .804-.046 1.065-.136.262-.091.464-.206.607-.344v-1.828h-1.816v-1.31h3.715v3.644zm3.455 1.29h-1.893v-7.015h1.893v7.015zm0-8.694h-1.893v-1.42h1.893v1.42zm9.867.94l.013.033c.013.76-.163 1.354-.529 1.78-.365.425-.94.685-1.727.78v5.16H89.72l-.201-1.037c-.216.376-.49.666-.823.87-.333.202-.72.304-1.16.304-.74 0-1.318-.25-1.735-.752-.417-.502-.625-1.28-.625-2.334v-4.065h1.886v4.078c0 .614.083 1.034.25 1.26.166.228.424.341.774.341.303 0 .562-.048.778-.146.216-.097.394-.24.532-.43v-5.103h1.893v.804l.039.013c.354-.056.608-.21.761-.463.154-.253.23-.617.23-1.093h1.213zm-2.878-2.055c0 .415-.13.769-.386 1.06a1.244 1.244 0 0 1-.976.438c-.302 0-.645-.094-1.027-.282-.383-.188-.686-.282-.911-.282a.467.467 0 0 0-.39.21.822.822 0 0 0-.155.503l-1.011-.272c0-.406.129-.76.386-1.06.257-.3.58-.45.969-.45.242 0 .57.093.985.281.415.188.735.282.96.282.147 0 .276-.069.389-.207a.786.786 0 0 0 .168-.512l.999.291zm6.262 9.809a3.981 3.981 0 0 1-.179-.506 3.517 3.517 0 0 1-.107-.545 2.595 2.595 0 0 1-.771.85c-.32.224-.7.337-1.14.337-.736 0-1.302-.19-1.7-.567-.397-.379-.596-.894-.596-1.547 0-.687.265-1.22.794-1.598.53-.378 1.302-.567 2.318-.567h1.063v-.557c0-.337-.089-.599-.266-.785-.177-.185-.44-.278-.79-.278-.307 0-.544.074-.71.223-.167.15-.25.354-.25.613H92.76l-.013-.039c-.03-.592.228-1.103.775-1.533.547-.43 1.26-.645 2.143-.645.842 0 1.524.212 2.045.635.52.424.781 1.03.781 1.822v2.897c0 .329.025.638.075.927.05.29.128.577.236.863h-1.886zm-1.731-1.264c.328 0 .622-.083.881-.247.26-.164.437-.354.532-.57V20.3h-1.063c-.402 0-.706.1-.91.298a.98.98 0 0 0-.309.733c0 .237.077.426.23.567.154.14.367.21.639.21z" fill="#020202" fill-rule="nonzero"/><path d="M23.863 67.688l.038.006 4.096-7.553h1.563l-1.391 9.289h-1.257l1.04-6.954-.038-.013-3.853 6.967h-.874l-1.818-7.196h-.039l-1.078 7.196h-1.256l1.39-9.289h1.653l1.824 7.547zm10.775 1.742l.07-.99a2.813 2.813 0 0 1-.96.836 2.62 2.62 0 0 1-1.228.288c-.728 0-1.272-.244-1.633-.73-.362-.488-.466-1.233-.313-2.237l.606-4.07h1.257l-.613 4.083c-.115.761-.085 1.274.09 1.537.174.264.495.396.963.396.438 0 .819-.095 1.142-.284.323-.19.587-.456.79-.8l.734-4.932H36.8l-1.033 6.903h-1.13zm-1.73 2.15h-1.39l.191-1.277H33.1l-.191 1.276zm7.56-2.999c.37 0 .722-.13 1.056-.389.334-.26.53-.574.59-.944h1.136l.012.038c-.076.621-.41 1.156-.998 1.604-.59.45-1.237.674-1.943.674-.927 0-1.615-.333-2.063-.999-.449-.665-.601-1.483-.456-2.453l.038-.268c.153-1.008.54-1.834 1.16-2.478.622-.644 1.42-.966 2.393-.966.744 0 1.333.24 1.767.72.434.481.59 1.066.466 1.755l-.013.032h-1.148c.064-.438-.017-.8-.243-1.088-.225-.287-.55-.43-.976-.43-.59 0-1.071.243-1.441.73-.37.487-.604 1.062-.702 1.725l-.038.268c-.11.715-.062 1.305.146 1.77.209.466.628.7 1.257.7zm10.245-7.719l-.249 1.665h1.308l-.14.932h-1.308l-.625 4.19c-.051.337-.02.567.092.693.113.125.282.188.508.188.068 0 .15-.01.245-.029.096-.019.173-.039.233-.06l.045.861c-.107.077-.254.14-.444.188-.189.049-.373.074-.551.074-.494 0-.873-.156-1.14-.466-.265-.31-.347-.793-.245-1.448l.625-4.191H47.97l.14-.932h1.098l.249-1.665h1.256zm2.73 8.568h-1.256l1.033-6.903h1.257l-1.033 6.903zm1.302-8.67h-1.257l.192-1.282h1.256l-.191 1.282zm3.47 8.804c-.952 0-1.668-.322-2.146-.964-.479-.642-.641-1.471-.488-2.488l.044-.28c.15-1.03.554-1.859 1.216-2.488.66-.63 1.41-.944 2.248-.944.889 0 1.53.29 1.92.874.392.582.517 1.341.377 2.277l-.096.663h-4.465c-.098.732-.026 1.31.216 1.732.243.424.683.635 1.321.635a3.41 3.41 0 0 0 1.139-.185c.35-.123.654-.29.909-.497l.37.816c-.281.238-.636.44-1.066.603-.43.164-.929.246-1.499.246zm.727-6.176c-.42 0-.802.17-1.145.51-.342.341-.588.77-.736 1.29l.012.038h3.107l.013-.102c.076-.515.017-.933-.179-1.254-.195-.321-.553-.482-1.072-.482zm2.176-2.283l-.026.16h-1.027l-.797-.945-1.072.944h-1.02l.025-.166 1.793-1.512h.765l1.359 1.519zm5.563 8.325l.07-.99a2.813 2.813 0 0 1-.96.836 2.62 2.62 0 0 1-1.228.288c-.728 0-1.272-.244-1.633-.73-.362-.488-.466-1.233-.313-2.237l.606-4.07h1.257l-.613 4.083c-.115.761-.085 1.274.09 1.537.174.264.495.396.963.396.438 0 .819-.095 1.142-.284.323-.19.587-.456.79-.8l.734-4.932h1.257L67.81 69.43h-1.13zm9.077-.849c.37 0 .722-.13 1.056-.389.334-.26.53-.574.59-.944h1.136l.012.038c-.076.621-.409 1.156-.998 1.604-.59.45-1.237.674-1.943.674-.927 0-1.615-.333-2.063-.999-.449-.665-.6-1.483-.456-2.453l.038-.268c.153-1.008.54-1.834 1.161-2.478.62-.644 1.418-.966 2.392-.966.744 0 1.333.24 1.767.72.434.481.59 1.066.466 1.755l-.013.032h-1.148c.064-.438-.017-.8-.243-1.088-.225-.287-.55-.43-.976-.43-.59 0-1.071.243-1.441.73-.37.487-.604 1.062-.702 1.725l-.038.268c-.11.715-.062 1.305.146 1.77.209.466.628.7 1.257.7zm8.21.849c-.008-.239-.012-.431-.012-.578 0-.147.008-.296.025-.45a3.727 3.727 0 0 1-1.043.827c-.41.223-.83.335-1.26.335-.693 0-1.207-.187-1.54-.559-.334-.372-.452-.877-.355-1.515a2.11 2.11 0 0 1 1.021-1.563c.583-.361 1.338-.542 2.265-.542h1.365l.102-.682c.064-.422-.01-.746-.22-.973-.21-.228-.543-.342-.998-.342-.387 0-.728.102-1.021.307-.294.204-.46.448-.498.733l-1.199.013-.006-.038c.05-.523.355-.988.912-1.394.557-.406 1.233-.61 2.028-.61.753 0 1.344.202 1.774.603.43.402.591.973.485 1.713l-.498 3.324c-.042.26-.067.5-.073.724-.007.223.007.445.041.667h-1.295zm-1.945-.92c.433 0 .854-.118 1.263-.356.408-.238.69-.506.848-.804l.172-1.116h-1.41c-.489 0-.91.13-1.263.389-.353.26-.552.557-.6.893-.05.319.006.564.17.737.164.172.437.258.82.258zm5.122-2.595c.158-1.06.558-1.91 1.203-2.552.644-.642 1.445-.963 2.401-.963.919 0 1.615.332 2.09.998.474.666.636 1.504.488 2.517l-.026.14c-.161 1.067-.563 1.919-1.206 2.555-.642.636-1.443.954-2.405.954-.918 0-1.615-.332-2.089-.996-.474-.663-.634-1.5-.481-2.513l.025-.14zm1.231.14c-.114.757-.053 1.367.185 1.83.239.464.664.696 1.276.696.574 0 1.058-.241 1.451-.724.394-.483.646-1.083.756-1.802l.026-.14c.11-.749.046-1.357-.195-1.825-.24-.468-.664-.702-1.272-.702-.579 0-1.065.244-1.458.73-.393.488-.641 1.086-.743 1.797l-.026.14zM23.889 171.503l.038.006 4.118-7.593h1.57l-1.397 9.338h-1.264l1.046-6.99-.039-.014-3.873 7.004h-.879l-1.828-7.234h-.038l-1.084 7.234h-1.263l1.398-9.338h1.66l1.835 7.587zm10.832 1.75l.07-.993a2.828 2.828 0 0 1-.965.84c-.37.192-.781.288-1.234.288-.732 0-1.279-.245-1.642-.734-.364-.49-.468-1.239-.315-2.248l.61-4.091h1.263l-.616 4.104c-.115.765-.085 1.28.09 1.546.176.265.498.397.969.397.44 0 .823-.095 1.148-.285.325-.19.59-.459.795-.805l.737-4.957h1.264l-1.04 6.939h-1.134zm-1.738 2.162h-1.398l.192-1.283h1.398l-.192 1.283zm7.6-3.014c.371 0 .725-.13 1.06-.392.336-.26.534-.577.594-.949h1.141l.013.039c-.077.624-.411 1.162-1.003 1.613-.593.45-1.243.676-1.953.676-.932 0-1.624-.334-2.075-1.003-.45-.67-.604-1.491-.458-2.466l.038-.27c.154-1.013.543-1.843 1.167-2.491.624-.648 1.426-.972 2.405-.972.748 0 1.34.242 1.777.725.436.483.592 1.07.468 1.764l-.013.032H42.59c.064-.44-.017-.805-.244-1.094-.227-.288-.554-.433-.981-.433-.595 0-1.078.245-1.45.735-.372.49-.607 1.067-.705 1.734l-.039.27c-.11.718-.062 1.311.148 1.78.21.468.63.702 1.263.702zm10.299-7.76l-.25 1.674h1.314l-.14.936H50.49l-.629 4.213c-.051.338-.02.57.093.696s.283.19.51.19c.068 0 .15-.01.247-.03.096-.019.174-.04.234-.06l.045.865c-.107.077-.256.14-.446.19-.19.049-.375.073-.555.073-.496 0-.877-.156-1.144-.468-.268-.312-.35-.797-.247-1.456l.628-4.213h-1.103l.141-.936h1.103l.25-1.674h1.264zm2.745 8.613h-1.264l1.04-6.94h1.263l-1.04 6.94zm1.308-8.716h-1.263l.192-1.289h1.263l-.192 1.29zm3.489 8.85c-.958 0-1.677-.323-2.158-.968-.481-.646-.645-1.48-.49-2.501l.044-.282c.15-1.035.557-1.869 1.222-2.502.665-.632 1.418-.949 2.26-.949.894 0 1.537.293 1.93.879.394.586.52 1.349.38 2.29l-.097.666h-4.49c-.098.736-.025 1.316.219 1.741.243.426.686.639 1.327.639.41 0 .792-.062 1.145-.186s.657-.291.914-.5l.372.82a3.65 3.65 0 0 1-1.071.606c-.432.165-.934.247-1.507.247zm.73-6.208c-.422 0-.806.171-1.15.513a2.923 2.923 0 0 0-.741 1.296l.013.038h3.123l.013-.102c.077-.518.017-.938-.18-1.26-.196-.323-.556-.485-1.077-.485zm2.188-2.296l-.026.16h-1.032l-.802-.948-1.078.949h-1.026l.026-.167 1.802-1.52h.77l1.366 1.526zm5.592 8.37l.07-.994a2.828 2.828 0 0 1-.965.84c-.37.192-.781.288-1.234.288-.731 0-1.279-.245-1.642-.734-.363-.49-.468-1.239-.314-2.248l.61-4.091h1.262l-.615 4.104c-.116.765-.086 1.28.09 1.546.175.265.498.397.968.397.44 0 .823-.095 1.148-.285.325-.19.59-.459.795-.805l.738-4.957h1.263l-1.039 6.939h-1.135zm9.286-8.613l-.25 1.674h1.315l-.141.936h-1.315l-.628 4.213c-.052.338-.02.57.093.696s.283.19.51.19c.068 0 .15-.01.246-.03.096-.019.175-.04.234-.06l.045.865c-.107.077-.255.14-.445.19-.19.049-.376.073-.555.073-.496 0-.878-.156-1.145-.468-.267-.312-.35-.797-.247-1.456l.629-4.213h-1.103l.14-.936h1.104l.25-1.674h1.263zm3.547 2.565c.29-.325.622-.576.994-.754a2.75 2.75 0 0 1 1.199-.266c.714 0 1.25.225 1.607.674.357.449.469 1.13.336 2.045l-.654 4.349h-1.263l.654-4.361c.09-.59.032-1.018-.173-1.283-.206-.265-.554-.398-1.046-.398a2.2 2.2 0 0 0-1.003.231 2.279 2.279 0 0 0-.78.642l-.776 5.169H77.6l1.5-10.005h1.264l-.596 3.957zm9.562 6.048c-.009-.24-.013-.433-.013-.58 0-.148.008-.299.026-.453-.287.33-.636.606-1.049.83a2.62 2.62 0 0 1-1.267.337c-.696 0-1.213-.187-1.548-.56-.336-.375-.455-.883-.356-1.524a2.121 2.121 0 0 1 1.026-1.571c.586-.364 1.344-.545 2.276-.545h1.373l.103-.687c.064-.423-.01-.749-.222-.978-.211-.228-.546-.343-1.003-.343-.39 0-.731.103-1.026.308-.296.205-.462.451-.5.738l-1.206.012-.007-.038c.051-.526.357-.993.917-1.401.56-.409 1.24-.613 2.04-.613.756 0 1.35.202 1.783.606.431.404.594.978.487 1.722l-.5 3.341c-.043.261-.068.504-.074.728-.006.225.007.448.042.67h-1.302zm-1.956-.924c.436 0 .86-.12 1.27-.36.41-.238.694-.508.852-.807l.174-1.122H88.25c-.491 0-.915.13-1.27.39-.354.262-.555.56-.602.899-.052.32.005.567.17.74.164.173.439.26.824.26zm1.263-8.94h1.013l1.604 1.648-.02.039h-1.27l-.923-1.007-1.218 1.007h-1.27l-.013-.039 2.097-1.648zm3.482-1.11h1.302l.02.04-1.527 1.628h-.942l1.147-1.667z" fill="#6D6E71" fill-rule="nonzero"/><g fill="#2A3052" fill-rule="nonzero"><path d="M32.244 138.885c-.03-.146-.03-.263-.03-.41a2.712 2.712 0 0 1-.79.732 1.911 1.911 0 0 1-1.054.293c-.614 0-1.083-.146-1.405-.497a1.786 1.786 0 0 1-.498-1.318c0-.585.235-1.025.703-1.347.468-.322 1.083-.497 1.874-.497h1.17v-.586c0-.351-.116-.644-.321-.849-.205-.205-.527-.322-.908-.322-.351 0-.644.088-.849.263a.863.863 0 0 0-.322.645H28.79v-.03c-.029-.439.176-.849.615-1.2.44-.351.996-.556 1.669-.556s1.23.175 1.64.527c.41.351.614.849.614 1.493v2.898c0 .205 0 .41.03.615.029.205.058.41.117.586h-1.142v.058c-.03-.176-.059-.351-.088-.498zm-1.772-.35c.38 0 .761-.089 1.054-.294.322-.205.527-.439.615-.702v-.966h-1.2c-.44 0-.791.117-1.055.322a.982.982 0 0 0-.38.79c0 .264.088.468.234.644.176.117.41.205.732.205zM36.656 131.63v1.534h1.197v.859h-1.197v3.834c0 .307.062.491.185.614.122.123.276.184.49.184.062 0 .123 0 .215-.03.092 0 .153-.031.215-.062l.153.798a2.042 2.042 0 0 1-.368.184c-.153.03-.337.06-.49.06a1.503 1.503 0 0 1-1.105-.429c-.276-.276-.399-.736-.399-1.319v-3.834h-.981v-.859h.981v-1.534h1.104z"/><path d="M21.26 139.5v-8.376h2.673c1.409 0 2.887.754 2.887 2.04 0 1.288-.8 1.588-1.215 1.843 1.15.299 1.724 1.03 1.724 2.194 0 1.745-1.485 2.3-2.7 2.3h-3.37zm1.154-4.838h1.607c.978 0 1.607-.462 1.607-1.462s-.98-1.113-1.658-1.113h-1.556v2.575zm.002.914v3.009h2.282c.673 0 1.532-.467 1.532-1.505 0-1.038-.853-1.504-1.532-1.504h-2.282z" stroke="#979797" stroke-width=".5"/><path d="M31.785 131.058c.477.014.476.022.789-.012 0 .504-.386 1.18-1.563 1.18s-1.828-.53-1.828-1.18l.859.012c.001.426.324.638.969.638.685-.068.647-.207.774-.638zM30.591 130.896h.579l.895-1.047h-.895z"/><g><path d="M50.748 138.978c-.03-.15-.03-.27-.03-.42-.21.3-.48.54-.81.75-.33.21-.691.3-1.081.3-.63 0-1.111-.15-1.441-.51a1.831 1.831 0 0 1-.51-1.35c0-.601.24-1.051.72-1.382.48-.33 1.11-.51 1.921-.51h1.2v-.6c0-.36-.12-.66-.33-.87-.21-.211-.54-.331-.93-.331-.36 0-.66.09-.87.27-.21.18-.33.42-.33.66h-1.051v-.03c-.03-.45.18-.87.63-1.23s1.02-.57 1.711-.57c.69 0 1.26.18 1.681.54.42.36.63.87.63 1.53v2.973c0 .21 0 .42.03.63.03.21.06.42.12.6h-1.17v.06c-.03-.18-.06-.36-.09-.51zm-1.817-.36c.39 0 .78-.09 1.08-.3.33-.21.54-.45.63-.72v-.991h-1.23c-.45 0-.81.12-1.08.33-.27.21-.39.51-.39.81 0 .27.09.48.24.66.18.12.42.21.75.21zM40.267 136.4c0-.971.206-1.765.618-2.353.412-.588 1-.882 1.735-.882.353 0 .676.058.941.205.265.118.5.324.706.56v-3.324h1.088v8.734h-.882l-.118-.735a2.088 2.088 0 0 1-.706.647 2.176 2.176 0 0 1-1 .206c-.735 0-1.294-.265-1.705-.794-.412-.53-.618-1.235-.618-2.117v-.147h-.059zm1.074.118c0 .618.117 1.118.382 1.47.265.354.618.56 1.147.56.324 0 .588-.089.823-.236a1.36 1.36 0 0 0 .53-.617v-2.824a1.541 1.541 0 0 0-.559-.588 1.48 1.48 0 0 0-.794-.235c-.53 0-.912.206-1.147.647-.235.441-.382 1-.382 1.706v.117zM57.455 133.297h1.09v6.169h-1.09v-.915c-.346.447-.916 1.165-2.06 1.044-1.145-.121-1.853-1.019-1.858-2.009-.006-.99.005-4.624 0-4.29h1.08v2.338c0 2.734.602 3.037 1.424 3.037s1.225-.695 1.414-.927c-.01-1.299-.01-2.781 0-4.447z"/><path d="M46.464 131.573v.814h-3.628v-.814zM47.624 131.227h-.784l-1.14-1.441h1.14zM48.452 132.274h-1.12l1.606-1.515h.887l1.683 1.515h-1.177l-.91-.889z"/></g></g><g fill="#2A3052" fill-rule="nonzero"><path d="M279.025 125.39v1.113h.868v.623h-.868v2.782c0 .222.044.356.133.445a.47.47 0 0 0 .356.133c.045 0 .09 0 .156-.022a.322.322 0 0 0 .156-.044l.111.578a1.482 1.482 0 0 1-.267.134 1.948 1.948 0 0 1-.356.044 1.09 1.09 0 0 1-.801-.311c-.2-.2-.29-.534-.29-.957v-2.782h-.711v-.623h.712v-1.112h.8zM288.488 126.574h.795v4.499h-.795v-.668c-.252.326-.668.85-1.502.762-.835-.088-1.351-.743-1.355-1.465-.004-.721.004-3.372 0-3.128h.788v1.705c0 1.993.439 2.214 1.038 2.214.6 0 .893-.507 1.031-.675-.006-.948-.006-2.029 0-3.244zM293.284 128.05c.295-.009.572 0 .75 0 0-1.32-1.046-1.67-1.888-1.67-.841 0-1.888.764-1.888 2.402 0 1.638.918 2.434 2.058 2.393 1.14-.04 1.718-.908 1.718-1.546-.333.008-.417.008-.75 0 0 .603-.542.92-.968.92-1.018 0-1.249-.988-1.249-1.773 0-.785.261-1.755 1.17-1.755.771 0 1.047.598 1.047 1.029zM274.6 125.52v1.085h.847v.607h-.847v2.714c0 .217.043.347.13.434.087.087.196.13.348.13.043 0 .086 0 .151-.022a.314.314 0 0 0 .152-.043l.109.564a1.445 1.445 0 0 1-.26.13 1.9 1.9 0 0 1-.348.044c-.29.01-.573-.1-.781-.304-.196-.195-.282-.521-.282-.933v-2.714h-.695v-.607h.695v-1.086h.781zM272.63 128.983h-2.876c0 .534.108.92.326 1.158.287.313.589.426 1.002.385.722-.072.862-.266 1.16-.436l.305.522c-.356.368-.925.551-1.708.551-1.173 0-1.889-.972-1.935-2.13-.047-1.158.415-2.501 1.935-2.558 1.29.035 1.886.87 1.79 2.508zm-.808-.637c-.008-.814-.335-1.221-.982-1.221-.646 0-1 .407-1.06 1.221h2.042zM263.986 125.032h.808v2.683h.487l2.236-2.683h.921l-2.453 2.882 2.624 3.172h-1.005l-2.24-2.71h-.57v2.71h-.808zM269.936 125.738h-.821l1.18-1.104h.63l1.243 1.104h-.875l-.652-.669zM272.46 123.942l-.557 1.089h.557l.865-1.089zM280.807 124.687v6.49h.794v-3.33c.106-.348.435-.537.987-.57.827-.047 1.037.514 1.037.906v2.994h.838a359.85 359.85 0 0 1-.041-3.204c0-.492-.478-1.501-1.746-1.33-.873.225-.81.391-1.075.635-.017-.188-.017-1.036 0-2.544l-.794-.047zM287.837 125.045h-.602l.771-1.103h.951z"/></g><g fill="#FFF" fill-rule="nonzero"><path d="M176.84 167.82h-2.502v-8.07h2.503v8.07zm0 4.246h-2.502v-2.168h2.503v2.168zM152.383 162.466h2.002l.1 1.457c.82-1.222 1.884-1.766 3.191-1.63.757.078 2.353.326 2.83 2.475.174.788.136 2.12.123 3.93a421.95 421.95 0 0 0 0 3.648h-2.196v-6.19c0-.727-.204-1.54-.814-1.847-.839-.423-2.418-.245-3.052.82v7.217h-2.184v-9.88zM144.622 165.279c-.677-.005-1.387-.005-2.13 0 0-1.068.764-3.007 3.824-3.007 3.06 0 3.794 2.102 3.877 2.555.083.452-.213 6.798.427 7.52l-2.273.002c-.188-.643-.282-1.117-.282-1.425-.354.433-.964 1.224-1.901 1.515-.938.29-3.066.446-3.938-1.597-.575-1.346-.208-2.86.872-3.554 1.784-1.146 4.236-.763 4.967-.763.095-2.044-.516-2.52-1.901-2.52-.924 0-1.438.424-1.542 1.274zm3.443 2.644a36.882 36.882 0 0 0-2.245.019c-.892.078-1.687.738-1.62 1.678.082 1.12 1.356 1.326 2.353 1.003.837-.272 1.42-.972 1.512-1.27v-1.43zM169.645 163.353l.223-1.257h1.814v10.054c.006 3.505-3.928 4.847-7.544 3.097.207-1.034.321-1.612.342-1.734 1.575.526 5.495 1.843 4.996-2.52-2.25 2.306-4.797.909-5.678-.63-.972-1.7-1.606-6.77 1.523-8.137 1.802-.788 3.244-.412 4.324 1.127zm-.189 1.532c-.428-.648-.702-1.188-2.14-1.188-1.438 0-2.338 1.764-2.026 4.473.312 2.708 3.252 2.708 4.166.995v-4.28zM131.872 158.08h2.112c.039 3.462.058 5.349.058 5.66.515-.801 2.008-1.89 3.601-1.396 2.528.782 2.413 2.431 2.528 3.538.077.737.077 2.892 0 6.464h-2.19c.059-2.949.059-5.044 0-6.284.079-2.15-2.595-2.797-3.997-.876l.058 7.16h-2.17V158.08zM130.482 159.004v1.678h-4.124v11.564h-2.289v-11.564h-3.867v-1.678zM147.58 158.87h1.647c-.08.787-.63 2.043-2.904 2.043-2.272 0-3.063-1.426-2.89-2.042l1.61-.023c.13.638.56.956 1.288.956.73 0 1.146-.31 1.25-.933zM145.725 158.549h1.184l1.442-1.724h-1.592z"/></g></g></svg>