<?xml version="1.0" encoding="UTF-8"?>
<svg width="299px" height="197px" viewBox="0 0 299 197" version="1.1" xmlns="http://www.w3.org/2000/svg" xmlns:xlink="http://www.w3.org/1999/xlink">
    <!-- Generator: Sketch 53.1 (72631) - https://sketchapp.com -->
    <title>even</title>
    <desc>Created with Sketch.</desc>
    <g id="Page-1" stroke="none" stroke-width="1" fill="none" fill-rule="evenodd">
        <g id="even" fill-rule="nonzero">
            <polygon id="Path" fill="#F1F1F2" points="0 0 299 0 299 197 0 197"></polygon>
            <path d="M1.98671096,1.9798995 L1.98671096,195.020101 L297.013289,195.020101 L297.013289,1.9798995 L1.98671096,1.9798995 Z M299,0 L299,197 L0,197 L0,0 L299,0 Z" id="Path" fill="#C2C2C2"></path>
            <path d="M4.57962025,54.9928773 L4.57962025,53.7817381 L294.988101,53.7817381 L294.988101,54.9928773 L4.57962025,54.9928773 Z M4.57962025,135.346147 L4.57962025,134.135007 L294.988101,134.135007 L294.988101,135.346147 L4.57962025,135.346147 Z M4.57962025,155.424993 L4.57962025,154.213853 L294.988101,154.213853 L294.988101,155.424993 L4.57962025,155.424993 Z M4.57962025,175.503839 L4.57962025,174.292699 L294.988101,174.292699 L294.988101,175.503839 L4.57962025,175.503839 Z M39.0592405,34.3084615 L40.2703797,34.3084615 L40.2703797,192.590385 L39.0592405,192.590385 L39.0592405,34.3084615 Z M75.8097469,34.3084615 L77.0208861,34.3084615 L77.0208861,192.590385 L75.8097469,192.590385 L75.8097469,34.3084615 Z M112.560253,34.3084615 L113.771393,34.3084615 L113.771393,192.590385 L112.560253,192.590385 L112.560253,34.3084615 Z M149.272911,34.3084615 L150.484051,34.3084615 L150.484051,192.590385 L149.272911,192.590385 L149.272911,34.3084615 Z M186.023417,34.3084615 L187.234557,34.3084615 L187.234557,192.590385 L186.023417,192.590385 L186.023417,34.3084615 Z M222.773924,34.3084615 L223.985064,34.3084615 L223.985064,192.590385 L222.773924,192.590385 L222.773924,34.3084615 Z M259.52443,34.3084615 L260.73557,34.3084615 L260.73557,192.590385 L259.52443,192.590385 L259.52443,34.3084615 Z M4.57962025,115.2673 L4.57962025,114.056161 L294.988101,114.056161 L294.988101,115.2673 L4.57962025,115.2673 Z M4.57962025,75.0717234 L4.57962025,73.8605842 L294.988101,73.8605842 L294.988101,75.0717234 L4.57962025,75.0717234 Z" id="Shape" fill="#DEDEDD"></path>
            <path d="M4.57962025,95.1884542 L4.57962025,93.977315 L8.17518986,93.977315 L8.17518986,95.1884542 L4.57962025,95.1884542 Z M11.7707595,95.1884542 L11.7707595,93.977315 L15.3663291,93.977315 L15.3663291,95.1884542 L11.7707595,95.1884542 Z M18.9618987,95.1884542 L18.9618987,93.977315 L22.5574683,93.977315 L22.5574683,95.1884542 L18.9618987,95.1884542 Z M26.1530379,95.1884542 L26.1530379,93.977315 L29.7486075,93.977315 L29.7486075,95.1884542 L26.1530379,95.1884542 Z M33.3441771,95.1884542 L33.3441771,93.977315 L36.9397467,93.977315 L36.9397467,95.1884542 L33.3441771,95.1884542 Z M40.5353164,95.1884542 L40.5353164,93.977315 L44.130886,93.977315 L44.130886,95.1884542 L40.5353164,95.1884542 Z M47.7264556,95.1884542 L47.7264556,93.977315 L51.3220252,93.977315 L51.3220252,95.1884542 L47.7264556,95.1884542 Z M54.9175948,95.1884542 L54.9175948,93.977315 L58.5131644,93.977315 L58.5131644,95.1884542 L54.9175948,95.1884542 Z M62.108734,95.1884542 L62.108734,93.977315 L65.7043036,93.977315 L65.7043036,95.1884542 L62.108734,95.1884542 Z M69.2998732,95.1884542 L69.2998732,93.977315 L72.8954429,93.977315 L72.8954429,95.1884542 L69.2998732,95.1884542 Z M76.4910125,95.1884542 L76.4910125,93.977315 L80.0865821,93.977315 L80.0865821,95.1884542 L76.4910125,95.1884542 Z M83.6821517,95.1884542 L83.6821517,93.977315 L87.2777213,93.977315 L87.2777213,95.1884542 L83.6821517,95.1884542 Z M90.8732909,95.1884542 L90.8732909,93.977315 L94.4688605,93.977315 L94.4688605,95.1884542 L90.8732909,95.1884542 Z M98.0644301,95.1884542 L98.0644301,93.977315 L101.66,93.977315 L101.66,95.1884542 L98.0644301,95.1884542 Z M105.255569,95.1884542 L105.255569,93.977315 L108.851139,93.977315 L108.851139,95.1884542 L105.255569,95.1884542 Z M112.446709,95.1884542 L112.446709,93.977315 L116.042278,93.977315 L116.042278,95.1884542 L112.446709,95.1884542 Z M119.637848,95.1884542 L119.637848,93.977315 L123.233417,93.977315 L123.233417,95.1884542 L119.637848,95.1884542 Z M126.828987,95.1884542 L126.828987,93.977315 L130.424557,93.977315 L130.424557,95.1884542 L126.828987,95.1884542 Z M134.020126,95.1884542 L134.020126,93.977315 L137.615696,93.977315 L137.615696,95.1884542 L134.020126,95.1884542 Z M141.211265,95.1884542 L141.211265,93.977315 L144.806835,93.977315 L144.806835,95.1884542 L141.211265,95.1884542 Z M148.402405,95.1884542 L148.402405,93.977315 L151.997974,93.977315 L151.997974,95.1884542 L148.402405,95.1884542 Z M155.593544,95.1884542 L155.593544,93.977315 L159.189114,93.977315 L159.189114,95.1884542 L155.593544,95.1884542 Z M162.784683,95.1884542 L162.784683,93.977315 L166.380253,93.977315 L166.380253,95.1884542 L162.784683,95.1884542 Z M169.975822,95.1884542 L169.975822,93.977315 L173.571392,93.977315 L173.571392,95.1884542 L169.975822,95.1884542 Z M177.166962,95.1884542 L177.166962,93.977315 L180.762531,93.977315 L180.762531,95.1884542 L177.166962,95.1884542 Z M184.358101,95.1884542 L184.358101,93.977315 L187.95367,93.977315 L187.95367,95.1884542 L184.358101,95.1884542 Z M191.54924,95.1884542 L191.54924,93.977315 L195.14481,93.977315 L195.14481,95.1884542 L191.54924,95.1884542 Z M198.740379,95.1884542 L198.740379,93.977315 L202.335949,93.977315 L202.335949,95.1884542 L198.740379,95.1884542 Z M205.931518,95.1884542 L205.931518,93.977315 L209.527088,93.977315 L209.527088,95.1884542 L205.931518,95.1884542 Z M213.122658,95.1884542 L213.122658,93.977315 L216.718227,93.977315 L216.718227,95.1884542 L213.122658,95.1884542 Z M220.313797,95.1884542 L220.313797,93.977315 L223.909366,93.977315 L223.909366,95.1884542 L220.313797,95.1884542 Z M227.504936,95.1884542 L227.504936,93.977315 L231.100506,93.977315 L231.100506,95.1884542 L227.504936,95.1884542 Z M234.696075,95.1884542 L234.696075,93.977315 L238.291645,93.977315 L238.291645,95.1884542 L234.696075,95.1884542 Z M241.887215,95.1884542 L241.887215,93.977315 L245.482784,93.977315 L245.482784,95.1884542 L241.887215,95.1884542 Z M249.078354,95.1884542 L249.078354,93.977315 L252.673923,93.977315 L252.673923,95.1884542 L249.078354,95.1884542 Z M256.269493,95.1884542 L256.269493,93.977315 L259.865063,93.977315 L259.865063,95.1884542 L256.269493,95.1884542 Z M263.460632,95.1884542 L263.460632,93.977315 L267.056202,93.977315 L267.056202,95.1884542 L263.460632,95.1884542 Z M270.651771,95.1884542 L270.651771,93.977315 L274.247341,93.977315 L274.247341,95.1884542 L270.651771,95.1884542 Z M277.842911,95.1884542 L277.842911,93.977315 L281.43848,93.977315 L281.43848,95.1884542 L277.842911,95.1884542 Z M285.03405,95.1884542 L285.03405,93.977315 L288.629619,93.977315 L288.629619,95.1884542 L285.03405,95.1884542 Z M292.225189,95.1884542 L292.225189,93.977315 L294.988101,93.977315 L294.988101,95.1884542 L292.225189,95.1884542 Z" id="Path" fill="#293052"></path>
            <polygon id="Path" fill="#C2C2C2" points="2 30 2 28 298 28 298 30"></polygon>
            <path d="M76.1862917,81.9209243 L40.913118,115.955469 C40.1986062,116.64489 39.0604936,116.62455 38.3710722,115.910039 C37.6816508,115.195527 37.7019905,114.057414 38.4165022,113.367993 L75.1670086,77.9079929 C75.9493243,77.1531485 77.2173979,77.2599523 77.8624341,78.1350158 L113.525494,126.515927 L148.708416,99.5211811 C149.400961,98.9898127 150.375132,99.0327101 151.018291,99.6228957 L186.896329,132.545903 L259.268031,93.0052153 C260.139354,92.5291632 261.231617,92.8495934 261.707669,93.7209161 C262.183721,94.5922388 261.863291,95.6845019 260.991969,96.1605539 L187.490956,136.318246 C186.815669,136.687193 185.980449,136.585452 185.413481,136.065181 L149.699513,103.292731 L114.260192,130.484204 C113.461716,131.09685 112.31587,130.93472 111.718705,130.1246 L76.1862917,81.9209243 Z" id="Path" fill="#293052"></path>
            <path d="M188.650253,147.069423 L153.602912,147.069423 L148.077089,139 L142.778355,147.069423 L107.731013,147.069423 C105.118147,147.069423 103,149.189613 103,151.805 L103,176.316346 C103,178.931733 105.118147,181.051923 107.731013,181.051923 L188.650253,181.051923 C189.924552,181.082545 191.157281,180.59717 192.069229,179.705737 C192.981177,178.814303 193.495178,177.592241 193.49481,176.316346 L193.49481,151.842885 C193.505431,150.560431 192.995941,149.328506 192.082847,148.428812 C191.169753,147.529117 189.931145,147.038599 188.650253,147.069423 Z" id="Path" fill="#E88024"></path>
            <g id="Group" opacity="0.6" transform="translate(251.797468, 87.134615)" fill="#FFFFFF">
                <ellipse id="Oval" cx="8.3325316" cy="8.58480769" rx="8.13734177" ry="8.3725"></ellipse>
            </g>
            <path d="M260.13,105.303062 C254.959133,105.303062 250.781519,101.004721 250.781519,95.7194231 C250.781519,90.4341254 254.959133,86.1357839 260.13,86.1357839 C265.300867,86.1357839 269.478481,90.4341254 269.478481,95.7194231 C269.478481,101.004721 265.300867,105.303062 260.13,105.303062 Z M260.13,102.880784 C263.947393,102.880784 267.056203,99.6821335 267.056203,95.7194231 C267.056203,91.7567127 263.947393,88.5580623 260.13,88.5580623 C256.312607,88.5580623 253.203797,91.7567127 253.203797,95.7194231 C253.203797,99.6821335 256.312607,102.880784 260.13,102.880784 Z" id="Oval" fill="#E88024"></path>
            <g id="Group" opacity="0.6" transform="translate(31.278481, 106.076923)" fill="#FFFFFF">
                <ellipse id="Oval" cx="8.38632911" cy="8.58480769" rx="8.13734177" ry="8.3725"></ellipse>
            </g>
            <path d="M39.6648101,124.24537 C34.4939432,124.24537 30.3163291,119.947028 30.3163291,114.661731 C30.3163291,109.376433 34.4939432,105.078092 39.6648101,105.078092 C44.835677,105.078092 49.0132911,109.376433 49.0132911,114.661731 C49.0132911,119.947028 44.835677,124.24537 39.6648101,124.24537 Z M39.6648101,121.823092 C43.4822027,121.823092 46.5910126,118.624441 46.5910126,114.661731 C46.5910126,110.69902 43.4822027,107.50037 39.6648101,107.50037 C35.8474175,107.50037 32.7386076,110.69902 32.7386076,114.661731 C32.7386076,118.624441 35.8474175,121.823092 39.6648101,121.823092 Z" id="Oval" fill="#E88024"></path>
            <polygon id="Path" fill="#E88024" points="247.56443 65.98 272.657722 65.98 272.657722 82.4976923 247.56443 82.4976923"></polygon>
            <polygon id="Path" fill="#E88024" transform="translate(260.079880, 82.479130) rotate(-45.000000) translate(-260.079880, -82.479130) " points="258.395639 80.7948895 261.765745 80.7932646 261.76412 84.1633705 258.394014 84.1649953"></polygon>
            <path d="M262.438734,76.0573077 L263.839114,76.0573077 L263.839114,77.1559615 L262.438734,77.1559615 L262.438734,79.5048077 L261.151899,79.5048077 L261.151899,77.1559615 L256.458734,77.1559615 L256.458734,76.3603846 L261.151899,69.2380769 L262.627975,69.2380769 L262.627975,76.0573077 L262.438734,76.0573077 Z M257.93481,76.0573077 L261.151899,76.0573077 L261.151899,71.2459615 L261.151899,71.5869231 L257.93481,76.0573077 Z" id="Shape" fill="#FFFFFF"></path>
            <polygon id="Path" fill="#D5D3DA" points="137.350759 79.2017308 162.444051 79.2017308 162.444051 95.7194231 137.350759 95.7194231"></polygon>
            <polygon id="Path" fill="#D5D3DA" transform="translate(149.892511, 95.696233) rotate(-45.000000) translate(-149.892511, -95.696233) " points="148.208271 94.0119922 151.578377 94.0103673 151.576752 97.3804732 148.206646 97.3820981"></polygon>
            <path d="M148.553797,86.9301923 L149.764937,86.9301923 C150.239705,86.9746728 150.710077,86.808499 151.051772,86.4755769 C151.324722,86.1038243 151.458666,85.647974 151.430253,85.1875 C151.457797,84.7030853 151.294769,84.227129 150.976076,83.8615385 C150.62918,83.5370969 150.162739,83.3723117 149.689241,83.4069231 C149.211619,83.3914113 148.747849,83.5689063 148.402405,83.8994231 C148.074322,84.2311548 147.896481,84.6830334 147.91038,85.1496154 L146.623544,85.1496154 C146.605495,84.3493354 146.971334,83.588784 147.607595,83.1038462 C148.960955,82.0745235 150.833855,82.0745235 152.187215,83.1038462 C152.766828,83.667181 153.071078,84.4562259 153.019873,85.2632692 C152.998378,86.2527803 152.387115,87.1332511 151.468101,87.4984615 C152.011423,87.6394525 152.483331,87.976855 152.792785,88.4455769 C153.046248,88.8825401 153.177019,89.3799485 153.171266,89.8851923 C153.214587,90.7171918 152.88089,91.5244059 152.262911,92.0825 C151.606384,92.6298635 150.770033,92.9134169 149.916329,92.8780769 C149.0813,92.9078097 148.262935,92.6392345 147.607595,92.1203846 C146.885078,91.6321825 146.48036,90.7930287 146.547848,89.9230769 L147.91038,89.9230769 C147.88584,90.4026355 148.064487,90.870316 148.402405,91.2111538 C148.773346,91.5497154 149.263477,91.7268781 149.764937,91.7036538 C150.278651,91.7328771 150.78276,91.5555869 151.165316,91.2111538 C151.474757,90.8551791 151.637154,90.3946104 151.619494,89.9230769 C151.71581,89.4071344 151.551734,88.876838 151.180951,88.505697 C150.810167,88.1345559 150.280382,87.9703218 149.764937,88.0667308 L148.553797,88.0667308 L148.553797,86.9301923 Z" id="Path" fill="#293052"></path>
            <polygon id="Path" fill="#D5D3DA" points="27.0992405 84.4298077 52.1925316 84.4298077 52.1925316 100.9475 27.0992405 100.9475"></polygon>
            <polygon id="Path" fill="#D5D3DA" transform="translate(39.661484, 100.966252) rotate(-45.000000) translate(-39.661484, -100.966252) " points="37.9772434 99.282011 41.3473493 99.2803861 41.3457244 102.650492 37.9756185 102.652117"></polygon>
            <polygon id="Path" fill="#293052" points="40.3839241 97.9546154 39.0213924 97.9546154 39.0213924 89.0517308 36.9018987 89.0517308 36.9018987 88.0667308 40.3839241 87.6878846"></polygon>
            <path d="M21.4819336,18.2021484 C21.4819336,17.7871073 21.3354507,17.468507 21.0424805,17.2463379 C20.7495103,17.0241688 20.2221718,16.7897962 19.4604492,16.5432129 C18.6987267,16.2966296 18.0957053,16.0537121 17.6513672,15.8144531 C16.4404236,15.160153 15.8349609,14.2788141 15.8349609,13.1704102 C15.8349609,12.5942354 15.9973128,12.0803245 16.3220215,11.6286621 C16.6467301,11.1769997 17.1130341,10.82422 17.7209473,10.5703125 C18.3288605,10.316405 19.0112267,10.1894531 19.7680664,10.1894531 C20.529789,10.1894531 21.2084931,10.3273912 21.8041992,10.6032715 C22.3999053,10.8791518 22.8625472,11.2685522 23.1921387,11.7714844 C23.5217302,12.2744166 23.6865234,12.8456999 23.6865234,13.4853516 L21.4892578,13.4853516 C21.4892578,12.9970679 21.3354508,12.617433 21.027832,12.3464355 C20.7202133,12.0754381 20.2880887,11.9399414 19.7314453,11.9399414 C19.1943333,11.9399414 18.776857,12.0534657 18.4790039,12.2805176 C18.1811509,12.5075695 18.0322266,12.8066388 18.0322266,13.1777344 C18.0322266,13.5244158 18.2067854,13.8149402 18.5559082,14.0493164 C18.905031,14.2836926 19.4189419,14.5034169 20.0976562,14.7084961 C21.3476625,15.0844745 22.2582979,15.5507785 22.8295898,16.1074219 C23.4008818,16.6640653 23.6865234,17.3574177 23.6865234,18.1875 C23.6865234,19.1103562 23.3374058,19.8342259 22.6391602,20.3591309 C21.9409145,20.8840358 21.0009825,21.1464844 19.8193359,21.1464844 C18.9990193,21.1464844 18.2519565,20.9963394 17.578125,20.6960449 C16.9042935,20.3957505 16.3903826,19.9843776 16.036377,19.4619141 C15.6823713,18.9394505 15.5053711,18.3339878 15.5053711,17.6455078 L17.7099609,17.6455078 C17.7099609,18.8222715 18.4130789,19.4106445 19.8193359,19.4106445 C20.3417995,19.4106445 20.7495103,19.3044444 21.0424805,19.092041 C21.3354507,18.8796376 21.4819336,18.5830097 21.4819336,18.2021484 Z M24.7045898,16.9643555 C24.7045898,16.1782187 24.8559555,15.4775421 25.1586914,14.8623047 C25.4614273,14.2470672 25.897214,13.7709978 26.4660645,13.434082 C27.034915,13.0971663 27.6953087,12.9287109 28.4472656,12.9287109 C29.5166069,12.9287109 30.3894009,13.2558561 31.0656738,13.9101562 C31.7419467,14.5644564 32.1191402,15.4531194 32.1972656,16.5761719 L32.2119141,17.1181641 C32.2119141,18.3339905 31.872562,19.3093225 31.1938477,20.0441895 C30.5151333,20.7790564 29.6044979,21.1464844 28.4619141,21.1464844 C27.3193302,21.1464844 26.4074741,20.7802771 25.7263184,20.0478516 C25.0451626,19.315426 24.7045898,18.3193422 24.7045898,17.0595703 L24.7045898,16.9643555 Z M26.8212891,17.1181641 C26.8212891,17.8701209 26.9628892,18.4450664 27.2460938,18.8430176 C27.5292983,19.2409688 27.9345677,19.4399414 28.4619141,19.4399414 C28.9746119,19.4399414 29.3749986,19.2434102 29.6630859,18.8503418 C29.9511733,18.4572734 30.0952148,17.8286176 30.0952148,16.9643555 C30.0952148,16.2270471 29.9511733,15.6557637 29.6630859,15.2504883 C29.3749986,14.8452128 28.9697292,14.6425781 28.4472656,14.6425781 C27.9296849,14.6425781 27.5292983,14.8439921 27.2460938,15.2468262 C26.9628892,15.6496602 26.8212891,16.2734333 26.8212891,17.1181641 Z M27.8320312,10.3359375 L29.0258789,10.3359375 L31.1132812,12.0205078 L29.53125,12.0205078 L28.425293,11.0976562 L27.3193359,12.0205078 L25.7446289,12.0205078 L27.8320312,10.3359375 Z M31.7651367,9.046875 L33.4570312,9.046875 L31.7944336,11.0390625 L30.5712891,11.0390625 L31.7651367,9.046875 Z M45.7617188,17.4477539 C45.6787105,18.5952206 45.2551308,19.4985319 44.4909668,20.1577148 C43.7268028,20.8168978 42.7197328,21.1464844 41.4697266,21.1464844 C40.1025322,21.1464844 39.0271035,20.6862839 38.2434082,19.7658691 C37.4597129,18.8454544 37.0678711,17.5820393 37.0678711,15.9755859 L37.0678711,15.3237305 C37.0678711,14.2983347 37.2485333,13.3950234 37.6098633,12.6137695 C37.9711932,11.8325156 38.4875455,11.2331564 39.1589355,10.8156738 C39.8303256,10.3981913 40.6103471,10.1894531 41.4990234,10.1894531 C42.7294983,10.1894531 43.7206994,10.5190397 44.4726562,11.1782227 C45.2246131,11.8374056 45.6591791,12.7626894 45.7763672,13.9541016 L43.5791016,13.9541016 C43.5253904,13.2656216 43.3337419,12.766359 43.0041504,12.4562988 C42.6745589,12.1462387 42.1728549,11.9912109 41.4990234,11.9912109 C40.7665979,11.9912109 40.2185077,12.2536595 39.8547363,12.7785645 C39.490965,13.3034694 39.3041993,14.1176703 39.2944336,15.2211914 L39.2944336,16.0268555 C39.2944336,17.179205 39.4689924,18.0214817 39.8181152,18.5537109 C40.1672381,19.0859402 40.7177697,19.3520508 41.4697266,19.3520508 C42.1484409,19.3520508 42.6550276,19.197023 42.989502,18.8869629 C43.3239763,18.5769027 43.5156248,18.0971712 43.5644531,17.4477539 L45.7617188,17.4477539 Z M49.1308594,13.9394531 C49.6923856,13.2656216 50.397945,12.9287109 51.2475586,12.9287109 C52.9663172,12.9287109 53.8378905,13.9272361 53.8623047,15.9243164 L53.8623047,21 L51.7456055,21 L51.7456055,15.9829102 C51.7456055,15.5288063 51.6479502,15.1931163 51.4526367,14.9758301 C51.2573232,14.7585438 50.9326195,14.6499023 50.4785156,14.6499023 C49.8583953,14.6499023 49.4091811,14.8891578 49.1308594,15.3676758 L49.1308594,21 L47.0141602,21 L47.0141602,9.75 L49.1308594,9.75 L49.1308594,13.9394531 Z M60.0512695,21 C59.9536128,20.8095694 59.8828127,20.5727553 59.8388672,20.2895508 C59.3261693,20.8608427 58.6596721,21.1464844 57.8393555,21.1464844 C57.0629844,21.1464844 56.4196803,20.9218772 55.9094238,20.4726562 C55.3991674,20.0234353 55.144043,19.4570347 55.144043,18.7734375 C55.144043,17.9335896 55.4553192,17.2890647 56.0778809,16.8398438 C56.7004426,16.3906228 57.6000918,16.1635742 58.7768555,16.1586914 L59.7509766,16.1586914 L59.7509766,15.7045898 C59.7509766,15.3383771 59.6569834,15.0454113 59.4689941,14.8256836 C59.2810049,14.6059559 58.984377,14.4960938 58.5791016,14.4960938 C58.2226545,14.4960938 57.9431162,14.5815421 57.7404785,14.7524414 C57.5378408,14.9233407 57.4365234,15.1577134 57.4365234,15.4555664 L55.3198242,15.4555664 C55.3198242,14.9965797 55.4614244,14.5717793 55.7446289,14.1811523 C56.0278334,13.7905254 56.4282201,13.484132 56.9458008,13.2619629 C57.4633815,13.0397938 58.0444304,12.9287109 58.6889648,12.9287109 C59.6655322,12.9287109 60.440671,13.1740698 61.0144043,13.6647949 C61.5881376,14.15552 61.875,14.8452104 61.875,15.7338867 L61.875,19.1689453 C61.8798828,19.9209022 61.9848623,20.4897442 62.1899414,20.8754883 L62.1899414,21 L60.0512695,21 Z M58.3007812,19.527832 C58.6132828,19.527832 58.9013659,19.4582526 59.1650391,19.3190918 C59.4287123,19.1799309 59.6240228,18.9931652 59.7509766,18.7587891 L59.7509766,17.3964844 L58.9599609,17.3964844 C57.9003853,17.3964844 57.3364261,17.7626917 57.2680664,18.4951172 L57.2607422,18.6196289 C57.2607422,18.8833021 57.3535147,19.1005851 57.5390625,19.2714844 C57.7246103,19.4423837 57.978514,19.527832 58.3007812,19.527832 Z M61.1791992,10.3505859 C61.1791992,10.8730495 60.9460473,11.2917465 60.4797363,11.6066895 C60.0134254,11.9216324 59.4043006,12.0791016 58.6523438,12.0791016 C57.9003869,12.0791016 57.2912621,11.9216324 56.8249512,11.6066895 C56.3586402,11.2917465 56.1254883,10.8730495 56.1254883,10.3505859 L57.5170898,10.3505859 C57.5170898,10.6044935 57.6147451,10.799804 57.8100586,10.9365234 C58.0053721,11.0732429 58.286131,11.1416016 58.6523438,11.1416016 C59.0087908,11.1416016 59.284667,11.0732429 59.4799805,10.9365234 C59.6752939,10.799804 59.7729492,10.6044935 59.7729492,10.3505859 L61.1791992,10.3505859 Z M60.7836914,8.35107422 C60.7836914,8.72216982 60.6677258,9.03588739 60.435791,9.29223633 C60.2038563,9.54858527 59.9194353,9.67675781 59.5825195,9.67675781 C59.3041978,9.67675781 58.9990251,9.59497152 58.6669922,9.43139648 C58.3349593,9.26782145 58.0688487,9.18603516 57.8686523,9.18603516 C57.7319329,9.18603516 57.6159673,9.24584901 57.520752,9.36547852 C57.4255366,9.48510802 57.3779297,9.635253 57.3779297,9.81591797 L56.4990234,9.56689453 C56.4990234,9.2055646 56.6137684,8.89306772 56.8432617,8.62939453 C57.0727551,8.36572134 57.3583967,8.23388672 57.7001953,8.23388672 C57.9003916,8.23388672 58.1884747,8.31445232 58.5644531,8.47558594 C58.9404316,8.63671956 59.2211905,8.71728516 59.4067383,8.71728516 C59.5434577,8.71728516 59.6594234,8.6574713 59.7546387,8.5378418 C59.849854,8.41821229 59.8974609,8.27050869 59.8974609,8.09472656 L60.7836914,8.35107422 Z M65.4492188,13.0751953 L65.5151367,13.9907227 C66.0815458,13.2827113 66.8408156,12.9287109 67.7929688,12.9287109 C68.6328167,12.9287109 69.2578104,13.1752905 69.6679688,13.668457 C70.0781271,14.1616236 70.2880859,14.8989209 70.2978516,15.8803711 L70.2978516,21 L68.1811523,21 L68.1811523,15.9316406 C68.1811523,15.4824196 68.0834971,15.1564952 67.8881836,14.9538574 C67.6928701,14.7512197 67.3681663,14.6499023 66.9140625,14.6499023 C66.3183564,14.6499023 65.8715835,14.9038061 65.5737305,15.4116211 L65.5737305,21 L63.4570312,21 L63.4570312,13.0751953 L65.4492188,13.0751953 Z" id="SốChẵn" fill="#000000"></path>
            <path d="M240.446777,121.625488 L239.22998,122.890137 L239.22998,126.253418 L237.91748,126.253418 L237.91748,116.300293 L239.22998,116.300293 L239.22998,121.222168 L243.652832,116.300293 L245.23877,116.300293 L241.321777,120.695801 L245.546387,126.253418 L243.974121,126.253418 L240.446777,121.625488 Z M249.388184,126.390137 C248.385574,126.390137 247.569827,126.060876 246.940918,125.402344 C246.312009,124.743812 245.997559,123.863124 245.997559,122.760254 L245.997559,122.527832 C245.997559,121.794104 246.137694,121.139 246.417969,120.5625 C246.698244,119.986 247.090167,119.534832 247.59375,119.208984 C248.097333,118.883136 248.643063,118.720215 249.230957,118.720215 C250.19255,118.720215 250.939939,119.036943 251.473145,119.67041 C252.00635,120.303877 252.272949,121.210769 252.272949,122.391113 L252.272949,122.91748 L247.262207,122.91748 C247.280436,123.646651 247.493488,124.235675 247.901367,124.68457 C248.309247,125.133466 248.827634,125.35791 249.456543,125.35791 C249.90316,125.35791 250.281411,125.266765 250.591309,125.084473 C250.901206,124.90218 251.172362,124.660646 251.404785,124.359863 L252.177246,124.961426 C251.557451,125.913905 250.627773,126.390137 249.388184,126.390137 Z M249.230957,119.759277 C248.720538,119.759277 248.292157,119.944985 247.945801,120.316406 C247.599445,120.687827 247.385254,121.208493 247.303223,121.878418 L251.008301,121.878418 L251.008301,121.782715 C250.971842,121.140134 250.798667,120.642254 250.48877,120.289062 C250.178872,119.935871 249.759606,119.759277 249.230957,119.759277 Z M248.711426,115.965332 L249.750488,115.965332 L251.73291,117.763184 L250.38623,117.763184 L249.230957,116.67627 L248.068848,117.763184 L246.715332,117.763184 L248.711426,115.965332 Z M252.197754,114.782715 L253.564941,114.782715 L252.190918,116.553223 L251.227051,116.553223 L252.197754,114.782715 Z M255.45166,117.065918 L255.45166,118.856934 L256.83252,118.856934 L256.83252,119.834473 L255.45166,119.834473 L255.45166,124.421387 C255.45166,124.717612 255.513183,124.939778 255.63623,125.087891 C255.759278,125.236003 255.968911,125.310059 256.265137,125.310059 C256.410971,125.310059 256.61149,125.282715 256.866699,125.228027 L256.866699,126.253418 C256.534015,126.344564 256.210451,126.390137 255.895996,126.390137 C255.330889,126.390137 254.904787,126.21924 254.617676,125.877441 C254.330565,125.535643 254.187012,125.050296 254.187012,124.421387 L254.187012,119.834473 L252.840332,119.834473 L252.840332,118.856934 L254.187012,118.856934 L254.187012,117.065918 L255.45166,117.065918 Z M263.490723,117.065918 L263.490723,118.856934 L264.871582,118.856934 L264.871582,119.834473 L263.490723,119.834473 L263.490723,124.421387 C263.490723,124.717612 263.552245,124.939778 263.675293,125.087891 C263.79834,125.236003 264.007974,125.310059 264.304199,125.310059 C264.450033,125.310059 264.650552,125.282715 264.905762,125.228027 L264.905762,126.253418 C264.573078,126.344564 264.249513,126.390137 263.935059,126.390137 C263.369952,126.390137 262.943849,126.21924 262.656738,125.877441 C262.369627,125.535643 262.226074,125.050296 262.226074,124.421387 L262.226074,119.834473 L260.879395,119.834473 L260.879395,118.856934 L262.226074,118.856934 L262.226074,117.065918 L263.490723,117.065918 Z M267.612793,119.752441 C268.173343,119.064287 268.902502,118.720215 269.800293,118.720215 C271.363452,118.720215 272.151855,119.602042 272.165527,121.365723 L272.165527,126.253418 L270.900879,126.253418 L270.900879,121.358887 C270.896322,120.825681 270.774415,120.431479 270.535156,120.17627 C270.295897,119.92106 269.923342,119.793457 269.41748,119.793457 C269.007322,119.793457 268.6473,119.902831 268.337402,120.121582 C268.027505,120.340333 267.785971,120.62744 267.612793,120.98291 L267.612793,126.253418 L266.348145,126.253418 L266.348145,115.753418 L267.612793,115.753418 L267.612793,119.752441 Z M278.625488,125.521973 C278.133298,126.100752 277.410975,126.390137 276.458496,126.390137 C275.670081,126.390137 275.069664,126.161135 274.657227,125.703125 C274.24479,125.245115 274.036296,124.567225 274.031738,123.669434 L274.031738,118.856934 L275.296387,118.856934 L275.296387,123.635254 C275.296387,124.756353 275.752111,125.316895 276.663574,125.316895 C277.629725,125.316895 278.272297,124.956872 278.591309,124.236816 L278.591309,118.856934 L279.855957,118.856934 L279.855957,126.253418 L278.652832,126.253418 L278.625488,125.521973 Z M277.600098,115.753418 L279.131348,115.753418 L277.299316,117.763184 L276.280762,117.763184 L277.600098,115.753418 Z M284.743652,125.35791 C285.194826,125.35791 285.589028,125.221193 285.92627,124.947754 C286.263511,124.674315 286.450358,124.332522 286.486816,123.922363 L287.683105,123.922363 C287.660319,124.346194 287.514487,124.74951 287.245605,125.132324 C286.976724,125.515139 286.617841,125.820474 286.168945,126.04834 C285.72005,126.276206 285.244957,126.390137 284.743652,126.390137 C283.736486,126.390137 282.93555,126.05404 282.34082,125.381836 C281.746091,124.709632 281.44873,123.790208 281.44873,122.623535 L281.44873,122.411621 C281.44873,121.691565 281.580891,121.051272 281.845215,120.490723 C282.109539,119.930173 282.48893,119.494956 282.983398,119.185059 C283.477867,118.875161 284.062334,118.720215 284.736816,118.720215 C285.566248,118.720215 286.255531,118.968585 286.804688,119.465332 C287.353844,119.962079 287.646647,120.60693 287.683105,121.399902 L286.486816,121.399902 C286.450358,120.921384 286.269207,120.528322 285.943359,120.220703 C285.617511,119.913084 285.215334,119.759277 284.736816,119.759277 C284.094235,119.759277 283.596356,119.990558 283.243164,120.453125 C282.889972,120.915692 282.713379,121.584468 282.713379,122.459473 L282.713379,122.69873 C282.713379,123.550948 282.888833,124.207192 283.239746,124.66748 C283.590659,125.127769 284.091956,125.35791 284.743652,125.35791 Z" id="Kếtthúc" fill="#2A3052"></path>
            <path d="M130.078125,170.058594 L130.078125,159.833984 L126.210938,159.833984 L126.210938,158.574219 L136.060547,158.574219 L136.060547,159.833984 L132.251953,159.833984 L132.251953,170.058594 L130.078125,170.058594 Z M139.089844,170.058594 L137.027344,170.058594 L137.027344,158.117188 L139.089844,158.117188 L139.089844,162.417969 C139.128906,162.382812 139.171875,162.344727 139.21875,162.303711 C139.265625,162.262695 139.310547,162.226563 139.353516,162.195312 C139.576173,162.01953 139.892576,161.85547 140.302734,161.703125 C140.603517,161.589843 140.974607,161.533203 141.416016,161.533203 C141.708986,161.533203 141.98828,161.5625 142.253906,161.621094 C142.519533,161.679688 142.765624,161.764648 142.992188,161.875977 C143.218751,161.987305 143.421874,162.121093 143.601562,162.277344 C143.781251,162.433595 143.929687,162.609374 144.046875,162.804688 C144.171876,163.031251 144.267578,163.312498 144.333984,163.648438 C144.400391,163.984377 144.433594,164.365232 144.433594,164.791016 L144.433594,170.058594 L142.365234,170.058594 L142.365234,165.376953 C142.365234,164.615231 142.322266,164.103517 142.236328,163.841797 C142.11914,163.478514 141.982423,163.25 141.826172,163.15625 C141.548827,162.98828 141.298829,162.904297 141.076172,162.904297 C140.939452,162.904297 140.789063,162.93457 140.625,162.995117 C140.460937,163.055664 140.294923,163.138671 140.126953,163.244141 C140.005859,163.326172 139.88086,163.449218 139.751953,163.613281 C139.623046,163.777345 139.498047,163.976561 139.376953,164.210938 C139.279296,164.394532 139.207031,164.633788 139.160156,164.928711 C139.113281,165.223634 139.089844,165.574217 139.089844,165.980469 L139.089844,170.058594 Z M150.855469,170.058594 C150.816406,169.937499 150.78125,169.819337 150.75,169.704102 C150.71875,169.588867 150.693359,169.486329 150.673828,169.396484 C150.486327,169.544923 150.300782,169.669921 150.117188,169.771484 C149.933593,169.873047 149.748048,169.96289 149.560547,170.041016 C149.349608,170.119141 149.131837,170.178711 148.907227,170.219727 C148.682616,170.260742 148.455079,170.28125 148.224609,170.28125 C147.439449,170.28125 146.806643,170.08008 146.326172,169.677734 C145.779294,169.208982 145.505859,168.644535 145.505859,167.984375 C145.505859,167.234371 145.884762,166.609377 146.642578,166.109375 C146.958986,165.906249 147.418942,165.708985 148.022461,165.517578 C148.62598,165.326171 149.33984,165.148438 150.164062,164.984375 L150.615234,164.896484 L150.615234,163.982422 C150.615234,163.451169 150.501954,163.117188 150.275391,162.980469 C149.939451,162.777343 149.595705,162.675781 149.244141,162.675781 C148.810545,162.675781 148.441408,162.796874 148.136719,163.039062 C147.910155,163.214845 147.796875,163.490232 147.796875,163.865234 L147.796875,164.041016 L145.611328,164.041016 L145.611328,163.865234 C145.611328,163.705077 145.65625,163.528321 145.746094,163.334961 C145.835938,163.141601 145.968749,162.935548 146.144531,162.716797 C146.281251,162.548827 146.468749,162.387696 146.707031,162.233398 C146.945314,162.079101 147.212889,161.94336 147.509766,161.826172 C147.767579,161.724609 148.045897,161.648438 148.344727,161.597656 C148.643556,161.546875 148.958983,161.521484 149.291016,161.521484 C149.626955,161.521484 149.941405,161.545898 150.234375,161.594727 C150.527345,161.643555 150.794921,161.716796 151.037109,161.814453 C151.333986,161.927735 151.58789,162.050781 151.798828,162.183594 C152.009767,162.316407 152.166015,162.449218 152.267578,162.582031 C152.400391,162.769532 152.502929,163.0166 152.575195,163.323242 C152.647461,163.629884 152.683594,163.984373 152.683594,164.386719 L152.683594,167.5625 C152.683594,167.738282 152.685547,167.917968 152.689453,168.101562 C152.693359,168.285157 152.699219,168.472655 152.707031,168.664062 C152.722656,169.070315 152.810546,169.535154 152.970703,170.058594 L150.855469,170.058594 Z M150.615234,166.039062 C149.994138,166.187501 149.475588,166.342773 149.05957,166.504883 C148.643553,166.666993 148.330079,166.826171 148.119141,166.982422 C147.82617,167.216798 147.679688,167.558592 147.679688,168.007812 C147.679688,168.242189 147.720703,168.446288 147.802734,168.620117 C147.884766,168.793946 147.998046,168.917968 148.142578,168.992188 C148.244141,169.035156 148.34082,169.070312 148.432617,169.097656 C148.524415,169.125 148.603515,169.138672 148.669922,169.138672 C148.931642,169.138672 149.248045,169.031251 149.619141,168.816406 C149.744141,168.746093 149.86914,168.635743 149.994141,168.485352 C150.119141,168.33496 150.238281,168.158204 150.351562,167.955078 L150.345703,167.955078 C150.431641,167.794921 150.498047,167.606446 150.544922,167.389648 C150.591797,167.17285 150.615234,166.935548 150.615234,166.677734 L150.615234,166.039062 Z M148.353516,158.392578 C148.400391,158.853518 148.513671,159.193358 148.693359,159.412109 C148.806641,159.541016 148.909179,159.640625 149.000977,159.710938 C149.092774,159.78125 149.169922,159.816406 149.232422,159.816406 C149.294922,159.816406 149.373046,159.779297 149.466797,159.705078 C149.560547,159.630859 149.658203,159.531251 149.759766,159.40625 C149.833985,159.296874 149.90332,159.152345 149.967773,158.972656 C150.032227,158.792968 150.076172,158.59961 150.099609,158.392578 L151.746094,158.392578 C151.691406,158.931643 151.533204,159.400389 151.271484,159.798828 C151.18164,159.931641 151.062501,160.065429 150.914062,160.200195 C150.765624,160.334962 150.585939,160.468749 150.375,160.601562 C150.05078,160.800782 149.669924,160.900391 149.232422,160.900391 C149.029296,160.900391 148.830079,160.875 148.634766,160.824219 C148.439452,160.773437 148.253907,160.700196 148.078125,160.604492 C147.902343,160.508789 147.739259,160.392579 147.588867,160.255859 C147.438476,160.11914 147.306641,159.966798 147.193359,159.798828 C146.935546,159.392576 146.775391,158.923831 146.712891,158.392578 L148.353516,158.392578 Z M147,157.765625 L149.273438,155.257812 L151.458984,155.257812 L148.828125,157.765625 L147,157.765625 Z M156.146484,170.058594 L154.083984,170.058594 L154.083984,161.761719 L156.146484,161.761719 L156.146484,162.417969 C156.185547,162.382812 156.228515,162.344727 156.275391,162.303711 C156.322266,162.262695 156.367187,162.226563 156.410156,162.195312 C156.632814,162.01953 156.949217,161.85547 157.359375,161.703125 C157.660158,161.589843 158.031248,161.533203 158.472656,161.533203 C158.765626,161.533203 159.044921,161.5625 159.310547,161.621094 C159.576173,161.679688 159.822264,161.764648 160.048828,161.875977 C160.275392,161.987305 160.478515,162.121093 160.658203,162.277344 C160.837892,162.433595 160.986328,162.609374 161.103516,162.804688 C161.228516,163.031251 161.324218,163.312498 161.390625,163.648438 C161.457032,163.984377 161.490234,164.365232 161.490234,164.791016 L161.490234,170.058594 L159.421875,170.058594 L159.421875,165.376953 C159.421875,164.615231 159.378907,164.103517 159.292969,163.841797 C159.171874,163.474608 159.031251,163.246094 158.871094,163.15625 C158.734374,163.074218 158.605469,163.011719 158.484375,162.96875 C158.363281,162.925781 158.246094,162.904297 158.132812,162.904297 C157.996093,162.904297 157.845704,162.93457 157.681641,162.995117 C157.517577,163.055664 157.351563,163.138671 157.183594,163.244141 C157.062499,163.326172 156.937501,163.449218 156.808594,163.613281 C156.679687,163.777345 156.554688,163.976561 156.433594,164.210938 C156.335937,164.394532 156.263672,164.633788 156.216797,164.928711 C156.169922,165.223634 156.146484,165.574217 156.146484,165.980469 L156.146484,170.058594 Z M168.462891,169.220703 C168.177733,169.494142 167.841799,169.702148 167.455078,169.844727 C167.068357,169.987305 166.632815,170.058594 166.148438,170.058594 C165.007807,170.058594 164.115238,169.669926 163.470703,168.892578 C162.7832,168.056636 162.439453,167.039068 162.439453,165.839844 C162.439453,165.05859 162.589842,164.304691 162.890625,163.578125 C163.156251,162.957028 163.597653,162.445315 164.214844,162.042969 C164.74219,161.703123 165.408199,161.533203 166.212891,161.533203 C166.51758,161.533203 166.79785,161.558593 167.053711,161.609375 C167.309572,161.660157 167.541015,161.738281 167.748047,161.84375 C167.869141,161.90625 167.99121,161.980468 168.114258,162.066406 C168.237305,162.152344 168.353515,162.242187 168.462891,162.335938 L168.462891,161.761719 L170.525391,161.761719 L170.525391,168.505859 C170.525391,169.310551 170.475586,169.994138 170.375977,170.556641 C170.276367,171.119143 170.132813,171.552733 169.945312,171.857422 C169.785155,172.091798 169.57715,172.315429 169.321289,172.52832 C169.065428,172.741212 168.781252,172.923827 168.46875,173.076172 C168.199217,173.205079 167.88965,173.303711 167.540039,173.37207 C167.190428,173.44043 166.814455,173.474609 166.412109,173.474609 C166.04492,173.474609 165.697267,173.448242 165.369141,173.395508 C165.041014,173.342773 164.742189,173.265626 164.472656,173.164062 C164.167967,173.046874 163.894532,172.914063 163.652344,172.765625 C163.410155,172.617187 163.226563,172.468751 163.101562,172.320312 C162.949218,172.124999 162.829102,171.930665 162.741211,171.737305 C162.65332,171.543944 162.609375,171.365235 162.609375,171.201172 L162.609375,171.019531 L164.677734,171.019531 L164.677734,171.195312 C164.677734,171.382813 164.71289,171.545898 164.783203,171.68457 C164.853516,171.823243 164.953124,171.93164 165.082031,172.009766 C165.273438,172.111329 165.479491,172.190429 165.700195,172.24707 C165.9209,172.303711 166.152343,172.332031 166.394531,172.332031 C166.792971,172.332031 167.139647,172.249024 167.43457,172.083008 C167.729494,171.916991 167.980468,171.650392 168.1875,171.283203 C168.371095,170.966795 168.462891,170.289068 168.462891,169.25 L168.462891,169.220703 Z M168.462891,165.664062 C168.462891,164.742183 168.265627,164.046877 167.871094,163.578125 C167.429685,163.050779 166.982424,162.787109 166.529297,162.787109 C166.287108,162.787109 166.048829,162.855468 165.814453,162.992188 C165.580077,163.128907 165.357423,163.326171 165.146484,163.583984 C164.958983,163.830079 164.81543,164.1416 164.71582,164.518555 C164.61621,164.89551 164.566406,165.339841 164.566406,165.851562 C164.566406,166.472659 164.646484,167.015623 164.806641,167.480469 C164.966798,167.945315 165.195311,168.289061 165.492188,168.511719 C165.664063,168.617188 165.83789,168.702148 166.013672,168.766602 C166.189454,168.831055 166.351562,168.863281 166.5,168.863281 C166.750001,168.863281 166.99121,168.78711 167.223633,168.634766 C167.456056,168.482421 167.67578,168.263673 167.882812,167.978516 L167.876953,167.978516 C168.064454,167.70117 168.208984,167.369143 168.310547,166.982422 C168.41211,166.595701 168.462891,166.156252 168.462891,165.664062 Z" id="Thắng" fill="#FFFFFF"></path>
            <path d="M17.1552734,142 L17.1552734,132.046875 L20.4091797,132.046875 C21.4892632,132.046875 22.3015923,132.27018 22.8461914,132.716797 C23.3907905,133.163414 23.6630859,133.824214 23.6630859,134.699219 C23.6630859,135.164065 23.5309258,135.575356 23.2666016,135.933105 C23.0022773,136.290855 22.6422549,136.567707 22.1865234,136.763672 C22.7242865,136.914063 23.1492497,137.20003 23.4614258,137.621582 C23.7736018,138.043134 23.9296875,138.54557 23.9296875,139.128906 C23.9296875,140.02214 23.6403024,140.723956 23.0615234,141.234375 C22.4827445,141.744794 21.6647188,142 20.6074219,142 L17.1552734,142 Z M18.4677734,137.344727 L18.4677734,140.926758 L20.6347656,140.926758 C21.2454458,140.926758 21.7273745,140.768394 22.0805664,140.45166 C22.4337583,140.134927 22.6103516,139.69857 22.6103516,139.142578 C22.6103516,137.944004 21.9586654,137.344727 20.6552734,137.344727 L18.4677734,137.344727 Z M18.4677734,136.291992 L20.4501953,136.291992 C21.0244169,136.291992 21.4835595,136.148439 21.8276367,135.861328 C22.171714,135.574217 22.34375,135.184573 22.34375,134.692383 C22.34375,134.145505 22.1842464,133.747885 21.8652344,133.499512 C21.5462224,133.251138 21.0608757,133.126953 20.4091797,133.126953 L18.4677734,133.126953 L18.4677734,136.291992 Z M30.2392578,142 C30.1663408,141.854166 30.1070966,141.594403 30.0615234,141.220703 C29.4736299,141.831383 28.771814,142.136719 27.9560547,142.136719 C27.2268844,142.136719 26.6287458,141.930503 26.1616211,141.518066 C25.6944964,141.105629 25.4609375,140.582685 25.4609375,139.949219 C25.4609375,139.179033 25.7537406,138.580894 26.3393555,138.154785 C26.9249704,137.728676 27.7486926,137.515625 28.8105469,137.515625 L30.0410156,137.515625 L30.0410156,136.93457 C30.0410156,136.492511 29.9088555,136.140464 29.6445312,135.878418 C29.380207,135.616372 28.9905625,135.485352 28.4755859,135.485352 C28.0244118,135.485352 27.6461604,135.599283 27.3408203,135.827148 C27.0354802,136.055014 26.8828125,136.330728 26.8828125,136.654297 L25.6113281,136.654297 C25.6113281,136.285154 25.742349,135.92855 26.0043945,135.584473 C26.2664401,135.240395 26.6219053,134.9681 27.0708008,134.767578 C27.5196963,134.567056 28.0130181,134.466797 28.5507812,134.466797 C29.4029991,134.466797 30.0706356,134.679848 30.5537109,135.105957 C31.0367863,135.532066 31.2874348,136.118811 31.3056641,136.866211 L31.3056641,140.270508 C31.3056641,140.949548 31.3922517,141.489581 31.5654297,141.890625 L31.5654297,142 L30.2392578,142 Z M28.140625,141.036133 C28.5371114,141.036133 28.9130842,140.933595 29.2685547,140.728516 C29.6240252,140.523436 29.8815096,140.256838 30.0410156,139.928711 L30.0410156,138.411133 L29.0498047,138.411133 C27.5003178,138.411133 26.7255859,138.864579 26.7255859,139.771484 C26.7255859,140.167971 26.8577461,140.477863 27.1220703,140.701172 C27.3863946,140.92448 27.7259094,141.036133 28.140625,141.036133 Z M30.7246094,132.101562 C30.7246094,132.534507 30.533205,132.880858 30.1503906,133.140625 C29.7675762,133.400392 29.2685578,133.530273 28.6533203,133.530273 C28.0335255,133.530273 27.5322285,133.400392 27.1494141,133.140625 C26.7665996,132.880858 26.5751953,132.534507 26.5751953,132.101562 L27.6142578,132.101562 C27.6142578,132.352215 27.7042634,132.547037 27.8842773,132.686035 C28.0642913,132.825033 28.3206364,132.894531 28.6533203,132.894531 C28.9768896,132.894531 29.2286775,132.822755 29.4086914,132.679199 C29.5887053,132.535644 29.6787109,132.3431 29.6787109,132.101562 L30.7246094,132.101562 Z M29.0224609,130.611328 L30.0683594,130.611328 L28.9472656,131.964844 L28.25,131.964844 L29.0224609,130.611328 Z M35.0039062,132.8125 L35.0039062,134.603516 L36.3847656,134.603516 L36.3847656,135.581055 L35.0039062,135.581055 L35.0039062,140.167969 C35.0039062,140.464194 35.0654291,140.68636 35.1884766,140.834473 C35.3115241,140.982585 35.5211574,141.056641 35.8173828,141.056641 C35.9632169,141.056641 36.1637357,141.029297 36.4189453,140.974609 L36.4189453,142 C36.0862614,142.091146 35.7626969,142.136719 35.4482422,142.136719 C34.8831352,142.136719 34.4570327,141.965822 34.1699219,141.624023 C33.8828111,141.282225 33.7392578,140.796878 33.7392578,140.167969 L33.7392578,135.581055 L32.3925781,135.581055 L32.3925781,134.603516 L33.7392578,134.603516 L33.7392578,132.8125 L35.0039062,132.8125 Z M48.5458984,133.571289 L47.2607422,133.571289 L47.2607422,142 L46.0986328,142 L46.0371094,141.207031 C45.5312475,141.826826 44.8271529,142.136719 43.9248047,142.136719 C43.0680296,142.136719 42.3696316,141.785811 41.8295898,141.083984 C41.2895481,140.382158 41.0195312,139.466151 41.0195312,138.335938 L41.0195312,138.240234 C41.0195312,137.105463 41.2884088,136.192875 41.8261719,135.502441 C42.363935,134.812008 43.0680295,134.466797 43.9384766,134.466797 C44.8043663,134.466797 45.4902318,134.763018 45.9960938,135.355469 L45.9960938,133.571289 L44.1914062,133.571289 L44.1914062,132.539062 L45.9960938,132.539062 L45.9960938,131.5 L47.2607422,131.5 L47.2607422,132.539062 L48.5458984,132.539062 L48.5458984,133.571289 Z M42.2841797,138.383789 C42.2841797,139.222335 42.457355,139.878578 42.8037109,140.352539 C43.1500668,140.8265 43.6285777,141.063477 44.2392578,141.063477 C45.0413452,141.063477 45.6269513,140.703454 45.9960938,139.983398 L45.9960938,136.585938 C45.6178367,135.888668 45.0367878,135.540039 44.2529297,135.540039 C43.6331349,135.540039 43.1500668,135.779294 42.8037109,136.257812 C42.457355,136.736331 42.2841797,137.444982 42.2841797,138.383789 Z M54.2539062,142 C54.1809892,141.854166 54.121745,141.594403 54.0761719,141.220703 C53.4882783,141.831383 52.7864624,142.136719 51.9707031,142.136719 C51.2415328,142.136719 50.6433943,141.930503 50.1762695,141.518066 C49.7091448,141.105629 49.4755859,140.582685 49.4755859,139.949219 C49.4755859,139.179033 49.768389,138.580894 50.3540039,138.154785 C50.9396188,137.728676 51.763341,137.515625 52.8251953,137.515625 L54.0556641,137.515625 L54.0556641,136.93457 C54.0556641,136.492511 53.9235039,136.140464 53.6591797,135.878418 C53.3948554,135.616372 53.0052109,135.485352 52.4902344,135.485352 C52.0390602,135.485352 51.6608088,135.599283 51.3554688,135.827148 C51.0501287,136.055014 50.8974609,136.330728 50.8974609,136.654297 L49.6259766,136.654297 C49.6259766,136.285154 49.7569974,135.92855 50.019043,135.584473 C50.2810885,135.240395 50.6365537,134.9681 51.0854492,134.767578 C51.5343447,134.567056 52.0276666,134.466797 52.5654297,134.466797 C53.4176475,134.466797 54.085284,134.679848 54.5683594,135.105957 C55.0514347,135.532066 55.3020832,136.118811 55.3203125,136.866211 L55.3203125,140.270508 C55.3203125,140.949548 55.4069002,141.489581 55.5800781,141.890625 L55.5800781,142 L54.2539062,142 Z M52.1552734,141.036133 C52.5517598,141.036133 52.9277326,140.933595 53.2832031,140.728516 C53.6386737,140.523436 53.8961581,140.256838 54.0556641,139.928711 L54.0556641,138.411133 L53.0644531,138.411133 C51.5149662,138.411133 50.7402344,138.864579 50.7402344,139.771484 C50.7402344,140.167971 50.8723945,140.477863 51.1367188,140.701172 C51.401043,140.92448 51.7405578,141.036133 52.1552734,141.036133 Z M55.1972656,133.537109 L53.8505859,133.537109 L52.6884766,132.457031 L51.5263672,133.537109 L50.1865234,133.537109 L52.1689453,131.746094 L53.2080078,131.746094 L55.1972656,133.537109 Z M50.6855469,132.327148 L49.7285156,132.327148 L48.3613281,130.563477 L49.7216797,130.563477 L50.6855469,132.327148 Z M61.8691406,141.268555 C61.3769507,141.847334 60.6546272,142.136719 59.7021484,142.136719 C58.913733,142.136719 58.3133159,141.907717 57.9008789,141.449707 C57.4884419,140.991697 57.2799479,140.313807 57.2753906,139.416016 L57.2753906,134.603516 L58.5400391,134.603516 L58.5400391,139.381836 C58.5400391,140.502935 58.9957637,141.063477 59.9072266,141.063477 C60.8733772,141.063477 61.5159489,140.703454 61.8349609,139.983398 L61.8349609,134.603516 L63.0996094,134.603516 L63.0996094,142 L61.8964844,142 L61.8691406,141.268555 Z" id="Bắtđầu" fill="#2A3052"></path>
        </g>
    </g>
</svg>