<svg width="300" height="199" viewBox="0 0 300 199" xmlns="http://www.w3.org/2000/svg"><title>Vietnamese higher</title><g fill="none" fill-rule="evenodd"><path fill="#F1F2F2" d="M0 0h300v199H0z"/><path d="M39.125 55.375V74.75H75.25V55.375H39.125zm0-1H75.25V34h1v20.375h36.125V34h1v20.375H149.5V34h1v20.375h36.125V34h1v20.375h36.125V34h1v20.375h36.125V34h1v20.375H299.5v1h-37.625V74.75H299.5v1h-37.625v19.375H299.5v1h-37.625V115.5H299.5v1h-37.625v19.375H299.5v1h-37.625v19.375H299.5v1h-37.625v19.375H299.5v1h-37.625V199h-1v-21.375H224.75V199h-1v-21.375h-36.125V199h-1v-21.375H150.5V199h-1v-21.375h-36.125V199h-1v-21.375H76.25V199h-1v-21.375H39.125V199h-1v-21.375H1.5v-1h36.625V157.25H1.5v-1h36.625v-19.375H1.5v-1h36.625V116.5H1.5v-1h36.625V96.125H1.5v-1h36.625V75.75H1.5v-1h36.625V55.375H1.5v-1h36.625V34h1v20.375zm221.75 1H224.75V74.75h36.125V55.375zm-37.125 0h-36.125V74.75h36.125V55.375zm-37.125 0H150.5V74.75h36.125V55.375zm-37.125 0h-36.125V74.75H149.5V55.375zm-37.125 0H76.25V74.75h36.125V55.375zM39.125 75.75v19.375H75.25V75.75H39.125zm221.75 0H224.75v19.375h36.125V75.75zm-37.125 0h-36.125v19.375h36.125V75.75zm-37.125 0H150.5v19.375h36.125V75.75zm-37.125 0h-36.125v19.375H149.5V75.75zm-37.125 0H76.25v19.375h36.125V75.75zm-73.25 20.375V115.5H75.25V96.125H39.125zm221.75 0H224.75V115.5h36.125V96.125zm-37.125 0h-36.125V115.5h36.125V96.125zm-37.125 0H150.5V115.5h36.125V96.125zm-37.125 0h-36.125V115.5H149.5V96.125zm-37.125 0H76.25V115.5h36.125V96.125zM39.125 116.5v19.375H75.25V116.5H39.125zm221.75 0H224.75v19.375h36.125V116.5zm-37.125 0h-36.125v19.375h36.125V116.5zm-37.125 0H150.5v19.375h36.125V116.5zm-37.125 0h-36.125v19.375H149.5V116.5zm-37.125 0H76.25v19.375h36.125V116.5zm-73.25 20.375v19.375H75.25v-19.375H39.125zm221.75 0H224.75v19.375h36.125v-19.375zm-37.125 0h-36.125v19.375h36.125v-19.375zm-37.125 0H150.5v19.375h36.125v-19.375zm-37.125 0h-36.125v19.375H149.5v-19.375zm-37.125 0H76.25v19.375h36.125v-19.375zm-73.25 20.375v19.375H75.25V157.25H39.125zm221.75 0H224.75v19.375h36.125V157.25zm-37.125 0h-36.125v19.375h36.125V157.25zm-37.125 0H150.5v19.375h36.125V157.25zm-37.125 0h-36.125v19.375H149.5V157.25zm-37.125 0H76.25v19.375h36.125V157.25z" fill="#DFDEDE"/><path stroke="#C2C2C2" stroke-width="2" d="M1 1h298v197H1z"/><path fill="#C2C2C2" d="M0 33h300v2H0z"/><g transform="translate(4 52.59)"><path d="M.9 64.063h290.625" stroke="#2A3052" stroke-width="1.211" stroke-linejoin="round"/><path stroke="#2A3052" stroke-width="3.633" stroke-linecap="round" stroke-linejoin="round" d="M36 104.75L67.2 46.7l31.725 33.938 45.225-57.226 45.225 63.375L222.412.837l34.2 22.576"/><path d="M184.613 95H149.55l-5.4-8.213-5.4 8.213h-35.063c-2.624 0-4.724 2.138-4.724 4.8v24.788c0 2.662 2.137 4.8 4.725 4.8h80.962c2.625 0 4.725-2.138 4.725-4.8V99.8c0-2.662-2.137-4.8-4.762-4.8z" fill="#E88024" fill-rule="nonzero"/><ellipse cx="8.363" cy="11.662" rx="8.137" ry="8.475" opacity=".6" transform="translate(248.25 11.75)" fill="#FFF" fill-rule="nonzero"/><ellipse stroke="#E88024" stroke-width="2.422" cx="256.613" cy="23.413" rx="8.137" ry="8.475"/><ellipse cx="9" cy="10.5" rx="8.137" ry="8.475" opacity=".6" transform="translate(27 94.25)" fill="#FFF" fill-rule="nonzero"/><ellipse stroke="#E88024" stroke-width="2.422" cx="36" cy="104.75" rx="8.137" ry="8.475"/></g><g fill="#2A3052"><path d="M30.627 185.938c-.036-.178-.036-.321-.036-.5-.25.357-.572.643-.965.894-.394.25-.823.357-1.287.357-.751 0-1.323-.179-1.716-.608a2.18 2.18 0 0 1-.608-1.608c0-.715.286-1.252.858-1.645.572-.393 1.323-.608 2.288-.608h1.43v-.715c0-.429-.143-.786-.393-1.036s-.644-.394-1.109-.394c-.429 0-.786.107-1.036.322-.25.215-.394.5-.394.787h-1.251v-.036c-.036-.536.215-1.037.75-1.466.537-.429 1.216-.68 2.039-.68.822 0 1.501.215 2.002.644.5.43.75 1.037.75 1.824v3.539c0 .25 0 .5.036.75s.072.501.143.716h-1.394v.071a20.398 20.398 0 0 0-.107-.608zm-2.164-.429c.464 0 .93-.107 1.287-.357.393-.25.643-.536.75-.858v-1.18h-1.465c-.537 0-.966.143-1.287.393a1.2 1.2 0 0 0-.465.966c0 .321.107.572.286.786.214.143.5.25.894.25zM36.015 177.079v1.873h1.46V180h-1.46v4.682c0 .375.074.6.224.75.15.149.337.224.6.224.075 0 .15 0 .262-.038a.541.541 0 0 0 .262-.074l.187.973c-.112.075-.262.15-.45.225a3.279 3.279 0 0 1-.598.075 1.835 1.835 0 0 1-1.349-.524c-.337-.337-.487-.9-.487-1.611v-4.682h-1.199v-1.05h1.2v-1.872h1.348z"/><path d="M17.213 186.69v-10.23h3.265c1.72 0 3.525.922 3.525 2.493 0 1.571-.976 1.938-1.484 2.249 1.404.365 2.105 1.258 2.105 2.68 0 2.13-1.812 2.807-3.296 2.807h-4.115zm1.41-5.908h1.962c1.195 0 1.963-.565 1.963-1.786s-1.196-1.36-2.025-1.36h-1.9v3.146zm.002 1.115v3.674h2.787c.822 0 1.87-.57 1.87-1.837 0-1.268-1.04-1.837-1.87-1.837h-2.787z" stroke="#979797" stroke-width=".5"/><path d="M30.067 176.38c.581.017.58.027.962-.014 0 .615-.471 1.44-1.908 1.44-1.437 0-2.232-.646-2.232-1.44l1.049.015c.001.519.395.779 1.183.779.836-.084.79-.254.946-.78zM28.608 176.182h.707l1.093-1.278h-1.093z"/><g><path d="M53.222 186.051c-.037-.183-.037-.33-.037-.513-.257.367-.587.66-.99.917a2.393 2.393 0 0 1-1.32.366c-.77 0-1.356-.183-1.759-.623a2.236 2.236 0 0 1-.623-1.65c0-.733.293-1.282.88-1.686.586-.403 1.356-.623 2.346-.623h1.466v-.733c0-.44-.147-.806-.403-1.063-.257-.257-.66-.403-1.137-.403-.44 0-.806.11-1.063.33-.256.22-.403.513-.403.806h-1.283v-.036c-.036-.55.22-1.064.77-1.503.55-.44 1.246-.697 2.09-.697.842 0 1.539.22 2.052.66.513.44.77 1.063.77 1.87v3.628c0 .257 0 .514.037.77.036.257.073.513.146.733h-1.43v.074c-.036-.22-.073-.44-.11-.624zm-2.22-.44c.477 0 .954-.11 1.32-.366.404-.257.66-.55.77-.88v-1.21H51.59c-.55 0-.99.147-1.32.404a1.23 1.23 0 0 0-.476.99c0 .33.11.586.293.806.22.147.514.257.917.257zM40.424 182.903c0-1.185.251-2.155.754-2.873.503-.718 1.22-1.077 2.119-1.077.43 0 .826.071 1.149.25.323.145.61.396.862.683v-4.058h1.329v10.666h-1.078l-.143-.898a2.55 2.55 0 0 1-.862.79c-.382.18-.8.266-1.221.252-.898 0-1.58-.324-2.083-.97-.503-.646-.754-1.508-.754-2.586v-.18h-.072zm1.31.145c0 .754.144 1.365.467 1.796.324.43.755.682 1.401.682.395 0 .718-.108 1.006-.287.287-.18.502-.431.646-.755v-3.447a1.882 1.882 0 0 0-.682-.718 1.806 1.806 0 0 0-.97-.288c-.646 0-1.113.252-1.4.79-.288.54-.467 1.221-.467 2.083v.144zM61.412 179.114h1.33v7.533h-1.33v-1.118c-.422.546-1.119 1.423-2.517 1.276-1.397-.148-2.262-1.244-2.268-2.453-.006-1.208.006-5.647 0-5.238h1.32v2.854c0 3.338.734 3.708 1.738 3.708s1.496-.848 1.727-1.131a426.648 426.648 0 0 1 0-5.431z"/><path d="M47.99 177.01v.993h-4.43v-.994zM49.408 176.587h-.959l-1.39-1.76h1.39zM50.419 177.865H49.05l1.96-1.85h1.084l2.055 1.85h-1.438l-1.111-1.085z"/></g></g><g fill="#2A3052"><path d="M260.092 94.747v1.815h1.416v1.017h-1.416v4.54c0 .362.073.58.218.725.145.146.327.218.58.218.073 0 .146 0 .255-.036.109 0 .182-.036.254-.073l.182.945a2.418 2.418 0 0 1-.436.217c-.182.037-.4.073-.581.073a1.78 1.78 0 0 1-1.307-.508c-.327-.327-.472-.872-.472-1.562V97.58h-1.162v-1.017h1.162v-1.815h1.307zM275.536 96.679h1.296v7.34h-1.296v-1.089c-.412.532-1.09 1.387-2.453 1.243-1.362-.144-2.204-1.212-2.21-2.39-.006-1.178.006-5.503 0-5.104h1.286v2.781c0 3.253.716 3.613 1.694 3.613s1.457-.826 1.683-1.102a415.74 415.74 0 0 1 0-5.292zM283.361 99.086c.482-.014.934 0 1.225 0 0-2.155-1.708-2.724-3.082-2.724-1.373 0-3.081 1.246-3.081 3.919s1.499 3.973 3.36 3.906c1.86-.067 2.803-1.482 2.803-2.523-.543.012-.681.012-1.225 0 0 .984-.885 1.5-1.579 1.5-1.661 0-2.038-1.611-2.038-2.893 0-1.28.425-2.863 1.909-2.863 1.258 0 1.708.976 1.708 1.678zM252.871 94.957v1.771h1.382v.992h-1.382v4.427c0 .355.071.567.213.709.142.141.319.212.567.212.07 0 .141 0 .248-.035.106 0 .177-.036.248-.07l.177.92c-.107.07-.248.142-.425.213a3.1 3.1 0 0 1-.567.07 1.736 1.736 0 0 1-1.275-.496c-.319-.318-.46-.85-.46-1.523V97.72h-1.134v-.992h1.133v-1.77h1.275zM249.656 100.61h-4.693c0 .87.177 1.5.533 1.889.468.51.96.695 1.634.628 1.18-.118 1.407-.433 1.894-.712l.497.853c-.58.6-1.51.9-2.786.9-1.916 0-3.083-1.588-3.16-3.477-.076-1.89.678-4.082 3.16-4.174 2.103.056 3.076 1.42 2.921 4.092zm-1.318-1.04c-.013-1.329-.547-1.993-1.602-1.993-1.055 0-1.631.664-1.73 1.993h3.332zM235.551 94.161h1.319v4.379h.795l3.648-4.379h1.503l-4.002 4.704 4.28 5.175h-1.64l-3.655-4.423h-.93v4.423h-1.318zM245.26 95.313h-1.34l1.925-1.8h1.03l2.027 1.8h-1.427l-1.064-1.09zM249.38 92.383l-.91 1.777h.91l1.41-1.777zM263 93.599v10.59h1.297v-5.434c.173-.567.71-.876 1.61-.928 1.349-.078 1.693.837 1.693 1.477v4.885h1.366c-.045-2.95-.067-4.692-.067-5.227 0-.803-.779-2.45-2.85-2.173-1.423.369-1.319.64-1.752 1.038-.03-.307-.03-1.691 0-4.152L263 93.6zM274.473 94.183h-.982l1.258-1.8h1.552z"/></g><g fill="#6D6E71"><path d="M262.812 139.62h1.279l1.1-7.225h-1.31zM265.665 129.136l-.183 1.348h-1.336l.23-1.348zM253.084 139.49h1.212l1.043-6.846h-1.242zM243.682 132.687h1.216c.258-1.267-.356-3.212-3.102-3.15-2.746.062-3.621 2.23-3.943 2.985-.322.755-.437 2.518-.546 3.422-.11.903.389 3.086 2.64 3.364 2.252.278 4.16-1.13 4.409-3.136h-1.21c-.217.618-.372 2.385-2.932 2.131-1.394-.138-1.727-1.726-1.607-2.68.12-.955.184-2.007.577-3.1.476-1.323 1.512-1.989 2.538-1.989 1.434 0 2.087.718 1.96 2.153zM271.366 137.802c.075.182.16.376.363.807-1.526 1.162-3.28 1.003-4.101.523-1.235-.724-1.235-2.068-1.229-3.107.008-1.326.983-3.793 3.697-3.793s2.268 2.93 2.136 3.793c-.277 0-1.774.027-4.49.081-.251 3.223 2.184 2.503 3.624 1.696zm-.163-2.592c.158-1.273-.233-1.909-1.173-1.909-1.41 0-1.904 1.494-2.062 1.91h3.235zM260.144 130.692h1.286l-.263 1.73h1.353l-.133.942h-1.336l-.676 4.381c-.052.351-.109 1 1.115.76.025.338.04.631.046.879-.485.33-2.757.702-2.447-1.639l.636-4.369-1.1-.012.154-.943h1.1l.265-1.73zM254.514 131.258h.89l.112-.406c.705-.205 1.076-.565 1.113-1.08.055-.771-.605-1.162-1.791-1.162l-.159.692c.65-.045.974.112.974.47 0 .537-.868.537-1.033.537-.03.188-.066.504-.106.949zM272.137 130.885v.103h-1.057l-.828-.945-1.13.998h-1.018v-.156l1.861-1.605h.771zM278.81 132.315h1.193l-.982 7.104h-1.166c.047-.505.07-.852.07-1.041-.511.817-1.256 1.203-2.234 1.16-1.467-.065-2.377-.942-1.998-2.993l.629-4.195h1.223c-.421 2.773-.632 4.294-.632 4.563 0 .403-.203 1.6 1.044 1.6 1.248 0 1.818-.585 2.093-1.092.132-.77.386-2.471.76-5.106zM246.925 129.225h1.233c-.411 2.362-.617 3.69-.617 3.983.777-.648 1.576-.971 2.398-.971 1.233 0 1.936 1.095 1.936 1.941 0 .564-.234 2.288-.703 5.17h-1.233c.424-2.872.636-4.434.636-4.685 0-.376-.034-1.312-1.024-1.455-.99-.144-1.817.595-2.162.97l-.739 5.226h-1.249l1.524-10.18z"/></g><g fill="#FFF"><path d="M176.495 167.286h-2.503v-8.07h2.503v8.07zm0 4.246h-2.503v-2.168h2.503v2.168z" fill-rule="nonzero"/><path d="M152.037 161.931h2.002l.1 1.458c.82-1.222 1.884-1.766 3.191-1.63.757.078 2.354.326 2.83 2.475.174.788.137 2.12.124 3.929a421.95 421.95 0 0 0 0 3.649h-2.197v-6.19c0-.727-.203-1.54-.813-1.847-.84-.423-2.419-.246-3.053.82v7.217h-2.184v-9.88zM144.276 164.745c-.677-.005-1.387-.005-2.13 0 0-1.069.765-3.007 3.824-3.007 3.06 0 3.794 2.102 3.877 2.555.083.452-.213 6.798.427 7.52l-2.273.001c-.187-.642-.281-1.117-.281-1.424-.355.433-.965 1.224-1.902 1.514-.937.291-3.066.447-3.938-1.596-.575-1.346-.208-2.86.872-3.554 1.784-1.146 4.236-.763 4.968-.763.094-2.044-.516-2.52-1.902-2.52-.924 0-1.438.424-1.542 1.274zm3.443 2.644a36.882 36.882 0 0 0-2.245.018c-.892.079-1.687.738-1.619 1.678.08 1.12 1.355 1.327 2.353 1.004.836-.272 1.42-.972 1.511-1.27v-1.43zM169.3 162.818l.222-1.256h1.814v10.054c.007 3.505-3.928 4.847-7.544 3.096.208-1.033.322-1.611.342-1.734 1.575.527 5.496 1.843 4.996-2.52-2.25 2.306-4.797.91-5.678-.63-.972-1.7-1.606-6.77 1.523-8.137 1.803-.787 3.244-.412 4.324 1.127zm-.19 1.533c-.428-.648-.702-1.188-2.14-1.188-1.437 0-2.337 1.764-2.025 4.472.312 2.709 3.251 2.709 4.165.995v-4.279zM131.526 157.546h2.112c.039 3.462.058 5.349.058 5.66.515-.801 2.008-1.89 3.601-1.397 2.528.783 2.413 2.432 2.528 3.538.077.738.077 2.893 0 6.465h-2.19c.06-2.949.06-5.044 0-6.285.08-2.15-2.594-2.797-3.997-.875l.058 7.16h-2.17v-14.266zM130.136 158.47v1.678h-4.124v11.563h-2.289v-11.563h-3.867v-1.678zM147.235 158.337h1.647c-.08.786-.632 2.042-2.904 2.042-2.273 0-3.064-1.426-2.891-2.042l1.611-.023c.13.637.559.956 1.288.956.728 0 1.145-.311 1.249-.933zM145.38 158.015h1.183l1.442-1.724h-1.592z"/></g><g fill="#020202"><path d="M28.726 18.184c-.739-.002-.966.01-1.773 0 0-.655.41-2.166 2.745-2.166s2.831 1.69 2.831 2.166-.135 4.252.287 4.754h-1.795s-.29-.339-.29-1.134c-.297 1.134-2.706 2.177-3.881.236-.552-.91-.126-2.217.726-2.653 1.005-.514 2.472-.403 3.154-.403-.012-.682-.087-1.224-.43-1.455-.59-.396-1.574-.116-1.574.655zm2.01 1.64c-.44-.015-.578.005-1.253 0-.207.054-.455 0-.79.434-.306.397-.209 1.056.255 1.233.85.325 1.788-.47 1.788-.698v-.97zM63.32 23.008h-1.905v-6.877h1.72c.063.459.105.785.128.977.47-.862 1.72-1.49 2.994-.92.406.181 1.189.721 1.189 2.527v4.293l-1.853.008v-4.301c0-1.05-.433-1.343-1.122-1.284-.695.059-1.023.332-1.15.558-.041.184-.041 1.857 0 5.02zM24.057 16.777H25.9c0-.944-.483-3.23-3.38-3.23-2.896 0-4.05 1.838-3.876 5.18.174 3.343 1.54 4.396 3.757 4.396 2.218 0 3.5-1.059 3.5-3.18-.809.011-1.031.005-1.843 0 0 .905-.462 1.738-1.657 1.738-1.99 0-1.837-1.893-1.837-3.756 0-1.945.484-2.909 1.956-2.909.962 0 1.475.587 1.538 1.76zM36.814 15.868c.793-.043 1.796.232 2.358.802.62.63 1.065 1.413 1.065 2.707 0 1.146-.23 1.974-.771 2.643-.612.756-1.566 1.103-2.34 1.103-.802 0-1.673-.127-2.404-.803-.6-.553-1.153-1.501-1.098-2.825.061-1.462.532-2.297 1.098-2.825.571-.535 1.243-.756 2.092-.802zm.184 1.445c-.617 0-1.452.29-1.452 2.107 0 1.817.674 2.257 1.452 2.257.778 0 1.429-.723 1.373-2.344-.055-1.62-.756-2.02-1.373-2.02zM56.726 15.868c.793-.043 1.892.376 2.453.946.731-.638.659-1.742.696-1.702.425.024.755.02 1.326 0 .02.595-.187 2.035-1.457 2.542.307.583.405 1.464.405 1.723 0 1.146-.229 1.974-.77 2.643-.613.756-1.567 1.103-2.34 1.103-.803 0-1.673-.127-2.405-.803-.599-.553-1.153-1.501-1.097-2.825.06-1.462.531-2.297 1.097-2.825.572-.535 1.243-.756 2.092-.802zm.163 1.41c-.617 0-1.453.29-1.453 2.107 0 1.817.674 2.257 1.453 2.257.778 0 1.429-.723 1.373-2.344-.056-1.621-.757-2.02-1.373-2.02zM50.428 13.66h1.83v9.224h-1.83v-3.812h-3.841v3.812h-1.82V13.66h1.82v3.97h3.84z"/></g></g></svg>