<svg width="300" height="199" viewBox="0 0 300 199" xmlns="http://www.w3.org/2000/svg"><title>vietnamese high close</title><g fill="none" fill-rule="evenodd"><path fill="#F1F2F2" d="M0 0h300v199H0z"/><path d="M39.125 55.375V74.75H75.25V55.375H39.125zm0-1H75.25V34h1v20.375h36.125V34h1v20.375H149.5V34h1v20.375h36.125V34h1v20.375h36.125V34h1v20.375h36.125V34h1v20.375H299.5v1h-37.625V74.75H299.5v1h-37.625v19.375H299.5v1h-37.625V115.5H299.5v1h-37.625v19.375H299.5v1h-37.625v19.375H299.5v1h-37.625v19.375H299.5v1h-37.625V199h-1v-21.375H224.75V199h-1v-21.375h-36.125V199h-1v-21.375H150.5V199h-1v-21.375h-36.125V199h-1v-21.375H76.25V199h-1v-21.375H39.125V199h-1v-21.375H1.5v-1h36.625V157.25H1.5v-1h36.625v-19.375H1.5v-1h36.625V116.5H1.5v-1h36.625V96.125H1.5v-1h36.625V75.75H1.5v-1h36.625V55.375H1.5v-1h36.625V34h1v20.375zm221.75 1H224.75V74.75h36.125V55.375zm-37.125 0h-36.125V74.75h36.125V55.375zm-37.125 0H150.5V74.75h36.125V55.375zm-37.125 0h-36.125V74.75H149.5V55.375zm-37.125 0H76.25V74.75h36.125V55.375zM39.125 75.75v19.375H75.25V75.75H39.125zm221.75 0H224.75v19.375h36.125V75.75zm-37.125 0h-36.125v19.375h36.125V75.75zm-37.125 0H150.5v19.375h36.125V75.75zm-37.125 0h-36.125v19.375H149.5V75.75zm-37.125 0H76.25v19.375h36.125V75.75zm-73.25 20.375V115.5H75.25V96.125H39.125zm221.75 0H224.75V115.5h36.125V96.125zm-37.125 0h-36.125V115.5h36.125V96.125zm-37.125 0H150.5V115.5h36.125V96.125zm-37.125 0h-36.125V115.5H149.5V96.125zm-37.125 0H76.25V115.5h36.125V96.125zM39.125 116.5v19.375H75.25V116.5H39.125zm221.75 0H224.75v19.375h36.125V116.5zm-37.125 0h-36.125v19.375h36.125V116.5zm-37.125 0H150.5v19.375h36.125V116.5zm-37.125 0h-36.125v19.375H149.5V116.5zm-37.125 0H76.25v19.375h36.125V116.5zm-73.25 20.375v19.375H75.25v-19.375H39.125zm221.75 0H224.75v19.375h36.125v-19.375zm-37.125 0h-36.125v19.375h36.125v-19.375zm-37.125 0H150.5v19.375h36.125v-19.375zm-37.125 0h-36.125v19.375H149.5v-19.375zm-37.125 0H76.25v19.375h36.125v-19.375zm-73.25 20.375v19.375H75.25V157.25H39.125zm221.75 0H224.75v19.375h36.125V157.25zm-37.125 0h-36.125v19.375h36.125V157.25zm-37.125 0H150.5v19.375h36.125V157.25zm-37.125 0h-36.125v19.375H149.5V157.25zm-37.125 0H76.25v19.375h36.125V157.25z" fill="#DFDEDE"/><path stroke="#C2C2C2" stroke-width="2" d="M1 1h298v197H1z"/><path fill="#C2C2C2" d="M0 33h300v2H0z"/><g transform="translate(4 34.051)"><path d="M.9 30.163h290.625" stroke="#15212D" stroke-width="1.133" fill="#D8D8D8" fill-rule="nonzero" stroke-dasharray="7.5"/><path d="M237.863.725V161" stroke="#2A3052" stroke-width="1.211" stroke-linejoin="round"/><path d="M.9 122.75h290.625" stroke="#15212D" stroke-width="1.133" fill="#D8D8D8" fill-rule="nonzero" stroke-dasharray="7.5"/><path stroke="#2A3052" stroke-width="3.633" stroke-linecap="round" stroke-linejoin="round" d="M17.25 82.063L53.115 66l26.494 21.96 43.594-57.247 31.74 113.025 18.105-68.974 27.446-22.991 37.5 71.542"/><ellipse cx="8.137" cy="10.35" rx="8.137" ry="8.475" opacity=".6" transform="translate(229.5 112.25)" fill="#FFF" fill-rule="nonzero"/><ellipse stroke="#E88024" stroke-width="2.422" cx="237.637" cy="122.6" rx="8.137" ry="8.475"/><ellipse cx="10.012" cy="8.475" rx="8.137" ry="8.475" opacity=".6" transform="translate(113.25 22.25)" fill="#FFF" fill-rule="nonzero"/><ellipse stroke="#E88024" stroke-width="2.422" cx="123.263" cy="30.725" rx="8.137" ry="8.475"/></g><g fill="#2A3052"><path d="M17.852 131.248c-.028-.141-.028-.254-.028-.395a2.613 2.613 0 0 1-.762.705c-.31.198-.649.282-1.015.282-.593 0-1.044-.14-1.354-.48a1.72 1.72 0 0 1-.48-1.269c0-.564.226-.987.677-1.297.451-.31 1.044-.48 1.806-.48h1.128v-.564c0-.339-.113-.62-.31-.818-.198-.198-.508-.31-.875-.31-.338 0-.62.084-.818.253a.832.832 0 0 0-.31.62h-.988v-.027c-.028-.423.17-.818.593-1.157.423-.338.959-.536 1.608-.536.649 0 1.185.17 1.58.508.394.338.592.818.592 1.439v2.792c0 .198 0 .395.028.593.028.197.056.395.113.564h-1.1v.056c-.028-.169-.057-.338-.085-.48zm-1.707-.339c.366 0 .733-.084 1.015-.282.31-.197.508-.423.593-.677v-.93h-1.157c-.423 0-.762.112-1.016.31a.946.946 0 0 0-.366.761.93.93 0 0 0 .225.62c.17.114.395.198.706.198zM22.104 124.257v1.478h1.152v.828h-1.152v3.694c0 .296.059.473.177.591.118.119.266.178.473.178.059 0 .118 0 .207-.03.088 0 .147-.03.207-.059l.147.769c-.088.059-.207.118-.354.177-.148.03-.325.059-.473.059a1.448 1.448 0 0 1-1.064-.414c-.266-.266-.385-.71-.385-1.27v-3.695h-.945v-.828h.945v-1.478h1.065zM7.268 131.84v-8.07h2.577c1.357 0 2.78.726 2.78 1.966s-.77 1.53-1.17 1.774c1.107.289 1.661.993 1.661 2.115 0 1.681-1.43 2.215-2.601 2.215H7.268zm1.112-4.661H9.93c.943 0 1.549-.445 1.549-1.409s-.944-1.073-1.598-1.073h-1.5v2.482zm.002.88v2.899h2.2c.648 0 1.475-.45 1.475-1.45s-.821-1.45-1.476-1.45H8.382zM17.41 123.706c.46.013.458.021.76-.012 0 .486-.372 1.137-1.506 1.137s-1.761-.51-1.761-1.137l.827.012c.001.41.313.615.934.615.66-.066.624-.2.746-.615zM16.26 123.55h.557l.863-1.009h-.863z"/><g><path d="M35.68 131.337c-.028-.145-.028-.26-.028-.405a2.68 2.68 0 0 1-.781.723c-.318.203-.665.29-1.041.29-.608 0-1.07-.145-1.389-.492a1.764 1.764 0 0 1-.491-1.302c0-.578.231-1.012.694-1.33.463-.319 1.07-.492 1.851-.492h1.157v-.579c0-.347-.116-.636-.318-.838-.203-.203-.52-.319-.897-.319-.347 0-.636.087-.839.26a.853.853 0 0 0-.318.637h-1.012v-.029c-.029-.434.173-.839.607-1.186s.984-.55 1.649-.55 1.215.174 1.62.521c.405.347.607.84.607 1.476v2.863c0 .202 0 .405.029.607.029.203.058.405.116.579h-1.128v.058a16.503 16.503 0 0 0-.087-.492zm-1.75-.347c.376 0 .752-.087 1.041-.29.319-.202.521-.433.608-.693v-.955h-1.186c-.434 0-.781.116-1.041.318a.97.97 0 0 0-.376.781c0 .26.086.463.231.636.174.116.405.203.723.203zM25.583 128.853c0-.936.198-1.7.595-2.267.396-.567.963-.85 1.672-.85.34 0 .651.056.906.198.255.113.482.312.68.538v-3.202h1.049v8.416h-.85l-.114-.708a2.012 2.012 0 0 1-.68.623c-.3.142-.63.21-.963.199-.708 0-1.247-.255-1.644-.766-.396-.51-.595-1.19-.595-2.04v-.141h-.056zm1.034.114c0 .595.113 1.077.368 1.417.255.34.595.538 1.105.538.312 0 .567-.085.794-.226a1.31 1.31 0 0 0 .51-.595v-2.72a1.485 1.485 0 0 0-.538-.567 1.425 1.425 0 0 0-.766-.227c-.51 0-.878.198-1.105.623-.226.425-.368.964-.368 1.644v.113zM42.144 125.863h1.05v5.944h-1.05v-.882c-.334.43-.883 1.123-1.986 1.006-1.103-.116-1.785-.981-1.79-1.935-.005-.953.005-4.456 0-4.133h1.041v2.252c0 2.634.58 2.926 1.372 2.926.792 0 1.18-.67 1.363-.893-.01-1.251-.01-2.68 0-4.285z"/><path d="M31.554 124.202v.784h-3.496v-.784zM32.671 123.87h-.756l-1.097-1.39h1.097zM33.47 124.877h-1.08l1.547-1.46h.855l1.621 1.46H35.28l-.877-.856z"/></g></g><path d="M18.865 20.374V16.58h-.79v-1.053h.79v-3.624h2.955c1.036 0 1.89.33 2.56.992.671.661 1.006 1.51 1.006 2.545v1.402c0 1.04-.335 1.888-1.006 2.545-.67.657-1.524.986-2.56.986h-2.955zm3.113-3.793h-1.414v2.49h1.256c.559 0 1.009-.209 1.35-.625.341-.417.512-.952.512-1.603v-1.414c0-.647-.17-1.179-.512-1.594-.341-.415-.791-.622-1.35-.622h-1.256v2.315h1.414v1.053zm4.38.588c0-.939.262-1.708.785-2.307.524-.599 1.249-.899 2.176-.899.93 0 1.66.299 2.187.896.528.597.791 1.367.791 2.31v.122c0 .946-.263 1.717-.788 2.312-.525.595-1.252.893-2.179.893-.93 0-1.658-.298-2.184-.893-.525-.595-.788-1.366-.788-2.312v-.122zm1.693.122c0 .574.1 1.034.302 1.381.202.347.528.521.977.521.439 0 .76-.174.963-.524.204-.349.306-.808.306-1.378v-.122c0-.559-.103-1.014-.309-1.367-.205-.353-.53-.53-.971-.53-.438 0-.76.178-.963.533-.204.354-.305.81-.305 1.364v.122zm1.611-5.899h1.89l.012.035-1.611 1.513h-1.449l1.158-1.548zm5.236 2.688l.075.901c.21-.322.467-.572.774-.75.306-.178.65-.268 1.03-.268.635 0 1.132.205 1.489.614.356.41.535 1.056.535 1.94v3.857h-1.705v-3.851c0-.45-.078-.769-.235-.957-.157-.188-.393-.282-.707-.282-.252 0-.474.047-.666.142a1.3 1.3 0 0 0-.474.393v4.555h-1.699V14.08h1.583zm4.92 3.2c0-.994.216-1.794.647-2.403.43-.61 1.035-.914 1.815-.914.352 0 .663.08.93.239.268.159.497.386.687.68l.133-.802h1.46v6.265c0 .818-.267 1.451-.802 1.9-.535.447-1.282.671-2.24.671-.318 0-.655-.044-1.012-.13a4.7 4.7 0 0 1-.989-.359l.285-1.268c.26.124.529.218.806.282.277.064.577.096.899.096.465 0 .807-.097 1.026-.29.22-.194.329-.497.329-.908v-.57a1.9 1.9 0 0 1-.657.54 1.938 1.938 0 0 1-.867.187c-.772 0-1.373-.283-1.803-.85-.43-.565-.646-1.314-.646-2.245v-.122zm1.7.121c0 .551.092.984.276 1.3.184.317.486.475.904.475.26 0 .48-.048.66-.143.18-.095.325-.234.434-.416V15.89a1.161 1.161 0 0 0-.433-.448 1.27 1.27 0 0 0-.649-.157c-.415 0-.717.184-.908.553-.19.368-.285.849-.285 1.442v.122zm5.22-.673h6.016v1.12h-6.016v-1.12zm13.744.842l.011.035c.016.904-.26 1.611-.826 2.123-.566.512-1.347.768-2.344.768-1.016 0-1.836-.327-2.46-.98-.625-.654-.937-1.498-.937-2.534v-1.68c0-1.032.304-1.877.913-2.534.609-.657 1.408-.986 2.397-.986 1.031 0 1.838.252 2.42.756.581.504.864 1.214.849 2.13l-.012.034h-1.652c0-.543-.13-.947-.392-1.213-.262-.265-.666-.398-1.213-.398-.508 0-.905.204-1.19.614-.285.409-.427.937-.427 1.585v1.692c0 .652.15 1.183.45 1.594.3.411.719.617 1.254.617.508 0 .887-.133 1.137-.398.25-.266.375-.674.375-1.225h1.647zm4.81 2.804a3.573 3.573 0 0 1-.16-.454 3.156 3.156 0 0 1-.095-.488c-.175.306-.406.56-.693.762a1.735 1.735 0 0 1-1.024.302c-.659 0-1.167-.17-1.524-.509-.356-.34-.535-.802-.535-1.387 0-.617.238-1.095.713-1.434.475-.34 1.168-.51 2.08-.51h.953v-.5c0-.302-.079-.537-.238-.703-.159-.167-.396-.25-.71-.25-.275 0-.487.066-.637.2-.149.134-.224.317-.224.55h-1.634l-.012-.035c-.027-.531.205-.99.695-1.376.49-.386 1.132-.579 1.923-.579.756 0 1.368.19 1.835.57.467.38.701.925.701 1.635v2.6c0 .295.022.572.067.832.045.26.115.518.212.774h-1.692zM63.74 19.24c.295 0 .559-.074.791-.221.233-.148.392-.319.477-.512v-.89h-.954c-.36 0-.633.089-.817.267a.88.88 0 0 0-.276.657c0 .214.069.383.206.51.138.126.329.189.573.189zm3.98-2.071c0-.939.261-1.708.785-2.307.523-.599 1.248-.899 2.175-.899.931 0 1.66.299 2.187.896.528.597.792 1.367.792 2.31v.122c0 .946-.263 1.717-.789 2.312-.525.595-1.251.893-2.178.893-.93 0-1.659-.298-2.185-.893-.525-.595-.788-1.366-.788-2.312v-.122zm1.692.122c0 .574.1 1.034.303 1.381.201.347.527.521.977.521.438 0 .759-.174.963-.524.203-.349.305-.808.305-1.378v-.122c0-.559-.103-1.014-.308-1.367-.206-.353-.53-.53-.972-.53-.438 0-.759.178-.963.533-.203.354-.305.81-.305 1.364v.122z" fill="#020202"/><path d="M248.395 176.867v-3.638h-.852v-.941h.852v-3.483h2.664c1.022 0 1.854.32 2.494.958.64.639.96 1.46.96 2.464v1.224c0 1.007-.32 1.829-.96 2.464-.64.635-1.472.952-2.494.952h-2.664zm2.775-3.638h-1.43v2.564h1.319c.646 0 1.159-.219 1.54-.656.38-.438.57-1 .57-1.686v-1.235c0-.68-.19-1.238-.57-1.675-.381-.438-.894-.656-1.54-.656h-1.318v2.403h1.429v.941zm4.435.587c0-.893.244-1.625.733-2.195.49-.57 1.159-.856 2.008-.856.86 0 1.534.285 2.023.856.49.57.734 1.302.734 2.195v.116c0 .901-.244 1.635-.734 2.201-.489.567-1.16.85-2.012.85-.857 0-1.53-.284-2.019-.852-.489-.569-.733-1.302-.733-2.199v-.116zm1.345.116c0 .587.115 1.063.344 1.429.228.365.583.548 1.063.548.468 0 .82-.184 1.054-.55.235-.368.352-.843.352-1.427v-.116c0-.572-.117-1.044-.352-1.415-.234-.37-.59-.556-1.065-.556-.47 0-.819.185-1.05.556-.23.371-.346.843-.346 1.415v.116zm1.827-5.609h1.523l.011.033-1.511 1.44h-1.08l1.057-1.473zm4.718 2.553l.078.864c.195-.307.442-.546.739-.717a1.972 1.972 0 0 1 1.005-.258c.624 0 1.11.192 1.459.576.349.384.523.984.523 1.8v3.726h-1.345v-3.715c0-.466-.09-.796-.272-.992-.18-.195-.454-.293-.82-.293-.287 0-.536.054-.747.163-.21.11-.378.26-.504.452v4.385h-1.345v-5.991h1.23zm4.995 3.078c0-.956.204-1.726.614-2.311.41-.585.986-.878 1.728-.878.358 0 .672.077.944.23.271.153.5.374.69.662l.132-.781h1.119v5.991c0 .772-.239 1.368-.715 1.788-.476.421-1.151.632-2.026.632-.292 0-.607-.042-.944-.125a4.386 4.386 0 0 1-.917-.33l.216-1.057c.229.115.485.204.767.269.282.064.571.097.867.097.487 0 .843-.105 1.068-.313.225-.209.338-.53.338-.961v-.615c-.188.24-.41.422-.667.546a2.01 2.01 0 0 1-.883.185c-.735 0-1.307-.267-1.717-.803-.41-.535-.614-1.238-.614-2.11v-.116zm1.34.117c0 .553.107.995.32 1.323.215.329.553.493 1.014.493.288 0 .53-.06.728-.18.198-.12.357-.293.479-.518v-2.624a1.438 1.438 0 0 0-.484-.512 1.314 1.314 0 0 0-.712-.186c-.461 0-.801.193-1.019.579-.218.385-.326.888-.326 1.508v.117zM125.51 48.683l.013.037c.016.911-.28 1.647-.889 2.208-.608.561-1.43.842-2.465.842-1.052 0-1.905-.355-2.559-1.065-.654-.71-.981-1.618-.981-2.724v-1.72c0-1.101.323-2.01.969-2.723.645-.715 1.488-1.072 2.527-1.072 1.064 0 1.902.271 2.513.814.61.542.907 1.285.89 2.23l-.012.037h-1.46c0-.605-.163-1.068-.49-1.388-.327-.321-.807-.482-1.44-.482-.613 0-1.099.244-1.457.73-.358.487-.537 1.1-.537 1.841v1.733c0 .75.182 1.368.546 1.854.365.487.861.73 1.49.73.618 0 1.087-.162 1.407-.485.321-.322.482-.788.482-1.397h1.453zm5.36 2.956a5.57 5.57 0 0 1-.134-.497 3.552 3.552 0 0 1-.071-.484 2.588 2.588 0 0 1-.814.792c-.34.213-.718.32-1.136.32-.7 0-1.237-.18-1.612-.54-.375-.36-.562-.856-.562-1.485 0-.65.257-1.156.77-1.518.514-.363 1.236-.544 2.168-.544h1.174v-.59c0-.352-.103-.627-.308-.826-.205-.199-.502-.298-.891-.298-.344 0-.617.082-.82.245a.78.78 0 0 0-.304.637l-1.454.006-.006-.037c-.029-.53.208-1 .711-1.41.503-.41 1.159-.615 1.966-.615.783 0 1.414.199 1.894.596.48.398.72.97.72 1.715v2.987c0 .277.02.543.057.798.037.255.097.504.18.748h-1.528zm-1.845-1.08c.377 0 .718-.096 1.022-.286.304-.19.506-.408.606-.652v-.994h-1.2c-.438 0-.782.109-1.03.326-.249.218-.373.473-.373.767 0 .257.084.46.252.612.168.151.409.227.723.227zm4.435-2.342c0-1.002.274-1.823.823-2.462.548-.64 1.299-.96 2.251-.96.965 0 1.721.32 2.27.96.549.64.823 1.46.823 2.462v.13c0 1.011-.274 1.834-.823 2.47-.549.635-1.301.953-2.258.953-.96 0-1.715-.319-2.263-.957-.549-.637-.823-1.46-.823-2.465v-.13zm1.509.13c0 .659.128 1.193.385 1.603.257.41.654.615 1.192.615.526 0 .92-.206 1.184-.618.263-.412.394-.945.394-1.6v-.13c0-.642-.131-1.17-.394-1.587-.263-.416-.662-.624-1.196-.624-.526 0-.918.208-1.177.624-.259.417-.388.945-.388 1.587v.13z" fill="#2A3052"/></g></svg>