<?xml version="1.0" encoding="UTF-8"?>
<svg width="299px" height="197px" viewBox="0 0 299 197" version="1.1" xmlns="http://www.w3.org/2000/svg" xmlns:xlink="http://www.w3.org/1999/xlink">
    <!-- Generator: Sketch 53.1 (72631) - https://sketchapp.com -->
    <title>low-tick</title>
    <desc>Created with Sketch.</desc>
    <g id="Page-1" stroke="none" stroke-width="1" fill="none" fill-rule="evenodd">
        <g id="low-tick" fill-rule="nonzero">
            <polygon id="Path" fill="#F1F2F2" points="299 0 299 197 0 197 0 0"></polygon>
            <path d="M2,2 L2,195 L297,195 L297,2 L2,2 Z M0,0 L299,0 L299,197 L0,197 L0,0 Z" id="bg" fill="#C2C2C2"></path>
            <path d="M4,53.0217811 L4,51.8127599 L294,51.8127599 L294,53.0227672 L4,53.0227672 L4,53.0217811 Z M4,93.894782 L4,92.6847747 L294,92.6847747 L294,93.894782 L4,93.894782 Z M4,134.764824 L4,133.554817 L294,133.554817 L294,134.764824 L4,134.764824 Z M4,175.599365 L4,174.388372 L294,174.388372 L294,175.599365 L4,175.599365 Z M38.4196121,32 L39.6286305,32 L39.6286305,193 L38.4205966,193 L38.4205966,32 L38.4196121,32 Z M75.130255,32 L76.3382889,32 L76.3382889,193 L75.130255,193 L75.130255,32 Z M111.801516,32 L113.00955,32 L113.00955,193 L111.801516,193 L111.801516,32 Z M148.509205,32 L149.717239,32 L149.717239,193 L148.509205,193 L148.509205,32 Z M185.179482,32 L186.388501,32 L186.388501,193 L185.179482,193 L185.179482,32 Z M221.850743,32 L223.058777,32 L223.058777,193 L221.850743,193 L221.850743,32 Z M4,114.311066 L4,113.101059 L294,113.101059 L294,114.311066 L4,114.311066 Z" id="Shape" fill="#DFDEDE"></path>
            <polygon id="Path" fill="#C2C2C2" points="2 30 2 28 298 28 298 30"></polygon>
            <polygon id="Path" fill="#15212D" points="1.448 164.412 1.448 163.264 296 163.264 296 164.412"></polygon>
            <path d="M135.159919,109.248094 L89.8355119,145.119588 C89.2311046,145.59794 88.3926862,145.649125 87.7345783,145.247849 L37.0655783,114.352849 C36.1974701,113.823527 35.9228295,112.690686 36.4521512,111.822578 C36.9814729,110.95447 38.1143136,110.679829 38.9824217,111.209151 L88.5562737,141.436394 L134.179488,105.328412 C134.92036,104.742056 135.984833,104.811735 136.642947,105.489666 L184.701059,154.994868 L244.485659,68.8701881 C245.065454,68.0349451 246.212569,67.8278637 247.047812,68.4076588 C247.883055,68.9874539 248.090136,70.1345689 247.510341,70.9698119 L186.450341,158.931812 C185.789558,159.883725 184.424193,159.995777 183.617053,159.164334 L135.159919,109.248094 Z" id="Path" fill="#2A3052"></path>
            <ellipse id="Oval" fill="#FFFFFF" opacity="0.6" cx="185.376" cy="158.21" rx="8.247" ry="8.633"></ellipse>
            <path d="M185.376,168.0705 C180.1305,168.0705 175.9015,163.643562 175.9015,158.21 C175.9015,152.776438 180.1305,148.3495 185.376,148.3495 C190.6215,148.3495 194.8505,152.776438 194.8505,158.21 C194.8505,163.643562 190.6215,168.0705 185.376,168.0705 Z M185.376,165.6155 C189.239885,165.6155 192.3955,162.312187 192.3955,158.21 C192.3955,154.107813 189.239885,150.8045 185.376,150.8045 C181.512115,150.8045 178.3565,154.107813 178.3565,158.21 C178.3565,162.312187 181.512115,165.6155 185.376,165.6155 Z" id="Oval" fill="#E88024"></path>
            <path d="M24.3896484,18.6523438 C23.9941386,19.1259789 23.4350622,19.4934069 22.7124023,19.7546387 C21.9897425,20.0158704 21.1889692,20.1464844 20.3100586,20.1464844 C19.3872024,20.1464844 18.5778843,19.9450704 17.8820801,19.5422363 C17.1862758,19.1394023 16.6491718,18.5546913 16.270752,17.7880859 C15.8923321,17.0214805 15.6982422,16.1206106 15.6884766,15.0854492 L15.6884766,14.3603516 C15.6884766,13.2958931 15.8679181,12.3742715 16.2268066,11.595459 C16.5856952,10.8166465 17.1032681,10.2209493 17.779541,9.80834961 C18.4558139,9.39574989 19.2480423,9.18945312 20.15625,9.18945312 C21.4209048,9.18945312 22.4096644,9.49096378 23.1225586,10.0939941 C23.8354528,10.6970245 24.2578118,11.5747013 24.3896484,12.7270508 L22.2509766,12.7270508 C22.1533198,12.1166962 21.9372575,11.6699233 21.6027832,11.3867188 C21.2683089,11.1035142 20.8081084,10.9619141 20.222168,10.9619141 C19.4750939,10.9619141 18.906252,11.242673 18.515625,11.8041992 C18.124998,12.3657255 17.9272461,13.2006781 17.9223633,14.309082 L17.9223633,14.9902344 C17.9223633,16.108404 18.1347635,16.9531221 18.5595703,17.5244141 C18.9843771,18.095706 19.6069295,18.3813477 20.4272461,18.3813477 C21.2524455,18.3813477 21.8408186,18.2055682 22.1923828,17.8540039 L22.1923828,16.015625 L20.1928711,16.015625 L20.1928711,14.3969727 L24.3896484,14.3969727 L24.3896484,18.6523438 Z M28.2641602,20 L26.1401367,20 L26.1401367,12.0751953 L28.2641602,12.0751953 L28.2641602,20 Z M26.015625,10.0244141 C26.015625,9.70702966 26.1218251,9.44580181 26.3342285,9.24072266 C26.5466319,9.03564351 26.8359357,8.93310547 27.2021484,8.93310547 C27.5634784,8.93310547 27.8515614,9.03564351 28.0664062,9.24072266 C28.2812511,9.44580181 28.3886719,9.70702966 28.3886719,10.0244141 C28.3886719,10.3466813 28.2800304,10.6103505 28.0627441,10.8154297 C27.8454579,11.0205088 27.5585955,11.1230469 27.2021484,11.1230469 C26.8457013,11.1230469 26.558839,11.0205088 26.3415527,10.8154297 C26.1242665,10.6103505 26.015625,10.3466813 26.015625,10.0244141 Z M34.5996094,20 C34.5019526,19.8095694 34.4311526,19.5727553 34.387207,19.2895508 C33.8745092,19.8608427 33.2080119,20.1464844 32.3876953,20.1464844 C31.6113242,20.1464844 30.9680201,19.9218772 30.4577637,19.4726562 C29.9475072,19.0234353 29.6923828,18.4570347 29.6923828,17.7734375 C29.6923828,16.9335896 30.003659,16.2890647 30.6262207,15.8398438 C31.2487824,15.3906228 32.1484316,15.1635742 33.3251953,15.1586914 L34.2993164,15.1586914 L34.2993164,14.7045898 C34.2993164,14.3383771 34.2053232,14.0454113 34.017334,13.8256836 C33.8293448,13.6059559 33.5327169,13.4960938 33.1274414,13.4960938 C32.7709943,13.4960938 32.4914561,13.5815421 32.2888184,13.7524414 C32.0861806,13.9233407 31.9848633,14.1577134 31.9848633,14.4555664 L29.8681641,14.4555664 C29.8681641,13.9965797 30.0097642,13.5717793 30.2929688,13.1811523 C30.5761733,12.7905254 30.9765599,12.484132 31.4941406,12.2619629 C32.0117213,12.0397938 32.5927702,11.9287109 33.2373047,11.9287109 C34.2138721,11.9287109 34.9890108,12.1740698 35.5627441,12.6647949 C36.1364775,13.15552 36.4233398,13.8452104 36.4233398,14.7338867 L36.4233398,18.1689453 C36.4282227,18.9209022 36.5332021,19.4897442 36.7382812,19.8754883 L36.7382812,20 L34.5996094,20 Z M32.8491211,18.527832 C33.1616227,18.527832 33.4497057,18.4582526 33.7133789,18.3190918 C33.9770521,18.1799309 34.1723626,17.9931652 34.2993164,17.7587891 L34.2993164,16.3964844 L33.5083008,16.3964844 C32.4487252,16.3964844 31.884766,16.7626917 31.8164062,17.4951172 L31.809082,17.6196289 C31.809082,17.8833021 31.9018545,18.1005851 32.0874023,18.2714844 C32.2729501,18.4423837 32.5268539,18.527832 32.8491211,18.527832 Z M37.7197266,15.9643555 C37.7197266,15.1782187 37.8710922,14.4775421 38.1738281,13.8623047 C38.476564,13.2470672 38.9123507,12.7709978 39.4812012,12.434082 C40.0500517,12.0971663 40.7104455,11.9287109 41.4624023,11.9287109 C42.5317436,11.9287109 43.4045376,12.2558561 44.0808105,12.9101562 C44.7570835,13.5644564 45.134277,14.4531194 45.2124023,15.5761719 L45.2270508,16.1181641 C45.2270508,17.3339905 44.8876987,18.3093225 44.2089844,19.0441895 C43.53027,19.7790564 42.6196346,20.1464844 41.4770508,20.1464844 C40.3344669,20.1464844 39.4226108,19.7802771 38.7414551,19.0478516 C38.0602993,18.315426 37.7197266,17.3193422 37.7197266,16.0595703 L37.7197266,15.9643555 Z M39.8364258,16.1181641 C39.8364258,16.8701209 39.9780259,17.4450664 40.2612305,17.8430176 C40.544435,18.2409688 40.9497044,18.4399414 41.4770508,18.4399414 C41.9897487,18.4399414 42.3901353,18.2434102 42.6782227,17.8503418 C42.96631,17.4572734 43.1103516,16.8286176 43.1103516,15.9643555 C43.1103516,15.2270471 42.96631,14.6557637 42.6782227,14.2504883 C42.3901353,13.8452128 41.9848659,13.6425781 41.4624023,13.6425781 C40.9448216,13.6425781 40.544435,13.8439921 40.2612305,14.2468262 C39.9780259,14.6496602 39.8364258,15.2734333 39.8364258,16.1181641 Z M58.2348633,11.0791016 L57.0776367,11.0791016 L57.0776367,20 L55.1660156,20 L55.0634766,19.1577148 C54.5361302,19.8168978 53.857426,20.1464844 53.0273438,20.1464844 C52.0947219,20.1464844 51.3464384,19.7790564 50.7824707,19.0441895 C50.218503,18.3093225 49.9365234,17.2876042 49.9365234,15.9790039 C49.9365234,14.7436462 50.2136203,13.7597693 50.7678223,13.0273438 C51.3220243,12.2949182 52.0800733,11.9287109 53.0419922,11.9287109 C53.8134804,11.9287109 54.4506811,12.216794 54.9536133,12.7929688 L54.9536133,11.0791016 L53.1079102,11.0791016 L53.1079102,9.73876953 L54.9536133,9.73876953 L54.9536133,8.75 L57.0776367,8.75 L57.0776367,9.73876953 L58.2348633,9.73876953 L58.2348633,11.0791016 Z M52.0532227,16.1328125 C52.0532227,16.8750037 52.1826159,17.4438457 52.4414062,17.8393555 C52.7001966,18.2348653 53.0761694,18.4326172 53.5693359,18.4326172 C54.2236361,18.4326172 54.6850573,18.156741 54.9536133,17.6049805 L54.9536133,14.4775391 C54.6899401,13.9257785 54.2334017,13.6499023 53.5839844,13.6499023 C52.5634715,13.6499023 52.0532227,14.4775308 52.0532227,16.1328125 Z M59.3920898,15.9643555 C59.3920898,15.1782187 59.5434555,14.4775421 59.8461914,13.8623047 C60.1489273,13.2470672 60.584714,12.7709978 61.1535645,12.434082 C61.722415,12.0971663 62.3828087,11.9287109 63.1347656,11.9287109 C64.2041069,11.9287109 65.0769009,12.2558561 65.7531738,12.9101562 C66.4294467,13.5644564 66.8066402,14.4531194 66.8847656,15.5761719 L66.8994141,16.1181641 C66.8994141,17.3339905 66.560062,18.3093225 65.8813477,19.0441895 C65.2026333,19.7790564 64.2919979,20.1464844 63.1494141,20.1464844 C62.0068302,20.1464844 61.0949741,19.7802771 60.4138184,19.0478516 C59.7326626,18.315426 59.3920898,17.3193422 59.3920898,16.0595703 L59.3920898,15.9643555 Z M61.5087891,16.1181641 C61.5087891,16.8701209 61.6503892,17.4450664 61.9335938,17.8430176 C62.2167983,18.2409688 62.6220677,18.4399414 63.1494141,18.4399414 C63.6621119,18.4399414 64.0624986,18.2434102 64.3505859,17.8503418 C64.6386733,17.4572734 64.7827148,16.8286176 64.7827148,15.9643555 C64.7827148,15.2270471 64.6386733,14.6557637 64.3505859,14.2504883 C64.0624986,13.8452128 63.6572292,13.6425781 63.1347656,13.6425781 C62.6171849,13.6425781 62.2167983,13.8439921 61.9335938,14.2468262 C61.6503892,14.6496602 61.5087891,15.2734333 61.5087891,16.1181641 Z M65.9399414,10.8007812 L65.9399414,10.8886719 L64.2553711,10.8886719 L63.1274414,9.82666016 L61.9995117,10.8886719 L60.3442383,10.8886719 L60.3442383,10.7714844 L62.512207,8.75 L63.7426758,8.75 L65.9399414,10.8007812 Z M61.9555664,21.7578125 C61.9555664,21.4648423 62.0654286,21.2231455 62.2851562,21.0327148 C62.5048839,20.8422842 62.7880842,20.7470703 63.1347656,20.7470703 C63.4863299,20.7470703 63.7719716,20.8422842 63.9916992,21.0327148 C64.2114269,21.2231455 64.3212891,21.4648423 64.3212891,21.7578125 C64.3212891,22.0458999 64.2126476,22.2875967 63.9953613,22.4829102 C63.7780751,22.6782236 63.4912127,22.7758789 63.1347656,22.7758789 C62.7783185,22.7758789 62.4926769,22.6782236 62.277832,22.4829102 C62.0629872,22.2875967 61.9555664,22.0458999 61.9555664,21.7578125 Z M70.1513672,12.0751953 L70.2172852,12.9907227 C70.7836942,12.2827113 71.542964,11.9287109 72.4951172,11.9287109 C73.3349651,11.9287109 73.9599589,12.1752905 74.3701172,12.668457 C74.7802755,13.1616236 74.9902343,13.8989209 75,14.8803711 L75,20 L72.8833008,20 L72.8833008,14.9316406 C72.8833008,14.4824196 72.7856455,14.1564952 72.590332,13.9538574 C72.3950186,13.7512197 72.0703148,13.6499023 71.6162109,13.6499023 C71.0205048,13.6499023 70.573732,13.9038061 70.2758789,14.4116211 L70.2758789,20 L68.1591797,20 L68.1591797,12.0751953 L70.1513672,12.0751953 Z M76.2963867,15.9790039 C76.2963867,14.7631775 76.5856905,13.7841834 77.1643066,13.0419922 C77.7429228,12.299801 78.5229443,11.9287109 79.5043945,11.9287109 C80.3735395,11.9287109 81.0498023,12.2265595 81.5332031,12.8222656 L81.6210938,12.0751953 L83.5400391,12.0751953 L83.5400391,19.7363281 C83.5400391,20.429691 83.3825699,21.0327123 83.067627,21.5454102 C82.752684,22.058108 82.3095732,22.4487291 81.7382812,22.7172852 C81.1669893,22.9858412 80.4980507,23.1201172 79.7314453,23.1201172 C79.1503877,23.1201172 78.5839871,23.0041516 78.0322266,22.7722168 C77.480466,22.540282 77.0629897,22.2412128 76.7797852,21.875 L77.7172852,20.5859375 C78.2446315,21.1767608 78.8842736,21.472168 79.6362305,21.472168 C80.1977567,21.472168 80.6347641,21.322023 80.9472656,21.0217285 C81.2597672,20.721434 81.4160156,20.2954129 81.4160156,19.7436523 L81.4160156,19.3188477 C80.9277319,19.8706082 80.2856485,20.1464844 79.4897461,20.1464844 C78.5375929,20.1464844 77.7673369,19.7741736 77.1789551,19.029541 C76.5905732,18.2849084 76.2963867,17.2973694 76.2963867,16.0668945 L76.2963867,15.9790039 Z M78.4130859,16.1328125 C78.4130859,16.8505895 78.5571275,17.413328 78.8452148,17.8210449 C79.1333022,18.2287618 79.5288061,18.4326172 80.0317383,18.4326172 C80.6762728,18.4326172 81.1376939,18.1909204 81.4160156,17.7075195 L81.4160156,14.375 C81.1328111,13.8915991 80.6762727,13.6499023 80.0463867,13.6499023 C79.5385717,13.6499023 79.1394057,13.8574198 78.848877,14.2724609 C78.5583482,14.6875021 78.4130859,15.3076131 78.4130859,16.1328125 Z M91.4355469,10.1269531 L91.4355469,12.0751953 L92.7905273,12.0751953 L92.7905273,13.6279297 L91.4355469,13.6279297 L91.4355469,17.5830078 C91.4355469,17.875978 91.4916987,18.0859369 91.6040039,18.2128906 C91.7163092,18.3398444 91.9311508,18.4033203 92.2485352,18.4033203 C92.4829113,18.4033203 92.6904288,18.3862306 92.8710938,18.3520508 L92.8710938,19.9560547 C92.4560526,20.0830084 92.0288108,20.1464844 91.5893555,20.1464844 C90.104973,20.1464844 89.3481447,19.3969802 89.3188477,17.8979492 L89.3188477,13.6279297 L88.1616211,13.6279297 L88.1616211,12.0751953 L89.3188477,12.0751953 L89.3188477,10.1269531 L91.4355469,10.1269531 Z M96.0351562,12.9394531 C96.5966825,12.2656216 97.3022418,11.9287109 98.1518555,11.9287109 C99.8706141,11.9287109 100.742187,12.9272361 100.766602,14.9243164 L100.766602,20 L98.6499023,20 L98.6499023,14.9829102 C98.6499023,14.5288063 98.5522471,14.1931163 98.3569336,13.9758301 C98.1616201,13.7585438 97.8369163,13.6499023 97.3828125,13.6499023 C96.7626922,13.6499023 96.313478,13.8891578 96.0351562,14.3676758 L96.0351562,20 L93.918457,20 L93.918457,8.75 L96.0351562,8.75 L96.0351562,12.9394531 Z M106.955566,20 C106.85791,19.8095694 106.78711,19.5727553 106.743164,19.2895508 C106.230466,19.8608427 105.563969,20.1464844 104.743652,20.1464844 C103.967281,20.1464844 103.323977,19.9218772 102.813721,19.4726562 C102.303464,19.0234353 102.04834,18.4570347 102.04834,17.7734375 C102.04834,16.9335896 102.359616,16.2890647 102.982178,15.8398438 C103.604739,15.3906228 104.504389,15.1635742 105.681152,15.1586914 L106.655273,15.1586914 L106.655273,14.7045898 C106.655273,14.3383771 106.56128,14.0454113 106.373291,13.8256836 C106.185302,13.6059559 105.888674,13.4960938 105.483398,13.4960938 C105.126951,13.4960938 104.847413,13.5815421 104.644775,13.7524414 C104.442138,13.9233407 104.34082,14.1577134 104.34082,14.4555664 L102.224121,14.4555664 C102.224121,13.9965797 102.365721,13.5717793 102.648926,13.1811523 C102.93213,12.7905254 103.332517,12.484132 103.850098,12.2619629 C104.367678,12.0397938 104.948727,11.9287109 105.593262,11.9287109 C106.569829,11.9287109 107.344968,12.1740698 107.918701,12.6647949 C108.492435,13.15552 108.779297,13.8452104 108.779297,14.7338867 L108.779297,18.1689453 C108.78418,18.9209022 108.889159,19.4897442 109.094238,19.8754883 L109.094238,20 L106.955566,20 Z M105.205078,18.527832 C105.51758,18.527832 105.805663,18.4582526 106.069336,18.3190918 C106.333009,18.1799309 106.52832,17.9931652 106.655273,17.7587891 L106.655273,16.3964844 L105.864258,16.3964844 C104.804682,16.3964844 104.240723,16.7626917 104.172363,17.4951172 L104.165039,17.6196289 C104.165039,17.8833021 104.257812,18.1005851 104.443359,18.2714844 C104.628907,18.4423837 104.882811,18.527832 105.205078,18.527832 Z M104.978027,9.3359375 L106.171875,9.3359375 L108.259277,11.0205078 L106.677246,11.0205078 L105.571289,10.0976562 L104.465332,11.0205078 L102.890625,11.0205078 L104.978027,9.3359375 Z M108.911133,8.046875 L110.603027,8.046875 L108.94043,10.0390625 L107.717285,10.0390625 L108.911133,8.046875 Z M117.539062,16.1108398 C117.539062,17.3315491 117.261966,18.3093225 116.707764,19.0441895 C116.153562,19.7790564 115.405278,20.1464844 114.462891,20.1464844 C113.662105,20.1464844 113.015139,19.8681668 112.521973,19.3115234 L112.521973,23.046875 L110.405273,23.046875 L110.405273,12.0751953 L112.368164,12.0751953 L112.441406,12.8515625 C112.954104,12.236325 113.623043,11.9287109 114.448242,11.9287109 C115.42481,11.9287109 116.184079,12.2900354 116.726074,13.0126953 C117.268069,13.7353552 117.539062,14.731439 117.539062,16.0009766 L117.539062,16.1108398 Z M115.422363,15.9570312 C115.422363,15.2197229 115.291749,14.6508809 115.030518,14.2504883 C114.769286,13.8500957 114.389651,13.6499023 113.891602,13.6499023 C113.227536,13.6499023 112.770997,13.9038061 112.521973,14.4116211 L112.521973,17.65625 C112.780763,18.1787135 113.242184,18.4399414 113.90625,18.4399414 C114.916997,18.4399414 115.422363,17.612313 115.422363,15.9570312 Z" id="Giaođộngthấp" fill="#000000"></path>
            <path d="M16,103.253418 L16,92.5893555 L19.4863281,92.5893555 C20.6435605,92.5893555 21.5139131,92.8286109 22.0974121,93.3071289 C22.6809111,93.7856469 22.9726562,94.4936477 22.9726562,95.4311523 C22.9726562,95.9292017 22.8310561,96.3698711 22.5478516,96.7531738 C22.264647,97.1364765 21.8789087,97.4331044 21.390625,97.6430664 C21.9667998,97.8042 22.4221175,98.1105934 22.7565918,98.5622559 C23.0910661,99.0139183 23.2583008,99.552243 23.2583008,100.177246 C23.2583008,101.134282 22.9482453,101.886228 22.328125,102.433105 C21.7080047,102.979983 20.8315486,103.253418 19.6987305,103.253418 L16,103.253418 Z M17.40625,98.265625 L17.40625,102.103516 L19.7280273,102.103516 C20.3823275,102.103516 20.8986797,101.93384 21.2770996,101.594482 C21.6555195,101.255125 21.8447266,100.787601 21.8447266,100.191895 C21.8447266,98.9077084 21.1464914,98.265625 19.75,98.265625 L17.40625,98.265625 Z M17.40625,97.1376953 L19.5302734,97.1376953 C20.1455109,97.1376953 20.6374493,96.9838883 21.0061035,96.6762695 C21.3747577,96.3686508 21.559082,95.9511745 21.559082,95.4238281 C21.559082,94.8378877 21.3881853,94.4118666 21.0463867,94.145752 C20.7045881,93.8796373 20.1845738,93.746582 19.4863281,93.746582 L17.40625,93.746582 L17.40625,97.1376953 Z M30.0185547,103.253418 C29.9404293,103.097167 29.8769534,102.81885 29.828125,102.418457 C29.198239,103.072757 28.4462934,103.399902 27.5722656,103.399902 C26.7910117,103.399902 26.150149,103.178957 25.6496582,102.737061 C25.1491674,102.295164 24.8989258,101.734867 24.8989258,101.056152 C24.8989258,100.230953 25.2126433,99.5900902 25.8400879,99.1335449 C26.4675324,98.6769997 27.350092,98.4487305 28.487793,98.4487305 L29.8061523,98.4487305 L29.8061523,97.8261719 C29.8061523,97.3525367 29.6645522,96.9753432 29.3813477,96.6945801 C29.0981431,96.413817 28.6806668,96.2734375 28.1289062,96.2734375 C27.6455054,96.2734375 27.240236,96.3955066 26.9130859,96.6396484 C26.5859359,96.8837903 26.4223633,97.1791975 26.4223633,97.5258789 L25.0600586,97.5258789 C25.0600586,97.1303691 25.200438,96.7482929 25.4812012,96.3796387 C25.7619643,96.0109845 26.1428199,95.7192394 26.6237793,95.5043945 C27.1047387,95.2895497 27.6332979,95.1821289 28.2094727,95.1821289 C29.1225632,95.1821289 29.837888,95.4103981 30.3554688,95.8669434 C30.8730495,96.3234886 31.1416015,96.9521444 31.1611328,97.7529297 L31.1611328,101.400391 C31.1611328,102.127933 31.2539053,102.706541 31.4394531,103.13623 L31.4394531,103.253418 L30.0185547,103.253418 Z M27.7700195,102.220703 C28.1948263,102.220703 28.5976543,102.110841 28.9785156,101.891113 C29.3593769,101.671386 29.6352531,101.385744 29.8061523,101.03418 L29.8061523,99.4082031 L28.7441406,99.4082031 C27.0839761,99.4082031 26.2539062,99.8940381 26.2539062,100.865723 C26.2539062,101.290529 26.3955064,101.622557 26.6787109,101.861816 C26.9619155,102.101075 27.3256814,102.220703 27.7700195,102.220703 Z M30.5385742,92.6479492 C30.5385742,93.1118187 30.3334981,93.4829088 29.9233398,93.7612305 C29.5131815,94.0395522 28.9785189,94.1787109 28.3193359,94.1787109 C27.6552701,94.1787109 27.1181661,94.0395522 26.7080078,93.7612305 C26.2978495,93.4829088 26.0927734,93.1118187 26.0927734,92.6479492 L27.2060547,92.6479492 C27.2060547,92.9165052 27.3024893,93.1252434 27.4953613,93.2741699 C27.6882334,93.4230964 27.9628888,93.4975586 28.3193359,93.4975586 C28.6660174,93.4975586 28.9357901,93.4206551 29.1286621,93.2668457 C29.3215342,93.1130363 29.4179688,92.9067396 29.4179688,92.6479492 L30.5385742,92.6479492 Z M28.7148438,91.0512695 L29.8354492,91.0512695 L28.6342773,92.5014648 L27.887207,92.5014648 L28.7148438,91.0512695 Z M35.1235352,93.409668 L35.1235352,95.3286133 L36.6030273,95.3286133 L36.6030273,96.3759766 L35.1235352,96.3759766 L35.1235352,101.290527 C35.1235352,101.607912 35.1894525,101.845946 35.3212891,102.004639 C35.4531257,102.163331 35.6777328,102.242676 35.9951172,102.242676 C36.151368,102.242676 36.3662096,102.213379 36.6396484,102.154785 L36.6396484,103.253418 C36.2832013,103.351075 35.9365251,103.399902 35.5996094,103.399902 C34.9941376,103.399902 34.5375992,103.216799 34.2299805,102.850586 C33.9223617,102.484373 33.7685547,101.964359 33.7685547,101.290527 L33.7685547,96.3759766 L32.3256836,96.3759766 L32.3256836,95.3286133 L33.7685547,95.3286133 L33.7685547,93.409668 L35.1235352,93.409668 Z M49.6328125,94.2226562 L48.2558594,94.2226562 L48.2558594,103.253418 L47.0107422,103.253418 L46.9448242,102.403809 C46.4028293,103.067874 45.6484423,103.399902 44.6816406,103.399902 C43.7636673,103.399902 43.0153838,103.02393 42.4367676,102.271973 C41.8581514,101.520016 41.5688477,100.53858 41.5688477,99.3276367 L41.5688477,99.2250977 C41.5688477,98.0092713 41.8569307,97.0314978 42.4331055,96.291748 C43.0092802,95.5519983 43.7636672,95.1821289 44.6962891,95.1821289 C45.6240281,95.1821289 46.358884,95.4995085 46.9008789,96.1342773 L46.9008789,94.2226562 L44.9672852,94.2226562 L44.9672852,93.1166992 L46.9008789,93.1166992 L46.9008789,92.003418 L48.2558594,92.003418 L48.2558594,93.1166992 L49.6328125,93.1166992 L49.6328125,94.2226562 Z M42.9238281,99.3789062 C42.9238281,100.277348 43.1093731,100.980466 43.4804688,101.488281 C43.8515644,101.996096 44.3642545,102.25 45.0185547,102.25 C45.877934,102.25 46.5053691,101.864262 46.9008789,101.092773 L46.9008789,97.4526367 C46.4956034,96.7055627 45.8730511,96.3320312 45.0332031,96.3320312 C44.3691373,96.3320312 43.8515644,96.5883763 43.4804688,97.1010742 C43.1093731,97.6137721 42.9238281,98.3730418 42.9238281,99.3789062 Z M55.7485352,103.253418 C55.6704098,103.097167 55.6069338,102.81885 55.5581055,102.418457 C54.9282195,103.072757 54.1762739,103.399902 53.3022461,103.399902 C52.5209922,103.399902 51.8801295,103.178957 51.3796387,102.737061 C50.8791479,102.295164 50.6289062,101.734867 50.6289062,101.056152 C50.6289062,100.230953 50.9426238,99.5900902 51.5700684,99.1335449 C52.1975129,98.6769997 53.0800724,98.4487305 54.2177734,98.4487305 L55.5361328,98.4487305 L55.5361328,97.8261719 C55.5361328,97.3525367 55.3945327,96.9753432 55.1113281,96.6945801 C54.8281236,96.413817 54.4106473,96.2734375 53.8588867,96.2734375 C53.3754859,96.2734375 52.9702165,96.3955066 52.6430664,96.6396484 C52.3159163,96.8837903 52.1523438,97.1791975 52.1523438,97.5258789 L50.7900391,97.5258789 C50.7900391,97.1303691 50.9304185,96.7482929 51.2111816,96.3796387 C51.4919448,96.0109845 51.8728003,95.7192394 52.3537598,95.5043945 C52.8347192,95.2895497 53.3632784,95.1821289 53.9394531,95.1821289 C54.8525436,95.1821289 55.5678685,95.4103981 56.0854492,95.8669434 C56.6030299,96.3234886 56.8715819,96.9521444 56.8911133,97.7529297 L56.8911133,101.400391 C56.8911133,102.127933 56.9838858,102.706541 57.1694336,103.13623 L57.1694336,103.253418 L55.7485352,103.253418 Z M53.5,102.220703 C53.9248068,102.220703 54.3276348,102.110841 54.7084961,101.891113 C55.0893574,101.671386 55.3652335,101.385744 55.5361328,101.03418 L55.5361328,99.4082031 L54.4741211,99.4082031 C52.8139565,99.4082031 51.9838867,99.8940381 51.9838867,100.865723 C51.9838867,101.290529 52.1254869,101.622557 52.4086914,101.861816 C52.6918959,102.101075 53.0556618,102.220703 53.5,102.220703 Z M56.7592773,94.1860352 L55.3164062,94.1860352 L54.0712891,93.0288086 L52.8261719,94.1860352 L51.390625,94.1860352 L53.5146484,92.2670898 L54.6279297,92.2670898 L56.7592773,94.1860352 Z M51.925293,92.8896484 L50.8999023,92.8896484 L49.4350586,91 L50.8925781,91 L51.925293,92.8896484 Z M63.9077148,102.469727 C63.3803685,103.089847 62.6064504,103.399902 61.5859375,103.399902 C60.7412067,103.399902 60.0979026,103.154543 59.6560059,102.663818 C59.2141091,102.173093 58.9907227,101.446782 58.9858398,100.484863 L58.9858398,95.3286133 L60.3408203,95.3286133 L60.3408203,100.448242 C60.3408203,101.64942 60.8290967,102.25 61.8056641,102.25 C62.8408255,102.25 63.5292952,101.864262 63.8710938,101.092773 L63.8710938,95.3286133 L65.2260742,95.3286133 L65.2260742,103.253418 L63.9370117,103.253418 L63.9077148,102.469727 Z" id="Bắtđầu" fill="#2A3052"></path>
            <path d="M192.24707,50.7431641 L188.819336,50.7431641 L188.819336,60.25 L187.42041,60.25 L187.42041,50.7431641 L184,50.7431641 L184,49.5859375 L192.24707,49.5859375 L192.24707,50.7431641 Z M194.97168,53.284668 C195.572269,52.5473596 196.353511,52.1787109 197.31543,52.1787109 C198.990243,52.1787109 199.834961,53.1235257 199.849609,55.0131836 L199.849609,60.25 L198.494629,60.25 L198.494629,55.0058594 C198.489746,54.4345675 198.359132,54.0122084 198.102783,53.7387695 C197.846434,53.4653307 197.447268,53.3286133 196.905273,53.3286133 C196.465818,53.3286133 196.08008,53.4457996 195.748047,53.6801758 C195.416014,53.914552 195.157227,54.2221661 194.97168,54.6030273 L194.97168,60.25 L193.616699,60.25 L193.616699,49 L194.97168,49 L194.97168,53.284668 Z M201.519531,56.2143555 C201.519531,55.4379844 201.672118,54.7397492 201.977295,54.1196289 C202.282472,53.4995086 202.707273,53.0209978 203.251709,52.684082 C203.796145,52.3471663 204.417477,52.1787109 205.115723,52.1787109 C206.19483,52.1787109 207.067624,52.5522424 207.734131,53.2993164 C208.400638,54.0463905 208.733887,55.0400329 208.733887,56.2802734 L208.733887,56.3754883 C208.733887,57.1469765 208.586183,57.8391083 208.290771,58.4519043 C207.99536,59.0647003 207.573001,59.5419905 207.023682,59.8837891 C206.474362,60.2255876 205.843265,60.3964844 205.130371,60.3964844 C204.056147,60.3964844 203.185794,60.022953 202.519287,59.2758789 C201.85278,58.5288049 201.519531,57.5400452 201.519531,56.3095703 L201.519531,56.2143555 Z M202.881836,56.3754883 C202.881836,57.2543989 203.085691,57.9599583 203.493408,58.4921875 C203.901125,59.0244167 204.446774,59.2905273 205.130371,59.2905273 C205.818851,59.2905273 206.365721,59.0207547 206.770996,58.4812012 C207.176272,57.9416477 207.378906,57.18604 207.378906,56.2143555 C207.378906,55.3452105 207.172609,54.6408718 206.76001,54.1013184 C206.34741,53.5617649 205.79932,53.2919922 205.115723,53.2919922 C204.446774,53.2919922 203.907229,53.5581028 203.49707,54.090332 C203.086912,54.6225613 202.881836,55.3842724 202.881836,56.3754883 Z M215.325684,60.25 C215.247558,60.0937492 215.184082,59.8154317 215.135254,59.4150391 C214.505368,60.0693392 213.753422,60.3964844 212.879395,60.3964844 C212.098141,60.3964844 211.457278,60.1755393 210.956787,59.7336426 C210.456296,59.2917458 210.206055,58.7314487 210.206055,58.0527344 C210.206055,57.2275349 210.519772,56.5866722 211.147217,56.130127 C211.774661,55.6735817 212.657221,55.4453125 213.794922,55.4453125 L215.113281,55.4453125 L215.113281,54.8227539 C215.113281,54.3491187 214.971681,53.9719252 214.688477,53.6911621 C214.405272,53.410399 213.987796,53.2700195 213.436035,53.2700195 C212.952634,53.2700195 212.547365,53.3920886 212.220215,53.6362305 C211.893065,53.8803723 211.729492,54.1757795 211.729492,54.5224609 L210.367188,54.5224609 C210.367188,54.1269511 210.507567,53.7448749 210.78833,53.3762207 C211.069093,53.0075665 211.449949,52.7158214 211.930908,52.5009766 C212.411868,52.2861317 212.940427,52.1787109 213.516602,52.1787109 C214.429692,52.1787109 215.145017,52.4069801 215.662598,52.8635254 C216.180178,53.3200706 216.44873,53.9487265 216.468262,54.7495117 L216.468262,58.3969727 C216.468262,59.1245154 216.561034,59.7031229 216.746582,60.1328125 L216.746582,60.25 L215.325684,60.25 Z M213.077148,59.2172852 C213.501955,59.2172852 213.904783,59.107423 214.285645,58.8876953 C214.666506,58.6679677 214.942382,58.382326 215.113281,58.0307617 L215.113281,56.4047852 L214.05127,56.4047852 C212.391105,56.4047852 211.561035,56.8906201 211.561035,57.8623047 C211.561035,58.2871115 211.702635,58.6191394 211.98584,58.8583984 C212.269044,59.0976574 212.63281,59.2172852 213.077148,59.2172852 Z M214.32959,49 L215.970215,49 L214.007324,51.1533203 L212.916016,51.1533203 L214.32959,49 Z M220.430664,50.40625 L220.430664,52.3251953 L221.910156,52.3251953 L221.910156,53.3725586 L220.430664,53.3725586 L220.430664,58.2871094 C220.430664,58.6044938 220.496581,58.8425285 220.628418,59.0012207 C220.760255,59.1599129 220.984862,59.2392578 221.302246,59.2392578 C221.458497,59.2392578 221.673338,59.2099612 221.946777,59.1513672 L221.946777,60.25 C221.59033,60.3476567 221.243654,60.3964844 220.906738,60.3964844 C220.301267,60.3964844 219.844728,60.2133807 219.537109,59.847168 C219.229491,59.4809552 219.075684,58.9609409 219.075684,58.2871094 L219.075684,53.3725586 L217.632812,53.3725586 L217.632812,52.3251953 L219.075684,52.3251953 L219.075684,50.40625 L220.430664,50.40625 Z M226.883301,56.2216797 C226.883301,54.9863219 227.168942,54.0036658 227.740234,53.2736816 C228.311526,52.5436975 229.068355,52.1787109 230.010742,52.1787109 C230.977544,52.1787109 231.731931,52.5205044 232.273926,53.2041016 L232.339844,52.3251953 L233.577637,52.3251953 L233.577637,60.0595703 C233.577637,61.0849661 233.273685,61.8930635 232.665771,62.4838867 C232.057858,63.07471 231.241216,63.3701172 230.21582,63.3701172 C229.644528,63.3701172 229.085452,63.2480481 228.538574,63.0039062 C227.991696,62.7597644 227.57422,62.4252951 227.286133,62.0004883 L227.989258,61.1875 C228.570315,61.905277 229.280758,62.2641602 230.120605,62.2641602 C230.779788,62.2641602 231.293699,62.0786151 231.662354,61.7075195 C232.031008,61.3364239 232.215332,60.8139682 232.215332,60.1401367 L232.215332,59.4589844 C231.673337,60.0839875 230.933598,60.3964844 229.996094,60.3964844 C229.068355,60.3964844 228.31763,60.022953 227.743896,59.2758789 C227.170163,58.5288049 226.883301,57.5107486 226.883301,56.2216797 Z M228.245605,56.3754883 C228.245605,57.2690474 228.428709,57.9709447 228.794922,58.4812012 C229.161135,58.9914576 229.673825,59.246582 230.333008,59.246582 C231.187504,59.246582 231.814939,58.8584023 232.215332,58.0820312 L232.215332,54.4638672 C231.800291,53.7070275 231.177739,53.3286133 230.347656,53.3286133 C229.688473,53.3286133 229.173342,53.5849584 228.802246,54.0976562 C228.43115,54.6103541 228.245605,55.3696239 228.245605,56.3754883 Z M237.093262,60.25 L235.738281,60.25 L235.738281,52.3251953 L237.093262,52.3251953 L237.093262,60.25 Z M235.628418,50.2231445 C235.628418,50.0034169 235.695556,49.8178719 235.829834,49.6665039 C235.964112,49.515136 236.163085,49.4394531 236.426758,49.4394531 C236.690431,49.4394531 236.890624,49.515136 237.027344,49.6665039 C237.164063,49.8178719 237.232422,50.0034169 237.232422,50.2231445 C237.232422,50.4428722 237.164063,50.6259758 237.027344,50.7724609 C236.890624,50.918946 236.690431,50.9921875 236.426758,50.9921875 C236.163085,50.9921875 235.964112,50.918946 235.829834,50.7724609 C235.695556,50.6259758 235.628418,50.4428722 235.628418,50.2231445 Z M244.153809,60.25 C244.075683,60.0937492 244.012207,59.8154317 243.963379,59.4150391 C243.333493,60.0693392 242.581547,60.3964844 241.70752,60.3964844 C240.926266,60.3964844 240.285403,60.1755393 239.784912,59.7336426 C239.284421,59.2917458 239.03418,58.7314487 239.03418,58.0527344 C239.03418,57.2275349 239.347897,56.5866722 239.975342,56.130127 C240.602786,55.6735817 241.485346,55.4453125 242.623047,55.4453125 L243.941406,55.4453125 L243.941406,54.8227539 C243.941406,54.3491187 243.799806,53.9719252 243.516602,53.6911621 C243.233397,53.410399 242.815921,53.2700195 242.26416,53.2700195 C241.780759,53.2700195 241.37549,53.3920886 241.04834,53.6362305 C240.72119,53.8803723 240.557617,54.1757795 240.557617,54.5224609 L239.195312,54.5224609 C239.195312,54.1269511 239.335692,53.7448749 239.616455,53.3762207 C239.897218,53.0075665 240.278074,52.7158214 240.759033,52.5009766 C241.239993,52.2861317 241.768552,52.1787109 242.344727,52.1787109 C243.257817,52.1787109 243.973142,52.4069801 244.490723,52.8635254 C245.008303,53.3200706 245.276855,53.9487265 245.296387,54.7495117 L245.296387,58.3969727 C245.296387,59.1245154 245.389159,59.7031229 245.574707,60.1328125 L245.574707,60.25 L244.153809,60.25 Z M241.905273,59.2172852 C242.33008,59.2172852 242.732908,59.107423 243.11377,58.8876953 C243.494631,58.6679677 243.770507,58.382326 243.941406,58.0307617 L243.941406,56.4047852 L242.879395,56.4047852 C241.21923,56.4047852 240.38916,56.8906201 240.38916,57.8623047 C240.38916,58.2871115 240.53076,58.6191394 240.813965,58.8583984 C241.097169,59.0976574 241.460935,59.2172852 241.905273,59.2172852 Z M247.061523,56.2143555 C247.061523,55.4379844 247.21411,54.7397492 247.519287,54.1196289 C247.824464,53.4995086 248.249265,53.0209978 248.793701,52.684082 C249.338137,52.3471663 249.959469,52.1787109 250.657715,52.1787109 C251.736822,52.1787109 252.609616,52.5522424 253.276123,53.2993164 C253.94263,54.0463905 254.275879,55.0400329 254.275879,56.2802734 L254.275879,56.3754883 C254.275879,57.1469765 254.128175,57.8391083 253.832764,58.4519043 C253.537352,59.0647003 253.114993,59.5419905 252.565674,59.8837891 C252.016355,60.2255876 251.385257,60.3964844 250.672363,60.3964844 C249.598139,60.3964844 248.727787,60.022953 248.061279,59.2758789 C247.394772,58.5288049 247.061523,57.5400452 247.061523,56.3095703 L247.061523,56.2143555 Z M248.423828,56.3754883 C248.423828,57.2543989 248.627684,57.9599583 249.0354,58.4921875 C249.443117,59.0244167 249.988766,59.2905273 250.672363,59.2905273 C251.360843,59.2905273 251.907713,59.0207547 252.312988,58.4812012 C252.718264,57.9416477 252.920898,57.18604 252.920898,56.2143555 C252.920898,55.3452105 252.714602,54.6408718 252.302002,54.1013184 C251.889402,53.5617649 251.341312,53.2919922 250.657715,53.2919922 C249.988766,53.2919922 249.449221,53.5581028 249.039062,54.090332 C248.628904,54.6225613 248.423828,55.3842724 248.423828,56.3754883 Z M267.422852,51.2192383 L266.045898,51.2192383 L266.045898,60.25 L264.800781,60.25 L264.734863,59.4003906 C264.192868,60.0644564 263.438481,60.3964844 262.47168,60.3964844 C261.553706,60.3964844 260.805423,60.0205116 260.226807,59.2685547 C259.64819,58.5165978 259.358887,57.5351623 259.358887,56.3242188 L259.358887,56.2216797 C259.358887,55.0058533 259.64697,54.0280799 260.223145,53.2883301 C260.799319,52.5485803 261.553706,52.1787109 262.486328,52.1787109 C263.414067,52.1787109 264.148923,52.4960906 264.690918,53.1308594 L264.690918,51.2192383 L262.757324,51.2192383 L262.757324,50.1132812 L264.690918,50.1132812 L264.690918,49 L266.045898,49 L266.045898,50.1132812 L267.422852,50.1132812 L267.422852,51.2192383 Z M260.713867,56.3754883 C260.713867,57.2739303 260.899412,57.9770482 261.270508,58.4848633 C261.641603,58.9926783 262.154294,59.246582 262.808594,59.246582 C263.667973,59.246582 264.295408,58.8608437 264.690918,58.0893555 L264.690918,54.4492188 C264.285643,53.7021447 263.66309,53.3286133 262.823242,53.3286133 C262.159176,53.3286133 261.641603,53.5849584 261.270508,54.0976562 C260.899412,54.6103541 260.713867,55.3696239 260.713867,56.3754883 Z M268.287109,56.2143555 C268.287109,55.4379844 268.439696,54.7397492 268.744873,54.1196289 C269.05005,53.4995086 269.474851,53.0209978 270.019287,52.684082 C270.563723,52.3471663 271.185055,52.1787109 271.883301,52.1787109 C272.962408,52.1787109 273.835202,52.5522424 274.501709,53.2993164 C275.168216,54.0463905 275.501465,55.0400329 275.501465,56.2802734 L275.501465,56.3754883 C275.501465,57.1469765 275.353761,57.8391083 275.05835,58.4519043 C274.762938,59.0647003 274.340579,59.5419905 273.79126,59.8837891 C273.241941,60.2255876 272.610843,60.3964844 271.897949,60.3964844 C270.823725,60.3964844 269.953372,60.022953 269.286865,59.2758789 C268.620358,58.5288049 268.287109,57.5400452 268.287109,56.3095703 L268.287109,56.2143555 Z M269.649414,56.3754883 C269.649414,57.2543989 269.853269,57.9599583 270.260986,58.4921875 C270.668703,59.0244167 271.214352,59.2905273 271.897949,59.2905273 C272.586429,59.2905273 273.133299,59.0207547 273.538574,58.4812012 C273.94385,57.9416477 274.146484,57.18604 274.146484,56.2143555 C274.146484,55.3452105 273.940188,54.6408718 273.527588,54.1013184 C273.114988,53.5617649 272.566898,53.2919922 271.883301,53.2919922 C271.214352,53.2919922 270.674807,53.5581028 270.264648,54.090332 C269.85449,54.6225613 269.649414,55.3842724 269.649414,56.3754883 Z M274.05127,51.0068359 L274.05127,51.0800781 L272.930664,51.0800781 L271.832031,49.8349609 L270.740723,51.0800781 L269.620117,51.0800781 L269.620117,50.9921875 L271.421875,49 L272.242188,49 L274.05127,51.0068359 Z M271.055664,62.0444336 C271.055664,61.8247059 271.122802,61.6391609 271.25708,61.487793 C271.391358,61.336425 271.590331,61.2607422 271.854004,61.2607422 C272.117677,61.2607422 272.31787,61.336425 272.45459,61.487793 C272.591309,61.6391609 272.659668,61.8247059 272.659668,62.0444336 C272.659668,62.2641613 272.591309,62.4472649 272.45459,62.59375 C272.31787,62.7402351 272.117677,62.8134766 271.854004,62.8134766 C271.590331,62.8134766 271.391358,62.7402351 271.25708,62.59375 C271.122802,62.4472649 271.055664,62.2641613 271.055664,62.0444336 Z M278.482422,52.3251953 L278.526367,53.3212891 C279.131839,52.5595665 279.922847,52.1787109 280.899414,52.1787109 C282.574227,52.1787109 283.418945,53.1235257 283.433594,55.0131836 L283.433594,60.25 L282.078613,60.25 L282.078613,55.0058594 C282.07373,54.4345675 281.943117,54.0122084 281.686768,53.7387695 C281.430419,53.4653307 281.031253,53.3286133 280.489258,53.3286133 C280.049802,53.3286133 279.664064,53.4457996 279.332031,53.6801758 C278.999998,53.914552 278.741212,54.2221661 278.555664,54.6030273 L278.555664,60.25 L277.200684,60.25 L277.200684,52.3251953 L278.482422,52.3251953 Z M285.154785,56.2216797 C285.154785,54.9863219 285.440427,54.0036658 286.011719,53.2736816 C286.583011,52.5436975 287.339839,52.1787109 288.282227,52.1787109 C289.249028,52.1787109 290.003415,52.5205044 290.54541,53.2041016 L290.611328,52.3251953 L291.849121,52.3251953 L291.849121,60.0595703 C291.849121,61.0849661 291.545169,61.8930635 290.937256,62.4838867 C290.329343,63.07471 289.5127,63.3701172 288.487305,63.3701172 C287.916013,63.3701172 287.356936,63.2480481 286.810059,63.0039062 C286.263181,62.7597644 285.845705,62.4252951 285.557617,62.0004883 L286.260742,61.1875 C286.8418,61.905277 287.552242,62.2641602 288.39209,62.2641602 C289.051273,62.2641602 289.565184,62.0786151 289.933838,61.7075195 C290.302492,61.3364239 290.486816,60.8139682 290.486816,60.1401367 L290.486816,59.4589844 C289.944822,60.0839875 289.205083,60.3964844 288.267578,60.3964844 C287.339839,60.3964844 286.589114,60.022953 286.015381,59.2758789 C285.441648,58.5288049 285.154785,57.5107486 285.154785,56.2216797 Z M286.51709,56.3754883 C286.51709,57.2690474 286.700193,57.9709447 287.066406,58.4812012 C287.432619,58.9914576 287.945309,59.246582 288.604492,59.246582 C289.458989,59.246582 290.086424,58.8584023 290.486816,58.0820312 L290.486816,54.4638672 C290.071775,53.7070275 289.449223,53.3286133 288.619141,53.3286133 C287.959958,53.3286133 287.444826,53.5849584 287.07373,54.0976562 C286.702635,54.6103541 286.51709,55.3696239 286.51709,56.3754883 Z" id="Thoátgiaođộng" fill="#2A3052"></path>
            <path d="M105.289062,183.880859 C104.999999,184.294924 104.596682,184.604491 104.079102,184.80957 C103.561521,185.014649 102.958988,185.117188 102.271484,185.117188 C101.576168,185.117188 100.958987,184.954103 100.419922,184.62793 C99.8808567,184.301756 99.4638687,183.837894 99.1689453,183.236328 C98.874022,182.634763 98.7226563,181.937504 98.7148438,181.144531 L98.7148438,180.400391 C98.7148438,179.115228 99.0146454,178.119144 99.6142578,177.412109 C100.21387,176.705075 101.056635,176.351562 102.142578,176.351562 C103.033208,176.351562 103.749997,176.579099 104.292969,177.03418 C104.83594,177.48926 105.167968,178.134761 105.289062,178.970703 L104.164062,178.970703 C103.953124,177.841791 103.281256,177.277344 102.148438,177.277344 C101.394527,177.277344 100.823244,177.54199 100.43457,178.071289 C100.045896,178.600589 99.8496094,179.367182 99.8457031,180.371094 L99.8457031,181.068359 C99.8457031,182.025395 100.064451,182.78613 100.501953,183.350586 C100.939455,183.915042 101.531246,184.197266 102.277344,184.197266 C102.699221,184.197266 103.068358,184.150391 103.384766,184.056641 C103.701173,183.96289 103.96289,183.804689 104.169922,183.582031 L104.169922,181.666016 L102.195312,181.666016 L102.195312,180.751953 L105.289062,180.751953 L105.289062,183.880859 Z M108.171875,185 L107.087891,185 L107.087891,178.660156 L108.171875,178.660156 L108.171875,185 Z M107,176.978516 C107,176.802733 107.05371,176.654297 107.161133,176.533203 C107.268555,176.412109 107.427733,176.351562 107.638672,176.351562 C107.84961,176.351562 108.009765,176.412109 108.119141,176.533203 C108.228516,176.654297 108.283203,176.802733 108.283203,176.978516 C108.283203,177.154298 108.228516,177.300781 108.119141,177.417969 C108.009765,177.535157 107.84961,177.59375 107.638672,177.59375 C107.427733,177.59375 107.268555,177.535157 107.161133,177.417969 C107.05371,177.300781 107,177.154298 107,176.978516 Z M113.820312,185 C113.757812,184.874999 113.707031,184.652345 113.667969,184.332031 C113.16406,184.855471 112.562503,185.117188 111.863281,185.117188 C111.238278,185.117188 110.725588,184.940431 110.325195,184.586914 C109.924803,184.233397 109.724609,183.785159 109.724609,183.242188 C109.724609,182.582028 109.975583,182.069338 110.477539,181.704102 C110.979495,181.338865 111.685542,181.15625 112.595703,181.15625 L113.650391,181.15625 L113.650391,180.658203 C113.650391,180.279295 113.537111,179.97754 113.310547,179.75293 C113.083983,179.528319 112.750002,179.416016 112.308594,179.416016 C111.921873,179.416016 111.597658,179.513671 111.335938,179.708984 C111.074217,179.904298 110.943359,180.140624 110.943359,180.417969 L109.853516,180.417969 C109.853516,180.101561 109.965819,179.7959 110.19043,179.500977 C110.41504,179.206053 110.719725,178.972657 111.104492,178.800781 C111.48926,178.628905 111.912107,178.542969 112.373047,178.542969 C113.103519,178.542969 113.675779,178.725584 114.089844,179.09082 C114.503908,179.456057 114.71875,179.958981 114.734375,180.599609 L114.734375,183.517578 C114.734375,184.099612 114.808593,184.562498 114.957031,184.90625 L114.957031,185 L113.820312,185 Z M112.021484,184.173828 C112.36133,184.173828 112.683592,184.085938 112.988281,183.910156 C113.29297,183.734374 113.513671,183.505861 113.650391,183.224609 L113.650391,181.923828 L112.800781,181.923828 C111.47265,181.923828 110.808594,182.312496 110.808594,183.089844 C110.808594,183.429689 110.921874,183.695312 111.148438,183.886719 C111.375001,184.078126 111.666014,184.173828 112.021484,184.173828 Z M116.146484,181.771484 C116.146484,181.150388 116.268553,180.591799 116.512695,180.095703 C116.756837,179.599607 117.096678,179.216798 117.532227,178.947266 C117.967776,178.677733 118.464841,178.542969 119.023438,178.542969 C119.886723,178.542969 120.584958,178.841794 121.118164,179.439453 C121.65137,180.037112 121.917969,180.832026 121.917969,181.824219 L121.917969,181.900391 C121.917969,182.517581 121.799806,183.071287 121.563477,183.561523 C121.327147,184.05176 120.98926,184.433592 120.549805,184.707031 C120.110349,184.98047 119.605472,185.117188 119.035156,185.117188 C118.175777,185.117188 117.479495,184.818362 116.946289,184.220703 C116.413083,183.623044 116.146484,182.832036 116.146484,181.847656 L116.146484,181.771484 Z M117.236328,181.900391 C117.236328,182.603519 117.399412,183.167967 117.725586,183.59375 C118.051759,184.019533 118.488279,184.232422 119.035156,184.232422 C119.58594,184.232422 120.023436,184.016604 120.347656,183.584961 C120.671877,183.153318 120.833984,182.548832 120.833984,181.771484 C120.833984,181.076168 120.668947,180.512697 120.338867,180.081055 C120.008787,179.649412 119.570315,179.433594 119.023438,179.433594 C118.488279,179.433594 118.056642,179.646482 117.728516,180.072266 C117.400389,180.498049 117.236328,181.107418 117.236328,181.900391 Z M132.435547,177.775391 L131.333984,177.775391 L131.333984,185 L130.337891,185 L130.285156,184.320312 C129.85156,184.851565 129.248051,185.117188 128.474609,185.117188 C127.740231,185.117188 127.141604,184.816409 126.678711,184.214844 C126.215818,183.613278 125.984375,182.82813 125.984375,181.859375 L125.984375,181.777344 C125.984375,180.804683 126.214841,180.022464 126.675781,179.430664 C127.136721,178.838864 127.740231,178.542969 128.486328,178.542969 C129.228519,178.542969 129.816404,178.796872 130.25,179.304688 L130.25,177.775391 L128.703125,177.775391 L128.703125,176.890625 L130.25,176.890625 L130.25,176 L131.333984,176 L131.333984,176.890625 L132.435547,176.890625 L132.435547,177.775391 Z M127.068359,181.900391 C127.068359,182.619144 127.216795,183.181639 127.513672,183.587891 C127.810548,183.994143 128.220701,184.197266 128.744141,184.197266 C129.431644,184.197266 129.933592,183.888675 130.25,183.271484 L130.25,180.359375 C129.92578,179.761716 129.427738,179.462891 128.755859,179.462891 C128.224607,179.462891 127.810548,179.667967 127.513672,180.078125 C127.216795,180.488283 127.068359,181.095699 127.068359,181.900391 Z M133.126953,181.771484 C133.126953,181.150388 133.249022,180.591799 133.493164,180.095703 C133.737306,179.599607 134.077146,179.216798 134.512695,178.947266 C134.948244,178.677733 135.44531,178.542969 136.003906,178.542969 C136.867192,178.542969 137.565427,178.841794 138.098633,179.439453 C138.631839,180.037112 138.898438,180.832026 138.898438,181.824219 L138.898438,181.900391 C138.898438,182.517581 138.780275,183.071287 138.543945,183.561523 C138.307616,184.05176 137.969729,184.433592 137.530273,184.707031 C137.090818,184.98047 136.58594,185.117188 136.015625,185.117188 C135.156246,185.117188 134.459964,184.818362 133.926758,184.220703 C133.393552,183.623044 133.126953,182.832036 133.126953,181.847656 L133.126953,181.771484 Z M134.216797,181.900391 C134.216797,182.603519 134.379881,183.167967 134.706055,183.59375 C135.032228,184.019533 135.468747,184.232422 136.015625,184.232422 C136.566409,184.232422 137.003905,184.016604 137.328125,183.584961 C137.652345,183.153318 137.814453,182.548832 137.814453,181.771484 C137.814453,181.076168 137.649416,180.512697 137.319336,180.081055 C136.989256,179.649412 136.550784,179.433594 136.003906,179.433594 C135.468747,179.433594 135.037111,179.646482 134.708984,180.072266 C134.380858,180.498049 134.216797,181.107418 134.216797,181.900391 Z M137.738281,177.605469 L137.738281,177.664062 L136.841797,177.664062 L135.962891,176.667969 L135.089844,177.664062 L134.193359,177.664062 L134.193359,177.59375 L135.634766,176 L136.291016,176 L137.738281,177.605469 Z M135.341797,186.435547 C135.341797,186.259765 135.395507,186.111329 135.50293,185.990234 C135.610352,185.86914 135.76953,185.808594 135.980469,185.808594 C136.191407,185.808594 136.351562,185.86914 136.460938,185.990234 C136.570313,186.111329 136.625,186.259765 136.625,186.435547 C136.625,186.611329 136.570313,186.757812 136.460938,186.875 C136.351562,186.992188 136.191407,187.050781 135.980469,187.050781 C135.76953,187.050781 135.610352,186.992188 135.50293,186.875 C135.395507,186.757812 135.341797,186.611329 135.341797,186.435547 Z M141.283203,178.660156 L141.318359,179.457031 C141.802737,178.847653 142.435543,178.542969 143.216797,178.542969 C144.556647,178.542969 145.232422,179.298821 145.244141,180.810547 L145.244141,185 L144.160156,185 L144.160156,180.804688 C144.15625,180.347654 144.051759,180.009767 143.84668,179.791016 C143.641601,179.572265 143.322268,179.462891 142.888672,179.462891 C142.537108,179.462891 142.228517,179.55664 141.962891,179.744141 C141.697264,179.931642 141.490235,180.177733 141.341797,180.482422 L141.341797,185 L140.257812,185 L140.257812,178.660156 L141.283203,178.660156 Z M146.621094,181.777344 C146.621094,180.789058 146.849607,180.002933 147.306641,179.418945 C147.763674,178.834958 148.369137,178.542969 149.123047,178.542969 C149.896488,178.542969 150.499998,178.816404 150.933594,179.363281 L150.986328,178.660156 L151.976562,178.660156 L151.976562,184.847656 C151.976562,185.667973 151.733401,186.314451 151.24707,186.787109 C150.76074,187.259768 150.107426,187.496094 149.287109,187.496094 C148.830076,187.496094 148.382815,187.398438 147.945312,187.203125 C147.50781,187.007812 147.173829,186.740236 146.943359,186.400391 L147.505859,185.75 C147.970705,186.324222 148.539059,186.611328 149.210938,186.611328 C149.738284,186.611328 150.149413,186.462892 150.444336,186.166016 C150.739259,185.869139 150.886719,185.451175 150.886719,184.912109 L150.886719,184.367188 C150.453123,184.86719 149.861332,185.117188 149.111328,185.117188 C148.369137,185.117188 147.768557,184.818362 147.30957,184.220703 C146.850584,183.623044 146.621094,182.808599 146.621094,181.777344 Z M147.710938,181.900391 C147.710938,182.615238 147.85742,183.176756 148.150391,183.584961 C148.443361,183.993166 148.853513,184.197266 149.380859,184.197266 C150.064457,184.197266 150.566405,183.886722 150.886719,183.265625 L150.886719,180.371094 C150.554686,179.765622 150.056644,179.462891 149.392578,179.462891 C148.865232,179.462891 148.453126,179.667967 148.15625,180.078125 C147.859374,180.488283 147.710938,181.095699 147.710938,181.900391 Z M161.046875,182.134766 L162.230469,182.134766 L162.230469,183.019531 L161.046875,183.019531 L161.046875,185 L159.957031,185 L159.957031,183.019531 L156.072266,183.019531 L156.072266,182.380859 L159.892578,176.46875 L161.046875,176.46875 L161.046875,182.134766 Z M157.302734,182.134766 L159.957031,182.134766 L159.957031,177.951172 L159.828125,178.185547 L157.302734,182.134766 Z M163.285156,184.431641 C163.285156,184.24414 163.34082,184.087891 163.452148,183.962891 C163.563477,183.83789 163.730468,183.775391 163.953125,183.775391 C164.175782,183.775391 164.344726,183.83789 164.459961,183.962891 C164.575196,184.087891 164.632812,184.24414 164.632812,184.431641 C164.632812,184.611329 164.575196,184.761718 164.459961,184.882812 C164.344726,185.003907 164.175782,185.064453 163.953125,185.064453 C163.730468,185.064453 163.563477,185.003907 163.452148,184.882812 C163.34082,184.761718 163.285156,184.611329 163.285156,184.431641 Z M163.291016,179.257812 C163.291016,179.070312 163.346679,178.914063 163.458008,178.789062 C163.569336,178.664062 163.736327,178.601562 163.958984,178.601562 C164.181642,178.601562 164.350585,178.664062 164.46582,178.789062 C164.581055,178.914063 164.638672,179.070312 164.638672,179.257812 C164.638672,179.437501 164.581055,179.58789 164.46582,179.708984 C164.350585,179.830079 164.181642,179.890625 163.958984,179.890625 C163.736327,179.890625 163.569336,179.830079 163.458008,179.708984 C163.346679,179.58789 163.291016,179.437501 163.291016,179.257812 Z M175.666016,183.880859 C175.376952,184.294924 174.973635,184.604491 174.456055,184.80957 C173.938474,185.014649 173.335941,185.117188 172.648438,185.117188 C171.953122,185.117188 171.33594,184.954103 170.796875,184.62793 C170.25781,184.301756 169.840822,183.837894 169.545898,183.236328 C169.250975,182.634763 169.099609,181.937504 169.091797,181.144531 L169.091797,180.400391 C169.091797,179.115228 169.391599,178.119144 169.991211,177.412109 C170.590823,176.705075 171.433588,176.351562 172.519531,176.351562 C173.410161,176.351562 174.12695,176.579099 174.669922,177.03418 C175.212893,177.48926 175.544921,178.134761 175.666016,178.970703 L174.541016,178.970703 C174.330077,177.841791 173.658209,177.277344 172.525391,177.277344 C171.771481,177.277344 171.200197,177.54199 170.811523,178.071289 C170.42285,178.600589 170.226563,179.367182 170.222656,180.371094 L170.222656,181.068359 C170.222656,182.025395 170.441404,182.78613 170.878906,183.350586 C171.316408,183.915042 171.908199,184.197266 172.654297,184.197266 C173.076174,184.197266 173.445311,184.150391 173.761719,184.056641 C174.078127,183.96289 174.339843,183.804689 174.546875,183.582031 L174.546875,181.666016 L172.572266,181.666016 L172.572266,180.751953 L175.666016,180.751953 L175.666016,183.880859 Z M178.548828,185 L177.464844,185 L177.464844,178.660156 L178.548828,178.660156 L178.548828,185 Z M177.376953,176.978516 C177.376953,176.802733 177.430664,176.654297 177.538086,176.533203 C177.645508,176.412109 177.804686,176.351562 178.015625,176.351562 C178.226564,176.351562 178.386718,176.412109 178.496094,176.533203 C178.605469,176.654297 178.660156,176.802733 178.660156,176.978516 C178.660156,177.154298 178.605469,177.300781 178.496094,177.417969 C178.386718,177.535157 178.226564,177.59375 178.015625,177.59375 C177.804686,177.59375 177.645508,177.535157 177.538086,177.417969 C177.430664,177.300781 177.376953,177.154298 177.376953,176.978516 Z M184.197266,185 C184.134765,184.874999 184.083985,184.652345 184.044922,184.332031 C183.541013,184.855471 182.939457,185.117188 182.240234,185.117188 C181.615231,185.117188 181.102541,184.940431 180.702148,184.586914 C180.301756,184.233397 180.101562,183.785159 180.101562,183.242188 C180.101562,182.582028 180.352537,182.069338 180.854492,181.704102 C181.356448,181.338865 182.062495,181.15625 182.972656,181.15625 L184.027344,181.15625 L184.027344,180.658203 C184.027344,180.279295 183.914064,179.97754 183.6875,179.75293 C183.460936,179.528319 183.126955,179.416016 182.685547,179.416016 C182.298826,179.416016 181.974611,179.513671 181.712891,179.708984 C181.451171,179.904298 181.320312,180.140624 181.320312,180.417969 L180.230469,180.417969 C180.230469,180.101561 180.342772,179.7959 180.567383,179.500977 C180.791993,179.206053 181.096678,178.972657 181.481445,178.800781 C181.866213,178.628905 182.28906,178.542969 182.75,178.542969 C183.480472,178.542969 184.052732,178.725584 184.466797,179.09082 C184.880861,179.456057 185.095703,179.958981 185.111328,180.599609 L185.111328,183.517578 C185.111328,184.099612 185.185546,184.562498 185.333984,184.90625 L185.333984,185 L184.197266,185 Z M182.398438,184.173828 C182.738283,184.173828 183.060545,184.085938 183.365234,183.910156 C183.669923,183.734374 183.890624,183.505861 184.027344,183.224609 L184.027344,181.923828 L183.177734,181.923828 C181.849603,181.923828 181.185547,182.312496 181.185547,183.089844 C181.185547,183.429689 181.298827,183.695312 181.525391,183.886719 C181.751954,184.078126 182.042967,184.173828 182.398438,184.173828 Z M186.523438,181.771484 C186.523438,181.150388 186.645507,180.591799 186.889648,180.095703 C187.13379,179.599607 187.473631,179.216798 187.90918,178.947266 C188.344729,178.677733 188.841794,178.542969 189.400391,178.542969 C190.263676,178.542969 190.961911,178.841794 191.495117,179.439453 C192.028323,180.037112 192.294922,180.832026 192.294922,181.824219 L192.294922,181.900391 C192.294922,182.517581 192.176759,183.071287 191.94043,183.561523 C191.7041,184.05176 191.366213,184.433592 190.926758,184.707031 C190.487302,184.98047 189.982425,185.117188 189.412109,185.117188 C188.55273,185.117188 187.856448,184.818362 187.323242,184.220703 C186.790036,183.623044 186.523438,182.832036 186.523438,181.847656 L186.523438,181.771484 Z M187.613281,181.900391 C187.613281,182.603519 187.776366,183.167967 188.102539,183.59375 C188.428713,184.019533 188.865232,184.232422 189.412109,184.232422 C189.962893,184.232422 190.400389,184.016604 190.724609,183.584961 C191.04883,183.153318 191.210938,182.548832 191.210938,181.771484 C191.210938,181.076168 191.0459,180.512697 190.71582,180.081055 C190.385741,179.649412 189.947268,179.433594 189.400391,179.433594 C188.865232,179.433594 188.433595,179.646482 188.105469,180.072266 C187.777342,180.498049 187.613281,181.107418 187.613281,181.900391 Z M202.8125,177.775391 L201.710938,177.775391 L201.710938,185 L200.714844,185 L200.662109,184.320312 C200.228513,184.851565 199.625004,185.117188 198.851562,185.117188 C198.117184,185.117188 197.518557,184.816409 197.055664,184.214844 C196.592771,183.613278 196.361328,182.82813 196.361328,181.859375 L196.361328,181.777344 C196.361328,180.804683 196.591795,180.022464 197.052734,179.430664 C197.513674,178.838864 198.117184,178.542969 198.863281,178.542969 C199.605472,178.542969 200.193357,178.796872 200.626953,179.304688 L200.626953,177.775391 L199.080078,177.775391 L199.080078,176.890625 L200.626953,176.890625 L200.626953,176 L201.710938,176 L201.710938,176.890625 L202.8125,176.890625 L202.8125,177.775391 Z M197.445312,181.900391 C197.445312,182.619144 197.593749,183.181639 197.890625,183.587891 C198.187501,183.994143 198.597654,184.197266 199.121094,184.197266 C199.808597,184.197266 200.310545,183.888675 200.626953,183.271484 L200.626953,180.359375 C200.302733,179.761716 199.804691,179.462891 199.132812,179.462891 C198.60156,179.462891 198.187501,179.667967 197.890625,180.078125 C197.593749,180.488283 197.445312,181.095699 197.445312,181.900391 Z M203.503906,181.771484 C203.503906,181.150388 203.625975,180.591799 203.870117,180.095703 C204.114259,179.599607 204.454099,179.216798 204.889648,178.947266 C205.325197,178.677733 205.822263,178.542969 206.380859,178.542969 C207.244145,178.542969 207.94238,178.841794 208.475586,179.439453 C209.008792,180.037112 209.275391,180.832026 209.275391,181.824219 L209.275391,181.900391 C209.275391,182.517581 209.157228,183.071287 208.920898,183.561523 C208.684569,184.05176 208.346682,184.433592 207.907227,184.707031 C207.467771,184.98047 206.962893,185.117188 206.392578,185.117188 C205.533199,185.117188 204.836917,184.818362 204.303711,184.220703 C203.770505,183.623044 203.503906,182.832036 203.503906,181.847656 L203.503906,181.771484 Z M204.59375,181.900391 C204.59375,182.603519 204.756834,183.167967 205.083008,183.59375 C205.409181,184.019533 205.8457,184.232422 206.392578,184.232422 C206.943362,184.232422 207.380858,184.016604 207.705078,183.584961 C208.029298,183.153318 208.191406,182.548832 208.191406,181.771484 C208.191406,181.076168 208.026369,180.512697 207.696289,180.081055 C207.366209,179.649412 206.927737,179.433594 206.380859,179.433594 C205.8457,179.433594 205.414064,179.646482 205.085938,180.072266 C204.757811,180.498049 204.59375,181.107418 204.59375,181.900391 Z M208.115234,177.605469 L208.115234,177.664062 L207.21875,177.664062 L206.339844,176.667969 L205.466797,177.664062 L204.570312,177.664062 L204.570312,177.59375 L206.011719,176 L206.667969,176 L208.115234,177.605469 Z M205.71875,186.435547 C205.71875,186.259765 205.77246,186.111329 205.879883,185.990234 C205.987305,185.86914 206.146483,185.808594 206.357422,185.808594 C206.56836,185.808594 206.728515,185.86914 206.837891,185.990234 C206.947266,186.111329 207.001953,186.259765 207.001953,186.435547 C207.001953,186.611329 206.947266,186.757812 206.837891,186.875 C206.728515,186.992188 206.56836,187.050781 206.357422,187.050781 C206.146483,187.050781 205.987305,186.992188 205.879883,186.875 C205.77246,186.757812 205.71875,186.611329 205.71875,186.435547 Z M211.660156,178.660156 L211.695312,179.457031 C212.17969,178.847653 212.812496,178.542969 213.59375,178.542969 C214.9336,178.542969 215.609375,179.298821 215.621094,180.810547 L215.621094,185 L214.537109,185 L214.537109,180.804688 C214.533203,180.347654 214.428712,180.009767 214.223633,179.791016 C214.018554,179.572265 213.699221,179.462891 213.265625,179.462891 C212.914061,179.462891 212.60547,179.55664 212.339844,179.744141 C212.074217,179.931642 211.867188,180.177733 211.71875,180.482422 L211.71875,185 L210.634766,185 L210.634766,178.660156 L211.660156,178.660156 Z M216.998047,181.777344 C216.998047,180.789058 217.22656,180.002933 217.683594,179.418945 C218.140627,178.834958 218.74609,178.542969 219.5,178.542969 C220.273441,178.542969 220.876951,178.816404 221.310547,179.363281 L221.363281,178.660156 L222.353516,178.660156 L222.353516,184.847656 C222.353516,185.667973 222.110354,186.314451 221.624023,186.787109 C221.137693,187.259768 220.484379,187.496094 219.664062,187.496094 C219.207029,187.496094 218.759768,187.398438 218.322266,187.203125 C217.884763,187.007812 217.550782,186.740236 217.320312,186.400391 L217.882812,185.75 C218.347659,186.324222 218.916012,186.611328 219.587891,186.611328 C220.115237,186.611328 220.526366,186.462892 220.821289,186.166016 C221.116212,185.869139 221.263672,185.451175 221.263672,184.912109 L221.263672,184.367188 C220.830076,184.86719 220.238285,185.117188 219.488281,185.117188 C218.74609,185.117188 218.14551,184.818362 217.686523,184.220703 C217.227537,183.623044 216.998047,182.808599 216.998047,181.777344 Z M218.087891,181.900391 C218.087891,182.615238 218.234374,183.176756 218.527344,183.584961 C218.820314,183.993166 219.230466,184.197266 219.757812,184.197266 C220.44141,184.197266 220.943358,183.886722 221.263672,183.265625 L221.263672,180.371094 C220.931639,179.765622 220.433597,179.462891 219.769531,179.462891 C219.242185,179.462891 218.83008,179.667967 218.533203,180.078125 C218.236327,180.488283 218.087891,181.095699 218.087891,181.900391 Z M228.429688,177.125 L228.429688,178.660156 L229.613281,178.660156 L229.613281,179.498047 L228.429688,179.498047 L228.429688,183.429688 C228.429688,183.683595 228.482421,183.874023 228.587891,184.000977 C228.69336,184.12793 228.873046,184.191406 229.126953,184.191406 C229.251954,184.191406 229.423827,184.167969 229.642578,184.121094 L229.642578,185 C229.35742,185.078125 229.080079,185.117188 228.810547,185.117188 C228.326169,185.117188 227.960939,184.970705 227.714844,184.677734 C227.468749,184.384764 227.345703,183.968753 227.345703,183.429688 L227.345703,179.498047 L226.191406,179.498047 L226.191406,178.660156 L227.345703,178.660156 L227.345703,177.125 L228.429688,177.125 Z M231.962891,179.427734 C232.443362,178.837888 233.068356,178.542969 233.837891,178.542969 C235.177741,178.542969 235.853516,179.298821 235.865234,180.810547 L235.865234,185 L234.78125,185 L234.78125,180.804688 C234.777344,180.347654 234.672853,180.009767 234.467773,179.791016 C234.262694,179.572265 233.943362,179.462891 233.509766,179.462891 C233.158201,179.462891 232.849611,179.55664 232.583984,179.744141 C232.318358,179.931642 232.111329,180.177733 231.962891,180.482422 L231.962891,185 L230.878906,185 L230.878906,176 L231.962891,176 L231.962891,179.427734 Z M241.402344,185 C241.339843,184.874999 241.289063,184.652345 241.25,184.332031 C240.746091,184.855471 240.144535,185.117188 239.445312,185.117188 C238.820309,185.117188 238.307619,184.940431 237.907227,184.586914 C237.506834,184.233397 237.306641,183.785159 237.306641,183.242188 C237.306641,182.582028 237.557615,182.069338 238.05957,181.704102 C238.561526,181.338865 239.267574,181.15625 240.177734,181.15625 L241.232422,181.15625 L241.232422,180.658203 C241.232422,180.279295 241.119142,179.97754 240.892578,179.75293 C240.666014,179.528319 240.332033,179.416016 239.890625,179.416016 C239.503904,179.416016 239.179689,179.513671 238.917969,179.708984 C238.656249,179.904298 238.525391,180.140624 238.525391,180.417969 L237.435547,180.417969 C237.435547,180.101561 237.54785,179.7959 237.772461,179.500977 C237.997071,179.206053 238.301756,178.972657 238.686523,178.800781 C239.071291,178.628905 239.494138,178.542969 239.955078,178.542969 C240.685551,178.542969 241.25781,178.725584 241.671875,179.09082 C242.08594,179.456057 242.300781,179.958981 242.316406,180.599609 L242.316406,183.517578 C242.316406,184.099612 242.390624,184.562498 242.539062,184.90625 L242.539062,185 L241.402344,185 Z M239.603516,184.173828 C239.943361,184.173828 240.265623,184.085938 240.570312,183.910156 C240.875002,183.734374 241.095702,183.505861 241.232422,183.224609 L241.232422,181.923828 L240.382812,181.923828 C239.054681,181.923828 238.390625,182.312496 238.390625,183.089844 C238.390625,183.429689 238.503905,183.695312 238.730469,183.886719 C238.957032,184.078126 239.248045,184.173828 239.603516,184.173828 Z M239.632812,176.181641 L240.523438,176.181641 L242.222656,177.722656 L241.068359,177.722656 L240.078125,176.791016 L239.082031,177.722656 L237.921875,177.722656 L239.632812,176.181641 Z M242.621094,175.167969 L243.792969,175.167969 L242.615234,176.685547 L241.789062,176.685547 L242.621094,175.167969 Z M249.371094,181.900391 C249.371094,182.865239 249.150393,183.642575 248.708984,184.232422 C248.267576,184.822269 247.669926,185.117188 246.916016,185.117188 C246.146481,185.117188 245.541018,184.873049 245.099609,184.384766 L245.099609,187.4375 L244.015625,187.4375 L244.015625,178.660156 L245.005859,178.660156 L245.058594,179.363281 C245.500002,178.816404 246.113277,178.542969 246.898438,178.542969 C247.66016,178.542969 248.262693,178.830075 248.706055,179.404297 C249.149416,179.978518 249.371094,180.777339 249.371094,181.800781 L249.371094,181.900391 Z M248.287109,181.777344 C248.287109,181.062496 248.134767,180.498049 247.830078,180.083984 C247.525389,179.66992 247.107425,179.462891 246.576172,179.462891 C245.919919,179.462891 245.427736,179.753903 245.099609,180.335938 L245.099609,183.365234 C245.42383,183.943362 245.919919,184.232422 246.587891,184.232422 C247.107424,184.232422 247.520506,184.026369 247.827148,183.614258 C248.133791,183.202146 248.287109,182.589848 248.287109,181.777344 Z M254.744141,178.660156 L254.779297,179.457031 C255.263674,178.847653 255.89648,178.542969 256.677734,178.542969 C258.017585,178.542969 258.693359,179.298821 258.705078,180.810547 L258.705078,185 L257.621094,185 L257.621094,180.804688 C257.617187,180.347654 257.512696,180.009767 257.307617,179.791016 C257.102538,179.572265 256.783205,179.462891 256.349609,179.462891 C255.998045,179.462891 255.689454,179.55664 255.423828,179.744141 C255.158202,179.931642 254.951173,180.177733 254.802734,180.482422 L254.802734,185 L253.71875,185 L253.71875,178.660156 L254.744141,178.660156 Z M261.423828,179.427734 C261.904299,178.837888 262.529293,178.542969 263.298828,178.542969 C264.638679,178.542969 265.314453,179.298821 265.326172,180.810547 L265.326172,185 L264.242188,185 L264.242188,180.804688 C264.238281,180.347654 264.13379,180.009767 263.928711,179.791016 C263.723632,179.572265 263.404299,179.462891 262.970703,179.462891 C262.619139,179.462891 262.310548,179.55664 262.044922,179.744141 C261.779296,179.931642 261.572266,180.177733 261.423828,180.482422 L261.423828,185 L260.339844,185 L260.339844,176 L261.423828,176 L261.423828,179.427734 Z M270.863281,185 C270.800781,184.874999 270.75,184.652345 270.710938,184.332031 C270.207029,184.855471 269.605472,185.117188 268.90625,185.117188 C268.281247,185.117188 267.768557,184.940431 267.368164,184.586914 C266.967771,184.233397 266.767578,183.785159 266.767578,183.242188 C266.767578,182.582028 267.018552,182.069338 267.520508,181.704102 C268.022463,181.338865 268.728511,181.15625 269.638672,181.15625 L270.693359,181.15625 L270.693359,180.658203 C270.693359,180.279295 270.580079,179.97754 270.353516,179.75293 C270.126952,179.528319 269.792971,179.416016 269.351562,179.416016 C268.964842,179.416016 268.640626,179.513671 268.378906,179.708984 C268.117186,179.904298 267.986328,180.140624 267.986328,180.417969 L266.896484,180.417969 C266.896484,180.101561 267.008788,179.7959 267.233398,179.500977 C267.458009,179.206053 267.762693,178.972657 268.147461,178.800781 C268.532228,178.628905 268.955076,178.542969 269.416016,178.542969 C270.146488,178.542969 270.718748,178.725584 271.132812,179.09082 C271.546877,179.456057 271.761719,179.958981 271.777344,180.599609 L271.777344,183.517578 C271.777344,184.099612 271.851562,184.562498 272,184.90625 L272,185 L270.863281,185 Z M269.064453,184.173828 C269.404299,184.173828 269.726561,184.085938 270.03125,183.910156 C270.335939,183.734374 270.55664,183.505861 270.693359,183.224609 L270.693359,181.923828 L269.84375,181.923828 C268.515618,181.923828 267.851562,182.312496 267.851562,183.089844 C267.851562,183.429689 267.964843,183.695312 268.191406,183.886719 C268.41797,184.078126 268.708983,184.173828 269.064453,184.173828 Z M269.09375,176.181641 L269.984375,176.181641 L271.683594,177.722656 L270.529297,177.722656 L269.539062,176.791016 L268.542969,177.722656 L267.382812,177.722656 L269.09375,176.181641 Z M272.082031,175.167969 L273.253906,175.167969 L272.076172,176.685547 L271.25,176.685547 L272.082031,175.167969 Z M274.947266,177.125 L274.947266,178.660156 L276.130859,178.660156 L276.130859,179.498047 L274.947266,179.498047 L274.947266,183.429688 C274.947266,183.683595 274.999999,183.874023 275.105469,184.000977 C275.210938,184.12793 275.390624,184.191406 275.644531,184.191406 C275.769532,184.191406 275.941405,184.167969 276.160156,184.121094 L276.160156,185 C275.874999,185.078125 275.597658,185.117188 275.328125,185.117188 C274.843748,185.117188 274.478517,184.970705 274.232422,184.677734 C273.986327,184.384764 273.863281,183.968753 273.863281,183.429688 L273.863281,179.498047 L272.708984,179.498047 L272.708984,178.660156 L273.863281,178.660156 L273.863281,177.125 L274.947266,177.125 Z" id="Giaođộng4:Giaođộngthấpnhất" fill="#2A3052"></path>
        </g>
    </g>
</svg>