<?xml version="1.0" encoding="UTF-8"?>
<svg width="299px" height="197px" viewBox="0 0 299 197" version="1.1" xmlns="http://www.w3.org/2000/svg" xmlns:xlink="http://www.w3.org/1999/xlink">
    <!-- Generator: Sketch 52.6 (67491) - http://www.bohemiancoding.com/sketch -->
    <title>lower</title>
    <desc>Created with Sketch.</desc>
    <g id="Page-1" stroke="none" stroke-width="1" fill="none" fill-rule="evenodd">
        <g id="lower">
            <g id="Group">
                <polygon id="Path" fill="#F1F2F2" points="0 0 299 0 299 197 0 197"></polygon>
                <path d="M1.98671096,1.9798995 L1.98671096,195.020101 L297.013289,195.020101 L297.013289,1.9798995 L1.98671096,1.9798995 Z M299,0 L299,197 L0,197 L0,0 L299,0 Z" id="Path" fill="#C2C2C2" fill-rule="nonzero"></path>
                <g id="Group-3" transform="translate(0.000000, 31.000000)">
                    <path d="M2.92614576,22.1129772 L2.92614576,20.8897746 L296.509938,20.8897746 L296.509938,22.1129772 L2.92614576,22.1129772 Z M2.92614576,42.7107247 L2.92614576,41.4875221 L296.509938,41.4875221 L296.509938,42.7107247 L2.92614576,42.7107247 Z M2.92614576,63.2705389 L2.92614576,62.0473363 L296.509938,62.0473363 L296.509938,63.2705389 L2.92614576,63.2705389 Z M2.92614576,104.4281 L2.92614576,103.204898 L296.509938,103.204898 L296.509938,104.4281 L2.92614576,104.4281 Z M2.92614576,124.987914 L2.92614576,123.764712 L296.509938,123.764712 L296.509938,124.987914 L2.92614576,124.987914 Z M2.92614576,145.547729 L2.92614576,144.324527 L296.509938,144.324527 L296.509938,145.547729 L2.92614576,145.547729 Z M37.7718902,0.94156168 L38.9950928,0.94156168 L38.9950928,163.068215 L37.7718902,163.068215 L37.7718902,0.94156168 Z M74.9339161,0.94156168 L76.1571187,0.94156168 L76.1571187,163.068215 L74.9339161,163.068215 L74.9339161,0.94156168 Z M112.05806,0.94156168 L113.281262,0.94156168 L113.281262,163.068215 L112.05806,163.068215 L112.05806,0.94156168 Z M149.220086,0.94156168 L150.443288,0.94156168 L150.443288,163.068215 L149.220086,163.068215 L149.220086,0.94156168 Z M186.34423,0.94156168 L187.567432,0.94156168 L187.567432,163.068215 L186.34423,163.068215 L186.34423,0.94156168 Z M223.468374,0.94156168 L224.691576,0.94156168 L224.691576,163.068215 L223.468374,163.068215 L223.468374,0.94156168 Z M260.6304,0.94156168 L261.853602,0.94156168 L261.853602,163.068215 L260.6304,163.068215 L260.6304,0.94156168 Z" id="Shape" fill="#DFDEDE" fill-rule="nonzero"></path>
                    <polygon id="Path" fill="#2A3052" points="2.92614576 85.8303531 2.92614576 84.6071505 296.509938 84.6071505 296.509938 85.8303531"></polygon>
                    <polygon id="Path" fill="#C2C2C2" points="0.804766102 2.95109018 0.804766102 0.504306035 298.631318 0.504306035 298.631318 2.95109018"></polygon>
                    <path d="M112.36199,59.1384298 L76.4751351,103.144934 C75.6605692,104.143802 74.0970891,104.013686 73.4588403,102.893913 L36.7892776,38.5591439 C36.2874325,37.6786839 36.5943606,36.5581042 37.4748207,36.0562592 C38.3552807,35.5544141 39.4758604,35.8613422 39.9777054,36.7418023 L75.3221532,98.7517285 L110.906644,55.1159998 C111.629933,54.2290616 112.979771,54.2133764 113.723474,55.0832681 L156.669285,105.315926 L189.644357,63.5223167 C190.421799,62.5369628 191.936866,62.6054601 192.622221,63.6569482 L234.42558,127.792666 L261.020228,124.55477 C262.026239,124.432289 262.941062,125.14853 263.063544,126.15454 C263.186025,127.160551 262.469784,128.075374 261.463774,128.197856 L233.734312,131.573915 C233.039658,131.658489 232.357376,131.340608 231.975263,130.754361 L190.942868,67.8014757 L158.166759,109.342914 C157.450402,110.250846 156.082949,110.27776 155.331422,109.398717 L112.36199,59.1384298 Z" id="Path" fill="#2A3052"></path>
                    <path d="M188.508984,116.513672 L153.08952,116.513672 L147.634544,108.206293 L142.179568,116.513672 L106.760104,116.513672 C104.108379,116.513672 101.987,118.675866 101.987,121.369126 L101.987,146.442996 C101.987,149.136255 104.146261,151.29845 106.760104,151.29845 L188.546866,151.29845 C191.198591,151.29845 193.31997,149.136255 193.31997,146.442996 L193.31997,121.369126 C193.31997,118.675866 191.160709,116.513672 188.508984,116.513672 Z" id="Path" fill="#E88024"></path>
                    <g id="Group" opacity="0.6" transform="translate(252.794364, 117.755007)" fill="#FFFFFF">
                        <ellipse id="Oval" cx="8.44763686" cy="8.6213062" rx="8.22034619" ry="8.57291147"></ellipse>
                    </g>
                    <path d="M261.242001,136.172617 C256.014608,136.172617 251.798263,131.775435 251.798263,126.376313 C251.798263,120.977191 256.014608,116.580009 261.242001,116.580009 C266.469394,116.580009 270.685739,120.977191 270.685739,126.376313 C270.685739,131.775435 266.469394,136.172617 261.242001,136.172617 Z M261.242001,133.725832 C265.094551,133.725832 268.238955,130.446567 268.238955,126.376313 C268.238955,122.306059 265.094551,119.026794 261.242001,119.026794 C257.389451,119.026794 254.245047,122.306059 254.245047,126.376313 C254.245047,130.446567 257.389451,133.725832 261.242001,133.725832 Z" id="Oval" fill="#E88024" fill-rule="nonzero"></path>
                    <g id="Group" opacity="0.6" transform="translate(29.291864, 28.508563)" fill="#FFFFFF">
                        <ellipse id="Oval" cx="9.09162712" cy="9.14191001" rx="8.22034619" ry="8.57291147"></ellipse>
                    </g>
                    <path d="M38.3834915,47.4467766 C33.1560981,47.4467766 28.9397532,43.0495955 28.9397532,37.6504731 C28.9397532,32.2513507 33.1560981,27.8541696 38.3834915,27.8541696 C43.6108849,27.8541696 47.8272298,32.2513507 47.8272298,37.6504731 C47.8272298,43.0495955 43.6108849,47.4467766 38.3834915,47.4467766 Z M38.3834915,44.9999925 C42.2360418,44.9999925 45.3804456,41.7207273 45.3804456,37.6504731 C45.3804456,33.5802189 42.2360418,30.3009537 38.3834915,30.3009537 C34.5309412,30.3009537 31.3865374,33.5802189 31.3865374,37.6504731 C31.3865374,41.7207273 34.5309412,44.9999925 38.3834915,44.9999925 Z" id="Oval" fill="#E88024" fill-rule="nonzero"></path>
                </g>
            </g>
            <g id="Group" transform="translate(16.000000, 43.000000)" fill="#2A3052" fill-rule="nonzero">
                <path d="M13.718,11.747 C13.682,11.569 13.682,11.426 13.682,11.247 C13.432,11.604 13.11,11.89 12.717,12.141 C12.323,12.391 11.894,12.498 11.43,12.498 C10.679,12.498 10.107,12.319 9.714,11.89 C9.29962745,11.4599115 9.07984876,10.8786547 9.106,10.282 C9.106,9.567 9.392,9.03 9.964,8.637 C10.536,8.244 11.287,8.029 12.252,8.029 L13.682,8.029 L13.682,7.314 C13.682,6.885 13.539,6.528 13.289,6.278 C13.039,6.028 12.645,5.884 12.18,5.884 C11.751,5.884 11.394,5.992 11.144,6.206 C10.894,6.421 10.75,6.706 10.75,6.993 L9.5,6.993 L9.5,6.957 C9.464,6.421 9.715,5.92 10.25,5.491 C10.787,5.062 11.466,4.811 12.289,4.811 C13.111,4.811 13.79,5.026 14.291,5.455 C14.791,5.885 15.041,6.492 15.041,7.279 L15.041,10.818 C15.041,11.068 15.041,11.318 15.077,11.568 C15.113,11.818 15.149,12.069 15.22,12.284 L13.826,12.284 L13.826,12.355 C13.7934024,12.1518052 13.7577316,11.9491153 13.719,11.747 L13.718,11.747 Z M11.554,11.318 C12.018,11.318 12.484,11.211 12.841,10.961 C13.234,10.711 13.484,10.425 13.591,10.103 L13.591,8.923 L12.126,8.923 C11.589,8.923 11.16,9.066 10.839,9.316 C10.5407814,9.54701312 10.3685496,9.90481081 10.374,10.282 C10.374,10.603 10.481,10.854 10.66,11.068 C10.874,11.211 11.16,11.318 11.554,11.318 Z M19.106,2.888 L19.106,4.761 L20.566,4.761 L20.566,5.81 L19.106,5.81 L19.106,10.492 C19.106,10.867 19.18,11.092 19.33,11.242 C19.48,11.391 19.667,11.466 19.93,11.466 C20.005,11.466 20.08,11.466 20.192,11.429 C20.2843024,11.4267666 20.3744974,11.4009474 20.454,11.354 L20.641,12.328 C20.529,12.402 20.379,12.478 20.191,12.552 C19.9943917,12.5953047 19.7942131,12.6204107 19.593,12.627 C19.0905363,12.6445142 18.6028937,12.4550963 18.244,12.103 C17.907,11.766 17.757,11.203 17.757,10.492 L17.757,5.81 L16.558,5.81 L16.558,4.76 L17.758,4.76 L17.758,2.888 L19.106,2.888 Z M0.304,12.498 L0.304,2.27 L3.569,2.27 C5.289,2.27 7.094,3.192 7.094,4.763 C7.094,6.334 6.118,6.701 5.61,7.012 C7.014,7.377 7.715,8.27 7.715,9.692 C7.715,11.822 5.903,12.499 4.419,12.499 L0.304,12.499 L0.304,12.498 Z M1.714,6.591 L3.676,6.591 C4.871,6.591 5.639,6.026 5.639,4.805 C5.639,3.584 4.443,3.445 3.614,3.445 L1.714,3.445 L1.714,6.591 Z M1.716,7.706 L1.716,11.38 L4.503,11.38 C5.325,11.38 6.373,10.81 6.373,9.543 C6.373,8.275 5.333,7.706 4.503,7.706 L1.716,7.706 Z M13.158,2.19 C13.739,2.206 13.738,2.217 14.12,2.175 C14.12,2.79 13.649,3.615 12.212,3.615 C10.775,3.615 9.98,2.969 9.98,2.175 L11.029,2.19 C11.03,2.709 11.424,2.969 12.212,2.969 C13.048,2.885 13.002,2.715 13.158,2.189 L13.158,2.19 Z M11.7,1.991 L12.406,1.991 L13.499,0.713 L12.406,0.713 L11.7,1.991 Z" id="Shape"></path>
                <g id="Shape" transform="translate(23.000000, 0.000000)">
                    <path d="M13.313,11.86 C13.276,11.677 13.276,11.53 13.276,11.347 C13.019,11.714 12.69,12.007 12.286,12.264 C11.8910635,12.5120164 11.4322637,12.6392291 10.966,12.63 C10.196,12.63 9.61,12.447 9.207,12.007 C8.78203007,11.5655922 8.55681989,10.9691287 8.584,10.357 C8.584,9.624 8.877,9.075 9.464,8.671 C10.05,8.268 10.82,8.048 11.81,8.048 L13.276,8.048 L13.276,7.315 C13.276,6.875 13.129,6.509 12.873,6.252 C12.616,5.995 12.213,5.849 11.736,5.849 C11.296,5.849 10.93,5.959 10.673,6.179 C10.417,6.399 10.27,6.692 10.27,6.985 L8.987,6.985 L8.987,6.949 C8.951,6.399 9.207,5.885 9.757,5.446 C10.307,5.006 11.003,4.749 11.847,4.749 C12.69,4.749 13.386,4.969 13.899,5.409 C14.412,5.849 14.669,6.472 14.669,7.279 L14.669,10.907 C14.669,11.164 14.669,11.421 14.706,11.677 C14.742,11.934 14.779,12.19 14.852,12.41 L13.422,12.41 L13.422,12.484 C13.386,12.264 13.349,12.044 13.312,11.86 L13.313,11.86 Z M11.093,11.42 C11.57,11.42 12.047,11.31 12.413,11.054 C12.817,10.797 13.073,10.504 13.183,10.174 L13.183,8.964 L11.68,8.964 C11.13,8.964 10.69,9.111 10.36,9.368 C10.0546033,9.60488552 9.87831172,9.97154229 9.884,10.358 C9.884,10.688 9.994,10.944 10.177,11.164 C10.397,11.311 10.691,11.421 11.094,11.421 L11.093,11.42 Z M0.515,8.712 C0.515,7.527 0.766,6.557 1.269,5.839 C1.772,5.121 2.49,4.762 3.388,4.762 C3.818,4.762 4.214,4.833 4.537,5.012 C4.86,5.157 5.147,5.408 5.399,5.695 L5.399,1.637 L6.728,1.637 L6.728,12.303 L5.65,12.303 L5.507,11.405 C5.2847329,11.7315435 4.9896429,12.0019856 4.645,12.195 C4.263,12.375 3.845,12.461 3.424,12.447 C2.526,12.447 1.844,12.123 1.341,11.477 C0.838,10.831 0.587,9.969 0.587,8.891 L0.587,8.711 L0.515,8.711 L0.515,8.712 Z M1.825,8.857 C1.825,9.611 1.969,10.222 2.292,10.653 C2.616,11.083 3.047,11.335 3.693,11.335 C4.088,11.335 4.411,11.227 4.699,11.048 C4.986,10.868 5.201,10.617 5.345,10.293 L5.345,6.846 C5.18583845,6.55007611 4.95035276,6.30216009 4.663,6.128 C4.37371446,5.94153342 4.03717047,5.84161109 3.693,5.84 C3.047,5.84 2.58,6.092 2.293,6.63 C2.005,7.17 1.826,7.851 1.826,8.713 L1.826,8.857 L1.825,8.857 Z M21.503,4.923 L22.833,4.923 L22.833,12.456 L21.503,12.456 L21.503,11.338 C21.081,11.884 20.384,12.762 18.986,12.614 C17.589,12.466 16.724,11.37 16.718,10.161 C16.712,8.953 16.724,4.514 16.718,4.923 L18.038,4.923 L18.038,7.777 C18.038,11.115 18.772,11.485 19.776,11.485 C20.78,11.485 21.272,10.637 21.503,10.355 C21.4914734,8.54435168 21.4914734,6.73364832 21.503,4.923 Z"></path>
                    <path d="M8.082,2.818 L8.082,3.812 L3.652,3.812 L3.652,2.818 L8.082,2.818 Z M9.499,2.396 L8.54,2.396 L7.15,0.636 L8.54,0.636 L9.499,2.396 Z M10.51,3.674 L9.142,3.674 L11.102,1.824 L12.186,1.824 L14.241,3.674 L12.803,3.674 L11.692,2.589 L10.51,3.674 Z"></path>
                </g>
            </g>
            <g id="Group" transform="translate(236.000000, 173.000000)" fill="#2A3052" fill-rule="nonzero">
                <path d="M23.008,3.055 L23.008,4.71 L24.299,4.71 L24.299,5.638 L23.009,5.638 L23.009,9.776 C23.009,10.107 23.074,10.306 23.207,10.439 C23.339,10.571 23.505,10.637 23.737,10.637 C23.803,10.637 23.869,10.637 23.968,10.604 C24.068,10.604 24.134,10.571 24.2,10.538 L24.366,11.398 C24.266,11.465 24.134,11.531 23.968,11.598 C23.7937416,11.6362674 23.6163216,11.6583612 23.438,11.664 C22.9942247,11.6788719 22.5637547,11.5111657 22.247,11.2 C21.949,10.902 21.817,10.405 21.817,9.776 L21.817,5.638 L20.757,5.638 L20.757,4.71 L21.817,4.71 L21.817,3.055 L23.008,3.055 Z M37.09,4.817 L38.272,4.817 L38.272,11.51 L37.09,11.51 L37.09,10.517 C36.714,11.002 36.096,11.781 34.854,11.65 C33.612,11.519 32.844,10.545 32.838,9.47 C32.833,8.397 32.844,4.453 32.838,4.817 L34.011,4.817 L34.011,7.353 C34.011,10.319 34.663,10.647 35.555,10.647 C36.447,10.647 36.885,9.894 37.09,9.642 C37.08,8.232 37.08,6.624 37.09,4.817 Z M44.225,7.012 C44.665,6.999 45.076,7.012 45.342,7.012 C45.342,5.047 43.784,4.528 42.532,4.528 C41.28,4.528 39.722,5.664 39.722,8.101 C39.722,10.538 41.089,11.724 42.785,11.662 C44.482,11.602 45.342,10.312 45.342,9.362 C44.9697494,9.37309895 44.5972506,9.37309895 44.225,9.362 C44.225,10.259 43.418,10.73 42.785,10.73 C41.271,10.73 40.927,9.26 40.927,8.092 C40.927,6.924 41.315,5.482 42.667,5.482 C43.815,5.482 44.225,6.372 44.225,7.012 Z M16.424,3.247 L16.424,4.862 L17.684,4.862 L17.684,5.766 L16.424,5.766 L16.424,9.803 C16.424,10.126 16.489,10.32 16.618,10.449 C16.748,10.578 16.908,10.643 17.135,10.643 C17.2,10.643 17.265,10.643 17.361,10.61 C17.4405556,10.6082697 17.5183496,10.5862396 17.587,10.546 L17.749,11.386 C17.6264968,11.4632365 17.4965033,11.5278982 17.361,11.579 C17.1910352,11.6165365 17.0179669,11.6382956 16.844,11.644 C16.4111428,11.6586374 15.9911912,11.4952827 15.682,11.192 C15.391,10.901 15.262,10.417 15.262,9.802 L15.262,5.766 L14.228,5.766 L14.228,4.862 L15.262,4.862 L15.262,3.247 L16.424,3.247 Z M13.493,8.4 L9.213,8.4 C9.213,9.195 9.375,9.77 9.7,10.123 C10.126,10.589 10.575,10.758 11.19,10.696 C12.265,10.589 12.472,10.301 12.917,10.047 L13.37,10.824 C12.84,11.371 11.993,11.644 10.829,11.644 C9.083,11.644 8.018,10.198 7.949,8.474 C7.879,6.752 8.566,4.753 10.829,4.669 C12.746,4.72 13.634,5.964 13.493,8.401 L13.493,8.4 Z M12.291,7.453 C12.279,6.241 11.791,5.635 10.831,5.635 C9.868,5.635 9.343,6.241 9.253,7.453 L12.291,7.453 Z M0.632,2.521 L1.834,2.521 L1.834,6.513 L2.559,6.513 L5.885,2.521 L7.255,2.521 L3.606,6.81 L7.51,11.529 L6.014,11.529 L2.681,7.496 L1.834,7.496 L1.834,11.529 L0.632,11.529 L0.632,2.521 Z M9.485,3.572 L8.263,3.572 L10.017,1.93 L10.957,1.93 L12.805,3.572 L11.504,3.572 L10.534,2.577 L9.485,3.572 Z M13.24,0.9 L12.411,2.52 L13.241,2.52 L14.527,0.9 L13.24,0.9 Z M25.66,2.008 L25.66,11.665 L26.842,11.665 L26.842,6.71 C27,6.193 27.489,5.91 28.31,5.863 C29.54,5.793 29.854,6.627 29.854,7.21 L29.854,11.665 L31.099,11.665 C31.059,8.975 31.039,7.386 31.039,6.898 C31.039,6.166 30.329,4.664 28.441,4.918 C27.143,5.253 27.237,5.501 26.841,5.863 C26.816,5.583 26.816,4.322 26.841,2.078 L25.66,2.008 Z M36.12,2.54 L35.225,2.54 L36.372,0.9 L37.787,0.9 L36.12,2.54 Z" id="Shape"></path>
            </g>
            <g id="Group" transform="translate(240.000000, 127.000000)" fill="#6D6E71" fill-rule="nonzero">
                <path d="M22.81,9.783 L23.931,9.783 L24.896,3.446 L23.746,3.446 L22.81,9.783 Z M25.312,0.587 L25.152,1.769 L23.98,1.769 L24.18,0.587 L25.312,0.587 Z M14.277,9.669 L15.34,9.669 L16.255,3.663 L15.165,3.663 L14.277,9.669 Z M6.03,3.701 L7.096,3.701 C7.323,2.59 6.785,0.884 4.376,0.939 C1.967,0.993 1.199,2.895 0.916,3.557 C0.634,4.219 0.534,5.765 0.438,6.557 C0.342,7.351 0.779,9.265 2.754,9.509 C4.729,9.753 6.402,8.518 6.621,6.758 L5.561,6.758 C5.37,7.3 5.233,8.851 2.987,8.628 C1.765,8.506 1.473,7.113 1.579,6.276 C1.684,5.439 1.739,4.516 2.084,3.556 C2.501,2.397 3.41,1.813 4.311,1.813 C5.568,1.813 6.141,2.443 6.031,3.701 L6.03,3.701 Z M30.313,8.188 C30.378,8.348 30.453,8.518 30.631,8.896 C29.293,9.916 27.753,9.776 27.034,9.355 C25.951,8.72 25.951,7.541 25.956,6.629 C25.963,5.466 26.818,3.303 29.199,3.303 C31.579,3.303 31.189,5.873 31.073,6.629 C30.829,6.629 29.517,6.653 27.134,6.7 C26.914,9.528 29.05,8.896 30.313,8.188 Z M30.169,5.915 C30.309,4.798 29.965,4.24 29.141,4.24 C27.904,4.24 27.471,5.55 27.331,5.915 L30.169,5.915 Z M20.47,1.951 L21.597,1.951 L21.367,3.468 L22.553,3.468 L22.437,4.295 L21.265,4.295 C21.066251,5.57583275 20.8685843,6.85683321 20.672,8.138 C20.626,8.446 20.576,9.015 21.65,8.805 C21.672,9.102 21.685,9.359 21.69,9.575 C21.265,9.865 19.272,10.191 19.544,8.138 L20.101,4.306 L19.137,4.295 L19.272,3.468 L20.236,3.468 L20.47,1.951 Z M15.531,2.448 L16.312,2.448 L16.41,2.092 C17.028,1.912 17.354,1.596 17.386,1.145 C17.434,0.468 16.856,0.125 15.815,0.125 L15.676,0.732 C16.246,0.693 16.53,0.831 16.53,1.145 C16.53,1.615 15.769,1.615 15.624,1.615 C15.597,1.78 15.566,2.058 15.531,2.448 Z M30.989,2.121 L30.989,2.211 L30.062,2.211 L29.335,1.382 L28.344,2.258 L27.451,2.258 L27.451,2.121 L29.084,0.713 L29.76,0.713 L30.989,2.121 Z M36.842,3.375 L37.889,3.375 L37.027,9.607 L36.004,9.607 C36.045,9.164 36.066,8.859 36.066,8.693 C35.617,9.41 34.964,9.749 34.106,9.711 C32.819,9.654 32.022,8.885 32.354,7.085 L32.905,3.405 L33.978,3.405 C33.608,5.838 33.424,7.173 33.424,7.408 C33.424,7.762 33.246,8.812 34.34,8.812 C35.434,8.812 35.934,8.299 36.176,7.853 C36.292,7.179 36.514,5.686 36.842,3.375 Z M8.874,0.665 L9.956,0.665 C9.596,2.736 9.416,3.901 9.416,4.158 C10.096,3.59 10.797,3.306 11.518,3.306 C12.599,3.306 13.217,4.268 13.217,5.01 C13.217,5.504 13.011,7.016 12.599,9.544 L11.519,9.544 C11.89,7.024 12.076,5.655 12.076,5.434 C12.076,5.104 12.046,4.284 11.178,4.158 C10.309,4.032 9.584,4.68 9.281,5.01 L8.633,9.593 L7.538,9.593 L8.874,0.665 Z" id="Shape"></path>
            </g>
            <g id="Group" transform="translate(118.000000, 156.000000)" fill="#FFFFFF" fill-rule="nonzero">
                <path d="M57.391,11.008 L54.888,11.008 L54.888,2.938 L57.391,2.938 L57.391,11.008 Z M57.391,15.253 L54.888,15.253 L54.888,13.085 L57.391,13.085 L57.391,15.253 Z" id="Shape"></path>
                <path d="M32.934,5.653 L34.935,5.653 L35.036,7.111 C35.856,5.888 36.919,5.344 38.226,5.48 C38.983,5.558 40.58,5.806 41.056,7.956 C41.23,8.744 41.193,10.076 41.18,11.885 C41.1747406,13.1013276 41.1747406,14.3176724 41.18,15.534 L38.983,15.534 L38.983,9.344 C38.983,8.617 38.78,7.804 38.17,7.497 C37.33,7.074 35.751,7.251 35.118,8.317 L35.118,15.534 L32.934,15.534 L32.934,5.653 Z M25.172,8.466 C24.495,8.462 23.785,8.462 23.042,8.466 C23.042,7.398 23.807,5.46 26.867,5.46 C29.927,5.46 30.661,7.562 30.744,8.014 C30.827,8.466 30.531,14.813 31.171,15.534 L28.898,15.536 C28.71,14.894 28.616,14.419 28.616,14.112 C28.261,14.545 27.651,15.336 26.714,15.626 C25.777,15.916 23.648,16.073 22.776,14.03 C22.202,12.684 22.568,11.17 23.648,10.475 C25.432,9.329 27.884,9.713 28.616,9.713 C28.71,7.668 28.1,7.193 26.714,7.193 C25.79,7.193 25.277,7.617 25.172,8.466 Z M28.615,11.11 C27.8669804,11.0935706 27.1186341,11.0999069 26.371,11.129 C25.478,11.208 24.684,11.867 24.751,12.807 C24.832,13.927 26.106,14.134 27.104,13.81 C27.941,13.539 28.524,12.838 28.615,12.54 L28.615,11.11 Z M50.195,6.54 L50.418,5.284 L52.232,5.284 L52.232,15.338 C52.239,18.842 48.304,20.184 44.689,18.434 C44.896,17.401 45.009,16.823 45.03,16.7 C46.606,17.226 50.526,18.543 50.027,14.18 C47.777,16.486 45.229,15.089 44.348,13.55 C43.376,11.85 42.743,6.78 45.871,5.413 C47.674,4.625 49.115,5.001 50.195,6.54 Z M50.007,8.073 C49.579,7.425 49.304,6.885 47.867,6.885 C46.429,6.885 45.529,8.649 45.841,11.357 C46.153,14.065 49.092,14.065 50.007,12.352 L50.007,8.072 L50.007,8.073 Z M12.422,1.268 L14.534,1.268 C14.574,4.73 14.593,6.616 14.593,6.927 C15.108,6.127 16.601,5.037 18.193,5.531 C20.722,6.313 20.606,7.962 20.721,9.069 C20.798,9.807 20.798,11.962 20.721,15.534 L18.531,15.534 C18.591,12.584 18.591,10.49 18.531,9.249 C18.611,7.099 15.937,6.452 14.534,8.373 L14.593,15.533 L12.423,15.533 L12.423,1.268 L12.422,1.268 Z M11.033,2.192 L11.033,3.87 L6.908,3.87 L6.908,15.433 L4.62,15.433 L4.62,3.87 L0.752,3.87 L0.752,2.192 L11.033,2.192 Z M28.131,2.058 L29.778,2.058 C29.698,2.844 29.147,4.1 26.874,4.1 C24.601,4.1 23.81,2.675 23.984,2.058 L25.594,2.035 C25.724,2.673 26.154,2.992 26.882,2.992 C27.611,2.992 28.027,2.681 28.132,2.058 L28.131,2.058 Z M26.276,1.736 L27.46,1.736 L28.901,0.012 L27.309,0.012 L26.276,1.736 Z" id="Shape"></path>
            </g>
            <g id="Group" transform="translate(15.000000, 10.000000)" fill="#020202">
                <path d="M16.84,6.4 C16.112,6.398 15.888,6.41 15.093,6.4 C15.093,5.786 15.497,4.37 17.796,4.37 C20.096,4.37 20.585,5.954 20.585,6.4 C20.585,6.847 20.451,10.387 20.868,10.859 L19.1,10.859 C19.1,10.859 18.813,10.541 18.813,9.796 C18.522,10.859 16.149,11.836 14.992,10.016 C14.448,9.162 14.868,7.938 15.707,7.529 C16.697,7.047 18.141,7.15 18.813,7.15 C18.801,6.512 18.728,6.003 18.389,5.786 C17.809,5.416 16.839,5.677 16.839,6.401 L16.84,6.4 Z M18.82,7.938 C18.386,7.925 18.25,7.943 17.585,7.938 C17.381,7.989 17.137,7.938 16.807,8.346 C16.505,8.718 16.601,9.336 17.057,9.502 C17.894,9.807 18.819,9.062 18.819,8.847 L18.819,7.938 L18.82,7.938 Z M7.773,1.584 L9.629,1.584 L9.629,5.215 C9.868,4.951 10.191,4.346 11.416,4.29 C12.64,4.235 13.71,5.099 13.71,6.815 L13.71,10.853 L11.872,10.853 L11.872,6.815 C11.872,6.152 11.547,5.565 10.742,5.639 C10.206,5.689 9.834,5.851 9.629,6.123 L9.629,10.853 L7.773,10.853 L7.773,1.584 Z M6.908,2.165 L6.908,3.502 L4.297,3.502 L4.297,10.977 L2.452,10.977 L2.452,3.502 L0.002,3.502 L0.002,2.165 L6.908,2.165 Z M50.93,10.97 L49.055,10.97 L49.055,4.52 L50.749,4.52 C50.81,4.95 50.852,5.256 50.874,5.436 C51.337,4.628 52.568,4.039 53.822,4.573 C54.222,4.743 54.993,5.25 54.993,6.943 L54.993,10.968 L53.168,10.976 L53.168,6.942 C53.168,5.958 52.742,5.684 52.064,5.739 C51.38,5.794 51.056,6.05 50.931,6.262 C50.891,6.434 50.891,8.003 50.931,10.968 L50.93,10.97 Z M44.437,4.274 C45.218,4.234 46.3,4.627 46.853,5.161 C47.573,4.563 47.501,3.528 47.538,3.566 C47.956,3.588 48.281,3.585 48.843,3.566 C48.863,4.123 48.659,5.473 47.409,5.949 C47.711,6.496 47.808,7.321 47.808,7.565 C47.808,8.639 47.582,9.415 47.048,10.043 C46.446,10.753 45.507,11.077 44.744,11.077 C43.954,11.077 43.097,10.958 42.377,10.325 C41.787,9.805 41.242,8.917 41.297,7.675 C41.357,6.304 41.82,5.522 42.377,5.025 C42.94,4.525 43.601,4.317 44.437,4.274 Z M44.597,5.596 C43.989,5.596 43.167,5.868 43.167,7.572 C43.167,9.276 43.831,9.688 44.597,9.688 C45.363,9.688 46.004,9.01 45.949,7.49 C45.895,5.97 45.204,5.596 44.597,5.596 Z M38.234,2.204 L40.036,2.204 L40.036,10.853 L38.234,10.853 L38.234,7.278 L34.452,7.278 L34.452,10.853 L32.66,10.853 L32.66,2.203 L34.452,2.203 L34.452,5.926 L38.234,5.926 L38.234,2.204 Z M16.854,4.1 L15.146,4.1 L17.044,1.878 L18.596,1.878 L20.488,4.1 L18.77,4.1 L17.834,2.854 L16.854,4.1 Z M23.795,13.431 L21.974,13.431 L21.974,4.51 L23.608,4.51 C23.665,4.842 23.71,5.082 23.744,5.231 C24.155,4.839 24.281,4.423 25.537,4.371 C26.793,4.321 28.106,5.503 28.106,7.383 C28.106,8.252 27.993,9.303 27.55,9.984 C27.035,10.777 26.137,11.129 25.442,11.06 C24.15,10.932 24.15,10.616 23.795,10.306 C23.798,10.88 23.798,11.921 23.795,13.431 Z M23.813,6.318 L23.813,9.163 C23.926,9.431 24.498,9.778 25.023,9.724 C25.275,9.698 25.698,9.61 25.939,9.263 C26.199,8.888 26.269,8.236 26.269,7.713 C26.269,6.705 25.873,5.68 25.023,5.71 C24.173,5.74 23.996,6.065 23.813,6.318 Z" id="Shape" fill-rule="nonzero"></path>
                <polygon id="Path" points="19.185 2.615 20.455 2.615 21.739 0.392 20.127 0.392"></polygon>
            </g>
        </g>
    </g>
</svg>