<?xml version="1.0" encoding="UTF-8"?>
<svg width="299px" height="197px" viewBox="0 0 299 197" version="1.1" xmlns="http://www.w3.org/2000/svg" xmlns:xlink="http://www.w3.org/1999/xlink">
    <!-- Generator: Sketch 52.6 (67491) - http://www.bohemiancoding.com/sketch -->
    <title>matches</title>
    <desc>Created with Sketch.</desc>
    <defs>
        <path d="M115.072754,22 L115.072754,12.7578125 L117.681641,12.7578125 C118.485681,12.7578125 119.196611,12.9355451 119.814453,13.2910156 C120.432295,13.6464862 120.909422,14.1521777 121.24585,14.8081055 C121.582277,15.4640332 121.752604,16.2172809 121.756836,17.0678711 L121.756836,17.6582031 C121.756836,18.5299523 121.588625,19.2937793 121.252197,19.949707 C120.91577,20.6056348 120.435469,21.1092105 119.811279,21.4604492 C119.18709,21.811688 118.460291,21.9915364 117.630859,22 L115.072754,22 Z M116.291504,13.7607422 L116.291504,21.003418 L117.57373,21.003418 C118.513188,21.003418 119.244219,20.7114287 119.766846,20.1274414 C120.289472,19.5434541 120.550781,18.7119195 120.550781,17.6328125 L120.550781,17.0932617 C120.550781,16.0437773 120.304283,15.2281116 119.811279,14.6462402 C119.318276,14.0643688 118.618982,13.7692058 117.713379,13.7607422 L116.291504,13.7607422 Z M130.745117,14.5859375 C130.745117,15.3476601 130.589601,15.8840316 130.278564,16.1950684 C129.967528,16.5061051 129.473473,16.6700846 128.796387,16.6870117 L128.796387,22 L127.679199,22 L127.653809,21.3208008 C127.196775,21.8582384 126.526046,22.1269531 125.641602,22.1269531 C124.909502,22.1269531 124.351971,21.9143088 123.968994,21.4890137 C123.586017,21.0637186 123.392415,20.434249 123.388184,19.6005859 L123.388184,15.1318359 L124.5625,15.1318359 L124.5625,19.5688477 C124.5625,20.6098685 124.985673,21.1303711 125.832031,21.1303711 C126.729171,21.1303711 127.325845,20.7960645 127.62207,20.1274414 L127.62207,15.1318359 L128.796387,15.1318359 L128.796387,15.9633789 C129.084149,15.9549153 129.299967,15.913656 129.443848,15.8395996 C129.587729,15.7655432 129.690348,15.6523445 129.751709,15.5 C129.81307,15.3476555 129.84375,15.042971 129.84375,14.5859375 L130.745117,14.5859375 Z M125.362305,23.5551758 C125.362305,23.3647451 125.420491,23.2039395 125.536865,23.0727539 C125.65324,22.9415684 125.825682,22.8759766 126.054199,22.8759766 C126.282716,22.8759766 126.456217,22.9415684 126.574707,23.0727539 C126.693197,23.2039395 126.752441,23.3647451 126.752441,23.5551758 C126.752441,23.7456064 126.693197,23.9042962 126.574707,24.03125 C126.456217,24.1582038 126.282716,24.2216797 126.054199,24.2216797 C125.825682,24.2216797 125.65324,24.1582038 125.536865,24.03125 C125.420491,23.9042962 125.362305,23.7456064 125.362305,23.5551758 Z M135.048828,22 L135.048828,17.7724609 L133.830078,17.7724609 L133.830078,16.8139648 L135.048828,16.8139648 L135.048828,12.7578125 L137.657715,12.7578125 C138.461755,12.7578125 139.172686,12.9355451 139.790527,13.2910156 C140.408369,13.6464862 140.885496,14.1521777 141.221924,14.8081055 C141.558351,15.4640332 141.728678,16.2172809 141.73291,17.0678711 L141.73291,17.6582031 C141.73291,18.5299523 141.564699,19.2937793 141.228271,19.949707 C140.891844,20.6056348 140.411543,21.1092105 139.787354,21.4604492 C139.163164,21.811688 138.436365,21.9915364 137.606934,22 L135.048828,22 Z M137.867188,17.7724609 L136.267578,17.7724609 L136.267578,21.003418 L137.543457,21.003418 C138.482915,21.003418 139.213946,20.7135446 139.736572,20.1337891 C140.259199,19.5540336 140.522624,18.73731 140.526855,17.6835938 L140.526855,17.0932617 C140.526855,16.0437773 140.280357,15.2281116 139.787354,14.6462402 C139.29435,14.0643688 138.595057,13.7692058 137.689453,13.7607422 L136.267578,13.7607422 L136.267578,16.8139648 L137.867188,16.8139648 L137.867188,17.7724609 Z M143.078613,18.5024414 C143.078613,17.8295865 143.210855,17.2244493 143.475342,16.6870117 C143.739829,16.1495741 144.107989,15.7348647 144.579834,15.4428711 C145.051679,15.1508774 145.590166,15.0048828 146.195312,15.0048828 C147.130539,15.0048828 147.88696,15.32861 148.4646,15.9760742 C149.042239,16.6235384 149.331055,17.4846951 149.331055,18.5595703 L149.331055,18.6420898 C149.331055,19.310713 149.203045,19.9105605 148.947021,20.4416504 C148.690998,20.9727403 148.324954,21.3863917 147.848877,21.6826172 C147.3728,21.9788426 146.825849,22.1269531 146.208008,22.1269531 C145.277014,22.1269531 144.522708,21.8032259 143.945068,21.1557617 C143.367429,20.5082975 143.078613,19.6513725 143.078613,18.5849609 L143.078613,18.5024414 Z M144.259277,18.6420898 C144.259277,19.4038124 144.435952,20.0152972 144.789307,20.4765625 C145.142661,20.9378278 145.615557,21.168457 146.208008,21.168457 C146.80469,21.168457 147.278644,20.934654 147.629883,20.467041 C147.981122,19.999428 148.156738,19.344568 148.156738,18.5024414 C148.156738,17.7491824 147.977948,17.1387556 147.620361,16.6711426 C147.262775,16.2035296 146.787763,15.9697266 146.195312,15.9697266 C145.615557,15.9697266 145.147951,16.2003558 144.79248,16.6616211 C144.43701,17.1228864 144.259277,17.7830361 144.259277,18.6420898 Z M155.043945,22 C154.976237,21.8645827 154.921224,21.6233741 154.878906,21.2763672 C154.333005,21.8434273 153.681319,22.1269531 152.923828,22.1269531 C152.246741,22.1269531 151.691327,21.9354674 151.257568,21.5524902 C150.82381,21.1695131 150.606934,20.6839222 150.606934,20.0957031 C150.606934,19.3805303 150.878822,18.8251159 151.422607,18.4294434 C151.966393,18.0337708 152.731278,17.8359375 153.717285,17.8359375 L154.859863,17.8359375 L154.859863,17.2963867 C154.859863,16.8859029 154.737143,16.5590019 154.491699,16.3156738 C154.246255,16.0723458 153.884442,15.9506836 153.40625,15.9506836 C152.987303,15.9506836 152.636069,16.0564768 152.352539,16.2680664 C152.069009,16.479656 151.927246,16.7356756 151.927246,17.0361328 L150.746582,17.0361328 C150.746582,16.6933577 150.868244,16.3622249 151.111572,16.0427246 C151.3549,15.7232243 151.684975,15.4703785 152.101807,15.2841797 C152.518638,15.0979808 152.976723,15.0048828 153.476074,15.0048828 C154.267419,15.0048828 154.887368,15.2027161 155.335938,15.5983887 C155.784507,15.9940612 156.017253,16.5388963 156.03418,17.2329102 L156.03418,20.394043 C156.03418,21.02458 156.114583,21.5260398 156.275391,21.8984375 L156.275391,22 L155.043945,22 Z M153.095215,21.1049805 C153.463381,21.1049805 153.812498,21.0097666 154.142578,20.8193359 C154.472658,20.6289053 154.711751,20.3813492 154.859863,20.0766602 L154.859863,18.6674805 L153.939453,18.6674805 C152.500644,18.6674805 151.78125,19.0885375 151.78125,19.9306641 C151.78125,20.29883 151.90397,20.5865875 152.149414,20.7939453 C152.394858,21.0013031 152.710122,21.1049805 153.095215,21.1049805 Z M154.180664,12.25 L155.602539,12.25 L153.901367,14.1162109 L152.955566,14.1162109 L154.180664,12.25 Z M158.98584,15.1318359 L159.023926,15.9951172 C159.548668,15.3349576 160.234208,15.0048828 161.080566,15.0048828 C162.532071,15.0048828 163.26416,15.8237223 163.276855,17.4614258 L163.276855,22 L162.102539,22 L162.102539,17.4550781 C162.098307,16.9599585 161.985109,16.5939139 161.762939,16.3569336 C161.54077,16.1199532 161.194827,16.0014648 160.725098,16.0014648 C160.344236,16.0014648 160.00993,16.1030263 159.722168,16.3061523 C159.434406,16.5092784 159.210125,16.7758773 159.049316,17.105957 L159.049316,22 L157.875,22 L157.875,15.1318359 L158.98584,15.1318359 Z M175.248535,19.0673828 C175.134277,20.0449268 174.773522,20.7992324 174.16626,21.3303223 C173.558998,21.8614122 172.751795,22.1269531 171.744629,22.1269531 C170.652827,22.1269531 169.777917,21.7355182 169.119873,20.9526367 C168.461829,20.1697552 168.132812,19.1224024 168.132812,17.8105469 L168.132812,16.921875 C168.132812,16.0628212 168.286213,15.3074577 168.593018,14.6557617 C168.899822,14.0040658 169.334633,13.5036639 169.897461,13.154541 C170.460289,12.8054182 171.111975,12.6308594 171.852539,12.6308594 C172.834315,12.6308594 173.621416,12.9048638 174.213867,13.4528809 C174.806318,14.0008979 175.151204,14.7594353 175.248535,15.7285156 L174.023438,15.7285156 C173.917643,14.9921838 173.688071,14.458986 173.334717,14.1289062 C172.981362,13.7988265 172.487308,13.6337891 171.852539,13.6337891 C171.073889,13.6337891 170.463462,13.9215466 170.02124,14.4970703 C169.579018,15.072594 169.35791,15.8914335 169.35791,16.9536133 L169.35791,17.8486328 C169.35791,18.8515675 169.567381,19.6492483 169.986328,20.2416992 C170.405276,20.8341501 170.99137,21.1303711 171.744629,21.1303711 C172.421716,21.1303711 172.94116,20.9769709 173.302979,20.670166 C173.664797,20.3633611 173.904947,19.8291054 174.023438,19.0673828 L175.248535,19.0673828 Z M177.901855,15.9633789 C178.422366,15.3243783 179.099442,15.0048828 179.933105,15.0048828 C181.38461,15.0048828 182.116699,15.8237223 182.129395,17.4614258 L182.129395,22 L180.955078,22 L180.955078,17.4550781 C180.950846,16.9599585 180.837648,16.5939139 180.615479,16.3569336 C180.393309,16.1199532 180.047366,16.0014648 179.577637,16.0014648 C179.196775,16.0014648 178.862469,16.1030263 178.574707,16.3061523 C178.286945,16.5092784 178.062664,16.7758773 177.901855,17.105957 L177.901855,22 L176.727539,22 L176.727539,12.25 L177.901855,12.25 L177.901855,15.9633789 Z M191.219238,14.5859375 C191.219238,15.3476601 191.063722,15.8840316 190.752686,16.1950684 C190.441649,16.5061051 189.947595,16.6700846 189.270508,16.6870117 L189.270508,22 L188.15332,22 L188.12793,21.3208008 C187.670896,21.8582384 187.000167,22.1269531 186.115723,22.1269531 C185.383623,22.1269531 184.826092,21.9143088 184.443115,21.4890137 C184.060138,21.0637186 183.866536,20.434249 183.862305,19.6005859 L183.862305,15.1318359 L185.036621,15.1318359 L185.036621,19.5688477 C185.036621,20.6098685 185.459794,21.1303711 186.306152,21.1303711 C187.203292,21.1303711 187.799966,20.7960645 188.096191,20.1274414 L188.096191,15.1318359 L189.270508,15.1318359 L189.270508,15.9633789 C189.55827,15.9549153 189.774088,15.913656 189.917969,15.8395996 C190.06185,15.7655432 190.164469,15.6523445 190.22583,15.5 C190.287191,15.3476555 190.317871,15.042971 190.317871,14.5859375 L191.219238,14.5859375 Z M188.934082,12.5800781 C188.934082,13.0371117 188.803956,13.4073879 188.543701,13.690918 C188.283446,13.974448 187.958661,14.1162109 187.569336,14.1162109 C187.395832,14.1162109 187.245606,14.0950523 187.118652,14.0527344 C186.991699,14.0104165 186.825603,13.923666 186.620361,13.7924805 C186.415119,13.6612949 186.267009,13.58195 186.176025,13.5544434 C186.085042,13.5269367 185.980307,13.5131836 185.861816,13.5131836 C185.688313,13.5131836 185.540202,13.5798333 185.41748,13.7131348 C185.294759,13.8464362 185.233398,14.0167633 185.233398,14.2241211 L184.446289,14.1796875 C184.446289,13.7268858 184.574299,13.3523778 184.830322,13.0561523 C185.086346,12.7599269 185.411131,12.6118164 185.804688,12.6118164 C185.9528,12.6118164 186.0861,12.632975 186.20459,12.675293 C186.32308,12.7176109 186.483886,12.8001296 186.687012,12.9228516 C186.890138,13.0455735 187.045654,13.1259764 187.153564,13.1640625 C187.261475,13.2021486 187.381021,13.2211914 187.512207,13.2211914 C187.694174,13.2211914 187.845458,13.149252 187.966064,13.0053711 C188.086671,12.8614902 188.146973,12.6943369 188.146973,12.5039062 L188.934082,12.5800781 Z M199.147461,20.1782227 C199.147461,19.8608383 199.027915,19.6143401 198.788818,19.4387207 C198.549722,19.2631013 198.132897,19.111817 197.53833,18.9848633 C196.943763,18.8579095 196.471926,18.7055673 196.122803,18.527832 C195.77368,18.3500968 195.515544,18.1385103 195.348389,17.8930664 C195.181233,17.6476225 195.097656,17.3556332 195.097656,17.0170898 C195.097656,16.4542615 195.335691,15.9781921 195.811768,15.5888672 C196.287844,15.1995423 196.896155,15.0048828 197.636719,15.0048828 C198.415368,15.0048828 199.046954,15.2058899 199.531494,15.6079102 C200.016034,16.0099304 200.258301,16.5240854 200.258301,17.1503906 L199.077637,17.1503906 C199.077637,16.8287744 198.941163,16.5515962 198.668213,16.3188477 C198.395262,16.0860991 198.051434,15.9697266 197.636719,15.9697266 C197.209308,15.9697266 196.875001,16.0628246 196.633789,16.2490234 C196.392577,16.4352223 196.271973,16.6785467 196.271973,16.9790039 C196.271973,17.262534 196.384113,17.4762363 196.608398,17.6201172 C196.832683,17.7639981 197.237871,17.9015293 197.823975,18.0327148 C198.410078,18.1639004 198.885089,18.3204744 199.249023,18.5024414 C199.612958,18.6844085 199.88273,18.9034004 200.05835,19.1594238 C200.233969,19.4154472 200.321777,19.7275372 200.321777,20.0957031 C200.321777,20.709313 200.076337,21.2012514 199.585449,21.5715332 C199.094561,21.941815 198.457686,22.1269531 197.674805,22.1269531 C197.124672,22.1269531 196.638023,22.0296234 196.214844,21.8349609 C195.791665,21.6402985 195.460532,21.3684099 195.221436,21.0192871 C194.982339,20.6701643 194.862793,20.2924825 194.862793,19.8862305 L196.037109,19.8862305 C196.058268,20.2797871 196.2159,20.5918771 196.51001,20.8225098 C196.804119,21.0531424 197.19238,21.168457 197.674805,21.168457 C198.119143,21.168457 198.475666,21.0785328 198.744385,20.8986816 C199.013104,20.7188305 199.147461,20.4786799 199.147461,20.1782227 Z M201.540527,18.5024414 C201.540527,17.8295865 201.672769,17.2244493 201.937256,16.6870117 C202.201743,16.1495741 202.569903,15.7348647 203.041748,15.4428711 C203.513593,15.1508774 204.05208,15.0048828 204.657227,15.0048828 C205.592453,15.0048828 206.348874,15.32861 206.926514,15.9760742 C207.504153,16.6235384 207.792969,17.4846951 207.792969,18.5595703 L207.792969,18.6420898 C207.792969,19.310713 207.664959,19.9105605 207.408936,20.4416504 C207.152912,20.9727403 206.786868,21.3863917 206.310791,21.6826172 C205.834714,21.9788426 205.287764,22.1269531 204.669922,22.1269531 C203.738928,22.1269531 202.984622,21.8032259 202.406982,21.1557617 C201.829343,20.5082975 201.540527,19.6513725 201.540527,18.5849609 L201.540527,18.5024414 Z M202.721191,18.6420898 C202.721191,19.4038124 202.897866,20.0152972 203.251221,20.4765625 C203.604575,20.9378278 204.077471,21.168457 204.669922,21.168457 C205.266605,21.168457 205.740558,20.934654 206.091797,20.467041 C206.443036,19.999428 206.618652,19.344568 206.618652,18.5024414 C206.618652,17.7491824 206.439862,17.1387556 206.082275,16.6711426 C205.724689,16.2035296 205.249677,15.9697266 204.657227,15.9697266 C204.077471,15.9697266 203.609865,16.2003558 203.254395,16.6616211 C202.898924,17.1228864 202.721191,17.7830361 202.721191,18.6420898 Z M204.136719,12.4467773 L205.101562,12.4467773 L206.942383,14.1162109 L205.691895,14.1162109 L204.619141,13.1069336 L203.540039,14.1162109 L202.283203,14.1162109 L204.136719,12.4467773 Z M207.374023,11.3486328 L208.643555,11.3486328 L207.367676,12.9926758 L206.472656,12.9926758 L207.374023,11.3486328 Z M219.466309,19.0673828 C219.35205,20.0449268 218.991295,20.7992324 218.384033,21.3303223 C217.776771,21.8614122 216.969569,22.1269531 215.962402,22.1269531 C214.8706,22.1269531 213.99569,21.7355182 213.337646,20.9526367 C212.679603,20.1697552 212.350586,19.1224024 212.350586,17.8105469 L212.350586,16.921875 C212.350586,16.0628212 212.503986,15.3074577 212.810791,14.6557617 C213.117596,14.0040658 213.552406,13.5036639 214.115234,13.154541 C214.678063,12.8054182 215.329749,12.6308594 216.070312,12.6308594 C217.052088,12.6308594 217.83919,12.9048638 218.431641,13.4528809 C219.024092,14.0008979 219.368977,14.7594353 219.466309,15.7285156 L218.241211,15.7285156 C218.135416,14.9921838 217.905845,14.458986 217.55249,14.1289062 C217.199136,13.7988265 216.705081,13.6337891 216.070312,13.6337891 C215.291663,13.6337891 214.681236,13.9215466 214.239014,14.4970703 C213.796791,15.072594 213.575684,15.8914335 213.575684,16.9536133 L213.575684,17.8486328 C213.575684,18.8515675 213.785154,19.6492483 214.204102,20.2416992 C214.623049,20.8341501 215.209143,21.1303711 215.962402,21.1303711 C216.639489,21.1303711 217.158934,20.9769709 217.520752,20.670166 C217.88257,20.3633611 218.122721,19.8291054 218.241211,19.0673828 L219.466309,19.0673828 Z M225.185547,21.3208008 C224.728513,21.8582384 224.057784,22.1269531 223.17334,22.1269531 C222.44124,22.1269531 221.88371,21.9143088 221.500732,21.4890137 C221.117755,21.0637186 220.924154,20.434249 220.919922,19.6005859 L220.919922,15.1318359 L222.094238,15.1318359 L222.094238,19.5688477 C222.094238,20.6098685 222.517411,21.1303711 223.36377,21.1303711 C224.260909,21.1303711 224.857583,20.7960645 225.153809,20.1274414 L225.153809,15.1318359 L226.328125,15.1318359 L226.328125,22 L225.210938,22 L225.185547,21.3208008 Z M227.800781,18.5024414 C227.800781,17.8295865 227.933023,17.2244493 228.19751,16.6870117 C228.461997,16.1495741 228.830157,15.7348647 229.302002,15.4428711 C229.773847,15.1508774 230.312334,15.0048828 230.91748,15.0048828 C231.852706,15.0048828 232.609128,15.32861 233.186768,15.9760742 C233.764407,16.6235384 234.053223,17.4846951 234.053223,18.5595703 L234.053223,18.6420898 C234.053223,19.310713 233.925213,19.9105605 233.669189,20.4416504 C233.413166,20.9727403 233.047122,21.3863917 232.571045,21.6826172 C232.094968,21.9788426 231.548017,22.1269531 230.930176,22.1269531 C229.999182,22.1269531 229.244876,21.8032259 228.667236,21.1557617 C228.089597,20.5082975 227.800781,19.6513725 227.800781,18.5849609 L227.800781,18.5024414 Z M228.981445,18.6420898 C228.981445,19.4038124 229.15812,20.0152972 229.511475,20.4765625 C229.864829,20.9378278 230.337725,21.168457 230.930176,21.168457 C231.526858,21.168457 232.000812,20.934654 232.352051,20.467041 C232.70329,19.999428 232.878906,19.344568 232.878906,18.5024414 C232.878906,17.7491824 232.700116,17.1387556 232.342529,16.6711426 C231.984943,16.2035296 231.509931,15.9697266 230.91748,15.9697266 C230.337725,15.9697266 229.870119,16.2003558 229.514648,16.6616211 C229.159178,17.1228864 228.981445,17.7830361 228.981445,18.6420898 Z M230.396973,12.4467773 L231.361816,12.4467773 L233.202637,14.1162109 L231.952148,14.1162109 L230.879395,13.1069336 L229.800293,14.1162109 L228.543457,14.1162109 L230.396973,12.4467773 Z M233.634277,11.3486328 L234.903809,11.3486328 L233.62793,12.9926758 L232.73291,12.9926758 L233.634277,11.3486328 Z M236.801758,22 L235.627441,22 L235.627441,15.1318359 L236.801758,15.1318359 L236.801758,22 Z M235.532227,13.3100586 C235.532227,13.119628 235.590413,12.9588223 235.706787,12.8276367 C235.823161,12.6964512 235.995604,12.6308594 236.224121,12.6308594 C236.452638,12.6308594 236.626139,12.6964512 236.744629,12.8276367 C236.863119,12.9588223 236.922363,13.119628 236.922363,13.3100586 C236.922363,13.5004892 236.863119,13.6591791 236.744629,13.7861328 C236.626139,13.9130866 236.452638,13.9765625 236.224121,13.9765625 C235.995604,13.9765625 235.823161,13.9130866 235.706787,13.7861328 C235.590413,13.6591791 235.532227,13.5004892 235.532227,13.3100586 Z M248.881348,19.0673828 C248.767089,20.0449268 248.406334,20.7992324 247.799072,21.3303223 C247.19181,21.8614122 246.384608,22.1269531 245.377441,22.1269531 C244.285639,22.1269531 243.410729,21.7355182 242.752686,20.9526367 C242.094642,20.1697552 241.765625,19.1224024 241.765625,17.8105469 L241.765625,16.921875 C241.765625,16.0628212 241.919025,15.3074577 242.22583,14.6557617 C242.532635,14.0040658 242.967445,13.5036639 243.530273,13.154541 C244.093102,12.8054182 244.744788,12.6308594 245.485352,12.6308594 C246.467127,12.6308594 247.254229,12.9048638 247.84668,13.4528809 C248.439131,14.0008979 248.784016,14.7594353 248.881348,15.7285156 L247.65625,15.7285156 C247.550455,14.9921838 247.320884,14.458986 246.967529,14.1289062 C246.614175,13.7988265 246.12012,13.6337891 245.485352,13.6337891 C244.706702,13.6337891 244.096275,13.9215466 243.654053,14.4970703 C243.21183,15.072594 242.990723,15.8914335 242.990723,16.9536133 L242.990723,17.8486328 C242.990723,18.8515675 243.200193,19.6492483 243.619141,20.2416992 C244.038088,20.8341501 244.624182,21.1303711 245.377441,21.1303711 C246.054528,21.1303711 246.573973,20.9769709 246.935791,20.670166 C247.297609,20.3633611 247.53776,19.8291054 247.65625,19.0673828 L248.881348,19.0673828 Z M254.600586,21.3208008 C254.143552,21.8582384 253.472823,22.1269531 252.588379,22.1269531 C251.856279,22.1269531 251.298749,21.9143088 250.915771,21.4890137 C250.532794,21.0637186 250.339193,20.434249 250.334961,19.6005859 L250.334961,15.1318359 L251.509277,15.1318359 L251.509277,19.5688477 C251.509277,20.6098685 251.93245,21.1303711 252.778809,21.1303711 C253.675948,21.1303711 254.272622,20.7960645 254.568848,20.1274414 L254.568848,15.1318359 L255.743164,15.1318359 L255.743164,22 L254.625977,22 L254.600586,21.3208008 Z M253.743652,14.1162109 L252.734375,14.1162109 L251.09668,12.25 L252.512207,12.25 L253.743652,14.1162109 Z M258.637695,15.1318359 L258.675781,15.9951172 C259.200523,15.3349576 259.886063,15.0048828 260.732422,15.0048828 C262.183927,15.0048828 262.916016,15.8237223 262.928711,17.4614258 L262.928711,22 L261.754395,22 L261.754395,17.4550781 C261.750163,16.9599585 261.636964,16.5939139 261.414795,16.3569336 C261.192626,16.1199532 260.846682,16.0014648 260.376953,16.0014648 C259.996092,16.0014648 259.661785,16.1030263 259.374023,16.3061523 C259.086262,16.5092784 258.86198,16.7758773 258.701172,17.105957 L258.701172,22 L257.526855,22 L257.526855,15.1318359 L258.637695,15.1318359 Z M264.42041,18.5087891 C264.42041,17.4381457 264.667966,16.5865103 265.163086,15.9538574 C265.658206,15.3212045 266.314124,15.0048828 267.130859,15.0048828 C267.968754,15.0048828 268.622556,15.3011038 269.092285,15.8935547 L269.149414,15.1318359 L270.222168,15.1318359 L270.222168,21.8349609 C270.222168,22.7236373 269.958743,23.4239883 269.431885,23.9360352 C268.905027,24.448082 268.19727,24.7041016 267.308594,24.7041016 C266.813474,24.7041016 266.328941,24.5983083 265.85498,24.3867188 C265.38102,24.1751292 265.019207,23.8852557 264.769531,23.5170898 L265.378906,22.8125 C265.882489,23.4345734 266.498206,23.7456055 267.226074,23.7456055 C267.797366,23.7456055 268.242756,23.5847998 268.562256,23.2631836 C268.881756,22.9415674 269.041504,22.4887725 269.041504,21.9047852 L269.041504,21.3144531 C268.571775,21.8561225 267.930668,22.1269531 267.118164,22.1269531 C266.314124,22.1269531 265.663495,21.8032259 265.16626,21.1557617 C264.669024,20.5082975 264.42041,19.6259821 264.42041,18.5087891 Z M265.601074,18.6420898 C265.601074,19.4165078 265.759764,20.0248188 266.077148,20.467041 C266.394533,20.9092633 266.838864,21.1303711 267.410156,21.1303711 C268.15072,21.1303711 268.694497,20.7939487 269.041504,20.1210938 L269.041504,16.9853516 C268.681802,16.3294238 268.142256,16.0014648 267.422852,16.0014648 C266.85156,16.0014648 266.405112,16.2236306 266.083496,16.6679688 C265.76188,17.1123069 265.601074,17.7703407 265.601074,18.6420898 Z" id="path-1"></path>
        <path d="M282.475586,16.8076172 L283.35791,16.8076172 C283.912275,16.7991536 284.348143,16.653159 284.665527,16.3696289 C284.982912,16.0860988 285.141602,15.7031274 285.141602,15.2207031 C285.141602,14.1373644 284.602056,13.5957031 283.522949,13.5957031 C283.015134,13.5957031 282.609946,13.7406398 282.307373,14.0305176 C282.0048,14.3203953 281.853516,14.7044247 281.853516,15.1826172 L280.679199,15.1826172 C280.679199,14.4505172 280.946856,13.8422062 281.482178,13.357666 C282.017499,12.8731258 282.69775,12.6308594 283.522949,12.6308594 C284.394698,12.6308594 285.078123,12.8614886 285.573242,13.3227539 C286.068362,13.7840192 286.315918,14.4251261 286.315918,15.2460938 C286.315918,15.648114 286.185792,16.037433 285.925537,16.4140625 C285.665282,16.790692 285.310875,17.0721019 284.862305,17.2583008 C285.37012,17.4191089 285.762613,17.6857078 286.039795,18.0581055 C286.316977,18.4305032 286.455566,18.885414 286.455566,19.4228516 C286.455566,20.2522828 286.184736,20.9103166 285.643066,21.3969727 C285.101397,21.8836287 284.396814,22.1269531 283.529297,22.1269531 C282.66178,22.1269531 281.956139,21.8920922 281.412354,21.4223633 C280.868568,20.9526344 280.59668,20.3326861 280.59668,19.5625 L281.777344,19.5625 C281.777344,20.0491561 281.936034,20.4384751 282.253418,20.7304688 C282.570802,21.0224624 282.996091,21.168457 283.529297,21.168457 C284.096357,21.168457 284.530109,21.0203465 284.830566,20.7241211 C285.131024,20.4278957 285.28125,20.0026069 285.28125,19.4482422 C285.28125,18.9108046 285.116213,18.4982111 284.786133,18.2104492 C284.456053,17.9226874 283.979984,17.7745769 283.35791,17.7661133 L282.475586,17.7661133 L282.475586,16.8076172 Z" id="path-2"></path>
        <path d="M128.541922,155.969727 L123.750906,155.969727 L123.750906,169 L120.52825,169 L120.52825,155.969727 L115.801688,155.969727 L115.801688,153.359375 L128.541922,153.359375 L128.541922,155.969727 Z M133.204031,158.644531 C134.027603,157.656245 135.062423,157.162109 136.308523,157.162109 C138.829369,157.162109 140.107677,158.626613 140.143484,161.555664 L140.143484,169 L137.038992,169 L137.038992,161.641602 C137.038992,160.975583 136.895764,160.483237 136.609305,160.164551 C136.322845,159.845864 135.846613,159.686523 135.180594,159.686523 C134.271084,159.686523 133.612236,160.037431 133.204031,160.739258 L133.204031,169 L130.099539,169 L130.099539,152.5 L133.204031,152.5 L133.204031,158.644531 Z M149.220633,169 C149.077403,168.720702 148.973563,168.373374 148.909109,167.958008 C148.157152,168.795903 147.179623,169.214844 145.976492,169.214844 C144.837815,169.214844 143.894302,168.88542 143.145926,168.226562 C142.39755,167.567705 142.023367,166.736984 142.023367,165.734375 C142.023367,164.502598 142.479906,163.557295 143.392996,162.898438 C144.306087,162.23958 145.625572,161.906576 147.351492,161.899414 L148.780203,161.899414 L148.780203,161.233398 C148.780203,160.696286 148.642346,160.266603 148.366629,159.944336 C148.090911,159.622069 147.655857,159.460938 147.061453,159.460938 C146.538664,159.460938 146.128675,159.586262 145.831473,159.836914 C145.534271,160.087566 145.385672,160.431313 145.385672,160.868164 L142.28118,160.868164 C142.28118,160.194984 142.48886,159.571943 142.904227,158.999023 C143.319593,158.426104 143.906827,157.976727 144.665945,157.650879 C145.425064,157.325031 146.277269,157.162109 147.222586,157.162109 C148.654885,157.162109 149.791755,157.521969 150.63323,158.241699 C151.474706,158.961429 151.895438,159.972975 151.895438,161.276367 L151.895438,166.314453 C151.902599,167.417323 152.056569,168.251625 152.357352,168.817383 L152.357352,169 L149.220633,169 Z M146.65325,166.84082 C147.111586,166.84082 147.534107,166.738771 147.920828,166.534668 C148.307549,166.330565 148.594004,166.056642 148.780203,165.712891 L148.780203,163.714844 L147.620047,163.714844 C146.066003,163.714844 145.238862,164.251948 145.138602,165.326172 L145.127859,165.508789 C145.127859,165.89551 145.263926,166.214191 145.536063,166.464844 C145.808199,166.715496 146.180591,166.84082 146.65325,166.84082 Z M150.907156,153.348633 C150.907156,154.093428 150.568781,154.698565 149.89202,155.164062 C149.215258,155.62956 148.311133,155.862305 147.179617,155.862305 C146.048101,155.862305 145.145766,155.63135 144.472586,155.169434 C143.799405,154.707517 143.46282,154.10059 143.46282,153.348633 L145.514578,153.348633 C145.514578,153.735353 145.659596,154.032551 145.949637,154.240234 C146.239677,154.447918 146.649667,154.551758 147.179617,154.551758 C147.716729,154.551758 148.128509,154.444337 148.414969,154.229492 C148.701429,154.014647 148.844656,153.721031 148.844656,153.348633 L150.907156,153.348633 Z M147.652273,151.307617 L149.832938,151.307617 L147.953055,153.316406 L146.330984,153.316406 L147.652273,151.307617 Z M157.137625,157.376953 L157.234305,158.719727 C158.065038,157.68131 159.178634,157.162109 160.575125,157.162109 C161.806902,157.162109 162.723559,157.523759 163.325125,158.24707 C163.926691,158.970381 164.23463,160.051751 164.248953,161.491211 L164.248953,169 L161.144461,169 L161.144461,161.566406 C161.144461,160.907549 161.001233,160.429526 160.714773,160.132324 C160.428314,159.835122 159.952081,159.686523 159.286063,159.686523 C158.41236,159.686523 157.757093,160.058916 157.320242,160.803711 L157.320242,169 L154.21575,169 L154.21575,157.376953 L157.137625,157.376953 Z M166.15032,163.102539 C166.15032,161.319327 166.574632,159.883469 167.42327,158.794922 C168.271907,157.706375 169.415938,157.162109 170.855398,157.162109 C172.130144,157.162109 173.121996,157.598954 173.830984,158.472656 L173.959891,157.376953 L176.774344,157.376953 L176.774344,168.613281 C176.774344,169.630213 176.543389,170.514645 176.081473,171.266602 C175.619556,172.018558 174.96966,172.591469 174.131766,172.985352 C173.293871,173.379234 172.312761,173.576172 171.188406,173.576172 C170.336188,173.576172 169.505468,173.406089 168.696219,173.065918 C167.88697,172.725747 167.274671,172.287112 166.859305,171.75 L168.234305,169.859375 C169.007746,170.725916 169.945888,171.15918 171.048758,171.15918 C171.87233,171.15918 172.513274,170.938967 172.971609,170.498535 C173.429945,170.058103 173.659109,169.433272 173.659109,168.624023 L173.659109,168.000977 C172.94296,168.810225 172.001238,169.214844 170.833914,169.214844 C169.437423,169.214844 168.307714,168.668788 167.444754,167.57666 C166.581794,166.484532 166.15032,165.036142 166.15032,163.231445 L166.15032,163.102539 Z M169.254813,163.328125 C169.254813,164.380865 169.466073,165.206214 169.888602,165.804199 C170.31113,166.402184 170.891202,166.701172 171.628836,166.701172 C172.574153,166.701172 173.250904,166.346683 173.659109,165.637695 L173.659109,160.75 C173.243743,160.041012 172.574153,159.686523 171.65032,159.686523 C170.905525,159.686523 170.320082,159.990882 169.893973,160.599609 C169.467864,161.208336 169.254813,162.117832 169.254813,163.328125 Z" id="path-3"></path>
        <path d="M19.0058594,17.0078125 L17.9394531,18.15625 L17.9394531,21 L15.8886719,21 L15.8886719,11.046875 L17.9394531,11.046875 L17.9394531,15.5585938 L18.8417969,14.3212891 L21.3779297,11.046875 L23.9003906,11.046875 L20.3662109,15.4697266 L24.0029297,21 L21.5625,21 L19.0058594,17.0078125 Z M26.5732422,14.4101562 C27.0973333,13.7812469 27.7558554,13.4667969 28.5488281,13.4667969 C30.1530028,13.4667969 30.9664712,14.3987537 30.9892578,16.2626953 L30.9892578,21 L29.0136719,21 L29.0136719,16.3173828 C29.0136719,15.8935526 28.922527,15.5802419 28.7402344,15.3774414 C28.5579418,15.1746409 28.2548849,15.0732422 27.8310547,15.0732422 C27.2522758,15.0732422 26.8330091,15.2965472 26.5732422,15.7431641 L26.5732422,21 L24.5976562,21 L24.5976562,10.5 L26.5732422,10.5 L26.5732422,14.4101562 Z M32.1582031,17.2333984 C32.1582031,16.4951135 32.3006171,15.8388701 32.5854492,15.2646484 C32.8702814,14.6904268 33.2792942,14.2472346 33.8125,13.9350586 C34.3457058,13.6228826 34.960934,13.4667969 35.6582031,13.4667969 C36.7382867,13.4667969 37.5973275,13.8199834 38.2353516,14.5263672 C38.444988,14.3942051 38.5862627,14.1902683 38.6591797,13.9145508 C38.7320967,13.6388333 38.7685547,13.305015 38.7685547,12.9130859 L39.9716797,12.9130859 C39.9716797,14.1526755 39.5683634,14.9547508 38.7617188,15.3193359 C39.0306003,15.8798856 39.1650391,16.5179001 39.1650391,17.2333984 L39.1650391,17.3769531 C39.1650391,18.1152381 39.0226251,18.7714815 38.737793,19.3457031 C38.4529608,19.9199247 38.0473659,20.3619776 37.5209961,20.671875 C36.9946263,20.9817724 36.3782587,21.1367188 35.671875,21.1367188 C34.6510366,21.1367188 33.8238964,20.8199901 33.1904297,20.1865234 C32.556963,19.5530567 32.2151695,18.6985731 32.1650391,17.6230469 L32.1582031,17.2333984 Z M34.140625,17.3769531 C34.140625,18.0787796 34.2727851,18.6153953 34.5371094,18.9868164 C34.8014336,19.3582375 35.179685,19.5439453 35.671875,19.5439453 C36.1549503,19.5439453 36.5286445,19.3593768 36.7929688,18.9902344 C37.057293,18.6210919 37.1894531,18.0354858 37.1894531,17.2333984 C37.1894531,16.5498013 37.057293,16.0177428 36.7929688,15.637207 C36.5286445,15.2566713 36.1503931,15.0664062 35.6582031,15.0664062 C35.1751278,15.0664062 34.8014336,15.2543927 34.5371094,15.6303711 C34.2727851,16.0063495 34.140625,16.5885377 34.140625,17.3769531 Z M36.0615234,10.5 L38.2148438,10.5 L36.3212891,12.6191406 L34.7148438,12.6191406 L36.0615234,10.5 Z M47.2724609,17.3701172 C47.2724609,18.5094458 47.0138372,19.4220343 46.496582,20.1079102 C45.9793268,20.793786 45.2809289,21.1367188 44.4013672,21.1367188 C43.6539676,21.1367188 43.0501325,20.8769557 42.5898438,20.3574219 L42.5898438,23.84375 L40.6142578,23.84375 L40.6142578,13.6035156 L42.4462891,13.6035156 L42.5146484,14.328125 C42.9931665,13.7539034 43.6175092,13.4667969 44.3876953,13.4667969 C45.2991582,13.4667969 46.00781,13.8040331 46.5136719,14.4785156 C47.0195338,15.1529982 47.2724609,16.0826764 47.2724609,17.2675781 L47.2724609,17.3701172 Z M45.296875,17.2265625 C45.296875,16.538408 45.1749687,16.0074888 44.9311523,15.6337891 C44.687336,15.2600893 44.3330101,15.0732422 43.8681641,15.0732422 C43.2483693,15.0732422 42.8222668,15.310219 42.5898438,15.7841797 L42.5898438,18.8125 C42.8313814,19.3001326 43.2620412,19.5439453 43.8818359,19.5439453 C44.8252,19.5439453 45.296875,18.7714921 45.296875,17.2265625 Z" id="path-4"></path>
        <path d="M274.785156,21.4316406 C274.785156,21.2441397 274.84082,21.0878912 274.952148,20.9628906 C275.063477,20.83789 275.230468,20.7753906 275.453125,20.7753906 C275.675782,20.7753906 275.844726,20.83789 275.959961,20.9628906 C276.075196,21.0878912 276.132812,21.2441397 276.132812,21.4316406 C276.132812,21.611329 276.075196,21.7617181 275.959961,21.8828125 C275.844726,22.0039069 275.675782,22.0644531 275.453125,22.0644531 C275.230468,22.0644531 275.063477,22.0039069 274.952148,21.8828125 C274.84082,21.7617181 274.785156,21.611329 274.785156,21.4316406 Z M274.791016,16.2578125 C274.791016,16.0703116 274.846679,15.9140631 274.958008,15.7890625 C275.069336,15.6640619 275.236327,15.6015625 275.458984,15.6015625 C275.681642,15.6015625 275.850585,15.6640619 275.96582,15.7890625 C276.081055,15.9140631 276.138672,16.0703116 276.138672,16.2578125 C276.138672,16.4375009 276.081055,16.58789 275.96582,16.7089844 C275.850585,16.8300787 275.681642,16.890625 275.458984,16.890625 C275.236327,16.890625 275.069336,16.8300787 274.958008,16.7089844 C274.846679,16.58789 274.791016,16.4375009 274.791016,16.2578125 Z" id="path-5"></path>
    </defs>
    <g id="Page-1" stroke="none" stroke-width="1" fill="none" fill-rule="evenodd">
        <g id="matches">
            <g id="Group">
                <polygon id="Path" fill="#F1F1F2" points="0 0 299 0 299 197 0 197"></polygon>
                <path d="M1.98671096,1.9798995 L1.98671096,195.020101 L297.013289,195.020101 L297.013289,1.9798995 L1.98671096,1.9798995 Z M299,0 L299,197 L0,197 L0,0 L299,0 Z" id="Path" fill="#C2C2C2" fill-rule="nonzero"></path>
                <g id="Group-16" transform="translate(1.000000, 32.000000)">
                    <path d="M2.60706376,22.9965523 L2.60706376,21.7774477 L294.964849,21.7774477 L294.964849,22.9965523 L2.60706376,22.9965523 Z M2.60706376,43.0765523 L2.60706376,41.8574477 L294.964849,41.8574477 L294.964849,43.0765523 L2.60706376,43.0765523 Z M2.60706376,103.349552 L2.60706376,102.130448 L294.964849,102.130448 L294.964849,103.349552 L2.60706376,103.349552 Z" id="Shape" fill="#DEDEDD" fill-rule="nonzero"></path>
                    <path d="M2.60706376,123.429552 L2.60706376,122.210448 L6.22725247,122.210448 L6.22725247,123.429552 L2.60706376,123.429552 Z M9.84744119,123.429552 L9.84744119,122.210448 L13.4676299,122.210448 L13.4676299,123.429552 L9.84744119,123.429552 Z M17.0878186,123.429552 L17.0878186,122.210448 L20.7080073,122.210448 L20.7080073,123.429552 L17.0878186,123.429552 Z M24.328196,123.429552 L24.328196,122.210448 L27.9483848,122.210448 L27.9483848,123.429552 L24.328196,123.429552 Z M31.5685735,123.429552 L31.5685735,122.210448 L35.1887622,122.210448 L35.1887622,123.429552 L31.5685735,123.429552 Z M38.8089509,123.429552 L38.8089509,122.210448 L42.4291396,122.210448 L42.4291396,123.429552 L38.8089509,123.429552 Z M46.0493283,123.429552 L46.0493283,122.210448 L49.669517,122.210448 L49.669517,123.429552 L46.0493283,123.429552 Z M53.2897057,123.429552 L53.2897057,122.210448 L56.9098945,122.210448 L56.9098945,123.429552 L53.2897057,123.429552 Z M60.5300832,123.429552 L60.5300832,122.210448 L64.1502719,122.210448 L64.1502719,123.429552 L60.5300832,123.429552 Z M67.7704606,123.429552 L67.7704606,122.210448 L71.3906493,122.210448 L71.3906493,123.429552 L67.7704606,123.429552 Z M75.010838,123.429552 L75.010838,122.210448 L78.6310267,122.210448 L78.6310267,123.429552 L75.010838,123.429552 Z M82.2512154,123.429552 L82.2512154,122.210448 L85.8714042,122.210448 L85.8714042,123.429552 L82.2512154,123.429552 Z M89.4915929,123.429552 L89.4915929,122.210448 L93.1117816,122.210448 L93.1117816,123.429552 L89.4915929,123.429552 Z M96.7319703,123.429552 L96.7319703,122.210448 L100.352159,122.210448 L100.352159,123.429552 L96.7319703,123.429552 Z M103.972348,123.429552 L103.972348,122.210448 L107.592536,122.210448 L107.592536,123.429552 L103.972348,123.429552 Z M111.212725,123.429552 L111.212725,122.210448 L114.832914,122.210448 L114.832914,123.429552 L111.212725,123.429552 Z M118.453103,123.429552 L118.453103,122.210448 L122.073291,122.210448 L122.073291,123.429552 L118.453103,123.429552 Z M125.69348,123.429552 L125.69348,122.210448 L129.313669,122.210448 L129.313669,123.429552 L125.69348,123.429552 Z M132.933857,123.429552 L132.933857,122.210448 L136.554046,122.210448 L136.554046,123.429552 L132.933857,123.429552 Z M140.174235,123.429552 L140.174235,122.210448 L143.794424,122.210448 L143.794424,123.429552 L140.174235,123.429552 Z M147.414612,123.429552 L147.414612,122.210448 L151.034801,122.210448 L151.034801,123.429552 L147.414612,123.429552 Z M154.65499,123.429552 L154.65499,122.210448 L158.275178,122.210448 L158.275178,123.429552 L154.65499,123.429552 Z M161.895367,123.429552 L161.895367,122.210448 L165.515556,122.210448 L165.515556,123.429552 L161.895367,123.429552 Z M169.135745,123.429552 L169.135745,122.210448 L172.755933,122.210448 L172.755933,123.429552 L169.135745,123.429552 Z M176.376122,123.429552 L176.376122,122.210448 L179.996311,122.210448 L179.996311,123.429552 L176.376122,123.429552 Z M183.616499,123.429552 L183.616499,122.210448 L187.236688,122.210448 L187.236688,123.429552 L183.616499,123.429552 Z M190.856877,123.429552 L190.856877,122.210448 L194.477066,122.210448 L194.477066,123.429552 L190.856877,123.429552 Z M198.097254,123.429552 L198.097254,122.210448 L201.717443,122.210448 L201.717443,123.429552 L198.097254,123.429552 Z M205.337632,123.429552 L205.337632,122.210448 L208.95782,122.210448 L208.95782,123.429552 L205.337632,123.429552 Z M212.578009,123.429552 L212.578009,122.210448 L216.198198,122.210448 L216.198198,123.429552 L212.578009,123.429552 Z M219.818387,123.429552 L219.818387,122.210448 L223.438575,122.210448 L223.438575,123.429552 L219.818387,123.429552 Z M227.058764,123.429552 L227.058764,122.210448 L230.678953,122.210448 L230.678953,123.429552 L227.058764,123.429552 Z M234.299141,123.429552 L234.299141,122.210448 L237.91933,122.210448 L237.91933,123.429552 L234.299141,123.429552 Z M241.539519,123.429552 L241.539519,122.210448 L245.159708,122.210448 L245.159708,123.429552 L241.539519,123.429552 Z M248.779896,123.429552 L248.779896,122.210448 L252.400085,122.210448 L252.400085,123.429552 L248.779896,123.429552 Z M256.020274,123.429552 L256.020274,122.210448 L259.640462,122.210448 L259.640462,123.429552 L256.020274,123.429552 Z M263.260651,123.429552 L263.260651,122.210448 L266.88084,122.210448 L266.88084,123.429552 L263.260651,123.429552 Z M270.501029,123.429552 L270.501029,122.210448 L274.121217,122.210448 L274.121217,123.429552 L270.501029,123.429552 Z M277.741406,123.429552 L277.741406,122.210448 L281.361595,122.210448 L281.361595,123.429552 L277.741406,123.429552 Z M284.981783,123.429552 L284.981783,122.210448 L288.601972,122.210448 L288.601972,123.429552 L284.981783,123.429552 Z M292.222161,123.429552 L292.222161,122.210448 L294.964849,122.210448 L294.964849,123.429552 L292.222161,123.429552 Z" id="Path" fill="#293052" fill-rule="nonzero"></path>
                    <path d="M2.60706376,143.507552 L2.60706376,142.288448 L294.964849,142.288448 L294.964849,143.507552 L2.60706376,143.507552 Z M37.317639,2.308 L38.5367436,2.308 L38.5367436,160.59 L37.317639,160.59 L37.317639,2.308 Z M74.3153772,2.308 L75.5344818,2.308 L75.5344818,160.59 L74.3153772,160.59 L74.3153772,2.308 Z M111.312112,2.308 L112.531216,2.308 L112.531216,160.59 L111.312112,160.59 L111.312112,2.308 Z M148.271723,2.308 L149.490827,2.308 L149.490827,160.59 L148.271723,160.59 L148.271723,2.308 Z M185.268458,2.308 L186.487562,2.308 L186.487562,160.59 L185.268458,160.59 L185.268458,2.308 Z M222.266196,2.308 L223.4853,2.308 L223.4853,160.59 L222.266196,160.59 L222.266196,2.308 Z M259.262931,2.308 L260.482035,2.308 L260.482035,160.59 L259.262931,160.59 L259.262931,2.308 Z M2.60706376,83.2715523 L2.60706376,82.0524477 L294.964849,82.0524477 L294.964849,83.2715523 L2.60706376,83.2715523 Z M2.60706376,63.1915523 L2.60706376,61.9724477 L294.964849,61.9724477 L294.964849,63.1915523 L2.60706376,63.1915523 Z" id="Shape" fill="#DEDEDD" fill-rule="nonzero"></path>
                    <polygon id="Path" fill="#C2C2C2" fill-rule="nonzero" points="0.511053691 2.31510455 0.511053691 -0.123104545 297.097983 -0.123104545 297.097983 2.31510455"></polygon>
                    <path d="M148.16177,83.3575841 L189.836381,52.7510845 C190.75488,52.0765246 192.060729,52.4083509 192.545778,53.4395628 L224.817711,122.049563 C225.243212,122.954176 224.854815,124.032446 223.950202,124.457946 C223.045589,124.883447 221.967319,124.49505 221.541819,123.590437 L190.20622,56.9710809 L149.266431,87.0379155 C148.644928,87.4943574 147.80249,87.5069519 147.16762,87.0692929 L104.985124,57.9900383 L76.137183,84.0062034 C75.469587,84.6082667 74.4612908,84.6291414 73.7693486,84.0552244 L36.7716104,53.3682244 C36.0021538,52.7300147 35.8957572,51.5888757 36.5339669,50.8194191 C37.1721766,50.0499625 38.3133156,49.9435659 39.0827722,50.5817756 L74.875392,80.2692153 L103.622709,54.3437966 C104.245323,53.7823 105.172043,53.7218503 105.862323,54.1977071 L148.16177,83.3575841 Z" id="Path" fill="#293052" fill-rule="nonzero"></path>
                    <path d="M187.440235,113.159 L152.158235,113.159 L146.594628,105.089 L141.260789,113.159 L105.977785,113.159 C104.716174,113.157408 103.505601,113.655378 102.612378,114.543363 C101.719155,115.431348 101.216451,116.636608 101.214856,117.894 L101.214856,142.406 C101.216451,143.663392 101.719155,144.868652 102.612378,145.756637 C103.505601,146.644622 104.716174,147.142592 105.977785,147.141 L187.440235,147.141 C188.72233,147.171783 189.962831,146.686614 190.881745,145.795 C191.799447,144.904293 192.316911,143.68168 192.316544,142.405 L192.316544,117.932 C192.327128,116.649055 191.814345,115.416862 190.895792,114.518 C189.975759,113.617748 188.729189,113.127137 187.440235,113.158 L187.440235,113.159 Z" id="Path" fill="#E88024"></path>
                    <ellipse id="Oval" fill="#FFFFFF" opacity="0.6" cx="222.874745" cy="122.82" rx="8.19239933" ry="8.373"></ellipse>
                    <path d="M222.875748,132.411105 C217.671896,132.411105 213.464244,128.110695 213.464244,122.819 C213.464244,117.527305 217.671896,113.226895 222.875748,113.226895 C228.0796,113.226895 232.287252,117.527305 232.287252,122.819 C232.287252,128.110695 228.0796,132.411105 222.875748,132.411105 Z M222.875748,129.972895 C226.720971,129.972895 229.849043,126.775865 229.849043,122.819 C229.849043,118.862135 226.720971,115.665105 222.875748,115.665105 C219.030525,115.665105 215.902453,118.862135 215.902453,122.819 C215.902453,126.775865 219.030525,129.972895 222.875748,129.972895 Z" id="Oval" fill="#E88024" fill-rule="nonzero"></path>
                    <polygon id="Path" fill="#E88024" points="245.926842 113.424 274.694054 113.424 274.694054 132.214 245.927846 132.214"></polygon>
                    <polygon id="Path" fill="#E88024" points="249.432567 122.82 246.079352 126.153 240.859896 122.819 246.079352 119.486"></polygon>
                    <path d="M257.319946,121.683 L258.691534,121.683 C259.156087,121.716 259.614621,121.551 259.948738,121.228 C260.243725,120.88 260.394228,120.433 260.368141,119.978 C260.390213,119.5467 260.239331,119.124349 259.948738,118.804 C259.595096,118.554892 259.155388,118.458948 258.729661,118.538 C258.314325,118.519115 257.906735,118.654524 257.585836,118.918 C257.284829,119.171 257.117268,119.548 257.129309,119.94 L254.766406,119.94 C254.717802,119.041563 255.117304,118.177125 255.833977,117.63 C256.636415,117.004237 257.635244,116.681854 258.653406,116.72 C259.714767,116.66371 260.763501,116.971068 261.625346,117.591 C262.377805,118.214045 262.787955,119.156723 262.73004,120.13 C262.724486,120.661984 262.551073,121.178731 262.234383,121.607 C261.883587,122.088574 261.410063,122.467991 260.862795,122.706 C261.474842,122.903 262.008628,123.287 262.387896,123.804 C262.742081,124.302 262.929708,124.899 262.920678,125.509 C262.956896,126.513767 262.502573,127.473783 261.701601,128.085 C260.811709,128.743046 259.722427,129.077278 258.615279,129.032 C257.580557,129.065449 256.563372,128.759839 255.719594,128.162 C254.925756,127.585027 254.49202,126.636654 254.575768,125.661 L257.091181,125.661 C257.081148,126.093 257.261752,126.509 257.586839,126.797 C257.932997,127.101 258.381497,127.264 258.844044,127.252 C259.331674,127.284 259.811279,127.12 260.177503,126.797 C260.511621,126.468 260.691221,126.014 260.672158,125.547 C260.725675,125.03636 260.559816,124.527003 260.215631,124.145 C259.822139,123.817987 259.317003,123.655308 258.805916,123.691 L257.319946,123.691 L257.319946,121.683 Z" id="Path" fill="#FFFFFF"></path>
                </g>
            </g>
            <g id="Dự-Đoán-Chữ-số-Cuối-Cùng">
                <use fill="#000000" xlink:href="#path-1"></use>
                <use fill="#2A3052" xlink:href="#path-1"></use>
            </g>
            <g id="3">
                <use fill="#000000" xlink:href="#path-2"></use>
                <use fill="#2A3052" xlink:href="#path-2"></use>
            </g>
            <g id="Thắng">
                <use fill="#000000" xlink:href="#path-3"></use>
                <use fill="#FFFFFF" xlink:href="#path-3"></use>
            </g>
            <g id="Khớp" fill="#000000">
                <use xlink:href="#path-4"></use>
                <use xlink:href="#path-4"></use>
            </g>
            <g id=":">
                <use fill="#000000" xlink:href="#path-5"></use>
                <use fill="#2A3052" xlink:href="#path-5"></use>
            </g>
        </g>
    </g>
</svg>