<svg width="299" height="197" xmlns="http://www.w3.org/2000/svg"><g fill="none" fill-rule="evenodd"><path fill="#F1F1F2" d="M0 0h299v197H0z"/><path d="M1.987 1.98v193.04h295.026V1.98H1.987zM299 0v197H0V0h299z" fill="#C2C2C2" fill-rule="nonzero"/><path d="M4.58 54.993v-1.212h290.408v1.212H4.58zm0 20.08V73.86h290.408v1.212H4.58zm0 60.274v-1.212h290.408v1.212H4.58zm0 20.078v-1.212h290.408v1.212H4.58zm0 20.08v-1.213h290.408v1.212H4.58zM39.059 34.307h1.212V192.59h-1.212V34.308zm36.75 0h1.212V192.59H75.81V34.308zm36.75 0h1.213V192.59h-1.212V34.308zm36.713 0h1.212V192.59h-1.212V34.308zm36.751 0h1.212V192.59h-1.212V34.308zm36.75 0h1.213V192.59h-1.213V34.308zm36.751 0h1.212V192.59h-1.212V34.308zM4.58 115.268v-1.212h290.408v1.212H4.58z" fill="#DEDEDD" fill-rule="nonzero"/><path fill="#293052" fill-rule="nonzero" d="M4.58 95.189v-1.212h1.816v1.212zM10.03 95.189v-1.212h3.636v1.212H10.03zm7.272 0v-1.212h3.636v1.212h-3.636zm7.272 0v-1.212h3.636v1.212h-3.636zm7.272 0v-1.212h3.636v1.212h-3.636zm7.272 0v-1.212h3.636v1.212h-3.636zm7.272 0v-1.212h3.636v1.212H46.39zm7.272 0v-1.212h3.636v1.212h-3.636zm7.272 0v-1.212h3.636v1.212h-3.636zm7.272 0v-1.212h3.636v1.212h-3.636zm7.272 0v-1.212h3.636v1.212h-3.636zm7.272 0v-1.212h3.636v1.212H82.75zm7.273 0v-1.212h3.636v1.212h-3.636zm7.272 0v-1.212h3.636v1.212h-3.636zm7.272 0v-1.212h3.636v1.212h-3.636zm7.272 0v-1.212h3.636v1.212h-3.636zm7.272 0v-1.212h3.636v1.212h-3.636zm7.272 0v-1.212h3.636v1.212h-3.636zm7.272 0v-1.212h3.636v1.212h-3.636zm7.272 0v-1.212h3.636v1.212h-3.636zm7.272 0v-1.212h3.636v1.212H148.2zm7.272 0v-1.212h3.636v1.212h-3.636zm7.272 0v-1.212h3.636v1.212h-3.636zm7.272 0v-1.212h3.636v1.212h-3.636zm7.272 0v-1.212h3.636v1.212h-3.636zm7.272 0v-1.212h3.636v1.212h-3.636zm7.272 0v-1.212h3.637v1.212h-3.637zm7.273 0v-1.212h3.636v1.212h-3.636zm7.272 0v-1.212h3.636v1.212h-3.636zm7.272 0v-1.212h3.636v1.212h-3.636zm7.272 0v-1.212h3.636v1.212h-3.636zm7.272 0v-1.212h3.636v1.212h-3.636zm7.272 0v-1.212h3.636v1.212h-3.636zm7.272 0v-1.212h3.636v1.212h-3.636zm7.272 0v-1.212h3.636v1.212h-3.636zm7.272 0v-1.212h3.636v1.212h-3.636zm7.272 0v-1.212h3.636v1.212h-3.636zm7.272 0v-1.212h3.636v1.212h-3.636zm7.272 0v-1.212h3.636v1.212h-3.636zm7.272 0v-1.212h3.636v1.212h-3.636zM293.21 95.189v-1.212h1.778v1.212z"/><path fill="#C2C2C2" fill-rule="nonzero" d="M2.498 34.308v-2.424h294.61v2.424z"/><path d="M222.098 93.32a1.8 1.8 0 1 1 2.563 2.526l-31.755 32.202a1.8 1.8 0 0 1-2.118.33l-41.55-21.853-42.212 24.394a1.8 1.8 0 0 1-1.698.054l-29.71-14.699a1.8 1.8 0 0 1-.356-.231l-36.75-30.687a1.8 1.8 0 1 1 2.306-2.762l36.587 30.55 28.655 14.177 42.237-24.408a1.8 1.8 0 0 1 1.738-.035l41.246 21.693 30.817-31.251z" fill="#293052" fill-rule="nonzero"/><path d="M255.777 116.442l.682-6.592h5.98v1.44h-4.58l-.378 3.372c.257-.186.537-.339.832-.455a3.1 3.1 0 0 1 1.06-.19 3.216 3.216 0 0 1 2.612 1.061 4.36 4.36 0 0 1 .946 2.955 4.208 4.208 0 0 1-.946 2.88 3.556 3.556 0 0 1-2.801 1.098 3.782 3.782 0 0 1-2.536-.833 2.88 2.88 0 0 1-.984-2.463h1.476a2.009 2.009 0 0 0 .568 1.516c.402.366.933.557 1.476.53a1.892 1.892 0 0 0 1.59-.72 3.11 3.11 0 0 0 .378-2.045 2.995 2.995 0 0 0-.568-1.895 1.892 1.892 0 0 0-1.59-.72 2.534 2.534 0 0 0-1.362.304c-.305.21-.532.517-.643.871l-1.212-.114zm6.018 20.572h1.628v1.288h-1.628v2.765h-1.627v-2.803h-5.375v-.91l5.261-8.296h1.703v7.956h.038zm-5.26 0h3.784v-5.645.417l-3.785 5.228zm.832 17.73h1.4a1.891 1.891 0 0 0 1.514-.53c.328-.435.49-.973.455-1.516a2.199 2.199 0 0 0-.492-1.553 1.967 1.967 0 0 0-1.514-.53 2.08 2.08 0 0 0-1.514.567 1.971 1.971 0 0 0-.568 1.478h-1.4a2.918 2.918 0 0 1 .984-2.311 3.783 3.783 0 0 1 2.687-.947 3.782 3.782 0 0 1 2.65.871 3.222 3.222 0 0 1 .983 2.539 2.88 2.88 0 0 1-1.779 2.614c.622.17 1.16.56 1.514 1.098a3.564 3.564 0 0 1-.643 4.281 4.01 4.01 0 0 1-2.725.947 4.123 4.123 0 0 1-2.725-.871 2.843 2.843 0 0 1-1.022-2.387h1.552c-.037.563.17 1.115.567 1.516a2.194 2.194 0 0 0 1.59.568 2.232 2.232 0 0 0 1.627-.568 2.16 2.16 0 0 0 .644-1.895 1.857 1.857 0 0 0-2.157-2.159h-1.628v-1.212zm5.715 26.33h-7.759v-1.137l3.785-4.357a11.06 11.06 0 0 0 1.438-1.856c.241-.429.371-.91.379-1.402a2.237 2.237 0 0 0-.53-1.515 1.74 1.74 0 0 0-1.4-.606 2.383 2.383 0 0 0-1.817.644 2.54 2.54 0 0 0-.606 1.78h-1.438a3.373 3.373 0 0 1 1.022-2.614 4.047 4.047 0 0 1 2.952-1.06 3.518 3.518 0 0 1 2.574.947c.632.63.975 1.494.946 2.386a3.791 3.791 0 0 1-.568 1.97 12.652 12.652 0 0 1-1.627 2.122l-3.142 3.41h5.753v1.287h.038zm0-110.586a16.86 16.86 0 0 0-2.914 4.584 20.55 20.55 0 0 0-1.098 4.85v1.288h-1.703v-1.288a17.63 17.63 0 0 1 1.4-5.153 19.627 19.627 0 0 1 2.726-4.357h-6.51V69.2h8.1v1.288zm-.454-17.616a2.654 2.654 0 0 1-.53 1.629 3.104 3.104 0 0 1-1.438 1.06 3.785 3.785 0 0 1 1.665 1.137c.404.505.618 1.135.606 1.78a3.07 3.07 0 0 1-1.098 2.54 4.992 4.992 0 0 1-5.64 0 3.108 3.108 0 0 1-1.059-2.54 2.805 2.805 0 0 1 .606-1.78 3.52 3.52 0 0 1 1.627-1.136 3.028 3.028 0 0 1-1.4-1.061 2.73 2.73 0 0 1-.492-1.63 3.07 3.07 0 0 1 .984-2.424c.72-.599 1.637-.91 2.573-.871a3.782 3.782 0 0 1 2.574.871 3.032 3.032 0 0 1 1.022 2.425zm-1.287 5.569a2.16 2.16 0 0 0-.643-1.63 2.27 2.27 0 0 0-1.628-.643 2.198 2.198 0 0 0-2.27 2.273c-.025.598.21 1.178.643 1.591a2.647 2.647 0 0 0 3.293 0c.423-.417.644-.998.605-1.591zm-.19-5.531a2.047 2.047 0 0 0-.567-1.478 2.005 2.005 0 0 0-2.8 0 2.085 2.085 0 0 0-.53 1.478c-.031.544.16 1.077.53 1.477a2.08 2.08 0 0 0 2.8 0c.384-.394.589-.928.568-1.477z" fill="#808184" fill-rule="nonzero"/><path d="M188.18 145.159h-35.047l-5.525-8.07-5.3 8.07h-35.046a4.733 4.733 0 0 0-4.731 4.735v24.512a4.733 4.733 0 0 0 4.73 4.735h80.92a4.729 4.729 0 0 0 3.419-1.346 4.738 4.738 0 0 0 1.425-3.39v-24.473a4.738 4.738 0 0 0-1.412-3.414 4.729 4.729 0 0 0-3.432-1.36z" fill="#E88024"/><ellipse cx="8.43" cy="8.448" rx="8.137" ry="8.373" opacity=".6" transform="translate(214.95 86.135)" fill="#FFF"/><path d="M223.38 104.167c-5.172 0-9.35-4.298-9.35-9.584s4.178-9.585 9.35-9.585c5.17 0 9.349 4.3 9.349 9.585 0 5.286-4.178 9.584-9.35 9.584zm0-2.424c3.816 0 6.925-3.198 6.925-7.16s-3.109-7.16-6.926-7.16c-3.816 0-6.925 3.198-6.925 7.16s3.109 7.16 6.925 7.16z" fill="#E88024" fill-rule="nonzero"/><path fill="#E88024" d="M246.278 85.756h28.575v18.79h-28.575z"/><path d="M259.979 88.9a5.71 5.71 0 0 1 1.249 0c.389.092.769.218 1.135.379l-.416 1.743-.984-.265h-.984a2.157 2.157 0 0 0-1.741.833 3.336 3.336 0 0 0-.606 2.273 2.763 2.763 0 0 1 1.022-.644c.448-.163.923-.24 1.4-.227a3.027 3.027 0 0 1 2.498 1.136c.63.839.951 1.87.909 2.917a4.132 4.132 0 0 1-1.136 2.993 3.783 3.783 0 0 1-2.914 1.175 4.01 4.01 0 0 1-3.104-1.288 5.042 5.042 0 0 1-1.173-3.562v-2.348a5.117 5.117 0 0 1 1.363-3.789 4.615 4.615 0 0 1 3.482-1.326zm-.568 5.948a2.723 2.723 0 0 0-1.136.227 1.741 1.741 0 0 0-.719.569v.795c-.05.77.134 1.536.53 2.198.291.473.808.76 1.363.757a1.362 1.362 0 0 0 1.173-.682 2.92 2.92 0 0 0 .53-1.667c.03-.578-.13-1.15-.454-1.629a1.438 1.438 0 0 0-1.287-.606v.038z" fill="#FFF" fill-rule="nonzero"/><path fill="#E88024" d="M249.76 95.151l-3.331 3.334-5.185-3.334 5.185-3.296z"/><path fill="#293052" fill-rule="nonzero" d="M247.564 126.292v-1.212h22.899v1.212z"/><path d="M20.364 18.602c0-.372-.13-.672-.39-.897-.258-.226-.713-.44-1.364-.639-1.117-.336-1.964-.733-2.543-1.19-.578-.456-.867-1.078-.867-1.867 0-.793.326-1.441.977-1.944.65-.503 1.482-.754 2.492-.754 1.073 0 1.936.27 2.59.81.653.541.968 1.25.946 2.127l-.013.04h-1.88c0-.483-.147-.854-.44-1.113-.292-.26-.702-.389-1.23-.389-.478 0-.848.115-1.11.346-.26.23-.391.525-.391.884 0 .328.142.597.425.807.284.21.773.433 1.469.668 1.063.302 1.874.695 2.433 1.18.558.485.837 1.124.837 1.917 0 .83-.323 1.483-.97 1.961-.647.479-1.502.718-2.566.718-1.041 0-1.935-.26-2.682-.778-.746-.518-1.108-1.291-1.086-2.32l.013-.04h1.88c0 .572.17.993.506 1.264.337.27.793.405 1.37.405.518 0 .913-.108 1.186-.326.272-.217.408-.507.408-.87zm2.925-1.137c0-1.072.299-1.95.897-2.635.598-.685 1.427-1.027 2.486-1.027 1.063 0 1.896.341 2.499 1.024.602.682.904 1.562.904 2.638v.14c0 1.081-.3 1.962-.901 2.642-.6.68-1.43 1.02-2.49 1.02-1.062 0-1.894-.34-2.495-1.02-.6-.68-.9-1.561-.9-2.642v-.14zm1.934.14c0 .656.115 1.182.345 1.578.23.397.603.595 1.117.595.5 0 .867-.2 1.1-.598.233-.399.349-.924.349-1.575v-.14c0-.638-.118-1.158-.352-1.562-.235-.403-.605-.604-1.11-.604-.501 0-.868.202-1.1.608-.233.405-.35.925-.35 1.558v.14zm.678-6.58h1.595l1.967 1.681-.013.04h-1.742l-1.017-.95-1.004.95h-1.748l-.013-.04 1.974-1.681zm3.954-1.223h1.795l-1.423 1.801h-1.355l.983-1.801zm8.248 8.7l.12.532h.04l.113-.512 2.107-7.072h2.047l-3.29 9.677h-1.994l-3.283-9.677h2.047l2.093 7.052zm13.552-5.324l.014.034c.013.78-.168 1.388-.542 1.824-.374.436-.965.703-1.771.8v5.291h-1.61l-.205-1.063c-.201.364-.492.67-.844.89-.36.213-.772.322-1.19.313-.757 0-1.35-.257-1.777-.771-.428-.514-.642-1.312-.642-2.393v-4.167h1.934v4.18c0 .63.086 1.06.256 1.293.17.233.435.35.794.35.31 0 .576-.05.798-.15.22-.1.403-.247.545-.442v-5.231h1.94v.824l.04.013c.364-.057.624-.216.782-.475.157-.259.235-.632.235-1.12h1.243zm-1.07 4.287c0-1.072.3-1.95.898-2.635.598-.685 1.426-1.027 2.485-1.027.497 0 .946.081 1.35.243.403.161.753.388 1.05.68.248-.154.436-.383.565-.687.128-.303.192-.668.192-1.093h1.403c0 .647-.133 1.195-.4 1.645-.265.45-.65.783-1.156 1 .129.275.227.57.296.887.069.317.103.646.103.987v.14c0 1.081-.3 1.962-.9 2.642-.6.68-1.43 1.02-2.49 1.02-1.063 0-1.895-.34-2.495-1.02-.6-.68-.9-1.561-.9-2.642v-.14h-.001zm1.934.14c0 .656.116 1.182.346 1.578.23.397.603.595 1.117.595.5 0 .867-.2 1.1-.598.232-.399.348-.924.348-1.575v-.14c0-.638-.117-1.158-.352-1.562-.235-.403-.605-.604-1.11-.604-.5 0-.867.202-1.1.608-.232.405-.35.925-.35 1.558v.14zm2.553 5.935h-2.174v-1.602h2.174v1.602zm6.054-11.365v1.761h1.217v1.363h-1.217v3.662c0 .279.06.478.177.598.117.12.27.18.46.18a1.857 1.857 0 0 0 .527-.074l.159 1.403a3.388 3.388 0 0 1-1.17.2c-.67-.001-1.184-.185-1.545-.553-.361-.367-.542-.95-.542-1.748V15.3h-1.05v-1.363h1.05v-1.761h1.934v-.001zm13.778 4.985c0 .487-.067.945-.202 1.375-.136.43-.327.818-.575 1.163l1.442 1.443-1.27 1.036-1.415-1.395c-.297.16-.615.28-.954.362a4.553 4.553 0 0 1-1.073.123c-1.197 0-2.167-.388-2.911-1.163-.745-.776-1.117-1.757-1.117-2.944v-1.742c0-1.183.37-2.163 1.113-2.94.742-.778 1.71-1.167 2.9-1.167 1.202 0 2.179.389 2.932 1.166.754.778 1.13 1.758 1.13 2.941v1.742zm-1.934-1.755c0-.753-.188-1.371-.565-1.854-.376-.483-.897-.725-1.562-.725-.655 0-1.166.242-1.532.725-.365.483-.548 1.1-.548 1.854v1.755c0 .766.184 1.39.552 1.874.367.483.88.724 1.542.724.664 0 1.183-.241 1.555-.724.372-.483.558-1.108.558-1.874v-1.755zm7.943 4.659c-.201.364-.492.67-.845.89-.36.213-.772.322-1.19.313-.757 0-1.35-.257-1.777-.771-.428-.514-.641-1.312-.641-2.393v-4.167h1.934v4.18c0 .63.085 1.06.255 1.293.17.233.436.35.795.35.31 0 .576-.05.797-.15.222-.1.403-.247.545-.442v-5.231h1.94v7.191H81.12l-.206-1.063zm7.517 1.063a4.082 4.082 0 0 1-.183-.518 3.606 3.606 0 0 1-.11-.558c-.2.35-.463.64-.79.87-.33.23-.72.346-1.17.346-.754 0-1.334-.194-1.742-.582-.408-.387-.611-.916-.611-1.585 0-.704.27-1.25.814-1.638.543-.388 1.335-.582 2.376-.582h1.09v-.571c0-.346-.09-.614-.273-.804-.181-.191-.452-.286-.81-.286-.315 0-.558.076-.728.23-.17.152-.256.361-.256.627h-1.87l-.012-.04c-.031-.607.234-1.13.794-1.572.56-.44 1.293-.66 2.197-.66.864 0 1.563.216 2.097.65.534.435.8 1.057.8 1.868v2.971c0 .337.026.654.077.95.05.297.132.592.243.884h-1.934zm-1.775-1.296c.337 0 .638-.084.904-.252.266-.169.447-.364.545-.585v-1.017h-1.09c-.412 0-.723.102-.934.306-.21.204-.316.454-.316.75 0 .244.079.438.236.582.158.144.376.216.655.216zm.804-8.966h2.16l.014.04-1.841 1.728h-1.655l1.32-1.768h.002z" fill="#020202" fill-rule="nonzero"/><path d="M231.005 19.433c0-.463-.166-.851-.498-1.165-.333-.313-.917-.58-1.755-.8-1.04-.257-1.85-.636-2.432-1.137-.583-.5-.874-1.13-.874-1.888 0-.8.314-1.467.94-2 .628-.534 1.442-.8 2.443-.8 1.076 0 1.934.305 2.573.915.638.61.948 1.323.93 2.137l-.022.043h-1.32c0-.58-.201-1.06-.606-1.44-.405-.378-.923-.568-1.555-.568-.646 0-1.14.157-1.484.47-.344.314-.516.721-.516 1.222 0 .444.188.815.565 1.112.377.297.988.558 1.835.783 1.03.267 1.813.66 2.352 1.179.538.52.807 1.16.807 1.923 0 .824-.324 1.486-.972 1.986-.648.501-1.494.751-2.538.751-.987 0-1.858-.276-2.614-.828-.756-.552-1.122-1.291-1.1-2.218l.015-.042h1.32c0 .641.243 1.136.73 1.485.48.347 1.058.53 1.65.523.654 0 1.173-.148 1.554-.443.38-.294.572-.695.572-1.2zm2.829-1.291c0-1.123.304-2.049.912-2.776.608-.728 1.434-1.092 2.478-1.092 1.052 0 1.884.363 2.495 1.088.61.726.916 1.652.916 2.78v.154c0 1.132-.304 2.059-.913 2.78-.608.72-1.436 1.08-2.484 1.08-1.05 0-1.878-.361-2.49-1.084-.61-.723-.914-1.648-.914-2.776v-.154zm1.382.154c0 .805.17 1.47.51 1.993.338.524.842.787 1.512.787.66 0 1.16-.263 1.502-.787.34-.524.512-1.188.512-1.993v-.154c0-.796-.172-1.458-.516-1.987-.344-.528-.848-.793-1.512-.793-.66 0-1.16.265-1.5.793-.34.53-.508 1.191-.508 1.987v.154zm1.425-7.082h1.109l2.02 1.804-.013.042h-1.39l-1.172-1.102-1.172 1.102h-1.396l-.014-.042 2.028-1.804zM240.27 10h1.48l-1.431 1.825h-1.032L240.27 10zm8.647 11.076c.426 0 .798-.142 1.116-.425.318-.283.477-.63.477-1.042h1.25l.02.042c.02.655-.262 1.236-.842 1.744a2.976 2.976 0 0 1-2.021.761c-1.067 0-1.89-.362-2.47-1.088-.581-.725-.871-1.628-.871-2.709v-.295c0-1.071.29-1.97.874-2.698.582-.728 1.405-1.092 2.467-1.092.847 0 1.54.262 2.08.786.54.525.802 1.168.783 1.93l-.014.043h-1.256c0-.464-.15-.858-.453-1.183a1.49 1.49 0 0 0-1.14-.488c-.68 0-1.174.263-1.485.79-.31.526-.466 1.164-.466 1.912v.295c0 .763.153 1.406.46 1.93.306.524.803.787 1.49.787zm9.328-.19c-.24.407-.546.72-.92.94-.374.22-.807.33-1.298.33-.83 0-1.474-.264-1.937-.793-.464-.528-.695-1.352-.695-2.47v-4.478h1.382v4.492c0 .81.12 1.366.358 1.67.239.304.61.456 1.116.456.492 0 .898-.099 1.218-.298.32-.199.563-.48.726-.846v-5.474h1.383v7.594h-1.242l-.091-1.123zm3.025-2.744c0-1.123.304-2.049.912-2.776.608-.728 1.434-1.092 2.478-1.092 1.053 0 1.884.363 2.495 1.088.61.726.916 1.652.916 2.78v.154c0 1.132-.304 2.059-.913 2.78-.608.72-1.436 1.08-2.484 1.08s-1.878-.361-2.488-1.084c-.611-.723-.916-1.648-.916-2.776v-.154zm1.382.154c0 .805.17 1.47.51 1.993.338.524.843.787 1.512.787.66 0 1.16-.263 1.502-.787.34-.524.512-1.188.512-1.993v-.154c0-.796-.172-1.458-.516-1.987-.344-.528-.848-.793-1.512-.793-.66 0-1.16.265-1.5.793-.338.53-.508 1.191-.508 1.987v.154zm1.425-7.082h1.11l2.02 1.804-.014.042h-1.39l-1.171-1.102-1.172 1.102h-1.397l-.014-.042 2.028-1.804zM267.706 10h1.48l-1.431 1.825h-1.032l.983-1.825zm3.55 12.009h-1.381v-7.594h1.382v7.594zm0-9.538h-1.381V11.06h1.382V12.471z" fill="#2A3052" fill-rule="nonzero"/><path d="M275.146 16.105h-1.311v-1.384h1.347v1.384h-.036zm0 5.937h-1.311v-1.384h1.347v1.384h-.036zm5.718-4.444l.583-5.427h4.954v1.202h-3.643l-.327 2.769c.214-.151.446-.274.692-.365.289-.05.585-.05.874 0a2.659 2.659 0 0 1 2.149.874 3.65 3.65 0 0 1 .765 2.44 3.642 3.642 0 0 1-.802 2.405 2.95 2.95 0 0 1-2.33.91c-.87.03-1.713-.3-2.332-.91a2.368 2.368 0 0 1-.801-2.003h1.202c-.024.46.148.91.473 1.238.34.354.82.54 1.312.51a1.566 1.566 0 0 0 1.457-.692 2.55 2.55 0 0 0 .473-1.64 2.477 2.477 0 0 0-.473-1.565 1.57 1.57 0 0 0-1.312-.62 2.112 2.112 0 0 0-1.13.219 1.348 1.348 0 0 0-.51.728l-1.274-.073z" fill="#293052" fill-rule="nonzero"/><g fill="#FFF" fill-rule="nonzero"><path d="M175.645 163.591h-2.535v-8.171h2.535v8.171zm0 4.3h-2.535v-2.196h2.535V167.891zM150.878 158.169h2.027l.1 1.476c.83-1.238 1.909-1.789 3.232-1.652.767.08 2.383.33 2.865 2.507.177.798.14 2.147.126 3.979-.005.712-.005 1.943 0 3.695h-2.224v-6.268c0-.736-.206-1.559-.824-1.87-.85-.429-2.45-.25-3.09.83v7.308h-2.212V158.169zm-7.86 2.849a164.47 164.47 0 0 0-2.157 0c0-1.082.774-3.045 3.873-3.045 3.098 0 3.842 2.129 3.926 2.587.084.458-.216 6.884.432 7.615l-2.302.002c-.19-.65-.285-1.132-.285-1.443-.36.439-.977 1.24-1.926 1.534-.95.294-3.104.452-3.987-1.616-.582-1.364-.211-2.897.883-3.6 1.806-1.16 4.29-.772 5.03-.772.096-2.07-.523-2.553-1.926-2.553-.935 0-1.456.43-1.561 1.29v.001zm3.486 2.677a37.349 37.349 0 0 0-2.273.019c-.903.08-1.708.747-1.64 1.7.082 1.134 1.373 1.343 2.383 1.015.847-.275 1.438-.984 1.53-1.286v-1.448zm21.854-4.628l.225-1.272h1.837v10.181c.007 3.549-3.977 4.908-7.64 3.135.21-1.046.327-1.631.347-1.755 1.595.533 5.565 1.866 5.06-2.552-2.278 2.335-4.858.92-5.75-.639-.985-1.72-1.626-6.855 1.542-8.24 1.825-.797 3.285-.417 4.379 1.142zm-.191 1.552c-.434-.656-.712-1.203-2.168-1.203-1.455 0-2.367 1.786-2.05 4.529.315 2.742 3.292 2.742 4.218 1.007v-4.333zm-38.061-6.891h2.139a1374 1374 0 0 1 .06 5.73c.52-.81 2.033-1.912 3.646-1.413 2.56.792 2.443 2.462 2.56 3.583.077.747.077 2.93 0 6.546h-2.22c.06-2.986.06-5.107 0-6.364.08-2.177-2.625-2.832-4.046-.886l.06 7.25h-2.2v-14.446zm-1.407.935v1.7h-4.176v11.71h-2.318v-11.71h-3.916v-1.7h10.41zm17.315-.135h1.668c-.081.797-.64 2.068-2.94 2.068-2.302 0-3.104-1.444-2.928-2.068l1.63-.023c.132.646.567.969 1.305.969s1.16-.315 1.265-.946zm-1.88-.326h1.2l1.46-1.746h-1.612l-1.047 1.746z"/></g></g></svg>