<?xml version="1.0" encoding="UTF-8"?>
<svg width="299px" height="197px" viewBox="0 0 299 197" version="1.1" xmlns="http://www.w3.org/2000/svg" xmlns:xlink="http://www.w3.org/1999/xlink">
    <!-- Generator: Sketch 52.6 (67491) - http://www.bohemiancoding.com/sketch -->
    <title>put-spread</title>
    <desc>Created with Sketch.</desc>
    <g id="Page-1" stroke="none" stroke-width="1" fill="none" fill-rule="evenodd">
        <g id="put-spread">
            <polygon id="Path" fill="#F1F2F2" points="299 0 299 197 0 197 0 0"></polygon>
            <path d="M296.573044,2.40070984 L2.42695608,2.40070984 L2.42695608,194.59929 L296.573044,194.59929 L296.573044,2.40070984 Z M299,197 L0,197 L0,0 L299,0 L299,197 Z" id="Path" fill="#C2C2C2" fill-rule="nonzero"></path>
            <path d="M3.954,52.0555 L3.954,50.8285 L293.954,50.8285 L293.954,52.0555 L3.954,52.0555 Z M3.954,93.5035 L3.954,92.2765 L293.954,92.2765 L293.954,93.5035 L3.954,93.5035 Z M3.954,134.9475 L3.954,133.7205 L293.954,133.7205 L293.954,134.9475 L3.954,134.9475 Z M3.954,176.3535 L3.954,175.1265 L293.954,175.1265 L293.954,176.3535 L3.954,176.3535 Z M38.3750889,30.739 L39.5831228,30.739 L39.5831228,194 L38.3750889,194 L38.3750889,30.739 Z M75.0847473,30.739 L76.2927811,30.739 L76.2927811,194 L75.0847473,194 L75.0847473,30.739 Z M111.754039,30.739 L112.962073,30.739 L112.962073,194 L111.754039,194 L111.754039,30.739 Z M148.461729,30.739 L149.669763,30.739 L149.669763,194 L148.461729,194 L148.461729,30.739 Z M185.13299,30.739 L186.341024,30.739 L186.341024,194 L185.13299,194 L185.13299,30.739 Z M221.80622,30.739 L223.014254,30.739 L223.014254,194 L221.80622,194 L221.80622,30.739 Z M3.954,114.2055 L3.954,112.9785 L293.954,112.9785 L293.954,114.2055 L3.954,114.2055 Z" id="Shape" fill="#DFDEDE" fill-rule="nonzero"></path>
            <polygon id="Path" fill="#2A3052" fill-rule="nonzero" points="247.314 42.14 248.328 42.14 248.328 180.031 247.314 180.031"></polygon>
            <path d="M4.954,70.47 L4.954,69.322 L294.954,69.322 L294.954,70.47 L4.954,70.47 Z M4.954,151.96 L4.954,150.812 L294.954,150.812 L294.954,151.96 L4.954,151.96 Z" id="Shape" fill="#15212D" fill-rule="nonzero"></path>
            <polygon id="Path" fill="#C2C2C2" fill-rule="nonzero" points="2.826 31.1415 2.826 28.6865 295.826 28.6865 295.826 31.1415"></polygon>
            <path d="M20.5563662,113.002521 C20.180525,113.189395 19.7243539,113.036207 19.5374794,112.660366 C19.3506049,112.284525 19.5037926,111.828354 19.8796338,111.641479 L28.9547347,107.129188 C29.3305758,106.942313 29.786747,107.095501 29.9736215,107.471342 C30.160496,107.847184 30.0073082,108.303355 29.6314671,108.490229 L20.5563662,113.002521 Z M38.706568,103.977938 C38.3307268,104.164812 37.8745556,104.011625 37.6876811,103.635783 C37.5008066,103.259942 37.6539944,102.803771 38.0298356,102.616897 L47.1049364,98.1046052 C47.4807776,97.9177307 47.9369488,98.0709185 48.1238233,98.4467596 C48.3106978,98.8226008 48.15751,99.2787719 47.7816688,99.4656464 L38.706568,103.977938 Z M56.8567697,94.953355 C56.4809286,95.1402295 56.0247574,94.9870418 55.8378829,94.6112006 C55.6510084,94.2353594 55.8041962,93.7791883 56.1800373,93.5923138 L65.2551382,89.0800224 C65.6309794,88.8931479 66.0871505,89.0463357 66.274025,89.4221768 C66.4608995,89.798018 66.3077118,90.2541892 65.9318706,90.4410636 L56.8567697,94.953355 Z M75.0069715,85.9287722 C74.6311303,86.1156467 74.1749592,85.962459 73.9880847,85.5866178 C73.8012102,85.2107767 73.9543979,84.7546055 74.3302391,84.567731 L83.40534,80.0554396 C83.7811811,79.8685651 84.2373523,80.0217529 84.4242268,80.397594 C84.6111013,80.7734352 84.4579135,81.2296064 84.0820724,81.4164808 L75.0069715,85.9287722 Z M93.1423791,79.1928734 C92.7248494,79.1498899 92.4212197,78.7765702 92.4642032,78.3590404 C92.5071867,77.9415107 92.8805064,77.637881 93.2980362,77.6808645 L103.379754,78.7187487 C103.797283,78.7617322 104.100913,79.1350519 104.05793,79.5525816 C104.014946,79.9701114 103.641626,80.2737411 103.224097,80.2307576 L93.1423791,79.1928734 Z M113.305814,81.2686417 C112.888284,81.2256582 112.584655,80.8523385 112.627638,80.4348088 C112.670622,80.0172791 113.043941,79.7136493 113.461471,79.7566328 L123.543188,80.794517 C123.960718,80.8375005 124.264348,81.2108202 124.221364,81.62835 C124.178381,82.0458797 123.805061,82.3495094 123.387531,82.3065259 L113.305814,81.2686417 Z M133.469249,83.3444101 C133.051719,83.3014266 132.748089,82.9281068 132.791073,82.5105771 C132.834056,82.0930474 133.207376,81.7894177 133.624906,81.8324012 L143.706623,82.8702853 C144.124153,82.9132688 144.427783,83.2865886 144.384799,83.7041183 C144.341816,84.121648 143.968496,84.4252777 143.550966,84.3822942 L133.469249,83.3444101 Z M153.632684,85.4201784 C153.215154,85.3771949 152.911524,85.0038752 152.954508,84.5863454 C152.997491,84.1688157 153.370811,83.865186 153.788341,83.9081695 L163.870058,84.9460537 C164.287588,84.9890372 164.591218,85.3623569 164.548234,85.7798866 C164.505251,86.1974164 164.131931,86.5010461 163.714401,86.4580626 L153.632684,85.4201784 Z M183.184949,83.9621311 C183.570991,83.7973582 184.017515,83.9767323 184.182287,84.3627745 C184.34706,84.7488166 184.167686,85.1953404 183.781644,85.3601134 L177.80963,87.9091263 L173.796118,87.4959467 C173.378589,87.4529632 173.074959,87.0796435 173.117943,86.6621138 C173.160926,86.2445841 173.534246,85.9409543 173.951776,85.9839378 L177.57437,86.3568737 L183.184949,83.9621311 Z M193.103059,81.3814882 C192.717017,81.5462612 192.270493,81.3668871 192.10572,80.9808449 C191.940947,80.5948028 192.120321,80.1482789 192.506363,79.983506 L201.827778,76.0048808 C202.21382,75.8401079 202.660344,76.019482 202.825117,76.4055241 C202.98989,76.7915663 202.810516,77.2380901 202.424474,77.4028631 L193.103059,81.3814882 Z M211.745888,73.4242379 C211.359846,73.5890109 210.913322,73.4096367 210.748549,73.0235946 C210.583776,72.6375525 210.76315,72.1910286 211.149193,72.0262557 L220.470607,68.0476305 C220.856649,67.8828576 221.303173,68.0622317 221.467946,68.4482738 C221.632719,68.834316 221.453345,69.2808398 221.067303,69.4456128 L211.745888,73.4242379 Z M230.388718,65.4669876 C230.002675,65.6317606 229.556152,65.4523864 229.391379,65.0663443 C229.226606,64.6803022 229.40598,64.2337783 229.792022,64.0690054 L239.113437,60.0903802 C239.499479,59.9256073 239.946003,60.1049814 240.110776,60.4910235 C240.275548,60.8770657 240.096174,61.3235895 239.710132,61.4883625 L230.388718,65.4669876 Z" id="Path" fill="#6E7287" fill-rule="nonzero"></path>
            <path d="M19.7188266,113.141175 C19.3111441,113.241042 18.8996932,112.991509 18.7998254,112.583827 C18.6999576,112.176144 18.9494908,111.764693 19.3571734,111.664825 L29.2011202,109.253407 C29.6088028,109.153539 30.0202537,109.403072 30.1201215,109.810755 C30.2199893,110.218437 29.9704561,110.629888 29.5627735,110.729756 L19.7188266,113.141175 Z M39.4067204,108.318338 C38.9990379,108.418205 38.587587,108.168672 38.4877192,107.76099 C38.3878514,107.353307 38.6373846,106.941856 39.0450671,106.841988 L48.889014,104.43057 C49.2966966,104.330702 49.7081475,104.580235 49.8080153,104.987918 C49.9078831,105.3956 49.6583499,105.807051 49.2506673,105.906919 L39.4067204,108.318338 Z M59.0946142,103.495501 C58.6869316,103.595368 58.2754808,103.345835 58.175613,102.938153 C58.0757452,102.53047 58.3252783,102.119019 58.7329609,102.019151 L68.5769078,99.6077328 C68.9845904,99.507865 69.3960412,99.7573982 69.495909,100.165081 C69.5957768,100.572763 69.3462437,100.984214 68.9385611,101.084082 L59.0946142,103.495501 Z M78.782508,98.6726635 C78.3748254,98.7725313 77.9633745,98.5229981 77.8635068,98.1153155 C77.763639,97.707633 78.0131721,97.2961821 78.4208547,97.1963143 L88.2648016,94.7848958 C88.6724842,94.685028 89.083935,94.9345612 89.1838028,95.3422437 C89.2836706,95.7499263 89.0341374,96.1613772 88.6264549,96.261245 L78.782508,98.6726635 Z M98.1554965,98.3784132 C97.7463085,98.2849047 97.4903997,97.8773887 97.5839082,97.4682007 C97.6774168,97.0590127 98.0849328,96.8031039 98.4941208,96.8966124 L108.374418,99.1544791 C108.783606,99.2479876 109.039515,99.6555036 108.946006,100.064692 C108.852497,100.47388 108.444981,100.729788 108.035793,100.63628 L98.1554965,98.3784132 Z M117.91609,102.894146 C117.506902,102.800638 117.250994,102.393122 117.344502,101.983934 C117.438011,101.574746 117.845527,101.318837 118.254715,101.412346 L128.135012,103.670212 C128.5442,103.763721 128.800108,104.171237 128.7066,104.580425 C128.613091,104.989613 128.205575,105.245522 127.796387,105.152013 L117.91609,102.894146 Z M137.676684,107.40988 C137.267496,107.316371 137.011588,106.908855 137.105096,106.499667 C137.198605,106.090479 137.606121,105.83457 138.015309,105.928079 L147.895606,108.185946 C148.304794,108.279454 148.560702,108.68697 148.467194,109.096158 C148.373685,109.505346 147.966169,109.761255 147.556981,109.667746 L137.676684,107.40988 Z M157.437278,111.925613 C157.02809,111.832104 156.772181,111.424588 156.86569,111.0154 C156.959198,110.606212 157.366715,110.350304 157.775903,110.443812 L167.656199,112.701679 C168.065387,112.795187 168.321296,113.202703 168.227788,113.611891 C168.134279,114.021079 167.726763,114.276988 167.317575,114.18348 L157.437278,111.925613 Z M187.172799,116.809591 C187.589282,116.757431 187.969192,117.052773 188.021352,117.469256 C188.073512,117.885739 187.77817,118.265649 187.361687,118.317809 L186.100401,118.475771 L177.197872,116.441346 C176.788684,116.347838 176.532775,115.940322 176.626284,115.531134 C176.719792,115.121946 177.127308,114.866037 177.536496,114.959545 L186.177599,116.934229 L187.172799,116.809591 Z M197.418127,117.058347 C197.001644,117.110507 196.621734,116.815165 196.569574,116.398683 C196.517414,115.9822 196.812756,115.60229 197.229239,115.55013 L207.285679,114.290668 C207.702162,114.238508 208.082072,114.53385 208.134232,114.950333 C208.186392,115.366816 207.89105,115.746726 207.474567,115.798886 L197.418127,117.058347 Z M217.531007,114.539425 C217.114524,114.591585 216.734614,114.296243 216.682454,113.87976 C216.630294,113.463277 216.925636,113.083367 217.342119,113.031207 L227.398559,111.771746 C227.815042,111.719586 228.194952,112.014928 228.247112,112.431411 C228.299272,112.847894 228.00393,113.227804 227.587447,113.279964 L217.531007,114.539425 Z M237.643887,112.020503 C237.227405,112.072663 236.847494,111.777321 236.795334,111.360838 C236.743174,110.944355 237.038516,110.564445 237.454999,110.512285 L247.511439,109.252824 C247.927922,109.200664 248.307832,109.496006 248.359992,109.912489 C248.412152,110.328971 248.11681,110.708882 247.700327,110.761042 L237.643887,112.020503 Z M20.1066838,113.198812 C19.7135611,113.051729 19.5141061,112.613806 19.6611885,112.220684 C19.8082709,111.827561 20.2461936,111.628106 20.6393162,111.775188 L30.1316979,115.326656 C30.5248205,115.473738 30.7242756,115.911661 30.5771932,116.304784 C30.4301108,116.697906 29.9921881,116.897361 29.5990654,116.750279 L20.1066838,113.198812 Z M39.0914471,120.301746 C38.6983244,120.154664 38.4988694,119.716741 38.6459518,119.323618 C38.7930342,118.930496 39.2309569,118.731041 39.6240795,118.878123 L49.1164612,122.42959 C49.5095839,122.576673 49.7090389,123.014596 49.5619565,123.407718 C49.4148741,123.800841 48.9769514,124.000296 48.5838287,123.853214 L39.0914471,120.301746 Z M58.0762104,127.404681 C57.6830877,127.257598 57.4836327,126.819676 57.6307151,126.426553 C57.7777975,126.03343 58.2157202,125.833975 58.6088428,125.981058 L68.1012245,129.532525 C68.4943472,129.679608 68.6938022,130.11753 68.5467198,130.510653 C68.3996374,130.903776 67.9617147,131.103231 67.568592,130.956148 L58.0762104,127.404681 Z M77.0609737,134.507616 C76.667851,134.360533 76.468396,133.92261 76.6154784,133.529488 C76.7625608,133.136365 77.2004835,132.93691 77.5936062,133.083992 L87.0859878,136.63546 C87.4791105,136.782542 87.6785655,137.220465 87.5314831,137.613588 C87.3844007,138.00671 86.946478,138.206165 86.5533553,138.059083 L77.0609737,134.507616 Z M101.331316,141.965188 L101.01777,141.918469 L101.179525,141.908397 L101.331316,141.965188 Z M106.068276,141.604001 C106.487202,141.577916 106.847953,141.896377 106.874037,142.315302 C106.900121,142.734227 106.581661,143.094978 106.162736,143.121063 L100.950475,143.445603 L96.045737,141.61055 C95.6526143,141.463468 95.4531593,141.025545 95.6002417,140.632422 C95.7473241,140.2393 96.1852468,140.039845 96.5783695,140.186927 L101.179525,141.908397 L106.068276,141.604001 Z M116.278147,142.491229 C115.859222,142.517314 115.49847,142.198853 115.472386,141.779928 C115.446302,141.361003 115.764762,141.000251 116.183687,140.974167 L126.299098,140.344334 C126.718023,140.31825 127.078775,140.63671 127.104859,141.055635 C127.130943,141.47456 126.812483,141.835312 126.393558,141.861396 L116.278147,142.491229 Z M136.508969,141.231563 C136.090044,141.257647 135.729292,140.939186 135.703208,140.520261 C135.677124,140.101336 135.995584,139.740585 136.414509,139.7145 L146.52992,139.084667 C146.948845,139.058583 147.309597,139.377043 147.335681,139.795968 C147.361765,140.214894 147.043305,140.575645 146.62438,140.601729 L136.508969,141.231563 Z M156.739791,139.971896 C156.320866,139.99798 155.960114,139.67952 155.93403,139.260595 C155.907946,138.841669 156.226406,138.480918 156.645331,138.454834 L166.760742,137.825 C167.179667,137.798916 167.540419,138.117377 167.566503,138.536302 C167.592587,138.955227 167.274127,139.315978 166.855202,139.342063 L156.739791,139.971896 Z M176.970613,138.712229 C176.551688,138.738313 176.190936,138.419853 176.164852,138.000928 C176.138768,137.582003 176.457228,137.221251 176.876153,137.195167 L185.674365,136.647349 L187.219377,137.301094 C187.605933,137.464658 187.786703,137.910618 187.623139,138.297174 C187.459575,138.68373 187.013614,138.8645 186.627058,138.700936 L185.411635,138.186651 L176.970613,138.712229 Z M195.960876,142.650376 C195.57432,142.486812 195.39355,142.040852 195.557114,141.654296 C195.720678,141.26774 196.166639,141.08697 196.553194,141.250534 L205.887012,145.199975 C206.273568,145.363539 206.454338,145.809499 206.290774,146.196055 C206.12721,146.582611 205.681249,146.763381 205.294693,146.599817 L195.960876,142.650376 Z M214.628511,150.549258 C214.241955,150.385693 214.061185,149.939733 214.224749,149.553177 C214.388313,149.166621 214.834274,148.985851 215.220829,149.149415 L224.554647,153.098856 C224.941203,153.26242 225.121973,153.70838 224.958409,154.094936 C224.794845,154.481492 224.348884,154.662262 223.962328,154.498698 L214.628511,150.549258 Z M233.296146,158.448139 C232.90959,158.284574 232.72882,157.838614 232.892384,157.452058 C233.055948,157.065502 233.501909,156.884732 233.888465,157.048296 L243.222282,160.997737 C243.608838,161.161301 243.789608,161.607261 243.626044,161.993817 C243.46248,162.380373 243.016519,162.561143 242.629963,162.397579 L233.296146,158.448139 Z" id="Shape" fill="#6E7287" fill-rule="nonzero"></path>
            <polygon id="Path" fill="#2A3052" points="259.224 109.619 259.224 108.099 294.19 108.099 294.19 109.619"></polygon>
            <ellipse id="Oval" fill="#FFFFFF" opacity="0.6" cx="247.454" cy="56.883" rx="8.247" ry="8.633"></ellipse>
            <ellipse id="Oval" fill="#FFFFFF" opacity="0.6" cx="247.454" cy="109.852" rx="8.247" ry="8.633"></ellipse>
            <ellipse id="Oval" fill="#FFFFFF" opacity="0.6" cx="248.467" cy="163.839" rx="8.247" ry="8.633"></ellipse>
            <path d="M247.454,66.7435 C242.2085,66.7435 237.9795,62.3165617 237.9795,56.883 C237.9795,51.4494383 242.2085,47.0225 247.454,47.0225 C252.6995,47.0225 256.9285,51.4494383 256.9285,56.883 C256.9285,62.3165617 252.6995,66.7435 247.454,66.7435 Z M247.454,64.2885 C251.317885,64.2885 254.4735,60.9851868 254.4735,56.883 C254.4735,52.7808132 251.317885,49.4775 247.454,49.4775 C243.590115,49.4775 240.4345,52.7808132 240.4345,56.883 C240.4345,60.9851868 243.590115,64.2885 247.454,64.2885 Z" id="Oval" fill="#E88024" fill-rule="nonzero"></path>
            <path d="M247.454,119.7125 C242.2085,119.7125 237.9795,115.285562 237.9795,109.852 C237.9795,104.418438 242.2085,99.9915 247.454,99.9915 C252.6995,99.9915 256.9285,104.418438 256.9285,109.852 C256.9285,115.285562 252.6995,119.7125 247.454,119.7125 Z M247.454,117.2575 C251.317885,117.2575 254.4735,113.954187 254.4735,109.852 C254.4735,105.749813 251.317885,102.4465 247.454,102.4465 C243.590115,102.4465 240.4345,105.749813 240.4345,109.852 C240.4345,113.954187 243.590115,117.2575 247.454,117.2575 Z" id="Oval" fill="#E88024" fill-rule="nonzero"></path>
            <path d="M248.467,173.6995 C243.2215,173.6995 238.9925,169.272562 238.9925,163.839 C238.9925,158.405438 243.2215,153.9785 248.467,153.9785 C253.7125,153.9785 257.9415,158.405438 257.9415,163.839 C257.9415,169.272562 253.7125,173.6995 248.467,173.6995 Z M248.467,171.2445 C252.330885,171.2445 255.4865,167.941187 255.4865,163.839 C255.4865,159.736813 252.330885,156.4335 248.467,156.4335 C244.603115,156.4335 241.4475,159.736813 241.4475,163.839 C241.4475,167.941187 244.603115,171.2445 248.467,171.2445 Z" id="Oval" fill="#E88024" fill-rule="nonzero"></path>
            <ellipse id="Oval" fill="#FFFFFF" opacity="0.916" cx="20.467" cy="109.87" rx="8.247" ry="8.633"></ellipse>
            <path d="M20.467,119.7305 C15.2215003,119.7305 10.9925,115.303562 10.9925,109.87 C10.9925,104.436438 15.2215003,100.0095 20.467,100.0095 C25.7124997,100.0095 29.9415,104.436438 29.9415,109.87 C29.9415,115.303562 25.7124997,119.7305 20.467,119.7305 Z M20.467,117.2755 C24.330885,117.2755 27.4865,113.972187 27.4865,109.87 C27.4865,105.767813 24.330885,102.4645 20.467,102.4645 C16.603115,102.4645 13.4475,105.767813 13.4475,109.87 C13.4475,113.972187 16.603115,117.2755 20.467,117.2755 Z" id="Oval" fill="#E88024" fill-rule="nonzero"></path>
            <path d="M277.408,121.261 L272.234,121.261 L272.364,120.471 L275.457,117.365 C276.007,116.81 276.39,116.368 276.603,116.038 C276.816,115.708 276.951,115.371 277.01,115.027 C277.08,114.589 277.027,114.228 276.852,113.943 C276.676,113.658 276.404,113.515 276.037,113.515 C275.517,113.515 275.101,113.668 274.787,113.975 C274.472,114.282 274.272,114.705 274.186,115.244 L273.108,115.244 L273.096,115.209 C273.201,114.447 273.527,113.823 274.074,113.336 C274.621,112.85 275.322,112.607 276.178,112.607 C276.865,112.607 277.393,112.833 277.76,113.284 C278.127,113.734 278.256,114.302 278.147,114.986 C278.059156,115.493188 277.855548,115.973291 277.552,116.389 C277.233,116.84 276.795,117.339 276.236,117.886 L273.776,120.324 L273.787,120.359 L277.555,120.359 L277.408,121.261 Z M268.88,57.769 C268.934,57.439 268.875,57.163 268.705,56.939 C268.535,56.715 268.226,56.514 267.779,56.335 C267.142,56.116 266.679,55.825 266.393,55.459 C266.107,55.094 266.012,54.607 266.108,53.999 C266.205,53.386 266.438,52.899 266.809,52.535 C267.18,52.171 267.649,51.954 268.214,51.882 L268.402,50.695 L269.229,50.695 L269.036,51.893 C269.562,51.986 269.947,52.248 270.191,52.677 C270.434,53.107 270.501,53.674 270.389,54.38 L269.358,54.38 C269.437,53.875 269.401,53.477 269.251,53.185 C269.101,52.893 268.842,52.747 268.477,52.747 C268.115,52.747 267.818,52.859 267.586,53.083 C267.353,53.307 267.208,53.606 267.15,53.983 C267.093,54.34 267.146,54.624 267.309,54.833 C267.472,55.043 267.795,55.245 268.279,55.438 C268.923,55.674 269.381,55.968 269.653,56.321 C269.926,56.674 270.013,57.153 269.917,57.758 C269.813,58.396 269.563,58.892 269.167,59.246 C268.772,59.601 268.266,59.81 267.65,59.874 L267.489,60.906 L266.662,60.906 L266.822,59.874 C266.282,59.803 265.858,59.573 265.55,59.184 C265.242,58.796 265.149,58.229 265.27,57.484 L266.307,57.484 C266.214,58.057 266.27,58.456 266.477,58.679 C266.682,58.903 266.971,59.015 267.344,59.015 C267.748,59.015 268.09,58.903 268.367,58.679 C268.645,58.456 268.816,58.152 268.88,57.769 Z M275.9,56.808 C275.685,57.871 275.326,58.653 274.823,59.152 C274.32,59.652 273.701,59.902 272.967,59.902 C272.297,59.902 271.796,59.63 271.461,59.088 C271.126,58.545 271.057,57.785 271.254,56.808 L271.624,54.955 C271.836,53.895 272.196,53.113 272.704,52.61 C273.193994,52.1141745 273.866044,51.8412331 274.563,51.855 C275.236,51.855 275.737,52.128 276.066,52.672 C276.396,53.216 276.464,53.977 276.271,54.955 L275.9,56.808 Z M275.277,54.729 C275.42,54.009 275.416,53.489 275.264,53.169 C275.111,52.849 274.822,52.688 274.396,52.688 C274.006,52.688 273.659,52.862 273.356,53.212 C273.054,53.561 272.836,54.067 272.704,54.729 L272.248,57.022 C272.104,57.742 272.11,58.264 272.264,58.588 C272.418,58.912 272.708,59.074 273.134,59.074 C273.524,59.074 273.869,58.899 274.168,58.548 C274.467,58.197 274.684,57.688 274.82,57.022 L275.277,54.729 Z" id="Shape" fill="#2A3052" fill-rule="nonzero"></path>
            <path d="M21.632,21 L21.632,10.336 L25.177,10.336 C26.358,10.336 27.281,10.579 27.945,11.065 C28.609,11.551 28.941,12.277 28.941,13.244 C28.941,13.727 28.802,14.159 28.524,14.54 C28.245,14.92 27.86,15.204 27.367,15.39 C28.001,15.531 28.49,15.836 28.831,16.305 C29.173,16.774 29.344,17.318 29.344,17.938 C29.344,18.939 29.017,19.7 28.363,20.22 C27.708,20.74 26.805,21 25.653,21 L21.632,21 Z M23.412,16.151 L23.412,19.579 L25.652,19.579 C26.268,19.579 26.742,19.439 27.074,19.158 C27.406,18.878 27.572,18.471 27.572,17.938 C27.572,17.372 27.432,16.933 27.154,16.62 C26.876,16.308 26.441,16.151 25.85,16.151 L23.411,16.151 L23.412,16.151 Z M23.412,14.826 L25.374,14.826 C25.926,14.826 26.362,14.696 26.682,14.434 C27.002,14.173 27.162,13.803 27.162,13.324 C27.162,12.797 26.993,12.405 26.656,12.149 C26.319,11.892 25.826,11.764 25.176,11.764 L23.411,11.764 L23.411,14.826 L23.412,14.826 Z M35.781,21 C35.7196686,20.8071892 35.6672794,20.6116473 35.624,20.414 C35.582,20.224 35.554,20.034 35.539,19.843 C35.2889346,20.2199901 34.9604578,20.5385751 34.576,20.777 C34.1763258,21.0288403 33.7123661,21.159763 33.24,21.154 C32.414,21.154 31.78,20.941 31.339,20.517 C30.897,20.092 30.676,19.508 30.676,18.767 C30.676,18 30.979,17.403 31.584,16.975 C32.19,16.548 33.042,16.335 34.14,16.335 L35.525,16.335 L35.525,15.639 C35.525,15.224 35.403,14.899 35.158,14.665 C34.914,14.43 34.565,14.313 34.111,14.313 C33.706,14.313 33.384,14.411 33.144,14.606 C32.9118733,14.7864543 32.7787509,15.0660484 32.785,15.36 L31.072,15.36 L31.064,15.316 C31.03,14.691 31.31,14.137 31.903,13.654 C32.496,13.17 33.269,12.929 34.221,12.929 C35.144,12.929 35.888,13.163 36.455,13.632 C37.021,14.101 37.305,14.774 37.305,15.653 L37.305,19.176 C37.305,19.503 37.326,19.817 37.37,20.117 C37.414,20.417 37.485,20.712 37.583,21 L35.781,21 Z M33.598,19.726 C34.048,19.726 34.452,19.613 34.811,19.389 C35.169,19.164 35.407,18.908 35.525,18.619 L35.525,17.448 L34.111,17.448 C33.594,17.448 33.188,17.576 32.895,17.832 C32.602,18.089 32.455,18.39 32.455,18.737 C32.455,19.04 32.555,19.28 32.752,19.458 C32.95,19.636 33.232,19.726 33.598,19.726 Z M34.638,9.992 L36.608,9.992 L36.623,10.036 L34.623,11.94 L33.24,11.94 L34.638,9.992 Z M40.783,13.075 L40.886,14.218 C41.145,13.812 41.471,13.496 41.864,13.269 C42.257,13.042 42.7,12.929 43.194,12.929 C44.018,12.929 44.662,13.179 45.124,13.679 C45.584,14.179 45.815,14.96 45.815,16.019 L45.815,21 L44.035,21 L44.035,16.034 C44.035,15.438 43.912,15.014 43.665,14.764 C43.419,14.512 43.045,14.386 42.541,14.386 C41.8924198,14.3752868 41.2849098,14.7025241 40.937,15.25 L40.937,21 L39.157,21 L39.157,13.075 L40.783,13.075 Z M53.302,21 L51.522,21 L51.522,9.574 L53.302,9.574 L53.302,21 Z M60.062,21 C60.0003316,20.8072057 59.9476087,20.6116636 59.904,20.414 C59.863,20.224 59.834,20.034 59.82,19.843 C59.5699346,20.2199901 59.2414578,20.5385751 58.857,20.777 C58.4570392,21.0290261 57.9927053,21.1599564 57.52,21.154 C56.695,21.154 56.062,20.941 55.62,20.517 C55.178,20.092 54.957,19.508 54.957,18.767 C54.957,18 55.26,17.403 55.865,16.975 C56.471,16.548 57.323,16.335 58.421,16.335 L59.805,16.335 L59.805,15.639 C59.805,15.224 59.683,14.899 59.439,14.665 C59.195,14.43 58.846,14.313 58.392,14.313 C57.987,14.313 57.664,14.411 57.425,14.606 C57.1928733,14.7864543 57.0597509,15.0660484 57.066,15.36 L55.352,15.36 L55.345,15.316 C55.311,14.691 55.59,14.137 56.184,13.654 C56.777,13.17 57.55,12.929 58.502,12.929 C59.425,12.929 60.169,13.163 60.736,13.632 C61.302,14.101 61.586,14.774 61.586,15.653 L61.586,19.176 C61.586,19.503 61.607,19.817 61.651,20.117 C61.695,20.417 61.766,20.712 61.864,21 L60.062,21 Z M57.879,19.726 C58.329,19.726 58.732,19.613 59.091,19.389 C59.451,19.164 59.688,18.908 59.805,18.619 L59.805,17.448 L58.392,17.448 C57.874,17.448 57.469,17.576 57.176,17.832 C56.883,18.089 56.736,18.39 56.736,18.737 C56.736,19.04 56.836,19.28 57.033,19.458 C57.231,19.636 57.513,19.726 57.879,19.726 Z M60.86,11.486 L60.86,11.662 L59.432,11.662 L58.385,10.644 L57.345,11.662 L55.93,11.662 L55.93,11.472 L57.864,9.713 L58.911,9.713 L60.859,11.486 L60.86,11.486 Z M65.965,17.821 L66.141,18.612 L66.185,18.612 L67.921,13.075 L69.869,13.075 L66.588,22.201 C66.3932239,22.7285646 66.0912035,23.2100266 65.701,23.615 C65.321,24.005 64.781,24.201 64.083,24.201 C63.936,24.201 63.779,24.186 63.61,24.157 C63.4464711,24.1285851 63.2840303,24.094229 63.123,24.054 L63.321,22.677 L63.592,22.699 C63.709,22.709 63.797,22.714 63.856,22.714 C64.178,22.714 64.436,22.604 64.628,22.384 C64.821,22.164 64.978,21.911 65.101,21.623 L65.394,20.905 L62.515,13.075 L64.456,13.075 L65.966,17.821 L65.965,17.821 Z M76.571,21 L74.791,21 L74.791,9.574 L76.571,9.574 L76.571,21 Z M83.331,21 C83.2693316,20.8072057 83.2166087,20.6116636 83.173,20.414 C83.132,20.224 83.103,20.034 83.089,19.843 C82.8389346,20.2199901 82.5104578,20.5385751 82.126,20.777 C81.7260392,21.0290261 81.2617053,21.1599564 80.789,21.154 C79.964,21.154 79.331,20.941 78.889,20.517 C78.447,20.092 78.226,19.508 78.226,18.767 C78.226,18 78.529,17.403 79.134,16.975 C79.74,16.548 80.592,16.335 81.69,16.335 L83.075,16.335 L83.075,15.639 C83.075,15.224 82.952,14.899 82.708,14.665 C82.464,14.43 82.115,14.313 81.661,14.313 C81.256,14.313 80.933,14.411 80.694,14.606 C80.4618733,14.7864543 80.3287509,15.0660484 80.335,15.36 L78.621,15.36 L78.614,15.316 C78.58,14.691 78.859,14.137 79.453,13.654 C80.046,13.17 80.819,12.929 81.771,12.929 C82.694,12.929 83.438,13.163 84.005,13.632 C84.571,14.101 84.855,14.774 84.855,15.653 L84.855,19.176 C84.855,19.503 84.876,19.817 84.92,20.117 C84.964,20.417 85.035,20.712 85.133,21 L83.33,21 L83.331,21 Z M81.148,19.726 C81.598,19.726 82.002,19.613 82.36,19.389 C82.72,19.164 82.957,18.908 83.075,18.619 L83.075,17.448 L81.66,17.448 C81.142,17.448 80.737,17.576 80.444,17.832 C80.151,18.089 80.004,18.39 80.004,18.737 C80.004,19.04 80.104,19.28 80.301,19.458 C80.499,19.636 80.781,19.726 81.147,19.726 L81.148,19.726 Z M88.333,13.076 L88.436,14.218 C88.695,13.812 89.021,13.496 89.414,13.269 C89.807,13.042 90.25,12.929 90.743,12.929 C91.568,12.929 92.211,13.179 92.673,13.679 C93.134,14.179 93.365,14.96 93.365,16.019 L93.365,21 L91.585,21 L91.585,16.034 C91.585,15.438 91.462,15.014 91.215,14.764 C90.969,14.512 90.594,14.386 90.091,14.386 C89.4424198,14.3752868 88.8349098,14.7025241 88.487,15.25 L88.487,21 L86.707,21 L86.707,13.075 L88.333,13.075 L88.333,13.076 Z" id="Shape" fill="#000000" fill-rule="nonzero"></path>
            <path d="M52.29,54.975 L49.974,54.975 L48.578,61.962 L47.54,61.962 L48.937,54.975 L46.627,54.975 L46.793,54.142 L52.455,54.142 L52.288,54.975 L52.29,54.975 Z M54.513,61.962 C54.513,61.787 54.516,61.642 54.523,61.53 C54.531,61.417 54.543,61.302 54.561,61.184 C54.32137,61.4378827 54.0433071,61.6525041 53.737,61.82 C53.427,61.99 53.117,62.075 52.805,62.075 C52.275,62.075 51.884,61.917 51.631,61.6 C51.379,61.283 51.308,60.86 51.419,60.33 C51.534,59.739 51.824,59.296 52.292,59 C52.759,58.705 53.358,58.557 54.088,58.557 L55.082,58.557 L55.195,57.982 C55.266,57.621 55.227,57.346 55.077,57.158 C54.927,56.97 54.676,56.876 54.325,56.876 C54.024,56.876 53.752,56.965 53.508,57.142 C53.265,57.319 53.12,57.526 53.073,57.762 L52.09,57.762 L52.08,57.73 C52.151,57.282 52.42,56.89 52.885,56.551 C53.351,56.213 53.905,56.044 54.55,56.044 C55.127,56.044 55.582,56.214 55.917,56.556 C56.252,56.898 56.359,57.377 56.237,57.993 L55.678,60.792 C55.632,61.01 55.599,61.212 55.582,61.399 C55.5641545,61.5862424 55.5641545,61.7747576 55.582,61.962 L54.512,61.962 L54.513,61.962 Z M53.138,61.189 C53.428,61.189 53.723,61.105 54.024,60.937 C54.324,60.768 54.557,60.57 54.722,60.34 L54.937,59.272 L53.911,59.272 C53.557,59.272 53.238,59.381 52.955,59.599 C52.672,59.818 52.504,60.069 52.45,60.351 C52.393,60.627 52.42,60.835 52.53,60.977 C52.642,61.118 52.844,61.189 53.138,61.189 Z M55.05,55.313 L54.228,55.313 L53.175,53.884 L54.416,53.884 L55.05,55.314 L55.05,55.313 Z M57.236,59.003 C57.379,58.108 57.708,57.391 58.221,56.852 C58.735,56.313 59.37,56.044 60.125,56.044 C60.849,56.044 61.39,56.324 61.75,56.884 C62.11,57.444 62.222,58.151 62.086,59.003 L62.07,59.121 C61.923,60.02 61.593,60.737 61.079,61.272 C60.565,61.808 59.93,62.075 59.175,62.075 C58.451,62.075 57.91,61.796 57.55,61.237 C57.19,60.679 57.08,59.973 57.22,59.121 L57.236,59.003 Z M58.256,59.121 C58.153,59.762 58.184,60.277 58.35,60.665 C58.517,61.054 58.835,61.248 59.304,61.248 C59.741,61.248 60.113,61.045 60.421,60.638 C60.729,60.232 60.931,59.726 61.028,59.121 L61.044,59.003 C61.144,58.373 61.11,57.861 60.942,57.467 C60.774,57.073 60.458,56.876 59.997,56.876 C59.557,56.876 59.183,57.08 58.877,57.488 C58.571,57.897 58.369,58.401 58.272,59.003 L58.256,59.121 Z M67.806,61.248 C68.114,61.248 68.409,61.138 68.69,60.92 C68.97,60.702 69.136,60.437 69.187,60.126 L70.116,60.126 L70.126,60.158 C70.055,60.681 69.776,61.131 69.289,61.508 C68.8321085,61.8754063 68.2632909,62.0754805 67.677,62.075 C66.918,62.075 66.365,61.796 66.017,61.237 C65.67,60.679 65.563,59.989 65.695,59.169 L65.733,58.944 C65.865,58.088 66.183,57.391 66.686,56.852 C67.189,56.313 67.84,56.044 68.639,56.044 C69.255,56.044 69.737,56.244 70.086,56.648 C70.436,57.051 70.556,57.544 70.449,58.128 L70.438,58.154 L69.498,58.154 C69.558,57.782 69.498,57.476 69.315,57.236 C69.133,56.996 68.865,56.876 68.51,56.876 C68.023,56.876 67.634,57.078 67.344,57.483 C67.054,57.888 66.864,58.375 66.774,58.943 L66.737,59.169 C66.641,59.785 66.666,60.286 66.813,60.671 C66.959,61.056 67.291,61.248 67.806,61.248 Z M74.198,61.962 C74.198,61.787 74.201,61.642 74.208,61.53 C74.216,61.417 74.228,61.302 74.246,61.184 C74.00637,61.4378827 73.7283071,61.6525041 73.422,61.82 C73.112,61.99 72.802,62.075 72.49,62.075 C71.96,62.075 71.569,61.917 71.316,61.6 C71.064,61.283 70.993,60.86 71.104,60.33 C71.219,59.739 71.51,59.296 71.977,59 C72.444,58.705 73.043,58.557 73.773,58.557 L74.767,58.557 L74.88,57.982 C74.951,57.621 74.912,57.346 74.762,57.158 C74.612,56.97 74.361,56.876 74.01,56.876 C73.709,56.876 73.437,56.965 73.193,57.142 C72.95,57.319 72.805,57.526 72.758,57.762 L71.775,57.762 L71.765,57.73 C71.836,57.282 72.105,56.89 72.57,56.551 C73.036,56.213 73.59,56.044 74.235,56.044 C74.812,56.044 75.267,56.214 75.602,56.556 C75.937,56.898 76.044,57.377 75.922,57.993 L75.363,60.792 C75.317,61.01 75.285,61.212 75.267,61.399 C75.2491545,61.5862424 75.2491545,61.7747576 75.267,61.962 L74.197,61.962 L74.198,61.962 Z M72.823,61.189 C73.113,61.189 73.408,61.105 73.709,60.937 C74.009,60.768 74.243,60.57 74.407,60.34 L74.622,59.272 L73.596,59.272 C73.242,59.272 72.923,59.381 72.64,59.599 C72.357,59.818 72.189,60.069 72.135,60.351 C72.078,60.627 72.105,60.835 72.215,60.977 C72.327,61.118 72.529,61.189 72.823,61.189 Z M73.973,55.206 L74.133,54.378 C74.391,54.364 74.577,54.331 74.692,54.279 C74.806,54.227 74.876,54.129 74.902,53.986 C74.93,53.85 74.878,53.747 74.746,53.678 C74.613,53.608 74.434,53.573 74.208,53.573 L74.364,52.993 C74.869,52.993 75.234,53.08 75.457,53.253 C75.681,53.427 75.759,53.678 75.691,54.008 C75.644,54.258 75.537,54.449 75.369,54.58 C75.2,54.71 75.007,54.792 74.789,54.824 L74.703,55.206 L73.973,55.206 Z M78.581,56.951 C78.817,56.658 79.085,56.433 79.384,56.277 C79.683,56.121 80.004,56.044 80.348,56.044 C80.896,56.044 81.302,56.23 81.567,56.602 C81.832,56.975 81.889,57.538 81.739,58.294 L81.003,61.962 L79.966,61.962 L80.696,58.315 C80.804,57.771 80.79,57.4 80.654,57.201 C80.518,57.002 80.253,56.903 79.859,56.903 C79.609,56.903 79.359,56.979 79.112,57.131 C78.8576269,57.2899996 78.6368139,57.4972241 78.462,57.741 L77.619,61.962 L76.583,61.962 L77.743,56.151 L78.672,56.151 L78.581,56.951 Z M87.491,61.248 C87.799,61.248 88.094,61.138 88.375,60.92 C88.655,60.702 88.821,60.437 88.872,60.126 L89.801,60.126 L89.811,60.158 C89.74,60.681 89.461,61.131 88.974,61.508 C88.5171085,61.8754063 87.9482909,62.0754805 87.362,62.075 C86.603,62.075 86.05,61.796 85.702,61.237 C85.355,60.679 85.248,59.989 85.38,59.169 L85.418,58.944 C85.55,58.088 85.868,57.391 86.371,56.852 C86.874,56.313 87.525,56.044 88.324,56.044 C88.94,56.044 89.422,56.244 89.771,56.648 C90.121,57.051 90.241,57.544 90.134,58.128 L90.123,58.154 L89.183,58.154 C89.244,57.782 89.183,57.476 89,57.236 C88.818,56.996 88.55,56.876 88.195,56.876 C87.708,56.876 87.319,57.078 87.029,57.483 C86.739,57.888 86.549,58.375 86.46,58.943 L86.422,59.169 C86.326,59.785 86.351,60.286 86.498,60.671 C86.644,61.056 86.976,61.248 87.491,61.248 Z M93.883,61.962 C93.883,61.787 93.886,61.642 93.893,61.53 C93.901,61.417 93.913,61.302 93.931,61.184 C93.69137,61.4378827 93.4133071,61.6525041 93.107,61.82 C92.797,61.99 92.487,62.075 92.175,62.075 C91.645,62.075 91.254,61.917 91.001,61.6 C90.749,61.283 90.678,60.86 90.789,60.33 C90.904,59.739 91.195,59.296 91.662,59 C92.129,58.705 92.728,58.557 93.458,58.557 L94.452,58.557 L94.565,57.982 C94.637,57.621 94.597,57.346 94.447,57.158 C94.297,56.97 94.046,56.876 93.695,56.876 C93.394,56.876 93.122,56.965 92.878,57.142 C92.635,57.319 92.49,57.526 92.443,57.762 L91.46,57.762 L91.45,57.73 C91.521,57.282 91.79,56.89 92.255,56.551 C92.721,56.213 93.275,56.044 93.92,56.044 C94.497,56.044 94.953,56.214 95.287,56.556 C95.622,56.898 95.729,57.377 95.607,57.993 L95.048,60.792 C95.002,61.01 94.97,61.212 94.952,61.399 C94.9341545,61.5862424 94.9341545,61.7747576 94.952,61.962 L93.882,61.962 L93.883,61.962 Z M92.508,61.189 C92.798,61.189 93.093,61.105 93.394,60.937 C93.694,60.768 93.928,60.57 94.092,60.34 L94.307,59.272 L93.281,59.272 C92.927,59.272 92.608,59.381 92.325,59.599 C92.042,59.818 91.874,60.069 91.82,60.351 C91.763,60.627 91.79,60.835 91.9,60.977 C92.012,61.118 92.214,61.189 92.508,61.189 Z M96.606,59.003 C96.749,58.108 97.078,57.391 97.592,56.852 C98.105,56.313 98.74,56.044 99.496,56.044 C100.219,56.044 100.76,56.324 101.12,56.884 C101.48,57.444 101.592,58.151 101.456,59.003 L101.44,59.121 C101.293,60.02 100.963,60.737 100.449,61.272 C99.935,61.808 99.3,62.075 98.545,62.075 C97.822,62.075 97.28,61.796 96.92,61.237 C96.56,60.679 96.45,59.973 96.59,59.121 L96.606,59.003 Z M97.626,59.121 C97.523,59.762 97.554,60.277 97.72,60.665 C97.887,61.054 98.205,61.248 98.674,61.248 C99.111,61.248 99.484,61.045 99.791,60.638 C100.099,60.232 100.301,59.726 100.398,59.121 L100.414,59.003 C100.514,58.373 100.48,57.861 100.312,57.467 C100.144,57.073 99.829,56.876 99.367,56.876 C98.927,56.876 98.553,57.08 98.247,57.488 C97.941,57.897 97.739,58.401 97.643,59.003 L97.626,59.121 Z M45.18,168.292 L44.504,171.682 L43.462,171.682 L45.025,163.866 L47.684,163.866 C48.428,163.866 48.984,164.06 49.351,164.446 C49.718,164.833 49.832,165.381 49.692,166.09 C49.602,166.523 49.432,166.885 49.179,167.175 C48.927,167.465 48.593,167.694 48.178,167.862 C48.528,168.009 48.767,168.24 48.892,168.555 C49.017,168.87 49.037,169.248 48.952,169.688 L48.806,170.424 C48.7556183,170.641523 48.7357611,170.865001 48.747,171.088 C48.755592,171.255771 48.8137048,171.417234 48.914,171.552 L48.887,171.682 L47.817,171.682 C47.71,171.559 47.662,171.382 47.673,171.149 C47.6858044,170.901817 47.7182399,170.656042 47.77,170.414 L47.915,169.699 C48.005,169.252 47.965,168.905 47.796,168.659 C47.628,168.415 47.356,168.292 46.98,168.292 L45.18,168.292 Z M45.347,167.459 L46.862,167.459 C47.363,167.459 47.765,167.342 48.068,167.108 C48.37,166.873 48.568,166.53 48.661,166.079 C48.754,165.614 48.711,165.266 48.532,165.037 C48.353,164.808 48.015,164.693 47.517,164.693 L45.9,164.693 L45.347,167.459 Z M53.42,171.681 C53.42,171.506 53.424,171.361 53.43,171.249 C53.438,171.136 53.45,171.021 53.468,170.902 C53.2284443,171.156238 52.9503774,171.3712 52.644,171.539 C52.334,171.709 52.024,171.794 51.712,171.794 C51.182,171.794 50.791,171.636 50.538,171.319 C50.286,171.002 50.215,170.579 50.326,170.049 C50.441,169.458 50.732,169.014 51.199,168.719 C51.666,168.424 52.265,168.276 52.996,168.276 L53.989,168.276 L54.102,167.701 C54.174,167.34 54.134,167.065 53.984,166.877 C53.834,166.689 53.583,166.595 53.232,166.595 C52.932,166.595 52.659,166.683 52.416,166.861 C52.172,167.038 52.027,167.245 51.98,167.481 L50.998,167.481 L50.987,167.449 C51.058,167.001 51.327,166.609 51.792,166.269 C52.258,165.931 52.813,165.762 53.458,165.762 C54.034,165.762 54.49,165.933 54.824,166.275 C55.159,166.617 55.266,167.096 55.144,167.712 L54.585,170.51 C54.539,170.729 54.507,170.931 54.489,171.117 C54.4710909,171.304573 54.4710909,171.493427 54.489,171.681 L53.419,171.681 L53.42,171.681 Z M52.045,170.908 C52.335,170.908 52.63,170.824 52.931,170.655 C53.231,170.487 53.465,170.288 53.629,170.059 L53.844,168.99 L52.818,168.99 C52.464,168.99 52.145,169.1 51.862,169.318 C51.579,169.536 51.412,169.787 51.357,170.07 C51.3,170.346 51.327,170.554 51.438,170.696 C51.549,170.837 51.751,170.908 52.045,170.908 Z M53.957,165.032 L53.135,165.032 L52.083,163.603 L53.323,163.603 L53.957,165.032 Z M56.143,168.722 C56.286,167.827 56.615,167.109 57.129,166.571 C57.642,166.031 58.277,165.762 59.033,165.762 C59.756,165.762 60.298,166.042 60.657,166.602 C61.017,167.163 61.129,167.869 60.993,168.722 L60.977,168.84 C60.83,169.739 60.5,170.456 59.987,170.991 C59.472,171.526 58.837,171.794 58.082,171.794 C57.359,171.794 56.817,171.514 56.457,170.956 C56.097,170.397 55.987,169.692 56.127,168.84 L56.143,168.722 Z M57.163,168.84 C57.06,169.48 57.091,169.996 57.258,170.384 C57.424,170.773 57.742,170.967 58.211,170.967 C58.648,170.967 59.021,170.764 59.328,170.357 C59.636,169.951 59.838,169.445 59.935,168.84 L59.951,168.722 C60.051,168.092 60.017,167.579 59.849,167.186 C59.681,166.792 59.366,166.595 58.904,166.595 C58.464,166.595 58.09,166.799 57.784,167.207 C57.478,167.615 57.276,168.12 57.18,168.722 L57.164,168.84 L57.163,168.84 Z M66.713,170.967 C67.021,170.967 67.316,170.857 67.597,170.639 C67.878,170.421 68.044,170.156 68.094,169.844 L69.023,169.844 L69.033,169.876 C68.963,170.399 68.683,170.85 68.196,171.227 C67.7391085,171.594406 67.1702909,171.794481 66.584,171.794 C65.825,171.794 65.272,171.514 64.924,170.956 C64.577,170.397 64.47,169.708 64.603,168.888 L64.64,168.663 C64.773,167.807 65.09,167.109 65.594,166.571 C66.097,166.031 66.747,165.762 67.546,165.762 C68.162,165.762 68.644,165.964 68.993,166.366 C69.343,166.769 69.463,167.263 69.356,167.846 L69.346,167.873 L68.406,167.873 C68.466,167.501 68.406,167.195 68.223,166.955 C68.04,166.715 67.771,166.595 67.417,166.595 C66.93,166.595 66.542,166.797 66.251,167.202 C65.961,167.606 65.771,168.093 65.682,168.662 L65.645,168.888 C65.548,169.504 65.573,170.004 65.72,170.389 C65.867,170.774 66.198,170.967 66.713,170.967 Z M73.105,171.681 C73.105,171.506 73.109,171.361 73.115,171.249 C73.123,171.136 73.135,171.021 73.153,170.902 C72.9134443,171.156238 72.6353774,171.3712 72.329,171.539 C72.019,171.709 71.709,171.794 71.397,171.794 C70.867,171.794 70.476,171.636 70.223,171.319 C69.971,171.002 69.9,170.579 70.011,170.049 C70.126,169.458 70.417,169.014 70.884,168.719 C71.351,168.424 71.95,168.276 72.681,168.276 L73.674,168.276 L73.787,167.701 C73.859,167.34 73.819,167.065 73.669,166.877 C73.519,166.689 73.268,166.595 72.917,166.595 C72.617,166.595 72.344,166.683 72.101,166.861 C71.857,167.038 71.712,167.245 71.666,167.481 L70.683,167.481 L70.672,167.449 C70.743,167.001 71.012,166.609 71.478,166.269 C71.943,165.931 72.498,165.762 73.143,165.762 C73.719,165.762 74.175,165.933 74.51,166.275 C74.844,166.617 74.95,167.096 74.83,167.712 L74.27,170.51 C74.224,170.729 74.192,170.931 74.174,171.117 C74.1560909,171.304573 74.1560909,171.493427 74.174,171.681 L73.105,171.681 Z M71.73,170.908 C72.02,170.908 72.315,170.824 72.616,170.655 C72.917,170.487 73.15,170.288 73.314,170.059 L73.529,168.99 L72.503,168.99 C72.149,168.99 71.83,169.1 71.547,169.318 C71.264,169.536 71.097,169.787 71.042,170.07 C70.985,170.346 71.012,170.554 71.123,170.696 C71.234,170.837 71.436,170.908 71.73,170.908 Z M72.88,164.924 L73.04,164.097 C73.298,164.083 73.485,164.05 73.6,163.997 C73.714,163.946 73.784,163.848 73.809,163.705 C73.837,163.569 73.785,163.466 73.653,163.396 C73.52,163.326 73.341,163.292 73.116,163.292 L73.271,162.712 C73.776,162.712 74.141,162.798 74.365,162.972 C74.588,163.146 74.666,163.397 74.598,163.727 C74.552,163.977 74.444,164.167 74.276,164.299 C74.108,164.429 73.914,164.511 73.696,164.543 L73.61,164.924 L72.88,164.924 Z M77.488,166.67 C77.724,166.376 77.992,166.152 78.291,165.996 C78.59,165.84 78.911,165.762 79.255,165.762 C79.803,165.762 80.209,165.948 80.475,166.321 C80.739,166.693 80.796,167.257 80.646,168.013 L79.91,171.681 L78.874,171.681 L79.604,168.034 C79.711,167.49 79.697,167.118 79.561,166.92 C79.425,166.721 79.16,166.622 78.766,166.622 C78.516,166.622 78.266,166.698 78.02,166.85 C77.7656269,167.009 77.5448139,167.216224 77.37,167.46 L76.526,171.681 L75.49,171.681 L76.65,165.87 L77.58,165.87 L77.488,166.67 Z M86.801,164.468 L86.517,165.87 L87.521,165.87 L87.365,166.654 L86.361,166.654 L85.657,170.183 C85.597,170.473 85.605,170.669 85.684,170.771 C85.763,170.873 85.89,170.924 86.065,170.924 C86.148,170.924 86.247,170.916 86.364,170.9 C86.48,170.884 86.572,170.867 86.64,170.849 L86.635,171.574 C86.4971119,171.650858 86.3474036,171.704252 86.192,171.732 C86,171.773 85.812,171.794 85.625,171.794 C85.249,171.794 84.96,171.661 84.758,171.397 C84.555,171.132 84.51,170.727 84.621,170.183 L85.324,166.653 L84.476,166.653 L84.631,165.87 L85.48,165.87 L85.765,164.468 L86.8,164.468 L86.801,164.468 Z M89.712,166.573 C89.952,166.312 90.218,166.111 90.51,165.972 C90.802,165.832 91.11,165.762 91.437,165.762 C91.981,165.762 92.385,165.952 92.65,166.332 C92.915,166.712 92.973,167.28 92.822,168.04 L92.092,171.681 L91.055,171.681 L91.785,168.029 C91.885,167.52 91.866,167.159 91.727,166.944 C91.587,166.729 91.326,166.622 90.942,166.622 C90.702,166.622 90.459,166.692 90.212,166.834 C89.965,166.975 89.742,167.164 89.546,167.4 L88.692,171.681 L87.655,171.681 L89.331,163.302 L90.368,163.302 L89.712,166.573 Z M96.851,171.681 C96.851,171.506 96.854,171.361 96.861,171.249 C96.868,171.136 96.881,171.021 96.899,170.902 C96.6591414,171.156322 96.3807317,171.371288 96.074,171.539 C95.764,171.709 95.454,171.794 95.143,171.794 C94.613,171.794 94.221,171.636 93.969,171.319 C93.717,171.002 93.646,170.579 93.757,170.049 C93.871,169.458 94.162,169.014 94.63,168.719 C95.097,168.424 95.696,168.276 96.426,168.276 L97.42,168.276 L97.533,167.701 C97.604,167.34 97.565,167.065 97.415,166.877 C97.265,166.689 97.014,166.595 96.663,166.595 C96.362,166.595 96.09,166.683 95.846,166.861 C95.603,167.038 95.458,167.245 95.411,167.481 L94.428,167.481 L94.418,167.449 C94.489,167.001 94.758,166.609 95.223,166.269 C95.689,165.931 96.243,165.762 96.888,165.762 C97.465,165.762 97.92,165.933 98.255,166.275 C98.59,166.617 98.696,167.096 98.575,167.712 L98.016,170.51 C97.97,170.729 97.937,170.931 97.919,171.117 C97.9010909,171.304573 97.9010909,171.493427 97.919,171.681 L96.851,171.681 Z M95.476,170.908 C95.766,170.908 96.061,170.824 96.362,170.655 C96.662,170.487 96.895,170.288 97.06,170.059 L97.275,168.99 L96.249,168.99 C95.895,168.99 95.576,169.1 95.293,169.318 C95.01,169.536 94.842,169.787 94.788,170.07 C94.731,170.346 94.758,170.554 94.868,170.696 C94.98,170.837 95.182,170.908 95.476,170.908 Z M96.834,163.42 L97.656,163.42 L98.827,164.806 L98.817,164.833 L97.78,164.833 L97.135,163.99 L96.142,164.833 L95.11,164.833 L95.1,164.801 L96.834,163.421 L96.834,163.42 Z M99.638,162.491 L100.702,162.491 L100.718,162.523 L99.434,163.888 L98.666,163.888 L99.638,162.491 Z M104.392,169.103 C104.212,169.998 103.911,170.671 103.487,171.12 C103.062,171.57 102.515,171.794 101.846,171.794 C101.534,171.794 101.254,171.734 101.006,171.617 C100.759481,171.501193 100.547231,171.323399 100.39,171.101 L99.826,173.916 L98.79,173.916 L100.396,165.87 L101.287,165.87 L101.25,166.444 C101.464,166.222 101.705,166.054 101.972,165.937 C102.239,165.82 102.526,165.762 102.834,165.762 C103.461,165.762 103.925,166.072 104.228,166.692 C104.53,167.311 104.592,168.077 104.413,168.99 L104.392,169.103 Z M103.376,168.99 C103.513,168.296 103.492,167.727 103.315,167.285 C103.137,166.843 102.815,166.622 102.345,166.622 C102.105,166.622 101.883,166.692 101.679,166.832 C101.475,166.971 101.291,167.162 101.126,167.406 L100.556,170.247 C100.65,170.473 100.789,170.649 100.976,170.777 C101.162,170.903 101.4,170.967 101.69,170.967 C102.116,170.967 102.47,170.799 102.753,170.465 C103.036,170.13 103.237,169.676 103.355,169.103 L103.376,168.99 Z M263.121,158.918 L261.438,158.918 L260.422,164 L259.668,164 L260.684,158.918 L259.004,158.918 L259.125,158.312 L263.242,158.312 L263.122,158.918 L263.121,158.918 Z M264.27,160.285 C264.433438,160.103397 264.630368,159.955021 264.85,159.848 C265.062,159.746 265.287,159.695 265.524,159.695 C265.92,159.695 266.214,159.833 266.407,160.109 C266.599,160.385 266.641,160.799 266.532,161.352 L266,164 L265.246,164 L265.778,161.344 C265.851,160.974 265.836,160.711 265.735,160.554 C265.633,160.398 265.443,160.32 265.165,160.32 C264.99,160.32 264.813,160.372 264.633,160.475 C264.453,160.577 264.292,160.715 264.149,160.887 L263.528,164 L262.774,164 L263.992,157.906 L264.746,157.906 L264.27,160.286 L264.27,160.285 Z M269.46,164 C269.46,163.872 269.463,163.768 269.468,163.686 C269.473,163.604 269.482,163.52 269.495,163.434 C269.321,163.618 269.121,163.773 268.895,163.896 C268.688864,164.014661 268.455827,164.078686 268.218,164.082 C267.833,164.082 267.548,163.967 267.365,163.736 C267.181,163.506 267.13,163.198 267.21,162.813 C267.294,162.383 267.505,162.061 267.845,161.846 C268.185,161.631 268.62,161.523 269.152,161.523 L269.874,161.523 L269.956,161.105 C270.008,160.842 269.98,160.643 269.87,160.505 C269.761,160.369 269.579,160.301 269.324,160.301 C269.110306,160.299194 268.901821,160.366934 268.73,160.494 C268.553,160.623 268.447,160.774 268.413,160.945 L267.699,160.945 L267.691,160.922 C267.743,160.596 267.938,160.311 268.277,160.064 C268.615,159.818 269.019,159.695 269.487,159.695 C269.907,159.695 270.238,159.82 270.482,160.068 C270.725,160.318 270.802,160.665 270.714,161.113 L270.308,163.148 C270.27631,163.293888 270.252938,163.441459 270.238,163.59 C270.224988,163.726357 270.224988,163.863643 270.238,164 L269.46,164 Z M268.46,163.437 C268.671,163.437 268.886,163.377 269.105,163.254 C269.324,163.132 269.493,162.987 269.613,162.82 L269.769,162.043 L269.023,162.043 C268.765,162.043 268.533,162.123 268.327,162.281 C268.122,162.441 267.999,162.622 267.96,162.828 C267.919,163.028 267.938,163.18 268.019,163.283 C268.099,163.386 268.247,163.438 268.46,163.438 L268.46,163.437 Z M272.648,160.355 C272.82,160.142 273.014,159.979 273.232,159.865 C273.449,159.752 273.682,159.695 273.932,159.695 C274.332,159.695 274.627,159.831 274.82,160.102 C275.012,160.372 275.054,160.782 274.945,161.332 L274.41,164 L273.657,164 L274.187,161.348 C274.266,160.952 274.256,160.682 274.157,160.538 C274.057,160.393 273.865,160.32 273.578,160.32 C273.396,160.32 273.215,160.376 273.035,160.486 C272.855,160.597 272.698,160.745 272.563,160.93 L271.95,164 L271.196,164 L272.039,159.773 L272.715,159.773 L272.649,160.355 L272.648,160.355 Z M276.972,160.285 C277.135438,160.103397 277.332368,159.955021 277.552,159.848 C277.764,159.746 277.989,159.695 278.226,159.695 C278.622,159.695 278.916,159.833 279.109,160.109 C279.301,160.385 279.343,160.799 279.234,161.352 L278.702,164 L277.949,164 L278.479,161.344 C278.553,160.974 278.539,160.711 278.437,160.554 C278.335,160.398 278.145,160.32 277.867,160.32 C277.692,160.32 277.515,160.372 277.335,160.475 C277.155,160.577 276.995,160.715 276.851,160.887 L276.23,164 L275.476,164 L276.695,157.906 L277.449,157.906 L276.972,160.286 L276.972,160.285 Z M283.702,158.754 L283.495,159.774 L284.225,159.774 L284.113,160.344 L283.383,160.344 L282.87,162.91 C282.826,163.121 282.833,163.264 282.89,163.338 C282.947,163.412 283.04,163.449 283.167,163.449 C283.227,163.449 283.299,163.443 283.384,163.432 C283.469,163.42 283.536,163.408 283.585,163.395 L283.581,163.922 C283.480777,163.977903 283.371962,164.016766 283.259,164.037 C283.119,164.067 282.982,164.082 282.847,164.082 C282.574,164.082 282.363,163.986 282.217,163.793 C282.069,163.6 282.036,163.306 282.117,162.91 L282.628,160.344 L282.011,160.344 L282.124,159.774 L282.741,159.774 L282.949,158.754 L283.702,158.754 Z M284.492,161.848 C284.596,161.197 284.835,160.675 285.208,160.283 C285.564541,159.898247 286.068556,159.684268 286.593,159.695 C287.119,159.695 287.513,159.899 287.775,160.307 C288.036,160.714 288.118,161.227 288.019,161.847 L288.007,161.934 C287.9,162.587 287.66,163.109 287.287,163.498 C286.913,163.888 286.451,164.082 285.902,164.082 C285.376,164.082 284.982,163.879 284.72,163.472 C284.458,163.066 284.378,162.553 284.48,161.934 L284.491,161.848 L284.492,161.848 Z M285.234,161.934 C285.158,162.4 285.181,162.774 285.302,163.057 C285.423,163.339 285.654,163.48 285.995,163.48 C286.313,163.48 286.584,163.333 286.808,163.037 C287.032,162.742 287.179,162.374 287.249,161.934 L287.261,161.848 C287.334,161.389 287.309,161.017 287.187,160.73 C287.064,160.444 286.835,160.3 286.499,160.3 C286.179,160.3 285.907,160.45 285.685,160.746 C285.462,161.043 285.315,161.41 285.245,161.848 L285.234,161.934 Z M290.933,164 C290.933,163.872 290.935,163.768 290.941,163.686 C290.946,163.604 290.955,163.52 290.968,163.434 C290.794,163.618 290.594,163.773 290.368,163.896 C290.161864,164.014661 289.928827,164.078686 289.691,164.082 C289.305,164.082 289.021,163.967 288.837,163.736 C288.654,163.506 288.602,163.198 288.683,162.813 C288.766,162.383 288.978,162.061 289.318,161.846 C289.658,161.631 290.093,161.523 290.624,161.523 L291.347,161.523 L291.429,161.105 C291.481,160.842 291.452,160.643 291.343,160.505 C291.233,160.369 291.051,160.301 290.796,160.301 C290.582306,160.299194 290.373821,160.366934 290.202,160.494 C290.025,160.623 289.92,160.774 289.886,160.945 L289.171,160.945 L289.163,160.922 C289.215,160.596 289.411,160.311 289.749,160.064 C290.088,159.818 290.491,159.695 290.96,159.695 C291.38,159.695 291.71,159.82 291.954,160.068 C292.198,160.318 292.275,160.665 292.187,161.113 L291.781,163.148 C291.74931,163.293888 291.725938,163.441459 291.711,163.59 C291.697988,163.726357 291.697988,163.863643 291.711,164 L290.933,164 Z M289.933,163.437 C290.143,163.437 290.359,163.377 290.577,163.254 C290.797,163.132 290.965,162.987 291.085,162.82 L291.241,162.043 L290.495,162.043 C290.238,162.043 290.005,162.123 289.8,162.281 C289.594,162.441 289.472,162.622 289.433,162.828 C289.391,163.028 289.411,163.18 289.491,163.283 C289.572,163.386 289.719,163.438 289.933,163.438 L289.933,163.437 Z M291.503,158.137 L292.378,158.137 L292.386,158.16 L291.234,159.176 L290.679,159.176 L291.503,158.136 L291.503,158.137 Z M294.12,160.355 C294.292,160.142 294.487,159.979 294.704,159.865 C294.922,159.752 295.156,159.695 295.406,159.695 C295.804,159.695 296.1,159.831 296.292,160.102 C296.485,160.372 296.527,160.782 296.417,161.332 L295.882,164 L295.128,164 L295.659,161.348 C295.738,160.952 295.727,160.682 295.629,160.538 C295.529,160.393 295.337,160.32 295.05,160.32 C294.868,160.32 294.687,160.376 294.507,160.486 C294.327,160.597 294.17,160.745 294.034,160.93 L293.421,164 L292.667,164 L293.511,159.773 L294.187,159.773 L294.12,160.355 Z M262.628,168.754 L262.421,169.774 L263.151,169.774 L263.038,170.344 L262.308,170.344 L261.796,172.91 C261.752,173.121 261.758,173.264 261.816,173.338 C261.873,173.412 261.966,173.449 262.093,173.449 C262.153,173.449 262.225,173.443 262.31,173.432 C262.394,173.42 262.462,173.408 262.511,173.395 L262.507,173.922 C262.406777,173.977903 262.297962,174.016766 262.185,174.037 C262.045,174.067 261.908,174.082 261.773,174.082 C261.499,174.082 261.289,173.986 261.142,173.793 C260.995,173.6 260.962,173.306 261.042,172.91 L261.554,170.344 L260.937,170.344 L261.05,169.774 L261.667,169.774 L261.874,168.754 L262.628,168.754 Z M263.418,171.848 C263.521,171.197 263.76,170.675 264.134,170.283 C264.490541,169.898247 264.994556,169.684268 265.519,169.695 C266.045,169.695 266.439,169.899 266.7,170.307 C266.962,170.714 267.044,171.227 266.945,171.847 L266.933,171.934 C266.826,172.587 266.586,173.109 266.213,173.498 C265.838,173.888 265.377,174.082 264.827,174.082 C264.301,174.082 263.907,173.879 263.646,173.472 C263.384,173.066 263.304,172.553 263.406,171.934 L263.417,171.848 L263.418,171.848 Z M264.159,171.934 C264.084,172.4 264.107,172.774 264.228,173.057 C264.348,173.339 264.58,173.48 264.921,173.48 C265.239,173.48 265.51,173.333 265.734,173.037 C265.958,172.742 266.104,172.374 266.175,171.934 L266.187,171.848 C266.26,171.389 266.235,171.017 266.113,170.73 C265.99,170.444 265.761,170.3 265.425,170.3 C265.105,170.3 264.833,170.45 264.611,170.746 C264.388,171.043 264.241,171.41 264.171,171.848 L264.159,171.934 Z M269.859,174 C269.859,173.872 269.861,173.768 269.866,173.686 C269.872,173.604 269.881,173.52 269.894,173.434 C269.719,173.618 269.519,173.773 269.294,173.896 C269.087569,174.014825 268.854167,174.078856 268.616,174.082 C268.231,174.082 267.946,173.967 267.763,173.736 C267.579,173.506 267.528,173.198 267.609,172.813 C267.692,172.383 267.904,172.061 268.243,171.846 C268.583,171.631 269.019,171.523 269.55,171.523 L270.273,171.523 L270.355,171.105 C270.407,170.842 270.378,170.643 270.269,170.505 C270.159,170.369 269.977,170.301 269.722,170.301 C269.508306,170.299194 269.299821,170.366934 269.128,170.494 C268.951,170.623 268.846,170.774 268.812,170.945 L268.097,170.945 L268.089,170.922 C268.141,170.596 268.337,170.311 268.675,170.064 C269.014,169.818 269.417,169.695 269.886,169.695 C270.306,169.695 270.636,169.82 270.88,170.068 C271.124,170.318 271.201,170.665 271.113,171.113 L270.706,173.148 C270.67431,173.293888 270.650938,173.441459 270.636,173.59 C270.622988,173.726357 270.622988,173.863643 270.636,174 L269.859,174 Z M268.859,173.437 C269.069,173.437 269.284,173.377 269.503,173.254 C269.722,173.132 269.891,172.987 270.011,172.82 L270.167,172.043 L269.421,172.043 C269.163,172.043 268.931,172.123 268.726,172.281 C268.52,172.441 268.398,172.622 268.359,172.828 C268.317,173.028 268.337,173.18 268.417,173.283 C268.498,173.386 268.645,173.438 268.859,173.438 L268.859,173.437 Z M270.249,169.164 L269.652,169.164 L268.886,168.125 L269.788,168.125 L270.249,169.165 L270.249,169.164 Z M273.046,170.355 C273.218,170.142 273.413,169.979 273.63,169.865 C273.848,169.752 274.081,169.695 274.331,169.695 C274.73,169.695 275.025,169.831 275.218,170.102 C275.411,170.372 275.452,170.782 275.343,171.332 L274.808,174 L274.054,174 L274.585,171.348 C274.663,170.952 274.653,170.682 274.554,170.538 C274.455,170.393 274.262,170.32 273.976,170.32 C273.794,170.32 273.613,170.376 273.433,170.486 C273.253,170.597 273.096,170.745 272.96,170.93 L272.347,174 L271.593,174 L272.437,169.773 L273.113,169.773 L273.046,170.355 Z M281.519,172.125 C281.389,172.776 281.169,173.265 280.861,173.592 C280.552,173.919 280.154,174.082 279.667,174.082 C279.441,174.082 279.237,174.039 279.056,173.953 C278.877117,173.868698 278.723117,173.739503 278.609,173.578 L278.199,175.625 L277.445,175.625 L278.613,169.773 L279.261,169.773 L279.234,170.191 C279.53097,169.870748 279.94927,169.690647 280.386,169.695 C280.842,169.695 281.18,169.921 281.4,170.371 C281.62,170.821 281.665,171.379 281.534,172.043 L281.519,172.125 Z M280.781,172.043 C280.88,171.538 280.865,171.124 280.736,170.803 C280.606,170.481 280.372,170.32 280.031,170.32 C279.857408,170.31966 279.687974,170.373111 279.546,170.473 C279.398,170.574 279.264,170.713 279.144,170.891 L278.73,172.957 C278.797,173.121 278.899,173.249 279.034,173.342 C279.18926,173.439825 279.370664,173.487967 279.554,173.48 C279.864,173.48 280.122,173.359 280.327,173.115 C280.533,172.872 280.679,172.542 280.765,172.125 L280.781,172.043 Z M283.546,170.285 C283.709438,170.103397 283.906368,169.955021 284.126,169.848 C284.338,169.746 284.563,169.695 284.8,169.695 C285.196,169.695 285.49,169.833 285.683,170.109 C285.876,170.385 285.917,170.799 285.808,171.352 L285.277,174 L284.523,174 L285.054,171.344 C285.127,170.974 285.113,170.711 285.011,170.554 C284.909,170.398 284.719,170.32 284.441,170.32 C284.266,170.32 284.089,170.372 283.909,170.475 C283.729,170.577 283.569,170.715 283.425,170.887 L282.804,174 L282.05,174 L283.269,167.906 L284.023,167.906 L283.546,170.286 L283.546,170.285 Z M288.74,174 C288.74,173.872 288.742,173.768 288.747,173.686 C288.753,173.604 288.762,173.52 288.775,173.434 C288.6,173.618 288.4,173.773 288.175,173.896 C287.968569,174.014825 287.735167,174.078856 287.497,174.082 C287.112,174.082 286.827,173.967 286.644,173.736 C286.46,173.506 286.409,173.198 286.49,172.813 C286.573,172.383 286.784,172.061 287.124,171.846 C287.464,171.631 287.9,171.523 288.431,171.523 L289.154,171.523 L289.236,171.105 C289.288,170.842 289.259,170.643 289.15,170.505 C289.04,170.369 288.858,170.301 288.603,170.301 C288.389306,170.299194 288.180821,170.366934 288.009,170.494 C287.832,170.623 287.727,170.774 287.693,170.945 L286.978,170.945 L286.97,170.922 C287.022,170.596 287.217,170.311 287.556,170.064 C287.895,169.818 288.298,169.695 288.766,169.695 C289.186,169.695 289.518,169.82 289.761,170.068 C290.005,170.318 290.082,170.665 289.993,171.113 L289.587,173.148 C289.55531,173.293888 289.531938,173.441459 289.517,173.59 C289.503988,173.726357 289.503988,173.863643 289.517,174 L288.74,174 Z M287.74,173.437 C287.95,173.437 288.165,173.377 288.384,173.254 C288.603,173.132 288.772,172.987 288.892,172.82 L289.048,172.043 L288.302,172.043 C288.044,172.043 287.812,172.123 287.607,172.281 C287.401,172.441 287.279,172.622 287.24,172.828 C287.198,173.028 287.217,173.18 287.298,173.283 C287.378,173.386 287.526,173.438 287.74,173.438 L287.74,173.437 Z M290.193,169.067 L290.185,169.086 L289.427,169.086 L288.954,168.473 L288.232,169.086 L287.486,169.086 L287.478,169.062 L288.74,168.059 L289.333,168.059 L290.193,169.066 L290.193,169.067 Z M287.868,168.398 L287.314,168.398 L286.767,167.383 L287.567,167.383 L287.868,168.398 Z M291.928,170.355 C292.099,170.142 292.294,169.979 292.511,169.865 C292.729,169.752 292.962,169.695 293.212,169.695 C293.611,169.695 293.906,169.831 294.099,170.102 C294.292,170.372 294.333,170.782 294.224,171.332 L293.689,174 L292.935,174 L293.466,171.348 C293.544,170.952 293.534,170.682 293.435,170.538 C293.335,170.393 293.143,170.32 292.857,170.32 C292.674,170.32 292.493,170.376 292.314,170.486 C292.134,170.597 291.977,170.745 291.841,170.93 L291.228,174 L290.474,174 L291.318,169.773 L291.993,169.773 L291.927,170.355 L291.928,170.355 Z M258.94,95.16 L257.046,95.16 L255.903,100.877 L255.055,100.877 L256.197,95.16 L254.307,95.16 L254.444,94.479 L259.076,94.479 L258.94,95.16 Z M260.232,96.698 C260.428,96.484 260.645,96.32 260.884,96.206 C261.123,96.092 261.376,96.035 261.642,96.035 C262.087,96.035 262.419,96.19 262.635,96.5 C262.852,96.811 262.899,97.277 262.776,97.898 L262.178,100.878 L261.33,100.878 L261.928,97.889 C262.01,97.473 261.994,97.177 261.879,97.001 C261.765,96.826 261.551,96.738 261.238,96.738 C261.042,96.738 260.842,96.796 260.64,96.911 C260.438,97.027 260.256,97.181 260.095,97.375 L259.397,100.877 L258.548,100.877 L259.92,94.022 L260.768,94.022 L260.232,96.698 Z M266.072,100.878 C266.072,100.734 266.075,100.616 266.081,100.524 C266.086872,100.428943 266.096882,100.334186 266.111,100.24 C265.915048,100.44794 265.6876,100.623756 265.437,100.761 C265.183,100.901 264.929,100.97 264.674,100.97 C264.241,100.97 263.921,100.84 263.714,100.58 C263.508,100.322 263.45,99.975 263.541,99.542 C263.634,99.058 263.872,98.696 264.255,98.454 C264.637,98.212 265.127,98.091 265.725,98.091 L266.538,98.091 L266.63,97.621 C266.689,97.325 266.656,97.101 266.533,96.947 C266.41,96.793 266.205,96.716 265.918,96.716 C265.672,96.716 265.449,96.788 265.25,96.933 C265.05,97.078 264.932,97.248 264.894,97.441 L264.09,97.441 L264.081,97.415 C264.14,97.048 264.359,96.727 264.741,96.45 C265.121,96.173 265.575,96.035 266.103,96.035 C266.574,96.035 266.947,96.175 267.221,96.455 C267.495,96.735 267.582,97.126 267.483,97.63 L267.025,99.92 C266.98931,100.083707 266.962934,100.249306 266.946,100.416 C266.931379,100.569319 266.931379,100.723681 266.946,100.877 L266.072,100.877 L266.072,100.878 Z M264.947,100.245 C265.184,100.245 265.426,100.175 265.672,100.038 C265.918,99.9 266.108,99.738 266.243,99.55 L266.419,98.676 L265.579,98.676 C265.289,98.676 265.029,98.766 264.797,98.944 C264.566,99.123 264.428,99.328 264.384,99.559 C264.337,99.785 264.359,99.955 264.45,100.071 C264.541,100.187 264.707,100.245 264.947,100.245 Z M269.657,96.777 C269.851,96.537 270.07,96.353 270.315,96.226 C270.559,96.098 270.822,96.035 271.104,96.035 C271.552,96.035 271.884,96.187 272.101,96.492 C272.318,96.796 272.365,97.258 272.241,97.876 L271.64,100.877 L270.792,100.877 L271.389,97.894 C271.477,97.448 271.465,97.144 271.354,96.982 C271.243,96.819 271.026,96.738 270.704,96.738 C270.499,96.738 270.295,96.8 270.093,96.925 C269.891,97.049 269.713,97.215 269.561,97.423 L268.871,100.877 L268.023,100.877 L268.973,96.123 L269.733,96.123 L269.658,96.777 L269.657,96.777 Z M274.523,96.698 C274.719,96.484 274.936,96.32 275.175,96.206 C275.414,96.092 275.667,96.035 275.933,96.035 C276.379,96.035 276.71,96.19 276.926,96.5 C277.143,96.811 277.19,97.277 277.067,97.898 L276.469,100.878 L275.621,100.878 L276.219,97.889 C276.301,97.473 276.285,97.177 276.171,97.001 C276.056,96.826 275.842,96.738 275.529,96.738 C275.333,96.738 275.133,96.796 274.931,96.911 C274.729,97.027 274.547,97.181 274.386,97.375 L273.688,100.877 L272.839,100.877 L274.211,94.022 L275.059,94.022 L274.523,96.698 Z M282.094,94.976 L281.861,96.123 L282.683,96.123 L282.556,96.764 L281.734,96.764 L281.158,99.651 C281.108,99.889 281.116,100.049 281.18,100.133 C281.245,100.216 281.349,100.258 281.492,100.258 C281.56,100.258 281.641,100.251 281.736,100.238 C281.831,100.225 281.906,100.211 281.962,100.196 L281.958,100.79 C281.84537,100.853091 281.723036,100.897023 281.596,100.92 C281.439,100.953 281.284,100.97 281.132,100.97 C280.824,100.97 280.588,100.861 280.422,100.645 C280.257,100.428 280.219,100.097 280.31,99.651 L280.886,96.764 L280.191,96.764 L280.319,96.123 L281.013,96.123 L281.246,94.976 L282.094,94.976 Z M282.982,98.456 C283.099,97.724 283.368,97.137 283.788,96.696 C284.208,96.256 284.728,96.035 285.346,96.035 C285.938,96.035 286.381,96.264 286.676,96.722 C286.97,97.181 287.062,97.759 286.95,98.456 L286.937,98.553 C286.817,99.288 286.547,99.875 286.127,100.313 C285.706,100.751 285.187,100.97 284.568,100.97 C283.977,100.97 283.534,100.741 283.239,100.284 C282.945,99.827 282.855,99.25 282.969,98.553 L282.982,98.456 Z M283.817,98.553 C283.732,99.077 283.757,99.498 283.894,99.816 C284.03,100.134 284.29,100.293 284.674,100.293 C285.031,100.293 285.336,100.127 285.588,99.794 C285.84,99.462 286.005,99.048 286.085,98.553 L286.098,98.456 C286.18,97.94 286.152,97.521 286.014,97.199 C285.877,96.877 285.619,96.716 285.241,96.716 C284.881,96.716 284.575,96.883 284.325,97.216 C284.075,97.551 283.909,97.964 283.83,98.456 L283.817,98.553 Z M290.229,100.877 C290.229,100.734 290.232,100.616 290.237,100.524 C290.243204,100.428928 290.253547,100.334172 290.268,100.24 C290.072048,100.44794 289.8446,100.623756 289.594,100.761 C289.34,100.901 289.086,100.97 288.831,100.97 C288.398,100.97 288.077,100.84 287.871,100.58 C287.664,100.322 287.607,99.975 287.697,99.542 C287.791,99.058 288.029,98.696 288.411,98.454 C288.794,98.212 289.284,98.091 289.881,98.091 L290.694,98.091 L290.787,97.621 C290.845,97.325 290.813,97.101 290.69,96.947 C290.567,96.793 290.362,96.716 290.075,96.716 C289.829,96.716 289.606,96.788 289.407,96.933 C289.207,97.078 289.089,97.248 289.051,97.441 L288.247,97.441 L288.237,97.415 C288.297,97.048 288.517,96.727 288.897,96.45 C289.277,96.173 289.732,96.035 290.259,96.035 C290.731,96.035 291.104,96.175 291.378,96.455 C291.652,96.735 291.738,97.126 291.639,97.63 L291.182,99.92 C291.14631,100.083707 291.119934,100.249306 291.103,100.416 C291.088379,100.569319 291.088379,100.723681 291.103,100.877 L290.229,100.877 Z M289.104,100.245 C289.341,100.245 289.583,100.175 289.829,100.038 C290.075,99.9 290.265,99.738 290.4,99.55 L290.576,98.676 L289.736,98.676 C289.446,98.676 289.186,98.766 288.954,98.944 C288.723,99.123 288.585,99.328 288.541,99.559 C288.494,99.785 288.516,99.955 288.607,100.071 C288.697,100.187 288.863,100.245 289.104,100.245 Z M290.87,94.281 L291.855,94.281 L291.863,94.308 L290.567,95.45 L289.943,95.45 L290.87,94.281 Z M293.815,96.777 C294.008,96.537 294.227,96.353 294.472,96.226 C294.716,96.098 294.979,96.035 295.26,96.035 C295.709,96.035 296.041,96.187 296.258,96.492 C296.475,96.796 296.522,97.258 296.398,97.876 L295.796,100.877 L294.948,100.877 L295.546,97.894 C295.634,97.448 295.622,97.144 295.511,96.982 C295.4,96.819 295.183,96.738 294.861,96.738 C294.655,96.738 294.451,96.8 294.25,96.925 C294.047,97.049 293.87,97.215 293.718,97.423 L293.028,100.877 L292.18,100.877 L293.129,96.123 L293.889,96.123 L293.815,96.777 Z M5.977,134.261 L5.977,126.441 L8.577,126.441 C9.443,126.441 10.12,126.619 10.607,126.975 C11.094,127.332 11.337,127.865 11.337,128.573 C11.337,128.928 11.235,129.245 11.031,129.524 C10.827,129.804 10.544,130.011 10.183,130.147 C10.648,130.251 11.006,130.475 11.257,130.818 C11.507,131.162 11.633,131.561 11.633,132.016 C11.633,132.75 11.393,133.308 10.913,133.689 C10.433,134.071 9.771,134.261 8.926,134.261 L5.977,134.261 Z M7.282,130.706 L7.282,133.219 L8.926,133.219 C9.377,133.219 9.724,133.116 9.968,132.91 C10.211,132.705 10.333,132.406 10.333,132.016 C10.333,131.601 10.231,131.279 10.027,131.049 C9.823,130.82 9.504,130.706 9.071,130.706 L7.282,130.706 Z M7.282,129.733 L8.722,129.733 C9.126,129.733 9.446,129.638 9.68,129.446 C9.915,129.255 10.032,128.983 10.032,128.632 C10.032,128.246 9.909,127.958 9.662,127.77 C9.415,127.582 9.052,127.488 8.577,127.488 L7.282,127.488 L7.282,129.733 Z M16.354,134.261 C16.3090613,134.119515 16.270687,133.976029 16.239,133.831 C16.209,133.691 16.188,133.552 16.177,133.413 C15.997,133.685 15.762,133.913 15.47,134.097 C15.1768788,134.281902 14.8365431,134.378099 14.49,134.374 C13.885,134.374 13.42,134.218 13.096,133.907 C12.772,133.595 12.61,133.167 12.61,132.623 C12.61,132.061 12.832,131.623 13.276,131.31 C13.72,130.997 14.346,130.84 15.151,130.84 L16.166,130.84 L16.166,130.33 C16.166,130.025 16.076,129.787 15.897,129.615 C15.718,129.443 15.462,129.357 15.129,129.357 C14.832,129.357 14.596,129.429 14.42,129.572 C14.2495684,129.704614 14.1520136,129.91011 14.157,130.126 L12.9,130.126 L12.895,130.093 C12.87,129.635 13.075,129.229 13.51,128.874 C13.945,128.52 14.512,128.342 15.21,128.342 C15.887,128.342 16.433,128.514 16.848,128.858 C17.264,129.202 17.471,129.696 17.471,130.34 L17.471,132.924 C17.471,133.164 17.487,133.394 17.52,133.614 C17.552,133.834 17.604,134.05 17.675,134.261 L16.354,134.261 Z M14.754,133.327 C15.083,133.327 15.379,133.244 15.642,133.08 C15.906,132.915 16.08,132.727 16.166,132.516 L16.166,131.656 L15.129,131.656 C14.749,131.656 14.453,131.75 14.238,131.938 C14.023,132.126 13.916,132.348 13.916,132.602 C13.916,132.824 13.988,133 14.133,133.131 C14.278,133.261 14.485,133.327 14.753,133.327 L14.754,133.327 Z M16.773,126.382 L16.783,126.414 C16.805,126.761 16.658,127.047 16.343,127.271 C16.028,127.495 15.607,127.606 15.081,127.606 C14.544,127.606 14.119,127.496 13.805,127.273 C13.492,127.051 13.348,126.765 13.373,126.414 L13.383,126.382 L14.356,126.382 C14.356,126.55 14.414,126.686 14.531,126.79 C14.647,126.894 14.831,126.946 15.081,126.946 C15.321,126.946 15.5,126.893 15.618,126.787 C15.7342926,126.68504 15.7991642,126.536605 15.795,126.382 L16.773,126.382 Z M15.328,125.179 L16.29,125.179 L16.3,125.206 L15.42,126.216 L14.71,126.216 L15.328,125.179 Z M20.463,127.037 L20.463,128.45 L21.505,128.45 L21.505,129.417 L20.463,129.417 L20.463,132.628 C20.463,132.868 20.515,133.039 20.619,133.141 C20.7302411,133.245866 20.8792869,133.301081 21.032,133.294 C21.1694299,133.29485 21.3059066,133.271144 21.435,133.224 L21.575,134.181 C21.464,134.241 21.331,134.289 21.177,134.323 C21.019995,134.35733 20.8597138,134.374431 20.699,134.374 C20.219,134.374 19.843,134.234 19.571,133.952 C19.299,133.672 19.163,133.23 19.163,132.628 L19.163,129.417 L18.277,129.417 L18.277,128.45 L19.163,128.45 L19.163,127.037 L20.463,127.037 Z M31.157,127.682 L30.233,127.682 L30.233,134.262 L29.137,134.262 L29.008,133.542 C28.8374762,133.799645 28.6072937,134.012332 28.337,134.162 C28.0552947,134.308205 27.7413063,134.381114 27.424,134.374 C26.711,134.374 26.156,134.114 25.759,133.595 C25.361,133.076 25.163,132.394 25.163,131.549 L25.163,131.436 C25.163,130.509 25.361,129.761 25.759,129.194 C26.156,128.626 26.715,128.342 27.435,128.342 C27.75,128.342 28.032,128.406 28.281,128.533 C28.529,128.66 28.745,128.842 28.928,129.078 L28.928,127.682 L27.638,127.682 L27.638,126.769 L28.928,126.769 L28.928,125.882 L30.233,125.882 L30.233,126.769 L31.157,126.769 L31.157,127.682 Z M26.467,131.549 C26.467,132.086 26.571,132.514 26.777,132.833 C26.983,133.151 27.309,133.311 27.757,133.311 C28.033,133.311 28.267,133.251 28.457,133.133 C28.6547591,133.008213 28.8167138,132.834198 28.927,132.628 L28.927,130.093 C28.8148598,129.888292 28.6524186,129.715526 28.455,129.591 C28.247605,129.467299 28.0094068,129.404889 27.768,129.411 C27.324,129.411 26.996,129.598 26.785,129.972 C26.573,130.347 26.468,130.835 26.468,131.436 L26.468,131.549 L26.467,131.549 Z M35.292,134.261 C35.2470613,134.119515 35.208687,133.976029 35.177,133.831 C35.147,133.691 35.126,133.552 35.115,133.413 C34.936,133.685 34.701,133.913 34.409,134.097 C34.1158788,134.281902 33.7755431,134.378099 33.429,134.374 C32.824,134.374 32.359,134.218 32.035,133.907 C31.711,133.595 31.549,133.167 31.549,132.623 C31.549,132.061 31.771,131.623 32.215,131.31 C32.659,130.997 33.284,130.84 34.089,130.84 L35.104,130.84 L35.104,130.33 C35.104,130.025 35.015,129.787 34.836,129.615 C34.656,129.443 34.401,129.357 34.068,129.357 C33.771,129.357 33.534,129.429 33.358,129.572 C33.1879438,129.704821 33.0907753,129.910284 33.096,130.126 L31.839,130.126 L31.833,130.093 C31.808,129.635 32.013,129.229 32.448,128.874 C32.884,128.52 33.45,128.342 34.148,128.342 C34.825,128.342 35.371,128.514 35.787,128.858 C36.202,129.202 36.41,129.696 36.41,130.34 L36.41,132.924 C36.41,133.164 36.426,133.394 36.458,133.614 C36.49,133.834 36.542,134.05 36.614,134.261 L35.292,134.261 Z M33.692,133.327 C34.022,133.327 34.318,133.244 34.581,133.08 C34.844,132.915 35.019,132.727 35.104,132.516 L35.104,131.656 L34.068,131.656 C33.688,131.656 33.391,131.75 33.176,131.938 C32.961,132.126 32.854,132.348 32.854,132.602 C32.854,132.824 32.927,133 33.072,133.131 C33.217,133.261 33.423,133.327 33.692,133.327 Z M36.168,127.483 L36.152,127.515 L34.922,127.515 L34.062,126.715 L33.208,127.515 L31.978,127.515 L31.962,127.483 L33.536,126.108 L34.594,126.108 L36.168,127.483 Z M32.387,126.575 L31.447,126.575 L30.33,125.141 L31.613,125.141 L32.387,126.575 Z M41.399,133.413 C41.2321314,133.704676 40.9940504,133.949294 40.707,134.124 C40.427,134.291 40.105,134.374 39.74,134.374 C39.117,134.374 38.63,134.175 38.279,133.778 C37.928,133.38 37.752,132.763 37.752,131.925 L37.752,128.45 L39.052,128.45 L39.052,131.936 C39.052,132.444 39.135,132.8 39.299,133.004 C39.464,133.209 39.713,133.311 40.046,133.311 C40.361,133.311 40.626,133.254 40.838,133.141 C41.051,133.029 41.218,132.865 41.34,132.65 L41.34,128.45 L42.646,128.45 L42.646,134.261 L41.506,134.261 L41.399,133.413 Z M210.475,183.728 L209.572,183.728 L209.572,187.111 L208.267,187.111 L208.267,179.291 L209.572,179.291 L209.572,182.605 L210.319,182.605 L212.773,179.291 L214.32,179.291 L211.474,183.024 L214.541,187.111 L212.945,187.111 L210.475,183.728 Z M217.532,187.224 C216.709,187.224 216.052,186.954 215.564,186.416 C215.075,185.876 214.831,185.185 214.831,184.34 L214.831,184.125 C214.831,183.28 215.073,182.579 215.558,182.022 C216.044,181.465 216.651,181.189 217.382,181.192 C218.166,181.192 218.767,181.43 219.184,181.904 C219.601,182.379 219.81,183.015 219.81,183.814 L219.81,184.582 L216.184,184.582 L216.174,184.608 C216.194,185.07 216.33,185.448 216.579,185.742 C216.828,186.035 217.172,186.182 217.613,186.182 C217.963,186.182 218.265,186.139 218.515,186.053 C218.765,185.967 219.008,185.843 219.24,185.683 L219.66,186.537 C219.44,186.73 219.15,186.893 218.79,187.025 C218.427,187.158 218.009,187.225 217.532,187.225 L217.532,187.224 Z M217.382,182.24 C217.071085,182.234621 216.776069,182.37712 216.587,182.624 C216.379,182.88 216.25,183.204 216.2,183.599 L216.211,183.625 L218.515,183.625 L218.515,183.491 C218.515,183.122 218.421,182.821 218.233,182.589 C218.045,182.356 217.761,182.239 217.382,182.239 L217.382,182.24 Z M216.775,178.888 L217.838,178.888 L219.412,180.263 L219.396,180.295 L218.166,180.295 L217.306,179.495 L216.447,180.295 L215.217,180.295 L215.201,180.263 L216.775,178.888 Z M219.755,177.921 L221.045,177.921 L219.922,179.355 L218.982,179.355 L219.756,177.921 L219.755,177.921 Z M222.485,179.887 L222.485,181.3 L223.526,181.3 L223.526,182.267 L222.484,182.267 L222.484,185.479 C222.484,185.719 222.536,185.889 222.64,185.991 C222.751323,186.096485 222.900802,186.152089 223.054,186.145 C223.19143,186.14585 223.327907,186.122144 223.457,186.075 L223.597,187.031 C223.485,187.091 223.353,187.139 223.199,187.173 C223.041995,187.20733 222.881714,187.224431 222.721,187.224 C222.241,187.224 221.865,187.084 221.593,186.802 C221.321,186.522 221.185,186.08 221.185,185.479 L221.185,182.267 L220.298,182.267 L220.298,181.3 L221.185,181.3 L221.185,179.887 L222.485,179.887 Z M229.048,179.887 L229.048,181.3 L230.09,181.3 L230.09,182.267 L229.048,182.267 L229.048,185.479 C229.048,185.719 229.1,185.889 229.204,185.991 C229.315078,186.09623 229.464143,186.151814 229.617,186.145 C229.75443,186.14585 229.890907,186.122144 230.02,186.075 L230.16,187.031 C230.049,187.091 229.916,187.139 229.762,187.173 C229.604995,187.20733 229.444714,187.224431 229.284,187.224 C228.804,187.224 228.428,187.084 228.156,186.802 C227.884,186.522 227.748,186.08 227.748,185.479 L227.748,182.267 L226.862,182.267 L226.862,181.3 L227.748,181.3 L227.748,179.887 L229.048,179.887 Z M232.539,182.052 C232.732,181.78 232.968,181.568 233.245,181.418 C233.523,181.268 233.83,181.192 234.167,181.192 C234.782,181.192 235.263,181.387 235.609,181.775 C235.954,182.164 236.127,182.763 236.127,183.572 L236.127,187.112 L234.822,187.112 L234.822,183.561 C234.822,183.103 234.731,182.771 234.548,182.567 C234.365,182.363 234.091,182.261 233.726,182.261 C233.255599,182.248836 232.810216,182.472465 232.539,182.857 L232.539,187.111 L231.234,187.111 L231.234,178.732 L232.539,178.732 L232.539,182.052 Z M241.101,186.262 C240.933987,186.554164 240.695541,186.799148 240.408,186.974 C240.128,187.141 239.806,187.224 239.441,187.224 C238.818,187.224 238.331,187.025 237.98,186.628 C237.63,186.23 237.454,185.613 237.454,184.775 L237.454,181.3 L238.754,181.3 L238.754,184.786 C238.754,185.294 238.836,185.65 239.001,185.854 C239.165,186.059 239.414,186.161 239.747,186.161 C240.062,186.161 240.327,186.104 240.539,185.991 C240.752,185.879 240.919,185.715 241.042,185.5 L241.042,181.3 L242.347,181.3 L242.347,187.111 L241.208,187.111 L241.101,186.263 L241.101,186.262 Z M240.29,179.152 L241.734,179.152 L241.745,179.184 L240.279,180.58 L239.264,180.58 L240.29,179.151 L240.29,179.152 Z M246.112,186.182 C246.431,186.182 246.699,186.088 246.918,185.9 C247.12918,185.727018 247.249639,185.466944 247.245,185.194 L248.427,185.194 L248.437,185.226 C248.455,185.77 248.234,186.239 247.774,186.633 C247.314,187.027 246.76,187.224 246.112,187.224 C245.256,187.224 244.6,186.948 244.143,186.397 C243.687,185.846 243.459,185.147 243.459,184.302 L243.459,184.114 C243.459,183.273 243.687,182.575 244.143,182.022 C244.6,181.469 245.256,181.192 246.112,181.192 C246.81,181.192 247.377,181.396 247.812,181.802 C248.247,182.208 248.457,182.725 248.442,183.352 L248.432,183.384 L247.245,183.384 C247.245,183.065 247.14,182.794 246.931,182.573 C246.721,182.351 246.448,182.24 246.111,182.24 C245.621,182.24 245.274,182.418 245.07,182.774 C244.866,183.13 244.764,183.577 244.764,184.114 L244.764,184.302 C244.764,184.85 244.866,185.3 245.07,185.653 C245.274,186.006 245.621,186.183 246.112,186.183 L246.112,186.182 Z" id="Shape" fill="#2A3052" fill-rule="nonzero"></path>
        </g>
    </g>
</svg>