<?xml version="1.0" encoding="UTF-8"?>
<svg width="299px" height="197px" viewBox="0 0 299 197" version="1.1" xmlns="http://www.w3.org/2000/svg" xmlns:xlink="http://www.w3.org/1999/xlink">
    <!-- Generator: Sketch 52.6 (67491) - http://www.bohemiancoding.com/sketch -->
    <title>reset call</title>
    <desc>Created with Sketch.</desc>
    <g id="Page-1" stroke="none" stroke-width="1" fill="none" fill-rule="evenodd">
        <g id="reset-call">
            <g id="Group">
                <polygon id="Path" fill="#F1F2F2" points="0 0 299 0 299 197 0 197"></polygon>
                <path d="M1.98671096,1.9798995 L1.98671096,195.020101 L297.013289,195.020101 L297.013289,1.9798995 L1.98671096,1.9798995 Z M299,0 L299,197 L0,197 L0,0 L299,0 Z" id="Path" fill="#C2C2C2" fill-rule="nonzero"></path>
                <g id="Group-14" transform="translate(2.881188, 33.681592)">
                    <path d="M5.11881188,22.6775148 L5.11881188,21.5254038 L288.118812,21.5254038 L288.118812,22.6775148 L5.11881188,22.6775148 Z M5.11881188,62.2795608 L5.11881188,61.1274498 L288.118812,61.1274498 L288.118812,62.2795608 L5.11881188,62.2795608 Z M5.11881188,101.881607 L5.11881188,100.729497 L288.118812,100.729497 L288.118812,101.881607 L5.11881188,101.881607 Z M5.11881188,141.447709 L5.11881188,140.295599 L288.118812,140.295599 L288.118812,141.447709 L5.11881188,141.447709 Z M38.7221083,2.31840796 L39.8742193,2.31840796 L39.8742193,158.318408 L38.7221083,158.318408 L38.7221083,2.31840796 Z M74.544802,2.31840796 L75.696913,2.31840796 L75.696913,158.318408 L74.544802,158.318408 L74.544802,2.31840796 Z M110.331537,2.31840796 L111.483647,2.31840796 L111.483647,158.318408 L110.331537,158.318408 L110.331537,2.31840796 Z" id="Shape" fill="#DFDEDE" fill-rule="nonzero"></path>
                    <path d="M145.042757,2.31840796 L146.194867,2.31840796 L146.194867,8.11408801 L145.042757,8.11408801 L145.042757,2.31840796 Z M145.042757,13.9097681 L146.194867,13.9097681 L146.194867,19.7054481 L145.042757,19.7054481 L145.042757,13.9097681 Z M145.042757,25.5011281 L146.194867,25.5011281 L146.194867,31.2968082 L145.042757,31.2968082 L145.042757,25.5011281 Z M145.042757,37.0924882 L146.194867,37.0924882 L146.194867,42.8881683 L145.042757,42.8881683 L145.042757,37.0924882 Z M145.042757,48.6838483 L146.194867,48.6838483 L146.194867,54.4795284 L145.042757,54.4795284 L145.042757,48.6838483 Z M145.042757,60.2752084 L146.194867,60.2752084 L146.194867,66.0708885 L145.042757,66.0708885 L145.042757,60.2752084 Z M145.042757,71.8665685 L146.194867,71.8665685 L146.194867,77.6622486 L145.042757,77.6622486 L145.042757,71.8665685 Z M145.042757,83.4579286 L146.194867,83.4579286 L146.194867,89.2536087 L145.042757,89.2536087 L145.042757,83.4579286 Z M145.042757,95.0492887 L146.194867,95.0492887 L146.194867,100.844969 L145.042757,100.844969 L145.042757,95.0492887 Z M145.042757,106.640649 L146.194867,106.640649 L146.194867,112.436329 L145.042757,112.436329 L145.042757,106.640649 Z M145.042757,118.232009 L146.194867,118.232009 L146.194867,124.027689 L145.042757,124.027689 L145.042757,118.232009 Z M145.042757,129.823369 L146.194867,129.823369 L146.194867,135.619049 L145.042757,135.619049 L145.042757,129.823369 Z M145.042757,141.414729 L146.194867,141.414729 L146.194867,147.210409 L145.042757,147.210409 L145.042757,141.414729 Z M145.042757,153.006089 L146.194867,153.006089 L146.194867,158.318408 L145.042757,158.318408 L145.042757,153.006089 Z" id="Path" fill="#E98024" fill-rule="nonzero"></path>
                    <path d="M181.937369,2.31840796 L183.089479,2.31840796 L183.089479,158.318408 L181.937369,158.318408 L181.937369,2.31840796 Z M217.724104,2.31840796 L218.876214,2.31840796 L218.876214,158.318408 L217.724104,158.318408 L217.724104,2.31840796 Z M5.11881188,82.062612 L5.11881188,80.910501 L288.118812,80.910501 L288.118812,82.062612 L5.11881188,82.062612 Z" id="Shape" fill="#DFDEDE" fill-rule="nonzero"></path>
                    <polygon id="Path" fill="#2A3052" fill-rule="nonzero" points="254.042757 2.31840796 255.194867 2.31840796 255.194867 158.318408 254.042757 158.318408"></polygon>
                    <polygon id="Path" fill="#E98024" fill-rule="nonzero" points="5.11881188 43.3944635 5.11881188 42.2423525 8.11881188 42.2423525 8.11881188 43.3944635"></polygon>
                    <path d="M14.1188119,43.3944635 L14.1188119,42.2423525 L19.8758543,42.2423525 L19.8758543,43.3944635 L14.1188119,43.3944635 Z M25.6328967,43.3944635 L25.6328967,42.2423525 L31.3899391,42.2423525 L31.3899391,43.3944635 L25.6328967,43.3944635 Z M37.1469815,43.3944635 L37.1469815,42.2423525 L42.9040239,42.2423525 L42.9040239,43.3944635 L37.1469815,43.3944635 Z M48.6610663,43.3944635 L48.6610663,42.2423525 L54.4181088,42.2423525 L54.4181088,43.3944635 L48.6610663,43.3944635 Z M60.1751512,43.3944635 L60.1751512,42.2423525 L65.9321936,42.2423525 L65.9321936,43.3944635 L60.1751512,43.3944635 Z M71.689236,43.3944635 L71.689236,42.2423525 L77.4462784,42.2423525 L77.4462784,43.3944635 L71.689236,43.3944635 Z M83.2033208,43.3944635 L83.2033208,42.2423525 L88.9603632,42.2423525 L88.9603632,43.3944635 L83.2033208,43.3944635 Z M94.7174056,43.3944635 L94.7174056,42.2423525 L100.474448,42.2423525 L100.474448,43.3944635 L94.7174056,43.3944635 Z M106.23149,43.3944635 L106.23149,42.2423525 L111.988533,42.2423525 L111.988533,43.3944635 L106.23149,43.3944635 Z M117.745575,43.3944635 L117.745575,42.2423525 L123.502618,42.2423525 L123.502618,43.3944635 L117.745575,43.3944635 Z M129.25966,43.3944635 L129.25966,42.2423525 L135.016702,42.2423525 L135.016702,43.3944635 L129.25966,43.3944635 Z M140.773745,43.3944635 L140.773745,42.2423525 L146.530787,42.2423525 L146.530787,43.3944635 L140.773745,43.3944635 Z M152.28783,43.3944635 L152.28783,42.2423525 L158.044872,42.2423525 L158.044872,43.3944635 L152.28783,43.3944635 Z M163.801915,43.3944635 L163.801915,42.2423525 L169.558957,42.2423525 L169.558957,43.3944635 L163.801915,43.3944635 Z M175.315999,43.3944635 L175.315999,42.2423525 L181.073042,42.2423525 L181.073042,43.3944635 L175.315999,43.3944635 Z M186.830084,43.3944635 L186.830084,42.2423525 L192.587127,42.2423525 L192.587127,43.3944635 L186.830084,43.3944635 Z M198.344169,43.3944635 L198.344169,42.2423525 L204.101211,42.2423525 L204.101211,43.3944635 L198.344169,43.3944635 Z M209.858254,43.3944635 L209.858254,42.2423525 L215.615296,42.2423525 L215.615296,43.3944635 L209.858254,43.3944635 Z M221.372339,43.3944635 L221.372339,42.2423525 L227.129381,42.2423525 L227.129381,43.3944635 L221.372339,43.3944635 Z M232.886423,43.3944635 L232.886423,42.2423525 L238.643466,42.2423525 L238.643466,43.3944635 L232.886423,43.3944635 Z M244.400508,43.3944635 L244.400508,42.2423525 L250.157551,42.2423525 L250.157551,43.3944635 L244.400508,43.3944635 Z M255.914593,43.3944635 L255.914593,42.2423525 L261.671635,42.2423525 L261.671635,43.3944635 L255.914593,43.3944635 Z M267.428678,43.3944635 L267.428678,42.2423525 L273.18572,42.2423525 L273.18572,43.3944635 L267.428678,43.3944635 Z M278.942763,43.3944635 L278.942763,42.2423525 L282.118812,42.2423525 L282.118812,43.3944635 L278.942763,43.3944635 Z" id="Path" fill="#E98024" fill-rule="nonzero"></path>
                    <polygon id="Path" fill="#E98024" fill-rule="nonzero" points="285.118812 43.3944635 285.118812 42.2423525 288.118812 42.2423525 288.118812 43.3944635"></polygon>
                    <polygon id="Path" fill="#2A3052" fill-rule="nonzero" points="5.11881188 122.394463 5.11881188 121.242353 288.118812 121.242353 288.118812 122.394463"></polygon>
                    <polygon id="Path" fill="#C2C2C2" fill-rule="nonzero" points="0.118811881 1.97051891 0.118811881 -0.333702995 293.118812 -0.333702995 293.118812 1.97051891"></polygon>
                    <path d="M79.0924063,82.015018 C78.5260868,82.1523051 77.9287146,81.9949458 77.5035239,81.5964757 L36.9370787,43.5793861 C36.2406597,42.9267328 36.2051806,41.8330937 36.8578338,41.1366748 C37.5104871,40.4402558 38.6041262,40.4047767 39.3005451,41.0574299 L79.1856276,78.4359763 L116.98034,69.2737843 C117.73434,69.0909997 118.51774,69.4331014 118.896153,70.1103973 L146.017109,118.652386 L180.340663,89.8762778 C180.676955,89.5943379 181.107912,89.450895 181.546089,89.4750552 L216.831322,91.420613 L252.227824,70.1224236 C253.045634,69.6303444 254.10751,69.8944018 254.599589,70.7122121 C255.091668,71.5300225 254.82761,72.5918977 254.0098,73.0839768 L218.157873,94.6561971 C217.861115,94.8347572 217.517553,94.9200332 217.171742,94.9009659 L182.037805,92.9637503 L146.637323,122.642731 C145.806576,123.33921 144.547131,123.107699 144.018376,122.161315 L116.519023,72.9420596 L79.0924063,82.015018 Z M217.362028,91.4498751 L216.375897,91.6946439 L216.831322,91.420613 L217.362028,91.4498751 Z" id="Path" fill="#2A3052" fill-rule="nonzero"></path>
                    <g id="Group" opacity="0.6" transform="translate(246.118812, 64.318408)" fill="#FFFFFF">
                        <circle id="Oval" cx="8.19555556" cy="8.6844444" r="7.83644444"></circle>
                    </g>
                    <path d="M254.118812,82.4476875 C249.07685,82.4476875 244.989533,78.3603698 244.989533,73.318408 C244.989533,68.2764462 249.07685,64.1891285 254.118812,64.1891285 C259.160774,64.1891285 263.248091,68.2764462 263.248091,73.318408 C263.248091,78.3603698 259.160774,82.4476875 254.118812,82.4476875 Z M254.118812,80.1891285 C257.913406,80.1891285 260.989533,77.1130022 260.989533,73.318408 C260.989533,69.5238138 257.913406,66.4476875 254.118812,66.4476875 C250.324218,66.4476875 247.248091,69.5238138 247.248091,73.318408 C247.248091,77.1130022 250.324218,80.1891285 254.118812,80.1891285 Z" id="Oval" fill="#E88024" fill-rule="nonzero"></path>
                    <g id="Group" opacity="0.6" transform="translate(30.118812, 33.318408)" fill="#FFFFFF">
                        <circle id="Oval" cx="8.11644444" cy="8.64355556" r="7.83644444"></circle>
                    </g>
                    <path d="M38.1188119,51.4476875 C33.0768501,51.4476875 28.9895324,47.3603698 28.9895324,42.318408 C28.9895324,37.2764462 33.0768501,33.1891285 38.1188119,33.1891285 C43.1607737,33.1891285 47.2480914,37.2764462 47.2480914,42.318408 C47.2480914,47.3603698 43.1607737,51.4476875 38.1188119,51.4476875 Z M38.1188119,49.1891285 C41.9134061,49.1891285 44.9895324,46.1130022 44.9895324,42.318408 C44.9895324,38.5238138 41.9134061,35.4476875 38.1188119,35.4476875 C34.3242177,35.4476875 31.2480914,38.5238138 31.2480914,42.318408 C31.2480914,46.1130022 34.3242177,49.1891285 38.1188119,49.1891285 Z" id="Oval" fill="#E88024" fill-rule="nonzero"></path>
                    <g id="Group" opacity="0.6" transform="translate(137.118812, 112.318408)" fill="#FFFFFF">
                        <circle id="Oval" cx="8.06044444" cy="8.2284444" r="7.83644444"></circle>
                    </g>
                    <path d="M145.118812,129.447687 C140.07685,129.447687 135.989533,125.36037 135.989533,120.318408 C135.989533,115.276446 140.07685,111.189129 145.118812,111.189129 C150.160774,111.189129 154.248091,115.276446 154.248091,120.318408 C154.248091,125.36037 150.160774,129.447687 145.118812,129.447687 Z M145.118812,127.189129 C148.913406,127.189129 151.989533,124.113002 151.989533,120.318408 C151.989533,116.523814 148.913406,113.447687 145.118812,113.447687 C141.324218,113.447687 138.248091,116.523814 138.248091,120.318408 C138.248091,124.113002 141.324218,127.189129 145.118812,127.189129 Z" id="Oval" fill="#E88024" fill-rule="nonzero"></path>
                    <path d="M254.450507,117.211361 L216.949657,117.211361 L211.617016,109.318408 L206.284376,117.214915 L168.787116,117.214915 C166.208883,117.214915 164.118812,119.283323 164.118812,121.834834 L164.118812,145.698489 C164.118812,148.249999 166.208883,150.318408 168.787116,150.318408 L254.450507,150.318408 C257.028741,150.318408 259.118812,148.249999 259.118812,145.698489 L259.118812,121.831279 C259.118812,119.279769 257.028741,117.211361 254.450507,117.211361 Z" id="Path" fill="#E88024"></path>
                </g>
            </g>
            <g id="Group-2" transform="translate(15.000000, 11.000000)" fill="#000000" fill-rule="nonzero">
                <path d="M1.383,11.618 L1.383,6.806 L0.263,6.806 L0.263,5.561 L1.383,5.561 L1.383,0.954 L4.84,0.954 C6.192,0.954 7.292,1.376 8.14,2.221 C8.987,3.066 9.41,4.152 9.41,5.481 L9.41,7.099 C9.41,8.432 8.987,9.519 8.14,10.359 C7.292,11.199 6.192,11.618 4.84,11.618 L1.383,11.618 Z M5.06,6.806 L3.163,6.806 L3.163,10.197 L4.789,10.197 C5.672,10.197 6.367,9.909 6.872,9.333 C7.378,8.757 7.63,8.012 7.63,7.099 L7.63,5.466 C7.63,4.562 7.378,3.823 6.872,3.246 C6.367,2.67 5.672,2.382 4.789,2.382 L3.163,2.382 L3.163,5.561 L5.06,5.561 L5.06,6.806 Z M15.782,11.618 C15.7206686,11.4251892 15.6682794,11.2296473 15.625,11.032 C15.583,10.842 15.555,10.652 15.541,10.461 C15.290646,10.8380961 14.96182,11.156689 14.577,11.395 C14.1773258,11.6468403 13.7133661,11.777763 13.241,11.772 C12.416,11.772 11.782,11.559 11.341,11.135 C10.898,10.71 10.677,10.126 10.677,9.385 C10.677,8.618 10.98,8.021 11.586,7.593 C12.191,7.166 13.043,6.953 14.142,6.953 L15.526,6.953 L15.526,6.257 C15.526,5.842 15.404,5.517 15.16,5.283 C14.916,5.048 14.566,4.931 14.112,4.931 C13.707,4.931 13.385,5.029 13.146,5.224 C12.9134977,5.4042471 12.7799889,5.68387384 12.786,5.978 L11.073,5.978 L11.065,5.934 C11.031,5.309 11.311,4.755 11.905,4.272 C12.497,3.788 13.27,3.547 14.222,3.547 C15.145,3.547 15.89,3.781 16.456,4.25 C17.023,4.719 17.306,5.392 17.306,6.271 L17.306,9.794 C17.306,10.121 17.328,10.435 17.372,10.735 C17.416,11.035 17.486,11.33 17.584,11.618 L15.782,11.618 Z M13.6,10.344 C14.049,10.344 14.453,10.231 14.812,10.007 C15.171,9.782 15.409,9.526 15.526,9.237 L15.526,8.066 L14.112,8.066 C13.595,8.066 13.19,8.194 12.897,8.45 C12.604,8.707 12.457,9.008 12.457,9.355 C12.457,9.658 12.556,9.898 12.754,10.076 C12.951,10.254 13.234,10.344 13.6,10.344 Z M16.412,0.178 L16.434,0.222 C16.454,0.822 16.251,1.31 15.826,1.686 C15.401,2.062 14.83,2.25 14.112,2.25 C13.39,2.25 12.816,2.062 12.392,1.686 C11.966,1.31 11.766,0.822 11.791,0.222 L11.813,0.178 L13.131,0.178 C13.131,0.461 13.211,0.693 13.369,0.873 C13.528,1.054 13.775,1.144 14.112,1.144 C14.44,1.144 14.684,1.054 14.845,0.874 C15.005,0.693 15.086,0.461 15.086,0.178 L16.412,0.178 Z M14.676,14.108 L12.699,14.108 L12.699,12.475 L14.676,12.475 L14.676,14.108 Z M21.386,1.767 L21.386,3.693 L22.806,3.693 L22.806,5.012 L21.386,5.012 L21.386,9.392 C21.386,9.719 21.456,9.952 21.598,10.091 C21.739,10.231 21.928,10.3 22.162,10.3 C22.3492573,10.2982054 22.5349906,10.2661242 22.712,10.205 L22.902,11.508 C22.7310927,11.5980373 22.5482687,11.6633557 22.359,11.702 C22.149,11.749 21.932,11.772 21.708,11.772 C21.053,11.772 20.541,11.58 20.169,11.197 C19.799,10.814 19.613,10.212 19.613,9.391 L19.613,5.011 L18.404,5.011 L18.404,3.693 L19.613,3.693 L19.613,1.768 L21.385,1.768 L21.386,1.767 Z" id="Shape"></path>
                <path d="M39.394,14.426 L37.415,14.426 L37.415,12.792 L39.393,12.792 L39.394,14.426 Z M29.601,10.005 L34.501,10.005 L34.501,11.425 L27.821,11.425 L27.821,0.763 L29.601,0.763 L29.601,10.006 L29.601,10.005 Z M40.478,11.425 C40.4163613,11.2325346 40.3636385,11.0373269 40.32,10.84 C40.279,10.65 40.25,10.459 40.236,10.268 C39.9859346,10.6449901 39.6574578,10.9635751 39.273,11.202 C38.8730392,11.4540261 38.4087053,11.5849564 37.936,11.579 C37.111,11.579 36.477,11.367 36.036,10.942 C35.594,10.517 35.373,9.934 35.373,9.192 C35.373,8.425 35.675,7.828 36.281,7.401 C36.886,6.974 37.738,6.761 38.837,6.761 L40.221,6.761 L40.221,6.064 C40.221,5.649 40.099,5.324 39.855,5.09 C39.611,4.856 39.262,4.739 38.808,4.739 C38.402,4.739 38.08,4.836 37.841,5.032 C37.6088733,5.2124543 37.4757509,5.49204844 37.482,5.786 L35.768,5.786 L35.761,5.742 C35.727,5.117 36.006,4.562 36.599,4.079 C37.193,3.596 37.965,3.354 38.918,3.354 C39.84,3.354 40.585,3.589 41.151,4.057 C41.718,4.527 42.001,5.2 42.001,6.079 L42.001,9.602 C42.001,9.929 42.023,10.242 42.067,10.543 C42.111,10.843 42.182,11.138 42.279,11.426 L40.478,11.426 L40.478,11.425 Z M38.295,10.151 C38.745,10.151 39.148,10.039 39.507,9.814 C39.866,9.59 40.104,9.334 40.221,9.045 L40.221,7.873 L38.808,7.873 C38.29,7.873 37.885,8.002 37.592,8.258 C37.299,8.514 37.152,8.816 37.152,9.162 C37.152,9.465 37.252,9.706 37.449,9.884 C37.647,10.062 37.929,10.151 38.295,10.151 Z M45.765,11.426 L43.985,11.426 L43.985,3.501 L45.765,3.501 L45.765,11.426 Z M45.765,1.56 L43.985,1.56 L43.985,-3.46389584e-14 L45.765,-3.46389584e-14 L45.765,1.56 Z M54.027,0.762 L57.097,8.965 L57.14,8.965 L60.216,0.762 L62.523,0.762 L62.523,11.426 L60.743,11.426 L60.743,7.793 L60.919,3.171 L60.876,3.164 L57.711,11.426 L56.518,11.426 L53.368,3.186 L53.324,3.193 L53.5,7.793 L53.5,11.426 L51.72,11.426 L51.72,0.762 L54.027,0.762 Z M69.569,10.268 C69.32,10.688 69.005,11.012 68.625,11.238 C68.244,11.466 67.805,11.579 67.306,11.579 C66.456,11.579 65.793,11.309 65.314,10.766 C64.836,10.224 64.596,9.382 64.596,8.24 L64.596,3.5 L66.369,3.5 L66.369,8.254 C66.369,8.948 66.481,9.434 66.706,9.712 C66.93,9.99 67.27,10.129 67.724,10.129 C68.154,10.129 68.514,10.052 68.804,9.899 C69.094,9.745 69.323,9.521 69.489,9.229 L69.489,3.501 L71.269,3.501 L71.269,11.426 L69.715,11.426 L69.568,10.268 L69.569,10.268 Z M77.897,11.426 C77.8356686,11.2331892 77.7832794,11.0376473 77.74,10.84 C77.698,10.65 77.67,10.459 77.655,10.268 C77.4049346,10.6449901 77.0764578,10.9635751 76.692,11.202 C76.2923258,11.4538403 75.8283661,11.584763 75.356,11.579 C74.53,11.579 73.896,11.367 73.455,10.942 C73.013,10.517 72.792,9.934 72.792,9.192 C72.792,8.425 73.095,7.828 73.7,7.401 C74.306,6.974 75.158,6.761 76.256,6.761 L77.641,6.761 L77.641,6.064 C77.641,5.649 77.519,5.324 77.274,5.09 C77.03,4.856 76.681,4.739 76.227,4.739 C75.822,4.739 75.5,4.836 75.26,5.032 C75.0278733,5.2124543 74.8947509,5.49204844 74.901,5.786 L73.188,5.786 L73.18,5.742 C73.146,5.117 73.426,4.562 74.019,4.079 C74.612,3.596 75.385,3.354 76.337,3.354 C77.26,3.354 78.004,3.589 78.571,4.057 C79.137,4.527 79.421,5.2 79.421,6.079 L79.421,9.602 C79.421,9.929 79.442,10.242 79.486,10.543 C79.53,10.843 79.601,11.138 79.699,11.426 L77.897,11.426 Z M75.714,10.151 C76.164,10.151 76.568,10.039 76.927,9.814 C77.285,9.59 77.523,9.334 77.641,9.045 L77.641,7.873 L76.227,7.873 C75.71,7.873 75.304,8.002 75.011,8.258 C74.718,8.514 74.571,8.816 74.571,9.162 C74.571,9.465 74.671,9.706 74.868,9.884 C75.066,10.062 75.348,10.151 75.714,10.151 Z" id="Shape"></path>
            </g>
            <path d="M67.665,164.087 C68.657,164.087 69.445,164.447 70.029,165.167 C70.613,165.889 70.799,166.777 70.589,167.831 L70.359,168.991 C70.122,170.167 69.665,171.065 68.989,171.686 C68.313,172.307 67.448,172.618 66.393,172.618 L63.721,172.618 L64.495,168.733 L63.569,168.733 L63.751,167.825 L64.676,167.825 L65.426,164.087 L67.665,164.087 Z M67.085,168.733 L65.625,168.733 L65.034,171.716 L66.574,171.716 C67.243,171.716 67.811,171.465 68.28,170.963 C68.749,170.461 69.065,169.803 69.23,168.991 L69.463,167.813 C69.631,166.973 69.532,166.293 69.165,165.774 C68.797,165.254 68.237,164.995 67.483,164.995 L66.376,164.995 L65.807,167.825 L67.267,167.825 L67.085,168.733 Z M74.538,172.618 C74.538,172.427 74.542,172.269 74.549,172.146 C74.557,172.023 74.571,171.897 74.59,171.768 C74.3286539,172.0454 74.0252751,172.279936 73.691,172.463 C73.3812415,172.640847 73.0311557,172.736544 72.674,172.741 C72.096,172.741 71.669,172.568 71.394,172.222 C71.119,171.877 71.042,171.415 71.163,170.837 C71.288,170.192 71.605,169.709 72.115,169.387 C72.625,169.064 73.278,168.903 74.075,168.903 L75.159,168.903 L75.282,168.276 C75.36,167.882 75.317,167.582 75.152,167.376 C74.989,167.172 74.715,167.069 74.332,167.069 C74.004,167.069 73.708,167.166 73.442,167.359 C73.176,167.553 73.018,167.779 72.967,168.036 L71.895,168.036 L71.883,168.001 C71.961,167.513 72.254,167.084 72.763,166.715 C73.27,166.345 73.876,166.161 74.579,166.161 C75.208,166.161 75.705,166.347 76.069,166.721 C76.435,167.094 76.551,167.616 76.419,168.288 L75.809,171.341 C75.759,171.579 75.723,171.8 75.704,172.003 C75.684,172.206 75.684,172.411 75.704,172.618 L74.538,172.618 Z M73.038,171.774 C73.354,171.774 73.676,171.682 74.004,171.499 C74.333,171.315 74.586,171.099 74.766,170.849 L75.001,169.682 L73.881,169.682 C73.495,169.682 73.147,169.802 72.838,170.04 C72.53,170.278 72.346,170.552 72.288,170.86 C72.225,171.161 72.254,171.389 72.376,171.543 C72.496,171.697 72.717,171.774 73.038,171.774 Z M76.553,163.548 L76.565,163.583 C76.506,164.052 76.308,164.425 75.97,164.702 C75.632,164.979 75.21,165.118 74.702,165.118 C74.217,165.118 73.846,164.973 73.588,164.684 C73.331,164.395 73.247,164.026 73.336,163.577 L73.348,163.547 L74.215,163.547 C74.172,163.813 74.197,164.024 74.289,164.18 C74.38,164.337 74.555,164.415 74.813,164.415 C75.0356033,164.421675 75.25027,164.332018 75.402,164.169 C75.556,164.005 75.655,163.798 75.698,163.548 L76.553,163.548 Z M73.155,174.593 L71.919,174.593 L72.153,173.421 L73.389,173.421 L73.155,174.593 Z M80.215,164.749 L79.905,166.279 L81.001,166.279 L80.831,167.134 L79.735,167.134 L78.967,170.984 C78.901,171.3 78.911,171.514 78.997,171.624 C79.083,171.736 79.221,171.792 79.413,171.792 C79.503,171.792 79.611,171.783 79.738,171.765 C79.865,171.748 79.965,171.729 80.04,171.71 L80.034,172.5 C79.92,172.571 79.759,172.629 79.55,172.674 C79.3469513,172.718139 79.1397905,172.740599 78.932,172.741 C78.522,172.741 78.207,172.597 77.986,172.307 C77.766,172.018 77.716,171.577 77.836,170.983 L78.604,167.133 L77.678,167.133 L77.848,166.278 L78.774,166.278 L79.084,164.748 L80.215,164.748 L80.215,164.749 Z M85.208,172.618 L84.077,172.618 L85.905,163.478 L87.035,163.478 L85.209,172.618 L85.208,172.618 Z M90.504,172.618 C90.504,172.427 90.508,172.269 90.516,172.146 C90.524,172.023 90.538,171.897 90.557,171.768 C90.295351,172.045483 89.9916295,172.280024 89.657,172.463 C89.3475365,172.640683 88.9978159,172.736374 88.641,172.741 C88.063,172.741 87.636,172.568 87.361,172.222 C87.086,171.877 87.008,171.415 87.129,170.837 C87.254,170.192 87.572,169.709 88.082,169.387 C88.592,169.064 89.245,168.903 90.042,168.903 L91.126,168.903 L91.249,168.276 C91.327,167.882 91.284,167.582 91.119,167.376 C90.956,167.172 90.682,167.069 90.299,167.069 C89.971,167.069 89.674,167.166 89.409,167.359 C89.143,167.553 88.985,167.779 88.934,168.036 L87.862,168.036 L87.85,168.001 C87.928,167.513 88.221,167.084 88.73,166.715 C89.237,166.345 89.842,166.161 90.545,166.161 C91.175,166.161 91.671,166.347 92.037,166.721 C92.402,167.094 92.518,167.616 92.385,168.288 L91.775,171.341 C91.725,171.579 91.69,171.8 91.67,172.003 C91.65,172.206 91.65,172.411 91.67,172.618 L90.505,172.618 L90.504,172.618 Z M89.004,171.774 C89.321,171.774 89.644,171.682 89.971,171.499 C90.299,171.315 90.553,171.099 90.733,170.849 L90.967,169.682 L89.848,169.682 C89.461,169.682 89.114,169.802 88.805,170.04 C88.497,170.278 88.313,170.552 88.255,170.86 C88.192,171.161 88.221,171.389 88.342,171.543 C88.463,171.697 88.684,171.774 89.004,171.774 Z M89.122,174.593 L87.885,174.593 L88.12,173.421 L89.356,173.421 L89.122,174.593 Z M94.325,172.618 L93.194,172.618 L94.46,166.278 L95.59,166.278 L94.325,172.618 Z M95.919,164.655 L94.788,164.655 L95.022,163.477 L96.152,163.477 L95.919,164.655 Z M101.93,164.749 L101.62,166.279 L102.715,166.279 L102.545,167.134 L101.45,167.134 L100.682,170.984 C100.616,171.3 100.626,171.514 100.712,171.624 C100.797,171.736 100.936,171.792 101.127,171.792 C101.217,171.792 101.326,171.783 101.453,171.765 C101.58,171.748 101.68,171.729 101.754,171.71 L101.749,172.5 C101.635,172.571 101.474,172.629 101.265,172.674 C101.061951,172.718139 100.854791,172.740599 100.647,172.741 C100.237,172.741 99.921,172.597 99.701,172.307 C99.48,172.018 99.431,171.577 99.551,170.983 L100.319,167.133 L99.393,167.133 L99.563,166.278 L100.489,166.278 L100.799,164.748 L101.93,164.748 L101.93,164.749 Z M105.106,167.046 C105.351021,166.773057 105.646425,166.549976 105.976,166.389 C106.2911,166.237621 106.636426,166.159666 106.986,166.161 C107.581,166.161 108.022,166.368 108.311,166.782 C108.601,167.196 108.663,167.817 108.499,168.645 L107.702,172.618 L106.571,172.618 L107.368,168.634 C107.478,168.079 107.456,167.684 107.303,167.45 C107.151,167.216 106.866,167.098 106.448,167.098 C106.186,167.098 105.92,167.176 105.651,167.33 C105.381,167.484 105.139,167.69 104.924,167.948 L103.993,172.618 L102.862,172.618 L104.69,163.478 L105.82,163.478 L105.106,167.046 Z M109.653,169.389 C109.809,168.413 110.168,167.631 110.728,167.043 C111.288,166.455 111.981,166.161 112.805,166.161 C113.169,166.161 113.494,166.231 113.781,166.371 C114.068,166.513 114.307,166.71 114.499,166.964 C114.822697,166.909392 115.114764,166.737001 115.319,166.48 C115.542,166.213 115.698,165.87 115.788,165.452 L116.76,165.452 L116.772,165.482 C116.659,166.087 116.44,166.567 116.116,166.922 C115.792,167.278 115.364,167.507 114.833,167.608 C114.919,167.862 114.971,168.139 114.991,168.44 C115.011,168.741 114.995,169.057 114.944,169.39 L114.926,169.518 C114.766,170.498 114.406,171.281 113.846,171.865 C113.285,172.449 112.592,172.741 111.768,172.741 C110.979,172.741 110.388,172.436 109.996,171.827 C109.603,171.217 109.483,170.448 109.636,169.518 L109.653,169.389 Z M110.766,169.519 C110.653,170.218 110.687,170.779 110.869,171.203 C111.05,171.627 111.397,171.839 111.909,171.839 C112.385,171.839 112.792,171.617 113.128,171.174 C113.463,170.73 113.684,170.179 113.79,169.518 L113.807,169.389 C113.917,168.702 113.879,168.143 113.696,167.714 C113.512,167.284 113.169,167.069 112.665,167.069 C112.185,167.069 111.777,167.292 111.443,167.737 C111.109,168.182 110.889,168.733 110.783,169.389 L110.766,169.519 Z M113.614,165.364 L112.717,165.364 L111.569,163.805 L112.922,163.805 L113.614,165.365 L113.614,165.364 Z M116.983,172.618 L115.853,172.618 L117.118,166.278 L118.248,166.278 L116.983,172.618 Z M118.577,164.655 L117.446,164.655 L117.68,163.477 L118.811,163.477 L118.577,164.655 Z M121.917,169.448 C122.131,168.362 122.48,167.543 122.962,166.99 C123.445,166.437 124.059,166.161 124.805,166.161 C125.153,166.161 125.463,166.237 125.737,166.389 C126.01,166.542 126.231,166.759 126.399,167.039 L126.645,166.279 L127.606,166.279 L126.358,172.536 C126.182,173.411 125.83,174.07 125.3,174.514 C124.771,174.957 124.085,175.179 123.24,175.179 C122.975,175.179 122.68,175.136 122.353,175.049 C122.066265,174.97964 121.792472,174.864856 121.542,174.709 L122.004,173.813 C122.164,173.931 122.376,174.025 122.637,174.097 C122.899,174.17 123.161,174.206 123.422,174.206 C123.895,174.206 124.287,174.058 124.597,173.764 C124.907,173.469 125.116,173.059 125.221,172.536 L125.309,172.102 C125.086,172.313 124.84,172.472 124.571,172.58 C124.294951,172.688602 124.000635,172.743256 123.704,172.741 C123.024,172.741 122.507,172.435 122.154,171.824 C121.8,171.213 121.714,170.462 121.894,169.571 L121.917,169.448 Z M123.024,169.571 C122.887,170.239 122.917,170.778 123.112,171.188 C123.307,171.598 123.662,171.804 124.178,171.804 C124.456,171.804 124.707,171.724 124.931,171.566 C125.156,171.408 125.361,171.182 125.549,170.889 L126.141,167.936 C126.044084,167.693483 125.881717,167.482648 125.672,167.327 C125.465,167.175 125.21,167.098 124.905,167.098 C124.436,167.098 124.045,167.312 123.73,167.74 C123.416,168.168 123.188,168.737 123.047,169.448 L123.024,169.571 Z M129.147,172.618 L128.017,172.618 L129.282,166.278 L130.412,166.278 L129.147,172.618 Z M130.741,164.655 L129.61,164.655 L129.844,163.477 L130.975,163.477 L130.741,164.655 Z M134.444,172.618 C134.444,172.427 134.448,172.269 134.456,172.146 C134.463,172.023 134.477,171.897 134.496,171.768 C134.234654,172.0454 133.931275,172.279936 133.597,172.463 C133.287536,172.640683 132.937816,172.736374 132.581,172.741 C132.002,172.741 131.576,172.568 131.301,172.222 C131.025,171.877 130.948,171.415 131.069,170.837 C131.194,170.192 131.511,169.709 132.021,169.387 C132.531,169.064 133.184,168.903 133.981,168.903 L135.065,168.903 L135.188,168.276 C135.266,167.882 135.223,167.582 135.059,167.376 C134.895,167.172 134.622,167.069 134.239,167.069 C133.911,167.069 133.614,167.166 133.349,167.359 C133.083,167.553 132.924,167.779 132.874,168.036 L131.801,168.036 L131.79,168.001 C131.868,167.513 132.16,167.084 132.669,166.715 C133.176,166.345 133.782,166.161 134.485,166.161 C135.114,166.161 135.611,166.347 135.976,166.721 C136.341,167.094 136.458,167.616 136.325,168.288 L135.715,171.341 C135.665,171.579 135.629,171.8 135.61,172.003 C135.59,172.206 135.59,172.411 135.61,172.618 L134.444,172.618 Z M132.944,171.774 C133.26,171.774 133.583,171.682 133.911,171.499 C134.239,171.315 134.493,171.099 134.672,170.849 L134.907,169.682 L133.787,169.682 C133.401,169.682 133.053,169.802 132.745,170.04 C132.436,170.278 132.252,170.552 132.194,170.86 C132.131,171.161 132.161,171.389 132.282,171.543 C132.402,171.697 132.624,171.774 132.944,171.774 Z M139.225,167.151 C139.483,166.831 139.775,166.586 140.101,166.416 C140.427,166.246 140.778,166.161 141.153,166.161 C141.751,166.161 142.193,166.364 142.483,166.771 C142.772,167.177 142.835,167.791 142.67,168.616 L141.868,172.618 L140.737,172.618 L141.534,168.639 C141.651,168.046 141.635,167.64 141.487,167.424 C141.338,167.207 141.049,167.098 140.62,167.098 C140.330221,167.102983 140.04773,167.189637 139.805,167.348 C139.527591,167.521349 139.286742,167.747251 139.096,168.013 L138.176,172.618 L137.046,172.618 L138.311,166.278 L139.325,166.278 L139.225,167.151 Z" id="Shape" fill="#6D6E70" fill-rule="nonzero"></path>
            <path d="M19,60.046 L19,49.382 L22.479,49.382 C23.592,49.382 24.464,49.622 25.094,50.103 C25.724,50.584 26.039,51.305 26.039,52.267 C26.039,52.741 25.887,53.165 25.584,53.538 C25.282,53.912 24.884,54.188 24.391,54.369 C25.035,54.506 25.541,54.821 25.911,55.314 C26.279,55.807 26.463,56.381 26.463,57.035 C26.463,58.012 26.147,58.758 25.515,59.273 C24.883,59.788 24.025,60.046 22.94,60.046 L19,60.046 Z M20.443,55.043 L20.443,58.918 L22.94,58.918 C23.595,58.918 24.105,58.755 24.471,58.431 C24.837,58.106 25.021,57.646 25.021,57.051 C25.021,56.425 24.868,55.934 24.563,55.578 C24.258,55.222 23.788,55.043 23.153,55.043 L20.443,55.043 Z M20.443,53.915 L22.779,53.915 C23.316,53.915 23.753,53.768 24.09,53.472 C24.427,53.177 24.596,52.765 24.596,52.238 C24.596,51.662 24.414,51.231 24.05,50.945 C23.686,50.66 23.163,50.517 22.479,50.517 L20.443,50.517 L20.443,53.915 Z M33.187,60.045 C33.138,59.806 33.1,59.595 33.074,59.412 C33.0470024,59.228787 33.0309738,59.0441247 33.026,58.859 C32.757,59.24 32.407,59.559 31.975,59.815 C31.5539388,60.0684461 31.0714518,60.2016056 30.58,60.2 C29.754,60.2 29.126,59.988 28.694,59.566 C28.261,59.144 28.045,58.561 28.045,57.819 C28.045,57.062 28.352,56.47 28.965,56.043 C29.577,55.616 30.409,55.403 31.459,55.403 L33.026,55.403 L33.026,54.618 C33.026,54.155 32.884,53.788 32.601,53.516 C32.318,53.246 31.918,53.11 31.4,53.11 C30.936,53.11 30.559,53.228 30.268,53.465 C29.978,53.702 29.833,53.986 29.833,54.318 L28.455,54.318 L28.44,54.274 C28.41,53.698 28.683,53.171 29.257,52.692 C29.83,52.214 30.571,51.974 31.479,51.974 C32.378,51.974 33.101,52.203 33.647,52.659 C34.194,53.116 34.467,53.774 34.467,54.633 L34.467,58.449 C34.467,58.732 34.482,59.006 34.512,59.269 C34.541,59.533 34.595,59.792 34.672,60.046 L33.186,60.046 L33.187,60.045 Z M30.792,58.991 C31.314,58.991 31.786,58.857 32.206,58.588 C32.626,58.32 32.899,58.012 33.026,57.665 L33.026,56.376 L31.407,56.376 C30.827,56.376 30.361,56.523 30.012,56.816 C29.662,57.109 29.488,57.453 29.488,57.848 C29.488,58.2 29.598,58.478 29.818,58.683 C30.038,58.889 30.362,58.991 30.792,58.991 Z M33.458,49.25 L33.473,49.294 C33.502,49.728 33.316,50.084 32.916,50.364 C32.516,50.641 31.976,50.781 31.297,50.781 C30.614,50.781 30.072,50.641 29.671,50.363 C29.271,50.085 29.088,49.728 29.122,49.293 L29.137,49.25 L30.243,49.25 C30.243,49.499 30.327,49.7 30.495,49.854 C30.664,50.008 30.931,50.084 31.297,50.084 C31.654,50.084 31.917,50.008 32.088,49.854 C32.2590241,49.7007592 32.3531739,49.4794889 32.345,49.25 L33.458,49.25 Z M31.664,47.646 L32.799,47.646 L32.814,47.682 L31.649,49.089 L30.873,49.089 L31.663,47.646 L31.664,47.646 Z M38.468,50.209 L38.468,52.121 L39.969,52.121 L39.969,53.191 L38.468,53.191 L38.468,58.002 C38.468,58.373 38.545,58.635 38.698,58.786 C38.852,58.937 39.056,59.013 39.31,59.013 C39.4951082,59.0087688 39.6782437,58.9739663 39.852,58.91 L40.042,59.9 C39.935,59.987 39.778,60.06 39.57,60.115 C39.3660185,60.1709314 39.1555102,60.1995148 38.944,60.2 C38.358,60.2 37.892,60.023 37.544,59.669 C37.198,59.315 37.024,58.759 37.024,58.002 L37.024,53.19 L35.765,53.19 L35.765,52.12 L37.025,52.12 L37.025,50.21 L38.468,50.21 L38.468,50.209 Z M53.292,51.029 L51.849,51.029 L51.849,60.046 L50.669,60.046 L50.501,59.072 C50.2592289,59.4279996 49.9318703,59.7175331 49.549,59.914 C49.173,60.104 48.736,60.2 48.239,60.2 C47.272,60.2 46.515,59.85 45.968,59.149 C45.421,58.448 45.148,57.526 45.148,56.384 L45.148,56.23 C45.148,54.955 45.42,53.928 45.964,53.146 C46.509,52.366 47.272,51.974 48.253,51.974 C48.717,51.974 49.128,52.06 49.487,52.231 C49.846,52.401 50.152,52.651 50.407,52.978 L50.407,51.03 L48.597,51.03 L48.597,49.894 L50.407,49.894 L50.407,48.62 L51.849,48.62 L51.849,49.894 L53.292,49.894 L53.292,51.03 L53.292,51.029 Z M46.59,56.384 C46.59,57.184 46.754,57.825 47.081,58.306 C47.408,58.787 47.916,59.028 48.605,59.028 C49.035,59.028 49.395,58.93 49.689,58.735 C49.981,58.539 50.221,58.266 50.406,57.915 L50.406,54.215 C50.2322588,53.9005352 49.9848572,53.6328884 49.685,53.435 C49.389,53.243 49.035,53.146 48.619,53.146 C47.926,53.146 47.414,53.432 47.085,54.003 C46.755,54.575 46.59,55.317 46.59,56.23 L46.59,56.384 Z M59.093,60.046 C59.044,59.806 59.006,59.596 58.979,59.412 C58.9523371,59.2287668 58.9366425,59.0441047 58.932,58.859 C58.663,59.24 58.312,59.559 57.881,59.815 C57.4596482,60.0686225 56.9767911,60.2017886 56.485,60.2 C55.66,60.2 55.032,59.988 54.599,59.566 C54.167,59.144 53.951,58.561 53.951,57.819 C53.951,57.062 54.258,56.47 54.871,56.043 C55.483,55.616 56.314,55.403 57.364,55.403 L58.932,55.403 L58.932,54.618 C58.932,54.155 58.79,53.788 58.507,53.516 C58.224,53.246 57.823,53.11 57.306,53.11 C56.842,53.11 56.465,53.228 56.174,53.465 C55.884,53.702 55.738,53.986 55.738,54.318 L54.361,54.318 L54.347,54.274 C54.317,53.698 54.59,53.171 55.163,52.692 C55.737,52.214 56.478,51.974 57.386,51.974 C58.285,51.974 59.007,52.203 59.554,52.659 C60.101,53.116 60.374,53.774 60.374,54.633 L60.374,58.449 C60.374,58.732 60.389,59.006 60.418,59.269 C60.448,59.533 60.501,59.792 60.58,60.046 L59.093,60.046 Z M56.698,58.991 C57.22,58.991 57.691,58.857 58.111,58.588 C58.531,58.32 58.805,58.012 58.931,57.665 L58.931,56.376 L57.313,56.376 C56.732,56.376 56.267,56.523 55.918,56.816 C55.568,57.109 55.394,57.453 55.394,57.848 C55.394,58.2 55.504,58.478 55.724,58.683 C55.944,58.889 56.268,58.991 56.698,58.991 Z M59.935,50.788 L59.92,50.832 L58.463,50.832 L57.24,49.682 L56.017,50.832 L54.567,50.832 L54.552,50.788 L56.662,48.906 L57.818,48.906 L59.935,50.788 Z M55.057,49.543 L53.98,49.543 L52.495,47.638 L54.033,47.638 L55.058,49.542 L55.057,49.543 Z M67.501,58.873 C67.2715728,59.2780451 66.9407437,59.6164558 66.541,59.855 C66.151,60.085 65.699,60.2 65.187,60.2 C64.322,60.2 63.648,59.924 63.165,59.372 C62.682,58.82 62.44,57.961 62.44,56.794 L62.44,52.121 L63.883,52.121 L63.883,56.808 C63.883,57.653 64.007,58.234 64.256,58.552 C64.506,58.869 64.894,59.028 65.421,59.028 C65.934,59.028 66.357,58.924 66.691,58.716 C67.026,58.509 67.279,58.215 67.45,57.834 L67.45,52.121 L68.893,52.121 L68.893,60.046 L67.595,60.046 L67.5,58.874 L67.501,58.873 Z M263.537,88.614 L262.79,88.614 L262.79,91.501 L261.925,91.501 L261.925,85.103 L262.79,85.103 L262.79,87.933 L263.458,87.933 L265.748,85.103 L266.706,85.103 L266.719,85.125 L264.236,88.197 L266.899,91.479 L266.886,91.501 L265.853,91.501 L263.537,88.614 Z M269.408,91.594 C268.746,91.594 268.22,91.374 267.828,90.932 C267.438,90.492 267.242,89.919 267.242,89.216 L267.242,89.023 C267.242,88.346 267.443,87.783 267.846,87.333 C268.249,86.883 268.726,86.659 269.276,86.659 C269.918,86.659 270.403,86.852 270.731,87.239 C271.059,87.625 271.223,88.141 271.223,88.786 L271.223,89.326 L268.138,89.326 L268.125,89.348 C268.134,89.805 268.25,90.181 268.472,90.475 C268.695,90.77 269.007,90.917 269.408,90.917 C269.701,90.917 269.958,90.875 270.18,90.792 C270.4,90.708 270.592,90.593 270.753,90.447 L271.092,91.009 C270.922,91.176 270.697,91.315 270.419,91.427 C270.141,91.538 269.804,91.594 269.409,91.594 L269.408,91.594 Z M269.277,87.34 C268.987,87.34 268.739,87.462 268.534,87.707 C268.329,87.951 268.203,88.258 268.156,88.627 L268.165,88.649 L270.358,88.649 L270.358,88.535 C270.358,88.195 270.267,87.911 270.085,87.682 C269.904,87.454 269.634,87.34 269.277,87.34 Z M268.885,84.738 L269.58,84.738 L270.845,85.868 L270.837,85.894 L269.967,85.894 L269.233,85.204 L268.499,85.894 L267.624,85.894 L267.615,85.868 L268.885,84.738 Z M271.157,83.978 L272.085,83.978 L271.188,85.12 L270.542,85.12 L271.157,83.978 Z M273.337,85.599 L273.337,86.746 L274.238,86.746 L274.238,87.388 L273.338,87.388 L273.338,90.275 C273.338,90.498 273.383,90.655 273.476,90.745 C273.574607,90.8386831 273.707125,90.8881515 273.843,90.882 C273.954009,90.8793752 274.063821,90.8584264 274.168,90.82 L274.282,91.413 C274.197593,91.4753043 274.101258,91.5195568 273.999,91.543 C273.874,91.577 273.749,91.593 273.623,91.593 C273.271,91.593 272.991,91.487 272.783,91.275 C272.575,91.063 272.471,90.729 272.471,90.275 L272.471,87.388 L271.716,87.388 L271.716,86.746 L272.471,86.746 L272.471,85.599 L273.337,85.599 Z M278.685,85.599 L278.685,86.746 L279.586,86.746 L279.586,87.388 L278.686,87.388 L278.686,90.275 C278.686,90.498 278.731,90.655 278.824,90.745 C278.922607,90.8386831 279.055125,90.8881515 279.191,90.882 C279.302009,90.8793752 279.411821,90.8584264 279.516,90.82 L279.63,91.413 C279.545593,91.4753043 279.449258,91.5195568 279.347,91.543 C279.222,91.577 279.097,91.593 278.971,91.593 C278.619,91.593 278.34,91.487 278.131,91.275 C277.924,91.063 277.82,90.729 277.82,90.275 L277.82,87.388 L277.064,87.388 L277.064,86.746 L277.82,86.746 L277.82,85.599 L278.685,85.599 Z M281.52,87.384 C281.684,87.155 281.885,86.977 282.124,86.85 C282.363,86.722 282.627,86.659 282.917,86.659 C283.424,86.659 283.819,86.811 284.102,87.116 C284.384,87.42 284.526,87.889 284.526,88.522 L284.526,91.502 L283.66,91.502 L283.66,88.513 C283.66,88.12 283.576,87.83 283.407,87.643 C283.239,87.455 282.987,87.362 282.654,87.362 C282.414,87.362 282.196,87.418 282.001,87.531 C281.80635,87.6438783 281.641449,87.8015798 281.52,87.991 L281.52,91.501 L280.654,91.501 L280.654,84.646 L281.52,84.646 L281.52,87.384 Z M288.788,90.798 C288.650746,91.0412068 288.452592,91.2445302 288.213,91.388 C287.9656,91.5288849 287.684638,91.6000758 287.4,91.594 C286.881,91.594 286.477,91.428 286.187,91.097 C285.897,90.766 285.752,90.25 285.752,89.55 L285.752,86.746 L286.617,86.746 L286.617,89.559 C286.617,90.066 286.692,90.414 286.842,90.605 C286.991,90.795 287.224,90.89 287.54,90.89 C287.848,90.89 288.102,90.828 288.303,90.704 C288.503,90.579 288.655,90.403 288.758,90.174 L288.758,86.746 L289.623,86.746 L289.623,91.501 L288.845,91.501 L288.788,90.798 Z M288.108,85.002 L289.118,85.002 L289.127,85.028 L287.94,86.171 L287.294,86.171 L288.107,85.001 L288.108,85.002 Z M292.818,90.917 C293.105,90.917 293.358,90.828 293.576,90.651 C293.794,90.474 293.904,90.256 293.904,89.998 L294.681,89.998 L294.691,90.025 C294.705,90.435 294.522,90.799 294.143,91.117 C293.773768,91.4313778 293.30289,91.6008941 292.818,91.594 C292.127,91.594 291.598,91.368 291.232,90.917 C290.865,90.466 290.682,89.899 290.682,89.217 L290.682,89.032 C290.682,88.355 290.866,87.79 291.234,87.338 C291.602,86.885 292.13,86.658 292.818,86.658 C293.375,86.658 293.83,86.823 294.183,87.151 C294.536,87.479 294.706,87.881 294.695,88.359 L294.685,88.386 L293.904,88.386 C293.904,88.096 293.801,87.849 293.596,87.646 C293.389672,87.44152 293.108345,87.3308695 292.818,87.34 C292.364,87.34 292.04,87.503 291.845,87.83 C291.65,88.156 291.552,88.557 291.552,89.032 L291.552,89.216 C291.552,89.703 291.649,90.108 291.842,90.431 C292.036,90.755 292.362,90.917 292.818,90.917 Z" id="Shape" fill="#2A3052" fill-rule="nonzero"></path>
            <path d="M194.271,162.103 L190.248,162.103 L190.248,174.124 L187.396,174.124 L187.396,162.103 L183.392,162.103 L183.392,159.906 L194.271,159.906 L194.271,162.103 Z M198.411,164.896 C198.725271,164.430618 199.143229,164.044495 199.632,163.768 C200.121646,163.495863 200.673851,163.356261 201.234,163.363 C202.334,163.363 203.198,163.729 203.827,164.461 C204.455,165.194 204.769,166.325 204.769,167.855 L204.769,174.125 L201.918,174.125 L201.918,167.835 C201.918,167.015 201.773,166.434 201.483,166.092 C201.193,165.75 200.762,165.579 200.189,165.579 C199.799,165.579 199.453,165.649 199.154,165.789 C198.854,165.929 198.607,166.126 198.412,166.38 L198.412,174.124 L195.56,174.124 L195.56,158.89 L198.412,158.89 L198.412,164.896 L198.411,164.896 Z M213.119,174.124 C213.012348,173.876661 212.922478,173.622419 212.85,173.363 C212.774831,173.094331 212.720997,172.820145 212.689,172.543 C212.402792,173.049743 212.007611,173.486594 211.532,173.822 C211.053,174.16 210.482,174.329 209.818,174.329 C208.711,174.329 207.858,174.045 207.259,173.475 C206.66,172.905 206.361,172.129 206.361,171.145 C206.361,170.111 206.76,169.308 207.557,168.739 C208.355,168.169 209.518,167.884 211.048,167.884 L212.64,167.884 L212.64,167.044 C212.64,166.537 212.507,166.143 212.24,165.863 C211.973,165.583 211.579,165.443 211.058,165.443 C210.596,165.443 210.239,165.555 209.988,165.78 C209.738,166.004 209.613,166.315 209.613,166.712 L206.859,166.702 L206.849,166.644 C206.804,165.752 207.191,164.982 208.011,164.334 C208.831,163.687 209.909,163.363 211.244,163.363 C212.507,163.363 213.532,163.683 214.32,164.325 C215.108,164.965 215.502,165.879 215.502,167.064 L215.502,171.429 C215.502,171.924 215.539,172.389 215.614,172.826 C215.689,173.262 215.808,173.695 215.97,174.124 L213.119,174.124 Z M210.511,172.22 C211.013,172.22 211.459,172.096 211.849,171.849 C212.239,171.602 212.503,171.315 212.64,170.989 L212.64,169.496 L211.048,169.496 C210.443,169.496 209.984,169.646 209.671,169.95 C209.36706,170.23357 209.197084,170.63236 209.203,171.048 C209.203,171.4 209.32,171.683 209.554,171.898 C209.789,172.113 210.108,172.22 210.511,172.22 Z M214.311,159.671 L214.33,159.73 C214.369,160.413 214.082,160.972 213.47,161.405 C212.858,161.838 212.038,162.055 211.01,162.055 C209.974,162.055 209.15,161.838 208.539,161.405 C207.927,160.972 207.643,160.413 207.689,159.73 L207.709,159.671 L209.779,159.671 C209.779,159.951 209.879,160.182 210.077,160.365 C210.275,160.547 210.587,160.638 211.009,160.638 C211.419,160.638 211.725,160.547 211.927,160.365 C212.125826,160.189979 212.236801,159.935798 212.23,159.671 L214.31,159.671 L214.311,159.671 Z M211.429,157.464 L213.431,157.464 L213.451,157.514 L211.791,159.31 L210.228,159.31 L211.429,157.464 Z M220.267,163.558 L220.394,165.072 C220.746,164.532 221.179,164.112 221.693,163.812 C222.207,163.512 222.783,163.362 223.421,163.362 C224.489,163.362 225.322,163.698 225.921,164.369 C226.521,165.039 226.82,166.091 226.82,167.523 L226.82,174.124 L223.959,174.124 L223.959,167.533 C223.959,166.823 223.815,166.32 223.529,166.023 C223.242,165.728 222.809,165.579 222.23,165.579 C221.877804,165.573225 221.52937,165.652103 221.214,165.809 C220.914,165.962 220.664,166.179 220.462,166.459 L220.462,174.124 L217.611,174.124 L217.611,163.558 L220.267,163.558 Z M228.509,168.929 C228.509,167.262 228.872,165.918 229.599,164.896 C230.324,163.874 231.341,163.363 232.65,163.363 C233.242,163.363 233.763,163.496 234.212,163.763 C234.662,164.03 235.046,164.411 235.365,164.906 L235.589,163.558 L238.05,163.558 L238.05,174.076 C238.05,175.449 237.6,176.512 236.698,177.264 C235.796,178.016 234.541,178.392 232.933,178.392 C232.399,178.392 231.833,178.319 231.233,178.172 C230.658967,178.034719 230.10215,177.83346 229.573,177.572 L230.101,175.442 C230.537,175.652 230.981,175.809 231.434,175.916 C231.919351,176.027394 232.416044,176.081762 232.914,176.078 C233.694,176.078 234.269,175.915 234.637,175.589 C235.005,175.264 235.189,174.756 235.189,174.066 L235.189,173.109 C234.877,173.506 234.509,173.809 234.086,174.017 C233.662,174.225 233.177,174.329 232.63,174.329 C231.335,174.329 230.324,173.853 229.598,172.899 C228.872,171.945 228.509,170.69 228.509,169.134 L228.509,168.929 Z M231.361,169.134 C231.361,170.059 231.517,170.786 231.83,171.317 C232.142,171.847 232.65,172.113 233.353,172.113 C233.789,172.113 234.159,172.033 234.461,171.873 C234.764,171.713 235.007,171.481 235.189,171.175 L235.189,166.585 C235.01722,166.27689 234.765782,166.020617 234.461,165.843 C234.159,165.667 233.796,165.579 233.373,165.579 C232.676,165.579 232.167,165.889 231.844,166.507 C231.522,167.126 231.361,167.933 231.361,168.929 L231.361,169.134 Z M243.304,169.222 L240.453,169.222 L240.453,159.906 L243.304,159.906 L243.304,169.222 Z M243.304,174.124 L240.453,174.124 L240.453,171.624 L243.304,171.624 L243.304,174.124 Z" id="Shape" fill="#FFFFFF" fill-rule="nonzero"></path>
        </g>
    </g>
</svg>