<svg width="301" height="200" viewBox="0 0 301 200" xmlns="http://www.w3.org/2000/svg"><title>Vietnamese rises</title><g fill="none" fill-rule="evenodd"><path fill="#F1F2F2" fill-rule="nonzero" d="M.922.352h300v199h-300z"/><path d="M40.047 55.727v19.375h36.125V55.727H40.047zm0-1h36.125V34.352h1v20.375h36.125V34.352h1v20.375h36.125V34.352h1v20.375h36.125V34.352h1v20.375h36.125V34.352h1v20.375h36.125V34.352h1v20.375h37.625v1h-37.625v19.375h37.625v1h-37.625v19.375h37.625v1h-37.625v19.375h37.625v1h-37.625v19.375h37.625v1h-37.625v19.375h37.625v1h-37.625v19.375h37.625v1h-37.625v21.375h-1v-21.375h-36.125v21.375h-1v-21.375h-36.125v21.375h-1v-21.375h-36.125v21.375h-1v-21.375h-36.125v21.375h-1v-21.375H77.172v21.375h-1v-21.375H40.047v21.375h-1v-21.375H2.422v-1h36.625v-19.375H2.422v-1h36.625v-19.375H2.422v-1h36.625v-19.375H2.422v-1h36.625V96.477H2.422v-1h36.625V76.102H2.422v-1h36.625V55.727H2.422v-1h36.625V34.352h1v20.375zm221.75 1h-36.125v19.375h36.125V55.727zm-37.125 0h-36.125v19.375h36.125V55.727zm-37.125 0h-36.125v19.375h36.125V55.727zm-37.125 0h-36.125v19.375h36.125V55.727zm-37.125 0H77.172v19.375h36.125V55.727zm-73.25 20.375v19.375h36.125V76.102H40.047zm221.75 0h-36.125v19.375h36.125V76.102zm-37.125 0h-36.125v19.375h36.125V76.102zm-37.125 0h-36.125v19.375h36.125V76.102zm-37.125 0h-36.125v19.375h36.125V76.102zm-37.125 0H77.172v19.375h36.125V76.102zm-73.25 20.375v19.375h36.125V96.477H40.047zm221.75 0h-36.125v19.375h36.125V96.477zm-37.125 0h-36.125v19.375h36.125V96.477zm-37.125 0h-36.125v19.375h36.125V96.477zm-37.125 0h-36.125v19.375h36.125V96.477zm-37.125 0H77.172v19.375h36.125V96.477zm-73.25 20.375v19.375h36.125v-19.375H40.047zm221.75 0h-36.125v19.375h36.125v-19.375zm-37.125 0h-36.125v19.375h36.125v-19.375zm-37.125 0h-36.125v19.375h36.125v-19.375zm-37.125 0h-36.125v19.375h36.125v-19.375zm-37.125 0H77.172v19.375h36.125v-19.375zm-73.25 20.375v19.375h36.125v-19.375H40.047zm221.75 0h-36.125v19.375h36.125v-19.375zm-37.125 0h-36.125v19.375h36.125v-19.375zm-37.125 0h-36.125v19.375h36.125v-19.375zm-37.125 0h-36.125v19.375h36.125v-19.375zm-37.125 0H77.172v19.375h36.125v-19.375zm-73.25 20.375v19.375h36.125v-19.375H40.047zm221.75 0h-36.125v19.375h36.125v-19.375zm-37.125 0h-36.125v19.375h36.125v-19.375zm-37.125 0h-36.125v19.375h36.125v-19.375zm-37.125 0h-36.125v19.375h36.125v-19.375zm-37.125 0H77.172v19.375h36.125v-19.375z" fill="#DFDEDE" fill-rule="nonzero"/><path stroke="#C2C2C2" stroke-width="2" d="M1.922 1.352h298v197h-298z"/><path fill="#C2C2C2" fill-rule="nonzero" d="M.922 33.352h300v2h-300z"/><g transform="translate(4.422 59.533)"><path d="M.948 57.987h291.545" stroke="#2A3052" stroke-width="1.149" stroke-linejoin="round"/><path stroke="#2A3052" stroke-width="3.447" stroke-linecap="round" stroke-linejoin="round" d="M36.14 57.987L64.567 31.3l38.69 39.574 35.418-51.89 50.308 55.805L231.206.546l26.244 16.232"/><path d="M185.26 89.349h-35.193l-5.415-8.325-5.414 8.325h-35.193c-2.632 0-4.737 2.167-4.737 4.866v25.128c0 2.699 2.143 4.866 4.737 4.866h81.215c2.632 0 4.737-2.167 4.737-4.866V94.215c0-2.7-2.143-4.866-4.737-4.866z" fill="#E88024" fill-rule="nonzero"/><ellipse cx="8.535" cy="9.352" rx="8.159" ry="8.591" opacity=".6" transform="translate(248.915 7.427)" fill="#FFF" fill-rule="nonzero"/><ellipse stroke="#E88024" stroke-width="2.298" cx="257.45" cy="16.778" rx="8.159" ry="8.591"/><ellipse cx="9.061" cy="8.743" rx="8.159" ry="8.591" opacity=".6" transform="translate(27.08 49.243)" fill="#FFF" fill-rule="nonzero"/><ellipse stroke="#E88024" stroke-width="2.298" cx="36.141" cy="57.987" rx="8.159" ry="8.591"/></g><g fill="#2A3052" fill-rule="nonzero"><path d="M32.268 143.158c-.034-.17-.034-.305-.034-.475-.238.34-.543.61-.916.848-.373.237-.78.339-1.22.339-.712 0-1.255-.17-1.628-.577a2.068 2.068 0 0 1-.576-1.525c0-.678.271-1.187.813-1.56.543-.373 1.255-.576 2.17-.576h1.357v-.679c0-.406-.136-.745-.373-.983-.238-.237-.61-.373-1.051-.373-.407 0-.746.102-.984.305-.237.204-.373.475-.373.746h-1.186v-.034c-.034-.508.203-.983.712-1.39.508-.407 1.153-.644 1.932-.644.78 0 1.424.204 1.899.61.475.407.712.984.712 1.73v3.356c0 .238 0 .475.034.712a4 4 0 0 0 .136.678h-1.323v.068a19.345 19.345 0 0 0-.101-.576zm-2.053-.407c.441 0 .882-.102 1.22-.34.374-.237.611-.508.713-.813v-1.119h-1.39c-.509 0-.916.136-1.22.373-.306.238-.442.577-.442.916 0 .305.102.542.272.746.203.135.474.237.847.237zM37.377 134.756v1.776h1.386v.995h-1.386v4.44c0 .355.072.569.214.71.142.143.32.214.568.214.071 0 .142 0 .249-.036.106 0 .177-.035.248-.07l.178.923a2.365 2.365 0 0 1-.426.213 3.11 3.11 0 0 1-.569.071 1.74 1.74 0 0 1-1.279-.497c-.32-.32-.461-.853-.461-1.528v-4.44h-1.137v-.995h1.137v-1.776h1.278zM19.546 143.87v-9.701h3.097c1.631 0 3.343.874 3.343 2.364 0 1.49-.926 1.838-1.407 2.133 1.33.346 1.996 1.193 1.996 2.54 0 2.022-1.72 2.664-3.126 2.664h-3.903zm1.337-5.603h1.862c1.133 0 1.86-.535 1.86-1.693s-1.133-1.29-1.92-1.29h-1.802v2.983zm.003 1.058v3.484h2.642c.78 0 1.775-.54 1.775-1.742s-.988-1.742-1.775-1.742h-2.642zM31.736 134.093c.552.016.551.026.913-.014 0 .584-.447 1.366-1.81 1.366-1.362 0-2.116-.613-2.116-1.366l.994.014c.002.493.376.739 1.123.739.793-.08.75-.24.896-.739zM30.354 133.905h.67l1.036-1.212h-1.036z"/><g><path d="M53.696 143.265c-.034-.174-.034-.313-.034-.487a3.22 3.22 0 0 1-.939.87 2.27 2.27 0 0 1-1.251.347c-.73 0-1.287-.174-1.67-.59a2.12 2.12 0 0 1-.59-1.565c0-.696.278-1.217.834-1.6.556-.382 1.286-.59 2.225-.59h1.39v-.696c0-.417-.138-.765-.382-1.008-.243-.243-.625-.382-1.077-.382-.418 0-.765.104-1.009.313-.243.208-.382.486-.382.764h-1.217v-.034c-.034-.522.209-1.009.73-1.426.522-.417 1.182-.66 1.982-.66s1.46.208 1.947.625c.486.418.73 1.009.73 1.773v3.442c0 .244 0 .487.035.73.034.244.069.487.139.695H53.8v.07c-.035-.209-.07-.417-.105-.591zm-2.104-.417c.452 0 .904-.104 1.252-.348.382-.243.625-.521.73-.834v-1.147h-1.426c-.521 0-.938.139-1.251.382a1.166 1.166 0 0 0-.452.939c0 .313.104.556.278.765.209.139.487.243.87.243zM41.56 140.279c0-1.124.238-2.044.714-2.725.477-.68 1.158-1.022 2.01-1.022.409 0 .783.069 1.09.239.306.136.579.375.817.647v-3.849h1.26v10.116H46.43l-.136-.852c-.21.31-.49.566-.817.75a2.52 2.52 0 0 1-1.158.238c-.852 0-1.499-.307-1.976-.92-.476-.613-.715-1.43-.715-2.452v-.17h-.068zm1.242.138c0 .715.136 1.294.443 1.702.307.41.715.648 1.328.648.375 0 .681-.103.954-.273.272-.17.477-.409.613-.715v-3.27a1.785 1.785 0 0 0-.647-.68 1.713 1.713 0 0 0-.92-.273c-.613 0-1.056.238-1.328.749-.272.51-.443 1.158-.443 1.975v.137zM61.464 136.685h1.262v7.145h-1.262v-1.06c-.4.518-1.061 1.35-2.387 1.21-1.325-.14-2.145-1.18-2.15-2.327-.007-1.146.005-5.356 0-4.968h1.25v2.707c0 3.166.697 3.517 1.65 3.517.951 0 1.418-.804 1.637-1.073-.01-1.504-.01-3.221 0-5.15z"/><path d="M48.736 134.69v.942h-4.202v-.942zM50.08 134.29h-.91l-1.318-1.67h1.318zM51.038 135.5h-1.297l1.86-1.753h1.027l1.949 1.754h-1.364l-1.054-1.029z"/></g></g><g fill="#2A3052" fill-rule="nonzero"><path d="M261.888 95.052v1.722h1.343v.964h-1.343v4.305c0 .345.069.551.207.689.137.138.31.207.55.207.07 0 .138 0 .242-.035.103 0 .172-.034.24-.069l.173.896a2.293 2.293 0 0 1-.413.206 3.014 3.014 0 0 1-.551.07 1.688 1.688 0 0 1-1.24-.483c-.31-.31-.448-.826-.448-1.48v-4.306h-1.102v-.964h1.102v-1.722h1.24zM276.535 96.884h1.23v6.962h-1.23v-1.033c-.39.505-1.034 1.316-2.326 1.179s-2.09-1.15-2.096-2.267c-.006-1.116.005-5.219 0-4.84h1.22v2.637c0 3.085.678 3.427 1.606 3.427.927 0 1.382-.784 1.596-1.045-.011-1.466-.011-3.14 0-5.02zM283.956 99.168c.457-.014.886 0 1.162 0 0-2.044-1.62-2.584-2.923-2.584-1.302 0-2.922 1.182-2.922 3.717s1.421 3.768 3.186 3.704c1.764-.064 2.659-1.405 2.659-2.392-.515.011-.646.011-1.162 0 0 .932-.839 1.422-1.497 1.422-1.576 0-1.933-1.528-1.933-2.743 0-1.216.403-2.716 1.81-2.716 1.193 0 1.62.926 1.62 1.592zM255.04 95.252v1.68h1.31v.94h-1.31v4.199c0 .336.067.537.202.672.134.134.302.201.537.201.067 0 .135 0 .235-.033.101 0 .168-.034.235-.068l.168.874c-.1.067-.235.134-.403.201a2.94 2.94 0 0 1-.537.068 1.646 1.646 0 0 1-1.21-.47c-.302-.303-.436-.807-.436-1.445v-4.2h-1.075v-.94h1.075v-1.68h1.21zM251.99 100.612h-4.45c0 .826.168 1.424.505 1.792.444.484.91.66 1.55.596 1.118-.112 1.334-.411 1.796-.675l.472.808c-.551.57-1.432.854-2.643.854-1.816 0-2.924-1.506-2.996-3.298-.072-1.792.643-3.87 2.996-3.958 1.994.053 2.918 1.347 2.77 3.881zm-1.25-.985c-.012-1.26-.518-1.89-1.519-1.89-1 0-1.547.63-1.64 1.89h3.16zM238.614 94.497h1.25v4.152h.754l3.46-4.152h1.426l-3.796 4.46 4.06 4.91h-1.556l-3.466-4.195h-.882v4.194h-1.25zM247.822 95.59h-1.271l1.825-1.708h.977l1.923 1.708h-1.354l-1.009-1.035zM251.728 92.81l-.862 1.686h.862l1.338-1.685zM264.646 93.964v10.043h1.23v-5.153c.164-.538.673-.832 1.526-.88 1.28-.075 1.606.793 1.606 1.4v4.633h1.296a556.92 556.92 0 0 1-.063-4.957c0-.762-.739-2.324-2.703-2.06-1.35.349-1.251.606-1.662.983-.028-.291-.028-1.603 0-3.937l-1.23-.072zM275.527 94.517h-.932l1.193-1.706h1.472z"/></g><g fill="#6D6E71" fill-rule="nonzero"><path d="M268.024 136.769h1.213l1.043-6.852h-1.243zM270.73 126.826l-.173 1.279h-1.268l.218-1.28zM258.798 136.646h1.15l.989-6.493h-1.178zM249.882 130.194h1.152c.245-1.202-.337-3.046-2.94-2.988-2.605.06-3.436 2.115-3.741 2.832-.306.716-.414 2.387-.518 3.244-.103.858.37 2.928 2.504 3.191 2.136.264 3.945-1.072 4.181-2.974h-1.146c-.206.586-.354 2.262-2.782 2.021-1.322-.131-1.637-1.637-1.523-2.542.114-.906.174-1.903.547-2.94.45-1.254 1.433-1.886 2.407-1.886 1.36 0 1.98.68 1.859 2.042zM276.137 135.045c.07.173.152.357.344.765-1.447 1.102-3.112.952-3.89.496-1.17-.686-1.17-1.961-1.165-2.947.008-1.257.932-3.596 3.506-3.596s2.152 2.779 2.026 3.596c-.263 0-1.682.026-4.258.077-.239 3.057 2.071 2.374 3.437 1.609zm-.155-2.458c.15-1.207-.221-1.81-1.113-1.81-1.337 0-1.806 1.416-1.955 1.81h3.068zM265.494 128.301h1.22l-.25 1.64h1.283l-.126.894h-1.267c-.394 2.55-.608 3.934-.641 4.156-.05.333-.104.948 1.058.72.023.322.038.6.043.834-.46.313-2.615.666-2.32-1.554l.602-4.143-1.043-.013.146-.893h1.043l.252-1.64zM260.155 128.838h.844l.106-.384c.668-.195 1.02-.537 1.055-1.024.052-.732-.574-1.103-1.699-1.103l-.15.656c.615-.042.923.107.923.447 0 .509-.822.509-.98.509-.028.178-.062.477-.1.9zM276.868 128.485v.098h-1.003l-.785-.897-1.072.947h-.965v-.148l1.765-1.522h.732zM283.197 129.841h1.131l-.931 6.738h-1.107c.045-.48.067-.809.067-.988-.485.775-1.191 1.141-2.119 1.1-1.391-.061-2.254-.893-1.894-2.839l.596-3.978h1.16c-.4 2.63-.6 4.073-.6 4.328 0 .382-.192 1.517.991 1.517s1.724-.555 1.985-1.036c.125-.73.366-2.343.72-4.842zM252.957 126.91h1.17c-.39 2.24-.585 3.5-.585 3.778.736-.614 1.494-.921 2.274-.921 1.169 0 1.836 1.039 1.836 1.841 0 .535-.223 2.17-.667 4.903h-1.17c.403-2.724.604-4.205.604-4.443 0-.357-.033-1.244-.972-1.38-.939-.136-1.723.564-2.05.92l-.7 4.956h-1.185l1.445-9.654z"/></g><g fill="#FFF" fill-rule="nonzero"><path d="M176.783 167.815h-2.374v-7.653h2.374v7.653zm0 4.027h-2.374v-2.056h2.374v2.056zM153.588 162.737h1.898l.096 1.383c.777-1.16 1.786-1.676 3.026-1.547.717.074 2.231.31 2.683 2.348.165.747.13 2.01.118 3.726-.005.666-.005 1.82 0 3.46h-2.084v-5.87c0-.69-.193-1.46-.771-1.752-.796-.4-2.294-.233-2.895.778v6.845h-2.071v-9.371zM146.227 165.405c-.642-.004-1.315-.004-2.02 0 0-1.013.725-2.851 3.627-2.851 2.902 0 3.598 1.993 3.677 2.422.079.43-.202 6.448.405 7.132l-2.156.002c-.178-.61-.267-1.06-.267-1.351-.336.41-.915 1.16-1.804 1.436-.888.276-2.907.424-3.734-1.514-.545-1.276-.197-2.713.827-3.37 1.692-1.087 4.017-.724 4.711-.724.09-1.939-.49-2.39-1.804-2.39-.876 0-1.363.402-1.462 1.208zm3.265 2.507a34.979 34.979 0 0 0-2.129.018c-.846.075-1.6.7-1.535 1.592.077 1.062 1.285 1.258 2.23.951.795-.257 1.348-.921 1.434-1.204v-1.357zM169.959 163.578l.211-1.191h1.72v9.535c.007 3.324-3.725 4.596-7.154 2.936.197-.98.305-1.528.324-1.644 1.494.5 5.212 1.748 4.739-2.39-2.134 2.187-4.55.862-5.385-.598-.923-1.612-1.523-6.42 1.444-7.717 1.71-.747 3.076-.39 4.1 1.07zm-.18 1.454c-.405-.615-.665-1.127-2.029-1.127-1.363 0-2.217 1.673-1.921 4.242.296 2.568 3.084 2.568 3.95.943v-4.058zM134.135 158.578h2.003c.037 3.283.055 5.072.055 5.367.489-.76 1.905-1.791 3.416-1.324 2.397.742 2.288 2.306 2.397 3.356.073.7.073 2.743 0 6.13h-2.078c.057-2.796.057-4.783 0-5.96.076-2.039-2.46-2.652-3.79-.83l.055 6.79h-2.058v-13.529zM132.817 159.454v1.592h-3.911v10.966h-2.17v-10.966h-3.669v-1.592zM149.033 159.328h1.562c-.076.745-.599 1.937-2.754 1.937-2.155 0-2.906-1.353-2.742-1.937l1.528-.022c.123.605.53.907 1.221.907.692 0 1.087-.295 1.185-.885zM147.273 159.023h1.123l1.368-1.636h-1.51z"/></g><path d="M26.447 19.545l.016.05c.022 1.3-.375 2.331-1.19 3.092-.817.761-1.95 1.142-3.4 1.142-1.456 0-2.637-.468-3.545-1.403-.907-.935-1.36-2.139-1.36-3.611v-2.399c0-1.466.442-2.67 1.327-3.61.886-.942 2.037-1.412 3.453-1.412 1.495 0 2.662.383 3.503 1.15.841.766 1.251 1.81 1.229 3.133l-.017.05h-2.357c0-.797-.191-1.407-.573-1.83-.382-.424-.977-.635-1.785-.635-.725 0-1.3.294-1.726.884-.426.59-.64 1.34-.64 2.253v2.416c0 .924.225 1.68.673 2.27.448.59 1.054.884 1.818.884.758 0 1.318-.203 1.68-.61.363-.407.544-1.011.544-1.814h2.35zm6.815 4.11a5.098 5.098 0 0 1-.229-.648 4.504 4.504 0 0 1-.137-.697 3.34 3.34 0 0 1-.983 1.087c-.407.288-.893.432-1.457.432-.94 0-1.666-.242-2.175-.727-.509-.484-.764-1.144-.764-1.98 0-.88.34-1.561 1.017-2.046.678-.484 1.667-.726 2.968-.726h1.353v-.714c0-.431-.114-.766-.34-1.004-.227-.238-.562-.357-1.005-.357-.393 0-.696.095-.909.286-.213.191-.32.455-.32.793l-2.34-.008-.009-.05c-.038-.758.291-1.413.988-1.963.698-.55 1.613-.826 2.748-.826 1.073 0 1.945.272 2.615.817.67.546 1.004 1.322 1.004 2.329v3.71c0 .42.032.817.095 1.187.064.371.165.74.303 1.104h-2.423zm-2.217-1.62a2.08 2.08 0 0 0 1.137-.315c.332-.21.557-.454.673-.73v-1.27h-1.353c-.515 0-.905.128-1.17.386a1.252 1.252 0 0 0-.4.934c0 .298.1.54.3.722.199.182.47.274.813.274zm5.703-2.954c0-1.34.373-2.437 1.12-3.292.748-.855 1.782-1.282 3.105-1.282 1.328 0 2.368.426 3.121 1.278.753.852 1.129 1.95 1.129 3.296v.174c0 1.35-.375 2.45-1.125 3.3-.75.849-1.786 1.274-3.108 1.274-1.329 0-2.368-.425-3.117-1.275-.75-.849-1.125-1.949-1.125-3.3v-.173zm2.415.174c0 .819.144 1.476.432 1.971.288.496.753.743 1.395.743.625 0 1.083-.249 1.373-.747.29-.498.436-1.154.436-1.967v-.174c0-.797-.146-1.448-.44-1.951-.293-.504-.755-.755-1.386-.755-.625 0-1.083.253-1.374.759-.29.506-.436 1.155-.436 1.947v.174zm21.757 4.4h-2.416v-5.023h-4.93v5.022H51.15V11.568h2.424v5.197h4.93v-5.197h2.416v12.086zm1.693-4.574c0-1.34.374-2.437 1.12-3.292.748-.855 1.783-1.282 3.105-1.282.62 0 1.182.1 1.685.303.504.202.941.485 1.312.85.31-.193.545-.48.705-.858.16-.38.241-.835.241-1.366h1.752c0 .808-.166 1.493-.498 2.054a3.005 3.005 0 0 1-1.445 1.25c.16.343.284.712.37 1.108.085.396.128.806.128 1.233v.174c0 1.35-.375 2.45-1.125 3.3-.75.849-1.786 1.274-3.108 1.274-1.328 0-2.367-.425-3.117-1.275-.75-.849-1.125-1.949-1.125-3.3v-.173zm2.416.174c0 .819.144 1.476.431 1.971.288.496.753.743 1.395.743.625 0 1.083-.249 1.374-.747.29-.498.435-1.154.435-1.967v-.174c0-.797-.146-1.448-.44-1.951-.293-.504-.755-.755-1.386-.755-.625 0-1.083.253-1.374.759-.29.506-.435 1.155-.435 1.947v.174zm10.06-4.582l.108 1.286c.299-.459.667-.816 1.104-1.07a2.866 2.866 0 0 1 1.47-.382c.907 0 1.615.285 2.124.855.51.57.764 1.464.764 2.681v5.611h-2.432v-5.603c0-.603-.122-1.03-.365-1.282-.244-.252-.612-.378-1.104-.378a1.774 1.774 0 0 0-1.502.747v6.516H72.83v-8.981h2.258z" fill="#000"/></g></svg>