<?xml version="1.0" encoding="UTF-8"?>
<svg width="299px" height="197px" viewBox="0 0 299 197" version="1.1" xmlns="http://www.w3.org/2000/svg" xmlns:xlink="http://www.w3.org/1999/xlink">
    <!-- Generator: Sketch 52.6 (67491) - http://www.bohemiancoding.com/sketch -->
    <title>touch</title>
    <desc>Created with Sketch.</desc>
    <g id="Page-1" stroke="none" stroke-width="1" fill="none" fill-rule="evenodd">
        <g id="touch">
            <g id="Group">
                <polygon id="Path" fill="#F1F2F2" points="0 0 299 0 299 197 0 197"></polygon>
                <path d="M1.98671096,1.9798995 L1.98671096,195.020101 L297.013289,195.020101 L297.013289,1.9798995 L1.98671096,1.9798995 Z M299,0 L299,197 L0,197 L0,0 L299,0 Z" id="Path" fill="#C2C2C2" fill-rule="nonzero"></path>
                <g id="Group-2" transform="translate(2.000000, 33.000000)">
                    <path d="M2.887,23.4456836 L2.887,22.2388448 L292.54325,22.2388448 L292.54325,23.4456836 L2.887,23.4456836 Z M2.887,63.9796458 L2.887,62.772807 L292.54325,62.772807 L292.54325,63.9796458 L2.887,63.9796458 Z M2.887,104.513608 L2.887,103.30677 L292.54325,103.30677 L292.54325,104.513608 L2.887,104.513608 Z M2.887,145.010211 L2.887,143.803373 L292.54325,143.803373 L292.54325,145.010211 L2.887,145.010211 Z M37.2665806,2.59396226 L38.4734194,2.59396226 L38.4734194,162.264151 L37.2665806,162.264151 L37.2665806,2.59396226 Z M73.9314556,2.59396226 L75.1382944,2.59396226 L75.1382944,162.264151 L73.9314556,162.264151 L73.9314556,2.59396226 Z M110.558956,2.59396226 L111.765794,2.59396226 L111.765794,162.264151 L110.558956,162.264151 L110.558956,2.59396226 Z M147.223831,2.59396226 L148.430669,2.59396226 L148.430669,162.264151 L147.223831,162.264151 L147.223831,2.59396226 Z M183.851331,2.59396226 L185.058169,2.59396226 L185.058169,162.264151 L183.851331,162.264151 L183.851331,2.59396226 Z M220.478831,2.59396226 L221.685669,2.59396226 L221.685669,162.264151 L220.478831,162.264151 L220.478831,2.59396226 Z M2.887,84.2279477 L2.887,83.0211089 L292.54325,83.0211089 L292.54325,84.2279477 L2.887,84.2279477 Z" id="Shape" fill="#DFDEDE" fill-rule="nonzero"></path>
                    <polygon id="Path" fill="#2A3052" fill-rule="nonzero" points="2.887 43.7313439 2.887 42.5245051 292.54325 42.5245051 292.54325 43.7313439"></polygon>
                    <polygon id="Path" fill="#DFDEDE" fill-rule="nonzero" points="2.887 124.76191 2.887 123.555072 292.54325 123.555072 292.54325 124.76191"></polygon>
                    <polygon id="Path" fill="#2A3052" fill-rule="nonzero" points="257.143706 2.59396226 258.350544 2.59396226 258.350544 162.264151 257.143706 162.264151"></polygon>
                    <polygon id="Path" fill="#C2C2C2" fill-rule="nonzero" points="0.794 2.60551619 0.794 0.191464945 294.63625 0.191464945 294.63625 2.60551619"></polygon>
                    <path d="M39.0869303,105.250634 C38.3466232,105.922726 37.2016474,105.867426 36.5295554,105.127119 C35.8574633,104.386812 35.9127626,103.241836 36.6530697,102.569744 L73.3179447,69.283329 C74.0311337,68.6358563 75.1264314,68.6601974 75.8101526,69.338714 L100.514722,93.8552281 L130.675074,60.5178463 C131.351131,59.7705752 132.50724,59.7191333 133.246994,60.4034068 L177.337008,101.186717 L219.609617,42.0748031 C220.19124,41.2614907 221.322059,41.0736691 222.135371,41.655292 C222.948684,42.2369149 223.136505,43.3677334 222.554883,44.1810459 L179.087758,104.96331 C178.45376,105.849861 177.185865,105.979337 176.385756,105.239235 L132.132071,64.3045294 L101.927801,97.6904556 C101.234985,98.4562508 100.042975,98.4883312 99.3099724,97.7609087 L74.4794148,73.1193652 L39.0869303,105.250634 Z" id="Path" fill="#2A3052" fill-rule="nonzero"></path>
                    <path d="M185.987125,114.445283 L151.0415,114.445283 L145.6595,106.263774 L140.2775,114.445283 L105.331875,114.445283 C102.715625,114.445283 100.622625,116.574717 100.622625,119.22717 L100.622625,143.921132 C100.622625,146.573585 102.753,148.703019 105.331875,148.703019 L186.0245,148.703019 C188.64075,148.703019 190.73375,146.573585 190.73375,143.921132 L190.73375,119.22717 C190.73375,116.574717 188.603375,114.445283 185.987125,114.445283 Z" id="Path" fill="#E88024"></path>
                    <g id="Group" opacity="0.6" transform="translate(212.037500, 34.509434)" fill="#FFFFFF">
                        <ellipse id="Oval" cx="9.04475" cy="8.6184906" rx="8.110375" ry="8.44301887"></ellipse>
                    </g>
                    <path d="M221.08225,52.777969 C215.925296,52.777969 211.764849,48.4468836 211.764849,43.1279245 C211.764849,37.8089654 215.925296,33.47788 221.08225,33.47788 C226.239204,33.47788 230.399651,37.8089654 230.399651,43.1279245 C230.399651,48.4468836 226.239204,52.777969 221.08225,52.777969 Z M221.08225,50.3639177 C224.883769,50.3639177 227.985599,47.1348665 227.985599,43.1279245 C227.985599,39.1209825 224.883769,35.8919313 221.08225,35.8919313 C217.280731,35.8919313 214.178901,39.1209825 214.178901,43.1279245 C214.178901,47.1348665 217.280731,50.3639177 221.08225,50.3639177 Z" id="Oval" fill="#E88024" fill-rule="nonzero"></path>
                    <g id="Group" opacity="0.6" transform="translate(28.900000, 95.018868)" fill="#FFFFFF">
                        <ellipse id="Oval" cx="8.97" cy="8.89132075" rx="8.110375" ry="8.44301887"></ellipse>
                    </g>
                    <path d="M37.87,113.560233 C32.7130457,113.560233 28.5525994,109.229148 28.5525994,103.910189 C28.5525994,98.5912299 32.7130457,94.2601445 37.87,94.2601445 C43.0269543,94.2601445 47.1874006,98.5912299 47.1874006,103.910189 C47.1874006,109.229148 43.0269543,113.560233 37.87,113.560233 Z M37.87,111.146182 C41.6715185,111.146182 44.7733494,107.917131 44.7733494,103.910189 C44.7733494,99.903247 41.6715185,96.6741958 37.87,96.6741958 C34.0684815,96.6741958 30.9666506,99.903247 30.9666506,103.910189 C30.9666506,107.917131 34.0684815,111.146182 37.87,111.146182 Z" id="Oval" fill="#E88024" fill-rule="nonzero"></path>
                </g>
            </g>
            <path d="M22.942,17.595 L22.956,17.637 C22.975,18.732 22.641,19.589 21.956,20.209 C21.269,20.829 20.323,21.139 19.116,21.139 C17.885,21.139 16.891,20.744 16.135,19.952 C15.378,19.161 15,18.138 15,16.883 L15,14.847 C15,13.597 15.369,12.574 16.106,11.778 C16.844,10.982 17.812,10.584 19.01,10.584 C20.26,10.584 21.237,10.889 21.941,11.5 C22.646,12.11 22.989,12.97 22.97,14.079 L22.956,14.121 L20.955,14.121 C20.955,13.463 20.796,12.974 20.479,12.651 C20.162,12.33 19.672,12.169 19.009,12.169 C18.394,12.169 17.914,12.417 17.569,12.913 C17.223,13.408 17.051,14.048 17.051,14.833 L17.051,16.883 C17.051,17.673 17.233,18.316 17.597,18.814 C17.961,19.312 18.467,19.561 19.115,19.561 C19.731,19.561 20.19,19.401 20.493,19.078 C20.796,18.757 20.948,18.262 20.948,17.595 L22.942,17.595 Z M26.282,14.332 C26.5086033,13.9966697 26.809811,13.7183949 27.162,13.519 C27.5152543,13.3223599 27.9137298,13.2213622 28.318,13.226 C29.112,13.226 29.736,13.49 30.189,14.019 C30.643,14.547 30.869,15.364 30.869,16.468 L30.869,20.992 L28.812,20.992 L28.812,16.454 C28.812,15.862 28.717,15.442 28.526,15.196 C28.336,14.949 28.051,14.826 27.67,14.826 C27.355,14.826 27.082,14.876 26.85,14.977 C26.6266885,15.0707486 26.4311328,15.2201697 26.282,15.411 L26.282,20.991 L24.224,20.991 L24.224,10 L26.282,10 L26.282,14.333 L26.282,14.332 Z M36.915,20.992 C36.8383804,20.813212 36.7739009,20.629462 36.722,20.442 C36.6674623,20.2480578 36.6283405,20.0501079 36.605,19.85 C36.3980228,20.2163309 36.1116936,20.5317031 35.767,20.773 C35.419,21.017 35.006,21.14 34.527,21.14 C33.728,21.14 33.113,20.934 32.68,20.523 C32.248,20.112 32.032,19.552 32.032,18.843 C32.032,18.095 32.32,17.516 32.895,17.105 C33.471,16.695 34.311,16.489 35.415,16.489 L36.57,16.489 L36.57,15.883 C36.57,15.516 36.474,15.233 36.281,15.03 C36.089,14.828 35.802,14.727 35.421,14.727 C35.088,14.727 34.831,14.808 34.65,14.97 C34.47,15.132 34.379,15.354 34.379,15.636 L32.399,15.636 L32.384,15.594 C32.352,14.95 32.632,14.394 33.226,13.927 C33.821,13.46 34.597,13.227 35.556,13.227 C36.472,13.227 37.213,13.457 37.779,13.917 C38.345,14.377 38.628,15.037 38.628,15.897 L38.628,19.047 C38.628,19.404 38.655,19.74 38.708,20.054 C38.763,20.369 38.848,20.682 38.966,20.992 L36.916,20.992 L36.915,20.992 Z M35.034,19.618 C35.391,19.618 35.71,19.528 35.992,19.35 C36.274,19.171 36.467,18.965 36.57,18.73 L36.57,17.651 L35.414,17.651 C34.978,17.651 34.648,17.76 34.424,17.976 C34.2053044,18.1822966 34.0839899,18.4714173 34.09,18.772 C34.09,19.03 34.173,19.236 34.34,19.389 C34.507,19.541 34.738,19.618 35.034,19.618 Z M36.161,23.388 L33.857,23.388 L33.857,21.689 L36.161,21.689 L36.161,23.388 Z M42.081,13.368 L42.165,14.375 C42.41,14.008 42.716,13.725 43.085,13.525 C43.454,13.326 43.88,13.226 44.364,13.226 C44.852,13.226 45.271,13.334 45.618,13.55 C45.966,13.766 46.228,14.093 46.408,14.53 C46.642,14.121 46.948,13.802 47.323,13.571 C47.699,13.341 48.141,13.226 48.648,13.226 C49.4,13.226 49.993,13.493 50.428,14.026 C50.862,14.559 51.079,15.373 51.079,16.468 L51.079,20.992 L49.022,20.992 L49.022,16.461 C49.022,15.85 48.928,15.425 48.74,15.185 C48.552,14.945 48.272,14.825 47.901,14.825 C47.61,14.825 47.358,14.89 47.144,15.02 C46.93,15.149 46.76,15.328 46.633,15.559 C46.633,15.648 46.635,15.724 46.64,15.788 C46.645,15.851 46.647,15.916 46.647,15.981 L46.647,20.991 L44.597,20.991 L44.597,16.461 C44.597,15.864 44.502,15.442 44.314,15.196 C44.127,14.949 43.844,14.826 43.469,14.826 C43.192,14.826 42.949,14.879 42.739,14.984 C42.531,15.09 42.358,15.239 42.222,15.432 L42.222,20.992 L40.171,20.992 L40.171,13.367 L42.081,13.367 L42.081,13.368 Z" id="Shape" fill="#000000" fill-rule="nonzero"></path>
            <g id="Group" transform="translate(19.586000, 152.677000)" fill="#2A3052" fill-rule="nonzero">
                <path d="M11.086,9.407 C11.058,9.267 11.058,9.155 11.058,9.015 C10.862,9.295 10.61,9.519 10.302,9.715 C9.994,9.911 9.658,9.995 9.294,9.995 C8.706,9.995 8.258,9.855 7.95,9.519 C7.62543633,9.1819345 7.45337237,8.7264711 7.474,8.259 C7.474,7.699 7.698,7.279 8.146,6.971 C8.594,6.663 9.182,6.495 9.938,6.495 L11.058,6.495 L11.058,5.935 C11.058,5.599 10.946,5.319 10.75,5.123 C10.554,4.927 10.246,4.815 9.882,4.815 C9.546,4.815 9.266,4.899 9.07,5.067 C8.88243841,5.21761184 8.76995252,5.44258362 8.762,5.683 L7.782,5.683 L7.782,5.655 C7.754,5.235 7.95,4.843 8.37,4.507 C8.79,4.171 9.322,3.975 9.966,3.975 C10.61,3.975 11.142,4.143 11.534,4.479 C11.926,4.815 12.122,5.291 12.122,5.907 L12.122,8.679 C12.122,8.875 12.122,9.071 12.15,9.267 C12.178,9.463 12.206,9.659 12.262,9.827 L11.17,9.827 L11.17,9.883 C11.1444021,9.72391879 11.1163989,9.56523397 11.086,9.407 Z M9.391,9.071 C9.755,9.071 10.119,8.987 10.399,8.791 C10.707,8.595 10.903,8.371 10.987,8.119 L10.987,7.195 L9.84,7.195 C9.42,7.195 9.084,7.307 8.832,7.503 C8.59868778,7.68386303 8.46389198,7.96382353 8.468,8.259 C8.468,8.511 8.552,8.707 8.692,8.875 C8.86,8.987 9.084,9.071 9.392,9.071 L9.391,9.071 Z M15.306,2.469 L15.306,3.936 L16.45,3.936 L16.45,4.757 L15.306,4.757 L15.306,8.424 C15.306,8.717 15.364,8.894 15.482,9.011 C15.599,9.128 15.746,9.187 15.952,9.187 C16.01,9.187 16.068,9.187 16.156,9.157 C16.244,9.157 16.303,9.128 16.362,9.099 L16.508,9.862 C16.396892,9.93236906 16.2789601,9.99133503 16.156,10.038 C16.01,10.067 15.834,10.096 15.687,10.096 C15.2937091,10.109694 14.9120105,9.96149662 14.631,9.686 C14.367,9.421 14.25,8.981 14.25,8.424 L14.25,4.757 L13.31,4.757 L13.31,3.936 L14.25,3.936 L14.25,2.469 L15.306,2.469 Z M0.58,9.995 L0.58,1.985 L3.138,1.985 C4.485,1.985 5.898,2.705 5.898,3.936 C5.898,5.167 5.134,5.454 4.737,5.698 C5.836,5.984 6.385,6.683 6.385,7.796 C6.385,9.466 4.965,9.996 3.803,9.996 L0.581,9.996 L0.58,9.995 Z M1.685,5.368 L3.222,5.368 C4.158,5.368 4.759,4.927 4.759,3.97 C4.759,3.014 3.822,2.905 3.173,2.905 L1.685,2.905 L1.685,5.368 Z M1.687,6.242 L1.687,9.119 L3.869,9.119 C4.513,9.119 5.334,8.673 5.334,7.681 C5.334,6.688 4.519,6.241 3.869,6.241 L1.687,6.241 L1.687,6.242 Z M10.647,1.922 C11.103,1.935 11.102,1.942 11.401,1.91 C11.401,2.392 11.032,3.038 9.907,3.038 C8.781,3.038 8.159,2.532 8.159,1.91 L8.98,1.922 C8.981,2.329 9.29,2.532 9.907,2.532 C10.562,2.466 10.526,2.334 10.647,1.922 Z M9.505,1.767 L10.059,1.767 L10.915,0.765 L10.059,0.765 L9.505,1.767 Z" id="Shape"></path>
                <g id="Shape" transform="translate(18.000000, 0.000000)">
                    <path d="M10.782,9.496 C10.753,9.352 10.753,9.237 10.753,9.094 C10.5452715,9.3827435 10.2817413,9.62689149 9.978,9.812 C9.662,10.012 9.318,10.099 8.945,10.099 C8.342,10.099 7.882,9.955 7.567,9.611 C7.23382279,9.26554943 7.05704615,8.79848315 7.078,8.319 C7.078,7.745 7.308,7.314 7.768,6.999 C8.227,6.682 8.83,6.51 9.605,6.51 L10.753,6.51 L10.753,5.936 C10.753,5.591 10.638,5.304 10.437,5.103 C10.237,4.903 9.921,4.788 9.547,4.788 C9.203,4.788 8.916,4.874 8.715,5.046 C8.52252093,5.20048692 8.40710209,5.43132459 8.399,5.678 L7.394,5.678 L7.394,5.648 C7.366,5.218 7.567,4.816 7.997,4.472 C8.427,4.127 8.973,3.926 9.634,3.926 C10.294,3.926 10.839,4.099 11.241,4.443 C11.643,4.788 11.844,5.276 11.844,5.907 L11.844,8.749 C11.844,8.95 11.844,9.151 11.873,9.352 C11.901,9.553 11.93,9.754 11.988,9.926 L10.868,9.926 L10.868,9.984 C10.8417956,9.82090901 10.8131256,9.65822373 10.782,9.496 Z M9.044,9.151 C9.417,9.151 9.791,9.065 10.078,8.864 C10.393,8.664 10.594,8.434 10.681,8.175 L10.681,7.228 L9.503,7.228 C9.073,7.228 8.728,7.343 8.47,7.544 C8.23080159,7.72937586 8.09265524,8.01640917 8.097,8.319 C8.097,8.577 8.183,8.778 8.327,8.95 C8.499,9.065 8.728,9.151 9.044,9.151 Z M0.759,7.03 C0.759,6.102 0.956,5.342 1.349,4.78 C1.743,4.217 2.306,3.936 3.009,3.936 C3.346,3.936 3.656,3.992 3.909,4.133 C4.162,4.245 4.387,4.443 4.584,4.667 L4.584,1.489 L5.624,1.489 L5.624,9.842 L4.781,9.842 L4.668,9.139 C4.49399071,9.39483802 4.26291443,9.60674352 3.993,9.758 C3.695,9.898 3.367,9.966 3.037,9.955 C2.334,9.955 1.8,9.702 1.406,9.195 C1.012,8.689 0.816,8.015 0.816,7.17 L0.816,7.03 L0.759,7.03 Z M1.785,7.144 C1.785,7.734 1.898,8.212 2.151,8.55 C2.404,8.887 2.741,9.084 3.248,9.084 C3.558,9.084 3.811,9 4.036,8.859 C4.261,8.719 4.429,8.522 4.542,8.269 L4.542,5.569 C4.41720346,5.3368808 4.23245679,5.14246515 4.007,5.006 C3.78056044,4.86031336 3.51725432,4.78225819 3.248,4.781 C2.742,4.781 2.376,4.978 2.151,5.4 C1.926,5.822 1.785,6.356 1.785,7.031 L1.785,7.144 Z M17.196,4.062 L18.239,4.062 L18.239,9.962 L17.196,9.962 L17.196,9.087 C16.866,9.514 16.32,10.201 15.226,10.086 C14.131,9.97 13.454,9.111 13.449,8.165 C13.444,7.218 13.454,3.742 13.449,4.062 L14.483,4.062 L14.483,6.298 C14.483,8.912 15.058,9.202 15.843,9.202 C16.63,9.202 17.015,8.538 17.196,8.316 C17.187,7.074 17.187,5.656 17.196,4.062 Z"></path>
                    <path d="M6.685,2.414 L6.685,3.192 L3.215,3.192 L3.215,2.414 L6.685,2.414 Z M7.795,2.084 L7.045,2.084 L5.955,0.704 L7.045,0.704 L7.795,2.084 Z M8.587,3.084 L7.516,3.084 L9.051,1.635 L9.899,1.635 L11.509,3.085 L10.383,3.085 L9.513,2.235 L8.587,3.084 Z"></path>
                </g>
            </g>
            <g id="Group" transform="translate(261.586000, 100.677000)" fill="#2A3052" fill-rule="nonzero">
                <path d="M16.616,2.511 L16.616,3.691 L17.536,3.691 L17.536,4.351 L16.616,4.351 L16.616,7.299 C16.616,7.535 16.663,7.676 16.757,7.771 C16.8574682,7.86921856 16.9947512,7.92042733 17.135,7.912 C17.182,7.912 17.229,7.912 17.3,7.889 C17.3582027,7.88739204 17.4150173,7.87086417 17.465,7.841 L17.583,8.455 C17.4936517,8.51140329 17.3988377,8.55864278 17.3,8.596 C17.182,8.62 17.04,8.643 16.923,8.643 C16.6064198,8.65410763 16.2991513,8.53481515 16.073,8.313 C15.861,8.101 15.767,7.747 15.767,7.299 L15.767,4.351 L15.012,4.351 L15.012,3.691 L15.767,3.691 L15.767,2.511 L16.616,2.511 Z M26.646,3.766 L27.488,3.766 L27.488,8.534 L26.646,8.534 L26.646,7.826 C26.379,8.172 25.938,8.727 25.053,8.633 C24.169,8.54 23.622,7.846 23.618,7.081 C23.614,6.317 23.622,3.507 23.618,3.766 L24.453,3.766 L24.453,5.573 C24.453,7.685 24.918,7.919 25.553,7.919 C26.188,7.919 26.5,7.382 26.646,7.203 C26.639,6.2 26.639,5.053 26.646,3.766 Z M31.728,5.33 C32.041,5.32 32.335,5.33 32.524,5.33 C32.524,3.93 31.414,3.56 30.523,3.56 C29.631,3.56 28.521,4.37 28.521,6.106 C28.521,7.842 29.495,8.686 30.703,8.642 C31.911,8.599 32.523,7.68 32.523,7.004 C32.171,7.012 32.082,7.012 31.728,7.004 C31.728,7.643 31.154,7.978 30.703,7.978 C29.624,7.978 29.379,6.932 29.379,6.1 C29.379,5.267 29.655,4.24 30.619,4.24 C31.436,4.24 31.729,4.874 31.729,5.33 L31.728,5.33 Z M11.926,2.648 L11.926,3.798 L12.824,3.798 L12.824,4.442 L11.926,4.442 L11.926,7.318 C11.926,7.548 11.972,7.686 12.064,7.778 C12.1620053,7.87402579 12.2960345,7.92415052 12.433,7.916 C12.479,7.916 12.525,7.916 12.593,7.893 C12.650056,7.89184465 12.705851,7.87600164 12.755,7.847 L12.87,8.445 C12.782879,8.50017176 12.69041,8.54640623 12.594,8.583 C12.4730101,8.60962445 12.3498208,8.62502312 12.226,8.629 C11.91721,8.6398448 11.6175099,8.52343533 11.397,8.307 C11.19,8.1 11.098,7.755 11.098,7.317 L11.098,4.442 L10.362,4.442 L10.362,3.798 L11.098,3.798 L11.098,2.648 L11.926,2.648 Z M9.838,6.319 L6.79,6.319 C6.79,6.885 6.905,7.294 7.136,7.546 C7.44,7.878 7.76,7.998 8.198,7.954 C8.963,7.878 9.111,7.673 9.428,7.492 L9.751,8.045 C9.373,8.435 8.771,8.63 7.941,8.63 C6.697,8.63 5.939,7.6 5.889,6.372 C5.839,5.145 6.329,3.721 7.941,3.662 C9.307,3.698 9.939,4.583 9.838,6.319 Z M8.982,5.644 C8.974,4.781 8.627,4.349 7.942,4.349 C7.257,4.349 6.882,4.781 6.819,5.644 L8.982,5.644 Z M0.677,2.131 L1.534,2.131 L1.534,4.975 L2.05,4.975 L4.42,2.131 L5.396,2.131 L2.796,5.186 L5.576,8.547 L4.511,8.547 L2.138,5.675 L1.534,5.675 L1.534,8.547 L0.677,8.547 L0.677,2.131 Z M6.984,2.88 L6.113,2.88 L7.363,1.71 L8.032,1.71 L9.349,2.88 L8.422,2.88 L7.731,2.171 L6.984,2.88 Z M9.658,0.976 L9.068,2.13 L9.658,2.13 L10.575,0.976 L9.658,0.976 Z M18.505,1.766 L18.505,8.644 L19.347,8.644 L19.347,5.114 C19.459,4.746 19.807,4.546 20.392,4.512 C21.269,4.462 21.492,5.056 21.492,5.472 L21.492,8.644 L22.379,8.644 C22.3596294,7.51240274 22.3452959,6.38072486 22.336,5.249 C22.336,4.727 21.83,3.658 20.486,3.838 C19.561,4.078 19.628,4.254 19.346,4.512 C19.328,4.312 19.328,3.414 19.346,1.816 L18.505,1.766 Z M25.956,2.145 L25.318,2.145 L26.135,0.976 L27.143,0.976 L25.956,2.145 Z" id="Shape"></path>
            </g>
            <g id="Group" transform="translate(20.586000, 59.677000)" fill="#6D6E71" fill-rule="nonzero">
                <path d="M21.025,9.35 L22.031,9.35 L22.897,3.664 L21.866,3.664 L21.025,9.35 Z M23.27,1.098 L23.127,2.159 L22.075,2.159 L22.255,1.099 L23.27,1.098 Z M13.368,9.248 L14.323,9.248 L15.143,3.859 L14.166,3.859 L13.368,9.248 Z M5.969,3.893 L6.925,3.893 C7.128,2.896 6.645,1.365 4.485,1.414 C2.323,1.463 1.634,3.169 1.38,3.764 C1.126,4.358 1.036,5.744 0.95,6.456 C0.865,7.168 1.257,8.886 3.029,9.105 C4.801,9.323 6.302,8.215 6.499,6.635 L5.547,6.635 C5.376,7.122 5.254,8.514 3.238,8.313 C2.141,8.205 1.879,6.955 1.974,6.203 C2.069,5.453 2.118,4.624 2.428,3.763 C2.802,2.723 3.618,2.199 4.426,2.199 C5.554,2.199 6.068,2.764 5.969,3.893 Z M27.758,7.92 C27.817,8.063 27.884,8.215 28.043,8.554 C26.843,9.469 25.461,9.344 24.816,8.966 C23.844,8.396 23.844,7.338 23.849,6.52 C23.855,5.476 24.622,3.535 26.759,3.535 C28.894,3.535 28.543,5.842 28.439,6.52 C28.221,6.52 27.043,6.542 24.906,6.584 C24.708,9.121 26.624,8.554 27.758,7.919 L27.758,7.92 Z M27.629,5.88 C27.754,4.877 27.446,4.377 26.706,4.377 C25.596,4.377 25.207,5.553 25.083,5.879 L27.629,5.879 L27.629,5.88 Z M18.925,2.323 L19.937,2.323 L19.73,3.684 L20.795,3.684 L20.691,4.426 L19.639,4.426 L19.107,7.875 C19.066,8.151 19.021,8.661 19.985,8.472 C20.005,8.739 20.016,8.969 20.021,9.164 C19.639,9.424 17.851,9.717 18.095,7.874 L18.595,4.436 L17.729,4.426 L17.85,3.684 L18.716,3.684 L18.926,2.323 L18.925,2.323 Z M14.494,2.768 L15.194,2.768 L15.282,2.449 C15.837,2.287 16.129,2.004 16.158,1.599 C16.202,0.992 15.682,0.684 14.748,0.684 L14.624,1.229 C15.134,1.194 15.39,1.317 15.39,1.599 C15.39,2.022 14.707,2.022 14.577,2.022 C14.553,2.169 14.525,2.418 14.494,2.768 Z M28.364,2.475 L28.364,2.556 L27.532,2.556 L26.88,1.812 L25.991,2.598 L25.19,2.598 L25.19,2.475 L26.655,1.212 L27.262,1.212 L28.364,2.475 Z M33.617,3.6 L34.556,3.6 L33.783,9.192 L32.865,9.192 C32.902,8.795 32.92,8.522 32.92,8.372 C32.518,9.015 31.931,9.32 31.162,9.286 C30.007,9.235 29.291,8.544 29.589,6.929 L30.084,3.628 L31.047,3.628 C30.715,5.811 30.549,7.008 30.549,7.219 C30.549,7.537 30.389,8.479 31.371,8.479 C32.353,8.479 32.801,8.019 33.018,7.619 C33.123,7.013 33.322,5.674 33.617,3.6 Z M8.52,1.168 L9.491,1.168 C9.168,3.028 9.006,4.072 9.006,4.303 C9.617,3.793 10.246,3.539 10.893,3.539 C11.863,3.539 12.417,4.401 12.417,5.067 C12.417,5.511 12.232,6.867 11.863,9.137 L10.893,9.137 C11.227,6.875 11.393,5.647 11.393,5.449 C11.393,5.152 11.367,4.416 10.587,4.303 C9.808,4.19 9.157,4.772 8.886,5.067 L8.304,9.18 L7.321,9.18 L8.521,1.168 L8.52,1.168 Z" id="Shape"></path>
            </g>
            <g id="Group" transform="translate(116.586000, 154.677000)" fill="#FFFFFF" fill-rule="nonzero">
                <path d="M57.235,11.878 L54.731,11.878 L54.731,3.804 L57.235,3.804 L57.235,11.878 Z M57.235,16.126 L54.731,16.126 L54.731,13.956 L57.235,13.956 L57.235,16.126 Z" id="Shape"></path>
                <path d="M32.763,6.52 L34.766,6.52 L34.866,7.979 C35.686,6.755 36.751,6.211 38.059,6.347 C38.816,6.425 40.414,6.673 40.89,8.824 C41.065,9.612 41.027,10.944 41.014,12.755 C41.009,13.458 41.009,14.675 41.014,16.406 L38.816,16.406 L38.816,10.213 C38.816,9.485 38.613,8.673 38.002,8.364 C37.162,7.941 35.582,8.119 34.948,9.184 L34.948,16.406 L32.763,16.406 L32.763,6.52 Z M24.997,9.335 C24.2866743,9.33034264 23.5763257,9.33034264 22.866,9.335 C22.866,8.265 23.631,6.326 26.692,6.326 C29.754,6.326 30.489,8.43 30.572,8.882 C30.655,9.335 30.359,15.685 30.999,16.407 L28.725,16.409 C28.537,15.766 28.443,15.291 28.443,14.983 C28.088,15.417 27.478,16.208 26.54,16.499 C25.602,16.789 23.472,16.946 22.6,14.902 C22.025,13.555 22.392,12.039 23.472,11.345 C25.257,10.198 27.711,10.582 28.442,10.582 C28.537,8.536 27.926,8.06 26.54,8.06 C25.616,8.06 25.101,8.485 24.997,9.335 Z M28.442,11.98 C27.693314,11.9635436 26.9443005,11.9698799 26.196,11.999 C25.303,12.078 24.508,12.738 24.576,13.679 C24.656,14.799 25.932,15.006 26.93,14.682 C27.767,14.41 28.351,13.71 28.442,13.412 L28.442,11.98 Z M50.035,7.407 L50.258,6.15 L52.073,6.15 L52.073,16.21 C52.08,19.717 48.143,21.06 44.525,19.309 C44.733,18.274 44.847,17.696 44.867,17.574 C46.443,18.1 50.366,19.418 49.867,15.052 C47.615,17.359 45.066,15.962 44.185,14.422 C43.212,12.721 42.578,7.648 45.709,6.28 C47.512,5.492 48.954,5.867 50.035,7.407 Z M49.846,8.941 C49.418,8.293 49.144,7.752 47.705,7.752 C46.266,7.752 45.365,9.517 45.678,12.227 C45.99,14.937 48.931,14.937 49.846,13.223 L49.846,8.941 Z M12.24,2.132 L14.353,2.132 C14.392,5.596 14.411,7.484 14.411,7.794 C14.926,6.994 16.421,5.904 18.014,6.398 C20.544,7.181 20.428,8.831 20.544,9.938 C20.62,10.676 20.62,12.832 20.544,16.406 L18.352,16.406 C18.412,13.456 18.412,11.36 18.352,10.118 C18.432,7.967 15.756,7.319 14.352,9.242 L14.412,16.406 L12.239,16.406 L12.239,2.132 L12.24,2.132 Z M10.849,3.056 L10.849,4.736 L6.722,4.736 L6.722,16.306 L4.432,16.306 L4.432,4.736 L0.562,4.736 L0.562,3.056 L10.849,3.056 Z M27.958,2.923 L29.606,2.923 C29.526,3.71 28.974,4.966 26.7,4.966 C24.426,4.966 23.634,3.54 23.807,2.923 L25.419,2.9 C25.549,3.538 25.979,3.857 26.708,3.857 C27.437,3.857 27.854,3.546 27.958,2.923 Z M26.101,2.6 L27.286,2.6 L28.728,0.876 L27.135,0.876 L26.101,2.6 Z" id="Shape"></path>
            </g>
        </g>
    </g>
</svg>