<svg width="299" height="199" xmlns="http://www.w3.org/2000/svg"><g transform="translate(2 2)" fill="none" fill-rule="evenodd"><path stroke="#C2C2C2" stroke-width="2.423" fill="#F1F2F2" d="M0 0h295v195H0z"/><path d="M2 54.29h291M2 74.618h291M2 94.908h291M2 135.526h291M2 155.816h291M2 176.106h291M37.127 34v160M73.943 34v160M110.76 34v160m36.816-160v160m36.816-160v160m36.816-160v160m36.816-160v160" stroke="#DFDEDE" stroke-width="1.211"/><path d="M20.45 153v-9.953h3.246c1.04 0 1.853.224 2.44.673.589.45.883 1.122.883 2.02 0 .442-.142.838-.424 1.186a2.51 2.51 0 0 1-1.115.776c.602.128 1.075.422 1.419.882.344.46.516.996.516 1.606 0 .912-.295 1.608-.885 2.089-.59.48-1.391.721-2.403.721h-3.678zm1.346-4.669v3.616h2.331c.61 0 1.087-.151 1.429-.454.341-.303.512-.733.512-1.289 0-.583-.142-1.041-.427-1.374-.285-.333-.723-.499-1.316-.499h-2.53zm0-1.053h2.18c.502 0 .91-.138 1.224-.413.315-.276.472-.66.472-1.152 0-.538-.17-.94-.51-1.207-.339-.266-.828-.4-1.466-.4h-1.9v3.172zM33.69 153c-.045-.223-.08-.42-.106-.591a4.34 4.34 0 0 1-.044-.516 3.14 3.14 0 0 1-.98.892c-.404.239-.838.359-1.303.359-.77 0-1.357-.198-1.76-.592-.404-.394-.605-.937-.605-1.63 0-.707.286-1.26.858-1.658.571-.399 1.347-.598 2.327-.598h1.463v-.731c0-.433-.132-.776-.396-1.03-.265-.252-.638-.379-1.122-.379-.432 0-.785.11-1.056.332-.27.22-.406.486-.406.796h-1.286l-.013-.04c-.028-.538.226-1.03.762-1.477.535-.447 1.227-.67 2.075-.67.838 0 1.513.213 2.023.639.51.426.766 1.04.766 1.842v3.562c0 .264.013.52.04.765.028.246.078.488.151.725H33.69zm-2.235-.984c.488 0 .927-.126 1.32-.376.391-.251.647-.538.765-.862v-1.203h-1.51c-.543 0-.977.137-1.303.41-.326.274-.489.595-.489.964 0 .328.103.588.308.78.205.19.508.287.91.287zm2.488-9.092l.014.04c.027.406-.146.74-.52.999-.373.26-.877.39-1.51.39-.638 0-1.144-.13-1.518-.39-.374-.26-.544-.593-.513-.998l.014-.041h1.032c0 .232.079.42.236.564.157.143.407.215.749.215.332 0 .579-.072.738-.215a.723.723 0 0 0 .24-.564h1.038zm-1.674-1.497h1.06l.013.034-1.087 1.312h-.725l.739-1.346zm6.35 2.392v1.785h1.402v.998h-1.402v4.49c0 .347.072.59.215.732.144.141.334.212.571.212a1.569 1.569 0 0 0 .506-.096l.178.923c-.1.082-.247.15-.441.202a2.229 2.229 0 0 1-.585.079c-.546 0-.982-.166-1.305-.496-.324-.33-.486-.849-.486-1.555v-4.491h-1.175v-.998h1.175v-1.785h1.347zm13.836.766h-1.347V153h-1.1l-.157-.91a2.397 2.397 0 0 1-.89.787c-.35.178-.758.267-1.223.267-.902 0-1.608-.327-2.119-.981-.51-.654-.765-1.515-.765-2.581v-.144c0-1.189.254-2.148.762-2.877.508-.73 1.22-1.094 2.136-1.094.433 0 .817.08 1.152.24.335.159.62.391.858.696v-1.818h-1.689v-1.06h1.689v-1.19h1.346v1.19h1.347v1.06zm-6.255 4.997c0 .747.153 1.346.458 1.794.306.45.78.674 1.422.674.401 0 .738-.091 1.012-.274.273-.182.497-.437.67-.765v-3.452a2.073 2.073 0 0 0-.674-.728c-.275-.18-.607-.27-.994-.27-.647 0-1.125.266-1.432.8-.308.533-.462 1.225-.462 2.077v.144zM57.87 153c-.046-.223-.082-.42-.107-.591a4.34 4.34 0 0 1-.044-.516 3.14 3.14 0 0 1-.981.892c-.404.239-.838.359-1.302.359-.77 0-1.357-.198-1.76-.592-.404-.394-.606-.937-.606-1.63 0-.707.286-1.26.858-1.658.572-.399 1.348-.598 2.328-.598h1.463v-.731c0-.433-.132-.776-.397-1.03-.264-.252-.638-.379-1.12-.379-.434 0-.786.11-1.057.332-.271.22-.407.486-.407.796h-1.285l-.014-.04c-.027-.538.227-1.03.763-1.477.535-.447 1.227-.67 2.074-.67.839 0 1.513.213 2.024.639.51.426.765 1.04.765 1.842v3.562c0 .264.014.52.041.765.028.246.078.488.15.725H57.87zm-2.236-.984c.487 0 .927-.126 1.32-.376.391-.251.646-.538.765-.862v-1.203h-1.511c-.542 0-.976.137-1.302.41-.326.274-.489.595-.489.964 0 .328.103.588.308.78.205.19.508.287.909.287zm3.021-7.657l-.013.041h-1.36l-1.142-1.073-1.142 1.073h-1.353l-.014-.04 1.969-1.757h1.08l1.975 1.756zm-4.552-1.162h-1.005l-1.388-1.777h1.436l.957 1.777zm11.614 8.71c-.233.396-.531.701-.896.915a2.45 2.45 0 0 1-1.264.322c-.807 0-1.436-.258-1.887-.773-.451-.515-.677-1.317-.677-2.406v-4.361h1.347v4.375c0 .788.116 1.33.348 1.626.233.297.595.445 1.087.445.479 0 .874-.097 1.186-.29.313-.194.548-.469.708-.824v-5.332h1.347V153h-1.21l-.09-1.094z" fill="#2A3052" fill-rule="nonzero"/><path d="M2 115.5h291" stroke="#2A3052" stroke-width="1.211" stroke-linejoin="round"/><path d="M0 32.5h295" stroke="#C2C2C2" stroke-width="2.423"/><path stroke="#2A3052" stroke-width="3.634" stroke-linecap="round" stroke-linejoin="round" d="M38 114.479l28.385-26.24 38.636 38.911 35.369-51.021L190.627 131l42.165-73L259 73.96"/><path d="M186.298 146.29h-34.925L146 138l-5.373 8.29h-34.925a4.69 4.69 0 0 0-3.345 1.43 4.829 4.829 0 0 0-1.357 3.415v25.02c-.016 2.653 2.086 4.82 4.702 4.845h80.596a4.69 4.69 0 0 0 3.345-1.43 4.829 4.829 0 0 0 1.357-3.415v-25.02c.016-2.654-2.086-4.82-4.702-4.845z" fill="#E88024"/><ellipse cx="8.512" cy="8.677" rx="8.137" ry="8.486" opacity=".6" transform="translate(250 66)" fill="#FFF"/><ellipse stroke="#E88024" stroke-width="2.423" cx="258" cy="74.5" rx="8" ry="8.5"/><ellipse cx="9.037" cy="9.076" rx="8.137" ry="8.486" opacity=".6" transform="translate(28 106)" fill="#FFF"/><ellipse stroke="#E88024" stroke-width="2.423" cx="37" cy="115.5" rx="8" ry="8.5"/><path d="M23.04 21.469h4.429V23h-6.426v-9.953h1.996v8.422zm8.688 1.675c-1.067 0-1.92-.342-2.557-1.026-.638-.683-.957-1.552-.957-2.604v-.274c0-1.098.302-2.003.906-2.714.603-.71 1.414-1.064 2.43-1.06.998 0 1.773.302 2.324.903.551.602.827 1.415.827 2.44v1.087h-4.416l-.014.041c.037.488.2.89.49 1.204.289.314.682.471 1.178.471.443 0 .81-.044 1.101-.133.292-.089.61-.229.957-.42l.54 1.23c-.3.246-.695.45-1.183.612a5.146 5.146 0 0 1-1.626.243zm-.178-6.14c-.37 0-.661.142-.875.425-.214.282-.347.654-.397 1.114l.02.034h2.448V18.4c0-.423-.099-.762-.297-1.015-.199-.253-.498-.38-.9-.38zm2.413-2.85v.158h-1.586l-.957-.91-.95.91h-1.552v-.178l1.928-1.64H32l1.962 1.66zm3.725 1.45l.09 1.06c.245-.38.548-.673.909-.883a2.36 2.36 0 0 1 1.21-.314c.747 0 1.33.234 1.75.704.419.47.628 1.205.628 2.208V23h-2.003v-4.614c0-.497-.1-.85-.3-1.056-.2-.208-.504-.311-.91-.311a1.461 1.461 0 0 0-1.237.615V23H35.83v-7.396h1.86z" fill="#000" fill-rule="nonzero"/><path d="M247.037 132.38l.012.036c-.238.836-.623 1.496-1.154 1.98-.532.485-1.227.727-2.086.727-.856 0-1.545-.358-2.069-1.075-.523-.717-.681-1.585-.474-2.605l.304-1.523c.223-1.129.644-2.007 1.263-2.634.62-.627 1.382-.94 2.288-.94.84 0 1.504.268 1.992.805.489.537.68 1.228.575 2.072l-.012.029h-1.096c.04-.617-.072-1.105-.334-1.462s-.68-.536-1.254-.536c-.539 0-1.016.25-1.432.753-.416.502-.7 1.136-.853 1.901l-.31 1.535c-.165.817-.101 1.484.19 2.001.29.518.74.777 1.345.777.523 0 .938-.149 1.245-.446.306-.296.565-.761.776-1.394h1.084zm3.012-2.952a2.85 2.85 0 0 1 .87-.657 2.313 2.313 0 0 1 1.01-.228c.594 0 1.036.207 1.325.621.289.414.351 1.035.187 1.863l-.796 3.973h-1.131l.797-3.984c.109-.555.087-.95-.065-1.184-.152-.234-.437-.352-.855-.352-.262 0-.528.078-.797.232-.27.154-.512.36-.727.618l-.931 4.67h-1.131l1.828-9.14h1.13l-.714 3.568zm5.367 5.572h-1.137l1.266-6.34h1.137l-1.266 6.34zm.504-7.26l.176-.902c.281-.016.484-.052.61-.109.124-.056.2-.163.228-.319.03-.148-.026-.26-.17-.337-.145-.076-.34-.114-.586-.114l.17-.633c.55 0 .948.095 1.192.284.244.19.33.464.255.824-.05.273-.168.481-.352.624a1.33 1.33 0 0 1-.632.266l-.094.416h-.797zm7.137-.61l-.31 1.53h1.095l-.17.856h-1.096l-.767 3.85c-.067.316-.057.53.029.64.086.112.224.168.416.168.09 0 .198-.009.325-.027.127-.017.228-.036.302-.055l-.006.79c-.113.071-.274.129-.483.174a2.936 2.936 0 0 1-.619.067c-.41 0-.725-.144-.946-.434-.22-.289-.27-.73-.15-1.324l.768-3.85h-.925l.17-.855h.925l.31-1.53h1.132zm2.15 7.87h-1.13l1.265-6.34h1.13l-1.265 6.34zm1.594-7.963h-1.131l.234-1.178h1.131l-.234 1.178zm2.642 8.086c-.797 0-1.4-.296-1.807-.888-.408-.591-.538-1.352-.39-2.282l.041-.258c.149-.937.519-1.697 1.11-2.279.592-.582 1.232-.873 1.92-.873.777 0 1.333.26 1.67.78.335.519.437 1.204.304 2.056l-.117.72h-3.82c-.086.65-.027 1.165.178 1.547.205.383.556.575 1.052.575a2.714 2.714 0 0 0 1.752-.627l.322.75a2.9 2.9 0 0 1-.914.556c-.371.149-.805.223-1.3.223zm.733-5.672c-.328 0-.646.164-.952.492a2.857 2.857 0 0 0-.66 1.22l.018.034h2.607l.024-.152c.074-.473.03-.857-.135-1.151-.164-.295-.465-.443-.902-.443zm1.998-2.097l-.03.146h-.914l-.609-.867-.955.867h-.914l.035-.152 1.635-1.389h.668l1.084 1.395zM276.68 135l.1-.867a2.63 2.63 0 0 1-.853.738 2.207 2.207 0 0 1-1.046.252c-.606 0-1.054-.225-1.345-.674-.29-.449-.345-1.133-.161-2.05l.744-3.739h1.131l-.75 3.75c-.145.719-.152 1.194-.023 1.427.128.232.388.349.779.349.348 0 .663-.086.946-.258a2.22 2.22 0 0 0 .718-.715l.908-4.553h1.131l-1.266 6.34h-1.013z" fill="#6D6E71" fill-rule="nonzero"/><path d="M236.83 100.509h-1.163V105h-1.347v-9.953h1.347v4.402h1.04l3.56-4.402h1.49l.021.034-3.862 4.778 4.143 5.107-.02.034h-1.607l-3.603-4.491zm9.31 4.635c-1.03 0-1.85-.343-2.458-1.03-.608-.685-.912-1.575-.912-2.669v-.3c0-1.053.313-1.93.94-2.629.626-.7 1.368-1.05 2.225-1.05.998 0 1.752.302 2.262.903.51.602.766 1.404.766 2.406v.841h-4.799l-.02.034c.013.711.193 1.296.54 1.754.346.458.831.687 1.456.687.455 0 .855-.065 1.2-.195.343-.13.64-.309.891-.537l.527.875c-.265.26-.613.477-1.046.65-.433.173-.957.26-1.572.26zm-.205-6.618c-.452 0-.837.19-1.156.571-.319.38-.515.858-.588 1.432l.014.034h3.411v-.177c0-.529-.141-.971-.424-1.326-.282-.356-.701-.534-1.257-.534zm-.609-4.047h1.08l1.969 1.757-.014.041h-1.353l-1.142-1.073-1.141 1.073h-1.36l-.014-.04 1.975-1.758zm3.534-1.182h1.443l-1.395 1.777h-1.005l.957-1.777zm3.391 2.522v1.785h1.401v.998h-1.401v4.49c0 .347.072.59.215.732.144.141.334.212.571.212a1.569 1.569 0 0 0 .506-.096l.178.923c-.1.082-.248.15-.441.202a2.229 2.229 0 0 1-.585.079c-.547 0-.982-.166-1.305-.496-.324-.33-.486-.849-.486-1.555v-4.491h-1.175v-.998h1.175v-1.785h1.347zm8.32 0v1.785h1.4v.998h-1.4v4.49c0 .347.071.59.215.732.143.141.333.212.57.212a1.569 1.569 0 0 0 .506-.096l.178.923c-.1.082-.247.15-.44.202a2.229 2.229 0 0 1-.585.079c-.547 0-.982-.166-1.306-.496-.324-.33-.485-.849-.485-1.555v-4.491h-1.176v-.998h1.176v-1.785h1.346zm4.408 2.776c.256-.356.569-.633.94-.83a2.579 2.579 0 0 1 1.234-.298c.789 0 1.403.237 1.843.71.44.475.66 1.204.66 2.188V105h-1.347v-4.648c0-.611-.131-1.062-.393-1.354-.263-.292-.653-.437-1.173-.437-.374 0-.712.087-1.015.263a2.199 2.199 0 0 0-.749.714V105h-1.346V94.336h1.346v4.259zm11.307 5.311c-.232.397-.53.702-.895.916a2.45 2.45 0 0 1-1.265.322c-.807 0-1.436-.258-1.887-.773-.45-.515-.676-1.317-.676-2.406v-4.361h1.346v4.375c0 .788.116 1.33.349 1.626.232.297.595.445 1.087.445.478 0 .874-.097 1.186-.29.312-.194.548-.469.707-.824v-5.332h1.347V105h-1.21l-.089-1.094zm-1.06-9.016h1.573l.014.04-1.846 1.778h-1.005l1.265-1.818zm7.329 9.2c.446 0 .84-.137 1.179-.413.34-.275.51-.614.51-1.015h1.21l.013.041c.023.638-.261 1.204-.851 1.699a3.112 3.112 0 0 1-2.061.742c-1.076 0-1.898-.351-2.468-1.053-.57-.702-.855-1.584-.855-2.646v-.287c0-1.053.286-1.93.858-2.635.572-.704 1.394-1.056 2.465-1.056.866 0 1.573.255 2.122.765.55.51.815 1.137.797 1.88l-.014.041h-1.217c0-.45-.16-.835-.478-1.152-.32-.316-.723-.475-1.21-.475-.707 0-1.211.254-1.514.763-.304.508-.455 1.13-.455 1.87v.286c0 .757.15 1.387.451 1.89.3.504.807.756 1.518.756z" fill="#2A3052" fill-rule="nonzero"/><path d="M127.64 157.776h-4.426V171h-3.137v-13.224h-4.404v-2.417h11.967v2.417zm4.554 3.073c.366-.53.813-.944 1.343-1.241a3.54 3.54 0 0 1 1.762-.446c1.21 0 2.16.403 2.852 1.209.691.805 1.036 2.05 1.036 3.733V171h-3.136v-6.918c0-.902-.16-1.541-.478-1.917-.319-.376-.793-.564-1.424-.564-.43 0-.809.077-1.138.23-.33.155-.602.371-.817.65V171h-3.136v-16.758h3.136v6.607zM148.372 171a6.597 6.597 0 0 1-.295-.838 5.829 5.829 0 0 1-.178-.902 4.323 4.323 0 0 1-1.273 1.407c-.526.372-1.154.559-1.885.559-1.217 0-2.155-.314-2.814-.94-.66-.627-.989-1.481-.989-2.562 0-1.139.44-2.022 1.316-2.648.878-.627 2.158-.94 3.84-.94h1.752v-.924c0-.559-.147-.992-.44-1.3-.294-.308-.728-.462-1.3-.462-.509 0-.901.124-1.177.37-.276.248-.413.59-.413 1.027l-3.03-.011-.01-.065c-.05-.98.376-1.827 1.278-2.54.902-.713 2.087-1.069 3.556-1.069 1.389 0 2.517.353 3.383 1.058.867.706 1.3 1.71 1.3 3.013v4.802c0 .544.041 1.056.124 1.536.082.48.213.956.392 1.429h-3.137zm-2.868-2.095c.551 0 1.042-.136 1.472-.408.43-.272.72-.587.87-.945v-1.644h-1.751c-.666 0-1.171.167-1.515.5a1.62 1.62 0 0 0-.516 1.208c0 .387.13.698.387.935.258.236.609.354 1.053.354zm4.179-13.803l.021.064c.043.752-.272 1.366-.945 1.842-.673.477-1.576.715-2.707.715-1.139 0-2.045-.238-2.718-.715-.673-.476-.985-1.09-.935-1.842l.022-.064h2.277c0 .308.11.562.328.762.218.2.56.301 1.026.301.45 0 .788-.1 1.01-.3a.983.983 0 0 0 .333-.763h2.288zm-3.17-2.428h2.203l.021.054-1.826 1.976h-1.719l1.322-2.03zm9.722 6.703l.14 1.665a4.251 4.251 0 0 1 1.429-1.386c.565-.33 1.2-.494 1.901-.494 1.175 0 2.091.369 2.75 1.107.659.737.988 1.894.988 3.47V171h-3.147v-7.251c0-.78-.158-1.334-.473-1.66-.315-.325-.791-.488-1.428-.488a2.42 2.42 0 0 0-1.118.252c-.33.168-.605.406-.827.714V171h-3.137v-11.623h2.922zm9.067 5.908c0-1.833.399-3.312 1.198-4.436.798-1.125 1.917-1.687 3.356-1.687.652 0 1.225.147 1.72.44.493.294.916.713 1.267 1.257l.247-1.482h2.707v11.57c0 1.51-.496 2.68-1.488 3.507s-2.372 1.24-4.141 1.24c-.587 0-1.21-.08-1.87-.241a8.68 8.68 0 0 1-1.825-.661l.58-2.342c.48.23.968.403 1.466.521a7.04 7.04 0 0 0 1.627.177c.86 0 1.492-.179 1.896-.537.405-.358.607-.916.607-1.675v-1.053c-.343.437-.748.77-1.213.999-.466.229-1 .344-1.601.344-1.425 0-2.537-.525-3.335-1.574-.799-1.05-1.198-2.43-1.198-4.141v-.226zm3.136.226c0 1.017.172 1.817.516 2.4.344.584.902.876 1.676.876.48 0 .886-.088 1.22-.263.332-.176.599-.432.8-.768v-5.049c-.201-.35-.468-.623-.8-.816-.334-.194-.733-.29-1.199-.29-.766 0-1.326.34-1.68 1.02-.355.68-.533 1.568-.533 2.664v.226z" fill="#FFF" fill-rule="nonzero"/></g></svg>