<svg id="Layer_1" data-name="Layer 1" xmlns="http://www.w3.org/2000/svg" viewBox="0 0 50 25.93"><defs><style>.cls-1,.cls-18,.cls-42{fill:#dedede;}.cls-19,.cls-2,.cls-26,.cls-36,.cls-43,.cls-9{fill:#f2f2f2;}.cls-17,.cls-3,.cls-33,.cls-40{fill:#f4f4f4;}.cls-11,.cls-14,.cls-15,.cls-22,.cls-23,.cls-27,.cls-31,.cls-32,.cls-34,.cls-35,.cls-39,.cls-4,.cls-5{fill:none;}.cls-22,.cls-34,.cls-4{stroke:#414042;}.cls-12,.cls-16,.cls-17,.cls-18,.cls-19,.cls-20,.cls-22,.cls-23,.cls-24,.cls-25,.cls-26,.cls-28,.cls-29,.cls-33,.cls-34,.cls-35,.cls-36,.cls-37,.cls-4,.cls-40,.cls-41,.cls-42,.cls-43,.cls-5,.cls-6,.cls-8,.cls-9{stroke-miterlimit:10;}.cls-13,.cls-4{stroke-width:0.04px;}.cls-16,.cls-17,.cls-18,.cls-19,.cls-20,.cls-23,.cls-25,.cls-26,.cls-29,.cls-33,.cls-35,.cls-36,.cls-37,.cls-40,.cls-41,.cls-42,.cls-43,.cls-5,.cls-8,.cls-9{stroke:#c2c2c2;}.cls-16,.cls-17,.cls-18,.cls-19,.cls-20,.cls-5{stroke-width:0.15px;}.cls-24,.cls-6{fill:#ed1c24;stroke:#be1e2d;}.cls-12,.cls-14,.cls-6,.cls-8,.cls-9{stroke-width:0.03px;}.cls-13,.cls-16,.cls-21,.cls-25,.cls-30,.cls-37,.cls-38,.cls-41,.cls-7,.cls-8{fill:#fff;}.cls-10{fill:#231f20;}.cls-11,.cls-13,.cls-15,.cls-27,.cls-30,.cls-32,.cls-38{stroke:#2bb673;}.cls-11,.cls-13,.cls-14,.cls-15,.cls-27,.cls-30,.cls-31,.cls-32,.cls-38,.cls-39{stroke-linejoin:round;}.cls-11{stroke-width:0.02px;}.cls-12,.cls-28{fill:#2b3990;stroke:#262262;}.cls-14,.cls-31,.cls-39{stroke:#ed1c24;}.cls-15{stroke-width:0.04px;}.cls-20,.cls-29{fill:#376c8c;}.cls-21{opacity:0.2;isolation:isolate;}.cls-22,.cls-30{stroke-width:0.03px;}.cls-23,.cls-29,.cls-33,.cls-41,.cls-42,.cls-43{stroke-width:0.1px;}.cls-24,.cls-25,.cls-26,.cls-28,.cls-31{stroke-width:0.02px;}.cls-27{stroke-width:0.01px;}.cls-32{stroke-width:0.03px;}.cls-34,.cls-38{stroke-width:0.04px;}.cls-35,.cls-40{stroke-width:0.14px;}.cls-36,.cls-37,.cls-39{stroke-width:0.03px;}</style></defs><title>PC-MT5</title><rect class="cls-1" x="11.91" y="25.4" width="11.29" height="0.54"/><path class="cls-1" d="M22.62,24.74H12.49a.26.26,0,0,0-.22.12l-.36.54H23.2l-.36-.54A.26.26,0,0,0,22.62,24.74Z"/><rect class="cls-1" width="35.11" height="20.83" rx="0.52" ry="0.52"/><rect class="cls-2" x="1.3" y="1.3" width="32.51" height="18.23"/><rect class="cls-2" x="15.54" y="20.83" width="4.14" height="4.41"/><circle class="cls-2" cx="34.35" cy="20.16" r="0.33"/><rect class="cls-3" x="1.3" y="1.3" width="32.49" height="18.23"/><rect x="4.19" y="1.3" width="14.79" height="7.84"/><line class="cls-4" x1="17.75" y1="1.3" x2="17.75" y2="9.14"/><line class="cls-4" x1="16.52" y1="1.3" x2="16.52" y2="9.14"/><line class="cls-4" x1="15.29" y1="1.3" x2="15.29" y2="9.14"/><line class="cls-4" x1="14.05" y1="1.3" x2="14.05" y2="9.14"/><line class="cls-4" x1="12.82" y1="1.3" x2="12.82" y2="9.14"/><line class="cls-4" x1="11.59" y1="1.3" x2="11.59" y2="9.14"/><line class="cls-4" x1="10.36" y1="1.3" x2="10.36" y2="9.14"/><line class="cls-4" x1="9.12" y1="1.3" x2="9.12" y2="9.14"/><line class="cls-4" x1="7.89" y1="1.3" x2="7.89" y2="9.14"/><line class="cls-4" x1="6.66" y1="1.3" x2="6.66" y2="9.14"/><line class="cls-4" x1="5.42" y1="1.3" x2="5.42" y2="9.14"/><line class="cls-4" x1="18.98" y1="1.95" x2="4.19" y2="1.95"/><line class="cls-4" x1="18.98" y1="2.61" x2="4.19" y2="2.61"/><line class="cls-4" x1="18.98" y1="3.26" x2="4.19" y2="3.26"/><line class="cls-4" x1="18.98" y1="3.91" x2="4.19" y2="3.91"/><line class="cls-4" x1="18.98" y1="4.57" x2="4.19" y2="4.57"/><line class="cls-4" x1="18.98" y1="5.22" x2="4.19" y2="5.22"/><line class="cls-4" x1="18.98" y1="5.87" x2="4.19" y2="5.87"/><line class="cls-4" x1="18.98" y1="6.53" x2="4.19" y2="6.53"/><line class="cls-4" x1="18.98" y1="7.18" x2="4.19" y2="7.18"/><line class="cls-4" x1="18.98" y1="7.83" x2="4.19" y2="7.83"/><line class="cls-4" x1="18.98" y1="8.48" x2="4.19" y2="8.48"/><rect class="cls-5" x="4.19" y="1.3" width="14.79" height="7.84"/><polygon class="cls-6" points="5 2.8 5 2.55 4.46 2.55 4.46 3.25 5.62 3.25 5.62 2.8 5 2.8"/><path class="cls-7" d="M5.07,3.16a.06.06,0,0,0,0,0,.11.11,0,0,0,0-.07h0l0,0h0a.1.1,0,0,1-.07,0A.12.12,0,0,1,5,2.9a.09.09,0,0,1,.07,0,.1.1,0,0,1,.08,0,.13.13,0,0,1,0,.09v.07a.13.13,0,0,1,0,.09.1.1,0,0,1-.08,0H5v0h.06Zm0-.11h0l0,0V3a.1.1,0,0,0,0-.06l0,0,0,0A.08.08,0,0,0,5,3,.08.08,0,0,0,5,3Z"/><path class="cls-7" d="M5.4,3.08h0v0h0v.07h0V3.12H5.22v0l.14-.22h0Zm-.14,0h.09V2.94h0Z"/><path class="cls-7" d="M5.49,2.94h0v0h0v0h0a0,0,0,0,1,0,0v0h0Zm0,0h0Z"/><path class="cls-7" d="M4.69,3.16v0h0V3.12h0v0Zm0,0h0v0h0Z"/><path class="cls-7" d="M4.72,3.19h0Z"/><path class="cls-7" d="M4.75,3.18h0v0h0v0h0v0a0,0,0,0,1,0,0h0Zm0,0h0Z"/><path class="cls-7" d="M4.84,3.12l0,0v0h0v0l0,0h0Z"/><path class="cls-7" d="M4.63,2.71h0v0h0a0,0,0,0,1,0,0h0v0H4.59a0,0,0,0,1,0,0h.06Z"/><path class="cls-7" d="M4.72,2.69h0v0h0v-.1h0v0h0Z"/><path class="cls-7" d="M4.76,2.73h0v-.1h0Z"/><path class="cls-7" d="M4.83,2.73h0v-.1h0Z"/><polygon class="cls-6" points="6.31 2.8 6.31 2.55 6.84 2.55 6.84 3.25 5.68 3.25 5.68 2.8 6.31 2.8"/><path class="cls-7" d="M6.29,3.16l0,0a.11.11,0,0,0,0-.07h0l0,0h0a.1.1,0,0,1-.07,0,.12.12,0,0,1,0-.15.09.09,0,0,1,.07,0,.1.1,0,0,1,.08,0A.13.13,0,0,1,6.4,3v.07a.13.13,0,0,1,0,.09.1.1,0,0,1-.08,0H6.22v0h.06ZM6.3,3h0l0,0V3a.1.1,0,0,0,0-.06l0,0,0,0a.08.08,0,0,0,0,.05.08.08,0,0,0,0,.05Z"/><path class="cls-7" d="M6.64,3a.07.07,0,0,1,0,0l0,0,0,0a.07.07,0,0,1,0,0,.08.08,0,0,1,0,.07l-.07,0-.07,0a.08.08,0,0,1,0-.07.08.08,0,0,1,0,0l0,0,0,0a.07.07,0,0,1,0,0,.08.08,0,0,1,0-.06l.07,0,.07,0A.08.08,0,0,1,6.64,3Zm0,.15a.06.06,0,0,0,0,0l0,0,0,0a.06.06,0,0,0,0,0,.05.05,0,0,0,0,0l0,0,0,0A.05.05,0,0,0,6.61,3.1ZM6.6,3a.05.05,0,0,0,0,0l0,0h0a.05.05,0,0,0,0,0,.05.05,0,0,0,0,0h.07A.06.06,0,0,0,6.6,3Z"/><path class="cls-7" d="M6.72,2.94h0v0h0v0h0a0,0,0,0,1,0,0v0h0Zm0,0h0Z"/><path class="cls-7" d="M5.91,3.16a0,0,0,0,1,0,0h0a0,0,0,0,1,0,0v0a0,0,0,0,1,0,0h0a0,0,0,0,1,0,0Zm0,0h0v0h0Z"/><path class="cls-7" d="M5.94,3.19h0Z"/><path class="cls-7" d="M6,3.18H6v0H6v0H6a0,0,0,0,1,0,0v0H6Zm0,0H6Z"/><path class="cls-7" d="M6.06,3.12l0,0v0H6v0l0,0h0Z"/><path class="cls-7" d="M6.46,2.74v-.1h.06a0,0,0,0,1,0,0h0v0a0,0,0,0,1,0,0H6.46Zm0-.06h0Zm0,0v0h0Z"/><path class="cls-7" d="M6.62,2.64v.07a0,0,0,0,1,0,0H6.55a0,0,0,0,1,0,0V2.64h0v.08h0V2.64Z"/><path class="cls-7" d="M6.67,2.69l0,0h0l0,.06v0h0v0l0-.06h0Z"/><rect class="cls-8" x="5.05" y="2.55" width="1.2" height="0.2"/><rect class="cls-9" x="5.05" y="2.55" width="0.22" height="0.2"/><polygon class="cls-10" points="5.22 2.63 5.16 2.7 5.11 2.63 5.22 2.63"/><rect class="cls-9" x="6.03" y="2.55" width="0.22" height="0.2"/><polygon class="cls-10" points="6.2 2.63 6.14 2.7 6.08 2.63 6.2 2.63"/><path class="cls-11" d="M4.22,8l.07-.2.07.2.07-.3.07.2.07.1.07-.1.07-.2.07.4.07-.2h.07l.14-.3.07.3.07-.6.07-.2H5.4L5.47,7l.07-1.61.07.4h.07l.07-.6.07.1H6l.07.2.07-.1.07.3.07-.1.07-.1h.07l.07.5.14.2h.14l.07-.1H7l.07.4.07-.3.07.3.07-.1h.07l.07.2.07.1.07-.1.07-.1H7.7l.07.2.07.3.07-.2.07.1L8,6.79l.07-.1h.07l.07.1.07-.1.07-.1.07.1h.21l.07-.3.07-.1h.07l.07.1.07.1h.14l.07.1.07-.4.07-.1.07.2.07-.2h.07L9.64,6h.07l.07.1.07-.3h.07l.07-.1.07-.1.07.3.07-.3.07.3h.07l.07.4.07-.1h.07l.07-.1.07-.1.07.1.07-.1h.07l.07-.2.07.1h.14l.07-.1h.07l.07-.1.07.2.07-.2h.07l.07-.1.07.1.07-.3.07.1.07-.3.07.1.07-.1.07.2.07.3h.07l.07-.2.07-.2.07.2.07-.1.07-.1h.21l.07.2.07-.2H13l.07.2.07-.2h.14l.07.3.07.3.07-.2.07-.1.07-.4.07-.3H14l.07.1h.07l.07.2.07-.3.07-.6.07-.1.14-.1h.07l.07.1.14-.1h.07L15,4h.07l.07.1L15.2,4h.07l.28-.1.07.1.07.2.07.4h.14l.07-.1.07.1.07-.1.07.1.07-.3h.21l.21-.1.14.1.07-.1.07-.6.07.1.07-.2.07-.1h.14l.07-.3.07-.1h.07l.07-.1.07.1.07-.1.07.3.07-1,.07.1h.14l.07.1.07.1h.14l.07.1.07-.1h.07l.07.3.07-.3h.07l.07-.1.07.1H19"/><rect x="4.19" y="9.14" width="14.79" height="7.84"/><line class="cls-4" x1="17.75" y1="9.14" x2="17.75" y2="16.98"/><line class="cls-4" x1="16.52" y1="9.14" x2="16.52" y2="16.98"/><line class="cls-4" x1="15.29" y1="9.14" x2="15.29" y2="16.98"/><line class="cls-4" x1="14.05" y1="9.14" x2="14.05" y2="16.98"/><line class="cls-4" x1="12.82" y1="9.14" x2="12.82" y2="16.98"/><line class="cls-4" x1="11.59" y1="9.14" x2="11.59" y2="16.98"/><line class="cls-4" x1="10.36" y1="9.14" x2="10.36" y2="16.98"/><line class="cls-4" x1="9.12" y1="9.14" x2="9.12" y2="16.98"/><line class="cls-4" x1="7.89" y1="9.14" x2="7.89" y2="16.98"/><line class="cls-4" x1="6.66" y1="9.14" x2="6.66" y2="16.98"/><line class="cls-4" x1="5.42" y1="9.14" x2="5.42" y2="16.98"/><line class="cls-4" x1="18.98" y1="9.79" x2="4.19" y2="9.79"/><line class="cls-4" x1="18.98" y1="10.45" x2="4.19" y2="10.45"/><line class="cls-4" x1="18.98" y1="11.1" x2="4.19" y2="11.1"/><line class="cls-4" x1="18.98" y1="11.75" x2="4.19" y2="11.75"/><line class="cls-4" x1="18.98" y1="12.41" x2="4.19" y2="12.41"/><line class="cls-4" x1="18.98" y1="13.06" x2="4.19" y2="13.06"/><line class="cls-4" x1="18.98" y1="13.71" x2="4.19" y2="13.71"/><line class="cls-4" x1="18.98" y1="14.37" x2="4.19" y2="14.37"/><line class="cls-4" x1="18.98" y1="15.02" x2="4.19" y2="15.02"/><line class="cls-4" x1="18.98" y1="15.67" x2="4.19" y2="15.67"/><line class="cls-4" x1="18.98" y1="16.33" x2="4.19" y2="16.33"/><rect class="cls-5" x="4.19" y="9.14" width="14.79" height="7.84"/><polygon class="cls-12" points="5 10.64 5 10.39 4.46 10.39 4.46 11.09 5.62 11.09 5.62 10.64 5 10.64"/><path class="cls-7" d="M5.18,10.91a.14.14,0,0,1,0,.09.09.09,0,0,1-.07,0A.09.09,0,0,1,5,11a.14.14,0,0,1,0-.09v-.07a.14.14,0,0,1,0-.09.09.09,0,0,1,.07,0,.09.09,0,0,1,.07,0,.14.14,0,0,1,0,.09Zm0-.08a.1.1,0,0,0,0-.06l0,0,0,0a.1.1,0,0,0,0,.06v.09A.11.11,0,0,0,5,11l0,0,0,0a.11.11,0,0,0,0-.06Z"/><path class="cls-7" d="M5.4,10.92h0v0h0V11h0V11H5.22v0l.14-.22h0Zm-.14,0h.1v-.15h0Z"/><path class="cls-7" d="M5.52,10.72l0,0v0h0v0l0,0h0Z"/><path class="cls-7" d="M4.7,11h0V11h0Z"/><path class="cls-7" d="M4.78,11a0,0,0,0,1,0,0h0a0,0,0,0,1,0,0v0a0,0,0,0,1,0,0h0a0,0,0,0,1,0,0Zm0,0h0v0h0Z"/><path class="cls-7" d="M4.84,11h0l0,0h0v0h0v0h0l0,0h0Z"/><path class="cls-7" d="M4.63,10.55h0v0h0a0,0,0,0,1,0,0h0v0H4.59a0,0,0,0,1,0,0h.06Z"/><path class="cls-7" d="M4.72,10.53h0v0h0v-.1h0v0h0Z"/><path class="cls-7" d="M4.76,10.57h0v-.1h0Z"/><path class="cls-7" d="M4.83,10.57h0v-.1h0Z"/><polygon class="cls-12" points="6.31 10.64 6.31 10.39 6.84 10.39 6.84 11.09 5.68 11.09 5.68 10.64 6.31 10.64"/><path class="cls-7" d="M6.4,10.91a.14.14,0,0,1,0,.09.09.09,0,0,1-.07,0,.09.09,0,0,1-.07,0,.14.14,0,0,1,0-.09v-.07a.14.14,0,0,1,0-.09.09.09,0,0,1,.07,0,.09.09,0,0,1,.07,0,.14.14,0,0,1,0,.09Zm0-.08a.1.1,0,0,0,0-.06l0,0,0,0a.1.1,0,0,0,0,.06v.09a.11.11,0,0,0,0,.06l0,0,0,0a.11.11,0,0,0,0-.06Z"/><path class="cls-7" d="M6.65,10.75a.47.47,0,0,0-.08.12.56.56,0,0,0,0,.13v0h0v0a.47.47,0,0,1,0-.13.51.51,0,0,1,.07-.11H6.44v0h.21Z"/><path class="cls-7" d="M6.74,10.72l0,0v0h0v0l0,0h0Z"/><path class="cls-7" d="M5.92,11h0V11h0Z"/><path class="cls-7" d="M6,11v0H6V11H6v0Zm0,0H6v0H6Z"/><path class="cls-7" d="M6.06,11H6l0,0H6v0h0v0H6l0,0h0Z"/><path class="cls-7" d="M6.46,10.58v-.1h.06a0,0,0,0,1,0,0h0v0a0,0,0,0,1,0,0H6.46Zm0-.06h0Zm0,0v0h0Z"/><path class="cls-7" d="M6.62,10.48v.07a0,0,0,0,1,0,0H6.55a0,0,0,0,1,0,0v-.07h0v.08h0v-.08Z"/><path class="cls-7" d="M6.67,10.53l0,0h0l0,.06v0h0v0l0-.06h0Z"/><rect class="cls-8" x="5.05" y="10.39" width="1.2" height="0.2"/><rect class="cls-9" x="5.05" y="10.39" width="0.22" height="0.2"/><polygon class="cls-10" points="5.22 10.47 5.16 10.54 5.11 10.47 5.22 10.47"/><rect class="cls-9" x="6.03" y="10.39" width="0.22" height="0.2"/><polygon class="cls-10" points="6.2 10.47 6.14 10.54 6.08 10.47 6.2 10.47"/><path class="cls-13" d="M4.31,15.63V14.52h.08v1.11Zm0-1.11v0m0,1.14v.24"/><path class="cls-13" d="M4.47,14.61v-.09h.08v.09Zm0-.09v-.34m0,.43v0"/><path class="cls-13" d="M4.63,14.6V14h.08v.64Zm0-.64v-.14m0,.78V15"/><path class="cls-13" d="M4.79,14.65V14h.08v.69Zm0-.69v-.22m0,.91h0"/><path class="cls-13" d="M5,14.58V13.23H5v1.35Zm0-1.35v-.4m0,1.75v.29"/><path class="cls-13" d="M5.11,13.22v-.55h.08v.55Zm0-.55v0m0,.6v.2"/><path class="cls-13" d="M5.28,12.77v-.05h.08v.05Zm0-.05v-.26m0,.31V13"/><path class="cls-13" d="M5.43,12.78v-.1h.08v.1Zm0-.1v0m0,.15V13"/><path class="cls-13" d="M5.59,12.73V12h.08v.68Zm0-.68v-.16m0,.84v.11"/><path class="cls-13" d="M5.76,12.12V12h.08v.14Zm0-.14v-.14m0,.28v.3"/><path class="cls-13" d="M5.92,12.86v-.8H6v.8Zm0-.8v-.22m0,1H6"/><path class="cls-13" d="M6.08,12.77v-.29h.08v.29Zm0-.29V12m0,.8v.13"/><path class="cls-13" d="M6.24,12.45V12.3h.08v.15Zm0-.15v-.39m0,.53v.26"/><path class="cls-13" d="M6.4,12.29V12h.08v.25Zm0-.25v-.18m0,.43v0"/><path class="cls-13" d="M6.56,13V12h.08v1Zm0-1v-.16m0,1.16v.08"/><path class="cls-13" d="M6.73,13.06v-.16h.08v.16Zm0-.16v0m0,.2v.57"/><path class="cls-13" d="M6.89,12.89v0H7v0Zm0,0v-.33m0,.36v.17"/><path class="cls-13" d="M7,13.36v-.48h.08v.48Zm0-.48v-.22m0,.7v.07"/><path class="cls-13" d="M7.21,14v-.67h.08V14Zm0-.67v0m0,.72v.31"/><path class="cls-13" d="M7.37,13.92v-.31h.08v.31Zm0-.31v-.33m0,.64v.44"/><path class="cls-13" d="M7.53,13.6v-.67h.08v.67Zm0-.67v-.47m0,1.14v.18"/><path class="cls-13" d="M7.7,13.24v-.29h.08v.29Zm0-.29h0m0,.29v.14"/><path class="cls-13" d="M7.86,13.24V13h.08v.28Zm0-.28v-.15m0,.43v0"/><path class="cls-13" d="M8,13v0H8.1v0Zm0,0v-.17m0,.2v.1"/><path class="cls-13" d="M8.18,13.76v-.85h.08v.85Zm0-.85v-.09m0,.94h0"/><path class="cls-13" d="M8.34,13.8v0h.08v0Zm0,0v-.16m0,.2v.83"/><path class="cls-13" d="M8.5,14v-.22h.08V14Zm0-.22v-.16m0,.38v.15"/><path class="cls-13" d="M8.66,14v-.89h.08V14Zm0-.89V13m0,1v.27"/><path class="cls-13" d="M8.82,13.4v-.26h.08v.26Zm0-.26v-.31m0,.58v.15"/><path class="cls-13" d="M9,13.53v-.15h.08v.15Zm0-.15H9m0,.17v.07"/><path class="cls-13" d="M14,12.48v.7h-.08v-.7Zm0,.7v0m0-.72v-.15"/><path class="cls-13" d="M13.85,13.12v.06h-.08v-.06Zm0,.06v.22m0-.27v0"/><path class="cls-13" d="M13.69,13.13v.4h-.08v-.4Zm0,.4v.09m0-.49v-.25"/><path class="cls-13" d="M13.53,13.1v.44h-.08V13.1Zm0,.44v.14m0-.58h0"/><path class="cls-13" d="M13.36,13.14V14h-.08v-.86Zm0,.86v.25m0-1.11V13"/><path class="cls-13" d="M13.2,14v.35h-.08V14Zm0,.35v0m0-.38v-.13"/><path class="cls-13" d="M13,14.29v0H13v0Zm0,0v.16m0-.2v-.17"/><path class="cls-13" d="M12.88,14.28v.06H12.8v-.06Zm0,.06v0m0-.09v-.16"/><path class="cls-13" d="M12.72,14.32v.43h-.08v-.43Zm0,.43v.1m0-.53v-.07"/><path class="cls-13" d="M12.56,14.7v.09h-.08V14.7Zm0,.09v.09m0-.18v-.19"/><path class="cls-13" d="M12.4,14.24v.51h-.08v-.51Zm0,.51v.14m0-.65h0"/><path class="cls-13" d="M12.24,14.29v.18h-.08v-.18Zm0,.18v.32m0-.5V14.2"/><path class="cls-13" d="M12.07,14.5v.09H12V14.5Zm0,.09v.24m0-.34v-.16"/><path class="cls-13" d="M11.91,14.59v.16h-.08v-.16Zm0,.16v.11m0-.27v0"/><path class="cls-13" d="M11.75,14.12v.63h-.08v-.63Zm0,.63v.1m0-.73v0"/><path class="cls-13" d="M11.59,14.11v.1h-.08v-.1Zm0,.1v0m0-.12v-.36"/><path class="cls-13" d="M11.43,14.21v0h-.08v0Zm0,0v.21m0-.23v-.11"/><path class="cls-13" d="M11.27,13.92v.31h-.08v-.31Zm0,.31v.14m0-.45v0"/><path class="cls-13" d="M11.1,13.53V14H11v-.43Zm0,.43v0m0-.46v-.2"/><path class="cls-13" d="M10.94,13.56v.2h-.08v-.2Zm0,.2V14m0-.41v-.28"/><path class="cls-13" d="M10.78,13.76v.43H10.7v-.43Zm0,.43v.3m0-.72v-.11"/><path class="cls-13" d="M10.62,14v.18h-.08V14Zm0,.18h0m0-.18V13.9"/><path class="cls-13" d="M10.46,14v.18h-.08V14Zm0,.18v.09m0-.27v0"/><path class="cls-13" d="M10.3,14.13v0h-.08v0Zm0,0v.11m0-.13v-.06"/><path class="cls-13" d="M10.14,13.66v.54h-.08v-.54Zm0,.54v.05m0-.6h0"/><path class="cls-13" d="M10,13.64v0H9.9v0Zm0,0v.1m0-.12v-.53"/><path class="cls-13" d="M9.81,13.52v.14H9.73v-.14Zm0,.14v.1m0-.24v-.09"/><path class="cls-13" d="M9.65,13.49v.56H9.57v-.56Zm0,.56v.07m0-.64v-.17"/><path class="cls-13" d="M9.49,13.89v.17H9.41v-.17Zm0,.17v.2m0-.37V13.8"/><path class="cls-13" d="M9.33,13.81v.1H9.25v-.1Zm0,.1h0m0-.11v0"/><path class="cls-13" d="M14.27,12.25v.61h-.08v-.61Zm0,.63v0m0-.74v.13"/><path class="cls-13" d="M14.43,12.81v0h-.08v0Zm0,.24v-.19m0-.07v0"/><path class="cls-13" d="M14.6,12.82v.35h-.08v-.35Zm0,.43v-.08m0-.57v.22"/><path class="cls-13" d="M14.76,12.79v.38h-.08v-.38Zm0,.5v-.12m0-.38h0"/><path class="cls-13" d="M14.92,12.83v.74h-.08v-.74Zm0,1v-.22m0-.9v.16"/><path class="cls-13" d="M15.08,13.58v.3H15v-.3Zm0,.33v0m0-.42v.11"/><path class="cls-13" d="M15.24,13.82v0h-.08v0Zm0,.17v-.14m0-.18v.15"/><path class="cls-13" d="M15.4,13.82v.05h-.08v-.05Zm0,.08v0m0-.2v.14"/><path class="cls-13" d="M15.56,13.85v.37h-.08v-.37Zm0,.46v-.09m0-.44v.06"/><path class="cls-13" d="M15.72,14.18v.07h-.08v-.07Zm0,.15v-.08m0-.24v.16"/><path class="cls-13" d="M15.89,13.78v.44h-.08v-.44Zm0,.56v-.12m0-.44h0"/><path class="cls-13" d="M16,13.82V14H16v-.16Zm0,.44V14m0-.23v.07"/><path class="cls-13" d="M16.21,14v.08h-.08V14Zm0,.29v-.21m0-.22V14"/><path class="cls-13" d="M16.37,14.09v.14h-.08v-.14Zm0,.24v-.1m0-.16v0"/><path class="cls-13" d="M16.53,13.67v.55h-.08v-.55Zm0,.64v-.09m0-.59v0"/><path class="cls-13" d="M16.69,13.67v.09h-.08v-.09Zm0,.11v0m0-.4v.31"/><path class="cls-13" d="M16.86,13.76h0Zm0,.2v-.18m0-.11v.09"/><path class="cls-13" d="M17,13.5v.26h-.08V13.5Zm0,.39v-.12m0-.3v0"/><path class="cls-13" d="M17.18,13.17v.37H17.1v-.37Zm0,.4v0m0-.54v.17"/><path class="cls-13" d="M17.34,13.19v.17h-.08v-.17Zm0,.35v-.18m0-.41v.24"/><path class="cls-13" d="M17.5,13.37v.37h-.08v-.37Zm0,.63v-.26m0-.47v.1"/><path class="cls-13" d="M17.66,13.57v.16h-.08v-.16Zm0,.16h0m0-.24v.08"/><path class="cls-13" d="M17.83,13.57v.15h-.08v-.15Zm0,.24v-.08m0-.18v0"/><path class="cls-13" d="M18,13.69v0H17.9v0Zm0,.11v-.09m0-.07v.05"/><path class="cls-13" d="M18.15,13.28v.47h-.08v-.47Zm0,.52v0m0-.47h0"/><path class="cls-13" d="M18.31,13.26v0h-.08v0Zm0,.11v-.09m0-.48v.46"/><path class="cls-13" d="M18.47,13.15v.12h-.08v-.12Zm0,.21v-.09m0-.2v.08"/><path class="cls-13" d="M18.63,13.13v.49h-.08v-.49Zm0,.55v-.06m0-.64v.15"/><path class="cls-13" d="M18.79,13.48v.14h-.08v-.14Zm0,.32v-.17m0-.23v.08"/><path class="cls-13" d="M19,13.41v.08h-.08v-.08Zm0,.09h0m0-.12v0"/><path class="cls-14" d="M4.24,15.29c.21.09.45-.1.53-.32a3.19,3.19,0,0,0,.07-.68,2.81,2.81,0,0,1,.52-1.16l.24-.37a1.17,1.17,0,0,1,.25-.31.92.92,0,0,1,.65-.14,1.42,1.42,0,0,1,.59.18c.47.28.69.89,1.2,1.08s1-.08,1.51,0a3.1,3.1,0,0,1,1.42.74,1.66,1.66,0,0,0,1.51.38c.57-.23.75-.93,1-1.49a1.33,1.33,0,0,1,.36-.49.6.6,0,0,1,.58-.11c.25.1.35.38.49.6a1.72,1.72,0,0,0,.54.55.82.82,0,0,0,.63.14c.19-.05.33-.2.52-.24s.52.08.78,0,.36-.14.55-.18a.72.72,0,0,1,.75.32"/><rect x="19" y="1.3" width="14.79" height="7.84"/><line class="cls-4" x1="32.56" y1="1.3" x2="32.56" y2="9.14"/><line class="cls-4" x1="31.33" y1="1.3" x2="31.33" y2="9.14"/><line class="cls-4" x1="30.1" y1="1.3" x2="30.1" y2="9.14"/><line class="cls-4" x1="28.86" y1="1.3" x2="28.86" y2="9.14"/><line class="cls-4" x1="27.63" y1="1.3" x2="27.63" y2="9.14"/><line class="cls-4" x1="26.4" y1="1.3" x2="26.4" y2="9.14"/><line class="cls-4" x1="25.16" y1="1.3" x2="25.16" y2="9.14"/><line class="cls-4" x1="23.93" y1="1.3" x2="23.93" y2="9.14"/><line class="cls-4" x1="22.7" y1="1.3" x2="22.7" y2="9.14"/><line class="cls-4" x1="21.47" y1="1.3" x2="21.47" y2="9.14"/><line class="cls-4" x1="20.23" y1="1.3" x2="20.23" y2="9.14"/><line class="cls-4" x1="33.79" y1="1.95" x2="19" y2="1.95"/><line class="cls-4" x1="33.79" y1="2.61" x2="19" y2="2.61"/><line class="cls-4" x1="33.79" y1="3.26" x2="19" y2="3.26"/><line class="cls-4" x1="33.79" y1="3.91" x2="19" y2="3.91"/><line class="cls-4" x1="33.79" y1="4.57" x2="19" y2="4.57"/><line class="cls-4" x1="33.79" y1="5.22" x2="19" y2="5.22"/><line class="cls-4" x1="33.79" y1="5.87" x2="19" y2="5.87"/><line class="cls-4" x1="33.79" y1="6.53" x2="19" y2="6.53"/><line class="cls-4" x1="33.79" y1="7.18" x2="19" y2="7.18"/><line class="cls-4" x1="33.79" y1="7.83" x2="19" y2="7.83"/><line class="cls-4" x1="33.79" y1="8.48" x2="19" y2="8.48"/><rect class="cls-5" x="19" y="1.3" width="14.79" height="7.84"/><polygon class="cls-9" points="19.81 2.8 19.81 2.55 19.27 2.55 19.27 3.25 20.43 3.25 20.43 2.8 19.81 2.8"/><path class="cls-10" d="M19.88,3.16l0,0a.11.11,0,0,0,0-.07h0l0,0h0a.09.09,0,0,1-.07,0,.12.12,0,0,1,0-.15.09.09,0,0,1,.07,0,.1.1,0,0,1,.08,0A.12.12,0,0,1,20,3v.07a.13.13,0,0,1,0,.09.11.11,0,0,1-.08,0h-.06v0h.06Zm0-.11h0l0,0V3a.1.1,0,0,0,0-.06l0,0,0,0a.08.08,0,0,0,0,.05.09.09,0,0,0,0,.05Z"/><path class="cls-10" d="M20.05,3l0-.17h.16v0h-.12V3h0a.08.08,0,0,1,.07,0,.11.11,0,0,1,0,.08.11.11,0,0,1,0,.08.09.09,0,0,1-.07,0l-.07,0a.07.07,0,0,1,0-.06h0a.05.05,0,0,0,0,0h0l0,0a.08.08,0,0,0,0-.05.08.08,0,0,0,0,0l0,0h0l0,0Z"/><path class="cls-10" d="M20.31,2.87h0v0h0v0h0v0h0v0Zm0,0h0v0h0Z"/><path class="cls-10" d="M19.48,3.19h0V3.12h0Z"/><path class="cls-10" d="M19.53,3.19h0Z"/><path class="cls-10" d="M19.57,3.19h0V3.12h0Z"/><path class="cls-10" d="M19.65,3.16v0h0V3.12h0v0Zm0,0h0v0h0Z"/><path class="cls-10" d="M19.44,2.71h0v0h0a0,0,0,0,1,0,0h0v0H19.4a0,0,0,0,1,0,0h.06Z"/><path class="cls-10" d="M19.53,2.69h0v0h0v-.1h0v0h0Z"/><path class="cls-10" d="M19.57,2.73h0v-.1h0Z"/><path class="cls-10" d="M19.64,2.73h0v-.1h0Z"/><polygon class="cls-9" points="21.12 2.8 21.12 2.55 21.65 2.55 21.65 3.25 20.49 3.25 20.49 2.8 21.12 2.8"/><path class="cls-10" d="M21.1,3.16l0,0a.11.11,0,0,0,0-.07h0l0,0h0a.09.09,0,0,1-.07,0,.12.12,0,0,1,0-.15.09.09,0,0,1,.07,0,.1.1,0,0,1,.08,0,.12.12,0,0,1,0,.09v.07a.13.13,0,0,1,0,.09.11.11,0,0,1-.08,0H21v0h.06Zm0-.11h0l0,0V3a.1.1,0,0,0,0-.06l0,0,0,0A.08.08,0,0,0,21,3a.09.09,0,0,0,0,.05Z"/><path class="cls-10" d="M21.45,3a.07.07,0,0,1,0,0l0,0,0,0a.07.07,0,0,1,0,0,.08.08,0,0,1,0,.07l-.07,0-.07,0a.08.08,0,0,1,0-.07.07.07,0,0,1,0,0l0,0,0,0a.07.07,0,0,1,0,0,.08.08,0,0,1,0-.06l.07,0,.07,0A.08.08,0,0,1,21.45,3Zm0,.15a.05.05,0,0,0,0,0l0,0,0,0a.05.05,0,0,0,0,0,.05.05,0,0,0,0,0l0,0,0,0A.05.05,0,0,0,21.42,3.1Zm0-.14a.05.05,0,0,0,0,0l0,0h0a.06.06,0,0,0,0,0,.06.06,0,0,0,0,0h.07A.05.05,0,0,0,21.41,3Z"/><path class="cls-10" d="M21.53,2.87h0v0h0v0h0v0h0v0Zm0,0h0v0h0Z"/><path class="cls-10" d="M20.71,3.19h0V3.12h0Z"/><path class="cls-10" d="M20.75,3.19h0Z"/><path class="cls-10" d="M20.79,3.19h0V3.12h0Z"/><path class="cls-10" d="M20.87,3.16a0,0,0,0,1,0,0h0a0,0,0,0,1,0,0v0a0,0,0,0,1,0,0h0a0,0,0,0,1,0,0Zm0,0h0v0h0Z"/><path class="cls-10" d="M21.27,2.74v-.1h.06v0h0v0h-.06Zm0-.06h0Zm0,0v0h0Z"/><path class="cls-10" d="M21.43,2.64v.07a0,0,0,0,1,0,0h-.05a0,0,0,0,1,0,0V2.64h0v.08h0V2.64Z"/><path class="cls-10" d="M21.48,2.69l0,0h0l0,.06v0h0v0l0-.06h0Z"/><rect class="cls-8" x="19.86" y="2.55" width="1.2" height="0.2"/><rect class="cls-9" x="19.86" y="2.55" width="0.22" height="0.2"/><polygon class="cls-10" points="20.03 2.63 19.97 2.7 19.91 2.63 20.03 2.63"/><rect class="cls-9" x="20.84" y="2.55" width="0.22" height="0.2"/><polygon class="cls-10" points="21.01 2.63 20.95 2.7 20.89 2.63 21.01 2.63"/><path class="cls-13" d="M19.11,7V5.93h.08V7Zm0-1.11v0m0,1.14v.24"/><path class="cls-13" d="M19.28,6V5.93h.08V6Zm0-.09V5.59m0,.43v0"/><path class="cls-13" d="M19.44,6V5.38h.08V6Zm0-.64V5.24m0,.78v.4"/><path class="cls-13" d="M19.6,6.06V5.37h.08v.69Zm0-.69V5.15m0,.91h0"/><path class="cls-13" d="M19.76,6V4.64h.08V6Zm0-1.35v-.4M19.8,6v.29"/><path class="cls-13" d="M19.92,4.63V4.08H20v.55Zm0-.55V4m0,.6v.2"/><path class="cls-13" d="M20.08,4.19V4.13h.08v.05Zm0-.05V3.87m0,.31v.27"/><path class="cls-13" d="M20.24,4.2V4.1h.08v.1Zm0-.1V4m0,.15v.26"/><path class="cls-13" d="M20.4,4.14V3.46h.08v.68Zm0-.68V3.3m0,.84v.11"/><path class="cls-13" d="M20.57,3.53V3.4h.08v.14Zm0-.14V3.26m0,.28v.3"/><path class="cls-13" d="M20.73,4.27v-.8h.08v.8Zm0-.8V3.25m0,1h0"/><path class="cls-13" d="M20.89,4.19V3.9H21v.29Zm0-.29v-.5m0,.8v.13"/><path class="cls-13" d="M21.05,3.86V3.71h.08v.15Zm0-.15V3.33m0,.53v.26"/><path class="cls-13" d="M21.21,3.71V3.45h.08v.25Zm0-.25V3.27m0,.43v0"/><path class="cls-13" d="M21.37,4.46v-1h.08v1Zm0-1V3.3m0,1.16v.08"/><path class="cls-13" d="M21.54,4.47V4.3h.08v.16Zm0-.16v0m0,.2V5"/><path class="cls-13" d="M21.7,4.3v0h.08v0Zm0,0V3.95m0,.36v.17"/><path class="cls-13" d="M21.86,4.77V4.29h.08v.48Zm0-.48V4.06m0,.7v.07"/><path class="cls-13" d="M22,5.38V4.7h.08v.67Zm0-.67v0m0,.72v.31"/><path class="cls-13" d="M22.18,5.33V5h.08v.31Zm0-.31V4.69m0,.64v.44"/><path class="cls-13" d="M22.34,5V4.34h.08V5Zm0-.67V3.87m0,1.14v.18"/><path class="cls-13" d="M22.51,4.65V4.36h.08v.29Zm0-.29h0m0,.29v.14"/><path class="cls-13" d="M22.67,4.65V4.37h.08v.28Zm0-.28V4.22m0,.43v0"/><path class="cls-13" d="M22.83,4.43v0h.08v0Zm0,0V4.23m0,.2v.1"/><path class="cls-13" d="M23,5.18V4.32h.08v.85Zm0-.85V4.24m0,.94h0"/><path class="cls-13" d="M23.15,5.21v0h.08v0Zm0,0V5m0,.2V6"/><path class="cls-13" d="M23.31,5.4V5.19h.08V5.4Zm0-.22V5m0,.38v.15"/><path class="cls-13" d="M23.47,5.44V4.55h.08v.89Zm0-.89V4.44m0,1v.27"/><path class="cls-13" d="M23.63,4.81V4.55h.08v.26Zm0-.26V4.24m0,.58V5"/><path class="cls-13" d="M23.8,4.94V4.79h.08v.15Zm0-.15h0m0,.17V5"/><path class="cls-13" d="M28.82,3.89v.7h-.08v-.7Zm0,.7v0m0-.72V3.74"/><path class="cls-13" d="M28.66,4.54V4.6h-.08V4.54Zm0,.06v.22m0-.27v0"/><path class="cls-13" d="M28.5,4.54v.4h-.08v-.4Zm0,.4V5m0-.49V4.29"/><path class="cls-13" d="M28.33,4.51V5h-.08V4.51Zm0,.44v.14m0-.58h0"/><path class="cls-13" d="M28.17,4.55v.86h-.08V4.55Zm0,.86v.25m0-1.11V4.37"/><path class="cls-13" d="M28,5.42v.35h-.08V5.42Zm0,.35v0m0-.38V5.29"/><path class="cls-13" d="M27.85,5.7v0h-.08v0Zm0,0V5.9m0-.2V5.53"/><path class="cls-13" d="M27.69,5.69v.06h-.08V5.69Zm0,.06v0m0-.09V5.53"/><path class="cls-13" d="M27.53,5.73v.43h-.08V5.73Zm0,.43v.1m0-.53V5.66"/><path class="cls-13" d="M27.37,6.12V6.2h-.08V6.12Zm0,.09v.09m0-.18V5.93"/><path class="cls-13" d="M27.21,5.65v.51h-.08V5.65Zm0,.51V6.3m0-.65h0"/><path class="cls-13" d="M27,5.7v.18H27V5.7Zm0,.18V6.2m0-.5V5.62"/><path class="cls-13" d="M26.88,5.91V6H26.8V5.91Zm0,.09v.24m0-.34V5.74"/><path class="cls-13" d="M26.72,6v.16h-.08V6Zm0,.16v.11m0-.27V6"/><path class="cls-13" d="M26.56,5.53v.63h-.08V5.53Zm0,.63v.1m0-.73v0"/><path class="cls-13" d="M26.4,5.52v.1h-.08v-.1Zm0,.1v0m0-.12V5.16"/><path class="cls-13" d="M26.24,5.63v0h-.08v0Zm0,0v.21m0-.23V5.52"/><path class="cls-13" d="M26.08,5.33v.31H26V5.33Zm0,.31v.14m0-.45v0"/><path class="cls-13" d="M25.91,4.95v.43h-.08V4.95Zm0,.43v0m0-.46v-.2"/><path class="cls-13" d="M25.75,5v.2h-.08V5Zm0,.2v.21m0-.41V4.7"/><path class="cls-13" d="M25.59,5.18V5.6h-.08V5.18Zm0,.43v.3m0-.72V5.06"/><path class="cls-13" d="M25.43,5.41v.18h-.08V5.41Zm0,.18h0m0-.18V5.32"/><path class="cls-13" d="M25.27,5.41v.18h-.08V5.41Zm0,.18v.09m0-.27v0"/><path class="cls-13" d="M25.11,5.55v0H25v0Zm0,0v.11m0-.13V5.48"/><path class="cls-13" d="M24.95,5.07v.54h-.08V5.07Zm0,.54v.05m0-.6h0"/><path class="cls-13" d="M24.79,5.05v0H24.7v0Zm0,0v.1m0-.12V4.52"/><path class="cls-13" d="M24.62,4.93v.14h-.08V4.93Zm0,.14v.1m0-.24V4.83"/><path class="cls-13" d="M24.46,4.91v.56h-.08V4.91Zm0,.56v.07m0-.64V4.74"/><path class="cls-13" d="M24.3,5.3v.17h-.08V5.3Zm0,.17v.2m0-.37V5.21"/><path class="cls-13" d="M24.14,5.22v.1h-.08v-.1Zm0,.1h0m0-.11v0"/><path class="cls-13" d="M29.08,3.66v.61H29V3.66Zm0,.63v0m0-.74v.13"/><path class="cls-13" d="M29.24,4.22v0h-.08v0Zm0,.24V4.27m0-.07v0"/><path class="cls-13" d="M29.41,4.23v.35h-.08V4.23Zm0,.43V4.58m0-.57v.22"/><path class="cls-13" d="M29.57,4.2v.38h-.08V4.2Zm0,.5V4.58m0-.38h0"/><path class="cls-13" d="M29.73,4.24V5h-.08V4.24Zm0,1V5m0-.9v.16"/><path class="cls-13" d="M29.89,5v.3h-.08V5Zm0,.33v0m0-.42V5"/><path class="cls-13" d="M30.05,5.23v0H30v0Zm0,.17V5.26m0-.18v.15"/><path class="cls-13" d="M30.21,5.23v.05h-.08V5.23Zm0,.08v0m0-.2v.14"/><path class="cls-13" d="M30.37,5.26v.37h-.08V5.26Zm0,.46V5.63m0-.44v.06"/><path class="cls-13" d="M30.53,5.59v.07h-.08V5.59Zm0,.15V5.67m0-.24v.16"/><path class="cls-13" d="M30.7,5.19v.44h-.08V5.19Zm0,.56V5.63m0-.44h0"/><path class="cls-13" d="M30.86,5.23v.16h-.08V5.23Zm0,.44V5.39m0-.23v.07"/><path class="cls-13" d="M31,5.41v.08h-.08V5.41Zm0,.29V5.49m0-.22v.14"/><path class="cls-13" d="M31.18,5.5v.14H31.1V5.5Zm0,.24v-.1m0-.16v0"/><path class="cls-13" d="M31.34,5.08v.55h-.08V5.08Zm0,.64V5.63m0-.59v0"/><path class="cls-13" d="M31.5,5.08v.09h-.08V5.08Zm0,.11v0m0-.4v.31"/><path class="cls-13" d="M31.67,5.17h0Zm0,.2V5.18m0-.11v.09"/><path class="cls-13" d="M31.83,4.91v.26h-.08V4.91Zm0,.39V5.18m0-.3v0"/><path class="cls-13" d="M32,4.58v.37h-.08V4.58Zm0,.4v0m0-.54v.17"/><path class="cls-13" d="M32.15,4.6v.17h-.08V4.6Zm0,.35V4.77m0-.41V4.6"/><path class="cls-13" d="M32.31,4.78v.37h-.08V4.78Zm0,.63V5.15m0-.47v.1"/><path class="cls-13" d="M32.47,5v.16h-.08V5Zm0,.16h0m0-.24V5"/><path class="cls-13" d="M32.64,5v.15h-.08V5Zm0,.24V5.13m0-.18V5"/><path class="cls-13" d="M32.79,5.1v0h-.08v0Zm0,.11V5.12m0-.07V5.1"/><path class="cls-13" d="M33,4.69v.47h-.08V4.69Zm0,.52v0m0-.47h0"/><path class="cls-13" d="M33.12,4.67v0H33v0Zm0,.11V4.69m0-.48v.46"/><path class="cls-13" d="M33.28,4.56v.12H33.2V4.56Zm0,.21V4.68m0-.2v.08"/><path class="cls-13" d="M33.44,4.54V5h-.08V4.54Zm0,.55V5m0-.64v.15"/><path class="cls-13" d="M33.6,4.89V5h-.08V4.89Zm0,.32V5m0-.23v.08"/><path class="cls-13" d="M33.76,4.82V4.9h-.08V4.82Zm0,.09h0m0-.12v0"/><path class="cls-14" d="M19,6.7c.21.09.45-.1.53-.32a3.19,3.19,0,0,0,.07-.68,2.81,2.81,0,0,1,.52-1.16l.24-.37a1.17,1.17,0,0,1,.25-.31.92.92,0,0,1,.65-.14,1.42,1.42,0,0,1,.59.18c.47.28.69.89,1.2,1.08s1-.08,1.51,0A3.1,3.1,0,0,1,26,5.69a1.66,1.66,0,0,0,1.51.38c.57-.23.75-.93,1-1.49a1.33,1.33,0,0,1,.36-.49A.6.6,0,0,1,29.51,4c.25.1.35.38.49.6a1.72,1.72,0,0,0,.54.55.82.82,0,0,0,.63.14c.19-.05.33-.2.52-.24s.52.08.78,0,.36-.14.55-.18a.72.72,0,0,1,.75.32"/><rect x="19" y="9.14" width="14.79" height="7.84"/><line class="cls-4" x1="32.56" y1="9.14" x2="32.56" y2="16.98"/><line class="cls-4" x1="31.33" y1="9.14" x2="31.33" y2="16.98"/><line class="cls-4" x1="30.1" y1="9.14" x2="30.1" y2="16.98"/><line class="cls-4" x1="28.86" y1="9.14" x2="28.86" y2="16.98"/><line class="cls-4" x1="27.63" y1="9.14" x2="27.63" y2="16.98"/><line class="cls-4" x1="26.4" y1="9.14" x2="26.4" y2="16.98"/><line class="cls-4" x1="25.16" y1="9.14" x2="25.16" y2="16.98"/><line class="cls-4" x1="23.93" y1="9.14" x2="23.93" y2="16.98"/><line class="cls-4" x1="22.7" y1="9.14" x2="22.7" y2="16.98"/><line class="cls-4" x1="21.47" y1="9.14" x2="21.47" y2="16.98"/><line class="cls-4" x1="20.23" y1="9.14" x2="20.23" y2="16.98"/><line class="cls-4" x1="33.79" y1="9.79" x2="19" y2="9.79"/><line class="cls-4" x1="33.79" y1="10.45" x2="19" y2="10.45"/><line class="cls-4" x1="33.79" y1="11.1" x2="19" y2="11.1"/><line class="cls-4" x1="33.79" y1="11.75" x2="19" y2="11.75"/><line class="cls-4" x1="33.79" y1="12.41" x2="19" y2="12.41"/><line class="cls-4" x1="33.79" y1="13.06" x2="19" y2="13.06"/><line class="cls-4" x1="33.79" y1="13.71" x2="19" y2="13.71"/><line class="cls-4" x1="33.79" y1="14.37" x2="19" y2="14.37"/><line class="cls-4" x1="33.79" y1="15.02" x2="19" y2="15.02"/><line class="cls-4" x1="33.79" y1="15.67" x2="19" y2="15.67"/><line class="cls-4" x1="33.79" y1="16.33" x2="19" y2="16.33"/><rect class="cls-5" x="19" y="9.14" width="14.79" height="7.84"/><polygon class="cls-6" points="19.81 10.65 19.81 10.4 19.27 10.4 19.27 11.1 20.43 11.1 20.43 10.65 19.81 10.65"/><path class="cls-7" d="M20,10.81a.07.07,0,0,1,0,0l0,0,0,0a.07.07,0,0,1,0,0A.08.08,0,0,1,20,11l-.07,0-.07,0a.08.08,0,0,1,0-.07.07.07,0,0,1,0,0l0,0,0,0a.07.07,0,0,1,0,0,.08.08,0,0,1,0-.06l.07,0,.07,0A.08.08,0,0,1,20,10.81ZM20,11a.05.05,0,0,0,0,0l0,0,0,0a.05.05,0,0,0,0,0,.05.05,0,0,0,0,0l0,0,0,0A.05.05,0,0,0,20,11Zm0-.14a.05.05,0,0,0,0,0l0,0h0a.06.06,0,0,0,0,0,.06.06,0,0,0,0,0h.07A.05.05,0,0,0,19.94,10.81Z"/><path class="cls-7" d="M20.24,10.76a.47.47,0,0,0-.08.12.56.56,0,0,0,0,.13v0h0v0a.47.47,0,0,1,0-.13.51.51,0,0,1,.07-.11H20v0h.21Z"/><path class="cls-7" d="M20.33,10.78a0,0,0,0,1,0,0h0a0,0,0,0,1,0,0v0a0,0,0,0,1,0,0h0a0,0,0,0,1,0,0Zm0,0h0v0h0Z"/><path class="cls-7" d="M19.48,11h0V11h0Z"/><path class="cls-7" d="M19.53,11h0Z"/><path class="cls-7" d="M19.56,11h0v0h0v0h0v0h0Z"/><path class="cls-7" d="M19.65,11v0h0V11h0v0Zm0,0h0v0h0Z"/><path class="cls-7" d="M19.44,10.57h0v0h0a0,0,0,0,1,0,0h0v0H19.4a0,0,0,0,1,0,0h.06Z"/><path class="cls-7" d="M19.53,10.55h0v0h0v-.1h0v0h0Z"/><path class="cls-7" d="M19.57,10.58h0v-.1h0Z"/><path class="cls-7" d="M19.64,10.58h0v-.1h0Z"/><polygon class="cls-6" points="21.12 10.65 21.12 10.4 21.65 10.4 21.65 11.1 20.49 11.1 20.49 10.65 21.12 10.65"/><path class="cls-7" d="M21.1,11l0,0a.11.11,0,0,0,0-.07h0l0,0h0a.09.09,0,0,1-.07,0,.12.12,0,0,1,0-.15.09.09,0,0,1,.07,0,.1.1,0,0,1,.08,0,.12.12,0,0,1,0,.09v.07a.13.13,0,0,1,0,.09.11.11,0,0,1-.08,0H21v0h.06Zm0-.11h0l0,0v0a.1.1,0,0,0,0-.06l0,0,0,0a.08.08,0,0,0,0,.05.09.09,0,0,0,0,.05Z"/><path class="cls-7" d="M21.46,10.92a.14.14,0,0,1,0,.09.09.09,0,0,1-.07,0,.09.09,0,0,1-.07,0,.14.14,0,0,1,0-.09v-.07a.14.14,0,0,1,0-.09.09.09,0,0,1,.07,0,.09.09,0,0,1,.07,0,.14.14,0,0,1,0,.09Zm0-.08a.1.1,0,0,0,0-.06l0,0,0,0a.1.1,0,0,0,0,.06v.09a.11.11,0,0,0,0,.06l0,0,0,0a.11.11,0,0,0,0-.06Z"/><path class="cls-7" d="M21.55,10.78a0,0,0,0,1,0,0h0a0,0,0,0,1,0,0v0a0,0,0,0,1,0,0h0a0,0,0,0,1,0,0Zm0,0h0v0h0Z"/><path class="cls-7" d="M20.71,11h0V11h0Z"/><path class="cls-7" d="M20.75,11h0Z"/><path class="cls-7" d="M20.78,11h0v0h0v0h0v0h0Z"/><path class="cls-7" d="M20.87,11a0,0,0,0,1,0,0h0a0,0,0,0,1,0,0v0a0,0,0,0,1,0,0h0a0,0,0,0,1,0,0Zm0,0h0v0h0Z"/><path class="cls-7" d="M21.27,10.59v-.1h.06v0h0v0h-.06Zm0-.06h0Zm0,0v0h0Z"/><path class="cls-7" d="M21.43,10.49v.07a0,0,0,0,1,0,0h-.05a0,0,0,0,1,0,0v-.07h0v.08h0v-.08Z"/><path class="cls-7" d="M21.48,10.54l0,0h0l0,.06v0h0v0l0-.06h0Z"/><rect class="cls-8" x="19.86" y="10.4" width="1.2" height="0.2"/><rect class="cls-9" x="19.86" y="10.4" width="0.22" height="0.2"/><polygon class="cls-10" points="20.03 10.48 19.97 10.55 19.91 10.48 20.03 10.48"/><rect class="cls-9" x="20.84" y="10.4" width="0.22" height="0.2"/><polygon class="cls-10" points="21.01 10.48 20.95 10.55 20.89 10.48 21.01 10.48"/><path class="cls-15" d="M19.25,11.47v-.42m0,.13h-.13m.13.17h.13"/><path class="cls-15" d="M19.57,12v-.71m0,0h-.13m.13.62h.13"/><path class="cls-15" d="M19.89,12.12v-.54m0,.11h-.13m.13.43H20"/><path class="cls-15" d="M20.21,12.14v-.61m0,.57h-.13m.13-.55h.13"/><path class="cls-15" d="M20.53,11.7v-.33m0,.2H20.4m.13,0h.13"/><path class="cls-15" d="M20.85,11.68v-.4m0,.33h-.13m.13-.07H21"/><path class="cls-15" d="M21.17,11.91v-.54m0,.16H21m.13.22h.13"/><path class="cls-15" d="M21.49,12v-.6m0,.38h-.13m.13.17h.13"/><path class="cls-15" d="M21.81,12.1v-.26m0,0h-.13m.13.22h.13"/><path class="cls-15" d="M22.13,12.66V12m0,.21H22m.13.19h.13"/><path class="cls-15" d="M22.46,12.73v-.41m0,.06h-.13m.13.08h.13"/><path class="cls-15" d="M22.78,12.3v-.43m0,.42h-.13m.13-.16h.13"/><path class="cls-15" d="M23.1,12.27v-.34m0,.2H23m.13-.18h.13"/><path class="cls-15" d="M23.42,11.91v-.69m0,.69h-.13m.13-.32h.13"/><path class="cls-15" d="M23.74,11.86V11.6m0,0H23.6m.13,0h.13"/><path class="cls-15" d="M24.06,11.94v-.27m0,0h-.13m.13.16h.13"/><path class="cls-15" d="M24.38,11.84v-.35m0,.34h-.13m.13,0h.13"/><path class="cls-15" d="M24.7,11.87v-.35m0,.29h-.13m.13-.21h.13"/><path class="cls-15" d="M25,11.73V11.5m0,.16h-.13m.13,0h.13"/><path class="cls-15" d="M25.34,11.73v-.22m0,.13h-.13m.13,0h.13"/><path class="cls-15" d="M25.66,11.85v-.34m0,.07h-.13m.13.28h.13"/><path class="cls-15" d="M26,12.25v-.58m0,.26h-.13m.13.33h.13"/><path class="cls-15" d="M26.3,12.14V11.8m0,0h-.13m.13.26h.13"/><path class="cls-15" d="M26.62,12.48v-.82m0,.73h-.13m.13-.61h.13"/><path class="cls-15" d="M26.94,12.09v-.39m0,.1h-.13m.13-.09h.13"/><path class="cls-15" d="M27.26,12v-.29m0,.08h-.13m.13.21h.13"/><path class="cls-15" d="M27.58,12.21v-.27m0,.05h-.13m.13,0h.13"/><path class="cls-15" d="M27.9,12.14V11.2m0,.86h-.13m.13-.78H28"/><path class="cls-15" d="M28.55,11.54V11m0,.24h-.13m.13.22h.13"/><path class="cls-15" d="M28.22,11.62v-.3m0,.2h-.13m.13-.13h.13"/><path class="cls-15" d="M28.93,11.64v-.23m0,.16H28.8m.13,0h.13"/><path class="cls-15" d="M29.25,11.64v-.22m0,.13h-.13m.13,0h.13"/><path class="cls-15" d="M29.57,12.86V11.62m0,1h-.13m.13.28h.13"/><path class="cls-15" d="M29.89,13.27v-.58m0,.26h-.13m.13.33H30"/><path class="cls-15" d="M30.21,13.15v-.34m0,0h-.13m.13.26h.13"/><path class="cls-15" d="M30.53,13.49v-.82m0,.73H30.4m.13-.61h.13"/><path class="cls-15" d="M30.86,13.11v-.39m0,.1h-.13m.13-.09H31"/><path class="cls-15" d="M31.18,13v-.29m0,.08H31m.13.21h.13"/><path class="cls-15" d="M31.5,13.22V13m0,.05h-.13m.13,0h.13"/><path class="cls-15" d="M31.91,13.33v-.81m0,.48h-.13m.13.33H32"/><path class="cls-15" d="M32.23,12.52v-.34m0,0h-.13m.13.26h.13"/><path class="cls-15" d="M32.55,12.86V12m0,.73h-.13m.13-.61h.13"/><path class="cls-15" d="M32.87,12.47v-.39m0,.1h-.13m.13-.09H33"/><path class="cls-15" d="M33.19,12.27v-.92m0,.08h-.13m.13.21h.13"/><path class="cls-15" d="M33.51,11.89v-.27m0,.05h-.13m.13,0h.13"/><rect class="cls-16" x="1.3" y="1.3" width="2.91" height="18.23"/><line class="cls-17" x1="1.61" y1="2.33" x2="3.84" y2="2.33"/><line class="cls-17" x1="1.61" y1="10.24" x2="3.84" y2="10.24"/><line class="cls-17" x1="1.61" y1="10.68" x2="3.84" y2="10.68"/><line class="cls-17" x1="1.61" y1="11.12" x2="3.84" y2="11.12"/><line class="cls-17" x1="1.61" y1="11.57" x2="3.84" y2="11.57"/><line class="cls-17" x1="1.61" y1="2.75" x2="3.84" y2="2.75"/><line class="cls-17" x1="1.61" y1="3.17" x2="3.84" y2="3.17"/><line class="cls-17" x1="1.61" y1="3.6" x2="3.84" y2="3.6"/><line class="cls-17" x1="1.61" y1="4.02" x2="3.84" y2="4.02"/><rect class="cls-17" x="1.3" y="1.3" width="2.91" height="0.58"/><rect class="cls-17" x="1.3" y="9.14" width="2.91" height="0.58"/><rect class="cls-17" x="1.3" y="16.97" width="32.49" height="2.56"/><rect class="cls-17" x="1.3" y="16.97" width="32.49" height="0.58"/><rect class="cls-18" x="1.3" y="17.56" width="32.49" height="0.58"/><rect class="cls-19" x="1.3" y="18.14" width="32.49" height="0.58"/><rect class="cls-17" x="4.21" y="1.3" width="14.79" height="0.58"/><rect class="cls-17" x="19" y="1.3" width="14.79" height="0.58"/><rect class="cls-20" x="4.21" y="9.14" width="14.79" height="0.58"/><rect class="cls-17" x="19" y="9.14" width="14.79" height="0.58"/><path class="cls-21" d="M35.11,20.31V.52A.52.52,0,0,0,34.59,0h-9L16.23,20.83H34.59A.52.52,0,0,0,35.11,20.31Z"/><rect class="cls-2" x="25.81" y="24.49" width="21.88" height="0.55"/><rect class="cls-1" x="24.94" y="10.55" width="23.63" height="14.02" rx="0.35" ry="0.35"/><rect class="cls-2" x="25.81" y="11.42" width="21.88" height="12.27"/><rect class="cls-3" x="25.81" y="11.42" width="21.87" height="12.27"/><rect x="27.76" y="11.42" width="9.95" height="5.27"/><line class="cls-22" x1="36.88" y1="11.42" x2="36.88" y2="16.7"/><line class="cls-22" x1="36.05" y1="11.42" x2="36.05" y2="16.7"/><line class="cls-22" x1="35.22" y1="11.42" x2="35.22" y2="16.7"/><line class="cls-22" x1="34.39" y1="11.42" x2="34.39" y2="16.7"/><line class="cls-22" x1="33.56" y1="11.42" x2="33.56" y2="16.7"/><line class="cls-22" x1="32.74" y1="11.42" x2="32.74" y2="16.7"/><line class="cls-22" x1="31.91" y1="11.42" x2="31.91" y2="16.7"/><line class="cls-22" x1="31.08" y1="11.42" x2="31.08" y2="16.7"/><line class="cls-22" x1="30.25" y1="11.42" x2="30.25" y2="16.7"/><line class="cls-22" x1="29.42" y1="11.42" x2="29.42" y2="16.7"/><line class="cls-22" x1="28.59" y1="11.42" x2="28.59" y2="16.7"/><line class="cls-22" x1="37.71" y1="11.86" x2="27.76" y2="11.86"/><line class="cls-22" x1="37.71" y1="12.3" x2="27.76" y2="12.3"/><line class="cls-22" x1="37.71" y1="12.74" x2="27.76" y2="12.74"/><line class="cls-22" x1="37.71" y1="13.18" x2="27.76" y2="13.18"/><line class="cls-22" x1="37.71" y1="13.62" x2="27.76" y2="13.62"/><line class="cls-22" x1="37.71" y1="14.06" x2="27.76" y2="14.06"/><line class="cls-22" x1="37.71" y1="14.5" x2="27.76" y2="14.5"/><line class="cls-22" x1="37.71" y1="14.94" x2="27.76" y2="14.94"/><line class="cls-22" x1="37.71" y1="15.38" x2="27.76" y2="15.38"/><line class="cls-22" x1="37.71" y1="15.82" x2="27.76" y2="15.82"/><line class="cls-22" x1="37.71" y1="16.26" x2="27.76" y2="16.26"/><rect class="cls-23" x="27.76" y="11.42" width="9.95" height="5.27"/><polygon class="cls-24" points="28.3 12.43 28.3 12.26 27.94 12.26 27.94 12.73 28.72 12.73 28.72 12.43 28.3 12.43"/><path class="cls-7" d="M28.35,12.67l0,0a.07.07,0,0,0,0,0h0l0,0h0l0,0a.07.07,0,0,1,0-.05.07.07,0,0,1,0-.05l0,0,.05,0a.08.08,0,0,1,0,.06v0a.09.09,0,0,1,0,.06l-.05,0h0v0h0Zm0-.07h0v0a.07.07,0,0,0,0,0h-.06a.06.06,0,0,0,0,0,.05.05,0,0,0,0,0Z"/><path class="cls-7" d="M28.57,12.62h0v0h0v0h0v0h-.09v0l.09-.15h0Zm-.09,0h.06v-.1h0Z"/><path class="cls-7" d="M28.64,12.52h0v0h0v0h0v0a0,0,0,0,1,0,0h0Zm0,0h0Z"/><path class="cls-7" d="M28.05,12.66v0h0a0,0,0,0,1,0,0v0h0v0Zm0,0h0v0h0Z"/><path class="cls-7" d="M28.08,12.69h0Z"/><path class="cls-7" d="M28.11,12.69h0v0h0v0h0v0a0,0,0,0,1,0,0h0Zm0,0h0Z"/><path class="cls-7" d="M28.19,12.63l0,0v0h0v0l0,0h0Z"/><path class="cls-7" d="M28,12.37h0v0h0Z"/><path class="cls-7" d="M28.12,12.36h0v0h0v-.07h0v0h0Z"/><path class="cls-7" d="M28.14,12.38h0v-.07h0Z"/><path class="cls-7" d="M28.2,12.38h0v-.07h0Z"/><polygon class="cls-24" points="29.18 12.43 29.18 12.26 29.54 12.26 29.54 12.73 28.76 12.73 28.76 12.43 29.18 12.43"/><path class="cls-7" d="M29.17,12.67l0,0a.07.07,0,0,0,0,0h0l0,0h0l0,0a.07.07,0,0,1,0-.05.07.07,0,0,1,0-.05l0,0,.05,0a.08.08,0,0,1,0,.06v0a.09.09,0,0,1,0,.06l-.05,0h0v0h0Zm0-.07h0v0a.07.07,0,0,0,0,0h-.06a.06.06,0,0,0,0,0,.05.05,0,0,0,0,0Z"/><path class="cls-7" d="M29.41,12.54a0,0,0,0,1,0,0l0,0,0,0a0,0,0,0,1,0,0,.05.05,0,0,1,0,0l0,0,0,0a.05.05,0,0,1,0,0,0,0,0,0,1,0,0l0,0,0,0a0,0,0,0,1,0,0,.05.05,0,0,1,0,0h.09A.05.05,0,0,1,29.41,12.54Zm0,.1a0,0,0,0,0,0,0h-.06a0,0,0,0,0,0,.06h.06A0,0,0,0,0,29.38,12.63Zm0-.1v0h0v0a0,0,0,0,0,0,0h0A0,0,0,0,0,29.38,12.54Z"/><path class="cls-7" d="M29.46,12.52h0v0h0v0h0v0a0,0,0,0,1,0,0h0Zm0,0h0Z"/><path class="cls-7" d="M28.87,12.66v0h0v-.06h0v0Zm0,0h0v0h0Z"/><path class="cls-7" d="M28.9,12.69h0Z"/><path class="cls-7" d="M28.93,12.69h0v0h0v0h0v0a0,0,0,0,1,0,0h0Zm0,0h0Z"/><path class="cls-7" d="M29,12.63l0,0v0h0v0l0,0h0Z"/><path class="cls-7" d="M29.28,12.39v-.07h0Zm0,0h0Zm0,0v0h0Z"/><path class="cls-7" d="M29.39,12.32v.07h0v-.07h0v0h0v0Z"/><path class="cls-7" d="M29.43,12.36l0,0h0l0,0v0h0v0l0,0h0Z"/><rect class="cls-25" x="28.34" y="12.26" width="0.8" height="0.14"/><rect class="cls-26" x="28.34" y="12.26" width="0.15" height="0.14"/><polygon class="cls-10" points="28.45 12.32 28.41 12.36 28.37 12.32 28.45 12.32"/><rect class="cls-26" x="29" y="12.26" width="0.15" height="0.14"/><polygon class="cls-10" points="29.11 12.32 29.07 12.36 29.03 12.32 29.11 12.32"/><path class="cls-27" d="M27.78,15.93l0-.14,0,.14,0-.2,0,.14,0,.07,0-.07,0-.14,0,.27,0-.14h0l.09-.2,0,.2,0-.41,0-.14h.09l0-.07,0-1.08,0,.27h0l0-.41,0,.07H29l0,.14,0-.07,0,.2,0-.07,0-.07h0l0,.34.09.14h.09l0-.07h.09l0,.27,0-.2,0,.2,0-.07h0l0,.14L30,15,30,15l0-.07h0l0,.14,0,.2,0-.14,0,.07,0-.07,0-.07h0l0,.07,0-.07,0-.07,0,.07h.14l0-.2,0-.07h0l0,.07,0,.07h.09l0,.07,0-.27,0-.07,0,.14,0-.14h0l0-.07h0l0,.07,0-.2h0l0-.07,0-.07,0,.2,0-.2,0,.2h0l0,.27,0-.07h0l0-.07,0-.07,0,.07,0-.07h0l0-.14,0,.07h.09l0-.07h0l0-.07,0,.14,0-.14h0l0-.07,0,.07,0-.2,0,.07,0-.2,0,.07,0-.07,0,.14,0,.2h0l0-.14,0-.14,0,.14,0-.07,0-.07h.14l0,.14,0-.14h0l0,.14,0-.14h.09l0,.2,0,.2,0-.14,0-.07,0-.27,0-.2h.19l0,.07h0l0,.14,0-.2,0-.41,0-.07.09-.07h0l0,.07.09-.07h0l0-.07h0l0,.07,0-.07h0l.19-.07,0,.07,0,.14,0,.27h.09l0-.07,0,.07,0-.07,0,.07,0-.2H36l.14-.07.09.07,0-.07,0-.41,0,.07,0-.14,0-.07h.09l0-.2,0-.07h0l0-.07,0,.07,0-.07,0,.2,0-.68,0,.07h.09l0,.07,0,.07h.09l0,.07,0-.07h0l0,.2,0-.2h0l0-.07,0,.07h0"/><rect x="27.76" y="16.7" width="9.95" height="5.27"/><line class="cls-22" x1="36.88" y1="16.7" x2="36.88" y2="21.97"/><line class="cls-22" x1="36.05" y1="16.7" x2="36.05" y2="21.97"/><line class="cls-22" x1="35.22" y1="16.7" x2="35.22" y2="21.97"/><line class="cls-22" x1="34.39" y1="16.7" x2="34.39" y2="21.97"/><line class="cls-22" x1="33.56" y1="16.7" x2="33.56" y2="21.97"/><line class="cls-22" x1="32.74" y1="16.7" x2="32.74" y2="21.97"/><line class="cls-22" x1="31.91" y1="16.7" x2="31.91" y2="21.97"/><line class="cls-22" x1="31.08" y1="16.7" x2="31.08" y2="21.97"/><line class="cls-22" x1="30.25" y1="16.7" x2="30.25" y2="21.97"/><line class="cls-22" x1="29.42" y1="16.7" x2="29.42" y2="21.97"/><line class="cls-22" x1="28.59" y1="16.7" x2="28.59" y2="21.97"/><line class="cls-22" x1="37.71" y1="17.14" x2="27.76" y2="17.14"/><line class="cls-22" x1="37.71" y1="17.58" x2="27.76" y2="17.58"/><line class="cls-22" x1="37.71" y1="18.02" x2="27.76" y2="18.02"/><line class="cls-22" x1="37.71" y1="18.46" x2="27.76" y2="18.46"/><line class="cls-22" x1="37.71" y1="18.9" x2="27.76" y2="18.9"/><line class="cls-22" x1="37.71" y1="19.34" x2="27.76" y2="19.34"/><line class="cls-22" x1="37.71" y1="19.78" x2="27.76" y2="19.78"/><line class="cls-22" x1="37.71" y1="20.21" x2="27.76" y2="20.21"/><line class="cls-22" x1="37.71" y1="20.65" x2="27.76" y2="20.65"/><line class="cls-22" x1="37.71" y1="21.09" x2="27.76" y2="21.09"/><line class="cls-22" x1="37.71" y1="21.53" x2="27.76" y2="21.53"/><rect class="cls-23" x="27.76" y="16.7" width="9.95" height="5.27"/><polygon class="cls-28" points="28.3 17.71 28.3 17.54 27.94 17.54 27.94 18.01 28.72 18.01 28.72 17.71 28.3 17.71"/><path class="cls-7" d="M28.42,17.89a.09.09,0,0,1,0,.06l0,0,0,0a.1.1,0,0,1,0-.06v0a.1.1,0,0,1,0-.06l0,0,0,0a.1.1,0,0,1,0,.06Zm0-.06a.07.07,0,0,0,0,0h-.06a.07.07,0,0,0,0,0v.06a.07.07,0,0,0,0,0h.06a.07.07,0,0,0,0,0Z"/><path class="cls-7" d="M28.57,17.9h0v0h0v0h0v0h-.09v0l.09-.15h0Zm-.09,0h.06v-.1h0Z"/><path class="cls-7" d="M28.67,17.74l0,0v0h0v0l0,0h0Z"/><path class="cls-7" d="M28.06,18h0v-.06h0Z"/><path class="cls-7" d="M28.14,17.94v0h0a0,0,0,0,1,0,0v0h0v0Zm0,0h0v0h0Z"/><path class="cls-7" d="M28.19,18h0l0,0h0l0,0h0Z"/><path class="cls-7" d="M28,17.65h0v0h0Z"/><path class="cls-7" d="M28.12,17.63h0v0h0v-.07h0v0h0Z"/><path class="cls-7" d="M28.14,17.66h0v-.07h0Z"/><path class="cls-7" d="M28.2,17.66h0v-.07h0Z"/><polygon class="cls-28" points="29.18 17.71 29.18 17.54 29.54 17.54 29.54 18.01 28.76 18.01 28.76 17.71 29.18 17.71"/><path class="cls-7" d="M29.25,17.89a.09.09,0,0,1,0,.06l0,0,0,0a.1.1,0,0,1,0-.06v0a.1.1,0,0,1,0-.06l0,0,0,0a.1.1,0,0,1,0,.06Zm0-.06a.07.07,0,0,0,0,0h-.06a.07.07,0,0,0,0,0v.06a.07.07,0,0,0,0,0h.06a.07.07,0,0,0,0,0Z"/><path class="cls-7" d="M29.42,17.78l-.05.08a.37.37,0,0,0,0,.08v0h0v0a.3.3,0,0,1,0-.09l0-.08h-.11v0h.14Z"/><path class="cls-7" d="M29.49,17.74l0,0v0h0v0l0,0h0Z"/><path class="cls-7" d="M28.88,18h0v-.06h0Z"/><path class="cls-7" d="M29,17.94v0h0V17.9h0v0Zm0,0h0v0h0Z"/><path class="cls-7" d="M29,18h0l0,0h0l0,0h0Z"/><path class="cls-7" d="M29.28,17.67v-.07h0v0h0Zm0,0h0Zm0,0v0h0Z"/><path class="cls-7" d="M29.39,17.59v.07h0v-.07h0v0h0v0Z"/><path class="cls-7" d="M29.43,17.63l0,0h0l0,0v0h0v0l0,0h0Z"/><rect class="cls-25" x="28.34" y="17.54" width="0.8" height="0.14"/><rect class="cls-26" x="28.34" y="17.54" width="0.15" height="0.14"/><polygon class="cls-10" points="28.45 17.59 28.41 17.64 28.37 17.59 28.45 17.59"/><rect class="cls-26" x="29" y="17.54" width="0.15" height="0.14"/><polygon class="cls-10" points="29.11 17.59 29.07 17.64 29.03 17.59 29.11 17.59"/><rect class="cls-29" x="27.77" y="16.7" width="9.95" height="0.39"/><path class="cls-30" d="M27.83,21.06v-.75h.05v.75Zm0-.75v0m0,.77v.16"/><path class="cls-30" d="M27.94,20.38v-.06H28v.06Zm0-.06v-.23m0,.29v0"/><path class="cls-30" d="M28.05,20.37v-.43h.05v.43Zm0-.43v-.09m0,.52v.27"/><path class="cls-30" d="M28.16,20.4v-.46h.05v.46Zm0-.46v-.15m0,.61h0"/><path class="cls-30" d="M28.27,20.36v-.91h.05v.91Zm0-.91v-.27m0,1.18v.19"/><path class="cls-30" d="M28.38,19.44v-.37h.05v.37Zm0-.37v0m0,.41v.14"/><path class="cls-30" d="M28.49,19.14v0h.05v0Zm0,0v-.17m0,.21v.18"/><path class="cls-30" d="M28.59,19.15v-.07h.05v.07Zm0-.07v0m0,.1v.17"/><path class="cls-30" d="M28.7,19.11v-.46h.05v.46Zm0-.46v-.11m0,.57v.08"/><path class="cls-30" d="M28.81,18.7v-.09h.05v.09Zm0-.09v-.09m0,.19v.2"/><path class="cls-30" d="M28.92,19.2v-.54H29v.54Zm0-.54v-.15m0,.69h0"/><path class="cls-30" d="M29,19.14v-.2h.05v.2Zm0-.2v-.34m0,.54v.09"/><path class="cls-30" d="M29.14,18.92v-.1h.05v.1Zm0-.1v-.26m0,.36v.17"/><path class="cls-30" d="M29.25,18.82v-.17h.05v.17Zm0-.17v-.12m0,.29v0"/><path class="cls-30" d="M29.35,19.33v-.67h.05v.67Zm0-.67v-.11m0,.78v.05"/><path class="cls-30" d="M29.46,19.33v-.11h.05v.11Zm0-.11v0m0,.13v.38"/><path class="cls-30" d="M29.57,19.22v0h.05v0Zm0,0V19m0,.24v.11"/><path class="cls-30" d="M29.68,19.53v-.32h.05v.32Zm0-.32v-.15m0,.47v0"/><path class="cls-30" d="M29.79,19.94v-.45h.05v.45Zm0-.45v0m0,.49v.21"/><path class="cls-30" d="M29.9,19.91v-.21H30v.21Zm0-.21v-.22m0,.43v.3"/><path class="cls-30" d="M30,19.7v-.45h.05v.45Zm0-.45v-.31m0,.77v.12"/><path class="cls-30" d="M30.12,19.46v-.2h.05v.2Zm0-.2h0m0,.2v.09"/><path class="cls-30" d="M30.23,19.46v-.19h.05v.19Zm0-.19v-.1m0,.29v0"/><path class="cls-30" d="M30.33,19.31v0h.05v0Zm0,0v-.11m0,.14v.06"/><path class="cls-30" d="M30.44,19.81v-.57h.05v.57Zm0-.57v-.06m0,.63h0"/><path class="cls-30" d="M30.55,19.83v0h.05v0Zm0,0V19.7m0,.13v.56"/><path class="cls-30" d="M30.66,20v-.15h.05V20Zm0-.15v-.11m0,.25v.1"/><path class="cls-30" d="M30.77,20v-.6h.05V20Zm0-.6v-.08m0,.68v.18"/><path class="cls-30" d="M30.88,19.57v-.18h.05v.18Zm0-.18v-.21m0,.39v.1"/><path class="cls-30" d="M31,19.65v-.1H31v.1Zm0-.1h0m0,.11v0"/><path class="cls-30" d="M34.37,18.95v.47h-.05v-.47Zm0,.47h0m0-.49v-.1"/><path class="cls-30" d="M34.26,19.38v0H34.2v0Zm0,0v.15m0-.18v0"/><path class="cls-30" d="M34.15,19.38v.27h-.05v-.27Zm0,.27v.06m0-.33v-.17"/><path class="cls-30" d="M34,19.36v.29H34v-.29Zm0,.29v.09m0-.39h0"/><path class="cls-30" d="M33.93,19.39V20h-.05v-.58Zm0,.58v.17m0-.75v-.12"/><path class="cls-30" d="M33.82,20v.24h-.05V20Zm0,.24v0m0-.26v-.09"/><path class="cls-30" d="M33.71,20.16v0h-.05v0Zm0,0v.11m0-.13V20"/><path class="cls-30" d="M33.61,20.16v0h-.05v0Zm0,0v0m0-.06V20"/><path class="cls-30" d="M33.5,20.18v.29h-.05v-.29Zm0,.29v.07m0-.36v0"/><path class="cls-30" d="M33.39,20.44v.06h-.05v-.06Zm0,.06v.06m0-.12v-.13"/><path class="cls-30" d="M33.28,20.13v.34h-.05v-.34Zm0,.34v.09m0-.44h0"/><path class="cls-30" d="M33.17,20.16v.12h-.05v-.12Zm0,.12v.22m0-.34v-.06"/><path class="cls-30" d="M33.06,20.3v.06H33V20.3Zm0,.06v.16m0-.23v-.11"/><path class="cls-30" d="M33,20.37v.11H32.9v-.11Zm0,.11v.08m0-.18h0"/><path class="cls-30" d="M32.84,20v.43h-.05V20Zm0,.43v.07m0-.49v0"/><path class="cls-30" d="M32.74,20v.07h-.05V20Zm0,.07h0m0-.08V19.8"/><path class="cls-30" d="M32.63,20.11h0Zm0,0v.14m0-.15V20"/><path class="cls-30" d="M32.52,19.91v.21h-.05v-.21Zm0,.21v.09m0-.3v0"/><path class="cls-30" d="M32.41,19.65v.29h-.05v-.29Zm0,.29v0m0-.31v-.13"/><path class="cls-30" d="M32.3,19.67v.13h-.05v-.13Zm0,.13v.14m0-.27v-.19"/><path class="cls-30" d="M32.19,19.81v.29h-.05v-.29Zm0,.29v.2m0-.49v-.08"/><path class="cls-30" d="M32.08,20v.12H32V20Zm0,.12h0m0-.12V19.9"/><path class="cls-30" d="M32,20v.12h-.05V20Zm0,.12v.06m0-.18v0"/><path class="cls-30" d="M31.87,20.06v0h-.05v0Zm0,0v.07m0-.09v0"/><path class="cls-30" d="M31.76,19.74v.36H31.7v-.36Zm0,.36v0m0-.4h0"/><path class="cls-30" d="M31.65,19.72v0H31.6v0Zm0,0v.07m0-.08v-.35"/><path class="cls-30" d="M31.54,19.64v.09h-.05v-.09Zm0,.09v.07m0-.16v-.06"/><path class="cls-30" d="M31.43,19.63V20h-.05v-.38Zm0,.38v0m0-.43v-.11"/><path class="cls-30" d="M31.32,19.89V20h-.05v-.11Zm0,.11v.13m0-.25v-.06"/><path class="cls-30" d="M31.22,19.84v.07h-.05v-.07Zm0,.07h0m0-.07v0"/><path class="cls-30" d="M34.54,18.79v.41h-.05v-.41Zm0,.42h0m0-.5v.09"/><path class="cls-30" d="M34.65,19.17v0H34.6v0Zm0,.16V19.2m0,0v0"/><path class="cls-30" d="M34.76,19.17v.24h-.05v-.24Zm0,.29v-.05m0-.38v.15"/><path class="cls-30" d="M34.87,19.16v.26h-.05v-.26Zm0,.34v-.08m0-.26h0"/><path class="cls-30" d="M35,19.18v.5h-.05v-.5Zm0,.65v-.15m0-.61v.11"/><path class="cls-30" d="M35.09,19.68v.21H35v-.21Zm0,.22v0m0-.28v.08"/><path class="cls-30" d="M35.19,19.85v0h-.05v0Zm0,.12v-.1m0-.12v.1"/><path class="cls-30" d="M35.3,19.84v0h-.05v0Zm0,.06v0m0-.13v.1"/><path class="cls-30" d="M35.41,19.86v.25h-.05v-.25Zm0,.31v-.06m0-.29v0"/><path class="cls-30" d="M35.52,20.09v.05h-.05v-.05Zm0,.1v-.05m0-.16v.11"/><path class="cls-30" d="M35.63,19.82v.3h-.05v-.3Zm0,.38v-.08m0-.3h0"/><path class="cls-30" d="M35.74,19.85V20h-.05v-.11Zm0,.29V20m0-.16v0"/><path class="cls-30" d="M35.84,20V20h-.05V20Zm0,.2V20m0-.15V20"/><path class="cls-30" d="M36,20v.09H35.9V20Zm0,.16v-.07m0-.11h0"/><path class="cls-30" d="M36.06,19.75v.37H36v-.37Zm0,.43v-.06m0-.4v0"/><path class="cls-30" d="M36.17,19.74v.06h-.05v-.06Zm0,.07h0m0-.27v.21"/><path class="cls-30" d="M36.28,19.8h0Zm0,.13v-.12m0-.07v.06"/><path class="cls-30" d="M36.39,19.63v.18h-.05v-.18Zm0,.26v-.08m0-.2v0"/><path class="cls-30" d="M36.5,19.41v.25h-.05v-.25Zm0,.27v0m0-.36v.12"/><path class="cls-30" d="M36.61,19.42v.11h-.05v-.11Zm0,.24v-.12m0-.28v.16"/><path class="cls-30" d="M36.72,19.54v.25h-.05v-.25Zm0,.42v-.17m0-.31v.07"/><path class="cls-30" d="M36.82,19.68v.11h-.05v-.11Zm0,.11h0m0-.16v.05"/><path class="cls-30" d="M36.93,19.68v.1h-.05v-.1Zm0,.16v-.06m0-.12v0"/><path class="cls-30" d="M37,19.76h0Zm0,.08v-.06m0,0v0"/><path class="cls-30" d="M37.15,19.48v.32h-.05v-.32Zm0,.35v0m0-.32h0"/><path class="cls-30" d="M37.26,19.47h0Zm0,.07v-.06m0-.32v.31"/><path class="cls-30" d="M37.37,19.4v.08h-.05V19.4Zm0,.14v-.06m0-.14v.06"/><path class="cls-30" d="M37.47,19.38v.33h-.05v-.33Zm0,.37v0m0-.43v.1"/><path class="cls-30" d="M37.58,19.62v.1h-.05v-.1Zm0,.21v-.12m0-.15v.06"/><path class="cls-30" d="M37.69,19.57v.06h-.05v-.06Zm0,.06h0m0-.08v0"/><path class="cls-31" d="M27.79,20.84c.14.06.3-.07.35-.21a2.14,2.14,0,0,0,.05-.46,1.89,1.89,0,0,1,.35-.78l.16-.25a.79.79,0,0,1,.17-.21.62.62,0,0,1,.44-.09,1,1,0,0,1,.4.12c.31.19.47.6.81.73s.68-.06,1,0a2.09,2.09,0,0,1,1,.5,1.12,1.12,0,0,0,1,.25c.38-.16.51-.62.69-1a.9.9,0,0,1,.24-.33.41.41,0,0,1,.39-.07c.17.07.24.25.33.41a1.15,1.15,0,0,0,.37.37.55.55,0,0,0,.42.1c.13,0,.23-.13.35-.16s.35.05.53,0,.24-.1.37-.12a.49.49,0,0,1,.51.22"/><rect x="37.72" y="16.7" width="9.95" height="5.27"/><line class="cls-22" x1="46.85" y1="16.7" x2="46.85" y2="21.97"/><line class="cls-22" x1="46.02" y1="16.7" x2="46.02" y2="21.97"/><line class="cls-22" x1="45.19" y1="16.7" x2="45.19" y2="21.97"/><line class="cls-22" x1="44.36" y1="16.7" x2="44.36" y2="21.97"/><line class="cls-22" x1="43.53" y1="16.7" x2="43.53" y2="21.97"/><line class="cls-22" x1="42.7" y1="16.7" x2="42.7" y2="21.97"/><line class="cls-22" x1="41.87" y1="16.7" x2="41.87" y2="21.97"/><line class="cls-22" x1="41.04" y1="16.7" x2="41.04" y2="21.97"/><line class="cls-22" x1="40.21" y1="16.7" x2="40.21" y2="21.97"/><line class="cls-22" x1="39.38" y1="16.7" x2="39.38" y2="21.97"/><line class="cls-22" x1="38.55" y1="16.7" x2="38.55" y2="21.97"/><line class="cls-22" x1="47.68" y1="17.14" x2="37.72" y2="17.14"/><line class="cls-22" x1="47.68" y1="17.58" x2="37.72" y2="17.58"/><line class="cls-22" x1="47.68" y1="18.02" x2="37.72" y2="18.02"/><line class="cls-22" x1="47.68" y1="18.46" x2="37.72" y2="18.46"/><line class="cls-22" x1="47.68" y1="18.9" x2="37.72" y2="18.9"/><line class="cls-22" x1="47.68" y1="19.34" x2="37.72" y2="19.34"/><line class="cls-22" x1="47.68" y1="19.78" x2="37.72" y2="19.78"/><line class="cls-22" x1="47.68" y1="20.21" x2="37.72" y2="20.21"/><line class="cls-22" x1="47.68" y1="20.65" x2="37.72" y2="20.65"/><line class="cls-22" x1="47.68" y1="21.09" x2="37.72" y2="21.09"/><line class="cls-22" x1="47.68" y1="21.53" x2="37.72" y2="21.53"/><rect class="cls-23" x="37.72" y="16.7" width="9.95" height="5.27"/><polygon class="cls-24" points="38.27 17.72 38.27 17.55 37.9 17.55 37.9 18.02 38.69 18.02 38.69 17.72 38.27 17.72"/><path class="cls-7" d="M38.38,17.82a0,0,0,0,1,0,0l0,0,0,0a.05.05,0,0,1,0,0,.05.05,0,0,1,0,0l0,0,0,0a.05.05,0,0,1,0,0,0,0,0,0,1,0,0l0,0,0,0a.05.05,0,0,1,0,0,.06.06,0,0,1,0,0h.09A.05.05,0,0,1,38.38,17.82Zm0,.1a0,0,0,0,0,0,0h-.06a0,0,0,0,0,0,0,0,0,0,0,0,0,0h.06A0,0,0,0,0,38.36,17.92Zm0-.1a0,0,0,0,0,0,0h0a0,0,0,0,0,0,0,0,0,0,0,0,0,0h0A0,0,0,0,0,38.36,17.82Z"/><path class="cls-7" d="M38.56,17.79l-.05.08a.37.37,0,0,0,0,.08v0h0v0a.3.3,0,0,1,0-.09l0-.08h-.11v0h.14Z"/><path class="cls-7" d="M38.63,17.79v0h0v-.06h0v0Zm0,0h0v0h0Z"/><path class="cls-7" d="M38,18h0v-.06h0Z"/><path class="cls-7" d="M38,18h0Z"/><path class="cls-7" d="M38.07,17.94h0Z"/><path class="cls-7" d="M38.16,18v0h0a0,0,0,0,1,0,0v0h0v0Zm0,0h0v0h0Z"/><path class="cls-7" d="M38,17.66h0v0h0Z"/><path class="cls-7" d="M38.08,17.64h0v0h0V17.6h0v0h0Z"/><path class="cls-7" d="M38.11,17.67h0V17.6h0Z"/><path class="cls-7" d="M38.16,17.67h0V17.6h0Z"/><polygon class="cls-24" points="39.15 17.72 39.15 17.55 39.51 17.55 39.51 18.02 38.73 18.02 38.73 17.72 39.15 17.72"/><path class="cls-7" d="M39.13,18l0,0a.07.07,0,0,0,0,0h0l0,0h0l0,0a.07.07,0,0,1,0-.05.07.07,0,0,1,0-.05l0,0,.05,0a.09.09,0,0,1,0,.06v0a.09.09,0,0,1,0,.06l-.05,0h0v0h0Zm0-.07h0v0a.07.07,0,0,0,0,0h-.06a.06.06,0,0,0,0,0,.05.05,0,0,0,0,0Z"/><path class="cls-7" d="M39.38,17.9a.09.09,0,0,1,0,.06l0,0,0,0a.1.1,0,0,1,0-.06v0a.1.1,0,0,1,0-.06l0,0,0,0a.09.09,0,0,1,0,.06Zm0-.06a.07.07,0,0,0,0,0h-.06a.07.07,0,0,0,0,0v.06a.07.07,0,0,0,0,0h.06a.07.07,0,0,0,0,0Z"/><path class="cls-7" d="M39.46,17.79v0h0v-.06h0v0Zm0,0h0v0h0Z"/><path class="cls-7" d="M38.82,18h0v-.06h0Z"/><path class="cls-7" d="M38.86,18h0Z"/><path class="cls-7" d="M38.89,17.94h0Z"/><path class="cls-7" d="M39,18v0h0v-.06h0v0Zm0,0h0v0h0Z"/><path class="cls-7" d="M39.24,17.67V17.6h0v0h0Zm0,0h0Zm0,0v0h0Z"/><path class="cls-7" d="M39.36,17.6v.07h0V17.6h0v0h0v0Z"/><path class="cls-7" d="M39.4,17.64l0,0h0l0,0v0h0v0l0,0h0Z"/><rect class="cls-25" x="38.3" y="17.55" width="0.8" height="0.14"/><rect class="cls-26" x="38.3" y="17.55" width="0.15" height="0.14"/><polygon class="cls-10" points="38.42 17.6 38.38 17.65 38.34 17.6 38.42 17.6"/><rect class="cls-26" x="38.96" y="17.55" width="0.15" height="0.14"/><polygon class="cls-10" points="39.07 17.6 39.03 17.65 38.99 17.6 39.07 17.6"/><path class="cls-32" d="M37.89,18.27V18m0,.09H37.8m.09.12H38"/><path class="cls-32" d="M38.11,18.64v-.48m0,0H38m.09.42h.09"/><path class="cls-32" d="M38.32,18.71v-.36m0,.07h-.09m.09.29h.09"/><path class="cls-32" d="M38.54,18.72v-.41m0,.38h-.09m.09-.37h.09"/><path class="cls-32" d="M38.75,18.42V18.2m0,.13h-.09m.09,0h.09"/><path class="cls-32" d="M39,18.41v-.27m0,.22h-.09m.09,0h.09"/><path class="cls-32" d="M39.19,18.56V18.2m0,.11h-.09m.09.15h.09"/><path class="cls-32" d="M39.4,18.61v-.4m0,.25h-.09m.09.11h.09"/><path class="cls-32" d="M39.62,18.69v-.17m0,0h-.09m.09.15h.09"/><path class="cls-32" d="M39.83,19.07v-.44m0,.14h-.09m.09.13h.09"/><path class="cls-32" d="M40,19.11v-.28m0,0H40m.09.05h.09"/><path class="cls-32" d="M40.26,18.82v-.29m0,.28h-.09m.09-.11h.09"/><path class="cls-32" d="M40.48,18.8v-.23m0,.13h-.09m.09-.12h.09"/><path class="cls-32" d="M40.69,18.56V18.1m0,.46H40.6m.09-.22h.09"/><path class="cls-32" d="M40.91,18.53v-.17m0,0h-.09m.09,0H41"/><path class="cls-32" d="M41.13,18.59V18.4m0,0H41m.09.11h.09"/><path class="cls-32" d="M41.34,18.52v-.24m0,.23h-.09m.09,0h.09"/><path class="cls-32" d="M41.56,18.53V18.3m0,.2h-.09m.09-.14h.09"/><path class="cls-32" d="M41.77,18.44v-.16m0,.11h-.09m.09,0h.09"/><path class="cls-32" d="M42,18.44v-.15m0,.09H41.9m.09,0h.09"/><path class="cls-32" d="M42.2,18.52v-.23m0,0h-.09m.09.19h.09"/><path class="cls-32" d="M42.42,18.79V18.4m0,.17h-.09m.09.22h.09"/><path class="cls-32" d="M42.64,18.71v-.23m0,0h-.09m.09.17h.09"/><path class="cls-32" d="M42.85,18.94v-.55m0,.49h-.09m.09-.41h.09"/><path class="cls-32" d="M43.07,18.68v-.27m0,.07H43m.09-.06h.09"/><path class="cls-32" d="M43.28,18.6v-.2m0,.06h-.09m.09.14h.09"/><path class="cls-32" d="M43.5,18.76v-.18m0,0h-.09m.09,0h.09"/><path class="cls-32" d="M43.71,18.71v-.63m0,.58h-.09m.09-.52h.09"/><path class="cls-32" d="M44.15,18.31V18m0,.16h-.09m.09.15h.09"/><path class="cls-32" d="M43.93,18.37v-.2m0,.13h-.09m.09-.09H44"/><path class="cls-32" d="M44.41,18.38v-.16m0,.11h-.09m.09,0h.09"/><path class="cls-32" d="M44.62,18.38v-.15m0,.09h-.09m.09,0h.09"/><path class="cls-32" d="M44.84,19.2v-.84m0,.65h-.09m.09.19h.09"/><path class="cls-32" d="M45.05,19.48v-.39m0,.17H45m.09.22h.09"/><path class="cls-32" d="M45.27,19.4v-.23m0,0h-.09m.09.17h.09"/><path class="cls-32" d="M45.48,19.63v-.55m0,.49h-.09m.09-.41h.09"/><path class="cls-32" d="M45.7,19.37V19.1m0,.07h-.09m.09-.06h.09"/><path class="cls-32" d="M45.92,19.28v-.2m0,.06h-.09m.09.14H46"/><path class="cls-32" d="M46.13,19.45v-.18m0,0H46m.09,0h.09"/><path class="cls-32" d="M46.41,19.52V19m0,.32h-.09m.09.22h.09"/><path class="cls-32" d="M46.62,19v-.23m0,0h-.09m.09.17h.09"/><path class="cls-32" d="M46.84,19.2v-.55m0,.49h-.09m.09-.41h.09"/><path class="cls-32" d="M47.06,18.94v-.27m0,.07H47m.09-.06h.09"/><path class="cls-32" d="M47.27,18.8v-.62m0,.06h-.09m.09.14h.09"/><path class="cls-32" d="M47.49,18.55v-.18m0,0H47.4m.09,0h.09"/><rect class="cls-33" x="37.72" y="16.7" width="9.95" height="0.39"/><rect x="32.79" y="12" width="14.18" height="7.51"/><line class="cls-34" x1="45.78" y1="12" x2="45.78" y2="19.51"/><line class="cls-34" x1="44.6" y1="12" x2="44.6" y2="19.51"/><line class="cls-34" x1="43.42" y1="12" x2="43.42" y2="19.51"/><line class="cls-34" x1="42.24" y1="12" x2="42.24" y2="19.51"/><line class="cls-34" x1="41.06" y1="12" x2="41.06" y2="19.51"/><line class="cls-34" x1="39.88" y1="12" x2="39.88" y2="19.51"/><line class="cls-34" x1="38.7" y1="12" x2="38.7" y2="19.51"/><line class="cls-34" x1="37.51" y1="12" x2="37.51" y2="19.51"/><line class="cls-34" x1="36.33" y1="12" x2="36.33" y2="19.51"/><line class="cls-34" x1="35.15" y1="12" x2="35.15" y2="19.51"/><line class="cls-34" x1="33.97" y1="12" x2="33.97" y2="19.51"/><line class="cls-34" x1="46.97" y1="12.62" x2="32.79" y2="12.62"/><line class="cls-34" x1="46.97" y1="13.25" x2="32.79" y2="13.25"/><line class="cls-34" x1="46.97" y1="13.87" x2="32.79" y2="13.87"/><line class="cls-34" x1="46.97" y1="14.5" x2="32.79" y2="14.5"/><line class="cls-34" x1="46.97" y1="15.13" x2="32.79" y2="15.13"/><line class="cls-34" x1="46.97" y1="15.75" x2="32.79" y2="15.75"/><line class="cls-34" x1="46.97" y1="16.38" x2="32.79" y2="16.38"/><line class="cls-34" x1="46.97" y1="17" x2="32.79" y2="17"/><line class="cls-34" x1="46.97" y1="17.63" x2="32.79" y2="17.63"/><line class="cls-34" x1="46.97" y1="18.25" x2="32.79" y2="18.25"/><line class="cls-34" x1="46.97" y1="18.88" x2="32.79" y2="18.88"/><rect class="cls-35" x="32.79" y="12" width="14.18" height="7.51"/><polygon class="cls-36" points="33.56 13.43 33.56 13.19 33.05 13.19 33.05 13.86 34.16 13.86 34.16 13.43 33.56 13.43"/><path class="cls-10" d="M33.63,13.78l0,0a.11.11,0,0,0,0-.07h0l0,0h0a.09.09,0,0,1-.07,0,.1.1,0,0,1,0-.07.1.1,0,0,1,0-.07.09.09,0,0,1,.07,0,.09.09,0,0,1,.07,0,.12.12,0,0,1,0,.09v.07a.12.12,0,0,1,0,.09.1.1,0,0,1-.08,0h-.06v0h.06Zm0-.1h0l0,0v0a.1.1,0,0,0,0-.06l0,0,0,0a.09.09,0,0,0,0,.1Z"/><path class="cls-10" d="M33.8,13.67l0-.16H34v0h-.12v.08h0a.08.08,0,0,1,.07,0,.11.11,0,0,1,0,.07.1.1,0,0,1,0,.07.09.09,0,0,1-.07,0l-.06,0a.07.07,0,0,1,0-.06h0a0,0,0,0,0,0,0h0l0,0a.07.07,0,0,0,0,0,.08.08,0,0,0,0,0l0,0h0l0,0Z"/><path class="cls-10" d="M34,13.5h0v0h0v0h0v0h0v0Zm0,0h0v0h0Z"/><path class="cls-10" d="M33.25,13.8h0v-.06h0Z"/><path class="cls-10" d="M33.29,13.8h0Z"/><path class="cls-10" d="M33.33,13.8h0v-.06h0Z"/><path class="cls-10" d="M33.41,13.78v0h0v0a0,0,0,0,1,0,0h0v0Zm0,0h0v0h0Z"/><path class="cls-10" d="M33.21,13.35h0v0h0a0,0,0,0,1,0,0h0v0h0v0h.06Z"/><path class="cls-10" d="M33.3,13.33h0v0h0v-.09h0v0h0Z"/><path class="cls-10" d="M33.33,13.36h0v-.09h0Z"/><path class="cls-10" d="M33.4,13.36h0v-.09h0Z"/><polygon class="cls-36" points="34.82 13.43 34.82 13.19 35.33 13.19 35.33 13.86 34.22 13.86 34.22 13.43 34.82 13.43"/><path class="cls-10" d="M34.8,13.78l0,0a.11.11,0,0,0,0-.07h0l0,0h0a.09.09,0,0,1-.07,0,.11.11,0,0,1,0-.07.1.1,0,0,1,0-.07.09.09,0,0,1,.07,0,.1.1,0,0,1,.07,0,.13.13,0,0,1,0,.09v.07a.12.12,0,0,1,0,.09.1.1,0,0,1-.08,0h-.06v0h.05Zm0-.1h0l0,0v0a.09.09,0,0,0,0-.06l0,0,0,0a.08.08,0,0,0,0,.05.09.09,0,0,0,0,0Z"/><path class="cls-10" d="M35.14,13.58a.07.07,0,0,1,0,0l0,0,0,0a.07.07,0,0,1,0,0,.08.08,0,0,1,0,.06l-.07,0-.07,0a.08.08,0,0,1,0-.06.07.07,0,0,1,0,0l0,0,0,0a.07.07,0,0,1,0,0,.08.08,0,0,1,0-.06l.06,0,.06,0A.08.08,0,0,1,35.14,13.58Zm0,.14a.05.05,0,0,0,0,0l0,0,0,0a.05.05,0,0,0,0,0,.05.05,0,0,0,0,0h.08A.06.06,0,0,0,35.11,13.72Zm0-.14a.05.05,0,0,0,0,0H35a.05.05,0,0,0,0,0,0,0,0,0,0,0,0h.07A0,0,0,0,0,35.1,13.58Z"/><path class="cls-10" d="M35.22,13.5h0v0h0v0h0a0,0,0,0,1,0,0h0a0,0,0,0,1,0,0Zm0,0h0v0h0Z"/><path class="cls-10" d="M34.42,13.8h0v-.06h0Z"/><path class="cls-10" d="M34.46,13.8h0Z"/><path class="cls-10" d="M34.51,13.8h0v-.06h0Z"/><path class="cls-10" d="M34.58,13.78v0h0v-.06h0v0Zm0,0h0v0h0Z"/><path class="cls-10" d="M35,13.37v-.09H35v0h0v0H35Zm0-.05h0Zm0,0v0h0Z"/><path class="cls-10" d="M35.11,13.28v.06a0,0,0,0,1,0,0h-.05a0,0,0,0,1,0,0v-.06h0v.08h0v-.08Z"/><path class="cls-10" d="M35.16,13.33l0,0h0l0,.06v0h0v0l0-.06h0Z"/><rect class="cls-37" x="33.62" y="13.19" width="1.15" height="0.19"/><rect class="cls-36" x="33.62" y="13.19" width="0.21" height="0.19"/><polygon class="cls-10" points="33.78 13.27 33.72 13.34 33.66 13.27 33.78 13.27"/><rect class="cls-36" x="34.55" y="13.19" width="0.21" height="0.19"/><polygon class="cls-10" points="34.71 13.27 34.66 13.34 34.6 13.27 34.71 13.27"/><path class="cls-38" d="M32.9,17.5V16.43H33V17.5Zm0-1.06v0m0,1.09v.23"/><path class="cls-38" d="M33.05,16.52v-.09h.08v.09Zm0-.09v-.33m0,.41v0"/><path class="cls-38" d="M33.21,16.51V15.9h.08v.61Zm0-.61v-.14m0,.74v.38"/><path class="cls-38" d="M33.36,16.56v-.66h.08v.66Zm0-.66v-.21m0,.88h0"/><path class="cls-38" d="M33.52,16.5V15.2h.08v1.3Zm0-1.3v-.38m0,1.68v.27"/><path class="cls-38" d="M33.67,15.19v-.53h.08v.53Zm0-.53v0m0,.58v.2"/><path class="cls-38" d="M33.83,14.76v-.05h.08v.05Zm0-.05v-.25m0,.3V15"/><path class="cls-38" d="M34,14.77v-.1h.08v.1Zm0-.1v0m0,.14V15"/><path class="cls-38" d="M34.13,14.72v-.65h.08v.65Zm0-.65v-.15m0,.81v.11"/><path class="cls-38" d="M34.29,14.13V14h.08v.13Zm0-.13v-.14m0,.27v.28"/><path class="cls-38" d="M34.44,14.84v-.77h.08v.77Zm0-.77v-.21m0,1h0"/><path class="cls-38" d="M34.6,14.76v-.28h.08v.28Zm0-.28V14m0,.76v.13"/><path class="cls-38" d="M34.75,14.45v-.14h.08v.14Zm0-.14v-.37m0,.51v.25"/><path class="cls-38" d="M34.91,14.3v-.24H35v.24Zm0-.24v-.17m0,.41v0"/><path class="cls-38" d="M35.06,15v-1h.08v1Zm0-1v-.15m0,1.11v.07"/><path class="cls-38" d="M35.22,15v-.16h.08V15Zm0-.16v0m0,.19v.54"/><path class="cls-38" d="M35.37,14.88v0h.08v0Zm0,0v-.32m0,.34V15"/><path class="cls-38" d="M35.53,15.32v-.46h.08v.46Zm0-.46v-.21m0,.68v.07"/><path class="cls-38" d="M35.68,15.9v-.64h.08v.64Zm0-.64v0m0,.69v.3"/><path class="cls-38" d="M35.84,15.86v-.3h.08v.3Zm0-.3v-.32m0,.61v.42"/><path class="cls-38" d="M36,15.55v-.64h.08v.64Zm0-.64v-.45m0,1.09v.17"/><path class="cls-38" d="M36.15,15.21v-.28h.08v.28Zm0-.28h0m0,.28v.14"/><path class="cls-38" d="M36.3,15.21v-.27h.08v.27Zm0-.27v-.14m0,.41v0"/><path class="cls-38" d="M36.45,15v0h.08v0Zm0,0V14.8m0,.2v.09"/><path class="cls-38" d="M36.61,15.71v-.82h.08v.82Zm0-.82v-.08m0,.9h0"/><path class="cls-38" d="M36.76,15.75v0h.08v0Zm0,0v-.15m0,.19v.8"/><path class="cls-38" d="M36.92,15.93v-.21H37v.21Zm0-.21v-.15m0,.36v.14"/><path class="cls-38" d="M37.07,16v-.85h.08V16Zm0-.85V15m0,1v.26"/><path class="cls-38" d="M37.23,15.36v-.25h.08v.25Zm0-.25v-.3m0,.55v.14"/><path class="cls-38" d="M37.38,15.48v-.15h.08v.15Zm0-.15h0m0,.16v.07"/><path class="cls-38" d="M42.2,14.48v.67h-.08v-.67Zm0,.67v0m0-.69v-.15"/><path class="cls-38" d="M42,15.1v.06H42V15.1Zm0,.06v.21m0-.26v0"/><path class="cls-38" d="M41.89,15.1v.39h-.08V15.1Zm0,.39v.09m0-.47v-.24"/><path class="cls-38" d="M41.73,15.08v.42h-.08v-.42Zm0,.42v.14m0-.55h0"/><path class="cls-38" d="M41.58,15.11v.82H41.5v-.82Zm0,.82v.24m0-1.06v-.17"/><path class="cls-38" d="M41.42,15.94v.34h-.08v-.34Zm0,.34v0m0-.37v-.12"/><path class="cls-38" d="M41.27,16.21v0h-.08v0Zm0,0v.16m0-.19V16"/><path class="cls-38" d="M41.12,16.21v.06H41v-.06Zm0,.06v0m0-.09V16"/><path class="cls-38" d="M41,16.24v.41h-.08v-.41Zm0,.41v.1m0-.51v-.07"/><path class="cls-38" d="M40.81,16.61v.08h-.08v-.08Zm0,.08v.09m0-.17v-.18"/><path class="cls-38" d="M40.65,16.16v.49h-.08v-.49Zm0,.49v.14m0-.62h0"/><path class="cls-38" d="M40.5,16.21v.18h-.08v-.18Zm0,.18v.31m0-.48v-.08"/><path class="cls-38" d="M40.34,16.41v.09h-.08v-.09Zm0,.09v.23m0-.32v-.16"/><path class="cls-38" d="M40.19,16.51v.15h-.08v-.15Zm0,.15v.11m0-.26v0"/><path class="cls-38" d="M40,16v.61H40V16Zm0,.61v.1m0-.7v0"/><path class="cls-38" d="M39.88,16v.1H39.8V16Zm0,.1v0m0-.12V15.7"/><path class="cls-38" d="M39.72,16.14v0h-.08v0Zm0,0v.2m0-.22V16"/><path class="cls-38" d="M39.57,15.86v.29h-.08v-.29Zm0,.29v.14m0-.43v0"/><path class="cls-38" d="M39.41,15.49v.41h-.08v-.41Zm0,.41v0m0-.44V15.3"/><path class="cls-38" d="M39.26,15.52v.19h-.08v-.19Zm0,.19v.2m0-.39v-.27"/><path class="cls-38" d="M39.1,15.71v.41H39v-.41Zm0,.41v.28m0-.69V15.6"/><path class="cls-38" d="M38.95,15.93v.18h-.08v-.18Zm0,.18h0m0-.18v-.09"/><path class="cls-38" d="M38.79,15.93v.17h-.08v-.17Zm0,.17v.09m0-.26v0"/><path class="cls-38" d="M38.64,16.06v0h-.08v0Zm0,0v.1m0-.12V16"/><path class="cls-38" d="M38.49,15.61v.52h-.08v-.52Zm0,.52v.05m0-.57h0"/><path class="cls-38" d="M38.33,15.59v0h-.08v0Zm0,0v.1m0-.12v-.5"/><path class="cls-38" d="M38.18,15.47v.13H38.1v-.13Zm0,.13v.1m0-.23v-.09"/><path class="cls-38" d="M38,15.45V16h-.08v-.54ZM38,16v.07m0-.61v-.16"/><path class="cls-38" d="M37.87,15.83V16h-.08v-.16Zm0,.16v.19m0-.35v-.09"/><path class="cls-38" d="M37.71,15.75v.09h-.08v-.09Zm0,.09h0m0-.1v0"/><path class="cls-38" d="M42.45,14.26v.58h-.08v-.58Zm0,.6v0m0-.71v.13"/><path class="cls-38" d="M42.61,14.8v0h-.08v0Zm0,.23v-.18m0-.07v0"/><path class="cls-38" d="M42.76,14.8v.34h-.08V14.8Zm0,.41v-.07m0-.54v.21"/><path class="cls-38" d="M42.92,14.78v.36h-.08v-.36Zm0,.48v-.12m0-.36h0"/><path class="cls-38" d="M43.07,14.81v.71H43v-.71Zm0,.92v-.21m0-.86v.15"/><path class="cls-38" d="M43.22,15.53v.29h-.08v-.29Zm0,.32v0m0-.4v.11"/><path class="cls-38" d="M43.38,15.77v0H43.3v0Zm0,.17v-.14m0-.17v.14"/><path class="cls-38" d="M43.53,15.76v.05h-.08v-.05Zm0,.08v0m0-.19v.14"/><path class="cls-38" d="M43.69,15.79v.36h-.08v-.36Zm0,.44v-.08m0-.42v.06"/><path class="cls-38" d="M43.84,16.11v.07h-.08v-.07Zm0,.15v-.07m0-.23v.16"/><path class="cls-38" d="M44,15.72v.42h-.08v-.42Zm0,.54v-.12m0-.42h0"/><path class="cls-38" d="M44.15,15.77v.15h-.08v-.15Zm0,.42v-.27m0-.22v.07"/><path class="cls-38" d="M44.31,15.94V16h-.08v-.08Zm0,.28V16m0-.21v.14"/><path class="cls-38" d="M44.46,16v.13h-.08V16Zm0,.23v-.09m0-.15v0"/><path class="cls-38" d="M44.62,15.62v.53h-.08v-.53Zm0,.61v-.08m0-.57v0"/><path class="cls-38" d="M44.77,15.62v.09h-.08v-.09Zm0,.1v0m0-.39v.3"/><path class="cls-38" d="M44.93,15.7h0Zm0,.19v-.17m0-.1v.09"/><path class="cls-38" d="M45.08,15.46v.25H45v-.25Zm0,.37v-.12m0-.29v0"/><path class="cls-38" d="M45.24,15.14v.35h-.08v-.35Zm0,.38v0m0-.52v.17"/><path class="cls-38" d="M45.39,15.16v.16h-.08v-.16Zm0,.34v-.17m0-.4v.23"/><path class="cls-38" d="M45.55,15.33v.35h-.08v-.35Zm0,.6v-.25m0-.45v.09"/><path class="cls-38" d="M45.7,15.52v.15h-.08v-.15Zm0,.15h0m0-.23v.07"/><path class="cls-38" d="M45.86,15.52v.15h-.08v-.15Zm0,.23v-.08m0-.17v0"/><path class="cls-38" d="M46,15.64v0h-.08v0Zm0,.11v-.09m0-.07v.05"/><path class="cls-38" d="M46.16,15.24v.45h-.08v-.45Zm0,.5v0m0-.45h0"/><path class="cls-38" d="M46.32,15.22v0h-.08v0Zm0,.1v-.08m0-.46v.44"/><path class="cls-38" d="M46.47,15.12v.11h-.08v-.11Zm0,.2v-.08m0-.19v.08"/><path class="cls-38" d="M46.63,15.1v.47h-.08V15.1Zm0,.53v-.06m0-.61v.14"/><path class="cls-38" d="M46.78,15.44v.14H46.7v-.14Zm0,.3v-.17m0-.22v.08"/><path class="cls-38" d="M46.94,15.37v.08h-.08v-.08Zm0,.09h0m0-.12v0"/><path class="cls-39" d="M32.83,17.17c.2.09.43-.09.5-.3a3.05,3.05,0,0,0,.07-.65,2.69,2.69,0,0,1,.5-1.11l.23-.36a1.12,1.12,0,0,1,.24-.29.89.89,0,0,1,.62-.13,1.36,1.36,0,0,1,.57.17c.45.27.66.85,1.15,1s1-.08,1.45,0a3,3,0,0,1,1.36.71,1.59,1.59,0,0,0,1.44.36c.55-.22.72-.89,1-1.42a1.27,1.27,0,0,1,.35-.47.58.58,0,0,1,.56-.1c.24.1.34.36.47.58a1.64,1.64,0,0,0,.52.52.78.78,0,0,0,.6.14c.18,0,.32-.19.5-.23s.5.07.75,0,.34-.14.52-.18a.69.69,0,0,1,.72.31"/><rect class="cls-40" x="32.79" y="12" width="14.18" height="0.56"/><rect class="cls-41" x="25.81" y="11.42" width="1.96" height="12.27"/><line class="cls-33" x1="26.02" y1="12.11" x2="27.52" y2="12.11"/><line class="cls-33" x1="26.02" y1="17.44" x2="27.52" y2="17.44"/><line class="cls-33" x1="26.02" y1="17.73" x2="27.52" y2="17.73"/><line class="cls-33" x1="26.02" y1="18.03" x2="27.52" y2="18.03"/><line class="cls-33" x1="26.02" y1="18.33" x2="27.52" y2="18.33"/><line class="cls-33" x1="26.02" y1="12.4" x2="27.52" y2="12.4"/><line class="cls-33" x1="26.02" y1="12.68" x2="27.52" y2="12.68"/><line class="cls-33" x1="26.02" y1="12.97" x2="27.52" y2="12.97"/><line class="cls-33" x1="26.02" y1="13.25" x2="27.52" y2="13.25"/><rect class="cls-33" x="25.81" y="11.42" width="1.96" height="0.39"/><rect class="cls-33" x="25.81" y="16.7" width="1.96" height="0.39"/><rect class="cls-33" x="25.81" y="21.97" width="21.87" height="1.72"/><rect class="cls-33" x="25.81" y="21.97" width="21.87" height="0.39"/><rect class="cls-42" x="25.81" y="22.36" width="21.87" height="0.39"/><rect class="cls-43" x="25.81" y="22.76" width="21.87" height="0.39"/><rect class="cls-33" x="27.77" y="11.42" width="9.95" height="0.39"/><path class="cls-21" d="M48.57,24.22V10.9a.35.35,0,0,0-.35-.35H42.13l-6.28,14H48.21A.35.35,0,0,0,48.57,24.22Z"/><path class="cls-1" d="M23.5,24.81H50a0,0,0,0,1,0,0v.62a.5.5,0,0,1-.5.5H24a.5.5,0,0,1-.5-.5v-.62A0,0,0,0,1,23.5,24.81Z"/></svg>