<?xml version="1.0" encoding="UTF-8"?>
<svg width="10" height="10" viewBox="0 0 10 10" version="1.1" xmlns="http://www.w3.org/2000/svg" xmlns:xlink="http://www.w3.org/1999/xlink">
    <g id="Mobile" stroke="none" stroke-width="1" fill="none" fill-rule="evenodd">
        <g transform="translate(-322.000000, -299.000000)" id="Profile" fill="#2A3052">
            <g transform="translate(-2.000000, 65.000000)">
                <g id="Account-Selection---Open" transform="translate(154.000000, 101.000000)">
                    <g id="Content---Hover" transform="translate(10.000000, 41.000000)">
                        <g id="Icon-/-Sign-Up-Hover" transform="translate(159.000000, 92.000000)">
                            <path d="M9.388,1.612 L9.388,0 L8.779,0 L8.779,1.612 L7.167,1.612 L7.167,2.221 L8.779,2.221 L8.779,3.833 L9.388,3.833 L9.388,2.221 L11,2.221 L11,1.612 L9.388,1.612 Z M4.385,4.609 C5.345,4.609 6.122,3.652 6.122,2.471 C6.122,1.29 5.344,0.6 4.385,0.6 C3.426,0.6 2.648,1.29 2.648,2.471 C2.648,3.652 3.426,4.609 4.385,4.609 L4.385,4.609 Z M4.434,5.527 C4.417,5.527 4.402,5.528 4.385,5.528 C4.368,5.528 4.353,5.527 4.336,5.527 C2.605,5.527 1.181,6.079 1.012,7.631 C1.008,7.671 1.004,8.01 1,8.193 C1.932,8.909 3.065,9.291 4.385,9.291 C5.691,9.291 6.841,8.895 7.77,8.193 C7.767,8.01 7.762,7.671 7.758,7.631 C7.589,6.079 6.165,5.527 4.434,5.527 L4.434,5.527 Z" id="Fill-1"></path>
                        </g>
                    </g>
                </g>
            </g>
        </g>
    </g>
</svg>