<?xml version="1.0" encoding="UTF-8"?>
<svg width="299px" height="197px" viewBox="0 0 299 197" version="1.1" xmlns="http://www.w3.org/2000/svg" xmlns:xlink="http://www.w3.org/1999/xlink">
    <!-- Generator: Sketch 52.6 (67491) - http://www.bohemiancoding.com/sketch -->
    <title>ends between</title>
    <desc>Created with Sketch.</desc>
    <g id="Page-1" stroke="none" stroke-width="1" fill="none" fill-rule="evenodd">
        <g id="ends-between">
            <polygon id="Path" fill="#F1F2F2" points="0 0 299 0 299 197 0 197"></polygon>
            <path d="M1.98671096,1.9798995 L1.98671096,195.020101 L297.013289,195.020101 L297.013289,1.9798995 L1.98671096,1.9798995 Z M299,0 L299,197 L0,197 L0,0 L299,0 Z" id="Path" fill="#C2C2C2" fill-rule="nonzero"></path>
            <path d="M4.887,56.4456836 L4.887,55.2388448 L294.54325,55.2388448 L294.54325,56.4456836 L4.887,56.4456836 Z M4.887,96.9796458 L4.887,95.772807 L294.54325,95.772807 L294.54325,96.9796458 L4.887,96.9796458 Z M4.887,137.513608 L4.887,136.30677 L294.54325,136.30677 L294.54325,137.513608 L4.887,137.513608 Z M4.887,178.010211 L4.887,176.803373 L294.54325,176.803373 L294.54325,178.010211 L4.887,178.010211 Z M39.2665806,35.5939623 L40.4734194,35.5939623 L40.4734194,195.264151 L39.2665806,195.264151 L39.2665806,35.5939623 Z M75.9314556,35.5939623 L77.1382944,35.5939623 L77.1382944,195.264151 L75.9314556,195.264151 L75.9314556,35.5939623 Z M112.558956,35.5939623 L113.765794,35.5939623 L113.765794,195.264151 L112.558956,195.264151 L112.558956,35.5939623 Z M149.223831,35.5939623 L150.430669,35.5939623 L150.430669,195.264151 L149.223831,195.264151 L149.223831,35.5939623 Z M185.851331,35.5939623 L187.058169,35.5939623 L187.058169,195.264151 L185.851331,195.264151 L185.851331,35.5939623 Z M222.478831,35.5939623 L223.685669,35.5939623 L223.685669,195.264151 L222.478831,195.264151 L222.478831,35.5939623 Z M4.887,117.227947 L4.887,116.021109 L294.54325,116.021109 L294.54325,117.227947 L4.887,117.227947 Z" id="Shape" fill="#DFDEDE" fill-rule="nonzero"></path>
            <path d="M259.143706,35.5939623 L260.350544,35.5939623 L260.350544,195.264151 L259.143706,195.264151 L259.143706,35.5939623 Z M4.887,76.7313439 L4.887,75.5245051 L294.54325,75.5245051 L294.54325,76.7313439 L4.887,76.7313439 Z M4.887,157.76191 L4.887,156.555072 L294.54325,156.555072 L294.54325,157.76191 L4.887,157.76191 Z" id="Shape" fill="#2A3052" fill-rule="nonzero"></path>
            <polygon id="Path" fill="#C2C2C2" points="2.794 35.6055162 2.794 33.191465 296.63625 33.191465 296.63625 35.6055162"></polygon>
            <path d="M19.538,19.1935849 L15.314625,19.1935849 L15.314625,22.1449057 L20.2855,22.1449057 L20.2855,23.7513208 L13.296375,23.7513208 L13.296375,13.4030189 L20.2855,13.4030189 L20.2855,15.009434 L15.352,15.009434 L15.352,17.6245283 L19.575375,17.6245283 L19.575375,19.1935849 L19.538,19.1935849 Z M23.238125,16.0554717 L23.312875,17.1388679 C23.545078,16.7572973 23.8655107,16.4370061 24.24725,16.2049057 C24.6194867,15.9812811 25.0463462,15.8649163 25.480625,15.8686793 C26.1614272,15.8306578 26.822253,16.1058803 27.274625,16.6158491 C27.7475682,17.2914597 27.9720607,18.1098351 27.91,18.9320755 L27.91,23.7513208 L25.854375,23.7513208 L25.854375,18.9320755 C25.8923159,18.5463981 25.7857766,18.1603638 25.555375,17.8486792 C25.3040779,17.6118743 24.9656387,17.49009 24.621,17.5124528 C24.3636529,17.5041535 24.1078577,17.55529 23.8735,17.6618868 C23.6462733,17.7703453 23.452576,17.9381421 23.312875,18.1475472 L23.312875,23.7513208 L21.25725,23.7513208 L21.25725,16.0554717 L23.238125,16.0554717 Z M29.18075,19.9781132 C29.1292171,18.9367195 29.4035535,17.9051481 29.965625,17.0267925 C30.4523664,16.291616 31.2896831,15.8660499 32.17075,15.9060377 C32.5252492,15.8947172 32.8755326,15.9854913 33.179875,16.1675472 C33.4921554,16.341332 33.7606053,16.584108 33.96475,16.8773585 L33.96475,12.6558491 L36.020375,12.6558491 L36.020375,23.7513208 L34.26375,23.7513208 L34.076875,22.8173585 C33.8583257,23.1545373 33.5639534,23.4359865 33.21725,23.6392453 C32.8723958,23.8218211 32.4860808,23.9119215 32.096,23.9007547 C31.2424295,23.9434393 30.4257213,23.5493406 29.92825,22.854717 C29.3760944,22.0555374 29.1004687,21.0978334 29.143375,20.1275472 L29.143375,19.9781132 L29.18075,19.9781132 Z M31.199,20.1275472 C31.174427,20.6827542 31.2901081,21.2352084 31.535375,21.7339623 C31.759787,22.116684 32.1756732,22.3460371 32.61925,22.3316981 C32.891912,22.3318377 33.1607815,22.2678494 33.404125,22.1449057 C33.6300896,22.0310936 33.8135127,21.8477516 33.927375,21.6218868 L33.927375,18.2969811 C33.8032936,18.0688789 33.6232388,17.8760482 33.404125,17.7366038 C33.1792809,17.6009544 32.9188801,17.5358829 32.656625,17.5498113 C32.1922056,17.5330295 31.7638031,17.798817 31.57275,18.2222642 C31.3252449,18.7865266 31.210184,19.3999139 31.236375,20.0154717 L31.236375,20.1275472 L31.199,20.1275472 Z M41.701375,21.6218868 C41.6891738,21.3809564 41.5646541,21.1596857 41.365,21.0241509 C40.9898591,20.8182591 40.5870812,20.6672841 40.169,20.5758491 C39.4403787,20.466415 38.7484374,20.1846376 38.15075,19.7539623 C37.7035202,19.3895879 37.4542295,18.8358535 37.478,18.2596226 C37.4660762,17.5997723 37.7719695,16.9743577 38.30025,16.5784906 C38.929092,16.0903878 39.7097485,15.839101 40.505375,15.8686793 C41.331846,15.8226911 42.1492836,16.0599068 42.822625,16.5411321 C43.3746948,16.9509427 43.6836635,17.6107207 43.644875,18.2969811 L43.644875,18.3343396 L41.626625,18.3343396 C41.6306236,18.055394 41.5229818,17.7864085 41.327625,17.5871698 C41.0875281,17.4200693 40.7971008,17.3408968 40.505375,17.3630189 C40.2190269,17.3396178 39.9355316,17.4340744 39.7205,17.6245283 C39.5301533,17.7724499 39.4188125,17.9999441 39.4188125,18.2409434 C39.4188125,18.4819427 39.5301533,18.7094369 39.7205,18.8573585 C40.0858246,19.076873 40.4933606,19.2169016 40.9165,19.2683019 C41.6695883,19.3721479 42.3870747,19.653893 43.0095,20.0901887 C43.464672,20.4647697 43.7144408,21.0334361 43.68225,21.6218868 C43.688878,22.299568 43.3689864,22.9390687 42.822625,23.3403774 C42.1467027,23.8162603 41.3311635,24.0529252 40.505375,24.0128302 C39.638028,24.0588964 38.7848038,23.7790559 38.113375,23.2283019 C37.5774917,22.8018198 37.26185,22.1570978 37.25375,21.4724528 L37.25375,21.4350943 L39.1225,21.4350943 C39.0997687,21.7840905 39.2542933,22.1210863 39.533625,22.3316981 C39.8341111,22.5227873 40.1872305,22.6142964 40.54275,22.5932075 C40.846131,22.6147479 41.148182,22.5359868 41.402375,22.3690566 C41.5953135,22.1682501 41.7025406,21.9003006 41.701375,21.6218868 Z M48.76525,23.7513208 L48.76525,13.4030189 L52.20375,13.4030189 C53.1894285,13.3404346 54.1698941,13.5887095 55.006875,14.1128302 C55.683296,14.6052134 56.0633493,15.4071938 56.016,16.2422642 C56.0301336,16.6946681 55.8991733,17.1397363 55.64225,17.5124528 C55.3785273,17.9039942 54.9998556,18.2041874 54.558375,18.3716981 C55.1115692,18.4727112 55.6058004,18.7798003 55.94125,19.2309434 C56.2451866,19.6830671 56.40184,20.2180631 56.38975,20.7626415 C56.449821,21.6233162 56.0873497,22.459419 55.418,23.0041509 C54.6259503,23.5716807 53.6623034,23.8487717 52.689625,23.7886792 L48.76525,23.7886792 L48.76525,23.7513208 Z M50.820875,17.7366038 L52.315875,17.7366038 C52.7648309,17.7662955 53.2111616,17.6482014 53.586625,17.4003774 C53.8938611,17.1590187 54.0617728,16.7813841 54.035125,16.3916981 C54.0698399,15.9900212 53.9015643,15.5975517 53.586625,15.3456604 C53.1852436,15.0935667 52.7139698,14.9758003 52.241125,15.009434 L50.820875,15.009434 L50.820875,17.7366038 Z M50.820875,19.1935849 L50.820875,22.1822642 L52.727,22.1822642 C53.1714423,22.2263664 53.6151832,22.0919588 53.960375,21.8086793 C54.2576942,21.5463461 54.4106756,21.1571107 54.3715,20.7626415 C54.4325931,20.3374235 54.2924285,19.9079831 53.9922182,19.6005864 C53.6920078,19.2931897 53.2658793,19.1427813 52.839125,19.1935849 L50.820875,19.1935849 Z M61.211125,23.9007547 C60.2224922,23.9394718 59.2664653,23.5435785 58.594875,22.8173585 C57.919988,22.0742596 57.570136,21.0924166 57.623125,20.0901887 L57.623125,19.8286793 C57.5756587,18.7997474 57.9082003,17.7892677 58.5575,16.989434 C59.1675447,16.244419 60.1006774,15.8407041 61.061625,15.9060377 C61.9576981,15.8497741 62.8329627,16.1915234 63.453625,16.84 C64.0509635,17.5478267 64.3580861,18.4554405 64.31325,19.3803774 L64.31325,20.5011321 L59.790875,20.5011321 L59.790875,20.5384906 C59.8121896,20.9917895 59.9830355,21.4252835 60.27675,21.7713208 C60.5838197,22.1022163 61.0218101,22.2800713 61.47275,22.2569811 C61.852357,22.2728784 62.2318214,22.2223055 62.594,22.1075472 C62.9408756,22.0139154 63.2694208,21.8623461 63.56575,21.6592453 L64.126375,22.929434 C63.7668784,23.2290679 63.3457832,23.4458999 62.893,23.5645283 C62.3668549,23.8079432 61.7904599,23.9231713 61.211125,23.9007547 Z M61.02425,17.5124528 C60.6691728,17.5030472 60.3327685,17.6711751 60.12725,17.9607547 C59.8801125,18.2984362 59.7372018,18.7010068 59.716125,19.1188679 L59.7535,19.1562264 L62.257625,19.1562264 L62.257625,18.969434 C62.2725739,18.5977492 62.167766,18.2310836 61.958625,17.9233962 C61.7323918,17.6428993 61.383986,17.4896684 61.02425,17.5124528 Z M67.90125,14.1875472 L67.90125,16.0554717 L69.172,16.0554717 L69.172,17.5124528 L67.90125,17.5124528 L67.90125,21.4350943 C67.8824508,21.6626461 67.949068,21.8890447 68.088125,22.0701887 C68.220589,22.1916847 68.3942254,22.2584385 68.574,22.2569811 L68.835625,22.2569811 C68.9259702,22.2447617 69.0140834,22.2195977 69.09725,22.1822642 L69.284125,23.6766038 C69.0883181,23.7395823 68.8885459,23.7895033 68.686125,23.8260377 C68.4759557,23.8582063 68.263243,23.8707132 68.05075,23.8633962 C67.443041,23.9030411 66.8465358,23.6862259 66.40625,23.2656604 C65.9732557,22.7450059 65.7708597,22.0706509 65.845625,21.3977359 L65.845625,17.5124528 L64.724375,17.5124528 L64.724375,16.0554717 L65.845625,16.0554717 L65.845625,14.1875472 L67.90125,14.1875472 Z M77.0955,20.9867925 L77.132875,20.9867925 L78.142,16.0554717 L80.0855,16.0554717 L78.142,23.7513208 L76.42275,23.7513208 L75.0025,19.1562264 L74.965125,19.1562264 L73.544875,23.7513208 L71.825625,23.7513208 L69.882125,16.0554717 L71.825625,16.0554717 L72.83475,20.9867925 L72.872125,20.9867925 L74.292375,16.0554717 L75.67525,16.0554717 L77.0955,20.9867925 Z M84.421,23.9007547 C83.4323672,23.9394718 82.4763403,23.5435785 81.80475,22.8173585 C81.129863,22.0742596 80.780011,21.0924166 80.833,20.0901887 L80.833,19.8286793 C80.7855337,18.7997474 81.1180753,17.7892677 81.767375,16.989434 C82.3774197,16.244419 83.3105524,15.8407041 84.2715,15.9060377 C85.1675731,15.8497741 86.0428377,16.1915234 86.6635,16.84 C87.2608385,17.5478267 87.5679611,18.4554405 87.523125,19.3803774 L87.523125,20.5011321 L83.00075,20.5011321 L83.00075,20.5384906 C83.0220646,20.9917895 83.1929105,21.4252835 83.486625,21.7713208 C83.7936947,22.1022163 84.2316851,22.2800713 84.682625,22.2569811 C85.062232,22.2728784 85.4416964,22.2223055 85.803875,22.1075472 C86.1460073,22.0368257 86.4742595,21.9106306 86.775625,21.7339623 L87.33625,23.0041509 C86.9718891,23.2963744 86.5524456,23.5123559 86.102875,23.6392453 C85.5629794,23.8285394 84.9929102,23.9171777 84.421,23.9007547 Z M84.2715,17.5124528 C83.9164228,17.5030472 83.5800185,17.6711751 83.3745,17.9607547 C83.1273625,18.2984362 82.9844518,18.7010068 82.963375,19.1188679 L83.00075,19.1562264 L85.504875,19.1562264 L85.504875,18.969434 C85.5198239,18.5977492 85.415016,18.2310836 85.205875,17.9233962 C84.9796418,17.6428993 84.631236,17.4896684 84.2715,17.5124528 Z M92.0455,23.9007547 C91.0568672,23.9394718 90.1008403,23.5435785 89.42925,22.8173585 C88.754363,22.0742596 88.404511,21.0924166 88.4575,20.0901887 L88.4575,19.8286793 C88.4100337,18.7997474 88.7425753,17.7892677 89.391875,16.989434 C90.0019197,16.244419 90.9350524,15.8407041 91.896,15.9060377 C92.7920731,15.8497741 93.6673377,16.1915234 94.288,16.84 C94.8853385,17.5478267 95.1924611,18.4554405 95.147625,19.3803774 L95.147625,20.5011321 L90.587875,20.5011321 L90.587875,20.5384906 C90.6091896,20.9917895 90.7800355,21.4252835 91.07375,21.7713208 C91.3808197,22.1022163 91.8188101,22.2800713 92.26975,22.2569811 C92.649357,22.2728784 93.0288214,22.2223055 93.391,22.1075472 C93.7378756,22.0139154 94.0664208,21.8623461 94.36275,21.6592453 L94.923375,22.929434 C94.5638784,23.2290679 94.1427832,23.4458999 93.69,23.5645283 C93.180893,23.8190355 92.6136964,23.9350017 92.0455,23.9007547 Z M91.858625,17.5124528 C91.5035478,17.5030472 91.1671435,17.6711751 90.961625,17.9607547 C90.7144875,18.2984362 90.5715768,18.7010068 90.5505,19.1188679 L90.587875,19.1562264 L93.092,19.1562264 L93.092,18.969434 C93.1069489,18.5977492 93.002141,18.2310836 92.793,17.9233962 C92.5667668,17.6428993 92.218361,17.4896684 91.858625,17.5124528 Z M98.175,16.0554717 L98.24975,17.1388679 C98.481953,16.7572973 98.8023857,16.4370061 99.184125,16.2049057 C99.5563617,15.9812811 99.9832212,15.8649163 100.4175,15.8686793 C101.098302,15.8306578 101.759128,16.1058803 102.2115,16.6158491 C102.684443,17.2914597 102.908936,18.1098351 102.846875,18.9320755 L102.846875,23.7513208 L100.79125,23.7513208 L100.79125,18.9320755 C100.829191,18.5463981 100.722652,18.1603638 100.49225,17.8486792 C100.240953,17.6118743 99.9025137,17.49009 99.557875,17.5124528 C99.3005279,17.5041535 99.0447327,17.55529 98.810375,17.6618868 C98.5831483,17.7703453 98.389451,17.9381421 98.24975,18.1475472 L98.24975,23.7513208 L96.194125,23.7513208 L96.194125,16.0554717 L98.175,16.0554717 Z" id="Shape" fill="#000000" fill-rule="nonzero"></path>
            <path d="M81.2605355,98.4375166 L40.6640937,118.251527 C39.7655269,118.690093 38.6815667,118.317189 38.2430008,117.418622 C37.804435,116.520055 38.1773395,115.436095 39.0759063,114.997529 L80.5621563,94.7492272 C81.1166106,94.4786133 81.7707077,94.5089858 82.2976987,94.8298159 L120.670814,118.19122 L148.443626,90.7912015 C149.111703,90.1320922 150.172684,90.092765 150.887723,90.7006067 L186.536059,121.00462 L222.00967,94.9177058 C222.454127,94.5908567 223.023364,94.4845034 223.555852,94.6288248 L260.220727,104.566183 C261.18579,104.827746 261.75609,105.822124 261.494527,106.787187 C261.232963,107.75225 260.238586,108.32255 259.273523,108.060986 L223.451401,98.3520412 L187.52733,124.770219 C186.85109,125.267519 185.921706,125.234764 185.282152,124.691091 L149.806069,94.5335072 L122.207874,121.761251 C121.616637,122.344552 120.704343,122.450754 119.994926,122.018863 L81.2605355,98.4375166 Z" id="Path" fill="#2A3052"></path>
            <path d="M187.987125,147.445283 L153.0415,147.445283 L147.6595,139.263774 L142.2775,147.445283 L107.331875,147.445283 C106.07173,147.451176 104.865994,147.959272 103.98197,148.856931 C103.097947,149.754589 102.608676,150.967645 102.622625,152.22717 L102.622625,176.921132 C102.606032,179.539822 104.712091,181.678366 107.331875,181.703019 L188.0245,181.703019 C189.284645,181.697126 190.490381,181.18903 191.374405,180.291371 C192.258428,179.393713 192.747699,178.180657 192.73375,176.921132 L192.73375,152.22717 C192.73971,150.963586 192.242729,149.749496 191.352348,148.8525 C190.461966,147.955504 189.251275,147.449236 187.987125,147.445283 Z" id="Path" fill="#E88024"></path>
            <g id="Group" opacity="0.6" transform="translate(251.412500, 99.132075)" fill="#FFFFFF">
                <ellipse id="Oval" cx="8.334625" cy="8.56377358" rx="8.110375" ry="8.44301887"></ellipse>
            </g>
            <path d="M259.747125,117.345894 C254.590171,117.345894 250.429724,113.014808 250.429724,107.695849 C250.429724,102.37689 254.590171,98.0458046 259.747125,98.0458046 C264.904079,98.0458046 269.064526,102.37689 269.064526,107.695849 C269.064526,113.014808 264.904079,117.345894 259.747125,117.345894 Z M259.747125,114.931842 C263.548644,114.931842 266.650474,111.702791 266.650474,107.695849 C266.650474,103.688907 263.548644,100.459856 259.747125,100.459856 C255.945606,100.459856 252.843776,103.688907 252.843776,107.695849 C252.843776,111.702791 255.945606,114.931842 259.747125,114.931842 Z" id="Oval" fill="#E88024" fill-rule="nonzero"></path>
            <g id="Group" opacity="0.6" transform="translate(30.900000, 107.603774)" fill="#FFFFFF">
                <ellipse id="Oval" cx="8.97" cy="9.0207547" rx="8.110375" ry="8.44301887"></ellipse>
            </g>
            <path d="M39.87,126.274572 C34.7130457,126.274572 30.5525994,121.943487 30.5525994,116.624528 C30.5525994,111.305569 34.7130457,106.974484 39.87,106.974484 C45.0269543,106.974484 49.1874006,111.305569 49.1874006,116.624528 C49.1874006,121.943487 45.0269543,126.274572 39.87,126.274572 Z M39.87,123.860521 C43.6715185,123.860521 46.7733494,120.63147 46.7733494,116.624528 C46.7733494,112.617586 43.6715185,109.388535 39.87,109.388535 C36.0684815,109.388535 32.9666506,112.617586 32.9666506,116.624528 C32.9666506,120.63147 36.0684815,123.860521 39.87,123.860521 Z" id="Oval" fill="#E88024" fill-rule="nonzero"></path>
            <path d="M22.124,59.449 L19.164,59.449 L17.961,67.473 L16.746,67.473 L17.949,59.449 L15.025,59.449 L15.167,58.493 L22.267,58.493 L22.124,59.449 Z M25.437,67.473 C25.428,67.243 25.424,67.057 25.424,66.915 C25.424,66.773 25.432,66.628 25.449,66.48 C25.1634335,66.8050914 24.8216429,67.0760849 24.44,67.28 C24.0679043,67.4890754 23.648802,67.6002166 23.222,67.603 C22.552,67.603 22.055,67.423 21.732,67.063 C21.41,66.703 21.296,66.215 21.39,65.598 C21.4664882,64.9686426 21.8312361,64.4106189 22.377,64.088 C22.941,63.738 23.67,63.563 24.567,63.563 L25.887,63.563 L25.986,62.903 C26.047,62.496 25.976,62.183 25.773,61.963 C25.569,61.743 25.247,61.633 24.807,61.633 C24.433,61.633 24.104,61.731 23.821,61.928 C23.537,62.126 23.376,62.362 23.339,62.638 L22.179,62.65 L22.174,62.613 C22.223,62.107 22.517,61.658 23.056,61.265 C23.594,60.873 24.248,60.676 25.017,60.676 C25.745,60.676 26.317,60.871 26.732,61.259 C27.147,61.648 27.303,62.199 27.201,62.915 L26.719,66.129 C26.679,66.379 26.655,66.613 26.649,66.829 C26.642,67.045 26.656,67.259 26.689,67.473 L25.437,67.473 Z M23.555,66.585 C23.975,66.585 24.382,66.47 24.777,66.24 C25.171,66.01 25.445,65.75 25.597,65.463 L25.763,64.383 L24.4,64.383 C23.927,64.383 23.52,64.509 23.18,64.76 C22.838,65.01 22.645,65.298 22.6,65.623 C22.55,65.931 22.604,66.169 22.763,66.335 C22.921,66.502 23.185,66.585 23.555,66.585 Z M32.277,61.873 L31.66,61.836 C31.3630369,61.8301911 31.071034,61.9126758 30.821,62.073 C30.5657221,62.2449563 30.3543844,62.4744478 30.204,62.743 L29.495,67.473 L28.28,67.473 L29.28,60.8 L30.365,60.8 L30.34,61.743 C30.579,61.406 30.85,61.144 31.154,60.957 C31.5309708,60.7245433 31.9778449,60.6324773 32.416,60.697 C32.5,60.712 32.566,60.727 32.616,60.744 L32.276,61.873 L32.277,61.873 Z M32.85,64.26 C33.015,63.146 33.373,62.27 33.924,61.632 C34.474,60.995 35.166,60.676 35.996,60.676 C36.411,60.676 36.767,60.765 37.063,60.942 C37.359,61.118 37.593,61.373 37.766,61.706 L38.05,60.8 L39.019,60.8 L38.013,67.51 C37.877,68.399 37.531,69.064 36.973,69.506 C36.417,69.948 35.663,70.169 34.713,70.169 C34.405,70.169 34.068,70.124 33.702,70.033 C33.3743614,69.9573582 33.0587209,69.8368898 32.764,69.675 L33.091,68.732 C33.309,68.855 33.577,68.955 33.896,69.031 C34.215,69.107 34.534,69.145 34.856,69.145 C35.423,69.145 35.868,69.008 36.19,68.735 C36.513,68.461 36.716,68.053 36.798,67.51 L36.909,66.752 C36.65,67.032 36.357,67.243 36.03,67.387 C35.6884207,67.5339173 35.3198075,67.6075036 34.948,67.603 C34.166,67.603 33.582,67.305 33.196,66.709 C32.809,66.112 32.688,65.339 32.832,64.389 L32.85,64.259 L32.85,64.26 Z M34.047,64.39 C33.94,65.084 33.995,65.63 34.211,66.024 C34.426,66.419 34.824,66.616 35.404,66.616 C35.758,66.616 36.072,66.531 36.348,66.36 C36.623,66.19 36.866,65.95 37.076,65.642 L37.538,62.588 C37.4309112,62.3203532 37.252856,62.08698 37.023,61.913 C36.799,61.746 36.51,61.663 36.157,61.663 C35.601,61.663 35.142,61.908 34.778,62.397 C34.414,62.887 34.177,63.507 34.066,64.26 L34.047,64.39 Z M42.51,67.603 C41.588,67.603 40.897,67.293 40.434,66.672 C39.971,66.051 39.814,65.249 39.962,64.266 L40.005,63.995 C40.149,63 40.541,62.198 41.18,61.589 C41.82,60.981 42.545,60.676 43.355,60.676 C44.214,60.676 44.833,60.958 45.211,61.521 C45.589,62.085 45.711,62.819 45.575,63.723 L45.483,64.365 L41.165,64.365 C41.07,65.072 41.14,65.63 41.375,66.039 C41.609,66.449 42.035,66.653 42.651,66.653 C43.046,66.653 43.413,66.593 43.752,66.474 C44.092,66.355 44.385,66.194 44.632,65.994 L44.989,66.783 C44.718,67.013 44.374,67.207 43.959,67.366 C43.544,67.524 43.061,67.603 42.509,67.603 L42.51,67.603 Z M43.213,61.633 C42.806,61.633 42.437,61.797 42.106,62.126 C41.7644962,62.4726218 41.5188178,62.901956 41.393,63.372 L41.406,63.409 L44.409,63.409 L44.422,63.31 C44.496,62.813 44.438,62.409 44.249,62.098 C44.059,61.788 43.714,61.632 43.213,61.632 L43.213,61.633 Z M49.307,59.19 L49.067,60.8 L50.331,60.8 L50.195,61.7 L48.93,61.7 L48.326,65.753 C48.276,66.077 48.306,66.301 48.416,66.422 C48.524,66.543 48.688,66.604 48.906,66.604 C49.0636452,66.5975631 49.2195584,66.5686029 49.369,66.518 L49.412,67.35 C49.2809309,67.4363181 49.1352109,67.497995 48.982,67.532 C48.8,67.579 48.622,67.603 48.449,67.603 C47.972,67.603 47.605,67.453 47.349,67.153 C47.091,66.853 47.012,66.386 47.111,65.753 L47.715,61.7 L46.655,61.7 L46.79,60.8 L47.851,60.8 L48.091,59.19 L49.307,59.19 Z M61.421,59.449 L58.461,59.449 L57.257,67.473 L56.042,67.473 L57.245,59.449 L54.321,59.449 L54.463,58.493 L61.563,58.493 L61.421,59.449 Z M62.642,67.473 L61.427,67.473 L62.427,60.8 L63.641,60.8 L62.642,67.473 Z M63.9,59.091 L62.685,59.091 L62.87,57.851 L64.085,57.851 L63.9,59.091 Z M66.54,61.756 C66.812,61.41 67.13,61.144 67.493,60.957 C67.857,60.77 68.253,60.677 68.68,60.677 C69.375,60.677 69.895,60.889 70.238,61.315 C70.581,61.74 70.688,62.389 70.556,63.261 L69.926,67.473 L68.711,67.473 L69.341,63.285 C69.431,62.677 69.379,62.255 69.186,62.018 C68.993,61.781 68.654,61.663 68.168,61.663 C67.807,61.663 67.482,61.743 67.194,61.901 C66.906,62.059 66.664,62.278 66.466,62.558 L65.726,67.473 L64.511,67.473 L65.511,60.8 L66.596,60.8 L66.54,61.756 Z M71.956,64.26 C72.12,63.146 72.478,62.27 73.029,61.632 C73.579,60.995 74.271,60.676 75.101,60.676 C75.517,60.676 75.872,60.765 76.168,60.942 C76.464,61.118 76.698,61.373 76.872,61.706 L77.155,60.8 L78.124,60.8 L77.118,67.51 C76.983,68.399 76.636,69.064 76.079,69.506 C75.522,69.948 74.769,70.169 73.819,70.169 C73.51,70.169 73.173,70.124 72.807,70.033 C72.4793614,69.9573582 72.1637209,69.8368898 71.869,69.675 L72.196,68.732 C72.414,68.855 72.682,68.955 73.001,69.031 C73.32,69.107 73.64,69.145 73.961,69.145 C74.528,69.145 74.973,69.008 75.296,68.735 C75.618,68.461 75.821,68.053 75.903,67.51 L76.014,66.752 C75.755,67.032 75.462,67.243 75.135,67.387 C74.7934207,67.5339173 74.4248075,67.6075036 74.053,67.603 C73.271,67.603 72.688,67.305 72.301,66.709 C71.915,66.112 71.793,65.339 71.937,64.389 L71.956,64.259 L71.956,64.26 Z M73.152,64.39 C73.045,65.084 73.1,65.63 73.316,66.024 C73.532,66.419 73.929,66.616 74.509,66.616 C74.863,66.616 75.177,66.531 75.453,66.36 C75.728,66.19 75.971,65.95 76.181,65.642 L76.643,62.588 C76.5359112,62.3203532 76.357856,62.08698 76.128,61.913 C75.904,61.746 75.615,61.663 75.262,61.663 C74.707,61.663 74.247,61.908 73.883,62.397 C73.519,62.887 73.282,63.507 73.171,64.26 L73.152,64.39 Z M79.135,64.26 C79.3,63.146 79.657,62.27 80.208,61.632 C80.759,60.995 81.45,60.676 82.281,60.676 C82.696,60.676 83.051,60.765 83.348,60.942 C83.644,61.118 83.878,61.373 84.051,61.706 L84.335,60.8 L85.303,60.8 L84.298,67.51 C84.162,68.399 83.816,69.064 83.258,69.506 C82.701,69.948 81.948,70.169 80.998,70.169 C80.69,70.169 80.352,70.124 79.986,70.033 C79.6587059,69.9572707 79.3434074,69.8368045 79.049,69.675 L79.376,68.732 C79.594,68.855 79.862,68.955 80.181,69.031 C80.499,69.107 80.819,69.145 81.14,69.145 C81.707,69.145 82.152,69.008 82.475,68.735 C82.798,68.461 83,68.053 83.083,67.51 L83.193,66.752 C82.935,67.032 82.642,67.243 82.315,67.387 C81.973112,67.5340546 81.6041437,67.6076439 81.232,67.603 C80.451,67.603 79.867,67.305 79.481,66.709 C79.094,66.112 78.973,65.339 79.117,64.389 L79.135,64.259 L79.135,64.26 Z M80.332,64.39 C80.225,65.084 80.279,65.63 80.495,66.024 C80.711,66.419 81.109,66.616 81.689,66.616 C82.042,66.616 82.357,66.531 82.632,66.36 C82.908,66.19 83.151,65.95 83.36,65.642 L83.823,62.588 C83.7159112,62.3203532 83.537856,62.08698 83.308,61.913 C83.084,61.746 82.795,61.663 82.441,61.663 C81.886,61.663 81.427,61.908 81.063,62.397 C80.699,62.887 80.461,63.507 80.35,64.26 L80.332,64.39 Z M87.363,67.473 L86.148,67.473 L87.148,60.8 L88.363,60.8 L87.363,67.473 Z M88.622,59.091 L87.406,59.091 L87.592,57.851 L88.807,57.851 L88.622,59.091 Z M18.78,164.613 L15.982,164.613 L14.846,172.194 L13.698,172.194 L14.835,164.614 L12.073,164.614 L12.207,163.71 L18.913,163.71 L18.779,164.613 L18.78,164.613 Z M21.908,172.194 C21.9013348,172.018409 21.8976676,171.842716 21.897,171.667 C21.897,171.533 21.905,171.396 21.92,171.256 C21.66,171.555 21.342,171.806 20.967,172.011 C20.6156532,172.208345 20.219967,172.313288 19.817,172.316 C19.183,172.316 18.714,172.146 18.409,171.806 C18.104,171.466 17.997,171.006 18.086,170.423 C18.176,169.801 18.486,169.325 19.018,168.995 C19.551,168.665 20.24,168.5 21.087,168.5 L22.334,168.5 L22.427,167.876 C22.485,167.492 22.418,167.196 22.226,166.988 C22.034,166.78 21.73,166.676 21.314,166.676 C20.961,166.676 20.65,166.769 20.382,166.956 C20.114,167.142 19.962,167.366 19.927,167.626 L18.832,167.637 L18.826,167.602 C18.873,167.125 19.15,166.7 19.659,166.329 C20.169,165.959 20.786,165.773 21.512,165.773 C22.2,165.773 22.74,165.956 23.132,166.323 C23.524,166.691 23.672,167.212 23.575,167.888 L23.12,170.924 C23.0829954,171.142599 23.0606124,171.363422 23.053,171.585 C23.048,171.789 23.06,171.992 23.091,172.195 L21.908,172.195 L21.908,172.194 Z M20.131,171.355 C20.527,171.355 20.912,171.246 21.285,171.029 C21.658,170.811 21.916,170.566 22.06,170.294 L22.217,169.274 L20.93,169.274 C20.483,169.274 20.098,169.394 19.776,169.63 C19.453,169.867 19.271,170.14 19.228,170.446 C19.181,170.737 19.233,170.962 19.382,171.119 C19.532,171.276 19.782,171.355 20.132,171.355 L20.131,171.355 Z M28.371,166.903 L27.788,166.868 C27.488,166.868 27.225,166.943 26.995,167.093 C26.766,167.243 26.572,167.453 26.413,167.725 L25.743,172.195 L24.595,172.195 L25.539,165.889 L26.564,165.889 L26.541,166.781 C26.7441831,166.483652 27.0058425,166.23084 27.31,166.038 C27.6661472,165.818669 28.0882177,165.731918 28.502,165.793 C28.582,165.807 28.644,165.821 28.691,165.837 L28.371,166.903 Z M28.912,169.158 C29.068,168.105 29.406,167.278 29.926,166.676 C30.446,166.074 31.099,165.773 31.884,165.773 C32.276,165.773 32.613,165.856 32.892,166.023 C33.172,166.19 33.393,166.431 33.556,166.746 L33.825,165.889 L34.739,165.889 L33.789,172.229 C33.661,173.069 33.334,173.696 32.808,174.114 C32.281,174.532 31.569,174.74 30.672,174.74 C30.381,174.74 30.062,174.698 29.717,174.612 C29.4075353,174.540591 29.1093945,174.426853 28.831,174.274 L29.14,173.383 C29.346,173.499 29.599,173.593 29.9,173.665 C30.201,173.737 30.503,173.773 30.806,173.773 C31.342,173.773 31.763,173.644 32.068,173.386 C32.373,173.127 32.564,172.742 32.642,172.229 L32.747,171.512 C32.5147031,171.767134 32.2321075,171.97142 31.917,172.112 C31.5940489,172.25089 31.2455234,172.320391 30.894,172.316 C30.155,172.316 29.604,172.035 29.239,171.472 C28.874,170.908 28.759,170.178 28.895,169.281 L28.912,169.158 Z M30.042,169.281 C29.942,169.937 29.993,170.451 30.197,170.825 C30.401,171.198 30.777,171.385 31.325,171.385 C31.659,171.385 31.956,171.304 32.216,171.142 C32.476,170.982 32.706,170.755 32.904,170.463 L33.341,167.579 C33.2397673,167.325969 33.0713813,167.105373 32.854,166.941 C32.643,166.784 32.37,166.705 32.036,166.705 C31.511,166.705 31.077,166.936 30.733,167.399 C30.39,167.861 30.165,168.447 30.06,169.159 L30.043,169.281 L30.042,169.281 Z M38.037,172.316 C37.167,172.316 36.514,172.023 36.077,171.436 C35.64,170.85 35.491,170.092 35.631,169.164 L35.671,168.908 C35.808,167.968 36.178,167.21 36.781,166.635 C37.386,166.06 38.071,165.773 38.836,165.773 C39.648,165.773 40.232,166.039 40.59,166.571 C40.947,167.103 41.062,167.797 40.933,168.651 L40.846,169.257 L36.767,169.257 C36.677,169.925 36.744,170.453 36.965,170.839 C37.187,171.226 37.589,171.419 38.171,171.419 C38.544,171.419 38.891,171.363 39.211,171.25 C39.5119797,171.148123 39.792863,170.994483 40.041,170.796 L40.38,171.541 C40.123,171.759 39.799,171.943 39.407,172.092 C39.014,172.242 38.557,172.316 38.037,172.316 Z M38.702,166.676 C38.317,166.676 37.968,166.831 37.656,167.142 C37.343,167.452 37.119,167.845 36.983,168.319 L36.994,168.354 L39.832,168.354 L39.844,168.261 C39.914,167.791 39.859,167.409 39.681,167.116 C39.501,166.823 39.176,166.676 38.701,166.676 L38.702,166.676 Z M44.459,164.369 L44.231,165.889 L45.426,165.889 L45.298,166.74 L44.103,166.74 L43.533,170.568 C43.486,170.875 43.513,171.086 43.617,171.201 C43.72,171.315 43.874,171.372 44.08,171.372 C44.22883,171.365631 44.3759852,171.338018 44.517,171.29 L44.557,172.078 C44.461,172.148 44.326,172.205 44.153,172.249 C43.98,172.294 43.812,172.316 43.649,172.316 C43.199,172.316 42.851,172.175 42.609,171.891 C42.366,171.607 42.291,171.167 42.384,170.568 L42.955,166.74 L41.953,166.74 L42.081,165.89 L43.083,165.89 L43.311,164.369 L44.459,164.369 Z M50.53,168.517 L49.983,172.194 L48.835,172.194 L50.105,163.716 L53.007,163.716 C53.9,163.716 54.569,163.924 55.014,164.339 C55.459,164.755 55.623,165.351 55.506,166.129 C55.436,166.587 55.264,166.974 54.988,167.291 C54.712,167.607 54.339,167.857 53.869,168.039 C54.3,168.195 54.597,168.444 54.761,168.789 C54.924,169.132 54.971,169.547 54.901,170.032 L54.778,170.831 C54.735,171.106 54.728,171.346 54.758,171.551 C54.7799697,171.738652 54.8604374,171.914631 54.988,172.054 L54.965,172.194 L53.782,172.194 C53.65,172.062 53.582,171.87 53.578,171.617 C53.5749222,171.350062 53.5923064,171.083281 53.63,170.819 L53.747,170.044 C53.817,169.566 53.74,169.192 53.517,168.922 C53.293,168.652 52.954,168.517 52.5,168.517 L50.53,168.517 Z M50.664,167.614 L52.307,167.614 C52.929,167.614 53.407,167.489 53.741,167.238 C54.075,166.988 54.281,166.614 54.359,166.117 C54.432,165.623 54.352,165.249 54.117,164.995 C53.882,164.74 53.467,164.613 52.873,164.613 L51.119,164.613 L50.664,167.614 Z M58.863,172.316 C57.993,172.316 57.339,172.023 56.902,171.436 C56.465,170.85 56.316,170.092 56.456,169.164 L56.497,168.908 C56.633,167.968 57.003,167.21 57.607,166.635 C58.211,166.06 58.896,165.773 59.661,165.773 C60.473,165.773 61.058,166.039 61.415,166.571 C61.772,167.103 61.887,167.797 61.759,168.651 L61.671,169.257 L57.593,169.257 C57.503,169.925 57.569,170.453 57.791,170.839 C58.012,171.226 58.414,171.419 58.997,171.419 C59.37,171.419 59.717,171.363 60.037,171.25 C60.3379797,171.148123 60.618863,170.994483 60.867,170.796 L61.205,171.541 C60.949,171.759 60.625,171.943 60.232,172.092 C59.84,172.242 59.383,172.316 58.862,172.316 L58.863,172.316 Z M59.527,166.676 C59.142,166.676 58.794,166.831 58.481,167.142 C58.168,167.452 57.944,167.845 57.808,168.319 L57.82,168.354 L60.657,168.354 L60.669,168.261 C60.739,167.791 60.685,167.409 60.506,167.116 C60.327,166.823 60.001,166.676 59.527,166.676 Z M64.433,166.793 C64.69,166.466 64.99,166.215 65.333,166.038 C65.6801498,165.860458 66.0650998,165.769539 66.455,165.773 C67.112,165.773 67.602,165.973 67.927,166.376 C68.251,166.778 68.351,167.391 68.227,168.214 L67.632,172.194 L66.484,172.194 L67.079,168.238 C67.164,167.663 67.116,167.264 66.933,167.04 C66.75,166.817 66.43,166.705 65.972,166.705 C65.63,166.705 65.322,166.78 65.051,166.929 C64.779,167.079 64.55,167.286 64.363,167.55 L63.664,172.194 L62.516,172.194 L63.46,165.889 L64.486,165.889 L64.433,166.793 Z M69.491,169.158 C69.646,168.105 69.984,167.278 70.505,166.676 C71.025,166.074 71.68,165.773 72.469,165.773 C72.829,165.773 73.144,165.845 73.409,165.988 C73.676,166.132 73.892,166.34 74.059,166.612 L74.584,163.104 L75.732,163.104 L74.368,172.194 L73.488,172.194 L73.436,171.396 C73.200233,171.685564 72.9039744,171.920045 72.568,172.083 C72.241,172.239 71.878,172.316 71.478,172.316 C70.736,172.316 70.183,172.035 69.818,171.472 C69.452,170.908 69.338,170.178 69.474,169.281 L69.491,169.158 Z M70.621,169.281 C70.521,169.937 70.572,170.451 70.776,170.825 C70.98,171.198 71.358,171.385 71.909,171.385 C72.239,171.385 72.535,171.305 72.795,171.145 C73.055,170.985 73.282,170.765 73.477,170.481 L73.914,167.561 C73.8160121,167.31109 73.6492421,167.094047 73.433,166.935 C73.221,166.782 72.95,166.705 72.62,166.705 C72.092,166.705 71.656,166.935 71.312,167.395 C70.968,167.855 70.744,168.443 70.639,169.158 L70.621,169.281 Z M79.956,172.194 C79.9493348,172.018409 79.9456676,171.842716 79.945,171.667 C79.945,171.533 79.952,171.396 79.968,171.256 C79.708,171.555 79.39,171.806 79.015,172.011 C78.6636532,172.208345 78.267967,172.313288 77.865,172.316 C77.231,172.316 76.762,172.146 76.457,171.806 C76.152,171.466 76.044,171.006 76.134,170.423 C76.224,169.801 76.534,169.325 77.066,168.995 C77.598,168.665 78.288,168.5 79.135,168.5 L80.382,168.5 L80.475,167.876 C80.533,167.492 80.466,167.196 80.274,166.988 C80.081,166.78 79.778,166.676 79.362,166.676 C79.008,166.676 78.698,166.769 78.43,166.956 C78.162,167.142 78.01,167.366 77.975,167.626 L76.88,167.637 L76.874,167.602 C76.92,167.125 77.198,166.7 77.707,166.329 C78.216,165.959 78.834,165.773 79.56,165.773 C80.248,165.773 80.788,165.956 81.18,166.323 C81.572,166.691 81.72,167.212 81.623,167.888 L81.168,170.924 C81.1309954,171.142599 81.1086124,171.363422 81.101,171.585 C81.095,171.789 81.108,171.992 81.139,172.195 L79.956,172.195 L79.956,172.194 Z M78.179,171.355 C78.575,171.355 78.959,171.246 79.333,171.029 C79.706,170.811 79.964,170.566 80.108,170.294 L80.265,169.274 L78.977,169.274 C78.531,169.274 78.146,169.394 77.824,169.63 C77.501,169.867 77.319,170.14 77.276,170.446 C77.229,170.737 77.281,170.962 77.43,171.119 C77.58,171.276 77.83,171.355 78.179,171.355 Z M84.612,166.699 C84.876,166.404 85.177,166.176 85.515,166.015 C85.8554207,165.853126 86.2280616,165.770393 86.605,165.773 C87.253,165.773 87.74,165.977 88.065,166.385 C88.389,166.793 88.491,167.412 88.37,168.243 L87.776,172.194 L86.628,172.194 L87.222,168.232 C87.304,167.696 87.252,167.307 87.065,167.066 C86.879,166.826 86.562,166.706 86.115,166.706 C85.785,166.706 85.481,166.775 85.203,166.915 C84.9263761,167.053949 84.6844385,167.253172 84.495,167.498 L83.79,172.194 L82.642,172.194 L84.006,163.104 L85.154,163.104 L84.612,166.699 Z" id="Shape" fill="#6D6E71" fill-rule="nonzero"></path>
            <g id="Group" transform="translate(23.000000, 129.000000)" fill="#2A3052" fill-rule="nonzero">
                <path d="M25.8,9.453 C25.768,9.296 25.768,9.17 25.768,9.013 C25.548,9.327 25.264,9.579 24.918,9.8 C24.571,10.02 24.193,10.115 23.783,10.115 C23.122,10.115 22.618,9.957 22.271,9.579 C21.9061262,9.19987213 21.7127404,8.68767087 21.736,8.162 C21.736,7.532 21.988,7.06 22.492,6.713 C22.996,6.367 23.657,6.178 24.508,6.178 L25.768,6.178 L25.768,5.548 C25.768,5.17 25.642,4.855 25.421,4.634 C25.201,4.414 24.854,4.288 24.445,4.288 C24.067,4.288 23.752,4.382 23.531,4.571 C23.311,4.761 23.185,5.012 23.185,5.264 L22.082,5.264 L22.082,5.233 C22.051,4.76 22.272,4.319 22.744,3.941 C23.216,3.563 23.814,3.343 24.539,3.343 C25.264,3.343 25.862,3.532 26.303,3.91 C26.744,4.288 26.965,4.823 26.965,5.516 L26.965,8.635 C26.965,8.855 26.965,9.075 26.996,9.296 C27.028,9.516 27.059,9.737 27.122,9.926 L25.894,9.926 L25.894,9.989 C25.862,9.8 25.831,9.611 25.799,9.453 L25.8,9.453 Z M23.893,9.076 C24.302,9.076 24.711,8.981 25.026,8.761 C25.373,8.54 25.593,8.288 25.688,8.005 L25.688,6.965 L24.396,6.965 C23.924,6.965 23.546,7.091 23.263,7.312 C22.979,7.532 22.853,7.847 22.853,8.162 C22.853,8.446 22.948,8.666 23.105,8.855 C23.294,8.981 23.546,9.075 23.893,9.075 L23.893,9.076 Z M15.714,3.384 L16.877,3.384 L16.877,9.963 L15.714,9.963 L15.714,8.987 C15.346,9.463 14.737,10.23 13.517,10.101 C12.296,9.971 11.541,9.014 11.535,7.959 C11.53,6.903 11.541,3.026 11.535,3.384 L12.688,3.384 L12.688,5.876 C12.688,8.792 13.33,9.115 14.206,9.115 C15.083,9.115 15.513,8.375 15.714,8.127 C15.704,6.742 15.704,5.16 15.714,3.384 Z M8.415,10.039 L9.589,10.039 L9.589,1.164 L8.13,1.164 L5.255,8.434 L2.408,1.164 L0.831,1.164 L0.831,10.039 L2,10.039 L2.055,3.138 L4.809,10.039 L5.699,10.039 L8.414,3.335 L8.415,10.039 Z M18.733,0.546 L19.933,0.546 L19.933,10.031 L18.733,10.031 L18.733,0.546 Z M28.753,3.479 L29.934,3.479 L29.934,9.98 L28.753,9.98 L28.753,3.479 Z M28.769,0.526 L28.769,1.698 L29.972,1.698 L29.972,0.526 L28.769,0.526 Z" id="Shape"></path>
            </g>
            <g id="Group" transform="translate(122.000000, 156.000000)" fill="#FFFFFF" fill-rule="nonzero">
                <path d="M52.073,10.95 L49.581,10.95 L49.581,2.707 L52.073,2.707 L52.073,10.95 Z M52.073,15.287 L49.581,15.287 L49.581,13.073 L52.073,13.073 L52.073,15.287 Z" id="Shape"></path>
                <path d="M22.955,4.812 C25.842,4.812 27.407,6.572 27.803,9.208 C28.199,11.844 26.775,15.568 23.159,15.568 C19.542,15.568 18.372,12.818 18.372,9.971 C18.372,7.125 20.069,4.811 22.955,4.811 L22.955,4.812 Z M22.981,6.659 C22.123,6.74 20.603,7.341 20.691,10.187 C20.781,13.032 22.025,13.701 22.981,13.701 C23.938,13.701 25.551,13.436 25.551,10.199 C25.551,6.961 23.839,6.578 22.981,6.659 Z M17.762,4.88 C17.668,5.774 17.564,6.51 17.452,7.086 C16.327,7.013 15.159,6.906 14.648,8.221 L14.662,15.292 L12.347,15.292 L12.347,4.962 L14.407,4.962 C14.505,5.652 14.567,6.154 14.59,6.47 C15.302,5.141 16.36,4.611 17.762,4.88 Z M2.877,15.292 L0.52,15.292 L0.52,1.483 L6.592,1.483 C8.494,1.483 11.096,3.069 10.811,6.213 C10.621,8.309 9.215,9.581 6.591,10.028 L2.877,10.028 L2.877,15.292 Z M2.888,8.197 L6.004,8.197 C6.773,8.197 8.491,7.663 8.491,5.685 C8.491,3.706 6.789,3.252 6.004,3.279 C5.481,3.296 4.442,3.287 2.888,3.252 L2.888,8.197 Z M35.307,0.373 C35.2,0.923 35.143,1.471 35.059,2.17 C34.701,2.091 32.692,1.583 32.644,3.76 L32.644,4.962 L34.556,4.962 L34.556,6.628 L32.644,6.628 L32.692,15.292 L30.3,15.292 L30.3,6.628 L28.794,6.628 L28.794,4.962 L30.39,4.962 C30.225,2.835 30.655,1.438 31.68,0.772 C33.217,-0.228 34.732,0.185 35.307,0.372 L35.307,0.373 Z M37.04,4.986 L39.355,4.986 L39.355,15.238 L37.041,15.238 L37.04,4.986 Z M37.086,0.456 L37.086,2.417 L39.389,2.417 L39.389,0.457 L37.086,0.456 Z M45.687,2.487 L45.687,5.037 L47.471,5.037 L47.471,6.727 L45.687,6.727 L45.687,12.838 C45.687,14.073 47.25,13.664 47.351,13.613 L47.625,15.245 C47.472,15.347 43.749,16.671 43.353,12.838 L43.353,6.727 L41.817,6.727 L41.817,5.037 L43.353,5.037 L43.353,2.487 L45.687,2.487 Z" id="Shape"></path>
            </g>
            <g id="Group" transform="translate(263.000000, 121.000000)" fill="#2A3052" fill-rule="nonzero">
                <path d="M4.96,6.404 C4.96,6.088 4.838,5.846 4.62,5.627 C4.401,5.433 3.989,5.239 3.406,5.117 C2.703,4.947 2.145,4.705 1.756,4.365 C1.38524453,4.06164076 1.17135807,3.60704016 1.174,3.128 C1.174,2.594 1.392,2.158 1.804,1.818 C2.217,1.453 2.775,1.284 3.454,1.284 C4.183,1.284 4.765,1.478 5.202,1.89 C5.639,2.303 5.832,2.764 5.832,3.298 L5.832,3.322 L4.959,3.322 C4.959,2.934 4.838,2.618 4.571,2.376 C4.304,2.133 3.941,2.012 3.455,2.012 C3.018,2.012 2.655,2.109 2.435,2.327 C2.19325741,2.5204506 2.05838846,2.81768246 2.072,3.127 C2.072,3.419 2.193,3.662 2.46,3.856 C2.727,4.05 3.14,4.22 3.722,4.366 C4.426,4.536 4.959,4.802 5.323,5.142 C5.687,5.482 5.881,5.918 5.881,6.404 C5.881,6.937 5.663,7.374 5.226,7.714 C4.789,8.054 4.207,8.199 3.503,8.199 C2.86865472,8.20400843 2.24890145,8.00873891 1.732,7.641 C1.222,7.277 0.98,6.791 0.98,6.185 L0.98,6.161 L1.83,6.161 C1.83,6.598 1.975,6.913 2.29,7.156 C2.606,7.399 2.994,7.496 3.455,7.496 C3.915,7.496 4.255,7.399 4.523,7.204 C4.838,7.01 4.959,6.744 4.959,6.404 L4.96,6.404 Z M22.34,6.378 C22.168,6.225 21.842,6.072 21.383,5.976 C20.828,5.842 20.388,5.651 20.081,5.383 C19.7881555,5.14381815 19.6190892,4.78510341 19.621,4.407 C19.621,3.986 19.794,3.641 20.12,3.373 C20.445,3.086 20.885,2.952 21.421,2.952 C21.996,2.952 22.455,3.105 22.8,3.43 C23.144,3.756 23.297,4.12 23.297,4.54 L23.297,4.56 L22.608,4.56 C22.608,4.254 22.512,4.005 22.302,3.813 C22.092,3.622 21.804,3.526 21.422,3.526 C21.077,3.526 20.79,3.603 20.617,3.775 C20.4258978,3.92774778 20.3192528,4.1625896 20.33,4.407 C20.33,4.637 20.426,4.827 20.636,4.981 C20.847,5.134 21.172,5.268 21.632,5.383 C22.187,5.517 22.608,5.728 22.895,5.996 C23.182,6.264 23.335,6.608 23.335,6.991 C23.335,7.412 23.163,7.757 22.819,8.025 C22.474,8.293 22.015,8.408 21.459,8.408 C20.943,8.408 20.464,8.254 20.062,7.968 C19.6793643,7.71247041 19.4552823,7.2779101 19.469,6.818 L19.469,6.8 L20.139,6.8 C20.139,7.144 20.254,7.393 20.502,7.584 C20.752,7.776 21.058,7.852 21.422,7.852 C21.785,7.852 22.053,7.776 22.264,7.622 C22.512,7.47 22.608,7.259 22.608,6.991 C22.6091186,6.75801423 22.5117893,6.53539145 22.34,6.378 Z" id="Shape"></path>
                <path d="M27.486,7.616 C27.462,7.498 27.462,7.404 27.462,7.286 C27.2915652,7.52319869 27.0753034,7.72381891 26.826,7.876 C26.5716333,8.03551903 26.2761837,8.11720215 25.976,8.111 C25.481,8.111 25.104,7.993 24.844,7.711 C24.5708159,7.42674159 24.4262233,7.04284816 24.444,6.649 C24.444,6.177 24.632,5.823 25.009,5.564 C25.387,5.304 25.882,5.163 26.519,5.163 L27.462,5.163 L27.462,4.691 C27.462,4.408 27.368,4.172 27.202,4.007 C27.038,3.842 26.778,3.747 26.472,3.747 C26.189,3.747 25.952,3.818 25.788,3.96 C25.6297764,4.08679166 25.5348114,4.27635642 25.528,4.479 L24.703,4.479 L24.703,4.455 C24.679,4.101 24.844,3.771 25.198,3.488 C25.552,3.205 26,3.04 26.542,3.04 C27.085,3.04 27.533,3.182 27.863,3.465 C28.193,3.748 28.359,4.149 28.359,4.667 L28.359,7.003 C28.359,7.168 28.359,7.333 28.382,7.498 C28.406,7.663 28.429,7.828 28.477,7.97 L27.557,7.97 L27.557,8.017 C27.533,7.875 27.51,7.734 27.486,7.616 Z M26.058,7.333 C26.365,7.333 26.672,7.262 26.908,7.097 C27.167,6.932 27.332,6.743 27.403,6.531 L27.403,5.752 L26.436,5.752 C26.082,5.752 25.799,5.847 25.586,6.012 C25.3895473,6.16443398 25.2762077,6.40037294 25.28,6.649 C25.28,6.861 25.35,7.026 25.469,7.168 C25.61,7.262 25.799,7.333 26.059,7.333 L26.058,7.333 Z M10.893,5.759 L7.673,5.759 C7.673,6.356 7.795,6.789 8.039,7.055 C8.359,7.405 8.697,7.532 9.16,7.485 C9.969,7.405 10.125,7.189 10.46,6.998 L10.8,7.582 C10.402,7.994 9.764,8.199 8.889,8.199 C7.575,8.199 6.774,7.111 6.722,5.815 C6.67,4.519 7.187,3.015 8.889,2.952 C10.331,2.99 10.999,3.926 10.893,5.759 Z M9.989,5.046 C9.979,4.135 9.613,3.679 8.889,3.679 C8.166,3.679 7.771,4.135 7.703,5.046 L9.989,5.046 Z M18.48,5.759 L15.26,5.759 C15.26,6.356 15.382,6.789 15.626,7.055 C15.946,7.405 16.284,7.532 16.746,7.485 C17.556,7.405 17.711,7.189 18.046,6.998 L18.386,7.582 C17.988,7.994 17.351,8.199 16.476,8.199 C15.161,8.199 14.361,7.111 14.308,5.815 C14.256,4.519 14.773,3.015 16.475,2.952 C17.918,2.99 18.585,3.926 18.479,5.759 L18.48,5.759 Z M17.575,5.046 C17.565,4.135 17.2,3.679 16.476,3.679 C15.753,3.679 15.357,4.135 15.29,5.046 L17.575,5.046 Z M12.243,0.94 L13.09,0.94 L13.09,8.2 L12.243,8.2 L12.243,0.94 Z M29.753,3.055 L30.673,3.055 L30.673,8.123 L29.753,8.123 L29.753,3.055 Z M29.765,0.754 L29.765,1.667 L30.703,1.667 L30.703,0.754 L29.765,0.754 Z" id="Shape"></path>
            </g>
        </g>
    </g>
</svg>