<svg width="300" height="199" viewBox="0 0 300 199" xmlns="http://www.w3.org/2000/svg"><title>Group 2</title><g fill="none" fill-rule="evenodd"><path fill="#F1F2F2" fill-rule="nonzero" d="M0 0h300v199H0z"/><path d="M39.125 55.375V74.75H75.25V55.375H39.125zm0-1H75.25V34h1v20.375h36.125V34h1v20.375H149.5V34h1v20.375h36.125V34h1v20.375h36.125V34h1v20.375h36.125V34h1v20.375H299.5v1h-37.625V74.75H299.5v1h-37.625v19.375H299.5v1h-37.625V115.5H299.5v1h-37.625v19.375H299.5v1h-37.625v19.375H299.5v1h-37.625v19.375H299.5v1h-37.625V199h-1v-21.375H224.75V199h-1v-21.375h-36.125V199h-1v-21.375H150.5V199h-1v-21.375h-36.125V199h-1v-21.375H76.25V199h-1v-21.375H39.125V199h-1v-21.375H1.5v-1h36.625V157.25H1.5v-1h36.625v-19.375H1.5v-1h36.625V116.5H1.5v-1h36.625V96.125H1.5v-1h36.625V75.75H1.5v-1h36.625V55.375H1.5v-1h36.625V34h1v20.375zm221.75 1H224.75V74.75h36.125V55.375zm-37.125 0h-36.125V74.75h36.125V55.375zm-37.125 0H150.5V74.75h36.125V55.375zm-37.125 0h-36.125V74.75H149.5V55.375zm-37.125 0H76.25V74.75h36.125V55.375zM39.125 75.75v19.375H75.25V75.75H39.125zm221.75 0H224.75v19.375h36.125V75.75zm-37.125 0h-36.125v19.375h36.125V75.75zm-37.125 0H150.5v19.375h36.125V75.75zm-37.125 0h-36.125v19.375H149.5V75.75zm-37.125 0H76.25v19.375h36.125V75.75zm-73.25 20.375V115.5H75.25V96.125H39.125zm221.75 0H224.75V115.5h36.125V96.125zm-37.125 0h-36.125V115.5h36.125V96.125zm-37.125 0H150.5V115.5h36.125V96.125zm-37.125 0h-36.125V115.5H149.5V96.125zm-37.125 0H76.25V115.5h36.125V96.125zM39.125 116.5v19.375H75.25V116.5H39.125zm221.75 0H224.75v19.375h36.125V116.5zm-37.125 0h-36.125v19.375h36.125V116.5zm-37.125 0H150.5v19.375h36.125V116.5zm-37.125 0h-36.125v19.375H149.5V116.5zm-37.125 0H76.25v19.375h36.125V116.5zm-73.25 20.375v19.375H75.25v-19.375H39.125zm221.75 0H224.75v19.375h36.125v-19.375zm-37.125 0h-36.125v19.375h36.125v-19.375zm-37.125 0H150.5v19.375h36.125v-19.375zm-37.125 0h-36.125v19.375H149.5v-19.375zm-37.125 0H76.25v19.375h36.125v-19.375zm-73.25 20.375v19.375H75.25V157.25H39.125zm221.75 0H224.75v19.375h36.125V157.25zm-37.125 0h-36.125v19.375h36.125V157.25zm-37.125 0H150.5v19.375h36.125V157.25zm-37.125 0h-36.125v19.375H149.5V157.25zm-37.125 0H76.25v19.375h36.125V157.25z" fill="#DFDEDE" fill-rule="nonzero"/><path stroke="#C2C2C2" stroke-width="2" d="M1 1h298v197H1z"/><path fill="#C2C2C2" fill-rule="nonzero" d="M0 33h300v2H0z"/><path d="M260.94 34v161.058M3.977 74.886h292.046M3.977 156.621h292.046" stroke="#2A3052" stroke-width="1.23" stroke-linejoin="round"/><path stroke="#2A3052" stroke-width="3.689" stroke-linecap="round" stroke-linejoin="round" d="M38.58 115.552l37.358-21.668 34.12 28.484 40.556-27.456 37.32 32.445 37.318-53.085"/><path d="M189.495 146.968h-35.606l-5.483-8.34-5.484 8.34h-35.606a4.821 4.821 0 0 0-4.798 4.875v25.171a4.844 4.844 0 0 0 4.798 4.874h82.217a4.821 4.821 0 0 0 4.798-4.874v-25.171a4.851 4.851 0 0 0-4.836-4.875z" fill="#E88024" fill-rule="nonzero"/><ellipse cx="9.216" cy="8.843" rx="8.264" ry="8.606" opacity=".6" transform="translate(216.037 65.43)" fill="#FFF" fill-rule="nonzero"/><ellipse stroke="#E88024" stroke-width="2.46" cx="225.252" cy="74.272" rx="8.264" ry="8.606"/><ellipse cx="9.139" cy="9.234" rx="8.264" ry="8.606" opacity=".6" transform="translate(29.441 106.318)" fill="#FFF" fill-rule="nonzero"/><ellipse stroke="#E88024" stroke-width="2.46" cx="38.581" cy="115.552" rx="8.264" ry="8.606"/><g fill="#FFF" fill-rule="nonzero"><path d="M174.993 167.207h-2.53v-8.371h2.53zM174.993 171.611h-2.53v-2.249h2.53z"/><g><path d="M145.425 160.974c2.931 0 4.52 1.786 4.923 4.463.402 2.678-1.044 6.459-4.717 6.459-3.673 0-4.86-2.793-4.86-5.683 0-2.89 1.723-5.24 4.654-5.24zm.026 1.875c-.87.083-2.415.692-2.325 3.582.09 2.89 1.354 3.57 2.325 3.57.972 0 2.61-.27 2.61-3.557 0-3.288-1.738-3.677-2.61-3.595zM140.152 161.042a26.744 26.744 0 0 1-.316 2.24c-1.142-.073-2.328-.182-2.847 1.153l.014 7.181h-2.351v-10.49h2.092c.1.7.162 1.21.186 1.531.723-1.35 1.797-1.887 3.222-1.615zM125.036 171.616h-2.394v-14.023h6.166c1.932 0 4.574 1.61 4.285 4.804-.193 2.128-1.621 3.42-4.285 3.874h-3.772v5.345zm.011-7.205h3.164c.781 0 2.526-.542 2.526-2.551 0-2.01-1.729-2.47-2.526-2.444-.53.019-1.586.01-3.164-.027v5.022zM157.968 156.465c-.109.56-.166 1.116-.252 1.826-.364-.08-2.403-.596-2.452 1.615v1.22h1.94v1.692h-1.94l.049 8.798h-2.43v-8.798h-1.529v-1.692h1.621c-.167-2.16.27-3.578 1.31-4.255 1.56-1.016 3.099-.596 3.683-.406zM159.728 161.15h2.35v10.411h-2.35zM159.775 156.55v1.992h2.338v-1.991zM168.508 158.613v2.589h1.813v1.716h-1.813v6.206c0 1.254 1.587.838 1.691.787l.278 1.657c-.156.104-3.936 1.448-4.338-2.444v-6.206h-1.56v-1.716h1.56v-2.59h2.37z"/></g></g><path d="M27.97 61.16h-2.772l-1.126 7.511h-1.137l1.126-7.512h-2.737l.133-.895h6.645l-.133.895zm3.1 7.511c-.008-.215-.012-.39-.012-.522 0-.133.008-.269.024-.407a3.373 3.373 0 0 1-.944.747 2.36 2.36 0 0 1-1.14.303c-.628 0-1.093-.168-1.395-.505-.302-.337-.41-.794-.32-1.371a1.91 1.91 0 0 1 .923-1.415c.527-.327 1.21-.49 2.05-.49h1.235l.093-.618c.058-.381-.009-.675-.2-.88-.19-.207-.491-.31-.903-.31-.35 0-.658.093-.924.277-.265.185-.415.407-.45.664l-1.086.012-.005-.035c.046-.473.321-.894.825-1.261.505-.368 1.117-.552 1.836-.552.682 0 1.217.182 1.605.546.39.364.536.88.44 1.55l-.451 3.008c-.039.235-.06.454-.066.656-.006.202.006.403.037.603H31.07zm-1.761-.831a2.24 2.24 0 0 0 1.143-.324c.37-.215.626-.458.768-.727l.156-1.01H30.1c-.443 0-.824.117-1.143.352-.32.234-.5.504-.543.808-.046.289.005.511.153.667.148.156.396.234.742.234zm8.164-4.411l-.577-.035c-.297 0-.558.074-.785.222a1.84 1.84 0 0 0-.578.627l-.664 4.428h-1.137l.935-6.247h1.016l-.023.883c.223-.315.477-.56.762-.736a1.762 1.762 0 0 1 1.181-.242c.079.013.142.028.188.043l-.318 1.057zm.537 2.234c.154-1.043.489-1.863 1.005-2.46.516-.596 1.162-.895 1.94-.895.389 0 .722.083.999.249.277.165.496.404.658.716l.266-.85h.906l-.941 6.283c-.127.831-.451 1.454-.973 1.868-.522.413-1.227.62-2.116.62-.289 0-.604-.042-.947-.127a3.423 3.423 0 0 1-.878-.335l.306-.883c.204.116.456.209.754.28.298.071.597.107.898.107.53 0 .948-.128 1.25-.384.302-.256.491-.638.568-1.146l.104-.71c-.242.261-.516.46-.822.594a2.488 2.488 0 0 1-1.014.202c-.731 0-1.278-.279-1.64-.837-.361-.558-.475-1.282-.34-2.17l.017-.122zm1.12.121c-.1.65-.049 1.16.153 1.53.202.37.575.555 1.118.555.33 0 .625-.08.883-.24.258-.16.485-.384.681-.673l.433-2.858a1.484 1.484 0 0 0-.482-.632c-.21-.156-.48-.234-.811-.234-.52 0-.95.23-1.29.687-.341.458-.563 1.04-.667 1.744l-.018.121zm7.922 3.008c-.862 0-1.51-.29-1.943-.871-.433-.582-.58-1.332-.442-2.252l.04-.254c.136-.932.502-1.682 1.1-2.252.6-.57 1.278-.855 2.036-.855.805 0 1.384.264 1.738.791.354.528.468 1.215.34 2.062l-.086.6h-4.042c-.088.662-.023 1.185.197 1.568.219.383.617.574 1.195.574.37 0 .713-.056 1.03-.167.318-.112.592-.262.823-.45l.335.739a3.287 3.287 0 0 1-.964.545c-.389.148-.841.222-1.357.222zm.658-5.589c-.38 0-.726.154-1.036.462-.31.308-.532.697-.667 1.167l.011.034h2.812l.012-.092c.07-.466.015-.844-.162-1.135-.177-.29-.5-.436-.97-.436zm5.705-2.286l-.225 1.507h1.183l-.127.843h-1.183l-.566 3.793c-.046.304-.019.513.083.627.102.113.255.17.46.17a1.548 1.548 0 0 0 .433-.08l.04.779c-.096.069-.23.126-.401.17a1.993 1.993 0 0 1-.5.066c-.446 0-.79-.14-1.03-.421-.241-.281-.315-.718-.223-1.31l.566-3.794h-.993l.127-.843h.993l.225-1.507h1.138zm11.34.242h-2.772l-1.126 7.512H59.72l1.126-7.512h-2.737l.133-.895h6.645l-.132.895zm1.143 7.512H64.76l.936-6.247h1.137l-.935 6.247zm1.178-7.846h-1.138l.174-1.161h1.137l-.173 1.16zm2.471 2.494a2.7 2.7 0 0 1 .892-.748c.34-.175.711-.263 1.111-.263.651 0 1.137.2 1.458.598.322.398.42 1.006.298 1.822l-.59 3.943H71.58l.59-3.92c.084-.57.036-.965-.145-1.187-.181-.221-.499-.332-.953-.332-.338 0-.643.074-.912.223-.27.148-.497.353-.681.614l-.693 4.602h-1.138l.936-6.247h1.016l-.052.895zm5.07 2.344c.153-1.043.488-1.863 1.004-2.46.516-.596 1.163-.895 1.94-.895.389 0 .722.083.999.249.277.165.496.404.658.716l.266-.85h.906l-.94 6.283c-.128.831-.452 1.454-.974 1.868-.521.413-1.227.62-2.116.62-.289 0-.604-.042-.947-.127a3.423 3.423 0 0 1-.877-.335l.306-.883c.204.116.455.209.753.28.298.071.598.107.898.107.531 0 .948-.128 1.25-.384.302-.256.492-.638.569-1.146l.104-.71c-.243.261-.517.46-.823.594a2.488 2.488 0 0 1-1.013.202c-.732 0-1.278-.279-1.64-.837-.362-.558-.476-1.282-.34-2.17l.016-.122zm1.12.121c-.1.65-.05 1.16.153 1.53.202.37.574.555 1.117.555.33 0 .625-.08.883-.24.258-.16.485-.384.681-.673l.434-2.858a1.484 1.484 0 0 0-.483-.632c-.21-.156-.48-.234-.81-.234-.52 0-.95.23-1.291.687-.34.458-.563 1.04-.667 1.744l-.017.121zm5.6-.121c.154-1.043.489-1.863 1.005-2.46.516-.596 1.162-.895 1.94-.895.389 0 .722.083.999.249.277.165.496.404.658.716l.266-.85h.906l-.941 6.283c-.127.831-.451 1.454-.973 1.868-.522.413-1.227.62-2.116.62-.289 0-.604-.042-.947-.127a3.423 3.423 0 0 1-.878-.335l.306-.883c.204.116.456.209.754.28.298.071.597.107.898.107.53 0 .948-.128 1.25-.384.302-.256.491-.638.568-1.146l.104-.71c-.242.261-.516.46-.822.594a2.488 2.488 0 0 1-1.014.202c-.731 0-1.278-.279-1.64-.837-.361-.558-.475-1.282-.34-2.17l.017-.122zm1.12.121c-.1.65-.049 1.16.153 1.53.202.37.575.555 1.118.555.33 0 .625-.08.883-.24.258-.16.485-.384.681-.673l.433-2.858a1.484 1.484 0 0 0-.482-.632c-.21-.156-.48-.234-.811-.234-.52 0-.95.23-1.29.687-.341.458-.563 1.04-.667 1.744l-.018.121zm6.582 2.887h-1.137l.935-6.247h1.138l-.936 6.247zm1.178-7.846H89.08l.173-1.161h1.138l-.174 1.16zM27.75 163.42h-2.68l-1.089 7.264h-1.1l1.09-7.264h-2.647l.128-.865h6.427l-.129.865zm2.998 7.264a14.794 14.794 0 0 1-.01-.505c0-.128.007-.26.022-.394-.25.287-.554.528-.913.723-.36.196-.727.294-1.103.294-.607 0-1.056-.163-1.348-.489-.293-.326-.396-.768-.31-1.326a1.847 1.847 0 0 1 .893-1.368c.51-.316 1.17-.475 1.982-.475h1.195l.09-.597c.055-.368-.01-.652-.193-.851-.185-.2-.476-.3-.874-.3-.339 0-.637.09-.893.269-.257.179-.402.393-.436.642l-1.05.011-.005-.033c.044-.458.31-.865.798-1.22.488-.356 1.08-.534 1.776-.534.659 0 1.176.176 1.552.528.376.352.517.852.424 1.5l-.435 2.908a4.778 4.778 0 0 0-.064.634c-.006.195.006.39.036.583h-1.134zm-1.703-.804c.38 0 .749-.104 1.106-.312.357-.209.605-.443.743-.704l.15-.977H29.81c-.428 0-.796.114-1.105.34-.309.228-.484.488-.525.782-.045.28.005.494.148.645.143.15.382.226.717.226zm7.895-4.265l-.558-.034c-.287 0-.54.072-.76.215a1.78 1.78 0 0 0-.558.606l-.642 4.282h-1.1l.905-6.04h.982l-.022.853c.216-.305.462-.542.737-.711a1.704 1.704 0 0 1 1.142-.235c.076.013.137.027.181.042l-.307 1.022zm.52 2.16c.148-1.008.472-1.801.971-2.378.499-.577 1.124-.866 1.876-.866.376 0 .698.08.966.24.268.16.48.391.637.693l.256-.82h.877l-.91 6.074c-.123.804-.437 1.406-.94 1.806-.505.4-1.187.6-2.047.6-.28 0-.585-.04-.916-.123a3.31 3.31 0 0 1-.849-.323l.296-.855c.198.112.44.202.729.271.288.069.578.103.868.103.514 0 .917-.123 1.209-.37.292-.248.475-.618.55-1.11l.1-.686c-.234.253-.5.445-.795.575-.296.13-.623.196-.98.196-.707 0-1.236-.27-1.586-.81-.35-.54-.46-1.24-.33-2.1l.018-.117zm1.083.118c-.097.629-.048 1.122.148 1.48.195.357.555.535 1.08.535.32 0 .605-.077.854-.231a2.21 2.21 0 0 0 .66-.65l.418-2.765a1.435 1.435 0 0 0-.466-.611c-.203-.15-.465-.226-.785-.226-.502 0-.918.221-1.248.664-.329.443-.544 1.005-.644 1.686l-.017.118zm7.66 2.909c-.834 0-1.46-.281-1.879-.844-.418-.562-.56-1.287-.427-2.177l.04-.246c.13-.9.484-1.626 1.063-2.177.579-.551 1.235-.827 1.968-.827.778 0 1.338.255 1.68.765.343.51.453 1.175.33 1.994l-.084.58h-3.908c-.086.64-.022 1.146.19 1.516.212.37.597.556 1.156.556.357 0 .69-.054.996-.162.307-.108.572-.253.796-.436l.324.715a3.178 3.178 0 0 1-.933.528c-.376.143-.813.215-1.312.215zm.637-5.405c-.369 0-.703.149-1.003.447-.3.297-.514.673-.644 1.127l.01.034h2.72l.011-.09c.067-.45.015-.816-.156-1.097-.172-.28-.484-.421-.938-.421zm5.516-2.211l-.218 1.457h1.145l-.123.815h-1.145l-.547 3.669c-.044.294-.017.496.081.605.099.11.247.165.444.165a1.497 1.497 0 0 0 .419-.078l.039.754a1.167 1.167 0 0 1-.388.164 1.927 1.927 0 0 1-.483.065c-.432 0-.764-.136-.997-.408-.232-.272-.304-.694-.215-1.267l.547-3.669h-.96l.123-.815h.96l.218-1.457h1.1zm5.818 3.975l-.525 3.523h-1.1l1.217-8.123h2.78c.857 0 1.498.199 1.924.597.426.398.584.97.472 1.714-.067.44-.233.81-.497 1.114-.264.303-.622.542-1.072.717.413.15.698.388.854.718.157.33.201.727.134 1.192l-.117.765a2.37 2.37 0 0 0-.02.69.862.862 0 0 0 .221.482l-.022.134h-1.134c-.126-.126-.191-.31-.195-.552a5.007 5.007 0 0 1 .05-.765l.112-.743c.067-.458-.007-.816-.22-1.075-.215-.258-.54-.388-.975-.388h-1.887zm.128-.865h1.575c.595 0 1.053-.12 1.373-.36.32-.24.518-.599.592-1.075.07-.473-.006-.831-.232-1.075-.225-.244-.622-.366-1.192-.366h-1.68l-.436 2.876zm7.856 4.506c-.834 0-1.46-.281-1.879-.844-.419-.562-.56-1.287-.427-2.177l.04-.246c.13-.9.484-1.626 1.063-2.177.579-.551 1.235-.827 1.968-.827.778 0 1.338.255 1.68.765.343.51.453 1.175.33 1.994l-.084.58h-3.908c-.086.64-.023 1.146.19 1.516.212.37.597.556 1.155.556.358 0 .69-.054.997-.162.307-.108.572-.253.796-.436l.324.715a3.178 3.178 0 0 1-.933.528c-.376.143-.813.215-1.312.215zm.637-5.405c-.369 0-.703.149-1.003.447-.3.297-.514.673-.645 1.127l.012.034h2.719l.01-.09c.068-.45.016-.816-.155-1.097-.172-.28-.484-.421-.938-.421zm4.7.112a2.61 2.61 0 0 1 .863-.723c.33-.17.688-.255 1.075-.255.63 0 1.1.193 1.41.578.31.386.407.973.287 1.762l-.57 3.813h-1.099l.57-3.79c.081-.552.035-.934-.14-1.148-.175-.214-.482-.321-.921-.321a1.8 1.8 0 0 0-.882.215 1.95 1.95 0 0 0-.66.594l-.67 4.45h-1.1l.905-6.04h.983l-.05.865zm4.847 2.266c.149-1.008.473-1.801.972-2.378.498-.577 1.126-.866 1.881-.866.346 0 .647.07.902.207.255.138.462.337.622.597l.503-3.36h1.1l-1.307 8.71h-.843l-.05-.766c-.242.29-.52.51-.832.66-.313.148-.66.223-1.044.223-.711 0-1.241-.27-1.591-.81-.35-.54-.46-1.24-.33-2.1l.017-.117zm1.083.118c-.097.629-.047 1.122.148 1.48.196.357.558.535 1.086.535.317 0 .6-.076.849-.229.25-.152.467-.364.653-.636l.419-2.797a1.362 1.362 0 0 0-.46-.6c-.204-.148-.463-.221-.78-.221-.506 0-.924.22-1.253.661-.33.442-.545 1.004-.645 1.69l-.017.117zm8.945 2.791a14.794 14.794 0 0 1-.011-.505c0-.128.007-.26.022-.394-.25.287-.554.528-.913.723-.36.196-.727.294-1.103.294-.606 0-1.056-.163-1.348-.489-.292-.326-.396-.768-.31-1.326a1.847 1.847 0 0 1 .893-1.368c.51-.316 1.171-.475 1.982-.475h1.195l.09-.597c.055-.368-.009-.652-.193-.851-.184-.2-.475-.3-.874-.3-.339 0-.636.09-.893.269-.257.179-.402.393-.436.642l-1.05.011-.005-.033c.045-.458.31-.865.799-1.22.487-.356 1.079-.534 1.775-.534.659 0 1.176.176 1.552.528.376.352.518.852.425 1.5l-.436 2.908a4.778 4.778 0 0 0-.064.634c-.006.195.006.39.036.583H86.37zm-1.703-.804c.38 0 .748-.104 1.105-.312.358-.209.605-.443.743-.704l.15-.977h-1.233c-.428 0-.797.114-1.106.34-.309.228-.484.488-.525.782-.044.28.005.494.148.645.144.15.383.226.718.226zm6.164-4.46c.253-.284.541-.502.865-.657a2.394 2.394 0 0 1 1.044-.232c.622 0 1.088.196 1.399.587.31.39.408.984.293 1.78l-.57 3.786h-1.1l.57-3.796c.078-.514.028-.886-.15-1.117-.18-.23-.483-.346-.91-.346-.317 0-.608.067-.874.2-.267.135-.493.32-.679.56l-.675 4.5h-1.1l1.306-8.71h1.1l-.52 3.444z" fill="#6D6E71" fill-rule="nonzero"/><g fill="#2A3052" fill-rule="nonzero"><path d="M47.962 138.844c-.03-.147-.03-.266-.03-.413a2.737 2.737 0 0 1-.798.738c-.325.207-.68.296-1.063.296-.62 0-1.093-.148-1.418-.503a1.802 1.802 0 0 1-.503-1.329c0-.59.237-1.034.71-1.359.472-.325 1.093-.502 1.89-.502h1.182v-.591c0-.355-.118-.65-.325-.857-.207-.207-.532-.325-.916-.325-.354 0-.65.089-.857.266a.871.871 0 0 0-.325.65h-1.034v-.03c-.03-.443.178-.856.62-1.21.444-.355 1.005-.562 1.685-.562.68 0 1.24.177 1.654.532.414.354.62.856.62 1.506v2.925c0 .207 0 .414.03.62.03.207.06.414.118.591H48.05v.06c-.03-.178-.059-.355-.088-.503zm-1.789-.354c.384 0 .768-.089 1.064-.296.325-.206.532-.443.62-.709v-.975h-1.211c-.443 0-.798.119-1.064.325a.991.991 0 0 0-.384.798c0 .266.089.473.237.65.177.118.413.207.738.207zM38.503 133.151h1.09v6.171h-1.09v-.915c-.346.447-.916 1.165-2.061 1.044-1.145-.12-1.853-1.019-1.859-2.009-.005-.99.006-4.626 0-4.29h1.082v2.337c0 2.735.601 3.038 1.423 3.038.823 0 1.226-.695 1.415-.927-.01-1.3-.01-2.782 0-4.449zM31.657 139.394h1.1v-8.325h-1.366l-2.697 6.82-2.67-6.82h-1.48v8.325h1.097l.052-6.473 2.583 6.473h.833l2.548-6.288zM41.334 130.49h1.126v8.896h-1.126zM50.732 133.24h1.108v6.099h-1.108zM50.747 130.471v1.1h1.128v-1.1z"/></g><path d="M23.355 20.99c-.3.394-.749.736-1.346 1.025-.596.29-1.365.434-2.306.434-1.167 0-2.122-.367-2.864-1.1-.743-.734-1.114-1.686-1.114-2.857v-2.016c0-1.166.36-2.117 1.08-2.853.721-.736 1.647-1.104 2.778-1.104 1.18 0 2.084.28 2.711.839.628.559.93 1.304.909 2.237l-.014.04h-1.823c0-.513-.148-.912-.444-1.197-.296-.285-.727-.428-1.292-.428-.593 0-1.07.23-1.432.687-.363.457-.544 1.046-.544 1.766v2.029c0 .729.186 1.323.557 1.783.371.46.868.69 1.492.69.46 0 .823-.047 1.09-.14.267-.093.474-.21.62-.351v-1.87h-1.856v-1.339h3.798v3.726zm1.2-2.333c0-1.07.298-1.945.895-2.628.596-.683 1.423-1.024 2.48-1.024 1.06 0 1.89.34 2.492 1.02.6.681.901 1.559.901 2.632v.14c0 1.078-.3 1.956-.898 2.635-.599.678-1.426 1.017-2.483 1.017-1.06 0-1.89-.339-2.489-1.017-.599-.679-.898-1.557-.898-2.635v-.14zm1.929.14c0 .654.115 1.178.345 1.574.23.396.6.593 1.113.593.5 0 .865-.199 1.097-.596.232-.398.348-.922.348-1.571v-.14c0-.636-.117-1.155-.35-1.557-.235-.403-.604-.604-1.108-.604-.5 0-.865.203-1.097.607-.232.404-.348.922-.348 1.554v.14zm9.141 3.652c-1.07 0-1.904-.328-2.505-.984-.601-.656-.902-1.502-.902-2.536v-.265c0-1.074.292-1.953.875-2.638.583-.685 1.386-1.026 2.406-1.021.964 0 1.703.295 2.218.885.515.59.772 1.384.772 2.383v1h-4.276l-.02.04c.031.491.18.889.448 1.194.267.305.664.457 1.19.457.433 0 .8-.044 1.104-.132.302-.089.615-.223.938-.405l.523 1.194c-.287.234-.676.43-1.166.59-.49.159-1.026.238-1.605.238zm-.126-5.953c-.388 0-.688.134-.898.401-.21.268-.337.622-.381 1.064l.013.034h2.36v-.146c0-.42-.086-.75-.258-.991-.173-.241-.451-.362-.836-.362zm7.995 3.825c0-.212-.103-.394-.308-.547-.206-.152-.587-.286-1.144-.4-.84-.169-1.477-.423-1.912-.763-.436-.34-.653-.802-.653-1.385 0-.615.26-1.138.782-1.572.522-.433 1.215-.65 2.082-.65.906 0 1.631.217 2.177.65.546.434.808.973.786 1.618l-.014.04h-1.869a.939.939 0 0 0-.278-.703c-.186-.181-.453-.272-.802-.272-.31 0-.555.078-.736.232a.722.722 0 0 0-.272.57c0 .221.094.401.282.54.188.14.569.265 1.143.375.88.177 1.535.437 1.966.78.43.342.646.813.646 1.414 0 .646-.276 1.174-.829 1.585-.552.41-1.281.616-2.187.616-.955 0-1.71-.242-2.264-.726-.555-.484-.819-1.035-.792-1.654l.013-.04h1.77c.013.385.14.664.378.836.239.172.55.258.935.258.358 0 .63-.071.818-.215a.699.699 0 0 0 .282-.587zm14.458-1.969c0 1.19-.374 2.17-1.12 2.94-.747.772-1.72 1.157-2.917 1.157-1.193 0-2.161-.386-2.904-1.16-.742-.773-1.113-1.752-1.113-2.937v-1.736c0-1.18.37-2.158 1.11-2.934.74-.775 1.705-1.163 2.894-1.163 1.197 0 2.172.388 2.923 1.163.751.776 1.127 1.754 1.127 2.934v1.736zm-1.93-1.75c0-.75-.187-1.367-.563-1.85-.375-.48-.895-.722-1.557-.722-.654 0-1.164.241-1.528.723-.365.482-.547 1.098-.547 1.85v1.75c0 .764.183 1.387.55 1.869.367.482.88.722 1.538.722.663 0 1.18-.24 1.551-.722s.557-1.105.557-1.87v-1.75zm7.71 4.647c-.22.385-.501.68-.841.889-.34.207-.736.311-1.187.311-.756 0-1.347-.256-1.773-.769-.427-.512-.64-1.308-.64-2.386v-4.157h1.929v4.17c0 .628.085 1.057.255 1.29.17.231.434.347.792.347.31 0 .575-.05.796-.149.22-.1.402-.246.543-.44v-5.218h1.936v7.173h-1.604l-.206-1.06zm5.589-7.868v1.756h1.213v1.36H69.32v3.652c0 .278.058.477.175.597.117.119.271.179.461.179.102 0 .19-.006.265-.017.075-.011.162-.03.259-.056l.159 1.398a3.379 3.379 0 0 1-1.167.199c-.667 0-1.18-.183-1.541-.55-.36-.367-.54-.948-.54-1.743v-3.66h-1.048v-1.359h1.048v-1.756h1.929zm6.284 6.94c0-.212-.103-.394-.308-.547-.206-.152-.587-.286-1.144-.4-.84-.169-1.477-.423-1.912-.763-.436-.34-.653-.802-.653-1.385 0-.615.26-1.138.782-1.572.521-.433 1.215-.65 2.082-.65.905 0 1.631.217 2.177.65.546.434.808.973.786 1.618l-.014.04h-1.869a.939.939 0 0 0-.278-.703c-.186-.181-.453-.272-.802-.272-.31 0-.555.078-.736.232a.722.722 0 0 0-.272.57c0 .221.094.401.282.54.187.14.569.265 1.143.375.88.177 1.535.437 1.966.78.43.342.646.813.646 1.414 0 .646-.276 1.174-.829 1.585-.552.41-1.281.616-2.187.616-.955 0-1.71-.242-2.264-.726-.555-.484-.819-1.035-.792-1.654l.013-.04h1.77c.013.385.14.664.378.836.239.172.55.258.935.258.358 0 .63-.071.818-.215a.699.699 0 0 0 .282-.587zm5.157 1.989h-1.935v-7.173h1.935v7.173zm0-8.89h-1.935V11.97h1.935v1.452zm1.293 5.363c0-1.131.244-2.044.733-2.737.488-.694 1.176-1.041 2.064-1.041.358 0 .681.077.968.232.288.155.54.375.756.663v-3.931h1.942V22.31h-1.65l-.166-.882a2.398 2.398 0 0 1-.802.76 2.12 2.12 0 0 1-1.06.261c-.88 0-1.564-.322-2.052-.968-.489-.645-.733-1.498-.733-2.558v-.14zm1.929.14c0 .627.106 1.121.318 1.481.212.36.557.54 1.034.54.279 0 .522-.056.73-.169.207-.112.377-.277.51-.493v-3.056a1.49 1.49 0 0 0-.507-.527 1.349 1.349 0 0 0-.72-.19c-.472 0-.818.21-1.037.63-.219.42-.328.968-.328 1.644v.14zm9.141 3.526c-1.069 0-1.904-.328-2.505-.984-.601-.656-.902-1.502-.902-2.536v-.265c0-1.074.292-1.953.875-2.638C91.177 15.34 91.98 15 93 15.005c.964 0 1.703.295 2.218.885.515.59.772 1.384.772 2.383v1h-4.276l-.02.04c.032.491.18.889.448 1.194.267.305.664.457 1.19.457.433 0 .801-.044 1.104-.132.302-.089.615-.223.938-.405l.523 1.194c-.287.234-.676.43-1.166.59-.49.159-1.026.238-1.605.238zM93 16.496c-.388 0-.688.134-.898.401-.21.268-.337.622-.38 1.064l.012.034h2.36v-.146c0-.42-.086-.75-.258-.991-.173-.241-.451-.362-.836-.362z" fill="#020202" fill-rule="nonzero"/><path d="M267.534 107.474c0-.31-.11-.564-.33-.761-.219-.198-.608-.375-1.166-.532-.8-.22-1.418-.511-1.852-.87-.434-.36-.651-.829-.651-1.408 0-.599.238-1.093.715-1.48.477-.389 1.09-.583 1.839-.583.803 0 1.446.215 1.928.646.482.43.714.963.697 1.596l-.01.03h-1.195c0-.39-.13-.702-.39-.934-.261-.231-.608-.347-1.04-.347-.42 0-.742.099-.968.296a.97.97 0 0 0-.34.766c0 .286.124.522.373.708.249.185.66.361 1.236.528.78.218 1.374.515 1.783.892.408.376.612.857.612 1.442 0 .617-.241 1.109-.725 1.477-.483.367-1.118.551-1.905.551-.756 0-1.415-.2-1.977-.602-.561-.402-.834-.97-.817-1.701l.01-.031h1.196c0 .446.154.782.462 1.009.308.226.683.34 1.126.34.44 0 .78-.093 1.024-.279a.897.897 0 0 0 .365-.753zm4.73 2.017c-.807 0-1.438-.254-1.892-.763-.455-.51-.682-1.17-.682-1.98v-.204c0-.81.227-1.479.682-2.005.454-.526 1.04-.787 1.76-.784.742 0 1.303.23 1.685.687.381.458.572 1.07.572 1.836v.67h-3.417l-.01.025c.013.453.132.82.357 1.103.225.283.564.424 1.017.424.337 0 .629-.04.875-.122a2.5 2.5 0 0 0 .687-.353l.404.812a2.63 2.63 0 0 1-.838.465 3.51 3.51 0 0 1-1.2.19zm-.133-4.74a.959.959 0 0 0-.776.35c-.194.233-.315.537-.363.912l.01.025h2.161v-.097c0-.354-.083-.64-.248-.86-.165-.22-.426-.33-.784-.33zm4.587 4.633h-1.241v-7.968h1.24v7.968zm3.734.107c-.807 0-1.438-.254-1.893-.763-.454-.51-.682-1.17-.682-1.98v-.204c0-.81.228-1.479.682-2.005.455-.526 1.041-.787 1.76-.784.742 0 1.304.23 1.685.687.382.458.572 1.07.572 1.836v.67h-3.417l-.01.025c.014.453.133.82.358 1.103.224.283.563.424 1.016.424.337 0 .63-.04.876-.122a2.5 2.5 0 0 0 .687-.353l.404.812a2.63 2.63 0 0 1-.838.465 3.51 3.51 0 0 1-1.2.19zm-.133-4.74a.959.959 0 0 0-.777.35c-.194.233-.315.537-.362.912l.01.025h2.16v-.097c0-.354-.082-.64-.247-.86-.165-.22-.427-.33-.784-.33zm6.369 3.121c0-.19-.08-.348-.243-.472-.161-.125-.467-.236-.916-.335-.65-.133-1.148-.329-1.492-.587a1.238 1.238 0 0 1-.516-1.042c0-.463.196-.86.588-1.188.391-.328.907-.493 1.547-.493.66 0 1.193.17 1.596.509.404.338.597.746.58 1.223l-.01.03h-1.19a.774.774 0 0 0-.266-.584c-.177-.166-.413-.248-.71-.248-.3 0-.528.068-.684.204a.639.639 0 0 0-.235.5c0 .188.073.338.22.45.146.113.447.213.904.302.677.136 1.188.336 1.532.6.344.264.516.617.516 1.06 0 .497-.205.903-.616 1.218-.41.315-.95.472-1.621.472-.719 0-1.286-.184-1.701-.551-.416-.368-.613-.79-.593-1.267l.01-.03h1.155c.013.32.13.553.347.699.218.146.484.22.797.22.317 0 .563-.063.738-.19a.588.588 0 0 0 .263-.5zm5.664 1.512a4.58 4.58 0 0 1-.11-.409 2.92 2.92 0 0 1-.058-.398c-.167.259-.39.476-.67.651-.278.176-.59.263-.934.263-.575 0-1.017-.148-1.325-.444-.309-.296-.463-.703-.463-1.22 0-.535.211-.952.634-1.25.422-.298 1.016-.447 1.782-.447h.966v-.485c0-.29-.085-.516-.253-.68-.169-.163-.413-.244-.733-.244-.283 0-.508.067-.674.201a.641.641 0 0 0-.25.524l-1.196.005-.005-.03c-.024-.436.171-.823.585-1.16.414-.337.952-.506 1.616-.506.644 0 1.163.164 1.558.49.395.328.593.797.593 1.41v2.457c0 .228.015.447.046.656.03.21.08.415.148.616h-1.257zm-1.517-.889c.31 0 .59-.078.84-.235.25-.156.417-.335.499-.536v-.817h-.986c-.361 0-.644.09-.848.268-.204.179-.306.389-.306.63 0 .212.068.38.206.504.138.124.337.186.595.186zm5.2.889h-1.241v-5.527h1.241v5.527zm0-6.88h-1.241v-1.088h1.241v1.088z" fill="#2A3052"/></g></svg>