<?xml version="1.0" encoding="UTF-8"?>
<svg width="299px" height="197px" viewBox="0 0 299 197" version="1.1" xmlns="http://www.w3.org/2000/svg" xmlns:xlink="http://www.w3.org/1999/xlink">
    <!-- Generator: Sketch 52.5 (67469) - http://www.bohemiancoding.com/sketch -->
    <title>goes outside</title>
    <desc>Created with Sketch.</desc>
    <g id="Page-1" stroke="none" stroke-width="1" fill="none" fill-rule="evenodd">
        <g id="goes-outside">
            <polygon id="Path" fill="#F1F2F2" points="0 0 299 0 299 197 0 197"></polygon>
            <path d="M1.98671096,1.9798995 L1.98671096,195.020101 L297.013289,195.020101 L297.013289,1.9798995 L1.98671096,1.9798995 Z M299,0 L299,197 L0,197 L0,0 L299,0 Z" id="Path" fill="#C2C2C2" fill-rule="nonzero"></path>
            <path d="M4.887,55.4456836 L4.887,54.2388448 L294.54325,54.2388448 L294.54325,55.4456836 L4.887,55.4456836 Z M4.887,95.9796458 L4.887,94.772807 L294.54325,94.772807 L294.54325,95.9796458 L4.887,95.9796458 Z M4.887,136.513608 L4.887,135.30677 L294.54325,135.30677 L294.54325,136.513608 L4.887,136.513608 Z M4.887,177.010211 L4.887,175.803373 L294.54325,175.803373 L294.54325,177.010211 L4.887,177.010211 Z M39.2665806,34.5939623 L40.4734194,34.5939623 L40.4734194,194.264151 L39.2665806,194.264151 L39.2665806,34.5939623 Z M75.9314556,34.5939623 L77.1382944,34.5939623 L77.1382944,194.264151 L75.9314556,194.264151 L75.9314556,34.5939623 Z M112.558956,34.5939623 L113.765794,34.5939623 L113.765794,194.264151 L112.558956,194.264151 L112.558956,34.5939623 Z M149.223831,34.5939623 L150.430669,34.5939623 L150.430669,194.264151 L149.223831,194.264151 L149.223831,34.5939623 Z M185.851331,34.5939623 L187.058169,34.5939623 L187.058169,194.264151 L185.851331,194.264151 L185.851331,34.5939623 Z M222.478831,34.5939623 L223.685669,34.5939623 L223.685669,194.264151 L222.478831,194.264151 L222.478831,34.5939623 Z M4.887,116.227948 L4.887,115.021109 L294.54325,115.021109 L294.54325,116.227948 L4.887,116.227948 Z" id="Shape" fill="#DFDEDE" fill-rule="nonzero"></path>
            <path d="M259.143706,34.5939623 L260.350544,34.5939623 L260.350544,194.264151 L259.143706,194.264151 L259.143706,34.5939623 Z M4.887,75.7313439 L4.887,74.5245051 L294.54325,74.5245051 L294.54325,75.7313439 L4.887,75.7313439 Z M4.887,156.76191 L4.887,155.555072 L294.54325,155.555072 L294.54325,156.76191 L4.887,156.76191 Z" id="Shape" fill="#2A3052" fill-rule="nonzero"></path>
            <polygon id="Path" fill="#C2C2C2" fill-rule="nonzero" points="2.794 34.6055162 2.794 32.1914649 296.63625 32.1914649 296.63625 34.6055162"></polygon>
            <path d="M40.7780566,117.19078 C39.9130397,117.692286 38.8052541,117.397602 38.3037483,116.532585 C37.8022425,115.667568 38.0969265,114.559782 38.9619434,114.058277 L75.6268184,92.8012955 C76.2847374,92.4198577 77.110905,92.4902479 77.6948117,92.9774903 L110.13667,120.048685 L148.812609,93.8768219 C149.491995,93.4170836 150.395598,93.4715961 151.014788,94.0096747 L186.128007,124.523193 L221.601392,74.0864018 C222.176609,73.2685463 223.305917,73.071849 224.123773,73.6470661 C224.941628,74.2222832 225.138325,75.3515916 224.563108,76.1694472 L187.935608,128.247183 C187.318256,129.124947 186.077222,129.276114 185.267212,128.572212 L149.68976,97.655274 L111.037516,123.811103 C110.369276,124.263299 109.482446,124.218705 108.862938,123.701755 L76.3473092,96.5690015 L40.7780566,117.19078 Z" id="Path" fill="#2A3052" fill-rule="nonzero"></path>
            <path d="M187.987125,146.445283 L153.0415,146.445283 L147.6595,138.263774 L142.2775,146.445283 L107.331875,146.445283 C106.07173,146.451176 104.865994,146.959272 103.98197,147.856931 C103.097947,148.754589 102.608676,149.967645 102.622625,151.22717 L102.622625,175.921132 C102.606032,178.539822 104.712091,180.678366 107.331875,180.703019 L188.0245,180.703019 C189.284645,180.697126 190.490381,180.18903 191.374405,179.291371 C192.258428,178.393713 192.747699,177.180657 192.73375,175.921132 L192.73375,151.22717 C192.73971,149.963586 192.242729,148.749496 191.352348,147.8525 C190.461966,146.955504 189.251275,146.449236 187.987125,146.445283 Z" id="Path" fill="#E88024"></path>
            <g id="Group" opacity="0.6" transform="translate(214.037500, 66.509434)" fill="#FFFFFF">
                <ellipse id="Oval" cx="9.04475" cy="8.6184906" rx="8.110375" ry="8.44301887"></ellipse>
            </g>
            <path d="M223.08225,84.777969 C217.925296,84.777969 213.764849,80.4468836 213.764849,75.1279245 C213.764849,69.8089654 217.925296,65.47788 223.08225,65.47788 C228.239204,65.47788 232.399651,69.8089654 232.399651,75.1279245 C232.399651,80.4468836 228.239204,84.777969 223.08225,84.777969 Z M223.08225,82.3639177 C226.883769,82.3639177 229.985599,79.1348665 229.985599,75.1279245 C229.985599,71.1209825 226.883769,67.8919313 223.08225,67.8919313 C219.280731,67.8919313 216.178901,71.1209825 216.178901,75.1279245 C216.178901,79.1348665 219.280731,82.3639177 223.08225,82.3639177 Z" id="Oval" fill="#E88024" fill-rule="nonzero"></path>
            <g id="Group" opacity="0.6" transform="translate(30.900000, 106.603774)" fill="#FFFFFF">
                <ellipse id="Oval" cx="8.97" cy="9.0207547" rx="8.110375" ry="8.44301887"></ellipse>
            </g>
            <path d="M39.87,125.274573 C34.7130457,125.274573 30.5525994,120.943487 30.5525994,115.624528 C30.5525994,110.305569 34.7130457,105.974484 39.87,105.974484 C45.0269543,105.974484 49.1874006,110.305569 49.1874006,115.624528 C49.1874006,120.943487 45.0269543,125.274573 39.87,125.274573 Z M39.87,122.860522 C43.6715185,122.860522 46.7733494,119.63147 46.7733494,115.624528 C46.7733494,111.617586 43.6715185,108.388535 39.87,108.388535 C36.0684815,108.388535 32.9666506,111.617586 32.9666506,115.624528 C32.9666506,119.63147 36.0684815,122.860522 39.87,122.860522 Z" id="Oval" fill="#E88024" fill-rule="nonzero"></path>
            <path d="M171.669,165.543 L169.139,165.543 L169.139,157.172 L171.669,157.172 L171.669,165.543 Z M171.669,169.947 L169.139,169.947 L169.139,167.698 L171.669,167.698 L171.669,169.947 Z" id="Shape" fill="#FFFFFF" fill-rule="nonzero"></path>
            <path d="M142.101,159.31 C145.032,159.31 146.621,161.096 147.024,163.773 C147.426,166.451 145.98,170.232 142.307,170.232 C138.634,170.232 137.447,167.439 137.447,164.549 C137.447,161.659 139.17,159.309 142.101,159.309 L142.101,159.31 Z M142.127,161.185 C141.257,161.268 139.712,161.877 139.802,164.767 C139.892,167.657 141.156,168.337 142.127,168.337 C143.099,168.337 144.737,168.067 144.737,164.78 C144.737,161.492 142.999,161.103 142.127,161.185 Z M136.828,159.378 C136.754307,160.128789 136.648879,160.876124 136.512,161.618 C135.37,161.545 134.184,161.436 133.665,162.771 L133.679,169.952 L131.328,169.952 L131.328,159.462 L133.42,159.462 C133.52,160.162 133.582,160.672 133.606,160.993 C134.329,159.643 135.403,159.106 136.828,159.378 Z M121.712,169.952 L119.318,169.952 L119.318,155.929 L125.484,155.929 C127.416,155.929 130.058,157.539 129.769,160.733 C129.576,162.861 128.148,164.153 125.484,164.607 L121.712,164.607 L121.712,169.952 Z M121.723,162.747 L124.887,162.747 C125.668,162.747 127.413,162.205 127.413,160.196 C127.413,158.186 125.684,157.726 124.887,157.752 C124.357,157.771 123.301,157.762 121.723,157.725 L121.723,162.747 Z M154.644,154.801 C154.535,155.361 154.478,155.917 154.392,156.627 C154.028,156.547 151.989,156.031 151.94,158.242 L151.94,159.462 L153.88,159.462 L153.88,161.154 L151.94,161.154 L151.989,169.952 L149.559,169.952 L149.559,161.154 L148.03,161.154 L148.03,159.462 L149.651,159.462 C149.484,157.302 149.921,155.884 150.961,155.207 C152.521,154.191 154.06,154.611 154.644,154.801 Z M156.404,159.486 L158.754,159.486 L158.754,169.897 L156.404,169.897 L156.404,159.486 Z M156.451,154.886 L156.451,156.878 L158.789,156.878 L158.789,154.887 L156.451,154.886 Z M165.184,156.949 L165.184,159.538 L166.997,159.538 L166.997,161.254 L165.184,161.254 L165.184,167.46 C165.184,168.714 166.771,168.298 166.875,168.247 L167.153,169.904 C166.997,170.008 163.217,171.352 162.815,167.46 L162.815,161.254 L161.255,161.254 L161.255,159.538 L162.815,159.538 L162.815,156.948 L165.185,156.948 L165.184,156.949 Z" id="Shape" fill="#FFFFFF" fill-rule="nonzero"></path>
            <path d="M22.646,59.496 L19.874,59.496 L18.748,67.007 L17.611,67.007 L18.737,59.495 L16,59.495 L16.133,58.6 L22.778,58.6 L22.645,59.495 L22.646,59.496 Z M25.746,67.007 C25.738,66.792 25.734,66.617 25.734,66.485 C25.734,66.352 25.742,66.216 25.758,66.078 C25.4906719,66.3815912 25.1709138,66.6346201 24.814,66.825 C24.4657741,67.0208689 24.0735218,67.1251254 23.674,67.128 C23.046,67.128 22.581,66.96 22.279,66.623 C21.977,66.286 21.869,65.829 21.959,65.252 C22.0300051,64.662508 22.3711204,64.1395632 22.882,63.837 C23.409,63.51 24.092,63.347 24.932,63.347 L26.167,63.347 L26.26,62.729 C26.318,62.348 26.251,62.054 26.06,61.849 C25.87,61.642 25.569,61.539 25.157,61.539 C24.807,61.539 24.499,61.632 24.233,61.816 C23.968,62.001 23.818,62.223 23.783,62.48 L22.697,62.492 L22.692,62.457 C22.738,61.984 23.013,61.563 23.517,61.196 C24.022,60.828 24.634,60.644 25.353,60.644 C26.035,60.644 26.57,60.826 26.958,61.19 C27.348,61.554 27.494,62.07 27.398,62.74 L26.947,65.748 C26.908,65.983 26.887,66.202 26.881,66.404 C26.875,66.606 26.887,66.807 26.918,67.007 L25.746,67.007 Z M23.985,66.176 C24.3882174,66.1728462 24.7831069,66.060909 25.128,65.852 C25.498,65.637 25.754,65.394 25.896,65.125 L26.052,64.115 L24.776,64.115 C24.333,64.115 23.952,64.232 23.633,64.467 C23.313,64.701 23.133,64.971 23.09,65.275 C23.044,65.564 23.095,65.786 23.243,65.942 C23.391,66.098 23.639,66.176 23.985,66.176 Z M32.149,61.765 L31.572,61.73 C31.275,61.73 31.014,61.804 30.787,61.952 C30.5478918,62.1128535 30.3499084,62.327621 30.209,62.579 L29.545,67.007 L28.408,67.007 L29.343,60.76 L30.359,60.76 L30.336,61.643 C30.559,61.328 30.813,61.083 31.098,60.907 C31.4509675,60.6899825 31.8691246,60.6042975 32.279,60.665 C32.358,60.678 32.421,60.693 32.467,60.708 L32.149,61.765 Z M32.686,63.999 C32.84,62.956 33.175,62.136 33.691,61.539 C34.207,60.943 34.853,60.644 35.631,60.644 C36.02,60.644 36.353,60.727 36.63,60.893 C36.907,61.058 37.126,61.297 37.288,61.609 L37.554,60.759 L38.46,60.759 L37.519,67.042 C37.392,67.873 37.068,68.496 36.546,68.91 C36.024,69.323 35.319,69.53 34.43,69.53 C34.141,69.53 33.826,69.488 33.483,69.403 C33.1763239,69.3322293 32.8808737,69.2195005 32.605,69.068 L32.911,68.185 C33.115,68.301 33.367,68.394 33.665,68.465 C33.963,68.536 34.262,68.572 34.563,68.572 C35.093,68.572 35.511,68.444 35.813,68.188 C36.115,67.932 36.304,67.55 36.381,67.042 L36.485,66.332 C36.243,66.593 35.969,66.792 35.663,66.926 C35.3428741,67.0635957 34.9974159,67.1324148 34.649,67.128 C33.918,67.128 33.371,66.849 33.009,66.291 C32.648,65.733 32.534,65.009 32.669,64.121 L32.686,63.999 Z M33.806,64.12 C33.706,64.77 33.757,65.28 33.959,65.65 C34.161,66.02 34.534,66.205 35.077,66.205 C35.407,66.205 35.702,66.125 35.96,65.965 C36.218,65.805 36.445,65.581 36.641,65.292 L37.074,62.434 C36.9737878,62.1834255 36.8071436,61.9649211 36.592,61.802 C36.382,61.646 36.112,61.568 35.781,61.568 C35.261,61.568 34.831,61.798 34.491,62.255 C34.15,62.713 33.928,63.295 33.824,63.999 L33.806,64.12 Z M41.728,67.128 C40.866,67.128 40.218,66.838 39.785,66.257 C39.352,65.675 39.205,64.925 39.343,64.005 L39.383,63.751 C39.519,62.819 39.885,62.069 40.483,61.499 C41.083,60.929 41.761,60.644 42.519,60.644 C43.324,60.644 43.903,60.908 44.257,61.435 C44.611,61.963 44.725,62.65 44.597,63.497 L44.511,64.097 L40.469,64.097 C40.381,64.759 40.446,65.282 40.666,65.665 C40.885,66.048 41.283,66.239 41.861,66.239 C42.231,66.239 42.574,66.183 42.891,66.072 C43.209,65.96 43.483,65.81 43.714,65.622 L44.049,66.361 C43.7608012,66.5958776 43.434843,66.780159 43.085,66.906 C42.696,67.054 42.244,67.128 41.728,67.128 Z M42.386,61.539 C42.006,61.539 41.66,61.693 41.35,62.001 C41.04,62.309 40.818,62.698 40.683,63.168 L40.694,63.202 L43.506,63.202 L43.518,63.11 C43.588,62.644 43.533,62.266 43.356,61.975 C43.179,61.685 42.856,61.539 42.386,61.539 Z M48.091,59.253 L47.866,60.76 L49.049,60.76 L48.922,61.603 L47.739,61.603 L47.173,65.396 C47.127,65.7 47.154,65.909 47.256,66.023 C47.358,66.136 47.511,66.193 47.716,66.193 C47.863408,66.1871022 48.0092161,66.1601631 48.149,66.113 L48.189,66.892 C48.093,66.961 47.959,67.018 47.788,67.062 C47.6248006,67.1050842 47.4567891,67.1272617 47.288,67.128 C46.842,67.128 46.498,66.988 46.258,66.707 C46.017,66.426 45.943,65.989 46.035,65.397 L46.601,61.603 L45.608,61.603 L45.735,60.76 L46.728,60.76 L46.953,59.253 L48.091,59.253 Z M59.431,59.495 L56.659,59.495 L55.533,67.007 L54.396,67.007 L55.522,59.495 L52.785,59.495 L52.918,58.6 L59.563,58.6 L59.431,59.495 Z M60.574,67.007 L59.436,67.007 L60.372,60.76 L61.509,60.76 L60.574,67.007 Z M61.752,59.161 L60.614,59.161 L60.788,58 L61.925,58 L61.752,59.16 L61.752,59.161 Z M64.223,61.655 C64.4624061,61.343772 64.7668139,61.0885063 65.115,60.907 C65.455,60.732 65.826,60.644 66.226,60.644 C66.877,60.644 67.363,60.844 67.684,61.242 C68.006,61.64 68.104,62.248 67.982,63.064 L67.392,67.007 L66.256,67.007 L66.846,63.087 C66.93,62.517 66.882,62.122 66.701,61.9 C66.52,61.679 66.202,61.568 65.748,61.568 C65.41,61.568 65.105,61.642 64.836,61.791 C64.566,61.939 64.339,62.144 64.155,62.405 L63.462,67.007 L62.324,67.007 L63.26,60.76 L64.276,60.76 L64.224,61.655 L64.223,61.655 Z M69.293,63.999 C69.446,62.956 69.781,62.136 70.297,61.539 C70.813,60.943 71.46,60.644 72.237,60.644 C72.626,60.644 72.959,60.727 73.236,60.893 C73.513,61.058 73.732,61.297 73.894,61.609 L74.16,60.759 L75.066,60.759 L74.126,67.042 C73.998,67.873 73.674,68.496 73.152,68.91 C72.631,69.323 71.925,69.53 71.036,69.53 C70.747,69.53 70.432,69.488 70.089,69.403 C69.7826684,69.3321418 69.4875602,69.2194152 69.212,69.068 L69.518,68.185 C69.722,68.301 69.973,68.394 70.271,68.465 C70.569,68.536 70.869,68.572 71.169,68.572 C71.7,68.572 72.117,68.444 72.419,68.188 C72.721,67.932 72.911,67.55 72.988,67.042 L73.092,66.332 C72.849,66.593 72.575,66.792 72.269,66.926 C71.9491828,67.0634583 71.6040798,67.1322745 71.256,67.128 C70.524,67.128 69.978,66.849 69.616,66.291 C69.254,65.733 69.14,65.009 69.276,64.121 L69.292,63.999 L69.293,63.999 Z M70.413,64.12 C70.313,64.77 70.363,65.28 70.566,65.65 C70.768,66.02 71.14,66.205 71.683,66.205 C72.013,66.205 72.308,66.125 72.566,65.965 C72.824,65.805 73.051,65.581 73.247,65.292 L73.681,62.434 C73.5805109,62.183306 73.4135115,61.9647892 73.198,61.802 C72.988,61.646 72.718,61.568 72.388,61.568 C71.868,61.568 71.438,61.798 71.097,62.255 C70.757,62.713 70.534,63.295 70.43,63.999 L70.413,64.12 Z M76.013,63.999 C76.167,62.956 76.502,62.136 77.018,61.539 C77.534,60.943 78.18,60.644 78.958,60.644 C79.347,60.644 79.68,60.727 79.957,60.893 C80.234,61.058 80.453,61.297 80.615,61.609 L80.881,60.759 L81.787,60.759 L80.846,67.042 C80.719,67.873 80.395,68.496 79.873,68.91 C79.351,69.323 78.646,69.53 77.757,69.53 C77.468,69.53 77.153,69.488 76.81,69.403 C76.5033239,69.3322293 76.2078737,69.2195005 75.932,69.068 L76.238,68.185 C76.442,68.301 76.694,68.394 76.992,68.465 C77.29,68.536 77.589,68.572 77.89,68.572 C78.42,68.572 78.838,68.444 79.14,68.188 C79.442,67.932 79.631,67.55 79.708,67.042 L79.812,66.332 C79.57,66.593 79.296,66.792 78.99,66.926 C78.6698741,67.0635957 78.3244159,67.1324148 77.976,67.128 C77.245,67.128 76.698,66.849 76.336,66.291 C75.975,65.733 75.861,65.009 75.996,64.121 L76.013,63.999 Z M77.133,64.12 C77.033,64.77 77.084,65.28 77.286,65.65 C77.488,66.02 77.861,66.205 78.404,66.205 C78.734,66.205 79.029,66.125 79.287,65.965 C79.545,65.805 79.772,65.581 79.968,65.292 L80.401,62.434 C80.3007878,62.1834255 80.1341436,61.9649211 79.919,61.802 C79.709,61.646 79.439,61.568 79.108,61.568 C78.588,61.568 78.158,61.798 77.818,62.255 C77.477,62.713 77.255,63.295 77.151,63.999 L77.133,64.12 Z M83.715,67.007 L82.578,67.007 L83.513,60.76 L84.651,60.76 L83.715,67.007 Z M84.893,59.161 L83.756,59.161 L83.929,58 L85.067,58 L84.893,59.16 L84.893,59.161 Z M22.426,161.756 L19.746,161.756 L18.657,169.02 L17.557,169.02 L18.647,161.756 L16,161.756 L16.128,160.891 L22.555,160.891 L22.426,161.756 Z M25.424,169.02 C25.4177931,168.851736 25.4144592,168.683378 25.414,168.515 C25.414,168.387 25.421,168.255 25.436,168.121 C25.186,168.408 24.882,168.649 24.523,168.844 C24.163,169.04 23.796,169.138 23.42,169.138 C22.813,169.138 22.364,168.975 22.072,168.649 C21.779,168.323 21.676,167.881 21.762,167.323 C21.8308592,166.752988 22.1608859,166.247415 22.655,165.955 C23.165,165.639 23.825,165.48 24.637,165.48 L25.832,165.48 L25.922,164.883 C25.977,164.515 25.912,164.231 25.729,164.032 C25.544,163.832 25.253,163.732 24.855,163.732 C24.516,163.732 24.218,163.822 23.962,164.001 C23.705,164.18 23.56,164.394 23.526,164.643 L22.476,164.654 L22.471,164.621 C22.515,164.163 22.781,163.756 23.269,163.401 C23.757,163.045 24.349,162.867 25.045,162.867 C25.704,162.867 26.221,163.043 26.597,163.395 C26.973,163.747 27.114,164.247 27.021,164.895 L26.586,167.803 C26.5505824,168.012674 26.5292015,168.224478 26.522,168.437 C26.516,168.632 26.528,168.827 26.558,169.02 L25.424,169.02 Z M23.721,168.216 C24.101,168.216 24.47,168.112 24.827,167.904 C25.184,167.695 25.432,167.461 25.57,167.2 L25.72,166.223 L24.486,166.223 C24.058,166.223 23.69,166.337 23.381,166.563 C23.072,166.791 22.897,167.051 22.856,167.345 C22.811,167.625 22.861,167.839 23.004,167.99 C23.147,168.14 23.386,168.216 23.721,168.216 Z M31.616,163.951 L31.058,163.917 C30.771,163.917 30.518,163.989 30.298,164.132 C30.0671737,164.287589 29.8760561,164.495147 29.74,164.738 L29.098,169.02 L27.998,169.02 L28.903,162.98 L29.885,162.98 L29.863,163.833 C30.079,163.528 30.325,163.291 30.6,163.122 C30.9411916,162.91182 31.345543,162.828613 31.742,162.887 C31.818,162.9 31.879,162.914 31.923,162.929 L31.616,163.951 Z M32.136,166.111 C32.284,165.103 32.608,164.31 33.107,163.733 C33.606,163.156 34.231,162.867 34.983,162.867 C35.359,162.867 35.681,162.947 35.949,163.107 C36.217,163.267 36.429,163.498 36.586,163.8 L36.842,162.98 L37.719,162.98 L36.809,169.054 C36.686,169.858 36.372,170.46 35.869,170.86 C35.364,171.26 34.682,171.46 33.822,171.46 C33.542,171.46 33.237,171.42 32.906,171.337 C32.609501,171.268861 32.3238115,171.160172 32.057,171.014 L32.353,170.159 C32.551,170.271 32.793,170.361 33.082,170.43 C33.37,170.499 33.66,170.533 33.95,170.533 C34.464,170.533 34.867,170.41 35.159,170.163 C35.451,169.915 35.634,169.545 35.709,169.053 L35.809,168.367 C35.575,168.62 35.309,168.812 35.014,168.942 C34.718,169.072 34.391,169.138 34.034,169.138 C33.327,169.138 32.798,168.868 32.448,168.328 C32.098,167.788 31.988,167.088 32.118,166.228 L32.136,166.111 Z M33.219,166.229 C33.122,166.858 33.171,167.351 33.367,167.709 C33.562,168.066 33.922,168.244 34.447,168.244 C34.767,168.244 35.052,168.167 35.301,168.013 C35.5644482,167.845391 35.7893889,167.623859 35.961,167.363 L36.379,164.598 C36.2820995,164.355758 36.1209895,164.144517 35.913,163.987 C35.71,163.837 35.448,163.761 35.128,163.761 C34.626,163.761 34.21,163.982 33.88,164.425 C33.551,164.868 33.336,165.43 33.236,166.111 L33.219,166.229 Z M40.879,169.138 C40.045,169.138 39.419,168.857 39,168.294 C38.582,167.732 38.44,167.007 38.573,166.117 L38.613,165.871 C38.743,164.971 39.097,164.245 39.676,163.694 C40.255,163.143 40.911,162.867 41.644,162.867 C42.422,162.867 42.982,163.122 43.324,163.632 C43.667,164.142 43.777,164.807 43.654,165.626 L43.57,166.206 L39.662,166.206 C39.576,166.846 39.64,167.352 39.852,167.722 C40.064,168.092 40.449,168.278 41.008,168.278 C41.365,168.278 41.698,168.224 42.004,168.116 C42.311,168.008 42.576,167.863 42.8,167.68 L43.124,168.395 C42.8451433,168.622564 42.5296555,168.801103 42.191,168.923 C41.815,169.066 41.378,169.138 40.879,169.138 Z M41.516,163.733 C41.147,163.733 40.813,163.882 40.513,164.18 C40.213,164.477 39.999,164.853 39.869,165.307 L39.879,165.341 L42.599,165.341 L42.61,165.251 C42.677,164.801 42.625,164.435 42.454,164.154 C42.282,163.874 41.97,163.733 41.516,163.733 Z M47.032,161.522 L46.814,162.979 L47.959,162.979 L47.836,163.794 L46.691,163.794 L46.144,167.463 C46.1,167.757 46.127,167.959 46.225,168.068 C46.324,168.178 46.472,168.233 46.669,168.233 C46.8116719,168.227116 46.9527682,168.20085 47.088,168.155 L47.127,168.909 C47.0086852,168.986749 46.8772105,169.042321 46.739,169.073 C46.5813997,169.115021 46.4191021,169.136862 46.256,169.138 C45.824,169.138 45.492,169.002 45.259,168.73 C45.027,168.458 44.955,168.036 45.044,167.463 L45.591,163.794 L44.631,163.794 L44.754,162.979 L45.714,162.979 L45.932,161.522 L47.032,161.522 Z M52.85,165.497 L52.325,169.02 L51.225,169.02 L52.442,160.897 L55.222,160.897 C56.079,160.897 56.72,161.096 57.146,161.494 C57.572,161.892 57.73,162.464 57.618,163.208 C57.551,163.648 57.385,164.018 57.121,164.322 C56.857,164.625 56.499,164.864 56.049,165.039 C56.462,165.189 56.747,165.427 56.903,165.757 C57.06,166.087 57.104,166.484 57.037,166.949 L56.92,167.714 C56.8796945,167.941791 56.8729564,168.174257 56.9,168.404 C56.9211932,168.583896 56.9985195,168.752545 57.121,168.886 L57.099,169.02 L55.965,169.02 C55.839,168.894 55.774,168.71 55.77,168.468 C55.7670917,168.212097 55.7838073,167.956347 55.82,167.703 L55.932,166.96 C55.999,166.502 55.925,166.144 55.712,165.885 C55.497,165.627 55.172,165.497 54.737,165.497 L52.85,165.497 Z M52.978,164.632 L54.553,164.632 C55.148,164.632 55.606,164.512 55.926,164.272 C56.246,164.032 56.444,163.673 56.518,163.197 C56.588,162.724 56.512,162.366 56.286,162.122 C56.061,161.878 55.664,161.756 55.094,161.756 L53.414,161.756 L52.978,164.632 Z M60.834,169.138 C60,169.138 59.374,168.857 58.955,168.294 C58.536,167.732 58.395,167.007 58.528,166.117 L58.568,165.871 C58.698,164.971 59.052,164.245 59.631,163.694 C60.21,163.143 60.866,162.867 61.599,162.867 C62.377,162.867 62.937,163.122 63.279,163.632 C63.622,164.142 63.732,164.807 63.609,165.626 L63.525,166.206 L59.617,166.206 C59.531,166.846 59.594,167.352 59.807,167.722 C60.019,168.092 60.404,168.278 60.962,168.278 C61.32,168.278 61.652,168.224 61.959,168.116 C62.266,168.008 62.531,167.863 62.755,167.68 L63.079,168.395 C62.8001433,168.622564 62.4846555,168.801103 62.146,168.923 C61.77,169.066 61.333,169.138 60.834,169.138 Z M61.471,163.733 C61.102,163.733 60.768,163.882 60.468,164.18 C60.168,164.477 59.954,164.853 59.823,165.307 L59.835,165.341 L62.554,165.341 L62.564,165.251 C62.632,164.801 62.58,164.435 62.409,164.154 C62.237,163.874 61.925,163.733 61.471,163.733 Z M66.171,163.845 C66.4026442,163.544088 66.6971618,163.297348 67.034,163.122 C67.364,162.952 67.722,162.867 68.109,162.867 C68.739,162.867 69.209,163.06 69.519,163.445 C69.829,163.831 69.926,164.418 69.806,165.207 L69.236,169.02 L68.137,169.02 L68.707,165.23 C68.788,164.678 68.742,164.296 68.567,164.082 C68.392,163.868 68.085,163.761 67.646,163.761 C67.3384595,163.756133 67.0348019,163.830154 66.764,163.976 C66.5012476,164.12061 66.2753928,164.323879 66.104,164.57 L65.434,169.02 L64.334,169.02 L65.239,162.98 L66.222,162.98 L66.172,163.845 L66.171,163.845 Z M71.018,166.111 C71.167,165.103 71.491,164.31 71.99,163.733 C72.488,163.156 73.116,162.867 73.871,162.867 C74.217,162.867 74.518,162.937 74.773,163.074 C75.028,163.212 75.235,163.411 75.395,163.671 L75.898,160.311 L76.998,160.311 L75.691,169.021 L74.848,169.021 L74.798,168.255 C74.556,168.545 74.278,168.765 73.966,168.915 C73.653,169.063 73.306,169.138 72.922,169.138 C72.211,169.138 71.681,168.868 71.331,168.328 C70.981,167.788 70.871,167.088 71.001,166.228 L71.018,166.111 Z M72.101,166.229 C72.004,166.858 72.054,167.351 72.249,167.709 C72.445,168.066 72.807,168.244 73.335,168.244 C73.652,168.244 73.935,168.168 74.184,168.015 C74.434,167.863 74.651,167.651 74.837,167.379 L75.256,164.582 C75.1623611,164.342597 75.0028829,164.134582 74.796,163.982 C74.592,163.834 74.333,163.761 74.016,163.761 C73.51,163.761 73.092,163.981 72.763,164.422 C72.433,164.864 72.218,165.426 72.118,166.112 L72.101,166.229 Z M81.046,169.02 C81.0394596,168.851742 81.0357924,168.683384 81.035,168.515 C81.035,168.387 81.042,168.255 81.057,168.121 C80.807,168.408 80.503,168.649 80.144,168.844 C79.784,169.04 79.417,169.138 79.041,169.138 C78.435,169.138 77.985,168.975 77.693,168.649 C77.401,168.323 77.297,167.881 77.383,167.323 C77.4518592,166.752988 77.7818859,166.247415 78.276,165.955 C78.786,165.639 79.447,165.48 80.258,165.48 L81.453,165.48 L81.543,164.883 C81.598,164.515 81.534,164.231 81.35,164.032 C81.166,163.832 80.875,163.732 80.476,163.732 C80.137,163.732 79.84,163.822 79.583,164.001 C79.326,164.18 79.181,164.394 79.147,164.643 L78.097,164.654 L78.092,164.621 C78.137,164.163 78.402,163.756 78.891,163.401 C79.378,163.045 79.97,162.867 80.666,162.867 C81.325,162.867 81.842,163.043 82.218,163.395 C82.594,163.747 82.736,164.247 82.643,164.895 L82.207,167.803 C82.1715824,168.012674 82.1502015,168.224478 82.143,168.437 C82.137,168.632 82.149,168.827 82.179,169.02 L81.046,169.02 Z M79.343,168.216 C79.723,168.216 80.091,168.112 80.448,167.904 C80.806,167.695 81.053,167.461 81.191,167.2 L81.341,166.223 L80.108,166.223 C79.68,166.223 79.311,166.337 79.002,166.563 C78.693,166.791 78.518,167.051 78.477,167.345 C78.433,167.625 78.482,167.839 78.625,167.99 C78.769,168.14 79.008,168.216 79.343,168.216 Z M85.507,163.756 C85.76,163.472 86.048,163.254 86.372,163.099 C86.6980532,162.943931 87.0549579,162.864619 87.416,162.867 C88.038,162.867 88.504,163.063 88.815,163.454 C89.125,163.844 89.223,164.438 89.108,165.234 L88.538,169.02 L87.438,169.02 L88.008,165.224 C88.086,164.71 88.036,164.338 87.858,164.107 C87.678,163.877 87.375,163.761 86.948,163.761 C86.631,163.761 86.34,163.828 86.074,163.961 C85.807,164.096 85.581,164.281 85.395,164.521 L84.72,169.021 L83.62,169.021 L84.926,160.311 L86.026,160.311 L85.506,163.755 L85.507,163.756 Z" id="Shape" fill="#6D6E71" fill-rule="nonzero"></path>
            <path d="M44.638,137.18 C44.608,137.033 44.608,136.914 44.608,136.767 C44.3940131,137.063876 44.1226632,137.314823 43.81,137.505 C43.485,137.712 43.13,137.801 42.747,137.801 C42.127,137.801 41.654,137.653 41.329,137.298 C40.9863695,136.942601 40.8045464,136.462198 40.826,135.969 C40.826,135.379 41.063,134.935 41.536,134.61 C42.008,134.285 42.629,134.108 43.426,134.108 L44.608,134.108 L44.608,133.517 C44.608,133.162 44.49,132.867 44.283,132.66 C44.076,132.453 43.751,132.335 43.367,132.335 C43.013,132.335 42.717,132.424 42.51,132.601 C42.3121355,132.759965 42.1934531,132.99733 42.185,133.251 L41.151,133.251 L41.151,133.221 C41.121,132.778 41.329,132.365 41.771,132.011 C42.215,131.656 42.776,131.449 43.456,131.449 C44.136,131.449 44.696,131.626 45.11,131.981 C45.524,132.335 45.73,132.837 45.73,133.487 L45.73,136.412 C45.73,136.619 45.73,136.826 45.76,137.032 C45.79,137.239 45.82,137.446 45.878,137.623 L44.726,137.623 L44.726,137.683 C44.696,137.505 44.667,137.328 44.638,137.18 Z M42.849,136.826 C43.233,136.826 43.617,136.737 43.913,136.53 C44.238,136.324 44.445,136.087 44.533,135.821 L44.533,134.846 L43.322,134.846 C42.879,134.846 42.524,134.965 42.258,135.171 C42.0116563,135.361833 41.8694185,135.657421 41.874,135.969 C41.874,136.235 41.963,136.442 42.111,136.619 C42.288,136.737 42.524,136.826 42.849,136.826 Z M35.179,131.487 L36.269,131.487 L36.269,137.658 L35.179,137.658 L35.179,136.743 C34.833,137.19 34.263,137.908 33.118,137.787 C31.973,137.667 31.265,136.768 31.259,135.778 C31.254,134.788 31.265,131.152 31.259,131.488 L32.341,131.488 L32.341,133.825 C32.341,136.56 32.942,136.863 33.764,136.863 C34.587,136.863 34.99,136.168 35.179,135.936 C35.169,134.636 35.169,133.154 35.179,131.487 Z M28.333,137.73 L29.433,137.73 L29.433,129.405 L28.067,129.405 L25.37,136.225 L22.7,129.405 L21.22,129.405 L21.22,137.73 L22.317,137.73 L22.369,131.257 L24.952,137.73 L25.785,137.73 L28.333,131.442 L28.333,137.73 Z M38.01,128.826 L39.136,128.826 L39.136,137.722 L38.01,137.722 L38.01,128.826 Z M47.408,131.576 L48.516,131.576 L48.516,137.675 L47.408,137.675 L47.408,131.576 Z M47.423,128.807 L47.423,129.907 L48.551,129.907 L48.551,128.807 L47.423,128.807 Z" id="Shape" fill="#2A3052" fill-rule="nonzero"></path>
            <path d="M266.21,105.81 C266.21,105.5 266.1,105.246 265.88,105.049 C265.661,104.851 265.272,104.674 264.714,104.517 C263.914,104.297 263.296,104.006 262.862,103.647 C262.428,103.287 262.211,102.818 262.211,102.239 C262.211,101.64 262.449,101.146 262.926,100.759 C263.403,100.37 264.016,100.176 264.765,100.176 C265.568,100.176 266.211,100.391 266.693,100.822 C267.175,101.252 267.407,101.785 267.39,102.418 L267.38,102.448 L266.185,102.448 C266.185,102.058 266.055,101.746 265.795,101.514 C265.534,101.283 265.187,101.167 264.755,101.167 C264.335,101.167 264.013,101.266 263.787,101.463 C263.563521,101.653675 263.438493,101.935355 263.447,102.229 C263.447,102.515 263.571,102.751 263.82,102.937 C264.069,103.122 264.48,103.298 265.056,103.465 C265.836,103.683 266.43,103.98 266.839,104.357 C267.247,104.733 267.451,105.214 267.451,105.799 C267.451,106.416 267.21,106.908 266.726,107.276 C266.243,107.643 265.608,107.827 264.821,107.827 C264.065,107.827 263.406,107.627 262.844,107.225 C262.283,106.823 262.01,106.255 262.027,105.524 L262.037,105.493 L263.233,105.493 C263.233,105.939 263.387,106.275 263.695,106.502 C264.003,106.728 264.378,106.842 264.821,106.842 C265.261,106.842 265.601,106.749 265.845,106.563 C266.083463,106.387604 266.220036,106.105851 266.21,105.81 Z M270.94,107.827 C270.133,107.827 269.502,107.573 269.048,107.064 C268.593,106.554 268.366,105.894 268.366,105.084 L268.366,104.88 C268.366,104.07 268.593,103.401 269.048,102.875 C269.502,102.349 270.088,102.088 270.808,102.091 C271.55,102.091 272.111,102.321 272.493,102.778 C272.874,103.236 273.065,103.848 273.065,104.614 L273.065,105.284 L269.648,105.284 L269.638,105.309 C269.651,105.762 269.77,106.129 269.995,106.412 C270.22,106.695 270.559,106.836 271.012,106.836 C271.349,106.836 271.641,106.796 271.887,106.714 C272.132904,106.632633 272.364669,106.513545 272.574,106.361 L272.978,107.173 C272.729503,107.378016 272.445455,107.535632 272.14,107.638 C271.754085,107.770606 271.348003,107.834902 270.94,107.828 L270.94,107.827 Z M270.807,103.087 C270.507888,103.076178 270.220876,103.20563 270.031,103.437 C269.837,103.67 269.716,103.974 269.668,104.349 L269.678,104.374 L271.839,104.374 L271.839,104.277 C271.839,103.923 271.756,103.637 271.591,103.417 C271.426,103.197 271.165,103.087 270.807,103.087 Z M275.394,107.72 L274.153,107.72 L274.153,99.752 L275.393,99.752 L275.393,107.72 L275.394,107.72 Z M279.128,107.827 C278.321,107.827 277.69,107.573 277.235,107.064 C276.781,106.554 276.553,105.894 276.553,105.084 L276.553,104.88 C276.553,104.07 276.781,103.401 277.235,102.875 C277.69,102.349 278.276,102.088 278.995,102.091 C279.737,102.091 280.299,102.321 280.68,102.778 C281.062,103.236 281.252,103.848 281.252,104.614 L281.252,105.284 L277.835,105.284 L277.825,105.309 C277.839,105.762 277.958,106.129 278.183,106.412 C278.407,106.695 278.746,106.836 279.199,106.836 C279.536,106.836 279.829,106.796 280.075,106.714 C280.320904,106.632633 280.552669,106.513545 280.762,106.361 L281.166,107.173 C280.917503,107.378016 280.633455,107.535632 280.328,107.638 C279.942085,107.770606 279.536003,107.834902 279.128,107.828 L279.128,107.827 Z M278.995,103.087 C278.695542,103.075862 278.408091,103.205344 278.218,103.437 C278.024,103.67 277.903,103.974 277.856,104.349 L277.866,104.374 L280.026,104.374 L280.026,104.277 C280.026,103.923 279.944,103.637 279.779,103.417 C279.614,103.197 279.352,103.087 278.995,103.087 Z M285.364,106.208 C285.364,106.018 285.284,105.86 285.121,105.736 C284.96,105.611 284.654,105.5 284.205,105.401 C283.555,105.268 283.057,105.072 282.713,104.814 C282.37844,104.574072 282.185041,104.183525 282.197,103.772 C282.197,103.309 282.393,102.912 282.785,102.584 C283.176,102.256 283.692,102.091 284.332,102.091 C284.992,102.091 285.525,102.261 285.928,102.6 C286.332,102.938 286.525,103.346 286.508,103.823 L286.498,103.853 L285.308,103.853 C285.308011,103.629015 285.210991,103.416008 285.042,103.269 C284.865,103.103 284.629,103.021 284.332,103.021 C284.032,103.021 283.804,103.089 283.648,103.225 C283.497942,103.347442 283.411514,103.531333 283.413,103.725 C283.413,103.913 283.486,104.063 283.633,104.175 C283.779,104.288 284.08,104.388 284.537,104.477 C285.214,104.613 285.725,104.813 286.069,105.077 C286.413,105.341 286.585,105.694 286.585,106.137 C286.585,106.634 286.38,107.04 285.969,107.355 C285.559,107.67 285.019,107.827 284.348,107.827 C283.629,107.827 283.062,107.643 282.647,107.276 C282.231,106.908 282.034,106.486 282.054,106.009 L282.064,105.979 L283.219,105.979 C283.232,106.299 283.349,106.532 283.566,106.678 C283.784,106.824 284.05,106.898 284.363,106.898 C284.68,106.898 284.926,106.835 285.101,106.708 C285.268236,106.597124 285.367387,106.408623 285.364,106.208 Z M291.028,107.72 C290.985046,107.585436 290.94834,107.448957 290.918,107.311 C290.889542,107.179824 290.870163,107.046842 290.86,106.913 C290.693,107.172 290.47,107.389 290.19,107.564 C289.912,107.74 289.6,107.827 289.256,107.827 C288.681,107.827 288.239,107.679 287.931,107.383 C287.622,107.087 287.468,106.68 287.468,106.163 C287.468,105.628 287.679,105.211 288.102,104.913 C288.524,104.615 289.118,104.466 289.884,104.466 L290.85,104.466 L290.85,103.981 C290.85,103.691 290.765,103.465 290.597,103.301 C290.428,103.138 290.184,103.057 289.864,103.057 C289.581,103.057 289.356,103.124 289.19,103.258 C289.027808,103.382752 288.934921,103.577443 288.94,103.782 L287.744,103.787 L287.739,103.757 C287.715,103.321 287.91,102.934 288.324,102.597 C288.738,102.26 289.276,102.091 289.94,102.091 C290.584,102.091 291.103,102.255 291.498,102.581 C291.893,102.909 292.091,103.378 292.091,103.991 L292.091,106.448 C292.091,106.676 292.106,106.895 292.137,107.104 C292.167,107.314 292.217,107.519 292.285,107.72 L291.028,107.72 Z M289.511,106.831 C289.821,106.831 290.101,106.753 290.351,106.596 C290.601,106.44 290.768,106.261 290.85,106.06 L290.85,105.243 L289.864,105.243 C289.503,105.243 289.22,105.333 289.016,105.511 C288.812,105.69 288.71,105.9 288.71,106.141 C288.71,106.353 288.778,106.521 288.916,106.645 C289.054,106.769 289.253,106.831 289.511,106.831 Z M294.711,107.72 L293.47,107.72 L293.47,102.193 L294.711,102.193 L294.711,107.72 Z M294.711,100.84 L293.47,100.84 L293.47,99.752 L294.711,99.752 L294.711,100.84 Z" id="Shape" fill="#2A3052" fill-rule="nonzero"></path>
            <path d="M22.63,20.021 C22.33,20.415 21.881,20.757 21.284,21.046 C20.688,21.336 19.919,21.48 18.978,21.48 C17.811,21.48 16.856,21.113 16.114,20.38 C15.371,19.646 15,18.694 15,17.523 L15,15.507 C15,14.341 15.36,13.39 16.08,12.654 C16.801,11.918 17.727,11.55 18.858,11.55 C20.038,11.55 20.942,11.83 21.569,12.389 C22.197,12.948 22.499,13.693 22.478,14.626 L22.464,14.666 L20.641,14.666 C20.641,14.153 20.493,13.754 20.197,13.469 C19.901,13.184 19.47,13.041 18.905,13.041 C18.312,13.041 17.835,13.271 17.473,13.728 C17.11,14.185 16.929,14.774 16.929,15.494 L16.929,17.523 C16.929,18.252 17.115,18.846 17.486,19.306 C17.857,19.766 18.354,19.996 18.978,19.996 C19.438,19.996 19.801,19.949 20.068,19.856 C20.335,19.763 20.542,19.646 20.688,19.505 L20.688,17.635 L18.832,17.635 L18.832,16.296 L22.63,16.296 L22.63,20.022 L22.63,20.021 Z M23.83,17.688 C23.83,16.618 24.128,15.743 24.725,15.06 C25.321,14.377 26.148,14.036 27.205,14.036 C28.265,14.036 29.095,14.376 29.697,15.056 C30.297,15.737 30.598,16.615 30.598,17.688 L30.598,17.828 C30.598,18.906 30.298,19.784 29.7,20.463 C29.101,21.141 28.274,21.48 27.217,21.48 C26.157,21.48 25.327,21.141 24.728,20.463 C24.129,19.784 23.83,18.906 23.83,17.828 L23.83,17.688 Z M25.759,17.828 C25.759,18.482 25.874,19.006 26.104,19.402 C26.334,19.798 26.704,19.995 27.217,19.995 C27.717,19.995 28.082,19.796 28.314,19.399 C28.546,19.001 28.662,18.477 28.662,17.828 L28.662,17.688 C28.662,17.052 28.545,16.533 28.312,16.131 C28.077,15.728 27.708,15.527 27.204,15.527 C26.704,15.527 26.339,15.73 26.107,16.134 C25.875,16.538 25.759,17.056 25.759,17.688 L25.759,17.828 Z M34.9,21.48 C33.83,21.48 32.996,21.152 32.395,20.496 C31.794,19.84 31.493,18.994 31.493,17.96 L31.493,17.695 C31.493,16.621 31.785,15.742 32.368,15.057 C32.951,14.372 33.754,14.031 34.774,14.036 C35.738,14.036 36.477,14.331 36.992,14.921 C37.507,15.511 37.764,16.305 37.764,17.304 L37.764,18.304 L33.488,18.304 L33.468,18.344 C33.499,18.835 33.648,19.233 33.916,19.538 C34.183,19.843 34.58,19.995 35.106,19.995 C35.539,19.995 35.906,19.951 36.21,19.863 C36.512,19.774 36.825,19.64 37.148,19.458 L37.671,20.652 C37.384,20.886 36.995,21.082 36.505,21.242 C36.015,21.401 35.479,21.48 34.9,21.48 Z M34.774,15.527 C34.386,15.527 34.086,15.661 33.876,15.928 C33.666,16.196 33.539,16.55 33.495,16.992 L33.508,17.026 L35.868,17.026 L35.868,16.88 C35.868,16.46 35.782,16.13 35.61,15.889 C35.437,15.648 35.159,15.527 34.774,15.527 Z M42.769,19.352 C42.769,19.14 42.666,18.958 42.461,18.805 C42.255,18.653 41.874,18.519 41.317,18.405 C40.477,18.236 39.84,17.982 39.405,17.642 C38.969,17.302 38.752,16.84 38.752,16.257 C38.752,15.642 39.012,15.119 39.534,14.685 C40.056,14.252 40.749,14.035 41.616,14.035 C42.522,14.035 43.247,14.252 43.793,14.685 C44.339,15.119 44.601,15.658 44.579,16.303 L44.565,16.343 L42.696,16.343 C42.7059211,16.0800669 42.6050688,15.8250338 42.418,15.64 C42.232,15.459 41.965,15.368 41.616,15.368 C41.306,15.368 41.061,15.446 40.88,15.6 C40.7066329,15.7381655 40.6063498,15.9483175 40.608,16.17 C40.608,16.391 40.702,16.571 40.89,16.71 C41.078,16.85 41.459,16.975 42.033,17.085 C42.913,17.262 43.568,17.522 43.999,17.865 C44.429,18.207 44.645,18.678 44.645,19.279 C44.645,19.925 44.369,20.453 43.816,20.864 C43.264,21.274 42.535,21.48 41.629,21.48 C40.674,21.48 39.919,21.238 39.365,20.754 C38.81,20.27 38.546,19.719 38.573,19.1 L38.586,19.06 L40.356,19.06 C40.369,19.445 40.496,19.724 40.734,19.896 C40.973,20.068 41.284,20.154 41.669,20.154 C42.027,20.154 42.299,20.083 42.487,19.939 C42.6719723,19.8017462 42.7774548,19.5821779 42.769,19.352 Z M57.227,17.383 C57.227,18.573 56.853,19.553 56.107,20.323 C55.36,21.095 54.387,21.48 53.19,21.48 C51.997,21.48 51.029,21.094 50.286,20.32 C49.544,19.547 49.173,18.568 49.173,17.383 L49.173,15.647 C49.173,14.467 49.543,13.489 50.283,12.713 C51.023,11.938 51.988,11.55 53.177,11.55 C54.374,11.55 55.349,11.938 56.1,12.713 C56.851,13.489 57.227,14.467 57.227,15.647 L57.227,17.383 Z M55.297,15.633 C55.297,14.883 55.11,14.266 54.734,13.783 C54.359,13.303 53.839,13.061 53.177,13.061 C52.523,13.061 52.013,13.302 51.649,13.784 C51.284,14.266 51.102,14.882 51.102,15.634 L51.102,17.384 C51.102,18.148 51.285,18.771 51.652,19.253 C52.019,19.735 52.532,19.975 53.19,19.975 C53.853,19.975 54.37,19.735 54.741,19.253 C55.112,18.771 55.298,18.148 55.298,17.383 L55.298,15.633 L55.297,15.633 Z M63.007,20.28 C62.787,20.665 62.506,20.96 62.166,21.169 C61.826,21.376 61.43,21.48 60.979,21.48 C60.223,21.48 59.632,21.224 59.206,20.711 C58.779,20.199 58.566,19.403 58.566,18.325 L58.566,14.168 L60.495,14.168 L60.495,18.338 C60.495,18.966 60.58,19.395 60.75,19.628 C60.92,19.859 61.184,19.975 61.542,19.975 C61.852,19.975 62.117,19.925 62.338,19.826 C62.558,19.726 62.74,19.58 62.881,19.386 L62.881,14.168 L64.817,14.168 L64.817,21.341 L63.213,21.341 L63.007,20.281 L63.007,20.28 Z M68.596,12.412 L68.596,14.168 L69.809,14.168 L69.809,15.528 L68.595,15.528 L68.595,19.18 C68.595,19.458 68.653,19.657 68.77,19.777 C68.887,19.896 69.041,19.956 69.231,19.956 C69.333,19.956 69.421,19.95 69.496,19.939 C69.571,19.928 69.658,19.909 69.755,19.883 L69.914,21.281 C69.5397416,21.4154913 69.1446796,21.4828583 68.747,21.48 C68.08,21.48 67.567,21.297 67.206,20.93 C66.846,20.563 66.666,19.982 66.666,19.187 L66.666,15.527 L65.618,15.527 L65.618,14.168 L66.666,14.168 L66.666,12.412 L68.595,12.412 L68.596,12.412 Z M74.88,19.352 C74.88,19.14 74.777,18.958 74.572,18.805 C74.366,18.653 73.985,18.519 73.428,18.405 C72.588,18.236 71.951,17.982 71.516,17.642 C71.08,17.302 70.863,16.84 70.863,16.257 C70.863,15.642 71.123,15.119 71.645,14.685 C72.166,14.252 72.86,14.035 73.727,14.035 C74.632,14.035 75.358,14.252 75.904,14.685 C76.45,15.119 76.712,15.658 76.69,16.303 L76.676,16.343 L74.807,16.343 C74.8169211,16.0800669 74.7160688,15.8250338 74.529,15.64 C74.343,15.459 74.076,15.368 73.727,15.368 C73.417,15.368 73.172,15.446 72.991,15.6 C72.8176329,15.7381655 72.7173498,15.9483175 72.719,16.17 C72.719,16.391 72.813,16.571 73.001,16.71 C73.188,16.85 73.57,16.975 74.144,17.085 C75.024,17.262 75.679,17.522 76.11,17.865 C76.54,18.207 76.756,18.678 76.756,19.279 C76.756,19.925 76.48,20.453 75.927,20.864 C75.375,21.274 74.646,21.48 73.74,21.48 C72.785,21.48 72.03,21.238 71.476,20.754 C70.921,20.27 70.657,19.719 70.684,19.1 L70.697,19.06 L72.467,19.06 C72.48,19.445 72.607,19.724 72.845,19.896 C73.084,20.068 73.395,20.154 73.78,20.154 C74.138,20.154 74.41,20.083 74.598,19.939 C74.7829723,19.8017462 74.8884548,19.5821779 74.88,19.352 Z M80.037,21.341 L78.102,21.341 L78.102,14.168 L80.037,14.168 L80.037,21.341 Z M80.037,12.451 L78.102,12.451 L78.102,11.001 L80.037,11.001 L80.037,12.453 L80.037,12.451 Z M81.33,17.814 C81.33,16.683 81.574,15.77 82.063,15.077 C82.551,14.383 83.239,14.036 84.127,14.036 C84.485,14.036 84.808,14.113 85.095,14.268 C85.383,14.423 85.635,14.643 85.851,14.931 L85.851,11 L87.793,11 L87.793,21.341 L86.143,21.341 L85.977,20.459 C85.7724697,20.7713074 85.4978473,21.0315481 85.175,21.219 C84.8505084,21.3970397 84.4850589,21.4870231 84.115,21.48 C83.235,21.48 82.551,21.158 82.063,20.512 C81.574,19.867 81.33,19.014 81.33,17.954 L81.33,17.814 Z M83.259,17.954 C83.259,18.581 83.365,19.075 83.577,19.435 C83.789,19.795 84.134,19.975 84.611,19.975 C84.89,19.975 85.133,19.919 85.341,19.806 C85.548,19.694 85.718,19.529 85.851,19.313 L85.851,16.257 C85.7284014,16.0419446 85.5541536,15.8608231 85.344,15.73 C85.1265796,15.6003691 84.8770728,15.5345271 84.624,15.54 C84.152,15.54 83.806,15.75 83.587,16.17 C83.368,16.59 83.259,17.138 83.259,17.814 L83.259,17.954 Z M92.4,21.48 C91.331,21.48 90.496,21.152 89.895,20.496 C89.294,19.84 88.993,18.994 88.993,17.96 L88.993,17.695 C88.993,16.621 89.285,15.742 89.868,15.057 C90.452,14.371 91.255,14.031 92.275,14.036 C93.239,14.036 93.978,14.331 94.493,14.921 C95.008,15.511 95.265,16.305 95.265,17.304 L95.265,18.304 L90.989,18.304 L90.969,18.344 C91.001,18.835 91.149,19.233 91.417,19.538 C91.684,19.843 92.081,19.995 92.607,19.995 C93.04,19.995 93.408,19.951 93.711,19.863 C94.013,19.774 94.326,19.64 94.649,19.458 L95.172,20.652 C94.885,20.886 94.496,21.082 94.006,21.242 C93.516,21.401 92.98,21.48 92.401,21.48 L92.4,21.48 Z M92.275,15.527 C91.887,15.527 91.587,15.661 91.377,15.928 C91.167,16.196 91.04,16.55 90.997,16.992 L91.009,17.026 L93.369,17.026 L93.369,16.88 C93.369,16.46 93.283,16.13 93.111,15.889 C92.938,15.648 92.66,15.527 92.275,15.527 Z" id="Shape" fill="#020202" fill-rule="nonzero"></path>
        </g>
    </g>
</svg>