<svg width="300" height="199" viewBox="0 0 300 199" xmlns="http://www.w3.org/2000/svg"><title>indonesian high close</title><g fill="none" fill-rule="evenodd"><path fill="#F1F2F2" fill-rule="nonzero" d="M0 0h300v199H0z"/><path d="M39.125 55.375V74.75H75.25V55.375H39.125zm0-1H75.25V34h1v20.375h36.125V34h1v20.375H149.5V34h1v20.375h36.125V34h1v20.375h36.125V34h1v20.375h36.125V34h1v20.375H299.5v1h-37.625V74.75H299.5v1h-37.625v19.375H299.5v1h-37.625V115.5H299.5v1h-37.625v19.375H299.5v1h-37.625v19.375H299.5v1h-37.625v19.375H299.5v1h-37.625V199h-1v-21.375H224.75V199h-1v-21.375h-36.125V199h-1v-21.375H150.5V199h-1v-21.375h-36.125V199h-1v-21.375H76.25V199h-1v-21.375H39.125V199h-1v-21.375H1.5v-1h36.625V157.25H1.5v-1h36.625v-19.375H1.5v-1h36.625V116.5H1.5v-1h36.625V96.125H1.5v-1h36.625V75.75H1.5v-1h36.625V55.375H1.5v-1h36.625V34h1v20.375zm221.75 1H224.75V74.75h36.125V55.375zm-37.125 0h-36.125V74.75h36.125V55.375zm-37.125 0H150.5V74.75h36.125V55.375zm-37.125 0h-36.125V74.75H149.5V55.375zm-37.125 0H76.25V74.75h36.125V55.375zM39.125 75.75v19.375H75.25V75.75H39.125zm221.75 0H224.75v19.375h36.125V75.75zm-37.125 0h-36.125v19.375h36.125V75.75zm-37.125 0H150.5v19.375h36.125V75.75zm-37.125 0h-36.125v19.375H149.5V75.75zm-37.125 0H76.25v19.375h36.125V75.75zm-73.25 20.375V115.5H75.25V96.125H39.125zm221.75 0H224.75V115.5h36.125V96.125zm-37.125 0h-36.125V115.5h36.125V96.125zm-37.125 0H150.5V115.5h36.125V96.125zm-37.125 0h-36.125V115.5H149.5V96.125zm-37.125 0H76.25V115.5h36.125V96.125zM39.125 116.5v19.375H75.25V116.5H39.125zm221.75 0H224.75v19.375h36.125V116.5zm-37.125 0h-36.125v19.375h36.125V116.5zm-37.125 0H150.5v19.375h36.125V116.5zm-37.125 0h-36.125v19.375H149.5V116.5zm-37.125 0H76.25v19.375h36.125V116.5zm-73.25 20.375v19.375H75.25v-19.375H39.125zm221.75 0H224.75v19.375h36.125v-19.375zm-37.125 0h-36.125v19.375h36.125v-19.375zm-37.125 0H150.5v19.375h36.125v-19.375zm-37.125 0h-36.125v19.375H149.5v-19.375zm-37.125 0H76.25v19.375h36.125v-19.375zm-73.25 20.375v19.375H75.25V157.25H39.125zm221.75 0H224.75v19.375h36.125V157.25zm-37.125 0h-36.125v19.375h36.125V157.25zm-37.125 0H150.5v19.375h36.125V157.25zm-37.125 0h-36.125v19.375H149.5V157.25zm-37.125 0H76.25v19.375h36.125V157.25z" fill="#DFDEDE" fill-rule="nonzero"/><path stroke="#C2C2C2" stroke-width="2" d="M1 1h298v197H1z"/><path fill="#C2C2C2" fill-rule="nonzero" d="M0 33h300v2H0z"/><g transform="translate(4 34.406)"><path d="M.9 30.163h290.625" stroke="#15212D" stroke-width="1.133" fill="#D8D8D8" fill-rule="nonzero" stroke-dasharray="7.5"/><path d="M237.863.725V161" stroke="#2A3052" stroke-width="1.211" stroke-linejoin="round"/><path d="M.9 122.75h290.625" stroke="#15212D" stroke-width="1.133" fill="#D8D8D8" fill-rule="nonzero" stroke-dasharray="7.5"/><path stroke="#2A3052" stroke-width="3.633" stroke-linecap="round" stroke-linejoin="round" d="M17.25 82.063L53.115 66l26.494 21.96 43.594-57.247 31.74 113.025 18.105-68.974 27.446-22.991 37.5 71.542"/><ellipse cx="8.137" cy="9.35" rx="8.137" ry="8.475" opacity=".6" transform="translate(229.5 113.25)" fill="#FFF" fill-rule="nonzero"/><ellipse stroke="#E88024" stroke-width="2.422" cx="237.637" cy="122.6" rx="8.137" ry="8.475"/><ellipse cx="9.012" cy="8.475" rx="8.137" ry="8.475" opacity=".6" transform="translate(114.25 22.25)" fill="#FFF" fill-rule="nonzero"/><ellipse stroke="#E88024" stroke-width="2.422" cx="123.263" cy="30.725" rx="8.137" ry="8.475"/></g><g fill="#2A3052" fill-rule="nonzero"><path d="M31.058 131.837c-.027-.134-.027-.241-.027-.376-.188.269-.43.484-.725.672a1.753 1.753 0 0 1-.967.268c-.564 0-.994-.134-1.29-.456a1.638 1.638 0 0 1-.456-1.209c0-.537.215-.94.645-1.235.43-.296.993-.457 1.718-.457h1.075v-.537c0-.322-.108-.59-.296-.779-.188-.188-.483-.295-.832-.295-.323 0-.591.08-.78.241a.792.792 0 0 0-.295.591h-.94v-.027c-.026-.402.162-.778.564-1.1.403-.323.914-.511 1.531-.511.618 0 1.128.161 1.504.483.376.323.564.78.564 1.37v2.659c0 .188 0 .376.027.564.027.188.054.376.108.537h-1.048v.054a15.324 15.324 0 0 0-.08-.457zm-1.626-.322c.349 0 .698-.08.967-.269.295-.188.483-.402.564-.644v-.886h-1.101c-.403 0-.726.107-.967.295a.901.901 0 0 0-.35.725c0 .242.081.43.215.591.162.107.376.188.672.188zM22.46 126.662h.99v5.61h-.99v-.833c-.315.407-.834 1.06-1.875.95-1.04-.11-1.684-.926-1.69-1.826-.004-.9.006-4.206 0-3.901h.984v2.125c0 2.486.547 2.761 1.294 2.761.748 0 1.114-.631 1.286-.842-.008-1.181-.008-2.53 0-4.044zM16.235 132.337h1v-7.568h-1.242l-2.451 6.2-2.427-6.2H9.77v7.568h.996l.048-5.884 2.348 5.884h.758l2.315-5.716zM25.033 124.243h1.023v8.087h-1.023zM33.576 126.743h1.007v5.544h-1.007zM33.59 124.225v1h1.026v-1z"/></g><path d="M120.89 49.425H119.5v-3.557h-3.728v3.557h-1.392v-8.339h1.392v3.666h3.728v-3.666h1.391v8.339zm3.093 0h-1.392v-6.197h1.392v6.197zm0-7.714h-1.392v-1.22h1.392v1.22zm1.34 4.701c0-.989.212-1.786.636-2.39.423-.606 1.019-.908 1.786-.908.37 0 .696.079.977.237.28.159.518.387.713.685l.137-.808h1.157v6.197c0 .798-.246 1.414-.739 1.85-.492.435-1.19.652-2.096.652-.301 0-.627-.043-.976-.129-.35-.086-.665-.2-.948-.34l.223-1.094c.237.118.502.21.794.278.292.066.59.1.896.1.504 0 .872-.108 1.105-.324.233-.215.35-.547.35-.993v-.636a1.947 1.947 0 0 1-.69.564c-.266.128-.57.192-.914.192-.76 0-1.352-.277-1.775-.83-.424-.554-.636-1.281-.636-2.182v-.12zm1.386.12c0 .573.11 1.03.332 1.37.221.34.57.509 1.048.509.298 0 .549-.062.753-.186.204-.124.37-.303.495-.536v-2.714a1.487 1.487 0 0 0-.5-.53 1.359 1.359 0 0 0-.737-.192c-.477 0-.828.2-1.053.599-.226.399-.338.919-.338 1.56v.12zm6.85-2.502c.205-.29.456-.515.752-.676.296-.16.623-.24.982-.24.657 0 1.17.207 1.538.621.368.414.553 1.053.553 1.916v3.774h-1.392v-3.786c0-.485-.094-.837-.283-1.056-.19-.22-.471-.33-.845-.33-.298 0-.556.053-.773.158a1.408 1.408 0 0 0-.533.438v4.576h-1.391V40.49h1.391v3.539zM255.45 174.875l.012.036c.016.867-.266 1.567-.846 2.101-.579.534-1.361.801-2.347.801-1 0-1.813-.337-2.435-1.013-.623-.676-.935-1.54-.935-2.593v-1.638c0-1.048.308-1.912.923-2.592.615-.68 1.417-1.02 2.406-1.02 1.013 0 1.81.258 2.391.775.582.516.865 1.223.849 2.122l-.012.035h-1.39c0-.575-.155-1.015-.466-1.32-.312-.306-.769-.46-1.372-.46-.583 0-1.045.232-1.386.696-.341.463-.512 1.047-.512 1.753v1.649c0 .713.174 1.302.52 1.765.347.463.82.695 1.42.695.587 0 1.033-.154 1.338-.462.306-.307.459-.75.459-1.33h1.383zm2.779 2.814h-1.437v-9.223h1.437v9.223zm1.342-3.257c0-.954.261-1.736.783-2.344.523-.61 1.237-.914 2.143-.914.919 0 1.64.305 2.161.914.523.608.784 1.39.784 2.344v.124c0 .962-.261 1.745-.784 2.35-.522.605-1.238.907-2.149.907-.914 0-1.632-.303-2.155-.91-.522-.607-.783-1.39-.783-2.347v-.124zm1.437.124c0 .627.122 1.135.366 1.525.245.39.623.586 1.135.586.5 0 .876-.197 1.127-.589.25-.392.375-.9.375-1.522v-.124c0-.611-.125-1.115-.375-1.51-.25-.397-.63-.595-1.139-.595-.5 0-.874.198-1.12.594-.246.396-.37.9-.37 1.51v.125zm9.282 1.383a.662.662 0 0 0-.281-.547c-.187-.143-.541-.273-1.061-.387-.753-.154-1.329-.38-1.727-.68a1.432 1.432 0 0 1-.597-1.206c0-.536.227-.994.68-1.374.453-.38 1.05-.57 1.791-.57.765 0 1.38.195 1.848.587.467.393.69.865.671 1.416l-.012.036h-1.377a.896.896 0 0 0-.308-.677c-.205-.191-.479-.287-.822-.287-.346 0-.61.079-.792.237a.74.74 0 0 0-.272.579c0 .217.085.39.254.52.17.13.519.247 1.047.35.784.157 1.375.388 1.774.694.398.305.597.714.597 1.227 0 .575-.238 1.045-.713 1.41-.475.364-1.1.546-1.877.546-.831 0-1.488-.212-1.969-.638-.48-.426-.709-.914-.685-1.466l.011-.036h1.337c.015.37.15.64.402.81.252.17.56.254.922.254.366 0 .651-.072.854-.218a.68.68 0 0 0 .305-.58zm5.415 1.874c-.934 0-1.664-.294-2.19-.883-.526-.59-.79-1.353-.79-2.291v-.237c0-.938.264-1.711.79-2.32.526-.61 1.205-.912 2.037-.908.859 0 1.51.265 1.95.795.442.53.663 1.239.663 2.126v.774h-3.956l-.011.03c.015.524.153.95.414 1.277.26.327.652.49 1.176.49.39 0 .728-.047 1.014-.141.286-.095.55-.231.795-.408l.467.94c-.244.213-.567.392-.97.538-.401.146-.865.218-1.389.218zm-.153-5.486c-.375 0-.674.135-.9.405-.224.27-.364.622-.419 1.055l.012.03h2.5v-.112c0-.41-.095-.742-.286-.997-.191-.254-.494-.381-.907-.381z" fill="#2A3052" fill-rule="nonzero"/><path d="M22.684 21.696h-1.847v-3.84h-3.77v3.84h-1.854v-9.242h1.854v3.974h3.77v-3.974h1.847v9.242zm3.53 0H24.36v-6.868h1.854v6.868zm0-8.512H24.36v-1.39h1.854v1.39zm1.238 5.135c0-1.083.235-1.957.707-2.621.472-.665 1.133-.997 1.984-.997.385 0 .724.087 1.016.26.292.174.541.421.749.743l.146-.876h1.6v6.836c0 .893-.294 1.584-.88 2.073-.586.489-1.402.733-2.447.733-.347 0-.715-.048-1.104-.143a5.129 5.129 0 0 1-1.08-.39l.343-1.384c.284.135.573.238.867.308.294.07.614.105.961.105.508 0 .882-.106 1.12-.318.24-.211.36-.541.36-.99v-.622a2.074 2.074 0 0 1-.718.59c-.275.136-.59.203-.946.203-.842 0-1.499-.31-1.97-.93-.473-.62-.708-1.435-.708-2.447v-.133zm1.853.133c0 .601.102 1.074.305 1.42.203.344.533.516.99.516.284 0 .524-.051.72-.155.197-.104.355-.255.473-.454v-2.983a1.279 1.279 0 0 0-.473-.483 1.386 1.386 0 0 0-.707-.171c-.453 0-.784.2-.994.603-.21.402-.314.927-.314 1.574v.133zm7.58-2.754a2.36 2.36 0 0 1 .793-.734c.313-.175.66-.263 1.04-.263.716 0 1.278.238 1.686.714.408.476.613 1.211.613 2.206v4.075h-1.854v-4.088c0-.533-.094-.91-.282-1.133-.189-.222-.47-.333-.842-.333-.253 0-.478.045-.672.136a1.285 1.285 0 0 0-.483.384v5.034h-1.853v-9.902h1.853v3.904zm9.114 2.76h-3.58v-1.427H46v1.428zm8.627.096l.013.038c.017.995-.287 1.783-.911 2.365-.625.581-1.491.872-2.6.872-1.113 0-2.016-.357-2.71-1.072-.694-.716-1.041-1.636-1.041-2.762v-1.834c0-1.121.338-2.042 1.015-2.761.678-.72 1.558-1.08 2.641-1.08 1.143 0 2.036.294 2.679.88.643.586.956 1.385.94 2.396l-.013.038h-1.803c0-.61-.146-1.076-.438-1.4-.292-.323-.747-.485-1.365-.485-.554 0-.994.225-1.32.676-.326.45-.489 1.025-.489 1.723v1.847c0 .707.171 1.286.514 1.736.343.451.806.677 1.39.677.58 0 1.009-.156 1.286-.467.277-.311.415-.773.415-1.387h1.797zm3.13 3.142h-1.854v-9.902h1.853v9.902zm1.237-3.497c0-1.025.286-1.863.857-2.517.571-.654 1.363-.981 2.374-.981 1.016 0 1.811.326 2.387.978.575.651.863 1.491.863 2.52v.133c0 1.032-.287 1.873-.86 2.523-.573.65-1.366.974-2.377.974-1.016 0-1.81-.324-2.384-.974-.573-.65-.86-1.49-.86-2.523v-.133zm1.847.133c0 .626.11 1.129.33 1.507.22.38.576.569 1.067.569.478 0 .828-.19 1.05-.572.222-.38.334-.882.334-1.504v-.133c0-.61-.113-1.107-.337-1.492-.224-.385-.578-.578-1.06-.578-.478 0-.828.194-1.05.581-.223.387-.334.883-.334 1.489v.133zm9.49 1.472c0-.203-.098-.378-.295-.526-.197-.148-.562-.28-1.095-.394-.813-.165-1.425-.41-1.838-.733-.412-.324-.619-.765-.619-1.324 0-.592.249-1.095.746-1.507.497-.413 1.163-.619 1.996-.619.876 0 1.574.205 2.092.616.518.41.767.929.746 1.555l-.013.038h-1.79c0-.275-.088-.5-.263-.673-.176-.173-.433-.26-.772-.26-.3 0-.536.073-.707.219a.692.692 0 0 0-.257.549c0 .212.09.385.27.52.18.136.544.256 1.094.362.847.17 1.475.418 1.886.746.41.328.615.78.615 1.355 0 .618-.264 1.123-.793 1.514-.53.392-1.227.587-2.095.587-.914 0-1.636-.231-2.168-.695-.53-.463-.783-.991-.758-1.583l.013-.038h1.694c.013.368.134.634.362.8.229.164.527.247.895.247.343 0 .604-.068.784-.203.18-.136.27-.32.27-.553zm6.03 2.025c-.99 0-1.781-.317-2.374-.952-.592-.635-.888-1.44-.888-2.418v-.254c0-1.02.28-1.86.84-2.52.561-.66 1.314-.988 2.257-.984.927 0 1.646.28 2.158.838.512.558.768 1.314.768 2.266v1.01h-4.1l-.013.037c.034.453.185.826.454 1.118.269.292.634.438 1.095.438.41 0 .751-.042 1.022-.124.27-.083.567-.213.889-.39l.501 1.142c-.28.228-.645.418-1.098.568-.453.15-.956.225-1.51.225zm-.165-5.7a.965.965 0 0 0-.812.394c-.2.262-.322.607-.368 1.034l.019.032h2.272v-.165c0-.393-.092-.708-.276-.943-.184-.234-.462-.352-.835-.352z" fill="#000"/></g></svg>