<svg width="300" height="199" viewBox="0 0 300 199" xmlns="http://www.w3.org/2000/svg"><title>Group 2</title><g fill="none" fill-rule="evenodd"><path fill="#F1F2F2" fill-rule="nonzero" d="M0 0h300v199H0z"/><path d="M39.125 55.375V74.75H75.25V55.375H39.125zm0-1H75.25V34h1v20.375h36.125V34h1v20.375H149.5V34h1v20.375h36.125V34h1v20.375h36.125V34h1v20.375h36.125V34h1v20.375H299.5v1h-37.625V74.75H299.5v1h-37.625v19.375H299.5v1h-37.625V115.5H299.5v1h-37.625v19.375H299.5v1h-37.625v19.375H299.5v1h-37.625v19.375H299.5v1h-37.625V199h-1v-21.375H224.75V199h-1v-21.375h-36.125V199h-1v-21.375H150.5V199h-1v-21.375h-36.125V199h-1v-21.375H76.25V199h-1v-21.375H39.125V199h-1v-21.375H1.5v-1h36.625V157.25H1.5v-1h36.625v-19.375H1.5v-1h36.625V116.5H1.5v-1h36.625V96.125H1.5v-1h36.625V75.75H1.5v-1h36.625V55.375H1.5v-1h36.625V34h1v20.375zm221.75 1H224.75V74.75h36.125V55.375zm-37.125 0h-36.125V74.75h36.125V55.375zm-37.125 0H150.5V74.75h36.125V55.375zm-37.125 0h-36.125V74.75H149.5V55.375zm-37.125 0H76.25V74.75h36.125V55.375zM39.125 75.75v19.375H75.25V75.75H39.125zm221.75 0H224.75v19.375h36.125V75.75zm-37.125 0h-36.125v19.375h36.125V75.75zm-37.125 0H150.5v19.375h36.125V75.75zm-37.125 0h-36.125v19.375H149.5V75.75zm-37.125 0H76.25v19.375h36.125V75.75zm-73.25 20.375V115.5H75.25V96.125H39.125zm221.75 0H224.75V115.5h36.125V96.125zm-37.125 0h-36.125V115.5h36.125V96.125zm-37.125 0H150.5V115.5h36.125V96.125zm-37.125 0h-36.125V115.5H149.5V96.125zm-37.125 0H76.25V115.5h36.125V96.125zM39.125 116.5v19.375H75.25V116.5H39.125zm221.75 0H224.75v19.375h36.125V116.5zm-37.125 0h-36.125v19.375h36.125V116.5zm-37.125 0H150.5v19.375h36.125V116.5zm-37.125 0h-36.125v19.375H149.5V116.5zm-37.125 0H76.25v19.375h36.125V116.5zm-73.25 20.375v19.375H75.25v-19.375H39.125zm221.75 0H224.75v19.375h36.125v-19.375zm-37.125 0h-36.125v19.375h36.125v-19.375zm-37.125 0H150.5v19.375h36.125v-19.375zm-37.125 0h-36.125v19.375H149.5v-19.375zm-37.125 0H76.25v19.375h36.125v-19.375zm-73.25 20.375v19.375H75.25V157.25H39.125zm221.75 0H224.75v19.375h36.125V157.25zm-37.125 0h-36.125v19.375h36.125V157.25zm-37.125 0H150.5v19.375h36.125V157.25zm-37.125 0h-36.125v19.375H149.5V157.25zm-37.125 0H76.25v19.375h36.125V157.25z" fill="#DFDEDE" fill-rule="nonzero"/><path stroke="#C2C2C2" stroke-width="2" d="M1 1h298v197H1z"/><path fill="#C2C2C2" fill-rule="nonzero" d="M0 33h300v2H0z"/><g transform="translate(4 61.878)"><path d="M.9 56.063h290.625" stroke="#2A3052" stroke-width="1.211" stroke-linejoin="round"/><path stroke="#2A3052" stroke-width="3.633" stroke-linecap="round" stroke-linejoin="round" d="M36 9.037l36.3 63.6 36.9-45.187 43.95 51.337 34.012-43.05 42 64.35 27.45-3.337"/><path d="M184.613 87H149.55l-5.4-8.213-5.4 8.213h-35.063c-2.624 0-4.724 2.138-4.724 4.8v24.788c0 2.662 2.137 4.8 4.725 4.8h80.962c2.625 0 4.725-2.138 4.725-4.8V91.8c0-2.662-2.137-4.8-4.762-4.8z" fill="#E88024" fill-rule="nonzero"/><path d="M246.037 64.875h-2.55L241.95 72.6h-1.125l1.538-7.725h-2.513l.188-.938h6.187l-.188.938zm2.438 7.763v-.488c0-.113.037-.263.037-.375-.262.3-.562.525-.9.712a2.1 2.1 0 0 1-1.012.3c-.563 0-1.012-.187-1.275-.525-.262-.337-.337-.825-.225-1.424.113-.638.45-1.163.938-1.463.524-.338 1.162-.487 1.95-.487h1.087l.113-.638c.075-.412.037-.713-.113-.9-.15-.188-.45-.3-.825-.3-.338 0-.637.112-.9.3a1.214 1.214 0 0 0-.487.675h-1.088v-.038c.075-.487.375-.937.862-1.312.525-.375 1.125-.563 1.838-.563.638 0 1.125.188 1.5.563.375.375.488.9.338 1.575l-.6 3.112-.113.675a1.82 1.82 0 0 0 0 .638h-1.125v-.037zm-1.5-.863c.3 0 .638-.075.975-.263.338-.187.6-.412.75-.674l.225-1.2H247.8c-.375 0-.75.112-1.05.374-.3.263-.488.525-.563.826-.075.3-.037.525.075.712.113.188.375.225.713.225zm8.063-4.538l-.638-.037c-.255 0-.504.078-.713.225a1.575 1.575 0 0 0-.562.638l-.9 4.575H251.1l1.275-6.45h1.012l-.075.862a2.25 2.25 0 0 1 .75-.712c.263-.15.563-.263.9-.263.076 0 .15 0 .263.037.113.038.15.038.188.038l-.376 1.087zm.337 2.175c.225-1.087.563-1.95 1.05-2.512.488-.563 1.087-.825 1.837-.825.338 0 .675.075.938.225.262.15.488.375.675.675l.262-.787h.976l-1.238 6.337c-.188.9-.525 1.575-1.05 2.025-.525.45-1.238.675-2.063.675-.306 0-.61-.051-.9-.15a2.378 2.378 0 0 1-.825-.338l.45-.9c.15.113.376.225.638.3.262.076.525.113.788.113.487 0 .862-.15 1.162-.45.328-.342.55-.772.637-1.237l.076-.45a2.201 2.201 0 0 1-1.613.637c-.675 0-1.2-.3-1.538-.938a3.296 3.296 0 0 1-.262-2.287v-.113zm1.125.113c-.15.675-.113 1.237.075 1.65.188.413.563.638 1.088.638.262 0 .524-.076.75-.225.224-.15.45-.375.637-.675l.6-3a1.616 1.616 0 0 0-.487-.638 1.305 1.305 0 0 0-.788-.225c-.488 0-.863.225-1.163.638-.3.45-.562 1.012-.674 1.724l-.038.113zm7.462 3.225c-.787 0-1.387-.3-1.8-.9-.412-.6-.524-1.387-.374-2.325l.037-.263c.15-.937.525-1.725 1.125-2.325.6-.6 1.238-.9 1.913-.9.787 0 1.35.263 1.687.788.337.525.45 1.237.3 2.1l-.113.75h-3.862c-.075.638-.038 1.163.188 1.575.225.375.562.563 1.05.563a2.816 2.816 0 0 0 1.762-.638l.337.75c-.224.225-.562.413-.9.563-.412.187-.862.262-1.35.262zm.713-5.737c-.338 0-.637.15-.938.487-.3.338-.525.75-.675 1.237v.038h2.625l.038-.15c.075-.487.037-.862-.15-1.162-.188-.3-.45-.45-.9-.45zm5.813-2.363l-.3 1.537h1.087l-.188.863H270l-.788 3.9c-.075.3-.075.525.038.638.075.112.225.15.413.15.075 0 .187 0 .337-.038a.706.706 0 0 0 .3-.075v.787c-.113.075-.262.113-.488.188-.225.038-.412.075-.637.075-.413 0-.713-.15-.938-.45-.225-.3-.262-.75-.15-1.35l.788-3.9h-.938l.188-.862h.938l.3-1.538h1.125v.075z" fill="#6D6E71" fill-rule="nonzero"/><ellipse cx="8.363" cy="8.5" rx="8.137" ry="8.475" opacity=".6" transform="translate(248.25 88.25)" fill="#FFF" fill-rule="nonzero"/><ellipse stroke="#E88024" stroke-width="2.422" cx="256.613" cy="96.75" rx="8.137" ry="8.475"/><ellipse cx="9" cy="9.037" rx="8.137" ry="8.475" opacity=".6" transform="translate(27)" fill="#FFF" fill-rule="nonzero"/><ellipse stroke="#E88024" stroke-width="2.422" cx="36" cy="9.037" rx="8.137" ry="8.475"/></g><g fill="#2A3052" fill-rule="nonzero"><path d="M46.89 54.468c-.031-.157-.031-.283-.031-.44-.22.314-.504.566-.85.787-.347.22-.725.315-1.134.315-.662 0-1.166-.158-1.512-.536a1.921 1.921 0 0 1-.536-1.417c0-.63.252-1.102.756-1.449.504-.346 1.166-.535 2.016-.535h1.26v-.63c0-.378-.126-.693-.346-.914-.221-.22-.567-.346-.977-.346-.378 0-.693.094-.913.283-.22.19-.347.441-.347.693h-1.102v-.031c-.032-.473.189-.914.661-1.292.473-.378 1.071-.598 1.796-.598.724 0 1.323.189 1.764.567.44.378.661.913.661 1.606v3.118c0 .221 0 .441.031.662.032.22.063.44.126.63h-1.228v.063c-.031-.19-.063-.378-.094-.536zm-1.906-.378c.41 0 .819-.094 1.134-.315.346-.22.567-.472.661-.756V51.98h-1.291c-.473 0-.85.126-1.134.347-.284.22-.41.535-.41.85 0 .283.095.504.252.693.19.126.441.22.788.22zM36.806 48.399h1.162v6.579h-1.162v-.976c-.369.476-.977 1.243-2.198 1.113-1.22-.129-1.976-1.086-1.981-2.141-.006-1.056.005-4.933 0-4.575h1.153v2.492c0 2.916.64 3.239 1.518 3.239.876 0 1.306-.741 1.508-.988-.01-1.385-.01-2.967 0-4.743zM29.506 55.054h1.174v-8.875h-1.457l-2.876 7.27-2.846-7.27h-1.578v8.875h1.17l.055-6.901 2.754 6.901h.889l2.715-6.704zM39.824 45.561h1.2v9.485h-1.2zM49.844 48.494h1.181v6.501h-1.18zM49.86 45.54v1.173h1.203v-1.172z"/></g><path d="M24.614 22.174h4.749v1.631h-6.875V13.201h2.126v8.973zm5.674-2.382c0-1.175.327-2.137.983-2.887.655-.75 1.563-1.126 2.724-1.126 1.165 0 2.078.374 2.738 1.122.66.748.99 1.711.99 2.891v.153c0 1.185-.328 2.15-.986 2.895-.658.745-1.567 1.118-2.728 1.118-1.165 0-2.077-.373-2.734-1.118-.658-.745-.987-1.71-.987-2.895v-.153zm2.12.153c0 .719.125 1.295.378 1.73.252.434.66.652 1.223.652.549 0 .95-.219 1.206-.656.255-.437.382-1.012.382-1.726v-.153c0-.699-.129-1.27-.386-1.711-.257-.442-.663-.663-1.216-.663-.549 0-.95.222-1.206.666-.254.445-.382 1.014-.382 1.708v.153zm13.48.932h.044l.954-4.952h2.068l-2.003 7.88h-1.777l-1.464-4.544h-.043l-1.464 4.544h-1.77l-2.003-7.88H40.5l.968 4.93h.044l1.471-4.93h1.42l1.486 4.952zm7.538 3.081c-1.175 0-2.093-.36-2.753-1.081-.66-.721-.99-1.65-.99-2.786V19.8c0-1.18.32-2.147.96-2.9.642-.752 1.523-1.126 2.644-1.12 1.059 0 1.87.323 2.437.972.565.648.848 1.52.848 2.618v1.1h-4.697l-.022.043c.034.54.198.976.491 1.311.294.335.73.503 1.308.503.475 0 .88-.049 1.212-.146a4.948 4.948 0 0 0 1.03-.444l.576 1.31c-.316.258-.743.474-1.282.649a5.684 5.684 0 0 1-1.762.262zm-.139-6.54c-.427 0-.756.147-.986.44-.231.294-.37.684-.42 1.17l.015.036h2.593v-.16c0-.462-.095-.824-.284-1.09-.19-.264-.495-.396-.918-.396zm8.667.335l-.78-.022c-.315 0-.574.066-.778.197-.204.13-.36.315-.466.553v5.324h-2.12v-7.88h1.974l.095 1.165c.184-.412.423-.734.717-.965a1.6 1.6 0 0 1 1.016-.346c.107 0 .205.009.295.026s.18.037.273.062l-.226 1.886z" fill="#020202" fill-rule="nonzero"/><g fill="#FFF" fill-rule="nonzero"><path d="M174.504 168.697h-2.491v-8.244h2.491zM174.504 173.034h-2.491v-2.215h2.491z"/><g><path d="M145.387 162.559c2.886 0 4.452 1.76 4.848 4.395.395 2.637-1.028 6.36-4.645 6.36-3.617 0-4.787-2.75-4.787-5.596s1.698-5.16 4.584-5.16zm.026 1.847c-.858.08-2.378.681-2.29 3.527.09 2.846 1.333 3.515 2.29 3.515.957 0 2.57-.265 2.57-3.503 0-3.237-1.712-3.62-2.57-3.54zM140.194 162.626c-.095.895-.198 1.63-.31 2.206-1.126-.073-2.294-.18-2.805 1.136l.015 7.071h-2.316v-10.33h2.06c.099.69.16 1.192.184 1.508.712-1.33 1.77-1.86 3.172-1.59zM125.309 173.039h-2.357V159.23h6.071c1.902 0 4.505 1.585 4.22 4.73-.19 2.096-1.597 3.368-4.22 3.815h-3.714v5.264zm.01-7.096h3.117c.769 0 2.487-.533 2.487-2.512 0-1.978-1.702-2.432-2.487-2.406-.523.018-1.562.01-3.116-.026v4.944zM157.74 158.12c-.108.55-.165 1.097-.25 1.797-.358-.08-2.366-.587-2.414 1.59v1.202h1.911v1.666h-1.911l.048 8.664h-2.392v-8.664h-1.506v-1.666h1.596c-.165-2.127.265-3.524 1.29-4.19 1.537-1 3.051-.587 3.627-.4zM159.472 162.732h2.315v10.252h-2.315zM159.518 158.203v1.96h2.303v-1.96zM168.118 160.234v2.55h1.785v1.69h-1.785v6.11c0 1.235 1.563.826 1.665.775l.274 1.632c-.153.102-3.876 1.427-4.272-2.406v-6.112h-1.536v-1.69h1.536v-2.55h2.333z"/></g></g><path d="M252.235 182.71c0-.43-.154-.789-.461-1.08-.308-.29-.849-.536-1.624-.74-.962-.238-1.712-.589-2.251-1.052-.54-.464-.809-1.046-.809-1.748 0-.74.29-1.358.87-1.851.58-.494 1.334-.74 2.261-.74.996 0 1.79.282 2.381.847.591.565.878 1.225.861 1.978l-.02.04h-1.22c0-.538-.188-.982-.563-1.333-.374-.35-.854-.526-1.439-.526-.597 0-1.055.145-1.374.435-.318.29-.477.667-.477 1.13 0 .412.174.755.523 1.03.348.275.915.517 1.699.725.952.247 1.678.61 2.176 1.091.498.48.747 1.074.747 1.78 0 .762-.3 1.375-.9 1.839-.6.463-1.382.695-2.348.695-.914 0-1.72-.256-2.42-.767-.7-.51-1.039-1.195-1.017-2.053l.013-.039h1.221c0 .594.226 1.052.676 1.374.45.323.96.484 1.527.484.606 0 1.086-.136 1.439-.409.353-.273.53-.643.53-1.11zm5.827 2.52c-1.009 0-1.796-.323-2.361-.968-.565-.645-.848-1.494-.848-2.547v-.286c0-1.009.291-1.843.874-2.504.582-.66 1.294-.99 2.134-.99.94 0 1.645.292 2.115.876.47.585.704 1.362.704 2.333v.675h-4.495l-.02.033c0 .706.156 1.278.468 1.718.312.44.788.66 1.43.66a3.22 3.22 0 0 0 1.14-.186c.327-.123.607-.293.84-.51l.501.832c-.251.242-.582.447-.994.614-.411.166-.907.25-1.488.25zm-.201-6.289c-.446 0-.815.172-1.108.517-.292.344-.47.785-.536 1.322l.013.032h3.17v-.104c0-.51-.125-.933-.376-1.267-.251-.333-.639-.5-1.163-.5zm5.639 6.152h-1.28V174.96h1.28v10.134zm4.879.137c-1.01 0-1.797-.323-2.362-.968-.565-.645-.847-1.494-.847-2.547v-.286c0-1.009.29-1.843.873-2.504.583-.66 1.294-.99 2.134-.99.94 0 1.645.292 2.115.876.47.585.705 1.362.705 2.333v.675H266.5l-.02.033c0 .706.157 1.278.469 1.718.311.44.788.66 1.429.66a3.22 3.22 0 0 0 1.14-.186c.327-.123.607-.293.841-.51l.5.832c-.25.242-.582.447-.994.614-.411.166-.907.25-1.487.25zm-.202-6.289c-.446 0-.815.172-1.107.517-.293.344-.471.785-.536 1.322l.013.032h3.17v-.104c0-.51-.126-.933-.377-1.267-.251-.333-.639-.5-1.163-.5zm8.342 4.262a.853.853 0 0 0-.322-.689c-.214-.177-.62-.333-1.218-.467-.827-.178-1.463-.427-1.907-.748-.444-.32-.665-.749-.665-1.286 0-.572.243-1.06.73-1.468.488-.407 1.119-.61 1.894-.61.797 0 1.442.216 1.936.649.494.433.73.938.708 1.514l-.013.039h-1.221c0-.304-.133-.579-.4-.825-.266-.247-.603-.37-1.01-.37-.45 0-.787.101-1.01.305a.953.953 0 0 0-.335.727c0 .277.097.492.29.643.192.152.59.29 1.192.416.861.182 1.515.44 1.961.773.447.334.67.769.67 1.306 0 .624-.253 1.133-.757 1.527-.505.394-1.164.59-1.978.59-.897 0-1.603-.227-2.118-.681-.516-.455-.76-.986-.734-1.592l.013-.039h1.221c.022.455.19.787.507.997.316.21.686.315 1.11.315.455 0 .812-.096 1.07-.289.257-.192.386-.438.386-.737zm7.191 1.89a10.4 10.4 0 0 1-.1-.562 4.125 4.125 0 0 1-.043-.49c-.238.338-.549.62-.932.848a2.384 2.384 0 0 1-1.237.34c-.732 0-1.29-.187-1.673-.561-.384-.375-.575-.891-.575-1.55 0-.67.272-1.196.815-1.575.544-.379 1.281-.568 2.212-.568h1.39v-.695c0-.412-.125-.738-.376-.978-.252-.24-.607-.36-1.066-.36-.416 0-.751.103-1.007.311-.255.208-.383.457-.383.747l-1.215.013-.013-.039c-.03-.51.21-.979.718-1.403.509-.424 1.166-.637 1.972-.637.797 0 1.438.203 1.923.608.485.405.727.988.727 1.75v3.385c0 .251.013.494.04.728.025.234.073.463.142.688h-1.319zm-2.124-.935c.463 0 .881-.12 1.254-.357.372-.239.615-.511.727-.819v-1.143h-1.435c-.516 0-.928.13-1.238.39-.31.26-.464.565-.464.915 0 .312.097.56.292.741.195.182.483.273.864.273zm6.503.935h-1.28v-7.029h1.28v7.03zm0-8.828h-1.28v-1.306h1.28v1.306z" fill="#2A3052"/></g></svg>