<?xml version="1.0" encoding="UTF-8"?>
<svg width="299px" height="197px" viewBox="0 0 299 197" version="1.1" xmlns="http://www.w3.org/2000/svg" xmlns:xlink="http://www.w3.org/1999/xlink">
    <!-- Generator: Sketch 52.5 (67469) - http://www.bohemiancoding.com/sketch -->
    <title>lower</title>
    <desc>Created with Sketch.</desc>
    <defs>
        <path d="M18.5463868,19.2348633 L23.2119141,19.2348633 L23.2119141,21 L16.3491211,21 L16.3491211,10.3359375 L18.5463868,10.3359375 L18.5463868,19.2348633 Z M24.0029297,16.9643555 C24.0029297,16.1782187 24.1542954,15.4775421 24.4570313,14.8623047 C24.7597672,14.2470672 25.1955538,13.7709978 25.7644043,13.434082 C26.3332548,13.0971663 26.9936486,12.9287109 27.7456055,12.9287109 C28.8149468,12.9287109 29.6877408,13.2558561 30.3640137,13.9101562 C31.0402866,14.5644564 31.4174801,15.4531194 31.4956055,16.5761719 L31.5102539,17.1181641 C31.5102539,18.3339905 31.1709019,19.3093225 30.4921875,20.0441895 C29.8134732,20.7790564 28.9028378,21.1464844 27.7602539,21.1464844 C26.6176701,21.1464844 25.705814,20.7802771 25.0246582,20.0478516 C24.3435025,19.315426 24.0029297,18.3193422 24.0029297,17.0595703 L24.0029297,16.9643555 Z M26.1196289,17.1181641 C26.1196289,17.8701209 26.2612291,18.4450664 26.5444336,18.8430176 C26.8276382,19.2409688 27.2329076,19.4399414 27.7602539,19.4399414 C28.2729518,19.4399414 28.6733384,19.2434102 28.9614258,18.8503418 C29.2495132,18.4572734 29.3935547,17.8286176 29.3935547,16.9643555 C29.3935547,16.2270471 29.2495132,15.6557637 28.9614258,15.2504883 C28.6733384,14.8452128 28.2680691,14.6425781 27.7456055,14.6425781 C27.2280248,14.6425781 26.8276382,14.8439921 26.5444336,15.2468262 C26.2612291,15.6496602 26.1196289,16.2734333 26.1196289,17.1181641 Z M39.7060547,18.121582 L40.7460938,13.0751953 L42.7895508,13.0751953 L40.7680664,21 L38.9956055,21 L37.4941407,16.012207 L35.9926758,21 L34.2275391,21 L32.2060547,13.0751953 L34.2495118,13.0751953 L35.2822266,18.1142578 L36.7324219,13.0751953 L38.2631836,13.0751953 L39.7060547,18.121582 Z M47.484375,21.1464844 C46.3222599,21.1464844 45.3762244,20.7900426 44.6462403,20.0771484 C43.9162562,19.3642542 43.5512696,18.4145567 43.5512696,17.2280273 L43.5512696,17.0229492 C43.5512696,16.2270468 43.7050766,15.515384 44.0126954,14.8879395 C44.3203141,14.2604949 44.7561007,13.7771013 45.3200684,13.4377441 C45.8840361,13.098387 46.5273402,12.9287109 47.25,12.9287109 C48.3339898,12.9287109 49.1872528,13.2705044 49.8098145,13.9541016 C50.4323762,14.6376987 50.7436524,15.6069273 50.7436524,16.8618164 L50.7436524,17.7260742 L45.6972657,17.7260742 C45.7656254,18.2436549 45.9719222,18.6586898 46.3161622,18.9711914 C46.6604022,19.283693 47.0961888,19.4399414 47.6235352,19.4399414 C48.438969,19.4399414 49.0761696,19.1445342 49.5351563,18.5537109 L50.5751954,19.7182617 C50.257811,20.1674827 49.8281278,20.517821 49.2861329,20.7692871 C48.744138,21.0207532 48.143558,21.1464844 47.484375,21.1464844 Z M47.2426758,14.6425781 C46.8227519,14.6425781 46.4821791,14.7841783 46.2209473,15.0673828 C45.9597155,15.3505874 45.7924809,15.7558567 45.7192383,16.2832031 L48.6635743,16.2832031 L48.6635743,16.1147461 C48.6538086,15.6459938 48.5268567,15.2834485 48.2827149,15.0270996 C48.038573,14.7707507 47.6918968,14.6425781 47.2426758,14.6425781 Z M56.3979493,15.0600586 C56.1098619,15.0209959 55.8559582,15.0014648 55.6362305,15.0014648 C54.8354453,15.0014648 54.3105482,15.2724582 54.0615235,15.8144531 L54.0615235,21 L51.9448243,21 L51.9448243,13.0751953 L53.944336,13.0751953 L54.0029297,14.0200195 C54.4277365,13.2924768 55.0161096,12.9287109 55.7680664,12.9287109 C56.0024426,12.9287109 56.222167,12.9604489 56.4272461,13.0239258 L56.3979493,15.0600586 Z" id="path-1"></path>
    </defs>
    <g id="Page-1" stroke="none" stroke-width="1" fill="none" fill-rule="evenodd">
        <g id="lower">
            <polygon id="Path" fill="#F1F2F2" points="0 0 299 0 299 197 0 197"></polygon>
            <path d="M1.98671096,1.9798995 L1.98671096,195.020101 L297.013289,195.020101 L297.013289,1.9798995 L1.98671096,1.9798995 Z M299,0 L299,197 L0,197 L0,0 L299,0 Z" id="Path" fill="#C2C2C2" fill-rule="nonzero"></path>
            <path d="M2.92614576,55.1129772 L2.92614576,53.8897746 L296.509938,53.8897746 L296.509938,55.1129772 L2.92614576,55.1129772 Z M2.92614576,75.7107247 L2.92614576,74.4875221 L296.509938,74.4875221 L296.509938,75.7107247 L2.92614576,75.7107247 Z M2.92614576,96.2705389 L2.92614576,95.0473363 L296.509938,95.0473363 L296.509938,96.2705389 L2.92614576,96.2705389 Z M2.92614576,137.4281 L2.92614576,136.204898 L296.509938,136.204898 L296.509938,137.4281 L2.92614576,137.4281 Z M2.92614576,157.987914 L2.92614576,156.764712 L296.509938,156.764712 L296.509938,157.987914 L2.92614576,157.987914 Z M2.92614576,178.547729 L2.92614576,177.324527 L296.509938,177.324527 L296.509938,178.547729 L2.92614576,178.547729 Z M37.7718902,33.9415617 L38.9950928,33.9415617 L38.9950928,196.068215 L37.7718902,196.068215 L37.7718902,33.9415617 Z M74.9339161,33.9415617 L76.1571187,33.9415617 L76.1571187,196.068215 L74.9339161,196.068215 L74.9339161,33.9415617 Z M112.05806,33.9415617 L113.281262,33.9415617 L113.281262,196.068215 L112.05806,196.068215 L112.05806,33.9415617 Z M149.220086,33.9415617 L150.443288,33.9415617 L150.443288,196.068215 L149.220086,196.068215 L149.220086,33.9415617 Z M186.34423,33.9415617 L187.567432,33.9415617 L187.567432,196.068215 L186.34423,196.068215 L186.34423,33.9415617 Z M223.468374,33.9415617 L224.691576,33.9415617 L224.691576,196.068215 L223.468374,196.068215 L223.468374,33.9415617 Z M260.6304,33.9415617 L261.853602,33.9415617 L261.853602,196.068215 L260.6304,196.068215 L260.6304,33.9415617 Z" id="Shape" fill="#DFDEDE" fill-rule="nonzero"></path>
            <polygon id="Path" fill="#2A3052" points="2.92614576 116.830353 2.92614576 115.60715 296.509938 115.60715 296.509938 116.830353"></polygon>
            <polygon id="Path" fill="#C2C2C2" points="0.804766102 33.9510902 0.804766102 31.504306 298.631318 31.504306 298.631318 33.9510902"></polygon>
            <path d="M112.36199,90.1384298 L76.4751351,134.144934 C75.6605692,135.143802 74.0970891,135.013686 73.4588403,133.893913 L36.7892776,69.5591439 C36.2874325,68.6786839 36.5943606,67.5581042 37.4748207,67.0562592 C38.3552807,66.5544141 39.4758604,66.8613422 39.9777054,67.7418023 L75.3221532,129.751728 L110.906644,86.1159998 C111.629933,85.2290616 112.979771,85.2133764 113.723474,86.0832681 L156.669285,136.315926 L189.644357,94.5223167 C190.421799,93.5369628 191.936866,93.6054601 192.622221,94.6569482 L234.42558,158.792666 L261.020228,155.55477 C262.026239,155.432289 262.941062,156.14853 263.063544,157.15454 C263.186025,158.160551 262.469784,159.075374 261.463774,159.197856 L233.734312,162.573915 C233.039658,162.658489 232.357376,162.340608 231.975263,161.754361 L190.942868,98.8014757 L158.166759,140.342914 C157.450402,141.250846 156.082949,141.27776 155.331422,140.398717 L112.36199,90.1384298 Z" id="Path" fill="#2A3052"></path>
            <path d="M188.508984,147.513672 L153.08952,147.513672 L147.634544,139.206293 L142.179568,147.513672 L106.760104,147.513672 C104.108379,147.513672 101.987,149.675866 101.987,152.369126 L101.987,177.442996 C101.987,180.136255 104.146261,182.29845 106.760104,182.29845 L188.546866,182.29845 C191.198591,182.29845 193.31997,180.136255 193.31997,177.442996 L193.31997,152.369126 C193.31997,149.675866 191.160709,147.513672 188.508984,147.513672 Z" id="Path" fill="#E88024"></path>
            <g id="Group" opacity="0.6" transform="translate(252.794364, 148.755007)" fill="#FFFFFF">
                <ellipse id="Oval" cx="8.44763686" cy="8.6213062" rx="8.22034619" ry="8.57291147"></ellipse>
            </g>
            <path d="M261.242001,167.172617 C256.014608,167.172617 251.798263,162.775435 251.798263,157.376313 C251.798263,151.977191 256.014608,147.580009 261.242001,147.580009 C266.469394,147.580009 270.685739,151.977191 270.685739,157.376313 C270.685739,162.775435 266.469394,167.172617 261.242001,167.172617 Z M261.242001,164.725832 C265.094551,164.725832 268.238955,161.446567 268.238955,157.376313 C268.238955,153.306059 265.094551,150.026794 261.242001,150.026794 C257.389451,150.026794 254.245047,153.306059 254.245047,157.376313 C254.245047,161.446567 257.389451,164.725832 261.242001,164.725832 Z" id="Oval" fill="#E88024" fill-rule="nonzero"></path>
            <g id="Group" opacity="0.6" transform="translate(29.291864, 59.508563)" fill="#FFFFFF">
                <ellipse id="Oval" cx="9.09162712" cy="9.14191001" rx="8.22034619" ry="8.57291147"></ellipse>
            </g>
            <path d="M38.3834915,78.4467766 C33.1560981,78.4467766 28.9397532,74.0495955 28.9397532,68.6504731 C28.9397532,63.2513507 33.1560981,58.8541696 38.3834915,58.8541696 C43.6108849,58.8541696 47.8272298,63.2513507 47.8272298,68.6504731 C47.8272298,74.0495955 43.6108849,78.4467766 38.3834915,78.4467766 Z M38.3834915,75.9999925 C42.2360418,75.9999925 45.3804456,72.7207273 45.3804456,68.6504731 C45.3804456,64.5802189 42.2360418,61.3009537 38.3834915,61.3009537 C34.5309412,61.3009537 31.3865374,64.5802189 31.3865374,68.6504731 C31.3865374,72.7207273 34.5309412,75.9999925 38.3834915,75.9999925 Z" id="Oval" fill="#E88024" fill-rule="nonzero"></path>
            <g id="Lower" fill="#000000">
                <use xlink:href="#path-1"></use>
                <use xlink:href="#path-1"></use>
            </g>
            <path d="M248.114,125.213 L245.564,125.213 L244.027,132.938 L242.902,132.938 L244.44,125.213 L241.927,125.213 L242.115,124.275 L248.302,124.275 L248.114,125.213 Z M250.552,132.976 L250.552,132.488 C250.552,132.375 250.589,132.225 250.589,132.113 C250.327,132.413 250.027,132.638 249.689,132.825 C249.38271,133.009529 249.034373,133.112791 248.677,133.125 C248.114,133.125 247.665,132.938 247.402,132.6 C247.14,132.263 247.065,131.775 247.177,131.176 C247.29,130.538 247.627,130.013 248.115,129.713 C248.639,129.375 249.277,129.226 250.065,129.226 L251.152,129.226 L251.265,128.588 C251.34,128.176 251.302,127.875 251.152,127.688 C251.002,127.5 250.702,127.388 250.327,127.388 C249.989,127.388 249.69,127.5 249.427,127.688 C249.190196,127.848582 249.017719,128.087642 248.94,128.363 L247.852,128.363 L247.852,128.325 C247.927,127.838 248.227,127.388 248.714,127.013 C249.239,126.638 249.839,126.45 250.552,126.45 C251.19,126.45 251.677,126.638 252.052,127.013 C252.427,127.388 252.54,127.913 252.39,128.588 L251.79,131.7 L251.677,132.375 C251.639434,132.586008 251.639434,132.801992 251.677,133.013 L250.552,133.013 L250.552,132.976 Z M249.052,132.113 C249.352,132.113 249.69,132.038 250.027,131.85 C250.365,131.663 250.627,131.438 250.777,131.176 L251.002,129.976 L249.877,129.976 C249.502,129.976 249.127,130.088 248.827,130.35 C248.527,130.613 248.339,130.875 248.264,131.176 C248.189,131.476 248.227,131.701 248.339,131.888 C248.452,132.076 248.714,132.113 249.052,132.113 Z M257.115,127.575 L256.477,127.538 C256.222,127.538 255.973,127.616 255.764,127.763 C255.521722,127.920125 255.327304,128.140835 255.202,128.401 L254.302,132.976 L253.177,132.976 L254.452,126.526 L255.464,126.526 L255.389,127.388 C255.580328,127.095654 255.83711,126.851883 256.139,126.676 C256.402,126.526 256.702,126.413 257.039,126.413 C257.115,126.413 257.189,126.413 257.302,126.45 C257.415,126.488 257.452,126.488 257.49,126.488 L257.114,127.575 L257.115,127.575 Z M257.452,129.75 C257.677,128.663 258.015,127.8 258.502,127.238 C258.99,126.675 259.589,126.413 260.339,126.413 C260.677,126.413 261.014,126.488 261.277,126.638 C261.539,126.788 261.765,127.013 261.952,127.313 L262.214,126.526 L263.19,126.526 L261.952,132.863 C261.764,133.763 261.427,134.438 260.902,134.888 C260.377,135.338 259.664,135.563 258.839,135.563 C258.533,135.563 258.229,135.512 257.939,135.413 C257.64515,135.353353 257.365231,135.238671 257.114,135.075 L257.564,134.175 C257.714,134.288 257.94,134.4 258.202,134.475 C258.464,134.551 258.727,134.588 258.99,134.588 C259.477,134.588 259.852,134.438 260.152,134.138 C260.48,133.796 260.702,133.366 260.789,132.901 L260.865,132.451 C260.437168,132.875133 259.854186,133.105362 259.252,133.088 C258.577,133.088 258.052,132.788 257.714,132.15 C257.354643,131.443931 257.261633,130.632046 257.452,129.863 L257.452,129.75 Z M258.577,129.863 C258.427,130.538 258.464,131.1 258.652,131.513 C258.84,131.926 259.215,132.151 259.74,132.151 C260.002,132.151 260.264,132.075 260.49,131.926 C260.714,131.776 260.94,131.551 261.127,131.251 L261.727,128.251 C261.620903,128.000762 261.453404,127.781328 261.24,127.613 C261.008307,127.455334 260.732012,127.376442 260.452,127.388 C259.964,127.388 259.589,127.613 259.289,128.026 C258.989,128.476 258.727,129.038 258.615,129.75 L258.577,129.863 Z M266.039,133.088 C265.252,133.088 264.652,132.788 264.239,132.188 C263.827,131.588 263.715,130.801 263.865,129.863 L263.902,129.6 C264.052,128.663 264.427,127.875 265.027,127.275 C265.627,126.675 266.265,126.375 266.94,126.375 C267.727,126.375 268.29,126.638 268.627,127.163 C268.964,127.688 269.077,128.4 268.927,129.263 L268.814,130.013 L264.952,130.013 C264.877,130.651 264.914,131.176 265.14,131.588 C265.365,131.963 265.702,132.151 266.19,132.151 C266.832946,132.145725 267.454726,131.920586 267.952,131.513 L268.289,132.263 C268.065,132.488 267.727,132.676 267.389,132.826 C266.977,133.013 266.527,133.088 266.039,133.088 Z M266.752,127.351 C266.414,127.351 266.115,127.501 265.814,127.838 C265.514,128.176 265.289,128.588 265.139,129.075 L265.139,129.113 L267.764,129.113 L267.802,128.963 C267.877,128.476 267.839,128.101 267.652,127.801 C267.464,127.501 267.202,127.351 266.752,127.351 Z M272.565,124.988 L272.265,126.525 L273.352,126.525 L273.164,127.388 L272.077,127.388 L271.289,131.288 C271.214,131.588 271.214,131.813 271.327,131.926 C271.402,132.038 271.552,132.076 271.74,132.076 C271.815,132.076 271.927,132.076 272.077,132.038 C272.181314,132.035477 272.283771,132.009862 272.377,131.963 L272.377,132.75 C272.264,132.825 272.115,132.863 271.889,132.938 C271.664,132.976 271.477,133.013 271.252,133.013 C270.839,133.013 270.539,132.863 270.314,132.563 C270.089,132.263 270.052,131.813 270.164,131.213 L270.952,127.313 L270.014,127.313 L270.202,126.451 L271.14,126.451 L271.44,124.913 L272.565,124.913 L272.565,124.988 Z" id="Shape" fill="#6D6E71" fill-rule="nonzero"></path>
            <path d="M44.967,52.928 C44.936,52.771 44.936,52.645 44.936,52.488 C44.716,52.802 44.432,53.054 44.086,53.275 C43.739,53.495 43.361,53.59 42.952,53.59 C42.29,53.59 41.786,53.432 41.44,53.054 C41.0747614,52.6750379 40.8810065,52.1628163 40.904,51.637 C40.904,51.007 41.156,50.535 41.66,50.188 C42.164,49.842 42.826,49.653 43.676,49.653 L44.936,49.653 L44.936,49.023 C44.936,48.645 44.81,48.33 44.59,48.109 C44.369,47.889 44.023,47.763 43.613,47.763 C43.235,47.763 42.92,47.857 42.7,48.046 C42.48,48.236 42.353,48.487 42.353,48.739 L41.251,48.739 L41.251,48.708 C41.219,48.235 41.44,47.794 41.912,47.416 C42.385,47.038 42.983,46.818 43.708,46.818 C44.432,46.818 45.031,47.007 45.472,47.385 C45.912,47.763 46.133,48.298 46.133,48.991 L46.133,52.109 C46.133,52.33 46.133,52.55 46.164,52.771 C46.196,52.991 46.227,53.211 46.29,53.401 L45.062,53.401 L45.062,53.464 C45.031,53.274 44.999,53.086 44.968,52.928 L44.967,52.928 Z M43.061,52.55 C43.471,52.55 43.88,52.456 44.195,52.235 C44.541,52.015 44.762,51.763 44.856,51.479 L44.856,50.44 L43.565,50.44 C43.092,50.44 42.715,50.566 42.431,50.787 C42.147,51.007 42.021,51.322 42.021,51.637 C42.021,51.92 42.116,52.141 42.273,52.33 C42.463,52.456 42.714,52.55 43.061,52.55 Z M34.883,46.859 L36.045,46.859 L36.045,53.438 L34.883,53.438 L34.883,52.462 C34.514,52.938 33.906,53.705 32.685,53.575 C31.465,53.446 30.709,52.489 30.704,51.434 C30.698,50.378 30.709,46.501 30.704,46.859 L31.857,46.859 L31.857,49.351 C31.857,52.267 32.497,52.59 33.375,52.59 C34.251,52.59 34.681,51.849 34.883,51.602 C34.873,50.217 34.873,48.635 34.883,46.859 Z M27.583,53.514 L28.757,53.514 L28.757,44.639 L27.3,44.639 L24.424,51.909 L21.578,44.639 L20,44.639 L20,53.514 L21.17,53.514 L21.225,46.613 L23.979,53.514 L24.868,53.514 L27.583,46.81 L27.583,53.514 Z M37.901,44.021 L39.101,44.021 L39.101,53.506 L37.901,53.506 L37.901,44.021 Z M47.921,46.954 L49.102,46.954 L49.102,53.455 L47.922,53.455 L47.921,46.954 Z M47.937,44 L47.937,45.173 L49.14,45.173 L49.14,44.001 L47.937,44 Z" id="Shape" fill="#2A3052" fill-rule="nonzero"></path>
            <path d="M172.581,167.157 L170.09,167.157 L170.09,158.913 L172.581,158.913 L172.581,167.157 Z M172.581,171.494 L170.09,171.494 L170.09,169.279 L172.581,169.279 L172.581,171.494 Z" id="Shape" fill="#FFFFFF" fill-rule="nonzero"></path>
            <path d="M143.464,161.019 C146.35,161.019 147.916,162.779 148.312,165.414 C148.707,168.051 147.284,171.774 143.667,171.774 C140.05,171.774 138.88,169.024 138.88,166.178 C138.88,163.332 140.578,161.018 143.464,161.018 L143.464,161.019 Z M143.49,162.866 C142.632,162.946 141.112,163.547 141.2,166.393 C141.29,169.239 142.533,169.908 143.49,169.908 C144.447,169.908 146.06,169.643 146.06,166.405 C146.06,163.168 144.348,162.785 143.49,162.865 L143.49,162.866 Z M138.271,161.086 C138.176,161.981 138.073,162.716 137.961,163.292 C136.835,163.219 135.667,163.112 135.156,164.428 L135.171,171.499 L132.855,171.499 L132.855,161.169 L134.915,161.169 C135.014,161.859 135.075,162.361 135.099,162.677 C135.811,161.347 136.869,160.817 138.271,161.087 L138.271,161.086 Z M123.386,171.499 L121.029,171.499 L121.029,157.69 L127.1,157.69 C129.002,157.69 131.605,159.275 131.32,162.42 C131.13,164.516 129.723,165.788 127.1,166.235 L123.386,166.235 L123.386,171.499 Z M123.396,164.403 L126.513,164.403 C127.282,164.403 129,163.87 129,161.891 C129,159.913 127.298,159.459 126.513,159.485 C125.99,159.503 124.951,159.495 123.397,159.459 L123.397,164.403 L123.396,164.403 Z M155.817,156.58 C155.709,157.13 155.652,157.677 155.567,158.377 C155.209,158.297 153.201,157.79 153.153,159.967 L153.153,161.169 L155.064,161.169 L155.064,162.835 L153.153,162.835 L153.201,171.499 L150.809,171.499 L150.809,162.835 L149.303,162.835 L149.303,161.169 L150.899,161.169 C150.734,159.042 151.164,157.645 152.189,156.979 C153.726,155.979 155.24,156.392 155.816,156.579 L155.817,156.58 Z M157.549,161.192 L159.864,161.192 L159.864,171.444 L157.549,171.444 L157.549,161.192 Z M157.595,156.663 L157.595,158.623 L159.898,158.623 L159.898,156.663 L157.595,156.663 Z M166.195,158.694 L166.195,161.244 L167.98,161.244 L167.98,162.934 L166.195,162.934 L166.195,169.044 C166.195,170.279 167.758,169.87 167.86,169.819 L168.134,171.451 C167.981,171.553 164.258,172.878 163.862,169.045 L163.862,162.933 L162.326,162.933 L162.326,161.243 L163.862,161.243 L163.862,158.693 L166.195,158.693 L166.195,158.694 Z" id="Shape" fill="#FFFFFF" fill-rule="nonzero"></path>
            <path d="M250.312,181.17 C250.312,180.74 250.158,180.381 249.851,180.09 C249.543,179.8 249.002,179.554 248.227,179.35 C247.265,179.112 246.515,178.761 245.976,178.298 C245.436,177.834 245.167,177.252 245.167,176.55 C245.167,175.81 245.457,175.192 246.037,174.699 C246.617,174.205 247.371,173.959 248.298,173.959 C249.294,173.959 250.088,174.241 250.679,174.806 C251.27,175.371 251.557,176.031 251.54,176.784 L251.52,176.824 L250.3,176.824 C250.3,176.286 250.112,175.842 249.737,175.491 C249.363,175.141 248.883,174.965 248.298,174.965 C247.701,174.965 247.243,175.11 246.924,175.4 C246.606,175.69 246.447,176.067 246.447,176.53 C246.447,176.942 246.621,177.285 246.97,177.56 C247.318,177.835 247.885,178.077 248.669,178.285 C249.621,178.532 250.347,178.895 250.845,179.376 C251.343,179.856 251.592,180.45 251.592,181.156 C251.592,181.918 251.292,182.531 250.692,182.995 C250.092,183.458 249.31,183.69 248.344,183.69 C247.43,183.69 246.624,183.434 245.924,182.923 C245.224,182.413 244.885,181.728 244.907,180.87 L244.92,180.831 L246.141,180.831 C246.141,181.425 246.367,181.883 246.817,182.205 C247.267,182.528 247.777,182.689 248.344,182.689 C248.95,182.689 249.43,182.553 249.783,182.28 C250.136,182.007 250.313,181.637 250.313,181.17 L250.312,181.17 Z M256.139,183.69 C255.13,183.69 254.343,183.367 253.778,182.722 C253.213,182.077 252.93,181.228 252.93,180.175 L252.93,179.889 C252.93,178.88 253.221,178.046 253.804,177.385 C254.386,176.725 255.098,176.395 255.938,176.395 C256.878,176.395 257.583,176.687 258.053,177.271 C258.523,177.856 258.757,178.633 258.757,179.604 L258.757,180.279 L254.262,180.279 L254.242,180.312 C254.242,181.018 254.398,181.59 254.71,182.03 C255.022,182.47 255.498,182.69 256.14,182.69 C256.528105,182.697221 256.914317,182.634207 257.28,182.504 C257.607,182.381 257.887,182.211 258.12,181.994 L258.621,182.826 C258.37,183.068 258.039,183.273 257.627,183.44 C257.216,183.606 256.72,183.69 256.139,183.69 Z M255.938,177.401 C255.492,177.401 255.123,177.573 254.83,177.918 C254.538,178.262 254.36,178.703 254.294,179.24 L254.307,179.272 L257.477,179.272 L257.477,179.168 C257.477,178.658 257.352,178.235 257.101,177.901 C256.85,177.568 256.462,177.401 255.938,177.401 Z M261.577,183.553 L260.297,183.553 L260.297,173.42 L261.577,173.42 L261.577,183.554 L261.577,183.553 Z M266.456,183.69 C265.446,183.69 264.659,183.367 264.094,182.722 C263.529,182.077 263.247,181.228 263.247,180.175 L263.247,179.889 C263.247,178.88 263.537,178.046 264.12,177.385 C264.703,176.725 265.414,176.395 266.254,176.395 C267.194,176.395 267.899,176.687 268.369,177.271 C268.839,177.856 269.074,178.633 269.074,179.604 L269.074,180.279 L264.577,180.279 L264.557,180.312 C264.557,181.018 264.714,181.59 265.026,182.03 C265.337,182.47 265.814,182.69 266.455,182.69 C266.843105,182.697221 267.229317,182.634207 267.595,182.504 C267.922,182.381 268.202,182.211 268.436,181.994 L268.936,182.826 C268.686,183.068 268.354,183.273 267.942,183.44 C267.531,183.606 267.035,183.69 266.455,183.69 L266.456,183.69 Z M266.254,177.401 C265.808,177.401 265.439,177.573 265.147,177.918 C264.854,178.262 264.676,178.703 264.611,179.24 L264.624,179.272 L267.794,179.272 L267.794,179.168 C267.794,178.658 267.668,178.235 267.417,177.901 C267.166,177.568 266.778,177.401 266.254,177.401 Z M274.596,181.663 C274.602656,181.395545 274.483444,181.140462 274.274,180.974 C274.06,180.797 273.654,180.641 273.056,180.507 C272.229,180.329 271.593,180.08 271.149,179.759 C270.705,179.439 270.484,179.01 270.484,178.473 C270.484,177.901 270.727,177.413 271.214,177.005 C271.702,176.598 272.333,176.395 273.108,176.395 C273.905,176.395 274.55,176.611 275.044,177.044 C275.538,177.477 275.774,177.982 275.752,178.558 L275.739,178.597 L274.518,178.597 C274.518,178.293 274.385,178.018 274.118,177.772 C273.852,177.525 273.515,177.402 273.108,177.402 C272.658,177.402 272.321,177.503 272.098,177.707 C271.885039,177.888416 271.762547,178.154243 271.763,178.434 C271.763,178.711 271.86,178.926 272.053,179.077 C272.245,179.229 272.643,179.367 273.245,179.493 C274.106,179.675 274.76,179.933 275.206,180.266 C275.653,180.6 275.876,181.035 275.876,181.572 C275.876,182.196 275.623,182.705 275.119,183.099 C274.614,183.493 273.955,183.689 273.141,183.689 C272.244,183.689 271.538,183.462 271.023,183.008 C270.507,182.553 270.263,182.022 270.289,181.416 L270.302,181.377 L271.523,181.377 C271.545,181.832 271.713,182.164 272.03,182.374 C272.346,182.584 272.716,182.689 273.14,182.689 C273.595,182.689 273.952,182.593 274.21,182.4 C274.467,182.208 274.596,181.962 274.596,181.663 Z M281.787,183.553 C281.748531,183.366617 281.715185,183.179213 281.687,182.991 C281.662932,182.828667 281.648574,182.665043 281.644,182.501 C281.406,182.839 281.095,183.121 280.712,183.349 C280.338478,183.573231 279.910654,183.690822 279.475,183.689 C278.743,183.689 278.185,183.502 277.802,183.128 C277.418,182.753 277.227,182.237 277.227,181.578 C277.227,180.908 277.499,180.382 278.042,180.003 C278.586,179.624 279.323,179.435 280.254,179.435 L281.644,179.435 L281.644,178.74 C281.644,178.328 281.519,178.002 281.268,177.762 C281.016,177.522 280.661,177.402 280.202,177.402 C279.786,177.402 279.451,177.505 279.195,177.713 C278.94,177.921 278.812,178.17 278.812,178.46 L277.597,178.473 L277.584,178.434 C277.554,177.924 277.794,177.455 278.302,177.031 C278.811,176.607 279.468,176.394 280.274,176.394 C281.071,176.394 281.712,176.597 282.197,177.002 C282.682,177.407 282.924,177.99 282.924,178.752 L282.924,182.137 C282.924,182.388 282.937,182.631 282.964,182.865 C282.989,183.099 283.037,183.328 283.106,183.553 L281.787,183.553 Z M279.663,182.618 C280.126,182.618 280.544,182.498 280.917,182.261 C281.289,182.022 281.532,181.75 281.644,181.442 L281.644,180.299 L280.209,180.299 C279.693,180.299 279.281,180.429 278.971,180.689 C278.661,180.949 278.507,181.254 278.507,181.604 C278.507,181.916 278.604,182.164 278.799,182.345 C278.994,182.527 279.282,182.618 279.663,182.618 Z M286.166,183.553 L284.886,183.553 L284.886,176.524 L286.166,176.524 L286.166,183.554 L286.166,183.553 Z M286.166,174.725 L284.886,174.725 L284.886,173.419 L286.166,173.419 L286.166,174.725 Z" id="Shape" fill="#2A3052" fill-rule="nonzero"></path>
        </g>
    </g>
</svg>