<?xml version="1.0" encoding="UTF-8"?>
<svg width="299px" height="197px" viewBox="0 0 299 197" version="1.1" xmlns="http://www.w3.org/2000/svg" xmlns:xlink="http://www.w3.org/1999/xlink">
    <!-- Generator: Sketch 52.6 (67491) - http://www.bohemiancoding.com/sketch -->
    <title>no touch</title>
    <desc>Created with Sketch.</desc>
    <g id="Page-1" stroke="none" stroke-width="1" fill="none" fill-rule="evenodd">
        <g id="no-touch">
            <polygon id="Path" fill="#F2F2F2" points="0 0 299 0 299 197 0 197"></polygon>
            <path d="M1.98671096,1.9798995 L1.98671096,195.020101 L297.013289,195.020101 L297.013289,1.9798995 L1.98671096,1.9798995 Z M299,0 L299,197 L0,197 L0,0 L299,0 Z" id="Path" fill="#C2C2C2" fill-rule="nonzero"></path>
            <path d="M4.887,54.4456836 L4.887,53.2388448 L294.54325,53.2388448 L294.54325,54.4456836 L4.887,54.4456836 Z M4.887,94.9796458 L4.887,93.772807 L294.54325,93.772807 L294.54325,94.9796458 L4.887,94.9796458 Z M4.887,135.513608 L4.887,134.30677 L294.54325,134.30677 L294.54325,135.513608 L4.887,135.513608 Z M4.887,176.010211 L4.887,174.803373 L294.54325,174.803373 L294.54325,176.010211 L4.887,176.010211 Z M39.2665806,33.5939623 L40.4734194,33.5939623 L40.4734194,193.264151 L39.2665806,193.264151 L39.2665806,33.5939623 Z M75.9314556,33.5939623 L77.1382944,33.5939623 L77.1382944,193.264151 L75.9314556,193.264151 L75.9314556,33.5939623 Z M112.558956,33.5939623 L113.765794,33.5939623 L113.765794,193.264151 L112.558956,193.264151 L112.558956,33.5939623 Z M149.223831,33.5939623 L150.430669,33.5939623 L150.430669,193.264151 L149.223831,193.264151 L149.223831,33.5939623 Z M185.851331,33.5939623 L187.058169,33.5939623 L187.058169,193.264151 L185.851331,193.264151 L185.851331,33.5939623 Z M222.478831,33.5939623 L223.685669,33.5939623 L223.685669,193.264151 L222.478831,193.264151 L222.478831,33.5939623 Z M4.887,115.227947 L4.887,114.021109 L294.54325,114.021109 L294.54325,115.227947 L4.887,115.227947 Z" id="Shape" fill="#DEDEDD" fill-rule="nonzero"></path>
            <polygon id="Path" fill="#293152" points="4.887 76.7313439 4.887 75.5245052 294.54325 75.5245052 294.54325 76.7313439"></polygon>
            <polygon id="Path" fill="#DEDEDD" points="4.887 157.76191 4.887 156.555072 294.54325 156.555072 294.54325 157.76191"></polygon>
            <polygon id="Path" fill="#293152" points="259.143706 35.5939623 260.350544 35.5939623 260.350544 195.264151 259.143706 195.264151"></polygon>
            <polygon id="Path" fill="#C2C2C2" points="2.794 35.6055162 2.794 33.1914649 296.63625 33.1914649 296.63625 35.6055162"></polygon>
            <path d="M26.714,23.7513208 L24.69575,23.7513208 L20.547125,16.690566 L20.50975,16.690566 L20.50975,23.7513208 L18.454125,23.7513208 L18.454125,13.4030189 L20.50975,13.4030189 L24.658375,20.4637736 L24.69575,20.4637736 L24.69575,13.4030189 L26.751375,13.4030189 L26.751375,23.7513208 L26.714,23.7513208 Z M28.171625,19.8286793 C28.171625,18.670566 28.470625,17.7366038 29.106,16.989434 C29.741375,16.2422642 30.601,15.9060377 31.72225,15.9060377 C32.8435,15.9060377 33.7405,16.2796226 34.375875,16.989434 C35.01125,17.7366038 35.347625,18.670566 35.347625,19.8286793 L35.347625,19.9781132 C35.347625,21.1362264 35.048625,22.0701887 34.41325,22.8173585 C33.777875,23.5271698 32.91825,23.9007547 31.797,23.9007547 C30.67575,23.9007547 29.77875,23.5271698 29.143375,22.8173585 C28.470625,22.0701887 28.171625,21.1362264 28.171625,19.9781132 L28.171625,19.8286793 Z M30.189875,19.9781132 C30.189875,20.6879245 30.302,21.2483019 30.563625,21.6592453 C30.82525,22.0701887 31.199,22.2943396 31.759625,22.2943396 C32.282875,22.2943396 32.694,22.0701887 32.91825,21.6592453 C33.1425,21.2483019 33.292,20.6879245 33.292,19.9781132 L33.292,19.8286793 C33.292,19.1562264 33.179875,18.5958491 32.91825,18.1475472 C32.6687738,17.7299931 32.208057,17.4853455 31.72225,17.5124528 C31.199,17.5124528 30.787875,17.7366038 30.563625,18.1475472 C30.302,18.5958491 30.189875,19.1188679 30.189875,19.8286793 L30.189875,19.9781132 Z M47.41975,15.009434 L44.541875,15.009434 L44.541875,23.7513208 L42.48625,23.7513208 L42.48625,15.009434 L39.608375,15.009434 L39.608375,13.4030189 L47.41975,13.4030189 L47.41975,15.009434 Z M47.41975,19.8286793 C47.41975,18.670566 47.71875,17.7366038 48.354125,16.989434 C48.9895,16.2422642 49.849125,15.9060377 50.970375,15.9060377 C52.091625,15.9060377 52.988625,16.2796226 53.624,16.989434 C54.259375,17.7366038 54.59575,18.670566 54.59575,19.8286793 L54.59575,19.9781132 C54.59575,21.1362264 54.29675,22.0701887 53.661375,22.8173585 C53.026,23.5271698 52.166375,23.9007547 51.045125,23.9007547 C49.923875,23.9007547 49.026875,23.5271698 48.3915,22.8173585 C47.756125,22.1075472 47.457125,21.1362264 47.457125,19.9781132 L47.457125,19.8286793 L47.41975,19.8286793 Z M49.475375,19.9781132 C49.475375,20.6879245 49.5875,21.2483019 49.849125,21.6592453 C50.11075,22.0701887 50.4845,22.2943396 51.045125,22.2943396 C51.568375,22.2943396 51.9795,22.0701887 52.20375,21.6592453 C52.428,21.2483019 52.5775,20.6879245 52.5775,19.9781132 L52.5775,19.8286793 C52.5775,19.1562264 52.465375,18.5958491 52.20375,18.1475472 C51.942125,17.6992453 51.568375,17.5124528 51.045125,17.5124528 C50.521875,17.5124528 50.11075,17.7366038 49.8865,18.1475472 C49.624875,18.5958491 49.51275,19.1188679 49.51275,19.8286793 L49.51275,19.9781132 L49.475375,19.9781132 Z M60.501,22.630566 C60.0818853,23.4164833 59.2616054,23.9055569 58.370625,23.9007547 C57.58575,23.9007547 56.950375,23.6392453 56.501875,23.1162264 C56.053375,22.5932075 55.829125,21.7713208 55.829125,20.6879245 L55.829125,16.0554717 L57.88475,16.0554717 L57.88475,20.725283 C57.88475,21.2856604 57.996875,21.6966038 58.18375,21.9207547 C58.370625,22.1822642 58.63225,22.2943396 59.006,22.2943396 C59.342375,22.2943396 59.604,22.2569811 59.865625,22.1449057 C60.089875,22.0328302 60.27675,21.8833962 60.42625,21.6592453 L60.42625,16.0554717 L62.481875,16.0554717 L62.481875,23.7513208 L60.72525,23.7513208 L60.501,22.630566 Z M67.191125,22.2943396 C67.564875,22.2943396 67.863875,22.1822642 68.088125,21.9581132 C68.312375,21.7339623 68.4245,21.4724528 68.4245,21.0988679 L70.29325,21.0988679 L70.330625,21.1362264 C70.3755441,21.8846792 70.0552219,22.6085661 69.471,23.0788679 C68.873,23.6018868 68.1255,23.8633962 67.2285,23.8633962 C66.10725,23.8633962 65.21025,23.4898113 64.61225,22.78 C64.01425,22.0701887 63.677875,21.1362264 63.677875,19.9781132 L63.677875,19.7913208 C63.677875,18.670566 63.976875,17.7366038 64.61225,16.989434 C65.21025,16.2422642 66.10725,15.9060377 67.2285,15.9060377 C68.162875,15.9060377 68.910375,16.1675472 69.508375,16.7279245 C70.069,17.2509434 70.368,17.9981132 70.330625,18.8573585 L70.330625,18.894717 L68.461875,18.894717 C68.477256,18.5286408 68.3575476,18.1696742 68.1255,17.8860377 C67.9047155,17.6196573 67.5745085,17.4683793 67.2285,17.4750943 C66.667875,17.4750943 66.294125,17.6992453 66.069875,18.1101887 C65.8250874,18.6224176 65.709595,19.1867978 65.7335,19.7539623 L65.7335,19.9781132 C65.7335,20.650566 65.845625,21.2109434 66.069875,21.6218868 C66.25675,22.1075472 66.6305,22.2943396 67.191125,22.2943396 Z M73.43275,17.0267925 C73.657,16.690566 73.956,16.3916981 74.32975,16.2049057 C74.666125,16.0181132 75.07725,15.9060377 75.488375,15.9060377 C76.27325,15.9060377 76.908625,16.1675472 77.357125,16.690566 C77.805625,17.2135849 78.029875,18.0354717 78.029875,19.1562264 L78.029875,23.7139623 L75.97425,23.7139623 L75.97425,19.1562264 C75.97425,18.5584906 75.862125,18.1475472 75.67525,17.8860377 C75.451,17.6245283 75.152,17.5124528 74.740875,17.5124528 C74.441875,17.5124528 74.217625,17.5498113 73.993375,17.6618868 C73.769125,17.7739623 73.58225,17.9233962 73.470125,18.1101887 L73.470125,23.7513208 L71.4145,23.7513208 L71.4145,12.6558491 L73.470125,12.6558491 L73.470125,17.0267925 L73.43275,17.0267925 Z" id="Shape" fill="#231F20" fill-rule="nonzero"></path>
            <path d="M41.0869303,138.250633 C40.3466231,138.922725 39.2016474,138.867426 38.5295554,138.127119 C37.8574633,137.386812 37.9127626,136.241836 38.6530697,135.569744 L75.3179447,102.283329 C75.9706206,101.690793 76.9552005,101.654479 77.649753,102.197324 L109.620457,127.184843 L142.107871,102.188892 C142.773588,101.676686 143.704176,101.689637 144.355382,102.22017 L177.917857,129.563308 L213.356112,97.9760448 C213.814269,97.5676746 214.44812,97.4192234 215.039967,97.581677 L260.226342,109.984696 C261.190559,110.24936 261.757659,111.245565 261.492995,112.209783 C261.228331,113.174 260.232126,113.7411 259.267908,113.476436 L215.030658,101.333938 L179.175263,133.293012 C178.51153,133.884618 177.516438,133.906697 176.827118,133.345113 L143.17974,105.932805 L110.715754,130.910731 C110.060866,131.414604 109.147911,131.411135 108.496872,130.902299 L76.6221416,105.98979 L41.0869303,138.250633 Z" id="Path" fill="#293152"></path>
            <path d="M29.704,60.9230189 L27.1625,60.9230189 L25.6675,68.6562264 L24.54625,68.6562264 L26.078625,60.9603774 L23.537125,60.9603774 L23.724,60.0264151 L29.890875,60.0264151 L29.704,60.9230189 Z M32.133375,68.6562264 L32.133375,68.170566 C32.133375,68.0584906 32.17075,67.9090566 32.17075,67.7969811 C31.909125,68.0958491 31.610125,68.32 31.27375,68.5067925 C30.9683345,68.6907065 30.6209772,68.7935818 30.264625,68.8056604 C29.704,68.8056604 29.2555,68.6188679 28.993875,68.2826415 C28.73225,67.9464151 28.6575,67.4607547 28.769625,66.8630189 C28.88175,66.2279245 29.218125,65.7049057 29.704,65.4060377 C30.22725,65.0698113 30.862625,64.9203774 31.6475,64.9203774 L32.731375,64.9203774 L32.8435,64.285283 C32.91825,63.8743396 32.880875,63.5754717 32.731375,63.3886792 C32.581875,63.1645283 32.282875,63.0898113 31.909125,63.0898113 C31.57275,63.0898113 31.27375,63.2018868 31.012125,63.3886792 C30.7505,63.5754717 30.601,63.7996226 30.52625,64.0611321 L29.47975,64.0611321 L29.47975,64.0237736 C29.5545,63.5381132 29.8535,63.0898113 30.37675,62.7162264 C30.9,62.3426415 31.498,62.1558491 32.208125,62.1558491 C32.8435,62.1558491 33.329375,62.3426415 33.703125,62.7162264 C34.076875,63.0898113 34.189,63.6128302 34.0395,64.285283 L33.4415,67.3860377 L33.329375,68.0584906 C33.292,68.245283 33.292,68.469434 33.329375,68.6935849 L32.133375,68.6935849 L32.133375,68.6562264 Z M30.638375,67.7969811 C30.937375,67.7969811 31.27375,67.7222642 31.610125,67.5354717 C31.9465,67.3486792 32.208125,67.1245283 32.357625,66.8630189 L32.581875,65.6675472 L31.460625,65.6675472 C31.086875,65.6675472 30.713125,65.7796226 30.414125,66.0411321 C30.115125,66.265283 29.92825,66.5641509 29.8535,66.8630189 C29.77875,67.1618868 29.816125,67.3860377 29.92825,67.5354717 C30.07775,67.7222642 30.302,67.7969811 30.638375,67.7969811 Z M38.636625,63.2766038 L38.00125,63.2392453 C37.7470903,63.2390427 37.4990738,63.317329 37.291125,63.4633962 C37.066875,63.6128302 36.88,63.8369811 36.7305,64.0984906 L35.8335,68.6562264 L34.71225,68.6562264 L35.983,62.230566 L36.992125,62.230566 L36.917375,63.0898113 C37.1080054,62.7983874 37.3639359,62.5553608 37.664875,62.38 C38.0038179,62.1492158 38.4228863,62.0681417 38.8235,62.1558491 C38.89825,62.1558491 38.973,62.1932075 39.010375,62.1932075 L38.636625,63.2766038 Z M38.973,65.4433962 C39.19725,64.36 39.533625,63.5007547 40.0195,62.9403774 C40.505375,62.38 41.103375,62.1184906 41.850875,62.1184906 C42.18725,62.1184906 42.523625,62.1932075 42.78525,62.3426415 C43.046875,62.4920755 43.271125,62.7162264 43.458,63.0150943 L43.719625,62.230566 L44.691375,62.230566 L43.458,68.5441509 C43.271125,69.4407547 42.93475,70.1132075 42.4115,70.5615094 C41.88825,71.0098113 41.178125,71.2339623 40.355875,71.2339623 C40.09425,71.2339623 39.79525,71.1966038 39.458875,71.1218868 C39.166036,71.0626294 38.8870505,70.9485494 38.636625,70.7856604 L39.085125,69.8890566 C39.234625,70.0011321 39.458875,70.1132075 39.7205,70.1879245 C39.982125,70.2626415 40.24375,70.3 40.505375,70.3 C40.99125,70.3 41.365,70.150566 41.664,69.8516981 C41.9911813,69.5112271 42.2119786,69.0828099 42.299375,68.6188679 L42.374125,68.170566 C41.9479065,68.5931284 41.3670748,68.8226581 40.767,68.8056604 C40.09425,68.8056604 39.571,68.5067925 39.234625,67.8716981 C38.8761978,67.1682067 38.7833189,66.3591915 38.973,65.5928302 L38.973,65.4433962 Z M40.09425,65.5554717 C39.94475,66.2279245 39.982125,66.7883019 40.169,67.1992453 C40.355875,67.6101887 40.729625,67.8343396 41.252875,67.8343396 C41.5145,67.8343396 41.776125,67.7596226 42.000375,67.6101887 C42.224625,67.4607547 42.448875,67.2366038 42.63575,66.9377358 L43.23375,63.9490566 C43.121625,63.6875472 42.972125,63.5007547 42.747875,63.3139623 C42.523625,63.1271698 42.299375,63.0898113 41.963,63.0898113 C41.477125,63.0898113 41.103375,63.3139623 40.804375,63.7249057 C40.4723075,64.2494945 40.2439357,64.8328536 40.131625,65.4433962 L40.09425,65.5554717 Z M47.531875,68.7683019 C46.747,68.7683019 46.149,68.469434 45.737875,67.8716981 C45.32675,67.2739623 45.214625,66.489434 45.364125,65.5554717 L45.4015,65.2939623 C45.551,64.36 45.92475,63.5754717 46.52275,62.9777358 C47.12075,62.38 47.756125,62.0811321 48.428875,62.0811321 C49.21375,62.0811321 49.774375,62.3426415 50.11075,62.8656604 C50.447125,63.3886792 50.55925,64.0984906 50.40975,64.9577358 L50.297625,65.7049057 L46.485375,65.7049057 C46.410625,66.34 46.448,66.8630189 46.67225,67.2739623 C46.8965,67.6849057 47.232875,67.8343396 47.71875,67.8343396 C48.3596601,67.8293191 48.9795488,67.6052031 49.475375,67.1992453 L49.81175,67.9464151 C49.1796283,68.4927725 48.3673683,68.7855893 47.531875,68.7683019 Z M48.279375,63.0524528 C47.943,63.0524528 47.644,63.2018868 47.345,63.5381132 C47.046,63.8743396 46.82175,64.285283 46.67225,64.7709434 L46.67225,64.8083019 L49.2885,64.8083019 L49.325875,64.6588679 C49.400625,64.1732075 49.36325,63.7996226 49.176375,63.5007547 C49.026875,63.2018868 48.727875,63.0524528 48.279375,63.0524528 Z M54.035125,60.6988679 L53.736125,62.230566 L54.82,62.230566 L54.633125,63.0898113 L53.54925,63.0898113 L52.764375,66.9750943 C52.689625,67.3113208 52.689625,67.4981132 52.80175,67.6101887 C52.8765,67.7222642 53.026,67.7969811 53.212875,67.7969811 C53.287625,67.7969811 53.39975,67.7969811 53.54925,67.7596226 C53.661375,67.7596226 53.7735,67.7222642 53.84825,67.7222642 L53.84825,68.5067925 C53.736125,68.5815094 53.586625,68.6188679 53.362375,68.6935849 C53.138125,68.7309434 52.95125,68.7683019 52.727,68.7683019 C52.3596125,68.7870432 52.0077922,68.6182441 51.792625,68.32 C51.568375,68.0211321 51.531,67.5728302 51.643125,66.9750943 L52.428,63.0898113 L51.493625,63.0898113 L51.6805,62.230566 L52.614875,62.230566 L52.913875,60.6988679 L54.035125,60.6988679 Z" id="Shape" fill="#6E6F71" fill-rule="nonzero"></path>
            <path d="M187.987125,147.445283 L153.0415,147.445283 L147.6595,139.263774 L142.2775,147.445283 L107.331875,147.445283 C104.715625,147.445283 102.622625,149.574717 102.622625,152.22717 L102.622625,176.921132 C102.622625,179.573585 104.753,181.703019 107.331875,181.703019 L188.0245,181.703019 C190.64075,181.703019 192.73375,179.573585 192.73375,176.921132 L192.73375,152.22717 C192.73375,149.574717 190.603375,147.445283 187.987125,147.445283 Z" id="Path" fill="#E88124"></path>
            <g id="Group" opacity="0.6" transform="translate(251.412500, 102.867925)" fill="#FFFFFF">
                <ellipse id="Oval" cx="8.334625" cy="8.86264151" rx="8.110375" ry="8.44301887"></ellipse>
            </g>
            <path d="M259.747125,121.38061 C254.590171,121.38061 250.429724,117.049525 250.429724,111.730566 C250.429724,106.411607 254.590171,102.080522 259.747125,102.080522 C264.904079,102.080522 269.064526,106.411607 269.064526,111.730566 C269.064526,117.049525 264.904079,121.38061 259.747125,121.38061 Z M259.747125,118.966559 C263.548644,118.966559 266.650474,115.737508 266.650474,111.730566 C266.650474,107.723624 263.548644,104.494573 259.747125,104.494573 C255.945606,104.494573 252.843776,107.723624 252.843776,111.730566 C252.843776,115.737508 255.945606,118.966559 259.747125,118.966559 Z" id="Oval" fill="#E88124" fill-rule="nonzero"></path>
            <g id="Group" opacity="0.6" transform="translate(30.900000, 128.018868)" fill="#FFFFFF">
                <ellipse id="Oval" cx="8.97" cy="8.89132075" rx="8.110375" ry="8.44301887"></ellipse>
            </g>
            <path d="M39.87,146.560233 C34.7130457,146.560233 30.5525994,142.229148 30.5525994,136.910189 C30.5525994,131.59123 34.7130457,127.260145 39.87,127.260145 C45.0269543,127.260145 49.1874006,131.59123 49.1874006,136.910189 C49.1874006,142.229148 45.0269543,146.560233 39.87,146.560233 Z M39.87,144.146182 C43.6715185,144.146182 46.7733494,140.917131 46.7733494,136.910189 C46.7733494,132.903247 43.6715185,129.674196 39.87,129.674196 C36.0684815,129.674196 32.9666506,132.903247 32.9666506,136.910189 C32.9666506,140.917131 36.0684815,144.146182 39.87,144.146182 Z" id="Oval" fill="#E88124" fill-rule="nonzero"></path>
            <path d="M49.082,162.119 C49.053,161.973 49.053,161.857 49.053,161.711 C48.8422987,162.003768 48.5750303,162.251315 48.267,162.439 C47.947,162.643 47.597,162.73 47.218,162.73 C46.607,162.73 46.141,162.585 45.821,162.235 C45.4835388,161.884563 45.3046097,161.411033 45.326,160.925 C45.326,160.342 45.559,159.905 46.025,159.585 C46.49,159.265 47.102,159.09 47.888,159.09 L49.053,159.09 L49.053,158.508 C49.053,158.158 48.937,157.868 48.733,157.663 C48.529,157.459 48.209,157.343 47.83,157.343 C47.48,157.343 47.19,157.43 46.986,157.605 C46.7913285,157.761639 46.6745085,157.995279 46.666,158.245 L45.646,158.245 L45.646,158.217 C45.616,157.78 45.821,157.372 46.257,157.023 C46.694,156.673 47.247,156.469 47.917,156.469 C48.587,156.469 49.14,156.644 49.548,156.993 C49.956,157.343 50.16,157.838 50.16,158.479 L50.16,161.362 C50.16,161.565 50.16,161.769 50.189,161.973 C50.218,162.177 50.247,162.381 50.305,162.556 L49.17,162.556 L49.17,162.614 C49.14,162.439 49.111,162.264 49.082,162.119 Z M47.32,161.769 C47.698,161.769 48.077,161.682 48.368,161.479 C48.688,161.274 48.892,161.041 48.979,160.779 L48.979,159.819 L47.785,159.819 C47.349,159.819 46.999,159.935 46.737,160.139 C46.4945586,160.327101 46.3545756,160.618177 46.359,160.925 C46.3558357,161.15964 46.4387231,161.387314 46.592,161.565 C46.766,161.682 46.999,161.769 47.32,161.769 Z M39.758,156.507 L40.833,156.507 L40.833,162.59 L39.759,162.59 L39.759,161.687 C39.418,162.128 38.855,162.837 37.727,162.717 C36.598,162.597 35.9,161.713 35.895,160.737 C35.89,159.761 35.9,156.177 35.895,156.507 L36.961,156.507 L36.961,158.812 C36.961,161.507 37.554,161.806 38.364,161.806 C39.174,161.806 39.572,161.121 39.759,160.892 C39.749,159.612 39.749,158.15 39.759,156.507 L39.758,156.507 Z M33.01,162.66 L34.095,162.66 L34.095,154.455 L32.748,154.455 L30.09,161.177 L27.458,154.455 L26,154.455 L26,162.66 L27.08,162.66 L27.132,156.28 L29.678,162.66 L30.499,162.66 L33.01,156.462 L33.01,162.66 Z M42.549,153.884 L43.659,153.884 L43.659,162.654 L42.549,162.654 L42.549,153.884 Z M51.813,156.595 L52.905,156.595 L52.905,162.606 L51.813,162.606 L51.813,156.595 Z M51.828,153.865 L51.828,154.949 L52.94,154.949 L52.94,153.865 L51.828,153.865 Z" id="Shape" fill="#2A3052" fill-rule="nonzero"></path>
            <path d="M175.693,167.042 L172.998,167.042 L172.998,158.128 L175.693,158.128 L175.693,167.042 Z M175.693,171.732 L172.998,171.732 L172.998,169.337 L175.693,169.337 L175.693,171.732 Z" id="Shape" fill="#FFFFFF" fill-rule="nonzero"></path>
            <path d="M144.205,160.405 C147.326,160.405 149.019,162.307 149.447,165.158 C149.875,168.008 148.336,172.035 144.425,172.035 C140.513,172.035 139.248,169.061 139.248,165.983 C139.248,162.906 141.084,160.404 144.205,160.404 L144.205,160.405 Z M144.233,162.402 C143.305,162.489 141.661,163.139 141.757,166.216 C141.853,169.294 143.199,170.017 144.233,170.017 C145.267,170.017 147.011,169.73 147.011,166.229 C147.011,162.729 145.161,162.314 144.233,162.402 Z M138.589,160.478 C138.510682,161.277382 138.398581,162.073094 138.253,162.863 C137.036,162.784 135.773,162.669 135.221,164.091 L135.236,171.738 L132.732,171.738 L132.732,160.565 L134.96,160.565 C135.066,161.311 135.133,161.855 135.159,162.196 C135.929,160.759 137.072,160.186 138.589,160.476 L138.589,160.478 Z M122.492,171.738 L119.943,171.738 L119.943,156.805 L126.509,156.805 C128.566,156.805 131.379,158.519 131.072,161.92 C130.866,164.187 129.345,165.562 126.509,166.045 L122.492,166.045 L122.492,171.738 Z M122.504,164.065 L125.874,164.065 C126.704,164.065 128.564,163.488 128.564,161.348 C128.564,159.208 126.722,158.718 125.874,158.746 C125.308,158.766 124.184,158.756 122.504,158.717 L122.504,164.065 Z M157.563,155.603 C157.446,156.199 157.385,156.791 157.293,157.548 C156.906,157.462 154.735,156.913 154.683,159.268 L154.683,160.567 L156.749,160.567 L156.749,162.369 L154.682,162.369 L154.735,171.738 L152.148,171.738 L152.148,162.368 L150.519,162.368 L150.519,160.567 L152.245,160.567 C152.067,158.267 152.532,156.756 153.64,156.035 C155.302,154.954 156.94,155.401 157.563,155.603 Z M159.437,160.592 L161.939,160.592 L161.939,171.679 L159.437,171.679 L159.437,160.592 Z M159.486,155.695 L159.486,157.815 L161.976,157.815 L161.976,155.695 L159.486,155.695 Z M168.787,157.89 L168.787,160.647 L170.717,160.647 L170.717,162.475 L168.787,162.475 L168.787,169.084 C168.787,170.419 170.477,169.977 170.587,169.921 L170.883,171.686 C170.718,171.796 166.692,173.229 166.263,169.084 L166.263,162.474 L164.603,162.474 L164.603,160.647 L166.263,160.647 L166.263,157.89 L168.787,157.89 Z" id="Shape" fill="#FFFFFF" fill-rule="nonzero"></path>
            <path d="M266.565,128.999 C266.565,128.667 266.446,128.389 266.208,128.165 C265.97,127.94 265.551,127.749 264.951,127.591 C264.207,127.407 263.626,127.135 263.209,126.777 C262.804255,126.445579 262.573593,125.947039 262.583,125.424 C262.583,124.851 262.807,124.374 263.257,123.991 C263.706,123.609 264.289,123.418 265.007,123.418 C265.777,123.418 266.392,123.636 266.849,124.074 C267.307,124.511 267.529,125.022 267.516,125.605 L267.501,125.635 L266.555,125.635 C266.555,125.22 266.41,124.876 266.12,124.605 C265.83,124.333 265.46,124.197 265.007,124.197 C264.544,124.197 264.189,124.309 263.943,124.534 C263.697,124.759 263.573,125.05 263.573,125.409 C263.573,125.727 263.708,125.993 263.978,126.206 C264.248,126.419 264.686,126.606 265.293,126.766 C266.031,126.958 266.593,127.239 266.978,127.611 C267.363,127.984 267.556,128.443 267.556,128.989 C267.570941,129.54867 267.310962,130.080206 266.86,130.412 C266.395,130.771 265.79,130.95 265.042,130.95 C264.334,130.95 263.71,130.753 263.169,130.357 C262.627,129.961 262.365,129.432 262.382,128.768 L262.392,128.738 L263.337,128.738 C263.337,129.198 263.511,129.552 263.86,129.801 C264.209,130.051 264.603,130.176 265.042,130.176 C265.512,130.176 265.882,130.07 266.156,129.859 C266.429,129.648 266.566,129.361 266.566,128.999 L266.565,128.999 Z M271.075,130.95 C270.295,130.95 269.685,130.7 269.248,130.201 C268.811,129.701 268.592,129.045 268.592,128.23 L268.592,128.009 C268.592,127.228 268.817,126.581 269.268,126.07 C269.719,125.559 270.27,125.303 270.92,125.303 C271.647,125.303 272.193,125.53 272.557,125.983 C272.92,126.435 273.102,127.037 273.102,127.787 L273.102,128.31 L269.622,128.31 L269.608,128.336 C269.608,128.882 269.728,129.326 269.97,129.666 C270.211,130.006 270.58,130.176 271.076,130.176 C271.411,130.176 271.706,130.128 271.958,130.033 C272.198978,129.94504 272.420458,129.810862 272.61,129.638 L272.997,130.282 C272.773065,130.48811 272.511677,130.649356 272.227,130.757 C271.909,130.886 271.525,130.95 271.076,130.95 L271.075,130.95 Z M270.92,126.083 C270.575,126.083 270.289,126.216 270.063,126.483 C269.836,126.749 269.698,127.09 269.648,127.506 L269.658,127.531 L272.112,127.531 L272.112,127.451 C272.112,127.055 272.014,126.728 271.82,126.47 C271.626,126.212 271.326,126.083 270.92,126.083 Z M275.285,130.845 L274.294,130.845 L274.294,123 L275.284,123 L275.284,130.845 L275.285,130.845 Z M279.061,130.95 C278.28,130.95 277.671,130.7 277.233,130.201 C276.796,129.701 276.577,129.045 276.577,128.23 L276.577,128.009 C276.577,127.228 276.802,126.581 277.253,126.07 C277.704,125.559 278.255,125.303 278.905,125.303 C279.633,125.303 280.178,125.53 280.542,125.983 C280.906,126.435 281.087,127.037 281.087,127.787 L281.087,128.31 L277.607,128.31 L277.593,128.336 C277.593,128.882 277.713,129.326 277.955,129.666 C278.196,130.006 278.565,130.176 279.061,130.176 C279.396,130.176 279.691,130.128 279.943,130.033 C280.183978,129.94504 280.405458,129.810862 280.595,129.638 L280.982,130.282 C280.758065,130.48811 280.496677,130.649356 280.212,130.757 C279.894,130.886 279.51,130.95 279.061,130.95 Z M278.905,126.083 C278.56,126.083 278.274,126.216 278.048,126.483 C277.821,126.749 277.683,127.09 277.633,127.506 L277.643,127.531 L280.097,127.531 L280.097,127.451 C280.097,127.055 280,126.728 279.805,126.47 C279.611,126.212 279.311,126.083 278.905,126.083 Z M285.362,129.381 C285.366911,129.173949 285.274346,128.9766 285.112,128.848 C284.947,128.711 284.632,128.59 284.17,128.486 C283.53,128.349 283.038,128.156 282.694,127.908 C282.364083,127.685684 282.170011,127.31073 282.179,126.913 C282.179,126.47 282.367,126.091 282.744,125.776 C283.121,125.461 283.61,125.303 284.21,125.303 C284.827,125.303 285.326,125.471 285.709,125.806 C286.091,126.141 286.273,126.532 286.257,126.978 L286.247,127.008 L285.301,127.008 C285.301,126.773 285.198,126.561 284.992,126.369 C284.786,126.179 284.525,126.083 284.21,126.083 C283.861,126.083 283.6,126.162 283.428,126.319 C283.263127,126.459487 283.168403,126.665391 283.169,126.882 C283.169,127.097 283.244,127.262 283.393,127.38 C283.543,127.497 283.85,127.605 284.316,127.702 C284.983,127.842 285.489,128.042 285.834,128.3 C286.18,128.558 286.352,128.895 286.352,129.311 C286.352,129.794 286.157,130.188 285.766,130.493 C285.376,130.798 284.866,130.95 284.236,130.95 C283.541,130.95 282.995,130.774 282.596,130.422 C282.197,130.07 282.008,129.66 282.028,129.19 L282.038,129.16 L282.983,129.16 C283,129.512 283.131,129.77 283.375,129.932 C283.62,130.095 283.907,130.176 284.235,130.176 C284.587,130.176 284.863,130.101 285.062,129.952 C285.262,129.803 285.362,129.612 285.362,129.382 L285.362,129.381 Z M290.928,130.845 C290.898024,130.700741 290.872014,130.555686 290.85,130.41 C290.831437,130.284104 290.820418,130.157211 290.817,130.03 C290.626064,130.297462 290.380259,130.521108 290.096,130.686 C289.80682,130.859958 289.475468,130.95127 289.138,130.95 C288.571,130.95 288.14,130.805 287.843,130.515 C287.546,130.225 287.398,129.825 287.398,129.316 C287.398,128.796 287.608,128.39 288.029,128.096 C288.449,127.803 289.021,127.656 289.741,127.656 L290.817,127.656 L290.817,127.119 C290.817,126.8 290.72,126.548 290.526,126.362 C290.331,126.176 290.056,126.082 289.701,126.082 C289.379,126.082 289.119,126.163 288.921,126.324 C288.724,126.485 288.625,126.678 288.625,126.902 L287.685,126.912 L287.675,126.882 C287.651,126.487 287.836,126.125 288.23,125.796 C288.624,125.468 289.133,125.303 289.756,125.303 C290.373,125.303 290.869,125.46 291.245,125.773 C291.62,126.087 291.808,126.539 291.808,127.129 L291.808,129.749 C291.808,129.943 291.818,130.131 291.838,130.312 C291.858,130.492 291.895,130.67 291.948,130.845 L290.928,130.845 Z M289.284,130.121 C289.642,130.121 289.966,130.028 290.254,129.844 C290.542,129.66 290.73,129.448 290.817,129.21 L290.817,128.325 L289.707,128.325 C289.307,128.325 288.987,128.426 288.748,128.627 C288.508,128.828 288.388,129.065 288.388,129.337 C288.388,129.577 288.464,129.769 288.615,129.909 C288.765,130.05 288.989,130.121 289.284,130.121 Z M294.317,130.845 L293.327,130.845 L293.327,125.404 L294.317,125.404 L294.317,130.844 L294.317,130.845 Z M294.317,124.011 L293.327,124.011 L293.327,123.001 L294.317,123.001 L294.317,124.011 Z" id="Shape" fill="#2A3052" fill-rule="nonzero"></path>
        </g>
    </g>
</svg>