<svg width="300" height="199" viewBox="0 0 300 199" xmlns="http://www.w3.org/2000/svg"><title>Indonesian Odd</title><g fill="none" fill-rule="evenodd"><path fill="#F1F2F2" d="M0 0h300v199H0z"/><path d="M39.125 55.375V74.75H75.25V55.375H39.125zm0-1H75.25V34h1v20.375h36.125V34h1v20.375H149.5V34h1v20.375h36.125V34h1v20.375h36.125V34h1v20.375h36.125V34h1v20.375H299.5v1h-37.625V74.75H299.5v1h-37.625v19.375H299.5v1h-37.625V115.5H299.5v1h-37.625v19.375H299.5v1h-37.625v19.375H299.5v1h-37.625v19.375H299.5v1h-37.625V199h-1v-21.375H224.75V199h-1v-21.375h-36.125V199h-1v-21.375H150.5V199h-1v-21.375h-36.125V199h-1v-21.375H76.25V199h-1v-21.375H39.125V199h-1v-21.375H1.5v-1h36.625V157.25H1.5v-1h36.625v-19.375H1.5v-1h36.625V116.5H1.5v-1h36.625V96.125H1.5v-1h36.625V75.75H1.5v-1h36.625V55.375H1.5v-1h36.625V34h1v20.375zm221.75 1H224.75V74.75h36.125V55.375zm-37.125 0h-36.125V74.75h36.125V55.375zm-37.125 0H150.5V74.75h36.125V55.375zm-37.125 0h-36.125V74.75H149.5V55.375zm-37.125 0H76.25V74.75h36.125V55.375zM39.125 75.75v19.375H75.25V75.75H39.125zm221.75 0H224.75v19.375h36.125V75.75zm-37.125 0h-36.125v19.375h36.125V75.75zm-37.125 0H150.5v19.375h36.125V75.75zm-37.125 0h-36.125v19.375H149.5V75.75zm-37.125 0H76.25v19.375h36.125V75.75zm-73.25 20.375V115.5H75.25V96.125H39.125zm221.75 0H224.75V115.5h36.125V96.125zm-37.125 0h-36.125V115.5h36.125V96.125zm-37.125 0H150.5V115.5h36.125V96.125zm-37.125 0h-36.125V115.5H149.5V96.125zm-37.125 0H76.25V115.5h36.125V96.125zM39.125 116.5v19.375H75.25V116.5H39.125zm221.75 0H224.75v19.375h36.125V116.5zm-37.125 0h-36.125v19.375h36.125V116.5zm-37.125 0H150.5v19.375h36.125V116.5zm-37.125 0h-36.125v19.375H149.5V116.5zm-37.125 0H76.25v19.375h36.125V116.5zm-73.25 20.375v19.375H75.25v-19.375H39.125zm221.75 0H224.75v19.375h36.125v-19.375zm-37.125 0h-36.125v19.375h36.125v-19.375zm-37.125 0H150.5v19.375h36.125v-19.375zm-37.125 0h-36.125v19.375H149.5v-19.375zm-37.125 0H76.25v19.375h36.125v-19.375zm-73.25 20.375v19.375H75.25V157.25H39.125zm221.75 0H224.75v19.375h36.125V157.25zm-37.125 0h-36.125v19.375h36.125V157.25zm-37.125 0H150.5v19.375h36.125V157.25zm-37.125 0h-36.125v19.375H149.5V157.25zm-37.125 0H76.25v19.375h36.125V157.25z" fill="#DFDEDE"/><path stroke="#C2C2C2" stroke-width="2" d="M1 1h298v197H1z"/><path fill="#C2C2C2" d="M0 33h300v2H0z"/><g transform="translate(3 65.277)"><path d="M.62 30.228h293.334" stroke="#293052" stroke-width="1.215" stroke-linejoin="round" stroke-dasharray="3.608"/><path stroke="#293052" stroke-width="3.608" stroke-linecap="round" stroke-linejoin="round" d="M36.058 50.873l37.12-36.46L110.3 65.676l37.006-28.904 37.197 34.747 74.242-41.291"/><path d="M184.82 80.297h-35.4L143.84 72l-5.353 8.297h-35.4c-2.64 0-4.779 2.18-4.779 4.87v25.202c0 2.69 2.14 4.87 4.779 4.87h81.735a4.731 4.731 0 0 0 3.453-1.385 4.915 4.915 0 0 0 1.44-3.485V85.205a4.916 4.916 0 0 0-1.426-3.51 4.731 4.731 0 0 0-3.467-1.398z" fill="#E88024" fill-rule="nonzero"/><ellipse cx="10.437" cy="9.855" rx="8.219" ry="8.609" opacity=".6" transform="translate(248.308 21.541)" fill="#FFF" fill-rule="nonzero"/><ellipse stroke="#E88024" stroke-width="2.43" cx="258.745" cy="31.397" rx="8.219" ry="8.609"/><ellipse cx="9.481" cy="9.855" rx="8.219" ry="8.609" opacity=".6" transform="translate(26.577 41.018)" fill="#FFF" fill-rule="nonzero"/><ellipse stroke="#E88024" stroke-width="2.43" cx="36.058" cy="50.873" rx="8.219" ry="8.609"/><path fill="#E88024" fill-rule="nonzero" d="M246.053.818h25.346v16.984h-25.346z"/><path fill="#E88024" fill-rule="nonzero" d="M256.263 17.757l2.406-2.406 2.451 2.452-2.406 2.406z"/><path d="M261.077 11.18h1.414v1.13h-1.414v2.414h-1.3V12.31h-4.74v-.818l4.74-7.323h1.491v7.012h-.191zm-4.55 0h3.25V6.233v.35l-3.25 4.597z" fill="#FFF" fill-rule="nonzero"/><path fill="#D5D3DA" fill-rule="nonzero" d="M134.728 14.413h25.347v16.984h-25.347z"/><path fill="#D5D3DA" fill-rule="nonzero" d="M144.965 31.347l2.406-2.406 2.451 2.452-2.406 2.406z"/><path d="M146.044 22.36h1.224c.48.045.954-.126 1.3-.468.275-.382.41-.851.382-1.325a1.931 1.931 0 0 0-.459-1.363 1.701 1.701 0 0 0-1.3-.467 1.778 1.778 0 0 0-1.3.506 1.77 1.77 0 0 0-.497 1.286h-1.3a2.59 2.59 0 0 1 .995-2.104 3.767 3.767 0 0 1 4.625 0c.586.58.893 1.39.841 2.22a2.53 2.53 0 0 1-1.567 2.299 2.296 2.296 0 0 1 1.338.973c.256.45.388.961.382 1.48a2.87 2.87 0 0 1-.917 2.26 3.438 3.438 0 0 1-2.37.818 3.512 3.512 0 0 1-2.332-.78 2.51 2.51 0 0 1-1.07-2.258h1.375c-.024.493.156.974.497 1.324.375.348.87.53 1.377.506a1.928 1.928 0 0 0 1.414-.506c.313-.366.477-.84.459-1.324a1.656 1.656 0 0 0-.443-1.458 1.587 1.587 0 0 0-1.43-.451h-1.224v-1.169z" fill="#293052" fill-rule="nonzero"/><path fill="#D5D3DA" fill-rule="nonzero" d="M23.366 19.788h25.346v16.984H23.366z"/><path fill="#D5D3DA" fill-rule="nonzero" d="M33.623 36.766l2.406-2.406 2.451 2.451-2.406 2.406z"/><path fill="#293052" fill-rule="nonzero" d="M36.784 33.695h-1.376V24.54h-2.14v-1.013l3.516-.39v10.557z"/></g><g fill="#2A3052"><path d="M50.803 139.298c-.032-.16-.032-.287-.032-.446-.223.319-.51.574-.86.797-.352.223-.734.32-1.15.32-.669 0-1.18-.16-1.53-.543a1.946 1.946 0 0 1-.542-1.436c0-.638.255-1.116.765-1.467.51-.35 1.18-.542 2.042-.542h1.275v-.638c0-.383-.127-.702-.35-.925-.224-.223-.575-.351-.99-.351-.382 0-.701.096-.924.287-.224.191-.351.447-.351.702h-1.117v-.032c-.031-.479.192-.925.67-1.308.479-.383 1.085-.606 1.818-.606.734 0 1.34.191 1.787.574.446.383.67.925.67 1.627v3.158c0 .223 0 .446.031.67.032.223.064.446.128.638h-1.244v.063a18.2 18.2 0 0 0-.096-.542zm-1.93-.383c.414 0 .829-.095 1.148-.319.35-.223.574-.478.67-.765v-1.053h-1.308c-.479 0-.861.128-1.148.351a1.07 1.07 0 0 0-.415.861c0 .288.096.51.255.702.192.128.447.223.798.223zM40.591 133.152h1.177v6.662h-1.177v-.988c-.374.482-.99 1.258-2.226 1.127-1.236-.13-2-1.1-2.006-2.169-.005-1.068.006-4.994 0-4.632h1.168v2.524c0 2.952.649 3.28 1.537 3.28.887 0 1.323-.75 1.527-1.001-.01-1.403-.01-3.004 0-4.803zM33.199 139.891h1.189v-8.987h-1.476L30 138.266l-2.883-7.362H25.52v8.987h1.184l.056-6.988 2.789 6.988h.9l2.75-6.788zM43.648 130.278h1.215v9.606h-1.215zM53.794 133.248h1.197v6.584h-1.197zM53.81 130.258v1.187h1.22v-1.187z"/></g><g fill="#2A3052"><path d="M247.021 118.375c0-.365-.14-.645-.393-.898-.252-.224-.73-.449-1.403-.59-.814-.196-1.46-.476-1.908-.87a1.835 1.835 0 0 1-.674-1.43c0-.618.253-1.123.73-1.516.477-.421 1.122-.618 1.908-.618.842 0 1.516.225 2.02.702.506.477.73 1.01.73 1.628v.028h-1.01c0-.45-.14-.814-.449-1.095-.309-.28-.73-.42-1.29-.42-.506 0-.927.112-1.18.364-.28.224-.436.568-.42.926 0 .337.14.618.448.842.31.225.786.421 1.46.59.814.196 1.431.505 1.852.898.421.393.646.898.646 1.46 0 .617-.253 1.122-.758 1.515-.505.393-1.179.561-1.993.561-.757 0-1.46-.225-2.048-.646-.59-.42-.87-.982-.87-1.683v-.028h.982c0 .505.168.87.533 1.15.365.28.814.393 1.347.393s.926-.112 1.235-.337c.365-.224.505-.533.505-.926zM267.124 118.346c-.2-.177-.576-.354-1.107-.465-.643-.155-1.152-.376-1.506-.686a1.448 1.448 0 0 1-.531-1.13c0-.486.199-.885.575-1.195.377-.332.886-.487 1.506-.487.664 0 1.195.177 1.594.553.398.377.576.797.576 1.285v.022h-.797c0-.355-.111-.642-.355-.864-.243-.221-.575-.332-1.018-.332-.399 0-.73.089-.93.288a.886.886 0 0 0-.332.73c0 .266.11.488.354.665.244.177.62.332 1.151.465.642.155 1.13.398 1.462.708.332.31.509.709.509 1.152 0 .487-.2.885-.598 1.195-.398.31-.93.443-1.572.443a2.75 2.75 0 0 1-1.616-.51c-.465-.331-.687-.774-.687-1.328v-.022h.775c0 .399.133.687.421.908.288.221.642.31 1.063.31.42 0 .73-.089.974-.266.288-.177.399-.42.399-.73 0-.288-.111-.51-.31-.709z" fill-rule="nonzero"/><path d="M273.075 119.777c-.027-.136-.027-.245-.027-.382a2.527 2.527 0 0 1-.737.682c-.3.191-.627.273-.982.273-.573 0-1.01-.136-1.31-.464a1.664 1.664 0 0 1-.463-1.227c0-.546.218-.955.655-1.255.436-.3 1.009-.464 1.746-.464h1.09v-.546c0-.327-.108-.6-.3-.79-.19-.192-.49-.3-.845-.3-.327 0-.6.081-.791.245a.804.804 0 0 0-.3.6h-.955v-.027c-.027-.41.164-.791.573-1.119.41-.327.927-.518 1.555-.518.627 0 1.146.164 1.528.49.381.328.572.792.572 1.392v2.7c0 .192 0 .383.028.574.027.19.054.382.109.545h-1.064v.055c-.027-.164-.055-.327-.082-.464zm-1.651-.327c.354 0 .71-.082.982-.273.3-.19.49-.41.573-.655v-.9h-1.119c-.409 0-.736.11-.982.3a.915.915 0 0 0-.354.737c0 .245.081.436.218.6.163.109.382.19.682.19zM253.883 117.63h-3.723c0 .69.141 1.19.423 1.498.371.405.762.552 1.297.499.935-.094 1.115-.344 1.502-.565l.394.676c-.46.476-1.197.714-2.21.714-1.52 0-2.446-1.26-2.506-2.758-.06-1.499.537-3.238 2.506-3.311 1.668.044 2.44 1.126 2.317 3.246zm-1.045-.825c-.01-1.054-.434-1.581-1.271-1.581s-1.294.527-1.372 1.581h2.643zM262.658 117.63h-3.724c0 .69.141 1.19.424 1.498.37.405.761.552 1.296.499.935-.094 1.116-.344 1.502-.565l.395.676c-.461.476-1.198.714-2.21.714-1.52 0-2.446-1.26-2.507-2.758-.06-1.499.538-3.238 2.506-3.311 1.668.044 2.441 1.126 2.318 3.246zm-1.046-.825c-.01-1.054-.434-1.581-1.27-1.581-.837 0-1.295.527-1.373 1.581h2.643zM255.445 112.056h.98v8.396h-.98zM275.697 114.502h1.065v5.862h-1.065zM275.711 111.84v1.057h1.085v-1.057z"/></g><g fill="#FFF"><path d="M173.35 164.792h-2.523v-8.348h2.523zM173.35 169.184h-2.523v-2.243h2.523z"/><g><path d="M143.864 158.576c2.923 0 4.508 1.782 4.909 4.451.4 2.67-1.04 6.44-4.704 6.44-3.662 0-4.847-2.785-4.847-5.667 0-2.882 1.719-5.224 4.642-5.224zm.026 1.87c-.869.082-2.408.69-2.318 3.572.09 2.882 1.35 3.56 2.318 3.56.969 0 2.602-.269 2.602-3.547 0-3.279-1.733-3.667-2.602-3.585zM138.605 158.644c-.096.906-.2 1.65-.315 2.234-1.139-.073-2.322-.181-2.839 1.15l.014 7.16h-2.344v-10.46h2.085c.1.698.163 1.207.187 1.527.72-1.346 1.791-1.883 3.212-1.61zM123.531 169.189h-2.386v-13.984h6.148c1.926 0 4.561 1.606 4.273 4.79-.193 2.123-1.617 3.41-4.273 3.863h-3.762v5.33zm.012-7.186h3.155c.778 0 2.518-.54 2.518-2.543 0-2.004-1.723-2.464-2.518-2.437-.53.018-1.582.009-3.155-.027v5.007zM156.372 154.08c-.109.558-.166 1.112-.252 1.82-.362-.08-2.396-.594-2.445 1.611v1.217h1.936v1.687h-1.936l.049 8.774h-2.422v-8.774h-1.526v-1.687h1.617c-.167-2.154.268-3.569 1.306-4.244 1.557-1.012 3.09-.594 3.673-.404zM158.127 158.752h2.344v10.382h-2.344zM158.173 154.165v1.986h2.332v-1.986zM166.883 156.221v2.582h1.807v1.712h-1.807v6.189c0 1.25 1.582.836 1.686.784l.277 1.653c-.155.103-3.925 1.444-4.326-2.437v-6.19h-1.555v-1.71h1.555v-2.583h2.363z"/></g></g><path d="M27.024 18.346c0 1.313-.413 2.396-1.238 3.248-.825.852-1.9 1.278-3.223 1.278-1.318 0-2.387-.427-3.208-1.282-.82-.854-1.23-1.936-1.23-3.244v-1.92c0-1.303.409-2.383 1.227-3.24.818-.857 1.883-1.286 3.197-1.286 1.323 0 2.4.429 3.23 1.286.83.857 1.245 1.937 1.245 3.24v1.92zm-2.131-1.934c0-.83-.208-1.511-.623-2.043-.415-.533-.989-.799-1.721-.799-.723 0-1.286.266-1.688.799-.403.532-.605 1.213-.605 2.043v1.934c0 .844.203 1.533.608 2.065.406.532.972.798 1.7.798.732 0 1.303-.266 1.713-.798.41-.532.616-1.22.616-2.065v-1.934zm3.332 2.41c0-1.25.27-2.259.81-3.025.539-.767 1.3-1.15 2.28-1.15.396 0 .753.085 1.07.256.318.171.596.415.835.733v-4.344h2.146v11.426h-1.824l-.183-.974a2.65 2.65 0 0 1-.886.839c-.342.193-.732.29-1.172.29-.971 0-1.727-.357-2.267-1.07-.54-.713-.809-1.656-.809-2.827v-.154zm2.131.154c0 .693.118 1.239.352 1.637.234.398.615.596 1.143.596.307 0 .576-.062.805-.186a1.49 1.49 0 0 0 .564-.546v-3.376a1.646 1.646 0 0 0-.56-.583 1.49 1.49 0 0 0-.795-.208c-.522 0-.904.232-1.146.695-.242.464-.363 1.07-.363 1.817v.154zm6.336-.154c0-1.25.27-2.259.81-3.025.539-.767 1.3-1.15 2.28-1.15.396 0 .753.085 1.07.256.317.171.596.415.835.733v-4.344h2.146v11.426h-1.824l-.183-.974a2.65 2.65 0 0 1-.886.839c-.342.193-.732.29-1.172.29-.972 0-1.727-.357-2.267-1.07-.54-.713-.81-1.656-.81-2.827v-.154zm2.131.154c0 .693.117 1.239.352 1.637.234.398.615.596 1.142.596.308 0 .577-.062.806-.186a1.49 1.49 0 0 0 .564-.546v-3.376a1.646 1.646 0 0 0-.56-.583 1.49 1.49 0 0 0-.795-.208c-.522 0-.905.232-1.146.695-.242.464-.363 1.07-.363 1.817v.154z" fill="#020202"/></g></svg>