<?xml version="1.0" encoding="UTF-8"?>
<svg width="299px" height="197px" viewBox="0 0 299 197" version="1.1" xmlns="http://www.w3.org/2000/svg" xmlns:xlink="http://www.w3.org/1999/xlink">
    <!-- Generator: Sketch 52.6 (67491) - http://www.bohemiancoding.com/sketch -->
    <title>over</title>
    <desc>Created with Sketch.</desc>
    <g id="Page-1" stroke="none" stroke-width="1" fill="none" fill-rule="evenodd">
        <g id="over">
            <g id="Group">
                <polygon id="Path" fill="#F1F1F2" points="0 0 299 0 299 197 0 197"></polygon>
                <path d="M1.98671096,1.9798995 L1.98671096,195.020101 L297.013289,195.020101 L297.013289,1.9798995 L1.98671096,1.9798995 Z M299,0 L299,197 L0,197 L0,0 L299,0 Z" id="Path" fill="#C2C2C2" fill-rule="nonzero"></path>
                <path d="M4.57962025,54.9933135 L4.57962025,53.7813019 L294.988101,53.7813019 L294.988101,54.9933135 L4.57962025,54.9933135 Z M4.57962025,75.0721596 L4.57962025,73.860148 L294.988101,73.860148 L294.988101,75.0721596 L4.57962025,75.0721596 Z M4.57962025,135.346583 L4.57962025,134.134571 L294.988101,134.134571 L294.988101,135.346583 L4.57962025,135.346583 Z M4.57962025,155.425429 L4.57962025,154.213417 L294.988101,154.213417 L294.988101,155.425429 L4.57962025,155.425429 Z M4.57962025,175.504275 L4.57962025,174.292263 L294.988101,174.292263 L294.988101,175.504275 L4.57962025,175.504275 Z M39.0588043,34.3084615 L40.2708159,34.3084615 L40.2708159,192.590385 L39.0588043,192.590385 L39.0588043,34.3084615 Z M75.8093107,34.3084615 L77.0213223,34.3084615 L77.0213223,192.590385 L75.8093107,192.590385 L75.8093107,34.3084615 Z M112.559817,34.3084615 L113.771829,34.3084615 L113.771829,192.590385 L112.559817,192.590385 L112.559817,34.3084615 Z M149.272475,34.3084615 L150.484487,34.3084615 L150.484487,192.590385 L149.272475,192.590385 L149.272475,34.3084615 Z M186.022981,34.3084615 L187.234993,34.3084615 L187.234993,192.590385 L186.022981,192.590385 L186.022981,34.3084615 Z M222.773488,34.3084615 L223.9855,34.3084615 L223.9855,192.590385 L222.773488,192.590385 L222.773488,34.3084615 Z M259.523994,34.3084615 L260.736006,34.3084615 L260.736006,192.590385 L259.523994,192.590385 L259.523994,34.3084615 Z M4.57962025,115.267737 L4.57962025,114.055725 L294.988101,114.055725 L294.988101,115.267737 L4.57962025,115.267737 Z" id="Shape" fill="#DEDEDD" fill-rule="nonzero"></path>
                <path d="M10.0297468,95.1888904 L10.0297468,93.9768788 L13.6657813,93.9768788 L13.6657813,95.1888904 L10.0297468,95.1888904 Z M17.3018158,95.1888904 L17.3018158,93.9768788 L20.9378503,93.9768788 L20.9378503,95.1888904 L17.3018158,95.1888904 Z M24.5738848,95.1888904 L24.5738848,93.9768788 L28.2099192,93.9768788 L28.2099192,95.1888904 L24.5738848,95.1888904 Z M31.8459537,95.1888904 L31.8459537,93.9768788 L35.4819882,93.9768788 L35.4819882,95.1888904 L31.8459537,95.1888904 Z M39.1180227,95.1888904 L39.1180227,93.9768788 L42.7540572,93.9768788 L42.7540572,95.1888904 L39.1180227,95.1888904 Z M46.3900917,95.1888904 L46.3900917,93.9768788 L50.0261262,93.9768788 L50.0261262,95.1888904 L46.3900917,95.1888904 Z M53.6621607,95.1888904 L53.6621607,93.9768788 L57.2981952,93.9768788 L57.2981952,95.1888904 L53.6621607,95.1888904 Z M60.9342296,95.1888904 L60.9342296,93.9768788 L64.5702641,93.9768788 L64.5702641,95.1888904 L60.9342296,95.1888904 Z M68.2062986,95.1888904 L68.2062986,93.9768788 L71.8423331,93.9768788 L71.8423331,95.1888904 L68.2062986,95.1888904 Z M75.4783676,95.1888904 L75.4783676,93.9768788 L79.1144021,93.9768788 L79.1144021,95.1888904 L75.4783676,95.1888904 Z M82.7504366,95.1888904 L82.7504366,93.9768788 L86.3864711,93.9768788 L86.3864711,95.1888904 L82.7504366,95.1888904 Z M90.0225056,95.1888904 L90.0225056,93.9768788 L93.65854,93.9768788 L93.65854,95.1888904 L90.0225056,95.1888904 Z M97.2945745,95.1888904 L97.2945745,93.9768788 L100.930609,93.9768788 L100.930609,95.1888904 L97.2945745,95.1888904 Z M104.566644,95.1888904 L104.566644,93.9768788 L108.202678,93.9768788 L108.202678,95.1888904 L104.566644,95.1888904 Z M111.838712,95.1888904 L111.838712,93.9768788 L115.474747,93.9768788 L115.474747,95.1888904 L111.838712,95.1888904 Z M119.110781,95.1888904 L119.110781,93.9768788 L122.746816,93.9768788 L122.746816,95.1888904 L119.110781,95.1888904 Z M126.38285,95.1888904 L126.38285,93.9768788 L130.018885,93.9768788 L130.018885,95.1888904 L126.38285,95.1888904 Z M133.654919,95.1888904 L133.654919,93.9768788 L137.290954,93.9768788 L137.290954,95.1888904 L133.654919,95.1888904 Z M140.926988,95.1888904 L140.926988,93.9768788 L144.563023,93.9768788 L144.563023,95.1888904 L140.926988,95.1888904 Z M148.199057,95.1888904 L148.199057,93.9768788 L151.835092,93.9768788 L151.835092,95.1888904 L148.199057,95.1888904 Z M155.471126,95.1888904 L155.471126,93.9768788 L159.107161,93.9768788 L159.107161,95.1888904 L155.471126,95.1888904 Z M162.743195,95.1888904 L162.743195,93.9768788 L166.37923,93.9768788 L166.37923,95.1888904 L162.743195,95.1888904 Z M170.015264,95.1888904 L170.015264,93.9768788 L173.651299,93.9768788 L173.651299,95.1888904 L170.015264,95.1888904 Z M177.287333,95.1888904 L177.287333,93.9768788 L180.923368,93.9768788 L180.923368,95.1888904 L177.287333,95.1888904 Z M184.559402,95.1888904 L184.559402,93.9768788 L188.195437,93.9768788 L188.195437,95.1888904 L184.559402,95.1888904 Z M191.831471,95.1888904 L191.831471,93.9768788 L195.467506,93.9768788 L195.467506,95.1888904 L191.831471,95.1888904 Z M199.10354,95.1888904 L199.10354,93.9768788 L202.739575,93.9768788 L202.739575,95.1888904 L199.10354,95.1888904 Z M206.375609,95.1888904 L206.375609,93.9768788 L210.011644,93.9768788 L210.011644,95.1888904 L206.375609,95.1888904 Z M213.647678,95.1888904 L213.647678,93.9768788 L217.283713,93.9768788 L217.283713,95.1888904 L213.647678,95.1888904 Z M220.919747,95.1888904 L220.919747,93.9768788 L224.555782,93.9768788 L224.555782,95.1888904 L220.919747,95.1888904 Z M228.191816,95.1888904 L228.191816,93.9768788 L231.827851,93.9768788 L231.827851,95.1888904 L228.191816,95.1888904 Z M235.463885,95.1888904 L235.463885,93.9768788 L239.09992,93.9768788 L239.09992,95.1888904 L235.463885,95.1888904 Z M242.735954,95.1888904 L242.735954,93.9768788 L246.371989,93.9768788 L246.371989,95.1888904 L242.735954,95.1888904 Z M250.008023,95.1888904 L250.008023,93.9768788 L253.644058,93.9768788 L253.644058,95.1888904 L250.008023,95.1888904 Z M257.280092,95.1888904 L257.280092,93.9768788 L260.916127,93.9768788 L260.916127,95.1888904 L257.280092,95.1888904 Z M264.552161,95.1888904 L264.552161,93.9768788 L268.188195,93.9768788 L268.188195,95.1888904 L264.552161,95.1888904 Z M271.82423,95.1888904 L271.82423,93.9768788 L275.460264,93.9768788 L275.460264,95.1888904 L271.82423,95.1888904 Z M279.096299,95.1888904 L279.096299,93.9768788 L282.732333,93.9768788 L282.732333,95.1888904 L279.096299,95.1888904 Z M286.368368,95.1888904 L286.368368,93.9768788 L290.004402,93.9768788 L290.004402,95.1888904 L286.368368,95.1888904 Z" id="Path" fill="#293052" fill-rule="nonzero"></path>
                <polygon id="Path" fill="#293052" points="4.57962025 95.1888904 4.57962025 93.9768788 6.39632911 93.9768788 6.39632911 95.1888904"></polygon>
                <polygon id="Path" fill="#293052" points="293.209241 95.1888904 293.209241 93.9768788 294.988101 93.9768788 294.988101 95.1888904"></polygon>
                <polygon id="Path" fill="#C2C2C2" points="1 30 1 28 298 28 298 30"></polygon>
                <path d="M24.4936709,15.3590385 C24.5217343,16.5150929 24.0854599,17.6341248 23.2825316,18.4655769 C22.4708182,19.3023115 21.343463,19.756441 20.1789873,19.7157692 C18.9679175,19.8160558 17.7750591,19.3717734 16.9240506,18.5034615 C16.1349247,17.6658756 15.7125617,16.5475795 15.7507595,15.3969231 L15.7507595,13.5026923 C15.7167467,12.3527335 16.1385242,11.2359879 16.9240506,10.3961538 C17.7213589,9.5612974 18.8365819,9.1065089 19.9897468,9.1459615 C21.1542225,9.1052898 22.2815777,9.5594192 23.0932911,10.3961538 C23.9657909,11.1957302 24.4720576,12.318809 24.4936709,13.5026923 L24.4936709,15.3590385 Z M22.3741772,13.5026923 C22.4021795,12.7961787 22.1885586,12.1012412 21.7686076,11.5326923 C21.3716128,11.0215599 20.7490574,10.7383071 20.1032911,10.775 C19.4693453,10.7443838 18.8608732,11.0276671 18.4758228,11.5326923 C18.0746396,12.1086838 17.8750346,12.8013156 17.9081013,13.5026923 L17.9081013,15.3590385 C17.8694407,16.0728563 18.069173,16.7792581 18.4758228,17.3669231 C18.8608732,17.8719483 19.4693453,18.1552316 20.1032911,18.1246154 C20.7490574,18.1613082 21.3716128,17.8780555 21.7686076,17.3669231 C22.1913411,16.7853546 22.4047969,16.0776003 22.3741772,15.3590385 L22.3741772,13.5026923 Z M28.6191139,16.7228846 L28.6191139,17.4426923 L28.6191139,16.7228846 L30.2087342,11.9494231 L32.3282278,11.9494231 L29.7167089,19.5263462 L27.7864557,19.5263462 L25.1749367,11.9494231 L27.3322785,11.9494231 L28.6191139,16.7228846 Z M36.491519,19.7157692 C35.5211594,19.770976 34.5726665,19.4132281 33.88,18.7307692 C33.2129361,17.9976318 32.8596368,17.031922 32.8959494,16.0409615 L32.8959494,15.7 C32.8581085,14.681116 33.1947493,13.6836979 33.8421519,12.8965385 C35.1970345,11.5631501 37.3696744,11.5631501 38.724557,12.8965385 C39.3250038,13.5870268 39.6367435,14.4824473 39.5950633,15.3969231 L39.5950633,16.5334615 L35.015443,16.5334615 C35.0280102,16.9950322 35.2021551,17.4375187 35.5074684,17.7836538 C35.8190305,18.1183307 36.2621378,18.2985167 36.7186076,18.2761538 C37.0951376,18.3305537 37.4775206,18.3305537 37.8540506,18.2761538 C38.1954373,18.1712814 38.5251792,18.0316406 38.8381013,17.8594231 L39.4058228,18.7307692 C39.0446598,19.0174823 38.6342098,19.2357443 38.1946835,19.3748077 C37.6497562,19.5821322 37.0741922,19.697356 36.491519,19.7157692 Z M36.491519,13.3890385 C36.1311861,13.3760314 35.7889687,13.5473052 35.5831646,13.8436538 C35.3443064,14.1778671 35.2004276,14.5706422 35.1668354,14.9801923 L37.7026582,14.9801923 L37.7026582,14.9423077 C37.7280558,14.5642302 37.6209839,14.1891171 37.3998734,13.8815385 C37.170519,13.5271758 36.758574,13.3357311 36.3401266,13.3890385 L36.491519,13.3890385 Z M44.7802532,13.73 L44.0232911,13.73 C43.7581377,13.7200836 43.495626,13.7857749 43.2663291,13.9194231 C43.0662263,14.0477829 42.9082754,14.2322368 42.8121519,14.4498077 L42.8121519,19.5642308 L40.7683544,19.5642308 L40.7683544,11.9873077 L42.6607595,11.9873077 L42.6607595,13.1238462 C42.8217606,12.7343677 43.0829344,12.3945141 43.4177215,12.1388462 C43.6967118,11.91513 44.0443118,11.7946909 44.4017722,11.7978846 L44.9694937,11.7978227 L44.7802532,13.73 Z" id="Shape" fill="#231F20" fill-rule="nonzero"></path>
                <path d="M222.098486,93.3196726 C222.796138,92.6121911 223.935225,92.6042234 224.642706,93.3018761 C225.350187,93.9995288 225.358155,95.1386152 224.660502,95.8460966 L192.905945,128.04802 C192.349395,128.612412 191.48904,128.746059 190.787502,128.377099 L149.238124,106.525008 L107.026241,130.918649 C106.50507,131.219827 105.867808,131.240407 105.32829,130.973483 L75.6175306,116.274252 C75.490378,116.211344 75.3711123,116.133618 75.262219,116.042692 L38.5117126,85.3561534 C37.7490288,84.7193153 37.6470108,83.5847786 38.283849,82.8220948 C38.9206871,82.059411 40.0552238,81.957393 40.8179076,82.5942312 L77.4045007,113.143903 L106.060202,127.32115 L148.29705,102.913082 C148.831898,102.604 149.48792,102.590936 150.03465,102.878478 L191.281081,124.57124 L222.098486,93.3196726 Z" id="Path" fill="#293052"></path>
                <path d="M255.777468,116.442308 L256.458734,109.850385 L262.438734,109.850385 L262.438734,111.29 L257.859114,111.29 L257.480633,114.661731 C257.738043,114.475843 258.017792,114.323106 258.313291,114.207115 C258.652819,114.082664 259.011462,114.018559 259.373038,114.017692 C260.360193,113.950487 261.323334,114.341704 261.984557,115.078462 C262.651589,115.913838 262.988369,116.965604 262.930759,118.033462 C262.983885,119.07757 262.646553,120.104048 261.984557,120.912692 C261.259172,121.675396 260.233747,122.07764 259.183797,122.011346 C258.265456,122.05097 257.364093,121.754715 256.647975,121.177885 C255.939311,120.566144 255.572238,119.647575 255.663924,118.715385 L257.14,118.715385 C257.108474,119.277866 257.314475,119.827731 257.707722,120.230769 C258.109708,120.597007 258.640887,120.787871 259.183797,120.761154 C259.799153,120.79461 260.392242,120.526049 260.773418,120.041346 C261.130742,119.423238 261.264403,118.700774 261.151899,117.995577 C261.182556,117.318016 260.982382,116.650124 260.584177,116.101346 C260.203002,115.616643 259.609912,115.348082 258.994557,115.381538 C258.520998,115.352997 258.048937,115.458001 257.632025,115.684615 C257.326598,115.895241 257.100158,116.201898 256.988608,116.555962 L255.777468,116.442308 Z M261.795316,137.013654 L263.422785,137.013654 L263.422785,138.301731 L261.795316,138.301731 L261.795316,141.067308 L260.167848,141.067308 L260.167848,138.263846 L254.793418,138.263846 L254.793418,137.354615 L260.054304,129.057885 L261.757468,129.057885 L261.757468,137.013654 L261.795316,137.013654 Z M256.53443,137.013654 L260.319241,137.013654 L260.319241,131.368846 L260.319241,131.785577 L256.53443,137.013654 Z M257.367089,154.743654 L258.767468,154.743654 C259.325709,154.800257 259.880259,154.605977 260.281392,154.213269 C260.609187,153.778876 260.770348,153.241154 260.73557,152.697885 C260.776505,152.136143 260.600373,151.580115 260.243544,151.144615 C259.837034,150.760667 259.286607,150.567832 258.72962,150.614231 C258.169097,150.591729 257.623226,150.796628 257.215696,151.1825 C256.828398,151.573883 256.62251,152.109709 256.647975,152.66 L255.247595,152.66 C255.21047,151.780519 255.572089,150.931287 256.231646,150.349038 C256.96996,149.695054 257.934074,149.35525 258.918861,149.401923 C259.880591,149.344251 260.828092,149.655873 261.568228,150.273269 C262.255029,150.932115 262.615311,151.861431 262.552278,152.811538 C262.533346,153.960056 261.83422,154.987423 260.773418,155.425577 C261.394692,155.595435 261.932881,155.985999 262.287342,156.524231 C263.063477,157.932888 262.799769,159.687467 261.643924,160.805192 C260.884299,161.448164 259.913111,161.785708 258.918861,161.752308 C257.935754,161.796492 256.969251,161.48745 256.193797,160.880962 C255.48866,160.296826 255.108184,159.408192 255.171899,158.494231 L256.723671,158.494231 C256.687313,159.05744 256.894027,159.609209 257.291392,160.009615 C257.724424,160.403533 258.296652,160.608097 258.881013,160.577885 C259.477619,160.614113 260.063833,160.409422 260.508481,160.009615 C261.019865,159.521741 261.260211,158.814159 261.151899,158.115385 C261.261216,157.51572 261.06945,156.900547 260.638836,156.469519 C260.208223,156.03849 259.593644,155.846539 258.994557,155.955962 L257.367089,155.955962 L257.367089,154.743654 Z M263.082152,181.073462 L255.323291,181.073462 L255.323291,179.936923 L259.108101,175.580192 C259.651976,175.014261 260.134103,174.391971 260.546329,173.723846 C260.786997,173.295384 260.917084,172.813596 260.92481,172.322115 C260.941776,171.768733 260.75296,171.22874 260.394937,170.806731 C260.046154,170.399807 259.529652,170.176239 258.994557,170.200577 C258.325428,170.149808 257.6659,170.383616 257.177848,170.844615 C256.755636,171.338615 256.538883,171.975942 256.572278,172.625192 L255.134051,172.625192 C255.078909,171.646589 255.451926,170.692405 256.155949,170.011154 C256.957697,169.274983 258.021649,168.892683 259.108101,168.950385 C260.058625,168.904874 260.987058,169.246538 261.681772,169.8975 C262.314128,170.52735 262.656813,171.391749 262.627975,172.284231 C262.623229,172.980647 262.426794,173.662279 262.060253,174.254231 C261.594171,175.016979 261.048634,175.728131 260.432785,176.375769 L257.291392,179.785385 L263.044304,179.785385 L263.044304,181.073462 L263.082152,181.073462 Z M263.082152,70.4882692 C261.869489,71.8485036 260.885274,73.3966187 260.167848,75.0723077 C259.607096,76.6382473 259.238529,78.2665926 259.070253,79.9215385 L259.070253,81.2096154 L257.367089,81.2096154 L257.367089,79.9215385 C257.56963,78.142856 258.041846,76.4054673 258.767468,74.7692308 C259.481062,73.2036759 260.397274,71.73887 261.492532,70.4125 L254.982658,70.4125 L254.982658,69.2001923 L263.082152,69.2001923 L263.082152,70.4882692 Z M262.627975,52.8719231 C262.636271,53.4586606 262.449918,54.0315833 262.098101,54.5009615 C261.732922,54.9880083 261.232789,55.3568833 260.659873,55.5617308 C261.307406,55.7829422 261.88292,56.1757167 262.32519,56.6982692 C262.72868,57.2027459 262.942935,57.8327298 262.930759,58.4788462 C262.988164,59.4513642 262.580815,60.39339 261.833165,61.0171154 C260.133059,62.1805904 257.893903,62.1805904 256.193797,61.0171154 C255.465135,60.3822325 255.073381,59.4439174 255.134051,58.4788462 C255.125034,57.8332267 255.338937,57.2042817 255.73962,56.6982692 C256.161986,56.1710277 256.72693,55.7765005 257.367089,55.5617308 C256.805853,55.3543828 256.318559,54.9852642 255.966709,54.5009615 C255.633332,54.0243688 255.460929,53.4535637 255.474684,52.8719231 C255.424696,51.9572075 255.7856,51.0679719 256.458734,50.4473077 C257.17932,49.848034 258.096344,49.537565 259.032405,49.5759615 C259.968466,49.537565 260.88549,49.848034 261.606076,50.4473077 C262.29776,51.0576082 262.67393,51.9501304 262.627975,52.8719231 Z M261.341139,58.4409615 C261.366212,57.8313483 261.132478,57.2395678 260.697722,56.8119231 C260.262978,56.3882281 259.676916,56.1563059 259.070253,56.1678846 C258.462817,56.1519793 257.875137,56.3845421 257.442785,56.8119231 C257.011995,57.2421888 256.778979,57.8321512 256.799367,58.4409615 C256.77548,59.0392461 257.009876,59.6189028 257.442785,60.0321154 C258.407122,60.7977403 259.771232,60.7977403 260.73557,60.0321154 C261.15882,59.6150064 261.379856,59.0342278 261.341139,58.4409615 Z M261.151899,52.9098077 C261.168403,52.3610051 260.963828,51.8285961 260.584177,51.4323077 C259.805108,50.671955 258.562487,50.671955 257.783418,51.4323077 C257.421115,51.8368295 257.230982,52.3669961 257.253544,52.9098077 C257.222542,53.4538761 257.413803,53.9871891 257.783418,54.3873077 C258.577435,55.1099451 259.79016,55.1099451 260.584177,54.3873077 C260.967573,53.9934105 261.172784,53.4593475 261.151899,52.9098077 Z" id="Shape" fill="#808184" fill-rule="nonzero"></path>
                <path d="M188.180759,145.158846 L153.133418,145.158846 L147.607595,137.089423 L142.308861,145.158846 L107.261519,145.158846 C104.648653,145.158846 102.530506,147.279036 102.530506,149.894423 L102.530506,174.405769 C102.530506,177.021156 104.648653,179.141346 107.261519,179.141346 L188.180759,179.141346 C189.455058,179.171968 190.687787,178.686593 191.599735,177.79516 C192.511683,176.903726 193.025684,175.681664 193.025316,174.405769 L193.025316,149.932308 C193.035937,148.649854 192.526447,147.417929 191.613353,146.518235 C190.700259,145.61854 189.461651,145.128022 188.180759,145.158846 Z" id="Path" fill="#E88024"></path>
                <g id="Oval" opacity="0.6" transform="translate(214.949367, 86.134615)" fill="#FFFFFF">
                    <ellipse cx="8.4301266" cy="8.44826923" rx="8.13734177" ry="8.3725"></ellipse>
                </g>
                <path d="M223.379494,104.167396 C218.20814,104.167396 214.030141,99.8686586 214.030141,94.5828846 C214.030141,89.2971106 218.20814,84.9983731 223.379494,84.9983731 C228.550848,84.9983731 232.728847,89.2971106 232.728847,94.5828846 C232.728847,99.8686586 228.550848,104.167396 223.379494,104.167396 Z M223.379494,101.743373 C227.196399,101.743373 230.304824,98.5451187 230.304824,94.5828846 C230.304824,90.6206505 227.196399,87.4223961 223.379494,87.4223961 C219.562589,87.4223961 216.454164,90.6206505 216.454164,94.5828846 C216.454164,98.5451187 219.562589,101.743373 223.379494,101.743373 Z" id="Oval" fill="#E88024" fill-rule="nonzero"></path>
                <polygon id="Path" fill="#E88024" points="246.277595 85.7557692 274.852911 85.7557692 274.852911 104.546538 246.277595 104.546538"></polygon>
                <path d="M259.978608,88.9001923 C260.393686,88.8545188 260.812516,88.8545188 261.227595,88.9001923 C261.616837,88.9915122 261.996905,89.1183239 262.363038,89.2790385 L261.946709,91.0217308 L260.962658,90.7565385 L259.978608,90.7565385 C259.299557,90.7445615 258.654515,91.0533575 258.237595,91.59 C257.766499,92.2488629 257.55123,93.0569009 257.632025,93.8630769 C257.921048,93.5756001 258.270015,93.3556681 258.653924,93.2190385 C259.102231,93.0555945 259.57737,92.9784707 260.054304,92.9917308 C261.020514,92.9495093 261.948742,93.3718383 262.552278,94.1282692 C263.182229,94.966617 263.503151,95.9972339 263.460633,97.0453846 C263.499611,98.155254 263.090334,99.2340572 262.32519,100.038269 C261.569615,100.833878 260.506426,101.262328 259.410886,101.212692 C258.23793,101.258483 257.10378,100.787772 256.307342,99.9246154 C255.473094,98.9328663 255.052867,97.6573993 255.134051,96.3634615 L255.134051,94.0146154 C255.051615,92.6184338 255.544003,91.2493707 256.496582,90.2261538 C257.419714,89.3142991 258.683403,88.8330842 259.978608,88.9001923 Z M259.410886,94.8480769 C259.020507,94.8415525 258.633286,94.9190716 258.275443,95.0753846 C257.989351,95.1971451 257.741048,95.3933628 257.556329,95.6436538 L257.556329,96.4392308 C257.505456,97.2085736 257.690311,97.9751393 258.086203,98.6365385 C258.37702,99.1099493 258.893529,99.3971756 259.448734,99.3942308 C259.933126,99.3918446 260.379832,99.1322165 260.622025,98.7123077 C260.964846,98.2240055 261.149788,97.6421993 261.151899,97.0453846 C261.182189,96.467308 261.022681,95.8951877 260.697722,95.4163462 C260.405575,95.0012912 259.916606,94.7709665 259.410886,94.8101923 L259.410886,94.8480769 Z" id="Shape" fill="#FFFFFF" fill-rule="nonzero"></path>
                <polygon id="Path" fill="#E88024" points="249.75962 95.1511538 246.428987 98.485 241.243797 95.1511538 246.428987 91.8551923"></polygon>
                <polygon id="Path" fill="#293052" points="247.56443 126.29216 247.56443 125.080148 270.462532 125.080148 270.462532 126.29216"></polygon>
            </g>
            <g id="Group" transform="translate(121.000000, 153.000000)" fill="#FFFFFF" fill-rule="nonzero">
                <path d="M52.67,11.706 L50.146,11.706 L50.146,3.358 L52.669,3.358 L52.67,11.706 Z M52.67,16.098 L50.146,16.098 L50.146,13.855 L52.669,13.855 L52.67,16.098 Z" id="Shape"></path>
                <path d="M23.183,5.49 C26.106,5.49 27.691,7.271 28.093,9.941 C28.493,12.611 27.052,16.381 23.389,16.381 C19.726,16.381 18.542,13.596 18.542,10.714 C18.542,7.832 20.26,5.49 23.183,5.49 Z M23.21,7.36 C22.34,7.442 20.801,8.05 20.891,10.932 C20.981,13.814 22.241,14.492 23.21,14.492 C24.178,14.492 25.811,14.222 25.811,10.944 C25.811,7.666 24.079,7.278 23.21,7.36 Z M17.925,5.558 C17.829,6.464 17.724,7.208 17.61,7.792 C16.47,7.718 15.288,7.61 14.77,8.942 L14.785,16.102 L12.44,16.102 L12.44,5.642 L14.526,5.642 C14.626,6.34 14.688,6.849 14.712,7.169 C15.433,5.823 16.504,5.286 17.925,5.559 L17.925,5.558 Z M2.851,16.103 L0.464,16.103 L0.464,2.119 L6.612,2.119 C8.539,2.119 11.174,3.724 10.885,6.909 C10.693,9.031 9.269,10.319 6.612,10.772 L2.851,10.772 L2.851,16.102 L2.851,16.103 Z M2.862,8.917 L6.018,8.917 C6.796,8.917 8.536,8.377 8.536,6.373 C8.536,4.37 6.812,3.91 6.018,3.937 C5.488,3.955 4.436,3.946 2.862,3.91 L2.862,8.917 Z M35.692,0.994 C35.582,1.552 35.526,2.106 35.44,2.814 C35.077,2.734 33.043,2.22 32.995,4.424 L32.995,5.642 L34.93,5.642 L34.93,7.329 L32.995,7.329 L33.043,16.103 L30.621,16.103 L30.621,7.329 L29.096,7.329 L29.096,5.642 L30.712,5.642 C30.545,3.488 30.981,2.073 32.018,1.398 C33.575,0.386 35.108,0.804 35.692,0.994 Z M37.447,5.666 L39.79,5.666 L39.79,16.048 L37.447,16.048 L37.447,5.666 Z M37.493,1.079 L37.493,3.064 L39.825,3.064 L39.825,1.079 L37.493,1.079 Z M46.202,3.135 L46.202,5.717 L48.01,5.717 L48.01,7.429 L46.202,7.429 L46.202,13.617 C46.202,14.867 47.785,14.453 47.888,14.402 L48.165,16.054 C48.01,16.158 44.24,17.499 43.839,13.617 L43.839,7.429 L42.284,7.429 L42.284,5.717 L43.839,5.717 L43.839,3.135 L46.202,3.135 Z" id="Shape"></path>
            </g>
            <path d="M271.042,14.757 L269.675,14.757 L269.675,13.314 L271.08,13.314 L271.08,14.757 L271.042,14.757 Z M271.042,20.947 L269.675,20.947 L269.675,19.504 L271.08,19.504 L271.08,20.947 L271.042,20.947 Z M277.004,16.314 L277.611,10.656 L282.776,10.656 L282.776,11.909 L278.979,11.909 L278.637,14.795 C278.86,14.638 279.102,14.51 279.358,14.415 C279.66,14.364 279.968,14.364 280.27,14.415 C281.116908,14.3600668 281.942314,14.6961247 282.51,15.327 C283.075,16.051 283.358,16.955 283.308,17.871 C283.338518,18.7798118 283.041871,19.6693975 282.472,20.378 C281.84289,21.0391553 280.952674,21.3868157 280.042,21.327 C279.135973,21.3571055 278.257373,21.0136202 277.612,20.377 C277.013957,19.855805 276.702901,19.0789087 276.776,18.289 L278.029,18.289 C278.005,18.769 278.184,19.239 278.523,19.58 C278.878,19.95 279.378,20.144 279.89,20.112 C280.49,20.171 281.075,19.893 281.409,19.39 C281.765,18.894 281.939,18.29 281.903,17.681 C281.927893,17.096755 281.753724,16.5213632 281.409,16.049 C281.086466,15.6229857 280.575913,15.3817152 280.042,15.403 C279.636133,15.3687314 279.228712,15.4476541 278.865,15.631 C278.606733,15.8167927 278.41917,16.0847398 278.333,16.391 L277.003,16.314 L277.004,16.314 Z" id="Shape" fill="#293052" fill-rule="nonzero"></path>
            <path d="M183.726,20.968 L183.726,11.055 L186.844,11.055 C188.138,11.055 189.178,11.454 189.966,12.25 C190.753,13.047 191.146,14.076 191.146,15.337 L191.146,16.692 C191.146,17.958 190.753,18.988 189.966,19.78 C189.178,20.572 188.138,20.968 186.844,20.968 L183.726,20.968 Z M185.068,12.111 L185.068,19.919 L186.844,19.919 C187.761,19.919 188.484,19.617 189.013,19.014 C189.541,18.41 189.806,17.636 189.806,16.692 L189.806,15.324 C189.806,14.389 189.541,13.62 189.013,13.016 C188.483,12.412 187.761,12.111 186.844,12.111 L185.068,12.111 Z M194.435,20.968 L193.094,20.968 L193.094,13.6 L194.435,13.6 L194.435,20.967 L194.435,20.968 Z M194.435,11.716 L193.094,11.716 L193.094,10.347 L194.435,10.347 L194.435,11.716 Z M196.26,17.421 C196.26,16.236 196.513,15.281 197.019,14.555 C197.525,13.828 198.232,13.465 199.139,13.465 C199.607,13.465 200.018,13.559 200.372,13.748 C200.726,13.936 201.022,14.208 201.263,14.561 L201.427,13.601 L202.496,13.601 L202.496,21.008 C202.496,21.952 202.221,22.678 201.672,23.183 C201.122,23.69 200.331,23.943 199.296,23.943 C198.942,23.943 198.56,23.893 198.149,23.796 C197.771339,23.710763 197.406304,23.5769842 197.063,23.398 L197.267,22.356 C197.526,22.493 197.837,22.603 198.203,22.686 C198.569,22.77 198.928,22.812 199.283,22.812 C199.936,22.812 200.411,22.664 200.709,22.367 C201.006,22.069 201.154,21.617 201.154,21.008 L201.154,20.171 C200.914,20.48 200.626,20.713 200.29,20.872 C199.924625,21.0373108 199.526953,21.1189635 199.126,21.111 C198.227,21.111 197.525,20.785 197.019,20.134 C196.513,19.482 196.259,18.626 196.259,17.564 L196.259,17.421 L196.26,17.421 Z M197.6,17.564 C197.6,18.304 197.753,18.898 198.057,19.347 C198.361,19.797 198.831,20.021 199.467,20.021 C199.87,20.021 200.208,19.929 200.48,19.746 C200.753,19.562 200.977,19.302 201.154,18.966 L201.154,15.576 C200.993715,15.2759605 200.762288,15.0198116 200.48,14.83 C200.204,14.646 199.87,14.555 199.48,14.555 C198.84,14.555 198.367,14.82 198.06,15.351 C197.754,15.882 197.6,16.572 197.6,17.421 L197.6,17.564 Z M205.872,20.968 L204.532,20.968 L204.532,13.6 L205.872,13.6 L205.872,20.967 L205.872,20.968 Z M205.872,11.716 L204.532,11.716 L204.532,10.347 L205.872,10.347 L205.872,11.716 Z M209.8,11.825 L209.8,13.6 L211.196,13.6 L211.196,14.594 L209.8,14.594 L209.8,19.067 C209.8,19.412 209.872,19.655 210.015,19.796 C210.158,19.936 210.347,20.006 210.583,20.006 C210.66,20.006 210.747,19.996 210.842,19.976 C210.937,19.956 211.017,19.934 211.08,19.911 L211.264,20.831 C211.164,20.912 211.017,20.979 210.822,21.031 C210.632971,21.0826691 210.437962,21.1092306 210.242,21.11 C209.698,21.11 209.265,20.945 208.942,20.616 C208.62,20.286 208.459,19.771 208.459,19.067 L208.459,14.594 L207.289,14.594 L207.289,13.6 L208.459,13.6 L208.459,11.824 L209.8,11.824 L209.8,11.825 Z M223.212,12.111 L219.944,12.111 L219.944,20.968 L218.603,20.968 L218.603,12.11 L215.376,12.11 L215.376,11.054 L223.212,11.054 L223.212,12.11 L223.212,12.111 Z M226.813,21.111 C225.756,21.111 224.931,20.772 224.339,20.096 C223.746,19.42 223.45,18.53 223.45,17.427 L223.45,17.127 C223.45,16.07 223.755,15.196 224.366,14.504 C224.976,13.811 225.722,13.465 226.602,13.465 C227.587,13.465 228.326,13.772 228.818,14.385 C229.311,14.997 229.557,15.812 229.557,16.828 L229.557,17.536 L224.846,17.536 L224.826,17.57 C224.826,18.31 224.989,18.91 225.316,19.371 C225.642,19.831 226.141,20.062 226.813,20.062 C227.267,20.062 227.665,19.997 228.008,19.868 C228.351,19.738 228.644,19.561 228.89,19.334 L229.414,20.205 C229.151,20.459 228.804,20.674 228.372,20.848 C227.941,21.023 227.422,21.111 226.813,21.111 Z M226.603,14.521 C226.135,14.521 225.748,14.701 225.441,15.061 C225.135,15.423 224.948,15.884 224.88,16.447 L224.893,16.481 L228.216,16.481 L228.216,16.372 C228.216,15.837 228.084,15.394 227.821,15.045 C227.557,14.695 227.151,14.521 226.602,14.521 L226.603,14.521 Z M234.547,14.786 L233.859,14.746 C233.505,14.746 233.207,14.829 232.964,14.997 C232.721,15.165 232.534,15.401 232.402,15.705 L232.402,20.968 L231.062,20.968 L231.062,13.6 L232.259,13.6 L232.389,14.676 C232.598,14.295 232.855,13.998 233.161,13.784 C233.468,13.571 233.821,13.464 234.221,13.464 C234.393623,13.4656533 234.56521,13.4908867 234.731,13.539 L234.547,14.785 L234.547,14.786 Z M240.47,20.968 C240.424,20.745 240.39,20.548 240.364,20.378 C240.339152,20.2080264 240.324459,20.0367225 240.32,19.865 C240.07,20.219 239.745,20.515 239.343,20.753 C238.951547,20.9887129 238.502939,21.1125384 238.046,21.111 C237.279,21.111 236.695,20.914 236.293,20.521 C235.891,20.129 235.691,19.588 235.691,18.898 C235.691,18.194 235.975,17.644 236.545,17.248 C237.115,16.85 237.887,16.651 238.863,16.651 L240.32,16.651 L240.32,15.923 C240.32,15.492 240.188,15.15 239.925,14.898 C239.662,14.646 239.29,14.521 238.809,14.521 C238.373,14.521 238.021,14.629 237.753,14.847 C237.486,15.065 237.352,15.327 237.352,15.63 L236.079,15.644 L236.065,15.603 C236.033,15.067 236.284,14.577 236.817,14.133 C237.351,13.688 238.039,13.465 238.883,13.465 C239.719,13.465 240.39,13.677 240.899,14.102 C241.407,14.526 241.661,15.138 241.661,15.937 L241.661,19.483 C241.661,19.747 241.675,20.001 241.701,20.246 C241.729,20.491 241.779,20.732 241.851,20.968 L240.47,20.968 Z M238.244,19.988 C238.729,19.988 239.167,19.862 239.557,19.613 C239.947,19.363 240.202,19.077 240.32,18.755 L240.32,17.557 L238.815,17.557 C238.275,17.557 237.843,17.693 237.518,17.965 C237.194,18.238 237.032,18.558 237.032,18.925 C237.032,19.252 237.134,19.511 237.338,19.701 C237.542,19.891 237.844,19.987 238.244,19.987 L238.244,19.988 Z M245.644,17.57 L244.956,17.57 L244.956,20.968 L243.615,20.968 L243.615,10.348 L244.956,10.348 L244.956,16.502 L245.63,16.502 L247.843,13.602 L249.449,13.602 L246.774,16.999 L249.681,20.968 L248.094,20.968 L245.644,17.57 Z M252.097,14.589 C252.352,14.235 252.664,13.959 253.034,13.761 C253.404,13.564 253.813,13.465 254.262,13.465 C255.047,13.465 255.659,13.701 256.097,14.173 C256.535,14.645 256.754,15.372 256.754,16.352 L256.754,20.968 L255.413,20.968 L255.413,16.338 C255.413,15.73 255.283,15.281 255.021,14.99 C254.761,14.7 254.371,14.555 253.854,14.555 C253.454,14.555 253.107,14.633 252.812,14.789 C252.520624,14.9421466 252.274192,15.1685885 252.097,15.446 L252.097,20.968 L250.757,20.968 L250.757,10.348 L252.097,10.348 L252.097,14.588 L252.097,14.589 Z M260.131,20.968 L258.79,20.968 L258.79,13.6 L260.13,13.6 L260.13,20.967 L260.131,20.968 Z M260.131,11.716 L258.79,11.716 L258.79,10.347 L260.13,10.347 L260.13,11.716 L260.131,11.716 Z M265.679,14.786 L264.991,14.746 C264.637,14.746 264.339,14.829 264.096,14.997 C263.853,15.165 263.666,15.401 263.535,15.705 L263.535,20.968 L262.193,20.968 L262.193,13.6 L263.392,13.6 L263.521,14.676 C263.73,14.295 263.987,13.998 264.294,13.784 C264.6,13.571 264.953,13.464 265.352,13.464 C265.524623,13.4656533 265.69621,13.4908867 265.862,13.539 L265.679,14.785 L265.679,14.786 Z" id="Shape" fill="#2A3052" fill-rule="nonzero"></path>
        </g>
    </g>
</svg>