<svg width="301" height="200" viewBox="0 0 301 200" xmlns="http://www.w3.org/2000/svg"><title>Indonesian rises</title><g fill="none" fill-rule="evenodd"><path fill="#F1F2F2" fill-rule="nonzero" d="M.637.406h300v199h-300z"/><path d="M39.762 55.781v19.375h36.125V55.781H39.762zm0-1h36.125V34.406h1v20.375h36.125V34.406h1v20.375h36.125V34.406h1v20.375h36.125V34.406h1v20.375h36.125V34.406h1v20.375h36.125V34.406h1v20.375h37.625v1h-37.625v19.375h37.625v1h-37.625v19.375h37.625v1h-37.625v19.375h37.625v1h-37.625v19.375h37.625v1h-37.625v19.375h37.625v1h-37.625v19.375h37.625v1h-37.625v21.375h-1v-21.375h-36.125v21.375h-1v-21.375h-36.125v21.375h-1v-21.375h-36.125v21.375h-1v-21.375h-36.125v21.375h-1v-21.375H76.887v21.375h-1v-21.375H39.762v21.375h-1v-21.375H2.137v-1h36.625v-19.375H2.137v-1h36.625v-19.375H2.137v-1h36.625v-19.375H2.137v-1h36.625V96.531H2.137v-1h36.625V76.156H2.137v-1h36.625V55.781H2.137v-1h36.625V34.406h1v20.375zm221.75 1h-36.125v19.375h36.125V55.781zm-37.125 0h-36.125v19.375h36.125V55.781zm-37.125 0h-36.125v19.375h36.125V55.781zm-37.125 0h-36.125v19.375h36.125V55.781zm-37.125 0H76.887v19.375h36.125V55.781zm-73.25 20.375v19.375h36.125V76.156H39.762zm221.75 0h-36.125v19.375h36.125V76.156zm-37.125 0h-36.125v19.375h36.125V76.156zm-37.125 0h-36.125v19.375h36.125V76.156zm-37.125 0h-36.125v19.375h36.125V76.156zm-37.125 0H76.887v19.375h36.125V76.156zm-73.25 20.375v19.375h36.125V96.531H39.762zm221.75 0h-36.125v19.375h36.125V96.531zm-37.125 0h-36.125v19.375h36.125V96.531zm-37.125 0h-36.125v19.375h36.125V96.531zm-37.125 0h-36.125v19.375h36.125V96.531zm-37.125 0H76.887v19.375h36.125V96.531zm-73.25 20.375v19.375h36.125v-19.375H39.762zm221.75 0h-36.125v19.375h36.125v-19.375zm-37.125 0h-36.125v19.375h36.125v-19.375zm-37.125 0h-36.125v19.375h36.125v-19.375zm-37.125 0h-36.125v19.375h36.125v-19.375zm-37.125 0H76.887v19.375h36.125v-19.375zm-73.25 20.375v19.375h36.125v-19.375H39.762zm221.75 0h-36.125v19.375h36.125v-19.375zm-37.125 0h-36.125v19.375h36.125v-19.375zm-37.125 0h-36.125v19.375h36.125v-19.375zm-37.125 0h-36.125v19.375h36.125v-19.375zm-37.125 0H76.887v19.375h36.125v-19.375zm-73.25 20.375v19.375h36.125v-19.375H39.762zm221.75 0h-36.125v19.375h36.125v-19.375zm-37.125 0h-36.125v19.375h36.125v-19.375zm-37.125 0h-36.125v19.375h36.125v-19.375zm-37.125 0h-36.125v19.375h36.125v-19.375zm-37.125 0H76.887v19.375h36.125v-19.375z" fill="#DFDEDE" fill-rule="nonzero"/><path stroke="#C2C2C2" stroke-width="2" d="M1.637 1.406h298v197h-298z"/><path fill="#C2C2C2" fill-rule="nonzero" d="M.637 33.406h300v2h-300z"/><g transform="translate(4.637 59.906)"><path d="M.566 56.965h290.775" stroke="#2A3052" stroke-width="1.211" stroke-linejoin="round"/><path stroke="#2A3052" stroke-width="3.634" stroke-linecap="round" stroke-linejoin="round" d="M35.666 56.965l28.35-26.325 38.588 39.037 35.325-51.187 50.175 55.05L230.216.302l26.175 16.013"/><path d="M184.391 87.902h-35.1l-5.4-8.212-5.4 8.212h-35.1c-2.625 0-4.725 2.138-4.725 4.8v24.788c0 2.662 2.138 4.8 4.725 4.8h81c2.625 0 4.725-2.138 4.725-4.8V92.702c0-2.662-2.137-4.8-4.725-4.8z" fill="#E88024" fill-rule="nonzero"/><path d="M245.854 65.777h-2.55l-1.538 7.725h-1.125l1.538-7.725h-2.55l.187-.937h6.188l-.15.937zm2.437 7.763v-.488c0-.15.038-.262.038-.375-.263.3-.563.525-.9.713-.338.187-.675.3-1.013.3-.562 0-1.012-.188-1.275-.525-.262-.338-.337-.825-.225-1.425.113-.638.45-1.163.938-1.463.525-.337 1.162-.487 1.95-.487h1.087l.113-.638c.075-.412.037-.712-.113-.9-.15-.187-.45-.3-.825-.3-.337 0-.637.113-.9.3a1.214 1.214 0 0 0-.487.675h-1.05v-.037c.075-.488.375-.938.9-1.313s1.125-.562 1.837-.562c.638 0 1.125.187 1.5.562.375.375.488.9.338 1.575l-.6 3.113-.113.675a1.82 1.82 0 0 0 0 .637h-1.2v-.037zm-1.5-.863c.3 0 .638-.075.975-.262.338-.188.6-.413.75-.675l.225-1.2h-1.125c-.375 0-.75.112-1.05.375-.3.225-.487.525-.562.825-.075.3-.038.525.075.712.15.15.375.225.712.225zm8.025-4.537l-.637-.038c-.255 0-.504.079-.713.225a1.575 1.575 0 0 0-.562.638l-.9 4.575h-1.125l1.275-6.45h1.012l-.075.862a2.25 2.25 0 0 1 .75-.712c.263-.15.563-.263.9-.263.075 0 .15 0 .263.038.075 0 .15.037.187.037l-.375 1.088zm.375 2.175c.225-1.088.563-1.95 1.05-2.513.488-.562 1.088-.825 1.838-.825.337 0 .675.075.937.225.263.15.488.375.675.675l.263-.787h.975l-1.238 6.337c-.187.9-.525 1.575-1.05 2.025-.525.45-1.237.675-2.062.675-.306 0-.61-.051-.9-.15a2.378 2.378 0 0 1-.825-.337l.45-.9c.15.112.375.225.637.3.263.075.525.112.788.112.487 0 .862-.15 1.162-.45.329-.341.55-.771.638-1.237l.075-.45a2.201 2.201 0 0 1-1.613.637 1.725 1.725 0 0 1-1.575-.937 3.296 3.296 0 0 1-.262-2.288l.037-.112zm1.088.112c-.15.675-.113 1.238.075 1.65.187.413.562.638 1.087.638.263 0 .525-.075.75-.225.225-.15.45-.375.638-.675l.6-3a1.961 1.961 0 0 0-.45-.638 1.305 1.305 0 0 0-.788-.225c-.487 0-.862.225-1.162.638-.3.45-.563 1.012-.675 1.725l-.075.112zm7.5 3.225c-.788 0-1.388-.3-1.8-.9-.413-.6-.525-1.387-.375-2.325l.037-.262c.15-.938.525-1.725 1.125-2.325.6-.6 1.238-.9 1.913-.9.787 0 1.35.262 1.687.787.338.525.45 1.238.3 2.1l-.112.75h-3.825c-.075.638-.038 1.163.187 1.575.225.375.563.563 1.05.563a2.816 2.816 0 0 0 1.763-.638l.337.75c-.225.225-.562.413-.9.563-.487.187-.9.262-1.387.262zm.712-5.737c-.337 0-.637.15-.937.487-.3.338-.525.75-.675 1.238v.037h2.625l.037-.15c.075-.487.038-.862-.15-1.162-.187-.3-.45-.45-.9-.45zm5.813-2.363l-.3 1.538h1.087l-.187.862h-1.088l-.787 3.9c-.075.3-.075.525.037.638.075.112.225.15.413.15.075 0 .187 0 .337-.038a.706.706 0 0 0 .3-.075v.788c-.112.075-.262.112-.487.187-.225.038-.413.075-.638.075-.412 0-.712-.15-.937-.45-.225-.3-.263-.75-.15-1.35l.787-3.9h-.937l.187-.862h.938l.3-1.538h1.125v.075z" fill="#6D6E71" fill-rule="nonzero"/><ellipse cx="8.512" cy="9.225" rx="8.137" ry="8.475" opacity=".6" transform="translate(247.879 7.09)" fill="#FFF" fill-rule="nonzero"/><ellipse stroke="#E88024" stroke-width="2.423" cx="256.391" cy="16.315" rx="8.137" ry="8.475"/><ellipse cx="9.037" cy="8.625" rx="8.137" ry="8.475" opacity=".6" transform="translate(26.629 48.34)" fill="#FFF" fill-rule="nonzero"/><ellipse stroke="#E88024" stroke-width="2.423" cx="35.666" cy="56.965" rx="8.137" ry="8.475"/></g><g fill="#2A3052" fill-rule="nonzero"><path d="M50.253 143.323c-.035-.172-.035-.31-.035-.484a3.203 3.203 0 0 1-.933.865c-.38.242-.795.346-1.245.346-.726 0-1.279-.173-1.66-.588a2.109 2.109 0 0 1-.587-1.556c0-.691.277-1.21.83-1.59.553-.38 1.279-.588 2.212-.588h1.383v-.691c0-.415-.138-.761-.38-1.003-.242-.242-.622-.38-1.072-.38-.415 0-.76.103-1.002.31-.242.208-.38.485-.38.761h-1.21v-.034c-.035-.519.207-1.003.725-1.418.519-.415 1.176-.657 1.97-.657.796 0 1.453.208 1.937.623.484.415.726 1.002.726 1.763v3.423c0 .242 0 .484.035.726.034.242.069.484.138.691h-1.348v.07c-.035-.208-.07-.416-.104-.589zm-2.093-.414c.45 0 .9-.104 1.245-.346.38-.242.622-.519.726-.83v-1.14h-1.418c-.518 0-.933.138-1.244.38a1.16 1.16 0 0 0-.45.933c0 .311.104.553.277.76.207.139.484.243.864.243zM39.184 136.661h1.276v7.222h-1.276v-1.072c-.405.523-1.072 1.364-2.412 1.223-1.34-.142-2.169-1.193-2.175-2.351-.005-1.159.006-5.414 0-5.022h1.266v2.736c0 3.2.704 3.555 1.666 3.555s1.434-.813 1.655-1.084c-.01-1.521-.01-3.256 0-5.207zM31.172 143.966h1.289v-9.74h-1.6l-3.156 7.979-3.124-7.98H22.85v9.741h1.283l.06-7.574 3.023 7.574h.976l2.98-7.358zM42.497 133.547h1.318v10.41h-1.318zM53.495 136.766h1.296v7.136h-1.296zM53.512 133.525v1.287h1.32v-1.287z"/></g><g fill="#FFF" fill-rule="nonzero"><path d="M174.467 167.256h-2.492v-8.244h2.492zM174.467 171.593h-2.492v-2.215h2.492z"/><g><path d="M145.35 161.118c2.886 0 4.451 1.76 4.847 4.395.396 2.637-1.027 6.36-4.644 6.36s-4.787-2.75-4.787-5.596 1.697-5.16 4.584-5.16zm.026 1.847c-.858.08-2.379.681-2.29 3.527.089 2.846 1.333 3.515 2.29 3.515.956 0 2.569-.265 2.569-3.503 0-3.237-1.711-3.62-2.57-3.54zM140.233 161.185c-.095.895-.199 1.63-.311 2.207-1.125-.073-2.293-.18-2.804 1.135l.014 7.071h-2.315v-10.33h2.06c.098.69.16 1.192.184 1.508.711-1.33 1.769-1.86 3.172-1.59zM125.272 171.598h-2.358V157.79h6.072c1.902 0 4.504 1.586 4.22 4.73-.19 2.096-1.597 3.368-4.22 3.815h-3.714v5.264zm.01-7.095h3.116c.77 0 2.487-.534 2.487-2.513 0-1.978-1.702-2.432-2.487-2.406-.523.018-1.561.01-3.115-.026v4.945zM157.702 156.678c-.108.551-.164 1.098-.25 1.798-.357-.079-2.365-.587-2.414 1.59v1.202h1.912v1.666h-1.912l.049 8.664h-2.392v-8.664h-1.507v-1.666h1.596c-.164-2.127.266-3.524 1.29-4.19 1.538-1 3.052-.587 3.628-.4zM159.435 161.292h2.314v10.252h-2.314zM159.48 156.762v1.96h2.303v-1.96zM168.081 158.793v2.55h1.785v1.69h-1.785v6.111c0 1.234 1.563.825 1.665.774l.273 1.633c-.153.101-3.876 1.426-4.272-2.407v-6.112h-1.535v-1.69h1.535v-2.55h2.334z"/></g></g><path d="M248.362 102.457c0-.418-.15-.769-.45-1.052-.3-.283-.828-.524-1.585-.722-.938-.233-1.67-.575-2.196-1.027-.526-.452-.79-1.02-.79-1.705 0-.723.284-1.325.85-1.807.566-.481 1.302-.722 2.206-.722.972 0 1.746.276 2.323.827.577.551.857 1.195.84 1.93l-.02.038h-1.19c0-.524-.184-.957-.55-1.3-.365-.342-.833-.513-1.403-.513-.583 0-1.03.142-1.34.425-.311.283-.467.65-.467 1.103 0 .401.17.736.51 1.004.34.269.893.504 1.658.707.93.241 1.638.596 2.124 1.065.486.47.729 1.048.729 1.737 0 .744-.293 1.341-.878 1.794-.586.452-1.35.678-2.292.678-.891 0-1.678-.25-2.36-.748-.683-.499-1.014-1.166-.993-2.003l.013-.038h1.192c0 .579.22 1.026.659 1.34.44.315.936.473 1.49.473.59 0 1.059-.133 1.403-.4.345-.266.517-.627.517-1.084zm5.685 2.46c-.984 0-1.752-.315-2.304-.945-.551-.63-.827-1.457-.827-2.484v-.28c0-.984.284-1.798.853-2.443.568-.644 1.262-.966 2.082-.966.917 0 1.605.285 2.063.855.459.57.688 1.33.688 2.276v.66h-4.386l-.02.03c0 .69.153 1.248.457 1.677.304.43.769.644 1.394.644.423 0 .794-.06 1.113-.181.319-.12.592-.286.82-.498l.489.812c-.245.236-.569.436-.97.599-.402.162-.885.244-1.452.244zm-.196-6.136c-.435 0-.796.168-1.08.504-.286.336-.46.766-.524 1.29l.013.032h3.093v-.102c0-.498-.122-.91-.367-1.236-.246-.325-.624-.488-1.135-.488zm5.502 6.003h-1.249v-9.888h1.249v9.888zm4.76.133c-.985 0-1.753-.315-2.304-.945-.552-.63-.827-1.457-.827-2.484v-.28c0-.984.284-1.798.852-2.443.569-.644 1.263-.966 2.082-.966.917 0 1.605.285 2.064.855.458.57.687 1.33.687 2.276v.66h-4.386l-.019.03c0 .69.152 1.248.456 1.677.305.43.77.644 1.395.644.422 0 .793-.06 1.112-.181.32-.12.593-.286.821-.498l.488.812c-.245.236-.568.436-.97.599-.401.162-.885.244-1.451.244zm-.197-6.136c-.435 0-.795.168-1.08.504-.286.336-.46.766-.523 1.29l.012.032h3.094v-.102c0-.498-.123-.91-.368-1.236-.245-.325-.623-.488-1.135-.488zm8.139 4.158a.832.832 0 0 0-.314-.672c-.209-.173-.605-.325-1.188-.456-.807-.173-1.427-.416-1.86-.729-.434-.313-.65-.731-.65-1.255 0-.558.237-1.035.713-1.432.475-.398 1.091-.596 1.847-.596.778 0 1.408.211 1.89.634.481.422.711.914.69 1.476l-.012.038h-1.192c0-.295-.13-.564-.39-.805-.26-.24-.588-.36-.986-.36-.439 0-.768.098-.985.297a.93.93 0 0 0-.327.71c0 .27.094.48.282.627.188.148.576.284 1.164.406.84.178 1.479.43 1.914.754.435.326.653.75.653 1.274 0 .609-.247 1.105-.739 1.49s-1.135.577-1.93.577c-.875 0-1.563-.222-2.066-.666-.503-.443-.742-.961-.716-1.553l.012-.038h1.192c.021.444.186.768.494.973.309.205.67.308 1.084.308.444 0 .791-.094 1.043-.282.251-.188.377-.428.377-.72zm7.017 1.845c-.043-.207-.075-.39-.099-.549a4.024 4.024 0 0 1-.04-.478c-.233.33-.536.605-.91.827a2.326 2.326 0 0 1-1.208.333c-.714 0-1.258-.183-1.632-.548-.374-.366-.561-.87-.561-1.512 0-.655.265-1.168.795-1.537.53-.37 1.25-.555 2.159-.555h1.356v-.678c0-.402-.122-.72-.367-.954-.246-.235-.592-.352-1.04-.352-.406 0-.733.102-.982.304-.25.203-.374.446-.374.73l-1.186.012-.012-.038c-.03-.499.204-.955.7-1.37.497-.413 1.138-.62 1.924-.62.777 0 1.403.197 1.876.592.473.395.71.965.71 1.709v3.302c0 .245.013.482.038.71.025.228.072.452.14.672h-1.287zm-2.073-.913c.452 0 .86-.116 1.223-.349.364-.232.6-.498.71-.798v-1.116h-1.4c-.503 0-.906.127-1.208.38-.302.254-.453.552-.453.894 0 .304.095.545.285.723.19.177.471.266.843.266zm6.345.913h-1.249v-6.859h1.249v6.859zm0-8.614h-1.249v-1.274h1.249v1.274z" fill="#2A3052" fill-rule="nonzero"/><path d="M29.861 22.624h-2.415v-5.022h-4.93v5.022H20.09V10.538h2.424v5.196h4.93v-5.196h2.416v12.086zm4.616 0h-2.424v-8.982h2.424v8.982zm0-11.132h-2.424V9.675h2.424v1.817zm1.618 6.716c0-1.417.309-2.56.926-3.428.617-.87 1.481-1.304 2.594-1.304.503 0 .946.114 1.328.34.382.228.708.551.98.972l.19-1.146h2.092v8.94c0 1.168-.383 2.071-1.15 2.71-.766.64-1.833.96-3.2.96-.453 0-.935-.063-1.444-.188a6.707 6.707 0 0 1-1.411-.51l.448-1.81c.371.177.749.312 1.133.403a5.44 5.44 0 0 0 1.258.137c.664 0 1.152-.138 1.465-.415.313-.277.469-.708.469-1.295v-.814a2.712 2.712 0 0 1-.938.772c-.36.178-.772.266-1.237.266-1.101 0-1.96-.405-2.577-1.216-.617-.81-.926-1.877-.926-3.2v-.174zm2.424.174c0 .786.133 1.404.398 1.855.266.451.698.677 1.295.677.371 0 .685-.068.943-.204.257-.135.463-.333.618-.593v-3.901a1.672 1.672 0 0 0-.618-.631c-.258-.15-.566-.224-.926-.224-.592 0-1.025.262-1.3.788-.273.526-.41 1.212-.41 2.059v.174zm9.911-3.602c.282-.41.628-.73 1.038-.96.41-.229.863-.344 1.361-.344.935 0 1.67.312 2.204.934.534.623.801 1.584.801 2.885v5.329H51.41v-5.346c0-.697-.123-1.191-.37-1.482-.245-.29-.612-.435-1.1-.435-.331 0-.624.06-.879.178a1.68 1.68 0 0 0-.63.502v6.583h-2.425V9.674h2.424v5.106zm11.206 8.018c-1.295 0-2.33-.415-3.104-1.245-.775-.83-1.162-1.884-1.162-3.163v-.332c0-1.333.366-2.432 1.1-3.295.733-.863 1.716-1.292 2.95-1.287 1.212 0 2.153.366 2.823 1.096.67.73 1.004 1.718 1.004 2.963v1.32h-5.362l-.017.05c.044.592.242 1.08.594 1.461.351.382.828.573 1.432.573.536 0 .982-.054 1.336-.162a6.142 6.142 0 0 0 1.162-.51l.656 1.493c-.365.3-.844.547-1.436.743a6.249 6.249 0 0 1-1.976.295zm-.216-7.454c-.448 0-.802.172-1.062.515s-.42.794-.482 1.353l.025.041h2.972v-.216c0-.514-.12-.925-.361-1.232-.24-.307-.605-.461-1.092-.461zm9.961.382l-.888-.025c-.36 0-.656.075-.888.224-.232.15-.41.36-.531.63v6.069h-2.416v-8.982h2.25l.108 1.328c.21-.47.482-.837.817-1.1.335-.262.721-.394 1.158-.394.122 0 .234.01.336.03.103.019.207.042.312.07l-.258 2.15z" fill="#000"/></g></svg>