<?xml version="1.0" encoding="UTF-8"?>
<svg width="299px" height="197px" viewBox="0 0 299 197" version="1.1" xmlns="http://www.w3.org/2000/svg" xmlns:xlink="http://www.w3.org/1999/xlink">
    <!-- Generator: Sketch 52.6 (67491) - http://www.bohemiancoding.com/sketch -->
    <title>Run high</title>
    <desc>Created with Sketch.</desc>
    <defs>
        <path d="M233.510498,70.8803711 C232.465246,70.5799139 231.704593,70.2106955 231.228516,69.7727051 C230.752439,69.3347146 230.514405,68.7941113 230.514405,68.1508789 C230.514405,67.4230107 230.805336,66.8210473 231.387207,66.3449707 C231.969079,65.8688941 232.7255,65.6308594 233.656495,65.6308594 C234.291263,65.6308594 234.857257,65.7535795 235.354493,65.9990234 C235.851728,66.2444674 236.236815,66.5830057 236.509766,67.0146484 C236.782717,67.4462912 236.91919,67.918129 236.91919,68.4301758 L235.694092,68.4301758 C235.694092,67.8715792 235.51636,67.4325374 235.160889,67.1130371 C234.805419,66.7935368 234.303959,66.6337891 233.656495,66.6337891 C233.05558,66.6337891 232.586916,66.7660306 232.250489,67.0305176 C231.914061,67.2950046 231.74585,67.662107 231.74585,68.1318359 C231.74585,68.5084654 231.905598,68.826903 232.225098,69.0871582 C232.544598,69.3474134 233.088375,69.5854481 233.856446,69.8012695 C234.624516,70.0170909 235.225421,70.2551257 235.65918,70.5153809 C236.092939,70.7756361 236.41455,71.0792626 236.624024,71.4262695 C236.833498,71.7732765 236.938233,72.1816383 236.938233,72.6513672 C236.938233,73.4003944 236.646244,74.0002419 236.062256,74.4509277 C235.478269,74.9016136 234.697515,75.1269531 233.719971,75.1269531 C233.085202,75.1269531 232.49276,75.0052909 231.942627,74.7619629 C231.392494,74.5186349 230.968264,74.1853862 230.669922,73.762207 C230.371581,73.3390278 230.222412,72.8587266 230.222412,72.3212891 L231.44751,72.3212891 C231.44751,72.8798856 231.653807,73.3210433 232.066407,73.6447754 C232.479006,73.9685075 233.030189,74.1303711 233.719971,74.1303711 C234.363203,74.1303711 234.8562,73.9991875 235.198975,73.7368164 C235.54175,73.4744453 235.713135,73.1168642 235.713135,72.6640625 C235.713135,72.2112608 235.554445,71.8610852 235.237061,71.6135254 C234.919677,71.3659656 234.344161,71.1215832 233.510498,70.8803711 Z M241.165772,75.1269531 C240.234778,75.1269531 239.477298,74.8212107 238.893311,74.2097168 C238.309324,73.5982229 238.017334,72.7804413 238.017334,71.7563477 L238.017334,71.5405273 C238.017334,70.8592088 238.14746,70.2508979 238.407715,69.7155762 C238.66797,69.1802545 239.031899,68.7613134 239.499512,68.4587402 C239.967125,68.1561671 240.473875,68.0048828 241.019776,68.0048828 C241.912684,68.0048828 242.606687,68.2989879 243.101807,68.887207 C243.596927,69.4754261 243.844483,70.3175401 243.844483,71.4135742 L243.844483,71.9023438 L239.191651,71.9023438 C239.208578,72.5794305 239.406411,73.1263814 239.785157,73.5432129 C240.163902,73.9600444 240.645261,74.168457 241.229248,74.168457 C241.643964,74.168457 241.995198,74.0838225 242.282959,73.9145508 C242.570721,73.7452791 242.822509,73.5209975 243.03833,73.2416992 L243.755616,73.800293 C243.180092,74.6847375 242.316819,75.1269531 241.165772,75.1269531 Z M241.019776,68.9697266 C240.545815,68.9697266 240.148033,69.1421695 239.826416,69.4870605 C239.5048,69.8319516 239.305909,70.3154266 239.229737,70.9375 L242.670166,70.9375 L242.670166,70.8486328 C242.636312,70.2519501 242.475506,69.7896338 242.187745,69.4616699 C241.899983,69.133706 241.510664,68.9697266 241.019776,68.9697266 Z M246.47876,75 L245.304444,75 L245.304444,65.25 L246.47876,65.25 L246.47876,75 Z M251.207764,75.1269531 C250.27677,75.1269531 249.51929,74.8212107 248.935303,74.2097168 C248.351316,73.5982229 248.059327,72.7804413 248.059327,71.7563477 L248.059327,71.5405273 C248.059327,70.8592088 248.189452,70.2508979 248.449707,69.7155762 C248.709963,69.1802545 249.073891,68.7613134 249.541504,68.4587402 C250.009117,68.1561671 250.515867,68.0048828 251.061768,68.0048828 C251.954676,68.0048828 252.64868,68.2989879 253.143799,68.887207 C253.638919,69.4754261 253.886475,70.3175401 253.886475,71.4135742 L253.886475,71.9023438 L249.233643,71.9023438 C249.25057,72.5794305 249.448403,73.1263814 249.827149,73.5432129 C250.205894,73.9600444 250.687253,74.168457 251.271241,74.168457 C251.685956,74.168457 252.03719,74.0838225 252.324952,73.9145508 C252.612713,73.7452791 252.864501,73.5209975 253.080323,73.2416992 L253.797608,73.800293 C253.222084,74.6847375 252.358811,75.1269531 251.207764,75.1269531 Z M251.061768,68.9697266 C250.587807,68.9697266 250.190025,69.1421695 249.868409,69.4870605 C249.546792,69.8319516 249.347901,70.3154266 249.271729,70.9375 L252.712159,70.9375 L252.712159,70.8486328 C252.678304,70.2519501 252.517499,69.7896338 252.229737,69.4616699 C251.941975,69.133706 251.552656,68.9697266 251.061768,68.9697266 Z M259.243897,73.1782227 C259.243897,72.8608383 259.124351,72.6143401 258.885254,72.4387207 C258.646158,72.2631013 258.229333,72.111817 257.634766,71.9848633 C257.040199,71.8579095 256.568362,71.7055673 256.219239,71.527832 C255.870116,71.3500968 255.61198,71.1385103 255.444825,70.8930664 C255.277669,70.6476225 255.194092,70.3556332 255.194092,70.0170898 C255.194092,69.4542615 255.432127,68.9781921 255.908204,68.5888672 C256.38428,68.1995423 256.992591,68.0048828 257.733155,68.0048828 C258.511804,68.0048828 259.14339,68.2058899 259.62793,68.6079102 C260.11247,69.0099304 260.354737,69.5240854 260.354737,70.1503906 L259.174073,70.1503906 C259.174073,69.8287744 259.037599,69.5515962 258.764649,69.3188477 C258.491698,69.0860991 258.14787,68.9697266 257.733155,68.9697266 C257.305744,68.9697266 256.971437,69.0628246 256.730225,69.2490234 C256.489013,69.4352223 256.368409,69.6785467 256.368409,69.9790039 C256.368409,70.262534 256.480549,70.4762363 256.704834,70.6201172 C256.929119,70.7639981 257.334307,70.9015293 257.920411,71.0327148 C258.506514,71.1639004 258.981525,71.3204744 259.345459,71.5024414 C259.709393,71.6844085 259.979166,71.9034004 260.154786,72.1594238 C260.330405,72.4154472 260.418213,72.7275372 260.418213,73.0957031 C260.418213,73.709313 260.172773,74.2012514 259.681885,74.5715332 C259.190997,74.941815 258.554122,75.1269531 257.771241,75.1269531 C257.221108,75.1269531 256.734459,75.0296234 256.31128,74.8349609 C255.8881,74.6402985 255.556968,74.3684099 255.317871,74.0192871 C255.078775,73.6701643 254.959229,73.2924825 254.959229,72.8862305 L256.133545,72.8862305 C256.154704,73.2797871 256.312336,73.5918771 256.606446,73.8225098 C256.900555,74.0531424 257.288816,74.168457 257.771241,74.168457 C258.215579,74.168457 258.572102,74.0785328 258.840821,73.8986816 C259.109539,73.7188305 259.243897,73.4786799 259.243897,73.1782227 Z M266.188233,75 C266.120524,74.8645827 266.065512,74.6233741 266.023194,74.2763672 C265.477293,74.8434273 264.825606,75.1269531 264.068116,75.1269531 C263.391029,75.1269531 262.835615,74.9354674 262.401856,74.5524902 C261.968097,74.1695131 261.751221,73.6839222 261.751221,73.0957031 C261.751221,72.3805303 262.02311,71.8251159 262.566895,71.4294434 C263.11068,71.0337708 263.875565,70.8359375 264.861573,70.8359375 L266.004151,70.8359375 L266.004151,70.2963867 C266.004151,69.8859029 265.881431,69.5590019 265.635987,69.3156738 C265.390543,69.0723458 265.02873,68.9506836 264.550538,68.9506836 C264.13159,68.9506836 263.780357,69.0564768 263.496827,69.2680664 C263.213296,69.479656 263.071534,69.7356756 263.071534,70.0361328 L261.89087,70.0361328 C261.89087,69.6933577 262.012532,69.3622249 262.25586,69.0427246 C262.499188,68.7232243 262.829263,68.4703785 263.246094,68.2841797 C263.662926,68.0979808 264.12101,68.0048828 264.620362,68.0048828 C265.411707,68.0048828 266.031655,68.2027161 266.480225,68.5983887 C266.928795,68.9940612 267.16154,69.5388963 267.178467,70.2329102 L267.178467,73.394043 C267.178467,74.02458 267.25887,74.5260398 267.419678,74.8984375 L267.419678,75 L266.188233,75 Z M264.239502,74.1049805 C264.607668,74.1049805 264.956786,74.0097666 265.286866,73.8193359 C265.616945,73.6289053 265.856038,73.3813492 266.004151,73.0766602 L266.004151,71.6674805 L265.083741,71.6674805 C263.644931,71.6674805 262.925538,72.0885375 262.925538,72.9306641 C262.925538,73.29883 263.048258,73.5865875 263.293702,73.7939453 C263.539145,74.0013031 263.854409,74.1049805 264.239502,74.1049805 Z M270.295166,75 L269.12085,75 L269.12085,68.1318359 L270.295166,68.1318359 L270.295166,75 Z M269.025635,66.3100586 C269.025635,66.119628 269.083821,65.9588223 269.200196,65.8276367 C269.31657,65.6964512 269.489013,65.6308594 269.71753,65.6308594 C269.946046,65.6308594 270.119547,65.6964512 270.238038,65.8276367 C270.356528,65.9588223 270.415772,66.119628 270.415772,66.3100586 C270.415772,66.5004892 270.356528,66.6591791 270.238038,66.7861328 C270.119547,66.9130866 269.946046,66.9765625 269.71753,66.9765625 C269.489013,66.9765625 269.31657,66.9130866 269.200196,66.7861328 C269.083821,66.6591791 269.025635,66.5004892 269.025635,66.3100586 Z" id="path-1"></path>
    </defs>
    <g id="Page-1" stroke="none" stroke-width="1" fill="none" fill-rule="evenodd">
        <g id="Run-high">
            <polygon id="Path" fill="#F1F2F2" points="0 0 299 0 299 197 0 197"></polygon>
            <path d="M1.98671096,1.9798995 L1.98671096,195.020101 L297.013289,195.020101 L297.013289,1.9798995 L1.98671096,1.9798995 Z M299,0 L299,197 L0,197 L0,0 L299,0 Z" id="Path" fill="#C2C2C2" fill-rule="nonzero"></path>
            <path d="M4,54.0670861 L4,52.8631464 L294,52.8631464 L294,54.0670861 L4,54.0670861 Z M4,76.3926675 L4,75.1887278 L294,75.1887278 L294,76.3926675 L4,76.3926675 Z M4,94.9973187 L4,93.793379 L294,93.793379 L294,94.9973187 L4,94.9973187 Z M4,131.936626 L4,130.732687 L294,130.732687 L294,131.936626 L4,131.936626 Z M4,154.532202 L4,153.328263 L294,153.328263 L294,154.532202 L4,154.532202 Z M4,176.857784 L4,175.653844 L294,175.653844 L294,176.857784 L4,176.857784 Z M38.72025,33 L39.9207756,33 L39.9207756,193 L38.72025,193 L38.72025,33 Z M75.8997372,33 L77.1002628,33 L77.1002628,193 L75.8997372,193 L75.8997372,33 Z M113.079224,33 L114.27975,33 L114.27975,193 L113.079224,193 L113.079224,33 Z M146.540763,33 L147.741288,33 L147.741288,193 L146.540763,193 L146.540763,33 Z M183.72025,33 L184.920776,33 L184.920776,193 L183.72025,193 L183.72025,33 Z M220.899737,33 L222.100263,33 L222.100263,193 L220.899737,193 L220.899737,33 Z M258.079224,33 L259.27975,33 L259.27975,193 L258.079224,193 L258.079224,33 Z" id="Shape" fill="#DFDEDE" fill-rule="nonzero"></path>
            <polygon id="Path" fill="#2A3052" points="3.90644108 131.819829 3.90644108 130.604864 295.513238 130.604864 295.513238 131.819829"></polygon>
            <polygon id="Path" fill="#C2C2C2" points="2.7993468 34.7797904 2.7993468 32.3494829 296.362731 32.3494829 296.362731 34.7797904"></polygon>
            <path d="M187.239564,148.191156 L152.058614,148.191156 L146.640372,139.96769 L141.22213,148.191156 L106.041181,148.191156 C103.407313,148.191156 101.300218,150.33151 101.300218,152.997566 L101.300218,177.818164 C101.300218,180.484219 103.444939,182.624573 106.041181,182.624573 L187.27719,182.624573 C189.911058,182.624573 192.018152,180.484219 192.018152,177.818164 L192.018152,152.997566 C192.018152,150.33151 189.873431,148.191156 187.239564,148.191156 Z" id="Path" fill="#E88024"></path>
            <g id="Selesai">
                <use fill="#000000" xlink:href="#path-1"></use>
                <use fill="#2A3052" xlink:href="#path-1"></use>
            </g>
            <path d="M130.903705,87.8267404 L93.54167,114.616552 C93.3977462,114.719751 93.228998,114.782876 93.052679,114.799474 L58.0937925,118.090471 C57.5439388,118.142234 57.0562324,117.738451 57.0044697,117.188598 C56.952707,116.638744 57.3564895,116.151038 57.9063432,116.099275 L92.5960015,112.833623 L129.900423,86.0851221 C130.007467,86.0083679 130.12862,85.9535173 130.256924,85.9237208 L166.795918,77.4380995 L203.144631,53.756333 C203.272356,53.6731185 203.417414,53.6202062 203.56872,53.6016401 L241.008677,49.0075468 C241.55685,48.9402828 242.055761,49.3301369 242.123025,49.8783103 C242.190289,50.4264836 241.800435,50.9253941 241.252261,50.992658 L204.042269,55.5585334 L167.739862,79.2101305 C167.642072,79.2738422 167.533884,79.3199429 167.420196,79.3463452 L130.903705,87.8267404 Z M166.967767,77.3981902 L166.6481,77.534405 L166.795918,77.4380995 L166.967767,77.3981902 Z M92.8652297,112.808278 L92.3762387,112.9912 L92.5960015,112.833623 L92.8652297,112.808278 Z" id="Shape" fill="#2A3052" fill-rule="nonzero"></path>
            <g id="Group" transform="translate(231.250000, 41.000000)">
                <g id="Oval" opacity="0.6" fill="#FFFFFF">
                    <ellipse cx="8.5125" cy="9.225" rx="8.1375" ry="8.475"></ellipse>
                </g>
                <path d="M8.5125,18.02305 C3.83686418,18.02305 0.05195,14.0811578 0.05195,9.225 C0.05195,4.36884218 3.83686418,0.42695 8.5125,0.42695 C13.1881358,0.42695 16.97305,4.36884218 16.97305,9.225 C16.97305,14.0811578 13.1881358,18.02305 8.5125,18.02305 Z M8.5125,17.37695 C12.8252985,17.37695 16.32695,13.7300687 16.32695,9.225 C16.32695,4.71993131 12.8252985,1.07305 8.5125,1.07305 C4.19970152,1.07305 0.69805,4.71993131 0.69805,9.225 C0.69805,13.7300687 4.19970152,17.37695 8.5125,17.37695 Z" id="Oval" fill="#E88024" fill-rule="nonzero"></path>
            </g>
            <g id="Group" transform="translate(83.000000, 104.250000)">
                <g id="Oval" opacity="0.6" transform="translate(1.000000, 0.000000)" fill="#FFFFFF">
                    <ellipse cx="8.1375" cy="8.475" rx="8.1375" ry="8.475"></ellipse>
                </g>
                <path d="M9.1375,18.27305 C4.46186418,18.27305 0.67695,14.3311578 0.67695,9.475 C0.67695,4.61884218 4.46186418,0.67695 9.1375,0.67695 C13.8131358,0.67695 17.59805,4.61884218 17.59805,9.475 C17.59805,14.3311578 13.8131358,18.27305 9.1375,18.27305 Z M9.1375,17.62695 C13.4502985,17.62695 16.95195,13.9800687 16.95195,9.475 C16.95195,4.96993131 13.4502985,1.32305 9.1375,1.32305 C4.82470152,1.32305 1.32305,4.96993131 1.32305,9.475 C1.32305,13.9800687 4.82470152,17.62695 9.1375,17.62695 Z" id="Oval" fill="#E88024" fill-rule="nonzero"></path>
            </g>
            <g id="Group-3" transform="translate(120.000000, 157.000000)" fill="#FFFFFF" fill-rule="nonzero">
                <path d="M52.408,11.054 L49.916,11.054 L49.916,2.811 L52.408,2.811 L52.408,11.054 Z M52.408,15.392 L49.916,15.392 L49.916,13.177 L52.408,13.177 L52.408,15.392 Z" id="Shape"></path>
                <path d="M23.291,4.916 C26.177,4.916 27.742,6.676 28.138,9.312 C28.534,11.948 27.111,15.672 23.494,15.672 C19.877,15.672 18.707,12.922 18.707,10.075 C18.707,7.229 20.404,4.916 23.291,4.916 Z M23.317,6.763 C22.459,6.844 20.938,7.445 21.027,10.291 C21.116,13.137 22.36,13.805 23.317,13.805 C24.273,13.805 25.886,13.54 25.886,10.303 C25.886,7.066 24.175,6.683 23.316,6.763 L23.317,6.763 Z M18.098,4.984 C18.003,5.878 17.899,6.614 17.787,7.19 C16.662,7.117 15.494,7.01 14.983,8.325 L14.997,15.397 L12.682,15.397 L12.682,5.067 L14.742,5.067 C14.84,5.756 14.902,6.259 14.926,6.574 C15.637,5.245 16.695,4.715 18.098,4.984 Z M3.213,15.397 L0.856,15.397 L0.856,1.587 L6.927,1.587 C8.829,1.587 11.431,3.173 11.147,6.317 C10.957,8.414 9.55,9.686 6.927,10.133 L3.213,10.133 L3.213,15.397 Z M3.223,8.301 L6.34,8.301 C7.108,8.301 8.826,7.768 8.826,5.789 C8.826,3.81 7.124,3.356 6.34,3.383 C5.816,3.401 4.778,3.392 3.224,3.356 L3.224,8.301 L3.223,8.301 Z M35.643,0.477 C35.535,1.027 35.479,1.575 35.394,2.275 C35.036,2.195 33.028,1.687 32.979,3.865 L32.979,5.066 L34.891,5.066 L34.891,6.733 L32.978,6.733 L33.027,15.397 L30.635,15.397 L30.635,6.733 L29.129,6.733 L29.129,5.066 L30.724,5.066 C30.56,2.939 30.99,1.542 32.014,0.876 C33.552,-0.124 35.066,0.29 35.642,0.476 L35.643,0.477 Z M37.376,5.09 L39.69,5.09 L39.69,15.342 L37.376,15.342 L37.376,5.09 Z M37.421,0.561 L37.421,2.521 L39.724,2.521 L39.724,0.561 L37.421,0.561 Z M46.022,2.591 L46.022,5.141 L47.807,5.141 L47.807,6.831 L46.022,6.831 L46.022,12.943 C46.022,14.177 47.585,13.768 47.687,13.717 L47.96,15.349 C47.807,15.451 44.085,16.775 43.688,12.943 L43.688,6.831 L42.153,6.831 L42.153,5.141 L43.688,5.141 L43.688,2.591 L46.022,2.591 Z" id="Shape"></path>
            </g>
            <path d="M63.8471668,108.310513 C63.814433,108.145867 63.814433,108.013235 63.814433,107.849732 C63.5962074,108.179025 63.3136052,108.440858 62.9688088,108.67182 C62.6240123,108.900495 62.2486643,108.999969 61.8405824,108.999969 C61.1826323,108.999969 60.6807134,108.835323 60.3348258,108.440858 C59.9717954,108.045615 59.7793309,107.511657 59.8023553,106.963616 C59.8023553,106.306174 60.0533148,105.813379 60.5552337,105.452072 C61.0571525,105.090765 61.7151027,104.894105 62.561818,104.894105 L63.8155241,104.894105 L63.8155241,104.236663 C63.8155241,103.842198 63.6900444,103.514049 63.4707277,103.284231 C63.2514109,103.054412 62.9066145,102.922924 62.4996237,102.922924 C62.1220935,102.922924 61.8089397,103.021254 61.589623,103.217915 C61.3794362,103.394908 61.2534975,103.659264 61.2448265,103.941672 L60.1471518,103.941672 L60.1471518,103.907371 C60.1166002,103.415719 60.3359169,102.956082 60.8061931,102.561617 C61.2753781,102.167152 61.8722251,101.937334 62.5923696,101.937334 C63.3136052,101.937334 63.9093611,102.133994 64.3490857,102.528459 C64.786628,102.922924 65.0070359,103.480892 65.0070359,104.203505 L65.0070359,107.456411 C65.0070359,107.685086 65.0070359,107.916048 65.0375875,108.145867 C65.0692302,108.375685 65.1008729,108.605504 65.1630672,108.802165 L63.9410038,108.802165 L63.9410038,108.86848 C63.9124095,108.682006 63.8811269,108.495996 63.8471668,108.310513 Z M61.9486041,107.916048 C62.356686,107.916048 62.7647679,107.817718 63.0779216,107.586756 C63.422718,107.35808 63.6420348,107.095104 63.7358718,106.798969 L63.7358718,105.715049 L62.450523,105.715049 C61.9813379,105.715049 61.6048988,105.846537 61.3222966,106.076356 C61.060718,106.288433 60.9095612,106.617081 60.9142148,106.963616 C60.9142148,107.258607 61.0091429,107.489569 61.1651742,107.686229 C61.3539393,107.817718 61.6048988,107.914905 61.9496952,107.914905 L61.9486041,107.916048 Z M53.8109715,101.979639 L54.9675672,101.979639 L54.9675672,108.841039 L53.8109715,108.841039 L53.8109715,107.823435 C53.4432613,108.320803 52.8376853,109.11888 51.6232598,108.985105 C50.4088344,108.850186 49.6570472,107.852019 49.6515915,106.750948 C49.6461359,105.649876 49.6570472,101.608041 49.6515915,101.979639 L50.7983671,101.979639 L50.7983671,104.579676 C50.7983671,107.621057 51.436677,107.95721 52.3095794,107.95721 C53.1824818,107.95721 53.6091128,107.184287 53.8109715,106.927028 C53.8000602,105.4818 53.8000602,103.833051 53.8109715,101.979639 Z M46.5462413,108.921076 L47.7137482,108.921076 L47.7137482,99.665445 L46.2636391,99.665445 L43.4027015,107.247173 L40.5690421,99.665445 L39,99.665445 L39,108.921076 L40.1631424,108.921076 L40.2176988,101.723522 L42.9586124,108.921076 L43.8424261,108.921076 L46.5462413,101.92933 L46.5462413,108.921076 Z M56.8148469,99.0205808 L58.009632,99.0205808 L58.009632,108.913072 L56.8148469,108.913072 L56.8148469,99.0205808 Z M66.7855745,102.079112 L67.9618105,102.079112 L67.9618105,108.859333 L66.7855745,108.859333 L66.7855745,102.079112 Z M66.8019415,99 L66.8019415,100.223413 L68,100.223413 L68,99 L66.8019415,99 Z" id="Shape" fill="#2A3052" fill-rule="nonzero"></path>
            <path d="M17.2045898,12.940918 L17.2045898,15.8413086 L19.7607421,15.8413086 C20.2685572,15.8413086 20.6494127,15.7827154 20.9033203,15.6655273 C21.3525413,15.4604482 21.5771484,15.0551788 21.5771484,14.449707 C21.5771484,13.7954069 21.3598654,13.3559581 20.9252929,13.1313476 C20.6811511,13.0043939 20.3149438,12.940918 19.8266601,12.940918 L17.2045898,12.940918 Z M20.2954101,11.065918 C21.0522498,11.0805665 21.6345194,11.173339 22.0422363,11.3442383 C22.4499532,11.5151376 22.7954087,11.7665999 23.0786132,12.0986328 C23.3129894,12.3720717 23.4985344,12.674803 23.6352539,13.0068359 C23.7719733,13.3388688 23.840332,13.717283 23.840332,14.1420898 C23.840332,14.6547877 23.7109388,15.1589331 23.4521484,15.654541 C23.193358,16.150149 22.7661162,16.5004872 22.1704101,16.7055664 C22.6684595,16.9057627 23.0212392,17.1901837 23.2287597,17.5588379 C23.4362803,17.9274921 23.540039,18.4902306 23.540039,19.2470703 L23.540039,19.972168 C23.540039,20.4653345 23.5595701,20.7998038 23.5986328,20.9755859 C23.6572268,21.2539076 23.7939442,21.4589837 24.008789,21.5908203 L24.008789,21.8618164 L21.5258789,21.8618164 C21.4575191,21.6225574 21.4086915,21.4296882 21.3793945,21.2832031 C21.3208004,20.9804672 21.2890625,20.6704117 21.2841796,20.3530273 L21.2695312,19.3496094 C21.2597655,18.6611294 21.1340344,18.2021496 20.8923339,17.9726562 C20.6506335,17.7431629 20.1977572,17.628418 19.5336914,17.628418 L17.2045898,17.628418 L17.2045898,21.8618164 L15,21.8618164 L15,11.065918 L20.2954101,11.065918 Z M26.9928711,13.878418 L26.9928711,18.6904297 C26.9928711,19.1445335 27.0465815,19.486327 27.1540039,19.7158203 C27.3444345,20.1210958 27.7179659,20.3237305 28.2746093,20.3237305 C28.9875035,20.3237305 29.4757799,20.0356474 29.7394531,19.4594726 C29.8761725,19.1469711 29.9445312,18.7343776 29.9445312,18.2216797 L29.9445312,13.878418 L32.0612304,13.878418 L32.0612304,21.8618164 L30.0324218,21.8618164 L30.0324218,20.7338867 C30.0128905,20.7583009 29.9640629,20.8315424 29.8859375,20.9536133 C29.8078121,21.0756842 29.7150396,21.183105 29.6076172,21.2758789 C29.2804671,21.5688491 28.9643081,21.7690424 28.6591308,21.8764648 C28.3539535,21.9838872 27.9962911,22.0375976 27.5861328,22.0375976 C26.4044862,22.0375976 25.6085958,21.6127972 25.1984375,20.7631836 C24.9689441,20.2944312 24.8541992,19.6035202 24.8541992,18.6904297 L24.8541992,13.878418 L26.9928711,13.878418 Z M37.7992187,13.6879883 C38.6244182,13.6879883 39.2994602,13.9040506 39.8243652,14.3361816 C40.3492702,14.7683127 40.6117187,15.4848583 40.6117187,16.4858398 L40.6117187,21.8618164 L38.4730469,21.8618164 L38.4730469,17.0058594 C38.4730469,16.5859354 38.4168951,16.263673 38.3045898,16.0390625 C38.0995107,15.6289042 37.7088896,15.4238281 37.1327148,15.4238281 C36.4247035,15.4238281 35.9388685,15.7241181 35.6751953,16.324707 C35.5384759,16.6420914 35.4701172,17.0473608 35.4701172,17.5405273 L35.4701172,21.8618164 L33.390039,21.8618164 L33.390039,13.8930664 L35.4041992,13.8930664 L35.4041992,15.0576172 C35.6727552,14.6474589 35.9266589,14.3520517 36.1659179,14.1713867 C36.5956076,13.8491195 37.1400357,13.6879883 37.7992187,13.6879883 Z M45.9917969,21.8618164 L45.9917969,11.065918 L48.2256836,11.065918 L48.2256836,15.1821289 L52.4444336,15.1821289 L52.4444336,11.065918 L54.6856445,11.065918 L54.6856445,21.8618164 L52.4444336,21.8618164 L52.4444336,17.0424805 L48.2256836,17.0424805 L48.2256836,21.8618164 L45.9917969,21.8618164 Z M58.1165039,12.9262695 L55.9998047,12.9262695 L55.9998047,11 L58.1165039,11 L58.1165039,12.9262695 Z M55.9998047,13.878418 L58.1165039,13.878418 L58.1165039,21.8618164 L55.9998047,21.8618164 L55.9998047,13.878418 Z M62.8657227,20.1479492 C63.3540064,20.1479492 63.7665999,19.9636249 64.1035156,19.5949707 C64.4404314,19.2263165 64.6088867,18.6391642 64.6088867,17.8334961 C64.6088867,17.0766564 64.4489762,16.5004903 64.1291504,16.1049805 C63.8093246,15.7094707 63.3808621,15.5117187 62.84375,15.5117187 C62.1113245,15.5117187 61.6059584,15.8559536 61.3276367,16.5444336 C61.1811516,16.9106464 61.1079102,17.362302 61.1079102,17.8994141 C61.1079102,18.3632836 61.1860344,18.7758771 61.3422852,19.137207 C61.6254897,19.8110385 62.1332971,20.1479492 62.8657227,20.1479492 Z M62.3457031,13.6879883 C62.7460958,13.6879883 63.0952134,13.7490228 63.3930664,13.8710937 C63.9008815,14.0810557 64.3110336,14.4667941 64.6235352,15.0283203 L64.6235352,13.878418 L66.6523438,13.878418 L66.6523438,21.4516602 C66.6523438,22.4819387 66.4790057,23.2582982 66.1323242,23.7807617 C65.5366181,24.6792037 64.3940514,25.128418 62.7045899,25.128418 C61.6840769,25.128418 60.8515657,24.9282247 60.2070313,24.527832 C59.5624968,24.1274394 59.206055,23.5293008 59.1376953,22.7333984 L61.4082031,22.7333984 C61.4667972,22.9775403 61.5620111,23.1533198 61.6938477,23.2607422 C61.9184582,23.4511728 62.2968724,23.5463867 62.8291016,23.5463867 C63.5810585,23.5463867 64.0839831,23.2949244 64.3378906,22.7919922 C64.5039071,22.4697249 64.5869141,21.9277382 64.5869141,21.1660156 L64.5869141,20.6533203 C64.3867178,20.9951189 64.1718762,21.251464 63.9423828,21.4223633 C63.5273417,21.7397477 62.9877963,21.8984375 62.3237305,21.8984375 C61.2983347,21.8984375 60.4792511,21.5383337 59.8664551,20.8181152 C59.2536591,20.0978968 58.9472656,19.1225647 58.9472656,17.8920898 C58.9472656,16.7055605 59.2426728,15.708256 59.8334961,14.9001465 C60.4243194,14.092037 61.2617133,13.6879883 62.3457031,13.6879883 Z M72.3024414,13.6733398 C72.795608,13.6733398 73.2436015,13.7587882 73.6464356,13.9296875 C74.0492696,14.1005868 74.3800769,14.3618146 74.6388672,14.7133789 C74.8585949,15.011232 74.9928709,15.3176254 75.0416992,15.6325684 C75.0905276,15.9475113 75.1149414,16.4614222 75.1149414,17.1743164 L75.1149414,21.8618164 L72.9835938,21.8618164 L72.9835938,17.0058594 C72.9835938,16.5761697 72.9103523,16.2294935 72.7638672,15.9658203 C72.5734366,15.5947247 72.2121121,15.4091797 71.6798828,15.4091797 C71.1281223,15.4091797 70.7094253,15.593504 70.4237793,15.9621582 C70.1381334,16.3308124 69.9953125,16.8569302 69.9953125,17.5405273 L69.9953125,21.8618164 L67.9152344,21.8618164 L67.9152344,11.1025391 L69.9953125,11.1025391 L69.9953125,14.918457 C70.2980484,14.4545875 70.6483867,14.1311044 71.0463379,13.947998 C71.4442891,13.7648917 71.8629861,13.6733398 72.3024414,13.6733398 Z" id="RunHigh" fill="#000000" fill-rule="nonzero"></path>
        </g>
    </g>
</svg>