<svg width="300" height="199" viewBox="0 0 300 199" xmlns="http://www.w3.org/2000/svg"><title>Group 2</title><g fill="none" fill-rule="evenodd"><path fill="#F1F2F2" fill-rule="nonzero" d="M0 0h300v199H0z"/><path d="M39.125 55.375V74.75H75.25V55.375H39.125zm0-1H75.25V34h1v20.375h36.125V34h1v20.375H149.5V34h1v20.375h36.125V34h1v20.375h36.125V34h1v20.375h36.125V34h1v20.375H299.5v1h-37.625V74.75H299.5v1h-37.625v19.375H299.5v1h-37.625V115.5H299.5v1h-37.625v19.375H299.5v1h-37.625v19.375H299.5v1h-37.625v19.375H299.5v1h-37.625V199h-1v-21.375H224.75V199h-1v-21.375h-36.125V199h-1v-21.375H150.5V199h-1v-21.375h-36.125V199h-1v-21.375H76.25V199h-1v-21.375H39.125V199h-1v-21.375H1.5v-1h36.625V157.25H1.5v-1h36.625v-19.375H1.5v-1h36.625V116.5H1.5v-1h36.625V96.125H1.5v-1h36.625V75.75H1.5v-1h36.625V55.375H1.5v-1h36.625V34h1v20.375zm221.75 1H224.75V74.75h36.125V55.375zm-37.125 0h-36.125V74.75h36.125V55.375zm-37.125 0H150.5V74.75h36.125V55.375zm-37.125 0h-36.125V74.75H149.5V55.375zm-37.125 0H76.25V74.75h36.125V55.375zM39.125 75.75v19.375H75.25V75.75H39.125zm221.75 0H224.75v19.375h36.125V75.75zm-37.125 0h-36.125v19.375h36.125V75.75zm-37.125 0H150.5v19.375h36.125V75.75zm-37.125 0h-36.125v19.375H149.5V75.75zm-37.125 0H76.25v19.375h36.125V75.75zm-73.25 20.375V115.5H75.25V96.125H39.125zm221.75 0H224.75V115.5h36.125V96.125zm-37.125 0h-36.125V115.5h36.125V96.125zm-37.125 0H150.5V115.5h36.125V96.125zm-37.125 0h-36.125V115.5H149.5V96.125zm-37.125 0H76.25V115.5h36.125V96.125zM39.125 116.5v19.375H75.25V116.5H39.125zm221.75 0H224.75v19.375h36.125V116.5zm-37.125 0h-36.125v19.375h36.125V116.5zm-37.125 0H150.5v19.375h36.125V116.5zm-37.125 0h-36.125v19.375H149.5V116.5zm-37.125 0H76.25v19.375h36.125V116.5zm-73.25 20.375v19.375H75.25v-19.375H39.125zm221.75 0H224.75v19.375h36.125v-19.375zm-37.125 0h-36.125v19.375h36.125v-19.375zm-37.125 0H150.5v19.375h36.125v-19.375zm-37.125 0h-36.125v19.375H149.5v-19.375zm-37.125 0H76.25v19.375h36.125v-19.375zm-73.25 20.375v19.375H75.25V157.25H39.125zm221.75 0H224.75v19.375h36.125V157.25zm-37.125 0h-36.125v19.375h36.125V157.25zm-37.125 0H150.5v19.375h36.125V157.25zm-37.125 0h-36.125v19.375H149.5V157.25zm-37.125 0H76.25v19.375h36.125V157.25z" fill="#DFDEDE" fill-rule="nonzero"/><path stroke="#C2C2C2" stroke-width="2" d="M1 1h298v197H1z"/><path fill="#C2C2C2" fill-rule="nonzero" d="M0 33h300v2H0z"/><path d="M2.248 75.285h295.125M261.92 33.967v162.757" stroke="#2A3052" stroke-width="1.23" stroke-linejoin="round"/><path stroke="#2A3052" stroke-width="3.689" stroke-linecap="round" stroke-linejoin="round" d="M37.891 137.242l37.358-33.93 26.542 26.352 32.026-35.415 46.458 42.993 44.288-61.957"/><path d="M188.805 147.98H153.2l-5.484-8.339-5.483 8.34h-35.606c-2.666 0-4.798 2.17-4.798 4.874v25.171c0 2.704 2.17 4.875 4.798 4.875h82.216c2.666 0 4.799-2.17 4.799-4.875v-25.171c0-2.704-2.171-4.874-4.837-4.874z" fill="#E88024" fill-rule="nonzero"/><ellipse cx="9.216" cy="8.843" rx="8.264" ry="8.606" opacity=".6" transform="translate(215.348 66.441)" fill="#FFF" fill-rule="nonzero"/><ellipse stroke="#E88024" stroke-width="2.46" cx="224.563" cy="75.285" rx="8.264" ry="8.606"/><ellipse cx="9.139" cy="9.063" rx="8.264" ry="8.606" opacity=".6" transform="translate(28.752 128.179)" fill="#FFF" fill-rule="nonzero"/><ellipse stroke="#E88024" stroke-width="2.46" cx="37.891" cy="137.242" rx="8.264" ry="8.606"/><g fill="#2A3052" fill-rule="nonzero"><path d="M46.873 163.291c-.03-.153-.03-.276-.03-.43-.215.307-.492.553-.829.767a2.003 2.003 0 0 1-1.104.307c-.645 0-1.136-.153-1.473-.521a1.871 1.871 0 0 1-.522-1.38c0-.614.246-1.075.737-1.412.49-.338 1.135-.522 1.963-.522h1.227v-.613c0-.368-.122-.675-.337-.89-.215-.215-.552-.337-.951-.337-.368 0-.675.092-.89.276-.215.184-.337.43-.337.675h-1.074v-.031c-.03-.46.184-.89.644-1.258s1.043-.583 1.749-.583c.705 0 1.288.184 1.718.552.43.369.644.89.644 1.565v3.037c0 .215 0 .43.03.645.032.214.062.43.124.613h-1.197v.062c-.03-.185-.061-.369-.092-.522zm-1.857-.368c.399 0 .798-.092 1.104-.307.338-.215.553-.46.645-.736v-1.013h-1.258c-.46 0-.828.123-1.105.338a1.03 1.03 0 0 0-.398.828c0 .276.092.491.245.675.184.123.43.215.767.215zM37.05 157.38h1.133v6.407H37.05v-.95c-.36.464-.952 1.21-2.14 1.084-1.19-.126-1.925-1.058-1.93-2.086-.006-1.028.005-4.804 0-4.456h1.122v2.428c0 2.84.625 3.154 1.479 3.154.854 0 1.272-.721 1.469-.962-.01-1.35-.01-2.89 0-4.62zM29.941 163.861h1.143v-8.644h-1.42l-2.8 7.081-2.772-7.08h-1.536v8.643h1.138l.054-6.721 2.682 6.721h.866l2.645-6.529zM39.99 154.616h1.17v9.238h-1.17zM49.75 157.472h1.15v6.332h-1.15zM49.765 154.596v1.142h1.172v-1.142z"/></g><g fill="#FFF" fill-rule="nonzero"><path d="M175.727 167.997h-2.633v-8.711h2.633zM175.727 172.58h-2.633v-2.34h2.633z"/><g><path d="M144.959 161.51c3.05 0 4.704 1.86 5.122 4.645.418 2.786-1.086 6.72-4.908 6.72s-5.058-2.906-5.058-5.913 1.794-5.452 4.844-5.452zm.027 1.952c-.907.086-2.513.72-2.42 3.728.095 3.007 1.41 3.713 2.42 3.713s2.715-.28 2.715-3.7c0-3.422-1.808-3.827-2.715-3.74zM139.471 161.582c-.1.945-.21 1.722-.328 2.331-1.189-.077-2.423-.19-2.963 1.2l.015 7.472h-2.447v-10.916h2.177c.104.728.169 1.26.194 1.593.753-1.404 1.87-1.964 3.352-1.68zM123.742 172.585h-2.49v-14.592h6.415c2.01 0 4.76 1.675 4.459 4.998-.201 2.215-1.687 3.559-4.459 4.031h-3.925v5.563zm.012-7.498h3.292c.813 0 2.628-.564 2.628-2.655 0-2.09-1.798-2.57-2.628-2.542-.552.019-1.65.01-3.292-.028v5.225zM158.011 156.82c-.114.581-.173 1.16-.263 1.899-.378-.084-2.5-.62-2.551 1.68v1.27h2.02v1.76h-2.02l.05 9.156h-2.527v-9.155h-1.591v-1.761h1.686c-.174-2.248.28-3.724 1.363-4.428 1.624-1.057 3.225-.62 3.833-.422zM159.842 161.694h2.446v10.833h-2.446zM159.89 156.908v2.072h2.434v-2.072zM168.979 159.053v2.695h1.886v1.786h-1.886v6.458c0 1.304 1.651.872 1.759.818l.289 1.725c-.162.107-4.096 1.507-4.514-2.543v-6.458h-1.623v-1.786h1.623v-2.695h2.466z"/></g></g><path d="M30.14 60.28H27.57l-1.513 7.828h-1.135l1.551-7.79H23.9l.19-.946h6.24l-.19.908zm2.458 7.828v-.492c0-.113.038-.264.038-.378-.265.303-.567.53-.907.719-.31.186-.66.29-1.022.302-.567 0-1.02-.189-1.285-.53-.265-.34-.34-.831-.227-1.436.113-.643.454-1.173.945-1.475.53-.34 1.173-.492 1.967-.492h1.096l.114-.643c.076-.416.038-.718-.114-.907-.15-.19-.453-.303-.832-.303-.34 0-.642.114-.907.303s-.416.416-.492.68h-1.059v-.037c.076-.492.379-.946.87-1.324.53-.378 1.135-.567 1.853-.567.643 0 1.135.189 1.513.567.378.378.491.908.34 1.588l-.605 3.14-.113.68a1.836 1.836 0 0 0 0 .643h-1.173v-.038zm-1.512-.87c.302 0 .643-.076.983-.265.34-.189.605-.416.756-.68l.227-1.21h-1.134c-.379 0-.757.113-1.06.378-.302.264-.49.53-.566.832-.076.302-.038.53.075.718.114.19.378.227.719.227zm8.093-4.576l-.643-.038c-.258 0-.508.08-.719.227-.244.159-.44.381-.567.643l-.908 4.614h-1.134l1.286-6.505h1.02l-.075.87c.193-.295.452-.54.756-.718a1.82 1.82 0 0 1 .908-.265c.076 0 .151 0 .265.038.113.038.15.038.189.038l-.378 1.096zm.34 2.194c.227-1.097.567-1.967 1.059-2.534.491-.567 1.096-.832 1.853-.832.34 0 .68.076.945.227.265.151.492.378.68.68l.266-.794h.983l-1.248 6.391c-.19.908-.53 1.589-1.059 2.043-.53.453-1.248.68-2.08.68-.309 0-.615-.051-.907-.151a2.398 2.398 0 0 1-.832-.34l.453-.908c.152.114.379.227.643.303.265.075.53.113.794.113.492 0 .87-.151 1.173-.454.33-.344.554-.778.643-1.248l.075-.454a2.22 2.22 0 0 1-1.626.643c-.68 0-1.21-.302-1.55-.945a3.324 3.324 0 0 1-.265-2.307v-.113zm1.134.113c-.15.68-.113 1.248.076 1.664.19.416.567.643 1.097.643.264 0 .53-.076.756-.227a2.24 2.24 0 0 0 .643-.68l.605-3.026a1.63 1.63 0 0 0-.492-.643 1.316 1.316 0 0 0-.794-.227c-.491 0-.87.227-1.172.643a4.298 4.298 0 0 0-.68 1.74l-.039.113zm7.526 3.252c-.794 0-1.4-.302-1.815-.907-.416-.605-.53-1.4-.378-2.345l.037-.265c.152-.945.53-1.74 1.135-2.344.605-.605 1.248-.908 1.929-.908.794 0 1.361.265 1.701.794.34.53.454 1.248.303 2.118l-.114.756H47.12c-.075.643-.038 1.173.19 1.589.226.378.566.567 1.058.567a2.84 2.84 0 0 0 1.778-.643l.34.756c-.64.553-1.462.85-2.307.832zm.756-5.786c-.34 0-.643.152-.945.492-.303.34-.53.756-.68 1.248v.038h2.646l.038-.152c.076-.491.038-.87-.151-1.172-.19-.302-.454-.454-.908-.454zm5.824-2.382l-.302 1.55h1.096l-.189.87h-1.096l-.795 3.933c-.075.303-.075.53.038.643.076.113.227.151.416.151.076 0 .19 0 .34-.038a.712.712 0 0 0 .303-.075v.794c-.113.076-.265.113-.492.19-.226.037-.415.075-.642.075-.416 0-.719-.152-.946-.454-.227-.303-.265-.756-.151-1.361l.794-3.933h-.945l.189-.87h.945l.303-1.55h1.134v.075z" fill="#6D6E71" fill-rule="nonzero"/><path d="M22.045 13.11h-2.989v8.845h-2.098V13.11h-2.946v-1.616h8.033v1.616zm.1 4.886c0-1.16.324-2.109.97-2.849.647-.74 1.543-1.11 2.687-1.11 1.15 0 2.05.369 2.702 1.107.651.737.977 1.688.977 2.852v.15c0 1.17-.325 2.121-.974 2.857-.649.735-1.546 1.102-2.69 1.102-1.15 0-2.05-.367-2.698-1.102-.65-.736-.974-1.688-.974-2.856v-.151zm2.091.15c0 .71.125 1.278.374 1.707.249.429.651.643 1.207.643.541 0 .937-.215 1.189-.647.251-.43.377-.998.377-1.702v-.151c0-.69-.127-1.253-.38-1.689-.255-.435-.655-.653-1.2-.653-.542 0-.938.219-1.19.657-.251.438-.377 1-.377 1.685v.15zm11.302 2.66a2.64 2.64 0 0 1-.913.962c-.369.225-.797.337-1.286.337-.819 0-1.46-.277-1.922-.833-.462-.556-.693-1.418-.693-2.586V14.18h2.09V18.7c0 .68.093 1.146.277 1.397.185.252.47.378.859.378.335 0 .622-.054.862-.162.24-.108.436-.267.589-.478v-5.654h2.098v7.774H35.76l-.222-1.15zm6.789-.31c.364 0 .654-.109.87-.327.215-.218.323-.509.323-.873h1.91l.015.043c.02.786-.273 1.443-.876 1.973-.604.529-1.351.793-2.242.793-1.15 0-2.038-.367-2.665-1.102-.628-.736-.942-1.676-.942-2.82v-.216c0-1.14.313-2.08.938-2.82.625-.74 1.51-1.11 2.655-1.11.948 0 1.712.273 2.292.82.58.545.86 1.264.84 2.155l-.014.043H43.52c0-.403-.107-.737-.32-1.003-.213-.265-.509-.398-.887-.398-.542 0-.926.216-1.154.65-.227.433-.34.988-.34 1.663v.216c0 .69.113 1.247.34 1.674.228.426.617.64 1.168.64zm6.387-5.33a2.67 2.67 0 0 1 .898-.83 2.367 2.367 0 0 1 1.178-.299c.81 0 1.446.27 1.908.808.462.54.693 1.371.693 2.497v4.613h-2.098v-4.627c0-.604-.097-1.031-.29-1.283-.195-.251-.486-.377-.874-.377-.32 0-.6.052-.837.155-.237.102-.43.25-.578.441v5.69h-2.098V10.748h2.098v4.418z" fill="#000" fill-rule="nonzero"/><path d="M267.982 110.162a.99.99 0 0 0-.333-.77c-.223-.2-.617-.38-1.182-.538-.81-.224-1.435-.518-1.875-.882-.44-.363-.659-.838-.659-1.424 0-.607.241-1.107.724-1.5s1.103-.59 1.862-.59c.813 0 1.464.219 1.952.655.488.436.723.974.706 1.616l-.01.03h-1.21c0-.396-.133-.711-.396-.946-.264-.234-.615-.351-1.053-.351-.424 0-.75.1-.98.3a.982.982 0 0 0-.344.775c0 .29.126.529.378.717.252.187.669.366 1.251.535.79.22 1.391.521 1.805.902.414.381.62.868.62 1.461 0 .624-.244 1.122-.734 1.495-.49.372-1.132.558-1.928.558-.766 0-1.433-.203-2.002-.61-.569-.407-.844-.98-.827-1.722l.01-.031h1.21c0 .451.156.792.468 1.021.312.23.692.344 1.14.344.445 0 .79-.094 1.037-.282a.909.909 0 0 0 .37-.763zm4.789 2.043c-.817 0-1.456-.258-1.916-.773-.46-.515-.69-1.183-.69-2.004v-.207c0-.82.23-1.497.69-2.03.46-.532 1.054-.797 1.781-.793.752 0 1.32.232 1.707.695.386.464.579 1.084.579 1.86v.677h-3.46l-.01.026c.014.458.134.83.362 1.117.228.286.57.429 1.03.429.34 0 .636-.041.886-.124.25-.083.482-.202.696-.357l.408.822a2.663 2.663 0 0 1-.848.47 3.554 3.554 0 0 1-1.215.192zm-.135-4.799a.97.97 0 0 0-.786.354c-.196.237-.319.544-.367.923l.01.026h2.188v-.098c0-.358-.084-.649-.25-.871-.168-.223-.433-.334-.795-.334zm4.644 4.69h-1.257v-8.067h1.257v8.068zm3.78.11c-.817 0-1.455-.259-1.916-.774-.46-.515-.69-1.183-.69-2.004v-.207c0-.82.23-1.497.69-2.03.46-.532 1.054-.797 1.782-.793.751 0 1.32.232 1.706.695.386.464.58 1.084.58 1.86v.677h-3.46l-.01.026c.013.458.134.83.362 1.117.227.286.57.429 1.029.429.341 0 .637-.041.887-.124.25-.083.481-.202.695-.357l.409.822a2.663 2.663 0 0 1-.848.47 3.554 3.554 0 0 1-1.216.192zm-.134-4.8a.97.97 0 0 0-.786.354c-.197.237-.32.544-.367.923l.01.026h2.187v-.098c0-.358-.083-.649-.25-.871-.168-.223-.432-.334-.794-.334zm6.448 3.16a.58.58 0 0 0-.245-.479c-.164-.125-.473-.238-.928-.338-.659-.135-1.162-.333-1.51-.595a1.253 1.253 0 0 1-.523-1.055c0-.469.198-.87.595-1.202.396-.333.919-.5 1.567-.5.669 0 1.207.172 1.616.515.408.343.604.756.587 1.239l-.01.03h-1.205a.784.784 0 0 0-.27-.591c-.179-.167-.418-.251-.718-.251-.304 0-.535.069-.693.207a.647.647 0 0 0-.238.507c0 .19.074.34.222.455.149.113.454.215.916.305.686.138 1.203.34 1.551.607.348.268.522.625.522 1.073 0 .504-.207.915-.623 1.234-.415.319-.962.478-1.642.478-.727 0-1.301-.186-1.722-.558-.42-.373-.62-.8-.6-1.283l.01-.03h1.17c.013.323.13.56.351.708.22.148.49.222.807.222.32 0 .57-.064.747-.191a.595.595 0 0 0 .266-.507zm5.735 1.53a4.638 4.638 0 0 1-.11-.413 2.957 2.957 0 0 1-.06-.404 2.155 2.155 0 0 1-.678.66 1.743 1.743 0 0 1-.946.266c-.583 0-1.03-.15-1.342-.45-.312-.3-.468-.712-.468-1.236 0-.541.214-.962.641-1.264.428-.302 1.03-.453 1.805-.453h.977v-.49c0-.294-.085-.523-.256-.689-.17-.165-.418-.248-.742-.248-.286 0-.513.068-.682.204a.65.65 0 0 0-.254.53l-1.21.006-.005-.031c-.024-.442.173-.833.592-1.174.42-.342.965-.512 1.637-.512.651 0 1.177.165 1.577.496.4.331.6.807.6 1.427v2.488c0 .23.016.452.047.664.03.212.08.42.15.624h-1.273zm-1.535-.9c.313 0 .597-.079.85-.237.254-.159.422-.34.504-.543v-.828h-.998c-.365 0-.651.09-.858.272-.207.18-.31.394-.31.639 0 .213.07.383.21.509.139.126.34.189.602.189zm5.264.9h-1.257v-5.595h1.257v5.596zm0-6.965h-1.257v-1.102h1.257v1.102z" fill="#2A3052"/></g></svg>