<svg width="300" height="199" viewBox="0 0 300 199" xmlns="http://www.w3.org/2000/svg"><title>Group 2</title><g fill="none" fill-rule="evenodd"><path fill="#F1F2F2" fill-rule="nonzero" d="M0 0h300v199H0z"/><path d="M39.125 55.375V74.75H75.25V55.375H39.125zm0-1H75.25V34h1v20.375h36.125V34h1v20.375H149.5V34h1v20.375h36.125V34h1v20.375h36.125V34h1v20.375h36.125V34h1v20.375H299.5v1h-37.625V74.75H299.5v1h-37.625v19.375H299.5v1h-37.625V115.5H299.5v1h-37.625v19.375H299.5v1h-37.625v19.375H299.5v1h-37.625v19.375H299.5v1h-37.625V199h-1v-21.375H224.75V199h-1v-21.375h-36.125V199h-1v-21.375H150.5V199h-1v-21.375h-36.125V199h-1v-21.375H76.25V199h-1v-21.375H39.125V199h-1v-21.375H1.5v-1h36.625V157.25H1.5v-1h36.625v-19.375H1.5v-1h36.625V116.5H1.5v-1h36.625V96.125H1.5v-1h36.625V75.75H1.5v-1h36.625V55.375H1.5v-1h36.625V34h1v20.375zm221.75 1H224.75V74.75h36.125V55.375zm-37.125 0h-36.125V74.75h36.125V55.375zm-37.125 0H150.5V74.75h36.125V55.375zm-37.125 0h-36.125V74.75H149.5V55.375zm-37.125 0H76.25V74.75h36.125V55.375zM39.125 75.75v19.375H75.25V75.75H39.125zm221.75 0H224.75v19.375h36.125V75.75zm-37.125 0h-36.125v19.375h36.125V75.75zm-37.125 0H150.5v19.375h36.125V75.75zm-37.125 0h-36.125v19.375H149.5V75.75zm-37.125 0H76.25v19.375h36.125V75.75zm-73.25 20.375V115.5H75.25V96.125H39.125zm221.75 0H224.75V115.5h36.125V96.125zm-37.125 0h-36.125V115.5h36.125V96.125zm-37.125 0H150.5V115.5h36.125V96.125zm-37.125 0h-36.125V115.5H149.5V96.125zm-37.125 0H76.25V115.5h36.125V96.125zM39.125 116.5v19.375H75.25V116.5H39.125zm221.75 0H224.75v19.375h36.125V116.5zm-37.125 0h-36.125v19.375h36.125V116.5zm-37.125 0H150.5v19.375h36.125V116.5zm-37.125 0h-36.125v19.375H149.5V116.5zm-37.125 0H76.25v19.375h36.125V116.5zm-73.25 20.375v19.375H75.25v-19.375H39.125zm221.75 0H224.75v19.375h36.125v-19.375zm-37.125 0h-36.125v19.375h36.125v-19.375zm-37.125 0H150.5v19.375h36.125v-19.375zm-37.125 0h-36.125v19.375H149.5v-19.375zm-37.125 0H76.25v19.375h36.125v-19.375zm-73.25 20.375v19.375H75.25V157.25H39.125zm221.75 0H224.75v19.375h36.125V157.25zm-37.125 0h-36.125v19.375h36.125V157.25zm-37.125 0H150.5v19.375h36.125V157.25zm-37.125 0h-36.125v19.375H149.5V157.25zm-37.125 0H76.25v19.375h36.125V157.25z" fill="#DFDEDE" fill-rule="nonzero"/><path stroke="#C2C2C2" stroke-width="2" d="M1 1h298v197H1z"/><path fill="#C2C2C2" fill-rule="nonzero" d="M0 33h300v2H0z"/><g transform="translate(3 47.61)"><path d="M.62 109.164h293.334" stroke="#293052" stroke-width="1.215" stroke-linejoin="round" stroke-dasharray="3.608"/><path stroke="#293052" stroke-width="3.608" stroke-linecap="round" stroke-linejoin="round" d="M221.93 109.164l-32.38-70.545-42.856 32.254-43.505-30.735-30.01 27.735-37.121-31.552"/><path d="M254.349 69.704l.688-6.778h6.04v1.48h-4.626l-.382 3.467c.259-.193.541-.35.84-.467a3.12 3.12 0 0 1 1.071-.195 3.22 3.22 0 0 1 2.638 1.13 4.497 4.497 0 0 1 .956 3.038 4.376 4.376 0 0 1-.994 2.96 3.558 3.558 0 0 1-2.829 1.13 3.777 3.777 0 0 1-2.561-.857 2.989 2.989 0 0 1-.994-2.493h1.49c-.036.58.173 1.147.574 1.558.404.38.942.578 1.491.546a1.897 1.897 0 0 0 1.606-.74 3.284 3.284 0 0 0 .42-2.182 3.079 3.079 0 0 0-.573-1.948 1.898 1.898 0 0 0-1.606-.779 2.522 2.522 0 0 0-1.414.312 1.712 1.712 0 0 0-.65.896l-1.185-.078zm6.078 21.152h1.644v1.324h-1.644v2.844h-1.644V92.14h-5.428v-.935l5.314-8.53h1.72v8.18h.038zm-5.314 0h3.823v-5.804.428l-3.823 5.376zm6.614 45.303h-7.837v-1.169l3.823-4.48c.55-.58 1.038-1.22 1.452-1.908.245-.44.377-.936.383-1.442a2.325 2.325 0 0 0-.535-1.558 1.744 1.744 0 0 0-1.415-.623 2.382 2.382 0 0 0-1.835.662 2.641 2.641 0 0 0-.612 1.83H253.7a3.502 3.502 0 0 1 1.032-2.687 4.008 4.008 0 0 1 2.982-1.09c.96-.052 1.9.3 2.6.973.638.648.984 1.537.955 2.454a3.95 3.95 0 0 1-.573 2.026c-.47.785-1.021 1.516-1.644 2.181l-3.173 3.506h5.81v1.325h.039zm0-113.705a17.302 17.302 0 0 0-2.944 4.713 21.452 21.452 0 0 0-1.108 4.986v1.324h-1.72v-1.324c.202-1.83.68-3.616 1.414-5.298a20.005 20.005 0 0 1 2.752-4.48h-6.575V21.13h8.18v1.325zm-.459-18.114a2.761 2.761 0 0 1-.535 1.675c-.369.501-.874.88-1.453 1.09a3.821 3.821 0 0 1 1.682 1.17c.408.518.624 1.166.612 1.83.058 1-.354 1.969-1.109 2.61a4.969 4.969 0 0 1-5.696 0 3.224 3.224 0 0 1-1.07-2.61c-.01-.664.207-1.31.611-1.83a3.556 3.556 0 0 1 1.644-1.17 3.065 3.065 0 0 1-1.414-1.09 2.842 2.842 0 0 1-.497-1.675c-.05-.94.314-1.855.994-2.493a3.778 3.778 0 0 1 2.6-.896c.945-.04 1.871.28 2.599.896a3.145 3.145 0 0 1 1.032 2.493zm-1.3 5.726a2.243 2.243 0 0 0-2.293-2.337 2.157 2.157 0 0 0-1.644.634 2.243 2.243 0 0 0-.65 1.664 2.163 2.163 0 0 0 .65 1.636 2.637 2.637 0 0 0 3.326 0c.417-.42.64-1 .611-1.597zm-.19-5.687a2.126 2.126 0 0 0-.574-1.519 2 2 0 0 0-2.83 0 2.167 2.167 0 0 0-.534 1.52c-.032.559.161 1.107.535 1.518a2.037 2.037 0 0 0 2.829 0c.387-.405.594-.954.573-1.519z" fill="#808184" fill-rule="nonzero"/><path d="M186.07 99.23h-35.4l-5.581-8.296-5.353 8.297h-35.4c-2.64 0-4.779 2.18-4.779 4.869v25.203c0 2.689 2.14 4.869 4.779 4.869h81.735a4.731 4.731 0 0 0 3.453-1.384 4.915 4.915 0 0 0 1.44-3.485v-25.164a4.916 4.916 0 0 0-1.426-3.51 4.731 4.731 0 0 0-3.467-1.398z" fill="#E88024" fill-rule="nonzero"/><ellipse cx="8.545" cy="9.192" rx="8.219" ry="8.609" opacity=".6" transform="translate(213.079 99.971)" fill="#FFF" fill-rule="nonzero"/><ellipse stroke="#E88024" stroke-width="2.43" cx="221.624" cy="109.164" rx="8.219" ry="8.609"/><path d="M258.516 41.385a5.253 5.253 0 0 1 1.223 0c.345.072.679.19.994.35l-.344 1.286-.841-.35a3.753 3.753 0 0 0-1.032 0 2.47 2.47 0 0 0-2.103 1.051 4.461 4.461 0 0 0-.803 2.766 3.809 3.809 0 0 1 1.223-.74 4.023 4.023 0 0 1 1.491-.273 3.221 3.221 0 0 1 2.6 1.13c.654.809.994 1.835.956 2.882a4.653 4.653 0 0 1-1.032 3.116 3.411 3.411 0 0 1-2.753 1.208 3.792 3.792 0 0 1-2.944-1.324 5.405 5.405 0 0 1-1.146-3.701v-2.337a5.598 5.598 0 0 1 1.3-3.895 4.084 4.084 0 0 1 3.21-1.17zm-.574 5.57a2.75 2.75 0 0 0-1.414.35c-.388.216-.707.54-.918.936v1.012c-.05.929.206 1.847.727 2.61a2.13 2.13 0 0 0 1.758.935 1.751 1.751 0 0 0 1.682-.935c.391-.642.59-1.386.574-2.142a3.198 3.198 0 0 0-.574-2.026 1.971 1.971 0 0 0-1.835-.779v.04z" fill="#808184" fill-rule="nonzero"/><path fill="#E88024" fill-rule="nonzero" d="M244.753 99.503h28.863v19.321h-28.863z"/><path fill="#E88024" fill-rule="nonzero" d="M248.27 109.164l-3.364 3.428-5.238-3.428 5.238-3.428z"/><path d="M256.184 107.995h1.376c.466.034.925-.136 1.261-.467.297-.358.447-.818.421-1.286a1.694 1.694 0 0 0-.42-1.207 1.582 1.582 0 0 0-1.224-.273c-.416-.02-.825.12-1.147.39a1.336 1.336 0 0 0-.459 1.051h-2.37a2.826 2.826 0 0 1 1.07-2.376 4.267 4.267 0 0 1 2.83-.935 4.603 4.603 0 0 1 2.982.896 3.183 3.183 0 0 1 1.108 2.61 2.643 2.643 0 0 1-.497 1.52 3.377 3.377 0 0 1-1.376 1.129c.614.203 1.15.598 1.53 1.13a3 3 0 0 1 .534 1.753 3.218 3.218 0 0 1-1.223 2.648 4.793 4.793 0 0 1-3.097.974 4.679 4.679 0 0 1-2.905-.896 2.905 2.905 0 0 1-1.147-2.57h2.523c-.01.444.172.871.497 1.168.348.313.798.48 1.262.467.49.033.971-.135 1.338-.467.335-.339.515-.805.497-1.286a1.893 1.893 0 0 0-.459-1.44 1.964 1.964 0 0 0-1.414-.468h-1.491v-2.065z" fill="#FFF" fill-rule="nonzero"/><path d="M246.053 79.209h23.129" stroke="#293052" stroke-width="1.215" stroke-linejoin="round"/><g fill="#FFF" fill-rule="nonzero"><path d="M170.52 117.78h-2.523v-8.348h2.523zM170.52 122.171h-2.523v-2.242h2.523z"/><g><path d="M141.034 111.563c2.923 0 4.508 1.782 4.909 4.452.4 2.67-1.04 6.44-4.703 6.44-3.663 0-4.848-2.785-4.848-5.667 0-2.882 1.72-5.225 4.642-5.225zm.026 1.871c-.869.082-2.408.69-2.318 3.572.09 2.882 1.35 3.559 2.318 3.559.97 0 2.602-.268 2.602-3.547 0-3.278-1.733-3.666-2.602-3.584zM135.775 111.632c-.095.906-.2 1.65-.314 2.234-1.14-.074-2.322-.182-2.84 1.15l.015 7.16h-2.345v-10.46h2.086c.1.698.162 1.207.186 1.527.721-1.346 1.792-1.883 3.212-1.61zM120.702 122.177h-2.387v-13.984h6.148c1.926 0 4.561 1.605 4.273 4.79-.192 2.122-1.617 3.41-4.273 3.863h-3.761v5.33zm.01-7.186h3.156c.779 0 2.519-.54 2.519-2.544 0-2.003-1.724-2.463-2.519-2.436-.53.018-1.581.009-3.155-.027v5.007zM153.542 107.068c-.108.558-.166 1.112-.251 1.82-.363-.08-2.397-.594-2.445 1.61v1.218h1.935v1.687h-1.935l.048 8.774h-2.422v-8.774h-1.525v-1.687h1.616c-.167-2.154.269-3.57 1.306-4.244 1.557-1.013 3.09-.594 3.673-.404zM155.298 111.74h2.343v10.381h-2.343zM155.344 107.153v1.985h2.332v-1.985zM164.053 109.21v2.58h1.807v1.712h-1.807v6.19c0 1.25 1.583.835 1.686.784l.277 1.652c-.155.104-3.925 1.445-4.326-2.437v-6.189h-1.555v-1.711h1.555v-2.582h2.363z"/></g></g></g><path d="M188.453 21.875V12.46h2.961c1.229 0 2.217.378 2.965 1.135.748.756 1.122 1.734 1.122 2.932v1.287c0 1.203-.374 2.18-1.122 2.933-.748.752-1.736 1.128-2.965 1.128h-2.961zm1.273-8.413v7.417h1.688c.871 0 1.558-.286 2.06-.86.502-.573.753-1.308.753-2.205v-1.3c0-.888-.25-1.618-.753-2.192-.502-.573-1.189-.86-2.06-.86h-1.688zm8.899 8.413h-1.274v-6.997h1.274v6.997zm0-8.788h-1.274v-1.3h1.274v1.3zm1.733 5.42c0-1.126.24-2.034.72-2.723.482-.69 1.153-1.035 2.015-1.035.444 0 .834.09 1.17.268.337.18.62.437.848.773l.155-.912h1.015v7.036c0 .897-.26 1.586-.782 2.066-.522.48-1.274.721-2.257.721-.336 0-.7-.046-1.09-.139a4.26 4.26 0 0 1-1.031-.378l.194-.99c.246.13.542.234.89.314.346.08.688.12 1.024.12.62 0 1.072-.141 1.355-.424.282-.282.423-.712.423-1.29v-.795a2.256 2.256 0 0 1-.82.666c-.32.15-.688.226-1.107.226-.853 0-1.52-.31-2.001-.928-.48-.619-.721-1.432-.721-2.441v-.136zm1.274.135c0 .703.144 1.267.433 1.694.289.427.735.64 1.339.64.383 0 .705-.087.963-.261.259-.175.472-.422.64-.74v-3.221a1.976 1.976 0 0 0-.64-.708c-.263-.175-.58-.262-.95-.262-.608 0-1.058.252-1.349.756-.29.505-.436 1.16-.436 1.966v.136zm7.857 3.233h-1.274v-6.997h1.274v6.997zm0-8.788h-1.274v-1.3h1.274v1.3zm3.731.103v1.688h1.326v.944h-1.326v4.25c0 .327.068.557.204.691.136.134.316.2.54.2.073 0 .155-.01.246-.029.09-.019.166-.04.226-.061l.175.873a1.126 1.126 0 0 1-.42.19 2.12 2.12 0 0 1-.55.075c-.518 0-.93-.156-1.236-.469-.306-.312-.459-.803-.459-1.47v-4.25h-1.112v-.944h1.112V13.19h1.274zm12.74.272h-3.104v8.413h-1.274v-8.413h-3.065V12.46h7.443v1.002zm3.42 8.55c-1.004 0-1.787-.322-2.35-.964-.563-.643-.844-1.488-.844-2.535v-.285c0-1.004.29-1.835.87-2.493.58-.657 1.288-.986 2.124-.986.936 0 1.637.29 2.105.873.468.582.702 1.356.702 2.322v.672h-4.475l-.02.032c0 .703.156 1.273.466 1.71.31.438.785.657 1.423.657.43 0 .81-.061 1.135-.184.325-.123.604-.292.837-.508l.498.828c-.25.241-.58.445-.99.611-.409.166-.903.25-1.48.25zm-.2-6.26c-.444 0-.811.17-1.102.513-.291.343-.47.782-.534 1.316l.013.033h3.156v-.104c0-.508-.125-.929-.375-1.26-.25-.333-.636-.499-1.158-.499zm7.547.251l-.653-.038c-.336 0-.62.08-.85.239-.231.16-.41.384-.534.672v5h-1.274v-6.998h1.138l.123 1.022c.198-.362.443-.645.734-.847a1.716 1.716 0 0 1 1.006-.304 1.8 1.8 0 0 1 .485.071l-.175 1.183zm5.626 5.872a10.352 10.352 0 0 1-.1-.56 4.106 4.106 0 0 1-.042-.487 2.97 2.97 0 0 1-.928.844c-.382.226-.792.34-1.232.34-.729 0-1.284-.187-1.665-.56-.382-.373-.573-.887-.573-1.543 0-.668.27-1.19.812-1.568.541-.377 1.275-.566 2.202-.566h1.384v-.692c0-.41-.125-.734-.375-.973-.25-.24-.604-.359-1.06-.359-.415 0-.749.104-1.003.31-.255.208-.382.456-.382.744l-1.209.013-.013-.039c-.03-.508.208-.974.715-1.396.506-.423 1.16-.634 1.962-.634.794 0 1.432.201 1.914.605.483.403.725.984.725 1.742v3.37c0 .25.013.491.039.724.025.233.073.461.142.685h-1.313zm-2.115-.93c.462 0 .878-.12 1.248-.357.371-.237.613-.508.725-.814v-1.139h-1.43c-.512 0-.923.13-1.231.388-.309.26-.463.563-.463.912 0 .31.097.556.291.737.194.182.481.272.86.272zm7.03-2.297h-.653v3.227h-1.274V11.787h1.274v5.846h.64l2.102-2.755h1.526l-2.542 3.227 2.762 3.77h-1.507l-2.328-3.227zm6.13-2.832c.242-.336.538-.598.89-.786a2.44 2.44 0 0 1 1.167-.281c.746 0 1.326.224 1.743.672.416.449.624 1.139.624 2.07v4.384h-1.274v-4.397c0-.578-.124-1.005-.372-1.28-.248-.276-.618-.414-1.11-.414-.379 0-.708.074-.989.223a1.8 1.8 0 0 0-.679.624v5.244h-1.274V11.787h1.274v4.029zm7.631 6.06h-1.274v-6.998h1.274v6.997zm0-8.789h-1.274v-1.3h1.274v1.3zm5.27 2.916l-.653-.038c-.336 0-.62.08-.85.239-.23.16-.409.384-.534.672v5h-1.273v-6.998h1.138l.123 1.022c.198-.362.443-.645.734-.847a1.716 1.716 0 0 1 1.005-.304 1.8 1.8 0 0 1 .485.071l-.175 1.183z" fill="#2A3052" fill-rule="nonzero"/><path d="M270.224 16.086h-1.299v-1.37h1.335v1.37h-.036zm0 5.88h-1.299v-1.37h1.335v1.37h-.036zm5.663-4.4l.578-5.375h4.905v1.19h-3.607l-.324 2.741c.211-.149.442-.27.685-.36.286-.05.58-.05.866 0a2.633 2.633 0 0 1 2.128.865c.536.688.805 1.547.757 2.417a3.607 3.607 0 0 1-.793 2.381 2.922 2.922 0 0 1-2.309.902 3.138 3.138 0 0 1-2.308-.902 2.345 2.345 0 0 1-.794-1.984h1.19c-.023.457.147.902.47 1.227.337.35.812.535 1.298.505a1.551 1.551 0 0 0 1.443-.686 2.525 2.525 0 0 0 .469-1.623 2.453 2.453 0 0 0-.47-1.551 1.551 1.551 0 0 0-1.298-.613 2.092 2.092 0 0 0-1.118.216c-.245.176-.423.43-.505.721l-1.263-.072z" fill="#293052" fill-rule="nonzero"/><path d="M26.362 11.777v7.68c0 1.32-.438 2.355-1.314 3.102-.876.746-2.012 1.12-3.408 1.12-1.392 0-2.521-.374-3.389-1.12-.868-.747-1.301-1.781-1.301-3.103v-7.68h2.36v7.68c0 .785.21 1.384.63 1.797.418.414.985.62 1.7.62.725 0 1.3-.206 1.724-.62.424-.413.637-1.012.637-1.797v-7.68h2.36zm4.012 3.014l.105 1.249c.29-.446.648-.793 1.072-1.04.424-.247.9-.37 1.426-.37.881 0 1.569.283 2.063.85.494.566.741 1.462.741 2.687v5.342h-2.36v-5.334c0-.623-.11-1.065-.327-1.326-.217-.26-.544-.39-.979-.39-.35 0-.657.065-.923.197a1.801 1.801 0 0 0-.656.544v6.31h-2.353v-8.72h2.191zm6.802 4.432c0-1.376.296-2.485.89-3.328.594-.844 1.43-1.266 2.51-1.266.435 0 .827.094 1.177.282.349.189.655.457.918.806V10.94h2.361v12.57h-2.006l-.202-1.071c-.274.403-.599.71-.975.922a2.578 2.578 0 0 1-1.29.319c-1.068 0-1.9-.392-2.493-1.177-.594-.784-.89-1.82-.89-3.11v-.17zm2.344.169c0 .763.13 1.363.387 1.8.258.439.677.658 1.257.658.339 0 .634-.069.887-.206a1.64 1.64 0 0 0 .62-.6v-3.715a1.81 1.81 0 0 0-.616-.64 1.64 1.64 0 0 0-.875-.23c-.574 0-.995.255-1.26.765-.267.51-.4 1.177-.4 1.999v.169zm11.113 4.287c-1.3 0-2.316-.4-3.046-1.197-.731-.798-1.096-1.825-1.096-3.082v-.322c0-1.306.354-2.375 1.063-3.208.71-.832 1.684-1.246 2.925-1.24 1.172 0 2.07.358 2.696 1.075.626.717.939 1.683.939 2.897v1.217h-5.198l-.024.048c.038.597.219 1.08.544 1.45.325.371.807.557 1.446.557.527 0 .974-.054 1.342-.161a5.474 5.474 0 0 0 1.14-.492l.637 1.45c-.35.285-.822.524-1.418.718a6.29 6.29 0 0 1-1.95.29zm-.154-7.236c-.472 0-.836.162-1.091.487-.256.325-.41.756-.464 1.293l.016.04h2.869v-.177c0-.51-.105-.912-.314-1.204-.21-.293-.548-.44-1.016-.44zm9.59.37l-.863-.024c-.349 0-.636.073-.862.218-.226.145-.397.349-.516.612v5.89h-2.345v-8.718h2.184l.105 1.289c.204-.457.469-.813.794-1.068a1.77 1.77 0 0 1 1.124-.383c.118 0 .227.01.326.029.1.018.2.041.302.068l-.25 2.087z" fill="#000" fill-rule="nonzero"/></g></svg>