<?xml version="1.0" encoding="UTF-8"?>
<svg width="299px" height="197px" viewBox="0 0 299 197" version="1.1" xmlns="http://www.w3.org/2000/svg" xmlns:xlink="http://www.w3.org/1999/xlink">
    <!-- Generator: Sketch 52.6 (67491) - http://www.bohemiancoding.com/sketch -->
    <title>call spread</title>
    <desc>Created with Sketch.</desc>
    <g id="Page-1" stroke="none" stroke-width="1" fill="none" fill-rule="evenodd">
        <g id="call-spread">
            <g id="Group">
                <polygon id="Path" fill="#F1F2F2" points="299 0 299 197 0 197 0 1.28704739e-14"></polygon>
                <path d="M297.013289,1.9798995 L1.98671096,1.9798995 L1.98671096,195.020101 L297.013289,195.020101 L297.013289,1.9798995 Z M299,197 L0,197 L0,0 L299,0 L299,197 Z" id="Path" fill="#C2C2C2" fill-rule="nonzero"></path>
                <g id="Group-12" transform="translate(0.000000, 27.000000)">
                    <polygon id="Path" fill="#2A3052" fill-rule="nonzero" points="247.483108 14.2066671 248.493244 14.2066671 248.493244 150.275379 247.483108 150.275379"></polygon>
                    <path d="M2.94050338,25.9484582 L2.94050338,24.7251846 L296.511027,24.7251846 L296.511027,25.9484582 L2.94050338,25.9484582 Z M2.94050338,66.8450552 L2.94050338,65.6217816 L296.511027,65.6217816 L296.511027,66.8450552 L2.94050338,66.8450552 Z M2.94050338,107.738637 L2.94050338,106.515363 L296.511027,106.515363 L296.511027,107.738637 L2.94050338,107.738637 Z M2.94050338,148.596035 L2.94050338,147.372761 L296.511027,147.372761 L296.511027,148.596035 L2.94050338,148.596035 Z M37.7846098,4.90812245 L39.0078834,4.90812245 L39.0078834,166.000852 L37.7846098,166.000852 L37.7846098,4.90812245 Z M74.9464713,4.90812245 L76.1697449,4.90812245 L76.1697449,166.000852 L74.9464713,166.000852 L74.9464713,4.90812245 Z M112.068937,4.90812245 L113.292211,4.90812245 L113.292211,166.000852 L112.068937,166.000852 L112.068937,4.90812245 Z M149.228779,4.90812245 L150.452053,4.90812245 L150.452053,166.000852 L149.228779,166.000852 L149.228779,4.90812245 Z M186.351245,4.90812245 L187.574519,4.90812245 L187.574519,166.000852 L186.351245,166.000852 L186.351245,4.90812245 Z M223.473711,4.90812245 L224.696985,4.90812245 L224.696985,166.000852 L223.473711,166.000852 L223.473711,4.90812245 Z M2.94050338,87.272749 L2.94050338,86.0494754 L296.511027,86.0494754 L296.511027,87.272749 L2.94050338,87.272749 Z" id="Shape" fill="#DFDEDE" fill-rule="nonzero"></path>
                    <path d="M2.94050338,42.1704559 L2.94050338,41.0259727 L296.511027,41.0259727 L296.511027,42.1704559 L2.94050338,42.1704559 Z M2.94050338,122.57862 L2.94050338,121.434136 L296.511027,121.434136 L296.511027,122.57862 L2.94050338,122.57862 Z" id="Shape" fill="#15212D" fill-rule="nonzero"></path>
                    <polygon id="Path" fill="#C2C2C2" fill-rule="nonzero" points="0.819219595 3.37123283 0.819219595 0.92468553 298.632311 0.92468553 298.632311 3.37123283"></polygon>
                    <path d="M21.477725,84.1404287 C21.1023291,84.3252157 20.6482111,84.1706967 20.4634241,83.7953008 C20.2786371,83.4199049 20.4331561,82.9657869 20.808552,82.7809999 L29.8714109,78.319846 C30.2468068,78.135059 30.7009248,78.289578 30.8857119,78.6649739 C31.0704989,79.0403698 30.9159799,79.4944877 30.540584,79.6792748 L21.477725,84.1404287 Z M39.603443,75.2181209 C39.2280471,75.4029079 38.7739291,75.2483889 38.589142,74.872993 C38.404355,74.4975971 38.558874,74.0434791 38.9342699,73.8586921 L47.9971289,69.3975382 C48.3725248,69.2127511 48.8266428,69.3672701 49.0114298,69.742666 C49.1962168,70.1180619 49.0416978,70.5721799 48.6663019,70.756967 L39.603443,75.2181209 Z M57.7291609,66.295813 C57.353765,66.4806001 56.899647,66.3260811 56.71486,65.9506852 C56.5300729,65.5752893 56.684592,65.1211713 57.0599878,64.9363843 L66.1228468,60.4752303 C66.4982427,60.2904433 66.9523607,60.4449623 67.1371477,60.8203582 C67.3219348,61.1957541 67.1674158,61.6498721 66.7920199,61.8346591 L57.7291609,66.295813 Z M75.8548788,57.3735052 C75.479483,57.5582923 75.025365,57.4037732 74.8405779,57.0283773 C74.6557909,56.6529815 74.8103099,56.1988635 75.1857058,56.0140764 L84.2485648,51.5529225 C84.6239606,51.3681355 85.0780786,51.5226545 85.2628657,51.8980504 C85.4476527,52.2734463 85.2931337,52.7275643 84.9177378,52.9123513 L75.8548788,57.3735052 Z M93.9774912,50.7954703 C93.5612352,50.7530526 93.2581794,50.3812241 93.3005971,49.9649681 C93.3430148,49.5487121 93.7148432,49.2456562 94.1310993,49.2880739 L104.180409,50.3121274 C104.596665,50.3545451 104.899721,50.7263736 104.857303,51.1426296 C104.814885,51.5588856 104.443057,51.8619415 104.026801,51.8195238 L93.9774912,50.7954703 Z M114.07611,52.8435773 C113.659854,52.8011596 113.356798,52.4293311 113.399216,52.0130751 C113.441634,51.5968191 113.813462,51.2937633 114.229718,51.336181 L124.279028,52.3602345 C124.695284,52.4026522 124.99834,52.7744807 124.955922,53.1907367 C124.913504,53.6069927 124.541676,53.9100485 124.12542,53.8676308 L114.07611,52.8435773 Z M134.174729,54.8916844 C133.758473,54.8492667 133.455417,54.4774382 133.497835,54.0611822 C133.540253,53.6449262 133.912081,53.3418703 134.328337,53.384288 L144.377647,54.4083415 C144.793903,54.4507592 145.096959,54.8225877 145.054541,55.2388437 C145.012123,55.6550997 144.640295,55.9581556 144.224039,55.9157379 L134.174729,54.8916844 Z M154.273348,56.9397914 C153.857092,56.8973737 153.554036,56.5255452 153.596454,56.1092892 C153.638872,55.6930332 154.0107,55.3899773 154.426956,55.432395 L164.476266,56.4564485 C164.892522,56.4988662 165.195578,56.8706947 165.15316,57.2869507 C165.110742,57.7032067 164.738914,58.0062626 164.322658,57.9638449 L154.273348,56.9397914 Z M183.728656,55.4017038 C184.114073,55.2388468 184.558536,55.419267 184.721393,55.8046836 C184.88425,56.1901002 184.70383,56.6345637 184.318413,56.7974207 L178.209071,59.3789104 L174.371967,58.9878984 C173.955711,58.9454807 173.652655,58.5736522 173.695073,58.1573962 C173.737491,57.7411402 174.109319,57.4380844 174.525575,57.4805021 L177.976699,57.8321814 L183.728656,55.4017038 Z M193.623193,52.8657055 C193.237776,53.0285624 192.793313,52.8481422 192.630456,52.4627257 C192.467599,52.0773091 192.648019,51.6328456 193.033436,51.4699886 L202.338215,47.5382734 C202.723632,47.3754164 203.168095,47.5558366 203.330952,47.9412532 C203.493809,48.3266698 203.313389,48.7711333 202.927972,48.9339903 L193.623193,52.8657055 Z M212.232752,45.0022751 C211.847335,45.165132 211.402872,44.9847118 211.240015,44.5992953 C211.077158,44.2138787 211.257578,43.7694152 211.642995,43.6065582 L220.947774,39.674843 C221.333191,39.511986 221.777654,39.6924062 221.940511,40.0778228 C222.103368,40.4632394 221.922948,40.9077029 221.537532,41.0705599 L212.232752,45.0022751 Z M230.842311,37.1388447 C230.456894,37.3017016 230.012431,37.1212814 229.849574,36.7358649 C229.686717,36.3504483 229.867137,35.9059848 230.252554,35.7431278 L239.557333,31.8114126 C239.94275,31.6485556 240.387213,31.8289758 240.55007,32.2143924 C240.712927,32.599809 240.532507,33.0442725 240.147091,33.2071295 L230.842311,37.1388447 Z" id="Path" fill="#6E7287" fill-rule="nonzero"></path>
                    <path d="M20.6438964,84.2773809 C20.237272,84.3759961 19.8276944,84.1263053 19.7290793,83.719681 C19.6304641,83.3130566 19.8801549,82.903479 20.2867792,82.8048639 L30.1035602,80.4240828 C30.5101846,80.3254677 30.9197621,80.5751585 31.0183773,80.9817828 C31.1169925,81.3884072 30.8673017,81.7979848 30.4606773,81.8965999 L20.6438964,84.2773809 Z M40.2774583,79.5158189 C39.870834,79.6144341 39.4612564,79.3647433 39.3626412,78.9581189 C39.264026,78.5514946 39.5137168,78.141917 39.9203412,78.0433018 L49.7371222,75.6625208 C50.1437465,75.5639056 50.5533241,75.8135964 50.6519393,76.2202208 C50.7505544,76.6268452 50.5008637,77.0364227 50.0942393,77.1350379 L40.2774583,79.5158189 Z M59.9110203,74.7542569 C59.5043959,74.8528721 59.0948183,74.6031813 58.9962032,74.1965569 C58.897588,73.7899325 59.1472788,73.380355 59.5539031,73.2817398 L69.3706841,70.9009588 C69.7773085,70.8023436 70.186886,71.0520344 70.2855012,71.4586588 C70.3841164,71.8652831 70.1344256,72.2748607 69.7278012,72.3734759 L59.9110203,74.7542569 Z M79.5445822,69.9926949 C79.1379578,70.09131 78.7283803,69.8416192 78.6297651,69.4349949 C78.5311499,69.0283705 78.7808407,68.6187929 79.1874651,68.5201778 L89.0042461,66.1393968 C89.4108704,66.0407816 89.820448,66.2904724 89.9190632,66.6970967 C90.0176783,67.1037211 89.7679876,67.5132987 89.3613632,67.6119138 L79.5445822,69.9926949 Z M98.8670343,69.7207264 C98.4589365,69.6283981 98.2029547,69.2227226 98.295283,68.8146248 C98.3876113,68.406527 98.7932868,68.1505453 99.2013846,68.2428735 L109.053737,70.4718755 C109.461835,70.5642038 109.717817,70.9698793 109.625489,71.3779771 C109.53316,71.7860749 109.127485,72.0420567 108.719387,71.9497284 L98.8670343,69.7207264 Z M118.57174,74.1787303 C118.163642,74.0864021 117.90766,73.6807266 117.999989,73.2726288 C118.092317,72.864531 118.497993,72.6085492 118.90609,72.7008775 L128.758443,74.9298794 C129.166541,75.0222077 129.422523,75.4278832 129.330195,75.835981 C129.237866,76.2440788 128.832191,76.5000606 128.424093,76.4077323 L118.57174,74.1787303 Z M138.276446,78.6367343 C137.868348,78.544406 137.612366,78.1387305 137.704695,77.7306327 C137.797023,77.3225349 138.202698,77.0665531 138.610796,77.1588814 L148.463149,79.3878833 C148.871247,79.4802116 149.127229,79.8858871 149.0349,80.2939849 C148.942572,80.7020827 148.536896,80.9580645 148.128799,80.8657362 L138.276446,78.6367343 Z M157.981152,83.0947382 C157.573054,83.0024099 157.317072,82.5967344 157.4094,82.1886366 C157.501729,81.7805388 157.907404,81.524557 158.315502,81.6168853 L168.167855,83.8458873 C168.575953,83.9382155 168.831934,84.343891 168.739606,84.7519888 C168.647278,85.1600866 168.241602,85.4160684 167.833504,85.3237401 L157.981152,83.0947382 Z M186.678526,88.0337522 L186.418125,88.020835 L186.549454,88.0045508 L186.678526,88.0337522 Z M187.633033,87.8701914 C188.048264,87.8187043 188.426615,88.1135777 188.478102,88.5288094 C188.529589,88.9440412 188.234716,89.3223915 187.819484,89.3738786 L186.473248,89.5408064 L177.685857,87.5527421 C177.27776,87.4604138 177.021778,87.0547383 177.114106,86.6466405 C177.206434,86.2385427 177.61211,85.9825609 178.020208,86.0748892 L186.549454,88.0045508 L187.633033,87.8701914 Z M197.844066,88.1308708 C197.428834,88.1823579 197.050483,87.8874846 196.998996,87.4722528 C196.947509,87.0570211 197.242383,86.6786707 197.657614,86.6271836 L207.682196,85.3841759 C208.097428,85.3326888 208.475778,85.6275621 208.527265,86.0427939 C208.578752,86.4580257 208.283879,86.836376 207.868647,86.8878631 L197.844066,88.1308708 Z M217.893229,85.6448553 C217.477997,85.6963424 217.099647,85.4014691 217.04816,84.9862373 C216.996673,84.5710055 217.291546,84.1926552 217.706778,84.1411681 L227.73136,82.8981604 C228.146591,82.8466733 228.524942,83.1415466 228.576429,83.5567784 C228.627916,83.9720101 228.333042,84.3503605 227.917811,84.4018476 L217.893229,85.6448553 Z M237.942392,83.1588398 C237.527161,83.2103269 237.14881,82.9154535 237.097323,82.5002218 C237.045836,82.08499 237.34071,81.7066397 237.755941,81.6551526 L247.780523,80.4121449 C248.195755,80.3606578 248.574105,80.6555311 248.625592,81.0707629 C248.677079,81.4859946 248.382206,81.864345 247.966974,81.915832 L237.942392,83.1588398 Z M21.0345405,84.333972 C20.6421801,84.188639 20.4419249,83.7527524 20.587258,83.3603921 C20.732591,82.9680317 21.1684776,82.7677765 21.5608379,82.9131096 L31.0332549,86.4217594 C31.4256152,86.5670924 31.6258705,87.002979 31.4805374,87.3953393 C31.3352044,87.7876997 30.8993178,87.9879549 30.5069575,87.8426219 L21.0345405,84.333972 Z M39.9793744,91.3512717 C39.5870141,91.2059386 39.3867589,90.770052 39.5320919,90.3776917 C39.6774249,89.9853313 40.1133115,89.7850761 40.5056719,89.9304092 L49.9780889,93.439059 C50.3704492,93.584392 50.5707044,94.0202786 50.4253714,94.4126389 C50.2800384,94.8049993 49.8441518,95.0052545 49.4517914,94.8599215 L39.9793744,91.3512717 Z M58.9242084,98.3685713 C58.5318481,98.2232382 58.3315929,97.7873516 58.4769259,97.3949913 C58.6222589,97.002631 59.0581455,96.8023758 59.4505059,96.9477088 L68.9229228,100.456359 C69.3152832,100.601692 69.5155384,101.037578 69.3702054,101.429939 C69.2248723,101.822299 68.7889857,102.022554 68.3966254,101.877221 L58.9242084,98.3685713 Z M77.8690424,105.385871 C77.476682,105.240538 77.2764268,104.804651 77.4217598,104.412291 C77.5670929,104.019931 78.0029795,103.819675 78.3953398,103.965008 L87.8677568,107.473658 C88.2601171,107.618991 88.4603723,108.054878 88.3150393,108.447238 C88.1697063,108.839599 87.7338197,109.039854 87.3414593,108.894521 L77.8690424,105.385871 Z M106.813689,112.33975 C107.231308,112.314006 107.590724,112.631683 107.616469,113.049302 C107.642213,113.466921 107.324536,113.826338 106.906917,113.852082 L101.607511,114.178766 L96.8138763,112.40317 C96.421516,112.257837 96.2212608,111.821951 96.3665938,111.429591 C96.5119268,111.03723 96.9478134,110.836975 97.3401738,110.982308 L101.833705,112.646744 L106.813689,112.33975 Z M116.98913,113.23056 C116.571511,113.256304 116.212094,112.938627 116.18635,112.521008 C116.160606,112.103389 116.478283,111.743972 116.895902,111.718228 L126.978114,111.096706 C127.395733,111.070961 127.75515,111.388638 127.780895,111.806257 C127.806639,112.223876 127.488962,112.583293 127.071343,112.609038 L116.98913,113.23056 Z M137.153556,111.987515 C136.735937,112.013259 136.37652,111.695582 136.350776,111.277963 C136.325031,110.860344 136.642708,110.500928 137.060327,110.475183 L147.14254,109.853661 C147.560159,109.827917 147.919576,110.145594 147.94532,110.563213 C147.971065,110.980832 147.653388,111.340249 147.235769,111.365993 L137.153556,111.987515 Z M157.317982,110.74447 C156.900363,110.770215 156.540946,110.452538 156.515201,110.034919 C156.489457,109.6173 156.807134,109.257883 157.224753,109.232139 L167.306966,108.610616 C167.724585,108.584872 168.084002,108.902549 168.109746,109.320168 C168.13549,109.737787 167.817813,110.097204 167.400194,110.122948 L157.317982,110.74447 Z M177.482407,109.501426 C177.064788,109.52717 176.705371,109.209493 176.679627,108.791874 C176.653883,108.374255 176.97156,108.014838 177.389179,107.989094 L186.047138,107.45537 L187.689226,108.143254 C188.075144,108.304918 188.256938,108.748822 188.095274,109.13474 C187.93361,109.520658 187.489706,109.702452 187.103788,109.540788 L185.787646,108.989446 L177.482407,109.501426 Z M196.420682,113.443709 C196.034764,113.282044 195.85297,112.838141 196.014634,112.452223 C196.176298,112.066304 196.620202,111.88451 197.00612,112.046175 L206.323014,115.949095 C206.708933,116.11076 206.890727,116.554663 206.729062,116.940581 C206.567398,117.3265 206.123495,117.508294 205.737576,117.346629 L196.420682,113.443709 Z M215.05447,121.24955 C214.668552,121.087886 214.486758,120.643982 214.648422,120.258064 C214.810087,119.872146 215.25399,119.690352 215.639908,119.852016 L224.956803,123.754937 C225.342721,123.916601 225.524515,124.360504 225.362851,124.746423 C225.201186,125.132341 224.757283,125.314135 224.371365,125.152471 L215.05447,121.24955 Z M233.688259,129.055391 C233.30234,128.893727 233.120546,128.449824 233.282211,128.063905 C233.443875,127.677987 233.887778,127.496193 234.273697,127.657857 L243.590591,131.560778 C243.976509,131.722442 244.158303,132.166346 243.996639,132.552264 C243.834975,132.938183 243.391071,133.119976 243.005153,132.958312 L233.688259,129.055391 Z" id="Shape" fill="#6E7287" fill-rule="nonzero"></path>
                    <ellipse id="Oval" fill="#FFFFFF" opacity="0.6" cx="247.621497" cy="28.7580357" rx="8.21946959" ry="8.5182398"></ellipse>
                    <ellipse id="Oval" fill="#FFFFFF" opacity="0.6" cx="247.621497" cy="81.0233418" rx="8.21946959" ry="8.5182398"></ellipse>
                    <ellipse id="Oval" fill="#FFFFFF" opacity="0.6" cx="248.631632" cy="134.29375" rx="8.21946959" ry="8.5182398"></ellipse>
                    <path d="M247.621497,38.4995491 C242.396448,38.4995491 238.178754,34.1285453 238.178754,28.7580357 C238.178754,23.3875261 242.396448,19.0165222 247.621497,19.0165222 C252.846546,19.0165222 257.06424,23.3875261 257.06424,28.7580357 C257.06424,34.1285453 252.846546,38.4995491 247.621497,38.4995491 Z M247.621497,36.0530018 C251.475424,36.0530018 254.617693,32.7965139 254.617693,28.7580357 C254.617693,24.7195575 251.475424,21.4630695 247.621497,21.4630695 C243.76757,21.4630695 240.625301,24.7195575 240.625301,28.7580357 C240.625301,32.7965139 243.76757,36.0530018 247.621497,36.0530018 Z" id="Oval" fill="#E88024" fill-rule="nonzero"></path>
                    <path d="M247.621497,90.7648552 C242.396448,90.7648552 238.178754,86.3938514 238.178754,81.0233418 C238.178754,75.6528322 242.396448,71.2818283 247.621497,71.2818283 C252.846546,71.2818283 257.06424,75.6528322 257.06424,81.0233418 C257.06424,86.3938514 252.846546,90.7648552 247.621497,90.7648552 Z M247.621497,88.318308 C251.475424,88.318308 254.617693,85.06182 254.617693,81.0233418 C254.617693,76.9848636 251.475424,73.7283756 247.621497,73.7283756 C243.76757,73.7283756 240.625301,76.9848636 240.625301,81.0233418 C240.625301,85.06182 243.76757,88.318308 247.621497,88.318308 Z" id="Oval" fill="#E88024" fill-rule="nonzero"></path>
                    <path d="M248.631632,144.035263 C243.406583,144.035263 239.188889,139.66426 239.188889,134.29375 C239.188889,128.92324 243.406583,124.552237 248.631632,124.552237 C253.856681,124.552237 258.074375,128.92324 258.074375,134.29375 C258.074375,139.66426 253.856681,144.035263 248.631632,144.035263 Z M248.631632,141.588716 C252.485559,141.588716 255.627828,138.332228 255.627828,134.29375 C255.627828,130.255272 252.485559,126.998784 248.631632,126.998784 C244.777705,126.998784 241.635436,130.255272 241.635436,134.29375 C241.635436,138.332228 244.777705,141.588716 248.631632,141.588716 Z" id="Oval" fill="#E88024" fill-rule="nonzero"></path>
                    <ellipse id="Oval" fill="#FFFFFF" opacity="0.916" cx="24.3816318" cy="82.0284439" rx="8.21946959" ry="8.5182398"></ellipse>
                    <path d="M24.3816318,91.7699573 C19.156583,91.7699573 14.9388886,87.3989535 14.9388886,82.0284439 C14.9388886,76.6579343 19.156583,72.2869304 24.3816318,72.2869304 C29.6066806,72.2869304 33.824375,76.6579343 33.824375,82.0284439 C33.824375,87.3989535 29.6066806,91.7699573 24.3816318,91.7699573 Z M24.3816318,89.32341 C28.2355584,89.32341 31.3778277,86.0669221 31.3778277,82.0284439 C31.3778277,77.9899657 28.2355584,74.7334777 24.3816318,74.7334777 C20.5277052,74.7334777 17.3854359,77.9899657 17.3854359,82.0284439 C17.3854359,86.0669221 20.5277052,89.32341 24.3816318,89.32341 Z" id="Oval" fill="#E88024" fill-rule="nonzero"></path>
                </g>
            </g>
            <path d="M24.019,15.924 C23.909,17.083 23.484,17.986 22.741,18.636 C21.999,19.285 21.012,19.609 19.78,19.609 C18.918,19.609 18.16,19.405 17.505,18.994 C16.849,18.584 16.343,18 15.986,17.244 C15.631,16.489 15.446,15.611 15.43,14.61 L15.43,13.596 C15.43,12.571 15.61,11.669 15.972,10.887 C16.332,10.107 16.852,9.505 17.527,9.082 C18.203,8.66 18.983,8.448 19.869,8.448 C21.062,8.448 22.022,8.774 22.749,9.426 C23.477,10.077 23.899,10.997 24.019,12.186 L22.147,12.186 C22.059,11.405 21.833,10.841 21.468,10.496 C21.105,10.15 20.571,9.976 19.869,9.976 C19.052,9.976 18.425,10.277 17.987,10.876 C17.549,11.476 17.325,12.356 17.315,13.514 L17.315,14.476 C17.315,15.65 17.525,16.546 17.943,17.162 C18.361,17.779 18.973,18.087 19.78,18.087 C20.518,18.087 21.071,17.921 21.442,17.587 C21.814,17.254 22.049,16.7 22.147,15.923 L24.018,15.923 L24.019,15.924 Z M30.321,19.46 C30.242,19.306 30.173,19.055 30.114,18.706 C29.5724722,19.2941428 28.8053592,19.6227495 28.006,19.609 C27.199,19.609 26.541,19.378 26.031,18.916 C25.5356474,18.4847216 25.2560388,17.8567002 25.267,17.2 C25.267,16.339 25.584,15.679 26.22,15.219 C26.856,14.759 27.765,14.529 28.948,14.529 L30.055,14.529 L30.055,13.999 C30.055,13.582 29.938,13.246 29.706,12.996 C29.473,12.744 29.118,12.619 28.644,12.619 C28.234,12.619 27.897,12.722 27.634,12.929 C27.3837345,13.112143 27.2373551,13.4049018 27.241,13.715 L25.437,13.715 C25.437,13.273 25.583,12.859 25.875,12.472 C26.167,12.087 26.565,11.786 27.067,11.567 C27.5985776,11.3424511 28.171,11.2307589 28.748,11.239 C29.688,11.239 30.438,11.476 30.998,11.952 C31.557,12.425 31.844,13.094 31.858,13.954 L31.858,17.595 C31.858,18.321 31.96,18.901 32.163,19.333 L32.163,19.46 L30.321,19.46 Z M28.34,18.154 C28.696,18.154 29.031,18.068 29.345,17.894 C29.66,17.719 29.897,17.486 30.055,17.192 L30.055,15.671 L29.082,15.671 C28.414,15.671 27.912,15.788 27.575,16.022 C27.238,16.255 27.07,16.587 27.07,17.014 C27.07,17.362 27.186,17.64 27.416,17.846 C27.646,18.052 27.954,18.156 28.34,18.156 L28.34,18.154 Z M35.667,19.46 L33.863,19.46 L33.863,8 L35.667,8 L35.667,19.46 Z M39.548,19.46 L37.744,19.46 L37.744,8 L39.548,8 L39.548,19.46 Z M51.122,16.662 C51.122,16.185 50.955,15.816 50.622,15.558 C50.287,15.3 49.684,15.038 48.813,14.774 C47.941,14.512 47.249,14.218 46.735,13.894 C45.75,13.273 45.258,12.462 45.258,11.462 C45.258,10.587 45.612,9.866 46.322,9.298 C47.032,8.732 47.954,8.448 49.089,8.448 C49.839,8.448 50.511,8.588 51.099,8.865 C51.664,9.123 52.146,9.535 52.488,10.056 C52.8225383,10.563516 52.9983444,11.1591679 52.993,11.767 L51.122,11.767 C51.122,11.201 50.944,10.757 50.591,10.436 C50.237,10.116 49.731,9.956 49.072,9.956 C48.459,9.956 47.982,10.088 47.643,10.35 C47.305,10.614 47.136,10.982 47.136,11.455 C47.136,11.852 47.318,12.185 47.685,12.451 C48.051,12.717 48.655,12.975 49.496,13.227 C50.337,13.477 51.012,13.764 51.523,14.085 C52.032,14.405 52.406,14.773 52.643,15.189 C52.881,15.605 53,16.09 53,16.648 C53,17.552 52.655,18.272 51.964,18.808 C51.274,19.342 50.337,19.608 49.154,19.608 C48.4127033,19.616613 47.6779642,19.4683702 46.998,19.173 C46.342,18.882 45.832,18.48 45.469,17.968 C45.105,17.455 44.923,16.858 44.923,16.177 L46.801,16.177 C46.801,16.794 47.004,17.272 47.409,17.61 C47.816,17.948 48.397,18.118 49.155,18.118 C49.808,18.118 50.3,17.984 50.628,17.718 C50.958,17.452 51.122,17.1 51.122,16.662 Z M61.506,15.506 C61.506,16.755 61.224,17.751 60.661,18.494 C60.096,19.238 59.339,19.609 58.389,19.609 C57.508,19.609 56.803,19.319 56.273,18.737 L56.273,22.564 L54.469,22.564 L54.469,11.387 L56.132,11.387 L56.207,12.208 C56.736,11.562 57.457,11.238 58.367,11.238 C59.347,11.238 60.115,11.605 60.672,12.338 C61.229,13.072 61.506,14.091 61.506,15.395 L61.506,15.507 L61.506,15.506 Z M59.71,15.349 C59.71,14.544 59.551,13.904 59.232,13.432 C58.912,12.959 58.456,12.722 57.862,12.722 C57.125,12.722 56.595,13.028 56.273,13.641 L56.273,17.222 C56.6,17.849 57.135,18.162 57.877,18.162 C58.45,18.162 58.9,17.929 59.225,17.465 C59.549,16.999 59.71,16.295 59.71,15.349 Z M67.238,13.044 C66.9950865,13.0036624 66.7492395,12.9835933 66.503,12.984 C65.676,12.984 65.119,13.302 64.833,13.939 L64.833,19.46 L63.029,19.46 L63.029,11.387 L64.751,11.387 L64.795,12.29 C65.231,11.59 65.835,11.239 66.606,11.239 C66.864,11.239 67.076,11.273 67.245,11.343 L67.238,13.043 L67.238,13.044 Z M71.914,19.609 C70.771,19.609 69.844,19.247 69.134,18.524 C68.424,17.801 68.07,16.836 68.07,15.634 L68.07,15.409 C68.07,14.603 68.224,13.883 68.533,13.249 C68.8182631,12.6424376 69.2697386,12.1292396 69.835,11.769 C70.3945023,11.4155912 71.0442713,11.2315305 71.706,11.239 C72.801,11.239 73.646,11.589 74.241,12.289 C74.838,12.992 75.136,13.984 75.136,15.267 L75.136,15.999 L69.888,15.999 C69.942,16.665 70.164,17.192 70.552,17.579 C70.94,17.968 71.43,18.162 72.018,18.162 C72.844,18.162 73.518,17.826 74.038,17.154 L75.01,18.087 C74.6883124,18.569961 74.2432546,18.9580486 73.721,19.211 C73.157687,19.4820186 72.5390493,19.6182763 71.914,19.609 Z M71.699,12.692 C71.204,12.692 70.804,12.868 70.5,13.216 C70.196,13.563 70.001,14.048 69.917,14.67 L73.353,14.67 L73.353,14.536 C73.315,13.929 73.153,13.471 72.872,13.16 C72.59,12.85 72.199,12.693 71.699,12.693 L71.699,12.692 Z M81.332,19.46 C81.252,19.306 81.184,19.055 81.124,18.706 C80.5824722,19.2941428 79.8153592,19.6227495 79.016,19.609 C78.209,19.609 77.551,19.378 77.041,18.916 C76.5456474,18.4847216 76.2660388,17.8567002 76.277,17.2 C76.277,16.339 76.594,15.679 77.23,15.219 C77.866,14.759 78.776,14.529 79.96,14.529 L81.064,14.529 L81.064,13.999 C81.064,13.582 80.948,13.246 80.716,12.996 C80.483,12.744 80.13,12.619 79.654,12.619 C79.244,12.619 78.907,12.722 78.644,12.929 C78.3937345,13.112143 78.2473551,13.4049018 78.251,13.715 L76.447,13.715 C76.447,13.273 76.593,12.859 76.885,12.472 C77.177,12.087 77.575,11.786 78.077,11.567 C78.6088869,11.342315 79.181664,11.2306201 79.759,11.239 C80.699,11.239 81.449,11.476 82.008,11.952 C82.567,12.425 82.854,13.094 82.869,13.954 L82.869,17.595 C82.869,18.321 82.97,18.901 83.173,19.333 L83.173,19.46 L81.332,19.46 Z M79.349,18.154 C79.705,18.154 80.04,18.068 80.355,17.894 C80.669,17.719 80.905,17.486 81.064,17.192 L81.064,15.671 L80.091,15.671 C79.423,15.671 78.921,15.788 78.585,16.022 C78.247,16.255 78.079,16.587 78.079,17.014 C78.079,17.362 78.195,17.64 78.425,17.846 C78.655,18.052 78.963,18.156 79.349,18.156 L79.349,18.154 Z M84.419,15.364 C84.419,14.121 84.707,13.124 85.28,12.369 C85.854,11.616 86.624,11.239 87.589,11.239 C88.44,11.239 89.128,11.537 89.653,12.134 L89.653,8 L91.457,8 L91.457,19.46 L89.824,19.46 L89.734,18.625 C89.195,19.281 88.476,19.609 87.576,19.609 C86.634,19.609 85.873,19.229 85.292,18.468 C84.711,17.707 84.421,16.672 84.421,15.364 L84.419,15.364 Z M86.223,15.521 C86.223,16.341 86.38,16.981 86.694,17.442 C87.008,17.902 87.455,18.132 88.034,18.132 C88.772,18.132 89.311,17.802 89.653,17.14 L89.653,13.693 C89.321,13.047 88.786,12.723 88.049,12.723 C87.465,12.723 87.015,12.955 86.699,13.421 C86.381,13.886 86.223,14.586 86.223,15.521 Z" id="Shape" fill="#000000" fill-rule="nonzero"></path>
            <path d="M277.087,121.465 L271.913,121.465 L272.043,120.675 L275.136,117.569 C275.686,117.014 276.069,116.572 276.282,116.242 C276.495,115.912 276.63,115.575 276.689,115.231 C276.759,114.793 276.706,114.432 276.531,114.147 C276.355,113.862 276.083,113.719 275.716,113.719 C275.196,113.719 274.78,113.872 274.466,114.179 C274.151,114.486 273.951,114.909 273.865,115.448 L272.787,115.448 L272.775,115.413 C272.88,114.651 273.206,114.027 273.753,113.54 C274.3,113.054 275.001,112.811 275.857,112.811 C276.544,112.811 277.072,113.037 277.439,113.488 C277.806,113.938 277.935,114.506 277.826,115.19 C277.738156,115.697188 277.534548,116.177291 277.231,116.593 C276.912,117.044 276.474,117.543 275.915,118.09 L273.455,120.528 L273.466,120.563 L277.234,120.563 L277.087,121.465 Z M269.841,167.786 C269.894,167.456 269.836,167.18 269.666,166.956 C269.496,166.732 269.187,166.531 268.74,166.352 C268.102,166.133 267.64,165.842 267.354,165.476 C267.067,165.111 266.973,164.624 267.069,164.016 C267.166,163.403 267.399,162.915 267.77,162.552 C268.14,162.188 268.609,161.971 269.175,161.899 L269.363,160.712 L270.19,160.712 L269.996,161.91 C270.523,162.003 270.908,162.264 271.151,162.694 C271.395,163.124 271.461,163.691 271.35,164.397 L270.319,164.397 C270.398,163.892 270.362,163.493 270.211,163.201 C270.061,162.91 269.803,162.764 269.438,162.764 C269.076,162.764 268.779,162.876 268.546,163.099 C268.314,163.323 268.169,163.623 268.111,163.999 C268.054,164.357 268.107,164.641 268.27,164.85 C268.433,165.06 268.756,165.261 269.24,165.455 C269.884,165.691 270.342,165.985 270.614,166.338 C270.886,166.691 270.974,167.17 270.877,167.775 C270.773,168.412 270.524,168.908 270.128,169.263 C269.732,169.617 269.227,169.827 268.611,169.891 L268.45,170.922 L267.622,170.922 L267.784,169.892 C267.243,169.82 266.819,169.589 266.511,169.201 C266.203,168.812 266.11,168.246 266.231,167.501 L267.268,167.501 C267.175,168.074 267.231,168.472 267.438,168.696 C267.643,168.92 267.932,169.032 268.305,169.032 C268.709,169.032 269.05,168.92 269.328,168.696 C269.605,168.472 269.776,168.169 269.841,167.786 Z M276.861,166.824 C276.646,167.888 276.287,168.669 275.784,169.169 C275.281,169.669 274.662,169.918 273.928,169.918 C273.258,169.918 272.756,169.647 272.422,169.104 C272.087,168.562 272.018,167.802 272.215,166.824 L272.585,164.971 C272.797,163.911 273.156,163.13 273.665,162.627 C274.154753,162.131429 274.826389,161.858509 275.523,161.872 C276.197,161.872 276.698,162.144 277.027,162.689 C277.357,163.233 277.425,163.994 277.231,164.971 L276.861,166.824 Z M276.238,164.746 C276.381,164.026 276.376,163.506 276.224,163.186 C276.072,162.865 275.783,162.705 275.357,162.705 C274.967,162.705 274.62,162.879 274.317,163.228 C274.015,163.578 273.797,164.083 273.665,164.746 L273.208,167.039 C273.065,167.759 273.071,168.281 273.225,168.605 C273.378,168.929 273.669,169.091 274.095,169.091 C274.485,169.091 274.83,168.915 275.129,168.564 C275.428,168.214 275.645,167.705 275.781,167.039 L276.238,164.746 Z M43.674,59.993 L45.237,52.173 L47.643,52.173 C48.356,52.173 48.903,52.351 49.287,52.709 C49.67,53.067 49.792,53.594 49.652,54.289 C49.5823542,54.6466663 49.4108018,54.9765748 49.158,55.239 C48.8978113,55.507376 48.5772356,55.7096644 48.223,55.829 C48.643,55.93 48.94,56.162 49.118,56.525 C49.295,56.889 49.335,57.309 49.238,57.785 C49.085,58.548 48.761,59.106 48.266,59.461 C47.772,59.815 47.146,59.993 46.386,59.993 L43.674,59.993 Z M45.441,56.324 L44.877,59.165 L46.553,59.165 C46.958,59.165 47.311,59.045 47.613,58.803 C47.916,58.561 48.113,58.225 48.202,57.796 C48.295,57.309 48.269,56.942 48.124,56.695 C47.979,56.448 47.695,56.325 47.273,56.325 L45.441,56.325 L45.441,56.324 Z M45.608,55.497 L47.192,55.497 C47.514,55.497 47.814,55.387 48.092,55.167 C48.369,54.947 48.546,54.647 48.621,54.267 C48.711,53.819 48.658,53.497 48.462,53.3 C48.267,53.103 47.939,53.005 47.477,53.005 L46.107,53.005 L45.607,55.497 L45.608,55.497 Z M53.418,59.993 C53.418,59.817 53.421,59.673 53.428,59.56 C53.435,59.447 53.448,59.332 53.466,59.214 C53.2260671,59.4679664 52.9476615,59.6825918 52.641,59.85 C52.331,60.02 52.021,60.105 51.709,60.105 C51.179,60.105 50.789,59.947 50.536,59.63 C50.283,59.313 50.213,58.89 50.324,58.36 C50.438,57.769 50.729,57.326 51.196,57.03 C51.664,56.735 52.262,56.587 52.993,56.587 L53.987,56.587 L54.099,56.013 C54.171,55.651 54.132,55.376 53.981,55.188 C53.831,55 53.581,54.906 53.229,54.906 C52.929,54.906 52.656,54.995 52.413,55.172 C52.169,55.349 52.024,55.556 51.978,55.792 L50.995,55.792 L50.985,55.76 C51.055,55.313 51.325,54.92 51.79,54.581 C52.255,54.243 52.81,54.074 53.455,54.074 C54.031,54.074 54.487,54.244 54.822,54.587 C55.157,54.928 55.263,55.407 55.142,56.023 L54.582,58.822 C54.536,59.04 54.504,59.242 54.486,59.429 C54.4680909,59.6165735 54.4680909,59.8054265 54.486,59.993 L53.417,59.993 L53.418,59.993 Z M52.042,59.219 C52.332,59.219 52.628,59.135 52.929,58.967 C53.229,58.798 53.462,58.6 53.627,58.37 L53.842,57.302 L52.816,57.302 C52.461,57.302 52.143,57.411 51.86,57.629 C51.577,57.848 51.408,58.099 51.355,58.381 C51.297,58.657 51.325,58.865 51.435,59.007 C51.546,59.148 51.749,59.219 52.042,59.219 Z M59.406,55.116 L58.836,55.083 C58.6,55.083 58.383,55.15 58.184,55.285 C57.97207,55.4335727 57.7952592,55.6267675 57.666,55.851 L56.839,59.993 L55.802,59.993 L56.962,54.181 L57.892,54.181 L57.827,54.96 C58.027,54.677 58.254,54.459 58.507,54.305 C58.8749941,54.0763797 59.3224617,54.0139086 59.739,54.133 L59.406,55.116 Z M63.053,55.116 L62.483,55.083 C62.247,55.083 62.03,55.15 61.831,55.285 C61.61907,55.4335727 61.4422592,55.6267675 61.313,55.851 L60.486,59.993 L59.449,59.993 L60.609,54.181 L61.539,54.181 L61.474,54.96 C61.674,54.677 61.901,54.459 62.154,54.305 C62.5219941,54.0763797 62.9694617,54.0139086 63.386,54.133 L63.053,55.116 Z M64.213,59.993 L63.177,59.993 L64.337,54.181 L65.373,54.181 L64.213,59.993 Z M65.674,52.693 L64.637,52.693 L64.852,51.613 L65.889,51.613 L65.674,52.693 Z M68.096,60.105 C67.366,60.105 66.814,59.835 66.439,59.292 C66.065,58.749 65.946,58.052 66.082,57.2 L66.12,56.963 C66.256,56.103 66.595,55.407 67.138,54.873 C67.68,54.34 68.267,54.073 68.897,54.073 C69.609,54.073 70.12,54.312 70.427,54.788 C70.735,55.264 70.829,55.893 70.707,56.673 L70.599,57.333 L67.097,57.333 C67.019,57.928 67.073,58.401 67.261,58.752 C67.449,59.102 67.771,59.278 68.225,59.278 C68.8113656,59.2815744 69.3801515,59.0779307 69.831,58.703 L70.127,59.391 C69.8817289,59.611521 69.5975567,59.7844659 69.289,59.901 C68.949,60.037 68.551,60.105 68.096,60.105 Z M68.768,54.906 C68.468,54.906 68.176,55.056 67.895,55.357 C67.614,55.658 67.413,56.03 67.291,56.474 L67.307,56.507 L69.697,56.507 L69.719,56.367 C69.787,55.934 69.745,55.582 69.595,55.312 C69.445,55.042 69.169,54.906 68.768,54.906 Z M69.412,53.338 L68.591,53.338 L67.538,51.909 L68.778,51.909 L69.412,53.338 Z M74.848,55.116 L74.278,55.083 C74.042,55.083 73.825,55.15 73.626,55.285 C73.41407,55.4335727 73.2372592,55.6267675 73.108,55.851 L72.281,59.993 L71.244,59.993 L72.404,54.181 L73.334,54.181 L73.269,54.96 C73.469,54.677 73.696,54.459 73.949,54.305 C74.3169941,54.0763797 74.7644617,54.0139086 75.181,54.133 L74.848,55.116 Z M77.125,60.106 C76.395,60.106 75.842,59.834 75.468,59.292 C75.094,58.749 74.975,58.052 75.111,57.2 L75.149,56.963 C75.285,56.103 75.624,55.407 76.167,54.873 C76.709,54.34 77.295,54.073 77.926,54.073 C78.638,54.073 79.148,54.312 79.456,54.788 C79.764,55.264 79.857,55.893 79.736,56.673 L79.628,57.333 L76.126,57.333 C76.047,57.928 76.102,58.401 76.29,58.752 C76.478,59.102 76.8,59.278 77.254,59.278 C77.8403656,59.2815744 78.4091515,59.0779307 78.86,58.703 L79.156,59.391 C78.9107289,59.611521 78.6265567,59.7844659 78.318,59.901 C77.978,60.037 77.58,60.105 77.125,60.105 L77.125,60.106 Z M77.797,54.906 C77.496,54.906 77.205,55.056 76.924,55.357 C76.643,55.658 76.441,56.03 76.32,56.474 L76.336,56.507 L78.726,56.507 L78.747,56.367 C78.815,55.934 78.774,55.582 78.624,55.312 C78.474,55.042 78.198,54.906 77.797,54.906 Z M88.587,59.993 L87.551,59.993 L88.238,56.539 L84.79,56.539 L84.102,59.993 L83.066,59.993 L84.629,52.173 L85.665,52.173 L84.956,55.706 L88.405,55.706 L89.114,52.172 L90.15,52.172 L88.587,59.992 L88.587,59.993 Z M93.545,59.993 C93.545,59.817 93.548,59.673 93.555,59.56 C93.563,59.447 93.575,59.332 93.593,59.214 C93.35337,59.4678827 93.0753071,59.6825041 92.769,59.85 C92.459,60.02 92.149,60.105 91.837,60.105 C91.307,60.105 90.916,59.947 90.663,59.63 C90.411,59.313 90.34,58.89 90.451,58.36 C90.566,57.769 90.856,57.326 91.324,57.03 C91.791,56.735 92.39,56.587 93.12,56.587 L94.114,56.587 L94.227,56.013 C94.298,55.651 94.259,55.376 94.109,55.188 C93.959,55 93.708,54.906 93.357,54.906 C93.056,54.906 92.784,54.995 92.54,55.172 C92.297,55.349 92.152,55.556 92.105,55.792 L91.122,55.792 L91.112,55.76 C91.183,55.313 91.452,54.92 91.917,54.581 C92.383,54.243 92.937,54.074 93.582,54.074 C94.159,54.074 94.614,54.244 94.949,54.587 C95.284,54.928 95.391,55.407 95.269,56.023 L94.71,58.822 C94.664,59.04 94.631,59.242 94.614,59.429 C94.5960909,59.6165735 94.5960909,59.8054265 94.614,59.993 L93.544,59.993 L93.545,59.993 Z M92.17,59.219 C92.46,59.219 92.755,59.135 93.056,58.967 C93.356,58.798 93.589,58.6 93.754,58.37 L93.969,57.302 L92.943,57.302 C92.589,57.302 92.27,57.411 91.987,57.629 C91.704,57.848 91.536,58.099 91.482,58.381 C91.425,58.657 91.452,58.865 91.562,59.007 C91.674,59.148 91.876,59.219 92.17,59.219 Z M99.415,59.993 L99.507,59.198 C99.277,59.495 99.017,59.72 98.725,59.874 C98.4292907,60.0289502 98.0998302,60.1083093 97.766,60.105 C97.211,60.105 96.801,59.899 96.534,59.488 C96.267,59.076 96.218,58.449 96.386,57.608 L97.068,54.181 L98.105,54.181 L97.417,57.618 C97.285,58.278 97.277,58.713 97.396,58.926 C97.514,59.139 97.752,59.246 98.11,59.246 C98.429,59.246 98.718,59.167 98.978,59.01 C99.238,58.852 99.457,58.634 99.636,58.354 L100.468,54.181 L101.505,54.181 L100.345,59.993 L99.415,59.993 Z M104.636,52.779 L104.351,54.181 L105.356,54.181 L105.2,54.965 L104.196,54.965 L103.492,58.494 C103.432,58.784 103.44,58.98 103.519,59.082 C103.598,59.184 103.725,59.235 103.9,59.235 C103.983,59.235 104.082,59.227 104.198,59.211 C104.315,59.195 104.407,59.178 104.475,59.16 L104.47,59.885 C104.331866,59.9623098 104.181809,60.0160466 104.026,60.044 C103.840022,60.0842958 103.650293,60.1047436 103.46,60.105 C103.084,60.105 102.795,59.973 102.592,59.708 C102.39,59.443 102.344,59.038 102.455,58.494 L103.159,54.965 L102.31,54.965 L102.466,54.181 L103.315,54.181 L103.599,52.779 L104.636,52.779 Z M107.826,60.105 C107.096,60.105 106.544,59.835 106.169,59.292 C105.795,58.749 105.676,58.052 105.812,57.2 L105.85,56.963 C105.986,56.103 106.325,55.407 106.868,54.873 C107.41,54.34 107.997,54.073 108.627,54.073 C109.339,54.073 109.85,54.312 110.157,54.788 C110.465,55.264 110.559,55.893 110.437,56.673 L110.329,57.333 L106.827,57.333 C106.749,57.928 106.803,58.401 106.991,58.752 C107.179,59.102 107.501,59.278 107.955,59.278 C108.541366,59.2815744 109.110151,59.0779307 109.561,58.703 L109.857,59.391 C109.611729,59.611521 109.327557,59.7844659 109.019,59.901 C108.679,60.037 108.281,60.105 107.826,60.105 Z M108.498,54.906 C108.198,54.906 107.906,55.056 107.625,55.357 C107.344,55.658 107.143,56.03 107.021,56.474 L107.037,56.507 L109.427,56.507 L109.449,56.367 C109.517,55.934 109.475,55.582 109.325,55.312 C109.175,55.042 108.899,54.906 108.498,54.906 Z M43.174,171.204 L44.737,163.384 L47.143,163.384 C47.856,163.384 48.403,163.563 48.787,163.921 C49.17,164.279 49.292,164.805 49.152,165.5 C49.0823542,165.857666 48.9108018,166.187575 48.658,166.45 C48.3979188,166.718739 48.0773343,166.921376 47.723,167.041 C48.143,167.141 48.44,167.374 48.618,167.737 C48.795,168.1 48.835,168.52 48.738,168.997 C48.585,169.759 48.261,170.317 47.766,170.672 C47.272,171.027 46.646,171.204 45.886,171.204 L43.174,171.204 Z M44.941,167.536 L44.377,170.376 L46.053,170.376 C46.458,170.376 46.811,170.256 47.113,170.014 C47.416,169.773 47.613,169.437 47.702,169.007 C47.795,168.52 47.769,168.153 47.624,167.907 C47.479,167.659 47.195,167.536 46.773,167.536 L44.941,167.536 Z M45.108,166.708 L46.692,166.708 C47.014,166.708 47.314,166.598 47.592,166.378 C47.869,166.158 48.046,165.858 48.121,165.478 C48.211,165.031 48.158,164.708 47.962,164.512 C47.767,164.315 47.439,164.216 46.977,164.216 L45.607,164.216 L45.107,166.708 L45.108,166.708 Z M52.918,171.204 C52.918,171.029 52.921,170.884 52.928,170.772 C52.935,170.659 52.948,170.543 52.966,170.425 C52.7261414,170.679322 52.4477317,170.894288 52.141,171.062 C51.831,171.232 51.521,171.317 51.209,171.317 C50.679,171.317 50.289,171.158 50.036,170.841 C49.783,170.525 49.713,170.101 49.824,169.571 C49.938,168.981 50.229,168.537 50.696,168.241 C51.164,167.946 51.762,167.799 52.493,167.799 L53.487,167.799 L53.599,167.224 C53.671,166.862 53.632,166.588 53.481,166.4 C53.331,166.212 53.081,166.118 52.729,166.118 C52.429,166.118 52.156,166.206 51.913,166.383 C51.669,166.561 51.524,166.767 51.478,167.003 L50.495,167.003 L50.485,166.972 C50.555,166.524 50.825,166.131 51.29,165.792 C51.755,165.454 52.31,165.285 52.955,165.285 C53.531,165.285 53.987,165.456 54.322,165.798 C54.657,166.14 54.763,166.618 54.642,167.235 L54.082,170.033 C54.036,170.252 54.004,170.453 53.986,170.64 C53.9680909,170.827573 53.9680909,171.016427 53.986,171.204 L52.917,171.204 L52.918,171.204 Z M51.542,170.431 C51.832,170.431 52.128,170.346 52.429,170.178 C52.729,170.01 52.962,169.811 53.127,169.582 L53.342,168.513 L52.316,168.513 C51.961,168.513 51.643,168.623 51.36,168.841 C51.077,169.059 50.908,169.31 50.855,169.593 C50.797,169.868 50.825,170.077 50.935,170.218 C51.046,170.36 51.249,170.431 51.542,170.431 Z M58.906,166.327 L58.336,166.295 C58.1,166.295 57.883,166.362 57.684,166.496 C57.4719603,166.64486 57.2951413,166.838405 57.166,167.063 L56.339,171.204 L55.302,171.204 L56.462,165.392 L57.392,165.392 L57.327,166.172 C57.527,165.888 57.754,165.67 58.007,165.516 C58.3749941,165.28738 58.8224617,165.224909 59.239,165.344 L58.906,166.327 Z M62.553,166.327 L61.983,166.295 C61.747,166.295 61.53,166.362 61.331,166.496 C61.1189603,166.64486 60.9421413,166.838405 60.813,167.063 L59.986,171.204 L58.949,171.204 L60.109,165.392 L61.039,165.392 L60.974,166.172 C61.174,165.888 61.401,165.67 61.654,165.516 C62.0219941,165.28738 62.4694617,165.224909 62.886,165.344 L62.553,166.327 Z M63.713,171.204 L62.677,171.204 L63.837,165.392 L64.873,165.392 L63.713,171.204 Z M65.174,163.904 L64.137,163.904 L64.352,162.825 L65.389,162.825 L65.174,163.905 L65.174,163.904 Z M67.596,171.317 C66.866,171.317 66.314,171.046 65.939,170.503 C65.565,169.961 65.446,169.263 65.582,168.411 L65.62,168.175 C65.756,167.315 66.095,166.619 66.638,166.085 C67.18,165.552 67.767,165.285 68.397,165.285 C69.109,165.285 69.62,165.523 69.927,165.999 C70.235,166.476 70.329,167.104 70.207,167.885 L70.099,168.545 L66.597,168.545 C66.519,169.14 66.573,169.612 66.761,169.963 C66.949,170.314 67.271,170.49 67.725,170.49 C68.04,170.49 68.335,170.437 68.612,170.331 C68.887,170.226 69.127,170.087 69.332,169.915 L69.627,170.602 C69.3817289,170.822521 69.0975567,170.995466 68.789,171.112 C68.449,171.249 68.051,171.317 67.596,171.317 Z M68.268,166.117 C67.968,166.117 67.676,166.268 67.395,166.569 C67.114,166.869 66.913,167.242 66.791,167.686 L66.807,167.718 L69.197,167.718 L69.219,167.578 C69.287,167.145 69.245,166.793 69.095,166.523 C68.945,166.253 68.669,166.118 68.268,166.118 L68.268,166.117 Z M68.912,164.549 L68.091,164.549 L67.038,163.121 L68.278,163.121 L68.912,164.549 Z M74.348,166.327 L73.778,166.295 C73.542,166.295 73.325,166.362 73.126,166.496 C72.9139603,166.64486 72.7371413,166.838405 72.608,167.063 L71.781,171.204 L70.744,171.204 L71.904,165.392 L72.834,165.392 L72.769,166.172 C72.969,165.888 73.196,165.67 73.449,165.516 C73.8169941,165.28738 74.2644617,165.224909 74.681,165.344 L74.348,166.327 Z M76.625,171.317 C75.895,171.317 75.342,171.046 74.968,170.503 C74.594,169.961 74.475,169.263 74.611,168.411 L74.649,168.175 C74.785,167.315 75.124,166.619 75.667,166.085 C76.209,165.552 76.795,165.285 77.426,165.285 C78.138,165.285 78.648,165.523 78.956,165.999 C79.264,166.476 79.357,167.104 79.236,167.885 L79.128,168.545 L75.626,168.545 C75.547,169.14 75.602,169.612 75.79,169.963 C75.978,170.314 76.3,170.49 76.754,170.49 C77.069,170.49 77.364,170.437 77.64,170.331 C77.916,170.226 78.156,170.087 78.36,169.915 L78.656,170.602 C78.4107289,170.822521 78.1265567,170.995466 77.818,171.112 C77.478,171.249 77.08,171.317 76.625,171.317 Z M77.297,166.117 C76.996,166.117 76.705,166.268 76.424,166.569 C76.143,166.869 75.941,167.242 75.82,167.686 L75.836,167.718 L78.226,167.718 L78.247,167.578 C78.315,167.145 78.274,166.793 78.124,166.523 C77.974,166.253 77.698,166.118 77.297,166.118 L77.297,166.117 Z M82.566,171.204 L84.129,163.384 L86.535,163.384 C87.248,163.384 87.795,163.563 88.179,163.921 C88.562,164.279 88.683,164.805 88.544,165.5 C88.4743542,165.857666 88.3028018,166.187575 88.05,166.45 C87.7899188,166.718739 87.4693343,166.921376 87.115,167.041 C87.534,167.141 87.832,167.374 88.009,167.737 C88.187,168.1 88.227,168.52 88.13,168.997 C87.976,169.759 87.652,170.317 87.158,170.672 C86.664,171.027 86.038,171.204 85.278,171.204 L82.566,171.204 Z M84.333,167.536 L83.769,170.376 L85.445,170.376 C85.849,170.376 86.203,170.256 86.505,170.014 C86.808,169.773 87.004,169.437 87.094,169.007 C87.187,168.52 87.161,168.153 87.016,167.907 C86.871,167.659 86.586,167.536 86.164,167.536 L84.333,167.536 Z M84.499,166.708 L86.084,166.708 C86.406,166.708 86.706,166.598 86.984,166.378 C87.261,166.158 87.437,165.858 87.512,165.478 C87.602,165.031 87.549,164.708 87.354,164.512 C87.159,164.315 86.83,164.216 86.368,164.216 L84.998,164.216 L84.499,166.708 Z M92.309,171.204 C92.309,171.029 92.312,170.884 92.319,170.772 C92.327,170.659 92.339,170.543 92.357,170.425 C92.1174443,170.679238 91.8393774,170.8942 91.533,171.062 C91.223,171.232 90.913,171.317 90.601,171.317 C90.071,171.317 89.68,171.158 89.427,170.841 C89.175,170.525 89.104,170.101 89.215,169.571 C89.33,168.981 89.621,168.537 90.088,168.241 C90.555,167.946 91.154,167.799 91.885,167.799 L92.878,167.799 L92.991,167.224 C93.063,166.862 93.023,166.588 92.873,166.4 C92.723,166.212 92.472,166.118 92.121,166.118 C91.821,166.118 91.548,166.206 91.304,166.383 C91.061,166.561 90.916,166.767 90.869,167.003 L89.887,167.003 L89.876,166.972 C89.947,166.524 90.216,166.131 90.681,165.792 C91.147,165.454 91.701,165.285 92.346,165.285 C92.923,165.285 93.379,165.456 93.713,165.798 C94.048,166.14 94.155,166.618 94.033,167.235 L93.474,170.033 C93.428,170.252 93.396,170.453 93.378,170.64 C93.3600909,170.827573 93.3600909,171.016427 93.378,171.204 L92.308,171.204 L92.309,171.204 Z M90.934,170.431 C91.224,170.431 91.519,170.346 91.82,170.178 C92.12,170.01 92.354,169.811 92.518,169.582 L92.733,168.513 L91.707,168.513 C91.353,168.513 91.034,168.623 90.751,168.841 C90.468,169.059 90.301,169.31 90.246,169.593 C90.189,169.868 90.216,170.077 90.326,170.218 C90.438,170.36 90.64,170.431 90.934,170.431 Z M98.153,169.662 C98.192,169.422 98.143,169.229 98.008,169.082 C97.872,168.936 97.588,168.807 97.159,168.696 C96.525,168.542 96.061,168.332 95.765,168.067 C95.47,167.802 95.36,167.444 95.435,166.993 C95.514,166.503 95.766,166.095 96.192,165.771 C96.618,165.447 97.136,165.285 97.744,165.285 C98.354,165.285 98.822,165.461 99.152,165.811 C99.482,166.162 99.599,166.583 99.506,167.074 L99.49,167.106 L98.496,167.106 C98.5435044,166.862038 98.4809303,166.609546 98.325,166.416 C98.167,166.216 97.931,166.118 97.615,166.118 C97.293,166.118 97.032,166.201 96.831,166.368 C96.6427849,166.514257 96.5164277,166.725923 96.477,166.961 C96.437,167.201 96.48,167.383 96.603,167.509 C96.727,167.634 97.007,167.75 97.443,167.858 C98.106,168.015 98.583,168.229 98.873,168.5 C99.163,168.77 99.272,169.133 99.2,169.587 C99.1270385,170.099739 98.8427138,170.558503 98.416,170.852 C97.979,171.162 97.442,171.317 96.804,171.317 C96.138,171.317 95.63,171.127 95.279,170.747 C94.929,170.367 94.803,169.931 94.903,169.437 L94.913,169.405 L95.908,169.405 C95.861,169.781 95.942,170.055 96.149,170.229 C96.357,170.403 96.619,170.489 96.933,170.489 C97.259,170.489 97.534,170.413 97.758,170.259 C97.9686776,170.125333 98.1123607,169.908171 98.153,169.662 Z M103.577,169.662 C103.617,169.422 103.568,169.229 103.432,169.082 C103.296,168.936 103.013,168.807 102.584,168.696 C101.95,168.542 101.485,168.332 101.19,168.067 C100.895,167.802 100.784,167.444 100.86,166.993 C100.938,166.503 101.19,166.095 101.617,165.771 C102.043,165.447 102.561,165.285 103.169,165.285 C103.778,165.285 104.247,165.461 104.576,165.811 C104.906,166.162 105.024,166.583 104.931,167.074 L104.915,167.106 L103.921,167.106 C103.968228,166.861889 103.905283,166.60938 103.749,166.416 C103.592,166.216 103.355,166.118 103.04,166.118 C102.718,166.118 102.457,166.201 102.256,166.368 C102.067785,166.514257 101.941428,166.725923 101.902,166.961 C101.862,167.201 101.904,167.383 102.028,167.509 C102.151,167.634 102.432,167.75 102.868,167.858 C103.531,168.015 104.008,168.229 104.298,168.5 C104.588,168.77 104.696,169.133 104.625,169.587 C104.552038,170.099739 104.267714,170.558503 103.841,170.852 C103.404,171.162 102.867,171.317 102.229,171.317 C101.563,171.317 101.055,171.127 100.704,170.747 C100.353,170.367 100.228,169.931 100.328,169.437 L100.338,169.405 L101.332,169.405 C101.286,169.781 101.366,170.055 101.574,170.229 C101.782,170.403 102.044,170.489 102.358,170.489 C102.684,170.489 102.958,170.413 103.183,170.259 C103.393298,170.125128 103.536597,169.907997 103.577,169.662 Z M107.88,171.317 C107.15,171.317 106.597,171.046 106.223,170.503 C105.849,169.961 105.729,169.263 105.866,168.411 L105.903,168.175 C106.039,167.315 106.378,166.619 106.921,166.085 C107.463,165.552 108.05,165.285 108.68,165.285 C109.393,165.285 109.903,165.523 110.21,165.999 C110.519,166.476 110.612,167.104 110.49,167.885 L110.383,168.545 L106.881,168.545 C106.801,169.14 106.856,169.612 107.044,169.963 C107.232,170.314 107.554,170.49 108.009,170.49 C108.324,170.49 108.619,170.437 108.895,170.331 C109.171,170.226 109.41,170.087 109.615,169.915 L109.91,170.602 C109.664729,170.822521 109.380557,170.995466 109.072,171.112 C108.732,171.249 108.334,171.317 107.88,171.317 Z M108.551,166.117 C108.251,166.117 107.959,166.268 107.678,166.569 C107.398,166.869 107.196,167.242 107.074,167.686 L107.09,167.718 L109.48,167.718 L109.502,167.578 C109.57,167.145 109.529,166.793 109.378,166.523 C109.228,166.253 108.952,166.118 108.551,166.118 L108.551,166.117 Z M258.719,48.638 L258.209,51.204 L257.36,51.204 L258.64,44.806 L260.946,44.806 C261.538,44.806 261.986,44.984 262.289,45.342 C262.592,45.699 262.688,46.159 262.577,46.722 C262.451,47.34 262.182,47.814 261.77,48.143 C261.359,48.473 260.83,48.638 260.182,48.638 L258.718,48.638 L258.719,48.638 Z M258.855,47.961 L260.318,47.961 C260.681,47.961 260.99,47.842 261.243,47.605 C261.496,47.368 261.658,47.076 261.729,46.73 C261.802,46.355 261.766,46.054 261.621,45.827 C261.476,45.6 261.206,45.487 260.811,45.487 L259.351,45.487 L258.855,47.961 Z M265.297,51.204 C265.297,51.06 265.3,50.943 265.306,50.85 C265.311901,50.7552771 265.32191,50.6608549 265.336,50.567 C265.139973,50.7745845 264.91253,50.9500601 264.662,51.087 C264.408,51.227 264.154,51.297 263.899,51.297 C263.466,51.297 263.146,51.167 262.939,50.907 C262.733,50.648 262.675,50.302 262.766,49.868 C262.859,49.385 263.097,49.022 263.48,48.78 C263.862,48.539 264.352,48.418 264.95,48.418 L265.763,48.418 L265.855,47.948 C265.914,47.652 265.881,47.427 265.758,47.273 C265.635,47.119 265.43,47.043 265.143,47.043 C264.897,47.043 264.674,47.115 264.475,47.26 C264.275,47.405 264.157,47.574 264.119,47.767 L263.315,47.767 L263.306,47.741 C263.365,47.375 263.585,47.053 263.966,46.777 C264.346,46.5 264.8,46.361 265.328,46.361 C265.799,46.361 266.172,46.501 266.446,46.781 C266.72,47.061 266.807,47.453 266.708,47.956 L266.251,50.246 C266.214937,50.4100168 266.188227,50.5759512 266.171,50.743 C266.156379,50.8963189 266.156379,51.0506811 266.171,51.204 L265.297,51.204 Z M264.172,50.571 C264.409,50.571 264.651,50.502 264.897,50.365 C265.143,50.227 265.334,50.065 265.468,49.877 L265.644,49.002 L264.804,49.002 C264.514,49.002 264.254,49.092 264.023,49.27 C263.791,49.45 263.653,49.654 263.609,49.886 C263.563,50.111 263.585,50.282 263.675,50.398 C263.766,50.513 263.932,50.571 264.172,50.571 Z M268.162,51.204 L267.314,51.204 L268.264,46.449 L269.111,46.449 L268.162,51.204 Z M269.357,45.232 L268.509,45.232 L268.685,44.349 L269.533,44.349 L269.357,45.232 Z M271.339,51.296 C270.742,51.296 270.289,51.074 269.984,50.631 C269.678,50.187 269.58,49.616 269.691,48.919 L269.722,48.725 C269.834,48.022 270.112,47.453 270.555,47.016 C270.999,46.579 271.479,46.361 271.995,46.361 C272.577,46.361 272.995,46.556 273.247,46.946 C273.499,47.336 273.575,47.85 273.475,48.488 L273.387,49.028 L270.522,49.028 C270.458,49.515 270.502,49.902 270.656,50.188 C270.81,50.476 271.073,50.62 271.445,50.62 C271.924692,50.6230208 272.390045,50.4565702 272.759,50.15 L273.001,50.712 C272.800203,50.892381 272.567571,51.0337915 272.315,51.129 C272.003258,51.2462678 271.671996,51.3029489 271.339,51.296 Z M271.889,47.042 C271.643,47.042 271.405,47.165 271.175,47.412 C270.945,47.658 270.78,47.962 270.68,48.326 L270.693,48.352 L272.649,48.352 L272.667,48.238 C272.722,47.883 272.689,47.595 272.565,47.374 C272.442,47.153 272.217,47.042 271.889,47.042 Z M275.567,47.016 C275.744243,46.810443 275.963054,46.644801 276.209,46.53 C276.452,46.418 276.719,46.361 277.013,46.361 C277.279,46.361 277.504,46.433 277.687,46.577 C277.87,46.72 277.991,46.934 278.05,47.218 C278.237,46.948 278.46,46.738 278.718,46.588 C278.976,46.437 279.26,46.361 279.57,46.361 C279.99,46.361 280.303,46.531 280.51,46.869 C280.719,47.207 280.758,47.704 280.63,48.361 L280.062,51.204 L279.209,51.204 L279.78,48.352 C279.877,47.848 279.874,47.507 279.772,47.33 C279.669,47.153 279.468,47.064 279.169,47.064 C278.929,47.064 278.702,47.171 278.489,47.383 C278.268582,47.6039463 278.107,47.8765715 278.019,48.176 L278.019,48.185 L277.416,51.204 L276.563,51.204 L277.135,48.352 C277.229,47.874 277.223,47.54 277.117,47.35 C277.012,47.16 276.813,47.064 276.52,47.064 C276.297,47.064 276.098,47.121 275.922,47.234 C275.738334,47.3546834 275.583638,47.5145014 275.469,47.702 L274.767,51.204 L273.919,51.204 L274.869,46.449 L275.624,46.449 L275.567,47.016 Z M283.169,51.296 C282.572,51.296 282.119,51.074 281.814,50.631 C281.508,50.187 281.41,49.616 281.522,48.919 L281.552,48.725 C281.664,48.022 281.942,47.453 282.385,47.016 C282.829,46.579 283.309,46.361 283.825,46.361 C284.407,46.361 284.825,46.556 285.077,46.946 C285.329,47.336 285.405,47.85 285.305,48.488 L285.217,49.028 L282.352,49.028 C282.288,49.515 282.332,49.902 282.486,50.188 C282.64,50.476 282.903,50.62 283.275,50.62 C283.754692,50.6230208 284.220045,50.4565702 284.589,50.15 L284.831,50.712 C284.630203,50.892381 284.397571,51.0337915 284.145,51.129 C283.833258,51.2462678 283.501996,51.3029489 283.169,51.296 Z M283.719,47.042 C283.473,47.042 283.235,47.165 283.005,47.412 C282.775,47.658 282.61,47.962 282.51,48.326 L282.523,48.352 L284.479,48.352 L284.497,48.238 C284.552,47.883 284.519,47.595 284.396,47.374 C284.273,47.153 284.046,47.042 283.719,47.042 Z M287.379,47.104 C287.573,46.864 287.792,46.68 288.036,46.552 C288.281,46.425 288.544,46.362 288.826,46.362 C289.273,46.362 289.606,46.514 289.823,46.818 C290.04,47.123 290.086,47.584 289.963,48.203 L289.361,51.204 L288.513,51.204 L289.111,48.22 C289.199,47.775 289.187,47.47 289.076,47.308 C288.964,47.146 288.748,47.064 288.426,47.064 C288.22,47.064 288.016,47.127 287.814,47.251 C287.612,47.376 287.435,47.541 287.283,47.75 L286.593,51.204 L285.745,51.204 L286.694,46.449 L287.454,46.449 L287.379,47.104 Z M292.869,45.302 L292.635,46.449 L293.457,46.449 L293.33,47.091 L292.508,47.091 L291.932,49.978 C291.882,50.215 291.89,50.376 291.954,50.459 C292.019,50.543 292.123,50.584 292.266,50.584 C292.334,50.584 292.415,50.578 292.51,50.564 C292.605,50.551 292.68,50.537 292.736,50.523 L292.732,51.116 C292.619061,51.179195 292.496381,51.2231299 292.369,51.246 C292.213,51.279 292.059,51.296 291.906,51.296 C291.598,51.296 291.362,51.188 291.196,50.971 C291.031,50.754 290.993,50.423 291.084,49.978 L291.66,47.091 L290.965,47.091 L291.093,46.449 L291.787,46.449 L292.02,45.302 L292.868,45.302 L292.869,45.302 Z M268.905,56.302 L268.672,57.449 L269.494,57.449 L269.366,58.091 L268.544,58.091 L267.969,60.978 C267.919,61.215 267.926,61.376 267.991,61.459 C268.055,61.543 268.159,61.584 268.303,61.584 C268.37,61.584 268.451,61.578 268.547,61.564 C268.642,61.551 268.717,61.537 268.773,61.523 L268.769,62.116 C268.656061,62.179195 268.533381,62.2231299 268.406,62.246 C268.249,62.279 268.095,62.296 267.942,62.296 C267.635,62.296 267.398,62.188 267.232,61.971 C267.067,61.754 267.03,61.423 267.121,60.978 L267.696,58.091 L267.002,58.091 L267.129,57.449 L267.824,57.449 L268.057,56.302 L268.905,56.302 Z M269.793,59.782 C269.91,59.05 270.179,58.464 270.599,58.022 C271.019,57.582 271.539,57.362 272.157,57.362 C272.749,57.362 273.192,57.59 273.487,58.049 C273.781,58.507 273.872,59.085 273.761,59.783 L273.748,59.879 C273.628,60.615 273.358,61.201 272.937,61.639 C272.517,62.077 271.997,62.296 271.379,62.296 C270.787,62.296 270.344,62.068 270.049,61.611 C269.755,61.154 269.665,60.577 269.779,59.879 L269.793,59.783 L269.793,59.782 Z M270.627,59.879 C270.543,60.404 270.568,60.825 270.704,61.143 C270.841,61.461 271.101,61.62 271.484,61.62 C271.842,61.62 272.147,61.453 272.398,61.12 C272.65,60.788 272.816,60.374 272.895,59.88 L272.908,59.783 C272.99,59.267 272.962,58.848 272.825,58.526 C272.687,58.204 272.429,58.042 272.051,58.042 C271.691,58.042 271.386,58.209 271.135,58.543 C270.885,58.877 270.72,59.29 270.641,59.783 L270.627,59.879 Z M276.639,56.302 L276.406,57.449 L277.228,57.449 L277.101,58.091 L276.279,58.091 L275.703,60.978 C275.653,61.215 275.661,61.376 275.725,61.459 C275.79,61.543 275.894,61.584 276.037,61.584 C276.105,61.584 276.186,61.578 276.281,61.564 C276.376,61.551 276.451,61.537 276.507,61.523 L276.503,62.116 C276.390061,62.179195 276.267381,62.2231299 276.14,62.246 C275.984,62.279 275.83,62.296 275.677,62.296 C275.369,62.296 275.133,62.188 274.967,61.971 C274.802,61.754 274.764,61.423 274.855,60.978 L275.431,58.091 L274.736,58.091 L274.864,57.449 L275.558,57.449 L275.791,56.302 L276.639,56.302 Z M280.045,62.204 C280.045,62.06 280.048,61.943 280.054,61.85 C280.059901,61.7552771 280.06991,61.6608549 280.084,61.567 C279.887973,61.7745845 279.66053,61.9500601 279.41,62.087 C279.157,62.227 278.902,62.297 278.648,62.297 C278.214,62.297 277.894,62.167 277.688,61.907 C277.481,61.648 277.423,61.302 277.514,60.868 C277.607,60.385 277.846,60.022 278.228,59.78 C278.61,59.539 279.1,59.418 279.698,59.418 L280.511,59.418 L280.603,58.948 C280.662,58.652 280.629,58.427 280.506,58.273 C280.383,58.119 280.178,58.043 279.891,58.043 C279.645,58.043 279.422,58.115 279.223,58.26 C279.024,58.405 278.905,58.574 278.867,58.767 L278.063,58.767 L278.054,58.741 C278.113,58.375 278.333,58.053 278.714,57.777 C279.094,57.5 279.548,57.361 280.076,57.361 C280.547,57.361 280.92,57.501 281.194,57.781 C281.468,58.061 281.555,58.453 281.456,58.956 L280.999,61.246 C280.962937,61.4100168 280.936227,61.5759512 280.919,61.743 C280.904379,61.8963189 280.904379,62.0506811 280.919,62.204 L280.045,62.204 Z M278.92,61.571 C279.157,61.571 279.399,61.502 279.645,61.365 C279.891,61.227 280.082,61.065 280.216,60.877 L280.392,60.002 L279.552,60.002 C279.262,60.002 279.002,60.092 278.771,60.27 C278.539,60.45 278.401,60.654 278.357,60.886 C278.311,61.111 278.333,61.282 278.423,61.398 C278.514,61.513 278.68,61.571 278.92,61.571 Z M282.91,62.204 L282.062,62.204 L283.433,55.349 L284.281,55.349 L282.911,62.204 L282.91,62.204 Z M259.509,100.594 L258.985,103.235 L258.112,103.235 L259.428,96.65 L261.802,96.65 C262.412,96.65 262.872,96.834 263.184,97.202 C263.496,97.57 263.594,98.043 263.48,98.622 C263.35,99.258 263.074,99.746 262.65,100.085 C262.227,100.425 261.682,100.594 261.015,100.594 L259.509,100.594 Z M259.649,99.897 L261.156,99.897 C261.529,99.897 261.846,99.775 262.108,99.531 C262.368,99.287 262.535,98.987 262.608,98.631 C262.683,98.245 262.646,97.936 262.497,97.701 C262.347,97.468 262.069,97.351 261.662,97.351 L260.161,97.351 L259.65,99.897 L259.649,99.897 Z M266.279,103.235 C266.279,103.087 266.283,102.965 266.289,102.871 C266.295,102.776 266.305,102.679 266.32,102.579 C266.118219,102.792969 265.884021,102.973849 265.626,103.115 C265.366,103.258 265.104,103.33 264.841,103.33 C264.395,103.33 264.066,103.197 263.853,102.93 C263.641,102.663 263.581,102.306 263.675,101.86 C263.771,101.363 264.016,100.99 264.409,100.74 C264.803,100.492 265.307,100.368 265.922,100.368 L266.759,100.368 L266.854,99.884 C266.914,99.579 266.881,99.348 266.754,99.19 C266.628,99.031 266.417,98.952 266.121,98.952 C265.873769,98.9501945 265.632651,99.0288121 265.434,99.176 C265.229,99.326 265.107,99.499 265.067,99.698 L264.24,99.698 L264.23,99.671 C264.291,99.294 264.517,98.964 264.91,98.679 C265.301,98.394 265.768,98.251 266.311,98.251 C266.797,98.251 267.181,98.395 267.462,98.683 C267.744,98.971 267.834,99.374 267.732,99.893 L267.261,102.249 C267.224015,102.417644 267.196638,102.588252 267.179,102.76 C267.163918,102.917974 267.163918,103.077026 267.179,103.235 L266.279,103.235 Z M265.122,102.584 C265.366,102.584 265.615,102.513 265.868,102.371 C266.121,102.23 266.318,102.062 266.456,101.869 L266.636,100.969 L265.773,100.969 C265.475,100.969 265.206,101.061 264.968,101.245 C264.73,101.429 264.588,101.64 264.543,101.878 C264.495,102.11 264.517,102.286 264.611,102.405 C264.704,102.525 264.875,102.584 265.121,102.584 L265.122,102.584 Z M269.228,103.235 L268.355,103.235 L269.332,98.342 L270.205,98.342 L269.228,103.235 Z M270.458,97.089 L269.585,97.089 L269.766,96.18 L270.639,96.18 L270.459,97.09 L270.458,97.089 Z M272.498,103.33 C271.883,103.33 271.418,103.102 271.103,102.645 C270.788,102.188 270.687,101.601 270.802,100.883 L270.834,100.684 C270.948,99.961 271.234,99.374 271.691,98.925 C272.147,98.475 272.641,98.251 273.171,98.251 C273.771,98.251 274.201,98.451 274.461,98.853 C274.72,99.253 274.798,99.783 274.696,100.44 L274.606,100.996 L271.656,100.996 C271.59,101.496 271.636,101.895 271.795,102.19 C271.953,102.486 272.223,102.634 272.606,102.634 C273.099613,102.636983 273.578427,102.465574 273.958,102.15 L274.208,102.728 C274.023,102.9 273.788,103.044 273.502,103.158 C273.181323,103.278681 272.840561,103.337059 272.498,103.33 Z M273.063,98.952 C272.81,98.952 272.565,99.079 272.328,99.332 C272.083801,99.5988415 271.908998,99.9216607 271.819,100.272 L271.833,100.3 L273.845,100.3 L273.864,100.182 C273.921,99.818 273.886,99.522 273.76,99.294 C273.633,99.066 273.4,98.952 273.063,98.952 Z M276.848,98.925 C277.038,98.708 277.258,98.542 277.508,98.425 C277.758,98.309 278.035,98.251 278.336,98.251 C278.611,98.251 278.842,98.325 279.03,98.473 C279.219,98.621 279.343,98.841 279.404,99.133 C279.596,98.856 279.826,98.639 280.091,98.484 C280.356,98.329 280.649,98.251 280.968,98.251 C281.399,98.251 281.722,98.425 281.936,98.774 C282.15,99.122 282.191,99.634 282.058,100.309 L281.475,103.235 L280.597,103.235 L281.185,100.3 C281.285,99.781 281.282,99.43 281.176,99.249 C281.071,99.066 280.864,98.975 280.556,98.975 C280.31,98.975 280.076,99.085 279.856,99.303 C279.629048,99.5303084 279.462651,99.8108461 279.372,100.119 L279.372,100.129 L278.752,103.235 L277.875,103.235 L278.463,100.3 C278.559,99.809 278.553,99.465 278.445,99.269 C278.336,99.073 278.131,98.975 277.83,98.975 C277.6,98.975 277.396,99.033 277.215,99.149 C277.034,99.265 276.879,99.426 276.749,99.631 L276.025,103.235 L275.152,103.235 L276.129,98.342 L276.907,98.342 L276.848,98.925 Z M284.672,103.33 C284.057,103.33 283.592,103.102 283.277,102.645 C282.962,102.188 282.862,101.601 282.977,100.883 L283.007,100.684 C283.122,99.961 283.408,99.374 283.865,98.925 C284.322,98.475 284.815,98.251 285.346,98.251 C285.946,98.251 286.376,98.451 286.635,98.853 C286.895,99.253 286.973,99.783 286.87,100.44 L286.78,100.996 L283.831,100.996 C283.765,101.496 283.811,101.895 283.969,102.19 C284.127,102.486 284.398,102.634 284.781,102.634 C285.274613,102.636983 285.753427,102.465574 286.133,102.15 L286.382,102.728 C286.198,102.9 285.962,103.044 285.676,103.158 C285.355323,103.278681 285.014561,103.337059 284.672,103.33 Z M285.237,98.952 C284.984,98.952 284.739,99.079 284.503,99.332 C284.25844,99.5987359 284.083289,99.9215638 283.993,100.272 L284.007,100.3 L286.02,100.3 L286.038,100.182 C286.095,99.818 286.061,99.522 285.934,99.294 C285.807,99.066 285.575,98.952 285.237,98.952 Z M289.005,99.016 C289.204,98.768 289.429,98.579 289.681,98.448 C289.932,98.317 290.203,98.251 290.492,98.251 C290.954,98.251 291.296,98.408 291.519,98.721 C291.742,99.035 291.79,99.51 291.664,100.146 L291.044,103.235 L290.171,103.235 L290.786,100.165 C290.876,99.706 290.865,99.393 290.75,99.225 C290.636,99.059 290.413,98.975 290.08,98.975 C289.87,98.975 289.66,99.039 289.452,99.167 C289.244,99.295 289.062,99.467 288.905,99.68 L288.195,103.235 L287.322,103.235 L288.299,98.342 L289.081,98.342 L289.005,99.016 Z M294.653,97.161 L294.413,98.341 L295.259,98.341 L295.128,99.002 L294.282,99.002 L293.69,101.973 C293.639,102.217 293.646,102.383 293.712,102.468 C293.779,102.554 293.886,102.598 294.034,102.598 C294.103,102.598 294.187,102.591 294.284,102.577 C294.382,102.563 294.46,102.549 294.517,102.534 L294.513,103.144 C294.396953,103.209032 294.270901,103.254317 294.14,103.278 C293.978,103.313 293.82,103.33 293.663,103.33 C293.346,103.33 293.103,103.218 292.933,102.995 C292.762,102.772 292.723,102.432 292.817,101.973 L293.409,99.002 L292.695,99.002 L292.826,98.342 L293.541,98.342 L293.781,97.162 L294.653,97.162 L294.653,97.161 Z M8,137.204 L8,129.384 L10.535,129.384 C11.527,129.384 12.334,129.694 12.955,130.313 C13.576,130.933 13.887,131.729 13.887,132.703 L13.887,133.89 C13.887,134.868 13.577,135.664 12.955,136.28 C12.334,136.896 11.527,137.204 10.535,137.204 L8,137.204 Z M9.305,130.431 L9.305,136.162 L10.498,136.162 C11.146,136.162 11.655,135.951 12.026,135.528 C12.396,135.106 12.582,134.56 12.582,133.89 L12.582,132.692 C12.582,132.03 12.396,131.487 12.026,131.065 C11.656,130.642 11.146,130.431 10.498,130.431 L9.305,130.431 Z M17.555,137.317 C16.732,137.317 16.075,137.047 15.587,136.508 C15.098,135.97 14.854,135.278 14.854,134.433 L14.854,134.218 C14.854,133.373 15.096,132.672 15.581,132.115 C16.067,131.558 16.674,131.281 17.405,131.285 C18.189,131.285 18.79,131.522 19.207,131.997 C19.624,132.471 19.833,133.107 19.833,133.907 L19.833,134.674 L16.207,134.674 L16.197,134.701 C16.217,135.163 16.353,135.541 16.602,135.834 C16.851,136.128 17.195,136.274 17.636,136.274 C17.986,136.274 18.288,136.232 18.538,136.146 C18.788,136.06 19.031,135.936 19.263,135.776 L19.683,136.629 C19.463,136.823 19.173,136.986 18.813,137.119 C18.45,137.251 18.032,137.317 17.555,137.317 Z M17.405,132.332 C17.0940852,132.326621 16.7990687,132.46912 16.61,132.716 C16.402,132.972 16.273,133.297 16.223,133.691 L16.234,133.718 L18.538,133.718 L18.538,133.584 C18.538,133.215 18.444,132.914 18.256,132.682 C18.068,132.449 17.784,132.332 17.405,132.332 Z M17.733,129.126 L19.177,129.126 L19.188,129.158 L17.722,130.555 L16.707,130.555 L17.733,129.125 L17.733,129.126 Z M25.988,134.492 C25.988,135.34 25.79,136.023 25.394,136.541 C24.999,137.058 24.441,137.317 23.721,137.317 C23.36,137.317 23.045,137.243 22.779,137.097 C22.5044591,136.942818 22.2741044,136.720727 22.11,136.452 L21.981,137.204 L20.885,137.204 L20.885,128.825 L22.191,128.825 L22.191,132.053 C22.37,131.806 22.584,131.616 22.835,131.483 C23.085,131.351 23.378,131.285 23.711,131.285 C24.437,131.285 24.999,131.568 25.394,132.134 C25.79,132.699 25.988,133.448 25.988,134.379 L25.988,134.492 Z M24.683,134.379 C24.683,133.774 24.579,133.285 24.371,132.912 C24.164,132.54 23.834,132.354 23.383,132.354 C23.093,132.354 22.85,132.418 22.655,132.547 C22.46,132.677 22.305,132.855 22.191,133.084 L22.191,135.523 C22.301,135.756 22.455,135.936 22.652,136.063 C22.849,136.19 23.096,136.253 23.394,136.253 C23.844,136.253 24.172,136.095 24.377,135.778 C24.581,135.461 24.683,135.032 24.683,134.492 L24.683,134.379 Z M30.736,136.355 C30.5689875,136.647164 30.3305405,136.892148 30.043,137.067 C29.763,137.234 29.442,137.317 29.076,137.317 C28.453,137.317 27.966,137.118 27.616,136.721 C27.264,136.323 27.089,135.705 27.089,134.868 L27.089,131.392 L28.389,131.392 L28.389,134.878 C28.389,135.387 28.471,135.743 28.636,135.948 C28.801,136.151 29.049,136.253 29.382,136.253 C29.698,136.253 29.962,136.197 30.175,136.084 C30.388,135.971 30.555,135.808 30.677,135.593 L30.677,131.393 L31.982,131.393 L31.982,137.204 L30.843,137.204 L30.736,136.355 Z M34.968,129.98 L34.968,131.392 L36.01,131.392 L36.01,132.359 L34.969,132.359 L34.969,135.571 C34.969,135.811 35.021,135.982 35.125,136.084 C35.2364863,136.189121 35.3859458,136.244357 35.539,136.237 C35.6764299,136.23785 35.8129066,136.214144 35.942,136.167 L36.082,137.123 C35.97,137.184 35.838,137.232 35.684,137.266 C35.5269581,137.299994 35.3666772,137.316759 35.206,137.316 C34.726,137.316 34.35,137.176 34.078,136.896 C33.806,136.614 33.67,136.173 33.67,135.571 L33.67,132.359 L32.783,132.359 L32.783,131.392 L33.67,131.392 L33.67,129.98 L34.97,129.98 L34.968,129.98 Z M237.719,184.393 L234.292,184.393 L234.292,187.728 L232.987,187.728 L232.987,179.908 L238.267,179.908 L238.267,180.955 L234.292,180.955 L234.292,183.345 L237.719,183.345 L237.719,184.393 Z M240.592,187.728 L239.287,187.728 L239.287,181.917 L240.592,181.917 L240.592,187.728 Z M240.592,180.493 L239.287,180.493 L239.287,179.349 L240.592,179.349 L240.592,180.493 Z M243.235,181.917 L243.31,182.754 C243.5,182.457 243.739,182.225 244.027,182.059 C244.315,181.892 244.64,181.809 245.002,181.809 C245.607,181.809 246.079,181.993 246.417,182.359 C246.755,182.727 246.925,183.299 246.925,184.076 L246.925,187.728 L245.619,187.728 L245.619,184.086 C245.619,183.65 245.529,183.339 245.349,183.155 C245.167,182.97 244.893,182.878 244.524,182.878 C244.04804,182.869986 243.602184,183.11015 243.347,183.512 L243.347,187.728 L242.042,187.728 L242.042,181.917 L243.235,181.917 Z" id="Shape" fill="#2A3052" fill-rule="nonzero"></path>
            <polygon id="Path" fill="#2A3052" points="259 108.52 259 107 293.966 107 293.966 108.52"></polygon>
        </g>
    </g>
</svg>