<svg width="300" height="199" viewBox="0 0 300 199" xmlns="http://www.w3.org/2000/svg"><title>French goes out</title><g fill="none" fill-rule="evenodd"><path fill="#F1F2F2" fill-rule="nonzero" d="M0 0h300v199H0z"/><path d="M39.125 55.375V74.75H75.25V55.375H39.125zm0-1H75.25V34h1v20.375h36.125V34h1v20.375H149.5V34h1v20.375h36.125V34h1v20.375h36.125V34h1v20.375h36.125V34h1v20.375H299.5v1h-37.625V74.75H299.5v1h-37.625v19.375H299.5v1h-37.625V115.5H299.5v1h-37.625v19.375H299.5v1h-37.625v19.375H299.5v1h-37.625v19.375H299.5v1h-37.625V199h-1v-21.375H224.75V199h-1v-21.375h-36.125V199h-1v-21.375H150.5V199h-1v-21.375h-36.125V199h-1v-21.375H76.25V199h-1v-21.375H39.125V199h-1v-21.375H1.5v-1h36.625V157.25H1.5v-1h36.625v-19.375H1.5v-1h36.625V116.5H1.5v-1h36.625V96.125H1.5v-1h36.625V75.75H1.5v-1h36.625V55.375H1.5v-1h36.625V34h1v20.375zm221.75 1H224.75V74.75h36.125V55.375zm-37.125 0h-36.125V74.75h36.125V55.375zm-37.125 0H150.5V74.75h36.125V55.375zm-37.125 0h-36.125V74.75H149.5V55.375zm-37.125 0H76.25V74.75h36.125V55.375zM39.125 75.75v19.375H75.25V75.75H39.125zm221.75 0H224.75v19.375h36.125V75.75zm-37.125 0h-36.125v19.375h36.125V75.75zm-37.125 0H150.5v19.375h36.125V75.75zm-37.125 0h-36.125v19.375H149.5V75.75zm-37.125 0H76.25v19.375h36.125V75.75zm-73.25 20.375V115.5H75.25V96.125H39.125zm221.75 0H224.75V115.5h36.125V96.125zm-37.125 0h-36.125V115.5h36.125V96.125zm-37.125 0H150.5V115.5h36.125V96.125zm-37.125 0h-36.125V115.5H149.5V96.125zm-37.125 0H76.25V115.5h36.125V96.125zM39.125 116.5v19.375H75.25V116.5H39.125zm221.75 0H224.75v19.375h36.125V116.5zm-37.125 0h-36.125v19.375h36.125V116.5zm-37.125 0H150.5v19.375h36.125V116.5zm-37.125 0h-36.125v19.375H149.5V116.5zm-37.125 0H76.25v19.375h36.125V116.5zm-73.25 20.375v19.375H75.25v-19.375H39.125zm221.75 0H224.75v19.375h36.125v-19.375zm-37.125 0h-36.125v19.375h36.125v-19.375zm-37.125 0H150.5v19.375h36.125v-19.375zm-37.125 0h-36.125v19.375H149.5v-19.375zm-37.125 0H76.25v19.375h36.125v-19.375zm-73.25 20.375v19.375H75.25V157.25H39.125zm221.75 0H224.75v19.375h36.125V157.25zm-37.125 0h-36.125v19.375h36.125V157.25zm-37.125 0H150.5v19.375h36.125V157.25zm-37.125 0h-36.125v19.375H149.5V157.25zm-37.125 0H76.25v19.375h36.125V157.25z" fill="#DFDEDE" fill-rule="nonzero"/><path stroke="#C2C2C2" stroke-width="2" d="M1 1h298v197H1z"/><path fill="#C2C2C2" fill-rule="nonzero" d="M0 33h300v2H0z"/><g transform="translate(4 34.08)"><path d="M256.613.725V161M.9 41.412h290.625M.9 122.75h290.625" stroke="#2A3052" stroke-width="1.211" stroke-linejoin="round"/><path stroke="#2A3052" stroke-width="3.633" stroke-linecap="round" stroke-linejoin="round" d="M36 82.063l36.787-21.338 33.6 28.05 39.938-27.038 36.75 31.95 36.75-52.274"/><path d="M184.613 113H149.55l-5.4-8.213-5.4 8.213h-35.063a4.747 4.747 0 0 0-4.724 4.8v24.788a4.77 4.77 0 0 0 4.725 4.8h80.962a4.747 4.747 0 0 0 4.725-4.8V117.8a4.777 4.777 0 0 0-4.762-4.8z" fill="#E88024" fill-rule="nonzero"/><ellipse cx="9.075" cy="8.662" rx="8.137" ry="8.475" opacity=".6" transform="translate(210.75 32.75)" fill="#FFF" fill-rule="nonzero"/><ellipse stroke="#E88024" stroke-width="2.422" cx="219.825" cy="41.413" rx="8.137" ry="8.475"/><ellipse cx="9" cy="9.063" rx="8.137" ry="8.475" opacity=".6" transform="translate(27 73)" fill="#FFF" fill-rule="nonzero"/><ellipse stroke="#E88024" stroke-width="2.422" cx="36" cy="82.063" rx="8.137" ry="8.475"/></g><path d="M27.752 170.9l.012.035a2.926 2.926 0 0 1-1.107 1.97c-.632.506-1.411.76-2.338.76-.897 0-1.6-.334-2.109-1.002-.509-.668-.686-1.505-.53-2.511l.22-1.47c.156-1.056.574-1.906 1.255-2.552a3.425 3.425 0 0 1 2.44-.967c.901 0 1.598.25 2.092.752.494.501.673 1.158.536 1.972l-.017.034h-1.072c.087-.602-.014-1.065-.301-1.39-.288-.326-.746-.489-1.374-.489-.598 0-1.126.255-1.586.764-.46.509-.744 1.13-.854 1.864l-.222 1.482c-.12.783-.034 1.418.262 1.907.295.488.758.732 1.39.732.598 0 1.097-.17 1.498-.508.401-.339.647-.8.738-1.382h1.067zm2.129 2.646h-1.119l.92-6.141H30.8l-.92 6.14zm1.157-7.714H29.92l.17-1.14h1.119l-.17 1.14zm6.232 4.876c-.14.92-.46 1.642-.959 2.168-.5.526-1.126.789-1.879.789-.397 0-.734-.084-1.01-.25a1.68 1.68 0 0 1-.647-.732l-.318.863H31.6l1.328-8.854h1.118l-.516 3.439c.238-.272.51-.48.817-.624a2.39 2.39 0 0 1 1.028-.216c.726 0 1.262.306 1.609.917.346.61.447 1.404.303 2.38l-.017.12zm-1.1-.12c.109-.73.067-1.31-.126-1.742-.193-.431-.556-.647-1.09-.647-.332 0-.632.086-.899.258a2.248 2.248 0 0 0-.678.696l-.398 2.644c.099.303.252.539.46.707.208.168.49.253.846.253.507 0 .922-.19 1.246-.57.323-.381.53-.874.621-1.48l.017-.118zm3.246 2.958h-1.119l1.329-8.854h1.118l-1.328 8.854zm4.245.119c-.848 0-1.484-.286-1.91-.857-.426-.572-.57-1.31-.434-2.214l.04-.25c.132-.915.492-1.653 1.08-2.213.59-.56 1.256-.84 2.001-.84.791 0 1.36.26 1.709.778.348.518.46 1.193.335 2.026l-.086.59h-3.972c-.087.65-.023 1.164.193 1.541.215.376.607.565 1.174.565.364 0 .701-.055 1.013-.165a2.66 2.66 0 0 0 .81-.443l.328.727a3.23 3.23 0 0 1-.947.536c-.383.146-.827.219-1.334.219zm.647-5.494c-.375 0-.714.151-1.019.454a2.587 2.587 0 0 0-.655 1.146l.01.034h2.765l.011-.09c.068-.458.015-.83-.159-1.116-.174-.285-.492-.428-.953-.428zm5.954 5.375l1.237-8.264h2.696c.828 0 1.467.188 1.915.565.449.376.618.933.508 1.671-.057.367-.214.69-.47.97-.258.28-.58.492-.966.636.526.08.917.315 1.172.707.256.392.346.852.27 1.382-.121.787-.452 1.372-.993 1.756-.541.385-1.24.577-2.095.577h-3.274zm1.697-3.877l-.449 3.003h2.157c.492 0 .902-.127 1.232-.38.329-.254.527-.61.595-1.068.069-.473-.02-.846-.263-1.12-.245-.275-.61-.42-1.099-.435H51.96zm.13-.874h1.816c.401 0 .753-.115 1.056-.346.303-.23.484-.549.545-.954.068-.461-.021-.799-.267-1.013-.246-.213-.638-.32-1.175-.32h-1.578l-.397 2.633zm9.183 4.75a15.038 15.038 0 0 1-.011-.513c0-.13.007-.264.023-.4a3.316 3.316 0 0 1-.928.735 2.32 2.32 0 0 1-1.121.298c-.617 0-1.074-.166-1.371-.497-.297-.331-.402-.78-.315-1.348.087-.605.39-1.069.908-1.39.518-.322 1.19-.483 2.015-.483h1.214l.091-.607c.057-.375-.008-.663-.196-.866-.187-.202-.483-.303-.888-.303-.344 0-.647.09-.908.272-.26.182-.408.4-.443.653l-1.067.011-.005-.034c.045-.465.316-.879.811-1.24.496-.361 1.098-.542 1.805-.542.67 0 1.196.179 1.578.536.382.358.526.866.431 1.524l-.442 2.957c-.038.231-.06.446-.066.644-.005.2.007.397.037.594h-1.152zm-1.73-.817c.385 0 .76-.106 1.123-.318.363-.211.615-.45.755-.715l.153-.993h-1.254c-.435 0-.81.115-1.124.346-.314.231-.492.496-.534.795-.045.284.005.502.15.655.146.154.39.23.73.23zm8.178-.834c.034-.254-.03-.456-.193-.607-.163-.152-.5-.286-1.01-.403-.704-.155-1.231-.373-1.581-.653-.35-.28-.491-.655-.423-1.124.072-.522.343-.955.814-1.3.471-.344 1.05-.516 1.734-.516.666 0 1.196.191 1.59.573.393.382.546.821.46 1.317l-.012.034h-1.073a.844.844 0 0 0-.244-.726c-.2-.212-.48-.318-.84-.318-.378 0-.682.09-.91.27-.23.18-.361.39-.395.632-.034.25.022.44.17.568.148.128.48.248.999.357.73.16 1.27.384 1.617.676.348.291.49.671.426 1.14-.08.564-.361 1.014-.846 1.348-.484.335-1.086.503-1.804.503-.75 0-1.33-.2-1.74-.602-.41-.401-.568-.863-.474-1.385l.011-.034h1.073c-.034.398.074.688.324.871.25.184.56.276.93.276.383 0 .7-.085.954-.256.253-.17.401-.384.443-.641zm6.078 0c.034-.254-.03-.456-.193-.607-.163-.152-.5-.286-1.01-.403-.704-.155-1.23-.373-1.58-.653-.35-.28-.492-.655-.424-1.124.072-.522.344-.955.815-1.3.471-.344 1.049-.516 1.734-.516.666 0 1.195.191 1.589.573.393.382.547.821.46 1.317l-.012.034h-1.072a.844.844 0 0 0-.244-.726c-.2-.212-.48-.318-.84-.318-.379 0-.682.09-.911.27-.23.18-.36.39-.395.632-.034.25.023.44.17.568.148.128.481.248 1 .357.73.16 1.269.384 1.617.676.348.291.49.671.426 1.14-.08.564-.362 1.014-.846 1.348-.484.335-1.086.503-1.805.503-.75 0-1.329-.2-1.74-.602-.41-.401-.568-.863-.473-1.385l.011-.034h1.073c-.034.398.073.688.323.871.25.184.56.276.931.276.382 0 .7-.085.953-.256.254-.17.402-.384.443-.641zm4.773 1.77c-.847 0-1.484-.285-1.91-.856-.425-.572-.57-1.31-.434-2.214l.04-.25c.132-.915.493-1.653 1.081-2.213.589-.56 1.255-.84 2-.84.792 0 1.361.26 1.71.778.347.518.459 1.193.334 2.026l-.085.59h-3.973c-.087.65-.023 1.164.193 1.541.216.376.607.565 1.175.565.363 0 .7-.055 1.013-.165a2.66 2.66 0 0 0 .809-.443l.329.727a3.23 3.23 0 0 1-.948.536c-.382.146-.827.219-1.334.219zm.647-5.493c-.374 0-.714.151-1.018.454a2.587 2.587 0 0 0-.656 1.146l.011.034h2.764l.012-.09c.068-.458.015-.83-.16-1.116-.173-.285-.491-.428-.953-.428zM27.827 67.749l.011.034a2.961 2.961 0 0 1-1.12 1.994c-.64.513-1.429.77-2.367.77-.907 0-1.619-.339-2.134-1.014-.515-.676-.694-1.524-.537-2.542l.224-1.488c.157-1.069.58-1.93 1.27-2.582a3.467 3.467 0 0 1 2.47-.98c.911 0 1.617.254 2.117.761.5.508.68 1.173.542 1.997l-.017.034H27.2c.089-.609-.013-1.078-.304-1.407-.291-.33-.754-.494-1.39-.494-.605 0-1.14.257-1.606.772-.465.515-.753 1.144-.864 1.887l-.224 1.5c-.123.792-.035 1.436.264 1.93.299.494.768.74 1.407.74.605 0 1.11-.17 1.517-.513.406-.343.655-.81.747-1.4h1.08zm2.154 2.677h-1.132l.93-6.216h1.132l-.93 6.216zm1.172-7.807H30.02l.172-1.155h1.132l-.172 1.155zm6.307 4.935c-.142.93-.465 1.662-.97 2.194-.506.532-1.14.798-1.902.798-.402 0-.743-.084-1.023-.252a1.7 1.7 0 0 1-.655-.741l-.321.873h-.868l1.345-8.962h1.131l-.522 3.482c.24-.276.517-.487.827-.632.31-.146.656-.219 1.04-.219.735 0 1.278.31 1.628.928.35.619.453 1.422.307 2.41l-.017.12zm-1.114-.121c.11-.74.069-1.327-.127-1.764-.195-.436-.563-.654-1.103-.654-.337 0-.64.087-.91.26-.27.175-.499.41-.687.705l-.402 2.677c.1.306.255.544.466.715.21.17.496.255.856.255a1.58 1.58 0 0 0 1.26-.577c.328-.385.538-.884.63-1.496l.017-.121zm3.286 2.993H38.5l1.344-8.962h1.132l-1.344 8.962zm4.296.12c-.857 0-1.502-.289-1.933-.867-.43-.578-.577-1.325-.44-2.24l.041-.253c.134-.927.499-1.674 1.094-2.24.596-.567 1.271-.85 2.025-.85.8 0 1.377.262 1.73.786.352.525.465 1.209.338 2.051l-.086.598h-4.02c-.089.658-.024 1.178.194 1.56.219.38.615.57 1.19.57.367 0 .709-.055 1.025-.166.316-.11.589-.26.819-.448l.333.735a3.27 3.27 0 0 1-.96.543c-.386.148-.836.221-1.35.221zm.655-5.56c-.379 0-.723.153-1.03.46-.31.306-.53.693-.664 1.16l.011.034h2.798l.011-.092c.07-.463.016-.84-.16-1.129-.177-.289-.498-.433-.966-.433zm12.35 5.44h-1.13l.55-3.694h-4.06l-.552 3.694h-1.132l1.253-8.364h1.131l-.568 3.78h4.06l.57-3.78h1.131l-1.252 8.364zm5.619 0a15.22 15.22 0 0 1-.011-.52c0-.132.007-.267.023-.405-.257.295-.57.543-.94.744-.37.2-.747.301-1.134.301-.624 0-1.087-.167-1.388-.502-.3-.335-.406-.79-.318-1.365a1.9 1.9 0 0 1 .919-1.407c.524-.325 1.204-.488 2.04-.488h1.228l.092-.615c.058-.379-.008-.671-.198-.876-.19-.205-.49-.307-.899-.307a1.57 1.57 0 0 0-.919.276c-.264.183-.414.404-.448.66l-1.08.012-.006-.035c.046-.47.32-.89.822-1.255.501-.366 1.11-.549 1.826-.549.678 0 1.21.181 1.597.543.387.362.533.876.437 1.543l-.448 2.993c-.038.233-.06.45-.066.652-.006.2.007.4.037.6h-1.166zm-1.752-.827c.39 0 .77-.108 1.137-.322.368-.215.623-.456.764-.724l.155-1.005h-1.269c-.44 0-.82.117-1.137.35-.318.234-.498.502-.54.804-.046.288.004.509.152.664.147.155.393.233.738.233zm8.421.827l.064-.89c-.246.329-.534.58-.865.752a2.36 2.36 0 0 1-1.106.258c-.655 0-1.145-.219-1.47-.657-.326-.439-.42-1.11-.282-2.014l.546-3.665h1.132l-.552 3.677c-.103.685-.077 1.147.08 1.384.158.238.447.356.868.356.394 0 .737-.085 1.028-.255.291-.17.529-.411.712-.721l.661-4.44h1.132l-.93 6.215H69.22zm5.394-7.715l-.224 1.5h1.178l-.126.838h-1.178l-.563 3.774c-.046.303-.018.51.083.623.102.113.254.17.457.17a1.54 1.54 0 0 0 .43-.08l.041.775a1.201 1.201 0 0 1-.4.17c-.17.043-.335.065-.496.065-.444 0-.786-.14-1.025-.419-.24-.28-.313-.714-.222-1.304l.563-3.774h-.988l.127-.839h.988l.224-1.499h1.131zm3.792 7.835c-.858 0-1.502-.289-1.933-.867-.431-.578-.578-1.325-.44-2.24l.04-.253c.135-.927.5-1.674 1.095-2.24.595-.567 1.27-.85 2.025-.85.8 0 1.377.262 1.729.786.352.525.465 1.209.339 2.051l-.086.598h-4.021c-.089.658-.023 1.178.195 1.56.218.38.614.57 1.189.57.368 0 .71-.055 1.025-.166.316-.11.59-.26.819-.448l.333.735a3.27 3.27 0 0 1-.96.543c-.386.148-.836.221-1.35.221zm.655-5.56c-.38 0-.723.153-1.031.46-.309.306-.53.693-.664 1.16l.012.034h2.797l.012-.092c.069-.463.015-.84-.161-1.129-.176-.289-.498-.433-.965-.433z" fill="#6D6E71" fill-rule="nonzero"/><g fill="#2A3052" fill-rule="nonzero"><path d="M55.134 132.785v1.75h1.365v.98h-1.365v4.375c0 .35.07.56.21.7.14.14.315.21.56.21.07 0 .14 0 .245-.035a.506.506 0 0 0 .245-.07l.175.91a2.33 2.33 0 0 1-.42.21c-.175.035-.385.07-.56.07a1.715 1.715 0 0 1-1.26-.49c-.315-.315-.455-.84-.455-1.505v-4.375h-1.12v-.98h1.12v-1.75h1.26zM36.913 138.715H32.05c.125 1.481.733 2.222 1.825 2.222 1.638 0 1.866-1.389 1.866-1.302l1.076-.005c-.525 1.504-1.505 2.256-2.942 2.256-2.155 0-2.91-1.525-3.001-3.171-.091-1.646.457-3.856 3.02-3.856 2.1.04 3.107 1.324 3.019 3.856zm-1.22-.876c-.123-1.308-.731-1.962-1.826-1.962-1.095 0-1.704.654-1.827 1.962h3.653zM50.054 134.672h1.245v7.05h-1.245v-1.045c-.396.51-1.048 1.332-2.356 1.193-1.308-.138-2.117-1.164-2.123-2.295-.006-1.131.006-5.286 0-4.903h1.236v2.672c0 3.124.687 3.47 1.626 3.47.94 0 1.4-.794 1.617-1.059-.011-1.484-.011-3.179 0-5.083zM38.145 131.518h1.236v4.107c.357-.724 1.029-1.086 2.013-1.086 1.478 0 1.944.891 2.124 1.148.18.255.54.99.64 2.164.085 1.019-.158 2.603-.864 3.223-.93.817-1.528.812-2.027.812-.5 0-1.438-.24-1.96-1.134l-.18.957h-.982v-10.191zm1.292 8.189c.37.744.866 1.116 1.49 1.116.933 0 1.27-.264 1.576-.73.351-.536.427-1.578.354-2.38a4.104 4.104 0 0 0-.354-1.284c-.086-.17-.365-.917-1.577-.864-1.006.01-1.46.9-1.49 1.07v3.072zM36.11 131.518l-1.797 1.764h-.961l1.216-1.764zM22.49 132.495h3.523c1.398.212 3.614.76 3.614 4.695 0 3.936-2.265 4.52-3.568 4.696H22.49v-9.39zm1.249.991v7.45h1.783c.343 0 2.332-.002 2.666-2.295.333-2.292-.024-3.193-.303-3.772-.279-.58-1.012-1.383-2.363-1.383h-1.783z"/></g><g fill="#2A3052" fill-rule="nonzero"><path d="M281.791 123.567l.118 1.213a2.647 2.647 0 0 1 2.35-1.33c.86 0 1.526.234 1.996.782.47.51.705 1.292.705 2.35v5.09h-1.449v-5.051c0-.705-.156-1.214-.43-1.527-.275-.314-.705-.431-1.254-.431-.43 0-.783.117-1.096.313-.313.196-.587.47-.783.823v5.873H280.5v-8.066l1.292-.04zM275.297 121.478v1.043h-5.003v3.543h4.262v1.073h-4.262v4.535h-1.469v-10.194zM276.964 124.863h1.41v6.829h-1.41zM276.87 121.642v1.467h1.541v-1.467z"/></g><g fill="#FFF" fill-rule="nonzero"><path d="M178.083 165.874h-5.943c.13 2.744 1.829 3.408 5.093 1.99l.694 1.335a4.852 4.852 0 0 1-2.075 1.004c-1.615.351-3.192.083-4.286-.724-2.373-1.75-1.767-5.425-1.244-6.691.244-.592 1.447-2.26 2.876-2.421 1.296-.146 4.502-.454 4.885 3.855.03.877.03 1.428 0 1.652zm-2.1-1.787c0-1.533-.606-2.3-1.82-2.3-1.822 0-2.007 2.3-2.007 2.3h3.826zM127.55 160.257h2.105v9.711h-2.104zM127.592 156.018v2.104h2.124v-2.104zM159.577 160.407h2.143v10.004h-2.143zM159.62 156.04v1.899h2.187v-1.899zM123.656 156.983h2.395l-4.723 13.356h-2.21l-4.664-13.356h2.408l3.39 10.621zM138.096 163.915c.904.002 1.58.002 2.03 0 0-1.063-.727-3.89-4.111-3.767-3.385.122-4.212 3.163-4.212 5.18s1.028 5.18 4.339 5.18c3.31 0 3.983-2.519 3.983-3.488h-2.029c-.123 1.121-.767 1.682-1.932 1.682-1.747 0-2.14-2.054-2.14-3.374 0-1.32.25-3.285 1.99-3.377 1.161-.062 1.855.593 2.082 1.964zM142.607 157.955h2.214v2.43h1.781v1.603h-1.78v5.465c0 .37.001 1.487 1.61 1.068.117.781.204 1.325.26 1.63-.575.35-4.085 1.101-4.085-2.698v-5.465h-1.52v-1.604h1.52v-2.43zM152.518 160.297c2.764 0 4.264 1.686 4.643 4.21.379 2.525-.984 6.091-4.448 6.091-3.465 0-4.585-2.634-4.585-5.36 0-2.725 1.626-4.94 4.39-4.94zm.025 1.77c-.822.077-2.278.652-2.193 3.378.085 2.726 1.277 3.366 2.193 3.366.916 0 2.46-.254 2.46-3.355 0-3.1-1.638-3.467-2.46-3.39zM169.08 160.25c-.092.856-.19 1.56-.299 2.112-1.077-.07-2.196-.172-2.685 1.087l.014 6.773h-2.218v-9.894h1.973c.094.66.153 1.142.176 1.444.682-1.272 1.695-1.78 3.038-1.523z"/><g><path d="M180.39 156.937h2.078v8.709h-2.079zM182.547 168.195v2.008h-2.149v-2.008z"/></g></g><path d="M22.392 19.06c0-.356-.123-.642-.37-.857-.248-.216-.683-.42-1.305-.61-1.067-.321-1.876-.7-2.428-1.136-.553-.436-.829-1.03-.829-1.784 0-.757.311-1.376.933-1.856.623-.48 1.416-.72 2.38-.72 1.025 0 1.85.257 2.473.774.624.516.926 1.193.905 2.03l-.013.039h-1.796c0-.461-.14-.816-.42-1.063-.279-.248-.67-.372-1.174-.372-.457 0-.81.11-1.06.33-.25.22-.374.502-.374.845 0 .313.135.57.406.77.271.202.739.415 1.403.639 1.016.288 1.79.663 2.323 1.127.533.463.8 1.073.8 1.83 0 .792-.309 1.416-.927 1.873-.618.457-1.434.686-2.45.686-.994 0-1.848-.248-2.561-.743-.713-.495-1.06-1.233-1.038-2.215l.013-.038h1.796c0 .546.16.948.482 1.206.322.258.758.387 1.308.387.495 0 .873-.104 1.133-.311.26-.207.39-.484.39-.831zm2.793-1.086c0-1.024.286-1.863.857-2.517.572-.654 1.363-.98 2.374-.98 1.016 0 1.812.325 2.387.977.576.652.863 1.492.863 2.52v.133c0 1.033-.286 1.874-.86 2.524-.573.65-1.365.974-2.377.974-1.016 0-1.81-.325-2.383-.974-.574-.65-.86-1.491-.86-2.524v-.133zm1.848.133c0 .627.11 1.13.33 1.508.22.379.575.568 1.066.568.478 0 .828-.19 1.05-.571.223-.381.334-.883.334-1.505v-.133c0-.61-.112-1.107-.337-1.492-.224-.385-.577-.577-1.06-.577-.478 0-.828.193-1.05.58-.222.388-.333.884-.333 1.49v.132zm9.388-1.91l-.68-.02c-.274 0-.5.058-.679.172a1.086 1.086 0 0 0-.406.482v4.64H32.81v-6.868h1.72l.083 1.016c.16-.36.369-.64.625-.841.256-.201.551-.302.885-.302.094 0 .18.008.258.023.078.015.157.033.238.054l-.197 1.644zm3.294-3.276v1.682h1.162v1.302h-1.162v3.497c0 .267.056.457.168.572a.59.59 0 0 0 .442.171 1.77 1.77 0 0 0 .501-.07l.152 1.34a3.236 3.236 0 0 1-1.117.19c-.639 0-1.13-.176-1.476-.527-.344-.351-.517-.908-.517-1.67v-3.503h-1.003v-1.302h1.003v-1.682h1.847zm5.681 8.55V12.23h3.225c1.13 0 2.06.361 2.793 1.083.732.721 1.098 1.647 1.098 2.777v1.53c0 1.134-.366 2.06-1.098 2.777-.732.717-1.663 1.076-2.793 1.076h-3.225zm1.854-7.813v6.392h1.371c.61 0 1.1-.228 1.473-.683.372-.455.558-1.037.558-1.748v-1.543c0-.707-.186-1.286-.558-1.74-.373-.452-.864-.678-1.473-.678H47.25zm9.585 7.947c-1.024 0-1.824-.314-2.4-.943-.575-.628-.863-1.437-.863-2.428v-.254c0-1.028.28-1.87.838-2.526.559-.656 1.327-.982 2.304-.978.923 0 1.63.283 2.124.848.493.565.74 1.326.74 2.282v.958h-4.095l-.02.038c.03.47.173.851.43 1.143.255.292.635.438 1.139.438.414 0 .767-.042 1.057-.127.29-.085.589-.214.898-.387l.501 1.142c-.275.225-.647.413-1.117.565-.47.153-.982.229-1.536.229zm-.12-5.7c-.373 0-.66.128-.86.384-.202.256-.324.595-.366 1.019l.013.031h2.26v-.14c0-.401-.083-.718-.248-.948-.165-.231-.432-.346-.8-.346zm9.172 4.145h4.138v1.422h-5.992v-9.243h1.854v7.82zm9.28 1.422a3.899 3.899 0 0 1-.175-.496 3.444 3.444 0 0 1-.104-.533 2.54 2.54 0 0 1-.756.832c-.313.22-.685.33-1.117.33-.72 0-1.274-.185-1.663-.556-.39-.37-.584-.874-.584-1.513 0-.673.26-1.195.778-1.565.518-.37 1.274-.556 2.269-.556h1.04v-.545c0-.33-.086-.587-.26-.769-.173-.181-.431-.272-.774-.272-.3 0-.532.073-.695.219-.163.146-.244.345-.244.6h-1.784l-.013-.039c-.03-.58.224-1.08.759-1.5.535-.422 1.235-.633 2.098-.633.825 0 1.493.208 2.002.623.51.414.765 1.009.765 1.783v2.838c0 .321.025.624.073.907.049.284.126.565.232.845h-1.847zm-1.695-1.238c.322 0 .61-.08.863-.241.254-.161.428-.347.52-.559v-.971h-1.04c-.394 0-.691.097-.892.292a.96.96 0 0 0-.302.717c0 .233.076.418.226.556.15.137.358.206.625.206zm9.826-.184h4.24v1.422h-6.423v-.965l4.113-6.85H81.12V12.23h6.31v.927l-4.133 6.894zm5.002-2.076c0-1.024.286-1.863.857-2.517.571-.654 1.363-.98 2.374-.98 1.016 0 1.811.325 2.387.977.575.652.863 1.492.863 2.52v.133c0 1.033-.287 1.874-.86 2.524-.573.65-1.366.974-2.377.974-1.016 0-1.81-.325-2.384-.974-.573-.65-.86-1.491-.86-2.524v-.133zm1.847.133c0 .627.11 1.13.33 1.508.22.379.576.568 1.067.568.478 0 .828-.19 1.05-.571.223-.381.334-.883.334-1.505v-.133c0-.61-.112-1.107-.337-1.492-.224-.385-.577-.577-1.06-.577-.478 0-.828.193-1.05.58-.223.388-.334.884-.334 1.49v.132zm7.472-3.504l.082.984c.229-.35.51-.624.844-.819a2.191 2.191 0 0 1 1.124-.292c.694 0 1.236.224 1.625.67.39.447.584 1.152.584 2.117v4.209h-1.86v-4.203c0-.49-.086-.838-.257-1.044-.171-.205-.429-.308-.771-.308-.275 0-.518.052-.727.156-.21.104-.382.246-.517.428v4.97h-1.854v-6.868h1.727zm8.62 7.002c-1.024 0-1.824-.314-2.4-.943-.575-.628-.863-1.437-.863-2.428v-.254c0-1.028.28-1.87.838-2.526.558-.656 1.327-.982 2.304-.978.923 0 1.63.283 2.123.848.493.565.74 1.326.74 2.282v.958h-4.094l-.02.038c.03.47.173.851.43 1.143.255.292.635.438 1.138.438.415 0 .767-.042 1.057-.127.29-.085.59-.214.899-.387l.501 1.142c-.275.225-.647.413-1.117.565-.47.153-.982.229-1.536.229zm-.12-5.7c-.373 0-.66.128-.861.384-.201.256-.323.595-.365 1.019l.013.031h2.26v-.14c0-.401-.083-.718-.248-.948-.165-.231-.432-.346-.8-.346z" fill="#000"/></g></svg>