<?xml version="1.0" encoding="UTF-8"?>
<svg width="299px" height="197px" viewBox="0 0 299 197" version="1.1" xmlns="http://www.w3.org/2000/svg" xmlns:xlink="http://www.w3.org/1999/xlink">
    <!-- Generator: Sketch 52.6 (67491) - http://www.bohemiancoding.com/sketch -->
    <title>high close</title>
    <desc>Created with Sketch.</desc>
    <g id="Page-1" stroke="none" stroke-width="1" fill="none" fill-rule="evenodd">
        <g id="high-close">
            <g id="Group">
                <polygon id="Shape" fill="#F1F2F2" points="0 0 299 0 299 197 0 197"></polygon>
                <path d="M1.98671096,1.9798995 L1.98671096,195.020101 L297.013289,195.020101 L297.013289,1.9798995 L1.98671096,1.9798995 Z M299,0 L299,197 L0,197 L0,0 L299,0 Z" id="Shape" fill="#C2C2C2" fill-rule="nonzero"></path>
                <path d="M4.887,56.1681983 L4.887,54.9623677 L294.54325,54.9623677 L294.54325,56.1681983 L4.887,56.1681983 Z M4.887,96.4974436 L4.887,95.291613 L294.54325,95.291613 L294.54325,96.4974436 L4.887,96.4974436 Z M4.887,136.826689 L4.887,135.620859 L294.54325,135.620859 L294.54325,136.826689 L4.887,136.826689 Z M4.887,177.118764 L4.887,175.912934 L294.54325,175.912934 L294.54325,177.118764 L4.887,177.118764 Z M39.2670847,35.4192453 L40.4729153,35.4192453 L40.4729153,194.283019 L39.2670847,194.283019 L39.2670847,35.4192453 Z M75.9319597,35.4192453 L77.1377903,35.4192453 L77.1377903,194.283019 L75.9319597,194.283019 L75.9319597,35.4192453 Z M112.55946,35.4192453 L113.76529,35.4192453 L113.76529,194.283019 L112.55946,194.283019 L112.55946,35.4192453 Z M149.224335,35.4192453 L150.430165,35.4192453 L150.430165,194.283019 L149.224335,194.283019 L149.224335,35.4192453 Z M185.851835,35.4192453 L187.057665,35.4192453 L187.057665,194.283019 L185.851835,194.283019 L185.851835,35.4192453 Z M222.479335,35.4192453 L223.685165,35.4192453 L223.685165,194.283019 L222.479335,194.283019 L222.479335,35.4192453 Z M4.887,116.643481 L4.887,115.437651 L294.54325,115.437651 L294.54325,116.643481 L4.887,116.643481 Z" id="Shape-2" fill="#DFDEDE" fill-rule="nonzero"></path>
                <path d="M4.887,65.1614382 L4.887,64.0336562 L12.3557552,64.0336562 L12.3557552,65.1614382 L4.887,65.1614382 Z M19.8245105,65.1614382 L19.8245105,64.0336562 L27.2932657,64.0336562 L27.2932657,65.1614382 L19.8245105,65.1614382 Z M34.762021,65.1614382 L34.762021,64.0336562 L42.2307762,64.0336562 L42.2307762,65.1614382 L34.762021,65.1614382 Z M49.6995315,65.1614382 L49.6995315,64.0336562 L57.1682867,64.0336562 L57.1682867,65.1614382 L49.6995315,65.1614382 Z M64.637042,65.1614382 L64.637042,64.0336562 L72.1057972,64.0336562 L72.1057972,65.1614382 L64.637042,65.1614382 Z M79.5745525,65.1614382 L79.5745525,64.0336562 L87.0433077,64.0336562 L87.0433077,65.1614382 L79.5745525,65.1614382 Z M94.5120629,65.1614382 L94.5120629,64.0336562 L101.980818,64.0336562 L101.980818,65.1614382 L94.5120629,65.1614382 Z M109.449573,65.1614382 L109.449573,64.0336562 L116.918329,64.0336562 L116.918329,65.1614382 L109.449573,65.1614382 Z M124.387084,65.1614382 L124.387084,64.0336562 L131.855839,64.0336562 L131.855839,65.1614382 L124.387084,65.1614382 Z M139.324594,65.1614382 L139.324594,64.0336562 L146.79335,64.0336562 L146.79335,65.1614382 L139.324594,65.1614382 Z M154.262105,65.1614382 L154.262105,64.0336562 L161.73086,64.0336562 L161.73086,65.1614382 L154.262105,65.1614382 Z M169.199615,65.1614382 L169.199615,64.0336562 L176.668371,64.0336562 L176.668371,65.1614382 L169.199615,65.1614382 Z M184.137126,65.1614382 L184.137126,64.0336562 L191.605881,64.0336562 L191.605881,65.1614382 L184.137126,65.1614382 Z M199.074636,65.1614382 L199.074636,64.0336562 L206.543392,64.0336562 L206.543392,65.1614382 L199.074636,65.1614382 Z M214.012147,65.1614382 L214.012147,64.0336562 L221.480902,64.0336562 L221.480902,65.1614382 L214.012147,65.1614382 Z M228.949657,65.1614382 L228.949657,64.0336562 L236.418413,64.0336562 L236.418413,65.1614382 L228.949657,65.1614382 Z M243.887168,65.1614382 L243.887168,64.0336562 L251.355923,64.0336562 L251.355923,65.1614382 L243.887168,65.1614382 Z M258.824678,65.1614382 L258.824678,64.0336562 L266.293434,64.0336562 L266.293434,65.1614382 L258.824678,65.1614382 Z M273.762189,65.1614382 L273.762189,64.0336562 L281.230944,64.0336562 L281.230944,65.1614382 L273.762189,65.1614382 Z M288.699699,65.1614382 L288.699699,64.0336562 L294.54325,64.0336562 L294.54325,65.1614382 L288.699699,65.1614382 Z" id="Shape-3" fill="#15212D" fill-rule="nonzero"></path>
                <polygon id="Path" fill="#2A3052" fill-rule="nonzero" points="240.45671 35.4192453 241.66254 35.4192453 241.66254 194.283019 240.45671 194.283019"></polygon>
                <path d="M4.887,156.933702 L4.887,155.80592 L12.3557552,155.80592 L12.3557552,156.933702 L4.887,156.933702 Z M19.8245105,156.933702 L19.8245105,155.80592 L27.2932657,155.80592 L27.2932657,156.933702 L19.8245105,156.933702 Z M34.762021,156.933702 L34.762021,155.80592 L42.2307762,155.80592 L42.2307762,156.933702 L34.762021,156.933702 Z M49.6995315,156.933702 L49.6995315,155.80592 L57.1682867,155.80592 L57.1682867,156.933702 L49.6995315,156.933702 Z M64.637042,156.933702 L64.637042,155.80592 L72.1057972,155.80592 L72.1057972,156.933702 L64.637042,156.933702 Z M79.5745525,156.933702 L79.5745525,155.80592 L87.0433077,155.80592 L87.0433077,156.933702 L79.5745525,156.933702 Z M94.5120629,156.933702 L94.5120629,155.80592 L101.980818,155.80592 L101.980818,156.933702 L94.5120629,156.933702 Z M109.449573,156.933702 L109.449573,155.80592 L116.918329,155.80592 L116.918329,156.933702 L109.449573,156.933702 Z M124.387084,156.933702 L124.387084,155.80592 L131.855839,155.80592 L131.855839,156.933702 L124.387084,156.933702 Z M139.324594,156.933702 L139.324594,155.80592 L146.79335,155.80592 L146.79335,156.933702 L139.324594,156.933702 Z M154.262105,156.933702 L154.262105,155.80592 L161.73086,155.80592 L161.73086,156.933702 L154.262105,156.933702 Z M169.199615,156.933702 L169.199615,155.80592 L176.668371,155.80592 L176.668371,156.933702 L169.199615,156.933702 Z M184.137126,156.933702 L184.137126,155.80592 L191.605881,155.80592 L191.605881,156.933702 L184.137126,156.933702 Z M199.074636,156.933702 L199.074636,155.80592 L206.543392,155.80592 L206.543392,156.933702 L199.074636,156.933702 Z M214.012147,156.933702 L214.012147,155.80592 L221.480902,155.80592 L221.480902,156.933702 L214.012147,156.933702 Z M228.949657,156.933702 L228.949657,155.80592 L236.418413,155.80592 L236.418413,156.933702 L228.949657,156.933702 Z M243.887168,156.933702 L243.887168,155.80592 L251.355923,155.80592 L251.355923,156.933702 L243.887168,156.933702 Z M258.824678,156.933702 L258.824678,155.80592 L266.293434,155.80592 L266.293434,156.933702 L258.824678,156.933702 Z M273.762189,156.933702 L273.762189,155.80592 L281.230944,155.80592 L281.230944,156.933702 L273.762189,156.933702 Z M288.699699,156.933702 L288.699699,155.80592 L294.54325,155.80592 L294.54325,156.933702 L288.699699,156.933702 Z" id="Path-2" fill="#15212D" fill-rule="nonzero"></path>
                <polygon id="Shape-4" fill="#C2C2C2" fill-rule="nonzero" points="2.794 35.4358286 2.794 33.023794 296.63625 33.023794 296.63625 35.4358286"></polygon>
                <path d="M21.9184493,117.693023 C21.0058223,118.099477 19.9364962,117.689142 19.5300426,116.776515 C19.123589,115.863888 19.5339236,114.794562 20.4465507,114.388109 L56.1920007,98.4682786 C56.8186454,98.1891919 57.5492377,98.2885757 58.0785624,98.7249108 L83.037108,119.298844 L125.345574,64.0442066 C126.251105,62.8615879 128.117921,63.2189352 128.522685,64.6523714 L158.357145,170.308559 L174.71164,108.34568 C174.807525,107.982395 175.014153,107.657982 175.302829,107.41749 L202.657592,84.6286784 C203.541532,83.8922823 204.879278,84.1572972 205.415706,85.1750762 L242.790706,156.087642 C243.256521,156.971445 242.917675,158.065528 242.033871,158.531343 C241.150068,158.997158 240.055985,158.658312 239.59017,157.774508 L203.256822,88.8382966 L178.062305,109.827443 L160.16506,177.635396 C159.695113,179.415903 157.175582,179.437512 156.675165,177.665327 L126.022408,69.1112111 L84.7696381,122.987114 C84.1467836,123.800559 82.9733241,123.934871 82.1827751,123.283202 L56.6412045,102.228668 L21.9184493,117.693023 Z" id="Shape-5" fill="#2A3052" fill-rule="nonzero"></path>
                <g opacity="0.6" transform="translate(232.725000, 146.962264)" fill="#FFFFFF" id="Oval">
                    <ellipse cx="8.110375" cy="9.2588679" rx="8.110375" ry="8.40037736"></ellipse>
                </g>
                <path d="M240.835375,165.827527 C235.680409,165.827527 231.518983,161.517301 231.518983,156.221132 C231.518983,150.924963 235.680409,146.614737 240.835375,146.614737 C245.990341,146.614737 250.151767,150.924963 250.151767,156.221132 C250.151767,161.517301 245.990341,165.827527 240.835375,165.827527 Z M240.835375,163.415492 C244.638882,163.415492 247.739733,160.203764 247.739733,156.221132 C247.739733,152.2385 244.638882,149.026772 240.835375,149.026772 C237.031868,149.026772 233.931017,152.2385 233.931017,156.221132 C233.931017,160.203764 237.031868,163.415492 240.835375,163.415492 Z" id="Oval-2" fill="#E88024" fill-rule="nonzero"></path>
                <g id="Group-2" opacity="0.6" transform="translate(117.862500, 56.754717)" fill="#FFFFFF">
                    <ellipse id="Oval-3" cx="8.979125" cy="8.40037736" rx="8.110375" ry="8.40037736"></ellipse>
                </g>
                <path d="M126.841625,74.7614889 C121.686659,74.7614889 117.525233,70.4512631 117.525233,65.1550943 C117.525233,59.8589255 121.686659,55.5486997 126.841625,55.5486997 C131.996591,55.5486997 136.158017,59.8589255 136.158017,65.1550943 C136.158017,70.4512631 131.996591,74.7614889 126.841625,74.7614889 Z M126.841625,72.3494544 C130.645132,72.3494544 133.745983,69.1377262 133.745983,65.1550943 C133.745983,61.1724624 130.645132,57.9607342 126.841625,57.9607342 C123.038118,57.9607342 119.937267,61.1724624 119.937267,65.1550943 C119.937267,69.1377262 123.038118,72.3494544 126.841625,72.3494544 Z" id="Oval-4" fill="#E88024" fill-rule="nonzero"></path>
            </g>
            <path d="M35.853,125.899 L35.853,127.392 L37.018,127.392 L37.018,128.228 L35.853,128.228 L35.853,131.961 C35.853,132.26 35.913,132.439 36.033,132.558 C36.152,132.678 36.301,132.738 36.51,132.738 C36.57,132.738 36.63,132.738 36.72,132.708 C36.809,132.708 36.868,132.678 36.928,132.648 L37.078,133.424 C36.988,133.484 36.868,133.544 36.719,133.604 C36.569,133.634 36.391,133.664 36.241,133.664 C35.841,133.677 35.452,133.526 35.166,133.245 C34.897,132.977 34.778,132.529 34.778,131.961 L34.778,128.228 L33.822,128.228 L33.822,127.392 L34.778,127.392 L34.778,125.899 L35.853,125.899 Z M20.306,130.959 L16.156,130.959 C16.263,132.223 16.782,132.854 17.714,132.854 C19.112,132.854 19.306,131.67 19.306,131.744 L20.224,131.74 C19.776,133.023 18.94,133.664 17.714,133.664 C15.875,133.664 15.231,132.364 15.154,130.959 C15.076,129.554 15.544,127.669 17.729,127.669 C19.522,127.702 20.381,128.799 20.306,130.959 Z M19.265,130.212 C19.16,129.095 18.641,128.537 17.707,128.537 C16.772,128.537 16.253,129.095 16.148,130.212 L19.265,130.212 Z M31.518,127.51 L32.581,127.51 L32.581,133.525 L31.518,133.525 L31.518,132.633 C31.181,133.069 30.625,133.769 29.508,133.651 C28.392,133.533 27.702,132.658 27.697,131.693 C27.692,130.727 27.702,127.183 27.697,127.509 L28.751,127.509 L28.751,129.789 C28.751,132.455 29.337,132.749 30.139,132.749 C30.941,132.749 31.334,132.072 31.519,131.847 C31.509,130.58 31.509,129.134 31.519,127.509 L31.518,127.51 Z M21.357,124.818 L22.412,124.818 L22.412,128.323 C22.717,127.704 23.289,127.395 24.13,127.395 C25.39,127.395 25.788,128.156 25.942,128.375 C26.096,128.593 26.403,129.219 26.488,130.222 C26.561,131.091 26.353,132.443 25.751,132.972 C24.957,133.669 24.447,133.664 24.021,133.664 C23.595,133.664 22.794,133.459 22.348,132.697 L22.195,133.513 L21.357,133.513 L21.357,124.818 Z M22.459,131.805 C22.775,132.44 23.199,132.758 23.73,132.758 C24.527,132.758 24.814,132.532 25.076,132.134 C25.376,131.678 25.44,130.788 25.378,130.104 C25.3375929,129.724998 25.2355847,129.355133 25.076,129.009 C25.002,128.863 24.764,128.225 23.73,128.272 C22.872,128.28 22.484,129.039 22.46,129.185 L22.46,131.805 L22.459,131.805 Z M19.621,124.818 L18.087,126.324 L17.267,126.324 L18.305,124.818 L19.621,124.818 Z M8,125.652 L11.005,125.652 C12.199,125.832 14.089,126.3 14.089,129.658 C14.089,133.016 12.157,133.514 11.044,133.664 L8,133.664 L8,125.652 Z M9.065,126.498 L9.065,132.854 L10.586,132.854 C10.879,132.854 12.576,132.852 12.861,130.896 C13.146,128.94 12.841,128.171 12.603,127.677 C12.365,127.183 11.739,126.497 10.586,126.497 L9.065,126.497 L9.065,126.498 Z" id="Shape" fill="#2A3052" fill-rule="nonzero"></path>
            <path d="M23.268,22.408 L21.133,22.408 L21.133,17.984 L16.797,17.984 L16.797,22.408 L14.661,22.408 L14.661,11.76 L16.797,11.76 L16.797,16.338 L21.133,16.338 L21.133,11.76 L23.268,11.76 L23.268,22.408 Z M29.733,22.408 C29.6532764,22.2227291 29.5861243,22.032298 29.532,21.838 C29.4758512,21.6364837 29.4357261,21.4308427 29.412,21.223 C29.192,21.608 28.902,21.928 28.541,22.181 C28.181,22.435 27.751,22.561 27.254,22.561 C26.425,22.561 25.786,22.348 25.338,21.921 C24.889,21.495 24.665,20.914 24.665,20.177 C24.665,19.402 24.964,18.801 25.561,18.375 C26.158,17.948 27.03,17.735 28.175,17.735 L29.375,17.735 L29.375,17.106 C29.375,16.726 29.275,16.431 29.075,16.221 C28.875,16.011 28.577,15.907 28.183,15.907 C27.836,15.907 27.57,15.991 27.382,16.159 C27.194,16.327 27.1,16.558 27.1,16.85 L25.045,16.85 L25.031,16.806 C24.997,16.138 25.288,15.562 25.905,15.076 C26.521,14.592 27.327,14.349 28.322,14.349 C29.272,14.349 30.042,14.588 30.629,15.066 C31.216,15.544 31.509,16.229 31.509,17.121 L31.509,20.389 C31.509,20.76 31.538,21.109 31.594,21.435 C31.65,21.762 31.739,22.086 31.861,22.408 L29.733,22.408 Z M27.78,20.982 C28.15,20.982 28.482,20.889 28.775,20.704 C29.067,20.519 29.267,20.304 29.375,20.06 L29.375,18.942 L28.175,18.942 C27.722,18.942 27.379,19.054 27.148,19.278 C26.916,19.502 26.8,19.778 26.8,20.104 C26.8,20.372 26.887,20.586 27.06,20.744 C27.233,20.903 27.473,20.982 27.78,20.982 Z M37.96,21.238 C37.716,21.662 37.406,21.988 37.031,22.218 C36.656,22.447 36.219,22.561 35.722,22.561 C34.888,22.561 34.236,22.279 33.766,21.713 C33.296,21.148 33.06,20.27 33.06,19.08 L33.06,14.495 L35.188,14.495 L35.188,19.095 C35.188,19.787 35.282,20.261 35.47,20.517 C35.657,20.773 35.949,20.901 36.344,20.901 C36.684,20.901 36.977,20.847 37.221,20.737 C37.4604801,20.6309443 37.6675266,20.4632367 37.821,20.251 L37.821,14.495 L39.956,14.495 L39.956,22.408 L38.186,22.408 L37.96,21.238 Z M44.124,12.558 L44.124,14.495 L45.463,14.495 L45.463,15.995 L44.124,15.995 L44.124,20.024 C44.124,20.331 44.189,20.55 44.318,20.682 C44.4524734,20.8156022 44.6366103,20.8870096 44.826,20.879 C44.939,20.879 45.036,20.873 45.119,20.861 C45.202,20.849 45.297,20.828 45.404,20.799 L45.58,22.342 C45.1672875,22.4904925 44.7316032,22.5649685 44.293,22.562 C43.556,22.562 42.99,22.359 42.593,21.954 C42.195,21.55 41.996,20.909 41.996,20.031 L41.996,15.995 L40.841,15.995 L40.841,14.495 L41.996,14.495 L41.996,12.558 L44.124,12.558 Z M46.709,17.825 L54.272,17.825 L54.272,19.233 L46.709,19.233 L46.709,17.825 Z M63.986,18.883 L64.001,18.927 C64.021,20.063 63.674,20.953 62.962,21.597 C62.25,22.24 61.268,22.561 60.015,22.561 C58.738,22.561 57.707,22.151 56.922,21.329 C56.137,20.508 55.745,19.446 55.745,18.144 L55.745,16.031 C55.745,14.734 56.127,13.673 56.893,12.846 C57.658,12.02 58.663,11.606 59.906,11.606 C61.202,11.606 62.216,11.924 62.948,12.558 C63.678,13.191 64.035,14.083 64.015,15.234 L64.001,15.278 L61.924,15.278 C61.924,14.595 61.759,14.088 61.43,13.753 C61.101,13.419 60.593,13.253 59.906,13.253 C59.266,13.253 58.768,13.509 58.41,14.023 C58.052,14.538 57.873,15.203 57.873,16.016 L57.873,18.144 C57.873,18.964 58.062,19.631 58.439,20.148 C58.817,20.665 59.342,20.923 60.015,20.923 C60.654,20.923 61.13,20.756 61.445,20.423 C61.759,20.088 61.917,19.575 61.917,18.883 L63.986,18.883 Z M67.613,22.408 L65.478,22.408 L65.478,11 L67.613,11 L67.613,22.408 Z M69.039,18.378 C69.039,17.198 69.369,16.232 70.026,15.479 C70.685,14.726 71.596,14.349 72.761,14.349 C73.931,14.349 74.848,14.725 75.511,15.475 C76.174,16.226 76.505,17.194 76.505,18.378 L76.505,18.532 C76.505,19.722 76.175,20.691 75.515,21.439 C74.854,22.187 73.941,22.561 72.775,22.561 C71.605,22.561 70.691,22.187 70.03,21.439 C69.37,20.691 69.04,19.722 69.04,18.532 L69.04,18.378 L69.039,18.378 Z M71.167,18.532 C71.167,19.254 71.294,19.832 71.547,20.269 C71.801,20.705 72.21,20.923 72.776,20.923 C73.326,20.923 73.73,20.703 73.986,20.265 C74.242,19.826 74.37,19.249 74.37,18.532 L74.37,18.378 C74.37,17.676 74.24,17.104 73.983,16.66 C73.724,16.216 73.317,15.995 72.761,15.995 C72.211,15.995 71.807,16.218 71.551,16.664 C71.295,17.11 71.167,17.681 71.167,18.378 L71.167,18.532 Z M75.489,12.952 L75.489,13.121 L73.792,13.121 L72.769,12.148 L71.752,13.121 L70.092,13.121 L70.092,12.93 L72.154,11.174 L73.39,11.174 L75.489,12.951 L75.489,12.952 Z M80.381,12.558 L80.381,14.495 L81.719,14.495 L81.719,15.995 L80.381,15.995 L80.381,20.024 C80.381,20.331 80.446,20.55 80.575,20.682 C80.7094734,20.8156022 80.8936103,20.8870096 81.083,20.879 C81.195,20.879 81.293,20.873 81.376,20.861 C81.459,20.849 81.554,20.828 81.661,20.799 L81.836,22.342 C81.4232875,22.4904925 80.9876032,22.5649685 80.549,22.562 C79.813,22.562 79.246,22.359 78.849,21.954 C78.452,21.55 78.253,20.909 78.253,20.031 L78.253,15.995 L77.098,15.995 L77.098,14.495 L78.253,14.495 L78.253,12.558 L80.381,12.558 Z M87.884,21.238 C87.64,21.662 87.331,21.988 86.955,22.218 C86.58,22.447 86.144,22.561 85.646,22.561 C84.813,22.561 84.161,22.279 83.69,21.713 C83.22,21.148 82.985,20.27 82.985,19.08 L82.985,14.495 L85.113,14.495 L85.113,19.095 C85.113,19.787 85.206,20.261 85.394,20.517 C85.582,20.773 85.873,20.901 86.268,20.901 C86.609,20.901 86.902,20.847 87.145,20.737 C87.3844801,20.6309443 87.5915266,20.4632367 87.745,20.251 L87.745,14.495 L89.88,14.495 L89.88,22.408 L88.11,22.408 L87.884,21.238 Z M95.65,16.331 L94.868,16.309 C94.551,16.309 94.29,16.375 94.085,16.506 C93.88,16.638 93.725,16.823 93.617,17.062 L93.617,22.408 L91.489,22.408 L91.489,14.495 L93.471,14.495 L93.566,15.665 C93.751,15.251 93.991,14.928 94.286,14.697 C94.575767,14.4669762 94.9360657,14.3440507 95.306,14.349 C95.414,14.349 95.512,14.358 95.603,14.375 C95.693,14.392 95.784,14.413 95.877,14.437 L95.65,16.331 Z M100.052,22.561 C98.872,22.561 97.952,22.199 97.288,21.475 C96.625,20.751 96.294,19.819 96.294,18.678 L96.294,18.386 C96.294,17.201 96.615,16.231 97.259,15.476 C97.903,14.72 98.787,14.344 99.914,14.349 C100.976,14.349 101.792,14.675 102.36,15.325 C102.928,15.976 103.212,16.853 103.212,17.955 L103.212,19.059 L98.495,19.059 L98.473,19.102 C98.507,19.644 98.672,20.082 98.967,20.419 C99.261,20.755 99.699,20.923 100.279,20.923 C100.757,20.923 101.163,20.875 101.497,20.777 C101.857456,20.6680025 102.204351,20.5183749 102.531,20.331 L103.109,21.647 C102.792,21.906 102.363,22.123 101.822,22.298 C101.249496,22.4781778 100.652158,22.5669349 100.052,22.561 Z M99.914,15.995 C99.484,15.995 99.154,16.142 98.923,16.437 C98.691,16.732 98.551,17.123 98.503,17.611 L98.517,17.647 L101.12,17.647 L101.12,17.487 C101.12,17.023 101.025,16.659 100.835,16.393 C100.645,16.127 100.338,15.995 99.914,15.995 Z" id="Shape" fill="#020202" fill-rule="nonzero"></path>
            <path d="M253.177,173.331 L253.187,173.363 C253.202,174.133 252.951,174.756 252.437,175.231 C251.921,175.705 251.226,175.943 250.35,175.943 C249.46,175.943 248.739,175.643 248.185,175.042 C247.632,174.441 247.355,173.672 247.355,172.738 L247.355,171.282 C247.355,170.35 247.629,169.582 248.175,168.978 C248.721,168.374 249.435,168.072 250.313,168.072 C251.213,168.072 251.923,168.302 252.439,168.76 C252.955,169.219 253.207,169.848 253.193,170.646 L253.183,170.678 L251.948,170.678 C251.948,170.166 251.809,169.775 251.532,169.504 C251.256,169.232 250.849,169.096 250.313,169.096 C249.795,169.096 249.384,169.302 249.081,169.714 C248.778,170.125 248.627,170.644 248.627,171.272 L248.627,172.738 C248.627,173.372 248.781,173.894 249.089,174.306 C249.397,174.718 249.818,174.923 250.35,174.923 C250.872,174.923 251.269,174.787 251.54,174.513 C251.812,174.24 251.948,173.846 251.948,173.331 L253.178,173.331 L253.177,173.331 Z M255.647,175.832 L254.37,175.832 L254.37,167.636 L255.647,167.636 L255.647,175.832 Z M256.839,172.937 C256.839,172.089 257.071,171.395 257.535,170.854 C258,170.313 258.635,170.042 259.44,170.042 C260.256,170.042 260.896,170.312 261.36,170.854 C261.825,171.395 262.057,172.089 262.057,172.937 L262.057,173.047 C262.057,173.902 261.825,174.598 261.361,175.137 C260.896,175.674 260.26,175.943 259.451,175.943 C258.638,175.943 258,175.673 257.535,175.133 C257.071,174.594 256.839,173.899 256.839,173.048 L256.839,172.938 L256.839,172.937 Z M258.116,173.047 C258.116,173.604 258.225,174.057 258.442,174.403 C258.659,174.75 258.995,174.923 259.451,174.923 C259.896,174.923 260.229,174.749 260.451,174.401 C260.674,174.052 260.785,173.601 260.785,173.048 L260.785,172.938 C260.785,172.394 260.675,171.947 260.452,171.595 C260.229,171.243 259.892,171.067 259.44,171.067 C258.995,171.067 258.663,171.243 258.444,171.595 C258.226,171.947 258.116,172.395 258.116,172.937 L258.116,173.047 Z M261.221,169.007 L261.221,169.133 L260.197,169.133 L259.445,168.403 L258.699,169.133 L257.685,169.133 L257.685,168.996 L259.072,167.736 L259.824,167.736 L261.221,169.007 Z M264.805,168.765 L264.805,170.147 L265.825,170.147 L265.825,171.093 L264.805,171.093 L264.805,174.235 C264.805,174.47 264.855,174.637 264.957,174.737 C265.059,174.837 265.194,174.887 265.362,174.887 C265.496393,174.887634 265.62982,174.864267 265.756,174.818 L265.892,175.753 C265.784,175.813 265.655,175.859 265.506,175.893 C265.357,175.926 265.202,175.943 265.041,175.943 C264.571,175.943 264.203,175.805 263.935,175.53 C263.667,175.255 263.533,174.823 263.533,174.235 L263.533,171.093 L262.666,171.093 L262.666,170.147 L263.533,170.147 L263.533,168.765 L264.805,168.765 Z M270.401,174.992 C270.225,175.296 270.001,175.532 269.725,175.696 C269.436056,175.864319 269.106326,175.949779 268.772,175.943 C268.162,175.943 267.686,175.743 267.342,175.341 C266.999,174.94 266.828,174.317 266.828,173.473 L266.828,170.147 L268.099,170.147 L268.099,173.484 C268.099,174.027 268.179,174.399 268.336,174.6 C268.493,174.802 268.739,174.902 269.071,174.902 C269.38,174.902 269.638,174.847 269.846,174.737 C270.055,174.627 270.218,174.467 270.338,174.256 L270.338,170.147 L271.614,170.147 L271.614,175.832 L270.516,175.832 L270.401,174.992 Z M275.781,171.298 L275.235,171.277 C274.985,171.277 274.778,171.329 274.612,171.434 C274.442765,171.54248 274.308669,171.697767 274.226,171.881 L274.226,175.832 L272.949,175.832 L272.949,170.147 L274.115,170.147 L274.199,170.972 C274.343,170.682 274.528,170.454 274.754,170.289 C274.980311,170.124212 275.254086,170.037516 275.534,170.042 C275.611,170.042 275.683,170.048 275.749,170.06 C275.816,170.073 275.877,170.088 275.933,170.105 L275.781,171.298 Z M279.039,175.943 C278.209,175.943 277.559,175.681 277.092,175.157 C276.624,174.633 276.391,173.955 276.391,173.121 L276.391,172.911 C276.391,172.077 276.624,171.39 277.092,170.849 C277.56,170.307 278.163,170.039 278.902,170.042 C279.666,170.042 280.244,170.278 280.636,170.749 C281.028,171.219 281.224,171.849 281.224,172.638 L281.224,173.326 L277.709,173.326 L277.699,173.352 C277.713,173.818 277.835,174.196 278.067,174.487 C278.297,174.777 278.647,174.923 279.112,174.923 C279.459,174.923 279.759,174.881 280.013,174.797 C280.267,174.713 280.503,174.592 280.72,174.435 L281.135,175.27 C280.918,175.46 280.631,175.619 280.273,175.748 C279.916,175.878 279.505,175.943 279.039,175.943 Z M278.902,171.067 C278.594043,171.055544 278.298441,171.188732 278.103,171.427 C277.903,171.667 277.779,171.979 277.73,172.364 L277.74,172.391 L279.963,172.391 L279.963,172.291 C279.963,171.927 279.878,171.631 279.709,171.406 C279.539,171.18 279.269,171.066 278.902,171.066 L278.902,171.067 Z M123.022,52.328 L121.525,52.328 L121.525,48.503 L117.515,48.503 L117.515,52.328 L116.019,52.328 L116.019,43.36 L117.515,43.36 L117.515,47.302 L121.525,47.302 L121.525,43.36 L123.022,43.36 L123.022,52.328 Z M128.769,52.328 C128.71709,52.1658051 128.672709,52.0012959 128.636,51.835 C128.601663,51.6767989 128.578274,51.5164186 128.566,51.355 C128.364,51.667 128.096,51.929 127.758,52.14 C127.420524,52.3515983 127.029299,52.4616413 126.631,52.457 C125.937,52.457 125.405,52.279 125.033,51.921 C124.661,51.564 124.476,51.073 124.476,50.449 C124.476,49.805 124.73,49.303 125.239,48.943 C125.749,48.584 126.465,48.404 127.389,48.404 L128.553,48.404 L128.553,47.819 C128.553,47.47 128.451,47.197 128.248,47 C128.045,46.803 127.75,46.704 127.364,46.704 C127.024,46.704 126.752,46.785 126.551,46.948 C126.355474,47.0981436 126.243289,47.3325436 126.249,47.579 L124.809,47.585 L124.802,47.548 C124.773,47.023 125.008,46.557 125.507,46.15 C126.007,45.744 126.656,45.54 127.457,45.54 C128.233,45.54 128.859,45.737 129.335,46.132 C129.812,46.526 130.05,47.092 130.05,47.832 L130.05,50.794 C130.05,51.069 130.068,51.334 130.105,51.586 C130.142,51.838 130.202,52.086 130.284,52.328 L128.769,52.328 Z M126.939,51.256 C127.296788,51.2605261 127.648363,51.1623072 127.952,50.973 C128.254,50.783 128.454,50.568 128.553,50.326 L128.553,49.341 L127.364,49.341 C126.929,49.341 126.588,49.448 126.342,49.664 C126.095,49.88 125.972,50.134 125.972,50.424 C125.972,50.679 126.055,50.881 126.222,51.031 C126.388,51.181 126.627,51.256 126.939,51.256 Z M135.772,51.342 C135.566,51.7 135.302,51.975 134.98,52.168 C134.658,52.361 134.285,52.458 133.862,52.458 C133.148,52.458 132.589,52.222 132.187,51.752 C131.785,51.282 131.583,50.552 131.583,49.562 L131.583,45.663 L133.074,45.663 L133.074,49.575 C133.074,50.211 133.166,50.647 133.351,50.883 C133.536,51.12 133.823,51.238 134.213,51.238 C134.575,51.238 134.878,51.173 135.122,51.044 C135.366,50.914 135.558,50.726 135.698,50.48 L135.698,45.663 L137.195,45.663 L137.195,52.328 L135.907,52.328 L135.772,51.342 Z M140.675,44.044 L140.675,45.664 L141.87,45.664 L141.87,46.772 L140.675,46.772 L140.675,50.455 C140.675,50.731 140.735,50.927 140.853,51.044 C140.973,51.161 141.13,51.219 141.327,51.219 C141.484535,51.2200527 141.640991,51.1929607 141.789,51.139 L141.949,52.235 C141.806755,52.3105606 141.654602,52.3657666 141.497,52.399 C141.318018,52.4383127 141.135247,52.4577636 140.952,52.457 C140.402,52.457 139.969,52.296 139.655,51.974 C139.341,51.651 139.184,51.145 139.184,50.455 L139.184,46.772 L138.168,46.772 L138.168,45.663 L139.184,45.663 L139.184,44.043 L140.674,44.043 L140.675,44.044 Z" id="Shape" fill="#2A3052" fill-rule="nonzero"></path>
        </g>
    </g>
</svg>