<svg width="300" height="199" viewBox="0 0 300 199" xmlns="http://www.w3.org/2000/svg"><title>french high low</title><g fill="none" fill-rule="evenodd"><path fill="#F1F2F2" fill-rule="nonzero" d="M0 0h300v199H0z"/><path d="M39.125 55.375V74.75H75.25V55.375H39.125zm0-1H75.25V34h1v20.375h36.125V34h1v20.375H149.5V34h1v20.375h36.125V34h1v20.375h36.125V34h1v20.375h36.125V34h1v20.375H299.5v1h-37.625V74.75H299.5v1h-37.625v19.375H299.5v1h-37.625V115.5H299.5v1h-37.625v19.375H299.5v1h-37.625v19.375H299.5v1h-37.625v19.375H299.5v1h-37.625V199h-1v-21.375H224.75V199h-1v-21.375h-36.125V199h-1v-21.375H150.5V199h-1v-21.375h-36.125V199h-1v-21.375H76.25V199h-1v-21.375H39.125V199h-1v-21.375H1.5v-1h36.625V157.25H1.5v-1h36.625v-19.375H1.5v-1h36.625V116.5H1.5v-1h36.625V96.125H1.5v-1h36.625V75.75H1.5v-1h36.625V55.375H1.5v-1h36.625V34h1v20.375zm221.75 1H224.75V74.75h36.125V55.375zm-37.125 0h-36.125V74.75h36.125V55.375zm-37.125 0H150.5V74.75h36.125V55.375zm-37.125 0h-36.125V74.75H149.5V55.375zm-37.125 0H76.25V74.75h36.125V55.375zM39.125 75.75v19.375H75.25V75.75H39.125zm221.75 0H224.75v19.375h36.125V75.75zm-37.125 0h-36.125v19.375h36.125V75.75zm-37.125 0H150.5v19.375h36.125V75.75zm-37.125 0h-36.125v19.375H149.5V75.75zm-37.125 0H76.25v19.375h36.125V75.75zm-73.25 20.375V115.5H75.25V96.125H39.125zm221.75 0H224.75V115.5h36.125V96.125zm-37.125 0h-36.125V115.5h36.125V96.125zm-37.125 0H150.5V115.5h36.125V96.125zm-37.125 0h-36.125V115.5H149.5V96.125zm-37.125 0H76.25V115.5h36.125V96.125zM39.125 116.5v19.375H75.25V116.5H39.125zm221.75 0H224.75v19.375h36.125V116.5zm-37.125 0h-36.125v19.375h36.125V116.5zm-37.125 0H150.5v19.375h36.125V116.5zm-37.125 0h-36.125v19.375H149.5V116.5zm-37.125 0H76.25v19.375h36.125V116.5zm-73.25 20.375v19.375H75.25v-19.375H39.125zm221.75 0H224.75v19.375h36.125v-19.375zm-37.125 0h-36.125v19.375h36.125v-19.375zm-37.125 0H150.5v19.375h36.125v-19.375zm-37.125 0h-36.125v19.375H149.5v-19.375zm-37.125 0H76.25v19.375h36.125v-19.375zm-73.25 20.375v19.375H75.25V157.25H39.125zm221.75 0H224.75v19.375h36.125V157.25zm-37.125 0h-36.125v19.375h36.125V157.25zm-37.125 0H150.5v19.375h36.125V157.25zm-37.125 0h-36.125v19.375H149.5V157.25zm-37.125 0H76.25v19.375h36.125V157.25z" fill="#DFDEDE" fill-rule="nonzero"/><path stroke="#C2C2C2" stroke-width="2" d="M1 1h298v197H1z"/><path fill="#C2C2C2" fill-rule="nonzero" d="M0 33h300v2H0z"/><g transform="translate(4 34.885)"><path d="M.9 30.163h290.625" stroke="#15212D" stroke-width="1.133" fill="#D8D8D8" fill-rule="nonzero" stroke-dasharray="7.5"/><path d="M237.863.725V161" stroke="#2A3052" stroke-width="1.211" stroke-linejoin="round"/><path d="M.9 123.5h290.625" stroke="#15212D" stroke-width="1.133" fill="#D8D8D8" fill-rule="nonzero" stroke-dasharray="7.5"/><path stroke="#2A3052" stroke-width="3.633" stroke-linecap="round" stroke-linejoin="round" d="M17.25 82.063L53.115 66l26.494 21.96 43.594-57.247 31.63 93.487 18.215-49.436 27.446-22.991 37.05 24.963"/><ellipse cx="8.137" cy="8.475" rx="8.137" ry="8.475" opacity=".6" transform="translate(147 115.25)" fill="#FFF" fill-rule="nonzero"/><ellipse stroke="#E88024" stroke-width="2.422" cx="155.137" cy="123.725" rx="8.137" ry="8.475"/><ellipse cx="9.012" cy="8.475" rx="8.137" ry="8.475" opacity=".6" transform="translate(114.25 22.25)" fill="#FFF" fill-rule="nonzero"/><ellipse stroke="#E88024" stroke-width="2.422" cx="123.263" cy="30.725" rx="8.137" ry="8.475"/></g><g fill="#2A3052" fill-rule="nonzero"><path d="M36.221 125.022v1.494h1.165v.836h-1.165v3.733c0 .298.06.478.18.597.119.12.268.18.477.18.06 0 .12 0 .21-.03.089 0 .149-.03.208-.06l.15.776c-.09.06-.21.12-.359.18-.149.03-.328.06-.477.06-.4.013-.79-.138-1.076-.419-.268-.269-.388-.717-.388-1.284v-3.733h-.955v-.836h.955v-1.494h1.075zM20.674 130.082h-4.15c.107 1.264.627 1.896 1.558 1.896 1.398 0 1.592-1.185 1.592-1.11l.918-.004c-.447 1.283-1.284 1.924-2.51 1.924-1.838 0-2.483-1.3-2.56-2.706-.078-1.404.39-3.29 2.576-3.29 1.792.034 2.651 1.13 2.576 3.29zm-1.04-.747c-.105-1.116-.625-1.674-1.56-1.674-.933 0-1.453.558-1.557 1.674h3.116zM31.886 126.633h1.063v6.016h-1.063v-.893c-.337.436-.893 1.137-2.01 1.019-1.115-.118-1.806-.994-1.81-1.959-.006-.965.004-4.51 0-4.183h1.053v2.28c0 2.665.587 2.96 1.388 2.96.802 0 1.195-.677 1.38-.903-.01-1.266-.01-2.712 0-4.337zM21.725 123.942h1.055v3.504c.305-.618.878-.927 1.718-.927 1.26 0 1.658.761 1.812.98.154.218.461.844.546 1.847.073.869-.135 2.22-.737 2.75-.794.696-1.304.692-1.73.692-.426 0-1.226-.205-1.672-.967l-.154.816h-.838v-8.695zm1.102 6.987c.316.635.74.953 1.271.953.797 0 1.085-.226 1.346-.624.3-.457.364-1.346.302-2.03a3.502 3.502 0 0 0-.302-1.096c-.073-.145-.312-.783-1.346-.737-.858.009-1.245.767-1.27.913v2.621zM19.99 123.942l-1.535 1.505h-.82l1.038-1.505zM8.368 124.776h3.006c1.193.18 3.083.648 3.083 4.006 0 3.357-1.932 3.856-3.044 4.006H8.368v-8.012zm1.065.845v6.357h1.522c.292 0 1.99-.002 2.274-1.958.285-1.956-.02-2.725-.258-3.22-.238-.493-.863-1.179-2.016-1.179H9.433z"/></g><path d="M122.985 50.375h-1.497V46.55h-4.01v3.825h-1.497v-8.968h1.497v3.942h4.01v-3.942h1.497v8.968zm5.746 0a5.524 5.524 0 0 1-.132-.493 3.522 3.522 0 0 1-.071-.48c-.201.312-.47.574-.807.785a2.076 2.076 0 0 1-1.127.318c-.694 0-1.227-.179-1.598-.536-.372-.358-.558-.848-.558-1.472 0-.645.255-1.147.764-1.506.51-.36 1.226-.54 2.15-.54h1.164v-.584c0-.35-.102-.622-.305-.82-.203-.197-.498-.295-.884-.295-.34 0-.612.08-.813.243a.773.773 0 0 0-.302.631l-1.441.007-.006-.037c-.03-.526.206-.992.705-1.399.499-.406 1.149-.61 1.95-.61.775 0 1.402.198 1.878.592.476.394.714.96.714 1.7v2.963c0 .275.019.539.056.791.037.253.096.5.178.742h-1.515zm-1.83-1.071a1.87 1.87 0 0 0 1.014-.284c.302-.189.502-.404.6-.647v-.985h-1.188c-.435 0-.776.108-1.023.323-.246.216-.37.47-.37.761 0 .255.084.457.25.607.167.15.406.225.718.225zm8.833.086c-.205.357-.469.632-.791.825-.322.193-.695.29-1.118.29-.714 0-1.273-.235-1.675-.706-.403-.47-.604-1.2-.604-2.19v-3.898h1.49v3.911c0 .636.093 1.073.278 1.309.185.236.472.354.862.354.361 0 .664-.065.909-.194.244-.13.436-.317.576-.564v-4.816h1.496v6.664h-1.287l-.136-.985zm4.903-7.3v1.62h1.195v1.11h-1.195v3.683c0 .275.06.471.179.588.119.117.277.176.474.176a1.323 1.323 0 0 0 .462-.08l.16 1.096a1.72 1.72 0 0 1-.452.163 2.492 2.492 0 0 1-.546.059c-.55 0-.982-.162-1.296-.484-.314-.322-.471-.828-.471-1.518V44.82h-1.017v-1.11h1.017v-1.62h1.49zM149.237 180.883v-8.316h2.724c.918 0 1.636.19 2.153.568.518.379.777.945.777 1.7 0 .365-.104.694-.311.987a1.932 1.932 0 0 1-.865.669c.533.087.943.318 1.23.69.288.374.432.812.432 1.314 0 .781-.255 1.374-.766 1.78-.51.405-1.214.608-2.113.608h-3.261zm1.388-3.781v2.673h1.873c.48 0 .85-.11 1.108-.329.259-.219.388-.536.388-.95 0-.42-.127-.753-.382-1-.255-.248-.613-.379-1.074-.394h-1.913zm0-1.034h1.485c.43 0 .77-.102 1.02-.306.249-.203.373-.492.373-.865 0-.411-.131-.717-.394-.917-.263-.2-.645-.3-1.148-.3h-1.336v2.388zm9.64 4.815a5.122 5.122 0 0 1-.122-.457 3.266 3.266 0 0 1-.066-.446 2.38 2.38 0 0 1-.748.729c-.312.196-.66.294-1.045.294-.644 0-1.138-.166-1.482-.497-.345-.331-.517-.786-.517-1.365 0-.598.236-1.063.708-1.397.472-.333 1.137-.5 1.993-.5h1.08v-.542c0-.324-.094-.577-.283-.76-.188-.182-.461-.274-.82-.274-.315 0-.567.075-.753.226a.717.717 0 0 0-.28.585l-1.337.006-.005-.034c-.027-.488.19-.92.654-1.297.462-.377 1.065-.565 1.807-.565.72 0 1.3.182 1.742.548.442.366.663.891.663 1.576v2.748c0 .255.017.5.051.734.035.234.09.463.166.688h-1.405zm-1.695-.994c.346 0 .66-.087.94-.263.279-.175.465-.375.556-.6v-.913h-1.102c-.404 0-.72.1-.948.3-.229.2-.343.435-.343.705a.72.72 0 0 0 .231.563c.154.139.376.208.666.208zm7.807-.697a.64.64 0 0 0-.27-.528c-.182-.139-.524-.264-1.026-.374-.727-.149-1.283-.368-1.668-.657a1.384 1.384 0 0 1-.577-1.165c0-.518.22-.96.657-1.328.438-.368 1.015-.551 1.73-.551.74 0 1.334.19 1.786.568.45.379.667.835.648 1.368l-.012.034h-1.33a.866.866 0 0 0-.297-.654c-.198-.184-.463-.277-.794-.277-.335 0-.59.076-.766.229a.714.714 0 0 0-.262.56c0 .209.081.376.245.502.164.126.5.238 1.011.337.758.152 1.329.376 1.714.671.384.295.576.69.576 1.185 0 .556-.229 1.01-.688 1.363-.459.352-1.063.528-1.813.528-.804 0-1.438-.206-1.902-.617-.465-.411-.686-.883-.663-1.416l.012-.035h1.29c.016.358.145.619.389.783.244.163.54.245.89.245.355 0 .63-.07.826-.211a.657.657 0 0 0 .294-.56z" fill="#2A3052" fill-rule="nonzero"/><path d="M26.801 22.793h-1.94v-4.02h-3.94v4.02h-1.939V13.12h1.94v4.16h3.94v-4.16h1.94v9.673zm5.873 0a4.08 4.08 0 0 1-.183-.518 3.604 3.604 0 0 1-.11-.558c-.199.35-.462.64-.79.87-.328.23-.717.346-1.17.346-.752 0-1.332-.194-1.74-.582-.407-.387-.61-.915-.61-1.584 0-.704.27-1.25.813-1.638.542-.387 1.334-.581 2.375-.581h1.09v-.571c0-.346-.091-.614-.273-.804-.182-.19-.452-.286-.81-.286-.315 0-.557.077-.728.23-.17.152-.256.361-.256.627h-1.866l-.014-.04c-.03-.606.234-1.13.794-1.57.56-.441 1.292-.662 2.196-.662.863 0 1.562.217 2.096.651.533.434.8 1.057.8 1.867v2.97c0 .336.026.653.077.95.05.296.131.59.242.883h-1.933zM30.9 21.498c.337 0 .638-.084.904-.253.265-.168.447-.363.544-.584v-1.017h-1.09c-.411 0-.722.102-.932.306-.21.204-.316.454-.316.75 0 .244.079.438.236.582.157.144.375.216.654.216zm9.248.232a2.44 2.44 0 0 1-.844.89 2.237 2.237 0 0 1-1.19.313c-.757 0-1.349-.257-1.776-.771-.428-.514-.641-1.31-.641-2.392v-4.165h1.933v4.179c0 .629.085 1.06.256 1.292.17.232.435.349.793.349.31 0 .576-.05.798-.15.221-.1.403-.247.544-.442v-5.228h1.94v7.188h-1.607l-.206-1.063zm5.6-7.885v1.76h1.216v1.362h-1.216v3.66c0 .28.059.479.176.598.117.12.271.18.462.18.102 0 .19-.006.265-.017.076-.011.162-.03.26-.056l.159 1.401a3.386 3.386 0 0 1-1.17.2c-.668 0-1.183-.184-1.544-.552-.36-.367-.541-.95-.541-1.747v-3.667h-1.05v-1.362h1.05v-1.76h1.933zm6.55 5.56h-3.913V17.91h3.913v1.495zm1.933 3.388V13.12h3.17c1.137 0 2.025.223 2.663.668.638.445.957 1.106.957 1.983 0 .443-.115.84-.346 1.19-.23.35-.567.613-1.01.79.603.11 1.057.372 1.362.784.306.412.459.892.459 1.441 0 .926-.306 1.627-.917 2.103-.611.476-1.477.714-2.597.714h-3.74zm1.94-4.278v2.79h1.8c.514 0 .906-.112 1.176-.335.27-.224.406-.555.406-.994 0-.47-.133-.83-.399-1.083-.266-.252-.666-.378-1.202-.378h-1.78zm0-1.342h1.296c.518 0 .916-.106 1.195-.319.28-.213.419-.523.419-.93 0-.447-.14-.777-.422-.99-.281-.212-.7-.319-1.259-.319h-1.229v2.558zm10.822 5.62a4.08 4.08 0 0 1-.183-.518 3.604 3.604 0 0 1-.11-.558c-.198.35-.462.64-.79.87-.327.23-.717.346-1.169.346-.753 0-1.333-.194-1.74-.582-.408-.387-.612-.915-.612-1.584 0-.704.272-1.25.814-1.638.543-.387 1.334-.581 2.375-.581h1.09v-.571c0-.346-.091-.614-.273-.804-.181-.19-.452-.286-.81-.286-.315 0-.557.077-.728.23-.17.152-.255.361-.255.627h-1.867l-.013-.04c-.031-.606.233-1.13.793-1.57.56-.441 1.292-.662 2.196-.662.864 0 1.562.217 2.096.651.534.434.8 1.057.8 1.867v2.97c0 .336.026.653.077.95.05.296.132.59.242.883h-1.933zm-1.774-1.295c.337 0 .638-.084.904-.253.266-.168.447-.363.545-.584v-1.017h-1.09c-.412 0-.723.102-.933.306-.21.204-.316.454-.316.75 0 .244.079.438.236.582.157.144.375.216.654.216zm8.73-.698c0-.212-.103-.395-.31-.548-.205-.153-.587-.287-1.145-.402-.842-.168-1.48-.423-1.917-.764-.436-.34-.654-.804-.654-1.388 0-.616.261-1.14.784-1.575.522-.434 1.218-.65 2.086-.65.908 0 1.635.216 2.182.65.547.434.81.975.787 1.621l-.013.04h-1.873a.94.94 0 0 0-.28-.704c-.185-.182-.453-.272-.803-.272-.31 0-.556.077-.738.232a.723.723 0 0 0-.272.571c0 .222.094.402.282.542.189.14.57.264 1.146.375.882.177 1.538.437 1.97.78.432.344.648.817.648 1.419 0 .647-.277 1.176-.83 1.588-.554.412-1.285.618-2.193.618-.957 0-1.713-.243-2.269-.728-.555-.485-.82-1.037-.794-1.657l.014-.04h1.774c.013.385.139.664.378.837.24.173.552.259.937.259.359 0 .632-.072.82-.216a.7.7 0 0 0 .283-.588z" fill="#020202" fill-rule="nonzero"/><g fill="#2A3052" fill-rule="nonzero"><path d="M258.055 116.395l.093.967a2.108 2.108 0 0 1 1.872-1.06c.686 0 1.216.186 1.59.623.375.405.562 1.03.562 1.871v4.055h-1.154v-4.023c0-.562-.125-.967-.343-1.217-.219-.25-.562-.343-.998-.343-.344 0-.624.094-.874.25-.25.155-.468.374-.624.655v4.678h-1.154v-6.425l1.03-.031zM252.881 114.731v.831h-3.985v2.822h3.395v.855h-3.395v3.612h-1.17v-8.12zM254.21 117.427h1.122v5.44h-1.122zM254.134 114.861v1.169h1.228v-1.169z"/></g></g></svg>