<?xml version="1.0" encoding="UTF-8"?>
<svg width="299px" height="197px" viewBox="0 0 299 197" version="1.1" xmlns="http://www.w3.org/2000/svg" xmlns:xlink="http://www.w3.org/1999/xlink">
    <!-- Generator: Sketch 52.6 (67491) - http://www.bohemiancoding.com/sketch -->
    <title>low tick</title>
    <desc>Created with Sketch.</desc>
    <g id="Page-1" stroke="none" stroke-width="1" fill="none" fill-rule="evenodd">
        <g id="low-tick">
            <g id="Group">
                <polygon id="Path" fill="#F1F2F2" points="0.00101428135 0 299 0 299 197 0 197"></polygon>
                <path d="M1.98671096,1.9798995 L1.98671096,195.020101 L297.013289,195.020101 L297.013289,1.9798995 L1.98671096,1.9798995 Z M299,0 L299,197 L0,197 L0,0 L299,0 Z" id="Path" fill="#C2C2C2" fill-rule="nonzero"></path>
                <path d="M2.94050338,54.9484859 L2.94050338,53.7251569 L296.511027,53.7251569 L296.511027,54.9484859 L2.94050338,54.9484859 Z M2.94050338,95.8450829 L2.94050338,94.6217539 L296.511027,94.6217539 L296.511027,95.8450829 L2.94050338,95.8450829 Z M2.94050338,136.738664 L2.94050338,135.515336 L296.511027,135.515336 L296.511027,136.738664 L2.94050338,136.738664 Z M2.94050338,177.596062 L2.94050338,176.372734 L296.511027,176.372734 L296.511027,177.596062 L2.94050338,177.596062 Z M37.7845821,33.9081224 L39.0079111,33.9081224 L39.0079111,195.000852 L37.7845821,195.000852 L37.7845821,33.9081224 Z M74.9464436,33.9081224 L76.1697726,33.9081224 L76.1697726,195.000852 L74.9464436,195.000852 L74.9464436,33.9081224 Z M112.06891,33.9081224 L113.292238,33.9081224 L113.292238,195.000852 L112.06891,195.000852 L112.06891,33.9081224 Z M149.228752,33.9081224 L150.45208,33.9081224 L150.45208,195.000852 L149.228752,195.000852 L149.228752,33.9081224 Z M186.351218,33.9081224 L187.574546,33.9081224 L187.574546,195.000852 L186.351218,195.000852 L186.351218,33.9081224 Z M223.473684,33.9081224 L224.697012,33.9081224 L224.697012,195.000852 L223.473684,195.000852 L223.473684,33.9081224 Z M2.94050338,116.272777 L2.94050338,115.049448 L296.511027,115.049448 L296.511027,116.272777 L2.94050338,116.272777 Z" id="Shape" fill="#DFDEDE" fill-rule="nonzero"></path>
                <polygon id="Path" fill="#15212D" fill-rule="nonzero" points="2.94050338 161.639869 2.94050338 160.495335 296.511027 160.495335 296.511027 161.639869"></polygon>
                <polygon id="Path" fill="#C2C2C2" fill-rule="nonzero" points="0.819219595 30.3712881 0.819219595 27.9246302 298.632311 27.9246302 298.632311 30.3712881"></polygon>
                <path d="M136.207603,107.216837 L91.0267149,142.618028 C90.4268878,143.088018 89.5990087,143.138382 88.9466331,142.744567 L38.4469473,112.259823 C37.5793355,111.736078 37.3005758,110.608161 37.8243202,109.740549 C38.3480645,108.872938 39.4759815,108.594178 40.3435933,109.117922 L89.759593,138.948487 L135.236484,103.315365 C135.972308,102.738814 137.023939,102.807569 137.678432,103.475017 L185.584163,152.328981 L245.172535,67.3437236 C245.754351,66.5139351 246.898682,66.3129133 247.72847,66.8947289 C248.558259,67.4765445 248.759281,68.6208757 248.177465,69.4506642 L187.321874,156.243235 C186.662965,157.182974 185.312791,157.294001 184.50922,156.474524 L136.207603,107.216837 Z" id="Path" fill="#2A3052" fill-rule="nonzero"></path>
                <ellipse id="Oval" fill="#FFFFFF" opacity="0.6" cx="186.255787" cy="155.514413" rx="8.21946959" ry="8.5182398"></ellipse>
                <path d="M186.255787,165.255982 C181.030707,165.255982 176.812988,160.884953 176.812988,155.514413 C176.812988,150.143873 181.030707,145.772844 186.255787,145.772844 C191.480867,145.772844 195.698586,150.143873 195.698586,155.514413 C195.698586,160.884953 191.480867,165.255982 186.255787,165.255982 Z M186.255787,162.809324 C190.109683,162.809324 193.251928,159.552861 193.251928,155.514413 C193.251928,151.475965 190.109683,148.219502 186.255787,148.219502 C182.401891,148.219502 179.259646,151.475965 179.259646,155.514413 C179.259646,159.552861 182.401891,162.809324 186.255787,162.809324 Z" id="Oval" fill="#E88024" fill-rule="nonzero"></path>
            </g>
            <path d="M26.309,12.19 L23.086,12.19 L23.086,21.426 L21.306,21.426 L21.306,12.19 L18.084,12.19 L18.084,10.762 L26.309,10.762 L26.309,12.19 Z M29.371,21.426 L27.591,21.426 L27.591,13.501 L29.371,13.501 L29.371,21.426 Z M29.371,11.56 L27.591,11.56 L27.591,10 L29.371,10 L29.371,11.56 Z M34.637,20.159 C35.071,20.159 35.437,20.03 35.735,19.774 C36.033,19.518 36.182,19.197 36.182,18.811 L37.794,18.811 L37.808,18.855 C37.833,19.597 37.531,20.237 36.904,20.774 C36.276,21.311 35.521,21.58 34.637,21.58 C33.47,21.58 32.575,21.204 31.952,20.452 C31.33,19.7 31.019,18.748 31.019,17.595 L31.019,17.339 C31.019,16.191 31.329,15.24 31.952,14.486 C32.575,13.732 33.47,13.354 34.637,13.354 C35.589,13.354 36.362,13.632 36.955,14.186 C37.548,14.74 37.835,15.444 37.815,16.299 L37.801,16.343 L36.182,16.343 C36.182,15.908 36.039,15.54 35.754,15.237 C35.468,14.934 35.096,14.783 34.637,14.783 C33.967,14.783 33.494,15.026 33.216,15.511 C32.938,15.997 32.798,16.606 32.798,17.339 L32.798,17.595 C32.798,18.342 32.938,18.956 33.216,19.437 C33.494,19.918 33.968,20.159 34.636,20.159 L34.637,20.159 Z M41.815,17.961 L41.016,17.961 L41.016,21.426 L39.244,21.426 L39.244,10 L41.016,10 L41.016,16.533 L41.756,16.533 L43.756,13.501 L45.85,13.501 L43.235,17.104 L46.238,21.426 L44.173,21.426 L41.815,17.961 Z M51.05,21.426 L51.05,10.762 L54.595,10.762 C55.777,10.762 56.7,11.005 57.364,11.49 C58.028,11.976 58.36,12.703 58.36,13.67 C58.36,14.153 58.22,14.585 57.942,14.966 C57.664,15.346 57.278,15.63 56.785,15.816 C57.42,15.957 57.908,16.262 58.25,16.731 C58.592,17.2 58.763,17.744 58.763,18.364 C58.763,19.365 58.436,20.126 57.781,20.646 C57.127,21.166 56.224,21.426 55.071,21.426 L51.051,21.426 L51.05,21.426 Z M52.83,16.577 L52.83,20.005 L55.071,20.005 C55.687,20.005 56.161,19.865 56.492,19.584 C56.824,19.303 56.99,18.896 56.99,18.364 C56.99,17.798 56.851,17.358 56.573,17.046 C56.294,16.733 55.86,16.577 55.269,16.577 L52.83,16.577 Z M52.83,15.251 L54.793,15.251 C55.345,15.251 55.781,15.121 56.1,14.86 C56.42,14.598 56.58,14.228 56.58,13.75 C56.58,13.223 56.412,12.83 56.075,12.574 C55.738,12.318 55.245,12.19 54.595,12.19 L52.83,12.19 L52.83,15.251 Z M65.2,21.426 C65.1386686,21.2331892 65.0862794,21.0376473 65.043,20.84 C65.002,20.65 64.973,20.459 64.959,20.269 C64.708823,20.6456277 64.3803542,20.9638639 63.996,21.202 C63.5961469,21.4543777 63.1318054,21.5856575 62.659,21.58 C61.834,21.58 61.201,21.367 60.759,20.942 C60.317,20.518 60.096,19.934 60.096,19.192 C60.096,18.425 60.398,17.828 61.004,17.402 C61.609,16.974 62.461,16.76 63.56,16.76 L64.944,16.76 L64.944,16.064 C64.944,15.649 64.822,15.324 64.578,15.09 C64.334,14.856 63.985,14.739 63.531,14.739 C63.126,14.739 62.803,14.836 62.564,15.032 C62.3318733,15.2124543 62.1987509,15.4920484 62.205,15.786 L60.492,15.786 L60.485,15.742 C60.451,15.117 60.73,14.563 61.324,14.08 C61.917,13.596 62.69,13.354 63.642,13.354 C64.565,13.354 65.309,13.589 65.876,14.058 C66.442,14.526 66.726,15.2 66.726,16.079 L66.726,19.602 C66.726,19.929 66.747,20.242 66.791,20.543 C66.835,20.843 66.906,21.138 67.004,21.426 L65.202,21.426 L65.2,21.426 Z M63.018,20.151 C63.468,20.151 63.871,20.039 64.23,19.814 C64.59,19.59 64.827,19.334 64.944,19.045 L64.944,17.874 L63.532,17.874 C63.014,17.874 62.609,18.002 62.316,18.258 C62.023,18.514 61.876,18.816 61.876,19.163 C61.876,19.465 61.976,19.706 62.173,19.884 C62.371,20.062 62.653,20.151 63.019,20.151 L63.018,20.151 Z M73.045,19.272 C73.045,18.999 72.928,18.772 72.693,18.592 C72.459,18.411 72.022,18.252 71.383,18.115 C70.435,17.915 69.719,17.631 69.233,17.262 C68.747,16.893 68.504,16.392 68.504,15.757 C68.504,15.093 68.784,14.527 69.346,14.057 C69.908,13.589 70.648,13.354 71.566,13.354 C72.532,13.354 73.3,13.592 73.869,14.069 C74.438,14.545 74.71,15.134 74.686,15.837 L74.671,15.881 L72.964,15.881 C72.964,15.554 72.84,15.273 72.591,15.039 C72.341,14.805 72.001,14.687 71.565,14.687 C71.135,14.687 70.809,14.784 70.584,14.977 C70.3693996,15.148683 70.2452299,15.4091814 70.247,15.684 C70.247,15.962 70.353,16.183 70.566,16.346 C70.778,16.51 71.209,16.656 71.858,16.782 C72.855,16.987 73.593,17.277 74.074,17.65 C74.555,18.024 74.795,18.533 74.795,19.177 C74.795,19.89 74.501,20.469 73.913,20.913 C73.325,21.357 72.549,21.58 71.587,21.58 C70.557,21.58 69.744,21.316 69.148,20.789 C68.553,20.261 68.27,19.656 68.298,18.972 L68.314,18.928 L69.969,18.928 C69.989,19.388 70.154,19.722 70.467,19.932 C70.779,20.142 71.16,20.247 71.609,20.247 C72.069,20.247 72.422,20.159 72.671,19.983 C72.9098323,19.8267274 73.051204,19.558348 73.045,19.273 L73.045,19.272 Z" id="Shape" fill="#000000" fill-rule="nonzero"></path>
            <path d="M127.881,176.693 L125.303,176.693 L125.303,184.082 L123.879,184.082 L123.879,176.693 L121.301,176.693 L121.301,175.551 L127.881,175.551 L127.881,176.693 Z M130.331,184.082 L128.906,184.082 L128.906,177.742 L130.33,177.742 L130.33,184.082 L130.331,184.082 Z M130.331,176.189 L128.906,176.189 L128.906,174.941 L130.33,174.941 L130.33,176.189 L130.331,176.189 Z M134.543,183.069 C134.863984,183.078421 135.177097,182.968707 135.422,182.761 C135.652331,182.57231 135.783817,182.288714 135.779,181.991 L137.069,181.991 L137.08,182.025 C137.1,182.619 136.859,183.131 136.357,183.561 C135.855,183.991 135.25,184.205 134.543,184.205 C133.61,184.205 132.893,183.905 132.396,183.303 C131.898,182.701 131.649,181.939 131.649,181.018 L131.649,180.812 C131.649,179.894 131.898,179.134 132.396,178.53 C132.894,177.927 133.61,177.625 134.543,177.625 C135.305,177.625 135.923,177.847 136.398,178.29 C136.872,178.733 137.102,179.297 137.086,179.98 L137.074,180.016 L135.779,180.016 C135.779,179.668 135.665,179.373 135.437,179.131 C135.208,178.889 134.91,178.768 134.543,178.768 C134.008,178.768 133.629,178.962 133.406,179.351 C133.184,179.739 133.072,180.227 133.072,180.812 L133.072,181.018 C133.072,181.615 133.184,182.106 133.406,182.491 C133.629,182.876 134.008,183.068 134.543,183.068 L134.543,183.069 Z M140.285,181.311 L139.647,181.311 L139.647,184.082 L138.229,184.082 L138.229,174.942 L139.647,174.942 L139.647,180.168 L140.238,180.168 L141.838,177.742 L143.514,177.742 L141.422,180.625 L143.824,184.082 L142.172,184.082 L140.285,181.311 Z M152.185,181.041 L153.264,181.041 L153.264,182.189 L152.186,182.189 L152.186,184.082 L150.768,184.082 L150.768,182.189 L147.106,182.189 L147.07,181.316 L150.72,175.551 L152.186,175.551 L152.186,181.041 L152.185,181.041 Z M148.477,181.041 L150.767,181.041 L150.767,177.578 L150.733,177.566 L150.615,177.818 L148.477,181.041 Z M158.865,184.082 L157.447,184.082 L157.447,182.717 L158.865,182.717 L158.865,184.082 Z M158.865,178.949 L157.447,178.949 L157.447,177.584 L158.865,177.584 L158.865,178.949 Z M169.518,176.693 L166.94,176.693 L166.94,184.082 L165.516,184.082 L165.516,176.693 L162.938,176.693 L162.938,175.551 L169.518,175.551 L169.518,176.693 Z M171.967,184.082 L170.543,184.082 L170.543,177.742 L171.967,177.742 L171.967,184.082 Z M171.967,176.189 L170.543,176.189 L170.543,174.941 L171.967,174.941 L171.967,176.189 Z M176.18,183.069 C176.500984,183.078421 176.814097,182.968707 177.059,182.761 C177.289331,182.57231 177.420817,182.288714 177.416,181.991 L178.706,181.991 L178.717,182.025 C178.737,182.619 178.495,183.131 177.993,183.561 C177.491,183.991 176.887,184.205 176.18,184.205 C175.246,184.205 174.53,183.905 174.032,183.303 C173.534,182.701 173.285,181.939 173.285,181.018 L173.285,180.812 C173.285,179.894 173.535,179.134 174.032,178.53 C174.53,177.927 175.246,177.625 176.18,177.625 C176.942,177.625 177.56,177.847 178.034,178.29 C178.509,178.733 178.738,179.297 178.723,179.98 L178.711,180.016 L177.416,180.016 C177.416,179.668 177.302,179.373 177.073,179.131 C176.845,178.889 176.547,178.768 176.18,178.768 C175.645,178.768 175.266,178.962 175.043,179.351 C174.82,179.739 174.709,180.227 174.709,180.812 L174.709,181.018 C174.709,181.615 174.82,182.106 175.043,182.491 C175.266,182.876 175.645,183.068 176.18,183.068 L176.18,183.069 Z M181.922,181.311 L181.283,181.311 L181.283,184.082 L179.865,184.082 L179.865,174.942 L181.283,174.942 L181.283,180.168 L181.875,180.168 L183.475,177.742 L185.151,177.742 L183.059,180.625 L185.461,184.082 L183.809,184.082 L181.922,181.311 Z M190.647,184.082 L189.222,184.082 L189.222,174.942 L190.646,174.942 L190.646,184.082 L190.647,184.082 Z M194.959,184.205 C194.061,184.205 193.345,183.911 192.812,183.323 C192.278,182.735 192.012,181.98 192.012,181.059 L192.012,180.824 C192.012,179.902 192.277,179.138 192.806,178.53 C193.336,177.923 193.998,177.621 194.796,177.625 C195.651,177.625 196.306,177.884 196.761,178.401 C197.216,178.919 197.444,179.613 197.444,180.484 L197.444,181.322 L193.488,181.322 L193.477,181.352 C193.5,181.855 193.647,182.268 193.919,182.588 C194.191,182.908 194.567,183.068 195.047,183.068 C195.43,183.068 195.758,183.021 196.031,182.928 C196.305,182.834 196.569,182.699 196.822,182.523 L197.279,183.455 C197.041,183.666 196.725,183.844 196.33,183.988 C195.936,184.133 195.479,184.205 194.96,184.205 L194.959,184.205 Z M194.795,178.768 C194.444,178.768 194.155,178.908 193.928,179.186 C193.701,179.466 193.561,179.82 193.506,180.25 L193.518,180.28 L196.031,180.28 L196.031,180.133 C196.031,179.73 195.929,179.403 195.724,179.148 C195.519,178.894 195.209,178.768 194.795,178.768 Z M207.135,181.123 C207.135,182.045 206.918,182.789 206.485,183.355 C206.051,183.922 205.447,184.205 204.674,184.205 C204.314,184.205 203.996,184.141 203.719,184.012 C203.439265,183.881154 203.194309,183.686217 203.004,183.443 L203.004,186.52 L201.58,186.52 L201.58,177.742 L202.781,177.742 L202.922,178.539 C203.125,178.242 203.37,178.016 203.657,177.859 C203.944,177.703 204.277,177.625 204.657,177.625 C205.437,177.625 206.047,177.935 206.482,178.554 C206.917,179.173 207.135,179.988 207.135,181 L207.135,181.123 Z M205.717,181 C205.717,180.352 205.595,179.821 205.351,179.41 C205.107,178.997 204.742,178.791 204.258,178.791 C203.99321,178.782571 203.731342,178.848385 203.502,178.981 C203.292271,179.110787 203.120492,179.293605 203.004,179.511 L203.004,182.377 C203.129,182.6 203.295,182.77 203.502,182.89 C203.709,183.009 203.965,183.068 204.27,183.068 C204.754,183.068 205.116,182.89 205.357,182.532 C205.597,182.175 205.717,181.705 205.717,181.123 L205.717,181 Z M209.895,184.082 L208.471,184.082 L208.471,174.942 L209.895,174.942 L209.895,184.082 Z M215.438,183.156 C215.255797,183.47479 214.995679,183.742133 214.682,183.933 C214.361883,184.118582 213.996941,184.212671 213.627,184.205 C212.947,184.205 212.417,183.988 212.033,183.555 C211.651,183.121 211.459,182.447 211.459,181.533 L211.459,177.743 L212.877,177.743 L212.877,181.545 C212.877,182.1 212.967,182.488 213.147,182.711 C213.327,182.934 213.597,183.045 213.961,183.045 C214.305,183.045 214.593,182.983 214.825,182.86 C215.055963,182.738507 215.246424,182.552217 215.373,182.324 L215.373,177.742 L216.797,177.742 L216.797,184.082 L215.555,184.082 L215.438,183.156 Z M221.848,182.359 C221.848,182.141 221.754,181.959 221.567,181.814 C221.379,181.67 221.029,181.543 220.517,181.434 C219.76,181.274 219.187,181.046 218.798,180.751 C218.409,180.456 218.215,180.055 218.215,179.547 C218.215,179.016 218.44,178.562 218.889,178.187 C219.338,177.812 219.929,177.625 220.664,177.625 C221.438,177.625 222.052,177.815 222.507,178.196 C222.962,178.577 223.18,179.049 223.16,179.611 L223.149,179.646 L221.783,179.646 C221.783,179.385 221.683,179.16 221.485,178.973 C221.285,178.785 221.012,178.691 220.665,178.691 C220.32,178.691 220.059,178.769 219.879,178.923 C219.707288,179.060098 219.607805,179.268274 219.609,179.488 C219.609,179.711 219.694,179.888 219.864,180.018 C220.034,180.149 220.379,180.266 220.899,180.368 C221.695,180.531 222.286,180.763 222.671,181.061 C223.056,181.361 223.248,181.768 223.248,182.283 C223.248,182.853 223.013,183.316 222.542,183.672 C222.072,184.027 221.452,184.205 220.682,184.205 C219.858,184.205 219.207,183.995 218.731,183.572 C218.254,183.15 218.027,182.666 218.051,182.119 L218.063,182.084 L219.387,182.084 C219.403,182.451 219.535,182.719 219.785,182.887 C220.035,183.055 220.34,183.139 220.699,183.139 C221.067,183.139 221.349,183.069 221.549,182.928 C221.749,182.788 221.848,182.598 221.848,182.359 Z M227.695,184.082 L227.695,175.551 L230.531,175.551 C231.477,175.551 232.215,175.745 232.746,176.134 C233.278,176.522 233.543,177.104 233.543,177.877 C233.543,178.264 233.432,178.609 233.209,178.914 C232.974664,179.227548 232.652315,179.464262 232.283,179.594 C232.791,179.707 233.182,179.951 233.455,180.326 C233.729,180.701 233.865,181.136 233.865,181.633 C233.865,182.433 233.604,183.042 233.08,183.458 C232.557,183.874 231.834,184.082 230.912,184.082 L227.695,184.082 Z M229.119,180.203 L229.119,182.945 L230.912,182.945 C231.404,182.945 231.783,182.833 232.049,182.608 C232.315,182.384 232.447,182.058 232.447,181.633 C232.447,181.18 232.337,180.828 232.113,180.578 C231.891,180.328 231.543,180.203 231.07,180.203 L229.12,180.203 L229.119,180.203 Z M229.119,179.143 L230.689,179.143 C231.131,179.143 231.479,179.038 231.736,178.829 C231.991,178.62 232.119,178.324 232.119,177.941 C232.119,177.519 231.985,177.206 231.715,177.001 C231.445,176.796 231.051,176.693 230.531,176.693 L229.119,176.693 L229.119,179.143 Z M239.016,184.082 C238.966794,183.927692 238.924749,183.771192 238.89,183.613 C238.856846,183.462413 238.834125,183.309716 238.822,183.156 C238.622021,183.457461 238.359385,183.712252 238.052,183.903 C237.73196,184.104836 237.36034,184.209723 236.982,184.205 C236.322,184.205 235.816,184.035 235.462,183.695 C235.109,183.355 234.932,182.889 234.932,182.295 C234.932,181.682 235.174,181.205 235.658,180.862 C236.143,180.52 236.824,180.35 237.703,180.35 L238.811,180.35 L238.811,179.793 C238.811,179.461 238.713,179.201 238.518,179.013 C238.322,178.826 238.043,178.733 237.68,178.733 C237.356,178.733 237.098,178.811 236.906,178.967 C236.720431,179.111362 236.614017,179.334943 236.619,179.57 L235.249,179.57 L235.242,179.535 C235.215,179.035 235.439,178.592 235.913,178.205 C236.388,177.818 237.006,177.625 237.768,177.625 C238.506,177.625 239.102,177.812 239.555,178.187 C240.008,178.562 240.235,179.102 240.235,179.805 L240.235,182.623 C240.235,182.885 240.252,183.136 240.287,183.376 C240.322,183.616 240.379,183.852 240.457,184.082 L239.016,184.082 Z M237.27,183.062 C237.63,183.062 237.952,182.972 238.24,182.792 C238.527,182.613 238.717,182.408 238.81,182.178 L238.81,181.24 L237.68,181.24 C237.266,181.24 236.942,181.343 236.707,181.548 C236.473,181.753 236.356,181.994 236.356,182.271 C236.356,182.514 236.435,182.706 236.593,182.849 C236.751,182.991 236.977,183.062 237.27,183.062 Z M245.291,182.359 C245.291,182.141 245.197,181.959 245.01,181.814 C244.822,181.67 244.473,181.543 243.961,181.434 C243.203,181.274 242.63,181.046 242.241,180.751 C241.853,180.456 241.658,180.055 241.658,179.547 C241.658,179.016 241.883,178.562 242.332,178.187 C242.782,177.812 243.373,177.625 244.108,177.625 C244.881,177.625 245.495,177.815 245.95,178.196 C246.405,178.577 246.623,179.049 246.604,179.611 L246.592,179.646 L245.227,179.646 C245.227,179.385 245.127,179.16 244.927,178.973 C244.729,178.785 244.455,178.691 244.107,178.691 C243.764,178.691 243.502,178.769 243.322,178.923 C243.150288,179.060098 243.050805,179.268274 243.052,179.488 C243.052,179.711 243.138,179.888 243.308,180.018 C243.478,180.149 243.822,180.266 244.342,180.368 C245.139,180.531 245.73,180.763 246.114,181.061 C246.499,181.361 246.692,181.768 246.692,182.283 C246.692,182.853 246.456,183.316 245.986,183.672 C245.515,184.027 244.895,184.205 244.126,184.205 C243.301,184.205 242.651,183.995 242.174,183.572 C241.697,183.15 241.471,182.666 241.494,182.119 L241.506,182.084 L242.83,182.084 C242.846,182.451 242.979,182.719 243.229,182.887 C243.479,183.055 243.783,183.139 244.143,183.139 C244.51,183.139 244.793,183.069 244.993,182.928 C245.192,182.788 245.291,182.598 245.291,182.359 Z M217.798,52.798 L215.22,52.798 L215.22,60.186 L213.796,60.186 L213.796,52.798 L211.218,52.798 L211.218,51.655 L217.798,51.655 L217.798,52.798 Z M220.247,60.186 L218.823,60.186 L218.823,53.846 L220.247,53.846 L220.247,60.186 Z M220.247,52.294 L218.823,52.294 L218.823,51.046 L220.247,51.046 L220.247,52.294 Z M224.46,59.173 C224.780984,59.1824212 225.094097,59.072707 225.339,58.865 C225.569331,58.6763096 225.700817,58.3927137 225.696,58.095 L226.986,58.095 L226.997,58.13 C227.017,58.724 226.775,59.235 226.273,59.665 C225.771,60.095 225.167,60.309 224.46,60.309 C223.526,60.309 222.81,60.009 222.312,59.407 C221.814,58.806 221.565,58.044 221.565,57.122 L221.565,56.917 C221.565,55.999 221.815,55.238 222.312,54.635 C222.81,54.031 223.526,53.729 224.46,53.729 C225.222,53.729 225.84,53.951 226.314,54.394 C226.789,54.838 227.018,55.401 227.003,56.084 L226.991,56.12 L225.696,56.12 C225.696,55.772 225.582,55.477 225.353,55.235 C225.125,54.993 224.827,54.872 224.46,54.872 C223.925,54.872 223.546,55.066 223.323,55.455 C223.101,55.844 222.989,56.331 222.989,56.917 L222.989,57.122 C222.989,57.72 223.101,58.211 223.323,58.596 C223.546,58.98 223.925,59.173 224.46,59.173 Z M230.202,57.415 L229.563,57.415 L229.563,60.186 L228.145,60.186 L228.145,51.046 L229.563,51.046 L229.563,56.272 L230.155,56.272 L231.755,53.847 L233.431,53.847 L231.339,56.729 L233.741,60.186 L232.089,60.186 L230.202,57.415 Z M237.145,57.105 C237.145,56.093 237.362,55.277 237.795,54.658 C238.229,54.039 238.839,53.729 239.624,53.729 C239.943874,53.7235136 240.260397,53.7948427 240.547,53.937 C240.818,54.077 241.054,54.274 241.253,54.532 L241.253,51.046 L242.677,51.046 L242.677,60.186 L241.481,60.186 L241.341,59.401 C241.154757,59.6824079 240.903292,59.9146616 240.608,60.078 C240.300673,60.2374355 239.958133,60.31688 239.612,60.309 C238.835,60.309 238.229,60.026 237.796,59.459 C237.362,58.893 237.146,58.149 237.146,57.227 L237.146,57.104 L237.145,57.105 Z M238.569,57.227 C238.569,57.813 238.682,58.28 238.906,58.627 C239.131,58.976 239.487,59.149 239.976,59.149 C240.276,59.149 240.531,59.085 240.74,58.956 C240.95,58.827 241.12,58.643 241.253,58.406 L241.253,55.64 C241.130372,55.416446 240.95278,55.2278414 240.737,55.092 C240.527,54.961 240.277,54.895 239.987,54.895 C239.503,54.895 239.145,55.1 238.915,55.508 C238.685,55.916 238.569,56.448 238.569,57.104 L238.569,57.227 Z M246.925,60.309 C246.026,60.309 245.31,60.016 244.777,59.428 C244.244,58.84 243.977,58.085 243.977,57.163 L243.977,56.929 C243.977,56.007 244.242,55.242 244.771,54.635 C245.301,54.027 245.964,53.725 246.761,53.729 C247.616,53.729 248.271,53.989 248.726,54.506 C249.182,55.023 249.409,55.718 249.409,56.589 L249.409,57.427 L245.454,57.427 L245.442,57.456 C245.466,57.96 245.613,58.372 245.885,58.692 C246.156,59.012 246.532,59.172 247.013,59.172 C247.395,59.172 247.723,59.126 247.997,59.032 C248.27,58.938 248.534,58.804 248.788,58.628 L249.245,59.559 C249.007,59.77 248.69,59.949 248.295,60.093 C247.901,60.237 247.445,60.309 246.925,60.309 Z M246.761,54.872 C246.409,54.872 246.12,55.012 245.893,55.291 C245.667,55.571 245.526,55.925 245.472,56.354 L245.483,56.384 L247.997,56.384 L247.997,56.237 C247.997,55.835 247.894,55.507 247.689,55.253 C247.484,54.999 247.175,54.872 246.761,54.872 Z M258.351,57.995 C258.351,57.64 258.219,57.349 257.955,57.122 C257.691,56.895 257.225,56.692 256.558,56.512 C255.604,56.262 254.871,55.932 254.358,55.519 C253.844,55.107 253.587,54.567 253.587,53.899 C253.587,53.212 253.871,52.645 254.439,52.2 C255.008,51.755 255.741,51.532 256.639,51.532 C257.577,51.532 258.33,51.784 258.899,52.288 C259.467,52.792 259.741,53.398 259.722,54.104 L259.71,54.14 L258.345,54.14 C258.345,53.702 258.196,53.348 257.899,53.076 C257.602,52.805 257.179,52.669 256.628,52.669 C256.108,52.669 255.708,52.782 255.43,53.009 C255.158299,53.2186317 255.002397,53.5449127 255.01,53.888 C255.01,54.212 255.162,54.481 255.465,54.696 C255.768,54.911 256.268,55.114 256.968,55.306 C257.886,55.552 258.583,55.892 259.059,56.326 C259.536,56.759 259.774,57.311 259.774,57.983 C259.774,58.694 259.49,59.26 258.922,59.68 C258.353,60.1 257.606,60.31 256.681,60.31 C255.79,60.31 255.009,60.074 254.337,59.603 C253.665,59.133 253.339,58.487 253.358,57.667 L253.37,57.632 L254.741,57.632 C254.741,58.152 254.921,58.539 255.281,58.795 C255.64,59.051 256.106,59.179 256.681,59.179 C257.208,59.179 257.618,59.072 257.911,58.859 C258.204,58.646 258.351,58.359 258.351,57.995 Z M260.829,56.958 C260.829,56.017 261.087,55.243 261.602,54.638 C262.126,54.032 262.835,53.729 263.729,53.729 C264.639,53.729 265.352,54.032 265.869,54.638 C266.388,55.239 266.647,56.013 266.647,56.958 L266.647,57.081 C266.647,58.034 266.387,58.811 265.868,59.413 C265.352,60.011 264.643,60.309 263.741,60.309 C262.835,60.309 262.122,60.009 261.602,59.407 C261.087,58.806 260.829,58.03 260.829,57.081 L260.829,56.958 Z M262.253,57.081 C262.253,57.698 262.374,58.202 262.616,58.593 C262.854,58.979 263.229,59.173 263.741,59.173 C264.237,59.173 264.608,58.979 264.854,58.593 C265.104,58.203 265.229,57.698 265.229,57.081 L265.229,56.958 C265.229,56.352 265.104,55.854 264.854,55.464 C264.608,55.069 264.234,54.872 263.729,54.872 C263.233,54.872 262.862,55.069 262.616,55.464 C262.374,55.858 262.253,56.356 262.253,56.958 L262.253,57.081 Z M271.048,55.13 L270.438,55.106 C270.161,55.106 269.93,55.165 269.744,55.282 C269.559,55.399 269.415,55.565 269.314,55.78 L269.314,60.186 L267.89,60.186 L267.89,53.846 L269.19,53.846 L269.284,54.766 C269.444,54.442 269.65,54.188 269.902,54.005 C270.154,53.821 270.444,53.729 270.772,53.729 C270.858,53.729 270.938,53.736 271.012,53.749 C271.087,53.764 271.155,53.78 271.218,53.799 L271.048,55.129 L271.048,55.13 Z M273.936,52.306 L273.936,53.846 L275.073,53.846 L275.073,54.901 L273.936,54.901 L273.936,58.405 C273.936,58.667 273.993,58.853 274.106,58.965 C274.227741,59.0797313 274.390908,59.1400164 274.558,59.132 C274.707688,59.1329659 274.856348,59.1072297 274.997,59.056 L275.149,60.099 C275.012701,60.1708342 274.866923,60.2230183 274.716,60.254 C274.544521,60.2912835 274.369483,60.3097261 274.194,60.309 C273.671,60.309 273.261,60.156 272.964,59.849 C272.667,59.543 272.518,59.061 272.518,58.405 L272.518,54.902 L271.552,54.902 L271.552,53.848 L272.518,53.848 L272.518,52.307 L273.936,52.307 L273.936,52.306 Z M277.856,60.186 L276.433,60.186 L276.433,53.846 L277.856,53.846 L277.856,60.186 Z M277.856,52.294 L276.433,52.294 L276.433,51.046 L277.856,51.046 L277.856,52.294 Z M282.169,60.309 C281.27,60.309 280.555,60.016 280.021,59.428 C279.488,58.84 279.221,58.085 279.221,57.163 L279.221,56.929 C279.221,56.007 279.486,55.242 280.016,54.635 C280.545,54.027 281.208,53.725 282.005,53.729 C282.86,53.729 283.515,53.989 283.971,54.506 C284.426,55.023 284.653,55.718 284.653,56.589 L284.653,57.427 L280.698,57.427 L280.686,57.456 C280.71,57.96 280.857,58.372 281.129,58.692 C281.4,59.012 281.776,59.172 282.257,59.172 C282.64,59.172 282.967,59.126 283.241,59.032 C283.515,58.938 283.778,58.804 284.032,58.628 L284.489,59.559 C284.251,59.77 283.935,59.949 283.54,60.093 C283.145,60.237 282.688,60.309 282.169,60.309 Z M282.005,54.872 C281.653,54.872 281.365,55.012 281.138,55.291 C280.911,55.571 280.77,55.925 280.716,56.354 L280.727,56.384 L283.241,56.384 L283.241,56.237 C283.241,55.835 283.139,55.507 282.934,55.253 C282.728,54.999 282.419,54.872 282.004,54.872 L282.005,54.872 Z M14,102.488 L14,94.668 L16.535,94.668 C17.527,94.668 18.334,94.978 18.955,95.597 C19.576,96.217 19.887,97.013 19.887,97.987 L19.887,99.174 C19.887,100.151 19.577,100.948 18.955,101.564 C18.334,102.18 17.527,102.488 16.535,102.488 L14,102.488 Z M15.306,95.715 L15.306,101.445 L16.498,101.445 C17.146,101.445 17.655,101.235 18.026,100.812 C18.396,100.389 18.582,99.843 18.582,99.174 L18.582,97.976 C18.582,97.314 18.397,96.771 18.026,96.349 C17.656,95.926 17.146,95.715 16.498,95.715 L15.306,95.715 Z M23.556,102.601 C22.732,102.601 22.076,102.331 21.587,101.792 C21.098,101.253 20.854,100.562 20.854,99.716 L20.854,99.501 C20.854,98.656 21.096,97.955 21.582,97.399 C22.067,96.842 22.675,96.565 23.405,96.569 C24.189,96.569 24.79,96.806 25.207,97.28 C25.624,97.755 25.833,98.391 25.833,99.19 L25.833,99.958 L22.207,99.958 L22.197,99.985 C22.218,100.447 22.353,100.825 22.602,101.118 C22.851,101.412 23.196,101.558 23.636,101.558 C23.987,101.558 24.288,101.516 24.538,101.43 C24.789,101.344 25.031,101.22 25.264,101.06 L25.682,101.913 C25.464,102.106 25.174,102.269 24.812,102.402 C24.451,102.534 24.032,102.601 23.556,102.601 Z M23.406,97.616 C23.0947355,97.6103015 22.7992792,97.7528331 22.61,98 C22.403,98.256 22.274,98.581 22.223,98.975 L22.234,99.002 L24.538,99.002 L24.538,98.868 C24.538,98.498 24.444,98.198 24.256,97.965 C24.068,97.733 23.785,97.616 23.406,97.616 Z M23.733,94.41 L25.178,94.41 L25.188,94.442 L23.722,95.838 L22.707,95.838 L23.733,94.41 Z M31.988,99.775 C31.988,100.624 31.79,101.307 31.395,101.825 C30.999,102.342 30.441,102.601 29.722,102.601 C29.36,102.601 29.046,102.527 28.779,102.381 C28.5044591,102.226818 28.2741044,102.004727 28.11,101.736 L27.981,102.488 L26.886,102.488 L26.886,94.108 L28.191,94.108 L28.191,97.337 C28.37,97.09 28.585,96.9 28.835,96.767 C29.085,96.635 29.378,96.569 29.711,96.569 C30.438,96.569 30.999,96.852 31.395,97.417 C31.79,97.983 31.988,98.732 31.988,99.663 L31.988,99.775 Z M30.683,99.663 C30.683,99.057 30.579,98.569 30.371,98.196 C30.164,97.824 29.834,97.638 29.383,97.638 C29.093,97.638 28.851,97.702 28.655,97.831 C28.46,97.96 28.305,98.139 28.191,98.368 L28.191,100.807 C28.301,101.039 28.456,101.219 28.653,101.347 C28.85,101.474 29.097,101.537 29.393,101.537 C29.845,101.537 30.173,101.379 30.377,101.062 C30.581,100.745 30.683,100.316 30.683,99.775 L30.683,99.663 Z M36.736,101.639 C36.5689875,101.931164 36.3305405,102.176148 36.043,102.351 C35.764,102.517 35.442,102.601 35.077,102.601 C34.453,102.601 33.967,102.401 33.616,102.004 C33.265,101.607 33.089,100.989 33.089,100.151 L33.089,96.676 L34.389,96.676 L34.389,100.162 C34.389,100.671 34.471,101.027 34.636,101.231 C34.801,101.435 35.05,101.537 35.383,101.537 C35.698,101.537 35.962,101.481 36.175,101.367 C36.388,101.255 36.555,101.091 36.677,100.877 L36.677,96.677 L37.982,96.677 L37.982,102.487 L36.844,102.487 L36.736,101.639 Z M40.969,95.264 L40.969,96.676 L42.011,96.676 L42.011,97.643 L40.969,97.643 L40.969,100.855 C40.969,101.095 41.021,101.265 41.124,101.368 C41.2354863,101.473121 41.3849458,101.528357 41.538,101.521 C41.6754299,101.52185 41.8119066,101.498144 41.941,101.451 L42.081,102.407 C41.969,102.468 41.837,102.516 41.683,102.55 C41.5259581,102.583994 41.3656772,102.600759 41.205,102.6 C40.725,102.6 40.349,102.46 40.077,102.179 C39.805,101.898 39.669,101.457 39.669,100.855 L39.669,97.642 L38.783,97.642 L38.783,96.675 L39.669,96.675 L39.669,95.263 L40.969,95.263 L40.969,95.264 Z" id="Shape" fill="#2A3052" fill-rule="nonzero"></path>
        </g>
    </g>
</svg>