<svg width="300" height="199" viewBox="0 0 300 199" xmlns="http://www.w3.org/2000/svg"><title>french no touch</title><g fill="none" fill-rule="evenodd"><path fill="#F1F2F2" d="M0 0h300v199H0z"/><path d="M39.125 55.375V74.75H75.25V55.375H39.125zm0-1H75.25V34h1v20.375h36.125V34h1v20.375H149.5V34h1v20.375h36.125V34h1v20.375h36.125V34h1v20.375h36.125V34h1v20.375H299.5v1h-37.625V74.75H299.5v1h-37.625v19.375H299.5v1h-37.625V115.5H299.5v1h-37.625v19.375H299.5v1h-37.625v19.375H299.5v1h-37.625v19.375H299.5v1h-37.625V199h-1v-21.375H224.75V199h-1v-21.375h-36.125V199h-1v-21.375H150.5V199h-1v-21.375h-36.125V199h-1v-21.375H76.25V199h-1v-21.375H39.125V199h-1v-21.375H1.5v-1h36.625V157.25H1.5v-1h36.625v-19.375H1.5v-1h36.625V116.5H1.5v-1h36.625V96.125H1.5v-1h36.625V75.75H1.5v-1h36.625V55.375H1.5v-1h36.625V34h1v20.375zm221.75 1H224.75V74.75h36.125V55.375zm-37.125 0h-36.125V74.75h36.125V55.375zm-37.125 0H150.5V74.75h36.125V55.375zm-37.125 0h-36.125V74.75H149.5V55.375zm-37.125 0H76.25V74.75h36.125V55.375zM39.125 75.75v19.375H75.25V75.75H39.125zm221.75 0H224.75v19.375h36.125V75.75zm-37.125 0h-36.125v19.375h36.125V75.75zm-37.125 0H150.5v19.375h36.125V75.75zm-37.125 0h-36.125v19.375H149.5V75.75zm-37.125 0H76.25v19.375h36.125V75.75zm-73.25 20.375V115.5H75.25V96.125H39.125zm221.75 0H224.75V115.5h36.125V96.125zm-37.125 0h-36.125V115.5h36.125V96.125zm-37.125 0H150.5V115.5h36.125V96.125zm-37.125 0h-36.125V115.5H149.5V96.125zm-37.125 0H76.25V115.5h36.125V96.125zM39.125 116.5v19.375H75.25V116.5H39.125zm221.75 0H224.75v19.375h36.125V116.5zm-37.125 0h-36.125v19.375h36.125V116.5zm-37.125 0H150.5v19.375h36.125V116.5zm-37.125 0h-36.125v19.375H149.5V116.5zm-37.125 0H76.25v19.375h36.125V116.5zm-73.25 20.375v19.375H75.25v-19.375H39.125zm221.75 0H224.75v19.375h36.125v-19.375zm-37.125 0h-36.125v19.375h36.125v-19.375zm-37.125 0H150.5v19.375h36.125v-19.375zm-37.125 0h-36.125v19.375H149.5v-19.375zm-37.125 0H76.25v19.375h36.125v-19.375zm-73.25 20.375v19.375H75.25V157.25H39.125zm221.75 0H224.75v19.375h36.125V157.25zm-37.125 0h-36.125v19.375h36.125V157.25zm-37.125 0H150.5v19.375h36.125V157.25zm-37.125 0h-36.125v19.375H149.5V157.25zm-37.125 0H76.25v19.375h36.125V157.25z" fill="#DFDEDE"/><path stroke="#C2C2C2" stroke-width="2" d="M1 1h298v197H1z"/><path fill="#C2C2C2" d="M0 33h300v2H0z"/><g transform="translate(2 33.7)"><path d="M.94 41.551h294.552M260.107.241V162.97" stroke="#293152" stroke-width="1.211" stroke-linejoin="round"/><path stroke="#293152" stroke-width="3.633" stroke-linecap="round" stroke-linejoin="round" d="M36.514 103.498l37.284-33.924 33.636 26.347 34.168-26.347 35.346 28.86 37.21-33.239 45.95 12.641"/><path d="M187.134 114.235h-35.536l-5.473-8.339-5.473 8.339h-35.536c-2.66 0-4.79 2.17-4.79 4.873v25.167c0 2.703 2.167 4.874 4.79 4.874h82.056c2.66 0 4.79-2.17 4.79-4.874v-25.167c0-2.703-2.167-4.873-4.828-4.873z" fill="#E88124" fill-rule="nonzero"/><ellipse cx="8.476" cy="10.052" rx="8.247" ry="8.605" opacity=".6" transform="translate(251.632 67.784)" fill="#FFF" fill-rule="nonzero"/><ellipse stroke="#E88124" stroke-width="2.422" cx="260.107" cy="77.836" rx="8.247" ry="8.605"/><ellipse cx="9.122" cy="9.062" rx="8.247" ry="8.605" opacity=".6" transform="translate(27.392 94.436)" fill="#FFF" fill-rule="nonzero"/><ellipse stroke="#E88124" stroke-width="2.422" cx="36.514" cy="103.498" rx="8.247" ry="8.605"/></g><g fill="#2A3052"><path d="M285.152 122.966l.115 1.194a2.602 2.602 0 0 1 2.31-1.309c.847 0 1.501.231 1.963.77.462.5.693 1.27.693 2.31v5.004h-1.424v-4.966c0-.693-.154-1.193-.424-1.501-.269-.308-.692-.424-1.231-.424-.424 0-.77.116-1.078.308a2.223 2.223 0 0 0-.77.809v5.774h-1.425v-7.93l1.27-.039zM278.767 120.913v1.026h-4.919v3.482h4.19v1.056h-4.19v4.458h-1.444v-10.022zM280.406 124.241h1.385v6.714h-1.385zM280.313 121.074v1.442h1.516v-1.442z"/></g><g opacity=".9" fill="#6D6E71"><path d="M32.566 69.504h1.274l1.094-6.106H33.63zM35.206 60.642l-.182 1.363h-1.33l.228-1.363zM43.863 60.57h1.289l-1.541 9.033h-1.25zM49.82 68.2c.066.163.144.338.326.725-1.373 1.045-2.952.903-3.69.47-1.11-.65-1.11-1.86-1.104-2.795.007-1.192.884-3.41 3.325-3.41 2.44 0 2.04 2.635 1.921 3.41-.25 0-1.595.025-4.038.074-.227 2.899 1.964 2.25 3.26 1.525zm-.148-2.332c.143-1.145-.21-1.717-1.055-1.717-1.268 0-1.713 1.344-1.855 1.717h2.91zM30.968 63.813h1.073c.228-1.118-.314-2.836-2.738-2.78-2.425.054-3.198 1.968-3.483 2.635-.284.667-.385 2.223-.481 3.02-.097.799.343 2.726 2.33 2.972 1.989.245 3.673-.998 3.893-2.77h-1.067c-.192.546-.33 2.107-2.59 1.882-1.23-.122-1.524-1.524-1.418-2.367.106-.842.162-1.771.509-2.737.42-1.167 1.335-1.755 2.24-1.755 1.267 0 1.844.633 1.732 1.9zM37.821 64.083c.052-.236 1.44-1.455 2.911-.622.925.523 1.192 2.016.856 3.473-.386 1.671-1.083 2.506-2.192 2.702-1.62.286-2.196-.623-2.327-.923-.065.201-.178.486-.34.857h-.854l1.34-9h1.143c-.393 2.5-.572 3.67-.537 3.513zm-.542 3.744c.178.584.597.904 1.258.96.95.08 1.779-.824 1.964-2.073.183-1.237 0-2.472-.936-2.565-.856-.084-1.486.244-1.891.986l-.395 2.692z"/></g><g fill="#FFF"><path d="M175.251 166.791h-5.55c.122 2.563 1.708 3.182 4.756 1.858l.648 1.247a4.531 4.531 0 0 1-1.937.938c-1.509.328-2.982.077-4.003-.677-2.215-1.634-1.65-5.065-1.162-6.248.228-.552 1.351-2.11 2.686-2.261 1.21-.136 4.204-.424 4.562 3.6.028.82.028 1.334 0 1.543zm-1.962-1.668c.002-1.433-.565-2.149-1.7-2.149-1.7 0-1.873 2.149-1.873 2.149h3.573zM128.062 161.546h1.965v9.069h-1.965zM128.101 157.587v1.965h1.983v-1.965zM157.97 161.686h2v9.341h-2zM158.01 157.608v1.773h2.042v-1.773zM124.425 158.489h2.237l-4.41 12.472h-2.065l-4.355-12.472h2.249l3.166 9.918zM137.91 164.962c.843.002 1.475.002 1.895 0 0-.993-.679-3.632-3.839-3.518-3.16.114-3.933 2.954-3.933 4.837 0 1.884.96 4.837 4.052 4.837 3.092 0 3.72-2.352 3.72-3.257h-1.895c-.115 1.047-.716 1.57-1.804 1.57-1.632 0-2-1.917-2-3.15 0-1.233.234-3.068 1.86-3.154 1.084-.057 1.732.555 1.944 1.835zM142.123 159.396h2.067v2.269h1.663v1.498h-1.663v5.102c0 .346.002 1.39 1.504.998.11.73.19 1.237.242 1.522-.536.327-3.813 1.028-3.813-2.52v-5.102h-1.42v-1.498h1.42v-2.27zM151.377 161.583c2.582 0 3.982 1.574 4.336 3.932.354 2.358-.919 5.688-4.154 5.688s-4.281-2.46-4.281-5.005c0-2.546 1.518-4.615 4.1-4.615zm.024 1.652c-.768.073-2.127.61-2.048 3.155.08 2.546 1.192 3.144 2.048 3.144.855 0 2.297-.237 2.297-3.133 0-2.895-1.53-3.238-2.297-3.166zM166.843 161.539c-.085.8-.178 1.457-.278 1.973-1.006-.066-2.051-.161-2.508 1.015l.013 6.324h-2.071v-9.239h1.842c.088.617.143 1.066.165 1.349.636-1.189 1.582-1.663 2.837-1.422z"/><g><path d="M177.405 158.446h1.94v8.132h-1.94zM179.42 168.959v1.875h-2.007v-1.875z"/></g></g><g fill="#2A3052"><path d="M54.444 154.494v1.623h1.266v.909h-1.266v4.057c0 .325.065.52.195.65s.292.194.519.194c.065 0 .13 0 .227-.032a.47.47 0 0 0 .227-.065l.163.844c-.098.065-.227.13-.39.195a2.841 2.841 0 0 1-.52.065 1.59 1.59 0 0 1-1.168-.455c-.292-.292-.422-.779-.422-1.396v-4.057h-1.038v-.909h1.038v-1.623h1.169zM37.545 159.994h-4.51c.116 1.374.68 2.06 1.693 2.06 1.519 0 1.73-1.287 1.73-1.206l.998-.005c-.487 1.394-1.396 2.092-2.728 2.092-1.999 0-2.7-1.414-2.784-2.941-.084-1.527.424-3.576 2.8-3.576 1.949.036 2.882 1.228 2.8 3.576zm-1.132-.812c-.113-1.214-.678-1.82-1.693-1.82-1.016 0-1.58.606-1.694 1.82h3.387zM49.732 156.245h1.155v6.538h-1.155v-.97c-.367.474-.971 1.236-2.184 1.107-1.213-.128-1.964-1.08-1.97-2.129-.005-1.049.006-4.902 0-4.546h1.146v2.477c0 2.898.638 3.218 1.509 3.218.871 0 1.298-.736 1.499-.981-.01-1.377-.01-2.948 0-4.714zM38.687 153.32h1.147v3.808c.331-.671.954-1.007 1.867-1.007 1.37 0 1.803.827 1.97 1.064.167.237.501.918.593 2.008.08.945-.147 2.414-.8 2.989-.863.757-1.418.753-1.881.753-.463 0-1.333-.223-1.818-1.051l-.167.887h-.91v-9.452zm1.198 7.594c.344.69.804 1.035 1.382 1.035.866 0 1.178-.245 1.463-.678.325-.496.395-1.463.328-2.206a3.806 3.806 0 0 0-.328-1.19c-.08-.16-.34-.852-1.463-.802-.933.009-1.354.834-1.382.993v2.848zM36.8 153.32l-1.667 1.636h-.89l1.127-1.637zM24.169 154.226h3.267c1.297.196 3.351.704 3.351 4.354 0 3.65-2.1 4.191-3.309 4.354H24.17v-8.708zm1.158.919v6.91h1.653c.318 0 2.163-.003 2.473-2.13.31-2.126-.022-2.96-.28-3.498-.26-.537-.94-1.282-2.193-1.282h-1.653z"/></g><path d="M21.414 21.663h-1.878l-3.775-6.315-.038.006v6.309h-1.878v-9.364h1.878l3.775 6.31.038-.007v-6.303h1.878v9.364zm4.598.135c-1.037 0-1.848-.318-2.43-.955-.584-.637-.875-1.457-.875-2.46v-.257c0-1.042.283-1.895.849-2.56.565-.664 1.344-.994 2.334-.99.935 0 1.652.286 2.151.858.5.573.75 1.343.75 2.312v.971h-4.149l-.019.039c.03.476.175.862.434 1.158.26.295.644.443 1.155.443.42 0 .777-.043 1.07-.128.294-.086.597-.217.91-.393l.508 1.158c-.278.227-.656.418-1.131.572a5.02 5.02 0 0 1-1.557.232zm-.122-5.775c-.377 0-.668.13-.871.389-.204.26-.327.603-.37 1.032l.013.032h2.29v-.141c0-.408-.084-.728-.252-.962-.167-.233-.437-.35-.81-.35zm13.942-2.277h-2.675v7.917H35.28v-7.917h-2.636V12.3h7.19v1.447zm.09 4.373c0-1.037.29-1.887.869-2.55.578-.662 1.38-.993 2.405-.993 1.029 0 1.835.33 2.418.99.583.66.875 1.511.875 2.553v.135c0 1.046-.29 1.899-.872 2.557-.58.658-1.384.987-2.408.987-1.03 0-1.834-.33-2.415-.987-.581-.658-.872-1.51-.872-2.557v-.135zm1.872.135c0 .635.111 1.144.334 1.528.223.383.583.575 1.08.575.485 0 .84-.193 1.065-.578.225-.386.338-.894.338-1.525v-.135c0-.617-.114-1.12-.341-1.511-.227-.39-.585-.585-1.074-.585-.485 0-.84.196-1.064.588-.226.393-.338.895-.338 1.508v.135zm10.116 2.38c-.214.373-.487.66-.817.862-.33.201-.714.302-1.151.302-.733 0-1.307-.249-1.72-.746-.414-.497-.62-1.27-.62-2.315v-4.033h1.87v4.046c0 .608.083 1.025.248 1.25.165.225.421.338.769.338.3 0 .557-.048.771-.145a1.3 1.3 0 0 0 .528-.427v-5.062h1.878v6.959h-1.557l-.2-1.03zm6.077-.277c.326 0 .585-.097.778-.292.193-.195.29-.456.29-.782h1.71l.013.039c.017.703-.244 1.291-.784 1.765s-1.21.71-2.007.71c-1.029 0-1.824-.328-2.386-.986-.561-.658-.842-1.5-.842-2.524v-.193c0-1.02.28-1.862.84-2.525.559-.662 1.35-.993 2.375-.993.85 0 1.533.244 2.052.733.519.489.77 1.132.752 1.93l-.013.038h-1.71c0-.36-.096-.66-.286-.897-.191-.238-.456-.357-.795-.357-.484 0-.828.194-1.032.582-.203.388-.305.884-.305 1.489v.193c0 .617.102 1.116.305 1.498.204.382.552.572 1.045.572zm5.717-4.772a2.39 2.39 0 0 1 .804-.742 2.119 2.119 0 0 1 1.055-.267c.724 0 1.294.241 1.707.723.414.483.621 1.228.621 2.235v4.129h-1.878V17.52c0-.54-.087-.923-.26-1.148-.174-.225-.434-.337-.782-.337a1.87 1.87 0 0 0-.749.138 1.293 1.293 0 0 0-.518.395v5.094h-1.877V11.63h1.877v3.955zm8.618 6.213c-1.038 0-1.848-.318-2.431-.955s-.875-1.457-.875-2.46v-.257c0-1.042.283-1.895.85-2.56.565-.664 1.343-.994 2.334-.99.934 0 1.651.286 2.15.858.5.573.75 1.343.75 2.312v.971h-4.148l-.02.039c.03.476.176.862.435 1.158.26.295.644.443 1.154.443.42 0 .777-.043 1.071-.128.294-.086.597-.217.91-.393l.508 1.158c-.279.227-.656.418-1.132.572a5.02 5.02 0 0 1-1.556.232zm-.122-5.775c-.378 0-.668.13-.872.389-.203.26-.327.603-.37 1.032l.013.032h2.29v-.141c0-.408-.084-.728-.251-.962-.167-.233-.437-.35-.81-.35zm9.293 2.244v3.396h-1.878v-9.364h3.582c1.076 0 1.923.275 2.54.823.617.55.926 1.272.926 2.168 0 .896-.309 1.616-.926 2.16-.617.545-1.464.817-2.54.817h-1.704zm0-1.447h1.704c.523 0 .92-.142 1.19-.427.27-.286.405-.649.405-1.09 0-.45-.134-.823-.402-1.116-.268-.294-.666-.44-1.193-.44h-1.704v3.073zm10.405 4.843a3.95 3.95 0 0 1-.177-.502 3.49 3.49 0 0 1-.106-.54c-.193.339-.448.62-.765.842-.318.223-.695.335-1.132.335-.729 0-1.29-.188-1.685-.563-.395-.375-.592-.886-.592-1.534 0-.681.263-1.21.788-1.585s1.292-.563 2.3-.563h1.054V17c0-.334-.088-.593-.264-.778-.176-.184-.437-.276-.784-.276-.305 0-.54.074-.705.222-.165.147-.247.35-.247.607h-1.807l-.013-.038c-.03-.588.226-1.095.768-1.521.543-.427 1.251-.64 2.126-.64.836 0 1.512.21 2.029.63.516.42.775 1.023.775 1.807v2.875c0 .326.024.632.074.92.049.287.127.572.234.855h-1.871zm-1.717-1.254a1.6 1.6 0 0 0 .874-.245c.258-.163.433-.351.528-.566v-.983h-1.055c-.399 0-.7.098-.903.295a.972.972 0 0 0-.306.727c0 .236.076.423.228.563.153.14.364.209.634.209zm8.45-.676c0-.205-.1-.382-.299-.53-.2-.148-.569-.278-1.11-.39-.814-.162-1.432-.409-1.855-.739-.422-.33-.633-.778-.633-1.344 0-.596.253-1.104.759-1.524.506-.42 1.179-.63 2.02-.63.878 0 1.582.21 2.112.63.53.42.783.943.762 1.57l-.013.038H98.56a.91.91 0 0 0-.27-.682c-.18-.176-.44-.264-.778-.264-.3 0-.538.075-.714.226a.7.7 0 0 0-.263.553c0 .214.09.389.273.524.182.135.552.256 1.11.363.853.172 1.488.423 1.906.756.418.332.627.79.627 1.373 0 .626-.268 1.138-.804 1.537-.536.398-1.243.598-2.122.598-.926 0-1.658-.235-2.196-.704-.538-.47-.794-1.005-.769-1.605l.013-.038h1.717c.013.373.135.643.367.81.231.167.534.25.907.25.347 0 .612-.069.794-.208a.678.678 0 0 0 .273-.57z" fill="#000"/></g></svg>