<svg width="300" height="199" viewBox="0 0 300 199" xmlns="http://www.w3.org/2000/svg"><title>French Odd</title><g fill="none" fill-rule="evenodd"><path fill="#F1F2F2" fill-rule="nonzero" d="M0 0h300v199H0z"/><path fill="#F1F2F2" fill-rule="nonzero" d="M0 0h300v199H0z"/><path d="M39.125 55.375V74.75H75.25V55.375H39.125zm0-1H75.25V34h1v20.375h36.125V34h1v20.375H149.5V34h1v20.375h36.125V34h1v20.375h36.125V34h1v20.375h36.125V34h1v20.375H299.5v1h-37.625V74.75H299.5v1h-37.625v19.375H299.5v1h-37.625V115.5H299.5v1h-37.625v19.375H299.5v1h-37.625v19.375H299.5v1h-37.625v19.375H299.5v1h-37.625V199h-1v-21.375H224.75V199h-1v-21.375h-36.125V199h-1v-21.375H150.5V199h-1v-21.375h-36.125V199h-1v-21.375H76.25V199h-1v-21.375H39.125V199h-1v-21.375H1.5v-1h36.625V157.25H1.5v-1h36.625v-19.375H1.5v-1h36.625V116.5H1.5v-1h36.625V96.125H1.5v-1h36.625V75.75H1.5v-1h36.625V55.375H1.5v-1h36.625V34h1v20.375zm221.75 1H224.75V74.75h36.125V55.375zm-37.125 0h-36.125V74.75h36.125V55.375zm-37.125 0H150.5V74.75h36.125V55.375zm-37.125 0h-36.125V74.75H149.5V55.375zm-37.125 0H76.25V74.75h36.125V55.375zM39.125 75.75v19.375H75.25V75.75H39.125zm221.75 0H224.75v19.375h36.125V75.75zm-37.125 0h-36.125v19.375h36.125V75.75zm-37.125 0H150.5v19.375h36.125V75.75zm-37.125 0h-36.125v19.375H149.5V75.75zm-37.125 0H76.25v19.375h36.125V75.75zm-73.25 20.375V115.5H75.25V96.125H39.125zm221.75 0H224.75V115.5h36.125V96.125zm-37.125 0h-36.125V115.5h36.125V96.125zm-37.125 0H150.5V115.5h36.125V96.125zm-37.125 0h-36.125V115.5H149.5V96.125zm-37.125 0H76.25V115.5h36.125V96.125zM39.125 116.5v19.375H75.25V116.5H39.125zm221.75 0H224.75v19.375h36.125V116.5zm-37.125 0h-36.125v19.375h36.125V116.5zm-37.125 0H150.5v19.375h36.125V116.5zm-37.125 0h-36.125v19.375H149.5V116.5zm-37.125 0H76.25v19.375h36.125V116.5zm-73.25 20.375v19.375H75.25v-19.375H39.125zm221.75 0H224.75v19.375h36.125v-19.375zm-37.125 0h-36.125v19.375h36.125v-19.375zm-37.125 0H150.5v19.375h36.125v-19.375zm-37.125 0h-36.125v19.375H149.5v-19.375zm-37.125 0H76.25v19.375h36.125v-19.375zm-73.25 20.375v19.375H75.25V157.25H39.125zm221.75 0H224.75v19.375h36.125V157.25zm-37.125 0h-36.125v19.375h36.125V157.25zm-37.125 0H150.5v19.375h36.125V157.25zm-37.125 0h-36.125v19.375H149.5V157.25zm-37.125 0H76.25v19.375h36.125V157.25z" fill="#DFDEDE" fill-rule="nonzero"/><path stroke="#C2C2C2" stroke-width="2" d="M1 1h298v197H1z"/><path fill="#C2C2C2" fill-rule="nonzero" d="M0 33h300v2H0z"/><g transform="translate(2 43.685)"><path d="M.62 31.544h1.834" stroke="#293052" stroke-width="1.215" stroke-linejoin="round"/><path d="M6.124 31.544h284.199" stroke="#293052" stroke-width="1.215" stroke-linejoin="round" stroke-dasharray="3.646"/><path d="M292.158 31.544h1.796" stroke="#293052" stroke-width="1.215" stroke-linejoin="round"/><path stroke="#293052" stroke-width="3.608" stroke-linecap="round" stroke-linejoin="round" d="M36.058 72.873l37.12-36.46L110.3 87.676l37.006-22.71 37.197 28.553 74.242-62.56"/><path d="M186.07 104.23h-35.4l-5.581-8.296-5.353 8.297h-35.4c-2.64 0-4.779 2.18-4.779 4.869v25.203c0 2.689 2.14 4.869 4.779 4.869h81.735a4.731 4.731 0 0 0 3.453-1.384 4.915 4.915 0 0 0 1.44-3.485v-25.164a4.916 4.916 0 0 0-1.426-3.51 4.731 4.731 0 0 0-3.467-1.398z" fill="#E88024" fill-rule="nonzero"/><ellipse cx="8.437" cy="9.374" rx="8.219" ry="8.609" opacity=".6" transform="translate(250.308 22.17)" fill="#FFF" fill-rule="nonzero"/><ellipse stroke="#E88024" stroke-width="2.43" cx="258.745" cy="31.544" rx="8.219" ry="8.609"/><ellipse cx="8.481" cy="8.855" rx="8.219" ry="8.609" opacity=".6" transform="translate(27.577 64.018)" fill="#FFF" fill-rule="nonzero"/><ellipse stroke="#E88024" stroke-width="2.43" cx="36.058" cy="72.873" rx="8.219" ry="8.609"/><path fill="#E88024" fill-rule="nonzero" d="M246.053.81h25.346v16.983h-25.346z"/><path fill="#E88024" fill-rule="nonzero" d="M256.31 17.796l2.407-2.406 2.451 2.452-2.406 2.406z"/><path d="M255.954 9.963l.612-5.804h5.2v1.286h-3.824l-.612 3.038c.223-.174.468-.318.727-.428.303-.053.614-.053.917 0a2.765 2.765 0 0 1 2.256.935c.568.742.853 1.67.803 2.61a3.944 3.944 0 0 1-.841 2.57 3.028 3.028 0 0 1-2.447.974 3.286 3.286 0 0 1-2.18-.74 2.556 2.556 0 0 1-.84-2.142h1.261c-.024.493.156.974.497 1.324.344.32.797.488 1.262.468a1.63 1.63 0 0 0 1.376-.624c.356-.51.53-1.128.497-1.753a2.645 2.645 0 0 0-.497-1.675 1.632 1.632 0 0 0-1.376-.662 2.184 2.184 0 0 0-1.185.273c-.26.19-.449.465-.535.779l-1.07-.429z" fill="#FFF" fill-rule="nonzero"/><path fill="#D5D3DA" fill-rule="nonzero" d="M134.728 33.608h25.347v16.984h-25.347z"/><path fill="#D5D3DA" fill-rule="nonzero" d="M144.959 50.574l2.406-2.406 2.451 2.452-2.406 2.406z"/><path d="M150.861 47.437h-6.728v-.896l3.402-3.896a9.646 9.646 0 0 0 1.376-1.597 2.618 2.618 0 0 0 0-1.402 2.01 2.01 0 0 0-.458-1.324 1.48 1.48 0 0 0-1.185-.546 2.04 2.04 0 0 0-1.568.546 2.248 2.248 0 0 0-.497 1.558h-1.223a3.03 3.03 0 0 1 .88-2.299 3.478 3.478 0 0 1 2.56-.934 2.987 2.987 0 0 1 2.218.818c.555.551.86 1.313.84 2.103a3.436 3.436 0 0 1-.496 1.714 11.04 11.04 0 0 1-1.415 1.87l-2.714 3h5.008v1.285z" fill="#293052" fill-rule="nonzero"/><path fill="#D5D3DA" fill-rule="nonzero" d="M23.366 41.788h25.346v16.984H23.366z"/><path fill="#D5D3DA" fill-rule="nonzero" d="M33.623 58.766l2.406-2.406 2.451 2.451-2.406 2.406z"/><path fill="#293052" fill-rule="nonzero" d="M36.822 55.695h-1.414V46.54h-2.14v-1.013l3.516-.39v10.557z"/></g><g fill="#2A3052" fill-rule="nonzero"><path d="M55.248 130.975v1.772h1.383v.992h-1.383v4.43c0 .355.071.568.213.71.142.141.319.212.567.212.07 0 .142 0 .248-.035a.512.512 0 0 0 .248-.071l.177.921a2.36 2.36 0 0 1-.425.213c-.177.035-.39.07-.567.07a1.737 1.737 0 0 1-1.276-.495c-.319-.32-.46-.851-.46-1.525v-4.43h-1.135v-.992h1.134v-1.772h1.276zM36.796 136.98h-4.924c.127 1.5.743 2.25 1.849 2.25 1.658 0 1.889-1.407 1.889-1.318l1.089-.005c-.53 1.522-1.524 2.284-2.978 2.284-2.183 0-2.948-1.544-3.04-3.211-.092-1.667.463-3.905 3.058-3.905 2.127.04 3.146 1.341 3.057 3.905zm-1.235-.887c-.124-1.325-.74-1.987-1.85-1.987-1.108 0-1.725.662-1.849 1.987h3.7zM50.103 132.886h1.262v7.14h-1.262v-1.06c-.4.518-1.06 1.35-2.385 1.21-1.324-.141-2.144-1.18-2.15-2.325-.005-1.146.006-5.353 0-4.965h1.251v2.705c0 3.164.696 3.514 1.648 3.514.951 0 1.417-.803 1.636-1.071-.01-1.504-.01-3.22 0-5.148zM38.044 129.692h1.252v4.16c.362-.735 1.041-1.101 2.039-1.101 1.496 0 1.968.903 2.15 1.162.183.26.548 1.003.648 2.192.087 1.032-.16 2.636-.874 3.264-.942.827-1.548.822-2.053.822-.506 0-1.456-.243-1.985-1.148l-.182.969h-.995v-10.32zm1.308 8.292c.375.754.878 1.131 1.508 1.131.946 0 1.287-.268 1.598-.74.355-.542.432-1.598.358-2.41a4.156 4.156 0 0 0-.358-1.3c-.088-.173-.37-.93-1.598-.874-1.018.01-1.478.91-1.508 1.083v3.11zM35.984 129.692l-1.82 1.787h-.974l1.232-1.787zM22.192 130.681h3.567c1.416.215 3.66.77 3.66 4.755s-2.294 4.576-3.614 4.755h-3.613v-9.51zm1.263 1.004v7.545h1.806c.347 0 2.362-.003 2.7-2.325.338-2.321-.024-3.233-.306-3.82-.283-.586-1.025-1.4-2.394-1.4h-1.806z"/></g><g fill="#2A3052" fill-rule="nonzero"><path d="M265.073 96.098l.119 1.23a2.68 2.68 0 0 1 2.379-1.349c.872 0 1.546.238 2.022.793.476.516.714 1.309.714 2.38v5.154h-1.467V99.19c0-.714-.159-1.23-.436-1.546-.278-.318-.714-.437-1.27-.437a2.03 2.03 0 0 0-1.11.318 2.29 2.29 0 0 0-.792.832v5.948h-1.467v-8.168l1.308-.04zM258.496 93.983v1.057h-5.066v3.587h4.316v1.087h-4.316v4.592h-1.487V93.983zM260.185 97.411h1.426v6.915h-1.426zM260.09 94.149v1.485h1.56V94.15z"/></g><g fill="#020202" fill-rule="nonzero"><path d="M20.995 18.626l.013.038c.016.98-.272 1.75-.863 2.305-.591.556-1.407.833-2.448.833-1.061 0-1.918-.354-2.57-1.064-.652-.709-.978-1.626-.978-2.75v-1.825c0-1.12.318-2.036.954-2.75.636-.713 1.47-1.07 2.503-1.07 1.077 0 1.92.274 2.527.82.607.548.903 1.319.887 2.312l-.012.038h-1.726c0-.59-.136-1.028-.41-1.317-.273-.288-.695-.432-1.266-.432-.53 0-.945.222-1.243.666-.297.444-.446 1.018-.446 1.72v1.838c0 .708.157 1.284.47 1.73.315.447.751.67 1.31.67.53 0 .926-.144 1.187-.433.262-.288.392-.731.392-1.329h1.72zm2.88-2.924c.206-.311.46-.554.76-.729.299-.175.631-.262.996-.262.684 0 1.222.237 1.612.71.391.474.587 1.205.587 2.195v4.054h-1.774v-4.067c0-.53-.082-.906-.246-1.127-.164-.221-.41-.332-.738-.332-.272 0-.508.046-.708.136-.2.09-.364.22-.49.389v5h-1.773v-9.85h1.774v3.883zm7.156 5.968h-1.774v-6.833h1.774v6.833zm0-8.468h-1.774v-1.383h1.774v1.383zm1.92 8.468v-5.538h-.978v-1.295h.978v-.757c0-.767.212-1.357.637-1.772.426-.414 1.023-.622 1.793-.622.15 0 .302.012.458.035.156.023.327.056.513.098l-.151 1.37a8.46 8.46 0 0 0-.283-.044 2.353 2.353 0 0 0-.319-.019c-.287 0-.505.082-.653.246-.148.164-.222.4-.222.708v.757h1.264v1.295h-1.264v5.538h-1.773zm4.337 0v-5.538h-.978v-1.295h.978v-.757c0-.767.213-1.357.638-1.772.425-.414 1.022-.622 1.792-.622.15 0 .303.012.459.035.155.023.327.056.513.098l-.152 1.37a8.46 8.46 0 0 0-.282-.044 2.353 2.353 0 0 0-.32-.019c-.287 0-.505.082-.652.246-.148.164-.222.4-.222.708v.757h1.263v1.295h-1.263v5.538h-1.774zm7.332-5.248l-.65-.019c-.263 0-.48.057-.65.17-.17.114-.3.274-.389.48v4.617h-1.767v-6.833h1.646l.079 1.01c.154-.357.353-.636.598-.836.245-.2.528-.3.848-.3.089 0 .17.007.246.022.075.015.15.033.228.054l-.189 1.635zm3.657 5.38c-.98 0-1.745-.312-2.296-.937-.55-.626-.826-1.43-.826-2.416v-.252c0-1.023.267-1.861.802-2.514.534-.652 1.27-.976 2.205-.972.883 0 1.56.281 2.032.843.472.562.708 1.319.708 2.27v.954h-3.919l-.018.038c.028.467.165.846.41 1.136.245.29.609.436 1.09.436.397 0 .735-.042 1.012-.126.277-.085.564-.213.86-.386l.48 1.137c-.264.223-.62.41-1.07.562-.45.152-.94.227-1.47.227zm-.115-5.67c-.357 0-.63.127-.823.382-.193.255-.31.592-.35 1.013l.013.032h2.162v-.139c0-.4-.079-.715-.237-.944-.158-.23-.413-.344-.765-.344zM56.978 21.537h-1.774v-9.194h1.774v9.194zm3.269-6.832l.072.903c.211-.329.475-.582.793-.761a2.21 2.21 0 0 1 1.103-.269c.421 0 .781.097 1.081.29.3.195.527.487.68.879a2.33 2.33 0 0 1 .79-.86c.324-.205.705-.309 1.142-.309.648 0 1.16.24 1.534.717.375.478.562 1.207.562 2.188v4.054H66.23v-4.06c0-.547-.08-.928-.243-1.143-.162-.215-.403-.322-.723-.322-.25 0-.468.058-.653.173a1.246 1.246 0 0 0-.44.484c0 .08.002.148.006.205.004.057.006.114.006.173v4.49h-1.768v-4.06c0-.535-.08-.913-.243-1.134-.162-.22-.405-.331-.729-.331-.239 0-.448.047-.628.142a1.22 1.22 0 0 0-.447.4v4.983H58.6v-6.832h1.647zm15.047 3.605c0 1.01-.225 1.823-.675 2.438-.45.614-1.077.922-1.883.922-.344 0-.65-.067-.917-.2a1.901 1.901 0 0 1-.686-.583v3.277h-1.768v-9.46h1.597l.104.809c.194-.299.428-.53.701-.691a1.84 1.84 0 0 1 .957-.244c.814 0 1.446.33 1.895.992.45.66.675 1.53.675 2.608v.132zm-1.774-.132c0-.644-.103-1.166-.31-1.566-.206-.4-.522-.6-.948-.6-.267 0-.495.057-.683.17a1.197 1.197 0 0 0-.446.487v2.993c.109.193.258.34.446.442.188.1.42.151.696.151.429 0 .744-.174.944-.524.2-.35.3-.823.3-1.42v-.133zm6.743 3.36a3.981 3.981 0 0 1-.167-.493 3.546 3.546 0 0 1-.1-.53 2.495 2.495 0 0 1-.723.826c-.3.22-.656.329-1.07.329-.688 0-1.218-.184-1.591-.553-.373-.368-.559-.87-.559-1.506 0-.67.248-1.188.744-1.556.496-.369 1.22-.553 2.172-.553h.996v-.543c0-.328-.083-.583-.249-.764-.166-.181-.413-.272-.74-.272-.288 0-.51.073-.666.218-.156.146-.234.344-.234.597h-1.707l-.012-.038c-.029-.577.213-1.074.726-1.493.512-.42 1.181-.629 2.007-.629.79 0 1.43.207 1.917.62.488.412.732 1.003.732 1.774v2.822c0 .32.023.621.07.903.047.282.12.562.222.84h-1.768zm-1.622-1.232c.308 0 .583-.08.826-.24.243-.16.41-.345.498-.556v-.966h-.996c-.377 0-.661.097-.854.29a.973.973 0 0 0-.288.714c0 .232.072.416.216.553.143.136.343.205.598.205zm6.293 1.231h-1.773v-6.832h1.773v6.832zm0-8.468h-1.773v-1.383h1.773v1.383zm4.915 3.22l-.65-.018c-.263 0-.48.057-.65.17-.17.114-.3.274-.389.48v4.616h-1.768v-6.832h1.647l.079 1.01c.153-.358.353-.637.598-.837.245-.2.527-.3.847-.3.09 0 .171.008.246.022.075.015.151.033.228.054l-.188 1.636z"/></g><g fill="#FFF" fill-rule="nonzero"><path d="M177.4 166.413h-6.018c.132 2.779 1.852 3.45 5.158 2.015l.702 1.352c-.62.508-1.32.847-2.1 1.017-1.637.355-3.234.083-4.342-.734-2.402-1.772-1.789-5.493-1.26-6.776.248-.599 1.466-2.289 2.913-2.452 1.312-.148 4.559-.46 4.947 3.905.031.888.031 1.446 0 1.673zm-2.127-1.81c.001-1.553-.613-2.33-1.843-2.33-1.845 0-2.032 2.33-2.032 2.33h3.875zM126.228 160.724h2.13v9.835h-2.13zM126.27 156.431v2.13h2.15v-2.13zM158.66 160.876h2.17v10.13h-2.17zM158.703 156.454v1.923h2.215v-1.923zM122.284 157.41h2.426l-4.783 13.524h-2.239l-4.722-13.525h2.438l3.434 10.756zM136.907 164.429c.915.002 1.6.002 2.055 0 0-1.077-.736-3.939-4.163-3.815-3.427.123-4.265 3.203-4.265 5.245 0 2.043 1.041 5.246 4.394 5.246s4.034-2.55 4.034-3.532h-2.055c-.124 1.135-.776 1.703-1.956 1.703-1.77 0-2.168-2.08-2.168-3.417 0-1.336.253-3.326 2.016-3.42 1.176-.062 1.878.601 2.108 1.99zM141.475 158.393h2.242v2.46h1.804v1.625h-1.804v5.533c0 .375.002 1.506 1.631 1.082.12.791.207 1.341.263 1.65-.582.355-4.136 1.116-4.136-2.732v-5.533h-1.539v-1.625h1.54v-2.46zM151.511 160.765c2.8 0 4.318 1.707 4.702 4.264.384 2.556-.997 6.168-4.505 6.168s-4.642-2.668-4.642-5.428 1.646-5.004 4.445-5.004zm.026 1.792c-.833.078-2.307.66-2.22 3.42.085 2.761 1.292 3.41 2.22 3.41.927 0 2.491-.258 2.491-3.397 0-3.14-1.66-3.512-2.491-3.433zM168.282 160.717c-.092.867-.192 1.58-.301 2.14-1.091-.072-2.224-.175-2.72 1.1l.014 6.858h-2.245v-10.019h1.997c.096.67.155 1.157.179 1.463.69-1.289 1.716-1.803 3.076-1.542z"/><g><path d="M179.736 157.363h2.105v8.818h-2.105zM181.92 168.763v2.033h-2.176v-2.033z"/></g></g></g></svg>