<?xml version="1.0" encoding="UTF-8"?>
<svg width="299px" height="197px" viewBox="0 0 299 197" version="1.1" xmlns="http://www.w3.org/2000/svg" xmlns:xlink="http://www.w3.org/1999/xlink">
    <!-- Generator: Sketch 52.6 (67491) - http://www.bohemiancoding.com/sketch -->
    <title>reset put</title>
    <desc>Created with Sketch.</desc>
    <g id="Page-1" stroke="none" stroke-width="1" fill="none" fill-rule="evenodd">
        <g id="reset-put">
            <g id="Group">
                <polygon id="Path" fill="#F1F2F2" points="0 0 299 0 299 197 0 197"></polygon>
                <path d="M1.98671096,1.9798995 L1.98671096,195.020101 L297.013289,195.020101 L297.013289,1.9798995 L1.98671096,1.9798995 Z M299,0 L299,197 L0,197 L0,0 L299,0 Z" id="Path" fill="#C2C2C2" fill-rule="nonzero"></path>
                <path d="M9.76533333,57.5970952 L9.76533333,56.4295714 L289.587556,56.4295714 L289.587556,57.5970952 L9.76533333,57.5970952 Z M9.76533333,96.7722063 L9.76533333,95.6046825 L289.587556,95.6046825 L289.587556,96.7722063 L9.76533333,96.7722063 Z M9.76533333,135.947318 L9.76533333,134.779794 L289.587556,134.779794 L289.587556,135.947318 L9.76533333,135.947318 Z M9.76533333,175.086873 L9.76533333,173.919349 L289.587556,173.919349 L289.587556,175.086873 L9.76533333,175.086873 Z M42.977127,37.4435556 L44.1446508,37.4435556 L44.1446508,191.761778 L42.977127,191.761778 L42.977127,37.4435556 Z M78.3975714,37.4435556 L79.5650952,37.4435556 L79.5650952,191.761778 L78.3975714,191.761778 L78.3975714,37.4435556 Z M113.78246,37.4435556 L114.949984,37.4435556 L114.949984,191.761778 L113.78246,191.761778 L113.78246,37.4435556 Z" id="Shape" fill="#DFDEDE" fill-rule="nonzero"></path>
                <path d="M149.202905,37.4435556 L150.370429,37.4435556 L150.370429,43.3167698 L149.202905,43.3167698 L149.202905,37.4435556 Z M149.202905,49.189984 L150.370429,49.189984 L150.370429,55.0631983 L149.202905,55.0631983 L149.202905,49.189984 Z M149.202905,60.9364125 L150.370429,60.9364125 L150.370429,66.8096268 L149.202905,66.8096268 L149.202905,60.9364125 Z M149.202905,72.682841 L150.370429,72.682841 L150.370429,78.5560553 L149.202905,78.5560553 L149.202905,72.682841 Z M149.202905,84.4292695 L150.370429,84.4292695 L150.370429,90.3024838 L149.202905,90.3024838 L149.202905,84.4292695 Z M149.202905,96.175698 L150.370429,96.175698 L150.370429,102.048912 L149.202905,102.048912 L149.202905,96.175698 Z M149.202905,107.922126 L150.370429,107.922126 L150.370429,113.795341 L149.202905,113.795341 L149.202905,107.922126 Z M149.202905,119.668555 L150.370429,119.668555 L150.370429,125.541769 L149.202905,125.541769 L149.202905,119.668555 Z M149.202905,131.414983 L150.370429,131.414983 L150.370429,137.288198 L149.202905,137.288198 L149.202905,131.414983 Z M149.202905,143.161412 L150.370429,143.161412 L150.370429,149.034626 L149.202905,149.034626 L149.202905,143.161412 Z M149.202905,154.90784 L150.370429,154.90784 L150.370429,160.781055 L149.202905,160.781055 L149.202905,154.90784 Z M149.202905,166.654269 L150.370429,166.654269 L150.370429,172.527483 L149.202905,172.527483 L149.202905,166.654269 Z M149.202905,178.400697 L150.370429,178.400697 L150.370429,184.273912 L149.202905,184.273912 L149.202905,178.400697 Z M149.202905,190.147126 L150.370429,190.147126 L150.370429,191.761778 L149.202905,191.761778 L149.202905,190.147126 Z" id="Path" fill="#E98024" fill-rule="nonzero"></path>
                <path d="M184.584238,37.4435556 L185.751762,37.4435556 L185.751762,191.761778 L184.584238,191.761778 L184.584238,37.4435556 Z M219.969127,37.4435556 L221.136651,37.4435556 L221.136651,191.761778 L219.969127,191.761778 L219.969127,37.4435556 Z M9.76533333,116.341984 L9.76533333,115.17446 L289.587556,115.17446 L289.587556,116.341984 L9.76533333,116.341984 Z" id="Shape" fill="#DFDEDE" fill-rule="nonzero"></path>
                <path d="M255.389571,37.4435556 L256.557095,37.4435556 L256.557095,191.761778 L255.389571,191.761778 L255.389571,37.4435556 Z M9.76533333,77.2024286 L9.76533333,76.0349048 L289.587556,76.0349048 L289.587556,77.2024286 L9.76533333,77.2024286 Z" id="Shape" fill="#2A3052" fill-rule="nonzero"></path>
                <path d="M9.76533333,155.517095 L9.76533333,154.349571 L15.6385476,154.349571 L15.6385476,155.517095 L9.76533333,155.517095 Z M21.5117618,155.517095 L21.5117618,154.349571 L27.3849761,154.349571 L27.3849761,155.517095 L21.5117618,155.517095 Z M33.2581903,155.517095 L33.2581903,154.349571 L39.1314046,154.349571 L39.1314046,155.517095 L33.2581903,155.517095 Z M45.0046188,155.517095 L45.0046188,154.349571 L50.877833,154.349571 L50.877833,155.517095 L45.0046188,155.517095 Z M56.7510473,155.517095 L56.7510473,154.349571 L62.6242615,154.349571 L62.6242615,155.517095 L56.7510473,155.517095 Z M68.4974758,155.517095 L68.4974758,154.349571 L74.37069,154.349571 L74.37069,155.517095 L68.4974758,155.517095 Z M80.2439043,155.517095 L80.2439043,154.349571 L86.1171185,154.349571 L86.1171185,155.517095 L80.2439043,155.517095 Z M91.9903328,155.517095 L91.9903328,154.349571 L97.863547,154.349571 L97.863547,155.517095 L91.9903328,155.517095 Z M103.736761,155.517095 L103.736761,154.349571 L109.609975,154.349571 L109.609975,155.517095 L103.736761,155.517095 Z M115.48319,155.517095 L115.48319,154.349571 L121.356404,154.349571 L121.356404,155.517095 L115.48319,155.517095 Z M127.229618,155.517095 L127.229618,154.349571 L133.102832,154.349571 L133.102832,155.517095 L127.229618,155.517095 Z M138.976047,155.517095 L138.976047,154.349571 L144.849261,154.349571 L144.849261,155.517095 L138.976047,155.517095 Z M150.722475,155.517095 L150.722475,154.349571 L156.595689,154.349571 L156.595689,155.517095 L150.722475,155.517095 Z M162.468904,155.517095 L162.468904,154.349571 L168.342118,154.349571 L168.342118,155.517095 L162.468904,155.517095 Z M174.215332,155.517095 L174.215332,154.349571 L180.088546,154.349571 L180.088546,155.517095 L174.215332,155.517095 Z M185.961761,155.517095 L185.961761,154.349571 L191.834975,154.349571 L191.834975,155.517095 L185.961761,155.517095 Z M197.708189,155.517095 L197.708189,154.349571 L203.581403,154.349571 L203.581403,155.517095 L197.708189,155.517095 Z M209.454618,155.517095 L209.454618,154.349571 L215.327832,154.349571 L215.327832,155.517095 L209.454618,155.517095 Z M221.201046,155.517095 L221.201046,154.349571 L227.07426,154.349571 L227.07426,155.517095 L221.201046,155.517095 Z M232.947475,155.517095 L232.947475,154.349571 L238.820689,154.349571 L238.820689,155.517095 L232.947475,155.517095 Z M244.693903,155.517095 L244.693903,154.349571 L250.567117,154.349571 L250.567117,155.517095 L244.693903,155.517095 Z M256.440332,155.517095 L256.440332,154.349571 L262.313546,154.349571 L262.313546,155.517095 L256.440332,155.517095 Z M268.18676,155.517095 L268.18676,154.349571 L274.059974,154.349571 L274.059974,155.517095 L268.18676,155.517095 Z M279.933189,155.517095 L279.933189,154.349571 L285.806403,154.349571 L285.806403,155.517095 L279.933189,155.517095 Z" id="Path" fill="#E98024" fill-rule="nonzero"></path>
                <polygon id="Path" fill="#C2C2C2" fill-rule="nonzero" points="2 37.4555238 2 35.1204762 297 35.1204762 297 37.4555238"></polygon>
                <path d="M44.1697382,155.022191 C43.4647949,155.68442 42.3564829,155.649793 41.694254,154.944849 C41.0320252,154.239906 41.066652,153.131594 41.7715952,152.469365 L81.8498174,114.819587 C82.2809938,114.414537 82.8875204,114.254549 83.462384,114.394229 L120.404328,123.370359 L147.556564,74.6637142 C148.092205,73.702862 149.370683,73.4679738 150.212881,74.1756828 L185.173538,103.553561 L219.866029,101.636272 C220.217147,101.616867 220.565974,101.703615 220.867103,101.885223 L256.287547,123.247001 C257.115789,123.746507 257.382283,124.82286 256.882777,125.651103 C256.38327,126.479345 255.306917,126.745839 254.478675,126.246332 L219.520406,105.163289 L184.674416,107.089062 C184.229618,107.113644 183.79217,106.967795 183.451119,106.681206 L149.583224,78.2215887 L122.814991,126.239397 C122.4317,126.926957 121.636761,127.274298 120.871838,127.088437 L83.5568342,118.021662 L44.1697382,155.022191 Z" id="Path" fill="#2A3052" fill-rule="nonzero"></path>
                <g opacity="0.6" transform="translate(247.222222, 115.222222)" fill="#FFFFFF" id="Oval">
                    <circle cx="8.1608889" cy="8.18755556" r="7.83644444"></circle>
                </g>
                <path d="M255.383111,132.390609 C250.423135,132.390609 246.40228,128.369754 246.40228,123.409778 C246.40228,118.449802 250.423135,114.428946 255.383111,114.428946 C260.343087,114.428946 264.363942,118.449802 264.363942,123.409778 C264.363942,128.369754 260.343087,132.390609 255.383111,132.390609 Z M255.383111,130.101835 C259.079032,130.101835 262.075169,127.105699 262.075169,123.409778 C262.075169,119.713856 259.079032,116.71772 255.383111,116.71772 C251.68719,116.71772 248.691053,119.713856 248.691053,123.409778 C248.691053,127.105699 251.68719,130.101835 255.383111,130.101835 Z" id="Oval" fill="#E88024" fill-rule="nonzero"></path>
                <g opacity="0.6" transform="translate(34.444444, 145.666667)" fill="#FFFFFF" id="Oval">
                    <circle cx="8.52622222" cy="8.2284444" r="7.83644444"></circle>
                </g>
                <path d="M42.9706667,162.875942 C38.0106905,162.875942 33.9898354,158.855087 33.9898354,153.895111 C33.9898354,148.935135 38.0106905,144.91428 42.9706667,144.91428 C47.9306429,144.91428 51.951498,148.935135 51.951498,153.895111 C51.951498,158.855087 47.9306429,162.875942 42.9706667,162.875942 Z M42.9706667,160.587169 C46.666588,160.587169 49.6627242,157.591032 49.6627242,153.895111 C49.6627242,150.19919 46.666588,147.203053 42.9706667,147.203053 C39.2747454,147.203053 36.2786092,150.19919 36.2786092,153.895111 C36.2786092,157.591032 39.2747454,160.587169 42.9706667,160.587169 Z" id="Oval" fill="#E88024" fill-rule="nonzero"></path>
                <g opacity="0.6" transform="translate(140.555556, 68.000000)" fill="#FFFFFF" id="Oval">
                    <circle cx="8.0257778" cy="8.64355556" r="7.83644444"></circle>
                </g>
                <path d="M148.581333,85.6243869 C143.621357,85.6243869 139.600502,81.6035318 139.600502,76.6435556 C139.600502,71.6835794 143.621357,67.6627243 148.581333,67.6627243 C153.541309,67.6627243 157.562164,71.6835794 157.562164,76.6435556 C157.562164,81.6035318 153.541309,85.6243869 148.581333,85.6243869 Z M148.581333,83.3356131 C152.277254,83.3356131 155.273391,80.3394769 155.273391,76.6435556 C155.273391,72.9476343 152.277254,69.9514981 148.581333,69.9514981 C144.885412,69.9514981 141.889275,72.9476343 141.889275,76.6435556 C141.889275,80.3394769 144.885412,83.3356131 148.581333,83.3356131 Z" id="Oval" fill="#E88024" fill-rule="nonzero"></path>
                <path d="M258.650667,150.919111 L221.523556,150.919111 L216.243556,143.022222 L210.963556,150.922667 L173.822222,150.922667 C171.269439,150.922667 169.2,152.992106 169.2,155.544889 L169.2,179.420444 C169.2,181.973227 171.269439,184.042667 173.822222,184.042667 L258.650667,184.042667 C261.20345,184.042667 263.272889,181.973227 263.272889,179.420444 L263.272889,155.541333 C263.272889,152.98855 261.20345,150.919111 258.650667,150.919111 Z" id="Path" fill="#E88024"></path>
            </g>
            <path d="M17.037,18.0955137 L17.037,22.1445137 L15,22.1445137 L15,12.0075137 L18.825,12.0075137 C19.7929768,11.9495495 20.7511903,12.2283218 21.537,12.7965137 C22.201,13.3365137 22.566,14.1635137 22.518,15.0185137 C22.528,15.5005137 22.384,15.9725137 22.107,16.3665137 C21.7954632,16.7735014 21.3793519,17.0883497 20.903,17.2775137 C21.4269051,17.4045032 21.8859504,17.7194296 22.193,18.1625137 C22.469,18.6245137 22.606,19.1555137 22.588,19.6925137 L22.588,20.4325137 C22.59,20.7325137 22.628,21.0315137 22.7,21.3225137 C22.753,21.5875137 22.892,21.8285137 23.096,22.0075137 L23.096,22.1515137 L21,22.1515137 C20.788667,21.9596442 20.6566958,21.6957018 20.63,21.4115137 C20.5784242,21.0817155 20.553344,20.7483163 20.555,20.4145137 L20.555,19.6925137 C20.5815028,19.2599052 20.4318066,18.8349844 20.14,18.5145137 C19.8271741,18.2197663 19.4058856,18.0683488 18.977,18.0965137 L17.037,18.0965137 L17.037,18.0955137 Z M17.037,16.5255137 L18.792,16.5255137 C19.249,16.5595137 19.702,16.4285137 20.07,16.1555137 C20.367,15.8815137 20.522,15.4875137 20.492,15.0855137 C20.5126076,14.672506 20.3596033,14.2696915 20.07,13.9745137 C19.7259677,13.67767 19.278193,13.5294908 18.825,13.5625137 L17.037,13.5625137 L17.037,16.5255137 Z M27.592,22.2885137 C26.6186788,22.3305192 25.6743551,21.9516239 25,21.2485137 C24.3379994,20.5258803 23.9867224,19.5719009 24.022,18.5925137 L24.022,18.3145137 C23.9819135,17.3111948 24.311408,16.3280485 24.948,15.5515137 C25.5618336,14.8289357 26.4747553,14.4300398 27.422,14.4705137 C28.3074699,14.4175664 29.1718293,14.7543962 29.788,15.3925137 C30.379,16.0815137 30.682,16.9715137 30.633,17.8775137 L30.633,18.9885137 L26.129,18.9885137 L26.129,19.0295137 C26.149,19.4825137 26.326,19.9145137 26.629,20.2515137 C26.9407841,20.5661225 27.371608,20.7333622 27.814,20.7115137 C28.189,20.7195137 28.564,20.6735137 28.925,20.5745137 C29.265,20.4665137 29.591,20.3225137 29.9,20.1445137 L30.451,21.4045137 C30.089032,21.6829617 29.680297,21.8946099 29.244,22.0295137 C28.7110295,22.2049986 28.1531076,22.2928071 27.592,22.2895137 L27.592,22.2885137 Z M27.418,16.0405137 C27.0684739,16.0264968 26.7349984,16.1877954 26.529,16.4705137 C26.2870493,16.8034845 26.1423375,17.1971144 26.111,17.6075137 L26.133,17.6405137 L28.625,17.6405137 L28.625,17.4595137 C28.6437051,17.0895834 28.5369372,16.7241763 28.322,16.4225137 C28.0962862,16.1617776 27.7622893,16.0206417 27.418,16.0405137 Z M35.885,20.0705137 C35.8799151,19.8375066 35.7591962,19.622312 35.563,19.4965137 C35.1933687,19.2750593 34.7846232,19.1267023 34.359,19.0595137 C33.6355181,18.9485093 32.9465987,18.6749929 32.344,18.2595137 C31.896,17.9125137 31.644,17.3695137 31.666,16.8035137 C31.6676139,16.156649 31.9703753,15.5474295 32.485,15.1555137 C33.1111905,14.6768232 33.8867642,14.4355415 34.674,14.4745137 C35.4928395,14.4322803 36.3015241,14.6711457 36.966,15.1515137 C37.5095268,15.5466104 37.8183223,16.1882438 37.788,16.8595137 L37.788,16.8965137 L35.822,16.8965137 C35.8341684,16.6206299 35.7309028,16.3521394 35.537,16.1555137 C35.303164,15.9513855 34.9976404,15.8488246 34.688,15.8705137 C34.4088419,15.8567019 34.133741,15.9416752 33.911,16.1105137 C33.7302081,16.2586177 33.6264659,16.4808171 33.629,16.7145137 C33.6269584,16.9418625 33.7378532,17.1554101 33.925,17.2845137 C34.295,17.4945137 34.703,17.6295137 35.125,17.6815137 C35.8629928,17.7898826 36.5663317,18.06595 37.181,18.4885137 C37.629,18.8465137 37.88,19.3975137 37.855,19.9705137 C37.863194,20.6358989 37.5362699,21.2608125 36.985,21.6335137 C36.3090489,22.0904099 35.5028247,22.3150435 34.688,22.2735137 C33.8292426,22.321798 32.9828618,22.0515401 32.311,21.5145137 C31.7724195,21.1012256 31.4627385,20.4562424 31.477,19.7775137 L31.477,19.7375137 L33.329,19.7375137 C33.314,20.0755137 33.461,20.4005137 33.725,20.6115137 C34.015,20.8035137 34.359,20.8975137 34.707,20.8815137 C35.009,20.9025137 35.311,20.8255137 35.567,20.6625137 C35.7649067,20.530391 35.8841149,20.3084689 35.885,20.0705137 Z M42.503,22.2885137 C41.5298354,22.3296038 40.5858746,21.9508541 39.911,21.2485137 C39.2514776,20.5246289 38.9018232,19.5711564 38.937,18.5925137 L38.937,18.3145137 C38.8971912,17.3119066 39.2250819,16.3293013 39.859,15.5515137 C41.1541844,14.1731928 43.3202166,14.1020947 44.703,15.3925137 C45.291,16.0825137 45.592,16.9725137 45.544,17.8775137 L45.544,18.9885137 L41.033,18.9885137 L41.033,19.0295137 C41.053,19.4815137 41.228,19.9135137 41.529,20.2515137 C41.842,20.5775137 42.281,20.7515137 42.733,20.7295137 C43.108,20.7395137 43.483,20.6925137 43.844,20.5925137 C44.184,20.4835137 44.512,20.3395137 44.822,20.1625137 L45.37,21.4225137 C45.0087827,21.7006427 44.6011514,21.9125839 44.166,22.0485137 C43.629,22.2185137 43.067,22.2995137 42.503,22.2885137 Z M42.318,16.0405137 C41.9686234,16.0272131 41.6354671,16.1883573 41.429,16.4705137 C41.1937759,16.8058949 41.0541316,17.1989035 41.025,17.6075137 L41.044,17.6405137 L43.537,17.6405137 L43.537,17.4595137 C43.5547905,17.0901401 43.4492542,16.7253363 43.237,16.4225137 C43.0080182,16.1574219 42.6674251,16.0158478 42.318,16.0405137 Z M49.129,12.7665137 L49.129,14.6185137 L50.396,14.6185137 L50.396,16.0485137 L49.129,16.0485137 L49.129,19.8745137 C49.109,20.0995137 49.174,20.3245137 49.311,20.5045137 C49.441,20.6415137 49.625,20.7175137 49.814,20.7115137 C49.906,20.7175137 49.997,20.7175137 50.088,20.7115137 C50.178,20.6965137 50.268,20.6745137 50.355,20.6485137 L50.533,22.1295137 C50.3363278,22.193562 50.135962,22.2456571 49.933,22.2855137 C49.723,22.3205137 49.512,22.3365137 49.3,22.3335137 C48.704188,22.3742195 48.1181114,22.166432 47.681,21.7595137 C47.2537356,21.2417565 47.0488057,20.5759142 47.111,19.9075137 L47.111,16.0405137 L46,16.0405137 L46,14.6105137 L47.11,14.6105137 L47.11,12.7595137 L49.13,12.7665137 L49.129,12.7665137 Z M57.444,18.4665137 L57.444,22.1445137 L55.411,22.1445137 L55.411,12.0075137 L59.444,12.0075137 C60.4388006,11.9508729 61.4188736,12.2679344 62.192,12.8965137 C62.8609851,13.4896355 63.2293372,14.3510803 63.196,15.2445137 C63.2306345,16.1358785 62.8618432,16.995412 62.192,17.5845137 C61.4171657,18.2092944 60.4377067,18.5236623 59.444,18.4665137 L57.444,18.4665137 Z M57.444,16.8995137 L59.444,16.8995137 C59.919,16.9355137 60.386,16.7675137 60.729,16.4365137 C61.0261121,16.1181554 61.1844119,15.6947034 61.169,15.2595137 C61.1897875,14.8140848 61.0358608,14.3781384 60.74,14.0445137 C60.3971349,13.7064683 59.9238503,13.5348296 59.444,13.5745137 L57.444,13.5745137 L57.444,16.8995137 Z M69.133,21.0595137 C68.922,21.4345137 68.618,21.7495137 68.251,21.9745137 C67.2333411,22.5226452 65.9770808,22.3420781 65.155,21.5295137 C64.6528201,20.8463311 64.4148338,20.0044988 64.485,19.1595137 L64.485,14.6115137 L66.511,14.6115137 L66.511,19.1855137 C66.4761245,19.5985673 66.573104,20.0120432 66.788,20.3665137 C66.986,20.6165137 67.293,20.7545137 67.611,20.7365137 C67.896,20.7445137 68.181,20.6915137 68.444,20.5815137 C68.671,20.4775137 68.869,20.3185137 69.018,20.1185137 L69.018,14.6115137 L71.051,14.6115137 L71.051,22.1445137 L69.314,22.1445137 L69.133,21.0595137 Z M75,12.7665137 L75,14.6185137 L76.27,14.6185137 L76.27,16.0485137 L75,16.0485137 L75,19.8745137 C74.98,20.0995137 75.044,20.3245137 75.181,20.5045137 C75.311,20.6315137 75.488,20.6995137 75.67,20.6925137 C75.761,20.6995137 75.853,20.6995137 75.944,20.6925137 C76.035,20.6775137 76.126,20.6565137 76.214,20.6295137 L76.388,22.1115137 C76.1915648,22.1761094 75.9911434,22.2278849 75.788,22.2665137 C75.579,22.3025137 75.368,22.3185137 75.155,22.3145137 C74.5596431,22.3540935 73.9743093,22.146441 73.537,21.7405137 C73.1108093,21.2222994 72.9069726,20.5565048 72.97,19.8885137 L72.97,16.0405137 L71.859,16.0405137 L71.859,14.6105137 L72.969,14.6105137 L72.969,12.7595137 L74.999,12.7665137 L75,12.7665137 Z" id="Shape" fill="#000000" fill-rule="nonzero"></path>
            <path d="M30.061,65.1185137 L28.93,65.1185137 L29.68,61.3505137 L25.918,61.3505137 L25.168,65.1175137 L24.038,65.1175137 L25.742,56.5875137 L26.873,56.5875137 L26.1,60.4425137 L29.861,60.4425137 L30.635,56.5865137 L31.765,56.5865137 L30.061,65.1185137 Z M34.408,65.2415137 C33.611,65.2415137 33.008,64.9455137 32.601,64.3535137 C32.193,63.7615137 32.063,63.0005137 32.211,62.0715137 L32.252,61.8135137 C32.401,60.8755137 32.771,60.1165137 33.362,59.5335137 C33.954,58.9515137 34.594,58.6605137 35.282,58.6605137 C36.059,58.6605137 36.615,58.9205137 36.952,59.4405137 C37.287,59.9605137 37.389,60.6455137 37.256,61.4965137 L37.139,62.2175137 L33.319,62.2175137 C33.233,62.8665137 33.292,63.3815137 33.497,63.7645137 C33.702,64.1475137 34.053,64.3385137 34.549,64.3385137 C35.1886401,64.3425053 35.8091352,64.1204445 36.301,63.7115137 L36.623,64.4615137 C36.3555326,64.7022831 36.0455878,64.8911664 35.709,65.0185137 C35.338,65.1665137 34.904,65.2415137 34.409,65.2415137 L34.408,65.2415137 Z M35.141,59.5695137 C34.813,59.5695137 34.495,59.7335137 34.189,60.0615137 C33.8722656,60.407505 33.6455939,60.8261608 33.529,61.2805137 L33.547,61.3155137 L36.154,61.3155137 L36.178,61.1625137 C36.252,60.6905137 36.208,60.3065137 36.043,60.0125137 C35.879,59.7165137 35.578,59.5695137 35.141,59.5695137 Z M41.645,65.1175137 L41.745,64.2505137 C41.5174932,64.5556707 41.2264598,64.8078086 40.892,64.9895137 C40.569461,65.1585175 40.2101166,65.24509 39.846,65.2415137 C39.24,65.2415137 38.792,65.0165137 38.501,64.5675137 C38.211,64.1175137 38.156,63.4345137 38.34,62.5165137 L39.084,58.7785137 L40.215,58.7785137 L39.465,62.5285137 C39.32,63.2465137 39.313,63.7225137 39.442,63.9545137 C39.57,64.1875137 39.83,64.3035137 40.221,64.3035137 C40.568,64.3035137 40.884,64.2175137 41.167,64.0455137 C41.4582523,63.8657176 41.703986,63.6210106 41.885,63.3305137 L42.793,58.7785137 L43.924,58.7785137 L42.658,65.1185137 L41.645,65.1185137 L41.645,65.1175137 Z M48.195,59.7975137 L47.575,59.7625137 C47.317,59.7625137 47.079,59.8355137 46.862,59.9825137 C46.6307964,60.1447823 46.4379435,60.3557258 46.297,60.6005137 L45.395,65.1175137 L44.264,65.1175137 L45.529,58.7775137 L46.544,58.7775137 L46.474,59.6275137 C46.693,59.3195137 46.94,59.0805137 47.215,58.9125137 C47.6168276,58.6630919 48.105372,58.5951679 48.56,58.7255137 L48.196,59.7975137 L48.195,59.7975137 Z M50.68,65.2415137 C49.883,65.2415137 49.28,64.9455137 48.872,64.3535137 C48.464,63.7615137 48.334,63.0005137 48.482,62.0715137 L48.524,61.8135137 C48.672,60.8755137 49.042,60.1165137 49.634,59.5335137 C50.226,58.9515137 50.865,58.6605137 51.553,58.6605137 C52.33,58.6605137 52.887,58.9205137 53.223,59.4405137 C53.559,59.9605137 53.66,60.6455137 53.527,61.4965137 L53.41,62.2175137 L49.59,62.2175137 C49.504,62.8665137 49.564,63.3815137 49.769,63.7645137 C49.974,64.1475137 50.324,64.3385137 50.82,64.3385137 C51.4596401,64.3425053 52.0801352,64.1204445 52.572,63.7115137 L52.895,64.4615137 C52.6275326,64.7022831 52.3175878,64.8911664 51.981,65.0185137 C51.61,65.1665137 51.176,65.2415137 50.68,65.2415137 Z M51.412,59.5695137 C51.084,59.5695137 50.767,59.7335137 50.46,60.0615137 C50.1432656,60.407505 49.9165939,60.8261608 49.8,61.2805137 L49.818,61.3155137 L52.426,61.3155137 L52.449,61.1625137 C52.524,60.6905137 52.479,60.3065137 52.315,60.0125137 C52.151,59.7165137 51.85,59.5695137 51.412,59.5695137 Z M57.342,61.9485137 C57.557,60.8585137 57.902,60.0385137 58.376,59.4875137 C58.851,58.9365137 59.461,58.6605137 60.207,58.6605137 C60.531,58.6605137 60.825,58.7285137 61.089,58.8635137 C61.353,58.9975137 61.569,59.1885137 61.736,59.4335137 L62.428,55.9775137 L63.558,55.9775137 L61.731,65.1175137 L60.758,65.1175137 L60.799,64.5085137 C60.363252,64.9804946 59.7483458,65.2463608 59.106,65.2405137 C58.426,65.2405137 57.913,64.9365137 57.568,64.3265137 C57.222,63.7175137 57.138,62.9665137 57.318,62.0715137 L57.342,61.9485137 Z M58.455,62.0715137 C58.318,62.7435137 58.344,63.2835137 58.531,63.6915137 C58.719,64.0995137 59.071,64.3035137 59.586,64.3035137 C59.863,64.3035137 60.112,64.2265137 60.333,64.0725137 C60.576328,63.8940803 60.7825118,63.6698937 60.94,63.4125137 L61.537,60.4185137 C61.4437915,60.1796871 61.2841722,59.972529 61.077,59.8215137 C60.872,59.6725137 60.617,59.5985137 60.313,59.5985137 C59.843,59.5985137 59.456,59.8105137 59.15,60.2345137 C58.843,60.6585137 58.62,61.2295137 58.479,61.9485137 L58.455,62.0715137 Z M65.925,65.2415137 C65.129,65.2415137 64.527,64.9455137 64.118,64.3535137 C63.71,63.7615137 63.58,63.0005137 63.728,62.0715137 L63.77,61.8135137 C63.918,60.8755137 64.288,60.1165137 64.88,59.5335137 C65.472,58.9515137 66.111,58.6605137 66.799,58.6605137 C67.576,58.6605137 68.133,58.9205137 68.469,59.4405137 C68.805,59.9605137 68.906,60.6455137 68.774,61.4965137 L68.656,62.2175137 L64.836,62.2175137 C64.75,62.8665137 64.81,63.3815137 65.015,63.7645137 C65.22,64.1475137 65.57,64.3385137 66.067,64.3385137 C66.7066401,64.3425053 67.3271352,64.1204445 67.819,63.7115137 L68.141,64.4615137 C67.8735326,64.7022831 67.5635878,64.8911664 67.227,65.0185137 C66.856,65.1665137 66.422,65.2415137 65.926,65.2415137 L65.925,65.2415137 Z M66.658,59.5695137 C66.33,59.5695137 66.013,59.7335137 65.706,60.0615137 C65.3896269,60.4076106 65.1633034,60.8262577 65.047,61.2805137 L65.065,61.3155137 L67.672,61.3155137 L67.695,61.1625137 C67.77,60.6905137 67.725,60.3065137 67.561,60.0125137 C67.397,59.7165137 67.096,59.5695137 66.658,59.5695137 Z M76.133,59.7975137 L75.512,59.7625137 C75.254,59.7625137 75.017,59.8355137 74.8,59.9825137 C74.5687964,60.1447823 74.3759435,60.3557258 74.235,60.6005137 L73.332,65.1175137 L72.202,65.1175137 L73.467,58.7775137 L74.481,58.7775137 L74.411,59.6275137 C74.629,59.3195137 74.876,59.0805137 75.151,58.9125137 C75.5528276,58.6630919 76.041372,58.5951679 76.496,58.7255137 L76.133,59.7975137 Z M78.617,65.2415137 C77.82,65.2415137 77.217,64.9455137 76.81,64.3535137 C76.401,63.7615137 76.272,63.0005137 76.42,62.0715137 L76.461,61.8135137 C76.61,60.8755137 76.98,60.1165137 77.571,59.5335137 C78.163,58.9515137 78.803,58.6605137 79.491,58.6605137 C80.268,58.6605137 80.824,58.9205137 81.161,59.4405137 C81.496,59.9605137 81.598,60.6455137 81.465,61.4965137 L81.348,62.2175137 L77.528,62.2175137 C77.442,62.8665137 77.501,63.3815137 77.706,63.7645137 C77.911,64.1475137 78.262,64.3385137 78.758,64.3385137 C79.3976401,64.3425053 80.0181352,64.1204445 80.51,63.7115137 L80.832,64.4615137 C80.5645326,64.7022831 80.2545878,64.8911664 79.918,65.0185137 C79.547,65.1665137 79.113,65.2415137 78.618,65.2415137 L78.617,65.2415137 Z M79.35,59.5695137 C79.022,59.5695137 78.704,59.7335137 78.398,60.0615137 C78.0812656,60.407505 77.8545939,60.8261608 77.738,61.2805137 L77.756,61.3155137 L80.363,61.3155137 L80.387,61.1625137 C80.461,60.6905137 80.417,60.3065137 80.252,60.0125137 C80.088,59.7165137 79.787,59.5695137 79.35,59.5695137 Z M80.322,56.3175137 L81.635,56.3175137 L81.647,56.3525137 L79.918,57.8755137 L79.086,57.8755137 L80.322,56.3175137 Z M83.27,65.1175137 L82.139,65.1175137 L83.404,58.7775137 L84.535,58.7775137 L83.27,65.1175137 Z M84.863,57.1555137 L83.733,57.1555137 L83.967,55.9775137 L85.097,55.9775137 L84.864,57.1555137 L84.863,57.1555137 Z M87.137,59.6515137 C87.395,59.3315137 87.687,59.0855137 88.013,58.9155137 C88.339,58.7455137 88.69,58.6605137 89.065,58.6605137 C89.662,58.6605137 90.105,58.8645137 90.395,59.2705137 C90.684,59.6765137 90.746,60.2915137 90.582,61.1165137 L89.779,65.1185137 L88.649,65.1185137 L89.445,61.1395137 C89.563,60.5455137 89.547,60.1405137 89.399,59.9235137 C89.25,59.7065137 88.961,59.5985137 88.531,59.5985137 C88.2416612,59.6033862 87.9595495,59.6896833 87.717,59.8475137 C87.4392316,60.0207585 87.1980358,60.2466672 87.007,60.5125137 L86.088,65.1175137 L84.958,65.1175137 L86.223,58.7775137 L87.236,58.7775137 L87.136,59.6515137 L87.137,59.6515137 Z M92.597,65.1185137 L91.467,65.1185137 L92.733,58.7785137 L93.863,58.7785137 L92.598,65.1185137 L92.597,65.1185137 Z M94.192,57.1555137 L93.061,57.1555137 L93.295,55.9775137 L94.425,55.9775137 L94.192,57.1555137 Z M97.362,57.2485137 L97.051,58.7785137 L98.147,58.7785137 L97.977,59.6335137 L96.881,59.6335137 L96.113,63.4835137 C96.047,63.7995137 96.057,64.0135137 96.143,64.1245137 C96.229,64.2365137 96.367,64.2915137 96.559,64.2915137 C96.649,64.2915137 96.757,64.2835137 96.884,64.2655137 C97.011,64.2475137 97.111,64.2295137 97.186,64.2095137 L97.18,65.0005137 C97.067,65.0705137 96.905,65.1285137 96.696,65.1735137 C96.4929873,65.2179893 96.2858261,65.2407838 96.078,65.2415137 C95.668,65.2415137 95.353,65.0965137 95.132,64.8075137 C94.912,64.5175137 94.862,64.0775137 94.982,63.4835137 L95.75,59.6335137 L94.824,59.6335137 L94.994,58.7785137 L95.92,58.7785137 L96.23,57.2485137 L97.361,57.2485137 L97.362,57.2485137 Z M99.512,65.1185137 L98.381,65.1185137 L99.647,58.7785137 L100.777,58.7785137 L99.512,65.1185137 Z M101.106,57.1555137 L99.975,57.1555137 L100.209,55.9775137 L101.34,55.9775137 L101.106,57.1555137 Z M104.809,65.1175137 C104.809,64.9275137 104.813,64.7695137 104.82,64.6465137 C104.828,64.5235137 104.842,64.3965137 104.861,64.2685137 C104.59958,64.5455579 104.296205,64.7797537 103.962,64.9625137 C103.652336,65.1407106 103.302244,65.2367534 102.945,65.2415137 C102.367,65.2415137 101.941,65.0685137 101.665,64.7225137 C101.39,64.3765137 101.313,63.9145137 101.434,63.3365137 C101.559,62.6925137 101.876,62.2085137 102.386,61.8865137 C102.896,61.5645137 103.549,61.4035137 104.346,61.4035137 L105.43,61.4035137 L105.553,60.7765137 C105.631,60.3815137 105.588,60.0815137 105.424,59.8765137 C105.26,59.6715137 104.986,59.5695137 104.604,59.5695137 C104.276,59.5695137 103.979,59.6655137 103.713,59.8595137 C103.447,60.0525137 103.289,60.2785137 103.238,60.5355137 L102.166,60.5355137 L102.154,60.5005137 C102.233,60.0125137 102.526,59.5835137 103.034,59.2145137 C103.541,58.8455137 104.147,58.6605137 104.85,58.6605137 C105.479,58.6605137 105.976,58.8475137 106.341,59.2205137 C106.706,59.5935137 106.822,60.1165137 106.69,60.7875137 L106.08,63.8405137 C106.03,64.0785137 105.994,64.3005137 105.975,64.5025137 C105.955,64.7055137 105.955,64.9105137 105.975,65.1175137 L104.809,65.1175137 Z M103.309,64.2745137 C103.625,64.2745137 103.947,64.1825137 104.276,63.9985137 C104.604,63.8155137 104.858,63.5985137 105.037,63.3485137 L105.272,62.1825137 L104.152,62.1825137 C103.766,62.1825137 103.418,62.3025137 103.11,62.5395137 C102.8,62.7785137 102.617,63.0515137 102.559,63.3595137 C102.496,63.6605137 102.526,63.8885137 102.647,64.0425137 C102.767,64.1975137 102.988,64.2745137 103.309,64.2745137 Z M108.629,65.1175137 L107.499,65.1175137 L109.326,55.9775137 L110.457,55.9775137 L108.629,65.1175137 Z M111.535,65.1175137 L110.405,65.1175137 L111.67,58.7775137 L112.8,58.7775137 L111.535,65.1175137 Z M113.129,57.1555137 L111.999,57.1555137 L112.233,55.9775137 L113.363,55.9775137 L113.129,57.1555137 Z M116.996,63.4355137 C117.039,63.1755137 116.986,62.9635137 116.838,62.8035137 C116.69,62.6435137 116.381,62.5035137 115.912,62.3815137 C115.221,62.2135137 114.714,61.9855137 114.392,61.6965137 C114.069,61.4065137 113.949,61.0165137 114.032,60.5245137 C114.117,59.9895137 114.392,59.5445137 114.858,59.1915137 C115.322,58.8375137 115.887,58.6615137 116.551,58.6615137 C117.215,58.6615137 117.727,58.8515137 118.086,59.2355137 C118.446,59.6185137 118.574,60.0765137 118.473,60.6125137 L118.455,60.6475137 L117.371,60.6475137 C117.42273,60.3812195 117.3543,60.1056689 117.184,59.8945137 C117.012,59.6775137 116.754,59.5695137 116.41,59.5695137 C116.059,59.5695137 115.774,59.6595137 115.555,59.8415137 C115.349108,60.0011669 115.210929,60.2325355 115.168,60.4895137 C115.125,60.7505137 115.171,60.9495137 115.306,61.0865137 C115.441,61.2235137 115.746,61.3505137 116.223,61.4675137 C116.945,61.6395137 117.465,61.8725137 117.781,62.1675137 C118.098,62.4625137 118.217,62.8575137 118.139,63.3545137 C118.059273,63.9140035 117.748814,64.4145097 117.283,64.7345137 C116.807,65.0725137 116.221,65.2415137 115.526,65.2415137 C114.799,65.2415137 114.244,65.0345137 113.861,64.6195137 C113.479,64.2055137 113.341,63.7295137 113.451,63.1895137 L113.463,63.1555137 L114.547,63.1555137 C114.497,63.5655137 114.584,63.8655137 114.811,64.0545137 C115.037,64.2445137 115.322,64.3385137 115.666,64.3385137 C116.022,64.3385137 116.321,64.2545137 116.566,64.0865137 C116.795152,63.9407593 116.951499,63.7044219 116.996,63.4365137 L116.996,63.4355137 Z M122.75,65.1175137 C122.75,64.9275137 122.754,64.7695137 122.762,64.6465137 C122.77,64.5235137 122.783,64.3965137 122.802,64.2685137 C122.54058,64.5455579 122.237205,64.7797537 121.903,64.9625137 C121.593631,65.1405463 121.243904,65.2365834 120.887,65.2415137 C120.309,65.2415137 119.882,65.0685137 119.607,64.7225137 C119.331,64.3765137 119.254,63.9145137 119.375,63.3365137 C119.5,62.6925137 119.818,62.2085137 120.327,61.8865137 C120.837,61.5645137 121.49,61.4035137 122.287,61.4035137 L123.371,61.4035137 L123.494,60.7765137 C123.572,60.3815137 123.529,60.0815137 123.365,59.8765137 C123.201,59.6715137 122.928,59.5695137 122.545,59.5695137 C122.217,59.5695137 121.92,59.6655137 121.655,59.8595137 C121.389,60.0525137 121.231,60.2785137 121.18,60.5355137 L120.108,60.5355137 L120.096,60.5005137 C120.174,60.0125137 120.466,59.5835137 120.975,59.2145137 C121.483,58.8455137 122.088,58.6605137 122.791,58.6605137 C123.421,58.6605137 123.917,58.8475137 124.282,59.2205137 C124.648,59.5935137 124.764,60.1165137 124.631,60.7875137 L124.021,63.8405137 C123.971,64.0785137 123.936,64.3005137 123.916,64.5025137 C123.896,64.7055137 123.896,64.9105137 123.916,65.1175137 L122.75,65.1175137 Z M121.25,64.2745137 C121.567,64.2745137 121.889,64.1825137 122.217,63.9985137 C122.545,63.8155137 122.799,63.5985137 122.979,63.3485137 L123.213,62.1825137 L122.093,62.1825137 C121.707,62.1825137 121.36,62.3025137 121.051,62.5395137 C120.742,62.7785137 120.559,63.0515137 120.501,63.3595137 C120.438,63.6605137 120.467,63.8885137 120.588,64.0425137 C120.709,64.1975137 120.93,64.2745137 121.25,64.2745137 Z M128.428,57.2485137 L128.118,58.7785137 L129.213,58.7785137 L129.043,59.6335137 L127.947,59.6335137 L127.18,63.4835137 C127.113,63.7995137 127.123,64.0135137 127.21,64.1245137 C127.295,64.2365137 127.434,64.2915137 127.625,64.2915137 C127.715,64.2915137 127.823,64.2835137 127.95,64.2655137 C128.077,64.2475137 128.178,64.2295137 128.252,64.2095137 L128.246,65.0005137 C128.133,65.0705137 127.972,65.1285137 127.763,65.1735137 C127.559987,65.2179893 127.352826,65.2407838 127.145,65.2415137 C126.735,65.2415137 126.419,65.0965137 126.198,64.8075137 C125.978,64.5175137 125.928,64.0775137 126.049,63.4835137 L126.817,59.6335137 L125.891,59.6335137 L126.061,58.7785137 L126.986,58.7785137 L127.297,57.2485137 L128.427,57.2485137 L128.428,57.2485137 Z M130.578,65.1185137 L129.448,65.1185137 L130.713,58.7785137 L131.843,58.7785137 L130.578,65.1185137 Z M132.172,57.1555137 L131.042,57.1555137 L131.276,55.9775137 L132.406,55.9775137 L132.172,57.1555137 Z M132.635,61.8895137 C132.791,60.9125137 133.15,60.1305137 133.71,59.5425137 C134.27,58.9545137 134.963,58.6605137 135.787,58.6605137 C136.577,58.6605137 137.167,58.9665137 137.56,59.5775137 C137.952,60.1895137 138.074,60.9595137 137.926,61.8895137 L137.908,62.0185137 C137.748,62.9985137 137.388,63.7815137 136.828,64.3655137 C136.267,64.9495137 135.574,65.2415137 134.75,65.2415137 C133.961,65.2415137 133.37,64.9365137 132.978,64.3265137 C132.585,63.7175137 132.465,62.9485137 132.618,62.0185137 L132.635,61.8895137 Z M133.748,62.0185137 C133.635,62.7185137 133.669,63.2785137 133.851,63.7025137 C134.032,64.1265137 134.379,64.3385137 134.891,64.3385137 C135.367,64.3385137 135.774,64.1175137 136.11,63.6735137 C136.445,63.2305137 136.666,62.6785137 136.772,62.0185137 L136.789,61.8895137 C136.899,61.2015137 136.861,60.6435137 136.678,60.2135137 C136.494,59.7835137 136.151,59.5695137 135.647,59.5695137 C135.167,59.5695137 134.759,59.7915137 134.425,60.2375137 C134.091,60.6825137 133.871,61.2335137 133.765,61.8895137 L133.748,62.0185137 Z M140.868,59.6515137 C141.125,59.3315137 141.418,59.0855137 141.743,58.9155137 C142.069,58.7455137 142.42,58.6605137 142.795,58.6605137 C143.393,58.6605137 143.836,58.8645137 144.125,59.2705137 C144.415,59.6765137 144.477,60.2915137 144.313,61.1165137 L143.51,65.1185137 L142.379,65.1185137 L143.176,61.1395137 C143.293,60.5455137 143.277,60.1405137 143.129,59.9235137 C142.981,59.7065137 142.692,59.5985137 142.262,59.5985137 C141.97232,59.6031989 141.689836,59.6895036 141.447,59.8475137 C141.169591,60.0208623 140.928742,60.2467645 140.738,60.5125137 L139.818,65.1175137 L138.688,65.1175137 L139.953,58.7775137 L140.967,58.7775137 L140.867,59.6515137 L140.868,59.6515137 Z" id="Shape" fill="#6D6E70" fill-rule="nonzero"></path>
            <path d="M23.273,178.310514 C23.766,178.310514 24.171,178.259514 24.489,178.156514 C25.055,177.966514 25.519,177.599514 25.88,177.057514 C26.169,176.623514 26.376,176.067514 26.503,175.387514 C26.5730501,175.015857 26.6098622,174.638701 26.613,174.260514 C26.613,172.927514 26.348,171.891514 25.818,171.154514 C25.288,170.417514 24.435,170.048514 23.258,170.048514 L20.674,170.048514 L20.674,178.310514 L23.274,178.310514 L23.273,178.310514 Z M19.208,168.796514 L23.566,168.796514 C25.046,168.796514 26.193,169.321514 27.008,170.370514 C27.736,171.318514 28.1,172.531514 28.1,174.010514 C28.1,175.153514 27.885,176.186514 27.455,177.109514 C26.698,178.739514 25.397,179.555514 23.551,179.555514 L19.208,179.555514 L19.208,168.795514 L19.208,168.796514 Z M33.065,171.535514 C33.622,171.535514 34.162,171.665514 34.685,171.927514 C35.207,172.188514 35.605,172.527514 35.878,172.941514 C36.1505066,173.360274 36.3302003,173.832524 36.405,174.326514 C36.483,174.686514 36.523,175.263514 36.523,176.054514 L30.773,176.054514 C30.797,176.850514 30.985,177.488514 31.337,177.969514 C31.689,178.450514 32.233,178.691514 32.97,178.691514 C33.659,178.691514 34.208,178.464514 34.618,178.010514 C34.853,177.746514 35.018,177.440514 35.116,177.094514 L36.413,177.094514 C36.378,177.382514 36.265,177.704514 36.073,178.057514 C35.9037876,178.379519 35.6843731,178.672522 35.423,178.925514 C35.023,179.315514 34.528,179.579514 33.937,179.716514 C33.5839937,179.798579 33.2223937,179.837861 32.86,179.833514 C31.884,179.833514 31.056,179.478514 30.377,178.768514 C29.699,178.058514 29.359,177.062514 29.359,175.783514 C29.359,174.523514 29.701,173.500514 30.385,172.714514 C31.068,171.928514 31.962,171.535514 33.065,171.535514 Z M35.168,175.007514 C35.114,174.435514 34.989,173.979514 34.794,173.637514 C34.433,173.002514 33.83,172.685514 32.984,172.685514 C32.379,172.685514 31.872,172.903514 31.461,173.340514 C31.051,173.777514 30.834,174.333514 30.81,175.007514 L35.168,175.007514 Z M34.588,168.554514 L32.633,170.671514 L31.623,170.671514 L32.963,168.554514 L34.589,168.554514 L34.588,168.554514 Z M38.038,168.759514 L39.32,168.759514 L39.32,172.663514 C39.5928519,172.300494 39.9465356,172.006043 40.353,171.803514 C40.753,171.605514 41.188,171.506514 41.657,171.506514 C42.633,171.506514 43.426,171.841514 44.033,172.513514 C44.641,173.184514 44.945,174.174514 44.945,175.483514 C44.945,176.723514 44.645,177.753514 44.045,178.573514 C43.444,179.393514 42.611,179.804514 41.547,179.804514 C40.951,179.804514 40.448,179.660514 40.038,179.372514 C39.794,179.201514 39.533,178.928514 39.254,178.552514 L39.254,179.555514 L38.039,179.555514 L38.039,168.759514 L38.038,168.759514 Z M41.466,178.639514 C42.179,178.639514 42.713,178.356514 43.066,177.789514 C43.421,177.223514 43.598,176.476514 43.598,175.549514 C43.598,174.723514 43.421,174.039514 43.067,173.498514 C42.713,172.956514 42.191,172.685514 41.503,172.685514 C40.903,172.685514 40.376,172.907514 39.925,173.351514 C39.473,173.796514 39.247,174.528514 39.247,175.549514 C39.247,176.286514 39.34,176.884514 39.525,177.343514 C39.872,178.207514 40.519,178.639514 41.466,178.639514 Z M47.802,171.711514 L47.802,176.918514 C47.802,177.318514 47.865,177.646514 47.992,177.900514 C48.227,178.368514 48.664,178.603514 49.303,178.603514 C50.221,178.603514 50.846,178.193514 51.178,177.373514 C51.358,176.933514 51.449,176.330514 51.449,175.563514 L51.449,171.711514 L52.768,171.711514 L52.768,179.555514 L51.523,179.555514 L51.537,178.398514 C51.3735663,178.687387 51.1575139,178.943122 50.9,179.152514 C50.397,179.562514 49.787,179.767514 49.069,179.767514 C47.951,179.767514 47.189,179.394514 46.784,178.647514 C46.564,178.247514 46.454,177.712514 46.454,177.043514 L46.454,171.711514 L47.802,171.711514 Z M55.089,169.521514 L56.422,169.521514 L56.422,171.711514 L57.675,171.711514 L57.675,172.787514 L56.422,172.787514 L56.422,177.907514 C56.422,178.180514 56.515,178.364514 56.701,178.457514 C56.803,178.510514 56.974,178.537514 57.213,178.537514 C57.3669647,178.539206 57.5208961,178.53186 57.674,178.515514 L57.674,179.555514 C57.5195254,179.600018 57.3616639,179.631791 57.202,179.650514 C57.039,179.670514 56.862,179.680514 56.672,179.680514 C56.056,179.680514 55.639,179.522514 55.419,179.207514 C55.199,178.892514 55.089,178.483514 55.089,177.980514 L55.089,172.787514 L54.027,172.787514 L54.027,171.711514 L55.089,171.711514 L55.089,169.521514 Z M274.56,139.665514 L269.696,139.665514 L269.696,144.382514 L268.254,144.382514 L268.254,133.718514 L275.307,133.718514 L275.307,134.853514 L269.697,134.853514 L269.697,138.530514 L274.56,138.530514 L274.56,139.665514 Z M278.28,144.382514 L276.838,144.382514 L276.838,136.457514 L278.28,136.457514 L278.28,144.382514 Z M278.28,134.429514 L276.838,134.429514 L276.838,132.955514 L278.28,132.955514 L278.28,134.428514 L278.28,134.429514 Z M281.789,136.457514 L281.891,137.637514 C282.155,137.217514 282.486,136.891514 282.884,136.659514 C283.282,136.427514 283.734,136.311514 284.242,136.311514 C285.097,136.311514 285.758,136.561514 286.227,137.061514 C286.696,137.562514 286.93,138.335514 286.93,139.380514 L286.93,144.382514 L285.487,144.382514 L285.487,139.409514 C285.487,138.711514 285.35,138.215514 285.074,137.922514 C284.798,137.629514 284.377,137.482514 283.81,137.482514 C283.395,137.482514 283.028,137.582514 282.708,137.783514 C282.388,137.983514 282.133,138.257514 281.943,138.603514 L281.943,144.383514 L280.5,144.383514 L280.5,136.457514 L281.789,136.457514 Z" id="Shape" fill="#2A3052" fill-rule="nonzero"></path>
            <path d="M185.607,170.145514 L185.783,170.915514 L185.841,170.915514 L186.007,170.164514 L189.103,159.704514 L192.111,159.704514 L187.277,173.924514 L184.347,173.924514 L179.523,159.704514 L182.531,159.704514 L185.607,170.144514 L185.607,170.145514 Z M196.271,173.924514 L193.419,173.924514 L193.419,163.357514 L196.271,163.357514 L196.271,173.924514 Z M196.271,160.828514 L193.419,160.828514 L193.419,158.689514 L196.271,158.689514 L196.271,160.828514 Z M203.048,171.941514 C203.556,171.941514 203.963,171.793514 204.269,171.497514 C204.575,171.201514 204.728,170.805514 204.728,170.310514 L207.316,170.310514 L207.346,170.369514 C207.371,171.437514 206.969,172.330514 206.139,173.049514 C205.309,173.769514 204.279,174.129514 203.049,174.129514 C201.473,174.129514 200.259,173.631514 199.406,172.634514 C198.553,171.638514 198.126,170.359514 198.126,168.797514 L198.126,168.504514 C198.126,166.948514 198.551,165.668514 199.401,164.666514 C200.251,163.663514 201.463,163.162514 203.039,163.162514 C204.341,163.162514 205.39,163.532514 206.188,164.275514 C206.985,165.017514 207.371,165.994514 207.345,167.205514 L207.325,167.263514 L204.728,167.263514 C204.728,166.716514 204.578,166.263514 204.278,165.901514 C203.979,165.540514 203.566,165.359514 203.038,165.359514 C202.283,165.359514 201.751,165.652514 201.442,166.238514 C201.132,166.824514 200.978,167.579514 200.978,168.504514 L200.978,168.797514 C200.978,169.741514 201.133,170.501514 201.442,171.077514 C201.752,171.653514 202.287,171.941514 203.048,171.941514 Z M212.355,160.769514 L212.355,163.357514 L214.132,163.357514 L214.132,165.359514 L212.355,165.359514 L212.355,170.739514 C212.355,171.150514 212.44,171.443514 212.609,171.619514 C212.779,171.795514 213.006,171.883514 213.292,171.883514 C213.442,171.883514 213.571,171.874514 213.678,171.858514 C213.786,171.842514 213.911,171.814514 214.054,171.775514 L214.298,173.835514 C213.743113,174.033067 213.157994,174.132223 212.569,174.128514 C211.587,174.128514 210.829,173.858514 210.299,173.318514 C209.769,172.778514 209.503,171.922514 209.503,170.750514 L209.503,165.360514 L207.96,165.360514 L207.96,163.357514 L209.503,163.357514 L209.503,160.769514 L212.355,160.769514 Z M215.509,168.543514 C215.509,166.967514 215.949,165.676514 216.828,164.671514 C217.707,163.665514 218.924,163.161514 220.48,163.161514 C222.042,163.161514 223.266,163.663514 224.152,164.666514 C225.037,165.668514 225.48,166.961514 225.48,168.543514 L225.48,168.748514 C225.48,170.336514 225.039,171.630514 224.157,172.630514 C223.275,173.629514 222.055,174.129514 220.499,174.129514 C218.937,174.129514 217.715,173.629514 216.832,172.629514 C215.95,171.630514 215.509,170.336514 215.509,168.748514 L215.509,168.543514 Z M218.351,168.748514 C218.351,169.711514 218.521,170.484514 218.859,171.068514 C219.197,171.650514 219.744,171.941514 220.499,171.941514 C221.235,171.941514 221.774,171.648514 222.116,171.062514 C222.457,170.476514 222.628,169.705514 222.628,168.748514 L222.628,168.543514 C222.628,167.605514 222.456,166.840514 222.111,166.248514 C221.766,165.655514 221.222,165.359514 220.48,165.359514 C219.744,165.359514 219.206,165.657514 218.864,166.253514 C218.522,166.848514 218.351,167.612514 218.351,168.543514 L218.351,168.748514 Z M230.236,173.924514 L227.384,173.924514 L227.384,163.357514 L230.236,163.357514 L230.236,173.924514 Z M230.236,160.828514 L227.384,160.828514 L227.384,158.689514 L230.236,158.689514 L230.236,160.828514 Z M238.136,165.808514 L237.091,165.779514 C236.668,165.779514 236.32,165.867514 236.046,166.043514 C235.768873,166.223597 235.551371,166.481815 235.421,166.785514 L235.421,173.924514 L232.58,173.924514 L232.58,163.357514 L235.226,163.357514 L235.353,164.920514 C235.6,164.366514 235.921,163.935514 236.315,163.626514 C236.709,163.316514 237.163,163.162514 237.677,163.162514 C237.82,163.162514 237.952,163.173514 238.073,163.196514 C238.193,163.219514 238.315,163.246514 238.439,163.279514 L238.136,165.809514 L238.136,165.808514 Z M244.259,174.128514 C242.736,174.128514 241.519,173.640514 240.607,172.664514 C239.695,171.687514 239.24,170.447514 239.24,168.943514 L239.24,168.553514 C239.24,166.983514 239.671,165.691514 240.534,164.675514 C241.396,163.660514 242.554,163.155514 244.005,163.162514 C245.431,163.162514 246.538,163.592514 247.325,164.451514 C248.113,165.311514 248.507,166.472514 248.507,167.937514 L248.507,169.490514 L242.199,169.490514 L242.179,169.549514 C242.231,170.245514 242.464,170.818514 242.877,171.267514 C243.291,171.717514 243.852,171.941514 244.562,171.941514 C245.193,171.941514 245.718,171.878514 246.134,171.751514 C246.60916,171.599246 247.067271,171.398174 247.501,171.151514 L248.273,172.908514 C247.843,173.259514 247.28,173.551514 246.583,173.782514 C245.887,174.013514 245.113,174.129514 244.259,174.129514 L244.259,174.128514 Z M244.005,165.359514 C243.478,165.359514 243.061,165.561514 242.755,165.965514 C242.449,166.368514 242.261,166.899514 242.189,167.556514 L242.219,167.606514 L245.714,167.606514 L245.714,167.351514 C245.714,166.746514 245.573,166.262514 245.29,165.901514 C245.006,165.540514 244.578,165.359514 244.005,165.359514 Z M253.234,169.021514 L250.382,169.021514 L250.382,159.705514 L253.234,159.705514 L253.234,169.021514 Z M253.234,173.924514 L250.382,173.924514 L250.382,171.424514 L253.234,171.424514 L253.234,173.924514 Z" id="Shape" fill="#FFFFFF" fill-rule="nonzero"></path>
            <path d="M268.17,88.3345137 L268.182,88.3695137 C267.943,89.2055137 267.559,89.8655137 267.027,90.3495137 C266.497,90.8345137 265.801,91.0765137 264.941,91.0765137 C264.086,91.0765137 263.396,90.7185137 262.873,90.0015137 C262.35,89.2845137 262.191,88.4165137 262.398,87.3975137 L262.703,85.8735137 C262.926,84.7445137 263.347,83.8665137 263.966,83.2395137 C264.585,82.6125137 265.348,82.2995137 266.254,82.2995137 C267.094,82.2995137 267.758,82.5675137 268.246,83.1055137 C268.734,83.6425137 268.926,84.3325137 268.82,85.1755137 L268.809,85.2055137 L267.713,85.2055137 C267.752,84.5885137 267.641,84.1015137 267.379,83.7435137 C267.117,83.3865137 266.699,83.2075137 266.125,83.2075137 C265.585,83.2075137 265.108,83.4585137 264.692,83.9605137 C264.276,84.4625137 263.992,85.0965137 263.84,85.8615137 L263.53,87.3975137 C263.365,88.2135137 263.429,88.8805137 263.72,89.3975137 C264.01,89.9155137 264.459,90.1745137 265.064,90.1745137 C265.588,90.1745137 266.003,90.0255137 266.31,89.7295137 C266.616,89.4325137 266.875,88.9675137 267.086,88.3345137 L268.17,88.3345137 Z M270.156,90.9545137 L269.026,90.9545137 L270.291,84.6145137 L271.421,84.6145137 L270.156,90.9545137 Z M271.75,82.9905137 L270.62,82.9905137 L270.854,81.8135137 L271.984,81.8135137 L271.75,82.9905137 Z M277.48,88.1405137 C277.285,89.1135137 276.955,89.8465137 276.49,90.3385137 C276.025,90.8305137 275.428,91.0765137 274.697,91.0765137 C274.365,91.0765137 274.061,90.9825137 273.783,90.7955137 C273.499662,90.6010359 273.271576,90.3364296 273.121,90.0275137 L272.822,90.9535137 L271.844,90.9535137 L273.672,81.8135137 L274.802,81.8135137 L274.129,85.1885137 C274.56117,84.7407415 275.158725,84.4907954 275.781,84.4975137 C276.465,84.4975137 276.971,84.8345137 277.301,85.5105137 C277.631,86.1865137 277.699,87.0225137 277.504,88.0185137 L277.48,88.1415137 L277.48,88.1405137 Z M276.373,88.0185137 C276.525,87.2525137 276.513,86.6305137 276.335,86.1515137 C276.157,85.6735137 275.812,85.4345137 275.301,85.4345137 C275.02,85.4345137 274.759,85.5245137 274.519,85.7045137 C274.279,85.8835137 274.064,86.1245137 273.877,86.4245137 L273.32,89.2245137 C273.414,89.5025137 273.566,89.7245137 273.777,89.8905137 C273.988,90.0565137 274.26,90.1395137 274.592,90.1395137 C275.052,90.1395137 275.43,89.9625137 275.722,89.6095137 C276.016,89.2555137 276.225,88.7665137 276.35,88.1415137 L276.373,88.0185137 Z M279.484,90.9535137 L278.354,90.9535137 L280.182,81.8135137 L281.312,81.8135137 L279.484,90.9535137 Z M283.721,91.0765137 C282.924,91.0765137 282.321,90.7805137 281.913,90.1885137 C281.505,89.5975137 281.375,88.8365137 281.523,87.9065137 L281.564,87.6485137 C281.713,86.7115137 282.083,85.9515137 282.674,85.3695137 C283.267,84.7875137 283.906,84.4965137 284.594,84.4965137 C285.371,84.4965137 285.928,84.7565137 286.264,85.2765137 C286.6,85.7955137 286.701,86.4805137 286.568,87.3325137 L286.451,88.0525137 L282.631,88.0525137 C282.545,88.7025137 282.604,89.2175137 282.81,89.6005137 C283.015,89.9825137 283.365,90.1745137 283.861,90.1745137 C284.50064,90.1785053 285.121135,89.9564445 285.613,89.5475137 L285.936,90.2975137 C285.668235,90.5383887 285.357942,90.7272771 285.021,90.8545137 C284.651,91.0025137 284.217,91.0765137 283.721,91.0765137 Z M284.453,85.4045137 C284.125,85.4045137 283.808,85.5685137 283.501,85.8975137 C283.184409,86.2432202 282.957746,86.6615165 282.841,87.1155137 L282.859,87.1505137 L285.467,87.1505137 L285.49,86.9985137 C285.564,86.5255137 285.52,86.1425137 285.355,85.8475137 C285.191,85.5525137 284.891,85.4045137 284.453,85.4045137 Z" id="Shape" fill="#6D6E70" fill-rule="nonzero"></path>
        </g>
    </g>
</svg>