<svg width="299" height="197" xmlns="http://www.w3.org/2000/svg" xmlns:xlink="http://www.w3.org/1999/xlink"><defs><path d="M24.848 22h-2.197v-4.57h-4.285V22H16.17V11.336h2.197v4.321h4.285v-4.321h2.197V22zm6.372 0a2.35 2.35 0 0 1-.212-.71c-.513.57-1.18.856-2 .856-.776 0-1.42-.224-1.93-.673a2.167 2.167 0 0 1-.765-1.7c0-.84.311-1.484.934-1.933.622-.45 1.522-.676 2.699-.681h.974v-.454c0-.367-.094-.66-.282-.88-.188-.219-.485-.329-.89-.329-.356 0-.636.086-.839.256-.202.171-.304.406-.304.704H26.49c0-.46.141-.884.425-1.275.283-.39.683-.697 1.2-.919.518-.222 1.1-.333 1.744-.333.976 0 1.752.245 2.325.736.574.49.86 1.18.86 2.069v3.435c.006.752.11 1.32.316 1.706V22h-2.14zm-1.75-1.472c.312 0 .6-.07.864-.209.264-.14.459-.326.586-.56v-1.363h-.791c-1.06 0-1.624.367-1.692 1.1l-.007.124c0 .263.092.48.278.651.186.171.44.257.762.257zm9.946.666c-.522.635-1.245.952-2.168.952-.85 0-1.498-.244-1.945-.732-.446-.488-.675-1.204-.684-2.146v-5.193h2.116v5.12c0 .825.376 1.238 1.128 1.238.718 0 1.211-.25 1.48-.747v-5.61h2.124V22h-1.992l-.059-.806zm7.94-1.384c0-.259-.129-.463-.385-.612-.256-.148-.668-.281-1.234-.399-1.885-.395-2.827-1.196-2.827-2.402 0-.703.291-1.29.875-1.762.583-.47 1.346-.706 2.289-.706 1.006 0 1.81.237 2.413.71.603.474.905 1.089.905 1.846h-2.117c0-.303-.098-.553-.293-.75-.195-.199-.5-.297-.916-.297-.356 0-.632.08-.827.241a.763.763 0 0 0-.293.615c0 .235.11.424.333.568.222.144.597.269 1.124.374.528.105.972.223 1.333.355 1.118.41 1.678 1.12 1.678 2.131 0 .723-.31 1.308-.93 1.754-.62.447-1.421.67-2.403.67-.664 0-1.254-.118-1.769-.355-.515-.237-.919-.561-1.212-.974a2.263 2.263 0 0 1-.44-1.337h2.007c.02.376.16.665.418.865.259.2.605.3 1.04.3.405 0 .712-.077.92-.23a.718.718 0 0 0 .31-.605zm7.712 0c0-.259-.128-.463-.385-.612-.256-.148-.667-.281-1.234-.399-1.885-.395-2.827-1.196-2.827-2.402 0-.703.292-1.29.875-1.762.584-.47 1.347-.706 2.29-.706 1.005 0 1.81.237 2.412.71.603.474.905 1.089.905 1.846h-2.117c0-.303-.097-.553-.293-.75-.195-.199-.5-.297-.915-.297-.357 0-.633.08-.828.241a.763.763 0 0 0-.293.615c0 .235.111.424.333.568.223.144.597.269 1.125.374.527.105.971.223 1.333.355 1.118.41 1.677 1.12 1.677 2.131 0 .723-.31 1.308-.93 1.754-.62.447-1.421.67-2.403.67-.664 0-1.253-.118-1.768-.355-.515-.237-.92-.561-1.212-.974a2.263 2.263 0 0 1-.44-1.337h2.007c.02.376.159.665.417.865.26.2.606.3 1.04.3.406 0 .712-.077.92-.23a.718.718 0 0 0 .31-.605zm7.068 2.336c-1.162 0-2.108-.356-2.838-1.069s-1.095-1.662-1.095-2.849v-.205c0-.796.153-1.508.461-2.135a3.386 3.386 0 0 1 1.307-1.45c.564-.34 1.208-.51 1.93-.51 1.084 0 1.938.343 2.56 1.026.623.684.934 1.653.934 2.908v.864h-5.046c.068.518.274.933.619 1.245.344.313.78.469 1.307.469.815 0 1.453-.295 1.912-.886l1.04 1.164c-.318.45-.748.8-1.29 1.051a4.23 4.23 0 0 1-1.801.377zm-.242-6.503c-.42 0-.76.141-1.022.424-.26.284-.428.689-.501 1.216h2.944v-.168c-.01-.469-.137-.832-.38-1.088-.245-.256-.592-.384-1.041-.384z" id="a"/></defs><g fill="none" fill-rule="evenodd"><path fill="#F1F2F2" d="M0 0h299v197H0z"/><path d="M1.987 1.98v193.04h295.026V1.98H1.987zM299 0v197H0V0h299z" fill="#C2C2C2" fill-rule="nonzero"/><path d="M4 54.067v-1.204h290v1.204H4zm0 22.326v-1.204h290v1.204H4zm0 18.604v-1.204h290v1.204H4zm0 37.94v-1.204h290v1.204H4zm0 21.595v-1.204h290v1.204H4zm0 22.326v-1.204h290v1.204H4zM38.72 33h1.2v160h-1.2V33zm37.18 0h1.2v160h-1.2V33zm37.18 0h1.2v160h-1.2V33zm33.46 0h1.201v160h-1.2V33zm37.18 0h1.2v160h-1.2V33zm37.18 0h1.2v160h-1.2V33zm37.18 0h1.2v160h-1.2V33z" fill="#DFDEDE" fill-rule="nonzero"/><path fill="#2A3052" fill-rule="nonzero" d="M3.906 132.82v-1.215h291.607v1.215z"/><path fill="#C2C2C2" fill-rule="nonzero" d="M2.8 34.78v-2.43h293.563v2.43z"/><path d="M187.24 148.191h-35.181l-5.419-8.223-5.418 8.223h-35.18c-2.635 0-4.742 2.14-4.742 4.807v24.82c0 2.666 2.145 4.807 4.741 4.807h81.236c2.634 0 4.741-2.14 4.741-4.807v-24.82c0-2.666-2.145-4.807-4.778-4.807z" fill="#E88024"/><path d="M130.904 87.827l-37.362 26.79a1 1 0 0 1-.49.182l-34.958 3.291a1 1 0 1 1-.188-1.99l34.69-3.266L129.9 86.085a1 1 0 0 1 .357-.161l36.539-8.486 36.349-23.682a1 1 0 0 1 .424-.154l37.44-4.594a1 1 0 1 1 .243 1.985l-37.21 4.566L167.74 79.21a1 1 0 0 1-.32.136l-36.516 8.48zm36.064-10.429l-.32.136.148-.096.172-.04zm-74.103 35.41l-.489.183.22-.157.27-.026z" fill="#2A3052" fill-rule="nonzero"/><ellipse cx="8.512" cy="9.225" rx="8.137" ry="8.475" opacity=".6" fill="#FFF" transform="translate(231.25 41)"/><path d="M239.762 59.023c-4.675 0-8.46-3.942-8.46-8.798s3.785-8.798 8.46-8.798c4.676 0 8.461 3.942 8.461 8.798s-3.785 8.798-8.46 8.798zm0-.646c4.313 0 7.815-3.647 7.815-8.152 0-4.505-3.502-8.152-7.815-8.152-4.312 0-7.814 3.647-7.814 8.152 0 4.505 3.502 8.152 7.814 8.152z" fill="#E88024" fill-rule="nonzero"/><ellipse cx="8.137" cy="8.475" rx="8.137" ry="8.475" opacity=".6" transform="translate(84 104.25)" fill="#FFF"/><path d="M92.138 122.523c-4.676 0-8.461-3.942-8.461-8.798s3.785-8.798 8.46-8.798c4.676 0 8.461 3.942 8.461 8.798s-3.785 8.798-8.46 8.798zm0-.646c4.312 0 7.814-3.647 7.814-8.152 0-4.505-3.502-8.152-7.814-8.152-4.313 0-7.815 3.647-7.815 8.152 0 4.505 3.502 8.152 7.815 8.152z" fill="#E88024" fill-rule="nonzero"/><path d="M252.052 68.156l.117 1.214a2.647 2.647 0 0 1 2.35-1.331c.86 0 1.526.235 1.996.783.47.509.705 1.292.705 2.349v5.09h-1.449v-5.05c0-.706-.156-1.215-.43-1.528-.275-.313-.705-.43-1.253-.43-.43 0-.783.117-1.097.313-.313.195-.587.47-.783.822v5.873h-1.449v-8.066l1.293-.039zm-6.495-2.088v1.043h-5v3.542h4.26v1.074h-4.26v4.534h-1.47V66.068h6.47zm1.668 3.385h1.408v6.828h-1.408v-6.828zm-.095-3.222v1.467h1.542v-1.467h-1.542zM61.166 97.006v1.75h1.366v.98h-1.366v4.375c0 .35.07.56.21.7.14.14.315.21.56.21.07 0 .14 0 .245-.035a.506.506 0 0 0 .245-.07l.175.91a2.33 2.33 0 0 1-.42.21c-.175.035-.385.07-.56.07a1.715 1.715 0 0 1-1.26-.49c-.315-.315-.455-.84-.455-1.505v-4.375h-1.12v-.98h1.12v-1.75h1.26zm-18.22 5.93h-4.864c.126 1.481.734 2.222 1.826 2.222 1.638 0 1.866-1.389 1.866-1.301l1.075-.005c-.524 1.503-1.504 2.255-2.94 2.255-2.156 0-2.91-1.525-3.002-3.17-.09-1.647.457-3.856 3.02-3.856 2.1.038 3.106 1.324 3.02 3.855zm-1.22-.875c-.123-1.309-.732-1.963-1.827-1.963s-1.704.654-1.826 1.963h3.653zm14.36-3.167h1.246v7.05h-1.246v-1.046c-.395.51-1.047 1.332-2.355 1.194-1.308-.139-2.117-1.165-2.123-2.296-.006-1.13.006-5.285 0-4.902h1.235v2.67c0 3.125.687 3.471 1.627 3.471s1.4-.794 1.616-1.058c-.01-1.485-.01-3.18 0-5.083zm-11.909-3.155h1.237v4.108c.357-.725 1.028-1.087 2.013-1.087 1.477 0 1.943.892 2.124 1.148.18.256.54.99.64 2.165.085 1.018-.159 2.603-.864 3.222-.93.817-1.528.812-2.027.812-.5 0-1.438-.24-1.96-1.133l-.18.956h-.983V95.739zm1.292 8.19c.37.744.867 1.116 1.49 1.116.934 0 1.27-.264 1.577-.732.351-.534.426-1.577.354-2.378a4.104 4.104 0 0 0-.354-1.284c-.086-.171-.365-.918-1.577-.864-1.006.01-1.46.899-1.49 1.07v3.072zm-3.326-8.19l-1.798 1.765h-.96l1.215-1.765h1.543zm-13.62.977h3.523c1.398.212 3.613.76 3.613 4.696 0 3.935-2.264 4.519-3.568 4.695h-3.568v-9.391zm1.248.992v7.45h1.783c.343 0 2.332-.003 2.666-2.295.334-2.293-.023-3.194-.302-3.773-.28-.579-1.012-1.382-2.364-1.382h-1.783z" fill="#2A3052" fill-rule="nonzero"/><path d="M178.026 167.323h-5.944c.13 2.744 1.83 3.408 5.094 1.99l.693 1.335a4.86 4.86 0 0 1-2.074 1.004c-1.616.351-3.193.083-4.287-.724-2.372-1.75-1.767-5.425-1.244-6.691.244-.592 1.447-2.26 2.876-2.421 1.296-.146 4.502-.454 4.885 3.855.03.877.03 1.428 0 1.652h.001zm-2.1-1.787c0-1.533-.607-2.3-1.82-2.3-1.823 0-2.008 2.3-2.008 2.3h3.827zm-49.433-3.83h2.104v9.711h-2.104v-9.711zm.042-4.24v2.105h2.123v-2.104l-2.123-.001zm31.984 4.39h2.143v10.004h-2.143v-10.004zm.043-4.367v1.899h2.187v-1.899h-2.187zm-35.964.943h2.396l-4.724 13.356h-2.21l-4.664-13.356h2.408l3.39 10.621 3.404-10.621zm14.441 6.932c.903.002 1.58.002 2.028 0 0-1.063-.726-3.89-4.11-3.767-3.384.122-4.212 3.163-4.212 5.18s1.028 5.18 4.34 5.18c3.31 0 3.982-2.519 3.982-3.488h-2.028c-.123 1.121-.767 1.682-1.932 1.682-1.748 0-2.142-2.054-2.142-3.374 0-1.32.25-3.285 1.992-3.377 1.16-.062 1.854.593 2.082 1.964zm4.511-5.96h2.214v2.43h1.78v1.603h-1.78v5.465c0 .37.002 1.487 1.61 1.068a62.9 62.9 0 0 0 .26 1.63c-.575.35-4.084 1.101-4.084-2.698v-5.465h-1.52v-1.604h1.52v-2.43.001zm9.91 2.342c2.765 0 4.264 1.686 4.643 4.21.38 2.525-.984 6.091-4.448 6.091-3.464 0-4.585-2.634-4.585-5.36 0-2.725 1.626-4.94 4.39-4.94v-.001zm.025 1.77c-.822.077-2.278.652-2.193 3.378.085 2.726 1.277 3.366 2.193 3.366.916 0 2.46-.254 2.46-3.355 0-3.1-1.638-3.467-2.46-3.39v.001zm17.536-1.818c-.09.857-.19 1.561-.297 2.113-1.078-.07-2.196-.172-2.686 1.087l.014 6.773h-2.218v-9.894h1.973c.095.66.153 1.142.176 1.444.682-1.272 1.695-1.78 3.038-1.523zm11.31-3.312h2.08v8.709h-2.08v-8.709zm2.158 11.258v2.008h-2.149v-2.008h2.15z" fill="#FFF" fill-rule="nonzero"/><g fill="#000"><use xlink:href="#a"/><use xlink:href="#a"/></g></g></svg>