<?xml version="1.0" encoding="UTF-8"?>
<svg width="299px" height="197px" viewBox="0 0 299 197" version="1.1" xmlns="http://www.w3.org/2000/svg" xmlns:xlink="http://www.w3.org/1999/xlink">
    <!-- Generator: Sketch 52.6 (67491) - http://www.bohemiancoding.com/sketch -->
    <title>stays between</title>
    <desc>Created with Sketch.</desc>
    <g id="Page-1" stroke="none" stroke-width="1" fill="none" fill-rule="evenodd">
        <g id="stays-between">
            <g id="Group">
                <polygon id="Path" fill="#F1F2F2" points="0 0 299 0 299 197 0 197"></polygon>
                <path d="M1.98671096,1.9798995 L1.98671096,195.020101 L297.013289,195.020101 L297.013289,1.9798995 L1.98671096,1.9798995 Z M299,0 L299,197 L0,197 L0,0 L299,0 Z" id="Path" fill="#C2C2C2" fill-rule="nonzero"></path>
                <path d="M4.887,56.4456836 L4.887,55.2388448 L294.54325,55.2388448 L294.54325,56.4456836 L4.887,56.4456836 Z M4.887,96.9796458 L4.887,95.772807 L294.54325,95.772807 L294.54325,96.9796458 L4.887,96.9796458 Z M4.887,137.513608 L4.887,136.30677 L294.54325,136.30677 L294.54325,137.513608 L4.887,137.513608 Z M4.887,178.010211 L4.887,176.803373 L294.54325,176.803373 L294.54325,178.010211 L4.887,178.010211 Z M39.2665806,35.5939623 L40.4734194,35.5939623 L40.4734194,195.264151 L39.2665806,195.264151 L39.2665806,35.5939623 Z M75.9314556,35.5939623 L77.1382944,35.5939623 L77.1382944,195.264151 L75.9314556,195.264151 L75.9314556,35.5939623 Z M112.558956,35.5939623 L113.765794,35.5939623 L113.765794,195.264151 L112.558956,195.264151 L112.558956,35.5939623 Z M149.223831,35.5939623 L150.430669,35.5939623 L150.430669,195.264151 L149.223831,195.264151 L149.223831,35.5939623 Z M185.851331,35.5939623 L187.058169,35.5939623 L187.058169,195.264151 L185.851331,195.264151 L185.851331,35.5939623 Z M222.478831,35.5939623 L223.685669,35.5939623 L223.685669,195.264151 L222.478831,195.264151 L222.478831,35.5939623 Z M4.887,117.227948 L4.887,116.021109 L294.54325,116.021109 L294.54325,117.227948 L4.887,117.227948 Z" id="Shape" fill="#DFDEDE" fill-rule="nonzero"></path>
                <path d="M259.143706,35.5939623 L260.350544,35.5939623 L260.350544,195.264151 L259.143706,195.264151 L259.143706,35.5939623 Z M4.887,76.7313439 L4.887,75.5245051 L294.54325,75.5245051 L294.54325,76.7313439 L4.887,76.7313439 Z M4.887,157.76191 L4.887,156.555072 L294.54325,156.555072 L294.54325,157.76191 L4.887,157.76191 Z" id="Shape" fill="#2A3052" fill-rule="nonzero"></path>
                <polygon id="Path" fill="#C2C2C2" fill-rule="nonzero" points="2.794 35.6055162 2.794 33.1914649 296.63625 33.1914649 296.63625 35.6055162"></polygon>
                <path d="M40.6640937,118.251527 C39.7655269,118.690093 38.6815667,118.317189 38.2430008,117.418622 C37.804435,116.520055 38.1773395,115.436095 39.0759063,114.997529 L80.5621563,94.7492272 C81.1166106,94.4786133 81.7707076,94.5089858 82.2976987,94.8298159 L120.670814,118.191219 L148.443626,90.7912015 C149.111703,90.1320922 150.172684,90.092765 150.887723,90.7006067 L186.536059,121.00462 L222.00967,94.9177058 C222.454127,94.5908567 223.023364,94.4845034 223.555852,94.6288248 L260.220727,104.566183 C261.18579,104.827746 261.75609,105.822124 261.494527,106.787187 C261.232963,107.75225 260.238586,108.32255 259.273523,108.060986 L223.451401,98.3520412 L187.52733,124.770219 C186.85109,125.267519 185.921706,125.234764 185.282152,124.691091 L149.806069,94.5335072 L122.207874,121.761251 C121.616637,122.344552 120.704343,122.450753 119.994926,122.018863 L81.2605355,98.4375166 L40.6640937,118.251527 Z" id="Path" fill="#2A3052" fill-rule="nonzero"></path>
                <path d="M187.987125,147.445283 L153.0415,147.445283 L147.6595,139.263774 L142.2775,147.445283 L107.331875,147.445283 C106.07173,147.451176 104.865994,147.959272 103.98197,148.856931 C103.097947,149.754589 102.608676,150.967645 102.622625,152.22717 L102.622625,176.921132 C102.606032,179.539822 104.712091,181.678366 107.331875,181.703019 L188.0245,181.703019 C189.284645,181.697126 190.490381,181.18903 191.374405,180.291371 C192.258428,179.393713 192.747699,178.180657 192.73375,176.921132 L192.73375,152.22717 C192.73971,150.963586 192.242729,149.749496 191.352348,148.8525 C190.461966,147.955504 189.251275,147.449236 187.987125,147.445283 Z" id="Path" fill="#E88024"></path>
                <g opacity="0.6" transform="translate(251.412500, 99.132075)" fill="#FFFFFF" id="Oval">
                    <ellipse cx="8.334625" cy="8.56377358" rx="8.110375" ry="8.44301887"></ellipse>
                </g>
                <path d="M259.747125,117.345894 C254.590171,117.345894 250.429724,113.014808 250.429724,107.695849 C250.429724,102.37689 254.590171,98.0458046 259.747125,98.0458046 C264.904079,98.0458046 269.064526,102.37689 269.064526,107.695849 C269.064526,113.014808 264.904079,117.345894 259.747125,117.345894 Z M259.747125,114.931842 C263.548644,114.931842 266.650474,111.702791 266.650474,107.695849 C266.650474,103.688907 263.548644,100.459856 259.747125,100.459856 C255.945606,100.459856 252.843776,103.688907 252.843776,107.695849 C252.843776,111.702791 255.945606,114.931842 259.747125,114.931842 Z" id="Oval" fill="#E88024" fill-rule="nonzero"></path>
                <g opacity="0.6" transform="translate(30.900000, 107.603774)" fill="#FFFFFF" id="Oval">
                    <ellipse cx="8.97" cy="9.0207547" rx="8.110375" ry="8.44301887"></ellipse>
                </g>
                <path d="M39.87,126.274573 C34.7130457,126.274573 30.5525994,121.943487 30.5525994,116.624528 C30.5525994,111.305569 34.7130457,106.974484 39.87,106.974484 C45.0269543,106.974484 49.1874006,111.305569 49.1874006,116.624528 C49.1874006,121.943487 45.0269543,126.274573 39.87,126.274573 Z M39.87,123.860522 C43.6715185,123.860522 46.7733494,120.63147 46.7733494,116.624528 C46.7733494,112.617586 43.6715185,109.388535 39.87,109.388535 C36.0684815,109.388535 32.9666506,112.617586 32.9666506,116.624528 C32.9666506,120.63147 36.0684815,123.860522 39.87,123.860522 Z" id="Oval" fill="#E88024" fill-rule="nonzero"></path>
            </g>
            <g id="Group-2" transform="translate(15.000000, 11.000000)" fill-rule="nonzero">
                <path d="M1.878,6.121 L1.878,9.865 L1.42108547e-14,9.865 L1.42108547e-14,0.499 L3.242,0.499 C4.31,0.499 5.145,0.743 5.747,1.229 C6.35,1.716 6.651,2.395 6.651,3.265 C6.651,3.745 6.523,4.161 6.268,4.51 C6.013,4.86 5.641,5.141 5.152,5.356 C5.705,5.519 6.103,5.791 6.345,6.173 C6.588,6.554 6.709,7.026 6.709,7.588 L6.709,8.276 C6.709,8.538 6.744,8.811 6.815,9.096 C6.885,9.381 7.007,9.593 7.178,9.73 L7.178,9.865 L5.242,9.865 C5.071,9.728 4.96,9.5 4.911,9.183 C4.86270846,8.87869296 4.83796837,8.57111346 4.837,8.263 L4.837,7.601 C4.837,7.133 4.709,6.77 4.454,6.511 C4.199,6.251 3.838,6.121 3.37,6.121 L1.878,6.121 Z M1.878,4.674 L3.21,4.674 C3.737,4.674 4.13,4.563 4.387,4.34 C4.644,4.117 4.773,3.786 4.773,3.349 C4.773,2.92 4.643,2.579 4.383,2.326 C4.124,2.073 3.743,1.946 3.242,1.946 L1.878,1.946 L1.878,4.674 Z M11.269,10 C10.232,10 9.421,9.682 8.838,9.045 C8.255,8.408 7.963,7.588 7.963,6.585 L7.963,6.327 C7.963,5.285 8.246,4.432 8.813,3.767 C9.378,3.102 10.157,2.772 11.147,2.777 C12.082,2.777 12.799,3.063 13.299,3.635 C13.799,4.208 14.049,4.979 14.049,5.948 L14.049,6.918 L9.899,6.918 L9.88,6.958 C9.91,7.434 10.055,7.819 10.314,8.115 C10.574,8.411 10.958,8.559 11.469,8.559 C11.889,8.559 12.246,8.516 12.539,8.431 C12.8562569,8.3349375 13.1615537,8.20308953 13.449,8.038 L13.959,9.196 C13.679,9.423 13.302,9.614 12.826,9.768 C12.3224302,9.92673342 11.7969711,10.0050292 11.269,10 Z M11.147,4.224 C10.77,4.224 10.479,4.354 10.276,4.613 C10.072,4.873 9.949,5.217 9.906,5.645 L9.919,5.677 L12.209,5.677 L12.209,5.536 C12.209,5.129 12.125,4.808 11.958,4.574 C11.79,4.341 11.52,4.224 11.148,4.224 L11.147,4.224 Z M18.904,7.935 C18.904,7.729 18.804,7.553 18.605,7.405 C18.406,7.257 18.036,7.127 17.495,7.015 C16.681,6.852 16.062,6.605 15.64,6.275 C15.218,5.945 15.007,5.497 15.007,4.931 C15.007,4.335 15.26,3.827 15.766,3.407 C16.272,2.987 16.945,2.777 17.786,2.777 C18.664,2.777 19.369,2.987 19.898,3.407 C20.428,3.827 20.682,4.35 20.661,4.977 L20.648,5.015 L18.834,5.015 C18.8436631,4.75985536 18.7456922,4.51238811 18.564,4.333 C18.384,4.157 18.124,4.069 17.785,4.069 C17.485,4.069 17.247,4.144 17.071,4.295 C16.90308,4.42917815 16.8061143,4.63306435 16.808,4.848 C16.808,5.062 16.898,5.237 17.081,5.372 C17.263,5.507 17.633,5.628 18.191,5.735 C19.044,5.907 19.68,6.159 20.098,6.491 C20.516,6.824 20.725,7.281 20.725,7.864 C20.725,8.491 20.457,9.003 19.921,9.402 C19.385,9.801 18.677,10 17.798,10 C16.872,10 16.14,9.765 15.602,9.296 C15.063,8.826 14.807,8.291 14.832,7.691 L14.846,7.652 L16.563,7.652 C16.576,8.025 16.698,8.295 16.93,8.462 C17.161,8.63 17.464,8.714 17.837,8.714 C18.184,8.714 18.449,8.644 18.631,8.504 C18.8101075,8.37082898 18.9122014,8.15803977 18.904,7.935 Z M24.185,1.201 L24.185,2.905 L25.363,2.905 L25.363,4.224 L24.185,4.224 L24.185,7.768 C24.185,8.038 24.242,8.231 24.355,8.347 C24.4734303,8.46509687 24.635905,8.52820088 24.803,8.521 C24.974861,8.52180208 25.1459445,8.49789079 25.311,8.45 L25.465,9.807 C25.101957,9.93741961 24.7187485,10.0027546 24.333,10 C23.686,10 23.187,9.822 22.838,9.466 C22.488,9.11 22.314,8.546 22.314,7.774 L22.314,4.224 L21.297,4.224 L21.297,2.905 L22.314,2.905 L22.314,1.201 L24.185,1.201 Z M29.537,10 C28.499,10 27.689,9.682 27.106,9.045 C26.522,8.408 26.231,7.588 26.231,6.585 L26.231,6.327 C26.231,5.285 26.514,4.432 27.08,3.767 C27.646,3.102 28.424,2.772 29.415,2.777 C30.35,2.777 31.067,3.063 31.566,3.635 C32.066,4.208 32.316,4.979 32.316,5.948 L32.316,6.918 L28.167,6.918 L28.147,6.958 C28.177,7.434 28.322,7.819 28.582,8.115 C28.842,8.411 29.226,8.559 29.736,8.559 C30.156,8.559 30.514,8.516 30.807,8.431 C31.1242569,8.3349375 31.4295537,8.20308953 31.717,8.038 L32.226,9.196 C31.947,9.423 31.57,9.614 31.094,9.768 C30.5904302,9.92673342 30.0649711,10.0050292 29.537,10 Z M29.415,4.224 C29.038,4.224 28.747,4.354 28.543,4.613 C28.34,4.873 28.216,5.217 28.173,5.645 L28.186,5.677 L30.476,5.677 L30.476,5.536 C30.476,5.129 30.393,4.808 30.226,4.574 C30.058,4.341 29.788,4.224 29.415,4.224 Z" id="Shape" fill="#020202"></path>
                <g id="Group" transform="translate(36.272000, 0.000000)" fill="#000000">
                    <path d="M0.863,10 L0.863,0.758 L4.037,0.758 C5.167,0.758 6.098,1.118 6.83,1.84 C7.562,2.562 7.928,3.487 7.928,4.617 L7.928,6.147 C7.928,7.281 7.562,8.207 6.83,8.924 C6.098,9.641 5.167,10 4.037,10 L0.863,10 Z M2.717,2.186 L2.717,8.578 L3.942,8.578 C4.606,8.578 5.127,8.354 5.503,7.905 C5.88,7.457 6.068,6.871 6.068,6.147 L6.068,4.604 C6.068,3.889 5.88,3.307 5.503,2.859 C5.127,2.41 4.606,2.186 3.942,2.186 L2.717,2.186 Z M13.26,10 C13.1909511,9.83909415 13.1328195,9.6737198 13.086,9.505 C13.0370205,9.33037517 13.0019113,9.15215422 12.981,8.972 C12.791,9.306 12.54,9.583 12.229,9.803 C11.918,10.023 11.546,10.133 11.115,10.133 C10.395,10.133 9.841,9.948 9.452,9.578 C9.062,9.208 8.868,8.703 8.868,8.064 C8.868,7.391 9.127,6.87 9.645,6.499 C10.164,6.129 10.92,5.944 11.915,5.944 L12.949,5.944 L12.949,5.398 C12.949,5.068 12.862,4.812 12.689,4.63 C12.515,4.448 12.259,4.357 11.921,4.357 C11.621,4.357 11.389,4.43 11.226,4.576 C11.063,4.722 10.981,4.924 10.981,5.182 L9.191,5.176 L9.185,5.138 C9.155,4.558 9.407,4.058 9.94,3.636 C10.474,3.216 11.174,3.005 12.042,3.005 C12.862,3.005 13.529,3.213 14.041,3.63 C14.553,4.047 14.809,4.64 14.809,5.41 L14.809,8.248 C14.809,8.57 14.833,8.872 14.882,9.156 C14.931,9.439 15.008,9.721 15.114,10 L13.26,10 Z M11.565,8.762 C11.891,8.762 12.181,8.682 12.435,8.521 C12.689,8.361 12.86,8.174 12.949,7.962 L12.949,6.992 L11.915,6.992 C11.521,6.992 11.223,7.09 11.02,7.286 C10.8221233,7.47028986 10.7113444,7.72962141 10.715,8 C10.715,8.229 10.791,8.413 10.943,8.553 C11.096,8.693 11.303,8.763 11.565,8.763 L11.565,8.762 Z M17.907,3.132 L17.989,4.116 C18.218,3.764 18.499,3.492 18.833,3.296 C19.1746805,3.09968665 19.5629818,2.99915671 19.957,3.005 C20.651,3.005 21.193,3.223 21.582,3.659 C21.972,4.095 22.166,4.778 22.166,5.709 L22.166,10 L20.306,10 L20.306,5.715 C20.306,5.255 20.213,4.927 20.026,4.735 C19.841,4.542 19.559,4.445 19.183,4.445 C18.7285244,4.43081215 18.2971477,4.64518645 18.034,5.016 L18.034,10 L16.18,10 L16.18,3.132 L17.907,3.132 Z M27.263,8.108 C27.263,7.905 27.165,7.73 26.968,7.582 C26.771,7.433 26.406,7.302 25.873,7.188 C25.061,7.023 24.448,6.778 24.035,6.455 C23.623,6.131 23.417,5.69 23.417,5.131 C23.417,4.539 23.665,4.036 24.162,3.624 C24.66,3.211 25.325,3.004 26.159,3.004 C27.035,3.004 27.732,3.21 28.25,3.621 C28.769,4.031 29.017,4.549 28.996,5.176 L28.983,5.214 L27.193,5.214 C27.193,4.939 27.106,4.714 26.93,4.541 C26.754,4.368 26.497,4.281 26.159,4.281 C25.859,4.281 25.622,4.354 25.451,4.5 C25.2854747,4.63374795 25.1906937,4.83621796 25.194,5.049 C25.194,5.26 25.284,5.434 25.464,5.569 C25.644,5.705 26.008,5.825 26.559,5.931 C27.405,6.101 28.033,6.349 28.444,6.677 C28.854,7.005 29.06,7.457 29.06,8.032 C29.06,8.65 28.795,9.155 28.266,9.546 C27.737,9.938 27.039,10.133 26.171,10.133 C25.257,10.133 24.535,9.902 24.004,9.438 C23.473,8.975 23.22,8.447 23.245,7.854 L23.258,7.816 L24.953,7.816 C24.965,8.185 25.086,8.451 25.314,8.616 C25.543,8.781 25.841,8.864 26.209,8.864 C26.552,8.864 26.814,8.796 26.993,8.661 C27.173,8.525 27.263,8.341 27.263,8.108 Z M35.496,8.578 L39.609,8.578 L39.609,10 L33.643,10 L33.643,0.758 L35.496,0.758 L35.496,8.578 Z M44.554,10 C44.4849511,9.83909415 44.4268195,9.6737198 44.38,9.505 C44.3310205,9.33037517 44.2959113,9.15215422 44.275,8.972 C44.085,9.306 43.834,9.583 43.523,9.803 C43.212,10.023 42.84,10.133 42.409,10.133 C41.689,10.133 41.135,9.948 40.746,9.578 C40.356,9.208 40.162,8.703 40.162,8.064 C40.162,7.391 40.421,6.87 40.939,6.499 C41.458,6.129 42.214,5.944 43.209,5.944 L44.243,5.944 L44.243,5.398 C44.243,5.068 44.156,4.812 43.983,4.63 C43.809,4.448 43.553,4.357 43.215,4.357 C42.915,4.357 42.683,4.43 42.52,4.576 C42.357,4.722 42.275,4.924 42.275,5.182 L40.485,5.176 L40.479,5.138 C40.449,4.558 40.701,4.058 41.234,3.636 C41.768,3.216 42.468,3.005 43.335,3.005 C44.156,3.005 44.823,3.213 45.335,3.63 C45.847,4.047 46.103,4.64 46.103,5.41 L46.103,8.248 C46.103,8.57 46.127,8.872 46.176,9.156 C46.225,9.439 46.302,9.721 46.408,10 L44.554,10 Z M42.859,8.762 C43.185,8.762 43.475,8.682 43.729,8.521 C43.983,8.361 44.154,8.174 44.243,7.962 L44.243,6.992 L43.208,6.992 C42.815,6.992 42.517,7.09 42.313,7.286 C42.1154923,7.47046648 42.0050867,7.72977446 42.009,8 C42.009,8.229 42.085,8.413 42.237,8.553 C42.39,8.693 42.597,8.763 42.859,8.763 L42.859,8.762 Z M52.762,8.578 L57.282,8.578 L57.282,10 L50.521,10 L50.521,9.035 L54.914,2.186 L50.527,2.186 L50.527,0.758 L57.173,0.758 L57.173,1.685 L52.762,8.578 Z M57.96,6.502 C57.96,5.478 58.246,4.639 58.817,3.986 C59.389,3.332 60.18,3.005 61.191,3.005 C62.207,3.005 63.003,3.331 63.578,3.982 C64.154,4.634 64.441,5.474 64.441,6.502 L64.441,6.636 C64.441,7.668 64.155,8.509 63.581,9.159 C63.008,9.809 62.216,10.133 61.204,10.133 C60.188,10.133 59.394,9.809 58.821,9.159 C58.247,8.509 57.961,7.669 57.961,6.636 L57.961,6.502 L57.96,6.502 Z M59.808,6.636 C59.808,7.262 59.918,7.765 60.138,8.143 C60.358,8.523 60.713,8.711 61.204,8.711 C61.682,8.711 62.032,8.521 62.254,8.141 C62.477,7.759 62.588,7.258 62.588,6.636 L62.588,6.502 C62.588,5.893 62.476,5.396 62.251,5.011 C62.027,4.626 61.674,4.433 61.191,4.433 C60.713,4.433 60.363,4.627 60.141,5.013 C59.919,5.401 59.808,5.897 59.808,6.503 L59.808,6.636 Z M67.278,3.132 L67.361,4.116 C67.59,3.764 67.871,3.492 68.206,3.296 C68.5473877,3.09986084 68.9353199,2.999337 69.329,3.005 C70.023,3.005 70.565,3.223 70.954,3.659 C71.344,4.095 71.538,4.778 71.538,5.709 L71.538,10 L69.678,10 L69.678,5.715 C69.678,5.255 69.585,4.927 69.398,4.735 C69.213,4.542 68.931,4.445 68.555,4.445 C68.1005244,4.43081215 67.6691477,4.64518645 67.406,5.016 L67.406,10 L65.552,10 L65.552,3.132 L67.279,3.132 L67.278,3.132 Z M75.962,10.133 C74.972,10.133 74.181,9.816 73.588,9.181 C72.996,8.546 72.7,7.741 72.7,6.763 L72.7,6.509 C72.7,5.489 72.98,4.649 73.54,3.989 C74.101,3.329 74.854,3.001 75.797,3.005 C76.724,3.005 77.444,3.285 77.956,3.843 C78.468,4.401 78.724,5.157 78.724,6.109 L78.724,7.119 L74.623,7.119 L74.61,7.156 C74.644,7.609 74.795,7.981 75.064,8.273 C75.333,8.565 75.698,8.711 76.159,8.711 C76.569,8.711 76.91,8.671 77.181,8.588 C77.452,8.505 77.748,8.375 78.07,8.198 L78.571,9.34 C78.292,9.568 77.926,9.758 77.473,9.908 C77.02,10.058 76.517,10.133 75.963,10.133 L75.962,10.133 Z M75.797,4.433 C75.4778101,4.42186814 75.1737886,4.56938597 74.985,4.827 C74.786,5.089 74.663,5.434 74.617,5.861 L74.636,5.893 L76.908,5.893 L76.908,5.728 C76.908,5.334 76.816,5.02 76.632,4.785 C76.448,4.551 76.17,4.433 75.797,4.433 Z" id="a"></path>
                    <path d="M0.863,10 L0.863,0.758 L4.037,0.758 C5.167,0.758 6.098,1.118 6.83,1.84 C7.562,2.562 7.928,3.487 7.928,4.617 L7.928,6.147 C7.928,7.281 7.562,8.207 6.83,8.924 C6.098,9.641 5.167,10 4.037,10 L0.863,10 Z M2.717,2.186 L2.717,8.578 L3.942,8.578 C4.606,8.578 5.127,8.354 5.503,7.905 C5.88,7.457 6.068,6.871 6.068,6.147 L6.068,4.604 C6.068,3.889 5.88,3.307 5.503,2.859 C5.127,2.41 4.606,2.186 3.942,2.186 L2.717,2.186 Z M13.26,10 C13.1909511,9.83909415 13.1328195,9.6737198 13.086,9.505 C13.0370205,9.33037517 13.0019113,9.15215422 12.981,8.972 C12.791,9.306 12.54,9.583 12.229,9.803 C11.918,10.023 11.546,10.133 11.115,10.133 C10.395,10.133 9.841,9.948 9.452,9.578 C9.062,9.208 8.868,8.703 8.868,8.064 C8.868,7.391 9.127,6.87 9.645,6.499 C10.164,6.129 10.92,5.944 11.915,5.944 L12.949,5.944 L12.949,5.398 C12.949,5.068 12.862,4.812 12.689,4.63 C12.515,4.448 12.259,4.357 11.921,4.357 C11.621,4.357 11.389,4.43 11.226,4.576 C11.063,4.722 10.981,4.924 10.981,5.182 L9.191,5.176 L9.185,5.138 C9.155,4.558 9.407,4.058 9.94,3.636 C10.474,3.216 11.174,3.005 12.042,3.005 C12.862,3.005 13.529,3.213 14.041,3.63 C14.553,4.047 14.809,4.64 14.809,5.41 L14.809,8.248 C14.809,8.57 14.833,8.872 14.882,9.156 C14.931,9.439 15.008,9.721 15.114,10 L13.26,10 Z M11.565,8.762 C11.891,8.762 12.181,8.682 12.435,8.521 C12.689,8.361 12.86,8.174 12.949,7.962 L12.949,6.992 L11.915,6.992 C11.521,6.992 11.223,7.09 11.02,7.286 C10.8221233,7.47028986 10.7113444,7.72962141 10.715,8 C10.715,8.229 10.791,8.413 10.943,8.553 C11.096,8.693 11.303,8.763 11.565,8.763 L11.565,8.762 Z M17.907,3.132 L17.989,4.116 C18.218,3.764 18.499,3.492 18.833,3.296 C19.1746805,3.09968665 19.5629818,2.99915671 19.957,3.005 C20.651,3.005 21.193,3.223 21.582,3.659 C21.972,4.095 22.166,4.778 22.166,5.709 L22.166,10 L20.306,10 L20.306,5.715 C20.306,5.255 20.213,4.927 20.026,4.735 C19.841,4.542 19.559,4.445 19.183,4.445 C18.7285244,4.43081215 18.2971477,4.64518645 18.034,5.016 L18.034,10 L16.18,10 L16.18,3.132 L17.907,3.132 Z M27.263,8.108 C27.263,7.905 27.165,7.73 26.968,7.582 C26.771,7.433 26.406,7.302 25.873,7.188 C25.061,7.023 24.448,6.778 24.035,6.455 C23.623,6.131 23.417,5.69 23.417,5.131 C23.417,4.539 23.665,4.036 24.162,3.624 C24.66,3.211 25.325,3.004 26.159,3.004 C27.035,3.004 27.732,3.21 28.25,3.621 C28.769,4.031 29.017,4.549 28.996,5.176 L28.983,5.214 L27.193,5.214 C27.193,4.939 27.106,4.714 26.93,4.541 C26.754,4.368 26.497,4.281 26.159,4.281 C25.859,4.281 25.622,4.354 25.451,4.5 C25.2854747,4.63374795 25.1906937,4.83621796 25.194,5.049 C25.194,5.26 25.284,5.434 25.464,5.569 C25.644,5.705 26.008,5.825 26.559,5.931 C27.405,6.101 28.033,6.349 28.444,6.677 C28.854,7.005 29.06,7.457 29.06,8.032 C29.06,8.65 28.795,9.155 28.266,9.546 C27.737,9.938 27.039,10.133 26.171,10.133 C25.257,10.133 24.535,9.902 24.004,9.438 C23.473,8.975 23.22,8.447 23.245,7.854 L23.258,7.816 L24.953,7.816 C24.965,8.185 25.086,8.451 25.314,8.616 C25.543,8.781 25.841,8.864 26.209,8.864 C26.552,8.864 26.814,8.796 26.993,8.661 C27.173,8.525 27.263,8.341 27.263,8.108 Z M35.496,8.578 L39.609,8.578 L39.609,10 L33.643,10 L33.643,0.758 L35.496,0.758 L35.496,8.578 Z M44.554,10 C44.4849511,9.83909415 44.4268195,9.6737198 44.38,9.505 C44.3310205,9.33037517 44.2959113,9.15215422 44.275,8.972 C44.085,9.306 43.834,9.583 43.523,9.803 C43.212,10.023 42.84,10.133 42.409,10.133 C41.689,10.133 41.135,9.948 40.746,9.578 C40.356,9.208 40.162,8.703 40.162,8.064 C40.162,7.391 40.421,6.87 40.939,6.499 C41.458,6.129 42.214,5.944 43.209,5.944 L44.243,5.944 L44.243,5.398 C44.243,5.068 44.156,4.812 43.983,4.63 C43.809,4.448 43.553,4.357 43.215,4.357 C42.915,4.357 42.683,4.43 42.52,4.576 C42.357,4.722 42.275,4.924 42.275,5.182 L40.485,5.176 L40.479,5.138 C40.449,4.558 40.701,4.058 41.234,3.636 C41.768,3.216 42.468,3.005 43.335,3.005 C44.156,3.005 44.823,3.213 45.335,3.63 C45.847,4.047 46.103,4.64 46.103,5.41 L46.103,8.248 C46.103,8.57 46.127,8.872 46.176,9.156 C46.225,9.439 46.302,9.721 46.408,10 L44.554,10 Z M42.859,8.762 C43.185,8.762 43.475,8.682 43.729,8.521 C43.983,8.361 44.154,8.174 44.243,7.962 L44.243,6.992 L43.208,6.992 C42.815,6.992 42.517,7.09 42.313,7.286 C42.1154923,7.47046648 42.0050867,7.72977446 42.009,8 C42.009,8.229 42.085,8.413 42.237,8.553 C42.39,8.693 42.597,8.763 42.859,8.763 L42.859,8.762 Z M52.762,8.578 L57.282,8.578 L57.282,10 L50.521,10 L50.521,9.035 L54.914,2.186 L50.527,2.186 L50.527,0.758 L57.173,0.758 L57.173,1.685 L52.762,8.578 Z M57.96,6.502 C57.96,5.478 58.246,4.639 58.817,3.986 C59.389,3.332 60.18,3.005 61.191,3.005 C62.207,3.005 63.003,3.331 63.578,3.982 C64.154,4.634 64.441,5.474 64.441,6.502 L64.441,6.636 C64.441,7.668 64.155,8.509 63.581,9.159 C63.008,9.809 62.216,10.133 61.204,10.133 C60.188,10.133 59.394,9.809 58.821,9.159 C58.247,8.509 57.961,7.669 57.961,6.636 L57.961,6.502 L57.96,6.502 Z M59.808,6.636 C59.808,7.262 59.918,7.765 60.138,8.143 C60.358,8.523 60.713,8.711 61.204,8.711 C61.682,8.711 62.032,8.521 62.254,8.141 C62.477,7.759 62.588,7.258 62.588,6.636 L62.588,6.502 C62.588,5.893 62.476,5.396 62.251,5.011 C62.027,4.626 61.674,4.433 61.191,4.433 C60.713,4.433 60.363,4.627 60.141,5.013 C59.919,5.401 59.808,5.897 59.808,6.503 L59.808,6.636 Z M67.278,3.132 L67.361,4.116 C67.59,3.764 67.871,3.492 68.206,3.296 C68.5473877,3.09986084 68.9353199,2.999337 69.329,3.005 C70.023,3.005 70.565,3.223 70.954,3.659 C71.344,4.095 71.538,4.778 71.538,5.709 L71.538,10 L69.678,10 L69.678,5.715 C69.678,5.255 69.585,4.927 69.398,4.735 C69.213,4.542 68.931,4.445 68.555,4.445 C68.1005244,4.43081215 67.6691477,4.64518645 67.406,5.016 L67.406,10 L65.552,10 L65.552,3.132 L67.279,3.132 L67.278,3.132 Z M75.962,10.133 C74.972,10.133 74.181,9.816 73.588,9.181 C72.996,8.546 72.7,7.741 72.7,6.763 L72.7,6.509 C72.7,5.489 72.98,4.649 73.54,3.989 C74.101,3.329 74.854,3.001 75.797,3.005 C76.724,3.005 77.444,3.285 77.956,3.843 C78.468,4.401 78.724,5.157 78.724,6.109 L78.724,7.119 L74.623,7.119 L74.61,7.156 C74.644,7.609 74.795,7.981 75.064,8.273 C75.333,8.565 75.698,8.711 76.159,8.711 C76.569,8.711 76.91,8.671 77.181,8.588 C77.452,8.505 77.748,8.375 78.07,8.198 L78.571,9.34 C78.292,9.568 77.926,9.758 77.473,9.908 C77.02,10.058 76.517,10.133 75.963,10.133 L75.962,10.133 Z M75.797,4.433 C75.4778101,4.42186814 75.1737886,4.56938597 74.985,4.827 C74.786,5.089 74.663,5.434 74.617,5.861 L74.636,5.893 L76.908,5.893 L76.908,5.728 C76.908,5.334 76.816,5.02 76.632,4.785 C76.448,4.551 76.17,4.433 75.797,4.433 Z" id="a"></path>
                </g>
            </g>
            <path d="M27.456,171.016 L27.468,171.05 C27.3774302,171.82805 26.97868,172.537299 26.361,173.019 C25.729,173.526 24.95,173.779 24.023,173.779 C23.126,173.779 22.423,173.446 21.914,172.778 C21.405,172.11 21.228,171.273 21.384,170.266 L21.604,168.796 C21.76,167.741 22.178,166.89 22.859,166.246 C23.5115,165.612091 24.3893868,165.263814 25.299,165.278 C26.2,165.278 26.897,165.528 27.391,166.03 C27.885,166.53 28.064,167.188 27.927,168.002 L27.91,168.036 L26.838,168.036 C26.925,167.434 26.824,166.971 26.537,166.646 C26.249,166.32 25.792,166.157 25.163,166.157 C24.566,166.157 24.037,166.412 23.577,166.921 C23.117,167.43 22.833,168.051 22.723,168.785 L22.502,170.266 C22.381,171.05 22.468,171.686 22.762,172.173 C23.058,172.661 23.522,172.906 24.153,172.906 C24.751,172.906 25.25,172.736 25.652,172.398 C26.052,172.058 26.299,171.598 26.389,171.016 L27.456,171.016 Z M29.585,173.66 L28.467,173.66 L29.387,167.52 L30.504,167.52 L29.584,173.66 L29.585,173.66 Z M30.743,165.947 L29.624,165.947 L29.794,164.807 L30.913,164.807 L30.743,165.947 Z M36.974,170.823 C36.834,171.742 36.514,172.465 36.015,172.991 C35.515,173.517 34.889,173.78 34.137,173.78 C33.739,173.78 33.402,173.696 33.127,173.53 C32.8432128,173.355631 32.6176612,173.100841 32.479,172.798 L32.161,173.66 L31.304,173.66 L32.632,164.806 L33.751,164.806 L33.234,168.246 C33.472,167.973 33.744,167.766 34.051,167.622 C34.373408,167.474655 34.7245551,167.400873 35.079,167.406 C35.805,167.406 36.341,167.711 36.688,168.322 C37.034,168.934 37.135,169.727 36.991,170.703 L36.974,170.823 Z M35.874,170.703 C35.983,169.973 35.941,169.393 35.748,168.961 C35.555,168.53 35.192,168.314 34.658,168.314 C34.326,168.314 34.026,168.4 33.759,168.572 C33.4850715,168.751512 33.2536749,168.988711 33.081,169.267 L32.684,171.912 C32.782,172.215 32.935,172.451 33.144,172.619 C33.351,172.787 33.634,172.871 33.989,172.871 C34.496,172.871 34.911,172.681 35.235,172.301 C35.558,171.921 35.765,171.428 35.856,170.823 L35.873,170.703 L35.874,170.703 Z M39.12,173.66 L38.002,173.66 L39.33,164.806 L40.448,164.806 L39.12,173.66 Z M43.365,173.78 C42.517,173.78 41.881,173.494 41.455,172.923 C41.029,172.351 40.885,171.613 41.021,170.709 L41.061,170.459 C41.193,169.544 41.554,168.806 42.141,168.246 C42.731,167.686 43.397,167.406 44.143,167.406 C44.933,167.406 45.503,167.666 45.851,168.183 C46.199,168.702 46.311,169.377 46.186,170.21 L46.101,170.8 L42.128,170.8 C42.041,171.45 42.105,171.964 42.321,172.34 C42.536,172.717 42.928,172.906 43.496,172.906 C43.859,172.906 44.196,172.851 44.509,172.741 C44.8020544,172.641464 45.0754897,172.491548 45.317,172.298 L45.647,173.025 C45.3636146,173.256035 45.0430593,173.437277 44.699,173.561 C44.317,173.707 43.872,173.78 43.365,173.78 Z M44.012,168.286 C43.637,168.286 43.298,168.436 42.993,168.74 C42.6792454,169.058936 42.4535659,169.453789 42.338,169.886 L42.349,169.92 L45.113,169.92 L45.124,169.83 C45.193,169.372 45.14,169 44.966,168.714 C44.791,168.428 44.474,168.286 44.012,168.286 Z M49.966,173.66 L51.203,165.397 L53.899,165.397 C54.727,165.397 55.366,165.585 55.814,165.961 C56.263,166.338 56.432,166.895 56.322,167.633 C56.266,168 56.109,168.323 55.852,168.603 C55.594,168.883 55.272,169.095 54.886,169.239 C55.412,169.319 55.803,169.554 56.058,169.946 C56.314,170.337 56.404,170.798 56.328,171.328 C56.207,172.115 55.876,172.7 55.335,173.084 C54.794,173.468 54.095,173.66 53.24,173.66 L49.966,173.66 Z M51.663,169.784 L51.214,172.786 L53.372,172.786 C53.864,172.786 54.274,172.66 54.604,172.406 C54.933,172.153 55.131,171.796 55.2,171.339 C55.268,170.866 55.18,170.492 54.936,170.219 C54.692,169.944 54.326,169.799 53.837,169.784 L51.664,169.784 L51.663,169.784 Z M51.793,168.91 L53.609,168.91 C54.01,168.91 54.362,168.794 54.665,168.564 C54.968,168.333 55.149,168.015 55.21,167.61 C55.278,167.149 55.19,166.81 54.943,166.597 C54.697,166.383 54.306,166.277 53.768,166.277 L52.192,166.277 L51.794,168.91 L51.793,168.91 Z M60.976,173.66 C60.969416,173.489075 60.9657488,173.31805 60.965,173.147 C60.965,173.017 60.973,172.883 60.988,172.747 C60.7252572,173.04568 60.4109158,173.294646 60.06,173.482 C59.7175935,173.674649 59.3318714,173.777187 58.939,173.78 C58.322,173.78 57.865,173.614 57.569,173.283 C57.271,172.952 57.166,172.503 57.253,171.935 C57.34,171.33 57.643,170.866 58.161,170.545 C58.68,170.223 59.351,170.062 60.176,170.062 L61.391,170.062 L61.481,169.455 C61.538,169.08 61.473,168.792 61.286,168.589 C61.098,168.387 60.802,168.286 60.397,168.286 C60.053,168.286 59.75,168.376 59.489,168.558 C59.229,168.74 59.081,168.958 59.047,169.211 L57.98,169.222 L57.974,169.188 C58.019,168.723 58.29,168.309 58.786,167.948 C59.281,167.587 59.883,167.406 60.59,167.406 C61.26,167.406 61.786,167.585 62.168,167.942 C62.55,168.3 62.694,168.808 62.6,169.466 L62.157,172.423 C62.119,172.653 62.097,172.869 62.092,173.067 C62.086,173.266 62.098,173.464 62.128,173.66 L60.976,173.66 Z M59.246,172.843 C59.631,172.843 60.006,172.737 60.369,172.525 C60.732,172.313 60.984,172.075 61.124,171.81 L61.277,170.817 L60.023,170.817 C59.588,170.817 59.213,170.932 58.899,171.163 C58.585,171.393 58.407,171.659 58.366,171.958 C58.32,172.241 58.37,172.46 58.516,172.613 C58.662,172.766 58.905,172.843 59.246,172.843 Z M67.424,172.009 C67.458,171.755 67.394,171.553 67.231,171.401 C67.068,171.251 66.731,171.116 66.221,170.999 C65.517,170.843 64.99,170.626 64.64,170.346 C64.29,170.066 64.149,169.691 64.217,169.222 C64.289,168.7 64.56,168.267 65.031,167.922 C65.503,167.578 66.081,167.406 66.765,167.406 C67.431,167.406 67.961,167.596 68.355,167.979 C68.748,168.361 68.901,168.8 68.815,169.296 L68.803,169.33 L67.73,169.33 C67.7698081,169.062573 67.6790848,168.792262 67.486,168.603 C67.286,168.392 67.006,168.286 66.646,168.286 C66.268,168.286 65.964,168.376 65.736,168.556 C65.506,168.735 65.375,168.946 65.341,169.188 C65.307,169.438 65.364,169.627 65.511,169.756 C65.659,169.884 65.991,170.003 66.51,170.113 C67.24,170.272 67.78,170.497 68.128,170.789 C68.476,171.079 68.618,171.46 68.553,171.929 C68.473,172.493 68.192,172.942 67.708,173.277 C67.223,173.612 66.622,173.78 65.903,173.78 C65.153,173.78 64.573,173.579 64.163,173.178 C63.753,172.777 63.595,172.315 63.689,171.793 L63.701,171.759 L64.772,171.759 C64.738,172.156 64.846,172.447 65.096,172.63 C65.346,172.814 65.656,172.906 66.026,172.906 C66.409,172.906 66.726,172.82 66.98,172.65 C67.234,172.48 67.381,172.266 67.423,172.009 L67.424,172.009 Z M73.502,172.009 C73.536,171.755 73.472,171.553 73.309,171.401 C73.147,171.251 72.809,171.116 72.299,170.999 C71.595,170.843 71.069,170.626 70.719,170.346 C70.369,170.066 70.227,169.691 70.296,169.222 C70.367,168.7 70.639,168.267 71.11,167.922 C71.581,167.578 72.16,167.406 72.844,167.406 C73.51,167.406 74.04,167.596 74.434,167.979 C74.827,168.361 74.98,168.8 74.893,169.296 L74.881,169.33 L73.809,169.33 C73.8488081,169.062573 73.7580848,168.792262 73.565,168.603 C73.365,168.392 73.085,168.286 72.725,168.286 C72.346,168.286 72.043,168.376 71.814,168.556 C71.584,168.735 71.454,168.946 71.419,169.188 C71.385,169.438 71.442,169.627 71.589,169.756 C71.737,169.884 72.07,170.003 72.589,170.113 C73.319,170.272 73.858,170.497 74.206,170.789 C74.554,171.079 74.696,171.46 74.632,171.929 C74.552,172.493 74.27,172.942 73.786,173.277 C73.302,173.612 72.7,173.78 71.981,173.78 C71.232,173.78 70.652,173.579 70.241,173.178 C69.831,172.777 69.673,172.315 69.768,171.793 L69.779,171.759 L70.852,171.759 C70.818,172.156 70.926,172.447 71.175,172.63 C71.425,172.814 71.735,172.906 72.106,172.906 C72.488,172.906 72.806,172.82 73.06,172.65 C73.313,172.48 73.46,172.266 73.502,172.009 Z M78.275,173.779 C77.428,173.779 76.791,173.494 76.365,172.923 C75.94,172.351 75.795,171.613 75.931,170.709 L75.971,170.459 C76.104,169.544 76.464,168.806 77.052,168.246 C77.641,167.686 78.308,167.406 79.053,167.406 C79.843,167.406 80.413,167.666 80.761,168.183 C81.109,168.702 81.221,169.377 81.096,170.21 L81.011,170.8 L77.038,170.8 C76.951,171.45 77.015,171.964 77.231,172.34 C77.447,172.717 77.838,172.906 78.406,172.906 C78.769,172.906 79.106,172.851 79.419,172.741 C79.7124061,172.64157 79.9861877,172.49165 80.228,172.298 L80.557,173.025 C80.2736146,173.256035 79.9530593,173.437277 79.609,173.561 C79.227,173.707 78.782,173.78 78.275,173.78 L78.275,173.779 Z M78.922,168.286 C78.548,168.286 78.208,168.436 77.904,168.74 C77.589882,169.058822 77.3638522,169.453685 77.248,169.886 L77.26,169.92 L80.024,169.92 L80.034,169.83 C80.103,169.372 80.05,169 79.876,168.714 C79.702,168.428 79.384,168.286 78.922,168.286 Z M27.531,67.864 L27.542,67.898 C27.4505222,68.6854797 27.0470816,69.403388 26.422,69.891 C25.782,70.405 24.994,70.661 24.055,70.661 C23.148,70.661 22.436,70.323 21.921,69.647 C21.406,68.971 21.227,68.124 21.384,67.105 L21.608,65.618 C21.765,64.549 22.188,63.688 22.878,63.035 C23.538662,62.3936157 24.4273293,62.0413869 25.348,62.056 C26.259,62.056 26.965,62.31 27.465,62.817 C27.965,63.325 28.145,63.99 28.008,64.813 L27.99,64.848 L26.905,64.848 C26.993,64.238 26.891,63.77 26.6,63.44 C26.31,63.111 25.846,62.946 25.21,62.946 C24.605,62.946 24.07,63.204 23.604,63.719 C23.139,64.234 22.851,64.863 22.74,65.606 L22.516,67.106 C22.393,67.898 22.481,68.542 22.78,69.036 C23.079,69.53 23.548,69.776 24.187,69.776 C24.793,69.776 25.298,69.606 25.704,69.262 C26.11,68.92 26.359,68.453 26.451,67.864 L27.531,67.864 Z M29.685,70.541 L28.552,70.541 L29.482,64.325 L30.615,64.325 L29.684,70.541 L29.685,70.541 Z M30.857,62.734 L29.725,62.734 L29.897,61.579 L31.029,61.579 L30.857,62.734 Z M37.164,67.668 C37.023,68.599 36.699,69.33 36.194,69.863 C35.688,70.395 35.054,70.661 34.292,70.661 C33.89,70.661 33.549,70.577 33.269,70.408 C32.9825764,70.2314844 32.7549704,69.9739485 32.615,69.668 L32.293,70.541 L31.426,70.541 L32.77,61.579 L33.901,61.579 L33.379,65.06 C33.619,64.785 33.896,64.574 34.206,64.428 C34.516,64.283 34.863,64.21 35.246,64.21 C35.981,64.21 36.524,64.52 36.874,65.138 C37.224,65.756 37.327,66.56 37.181,67.548 L37.164,67.668 Z M36.05,67.548 C36.16,66.808 36.119,66.221 35.923,65.784 C35.728,65.348 35.36,65.129 34.821,65.129 C34.483,65.129 34.18,65.216 33.91,65.391 C33.64,65.565 33.411,65.8 33.224,66.094 L32.821,68.771 C32.921,69.078 33.076,69.316 33.287,69.487 C33.497,69.657 33.783,69.742 34.143,69.742 C34.6294417,69.753947 35.0942554,69.5410918 35.403,69.165 C35.731,68.78 35.941,68.281 36.033,67.668 L36.05,67.548 Z M39.336,70.541 L38.204,70.541 L39.548,61.579 L40.68,61.579 L39.336,70.541 Z M43.633,70.661 C42.775,70.661 42.13,70.372 41.7,69.794 C41.269,69.216 41.122,68.469 41.26,67.554 L41.3,67.301 C41.434,66.374 41.8,65.627 42.395,65.061 C42.99,64.494 43.665,64.211 44.42,64.211 C45.22,64.211 45.796,64.473 46.149,64.997 C46.501,65.522 46.614,66.205 46.488,67.048 L46.401,67.645 L42.381,67.645 C42.292,68.305 42.357,68.824 42.576,69.205 C42.794,69.586 43.19,69.777 43.765,69.777 C44.132,69.777 44.475,69.721 44.79,69.61 C45.106,69.499 45.379,69.35 45.609,69.162 L45.942,69.897 C45.6550528,70.1310496 45.3304364,70.3146607 44.982,70.44 C44.596,70.588 44.146,70.661 43.632,70.661 L43.633,70.661 Z M44.287,65.101 C43.908,65.101 43.565,65.254 43.257,65.561 C42.948,65.867 42.727,66.253 42.593,66.721 L42.604,66.755 L45.402,66.755 L45.413,66.663 C45.483,66.2 45.429,65.823 45.253,65.534 C45.076,65.245 44.755,65.101 44.287,65.101 Z M56.638,70.541 L55.506,70.541 L56.058,66.847 L51.997,66.847 L51.445,70.541 L50.313,70.541 L51.566,62.177 L52.697,62.177 L52.129,65.957 L56.19,65.957 L56.759,62.177 L57.89,62.177 L56.638,70.541 Z M62.256,70.541 C62.2493717,70.367742 62.2457045,70.1943833 62.245,70.021 C62.245,69.889 62.252,69.754 62.268,69.616 C62.011,69.911 61.698,70.159 61.328,70.36 C60.958,70.56 60.581,70.661 60.194,70.661 C59.57,70.661 59.107,70.494 58.807,70.159 C58.506,69.824 58.4,69.369 58.487,68.794 C58.5582182,68.2074651 58.8982472,67.6874426 59.407,67.387 C59.932,67.061 60.611,66.899 61.447,66.899 L62.676,66.899 L62.767,66.284 C62.825,65.904 62.759,65.613 62.569,65.408 C62.379,65.203 62.08,65.101 61.67,65.101 C61.3424787,65.0945459 61.0211418,65.1907022 60.751,65.376 C60.487,65.56 60.338,65.78 60.303,66.036 L59.223,66.048 L59.217,66.014 C59.263,65.543 59.537,65.124 60.039,64.759 C60.54,64.393 61.149,64.21 61.866,64.21 C62.543,64.21 63.076,64.391 63.463,64.753 C63.849,65.115 63.995,65.629 63.899,66.295 L63.451,69.288 C63.413,69.522 63.391,69.739 63.385,69.94 C63.379,70.141 63.392,70.341 63.422,70.54 L62.256,70.54 L62.256,70.541 Z M60.504,69.713 C60.894,69.713 61.274,69.606 61.642,69.392 C62.009,69.177 62.264,68.936 62.406,68.668 L62.561,67.663 L61.291,67.663 C60.851,67.663 60.471,67.779 60.154,68.013 C59.836,68.247 59.656,68.515 59.614,68.817 C59.568,69.105 59.618,69.326 59.766,69.481 C59.913,69.636 60.159,69.713 60.504,69.713 Z M68.926,70.541 L68.989,69.651 C68.744,69.98 68.455,70.231 68.124,70.403 C67.7818308,70.5777464 67.4021716,70.6663106 67.018,70.661 C66.363,70.661 65.873,70.442 65.548,70.004 C65.222,69.565 65.128,68.894 65.266,67.99 L65.812,64.325 L66.944,64.325 L66.392,68.002 C66.289,68.687 66.316,69.149 66.472,69.386 C66.63,69.623 66.919,69.742 67.34,69.742 C67.734,69.742 68.077,69.657 68.368,69.487 C68.659,69.317 68.897,69.076 69.081,68.766 L69.741,64.326 L70.873,64.326 L69.943,70.541 L68.926,70.541 Z M74.32,62.826 L74.096,64.326 L75.272,64.326 L75.146,65.164 L73.968,65.164 L73.405,68.938 C73.359,69.24 73.387,69.448 73.489,69.561 C73.59,69.674 73.742,69.731 73.945,69.731 C74.0914095,69.724927 74.2362028,69.6979887 74.375,69.651 L74.416,70.426 C74.2944186,70.5064106 74.1592145,70.5640164 74.017,70.596 C73.847,70.639 73.681,70.661 73.52,70.661 C73.076,70.661 72.734,70.521 72.495,70.241 C72.255,69.962 72.182,69.528 72.274,68.938 L72.837,65.164 L71.848,65.164 L71.975,64.325 L72.963,64.325 L73.187,62.825 L74.319,62.825 L74.32,62.826 Z M78.11,70.661 C77.253,70.661 76.609,70.372 76.178,69.794 C75.748,69.216 75.601,68.469 75.738,67.554 L75.778,67.301 C75.913,66.374 76.278,65.627 76.873,65.061 C77.469,64.494 78.143,64.211 78.898,64.211 C79.698,64.211 80.275,64.473 80.627,64.997 C80.979,65.522 81.092,66.205 80.966,67.048 L80.88,67.645 L76.859,67.645 C76.771,68.305 76.836,68.824 77.054,69.205 C77.272,69.586 77.669,69.777 78.244,69.777 C78.611,69.777 78.953,69.721 79.268,69.61 C79.584,69.499 79.858,69.35 80.087,69.162 L80.42,69.897 C80.1330528,70.1310496 79.8084364,70.3146607 79.46,70.44 C79.074,70.588 78.624,70.661 78.11,70.661 Z M78.766,65.101 C78.386,65.101 78.043,65.254 77.735,65.561 C77.426,65.867 77.205,66.253 77.071,66.721 L77.083,66.755 L79.88,66.755 L79.892,66.663 C79.961,66.2 79.907,65.823 79.731,65.534 C79.555,65.245 79.233,65.101 78.766,65.101 Z" id="Shape" fill="#6D6E71" fill-rule="nonzero"></path>
            <g id="Group" transform="translate(24.272000, 133.000000)" fill="#2A3052" fill-rule="nonzero">
                <path d="M33.278,2.1 L33.278,3.85 L34.643,3.85 L34.643,4.83 L33.278,4.83 L33.278,9.205 C33.278,9.555 33.348,9.765 33.488,9.905 C33.628,10.045 33.803,10.115 34.048,10.115 C34.118,10.115 34.188,10.115 34.293,10.08 C34.3793007,10.0779475 34.4636415,10.0538502 34.538,10.01 L34.713,10.92 C34.5804289,11.0039648 34.4397145,11.074322 34.293,11.13 C34.118,11.165 33.908,11.2 33.733,11.2 C33.2636241,11.2160816 32.8081898,11.0389683 32.473,10.71 C32.158,10.395 32.018,9.87 32.018,9.205 L32.018,4.83 L30.898,4.83 L30.898,3.85 L32.018,3.85 L32.018,2.1 L33.278,2.1 Z M15.057,8.03 L10.194,8.03 C10.319,9.511 10.927,10.252 12.019,10.252 C13.657,10.252 13.885,8.863 13.885,8.95 L14.96,8.946 C14.436,10.449 13.456,11.201 12.02,11.201 C9.864,11.201 9.109,9.676 9.018,8.03 C8.927,6.384 9.475,4.174 12.038,4.174 C14.138,4.214 15.145,5.498 15.057,8.03 Z M13.837,7.154 C13.714,5.846 13.106,5.192 12.011,5.192 C10.916,5.192 10.307,5.846 10.184,7.154 L13.837,7.154 Z M28.197,3.987 L29.443,3.987 L29.443,11.037 L28.197,11.037 L28.197,9.992 C27.802,10.502 27.15,11.324 25.842,11.185 C24.534,11.047 23.725,10.021 23.719,8.89 C23.713,7.759 23.725,3.604 23.719,3.987 L24.955,3.987 L24.955,6.659 C24.955,9.783 25.642,10.129 26.581,10.129 C27.521,10.129 27.981,9.335 28.197,9.071 C28.187,7.586 28.187,5.891 28.197,3.987 Z M16.289,0.833 L17.525,0.833 L17.525,4.94 C17.882,4.216 18.554,3.854 19.538,3.854 C21.016,3.854 21.482,4.746 21.662,5.002 C21.842,5.257 22.202,5.992 22.302,7.166 C22.387,8.185 22.144,9.77 21.438,10.389 C20.508,11.206 19.91,11.201 19.411,11.201 C18.911,11.201 17.973,10.961 17.451,10.068 L17.271,11.024 L16.289,11.024 L16.289,0.834 L16.289,0.833 Z M17.581,9.023 C17.951,9.766 18.447,10.139 19.07,10.139 C20.004,10.139 20.34,9.874 20.647,9.407 C20.998,8.873 21.074,7.83 21.001,7.029 C20.9538086,6.58423861 20.834232,6.15018212 20.647,5.744 C20.561,5.574 20.282,4.827 19.07,4.881 C18.064,4.891 17.61,5.78 17.58,5.951 L17.58,9.022 L17.581,9.023 Z M14.255,0.833 L12.457,2.598 L11.496,2.598 L12.712,0.833 L14.255,0.833 Z M0.634,1.81 L4.157,1.81 C5.555,2.022 7.771,2.57 7.771,6.506 C7.771,10.441 5.506,11.025 4.203,11.201 L0.634,11.201 L0.634,1.811 L0.634,1.81 Z M1.883,2.802 L1.883,10.252 L3.666,10.252 C4.008,10.252 5.998,10.249 6.332,7.956 C6.665,5.664 6.308,4.763 6.029,4.184 C5.75,3.604 5.017,2.802 3.666,2.802 L1.883,2.802 Z" id="Shape"></path>
            </g>
            <g id="Group" transform="translate(267.272000, 122.000000)" fill="#2A3052" fill-rule="nonzero">
                <path d="M13.675,2.66 L13.793,3.873 C14.2740472,3.0330264 15.1752261,2.52261401 16.143,2.542 C17.003,2.542 17.669,2.777 18.139,3.325 C18.609,3.834 18.844,4.617 18.844,5.675 L18.844,10.765 L17.395,10.765 L17.395,5.713 C17.395,5.009 17.239,4.5 16.965,4.186 C16.69,3.873 16.26,3.756 15.712,3.756 C15.281,3.756 14.928,3.873 14.615,4.069 C14.302,4.265 14.028,4.539 13.832,4.891 L13.832,10.764 L12.383,10.764 L12.383,2.698 L13.675,2.659 L13.675,2.66 Z M7.181,0.57 L7.181,1.614 L2.178,1.614 L2.178,5.156 L6.44,5.156 L6.44,6.23 L2.178,6.23 L2.178,10.764 L0.709,10.764 L0.709,0.571 L7.181,0.57 Z M8.848,3.956 L10.258,3.956 L10.258,10.784 L8.848,10.784 L8.848,3.956 Z M8.754,0.734 L8.754,2.201 L10.295,2.201 L10.295,0.734 L8.754,0.734 Z" id="Shape"></path>
            </g>
            <g id="Group-20" transform="translate(113.272000, 156.000000)" fill="#FFFFFF" fill-rule="nonzero">
                <path d="M63.812,10.678 L57.869,10.678 C57.999,13.422 59.697,14.085 62.962,12.668 L63.656,14.003 C63.0550285,14.4994948 62.3432766,14.8438798 61.581,15.007 C59.966,15.358 58.388,15.09 57.295,14.283 C54.922,12.533 55.528,8.858 56.05,7.592 C56.295,7 57.497,5.332 58.927,5.17 C60.222,5.024 63.429,4.717 63.812,9.026 C63.842,9.903 63.842,10.454 63.812,10.678 Z M61.7110024,8.891 C61.712,7.358 61.106,6.591 59.891,6.591 C58.069,6.591 57.885,8.891 57.885,8.891 L61.7110024,8.891 Z M13.28,5.06 L15.383,5.06 L15.383,14.772 L13.279,14.772 L13.28,5.06 Z M13.321,0.822 L13.321,2.925 L15.444,2.925 L15.444,0.822 L13.321,0.822 Z M45.306,5.211 L47.449,5.211 L47.449,15.214 L45.306,15.214 L45.306,5.211 Z M45.349,0.844 L45.349,2.743 L47.536,2.743 L47.536,0.844 L45.349,0.844 Z M9.384,1.787 L11.78,1.787 L7.057,15.143 L4.847,15.143 L0.183,1.787 L2.591,1.787 L5.981,12.408 L9.384,1.787 Z M23.825,8.72 L25.854,8.72 C25.854,7.656 25.127,4.83 21.744,4.952 C18.359,5.074 17.532,8.115 17.532,10.132 C17.532,12.149 18.56,15.312 21.871,15.312 C25.181,15.312 25.854,12.793 25.854,11.824 L23.825,11.824 C23.702,12.944 23.058,13.505 21.893,13.505 C20.146,13.505 19.752,11.452 19.752,10.132 C19.752,8.812 20.002,6.847 21.743,6.755 C22.904,6.693 23.598,7.348 23.825,8.719 L23.825,8.72 Z M28.336,2.759 L30.55,2.759 L30.55,5.189 L32.331,5.189 L32.331,6.792 L30.55,6.792 L30.55,12.257 C30.55,12.627 30.552,13.744 32.16,13.325 C32.278,14.106 32.365,14.65 32.42,14.955 C31.846,15.305 28.336,16.056 28.336,12.257 L28.336,6.792 L26.816,6.792 L26.816,5.188 L28.336,5.188 L28.336,2.758 L28.336,2.759 Z M38.247,5.101 C41.011,5.101 42.51,6.786 42.889,9.311 C43.269,11.836 41.905,15.402 38.441,15.402 C34.977,15.402 33.857,12.768 33.857,10.042 C33.857,7.317 35.482,5.102 38.247,5.102 L38.247,5.101 Z M38.272,6.871 C37.45,6.948 35.994,7.523 36.079,10.249 C36.164,12.974 37.355,13.615 38.272,13.615 C39.188,13.615 40.732,13.361 40.732,10.26 C40.732,7.16 39.093,6.793 38.272,6.87 L38.272,6.871 Z M54.808,5.053 C54.718,5.91 54.618,6.613 54.51,7.166 C53.433,7.096 52.314,6.994 51.825,8.253 L51.838,15.026 L49.621,15.026 L49.621,5.132 L51.593,5.132 C51.688,5.792 51.747,6.274 51.77,6.576 C52.451,5.304 53.464,4.796 54.808,5.053 Z" id="Shape"></path>
                <path d="M66.118,1.741 L68.197,1.741 L68.197,10.45 L66.118,10.45 L66.118,1.741 Z M68.276,12.999 L68.276,15.007 L66.126,15.007 L66.126,12.999 L68.276,12.999 Z" id="Shape"></path>
            </g>
        </g>
    </g>
</svg>