<svg width="300" height="199" viewBox="0 0 300 199" xmlns="http://www.w3.org/2000/svg"><title>french under</title><g fill="none" fill-rule="evenodd"><path fill="#F1F2F2" d="M0 0h300v199H0z"/><path d="M39.125 55.375V74.75H75.25V55.375H39.125zm0-1H75.25V34h1v20.375h36.125V34h1v20.375H149.5V34h1v20.375h36.125V34h1v20.375h36.125V34h1v20.375h36.125V34h1v20.375H299.5v1h-37.625V74.75H299.5v1h-37.625v19.375H299.5v1h-37.625V115.5H299.5v1h-37.625v19.375H299.5v1h-37.625v19.375H299.5v1h-37.625v19.375H299.5v1h-37.625V199h-1v-21.375H224.75V199h-1v-21.375h-36.125V199h-1v-21.375H150.5V199h-1v-21.375h-36.125V199h-1v-21.375H76.25V199h-1v-21.375H39.125V199h-1v-21.375H1.5v-1h36.625V157.25H1.5v-1h36.625v-19.375H1.5v-1h36.625V116.5H1.5v-1h36.625V96.125H1.5v-1h36.625V75.75H1.5v-1h36.625V55.375H1.5v-1h36.625V34h1v20.375zm221.75 1H224.75V74.75h36.125V55.375zm-37.125 0h-36.125V74.75h36.125V55.375zm-37.125 0H150.5V74.75h36.125V55.375zm-37.125 0h-36.125V74.75H149.5V55.375zm-37.125 0H76.25V74.75h36.125V55.375zM39.125 75.75v19.375H75.25V75.75H39.125zm221.75 0H224.75v19.375h36.125V75.75zm-37.125 0h-36.125v19.375h36.125V75.75zm-37.125 0H150.5v19.375h36.125V75.75zm-37.125 0h-36.125v19.375H149.5V75.75zm-37.125 0H76.25v19.375h36.125V75.75zm-73.25 20.375V115.5H75.25V96.125H39.125zm221.75 0H224.75V115.5h36.125V96.125zm-37.125 0h-36.125V115.5h36.125V96.125zm-37.125 0H150.5V115.5h36.125V96.125zm-37.125 0h-36.125V115.5H149.5V96.125zm-37.125 0H76.25V115.5h36.125V96.125zM39.125 116.5v19.375H75.25V116.5H39.125zm221.75 0H224.75v19.375h36.125V116.5zm-37.125 0h-36.125v19.375h36.125V116.5zm-37.125 0H150.5v19.375h36.125V116.5zm-37.125 0h-36.125v19.375H149.5V116.5zm-37.125 0H76.25v19.375h36.125V116.5zm-73.25 20.375v19.375H75.25v-19.375H39.125zm221.75 0H224.75v19.375h36.125v-19.375zm-37.125 0h-36.125v19.375h36.125v-19.375zm-37.125 0H150.5v19.375h36.125v-19.375zm-37.125 0h-36.125v19.375H149.5v-19.375zm-37.125 0H76.25v19.375h36.125v-19.375zm-73.25 20.375v19.375H75.25V157.25H39.125zm221.75 0H224.75v19.375h36.125V157.25zm-37.125 0h-36.125v19.375h36.125V157.25zm-37.125 0H150.5v19.375h36.125V157.25zm-37.125 0h-36.125v19.375H149.5V157.25zm-37.125 0H76.25v19.375h36.125V157.25z" fill="#DFDEDE"/><path stroke="#C2C2C2" stroke-width="2" d="M1 1h298v197H1z"/><path fill="#C2C2C2" d="M0 33h300v2H0z"/><g transform="translate(3 47.65)"><path d="M.62 109.164h293.334" stroke="#293052" stroke-width="1.215" stroke-linejoin="round" stroke-dasharray="3.608"/><path stroke="#293052" stroke-width="3.608" stroke-linecap="round" stroke-linejoin="round" d="M221.93 109.164l-32.38-70.545-42.856 32.254-43.505-30.735-30.01 27.735-37.121-31.552"/><path d="M254.349 69.704l.688-6.778h6.04v1.48h-4.626l-.382 3.467c.259-.193.541-.35.84-.467a3.12 3.12 0 0 1 1.071-.195 3.22 3.22 0 0 1 2.638 1.13 4.497 4.497 0 0 1 .956 3.038 4.376 4.376 0 0 1-.994 2.96 3.558 3.558 0 0 1-2.829 1.13 3.777 3.777 0 0 1-2.561-.857 2.989 2.989 0 0 1-.994-2.493h1.49c-.036.58.173 1.147.574 1.558.404.38.942.578 1.491.546a1.897 1.897 0 0 0 1.606-.74 3.284 3.284 0 0 0 .42-2.182 3.079 3.079 0 0 0-.573-1.948 1.898 1.898 0 0 0-1.606-.779 2.522 2.522 0 0 0-1.414.312 1.712 1.712 0 0 0-.65.896l-1.185-.078zm6.078 21.152h1.644v1.324h-1.644v2.844h-1.644V92.14h-5.428v-.935l5.314-8.53h1.72v8.18h.038zm-5.314 0h3.823v-5.804.428l-3.823 5.376zm6.614 45.303h-7.837v-1.169l3.823-4.48c.55-.58 1.038-1.22 1.452-1.908.245-.44.377-.936.383-1.442a2.325 2.325 0 0 0-.535-1.558 1.744 1.744 0 0 0-1.415-.623 2.382 2.382 0 0 0-1.835.662 2.641 2.641 0 0 0-.612 1.83H253.7a3.502 3.502 0 0 1 1.032-2.687 4.008 4.008 0 0 1 2.982-1.09c.96-.052 1.9.3 2.6.973.638.648.984 1.537.955 2.454a3.95 3.95 0 0 1-.573 2.026c-.47.785-1.021 1.516-1.644 2.181l-3.173 3.506h5.81v1.325h.039zm0-113.705a17.302 17.302 0 0 0-2.944 4.713 21.452 21.452 0 0 0-1.108 4.986v1.324h-1.72v-1.324c.202-1.83.68-3.616 1.414-5.298a20.005 20.005 0 0 1 2.752-4.48h-6.575V21.13h8.18v1.325zm-.459-18.114a2.761 2.761 0 0 1-.535 1.675c-.369.501-.874.88-1.453 1.09a3.821 3.821 0 0 1 1.682 1.17c.408.518.624 1.166.612 1.83.058 1-.354 1.969-1.109 2.61a4.969 4.969 0 0 1-5.696 0 3.224 3.224 0 0 1-1.07-2.61c-.01-.664.207-1.31.611-1.83a3.556 3.556 0 0 1 1.644-1.17 3.065 3.065 0 0 1-1.414-1.09 2.842 2.842 0 0 1-.497-1.675c-.05-.94.314-1.855.994-2.493a3.778 3.778 0 0 1 2.6-.896c.945-.04 1.871.28 2.599.896a3.145 3.145 0 0 1 1.032 2.493zm-1.3 5.726a2.243 2.243 0 0 0-2.293-2.337 2.157 2.157 0 0 0-1.644.634 2.243 2.243 0 0 0-.65 1.664 2.163 2.163 0 0 0 .65 1.636 2.637 2.637 0 0 0 3.326 0c.417-.42.64-1 .611-1.597zm-.19-5.687a2.126 2.126 0 0 0-.574-1.519 2 2 0 0 0-2.83 0 2.167 2.167 0 0 0-.534 1.52c-.032.559.161 1.107.535 1.518a2.037 2.037 0 0 0 2.829 0c.387-.405.594-.954.573-1.519z" fill="#808184" fill-rule="nonzero"/><path d="M186.07 99.23h-35.4l-5.581-8.296-5.353 8.297h-35.4c-2.64 0-4.779 2.18-4.779 4.869v25.203c0 2.689 2.14 4.869 4.779 4.869h81.735a4.731 4.731 0 0 0 3.453-1.384 4.915 4.915 0 0 0 1.44-3.485v-25.164a4.916 4.916 0 0 0-1.426-3.51 4.731 4.731 0 0 0-3.467-1.398z" fill="#E88024" fill-rule="nonzero"/><ellipse cx="11.545" cy="12.192" rx="8.219" ry="8.609" opacity=".6" transform="translate(210.079 96.971)" fill="#FFF" fill-rule="nonzero"/><ellipse stroke="#E88024" stroke-width="2.43" cx="221.624" cy="109.164" rx="8.219" ry="8.609"/><path d="M258.516 41.385a5.253 5.253 0 0 1 1.223 0c.345.072.679.19.994.35l-.344 1.286-.841-.35a3.753 3.753 0 0 0-1.032 0 2.47 2.47 0 0 0-2.103 1.051 4.461 4.461 0 0 0-.803 2.766 3.809 3.809 0 0 1 1.223-.74 4.023 4.023 0 0 1 1.491-.273 3.221 3.221 0 0 1 2.6 1.13c.654.809.994 1.835.956 2.882a4.653 4.653 0 0 1-1.032 3.116 3.411 3.411 0 0 1-2.753 1.208 3.792 3.792 0 0 1-2.944-1.324 5.405 5.405 0 0 1-1.146-3.701v-2.337a5.598 5.598 0 0 1 1.3-3.895 4.084 4.084 0 0 1 3.21-1.17zm-.574 5.57a2.75 2.75 0 0 0-1.414.35c-.388.216-.707.54-.918.936v1.012c-.05.929.206 1.847.727 2.61a2.13 2.13 0 0 0 1.758.935 1.751 1.751 0 0 0 1.682-.935c.391-.642.59-1.386.574-2.142a3.198 3.198 0 0 0-.574-2.026 1.971 1.971 0 0 0-1.835-.779v.04z" fill="#808184" fill-rule="nonzero"/><path fill="#E88024" fill-rule="nonzero" d="M244.753 99.503h28.863v19.321h-28.863z"/><path fill="#E88024" fill-rule="nonzero" d="M248.27 109.164l-3.364 3.428-5.238-3.428 5.238-3.428z"/><path d="M256.184 107.995h1.376c.466.034.925-.136 1.261-.467.297-.358.447-.818.421-1.286a1.694 1.694 0 0 0-.42-1.207 1.582 1.582 0 0 0-1.224-.273c-.416-.02-.825.12-1.147.39a1.336 1.336 0 0 0-.459 1.051h-2.37a2.826 2.826 0 0 1 1.07-2.376 4.267 4.267 0 0 1 2.83-.935 4.603 4.603 0 0 1 2.982.896 3.183 3.183 0 0 1 1.108 2.61 2.643 2.643 0 0 1-.497 1.52 3.377 3.377 0 0 1-1.376 1.129c.614.203 1.15.598 1.53 1.13a3 3 0 0 1 .534 1.753 3.218 3.218 0 0 1-1.223 2.648 4.793 4.793 0 0 1-3.097.974 4.679 4.679 0 0 1-2.905-.896 2.905 2.905 0 0 1-1.147-2.57h2.523c-.01.444.172.871.497 1.168.348.313.798.48 1.262.467.49.033.971-.135 1.338-.467.335-.339.515-.805.497-1.286a1.893 1.893 0 0 0-.459-1.44 1.964 1.964 0 0 0-1.414-.468h-1.491v-2.065z" fill="#FFF" fill-rule="nonzero"/><path d="M246.053 79.209h23.129" stroke="#293052" stroke-width="1.215" stroke-linejoin="round"/></g><path d="M270.646 15.081h-1.368v-1.443h1.406v1.443h-.038zm0 6.19h-1.368v-1.443h1.406v1.443h-.038zm5.962-4.633l.607-5.658h5.165v1.253h-3.798l-.341 2.886c.223-.157.465-.285.721-.38.302-.051.61-.051.911 0a2.772 2.772 0 0 1 2.24.912c.566.723.849 1.627.798 2.544a3.797 3.797 0 0 1-.835 2.506 3.076 3.076 0 0 1-2.43.95 3.304 3.304 0 0 1-2.43-.95 2.468 2.468 0 0 1-.836-2.088h1.253c-.025.48.155.95.494 1.29.355.37.855.564 1.367.532.6.06 1.185-.218 1.519-.721.356-.496.53-1.1.493-1.709a2.582 2.582 0 0 0-.493-1.633 1.633 1.633 0 0 0-1.367-.645 2.203 2.203 0 0 0-1.178.227 1.405 1.405 0 0 0-.531.76l-1.33-.076z" fill="#293052" fill-rule="nonzero"/><path d="M21.455 18.762l.012.037c.017.977-.28 1.742-.893 2.296-.612.553-1.457.83-2.534.83-1.098 0-1.985-.353-2.66-1.06-.675-.706-1.013-1.619-1.013-2.738v-1.818c0-1.115.33-2.028.988-2.739.658-.71 1.522-1.065 2.59-1.065 1.116 0 1.988.272 2.617.817.629.545.935 1.312.918 2.302l-.013.037h-1.786c0-.587-.141-1.024-.424-1.31-.283-.288-.72-.432-1.311-.432-.55 0-.978.222-1.286.664-.309.442-.463 1.013-.463 1.714v1.83c0 .704.163 1.278.488 1.723.325.444.776.666 1.355.666.55 0 .959-.143 1.23-.43.27-.288.405-.729.405-1.324h1.78zm2.98-2.912c.214-.31.476-.552.787-.726.31-.174.654-.261 1.031-.261.709 0 1.265.236 1.67.707.404.472.606 1.2.606 2.186v4.037h-1.836v-4.05c0-.528-.085-.902-.254-1.123-.17-.22-.425-.33-.765-.33-.28 0-.525.045-.732.136-.208.09-.376.219-.506.386v4.98h-1.837v-9.81h1.837v3.868zm7.409 5.943h-1.837v-6.804h1.837v6.804zm0-8.433h-1.837v-1.377h1.837v1.377zm1.987 8.433v-5.515h-1.013v-1.29h1.013v-.754c0-.763.22-1.351.66-1.764.44-.413 1.059-.62 1.855-.62.155 0 .314.012.475.035.162.023.339.056.532.098l-.158 1.364a9.08 9.08 0 0 0-.292-.044 2.53 2.53 0 0 0-.33-.019c-.298 0-.523.082-.676.246-.153.163-.23.398-.23.704v.755h1.308v1.289h-1.308v5.515h-1.836zm4.49 0v-5.515h-1.013v-1.29h1.013v-.754c0-.763.22-1.351.66-1.764.44-.413 1.059-.62 1.855-.62.156 0 .314.012.475.035.162.023.339.056.532.098l-.158 1.364a9.08 9.08 0 0 0-.292-.044 2.53 2.53 0 0 0-.33-.019c-.298 0-.523.082-.676.246-.153.163-.23.398-.23.704v.755h1.308v1.289h-1.308v5.515h-1.836zm7.59-5.226l-.672-.019c-.273 0-.497.057-.673.17-.176.113-.31.272-.403.478v4.597h-1.83v-6.804h1.704l.082 1.006c.16-.357.366-.634.62-.834.253-.199.546-.298.877-.298.092 0 .177.007.255.022.077.014.156.032.235.053l-.195 1.629zm3.786 5.358c-1.014 0-1.807-.311-2.377-.934-.57-.622-.855-1.424-.855-2.405v-.252c0-1.019.277-1.853.83-2.503.553-.65 1.314-.972 2.283-.968.914 0 1.615.28 2.103.84.489.559.733 1.313.733 2.26v.95h-4.056l-.02.037c.03.466.172.843.425 1.132.254.29.63.434 1.13.434.41 0 .759-.042 1.046-.125.287-.084.584-.212.89-.384l.497 1.132c-.273.222-.642.409-1.107.56-.465.15-.973.226-1.522.226zm-.12-5.647c-.368 0-.652.127-.851.38-.2.254-.32.59-.362 1.01l.013.031h2.238v-.138c0-.399-.081-.712-.245-.94-.163-.229-.428-.343-.792-.343zm9.214 5.515h-1.837v-9.156h1.837v9.156zm3.358-6.804l.082.974c.226-.348.505-.618.836-.811.331-.193.702-.29 1.113-.29.688 0 1.224.222 1.61.664.386.443.578 1.142.578 2.097v4.17h-1.842V17.63c0-.487-.085-.831-.255-1.035-.17-.203-.424-.305-.764-.305-.272 0-.512.052-.72.154a1.406 1.406 0 0 0-.512.425v4.924h-1.837v-6.804h1.71zm6.068 6.804v-5.515h-1.012v-1.29h1.012v-.754c0-.763.22-1.351.66-1.764.44-.413 1.06-.62 1.856-.62.155 0 .313.012.475.035.161.023.338.056.531.098l-.157 1.364a9.08 9.08 0 0 0-.293-.044 2.53 2.53 0 0 0-.33-.019c-.297 0-.523.082-.676.246-.153.163-.23.398-.23.704v.755h1.309v1.289h-1.308v5.515h-1.837zm6.811.132c-1.015 0-1.807-.311-2.377-.934-.57-.622-.855-1.424-.855-2.405v-.252c0-1.019.276-1.853.83-2.503.553-.65 1.314-.972 2.283-.968.913 0 1.615.28 2.103.84.488.559.733 1.313.733 2.26v.95h-4.056l-.02.037c.03.466.171.843.425 1.132.254.29.63.434 1.129.434.41 0 .76-.042 1.047-.125.287-.084.584-.212.89-.384l.497 1.132c-.273.222-.642.409-1.107.56-.466.15-.973.226-1.522.226zm-.12-5.647c-.368 0-.652.127-.852.38-.199.254-.32.59-.361 1.01l.012.031h2.24v-.138c0-.399-.083-.712-.246-.94-.164-.229-.428-.343-.792-.343zm.22-4.201h2.044l.013.038-1.742 1.635h-1.566l1.252-1.673zm7.264 4.49l-.673-.019c-.272 0-.497.057-.673.17-.176.113-.31.272-.402.478v4.597h-1.83v-6.804h1.704l.082 1.006c.16-.357.366-.634.62-.834.253-.199.545-.298.876-.298.093 0 .178.007.255.022.078.014.156.032.236.053l-.195 1.629zm2.887 5.226h-1.837v-6.804h1.837v6.804zm0-8.433h-1.837v-1.377h1.837v1.377zm4.458 8.565c-1.014 0-1.807-.311-2.377-.934-.57-.622-.855-1.424-.855-2.405v-.252c0-1.019.277-1.853.83-2.503.553-.65 1.314-.972 2.283-.968.914 0 1.615.28 2.103.84.489.559.733 1.313.733 2.26v.95h-4.056l-.02.037c.03.466.172.843.425 1.132.254.29.63.434 1.13.434.41 0 .759-.042 1.046-.125.287-.084.584-.212.89-.384l.497 1.132c-.273.222-.642.409-1.107.56-.465.15-.973.226-1.522.226zm-.12-5.647c-.368 0-.652.127-.851.38-.2.254-.32.59-.362 1.01l.013.031h2.238v-.138c0-.399-.081-.712-.245-.94-.163-.229-.428-.343-.792-.343zm8.075 4.509a2.31 2.31 0 0 1-.798.842 2.117 2.117 0 0 1-1.126.296c-.717 0-1.278-.243-1.682-.73-.405-.486-.607-1.24-.607-2.263v-3.943h1.83v3.955c0 .595.08 1.003.242 1.223.162.22.412.33.752.33.293 0 .545-.047.754-.141.21-.094.382-.234.516-.418v-4.95h1.836v6.805h-1.522l-.195-1.006zm6.679-4.22l-.673-.019c-.272 0-.497.057-.673.17-.176.113-.31.272-.402.478v4.597h-1.83v-6.804h1.704l.082 1.006c.159-.357.365-.634.62-.834.253-.199.545-.298.876-.298.093 0 .178.007.255.022.078.014.156.032.236.053l-.195 1.629z" fill="#020202"/><path d="M184.715 21.795v-9.04h2.844c1.18 0 2.128.364 2.846 1.09.718.727 1.077 1.665 1.077 2.816v1.235c0 1.155-.359 2.093-1.077 2.815s-1.667 1.084-2.846 1.084h-2.844zm1.223-8.077v7.12h1.62c.837 0 1.496-.275 1.978-.825.482-.55.723-1.256.723-2.117v-1.248c0-.852-.241-1.554-.723-2.104s-1.141-.826-1.977-.826h-1.62zm10.001 8.207c-.964 0-1.716-.308-2.256-.925-.54-.617-.81-1.428-.81-2.434v-.273c0-.964.278-1.762.835-2.393.556-.631 1.236-.947 2.039-.947.898 0 1.572.28 2.02.838.45.56.674 1.302.674 2.23v.645h-4.296l-.018.03c0 .675.149 1.223.447 1.643.298.42.753.63 1.365.63.414 0 .777-.06 1.09-.177.312-.118.58-.28.804-.487l.478.794c-.24.232-.557.428-.95.587-.393.16-.867.239-1.422.239zm-.192-6.01c-.426 0-.78.165-1.059.494-.279.33-.45.75-.512 1.263l.013.032h3.03v-.1c0-.488-.12-.892-.36-1.21-.24-.319-.611-.478-1.112-.478zm7.245.243l-.627-.038c-.323 0-.595.077-.817.23a1.474 1.474 0 0 0-.512.646v4.799h-1.223v-6.717h1.093l.118.98c.19-.347.425-.618.704-.813.28-.194.601-.292.966-.292a1.728 1.728 0 0 1 .466.068l-.168 1.137zm2.365-1.08l.087.999c.223-.356.504-.632.841-.829a2.244 2.244 0 0 1 1.152-.295c.724 0 1.285.212 1.682.637.397.424.596 1.079.596 1.965v4.24h-1.223v-4.216c0-.591-.117-1.012-.35-1.26-.235-.248-.592-.372-1.072-.372-.376 0-.696.075-.959.226-.263.151-.47.363-.624.637v4.985h-1.223v-6.717h1.093zm7.456 6.717h-1.223v-6.717h1.223v6.717zm0-8.437h-1.223V12.11h1.223v1.248zm4.662 8.567c-.964 0-1.717-.308-2.257-.925s-.81-1.428-.81-2.434v-.273c0-.964.278-1.762.835-2.393.557-.631 1.237-.947 2.04-.947.898 0 1.571.28 2.02.838.45.56.674 1.302.674 2.23v.645h-4.296l-.019.03c0 .675.15 1.223.447 1.643.298.42.753.63 1.366.63.414 0 .777-.06 1.09-.177.312-.118.58-.28.803-.487l.478.794c-.24.232-.556.428-.95.587-.393.16-.867.239-1.421.239zm-.193-6.01c-.426 0-.779.165-1.058.494-.28.33-.45.75-.512 1.263l.012.032h3.03v-.1c0-.488-.12-.892-.36-1.21-.24-.319-.61-.478-1.112-.478zm7.245.243l-.627-.038c-.323 0-.595.077-.816.23a1.474 1.474 0 0 0-.512.646v4.799h-1.223v-6.717h1.092l.118.98c.19-.347.425-.618.705-.813.28-.194.601-.292.965-.292a1.728 1.728 0 0 1 .466.068l-.168 1.137zm11.05 2.744l.013.037c.016.848-.282 1.558-.894 2.13-.613.57-1.422.856-2.427.856-1.023 0-1.856-.362-2.5-1.086-.643-.725-.965-1.643-.965-2.757v-1.608c0-1.113.322-2.033.966-2.76.643-.725 1.476-1.089 2.499-1.089 1.022 0 1.835.272 2.44.817.603.544.897 1.265.88 2.163l-.012.037h-1.173c0-.633-.186-1.134-.559-1.502-.372-.368-.898-.552-1.576-.552-.683 0-1.228.275-1.633.825-.406.55-.609 1.234-.609 2.049v1.62c0 .824.203 1.51.609 2.061.405.55.95.826 1.633.826.678 0 1.204-.183 1.576-.55.373-.366.56-.872.56-1.517h1.172zm2.657-2.924c.232-.323.517-.575.854-.755.337-.18.71-.27 1.12-.27.717 0 1.274.216 1.674.646.399.43.599 1.093.599 1.987v4.209h-1.223v-4.222c0-.554-.12-.964-.357-1.229-.238-.265-.593-.397-1.065-.397-.364 0-.68.071-.95.214a1.727 1.727 0 0 0-.652.599v5.035h-1.223V12.11h1.223v3.868zm7.326 5.817h-1.223v-6.717h1.223v6.717zm0-8.437h-1.223V12.11h1.223v1.248zm2.39 8.437v-5.811h-1.05v-.906h1.05v-.851c0-.716.187-1.27.562-1.66.374-.392.897-.587 1.567-.587.14 0 .283.011.425.034.143.023.302.055.475.096l-.149.931a2.749 2.749 0 0 0-.602-.062c-.356 0-.62.107-.794.32-.174.213-.261.522-.261.928v.85h1.217v.907h-1.217v5.81h-1.223zm4.184 0v-5.811h-1.05v-.906h1.05v-.851c0-.716.187-1.27.562-1.66.374-.392.897-.587 1.567-.587.141 0 .283.011.426.034.142.023.3.055.475.096l-.15.931a2.748 2.748 0 0 0-.602-.062c-.356 0-.62.107-.794.32-.174.213-.26.522-.26.928v.85h1.216v.907h-1.217v5.81h-1.223zm6.854-5.637l-.627-.038c-.323 0-.595.077-.817.23a1.474 1.474 0 0 0-.512.646v4.799h-1.223v-6.717h1.093l.118.98c.19-.347.425-.618.704-.813.28-.194.602-.292.966-.292a1.728 1.728 0 0 1 .466.068l-.168 1.137zm3.936 5.767c-.965 0-1.717-.308-2.257-.925s-.81-1.428-.81-2.434v-.273c0-.964.278-1.762.835-2.393.556-.631 1.236-.947 2.04-.947.897 0 1.57.28 2.02.838.449.56.673 1.302.673 2.23v.645h-4.296l-.018.03c0 .675.149 1.223.447 1.643.298.42.753.63 1.366.63.413 0 .777-.06 1.09-.177.312-.118.58-.28.803-.487l.478.794c-.24.232-.557.428-.95.587-.393.16-.867.239-1.421.239zm-.193-6.01c-.426 0-.779.165-1.058.494-.28.33-.45.75-.513 1.263l.013.032h3.03v-.1c0-.488-.12-.892-.36-1.21-.24-.319-.611-.478-1.112-.478z" fill="#2A3052"/><g fill="#FFF"><path d="M179.574 166.018h-6.019c.133 2.779 1.852 3.45 5.158 2.015l.703 1.352c-.62.508-1.32.847-2.101 1.017-1.636.355-3.233.083-4.341-.734-2.402-1.772-1.79-5.493-1.26-6.775.247-.6 1.465-2.29 2.913-2.452 1.312-.148 4.559-.46 4.947 3.904.03.888.03 1.446 0 1.673zm-2.128-1.81c.002-1.552-.613-2.329-1.843-2.329-1.845 0-2.031 2.33-2.031 2.33h3.874zM128.402 160.33h2.13v9.834h-2.13zM128.444 156.037v2.13h2.15v-2.13zM160.833 160.482h2.17v10.13h-2.17zM160.877 156.06v1.922h2.215v-1.922zM124.457 157.015h2.426l-4.783 13.524h-2.238l-4.723-13.524h2.439l3.433 10.755zM139.08 164.034c.915.002 1.6.002 2.055 0 0-1.076-.735-3.939-4.162-3.815-3.427.124-4.265 3.203-4.265 5.246 0 2.042 1.04 5.245 4.394 5.245 3.352 0 4.033-2.55 4.033-3.532h-2.054c-.125 1.136-.777 1.703-1.957 1.703-1.769 0-2.168-2.08-2.168-3.416 0-1.337.253-3.327 2.017-3.42 1.175-.062 1.878.6 2.108 1.99zM143.649 157.998h2.242v2.46h1.804v1.625h-1.804v5.534c0 .375.002 1.505 1.63 1.081.12.792.207 1.342.263 1.65-.581.355-4.135 1.116-4.135-2.731v-5.534h-1.54v-1.624h1.54v-2.46zM153.685 160.37c2.8 0 4.317 1.707 4.701 4.264.384 2.557-.996 6.168-4.504 6.168-3.508 0-4.643-2.667-4.643-5.428 0-2.76 1.647-5.003 4.446-5.003zm.025 1.792c-.832.079-2.307.661-2.22 3.421.086 2.76 1.292 3.409 2.22 3.409.928 0 2.492-.257 2.492-3.397 0-3.14-1.66-3.511-2.492-3.433zM170.456 160.322c-.092.867-.193 1.58-.302 2.14-1.09-.071-2.224-.175-2.72 1.1l.015 6.859h-2.246V160.4h1.998c.095.67.155 1.157.178 1.463.69-1.289 1.716-1.803 3.077-1.542z"/><g><path d="M181.909 156.968h2.105v8.819h-2.105zM184.094 168.368v2.034h-2.176v-2.034z"/></g></g></g></svg>