<?xml version="1.0" encoding="UTF-8"?>
<svg width="299px" height="197px" viewBox="0 0 299 197" version="1.1" xmlns="http://www.w3.org/2000/svg" xmlns:xlink="http://www.w3.org/1999/xlink">
    <!-- Generator: Sketch 52.6 (67491) - http://www.bohemiancoding.com/sketch -->
    <title>under</title>
    <desc>Created with Sketch.</desc>
    <g id="Page-1" stroke="none" stroke-width="1" fill="none" fill-rule="evenodd">
        <g id="under">
            <g id="Group">
                <polygon id="Path" fill="#F1F1F2" points="0 0 299 0 299 197 0 197"></polygon>
                <path d="M1.98671096,1.9798995 L1.98671096,195.020101 L297.013289,195.020101 L297.013289,1.9798995 L1.98671096,1.9798995 Z M299,0 L299,197 L0,197 L0,0 L299,0 Z" id="Path" fill="#C2C2C2" fill-rule="nonzero"></path>
                <path d="M4.57962025,54.9933135 L4.57962025,53.7813019 L294.988101,53.7813019 L294.988101,54.9933135 L4.57962025,54.9933135 Z M4.57962025,75.0721596 L4.57962025,73.860148 L294.988101,73.860148 L294.988101,75.0721596 L4.57962025,75.0721596 Z M4.57962025,135.346583 L4.57962025,134.134571 L294.988101,134.134571 L294.988101,135.346583 L4.57962025,135.346583 Z" id="Shape" fill="#DEDEDD" fill-rule="nonzero"></path>
                <path d="M4.57962025,155.425429 L4.57962025,154.213417 L8.17777956,154.213417 L8.17777956,155.425429 L4.57962025,155.425429 Z M11.7759389,155.425429 L11.7759389,154.213417 L15.3740982,154.213417 L15.3740982,155.425429 L11.7759389,155.425429 Z M18.9722575,155.425429 L18.9722575,154.213417 L22.5704168,154.213417 L22.5704168,155.425429 L18.9722575,155.425429 Z M26.1685761,155.425429 L26.1685761,154.213417 L29.7667354,154.213417 L29.7667354,155.425429 L26.1685761,155.425429 Z M33.3648948,155.425429 L33.3648948,154.213417 L36.9630541,154.213417 L36.9630541,155.425429 L33.3648948,155.425429 Z M40.5612134,155.425429 L40.5612134,154.213417 L44.1593727,154.213417 L44.1593727,155.425429 L40.5612134,155.425429 Z M47.757532,155.425429 L47.757532,154.213417 L51.3556913,154.213417 L51.3556913,155.425429 L47.757532,155.425429 Z M54.9538506,155.425429 L54.9538506,154.213417 L58.5520099,154.213417 L58.5520099,155.425429 L54.9538506,155.425429 Z M62.1501693,155.425429 L62.1501693,154.213417 L65.7483286,154.213417 L65.7483286,155.425429 L62.1501693,155.425429 Z M69.3464879,155.425429 L69.3464879,154.213417 L72.9446472,154.213417 L72.9446472,155.425429 L69.3464879,155.425429 Z M76.5428065,155.425429 L76.5428065,154.213417 L80.1409658,154.213417 L80.1409658,155.425429 L76.5428065,155.425429 Z M83.7391251,155.425429 L83.7391251,154.213417 L87.3372845,154.213417 L87.3372845,155.425429 L83.7391251,155.425429 Z M90.9354438,155.425429 L90.9354438,154.213417 L94.5336031,154.213417 L94.5336031,155.425429 L90.9354438,155.425429 Z M98.1317624,155.425429 L98.1317624,154.213417 L101.729922,154.213417 L101.729922,155.425429 L98.1317624,155.425429 Z M105.328081,155.425429 L105.328081,154.213417 L108.92624,154.213417 L108.92624,155.425429 L105.328081,155.425429 Z M112.5244,155.425429 L112.5244,154.213417 L116.122559,154.213417 L116.122559,155.425429 L112.5244,155.425429 Z M119.720718,155.425429 L119.720718,154.213417 L123.318878,154.213417 L123.318878,155.425429 L119.720718,155.425429 Z M126.917037,155.425429 L126.917037,154.213417 L130.515196,154.213417 L130.515196,155.425429 L126.917037,155.425429 Z M134.113356,155.425429 L134.113356,154.213417 L137.711515,154.213417 L137.711515,155.425429 L134.113356,155.425429 Z M141.309674,155.425429 L141.309674,154.213417 L144.907833,154.213417 L144.907833,155.425429 L141.309674,155.425429 Z M148.505993,155.425429 L148.505993,154.213417 L152.104152,154.213417 L152.104152,155.425429 L148.505993,155.425429 Z M155.702311,155.425429 L155.702311,154.213417 L159.300471,154.213417 L159.300471,155.425429 L155.702311,155.425429 Z M162.89863,155.425429 L162.89863,154.213417 L166.496789,154.213417 L166.496789,155.425429 L162.89863,155.425429 Z M170.094949,155.425429 L170.094949,154.213417 L173.693108,154.213417 L173.693108,155.425429 L170.094949,155.425429 Z M177.291267,155.425429 L177.291267,154.213417 L180.889427,154.213417 L180.889427,155.425429 L177.291267,155.425429 Z M184.487586,155.425429 L184.487586,154.213417 L188.085745,154.213417 L188.085745,155.425429 L184.487586,155.425429 Z M191.683905,155.425429 L191.683905,154.213417 L195.282064,154.213417 L195.282064,155.425429 L191.683905,155.425429 Z M198.880223,155.425429 L198.880223,154.213417 L202.478382,154.213417 L202.478382,155.425429 L198.880223,155.425429 Z M206.076542,155.425429 L206.076542,154.213417 L209.674701,154.213417 L209.674701,155.425429 L206.076542,155.425429 Z M213.27286,155.425429 L213.27286,154.213417 L216.87102,154.213417 L216.87102,155.425429 L213.27286,155.425429 Z M220.469179,155.425429 L220.469179,154.213417 L224.067338,154.213417 L224.067338,155.425429 L220.469179,155.425429 Z M227.665498,155.425429 L227.665498,154.213417 L231.263657,154.213417 L231.263657,155.425429 L227.665498,155.425429 Z M234.861816,155.425429 L234.861816,154.213417 L238.459976,154.213417 L238.459976,155.425429 L234.861816,155.425429 Z M242.058135,155.425429 L242.058135,154.213417 L245.656294,154.213417 L245.656294,155.425429 L242.058135,155.425429 Z M249.254454,155.425429 L249.254454,154.213417 L252.852613,154.213417 L252.852613,155.425429 L249.254454,155.425429 Z M256.450772,155.425429 L256.450772,154.213417 L260.048931,154.213417 L260.048931,155.425429 L256.450772,155.425429 Z M263.647091,155.425429 L263.647091,154.213417 L267.24525,154.213417 L267.24525,155.425429 L263.647091,155.425429 Z M270.843409,155.425429 L270.843409,154.213417 L274.441569,154.213417 L274.441569,155.425429 L270.843409,155.425429 Z M278.039728,155.425429 L278.039728,154.213417 L281.637887,154.213417 L281.637887,155.425429 L278.039728,155.425429 Z M285.236047,155.425429 L285.236047,154.213417 L288.834206,154.213417 L288.834206,155.425429 L285.236047,155.425429 Z M292.432365,155.425429 L292.432365,154.213417 L294.988101,154.213417 L294.988101,155.425429 L292.432365,155.425429 Z" id="Path" fill="#293052" fill-rule="nonzero"></path>
                <path d="M4.57962025,175.504275 L4.57962025,174.292263 L294.988101,174.292263 L294.988101,175.504275 L4.57962025,175.504275 Z M39.0588043,34.3084615 L40.2708159,34.3084615 L40.2708159,192.590385 L39.0588043,192.590385 L39.0588043,34.3084615 Z M75.8093107,34.3084615 L77.0213223,34.3084615 L77.0213223,192.590385 L75.8093107,192.590385 L75.8093107,34.3084615 Z M112.559817,34.3084615 L113.771829,34.3084615 L113.771829,192.590385 L112.559817,192.590385 L112.559817,34.3084615 Z M149.272475,34.3084615 L150.484487,34.3084615 L150.484487,192.590385 L149.272475,192.590385 L149.272475,34.3084615 Z M186.022981,34.3084615 L187.234993,34.3084615 L187.234993,192.590385 L186.022981,192.590385 L186.022981,34.3084615 Z M222.773488,34.3084615 L223.9855,34.3084615 L223.9855,192.590385 L222.773488,192.590385 L222.773488,34.3084615 Z M259.523994,34.3084615 L260.736006,34.3084615 L260.736006,192.590385 L259.523994,192.590385 L259.523994,34.3084615 Z M4.57962025,115.267737 L4.57962025,114.055725 L294.988101,114.055725 L294.988101,115.267737 L4.57962025,115.267737 Z M4.57962025,95.1888904 L4.57962025,93.9768788 L294.988101,93.9768788 L294.988101,95.1888904 L4.57962025,95.1888904 Z" id="Shape" fill="#DEDEDD" fill-rule="nonzero"></path>
                <polygon id="Path" fill="#C2C2C2" points="1 30 1 28 297 28 297 30"></polygon>
                <path d="M190.555385,84.7637518 C191.469544,84.0878791 192.773611,84.4188141 193.25487,85.4488038 L225.312211,154.057842 C225.732821,154.958029 225.344046,156.028747 224.443859,156.449356 C223.543672,156.869966 222.472954,156.481191 222.052345,155.581004 L190.926017,88.9645172 L150.266767,119.025479 C149.647137,119.483595 148.804556,119.496219 148.17148,119.05687 L106.275931,89.9817567 L77.6246261,115.993744 C76.9597394,116.597382 75.9515388,116.618272 75.262219,116.042692 L38.5117126,85.3561534 C37.7490288,84.7193153 37.6470108,83.5847786 38.283849,82.8220948 C38.9206871,82.059411 40.0552238,81.957393 40.8179076,82.5942312 L76.3658988,112.276674 L104.916766,86.3558719 C105.536945,85.7928237 106.46365,85.7322836 107.151811,86.2098604 L149.164062,115.365964 L190.555385,84.7637518 Z" id="Path" fill="#293052"></path>
                <path d="M255.777468,116.442308 L256.458734,109.850385 L262.438734,109.850385 L262.438734,111.29 L257.859114,111.29 L257.480633,114.661731 C257.736671,114.473673 258.016712,114.320776 258.313291,114.207115 C258.65302,114.083408 259.011532,114.019327 259.373038,114.017692 C260.366446,113.959925 261.330648,114.36556 261.984557,115.116346 C262.654792,115.95 262.991975,117.003027 262.930759,118.071346 C262.97333,119.120401 262.62231,120.147449 261.946709,120.950577 C261.221324,121.713281 260.195899,122.115524 259.145949,122.049231 C258.227608,122.088855 257.326245,121.792599 256.610127,121.215769 C255.912908,120.612097 255.546989,119.710504 255.626076,118.791154 L257.102152,118.791154 C257.065794,119.354363 257.272508,119.906132 257.669873,120.306538 C258.069606,120.676509 258.602405,120.867955 259.145949,120.836923 C259.761305,120.87038 260.354394,120.601818 260.73557,120.117115 C261.12051,119.481425 261.268012,118.729784 261.151899,117.995577 C261.185622,117.31764 260.985148,116.648749 260.584177,116.101346 C260.211091,115.602409 259.616691,115.319088 258.994557,115.343654 C258.508363,115.307839 258.022161,115.413065 257.594177,115.646731 C257.28875,115.857356 257.062309,116.164013 256.950759,116.518077 L255.777468,116.442308 Z M261.795316,137.013654 L263.422785,137.013654 L263.422785,138.301731 L261.795316,138.301731 L261.795316,141.067308 L260.167848,141.067308 L260.167848,138.263846 L254.793418,138.263846 L254.793418,137.354615 L260.054304,129.057885 L261.757468,129.057885 L261.757468,137.013654 L261.795316,137.013654 Z M256.53443,137.013654 L260.319241,137.013654 L260.319241,131.368846 L260.319241,131.785577 L256.53443,137.013654 Z M263.082152,181.073462 L255.323291,181.073462 L255.323291,179.936923 L259.108101,175.580192 C259.653534,175.015611 260.135797,174.393145 260.546329,173.723846 C260.788505,173.296003 260.918699,172.813822 260.92481,172.322115 C260.941776,171.768733 260.75296,171.22874 260.394937,170.806731 C260.046154,170.399807 259.529652,170.176239 258.994557,170.200577 C258.325428,170.149808 257.6659,170.383616 257.177848,170.844615 C256.755636,171.338615 256.538883,171.975942 256.572278,172.625192 L255.134051,172.625192 C255.078909,171.646589 255.451926,170.692405 256.155949,170.011154 C256.955415,169.271212 258.021013,168.888321 259.108101,168.950385 C260.059298,168.900449 260.989408,169.242731 261.681772,169.8975 C262.314128,170.52735 262.656813,171.391749 262.627975,172.284231 C262.623229,172.980647 262.426794,173.662279 262.060253,174.254231 C261.595362,175.017798 261.049732,175.729072 260.432785,176.375769 L257.291392,179.785385 L263.044304,179.785385 L263.044304,181.073462 L263.082152,181.073462 Z M263.082152,70.4882692 C261.868415,71.8476898 260.884083,73.3959893 260.167848,75.0723077 C259.607096,76.6382473 259.238529,78.2665926 259.070253,79.9215385 L259.070253,81.2096154 L257.367089,81.2096154 L257.367089,79.9215385 C257.567876,78.1425196 258.040164,76.4048678 258.767468,74.7692308 C259.478713,73.2024114 260.395112,71.7373067 261.492532,70.4125 L254.982658,70.4125 L254.982658,69.2001923 L263.082152,69.2001923 L263.082152,70.4882692 Z M262.627975,52.8719231 C262.636271,53.4586606 262.449918,54.0315833 262.098101,54.5009615 C261.732922,54.9880083 261.232789,55.3568833 260.659873,55.5617308 C261.307406,55.7829422 261.88292,56.1757167 262.32519,56.6982692 C262.72868,57.2027459 262.942935,57.8327298 262.930759,58.4788462 C262.988164,59.4513642 262.580815,60.39339 261.833165,61.0171154 C260.133059,62.1805904 257.893903,62.1805904 256.193797,61.0171154 C255.465135,60.3822325 255.073381,59.4439174 255.134051,58.4788462 C255.125034,57.8332267 255.338937,57.2042817 255.73962,56.6982692 C256.161986,56.1710277 256.72693,55.7765005 257.367089,55.5617308 C256.805853,55.3543828 256.318559,54.9852642 255.966709,54.5009615 C255.633332,54.0243688 255.460929,53.4535637 255.474684,52.8719231 C255.424696,51.9572075 255.7856,51.0679719 256.458734,50.4473077 C257.17932,49.848034 258.096344,49.537565 259.032405,49.5759615 C259.968466,49.537565 260.88549,49.848034 261.606076,50.4473077 C262.29776,51.0576082 262.67393,51.9501304 262.627975,52.8719231 Z M261.341139,58.4409615 C261.366212,57.8313483 261.132478,57.2395678 260.697722,56.8119231 C260.262978,56.3882281 259.676916,56.1563059 259.070253,56.1678846 C258.465294,56.1355643 257.874636,56.3593441 257.442672,56.7845186 C257.010708,57.2096931 256.777249,57.7970766 256.799367,58.4030769 C256.77548,59.0013615 257.009876,59.5810182 257.442785,59.9942308 C258.407122,60.7598557 259.771232,60.7598557 260.73557,59.9942308 C261.14862,59.5860387 261.368793,59.0213018 261.341139,58.4409615 Z M261.151899,52.9098077 C261.168403,52.3610051 260.963828,51.8285961 260.584177,51.4323077 C259.805108,50.671955 258.562487,50.671955 257.783418,51.4323077 C257.421115,51.8368295 257.230982,52.3669961 257.253544,52.9098077 C257.222542,53.4538761 257.413803,53.9871891 257.783418,54.3873077 C258.570281,55.1282337 259.797314,55.1282337 260.584177,54.3873077 C260.967573,53.9934105 261.172784,53.4593475 261.151899,52.9098077 Z" id="Shape" fill="#808184" fill-rule="nonzero"></path>
                <path d="M188.180759,145.158846 L153.133418,145.158846 L147.607595,137.089423 L142.308861,145.158846 L107.261519,145.158846 C104.648653,145.158846 102.530506,147.279036 102.530506,149.894423 L102.530506,174.405769 C102.530506,177.021156 104.648653,179.141346 107.261519,179.141346 L188.180759,179.141346 C189.455058,179.171968 190.687787,178.686593 191.599735,177.79516 C192.511683,176.903726 193.025684,175.681664 193.025316,174.405769 L193.025316,149.932308 C193.035937,148.649854 192.526447,147.417929 191.613353,146.518235 C190.700259,145.61854 189.461651,145.128022 188.180759,145.158846 Z" id="Path" fill="#E88024"></path>
                <g id="Oval" opacity="0.6" transform="translate(214.949367, 145.961538)" fill="#FFFFFF">
                    <ellipse cx="8.4301266" cy="8.8578846" rx="8.13734177" ry="8.3725"></ellipse>
                </g>
                <path d="M223.379494,164.403935 C218.20814,164.403935 214.030141,160.105197 214.030141,154.819423 C214.030141,149.533649 218.20814,145.234911 223.379494,145.234911 C228.550848,145.234911 232.728847,149.533649 232.728847,154.819423 C232.728847,160.105197 228.550848,164.403935 223.379494,164.403935 Z M223.379494,161.979911 C227.196399,161.979911 230.304824,158.781657 230.304824,154.819423 C230.304824,150.857189 227.196399,147.658935 223.379494,147.658935 C219.562589,147.658935 216.454164,150.857189 216.454164,154.819423 C216.454164,158.781657 219.562589,161.979911 223.379494,161.979911 Z" id="Oval" fill="#E88024" fill-rule="nonzero"></path>
                <path d="M259.902911,88.9001923 C260.305298,88.8538574 260.711664,88.8538574 261.114051,88.9001923 C261.455473,88.970571 261.786276,89.0851902 262.098101,89.2411538 L261.757468,90.4913462 L260.92481,90.1503846 C260.585744,90.1041432 260.241978,90.1041432 259.902911,90.1503846 C259.081936,90.1220853 258.301018,90.5058148 257.821266,91.1732692 C257.262064,91.955083 256.982091,92.9025714 257.026456,93.8630769 C257.381616,93.5493977 257.792442,93.3052344 258.237595,93.1432692 C258.708835,92.9636585 259.209442,92.8737193 259.713671,92.8780769 C260.694075,92.832152 261.641795,93.2367165 262.287342,93.9767308 C262.934744,94.7638902 263.271385,95.7613083 263.233544,96.7801923 C263.278019,97.8820307 262.914068,98.9614444 262.211646,99.8109615 C261.530274,100.598642 260.526493,101.031243 259.486582,100.985385 C258.373137,101.006099 257.307087,100.534921 256.572278,99.6973077 C255.755994,98.6827634 255.350691,97.3980663 255.436835,96.0982692 L255.436835,93.8251923 C255.363169,92.4437257 255.824027,91.0869528 256.723671,90.0367308 C257.570328,89.2170791 258.729069,88.8028438 259.902911,88.9001923 Z M259.33519,94.3176923 C258.846481,94.3053349 258.363248,94.4229917 257.93481,94.6586538 C257.550911,94.8679042 257.235504,95.1836148 257.026456,95.5678846 L257.026456,96.5528846 C256.97668,97.455569 257.229798,98.3490032 257.74557,99.0911538 C258.142175,99.6612848 258.792523,100.000924 259.486582,100.000385 C260.172385,100.053196 260.824964,99.6969006 261.151899,99.0911538 C261.539107,98.4664522 261.736365,97.7424768 261.71962,97.0075 C261.761624,96.305102 261.561189,95.6095915 261.151899,95.0375 C260.725025,94.4782323 260.0325,94.1894016 259.33519,94.2798077 L259.33519,94.3176923 Z" id="Shape" fill="#808184" fill-rule="nonzero"></path>
                <polygon id="Path" fill="#E88024" points="246.277595 145.424038 274.852911 145.424038 274.852911 164.214808 246.277595 164.214808"></polygon>
                <polygon id="Path" fill="#E88024" points="249.75962 154.819423 246.428987 158.153269 241.243797 154.819423 246.428987 151.485577"></polygon>
                <path d="M257.594177,153.682885 L258.956709,153.682885 C259.418699,153.716156 259.872966,153.550808 260.205696,153.228269 C260.499099,152.880171 260.64809,152.432768 260.622025,151.978077 C260.644235,151.546843 260.494489,151.124425 260.205696,150.803654 C259.85448,150.554821 259.417488,150.459137 258.994557,150.538462 C258.582251,150.519538 258.177615,150.654547 257.859114,150.917308 C257.559891,151.171164 257.392674,151.547764 257.404937,151.940192 L255.058354,151.940192 C255.009355,151.042095 255.405813,150.177548 256.118101,149.629231 C256.914751,149.003895 257.907189,148.681712 258.918861,148.72 C259.973507,148.66396 261.015473,148.971503 261.871013,149.591346 C262.618663,150.215072 263.026012,151.157097 262.968608,152.129615 C262.963328,152.661556 262.791216,153.178392 262.476582,153.607115 C262.128335,154.088331 261.657926,154.467637 261.114051,154.705769 C261.721858,154.902929 262.251778,155.287492 262.627975,155.804423 C262.980606,156.302137 263.166154,156.899117 263.157848,157.509231 C263.194167,158.513484 262.742928,159.473292 261.946709,160.085385 C261.063339,160.743226 259.98112,161.077567 258.881013,161.0325 C257.852697,161.065498 256.842039,160.759346 256.004557,160.161154 C255.216182,159.583063 254.785859,158.635438 254.869114,157.660769 L257.367089,157.660769 C257.356873,158.093465 257.536715,158.508884 257.859114,158.797308 C258.203138,159.101306 258.649352,159.263723 259.108101,159.251923 C259.592614,159.283668 260.06966,159.119951 260.432785,158.797308 C260.764762,158.468131 260.943298,158.014487 260.92481,157.547115 C260.97781,157.036654 260.812852,156.527543 260.470633,156.145385 C260.080171,155.818217 259.578224,155.655266 259.070253,155.690769 L257.594177,155.690769 L257.594177,153.682885 Z" id="Path" fill="#FFFFFF"></path>
                <polygon id="Path" fill="#293052" points="247.56443 126.29216 247.56443 125.080148 270.462532 125.080148 270.462532 126.29216"></polygon>
            </g>
            <g id="win" transform="translate(114.917000, 154.606000)" fill="#FFFFFF" fill-rule="nonzero">
                <path d="M60.9,9.664 L55.24,9.664 C55.365,12.278 56.982,12.909 60.091,11.559 L60.751,12.831 C60.1789691,13.3036115 59.5015395,13.6315217 58.776,13.787 C57.237,14.121 55.736,13.866 54.694,13.097 C52.434,11.43 53.011,7.931 53.509,6.725 C53.741,6.161 54.887,4.572 56.249,4.419 C57.482,4.279 60.535,3.987 60.9,8.091 C60.93,8.926 60.93,9.451 60.9,9.664 Z M58.9000039,7.962 C58.901,6.502 58.323,5.772 57.167,5.772 C55.431,5.772 55.256,7.962 55.256,7.962 L58.9000039,7.962 Z M12.774,4.314 L14.778,4.314 L14.778,13.564 L12.774,13.564 L12.774,4.314 Z M12.814,0.277 L12.814,2.281 L14.836,2.281 L14.836,0.277 L12.814,0.277 Z M43.276,4.457 L45.316,4.457 L45.316,13.984 L43.276,13.984 L43.276,4.457 Z M43.317,0.299 L43.317,2.107 L45.399,2.107 L45.399,0.299 L43.317,0.299 Z M9.065,1.197 L11.346,1.197 L6.848,13.917 L4.743,13.917 L0.301,1.197 L2.595,1.197 L5.824,11.312 L9.065,1.197 Z M22.818,7.798 C23.678,7.8 24.322,7.8 24.75,7.798 C24.75,6.786 24.058,4.094 20.835,4.21 C17.612,4.327 16.825,7.223 16.825,9.144 C16.825,11.064 17.803,14.077 20.956,14.077 C24.11,14.077 24.75,11.678 24.75,10.755 L22.818,10.755 C22.701,11.823 22.088,12.357 20.978,12.357 C19.314,12.357 18.938,10.401 18.938,9.144 C18.938,7.887 19.177,6.015 20.835,5.927 C21.941,5.869 22.602,6.493 22.818,7.798 Z M27.114,2.122 L29.223,2.122 L29.223,4.436 L30.919,4.436 L30.919,5.963 L29.223,5.963 L29.223,11.168 C29.223,11.52 29.225,12.584 30.756,12.185 C30.868,12.929 30.951,13.446 31.003,13.737 C30.457,14.07 27.114,14.786 27.114,11.167 L27.114,5.963 L25.667,5.963 L25.667,4.436 L27.114,4.436 L27.114,2.122 Z M36.553,4.353 C39.185,4.353 40.613,5.958 40.974,8.363 C41.335,10.767 40.037,14.163 36.738,14.163 C33.438,14.163 32.372,11.655 32.372,9.059 C32.372,6.463 33.92,4.353 36.552,4.353 L36.553,4.353 Z M36.576,6.038 C35.794,6.112 34.407,6.659 34.488,9.255 C34.569,11.851 35.704,12.461 36.576,12.461 C37.449,12.461 38.92,12.219 38.92,9.266 C38.92,6.313 37.36,5.964 36.576,6.038 Z M52.325,4.307 C52.239,5.123 52.145,5.793 52.042,6.319 C51.016,6.253 49.95,6.155 49.484,7.355 L49.497,13.805 L47.385,13.805 L47.385,4.382 L49.264,4.382 C49.354,5.011 49.41,5.47 49.432,5.758 C50.082,4.545 51.046,4.062 52.325,4.307 Z" id="Shape"></path>
                <path d="M63.097,1.153 L65.077,1.153 L65.077,9.447 L63.097,9.447 L63.097,1.153 Z M65.152,11.874 L65.152,13.787 L63.105,13.787 L63.105,11.874 L65.152,11.874 Z" id="Shape"></path>
            </g>
            <path d="M272.279,20.101 L270.911,20.101 L270.911,18.658 L272.317,18.658 L272.317,20.101 L272.279,20.101 Z M272.279,16.101 L270.911,16.101 L270.911,14.658 L272.317,14.658 L272.317,16.101 L272.279,16.101 Z M278.149517,15.316 L278.756517,9.658 L283.921517,9.658 L283.921517,10.911 L280.123517,10.911 L279.782517,13.797 C280.005517,13.64 280.247517,13.512 280.503517,13.417 C280.805517,13.366 281.113517,13.366 281.414517,13.417 C282.261425,13.3620668 283.086831,13.6981247 283.654517,14.329 C284.220517,15.052 284.503517,15.956 284.452517,16.873 C284.483075,17.781346 284.186802,18.6705218 283.617517,19.379 C282.98859,20.0405228 282.098349,20.3885593 281.187517,20.329 C280.28149,20.3591055 279.40289,20.0156202 278.757517,19.379 C278.159474,18.857805 277.848418,18.0809087 277.921517,17.291 L279.174517,17.291 C279.149517,17.771 279.329517,18.241 279.668517,18.581 C280.023517,18.951 280.523517,19.145 281.035517,19.113 C281.635517,19.173 282.220517,18.895 282.554517,18.392 C282.910517,17.896 283.084517,17.292 283.047517,16.683 C283.072928,16.0985344 282.899104,15.5227639 282.554517,15.05 C282.231768,14.624362 281.721251,14.3834815 281.187517,14.405 C280.781412,14.3702352 280.373624,14.4488158 280.009517,14.632 C279.751624,14.8179548 279.564427,15.0858828 279.478517,15.392 L278.148517,15.316 L278.149517,15.316 Z" id="Shape" fill="#293052" fill-rule="nonzero"></path>
            <path d="M186,19.815 L186,10.775 L188.844,10.775 C190.024,10.775 190.972,11.139 191.69,11.865 C192.408,12.592 192.767,13.53 192.767,14.681 L192.767,15.916 C192.767,17.071 192.408,18.009 191.69,18.731 C190.972,19.453 190.023,19.815 188.844,19.815 L186,19.815 Z M187.223,11.738 L187.223,18.858 L188.843,18.858 C189.68,18.858 190.339,18.583 190.821,18.033 C191.303,17.483 191.544,16.777 191.544,15.916 L191.544,14.668 C191.544,13.816 191.303,13.114 190.821,12.564 C190.339,12.014 189.68,11.738 188.844,11.738 L187.224,11.738 L187.223,11.738 Z M197.224,19.945 C196.26,19.945 195.508,19.637 194.968,19.02 C194.428,18.403 194.158,17.592 194.158,16.586 L194.158,16.313 C194.158,15.349 194.436,14.551 194.993,13.92 C195.549,13.289 196.229,12.973 197.032,12.973 C197.93,12.973 198.604,13.253 199.052,13.811 C199.502,14.371 199.726,15.113 199.726,16.041 L199.726,16.686 L195.43,16.686 L195.412,16.716 C195.412,17.391 195.561,17.939 195.859,18.359 C196.157,18.779 196.612,18.989 197.224,18.989 C197.638,18.989 198.001,18.929 198.314,18.812 C198.626,18.694 198.894,18.532 199.118,18.325 L199.596,19.119 C199.356,19.351 199.039,19.547 198.646,19.706 C198.253,19.866 197.779,19.945 197.224,19.945 Z M197.032,13.935 C196.606,13.935 196.252,14.1 195.973,14.429 C195.694,14.759 195.523,15.179 195.461,15.692 L195.474,15.724 L198.504,15.724 L198.504,15.624 C198.504,15.136 198.384,14.732 198.144,14.414 C197.904,14.095 197.533,13.936 197.032,13.936 L197.032,13.935 Z M204.277,14.178 L203.65,14.14 C203.327,14.14 203.055,14.217 202.833,14.37 C202.604371,14.5322601 202.426759,14.7563572 202.321,15.016 L202.321,19.815 L201.098,19.815 L201.098,13.098 L202.191,13.098 L202.309,14.078 C202.499,13.731 202.734,13.46 203.013,13.265 C203.293,13.071 203.614,12.973 203.979,12.973 C204.136709,12.9742946 204.293498,12.9971737 204.445,13.041 L204.277,14.178 Z M206.642,13.098 L206.729,14.097 C206.952,13.741 207.233,13.465 207.57,13.268 C207.920483,13.0678572 208.318458,12.9659453 208.722,12.973 C209.446,12.973 210.007,13.185 210.404,13.61 C210.801,14.034 211,14.689 211,15.575 L211,19.815 L209.777,19.815 L209.777,15.599 C209.777,15.008 209.66,14.587 209.427,14.339 C209.192,14.091 208.835,13.967 208.355,13.967 C207.979,13.967 207.659,14.042 207.396,14.193 C207.133,14.344 206.926,14.556 206.772,14.83 L206.772,19.815 L205.549,19.815 L205.549,13.098 L206.642,13.098 Z M214.098,19.815 L212.875,19.815 L212.875,13.098 L214.098,13.098 L214.098,19.815 Z M214.098,11.378 L212.875,11.378 L212.875,10.13 L214.098,10.13 L214.098,11.378 Z M218.76,19.945 C217.796,19.945 217.043,19.637 216.503,19.02 C215.963,18.403 215.693,17.592 215.693,16.586 L215.693,16.313 C215.693,15.349 215.971,14.551 216.528,13.92 C217.085,13.289 217.765,12.973 218.568,12.973 C219.466,12.973 220.139,13.253 220.588,13.811 C221.038,14.371 221.262,15.113 221.262,16.041 L221.262,16.686 L216.966,16.686 L216.947,16.716 C216.947,17.391 217.097,17.939 217.394,18.359 C217.692,18.779 218.147,18.989 218.76,18.989 C219.174,18.989 219.537,18.929 219.85,18.812 C220.162,18.694 220.43,18.532 220.653,18.325 L221.131,19.119 C220.891,19.351 220.575,19.547 220.181,19.706 C219.788,19.866 219.314,19.945 218.76,19.945 Z M218.567,13.935 C218.141,13.935 217.788,14.1 217.509,14.429 C217.229,14.759 217.059,15.179 216.997,15.692 L217.009,15.724 L220.039,15.724 L220.039,15.624 C220.039,15.136 219.919,14.732 219.679,14.414 C219.439,14.095 219.069,13.936 218.567,13.936 L218.567,13.935 Z M225.812,14.178 L225.185,14.14 C224.862,14.14 224.59,14.217 224.369,14.37 C224.140371,14.5322601 223.962759,14.7563572 223.857,15.016 L223.857,19.815 L222.634,19.815 L222.634,13.098 L223.726,13.098 L223.844,14.078 C224.034,13.731 224.269,13.46 224.549,13.265 C224.829,13.071 225.15,12.973 225.514,12.973 C225.671709,12.9742946 225.828498,12.9971737 225.98,13.041 L225.812,14.178 Z M236.862,16.922 L236.875,16.959 C236.891,17.807 236.593,18.517 235.981,19.089 C235.368,19.659 234.559,19.945 233.554,19.945 C232.531,19.945 231.698,19.583 231.054,18.859 C230.411,18.134 230.089,17.216 230.089,16.102 L230.089,14.494 C230.089,13.381 230.411,12.461 231.055,11.734 C231.698,11.009 232.531,10.645 233.554,10.645 C234.576,10.645 235.389,10.917 235.994,11.462 C236.597,12.006 236.891,12.727 236.874,13.625 L236.862,13.662 L235.689,13.662 C235.689,13.029 235.503,12.528 235.13,12.16 C234.758,11.792 234.232,11.608 233.554,11.608 C232.871,11.608 232.326,11.883 231.921,12.433 C231.515,12.983 231.312,13.667 231.312,14.482 L231.312,16.102 C231.312,16.926 231.515,17.612 231.921,18.163 C232.326,18.713 232.871,18.989 233.554,18.989 C234.232,18.989 234.758,18.806 235.13,18.439 C235.503,18.073 235.69,17.567 235.69,16.922 L236.862,16.922 Z M239.519,13.998 C239.751,13.675 240.036,13.423 240.373,13.243 C240.71,13.063 241.083,12.973 241.493,12.973 C242.21,12.973 242.767,13.189 243.167,13.619 C243.566,14.049 243.766,14.712 243.766,15.606 L243.766,19.815 L242.543,19.815 L242.543,15.593 C242.543,15.039 242.423,14.629 242.186,14.364 C241.948,14.099 241.593,13.967 241.121,13.967 C240.757,13.967 240.441,14.038 240.171,14.181 C239.905308,14.3206175 239.68059,14.5270688 239.519,14.78 L239.519,19.815 L238.296,19.815 L238.296,10.13 L239.519,10.13 L239.519,13.998 Z M246.845,19.815 L245.622,19.815 L245.622,13.098 L246.845,13.098 L246.845,19.815 Z M246.845,11.378 L245.622,11.378 L245.622,10.13 L246.845,10.13 L246.845,11.378 Z M249.235,19.815 L249.235,14.004 L248.185,14.004 L248.185,13.098 L249.235,13.098 L249.235,12.247 C249.235,11.531 249.422,10.977 249.797,10.587 C250.171,10.195 250.694,10 251.364,10 C251.504,10 251.647,10.011 251.789,10.034 C251.932,10.057 252.091,10.089 252.264,10.13 L252.115,11.061 C251.917227,11.0182409 251.715337,10.9974483 251.513,10.999 C251.157,10.999 250.893,11.106 250.719,11.319 C250.545,11.532 250.458,11.841 250.458,12.247 L250.458,13.097 L251.675,13.097 L251.675,14.004 L250.458,14.004 L250.458,19.814 L249.235,19.814 L249.235,19.815 Z M253.419,19.815 L253.419,14.004 L252.369,14.004 L252.369,13.098 L253.419,13.098 L253.419,12.247 C253.419,11.531 253.606,10.977 253.981,10.587 C254.355,10.195 254.878,10 255.548,10 C255.689,10 255.831,10.011 255.974,10.034 C256.116,10.057 256.274,10.089 256.449,10.13 L256.299,11.061 C256.101228,11.0182328 255.899337,10.9974401 255.697,10.999 C255.341,10.999 255.077,11.106 254.903,11.319 C254.729,11.532 254.643,11.841 254.643,12.247 L254.643,13.097 L255.859,13.097 L255.859,14.004 L254.642,14.004 L254.642,19.814 L253.419,19.814 L253.419,19.815 Z M260.273,14.178 L259.646,14.14 C259.323,14.14 259.051,14.217 258.829,14.37 C258.600371,14.5322601 258.422759,14.7563572 258.317,15.016 L258.317,19.815 L257.094,19.815 L257.094,13.098 L258.187,13.098 L258.305,14.078 C258.495,13.731 258.73,13.46 259.009,13.265 C259.289,13.071 259.611,12.973 259.975,12.973 C260.132709,12.9742946 260.289498,12.9971737 260.441,13.041 L260.273,14.178 Z M264.209,19.945 C263.244,19.945 262.492,19.637 261.952,19.02 C261.412,18.403 261.142,17.592 261.142,16.586 L261.142,16.313 C261.142,15.349 261.42,14.551 261.977,13.92 C262.533,13.289 263.213,12.973 264.017,12.973 C264.914,12.973 265.587,13.253 266.037,13.811 C266.486,14.371 266.71,15.113 266.71,16.041 L266.71,16.686 L262.414,16.686 L262.396,16.716 C262.396,17.391 262.545,17.939 262.843,18.359 C263.141,18.779 263.596,18.989 264.209,18.989 C264.622,18.989 264.986,18.929 265.299,18.812 C265.611,18.694 265.879,18.532 266.102,18.325 L266.58,19.119 C266.34,19.351 266.023,19.547 265.63,19.706 C265.237,19.866 264.763,19.945 264.209,19.945 Z M264.016,13.935 C263.59,13.935 263.237,14.1 262.958,14.429 C262.678,14.759 262.508,15.179 262.445,15.692 L262.458,15.724 L265.488,15.724 L265.488,15.624 C265.488,15.136 265.368,14.732 265.128,14.414 C264.888,14.095 264.517,13.936 264.016,13.936 L264.016,13.935 Z" id="Shape" fill="#2A3052" fill-rule="nonzero"></path>
            <path d="M23.1142578,17.328125 C23.0367835,18.3990939 22.6414424,19.2421844 21.9282227,19.8574219 C21.2150029,20.4726593 20.2750709,20.7802734 19.1083984,20.7802734 C17.8323504,20.7802734 16.8286169,20.350753 16.097168,19.4916992 C15.365719,18.6326454 15,17.453458 15,15.9541016 L15,15.3457031 C15,14.3886671 15.1686181,13.5455766 15.5058594,12.8164062 C15.8431006,12.0872359 16.3250294,11.527834 16.9516602,11.1381836 C17.5782909,10.7485332 18.306311,10.5537109 19.1357422,10.5537109 C20.2841854,10.5537109 21.2093064,10.861325 21.9111328,11.4765625 C22.6129592,12.0918 23.0185541,12.9553981 23.1279297,14.0673828 L21.0771484,14.0673828 C21.027018,13.4248015 20.8481461,12.9588231 20.5405273,12.6694336 C20.2329086,12.3800441 19.7646516,12.2353516 19.1357422,12.2353516 C18.452145,12.2353516 17.9405941,12.4803035 17.6010742,12.9702148 C17.2615543,13.4601261 17.0872396,14.2200469 17.078125,15.25 L17.078125,16.0019531 C17.078125,17.0774793 17.2410465,17.8636043 17.5668945,18.3603516 C17.8927425,18.8570988 18.406572,19.1054688 19.1083984,19.1054688 C19.7418651,19.1054688 20.2146794,18.9607762 20.5268555,18.6713867 C20.8390315,18.3819973 21.0179034,17.9342478 21.0634766,17.328125 L23.1142578,17.328125 Z M26.2587891,14.0537109 C26.7828802,13.4248015 27.4414023,13.1103516 28.234375,13.1103516 C29.8385497,13.1103516 30.6520181,14.0423084 30.6748047,15.90625 L30.6748047,20.6435547 L28.6992188,20.6435547 L28.6992188,15.9609375 C28.6992188,15.5371073 28.6080738,15.2237966 28.4257812,15.0209961 C28.2434887,14.8181956 27.9404318,14.7167969 27.5166016,14.7167969 C26.9378226,14.7167969 26.518556,14.9401019 26.2587891,15.3867188 L26.2587891,20.6435547 L24.2832031,20.6435547 L24.2832031,10.1435547 L26.2587891,10.1435547 L26.2587891,14.0537109 Z M34.25,20.6435547 L32.2675781,20.6435547 L32.2675781,13.2470703 L34.25,13.2470703 L34.25,20.6435547 Z M32.1513672,11.3330078 C32.1513672,11.0367824 32.2504873,10.7929697 32.4487305,10.6015625 C32.6469736,10.4101553 32.9169905,10.3144531 33.2587891,10.3144531 C33.5960303,10.3144531 33.8649079,10.4101553 34.0654297,10.6015625 C34.2659515,10.7929697 34.3662109,11.0367824 34.3662109,11.3330078 C34.3662109,11.6337906 34.2648122,11.8798819 34.0620117,12.0712891 C33.8592112,12.2626963 33.591473,12.3583984 33.2587891,12.3583984 C32.9261051,12.3583984 32.6583669,12.2626963 32.4555664,12.0712891 C32.2527659,11.8798819 32.1513672,11.6337906 32.1513672,11.3330078 Z M36.4169922,20.6435547 L36.4169922,14.6962891 L35.3164062,14.6962891 L35.3164062,13.2470703 L36.4169922,13.2470703 L36.4169922,12.6181641 C36.4169922,11.7887328 36.6551083,11.1450218 37.1313477,10.6870117 C37.607587,10.2290016 38.2740843,10 39.1308594,10 C39.4042982,10 39.7392558,10.0455725 40.1357422,10.1367188 L40.1152344,11.6679688 C39.9511711,11.6269529 39.7506522,11.6064453 39.5136719,11.6064453 C38.7708296,11.6064453 38.3994141,11.9550746 38.3994141,12.6523438 L38.3994141,13.2470703 L39.8691406,13.2470703 L39.8691406,14.6962891 L38.3994141,14.6962891 L38.3994141,20.6435547 L36.4169922,20.6435547 Z M41.4345703,20.6435547 L41.4345703,14.6962891 L40.3339844,14.6962891 L40.3339844,13.2470703 L41.4345703,13.2470703 L41.4345703,12.6181641 C41.4345703,11.7887328 41.6726864,11.1450218 42.1489258,10.6870117 C42.6251651,10.2290016 43.2916624,10 44.1484375,10 C44.4218764,10 44.756834,10.0455725 45.1533203,10.1367188 L45.1328125,11.6679688 C44.9687492,11.6269529 44.7682304,11.6064453 44.53125,11.6064453 C43.7884077,11.6064453 43.4169922,11.9550746 43.4169922,12.6523438 L43.4169922,13.2470703 L44.8867188,13.2470703 L44.8867188,14.6962891 L43.4169922,14.6962891 L43.4169922,20.6435547 L41.4345703,20.6435547 Z M50.0683594,15.0996094 C49.7994778,15.0631509 49.562501,15.0449219 49.3574219,15.0449219 C48.6100223,15.0449219 48.1201183,15.297849 47.8876953,15.8037109 L47.8876953,20.6435547 L45.9121094,20.6435547 L45.9121094,13.2470703 L47.7783203,13.2470703 L47.8330078,14.1289062 C48.2294942,13.4498664 48.7786423,13.1103516 49.4804688,13.1103516 C49.6992198,13.1103516 49.9042959,13.1399737 50.0957031,13.1992188 L50.0683594,15.0996094 Z M54.4228516,20.7802734 C53.3382107,20.7802734 52.4552443,20.4475945 51.7739258,19.7822266 C51.0926073,19.1168587 50.7519531,18.2304743 50.7519531,17.1230469 L50.7519531,16.9316406 C50.7519531,16.1887984 50.8955064,15.5245798 51.1826172,14.9389648 C51.469728,14.3533499 51.8764622,13.9021826 52.402832,13.5854492 C52.9292019,13.2687159 53.529619,13.1103516 54.2041016,13.1103516 C55.2158254,13.1103516 56.0122041,13.4293588 56.5932617,14.0673828 C57.1743193,14.7054068 57.4648438,15.6100202 57.4648438,16.78125 L57.4648438,17.5878906 L52.7548828,17.5878906 C52.8186852,18.070966 53.0112289,18.4583319 53.3325195,18.75 C53.6538102,19.0416681 54.0605444,19.1875 54.5527344,19.1875 C55.3138059,19.1875 55.9085265,18.9117866 56.3369141,18.3603516 L57.3076172,19.4472656 C57.0113917,19.8665386 56.6103541,20.193521 56.1044922,20.4282227 C55.5986303,20.6629244 55.038089,20.7802734 54.4228516,20.7802734 Z M54.1972656,14.7099609 C53.8053366,14.7099609 53.4874687,14.8421211 53.2436523,15.1064453 C52.999836,15.3707696 52.8437503,15.749021 52.7753906,16.2412109 L55.5234375,16.2412109 L55.5234375,16.0839844 C55.5143229,15.6464822 55.3958345,15.3081067 55.1679688,15.0688477 C54.940103,14.8295886 54.6165386,14.7099609 54.1972656,14.7099609 Z M64.3828125,20.6435547 L62.3320312,20.6435547 L62.3320312,10.6904297 L64.3828125,10.6904297 L64.3828125,20.6435547 Z M67.9716797,13.2470703 L68.0332031,14.1015625 C68.5618516,13.4407519 69.2705034,13.1103516 70.1591797,13.1103516 C70.9430378,13.1103516 71.5263653,13.3404925 71.9091797,13.8007812 C72.2919941,14.26107 72.4879557,14.9492142 72.4970703,15.8652344 L72.4970703,20.6435547 L70.5214844,20.6435547 L70.5214844,15.9130859 C70.5214844,15.493813 70.4303395,15.1896168 70.2480469,15.0004883 C70.0657543,14.8113597 69.7626974,14.7167969 69.3388672,14.7167969 C68.7828748,14.7167969 68.3658868,14.9537737 68.0878906,15.4277344 L68.0878906,20.6435547 L66.1123047,20.6435547 L66.1123047,13.2470703 L67.9716797,13.2470703 Z M74.5341797,20.6435547 L74.5341797,14.6962891 L73.4335938,14.6962891 L73.4335938,13.2470703 L74.5341797,13.2470703 L74.5341797,12.6181641 C74.5341797,11.7887328 74.7722958,11.1450218 75.2485352,10.6870117 C75.7247745,10.2290016 76.3912718,10 77.2480469,10 C77.5214857,10 77.8564433,10.0455725 78.2529297,10.1367188 L78.2324219,11.6679688 C78.0683586,11.6269529 77.8678397,11.6064453 77.6308594,11.6064453 C76.8880171,11.6064453 76.5166016,11.9550746 76.5166016,12.6523438 L76.5166016,13.2470703 L77.9863281,13.2470703 L77.9863281,14.6962891 L76.5166016,14.6962891 L76.5166016,20.6435547 L74.5341797,20.6435547 Z M82.4160156,20.7802734 C81.3313748,20.7802734 80.4484084,20.4475945 79.7670898,19.7822266 C79.0857713,19.1168587 78.7451172,18.2304743 78.7451172,17.1230469 L78.7451172,16.9316406 C78.7451172,16.1887984 78.8886704,15.5245798 79.1757812,14.9389648 C79.4628921,14.3533499 79.8696263,13.9021826 80.3959961,13.5854492 C80.9223659,13.2687159 81.5227831,13.1103516 82.1972656,13.1103516 C83.2089894,13.1103516 84.0053682,13.4293588 84.5864258,14.0673828 C85.1674834,14.7054068 85.4580078,15.6100202 85.4580078,16.78125 L85.4580078,17.5878906 L80.7480469,17.5878906 C80.8118493,18.070966 81.0043929,18.4583319 81.3256836,18.75 C81.6469743,19.0416681 82.0537085,19.1875 82.5458984,19.1875 C83.30697,19.1875 83.9016906,18.9117866 84.3300781,18.3603516 L85.3007812,19.4472656 C85.0045558,19.8665386 84.6035182,20.193521 84.0976562,20.4282227 C83.5917943,20.6629244 83.0312531,20.7802734 82.4160156,20.7802734 Z M82.1904297,14.7099609 C81.7985006,14.7099609 81.4806327,14.8421211 81.2368164,15.1064453 C80.9930001,15.3707696 80.8369144,15.749021 80.7685547,16.2412109 L83.5166016,16.2412109 L83.5166016,16.0839844 C83.5074869,15.6464822 83.3889985,15.3081067 83.1611328,15.0688477 C82.9332671,14.8295886 82.6097026,14.7099609 82.1904297,14.7099609 Z M82.3681641,10.1435547 L84.5214844,10.1435547 L82.6279297,12.2626953 L81.0214844,12.2626953 L82.3681641,10.1435547 Z M90.7353516,15.0996094 C90.46647,15.0631509 90.2294932,15.0449219 90.0244141,15.0449219 C89.2770145,15.0449219 88.7871105,15.297849 88.5546875,15.8037109 L88.5546875,20.6435547 L86.5791016,20.6435547 L86.5791016,13.2470703 L88.4453125,13.2470703 L88.5,14.1289062 C88.8964864,13.4498664 89.4456345,13.1103516 90.1474609,13.1103516 C90.366212,13.1103516 90.5712881,13.1399737 90.7626953,13.1992188 L90.7353516,15.0996094 Z M93.7705078,20.6435547 L91.7880859,20.6435547 L91.7880859,13.2470703 L93.7705078,13.2470703 L93.7705078,20.6435547 Z M91.671875,11.3330078 C91.671875,11.0367824 91.7709951,10.7929697 91.9692383,10.6015625 C92.1674815,10.4101553 92.4374983,10.3144531 92.7792969,10.3144531 C93.1165381,10.3144531 93.3854157,10.4101553 93.5859375,10.6015625 C93.7864593,10.7929697 93.8867188,11.0367824 93.8867188,11.3330078 C93.8867188,11.6337906 93.78532,11.8798819 93.5825195,12.0712891 C93.379719,12.2626963 93.1119808,12.3583984 92.7792969,12.3583984 C92.4466129,12.3583984 92.1788747,12.2626963 91.9760742,12.0712891 C91.7732737,11.8798819 91.671875,11.6337906 91.671875,11.3330078 Z M98.8017578,20.7802734 C97.717117,20.7802734 96.8341505,20.4475945 96.152832,19.7822266 C95.4715135,19.1168587 95.1308594,18.2304743 95.1308594,17.1230469 L95.1308594,16.9316406 C95.1308594,16.1887984 95.2744126,15.5245798 95.5615234,14.9389648 C95.8486342,14.3533499 96.2553685,13.9021826 96.7817383,13.5854492 C97.3081081,13.2687159 97.9085253,13.1103516 98.5830078,13.1103516 C99.5947316,13.1103516 100.39111,13.4293588 100.972168,14.0673828 C101.553226,14.7054068 101.84375,15.6100202 101.84375,16.78125 L101.84375,17.5878906 L97.1337891,17.5878906 C97.1975915,18.070966 97.3901351,18.4583319 97.7114258,18.75 C98.0327165,19.0416681 98.4394507,19.1875 98.9316406,19.1875 C99.6927121,19.1875 100.287433,18.9117866 100.71582,18.3603516 L101.686523,19.4472656 C101.390298,19.8665386 100.98926,20.193521 100.483398,20.4282227 C99.9775365,20.6629244 99.4169953,20.7802734 98.8017578,20.7802734 Z M98.5761719,14.7099609 C98.1842428,14.7099609 97.8663749,14.8421211 97.6225586,15.1064453 C97.3787423,15.3707696 97.2226566,15.749021 97.1542969,16.2412109 L99.9023438,16.2412109 L99.9023438,16.0839844 C99.8932291,15.6464822 99.7747407,15.3081067 99.546875,15.0688477 C99.3190093,14.8295886 98.9954448,14.7099609 98.5761719,14.7099609 Z M107.394531,19.8916016 C106.906899,20.4840524 106.232426,20.7802734 105.371094,20.7802734 C104.578121,20.7802734 103.973147,20.5524111 103.556152,20.0966797 C103.139158,19.6409482 102.926107,18.9733117 102.916992,18.09375 L102.916992,13.2470703 L104.892578,13.2470703 L104.892578,18.0253906 C104.892578,18.7955768 105.243486,19.1806641 105.945312,19.1806641 C106.615238,19.1806641 107.07552,18.9482445 107.326172,18.4833984 L107.326172,13.2470703 L109.308594,13.2470703 L109.308594,20.6435547 L107.449219,20.6435547 L107.394531,19.8916016 Z M114.955078,15.0996094 C114.686197,15.0631509 114.44922,15.0449219 114.244141,15.0449219 C113.496741,15.0449219 113.006837,15.297849 112.774414,15.8037109 L112.774414,20.6435547 L110.798828,20.6435547 L110.798828,13.2470703 L112.665039,13.2470703 L112.719727,14.1289062 C113.116213,13.4498664 113.665361,13.1103516 114.367188,13.1103516 C114.585939,13.1103516 114.791015,13.1399737 114.982422,13.1992188 L114.955078,15.0996094 Z" id="Chiffre-Inférieur" fill="#000000" fill-rule="nonzero"></path>
        </g>
    </g>
</svg>