<?xml version="1.0" encoding="UTF-8"?>
<svg width="299px" height="197px" viewBox="0 0 299 197" version="1.1" xmlns="http://www.w3.org/2000/svg" xmlns:xlink="http://www.w3.org/1999/xlink">
    <!-- Generator: Sketch 53.1 (72631) - https://sketchapp.com -->
    <title>differs</title>
    <desc>Created with Sketch.</desc>
    <g id="Page-1" stroke="none" stroke-width="1" fill="none" fill-rule="evenodd">
        <g id="differs">
            <rect id="bg" fill="#F1F1F2" x="0" y="0" width="299" height="197"></rect>
            <rect id="bg" stroke="#C2C2C2" stroke-width="2.01346801" x="1.00673401" y="1.00673401" width="296.986532" height="194.986532"></rect>
            <path d="M6.983378,50.8997552 L6.983378,49.707532 L292.030045,49.707532 L292.030045,50.8997552 L6.983378,50.8997552 Z M6.983378,70.9439801 L6.983378,69.7517568 L292.030045,69.7517568 L292.030045,70.9439801 L6.983378,70.9439801 Z M6.983378,131.109596 L6.983378,129.917373 L292.030045,129.917373 L292.030045,131.109596 L6.983378,131.109596 Z M6.983378,151.152822 L6.983378,149.960599 L292.030045,149.960599 L292.030045,151.152822 L6.983378,151.152822 Z M6.983378,171.198045 L6.983378,170.005822 L292.030045,170.005822 L292.030045,171.198045 L6.983378,171.198045 Z M40.8259308,30.260417 L42.0145487,30.260417 L42.0145487,188.260417 L40.8259308,188.260417 L40.8259308,30.260417 Z M76.8984504,30.260417 L78.0870683,30.260417 L78.0870683,188.260417 L76.8984504,188.260417 L76.8984504,30.260417 Z M112.969991,30.260417 L114.158609,30.260417 L114.158609,188.260417 L112.969991,188.260417 L112.969991,30.260417 Z M149.005337,30.260417 L150.193955,30.260417 L150.193955,188.260417 L149.005337,188.260417 L149.005337,30.260417 Z M185.076879,30.260417 L186.265497,30.260417 L186.265497,188.260417 L185.076879,188.260417 L185.076879,30.260417 Z M221.149398,30.260417 L222.338016,30.260417 L222.338016,188.260417 L221.149398,188.260417 L221.149398,30.260417 Z M257.22094,30.260417 L258.409558,30.260417 L258.409558,188.260417 L257.22094,188.260417 L257.22094,30.260417 Z M6.983378,111.067367 L6.983378,109.875144 L292.030045,109.875144 L292.030045,111.067367 L6.983378,111.067367 Z" id="Shape" fill="#DEDEDD" fill-rule="nonzero"></path>
            <polygon id="Path" fill="#293052" fill-rule="nonzero" points="3.59503998 92.1320967 3.59503998 90.9129921 5.41806038 90.9129921 5.41806038 92.1320967"></polygon>
            <path d="M9.06310114,92.1320967 L9.06310114,90.9129921 L12.7092236,90.9129921 L12.7092236,92.1320967 L9.06310114,92.1320967 Z M16.3553461,92.1320967 L16.3553461,90.9129921 L20.0014685,90.9129921 L20.0014685,92.1320967 L16.3553461,92.1320967 Z M23.647591,92.1320967 L23.647591,90.9129921 L27.2937135,90.9129921 L27.2937135,92.1320967 L23.647591,92.1320967 Z M30.9398359,92.1320967 L30.9398359,90.9129921 L34.5859584,90.9129921 L34.5859584,92.1320967 L30.9398359,92.1320967 Z M38.2320808,92.1320967 L38.2320808,90.9129921 L41.8782033,90.9129921 L41.8782033,92.1320967 L38.2320808,92.1320967 Z M45.5243258,92.1320967 L45.5243258,90.9129921 L49.1704482,90.9129921 L49.1704482,92.1320967 L45.5243258,92.1320967 Z M52.8165707,92.1320967 L52.8165707,90.9129921 L56.4626931,90.9129921 L56.4626931,92.1320967 L52.8165707,92.1320967 Z M60.1088156,92.1320967 L60.1088156,90.9129921 L63.7549381,90.9129921 L63.7549381,92.1320967 L60.1088156,92.1320967 Z M67.4010605,92.1320967 L67.4010605,90.9129921 L71.047183,90.9129921 L71.047183,92.1320967 L67.4010605,92.1320967 Z M74.6933054,92.1320967 L74.6933054,90.9129921 L78.3394279,90.9129921 L78.3394279,92.1320967 L74.6933054,92.1320967 Z M81.9855504,92.1320967 L81.9855504,90.9129921 L85.6316728,90.9129921 L85.6316728,92.1320967 L81.9855504,92.1320967 Z M89.2777953,92.1320967 L89.2777953,90.9129921 L92.9239178,90.9129921 L92.9239178,92.1320967 L89.2777953,92.1320967 Z M96.5700402,92.1320967 L96.5700402,90.9129921 L100.216163,90.9129921 L100.216163,92.1320967 L96.5700402,92.1320967 Z M103.862285,92.1320967 L103.862285,90.9129921 L107.508408,90.9129921 L107.508408,92.1320967 L103.862285,92.1320967 Z M111.15453,92.1320967 L111.15453,90.9129921 L114.800653,90.9129921 L114.800653,92.1320967 L111.15453,92.1320967 Z M118.446775,92.1320967 L118.446775,90.9129921 L122.092897,90.9129921 L122.092897,92.1320967 L118.446775,92.1320967 Z M125.73902,92.1320967 L125.73902,90.9129921 L129.385142,90.9129921 L129.385142,92.1320967 L125.73902,92.1320967 Z M133.031265,92.1320967 L133.031265,90.9129921 L136.677387,90.9129921 L136.677387,92.1320967 L133.031265,92.1320967 Z M140.32351,92.1320967 L140.32351,90.9129921 L143.969632,90.9129921 L143.969632,92.1320967 L140.32351,92.1320967 Z M147.615755,92.1320967 L147.615755,90.9129921 L151.261877,90.9129921 L151.261877,92.1320967 L147.615755,92.1320967 Z M154.908,92.1320967 L154.908,90.9129921 L158.554122,90.9129921 L158.554122,92.1320967 L154.908,92.1320967 Z M162.200245,92.1320967 L162.200245,90.9129921 L165.846367,90.9129921 L165.846367,92.1320967 L162.200245,92.1320967 Z M169.492489,92.1320967 L169.492489,90.9129921 L173.138612,90.9129921 L173.138612,92.1320967 L169.492489,92.1320967 Z M176.784734,92.1320967 L176.784734,90.9129921 L180.430857,90.9129921 L180.430857,92.1320967 L176.784734,92.1320967 Z M184.076979,92.1320967 L184.076979,90.9129921 L187.723102,90.9129921 L187.723102,92.1320967 L184.076979,92.1320967 Z M191.369224,92.1320967 L191.369224,90.9129921 L195.015347,90.9129921 L195.015347,92.1320967 L191.369224,92.1320967 Z M198.661469,92.1320967 L198.661469,90.9129921 L202.307592,90.9129921 L202.307592,92.1320967 L198.661469,92.1320967 Z M205.953714,92.1320967 L205.953714,90.9129921 L209.599837,90.9129921 L209.599837,92.1320967 L205.953714,92.1320967 Z M213.245959,92.1320967 L213.245959,90.9129921 L216.892081,90.9129921 L216.892081,92.1320967 L213.245959,92.1320967 Z M220.538204,92.1320967 L220.538204,90.9129921 L224.184326,90.9129921 L224.184326,92.1320967 L220.538204,92.1320967 Z M227.830449,92.1320967 L227.830449,90.9129921 L231.476571,90.9129921 L231.476571,92.1320967 L227.830449,92.1320967 Z M235.122694,92.1320967 L235.122694,90.9129921 L238.768816,90.9129921 L238.768816,92.1320967 L235.122694,92.1320967 Z M242.414939,92.1320967 L242.414939,90.9129921 L246.061061,90.9129921 L246.061061,92.1320967 L242.414939,92.1320967 Z M249.707184,92.1320967 L249.707184,90.9129921 L253.353306,90.9129921 L253.353306,92.1320967 L249.707184,92.1320967 Z M256.999429,92.1320967 L256.999429,90.9129921 L260.645551,90.9129921 L260.645551,92.1320967 L256.999429,92.1320967 Z M264.291673,92.1320967 L264.291673,90.9129921 L267.937796,90.9129921 L267.937796,92.1320967 L264.291673,92.1320967 Z M271.583918,92.1320967 L271.583918,90.9129921 L275.230041,90.9129921 L275.230041,92.1320967 L271.583918,92.1320967 Z M278.876163,92.1320967 L278.876163,90.9129921 L282.522286,90.9129921 L282.522286,92.1320967 L278.876163,92.1320967 Z M286.168408,92.1320967 L286.168408,90.9129921 L289.814531,90.9129921 L289.814531,92.1320967 L286.168408,92.1320967 Z" id="Path" fill="#293052" fill-rule="nonzero"></path>
            <polygon id="Path" fill="#293052" fill-rule="nonzero" points="293.193279 92.1320967 293.193279 90.9129921 294.978299 90.9129921 294.978299 92.1320967"></polygon>
            <polygon id="Path" fill="#C2C2C2" fill-rule="nonzero" points="2 30 2 28 298 28 298 30"></polygon>
            <path d="M221.83622,90.2605323 C222.530887,89.5438873 223.673045,89.5279539 224.387301,90.224944 C225.101557,90.9219341 225.117437,92.0679116 224.42277,92.7845565 L192.561414,125.653955 C192.00137,126.231718 191.128068,126.368367 190.419277,125.989143 L148.739124,103.689026 L106.394205,128.583087 C105.867041,128.893 105.219362,128.914138 104.673239,128.639254 L74.8629052,113.634591 C74.7350762,113.57025 74.6153258,113.490886 74.5061759,113.398172 L37.6317635,82.0761923 C36.8713238,81.4302573 36.776754,80.2881036 37.420536,79.5251206 C38.0643179,78.7621377 39.2026644,78.6672516 39.9631041,79.3131867 L76.6732108,110.495601 L105.415437,124.962646 L147.785637,100.053722 C148.326585,99.7357061 148.9933,99.7222856 149.546525,100.018277 L190.92037,122.15451 L221.83622,90.2605323 Z" id="Path" fill="#293052" fill-rule="nonzero"></path>
            <path d="M187.941339,141.497671 L152.776945,141.497671 L147.231884,133.260417 L141.915824,141.497671 L106.75043,141.497671 C105.493025,141.496045 104.286487,142.004336 103.396241,142.910725 C102.505996,143.817114 102.004967,145.047354 102.003378,146.330805 L102.003378,171.350826 C102.004967,172.634278 102.505996,173.864518 103.396241,174.770906 C104.286487,175.677295 105.493025,176.185586 106.75043,176.183961 L187.941339,176.183961 C189.21916,176.215382 190.455526,175.720157 191.371377,174.810064 C192.28602,173.900897 192.801759,172.652945 192.801393,171.349805 L192.801393,146.369593 C192.811942,145.060058 192.300868,143.802328 191.385377,142.884836 C190.468411,141.965927 189.225996,141.465147 187.941339,141.49665 L187.941339,141.497671 Z" id="Path" fill="#E88024" fill-rule="nonzero"></path>
            <ellipse id="Oval" fill="#FFFFFF" fill-rule="nonzero" opacity="0.6" cx="223.128496" cy="91.5225444" rx="8.16509133" ry="8.54653368"></ellipse>
            <path d="M223.129495,101.288183 C217.937219,101.288183 213.749363,96.904686 213.749363,91.5225444 C213.749363,86.1404028 217.937219,81.7569062 223.129495,81.7569062 C228.321772,81.7569062 232.509627,86.1404028 232.509627,91.5225444 C232.509627,96.904686 228.321772,101.288183 223.129495,101.288183 Z M223.129495,98.8499735 C226.95613,98.8499735 230.079546,95.5806432 230.079546,91.5225444 C230.079546,87.4644456 226.95613,84.1951153 223.129495,84.1951153 C219.302861,84.1951153 216.179445,87.4644456 216.179445,91.5225444 C216.179445,95.5806432 219.302861,98.8499735 223.129495,98.8499735 Z" id="Oval" fill="#E88024" fill-rule="nonzero"></path>
            <polygon id="Path" fill="#E88024" fill-rule="nonzero" points="246.103752 82.5126014 274.775074 82.5126014 274.775074 101.692031 246.104753 101.692031"></polygon>
            <path d="M259.850906,85.721762 C260.267329,85.6751563 260.687497,85.6751563 261.103921,85.721762 C261.493925,85.8156687 261.875929,85.9442801 262.243933,86.1086169 L261.825929,87.8877413 L260.837917,87.617249 L259.850906,87.617249 C259.169994,87.6045789 258.522891,87.9195203 258.103887,88.4675133 C257.631557,89.1396548 257.415725,89.9646118 257.49688,90.7876221 C257.786883,90.4946739 258.136887,90.2701143 258.521891,90.1302749 C258.971896,89.9638967 259.448902,89.8853009 259.926907,89.8985703 C260.896918,89.8556998 261.826928,90.2864459 262.432936,91.0581143 C263.064942,91.9145029 263.386946,92.9668708 263.344945,94.0355703 C263.383685,95.1690932 262.972645,96.2706095 262.204932,97.0906014 C261.446094,97.9032677 260.379654,98.3406903 259.2809,98.2899537 C258.104934,98.3366944 256.967705,97.8564208 256.167865,96.9752594 C255.330514,95.9637387 254.908454,94.6610925 254.989852,93.3394356 L254.989852,90.9427724 C254.907152,89.5168736 255.401315,88.1188015 256.356867,87.0752439 C257.28419,86.1441197 258.551846,85.6530694 259.850906,85.721762 Z M259.2809,91.7930366 C258.88937,91.7863085 258.500975,91.8653181 258.141887,92.0247413 C257.855077,92.1491897 257.606127,92.3497261 257.420879,92.605534 L257.420879,93.4170107 C257.369879,94.2029692 257.55488,94.9848449 257.951885,95.6605651 C258.243889,96.1433682 258.761894,96.4363164 259.3189,96.4332542 C259.80483,96.4312338 260.25324,96.1662509 260.496914,95.7371195 C260.840917,95.2390055 261.026919,94.6449433 261.02792,94.0355703 C261.057919,93.445591 260.897918,92.8617361 260.572914,92.3728086 C260.279124,91.9486337 259.788271,91.7136345 259.2809,91.754249 L259.2809,91.7930366 Z" id="Shape" fill="#FFFFFF" fill-rule="nonzero"></path>
            <polygon id="Path" fill="#E88024" fill-rule="nonzero" points="249.597792 92.1023164 246.255754 95.5054148 241.053696 92.1023164 246.255754 88.7380055"></polygon>
            <g id="path-1-link" transform="translate(130.000000, 7.000000)" fill="#2A3052" fill-rule="nonzero">
                <path d="M5.051075,12.5734375 L5.051075,7.7085938 C5.051075,7.1973933 4.93973,6.7979181 4.717036,6.5101563 C4.430234,6.1580712 3.915684,5.9820313 3.173371,5.9820313 C2.896691,5.9820313 2.648694,6.010807 2.429375,6.0683594 C2.243797,6.1157554 2.044725,6.20039 1.832153,6.3222656 C1.589215,6.457683 1.417136,6.572786 1.315911,6.6675781 C1.191068,6.7894537 1.088158,6.8893225 1.007178,6.9671875 L2.854515,7.2515625 L2.768475,7.8304688 C2.515414,7.8304688 2.326464,7.894791 2.201621,8.0234375 C1.975553,8.2096363 1.862521,8.4753889 1.862521,8.8207031 L1.862521,12.5734375 L0.668078,12.5734375 L0.668078,8.8207031 C0.668078,8.5261704 0.733873,8.292579 0.865465,8.1199219 C1.02405,7.9235667 1.182632,7.8135418 1.341217,7.7898437 C1.401952,7.7830729 1.439067,7.7559898 1.452564,7.7085938 L0,7.5359375 L0.075918,6.7589844 C0.22438,6.6980466 0.40152,6.5541678 0.607343,6.3273437 C0.884024,6.0226547 1.235773,5.7552095 1.662603,5.525 C2.089433,5.2947905 2.593017,5.1796875 3.173371,5.1796875 C3.878568,5.1796875 4.445416,5.2710928 4.873933,5.4539062 C5.126994,5.5622401 5.354746,5.7128897 5.557195,5.9058594 C5.742773,6.0785165 5.899669,6.2867175 6.027886,6.5304687 C6.118988,6.7065113 6.178035,6.8740877 6.205028,7.0332031 C6.235396,7.219402 6.250579,7.4309884 6.250579,7.6679687 L6.250579,12.5734375 L5.051075,12.5734375 Z M12.946544,12.5734375 L11.736918,12.5734375 L11.736918,7.7746094 C11.736918,7.2024711 11.659313,6.8013032 11.504103,6.5710937 C11.237545,6.1783835 10.783729,5.9820313 10.14264,5.9820313 C9.494804,5.9820313 8.983628,6.1631492 8.609097,6.5253906 C8.362785,6.7589855 8.199141,7.0365869 8.118161,7.3582031 L7.419716,6.9316406 C7.578301,6.4746071 7.854977,6.0819027 8.249752,5.7535156 C8.708637,5.3709616 9.35815,5.1796875 10.198314,5.1796875 C11.02498,5.1796875 11.693051,5.3845032 12.202548,5.7941406 C12.698548,6.1970072 12.946544,6.7911419 12.946544,7.5765625 L12.946544,12.5734375 Z M16.484321,7.759375 C16.065927,7.68151 15.650913,7.6341147 15.239267,7.6171875 C15.053688,7.6104166 14.891732,7.6070313 14.753392,7.6070313 C14.351868,7.6070313 14.134239,7.6188801 14.100497,7.6425781 C14.090375,7.5951821 14.085314,7.546094 14.085314,7.4953125 C14.085314,7.0450498 14.232087,6.5897158 14.525638,6.1292969 C14.900168,5.5436169 15.512567,5.2507812 16.362853,5.2507812 C16.599043,5.2507812 16.929705,5.3125645 17.354847,5.4361328 C17.77999,5.5597011 18.093781,5.6214844 18.29623,5.6214844 C18.691006,5.6214844 18.960933,5.4979179 19.106022,5.2507812 L19.991732,5.7128906 C19.944493,5.8415371 19.846645,5.9752597 19.698182,6.1140625 C19.485611,6.3138031 19.247737,6.4272134 18.984553,6.4542969 C18.832716,6.471224 18.729806,6.4796875 18.67582,6.4796875 C18.409262,6.4796875 18.038111,6.4035164 17.562357,6.2511719 C17.13384,6.11914 16.806552,6.053125 16.580484,6.053125 C16.172212,6.053125 15.85336,6.1563792 15.623918,6.3628906 C15.475455,6.4881517 15.355675,6.6709623 15.264573,6.9113281 C15.659348,6.9113281 16.123287,6.9519527 16.656402,7.0332031 C17.277245,7.1313807 17.779986,7.2684887 18.164639,7.4445313 C18.549292,7.6205738 18.810785,7.8355456 18.949125,8.0894531 C19.063846,8.2925791 19.121205,8.5024729 19.121205,8.7191406 L19.121205,11.1769531 C19.121205,11.6001323 18.984554,11.9606756 18.711248,12.2585937 C18.454813,12.5395847 18.120777,12.6800781 17.709131,12.6800781 C17.250247,12.6800781 16.890906,12.5361994 16.631096,12.2484375 C16.418525,12.018228 16.312241,11.7372412 16.312241,11.4054687 C16.312241,11.0466128 16.430334,10.7495454 16.666524,10.5142578 C16.902715,10.2789702 17.199636,10.1613281 17.557295,10.1613281 C17.712506,10.1613281 17.828913,10.1748697 17.906518,10.2019531 L17.906518,8.8207031 C17.906518,8.6006499 17.852532,8.419532 17.74456,8.2773437 C17.575852,8.0539051 17.155777,7.8812506 16.484321,7.759375 Z M17.557295,11.9640625 C17.709132,11.9640625 17.838191,11.90905 17.944477,11.7990234 C18.050763,11.6889968 18.103905,11.5578133 18.103905,11.4054688 C18.103905,11.2531242 18.049919,11.122787 17.941946,11.0144531 C17.833974,10.9061193 17.705758,10.8519531 17.557295,10.8519531 C17.402084,10.8519531 17.269651,10.9052729 17.159991,11.0119141 C17.050331,11.1185552 16.995502,11.2497388 16.995502,11.4054688 C16.995502,11.5611987 17.049488,11.6932286 17.157461,11.8015625 C17.265433,11.9098964 17.39871,11.9640625 17.557295,11.9640625 Z M26.561166,12.5734375 L24.850482,7.3125 L23.134735,12.5734375 L22.006088,12.5734375 L22.006088,7.6984375 C21.800265,7.7187501 21.656866,7.7289062 21.575886,7.7289063 C21.231723,7.7289062 20.93902,7.6087252 20.697769,7.3683594 C20.456517,7.1279936 20.335893,6.8368507 20.335893,6.4949219 C20.335893,6.2207018 20.421932,5.9600273 20.594014,5.7128906 C20.782966,5.4420559 21.009031,5.2897137 21.272215,5.2558594 C21.474664,5.2321613 21.618063,5.2203125 21.702416,5.2203125 C22.168049,5.2203125 22.534139,5.3675767 22.800696,5.6621094 C23.013268,5.9397149 23.119552,6.2917947 23.119552,6.7183594 L23.119552,9.18125 L23.079062,9.9785156 L24.572116,5.3117187 L25.164276,5.3117187 L26.642146,9.9785156 L26.61684,9.18125 L26.61684,5.3117187 L27.725242,5.3117187 L27.725242,12.5734375 L26.561166,12.5734375 Z M21.044461,6.4949219 C21.044461,6.6404955 21.096759,6.7682937 21.201358,6.8783203 C21.305956,6.9883469 21.430798,7.0433594 21.575886,7.0433594 C21.724349,7.0433594 21.851721,6.9891933 21.958007,6.8808594 C22.064293,6.7725255 22.117435,6.643881 22.117435,6.4949219 C22.117435,6.3391919 22.06598,6.2063157 21.963068,6.0962891 C21.860157,5.9862625 21.731097,5.93125 21.575886,5.93125 C21.42405,5.93125 21.297521,5.9879552 21.196297,6.1013672 C21.095072,6.2147792 21.044461,6.3459628 21.044461,6.4949219 Z M33.940393,11.6542969 C34.105726,11.6542969 34.235629,11.5916673 34.330105,11.4664063 C34.411085,11.3614578 34.451574,11.217579 34.451574,11.0347656 L34.451574,5.3117187 L35.666261,5.3117187 L35.666261,11.2226562 C35.666261,11.5882831 35.571787,11.8963529 35.382834,12.146875 C35.166889,12.4312514 34.794051,12.5734375 34.26431,12.5734375 L29.74466,12.5734375 L29.74466,11.6542969 L30.230535,11.6542969 L30.230535,10.4253906 C30.230535,9.9717425 30.326697,9.6111993 30.519023,9.34375 C30.745091,9.0322901 31.023454,8.8494794 31.354121,8.7953125 C30.858121,8.7953125 30.45576,8.647202 30.147025,8.3509766 C29.838291,8.0547511 29.683926,7.6595077 29.683926,7.1652344 C29.683926,6.5423146 29.918425,6.0480487 30.387432,5.6824219 C30.812575,5.3574202 31.347369,5.1949219 31.991832,5.1949219 C32.420349,5.1949219 32.767881,5.3032541 33.034439,5.5199219 C33.317867,5.7569022 33.459579,6.0869771 33.459579,6.5101563 C33.459579,6.9739607 33.295935,7.3108062 32.968643,7.5207031 C32.752697,7.6561205 32.509762,7.7238281 32.23983,7.7238281 C31.64598,7.7238281 31.271455,7.5071636 31.116245,7.0738281 C31.062258,6.9316399 31.035265,6.7894538 31.035265,6.6472656 C31.035265,6.5152337 31.047075,6.420443 31.070694,6.3628906 C30.962721,6.3764324 30.866559,6.466145 30.782205,6.6320313 C30.711348,6.7776049 30.67592,6.9113275 30.67592,7.0332031 C30.67592,7.7475296 31.095996,8.162239 31.936159,8.2773437 C32.212839,8.317969 32.486141,8.3382813 32.756073,8.3382813 L33.287498,8.3382813 L33.287498,9.1660156 L32.725705,9.1660156 C32.337678,9.1660156 32.044132,9.2540356 31.845057,9.4300781 C31.59537,9.6569022 31.470528,9.9734355 31.470528,10.3796875 L31.470528,11.6542969 L33.940393,11.6542969 Z M31.662854,6.5101563 C31.662854,6.6625008 31.71937,6.792838 31.832404,6.9011719 C31.945438,7.0095057 32.076184,7.0636719 32.224647,7.0636719 C32.373109,7.0636719 32.503856,7.0086594 32.61689,6.8986328 C32.729924,6.7886062 32.78644,6.6591153 32.78644,6.5101563 C32.78644,6.1445294 32.599177,5.9617187 32.224647,5.9617187 C32.07281,5.9617187 31.94122,6.0150385 31.829873,6.1216797 C31.718527,6.2283208 31.662854,6.3578117 31.662854,6.5101563 Z M42.311614,12.5734375 L41.101988,12.5734375 L41.101988,7.7746094 C41.101988,7.2024711 41.024384,6.8013032 40.869173,6.5710937 C40.602615,6.1783835 40.148799,5.9820313 39.507711,5.9820313 C38.859874,5.9820313 38.348698,6.1631492 37.974168,6.5253906 C37.727855,6.7589855 37.564211,7.0365869 37.483232,7.3582031 L36.784786,6.9316406 C36.943371,6.4746071 37.220047,6.0819027 37.614823,5.7535156 C38.073707,5.3709616 38.723221,5.1796875 39.563384,5.1796875 C40.39005,5.1796875 41.058122,5.3845032 41.567618,5.7941406 C42.063618,6.1970072 42.311614,6.7911419 42.311614,7.5765625 L42.311614,12.5734375 Z M48.749458,12.5734375 L48.749458,7.7085938 C48.749458,7.1973933 48.638113,6.7979181 48.415419,6.5101563 C48.128616,6.1580712 47.614066,5.9820313 46.871754,5.9820313 C46.595073,5.9820313 46.347077,6.010807 46.127758,6.0683594 C45.942179,6.1157554 45.743108,6.20039 45.530536,6.3222656 C45.287597,6.457683 45.115518,6.572786 45.014294,6.6675781 C44.889451,6.7894537 44.786541,6.8893225 44.705561,6.9671875 L46.552898,7.2515625 L46.466858,7.8304688 C46.213797,7.8304688 46.024847,7.894791 45.900004,8.0234375 C45.673936,8.2096363 45.560903,8.4753889 45.560903,8.8207031 L45.560903,12.5734375 L44.366461,12.5734375 L44.366461,8.8207031 C44.366461,8.5261704 44.432256,8.292579 44.563847,8.1199219 C44.722432,7.9235667 44.881015,7.8135418 45.0396,7.7898437 C45.100335,7.7830729 45.13745,7.7559898 45.150946,7.7085938 L43.698383,7.5359375 L43.774301,6.7589844 C43.922763,6.6980466 44.099903,6.5541678 44.305726,6.3273437 C44.582407,6.0226547 44.934156,5.7552095 45.360986,5.525 C45.787816,5.2947905 46.2914,5.1796875 46.871754,5.1796875 C47.576951,5.1796875 48.143799,5.2710928 48.572316,5.4539062 C48.825377,5.5622401 49.053129,5.7128897 49.255578,5.9058594 C49.441156,6.0785165 49.598052,6.2867175 49.726269,6.5304687 C49.817371,6.7065113 49.876418,6.8740877 49.903411,7.0332031 C49.933779,7.219402 49.948962,7.4309884 49.948962,7.6679687 L49.948962,12.5734375 L48.749458,12.5734375 Z M53.623392,7.759375 C53.204997,7.68151 52.789983,7.6341147 52.378337,7.6171875 C52.192759,7.6104166 52.030802,7.6070313 51.892462,7.6070313 C51.490938,7.6070313 51.273309,7.6188801 51.239567,7.6425781 C51.229445,7.5951821 51.224384,7.546094 51.224384,7.4953125 C51.224384,7.0450498 51.371157,6.5897158 51.664708,6.1292969 C52.039239,5.5436169 52.651637,5.2507812 53.501923,5.2507812 C53.738113,5.2507812 54.068775,5.3125645 54.493918,5.4361328 C54.91906,5.5597011 55.232852,5.6214844 55.435301,5.6214844 C55.830076,5.6214844 56.100004,5.4979179 56.245092,5.2507812 L57.130802,5.7128906 C57.083564,5.8415371 56.985715,5.9752597 56.837252,6.1140625 C56.624681,6.3138031 56.386807,6.4272134 56.123623,6.4542969 C55.971787,6.471224 55.868877,6.4796875 55.81489,6.4796875 C55.548333,6.4796875 55.177182,6.4035164 54.701427,6.2511719 C54.27291,6.11914 53.945622,6.053125 53.719554,6.053125 C53.311282,6.053125 52.99243,6.1563792 52.762988,6.3628906 C52.614525,6.4881517 52.494745,6.6709623 52.403643,6.9113281 C52.798418,6.9113281 53.262357,6.9519527 53.795472,7.0332031 C54.416316,7.1313807 54.919056,7.2684887 55.303709,7.4445313 C55.688362,7.6205738 55.949855,7.8355456 56.088195,8.0894531 C56.202916,8.2925791 56.260276,8.5024729 56.260276,8.7191406 L56.260276,11.1769531 C56.260276,11.6001323 56.123625,11.9606756 55.850319,12.2585937 C55.593883,12.5395847 55.259848,12.6800781 54.848202,12.6800781 C54.389317,12.6800781 54.029976,12.5361994 53.770166,12.2484375 C53.557595,12.018228 53.451311,11.7372412 53.451311,11.4054687 C53.451311,11.0466128 53.569404,10.7495454 53.805595,10.5142578 C54.041785,10.2789702 54.338706,10.1613281 54.696366,10.1613281 C54.851576,10.1613281 54.967983,10.1748697 55.045588,10.2019531 L55.045588,8.8207031 C55.045588,8.6006499 54.991603,8.419532 54.88363,8.2773437 C54.714923,8.0539051 54.294847,7.8812506 53.623392,7.759375 Z M54.696366,11.9640625 C54.848202,11.9640625 54.977262,11.90905 55.083547,11.7990234 C55.189833,11.6889968 55.242975,11.5578133 55.242975,11.4054688 C55.242975,11.2531242 55.188989,11.122787 55.081017,11.0144531 C54.973044,10.9061193 54.844828,10.8519531 54.696366,10.8519531 C54.541155,10.8519531 54.408721,10.9052729 54.299062,11.0119141 C54.189402,11.1185552 54.134573,11.2497388 54.134573,11.4054688 C54.134573,11.5611987 54.188558,11.6932286 54.296531,11.8015625 C54.404504,11.9098964 54.537781,11.9640625 54.696366,11.9640625 Z M64.150683,11.578125 C64.073078,11.6830734 64.00897,11.8303376 63.958358,12.0199219 C63.917868,12.1756518 63.897623,12.3652333 63.897623,12.5886719 L62.65763,12.5734375 L62.65763,7.7085938 C62.65763,7.2210913 62.542911,6.8216161 62.313468,6.5101563 C62.046911,6.1580712 61.535735,5.9820313 60.779926,5.9820313 C60.273803,5.9820313 59.828422,6.0886708 59.443769,6.3019531 C59.237946,6.4204433 59.077677,6.5287756 58.962955,6.6269531 C58.881976,6.7048181 58.758821,6.8182284 58.593488,6.9671875 L60.440825,7.2515625 L60.354785,7.8304688 C60.125343,7.8304688 59.931332,7.8981764 59.772747,8.0335938 C59.587169,8.1927091 59.494381,8.4212225 59.494381,8.7191406 L59.494381,10.2019531 C59.588857,10.1748697 59.708638,10.1613281 59.853726,10.1613281 C60.211386,10.1613281 60.50915,10.2798165 60.747028,10.5167969 C60.984905,10.7537772 61.103842,11.0499982 61.103842,11.4054688 C61.103842,11.7372412 60.996715,12.0199207 60.782456,12.2535156 C60.568198,12.4871105 60.295739,12.6191405 59.965073,12.6496094 C59.873971,12.6733074 59.78287,12.6851563 59.691768,12.6851563 C59.28687,12.6851563 58.942712,12.5294286 58.659284,12.2179688 C58.399474,11.9471341 58.269571,11.6001323 58.269571,11.1769531 L58.269571,8.8207031 C58.269571,8.5329413 58.343802,8.2951181 58.492264,8.1072266 C58.640727,7.919335 58.789187,7.8135418 58.937649,7.7898437 C58.988262,7.7830729 59.020316,7.7729167 59.033812,7.759375 L59.064179,7.7085938 L57.606554,7.5359375 L57.692595,6.7589844 C57.814064,6.7115883 57.977708,6.5795584 58.183531,6.3628906 C58.517572,6.014191 58.873539,5.7365896 59.251444,5.5300781 C59.673212,5.2964832 60.182701,5.1796875 60.779926,5.1796875 C61.495245,5.1796875 62.062094,5.2710928 62.480488,5.4539062 C62.983236,5.6739594 63.378006,6.0531223 63.664808,6.5914063 C63.809897,6.8656264 63.88244,7.2244769 63.88244,7.6679688 L63.88244,10.7199219 C64.014032,10.5303376 64.210573,10.3720709 64.472069,10.2451172 C64.733566,10.1181634 65.029643,10.0106775 65.36031,9.9226562 C65.525643,9.8244787 65.608308,9.7263026 65.608308,9.628125 L65.608308,5.3117187 L66.822996,5.3117187 L66.822996,9.5824219 C66.822996,9.7821625 66.774071,9.9277339 66.676221,10.0191406 C66.608738,10.0902347 66.505828,10.1460935 66.367488,10.1867187 L66.494018,10.2222656 C66.642481,10.2832034 66.796002,10.3949211 66.954587,10.5574219 C67.170533,10.7808605 67.278504,11.0381496 67.278504,11.3292969 C67.281878,11.3529949 67.283565,11.3766926 67.283565,11.4003906 L67.283565,11.4664063 C67.283565,11.760939 67.17222,12.0275379 66.949526,12.2662109 C66.726832,12.504884 66.443408,12.6428384 66.099245,12.6800781 C65.62349,12.6800781 65.267522,12.5361994 65.031332,12.2484375 C64.936856,12.1299473 64.866,12.0080735 64.818761,11.8828125 C64.778272,11.7710932 64.751279,11.645834 64.737782,11.5070313 C64.734408,11.4901041 64.732721,11.4647137 64.732721,11.4308594 L64.732721,11.375 C64.732721,11.2429681 64.759714,11.1092455 64.8137,10.9738281 C64.651741,11.0415368 64.518464,11.122786 64.413866,11.2175781 C64.292396,11.3326829 64.20467,11.452864 64.150683,11.578125 Z M66.023327,10.8519531 C65.638674,10.8519531 65.44635,11.049998 65.44635,11.4460937 C65.44635,11.8049497 65.633612,11.984375 66.008143,11.984375 C66.372551,11.984375 66.554752,11.8049497 66.554752,11.4460937 C66.554752,11.049998 66.377612,10.8519531 66.023327,10.8519531 Z M60.400336,11.4054688 C60.400336,11.2497388 60.347194,11.1185552 60.240908,11.0119141 C60.134622,10.9052729 60.005563,10.8519531 59.853726,10.8519531 C59.70189,10.8519531 59.571987,10.9061193 59.464014,11.0144531 C59.356041,11.122787 59.302056,11.2531242 59.302056,11.4054688 C59.302056,11.5578133 59.355198,11.6889968 59.461483,11.7990234 C59.567769,11.90905 59.698515,11.9640625 59.853726,11.9640625 C60.218134,11.9640625 60.400336,11.7778664 60.400336,11.4054688 Z M66.590265,2.1379451 C66.914127,2.347837 67.076056,2.6338837 67.076056,2.9960937 C67.076056,3.3380225 66.963867,3.6198557 66.739486,3.8416016 C66.515105,4.0633475 66.235899,4.1742188 65.901858,4.1742188 C65.557695,4.1742188 65.264148,4.0726573 65.021209,3.8695313 C64.754652,3.6460926 64.621375,3.3566424 64.621375,3.0011719 L64.621375,2.8945312 C64.621375,2.5390607 64.788393,2.2428397 65.122433,2.0058594 C65.361998,1.8365877 65.647109,1.7096358 65.977776,1.625 C66.237585,1.5606768 66.502452,1.4963545 66.772384,1.4320312 C67.069309,1.3406245 67.300435,1.2085946 67.465768,1.0359375 C67.705333,0.7921863 67.838609,0.4468772 67.865603,0 L68.963883,0.2691406 C68.963883,0.5095064 68.926767,0.7295563 68.852536,0.9292969 C68.704074,1.2136733 68.488131,1.4506501 68.204703,1.6402344 C67.941519,1.8128915 67.529879,1.9567703 66.969771,2.071875 C66.775009,2.1142145 66.650511,2.1361878 66.596274,2.1377954 L66.590265,2.1379451 Z M65.841123,2.4679687 C65.49696,2.4679687 65.324881,2.6406233 65.324881,2.9859375 L65.324881,3.0519531 C65.324881,3.4108091 65.49696,3.5902344 65.841123,3.5902344 C66.192035,3.5902344 66.367488,3.4006529 66.367488,3.0214844 C66.367488,2.6524721 66.192035,2.4679687 65.841123,2.4679687 Z M73.766959,12.5734375 L73.766959,7.6425781 C73.766959,7.1212214 73.630308,6.7285169 73.357002,6.4644531 C73.303016,6.4272134 73.218664,6.3696618 73.103942,6.2917969 C73.076949,6.2714843 73.038147,6.2613281 72.987535,6.2613281 C72.953793,6.2613281 72.795211,6.3349602 72.511782,6.4822266 C72.228354,6.6294929 71.976983,6.703125 71.757664,6.703125 C71.561963,6.703125 71.338429,6.632032 71.087055,6.4898438 C70.835681,6.3476555 70.698186,6.2765625 70.674567,6.2765625 C70.610459,6.2765625 70.51261,6.3188798 70.381018,6.4035156 C70.283168,6.4644534 70.200502,6.5389319 70.133019,6.6269531 C69.896829,6.9181004 69.778735,7.3649709 69.778735,7.9675781 C69.778735,8.2993506 69.814163,8.620962 69.885021,8.9324219 L70.077346,9.8160156 C70.225809,10.4761752 70.300039,11.014451 70.300039,11.4308594 C70.438379,11.170181 70.64926,10.8638038 70.932689,10.5117187 L71.565338,9.7246094 C71.305529,9.744922 71.079464,9.6636728 70.887138,9.4808594 C70.62058,9.2303373 70.487303,8.9222675 70.487303,8.5566406 C70.487303,8.1029925 70.67794,7.7509127 71.059218,7.5003906 C71.278538,7.3582024 71.526534,7.2871094 71.803215,7.2871094 L71.889255,7.2871094 C72.071459,7.3141928 72.251973,7.3395832 72.430803,7.3632812 C72.579266,7.4106773 72.726039,7.5460926 72.871127,7.7695312 C73.043209,8.0471368 73.129248,8.3399724 73.129248,8.6480469 C73.129248,8.8951835 72.972353,9.2506487 72.658557,9.7144531 C72.604571,9.7923181 72.317772,10.1630175 71.798153,10.8265625 C71.703677,10.9450527 71.588958,11.102473 71.453992,11.2988281 L71.06428,11.8574219 C70.905695,12.0808605 70.763983,12.31953 70.639139,12.5734375 L69.191636,12.5734375 C69.191636,12.5429686 69.193324,12.4947269 69.196698,12.4287109 C69.200072,12.362695 69.201759,12.3127606 69.201759,12.2789063 C69.201759,11.8354144 69.159583,11.3377632 69.075229,10.7859375 C68.963882,10.3221331 68.808673,9.6213589 68.609599,8.6835937 C68.562361,8.4601551 68.538742,8.2045587 68.538742,7.9167969 C68.538742,7.5240866 68.61972,7.1330749 68.781679,6.74375 C68.957135,6.3273417 69.191635,6.007423 69.485186,5.7839844 C69.930574,5.4488264 70.347275,5.2524742 70.735302,5.1949219 C70.819656,5.1813801 70.987517,5.286327 71.238891,5.5097656 C71.490265,5.7332042 71.691867,5.8449219 71.843704,5.8449219 C72.009037,5.8449219 72.223293,5.7365896 72.486476,5.5199219 C72.74966,5.3032541 72.916678,5.1949219 72.987535,5.1949219 C73.18661,5.1949219 73.407613,5.2524734 73.650552,5.3675781 C73.869871,5.4792974 74.065569,5.6333324 74.237651,5.8296875 C74.507583,6.137762 74.694845,6.4322903 74.799444,6.7132813 C74.910791,7.0145848 74.966463,7.3463524 74.966463,7.7085938 L74.966463,12.5734375 L73.766959,12.5734375 Z M71.23636,8.571875 C71.23636,8.7242195 71.29372,8.8545568 71.408441,8.9628906 C71.523162,9.0712245 71.654752,9.1253906 71.803215,9.1253906 C71.958425,9.1253906 72.090859,9.0720708 72.200519,8.9654297 C72.310178,8.8587885 72.365008,8.7276049 72.365008,8.571875 C72.365008,8.2062482 72.177745,8.0234375 71.803215,8.0234375 C71.651378,8.0234375 71.518945,8.0767573 71.405911,8.1833984 C71.292877,8.2900396 71.23636,8.4195305 71.23636,8.571875 Z M76.00907,2.7625 C76.478077,2.4070295 76.712577,1.9279978 76.712577,1.3253906 L77.917142,1.3253906 C77.917142,1.9821647 77.594915,2.5762994 76.950453,3.1078125 C76.258752,3.6833362 75.513077,3.9710938 74.713403,3.9710938 C73.964342,3.9710938 73.397494,3.876303 73.012841,3.6867187 C72.496596,3.4531238 72.238478,3.0654975 72.238478,2.5238281 C72.238478,2.1818993 72.354884,1.8890637 72.5877,1.6453125 C72.850884,1.4117176 73.15624,1.2949219 73.503777,1.2949219 C73.868185,1.2949219 74.165106,1.393098 74.394548,1.5894531 C74.661106,1.8196626 74.794383,2.1124982 74.794383,2.4679687 C74.794383,2.8065121 74.696534,3.0688793 74.500833,3.2550781 C74.534575,3.2584636 74.563254,3.2601562 74.586873,3.2601562 C75.130111,3.2601562 75.604172,3.0942725 76.00907,2.7625 Z M72.952107,2.5136719 C72.952107,2.6660164 73.006092,2.802278 73.114065,2.9224609 C73.222038,3.0426438 73.35194,3.1027344 73.503777,3.1027344 C73.662362,3.1027344 73.799857,3.0451829 73.916265,2.9300781 C74.032673,2.8149734 74.090876,2.6761727 74.090876,2.5136719 C74.090876,2.3613274 74.030142,2.2267584 73.908673,2.1099609 C73.787204,1.9931635 73.65224,1.9347656 73.503777,1.9347656 C73.355315,1.9347656 73.226255,1.9940098 73.116595,2.1125 C73.006936,2.2309902 72.952107,2.3647128 72.952107,2.5136719 Z M81.647245,11.1769531 C81.647245,11.5865906 81.503845,11.9471339 81.217043,12.2585937 C80.957233,12.5395847 80.628259,12.6800781 80.230109,12.6800781 C80.14913,12.6800781 80.059716,12.669922 79.961866,12.6496094 C79.631199,12.6191405 79.35621,12.4871105 79.13689,12.2535156 C78.917571,12.0199207 78.807912,11.7372412 78.807912,11.4054687 C78.807912,11.0533837 78.931911,10.758009 79.179911,10.5193359 C79.42791,10.2806629 79.727362,10.1613281 80.078273,10.1613281 C80.216613,10.1613281 80.339768,10.1748697 80.447741,10.2019531 L80.447741,7.7746094 C80.447741,7.2058565 80.370136,6.8046887 80.214926,6.5710937 C79.955116,6.1783835 79.5013,5.9820313 78.853463,5.9820313 C78.215749,5.9820313 77.707947,6.1614565 77.330043,6.5203125 C77.087104,6.750522 76.915025,7.0298161 76.813801,7.3582031 L76.150784,6.9316406 C76.319491,6.4576799 76.604602,6.051434 77.006126,5.7128906 C77.427895,5.3574201 78.057164,5.1796875 78.893953,5.1796875 C79.734116,5.1796875 80.408936,5.3845032 80.918432,5.7941406 C81.404309,6.1868509 81.647245,6.7809856 81.647245,7.5765625 L81.647245,11.1769531 Z M80.078273,11.9640625 C80.442681,11.9640625 80.624883,11.7778664 80.624883,11.4054688 C80.624883,11.2497388 80.572584,11.1185552 80.467985,11.0119141 C80.363387,10.9052729 80.233484,10.8519531 80.078273,10.8519531 C79.926436,10.8519531 79.794847,10.9061193 79.6835,11.0144531 C79.572153,11.122787 79.51648,11.2531242 79.51648,11.4054688 C79.51648,11.5578133 79.571309,11.6889968 79.680969,11.7990234 C79.790629,11.90905 79.923062,11.9640625 80.078273,11.9640625 Z M84.749759,5.3117187 L84.749759,10.2019531 C84.844235,10.1748697 84.962328,10.1613281 85.104043,10.1613281 C85.461702,10.1613281 85.76031,10.2798165 85.999875,10.5167969 C86.239439,10.7537772 86.35922,11.0499982 86.35922,11.4054687 C86.35922,11.7440121 86.252936,12.0283843 86.040364,12.2585937 C85.827793,12.4888032 85.554491,12.6191405 85.22045,12.6496094 C85.129348,12.6733074 85.036561,12.6851563 84.942084,12.6851563 C84.547309,12.6851563 84.208212,12.5294286 83.924784,12.2179687 C83.678471,11.9539049 83.555316,11.6069032 83.555316,11.1769531 L83.555316,5.3117187 L84.749759,5.3117187 Z M85.681019,11.4054688 C85.681019,11.2463534 85.624503,11.1143234 85.511469,11.009375 C85.398435,10.9044266 85.262628,10.8519531 85.104043,10.8519531 C84.95558,10.8519531 84.827364,10.9061193 84.719392,11.0144531 C84.611419,11.122787 84.557433,11.2531242 84.557433,11.4054688 C84.557433,11.5578133 84.610575,11.6889968 84.716861,11.7990234 C84.823147,11.90905 84.952206,11.9640625 85.104043,11.9640625 C85.262628,11.9640625 85.398435,11.9098964 85.511469,11.8015625 C85.624503,11.6932286 85.681019,11.5611987 85.681019,11.4054688 Z M88.910064,10.2019531 C89.068649,10.1444008 89.227231,10.115625 89.385816,10.115625 C89.740102,10.115625 90.037866,10.2383451 90.279118,10.4837891 C90.520369,10.729233 90.640993,11.0296857 90.640993,11.3851563 C90.640993,11.6559909 90.553267,11.9166654 90.377811,12.1671875 C90.185484,12.4312513 89.961107,12.5802082 89.704672,12.6140625 C89.495474,12.6377605 89.353762,12.6496094 89.279531,12.6496094 C88.851014,12.6496094 88.479863,12.4904964 88.166067,12.1722656 C87.828653,11.8303368 87.659948,11.1888068 87.659948,10.2476563 C87.659948,9.1981718 87.821904,8.4669291 88.145823,8.0539063 C88.516979,7.5765601 88.999475,7.3378906 89.593325,7.3378906 C89.927366,7.3378906 90.283333,7.4276033 90.661238,7.6070313 C91.079632,7.8101573 91.457531,8.2147105 91.794946,8.8207031 C91.909667,9.0238291 91.997394,9.1829421 92.058129,9.2980469 L92.058129,7.7746094 C92.058129,7.2261691 91.973776,6.8283867 91.805069,6.58125 C91.528389,6.1817688 91.002029,5.9820313 90.225975,5.9820313 C89.551145,5.9820313 89.001167,6.1123685 88.576024,6.3730469 C88.309467,6.5389331 88.061471,6.8080711 87.832028,7.1804687 L87.169011,6.6625 L87.609336,6.1191406 C87.835404,5.8990874 88.076652,5.7230475 88.333087,5.5910156 C88.572652,5.46914 88.866198,5.3675785 89.213735,5.2863281 C89.520783,5.215234 89.868315,5.1796875 90.256342,5.1796875 C91.744342,5.1796875 92.689089,5.6350215 93.090613,6.5457031 C93.222205,6.8503921 93.288,7.1940085 93.288,7.5765625 L93.288,12.5734375 L92.058129,12.5734375 L92.058129,11.9082031 C92.058129,11.2412727 91.864118,10.5117227 91.476091,9.7195312 C90.959846,8.6768177 90.401433,8.1554687 89.800834,8.1554687 C89.406059,8.1554687 89.142879,8.3602844 89.011288,8.7699219 C88.92356,9.0407566 88.879696,9.345441 88.879696,9.6839844 C88.879696,9.9480482 88.889819,10.1207027 88.910064,10.2019531 Z M89.917242,11.3851563 C89.917242,11.2361972 89.865787,11.1058599 89.762875,10.9941406 C89.659964,10.8824213 89.534279,10.8265625 89.385816,10.8265625 C89.230605,10.8265625 89.100703,10.881575 88.996104,10.9916016 C88.891505,11.1016282 88.839207,11.2328117 88.839207,11.3851563 C88.839207,11.5375008 88.892349,11.667838 88.998635,11.7761719 C89.10492,11.8845057 89.233979,11.9386719 89.385816,11.9386719 C89.52753,11.9386719 89.651529,11.8819667 89.757814,11.7685547 C89.8641,11.6551427 89.917242,11.5273445 89.917242,11.3851563 Z M100.64192,5.3117187 L100.64192,11.1769531 C100.64192,11.5527363 100.554194,11.8658842 100.378738,12.1164063 C100.078439,12.4210953 99.683669,12.5734375 99.194418,12.5734375 L95.53011,12.5734375 L95.53011,11.6695313 L96.269045,11.6695313 L96.269045,10.2476563 C96.269045,9.8854149 96.488362,9.4368516 96.927001,8.9019531 C97.288035,8.4618468 97.527596,8.0911473 97.645691,7.7898437 C97.730045,7.5664051 97.772221,7.3243503 97.772221,7.0636719 C97.772221,6.7725246 97.686182,6.5220063 97.5141,6.3121094 C97.328522,6.0785145 97.095709,5.9617187 96.815655,5.9617187 L96.724553,5.9617187 C96.694186,5.9617187 96.665506,5.9600261 96.638513,5.9566406 C96.226867,5.9566406 95.983932,6.0565094 95.9097,6.25625 C96.287605,6.25625 96.55922,6.3882799 96.724553,6.6523437 C96.896635,6.9299493 96.982674,7.183853 96.982674,7.4140625 C96.982674,7.6273448 96.923628,7.8389312 96.805532,8.0488281 C96.677315,8.2756522 96.518732,8.4212236 96.32978,8.4855469 C96.093589,8.5735681 95.894517,8.6175781 95.732558,8.6175781 C95.472749,8.6175781 95.218004,8.5261728 94.968317,8.3433594 C94.708508,8.1470042 94.561735,7.9218763 94.527993,7.6679687 C94.494252,7.474999 94.477381,7.332813 94.477381,7.2414063 C94.477381,6.6320282 94.696698,6.1309915 95.135337,5.7382812 C95.516616,5.392967 96.071655,5.2203125 96.800471,5.2203125 C97.340335,5.2203125 97.797525,5.3692693 98.172056,5.6671875 C98.634314,6.0328143 98.86544,6.5067679 98.86544,7.0890625 C98.86544,7.7661492 98.610695,8.4313769 98.101199,9.0847656 C97.838015,9.423309 97.691242,9.6196612 97.660875,9.6738281 C97.529283,9.8904959 97.463488,10.1223946 97.463488,10.3695313 L97.463488,11.6695313 L98.926174,11.6695313 C99.054392,11.6695313 99.187669,11.6001309 99.326009,11.4613281 C99.383369,11.3529943 99.412049,11.200652 99.412049,11.0042969 L99.412049,5.3117187 L100.64192,5.3117187 Z M95.246683,7.4445313 C95.246683,7.5867195 95.294764,7.7111323 95.390927,7.8177734 C95.487091,7.9244146 95.606028,7.9777344 95.747742,7.9777344 C96.102028,7.9777344 96.279168,7.8000018 96.279168,7.4445313 C96.279168,7.0890607 96.102028,6.9113281 95.747742,6.9113281 C95.609402,6.9113281 95.491308,6.9654943 95.393458,7.0738281 C95.295608,7.182162 95.246683,7.3057285 95.246683,7.4445313 Z M107.859189,6.0226563 C107.997529,6.1716153 108.110561,6.3595041 108.198289,6.5863281 C108.326506,6.9079443 108.390614,7.2380191 108.390614,7.5765625 L108.390614,12.5734375 L107.186049,12.5734375 L107.186049,11.9082031 C107.186049,11.2785125 106.983603,10.5506552 106.578705,9.7246094 C106.062461,8.6785104 105.500673,8.1554687 104.893327,8.1554687 C104.495177,8.1554687 104.223562,8.3772113 104.078474,8.8207031 C104.014365,9.0272146 103.982311,9.2878891 103.982311,9.6027344 C103.982311,9.7855478 103.995807,9.9852854 104.022801,10.2019531 C104.181386,10.1444008 104.33322,10.115625 104.478308,10.115625 C104.832594,10.115625 105.131202,10.2383451 105.37414,10.4837891 C105.617079,10.729233 105.738547,11.0296857 105.738547,11.3851563 C105.738547,11.6559909 105.649133,11.9149727 105.470303,12.1621094 C105.281351,12.4295586 105.05866,12.5802082 104.802225,12.6140625 C104.599776,12.6377605 104.461438,12.6496094 104.387207,12.6496094 C103.948567,12.6496094 103.574043,12.4904964 103.263621,12.1722656 C102.932954,11.8404931 102.767623,11.1989631 102.767623,10.2476563 C102.767623,9.2117136 102.932954,8.4804709 103.263621,8.0539063 C103.624655,7.5765601 104.10209,7.3378906 104.69594,7.3378906 C105.033355,7.3378906 105.389322,7.4276033 105.763853,7.6070313 C106.199118,7.8135427 106.610758,8.2587205 106.998785,8.9425781 C107.042649,9.0204431 107.10507,9.1389315 107.186049,9.2980469 L107.186049,7.7746094 C107.186049,7.2464817 107.094949,6.8486993 106.912745,6.58125 C106.636064,6.1817688 106.111392,5.9820313 105.338712,5.9820313 C104.643637,5.9820313 104.09872,6.1047514 103.703945,6.3501953 C103.30917,6.5956392 103.056112,6.8723943 102.944765,7.1804687 L102.281748,6.6625 L102.717011,6.1191406 C102.953202,5.8923166 103.189389,5.7179694 103.425579,5.5960938 C103.66177,5.4742181 103.95869,5.370964 104.31635,5.2863281 C104.630146,5.215234 104.981052,5.1796875 105.369079,5.1796875 C106.06078,5.1796875 106.622567,5.2727855 107.054458,5.4589844 C107.206295,5.3540359 107.322701,5.2406256 107.403681,5.11875 C107.521776,4.9664055 107.580823,4.7632825 107.580823,4.509375 L108.866367,4.8394531 C108.866367,5.228778 108.648738,5.5622382 108.213472,5.8398437 C108.092003,5.9177087 107.97391,5.9786456 107.859189,6.0226563 Z M105.024918,11.3851563 C105.024918,11.2328117 104.972619,11.1016282 104.868021,10.9916016 C104.763422,10.881575 104.633519,10.8265625 104.478308,10.8265625 C104.33322,10.8265625 104.208378,10.8832677 104.10378,10.9966797 C103.999181,11.1100917 103.946883,11.2395826 103.946883,11.3851563 C103.946883,11.5341153 103.999181,11.6636062 104.10378,11.7736328 C104.208378,11.8836594 104.33322,11.9386719 104.478308,11.9386719 C104.630145,11.9386719 104.759204,11.8845057 104.86549,11.7761719 C104.971776,11.667838 105.024918,11.5375008 105.024918,11.3851563 Z M107.348008,16.16875 L107.348008,15.3816406 C107.300769,15.3985678 107.238349,15.4070312 107.160743,15.4070312 C106.792961,15.4070312 106.506163,15.3003917 106.30034,15.0871094 C106.118136,14.8941397 106.027035,14.6470067 106.027035,14.3457031 C106.027035,13.8751279 106.237916,13.5535165 106.659685,13.3808594 C106.845263,13.3029944 107.042648,13.2640625 107.251845,13.2640625 C107.660117,13.2640625 107.990778,13.4164047 108.24384,13.7210938 C108.446289,13.964845 108.547511,14.3473932 108.547511,14.86875 L108.547511,16.16875 L107.348008,16.16875 Z M107.170866,13.8429687 C106.836825,13.8429687 106.669807,14.0207013 106.669807,14.3761719 C106.669807,14.7248715 106.848634,14.8992187 107.206294,14.8992187 C107.56058,14.8992187 107.73772,14.71133 107.73772,14.3355469 C107.69723,14.0071598 107.508281,13.8429687 107.170866,13.8429687 Z M115.324455,12.5734375 L115.324455,7.6425781 C115.324455,7.141534 115.172621,6.7454442 114.868948,6.4542969 C114.538281,6.1394516 114.030479,5.9820313 113.345527,5.9820313 C112.768548,5.9820313 112.301235,6.1428369 111.943575,6.4644531 C111.538677,6.8334654 111.336232,7.334502 111.336232,7.9675781 C111.336232,8.2993506 111.37166,8.620962 111.442517,8.9324219 L111.634842,9.8160156 C111.783305,10.4761752 111.857535,11.014451 111.857535,11.4308594 C112.103848,11.0076802 112.419326,10.5235704 112.803979,9.9785156 C112.922074,9.8126294 113.028358,9.6653652 113.122834,9.5367188 C112.84278,9.5028644 112.572852,9.3674491 112.313043,9.1304688 C112.134213,8.9679679 112.044799,8.7039081 112.044799,8.3382813 C112.044799,8.1622387 112.073479,8.0031257 112.13084,7.8609375 C112.346785,7.326039 112.763486,7.0585937 113.380955,7.0585937 C113.866833,7.0585937 114.216052,7.2244775 114.428623,7.55625 C114.600705,7.837241 114.686745,8.1317693 114.686745,8.4398438 C114.686745,8.6531261 114.541658,8.9916643 114.251482,9.4554688 C114.011917,9.8041684 113.65595,10.3255174 113.183569,11.0195312 C113.001365,11.2869805 112.741559,11.6898411 112.404144,12.228125 C112.319791,12.3703132 112.250622,12.4854162 112.196635,12.5734375 L110.749133,12.5734375 C110.749133,12.5429686 110.75082,12.4947269 110.754194,12.4287109 C110.757568,12.362695 110.759255,12.3127606 110.759255,12.2789063 C110.759255,11.8354144 110.717079,11.3377632 110.632725,10.7859375 C110.521378,10.3221331 110.36617,9.6213589 110.167095,8.6835937 C110.119857,8.4601551 110.096238,8.2045587 110.096238,7.9167969 C110.096238,7.0501259 110.41509,6.3696639 111.052804,5.8753906 C111.656777,5.4115862 112.426071,5.1796875 113.360711,5.1796875 C114.43369,5.1796875 115.233351,5.4014301 115.759718,5.8449219 C116.269215,6.2748719 116.523959,6.8960897 116.523959,7.7085938 L116.523959,12.5734375 L115.324455,12.5734375 Z M112.793857,8.3636719 C112.793857,8.512631 112.85206,8.6421218 112.968468,8.7521484 C113.084876,8.862175 113.215622,8.9171875 113.360711,8.9171875 C113.512547,8.9171875 113.644137,8.8630214 113.755484,8.7546875 C113.866831,8.6463536 113.922504,8.5160164 113.922504,8.3636719 C113.922504,8.2045565 113.868518,8.0716802 113.760545,7.9650391 C113.652573,7.8583979 113.519296,7.8050781 113.360711,7.8050781 C113.208874,7.8050781 113.076441,7.8600906 112.963407,7.9701172 C112.850373,8.0801438 112.793857,8.2113274 112.793857,8.3636719 Z M119.449332,7.6984375 C119.233386,7.7187501 119.103483,7.7289062 119.05962,7.7289063 C118.718831,7.7289062 118.430345,7.6087252 118.194155,7.3683594 C117.957964,7.1279936 117.839871,6.8368507 117.839871,6.4949219 C117.839871,6.2207018 117.92591,5.9600273 118.097992,5.7128906 C118.28357,5.4420559 118.506261,5.2897137 118.76607,5.2558594 C118.971893,5.2321613 119.113605,5.2203125 119.191211,5.2203125 C119.656843,5.2203125 120.019559,5.3675767 120.279368,5.6621094 C120.522307,5.9431004 120.643774,6.2951802 120.643774,6.7183594 L120.643774,8.3839844 L120.507122,9.4605469 L120.689325,8.8511719 C120.712944,8.7699215 120.822602,8.4804712 121.018303,7.9828125 C121.379337,7.0518183 121.758923,6.3307317 122.157073,5.8195313 C122.342651,5.5825509 122.475928,5.4352867 122.556907,5.3777344 C122.688499,5.2795568 122.867326,5.2304687 123.093394,5.2304687 C123.596142,5.2304687 124.004408,5.4065087 124.318204,5.7585937 C124.615129,6.0937517 124.76359,6.5186172 124.76359,7.0332031 L124.76359,12.5734375 L123.569147,12.5734375 L123.569147,6.9113281 C123.569147,6.5152324 123.392007,6.3222656 123.037721,6.3324219 C122.855517,6.3391927 122.575467,6.7251264 122.197562,7.4902344 C121.944501,8.0014348 121.73362,8.4838519 121.564913,8.9375 C121.227498,9.8414108 120.960944,10.8045522 120.765243,11.8269531 C120.684264,12.2467469 120.643774,12.4955725 120.643774,12.5734375 L119.449332,12.5734375 L119.449332,7.6984375 Z M118.518071,6.4949219 C118.518071,6.6371101 118.5729,6.7640619 118.68256,6.8757812 C118.79222,6.9875006 118.917905,7.0433594 119.05962,7.0433594 C119.211456,7.0433594 119.34389,6.9891933 119.456924,6.8808594 C119.569958,6.7725255 119.626474,6.643881 119.626474,6.4949219 C119.626474,6.3358065 119.571645,6.2020839 119.461985,6.09375 C119.352325,5.9854161 119.218205,5.93125 119.05962,5.93125 C118.911157,5.93125 118.783785,5.9879552 118.677499,6.1013672 C118.571213,6.2147792 118.518071,6.3459628 118.518071,6.4949219 Z M122.668254,2.9707031 C122.614267,2.9808594 122.53835,2.9859375 122.4405,2.9859375 C122.049098,2.9859375 121.758926,2.8589856 121.569974,2.6050781 C121.448504,2.4493482 121.387771,2.2462252 121.387771,1.9957031 C121.387771,1.4811172 121.640828,1.1459643 122.14695,0.9902344 C122.275168,0.9496092 122.405071,0.9292969 122.536662,0.9292969 C122.948309,0.9292969 123.257039,1.0850245 123.462862,1.3964844 C123.645066,1.6639336 123.736166,1.9296862 123.736166,2.19375 C123.736166,2.3156256 123.719296,2.4374994 123.685554,2.559375 C123.604575,2.8505223 123.467924,3.0790356 123.275597,3.2449219 C123.79859,3.1162754 124.188299,2.8979182 124.444734,2.5898437 C124.805768,2.1598937 124.986282,1.7062524 124.986282,1.2289062 L126.135174,1.2289062 C126.135174,2.007556 125.750527,2.6812472 124.981221,3.25 C124.171425,3.8627635 123.142325,4.1691406 121.89389,4.1691406 L121.89389,3.6359375 C122.065972,3.6359375 122.251547,3.5597664 122.450622,3.4074219 C122.595711,3.2618482 122.668254,3.1162768 122.668254,2.9707031 Z M122.450622,1.503125 C122.133452,1.503125 121.97487,1.6656234 121.97487,1.990625 C122.018733,2.3122412 122.195874,2.4730469 122.506295,2.4730469 C122.799846,2.4730469 122.94662,2.3037777 122.94662,1.9652344 C122.94662,1.6571599 122.781289,1.503125 122.450622,1.503125 Z M131.343147,12.5734375 L130.133521,12.5734375 L130.133521,7.7746094 C130.133521,7.2024711 130.055916,6.8013032 129.900705,6.5710937 C129.634148,6.1783835 129.180332,5.9820313 128.539243,5.9820313 C127.891407,5.9820313 127.380231,6.1631492 127.0057,6.5253906 C126.759387,6.7589855 126.595744,7.0365869 126.514764,7.3582031 L125.816319,6.9316406 C125.974904,6.4746071 126.25158,6.0819027 126.646355,5.7535156 C127.105239,5.3709616 127.754753,5.1796875 128.594916,5.1796875 C129.421583,5.1796875 130.089654,5.3845032 130.599151,5.7941406 C131.095151,6.1970072 131.343147,6.7911419 131.343147,7.5765625 L131.343147,12.5734375 Z M137.446952,11.6542969 C137.612285,11.6542969 137.742188,11.5916673 137.836664,11.4664063 C137.917643,11.3614578 137.958133,11.217579 137.958133,11.0347656 L137.958133,5.3117187 L139.17282,5.3117187 L139.17282,11.2226562 C139.17282,11.5882831 139.078345,11.8963529 138.889393,12.146875 C138.673447,12.4312514 138.30061,12.5734375 137.770868,12.5734375 L133.251218,12.5734375 L133.251218,11.6542969 L133.737093,11.6542969 L133.737093,10.4253906 C133.737093,9.9717425 133.833255,9.6111993 134.025582,9.34375 C134.25165,9.0322901 134.530013,8.8494794 134.860679,8.7953125 C134.36468,8.7953125 133.962318,8.647202 133.653584,8.3509766 C133.344849,8.0547511 133.190484,7.6595077 133.190484,7.1652344 C133.190484,6.5423146 133.424984,6.0480487 133.893991,5.6824219 C134.319133,5.3574202 134.853928,5.1949219 135.49839,5.1949219 C135.926907,5.1949219 136.274439,5.3032541 136.540997,5.5199219 C136.824426,5.7569022 136.966138,6.0869771 136.966138,6.5101563 C136.966138,6.9739607 136.802494,7.3108062 136.475202,7.5207031 C136.259256,7.6561205 136.016321,7.7238281 135.746389,7.7238281 C135.152539,7.7238281 134.778014,7.5071636 134.622803,7.0738281 C134.568817,6.9316399 134.541824,6.7894538 134.541824,6.6472656 C134.541824,6.5152337 134.553633,6.420443 134.577252,6.3628906 C134.46928,6.3764324 134.373118,6.466145 134.288764,6.6320313 C134.217907,6.7776049 134.182479,6.9113275 134.182479,7.0332031 C134.182479,7.7475296 134.602554,8.162239 135.442717,8.2773437 C135.719397,8.317969 135.992699,8.3382813 136.262631,8.3382813 L136.794057,8.3382813 L136.794057,9.1660156 L136.232264,9.1660156 C135.844237,9.1660156 135.55069,9.2540356 135.351616,9.4300781 C135.101929,9.6569022 134.977087,9.9734355 134.977087,10.3796875 L134.977087,11.6542969 L137.446952,11.6542969 Z M135.169413,6.5101563 C135.169413,6.6625008 135.225929,6.792838 135.338963,6.9011719 C135.451997,7.0095057 135.582743,7.0636719 135.731205,7.0636719 C135.879668,7.0636719 136.010414,7.0086594 136.123448,6.8986328 C136.236482,6.7886062 136.292998,6.6591153 136.292998,6.5101563 C136.292998,6.1445294 136.105736,5.9617187 135.731205,5.9617187 C135.579369,5.9617187 135.447779,6.0150385 135.336432,6.1216797 C135.225085,6.2283208 135.169413,6.3578117 135.169413,6.5101563 Z" id="path-1"></path>
            </g>
            <path d="M279.872643,15.1767578 L280.752026,15.1767578 C281.304543,15.1682942 281.738958,15.0222996 282.055285,14.7387695 C282.371611,14.4552394 282.529772,14.072268 282.529772,13.5898437 C282.529772,12.506505 281.992025,11.9648437 280.916515,11.9648437 C280.410393,11.9648437 280.006555,12.1097804 279.704991,12.3996582 C279.403426,12.6895359 279.252646,13.0735653 279.252646,13.5517578 L278.082244,13.5517578 C278.082244,12.8196578 278.349009,12.2113468 278.882546,11.7268066 C279.416083,11.2422664 280.094066,11 280.916515,11 C281.785358,11 282.466504,11.2306292 282.959974,11.6918945 C283.453443,12.1531598 283.700174,12.7942667 283.700174,13.6152344 C283.700174,14.0172546 283.570482,14.4065736 283.311094,14.7832031 C283.051707,15.1598326 282.698481,15.4412425 282.251406,15.6274414 C282.757528,15.7882495 283.148713,16.0548484 283.424971,16.4272461 C283.70123,16.7996438 283.839357,17.2545546 283.839357,17.7919922 C283.839357,18.6214234 283.569429,19.2794572 283.029565,19.7661133 C282.489701,20.2527693 281.787467,20.4960937 280.922842,20.4960937 C280.058216,20.4960937 279.354927,20.2612328 278.812955,19.7915039 C278.270982,19.321775 278,18.7018267 278,17.9316406 L279.176728,17.9316406 C279.176728,18.4182967 279.334889,18.8076157 279.651216,19.0996094 C279.967542,19.391603 280.391413,19.5375976 280.922842,19.5375976 C281.488011,19.5375976 281.920318,19.3894871 282.219774,19.0932617 C282.519229,18.7970363 282.668955,18.3717475 282.668955,17.8173828 C282.668955,17.2799452 282.504468,16.8673517 282.175488,16.5795898 C281.846509,16.291828 281.372026,16.1437175 280.752026,16.1352539 L279.872643,16.1352539 L279.872643,15.1767578 Z" id="path-2" fill="#2A3052" fill-rule="nonzero"></path>
            <path d="M272,17.8300781 C272,17.6425772 272.055478,17.4863287 272.166436,17.3613281 C272.277393,17.2363275 272.443827,17.1738281 272.665742,17.1738281 C272.887657,17.1738281 273.056038,17.2363275 273.170889,17.3613281 C273.28574,17.4863287 273.343164,17.6425772 273.343164,17.8300781 C273.343164,18.0097665 273.28574,18.1601556 273.170889,18.28125 C273.056038,18.4023444 272.887657,18.4628906 272.665742,18.4628906 C272.443827,18.4628906 272.277393,18.4023444 272.166436,18.28125 C272.055478,18.1601556 272,18.0097665 272,17.8300781 Z M272.00584,12.65625 C272.00584,12.4687491 272.061318,12.3125006 272.172275,12.1875 C272.283233,12.0624994 272.449667,12 272.671582,12 C272.893497,12 273.061878,12.0624994 273.176729,12.1875 C273.291579,12.3125006 273.349004,12.4687491 273.349004,12.65625 C273.349004,12.8359384 273.291579,12.9863275 273.176729,13.1074219 C273.061878,13.2285162 272.893497,13.2890625 272.671582,13.2890625 C272.449667,13.2890625 272.283233,13.2285162 272.172275,13.1074219 C272.061318,12.9863275 272.00584,12.8359384 272.00584,12.65625 Z" id="path-3" fill="#000000" fill-rule="nonzero"></path>
            <path d="M139.234375,159 L139.234375,163.851562 C139.234375,164.440107 139.096356,164.921873 138.820312,165.296875 C138.393227,165.765627 137.794275,166 137.023438,166 L130.945312,166 L130.945312,164.609375 L132.078125,164.609375 L132.078125,162.421875 C132.078125,161.874997 132.414059,161.197921 133.085938,160.390625 C133.664065,159.703122 134.04427,159.119794 134.226562,158.640625 C134.356771,158.312498 134.421875,157.940106 134.421875,157.523438 C134.421875,157.03906 134.272137,156.634116 133.972656,156.308594 C133.673176,155.983071 133.286461,155.820312 132.8125,155.820312 L132.6875,155.820312 C132.02083,155.820312 131.635417,155.973957 131.53125,156.28125 C132.093753,156.28125 132.536457,156.526039 132.859375,157.015625 C133.093751,157.375002 133.210938,157.734373 133.210938,158.09375 C133.210938,158.447918 133.109376,158.778644 132.90625,159.085938 C132.703124,159.414064 132.437502,159.635416 132.109375,159.75 C131.80729,159.859376 131.531251,159.914062 131.28125,159.914062 C130.86979,159.914062 130.468752,159.763022 130.078125,159.460938 C129.687498,159.158853 129.460938,158.812502 129.398438,158.421875 C129.346354,158.098957 129.320312,157.867188 129.320312,157.726562 C129.320312,156.84635 129.661455,156.098961 130.34375,155.484375 C130.921878,154.953122 131.773432,154.6875 132.898438,154.6875 C134.289069,154.6875 135.25781,155.231765 135.804688,156.320312 C135.992188,156.700523 136.085938,157.114581 136.085938,157.5625 C136.085938,158.625005 135.669275,159.690099 134.835938,160.757812 C134.492186,161.195315 134.283855,161.476562 134.210938,161.601562 C134.039062,161.903647 133.953125,162.239581 133.953125,162.609375 L133.953125,164.609375 L136.585938,164.609375 C136.804689,164.609375 137.01302,164.502605 137.210938,164.289062 C137.33073,164.132812 137.390625,163.898439 137.390625,163.585938 L137.390625,159.015625 C137.390625,158.765624 137.367188,158.565105 137.320312,158.414062 C137.320312,158.111978 137.23698,157.843751 137.070312,157.609375 C136.893228,157.30729 136.627606,157.15625 136.273438,157.15625 L136.046875,156.351562 C136.343751,156.325521 136.664061,156.229167 137.007812,156.0625 C137.096355,156.026041 137.221353,155.963542 137.382812,155.875 C137.471355,155.8125 137.585937,155.708334 137.726562,155.5625 C138.075523,155.197915 138.25,154.747399 138.25,154.210938 L140.398438,154.210938 C140.388021,154.398438 140.341146,154.69531 140.257812,155.101562 C140.122395,155.502606 139.923178,155.820311 139.660156,156.054688 C139.397134,156.289064 139.096356,156.458333 138.757812,156.5625 C138.622395,156.614584 138.471355,156.658854 138.304688,156.695312 L137.828125,156.789062 C137.979167,156.789062 138.18229,156.88802 138.4375,157.085938 C138.609376,157.190105 138.747395,157.320312 138.851562,157.476562 C139.033855,157.70573 139.140625,157.96354 139.171875,158.25 C139.203125,158.364584 139.221354,158.510416 139.226562,158.6875 L139.234375,159 Z M130.53125,158.109375 C130.53125,158.333334 130.60677,158.526041 130.757812,158.6875 C130.908855,158.848959 131.098957,158.929688 131.328125,158.929688 C131.546876,158.929688 131.736978,158.847657 131.898438,158.683594 C132.059897,158.51953 132.140625,158.328126 132.140625,158.109375 C132.140625,157.890624 132.059897,157.69922 131.898438,157.535156 C131.736978,157.371093 131.546876,157.289062 131.328125,157.289062 C131.098957,157.289062 130.908855,157.369791 130.757812,157.53125 C130.60677,157.692709 130.53125,157.885416 130.53125,158.109375 Z M143.65625,158.5 C143.437499,158.53125 143.247397,158.546875 143.085938,158.546875 C142.554685,158.546875 142.100262,158.361981 141.722656,157.992188 C141.34505,157.622394 141.15625,157.174482 141.15625,156.648438 C141.15625,156.22656 141.294269,155.822919 141.570312,155.4375 C141.861981,155.02604 142.21354,154.794271 142.625,154.742188 C142.947918,154.705729 143.16927,154.6875 143.289062,154.6875 C143.997399,154.6875 144.554685,154.91406 144.960938,155.367188 C145.341148,155.799481 145.53125,156.341143 145.53125,156.992188 L145.53125,163.71875 C145.796876,163.244789 146.179685,162.864585 146.679688,162.578125 C147.11719,162.33854 147.489582,162.171875 147.796875,162.078125 C148.031251,162.020833 148.359373,161.937501 148.78125,161.828125 C149.302086,161.692708 149.5625,161.479168 149.5625,161.1875 L149.5625,154.828125 L151.460938,154.828125 L151.460938,161.398438 C151.460938,161.710939 151.33073,161.937499 151.070312,162.078125 C150.924478,162.15625 150.718751,162.239583 150.453125,162.328125 C150.807293,162.427084 151.10677,162.60677 151.351562,162.867188 C151.710939,163.257814 151.890625,163.66406 151.890625,164.085938 C151.890625,164.658857 151.729168,165.130206 151.40625,165.5 C151.067707,165.885419 150.614586,166.106771 150.046875,166.164062 C149.328121,166.164062 148.781252,165.942711 148.40625,165.5 C148.140624,165.187498 147.979167,164.807294 147.921875,164.359375 C147.921875,163.687497 148.015624,163.307292 148.203125,163.21875 C147.677081,163.21875 147.111982,163.557288 146.507812,164.234375 C146.10156,164.687502 145.776043,165.276038 145.53125,166 L143.65625,166 L143.65625,158.5 Z M142.25,156.648438 C142.25,156.867189 142.334635,157.062499 142.503906,157.234375 C142.673178,157.406251 142.867186,157.492188 143.085938,157.492188 C143.320314,157.492188 143.524739,157.408855 143.699219,157.242188 C143.873699,157.07552 143.960938,156.877605 143.960938,156.648438 C143.960938,156.403645 143.876303,156.197917 143.707031,156.03125 C143.53776,155.864583 143.33073,155.78125 143.085938,155.78125 C142.85677,155.78125 142.660157,155.868489 142.496094,156.042969 C142.33203,156.217449 142.25,156.41927 142.25,156.648438 Z M149.929688,163.351562 C149.335935,163.351562 149.039062,163.656247 149.039062,164.265625 C149.039062,164.817711 149.328122,165.09375 149.90625,165.09375 C150.145835,165.09375 150.35026,165.014324 150.519531,164.855469 C150.688803,164.696614 150.773438,164.500001 150.773438,164.265625 C150.773438,163.656247 150.49219,163.351562 149.929688,163.351562 Z M159.765625,156.828125 C159.911459,156.40104 159.984375,156.039064 159.984375,155.742188 L161.578125,156.03125 C161.401041,157.161464 160.799484,158.08333 159.773438,158.796875 C159.179685,159.203127 158.294277,159.40625 157.117188,159.40625 C155.58593,159.40625 154.536461,158.973963 153.96875,158.109375 C153.786457,157.843749 153.695312,157.531252 153.695312,157.171875 C153.695312,156.703123 153.867186,156.270835 154.210938,155.875 C154.539064,155.614582 154.929685,155.447917 155.382812,155.375 C155.971357,155.375 156.447915,155.536457 156.8125,155.859375 C157.135418,156.213543 157.296875,156.651039 157.296875,157.171875 C157.296875,157.718753 157.028649,158.122395 156.492188,158.382812 C156.721355,158.450521 156.955728,158.484375 157.195312,158.484375 C157.544273,158.484375 157.882811,158.427084 158.210938,158.3125 C158.986983,158.05729 159.505207,157.562504 159.765625,156.828125 Z M159.765625,162.78125 C159.911459,162.364581 159.984375,162.010418 159.984375,161.71875 L161.578125,161.984375 C161.401041,163.109381 160.802088,164.028642 159.78125,164.742188 C159.192705,165.153648 158.304693,165.359375 157.117188,165.359375 C155.580721,165.359375 154.533857,164.9349 153.976562,164.085938 C153.789062,163.804686 153.695312,163.492189 153.695312,163.148438 C153.695312,162.63281 153.86979,162.207033 154.21875,161.871094 C154.56771,161.535155 154.955727,161.367188 155.382812,161.367188 C155.434896,161.361979 155.507812,161.359375 155.601562,161.359375 C156.091148,161.359375 156.496092,161.516926 156.816406,161.832031 C157.13672,162.147137 157.296875,162.585935 157.296875,163.148438 C157.296875,163.658857 157.028649,164.062499 156.492188,164.359375 C156.700522,164.416667 156.921874,164.445312 157.15625,164.445312 C158.510423,164.445312 159.380206,163.890631 159.765625,162.78125 Z M154.648438,157.085938 C154.648438,157.315105 154.727864,157.51302 154.886719,157.679688 C155.045574,157.846355 155.239582,157.929688 155.46875,157.929688 C155.713543,157.929688 155.920572,157.850261 156.089844,157.691406 C156.259115,157.532551 156.34375,157.33073 156.34375,157.085938 C156.34375,156.851561 156.256511,156.656251 156.082031,156.5 C155.907551,156.343749 155.703126,156.265625 155.46875,156.265625 C155.249999,156.265625 155.058595,156.347655 154.894531,156.511719 C154.730468,156.675782 154.648438,156.867186 154.648438,157.085938 Z M154.648438,163.0625 C154.648438,163.286459 154.729166,163.479166 154.890625,163.640625 C155.052084,163.802084 155.244791,163.882812 155.46875,163.882812 C156.052086,163.882812 156.34375,163.609378 156.34375,163.0625 C156.34375,162.822915 156.257813,162.622397 156.085938,162.460938 C155.914062,162.299478 155.708335,162.21875 155.46875,162.21875 C155.249999,162.21875 155.058595,162.304687 154.894531,162.476562 C154.730468,162.648438 154.648438,162.843749 154.648438,163.0625 Z M165.78125,166 L163.960938,166 L163.960938,164.179688 L165.78125,164.179688 L165.78125,166 Z M165.625,162.210938 L164.132812,162.210938 L163.648438,150.84375 L166.070312,150.84375 L165.625,162.210938 Z" id="!" fill="#FFFFFF" fill-rule="nonzero"></path>
            <path d="M18.8730469,16.40625 C18.8730469,16.4960942 18.8935545,16.5781246 18.9345703,16.6523438 C18.9755861,16.7265629 19.0263669,16.7910154 19.0869141,16.8457031 C19.1474612,16.9003909 19.2158199,16.9433592 19.2919922,16.9746094 C19.3681644,17.0058595 19.4414059,17.0214844 19.5117188,17.0214844 C19.5976567,17.0214844 19.6787106,17.0058595 19.7548828,16.9746094 C19.8310551,16.9433592 19.8974607,16.9003909 19.9541016,16.8457031 C20.0107425,16.7910154 20.0556639,16.7265629 20.0888672,16.6523438 C20.1220705,16.5781246 20.1386719,16.4960942 20.1386719,16.40625 C20.1386719,16.0078105 19.9296896,15.8085938 19.5117188,15.8085938 C19.4257808,15.8085938 19.3447269,15.8251951 19.2685547,15.8583984 C19.1923824,15.8916017 19.1250003,15.9355466 19.0664062,15.9902344 C19.0078122,16.0449221 18.9609377,16.1083981 18.9257812,16.1806641 C18.8906248,16.25293 18.8730469,16.3281246 18.8730469,16.40625 Z M21.4335938,21 L21.4335938,15.3984375 C21.4335938,15.1523425 21.400391,14.9335947 21.3339844,14.7421875 C21.2675778,14.5507803 21.1738287,14.3945319 21.0527344,14.2734375 L20.9882812,14.2265625 L20.8125,14.109375 L20.8066406,14.109375 C20.8105469,14.109375 20.775391,14.1298826 20.7011719,14.1708984 C20.6269528,14.2119143 20.5214851,14.2656247 20.3847656,14.3320312 C20.2207023,14.4179692 20.0595711,14.4833982 19.9013672,14.5283203 C19.7431633,14.5732424 19.5957038,14.5957031 19.4589844,14.5957031 C19.2011706,14.5957031 18.9179703,14.5078134 18.609375,14.3320312 C18.3789051,14.2031244 18.2636719,14.1347657 18.2636719,14.1269531 C18.2324217,14.1347657 18.1660161,14.1699216 18.0644531,14.2324219 C17.9746089,14.2910159 17.902344,14.3554684 17.8476562,14.4257812 C17.6249989,14.7070327 17.5136719,15.1484345 17.5136719,15.75 C17.5136719,15.9257821 17.5224608,16.0976554 17.5400391,16.265625 C17.5576173,16.4335946 17.5859373,16.5976554 17.625,16.7578125 L17.8359375,17.7246094 L17.8359375,17.71875 C17.8828127,17.9296886 17.9238279,18.1269522 17.9589844,18.3105469 C17.9941408,18.4941415 18.0214843,18.669921 18.0410156,18.8378906 C18.0957034,18.7636715 18.1494138,18.69043 18.2021484,18.6181641 C18.2548831,18.5458981 18.3144528,18.4707035 18.3808594,18.3925781 L18.8203125,17.8476562 C18.7304683,17.8203124 18.6484379,17.7832034 18.5742188,17.7363281 C18.4999996,17.6894529 18.4257816,17.6328128 18.3515625,17.5664062 L18.3574219,17.5664062 C18.0175764,17.2539047 17.8476562,16.8632836 17.8476562,16.3945312 C17.8476562,15.8203096 18.0878882,15.3750016 18.5683594,15.0585938 C18.8457045,14.8789054 19.1582014,14.7890625 19.5058594,14.7890625 L19.6347656,14.7890625 L20.2207031,14.8710938 C20.4589856,14.9414066 20.6718741,15.1249985 20.859375,15.421875 C21.0742198,15.769533 21.1816406,16.1269513 21.1816406,16.4941406 C21.1816406,16.818361 20.9941425,17.2499973 20.6191406,17.7890625 C20.5878905,17.8320315 20.4941414,17.9550771 20.3378906,18.1582031 C20.1816398,18.3613291 19.9609389,18.6445294 19.6757812,19.0078125 C19.6328123,19.0625003 19.5800784,19.1328121 19.5175781,19.21875 C19.4550778,19.3046879 19.384766,19.4042963 19.3066406,19.5175781 L18.8789062,20.1269531 C18.7187492,20.357423 18.548829,20.6484357 18.3691406,21 L16.4238281,21 L16.4238281,20.9326172 C16.4238281,20.8955076 16.4248047,20.855469 16.4267578,20.8125 C16.4287109,20.769531 16.4296875,20.7285158 16.4296875,20.6894531 L16.4296875,20.6074219 C16.4335938,20.5722654 16.4355469,20.5429689 16.4355469,20.5195312 L16.4355469,20.4550781 C16.4355469,20.2246082 16.4248048,19.9775404 16.4033203,19.7138672 C16.3818358,19.450194 16.3476565,19.1660171 16.3007812,18.8613281 L16.3066406,18.8789062 C16.2441403,18.6249987 16.1699223,18.3066425 16.0839844,17.9238281 C15.9980464,17.5410137 15.9023443,17.0917995 15.796875,16.5761719 C15.738281,16.3183581 15.7089844,16.0253923 15.7089844,15.6972656 C15.7089844,15.2402321 15.8046865,14.7851585 15.9960938,14.3320312 C16.2070323,13.8437476 16.4863264,13.462892 16.8339844,13.1894531 C17.0957044,12.9941396 17.3486316,12.8388678 17.5927734,12.7236328 C17.8369153,12.6083979 18.0742176,12.5351564 18.3046875,12.5039062 L18.2988281,12.5097656 C18.4667977,12.4824217 18.712889,12.6132798 19.0371094,12.9023438 L19.03125,12.9023438 C19.2734387,13.109376 19.4472651,13.2128906 19.5527344,13.2128906 C19.6855475,13.2128906 19.8730457,13.1113291 20.1152344,12.9082031 C20.443361,12.6386705 20.6738275,12.5039062 20.8066406,12.5039062 C20.9316412,12.5039062 21.0624993,12.5205076 21.1992188,12.5537109 C21.3359382,12.5869142 21.4785149,12.6406246 21.6269531,12.7148438 C21.7597663,12.7851566 21.8857416,12.8662105 22.0048828,12.9580078 C22.124024,13.0498051 22.2363276,13.1562494 22.3417969,13.2773438 C22.4980477,13.4531259 22.6289057,13.6269523 22.734375,13.7988281 C22.8398443,13.970704 22.9257809,14.1386711 22.9921875,14.3027344 C23.1250007,14.6542986 23.1914062,15.0429666 23.1914062,15.46875 L23.1914062,21 L21.4335938,21 Z M21.8027344,7.74609375 L23.3554688,7.74609375 L23.3554688,10.5644531 L21.8027344,10.5644531 L21.8027344,7.74609375 Z M30.9375,21 L29.1679688,21 L29.1679688,15.5390625 C29.1679688,14.9570283 29.0957038,14.562501 28.9511719,14.3554688 C28.7011706,13.9882794 28.2656281,13.8046875 27.6445312,13.8046875 C26.9921842,13.8046875 26.4824237,13.9824201 26.1152344,14.3378906 C25.8808582,14.560548 25.6992194,14.9238256 25.5703125,15.4277344 L24.3984375,14.7128906 C24.507813,14.384764 24.6484366,14.0937513 24.8203125,13.8398438 C24.9921884,13.5859362 25.1953113,13.3613291 25.4296875,13.1660156 C25.972659,12.7128884 26.7304639,12.4863281 27.703125,12.4863281 C28.660161,12.4863281 29.437497,12.7265601 30.0351562,13.2070312 C30.6367218,13.6875024 30.9375,14.3945266 30.9375,15.328125 L30.9375,21 Z M35.4257812,17.8359375 C35.5156254,17.9414068 35.61914,18.0644524 35.7363281,18.2050781 C35.8535162,18.3457038 35.9824212,18.5078116 36.1230469,18.6914062 L36.1230469,15.703125 C36.0761716,15.7070313 36.0400392,15.7099609 36.0146484,15.7119141 C35.9892577,15.7138672 35.9687501,15.7148438 35.953125,15.7148438 C35.503904,15.7148438 35.1250015,15.5664077 34.8164062,15.2695312 C34.4999984,14.9648422 34.3417969,14.589846 34.3417969,14.1445312 C34.3417969,13.7890607 34.4570301,13.4589859 34.6875,13.1542969 L34.6816406,13.1601562 C34.802735,12.9843741 34.9374993,12.8486333 35.0859375,12.7529297 C35.2343757,12.6572261 35.3984366,12.5957033 35.578125,12.5683594 C35.8046886,12.5449218 35.9726557,12.5332031 36.0820312,12.5332031 C36.6445341,12.5332031 37.0898421,12.7207012 37.4179688,13.0957031 C37.726564,13.4511737 37.8808594,13.88281 37.8808594,14.390625 L37.8808594,21 L35.8300781,21 C35.8183593,20.9765624 35.8017579,20.9443361 35.7802734,20.9033203 C35.758789,20.8623045 35.7343751,20.8173831 35.7070312,20.7685547 C35.6796874,20.7197263 35.6503908,20.6669925 35.6191406,20.6103516 C35.5878905,20.5537107 35.5585939,20.5000003 35.53125,20.4492188 C35.5117187,20.4140623 35.4667972,20.342774 35.3964844,20.2353516 C35.3261715,20.1279292 35.2285162,19.9843759 35.1035156,19.8046875 C35.0566404,19.7265621 34.9960941,19.6308599 34.921875,19.5175781 C34.8476559,19.4042963 34.7558599,19.2675789 34.6464844,19.1074219 C34.5136712,18.9277335 34.3574228,18.7304698 34.1777344,18.515625 C33.998046,18.3007802 33.8164072,18.093751 33.6328125,17.8945312 L33.1347656,17.4023438 L33.1113281,17.3730469 L33.1113281,17.3789062 C32.8066391,17.085936 32.6054692,16.9121096 32.5078125,16.8574219 L32.0273438,16.5644531 L32.578125,15.6855469 C32.9023454,15.6855469 33.5214798,16.0898397 34.4355469,16.8984375 C34.5957039,17.0390632 34.7597648,17.1884758 34.9277344,17.3466797 C35.095704,17.5048836 35.2617179,17.6679679 35.4257812,17.8359375 Z M35.34375,14.1503906 C35.34375,14.2324223 35.3603514,14.3076168 35.3935547,14.3759766 C35.426758,14.4443363 35.4707029,14.5048825 35.5253906,14.5576172 C35.5800784,14.6103518 35.6455074,14.651367 35.7216797,14.6806641 C35.7978519,14.7099611 35.8769527,14.7246094 35.9589844,14.7246094 C36.0332035,14.7246094 36.1054684,14.7070314 36.1757812,14.671875 C36.2460941,14.6367186 36.3085935,14.5917971 36.3632812,14.5371094 C36.417969,14.4824216 36.4609373,14.4208988 36.4921875,14.3525391 C36.5234377,14.2841793 36.5390625,14.2167972 36.5390625,14.1503906 C36.5390625,14.0722652 36.5224611,13.9970707 36.4892578,13.9248047 C36.4560545,13.8525387 36.4121096,13.7880862 36.3574219,13.7314453 C36.3027341,13.6748044 36.2402347,13.6289064 36.1699219,13.59375 C36.099609,13.5585936 36.0292972,13.5410156 35.9589844,13.5410156 C35.7871085,13.5410156 35.6416022,13.5986322 35.5224609,13.7138672 C35.4033197,13.8291021 35.34375,13.9746085 35.34375,14.1503906 Z M45.1230469,21 L45.1230469,15.46875 C45.1230469,14.960935 45.0156261,14.5703139 44.8007812,14.296875 L44.8066406,14.3027344 C44.5332018,13.9707015 44.0273474,13.8046875 43.2890625,13.8046875 C43.1484368,13.8046875 43.0146491,13.8124999 42.8876953,13.828125 C42.7607416,13.8437501 42.6406256,13.8652342 42.5273438,13.8925781 C42.4374996,13.9160157 42.3417974,13.948242 42.2402344,13.9892578 C42.1386714,14.0302736 42.0351568,14.083984 41.9296875,14.1503906 C41.820312,14.2167972 41.7187505,14.2802731 41.625,14.3408203 C41.5312495,14.4013675 41.4609377,14.4531248 41.4140625,14.4960938 L41.4023438,14.5078125 C41.6992202,14.5507815 42.0039047,14.597656 42.3164062,14.6484375 C42.6289078,14.699219 42.9199205,14.7441404 43.1894531,14.7832031 L43.0429688,15.8261719 C42.6953108,15.8261719 42.4687505,15.8789057 42.3632812,15.984375 C42.171874,16.1406258 42.0761719,16.3730453 42.0761719,16.6816406 L42.0761719,21 L40.3242188,21 L40.3242188,16.6816406 C40.3242188,16.3144513 40.4121085,16.0156262 40.5878906,15.7851562 C40.6425784,15.7187497 40.6933591,15.6640627 40.7402344,15.6210938 L39.5742188,15.4746094 L39.6855469,14.2792969 C39.904298,14.1894527 40.1132803,14.0332042 40.3125,13.8105469 C40.6367204,13.4589826 41.0410132,13.1523451 41.5253906,12.890625 C41.7832044,12.7578118 42.0576157,12.6572269 42.3486328,12.5888672 C42.6396499,12.5205075 42.9531233,12.4863281 43.2890625,12.4863281 C44.0898478,12.4863281 44.7402319,12.5917958 45.2402344,12.8027344 L45.234375,12.8027344 C45.3867195,12.869141 45.5312493,12.9472652 45.6679688,13.0371094 C45.8046882,13.1269536 45.9335931,13.2285151 46.0546875,13.3417969 L46.0488281,13.3417969 C46.2714855,13.5488292 46.4589836,13.7968736 46.6113281,14.0859375 C46.6660159,14.195313 46.7119139,14.3007807 46.7490234,14.4023438 C46.786133,14.5039068 46.8124999,14.6035151 46.828125,14.7011719 C46.8632814,14.9238292 46.8808594,15.1660143 46.8808594,15.4277344 L46.8808594,21 L45.1230469,21 Z M44.8535156,9.26953125 C44.8535156,9.35546918 44.8710936,9.43945271 44.90625,9.52148438 C44.9414064,9.60351604 44.988281,9.68164025 45.046875,9.75585938 L45.046875,9.75 C45.1640631,9.87500062 45.3027336,9.9375 45.4628906,9.9375 C45.5605474,9.9375 45.6513668,9.9189455 45.7353516,9.88183594 C45.8193364,9.84472638 45.8906247,9.79492219 45.9492188,9.73242188 C46.0078128,9.66992156 46.0537108,9.59863321 46.0869141,9.51855469 C46.1201174,9.43847616 46.1367188,9.35546918 46.1367188,9.26953125 C46.1367188,9.18359332 46.1152346,9.10156289 46.0722656,9.0234375 C46.0292967,8.94531211 45.9755863,8.87597687 45.9111328,8.81542969 C45.8466794,8.75488251 45.7744145,8.70703143 45.6943359,8.671875 C45.6142574,8.63671857 45.5371097,8.61914062 45.4628906,8.61914062 C45.380859,8.61914062 45.3037113,8.63867168 45.2314453,8.67773438 C45.1591793,8.71679707 45.0947268,8.76757781 45.0380859,8.83007812 C44.981445,8.89257844 44.9365236,8.96289023 44.9033203,9.04101562 C44.870117,9.11914102 44.8535156,9.19531213 44.8535156,9.26953125 Z M48.0820312,9.375 C48.5039084,9.03124828 48.7148438,8.49023807 48.7148438,7.75195312 L50.53125,7.75195312 C50.53125,8.72461424 50.1503944,9.52343438 49.3886719,10.1484375 C48.5956992,10.8085971 47.7324265,11.1386719 46.7988281,11.1386719 C45.9433551,11.1386719 45.2910179,11.029298 44.8417969,10.8105469 L44.8476562,10.8105469 C44.1601528,10.478514 43.8164062,9.96875344 43.8164062,9.28125 C43.8164062,8.83593527 43.9863264,8.46093902 44.3261719,8.15625 C44.6425797,7.86718605 45.0253884,7.72265625 45.4746094,7.72265625 C45.9355492,7.72265625 46.320311,7.85156121 46.6289062,8.109375 L46.6289062,8.10351562 C46.8125009,8.24414133 46.9482417,8.40820219 47.0361328,8.59570312 C47.1240239,8.78320406 47.1679688,8.99218635 47.1679688,9.22265625 C47.1679688,9.46484496 47.1308597,9.67187414 47.0566406,9.84375 C47.4277362,9.78515596 47.7695297,9.62890752 48.0820312,9.375 Z M49.3476562,14.1503906 C49.3476562,14.2324223 49.3662108,14.3115231 49.4033203,14.3876953 C49.4404299,14.4638676 49.488281,14.5312497 49.546875,14.5898438 C49.605469,14.6484378 49.6728512,14.6953123 49.7490234,14.7304688 C49.8251957,14.7656252 49.9042965,14.7832031 49.9863281,14.7832031 C50.0761723,14.7832031 50.162109,14.7646486 50.2441406,14.7275391 C50.3261723,14.6904295 50.3974606,14.6425784 50.4580078,14.5839844 C50.518555,14.5253903 50.5673826,14.4580082 50.6044922,14.3818359 C50.6416017,14.3056637 50.6601562,14.228516 50.6601562,14.1503906 C50.6601562,14.0566402 50.6425783,13.9687504 50.6074219,13.8867188 C50.5722654,13.8046871 50.5244144,13.7333987 50.4638672,13.6728516 C50.40332,13.6123044 50.3320317,13.5654299 50.25,13.5322266 C50.1679683,13.4990233 50.0800786,13.4824219 49.9863281,13.4824219 C49.9082027,13.4824219 49.8310551,13.4999998 49.7548828,13.5351562 C49.6787106,13.5703127 49.6103519,13.6191403 49.5498047,13.6816406 C49.4892575,13.7441409 49.4404299,13.8154293 49.4033203,13.8955078 C49.3662108,13.9755863 49.3476562,14.0605464 49.3476562,14.1503906 Z M50.1738281,15.7089844 C50.142578,15.7128906 50.1123048,15.7148438 50.0830078,15.7148438 L49.9921875,15.7148438 C49.5585916,15.7148438 49.1835953,15.5625015 48.8671875,15.2578125 C48.5546859,14.9531235 48.3984375,14.5820334 48.3984375,14.1445312 C48.3984375,13.8984363 48.4462886,13.6757822 48.5419922,13.4765625 C48.6376958,13.2773428 48.7656242,13.1074226 48.9257812,12.9667969 C49.0859383,12.8261712 49.2705068,12.7187504 49.4794922,12.6445312 C49.6884776,12.5703121 49.9062489,12.5332031 50.1328125,12.5332031 C50.7031279,12.5332031 51.1542952,12.716795 51.4863281,13.0839844 C51.7949234,13.4277361 51.9492188,13.8632786 51.9492188,14.390625 L51.9492188,18.5097656 C52.0195316,18.4394528 52.0937496,18.3769534 52.171875,18.3222656 C52.2500004,18.2675779 52.335937,18.2128909 52.4296875,18.1582031 C52.5664069,18.083984 52.7001947,18.018555 52.8310547,17.9619141 C52.9619147,17.9052732 53.0917962,17.855469 53.2207031,17.8125 C53.34961,17.769531 53.478515,17.7314455 53.6074219,17.6982422 C53.7363288,17.6650389 53.8652337,17.6328127 53.9941406,17.6015625 C54.2402356,17.5351559 54.3632812,17.4570317 54.3632812,17.3671875 L54.3632812,12.6328125 L56.1503906,12.6328125 L56.1503906,17.5136719 C56.1503906,17.8222672 56.0195326,18.0468743 55.7578125,18.1875 C55.8046877,18.2226564 55.8496092,18.2578123 55.8925781,18.2929688 C55.9355471,18.3281252 55.9765623,18.3652342 56.015625,18.4042969 C56.3085952,18.7285172 56.4550781,19.0664045 56.4550781,19.4179688 C56.4550781,19.8828148 56.322267,20.2656235 56.0566406,20.5664062 C55.7792955,20.8867204 55.4101586,21.0703123 54.9492188,21.1171875 C54.3515595,21.1171875 53.898439,20.9335956 53.5898438,20.5664062 L53.5957031,20.5664062 C53.4902338,20.4374994 53.4033207,20.2958992 53.3349609,20.1416016 C53.2666012,19.9873039 53.2207032,19.8203134 53.1972656,19.640625 C53.1972656,19.437499 53.2089843,19.2675788 53.2324219,19.1308594 C53.1308589,19.1855471 53.0253912,19.2578121 52.9160156,19.3476562 C52.8066401,19.4375004 52.6953131,19.5468744 52.5820312,19.6757812 C52.3085924,19.9804703 52.0761728,20.4218721 51.8847656,21 L50.1738281,21 L50.1738281,15.7089844 Z M54.8554688,18.8085938 C54.3710913,18.8085938 54.1289062,19.0624975 54.1289062,19.5703125 C54.1289062,20.0078147 54.3613258,20.2265625 54.8261719,20.2265625 C54.9238286,20.2265625 55.0156246,20.2089846 55.1015625,20.1738281 C55.1875004,20.1386717 55.262695,20.0917972 55.3271484,20.0332031 C55.3916019,19.9746091 55.4423826,19.9052738 55.4794922,19.8251953 C55.5166017,19.7451168 55.5351562,19.6601567 55.5351562,19.5703125 C55.5351562,19.0624975 55.308596,18.8085938 54.8554688,18.8085938 Z" id="" fill="#000000" fill-rule="nonzero"></path>
        </g>
    </g>
</svg>