<?xml version="1.0" encoding="UTF-8"?>
<svg width="299px" height="197px" viewBox="0 0 299 197" version="1.1" xmlns="http://www.w3.org/2000/svg" xmlns:xlink="http://www.w3.org/1999/xlink">
    <!-- Generator: Sketch 52.6 (67491) - http://www.bohemiancoding.com/sketch -->
    <title>even</title>
    <desc>Created with Sketch.</desc>
    <g id="Page-1" stroke="none" stroke-width="1" fill="none" fill-rule="evenodd">
        <g id="even">
            <g>
                <polygon id="Path" fill="#F1F1F2" points="0 0 299 0 299 197 0 197"></polygon>
                <path d="M1.98671096,1.9798995 L1.98671096,195.020101 L297.013289,195.020101 L297.013289,1.9798995 L1.98671096,1.9798995 Z M299,0 L299,197 L0,197 L0,0 L299,0 Z" id="Path" fill="#C2C2C2" fill-rule="nonzero"></path>
                <g id="Group-7" transform="translate(2.000000, 32.000000)">
                    <path d="M2.57962025,22.9928773 L2.57962025,21.7817381 L292.988101,21.7817381 L292.988101,22.9928773 L2.57962025,22.9928773 Z M2.57962025,103.346147 L2.57962025,102.135007 L292.988101,102.135007 L292.988101,103.346147 L2.57962025,103.346147 Z M2.57962025,123.424993 L2.57962025,122.213853 L292.988101,122.213853 L292.988101,123.424993 L2.57962025,123.424993 Z M2.57962025,143.503839 L2.57962025,142.292699 L292.988101,142.292699 L292.988101,143.503839 L2.57962025,143.503839 Z M37.0592405,2.30846154 L38.2703797,2.30846154 L38.2703797,160.590385 L37.0592405,160.590385 L37.0592405,2.30846154 Z M73.8097469,2.30846154 L75.0208861,2.30846154 L75.0208861,160.590385 L73.8097469,160.590385 L73.8097469,2.30846154 Z M110.560253,2.30846154 L111.771393,2.30846154 L111.771393,160.590385 L110.560253,160.590385 L110.560253,2.30846154 Z M147.272911,2.30846154 L148.484051,2.30846154 L148.484051,160.590385 L147.272911,160.590385 L147.272911,2.30846154 Z M184.023417,2.30846154 L185.234557,2.30846154 L185.234557,160.590385 L184.023417,160.590385 L184.023417,2.30846154 Z M220.773924,2.30846154 L221.985064,2.30846154 L221.985064,160.590385 L220.773924,160.590385 L220.773924,2.30846154 Z M257.52443,2.30846154 L258.73557,2.30846154 L258.73557,160.590385 L257.52443,160.590385 L257.52443,2.30846154 Z M2.57962025,83.2673004 L2.57962025,82.0561612 L292.988101,82.0561612 L292.988101,83.2673004 L2.57962025,83.2673004 Z M2.57962025,43.0717234 L2.57962025,41.8605842 L292.988101,41.8605842 L292.988101,43.0717234 L2.57962025,43.0717234 Z" id="Shape" fill="#DEDEDD" fill-rule="nonzero"></path>
                    <path d="M2.57962025,63.1884542 L2.57962025,61.977315 L6.17518986,61.977315 L6.17518986,63.1884542 L2.57962025,63.1884542 Z M9.77075947,63.1884542 L9.77075947,61.977315 L13.3663291,61.977315 L13.3663291,63.1884542 L9.77075947,63.1884542 Z M16.9618987,63.1884542 L16.9618987,61.977315 L20.5574683,61.977315 L20.5574683,63.1884542 L16.9618987,63.1884542 Z M24.1530379,63.1884542 L24.1530379,61.977315 L27.7486075,61.977315 L27.7486075,63.1884542 L24.1530379,63.1884542 Z M31.3441771,63.1884542 L31.3441771,61.977315 L34.9397467,61.977315 L34.9397467,63.1884542 L31.3441771,63.1884542 Z M38.5353164,63.1884542 L38.5353164,61.977315 L42.130886,61.977315 L42.130886,63.1884542 L38.5353164,63.1884542 Z M45.7264556,63.1884542 L45.7264556,61.977315 L49.3220252,61.977315 L49.3220252,63.1884542 L45.7264556,63.1884542 Z M52.9175948,63.1884542 L52.9175948,61.977315 L56.5131644,61.977315 L56.5131644,63.1884542 L52.9175948,63.1884542 Z M60.108734,63.1884542 L60.108734,61.977315 L63.7043036,61.977315 L63.7043036,63.1884542 L60.108734,63.1884542 Z M67.2998732,63.1884542 L67.2998732,61.977315 L70.8954429,61.977315 L70.8954429,63.1884542 L67.2998732,63.1884542 Z M74.4910125,63.1884542 L74.4910125,61.977315 L78.0865821,61.977315 L78.0865821,63.1884542 L74.4910125,63.1884542 Z M81.6821517,63.1884542 L81.6821517,61.977315 L85.2777213,61.977315 L85.2777213,63.1884542 L81.6821517,63.1884542 Z M88.8732909,63.1884542 L88.8732909,61.977315 L92.4688605,61.977315 L92.4688605,63.1884542 L88.8732909,63.1884542 Z M96.0644301,63.1884542 L96.0644301,61.977315 L99.6599997,61.977315 L99.6599997,63.1884542 L96.0644301,63.1884542 Z M103.255569,63.1884542 L103.255569,61.977315 L106.851139,61.977315 L106.851139,63.1884542 L103.255569,63.1884542 Z M110.446709,63.1884542 L110.446709,61.977315 L114.042278,61.977315 L114.042278,63.1884542 L110.446709,63.1884542 Z M117.637848,63.1884542 L117.637848,61.977315 L121.233417,61.977315 L121.233417,63.1884542 L117.637848,63.1884542 Z M124.828987,63.1884542 L124.828987,61.977315 L128.424557,61.977315 L128.424557,63.1884542 L124.828987,63.1884542 Z M132.020126,63.1884542 L132.020126,61.977315 L135.615696,61.977315 L135.615696,63.1884542 L132.020126,63.1884542 Z M139.211265,63.1884542 L139.211265,61.977315 L142.806835,61.977315 L142.806835,63.1884542 L139.211265,63.1884542 Z M146.402405,63.1884542 L146.402405,61.977315 L149.997974,61.977315 L149.997974,63.1884542 L146.402405,63.1884542 Z M153.593544,63.1884542 L153.593544,61.977315 L157.189114,61.977315 L157.189114,63.1884542 L153.593544,63.1884542 Z M160.784683,63.1884542 L160.784683,61.977315 L164.380253,61.977315 L164.380253,63.1884542 L160.784683,63.1884542 Z M167.975822,63.1884542 L167.975822,61.977315 L171.571392,61.977315 L171.571392,63.1884542 L167.975822,63.1884542 Z M175.166962,63.1884542 L175.166962,61.977315 L178.762531,61.977315 L178.762531,63.1884542 L175.166962,63.1884542 Z M182.358101,63.1884542 L182.358101,61.977315 L185.95367,61.977315 L185.95367,63.1884542 L182.358101,63.1884542 Z M189.54924,63.1884542 L189.54924,61.977315 L193.14481,61.977315 L193.14481,63.1884542 L189.54924,63.1884542 Z M196.740379,63.1884542 L196.740379,61.977315 L200.335949,61.977315 L200.335949,63.1884542 L196.740379,63.1884542 Z M203.931518,63.1884542 L203.931518,61.977315 L207.527088,61.977315 L207.527088,63.1884542 L203.931518,63.1884542 Z M211.122658,63.1884542 L211.122658,61.977315 L214.718227,61.977315 L214.718227,63.1884542 L211.122658,63.1884542 Z M218.313797,63.1884542 L218.313797,61.977315 L221.909366,61.977315 L221.909366,63.1884542 L218.313797,63.1884542 Z M225.504936,63.1884542 L225.504936,61.977315 L229.100506,61.977315 L229.100506,63.1884542 L225.504936,63.1884542 Z M232.696075,63.1884542 L232.696075,61.977315 L236.291645,61.977315 L236.291645,63.1884542 L232.696075,63.1884542 Z M239.887215,63.1884542 L239.887215,61.977315 L243.482784,61.977315 L243.482784,63.1884542 L239.887215,63.1884542 Z M247.078354,63.1884542 L247.078354,61.977315 L250.673923,61.977315 L250.673923,63.1884542 L247.078354,63.1884542 Z M254.269493,63.1884542 L254.269493,61.977315 L257.865063,61.977315 L257.865063,63.1884542 L254.269493,63.1884542 Z M261.460632,63.1884542 L261.460632,61.977315 L265.056202,61.977315 L265.056202,63.1884542 L261.460632,63.1884542 Z M268.651771,63.1884542 L268.651771,61.977315 L272.247341,61.977315 L272.247341,63.1884542 L268.651771,63.1884542 Z M275.842911,63.1884542 L275.842911,61.977315 L279.43848,61.977315 L279.43848,63.1884542 L275.842911,63.1884542 Z M283.03405,63.1884542 L283.03405,61.977315 L286.629619,61.977315 L286.629619,63.1884542 L283.03405,63.1884542 Z M290.225189,63.1884542 L290.225189,61.977315 L292.988101,61.977315 L292.988101,63.1884542 L290.225189,63.1884542 Z" id="Path" fill="#293052" fill-rule="nonzero"></path>
                    <polygon id="Path" fill="#C2C2C2" fill-rule="nonzero" points="0.497974684 2.30729309 0.497974684 -0.11498539 295.107595 -0.11498539 295.107595 2.30729309"></polygon>
                    <path d="M74.1862917,49.9209243 L38.913118,83.9554687 C38.1986062,84.6448901 37.0604936,84.6245504 36.3710722,83.9100387 C35.6816508,83.1955269 35.7019905,82.0574143 36.4165022,81.3679929 L73.1670086,45.9079929 C73.9493243,45.1531485 75.2173979,45.2599523 75.8624341,46.1350158 L111.525494,94.5159266 L146.708416,67.5211811 C147.400961,66.9898127 148.375132,67.0327101 149.018291,67.6228957 L184.896329,100.545903 L257.268031,61.0052153 C258.139354,60.5291632 259.231617,60.8495934 259.707669,61.7209161 C260.183721,62.5922388 259.863291,63.6845019 258.991969,64.1605539 L185.490956,104.318246 C184.815669,104.687193 183.980449,104.585452 183.413481,104.065181 L147.699513,71.2927311 L112.260192,98.4842035 C111.461716,99.0968497 110.31587,98.93472 109.718705,98.1245996 L74.1862917,49.9209243 Z" id="Path" fill="#293052" fill-rule="nonzero"></path>
                    <path d="M186.180759,113.158846 L151.133418,113.158846 L145.607595,105.089423 L140.308861,113.158846 L105.261519,113.158846 C102.648653,113.158846 100.530506,115.279036 100.530506,117.894423 L100.530506,142.405769 C100.530506,145.021156 102.648653,147.141346 105.261519,147.141346 L186.180759,147.141346 C187.455058,147.171968 188.687787,146.686593 189.599735,145.79516 C190.511683,144.903726 191.025684,143.681664 191.025316,142.405769 L191.025316,117.932308 C191.035937,116.649854 190.526447,115.417929 189.613353,114.518235 C188.700259,113.61854 187.461651,113.128022 186.180759,113.158846 Z" id="Path" fill="#E88024"></path>
                    <g id="Group" opacity="0.6" transform="translate(249.797468, 55.134615)" fill="#FFFFFF">
                        <ellipse id="Oval" cx="8.3325316" cy="8.58480769" rx="8.13734177" ry="8.3725"></ellipse>
                    </g>
                    <path d="M258.13,73.3030623 C252.959133,73.3030623 248.781519,69.0047208 248.781519,63.7194231 C248.781519,58.4341254 252.959133,54.1357839 258.13,54.1357839 C263.300867,54.1357839 267.478481,58.4341254 267.478481,63.7194231 C267.478481,69.0047208 263.300867,73.3030623 258.13,73.3030623 Z M258.13,70.8807839 C261.947393,70.8807839 265.056203,67.6821335 265.056203,63.7194231 C265.056203,59.7567127 261.947393,56.5580623 258.13,56.5580623 C254.312607,56.5580623 251.203797,59.7567127 251.203797,63.7194231 C251.203797,67.6821335 254.312607,70.8807839 258.13,70.8807839 Z" id="Oval" fill="#E88024" fill-rule="nonzero"></path>
                    <g id="Group" opacity="0.6" transform="translate(29.278481, 74.076923)" fill="#FFFFFF">
                        <ellipse id="Oval" cx="8.38632911" cy="8.58480769" rx="8.13734177" ry="8.3725"></ellipse>
                    </g>
                    <path d="M37.6648101,92.24537 C32.4939432,92.24537 28.3163291,87.9470285 28.3163291,82.6617308 C28.3163291,77.3764331 32.4939432,73.0780916 37.6648101,73.0780916 C42.835677,73.0780916 47.0132911,77.3764331 47.0132911,82.6617308 C47.0132911,87.9470285 42.835677,92.24537 37.6648101,92.24537 Z M37.6648101,89.8230916 C41.4822027,89.8230916 44.5910126,86.6244412 44.5910126,82.6617308 C44.5910126,78.6990204 41.4822027,75.50037 37.6648101,75.50037 C33.8474175,75.50037 30.7386076,78.6990204 30.7386076,82.6617308 C30.7386076,86.6244412 33.8474175,89.8230916 37.6648101,89.8230916 Z" id="Oval" fill="#E88024" fill-rule="nonzero"></path>
                    <polygon id="Path" fill="#E88024" points="245.56443 33.98 270.657722 33.98 270.657722 50.4976923 245.56443 50.4976923"></polygon>
                    <polygon id="Path" fill="#E88024" transform="translate(258.079879, 50.479130) rotate(-45.000000) translate(-258.079879, -50.479130) " points="256.395639 48.79489 259.765745 48.7932651 259.76412 52.163371 256.394014 52.1649958"></polygon>
                    <path d="M260.438734,44.0573077 L261.839114,44.0573077 L261.839114,45.1559615 L260.438734,45.1559615 L260.438734,47.5048077 L259.151899,47.5048077 L259.151899,45.1559615 L254.458734,45.1559615 L254.458734,44.3603846 L259.151899,37.2380769 L260.627975,37.2380769 L260.627975,44.0573077 L260.438734,44.0573077 Z M255.93481,44.0573077 L259.151899,44.0573077 L259.151899,39.2459615 L259.151899,39.5869231 L255.93481,44.0573077 Z" id="Shape" fill="#FFFFFF" fill-rule="nonzero"></path>
                    <polygon id="Path" fill="#D5D3DA" points="135.350759 47.2017308 160.444051 47.2017308 160.444051 63.7194231 135.350759 63.7194231"></polygon>
                    <polygon id="Path" fill="#D5D3DA" transform="translate(147.892511, 63.696233) rotate(-45.000000) translate(-147.892511, -63.696233) " points="146.208271 62.0119926 149.578377 62.0103677 149.576752 65.3804736 146.206646 65.3820985"></polygon>
                    <path d="M146.553797,54.9301923 L147.764937,54.9301923 C148.239705,54.9746728 148.710077,54.808499 149.051772,54.4755769 C149.324722,54.1038243 149.458666,53.647974 149.430253,53.1875 C149.457797,52.7030853 149.294769,52.227129 148.976076,51.8615385 C148.62918,51.5370969 148.162739,51.3723117 147.689241,51.4069231 C147.211619,51.3914113 146.747849,51.5689063 146.402405,51.8994231 C146.074322,52.2311548 145.896481,52.6830334 145.91038,53.1496154 L144.623544,53.1496154 C144.605495,52.3493354 144.971334,51.588784 145.607595,51.1038462 C146.960955,50.0745235 148.833855,50.0745235 150.187215,51.1038462 C150.766828,51.667181 151.071078,52.4562259 151.019873,53.2632692 C150.998378,54.2527803 150.387115,55.1332511 149.468101,55.4984615 C150.011423,55.6394525 150.483331,55.976855 150.792785,56.4455769 C151.046248,56.8825401 151.177019,57.3799485 151.171266,57.8851923 C151.214587,58.7171918 150.88089,59.5244059 150.262911,60.0825 C149.606384,60.6298635 148.770033,60.9134169 147.916329,60.8780769 C147.0813,60.9078097 146.262935,60.6392345 145.607595,60.1203846 C144.885078,59.6321825 144.48036,58.7930287 144.547848,57.9230769 L145.91038,57.9230769 C145.88584,58.4026355 146.064487,58.870316 146.402405,59.2111538 C146.773346,59.5497154 147.263477,59.7268781 147.764937,59.7036538 C148.278651,59.7328771 148.78276,59.5555869 149.165316,59.2111538 C149.474757,58.8551791 149.637154,58.3946104 149.619494,57.9230769 C149.71581,57.4071344 149.551734,56.876838 149.180951,56.505697 C148.810167,56.1345559 148.280382,55.9703218 147.764937,56.0667308 L146.553797,56.0667308 L146.553797,54.9301923 Z" id="Path" fill="#293052"></path>
                    <polygon id="Path" fill="#D5D3DA" points="25.0992405 52.4298077 50.1925316 52.4298077 50.1925316 68.9475 25.0992405 68.9475"></polygon>
                    <polygon id="Path" fill="#D5D3DA" transform="translate(37.661484, 68.966252) rotate(-45.000000) translate(-37.661484, -68.966252) " points="35.9772438 67.2820111 39.3473497 67.2803862 39.3457248 70.6504921 35.9756189 70.652117"></polygon>
                    <polygon id="Path" fill="#293052" points="38.3839241 65.9546154 37.0213924 65.9546154 37.0213924 57.0517308 34.9018987 57.0517308 34.9018987 56.0667308 38.3839241 55.6878846"></polygon>
                </g>
            </g>
            <path d="M18.9153287,17.042 C18.9153287,17.15 18.9393287,17.253 18.9883287,17.351 C19.0840063,17.5454441 19.2466308,17.6988366 19.4463287,17.783 C19.5463287,17.827 19.6503287,17.849 19.7583287,17.849 C19.9710389,17.8494242 20.1757936,17.7681667 20.3303287,17.622 C20.4083388,17.5489168 20.4717917,17.4617115 20.5173287,17.365 C20.6061852,17.1582709 20.6087055,16.9245976 20.5243287,16.716 C20.4842433,16.6181109 20.4243181,16.5295849 20.3483287,16.456 C20.1104145,16.2272065 19.760153,16.1598184 19.4543287,16.284 C19.3543557,16.3250912 19.2623112,16.3832958 19.1823287,16.456 C19.1016442,16.5294757 19.0357896,16.6177344 18.9883287,16.716 C18.9391104,16.8179143 18.9141263,16.9298297 18.9153287,17.043 L18.9153287,17.042 Z M22.1623287,23.068 L22.1623287,16.062 C22.1623287,15.451 21.9843287,14.977 21.6273287,14.64 C21.2313287,14.258 20.5983287,14.068 19.7293287,14.068 C19.3913287,14.068 19.0743287,14.124 18.7763287,14.236 C18.4973701,14.338097 18.2354196,14.4817147 17.9993287,14.662 C17.7793287,14.882 17.6003287,15.152 17.4633287,15.472 C17.3273287,15.792 17.2583287,16.135 17.2583287,16.502 C17.2583287,16.722 17.2693287,16.936 17.2913287,17.147 C17.3133287,17.357 17.3493287,17.562 17.3983287,17.762 L17.6613287,18.972 L17.6613287,18.964 C17.7793287,19.478 17.8613287,19.939 17.9113287,20.35 C18.2149009,19.8712796 18.5327094,19.4017368 18.8643287,18.942 C18.8709153,18.9292377 18.8782619,18.9168822 18.8863287,18.905 C18.8963287,18.89 18.9173287,18.861 18.9523287,18.817 C18.8062845,18.7634115 18.6670058,18.6929331 18.5373287,18.607 C18.3944356,18.5110234 18.2587415,18.4047408 18.1313287,18.289 L18.1313287,18.296 C17.8283287,18.023 17.6763287,17.593 17.6763287,17.006 C17.6763287,16.733 17.7203287,16.481 17.8083287,16.251 C18.1603287,15.406 18.8183287,14.983 19.7803287,14.983 C20.5473287,14.983 21.1043287,15.254 21.4513287,15.797 C21.7153287,16.222 21.8473287,16.672 21.8473287,17.146 C21.8473287,17.502 21.6323287,18.016 21.2023287,18.685 L20.7553287,19.337 L19.7353287,20.833 L19.7353287,20.825 C19.6093287,21.011 19.4603287,21.238 19.2893287,21.507 C19.0418639,21.8974959 18.7951967,22.2884967 18.5493287,22.68 C18.5361639,22.7015234 18.5238216,22.7235393 18.5123287,22.746 L18.4753287,22.816 C18.4603287,22.842 18.4403287,22.876 18.4133287,22.914 L18.3063287,23.068 L15.8953287,23.068 L15.8953287,22.984 L15.8983287,22.834 C15.9013287,22.78 15.9023287,22.729 15.9023287,22.68 L15.9023287,22.577 C15.9073287,22.533 15.9093287,22.497 15.9093287,22.467 L15.9093287,22.387 C15.9093287,22.098 15.8963287,21.789 15.8693287,21.459 C15.8392954,21.1022634 15.7966018,20.7467059 15.7413287,20.393 L15.7483287,20.415 C15.6516999,20.0175988 15.5590286,19.6192457 15.4703287,19.22 C15.3450587,18.6591382 15.2250535,18.0971135 15.1103287,17.534 C15.0329768,17.1725481 14.9960832,16.8036116 15.0003287,16.434 C15.0003287,15.794 15.1193287,15.224 15.3563287,14.723 C15.5933287,14.222 15.9493287,13.788 16.4233287,13.422 C16.8633287,13.089 17.3583287,12.839 17.9113287,12.67 C18.5087987,12.4953455 19.1289003,12.4104185 19.7513287,12.418 C21.2853287,12.418 22.4413287,12.742 23.2183287,13.392 C23.9803287,14.038 24.3613287,14.956 24.3613287,16.149 L24.3613287,23.069 L22.1623287,23.069 L22.1623287,23.068 Z M23.4603287,10.636 C23.0003287,10.553 22.5073287,10.49 21.9793287,10.446 C20.7407186,10.3475461 19.4958014,10.3595937 18.2593287,10.482 C17.5483287,10.551 16.7823287,10.653 15.9613287,10.79 L16.3353287,9.5 C17.0243287,7.834 18.3283287,7 20.2493287,7 C21.1093287,7 21.8623287,7.174 22.5073287,7.52 C23.1523287,7.868 23.6893287,8.379 24.1193287,9.053 C24.2903287,9.322 24.4323287,9.611 24.5443287,9.922 C24.6573287,10.232 24.7403287,10.553 24.7943287,10.886 L23.4603287,10.636 Z M19.9703287,8.078 C19.4623287,8.078 19.0473287,8.181 18.7243287,8.386 C18.3871525,8.60706334 18.1082672,8.90618755 17.9113287,9.258 C18.3943287,9.234 18.8353287,9.206 19.2343287,9.174 C19.9829553,9.10730466 20.7361315,9.10964788 21.4843287,9.181 C21.8923287,9.218 22.3453287,9.278 22.8443287,9.361 C22.1013287,8.506 21.1443287,8.078 19.9703287,8.078 Z M29.5733287,19.403 C29.4903287,19.423 29.4063287,19.439 29.3203287,19.451 C28.9654752,19.5014992 28.6035699,19.4519754 28.2753287,19.308 C28.0380868,19.2050268 27.8231055,19.0569512 27.6423287,18.872 C27.462554,18.6871367 27.3181703,18.4709001 27.2163287,18.234 C27.111985,17.9946067 27.0585217,17.7361439 27.0593287,17.475 C27.0593287,16.508 27.5493287,15.865 28.5323287,15.548 C28.7033287,15.494 28.8793287,15.46 29.0603287,15.445 C29.2403287,15.43 29.4203287,15.434 29.5953287,15.455 C29.7713287,15.478 29.9403287,15.521 30.1013287,15.585 C30.2623287,15.648 30.4113287,15.733 30.5483287,15.841 C30.6953287,15.938 30.8253287,16.051 30.9403287,16.178 C31.1591561,16.4195521 31.3274575,16.7024343 31.4353287,17.01 C31.4843287,17.154 31.5133287,17.287 31.5233287,17.41 L31.8453287,21.39 C31.8803287,21.517 31.9503287,21.58 32.0583287,21.58 C32.1413287,21.58 32.1943287,21.568 32.2163287,21.544 C32.2383287,21.519 32.2533287,21.475 32.2633287,21.412 L32.6303287,16.222 C32.6348897,16.190537 32.6372289,16.1587917 32.6373287,16.127 L32.6373287,16.031 C32.6373287,15.753 32.6033287,15.494 32.5343287,15.254 C32.4687863,15.0195194 32.3453345,14.8052842 32.1753287,14.631 C31.980378,14.4405671 31.7433087,14.2987366 31.4833287,14.217 C31.1923287,14.117 30.8243287,14.067 30.3793287,14.067 C29.5973287,14.067 28.9693287,14.233 28.4953287,14.565 L28.5033287,14.558 C28.3850578,14.6377635 28.2745691,14.7284982 28.1733287,14.829 C28.0755616,14.9265223 27.9859298,15.0318731 27.9053287,15.144 C27.8250182,15.2565287 27.7483127,15.371587 27.6753287,15.489 L27.4553287,15.841 L26.2013287,14.873 C26.2893287,14.507 26.4773287,14.165 26.7663287,13.847 L26.7663287,13.854 C26.9563287,13.639 27.1653287,13.444 27.3923287,13.268 C27.6203287,13.092 27.8793287,12.94 28.1693287,12.813 C28.4603287,12.686 28.7913287,12.589 29.1633287,12.52 C29.582056,12.4478425 30.0064513,12.4137034 30.4313287,12.418 C32.4733287,12.418 33.8373287,13.063 34.5213287,14.353 C34.7907715,14.8557026 34.9029545,15.4277663 34.8433287,15.995 L34.3823287,21.185 C34.3823287,21.355 34.3503287,21.551 34.2863287,21.771 C34.2233287,21.991 34.1263287,22.2 33.9963287,22.398 C33.8673287,22.596 33.7023287,22.767 33.5023287,22.911 C33.3023287,23.055 33.0623287,23.139 32.7843287,23.164 C32.5665264,23.1817753 32.3488542,23.2011091 32.1313287,23.222 C32.0733287,23.227 32.0313287,23.23 32.0073287,23.23 L31.9483287,23.23 C31.3963287,23.23 30.9273287,23.095 30.5413287,22.826 L30.5483287,22.826 C30.0643287,22.504 29.8203287,22.111 29.8153287,21.646 L29.5733287,19.403 Z M29.9183287,17.439 C29.9187887,17.3296403 29.893435,17.2217155 29.8443287,17.124 C29.7962369,17.0269959 29.7304409,16.9398331 29.6503287,16.867 C29.5691715,16.7933386 29.4762097,16.733843 29.3753287,16.691 C29.2782537,16.6481751 29.1734278,16.6257124 29.0673287,16.625 C28.8451403,16.6143815 28.6306966,16.7079233 28.4873287,16.878 C28.4228574,16.956545 28.3758179,17.047897 28.3493287,17.146 C28.3193287,17.248 28.3053287,17.358 28.3053287,17.476 C28.3029435,17.595323 28.3254201,17.7138362 28.3713287,17.824 C28.4511181,18.0095929 28.6054016,18.1529857 28.7963287,18.219 C28.8883377,18.2507604 28.9849922,18.2669821 29.0823287,18.267 C29.1857842,18.2669173 29.2885102,18.2496836 29.3863287,18.216 C29.4856012,18.1823768 29.576846,18.1285832 29.6543287,18.058 C29.7341258,17.9846553 29.7986889,17.8963058 29.8443287,17.798 C29.8956852,17.6850694 29.9209764,17.5620314 29.9183287,17.438 L29.9183287,17.439 Z M34.0663287,10.673 C33.6073287,10.59 33.1143287,10.526 32.5863287,10.483 C31.3477186,10.3845461 30.1028014,10.3965937 28.8663287,10.519 C28.1553287,10.587 27.3893287,10.69 26.5683287,10.827 L26.9413287,9.537 C27.6313287,7.87 28.9353287,7.037 30.8563287,7.037 C31.7163287,7.037 32.4683287,7.211 33.1143287,7.557 C33.7593287,7.905 34.2963287,8.415 34.7263287,9.09 C34.8973287,9.358 35.0393287,9.648 35.1513287,9.958 C35.2643287,10.268 35.3473287,10.59 35.4013287,10.922 L34.0663287,10.672 L34.0663287,10.673 Z M30.5773287,8.115 C30.0693287,8.115 29.6543287,8.217 29.3313287,8.423 C28.9937874,8.64393938 28.7145497,8.94307356 28.5173287,9.295 C28.9590441,9.27338815 29.4004237,9.24538521 29.8413287,9.211 C30.5899553,9.14430466 31.3431315,9.14664788 32.0913287,9.218 C32.4993287,9.255 32.9523287,9.314 33.4513287,9.398 C32.7083287,8.542 31.7513287,8.115 30.5773287,8.115 Z M40.7073287,17.321 C40.7073287,17.434 40.7333287,17.536 40.7853287,17.629 C40.8347553,17.7196768 40.898971,17.8014674 40.9753287,17.871 C41.0509837,17.9391999 41.1379533,17.9936829 41.2323287,18.032 C41.3273287,18.072 41.4193287,18.092 41.5073287,18.092 C41.7132137,18.0931381 41.9114908,18.0142576 42.0603287,17.872 C42.2102032,17.7286689 42.293553,17.5293543 42.2903287,17.322 C42.2913287,16.823 42.0303287,16.574 41.5073287,16.574 C41.4024537,16.5732009 41.2985683,16.5943186 41.2023287,16.636 C41.1095267,16.6762135 41.0242953,16.7320198 40.9503287,16.801 C40.8774551,16.8687724 40.8177798,16.9494698 40.7743287,17.039 C40.7310018,17.1266976 40.70842,17.2231834 40.7083287,17.321 L40.7073287,17.321 Z M43.9113287,23.068 L43.9113287,16.062 C43.9113287,15.754 43.8693287,15.48 43.7863287,15.241 C43.7033287,15.001 43.5863287,14.806 43.4353287,14.654 L43.3543287,14.596 L43.1343287,14.449 L43.1273287,14.449 C43.1323287,14.449 43.0873287,14.475 42.9953287,14.526 C42.8650158,14.5965908 42.7329754,14.6639447 42.5993287,14.728 C42.3943287,14.835 42.1923287,14.917 41.9943287,14.973 C41.8147461,15.0263454 41.6286518,15.0546129 41.4413287,15.057 C41.1183287,15.057 40.7643287,14.947 40.3783287,14.727 C40.0893287,14.567 39.9453287,14.481 39.9453287,14.471 C39.8576536,14.50555 39.7741313,14.5498269 39.6963287,14.603 C39.5932058,14.6680875 39.5016235,14.7498695 39.4253287,14.845 C39.1463287,15.197 39.0073287,15.749 39.0073287,16.501 C39.0073287,16.721 39.0183287,16.936 39.0403287,17.147 C39.0623287,17.357 39.0973287,17.562 39.1463287,17.762 L39.4103287,18.972 L39.4103287,18.964 C39.4693287,19.228 39.5203287,19.475 39.5643287,19.704 C39.6083287,19.934 39.6423287,20.154 39.6673287,20.364 L39.8683287,20.09 C39.9343287,20 40.0083287,19.905 40.0923287,19.807 L40.6423287,19.126 C40.5338351,19.0933918 40.4302347,19.0463008 40.3343287,18.986 C40.235609,18.923195 40.1422869,18.8522836 40.0553287,18.774 L40.0633287,18.774 C39.6464167,18.4022142 39.4132643,17.8664754 39.4253287,17.308 C39.4253287,16.589 39.7253287,16.032 40.3263287,15.636 C40.6755952,15.4105708 41.0836686,15.2933323 41.4993287,15.299 L41.6613287,15.299 L42.3943287,15.402 C42.6923287,15.49 42.9583287,15.72 43.1933287,16.091 C43.4613287,16.526 43.5963287,16.973 43.5963287,17.432 C43.5963287,17.838 43.3613287,18.378 42.8923287,19.052 C42.8533287,19.106 42.7363287,19.26 42.5403287,19.514 C42.3453287,19.768 42.0693287,20.123 41.7123287,20.577 C41.5538181,20.7863636 41.3997832,20.9990785 41.2503287,21.215 L40.7153287,21.977 C40.5153287,22.265 40.3023287,22.63 40.0773287,23.069 L37.6443287,23.069 L37.6443287,22.985 C37.6443287,22.939 37.6443287,22.889 37.6473287,22.835 C37.6503287,22.781 37.6513287,22.73 37.6513287,22.681 L37.6513287,22.578 C37.6563287,22.534 37.6583287,22.498 37.6583287,22.468 L37.6583287,22.388 C37.6583287,22.099 37.6453287,21.79 37.6183287,21.46 C37.5882954,21.1032634 37.5456018,20.7477059 37.4903287,20.394 L37.4973287,20.416 C37.4003658,20.0186023 37.3073612,19.6202492 37.2183287,19.221 C37.0933926,18.6601349 36.9737207,18.0981102 36.8593287,17.535 C36.7819768,17.1735481 36.7450832,16.8046116 36.7493287,16.435 C36.7493287,15.864 36.8693287,15.295 37.1093287,14.728 C37.3723287,14.117 37.7223287,13.64 38.1573287,13.298 C38.4535028,13.0726139 38.771408,12.8773149 39.1063287,12.715 C39.3872214,12.5786491 39.6873858,12.4862389 39.9963287,12.441 L39.9893287,12.448 C40.1993287,12.414 40.5073287,12.578 40.9133287,12.939 L40.9063287,12.939 C41.2093287,13.198 41.4263287,13.327 41.5583287,13.327 C41.7243287,13.327 41.9583287,13.2 42.2623287,12.947 C42.6723287,12.609 42.9603287,12.441 43.1273287,12.441 C43.2833287,12.441 43.4473287,12.461 43.6173287,12.503 C43.7893287,12.544 43.9673287,12.612 44.1533287,12.704 C44.3193287,12.792 44.4773287,12.894 44.6263287,13.009 C44.7753287,13.123 44.9163287,13.257 45.0473287,13.409 C45.2433287,13.628 45.4073287,13.845 45.5383287,14.06 C45.6703287,14.276 45.7783287,14.486 45.8613287,14.69 C46.0273287,15.13 46.1113287,15.617 46.1113287,16.15 L46.1113287,23.07 L43.9113287,23.07 L43.9113287,23.068 Z M53.4623287,16.31 C52.9493287,16.31 52.6923287,16.566 52.6923287,17.08 C52.6923287,17.295 52.7663287,17.472 52.9123287,17.611 C53.0593287,17.751 53.2423287,17.82 53.4623287,17.82 C53.5653287,17.82 53.6623287,17.8 53.7523287,17.758 C53.932199,17.6752229 54.0765516,17.5308704 54.1593287,17.351 C54.1975946,17.26578 54.2173623,17.1734169 54.2173287,17.08 C54.21769,16.8751513 54.1388653,16.6780895 53.9973287,16.53 C53.8562323,16.3871143 53.6631252,16.3077058 53.4623287,16.31 Z M52.0483287,23.068 L49.5483287,23.068 C49.5483287,22.898 49.5523287,22.762 49.5583287,22.662 C49.5663287,22.562 49.5703287,22.47 49.5703287,22.387 C49.5703287,22.103 49.5533287,21.795 49.5193287,21.463 C49.4814562,21.1048928 49.4324324,20.748053 49.3723287,20.393 C49.3403837,20.2434597 49.3060459,20.0944406 49.2693287,19.946 C49.2253287,19.765 49.1753287,19.566 49.1193287,19.348 C49.0633287,19.131 49.0053287,18.898 48.9473287,18.652 C48.8888304,18.4066146 48.8361489,18.1598788 48.7893287,17.912 C48.7433287,17.665 48.7043287,17.422 48.6723287,17.182 C48.6417366,16.960958 48.625702,16.7381447 48.6243287,16.515 C48.6243287,15.235 49.0913287,14.209 50.0243287,13.436 C50.8603287,12.757 51.9843287,12.418 53.3963287,12.418 C54.9063287,12.418 56.0573287,12.742 56.8493287,13.392 C57.6313287,14.038 58.0223287,14.956 58.0223287,16.149 L58.0223287,23.069 L55.8013287,23.069 L55.8013287,16.061 C55.8013287,15.455 55.6203287,14.981 55.2583287,14.639 C54.8623287,14.257 54.2323287,14.067 53.3673287,14.067 C52.6633287,14.067 52.0743287,14.275 51.6003287,14.69 C51.1463287,15.08 50.9193287,15.684 50.9193287,16.5 C50.9193287,16.906 50.9463287,17.231 50.9993287,17.475 L51.0513287,17.747 C51.1143287,17.527 51.1793287,17.307 51.2453287,17.087 C51.3113287,16.867 51.3853287,16.657 51.4653287,16.457 C51.5453287,16.257 51.6373287,16.07 51.7403287,15.899 C51.8423287,15.729 51.9643287,15.579 52.1063287,15.452 C52.2483287,15.325 52.4143287,15.226 52.6053287,15.155 C52.7953287,15.085 53.0183287,15.049 53.2723287,15.049 C53.5893287,15.049 53.8853287,15.093 54.1593287,15.181 C54.4323287,15.269 54.6693287,15.397 54.8693287,15.566 C55.0703287,15.734 55.2283287,15.941 55.3423287,16.186 C55.4573287,16.43 55.5153287,16.708 55.5153287,17.021 C55.5153287,17.588 55.3533287,18.047 55.0313287,18.399 C54.6113287,18.853 54.0783287,19.081 53.4333287,19.081 C53.1742461,19.0835974 52.9181285,19.0257313 52.6853287,18.912 C52.5483287,19.298 52.4363287,19.728 52.3483287,20.202 C52.2550525,20.7209377 52.191615,21.2447978 52.1583287,21.771 L52.0483287,23.068 Z M53.8513287,24.872 C53.4553287,24.872 53.2133287,25.045 53.1253287,25.392 C53.1403287,25.934 53.3823287,26.206 53.8513287,26.206 C54.2953287,26.206 54.5183287,25.983 54.5183287,25.539 C54.5183287,25.319 54.4673287,25.153 54.3643287,25.04 C54.2613287,24.928 54.0903287,24.872 53.8513287,24.872 Z M53.7413287,28.339 L53.7413287,27.1 L53.7263287,27.1 C53.2763287,27.1 52.8543287,26.922 52.4583287,26.565 C52.3280992,26.4428388 52.2278291,26.2922626 52.1653287,26.125 C52.0942917,25.9351453 52.0593588,25.7336876 52.0623287,25.531 C52.0623287,25.101 52.2163287,24.725 52.5243287,24.402 C52.8563287,24.055 53.3043287,23.882 53.8653287,23.882 C54.7753287,23.882 55.3583287,24.227 55.6173287,24.916 C55.6613287,25.043 55.6963287,25.192 55.7203287,25.363 C55.7443287,25.533 55.7573287,25.729 55.7573287,25.949 L55.7573287,26.829 L56.3943287,26.829 L56.3943287,24.058 L58.3883287,24.058 L58.3883287,28.338 L53.7413287,28.338 L53.7413287,28.339 Z M56.2703287,7.228 L58.2123287,7.228 L58.2123287,10.754 L56.2703287,10.754 L56.2703287,7.228 Z" id="Shape" fill="#020202" fill-rule="nonzero"></path>
            <path d="M23.7413287,135.22 C23.7322761,137.044989 23.7322761,138.870011 23.7413287,140.695 C24.7843287,140.442 25.5163287,141.405 25.5163287,141.972 C25.5163287,142.539 25.2923287,143.431 24.1563287,143.524 C23.0213287,143.616 22.3913287,142.844 22.3913287,141.896 L22.3913287,135.22 L23.7413287,135.22 Z M24.1393287,141.48 C23.971603,141.472602 23.8081835,141.534321 23.6872219,141.650746 C23.5662603,141.767172 23.498344,141.928114 23.4993287,142.096 C23.4993287,142.375 23.6413287,142.712 24.1393287,142.712 C24.6373287,142.712 24.7633287,142.349 24.7633287,142.063 C24.7633287,141.777 24.5753287,141.481 24.1393287,141.481 L24.1393287,141.48 Z M31.8113287,135.219 C32.1353287,135.396 32.4583287,135.553 32.7803287,135.688 C32.5043287,136.277 32.0103287,136.571 31.2973287,136.571 C30.2283287,136.571 29.7903287,136.025 28.7753287,136.091 C27.7603287,136.158 27.6503287,136.724 27.4633287,137.019 C28.2713287,137.095 28.8653287,137.159 29.2483287,137.211 C29.8213287,137.291 31.4803287,137.707 31.7143287,138.583 C31.9173287,139.284 31.8113287,141.238 31.8113287,141.947 C31.8113287,142.657 31.3313287,143.512 30.0533287,143.512 C28.7753287,143.512 28.6363287,142.42 28.6363287,142.042 C28.6363287,141.662 29.0443287,140.34 30.4273287,140.734 C30.4413287,139.859 30.4443287,139.329 30.4373287,139.144 C30.4273287,138.868 30.4093287,138.373 29.5233287,138.146 C28.6363287,137.92 27.1043287,137.714 26.1113287,137.83 C26.1883287,136.914 26.4493287,135.926 27.4633287,135.419 C28.4763287,134.912 29.7803287,135.354 30.4373287,135.521 C31.0943287,135.688 31.4133287,135.521 31.8113287,135.219 Z M29.9933287,141.465 C29.6263287,141.465 29.3903287,141.85 29.3903287,142.09 C29.3903287,142.33 29.6403287,142.716 29.9933287,142.716 C30.3463287,142.716 30.6633287,142.502 30.6633287,142.073 C30.6633287,141.644 30.3613287,141.465 29.9933287,141.465 Z M25.2413287,133.867 C25.5353287,132.632 26.0563287,131.304 28.3653287,131.244 C30.6743287,131.184 31.6193287,132.946 31.8873287,133.938 C30.2013287,133.45 26.2073287,133.588 25.2413287,133.868 L25.2413287,133.867 Z M26.7063287,132.994 C27.6543287,132.894 29.5263287,132.894 30.4273287,133.134 C30.1123287,132.494 29.2773287,131.866 28.3283287,131.928 C27.3803287,131.988 26.9843287,132.321 26.7063287,132.994 Z M30.5203287,127.969 L31.7403287,127.969 L31.7403287,130.307 L30.5203287,130.307 L30.5203287,127.969 Z M39.5563287,135.242 L40.9143287,135.242 L40.9143287,142.013 C40.9143287,142.674 40.6063287,143.185 40.2453287,143.331 C40.0333287,143.417 39.8623287,143.541 39.5553287,143.429 C38.7703287,143.143 38.6793287,141.323 36.6433287,140.847 C36.6353287,141.182 36.6283287,141.748 36.6233287,142.544 C36.4253287,143.563 35.4123287,143.643 34.5763287,143.429 C33.7403287,143.215 33.1723287,142.113 33.5203287,141.082 C33.8703287,140.043 34.4273287,139.851 35.2303287,139.758 C35.2603287,139.113 35.2683287,138.498 35.2543287,137.916 C33.9593287,138.129 33.3483287,137.206 33.4443287,136.404 C33.5393287,135.601 34.1243287,135.135 35.0133287,135.134 C35.9013287,135.134 36.6433287,135.852 36.6233287,136.636 C36.6033287,137.419 36.6093287,138.56 36.6433287,139.838 C37.3793287,139.965 37.8673287,140.204 38.4773287,140.742 C38.6513287,140.894 38.9573287,141.212 39.4273287,141.624 C39.5173287,141.498 39.5563287,141.262 39.5563287,140.621 L39.5563287,135.242 Z M34.8333287,135.931 C34.5213287,135.931 34.2343287,136.071 34.2343287,136.563 C34.2343287,137.055 34.5493287,137.195 34.8333287,137.195 C35.1173287,137.195 35.5013287,136.998 35.5013287,136.57 C35.5013287,136.142 35.1453287,135.931 34.8333287,135.931 Z M35.2633287,140.793 C35.1853287,140.704 34.9383287,140.701 34.7093287,140.883 C34.4803287,141.065 34.2873287,141.593 34.5093287,142.241 C34.7313287,142.889 35.2633287,142.548 35.2633287,142.241 L35.2633287,140.793 Z M48.8373287,143.409 L48.8373287,138.655 C48.8373287,136.527 48.1573287,136.31 47.9263287,136.31 C47.6933287,136.31 47.0273287,136.81 46.5453287,136.81 C46.0623287,136.81 45.9073287,136.578 45.2713287,136.31 C44.2083287,136.67 44.1773287,138.598 44.3963287,139.1 C44.5413287,139.435 44.7093287,140.452 44.9013287,142.15 C44.9583287,141.987 45.4353287,141.331 46.3343287,140.184 C45.5323287,140.286 45.1083287,139.351 45.1083287,138.764 C45.1083287,138.176 45.9943287,136.996 47.2783287,137.556 C48.5613287,138.116 48.0793287,139.751 47.5813287,140.184 C47.2493287,140.472 46.4793287,141.55 45.2713287,143.418 L43.6743287,143.409 C43.7003287,142.923 43.7003287,142.349 43.4633287,141.186 C43.3063287,140.418 42.9253287,139.28 42.9253287,138.308 C42.9253287,135.866 44.9243287,135.101 45.4053287,135.101 C45.8963287,135.291 46.2623287,135.838 46.6423287,135.838 C47.0223287,135.838 47.2263287,135.483 47.9263287,135.101 C49.5013287,135.101 50.1643287,137.104 50.1643287,137.719 L50.1643287,143.409 L48.8383287,143.409 L48.8373287,143.409 Z M46.5923287,138.286 C46.2493287,138.286 45.9753287,138.61 45.9753287,138.904 C45.9753287,139.198 46.1723287,139.512 46.5923287,139.512 C47.0123287,139.512 47.2403287,139.22 47.2403287,138.859 C47.2403287,138.497 46.9363287,138.286 46.5923287,138.286 Z M50.1693287,130.677 C50.8723287,130.68 51.2353287,130.677 51.4373287,130.677 C51.4433287,131.305 51.2403287,132.055 50.1693287,132.947 C49.2293287,133.729 47.5803287,134.044 46.6953287,133.983 L46.6853287,133.385 C47.1503287,133.333 47.4393287,133.089 47.5513287,132.653 C46.7793287,132.713 46.0873287,132.36 46.0873287,131.519 C46.0873287,130.677 46.6273287,130.405 47.3453287,130.344 C48.0653287,130.282 48.5223287,130.92 48.6803287,131.384 C48.8383287,131.847 48.6803287,132.449 48.2243287,132.946 C49.3813287,132.709 50.1693287,131.519 50.1693287,130.677 Z M47.2713287,130.991 C47.1311361,130.990723 46.9966789,131.046635 46.8980185,131.146235 C46.7993581,131.245835 46.7447232,131.380816 46.7463287,131.521 C46.7463287,131.783 46.9973287,132.076 47.2713287,132.076 C47.5453287,132.076 47.8603287,131.942 47.8603287,131.52 C47.8603287,131.099 47.5933287,130.991 47.2703287,130.991 L47.2713287,130.991 Z M57.2593287,135.239 L58.5503287,135.239 L58.5503287,140.11 C58.5503287,140.436 58.0703287,140.632 57.8553287,140.723 C58.5793287,141.058 58.8283287,141.483 58.8283287,142.128 C58.8283287,142.772 58.2313287,143.528 57.4403287,143.528 C56.6483287,143.528 56.2723287,142.885 56.1683287,142.408 C56.0633287,141.932 56.1943287,141.475 56.3323287,141.37 C55.4893287,141.474 54.6943287,142.669 54.5333287,143.388 L53.2933287,143.399 L53.2933287,137.896 C52.1693287,137.956 51.6063287,137.524 51.6063287,136.602 C51.6063287,135.219 52.8183287,135.156 53.1383287,135.156 C53.4583287,135.156 54.3223287,135.353 54.5333287,136.409 C54.5793287,137.564 54.5333287,141.446 54.5333287,141.729 C54.8433287,141.275 55.3733287,140.687 56.0333287,140.541 C56.6933287,140.394 57.0793287,140.311 57.2593287,139.949 C57.2693287,139.211 57.2693287,137.641 57.2593287,135.239 Z M57.4373287,141.469 C57.1683287,141.469 56.8613287,141.739 56.8613287,142.107 C56.8613287,142.475 57.1703287,142.745 57.4373287,142.745 C57.6138273,142.743288 57.7820403,142.669871 57.9033116,142.541621 C58.0245829,142.413372 58.0884835,142.241318 58.0803287,142.065 C58.0803287,141.586 57.7053287,141.47 57.4373287,141.47 L57.4373287,141.469 Z M52.8423287,135.943 C52.4873287,135.943 52.3533287,136.243 52.3533287,136.566 C52.3533287,136.888 52.6113287,137.189 52.9233287,137.189 C53.2333287,137.189 53.5093287,136.871 53.5093287,136.513 C53.5093287,136.156 53.1973287,135.943 52.8423287,135.943 Z" id="Shape" fill="#2A3052" fill-rule="nonzero"></path>
            <path d="M245.926329,117.261 C246.184329,116.177 246.641329,115.012 248.666329,114.959 C250.692329,114.906 251.521329,116.452 251.756329,117.323 C250.276329,116.895 246.773329,117.016 245.926329,117.261 Z M247.211329,116.495 C248.042329,116.406 249.685329,116.406 250.476329,116.618 C250.199329,116.056 249.466329,115.505 248.634329,115.559 C247.802329,115.613 247.455329,115.904 247.211329,116.495 Z M274.039329,125.818 L274.039329,121.742 C274.039329,119.875 273.719329,119.424 271.842329,119.424 C269.965329,119.424 269.950329,121.597 270.142329,122.037 C270.269329,122.331 270.417329,123.223 270.585329,124.713 C270.635329,124.57 271.054329,123.995 271.842329,122.988 C271.139329,123.078 270.766329,122.258 270.766329,121.742 C270.766329,121.226 271.544329,120.192 272.670329,120.682 C273.796329,121.173 273.373329,122.608 272.936329,122.988 C272.645329,123.241 271.969329,124.187 270.909329,125.825 L269.509329,125.818 C269.531329,125.392 269.531329,124.887 269.323329,123.867 C269.186329,123.193 268.742329,122.186 268.852329,121.343 C269.113329,119.333 270.142329,118.777 272.027329,118.675 C273.913329,118.574 275.202329,119.553 275.202329,120.825 L275.202329,125.818 L274.039329,125.818 Z M272.069329,121.323 C271.767329,121.323 271.527329,121.608 271.527329,121.865 C271.527329,122.123 271.700329,122.399 272.069329,122.399 C272.437329,122.399 272.637329,122.142 272.637329,121.825 C272.637329,121.509 272.371329,121.323 272.069329,121.323 Z M252.489329,112.054 C252.997329,112.056 253.259329,112.054 253.405329,112.054 C253.409329,112.507 253.262329,113.049 252.489329,113.694 C251.809329,114.259 250.619329,114.486 249.979329,114.443 L249.971329,114.011 C250.307329,113.973 250.516329,113.797 250.597329,113.481 C250.039329,113.524 249.539329,113.27 249.539329,112.661 C249.539329,112.054 249.929329,111.857 250.449329,111.813 C250.968329,111.768 251.299329,112.229 251.413329,112.563 C251.527329,112.899 251.413329,113.333 251.083329,113.693 C251.920329,113.523 252.489329,112.662 252.489329,112.053 L252.489329,112.054 Z M250.394329,112.281 C250.29329,112.280997 250.196432,112.321339 250.125269,112.393065 C250.054106,112.464792 250.014529,112.561964 250.015329,112.663 C250.015329,112.853 250.197329,113.064 250.395329,113.064 C250.592329,113.064 250.820329,112.967 250.820329,112.663 C250.820329,112.358 250.627329,112.281 250.394329,112.281 Z M258.157329,118.722 L259.289329,118.722 L259.289329,122.995 C259.289329,123.28 258.867329,123.453 258.679329,123.532 C259.314329,123.827 259.532329,124.2 259.532329,124.765 C259.532329,125.33 259.009329,125.994 258.314329,125.994 C257.620329,125.994 257.290329,125.429 257.198329,125.011 C257.107329,124.593 257.221329,124.192 257.343329,124.101 C256.603329,124.191 255.906329,125.239 255.764329,125.871 L254.677329,125.881 L254.677329,121.053 C253.690329,121.104 253.197329,120.726 253.197329,119.917 C253.197329,118.704 254.260329,118.648 254.540329,118.648 C254.820329,118.648 255.580329,118.821 255.764329,119.748 C255.804329,120.761 255.764329,124.167 255.764329,124.416 C256.036329,124.016 256.501329,123.501 257.080329,123.372 C257.660329,123.244 257.998329,123.172 258.156329,122.854 C258.166329,122.206 258.166329,120.828 258.156329,118.722 L258.157329,118.722 Z M258.312329,124.188 C258.076329,124.188 257.806329,124.424 257.806329,124.747 C257.806329,125.07 258.077329,125.307 258.312329,125.307 C258.467437,125.305555 258.615257,125.240959 258.721685,125.128115 C258.828113,125.015271 258.883955,124.863927 258.876329,124.709 C258.876329,124.289 258.546329,124.188 258.312329,124.188 Z M254.281329,119.339 C253.969329,119.339 253.852329,119.603 253.852329,119.885 C253.852329,120.168 254.078329,120.432 254.352329,120.432 C254.625329,120.432 254.866329,120.152 254.866329,119.839 C254.866329,119.526 254.592329,119.339 254.281329,119.339 Z M265.874329,118.927 C266.092329,118.757 266.476329,118.471 266.476329,117.933 C267.017329,118.059 267.434329,118.16 267.726329,118.237 C267.726329,118.674 267.346329,119.227 266.624329,119.447 C266.819329,119.656 266.924329,119.862 266.989329,120.002 C267.234329,120.46 267.300329,122.415 267.189329,125.868 L266.046329,125.868 C266.051329,125.408 266.051329,125.04 266.046329,124.765 C265.557329,122.737 264.409329,121.156 263.496329,121.565 C262.584329,121.975 262.925329,123.09 262.925329,123.522 C263.497329,123.362 264.505329,123.522 264.610329,124.629 C264.715329,125.736 263.601329,126.081 263.046329,125.973 C262.491329,125.863 261.898329,125.581 261.730329,124.56 C261.563329,123.54 261.520329,120.985 263.280329,120.754 C265.040329,120.523 265.695329,122.23 266.046329,122.645 C266.151329,120.368 265.967329,119.205 264.048329,119.388 C262.128329,119.572 261.985329,120.278 261.851329,120.57 C261.601329,120.374 261.375329,120.203 261.171329,120.057 C261.789329,119.104 262.791329,118.627 264.181329,118.627 C264.924329,118.627 265.470329,118.75 265.874329,118.927 Z M263.355329,124.187 C263.024329,124.187 262.856329,124.466 262.856329,124.716 C262.856329,124.966 263.050329,125.244 263.356329,125.244 C263.661329,125.244 263.863329,124.875 263.863329,124.665 C263.854087,124.393308 263.627064,124.180139 263.355329,124.188 L263.355329,124.187 Z M250.267329,118.76 C250.485329,118.59 250.868329,118.304 250.868329,117.767 C251.410329,117.893 251.826329,117.994 252.118329,118.07 C252.118329,118.507 251.738329,119.06 251.017329,119.28 C251.211329,119.49 251.317329,119.695 251.381329,119.836 C251.626329,120.293 251.693329,122.248 251.581329,125.701 L250.439329,125.701 C250.444329,125.241 250.444329,124.874 250.439329,124.598 C249.949329,122.57 248.802329,120.99 247.889329,121.399 C246.977329,121.809 247.317329,122.924 247.317329,123.355 C247.889329,123.196 248.897329,123.355 249.003329,124.463 C249.107329,125.57 247.993329,125.915 247.439329,125.806 C246.883329,125.697 246.291329,125.414 246.123329,124.394 C245.955329,123.374 245.913329,120.818 247.673329,120.587 C249.432329,120.357 250.088329,122.063 250.439329,122.479 C250.544329,120.201 250.359329,119.038 248.440329,119.221 C246.520329,119.405 246.377329,120.111 246.243329,120.404 C245.993329,120.207 245.767329,120.036 245.563329,119.891 C246.181329,118.938 247.184329,118.461 248.573329,118.461 C249.316329,118.461 249.863329,118.584 250.266329,118.761 L250.267329,118.76 Z M247.748329,124.021 C247.416329,124.021 247.248329,124.299 247.248329,124.549 C247.248329,124.799 247.442329,125.077 247.748329,125.077 C248.054329,125.077 248.256329,124.709 248.256329,124.499 C248.247625,124.226913 248.020442,124.013146 247.748329,124.021 Z M266.228329,129.427 C266.225533,129.175341 266.225533,128.923659 266.228329,128.672 C265.301329,128.778 264.887329,128.186 264.887329,127.612 C264.887329,127.038 265.237329,126.648 266.032329,126.576 C266.829329,126.503 267.263329,127.165 267.322329,127.612 C267.360329,127.91 267.379329,128.515 267.379329,129.427 L266.229329,129.427 L266.228329,129.427 Z M266.003329,127.146 C265.783329,127.146 265.597329,127.146 265.543329,127.658 C265.491329,128.171 265.852329,128.198 266.086329,128.198 C266.320329,128.198 266.586329,128.066 266.586329,127.658 C266.586329,127.25 266.223329,127.146 266.003329,127.146 Z" id="Shape" fill="#2A3052" fill-rule="nonzero"></path>
            <path d="M172.853329,164.842 L170.694329,164.842 L170.694329,156.424 L172.853329,156.424 L172.853329,164.842 Z M172.853329,169.272 L170.694329,169.272 L170.694329,167.01 L172.853329,167.01 L172.853329,169.272 Z" id="Shape" fill="#FFFFFF" fill-rule="nonzero"></path>
            <path d="M138.150329,155.845 L140.750329,155.845 C140.616329,157.547 139.568329,158.617 137.607329,159.053 C138.687329,159.368 139.251329,160.119 139.251329,161.273 C139.251329,163.097 139.241329,165.273 139.251329,167.058 C139.251329,170.044 138.544329,170.35 136.221329,170.452 C134.671329,170.52 132.241329,170.52 128.931329,170.452 L128.931329,168.814 L130.444329,168.814 L130.444329,165.857 C130.599329,164.215 133.381329,162.132 133.381329,160.093 C133.381329,158.055 130.976329,156.937 129.697329,158.353 C130.769329,158.415 131.669329,159.359 131.748329,160.72 C131.748329,162.142 130.706329,162.885 129.498329,162.885 C128.290329,162.885 126.987329,162.068 126.987329,160.4 C126.987329,158.733 127.727329,157.683 128.932329,156.928 C130.137329,156.173 134.247329,155.747 135.181329,159.053 C136.115329,162.359 132.691329,164.197 132.691329,166.119 L132.691329,168.814 L135.848329,168.814 C136.774329,168.814 137.027329,168.057 137.027329,166.654 C137.027329,165.729 137.027329,162.691 136.849329,160.72 C136.762329,159.758 135.929329,159.467 135.637329,159.467 C135.456329,158.958 135.451329,158.857 135.340329,158.476 C137.019329,158.322 137.956329,157.445 138.150329,155.845 Z M129.406329,159.635 C128.915329,159.635 128.501329,160.031 128.501329,160.668 C128.501329,161.305 128.976329,161.701 129.406329,161.701 C129.836329,161.701 130.476329,161.351 130.476329,160.643 C130.476329,159.935 129.897329,159.635 129.406329,159.635 Z M151.840329,156.573 L154.035329,156.573 L154.035329,164.853 C154.035329,165.406 153.218329,165.741 152.853329,165.894 C154.084329,166.465 154.506329,167.188 154.506329,168.284 C154.506329,169.379 153.492329,170.664 152.146329,170.664 C150.801329,170.664 150.162329,169.569 149.984329,168.759 C149.807329,167.949 150.029329,167.174 150.264329,166.995 C148.831329,167.172 147.480329,169.202 147.206329,170.425 L145.099329,170.445 L145.099329,161.09 C143.187329,161.19 142.231329,160.456 142.231329,158.89 C142.231329,156.54 144.291329,156.43 144.834329,156.43 C145.377329,156.43 146.848329,156.766 147.206329,158.562 C147.283329,160.526 147.206329,167.123 147.206329,167.606 C147.732329,166.834 148.634329,165.834 149.756329,165.585 C150.878329,165.335 151.534329,165.195 151.840329,164.58 C151.858329,163.324 151.858329,160.656 151.840329,156.573 Z M152.141329,167.164 C151.686329,167.164 151.162329,167.622 151.162329,168.248 C151.162329,168.874 151.687329,169.332 152.142329,169.332 C152.595329,169.332 153.236329,168.989 153.236329,168.175 C153.236329,167.362 152.596329,167.165 152.141329,167.165 L152.141329,167.164 Z M144.331329,157.77 C143.728329,157.77 143.501329,158.28 143.501329,158.828 C143.501329,159.376 143.939329,159.887 144.468329,159.887 C144.998329,159.887 145.465329,159.347 145.465329,158.739 C145.465329,158.131 144.934329,157.769 144.331329,157.769 L144.331329,157.77 Z M165.052329,157.749 L166.980329,158.064 C166.103329,161.26 163.956329,162.645 160.542329,162.22 C155.420329,161.583 157.310329,157.085 159.284329,157.26 C161.259329,157.437 161.712329,158.576 161.712329,159.323 C161.712329,160.07 161.637329,160.348 160.734329,161.021 C163.266329,161.401 164.705329,160.311 165.052329,157.749 Z M159.394329,158.359 C158.852329,158.359 158.428329,158.884 158.428329,159.406 C158.428329,159.928 158.905329,160.454 159.394329,160.454 C159.883329,160.454 160.502329,160.094 160.502329,159.38 C160.502329,158.665 159.935329,158.359 159.394329,158.359 Z M165.052329,165.092 L166.980329,165.407 C166.103329,168.603 163.956329,169.988 160.542329,169.563 C155.420329,168.925 157.310329,164.428 159.284329,164.603 C161.259329,164.78 161.712329,165.919 161.712329,166.666 C161.712329,167.413 161.637329,167.691 160.734329,168.364 C163.266329,168.744 164.705329,167.654 165.052329,165.092 Z M159.394329,165.702 C158.852329,165.702 158.428329,166.227 158.428329,166.749 C158.428329,167.271 158.905329,167.797 159.394329,167.797 C159.883329,167.797 160.502329,167.437 160.502329,166.723 C160.502329,166.008 159.935329,165.702 159.394329,165.702 Z" id="Shape" fill="#FFFFFF" fill-rule="nonzero"></path>
        </g>
    </g>
</svg>