<?xml version="1.0" encoding="UTF-8"?>
<svg width="299px" height="197px" viewBox="0 0 299 197" version="1.1" xmlns="http://www.w3.org/2000/svg" xmlns:xlink="http://www.w3.org/1999/xlink">
    <!-- Generator: Sketch 52.6 (67491) - http://www.bohemiancoding.com/sketch -->
    <title>high-low</title>
    <desc>Created with Sketch.</desc>
    <g id="Page-1" stroke="none" stroke-width="1" fill="none" fill-rule="evenodd">
        <g id="high-low">
            <g id="Group">
                <polygon id="Shape" fill="#F1F2F2" points="0 0 299 0 299 197 0 197"></polygon>
                <path d="M1.98671096,1.9798995 L1.98671096,195.020101 L297.013289,195.020101 L297.013289,1.9798995 L1.98671096,1.9798995 Z M299,0 L299,197 L0,197 L0,0 L299,0 Z" id="Shape" fill="#C2C2C2" fill-rule="nonzero"></path>
                <path d="M4.887,56.1681983 L4.887,54.9623677 L294.54325,54.9623677 L294.54325,56.1681983 L4.887,56.1681983 Z M4.887,96.4974436 L4.887,95.291613 L294.54325,95.291613 L294.54325,96.4974436 L4.887,96.4974436 Z M4.887,136.826689 L4.887,135.620859 L294.54325,135.620859 L294.54325,136.826689 L4.887,136.826689 Z M4.887,177.118764 L4.887,175.912934 L294.54325,175.912934 L294.54325,177.118764 L4.887,177.118764 Z M39.2670847,35.4192453 L40.4729153,35.4192453 L40.4729153,194.283019 L39.2670847,194.283019 L39.2670847,35.4192453 Z M75.9319597,35.4192453 L77.1377903,35.4192453 L77.1377903,194.283019 L75.9319597,194.283019 L75.9319597,35.4192453 Z M112.55946,35.4192453 L113.76529,35.4192453 L113.76529,194.283019 L112.55946,194.283019 L112.55946,35.4192453 Z M149.224335,35.4192453 L150.430165,35.4192453 L150.430165,194.283019 L149.224335,194.283019 L149.224335,35.4192453 Z M185.851835,35.4192453 L187.057665,35.4192453 L187.057665,194.283019 L185.851835,194.283019 L185.851835,35.4192453 Z M222.479335,35.4192453 L223.685165,35.4192453 L223.685165,194.283019 L222.479335,194.283019 L222.479335,35.4192453 Z M4.887,116.643481 L4.887,115.437651 L294.54325,115.437651 L294.54325,116.643481 L4.887,116.643481 Z" id="Shape-2" fill="#DFDEDE" fill-rule="nonzero"></path>
                <path d="M4.887,65.1614382 L4.887,64.0336562 L12.3557552,64.0336562 L12.3557552,65.1614382 L4.887,65.1614382 Z M19.8245105,65.1614382 L19.8245105,64.0336562 L27.2932657,64.0336562 L27.2932657,65.1614382 L19.8245105,65.1614382 Z M34.762021,65.1614382 L34.762021,64.0336562 L42.2307762,64.0336562 L42.2307762,65.1614382 L34.762021,65.1614382 Z M49.6995315,65.1614382 L49.6995315,64.0336562 L57.1682867,64.0336562 L57.1682867,65.1614382 L49.6995315,65.1614382 Z M64.637042,65.1614382 L64.637042,64.0336562 L72.1057972,64.0336562 L72.1057972,65.1614382 L64.637042,65.1614382 Z M79.5745525,65.1614382 L79.5745525,64.0336562 L87.0433077,64.0336562 L87.0433077,65.1614382 L79.5745525,65.1614382 Z M94.5120629,65.1614382 L94.5120629,64.0336562 L101.980818,64.0336562 L101.980818,65.1614382 L94.5120629,65.1614382 Z M109.449573,65.1614382 L109.449573,64.0336562 L116.918329,64.0336562 L116.918329,65.1614382 L109.449573,65.1614382 Z M124.387084,65.1614382 L124.387084,64.0336562 L131.855839,64.0336562 L131.855839,65.1614382 L124.387084,65.1614382 Z M139.324594,65.1614382 L139.324594,64.0336562 L146.79335,64.0336562 L146.79335,65.1614382 L139.324594,65.1614382 Z M154.262105,65.1614382 L154.262105,64.0336562 L161.73086,64.0336562 L161.73086,65.1614382 L154.262105,65.1614382 Z M169.199615,65.1614382 L169.199615,64.0336562 L176.668371,64.0336562 L176.668371,65.1614382 L169.199615,65.1614382 Z M184.137126,65.1614382 L184.137126,64.0336562 L191.605881,64.0336562 L191.605881,65.1614382 L184.137126,65.1614382 Z M199.074636,65.1614382 L199.074636,64.0336562 L206.543392,64.0336562 L206.543392,65.1614382 L199.074636,65.1614382 Z M214.012147,65.1614382 L214.012147,64.0336562 L221.480902,64.0336562 L221.480902,65.1614382 L214.012147,65.1614382 Z M228.949657,65.1614382 L228.949657,64.0336562 L236.418413,64.0336562 L236.418413,65.1614382 L228.949657,65.1614382 Z M243.887168,65.1614382 L243.887168,64.0336562 L251.355923,64.0336562 L251.355923,65.1614382 L243.887168,65.1614382 Z M258.824678,65.1614382 L258.824678,64.0336562 L266.293434,64.0336562 L266.293434,65.1614382 L258.824678,65.1614382 Z M273.762189,65.1614382 L273.762189,64.0336562 L281.230944,64.0336562 L281.230944,65.1614382 L273.762189,65.1614382 Z M288.699699,65.1614382 L288.699699,64.0336562 L294.54325,64.0336562 L294.54325,65.1614382 L288.699699,65.1614382 Z" id="Shape-3" fill="#15212D" fill-rule="nonzero"></path>
                <polygon id="Path" fill="#2A3052" fill-rule="nonzero" points="240.45671 35.4192453 241.66254 35.4192453 241.66254 194.283019 240.45671 194.283019"></polygon>
                <path d="M4.887,157.677099 L4.887,156.549317 L12.3557552,156.549317 L12.3557552,157.677099 L4.887,157.677099 Z M19.8245105,157.677099 L19.8245105,156.549317 L27.2932657,156.549317 L27.2932657,157.677099 L19.8245105,157.677099 Z M34.762021,157.677099 L34.762021,156.549317 L42.2307762,156.549317 L42.2307762,157.677099 L34.762021,157.677099 Z M49.6995315,157.677099 L49.6995315,156.549317 L57.1682867,156.549317 L57.1682867,157.677099 L49.6995315,157.677099 Z M64.637042,157.677099 L64.637042,156.549317 L72.1057972,156.549317 L72.1057972,157.677099 L64.637042,157.677099 Z M79.5745525,157.677099 L79.5745525,156.549317 L87.0433077,156.549317 L87.0433077,157.677099 L79.5745525,157.677099 Z M94.5120629,157.677099 L94.5120629,156.549317 L101.980818,156.549317 L101.980818,157.677099 L94.5120629,157.677099 Z M109.449573,157.677099 L109.449573,156.549317 L116.918329,156.549317 L116.918329,157.677099 L109.449573,157.677099 Z M124.387084,157.677099 L124.387084,156.549317 L131.855839,156.549317 L131.855839,157.677099 L124.387084,157.677099 Z M139.324594,157.677099 L139.324594,156.549317 L146.79335,156.549317 L146.79335,157.677099 L139.324594,157.677099 Z M154.262105,157.677099 L154.262105,156.549317 L161.73086,156.549317 L161.73086,157.677099 L154.262105,157.677099 Z M169.199615,157.677099 L169.199615,156.549317 L176.668371,156.549317 L176.668371,157.677099 L169.199615,157.677099 Z M184.137126,157.677099 L184.137126,156.549317 L191.605881,156.549317 L191.605881,157.677099 L184.137126,157.677099 Z M199.074636,157.677099 L199.074636,156.549317 L206.543392,156.549317 L206.543392,157.677099 L199.074636,157.677099 Z M214.012147,157.677099 L214.012147,156.549317 L221.480902,156.549317 L221.480902,157.677099 L214.012147,157.677099 Z M228.949657,157.677099 L228.949657,156.549317 L236.418413,156.549317 L236.418413,157.677099 L228.949657,157.677099 Z M243.887168,157.677099 L243.887168,156.549317 L251.355923,156.549317 L251.355923,157.677099 L243.887168,157.677099 Z M258.824678,157.677099 L258.824678,156.549317 L266.293434,156.549317 L266.293434,157.677099 L258.824678,157.677099 Z M273.762189,157.677099 L273.762189,156.549317 L281.230944,156.549317 L281.230944,157.677099 L273.762189,157.677099 Z M288.699699,157.677099 L288.699699,156.549317 L294.54325,156.549317 L294.54325,157.677099 L288.699699,157.677099 Z" id="Path-2" fill="#15212D" fill-rule="nonzero"></path>
                <polygon id="Shape-4" fill="#C2C2C2" fill-rule="nonzero" points="2.794 35.4358286 2.794 33.023794 296.63625 33.023794 296.63625 35.4358286"></polygon>
                <path d="M56.6412045,102.228668 L21.9184493,117.693023 C21.0058223,118.099477 19.9364962,117.689142 19.5300426,116.776515 C19.123589,115.863888 19.5339236,114.794562 20.4465507,114.388109 L56.1920007,98.4682786 C56.8186454,98.1891919 57.5492377,98.2885757 58.0785624,98.7249108 L83.037108,119.298844 L125.345574,64.0442066 C126.224621,62.8961762 128.02865,63.1924409 128.494361,64.5613128 L158.380193,152.405232 L174.764402,108.178915 C174.874246,107.882411 175.059891,107.619878 175.302829,107.41749 L202.657592,84.6286784 C203.274242,84.1149571 204.155659,84.0689828 204.822408,84.5157626 L241.748908,109.259706 C242.578852,109.81584 242.800819,110.939479 242.244685,111.769423 C241.688551,112.599367 240.564912,112.821334 239.734968,112.2652 L203.933129,88.2748764 L177.989301,109.888261 L160.00391,158.436689 C159.412399,160.03337 157.143524,160.002902 156.595101,158.390914 L126.159764,68.9318244 L84.7696381,122.987114 C84.1467836,123.800559 82.9733241,123.934871 82.1827751,123.283202 L56.6412045,102.228668 Z" id="Shape-5" fill="#2A3052" fill-rule="nonzero"></path>
                <g opacity="0.6" transform="translate(150.500000, 147.962264)" fill="#FFFFFF" id="Oval">
                    <ellipse cx="8.110375" cy="9.3739623" rx="8.110375" ry="8.40037736"></ellipse>
                </g>
                <path d="M158.610375,166.942621 C153.455409,166.942621 149.293983,162.632395 149.293983,157.336226 C149.293983,152.040057 153.455409,147.729831 158.610375,147.729831 C163.765341,147.729831 167.926767,152.040057 167.926767,157.336226 C167.926767,162.632395 163.765341,166.942621 158.610375,166.942621 Z M158.610375,164.530586 C162.413882,164.530586 165.514733,161.318858 165.514733,157.336226 C165.514733,153.353594 162.413882,150.141866 158.610375,150.141866 C154.806868,150.141866 151.706017,153.353594 151.706017,157.336226 C151.706017,161.318858 154.806868,164.530586 158.610375,164.530586 Z" id="Oval-2" fill="#E88024" fill-rule="nonzero"></path>
                <g id="Group-2" opacity="0.6" transform="translate(117.862500, 56.754717)" fill="#FFFFFF">
                    <ellipse id="Oval-3" cx="8.979125" cy="8.40037736" rx="8.110375" ry="8.40037736"></ellipse>
                </g>
                <path d="M126.841625,74.7614889 C121.686659,74.7614889 117.525233,70.4512631 117.525233,65.1550943 C117.525233,59.8589255 121.686659,55.5486997 126.841625,55.5486997 C131.996591,55.5486997 136.158017,59.8589255 136.158017,65.1550943 C136.158017,70.4512631 131.996591,74.7614889 126.841625,74.7614889 Z M126.841625,72.3494544 C130.645132,72.3494544 133.745983,69.1377262 133.745983,65.1550943 C133.745983,61.1724624 130.645132,57.9607342 126.841625,57.9607342 C123.038118,57.9607342 119.937267,61.1724624 119.937267,65.1550943 C119.937267,69.1377262 123.038118,72.3494544 126.841625,72.3494544 Z" id="Oval-4" fill="#E88024" fill-rule="nonzero"></path>
            </g>
            <path d="M8.061,125.622 C8.05388816,127.036658 8.05388816,128.451342 8.061,129.866 C8.88,129.669 9.455,130.416 9.455,130.856 C9.455,131.295 9.279,131.986 8.387,132.058 C7.495,132.13 7,131.531 7,130.796 L7,125.622 L8.06,125.622 L8.061,125.622 Z M8.373,130.475 C8.24237181,130.46872 8.11485578,130.516123 8.02005046,130.606207 C7.92524515,130.696291 7.87139517,130.821222 7.871,130.952 C7.871,131.168 7.982,131.429 8.373,131.429 C8.765,131.429 8.863,131.148 8.863,130.926 C8.863,130.704 8.716,130.475 8.373,130.475 Z M14.4,125.62 C14.654,125.758 14.908,125.88 15.16,125.985 C14.944,126.441 14.555,126.669 13.996,126.669 C13.156,126.669 12.812,126.246 12.015,126.297 C11.217,126.349 11.131,126.787 10.985,127.017 C11.4529173,127.057226 11.920006,127.106568 12.386,127.165 C12.836,127.227 14.139,127.549 14.324,128.229 C14.483,128.772 14.4,130.286 14.4,130.836 C14.4,131.386 14.023,132.049 13.019,132.049 C12.015,132.049 11.906,131.203 11.906,130.909 C11.906,130.616 12.226,129.59 13.313,129.896 C13.323,129.218 13.326,128.807 13.321,128.664 C13.313,128.45 13.298,128.066 12.602,127.89 C11.906,127.715 10.702,127.555 9.922,127.645 C9.982,126.935 10.188,126.169 10.984,125.776 C11.78,125.383 12.804,125.726 13.321,125.856 C13.837,125.985 14.087,125.856 14.4,125.621 L14.4,125.62 Z M12.972,130.462 C12.682,130.462 12.498,130.762 12.498,130.947 C12.498,131.133 12.694,131.432 12.972,131.432 C13.249,131.432 13.498,131.267 13.498,130.934 C13.498,130.602 13.26,130.462 12.972,130.462 Z M9.239,124.574 C9.47,123.616 9.879,122.587 11.693,122.54 C13.507,122.493 14.249,123.86 14.459,124.628 C13.135,124.25 9.998,124.358 9.239,124.574 Z M10.389,123.897 C11.134,123.818 12.605,123.818 13.313,124.005 C13.065,123.509 12.409,123.022 11.663,123.07 C10.919,123.117 10.608,123.375 10.389,123.897 Z M13.386,120.002 L14.345,120.002 L14.345,121.814 L13.385,121.814 L13.386,120.002 Z M20.483,125.64 L21.55,125.64 L21.55,130.887 C21.55,131.4 21.308,131.796 21.025,131.909 C20.858,131.976 20.723,132.071 20.483,131.985 C19.866,131.763 19.795,130.353 18.195,129.984 C18.189,130.244 18.183,130.682 18.179,131.299 C18.024,132.089 17.229,132.15 16.572,131.985 C15.915,131.819 15.469,130.965 15.742,130.165 C16.017,129.361 16.454,129.211 17.085,129.139 C17.108,128.639 17.115,128.163 17.104,127.711 C16.087,127.876 15.607,127.161 15.682,126.539 C15.757,125.917 16.217,125.556 16.915,125.556 C17.612,125.556 18.195,126.112 18.179,126.719 C18.163,127.327 18.169,128.21 18.195,129.201 C18.774,129.299 19.156,129.485 19.636,129.901 C19.772,130.02 20.013,130.266 20.382,130.586 C20.453,130.488 20.483,130.306 20.483,129.808 L20.483,125.639 L20.483,125.64 Z M16.773,126.173 C16.529,126.173 16.303,126.282 16.303,126.663 C16.303,127.043 16.55,127.153 16.773,127.153 C16.997,127.153 17.298,127 17.298,126.668 C17.298,126.336 17.018,126.173 16.773,126.173 Z M17.111,129.941 C17.051,129.873 16.856,129.871 16.676,130.011 C16.496,130.153 16.345,130.562 16.519,131.064 C16.693,131.566 17.111,131.302 17.111,131.064 L17.111,129.941 Z M27.774,131.97 L27.774,128.284 C27.774,126.634 27.24,126.467 27.058,126.467 C26.875,126.467 26.352,126.854 25.973,126.854 C25.594,126.854 25.472,126.674 24.973,126.467 C24.138,126.745 24.113,128.241 24.285,128.629 C24.399,128.889 24.532,129.677 24.682,130.994 C24.726,130.867 25.102,130.359 25.807,129.469 C25.177,129.549 24.844,128.824 24.844,128.369 C24.844,127.913 25.541,126.999 26.549,127.432 C27.557,127.866 27.179,129.134 26.787,129.469 C26.527,129.693 25.921,130.529 24.972,131.976 L23.718,131.969 C23.738,131.593 23.738,131.147 23.552,130.246 C23.429,129.651 23.13,128.769 23.13,128.016 C23.13,126.122 24.7,125.53 25.078,125.53 C25.464,125.677 25.751,126.1 26.05,126.1 C26.348,126.1 26.509,125.826 27.058,125.53 C28.295,125.53 28.816,127.082 28.816,127.56 L28.816,131.97 L27.774,131.97 Z M26.011,127.999 C25.7499032,128.009484 25.5397329,128.217054 25.526,128.478 C25.5230212,128.606184 25.5736781,128.729795 25.6657552,128.819024 C25.7578322,128.908253 25.8829726,128.955003 26.011,128.948 C26.341,128.948 26.519,128.722 26.519,128.442 C26.519,128.162 26.281,127.999 26.011,127.999 Z M28.82,122.1 C29.372,122.103 29.658,122.1 29.816,122.1 C29.82,122.587 29.661,123.169 28.82,123.86 C28.081,124.466 26.786,124.71 26.09,124.663 L26.083,124.2 C26.449,124.16 26.676,123.97 26.763,123.632 C26.157,123.678 25.613,123.405 25.613,122.752 C25.613,122.101 26.037,121.89 26.602,121.842 C27.167,121.795 27.526,122.289 27.65,122.648 C27.774,123.008 27.65,123.474 27.292,123.859 C28.202,123.676 28.82,122.753 28.82,122.101 L28.82,122.1 Z M26.543,122.344 C26.4338341,122.343199 26.3288782,122.386073 26.2514966,122.46308 C26.1741149,122.540086 26.1307301,122.644831 26.131,122.754 C26.131,122.958 26.328,123.184 26.543,123.184 C26.758,123.184 27.006,123.081 27.006,122.754 C27.006,122.428 26.796,122.344 26.543,122.344 Z M34.39,125.637 L35.404,125.637 L35.404,129.412 C35.404,129.665 35.026,129.817 34.857,129.887 C35.427,130.147 35.621,130.477 35.621,130.977 C35.621,131.476 35.153,132.062 34.531,132.062 C33.909,132.062 33.614,131.562 33.532,131.193 C33.45,130.824 33.552,130.47 33.662,130.389 C32.999,130.469 32.375,131.395 32.248,131.953 L31.274,131.962 L31.274,127.696 C30.391,127.742 29.949,127.408 29.949,126.693 C29.949,125.621 30.901,125.572 31.152,125.572 C31.403,125.572 32.082,125.725 32.248,126.544 C32.284,127.439 32.248,130.448 32.248,130.668 C32.491,130.315 32.908,129.86 33.426,129.746 C33.945,129.632 34.248,129.568 34.39,129.288 C34.398,128.715 34.398,127.498 34.39,125.637 Z M34.529,130.467 C34.319,130.467 34.076,130.675 34.076,130.96 C34.076,131.246 34.319,131.454 34.529,131.454 C34.739,131.454 35.034,131.298 35.034,130.927 C35.034,130.557 34.739,130.467 34.529,130.467 Z M30.919,126.182 C30.641,126.182 30.536,126.415 30.536,126.665 C30.536,126.915 30.738,127.148 30.983,127.148 C31.227,127.148 31.443,126.901 31.443,126.624 C31.443,126.347 31.198,126.182 30.92,126.182 L30.919,126.182 Z" id="Shape" fill="#2A3052" fill-rule="nonzero"></path>
            <path d="M124.851,39.528 C125.031,39.721 125.177,39.964 125.291,40.257 C125.457,40.673 125.541,41.1 125.541,41.537 L125.541,48 L123.977,48 L123.977,47.14 C123.977,46.325 123.715,45.384 123.189,44.316 C122.519,42.963 121.79,42.286 121.002,42.286 C120.486,42.286 120.133,42.573 119.945,43.146 C119.862,43.414 119.82,43.751 119.82,44.158 C119.82,44.395 119.838,44.653 119.873,44.933 C120.078,44.859 120.275,44.821 120.463,44.821 C120.923,44.821 121.311,44.981 121.626,45.298 C121.941,45.615 122.099,46.004 122.099,46.463 C122.099,46.813 121.983,47.149 121.751,47.468 C121.506,47.814 121.217,48.008 120.884,48.053 C120.621,48.083 120.442,48.099 120.345,48.099 C119.776,48.099 119.29,47.893 118.887,47.481 C118.458,47.052 118.244,46.223 118.244,44.992 C118.244,43.652 118.458,42.707 118.887,42.155 C119.356,41.538 119.975,41.229 120.746,41.229 C121.184,41.229 121.646,41.345 122.132,41.577 C122.697,41.844 123.231,42.42 123.734,43.304 C123.791,43.405 123.872,43.558 123.977,43.764 L123.977,41.794 C123.977,41.111 123.859,40.596 123.623,40.25 C123.263,39.734 122.583,39.476 121.58,39.476 C120.678,39.476 119.971,39.634 119.459,39.952 C118.947,40.269 118.619,40.627 118.474,41.025 L117.614,40.355 L118.178,39.653 C118.485,39.359 118.791,39.134 119.098,38.976 C119.465646,38.7970244 119.853409,38.6627344 120.253,38.576 C120.702169,38.4796358 121.160634,38.4333532 121.62,38.438 C122.517,38.438 123.246,38.558 123.807,38.799 C124.004,38.663 124.155,38.517 124.26,38.359 C124.413,38.162 124.49,37.899 124.49,37.571 L126.158,37.998 C126.158,38.501 125.875,38.933 125.31,39.292 C125.153,39.392 125,39.472 124.85,39.528 L124.851,39.528 Z M121.173,46.463 C121.175683,46.2729021 121.102229,46.0896263 120.969,45.954 C120.838734,45.8142472 120.655003,45.7367525 120.464,45.741 C120.277701,45.7401018 120.100258,45.8204259 119.978,45.961 C119.705002,46.2403822 119.705002,46.6866178 119.978,46.966 C120.102248,47.1030081 120.27905,47.1804953 120.464,47.179 C120.661,47.179 120.828,47.109 120.966,46.969 C121.101227,46.8356936 121.176021,46.6528625 121.173,46.463 Z M121.383,49.34 C120.989,49.34 120.763,49.524 120.707,49.892 C120.707,50.382 120.932,50.627 121.383,50.627 C121.813,50.627 122.027,50.413 122.027,49.984 C122.027,49.944 122.025,49.914 122.02,49.892 C122.02,49.524 121.808,49.34 121.383,49.34 Z M121.553,52.374 L121.553,51.16 C121.461456,51.187023 121.366448,51.2004992 121.271,51.2 C120.917,51.2 120.575,51.053 120.247,50.76 C120.054,50.589 119.957,50.328 119.957,49.978 C119.957,49.645 120.081,49.35 120.326,49.091 C120.597,48.816 120.956,48.678 121.403,48.678 C122.147,48.678 122.618,48.947 122.815,49.485 C122.894,49.705 122.933,50 122.933,50.372 L122.933,51.469 L124.063,51.469 L124.063,48.849 L125.429,48.849 L125.429,52.375 L121.554,52.375 L121.553,52.374 Z M131.799,41.695 C131.532,41.722 131.379,41.735 131.339,41.735 C130.884,41.735 130.496,41.583 130.174,41.278 C129.856696,40.9850392 129.680742,40.569744 129.691,40.138 C129.691,39.784 129.809,39.445 130.046,39.121 C130.291,38.775 130.584,38.581 130.926,38.536 C131.197,38.506 131.386,38.49 131.49,38.49 C132.077,38.49 132.54,38.683 132.876,39.068 C133.196,39.436 133.356,39.889 133.356,40.428 L133.356,48 L131.353,48 C131.262426,47.8249764 131.168071,47.6519358 131.07,47.481 C131.026,47.402 130.853,47.142 130.551,46.7 C130.373618,46.4212035 130.19193,46.1451704 130.006,45.872 C129.629348,45.351699 129.217023,44.8581788 128.772,44.395 C128.636,44.255 128.439,44.06 128.18,43.81 L128.154,43.784 C127.774,43.416 127.517,43.194 127.386,43.12 C127.272154,43.0540658 127.158154,42.988399 127.044,42.923 L127.484,42.227 C127.704,42.227 128.332,42.685 129.369,43.6 C129.746,43.933 130.129,44.296 130.519,44.69 C130.742,44.93 131.035,45.292 131.399,45.774 L131.799,46.319 L131.799,41.695 Z M130.604,40.139 C130.604,40.34 130.676,40.509 130.821,40.645 C130.96016,40.7782975 131.146326,40.8512543 131.339,40.848 C131.525461,40.8472251 131.703111,40.7685513 131.829,40.631 C131.963992,40.5028175 132.040909,40.3251518 132.042,40.139 C132.041519,39.9492291 131.966033,39.7673439 131.832,39.633 C131.707405,39.4911985 131.527764,39.409941 131.339,39.41 C131.134,39.41 130.959,39.48 130.817,39.62 C130.676749,39.755739 130.599539,39.9438703 130.604,40.139 Z M154.131,182.4 C154.131,182.487 154.151,182.566 154.191,182.637 C154.265387,182.777772 154.387274,182.887611 154.535,182.947 C154.608,182.977 154.678,182.992 154.745,182.992 C154.903569,182.993179 155.056364,182.932563 155.171,182.823 C155.284643,182.711977 155.3488,182.559874 155.349,182.401 C155.349,182.018 155.148,181.826 154.746,181.826 C154.665512,181.825561 154.585816,181.841909 154.512,181.874 C154.440549,181.904932 154.374931,181.947888 154.318,182.001 C154.261709,182.053037 154.215591,182.115093 154.182,182.184 C154.1489,182.251537 154.131792,182.325788 154.132,182.401 L154.131,182.4 Z M156.594,186.817 L156.594,181.432 C156.597429,181.217784 156.564981,181.004504 156.498,180.801 C156.443501,180.632075 156.351154,180.477823 156.228,180.35 L156.165,180.305 L155.996,180.192 L155.991,180.192 C155.958418,180.214318 155.924337,180.234366 155.889,180.252 C155.818,180.291 155.717,180.342 155.585,180.406 C155.436946,180.485156 155.281121,180.548826 155.12,180.596 C154.981956,180.636802 154.838938,180.658339 154.695,180.66 C154.447,180.66 154.175,180.575 153.878,180.406 C153.657,180.282 153.546,180.216 153.546,180.209 C153.478373,180.235682 153.413967,180.269898 153.354,180.311 C153.274838,180.361045 153.204547,180.423902 153.146,180.497 C152.932,180.767 152.825,181.191 152.825,181.77 C152.825,181.939 152.833,182.104 152.85,182.265 C152.867,182.427 152.894,182.585 152.932,182.739 L153.135,183.669 L153.135,183.663 C153.18,183.865 153.219,184.055 153.253,184.232 C153.285521,184.399978 153.311872,184.569091 153.332,184.739 L153.487,184.527 C153.537,184.457 153.595,184.386 153.659,184.31 L154.081,183.787 C153.9975,183.761829 153.91778,183.725501 153.844,183.679 C153.768271,183.630693 153.696691,183.576172 153.63,183.516 L153.636,183.516 C153.309,183.216 153.146,182.84 153.146,182.389 C153.146,181.837 153.376,181.409 153.839,181.105 C154.105,180.932 154.406,180.845 154.74,180.845 L154.864,180.845 L155.427,180.925 C155.657,180.992 155.861,181.169 156.041,181.455 C156.248,181.788 156.351,182.132 156.351,182.485 C156.351,182.797 156.171,183.212 155.811,183.73 C155.511237,184.122649 155.208898,184.513325 154.904,184.902 C154.862,184.955 154.812,185.022 154.751,185.105 C154.691,185.187 154.624,185.283 154.549,185.392 L154.137,185.978 C153.955344,186.246902 153.791654,186.527514 153.647,186.818 L151.777,186.818 L151.777,186.753 C151.777,186.717 151.777,186.678 151.78,186.637 C151.781889,186.597694 151.78289,186.558351 151.783,186.519 L151.783,186.439 C151.786158,186.411109 151.787827,186.383069 151.788,186.355 L151.788,186.293 C151.788,186.072 151.778,185.834 151.758,185.581 C151.737,185.327 151.704,185.054 151.658,184.761 L151.664,184.778 C151.589624,184.472717 151.518287,184.166702 151.45,183.86 C151.368,183.492 151.276,183.06 151.174,182.564 C151.114765,182.286318 151.086592,182.00291 151.09,181.719 C151.09,181.279 151.182,180.842 151.366,180.406 C151.568,179.936 151.837,179.571 152.171,179.308 C152.423,179.12 152.666,178.971 152.901,178.86 C153.136,178.75 153.364,178.679 153.585,178.649 L153.58,178.654 C153.741,178.628 153.978,178.754 154.29,179.032 L154.284,179.032 C154.517,179.231 154.684,179.33 154.785,179.33 C154.913,179.33 155.093,179.233 155.326,179.037 C155.642,178.778 155.863,178.649 155.991,178.649 C156.111,178.649 156.237,178.665 156.368,178.697 C156.5,178.729 156.637,178.78 156.779,178.852 C157.040991,178.985528 157.274364,179.168965 157.466,179.392 C157.617,179.562 157.743,179.728 157.844,179.894 C157.946,180.059 158.028,180.22 158.092,180.378 C158.22,180.716 158.284,181.09 158.284,181.499 L158.284,186.817 L156.594,186.817 Z M156.92,170.39 L158.413,170.39 L158.413,173.1 L156.92,173.1 L156.92,170.39 Z M157.14,175.584 C157.14,175.776 157.193,175.922 157.298,176.024 C157.403,176.124 157.561,176.176 157.771,176.176 C157.848268,176.176389 157.924582,176.158936 157.994,176.125 C158.131162,176.057793 158.239972,175.944021 158.301,175.804 C158.330674,175.734449 158.34598,175.659617 158.346,175.584 C158.346106,175.505783 158.330816,175.428311 158.301,175.356 C158.245612,175.210677 158.136893,175.091945 157.997,175.024 C157.926992,174.988395 157.849542,174.969889 157.771,174.97 C157.604823,174.965986 157.443795,175.02781 157.323,175.142 C157.201251,175.256144 157.134569,175.4172 157.14,175.584 Z M165.821,186.817 L164.109,186.817 L164.109,181.567 C164.109,181.03 164.056,180.673 163.951,180.497 L163.951,180.502 C163.691,180.1 163.266,179.899 162.672,179.899 C162.045,179.899 161.555,180.069 161.202,180.406 C160.984,180.613 160.798,180.964 160.644,181.46 L159.551,180.773 C159.671,180.453 159.819,180.166 159.993,179.911 C160.159896,179.664608 160.358238,179.441053 160.583,179.246 C160.826,179.043 161.126,178.89 161.481,178.786 C161.880053,178.677282 162.292455,178.625437 162.706,178.632 C163.164,178.632 163.586,178.692 163.971,178.812 C164.356,178.932 164.691,179.103 164.976,179.325 C165.25,179.554 165.46,179.838 165.604,180.178 C165.749,180.518 165.821,180.913 165.821,181.364 L165.821,186.817 Z M157.76,174.057 C158.18,174.057 158.535,174.207 158.824,174.508 C159.106,174.798 159.247,175.154 159.247,175.578 C159.247,175.999 159.108,176.358 158.83,176.654 C158.537,176.947 158.18,177.094 157.76,177.094 C157.546,177.094 157.348,177.059 157.168,176.99 C156.982261,176.917032 156.813453,176.806762 156.672,176.666 C156.372,176.373 156.222,176.01 156.222,175.578 C156.222,175.15 156.372,174.79 156.672,174.497 C156.972,174.204 157.335,174.057 157.76,174.057 Z" id="Shape" fill="#2A3052" fill-rule="nonzero"></path>
            <path d="M19.721,22.636 C19.7230045,22.4509325 19.6510038,22.2727308 19.521,22.141 C19.4584756,22.0766959 19.3841119,22.0250827 19.302,21.989 C19.216416,21.950881 19.1236877,21.931449 19.03,21.932 C18.9433709,21.931584 18.8579317,21.9521718 18.781,21.992 C18.7034609,22.0323539 18.6339785,22.086584 18.576,22.152 C18.5160387,22.2184392 18.4676958,22.2945031 18.433,22.377 C18.3608111,22.5442078 18.3608111,22.7337922 18.433,22.901 C18.4994486,23.0627563 18.62341,23.1941981 18.781,23.27 C19.0335404,23.3796194 19.3274831,23.3228169 19.521,23.127 C19.652643,22.9979966 19.7250367,22.8202701 19.721,22.636 Z M23.624,16.098 C23.672,16.173 23.719,16.254 23.763,16.34 C23.807,16.426 23.849,16.518 23.889,16.616 L23.889,16.609 C24.057,17.039 24.141,17.479 24.141,17.929 L24.141,24.355 L22.151,24.355 L22.151,23.28 C22.151,22.545 21.908,21.684 21.421,20.698 C20.823,19.494 20.201,18.892 19.556,18.892 C19.18,18.892 18.923,19.112 18.786,19.549 L18.786,19.543 C18.746,19.658 18.718,19.788 18.703,19.934 C18.6866489,20.0994849 18.6789717,20.2657124 18.68,20.432 L18.68,20.628 C18.68,20.701 18.684,20.773 18.693,20.844 C18.8070537,20.8254602 18.9224507,20.8164291 19.038,20.817 C19.551,20.817 19.983,20.994 20.332,21.348 L20.326,21.348 C20.68,21.702 20.856,22.131 20.856,22.636 C20.856,22.826 20.823,23.014 20.757,23.2 C20.691,23.386 20.597,23.565 20.478,23.738 C20.2,24.123 19.865,24.346 19.476,24.408 C19.224,24.435 19.04,24.448 18.926,24.448 C18.306,24.448 17.781,24.227 17.352,23.784 L17.359,23.784 C16.899,23.324 16.669,22.472 16.669,21.229 C16.669,20.569 16.726,20.001 16.841,19.523 C16.956,19.045 17.12,18.66 17.332,18.368 C17.584,18.045 17.876,17.799 18.208,17.631 C18.54,17.463 18.908,17.379 19.31,17.379 C19.761,17.379 20.24,17.499 20.744,17.737 C21.244,17.981 21.713,18.437 22.151,19.105 L22.151,18.169 C22.151,17.863 22.126,17.6 22.075,17.379 C22.0353336,17.1853188 21.9596927,17.0007955 21.852,16.835 L21.852,16.841 C21.56,16.416 20.978,16.204 20.107,16.204 C19.292,16.204 18.662,16.346 18.215,16.629 C17.772,16.894 17.454,17.301 17.259,17.85 L15.965,16.835 L16.688,15.938 C17.0951399,15.5265748 17.594668,15.2183553 18.145,15.039 C18.342,14.971 18.555,14.907 18.785,14.849 C19.2320173,14.7518629 19.6885827,14.705569 20.146,14.711 C20.562,14.711 20.94,14.736 21.278,14.787 C21.617,14.837 21.923,14.917 22.198,15.023 C22.295,14.934 22.383,14.841 22.463,14.743 C22.578,14.589 22.636,14.279 22.636,13.814 L24.733,14.345 C24.733,15.053 24.423,15.602 23.803,15.992 L23.625,16.098 L23.624,16.098 Z M20.225,25.988 C19.867,25.988 19.648,26.145 19.568,26.459 C19.581,26.95 19.8,27.196 20.225,27.196 C20.628,27.196 20.829,26.995 20.829,26.592 C20.829,26.392 20.783,26.242 20.689,26.141 C20.597,26.039 20.442,25.988 20.225,25.988 Z M20.125,29.128 L20.125,28.006 L20.112,28.006 C19.705,28.006 19.322,27.844 18.964,27.521 C18.8458706,27.4105848 18.7548383,27.2743786 18.698,27.123 C18.6340857,26.9509639 18.6028834,26.7684987 18.606,26.585 C18.606,26.195 18.745,25.855 19.024,25.563 C19.324,25.249 19.729,25.092 20.238,25.092 C21.061,25.092 21.59,25.404 21.825,26.028 C21.865,26.143 21.895,26.278 21.918,26.433 C21.94,26.587 21.951,26.764 21.951,26.963 L21.951,27.76 L22.528,27.76 L22.528,25.251 L24.334,25.251 L24.334,29.127 L20.126,29.127 L20.125,29.128 Z M29.339,20.771 C29.44,20.891 29.558,21.03 29.69,21.189 C29.823,21.349 29.97,21.532 30.128,21.739 L30.128,18.355 C30.0640204,18.35963 30.0000197,18.3639634 29.936,18.368 C29.427,18.368 28.998,18.2 28.648,17.863 C28.296602,17.533583 28.1014365,17.0705648 28.111,16.589 C28.111,16.186 28.241,15.812 28.502,15.467 L28.496,15.474 C28.633,15.274 28.786,15.121 28.954,15.013 C29.122,14.904 29.308,14.834 29.511,14.803 C29.768,14.777 29.958,14.763 30.082,14.763 C30.719,14.763 31.224,14.976 31.595,15.401 C31.945,15.804 32.12,16.293 32.12,16.868 L32.12,24.355 L29.797,24.355 C29.7522085,24.2666775 29.7055312,24.1793242 29.657,24.093 C29.5899017,23.9727555 29.523567,23.8520864 29.458,23.731 C29.4092897,23.6489083 29.3582693,23.5682094 29.305,23.489 C29.225,23.367 29.115,23.204 28.974,23.001 C28.9074214,22.8913572 28.8387421,22.7830038 28.768,22.676 C28.6654536,22.5200296 28.561449,22.3650228 28.456,22.211 C28.306,22.008 28.128,21.784 27.925,21.541 C27.724676,21.3014109 27.5186163,21.0666763 27.307,20.837 L26.743,20.28 L26.717,20.246 L26.717,20.253 C26.372,19.921 26.144,19.724 26.033,19.663 L25.489,19.33 L26.113,18.335 C26.48,18.335 27.181,18.793 28.217,19.709 C28.6035297,20.0495233 28.9777684,20.4037493 29.339,20.771 Z M29.246,16.596 C29.246,16.689 29.264,16.774 29.302,16.851 C29.339391,16.9280169 29.3901819,16.9977698 29.452,17.057 C29.513,17.117 29.587,17.163 29.674,17.197 C29.76,17.23 29.85,17.247 29.943,17.247 C30.027,17.247 30.109,17.227 30.188,17.187 C30.268,17.147 30.338,17.096 30.401,17.034 C30.4619266,16.9733724 30.5113889,16.9022279 30.547,16.824 C30.5808817,16.7527042 30.5989607,16.6749302 30.6,16.596 C30.5999472,16.5075254 30.58049,16.420139 30.543,16.34 C30.4688851,16.1775353 30.3415286,16.0452398 30.182,15.965 C30.1078531,15.9263479 30.0256129,15.9057879 29.942,15.905 C29.7576662,15.9011889 29.5795789,15.971847 29.448,16.101 C29.3137546,16.2300497 29.240373,16.4098711 29.246,16.596 Z M39.698,20.124 L34.811,20.124 L34.811,18.257 L39.698,18.257 L39.698,20.124 Z M45.388,19.151 C45.388,19.253 45.412,19.346 45.458,19.43 C45.5456182,19.5957092 45.6891041,19.7250237 45.863,19.795 C45.949,19.83 46.033,19.848 46.112,19.848 C46.2986277,19.8488819 46.478286,19.777162 46.613,19.648 C46.7493027,19.518492 46.8254128,19.3380025 46.823,19.15 C46.823,18.7 46.585,18.474 46.112,18.474 C46.0171059,18.4732613 45.923102,18.4923346 45.836,18.53 C45.7516437,18.566524 45.674185,18.6172611 45.607,18.68 C45.5410972,18.7415467 45.4871849,18.814786 45.448,18.896 C45.4087139,18.9752757 45.3881849,19.0625241 45.388,19.151 Z M48.289,24.355 L48.289,18.009 C48.289,17.731 48.251,17.483 48.176,17.266 C48.1117968,17.0671036 48.0030335,16.8854895 47.858,16.735 L47.785,16.682 L47.585,16.549 L47.579,16.549 C47.583,16.549 47.543,16.572 47.459,16.619 C47.3411831,16.6826046 47.2218134,16.7432897 47.101,16.801 C46.9264851,16.8939743 46.742847,16.9687029 46.553,17.024 C46.374,17.074 46.207,17.1 46.053,17.1 C45.76,17.1 45.439,17 45.09,16.801 C44.829,16.655 44.698,16.578 44.698,16.569 C44.663,16.578 44.588,16.618 44.472,16.689 C44.3787711,16.7479313 44.2959778,16.8219384 44.227,16.908 C43.975,17.226 43.848,17.726 43.848,18.408 C43.848,18.607 43.858,18.802 43.878,18.992 C43.898,19.182 43.93,19.368 43.975,19.549 L44.214,20.645 L44.214,20.638 C44.267,20.877 44.314,21.1 44.353,21.308 C44.393,21.516 44.423,21.715 44.446,21.906 C44.508,21.822 44.569,21.739 44.628,21.656 C44.688,21.575 44.756,21.49 44.831,21.401 L45.329,20.784 C45.2304203,20.7547957 45.1362359,20.7124128 45.049,20.658 C44.960136,20.6007242 44.876181,20.5361692 44.798,20.465 L44.804,20.465 C44.4268063,20.1283713 44.2159517,19.6434423 44.227,19.138 C44.227,18.488 44.499,17.983 45.043,17.624 C45.3592195,17.4199235 45.7286821,17.313816 46.105,17.319 L46.251,17.319 L46.915,17.412 C47.185,17.492 47.426,17.7 47.639,18.036 C47.882,18.43 48.004,18.835 48.004,19.251 C48.004,19.618 47.791,20.107 47.366,20.718 C47.0126924,21.1803359 46.6563513,21.6403458 46.297,22.098 C46.1535915,22.287348 46.0142267,22.4797248 45.879,22.675 L45.395,23.366 C45.1811088,23.6826078 44.9883562,24.0129931 44.818,24.355 L42.614,24.355 L42.614,24.279 L42.617,24.143 L42.62,24.003 L42.62,23.91 C42.6241294,23.8768168 42.6264662,23.8434349 42.627,23.81 L42.627,23.738 C42.627,23.477 42.615,23.197 42.591,22.898 C42.566,22.599 42.528,22.278 42.474,21.932 L42.481,21.952 C42.411,21.665 42.326,21.304 42.229,20.87 C42.1158995,20.3623603 42.0075614,19.8536713 41.904,19.344 C41.833828,19.0167367 41.8002883,18.6826814 41.804,18.348 C41.804,17.83 41.912,17.315 42.129,16.801 C42.369,16.248 42.685,15.817 43.079,15.507 C43.3473939,15.3028374 43.6354873,15.1259615 43.939,14.979 C44.215,14.849 44.483,14.766 44.745,14.73 L44.738,14.737 C44.928,14.707 45.207,14.854 45.574,15.182 L45.568,15.182 C45.842,15.416 46.038,15.534 46.158,15.534 C46.308,15.534 46.521,15.419 46.796,15.188 C47.167,14.883 47.428,14.73 47.579,14.73 C47.72,14.73 47.869,14.75 48.024,14.787 C48.178,14.824 48.34,14.885 48.508,14.969 C48.6582318,15.0487024 48.8014142,15.141035 48.936,15.245 C49.071,15.349 49.198,15.469 49.318,15.607 C49.495,15.806 49.643,16.003 49.763,16.197 C49.883,16.392 49.979,16.582 50.055,16.768 C50.205,17.166 50.28,17.607 50.28,18.089 L50.28,24.355 L48.289,24.355 Z M48.674,5 L50.433,5 L50.433,8.192 L48.674,8.192 L48.674,5 Z M48.933,11.12 C48.933,11.345 48.995,11.518 49.119,11.637 C49.243,11.757 49.429,11.817 49.676,11.817 C49.769,11.817 49.856,11.797 49.938,11.757 C50.1866222,11.6413335 50.3476542,11.394159 50.353,11.12 C50.353317,11.027385 50.3353044,10.9356227 50.3,10.85 C50.2661351,10.7663971 50.2180969,10.6892654 50.158,10.622 C50.0969491,10.5545033 50.0236548,10.4991933 49.942,10.459 C49.8595398,10.4173237 49.7683934,10.3957364 49.676,10.396 C49.4804428,10.391557 49.2910419,10.4645141 49.149,10.599 C49.0055761,10.7332094 48.9268767,10.9226709 48.933,11.119 L48.933,11.12 Z M59.161,24.355 L57.144,24.355 L57.144,18.169 C57.144,17.536 57.082,17.116 56.958,16.908 L56.958,16.914 C56.652,16.441 56.15,16.204 55.451,16.204 C54.712,16.204 54.135,16.404 53.719,16.801 C53.462,17.045 53.243,17.459 53.061,18.043 L51.774,17.233 C51.915,16.857 52.089,16.518 52.294,16.217 C52.501,15.917 52.732,15.655 52.988,15.434 C53.276,15.195 53.629,15.014 54.048,14.894 C54.465,14.771 54.947,14.711 55.491,14.711 C56.031,14.711 56.527,14.781 56.981,14.923 C57.435,15.065 57.83,15.266 58.166,15.527 C58.489,15.797 58.736,16.132 58.906,16.533 C59.076,16.933 59.161,17.399 59.161,17.93 L59.161,24.355 Z M49.663,9.321 C50.159,9.321 50.577,9.498 50.918,9.851 C51.249,10.193 51.415,10.613 51.415,11.113 C51.415,11.609 51.252,12.031 50.925,12.381 C50.5938184,12.720274 50.1370249,12.9074073 49.663,12.898 C49.411,12.898 49.178,12.858 48.966,12.776 C48.7472761,12.6899094 48.5485194,12.5599007 48.382,12.394 C48.0328796,12.0605719 47.8401563,11.5956404 47.851,11.113 C47.851,10.608 48.028,10.183 48.382,9.839 C48.7211193,9.49981217 49.1834334,9.3128655 49.663,9.321 Z" id="Shape" fill="#020202" fill-rule="nonzero"></path>
            <path d="M245.984,114.937 C246.226,113.92 246.655,112.827 248.556,112.777 C250.457,112.727 251.236,114.179 251.456,114.995 C250.068,114.594 246.779,114.708 245.984,114.937 Z M247.19,114.218 C247.97,114.135 249.512,114.135 250.254,114.334 C249.994,113.807 249.307,113.29 248.526,113.34 C247.745,113.39 247.42,113.664 247.19,114.218 Z M272.367,122.967 L272.367,119.143 C272.367,117.391 272.067,116.967 270.305,116.967 C268.544,116.967 268.53,119.007 268.71,119.42 C268.83,119.695 268.968,120.532 269.126,121.931 C269.172,121.796 269.566,121.257 270.306,120.312 C269.646,120.396 269.296,119.627 269.296,119.142 C269.296,118.659 270.026,117.687 271.082,118.148 C272.139,118.609 271.742,119.955 271.332,120.312 C271.059,120.55 270.425,121.437 269.43,122.974 L268.115,122.967 C268.137,122.567 268.137,122.094 267.942,121.137 C267.812,120.505 267.396,119.559 267.499,118.767 C267.744,116.881 268.709,116.36 270.479,116.265 C272.249,116.169 273.459,117.089 273.459,118.283 L273.459,122.967 L272.367,122.967 Z M270.518,118.75 C270.235,118.75 270.01,119.017 270.01,119.259 C270.01,119.5 270.173,119.759 270.518,119.759 C270.864,119.759 271.052,119.519 271.052,119.221 C271.052,118.924 270.802,118.75 270.518,118.75 Z M252.143,110.05 C252.62,110.053 252.867,110.05 253.003,110.05 C253.007,110.476 252.869,110.985 252.143,111.59 C251.505,112.12 250.388,112.333 249.787,112.293 L249.78,111.887 C250.096,111.852 250.292,111.687 250.368,111.39 C249.844,111.43 249.375,111.192 249.375,110.621 C249.375,110.051 249.741,109.866 250.228,109.824 C250.716,109.783 251.026,110.215 251.133,110.529 C251.241,110.844 251.133,111.252 250.824,111.589 C251.609,111.429 252.143,110.621 252.143,110.05 Z M250.178,110.264 C250.083235,110.263999 249.992381,110.30178 249.92556,110.368976 C249.858739,110.436172 249.821468,110.527237 249.822,110.622 C249.822,110.8 249.992,110.999 250.178,110.999 C250.363,110.999 250.578,110.909 250.578,110.622 C250.578,110.337 250.396,110.264 250.178,110.264 Z M257.461,116.308 L258.525,116.308 L258.525,120.318 C258.525,120.586 258.129,120.748 257.952,120.823 C258.549,121.099 258.752,121.449 258.752,121.98 C258.752,122.51 258.262,123.133 257.61,123.133 C256.959,123.133 256.649,122.603 256.563,122.21 C256.477,121.818 256.585,121.442 256.699,121.356 C256.004,121.442 255.349,122.425 255.217,123.016 L254.197,123.026 L254.197,118.496 C253.271,118.544 252.807,118.189 252.807,117.43 C252.807,116.292 253.806,116.24 254.069,116.24 C254.332,116.24 255.044,116.401 255.217,117.271 C255.255,118.222 255.217,121.418 255.217,121.651 C255.472,121.278 255.909,120.794 256.452,120.673 C256.996,120.552 257.314,120.484 257.462,120.186 C257.47,119.578 257.47,118.286 257.462,116.308 L257.461,116.308 Z M257.608,121.438 C257.387,121.438 257.133,121.659 257.133,121.963 C257.133,122.266 257.388,122.487 257.608,122.487 C257.828,122.487 258.138,122.321 258.138,121.927 C258.138,121.534 257.828,121.437 257.608,121.437 L257.608,121.438 Z M253.825,116.888 C253.533,116.888 253.423,117.135 253.423,117.4 C253.423,117.666 253.635,117.913 253.891,117.913 C254.148,117.913 254.374,117.651 254.374,117.357 C254.374,117.063 254.117,116.887 253.824,116.887 L253.825,116.888 Z M264.704,116.5 C264.909,116.341 265.269,116.073 265.269,115.568 C265.777,115.687 266.169,115.782 266.442,115.853 C266.442,116.263 266.086,116.783 265.409,116.988 C265.591,117.185 265.69,117.378 265.751,117.51 C265.981,117.94 266.043,119.774 265.939,123.015 L264.866,123.015 C264.871,122.583 264.871,122.238 264.866,121.979 C264.407,120.076 263.33,118.593 262.474,118.977 C261.617,119.362 261.937,120.407 261.937,120.813 C262.474,120.663 263.42,120.813 263.518,121.853 C263.617,122.891 262.572,123.215 262.051,123.113 C261.53,123.011 260.973,122.745 260.816,121.788 C260.659,120.83 260.619,118.432 262.27,118.215 C263.921,117.999 264.537,119.6 264.866,119.99 C264.965,117.853 264.792,116.761 262.991,116.934 C261.189,117.106 261.055,117.769 260.929,118.044 C260.720226,117.878244 260.507498,117.717531 260.291,117.562 C260.871,116.667 261.812,116.22 263.115,116.22 C263.813,116.22 264.325,116.335 264.705,116.5 L264.704,116.5 Z M262.341,121.438 C262.03,121.438 261.872,121.699 261.872,121.933 C261.872,122.168 262.054,122.429 262.342,122.429 C262.628,122.429 262.818,122.083 262.818,121.886 C262.809302,121.63088 262.596164,121.4307 262.341,121.438 Z M250.057,116.344 C250.262,116.184 250.622,115.917 250.622,115.412 C251.13,115.53 251.522,115.625 251.796,115.697 C251.796,116.107 251.439,116.627 250.762,116.832 C250.944,117.029 251.043,117.222 251.104,117.354 C251.334,117.784 251.396,119.618 251.292,122.858 L250.219,122.858 C250.224,122.427 250.224,122.082 250.219,121.823 C249.76,119.92 248.683,118.437 247.827,118.821 C246.97,119.206 247.29,120.251 247.29,120.657 C247.827,120.507 248.773,120.657 248.872,121.696 C248.97,122.735 247.925,123.059 247.404,122.956 C246.883,122.855 246.326,122.589 246.169,121.631 C246.012,120.673 245.972,118.276 247.623,118.059 C249.274,117.842 249.89,119.444 250.219,119.834 C250.318,117.697 250.145,116.604 248.344,116.777 C246.542,116.95 246.408,117.613 246.282,117.887 C246.073226,117.721244 245.860498,117.560531 245.644,117.405 C246.224,116.511 247.165,116.064 248.468,116.064 C249.166,116.064 249.678,116.179 250.058,116.344 L250.057,116.344 Z M247.694,121.282 C247.384,121.282 247.225,121.542 247.225,121.777 C247.225,122.011 247.407,122.273 247.695,122.273 C247.981,122.273 248.171,121.927 248.171,121.73 C248.162302,121.47488 247.949164,121.2747 247.694,121.282 Z M265.037,126.355 C265.034365,126.118341 265.034365,125.881659 265.037,125.645 C264.167,125.745 263.778,125.19 263.778,124.651 C263.778,124.113 264.106,123.747 264.853,123.679 C265.601,123.611 266.008,124.232 266.063,124.651 C266.099,124.931 266.117,125.499 266.117,126.355 L265.037,126.355 Z M264.827,124.214 C264.62,124.214 264.444,124.214 264.395,124.694 C264.345,125.176 264.684,125.201 264.904,125.201 C265.124,125.201 265.374,125.077 265.374,124.695 C265.374,124.312 265.032,124.214 264.826,124.214 L264.827,124.214 Z" id="Shape" fill="#2A3052" fill-rule="nonzero"></path>
        </g>
    </g>
</svg>