<?xml version="1.0" encoding="UTF-8"?>
<svg width="299px" height="197px" viewBox="0 0 299 197" version="1.1" xmlns="http://www.w3.org/2000/svg" xmlns:xlink="http://www.w3.org/1999/xlink">
    <!-- Generator: Sketch 53.1 (72631) - https://sketchapp.com -->
    <title>high-tick</title>
    <desc>Created with Sketch.</desc>
    <g id="Page-1" stroke="none" stroke-width="1" fill="none" fill-rule="evenodd">
        <g id="high-tick" fill-rule="nonzero">
            <polygon id="Path" fill="#F1F2F2" points="299 0 299 197 0 197 0 0"></polygon>
            <path d="M297.019868,1.960199 L1.98013245,1.960199 L1.98013245,195.039801 L297.019868,195.039801 L297.019868,1.960199 Z M299,197 L0,197 L0,0 L299,0 L299,197 Z" id="Path" fill="#C2C2C2"></path>
            <path d="M4,54.021288 L4,52.8112807 L294,52.8112807 L294,54.021288 L4,54.021288 Z M4,94.8952751 L4,93.6852678 L294,93.6852678 L294,94.8952751 L4,94.8952751 Z M4,135.765317 L4,134.55531 L294,134.55531 L294,135.765317 L4,135.765317 Z M4,175.597886 L4,174.387879 L294,174.387879 L294,175.597886 L4,175.597886 Z M38.4210889,33 L39.6291228,33 L39.6291228,194 L38.4210889,194 L38.4210889,33 Z M75.1307473,33 L76.3387811,33 L76.3387811,194 L75.1307473,194 L75.1307473,33 Z M111.800039,33 L113.008073,33 L113.008073,194 L111.800039,194 L111.800039,33 Z M148.507729,33 L149.715763,33 L149.715763,194 L148.507729,194 L148.507729,33 Z M185.17899,33 L186.387024,33 L186.387024,194 L185.17899,194 L185.17899,33 Z M221.85222,33 L223.060254,33 L223.060254,194 L221.85222,194 L221.85222,33 Z M4,115.310573 L4,114.100566 L294,114.100566 L294,115.310573 L4,115.310573 Z" id="Shape" fill="#DFDEDE"></path>
            <polygon id="Path" fill="#C2C2C2" points="1 30 1 28 297 28 297 30"></polygon>
            <polygon id="Path" fill="#15212D" points="4.724 72.034 4.724 70.886 294.724 70.886 294.724 72.034"></polygon>
            <path d="M88.833283,85.662609 L39.2584305,115.890843 C38.3903254,116.42017 37.2574831,116.145536 36.7281565,115.277431 C36.19883,114.409325 36.4734643,113.276483 37.3415695,112.747157 L88.0115695,81.8511565 C88.6696768,81.449876 89.5080978,81.5010575 90.1125079,81.9794084 L135.435954,117.849939 L183.893091,67.9366272 C184.67355,67.1327145 185.985111,67.2065235 186.670446,68.0929249 L261.930446,165.432925 C262.55236,166.237298 262.404448,167.393532 261.600075,168.015446 C260.795702,168.63736 259.639468,168.489448 259.017554,167.685075 L185.056112,72.0246087 L136.918909,121.608373 C136.260791,122.286268 135.196348,122.355931 134.455492,121.769592 L88.833283,85.662609 Z" id="Path" fill="#2A3052"></path>
            <ellipse id="Oval" fill="#FFFFFF" opacity="0.6" cx="185.652" cy="69.653" rx="8.247" ry="8.633"></ellipse>
            <path d="M185.652,79.5135 C180.4065,79.5135 176.1775,75.0865617 176.1775,69.653 C176.1775,64.2194383 180.4065,59.7925 185.652,59.7925 C190.8975,59.7925 195.1265,64.2194383 195.1265,69.653 C195.1265,75.0865617 190.8975,79.5135 185.652,79.5135 Z M185.652,77.0585 C189.515885,77.0585 192.6715,73.7551868 192.6715,69.653 C192.6715,65.5508132 189.515885,62.2475 185.652,62.2475 C181.788115,62.2475 178.6325,65.5508132 178.6325,69.653 C178.6325,73.7551868 181.788115,77.0585 185.652,77.0585 Z" id="Oval" fill="#E88024"></path>
            <path d="M218.777344,178.880859 C218.292966,178.791015 217.812502,178.736328 217.335938,178.716797 C217.121093,178.708984 216.933595,178.705078 216.773438,178.705078 C216.308591,178.705078 216.056641,178.71875 216.017578,178.746094 C216.005859,178.691406 216,178.634766 216,178.576172 C216,178.056638 216.16992,177.531253 216.509766,177 C216.943362,176.324215 217.652339,175.986328 218.636719,175.986328 C218.910158,175.986328 219.292966,176.057616 219.785156,176.200195 C220.277346,176.342774 220.640624,176.414062 220.875,176.414062 C221.332034,176.414062 221.64453,176.271486 221.8125,175.986328 L222.837891,176.519531 C222.783203,176.667969 222.669923,176.822265 222.498047,176.982422 C222.251952,177.212892 221.976564,177.34375 221.671875,177.375 C221.496093,177.394531 221.376953,177.404297 221.314453,177.404297 C221.005858,177.404297 220.576175,177.316407 220.025391,177.140625 C219.529294,176.98828 219.150392,176.912109 218.888672,176.912109 C218.416013,176.912109 218.046876,177.031249 217.78125,177.269531 C217.609374,177.414063 217.470704,177.624999 217.365234,177.902344 C217.822268,177.902344 218.359372,177.949218 218.976562,178.042969 C219.695316,178.156251 220.277342,178.314452 220.722656,178.517578 C221.167971,178.720704 221.470702,178.968749 221.630859,179.261719 C221.763673,179.496095 221.830078,179.73828 221.830078,179.988281 L221.830078,182.824219 C221.830078,183.312502 221.671877,183.728514 221.355469,184.072266 C221.058592,184.396486 220.671877,184.558594 220.195312,184.558594 C219.66406,184.558594 219.248048,184.39258 218.947266,184.060547 C218.701171,183.794921 218.578125,183.470705 218.578125,183.087891 C218.578125,182.673826 218.714842,182.331056 218.988281,182.05957 C219.26172,181.788085 219.605467,181.652344 220.019531,181.652344 C220.19922,181.652344 220.333984,181.667969 220.423828,181.699219 L220.423828,180.105469 C220.423828,179.851561 220.361329,179.642579 220.236328,179.478516 C220.041015,179.220702 219.554691,179.021485 218.777344,178.880859 Z M220.019531,183.732422 C220.195313,183.732422 220.344726,183.668946 220.467773,183.541992 C220.590821,183.415038 220.652344,183.263673 220.652344,183.087891 C220.652344,182.912108 220.589844,182.761719 220.464844,182.636719 C220.339843,182.511718 220.191407,182.449219 220.019531,182.449219 C219.839843,182.449219 219.686524,182.510742 219.55957,182.633789 C219.432617,182.756837 219.369141,182.908202 219.369141,183.087891 C219.369141,183.267579 219.43164,183.419921 219.556641,183.544922 C219.681641,183.669922 219.835937,183.732422 220.019531,183.732422 Z M229.441406,184.435547 L228.041016,184.435547 L228.041016,178.898438 C228.041016,178.238278 227.951173,177.775392 227.771484,177.509766 C227.462889,177.056638 226.937504,176.830078 226.195312,176.830078 C225.445309,176.830078 224.853518,177.03906 224.419922,177.457031 C224.134764,177.726564 223.945313,178.046873 223.851562,178.417969 L223.042969,177.925781 C223.226563,177.398435 223.546873,176.945314 224.003906,176.566406 C224.535159,176.124998 225.287105,175.904297 226.259766,175.904297 C227.216802,175.904297 227.990231,176.140623 228.580078,176.613281 C229.1543,177.078127 229.441406,177.763667 229.441406,178.669922 L229.441406,184.435547 Z M233.853516,184.435547 L232.189453,184.435547 C232.189453,184.40039 232.192383,184.344727 232.198242,184.268555 C232.204102,184.192382 232.207031,184.134766 232.207031,184.095703 C232.207031,183.615232 232.150391,183.039066 232.037109,182.367188 C231.908202,181.855466 231.726564,181.082036 231.492188,180.046875 C231.4375,179.785155 231.410156,179.48047 231.410156,179.132812 C231.410156,178.121089 231.775387,177.314456 232.505859,176.712891 C233.162113,176.173825 234.062494,175.904297 235.207031,175.904297 C236.4336,175.904297 237.357419,176.160154 237.978516,176.671875 C238.580081,177.171877 238.880859,177.888667 238.880859,178.822266 L238.880859,184.435547 L237.474609,184.435547 L237.474609,178.746094 C237.474609,178.171872 237.29883,177.714845 236.947266,177.375 C236.568357,177.011717 235.980473,176.830078 235.183594,176.830078 C234.523434,176.830078 233.974612,177.022459 233.537109,177.407227 C233.099607,177.791994 232.880859,178.363277 232.880859,179.121094 C232.880859,179.480471 232.904297,179.76953 232.951172,179.988281 C232.986328,180.140626 233.035156,180.373045 233.097656,180.685547 C233.125,180.857423 233.152344,181.078124 233.179688,181.347656 C233.1875,181.484376 233.195312,181.589843 233.203125,181.664062 C233.203125,181.421874 233.251953,181.087893 233.349609,180.662109 C233.404297,180.404296 233.498046,180.066408 233.630859,179.648438 C233.748047,179.207029 233.90039,178.85547 234.087891,178.59375 C234.306642,178.281248 234.644529,178.125 235.101562,178.125 C235.875004,178.125 236.382811,178.396482 236.625,178.939453 C236.71875,179.158204 236.765625,179.365233 236.765625,179.560547 C236.765625,179.982424 236.650392,180.318358 236.419922,180.568359 C236.10742,180.900392 235.712893,181.066406 235.236328,181.066406 C234.970702,181.066406 234.718751,180.986329 234.480469,180.826172 C234.187499,181.541019 234.001954,182.451166 233.923828,183.556641 L233.853516,184.435547 Z M235.259766,178.962891 C234.833982,178.962891 234.621094,179.175779 234.621094,179.601562 C234.621094,179.773438 234.683593,179.920898 234.808594,180.043945 C234.933594,180.166993 235.083983,180.228516 235.259766,180.228516 C235.423829,180.228516 235.569335,180.16504 235.696289,180.038086 C235.823243,179.911132 235.886719,179.765626 235.886719,179.601562 C235.886719,179.421874 235.826172,179.270508 235.705078,179.147461 C235.583984,179.024413 235.435548,178.962891 235.259766,178.962891 Z M246.626953,184.435547 L245.226562,184.435547 L245.226562,178.898438 C245.226562,178.238278 245.13672,177.775392 244.957031,177.509766 C244.648436,177.056638 244.123051,176.830078 243.380859,176.830078 C242.630856,176.830078 242.039065,177.03906 241.605469,177.457031 C241.320311,177.726564 241.13086,178.046873 241.037109,178.417969 L240.228516,177.925781 C240.41211,177.398435 240.73242,176.945314 241.189453,176.566406 C241.720706,176.124998 242.472651,175.904297 243.445312,175.904297 C244.402349,175.904297 245.175778,176.140623 245.765625,176.613281 C246.339847,177.078127 246.626953,177.763667 246.626953,178.669922 L246.626953,184.435547 Z M254.900391,176.876953 C255.060548,177.048829 255.191406,177.265624 255.292969,177.527344 C255.441407,177.898439 255.515625,178.279295 255.515625,178.669922 L255.515625,184.435547 L254.121094,184.435547 L254.121094,183.667969 C254.121094,182.941403 253.886721,182.101567 253.417969,181.148438 C252.82031,179.9414 252.169925,179.337891 251.466797,179.337891 C251.005857,179.337891 250.691407,179.593747 250.523438,180.105469 C250.449218,180.343751 250.412109,180.644529 250.412109,181.007812 C250.412109,181.218751 250.427734,181.449218 250.458984,181.699219 C250.642579,181.632812 250.818359,181.599609 250.986328,181.599609 C251.396486,181.599609 251.742186,181.74121 252.023438,182.024414 C252.304689,182.307619 252.445312,182.654295 252.445312,183.064453 C252.445312,183.376955 252.341798,183.67578 252.134766,183.960938 C251.916015,184.269533 251.658205,184.443359 251.361328,184.482422 C251.126952,184.509766 250.966797,184.523438 250.880859,184.523438 C250.373044,184.523438 249.939455,184.339846 249.580078,183.972656 C249.197264,183.589842 249.005859,182.849615 249.005859,181.751953 C249.005859,180.556635 249.197264,179.712893 249.580078,179.220703 C249.998049,178.669919 250.550778,178.394531 251.238281,178.394531 C251.628908,178.394531 252.041013,178.498046 252.474609,178.705078 C252.978518,178.943361 253.455076,179.457027 253.904297,180.246094 C253.955078,180.335938 254.027343,180.472655 254.121094,180.65625 L254.121094,178.898438 C254.121094,178.289059 254.015626,177.83008 253.804688,177.521484 C253.484373,177.060545 252.876958,176.830078 251.982422,176.830078 C251.17773,176.830078 250.546877,176.971678 250.089844,177.254883 C249.63281,177.538087 249.339844,177.85742 249.210938,178.212891 L248.443359,177.615234 L248.947266,176.988281 C249.220704,176.726561 249.494139,176.525391 249.767578,176.384766 C250.041017,176.24414 250.384764,176.125 250.798828,176.027344 C251.162111,175.945312 251.568357,175.904297 252.017578,175.904297 C252.818363,175.904297 253.468748,176.011718 253.96875,176.226562 C254.144532,176.105468 254.279296,175.97461 254.373047,175.833984 C254.509766,175.658202 254.578125,175.42383 254.578125,175.130859 L256.066406,175.511719 C256.066406,175.96094 255.814456,176.345702 255.310547,176.666016 C255.169921,176.75586 255.033204,176.826172 254.900391,176.876953 Z M251.619141,183.064453 C251.619141,182.888671 251.558594,182.737305 251.4375,182.610352 C251.316406,182.483398 251.166017,182.419922 250.986328,182.419922 C250.818359,182.419922 250.673829,182.485351 250.552734,182.616211 C250.43164,182.747071 250.371094,182.896484 250.371094,183.064453 C250.371094,183.236329 250.43164,183.385742 250.552734,183.512695 C250.673829,183.639649 250.818359,183.703125 250.986328,183.703125 C251.16211,183.703125 251.311523,183.640626 251.43457,183.515625 C251.557618,183.390624 251.619141,183.240235 251.619141,183.064453 Z M254.308594,188.583984 L254.308594,187.675781 C254.253906,187.695313 254.181641,187.705078 254.091797,187.705078 C253.666013,187.705078 253.333986,187.582032 253.095703,187.335938 C252.884765,187.11328 252.779297,186.828127 252.779297,186.480469 C252.779297,185.937497 253.023435,185.566407 253.511719,185.367188 C253.726564,185.277343 253.955077,185.232422 254.197266,185.232422 C254.669924,185.232422 255.052733,185.408201 255.345703,185.759766 C255.580079,186.041017 255.697266,186.482419 255.697266,187.083984 L255.697266,188.583984 L254.308594,188.583984 Z M254.103516,185.900391 C253.716795,185.900391 253.523438,186.105467 253.523438,186.515625 C253.523438,186.917971 253.730467,187.119141 254.144531,187.119141 C254.55469,187.119141 254.759766,186.902346 254.759766,186.46875 C254.71289,186.089842 254.494143,185.900391 254.103516,185.900391 Z M263.542969,184.435547 L263.542969,178.746094 C263.542969,178.167966 263.367189,177.710939 263.015625,177.375 C262.632811,177.011717 262.044926,176.830078 261.251953,176.830078 C260.583981,176.830078 260.042971,177.015623 259.628906,177.386719 C259.160154,177.812502 258.925781,178.390621 258.925781,179.121094 C258.925781,179.503908 258.966796,179.874998 259.048828,180.234375 L259.271484,181.253906 C259.44336,182.015629 259.529297,182.636716 259.529297,183.117188 C259.814455,182.628904 260.179685,182.070316 260.625,181.441406 C260.761719,181.249999 260.884765,181.080079 260.994141,180.931641 C260.66992,180.892578 260.357423,180.736329 260.056641,180.462891 C259.849608,180.27539 259.746094,179.970705 259.746094,179.548828 C259.746094,179.345702 259.779297,179.16211 259.845703,178.998047 C260.095704,178.380856 260.578121,178.072266 261.292969,178.072266 C261.855472,178.072266 262.259764,178.26367 262.505859,178.646484 C262.705079,178.970705 262.804688,179.310545 262.804688,179.666016 C262.804688,179.912111 262.63672,180.302732 262.300781,180.837891 C262.023436,181.240236 261.611331,181.841793 261.064453,182.642578 C260.853515,182.951173 260.552736,183.416013 260.162109,184.037109 C260.064453,184.201173 259.984375,184.333984 259.921875,184.435547 L258.246094,184.435547 C258.246094,184.40039 258.248047,184.344727 258.251953,184.268555 C258.255859,184.192382 258.257812,184.134766 258.257812,184.095703 C258.257812,183.583982 258.208985,183.009769 258.111328,182.373047 C257.982421,181.837888 257.802736,181.029302 257.572266,179.947266 C257.517578,179.689452 257.490234,179.394533 257.490234,179.0625 C257.490234,178.062495 257.859371,177.277347 258.597656,176.707031 C259.296878,176.171872 260.187495,175.904297 261.269531,175.904297 C262.511725,175.904297 263.437497,176.160154 264.046875,176.671875 C264.636722,177.167971 264.931641,177.884761 264.931641,178.822266 L264.931641,184.435547 L263.542969,184.435547 Z M260.613281,179.578125 C260.613281,179.750001 260.680663,179.899413 260.81543,180.026367 C260.950196,180.153321 261.101562,180.216797 261.269531,180.216797 C261.445313,180.216797 261.597656,180.154297 261.726562,180.029297 C261.855469,179.904296 261.919922,179.753907 261.919922,179.578125 C261.919922,179.39453 261.857422,179.241212 261.732422,179.118164 C261.607421,178.995117 261.453126,178.933594 261.269531,178.933594 C261.093749,178.933594 260.94043,178.99707 260.80957,179.124023 C260.67871,179.250977 260.613281,179.402343 260.613281,179.578125 Z M268.318359,178.810547 C268.068358,178.833984 267.917969,178.845703 267.867188,178.845703 C267.472654,178.845703 267.138673,178.707033 266.865234,178.429688 C266.591796,178.152342 266.455078,177.816408 266.455078,177.421875 C266.455078,177.105467 266.554687,176.804689 266.753906,176.519531 C266.968751,176.20703 267.226561,176.03125 267.527344,175.992188 C267.765626,175.964844 267.929687,175.951172 268.019531,175.951172 C268.558596,175.951172 268.978514,176.121092 269.279297,176.460938 C269.560548,176.785158 269.701172,177.191404 269.701172,177.679688 L269.701172,179.601562 L269.542969,180.84375 L269.753906,180.140625 C269.78125,180.046875 269.908202,179.712893 270.134766,179.138672 C270.552736,178.064448 270.992185,177.232425 271.453125,176.642578 C271.66797,176.369139 271.822265,176.199219 271.916016,176.132812 C272.06836,176.019531 272.275389,175.962891 272.537109,175.962891 C273.119144,175.962891 273.591795,176.166014 273.955078,176.572266 C274.29883,176.958986 274.470703,177.449216 274.470703,178.042969 L274.470703,184.435547 L273.087891,184.435547 L273.087891,177.902344 C273.087891,177.44531 272.882815,177.222656 272.472656,177.234375 C272.261718,177.242188 271.937502,177.687496 271.5,178.570312 C271.20703,179.160159 270.962892,179.716794 270.767578,180.240234 C270.376951,181.283208 270.068361,182.394525 269.841797,183.574219 C269.748046,184.058596 269.701172,184.345703 269.701172,184.435547 L268.318359,184.435547 L268.318359,178.810547 Z M267.240234,177.421875 C267.240234,177.585938 267.30371,177.732421 267.430664,177.861328 C267.557618,177.990235 267.703124,178.054688 267.867188,178.054688 C268.04297,178.054688 268.196288,177.992188 268.327148,177.867188 C268.458008,177.742187 268.523438,177.593751 268.523438,177.421875 C268.523438,177.23828 268.459962,177.083985 268.333008,176.958984 C268.206054,176.833984 268.050782,176.771484 267.867188,176.771484 C267.695312,176.771484 267.547852,176.836913 267.424805,176.967773 C267.301757,177.098633 267.240234,177.249999 267.240234,177.421875 Z M272.044922,173.355469 C271.982422,173.367188 271.894532,173.373047 271.78125,173.373047 C271.328123,173.373047 270.992189,173.226564 270.773438,172.933594 C270.632812,172.753905 270.5625,172.519533 270.5625,172.230469 C270.5625,171.636716 270.855466,171.250001 271.441406,171.070312 C271.589844,171.023437 271.740234,171 271.892578,171 C272.369143,171 272.726561,171.179686 272.964844,171.539062 C273.175782,171.847658 273.28125,172.154295 273.28125,172.458984 C273.28125,172.59961 273.261719,172.740234 273.222656,172.880859 C273.128906,173.216799 272.970704,173.480468 272.748047,173.671875 C273.353519,173.523437 273.804686,173.271486 274.101562,172.916016 C274.519533,172.419919 274.728516,171.896487 274.728516,171.345703 L276.058594,171.345703 C276.058594,172.244145 275.613286,173.021481 274.722656,173.677734 C273.785152,174.384769 272.593757,174.738281 271.148438,174.738281 L271.148438,174.123047 C271.347657,174.123047 271.562499,174.035157 271.792969,173.859375 C271.960938,173.691405 272.044922,173.523438 272.044922,173.355469 Z M271.792969,171.662109 C271.425779,171.662109 271.242188,171.849607 271.242188,172.224609 C271.292969,172.595705 271.498045,172.78125 271.857422,172.78125 C272.197267,172.78125 272.367188,172.585939 272.367188,172.195312 C272.367188,171.839842 272.175783,171.662109 271.792969,171.662109 Z M282.087891,184.435547 L280.6875,184.435547 L280.6875,178.898438 C280.6875,178.238278 280.597657,177.775392 280.417969,177.509766 C280.109373,177.056638 279.583988,176.830078 278.841797,176.830078 C278.091793,176.830078 277.500002,177.03906 277.066406,177.457031 C276.781249,177.726564 276.591797,178.046873 276.498047,178.417969 L275.689453,177.925781 C275.873048,177.398435 276.193357,176.945314 276.650391,176.566406 C277.181643,176.124998 277.933589,175.904297 278.90625,175.904297 C279.863286,175.904297 280.636716,176.140623 281.226562,176.613281 C281.800784,177.078127 282.087891,177.763667 282.087891,178.669922 L282.087891,184.435547 Z M289.154297,183.375 C289.345704,183.375 289.496093,183.302735 289.605469,183.158203 C289.699219,183.037109 289.746094,182.871095 289.746094,182.660156 L289.746094,176.056641 L291.152344,176.056641 L291.152344,182.876953 C291.152344,183.29883 291.04297,183.654295 290.824219,183.943359 C290.574218,184.271486 290.142581,184.435547 289.529297,184.435547 L284.296875,184.435547 L284.296875,183.375 L284.859375,183.375 L284.859375,181.957031 C284.859375,181.433591 284.970702,181.01758 285.193359,180.708984 C285.455079,180.349608 285.777342,180.138672 286.160156,180.076172 C285.585935,180.076172 285.120119,179.905275 284.762695,179.563477 C284.405272,179.221678 284.226562,178.765628 284.226562,178.195312 C284.226562,177.476559 284.498044,176.906252 285.041016,176.484375 C285.533206,176.109373 286.15234,175.921875 286.898438,175.921875 C287.394534,175.921875 287.796873,176.046874 288.105469,176.296875 C288.433595,176.570314 288.597656,176.951169 288.597656,177.439453 C288.597656,177.974612 288.408205,178.36328 288.029297,178.605469 C287.779296,178.76172 287.498048,178.839844 287.185547,178.839844 C286.498043,178.839844 286.064454,178.589846 285.884766,178.089844 C285.822265,177.92578 285.791016,177.76172 285.791016,177.597656 C285.791016,177.445312 285.804687,177.335938 285.832031,177.269531 C285.707031,177.285156 285.595704,177.388671 285.498047,177.580078 C285.416015,177.748048 285.375,177.902343 285.375,178.042969 C285.375,178.867192 285.861323,179.345702 286.833984,179.478516 C287.154298,179.525391 287.470702,179.548828 287.783203,179.548828 L288.398438,179.548828 L288.398438,180.503906 L287.748047,180.503906 C287.298826,180.503906 286.958986,180.605468 286.728516,180.808594 C286.439452,181.070314 286.294922,181.435545 286.294922,181.904297 L286.294922,183.375 L289.154297,183.375 Z M286.517578,177.439453 C286.517578,177.615235 286.583007,177.765624 286.713867,177.890625 C286.844727,178.015626 286.996093,178.078125 287.167969,178.078125 C287.339845,178.078125 287.49121,178.014649 287.62207,177.887695 C287.75293,177.760742 287.818359,177.611329 287.818359,177.439453 C287.818359,177.017576 287.601565,176.806641 287.167969,176.806641 C286.992187,176.806641 286.839844,176.868163 286.710938,176.991211 C286.582031,177.114258 286.517578,177.263671 286.517578,177.439453 Z" id="ราคาสดทาย" fill="#2A3052"></path>
            <path d="M21.5136719,131.621094 L21.5136719,137.263672 C21.6230474,137.232422 21.7597648,137.216797 21.9238281,137.216797 C22.3378927,137.216797 22.6835924,137.353514 22.9609375,137.626953 C23.2382826,137.900392 23.3769531,138.242185 23.3769531,138.652344 C23.3769531,139.042971 23.2539075,139.371092 23.0078125,139.636719 C22.7617175,139.902345 22.4453144,140.052734 22.0585938,140.087891 C21.9531245,140.115235 21.8457037,140.128906 21.7363281,140.128906 C21.2792946,140.128906 20.8867204,139.949221 20.5585938,139.589844 C20.2734361,139.285155 20.1308594,138.884768 20.1308594,138.388672 L20.1308594,131.621094 L21.5136719,131.621094 Z M22.5917969,138.652344 C22.5917969,138.468749 22.5263678,138.316407 22.3955078,138.195312 C22.2646478,138.074218 22.1074228,138.013672 21.9238281,138.013672 C21.7519523,138.013672 21.6035162,138.076171 21.4785156,138.201172 C21.353515,138.326172 21.2910156,138.476562 21.2910156,138.652344 C21.2910156,138.828126 21.3525384,138.979492 21.4755859,139.106445 C21.5986334,139.233399 21.748046,139.296875 21.9238281,139.296875 C22.1074228,139.296875 22.2646478,139.234376 22.3955078,139.109375 C22.5263678,138.984374 22.5917969,138.832032 22.5917969,138.652344 Z M26.7695312,134.445312 C26.2851538,134.355468 25.8046899,134.300781 25.328125,134.28125 C25.1132802,134.273437 24.9257821,134.269531 24.765625,134.269531 C24.3007789,134.269531 24.0488283,134.283203 24.0097656,134.310547 C23.9980468,134.255859 23.9921875,134.199219 23.9921875,134.140625 C23.9921875,133.621091 24.1621077,133.095706 24.5019531,132.564453 C24.935549,131.888668 25.6445263,131.550781 26.6289062,131.550781 C26.9023451,131.550781 27.2851538,131.62207 27.7773438,131.764648 C28.2695337,131.907227 28.6328113,131.978516 28.8671875,131.978516 C29.324221,131.978516 29.6367179,131.835939 29.8046875,131.550781 L30.8300781,132.083984 C30.7753904,132.232423 30.6621102,132.386718 30.4902344,132.546875 C30.2441394,132.777345 29.9687515,132.908203 29.6640625,132.939453 C29.4882804,132.958984 29.3691409,132.96875 29.3066406,132.96875 C28.9980453,132.96875 28.5683621,132.88086 28.0175781,132.705078 C27.5214819,132.552734 27.1425794,132.476562 26.8808594,132.476562 C26.4082008,132.476562 26.0390638,132.595702 25.7734375,132.833984 C25.6015616,132.978516 25.4628912,133.189452 25.3574219,133.466797 C25.8144554,133.466797 26.3515594,133.513671 26.96875,133.607422 C27.6875036,133.720704 28.269529,133.878905 28.7148438,134.082031 C29.1601585,134.285157 29.4628898,134.533202 29.6230469,134.826172 C29.75586,135.060548 29.8222656,135.302733 29.8222656,135.552734 L29.8222656,138.388672 C29.8222656,138.876956 29.6640641,139.292967 29.3476562,139.636719 C29.0507798,139.960939 28.6640649,140.123047 28.1875,140.123047 C27.6562473,140.123047 27.2402359,139.957033 26.9394531,139.625 C26.6933581,139.359374 26.5703125,139.035158 26.5703125,138.652344 C26.5703125,138.238279 26.7070299,137.895509 26.9804688,137.624023 C27.2539076,137.352538 27.5976542,137.216797 28.0117188,137.216797 C28.1914071,137.216797 28.3261714,137.232422 28.4160156,137.263672 L28.4160156,135.669922 C28.4160156,135.416014 28.3535162,135.207032 28.2285156,135.042969 C28.0332021,134.785155 27.5468789,134.585938 26.7695312,134.445312 Z M28.0117188,139.296875 C28.1875009,139.296875 28.3369134,139.233399 28.4599609,139.106445 C28.5830084,138.979492 28.6445312,138.828126 28.6445312,138.652344 C28.6445312,138.476562 28.5820319,138.326172 28.4570312,138.201172 C28.3320306,138.076171 28.1835946,138.013672 28.0117188,138.013672 C27.8320304,138.013672 27.6787116,138.075195 27.5517578,138.198242 C27.4248041,138.32129 27.3613281,138.472655 27.3613281,138.652344 C27.3613281,138.832032 27.4238275,138.984374 27.5488281,139.109375 C27.6738287,139.234376 27.8281241,139.296875 28.0117188,139.296875 Z M29.9277344,130.302734 L29.125,130.150391 C28.3359336,130.001952 27.417974,129.927734 26.3710938,129.927734 C25.3398386,129.927734 24.2402402,130.02539 23.0722656,130.220703 C23.1464847,129.970702 23.2207028,129.718751 23.2949219,129.464844 C23.8222683,128.179681 24.8476486,127.537109 26.3710938,127.537109 C27.7421944,127.537109 28.7656216,128.07812 29.4414062,129.160156 C29.7148451,129.597658 29.8769529,129.978514 29.9277344,130.302734 Z M26.21875,128.234375 C25.5039027,128.234375 25.0000015,128.499997 24.7070312,129.03125 L24.5898438,129.3125 C25.3007848,129.277344 25.9277317,129.259766 26.4707031,129.259766 C26.9511743,129.259766 27.6054646,129.328124 28.4335938,129.464844 C28.3632809,129.363281 28.2929691,129.259766 28.2226562,129.154297 C27.7187475,128.541013 27.0507854,128.234375 26.21875,128.234375 Z M28.4921875,124.150391 L29.7578125,124.150391 L29.7578125,126.59375 L28.4921875,126.59375 L28.4921875,124.150391 Z M37.7734375,131.621094 L39.15625,131.621094 L39.15625,138.412109 C39.15625,139.037112 39.0527354,139.445312 38.8457031,139.636719 C38.6230458,139.921876 38.3105489,140.064453 37.9082031,140.064453 C37.7480461,140.064453 37.5898445,139.957032 37.4335938,139.742188 C37.2460928,139.45703 37.0566416,139.171876 36.8652344,138.886719 C36.642577,138.55078 36.4257823,138.289063 36.2148438,138.101562 C35.7343726,137.671873 35.2500024,137.427735 34.7617188,137.369141 L34.7617188,138.869141 C34.7617188,139.392581 34.5781268,139.748046 34.2109375,139.935547 C33.95703,140.064454 33.6406269,140.128906 33.2617188,140.128906 C33.0390614,140.128906 32.8593757,140.107422 32.7226562,140.064453 C32.2421851,139.927734 31.8925792,139.615237 31.6738281,139.126953 C31.5605463,138.880858 31.5039062,138.599611 31.5039062,138.283203 C31.5039062,137.443355 31.7988252,136.865236 32.3886719,136.548828 C32.7519549,136.349608 33.0742173,136.25 33.3554688,136.25 L33.3554688,134.375 L33.1386719,134.398438 C33.0722653,134.40625 33.0019535,134.410156 32.9277344,134.410156 C32.5292949,134.410156 32.1904311,134.273439 31.9111328,134 C31.6318345,133.726561 31.4921875,133.388674 31.4921875,132.986328 C31.4921875,132.66992 31.5957021,132.367189 31.8027344,132.078125 C32.0253917,131.76953 32.2871079,131.595703 32.5878906,131.556641 C32.8261731,131.529297 32.9902339,131.515625 33.0800781,131.515625 C33.6074245,131.515625 34.0253891,131.685545 34.3339844,132.025391 C34.6191421,132.345705 34.7617188,132.751951 34.7617188,133.244141 L34.7617188,136.373047 C35.2421899,136.396484 35.761716,136.597654 36.3203125,136.976562 C36.3632815,137.007813 36.5937479,137.214842 37.0117188,137.597656 C37.406252,137.960939 37.6093749,138.140625 37.6210938,138.136719 C37.7226568,138.105469 37.7734375,137.972657 37.7734375,137.738281 L37.7734375,131.621094 Z M32.2949219,132.986328 C32.2949219,133.150391 32.3593744,133.296874 32.4882812,133.425781 C32.6171881,133.554688 32.7636711,133.619141 32.9277344,133.619141 C33.1035165,133.619141 33.2587884,133.556641 33.3935547,133.431641 C33.528321,133.30664 33.5957031,133.158204 33.5957031,132.986328 C33.5957031,132.802733 33.5302741,132.648438 33.3994141,132.523438 C33.268554,132.398437 33.111329,132.335938 32.9277344,132.335938 C32.7558585,132.335938 32.6074225,132.401367 32.4824219,132.532227 C32.3574213,132.663087 32.2949219,132.814452 32.2949219,132.986328 Z M32.5234375,138.083984 C32.5195312,138.115235 32.5175781,138.148437 32.5175781,138.183594 L32.5175781,138.277344 C32.5175781,138.54297 32.5507809,138.738281 32.6171875,138.863281 C32.7148442,139.066407 32.8417961,139.167969 32.9980469,139.167969 C33.2363293,139.167969 33.3554688,139.041017 33.3554688,138.787109 L33.3554688,137.298828 C33.3203123,137.283203 33.2734378,137.275391 33.2148438,137.275391 C33.0820306,137.275391 32.9531256,137.322265 32.828125,137.416016 C32.624999,137.650392 32.5234375,137.873046 32.5234375,138.083984 Z M47.2773438,140 L47.2773438,134.310547 C47.2773438,133.708981 47.1191422,133.255861 46.8027344,132.951172 C46.7402341,132.908203 46.6425788,132.841797 46.5097656,132.751953 C46.4785155,132.728516 46.433594,132.716797 46.375,132.716797 C46.3359373,132.716797 46.1523454,132.801757 45.8242188,132.97168 C45.4960921,133.141602 45.2050794,133.226562 44.9511719,133.226562 C44.7246082,133.226562 44.4658218,133.144532 44.1748047,132.980469 C43.8837876,132.816405 43.7246095,132.734375 43.6972656,132.734375 C43.6230465,132.734375 43.5097664,132.783203 43.3574219,132.880859 C43.2441401,132.951172 43.1484379,133.037109 43.0703125,133.138672 C42.7968736,133.474611 42.6601562,133.990231 42.6601562,134.685547 C42.6601562,135.068361 42.7011715,135.439451 42.7832031,135.798828 L43.0058594,136.818359 C43.1777352,137.580082 43.2636719,138.201169 43.2636719,138.681641 C43.4238289,138.380858 43.6679671,138.027346 43.9960938,137.621094 L44.7285156,136.712891 C44.4277329,136.736328 44.1660167,136.642579 43.9433594,136.431641 C43.6347641,136.142577 43.4804688,135.787111 43.4804688,135.365234 C43.4804688,134.841794 43.7011697,134.435548 44.1425781,134.146484 C44.3964856,133.982421 44.6835921,133.900391 45.0039062,133.900391 L45.1035156,133.900391 C45.3144542,133.931641 45.5234365,133.960937 45.7304688,133.988281 C45.9023446,134.042969 46.0722648,134.199217 46.2402344,134.457031 C46.4394541,134.777345 46.5390625,135.115233 46.5390625,135.470703 C46.5390625,135.755861 46.3574237,136.166013 45.9941406,136.701172 C45.9316403,136.791016 45.5996124,137.218746 44.9980469,137.984375 C44.8886713,138.121094 44.7558602,138.302733 44.5996094,138.529297 L44.1484375,139.173828 C43.9648428,139.431642 43.800782,139.70703 43.65625,140 L41.9804688,140 C41.9804688,139.964844 41.9824219,139.90918 41.9863281,139.833008 C41.9902344,139.756836 41.9921875,139.699219 41.9921875,139.660156 C41.9921875,139.148435 41.9433599,138.574222 41.8457031,137.9375 C41.7167962,137.402341 41.5371105,136.593755 41.3066406,135.511719 C41.2519529,135.253905 41.2246094,134.958986 41.2246094,134.626953 C41.2246094,134.173826 41.3183584,133.722658 41.5058594,133.273438 C41.7089854,132.792966 41.9804671,132.423829 42.3203125,132.166016 C42.8359401,131.779295 43.3183571,131.552735 43.7675781,131.486328 C43.8652349,131.470703 44.0595689,131.591796 44.3505859,131.849609 C44.641603,132.107423 44.8749991,132.236328 45.0507812,132.236328 C45.2421885,132.236328 45.4902329,132.111329 45.7949219,131.861328 C46.0996109,131.611327 46.2929683,131.486328 46.375,131.486328 C46.6054699,131.486328 46.8613267,131.552734 47.1425781,131.685547 C47.3964856,131.814454 47.6230459,131.992186 47.8222656,132.21875 C48.1347672,132.574221 48.3515619,132.914061 48.4726562,133.238281 C48.6015631,133.585939 48.6660156,133.968748 48.6660156,134.386719 L48.6660156,140 L47.2773438,140 Z M44.3476562,135.382812 C44.3476562,135.558595 44.4140618,135.708984 44.546875,135.833984 C44.6796882,135.958985 44.8320304,136.021484 45.0039062,136.021484 C45.1835946,136.021484 45.3369134,135.959962 45.4638672,135.836914 C45.5908209,135.713867 45.6542969,135.562501 45.6542969,135.382812 C45.6542969,134.960935 45.4375022,134.75 45.0039062,134.75 C44.8281241,134.75 44.6748053,134.811523 44.5439453,134.93457 C44.4130853,135.057618 44.3476562,135.20703 44.3476562,135.382812 Z M45.9648438,128.949219 C45.9023434,128.960938 45.8144537,128.966797 45.7011719,128.966797 C45.2480446,128.966797 44.9121105,128.820314 44.6933594,128.527344 C44.5527337,128.347655 44.4824219,128.113283 44.4824219,127.824219 C44.4824219,127.230466 44.7753877,126.843751 45.3613281,126.664062 C45.5097664,126.617187 45.6601555,126.59375 45.8125,126.59375 C46.2890649,126.59375 46.6464832,126.773436 46.8847656,127.132812 C47.0957042,127.441408 47.2011719,127.748045 47.2011719,128.052734 C47.2011719,128.19336 47.1816408,128.333984 47.1425781,128.474609 C47.0488277,128.810549 46.8906261,129.074218 46.6679688,129.265625 C47.2734405,129.117187 47.7246079,128.865236 48.0214844,128.509766 C48.4394552,128.013669 48.6484375,127.490237 48.6484375,126.939453 L49.9785156,126.939453 C49.9785156,127.837895 49.5332076,128.615231 48.6425781,129.271484 C47.7050734,129.978519 46.5136791,130.332031 45.0683594,130.332031 L45.0683594,129.716797 C45.2675791,129.716797 45.4824207,129.628907 45.7128906,129.453125 C45.8808602,129.285155 45.9648438,129.117188 45.9648438,128.949219 Z M45.7128906,127.255859 C45.3457013,127.255859 45.1621094,127.443358 45.1621094,127.818359 C45.2128909,128.189455 45.417967,128.375 45.7773438,128.375 C46.1171892,128.375 46.2871094,128.179689 46.2871094,127.789062 C46.2871094,127.433592 46.095705,127.255859 45.7128906,127.255859 Z M52.0175781,134.375 C51.8535148,134.398438 51.7109381,134.410156 51.5898438,134.410156 C51.1914043,134.410156 50.8505874,134.271486 50.5673828,133.994141 C50.2841783,133.716795 50.1425781,133.380861 50.1425781,132.986328 C50.1425781,132.66992 50.2460927,132.367189 50.453125,132.078125 C50.6718761,131.76953 50.9355453,131.595703 51.2441406,131.556641 C51.4863293,131.529297 51.6523433,131.515625 51.7421875,131.515625 C52.2734402,131.515625 52.6914047,131.685545 52.9960938,132.025391 C53.2812514,132.349611 53.4238281,132.755857 53.4238281,133.244141 L53.4238281,138.289062 C53.6230479,137.933592 53.9101544,137.648439 54.2851562,137.433594 C54.6132829,137.253905 54.892577,137.128907 55.1230469,137.058594 C55.298829,137.015625 55.5449203,136.953125 55.8613281,136.871094 C56.2519551,136.769531 56.4472656,136.609376 56.4472656,136.390625 L56.4472656,131.621094 L57.8710938,131.621094 L57.8710938,136.548828 C57.8710938,136.783204 57.7734385,136.953124 57.578125,137.058594 C57.4687495,137.117188 57.3144541,137.179687 57.1152344,137.246094 C57.3808607,137.320313 57.6054678,137.455077 57.7890625,137.650391 C58.0585951,137.943361 58.1933594,138.248045 58.1933594,138.564453 C58.1933594,138.994143 58.0722668,139.347655 57.8300781,139.625 C57.5761706,139.914064 57.2363303,140.080078 56.8105469,140.123047 C56.2714817,140.123047 55.8613295,139.957033 55.5800781,139.625 C55.3808584,139.390624 55.2597658,139.10547 55.2167969,138.769531 C55.2167969,138.265622 55.2871087,137.980469 55.4277344,137.914062 C55.0332012,137.914062 54.6093773,138.167966 54.15625,138.675781 C53.851561,139.015627 53.6074228,139.457029 53.4238281,140 L52.0175781,140 L52.0175781,134.375 Z M50.9628906,132.986328 C50.9628906,133.150391 51.0263666,133.296874 51.1533203,133.425781 C51.2802741,133.554688 51.4257804,133.619141 51.5898438,133.619141 C51.7656259,133.619141 51.9189447,133.556641 52.0498047,133.431641 C52.1806647,133.30664 52.2460938,133.158204 52.2460938,132.986328 C52.2460938,132.802733 52.1826178,132.648438 52.0556641,132.523438 C51.9287103,132.398437 51.7734384,132.335938 51.5898438,132.335938 C51.4179679,132.335938 51.2705084,132.401367 51.1474609,132.532227 C51.0244134,132.663087 50.9628906,132.814452 50.9628906,132.986328 Z M56.7226562,138.013672 C56.2773415,138.013672 56.0546875,138.242185 56.0546875,138.699219 C56.0546875,139.113283 56.2714822,139.320312 56.7050781,139.320312 C56.8847665,139.320312 57.0380853,139.260743 57.1650391,139.141602 C57.2919928,139.02246 57.3554688,138.875001 57.3554688,138.699219 C57.3554688,138.242185 57.1445334,138.013672 56.7226562,138.013672 Z" id="เรมตน" fill="#2A3052"></path>
            <path d="M136.140625,49.8 L136.140625,52.7109375 C136.140625,53.0640643 136.057813,53.3531239 135.892187,53.578125 C135.635936,53.8593764 135.276565,54 134.814062,54 L131.167188,54 L131.167188,53.165625 L131.846875,53.165625 L131.846875,51.853125 C131.846875,51.5249984 132.048435,51.1187524 132.451563,50.634375 C132.798439,50.2218729 133.026562,49.8718764 133.135938,49.584375 C133.214063,49.387499 133.253125,49.1640637 133.253125,48.9140625 C133.253125,48.623436 133.163282,48.3804697 132.983594,48.1851563 C132.803905,47.9898428 132.571876,47.8921875 132.2875,47.8921875 L132.2125,47.8921875 C131.812498,47.8921875 131.58125,47.9843741 131.51875,48.16875 C131.856252,48.16875 132.121874,48.3156235 132.315625,48.609375 C132.456251,48.8250011 132.526563,49.0406239 132.526563,49.25625 C132.526563,49.4687511 132.465626,49.6671866 132.34375,49.8515625 C132.221874,50.0484385 132.062501,50.1812497 131.865625,50.25 C131.684374,50.3156253 131.518751,50.3484375 131.36875,50.3484375 C131.121874,50.3484375 130.881251,50.2578134 130.646875,50.0765625 C130.412499,49.8953116 130.276563,49.6875012 130.239062,49.453125 C130.207812,49.259374 130.192187,49.1203129 130.192187,49.0359375 C130.192187,48.5078099 130.396873,48.0593768 130.80625,47.690625 C131.153127,47.3718734 131.664059,47.2125 132.339063,47.2125 C133.173442,47.2125 133.754686,47.5390592 134.082812,48.1921875 C134.195313,48.4203136 134.251562,48.6687487 134.251562,48.9375 C134.251562,49.5750032 134.001565,50.2140593 133.501562,50.8546875 C133.295311,51.1171888 133.170313,51.2859371 133.126562,51.3609375 C133.023437,51.5421884 132.971875,51.7437489 132.971875,51.965625 L132.971875,53.165625 L134.551562,53.165625 C134.682813,53.165625 134.807812,53.1015631 134.926562,52.9734375 C134.998438,52.879687 135.034375,52.7390634 135.034375,52.5515625 L135.034375,49.809375 C135.034375,49.6593742 135.020313,49.539063 134.992188,49.4484375 C134.992188,49.2671866 134.942188,49.1062507 134.842188,48.965625 C134.735937,48.7843741 134.576564,48.69375 134.364062,48.69375 L134.228125,48.2109375 C134.406251,48.1953124 134.598436,48.1375005 134.804688,48.0375 C134.857813,48.0156249 134.932812,47.9781253 135.029688,47.925 C135.082813,47.8874998 135.151562,47.8250004 135.235937,47.7375 C135.445314,47.5187489 135.55,47.2484391 135.55,46.9265625 L136.839063,46.9265625 C136.832812,47.0390631 136.804688,47.2171863 136.754687,47.4609375 C136.673437,47.7015637 136.553907,47.8921868 136.396094,48.0328125 C136.23828,48.1734382 136.057814,48.2749997 135.854688,48.3375 C135.773437,48.3687502 135.682813,48.3953124 135.582812,48.4171875 L135.296875,48.4734375 C135.3875,48.4734375 135.509374,48.5328119 135.6625,48.6515625 C135.765626,48.7140628 135.848437,48.792187 135.910937,48.8859375 C136.020313,49.0234382 136.084375,49.1781241 136.103125,49.35 C136.121875,49.4187503 136.132812,49.5062495 136.135938,49.6125 L136.140625,49.8 Z M130.91875,49.265625 C130.91875,49.4000007 130.964062,49.5156245 131.054688,49.6125 C131.145313,49.7093755 131.259374,49.7578125 131.396875,49.7578125 C131.528126,49.7578125 131.642187,49.7085942 131.739062,49.6101563 C131.835938,49.5117183 131.884375,49.3968757 131.884375,49.265625 C131.884375,49.1343743 131.835938,49.0195317 131.739062,48.9210937 C131.642187,48.8226558 131.528126,48.7734375 131.396875,48.7734375 C131.259374,48.7734375 131.145313,48.8218745 131.054688,48.91875 C130.964062,49.0156255 130.91875,49.1312493 130.91875,49.265625 Z M135.1,43.715625 L136.1125,43.715625 L136.1125,45.6703125 L135.1,45.6703125 L135.1,43.715625 Z M142.304688,52.7109375 C142.304688,53.0890644 142.171876,53.4218736 141.90625,53.709375 C141.665624,53.9687513 141.360939,54.0984375 140.992188,54.0984375 C140.917187,54.0984375 140.834375,54.0890626 140.74375,54.0703125 C140.437498,54.0421874 140.182814,53.9203136 139.979688,53.7046875 C139.776561,53.4890614 139.675,53.2281265 139.675,52.921875 C139.675,52.5968734 139.789843,52.3242199 140.019531,52.1039062 C140.24922,51.8835926 140.526561,51.7734375 140.851562,51.7734375 C140.979688,51.7734375 141.09375,51.7859374 141.19375,51.8109375 L141.19375,49.5703125 C141.19375,49.0453099 141.121876,48.6750011 140.978125,48.459375 C140.737499,48.0968732 140.31719,47.915625 139.717188,47.915625 C139.12656,47.915625 138.656252,48.0812483 138.30625,48.4125 C138.081249,48.6250011 137.921875,48.882811 137.828125,49.1859375 L137.214063,48.7921875 C137.370313,48.3546853 137.634373,47.9796891 138.00625,47.6671875 C138.396877,47.3390609 138.979684,47.175 139.754687,47.175 C140.532816,47.175 141.15781,47.3640606 141.629687,47.7421875 C142.07969,48.1046893 142.304688,48.6531213 142.304688,49.3875 L142.304688,52.7109375 Z M140.851562,53.4375 C141.189064,53.4375 141.357813,53.2656267 141.357813,52.921875 C141.357813,52.7781243 141.309375,52.6570317 141.2125,52.5585938 C141.115625,52.4601558 140.995313,52.4109375 140.851562,52.4109375 C140.710937,52.4109375 140.589063,52.460937 140.485937,52.5609375 C140.382812,52.660938 140.33125,52.7812493 140.33125,52.921875 C140.33125,53.0625007 140.382031,53.1835932 140.483594,53.2851562 C140.585157,53.3867193 140.707812,53.4375 140.851562,53.4375 Z M146.739062,49.5 C146.548437,49.5187501 146.439063,49.528125 146.410937,49.528125 C146.085936,49.528125 145.808595,49.4195323 145.578906,49.2023437 C145.349218,48.9851552 145.234375,48.7140641 145.234375,48.3890625 C145.234375,48.1359362 145.318749,47.8937512 145.4875,47.6625 C145.662501,47.4156238 145.871874,47.2765627 146.115625,47.2453125 C146.309376,47.2234374 146.44375,47.2125 146.51875,47.2125 C146.937502,47.2125 147.267186,47.3499986 147.507812,47.625 C147.735939,47.8875013 147.85,48.2109356 147.85,48.5953125 L147.85,54 L146.420313,54 C146.382812,53.9249996 146.315625,53.8015634 146.21875,53.6296875 C146.1875,53.5734372 146.064064,53.3875016 145.848437,53.071875 C145.770312,52.9468744 145.640626,52.7500013 145.459375,52.48125 C145.218749,52.1437483 144.925002,51.7921893 144.578125,51.4265625 C144.48125,51.326562 144.340626,51.1875009 144.15625,51.009375 L144.1375,50.990625 C143.865624,50.7281237 143.682813,50.5703128 143.589063,50.5171875 C143.470312,50.4484372 143.389063,50.4015626 143.345312,50.3765625 L143.659375,49.8796875 C143.815626,49.8796875 144.264059,50.2062467 145.004687,50.859375 C145.273439,51.0968762 145.546874,51.3562486 145.825,51.6375 C145.984376,51.8093759 146.193749,52.0671858 146.453125,52.4109375 L146.739062,52.8 L146.739062,49.5 Z M145.885938,48.3890625 C145.885938,48.5328132 145.937499,48.6531245 146.040625,48.75 C146.143751,48.8468755 146.267187,48.8953125 146.410937,48.8953125 C146.542188,48.8953125 146.658593,48.8437505 146.760156,48.740625 C146.861719,48.6374995 146.9125,48.5203132 146.9125,48.3890625 C146.9125,48.2546868 146.862501,48.1343755 146.7625,48.028125 C146.6625,47.9218745 146.545313,47.86875 146.410937,47.86875 C146.264062,47.86875 146.139844,47.9187495 146.038281,48.01875 C145.936718,48.1187505 145.885938,48.2421868 145.885938,48.3890625 Z M151.314062,49.55625 C150.926561,49.4843746 150.542189,49.4406251 150.160937,49.425 C149.989062,49.41875 149.839063,49.415625 149.710938,49.415625 C149.339061,49.415625 149.1375,49.4265624 149.10625,49.4484375 C149.096875,49.4046873 149.092188,49.3593752 149.092188,49.3125 C149.092188,48.8968729 149.228124,48.4765646 149.5,48.0515625 C149.846877,47.5109348 150.414059,47.240625 151.201563,47.240625 C151.420314,47.240625 151.726561,47.2976557 152.120313,47.4117188 C152.514064,47.5257818 152.804687,47.5828125 152.992188,47.5828125 C153.357814,47.5828125 153.607812,47.4687511 153.742188,47.240625 L154.5625,47.6671875 C154.51875,47.7859381 154.428126,47.9093744 154.290625,48.0375 C154.093749,48.2218759 153.873439,48.3265624 153.629687,48.3515625 C153.489062,48.3671876 153.39375,48.375 153.34375,48.375 C153.096874,48.375 152.753127,48.3046882 152.3125,48.1640625 C151.915623,48.0421869 151.612501,47.98125 151.403125,47.98125 C151.024998,47.98125 150.729689,48.0765615 150.517187,48.2671875 C150.379687,48.3828131 150.26875,48.5515614 150.184375,48.7734375 C150.550002,48.7734375 150.979685,48.8109371 151.473437,48.8859375 C152.04844,48.976563 152.514061,49.1031242 152.870313,49.265625 C153.226564,49.4281258 153.468749,49.6265613 153.596875,49.8609375 C153.703126,50.0484384 153.75625,50.2421865 153.75625,50.4421875 L153.75625,52.7109375 C153.75625,53.1015645 153.629689,53.4343736 153.376562,53.709375 C153.139061,53.9687513 152.829689,54.0984375 152.448438,54.0984375 C152.023435,54.0984375 151.690626,53.9656263 151.45,53.7 C151.253124,53.4874989 151.154688,53.2281265 151.154688,52.921875 C151.154688,52.5906233 151.264061,52.3164073 151.482813,52.0992188 C151.701564,51.8820302 151.976561,51.7734375 152.307813,51.7734375 C152.451563,51.7734375 152.559375,51.7859374 152.63125,51.8109375 L152.63125,50.5359375 C152.63125,50.3328115 152.581251,50.1656257 152.48125,50.034375 C152.324999,49.828124 151.935941,49.6687506 151.314062,49.55625 Z M152.307813,53.4375 C152.448438,53.4375 152.567968,53.3867193 152.666406,53.2851562 C152.764844,53.1835932 152.814062,53.0625007 152.814062,52.921875 C152.814062,52.7812493 152.764063,52.660938 152.664062,52.5609375 C152.564062,52.460937 152.445313,52.4109375 152.307813,52.4109375 C152.164062,52.4109375 152.041407,52.4601558 151.939844,52.5585938 C151.838281,52.6570317 151.7875,52.7781243 151.7875,52.921875 C151.7875,53.0656257 151.837499,53.1874995 151.9375,53.2875 C152.037501,53.3875005 152.160937,53.4375 152.307813,53.4375 Z M159.845312,54 L158.725,54 L158.725,49.5703125 C158.725,49.0421849 158.653126,48.6718761 158.509375,48.459375 C158.262499,48.0968732 157.84219,47.915625 157.248438,47.915625 C156.648435,47.915625 156.175002,48.0828108 155.828125,48.4171875 C155.599999,48.6328136 155.448438,48.889061 155.373438,49.1859375 L154.726562,48.7921875 C154.873438,48.3703104 155.129686,48.007814 155.495313,47.7046875 C155.920315,47.3515607 156.521871,47.175 157.3,47.175 C158.065629,47.175 158.684373,47.3640606 159.15625,47.7421875 C159.615627,48.1140644 159.845312,48.6624964 159.845312,49.3875 L159.845312,54 Z M163.375,54 L162.04375,54 C162.04375,53.9718749 162.046094,53.9273441 162.050781,53.8664062 C162.055469,53.8054684 162.057813,53.7593752 162.057813,53.728125 C162.057813,53.3437481 162.0125,52.8828152 161.921875,52.3453125 C161.818749,51.9359355 161.673438,51.3171916 161.485937,50.4890625 C161.442187,50.2796865 161.420313,50.0359389 161.420313,49.7578125 C161.420313,48.9484335 161.712497,48.3031274 162.296875,47.821875 C162.821878,47.3906228 163.542183,47.175 164.457812,47.175 C165.439067,47.175 166.178123,47.3796855 166.675,47.7890625 C167.156252,48.1890645 167.396875,48.7624963 167.396875,49.509375 L167.396875,54 L166.271875,54 L166.271875,49.4484375 C166.271875,48.9890602 166.131251,48.6234389 165.85,48.3515625 C165.546873,48.060936 165.076566,47.915625 164.439062,47.915625 C163.910935,47.915625 163.471877,48.0695297 163.121875,48.3773437 C162.771873,48.6851578 162.596875,49.1421845 162.596875,49.7484375 C162.596875,50.0359389 162.615625,50.2671866 162.653125,50.4421875 C162.68125,50.5640631 162.720312,50.7499988 162.770312,51 C162.792188,51.1375007 162.814062,51.3140614 162.835938,51.5296875 C162.842188,51.639063 162.848437,51.7234372 162.854688,51.7828125 C162.854688,51.5890615 162.89375,51.3218767 162.971875,50.98125 C163.015625,50.774999 163.090624,50.5046892 163.196875,50.1703125 C163.290625,49.8171857 163.412499,49.5359385 163.5625,49.3265625 C163.737501,49.0765612 164.007811,48.9515625 164.373438,48.9515625 C164.992191,48.9515625 165.398437,49.1687478 165.592188,49.603125 C165.667188,49.7781259 165.704687,49.9437492 165.704687,50.1 C165.704687,50.4375017 165.612501,50.706249 165.428125,50.90625 C165.178124,51.1718763 164.862502,51.3046875 164.48125,51.3046875 C164.268749,51.3046875 164.067188,51.2406256 163.876562,51.1125 C163.642186,51.6843779 163.49375,52.4124956 163.43125,53.296875 L163.375,54 Z M164.5,49.621875 C164.159373,49.621875 163.989062,49.7921858 163.989062,50.1328125 C163.989062,50.2703132 164.039062,50.3882808 164.139063,50.4867187 C164.239063,50.5851567 164.359374,50.634375 164.5,50.634375 C164.631251,50.634375 164.747656,50.5835943 164.849219,50.4820313 C164.950782,50.3804682 165.001562,50.2640632 165.001562,50.1328125 C165.001562,49.9890618 164.953125,49.8679692 164.85625,49.7695312 C164.759375,49.6710933 164.640626,49.621875 164.5,49.621875 Z M173.59375,54 L172.473437,54 L172.473437,49.5703125 C172.473437,49.0421849 172.401563,48.6718761 172.257812,48.459375 C172.010936,48.0968732 171.590628,47.915625 170.996875,47.915625 C170.396872,47.915625 169.923439,48.0828108 169.576563,48.4171875 C169.348436,48.6328136 169.196875,48.889061 169.121875,49.1859375 L168.475,48.7921875 C168.621876,48.3703104 168.878123,48.007814 169.24375,47.7046875 C169.668752,47.3515607 170.270309,47.175 171.048437,47.175 C171.814066,47.175 172.43281,47.3640606 172.904688,47.7421875 C173.364065,48.1140644 173.59375,48.6624964 173.59375,49.3875 L173.59375,54 Z M184.520312,54 L183.432813,54 L183.432813,51.2296875 L179.064062,51.2296875 L179.064062,50.3203125 L183.432813,44.90625 L184.520312,44.90625 L184.520312,50.3203125 L185.790625,50.3203125 L185.790625,51.2296875 L184.520312,51.2296875 L184.520312,54 Z M183.432813,50.3203125 L183.432813,46.3453125 L180.26875,50.3203125 L183.432813,50.3203125 Z M189.015625,54 L187.46875,54 L187.46875,52.453125 L189.015625,52.453125 L189.015625,54 Z M189.015625,49.003125 L187.46875,49.003125 L187.46875,47.45625 L189.015625,47.45625 L189.015625,49.003125 Z M196.473437,49.55625 C196.085936,49.4843746 195.701564,49.4406251 195.320312,49.425 C195.148437,49.41875 194.998438,49.415625 194.870313,49.415625 C194.498436,49.415625 194.296875,49.4265624 194.265625,49.4484375 C194.25625,49.4046873 194.251562,49.3593752 194.251562,49.3125 C194.251562,48.8968729 194.387499,48.4765646 194.659375,48.0515625 C195.006252,47.5109348 195.573434,47.240625 196.360937,47.240625 C196.579689,47.240625 196.885936,47.2976557 197.279688,47.4117188 C197.673439,47.5257818 197.964062,47.5828125 198.151563,47.5828125 C198.517189,47.5828125 198.767187,47.4687511 198.901563,47.240625 L199.721875,47.6671875 C199.678125,47.7859381 199.587501,47.9093744 199.45,48.0375 C199.253124,48.2218759 199.032814,48.3265624 198.789062,48.3515625 C198.648437,48.3671876 198.553125,48.375 198.503125,48.375 C198.256249,48.375 197.912502,48.3046882 197.471875,48.1640625 C197.074998,48.0421869 196.771876,47.98125 196.5625,47.98125 C196.184373,47.98125 195.889064,48.0765615 195.676562,48.2671875 C195.539062,48.3828131 195.428125,48.5515614 195.34375,48.7734375 C195.709377,48.7734375 196.13906,48.8109371 196.632812,48.8859375 C197.207815,48.976563 197.673436,49.1031242 198.029688,49.265625 C198.385939,49.4281258 198.628124,49.6265613 198.75625,49.8609375 C198.862501,50.0484384 198.915625,50.2421865 198.915625,50.4421875 L198.915625,52.7109375 C198.915625,53.1015645 198.789064,53.4343736 198.535937,53.709375 C198.298436,53.9687513 197.989064,54.0984375 197.607813,54.0984375 C197.18281,54.0984375 196.850001,53.9656263 196.609375,53.7 C196.412499,53.4874989 196.314062,53.2281265 196.314062,52.921875 C196.314062,52.5906233 196.423436,52.3164073 196.642187,52.0992188 C196.860939,51.8820302 197.135936,51.7734375 197.467188,51.7734375 C197.610938,51.7734375 197.71875,51.7859374 197.790625,51.8109375 L197.790625,50.5359375 C197.790625,50.3328115 197.740626,50.1656257 197.640625,50.034375 C197.484374,49.828124 197.095316,49.6687506 196.473437,49.55625 Z M197.467188,53.4375 C197.607813,53.4375 197.727343,53.3867193 197.825781,53.2851562 C197.924219,53.1835932 197.973437,53.0625007 197.973437,52.921875 C197.973437,52.7812493 197.923438,52.660938 197.823438,52.5609375 C197.723437,52.460937 197.604688,52.4109375 197.467188,52.4109375 C197.323437,52.4109375 197.200782,52.4601558 197.099219,52.5585938 C196.997656,52.6570317 196.946875,52.7781243 196.946875,52.921875 C196.946875,53.0656257 196.996874,53.1874995 197.096875,53.2875 C197.196876,53.3875005 197.320312,53.4375 197.467188,53.4375 Z M205.004688,54 L203.884375,54 L203.884375,49.5703125 C203.884375,49.0421849 203.812501,48.6718761 203.66875,48.459375 C203.421874,48.0968732 203.001565,47.915625 202.407812,47.915625 C201.80781,47.915625 201.334377,48.0828108 200.9875,48.4171875 C200.759374,48.6328136 200.607813,48.889061 200.532812,49.1859375 L199.885938,48.7921875 C200.032813,48.3703104 200.289061,48.007814 200.654688,47.7046875 C201.07969,47.3515607 201.681246,47.175 202.459375,47.175 C203.225004,47.175 203.843748,47.3640606 204.315625,47.7421875 C204.775002,48.1140644 205.004688,48.6624964 205.004688,49.3875 L205.004688,54 Z M208.534375,54 L207.203125,54 C207.203125,53.9718749 207.205469,53.9273441 207.210156,53.8664062 C207.214844,53.8054684 207.217188,53.7593752 207.217188,53.728125 C207.217188,53.3437481 207.171875,52.8828152 207.08125,52.3453125 C206.978124,51.9359355 206.832813,51.3171916 206.645313,50.4890625 C206.601562,50.2796865 206.579687,50.0359389 206.579687,49.7578125 C206.579687,48.9484335 206.871872,48.3031274 207.45625,47.821875 C207.981253,47.3906228 208.701558,47.175 209.617188,47.175 C210.598442,47.175 211.337498,47.3796855 211.834375,47.7890625 C212.315627,48.1890645 212.55625,48.7624963 212.55625,49.509375 L212.55625,54 L211.43125,54 L211.43125,49.4484375 C211.43125,48.9890602 211.290626,48.6234389 211.009375,48.3515625 C210.706248,48.060936 210.235941,47.915625 209.598438,47.915625 C209.07031,47.915625 208.631252,48.0695297 208.28125,48.3773437 C207.931248,48.6851578 207.75625,49.1421845 207.75625,49.7484375 C207.75625,50.0359389 207.775,50.2671866 207.8125,50.4421875 C207.840625,50.5640631 207.879687,50.7499988 207.929688,51 C207.951563,51.1375007 207.973437,51.3140614 207.995312,51.5296875 C208.001563,51.639063 208.007812,51.7234372 208.014063,51.7828125 C208.014063,51.5890615 208.053125,51.3218767 208.13125,50.98125 C208.175,50.774999 208.249999,50.5046892 208.35625,50.1703125 C208.45,49.8171857 208.571874,49.5359385 208.721875,49.3265625 C208.896876,49.0765612 209.167186,48.9515625 209.532812,48.9515625 C210.151566,48.9515625 210.557812,49.1687478 210.751562,49.603125 C210.826563,49.7781259 210.864063,49.9437492 210.864063,50.1 C210.864063,50.4375017 210.771876,50.706249 210.5875,50.90625 C210.337499,51.1718763 210.021877,51.3046875 209.640625,51.3046875 C209.428124,51.3046875 209.226563,51.2406256 209.035938,51.1125 C208.801561,51.6843779 208.653125,52.4124956 208.590625,53.296875 L208.534375,54 Z M209.659375,49.621875 C209.318748,49.621875 209.148438,49.7921858 209.148438,50.1328125 C209.148438,50.2703132 209.198437,50.3882808 209.298437,50.4867187 C209.398438,50.5851567 209.518749,50.634375 209.659375,50.634375 C209.790626,50.634375 209.907031,50.5835943 210.008594,50.4820313 C210.110157,50.3804682 210.160938,50.2640632 210.160938,50.1328125 C210.160938,49.9890618 210.1125,49.8679692 210.015625,49.7695312 C209.91875,49.6710933 209.800001,49.621875 209.659375,49.621875 Z M218.753125,54 L217.632812,54 L217.632812,49.5703125 C217.632812,49.0421849 217.560938,48.6718761 217.417187,48.459375 C217.170311,48.0968732 216.750003,47.915625 216.15625,47.915625 C215.556247,47.915625 215.082814,48.0828108 214.735937,48.4171875 C214.507811,48.6328136 214.35625,48.889061 214.28125,49.1859375 L213.634375,48.7921875 C213.781251,48.3703104 214.037498,48.007814 214.403125,47.7046875 C214.828127,47.3515607 215.429684,47.175 216.207813,47.175 C216.973441,47.175 217.592185,47.3640606 218.064062,47.7421875 C218.52344,48.1140644 218.753125,48.6624964 218.753125,49.3875 L218.753125,54 Z M225.371875,47.953125 C225.500001,48.0906257 225.604687,48.2640615 225.685938,48.4734375 C225.804688,48.770314 225.864063,49.0749984 225.864063,49.3875 L225.864063,54 L224.748438,54 L224.748438,53.3859375 C224.748438,52.8046846 224.560939,52.1328163 224.185938,51.3703125 C223.70781,50.4046827 223.187503,49.921875 222.625,49.921875 C222.256248,49.921875 222.004688,50.1265605 221.870312,50.5359375 C221.810937,50.7265635 221.78125,50.967186 221.78125,51.2578125 C221.78125,51.4265633 221.79375,51.6109365 221.81875,51.8109375 C221.965626,51.7578122 222.106249,51.73125 222.240625,51.73125 C222.568752,51.73125 222.845311,51.8445301 223.070312,52.0710938 C223.295314,52.2976574 223.407812,52.5749984 223.407812,52.903125 C223.407812,53.1531263 223.325001,53.3921864 223.159375,53.6203125 C222.984374,53.8671887 222.778126,54.0062498 222.540625,54.0375 C222.353124,54.0593751 222.225,54.0703125 222.15625,54.0703125 C221.749998,54.0703125 221.403126,53.923439 221.115625,53.6296875 C220.809373,53.323436 220.65625,52.7312544 220.65625,51.853125 C220.65625,50.8968702 220.809373,50.221877 221.115625,49.828125 C221.450002,49.3874978 221.892185,49.1671875 222.442188,49.1671875 C222.754689,49.1671875 223.084373,49.2499992 223.43125,49.415625 C223.834377,49.606251 224.215623,50.0171843 224.575,50.6484375 C224.615625,50.7203129 224.673437,50.8296868 224.748438,50.9765625 L224.748438,49.5703125 C224.748438,49.0828101 224.664063,48.7156262 224.495312,48.46875 C224.239061,48.0999982 223.753129,47.915625 223.0375,47.915625 C222.393747,47.915625 221.889064,48.0289051 221.523438,48.2554688 C221.157811,48.4820324 220.923438,48.7374986 220.820312,49.021875 L220.20625,48.54375 L220.609375,48.0421875 C220.828126,47.8328115 221.046874,47.6718756 221.265625,47.559375 C221.484376,47.4468744 221.759373,47.3515629 222.090625,47.2734375 C222.381251,47.2078122 222.706248,47.175 223.065625,47.175 C223.706253,47.175 224.226561,47.2609366 224.626562,47.4328125 C224.767188,47.335937 224.875,47.2312506 224.95,47.11875 C225.059376,46.9781243 225.114063,46.7906262 225.114063,46.55625 L226.304688,46.8609375 C226.304688,47.2203143 226.103127,47.5281237 225.7,47.784375 C225.587499,47.8562504 225.478126,47.9124998 225.371875,47.953125 Z M222.746875,52.903125 C222.746875,52.7624993 222.698438,52.6414068 222.601562,52.5398438 C222.504687,52.4382807 222.384376,52.3875 222.240625,52.3875 C222.106249,52.3875 221.990625,52.4398432 221.89375,52.5445313 C221.796875,52.6492193 221.748438,52.7687493 221.748438,52.903125 C221.748438,53.0406257 221.796875,53.1601557 221.89375,53.2617188 C221.990625,53.3632818 222.106249,53.4140625 222.240625,53.4140625 C222.381251,53.4140625 222.500781,53.364063 222.599219,53.2640625 C222.697657,53.164062 222.746875,53.0437507 222.746875,52.903125 Z M222.896875,54.95625 C222.615624,54.95625 222.454688,55.0874987 222.414062,55.35 C222.414062,55.7000017 222.574998,55.875 222.896875,55.875 C223.203127,55.875 223.35625,55.7218765 223.35625,55.415625 C223.35625,55.3874999 223.354688,55.3656251 223.351562,55.35 C223.351562,55.0874987 223.200002,54.95625 222.896875,54.95625 Z M223.01875,57.121875 L223.01875,56.2546875 C222.95625,56.2734376 222.889063,56.2828125 222.817188,56.2828125 C222.564061,56.2828125 222.320314,56.178126 222.085938,55.96875 C221.948437,55.8468744 221.879688,55.6609388 221.879688,55.4109375 C221.879688,55.1734363 221.967187,54.9625009 222.142187,54.778125 C222.335938,54.581249 222.592186,54.4828125 222.910938,54.4828125 C223.44219,54.4828125 223.778124,54.6749981 223.91875,55.059375 C223.975,55.2156258 224.003125,55.4265612 224.003125,55.6921875 L224.003125,56.475 L224.809375,56.475 L224.809375,54.6046875 L225.784375,54.6046875 L225.784375,57.121875 L223.01875,57.121875 Z M230.33125,49.5 C230.140624,49.5187501 230.03125,49.528125 230.003125,49.528125 C229.678123,49.528125 229.400782,49.4195323 229.171094,49.2023437 C228.941405,48.9851552 228.826563,48.7140641 228.826563,48.3890625 C228.826563,48.1359362 228.910937,47.8937512 229.079687,47.6625 C229.254688,47.4156238 229.464061,47.2765627 229.707813,47.2453125 C229.901563,47.2234374 230.035937,47.2125 230.110937,47.2125 C230.52969,47.2125 230.859374,47.3499986 231.1,47.625 C231.328126,47.8875013 231.442188,48.2109356 231.442188,48.5953125 L231.442188,54 L230.0125,54 C229.975,53.9249996 229.907813,53.8015634 229.810938,53.6296875 C229.779687,53.5734372 229.656251,53.3875016 229.440625,53.071875 C229.3625,52.9468744 229.232813,52.7500013 229.051563,52.48125 C228.810936,52.1437483 228.517189,51.7921893 228.170313,51.4265625 C228.073437,51.326562 227.932813,51.1875009 227.748438,51.009375 L227.729688,50.990625 C227.457811,50.7281237 227.275,50.5703128 227.18125,50.5171875 C227.062499,50.4484372 226.98125,50.4015626 226.9375,50.3765625 L227.251562,49.8796875 C227.407813,49.8796875 227.856246,50.2062467 228.596875,50.859375 C228.865626,51.0968762 229.139061,51.3562486 229.417188,51.6375 C229.576563,51.8093759 229.785936,52.0671858 230.045313,52.4109375 L230.33125,52.8 L230.33125,49.5 Z M229.478125,48.3890625 C229.478125,48.5328132 229.529687,48.6531245 229.632812,48.75 C229.735938,48.8468755 229.859374,48.8953125 230.003125,48.8953125 C230.134376,48.8953125 230.250781,48.8437505 230.352344,48.740625 C230.453907,48.6374995 230.504688,48.5203132 230.504688,48.3890625 C230.504688,48.2546868 230.454688,48.1343755 230.354688,48.028125 C230.254687,47.9218745 230.137501,47.86875 230.003125,47.86875 C229.856249,47.86875 229.732032,47.9187495 229.630469,48.01875 C229.528906,48.1187505 229.478125,48.2421868 229.478125,48.3890625 Z M238.248438,47.953125 C238.376563,48.0906257 238.48125,48.2640615 238.5625,48.4734375 C238.681251,48.770314 238.740625,49.0749984 238.740625,49.3875 L238.740625,54 L237.625,54 L237.625,53.3859375 C237.625,52.8046846 237.437502,52.1328163 237.0625,51.3703125 C236.584373,50.4046827 236.064065,49.921875 235.501562,49.921875 C235.132811,49.921875 234.881251,50.1265605 234.746875,50.5359375 C234.6875,50.7265635 234.657813,50.967186 234.657812,51.2578125 C234.657813,51.4265633 234.670312,51.6109365 234.695312,51.8109375 C234.842188,51.7578122 234.982812,51.73125 235.117188,51.73125 C235.445314,51.73125 235.721874,51.8445301 235.946875,52.0710938 C236.171876,52.2976574 236.284375,52.5749984 236.284375,52.903125 C236.284375,53.1531263 236.201563,53.3921864 236.035938,53.6203125 C235.860937,53.8671887 235.654689,54.0062498 235.417188,54.0375 C235.229687,54.0593751 235.101563,54.0703125 235.032812,54.0703125 C234.62656,54.0703125 234.279689,53.923439 233.992188,53.6296875 C233.685936,53.323436 233.532812,52.7312544 233.532812,51.853125 C233.532812,50.8968702 233.685936,50.221877 233.992188,49.828125 C234.326564,49.3874978 234.768747,49.1671875 235.31875,49.1671875 C235.631252,49.1671875 235.960936,49.2499992 236.307813,49.415625 C236.71094,49.606251 237.092186,50.0171843 237.451563,50.6484375 C237.492188,50.7203129 237.55,50.8296868 237.625,50.9765625 L237.625,49.5703125 C237.625,49.0828101 237.540626,48.7156262 237.371875,48.46875 C237.115624,48.0999982 236.629691,47.915625 235.914062,47.915625 C235.270309,47.915625 234.765627,48.0289051 234.4,48.2554688 C234.034373,48.4820324 233.800001,48.7374986 233.696875,49.021875 L233.082813,48.54375 L233.485937,48.0421875 C233.704689,47.8328115 233.923436,47.6718756 234.142187,47.559375 C234.360939,47.4468744 234.635936,47.3515629 234.967188,47.2734375 C235.257814,47.2078122 235.582811,47.175 235.942188,47.175 C236.582816,47.175 237.103123,47.2609366 237.503125,47.4328125 C237.643751,47.335937 237.751562,47.2312506 237.826563,47.11875 C237.935938,46.9781243 237.990625,46.7906262 237.990625,46.55625 L239.18125,46.8609375 C239.18125,47.2203143 238.97969,47.5281237 238.576563,47.784375 C238.464062,47.8562504 238.354688,47.9124998 238.248438,47.953125 Z M235.623438,52.903125 C235.623438,52.7624993 235.575,52.6414068 235.478125,52.5398438 C235.38125,52.4382807 235.260938,52.3875 235.117188,52.3875 C234.982812,52.3875 234.867188,52.4398432 234.770313,52.5445313 C234.673437,52.6492193 234.625,52.7687493 234.625,52.903125 C234.625,53.0406257 234.673437,53.1601557 234.770313,53.2617188 C234.867188,53.3632818 234.982812,53.4140625 235.117188,53.4140625 C235.257813,53.4140625 235.377343,53.364063 235.475781,53.2640625 C235.574219,53.164062 235.623438,53.0437507 235.623438,52.903125 Z M237.775,57.31875 L237.775,56.5921875 C237.73125,56.6078126 237.673438,56.615625 237.601562,56.615625 C237.260936,56.615625 236.995313,56.5171885 236.804688,56.3203125 C236.635937,56.1421866 236.551563,55.9140639 236.551563,55.6359375 C236.551563,55.2015603 236.746873,54.9046883 237.1375,54.7453125 C237.309376,54.6734371 237.492187,54.6375 237.685938,54.6375 C238.064064,54.6375 238.370311,54.7781236 238.604688,55.059375 C238.792188,55.2843761 238.885937,55.6374976 238.885938,56.11875 L238.885938,57.31875 L237.775,57.31875 Z M237.610937,55.171875 C237.301561,55.171875 237.146875,55.3359359 237.146875,55.6640625 C237.146875,55.9859391 237.312498,56.146875 237.64375,56.146875 C237.971877,56.146875 238.135938,55.9734392 238.135938,55.6265625 C238.098437,55.323436 237.923439,55.171875 237.610937,55.171875 Z M245.1625,54 L245.1625,49.4484375 C245.1625,48.9859352 245.021876,48.6203138 244.740625,48.3515625 C244.434373,48.060936 243.964066,47.915625 243.329687,47.915625 C242.79531,47.915625 242.362502,48.064061 242.03125,48.3609375 C241.656248,48.7015642 241.46875,49.1640596 241.46875,49.7484375 C241.46875,50.054689 241.501562,50.3515611 241.567188,50.6390625 L241.745313,51.4546875 C241.882813,52.0640655 241.951563,52.5609356 241.951563,52.9453125 C242.179689,52.5546855 242.471873,52.107815 242.828125,51.6046875 C242.937501,51.4515617 243.035937,51.3156256 243.123438,51.196875 C242.864061,51.1656248 242.614064,51.0406261 242.373438,50.821875 C242.207812,50.6718742 242.125,50.4281267 242.125,50.090625 C242.125,49.9281242 242.151562,49.7812507 242.204687,49.65 C242.404689,49.1562475 242.790622,48.909375 243.3625,48.909375 C243.812502,48.909375 244.135937,49.0624985 244.332813,49.36875 C244.492188,49.6281263 244.571875,49.8999986 244.571875,50.184375 C244.571875,50.381251 244.437501,50.6937479 244.16875,51.121875 C243.946874,51.4437516 243.61719,51.9249968 243.179688,52.565625 C243.010937,52.8125012 242.770314,53.1843725 242.457813,53.68125 C242.379687,53.8125007 242.315625,53.9187496 242.265625,54 L240.925,54 C240.925,53.9718749 240.926562,53.9273441 240.929688,53.8664062 C240.932813,53.8054684 240.934375,53.7593752 240.934375,53.728125 C240.934375,53.318748 240.895313,52.8593775 240.817188,52.35 C240.714062,51.9218729 240.570313,51.2750043 240.385938,50.409375 C240.342187,50.203124 240.320312,49.9671888 240.320312,49.7015625 C240.320312,48.9015585 240.615622,48.2734398 241.20625,47.8171875 C241.765628,47.3890604 242.478121,47.175 243.34375,47.175 C244.337505,47.175 245.078123,47.3796855 245.565625,47.7890625 C246.037502,48.1859395 246.273438,48.7593712 246.273438,49.509375 L246.273438,54 L245.1625,54 Z M242.81875,50.1140625 C242.81875,50.2515632 242.872656,50.3710932 242.980469,50.4726562 C243.088282,50.5742193 243.209374,50.625 243.34375,50.625 C243.484376,50.625 243.606249,50.5750005 243.709375,50.475 C243.812501,50.3749995 243.864063,50.2546882 243.864063,50.1140625 C243.864063,49.9671868 243.814063,49.8445317 243.714063,49.7460938 C243.614062,49.6476558 243.490626,49.5984375 243.34375,49.5984375 C243.203124,49.5984375 243.080469,49.6492182 242.975781,49.7507813 C242.871093,49.8523443 242.81875,49.9734368 242.81875,50.1140625 Z" id="ชวงราคา4:ราคาสงสด" fill="#2A3052"></path>
            <path d="M19.1542969,19.1269531 C19.2402348,19.1269531 19.3193356,19.1103517 19.3916016,19.0771484 C19.4638675,19.0439451 19.5273435,18.9990237 19.5820312,18.9423828 C19.636719,18.8857419 19.6796873,18.8203129 19.7109375,18.7460938 C19.7421877,18.6718746 19.7578125,18.5917973 19.7578125,18.5058594 C19.7578125,18.4238277 19.7421877,18.3457035 19.7109375,18.2714844 C19.6796873,18.1972653 19.636719,18.1308597 19.5820312,18.0722656 C19.5273435,18.0136716 19.4638675,17.9677736 19.3916016,17.9345703 C19.3193356,17.901367 19.2402348,17.8847656 19.1542969,17.8847656 C19.0683589,17.8847656 18.9863285,17.901367 18.9082031,17.9345703 C18.8300777,17.9677736 18.761719,18.0117185 18.703125,18.0664062 C18.644531,18.121094 18.598633,18.1865231 18.5654297,18.2626953 C18.5322264,18.3388676 18.515625,18.4199214 18.515625,18.5058594 C18.515625,18.5917973 18.5322264,18.6728512 18.5654297,18.7490234 C18.598633,18.8251957 18.6435544,18.8906247 18.7001953,18.9453125 C18.7568362,19.0000003 18.8242184,19.0439451 18.9023438,19.0771484 C18.9804691,19.1103517 19.0644527,19.1269531 19.1542969,19.1269531 Z M17.9296875,14.7382812 C17.6015609,14.6757809 17.2861343,14.6337892 16.9833984,14.6123047 C16.6806625,14.5908202 16.3789078,14.5800781 16.078125,14.5800781 C15.8828115,14.5800781 15.7216803,14.5966795 15.5947266,14.6298828 C15.4677728,14.6630861 15.3417975,14.7109372 15.2167969,14.7734375 C15.1660154,14.664062 15.1376953,14.5566412 15.1318359,14.4511719 C15.1259765,14.3457026 15.1230469,14.2734377 15.1230469,14.234375 C15.1230469,13.6992161 15.2949202,13.1640652 15.6386719,12.6289062 C16.0917991,11.9179652 16.8242137,11.5625 17.8359375,11.5625 C17.9726569,11.5625 18.1386709,11.5820311 18.3339844,11.6210938 C18.5292979,11.6601564 18.7460926,11.7128903 18.984375,11.7792969 C19.2031261,11.8417972 19.3945304,11.8896483 19.5585938,11.9228516 C19.7226571,11.9560549 19.8554682,11.9726562 19.9570312,11.9726562 C20.3046892,11.9726562 20.5722647,11.8125016 20.7597656,11.4921875 L22.0898438,12.1835938 C22.0390622,12.3281257 21.9755863,12.4599603 21.8994141,12.5791016 C21.8232418,12.6982428 21.7363286,12.8027339 21.6386719,12.8925781 C21.5058587,13.0136725 21.3623055,13.1113278 21.2080078,13.1855469 C21.0537102,13.259766 20.8945321,13.3046874 20.7304688,13.3203125 C20.6523434,13.328125 20.5830081,13.3349609 20.5224609,13.3408203 C20.4619138,13.3466797 20.4121096,13.3496094 20.3730469,13.3496094 C20.0644516,13.3496094 19.6347684,13.2636727 19.0839844,13.0917969 C18.861327,13.021484 18.666993,12.9697267 18.5009766,12.9365234 C18.3349601,12.9033201 18.19336,12.8867188 18.0761719,12.8867188 C17.6894512,12.8867188 17.3906261,12.9804678 17.1796875,13.1679688 L17.1738281,13.1679688 C17.142578,13.1992189 17.1103517,13.2324217 17.0771484,13.2675781 C17.0439451,13.3027346 17.013672,13.3417967 16.9863281,13.3847656 C17.1621103,13.3925782 17.3535146,13.4072265 17.5605469,13.4287109 C17.7675792,13.4501954 17.9785146,13.4765623 18.1933594,13.5078125 C19.6308666,13.7382824 20.5214827,14.1621063 20.8652344,14.7792969 L20.8652344,14.7734375 C21.0097663,15.0390638 21.0820312,15.3046862 21.0820312,15.5703125 L21.0820312,18.2539062 C21.0820312,18.7656276 20.9121111,19.2089825 20.5722656,19.5839844 C20.244139,19.9394549 19.8242213,20.1171875 19.3125,20.1171875 C18.7382784,20.1171875 18.2890641,19.9355487 17.9648438,19.5722656 L17.9707031,19.5722656 C17.6972643,19.2832017 17.5605469,18.9277365 17.5605469,18.5058594 C17.5605469,18.0527321 17.7128891,17.6757828 18.0175781,17.375 L18.0175781,17.3808594 C18.3222671,17.0761704 18.6992165,16.9238281 19.1484375,16.9238281 L19.2275391,16.9238281 C19.2529298,16.9238281 19.2792967,16.9257812 19.3066406,16.9296875 L19.3066406,15.6816406 C19.3066406,15.5917964 19.294922,15.5078129 19.2714844,15.4296875 C19.2480468,15.3515621 19.214844,15.2832034 19.171875,15.2246094 C19.0937496,15.1269526 18.9521495,15.0371098 18.7470703,14.9550781 C18.5419912,14.8730465 18.2695329,14.8007816 17.9296875,14.7382812 Z M28.6582031,20 L26.8886719,20 L26.8886719,14.5390625 C26.8886719,13.9570283 26.816407,13.562501 26.671875,13.3554688 C26.4218737,12.9882794 25.9863312,12.8046875 25.3652344,12.8046875 C24.7128874,12.8046875 24.2031268,12.9824201 23.8359375,13.3378906 C23.6015613,13.560548 23.4199225,13.9238256 23.2910156,14.4277344 L22.1191406,13.7128906 C22.2285162,13.384764 22.3691398,13.0937513 22.5410156,12.8398438 C22.7128915,12.5859362 22.9160145,12.3613291 23.1503906,12.1660156 C23.6933621,11.7128884 24.451167,11.4863281 25.4238281,11.4863281 C26.3808642,11.4863281 27.1582001,11.7265601 27.7558594,12.2070312 C28.3574249,12.6875024 28.6582031,13.3945266 28.6582031,14.328125 L28.6582031,20 Z M34.3886719,14.5976562 C33.9785136,14.5976562 33.7734375,14.8027323 33.7734375,15.2128906 C33.7734375,15.3847665 33.8320307,15.5263666 33.9492188,15.6376953 C34.0664068,15.749024 34.2128897,15.8046875 34.3886719,15.8046875 C34.4707035,15.8046875 34.5478512,15.7880861 34.6201172,15.7548828 C34.6923832,15.7216795 34.7568357,15.6767581 34.8134766,15.6201172 C34.8701175,15.5634763 34.9140623,15.5000004 34.9453125,15.4296875 C34.9765627,15.3593746 34.9921875,15.2871097 34.9921875,15.2128906 C34.9921875,15.1269527 34.9765627,15.0458988 34.9453125,14.9697266 C34.9140623,14.8935543 34.871094,14.8281253 34.8164062,14.7734375 C34.7617185,14.7187497 34.6982425,14.6757814 34.6259766,14.6445312 C34.5537106,14.6132811 34.4746098,14.5976562 34.3886719,14.5976562 Z M33.2578125,20 L31.2597656,20 C31.2597656,19.8632806 31.2626953,19.7548832 31.2685547,19.6748047 C31.2744141,19.5947262 31.2773438,19.5214847 31.2773438,19.4550781 C31.2773438,19.2285145 31.263672,18.9824232 31.2363281,18.7167969 C31.2089842,18.4511705 31.1699221,18.1660171 31.1191406,17.8613281 C31.0996093,17.7675777 31.0722658,17.6484382 31.0371094,17.5039062 C31.0019529,17.3593743 30.9619143,17.2001962 30.9169922,17.0263672 C30.8720701,16.8525382 30.8261721,16.6669932 30.7792969,16.4697266 C30.7324216,16.27246 30.6904299,16.0751963 30.6533203,15.8779297 C30.6162108,15.6806631 30.5849611,15.4863291 30.5595703,15.2949219 C30.5341796,15.1035147 30.5214844,14.9257821 30.5214844,14.7617188 C30.5214844,13.7382761 30.8945275,12.9179718 31.640625,12.3007812 C32.3085971,11.7578098 33.2070256,11.4863281 34.3359375,11.4863281 C35.5429748,11.4863281 36.4628875,11.7460912 37.0957031,12.265625 C37.7207062,12.7812526 38.0332031,13.5156202 38.0332031,14.46875 L38.0332031,20 L36.2578125,20 L36.2578125,14.3984375 C36.2578125,13.9140601 36.1132827,13.5351576 35.8242188,13.2617188 C35.5078109,12.9570297 35.0039097,12.8046875 34.3125,12.8046875 C33.7499972,12.8046875 33.2792988,12.9707015 32.9003906,13.3027344 C32.5371076,13.6152359 32.3554688,14.097653 32.3554688,14.75 C32.3554688,15.0742204 32.3769529,15.3339834 32.4199219,15.5292969 L32.4609375,15.7460938 C32.511719,15.5703116 32.5634763,15.3945321 32.6162109,15.21875 C32.6689456,15.0429679 32.7275387,14.8750008 32.7919922,14.7148438 C32.8564456,14.5546867 32.9296871,14.4062507 33.0117188,14.2695312 C33.0937504,14.1328118 33.1914057,14.0136724 33.3046875,13.9121094 C33.4179693,13.8105464 33.5507805,13.7314456 33.703125,13.6748047 C33.8554695,13.6181638 34.0332021,13.5898438 34.2363281,13.5898438 C34.4902356,13.5898438 34.7265614,13.6249996 34.9453125,13.6953125 C35.1640636,13.7656254 35.3535148,13.8681634 35.5136719,14.0029297 C35.6738289,14.137696 35.7998042,14.3027334 35.8916016,14.4980469 C35.9833989,14.6933604 36.0292969,14.9160144 36.0292969,15.1660156 C36.0292969,15.6191429 35.9003919,15.9863267 35.6425781,16.2675781 C35.3066389,16.6308612 34.880862,16.8125 34.3652344,16.8125 C34.2636714,16.8125 34.1630864,16.8017579 34.0634766,16.7802734 C33.9638667,16.758789 33.8652349,16.7246096 33.7675781,16.6777344 C33.6582026,16.9863297 33.5683597,17.3300762 33.4980469,17.7089844 C33.427734,18.0878925 33.3769533,18.5058571 33.3457031,18.9628906 L33.2578125,20 Z M45.84375,20 L44.0742188,20 L44.0742188,14.5390625 C44.0742188,13.9570283 44.0019538,13.562501 43.8574219,13.3554688 C43.6074206,12.9882794 43.1718781,12.8046875 42.5507812,12.8046875 C41.8984342,12.8046875 41.3886737,12.9824201 41.0214844,13.3378906 C40.7871082,13.560548 40.6054694,13.9238256 40.4765625,14.4277344 L39.3046875,13.7128906 C39.414063,13.384764 39.5546866,13.0937513 39.7265625,12.8398438 C39.8984384,12.5859362 40.1015613,12.3613291 40.3359375,12.1660156 C40.878909,11.7128884 41.6367139,11.4863281 42.609375,11.4863281 C43.566411,11.4863281 44.343747,11.7265601 44.9414062,12.2070312 C45.5429718,12.6875024 45.84375,13.3945266 45.84375,14.328125 L45.84375,20 Z M50.7890625,18.4824219 C50.7890625,18.3964839 50.7734377,18.3164066 50.7421875,18.2421875 C50.7109373,18.1679684 50.667969,18.1025393 50.6132812,18.0458984 C50.5585935,17.9892575 50.494141,17.9443361 50.4199219,17.9111328 C50.3457028,17.8779295 50.2656254,17.8613281 50.1796875,17.8613281 C50.1015621,17.8613281 50.0283207,17.8789061 49.9599609,17.9140625 C49.8916012,17.9492189 49.831055,17.9960935 49.7783203,18.0546875 C49.7255857,18.1132815 49.6835939,18.1796871 49.6523438,18.2539062 C49.6210936,18.3281254 49.6054688,18.4042965 49.6054688,18.4824219 C49.6054688,18.5644535 49.6210936,18.6425778 49.6523438,18.7167969 C49.6835939,18.791016 49.7255857,18.8554685 49.7783203,18.9101562 C49.831055,18.964844 49.8916012,19.0087889 49.9599609,19.0419922 C50.0283207,19.0751955 50.1015621,19.0917969 50.1796875,19.0917969 C50.3515634,19.0917969 50.4960932,19.0332037 50.6132812,18.9160156 C50.7304693,18.7988275 50.7890625,18.6542977 50.7890625,18.4824219 Z M54.234375,12.7109375 C54.277344,12.7773441 54.3183592,12.8486324 54.3574219,12.9248047 C54.3964846,13.0009769 54.4335936,13.0820308 54.46875,13.1679688 L54.46875,13.1621094 C54.6171882,13.5410175 54.6914062,13.9296855 54.6914062,14.328125 L54.6914062,20 L52.9335938,20 L52.9335938,19.0507812 C52.9335938,18.4023405 52.7187521,17.6425825 52.2890625,16.7714844 C51.7617161,15.7089791 51.2128935,15.1777344 50.6425781,15.1777344 C50.3105452,15.1777344 50.083985,15.3710918 49.9628906,15.7578125 L49.9628906,15.7519531 C49.9277342,15.8535161 49.9033204,15.9687494 49.8896484,16.0976562 C49.8759765,16.2265631 49.8691406,16.3730461 49.8691406,16.5371094 L49.8691406,16.7099609 C49.8691406,16.7744144 49.8730468,16.8378903 49.8808594,16.9003906 C49.9355471,16.8925781 49.9863279,16.8867188 50.0332031,16.8828125 C50.0800784,16.8789062 50.1308591,16.8769531 50.1855469,16.8769531 C50.6386741,16.8769531 51.0195297,17.0332016 51.328125,17.3457031 L51.3222656,17.3457031 C51.6347672,17.6582047 51.7910156,18.0371071 51.7910156,18.4824219 C51.7910156,18.6503915 51.761719,18.8164054 51.703125,18.9804688 C51.644531,19.1445321 51.5625005,19.3027336 51.4570312,19.4550781 C51.2109363,19.7949236 50.9160173,19.9921872 50.5722656,20.046875 C50.3496083,20.0703126 50.1875005,20.0820312 50.0859375,20.0820312 C49.5390598,20.0820312 49.0761738,19.8867207 48.6972656,19.4960938 L48.703125,19.4960938 C48.296873,19.0898417 48.09375,18.3378961 48.09375,17.2402344 C48.09375,16.6582002 48.1445307,16.1562521 48.2460938,15.734375 C48.3476568,15.3124979 48.4921866,14.9726575 48.6796875,14.7148438 C48.9023449,14.4296861 49.1601548,14.2128914 49.453125,14.0644531 C49.7460952,13.9160149 50.0703107,13.8417969 50.4257812,13.8417969 C50.8242207,13.8417969 51.2460915,13.9472646 51.6914062,14.1582031 C52.1328147,14.3730479 52.5468731,14.7753877 52.9335938,15.3652344 L52.9335938,14.5390625 C52.9335938,14.2695299 52.911133,14.0371104 52.8662109,13.8417969 C52.8212888,13.6464834 52.7558598,13.4863287 52.6699219,13.3613281 L52.6699219,13.3671875 C52.4121081,12.9921856 51.8984413,12.8046875 51.1289062,12.8046875 C50.4101527,12.8046875 49.8535176,12.9296863 49.4589844,13.1796875 C49.0683574,13.4140637 48.7871102,13.7734351 48.6152344,14.2578125 L47.4726562,13.3613281 L48.1113281,12.5703125 C48.3769545,12.3085924 48.6523423,12.1074226 48.9375,11.9667969 C49.0703132,11.9003903 49.2236319,11.8369144 49.3974609,11.7763672 C49.5712899,11.71582 49.7597646,11.6601565 49.9628906,11.609375 C50.3183612,11.5273433 50.7187478,11.4863281 51.1640625,11.4863281 C51.5312518,11.4863281 51.8642563,11.5087888 52.1630859,11.5537109 C52.4619156,11.598633 52.7324207,11.6679683 52.9746094,11.7617188 C53.0605473,11.6835934 53.1386715,11.6015629 53.2089844,11.515625 C53.3105474,11.3789056 53.3613281,11.1054708 53.3613281,10.6953125 L55.2128906,11.1640625 C55.2128906,11.7890656 54.9394559,12.2734358 54.3925781,12.6171875 L54.234375,12.7109375 Z M51.234375,21.4414062 C50.9179672,21.4414062 50.7246097,21.5800767 50.6542969,21.8574219 C50.6660157,22.2910178 50.8593731,22.5078125 51.234375,22.5078125 C51.5898455,22.5078125 51.7675781,22.3300799 51.7675781,21.9746094 C51.7675781,21.7988272 51.7265629,21.6660161 51.6445312,21.5761719 C51.5624996,21.4863277 51.4257822,21.4414062 51.234375,21.4414062 Z M51.1464844,24.2128906 L51.1464844,23.2226562 L51.1347656,23.2226562 C50.7753888,23.2226562 50.4375016,23.0800796 50.1210938,22.7949219 C50.0195307,22.7011714 49.9414065,22.5839851 49.8867188,22.4433594 C49.832031,22.3027337 49.8046875,22.1445321 49.8046875,21.96875 C49.8046875,21.6249983 49.9277331,21.32422 50.1738281,21.0664062 C50.4394545,20.7890611 50.7968728,20.6503906 51.2460938,20.6503906 C51.9726599,20.6503906 52.4394521,20.9257785 52.6464844,21.4765625 C52.6816408,21.5781255 52.7089843,21.6972649 52.7285156,21.8339844 C52.748047,21.9707038 52.7578125,22.1269522 52.7578125,22.3027344 L52.7578125,23.0058594 L53.2675781,23.0058594 L53.2675781,20.7910156 L54.8613281,20.7910156 L54.8613281,24.2128906 L51.1464844,24.2128906 Z M59.2792969,16.8359375 C59.3691411,16.9414068 59.4726557,17.0644524 59.5898438,17.2050781 C59.7070318,17.3457038 59.8359368,17.5078116 59.9765625,17.6914062 L59.9765625,14.703125 C59.9296873,14.7070313 59.8935548,14.7099609 59.8681641,14.7119141 C59.8427733,14.7138672 59.8222657,14.7148438 59.8066406,14.7148438 C59.3574196,14.7148438 58.9785172,14.5664077 58.6699219,14.2695312 C58.353514,13.9648422 58.1953125,13.589846 58.1953125,13.1445312 C58.1953125,12.7890607 58.3105457,12.4589859 58.5410156,12.1542969 L58.5351562,12.1601562 C58.6562506,11.9843741 58.7910149,11.8486333 58.9394531,11.7529297 C59.0878914,11.6572261 59.2519522,11.5957033 59.4316406,11.5683594 C59.6582043,11.5449218 59.8261713,11.5332031 59.9355469,11.5332031 C60.4980497,11.5332031 60.9433577,11.7207013 61.2714844,12.0957031 C61.5800797,12.4511737 61.734375,12.88281 61.734375,13.390625 L61.734375,20 L59.6835938,20 C59.6718749,19.9765624 59.6552735,19.9443361 59.6337891,19.9033203 C59.6123046,19.8623045 59.5878908,19.8173831 59.5605469,19.7685547 C59.533203,19.7197263 59.5039064,19.6669925 59.4726562,19.6103516 C59.4414061,19.5537107 59.4121095,19.5000003 59.3847656,19.4492188 C59.3652343,19.4140623 59.3203129,19.342774 59.25,19.2353516 C59.1796871,19.1279292 59.0820319,18.9843759 58.9570312,18.8046875 C58.910156,18.7265621 58.8496097,18.6308599 58.7753906,18.5175781 C58.7011715,18.4042963 58.6093755,18.2675789 58.5,18.1074219 C58.3671868,17.9277335 58.2109384,17.7304698 58.03125,17.515625 C57.8515616,17.3007802 57.6699228,17.093751 57.4863281,16.8945312 L56.9882812,16.4023438 L56.9648438,16.3730469 L56.9648438,16.3789062 C56.6601547,16.085936 56.4589849,15.9121096 56.3613281,15.8574219 L55.8808594,15.5644531 L56.4316406,14.6855469 C56.755861,14.6855469 57.3749954,15.0898397 58.2890625,15.8984375 C58.4492196,16.0390632 58.6132804,16.1884758 58.78125,16.3466797 C58.9492196,16.5048836 59.1152336,16.6679679 59.2792969,16.8359375 Z M59.1972656,13.1503906 C59.1972656,13.2324223 59.213867,13.3076168 59.2470703,13.3759766 C59.2802736,13.4443363 59.3242185,13.5048825 59.3789062,13.5576172 C59.433594,13.6103518 59.4990231,13.651367 59.5751953,13.6806641 C59.6513676,13.7099611 59.7304683,13.7246094 59.8125,13.7246094 C59.8867191,13.7246094 59.958984,13.7070314 60.0292969,13.671875 C60.0996097,13.6367186 60.1621091,13.5917971 60.2167969,13.5371094 C60.2714846,13.4824216 60.314453,13.4208988 60.3457031,13.3525391 C60.3769533,13.2841793 60.3925781,13.2167972 60.3925781,13.1503906 C60.3925781,13.0722652 60.3759767,12.9970707 60.3427734,12.9248047 C60.3095701,12.8525387 60.2656253,12.7880862 60.2109375,12.7314453 C60.1562497,12.6748044 60.0937504,12.6289064 60.0234375,12.59375 C59.9531246,12.5585936 59.8828129,12.5410156 59.8125,12.5410156 C59.6406241,12.5410156 59.4951178,12.5986322 59.3759766,12.7138672 C59.2568353,12.8291021 59.1972656,12.9746085 59.1972656,13.1503906 Z" id="ราคาสง" fill="#000000"></path>
        </g>
    </g>
</svg>