<svg width="300" height="199" viewBox="0 0 300 199" xmlns="http://www.w3.org/2000/svg"><title>thai high close</title><g fill="none" fill-rule="evenodd"><path fill="#F1F2F2" d="M0 0h300v199H0z"/><path d="M39.125 55.375V74.75H75.25V55.375H39.125zm0-1H75.25V34h1v20.375h36.125V34h1v20.375H149.5V34h1v20.375h36.125V34h1v20.375h36.125V34h1v20.375h36.125V34h1v20.375H299.5v1h-37.625V74.75H299.5v1h-37.625v19.375H299.5v1h-37.625V115.5H299.5v1h-37.625v19.375H299.5v1h-37.625v19.375H299.5v1h-37.625v19.375H299.5v1h-37.625V199h-1v-21.375H224.75V199h-1v-21.375h-36.125V199h-1v-21.375H150.5V199h-1v-21.375h-36.125V199h-1v-21.375H76.25V199h-1v-21.375H39.125V199h-1v-21.375H1.5v-1h36.625V157.25H1.5v-1h36.625v-19.375H1.5v-1h36.625V116.5H1.5v-1h36.625V96.125H1.5v-1h36.625V75.75H1.5v-1h36.625V55.375H1.5v-1h36.625V34h1v20.375zm221.75 1H224.75V74.75h36.125V55.375zm-37.125 0h-36.125V74.75h36.125V55.375zm-37.125 0H150.5V74.75h36.125V55.375zm-37.125 0h-36.125V74.75H149.5V55.375zm-37.125 0H76.25V74.75h36.125V55.375zM39.125 75.75v19.375H75.25V75.75H39.125zm221.75 0H224.75v19.375h36.125V75.75zm-37.125 0h-36.125v19.375h36.125V75.75zm-37.125 0H150.5v19.375h36.125V75.75zm-37.125 0h-36.125v19.375H149.5V75.75zm-37.125 0H76.25v19.375h36.125V75.75zm-73.25 20.375V115.5H75.25V96.125H39.125zm221.75 0H224.75V115.5h36.125V96.125zm-37.125 0h-36.125V115.5h36.125V96.125zm-37.125 0H150.5V115.5h36.125V96.125zm-37.125 0h-36.125V115.5H149.5V96.125zm-37.125 0H76.25V115.5h36.125V96.125zM39.125 116.5v19.375H75.25V116.5H39.125zm221.75 0H224.75v19.375h36.125V116.5zm-37.125 0h-36.125v19.375h36.125V116.5zm-37.125 0H150.5v19.375h36.125V116.5zm-37.125 0h-36.125v19.375H149.5V116.5zm-37.125 0H76.25v19.375h36.125V116.5zm-73.25 20.375v19.375H75.25v-19.375H39.125zm221.75 0H224.75v19.375h36.125v-19.375zm-37.125 0h-36.125v19.375h36.125v-19.375zm-37.125 0H150.5v19.375h36.125v-19.375zm-37.125 0h-36.125v19.375H149.5v-19.375zm-37.125 0H76.25v19.375h36.125v-19.375zm-73.25 20.375v19.375H75.25V157.25H39.125zm221.75 0H224.75v19.375h36.125V157.25zm-37.125 0h-36.125v19.375h36.125V157.25zm-37.125 0H150.5v19.375h36.125V157.25zm-37.125 0h-36.125v19.375H149.5V157.25zm-37.125 0H76.25v19.375h36.125V157.25z" fill="#DFDEDE"/><path stroke="#C2C2C2" stroke-width="2" d="M1 1h298v197H1z"/><path fill="#C2C2C2" d="M0 33h300v2H0z"/><g transform="translate(4 34.754)"><path d="M.9 30.163h290.625" stroke="#15212D" stroke-width="1.133" fill="#D8D8D8" fill-rule="nonzero" stroke-dasharray="7.5"/><path d="M237.863.725V161" stroke="#2A3052" stroke-width="1.211" stroke-linejoin="round"/><path d="M.9 122.75h290.625" stroke="#15212D" stroke-width="1.133" fill="#D8D8D8" fill-rule="nonzero" stroke-dasharray="7.5"/><path stroke="#2A3052" stroke-width="3.633" stroke-linecap="round" stroke-linejoin="round" d="M17.25 82.063L53.115 66l26.494 21.96 43.594-57.247 31.74 113.025 18.105-68.974 27.446-22.991 37.5 71.542"/><ellipse cx="8.137" cy="10.35" rx="8.137" ry="8.475" opacity=".6" transform="translate(229.5 112.25)" fill="#FFF" fill-rule="nonzero"/><ellipse stroke="#E88024" stroke-width="2.422" cx="237.637" cy="122.6" rx="8.137" ry="8.475"/><ellipse cx="10.012" cy="8.475" rx="8.137" ry="8.475" opacity=".6" transform="translate(113.25 22.25)" fill="#FFF" fill-rule="nonzero"/><ellipse stroke="#E88024" stroke-width="2.422" cx="123.263" cy="30.725" rx="8.137" ry="8.475"/></g><g fill="#2A3052"><path d="M10.484 125.694a453.595 453.595 0 0 0 0 4.5c.857-.209 1.459.583 1.459 1.049 0 .466-.185 1.199-1.118 1.275-.933.076-1.45-.559-1.45-1.338v-5.486h1.109zm.327 5.145a.504.504 0 0 0-.526.506c0 .23.117.506.526.506.41 0 .513-.298.513-.533 0-.235-.155-.479-.513-.479zM17.117 125.692c.266.146.531.275.796.386-.227.484-.633.726-1.219.726-.878 0-1.238-.449-2.073-.394-.834.055-.924.52-1.078.762.664.062 1.153.115 1.467.158.47.065 1.834.407 2.027 1.128.167.576.08 2.182.08 2.765 0 .583-.395 1.285-1.445 1.285s-1.165-.897-1.165-1.208c0-.311.335-1.398 1.472-1.074.011-.72.014-1.155.009-1.307-.009-.227-.024-.634-.752-.82-.729-.186-1.988-.355-2.805-.26.064-.753.279-1.566 1.112-1.982.833-.417 1.905-.054 2.445.084.54.137.802 0 1.129-.249zm-1.495 5.134c-.302 0-.495.317-.495.514 0 .198.205.515.495.515.29 0 .55-.176.55-.529 0-.352-.247-.5-.55-.5zM11.716 124.582c.242-1.016.67-2.107 2.568-2.156 1.898-.05 2.675 1.398 2.895 2.214-1.386-.401-4.668-.287-5.463-.058zm1.204-.718c.78-.083 2.319-.083 3.06.115-.26-.526-.947-1.042-1.726-.992-.78.05-1.104.324-1.334.877zM16.056 119.734h1.003v1.921h-1.003zM23.482 125.712h1.117v5.565c0 .543-.254.963-.55 1.083-.175.07-.316.172-.567.08-.646-.234-.72-1.73-2.394-2.121-.007.275-.012.74-.017 1.394-.162.838-.995.903-1.682.727-.687-.175-1.154-1.081-.868-1.928.288-.854.746-1.012 1.405-1.089.025-.53.032-1.035.02-1.514-1.064.175-1.566-.583-1.488-1.243.079-.66.56-1.042 1.29-1.043.73 0 1.34.59 1.323 1.234-.016.644-.011 1.581.017 2.632.605.104 1.006.301 1.508.743.142.125.394.386.78.725.075-.104.106-.297.106-.825v-4.42zm-3.882.566c-.256 0-.492.115-.492.52 0 .403.259.519.492.519.234 0 .55-.162.55-.514s-.294-.525-.55-.525zm.353 3.996c-.063-.073-.266-.076-.455.074-.188.15-.346.584-.164 1.116.183.532.62.253.62 0v-1.19zM31.111 132.424v-3.907c0-1.75-.559-1.927-.75-1.927-.19 0-.738.41-1.135.41-.396 0-.524-.19-1.047-.41-.873.295-.898 1.88-.72 2.293.12.275.259 1.11.416 2.507.047-.135.44-.674 1.178-1.617-.659.084-1.008-.684-1.008-1.167s.729-1.453 1.784-.993c1.054.46.658 1.804.25 2.16-.274.238-.907 1.124-1.9 2.658l-1.312-.007c.021-.399.021-.872-.174-1.827-.128-.631-.442-1.567-.442-2.365 0-2.008 1.643-2.636 2.038-2.636.404.156.705.605 1.017.605.313 0 .48-.291 1.055-.605 1.295 0 1.84 1.646 1.84 2.152v4.676h-1.09zm-1.845-4.21c-.283 0-.508.266-.508.508 0 .241.162.5.508.5.345 0 .532-.241.532-.538 0-.297-.25-.47-.532-.47zM32.205 121.96c.578.002.877 0 1.042 0 .005.516-.162 1.132-1.042 1.865-.773.643-2.128.902-2.855.852l-.009-.491c.383-.043.62-.244.712-.603-.634.05-1.203-.24-1.203-.932 0-.691.443-.915 1.034-.965.591-.05.967.473 1.097.854.13.38 0 .876-.374 1.285.95-.195 1.598-1.174 1.598-1.865zm-2.382.258a.43.43 0 0 0-.431.435c0 .216.206.456.431.456s.484-.11.484-.456c0-.347-.22-.435-.484-.435zM38.033 125.71h1.06v4.003c0 .267-.394.429-.57.503.595.276.799.626.799 1.155 0 .53-.49 1.151-1.141 1.151-.65 0-.96-.529-1.046-.92-.085-.392.022-.767.136-.854-.693.086-1.347 1.068-1.479 1.659l-1.019.01v-4.524c-.924.049-1.386-.306-1.386-1.064 0-1.136.996-1.188 1.258-1.188.263 0 .974.162 1.147 1.03.037.95 0 4.14 0 4.373.254-.374.69-.857 1.233-.977.543-.121.86-.189 1.008-.486.008-.607.008-1.898 0-3.871zm.145 5.12c-.22 0-.473.222-.473.524 0 .303.254.524.473.524.22 0 .53-.166.53-.559s-.31-.489-.53-.489zm-3.776-4.542c-.291 0-.402.247-.402.512s.212.512.468.512.483-.262.483-.555c0-.294-.257-.47-.549-.47z"/></g><path d="M23.446 21.907a.684.684 0 0 0-.196-.487.686.686 0 0 0-.216-.15.649.649 0 0 0-.268-.056.529.529 0 0 0-.245.058.705.705 0 0 0-.203.157.785.785 0 0 0-.14.223.651.651 0 0 0 0 .516.697.697 0 0 0 .343.363.658.658 0 0 0 .73-.14.658.658 0 0 0 .195-.484zm3.845-6.442c.048.074.094.154.138.239.043.085.085.175.124.271v-.006c.165.423.248.857.248 1.301v6.33H25.84v-1.059c0-.724-.24-1.572-.719-2.544-.589-1.186-1.201-1.779-1.838-1.779-.37 0-.623.216-.758.648v-.007c-.04.114-.067.242-.082.386a4.694 4.694 0 0 0-.023.49v.194c0 .072.005.142.013.212a2.055 2.055 0 0 1 .34-.026c.506 0 .931.174 1.276.523h-.007c.349.349.523.772.523 1.269 0 .187-.033.373-.098.556-.065.183-.157.36-.275.53-.274.379-.603.599-.987.66-.249.026-.43.04-.543.04-.61 0-1.127-.219-1.55-.655h.007c-.454-.453-.68-1.293-.68-2.518 0-.65.056-1.21.17-1.68.113-.471.274-.85.484-1.138.248-.318.536-.56.863-.726a2.367 2.367 0 0 1 1.085-.249c.445 0 .916.118 1.413.354.493.24.955.688 1.386 1.347v-.922c0-.301-.025-.56-.075-.779a1.558 1.558 0 0 0-.219-.536v.007c-.288-.419-.86-.628-1.72-.628-.802 0-1.423.14-1.864.418-.436.262-.75.663-.941 1.204l-1.275-1 .712-.884a3.58 3.58 0 0 1 1.436-.886c.194-.067.404-.13.63-.186a5.98 5.98 0 0 1 1.341-.137c.41 0 .782.025 1.115.075.334.05.636.127.906.232.096-.087.183-.179.262-.275.113-.152.17-.458.17-.915l2.066.523c0 .697-.305 1.238-.915 1.622l-.177.104zm-3.348 9.744c-.353 0-.569.155-.648.465.014.484.23.725.648.725.397 0 .595-.198.595-.595 0-.196-.046-.344-.137-.444-.092-.1-.244-.15-.458-.15zm-.098 3.093v-1.105h-.013c-.401 0-.778-.159-1.132-.477a1.035 1.035 0 0 1-.261-.392 1.452 1.452 0 0 1-.092-.53c0-.384.138-.72.412-1.007.297-.31.696-.465 1.197-.465.81 0 1.332.308 1.563.923.04.113.07.246.092.398.021.153.032.327.032.524v.784h.57v-2.472h1.778v3.82h-4.146zm9.077-8.233c.1.118.216.255.346.412.131.157.275.338.432.543v-3.335a20.441 20.441 0 0 1-.19.013 1.76 1.76 0 0 1-1.268-.497 1.675 1.675 0 0 1-.53-1.256c0-.396.129-.765.386-1.105l-.007.007c.135-.197.286-.348.451-.455.166-.107.35-.175.55-.206.253-.026.44-.04.562-.04.628 0 1.125.21 1.491.629.345.396.517.878.517 1.445V23.6h-2.289a6.835 6.835 0 0 0-.137-.259 32.07 32.07 0 0 1-.197-.356 4.992 4.992 0 0 0-.15-.239c-.078-.12-.187-.28-.327-.48a9.865 9.865 0 0 0-.203-.321 29.462 29.462 0 0 0-.307-.458c-.148-.2-.323-.42-.523-.66-.2-.24-.403-.471-.608-.693l-.556-.55-.026-.032v.006c-.34-.327-.565-.52-.674-.582l-.536-.327.615-.98c.361 0 1.052.45 2.073 1.353a21.306 21.306 0 0 1 1.105 1.046zm-.092-4.113c0 .091.019.175.056.252a.711.711 0 0 0 .147.202.645.645 0 0 0 .219.138.732.732 0 0 0 .265.049c.083 0 .163-.02.242-.06a.8.8 0 0 0 .21-.15.703.703 0 0 0 .143-.206.54.54 0 0 0 .052-.225.596.596 0 0 0-.055-.252.773.773 0 0 0-.357-.37.522.522 0 0 0-.235-.058.674.674 0 0 0-.487.193.65.65 0 0 0-.2.487zm5.127 2.522h8.455v1.573h-8.455v-1.573zm12.947-3.758c.397.431.595.933.595 1.504v5.761h2.78c.144 0 .26-.05.346-.15.053-.044.079-.161.079-.353V10.796h1.988v10.856c0 .545-.122.985-.366 1.32-.31.42-.81.629-1.498.629h-6.082v-1.616h.791v-4.29a.774.774 0 0 1-.107.007h-.095c-.497 0-.92-.168-1.269-.504a1.644 1.644 0 0 1-.536-1.249c0-.383.124-.75.373-1.098.143-.197.3-.348.47-.455.17-.107.354-.175.55-.206.253-.026.438-.04.556-.04.619 0 1.096.19 1.432.57h-.007zm-2.302 1.236c0 .1.021.194.062.281a.746.746 0 0 0 .677.438c.1 0 .194-.02.281-.062a.815.815 0 0 0 .23-.16.717.717 0 0 0 .209-.497.777.777 0 0 0-.21-.536.677.677 0 0 0-.51-.222.7.7 0 0 0-.284.058.737.737 0 0 0-.236.164.794.794 0 0 0-.16.242.74.74 0 0 0-.059.294zm4.565-3.486c-.41-.074-.85-.13-1.321-.17a18.67 18.67 0 0 0-3.319.033c-.634.06-1.318.152-2.05.275l.333-1.151c.615-1.487 1.78-2.23 3.493-2.23.767 0 1.438.154 2.014.464.575.31 1.055.765 1.439 1.367.152.24.279.498.379.775.1.276.174.563.222.86l-1.19-.223zm-3.113-2.282c-.453 0-.824.091-1.112.275-.287.183-.53.442-.726.778.432-.022.826-.047 1.18-.075a10.928 10.928 0 0 1 2.008.007c.365.032.769.085 1.214.16-.663-.764-1.518-1.145-2.564-1.145zm12.386 8.037c0 .096.022.187.065.275a.803.803 0 0 0 .41.386c.089.039.181.058.277.058a.741.741 0 0 0 .51-.202.755.755 0 0 0 .167-.23.752.752 0 0 0 .007-.579.683.683 0 0 0-.157-.231.746.746 0 0 0-.798-.154.83.83 0 0 0-.242.154.762.762 0 0 0-.174.232.655.655 0 0 0-.065.291zm2.897 5.376v-6.252c0-.545-.159-.968-.477-1.269-.353-.34-.918-.51-1.694-.51-.3 0-.584.05-.85.15-.266.1-.497.227-.693.38a2.27 2.27 0 0 0-.478.722 2.313 2.313 0 0 0-.183.92c0 .195.01.387.03.575.02.187.05.37.094.549l.236 1.079v-.007c.104.458.179.87.222 1.236a25.388 25.388 0 0 1 .85-1.256 1.715 1.715 0 0 1 .078-.111 1.78 1.78 0 0 1-.369-.186 3.154 3.154 0 0 1-.363-.284v.006c-.27-.244-.405-.628-.405-1.15 0-.245.04-.47.118-.674.313-.754.9-1.132 1.759-1.132.684 0 1.181.242 1.49.726.236.38.354.78.354 1.204 0 .318-.192.776-.576 1.373l-.399.582-.909 1.334v-.007c-.113.166-.246.369-.398.609a302.965 302.965 0 0 0-.66 1.046.889.889 0 0 0-.034.059l-.032.062a1.05 1.05 0 0 1-.056.088l-.095.138h-2.151v-.076c0-.041 0-.086.003-.134a3.03 3.03 0 0 0 .003-.137v-.092a.917.917 0 0 0 .007-.098v-.072c0-.257-.012-.533-.036-.827a13.49 13.49 0 0 0-.115-.951l.007.02a54.99 54.99 0 0 1-.249-1.067 81.971 81.971 0 0 1-.32-1.504 4.446 4.446 0 0 1-.098-.98c0-.572.106-1.08.317-1.528.212-.447.529-.834.952-1.16.392-.297.834-.52 1.327-.67a5.607 5.607 0 0 1 1.642-.226c1.369 0 2.4.29 3.093.87.68.575 1.02 1.394 1.02 2.458v6.174h-1.962z" fill="#020202"/><path d="M254.354 171.58c.316.343.474.746.474 1.207v5.429h2.737a.637.637 0 0 0 .475-.201c.085-.082.128-.242.128-.48v-9.422h1.352v9.578c0 .447-.095.8-.285 1.061-.238.317-.631.475-1.178.475h-5.267v-1.011h.715v-4.35c-.16.022-.296.033-.408.033-.384 0-.713-.13-.989-.391a1.277 1.277 0 0 1-.413-.966c0-.302.099-.59.296-.866.22-.294.475-.46.765-.497a4.91 4.91 0 0 1 .475-.04c.484 0 .858.148 1.123.442zm-1.86.962c0 .16.06.3.179.421s.26.182.424.182a.58.58 0 0 0 .424-.179.58.58 0 0 0 .18-.424.607.607 0 0 0-.177-.439.573.573 0 0 0-.427-.181.57.57 0 0 0-.43.181.612.612 0 0 0-.173.439zm4.725-2.62l-.765-.145c-.752-.142-1.627-.212-2.625-.212-.983 0-2.031.093-3.145.279l.212-.72c.503-1.226 1.48-1.838 2.933-1.838 1.307 0 2.282.516 2.926 1.547.26.417.415.78.464 1.09zm-3.536-1.971c-.681 0-1.161.253-1.44.76l-.112.267c.677-.033 1.275-.05 1.793-.05.458 0 1.081.065 1.87.195a20.406 20.406 0 0 1-.2-.296c-.48-.584-1.117-.876-1.91-.876zm13.556 11.276v-5.423c0-.551-.168-.987-.503-1.307-.365-.346-.925-.52-1.681-.52-.637 0-1.153.177-1.547.531-.447.406-.67.957-.67 1.653 0 .365.039.719.117 1.061l.212.972c.164.726.246 1.318.246 1.776.272-.465.62-.998 1.044-1.597.13-.183.248-.344.352-.486-.309-.037-.607-.186-.894-.447-.197-.178-.296-.469-.296-.871 0-.194.032-.369.095-.525.239-.588.698-.883 1.38-.883.536 0 .921.183 1.156.548.19.309.285.633.285.972 0 .234-.16.607-.48 1.117-.265.383-.658.957-1.179 1.72-.201.294-.488.737-.86 1.33-.093.156-.17.282-.23.379h-1.596c0-.034.001-.087.005-.16.004-.072.006-.127.006-.164 0-.488-.047-1.035-.14-1.642-.123-.51-.294-1.28-.514-2.312a4.09 4.09 0 0 1-.078-.844c0-.953.352-1.701 1.056-2.245.666-.51 1.515-.765 2.546-.765 1.185 0 2.067.244 2.648.732.562.473.843 1.156.843 2.05v5.35h-1.323zm-2.793-4.63c0 .164.064.306.193.427a.616.616 0 0 0 .868.003.578.578 0 0 0 .184-.43.604.604 0 0 0-.62-.614.61.61 0 0 0-.438.181.582.582 0 0 0-.187.433zM127.476 40.037c.18.192.326.435.44.729.166.415.25.842.25 1.28v6.463h-1.564v-.86c0-.815-.263-1.756-.788-2.825-.67-1.353-1.399-2.03-2.187-2.03-.517 0-.869.288-1.057.861-.083.267-.125.604-.125 1.012 0 .236.017.494.053.775.205-.075.402-.112.59-.112.46 0 .848.159 1.163.476.315.318.473.706.473 1.166 0 .35-.116.685-.348 1.005-.245.346-.534.54-.867.584-.263.03-.442.046-.539.046-.569 0-1.055-.206-1.458-.617-.429-.43-.643-1.259-.643-2.49 0-1.34.214-2.285.643-2.836.469-.618 1.088-.926 1.859-.926.438 0 .9.116 1.386.348.565.267 1.099.842 1.602 1.727.057.1.138.254.243.46v-1.97c0-.684-.118-1.198-.354-1.544-.36-.517-1.04-.775-2.043-.775-.902 0-1.609.159-2.121.476-.513.318-.84.675-.985 1.074l-.86-.67.564-.703c.307-.293.613-.519.92-.676a5.12 5.12 0 0 1 1.155-.4 6.217 6.217 0 0 1 1.366-.139c.898 0 1.627.12 2.187.362.197-.136.349-.283.454-.44.153-.198.23-.46.23-.789l1.668.427c0 .504-.283.935-.848 1.294-.157.1-.31.18-.46.237zm-3.678 6.935a.712.712 0 0 0-.204-.51.67.67 0 0 0-.505-.213.64.64 0 0 0-.486.22.719.719 0 0 0 0 1.005.649.649 0 0 0 .486.214c.197 0 .364-.07.502-.21a.695.695 0 0 0 .207-.506zm.21 2.876c-.394 0-.62.184-.676.552 0 .49.225.736.676.736.43 0 .644-.215.644-.644 0-.04-.003-.07-.007-.092 0-.368-.212-.552-.637-.552zm.17 3.035v-1.215a.978.978 0 0 1-.282.039c-.354 0-.696-.147-1.024-.44-.193-.17-.29-.431-.29-.782 0-.332.123-.628.369-.886.271-.276.63-.414 1.077-.414.744 0 1.215.27 1.412.808.079.219.118.514.118.886v1.097h1.13v-2.62h1.366v3.527h-3.875zm10.246-10.68c-.267.027-.42.04-.46.04-.455 0-.844-.152-1.165-.456a1.503 1.503 0 0 1-.483-1.14c0-.354.118-.694.355-1.018.245-.346.538-.54.88-.584.271-.03.46-.046.564-.046.587 0 1.049.193 1.386.578.32.368.48.82.48 1.36v7.572h-2.003a13.646 13.646 0 0 0-.283-.52c-.044-.078-.217-.339-.519-.78a32.01 32.01 0 0 0-.545-.828 13.876 13.876 0 0 0-1.235-1.478c-.135-.14-.332-.335-.59-.584l-.027-.027c-.38-.368-.637-.589-.768-.663l-.342-.197.44-.696c.22 0 .847.457 1.885 1.372.377.333.76.697 1.15 1.09.223.241.516.603.88 1.084l.4.545v-4.623zm-1.195-1.556c0 .202.072.37.217.506a.731.731 0 0 0 .518.204.668.668 0 0 0 .49-.217.684.684 0 0 0 .213-.493.719.719 0 0 0-.21-.505.656.656 0 0 0-.493-.224c-.205 0-.38.07-.522.21a.7.7 0 0 0-.213.52z" fill="#2A3052"/></g></svg>