<?xml version="1.0" encoding="UTF-8"?>
<svg width="299px" height="197px" viewBox="0 0 299 197" version="1.1" xmlns="http://www.w3.org/2000/svg" xmlns:xlink="http://www.w3.org/1999/xlink">
    <!-- Generator: Sketch 52.6 (67491) - http://www.bohemiancoding.com/sketch -->
    <title>high-tick</title>
    <desc>Created with Sketch.</desc>
    <g id="Page-1" stroke="none" stroke-width="1" fill="none" fill-rule="evenodd">
        <g id="high-tick">
            <polygon id="Path" fill="#F1F2F2" points="299 0 299 197 0 197 0 0"></polygon>
            <path d="M297.019868,1.960199 L1.98013245,1.960199 L1.98013245,195.039801 L297.019868,195.039801 L297.019868,1.960199 Z M299,197 L0,197 L0,0 L299,0 L299,197 Z" id="Path" fill="#C2C2C2" fill-rule="nonzero"></path>
            <path d="M4,54.021288 L4,52.8112807 L294,52.8112807 L294,54.021288 L4,54.021288 Z M4,94.8952751 L4,93.6852678 L294,93.6852678 L294,94.8952751 L4,94.8952751 Z M4,135.765317 L4,134.55531 L294,134.55531 L294,135.765317 L4,135.765317 Z M4,175.597886 L4,174.387879 L294,174.387879 L294,175.597886 L4,175.597886 Z M38.4210889,33 L39.6291228,33 L39.6291228,194 L38.4210889,194 L38.4210889,33 Z M75.1307473,33 L76.3387811,33 L76.3387811,194 L75.1307473,194 L75.1307473,33 Z M111.800039,33 L113.008073,33 L113.008073,194 L111.800039,194 L111.800039,33 Z M148.507729,33 L149.715763,33 L149.715763,194 L148.507729,194 L148.507729,33 Z M185.17899,33 L186.387024,33 L186.387024,194 L185.17899,194 L185.17899,33 Z M221.85222,33 L223.060254,33 L223.060254,194 L221.85222,194 L221.85222,33 Z M4,115.310573 L4,114.100566 L294,114.100566 L294,115.310573 L4,115.310573 Z" id="Shape" fill="#DFDEDE" fill-rule="nonzero"></path>
            <polygon id="Path" fill="#C2C2C2" fill-rule="nonzero" points="1.826 31.1415 1.826 28.6865 296.826 28.6865 296.826 31.1415"></polygon>
            <polygon id="Path" fill="#15212D" fill-rule="nonzero" points="4.724 72.034 4.724 70.886 294.724 70.886 294.724 72.034"></polygon>
            <path d="M88.833283,85.662609 L39.2584305,115.890843 C38.3903254,116.42017 37.2574831,116.145536 36.7281565,115.277431 C36.19883,114.409325 36.4734643,113.276483 37.3415695,112.747157 L88.0115695,81.8511565 C88.6696768,81.449876 89.5080978,81.5010575 90.1125079,81.9794084 L135.435954,117.849939 L183.893091,67.9366272 C184.67355,67.1327145 185.985111,67.2065235 186.670446,68.0929249 L261.930446,165.432925 C262.55236,166.237298 262.404448,167.393532 261.600075,168.015446 C260.795702,168.63736 259.639468,168.489448 259.017554,167.685075 L185.056112,72.0246087 L136.918909,121.608373 C136.260791,122.286268 135.196348,122.355931 134.455492,121.769592 L88.833283,85.662609 Z" id="Path" fill="#2A3052" fill-rule="nonzero"></path>
            <ellipse id="Oval" fill="#FFFFFF" opacity="0.6" cx="185.652" cy="69.653" rx="8.247" ry="8.633"></ellipse>
            <path d="M185.652,79.5135 C180.4065,79.5135 176.1775,75.0865617 176.1775,69.653 C176.1775,64.2194383 180.4065,59.7925 185.652,59.7925 C190.8975,59.7925 195.1265,64.2194383 195.1265,69.653 C195.1265,75.0865617 190.8975,79.5135 185.652,79.5135 Z M185.652,77.0585 C189.515885,77.0585 192.6715,73.7551868 192.6715,69.653 C192.6715,65.5508132 189.515885,62.2475 185.652,62.2475 C181.788115,62.2475 178.6325,65.5508132 178.6325,69.653 C178.6325,73.7551868 181.788115,77.0585 185.652,77.0585 Z" id="Oval" fill="#E88024" fill-rule="nonzero"></path>
            <path d="M25.878,19.127 C25.9596952,19.127758 26.0405734,19.1106951 26.115,19.077 C26.3004056,18.9929544 26.4332639,18.8238805 26.4710791,18.6238582 C26.5088942,18.4238359 26.4469277,18.2179295 26.305,18.072 C26.1964014,17.9501566 26.0401976,17.8815437 25.877,17.884 C25.7927935,17.8839379 25.7094484,17.9009471 25.632,17.934 C25.5560875,17.9655098 25.4863466,18.0101981 25.426,18.066 C25.3052347,18.1803937 25.2371853,18.3396584 25.238,18.506 C25.236665,18.6720419 25.3039716,18.8312618 25.424,18.946 C25.5464824,19.062384 25.709041,19.1271926 25.878,19.127 Z M24.653,14.738 C24.3404004,14.6775463 24.024525,14.6354741 23.707,14.612 C23.4054733,14.5906253 23.1032833,14.5799519 22.801,14.58 C22.606,14.58 22.445,14.597 22.318,14.63 C22.1873762,14.6644113 22.0606925,14.7123366 21.94,14.773 C21.89143,14.6720552 21.8625802,14.5627651 21.855,14.451 C21.8503279,14.3787457 21.847327,14.306393 21.846,14.234 C21.846,13.699 22.018,13.164 22.362,12.629 C22.815,11.918 23.548,11.563 24.559,11.563 C24.696,11.563 24.862,11.582 25.057,11.621 C25.253,11.661 25.469,11.713 25.707,11.779 C25.927,11.842 26.117,11.889 26.282,11.923 C26.446,11.956 26.579,11.973 26.68,11.973 C27.028,11.973 27.296,11.813 27.483,11.493 L28.813,12.183 C28.7651881,12.3219011 28.7014289,12.4547888 28.623,12.579 C28.547,12.699 28.46,12.803 28.362,12.893 C28.2337208,13.0111118 28.0888538,13.1098235 27.932,13.186 C27.7819213,13.2587847 27.6200436,13.3041646 27.454,13.32 L27.246,13.34 C27.196183,13.3456672 27.1461284,13.3490041 27.096,13.35 C26.788,13.35 26.358,13.264 25.807,13.092 C25.6155553,13.0300229 25.4209465,12.978283 25.224,12.937 C25.0846012,12.9067503 24.9426115,12.8900062 24.8,12.887 C24.413,12.887 24.114,12.98 23.903,13.168 L23.897,13.168 C23.8645269,13.2008759 23.8325237,13.2342126 23.801,13.268 C23.7670215,13.3040229 23.7365506,13.3431998 23.71,13.385 C23.885,13.393 24.077,13.407 24.284,13.429 C24.491,13.45 24.702,13.477 24.917,13.508 C26.354,13.738 27.245,14.162 27.589,14.779 L27.589,14.773 C27.733,15.039 27.805,15.305 27.805,15.57 L27.805,18.254 C27.805,18.766 27.635,19.209 27.295,19.584 C26.967,19.939 26.548,20.117 26.035,20.117 C25.462,20.117 25.012,19.936 24.688,19.572 L24.694,19.572 C24.4214502,19.2850511 24.2739803,18.9016295 24.284,18.506 C24.284,18.053 24.436,17.676 24.741,17.375 L24.741,17.381 C25.0385152,17.0793355 25.4474247,16.9139624 25.871,16.924 L25.951,16.924 C25.977442,16.9241324 26.0038413,16.9261374 26.03,16.93 L26.03,15.682 C26.0307017,15.5967416 26.0189098,15.5118402 25.995,15.43 C25.9736657,15.356439 25.9398394,15.2870951 25.895,15.225 C25.817,15.127 25.675,15.037 25.47,14.955 C25.2052305,14.8567135 24.9316446,14.7840474 24.653,14.738 Z M35.382,20 L33.612,20 L33.612,14.54 C33.612,13.957 33.54,13.563 33.395,13.355 C33.145,12.988 32.71,12.805 32.089,12.805 C31.436,12.805 30.926,12.982 30.559,13.338 C30.325,13.561 30.143,13.924 30.014,14.428 L28.842,13.713 C28.952,13.385 29.092,13.093 29.264,12.84 C29.436,12.586 29.639,12.361 29.874,12.166 C30.417,11.713 31.174,11.486 32.147,11.486 C33.104,11.486 33.882,11.726 34.479,12.207 C35.081,12.687 35.382,13.395 35.382,14.328 L35.382,20 Z M41.112,14.598 C40.702,14.598 40.497,14.803 40.497,15.213 C40.4920888,15.3733355 40.5561709,15.5280793 40.673,15.638 C40.7913573,15.7497439 40.9492982,15.8098262 41.112,15.805 C41.194,15.805 41.272,15.788 41.343,15.755 C41.4869945,15.6890784 41.6026363,15.5737913 41.669,15.43 C41.699841,15.3618059 41.7158605,15.2878437 41.716,15.213 C41.7164138,15.0490971 41.6533361,14.8914029 41.54,14.773 C41.4259484,14.6605757 41.2721464,14.5976894 41.112,14.598 Z M39.982,20 L37.983,20 C37.983,19.863 37.986,19.755 37.992,19.675 C37.9976644,19.6017999 38.0006664,19.5284182 38.001,19.455 C38.001,19.229 37.987,18.982 37.96,18.717 C37.932,18.451 37.893,18.166 37.842,17.861 C37.823,17.768 37.796,17.648 37.76,17.504 C37.721132,17.3443846 37.681131,17.1850473 37.64,17.026 C37.595,16.853 37.55,16.667 37.503,16.47 C37.411376,16.08198 37.3379624,15.6898843 37.283,15.295 C37.2586772,15.118357 37.2459832,14.940307 37.245,14.762 C37.245,13.738 37.618,12.918 38.364,12.301 C39.032,11.758 39.93,11.486 41.059,11.486 C42.266,11.486 43.186,11.746 43.819,12.266 C44.444,12.781 44.757,13.516 44.757,14.469 L44.757,20 L42.98,20 L42.98,14.398 C42.98,13.914 42.836,13.535 42.547,13.262 C42.23,12.957 41.727,12.805 41.035,12.805 C40.472,12.805 40.002,12.971 39.623,13.303 C39.259,13.615 39.078,14.098 39.078,14.75 C39.078,15.074 39.099,15.334 39.142,15.53 L39.183,15.746 C39.234,15.57 39.286,15.395 39.339,15.219 C39.391,15.043 39.449,14.875 39.514,14.715 C39.579,14.555 39.652,14.406 39.734,14.27 C39.816,14.133 39.914,14.014 40.027,13.912 C40.14,13.811 40.273,13.732 40.425,13.675 C40.578,13.618 40.755,13.59 40.959,13.59 C41.213,13.59 41.449,13.625 41.668,13.695 C41.886,13.765 42.076,13.868 42.236,14.003 C42.396,14.138 42.522,14.303 42.614,14.498 C42.706,14.693 42.752,14.916 42.752,15.166 C42.752,15.619 42.622,15.986 42.365,16.268 C42.029,16.631 41.603,16.812 41.088,16.812 C40.8808815,16.8141073 40.6761256,16.7678831 40.49,16.677 C40.38,16.987 40.29,17.33 40.22,17.709 C40.15,18.088 40.1,18.506 40.068,18.963 L39.981,20 L39.982,20 Z M52.567,20 L50.797,20 L50.797,14.54 C50.797,13.957 50.725,13.563 50.581,13.355 C50.331,12.988 49.895,12.805 49.274,12.805 C48.622,12.805 48.112,12.982 47.744,13.338 C47.51,13.561 47.329,13.924 47.2,14.428 L46.028,13.713 C46.138,13.385 46.278,13.093 46.45,12.84 C46.622,12.586 46.825,12.361 47.06,12.166 C47.602,11.713 48.36,11.486 49.333,11.486 C50.29,11.486 51.067,11.726 51.665,12.207 C52.266,12.687 52.567,13.395 52.567,14.328 L52.567,20 Z M57.512,18.482 C57.513884,18.3191932 57.450921,18.1623254 57.337,18.046 C57.2816698,17.9888804 57.2157867,17.9430339 57.143,17.911 C57.0674669,17.8774529 56.9856457,17.8604068 56.903,17.861 C56.8264632,17.8606457 56.7509788,17.8788305 56.683,17.914 C56.6146386,17.9492456 56.5532968,17.9966923 56.502,18.054 C56.4490279,18.1130886 56.4064275,18.1807083 56.376,18.254 C56.3122086,18.4017415 56.3122086,18.5692585 56.376,18.717 C56.4347614,18.8594801 56.5440954,18.9752245 56.683,19.042 C56.9058576,19.1383636 57.1649944,19.0883617 57.336,18.916 C57.4520297,18.80181 57.5157212,18.6447526 57.512,18.482 Z M60.958,12.711 C61.001,12.777 61.042,12.849 61.081,12.925 C61.12,13.001 61.157,13.082 61.192,13.168 L61.192,13.162 C61.341,13.541 61.415,13.93 61.415,14.328 L61.415,20 L59.657,20 L59.657,19.05 C59.657,18.402 59.442,17.643 59.012,16.771 C58.485,15.709 57.936,15.178 57.366,15.178 C57.034,15.178 56.807,15.371 56.686,15.758 L56.686,15.752 C56.651,15.854 56.626,15.969 56.613,16.098 C56.599,16.227 56.593,16.373 56.593,16.538 L56.593,16.71 C56.593,16.774 56.596,16.838 56.604,16.9 C56.7048527,16.8838865 56.8068714,16.8761933 56.909,16.877 C57.362,16.877 57.743,17.033 58.051,17.346 L58.046,17.346 C58.358,17.658 58.514,18.037 58.514,18.482 C58.514,18.65 58.485,18.816 58.426,18.98 C58.368,19.145 58.286,19.303 58.18,19.455 C57.934,19.795 57.64,19.992 57.296,20.047 C57.1343012,20.0662535 56.9717903,20.0779329 56.809,20.082 C56.2843901,20.0911816 55.7803043,19.8783615 55.421,19.496 L55.426,19.496 C55.02,19.09 54.817,18.338 54.817,17.24 C54.817,16.658 54.867,16.156 54.969,15.734 C55.071,15.312 55.216,14.973 55.403,14.714 C55.626,14.43 55.883,14.213 56.176,14.064 C56.478046,13.9136256 56.8116217,13.8375168 57.149,13.842 C57.548,13.842 57.969,13.947 58.415,14.158 C58.856,14.373 59.27,14.775 59.657,15.365 L59.657,14.539 C59.657,14.269 59.634,14.037 59.59,13.842 C59.5549053,13.6710953 59.4880847,13.5082838 59.393,13.362 L59.393,13.367 C59.135,12.992 58.622,12.805 57.853,12.805 C57.133,12.805 56.577,12.93 56.183,13.18 C55.792,13.414 55.51,13.773 55.339,14.258 L54.196,13.361 L54.835,12.571 C55.1942072,12.2073292 55.6351178,11.93476 56.121,11.776 C56.295,11.716 56.483,11.66 56.686,11.609 C57.080421,11.5228847 57.4833112,11.4816228 57.887,11.486 C58.255,11.486 58.587,11.509 58.887,11.554 C59.185,11.599 59.456,11.668 59.698,11.762 C59.784,11.684 59.862,11.602 59.932,11.516 C60.034,11.379 60.085,11.106 60.085,10.696 L61.936,11.164 C61.936,11.789 61.663,12.274 61.116,12.617 L60.958,12.711 Z M57.958,21.441 C57.641,21.441 57.448,21.581 57.378,21.857 C57.389,22.291 57.583,22.507 57.958,22.507 C58.313,22.507 58.491,22.33 58.491,21.975 C58.491,21.799 58.45,21.666 58.368,21.576 C58.286,21.486 58.149,21.441 57.958,21.441 Z M57.87,24.213 L57.87,23.223 L57.858,23.223 C57.498,23.223 57.161,23.08 56.844,22.795 C56.7399337,22.6972523 56.6598522,22.5767877 56.61,22.443 C56.5534177,22.2914769 56.5256083,22.1307254 56.528,21.969 C56.528,21.625 56.651,21.324 56.898,21.066 C57.163,20.789 57.52,20.65 57.969,20.65 C58.696,20.65 59.163,20.926 59.369,21.477 C59.405,21.578 59.432,21.697 59.452,21.834 C59.472,21.971 59.482,22.127 59.482,22.303 L59.482,23.006 L59.991,23.006 L59.991,20.79 L61.585,20.79 L61.585,24.212 L57.87,24.212 L57.87,24.213 Z M66.003,16.836 C66.093,16.941 66.196,17.064 66.313,17.206 C66.43,17.346 66.559,17.508 66.7,17.691 L66.7,14.703 C66.6433522,14.7072635 66.586685,14.7112636 66.53,14.715 C66.08,14.715 65.702,14.566 65.393,14.27 C65.082647,13.9791621 64.9103554,13.5702422 64.919,13.145 C64.919,12.789 65.034,12.459 65.264,12.155 L65.259,12.16 C65.379,11.984 65.514,11.849 65.663,11.753 C65.811,11.657 65.975,11.596 66.155,11.568 C66.382,11.545 66.55,11.533 66.659,11.533 C67.221,11.533 67.667,11.721 67.995,12.096 C68.303,12.451 68.458,12.883 68.458,13.391 L68.458,20 L66.407,20 C66.3676501,19.9221326 66.3266408,19.8451151 66.284,19.769 C66.2246561,19.6627072 66.1659882,19.5560384 66.108,19.449 C66.065027,19.3764079 66.020009,19.3050461 65.973,19.235 C65.903,19.128 65.805,18.985 65.68,18.805 C65.6215086,18.708184 65.5611642,18.6124997 65.499,18.518 C65.425,18.404 65.333,18.268 65.223,18.108 C65.0728986,17.9060744 64.9168297,17.7086539 64.755,17.516 C64.575,17.301 64.393,17.094 64.21,16.895 L63.712,16.402 L63.688,16.373 L63.688,16.379 C63.384,16.086 63.182,15.912 63.085,15.857 L62.605,15.564 L63.155,14.686 C63.479,14.686 64.098,15.09 65.012,15.898 C65.3530668,16.1987754 65.6832774,16.5116417 66.002,16.836 L66.003,16.836 Z M65.921,13.15 C65.9201253,13.2281698 65.9372326,13.3054944 65.971,13.376 C66.0035609,13.4439358 66.0479146,13.5055571 66.102,13.558 C66.157,13.61 66.222,13.651 66.299,13.681 C66.375,13.71 66.454,13.725 66.536,13.725 C66.6114948,13.7246443 66.6858412,13.706486 66.753,13.672 C66.8222191,13.6374011 66.8853716,13.5918097 66.94,13.537 C66.994037,13.4839759 67.0380743,13.4216462 67.07,13.353 C67.0998743,13.2894702 67.1155705,13.220202 67.116,13.15 C67.115911,13.0722545 67.0988469,12.995466 67.066,12.925 C67.0001709,12.7814235 66.8872705,12.6646422 66.746,12.594 C66.6811072,12.560156 66.6091812,12.5420032 66.536,12.541 C66.372866,12.5380202 66.2154658,12.6011666 66.0996235,12.7160671 C65.9837811,12.8309676 65.919352,12.9878471 65.921,13.151 L65.921,13.15 Z" id="Shape" fill="#000000" fill-rule="nonzero"></path>
            <path d="M125.305,49.084 C125.304728,49.220326 125.354551,49.3520008 125.445,49.454 C125.537981,49.5520497 125.666877,49.608013 125.802,49.609 C125.935667,49.6091525 126.064114,49.5571276 126.16,49.464 C126.209499,49.4158145 126.25012,49.3592834 126.28,49.297 C126.341946,49.1683633 126.343413,49.0188265 126.284,48.889 C126.228149,48.7606014 126.127588,48.6568422 126.001,48.597 C125.811746,48.5062124 125.585234,48.5519228 125.446,48.709 C125.355565,48.813055 125.305525,48.9461388 125.305,49.084 Z M128.915,48.897 C128.861559,48.8172374 128.77899,48.7615927 128.685,48.742 L128.685,48.775 C128.685,49.422 128.435,50.062 127.935,50.697 C127.841,50.815 127.766,50.912 127.712,50.987 C127.671102,51.041545 127.632729,51.0979377 127.597,51.156 C127.513956,51.3032267 127.471832,51.4699972 127.475,51.639 L127.475,52.595 L128.792,52.595 C128.83,52.595 128.866,52.585 128.9,52.565 C128.934,52.545 128.97,52.515 129.008,52.478 C129.048,52.418 129.068,52.323 129.068,52.192 L129.068,49.6 C129.068,49.478 129.056,49.372 129.031,49.28 C129.032741,49.1432779 128.991847,49.0094093 128.914,48.897 L128.915,48.897 Z M130.47,49.59 L130.47,52.342 C130.47,52.72 130.381,53.028 130.203,53.265 C129.916,53.581 129.528,53.739 129.041,53.739 L125.412,53.739 L125.412,52.595 L126.055,52.595 L126.055,51.531 C126.055,51.178 126.259,50.754 126.669,50.261 C126.988,49.886 127.194,49.573 127.287,49.323 C127.353,49.161 127.386,48.97 127.386,48.751 C127.392354,48.5432008 127.316541,48.3412724 127.175,48.189 C127.040715,48.0416879 126.849285,47.9596463 126.65,47.964 L126.58,47.964 C126.538106,47.9647925 126.496236,47.9614429 126.455,47.954 C126.432223,47.9497933 126.409818,47.9437742 126.388,47.936 L126.378,47.973 C126.467792,48.0132701 126.550782,48.0672472 126.624,48.133 C126.890814,48.3744787 127.046353,48.7152175 127.054,49.075 C127.054,49.312 126.984,49.532 126.847,49.735 L126.852,49.731 C126.730703,49.9415565 126.537562,50.1013243 126.308,50.181 L126.312,50.181 C126.128,50.25 125.952,50.284 125.782,50.284 C125.491441,50.2804878 125.210724,50.1782166 124.986,49.994 C124.73,49.79 124.581,49.554 124.541,49.286 L124.541,49.29 C124.524394,49.2072233 124.511051,49.1238255 124.501,49.04 C124.493946,48.9829207 124.48994,48.9255059 124.489,48.868 C124.489,48.318 124.702,47.85 125.127,47.462 L125.127,47.467 C125.495,47.132 126.019,46.965 126.697,46.965 C127.525,46.965 128.112,47.278 128.459,47.903 C128.629752,47.8767577 128.796656,47.8297424 128.956,47.763 L128.952,47.763 L129.153,47.659 C129.177603,47.6408909 129.200987,47.6211816 129.223,47.6 C129.248,47.577 129.277,47.548 129.308,47.514 C129.473,47.345 129.556,47.072 129.556,46.694 L131.141,46.694 C131.131,46.924 131.098,47.172 131.042,47.434 C130.968596,47.6669765 130.836335,47.8770787 130.658,48.044 C130.491702,48.1912047 130.297043,48.3028271 130.086,48.372 L130.002,48.4 C130.092,48.468 130.167,48.543 130.227,48.625 L130.213,48.615 C130.274201,48.6883295 130.323778,48.7706218 130.36,48.859 C130.396,48.947 130.422,49.036 130.437,49.126 C130.447,49.164 130.453,49.204 130.457,49.248 L130.466,49.408 L130.47,49.59 Z M129.313,43.15 L130.555,43.15 L130.555,45.404 L129.312,45.404 L129.312,43.15 L129.313,43.15 Z M135.111,53.054 C135.445,53.054 135.613,52.884 135.613,52.544 C135.614488,52.3390752 135.493173,52.153163 135.305,52.072 C135.180383,52.0180117 135.038772,52.019101 134.915,52.075 C134.791917,52.130643 134.692161,52.2275685 134.633,52.349 C134.576657,52.4749876 134.576657,52.6190124 134.633,52.745 C134.716099,52.934544 134.904045,53.0564342 135.111,53.055 L135.111,53.054 Z M136.663,52.342 C136.663,52.542 136.626,52.732 136.553,52.912 C136.479,53.092 136.373,53.256 136.236,53.406 C135.917752,53.7523507 135.439641,53.903854 134.98,53.804 C134.82,53.789 134.67,53.745 134.53,53.674 C134.391402,53.6033184 134.264842,53.5111825 134.155,53.401 C133.935056,53.1698286 133.813818,52.8620694 133.817,52.543 C133.81029,52.2026835 133.948423,51.8755287 134.197,51.643 C134.45,51.4 134.753,51.278 135.107,51.278 L135.181,51.278 C135.209,51.278 135.234,51.279 135.256,51.282 L135.256,49.37 C135.256,48.914 135.198,48.597 135.083,48.418 C134.886,48.128 134.538,47.982 134.037,47.982 C133.525,47.982 133.119,48.123 132.819,48.404 C132.634,48.579 132.477,48.874 132.345,49.286 L131.45,48.709 C131.64,48.181 131.925,47.756 132.303,47.434 C132.7,47.097 133.289,46.928 134.07,46.928 C134.848,46.928 135.477,47.12 135.955,47.504 C136.427,47.886 136.662,48.451 136.662,49.201 L136.662,52.341 L136.663,52.342 Z M140.267,51.207 L140.516,51.503 C140.609,51.615 140.712,51.745 140.825,51.892 L140.825,49.502 C140.779681,49.505211 140.734347,49.508211 140.689,49.511 C140.329,49.511 140.027,49.391 139.779,49.154 C139.530791,48.9212943 139.393033,48.5941631 139.4,48.254 C139.4,47.97 139.492,47.706 139.677,47.462 L139.672,47.467 C139.769,47.327 139.877,47.217 139.995,47.141 C140.114264,47.0641088 140.248608,47.0136444 140.389,46.993 C140.57,46.975 140.705,46.965 140.792,46.965 C141.242,46.965 141.598,47.115 141.861,47.415 C142.108,47.7 142.231,48.045 142.231,48.451 L142.231,53.739 L140.591,53.739 C140.538126,53.6329778 140.481422,53.5289093 140.421,53.427 C140.36658,53.3241654 140.307176,53.2240465 140.243,53.127 C140.188,53.041 140.109,52.927 140.009,52.782 C139.962145,52.704411 139.913803,52.6277301 139.864,52.552 C139.804,52.462 139.731,52.352 139.644,52.225 C139.523728,52.0633161 139.398673,51.9052462 139.269,51.751 C139.127671,51.5818628 138.982296,51.4161482 138.833,51.254 L138.434,50.861 L138.416,50.837 L138.416,50.842 C138.172,50.607 138.011,50.468 137.933,50.425 L137.548,50.19 L137.989,49.487 C138.249,49.487 138.744,49.811 139.475,50.457 C139.747846,50.6974895 140.012015,50.947649 140.267,51.207 Z M140.202,48.259 C140.202,48.325 140.215,48.385 140.242,48.439 C140.268076,48.493502 140.303628,48.5429371 140.347,48.585 C140.392188,48.6279219 140.445592,48.6612573 140.504,48.683 C140.564,48.707 140.628,48.718 140.694,48.718 C140.754,48.718 140.811,48.704 140.867,48.676 C140.922515,48.6483547 140.973174,48.6118803 141.017,48.568 C141.059852,48.5255577 141.094739,48.4757682 141.12,48.421 C141.144263,48.3703941 141.15723,48.3151165 141.158,48.259 C141.157903,48.1968064 141.144253,48.1353811 141.118,48.079 C141.065654,47.9642076 140.975695,47.8707205 140.863,47.814 C140.810455,47.7867443 140.752192,47.7723498 140.693,47.772 C140.562823,47.769839 140.437287,47.8203227 140.34485,47.9120069 C140.252413,48.0036911 140.200904,48.12881 140.202,48.259 Z M146.6,53.04 C146.66549,53.0406518 146.730332,53.0270007 146.79,53 C146.93795,52.9326689 147.043936,52.797619 147.074168,52.6379042 C147.104401,52.4781895 147.055106,52.3137465 146.942,52.197 C146.855108,52.0998238 146.730345,52.0451034 146.6,52.047 C146.532297,52.0468036 146.465265,52.0604142 146.403,52.087 C146.342601,52.1121168 146.28709,52.1476579 146.239,52.192 C146.14139,52.2823664 146.086846,52.4099997 146.089,52.543 C146.087771,52.6757046 146.141312,52.8030446 146.237,52.895 C146.334938,52.9880798 146.464886,53.0399873 146.6,53.04 Z M145.62,49.53 C145.369858,49.4815622 145.117091,49.4478376 144.863,49.429 C144.622049,49.4117855 144.380565,49.4031134 144.139,49.403 C143.983,49.403 143.854,49.416 143.752,49.443 C143.647653,49.4704271 143.546442,49.5086326 143.45,49.557 C143.411195,49.4764378 143.388115,49.3892118 143.382,49.3 C143.378323,49.2420619 143.375989,49.1840463 143.375,49.126 C143.375,48.698 143.512,48.27 143.787,47.842 C144.15,47.273 144.736,46.989 145.545,46.989 C145.655,46.989 145.787,47.004 145.944,47.036 C146.1,47.066 146.274,47.109 146.464,47.162 C146.639,47.212 146.792,47.25 146.924,47.277 C147.054,47.304 147.161,47.317 147.242,47.317 C147.52,47.317 147.734,47.189 147.884,46.932 L148.948,47.486 C148.909694,47.5968445 148.858688,47.7028832 148.796,47.802 C148.736,47.897 148.666,47.981 148.588,48.052 C148.485114,48.1467869 148.368876,48.2259636 148.243,48.287 C148.123113,48.3454589 147.993748,48.3820333 147.861,48.395 L147.695,48.411 C147.655131,48.4152011 147.615087,48.4175369 147.575,48.418 C147.328,48.418 146.985,48.35 146.544,48.212 C146.390647,48.1623974 146.23476,48.1210053 146.077,48.088 C145.965218,48.0637553 145.851357,48.0503598 145.737,48.048 C145.428,48.048 145.189,48.123 145.02,48.273 L145.016,48.273 L144.938,48.353 C144.911075,48.3819803 144.886966,48.4134553 144.866,48.447 C145.006,48.453 145.159,48.464 145.325,48.482 C145.491,48.499 145.659,48.52 145.831,48.545 C146.981,48.729 147.694,49.068 147.969,49.562 L147.969,49.557 C148.084,49.77 148.142,49.982 148.142,50.195 L148.142,52.342 C148.142,52.752 148.006,53.106 147.734,53.406 C147.476473,53.6879916 147.108714,53.8435677 146.727,53.832 C146.267,53.832 145.907,53.687 145.648,53.397 L145.653,53.397 C145.434624,53.1671682 145.316619,52.8599232 145.325,52.543 C145.325,52.181 145.447,51.879 145.691,51.639 L145.691,51.643 C145.934,51.4 146.236,51.278 146.595,51.278 L146.659,51.278 C146.679,51.278 146.7,51.279 146.722,51.282 L146.722,50.284 C146.722,50.212 146.712,50.145 146.694,50.082 C146.67694,50.0231484 146.649878,49.9676719 146.614,49.918 C146.552,49.84 146.438,49.768 146.274,49.703 C146.06207,49.6242064 145.843066,49.5659392 145.62,49.529 L145.62,49.53 Z M154.203,53.739 L152.787,53.739 L152.787,49.37 C152.787,48.904 152.73,48.589 152.614,48.423 C152.414,48.129 152.066,47.983 151.569,47.983 C151.047,47.983 150.639,48.125 150.345,48.409 C150.158,48.587 150.013,48.878 149.909,49.281 L148.972,48.709 C149.059,48.447 149.172,48.214 149.309,48.011 C149.447,47.807 149.609,47.628 149.797,47.471 C150.231,47.109 150.837,46.928 151.616,46.928 C152.381,46.928 153.003,47.12 153.481,47.504 C153.963,47.889 154.203,48.454 154.203,49.201 L154.203,53.739 Z M158.787,49.417 C158.459,49.417 158.295,49.581 158.295,49.909 C158.295,50.047 158.342,50.159 158.435,50.249 C158.529956,50.3384142 158.656642,50.3862813 158.787,50.382 C158.851182,50.3824557 158.91468,50.3688003 158.973,50.342 C159.087916,50.2891366 159.180137,50.1969162 159.233,50.082 C159.257389,50.0275859 159.269998,49.96863 159.27,49.909 C159.270567,49.777985 159.220395,49.651837 159.13,49.557 C159.038635,49.4668771 158.915333,49.4165497 158.787,49.417 Z M157.883,53.739 L156.284,53.739 C156.284,53.629 156.287,53.543 156.291,53.479 C156.296,53.414 156.298,53.356 156.298,53.303 C156.298,53.122 156.288,52.925 156.266,52.713 C156.244,52.5 156.213,52.272 156.172,52.028 C156.120759,51.8046732 156.066755,51.5819894 156.01,51.36 C155.974,51.22 155.938,51.072 155.9,50.914 C155.826699,50.6035844 155.767968,50.2899078 155.724,49.974 C155.704694,49.8328089 155.694673,49.6905033 155.694,49.548 C155.694,48.729 155.992,48.073 156.589,47.579 C157.123,47.145 157.842,46.928 158.745,46.928 C159.711,46.928 160.447,47.136 160.953,47.551 C161.453,47.964 161.703,48.551 161.703,49.314 L161.703,53.739 L160.283,53.739 L160.283,49.257 C160.283,48.87 160.167,48.567 159.936,48.348 C159.683,48.104 159.28,47.982 158.726,47.982 C158.276,47.982 157.9,48.115 157.596,48.381 C157.306,48.631 157.161,49.017 157.161,49.539 C157.161,49.799 157.178,50.006 157.213,50.162 L157.245,50.336 C157.285,50.195 157.327,50.054 157.37,49.914 C157.412,49.774 157.459,49.639 157.51,49.511 C157.562,49.382 157.62,49.264 157.686,49.154 C157.752,49.045 157.83,48.95 157.92,48.868 C158.013653,48.784948 158.12225,48.7204687 158.24,48.678 C158.36,48.633 158.503,48.611 158.666,48.611 C158.869,48.611 159.058,48.639 159.233,48.695 C159.408,48.751 159.559,48.833 159.687,48.941 C159.816,49.049 159.917,49.181 159.99,49.337 C160.063,49.493 160.1,49.672 160.1,49.872 C160.1,50.234 159.997,50.528 159.79,50.752 C159.522,51.043 159.181,51.189 158.769,51.189 C158.603438,51.1906456 158.439772,51.1536668 158.291,51.081 C158.197562,51.349936 158.125341,51.6257803 158.075,51.906 C158.015197,52.2377268 157.974463,52.5726097 157.953,52.909 L157.883,53.739 Z M167.952,53.739 L166.536,53.739 L166.536,49.37 C166.536,48.904 166.478,48.589 166.363,48.423 C166.163,48.129 165.814,47.983 165.317,47.983 C164.795,47.983 164.387,48.125 164.094,48.409 C163.906,48.587 163.761,48.878 163.658,49.281 L162.72,48.709 C162.808,48.447 162.92,48.214 163.058,48.011 C163.195,47.807 163.358,47.628 163.545,47.471 C163.98,47.109 164.585,46.928 165.365,46.928 C166.13,46.928 166.752,47.12 167.23,47.504 C167.71,47.889 167.952,48.454 167.952,49.201 L167.952,53.739 Z M177.264,50.698 L178.343,50.698 L178.343,51.846 L177.264,51.846 L177.264,53.739 L175.846,53.739 L175.846,51.846 L172.184,51.846 L172.149,50.973 L175.799,45.207 L177.264,45.207 L177.264,50.697 L177.264,50.698 Z M173.555,50.698 L175.846,50.698 L175.846,47.235 L175.811,47.223 L175.694,47.475 L173.555,50.698 Z M180.955,53.738 L179.538,53.738 L179.538,52.373 L180.956,52.373 L180.956,53.739 L180.955,53.738 Z M180.955,48.606 L179.538,48.606 L179.538,47.24 L180.956,47.24 L180.956,48.605 L180.955,48.606 Z M188.17,53.04 C188.23549,53.0406518 188.300332,53.0270007 188.36,53 C188.50795,52.9326689 188.613936,52.797619 188.644168,52.6379042 C188.674401,52.4781895 188.625106,52.3137465 188.512,52.197 C188.425108,52.0998238 188.300345,52.0451034 188.17,52.047 C188.102297,52.0468036 188.035265,52.0604142 187.973,52.087 C187.912601,52.1121168 187.85709,52.1476579 187.809,52.192 C187.71139,52.2823664 187.656846,52.4099997 187.659,52.543 C187.657771,52.6757046 187.711312,52.8030446 187.807,52.895 C187.904938,52.9880798 188.034886,53.0399873 188.17,53.04 Z M187.19,49.53 C186.939858,49.4815622 186.687091,49.4478376 186.433,49.429 C186.192049,49.4117863 185.950565,49.4031142 185.709,49.403 C185.553,49.403 185.424,49.416 185.322,49.443 C185.217653,49.4704271 185.116442,49.5086326 185.02,49.557 C184.981195,49.4764378 184.958115,49.3892118 184.952,49.3 C184.948323,49.2420619 184.945989,49.1840463 184.945,49.126 C184.945,48.698 185.082,48.27 185.357,47.842 C185.72,47.273 186.306,46.989 187.115,46.989 C187.225,46.989 187.357,47.004 187.514,47.036 C187.67,47.066 187.844,47.109 188.034,47.162 C188.209,47.212 188.362,47.25 188.494,47.277 C188.624,47.304 188.731,47.317 188.812,47.317 C189.09,47.317 189.304,47.189 189.454,46.932 L190.518,47.486 C190.479694,47.5968445 190.428688,47.7028832 190.366,47.802 C190.306,47.897 190.236,47.981 190.157,48.052 C190.05442,48.146706 189.938524,48.2258793 189.813,48.287 C189.693113,48.3454589 189.563748,48.3820333 189.431,48.395 L189.264,48.411 C189.224131,48.4152011 189.184087,48.4175369 189.144,48.418 C188.898,48.418 188.554,48.35 188.114,48.212 C187.960647,48.1623974 187.80476,48.1210053 187.647,48.088 C187.535218,48.0637553 187.421357,48.0503598 187.307,48.048 C186.998,48.048 186.759,48.123 186.59,48.273 L186.586,48.273 L186.508,48.353 C186.481075,48.3819803 186.456966,48.4134553 186.436,48.447 C186.576,48.453 186.729,48.464 186.895,48.482 C187.061,48.499 187.229,48.52 187.401,48.545 C188.551,48.729 189.264,49.068 189.539,49.562 L189.539,49.557 C189.654,49.77 189.712,49.982 189.712,50.195 L189.712,52.342 C189.712,52.752 189.576,53.106 189.304,53.406 C189.046243,53.688261 188.678059,53.8438623 188.296,53.832 C187.837,53.832 187.478,53.687 187.218,53.397 L187.223,53.397 C187.004624,53.1671682 186.886619,52.8599232 186.895,52.543 C186.895,52.181 187.017,51.879 187.261,51.639 L187.261,51.643 C187.504,51.4 187.806,51.278 188.165,51.278 L188.229,51.278 C188.249,51.278 188.269,51.279 188.292,51.282 L188.292,50.284 C188.292,50.212 188.282,50.145 188.264,50.082 C188.24694,50.0231484 188.219878,49.9676719 188.184,49.918 C188.121,49.84 188.008,49.768 187.844,49.703 C187.63207,49.6242064 187.413066,49.5659392 187.19,49.529 L187.19,49.53 Z M195.773,53.739 L194.357,53.739 L194.357,49.37 C194.357,48.904 194.3,48.589 194.184,48.423 C193.984,48.129 193.636,47.983 193.139,47.983 C192.617,47.983 192.209,48.125 191.915,48.409 C191.728,48.587 191.582,48.878 191.479,49.281 L190.542,48.709 C190.629,48.447 190.742,48.214 190.879,48.011 C191.017,47.807 191.179,47.628 191.367,47.471 C191.801,47.109 192.407,46.928 193.186,46.928 C193.951,46.928 194.573,47.12 195.051,47.504 C195.532,47.889 195.773,48.454 195.773,49.201 L195.773,53.739 Z M200.357,49.417 C200.029,49.417 199.865,49.581 199.865,49.909 C199.865,50.047 199.912,50.159 200.005,50.249 C200.099956,50.3384142 200.226642,50.3862813 200.357,50.382 C200.421182,50.3824557 200.48468,50.3688003 200.543,50.342 C200.657916,50.2891366 200.750137,50.1969162 200.803,50.082 C200.827389,50.0275859 200.839998,49.96863 200.84,49.909 C200.840567,49.777985 200.790395,49.651837 200.7,49.557 C200.608635,49.4668771 200.485333,49.4165497 200.357,49.417 Z M199.453,53.739 L197.854,53.739 C197.854,53.629 197.857,53.543 197.861,53.479 C197.866,53.414 197.868,53.356 197.868,53.303 C197.868,53.122 197.858,52.925 197.836,52.713 C197.814,52.5 197.782,52.272 197.742,52.028 C197.690759,51.8046732 197.636755,51.5819894 197.58,51.36 C197.541879,51.2116957 197.505211,51.0630219 197.47,50.914 C197.396699,50.6035844 197.337968,50.2899078 197.294,49.974 C197.274694,49.8328089 197.264673,49.6905033 197.264,49.548 C197.264,48.729 197.562,48.073 198.159,47.579 C198.693,47.145 199.412,46.928 200.315,46.928 C201.281,46.928 202.017,47.136 202.523,47.551 C203.023,47.964 203.273,48.551 203.273,49.314 L203.273,53.739 L201.853,53.739 L201.853,49.257 C201.853,48.87 201.737,48.567 201.506,48.348 C201.253,48.104 200.85,47.982 200.296,47.982 C199.846,47.982 199.47,48.115 199.166,48.381 C198.876,48.631 198.731,49.017 198.731,49.539 C198.731,49.799 198.748,50.006 198.782,50.162 L198.815,50.336 C198.855,50.195 198.897,50.054 198.939,49.914 C198.982,49.774 199.029,49.639 199.08,49.511 C199.132,49.382 199.19,49.264 199.256,49.154 C199.321,49.045 199.4,48.95 199.49,48.868 C199.583356,48.7850563 199.691604,48.7205823 199.809,48.678 C199.931,48.633 200.073,48.611 200.236,48.611 C200.439,48.611 200.628,48.639 200.803,48.695 C200.978,48.751 201.129,48.833 201.257,48.941 C201.386,49.049 201.487,49.181 201.56,49.337 C201.633,49.493 201.67,49.672 201.67,49.872 C201.67,50.234 201.567,50.528 201.36,50.752 C201.092,51.043 200.751,51.189 200.339,51.189 C200.173438,51.1906456 200.009772,51.1536668 199.861,51.081 C199.767562,51.349936 199.695341,51.6257803 199.645,51.906 C199.585197,52.2377268 199.544463,52.5726097 199.523,52.909 L199.453,53.739 Z M209.521,53.739 L208.106,53.739 L208.106,49.37 C208.106,48.904 208.048,48.589 207.932,48.423 C207.732,48.129 207.384,47.983 206.887,47.983 C206.365,47.983 205.957,48.125 205.664,48.409 C205.476,48.587 205.331,48.878 205.228,49.281 L204.29,48.709 C204.378,48.447 204.49,48.214 204.628,48.011 C204.765,47.807 204.928,47.628 205.115,47.471 C205.55,47.109 206.155,46.928 206.934,46.928 C207.7,46.928 208.321,47.12 208.8,47.504 C209.28,47.889 209.521,48.454 209.521,49.201 L209.521,53.739 Z M213.478,52.525 C213.479872,52.3943323 213.429471,52.2683302 213.338,52.175 C213.246183,52.0816436 213.12094,52.028739 212.99,52.028 C212.928803,52.027585 212.868415,52.0419956 212.814,52.07 C212.759242,52.0981798 212.7101,52.1361377 212.669,52.182 C212.626903,52.2293283 212.593096,52.2834211 212.569,52.342 C212.518058,52.4600731 212.518058,52.5939269 212.569,52.712 C212.615862,52.8258801 212.703102,52.9184611 212.814,52.972 C212.992257,53.0498628 213.200042,53.0101333 213.337,52.872 C213.42958,52.7806277 213.480251,52.6550363 213.477,52.525 L213.478,52.525 Z M216.234,47.907 C216.306601,48.023636 216.36948,48.1460491 216.422,48.273 L216.422,48.268 C216.54,48.572 216.6,48.882 216.6,49.201 L216.6,53.739 L215.193,53.739 L215.193,52.979 C215.193,52.461 215.021,51.853 214.678,51.156 C214.256,50.306 213.817,49.881 213.361,49.881 C213.095,49.881 212.914,50.036 212.817,50.345 L212.817,50.34 C212.786903,50.4298 212.767109,50.5227297 212.758,50.617 C212.748,50.72 212.742,50.837 212.742,50.968 L212.742,51.107 C212.742,51.158 212.745,51.209 212.752,51.259 C212.832563,51.2479628 212.9137,51.2416188 212.995,51.24 C213.357,51.24 213.662,51.365 213.909,51.615 L213.904,51.615 C214.154,51.865 214.279,52.168 214.279,52.525 C214.279,52.659 214.256,52.792 214.209,52.923 C214.160344,53.0577847 214.094104,53.1855554 214.012,53.303 C213.815,53.575 213.579,53.733 213.304,53.776 C213.17484,53.7913836 213.045032,53.8007271 212.915,53.804 C212.478,53.804 212.107,53.648 211.805,53.336 L211.809,53.336 C211.484,53.011 211.321,52.409 211.321,51.531 C211.321,51.065 211.362,50.664 211.443,50.326 C211.525,49.989 211.64,49.716 211.79,49.511 C211.968,49.282 212.175,49.109 212.409,48.991 C212.643,48.871 212.903,48.812 213.187,48.812 C213.506,48.812 213.843,48.897 214.2,49.065 C214.553,49.237 214.884,49.559 215.193,50.031 L215.193,49.37 C215.193,49.154 215.175,48.968 215.139,48.812 C215.111104,48.6753194 215.057852,48.5450734 214.982,48.428 L214.982,48.432 C214.776,48.132 214.365,47.982 213.75,47.982 C213.175,47.982 212.73,48.082 212.414,48.282 C212.101,48.47 211.876,48.757 211.739,49.145 L210.825,48.428 L211.335,47.795 C211.622805,47.504252 211.975956,47.2865325 212.365,47.16 C212.504,47.111 212.655,47.067 212.817,47.026 C213.101,46.961 213.421,46.928 213.777,46.928 C214.071,46.928 214.337,46.946 214.577,46.982 C214.816,47.018 215.032,47.073 215.227,47.148 C215.295,47.086 215.357,47.02 215.414,46.951 C215.494,46.841 215.536,46.623 215.536,46.295 L217.016,46.67 C217.016,47.17 216.798,47.557 216.361,47.832 L216.234,47.907 Z M213.834,54.892 C213.581,54.892 213.426,55.002 213.37,55.225 C213.38,55.572 213.534,55.745 213.834,55.745 C214.118,55.745 214.261,55.603 214.261,55.318 C214.261,55.178 214.228,55.072 214.162,55 C214.096,54.928 213.987,54.892 213.834,54.892 Z M213.764,57.109 L213.764,56.317 L213.754,56.317 C213.467,56.317 213.196,56.203 212.944,55.975 C212.860417,55.8967625 212.796072,55.8002449 212.756,55.693 C212.7105,55.5715564 212.688115,55.4426738 212.69,55.313 C212.69,55.039 212.789,54.798 212.986,54.592 C213.198,54.37 213.484,54.259 213.843,54.259 C214.425,54.259 214.798,54.479 214.963,54.92 C214.992,55.001 215.013,55.097 215.029,55.206 C215.045,55.316 215.053,55.44 215.053,55.581 L215.053,56.143 L215.461,56.143 L215.461,54.372 L216.736,54.372 L216.736,57.109 L213.764,57.109 Z M220.27,51.207 C220.342,51.292 220.425,51.39 220.518,51.503 C220.612,51.615 220.715,51.745 220.828,51.892 L220.828,49.502 C220.782681,49.5052109 220.737347,49.5082109 220.692,49.511 C220.332,49.511 220.029,49.391 219.782,49.154 C219.533423,48.9214713 219.39529,48.5943165 219.402,48.254 C219.402,47.97 219.495,47.706 219.679,47.462 L219.675,47.467 C219.771,47.327 219.879,47.217 219.998,47.141 C220.117264,47.0641088 220.251608,47.0136444 220.392,46.993 C220.573,46.975 220.707,46.965 220.795,46.965 C221.245,46.965 221.601,47.115 221.864,47.415 C222.111,47.7 222.234,48.045 222.234,48.451 L222.234,53.739 L220.594,53.739 C220.541121,53.6329806 220.484417,53.5289124 220.424,53.427 C220.36958,53.3241654 220.310176,53.2240465 220.246,53.127 C220.169544,53.0109603 220.091537,52.8959499 220.012,52.782 C219.965145,52.7044111 219.916803,52.6277302 219.867,52.552 C219.807,52.462 219.734,52.352 219.647,52.225 C219.5264,52.0633021 219.401011,51.905232 219.271,51.751 C219.13,51.5818742 218.984959,51.4161597 218.836,51.254 L218.437,50.861 L218.418,50.837 L218.418,50.842 C218.175,50.607 218.014,50.468 217.936,50.425 L217.551,50.19 L217.991,49.487 C218.251,49.487 218.746,49.811 219.478,50.457 C219.750848,50.6974882 220.015016,50.9476478 220.27,51.207 Z M220.204,48.259 C220.204,48.325 220.218,48.385 220.244,48.439 C220.270376,48.4935795 220.306271,48.5430196 220.35,48.585 C220.395188,48.6279219 220.448592,48.6612573 220.507,48.683 C220.567,48.707 220.631,48.718 220.697,48.718 C220.756,48.718 220.814,48.704 220.87,48.676 C220.925515,48.6483547 220.976174,48.6118803 221.02,48.568 C221.062852,48.5255577 221.097739,48.4757682 221.123,48.421 C221.147263,48.3703941 221.16023,48.3151165 221.161,48.259 C221.160903,48.1968064 221.147253,48.1353811 221.121,48.079 C221.068401,47.9640458 220.978069,47.870538 220.865,47.814 C220.812756,47.7868975 220.754853,47.7725074 220.696,47.772 C220.565652,47.7695661 220.439855,47.8199291 220.347199,47.9116434 C220.254543,48.0033578 220.202898,48.1286335 220.204,48.259 Z M226.354,52.525 C226.355872,52.3943323 226.305471,52.2683302 226.214,52.175 C226.122427,52.0818883 225.997592,52.0290043 225.867,52.028 C225.805803,52.027585 225.745415,52.0419956 225.691,52.07 C225.636242,52.0981798 225.5871,52.1361377 225.546,52.182 C225.503548,52.2292536 225.469399,52.2833508 225.445,52.342 C225.394058,52.4600731 225.394058,52.5939269 225.445,52.712 C225.492107,52.8260534 225.579726,52.9186587 225.691,52.972 C225.869257,53.0498628 226.077042,53.0101333 226.214,52.872 C226.30658,52.7806277 226.357251,52.6550363 226.354,52.525 Z M229.111,47.907 C229.183601,48.023636 229.24648,48.1460491 229.299,48.273 L229.298,48.268 C229.417,48.572 229.476,48.882 229.476,49.201 L229.476,53.739 L228.07,53.739 L228.07,52.979 C228.07,52.461 227.898,51.853 227.554,51.156 C227.132,50.306 226.694,49.881 226.237,49.881 C225.971,49.881 225.79,50.036 225.693,50.345 L225.693,50.34 C225.663243,50.42984 225.643785,50.5227687 225.635,50.617 C225.624,50.72 225.618,50.837 225.618,50.968 L225.618,51.107 C225.618,51.158 225.621,51.209 225.628,51.259 C225.708563,51.2479628 225.7897,51.2416188 225.871,51.24 C226.234,51.24 226.539,51.365 226.786,51.615 L226.781,51.615 C227.031,51.865 227.156,52.168 227.156,52.525 C227.156,52.659 227.132,52.792 227.086,52.923 C227.037344,53.0577847 226.971104,53.1855554 226.889,53.303 C226.692,53.575 226.456,53.733 226.181,53.776 C226.051508,53.7914147 225.921366,53.8007582 225.791,53.804 C225.354,53.804 224.984,53.648 224.681,53.336 L224.686,53.336 C224.361,53.011 224.198,52.409 224.198,51.531 C224.198,51.065 224.238,50.664 224.32,50.326 C224.401,49.989 224.517,49.716 224.667,49.511 C224.845,49.282 225.051,49.109 225.286,48.991 C225.52,48.871 225.779,48.812 226.064,48.812 C226.382,48.812 226.72,48.897 227.076,49.065 C227.429,49.237 227.761,49.559 228.07,50.031 L228.07,49.37 C228.07,49.154 228.052,48.968 228.016,48.812 C227.988104,48.6753194 227.934852,48.5450734 227.859,48.428 L227.859,48.432 C227.653,48.132 227.242,47.982 226.626,47.982 C226.051,47.982 225.606,48.082 225.29,48.282 C224.978,48.47 224.753,48.757 224.615,49.145 L223.701,48.428 L224.212,47.795 C224.49952,47.5043867 224.852314,47.286676 225.241,47.16 C225.381,47.111 225.531,47.067 225.693,47.026 C225.978,46.961 226.298,46.928 226.654,46.928 C226.948,46.928 227.214,46.946 227.454,46.982 C227.693,47.018 227.909,47.073 228.103,47.148 C228.171,47.086 228.234,47.02 228.29,46.951 C228.371,46.841 228.412,46.623 228.412,46.295 L229.893,46.67 C229.893,47.17 229.675,47.557 229.237,47.832 L229.111,47.907 Z M228.45,57.311 L228.45,56.645 C228.087,56.642 227.796,56.531 227.578,56.312 C227.38615,56.1026988 227.28354,55.826799 227.292,55.543 C227.292,55.053 227.514,54.717 227.957,54.536 C228.051,54.498 228.147,54.469 228.243,54.449 C228.34,54.429 228.44,54.419 228.543,54.419 C228.75,54.419 228.936,54.459 229.103,54.538 C229.271,54.618 229.418,54.732 229.546,54.882 C229.646,55.004 229.723,55.16 229.776,55.349 C229.829,55.538 229.856,55.754 229.856,55.999 L229.856,57.311 L228.45,57.311 Z M228.459,55.136 C228.193,55.136 228.061,55.281 228.061,55.572 C228.061,55.856 228.207,55.998 228.501,55.998 C228.795,55.998 228.941,55.843 228.941,55.534 C228.889,55.268 228.728,55.136 228.459,55.136 Z M233.507,49.886 C233.507,49.954 233.523,50.02 233.554,50.082 C233.647284,50.2704867 233.835879,50.3931506 234.046,50.402 C234.18221,50.4020771 234.313241,50.3498079 234.412,50.256 C234.462018,50.2094202 234.502739,50.1537683 234.532,50.092 C234.588882,49.9598558 234.590682,49.8104763 234.537,49.677 C234.511197,49.614459 234.472723,49.557939 234.424,49.511 C234.216465,49.3096888 233.886535,49.3096888 233.679,49.511 C233.627091,49.5578211 233.584656,49.6141749 233.554,49.677 C233.522454,49.7421199 233.50637,49.8136442 233.507,49.886 Z M235.584,53.739 L235.584,49.257 C235.584,48.867 235.47,48.564 235.242,48.348 C234.989,48.104 234.584,47.982 234.028,47.982 C233.812,47.982 233.609,48.018 233.418,48.09 C233.228,48.162 233.062,48.253 232.921,48.362 C232.781,48.502 232.667,48.675 232.579,48.88 C232.490815,49.088424 232.446233,49.3126949 232.448,49.539 C232.448,49.679 232.455,49.817 232.469,49.951 C232.483,50.086 232.506,50.217 232.537,50.345 L232.706,51.118 L232.706,51.114 C232.781,51.442 232.834,51.737 232.866,52 C233.041634,51.7274281 233.22267,51.458375 233.409,51.193 C233.431142,51.1621008 233.453142,51.1311005 233.475,51.1 C233.4926,51.0726026 233.511282,51.0459149 233.531,51.02 C233.437753,50.9857991 233.348817,50.940828 233.266,50.886 C233.174473,50.8244333 233.087574,50.7562512 233.006,50.682 L233.006,50.687 C232.812,50.512 232.716,50.237 232.716,49.862 C232.716,49.687 232.743,49.526 232.8,49.379 C233.025,48.839 233.445,48.569 234.06,48.569 C234.551,48.569 234.907,48.742 235.13,49.089 C235.298,49.361 235.382,49.649 235.382,49.951 C235.382,50.179 235.245,50.507 234.97,50.936 L234.684,51.353 L234.032,52.309 L234.032,52.304 C233.952,52.424 233.856,52.568 233.746,52.74 C233.587824,52.9896782 233.430157,53.2396787 233.273,53.49 C233.26481,53.5037068 233.257138,53.5177167 233.25,53.532 C233.23203,53.5696842 233.210958,53.6058087 233.187,53.64 L233.118,53.739 L231.576,53.739 L231.576,53.685 L231.579,53.589 L231.581,53.49 L231.581,53.425 C231.583913,53.4017724 231.585582,53.3784057 231.586,53.355 L231.586,53.303 C231.586,53.118 231.577,52.921 231.56,52.71 C231.540752,52.4817673 231.513402,52.2542905 231.478,52.028 L231.482,52.042 C231.336152,51.4302229 231.200134,50.8161438 231.074,50.2 C231.024686,49.968985 231.001208,49.7332034 231.004,49.497 C231.004,49.087 231.08,48.722 231.232,48.402 C231.383,48.082 231.611,47.804 231.914,47.57 C232.194,47.357 232.512,47.197 232.865,47.09 C233.247141,46.9779872 233.643807,46.9233908 234.042,46.928 C235.023,46.928 235.762,47.136 236.259,47.551 C236.746,47.964 236.99,48.551 236.99,49.314 L236.99,53.739 L235.584,53.739 Z M227.609,181.86 C227.67449,181.860652 227.739332,181.847001 227.799,181.82 C227.94695,181.752669 228.052936,181.617619 228.083168,181.457904 C228.113401,181.29819 228.064106,181.133747 227.951,181.017 C227.864108,180.919824 227.739345,180.865103 227.609,180.867 C227.541297,180.866804 227.474265,180.880414 227.412,180.907 C227.351601,180.932117 227.29609,180.967658 227.248,181.012 C227.150128,181.1026 227.09556,181.230653 227.098,181.364 C227.096786,181.496209 227.149933,181.623113 227.245,181.715 C227.343032,181.808683 227.473402,181.860975 227.609,181.861 L227.609,181.86 Z M226.629,178.35 C226.378858,178.301562 226.126091,178.267838 225.872,178.249 C225.631049,178.231786 225.389565,178.223113 225.148,178.223 C224.991,178.223 224.863,178.236 224.761,178.263 C224.656615,178.290748 224.555402,178.329289 224.459,178.378 C224.420072,178.297129 224.396989,178.209552 224.391,178.12 C224.387338,178.062395 224.385004,178.004713 224.384,177.947 C224.384,177.519 224.521,177.09 224.796,176.662 C225.159,176.094 225.745,175.809 226.554,175.809 C226.664,175.809 226.796,175.825 226.952,175.856 C227.109,175.887 227.282,175.929 227.472,175.983 C227.648,176.033 227.801,176.071 227.932,176.097 C228.063,176.124 228.17,176.137 228.251,176.137 C228.529,176.137 228.743,176.009 228.893,175.753 L229.957,176.306 C229.918694,176.416844 229.867688,176.522883 229.805,176.622 C229.744,176.718 229.675,176.802 229.596,176.873 C229.49342,176.967706 229.377524,177.046879 229.252,177.108 C229.132048,177.166113 229.002686,177.202348 228.87,177.215 C228.814342,177.220755 228.758676,177.226422 228.703,177.232 C228.663131,177.236201 228.623087,177.238537 228.583,177.239 C228.337,177.239 227.993,177.17 227.553,177.033 C227.399667,176.98306 227.243778,176.941334 227.086,176.908 C226.974218,176.883755 226.860357,176.87036 226.746,176.868 C226.436,176.868 226.198,176.944 226.029,177.094 L226.024,177.094 L225.947,177.174 C225.919778,177.20262 225.895335,177.233759 225.874,177.267 C226.014,177.273 226.168,177.285 226.334,177.302 C226.499,177.319 226.668,177.34 226.84,177.365 C227.99,177.55 228.702,177.889 228.977,178.383 L228.977,178.378 C229.093,178.59 229.151,178.803 229.151,179.015 L229.151,181.162 C229.151,181.572 229.015,181.926 228.743,182.226 C228.485426,182.508631 228.117217,182.664608 227.735,182.653 C227.275,182.653 226.916,182.508 226.657,182.217 L226.662,182.217 C226.443873,181.987415 226.325887,181.68058 226.334,181.364 C226.334,181.001 226.455,180.7 226.699,180.459 L226.699,180.464 C226.943,180.22 227.245,180.098 227.604,180.098 L227.667,180.098 C227.687,180.098 227.709,180.1 227.73,180.103 L227.73,179.104 C227.73,179.033 227.721,178.965 227.702,178.903 C227.684921,178.844156 227.657861,178.788682 227.622,178.739 C227.56,178.661 227.447,178.589 227.282,178.523 C227.070359,178.444608 226.851693,178.386677 226.629,178.35 Z M235.212,182.56 L233.796,182.56 L233.796,178.19 C233.796,177.725 233.738,177.41 233.623,177.244 C233.423,176.95 233.074,176.803 232.577,176.803 C232.055,176.803 231.647,176.945 231.354,177.229 C231.166,177.408 231.021,177.699 230.918,178.101 L229.98,177.529 C230.068,177.267 230.18,177.034 230.318,176.831 C230.455,176.628 230.618,176.448 230.805,176.292 C231.24,175.929 231.846,175.748 232.625,175.748 C233.39,175.748 234.012,175.94 234.49,176.325 C234.971,176.709 235.212,177.275 235.212,178.022 L235.212,182.559 L235.212,182.56 Z M239.796,178.237 C239.468,178.237 239.304,178.401 239.304,178.729 C239.304,178.867 239.351,178.98 239.444,179.069 C239.538795,179.158778 239.6655,179.207013 239.796,179.203 C239.859845,179.203309 239.922986,179.189657 239.981,179.163 C240.095916,179.110137 240.188137,179.017916 240.241,178.903 C240.265872,178.848354 240.278825,178.78904 240.279,178.729 C240.279309,178.59833 240.229155,178.472587 240.139,178.378 C240.047635,178.287877 239.924333,178.23755 239.796,178.238 L239.796,178.237 Z M238.891,182.559 L237.293,182.559 C237.293,182.449 237.295,182.363 237.3,182.299 C237.305,182.235 237.307,182.176 237.307,182.123 C237.307,181.942 237.297,181.745 237.274,181.533 C237.252,181.32 237.221,181.092 237.18,180.848 C237.12876,180.624673 237.074756,180.401989 237.018,180.18 C236.983,180.041 236.946,179.893 236.908,179.735 C236.835035,179.424568 236.776638,179.110892 236.733,178.795 C236.713694,178.653809 236.703673,178.511503 236.703,178.369 C236.703,177.549 237.001,176.894 237.598,176.399 C238.132,175.965 238.851,175.749 239.754,175.749 C240.72,175.749 241.455,175.956 241.962,176.372 C242.462,176.784 242.712,177.372 242.712,178.134 L242.712,182.559 L241.292,182.559 L241.292,178.078 C241.292,177.69 241.176,177.388 240.945,177.168 C240.691,176.925 240.288,176.803 239.735,176.803 C239.285,176.803 238.909,176.936 238.605,177.201 C238.315,177.451 238.17,177.837 238.17,178.359 C238.17,178.619 238.187,178.826 238.221,178.983 L238.254,179.156 C238.294,179.016 238.336,178.875 238.378,178.734 C238.42,178.594 238.468,178.459 238.518,178.331 C238.57,178.203 238.628,178.084 238.695,177.975 C238.76,177.865 238.838,177.77 238.929,177.689 C239.022356,177.606056 239.130604,177.541582 239.248,177.499 C239.37,177.454 239.512,177.431 239.674,177.431 C239.877,177.431 240.066,177.459 240.241,177.515 C240.416,177.572 240.568,177.654 240.696,177.761 C240.824,177.869 240.925,178.001 240.998,178.158 C241.072,178.314 241.108,178.492 241.108,178.692 C241.108,179.054 241.005,179.348 240.799,179.573 C240.53,179.863 240.189,180.009 239.777,180.009 C239.611438,180.010646 239.447772,179.973667 239.299,179.901 C239.205901,180.169964 239.134014,180.445808 239.084,180.726 C239.024197,181.057727 238.983463,181.39261 238.962,181.729 L238.892,182.559 L238.891,182.559 Z M248.961,182.559 L247.545,182.559 L247.545,178.19 C247.545,177.725 247.487,177.41 247.371,177.244 C247.171,176.95 246.823,176.803 246.326,176.803 C245.804,176.803 245.396,176.945 245.102,177.229 C244.915,177.408 244.77,177.699 244.666,178.101 L243.729,177.529 C243.816,177.267 243.929,177.034 244.066,176.831 C244.204,176.628 244.366,176.448 244.554,176.292 C244.988,175.929 245.594,175.748 246.373,175.748 C247.138,175.748 247.76,175.94 248.238,176.325 C248.72,176.709 248.96,177.275 248.96,178.022 L248.96,182.559 L248.961,182.559 Z M252.916,181.345 C252.917872,181.214332 252.867471,181.08833 252.776,180.995 C252.684427,180.901888 252.559592,180.849004 252.429,180.848 C252.367803,180.847585 252.307415,180.861996 252.253,180.89 C252.19816,180.918478 252.149013,180.956779 252.108,181.003 C252.065548,181.050254 252.031399,181.104351 252.007,181.163 C251.956058,181.281073 251.956058,181.414927 252.007,181.533 C252.054107,181.647053 252.141726,181.739659 252.253,181.793 C252.431257,181.870863 252.639042,181.831133 252.776,181.693 C252.868837,181.601388 252.91953,181.475381 252.916,181.345 Z M255.673,176.728 C255.745601,176.844636 255.80848,176.967049 255.861,177.094 L255.861,177.089 C255.979,177.392 256.038,177.703 256.038,178.022 L256.038,182.559 L254.632,182.559 L254.632,181.799 C254.632,181.281 254.46,180.673 254.116,179.976 C253.695,179.126 253.256,178.701 252.799,178.701 C252.534,178.701 252.352,178.856 252.255,179.165 L252.255,179.161 C252.225317,179.250517 252.20586,179.343107 252.197,179.437 C252.186,179.54 252.18,179.657 252.18,179.789 L252.18,179.927 C252.18,179.979 252.184,180.029 252.19,180.079 C252.270914,180.068259 252.352386,180.062248 252.434,180.061 C252.796,180.061 253.101,180.186 253.348,180.436 L253.343,180.436 C253.593,180.686 253.718,180.989 253.718,181.346 C253.718,181.479 253.695,181.612 253.648,181.744 C253.599344,181.878785 253.533104,182.006555 253.451,182.124 C253.254,182.395 253.018,182.553 252.743,182.597 C252.613508,182.612415 252.483366,182.621758 252.353,182.625 C251.916,182.625 251.546,182.469 251.243,182.156 L251.248,182.156 C250.923,181.831 250.76,181.229 250.76,180.351 C250.76,179.886 250.8,179.484 250.882,179.147 C250.963,178.809 251.079,178.537 251.229,178.331 C251.407,178.103 251.613,177.929 251.848,177.811 C252.082,177.692 252.341,177.633 252.626,177.633 C252.945,177.633 253.282,177.717 253.638,177.886 C253.991,178.058 254.323,178.379 254.632,178.851 L254.632,178.191 C254.632,177.975 254.614,177.789 254.578,177.633 C254.550223,177.495972 254.496967,177.365376 254.421,177.248 L254.421,177.253 C254.215,176.953 253.804,176.803 253.188,176.803 C252.613,176.803 252.168,176.903 251.852,177.103 C251.54,177.29 251.315,177.578 251.177,177.965 L250.263,177.248 L250.774,176.615 C251.061805,176.324252 251.414956,176.106533 251.804,175.98 C251.942,175.932 252.093,175.887 252.255,175.847 C252.54,175.781 252.86,175.748 253.216,175.748 C253.51,175.748 253.776,175.766 254.016,175.802 C254.255,175.838 254.471,175.894 254.665,175.969 C254.734,175.906 254.796,175.84 254.852,175.772 C254.934,175.662 254.974,175.444 254.974,175.115 L256.455,175.49 C256.455,175.99 256.237,176.378 255.799,176.653 L255.673,176.728 Z M255.012,186.131 L255.012,185.465 C254.649,185.462 254.359,185.351 254.14,185.133 C253.947905,184.923448 253.845277,184.647141 253.854,184.363 C253.854,183.873 254.076,183.537 254.52,183.356 C254.613,183.319 254.709,183.29 254.805,183.269 C254.902,183.249 255.002,183.239 255.105,183.239 C255.312,183.239 255.498,183.279 255.665,183.359 C255.833,183.439 255.98,183.553 256.109,183.703 C256.209,183.825 256.285,183.98 256.339,184.169 C256.391,184.359 256.418,184.575 256.418,184.819 L256.418,186.131 L255.012,186.131 Z M255.022,183.956 C254.755,183.956 254.622,184.101 254.622,184.392 C254.622,184.676 254.77,184.819 255.063,184.819 C255.357,184.819 255.503,184.664 255.503,184.354 C255.451,184.089 255.29,183.956 255.021,183.956 L255.022,183.956 Z M260.07,178.706 C260.07,178.775 260.085,178.84 260.116,178.903 C260.209726,179.091404 260.398734,179.213703 260.609,179.222 C260.744864,179.221821 260.875492,179.16957 260.974,179.076 C261.024018,179.02942 261.064739,178.973768 261.094,178.912 C261.150882,178.779856 261.152682,178.630476 261.099,178.497 C261.073197,178.434459 261.034723,178.377939 260.986,178.331 C260.778465,178.129689 260.448535,178.129689 260.241,178.331 C260.189091,178.377821 260.146656,178.434175 260.116,178.497 C260.084799,178.562203 260.069058,178.633723 260.07,178.706 Z M262.146,182.559 L262.146,178.078 C262.146,177.688 262.032,177.384 261.804,177.168 C261.551,176.925 261.146,176.803 260.59,176.803 C260.374,176.803 260.171,176.839 259.98,176.911 C259.79,176.983 259.624,177.073 259.484,177.183 C259.343,177.323 259.229,177.496 259.141,177.701 C259.053292,177.909186 259.009054,178.133101 259.011,178.359 C259.011,178.499 259.017,178.637 259.031,178.772 C259.045,178.906 259.068,179.037 259.099,179.165 L259.268,179.939 L259.268,179.934 C259.343,180.262 259.396,180.558 259.428,180.82 C259.603644,180.547764 259.78468,180.279044 259.971,180.014 C259.993144,179.982768 260.015144,179.951434 260.037,179.92 C260.0546,179.892603 260.073282,179.865915 260.093,179.84 C259.999798,179.806115 259.910865,179.761481 259.828,179.707 C259.736473,179.645433 259.649574,179.577251 259.568,179.503 L259.568,179.508 C259.374,179.333 259.278,179.058 259.278,178.683 C259.278,178.508 259.305,178.347 259.362,178.2 C259.587,177.66 260.007,177.389 260.622,177.389 C261.113,177.389 261.47,177.562 261.692,177.909 C261.86,178.181 261.945,178.469 261.945,178.772 C261.945,179 261.807,179.328 261.532,179.756 L261.246,180.173 L260.595,181.129 L260.595,181.125 C260.513,181.244 260.418,181.389 260.309,181.561 C260.150489,181.810677 259.992489,182.060677 259.835,182.311 C259.82681,182.324707 259.819138,182.338717 259.812,182.353 C259.79403,182.390684 259.772958,182.426809 259.749,182.461 L259.68,182.559 L258.138,182.559 L258.138,182.505 L258.141,182.409 C258.142404,182.376353 258.143071,182.343678 258.143,182.311 L258.143,182.245 C258.145913,182.221772 258.147582,182.198406 258.148,182.175 L258.148,182.123 C258.148,181.939 258.139,181.741 258.122,181.53 C258.102752,181.301767 258.075402,181.07429 258.04,180.848 L258.045,180.862 C257.995,180.659 257.935,180.404 257.866,180.098 C257.785964,179.739394 257.709294,179.380045 257.636,179.02 C257.586686,178.788985 257.563208,178.553203 257.566,178.317 C257.566,177.907 257.642,177.543 257.794,177.222 C257.945,176.902 258.173,176.625 258.476,176.39 C258.757,176.178 259.074,176.018 259.427,175.91 C259.809141,175.797987 260.205807,175.743391 260.604,175.748 C261.585,175.748 262.324,175.956 262.821,176.372 C263.309,176.784 263.552,177.372 263.552,178.134 L263.552,182.559 L262.146,182.559 Z M265.53,177.079 C265.53,177.195 265.579,177.301 265.676,177.399 L265.671,177.399 C265.801277,177.543519 266.010605,177.586115 266.187,177.504 C266.245877,177.477847 266.299958,177.442018 266.347,177.398 C266.392426,177.35621 266.429721,177.30637 266.457,177.251 C266.483411,177.197516 266.4971,177.13865 266.497,177.079 C266.496543,176.947222 266.444493,176.820865 266.352,176.727 C266.257163,176.636605 266.131015,176.586433 266,176.587 C265.941046,176.58738 265.882938,176.601053 265.83,176.627 C265.773854,176.653743 265.722499,176.689556 265.678,176.733 C265.584109,176.823713 265.530754,176.948448 265.53,177.079 Z M266.168,178.322 C266.113408,178.326238 266.058728,178.329239 266.004,178.331 C265.664,178.331 265.37,178.208 265.123,177.961 C264.883923,177.728854 264.751461,177.408195 264.757,177.075 C264.757,176.935 264.779,176.8 264.823,176.672 C264.866,176.544 264.93,176.417 265.015,176.292 C265.112,176.152 265.22,176.042 265.338,175.964 C265.454071,175.88693 265.585383,175.83577 265.723,175.814 C265.903,175.795 266.035,175.786 266.116,175.786 C266.579,175.786 266.941,175.934 267.204,176.231 C267.448,176.512 267.57,176.859 267.57,177.271 L267.57,178.279 C267.729,177.864 267.892,177.499 268.06,177.185 C268.227,176.871 268.398,176.601 268.573,176.376 L268.577,176.376 C268.749,176.154 268.879,176.014 268.967,175.954 C269.117,175.848 269.307,175.795 269.538,175.795 C270.032,175.795 270.434,175.967 270.743,176.311 C271.033,176.639 271.179,177.05 271.179,177.544 L271.179,182.559 L269.777,182.559 L269.777,177.44 C269.777,177.219 269.682,177.11 269.491,177.112 C269.448,177.115 269.374,177.202 269.271,177.37 C269.143574,177.583149 269.023503,177.800611 268.911,178.022 C268.801,178.247 268.698,178.465 268.603,178.678 C268.515446,178.871639 268.435058,179.06844 268.362,179.268 C268.29,179.453 268.222,179.648 268.155,179.852 C268.088478,180.059872 268.026794,180.269262 267.97,180.48 C267.912,180.694 267.858,180.91 267.806,181.127 C267.755,181.344 267.709,181.557 267.668,181.767 C267.638719,181.919507 267.614373,182.072921 267.595,182.227 C267.578,182.367 267.57,182.477 267.57,182.559 L266.168,182.559 L266.168,178.322 Z M269.266,173.962 L269.299,173.869 L269.201,173.869 C269.004,173.869 268.834,173.837 268.692,173.775 C268.553246,173.715133 268.431585,173.621654 268.338,173.503 C268.22,173.353 268.16,173.154 268.16,172.908 C268.148451,172.540702 268.339286,172.196661 268.657,172.012 C268.751,171.952 268.852,171.91 268.962,171.883 C269.072,171.857 269.188,171.843 269.313,171.843 C269.713,171.843 270.021,171.997 270.237,172.303 L270.232,172.303 C270.395,172.531 270.476,172.77 270.476,173.02 C270.476,173.18 270.448,173.336 270.391,173.491 C270.332256,173.650588 270.251836,173.801334 270.152,173.939 C270.146181,173.949108 270.14018,173.959109 270.134,173.969 C270.130141,173.97441 270.12541,173.979141 270.12,173.983 C270.11218,173.988803 270.105415,173.995906 270.1,174.004 C270.088932,174.019375 270.076552,174.033762 270.063,174.047 C270.14315,174.009932 270.221565,173.969223 270.298,173.925 C270.385,173.875 270.482,173.815 270.588,173.747 C270.748,173.625 270.895,173.471 271.028,173.285 C271.163,173.099 271.273,172.892 271.357,172.664 C271.391,172.548 271.42,172.429 271.444,172.308 C271.466627,172.193702 271.478346,172.077514 271.479,171.961 L272.618,171.961 C272.649,172.267 272.558,172.619 272.346,173.015 C272.252,173.197 272.136,173.369 271.995,173.531 C271.679323,173.894207 271.297565,174.194184 270.87,174.415 C270.626722,174.537964 270.374304,174.64194 270.115,174.726 C269.630535,174.863202 269.128421,174.927904 268.625,174.918 L268.625,174.258 C268.965,174.208 269.179,174.109 269.266,173.962 Z M269.286,172.448 C269.02,172.467 268.879,172.606 268.863,172.865 C268.866,173.135 269.012,173.281 269.299,173.306 C269.577,173.296 269.723,173.15 269.735,172.866 C269.732,172.722 269.687,172.617 269.602,172.551 C269.510193,172.483405 269.399005,172.447277 269.285,172.448 L269.286,172.448 Z M277.329,182.559 L275.913,182.559 L275.913,178.19 C275.913,177.725 275.855,177.41 275.74,177.244 C275.54,176.95 275.191,176.803 274.695,176.803 C274.173,176.803 273.765,176.945 273.471,177.229 C273.284,177.408 273.138,177.699 273.035,178.101 L272.098,177.529 C272.185,177.267 272.298,177.034 272.435,176.831 C272.573,176.628 272.735,176.448 272.923,176.292 C273.357,175.929 273.963,175.748 274.741,175.748 C275.507,175.748 276.129,175.94 276.607,176.325 C277.088,176.709 277.329,177.275 277.329,178.022 L277.329,182.559 Z M280.882,176.986 C280.882,177.048 280.896,177.106 280.924,177.159 C280.951839,177.211672 280.990319,177.257984 281.037,177.295 C281.12906,177.368121 281.242468,177.409201 281.36,177.412 C281.541659,177.405937 281.706969,177.305462 281.796,177.147 C281.823398,177.097752 281.837849,177.042356 281.838,176.986 C281.838,176.846 281.798,176.74 281.716,176.672 C281.636,176.602 281.516,176.569 281.36,176.569 C281.179298,176.569075 281.012351,176.665508 280.922,176.822 C280.895252,176.872496 280.881505,176.92886 280.882,176.986 Z M282.851,181.401 C282.941,181.401 283.009,181.371 283.052,181.308 C283.099,181.248 283.122,181.159 283.122,181.04 L283.122,175.865 L284.543,175.865 L284.543,181.205 C284.543,181.558 284.448,181.861 284.257,182.114 C284.032,182.411 283.659,182.559 283.137,182.559 L279.002,182.559 L279.002,181.401 L279.424,181.401 L279.424,180.506 C279.424,180.075 279.52,179.726 279.71,179.461 C279.754,179.401 279.797,179.348 279.84,179.301 C279.881,179.254 279.929,179.211 279.982,179.171 C279.766081,179.102042 279.568741,178.984732 279.405,178.828 C279.099,178.531 278.946,178.142 278.946,177.661 C278.946,177.054 279.176,176.575 279.636,176.221 C280.041,175.915 280.548,175.762 281.154,175.762 C281.576,175.762 281.92,175.862 282.185,176.062 C282.479,176.287 282.625,176.597 282.625,176.99 C282.625,177.434 282.454,177.753 282.11,177.947 C281.895,178.075 281.65,178.139 281.374,178.139 C280.762,178.139 280.374,177.928 280.212,177.506 L280.216,177.511 C280.200295,177.472147 280.184961,177.433145 280.17,177.394 L280.17,177.412 C280.17,177.534 280.19,177.652 280.228,177.766 C280.268,177.88 280.327,177.985 280.406,178.08 C280.486,178.176 280.586,178.256 280.704,178.322 C280.823,178.387 280.962,178.431 281.121,178.452 C281.365,178.49 281.596,178.509 281.815,178.509 L282.457,178.509 L282.457,179.583 L281.787,179.583 C281.502,179.583 281.285,179.645 281.135,179.77 L281.135,179.765 C281.046607,179.847102 280.978191,179.948357 280.935,180.061 C280.887426,180.191634 280.864702,180.330012 280.868,180.469 L280.868,181.401 L282.851,181.401 Z M18.978,126.355 L18.978,130.493 C19.058,130.47 19.158,130.458 19.278,130.458 C19.582,130.458 19.836,130.558 20.038,130.759 C20.242,130.959 20.344,131.21 20.344,131.511 C20.344,131.797 20.254,132.038 20.074,132.233 C19.893,132.428 19.661,132.538 19.377,132.563 C19.2999254,132.582976 19.2206211,132.593057 19.141,132.593 C18.8089529,132.594672 18.4929761,132.450215 18.277,132.198 C18.068,131.975 17.964,131.681 17.964,131.318 L17.964,126.355 L18.978,126.355 Z M19.768,131.511 C19.7711067,131.383685 19.7185206,131.26135 19.624,131.176 C19.5304744,131.088162 19.4062808,131.040423 19.278,131.043 C19.1550983,131.041797 19.0371476,131.091365 18.952,131.18 C18.8624806,131.266277 18.8125479,131.385681 18.814,131.51 C18.814,131.64 18.859,131.75 18.95,131.844 C19.04,131.937 19.15,131.984 19.278,131.984 C19.413,131.984 19.528,131.938 19.624,131.846 C19.7175405,131.759952 19.7699258,131.638084 19.768,131.511 Z M22.832,128.426 C22.4829677,128.360921 22.1297382,128.32082 21.775,128.306 C21.6374041,128.300202 21.4997153,128.296868 21.362,128.296 C21.022,128.296 20.837,128.306 20.808,128.327 C20.7992512,128.285911 20.7948934,128.24401 20.795,128.202 C20.795,127.822 20.92,127.436 21.169,127.046 C21.487,126.551 22.007,126.303 22.729,126.303 C22.929,126.303 23.21,126.355 23.571,126.46 C23.931,126.565 24.198,126.617 24.371,126.617 C24.705,126.617 24.934,126.512 25.058,126.303 L25.81,126.694 C25.754042,126.825119 25.6684722,126.941494 25.56,127.034 C25.38,127.203 25.178,127.299 24.955,127.321 C24.867712,127.332315 24.7799548,127.339656 24.692,127.343 C24.466,127.343 24.151,127.279 23.747,127.15 C23.383,127.038 23.105,126.982 22.914,126.982 C22.567,126.982 22.296,127.069 22.101,127.244 C21.975,127.35 21.874,127.504 21.796,127.708 C22.131,127.708 22.526,127.743 22.978,127.811 C23.505,127.894 23.932,128.011 24.258,128.159 C24.585,128.309 24.807,128.49 24.924,128.705 C25.022,128.877 25.071,129.055 25.071,129.238 L25.071,131.318 C25.071,131.676 24.955,131.981 24.723,132.233 C24.505,132.471 24.221,132.589 23.872,132.589 C23.482,132.589 23.177,132.468 22.956,132.224 C22.7764008,132.030676 22.6795034,131.774795 22.686,131.511 C22.686,131.207 22.786,130.956 22.986,130.757 C23.187,130.557 23.439,130.458 23.743,130.458 C23.8428871,130.454185 23.9427573,130.465994 24.039,130.493 L24.039,129.323 C24.045715,129.159014 23.9975005,128.997478 23.902,128.864 C23.759,128.675 23.402,128.529 22.832,128.426 Z M23.742,131.984 C23.8668851,131.986289 23.9868577,131.935391 24.072,131.844 C24.1600904,131.755764 24.2087776,131.635669 24.207,131.511 C24.2084521,131.386681 24.1585194,131.267277 24.069,131.181 C23.9840241,131.091997 23.8660511,131.042057 23.743,131.043 C23.6170571,131.040709 23.4955294,131.089392 23.406,131.178 C23.3144585,131.264288 23.263615,131.385223 23.266,131.511 C23.266,131.643 23.312,131.754 23.403,131.846 C23.4923548,131.937066 23.6154535,131.98703 23.743,131.984 L23.742,131.984 Z M25.148,125.388 L24.559,125.276 C23.8920931,125.159811 23.2159081,125.105248 22.539,125.113 C21.783,125.113 20.977,125.185 20.121,125.328 L20.284,124.773 C20.671,123.831 21.422,123.36 22.54,123.36 C23.545,123.36 24.296,123.757 24.791,124.55 C24.991,124.87 25.111,125.15 25.148,125.388 Z M22.428,123.871 C21.904,123.871 21.534,124.066 21.319,124.455 L21.233,124.662 C21.6926146,124.637784 22.1527514,124.62478 22.613,124.623 C22.965,124.623 23.445,124.673 24.053,124.773 C24.0006719,124.697787 23.9490033,124.622118 23.898,124.546 C23.528,124.096 23.038,123.871 22.428,123.871 Z M24.095,120.876 L25.023,120.876 L25.023,122.668 L24.095,122.668 L24.095,120.876 Z M30.901,126.355 L31.915,126.355 L31.915,131.335 C31.915,131.793 31.84,132.092 31.688,132.233 C31.524,132.442 31.295,132.546 31,132.546 C30.883,132.546 30.767,132.468 30.652,132.31 C30.515,132.101 30.376,131.892 30.235,131.683 C30.1010447,131.471567 29.9407605,131.278016 29.758,131.107 C29.406,130.792 29.051,130.613 28.693,130.57 L28.693,131.67 C28.693,132.054 28.558,132.314 28.289,132.452 C28.0713644,132.553315 27.8329305,132.601961 27.593,132.594 C27.43,132.594 27.298,132.578 27.198,132.546 C26.845,132.446 26.588,132.217 26.428,131.859 C26.3421422,131.66414 26.2998251,131.452896 26.304,131.24 C26.304,130.624 26.52,130.2 26.953,129.968 C27.219,129.822 27.455,129.749 27.662,129.749 L27.662,128.374 L27.502,128.391 C27.454,128.397 27.402,128.4 27.348,128.4 C27.056,128.4 26.808,128.3 26.602,128.1 C26.3998728,127.906017 26.2884858,127.636076 26.295,127.356 C26.295,127.124 26.371,126.902 26.523,126.69 C26.686,126.464 26.878,126.336 27.099,126.307 C27.273,126.287 27.394,126.277 27.459,126.277 C27.846,126.277 28.153,126.402 28.379,126.651 C28.589,126.886 28.693,127.184 28.693,127.545 L28.693,129.839 C29.045,129.857 29.426,130.004 29.836,130.282 C29.867,130.305 30.036,130.457 30.343,130.738 C30.633,131.004 30.781,131.136 30.79,131.133 C30.864,131.11 30.901,131.013 30.901,130.841 L30.901,126.355 Z M26.884,127.355 C26.884,127.476 26.931,127.584 27.026,127.678 C27.1091921,127.767666 27.2256893,127.81904 27.348,127.82 C27.475337,127.82035 27.5977463,127.770812 27.689,127.682 C27.7837489,127.6002 27.8381505,127.481174 27.838,127.356 C27.83642,127.227722 27.7838719,127.105342 27.6919473,127.015856 C27.6000227,126.92637 27.4762745,126.877131 27.348,126.879 C27.2234603,126.878211 27.1045006,126.930597 27.021,127.023 C26.9327501,127.111287 26.8834284,127.231171 26.884,127.356 L26.884,127.355 Z M27.051,131.095 C27.0481999,131.118896 27.046864,131.142941 27.047,131.167 L27.047,131.236 C27.047,131.431 27.071,131.574 27.12,131.666 C27.192,131.815 27.285,131.889 27.4,131.889 C27.574,131.889 27.662,131.796 27.662,131.609 L27.662,130.519 C27.6289441,130.505897 27.5935367,130.499769 27.558,130.501 C27.4548947,130.503214 27.3554081,130.539423 27.275,130.604 C27.125,130.776 27.051,130.939 27.051,131.094 L27.051,131.095 Z M37.871,132.499 L37.871,128.327 C37.871,127.886 37.755,127.554 37.523,127.33 L37.308,127.184 C37.2786478,127.164928 37.2439357,127.155812 37.209,127.158 C37.181,127.158 37.046,127.221 36.805,127.345 C36.565,127.47 36.351,127.532 36.165,127.532 C35.999,127.532 35.809,127.472 35.595,127.352 C35.382,127.232 35.265,127.172 35.245,127.172 C35.191,127.172 35.108,127.207 34.996,127.279 C34.9151457,127.328781 34.8439936,127.392818 34.786,127.468 C34.586,127.714 34.485,128.092 34.485,128.602 C34.485,128.882 34.515,129.155 34.575,129.418 L34.739,130.166 C34.865,130.725 34.928,131.18 34.928,131.532 C35.045,131.312 35.224,131.052 35.465,130.755 L36.002,130.089 C35.7888045,130.108822 35.577808,130.032995 35.426,129.882 C35.2050215,129.682688 35.0810454,129.397543 35.086,129.1 C35.086,128.717 35.248,128.419 35.572,128.207 C35.758,128.087 35.969,128.027 36.204,128.027 L36.277,128.027 C36.431,128.049 36.585,128.071 36.737,128.091 C36.863,128.131 36.987,128.245 37.11,128.434 C37.256,128.669 37.33,128.917 37.33,129.178 C37.33,129.387 37.196,129.688 36.93,130.08 C36.690617,130.396711 36.4472644,130.710403 36.2,131.021 C36.12,131.121 36.022,131.255 35.907,131.421 L35.577,131.893 C35.442,132.083 35.321,132.284 35.215,132.499 L33.987,132.499 C33.987,132.473 33.988,132.433 33.991,132.377 C33.994,132.321 33.995,132.279 33.995,132.25 C33.9911551,131.826908 33.9553868,131.404709 33.888,130.987 C33.7488174,130.395287 33.6168077,129.801911 33.492,129.207 C33.452,129.019 33.432,128.802 33.432,128.559 C33.432,128.227 33.501,127.896 33.639,127.566 C33.787,127.214 33.987,126.943 34.236,126.754 C34.614,126.471 34.968,126.304 35.297,126.256 C35.369,126.244 35.511,126.333 35.725,126.522 C35.938,126.712 36.109,126.806 36.238,126.806 C36.378,126.806 36.56,126.714 36.784,126.531 C37.007,126.348 37.149,126.256 37.209,126.256 C37.379,126.256 37.566,126.305 37.772,126.402 C37.958,126.496 38.124,126.627 38.271,126.793 C38.5,127.053 38.659,127.303 38.748,127.541 C38.842,127.796 38.889,128.076 38.889,128.383 L38.889,132.499 L37.871,132.499 Z M35.723,129.113 C35.723,129.243 35.771,129.353 35.869,129.444 C35.966,129.536 36.078,129.582 36.204,129.582 C36.330088,129.584026 36.4516362,129.534974 36.541,129.446 C36.6325415,129.359712 36.683385,129.238777 36.681,129.113 C36.681,128.803 36.521,128.649 36.204,128.649 C36.0777766,128.647825 35.9562337,128.69673 35.866,128.785 C35.7733835,128.868682 35.721281,128.98819 35.723,129.113 Z M36.908,124.395 C36.863,124.404 36.798,124.408 36.715,124.408 C36.383,124.408 36.136,124.301 35.976,124.086 C35.8671861,123.936617 35.8125158,123.754618 35.821,123.57 C35.821,123.135 36.036,122.851 36.466,122.72 C36.575,122.685 36.685,122.668 36.796,122.668 C37.146,122.668 37.408,122.8 37.583,123.063 C37.738,123.29 37.815,123.514 37.815,123.738 C37.815,123.841 37.801,123.944 37.772,124.048 C37.703,124.294 37.587,124.487 37.424,124.628 C37.868,124.518 38.199,124.334 38.417,124.073 C38.723,123.709 38.877,123.325 38.877,122.921 L39.852,122.921 C39.852,123.581 39.525,124.151 38.872,124.631 C38.185,125.151 37.311,125.409 36.251,125.409 L36.251,124.959 C36.397,124.959 36.555,124.894 36.724,124.765 C36.847,124.642 36.908,124.518 36.908,124.395 Z M36.724,123.154 C36.454,123.154 36.32,123.291 36.32,123.566 C36.357,123.838 36.507,123.974 36.77,123.974 C37.02,123.974 37.145,123.831 37.145,123.544 C37.145,123.284 37.005,123.154 36.724,123.154 Z M41.347,128.374 C41.227,128.391 41.122,128.4 41.033,128.4 C40.741,128.4 40.491,128.298 40.283,128.095 C40.080494,127.902701 39.9680216,127.634218 39.973,127.355 C39.973,127.124 40.048,126.902 40.2,126.69 C40.36,126.464 40.554,126.336 40.78,126.307 C40.958,126.287 41.08,126.277 41.145,126.277 C41.535,126.277 41.841,126.402 42.065,126.651 C42.274,126.889 42.378,127.187 42.378,127.545 L42.378,131.245 C42.524,130.984 42.735,130.775 43.01,130.617 C43.25,130.485 43.455,130.394 43.624,130.342 C43.754,130.311 43.934,130.265 44.166,130.205 C44.452,130.13 44.596,130.013 44.596,129.852 L44.596,126.355 L45.64,126.355 L45.64,129.968 C45.6490113,130.124312 45.5646125,130.271127 45.425,130.342 C45.345,130.385 45.231,130.431 45.085,130.48 C45.28,130.534 45.445,130.633 45.58,130.776 C45.777,130.991 45.876,131.214 45.876,131.446 C45.876,131.762 45.787,132.021 45.61,132.224 C45.4180299,132.438852 45.1494873,132.569892 44.862,132.589 C44.467,132.589 44.166,132.468 43.96,132.224 C43.811015,132.045965 43.7181066,131.827787 43.693,131.597 C43.693,131.227 43.745,131.018 43.848,130.97 C43.558,130.97 43.248,131.156 42.915,131.528 C42.692,131.778 42.513,132.101 42.378,132.499 L41.348,132.499 L41.348,128.374 L41.347,128.374 Z M40.574,127.356 C40.574,127.476 40.62,127.584 40.714,127.678 C40.806,127.773 40.914,127.82 41.034,127.82 C41.1602488,127.820819 41.2815857,127.771132 41.371,127.682 C41.463143,127.598732 41.5155043,127.480192 41.515,127.356 C41.5178726,127.228087 41.4671088,127.104803 41.375,127.016 C41.2845256,126.925495 41.1609362,126.875987 41.033,126.879 C40.909316,126.878168 40.7912633,126.930636 40.709,127.023 C40.6217637,127.111799 40.5732276,127.231522 40.574,127.356 Z M44.798,131.043 C44.471,131.043 44.308,131.21 44.308,131.545 C44.308,131.849 44.467,132.001 44.785,132.001 C44.9102102,132.003466 45.0313281,131.956385 45.122,131.87 C45.2134731,131.787012 45.2645321,131.668482 45.262,131.545 C45.262,131.21 45.107,131.043 44.798,131.043 Z" id="Shape" fill="#2A3052" fill-rule="nonzero"></path>
        </g>
    </g>
</svg>