<?xml version="1.0" encoding="UTF-8"?>
<svg width="299px" height="197px" viewBox="0 0 299 197" version="1.1" xmlns="http://www.w3.org/2000/svg" xmlns:xlink="http://www.w3.org/1999/xlink">
    <!-- Generator: Sketch 52.6 (67491) - http://www.bohemiancoding.com/sketch -->
    <title>higher</title>
    <desc>Created with Sketch.</desc>
    <g id="Page-1" stroke="none" stroke-width="1" fill="none" fill-rule="evenodd">
        <g id="higher">
            <g id="higher-">
                <polygon id="Path" fill="#F1F2F2" points="0 0 299 0 299 197 0 197"></polygon>
                <path d="M1.98671096,1.9798995 L1.98671096,195.020101 L297.013289,195.020101 L297.013289,1.9798995 L1.98671096,1.9798995 Z M299,0 L299,197 L0,197 L0,0 L299,0 Z" id="Path" fill="#C2C2C2" fill-rule="nonzero"></path>
                <g id="content" transform="translate(0.000000, 32.000000)">
                    <path d="M1.74920034,22.055088 L1.74920034,20.8401224 L295.237332,20.8401224 L295.237332,22.055088 L1.74920034,22.055088 Z M1.74920034,44.5851316 L1.74920034,43.370166 L295.237332,43.370166 L295.237332,44.5851316 L1.74920034,44.5851316 Z M1.74920034,63.3601679 L1.74920034,62.1452023 L295.237332,62.1452023 L295.237332,63.3601679 L1.74920034,63.3601679 Z M1.74920034,104.665248 L1.74920034,103.450282 L295.237332,103.450282 L295.237332,104.665248 L1.74920034,104.665248 Z M1.74920034,123.440284 L1.74920034,122.225318 L295.237332,122.225318 L295.237332,123.440284 L1.74920034,123.440284 Z M1.74920034,145.970328 L1.74920034,144.755362 L295.237332,144.755362 L295.237332,145.970328 L1.74920034,145.970328 Z M36.8870669,0.79506531 L38.1020325,0.79506531 L38.1020325,162.260377 L36.8870669,162.260377 L36.8870669,0.79506531 Z M74.5137504,0.79506531 L75.728716,0.79506531 L75.728716,162.260377 L74.5137504,162.260377 L74.5137504,0.79506531 Z M112.140434,0.79506531 L113.3554,0.79506531 L113.3554,162.260377 L112.140434,162.260377 L112.140434,0.79506531 Z M146.004449,0.79506531 L147.219415,0.79506531 L147.219415,162.260377 L146.004449,162.260377 L146.004449,0.79506531 Z M183.631132,0.79506531 L184.846098,0.79506531 L184.846098,162.260377 L183.631132,162.260377 L183.631132,0.79506531 Z M221.257816,0.79506531 L222.472782,0.79506531 L222.472782,162.260377 L221.257816,162.260377 L221.257816,0.79506531 Z M258.884499,0.79506531 L260.099465,0.79506531 L260.099465,162.260377 L258.884499,162.260377 L258.884499,0.79506531 Z" id="Shape" fill="#DFDEDE" fill-rule="nonzero"></path>
                    <polygon id="Path" fill="#2A3052" fill-rule="nonzero" points="2.90644108 84.8198292 2.90644108 83.6048636 294.513238 83.6048636 294.513238 84.8198292"></polygon>
                    <polygon id="Path" fill="#C2C2C2" fill-rule="nonzero" points="0.799346801 2.77979041 0.799346801 0.349482925 294.362731 0.349482925 294.362731 2.77979041"></polygon>
                    <path d="M69.8331577,69.9227061 L39.7297268,125.818414 C39.2524205,126.704671 38.1470342,127.036191 37.2607773,126.558885 C36.3745205,126.081579 36.0430005,124.976192 36.5203068,124.089936 L67.8257075,65.9624233 C68.4164344,64.8655684 69.9089383,64.6714201 70.7606203,65.5806434 L101.146835,98.0198075 L145.211513,42.3765347 C145.964194,41.4260774 147.417767,41.4617155 148.122965,42.4479164 L191.533154,103.155915 L223.466424,20.2478218 C223.884498,19.1623808 225.198559,18.7409823 226.169914,19.3808559 L260.485449,41.9859996 C261.326064,42.5397495 261.558614,43.6701055 261.004864,44.5107205 C260.451114,45.3513355 259.320758,45.5838857 258.480143,45.0301358 L226.054628,23.6700308 L193.718989,107.622792 C193.197429,108.976913 191.379598,109.208208 190.535559,108.027841 L146.566093,46.5377088 L102.691451,101.941011 C101.999949,102.814214 100.693856,102.86841 99.9323892,102.055497 L69.8331577,69.9227061 Z" id="Path" fill="#2A3052" fill-rule="nonzero"></path>
                    <path d="M187.239564,115.191156 L152.058614,115.191156 L146.640372,106.96769 L141.22213,115.191156 L106.041181,115.191156 C103.407313,115.191156 101.300218,117.33151 101.300218,119.997566 L101.300218,144.818164 C101.300218,147.484219 103.444939,149.624573 106.041181,149.624573 L187.27719,149.624573 C189.911058,149.624573 192.018152,147.484219 192.018152,144.818164 L192.018152,119.997566 C192.018152,117.33151 189.873431,115.191156 187.239564,115.191156 Z" id="Path" fill="#E88024"></path>
                    <g id="Group" opacity="0.6" transform="translate(251.092045, 34.829995)" fill="#FFFFFF">
                        <ellipse id="Oval" cx="8.39075042" cy="8.6780726" rx="8.16499032" ry="8.4863164"></ellipse>
                    </g>
                    <path d="M259.482796,53.2095378 C254.291567,53.2095378 250.102652,48.8557715 250.102652,43.5080677 C250.102652,38.1603639 254.291567,33.8065976 259.482796,33.8065976 C264.674025,33.8065976 268.86294,38.1603639 268.86294,43.5080677 C268.86294,48.8557715 264.674025,53.2095378 259.482796,53.2095378 Z M259.482796,50.7792304 C263.310366,50.7792304 266.432633,47.5340901 266.432633,43.5080677 C266.432633,39.4820453 263.310366,36.236905 259.482796,36.236905 C255.655226,36.236905 252.532959,39.4820453 252.532959,43.5080677 C252.532959,47.5340901 255.655226,50.7792304 259.482796,50.7792304 Z" id="Oval" fill="#E88024" fill-rule="nonzero"></path>
                    <g id="Group" opacity="0.6" transform="translate(29.094613, 116.440155)" fill="#FFFFFF">
                        <ellipse id="Oval" cx="9.03040404" cy="8.5140203" rx="8.16499032" ry="8.4863164"></ellipse>
                    </g>
                    <path d="M38.1250168,134.655645 C32.9337879,134.655645 28.7448727,130.301879 28.7448727,124.954175 C28.7448727,119.606471 32.9337879,115.252705 38.1250168,115.252705 C43.3162457,115.252705 47.5051609,119.606471 47.5051609,124.954175 C47.5051609,130.301879 43.3162457,134.655645 38.1250168,134.655645 Z M38.1250168,132.225338 C41.9525872,132.225338 45.0748534,128.980197 45.0748534,124.954175 C45.0748534,120.928153 41.9525872,117.683012 38.1250168,117.683012 C34.2974464,117.683012 31.1751802,120.928153 31.1751802,124.954175 C31.1751802,128.980197 34.2974464,132.225338 38.1250168,132.225338 Z" id="Oval" fill="#E88024" fill-rule="nonzero"></path>
                </g>
            </g>
            <g id="Group" transform="translate(20.000000, 168.000000)" fill="#2A3052" fill-rule="nonzero">
                <path d="M2.305,8.749 C2.295,11.349 2.295,13.366 2.305,14.799 C3.457,14.519 4.267,15.583 4.267,16.209 C4.267,16.836 4.019,17.822 2.764,17.924 C1.509,18.027 0.814,17.173 0.814,16.126 L0.814,8.749 L2.305,8.749 Z M2.745,15.667 C2.55986539,15.6590726 2.37955345,15.727266 2.24599817,15.8557209 C2.11244288,15.9841758 2.03728373,16.1616971 2.038,16.347 C2.038,16.655 2.195,17.027 2.745,17.027 C3.295,17.027 3.435,16.627 3.435,16.311 C3.435,15.994 3.227,15.667 2.745,15.667 Z M11.223,8.747 C11.581,8.943 11.938,9.116 12.293,9.266 C11.988,9.916 11.443,10.241 10.655,10.241 C9.474,10.241 8.99,9.638 7.868,9.711 C6.746,9.785 6.625,10.411 6.418,10.737 C7.311,10.82 7.968,10.891 8.39,10.949 C9.024,11.037 10.857,11.496 11.116,12.465 C11.34,13.24 11.223,15.399 11.223,16.183 C11.223,16.966 10.693,17.911 9.28,17.911 C7.868,17.911 7.715,16.705 7.715,16.287 C7.715,15.868 8.165,14.407 9.695,14.842 C9.709,13.875 9.712,13.29 9.705,13.086 C9.695,12.78 9.673,12.233 8.695,11.982 C7.715,11.732 6.022,11.505 4.924,11.633 C5.009,10.621 5.298,9.528 6.418,8.968 C7.538,8.408 8.979,8.896 9.705,9.081 C10.431,9.266 10.784,9.081 11.223,8.747 Z M9.214,15.649 C8.808,15.649 8.548,16.075 8.548,16.341 C8.548,16.606 8.824,17.032 9.214,17.032 C9.604,17.032 9.954,16.796 9.954,16.322 C9.954,15.848 9.62,15.649 9.214,15.649 Z M3.962,7.254 C4.288,5.888 4.863,4.422 7.415,4.354 C9.967,4.288 11.011,6.235 11.307,7.332 C9.443,6.792 5.03,6.946 3.962,7.254 Z M5.582,6.289 C6.629,6.177 8.698,6.177 9.694,6.443 C9.346,5.736 8.422,5.043 7.374,5.11 C6.326,5.178 5.889,5.545 5.581,6.289 L5.582,6.289 Z M9.796,0.736 L11.146,0.736 L11.146,3.319 L9.796,3.319 L9.796,0.736 Z M19.781,8.773 L21.283,8.773 L21.283,16.256 C21.283,16.986 20.942,17.55 20.543,17.712 C20.309,17.807 20.119,17.942 19.781,17.82 C18.913,17.504 18.813,15.493 16.563,14.967 C16.553,15.337 16.546,15.962 16.54,16.842 C16.321,17.968 15.202,18.056 14.278,17.82 C13.355,17.583 12.728,16.366 13.111,15.226 C13.498,14.079 14.114,13.866 15.001,13.763 C15.034,13.05 15.043,12.371 15.027,11.727 C13.597,11.963 12.921,10.943 13.027,10.057 C13.133,9.17 13.779,8.655 14.761,8.654 C15.743,8.654 16.563,9.447 16.541,10.313 C16.518,11.179 16.525,12.439 16.563,13.851 C17.376,13.991 17.915,14.256 18.59,14.851 C18.781,15.019 19.12,15.369 19.639,15.826 C19.739,15.686 19.781,15.426 19.781,14.716 L19.781,8.773 Z M14.563,9.534 C14.218,9.534 13.901,9.689 13.901,10.233 C13.901,10.776 14.249,10.931 14.563,10.931 C14.877,10.931 15.3,10.713 15.3,10.241 C15.3,9.767 14.907,9.534 14.563,9.534 Z M15.037,14.907 C14.952,14.809 14.678,14.805 14.425,15.007 C14.172,15.208 13.959,15.792 14.205,16.507 C14.45,17.223 15.037,16.847 15.037,16.507 L15.037,14.907 Z M30.039,17.798 L30.039,12.544 C30.039,10.192 29.287,9.954 29.031,9.954 C28.774,9.954 28.038,10.504 27.505,10.504 C26.971,10.504 26.8,10.249 26.097,9.954 C24.922,10.35 24.889,12.482 25.13,13.036 C25.29,13.406 25.477,14.53 25.688,16.407 C25.751,16.227 26.278,15.502 27.271,14.234 C26.386,14.347 25.917,13.314 25.917,12.664 C25.917,12.015 26.897,10.711 28.314,11.33 C29.732,11.948 29.2,13.755 28.65,14.234 C28.283,14.553 27.432,15.744 26.097,17.807 L24.332,17.797 C24.361,17.261 24.361,16.625 24.099,15.341 C23.926,14.492 23.505,13.235 23.505,12.161 C23.505,9.462 25.713,8.617 26.245,8.617 C26.788,8.827 27.192,9.431 27.612,9.431 C28.032,9.431 28.258,9.039 29.031,8.617 C30.771,8.617 31.504,10.831 31.504,11.51 L31.504,17.798 L30.04,17.798 L30.039,17.798 Z M27.557,12.138 C27.177,12.138 26.875,12.495 26.875,12.82 C26.875,13.144 27.093,13.492 27.557,13.492 C28.021,13.492 28.273,13.168 28.273,12.769 C28.273,12.37 27.937,12.137 27.557,12.137 L27.557,12.138 Z M31.51,3.728 C32.286,3.732 32.688,3.728 32.91,3.728 C32.917,4.422 32.693,5.251 31.51,6.236 C30.47,7.1 28.649,7.448 27.67,7.382 L27.659,6.721 C28.174,6.664 28.493,6.394 28.616,5.911 C27.764,5.978 26.999,5.588 26.999,4.658 C26.999,3.728 27.595,3.428 28.389,3.36 C29.184,3.292 29.689,3.997 29.864,4.509 C30.039,5.021 29.864,5.686 29.361,6.236 C30.639,5.974 31.509,4.658 31.509,3.728 L31.51,3.728 Z M28.307,4.076 C28.1524789,4.07599633 28.0043442,4.13765207 27.8954573,4.24728983 C27.7865705,4.35692759 27.7259343,4.50548255 27.727,4.66 C27.727,4.95 28.004,5.274 28.307,5.274 C28.61,5.274 28.957,5.126 28.957,4.66 C28.957,4.195 28.663,4.076 28.307,4.076 Z M39.345,8.77 L40.772,8.77 L40.772,14.153 C40.772,14.512 40.24,14.73 40.003,14.829 C40.803,15.2 41.078,15.67 41.078,16.382 C41.078,17.094 40.418,17.93 39.544,17.93 C38.67,17.93 38.254,17.218 38.139,16.692 C38.023,16.165 38.168,15.661 38.321,15.545 C37.389,15.66 36.511,16.98 36.332,17.775 L34.962,17.787 L34.962,11.706 C33.72,11.771 33.098,11.294 33.098,10.276 C33.098,8.748 34.438,8.677 34.791,8.677 C35.144,8.677 36.1,8.895 36.332,10.063 C36.382,11.339 36.332,15.628 36.332,15.942 C36.674,15.44 37.261,14.79 37.99,14.628 C38.72,14.466 39.146,14.375 39.345,13.975 C39.356,13.159 39.356,11.424 39.345,8.77 Z M39.541,15.655 C39.245,15.655 38.904,15.952 38.904,16.359 C38.904,16.766 39.246,17.064 39.541,17.064 C39.7361562,17.0620346 39.9221289,16.9808194 40.056212,16.8390043 C40.1902952,16.6971892 40.2609674,16.50696 40.252,16.312 C40.252,15.783 39.837,15.655 39.541,15.655 Z M34.463,9.548 C34.071,9.548 33.923,9.88 33.923,10.236 C33.923,10.592 34.208,10.924 34.553,10.924 C34.897,10.924 35.201,10.573 35.201,10.178 C35.201,9.783 34.855,9.548 34.463,9.548 Z" id="Shape"></path>
            </g>
            <g id="Group" transform="translate(247.000000, 88.000000)" fill="#2A3052" fill-rule="nonzero">
                <path d="M0.437,6.351 C0.704,5.232 1.175,4.03 3.267,3.975 C5.359,3.92 6.214,5.517 6.457,6.415 C4.93,5.973 1.312,6.099 0.437,6.351 Z M1.764,5.561 C2.623,5.469 4.319,5.469 5.134,5.687 C4.85,5.107 4.093,4.539 3.234,4.594 C2.374,4.65 2.017,4.95 1.764,5.56 L1.764,5.561 Z M29.462,15.186 L29.462,10.978 C29.462,9.05 29.132,8.584 27.194,8.584 C25.256,8.584 25.241,10.828 25.439,11.283 C25.571,11.586 25.723,12.507 25.897,14.046 C25.947,13.897 26.38,13.303 27.194,12.264 C26.468,12.357 26.084,11.51 26.084,10.978 C26.084,10.446 26.887,9.377 28.049,9.884 C29.212,10.391 28.775,11.872 28.324,12.264 C28.024,12.526 27.326,13.502 26.232,15.194 L24.785,15.186 C24.809,14.746 24.809,14.225 24.594,13.172 C24.452,12.476 23.994,11.436 24.107,10.565 C24.377,8.49 25.439,7.916 27.385,7.812 C29.332,7.707 30.664,8.718 30.664,10.032 L30.664,15.186 L29.462,15.186 Z M27.429,10.546 C27.117,10.546 26.869,10.839 26.869,11.106 C26.869,11.371 27.049,11.656 27.429,11.656 C27.809,11.656 28.015,11.391 28.015,11.064 C28.015,10.737 27.74,10.546 27.429,10.546 Z M7.213,0.975 C7.738,0.977 8.009,0.975 8.159,0.975 C8.164,1.443 8.012,2.003 7.213,2.668 C6.512,3.252 5.282,3.487 4.621,3.442 L4.613,2.996 C4.961,2.956 5.177,2.775 5.26,2.449 C4.684,2.494 4.168,2.231 4.168,1.603 C4.168,0.975 4.57,0.772 5.107,0.726 C5.643,0.68 5.984,1.156 6.102,1.502 C6.22,1.848 6.102,2.297 5.762,2.668 C6.626,2.491 7.213,1.603 7.213,0.975 Z M5.051,1.21 C4.94677847,1.20999693 4.84686873,1.25160302 4.77345516,1.32557987 C4.70004158,1.39955672 4.65920035,1.49978154 4.66,1.604 C4.66,1.8 4.847,2.018 5.051,2.018 C5.255,2.018 5.491,1.918 5.491,1.604 C5.491,1.29 5.291,1.21 5.051,1.21 Z M13.065,7.86 L14.234,7.86 L14.234,12.271 C14.234,12.566 13.798,12.744 13.604,12.826 C14.26,13.13 14.485,13.516 14.485,14.099 C14.485,14.683 13.945,15.368 13.228,15.368 C12.511,15.368 12.17,14.784 12.076,14.353 C11.981,13.921 12.099,13.508 12.225,13.413 C11.461,13.507 10.741,14.589 10.595,15.24 L9.472,15.25 L9.472,10.266 C8.454,10.319 7.944,9.929 7.944,9.094 C7.944,7.841 9.042,7.784 9.331,7.784 C9.621,7.784 10.404,7.962 10.595,8.919 C10.636,9.965 10.595,13.481 10.595,13.739 C10.875,13.327 11.356,12.794 11.954,12.661 C12.552,12.528 12.901,12.454 13.064,12.126 C13.074,11.456 13.074,10.035 13.064,7.86 L13.065,7.86 Z M13.225,13.503 C12.982,13.503 12.703,13.747 12.703,14.08 C12.703,14.414 12.983,14.658 13.225,14.658 C13.3848701,14.6562589 13.537189,14.5897115 13.6470878,14.473592 C13.7569866,14.3574725 13.815055,14.2017239 13.808,14.042 C13.808,13.608 13.468,13.502 13.225,13.502 L13.225,13.503 Z M9.063,8.497 C8.742,8.497 8.621,8.769 8.621,9.061 C8.621,9.353 8.854,9.625 9.136,9.625 C9.418,9.625 9.668,9.337 9.668,9.013 C9.668,8.69 9.385,8.497 9.063,8.497 Z M21.032,8.071 C21.258,7.896 21.654,7.601 21.654,7.046 C22.213,7.176 22.644,7.28 22.944,7.359 C22.944,7.81 22.552,8.382 21.807,8.608 C22.008,8.824 22.117,9.036 22.184,9.182 C22.437,9.654 22.505,11.672 22.39,15.238 L21.21,15.238 C21.216,14.763 21.216,14.383 21.21,14.098 C20.706,12.005 19.52,10.373 18.578,10.796 C17.636,11.219 17.988,12.37 17.988,12.816 C18.578,12.651 19.62,12.816 19.728,13.959 C19.836,15.102 18.686,15.458 18.113,15.346 C17.54,15.233 16.928,14.941 16.755,13.888 C16.581,12.834 16.538,10.196 18.355,9.958 C20.171,9.719 20.848,11.481 21.21,11.91 C21.32,9.56 21.13,8.358 19.147,8.547 C17.165,8.737 17.017,9.467 16.879,9.768 C16.6492802,9.58573434 16.4152126,9.40901664 16.177,9.238 C16.815,8.255 17.851,7.763 19.284,7.763 C20.052,7.763 20.615,7.889 21.032,8.071 Z M18.432,13.503 C18.09,13.503 17.917,13.79 17.917,14.048 C17.917,14.306 18.117,14.593 18.433,14.593 C18.748,14.593 18.957,14.213 18.957,13.996 C18.947754,13.7154725 18.7135698,13.4951427 18.433,13.503 L18.432,13.503 Z M4.919,7.9 C5.144,7.724 5.54,7.429 5.54,6.874 C6.099,7.004 6.53,7.108 6.83,7.187 C6.83,7.638 6.438,8.21 5.693,8.436 C5.894,8.652 6.003,8.864 6.07,9.01 C6.323,9.482 6.392,11.5 6.276,15.066 L5.096,15.066 C5.102,14.591 5.102,14.211 5.096,13.926 C4.592,11.833 3.406,10.201 2.464,10.624 C1.522,11.047 1.874,12.198 1.874,12.644 C2.464,12.479 3.506,12.644 3.614,13.787 C3.722,14.93 2.572,15.286 1.999,15.174 C1.426,15.061 0.814,14.769 0.641,13.716 C0.468,12.662 0.424,10.024 2.241,9.786 C4.057,9.547 4.734,11.309 5.097,11.738 C5.205,9.388 5.015,8.186 3.033,8.376 C1.051,8.566 0.903,9.295 0.765,9.596 C0.535280225,9.41373434 0.301212629,9.23701664 0.063,9.066 C0.701,8.083 1.737,7.591 3.171,7.591 C3.938,7.591 4.501,7.717 4.919,7.899 L4.919,7.9 Z M2.319,13.33 C1.976,13.33 1.803,13.618 1.803,13.876 C1.803,14.134 2.003,14.421 2.319,14.421 C2.635,14.421 2.843,14.041 2.843,13.824 C2.833754,13.5434725 2.59956984,13.3231427 2.319,13.331 L2.319,13.33 Z M21.398,18.912 C21.3951095,18.652008 21.3951095,18.391992 21.398,18.132 C20.441,18.242 20.013,17.631 20.013,17.038 C20.013,16.446 20.374,16.043 21.196,15.968 C22.018,15.894 22.467,16.577 22.527,17.038 C22.567,17.346 22.587,17.971 22.587,18.912 L21.398,18.912 Z M21.166,16.557 C20.94,16.557 20.746,16.557 20.692,17.086 C20.637,17.615 21.01,17.642 21.252,17.642 C21.493,17.642 21.769,17.507 21.769,17.086 C21.769,16.665 21.393,16.556 21.166,16.556 L21.166,16.557 Z" id="Shape"></path>
            </g>
            <g id="Group" transform="translate(240.000000, 122.000000)" fill="#6D6E71" fill-rule="nonzero">
                <path d="M41.134,4.284 L42.177,4.284 C42.226,6.535 42.226,7.988 42.177,8.642 C42.105,9.624 42.427,10.56 40.681,10.56 L37.071,10.56 L37.071,9.727 L37.472,9.727 C37.566,9.009 37.14,7.617 38.418,7.265 C36.853,7.351 36.443,4.96 38.002,4.351 C39.562,3.742 40.276,4.662 40.276,5.239 C40.276,5.786 39.981,6.362 39.178,6.362 C38.762,6.362 38.074,6.168 38.188,5.169 C37.628,5.567 37.793,6.292 38.371,6.672 C38.579,6.808 39.154,6.887 40.096,6.907 L40.096,7.584 C39.07,7.517 38.558,7.822 38.558,8.5 L38.558,9.727 L40.681,9.727 C41.134,9.727 41.134,9.477 41.134,8.808 L41.134,4.284 Z M39.174,4.839 C38.98,4.839 38.702,5.061 38.702,5.32 C38.702,5.579 38.9,5.801 39.173,5.801 C39.446,5.801 39.679,5.607 39.679,5.265 C39.679,4.923 39.366,4.839 39.173,4.839 L39.174,4.839 Z M34.358,10.528 L35.366,10.528 L35.366,5.825 C35.366,5.076 34.444,4.048 32.786,4.157 C31.681,4.23 30.961,4.733 30.629,5.665 C30.819,5.777 31.023,5.902 31.239,6.041 C31.545,5.257 32.073,4.858 32.822,4.844 C33.945,4.824 34.358,5.414 34.358,6.041 L34.358,10.528 Z M14.282,10.524 L15.555,10.524 L15.555,5.82 C15.555,5.071 14.633,4.043 12.975,4.152 C11.869,4.225 11.121,4.781 10.728,5.82 C11.077,6.017 11.359,6.185 11.576,6.324 C11.759,5.544 12.226,5.148 12.975,5.135 C14.098,5.115 14.282,5.661 14.282,6.036 L14.282,10.524 Z M28.613,4.266 L29.663,4.266 L29.663,9.509 C29.663,10.016 29.409,10.557 28.613,10.557 C27.894,10.146 27.923,8.824 26.371,8.582 C26.33,9.114 26.309,9.576 26.309,9.968 C26.309,10.557 24.823,11.248 24.096,9.968 C23.37,8.688 24.58,7.708 25.287,7.708 C25.299,6.948 25.306,6.498 25.306,6.358 C24.868,6.36 24.006,6.282 23.939,5.396 C23.873,4.511 24.606,4.181 25.062,4.181 C25.518,4.181 26.252,4.511 26.309,5.151 C26.367,5.793 26.367,7.075 26.371,7.831 C27.035,7.797 28.276,8.878 28.444,9.13 C28.68,9.17 28.613,8.625 28.613,8.167 L28.613,4.266 Z M24.953,4.808 C24.711,4.808 24.53,4.978 24.53,5.29 C24.53,5.602 24.746,5.772 25.01,5.772 C25.275,5.772 25.49,5.649 25.49,5.294 C25.49,4.938 25.195,4.808 24.953,4.808 Z M25.319,8.541 C24.814,8.431 24.629,8.965 24.696,9.529 C24.763,10.093 25.319,9.922 25.319,9.703 L25.319,8.541 Z M22.65,10.524 L21.594,10.511 L21.588,6.996 C21.494,6.329 21.039,6.501 20.448,7.231 C19.855,7.961 19.344,8.996 19.168,10.518 L18.122,10.518 L18.109,6.333 C17.084,6.481 16.689,5.628 16.689,5.352 C16.689,5.076 16.771,4.357 17.744,4.214 C18.717,4.07 19.146,5.089 19.134,5.418 C19.128,5.638 19.139,6.429 19.168,7.793 C19.402,7.114 20.421,6.068 20.918,5.991 C20.71,5.913 20.594,5.428 20.594,5.151 C20.594,4.875 20.998,4.158 21.682,4.158 C22.366,4.158 22.885,4.702 22.885,5.205 C22.885,5.708 22.655,6.057 22.213,6.265 C22.475,6.372 22.649,6.671 22.649,6.996 L22.649,10.524 L22.65,10.524 Z M21.752,4.79 C21.499,4.79 21.242,5.042 21.242,5.29 C21.242,5.537 21.519,5.788 21.752,5.788 C21.985,5.788 22.24,5.628 22.24,5.263 C22.24,4.898 22.005,4.79 21.752,4.79 Z M17.76,4.811 C17.544,4.811 17.315,5.062 17.315,5.301 C17.315,5.538 17.508,5.781 17.76,5.781 C18.012,5.781 18.218,5.627 18.267,5.301 C18.315,4.973 17.977,4.811 17.76,4.811 Z M9.75,2.017 L9.75,8.902 C9.75,9.669 9.595,10.538 8.698,10.538 L4.466,10.538 L4.466,9.478 L5.011,9.478 L5.011,6.581 C4.1,6.519 3.644,6.134 3.644,5.426 C3.644,4.365 4.311,4.202 4.894,4.202 C5.477,4.202 6.294,4.575 6.294,5.426 L6.294,9.477 L8.098,9.477 C8.432,9.477 8.432,9.345 8.432,8.994 L8.432,2.017 L9.75,2.017 Z M4.84,4.895 C4.567,4.895 4.383,5.137 4.383,5.448 C4.383,5.76 4.641,5.902 4.84,5.902 C5.038,5.902 5.33,5.879 5.33,5.448 C5.33,5.018 5.112,4.895 4.84,4.895 Z M1.927,4.317 L1.927,8.254 C2.789,8.271 3.221,8.661 3.221,9.425 C3.221,10.572 2.058,10.645 1.927,10.645 C1.797,10.645 0.617,10.425 0.617,9.425 L0.617,4.317 L1.927,4.317 Z M2.054,8.937 C1.801,8.937 1.602,9.134 1.602,9.419 C1.602,9.704 1.829,9.901 2.054,9.901 C2.279,9.901 2.536,9.668 2.536,9.388 C2.536,9.108 2.308,8.937 2.054,8.937 Z" id="Shape"></path>
                <path d="M7.419,0.743 C7.957,0.746 8.236,0.743 8.389,0.743 C8.394,1.224 8.239,1.798 7.419,2.48 C6.699,3.08 5.438,3.32 4.759,3.274 L4.752,2.816 C5.109,2.776 5.33,2.59 5.415,2.256 C4.825,2.301 4.295,2.032 4.295,1.387 C4.295,0.743 4.707,0.535 5.258,0.488 C5.808,0.441 6.158,0.929 6.279,1.284 C6.4,1.639 6.279,2.1 5.931,2.48 C6.816,2.299 7.419,1.387 7.419,0.743 Z M5.201,0.984 C5.09377826,0.983727275 4.99091319,1.02640614 4.9153781,1.10250492 C4.839843,1.17860371 4.79793011,1.28178325 4.799,1.389 C4.799,1.589 4.991,1.814 5.201,1.814 C5.411,1.814 5.651,1.711 5.651,1.389 C5.651,1.066 5.447,0.984 5.201,0.984 Z" id="Shape"></path>
            </g>
            <g id="Group" transform="translate(168.000000, 158.000000)" fill="#FFFFFF" fill-rule="nonzero">
                <path d="M2.862,8.594 L0.73,8.594 L0.73,0.28 L2.862,0.28 L2.862,8.594 Z M2.862,12.968 L0.73,12.968 L0.73,10.734 L2.862,10.734 L2.862,12.968 Z" id="Shape"></path>
            </g>
            <path d="M136.593,157.708 L139.16,157.708 C139.028,159.39 137.993,160.446 136.056,160.876 C137.124,161.187 137.68,161.929 137.68,163.068 C137.68,164.87 137.67,167.019 137.68,168.782 C137.68,171.73 136.982,172.032 134.687,172.132 C133.157,172.2 130.758,172.2 127.49,172.132 L127.49,170.515 L128.984,170.515 L128.984,167.595 C129.136,165.975 131.884,163.917 131.884,161.904 C131.884,159.891 129.508,158.787 128.245,160.186 C129.305,160.246 130.193,161.179 130.271,162.523 C130.271,163.927 129.241,164.66 128.049,164.66 C126.856,164.66 125.569,163.854 125.569,162.207 C125.569,160.56 126.3,159.523 127.489,158.777 C128.679,158.032 132.739,157.612 133.661,160.877 C134.584,164.141 131.202,165.956 131.202,167.854 L131.202,170.515 L134.319,170.515 C135.234,170.515 135.484,169.768 135.484,168.383 C135.484,167.469 135.484,164.469 135.308,162.523 C135.222,161.573 134.398,161.286 134.111,161.286 C133.932,160.783 133.928,160.683 133.818,160.306 C135.476,160.154 136.401,159.288 136.593,157.708 Z M127.958,161.451 C127.473,161.451 127.064,161.842 127.064,162.471 C127.064,163.101 127.534,163.491 127.958,163.491 C128.383,163.491 129.014,163.146 129.014,162.446 C129.014,161.747 128.444,161.451 127.958,161.451 Z M150.112,158.428 L152.279,158.428 L152.279,166.605 C152.279,167.15 151.472,167.481 151.112,167.632 C152.328,168.196 152.744,168.91 152.744,169.992 C152.744,171.073 151.743,172.342 150.414,172.342 C149.086,172.342 148.454,171.262 148.279,170.462 C148.104,169.662 148.323,168.896 148.556,168.719 C147.14,168.894 145.806,170.899 145.536,172.106 L143.455,172.126 L143.455,162.888 C141.567,162.987 140.623,162.262 140.623,160.715 C140.623,158.395 142.657,158.287 143.193,158.287 C143.73,158.287 145.182,158.618 145.536,160.391 C145.612,162.331 145.536,168.846 145.536,169.323 C146.055,168.56 146.946,167.573 148.054,167.327 C149.162,167.08 149.81,166.942 150.112,166.334 C150.129,165.094 150.129,162.459 150.112,158.428 Z M150.409,168.886 C149.959,168.886 149.442,169.339 149.442,169.956 C149.442,170.575 149.962,171.026 150.409,171.026 C150.857,171.026 151.489,170.688 151.489,169.885 C151.489,169.082 150.859,168.886 150.409,168.886 Z M142.696,159.609 C142.101,159.609 141.876,160.114 141.876,160.655 C141.876,161.195 142.309,161.7 142.832,161.7 C143.354,161.7 143.817,161.167 143.817,160.566 C143.817,159.966 143.292,159.609 142.697,159.609 L142.696,159.609 Z M163.159,159.59 L165.063,159.9 C164.196,163.056 162.077,164.424 158.705,164.004 C153.647,163.374 155.513,158.933 157.463,159.107 C159.413,159.28 159.86,160.406 159.86,161.143 C159.86,161.881 159.786,162.156 158.895,162.82 C161.395,163.196 162.816,162.119 163.159,159.59 Z M157.571,160.191 C157.036,160.191 156.618,160.71 156.618,161.225 C156.618,161.741 157.088,162.26 157.571,162.26 C158.054,162.26 158.665,161.905 158.665,161.2 C158.665,160.494 158.106,160.191 157.571,160.191 Z M163.159,166.84 L165.063,167.151 C164.196,170.307 162.077,171.675 158.705,171.255 C153.647,170.625 155.513,166.185 157.463,166.358 C159.413,166.532 159.86,167.657 159.86,168.395 C159.86,169.132 159.786,169.407 158.895,170.071 C161.395,170.447 162.816,169.371 163.159,166.841 L163.159,166.84 Z M157.571,167.442 C157.036,167.442 156.618,167.962 156.618,168.477 C156.618,168.992 157.088,169.511 157.571,169.511 C158.054,169.511 158.665,169.156 158.665,168.451 C158.665,167.745 158.106,167.442 157.571,167.442 Z" id="Shape" fill="#FFFFFF" fill-rule="nonzero"></path>
            <g id="Group" transform="translate(15.000000, 8.000000)" fill="#020202" fill-rule="nonzero">
                <path d="M9.17,8.158 C9.379,7.814 9.44,7.699 9.752,7.275 C10.56,7.368 12.668,9.442 13.308,10.27 L13.346,7.34 C12.145,7.215 11.544,6.707 11.544,5.817 C11.544,4.482 12.499,4.086 13.154,4.086 C13.811,4.086 15.124,4.456 15.124,5.817 L15.124,12.664 C14.629,12.654 13.929,12.654 13.024,12.664 C12.282,10.823 10.107,8.734 9.169,8.158 L9.17,8.158 Z M13.089,5.124 C12.846,5.124 12.533,5.398 12.533,5.724 C12.533,6.051 12.723,6.316 13.089,6.321 C13.455,6.325 13.725,6.316 13.725,5.724 C13.725,5.133 13.332,5.124 13.089,5.124 Z M1.903,6.699 C1.54765064,6.419922 1.18861912,6.14556459 0.826,5.876 C1.69,4.604 2.941,3.968 4.577,3.968 C5.349,3.968 5.941,4.08 6.396,4.248 C6.685,4.018 6.738,3.765 6.753,3.218 C7.167,3.312 7.903,3.512 8.613,3.695 C8.643,4.364 8.163,4.965 7.638,5.252 C8.471,6.175 8.123,11.078 8.123,12.501 C7.51840697,12.5143455 6.91359303,12.5143455 6.309,12.501 C6.315,11.877 6.315,11.403 6.309,11.078 C5.733,8.688 4.558,7.518 3.903,7.698 C3.249,7.878 3.24,8.938 3.24,9.446 C3.732,9.316 5.157,9.54 5.157,10.959 C5.157,12.377 3.895,12.752 3.24,12.624 C2.586,12.496 1.769,12.161 1.571,10.959 C1.374,9.756 1.228,6.692 3.301,6.42 C5.374,6.148 5.896,7.412 6.309,7.902 C6.309,6.772 6.555,5.192 4.474,5.32 C2.393,5.447 2.164,6.476 1.904,6.699 L1.903,6.699 Z M3.451,10.423 C3.061,10.423 2.862,10.751 2.862,11.045 C2.862,11.339 3.09,11.667 3.451,11.667 C3.811,11.667 4.049,11.233 4.049,10.985 C4.03812651,10.6650962 3.77096241,10.4140156 3.451,10.423 Z M19.32,12.626 L17.538,12.626 L17.538,8.458 C17.538,8.119 17.586,7.435 17.958,7.198 L16.799,7.069 L16.902,5.838 C17.214,5.648 17.492,5.423 17.737,5.165 C18.104,4.777 18.897,4.061 20.537,4.025 C22.177,3.99 24.037,4.589 24.146,6.664 L24.146,12.641 L22.385,12.626 L22.385,6.88 C22.385,6.091 21.932,5.318 20.652,5.354 C19.372,5.39 19.049,5.742 18.632,6.06 C18.927,6.11 19.527,6.205 20.43,6.346 C20.375,6.76 20.325,7.107 20.28,7.39 C19.652,7.356 19.334,7.646 19.329,8.258 C19.3216431,9.71398763 19.3189764,11.1699952 19.321,12.626 L19.32,12.626 Z M33.178,6.266 C33.792,6.619 34.181,6.857 34.346,6.982 C34.502,6.496 34.776,5.351 36.372,5.351 C37.968,5.351 37.98,6.621 37.98,7.011 L37.98,12.629 L39.761,12.629 C39.775,9.331 39.775,7.314 39.761,6.579 C39.708,5.491 38.906,3.993 36.443,4.019 C34.801,4.035 33.713,4.784 33.178,6.266 Z M25.51,6.282 C25.682,5.922 25.966,4.177 28.71,4.006 C31.452,3.836 32.09,5.931 32.09,6.609 C32.09,7.287 32.089,10.114 32.063,10.981 C32.037,11.849 31.299,12.726 30.33,12.726 C29.362,12.726 28.532,12.218 28.492,11.118 C28.452,10.018 29.526,9.404 30.302,9.529 C30.312,8.189 30.302,7.449 30.302,6.981 C30.302,6.511 30.445,5.379 28.709,5.379 C27.552,5.379 26.855,5.913 26.619,6.981 C26.2464346,6.75209888 25.876412,6.51908463 25.509,6.282 L25.51,6.282 Z M30.1,10.47 C29.864,10.47 29.468,10.728 29.468,11.109 C29.468,11.49 29.819,11.758 30.144,11.758 C30.468,11.758 30.755,11.584 30.755,11.109 C30.755,10.634 30.334,10.47 30.099,10.47 L30.1,10.47 Z M32.052,2.843 L30.536,2.843 L30.536,0.019 L32.052,0.019 L32.052,2.843 Z M6.57,15.675 L6.57,13.442 L8.107,13.442 L8.107,15.549 L8.482,15.549 L8.482,18.419 L6.998,18.419 L6.998,16.9 L4.392,16.9 L4.392,15.878 C3.549,15.775 3.016,15.301 3.042,14.581 C3.069,13.862 3.669,13.269 4.459,13.269 C5.249,13.269 5.993,13.741 5.993,14.581 L5.993,15.676 L6.569,15.676 L6.57,15.675 Z M4.445,14.068 C4.219,14.068 3.897,14.213 3.897,14.564 C3.897,14.914 4.223,15.15 4.504,15.15 C4.784,15.15 5.022,15.007 5.022,14.588 C5.022,14.17 4.672,14.068 4.445,14.068 Z" id="Shape"></path>
            </g>
        </g>
    </g>
</svg>