<?xml version="1.0" encoding="UTF-8"?>
<svg width="299px" height="197px" viewBox="0 0 299 197" version="1.1" xmlns="http://www.w3.org/2000/svg" xmlns:xlink="http://www.w3.org/1999/xlink">
    <!-- Generator: Sketch 52.6 (67491) - http://www.bohemiancoding.com/sketch -->
    <title>lower</title>
    <desc>Created with Sketch.</desc>
    <g id="Page-1" stroke="none" stroke-width="1" fill="none" fill-rule="evenodd">
        <g id="lower">
            <g id="Group">
                <polygon id="Path" fill="#F1F2F2" points="0 0 299 0 299 197 0 197"></polygon>
                <path d="M1.98671096,1.9798995 L1.98671096,195.020101 L297.013289,195.020101 L297.013289,1.9798995 L1.98671096,1.9798995 Z M299,0 L299,197 L0,197 L0,0 L299,0 Z" id="Path" fill="#C2C2C2" fill-rule="nonzero"></path>
                <g id="Group-3" transform="translate(0.000000, 31.000000)">
                    <path d="M2.92614576,22.1129772 L2.92614576,20.8897746 L296.509938,20.8897746 L296.509938,22.1129772 L2.92614576,22.1129772 Z M2.92614576,42.7107247 L2.92614576,41.4875221 L296.509938,41.4875221 L296.509938,42.7107247 L2.92614576,42.7107247 Z M2.92614576,63.2705389 L2.92614576,62.0473363 L296.509938,62.0473363 L296.509938,63.2705389 L2.92614576,63.2705389 Z M2.92614576,104.4281 L2.92614576,103.204898 L296.509938,103.204898 L296.509938,104.4281 L2.92614576,104.4281 Z M2.92614576,124.987914 L2.92614576,123.764712 L296.509938,123.764712 L296.509938,124.987914 L2.92614576,124.987914 Z M2.92614576,145.547729 L2.92614576,144.324527 L296.509938,144.324527 L296.509938,145.547729 L2.92614576,145.547729 Z M37.7718902,0.94156168 L38.9950928,0.94156168 L38.9950928,163.068215 L37.7718902,163.068215 L37.7718902,0.94156168 Z M74.9339161,0.94156168 L76.1571187,0.94156168 L76.1571187,163.068215 L74.9339161,163.068215 L74.9339161,0.94156168 Z M112.05806,0.94156168 L113.281262,0.94156168 L113.281262,163.068215 L112.05806,163.068215 L112.05806,0.94156168 Z M149.220086,0.94156168 L150.443288,0.94156168 L150.443288,163.068215 L149.220086,163.068215 L149.220086,0.94156168 Z M186.34423,0.94156168 L187.567432,0.94156168 L187.567432,163.068215 L186.34423,163.068215 L186.34423,0.94156168 Z M223.468374,0.94156168 L224.691576,0.94156168 L224.691576,163.068215 L223.468374,163.068215 L223.468374,0.94156168 Z M260.6304,0.94156168 L261.853602,0.94156168 L261.853602,163.068215 L260.6304,163.068215 L260.6304,0.94156168 Z" id="Shape" fill="#DFDEDE" fill-rule="nonzero"></path>
                    <polygon id="Path" fill="#2A3052" fill-rule="nonzero" points="2.92614576 85.8303531 2.92614576 84.6071505 296.509938 84.6071505 296.509938 85.8303531"></polygon>
                    <polygon id="Path" fill="#C2C2C2" fill-rule="nonzero" points="0.804766102 2.95109018 0.804766102 0.504306035 298.631318 0.504306035 298.631318 2.95109018"></polygon>
                    <path d="M112.36199,59.1384298 L76.4751351,103.144934 C75.6605692,104.143802 74.0970891,104.013686 73.4588403,102.893913 L36.7892776,38.5591439 C36.2874325,37.6786839 36.5943606,36.5581042 37.4748207,36.0562592 C38.3552807,35.5544141 39.4758604,35.8613422 39.9777054,36.7418023 L75.3221532,98.7517285 L110.906644,55.1159998 C111.629933,54.2290616 112.979771,54.2133764 113.723474,55.0832681 L156.669285,105.315926 L189.644357,63.5223167 C190.421799,62.5369628 191.936866,62.6054601 192.622221,63.6569482 L234.42558,127.792666 L261.020228,124.55477 C262.026239,124.432289 262.941062,125.14853 263.063544,126.15454 C263.186025,127.160551 262.469784,128.075374 261.463774,128.197856 L233.734312,131.573915 C233.039658,131.658489 232.357376,131.340608 231.975263,130.754361 L190.942868,67.8014757 L158.166759,109.342914 C157.450402,110.250846 156.082949,110.27776 155.331422,109.398717 L112.36199,59.1384298 Z" id="Path" fill="#2A3052" fill-rule="nonzero"></path>
                    <path d="M188.508984,116.513672 L153.08952,116.513672 L147.634544,108.206293 L142.179568,116.513672 L106.760104,116.513672 C104.108379,116.513672 101.987,118.675866 101.987,121.369126 L101.987,146.442996 C101.987,149.136255 104.146261,151.29845 106.760104,151.29845 L188.546866,151.29845 C191.198591,151.29845 193.31997,149.136255 193.31997,146.442996 L193.31997,121.369126 C193.31997,118.675866 191.160709,116.513672 188.508984,116.513672 Z" id="Path" fill="#E88024"></path>
                    <g id="Group" opacity="0.6" transform="translate(252.794364, 117.755007)" fill="#FFFFFF">
                        <ellipse id="Oval" cx="8.44763686" cy="8.6213062" rx="8.22034619" ry="8.57291147"></ellipse>
                    </g>
                    <path d="M261.242001,136.172617 C256.014608,136.172617 251.798263,131.775435 251.798263,126.376313 C251.798263,120.977191 256.014608,116.580009 261.242001,116.580009 C266.469394,116.580009 270.685739,120.977191 270.685739,126.376313 C270.685739,131.775435 266.469394,136.172617 261.242001,136.172617 Z M261.242001,133.725832 C265.094551,133.725832 268.238955,130.446567 268.238955,126.376313 C268.238955,122.306059 265.094551,119.026794 261.242001,119.026794 C257.389451,119.026794 254.245047,122.306059 254.245047,126.376313 C254.245047,130.446567 257.389451,133.725832 261.242001,133.725832 Z" id="Oval" fill="#E88024" fill-rule="nonzero"></path>
                    <g id="Group" opacity="0.6" transform="translate(29.291864, 28.508563)" fill="#FFFFFF">
                        <ellipse id="Oval" cx="9.09162712" cy="9.14191001" rx="8.22034619" ry="8.57291147"></ellipse>
                    </g>
                    <path d="M38.3834915,47.4467766 C33.1560981,47.4467766 28.9397532,43.0495955 28.9397532,37.6504731 C28.9397532,32.2513507 33.1560981,27.8541696 38.3834915,27.8541696 C43.6108849,27.8541696 47.8272298,32.2513507 47.8272298,37.6504731 C47.8272298,43.0495955 43.6108849,47.4467766 38.3834915,47.4467766 Z M38.3834915,44.9999925 C42.2360418,44.9999925 45.3804456,41.7207273 45.3804456,37.6504731 C45.3804456,33.5802189 42.2360418,30.3009537 38.3834915,30.3009537 C34.5309412,30.3009537 31.3865374,33.5802189 31.3865374,37.6504731 C31.3865374,41.7207273 34.5309412,44.9999925 38.3834915,44.9999925 Z" id="Oval" fill="#E88024" fill-rule="nonzero"></path>
                </g>
            </g>
            <path d="M23.9321697,48.416 C23.923835,50.0959897 23.923835,51.7760103 23.9321697,53.456 C24.8921697,53.222 25.5651697,54.108 25.5651697,54.63 C25.5651697,55.152 25.3591697,55.973 24.3141697,56.058 C23.2691697,56.144 22.6891697,55.432 22.6891697,54.56 L22.6891697,48.416 L23.9321697,48.416 Z M24.2981697,54.178 C23.8981697,54.178 23.7101697,54.488 23.7101697,54.745 C23.7101697,55.001 23.8401697,55.312 24.2981697,55.312 C24.7571697,55.312 24.8721697,54.978 24.8721697,54.714 C24.8721697,54.451 24.6991697,54.178 24.2981697,54.178 Z M31.3601697,48.415 C31.6581697,48.578 31.9551697,48.722 32.2511697,48.847 C31.9971697,49.388 31.5411697,49.659 30.8861697,49.659 C29.9031697,49.659 29.4991697,49.157 28.5651697,49.218 C27.6311697,49.279 27.5301697,49.8 27.3571697,50.072 C28.1011697,50.142 28.6481697,50.2 29.0001697,50.249 C29.5281697,50.322 31.0541697,50.705 31.2701697,51.511 C31.4571697,52.157 31.3601697,53.955 31.3601697,54.608 C31.3601697,55.26 30.9181697,56.048 29.7411697,56.048 C28.5651697,56.048 28.4371697,55.043 28.4371697,54.694 C28.4371697,54.346 28.8121697,53.128 30.0861697,53.491 C30.0981697,52.686 30.1011697,52.198 30.0951697,52.028 C30.0861697,51.774 30.0691697,51.318 29.2531697,51.109 C28.4371697,50.901 27.0281697,50.712 26.1131697,50.819 C26.1831697,49.975 26.4251697,49.065 27.3571697,48.599 C28.2901697,48.132 29.4901697,48.539 30.0951697,48.693 C30.7001697,48.847 30.9931697,48.693 31.3601697,48.415 Z M29.6861697,54.163 C29.3481697,54.163 29.1311697,54.518 29.1311697,54.739 C29.1311697,54.96 29.3611697,55.315 29.6861697,55.315 C30.0111697,55.315 30.3021697,55.119 30.3021697,54.724 C30.3021697,54.329 30.0251697,54.164 29.6861697,54.164 L29.6861697,54.163 Z M25.3121697,47.171 C25.5831697,46.034 26.0621697,44.812 28.1881697,44.756 C30.3131697,44.701 31.1831697,46.323 31.4291697,47.236 C29.8771697,46.786 26.2011697,46.915 25.3121697,47.171 Z M26.6601697,46.367 C27.5331697,46.274 29.2571697,46.274 30.0861697,46.496 C29.7961697,45.906 29.0261697,45.329 28.1541697,45.386 C27.2811697,45.442 26.9171697,45.747 26.6601697,46.367 Z M30.1721697,41.742 L31.2951697,41.742 L31.2951697,43.894 L30.1711697,43.894 L30.1721697,41.742 Z M38.4881697,48.436 L39.7381697,48.436 L39.7381697,54.668 C39.7381697,55.277 39.4541697,55.747 39.1221697,55.881 C38.9271697,55.961 38.7691697,56.074 38.4881697,55.971 C37.7651697,55.708 37.6811697,54.033 35.8071697,53.595 C35.7967261,54.1156086 35.7903926,54.6362914 35.7881697,55.157 C35.6061697,56.095 34.6741697,56.168 33.9041697,55.971 C33.1341697,55.774 32.6121697,54.761 32.9321697,53.811 C33.2541697,52.855 33.7671697,52.678 34.5051697,52.593 C34.5331697,51.999 34.5411697,51.433 34.5281697,50.897 C33.3371697,51.093 32.7741697,50.244 32.8621697,49.505 C32.9501697,48.767 33.4891697,48.338 34.3061697,48.337 C35.1241697,48.337 35.8061697,48.997 35.7881697,49.719 C35.7691697,50.44 35.7751697,51.489 35.8071697,52.666 C36.4841697,52.783 36.9331697,53.003 37.4951697,53.498 C37.6551697,53.638 37.9371697,53.93 38.3691697,54.31 C38.4531697,54.194 38.4881697,53.977 38.4881697,53.387 L38.4881697,48.437 L38.4881697,48.436 Z M34.1411697,49.07 C33.8541697,49.07 33.5901697,49.2 33.5901697,49.652 C33.5901697,50.105 33.8801697,50.234 34.1401697,50.234 C34.4021697,50.234 34.7551697,50.052 34.7551697,49.658 C34.7551697,49.264 34.4281697,49.07 34.1411697,49.07 Z M34.5361697,53.545 C34.4651697,53.464 34.2371697,53.46 34.0261697,53.628 C33.8161697,53.796 33.6381697,54.282 33.8431697,54.878 C34.0471697,55.474 34.5361697,55.161 34.5361697,54.878 L34.5361697,53.545 Z M47.0311697,55.953 L47.0311697,51.577 C47.0311697,49.619 46.4051697,49.419 46.1911697,49.419 C45.9781697,49.419 45.3651697,49.879 44.9211697,49.879 C44.4761697,49.879 44.3331697,49.666 43.7481697,49.419 C42.7701697,49.749 42.7411697,51.525 42.9421697,51.987 C43.0761697,52.295 43.2321697,53.231 43.4071697,54.795 C43.4601697,54.644 43.8991697,54.041 44.7261697,52.985 C43.9881697,53.079 43.5981697,52.218 43.5981697,51.678 C43.5981697,51.137 44.4141697,50.051 45.5951697,50.566 C46.7751697,51.081 46.3331697,52.586 45.8751697,52.985 C45.5691697,53.25 44.8601697,54.242 43.7481697,55.961 L42.2781697,55.953 C42.3021697,55.506 42.3021697,54.977 42.0841697,53.907 C41.9401697,53.2 41.5891697,52.153 41.5891697,51.258 C41.5891697,49.01 43.4291697,48.307 43.8711697,48.307 C44.3231697,48.481 44.6611697,48.984 45.0111697,48.984 C45.3601697,48.984 45.5481697,48.658 46.1911697,48.307 C47.6411697,48.307 48.2511697,50.15 48.2511697,50.717 L48.2511697,55.953 L47.0311697,55.953 Z M44.9641697,51.238 C44.6481697,51.238 44.3961697,51.536 44.3961697,51.807 C44.3961697,52.077 44.5781697,52.367 44.9641697,52.367 C45.3511697,52.367 45.5601697,52.097 45.5601697,51.765 C45.5601697,51.432 45.2801697,51.238 44.9641697,51.238 Z M48.2561697,44.235 C48.9031697,44.238 49.2381697,44.235 49.4231697,44.235 C49.4281697,44.813 49.2411697,45.503 48.2561697,46.323 C47.3901697,47.043 45.8731697,47.333 45.0581697,47.278 L45.0481697,46.728 C45.4781697,46.679 45.7441697,46.455 45.8461697,46.053 C45.1361697,46.108 44.4991697,45.783 44.4991697,45.009 C44.4991697,44.235 44.9951697,43.984 45.6571697,43.928 C46.3191697,43.871 46.7401697,44.458 46.8851697,44.885 C47.0311697,45.311 46.8851697,45.865 46.4661697,46.323 C47.5311697,46.105 48.2561697,45.009 48.2561697,44.235 Z M45.5891697,44.524 C45.460374,44.5239956 45.336911,44.5754317 45.2462151,44.6668787 C45.1555191,44.7583257 45.105103,44.8822088 45.1061697,45.011 C45.1061697,45.252 45.3361697,45.521 45.5891697,45.521 C45.8411697,45.521 46.1311697,45.399 46.1311697,45.011 C46.1311697,44.623 45.8851697,44.524 45.5891697,44.524 Z M54.7821697,48.434 L55.9701697,48.434 L55.9701697,52.917 C55.9701697,53.217 55.5281697,53.397 55.3301697,53.481 C55.9971697,53.79 56.2261697,54.181 56.2261697,54.774 C56.2261697,55.367 55.6761697,56.064 54.9481697,56.064 C54.2201697,56.064 53.8731697,55.47 53.7781697,55.032 C53.6811697,54.593 53.8021697,54.173 53.9291697,54.077 C53.1531697,54.173 52.4211697,55.272 52.2731697,55.934 L51.1331697,55.944 L51.1331697,50.879 C50.0971697,50.933 49.5791697,50.536 49.5791697,49.688 C49.5791697,48.415 50.6951697,48.357 50.9891697,48.357 C51.2831697,48.357 52.0791697,48.537 52.2731697,49.51 C52.3151697,50.574 52.2731697,54.146 52.2731697,54.407 C52.5581697,53.989 53.0461697,53.448 53.6531697,53.313 C54.2611697,53.178 54.6171697,53.103 54.7831697,52.769 C54.7921697,52.089 54.7921697,50.644 54.7831697,48.434 L54.7821697,48.434 Z M54.9451697,54.168 C54.6991697,54.168 54.4151697,54.416 54.4151697,54.755 C54.4151697,55.094 54.7001697,55.342 54.9451697,55.342 C55.1077811,55.3405367 55.2628091,55.273022 55.3746435,55.154964 C55.4864779,55.0369061 55.5455063,54.8784524 55.5381697,54.716 C55.5381697,54.276 55.1921697,54.168 54.9451697,54.168 Z M50.7161697,49.081 C50.3901697,49.081 50.2661697,49.358 50.2661697,49.655 C50.2661697,49.951 50.5041697,50.228 50.7911697,50.228 C51.0771697,50.228 51.3311697,49.935 51.3311697,49.606 C51.3311697,49.277 51.0431697,49.081 50.7161697,49.081 Z" id="Shape" fill="#2A3052" fill-rule="nonzero"></path>
            <path d="M249.24217,174.998 C249.50517,173.892 249.97117,172.704 252.03717,172.65 C254.10417,172.596 254.94917,174.173 255.18917,175.06 C253.67917,174.624 250.10617,174.749 249.24117,174.998 L249.24217,174.998 Z M250.55217,174.216 C251.40117,174.126 253.07717,174.126 253.88217,174.342 C253.60117,173.769 252.85217,173.207 252.00417,173.262 C251.15517,173.317 250.80217,173.614 250.55217,174.216 Z M277.91917,183.726 L277.91917,179.569 C277.91917,177.665 277.59317,177.204 275.67917,177.204 C273.76417,177.204 273.74917,179.421 273.94417,179.87 C274.07417,180.17 274.22417,181.08 274.39617,182.6 C274.44617,182.454 274.87417,181.867 275.67817,180.84 C274.96117,180.932 274.58117,180.095 274.58117,179.57 C274.58117,179.043 275.37517,177.987 276.52317,178.488 C277.67117,178.989 277.24017,180.453 276.79517,180.84 C276.49717,181.098 275.80817,182.063 274.72717,183.734 L273.29717,183.726 C273.32117,183.292 273.32117,182.777 273.10917,181.736 C272.96917,181.05 272.51617,180.022 272.62817,179.162 C272.89517,177.112 273.94417,176.544 275.86817,176.441 C277.79017,176.337 279.10617,177.336 279.10617,178.635 L279.10617,183.726 L277.91917,183.726 Z M275.90917,179.142 C275.60217,179.142 275.35717,179.432 275.35717,179.695 C275.35717,179.958 275.53417,180.239 275.91017,180.239 C276.28617,180.239 276.49017,179.977 276.49017,179.654 C276.49017,179.331 276.21717,179.142 275.91017,179.142 L275.90917,179.142 Z M255.93617,169.686 C256.45417,169.688 256.72217,169.686 256.87117,169.686 C256.87517,170.149 256.72517,170.702 255.93617,171.359 C255.24317,171.935 254.02817,172.168 253.37617,172.123 L253.36717,171.683 C253.71117,171.644 253.92417,171.464 254.00717,171.143 C253.43717,171.186 252.92717,170.927 252.92717,170.306 C252.92717,169.686 253.32517,169.486 253.85517,169.44 C254.38517,169.395 254.72217,169.865 254.83817,170.206 C254.95517,170.548 254.83817,170.992 254.50317,171.359 C255.35617,171.184 255.93617,170.306 255.93617,169.686 Z M253.80017,169.918 C253.696926,169.917727 253.597876,169.958825 253.525154,170.032111 C253.452432,170.105397 253.412099,170.204762 253.41317,170.308 C253.41317,170.501 253.59817,170.717 253.80017,170.717 C254.00217,170.717 254.23417,170.618 254.23417,170.307 C254.23417,169.997 254.03717,169.917 253.80017,169.917 L253.80017,169.918 Z M261.71817,176.488 L262.87317,176.488 L262.87317,180.848 C262.87317,181.138 262.44317,181.314 262.25017,181.395 C262.89917,181.695 263.12017,182.076 263.12017,182.653 C263.12017,183.23 262.58717,183.906 261.87917,183.906 C261.17017,183.906 260.83417,183.33 260.74017,182.904 C260.64717,182.477 260.76417,182.069 260.88817,181.974 C260.13317,182.068 259.42217,183.137 259.27817,183.78 L258.16817,183.79 L258.16817,178.866 C257.16217,178.918 256.65817,178.532 256.65817,177.707 C256.65817,176.47 257.74317,176.413 258.02917,176.413 C258.31517,176.413 259.08917,176.589 259.27817,177.535 C259.31817,178.569 259.27817,182.042 259.27817,182.296 C259.55417,181.89 260.02917,181.364 260.62017,181.232 C261.21017,181.101 261.55617,181.027 261.71817,180.703 C261.72717,180.043 261.72717,178.637 261.71817,176.488 Z M261.87617,182.064 C261.63617,182.064 261.36117,182.304 261.36117,182.634 C261.36117,182.964 261.63717,183.204 261.87617,183.204 C262.11517,183.204 262.45217,183.024 262.45217,182.596 C262.45217,182.168 262.11617,182.064 261.87617,182.064 Z M257.76417,177.118 C257.44717,177.118 257.32717,177.387 257.32717,177.675 C257.32717,177.964 257.55717,178.233 257.83717,178.233 C258.11517,178.233 258.36117,177.948 258.36117,177.628 C258.36117,177.308 258.08117,177.118 257.76417,177.118 Z M269.59017,176.697 C269.81317,176.524 270.20417,176.232 270.20417,175.684 C270.75617,175.812 271.18117,175.916 271.47917,175.994 C271.47917,176.439 271.09217,177.004 270.35617,177.227 C270.55417,177.441 270.66117,177.651 270.72717,177.795 C270.97717,178.261 271.04517,180.255 270.93217,183.778 L269.76617,183.778 C269.77117,183.308 269.77117,182.934 269.76617,182.653 C269.26717,180.584 268.09617,178.971 267.16617,179.389 C266.23417,179.807 266.58217,180.944 266.58217,181.385 C267.16517,181.223 268.19417,181.385 268.30117,182.515 C268.40817,183.644 267.27217,183.995 266.70617,183.885 C266.13917,183.774 265.53517,183.485 265.36317,182.445 C265.19317,181.403 265.15017,178.797 266.94417,178.561 C268.73917,178.325 269.40817,180.067 269.76617,180.491 C269.87317,178.168 269.68617,176.981 267.72717,177.168 C265.76917,177.355 265.62317,178.076 265.48717,178.374 C265.26006,178.194132 265.02866,178.019748 264.79317,177.851 C265.42317,176.878 266.44617,176.392 267.86317,176.392 C268.62117,176.392 269.17817,176.517 269.59017,176.697 Z M267.02117,182.064 C266.68317,182.064 266.51117,182.348 266.51117,182.603 C266.51117,182.857 266.70917,183.141 267.02117,183.141 C267.33317,183.141 267.53917,182.765 267.53917,182.551 C267.529925,182.273786 267.298427,182.056141 267.02117,182.064 Z M253.66917,176.527 C253.89217,176.354 254.28317,176.062 254.28317,175.514 C254.83517,175.642 255.26017,175.746 255.55817,175.824 C255.55817,176.269 255.17117,176.834 254.43517,177.057 C254.63317,177.271 254.74017,177.481 254.80617,177.625 C255.05617,178.091 255.12417,180.085 255.01117,183.608 L253.84517,183.608 C253.85017,183.139 253.85017,182.764 253.84517,182.483 C253.34617,180.414 252.17517,178.801 251.24517,179.219 C250.31317,179.637 250.66117,180.774 250.66117,181.215 C251.24417,181.053 252.27317,181.215 252.38017,182.345 C252.48717,183.474 251.35017,183.825 250.78517,183.715 C250.21817,183.604 249.61317,183.315 249.44217,182.275 C249.27217,181.233 249.22917,178.627 251.02317,178.391 C252.81817,178.156 253.48717,179.897 253.84517,180.321 C253.95217,177.998 253.76517,176.811 251.80617,176.998 C249.84817,177.185 249.70217,177.906 249.56617,178.204 C249.33906,178.024132 249.10766,177.849748 248.87217,177.681 C249.50217,176.709 250.52517,176.222 251.94217,176.222 C252.70017,176.222 253.25717,176.347 253.66917,176.527 Z M251.10017,181.894 C250.76217,181.894 250.59017,182.178 250.59017,182.433 C250.59017,182.687 250.78817,182.971 251.10017,182.971 C251.41217,182.971 251.61817,182.596 251.61817,182.381 C251.608925,182.103786 251.377427,181.886141 251.10017,181.894 Z M269.95217,187.409 C269.949319,187.152341 269.949319,186.895659 269.95217,186.639 C269.00617,186.747 268.58317,186.142 268.58317,185.557 C268.58317,184.972 268.94017,184.574 269.75217,184.5 C270.56417,184.426 271.00817,185.1 271.06717,185.557 C271.10717,185.861 271.12617,186.478 271.12617,187.409 L269.95217,187.409 Z M269.72217,185.081 C269.49817,185.081 269.30817,185.081 269.25417,185.604 C269.20017,186.127 269.56817,186.154 269.80717,186.154 C270.04617,186.154 270.31717,186.02 270.31717,185.604 C270.31717,185.188 269.94717,185.081 269.72217,185.081 Z" id="Shape" fill="#2A3052" fill-rule="nonzero"></path>
            <path d="M282.36217,123.576 L283.30117,123.576 C283.34417,125.603 283.34417,126.912 283.30117,127.501 C283.23617,128.386 283.52617,129.229 281.95317,129.229 L278.70117,129.229 L278.70117,128.479 L279.06317,128.479 C279.14717,127.832 278.76317,126.577 279.91517,126.261 C278.50517,126.338 278.13517,124.185 279.54017,123.636 C280.94517,123.088 281.58817,123.916 281.58817,124.436 C281.58817,124.929 281.32317,125.447 280.59917,125.447 C280.22417,125.447 279.60517,125.273 279.70817,124.373 C279.20417,124.732 279.35117,125.384 279.87317,125.727 C280.06017,125.85 280.57717,125.92 281.42617,125.938 L281.42617,126.548 C280.50217,126.488 280.04017,126.763 280.04017,127.373 L280.04017,128.479 L281.95317,128.479 C282.36117,128.479 282.36117,128.254 282.36117,127.651 L282.36117,123.576 L282.36217,123.576 Z M280.59517,124.076 C280.42117,124.076 280.17117,124.276 280.17117,124.509 C280.17117,124.742 280.34917,124.943 280.59517,124.943 C280.84017,124.943 281.05017,124.767 281.05017,124.46 C281.05017,124.152 280.76917,124.076 280.59517,124.076 Z M276.25717,129.201 L277.16617,129.201 L277.16617,124.964 C277.16617,124.289 276.33617,123.364 274.84217,123.462 C273.84617,123.527 273.19817,123.98 272.89917,124.82 C273.07017,124.92 273.25417,125.033 273.44917,125.158 C273.72417,124.452 274.19917,124.093 274.87417,124.081 C275.88617,124.063 276.25717,124.593 276.25717,125.158 L276.25717,129.2 L276.25717,129.201 Z M258.17517,129.196 L259.32117,129.196 L259.32117,124.959 C259.32117,124.285 258.49117,123.359 256.99717,123.457 C256.00117,123.523 255.32717,124.023 254.97417,124.959 C255.28817,125.137 255.54217,125.289 255.73717,125.414 C255.90217,124.712 256.32317,124.354 256.99717,124.343 C258.00917,124.325 258.17517,124.816 258.17517,125.154 L258.17517,129.196 Z M271.08217,123.56 L272.02917,123.56 L272.02917,128.282 C272.02917,128.739 271.79917,129.226 271.08317,129.226 C270.43517,128.856 270.46217,127.666 269.06317,127.448 C269.02617,127.926 269.00817,128.342 269.00817,128.696 C269.00817,129.226 267.66817,129.848 267.01417,128.696 C266.36017,127.543 267.45017,126.66 268.08717,126.66 C268.09817,125.975 268.10417,125.57 268.10417,125.444 C267.70917,125.446 266.93417,125.376 266.87417,124.578 C266.81417,123.78 267.47417,123.483 267.88417,123.483 C268.29517,123.483 268.95617,123.78 269.00817,124.357 C269.06017,124.935 269.06017,126.09 269.06317,126.77 C269.66217,126.74 270.77917,127.714 270.93017,127.94 C271.14417,127.977 271.08317,127.486 271.08317,127.073 L271.08317,123.56 L271.08217,123.56 Z M267.78617,124.048 C267.56817,124.048 267.40617,124.201 267.40617,124.482 C267.40617,124.762 267.60017,124.916 267.83817,124.916 C268.07617,124.916 268.27017,124.806 268.27017,124.486 C268.27017,124.165 268.00417,124.048 267.78617,124.048 Z M268.11617,127.41 C267.66117,127.312 267.49417,127.792 267.55417,128.3 C267.61517,128.808 268.11617,128.654 268.11617,128.457 L268.11617,127.41 Z M265.71217,129.196 L264.76117,129.185 L264.75517,126.019 C264.67117,125.419 264.26117,125.573 263.72817,126.231 C263.19417,126.888 262.73417,127.821 262.57517,129.191 L261.63417,129.191 L261.62217,125.421 C260.69817,125.555 260.34217,124.786 260.34217,124.538 C260.34217,124.289 260.41617,123.642 261.29217,123.512 C262.16917,123.383 262.55517,124.301 262.54617,124.597 C262.53917,124.795 262.54917,125.508 262.57617,126.737 C262.78617,126.125 263.70417,125.183 264.15117,125.113 C263.96417,125.043 263.85917,124.606 263.85917,124.357 C263.85917,124.108 264.22417,123.462 264.84017,123.462 C265.45617,123.462 265.92417,123.952 265.92417,124.405 C265.92417,124.859 265.71617,125.172 265.31817,125.361 C265.55517,125.456 265.71117,125.726 265.71117,126.019 L265.71117,129.196 L265.71217,129.196 Z M264.90217,124.032 C264.67517,124.032 264.44417,124.258 264.44417,124.482 C264.44417,124.704 264.69317,124.931 264.90317,124.931 C265.11317,124.931 265.34317,124.786 265.34317,124.457 C265.34317,124.129 265.13117,124.032 264.90317,124.032 L264.90217,124.032 Z M261.30717,124.051 C261.11317,124.051 260.90717,124.277 260.90717,124.491 C260.90717,124.705 261.08017,124.925 261.30717,124.925 C261.53517,124.925 261.72017,124.785 261.76417,124.491 C261.80717,124.197 261.50217,124.051 261.30717,124.051 Z M254.09217,121.534 L254.09217,127.735 C254.09217,128.427 253.95317,129.209 253.14517,129.209 L249.33317,129.209 L249.33317,128.254 L249.82417,128.254 L249.82417,125.645 C249.00317,125.589 248.59317,125.242 248.59317,124.605 C248.59317,123.649 249.19317,123.502 249.71917,123.502 C250.24417,123.502 250.97917,123.838 250.97917,124.605 L250.97917,128.254 L252.60417,128.254 C252.90517,128.254 252.90517,128.134 252.90517,127.819 L252.90517,121.534 L254.09317,121.534 L254.09217,121.534 Z M249.66917,124.126 C249.42417,124.126 249.25817,124.344 249.25817,124.625 C249.25817,124.905 249.49117,125.033 249.66917,125.033 C249.84917,125.033 250.11117,125.013 250.11117,124.625 C250.11117,124.236 249.91517,124.125 249.66917,124.125 L249.66917,124.126 Z M247.04617,123.606 L247.04617,127.151 C247.82317,127.167 248.21117,127.519 248.21117,128.207 C248.21117,129.239 247.16417,129.307 247.04617,129.307 C246.92817,129.307 245.86617,129.107 245.86617,128.207 L245.86617,123.606 L247.04617,123.606 Z M247.16017,127.767 C246.93217,127.767 246.75317,127.945 246.75317,128.201 C246.75317,128.458 246.95817,128.636 247.16017,128.636 C247.36317,128.636 247.59517,128.425 247.59517,128.173 C247.59517,127.921 247.38917,127.767 247.16017,127.767 Z" id="Shape" fill="#6D6E71" fill-rule="nonzero"></path>
            <path d="M171.40417,166.551 L169.27217,166.551 L169.27217,158.237 L171.40417,158.237 L171.40417,166.551 Z M171.40417,170.924 L169.27217,170.924 L169.27217,168.69 L171.40417,168.69 L171.40417,170.924 Z" id="Shape" fill="#FFFFFF" fill-rule="nonzero"></path>
            <path d="M137.13517,157.665 L139.70217,157.665 C139.57017,159.345 138.53517,160.402 136.59817,160.833 C137.66617,161.143 138.22217,161.886 138.22217,163.024 C138.22217,164.826 138.21217,166.976 138.22217,168.738 C138.22217,171.686 137.52417,171.988 135.22917,172.089 C133.69917,172.156 131.30017,172.156 128.03217,172.089 L128.03217,170.471 L129.52617,170.471 L129.52617,167.551 C129.67817,165.931 132.42617,163.873 132.42617,161.86 C132.42617,159.847 130.05017,158.743 128.78717,160.142 C129.84717,160.202 130.73517,161.135 130.81417,162.479 C130.81417,163.883 129.78417,164.617 128.59117,164.617 C127.39817,164.617 126.11117,163.81 126.11117,162.163 C126.11117,160.516 126.84217,159.479 128.03217,158.733 C129.22217,157.988 133.28017,157.568 134.20317,160.833 C135.12617,164.097 131.74517,165.913 131.74517,167.811 L131.74517,170.471 L134.86117,170.471 C135.77617,170.471 136.02617,169.725 136.02617,168.339 C136.02617,167.426 136.02617,164.426 135.85017,162.479 C135.76417,161.529 134.94117,161.242 134.65317,161.242 C134.47517,160.739 134.47017,160.639 134.36017,160.262 C136.01817,160.111 136.94317,159.244 137.13517,157.665 Z M128.50017,161.407 C128.01517,161.407 127.60717,161.798 127.60717,162.427 C127.60717,163.057 128.07517,163.447 128.50017,163.447 C128.92617,163.447 129.55617,163.102 129.55617,162.403 C129.55617,161.703 128.98617,161.407 128.50017,161.407 Z M150.65417,158.384 L152.82117,158.384 L152.82117,166.561 C152.82117,167.107 152.01417,167.437 151.65417,167.589 C152.87017,168.152 153.28717,168.866 153.28717,169.948 C153.28717,171.029 152.28517,172.298 150.95717,172.298 C149.62817,172.298 148.99717,171.218 148.82117,170.418 C148.64617,169.618 148.86517,168.852 149.09817,168.676 C147.68317,168.851 146.34817,170.855 146.07817,172.062 L143.99817,172.082 L143.99817,162.844 C142.10817,162.943 141.16517,162.219 141.16517,160.671 C141.16517,158.351 143.19917,158.243 143.73517,158.243 C144.27217,158.243 145.72517,158.574 146.07817,160.348 C146.15417,162.287 146.07817,168.802 146.07817,169.278 C146.59717,168.516 147.48817,167.529 148.59617,167.283 C149.70417,167.037 150.35217,166.898 150.65417,166.291 C150.67117,165.051 150.67117,162.415 150.65417,158.384 Z M150.95117,168.843 C150.50117,168.843 149.98517,169.295 149.98517,169.913 C149.98517,170.531 150.50317,170.983 150.95117,170.983 C151.40017,170.983 152.03217,170.645 152.03217,169.841 C152.03217,169.038 151.40217,168.843 150.95217,168.843 L150.95117,168.843 Z M143.23917,159.565 C142.64317,159.565 142.41917,160.07 142.41917,160.611 C142.41917,161.151 142.85117,161.656 143.37417,161.656 C143.89717,161.656 144.35917,161.123 144.35917,160.523 C144.35917,159.923 143.83417,159.565 143.23917,159.565 Z M163.70117,159.546 L165.60517,159.856 C164.73817,163.012 162.61917,164.38 159.24717,163.96 C154.18917,163.33 156.05517,158.89 158.00517,159.063 C159.95517,159.237 160.40317,160.362 160.40317,161.1 C160.40317,161.837 160.32817,162.112 159.43717,162.776 C161.93717,163.152 163.35917,162.076 163.70117,159.546 Z M158.11317,160.147 C157.57817,160.147 157.16017,160.667 157.16017,161.182 C157.16017,161.697 157.63017,162.216 158.11317,162.216 C158.59617,162.216 159.20717,161.861 159.20717,161.156 C159.20717,160.45 158.64817,160.147 158.11317,160.147 Z M163.70117,166.797 L165.60517,167.107 C164.73817,170.263 162.61917,171.631 159.24717,171.212 C154.18917,170.582 156.05517,166.14 158.00517,166.314 C159.95517,166.488 160.40317,167.614 160.40317,168.351 C160.40317,169.088 160.32817,169.363 159.43717,170.027 C161.93717,170.403 163.35917,169.327 163.70117,166.797 Z M158.11317,167.398 C157.57817,167.398 157.16017,167.918 157.16017,168.433 C157.16017,168.948 157.63017,169.467 158.11317,169.467 C158.59617,169.467 159.20717,169.112 159.20717,168.407 C159.20717,167.701 158.64817,167.398 158.11317,167.398 Z" id="Shape" fill="#FFFFFF" fill-rule="nonzero"></path>
            <path d="M20.8051697,22.442 C20.8121697,19.242 20.8121697,17.345 20.8051697,16.754 C20.7981697,16.163 20.5921697,15.728 20.1871697,15.448 C19.7521697,15.613 19.4591697,15.93 18.7721697,15.961 C18.2321697,15.968 17.7521697,15.597 17.5661697,15.481 C16.4841697,15.931 16.7981697,17.73 17.0981697,18.946 C17.1631697,19.213 17.2451697,19.653 17.3431697,20.266 L18.1361697,19.267 C17.8111697,19.147 17.1461697,18.591 17.1461697,17.73 C17.1461697,16.869 17.6431697,16.31 18.8011697,16.168 C19.9601697,16.026 20.3431697,16.881 20.5311697,17.73 C20.6311697,18.181 20.3391697,18.846 19.1781697,20.217 C18.8001697,20.664 18.3031697,21.415 17.6861697,22.471 L15.7091697,22.471 C15.8541697,20.076 14.8811697,18.766 15.0121697,16.754 C15.1421697,14.741 16.9301697,13.842 17.6321697,13.842 C18.1621697,13.844 18.3621697,14.456 18.8571697,14.561 C19.3901697,14.561 19.6271697,13.907 20.1351697,13.842 C21.7021697,13.843 22.6511697,15.708 22.5871697,17.056 C22.5871697,17.786 22.5721697,19.581 22.5441697,22.442 L20.8041697,22.442 L20.8051697,22.442 Z M18.8171697,17.201 C18.3951697,17.201 18.1961697,17.428 18.1961697,17.789 C18.1961697,18.151 18.4661697,18.432 18.8171697,18.432 C19.1691697,18.432 19.4731697,18.182 19.4731697,17.789 C19.4731697,17.395 19.2401697,17.201 18.8171697,17.201 Z M34.6961697,22.504 L32.9001697,22.504 L32.9001697,18.307 C32.9001697,17.966 32.9481697,17.277 33.3241697,17.038 L32.1561697,16.908 L32.2611697,15.668 C32.5741697,15.477 32.8541697,15.251 33.1011697,14.991 C33.4711697,14.601 34.2701697,13.88 35.9211697,13.844 C37.5721697,13.808 39.4451697,14.411 39.5541697,16.5 L39.5541697,22.52 L37.7811697,22.504 L37.7811697,16.718 C37.7811697,15.924 37.3251697,15.145 36.0361697,15.181 C34.7471697,15.218 34.4221697,15.572 34.0011697,15.892 C34.2991697,15.942 34.9031697,16.038 35.8131697,16.18 C35.7571697,16.597 35.7071697,16.947 35.6621697,17.231 C35.0291697,17.198 34.7091697,17.489 34.7041697,18.105 C34.6981697,18.722 34.6961697,20.188 34.6961697,22.504 Z M48.6741697,15.971 C49.2921697,16.326 49.6841697,16.566 49.8501697,16.691 C50.0061697,16.202 50.2821697,15.049 51.8901697,15.049 C53.4971697,15.049 53.5101697,16.328 53.5101697,16.72 L53.5101697,22.378 L55.3021697,22.378 C55.3171697,19.058 55.3171697,17.026 55.3021697,16.286 C55.2491697,15.191 54.4421697,13.682 51.9621697,13.707 C50.3071697,13.724 49.2121697,14.479 48.6741697,15.971 Z M23.9141697,16.038 C24.5321697,16.393 24.9241697,16.634 25.0901697,16.759 C25.2461697,16.269 25.5221697,15.117 27.1301697,15.117 C28.7371697,15.117 28.7501697,16.395 28.7501697,16.787 L28.7501697,22.445 L30.5421697,22.445 C30.5571697,19.125 30.5571697,17.094 30.5421697,16.354 C30.4891697,15.258 29.6821697,13.749 27.2021697,13.774 C25.5471697,13.792 24.4521697,14.546 23.9141697,16.038 Z M40.9801697,15.977 C41.1531697,15.614 41.4401697,13.857 44.2011697,13.685 C46.9631697,13.513 47.6051697,15.623 47.6051697,16.306 C47.6051697,16.989 47.6041697,19.836 47.5781697,20.709 C47.5521697,21.582 46.8081697,22.466 45.8331697,22.466 C44.8581697,22.466 44.0231697,21.953 43.9831697,20.846 C43.9411697,19.739 45.0231697,19.12 45.8051697,19.246 C45.8151697,17.896 45.8051697,17.153 45.8051697,16.68 C45.8051697,16.208 45.9491697,15.067 44.2011697,15.067 C43.0361697,15.067 42.3341697,15.605 42.0961697,16.68 C41.7701697,16.481 41.2311697,16.14 40.9801697,15.977 Z M45.6001697,20.194 C45.3641697,20.194 44.9651697,20.454 44.9651697,20.837 C44.9651697,21.221 45.3191697,21.49 45.6451697,21.49 C45.9721697,21.49 46.2611697,21.316 46.2611697,20.837 C46.2611697,20.359 45.8371697,20.194 45.6011697,20.194 L45.6001697,20.194 Z M47.5671697,12.514 L46.0421697,12.514 L46.0421697,9.67 L47.5681697,9.67 L47.5671697,12.514 Z M21.7621697,9.001 C22.9141697,9.001 23.5031697,9.569 23.5031697,10.548 C23.5031697,11.528 23.1421697,12.066 21.9961697,12.21 C20.8511697,12.354 20.3301697,11.309 20.3301697,10.612 C20.3301697,9.915 20.6081697,9 21.7611697,9 L21.7621697,9.001 Z M21.9091697,9.958 C21.4161697,9.958 21.2691697,10.314 21.2691697,10.603 C21.2691697,10.891 21.6211697,11.247 21.9091697,11.247 C22.1971697,11.247 22.5651697,10.889 22.5651697,10.569 C22.5651697,10.249 22.4021697,9.959 21.9091697,9.959 L21.9091697,9.958 Z" id="Shape" fill="#020202" fill-rule="nonzero"></path>
        </g>
    </g>
</svg>