<svg width="300" height="199" viewBox="0 0 300 199" xmlns="http://www.w3.org/2000/svg"><title>Thai lower</title><g fill="none" fill-rule="evenodd"><path fill="#F1F2F2" d="M0 0h300v199H0z"/><path d="M39.125 55.375V74.75H75.25V55.375H39.125zm0-1H75.25V34h1v20.375h36.125V34h1v20.375H149.5V34h1v20.375h36.125V34h1v20.375h36.125V34h1v20.375h36.125V34h1v20.375H299.5v1h-37.625V74.75H299.5v1h-37.625v19.375H299.5v1h-37.625V115.5H299.5v1h-37.625v19.375H299.5v1h-37.625v19.375H299.5v1h-37.625v19.375H299.5v1h-37.625V199h-1v-21.375H224.75V199h-1v-21.375h-36.125V199h-1v-21.375H150.5V199h-1v-21.375h-36.125V199h-1v-21.375H76.25V199h-1v-21.375H39.125V199h-1v-21.375H1.5v-1h36.625V157.25H1.5v-1h36.625v-19.375H1.5v-1h36.625V116.5H1.5v-1h36.625V96.125H1.5v-1h36.625V75.75H1.5v-1h36.625V55.375H1.5v-1h36.625V34h1v20.375zm221.75 1H224.75V74.75h36.125V55.375zm-37.125 0h-36.125V74.75h36.125V55.375zm-37.125 0H150.5V74.75h36.125V55.375zm-37.125 0h-36.125V74.75H149.5V55.375zm-37.125 0H76.25V74.75h36.125V55.375zM39.125 75.75v19.375H75.25V75.75H39.125zm221.75 0H224.75v19.375h36.125V75.75zm-37.125 0h-36.125v19.375h36.125V75.75zm-37.125 0H150.5v19.375h36.125V75.75zm-37.125 0h-36.125v19.375H149.5V75.75zm-37.125 0H76.25v19.375h36.125V75.75zm-73.25 20.375V115.5H75.25V96.125H39.125zm221.75 0H224.75V115.5h36.125V96.125zm-37.125 0h-36.125V115.5h36.125V96.125zm-37.125 0H150.5V115.5h36.125V96.125zm-37.125 0h-36.125V115.5H149.5V96.125zm-37.125 0H76.25V115.5h36.125V96.125zM39.125 116.5v19.375H75.25V116.5H39.125zm221.75 0H224.75v19.375h36.125V116.5zm-37.125 0h-36.125v19.375h36.125V116.5zm-37.125 0H150.5v19.375h36.125V116.5zm-37.125 0h-36.125v19.375H149.5V116.5zm-37.125 0H76.25v19.375h36.125V116.5zm-73.25 20.375v19.375H75.25v-19.375H39.125zm221.75 0H224.75v19.375h36.125v-19.375zm-37.125 0h-36.125v19.375h36.125v-19.375zm-37.125 0H150.5v19.375h36.125v-19.375zm-37.125 0h-36.125v19.375H149.5v-19.375zm-37.125 0H76.25v19.375h36.125v-19.375zm-73.25 20.375v19.375H75.25V157.25H39.125zm221.75 0H224.75v19.375h36.125V157.25zm-37.125 0h-36.125v19.375h36.125V157.25zm-37.125 0H150.5v19.375h36.125V157.25zm-37.125 0h-36.125v19.375H149.5V157.25zm-37.125 0H76.25v19.375h36.125V157.25z" fill="#DFDEDE"/><path stroke="#C2C2C2" stroke-width="2" d="M1 1h298v197H1z"/><path fill="#C2C2C2" d="M0 33h300v2H0z"/><g transform="translate(4 59.432)"><path d="M.9 56.063h290.625" stroke="#2A3052" stroke-width="1.211" stroke-linejoin="round"/><path stroke="#2A3052" stroke-width="3.633" stroke-linecap="round" stroke-linejoin="round" d="M36 9.037l36.3 63.6 36.9-45.187 43.95 51.337 34.012-43.05 42 64.35 27.45-3.337"/><path d="M184.613 87H149.55l-5.4-8.213-5.4 8.213h-35.063c-2.624 0-4.724 2.138-4.724 4.8v24.788c0 2.662 2.137 4.8 4.725 4.8h80.962c2.625 0 4.725-2.138 4.725-4.8V91.8c0-2.662-2.137-4.8-4.762-4.8z" fill="#E88024" fill-rule="nonzero"/><ellipse cx="8.363" cy="10.5" rx="8.137" ry="8.475" opacity=".6" transform="translate(248.25 86.25)" fill="#FFF" fill-rule="nonzero"/><ellipse stroke="#E88024" stroke-width="2.422" cx="256.613" cy="96.75" rx="8.137" ry="8.475"/><ellipse cx="9" cy="9.037" rx="8.137" ry="8.475" opacity=".6" transform="translate(27)" fill="#FFF" fill-rule="nonzero"/><ellipse stroke="#E88024" stroke-width="2.422" cx="36" cy="9.037" rx="8.137" ry="8.475"/></g><g fill="#2A3052"><path d="M21.29 47.515a507.953 507.953 0 0 0 0 5.04c.96-.234 1.633.652 1.633 1.174 0 .522-.206 1.343-1.251 1.428-1.045.086-1.625-.626-1.625-1.498v-6.144h1.243zm.366 5.762c-.4 0-.588.31-.588.567 0 .256.13.567.588.567.459 0 .574-.334.574-.598 0-.263-.173-.536-.574-.536zM28.718 47.514c.298.163.595.307.891.432-.254.541-.71.812-1.365.812-.983 0-1.387-.502-2.321-.441-.934.061-1.035.582-1.208.854.744.07 1.291.128 1.643.177.528.073 2.054.456 2.27 1.262.187.646.09 2.444.09 3.097 0 .652-.442 1.44-1.619 1.44-1.176 0-1.304-1.005-1.304-1.354 0-.348.375-1.566 1.649-1.203.012-.805.015-1.293.009-1.463-.009-.254-.026-.71-.842-.919-.816-.208-2.225-.397-3.14-.29.07-.844.312-1.754 1.244-2.22.933-.467 2.133-.06 2.738.094s.898 0 1.265-.278zm-1.674 5.748c-.338 0-.555.355-.555.576 0 .221.23.576.555.576.325 0 .616-.196.616-.591 0-.395-.277-.56-.616-.56zM22.67 46.27c.271-1.137.75-2.359 2.876-2.415 2.125-.055 2.995 1.567 3.241 2.48-1.552-.45-5.228-.321-6.117-.065zm1.348-.804c.873-.093 2.597-.093 3.426.129-.29-.59-1.06-1.167-1.932-1.11-.873.056-1.237.361-1.494.981zM27.53 40.841h1.123v2.152h-1.124zM35.846 47.535h1.25v6.232c0 .609-.284 1.079-.616 1.213-.195.08-.353.193-.634.09-.723-.263-.807-1.938-2.681-2.376a98.94 98.94 0 0 0-.019 1.562c-.182.938-1.114 1.011-1.884.814-.77-.197-1.292-1.21-.972-2.16.322-.956.835-1.133 1.573-1.218.028-.594.036-1.16.023-1.696-1.191.196-1.754-.653-1.666-1.392.088-.738.627-1.167 1.444-1.168.818 0 1.5.66 1.482 1.382-.019.721-.013 1.77.019 2.947.677.117 1.126.337 1.688.832.16.14.442.432.874.812.084-.116.119-.333.119-.923v-4.95zm-4.347.634c-.287 0-.551.13-.551.582 0 .453.29.582.55.582.262 0 .615-.182.615-.576 0-.394-.327-.588-.614-.588zm.395 4.475c-.071-.081-.299-.085-.51.083-.21.168-.388.654-.183 1.25.204.596.693.283.693 0v-1.333zM44.389 55.052v-4.376c0-1.958-.626-2.158-.84-2.158-.213 0-.826.46-1.27.46-.445 0-.588-.213-1.173-.46-.978.33-1.007 2.106-.806 2.568.134.308.29 1.244.465 2.808.053-.151.492-.754 1.319-1.81-.738.094-1.128-.767-1.128-1.307 0-.541.816-1.627 1.997-1.112 1.18.515.738 2.02.28 2.419-.306.265-1.015 1.257-2.127 2.976l-1.47-.008c.024-.447.024-.976-.194-2.046-.144-.707-.495-1.754-.495-2.649 0-2.248 1.84-2.951 2.282-2.951.452.174.79.677 1.14.677.349 0 .537-.326 1.18-.677 1.45 0 2.06 1.843 2.06 2.41v5.236h-1.22zm-2.067-4.715c-.316 0-.568.298-.568.569 0 .27.182.56.568.56.387 0 .596-.27.596-.602 0-.333-.28-.527-.596-.527zM45.614 43.334c.647.003.982 0 1.167 0 .005.578-.182 1.268-1.167 2.088-.866.72-2.383 1.01-3.198.955l-.01-.55c.43-.049.696-.273.798-.675-.71.055-1.347-.27-1.347-1.044s.496-1.025 1.158-1.081c.662-.057 1.083.53 1.228.957.146.426 0 .98-.419 1.438 1.065-.218 1.79-1.314 1.79-2.088zm-2.667.289a.483.483 0 0 0-.483.487c0 .241.23.51.483.51.252 0 .542-.122.542-.51s-.246-.487-.542-.487zM52.14 47.533h1.188v4.483c0 .3-.442.48-.64.564.667.309.896.7.896 1.293s-.55 1.29-1.278 1.29-1.075-.594-1.17-1.032c-.097-.439.024-.859.151-.955-.776.096-1.508 1.195-1.656 1.857l-1.14.01v-5.065c-1.036.054-1.554-.343-1.554-1.191 0-1.273 1.116-1.331 1.41-1.331.294 0 1.09.18 1.284 1.153.042 1.064 0 4.636 0 4.897.285-.418.773-.959 1.38-1.094.608-.135.964-.21 1.13-.544.009-.68.009-2.125 0-4.335zm.163 5.734c-.246 0-.53.248-.53.587 0 .339.285.587.53.587a.599.599 0 0 0 .593-.626c0-.44-.346-.548-.593-.548zm-4.229-5.087c-.326 0-.45.277-.45.574 0 .296.238.573.525.573.286 0 .54-.293.54-.622s-.288-.525-.615-.525z"/></g><g fill="#2A3052"><path d="M246.6 174.097c.263-1.106.729-2.294 2.795-2.348 2.067-.054 2.912 1.523 3.152 2.41-1.51-.436-5.083-.311-5.948-.062zm1.31-.782c.849-.09 2.525-.09 3.33.126-.281-.573-1.03-1.135-1.878-1.08-.849.055-1.202.352-1.452.954zM275.277 182.825v-4.157c0-1.904-.326-2.365-2.24-2.365-1.915 0-1.93 2.217-1.735 2.666.13.3.28 1.21.452 2.73.05-.146.478-.733 1.282-1.76-.717.092-1.097-.745-1.097-1.27 0-.527.794-1.583 1.942-1.082 1.148.501.717 1.965.272 2.352-.298.258-.987 1.223-2.068 2.894l-1.43-.008c.024-.434.024-.949-.188-1.99-.14-.686-.593-1.714-.481-2.574.267-2.05 1.316-2.618 3.24-2.721 1.922-.104 3.238.895 3.238 2.194v5.091h-1.187zm-2.01-4.584c-.307 0-.552.29-.552.553 0 .263.177.544.553.544.376 0 .58-.262.58-.585 0-.323-.273-.512-.58-.512zM253.294 168.785c.518.002.786 0 .935 0 .004.463-.146 1.016-.935 1.673-.693.576-1.908.809-2.56.764l-.009-.44c.344-.039.557-.219.64-.54-.57.043-1.08-.216-1.08-.837 0-.62.398-.82.928-.866.53-.045.867.425.983.766.117.342 0 .786-.335 1.153.853-.175 1.433-1.053 1.433-1.673zm-2.136.232a.386.386 0 0 0-.387.39c0 .193.185.409.387.409s.434-.099.434-.41c0-.31-.197-.39-.434-.39zM259.076 175.587h1.155v4.36c0 .29-.43.466-.623.547.649.3.87.681.87 1.258s-.533 1.253-1.241 1.253c-.709 0-1.045-.576-1.139-1.002-.093-.427.024-.835.148-.93-.755.094-1.466 1.163-1.61 1.806l-1.11.01v-4.924c-1.006.052-1.51-.334-1.51-1.159 0-1.237 1.085-1.294 1.371-1.294.286 0 1.06.176 1.249 1.122.04 1.034 0 4.507 0 4.761.276-.406.751-.932 1.342-1.064.59-.131.936-.205 1.098-.529.009-.66.009-2.066 0-4.215zm.158 5.576c-.24 0-.515.24-.515.57 0 .33.276.57.515.57s.576-.18.576-.608-.336-.532-.576-.532zm-4.112-4.946c-.317 0-.437.269-.437.557 0 .289.23.558.51.558.278 0 .524-.285.524-.605s-.28-.51-.597-.51zM266.948 175.796c.223-.173.614-.465.614-1.013.552.128.977.232 1.275.31 0 .445-.387 1.01-1.123 1.233.198.214.305.424.371.568.25.466.318 2.46.205 5.983h-1.166c.005-.47.005-.844 0-1.125-.499-2.069-1.67-3.682-2.6-3.264-.932.418-.584 1.555-.584 1.996.583-.162 1.612 0 1.719 1.13.107 1.129-1.029 1.48-1.595 1.37-.567-.111-1.171-.4-1.343-1.44-.17-1.042-.213-3.648 1.581-3.884 1.795-.236 2.464 1.506 2.822 1.93.107-2.323-.08-3.51-2.039-3.323-1.958.187-2.104.908-2.24 1.206a18.08 18.08 0 0 0-.694-.523c.63-.973 1.653-1.459 3.07-1.459.758 0 1.315.125 1.727.305zm-2.569 5.367c-.338 0-.51.284-.51.539 0 .254.198.538.51.538s.518-.376.518-.59a.504.504 0 0 0-.518-.487zM251.027 175.626c.223-.173.614-.465.614-1.013.552.128.977.232 1.275.31 0 .445-.387 1.01-1.123 1.233.198.214.305.424.371.568.25.466.318 2.46.205 5.983h-1.166c.005-.469.005-.844 0-1.125-.499-2.069-1.67-3.682-2.6-3.264-.932.418-.584 1.555-.584 1.996.583-.162 1.612 0 1.719 1.13.107 1.129-1.03 1.48-1.595 1.37-.567-.111-1.172-.4-1.343-1.44-.17-1.042-.213-3.648 1.581-3.884 1.795-.235 2.464 1.506 2.822 1.93.107-2.323-.08-3.51-2.039-3.323-1.958.187-2.104.908-2.24 1.206a18.08 18.08 0 0 0-.694-.523c.63-.972 1.653-1.459 3.07-1.459.758 0 1.315.125 1.727.305zm-2.569 5.367c-.338 0-.51.284-.51.539 0 .254.198.538.51.538s.518-.375.518-.59a.504.504 0 0 0-.518-.487zM267.31 186.508a34.663 34.663 0 0 1 0-.77c-.946.108-1.369-.497-1.369-1.082 0-.585.357-.983 1.169-1.057.812-.074 1.256.6 1.315 1.057.04.304.059.921.059 1.852h-1.174zm-.23-2.328c-.224 0-.414 0-.468.523-.054.523.314.55.553.55.239 0 .51-.134.51-.55 0-.416-.37-.523-.595-.523z"/></g><g fill="#6D6E71"><path d="M279.72 122.675h.939c.043 2.027.043 3.336 0 3.925-.065.885.225 1.728-1.348 1.728h-3.252v-.75h.362c.084-.647-.3-1.902.852-2.218-1.41.077-1.78-2.076-.375-2.625 1.405-.548 2.048.28 2.048.8 0 .493-.265 1.011-.989 1.011-.375 0-.994-.174-.891-1.074-.504.359-.357 1.011.165 1.354.187.123.704.193 1.553.211v.61c-.924-.06-1.386.215-1.386.825v1.106h1.913c.408 0 .408-.225.408-.828v-4.075zm-1.767.5c-.174 0-.424.2-.424.433 0 .233.178.434.424.434.245 0 .455-.176.455-.483 0-.308-.281-.384-.455-.384zM273.615 128.3h.909v-4.237c0-.675-.83-1.6-2.324-1.502-.996.065-1.644.518-1.943 1.358.171.1.355.213.55.338.275-.706.75-1.065 1.425-1.077 1.012-.018 1.383.512 1.383 1.077v4.042zM255.533 128.295h1.146v-4.237c0-.674-.83-1.6-2.324-1.502-.996.066-1.67.566-2.023 1.502.314.178.568.33.763.455.165-.702.586-1.06 1.26-1.071 1.012-.018 1.178.473 1.178.811v4.042zM268.44 122.659h.947v4.722c0 .457-.23.944-.946.944-.648-.37-.621-1.56-2.02-1.778-.037.478-.055.894-.055 1.248 0 .53-1.34 1.152-1.994 0-.654-1.153.436-2.036 1.073-2.036.011-.685.017-1.09.017-1.216-.395.002-1.17-.068-1.23-.866-.06-.798.6-1.095 1.01-1.095.411 0 1.072.297 1.124.874.052.578.052 1.733.055 2.413.599-.03 1.716.944 1.867 1.17.214.037.153-.454.153-.867v-3.513zm-3.296.488c-.218 0-.38.153-.38.434 0 .28.194.434.432.434s.432-.11.432-.43c0-.321-.266-.438-.484-.438zm.33 3.362c-.455-.098-.622.382-.562.89.061.508.562.354.562.157v-1.047zM263.07 128.295l-.951-.011-.006-3.166c-.084-.6-.494-.446-1.027.212-.534.657-.994 1.59-1.153 2.96h-.941l-.012-3.77c-.924.134-1.28-.635-1.28-.883 0-.249.074-.896.95-1.026.877-.129 1.263.789 1.254 1.085-.007.198.003.911.03 2.14.21-.612 1.128-1.554 1.575-1.624-.187-.07-.292-.507-.292-.756s.365-.895.981-.895 1.084.49 1.084.943c0 .454-.208.767-.606.956.237.095.393.365.393.658v3.177zm-.81-5.164c-.227 0-.458.226-.458.45 0 .222.249.449.459.449.21 0 .44-.145.44-.474 0-.328-.212-.425-.44-.425zm-3.595.019c-.194 0-.4.226-.4.44s.173.434.4.434c.228 0 .413-.14.457-.434.043-.294-.262-.44-.457-.44zM251.45 120.633v6.201c0 .692-.139 1.474-.947 1.474h-3.812v-.955h.491v-2.609c-.821-.056-1.231-.403-1.231-1.04 0-.956.6-1.103 1.126-1.103.525 0 1.26.336 1.26 1.103v3.649h1.625c.301 0 .301-.12.301-.435v-6.285h1.188zm-4.423 2.592c-.245 0-.411.218-.411.499 0 .28.233.408.411.408.18 0 .442-.02.442-.408 0-.389-.196-.5-.442-.5zM244.404 122.705v3.545c.777.016 1.165.368 1.165 1.056 0 1.032-1.047 1.1-1.165 1.1-.118 0-1.18-.2-1.18-1.1v-4.601h1.18zm.114 4.161c-.228 0-.407.178-.407.434 0 .257.205.435.407.435.203 0 .435-.211.435-.463s-.206-.406-.435-.406z"/><path d="M249.35 119.486c.485.002.736 0 .875 0 .004.433-.136.95-.874 1.564-.649.54-1.785.757-2.396.715l-.007-.412c.322-.036.52-.204.598-.505-.532.041-1.01-.202-1.01-.782 0-.58.372-.768.868-.81.496-.043.811.397.92.717.11.319 0 .734-.314 1.077.798-.163 1.34-.984 1.34-1.564zm-1.997.216a.361.361 0 0 0-.362.365c0 .181.173.383.362.383.188 0 .406-.092.406-.383 0-.29-.184-.365-.406-.365z"/></g><g fill="#FFF"><path d="M168.762 165.65h-2.132v-8.314h2.132zM168.762 170.023h-2.132v-2.234h2.132z"/></g><path d="M134.493 156.764h2.567c-.132 1.68-1.167 2.737-3.104 3.168 1.068.31 1.624 1.053 1.624 2.191 0 1.802-.01 3.952 0 5.714 0 2.948-.698 3.25-2.993 3.351-1.53.067-3.929.067-7.197 0v-1.618h1.494v-2.92c.152-1.62 2.9-3.678 2.9-5.691s-2.376-3.117-3.639-1.718c1.06.06 1.948.993 2.027 2.337 0 1.404-1.03 2.138-2.223 2.138-1.193 0-2.48-.807-2.48-2.454 0-1.647.731-2.684 1.921-3.43 1.19-.745 5.248-1.165 6.171 2.1.923 3.264-2.458 5.08-2.458 6.978v2.66h3.116c.915 0 1.165-.746 1.165-2.132 0-.913 0-3.913-.176-5.86-.086-.95-.909-1.237-1.197-1.237-.178-.503-.183-.603-.293-.98 1.658-.151 2.583-1.018 2.775-2.597zm-8.635 3.742c-.485 0-.893.391-.893 1.02 0 .63.468 1.02.893 1.02.426 0 1.056-.345 1.056-1.044 0-.7-.57-.996-1.056-.996zM148.012 157.483h2.167v8.177c0 .546-.807.876-1.167 1.028 1.216.563 1.633 1.277 1.633 2.359 0 1.081-1.002 2.35-2.33 2.35-1.329 0-1.96-1.08-2.136-1.88-.175-.8.044-1.566.277-1.742-1.415.175-2.75 2.179-3.02 3.386l-2.08.02v-9.238c-1.89.099-2.833-.625-2.833-2.173 0-2.32 2.034-2.428 2.57-2.428.537 0 1.99.331 2.343 2.105.076 1.939 0 8.454 0 8.93.519-.762 1.41-1.749 2.518-1.995 1.108-.246 1.756-.385 2.058-.992.017-1.24.017-3.876 0-7.907zm.297 10.459c-.45 0-.966.452-.966 1.07 0 .618.518 1.07.966 1.07.449 0 1.081-.338 1.081-1.142 0-.803-.63-.998-1.08-.998zm-7.712-9.278c-.596 0-.82.505-.82 1.046 0 .54.432 1.045.955 1.045.523 0 .985-.533.985-1.133s-.525-.958-1.12-.958zM161.059 158.645l1.904.31c-.867 3.156-2.986 4.524-6.358 4.104-5.058-.63-3.192-5.07-1.242-4.897 1.95.174 2.398 1.299 2.398 2.037 0 .737-.075 1.012-.966 1.676 2.5.376 3.922-.7 4.264-3.23zm-5.588.601c-.535 0-.953.52-.953 1.035 0 .515.47 1.034.953 1.034s1.094-.355 1.094-1.06c0-.706-.559-1.009-1.094-1.009zM161.059 165.896l1.904.31c-.867 3.156-2.986 4.524-6.358 4.105-5.058-.63-3.192-5.072-1.242-4.898 1.95.174 2.398 1.3 2.398 2.037 0 .737-.075 1.012-.966 1.676 2.5.376 3.922-.7 4.264-3.23zm-5.588.601c-.535 0-.953.52-.953 1.035 0 .515.47 1.034.953 1.034s1.094-.355 1.094-1.06c0-.706-.559-1.009-1.094-1.009z" fill="#FFF"/><g fill="#020202"><path d="M22.163 21.541c.007-3.2.007-5.097 0-5.688-.007-.591-.213-1.026-.618-1.306-.435.165-.728.482-1.415.513-.54.007-1.02-.364-1.206-.48-1.082.45-.768 2.249-.468 3.465.065.267.147.707.245 1.32l.793-.999c-.325-.12-.99-.676-.99-1.537 0-.861.497-1.42 1.655-1.562 1.159-.142 1.542.713 1.73 1.562.1.451-.192 1.116-1.353 2.487-.378.447-.875 1.198-1.492 2.254h-1.977c.145-2.395-.828-3.705-.697-5.717.13-2.013 1.918-2.912 2.62-2.912.53.002.73.614 1.225.719.533 0 .77-.654 1.278-.719 1.567.001 2.516 1.866 2.452 3.214 0 .73-.015 2.525-.043 5.386h-1.74zM20.175 16.3c-.422 0-.621.227-.621.588 0 .362.27.643.621.643.352 0 .656-.25.656-.643 0-.394-.233-.588-.656-.588zM36.054 21.603h-1.796v-4.197c0-.341.048-1.03.424-1.269l-1.168-.13.105-1.24c.313-.191.593-.417.84-.677.37-.39 1.169-1.111 2.82-1.147 1.651-.036 3.524.567 3.633 2.656v6.02l-1.773-.016v-5.786c0-.794-.456-1.573-1.745-1.537-1.289.037-1.614.391-2.035.711.298.05.902.146 1.812.288-.056.417-.106.767-.151 1.051-.633-.033-.953.258-.958.874-.006.617-.008 2.083-.008 4.399zM50.032 15.07c.618.355 1.01.595 1.176.72.156-.489.432-1.642 2.04-1.642 1.607 0 1.62 1.279 1.62 1.671v5.658h1.792c.015-3.32.015-5.352 0-6.092-.053-1.095-.86-2.604-3.34-2.579-1.655.017-2.75.772-3.288 2.264zM25.272 15.137c.618.355 1.01.596 1.176.721.156-.49.432-1.642 2.04-1.642 1.607 0 1.62 1.278 1.62 1.67v5.658H31.9c.015-3.32.015-5.351 0-6.091-.053-1.096-.86-2.605-3.34-2.58-1.655.018-2.75.772-3.288 2.264zM42.338 15.076c.173-.363.46-2.12 3.221-2.292 2.762-.172 3.404 1.938 3.404 2.621s-.001 3.53-.027 4.403c-.026.873-.77 1.757-1.745 1.757-.975 0-1.81-.513-1.85-1.62-.042-1.107 1.04-1.726 1.822-1.6.01-1.35 0-2.093 0-2.566 0-.472.144-1.613-1.604-1.613-1.165 0-1.867.538-2.105 1.613-.326-.199-.865-.54-1.116-.703zm4.62 4.217c-.236 0-.635.26-.635.643 0 .384.354.653.68.653.327 0 .616-.174.616-.653 0-.478-.424-.643-.66-.643zM48.925 11.613H47.4V8.769h1.526zM23.12 8.1c1.152 0 1.741.568 1.741 1.547 0 .98-.361 1.518-1.507 1.662-1.145.144-1.666-.901-1.666-1.598 0-.697.278-1.612 1.431-1.612zm.147.957c-.493 0-.64.356-.64.645 0 .288.352.644.64.644.288 0 .656-.358.656-.678 0-.32-.163-.61-.656-.61z"/></g></g></svg>