<?xml version="1.0" encoding="UTF-8"?>
<svg width="299px" height="197px" viewBox="0 0 299 197" version="1.1" xmlns="http://www.w3.org/2000/svg" xmlns:xlink="http://www.w3.org/1999/xlink">
    <!-- Generator: Sketch 52.6 (67491) - http://www.bohemiancoding.com/sketch -->
    <title>matches</title>
    <desc>Created with Sketch.</desc>
    <defs>
        <path d="M134.540234,22 L134.540234,17.1351563 C134.540234,16.6239558 134.428517,16.2244806 134.205078,15.9367188 C133.917316,15.5846337 133.401045,15.4085937 132.65625,15.4085937 C132.378644,15.4085937 132.129819,15.4373695 131.909766,15.4949219 C131.723567,15.5423179 131.523829,15.6269525 131.310547,15.7488281 C131.066796,15.8842455 130.894141,15.9993485 130.792578,16.0941406 C130.667317,16.2160162 130.564063,16.315885 130.482812,16.39375 L132.336328,16.678125 L132.25,17.2570313 C131.996092,17.2570313 131.806511,17.3213535 131.68125,17.45 C131.454426,17.6361988 131.341016,17.9019514 131.341016,18.2472656 L131.341016,22 L130.142578,22 L130.142578,18.2472656 C130.142578,17.9527329 130.208593,17.7191415 130.340625,17.5464844 C130.49974,17.3501292 130.658853,17.2401043 130.817969,17.2164062 C130.878907,17.2096354 130.916146,17.1825523 130.929688,17.1351563 L129.472266,16.9625 L129.548438,16.1855469 C129.697397,16.1246091 129.875129,15.9807303 130.081641,15.7539062 C130.359246,15.4492172 130.712172,15.181772 131.14043,14.9515625 C131.568687,14.721353 132.073955,14.60625 132.65625,14.60625 C133.363806,14.60625 133.93255,14.6976553 134.3625,14.8804687 C134.616408,14.9888026 134.844921,15.1394522 135.048047,15.3324219 C135.234246,15.505079 135.391666,15.71328 135.520312,15.9570312 C135.611719,16.1330738 135.670963,16.3006502 135.698047,16.4597656 C135.728516,16.6459645 135.74375,16.8575509 135.74375,17.0945312 L135.74375,22 L134.540234,22 Z M142.462109,22 L141.248437,22 L141.248437,17.2011719 C141.248437,16.6290336 141.170574,16.2278657 141.014844,15.9976562 C140.747394,15.604946 140.292061,15.4085937 139.648828,15.4085937 C138.998825,15.4085937 138.485939,15.5897117 138.110156,15.9519531 C137.86302,16.185548 137.698829,16.4631494 137.617578,16.7847656 L136.916797,16.3582031 C137.075912,15.9011696 137.353514,15.5084652 137.749609,15.1800781 C138.210028,14.7975241 138.861715,14.60625 139.704688,14.60625 C140.534119,14.60625 141.204425,14.8110657 141.715625,15.2207031 C142.213284,15.6235697 142.462109,16.2177044 142.462109,17.003125 L142.462109,22 Z M146.011719,17.1859375 C145.591925,17.1080725 145.175523,17.0606772 144.7625,17.04375 C144.576301,17.0369791 144.413803,17.0335938 144.275,17.0335938 C143.872133,17.0335938 143.653776,17.0454426 143.619922,17.0691406 C143.609766,17.0217446 143.604688,16.9726565 143.604688,16.921875 C143.604688,16.4716123 143.751952,16.0162783 144.046484,15.5558594 C144.422268,14.9701794 145.036714,14.6773437 145.889844,14.6773437 C146.126824,14.6773437 146.458592,14.739127 146.885156,14.8626953 C147.311721,14.9862636 147.626561,15.0480469 147.829688,15.0480469 C148.225783,15.0480469 148.496614,14.9244804 148.642188,14.6773437 L149.530859,15.1394531 C149.483463,15.2680996 149.385287,15.4018222 149.236328,15.540625 C149.023046,15.7403656 148.784376,15.8537759 148.520312,15.8808594 C148.367968,15.8977865 148.264714,15.90625 148.210547,15.90625 C147.943098,15.90625 147.570706,15.8300789 147.093359,15.6777344 C146.663409,15.5457025 146.335027,15.4796875 146.108203,15.4796875 C145.698566,15.4796875 145.378647,15.5829417 145.148438,15.7894531 C144.999478,15.9147142 144.879297,16.0975248 144.787891,16.3378906 C145.183986,16.3378906 145.649476,16.3785152 146.184375,16.4597656 C146.807295,16.5579432 147.311717,16.6950512 147.697656,16.8710938 C148.083596,17.0471363 148.345963,17.2621081 148.484766,17.5160156 C148.59987,17.7191416 148.657422,17.9290354 148.657422,18.1457031 L148.657422,20.6035156 C148.657422,21.0266948 148.520314,21.3872381 148.246094,21.6851562 C147.988801,21.9661472 147.653648,22.1066406 147.240625,22.1066406 C146.780206,22.1066406 146.419663,21.9627619 146.158984,21.675 C145.945702,21.4447905 145.839063,21.1638037 145.839063,20.8320312 C145.839063,20.4731753 145.957551,20.1761079 146.194531,19.9408203 C146.431512,19.7055327 146.729425,19.5878906 147.088281,19.5878906 C147.244011,19.5878906 147.360807,19.6014322 147.438672,19.6285156 L147.438672,18.2472656 C147.438672,18.0272124 147.384506,17.8460945 147.276172,17.7039062 C147.1069,17.4804676 146.68542,17.3078131 146.011719,17.1859375 Z M147.088281,21.390625 C147.240626,21.390625 147.370117,21.3356125 147.476758,21.2255859 C147.583399,21.1155593 147.636719,20.9843758 147.636719,20.8320312 C147.636719,20.6796867 147.582553,20.5493495 147.474219,20.4410156 C147.365885,20.3326817 147.23724,20.2785156 147.088281,20.2785156 C146.932551,20.2785156 146.799675,20.3318354 146.689648,20.4384766 C146.579622,20.5451177 146.524609,20.6763013 146.524609,20.8320312 C146.524609,20.9877612 146.578776,21.1197911 146.687109,21.228125 C146.795443,21.3364589 146.929166,21.390625 147.088281,21.390625 Z M156.122266,22 L154.405859,16.7390625 L152.684375,22 L151.551953,22 L151.551953,17.125 C151.345442,17.1453126 151.201563,17.1554687 151.120313,17.1554688 C150.774998,17.1554687 150.481316,17.0352877 150.239258,16.7949219 C149.997199,16.5545561 149.876172,16.2634132 149.876172,15.9214844 C149.876172,15.6472643 149.962499,15.3865898 150.135156,15.1394531 C150.324741,14.8686184 150.551561,14.7162762 150.815625,14.6824219 C151.018751,14.6587238 151.16263,14.646875 151.247266,14.646875 C151.714455,14.646875 152.081769,14.7941392 152.349219,15.0886719 C152.562501,15.3662774 152.669141,15.7183572 152.669141,16.1449219 L152.669141,18.6078125 L152.628516,19.4050781 L154.126563,14.7382812 L154.720703,14.7382812 L156.203516,19.4050781 L156.178125,18.6078125 L156.178125,14.7382812 L157.290234,14.7382812 L157.290234,22 L156.122266,22 Z M150.587109,15.9214844 C150.587109,16.067058 150.639583,16.1948562 150.744531,16.3048828 C150.84948,16.4149094 150.974739,16.4699219 151.120313,16.4699219 C151.269272,16.4699219 151.39707,16.4157558 151.503711,16.3074219 C151.610352,16.199088 151.663672,16.0704435 151.663672,15.9214844 C151.663672,15.7657544 151.612045,15.6328782 151.508789,15.5228516 C151.405533,15.412825 151.276042,15.3578125 151.120313,15.3578125 C150.967968,15.3578125 150.841016,15.4145177 150.739453,15.5279297 C150.63789,15.6413417 150.587109,15.7725253 150.587109,15.9214844 Z M163.526172,21.0808594 C163.692058,21.0808594 163.822395,21.0182298 163.917188,20.8929688 C163.998438,20.7880203 164.039062,20.6441415 164.039062,20.4613281 L164.039062,14.7382812 L165.257812,14.7382812 L165.257812,20.6492187 C165.257812,21.0148456 165.163022,21.3229154 164.973437,21.5734375 C164.75677,21.8578139 164.382685,22 163.851172,22 L159.316406,22 L159.316406,21.0808594 L159.803906,21.0808594 L159.803906,19.8519531 C159.803906,19.398305 159.90039,19.0377618 160.093359,18.7703125 C160.320183,18.4588526 160.599478,18.2760419 160.93125,18.221875 C160.433591,18.221875 160.029884,18.0737645 159.720117,17.7775391 C159.41035,17.4813136 159.255469,17.0860702 159.255469,16.5917969 C159.255469,15.9688771 159.490753,15.4746112 159.961328,15.1089844 C160.387893,14.7839827 160.924476,14.6214844 161.571094,14.6214844 C162.001044,14.6214844 162.349738,14.7298166 162.617188,14.9464844 C162.901564,15.1834647 163.04375,15.5135396 163.04375,15.9367188 C163.04375,16.4005232 162.879559,16.7373687 162.551172,16.9472656 C162.334504,17.082683 162.090757,17.1503906 161.819922,17.1503906 C161.224086,17.1503906 160.848308,16.9337261 160.692578,16.5003906 C160.638411,16.3582024 160.611328,16.2160163 160.611328,16.0738281 C160.611328,15.9417962 160.623177,15.8470055 160.646875,15.7894531 C160.538541,15.8029949 160.442058,15.8927075 160.357422,16.0585938 C160.286328,16.2041674 160.250781,16.33789 160.250781,16.4597656 C160.250781,17.1740921 160.672261,17.5888015 161.515234,17.7039062 C161.79284,17.7445315 162.067056,17.7648438 162.337891,17.7648438 L162.871094,17.7648438 L162.871094,18.5925781 L162.307422,18.5925781 C161.918097,18.5925781 161.623569,18.6805981 161.423828,18.8566406 C161.173306,19.0834647 161.048047,19.399998 161.048047,19.80625 L161.048047,21.0808594 L163.526172,21.0808594 Z M161.241016,15.9367188 C161.241016,16.0890633 161.297721,16.2194005 161.411133,16.3277344 C161.524545,16.4360682 161.655728,16.4902344 161.804688,16.4902344 C161.953647,16.4902344 162.08483,16.4352219 162.198242,16.3251953 C162.311654,16.2151687 162.368359,16.0856778 162.368359,15.9367188 C162.368359,15.5710919 162.180471,15.3882812 161.804688,15.3882812 C161.652343,15.3882812 161.520313,15.441601 161.408594,15.5482422 C161.296874,15.6548833 161.241016,15.7843742 161.241016,15.9367188 Z M171.925391,22 L170.711719,22 L170.711719,17.2011719 C170.711719,16.6290336 170.633855,16.2278657 170.478125,15.9976562 C170.210676,15.604946 169.755342,15.4085937 169.112109,15.4085937 C168.462106,15.4085937 167.949221,15.5897117 167.573438,15.9519531 C167.326301,16.185548 167.16211,16.4631494 167.080859,16.7847656 L166.380078,16.3582031 C166.539194,15.9011696 166.816795,15.5084652 167.212891,15.1800781 C167.67331,14.7975241 168.324996,14.60625 169.167969,14.60625 C169.9974,14.60625 170.667706,14.8110657 171.178906,15.2207031 C171.676565,15.6235697 171.925391,16.2177044 171.925391,17.003125 L171.925391,22 Z M178.384766,22 L178.384766,17.1351563 C178.384766,16.6239558 178.273048,16.2244806 178.049609,15.9367188 C177.761848,15.5846337 177.245577,15.4085937 176.500781,15.4085937 C176.223176,15.4085937 175.97435,15.4373695 175.754297,15.4949219 C175.568098,15.5423179 175.36836,15.6269525 175.155078,15.7488281 C174.911327,15.8842455 174.738672,15.9993485 174.637109,16.0941406 C174.511848,16.2160162 174.408594,16.315885 174.327344,16.39375 L176.180859,16.678125 L176.094531,17.2570313 C175.840624,17.2570313 175.651042,17.3213535 175.525781,17.45 C175.298957,17.6361988 175.185547,17.9019514 175.185547,18.2472656 L175.185547,22 L173.987109,22 L173.987109,18.2472656 C173.987109,17.9527329 174.053124,17.7191415 174.185156,17.5464844 C174.344272,17.3501292 174.503385,17.2401043 174.6625,17.2164062 C174.723438,17.2096354 174.760677,17.1825523 174.774219,17.1351563 L173.316797,16.9625 L173.392969,16.1855469 C173.541928,16.1246091 173.71966,15.9807303 173.926172,15.7539062 C174.203777,15.4492172 174.556704,15.181772 174.984961,14.9515625 C175.413218,14.721353 175.918487,14.60625 176.500781,14.60625 C177.208337,14.60625 177.777081,14.6976553 178.207031,14.8804687 C178.460939,14.9888026 178.689452,15.1394522 178.892578,15.3324219 C179.078777,15.505079 179.236197,15.71328 179.364844,15.9570312 C179.45625,16.1330738 179.515495,16.3006502 179.542578,16.4597656 C179.573047,16.6459645 179.588281,16.8575509 179.588281,17.0945312 L179.588281,22 L178.384766,22 Z M183.275,17.1859375 C182.855206,17.1080725 182.438804,17.0606772 182.025781,17.04375 C181.839582,17.0369791 181.677084,17.0335938 181.538281,17.0335938 C181.135415,17.0335938 180.917057,17.0454426 180.883203,17.0691406 C180.873047,17.0217446 180.867969,16.9726565 180.867969,16.921875 C180.867969,16.4716123 181.015233,16.0162783 181.309766,15.5558594 C181.685549,14.9701794 182.299996,14.6773437 183.153125,14.6773437 C183.390105,14.6773437 183.721873,14.739127 184.148438,14.8626953 C184.575002,14.9862636 184.889843,15.0480469 185.092969,15.0480469 C185.489064,15.0480469 185.759895,14.9244804 185.905469,14.6773437 L186.794141,15.1394531 C186.746745,15.2680996 186.648568,15.4018222 186.499609,15.540625 C186.286327,15.7403656 186.047658,15.8537759 185.783594,15.8808594 C185.631249,15.8977865 185.527995,15.90625 185.473828,15.90625 C185.206379,15.90625 184.833987,15.8300789 184.356641,15.6777344 C183.926691,15.5457025 183.598308,15.4796875 183.371484,15.4796875 C182.961847,15.4796875 182.641928,15.5829417 182.411719,15.7894531 C182.26276,15.9147142 182.142579,16.0975248 182.051172,16.3378906 C182.447268,16.3378906 182.912758,16.3785152 183.447656,16.4597656 C184.070576,16.5579432 184.574998,16.6950512 184.960938,16.8710938 C185.346877,17.0471363 185.609244,17.2621081 185.748047,17.5160156 C185.863152,17.7191416 185.920703,17.9290354 185.920703,18.1457031 L185.920703,20.6035156 C185.920703,21.0266948 185.783595,21.3872381 185.509375,21.6851562 C185.252082,21.9661472 184.916929,22.1066406 184.503906,22.1066406 C184.043487,22.1066406 183.682944,21.9627619 183.422266,21.675 C183.208983,21.4447905 183.102344,21.1638037 183.102344,20.8320312 C183.102344,20.4731753 183.220832,20.1761079 183.457812,19.9408203 C183.694793,19.7055327 183.992707,19.5878906 184.351562,19.5878906 C184.507292,19.5878906 184.624088,19.6014322 184.701953,19.6285156 L184.701953,18.2472656 C184.701953,18.0272124 184.647787,17.8460945 184.539453,17.7039062 C184.370181,17.4804676 183.948701,17.3078131 183.275,17.1859375 Z M184.351562,21.390625 C184.503907,21.390625 184.633398,21.3356125 184.740039,21.2255859 C184.84668,21.1155593 184.9,20.9843758 184.9,20.8320312 C184.9,20.6796867 184.845834,20.5493495 184.7375,20.4410156 C184.629166,20.3326817 184.500522,20.2785156 184.351562,20.2785156 C184.195833,20.2785156 184.062956,20.3318354 183.95293,20.4384766 C183.842903,20.5451177 183.787891,20.6763013 183.787891,20.8320312 C183.787891,20.9877612 183.842057,21.1197911 183.950391,21.228125 C184.058724,21.3364589 184.192447,21.390625 184.351562,21.390625 Z M193.8375,21.0046875 C193.759635,21.1096359 193.695313,21.2569001 193.644531,21.4464844 C193.603906,21.6022143 193.583594,21.7917958 193.583594,22.0152344 L192.339453,22 L192.339453,17.1351563 C192.339453,16.6476538 192.22435,16.2481786 191.994141,15.9367188 C191.726691,15.5846337 191.213806,15.4085937 190.455469,15.4085937 C189.947654,15.4085937 189.500783,15.5152333 189.114844,15.7285156 C188.908332,15.8470058 188.747527,15.9553381 188.632422,16.0535156 C188.551171,16.1313806 188.427605,16.2447909 188.261719,16.39375 L190.115234,16.678125 L190.028906,17.2570313 C189.798697,17.2570313 189.604037,17.3247389 189.444922,17.4601563 C189.258723,17.6192716 189.165625,17.847785 189.165625,18.1457031 L189.165625,19.6285156 C189.260417,19.6014322 189.380598,19.5878906 189.526172,19.5878906 C189.885028,19.5878906 190.183788,19.706379 190.422461,19.9433594 C190.661134,20.1803397 190.780469,20.4765607 190.780469,20.8320312 C190.780469,21.1638037 190.672983,21.4464832 190.458008,21.6800781 C190.243033,21.913673 189.969663,22.045703 189.637891,22.0761719 C189.546484,22.0998699 189.455079,22.1117188 189.363672,22.1117188 C188.95742,22.1117188 188.612111,21.9559911 188.327734,21.6445312 C188.067056,21.3736966 187.936719,21.0266948 187.936719,20.6035156 L187.936719,18.2472656 C187.936719,17.9595038 188.011197,17.7216806 188.160156,17.5337891 C188.309115,17.3458975 188.458072,17.2401043 188.607031,17.2164062 C188.657813,17.2096354 188.689974,17.1994792 188.703516,17.1859375 L188.733984,17.1351563 L187.271484,16.9625 L187.357812,16.1855469 C187.479688,16.1381508 187.643879,16.0061209 187.850391,15.7894531 C188.185549,15.4407535 188.542706,15.1631521 188.921875,14.9566406 C189.345054,14.7230457 189.856247,14.60625 190.455469,14.60625 C191.173181,14.60625 191.741925,14.6976553 192.161719,14.8804687 C192.666148,15.1005219 193.062238,15.4796848 193.35,16.0179688 C193.495574,16.2921889 193.568359,16.6510394 193.568359,17.0945312 L193.568359,20.1464844 C193.700391,19.9569001 193.89759,19.7986334 194.159961,19.6716797 C194.422332,19.5447259 194.719399,19.43724 195.051172,19.3492187 C195.217058,19.2510412 195.3,19.1528651 195.3,19.0546875 L195.3,14.7382812 L196.51875,14.7382812 L196.51875,19.0089844 C196.51875,19.208725 196.469662,19.3542964 196.371484,19.4457031 C196.303776,19.5167972 196.200522,19.572656 196.061719,19.6132812 L196.188672,19.6488281 C196.337631,19.7097659 196.491666,19.8214836 196.650781,19.9839844 C196.867449,20.207423 196.975781,20.4647121 196.975781,20.7558594 C196.979167,20.7795574 196.980859,20.8032551 196.980859,20.8269531 L196.980859,20.8929688 C196.980859,21.1875015 196.869142,21.4541004 196.645703,21.6927734 C196.422265,21.9314465 196.137892,22.0694009 195.792578,22.1066406 C195.315232,22.1066406 194.958074,21.9627619 194.721094,21.675 C194.626302,21.5565098 194.555209,21.434636 194.507812,21.309375 C194.467187,21.1976557 194.440104,21.0723965 194.426562,20.9335938 C194.423177,20.9166666 194.421484,20.8912762 194.421484,20.8574219 L194.421484,20.8015625 C194.421484,20.6695306 194.448567,20.535808 194.502734,20.4003906 C194.340234,20.4680993 194.206511,20.5493485 194.101562,20.6441406 C193.979687,20.7592454 193.891667,20.8794265 193.8375,21.0046875 Z M195.716406,20.2785156 C195.330467,20.2785156 195.1375,20.4765605 195.1375,20.8726562 C195.1375,21.2315122 195.325389,21.4109375 195.701172,21.4109375 C196.066799,21.4109375 196.249609,21.2315122 196.249609,20.8726562 C196.249609,20.4765605 196.071877,20.2785156 195.716406,20.2785156 Z M190.074609,20.8320312 C190.074609,20.6763013 190.02129,20.5451177 189.914648,20.4384766 C189.808007,20.3318354 189.678516,20.2785156 189.526172,20.2785156 C189.373827,20.2785156 189.24349,20.3326817 189.135156,20.4410156 C189.026822,20.5493495 188.972656,20.6796867 188.972656,20.8320312 C188.972656,20.9843758 189.025976,21.1155593 189.132617,21.2255859 C189.239258,21.3356125 189.370442,21.390625 189.526172,21.390625 C189.891799,21.390625 190.074609,21.2044289 190.074609,20.8320312 Z M196.285241,11.5645076 C196.610186,11.7743995 196.772656,12.0604462 196.772656,12.4226562 C196.772656,12.764585 196.660092,13.0464182 196.434961,13.2681641 C196.20983,13.48991 195.929689,13.6007812 195.594531,13.6007812 C195.249217,13.6007812 194.954689,13.4992198 194.710938,13.2960937 C194.443488,13.0726551 194.309766,12.7832049 194.309766,12.4277344 L194.309766,12.3210937 C194.309766,11.9656232 194.477342,11.6694022 194.8125,11.4324219 C195.052866,11.2631502 195.338931,11.1361983 195.670703,11.0515625 C195.931382,10.9872393 196.197134,10.922917 196.467969,10.8585937 C196.765887,10.767187 196.997786,10.6351571 197.163672,10.4625 C197.404038,10.2187488 197.53776,9.87343973 197.564844,9.4265625 L198.666797,9.69570312 C198.666797,9.93606891 198.629558,10.1561188 198.555078,10.3558594 C198.406119,10.6402358 198.189455,10.8772126 197.905078,11.0667969 C197.641014,11.239454 197.227998,11.3833328 196.666016,11.4984375 C196.470602,11.540777 196.345688,11.5627503 196.29127,11.5643579 L196.285241,11.5645076 Z M195.533594,11.8945312 C195.18828,11.8945312 195.015625,12.0671858 195.015625,12.4125 L195.015625,12.4785156 C195.015625,12.8373716 195.18828,13.0167969 195.533594,13.0167969 C195.885679,13.0167969 196.061719,12.8272154 196.061719,12.4480469 C196.061719,12.0790346 195.885679,11.8945312 195.533594,11.8945312 Z M203.485938,22 L203.485938,17.0691406 C203.485938,16.5477839 203.348829,16.1550794 203.074609,15.8910156 C203.020442,15.8537759 202.935808,15.7962243 202.820703,15.7183594 C202.79362,15.6980468 202.754688,15.6878906 202.703906,15.6878906 C202.670052,15.6878906 202.510939,15.7615227 202.226562,15.9087891 C201.942186,16.0560554 201.689975,16.1296875 201.469922,16.1296875 C201.273567,16.1296875 201.049285,16.0585945 200.79707,15.9164062 C200.544856,15.774218 200.406901,15.703125 200.383203,15.703125 C200.31888,15.703125 200.220704,15.7454423 200.088672,15.8300781 C199.990494,15.8910159 199.907552,15.9654944 199.839844,16.0535156 C199.602863,16.3446629 199.484375,16.7915334 199.484375,17.3941406 C199.484375,17.7259131 199.519922,18.0475245 199.591016,18.3589844 L199.783984,19.2425781 C199.932943,19.9027377 200.007422,20.4410135 200.007422,20.8574219 C200.146225,20.5967435 200.357811,20.2903663 200.642188,19.9382812 L201.276953,19.1511719 C201.016275,19.1714845 200.789454,19.0902353 200.596484,18.9074219 C200.329035,18.6568998 200.195312,18.34883 200.195312,17.9832031 C200.195312,17.529555 200.386587,17.1774752 200.769141,16.9269531 C200.989194,16.7847649 201.238019,16.7136719 201.515625,16.7136719 L201.601953,16.7136719 C201.784767,16.7407553 201.965885,16.7661457 202.145312,16.7898437 C202.294272,16.8372398 202.441536,16.9726551 202.587109,17.1960937 C202.759766,17.4736993 202.846094,17.7665349 202.846094,18.0746094 C202.846094,18.321746 202.688673,18.6772112 202.373828,19.1410156 C202.319661,19.2188806 202.031904,19.58958 201.510547,20.253125 C201.415755,20.3716152 201.300652,20.5290355 201.165234,20.7253906 L200.774219,21.2839844 C200.615103,21.507423 200.472917,21.7460925 200.347656,22 L198.895312,22 C198.895312,21.9695311 198.897005,21.9212894 198.900391,21.8552734 C198.903776,21.7892575 198.905469,21.7393231 198.905469,21.7054688 C198.905469,21.2619769 198.863151,20.7643257 198.778516,20.2125 C198.666796,19.7486956 198.511069,19.0479214 198.311328,18.1101562 C198.263932,17.8867176 198.240234,17.6311212 198.240234,17.3433594 C198.240234,16.9506491 198.321484,16.5596374 198.483984,16.1703125 C198.660027,15.7539042 198.895311,15.4339855 199.189844,15.2105469 C199.636721,14.8753889 200.054816,14.6790367 200.444141,14.6214844 C200.528776,14.6079426 200.697199,14.7128895 200.949414,14.9363281 C201.201629,15.1597667 201.403905,15.2714844 201.55625,15.2714844 C201.722136,15.2714844 201.937108,15.1631521 202.201172,14.9464844 C202.465236,14.7298166 202.632812,14.6214844 202.703906,14.6214844 C202.903647,14.6214844 203.125389,14.6790359 203.369141,14.7941406 C203.589194,14.9058599 203.785546,15.0598949 203.958203,15.25625 C204.229038,15.5643245 204.416927,15.8588528 204.521875,16.1398438 C204.633594,16.4411473 204.689453,16.7729149 204.689453,17.1351563 L204.689453,22 L203.485938,22 Z M200.946875,17.9984375 C200.946875,18.150782 201.004427,18.2811192 201.119531,18.3894531 C201.234636,18.497787 201.366666,18.5519531 201.515625,18.5519531 C201.671355,18.5519531 201.804231,18.4986333 201.914258,18.3919922 C202.024284,18.285351 202.079297,18.1541674 202.079297,17.9984375 C202.079297,17.6328107 201.891408,17.45 201.515625,17.45 C201.36328,17.45 201.230404,17.5033198 201.116992,17.6099609 C201.00358,17.7166021 200.946875,17.846093 200.946875,17.9984375 Z M205.735547,12.1890625 C206.206122,11.833592 206.441406,11.3545603 206.441406,10.7519531 L207.65,10.7519531 C207.65,11.4087272 207.326696,12.0028619 206.680078,12.534375 C205.986064,13.1098987 205.237895,13.3976562 204.435547,13.3976562 C203.683981,13.3976562 203.115236,13.3028655 202.729297,13.1132812 C202.211326,12.8796863 201.952344,12.49206 201.952344,11.9503906 C201.952344,11.6084618 202.069139,11.3156262 202.302734,11.071875 C202.566798,10.8382801 202.873175,10.7214844 203.221875,10.7214844 C203.587502,10.7214844 203.885416,10.8196605 204.115625,11.0160156 C204.383074,11.2462251 204.516797,11.5390607 204.516797,11.8945312 C204.516797,12.2330746 204.418621,12.4954418 204.222266,12.6816406 C204.25612,12.6850261 204.284896,12.6867187 204.308594,12.6867187 C204.853649,12.6867187 205.329295,12.520835 205.735547,12.1890625 Z M202.668359,11.9402344 C202.668359,12.0925789 202.722526,12.2288405 202.830859,12.3490234 C202.939193,12.4692063 203.06953,12.5292969 203.221875,12.5292969 C203.38099,12.5292969 203.518945,12.4717454 203.635742,12.3566406 C203.75254,12.2415359 203.810938,12.1027352 203.810938,11.9402344 C203.810938,11.7878899 203.750001,11.6533209 203.628125,11.5365234 C203.506249,11.419726 203.370834,11.3613281 203.221875,11.3613281 C203.072916,11.3613281 202.943425,11.4205723 202.833398,11.5390625 C202.723372,11.6575527 202.668359,11.7912753 202.668359,11.9402344 Z M211.392578,20.6035156 C211.392578,21.0131531 211.248699,21.3736964 210.960938,21.6851562 C210.700259,21.9661472 210.370184,22.1066406 209.970703,22.1066406 C209.889453,22.1066406 209.79974,22.0964845 209.701562,22.0761719 C209.36979,22.045703 209.093881,21.913673 208.873828,21.6800781 C208.653775,21.4464832 208.54375,21.1638037 208.54375,20.8320312 C208.54375,20.4799462 208.668163,20.1845715 208.916992,19.9458984 C209.165822,19.7072254 209.466274,19.5878906 209.818359,19.5878906 C209.957162,19.5878906 210.080729,19.6014322 210.189062,19.6285156 L210.189062,17.2011719 C210.189062,16.632419 210.111199,16.2312512 209.955469,15.9976562 C209.69479,15.604946 209.239456,15.4085937 208.589453,15.4085937 C207.949606,15.4085937 207.440106,15.588019 207.060937,15.946875 C206.817186,16.1770845 206.644532,16.4563786 206.542969,16.7847656 L205.877734,16.3582031 C206.047006,15.8842424 206.333071,15.4779965 206.735937,15.1394531 C207.159117,14.7839826 207.790491,14.60625 208.630078,14.60625 C209.473051,14.60625 210.150128,14.8110657 210.661328,15.2207031 C211.148831,15.6134134 211.392578,16.2075481 211.392578,17.003125 L211.392578,20.6035156 Z M209.818359,21.390625 C210.183986,21.390625 210.366797,21.2044289 210.366797,20.8320312 C210.366797,20.6763013 210.314323,20.5451177 210.209375,20.4384766 C210.104427,20.3318354 209.974089,20.2785156 209.818359,20.2785156 C209.666015,20.2785156 209.533985,20.3326817 209.422266,20.4410156 C209.310546,20.5493495 209.254687,20.6796867 209.254687,20.8320312 C209.254687,20.9843758 209.3097,21.1155593 209.419727,21.2255859 C209.529753,21.3356125 209.662629,21.390625 209.818359,21.390625 Z M214.505469,14.7382812 L214.505469,19.6285156 C214.600261,19.6014322 214.718749,19.5878906 214.860938,19.5878906 C215.219793,19.5878906 215.5194,19.706379 215.759766,19.9433594 C216.000131,20.1803397 216.120313,20.4765607 216.120313,20.8320312 C216.120313,21.1705746 216.013673,21.4549468 215.800391,21.6851562 C215.587108,21.9153657 215.312892,22.045703 214.977734,22.0761719 C214.886328,22.0998699 214.79323,22.1117188 214.698438,22.1117188 C214.302342,22.1117188 213.962111,21.9559911 213.677734,21.6445312 C213.430598,21.3804674 213.307031,21.0334657 213.307031,20.6035156 L213.307031,14.7382812 L214.505469,14.7382812 Z M215.439844,20.8320312 C215.439844,20.6729159 215.383139,20.5408859 215.269727,20.4359375 C215.156315,20.3309891 215.020053,20.2785156 214.860938,20.2785156 C214.711978,20.2785156 214.583334,20.3326817 214.475,20.4410156 C214.366666,20.5493495 214.3125,20.6796867 214.3125,20.8320312 C214.3125,20.9843758 214.36582,21.1155593 214.472461,21.2255859 C214.579102,21.3356125 214.708593,21.390625 214.860938,21.390625 C215.020053,21.390625 215.156315,21.3364589 215.269727,21.228125 C215.383139,21.1197911 215.439844,20.9877612 215.439844,20.8320312 Z M218.679688,19.6285156 C218.838803,19.5709633 218.997916,19.5421875 219.157031,19.5421875 C219.512502,19.5421875 219.811262,19.6649076 220.05332,19.9103516 C220.295379,20.1557955 220.416406,20.4562482 220.416406,20.8117188 C220.416406,21.0825534 220.328386,21.3432279 220.152344,21.59375 C219.959374,21.8578138 219.734246,22.0067707 219.476953,22.040625 C219.267056,22.064323 219.12487,22.0761719 219.050391,22.0761719 C218.620441,22.0761719 218.248048,21.9170589 217.933203,21.5988281 C217.59466,21.2568993 217.425391,20.6153693 217.425391,19.6742188 C217.425391,18.6247343 217.587889,17.8934916 217.912891,17.4804688 C218.285288,17.0031226 218.769398,16.7644531 219.365234,16.7644531 C219.700392,16.7644531 220.05755,16.8541658 220.436719,17.0335938 C220.856513,17.2367198 221.235675,17.641273 221.574219,18.2472656 C221.689323,18.4503916 221.777343,18.6095046 221.838281,18.7246094 L221.838281,17.2011719 C221.838281,16.6527316 221.753647,16.2549492 221.584375,16.0078125 C221.306769,15.6083313 220.77865,15.4085937 220,15.4085937 C219.322913,15.4085937 218.771096,15.538931 218.344531,15.7996094 C218.077082,15.9654956 217.828256,16.2346336 217.598047,16.6070312 L216.932813,16.0890625 L217.374609,15.5457031 C217.601433,15.3256499 217.843488,15.14961 218.100781,15.0175781 C218.341147,14.8957025 218.635675,14.794141 218.984375,14.7128906 C219.292449,14.6417965 219.641144,14.60625 220.030469,14.60625 C221.523445,14.60625 222.471352,15.061584 222.874219,15.9722656 C223.006251,16.2769546 223.072266,16.620571 223.072266,17.003125 L223.072266,22 L221.838281,22 L221.838281,21.3347656 C221.838281,20.6678352 221.643622,19.9382852 221.254297,19.1460937 C220.736326,18.1033802 220.176045,17.5820312 219.573438,17.5820312 C219.177342,17.5820312 218.913282,17.7868469 218.78125,18.1964844 C218.693229,18.4673191 218.649219,18.7720035 218.649219,19.1105469 C218.649219,19.3746107 218.659375,19.5472652 218.679688,19.6285156 Z M219.690234,20.8117188 C219.690234,20.6627597 219.638607,20.5324224 219.535352,20.4207031 C219.432096,20.3089838 219.30599,20.253125 219.157031,20.253125 C219.001301,20.253125 218.870964,20.3081375 218.766016,20.4181641 C218.661067,20.5281907 218.608594,20.6593742 218.608594,20.8117188 C218.608594,20.9640633 218.661914,21.0944005 218.768555,21.2027344 C218.875196,21.3110682 219.004687,21.3652344 219.157031,21.3652344 C219.299219,21.3652344 219.423632,21.3085292 219.530273,21.1951172 C219.636915,21.0817052 219.690234,20.953907 219.690234,20.8117188 Z M230.450781,14.7382812 L230.450781,20.6035156 C230.450781,20.9792988 230.362761,21.2924467 230.186719,21.5429688 C229.885415,21.8476578 229.489325,22 228.998438,22 L225.321875,22 L225.321875,21.0960938 L226.063281,21.0960938 L226.063281,19.6742188 C226.063281,19.3119774 226.283331,18.8634141 226.723437,18.3285156 C227.085679,17.8884093 227.326041,17.5177098 227.444531,17.2164062 C227.529167,16.9929676 227.571484,16.7509128 227.571484,16.4902344 C227.571484,16.1990871 227.485157,15.9485688 227.3125,15.7386719 C227.126301,15.505077 226.89271,15.3882812 226.611719,15.3882812 L226.520312,15.3882812 C226.489844,15.3882812 226.461068,15.3865886 226.433984,15.3832031 C226.020961,15.3832031 225.777214,15.4830719 225.702734,15.6828125 C226.081903,15.6828125 226.354426,15.8148424 226.520312,16.0789062 C226.69297,16.3565118 226.779297,16.6104155 226.779297,16.840625 C226.779297,17.0539073 226.720053,17.2654937 226.601562,17.4753906 C226.472916,17.7022147 226.313803,17.8477861 226.124219,17.9121094 C225.887238,18.0001306 225.687501,18.0441406 225.525,18.0441406 C225.264322,18.0441406 225.008725,17.9527353 224.758203,17.7699219 C224.497525,17.5735667 224.350261,17.3484388 224.316406,17.0945312 C224.282552,16.9015615 224.265625,16.7593755 224.265625,16.6679688 C224.265625,16.0585907 224.485675,15.557554 224.925781,15.1648437 C225.308335,14.8195295 225.865231,14.646875 226.596484,14.646875 C227.138154,14.646875 227.596873,14.7958318 227.972656,15.09375 C228.436461,15.4593768 228.668359,15.9333304 228.668359,16.515625 C228.668359,17.1927117 228.412763,17.8579394 227.901563,18.5113281 C227.637499,18.8498715 227.490235,19.0462237 227.459766,19.1003906 C227.327734,19.3170584 227.261719,19.5489571 227.261719,19.7960938 L227.261719,21.0960938 L228.729297,21.0960938 C228.857943,21.0960938 228.991666,21.0266934 229.130469,20.8878906 C229.188021,20.7795568 229.216797,20.6272145 229.216797,20.4308594 L229.216797,14.7382812 L230.450781,14.7382812 Z M225.0375,16.8710938 C225.0375,17.013282 225.085742,17.1376948 225.182227,17.2443359 C225.278711,17.3509771 225.398046,17.4042969 225.540234,17.4042969 C225.895705,17.4042969 226.073438,17.2265643 226.073438,16.8710938 C226.073438,16.5156232 225.895705,16.3378906 225.540234,16.3378906 C225.401432,16.3378906 225.282943,16.3920568 225.184766,16.5003906 C225.086588,16.6087245 225.0375,16.732291 225.0375,16.8710938 Z M237.692187,15.4492188 C237.83099,15.5981778 237.944401,15.7860666 238.032422,16.0128906 C238.161068,16.3345068 238.225391,16.6645816 238.225391,17.003125 L238.225391,22 L237.016797,22 L237.016797,21.3347656 C237.016797,20.705075 236.813674,19.9772177 236.407422,19.1511719 C235.889451,18.1050729 235.325784,17.5820312 234.716406,17.5820312 C234.316925,17.5820312 234.044402,17.8037738 233.898828,18.2472656 C233.834505,18.4537771 233.802344,18.7144516 233.802344,19.0292969 C233.802344,19.2121103 233.815885,19.4118479 233.842969,19.6285156 C234.002084,19.5709633 234.154426,19.5421875 234.3,19.5421875 C234.655471,19.5421875 234.955077,19.6649076 235.198828,19.9103516 C235.442579,20.1557955 235.564453,20.4562482 235.564453,20.8117188 C235.564453,21.0825534 235.47474,21.3415352 235.295313,21.5886719 C235.105728,21.8561211 234.882293,22.0067707 234.625,22.040625 C234.421874,22.064323 234.283073,22.0761719 234.208594,22.0761719 C233.768487,22.0761719 233.39271,21.9170589 233.08125,21.5988281 C232.749478,21.2670556 232.583594,20.6255256 232.583594,19.6742188 C232.583594,18.6382761 232.749478,17.9070334 233.08125,17.4804688 C233.443491,17.0031226 233.922523,16.7644531 234.518359,16.7644531 C234.856903,16.7644531 235.214061,16.8541658 235.589844,17.0335938 C236.026565,17.2401052 236.439581,17.685283 236.828906,18.3691406 C236.872917,18.4470056 236.935546,18.565494 237.016797,18.7246094 L237.016797,17.2011719 C237.016797,16.6730442 236.925392,16.2752618 236.742578,16.0078125 C236.464973,15.6083313 235.938546,15.4085938 235.163281,15.4085938 C234.465882,15.4085938 233.919143,15.5313139 233.523047,15.7767578 C233.126951,16.0222017 232.873047,16.2989568 232.761328,16.6070312 L232.096094,16.0890625 L232.532813,15.5457031 C232.769793,15.3188791 233.00677,15.1445319 233.24375,15.0226563 C233.48073,14.9007806 233.778644,14.7975265 234.1375,14.7128906 C234.452345,14.6417965 234.804425,14.60625 235.19375,14.60625 C235.887764,14.60625 236.45143,14.699348 236.884766,14.8855469 C237.03711,14.7805984 237.153906,14.6671881 237.235156,14.5453125 C237.353646,14.392968 237.412891,14.189845 237.412891,13.9359375 L238.702734,14.2660156 C238.702734,14.6553405 238.484377,14.9888007 238.047656,15.2664062 C237.925781,15.3442712 237.807292,15.4052081 237.692187,15.4492188 Z M234.848437,20.8117188 C234.848437,20.6593742 234.795964,20.5281907 234.691016,20.4181641 C234.586067,20.3081375 234.45573,20.253125 234.3,20.253125 C234.154426,20.253125 234.029167,20.3098302 233.924219,20.4232422 C233.81927,20.5366542 233.766797,20.6661451 233.766797,20.8117188 C233.766797,20.9606778 233.81927,21.0901687 233.924219,21.2001953 C234.029167,21.3102219 234.154426,21.3652344 234.3,21.3652344 C234.452345,21.3652344 234.581835,21.3110682 234.688477,21.2027344 C234.795118,21.0944005 234.848437,20.9640633 234.848437,20.8117188 Z M237.179297,25.5953125 L237.179297,24.8082031 C237.131901,24.8251303 237.069271,24.8335937 236.991406,24.8335937 C236.622394,24.8335937 236.334636,24.7269542 236.128125,24.5136719 C235.945312,24.3207022 235.853906,24.0735692 235.853906,23.7722656 C235.853906,23.3016904 236.065493,22.980079 236.488672,22.8074219 C236.674871,22.7295569 236.872916,22.690625 237.082812,22.690625 C237.49245,22.690625 237.824217,22.8429672 238.078125,23.1476563 C238.281251,23.3914075 238.382812,23.7739557 238.382812,24.2953125 L238.382812,25.5953125 L237.179297,25.5953125 Z M237.001563,23.2695312 C236.666405,23.2695312 236.498828,23.4472638 236.498828,23.8027344 C236.498828,24.151434 236.678253,24.3257812 237.037109,24.3257812 C237.39258,24.3257812 237.570312,24.1378925 237.570312,23.7621094 C237.529687,23.4337223 237.340106,23.2695312 237.001563,23.2695312 Z M245.182422,22 L245.182422,17.0691406 C245.182422,16.5680965 245.03008,16.1720067 244.725391,15.8808594 C244.393618,15.5660141 243.884118,15.4085937 243.196875,15.4085937 C242.617966,15.4085937 242.14909,15.5693994 241.790234,15.8910156 C241.383982,16.2600279 241.180859,16.7610645 241.180859,17.3941406 C241.180859,17.7259131 241.216406,18.0475245 241.2875,18.3589844 L241.480469,19.2425781 C241.629428,19.9027377 241.703906,20.4410135 241.703906,20.8574219 C241.951043,20.4342427 242.267576,19.9501329 242.653516,19.4050781 C242.772006,19.2391919 242.878645,19.0919277 242.973437,18.9632813 C242.692447,18.9294269 242.421616,18.7940116 242.160937,18.5570313 C241.98151,18.3945304 241.891797,18.1304706 241.891797,17.7648438 C241.891797,17.5888012 241.920573,17.4296882 241.978125,17.2875 C242.194793,16.7526015 242.612888,16.4851562 243.232422,16.4851562 C243.719924,16.4851562 244.070311,16.65104 244.283594,16.9828125 C244.456251,17.2638035 244.542578,17.5583318 244.542578,17.8664063 C244.542578,18.0796886 244.397007,18.4182268 244.105859,18.8820313 C243.865494,19.2307309 243.508336,19.7520799 243.034375,20.4460937 C242.851562,20.713543 242.590887,21.1164036 242.252344,21.6546875 C242.167708,21.7968757 242.098308,21.9119787 242.044141,22 L240.591797,22 C240.591797,21.9695311 240.59349,21.9212894 240.596875,21.8552734 C240.60026,21.7892575 240.601953,21.7393231 240.601953,21.7054688 C240.601953,21.2619769 240.559636,20.7643257 240.475,20.2125 C240.363281,19.7486956 240.207553,19.0479214 240.007812,18.1101562 C239.960416,17.8867176 239.936719,17.6311212 239.936719,17.3433594 C239.936719,16.4766884 240.256637,15.7962264 240.896484,15.3019531 C241.502477,14.8381487 242.274344,14.60625 243.212109,14.60625 C244.288677,14.60625 245.091013,14.8279926 245.619141,15.2714844 C246.130341,15.7014344 246.385938,16.3226522 246.385938,17.1351563 L246.385938,22 L245.182422,22 Z M242.643359,17.7902344 C242.643359,17.9391935 242.701757,18.0686843 242.818555,18.1787109 C242.935352,18.2887375 243.066536,18.34375 243.212109,18.34375 C243.364454,18.34375 243.496484,18.2895839 243.608203,18.18125 C243.719922,18.0729161 243.775781,17.9425789 243.775781,17.7902344 C243.775781,17.631119 243.721615,17.4982427 243.613281,17.3916016 C243.504947,17.2849604 243.371225,17.2316406 243.212109,17.2316406 C243.059765,17.2316406 242.926889,17.2866531 242.813477,17.3966797 C242.700065,17.5067063 242.643359,17.6378899 242.643359,17.7902344 Z M249.321094,17.125 C249.104426,17.1453126 248.974089,17.1554687 248.930078,17.1554688 C248.588149,17.1554687 248.298699,17.0352877 248.061719,16.7949219 C247.824738,16.5545561 247.70625,16.2634132 247.70625,15.9214844 C247.70625,15.6472643 247.792577,15.3865898 247.965234,15.1394531 C248.151433,14.8686184 248.374868,14.7162762 248.635547,14.6824219 C248.842058,14.6587238 248.984244,14.646875 249.062109,14.646875 C249.529299,14.646875 249.893228,14.7941392 250.153906,15.0886719 C250.397657,15.3696629 250.519531,15.7217427 250.519531,16.1449219 L250.519531,17.8105469 L250.382422,18.8871094 L250.565234,18.2777344 C250.588932,18.196484 250.698957,17.9070337 250.895312,17.409375 C251.257554,16.4783808 251.638409,15.7572942 252.037891,15.2460938 C252.224089,15.0091134 252.357812,14.8618492 252.439063,14.8042969 C252.571094,14.7061193 252.75052,14.6570312 252.977344,14.6570312 C253.481773,14.6570312 253.891405,14.8330712 254.20625,15.1851562 C254.504168,15.5203142 254.653125,15.9451797 254.653125,16.4597656 L254.653125,22 L253.454688,22 L253.454688,16.3378906 C253.454688,15.9417949 253.276955,15.7488281 252.921484,15.7589844 C252.738671,15.7657552 252.457684,16.1516889 252.078516,16.9167969 C251.824608,17.4279973 251.613022,17.9104144 251.44375,18.3640625 C251.105207,19.2679733 250.837761,20.2311147 250.641406,21.2535156 C250.560156,21.6733094 250.519531,21.922135 250.519531,22 L249.321094,22 L249.321094,17.125 Z M248.386719,15.9214844 C248.386719,16.0636726 248.441731,16.1906244 248.551758,16.3023437 C248.661784,16.4140631 248.78789,16.4699219 248.930078,16.4699219 C249.082423,16.4699219 249.215299,16.4157558 249.328711,16.3074219 C249.442123,16.199088 249.498828,16.0704435 249.498828,15.9214844 C249.498828,15.762369 249.443816,15.6286464 249.333789,15.5203125 C249.223762,15.4119786 249.089194,15.3578125 248.930078,15.3578125 C248.781119,15.3578125 248.653321,15.4145177 248.54668,15.5279297 C248.440039,15.6413417 248.386719,15.7725253 248.386719,15.9214844 Z M252.550781,12.3972656 C252.496614,12.4074219 252.420443,12.4125 252.322266,12.4125 C251.929555,12.4125 251.638412,12.2855481 251.448828,12.0316406 C251.326953,11.8759107 251.266016,11.6727877 251.266016,11.4222656 C251.266016,10.9076797 251.519919,10.5725268 252.027734,10.4167969 C252.156381,10.3761717 252.286718,10.3558594 252.41875,10.3558594 C252.831773,10.3558594 253.141535,10.511587 253.348047,10.8230469 C253.53086,11.0904961 253.622266,11.3562487 253.622266,11.6203125 C253.622266,11.7421881 253.605339,11.8640619 253.571484,11.9859375 C253.490234,12.2770848 253.353126,12.5055981 253.160156,12.6714844 C253.684898,12.5428379 254.07591,12.3244807 254.333203,12.0164062 C254.695445,11.5864562 254.876563,11.1328149 254.876563,10.6554687 L256.029297,10.6554687 C256.029297,11.4341185 255.643363,12.1078097 254.871484,12.6765625 C254.05898,13.289326 253.026439,13.5957031 251.773828,13.5957031 L251.773828,13.0625 C251.946485,13.0625 252.132681,12.9863289 252.332422,12.8339844 C252.477996,12.6884107 252.550781,12.5428393 252.550781,12.3972656 Z M252.332422,10.9296875 C252.014191,10.9296875 251.855078,11.0921859 251.855078,11.4171875 C251.899089,11.7388037 252.076821,11.8996094 252.388281,11.8996094 C252.682814,11.8996094 252.830078,11.7303402 252.830078,11.3917969 C252.830078,11.0837224 252.664194,10.9296875 252.332422,10.9296875 Z M261.254687,22 L260.041016,22 L260.041016,17.2011719 C260.041016,16.6290336 259.963152,16.2278657 259.807422,15.9976562 C259.539973,15.604946 259.084639,15.4085937 258.441406,15.4085937 C257.791403,15.4085937 257.278518,15.5897117 256.902734,15.9519531 C256.655598,16.185548 256.491407,16.4631494 256.410156,16.7847656 L255.709375,16.3582031 C255.86849,15.9011696 256.146092,15.5084652 256.542188,15.1800781 C257.002606,14.7975241 257.654293,14.60625 258.497266,14.60625 C259.326697,14.60625 259.997003,14.8110657 260.508203,15.2207031 C261.005862,15.6235697 261.254687,16.2177044 261.254687,17.003125 L261.254687,22 Z M267.378906,21.0808594 C267.544792,21.0808594 267.67513,21.0182298 267.769922,20.8929688 C267.851172,20.7880203 267.891797,20.6441415 267.891797,20.4613281 L267.891797,14.7382812 L269.110547,14.7382812 L269.110547,20.6492187 C269.110547,21.0148456 269.015756,21.3229154 268.826172,21.5734375 C268.609504,21.8578139 268.235419,22 267.703906,22 L263.169141,22 L263.169141,21.0808594 L263.656641,21.0808594 L263.656641,19.8519531 C263.656641,19.398305 263.753124,19.0377618 263.946094,18.7703125 C264.172918,18.4588526 264.452212,18.2760419 264.783984,18.221875 C264.286326,18.221875 263.882619,18.0737645 263.572852,17.7775391 C263.263084,17.4813136 263.108203,17.0860702 263.108203,16.5917969 C263.108203,15.9688771 263.343487,15.4746112 263.814062,15.1089844 C264.240627,14.7839827 264.77721,14.6214844 265.423828,14.6214844 C265.853778,14.6214844 266.202473,14.7298166 266.469922,14.9464844 C266.754298,15.1834647 266.896484,15.5135396 266.896484,15.9367188 C266.896484,16.4005232 266.732293,16.7373687 266.403906,16.9472656 C266.187238,17.082683 265.943491,17.1503906 265.672656,17.1503906 C265.07682,17.1503906 264.701042,16.9337261 264.545313,16.5003906 C264.491146,16.3582024 264.464063,16.2160163 264.464063,16.0738281 C264.464063,15.9417962 264.475911,15.8470055 264.499609,15.7894531 C264.391276,15.8029949 264.294792,15.8927075 264.210156,16.0585938 C264.139062,16.2041674 264.103516,16.33789 264.103516,16.4597656 C264.103516,17.1740921 264.524996,17.5888015 265.367969,17.7039062 C265.645574,17.7445315 265.91979,17.7648438 266.190625,17.7648438 L266.723828,17.7648438 L266.723828,18.5925781 L266.160156,18.5925781 C265.770831,18.5925781 265.476303,18.6805981 265.276563,18.8566406 C265.02604,19.0834647 264.900781,19.399998 264.900781,19.80625 L264.900781,21.0808594 L267.378906,21.0808594 Z M265.09375,15.9367188 C265.09375,16.0890633 265.150455,16.2194005 265.263867,16.3277344 C265.377279,16.4360682 265.508463,16.4902344 265.657422,16.4902344 C265.806381,16.4902344 265.937565,16.4352219 266.050977,16.3251953 C266.164389,16.2151687 266.221094,16.0856778 266.221094,15.9367188 C266.221094,15.5710919 266.033205,15.3882812 265.657422,15.3882812 C265.505077,15.3882812 265.373047,15.441601 265.261328,15.5482422 C265.149609,15.6548833 265.09375,15.7843742 265.09375,15.9367188 Z" id="path-1"></path>
        <path d="M281.475586,15.8076172 L282.35791,15.8076172 C282.912275,15.7991536 283.348143,15.653159 283.665527,15.3696289 C283.982912,15.0860988 284.141602,14.7031274 284.141602,14.2207031 C284.141602,13.1373644 283.602056,12.5957031 282.522949,12.5957031 C282.015134,12.5957031 281.609946,12.7406398 281.307373,13.0305176 C281.0048,13.3203953 280.853516,13.7044247 280.853516,14.1826172 L279.679199,14.1826172 C279.679199,13.4505172 279.946856,12.8422062 280.482178,12.357666 C281.017499,11.8731258 281.69775,11.6308594 282.522949,11.6308594 C283.394698,11.6308594 284.078123,11.8614886 284.573242,12.3227539 C285.068362,12.7840192 285.315918,13.4251261 285.315918,14.2460938 C285.315918,14.648114 285.185792,15.037433 284.925537,15.4140625 C284.665282,15.790692 284.310875,16.0721019 283.862305,16.2583008 C284.37012,16.4191089 284.762613,16.6857078 285.039795,17.0581055 C285.316977,17.4305032 285.455566,17.885414 285.455566,18.4228516 C285.455566,19.2522828 285.184736,19.9103166 284.643066,20.3969727 C284.101397,20.8836287 283.396814,21.1269531 282.529297,21.1269531 C281.66178,21.1269531 280.956139,20.8920922 280.412354,20.4223633 C279.868568,19.9526344 279.59668,19.3326861 279.59668,18.5625 L280.777344,18.5625 C280.777344,19.0491561 280.936034,19.4384751 281.253418,19.7304688 C281.570802,20.0224624 281.996091,20.168457 282.529297,20.168457 C283.096357,20.168457 283.530109,20.0203465 283.830566,19.7241211 C284.131024,19.4278957 284.28125,19.0026069 284.28125,18.4482422 C284.28125,17.9108046 284.116213,17.4982111 283.786133,17.2104492 C283.456053,16.9226874 282.979984,16.7745769 282.35791,16.7661133 L281.475586,16.7661133 L281.475586,15.8076172 Z" id="path-2"></path>
        <path d="M131.675781,160.466406 C131.675781,160.598178 131.698698,160.722786 131.744531,160.840234 C131.790365,160.957683 131.853385,161.059375 131.933594,161.145312 C132.013802,161.23125 132.109765,161.3 132.221484,161.351562 C132.333204,161.403125 132.454947,161.428906 132.586719,161.428906 C132.707032,161.428906 132.824479,161.40599 132.939063,161.360156 C133.053646,161.314323 133.155338,161.248438 133.244141,161.1625 C133.332943,161.076562 133.405989,160.97487 133.463281,160.857422 C133.520573,160.739973 133.549219,160.609636 133.549219,160.466406 C133.549219,160.346093 133.523438,160.227214 133.471875,160.109766 C133.420312,159.992317 133.350131,159.887761 133.261328,159.796094 C133.172526,159.704427 133.069402,159.629948 132.951953,159.572656 C132.834505,159.515364 132.712761,159.486719 132.586719,159.486719 C132.454947,159.486719 132.333204,159.5125 132.221484,159.564063 C132.109765,159.615625 132.013802,159.687239 131.933594,159.778906 C131.853385,159.870573 131.790365,159.97513 131.744531,160.092578 C131.698698,160.210027 131.675781,160.334635 131.675781,160.466406 Z M138.292969,160.122656 C138.207031,159.985156 138.066668,159.890625 137.871875,159.839063 L137.871875,159.899219 C137.871875,161.085162 137.413546,162.25963 136.496875,163.422656 C136.324999,163.640366 136.188933,163.817968 136.088672,163.955469 C135.988411,164.092969 135.918229,164.196093 135.878125,164.264844 C135.729166,164.522658 135.654687,164.817707 135.654687,165.15 L135.654687,166.903125 L138.069531,166.903125 C138.138282,166.903125 138.204166,166.884505 138.267188,166.847266 C138.330209,166.810026 138.396093,166.757032 138.464844,166.688281 C138.539323,166.579427 138.576562,166.404689 138.576562,166.164062 L138.576562,161.411719 C138.576562,161.18828 138.553646,160.99349 138.507812,160.827344 C138.507812,160.563801 138.436199,160.328907 138.292969,160.122656 Z M141.146094,161.394531 L141.146094,166.439063 C141.146094,167.132295 140.982814,167.696612 140.65625,168.132031 C140.129164,168.71068 139.418754,169 138.525,169 L131.873437,169 L131.873437,166.903125 L133.050781,166.903125 L133.050781,164.952344 C133.050781,164.304945 133.426038,163.52865 134.176562,162.623437 C134.76094,161.935934 135.139062,161.363023 135.310937,160.904687 C135.431251,160.606769 135.491406,160.257294 135.491406,159.85625 C135.491406,159.443748 135.362501,159.100001 135.104688,158.825 C134.846874,158.549999 134.526044,158.4125 134.142188,158.4125 L134.013281,158.4125 C133.915885,158.4125 133.839974,158.406771 133.785547,158.395312 C133.73112,158.383854 133.689583,158.372396 133.660937,158.360938 L133.64375,158.429688 C133.809897,158.504167 133.960286,158.601562 134.094922,158.721875 C134.229558,158.842188 134.354166,158.985416 134.46875,159.151563 C134.743751,159.575523 134.88125,160.008071 134.88125,160.449219 C134.88125,160.884638 134.75521,161.28854 134.503125,161.660937 L134.511719,161.652344 C134.271093,162.053387 133.938804,162.328385 133.514844,162.477344 L133.523438,162.477344 C133.185415,162.603386 132.86172,162.666406 132.552344,162.666406 C132.036716,162.666406 131.549742,162.488804 131.091406,162.133594 C130.621612,161.761196 130.34948,161.328648 130.275,160.835938 L130.275,160.844531 C130.240625,160.666926 130.216276,160.513673 130.201953,160.384766 C130.18763,160.255859 130.180469,160.151302 130.180469,160.071094 C130.180469,159.062755 130.570048,158.203389 131.349219,157.492969 L131.349219,157.501563 C132.025264,156.888539 132.98489,156.582031 134.228125,156.582031 C135.746362,156.582031 136.823434,157.154942 137.459375,158.300781 C137.642709,158.272135 137.807421,158.236328 137.953516,158.193359 C138.09961,158.15039 138.238541,158.100261 138.370313,158.042969 L138.361719,158.042969 L138.73125,157.853906 C138.771354,157.82526 138.814323,157.789453 138.860156,157.746484 C138.90599,157.703515 138.957552,157.650521 139.014844,157.5875 C139.318491,157.278123 139.470313,156.776826 139.470313,156.083594 L142.375,156.083594 C142.357812,156.507554 142.297657,156.960154 142.194531,157.441406 C142.028385,157.916929 141.793491,158.289322 141.489844,158.558594 C141.186196,158.827866 140.836721,159.028385 140.441406,159.160156 L140.286719,159.211719 C140.452865,159.337761 140.590364,159.47526 140.699219,159.624219 L140.673438,159.607031 C140.788021,159.744532 140.878255,159.893489 140.944141,160.053906 C141.010026,160.214324 141.057292,160.377603 141.085938,160.54375 C141.103125,160.6125 141.114583,160.686979 141.120313,160.767188 C141.126042,160.847396 141.131771,160.944791 141.1375,161.059375 L141.146094,161.394531 Z M144.583594,158.953906 C144.583594,159.074219 144.610807,159.190234 144.665234,159.301953 C144.719662,159.413672 144.789843,159.5125 144.875781,159.598437 C144.961719,159.684375 145.060546,159.753125 145.172266,159.804688 C145.283985,159.85625 145.399999,159.882031 145.520312,159.882031 C145.652084,159.882031 145.778124,159.854818 145.898438,159.800391 C146.018751,159.745963 146.123307,159.675782 146.212109,159.589844 C146.300912,159.503906 146.372526,159.405079 146.426953,159.293359 C146.48138,159.18164 146.508594,159.06849 146.508594,158.953906 C146.508594,158.816406 146.482813,158.687501 146.43125,158.567187 C146.379687,158.446874 146.309506,158.342318 146.220703,158.253516 C146.131901,158.164713 146.027344,158.095964 145.907031,158.047266 C145.786718,157.998567 145.657813,157.974219 145.520312,157.974219 C145.405729,157.974219 145.292579,158 145.180859,158.051562 C145.06914,158.103125 144.968881,158.174739 144.880078,158.266406 C144.791276,158.358073 144.719662,158.46263 144.665234,158.580078 C144.610807,158.697527 144.583594,158.822135 144.583594,158.953906 Z M145.795312,161.239844 C145.749479,161.245573 145.705078,161.248437 145.662109,161.248437 L145.528906,161.248437 C144.892966,161.248437 144.342971,161.025002 143.878906,160.578125 C143.420571,160.131248 143.191406,159.586982 143.191406,158.945312 C143.191406,158.584373 143.261588,158.257814 143.401953,157.965625 C143.542318,157.673436 143.729947,157.42422 143.964844,157.217969 C144.199741,157.011718 144.470441,156.854167 144.776953,156.745313 C145.083465,156.636458 145.402863,156.582031 145.735156,156.582031 C146.571619,156.582031 147.233331,156.851299 147.720313,157.389844 C148.172919,157.894013 148.399219,158.532809 148.399219,159.30625 L148.399219,165.347656 C148.502344,165.244531 148.611197,165.152865 148.725781,165.072656 C148.840365,164.992448 148.966406,164.91224 149.103906,164.832031 C149.304428,164.723177 149.50065,164.627214 149.692578,164.544141 C149.884506,164.461067 150.074999,164.388021 150.264062,164.325 C150.453126,164.261979 150.642187,164.20612 150.83125,164.157422 C151.020313,164.108724 151.209374,164.061459 151.398438,164.015625 C151.759377,163.918229 151.939844,163.803646 151.939844,163.671875 L151.939844,156.728125 L154.560937,156.728125 L154.560937,163.886719 C154.560937,164.339325 154.369012,164.668749 153.985156,164.875 C154.053907,164.926563 154.119791,164.978125 154.182813,165.029687 C154.245834,165.08125 154.305989,165.135677 154.363281,165.192969 C154.792971,165.668492 155.007812,166.16406 155.007812,166.679688 C155.007812,167.361462 154.813023,167.922914 154.423438,168.364062 C154.016665,168.833857 153.475264,169.103125 152.799219,169.171875 C151.922652,169.171875 151.258075,168.902607 150.805469,168.364062 L150.814063,168.364062 C150.659374,168.174999 150.531902,167.967319 150.431641,167.741016 C150.33138,167.514712 150.264063,167.269793 150.229688,167.00625 C150.229688,166.708332 150.246875,166.459116 150.28125,166.258594 C150.132291,166.338802 149.977605,166.444791 149.817187,166.576562 C149.65677,166.708334 149.49349,166.868749 149.327344,167.057813 C148.9263,167.50469 148.585418,168.152079 148.304688,169 L145.795312,169 L145.795312,161.239844 Z M152.661719,165.785937 C151.951299,165.785937 151.596094,166.15833 151.596094,166.903125 C151.596094,167.544795 151.936976,167.865625 152.61875,167.865625 C152.76198,167.865625 152.896614,167.839844 153.022656,167.788281 C153.148699,167.736718 153.258984,167.667969 153.353516,167.582031 C153.448047,167.496093 153.522526,167.394402 153.576953,167.276953 C153.63138,167.159505 153.658594,167.034896 153.658594,166.903125 C153.658594,166.15833 153.326305,165.785937 152.661719,165.785937 Z M163.275,158.859375 C163.34948,158.647395 163.402474,158.42396 163.433984,158.189063 C163.465495,157.954165 163.48125,157.707814 163.48125,157.45 L165.835938,157.871094 C165.60104,159.354955 164.913547,160.489319 163.773438,161.274219 C163.103122,161.738284 162.120579,161.970313 160.825781,161.970313 C159.118481,161.970313 157.938285,161.47188 157.285156,160.475 C157.055988,160.142707 156.941406,159.755992 156.941406,159.314844 C156.941406,158.759112 157.156248,158.232034 157.585938,157.733594 C157.99271,157.412759 158.453904,157.209375 158.969531,157.123437 C159.685681,157.123437 160.284373,157.33255 160.765625,157.750781 C161.149481,158.169013 161.341406,158.690361 161.341406,159.314844 C161.341406,159.721617 161.22396,160.068228 160.989062,160.354688 C161.281251,160.354688 161.570571,160.303126 161.857031,160.2 C162.561722,159.953645 163.034374,159.506774 163.275,158.859375 Z M163.275,165.046875 C163.34948,164.846353 163.402474,164.630079 163.433984,164.398047 C163.465495,164.166014 163.48125,163.92396 163.48125,163.671875 L165.835938,164.058594 C165.595311,165.530997 164.910683,166.665361 163.782031,167.461719 C163.449738,167.679428 163.032945,167.849869 162.531641,167.973047 C162.030336,168.096225 161.461722,168.157813 160.825781,168.157813 C159.095564,168.157813 157.915368,167.667974 157.285156,166.688281 L157.29375,166.688281 C157.058853,166.350259 156.941406,165.966408 156.941406,165.536719 C156.941406,164.900778 157.156248,164.379429 157.585938,163.972656 C157.797918,163.772134 158.017056,163.620313 158.243359,163.517188 C158.469663,163.414062 158.711717,163.359635 158.969531,163.353906 L159.244531,163.353906 C159.846097,163.353906 160.344529,163.551561 160.739844,163.946875 L160.739844,163.938281 C161.140887,164.327867 161.341406,164.860674 161.341406,165.536719 C161.341406,165.926304 161.221095,166.267186 160.980469,166.559375 C162.166412,166.536458 162.931248,166.032297 163.275,165.046875 Z M158.230469,159.220313 C158.230469,159.466668 158.310676,159.678645 158.471094,159.85625 C158.631511,160.033855 158.837759,160.122656 159.089844,160.122656 C159.364845,160.122656 159.594009,160.039584 159.777344,159.873437 C159.960678,159.707291 160.052344,159.489585 160.052344,159.220313 C160.052344,159.09427 160.026563,158.978256 159.975,158.872266 C159.923437,158.766276 159.854688,158.67461 159.76875,158.597266 C159.682812,158.519921 159.58112,158.459766 159.463672,158.416797 C159.346223,158.373828 159.221615,158.352344 159.089844,158.352344 C158.854947,158.352344 158.651563,158.43828 158.479688,158.610156 C158.313541,158.79349 158.230469,158.996874 158.230469,159.220313 Z M158.178906,165.459375 C158.178906,165.585417 158.203255,165.702864 158.251953,165.811719 C158.300651,165.920573 158.366536,166.016536 158.449609,166.099609 C158.532683,166.182683 158.630078,166.248567 158.741797,166.297266 C158.853516,166.345964 158.969531,166.370313 159.089844,166.370313 C159.76016,166.370313 160.095313,166.06667 160.095313,165.459375 C160.095313,165.327604 160.068099,165.202995 160.013672,165.085547 C159.959245,164.968098 159.887631,164.866407 159.798828,164.780469 C159.710026,164.694531 159.604037,164.625782 159.480859,164.574219 C159.357682,164.522656 159.227344,164.496875 159.089844,164.496875 C158.854947,164.496875 158.645834,164.597134 158.4625,164.797656 C158.273437,164.98672 158.178906,165.20729 158.178906,165.459375 Z" id="path-3"></path>
        <path d="M273.785156,20.4316406 C273.785156,20.2441397 273.84082,20.0878912 273.952148,19.9628906 C274.063477,19.83789 274.230468,19.7753906 274.453125,19.7753906 C274.675782,19.7753906 274.844726,19.83789 274.959961,19.9628906 C275.075196,20.0878912 275.132812,20.2441397 275.132812,20.4316406 C275.132812,20.611329 275.075196,20.7617181 274.959961,20.8828125 C274.844726,21.0039069 274.675782,21.0644531 274.453125,21.0644531 C274.230468,21.0644531 274.063477,21.0039069 273.952148,20.8828125 C273.84082,20.7617181 273.785156,20.611329 273.785156,20.4316406 Z M273.791016,15.2578125 C273.791016,15.0703116 273.846679,14.9140631 273.958008,14.7890625 C274.069336,14.6640619 274.236327,14.6015625 274.458984,14.6015625 C274.681642,14.6015625 274.850585,14.6640619 274.96582,14.7890625 C275.081055,14.9140631 275.138672,15.0703116 275.138672,15.2578125 C275.138672,15.4375009 275.081055,15.58789 274.96582,15.7089844 C274.850585,15.8300787 274.681642,15.890625 274.458984,15.890625 C274.236327,15.890625 274.069336,15.8300787 273.958008,15.7089844 C273.846679,15.58789 273.791016,15.4375009 273.791016,15.2578125 Z" id="path-4"></path>
        <path d="M18.5683594,12.046875 L21.125,19.265625 L23.6679688,12.046875 L26.3613281,12.046875 L26.3613281,22 L24.3037109,22 L24.3037109,19.2792969 L24.5087891,14.5830078 L21.8222656,22 L20.4140625,22 L17.734375,14.5898438 L17.9394531,19.2792969 L17.9394531,22 L15.8886719,22 L15.8886719,12.046875 L18.5683594,12.046875 Z M32.3085938,22 C32.2174475,21.8222647 32.1513674,21.6012383 32.1103516,21.3369141 C31.6318335,21.8701199 31.0097695,22.1367188 30.2441406,22.1367188 C29.5195276,22.1367188 28.9191105,21.9270854 28.4428711,21.5078125 C27.9666317,21.0885396 27.7285156,20.559899 27.7285156,19.921875 C27.7285156,19.1380169 28.0190401,18.5364604 28.6000977,18.1171875 C29.1811552,17.6979146 30.0208278,17.4860026 31.1191406,17.4814453 L32.0283203,17.4814453 L32.0283203,17.0576172 C32.0283203,16.7158186 31.9405933,16.4423838 31.7651367,16.2373047 C31.5896801,16.0322255 31.3128274,15.9296875 30.9345703,15.9296875 C30.6018864,15.9296875 30.340984,16.0094393 30.1518555,16.1689453 C29.9627269,16.3284513 29.8681641,16.5471991 29.8681641,16.8251953 L27.8925781,16.8251953 C27.8925781,16.3968078 28.0247383,16.0003273 28.2890625,15.6357422 C28.5533867,15.271157 28.9270809,14.9851898 29.4101562,14.777832 C29.8932316,14.5704742 30.4355439,14.4667969 31.0371094,14.4667969 C31.9485723,14.4667969 32.6720351,14.6957985 33.2075195,15.1538086 C33.743004,15.6118187 34.0107422,16.2555297 34.0107422,17.0849609 L34.0107422,20.2910156 C34.0152995,20.9928421 34.1132803,21.5237612 34.3046875,21.8837891 L34.3046875,22 L32.3085938,22 Z M30.6748047,20.6259766 C30.9664728,20.6259766 31.2353503,20.5610358 31.4814453,20.4311523 C31.7275403,20.3012689 31.9098301,20.1269542 32.0283203,19.9082031 L32.0283203,18.6367188 L31.2900391,18.6367188 C30.3011018,18.6367188 29.7747399,18.9785122 29.7109375,19.6621094 L29.7041016,19.7783203 C29.7041016,20.0244153 29.7906892,20.2272127 29.9638672,20.3867188 C30.1370451,20.5462248 30.3740219,20.6259766 30.6748047,20.6259766 Z M37.8935547,12.7851562 L37.8935547,14.6035156 L39.1582031,14.6035156 L39.1582031,16.0527344 L37.8935547,16.0527344 L37.8935547,19.7441406 C37.8935547,20.0175795 37.945963,20.2135411 38.0507812,20.3320312 C38.1555995,20.4505214 38.3561183,20.5097656 38.6523438,20.5097656 C38.8710948,20.5097656 39.0647778,20.4938153 39.2333984,20.4619141 L39.2333984,21.9589844 C38.8460267,22.0774746 38.4472677,22.1367188 38.0371094,22.1367188 C36.6516858,22.1367188 35.9453126,21.4371815 35.9179688,20.0380859 L35.9179688,16.0527344 L34.8378906,16.0527344 L34.8378906,14.6035156 L35.9179688,14.6035156 L35.9179688,12.7851562 L37.8935547,12.7851562 Z M43.3349609,20.5439453 C43.6995461,20.5439453 43.9957671,20.4436859 44.2236328,20.2431641 C44.4514985,20.0426422 44.5699869,19.7760433 44.5791016,19.4433594 L46.4316406,19.4433594 C46.4270833,19.944664 46.2903659,20.4038065 46.0214844,20.8208008 C45.7526028,21.2377951 45.3846052,21.5613595 44.9174805,21.7915039 C44.4503557,22.0216483 43.9342476,22.1367188 43.3691406,22.1367188 C42.3118437,22.1367188 41.4778676,21.8006219 40.8671875,21.128418 C40.2565074,20.4562141 39.9511719,19.5276752 39.9511719,18.3427734 L39.9511719,18.2128906 C39.9511719,17.073562 40.2542287,16.1643914 40.8603516,15.4853516 C41.4664744,14.8063117 42.2981718,14.4667969 43.3554688,14.4667969 C44.2806036,14.4667969 45.0222954,14.7299778 45.5805664,15.2563477 C46.1388374,15.7827175 46.422526,16.4833941 46.4316406,17.3583984 L44.5791016,17.3583984 C44.5699869,16.975584 44.4514985,16.664552 44.2236328,16.425293 C43.9957671,16.186034 43.6949888,16.0664062 43.3212891,16.0664062 C42.8610003,16.0664062 42.5135103,16.233885 42.2788086,16.5688477 C42.0441069,16.9038103 41.9267578,17.4472619 41.9267578,18.1992188 L41.9267578,18.4042969 C41.9267578,19.1653684 42.0429676,19.7122379 42.2753906,20.0449219 C42.5078137,20.3776058 42.8610002,20.5439453 43.3349609,20.5439453 Z M49.4873047,15.4101562 C50.0113958,14.7812469 50.6699179,14.4667969 51.4628906,14.4667969 C53.0670653,14.4667969 53.8805337,15.3987537 53.9033203,17.2626953 L53.9033203,22 L51.9277344,22 L51.9277344,17.3173828 C51.9277344,16.8935526 51.8365895,16.5802419 51.6542969,16.3774414 C51.4720043,16.1746409 51.1689474,16.0732422 50.7451172,16.0732422 C50.1663383,16.0732422 49.7470716,16.2965472 49.4873047,16.7431641 L49.4873047,22 L47.5117188,22 L47.5117188,11.5 L49.4873047,11.5 L49.4873047,15.4101562 Z M58.7978516,22.1367188 C57.7132107,22.1367188 56.8302443,21.8040398 56.1489258,21.1386719 C55.4676073,20.473304 55.1269531,19.5869196 55.1269531,18.4794922 L55.1269531,18.2880859 C55.1269531,17.5452437 55.2705064,16.8810251 55.5576172,16.2954102 C55.844728,15.7097952 56.2514622,15.2586279 56.777832,14.9418945 C57.3042019,14.6251612 57.904619,14.4667969 58.5791016,14.4667969 C59.5908254,14.4667969 60.3872041,14.7858041 60.9682617,15.4238281 C61.5493193,16.0618521 61.8398438,16.9664655 61.8398438,18.1376953 L61.8398438,18.9443359 L57.1298828,18.9443359 C57.1936852,19.4274113 57.3862289,19.8147772 57.7075195,20.1064453 C58.0288102,20.3981134 58.4355444,20.5439453 58.9277344,20.5439453 C59.6888059,20.5439453 60.2835265,20.2682319 60.7119141,19.7167969 L61.6826172,20.8037109 C61.3863917,21.2229839 60.9853541,21.5499663 60.4794922,21.784668 C59.9736303,22.0193697 59.413089,22.1367188 58.7978516,22.1367188 Z M58.5722656,16.0664062 C58.1803366,16.0664062 57.8624687,16.1985664 57.6186523,16.4628906 C57.374836,16.7272149 57.2187503,17.1054663 57.1503906,17.5976562 L59.8984375,17.5976562 L59.8984375,17.4404297 C59.8893229,17.0029275 59.7708345,16.664552 59.5429688,16.425293 C59.315103,16.186034 58.9915386,16.0664062 58.5722656,16.0664062 Z M66.9667969,19.9560547 C66.9667969,19.714517 66.8471692,19.524252 66.6079102,19.3852539 C66.3686511,19.2462558 65.9847032,19.1220709 65.4560547,19.0126953 C63.6969313,18.6435528 62.8173828,17.8961645 62.8173828,16.7705078 C62.8173828,16.1142545 63.0896783,15.5662457 63.6342773,15.1264648 C64.1788764,14.686684 64.8909461,14.4667969 65.7705078,14.4667969 C66.7093146,14.4667969 67.4601209,14.6878233 68.0229492,15.1298828 C68.5857776,15.5719423 68.8671875,16.1461553 68.8671875,16.8525391 L66.8916016,16.8525391 C66.8916016,16.5699856 66.8004566,16.3364267 66.6181641,16.1518555 C66.4358715,15.9672842 66.1510436,15.875 65.7636719,15.875 C65.4309879,15.875 65.1735035,15.9501946 64.9912109,16.1005859 C64.8089184,16.2509773 64.7177734,16.4423817 64.7177734,16.6748047 C64.7177734,16.8935558 64.8214508,17.0701491 65.0288086,17.2045898 C65.2361664,17.3390306 65.585935,17.4552404 66.078125,17.5532227 C66.570315,17.6512049 66.9850244,17.7617181 67.3222656,17.8847656 C68.3658906,18.26758 68.8876953,18.9306593 68.8876953,19.8740234 C68.8876953,20.548506 68.5983102,21.0942362 68.0195312,21.5112305 C67.4407523,21.9282247 66.693364,22.1367188 65.7773438,22.1367188 C65.157549,22.1367188 64.6072615,22.0262055 64.1264648,21.8051758 C63.6456682,21.584146 63.2685561,21.2810892 62.9951172,20.8959961 C62.7216783,20.510903 62.5849609,20.0950543 62.5849609,19.6484375 L64.4580078,19.6484375 C64.4762371,19.9993507 64.6061186,20.2682282 64.8476562,20.4550781 C65.0891939,20.641928 65.4127584,20.7353516 65.8183594,20.7353516 C66.1966165,20.7353516 66.4825837,20.6635749 66.6762695,20.5200195 C66.8699554,20.3764641 66.9667969,20.1884777 66.9667969,19.9560547 Z" id="path-5"></path>
    </defs>
    <g id="Page-1" stroke="none" stroke-width="1" fill="none" fill-rule="evenodd">
        <g id="matches">
            <g id="Group">
                <polygon id="Path" fill="#F1F1F2" points="0 0 299 0 299 197 0 197"></polygon>
                <path d="M1.98671096,1.9798995 L1.98671096,195.020101 L297.013289,195.020101 L297.013289,1.9798995 L1.98671096,1.9798995 Z M299,0 L299,197 L0,197 L0,0 L299,0 Z" id="Path" fill="#C2C2C2" fill-rule="nonzero"></path>
                <g id="Group-16" transform="translate(1.000000, 32.000000)">
                    <path d="M2.60706376,22.9965523 L2.60706376,21.7774477 L294.964849,21.7774477 L294.964849,22.9965523 L2.60706376,22.9965523 Z M2.60706376,43.0765523 L2.60706376,41.8574477 L294.964849,41.8574477 L294.964849,43.0765523 L2.60706376,43.0765523 Z M2.60706376,103.349552 L2.60706376,102.130448 L294.964849,102.130448 L294.964849,103.349552 L2.60706376,103.349552 Z" id="Shape" fill="#DEDEDD" fill-rule="nonzero"></path>
                    <path d="M2.60706376,123.429552 L2.60706376,122.210448 L6.22725247,122.210448 L6.22725247,123.429552 L2.60706376,123.429552 Z M9.84744119,123.429552 L9.84744119,122.210448 L13.4676299,122.210448 L13.4676299,123.429552 L9.84744119,123.429552 Z M17.0878186,123.429552 L17.0878186,122.210448 L20.7080073,122.210448 L20.7080073,123.429552 L17.0878186,123.429552 Z M24.328196,123.429552 L24.328196,122.210448 L27.9483848,122.210448 L27.9483848,123.429552 L24.328196,123.429552 Z M31.5685735,123.429552 L31.5685735,122.210448 L35.1887622,122.210448 L35.1887622,123.429552 L31.5685735,123.429552 Z M38.8089509,123.429552 L38.8089509,122.210448 L42.4291396,122.210448 L42.4291396,123.429552 L38.8089509,123.429552 Z M46.0493283,123.429552 L46.0493283,122.210448 L49.669517,122.210448 L49.669517,123.429552 L46.0493283,123.429552 Z M53.2897057,123.429552 L53.2897057,122.210448 L56.9098945,122.210448 L56.9098945,123.429552 L53.2897057,123.429552 Z M60.5300832,123.429552 L60.5300832,122.210448 L64.1502719,122.210448 L64.1502719,123.429552 L60.5300832,123.429552 Z M67.7704606,123.429552 L67.7704606,122.210448 L71.3906493,122.210448 L71.3906493,123.429552 L67.7704606,123.429552 Z M75.010838,123.429552 L75.010838,122.210448 L78.6310267,122.210448 L78.6310267,123.429552 L75.010838,123.429552 Z M82.2512154,123.429552 L82.2512154,122.210448 L85.8714042,122.210448 L85.8714042,123.429552 L82.2512154,123.429552 Z M89.4915929,123.429552 L89.4915929,122.210448 L93.1117816,122.210448 L93.1117816,123.429552 L89.4915929,123.429552 Z M96.7319703,123.429552 L96.7319703,122.210448 L100.352159,122.210448 L100.352159,123.429552 L96.7319703,123.429552 Z M103.972348,123.429552 L103.972348,122.210448 L107.592536,122.210448 L107.592536,123.429552 L103.972348,123.429552 Z M111.212725,123.429552 L111.212725,122.210448 L114.832914,122.210448 L114.832914,123.429552 L111.212725,123.429552 Z M118.453103,123.429552 L118.453103,122.210448 L122.073291,122.210448 L122.073291,123.429552 L118.453103,123.429552 Z M125.69348,123.429552 L125.69348,122.210448 L129.313669,122.210448 L129.313669,123.429552 L125.69348,123.429552 Z M132.933857,123.429552 L132.933857,122.210448 L136.554046,122.210448 L136.554046,123.429552 L132.933857,123.429552 Z M140.174235,123.429552 L140.174235,122.210448 L143.794424,122.210448 L143.794424,123.429552 L140.174235,123.429552 Z M147.414612,123.429552 L147.414612,122.210448 L151.034801,122.210448 L151.034801,123.429552 L147.414612,123.429552 Z M154.65499,123.429552 L154.65499,122.210448 L158.275178,122.210448 L158.275178,123.429552 L154.65499,123.429552 Z M161.895367,123.429552 L161.895367,122.210448 L165.515556,122.210448 L165.515556,123.429552 L161.895367,123.429552 Z M169.135745,123.429552 L169.135745,122.210448 L172.755933,122.210448 L172.755933,123.429552 L169.135745,123.429552 Z M176.376122,123.429552 L176.376122,122.210448 L179.996311,122.210448 L179.996311,123.429552 L176.376122,123.429552 Z M183.616499,123.429552 L183.616499,122.210448 L187.236688,122.210448 L187.236688,123.429552 L183.616499,123.429552 Z M190.856877,123.429552 L190.856877,122.210448 L194.477066,122.210448 L194.477066,123.429552 L190.856877,123.429552 Z M198.097254,123.429552 L198.097254,122.210448 L201.717443,122.210448 L201.717443,123.429552 L198.097254,123.429552 Z M205.337632,123.429552 L205.337632,122.210448 L208.95782,122.210448 L208.95782,123.429552 L205.337632,123.429552 Z M212.578009,123.429552 L212.578009,122.210448 L216.198198,122.210448 L216.198198,123.429552 L212.578009,123.429552 Z M219.818387,123.429552 L219.818387,122.210448 L223.438575,122.210448 L223.438575,123.429552 L219.818387,123.429552 Z M227.058764,123.429552 L227.058764,122.210448 L230.678953,122.210448 L230.678953,123.429552 L227.058764,123.429552 Z M234.299141,123.429552 L234.299141,122.210448 L237.91933,122.210448 L237.91933,123.429552 L234.299141,123.429552 Z M241.539519,123.429552 L241.539519,122.210448 L245.159708,122.210448 L245.159708,123.429552 L241.539519,123.429552 Z M248.779896,123.429552 L248.779896,122.210448 L252.400085,122.210448 L252.400085,123.429552 L248.779896,123.429552 Z M256.020274,123.429552 L256.020274,122.210448 L259.640462,122.210448 L259.640462,123.429552 L256.020274,123.429552 Z M263.260651,123.429552 L263.260651,122.210448 L266.88084,122.210448 L266.88084,123.429552 L263.260651,123.429552 Z M270.501029,123.429552 L270.501029,122.210448 L274.121217,122.210448 L274.121217,123.429552 L270.501029,123.429552 Z M277.741406,123.429552 L277.741406,122.210448 L281.361595,122.210448 L281.361595,123.429552 L277.741406,123.429552 Z M284.981783,123.429552 L284.981783,122.210448 L288.601972,122.210448 L288.601972,123.429552 L284.981783,123.429552 Z M292.222161,123.429552 L292.222161,122.210448 L294.964849,122.210448 L294.964849,123.429552 L292.222161,123.429552 Z" id="Path" fill="#293052" fill-rule="nonzero"></path>
                    <path d="M2.60706376,143.507552 L2.60706376,142.288448 L294.964849,142.288448 L294.964849,143.507552 L2.60706376,143.507552 Z M37.317639,2.308 L38.5367436,2.308 L38.5367436,160.59 L37.317639,160.59 L37.317639,2.308 Z M74.3153772,2.308 L75.5344818,2.308 L75.5344818,160.59 L74.3153772,160.59 L74.3153772,2.308 Z M111.312112,2.308 L112.531216,2.308 L112.531216,160.59 L111.312112,160.59 L111.312112,2.308 Z M148.271723,2.308 L149.490827,2.308 L149.490827,160.59 L148.271723,160.59 L148.271723,2.308 Z M185.268458,2.308 L186.487562,2.308 L186.487562,160.59 L185.268458,160.59 L185.268458,2.308 Z M222.266196,2.308 L223.4853,2.308 L223.4853,160.59 L222.266196,160.59 L222.266196,2.308 Z M259.262931,2.308 L260.482035,2.308 L260.482035,160.59 L259.262931,160.59 L259.262931,2.308 Z M2.60706376,83.2715523 L2.60706376,82.0524477 L294.964849,82.0524477 L294.964849,83.2715523 L2.60706376,83.2715523 Z M2.60706376,63.1915523 L2.60706376,61.9724477 L294.964849,61.9724477 L294.964849,63.1915523 L2.60706376,63.1915523 Z" id="Shape" fill="#DEDEDD" fill-rule="nonzero"></path>
                    <polygon id="Path" fill="#C2C2C2" fill-rule="nonzero" points="0.511053691 2.31510455 0.511053691 -0.123104545 297.097983 -0.123104545 297.097983 2.31510455"></polygon>
                    <path d="M148.16177,83.3575841 L189.836381,52.7510845 C190.75488,52.0765246 192.060729,52.4083509 192.545778,53.4395628 L224.817711,122.049563 C225.243212,122.954176 224.854815,124.032446 223.950202,124.457946 C223.045589,124.883447 221.967319,124.49505 221.541819,123.590437 L190.20622,56.9710809 L149.266431,87.0379155 C148.644928,87.4943574 147.80249,87.5069519 147.16762,87.0692929 L104.985124,57.9900383 L76.137183,84.0062034 C75.469587,84.6082667 74.4612908,84.6291414 73.7693486,84.0552244 L36.7716104,53.3682244 C36.0021538,52.7300147 35.8957572,51.5888757 36.5339669,50.8194191 C37.1721766,50.0499625 38.3133156,49.9435659 39.0827722,50.5817756 L74.875392,80.2692153 L103.622709,54.3437966 C104.245323,53.7823 105.172043,53.7218503 105.862323,54.1977071 L148.16177,83.3575841 Z" id="Path" fill="#293052" fill-rule="nonzero"></path>
                    <path d="M187.440235,113.159 L152.158235,113.159 L146.594628,105.089 L141.260789,113.159 L105.977785,113.159 C104.716174,113.157408 103.505601,113.655378 102.612378,114.543363 C101.719155,115.431348 101.216451,116.636608 101.214856,117.894 L101.214856,142.406 C101.216451,143.663392 101.719155,144.868652 102.612378,145.756637 C103.505601,146.644622 104.716174,147.142592 105.977785,147.141 L187.440235,147.141 C188.72233,147.171783 189.962831,146.686614 190.881745,145.795 C191.799447,144.904293 192.316911,143.68168 192.316544,142.405 L192.316544,117.932 C192.327128,116.649055 191.814345,115.416862 190.895792,114.518 C189.975759,113.617748 188.729189,113.127137 187.440235,113.158 L187.440235,113.159 Z" id="Path" fill="#E88024"></path>
                    <ellipse id="Oval" fill="#FFFFFF" opacity="0.6" cx="222.874745" cy="122.82" rx="8.19239933" ry="8.373"></ellipse>
                    <path d="M222.875748,132.411105 C217.671896,132.411105 213.464244,128.110695 213.464244,122.819 C213.464244,117.527305 217.671896,113.226895 222.875748,113.226895 C228.0796,113.226895 232.287252,117.527305 232.287252,122.819 C232.287252,128.110695 228.0796,132.411105 222.875748,132.411105 Z M222.875748,129.972895 C226.720971,129.972895 229.849043,126.775865 229.849043,122.819 C229.849043,118.862135 226.720971,115.665105 222.875748,115.665105 C219.030525,115.665105 215.902453,118.862135 215.902453,122.819 C215.902453,126.775865 219.030525,129.972895 222.875748,129.972895 Z" id="Oval" fill="#E88024" fill-rule="nonzero"></path>
                    <polygon id="Path" fill="#E88024" points="245.926842 113.424 274.694054 113.424 274.694054 132.214 245.927846 132.214"></polygon>
                    <polygon id="Path" fill="#E88024" points="249.432567 122.82 246.079352 126.153 240.859896 122.819 246.079352 119.486"></polygon>
                    <path d="M257.319946,121.683 L258.691534,121.683 C259.156087,121.716 259.614621,121.551 259.948738,121.228 C260.243725,120.88 260.394228,120.433 260.368141,119.978 C260.390213,119.5467 260.239331,119.124349 259.948738,118.804 C259.595096,118.554892 259.155388,118.458948 258.729661,118.538 C258.314325,118.519115 257.906735,118.654524 257.585836,118.918 C257.284829,119.171 257.117268,119.548 257.129309,119.94 L254.766406,119.94 C254.717802,119.041563 255.117304,118.177125 255.833977,117.63 C256.636415,117.004237 257.635244,116.681854 258.653406,116.72 C259.714767,116.66371 260.763501,116.971068 261.625346,117.591 C262.377805,118.214045 262.787955,119.156723 262.73004,120.13 C262.724486,120.661984 262.551073,121.178731 262.234383,121.607 C261.883587,122.088574 261.410063,122.467991 260.862795,122.706 C261.474842,122.903 262.008628,123.287 262.387896,123.804 C262.742081,124.302 262.929708,124.899 262.920678,125.509 C262.956896,126.513767 262.502573,127.473783 261.701601,128.085 C260.811709,128.743046 259.722427,129.077278 258.615279,129.032 C257.580557,129.065449 256.563372,128.759839 255.719594,128.162 C254.925756,127.585027 254.49202,126.636654 254.575768,125.661 L257.091181,125.661 C257.081148,126.093 257.261752,126.509 257.586839,126.797 C257.932997,127.101 258.381497,127.264 258.844044,127.252 C259.331674,127.284 259.811279,127.12 260.177503,126.797 C260.511621,126.468 260.691221,126.014 260.672158,125.547 C260.725675,125.03636 260.559816,124.527003 260.215631,124.145 C259.822139,123.817987 259.317003,123.655308 258.805916,123.691 L257.319946,123.691 L257.319946,121.683 Z" id="Path" fill="#FFFFFF"></path>
                </g>
            </g>
            <g id="">
                <use fill="#000000" xlink:href="#path-1"></use>
                <use fill="#2A3052" xlink:href="#path-1"></use>
            </g>
            <g id="3">
                <use fill="#000000" xlink:href="#path-2"></use>
                <use fill="#2A3052" xlink:href="#path-2"></use>
            </g>
            <g id="">
                <use fill="#000000" xlink:href="#path-3"></use>
                <use fill="#FFFFFF" xlink:href="#path-3"></use>
            </g>
            <g id=":" fill="#000000">
                <use xlink:href="#path-4"></use>
                <use xlink:href="#path-4"></use>
            </g>
            <g id="Matches" fill="#000000">
                <use xlink:href="#path-5"></use>
                <use xlink:href="#path-5"></use>
            </g>
        </g>
    </g>
</svg>