<?xml version="1.0" encoding="UTF-8"?>
<svg width="299px" height="197px" viewBox="0 0 299 197" version="1.1" xmlns="http://www.w3.org/2000/svg" xmlns:xlink="http://www.w3.org/1999/xlink">
    <!-- Generator: Sketch 52.6 (67491) - http://www.bohemiancoding.com/sketch -->
    <title>odd</title>
    <desc>Created with Sketch.</desc>
    <g id="Page-1" stroke="none" stroke-width="1" fill="none" fill-rule="evenodd">
        <g id="odd">
            <g>
                <polygon id="Path" fill="#F1F1F2" points="0 0 299 0 299 197 0 197"></polygon>
                <path d="M1.98671096,1.9798995 L1.98671096,195.020101 L297.013289,195.020101 L297.013289,1.9798995 L1.98671096,1.9798995 Z M299,0 L299,197 L0,197 L0,0 L299,0 Z" id="Path" fill="#C2C2C2" fill-rule="nonzero"></path>
                <g id="Group-8" transform="translate(2.000000, 32.000000)">
                    <path d="M2.57962025,22.9928773 L2.57962025,21.7817381 L292.988101,21.7817381 L292.988101,22.9928773 L2.57962025,22.9928773 Z M2.57962025,63.1884542 L2.57962025,61.977315 L292.988101,61.977315 L292.988101,63.1884542 L2.57962025,63.1884542 Z M2.57962025,103.346147 L2.57962025,102.135007 L292.988101,102.135007 L292.988101,103.346147 L2.57962025,103.346147 Z M2.57962025,123.424993 L2.57962025,122.213853 L292.988101,122.213853 L292.988101,123.424993 L2.57962025,123.424993 Z M2.57962025,143.503839 L2.57962025,142.292699 L292.988101,142.292699 L292.988101,143.503839 L2.57962025,143.503839 Z M37.0592405,2.30846154 L38.2703797,2.30846154 L38.2703797,160.590385 L37.0592405,160.590385 L37.0592405,2.30846154 Z M73.8097469,2.30846154 L75.0208861,2.30846154 L75.0208861,160.590385 L73.8097469,160.590385 L73.8097469,2.30846154 Z M110.560253,2.30846154 L111.771393,2.30846154 L111.771393,160.590385 L110.560253,160.590385 L110.560253,2.30846154 Z M147.272911,2.30846154 L148.484051,2.30846154 L148.484051,160.590385 L147.272911,160.590385 L147.272911,2.30846154 Z M184.023417,2.30846154 L185.234557,2.30846154 L185.234557,160.590385 L184.023417,160.590385 L184.023417,2.30846154 Z M220.773924,2.30846154 L221.985064,2.30846154 L221.985064,160.590385 L220.773924,160.590385 L220.773924,2.30846154 Z M257.52443,2.30846154 L258.73557,2.30846154 L258.73557,160.590385 L257.52443,160.590385 L257.52443,2.30846154 Z M2.57962025,83.2673004 L2.57962025,82.0561612 L292.988101,82.0561612 L292.988101,83.2673004 L2.57962025,83.2673004 Z" id="Shape" fill="#DEDEDD" fill-rule="nonzero"></path>
                    <polygon id="Path" fill="#293052" fill-rule="nonzero" points="2.57962025 43.0717234 2.57962025 41.8605842 4.39632911 41.8605842 4.39632911 43.0717234"></polygon>
                    <path d="M8.02974684,43.0717234 L8.02974684,41.8605842 L11.6631644,41.8605842 L11.6631644,43.0717234 L8.02974684,43.0717234 Z M15.2965821,43.0717234 L15.2965821,41.8605842 L18.9299997,41.8605842 L18.9299997,43.0717234 L15.2965821,43.0717234 Z M22.5634173,43.0717234 L22.5634173,41.8605842 L26.1968349,41.8605842 L26.1968349,43.0717234 L22.5634173,43.0717234 Z M29.8302525,43.0717234 L29.8302525,41.8605842 L33.4636701,41.8605842 L33.4636701,43.0717234 L29.8302525,43.0717234 Z M37.0970877,43.0717234 L37.0970877,41.8605842 L40.7305053,41.8605842 L40.7305053,43.0717234 L37.0970877,43.0717234 Z M44.3639229,43.0717234 L44.3639229,41.8605842 L47.9973405,41.8605842 L47.9973405,43.0717234 L44.3639229,43.0717234 Z M51.6307581,43.0717234 L51.6307581,41.8605842 L55.2641757,41.8605842 L55.2641757,43.0717234 L51.6307581,43.0717234 Z M58.8975933,43.0717234 L58.8975933,41.8605842 L62.5310109,41.8605842 L62.5310109,43.0717234 L58.8975933,43.0717234 Z M66.1644285,43.0717234 L66.1644285,41.8605842 L69.7978461,41.8605842 L69.7978461,43.0717234 L66.1644285,43.0717234 Z M73.4312638,43.0717234 L73.4312638,41.8605842 L77.0646814,41.8605842 L77.0646814,43.0717234 L73.4312638,43.0717234 Z M80.698099,43.0717234 L80.698099,41.8605842 L84.3315166,41.8605842 L84.3315166,43.0717234 L80.698099,43.0717234 Z M87.9649342,43.0717234 L87.9649342,41.8605842 L91.5983518,41.8605842 L91.5983518,43.0717234 L87.9649342,43.0717234 Z M95.2317694,43.0717234 L95.2317694,41.8605842 L98.865187,41.8605842 L98.865187,43.0717234 L95.2317694,43.0717234 Z M102.498605,43.0717234 L102.498605,41.8605842 L106.132022,41.8605842 L106.132022,43.0717234 L102.498605,43.0717234 Z M109.76544,43.0717234 L109.76544,41.8605842 L113.398857,41.8605842 L113.398857,43.0717234 L109.76544,43.0717234 Z M117.032275,43.0717234 L117.032275,41.8605842 L120.665693,41.8605842 L120.665693,43.0717234 L117.032275,43.0717234 Z M124.29911,43.0717234 L124.29911,41.8605842 L127.932528,41.8605842 L127.932528,43.0717234 L124.29911,43.0717234 Z M131.565945,43.0717234 L131.565945,41.8605842 L135.199363,41.8605842 L135.199363,43.0717234 L131.565945,43.0717234 Z M138.832781,43.0717234 L138.832781,41.8605842 L142.466198,41.8605842 L142.466198,43.0717234 L138.832781,43.0717234 Z M146.099616,43.0717234 L146.099616,41.8605842 L149.733033,41.8605842 L149.733033,43.0717234 L146.099616,43.0717234 Z M153.366451,43.0717234 L153.366451,41.8605842 L156.999869,41.8605842 L156.999869,43.0717234 L153.366451,43.0717234 Z M160.633286,43.0717234 L160.633286,41.8605842 L164.266704,41.8605842 L164.266704,43.0717234 L160.633286,43.0717234 Z M167.900122,43.0717234 L167.900122,41.8605842 L171.533539,41.8605842 L171.533539,43.0717234 L167.900122,43.0717234 Z M175.166957,43.0717234 L175.166957,41.8605842 L178.800374,41.8605842 L178.800374,43.0717234 L175.166957,43.0717234 Z M182.433792,43.0717234 L182.433792,41.8605842 L186.06721,41.8605842 L186.06721,43.0717234 L182.433792,43.0717234 Z M189.700627,43.0717234 L189.700627,41.8605842 L193.334045,41.8605842 L193.334045,43.0717234 L189.700627,43.0717234 Z M196.967462,43.0717234 L196.967462,41.8605842 L200.60088,41.8605842 L200.60088,43.0717234 L196.967462,43.0717234 Z M204.234298,43.0717234 L204.234298,41.8605842 L207.867715,41.8605842 L207.867715,43.0717234 L204.234298,43.0717234 Z M211.501133,43.0717234 L211.501133,41.8605842 L215.13455,41.8605842 L215.13455,43.0717234 L211.501133,43.0717234 Z M218.767968,43.0717234 L218.767968,41.8605842 L222.401386,41.8605842 L222.401386,43.0717234 L218.767968,43.0717234 Z M226.034803,43.0717234 L226.034803,41.8605842 L229.668221,41.8605842 L229.668221,43.0717234 L226.034803,43.0717234 Z M233.301638,43.0717234 L233.301638,41.8605842 L236.935056,41.8605842 L236.935056,43.0717234 L233.301638,43.0717234 Z M240.568474,43.0717234 L240.568474,41.8605842 L244.201891,41.8605842 L244.201891,43.0717234 L240.568474,43.0717234 Z M247.835309,43.0717234 L247.835309,41.8605842 L251.468726,41.8605842 L251.468726,43.0717234 L247.835309,43.0717234 Z M255.102144,43.0717234 L255.102144,41.8605842 L258.735562,41.8605842 L258.735562,43.0717234 L255.102144,43.0717234 Z M262.368979,43.0717234 L262.368979,41.8605842 L266.002397,41.8605842 L266.002397,43.0717234 L262.368979,43.0717234 Z M269.635814,43.0717234 L269.635814,41.8605842 L273.269232,41.8605842 L273.269232,43.0717234 L269.635814,43.0717234 Z M276.90265,43.0717234 L276.90265,41.8605842 L280.536067,41.8605842 L280.536067,43.0717234 L276.90265,43.0717234 Z M284.169485,43.0717234 L284.169485,41.8605842 L287.802903,41.8605842 L287.802903,43.0717234 L284.169485,43.0717234 Z" id="Path" fill="#293052" fill-rule="nonzero"></path>
                    <polygon id="Path" fill="#293052" fill-rule="nonzero" points="291.209241 43.0717234 291.209241 41.8605842 292.988101 41.8605842 292.988101 43.0717234"></polygon>
                    <polygon id="Path" fill="#C2C2C2" fill-rule="nonzero" points="0.497974684 2.30729309 0.497974684 -0.11498539 295.107595 -0.11498539 295.107595 2.30729309"></polygon>
                    <path d="M74.1862917,49.9209243 L38.913118,83.9554687 C38.1986062,84.6448901 37.0604936,84.6245504 36.3710722,83.9100387 C35.6816508,83.1955269 35.7019905,82.0574143 36.4165022,81.3679929 L73.1670086,45.9079929 C73.9493243,45.1531485 75.2173979,45.2599523 75.8624341,46.1350158 L111.640793,94.6723434 L146.874604,73.4315079 C147.503231,73.0525374 148.299115,73.0937946 148.885188,73.535733 L184.57703,100.449773 L256.983631,40.5130134 C257.748474,39.8798913 258.881749,39.9866723 259.514871,40.7515155 C260.147993,41.5163587 260.041212,42.6496336 259.276369,43.2827558 L185.775356,104.125448 C185.133819,104.6565 184.211537,104.677417 183.546584,104.175998 L147.690456,77.1380755 L112.094004,98.5975305 C111.298898,99.0768634 110.26958,98.8719223 109.718705,98.1245996 L74.1862917,49.9209243 Z" id="Path" fill="#293052" fill-rule="nonzero"></path>
                    <path d="M186.180759,113.158846 L151.133418,113.158846 L145.607595,105.089423 L140.308861,113.158846 L105.261519,113.158846 C102.648653,113.158846 100.530506,115.279036 100.530506,117.894423 L100.530506,142.405769 C100.530506,145.021156 102.648653,147.141346 105.261519,147.141346 L186.180759,147.141346 C187.455058,147.171968 188.687787,146.686593 189.599735,145.79516 C190.511683,144.903726 191.025684,143.681664 191.025316,142.405769 L191.025316,117.932308 C191.035937,116.649854 190.526447,115.417929 189.613353,114.518235 C188.700259,113.61854 187.461651,113.128022 186.180759,113.158846 Z" id="Path" fill="#E88024"></path>
                    <g id="Group" opacity="0.6" transform="translate(249.797468, 33.403846)" fill="#FFFFFF">
                        <ellipse id="Oval" cx="8.3325316" cy="9.0623077" rx="8.13734177" ry="8.3725"></ellipse>
                    </g>
                    <path d="M258.13,52.049793 C252.959133,52.049793 248.781519,47.7514515 248.781519,42.4661538 C248.781519,37.1808561 252.959133,32.8825146 258.13,32.8825146 C263.300867,32.8825146 267.478481,37.1808561 267.478481,42.4661538 C267.478481,47.7514515 263.300867,52.049793 258.13,52.049793 Z M258.13,49.6275146 C261.947393,49.6275146 265.056203,46.4288642 265.056203,42.4661538 C265.056203,38.5034434 261.947393,35.304793 258.13,35.304793 C254.312607,35.304793 251.203797,38.5034434 251.203797,42.4661538 C251.203797,46.4288642 254.312607,49.6275146 258.13,49.6275146 Z" id="Oval" fill="#E88024" fill-rule="nonzero"></path>
                    <g id="Group" opacity="0.6" transform="translate(29.278481, 74.076923)" fill="#FFFFFF">
                        <ellipse id="Oval" cx="8.38632911" cy="8.58480769" rx="8.13734177" ry="8.3725"></ellipse>
                    </g>
                    <path d="M37.6648101,92.24537 C32.4939432,92.24537 28.3163291,87.9470285 28.3163291,82.6617308 C28.3163291,77.3764331 32.4939432,73.0780916 37.6648101,73.0780916 C42.835677,73.0780916 47.0132911,77.3764331 47.0132911,82.6617308 C47.0132911,87.9470285 42.835677,92.24537 37.6648101,92.24537 Z M37.6648101,89.8230916 C41.4822027,89.8230916 44.5910126,86.6244412 44.5910126,82.6617308 C44.5910126,78.6990204 41.4822027,75.50037 37.6648101,75.50037 C33.8474175,75.50037 30.7386076,78.6990204 30.7386076,82.6617308 C30.7386076,86.6244412 33.8474175,89.8230916 37.6648101,89.8230916 Z" id="Oval" fill="#E88024" fill-rule="nonzero"></path>
                    <polygon id="Path" fill="#E88024" points="245.56443 12.5751923 270.657722 12.5751923 270.657722 29.0928846 245.56443 29.0928846"></polygon>
                    <polygon id="Path" fill="#E88024" transform="translate(258.127323, 29.120783) rotate(-45.000000) translate(-258.127323, -29.120783) " points="256.443083 27.4365426 259.813189 27.4349177 259.811564 30.8050236 256.441458 30.8066485"></polygon>
                    <path d="M255.367089,21.4780769 L255.972658,15.8332692 L261.12,15.8332692 L261.12,17.0834615 L257.33519,17.0834615 L256.72962,20.0384615 C256.95032,19.8690188 257.19204,19.7289404 257.448734,19.6217308 C257.749325,19.5701354 258.056498,19.5701354 258.357089,19.6217308 C259.201243,19.5666407 260.024091,19.9016814 260.590127,20.5309615 C261.152859,21.2530777 261.435214,22.1547919 261.384937,23.0692308 C261.415306,23.9755835 261.119861,24.8627724 260.552278,25.5696154 C259.928305,26.2339888 259.038654,26.5818442 258.13,26.5167308 C257.348306,26.5408491 256.583556,26.2856865 255.972658,25.7969231 C255.376681,25.2766883 255.066867,24.5014063 255.14,23.7132692 L256.388987,23.7132692 C256.364447,24.1928278 256.543094,24.6605084 256.881013,25.0013462 C257.220907,25.3122361 257.669994,25.4756978 258.13,25.4559615 C258.655372,25.4862946 259.162972,25.2604769 259.492532,24.8498077 C259.844479,24.3536105 260.017931,23.7526194 259.984557,23.145 C260.012718,22.5614916 259.838936,21.9861199 259.492532,21.5159615 C259.170972,21.0910809 258.66209,20.8505438 258.13,20.8719231 C257.721864,20.8492524 257.315511,20.9410981 256.956709,21.1371154 C256.699531,21.3224002 256.512734,21.5895117 256.426835,21.8948077 L255.367089,21.4780769 Z" id="Path" fill="#FFFFFF"></path>
                    <polygon id="Path" fill="#D5D3DA" points="135.350759 44.4740385 160.444051 44.4740385 160.444051 60.9917308 135.350759 60.9917308"></polygon>
                    <polygon id="Path" fill="#D5D3DA" transform="translate(147.886510, 60.999498) rotate(-45.000000) translate(-147.886510, -60.999498) " points="146.202269 59.3152579 149.572375 59.313633 149.57075 62.6837389 146.200644 62.6853638"></polygon>
                    <path d="M151.322658,57.9230769 L144.661392,57.9230769 L144.661392,57.0517308 L148.029873,53.2632692 C148.539522,52.7970349 148.996442,52.2761522 149.392405,51.71 C149.518665,51.264168 149.518665,50.7919858 149.392405,50.3461538 C149.402746,49.8757634 149.241254,49.4177604 148.938228,49.0580769 C148.648817,48.7108858 148.21651,48.5154624 147.764937,48.5276923 C147.196394,48.4799342 146.633789,48.6722286 146.213165,49.0580769 C145.862162,49.4819531 145.68616,50.02402 145.721139,50.5734615 L144.51,50.5734615 C144.466505,49.7379156 144.783528,48.9238979 145.380506,48.3382692 C146.069699,47.7069567 146.983426,47.3793359 147.916329,47.4290385 C148.725532,47.3855084 149.517731,47.6726156 150.111519,48.2246154 C150.660918,48.7611607 150.96257,49.5022933 150.944177,50.2703846 C150.93213,50.8600837 150.762213,51.435743 150.452152,51.9373077 C150.051494,52.5917238 149.582028,53.2013478 149.051772,53.7557692 L146.364557,56.6728846 L151.322658,56.6728846 L151.322658,57.9230769 Z" id="Path" fill="#293052"></path>
                    <polygon id="Path" fill="#D5D3DA" points="25.0992405 52.4298077 50.1925316 52.4298077 50.1925316 68.9475 25.0992405 68.9475"></polygon>
                    <polygon id="Path" fill="#D5D3DA" transform="translate(37.661484, 68.966252) rotate(-45.000000) translate(-37.661484, -68.966252) " points="35.9772438 67.2820111 39.3473497 67.2803862 39.3457248 70.6504921 35.9756189 70.652117"></polygon>
                    <polygon id="Path" fill="#293052" points="38.4217722 65.9546154 37.0213924 65.9546154 37.0213924 57.0517308 34.9018987 57.0517308 34.9018987 56.0667308 38.3839241 55.6878846 38.3839241 65.9546154"></polygon>
                </g>
            </g>
            <path d="M19.1673437,20.202 C19.1673437,20.317 19.1933437,20.427 19.2453437,20.531 C19.3473491,20.7380664 19.5206178,20.9013935 19.7333437,20.991 C19.8403437,21.038 19.9503437,21.061 20.0653437,21.061 C20.2918507,21.0613344 20.5098443,20.9747096 20.6743437,20.819 C20.7573147,20.7413771 20.8248374,20.6487455 20.8733437,20.546 C20.9677996,20.3262446 20.9706792,20.0778863 20.8813437,19.856 C20.8384944,19.751666 20.7744808,19.657348 20.6933437,19.579 C20.4402077,19.3350163 20.0671651,19.2629156 19.7413437,19.395 C19.6350491,19.4390718 19.5372517,19.5013373 19.4523437,19.579 C19.3662733,19.6572541 19.2960048,19.7512848 19.2453437,19.856 C19.1930026,19.9641285 19.1663105,20.0828738 19.1673437,20.203 L19.1673437,20.202 Z M22.6253437,26.618 L22.6253437,19.158 C22.6253437,18.507 22.4353437,18.002 22.0553437,17.643 C21.6333437,17.237 20.9603437,17.034 20.0343437,17.034 C19.6743437,17.034 19.3363437,17.094 19.0193437,17.214 C18.7023437,17.334 18.4263437,17.484 18.1923437,17.667 C17.9487716,17.9150798 17.7552484,18.2077411 17.6223437,18.529 C17.4757053,18.875647 17.4015183,19.2486239 17.4043437,19.625 C17.4043437,19.86 17.4153437,20.088 17.4393437,20.312 C17.4623437,20.536 17.4993437,20.754 17.5523437,20.968 L17.8323437,22.255 L17.8323437,22.248 C17.9583437,22.794 18.0463437,23.285 18.0983437,23.723 C18.4216864,23.213672 18.7601707,22.7141159 19.1133437,22.225 C19.1201973,22.2112154 19.127878,22.1978577 19.1363437,22.185 L19.2063437,22.091 C19.0515633,22.0343156 18.9039038,21.9598147 18.7663437,21.869 C18.6135603,21.7664281 18.4685046,21.65279 18.3323437,21.529 L18.3323437,21.537 C18.0103437,21.246 17.8483437,20.788 17.8483437,20.164 C17.8483437,19.873 17.8953437,19.604 17.9883437,19.36 C18.3643437,18.46 19.0633437,18.01 20.0883437,18.01 C20.9053437,18.01 21.4983437,18.299 21.8683437,18.876 C22.1483437,19.329 22.2893437,19.807 22.2893437,20.312 C22.2893437,20.692 22.0603437,21.238 21.6023437,21.951 L21.1263437,22.646 L20.0413437,24.238 L20.0413437,24.23 C19.9063437,24.427 19.7473437,24.67 19.5653437,24.956 C19.3018281,25.3714634 19.0391609,25.7874643 18.7773437,26.204 C18.7634661,26.2268334 18.7504568,26.2501835 18.7383437,26.274 L18.6993437,26.349 C18.6790904,26.385068 18.6570634,26.4201109 18.6333437,26.454 L18.5203437,26.618 L15.9523437,26.618 L15.9523437,26.528 C15.9523437,26.478 15.9533437,26.425 15.9563437,26.368 C15.9593437,26.311 15.9603437,26.256 15.9603437,26.204 L15.9603437,26.095 C15.9653437,26.048 15.9683437,26.009 15.9683437,25.978 L15.9683437,25.892 C15.9683437,25.585 15.9533437,25.256 15.9253437,24.905 C15.8963437,24.554 15.8513437,24.175 15.7883437,23.769 L15.7963437,23.793 C15.6931262,23.3699958 15.5941213,22.9459748 15.4993437,22.521 C15.3664004,21.9238743 15.2390614,21.3255146 15.1173437,20.726 C15.0351095,20.3415403 14.9958686,19.9491306 15.0003437,19.556 C15.0003437,18.874 15.1263437,18.266 15.3783437,17.733 C15.6313437,17.2 16.0093437,16.738 16.5143437,16.348 C16.9909844,15.9899275 17.5272624,15.7190801 18.0983437,15.548 C18.734363,15.3614528 19.394574,15.270459 20.0573437,15.278 C21.6913437,15.278 22.9213437,15.625 23.7483437,16.316 C24.5603437,17.003 24.9663437,17.981 24.9663437,19.251 L24.9663437,26.618 L22.6253437,26.618 Z M24.0053437,13.382 C23.4835424,13.2892776 22.9576097,13.2215337 22.4293437,13.179 C21.1107732,13.0747613 19.7855395,13.0881475 18.4693437,13.219 C17.7123437,13.291 16.8963437,13.4 16.0223437,13.546 L16.4203437,12.173 C17.1543437,10.398 18.5433437,9.511 20.5883437,9.511 C21.5033437,9.511 22.3053437,9.696 22.9913437,10.065 C23.6783437,10.435 24.2513437,10.978 24.7083437,11.696 C24.8903437,11.983 25.0413437,12.291 25.1613437,12.621 C25.2813437,12.951 25.3693437,13.294 25.4263437,13.647 L24.0063437,13.382 L24.0053437,13.382 Z M20.2913437,10.659 C19.7513437,10.659 19.3083437,10.768 18.9643437,10.986 C18.6051573,11.2215048 18.3080869,11.5401865 18.0983437,11.915 C18.6133437,11.889 19.0833437,11.859 19.5073437,11.825 C20.3045637,11.7541363 21.1066147,11.7568143 21.9033437,11.833 C22.3373437,11.873 22.8203437,11.936 23.3503437,12.024 C22.5603437,11.114 21.5403437,10.659 20.2913437,10.659 Z M30.5143437,22.716 C30.4263437,22.736 30.3363437,22.754 30.2453437,22.766 C29.8677544,22.8197623 29.4826538,22.7671226 29.1333437,22.614 C28.8803944,22.5045488 28.6511402,22.3469579 28.4583437,22.15 C28.2671741,21.9532065 28.1136438,21.7230805 28.0053437,21.471 C27.894291,21.2161479 27.8374216,20.9409954 27.8383437,20.663 C27.8383437,19.633 28.3613437,18.949 29.4063437,18.611 C29.5883437,18.554 29.7763437,18.517 29.9683437,18.501 C30.1613437,18.486 30.3513437,18.49 30.5383437,18.513 C30.7253437,18.537 30.9053437,18.583 31.0763437,18.65 C31.2483437,18.718 31.4063437,18.809 31.5523437,18.923 C31.7083437,19.027 31.8483437,19.147 31.9703437,19.282 C32.2033418,19.5392308 32.3825245,19.8404754 32.4973437,20.168 C32.5493437,20.321 32.5803437,20.463 32.5903437,20.593 L32.9343437,24.831 C32.9703437,24.966 33.0463437,25.034 33.1603437,25.034 C33.2483437,25.034 33.3043437,25.021 33.3283437,24.994 C33.3513437,24.969 33.3683437,24.922 33.3783437,24.854 L33.7683437,19.329 C33.7737606,19.2952567 33.7767682,19.2611705 33.7773437,19.227 L33.7773437,19.126 C33.7793738,18.8465555 33.7423492,18.5681979 33.6673437,18.299 C33.5977302,18.0491251 33.4663643,17.8207822 33.2853437,17.635 C33.0773525,17.4323583 32.8245118,17.2816131 32.5473437,17.195 C32.2373437,17.088 31.8473437,17.035 31.3733437,17.035 C30.5403437,17.035 29.8723437,17.211 29.3673437,17.565 L29.3753437,17.557 C29.2453437,17.646 29.1283437,17.742 29.0243437,17.847 C28.9203816,17.9507212 28.8250647,18.0627603 28.7393437,18.182 C28.6534817,18.3013594 28.5714402,18.4234212 28.4933437,18.548 L28.2593437,18.923 L26.9253437,17.893 C27.0183437,17.503 27.2193437,17.138 27.5253437,16.8 L27.5253437,16.808 C27.728038,16.5795985 27.9516816,16.370686 28.1933437,16.184 C28.4353437,15.997 28.7103437,15.835 29.0203437,15.7 C29.3595893,15.5559293 29.7142404,15.4512452 30.0773437,15.388 C30.4733437,15.315 30.9233437,15.278 31.4273437,15.278 C33.6023437,15.278 35.0543437,15.965 35.7823437,17.338 C36.0697811,17.8733214 36.1896352,18.4826959 36.1263437,19.087 L35.6343437,24.612 C35.6343437,24.794 35.6003437,25.002 35.5323437,25.237 C35.4653437,25.471 35.3623437,25.693 35.2243437,25.904 C35.0863437,26.114 34.9113437,26.297 34.6973437,26.45 C34.4720795,26.6080169 34.207874,26.701388 33.9333437,26.72 C33.7015321,26.7390088 33.4698595,26.759676 33.2383437,26.782 C33.1941211,26.7862671 33.1497589,26.7889355 33.1053437,26.79 L33.0433437,26.79 C32.4553437,26.79 31.9563437,26.646 31.5453437,26.36 L31.5523437,26.36 C31.0373437,26.017 30.7773437,25.598 30.7723437,25.104 L30.5143437,22.716 Z M30.8813437,20.624 C30.8820168,20.5077569 30.855295,20.3929902 30.8033437,20.289 C30.7519451,20.1859042 30.6817412,20.0933164 30.5963437,20.016 C30.5102238,19.9374253 30.4115172,19.8738744 30.3043437,19.828 C30.2009477,19.782482 30.0893135,19.7586576 29.9763437,19.758 C29.739849,19.7469851 29.5117294,19.8468105 29.3593437,20.028 C29.2904752,20.1111309 29.2400309,20.2079295 29.2113437,20.312 C29.1803437,20.422 29.1643437,20.538 29.1643437,20.663 C29.1643437,20.803 29.1883437,20.927 29.2343437,21.034 C29.3192595,21.2319068 29.483757,21.3847841 29.6873437,21.455 C29.7873437,21.489 29.8873437,21.506 29.9923437,21.506 C30.1013437,21.506 30.2093437,21.488 30.3153437,21.452 C30.4208899,21.4162035 30.5179133,21.3590108 30.6003437,21.284 C30.6855843,21.2059294 30.7545704,21.1117957 30.8033437,21.007 C30.8577257,20.8867946 30.8843832,20.7558996 30.8813437,20.624 Z M35.2983437,13.421 C34.7765424,13.3282776 34.2506097,13.2605337 33.7223437,13.218 C32.4037732,13.1137613 31.0785395,13.1271475 29.7623437,13.258 C29.0043437,13.33 28.1893437,13.439 27.3153437,13.585 L27.7133437,12.212 C28.4463437,10.437 29.8363437,9.55 31.8803437,9.55 C32.7963437,9.55 33.5973437,9.735 34.2843437,10.104 C34.9713437,10.474 35.5433437,11.018 36.0013437,11.735 C36.1833437,12.022 36.3343437,12.33 36.4533437,12.66 C36.5733437,12.99 36.6613437,13.333 36.7193437,13.686 L35.2993437,13.421 L35.2983437,13.421 Z M31.5843437,10.698 C31.0433437,10.698 30.6003437,10.807 30.2573437,11.025 C29.8981573,11.2605048 29.6010869,11.5791865 29.3913437,11.954 C29.9063437,11.928 30.3753437,11.898 30.7993437,11.864 C31.5965637,11.7931363 32.3986147,11.7958143 33.1953437,11.872 C33.6303437,11.912 34.1123437,11.975 34.6433437,12.063 C33.8523437,11.153 32.8333437,10.698 31.5833437,10.698 L31.5843437,10.698 Z M42.3693437,20.499 C42.3693437,20.619 42.3963437,20.729 42.4513437,20.827 C42.504149,20.9237189 42.5727627,21.0109224 42.6543437,21.085 C42.7343437,21.158 42.8253437,21.215 42.9273437,21.256 C43.0196313,21.2958597 43.118831,21.3172624 43.2193437,21.319 C43.4389456,21.3206313 43.6505563,21.2367044 43.8093437,21.085 C43.9690953,20.932672 44.058225,20.7207172 44.0553437,20.5 C44.0553437,19.969 43.7763437,19.703 43.2193437,19.703 C43.1081975,19.7027103 42.9982045,19.7255262 42.8963437,19.77 C42.7969924,19.8124527 42.7056661,19.8716457 42.6263437,19.945 C42.5488325,20.017368 42.4854255,20.1034931 42.4393437,20.199 C42.3933342,20.2923163 42.3693845,20.3949577 42.3693437,20.499 Z M45.7793437,26.618 L45.7793437,19.158 C45.7793437,18.829 45.7353437,18.538 45.6473437,18.283 C45.5714651,18.0491699 45.4432068,17.835748 45.2723437,17.659 L45.1863437,17.596 L44.9523437,17.44 L44.9443437,17.44 C44.9493437,17.44 44.9033437,17.468 44.8043437,17.522 C44.7043437,17.577 44.5643437,17.648 44.3823437,17.737 C44.1772078,17.8458809 43.9614023,17.9333424 43.7383437,17.998 C43.5283437,18.058 43.3313437,18.088 43.1493437,18.088 C42.8063437,18.088 42.4293437,17.971 42.0183437,17.737 C41.7113437,17.565 41.5583437,17.474 41.5583437,17.464 C41.5163437,17.474 41.4283437,17.521 41.2923437,17.604 C41.1823427,17.6733428 41.0846707,17.7605379 41.0033437,17.862 C40.7073437,18.236 40.5583437,18.824 40.5583437,19.625 C40.5583437,19.86 40.5703437,20.088 40.5933437,20.312 C40.6173437,20.536 40.6553437,20.754 40.7073437,20.968 L40.9873437,22.255 L40.9873437,22.248 C41.0503437,22.528 41.1053437,22.791 41.1513437,23.036 C41.1983437,23.28 41.2353437,23.514 41.2613437,23.738 L41.4753437,23.445 C41.5453437,23.349 41.6253437,23.249 41.7133437,23.145 L42.2993437,22.419 C42.183862,22.3846152 42.0735371,22.3348344 41.9713437,22.271 C41.8662427,22.2040404 41.7668995,22.1284459 41.6743437,22.045 L41.6823437,22.045 C41.2384631,21.6491154 40.9903147,21.07863 41.0033437,20.484 C41.0033437,19.719 41.3233437,19.126 41.9633437,18.704 C42.3333437,18.465 42.7493437,18.346 43.2123437,18.346 L43.3833437,18.346 L44.1633437,18.455 C44.4813437,18.548 44.7653437,18.793 45.0143437,19.188 C45.3013437,19.651 45.4443437,20.128 45.4443437,20.617 C45.4443437,21.048 45.1943437,21.623 44.6943437,22.341 C44.6533437,22.398 44.5283437,22.562 44.3203437,22.833 C44.1123437,23.103 43.8183437,23.481 43.4383437,23.964 C43.3666676,24.0564023 43.2966563,24.1500841 43.2283437,24.245 C43.1443437,24.36 43.0503437,24.493 42.9463437,24.643 L42.3763437,25.455 C42.1633437,25.762 41.9373437,26.15 41.6983437,26.618 L39.1063437,26.618 L39.1063437,26.528 C39.1063437,26.478 39.1073437,26.425 39.1103437,26.368 C39.1123437,26.311 39.1143437,26.256 39.1143437,26.204 L39.1143437,26.095 C39.1193437,26.048 39.1213437,26.009 39.1213437,25.978 L39.1213437,25.892 C39.1213437,25.585 39.1073437,25.256 39.0783437,24.905 C39.0503437,24.554 39.0043437,24.175 38.9423437,23.769 L38.9503437,23.793 C38.8471262,23.3699958 38.7481213,22.9459748 38.6533437,22.521 C38.5204004,21.9238743 38.3930615,21.3255146 38.2713437,20.726 C38.1891095,20.3415403 38.1498686,19.9491306 38.1543437,19.556 C38.1543437,18.946 38.2813437,18.34 38.5363437,17.736 C38.8173437,17.086 39.1893437,16.579 39.6523437,16.215 C40.0013437,15.955 40.3373437,15.748 40.6623437,15.595 C40.9883437,15.441 41.3043437,15.344 41.6113437,15.302 L41.6033437,15.31 C41.8273437,15.273 42.1553437,15.448 42.5863437,15.833 L42.5793437,15.833 C42.9013437,16.108 43.1333437,16.246 43.2733437,16.246 C43.4503437,16.246 43.7003437,16.111 44.0233437,15.84 C44.4593437,15.481 44.7663437,15.302 44.9433437,15.302 C45.1103437,15.302 45.2843437,15.324 45.4663437,15.368 C45.6483437,15.412 45.8383437,15.484 46.0363437,15.583 C46.2133437,15.677 46.3803437,15.784 46.5393437,15.907 C46.6983437,16.029 46.8473437,16.171 46.9883437,16.332 C47.1963437,16.566 47.3703437,16.798 47.5113437,17.027 C47.6513437,17.256 47.7663437,17.479 47.8543437,17.697 C48.0313437,18.166 48.1193437,18.684 48.1193437,19.251 L48.1193437,26.618 L45.7793437,26.618 Z M55.9483437,19.422 C55.4023437,19.422 55.1283437,19.696 55.1283437,20.242 C55.1283437,20.471 55.2073437,20.659 55.3633437,20.808 C55.5210984,20.9567931 55.7315917,21.0366726 55.9483437,21.03 C56.05459,21.0306762 56.1597034,21.0081519 56.2563437,20.964 C56.4477057,20.8759366 56.6012803,20.722362 56.6893437,20.531 C56.730711,20.4399079 56.7521881,20.341045 56.7523437,20.241 C56.7524213,20.0234705 56.668606,19.8142905 56.5183437,19.657 C56.3679779,19.5048705 56.162228,19.4204048 55.9483437,19.423 L55.9483437,19.422 Z M54.4423437,26.618 L51.7813437,26.618 C51.7813437,26.436 51.7843437,26.291 51.7923437,26.185 C51.8003437,26.078 51.8043437,25.98 51.8043437,25.892 C51.8043437,25.59 51.7863437,25.262 51.7493437,24.909 C51.7092072,24.5274707 51.6571819,24.1472859 51.5933437,23.769 C51.5595535,23.6097617 51.5232155,23.4510747 51.4843437,23.293 C51.4373437,23.101 51.3843437,22.889 51.3243437,22.657 C51.260933,22.4106016 51.1999301,22.1635898 51.1413437,21.916 C51.0791327,21.654696 51.023117,21.3919557 50.9733437,21.128 C50.9246789,20.8701744 50.882997,20.6110797 50.8483437,20.351 C50.8161501,20.1156833 50.7994475,19.8785061 50.7983437,19.641 C50.7983437,18.278 51.2943437,17.185 52.2883437,16.363 C53.1783437,15.64 54.3743437,15.279 55.8783437,15.279 C57.4853437,15.279 58.7113437,15.625 59.5533437,16.316 C60.3863437,17.003 60.8023437,17.981 60.8023437,19.251 L60.8023437,26.618 L58.4373437,26.618 L58.4373437,19.158 C58.4373437,18.512 58.2453437,18.008 57.8603437,17.643 C57.4383437,17.237 56.7673437,17.034 55.8463437,17.034 C55.0973437,17.034 54.4703437,17.256 53.9663437,17.698 C53.4823437,18.114 53.2403437,18.757 53.2403437,19.625 C53.2403437,20.057 53.2693437,20.403 53.3263437,20.663 L53.3803437,20.953 C53.4483437,20.718 53.5173437,20.483 53.5873437,20.25 C53.6573437,20.016 53.7353437,19.792 53.8213437,19.579 C53.9073437,19.365 54.0053437,19.168 54.1143437,18.985 C54.2243437,18.803 54.3543437,18.645 54.5043437,18.509 C54.6553437,18.374 54.8323437,18.269 55.0343437,18.193 C55.2383437,18.118 55.4743437,18.08 55.7453437,18.08 C56.0833437,18.08 56.3983437,18.127 56.6893437,18.22 C56.9813437,18.314 57.2333437,18.45 57.4463437,18.63 C57.6603437,18.81 57.8273437,19.03 57.9503437,19.29 C58.0723437,19.55 58.1333437,19.847 58.1333437,20.18 C58.1333437,20.783 57.9613437,21.272 57.6183437,21.647 C57.1713437,22.13 56.6033437,22.372 55.9173437,22.372 C55.6416235,22.3747125 55.3690706,22.3130799 55.1213437,22.192 C54.9656309,22.6398913 54.8452623,23.099298 54.7613437,23.566 C54.6621454,24.1183481 54.5947014,24.6759299 54.5593437,25.236 L54.4423437,26.618 Z M61.5363437,13.982 L59.9593437,13.693 C58.9713437,13.511 57.8233437,13.42 56.5183437,13.42 C55.1703437,13.42 53.6823437,13.566 52.0543437,13.857 C52.2413437,12.447 52.8113437,11.365 53.7633437,10.611 C54.4393437,10.085 55.3573437,9.822 56.5183437,9.822 C57.4913437,9.822 58.2893437,10.022 58.9133437,10.423 L58.9133437,9.152 L61.2473437,9.152 L61.2473437,13.32 L61.5363437,13.983 L61.5363437,13.982 Z M56.3383437,10.876 C55.6513437,10.876 55.1183437,11.019 54.7383437,11.306 C54.6183437,11.394 54.5053437,11.506 54.3983437,11.645 C54.2882625,11.7884495 54.1905773,11.940999 54.1063437,12.101 L55.5623437,12.058 C56.0123437,12.045 56.4403437,12.038 56.8453437,12.038 C57.2413437,12.038 57.6453437,12.056 58.0593437,12.09 C58.4733437,12.123 58.9003437,12.18 59.3433437,12.257 C58.9826184,11.8120392 58.5245065,11.4558821 58.0043437,11.216 C57.4797184,10.984819 56.9116025,10.8688769 56.3383437,10.876 Z M59.0543437,5 L61.1223437,5 L61.1223437,8.753 L59.0543437,8.753 L59.0543437,5.002 L59.0543437,5 Z" id="Shape" fill="#020202" fill-rule="nonzero"></path>
            <path d="M22.8463437,134.302 C22.837291,136.126989 22.837291,137.952011 22.8463437,139.777 C23.8883437,139.524 24.6203437,140.487 24.6203437,141.053 C24.6203437,141.62 24.3963437,142.513 23.2603437,142.605 C22.1253437,142.698 21.4963437,141.925 21.4963437,140.977 L21.4963437,134.302 L22.8463437,134.302 Z M23.2443437,140.562 C23.076618,140.554602 22.9131985,140.616321 22.7922369,140.732746 C22.6712753,140.849172 22.603359,141.010114 22.6043437,141.178 C22.6043437,141.457 22.7463437,141.794 23.2443437,141.794 C23.7423437,141.794 23.8683437,141.431 23.8683437,141.144 C23.8683437,140.859 23.6793437,140.562 23.2443437,140.562 Z M30.9163437,134.3 C31.2403437,134.478 31.5623437,134.634 31.8843437,134.77 C31.6083437,135.358 31.1143437,135.653 30.4013437,135.653 C29.3333437,135.653 28.8943437,135.107 27.8793437,135.173 C26.8643437,135.24 26.7553437,135.806 26.5673437,136.101 C27.3753437,136.176 27.9703437,136.241 28.3523437,136.293 C28.9253437,136.373 30.5843437,136.788 30.8193437,137.665 C31.0213437,138.366 30.9163437,140.32 30.9163437,141.029 C30.9163437,141.739 30.4363437,142.593 29.1573437,142.593 C27.8793437,142.593 27.7413437,141.502 27.7413437,141.123 C27.7413437,140.745 28.1483437,139.422 29.5313437,139.816 C29.5453437,138.941 29.5483437,138.411 29.5413437,138.226 C29.5313437,137.95 29.5133437,137.454 28.6273437,137.228 C27.7413437,137.002 26.2093437,136.796 25.2153437,136.912 C25.2923437,135.996 25.5543437,135.007 26.5673437,134.501 C27.5813437,133.994 28.8853437,134.435 29.5423437,134.603 C30.1993437,134.77 30.5183437,134.603 30.9163437,134.3 Z M29.0983437,140.546 C28.7303437,140.546 28.4953437,140.932 28.4953437,141.172 C28.4953437,141.412 28.7453437,141.798 29.0983437,141.798 C29.4513437,141.798 29.7683437,141.584 29.7683437,141.155 C29.7683437,140.726 29.4653437,140.546 29.0983437,140.546 Z M24.3463437,132.949 C24.6403437,131.714 25.1603437,130.386 27.4693437,130.326 C29.7793437,130.266 30.7233437,132.028 30.9913437,133.02 C29.3053437,132.532 25.3113437,132.67 24.3453437,132.95 L24.3463437,132.949 Z M25.8103437,132.076 C26.7583437,131.975 28.6303437,131.975 29.5323437,132.216 C29.2173437,131.576 28.3813437,130.948 27.4323437,131.009 C26.4843437,131.071 26.0893437,131.402 25.8103437,132.076 Z M29.6253437,127.051 L30.8453437,127.051 L30.8453437,129.389 L29.6253437,129.389 L29.6253437,127.051 Z M38.6603437,134.324 L40.0193437,134.324 L40.0193437,141.095 C40.0193437,141.756 39.7103437,142.267 39.3493437,142.413 C39.1383437,142.499 38.9663437,142.622 38.6603437,142.511 C37.8753437,142.225 37.7843437,140.405 35.7483437,139.929 C35.7393437,140.264 35.7323437,140.829 35.7283437,141.626 C35.5293437,142.645 34.5163437,142.724 33.6803437,142.511 C32.8453437,142.297 32.2773437,141.195 32.6243437,140.164 C32.9743437,139.125 33.5313437,138.933 34.3343437,138.84 C34.3643437,138.194 34.3723437,137.58 34.3583437,136.997 C33.0643437,137.21 32.4523437,136.287 32.5483437,135.485 C32.6443437,134.683 33.2283437,134.217 34.1183437,134.216 C35.0053437,134.216 35.7483437,134.934 35.7283437,135.717 C35.7073437,136.501 35.7133437,137.641 35.7483437,138.919 C36.4843437,139.046 36.9713437,139.286 37.5823437,139.823 C37.7553437,139.976 38.0623437,140.293 38.5323437,140.706 C38.6223437,140.58 38.6603437,140.344 38.6603437,139.702 L38.6603437,134.324 Z M33.9373437,135.013 C33.6263437,135.013 33.3393437,135.153 33.3393437,135.645 C33.3393437,136.136 33.6533437,136.277 33.9373437,136.277 C34.2223437,136.277 34.6053437,136.079 34.6053437,135.651 C34.6053437,135.224 34.2493437,135.013 33.9373437,135.013 Z M34.3673437,139.874 C34.2903437,139.786 34.0423437,139.783 33.8133437,139.964 C33.5843437,140.147 33.3923437,140.675 33.6133437,141.323 C33.8353437,141.97 34.3673437,141.63 34.3673437,141.323 L34.3673437,139.874 Z M47.9423437,142.491 L47.9423437,137.736 C47.9423437,135.608 47.2623437,135.392 47.0303437,135.392 C46.7983437,135.392 46.1323437,135.891 45.6503437,135.891 C45.1673437,135.891 45.0113437,135.66 44.3753437,135.391 C43.3123437,135.751 43.2823437,137.681 43.5003437,138.182 C43.6453437,138.517 43.8143437,139.533 44.0053437,141.232 C44.0623437,141.068 44.5403437,140.412 45.4383437,139.265 C44.6363437,139.368 44.2123437,138.433 44.2123437,137.845 C44.2123437,137.258 45.0993437,136.078 46.3823437,136.637 C47.6653437,137.197 47.1843437,138.832 46.6853437,139.265 C46.3533437,139.555 45.5833437,140.632 44.3753437,142.499 L42.7783437,142.491 C42.8043437,142.005 42.8043437,141.43 42.5683437,140.267 C42.4113437,139.5 42.0303437,138.361 42.0303437,137.39 C42.0303437,134.947 44.0283437,134.183 44.5103437,134.183 C45.0003437,134.373 45.3673437,134.919 45.7473437,134.919 C46.1273437,134.919 46.3313437,134.565 47.0303437,134.183 C48.6053437,134.183 49.2693437,136.186 49.2693437,136.801 L49.2693437,142.491 L47.9423437,142.491 Z M45.6973437,137.368 C45.3533437,137.368 45.0803437,137.692 45.0803437,137.986 C45.0803437,138.28 45.2773437,138.594 45.6973437,138.594 C46.1173437,138.594 46.3453437,138.301 46.3453437,137.94 C46.3453437,137.58 46.0413437,137.368 45.6973437,137.368 Z M49.2733437,129.759 C49.9763437,129.762 50.3403437,129.759 50.5413437,129.759 C50.5473437,130.387 50.3443437,131.137 49.2733437,132.028 C48.3333437,132.81 46.6853437,133.125 45.7993437,133.065 L45.7893437,132.467 C46.2553437,132.415 46.5443437,132.171 46.6553437,131.734 C45.8833437,131.794 45.1913437,131.442 45.1913437,130.6 C45.1913437,129.759 45.7313437,129.487 46.4503437,129.425 C47.1693437,129.364 47.6263437,130.002 47.7843437,130.465 C47.9423437,130.928 47.7843437,131.531 47.3293437,132.028 C48.4863437,131.791 49.2733437,130.6 49.2733437,129.758 L49.2733437,129.759 Z M46.3753437,130.073 C46.2353244,130.072991 46.1011255,130.129021 46.0026822,130.228591 C45.9042388,130.328162 45.8497404,130.46299 45.8513437,130.603 C45.8513437,130.865 46.1013437,131.157 46.3753437,131.157 C46.6493437,131.157 46.9643437,131.023 46.9643437,130.602 C46.9643437,130.181 46.6973437,130.073 46.3753437,130.073 Z M56.3643437,134.322 L57.6543437,134.322 L57.6543437,139.192 C57.6543437,139.517 57.1743437,139.714 56.9593437,139.804 C57.6843437,140.14 57.9323437,140.565 57.9323437,141.21 C57.9323437,141.854 57.3363437,142.61 56.5443437,142.61 C55.7533437,142.61 55.3763437,141.966 55.2723437,141.49 C55.1683437,141.013 55.2983437,140.557 55.4373437,140.452 C54.5943437,140.556 53.7993437,141.75 53.6373437,142.47 L52.3983437,142.481 L52.3983437,136.978 C51.2733437,137.037 50.7113437,136.605 50.7113437,135.684 C50.7113437,134.301 51.9233437,134.237 52.2423437,134.237 C52.5623437,134.237 53.4273437,134.434 53.6383437,135.491 C53.6833437,136.646 53.6383437,140.528 53.6383437,140.811 C53.9473437,140.357 54.4783437,139.769 55.1383437,139.622 C55.7983437,139.476 56.1843437,139.393 56.3643437,139.032 C56.3743437,138.292 56.3743437,136.722 56.3643437,134.322 Z M56.5413437,140.552 C56.2733437,140.552 55.9653437,140.821 55.9653437,141.189 C55.9653437,141.557 56.2743437,141.827 56.5413437,141.827 C56.7180166,141.825558 56.8864905,141.752259 57.0079795,141.623979 C57.1294685,141.495698 57.193504,141.32349 57.1853437,141.147 C57.1853437,140.667 56.8093437,140.551 56.5413437,140.551 L56.5413437,140.552 Z M51.9463437,135.025 C51.5923437,135.025 51.4583437,135.325 51.4583437,135.648 C51.4583437,135.97 51.7163437,136.27 52.0273437,136.27 C52.3383437,136.27 52.6143437,135.953 52.6143437,135.595 C52.6143437,135.238 52.3013437,135.025 51.9463437,135.025 Z" id="Shape" fill="#2A3052" fill-rule="nonzero"></path>
            <path d="M249.682344,94.928 C249.940344,93.844 250.397344,92.679 252.422344,92.626 C254.448344,92.573 255.277344,94.119 255.512344,94.99 C254.033344,94.562 250.529344,94.683 249.682344,94.928 Z M250.967344,94.162 C251.799344,94.073 253.442344,94.073 254.232344,94.284 C253.955344,93.723 253.222344,93.172 252.390344,93.226 C251.558344,93.28 251.212344,93.571 250.967344,94.162 Z M277.795344,103.485 L277.795344,99.409 C277.795344,97.542 277.475344,97.091 275.598344,97.091 C273.721344,97.091 273.706344,99.264 273.898344,99.704 C274.025344,99.998 274.173344,100.89 274.341344,102.38 C274.391344,102.237 274.810344,101.662 275.598344,100.655 C274.895344,100.745 274.523344,99.925 274.523344,99.409 C274.523344,98.893 275.300344,97.859 276.426344,98.349 C277.552344,98.84 277.129344,100.275 276.692344,100.655 C276.401344,100.908 275.725344,101.854 274.666344,103.492 L273.264344,103.485 C273.287344,103.059 273.287344,102.554 273.079344,101.534 C272.942344,100.86 272.499344,99.853 272.608344,99.01 C272.869344,97 273.898344,96.444 275.783344,96.342 C277.669344,96.241 278.959344,97.22 278.959344,98.492 L278.959344,103.485 L277.795344,103.485 Z M275.825344,98.99 C275.523344,98.99 275.284344,99.275 275.284344,99.532 C275.284344,99.79 275.457344,100.066 275.825344,100.066 C276.193344,100.066 276.393344,99.809 276.393344,99.492 C276.393344,99.176 276.127344,98.99 275.825344,98.99 Z M256.245344,89.721 C256.753344,89.723 257.015344,89.721 257.161344,89.721 C257.165344,90.174 257.019344,90.716 256.245344,91.361 C255.565344,91.926 254.375344,92.153 253.735344,92.11 L253.727344,91.678 C254.064344,91.64 254.272344,91.464 254.353344,91.148 C253.795344,91.191 253.295344,90.937 253.295344,90.328 C253.295344,89.721 253.685344,89.524 254.205344,89.48 C254.724344,89.435 255.055344,89.896 255.169344,90.23 C255.283344,90.566 255.169344,91 254.839344,91.36 C255.676344,91.19 256.245344,90.329 256.245344,89.72 L256.245344,89.721 Z M254.151344,89.948 C254.050131,89.9477298 253.953016,89.9879538 253.881636,90.0597095 C253.810256,90.1314652 253.770542,90.2287906 253.771344,90.33 C253.771344,90.52 253.953344,90.731 254.151344,90.731 C254.348344,90.731 254.576344,90.634 254.576344,90.33 C254.576344,90.025 254.383344,89.948 254.151344,89.948 Z M261.912344,96.389 L263.045344,96.389 L263.045344,100.662 C263.045344,100.947 262.623344,101.12 262.435344,101.199 C263.070344,101.494 263.288344,101.867 263.288344,102.432 C263.288344,102.997 262.765344,103.661 262.070344,103.661 C261.376344,103.661 261.046344,103.096 260.954344,102.678 C260.863344,102.26 260.978344,101.859 261.099344,101.768 C260.359344,101.858 259.662344,102.906 259.521344,103.538 L258.433344,103.548 L258.433344,98.72 C257.446344,98.771 256.953344,98.393 256.953344,97.584 C256.953344,96.371 258.016344,96.315 258.297344,96.315 C258.577344,96.315 259.336344,96.488 259.521344,97.415 C259.561344,98.428 259.521344,101.834 259.521344,102.083 C259.791344,101.683 260.257344,101.168 260.837344,101.039 C261.416344,100.911 261.754344,100.839 261.912344,100.521 C261.922344,99.873 261.922344,98.495 261.912344,96.389 Z M262.068344,101.854 C261.833344,101.854 261.562344,102.091 261.562344,102.414 C261.562344,102.737 261.833344,102.974 262.068344,102.974 C262.223452,102.972555 262.371272,102.907959 262.4777,102.795115 C262.584127,102.682271 262.63997,102.530927 262.632344,102.376 C262.632344,101.956 262.302344,101.854 262.068344,101.854 Z M258.037344,97.006 C257.726344,97.006 257.608344,97.27 257.608344,97.552 C257.608344,97.835 257.834344,98.099 258.108344,98.099 C258.381344,98.099 258.622344,97.819 258.622344,97.506 C258.622344,97.193 258.348344,97.006 258.037344,97.006 Z M269.630344,96.594 C269.848344,96.424 270.232344,96.138 270.232344,95.6 C270.773344,95.726 271.190344,95.827 271.482344,95.904 C271.482344,96.341 271.102344,96.894 270.380344,97.114 C270.575344,97.323 270.680344,97.529 270.745344,97.669 C270.990344,98.127 271.056344,100.082 270.945344,103.535 L269.802344,103.535 C269.807344,103.075 269.807344,102.707 269.802344,102.432 C269.313344,100.404 268.165344,98.823 267.252344,99.232 C266.340344,99.642 266.681344,100.757 266.681344,101.189 C267.253344,101.029 268.261344,101.189 268.366344,102.296 C268.471344,103.403 267.357344,103.748 266.802344,103.64 C266.247344,103.53 265.654344,103.248 265.486344,102.227 C265.319344,101.207 265.276344,98.652 267.036344,98.421 C268.796344,98.19 269.451344,99.897 269.802344,100.312 C269.907344,98.035 269.724344,96.872 267.804344,97.055 C265.884344,97.239 265.741344,97.945 265.607344,98.237 C265.357344,98.041 265.131344,97.87 264.927344,97.724 C265.545344,96.771 266.547344,96.294 267.937344,96.294 C268.680344,96.294 269.226344,96.417 269.630344,96.594 Z M267.112344,101.854 C266.780344,101.854 266.612344,102.133 266.612344,102.383 C266.612344,102.633 266.806344,102.911 267.112344,102.911 C267.418344,102.911 267.620344,102.542 267.620344,102.332 C267.611102,102.060308 267.384079,101.847139 267.112344,101.855 L267.112344,101.854 Z M254.022344,96.427 C254.241344,96.257 254.624344,95.971 254.624344,95.434 C255.166344,95.56 255.582344,95.661 255.874344,95.737 C255.874344,96.174 255.494344,96.727 254.773344,96.947 C254.967344,97.157 255.073344,97.362 255.137344,97.503 C255.382344,97.96 255.449344,99.915 255.337344,103.368 L254.195344,103.368 C254.200344,102.908 254.200344,102.541 254.195344,102.265 C253.705344,100.237 252.558344,98.657 251.645344,99.066 C250.733344,99.476 251.074344,100.591 251.074344,101.022 C251.645344,100.863 252.654344,101.022 252.759344,102.13 C252.863344,103.237 251.750344,103.582 251.195344,103.473 C250.640344,103.364 250.047344,103.081 249.879344,102.061 C249.711344,101.041 249.669344,98.485 251.429344,98.254 C253.188344,98.024 253.844344,99.73 254.195344,100.146 C254.300344,97.868 254.116344,96.705 252.196344,96.888 C250.276344,97.072 250.133344,97.778 249.999344,98.071 C249.750344,97.874 249.523344,97.703 249.319344,97.558 C249.937344,96.605 250.940344,96.128 252.329344,96.128 C253.072344,96.128 253.619344,96.251 254.022344,96.428 L254.022344,96.427 Z M251.504344,101.688 C251.173344,101.688 251.004344,101.966 251.004344,102.216 C251.004344,102.466 251.198344,102.744 251.504344,102.744 C251.810344,102.744 252.012344,102.376 252.012344,102.166 C252.00364,101.893913 251.776457,101.680146 251.504344,101.688 Z M269.984344,107.094 C269.981548,106.842341 269.981548,106.590659 269.984344,106.339 C269.057344,106.445 268.643344,105.853 268.643344,105.279 C268.643344,104.705 268.993344,104.315 269.788344,104.243 C270.585344,104.17 271.019344,104.832 271.078344,105.279 C271.116344,105.577 271.135344,106.182 271.135344,107.094 L269.985344,107.094 L269.984344,107.094 Z M269.760344,104.813 C269.540344,104.813 269.353344,104.813 269.300344,105.325 C269.247344,105.838 269.608344,105.865 269.842344,105.865 C270.076344,105.865 270.342344,105.733 270.342344,105.325 C270.342344,104.917 269.979344,104.813 269.760344,104.813 Z" id="Shape" fill="#2A3052" fill-rule="nonzero"></path>
            <path d="M174.014344,163.723 L171.855344,163.723 L171.855344,155.305 L174.014344,155.305 L174.014344,163.723 Z M174.014344,168.152 L171.855344,168.152 L171.855344,165.891 L174.014344,165.891 L174.014344,168.152 Z" id="Shape" fill="#FFFFFF" fill-rule="nonzero"></path>
            <path d="M139.312344,154.725 L141.910344,154.725 C141.777344,156.428 140.730344,157.497 138.768344,157.933 C139.849344,158.248 140.412344,159 140.412344,160.153 C140.412344,161.978 140.402344,164.154 140.412344,165.939 C140.412344,168.925 139.706344,169.23 137.382344,169.332 C135.832344,169.4 133.402344,169.4 130.093344,169.332 L130.093344,167.694 L131.606344,167.694 L131.606344,164.737 C131.760344,163.097 134.542344,161.012 134.542344,158.974 C134.542344,156.935 132.137344,155.818 130.858344,157.234 C131.930344,157.296 132.830344,158.24 132.910344,159.601 C132.910344,161.022 131.867344,161.765 130.660344,161.765 C129.451344,161.765 128.148344,160.948 128.148344,159.281 C128.148344,157.613 128.888344,156.563 130.093344,155.808 C131.298344,155.053 135.408344,154.628 136.343344,157.933 C137.276344,161.24 133.853344,163.077 133.853344,165 L133.853344,167.694 L137.009344,167.694 C137.935344,167.694 138.188344,166.938 138.188344,165.534 C138.188344,164.61 138.188344,161.572 138.010344,159.601 C137.923344,158.638 137.090344,158.348 136.798344,158.348 C136.618344,157.839 136.612344,157.738 136.501344,157.356 C138.181344,157.202 139.117344,156.326 139.311344,154.726 L139.312344,154.725 Z M130.567344,158.515 C130.076344,158.515 129.662344,158.911 129.662344,159.548 C129.662344,160.186 130.137344,160.582 130.567344,160.582 C130.997344,160.582 131.637344,160.232 131.637344,159.523 C131.637344,158.815 131.059344,158.515 130.567344,158.515 Z M153.002344,155.454 L155.196344,155.454 L155.196344,163.734 C155.196344,164.287 154.379344,164.622 154.014344,164.774 C155.245344,165.346 155.667344,166.068 155.667344,167.164 C155.667344,168.259 154.653344,169.544 153.307344,169.544 C151.962344,169.544 151.323344,168.45 151.145344,167.64 C150.968344,166.83 151.190344,166.054 151.425344,165.876 C149.992344,166.053 148.641344,168.083 148.367344,169.306 L146.260344,169.325 L146.260344,159.97 C144.348344,160.07 143.392344,159.337 143.392344,157.77 C143.392344,155.42 145.452344,155.311 145.996344,155.311 C146.539344,155.311 148.009344,155.646 148.367344,157.442 C148.444344,159.406 148.367344,166.004 148.367344,166.487 C148.893344,165.714 149.795344,164.715 150.917344,164.466 C152.039344,164.216 152.695344,164.076 153.002344,163.461 C153.019344,162.205 153.019344,159.536 153.002344,155.454 Z M153.302344,166.044 C152.847344,166.044 152.323344,166.503 152.323344,167.129 C152.323344,167.754 152.849344,168.212 153.303344,168.212 C153.756344,168.212 154.397344,167.87 154.397344,167.056 C154.397344,166.243 153.758344,166.045 153.303344,166.045 L153.302344,166.044 Z M145.492344,156.65 C144.889344,156.65 144.662344,157.161 144.662344,157.709 C144.662344,158.257 145.100344,158.768 145.629344,158.768 C146.159344,158.768 146.627344,158.228 146.627344,157.62 C146.627344,157.012 146.095344,156.65 145.492344,156.65 Z M166.213344,156.63 L168.142344,156.945 C167.264344,160.141 165.118344,161.525 161.703344,161.101 C156.581344,160.463 158.471344,155.965 160.446344,156.141 C162.420344,156.317 162.873344,157.457 162.873344,158.204 C162.873344,158.951 162.798344,159.229 161.896344,159.902 C164.427344,160.282 165.866344,159.192 166.213344,156.63 Z M160.555344,157.24 C160.013344,157.24 159.590344,157.765 159.590344,158.287 C159.590344,158.809 160.066344,159.334 160.555344,159.334 C161.044344,159.334 161.663344,158.974 161.663344,158.26 C161.663344,157.546 161.097344,157.24 160.555344,157.24 Z M166.213344,163.973 L168.142344,164.288 C167.264344,167.484 165.118344,168.868 161.703344,168.444 C156.581344,167.806 158.471344,163.308 160.446344,163.484 C162.420344,163.66 162.873344,164.8 162.873344,165.547 C162.873344,166.294 162.798344,166.572 161.896344,167.245 C164.427344,167.625 165.866344,166.535 166.213344,163.973 Z M160.555344,164.583 C160.013344,164.583 159.590344,165.108 159.590344,165.63 C159.590344,166.152 160.066344,166.677 160.555344,166.677 C161.044344,166.677 161.663344,166.317 161.663344,165.603 C161.663344,164.889 161.097344,164.583 160.555344,164.583 Z" id="Shape" fill="#FFFFFF" fill-rule="nonzero"></path>
        </g>
    </g>
</svg>