<?xml version="1.0" encoding="UTF-8"?>
<svg width="299px" height="197px" viewBox="0 0 299 197" version="1.1" xmlns="http://www.w3.org/2000/svg" xmlns:xlink="http://www.w3.org/1999/xlink">
    <!-- Generator: Sketch 52.5 (67469) - http://www.bohemiancoding.com/sketch -->
    <title>rises</title>
    <desc>Created with Sketch.</desc>
    <g id="Page-1" stroke="none" stroke-width="1" fill="none" fill-rule="evenodd">
        <g id="rises">
            <rect id="Rectangle" fill="#F1F2F2" x="0" y="0" width="299" height="197"></rect>
            <path d="M1.99991112,1.98643262 L1.99991112,195.013567 L297.000089,195.013567 L297.000089,1.98643262 L1.99991112,1.98643262 Z M299,0 L299,197 L0,197 L0,0 L299,0 Z" id="Rectangle" fill="#C2C2C2" fill-rule="nonzero"></path>
            <path d="M6.27809839,54.8862587 L6.27809839,53.6955675 L290.529376,53.6955675 L290.529376,54.8862587 L6.27809839,54.8862587 Z M6.27809839,75.2135514 L6.27809839,74.0228601 L290.529376,74.0228601 L290.529376,75.2135514 L6.27809839,75.2135514 Z M6.27809839,95.5034812 L6.27809839,94.31279 L290.529376,94.31279 L290.529376,95.5034812 L6.27809839,95.5034812 Z M6.27809839,136.120704 L6.27809839,134.930012 L290.529376,134.930012 L290.529376,136.120704 L6.27809839,136.120704 Z M6.27809839,156.410634 L6.27809839,155.219942 L290.529376,155.219942 L290.529376,156.410634 L6.27809839,156.410634 Z M6.27809839,176.700564 L6.27809839,175.509872 L290.529376,175.509872 L290.529376,176.700564 L6.27809839,176.700564 Z M40.0071666,34 L41.1752102,34 L41.1752102,194 L40.0071666,194 L40.0071666,34 Z M75.9686353,34 L77.1366789,34 L77.1366789,194 L75.9686353,194 L75.9686353,34 Z M111.931068,34 L113.099112,34 L113.099112,194 L111.931068,194 L111.931068,34 Z M147.892537,34 L149.060581,34 L149.060581,194 L147.892537,194 L147.892537,34 Z M183.85497,34 L185.023014,34 L185.023014,194 L183.85497,194 L183.85497,34 Z M219.817404,34 L220.985447,34 L220.985447,194 L219.817404,194 L219.817404,34 Z M255.778872,34 L256.946916,34 L256.946916,194 L255.778872,194 L255.778872,34 Z" id="Shape" fill="#DFDEDE" fill-rule="nonzero"></path>
            <polygon id="Path" fill="#2A3052" points="4.29520069 118.7455 4.29520069 117.5345 293.15821 117.5345 293.15821 118.7455"></polygon>
            <polygon id="Path" fill="#C2C2C2" points="5.12810082 35.5515 5.12810082 33.1285 293.257392 33.1285 293.257392 35.5515"></polygon>
            <path d="M67.2752503,93.9449981 L40.377991,119.470415 C39.6577885,120.153885 38.5308705,120.1123 37.8609491,119.377532 C37.1910277,118.642764 37.2317886,117.493055 37.951991,116.809585 L66.1154116,90.082585 C66.8206492,89.4133167 67.9196394,89.4373336 68.5961395,90.1367978 L105.417244,128.20782 L139.287782,78.0462112 C139.938587,77.0823826 141.299747,76.9885093 142.071773,77.8542115 L190.271655,131.902554 L230.890664,59.7064636 C231.390305,58.8184049 232.510167,58.5267402 233.365904,59.061795 L259.368034,75.319795 C260.206676,75.844161 260.469873,76.9628464 259.955901,77.8184487 C259.44193,78.674051 258.345421,78.942571 257.506779,78.418205 L233.067426,63.137342 L192.14398,135.874536 C191.542641,136.943356 190.094948,137.104341 189.282033,136.192789 L140.947691,81.9936705 L107.128802,132.078789 C106.494739,133.017823 105.179441,133.135872 104.394419,132.324202 L67.2752503,93.9449981 Z" id="Path" fill="#2A3052"></path>
            <path d="M186.910964,151.552 L152.042153,151.552 L146.677646,143.214 L141.313138,151.552 L106.444328,151.552 C103.837058,151.552 101.749281,153.722 101.749281,156.425 L101.749281,181.592 C101.749281,184.296 103.873324,186.466 106.444328,186.466 L186.910964,186.466 C189.518234,186.466 191.606011,184.296 191.606011,181.592 L191.606011,156.425 C191.606011,153.722 189.481967,151.552 186.910964,151.552 Z" id="Path" fill="#E88024"></path>
            <ellipse id="Oval" fill="#FFFFFF" opacity="0.6" cx="258.438387" cy="78.869" rx="8.08351822" ry="8.605"></ellipse>
            <path d="M258.437407,88.6855 C253.305619,88.6855 249.166404,84.279257 249.166404,78.869 C249.166404,73.458743 253.305619,69.0525 258.437407,69.0525 C263.569194,69.0525 267.708409,73.458743 267.708409,78.869 C267.708409,84.279257 263.569194,88.6855 258.437407,88.6855 Z M258.437407,86.2625 C262.234427,86.2625 265.333441,82.9635636 265.333441,78.869 C265.333441,74.7744364 262.234427,71.4755 258.437407,71.4755 C254.640386,71.4755 251.541373,74.7744364 251.541373,78.869 C251.541373,82.9635636 254.640386,86.2625 258.437407,86.2625 Z" id="Oval" fill="#E88024" fill-rule="nonzero"></path>
            <ellipse id="Oval" fill="#FFFFFF" opacity="0.6" cx="39.164991" cy="120.141" rx="8.08351822" ry="8.605"></ellipse>
            <path d="M39.164991,129.9575 C34.0332036,129.9575 29.8939886,125.551257 29.8939886,120.141 C29.8939886,114.730743 34.0332036,110.3245 39.164991,110.3245 C44.2967784,110.3245 48.4359934,114.730743 48.4359934,120.141 C48.4359934,125.551257 44.2967784,129.9575 39.164991,129.9575 Z M39.164991,127.5345 C42.9620113,127.5345 46.061025,124.235564 46.061025,120.141 C46.061025,116.046436 42.9620113,112.7475 39.164991,112.7475 C35.3679707,112.7475 32.268957,116.046436 32.268957,120.141 C32.268957,124.235564 35.3679707,127.5345 39.164991,127.5345 Z" id="Oval" fill="#E88024" fill-rule="nonzero"></path>
            <path d="M19.2575994,139.808 C19.2477977,142.409 19.2477977,144.426 19.2575994,145.858 C20.3877433,145.578 21.1807064,146.642 21.1807064,147.268 C21.1807064,147.895 20.9376225,148.881 19.7075006,148.984 C18.4783589,149.086 17.7961558,148.232 17.7961558,147.184 L17.7961558,139.808 L19.2575994,139.808 Z M19.6888772,146.726 C19.5075787,146.718353 19.3310998,146.786672 19.2004089,146.915095 C19.0697181,147.043519 18.9961823,147.220878 18.9968724,147.406 C18.9968724,147.715 19.14978,148.087 19.6898574,148.087 C20.2289547,148.087 20.3651993,147.687 20.3651993,147.37 C20.3651993,147.054 20.1613225,146.726 19.6888772,146.726 Z M27.9997965,139.806 C28.3497196,140.002 28.6996427,140.176 29.0485857,140.325 C28.7496318,140.975 28.213475,141.301 27.4420759,141.301 C26.2854672,141.301 25.8100815,140.697 24.7103231,140.771 C23.6105647,140.845 23.4929435,141.47 23.2890667,141.796 C24.1643646,141.879 24.8083408,141.95 25.2219754,142.009 C25.8434075,142.096 27.6400716,142.556 27.8939374,143.524 C28.113497,144.299 27.9997965,146.458 27.9997965,147.242 C27.9997965,148.026 27.4793226,148.971 26.0953129,148.971 C24.7103231,148.971 24.560356,147.764 24.560356,147.346 C24.560356,146.928 25.0014356,145.466 26.5011061,145.902 C26.5148286,144.935 26.5177691,144.349 26.5109079,144.145 C26.5011061,143.839 26.4805224,143.292 25.5209293,143.042 C24.560356,142.792 22.9009167,142.564 21.8256627,142.692 C21.9079976,141.68 22.1912687,140.588 23.2890667,140.028 C24.3868647,139.468 25.7992995,139.956 26.5109079,140.14 C27.2225163,140.325 27.5685187,140.14 27.9997965,139.806 Z M26.0296411,146.709 C25.6316893,146.709 25.3768433,147.135 25.3768433,147.4 C25.3768433,147.665 25.6473721,148.092 26.0296411,148.092 C26.41191,148.092 26.7549719,147.855 26.7549719,147.382 C26.7549719,146.907 26.4285731,146.709 26.0296411,146.709 Z M20.8827326,138.313 C21.2012901,136.948 21.7648917,135.481 24.266303,135.414 C26.7677142,135.347 27.7910188,137.294 28.0811512,138.391 C26.2550818,137.851 21.9285813,138.005 20.8827326,138.313 Z M22.4696389,137.348 C23.495884,137.237 25.52485,137.237 26.500126,137.503 C26.1590244,136.796 25.253341,136.102 24.2261157,136.17 C23.1988904,136.237 22.7715333,136.604 22.4696389,137.348 Z M26.6010842,131.795 L27.9233427,131.795 L27.9233427,134.379 L26.600104,134.379 L26.6010842,131.795 Z M36.3881497,139.833 L37.8593951,139.833 L37.8593951,147.315 C37.8593951,148.045 37.5251548,148.61 37.1340643,148.771 C36.9047029,148.866 36.7194495,149.002 36.3881497,148.879 C35.5373562,148.563 35.4383584,146.552 33.2329605,146.026 C33.2231588,146.396 33.2162975,147.022 33.2113966,147.901 C32.9957577,149.027 31.8989399,149.115 30.9942367,148.879 C30.0885533,148.643 29.4730023,147.425 29.8493902,146.286 C30.2287186,145.138 30.8325075,144.926 31.7019243,144.823 C31.7342702,144.11 31.7430918,143.431 31.7283891,142.787 C30.3267363,143.022 29.6641367,142.002 29.7680355,141.116 C29.870954,140.229 30.5051284,139.714 31.4666819,139.714 C32.4292155,139.713 33.2329605,140.506 33.2113966,141.372 C33.1888526,142.238 33.1957138,143.498 33.2329605,144.911 C34.0298443,145.051 34.5581596,145.316 35.2197789,145.91 C35.4079729,146.078 35.7392727,146.429 36.2489646,146.885 C36.3469823,146.745 36.3881497,146.485 36.3881497,145.775 L36.3881497,139.833 Z M31.2716267,140.593 C30.9354261,140.593 30.62471,140.749 30.62471,141.293 C30.62471,141.835 30.9648314,141.991 31.2716267,141.991 C31.5803824,141.991 31.9959774,141.772 31.9959774,141.299 C31.9959774,140.827 31.6097877,140.594 31.2726069,140.594 L31.2716267,140.593 Z M31.7372107,145.966 C31.6538957,145.868 31.3863074,145.865 31.1383227,146.066 C30.8903379,146.267 30.6815603,146.851 30.9217036,147.566 C31.1618469,148.282 31.7372107,147.906 31.7372107,147.566 L31.7372107,145.966 Z M46.4408432,148.857 L46.4408432,143.603 C46.4408432,141.252 45.7057105,141.013 45.4538051,141.013 C45.2018997,141.013 44.4804895,141.564 43.9580553,141.564 C43.435621,141.564 43.2670306,141.308 42.5779663,141.013 C41.4272387,141.409 41.3939127,143.541 41.6301353,144.096 C41.7869636,144.466 41.9702567,145.589 42.177074,147.466 C42.2388251,147.286 42.7553783,146.561 43.7296741,145.293 C42.8612374,145.406 42.4015345,144.373 42.4015345,143.723 C42.4015345,143.074 43.3621078,141.77 44.7519985,142.389 C46.1418892,143.008 45.6204352,144.815 45.0803577,145.293 C44.7206328,145.613 43.8865024,146.803 42.5779663,148.867 L40.8479542,148.857 C40.8773595,148.321 40.8773595,147.685 40.619573,146.4 C40.4500024,145.552 40.037348,144.294 40.037348,143.22 C40.037348,140.521 42.2025586,139.677 42.7230325,139.677 C43.2552685,139.887 43.6522401,140.49 44.0639144,140.49 C44.4755886,140.49 44.6961284,140.099 45.4538051,139.677 C47.1593128,139.677 47.8787626,141.89 47.8787626,142.57 L47.8787626,148.857 L46.4408432,148.857 Z M44.0100047,143.197 C43.6375375,143.197 43.3415241,143.555 43.3415241,143.879 C43.3415241,144.204 43.5552026,144.551 44.0100047,144.551 C44.4648067,144.551 44.7108311,144.228 44.7108311,143.829 C44.7108311,143.429 44.3824718,143.196 44.0100047,143.196 L44.0100047,143.197 Z M47.8836634,134.788 C48.6452608,134.791 49.0392919,134.788 49.255911,134.788 C49.2627722,135.482 49.0432126,136.31 47.8836634,137.295 C46.8642795,138.16 45.0803577,138.508 44.1197845,138.441 L44.1099827,137.781 C44.6137936,137.723 44.92647,137.453 45.0480119,136.971 C44.2119211,137.037 43.4620858,136.647 43.4620858,135.718 C43.4620858,134.788 44.0462712,134.487 44.8245316,134.419 C45.6037722,134.351 46.0987615,135.056 46.2702924,135.568 C46.4418233,136.08 46.2702924,136.746 45.7772635,137.295 C47.0299294,137.034 47.8836634,135.718 47.8836634,134.788 Z M44.7441571,135.135 C44.5925279,135.134994 44.4471793,135.196787 44.3404224,135.306642 C44.2336655,135.416497 44.1743474,135.56531 44.1756545,135.72 C44.1756545,136.01 44.4481437,136.333 44.7441571,136.333 C45.0411507,136.333 45.381272,136.185 45.381272,135.72 C45.381272,135.254 45.0931,135.135 44.7441571,135.135 Z M55.5633488,139.83 L56.9620611,139.83 L56.9620611,145.212 C56.9620611,145.572 56.4415872,145.789 56.2083052,145.889 C56.9934268,146.259 57.2619952,146.729 57.2619952,147.442 C57.2619952,148.154 56.6160587,148.989 55.758404,148.989 C54.9017295,148.989 54.4939759,148.278 54.3812556,147.751 C54.2675551,147.225 54.4096807,146.721 54.5596478,146.604 C53.646123,146.719 52.7855277,148.039 52.6110562,148.834 L51.268214,148.846 L51.268214,142.766 C50.0498542,142.83 49.4401842,142.354 49.4401842,141.335 C49.4401842,139.807 50.7536212,139.737 51.0996236,139.737 C51.445626,139.737 52.382675,139.954 52.6110562,141.122 C52.6600651,142.399 52.6110562,146.688 52.6110562,147.002 C52.9452965,146.499 53.5206603,145.85 54.2352092,145.688 C54.9507383,145.525 55.3682936,145.434 55.5633488,145.034 C55.5751109,144.218 55.5751109,142.484 55.5633488,139.829 L55.5633488,139.83 Z M55.7554635,146.714 C55.4653311,146.714 55.132071,147.012 55.132071,147.419 C55.132071,147.826 55.4663113,148.123 55.7554635,148.123 C55.946573,148.121024 56.128701,148.039946 56.2600962,147.898352 C56.3914914,147.756758 56.460885,147.566791 56.4523692,147.372 C56.4523692,146.842 56.0455958,146.714 55.7564436,146.714 L55.7554635,146.714 Z M50.7791058,140.607 C50.3948764,140.607 50.2498103,140.939 50.2498103,141.295 C50.2498103,141.651 50.5291607,141.983 50.8663415,141.983 C51.2035223,141.983 51.5014961,141.633 51.5014961,141.237 C51.5014961,140.842 51.1633351,140.607 50.7791058,140.607 Z" id="Shape" fill="#2A3052" fill-rule="nonzero"></path>
            <path d="M237.367526,94.04 C237.671381,92.742 238.206557,91.348 240.584466,91.284 C242.961395,91.221 243.93373,93.072 244.21014,94.114 C242.474247,93.601 238.362405,93.747 237.368506,94.04 L237.367526,94.04 Z M238.876018,93.122 C239.852274,93.016 241.780282,93.016 242.707529,93.269 C242.383091,92.597 241.522495,91.938 240.546239,92.002 C239.569983,92.066 239.16321,92.415 238.876018,93.122 Z M270.357337,104.284 L270.357337,99.404 C270.357337,97.169 269.981929,96.629 267.779472,96.629 C265.577015,96.629 265.559371,99.231 265.783832,99.759 C265.933799,100.109 266.10729,101.177 266.304306,102.962 C266.363116,102.79 266.854185,102.102 267.779472,100.896 C266.954163,101.004 266.517984,100.022 266.517984,99.405 C266.517984,98.787 267.429549,97.548 268.750827,98.135 C270.072106,98.724 269.576136,100.441 269.064484,100.896 C268.721422,101.199 267.929439,102.331 266.685595,104.293 L265.040858,104.283 C265.068303,103.773 265.068303,103.169 264.824239,101.948 C264.66251,101.142 264.142036,99.936 264.270439,98.926 C264.577234,96.52 265.783832,95.854 267.997071,95.733 C270.20933,95.611 271.722723,96.784 271.722723,98.308 L271.722723,104.284 L270.357337,104.284 Z M268.04608,98.904 C267.692236,98.904 267.410925,99.244 267.410925,99.552 C267.410925,99.861 267.613822,100.191 268.04608,100.191 C268.478338,100.191 268.7126,99.884 268.7126,99.504 C268.7126,99.124 268.399924,98.904 268.04608,98.904 Z M245.068775,87.805 C245.665703,87.808 245.973478,87.805 246.145009,87.805 C246.14991,88.349 245.977399,88.997 245.068775,89.768 C244.271891,90.445 242.874159,90.718 242.123344,90.666 L242.114522,90.148 C242.509533,90.104 242.754578,89.892 242.849655,89.515 C242.194897,89.566 241.607771,89.261 241.607771,88.533 C241.607771,87.805 242.065513,87.57 242.675183,87.517 C243.284853,87.464 243.673003,88.015 243.806307,88.417 C243.940592,88.817 243.806307,89.338 243.420118,89.768 C244.401275,89.564 245.068775,88.533 245.068775,87.805 Z M242.611472,88.077 C242.492938,88.0772617 242.379405,88.1257598 242.29605,88.2117392 C242.212695,88.2977187 242.166407,88.4140733 242.167452,88.535 C242.167452,88.762 242.38015,89.015 242.611472,89.015 C242.843774,89.015 243.111362,88.9 243.111362,88.535 C243.111362,88.17 242.884941,88.077 242.611472,88.077 Z M251.719275,95.788 L253.049375,95.788 L253.049375,100.904 C253.049375,101.246 252.554385,101.453 252.333846,101.547 C253.07878,101.9 253.333626,102.347 253.333626,103.024 C253.333626,103.7 252.720035,104.494 251.905508,104.494 C251.090981,104.494 250.703812,103.818 250.595992,103.318 C250.488173,102.818 250.623437,102.338 250.765563,102.228 C249.897126,102.338 249.079659,103.591 248.913029,104.347 L247.636838,104.359 L247.636838,98.579 C246.47925,98.641 245.899965,98.188 245.899965,97.219 C245.899965,95.767 247.14773,95.7 247.47707,95.7 C247.806409,95.7 248.696409,95.907 248.913029,97.017 C248.960077,98.23 248.913029,102.307 248.913029,102.605 C249.231586,102.128 249.777545,101.511 250.457787,101.356 C251.13705,101.202 251.535002,101.116 251.720255,100.736 C251.730057,99.96 251.730057,98.311 251.720255,95.788 L251.719275,95.788 Z M251.902568,102.332 C251.626158,102.332 251.309561,102.615 251.309561,103.002 C251.309561,103.388 251.627138,103.672 251.902568,103.672 C252.177017,103.672 252.565167,103.46 252.565167,102.957 C252.565167,102.454 252.177998,102.332 251.902568,102.332 Z M247.172235,96.528 C246.806629,96.528 246.669404,96.843 246.669404,97.182 C246.669404,97.52 246.934052,97.836 247.25555,97.836 C247.576067,97.836 247.859338,97.502 247.859338,97.126 C247.859338,96.751 247.53686,96.528 247.172235,96.528 Z M260.776109,96.034 C261.032915,95.83 261.481836,95.488 261.481836,94.844 C262.117971,94.996 262.607079,95.117 262.949161,95.208 C262.949161,95.731 262.50318,96.394 261.657288,96.656 C261.884689,96.907 262.008191,97.153 262.084645,97.322 C262.371836,97.869 262.450251,100.21 262.319887,104.344 L260.978025,104.344 C260.984886,103.794 260.984886,103.354 260.978025,103.024 C260.404622,100.595 259.056878,98.703 257.986525,99.194 C256.916172,99.684 257.316084,101.019 257.316084,101.535 C257.986525,101.345 259.170579,101.535 259.293101,102.861 C259.416603,104.186 258.110028,104.599 257.45821,104.469 C256.806392,104.339 256.110467,104 255.914432,102.779 C255.717416,101.557 255.668407,98.498 257.73266,98.221 C259.796912,97.945 260.567331,99.988 260.978025,100.486 C261.101527,97.76 260.885888,96.366 258.633442,96.586 C256.380996,96.806 256.212405,97.652 256.055577,98.002 C255.794481,97.7908433 255.52845,97.5861175 255.257713,97.388 C255.983044,96.247 257.159256,95.676 258.78929,95.676 C259.661648,95.676 260.301703,95.823 260.776109,96.034 Z M257.820875,102.332 C257.431745,102.332 257.23473,102.666 257.23473,102.965 C257.23473,103.264 257.462131,103.597 257.820875,103.597 C258.17962,103.597 258.416823,103.156 258.416823,102.904 C258.406692,102.57833 258.140114,102.322463 257.820875,102.332 Z M242.461505,95.835 C242.717331,95.631 243.167232,95.289 243.167232,94.645 C243.803367,94.796 244.292475,94.917 244.634557,95.008 C244.634557,95.532 244.188576,96.195 243.341703,96.457 C243.570085,96.707 243.694567,96.954 243.770041,97.122 C244.057233,97.67 244.135647,100.011 244.005283,104.145 L242.663421,104.145 C242.669302,103.595 242.669302,103.154 242.663421,102.824 C242.090018,100.396 240.742275,98.504 239.671921,98.994 C238.601568,99.484 239.001481,100.819 239.001481,101.336 C239.671921,101.146 240.855975,101.336 240.978497,102.661 C241.101019,103.987 239.794444,104.4 239.143606,104.27 C238.491789,104.14 237.795863,103.8 237.598847,102.58 C237.402812,101.357 237.353803,98.298 239.418056,98.022 C241.482308,97.745 242.251747,99.789 242.663421,100.286 C242.786923,97.56 242.571284,96.166 240.318838,96.386 C238.065412,96.606 237.897801,97.453 237.740973,97.802 C237.479877,97.5908433 237.213846,97.3861175 236.943109,97.188 C237.66844,96.048 238.844652,95.477 240.474686,95.477 C241.347044,95.477 241.987099,95.623 242.461505,95.835 Z M239.506272,102.133 C239.117141,102.133 238.920126,102.466 238.920126,102.765 C238.920126,103.065 239.147527,103.397 239.506272,103.397 C239.865016,103.397 240.102219,102.957 240.102219,102.705 C240.092088,102.37933 239.82551,102.123463 239.506272,102.133 Z M261.191704,108.605 C261.188422,108.303676 261.188422,108.002324 261.191704,107.701 C260.103707,107.828 259.61754,107.119 259.61754,106.431 C259.61754,105.745 260.028234,105.278 260.962342,105.191 C261.896451,105.105 262.407123,105.897 262.474755,106.431 C262.519843,106.789 262.543367,107.513 262.543367,108.605 L261.191704,108.605 Z M260.928036,105.873 C260.670249,105.873 260.45069,105.873 260.388939,106.487 C260.327188,107.101 260.750624,107.132 261.026054,107.132 C261.300503,107.132 261.61318,106.975 261.61318,106.487 C261.61318,105.999 261.185822,105.873 260.928036,105.873 Z" id="Shape" fill="#2A3052" fill-rule="nonzero"></path>
            <path d="M272.934221,126.98 L273.956546,126.98 C274.003594,129.231 274.003594,130.684 273.956546,131.339 C273.885973,132.32 274.20159,133.256 272.489221,133.256 L268.950783,133.256 L268.950783,132.424 L269.344814,132.424 C269.43695,131.706 269.019395,130.313 270.272061,129.961 C268.738084,130.047 268.336212,127.656 269.864307,127.047 C271.393383,126.438 272.093229,127.359 272.093229,127.935 C272.093229,128.483 271.804077,129.058 271.016995,129.058 C270.609242,129.058 269.93488,128.864 270.04662,127.866 C269.497721,128.264 269.65847,128.988 270.225993,129.368 C270.429869,129.505 270.992491,129.583 271.915817,129.603 L271.915817,130.28 C270.911136,130.213 270.408305,130.518 270.408305,131.196 L270.408305,132.424 L272.489221,132.424 C272.934221,132.424 272.934221,132.174 272.934221,131.504 L272.934221,126.98 Z M271.012094,127.535 C270.82292,127.535 270.550431,127.758 270.550431,128.016 C270.550431,128.276 270.744506,128.498 271.011114,128.498 C271.279683,128.498 271.507084,128.303 271.507084,127.961 C271.507084,127.62 271.201269,127.535 271.012094,127.535 Z M266.292543,133.225 L267.280561,133.225 L267.280561,128.521 C267.280561,127.772 266.376838,126.744 264.751705,126.853 C263.667629,126.926 262.962882,127.429 262.636483,128.362 C262.823697,128.473 263.023653,128.598 263.234391,128.737 C263.535306,127.953 264.052839,127.554 264.786991,127.541 C265.88773,127.521 266.292543,128.11 266.292543,128.737 L266.292543,133.225 Z M246.614513,133.22 L247.862278,133.22 L247.862278,128.516 C247.862278,127.768 246.958555,126.74 245.333422,126.849 C244.249347,126.921 243.515194,127.477 243.130965,128.516 C243.473046,128.714 243.749456,128.882 243.961175,129.021 C244.141527,128.241 244.598289,127.845 245.333422,127.831 C246.434161,127.811 246.614513,128.357 246.614513,128.733 L246.614513,133.22 Z M260.661427,126.962 L261.690613,126.962 L261.690613,132.205 C261.690613,132.712 261.441648,133.253 260.661427,133.253 C259.9557,132.843 259.985105,131.52 258.462891,131.279 C258.423683,131.81 258.40408,132.272 258.40408,132.664 C258.40408,133.254 256.945577,133.944 256.233968,132.664 C255.52138,131.384 256.708374,130.404 257.400379,130.404 C257.413121,129.644 257.419982,129.194 257.419982,129.054 C256.989685,129.056 256.145753,128.978 256.080081,128.093 C256.015389,127.207 256.732878,126.878 257.180819,126.878 C257.62778,126.878 258.34723,127.207 258.4031,127.848 C258.45995,128.489 258.45995,129.771 258.462891,130.527 C259.114708,130.494 260.330127,131.574 260.494797,131.827 C260.727099,131.867 260.661427,131.321 260.661427,130.863 L260.661427,126.963 L260.661427,126.962 Z M257.07398,127.504 C256.836777,127.504 256.659365,127.674 256.659365,127.986 C256.659365,128.298 256.870103,128.468 257.12985,128.468 C257.389597,128.468 257.600335,128.346 257.600335,127.99 C257.600335,127.634 257.311183,127.504 257.07398,127.504 Z M257.432725,131.237 C256.937735,131.128 256.756403,131.662 256.821094,132.225 C256.887746,132.789 257.432725,132.618 257.432725,132.399 L257.432725,131.237 Z M254.815653,133.22 L253.781566,133.208 L253.775685,129.693 C253.683548,129.026 253.237568,129.198 252.657303,129.928 C252.077039,130.658 251.576168,131.692 251.402677,133.214 L250.378392,133.214 L250.36565,129.03 C249.360969,129.178 248.973799,128.324 248.973799,128.048 C248.973799,127.772 249.054173,127.053 250.007885,126.91 C250.960617,126.766 251.381113,127.785 251.370331,128.115 C251.36445,128.335 251.374252,129.125 251.402677,130.489 C251.632038,129.81 252.631819,128.765 253.117986,128.687 C252.91509,128.609 252.800409,128.124 252.800409,127.847 C252.800409,127.571 253.197381,126.854 253.867822,126.854 C254.538263,126.854 255.046974,127.398 255.046974,127.901 C255.046974,128.405 254.821534,128.753 254.388296,128.962 C254.645102,129.068 254.815653,129.367 254.815653,129.692 L254.815653,133.22 Z M253.935454,127.486 C253.687469,127.486 253.436544,127.738 253.436544,127.986 C253.436544,128.233 253.707073,128.485 253.936434,128.485 C254.164815,128.485 254.41476,128.323 254.41476,127.959 C254.41476,127.594 254.184419,127.486 253.935454,127.486 Z M250.023568,127.508 C249.81185,127.508 249.587389,127.758 249.587389,127.996 C249.587389,128.234 249.776564,128.478 250.023568,128.478 C250.270573,128.478 250.472489,128.323 250.519538,127.996 C250.567566,127.67 250.235286,127.508 250.023568,127.508 Z M242.172352,124.714 L242.172352,131.598 C242.172352,132.366 242.020424,133.234 241.141206,133.234 L236.993097,133.234 L236.993097,132.174 L237.527294,132.174 L237.527294,129.278 C236.633373,129.215 236.187392,128.83 236.187392,128.123 C236.187392,127.061 236.84117,126.899 237.412613,126.899 C237.984056,126.899 238.783881,127.272 238.783881,128.123 L238.783881,132.173 L240.55212,132.173 C240.880479,132.173 240.880479,132.042 240.880479,131.691 L240.880479,124.714 L242.172352,124.714 Z M237.359684,127.591 C237.092095,127.591 236.910763,127.833 236.910763,128.145 C236.910763,128.456 237.164628,128.598 237.358703,128.598 C237.553759,128.598 237.83899,128.576 237.83899,128.145 C237.83899,127.714 237.626292,127.591 237.358703,127.591 L237.359684,127.591 Z M234.504429,127.014 L234.504429,130.95 C235.349341,130.967 235.771797,131.358 235.771797,132.122 C235.771797,133.268 234.632832,133.342 234.504429,133.342 C234.377006,133.342 233.219417,133.122 233.219417,132.122 L233.219417,127.014 L234.503448,127.014 L234.504429,127.014 Z M234.628911,131.634 C234.379946,131.634 234.185871,131.831 234.185871,132.115 C234.185871,132.4 234.408371,132.598 234.628911,132.598 C234.849451,132.598 235.101356,132.364 235.101356,132.084 C235.101356,131.804 234.876896,131.634 234.628911,131.634 Z" id="Shape" fill="#6D6E71" fill-rule="nonzero"></path>
            <path d="M239.88756,123.44 C240.414895,123.442 240.687384,123.44 240.838331,123.44 C240.843232,123.92 240.691305,124.494 239.88756,125.177 C239.181832,125.776 237.944849,126.017 237.280289,125.97 L237.272448,125.513 C237.622371,125.473 237.83899,125.286 237.923285,124.952 C237.344001,124.998 236.825487,124.728 236.825487,124.084 C236.825487,123.44 237.22932,123.231 237.768417,123.184 C238.307515,123.137 238.650576,123.626 238.770158,123.98 C238.887779,124.335 238.770158,124.796 238.428076,125.177 C239.296513,124.995 239.88756,124.084 239.88756,123.44 Z M237.712547,123.68 C237.607621,123.679995 237.507048,123.722791 237.433223,123.798861 C237.359398,123.87493 237.31845,123.977957 237.319496,124.085 C237.319496,124.286 237.50769,124.51 237.712547,124.51 C237.918384,124.51 238.154607,124.408 238.154607,124.085 C238.154607,123.763 237.954651,123.68 237.713527,123.68 L237.712547,123.68 Z" id="Shape" fill="#6D6E71" fill-rule="nonzero"></path>
            <path d="M169.189366,168.343 L167.100609,168.343 L167.100609,160.03 L169.189366,160.03 L169.189366,168.343 Z M169.189366,172.717 L167.100609,172.717 L167.100609,170.484 L169.189366,170.484 L169.189366,172.717 Z" id="Shape" fill="#FFFFFF" fill-rule="nonzero"></path>
            <path d="M135.600667,159.458 L138.115801,159.458 C137.986417,161.138 136.972914,162.195 135.074312,162.626 C136.120161,162.936 136.666119,163.679 136.666119,164.817 C136.666119,166.619 136.656317,168.769 136.666119,170.531 C136.666119,173.479 135.981956,173.781 133.73245,173.882 C132.232779,173.949 129.880355,173.949 126.677137,173.882 L126.677137,172.265 L128.141521,172.265 L128.141521,169.345 C128.291488,167.724 130.984034,165.666 130.984034,163.653 C130.984034,161.64 128.656114,160.536 127.418151,161.935 C128.456158,161.995 129.326555,162.928 129.403989,164.273 C129.403989,165.676 128.394407,166.41 127.225056,166.41 C126.056685,166.41 124.795198,165.603 124.795198,163.956 C124.795198,162.309 125.510727,161.273 126.677137,160.527 C127.843548,159.781 131.822085,159.361 132.725808,162.626 C133.630511,165.89 130.316534,167.706 130.316534,169.604 L130.316534,172.264 L133.371745,172.264 C134.268607,172.264 134.512671,171.518 134.512671,170.132 C134.512671,169.219 134.512671,166.219 134.340159,164.272 C134.256844,163.322 133.449179,163.035 133.166888,163.035 C132.992416,162.532 132.987515,162.432 132.879696,162.055 C134.505809,161.904 135.412473,161.038 135.600667,159.458 Z M127.13684,163.2 C126.661454,163.2 126.260562,163.591 126.260562,164.22 C126.260562,164.85 126.720265,165.24 127.13684,165.24 C127.553415,165.24 128.171907,164.895 128.171907,164.196 C128.171907,163.496 127.612226,163.2 127.13684,163.2 Z M148.851677,160.177 L150.97474,160.177 L150.97474,168.354 C150.97474,168.9 150.184718,169.23 149.830874,169.382 C151.022769,169.945 151.431503,170.659 151.431503,171.741 C151.431503,172.822 150.450346,174.091 149.147691,174.091 C147.845036,174.091 147.226544,173.011 147.055013,172.211 C146.882502,171.411 147.098141,170.645 147.325542,170.469 C145.938592,170.644 144.630056,172.649 144.365408,173.855 L142.32664,173.875 L142.32664,164.637 C140.475086,164.736 139.549799,164.012 139.549799,162.464 C139.549799,160.144 141.544459,160.037 142.069834,160.037 C142.595209,160.037 144.018425,160.367 144.365408,162.141 C144.439901,164.081 144.365408,170.595 144.365408,171.072 C144.8751,170.309 145.747457,169.322 146.833493,169.076 C147.919529,168.83 148.554684,168.691 148.851677,168.084 C148.86834,166.844 148.86834,164.208 148.851677,160.177 Z M149.14279,170.636 C148.70171,170.636 148.194959,171.088 148.194959,171.706 C148.194959,172.324 148.703671,172.776 149.14279,172.776 C149.581909,172.776 150.201381,172.438 150.201381,171.634 C150.201381,170.831 149.583869,170.636 149.14279,170.636 Z M141.582686,161.358 C140.999481,161.358 140.778941,161.863 140.778941,162.404 C140.778941,162.945 141.203358,163.449 141.71501,163.449 C142.227642,163.449 142.680484,162.916 142.680484,162.316 C142.680484,161.716 142.165891,161.358 141.582686,161.358 Z M161.639064,161.339 L163.505321,161.649 C162.656488,164.805 160.578513,166.173 157.273357,165.753 C152.315622,165.123 154.145612,160.683 156.056957,160.856 C157.968302,161.03 158.406441,162.156 158.406441,162.893 C158.406441,163.63 158.333908,163.905 157.46057,164.569 C159.911012,164.945 161.303844,163.869 161.639064,161.339 Z M156.162816,161.94 C155.638422,161.94 155.227728,162.46 155.227728,162.975 C155.227728,163.49 155.688411,164.009 156.162816,164.009 C156.635261,164.009 157.23513,163.654 157.23513,162.949 C157.23513,162.243 156.686231,161.94 156.162816,161.94 Z M161.639064,168.59 L163.505321,168.9 C162.656488,172.056 160.578513,173.424 157.273357,173.005 C152.315622,172.375 154.145612,167.933 156.056957,168.107 C157.968302,168.281 158.406441,169.407 158.406441,170.144 C158.406441,170.882 158.333908,171.156 157.46057,171.821 C159.911012,172.196 161.303844,171.119 161.639064,168.59 Z M156.162816,169.192 C155.638422,169.192 155.227728,169.71 155.227728,170.226 C155.227728,170.741 155.688411,171.26 156.162816,171.26 C156.635261,171.26 157.23513,170.905 157.23513,170.2 C157.23513,169.494 156.686231,169.192 156.162816,169.192 Z" id="Shape" fill="#FFFFFF" fill-rule="nonzero"></path>
            <path d="M18.8155399,20.584 C18.81784,20.3860299 18.7427034,20.1952892 18.6067623,20.054 C18.5410916,19.9846602 18.4628681,19.9289662 18.3764207,19.89 C18.2862901,19.8494448 18.1887114,19.8289889 18.0902091,19.83 C17.9995187,19.8296211 17.9100781,19.8515759 17.829482,19.894 C17.7480398,19.9367722 17.6749565,19.9943877 17.6138431,20.064 C17.5505135,20.135407 17.499478,20.2172276 17.4628959,20.306 C17.3868975,20.4853105 17.3868975,20.6886895 17.4628959,20.868 C17.5329797,21.041405 17.6635926,21.1821417 17.829482,21.263 C18.0947047,21.3804643 18.4034105,21.3196986 18.6067623,21.11 C18.7444963,20.9715561 18.8200481,20.7812088 18.8155399,20.584 Z M22.9146394,13.579 C22.9656086,13.659 23.0146174,13.746 23.0606857,13.839 C23.1088645,13.9350392 23.1530124,14.033128 23.1930096,14.133 L23.1930096,14.126 C23.3694414,14.586 23.4576573,15.058 23.4576573,15.541 L23.4576573,22.426 L21.3679204,22.426 L21.3679204,21.274 C21.3679204,20.486 21.1130744,19.564 20.6014221,18.507 C19.9741089,17.217 19.320331,16.573 18.6420486,16.573 C18.2470374,16.573 17.9774887,16.807 17.8334027,17.277 L17.8334027,17.27 C17.7888232,17.4061765 17.7595569,17.5470806 17.746167,17.69 C17.7288972,17.8671094 17.7207179,18.045019 17.7216626,18.223 L17.7216626,18.433 C17.7216626,18.511 17.7265635,18.588 17.7363652,18.663 C17.856284,18.6434271 17.9775904,18.6340615 18.0990307,18.635 C18.6381279,18.635 19.0909696,18.825 19.4575557,19.204 L19.4506945,19.204 C19.8231617,19.584 20.0084151,20.044 20.0084151,20.584 C20.0084151,20.788 19.9731287,20.989 19.9035362,21.188 C19.8349238,21.388 19.7369061,21.579 19.6114435,21.764 C19.3183706,22.177 18.9674673,22.416 18.5587336,22.483 C18.2940859,22.511 18.100991,22.525 17.9804293,22.525 C17.355909,22.5365304 16.75569,22.2782941 16.3278512,21.814 L16.3347124,21.814 C15.8514852,21.321 15.6093815,20.408 15.6093815,19.076 C15.6093815,18.37 15.6701525,17.76 15.7907143,17.248 C15.9122562,16.736 16.0847673,16.324 16.3072674,16.011 C16.5719152,15.665 16.8787105,15.401 17.2266733,15.221 C17.5756162,15.041 17.9618059,14.951 18.3842621,14.951 C18.8586677,14.951 19.3605182,15.079 19.8898137,15.335 C20.4151885,15.595 20.9072373,16.085 21.3679204,16.8 L21.3679204,15.797 C21.3679204,15.47 21.3414556,15.188 21.2875459,14.951 C21.2461834,14.7434998 21.1670558,14.5457505 21.0542638,14.368 L21.0542638,14.375 C20.7474684,13.92 20.1358381,13.692 19.2213331,13.692 C18.3656388,13.692 17.7030392,13.844 17.2345147,14.147 C16.7689307,14.432 16.4346904,14.868 16.2298335,15.457 L14.8713084,14.367 L15.6309454,13.407 C16.0582291,12.9663918 16.5824559,12.6362378 17.1600213,12.444 C17.3678188,12.371 17.5912991,12.304 17.8334027,12.242 C18.2568391,12.142 18.7332051,12.092 19.2625005,12.092 C19.6602616,12.0892803 20.0576717,12.1166889 20.451455,12.174 C20.806279,12.228 21.127777,12.313 21.4169292,12.426 C21.5188676,12.332 21.6119844,12.232 21.6952994,12.128 C21.8158612,11.962 21.8766321,11.63 21.8766321,11.132 L24.0790894,11.701 C24.0790894,12.46 23.7536707,13.048 23.1038135,13.465 L22.9156196,13.579 L22.9146394,13.579 Z M19.3448354,24.175 C18.9684475,24.175 18.7390861,24.343 18.6547909,24.68 C18.6694936,25.206 18.8998351,25.47 19.3448354,25.47 C19.7682718,25.47 19.97999,25.254 19.97999,24.822 C19.97999,24.609 19.9309811,24.448 19.8329635,24.339 C19.7349458,24.229 19.5732166,24.175 19.3448354,24.175 Z M19.2409367,27.539 L19.2409367,26.337 L19.2272142,26.337 C18.7988769,26.337 18.3970044,26.164 18.0215967,25.818 C17.897467,25.6995345 17.8018612,25.5533966 17.7422463,25.391 C17.6765745,25.221 17.6442286,25.029 17.6442286,24.815 C17.6442286,24.398 17.7912551,24.033 18.0833478,23.72 C18.3999449,23.383 18.8243615,23.215 19.3595381,23.215 C20.224054,23.215 20.7788341,23.549 21.0258386,24.218 C21.0670061,24.341 21.0993519,24.486 21.1228762,24.652 C21.1464004,24.818 21.1571823,25.007 21.1571823,25.221 L21.1571823,26.074 L21.764892,26.074 L21.764892,23.386 L23.6605539,23.386 L23.6605539,27.539 L19.2399565,27.539 L19.2409367,27.539 Z M28.916262,18.585 L29.2857887,19.033 C29.4249738,19.204 29.5788616,19.401 29.7464718,19.623 L29.7464718,15.997 C29.6788613,16.0019886 29.6112284,16.0066553 29.5435752,16.011 C29.0093788,16.011 28.5584975,15.831 28.1909312,15.471 C27.8213633,15.1179639 27.6161354,14.6214171 27.6263493,14.105 C27.6263493,13.673 27.7635741,13.273 28.0380236,12.903 L28.0311624,12.91 C28.1576444,12.7145353 28.3208937,12.5466249 28.511449,12.416 C28.6878808,12.3 28.8839162,12.225 29.0975947,12.192 C29.3671434,12.163 29.5670994,12.149 29.6964828,12.149 C30.3659436,12.149 30.8962192,12.377 31.2863296,12.832 C31.6538959,13.263 31.837189,13.787 31.837189,14.404 L31.837189,22.426 L29.3965487,22.426 C29.3498366,22.3312813 29.3011434,22.2375932 29.2505023,22.145 C29.1801062,22.0161184 29.1105123,21.8867825 29.0417247,21.757 C28.9905574,21.668803 28.936953,21.5821016 28.8809757,21.497 C28.7976606,21.367 28.6819998,21.193 28.5330129,20.975 C28.4771428,20.88 28.4055899,20.764 28.317374,20.626 C28.2094422,20.4592925 28.0999843,20.2936186 27.9890148,20.129 C27.8312063,19.91 27.6459529,19.671 27.4312942,19.41 C27.2176156,19.15 27.0019767,18.898 26.7833973,18.656 L26.1903903,18.059 L26.1629454,18.023 L26.1629454,18.031 C25.8002799,17.675 25.5611168,17.464 25.4444757,17.398 L24.8730327,17.042 L25.528771,15.975 C25.9139804,15.975 26.6510734,16.465 27.7380895,17.447 C28.1439736,17.811896 28.5369485,18.1914715 28.916262,18.585 Z M28.8182444,14.112 C28.8182444,14.212 28.8378479,14.302 28.877055,14.386 C28.9172422,14.469 28.9691916,14.542 29.0338833,14.606 C29.1014856,14.6717974 29.1815309,14.7228375 29.2691257,14.756 C29.3588929,14.7912036 29.4542659,14.8091722 29.5504364,14.809 C29.6386524,14.809 29.7249079,14.788 29.8082229,14.745 C29.8909307,14.7030423 29.9664074,14.6476541 30.0317033,14.581 C30.0954396,14.5163036 30.1472353,14.4404261 30.1846108,14.357 C30.2203681,14.2804116 30.239429,14.196826 30.2404809,14.112 C30.2406885,14.017385 30.2206163,13.9238678 30.1816703,13.838 C30.1035735,13.6636541 29.9693771,13.5218037 29.8013617,13.436 C29.7238043,13.3948657 29.637843,13.3729408 29.5504364,13.372 C29.3565913,13.367617 29.1692388,13.4433523 29.0309427,13.582 C28.889838,13.7200781 28.8125713,13.9126107 28.8182444,14.112 Z M40.4529432,22.426 L40.4529432,15.712 C40.4529432,15.096 40.3255202,14.622 40.0696941,14.29 L40.0765553,14.297 C39.7511366,13.894 39.149308,13.692 38.2710696,13.692 C37.9657909,13.6914424 37.6614981,13.7273535 37.364406,13.799 C37.248376,13.8305381 37.1344428,13.8696179 37.0233045,13.916 C36.8946694,13.9700108 36.7710053,14.0356033 36.6537778,14.112 C36.5234143,14.192 36.4028526,14.27 36.2911124,14.343 C36.2026832,14.3991008 36.1187759,14.4623008 36.0401872,14.532 L36.0264647,14.546 C36.3793283,14.598 36.7419938,14.655 37.1144609,14.716 C37.485948,14.778 37.8319504,14.833 38.1534484,14.88 L37.9779967,16.146 C37.5643621,16.146 37.2948135,16.21 37.1693508,16.338 C36.9419498,16.528 36.8282493,16.81 36.8282493,17.184 L36.8282493,22.426 L34.7434132,22.426 L34.7434132,17.184 C34.7434132,16.739 34.8482921,16.376 35.0570698,16.096 C35.1227417,16.016 35.1825324,15.949 35.2384025,15.897 L33.8514523,15.719 L33.9837762,14.269 C34.2445032,14.159 34.4934681,13.969 34.7296907,13.699 C35.1467623,13.2480808 35.6343342,12.8709512 36.172511,12.583 C36.4832719,12.4204137 36.8124749,12.2974887 37.1526878,12.217 C37.5195192,12.1315304 37.8948012,12.0895856 38.2710696,12.092 C39.2238015,12.092 39.997161,12.22 40.5921283,12.476 L40.5852671,12.476 C40.9448409,12.6356437 41.2750159,12.85683 41.5615232,13.13 L41.5546619,13.13 C41.9266201,13.4875249 42.2118685,13.9285017 42.3878122,14.418 C42.4319202,14.541 42.4632858,14.662 42.4819092,14.78 C42.5230766,15.05 42.5446405,15.345 42.5446405,15.662 L42.5446405,22.426 L40.451963,22.426 L40.4529432,22.426 Z M49.5783894,21.387 C50.075339,21.387 50.3233238,21.129 50.3233238,20.612 C50.3254228,20.3020606 50.1460871,20.0207311 49.8675415,19.897 C49.6816849,19.814073 49.4700616,19.8155269 49.2853165,19.901 C49.1935721,19.9424826 49.1096461,20.000016 49.0373318,20.071 C48.9659361,20.1414263 48.9080901,20.2248626 48.866781,20.317 C48.7833722,20.5079484 48.7833722,20.7260516 48.866781,20.917 C48.9904447,21.2043558 49.2698048,21.3891208 49.5774092,21.387 L49.5783894,21.387 Z M51.8847454,20.307 C51.8847454,20.61 51.8308357,20.897 51.7210559,21.17 C51.6092757,21.4465997 51.4499426,21.7005925 51.250571,21.92 C51.0555158,22.134 50.8339959,22.295 50.585031,22.404 C50.3360661,22.514 50.0655373,22.568 49.7734446,22.568 C49.7126736,22.568 49.6509225,22.566 49.5881911,22.561 C49.5187008,22.5549889 49.4498391,22.5429453 49.382354,22.525 C49.1492096,22.5023261 48.9223846,22.4348026 48.7138734,22.326 C48.5075545,22.2195087 48.3190015,22.080465 48.1551726,21.914 C47.8285063,21.5633617 47.6485064,21.0967291 47.6533221,20.613 C47.6533221,20.072 47.8424962,19.616 48.2188841,19.247 C48.595272,18.877 49.0461534,18.692 49.5715281,18.692 L49.6822881,18.692 C49.7244357,18.692 49.7607023,18.694 49.7940283,18.699 L49.7940283,15.797 C49.7940283,15.105 49.7077727,14.624 49.5362418,14.354 C49.2431689,13.913 48.7246554,13.692 47.9816813,13.692 C47.2191038,13.692 46.6153149,13.906 46.1683542,14.332 C45.8948849,14.598 45.6606226,15.044 45.4645873,15.669 L44.1335071,14.795 C44.4177584,13.993 44.8392345,13.349 45.4018559,12.86 C45.9929026,12.348 46.8682005,12.092 48.0306902,12.092 C49.1872988,12.092 50.1214073,12.384 50.8330157,12.967 C51.5338421,13.545 51.8847454,14.404 51.8847454,15.541 L51.8847454,20.306 L51.8847454,20.307 Z M50.0096672,7.198 L51.8573005,7.198 L51.8573005,10.619 L50.0096672,10.619 L50.0096672,7.2 L50.0096672,7.198 Z M60.9474603,22.426 L58.8420405,22.426 L58.8420405,15.797 C58.8420405,15.091 58.7557849,14.612 58.584254,14.361 C58.2862802,13.915 57.7687469,13.692 57.0296935,13.692 C56.2533935,13.692 55.6476442,13.908 55.2104854,14.339 C54.931135,14.609 54.7154961,15.051 54.5616083,15.662 L53.1677969,14.795 C53.2981604,14.396 53.4647905,14.043 53.6696474,13.735 C53.8745044,13.427 54.1156279,13.155 54.3949783,12.917 C55.0409148,12.367 55.9426775,12.092 57.1002663,12.092 C58.2372714,12.092 59.1625583,12.384 59.8741667,12.967 C60.5896958,13.55 60.9474603,14.408 60.9474603,15.541 L60.9474603,22.426 Z" id="Shape" fill="#000000" fill-rule="nonzero"></path>
        </g>
    </g>
</svg>