<svg width="302" height="201" viewBox="0 0 302 201" xmlns="http://www.w3.org/2000/svg"><title>thai rise</title><g fill="none" fill-rule="evenodd"><g transform="translate(1.395 1)"><path stroke="#C2C2C2" stroke-width="2.423" fill="#F1F2F2" fill-rule="nonzero" d="M.203.52h298.999v197.985h-299z"/><path d="M2.977 55.195h294.705M2.977 75.869h294.705M2.977 96.505h294.705M2.977 137.815h294.705M2.977 158.451h294.705M2.977 179.087h294.705M38.552 34.558v162.729M75.836 34.558v162.729m37.285-162.729v162.729m37.284-162.729v162.729M187.69 34.558v162.729m37.285-162.729v162.729m37.284-162.729v162.729" stroke="#DFDEDE" stroke-width="1.211"/><path d="M2.977 117.14h294.705" stroke="#2A3052" stroke-width="1.211" stroke-linejoin="round"/><path d="M.81 33.34h299" stroke="#C2C2C2" stroke-width="2.423"/><path stroke="#2A3052" stroke-width="3.634" stroke-linecap="round" stroke-linejoin="round" d="M38.552 117.14l28.733-26.727 39.109 39.635 35.802-51.971 50.853 55.893 42.682-74.359 26.528 16.258"/><path d="M189.286 148.552h-35.574l-5.473-8.338-5.473 8.338h-35.574c-2.66 0-4.79 2.17-4.79 4.873v25.167c0 2.704 2.167 4.874 4.79 4.874h82.094c2.66 0 4.79-2.17 4.79-4.874v-25.167c0-2.703-2.167-4.873-4.79-4.873z" fill="#E88024" fill-rule="nonzero"/><ellipse cx="8.628" cy="9.366" rx="8.247" ry="8.605" opacity=".6" transform="translate(253.632 66.503)" fill="#FFF" fill-rule="nonzero"/><ellipse stroke="#E88024" stroke-width="2.423" cx="262.259" cy="75.869" rx="8.247" ry="8.605"/><ellipse cx="9.16" cy="8.757" rx="8.247" ry="8.605" opacity=".6" transform="translate(29.392 108.384)" fill="#FFF" fill-rule="nonzero"/><ellipse stroke="#E88024" stroke-width="2.423" cx="38.552" cy="117.141" rx="8.247" ry="8.605"/></g><g fill="#2A3052" fill-rule="nonzero"><path d="M19.637 139.808c-.01 2.601-.01 4.618 0 6.05 1.153-.28 1.962.784 1.962 1.41 0 .627-.248 1.613-1.503 1.716-1.254.102-1.95-.752-1.95-1.8v-7.376h1.491zm.44 6.918a.678.678 0 0 0-.706.68c0 .309.156.681.707.681.55 0 .689-.4.689-.717 0-.316-.208-.644-.69-.644zM28.556 139.806c.357.196.714.37 1.07.519-.305.65-.852.976-1.639.976-1.18 0-1.665-.604-2.787-.53-1.122.074-1.242.699-1.45 1.025.893.083 1.55.154 1.972.213.634.087 2.467.547 2.726 1.515.224.775.108 2.934.108 3.718 0 .784-.531 1.729-1.943 1.729-1.413 0-1.566-1.207-1.566-1.625 0-.418.45-1.88 1.98-1.444.014-.967.017-1.553.01-1.757-.01-.306-.031-.853-1.01-1.103-.98-.25-2.673-.478-3.77-.35.084-1.012.373-2.104 1.493-2.664s2.561-.072 3.287.112c.726.185 1.079 0 1.519-.334zm-2.01 6.903c-.406 0-.666.426-.666.691 0 .265.276.692.666.692s.74-.237.74-.71c0-.475-.333-.673-.74-.673zM21.295 138.313c.325-1.365.9-2.832 3.452-2.899 2.552-.067 3.596 1.88 3.892 2.977-1.863-.54-6.277-.386-7.344-.078zm1.619-.965c1.047-.111 3.117-.111 4.112.155-.348-.707-1.272-1.401-2.32-1.333-1.048.067-1.484.434-1.792 1.178zM27.129 131.795h1.349v2.584h-1.35zM37.114 139.833h1.501v7.482c0 .73-.341 1.295-.74 1.456-.234.095-.423.231-.761.108-.868-.316-.969-2.327-3.219-2.853-.01.37-.017.996-.022 1.875-.22 1.126-1.339 1.214-2.262.978-.924-.236-1.552-1.454-1.168-2.593.387-1.148 1.003-1.36 1.89-1.463.033-.713.042-1.392.027-2.036-1.43.235-2.106-.785-2-1.671.105-.887.752-1.402 1.733-1.402.982-.001 1.802.792 1.78 1.658-.023.866-.016 2.126.022 3.539.813.14 1.352.405 2.027.999.192.168.53.519 1.05.975.1-.14.142-.4.142-1.11v-5.942zm-5.22.76c-.343 0-.66.156-.66.7 0 .542.347.698.66.698.315 0 .739-.219.739-.692 0-.472-.394-.705-.738-.705zm.475 5.373c-.085-.098-.358-.101-.611.1s-.466.785-.221 1.5c.245.716.832.34.832 0v-1.6zM47.37 148.857v-5.254c0-2.351-.75-2.59-1.007-2.59-.257 0-.993.551-1.526.551s-.705-.256-1.408-.551c-1.174.396-1.208 2.528-.967 3.083.16.37.347 1.493.558 3.37.063-.18.59-.905 1.584-2.173-.886.113-1.355-.92-1.355-1.57 0-.649.98-1.953 2.398-1.334 1.418.619.886 2.426.335 2.904-.367.32-1.218 1.51-2.553 3.574l-1.765-.01c.03-.536.03-1.172-.233-2.457-.173-.848-.594-2.106-.594-3.18 0-2.699 2.209-3.543 2.74-3.543.543.21.948.813 1.368.813.42 0 .645-.391 1.418-.813 1.74 0 2.474 2.213 2.474 2.893v6.287H47.37zm-2.48-5.66c-.38 0-.682.358-.682.682 0 .325.218.672.682.672.464 0 .715-.323.715-.722 0-.4-.335-.633-.715-.633zM48.842 134.788c.777.003 1.179 0 1.4 0 .007.694-.217 1.522-1.4 2.507-1.04.865-2.86 1.213-3.84 1.146l-.01-.66c.514-.058.833-.328.957-.81-.853.066-1.618-.324-1.618-1.253 0-.93.596-1.231 1.39-1.299.795-.068 1.3.637 1.475 1.149.175.512 0 1.178-.503 1.727 1.278-.261 2.149-1.577 2.149-2.507zm-3.203.347a.58.58 0 0 0-.58.585c0 .29.278.613.58.613.303 0 .65-.148.65-.613 0-.466-.294-.585-.65-.585zM56.677 139.83h1.427v5.382c0 .36-.531.577-.769.677.801.37 1.075.84 1.075 1.553 0 .712-.659 1.547-1.534 1.547-.874 0-1.29-.711-1.405-1.238-.116-.526.029-1.03.182-1.147-.932.115-1.81 1.435-1.988 2.23l-1.37.012v-6.08c-1.243.064-1.865-.412-1.865-1.431 0-1.528 1.34-1.598 1.693-1.598s1.309.217 1.542 1.385c.05 1.277 0 5.566 0 5.88.341-.503.928-1.152 1.657-1.314.73-.163 1.156-.254 1.355-.654.012-.816.012-2.55 0-5.205zm.196 6.884c-.296 0-.636.298-.636.705s.341.704.636.704a.719.719 0 0 0 .711-.751c0-.53-.415-.658-.71-.658zm-5.077-6.107c-.392 0-.54.332-.54.688 0 .356.285.688.629.688.344 0 .648-.35.648-.746 0-.395-.345-.63-.737-.63z"/></g><g fill="#2A3052" fill-rule="nonzero"><path d="M242.158 94.04c.31-1.298.856-2.692 3.282-2.756 2.425-.063 3.417 1.788 3.699 2.83-1.771-.513-5.966-.367-6.98-.074zm1.539-.918c.996-.106 2.963-.106 3.909.147-.331-.672-1.209-1.331-2.205-1.267-.996.064-1.411.413-1.704 1.12zM275.815 104.284v-4.88c0-2.235-.383-2.775-2.63-2.775s-2.265 2.602-2.036 3.13c.153.35.33 1.418.531 3.203.06-.172.561-.86 1.505-2.066-.842.108-1.287-.874-1.287-1.491 0-.618.93-1.857 2.278-1.27 1.348.589.842 2.306.32 2.761-.35.303-1.158 1.435-2.427 3.397l-1.678-.01c.028-.51.028-1.114-.221-2.335-.165-.806-.696-2.012-.565-3.022.313-2.406 1.544-3.072 3.802-3.193 2.257-.122 3.801 1.051 3.801 2.575v5.976h-1.393zm-2.358-5.38c-.361 0-.648.34-.648.648 0 .309.207.639.648.639.441 0 .68-.307.68-.687 0-.38-.319-.6-.68-.6zM250.015 87.805c.609.003.923 0 1.098 0 .005.544-.171 1.192-1.098 1.963-.813.677-2.239.95-3.005.898l-.009-.518c.403-.044.653-.256.75-.633-.668.051-1.267-.254-1.267-.982s.467-.963 1.089-1.016c.622-.053 1.018.498 1.154.9.137.4 0 .921-.394 1.351 1.001-.204 1.682-1.235 1.682-1.963zm-2.507.272a.454.454 0 0 0-.453.458c0 .227.217.48.453.48.237 0 .51-.115.51-.48s-.231-.458-.51-.458zM256.8 95.788h1.357v5.116c0 .342-.505.549-.73.643.76.353 1.02.8 1.02 1.477 0 .676-.626 1.47-1.457 1.47-.831 0-1.226-.676-1.336-1.176-.11-.5.028-.98.173-1.09-.886.11-1.72 1.363-1.89 2.119l-1.302.012v-5.78c-1.181.062-1.772-.391-1.772-1.36 0-1.452 1.273-1.519 1.609-1.519.336 0 1.244.207 1.465 1.317.048 1.213 0 5.29 0 5.588.325-.477.882-1.094 1.576-1.249.693-.154 1.099-.24 1.288-.62.01-.776.01-2.425 0-4.948zm.187 6.544c-.282 0-.605.283-.605.67 0 .386.324.67.605.67.28 0 .676-.212.676-.715s-.395-.625-.676-.625zm-4.826-5.804c-.373 0-.513.315-.513.654 0 .338.27.654.598.654.327 0 .616-.334.616-.71 0-.375-.329-.598-.701-.598zM266.04 96.034c.262-.204.72-.546.72-1.19.649.152 1.148.273 1.497.364 0 .523-.455 1.186-1.318 1.448.232.251.358.497.436.666.293.547.373 2.888.24 7.022h-1.369c.007-.55.007-.99 0-1.32-.585-2.429-1.96-4.321-3.052-3.83-1.092.49-.684 1.825-.684 2.341.684-.19 1.892 0 2.017 1.326.126 1.325-1.207 1.738-1.872 1.608-.665-.13-1.375-.469-1.575-1.69-.201-1.222-.251-4.281 1.855-4.558 2.106-.276 2.892 1.767 3.311 2.265.126-2.726-.094-4.12-2.392-3.9-2.298.22-2.47 1.066-2.63 1.416a21.22 21.22 0 0 0-.814-.614c.74-1.141 1.94-1.712 3.603-1.712.89 0 1.543.147 2.027.358zm-3.015 6.298c-.397 0-.598.334-.598.633s.232.632.598.632.608-.441.608-.693a.591.591 0 0 0-.608-.572zM247.355 95.835c.261-.204.72-.546.72-1.19.649.151 1.148.272 1.497.363 0 .524-.455 1.187-1.319 1.449.233.25.36.497.437.665.293.548.373 2.889.24 7.023h-1.369c.006-.55.006-.991 0-1.321-.585-2.428-1.96-4.32-3.052-3.83-1.092.49-.684 1.825-.684 2.342.684-.19 1.892 0 2.017 1.325.125 1.326-1.208 1.739-1.872 1.609-.665-.13-1.375-.47-1.576-1.69-.2-1.223-.25-4.282 1.856-4.558 2.106-.277 2.891 1.767 3.311 2.264.126-2.726-.094-4.12-2.392-3.9-2.299.22-2.47 1.067-2.63 1.416a21.22 21.22 0 0 0-.814-.614c.74-1.14 1.94-1.711 3.603-1.711.89 0 1.543.146 2.027.358zm-3.015 6.298c-.397 0-.598.333-.598.632 0 .3.232.632.598.632s.608-.44.608-.692a.591.591 0 0 0-.608-.572zM266.464 108.605a40.68 40.68 0 0 1 0-.904c-1.11.127-1.606-.582-1.606-1.27 0-.686.419-1.153 1.372-1.24.953-.086 1.474.706 1.543 1.24.046.358.07 1.082.07 2.174h-1.379zm-.269-2.732c-.263 0-.487 0-.55.614-.063.614.369.645.65.645.28 0 .599-.157.599-.645s-.436-.614-.699-.614z"/></g><g fill="#6D6E71" fill-rule="nonzero"><path d="M278.444 126.98h1.043c.048 2.251.048 3.704 0 4.359-.072.981.25 1.917-1.497 1.917h-3.61v-.832h.402c.094-.718-.332-2.111.946-2.463-1.565.086-1.975-2.305-.416-2.914 1.56-.609 2.274.312 2.274.888 0 .548-.295 1.123-1.098 1.123-.416 0-1.104-.194-.99-1.192-.56.398-.396 1.122.183 1.502.208.137.782.215 1.724.235v.677c-1.025-.067-1.538.238-1.538.916v1.228h2.123c.454 0 .454-.25.454-.92v-4.524zm-1.961.555c-.193 0-.471.223-.471.481 0 .26.198.482.47.482.274 0 .506-.195.506-.537 0-.341-.312-.426-.505-.426zM271.668 133.225h1.008v-4.704c0-.749-.922-1.777-2.58-1.668-1.106.073-1.825.576-2.158 1.509.191.111.395.236.61.375.307-.784.835-1.183 1.584-1.196 1.123-.02 1.536.569 1.536 1.196v4.488zM251.592 133.22h1.273v-4.704c0-.748-.922-1.776-2.58-1.667-1.106.072-1.855.628-2.247 1.667.349.198.631.366.847.505.184-.78.65-1.176 1.4-1.19 1.123-.02 1.307.526 1.307.902v4.487zM265.923 126.962h1.05v5.243c0 .507-.254 1.048-1.05 1.048-.72-.41-.69-1.733-2.243-1.974-.04.531-.06.993-.06 1.385 0 .59-1.488 1.28-2.214 0-.727-1.28.484-2.26 1.19-2.26.013-.76.02-1.21.02-1.35-.439.002-1.3-.076-1.367-.961-.066-.886.666-1.215 1.123-1.215.456 0 1.19.329 1.247.97.058.641.058 1.923.061 2.679.665-.033 1.905 1.047 2.073 1.3.237.04.17-.506.17-.964v-3.9zm-3.66.542c-.242 0-.423.17-.423.482 0 .312.215.482.48.482s.48-.122.48-.478-.295-.486-.537-.486zm.366 3.733c-.505-.109-.69.425-.624.988.068.564.624.393.624.174v-1.162zM259.959 133.22l-1.055-.012-.006-3.515c-.094-.667-.549-.495-1.141.235s-1.103 1.764-1.28 3.286h-1.045l-.013-4.184c-1.025.148-1.42-.706-1.42-.982s.082-.995 1.055-1.138c.972-.144 1.401.875 1.39 1.205-.006.22.004 1.01.033 2.374.234-.679 1.254-1.724 1.75-1.802-.207-.078-.324-.563-.324-.84 0-.276.405-.993 1.089-.993.684 0 1.203.544 1.203 1.047 0 .504-.23.852-.672 1.061.262.106.436.405.436.73v3.528zm-.898-5.734c-.253 0-.509.252-.509.5 0 .247.276.499.51.499.233 0 .488-.162.488-.526 0-.365-.235-.473-.489-.473zm-3.991.022c-.216 0-.445.25-.445.488s.193.482.445.482.458-.155.506-.482c.049-.326-.29-.488-.506-.488zM247.06 124.714v6.884c0 .768-.155 1.636-1.052 1.636h-4.232v-1.06h.545v-2.896c-.912-.063-1.367-.448-1.367-1.155 0-1.062.667-1.224 1.25-1.224s1.399.373 1.399 1.224v4.05h1.804c.335 0 .335-.131.335-.482v-6.977h1.318zm-4.91 2.877c-.273 0-.458.242-.458.554 0 .311.259.453.457.453.199 0 .49-.022.49-.453s-.217-.554-.49-.554zM239.237 127.014v3.936c.862.017 1.293.408 1.293 1.172 0 1.146-1.162 1.22-1.293 1.22-.13 0-1.311-.22-1.311-1.22v-5.108h1.31zm.127 4.62c-.254 0-.452.197-.452.481 0 .285.227.483.452.483s.482-.234.482-.514-.229-.45-.482-.45z"/><path d="M244.729 123.44c.538.002.816 0 .97 0 .005.48-.15 1.054-.97 1.737-.72.599-1.982.84-2.66.793l-.008-.457c.357-.04.578-.227.664-.561-.591.046-1.12-.224-1.12-.868s.412-.853.962-.9c.55-.047.9.442 1.022.796.12.355 0 .816-.349 1.197.886-.182 1.489-1.093 1.489-1.737zm-2.219.24a.401.401 0 0 0-.401.405c0 .201.192.425.401.425.21 0 .451-.102.451-.425 0-.322-.204-.405-.45-.405z"/></g><g fill="#FFF" fill-rule="nonzero"><path d="M172.601 168.343h-2.131v-8.313h2.131zM172.601 172.717h-2.131v-2.233h2.131z"/><g><path d="M138.333 159.458h2.566c-.132 1.68-1.166 2.737-3.103 3.168 1.067.31 1.624 1.053 1.624 2.191 0 1.802-.01 3.952 0 5.714 0 2.948-.698 3.25-2.993 3.351-1.53.067-3.93.067-7.198 0v-1.617h1.494v-2.92c.153-1.621 2.9-3.679 2.9-5.692 0-2.013-2.375-3.117-3.638-1.718 1.059.06 1.947.993 2.026 2.338 0 1.403-1.03 2.137-2.223 2.137-1.192 0-2.479-.807-2.479-2.454 0-1.647.73-2.683 1.92-3.429s5.249-1.166 6.171 2.099c.923 3.264-2.458 5.08-2.458 6.978v2.66h3.117c.915 0 1.164-.746 1.164-2.132 0-.913 0-3.913-.176-5.86-.085-.95-.909-1.237-1.197-1.237-.178-.503-.183-.603-.293-.98 1.659-.151 2.584-1.017 2.776-2.597zm-8.635 3.742c-.485 0-.894.391-.894 1.02 0 .63.469 1.02.894 1.02.425 0 1.056-.345 1.056-1.044 0-.7-.571-.996-1.056-.996zM151.852 160.177h2.166v8.177c0 .546-.806.876-1.167 1.028 1.216.563 1.633 1.277 1.633 2.359 0 1.081-1.001 2.35-2.33 2.35-1.329 0-1.96-1.08-2.135-1.88-.176-.8.044-1.566.276-1.742-1.415.175-2.75 2.18-3.02 3.386l-2.08.02v-9.238c-1.889.099-2.833-.625-2.833-2.173 0-2.32 2.035-2.427 2.571-2.427s1.988.33 2.342 2.104c.076 1.94 0 8.454 0 8.931.52-.763 1.41-1.75 2.518-1.996 1.108-.246 1.756-.385 2.059-.992.017-1.24.017-3.876 0-7.907zm.297 10.459c-.45 0-.967.452-.967 1.07 0 .618.519 1.07.967 1.07.448 0 1.08-.338 1.08-1.142 0-.803-.63-.998-1.08-.998zm-7.713-9.278c-.595 0-.82.505-.82 1.046s.433 1.045.955 1.045c.523 0 .985-.533.985-1.133s-.525-.958-1.12-.958zM164.898 161.339l1.904.31c-.866 3.156-2.986 4.524-6.358 4.104-5.058-.63-3.191-5.07-1.241-4.897 1.95.174 2.397 1.3 2.397 2.037 0 .737-.074 1.012-.965 1.676 2.5.376 3.921-.7 4.263-3.23zm-5.587.601c-.535 0-.954.52-.954 1.035 0 .515.47 1.034.954 1.034.482 0 1.094-.355 1.094-1.06 0-.706-.56-1.009-1.094-1.009zM164.898 168.59l1.904.31c-.866 3.156-2.986 4.524-6.358 4.105-5.058-.63-3.191-5.072-1.241-4.898 1.95.174 2.397 1.3 2.397 2.037 0 .738-.074 1.012-.965 1.677 2.5.375 3.921-.702 4.263-3.231zm-5.587.602c-.535 0-.954.518-.954 1.034 0 .515.47 1.034.954 1.034.482 0 1.094-.355 1.094-1.06 0-.706-.56-1.008-1.094-1.008z"/></g></g><path d="M19.186 20.584a.744.744 0 0 0-.213-.53.746.746 0 0 0-.235-.164.706.706 0 0 0-.292-.06.575.575 0 0 0-.266.064.766.766 0 0 0-.22.17.854.854 0 0 0-.154.242.708.708 0 0 0 0 .562.758.758 0 0 0 .374.395.715.715 0 0 0 .793-.153.715.715 0 0 0 .213-.526zm4.182-7.005c.052.08.102.167.149.26a3.8 3.8 0 0 1 .135.294v-.007c.18.46.27.932.27 1.415v6.885H21.79v-1.152c0-.788-.26-1.71-.782-2.767-.64-1.29-1.307-1.934-1.999-1.934-.403 0-.678.234-.825.704v-.007a1.895 1.895 0 0 0-.089.42 5.105 5.105 0 0 0-.025.533v.21c0 .078.005.155.015.23a2.235 2.235 0 0 1 .37-.028c.55 0 1.012.19 1.386.569h-.007c.38.38.569.84.569 1.38 0 .204-.036.405-.107.604-.07.2-.17.391-.298.576-.299.413-.657.652-1.074.719-.27.028-.467.042-.59.042a2.258 2.258 0 0 1-1.686-.711h.007c-.493-.493-.74-1.406-.74-2.738 0-.706.062-1.316.185-1.828.124-.512.3-.924.527-1.237.27-.346.583-.61.938-.79.356-.18.75-.27 1.181-.27.484 0 .996.128 1.536.384.536.26 1.038.75 1.508 1.465v-1.003c0-.327-.027-.609-.082-.846a1.694 1.694 0 0 0-.238-.583v.007c-.313-.455-.937-.683-1.87-.683-.873 0-1.549.152-2.027.455-.475.285-.816.721-1.025 1.31l-1.386-1.09.775-.96a3.893 3.893 0 0 1 1.56-.963c.212-.073.44-.14.687-.202.432-.1.918-.15 1.458-.15a8.2 8.2 0 0 1 1.213.082c.362.054.69.139.985.252.104-.094.199-.194.284-.298.123-.166.185-.498.185-.996l2.247.569c0 .759-.332 1.347-.995 1.764l-.192.114zm-3.642 10.596c-.384 0-.618.168-.704.505.015.526.25.79.704.79.432 0 .648-.216.648-.648 0-.213-.05-.374-.15-.483-.1-.11-.265-.164-.498-.164zm-.106 3.364v-1.202h-.014c-.437 0-.847-.173-1.23-.519a1.125 1.125 0 0 1-.285-.427c-.067-.17-.1-.362-.1-.576 0-.417.15-.782.448-1.095.323-.337.756-.505 1.302-.505.882 0 1.448.334 1.7 1.003.042.123.075.268.099.434.024.166.035.355.035.569v.853h.62v-2.688h1.934v4.153h-4.51zm9.871-8.954l.377.448c.142.171.299.368.47.59v-3.626a22.235 22.235 0 0 1-.207.014c-.545 0-1.005-.18-1.38-.54a1.821 1.821 0 0 1-.576-1.366c0-.432.14-.832.42-1.202l-.007.007a1.77 1.77 0 0 1 .49-.494c.18-.116.38-.191.598-.224.275-.029.479-.043.611-.043.683 0 1.224.228 1.622.683.375.431.562.955.562 1.572v8.022h-2.49a7.433 7.433 0 0 0-.149-.281 34.884 34.884 0 0 1-.213-.388 5.43 5.43 0 0 0-.164-.26c-.085-.13-.203-.304-.355-.522-.057-.095-.13-.211-.22-.349a32.04 32.04 0 0 0-.335-.497c-.161-.219-.35-.458-.569-.719-.218-.26-.438-.512-.661-.754l-.605-.597-.028-.036v.008c-.37-.356-.614-.567-.733-.633l-.583-.356.669-1.067c.393 0 1.145.49 2.254 1.472a23.17 23.17 0 0 1 1.202 1.138zm-.1-4.473c0 .1.02.19.06.274.041.083.094.156.16.22a.701.701 0 0 0 .24.15.796.796 0 0 0 .287.053c.09 0 .178-.021.263-.064a.87.87 0 0 0 .228-.164.764.764 0 0 0 .156-.224.587.587 0 0 0 .057-.245.649.649 0 0 0-.06-.274.84.84 0 0 0-.388-.402.568.568 0 0 0-.256-.064.733.733 0 0 0-.53.21.706.706 0 0 0-.217.53zm11.87 8.314v-6.714c0-.616-.13-1.09-.391-1.422l.007.007c-.332-.403-.946-.605-1.842-.605a3.99 3.99 0 0 0-.925.107 2.872 2.872 0 0 0-.348.117 2.39 2.39 0 0 0-.377.196c-.133.08-.256.158-.37.231a2 2 0 0 0-.256.189l-.014.014c.36.052.73.109 1.11.17.379.062.732.117 1.06.164l-.179 1.266c-.422 0-.697.064-.825.192-.232.19-.348.472-.348.846v5.242h-2.127v-5.242c0-.445.107-.808.32-1.088.067-.08.128-.147.185-.199l-1.415-.178.135-1.45c.266-.11.52-.3.761-.57a5.6 5.6 0 0 1 1.472-1.116 4.34 4.34 0 0 1 1-.366 4.984 4.984 0 0 1 1.141-.125c.972 0 1.761.128 2.368.384h-.007a3.51 3.51 0 0 1 .996.654h-.007a3.358 3.358 0 0 1 .85 1.288c.045.123.077.244.096.362.042.27.064.565.064.882v6.764H41.26zm9.31-1.039c.507 0 .76-.258.76-.775a.774.774 0 0 0-.465-.715.73.73 0 0 0-.594.004.878.878 0 0 0-.253.17.812.812 0 0 0-.174.246.737.737 0 0 0 0 .6.786.786 0 0 0 .725.47zm2.353-1.08c0 .303-.055.59-.167.863a2.511 2.511 0 0 1-.48.75c-.199.214-.425.375-.679.484-.254.11-.53.164-.828.164-.062 0-.125-.002-.189-.007a1.252 1.252 0 0 1-.21-.036 1.892 1.892 0 0 1-.682-.199 2.242 2.242 0 0 1-.57-.412 1.861 1.861 0 0 1-.512-1.301c0-.541.193-.997.577-1.366.384-.37.844-.555 1.38-.555h.113c.043 0 .08.002.114.007v-2.902c0-.692-.088-1.173-.263-1.443-.299-.441-.828-.662-1.586-.662-.778 0-1.394.214-1.85.64-.279.266-.518.712-.718 1.337l-1.358-.874c.29-.802.72-1.446 1.294-1.935.603-.512 1.496-.768 2.682-.768 1.18 0 2.133.292 2.859.875.715.578 1.073 1.437 1.073 2.574v4.765zM51.011 7.198h1.885v3.421h-1.885V7.2zM62.17 22.426h-2.148v-6.629c0-.706-.088-1.185-.263-1.436-.304-.446-.832-.669-1.586-.669-.792 0-1.41.216-1.856.647-.285.27-.505.712-.662 1.323l-1.422-.867c.133-.399.303-.752.512-1.06.209-.308.455-.58.74-.818.659-.55 1.579-.825 2.76-.825 1.16 0 2.104.292 2.83.875.73.583 1.095 1.441 1.095 2.574v6.885z" fill="#000"/></g></svg>