<?xml version="1.0" encoding="UTF-8"?>
<svg width="299px" height="197px" viewBox="0 0 299 197" version="1.1" xmlns="http://www.w3.org/2000/svg" xmlns:xlink="http://www.w3.org/1999/xlink">
    <!-- Generator: Sketch 52.6 (67491) - http://www.bohemiancoding.com/sketch -->
    <title>Run high</title>
    <desc>Created with Sketch.</desc>
    <g id="Run-high" stroke="none" stroke-width="1" fill="none" fill-rule="evenodd">
        <g id="rise">
            <polygon id="Path" stroke="#C2C2C2" stroke-width="2" fill="#F1F2F2" points="0 0 299 0 299 197 0 197"></polygon>
            <g id="Group-2" transform="translate(0.000000, 31.000000)">
                <path d="M2.74920034,24.4476052 L296.237332,24.4476052 M2.74920034,46.9776488 L296.237332,46.9776488 M2.74920034,65.7526851 L296.237332,65.7526851 M2.74920034,106.057765 L296.237332,106.057765 M2.74920034,125.832801 L296.237332,125.832801 M2.74920034,148.362845 L296.237332,148.362845 M38.4945497,3.79506531 L38.4945497,165.260377 M76.1212332,3.79506531 L76.1212332,165.260377 M113.747917,3.79506531 L113.747917,165.260377 M147.611932,3.79506531 L147.611932,165.260377 M185.238615,3.79506531 L185.238615,165.260377 M222.865299,3.79506531 L222.865299,165.260377 M260.491982,3.79506531 L260.491982,165.260377" id="Shape" stroke="#DFDEDE" stroke-width="1.21496561"></path>
                <path d="M3.90644108,100.212346 L295.513238,100.212346" id="Path" stroke="#2A3052" stroke-width="1.21496561" stroke-linejoin="round"></path>
                <path d="M0.799346801,2.56463667 L294.362731,2.56463667" id="Path" stroke="#C2C2C2" stroke-width="2.43030749" fill="#F1F2F2"></path>
                <path d="M187.239564,117.191156 L152.058614,117.191156 L146.640372,108.96769 L141.22213,117.191156 L106.041181,117.191156 C103.407313,117.191156 101.300218,119.33151 101.300218,121.997566 L101.300218,146.818164 C101.300218,149.484219 103.444939,151.624573 106.041181,151.624573 L187.27719,151.624573 C189.911058,151.624573 192.018152,149.484219 192.018152,146.818164 L192.018152,121.997566 C192.018152,119.33151 189.873431,117.191156 187.239564,117.191156 Z" id="Path" fill="#E88024"></path>
            </g>
        </g>
        <path d="M130.903705,87.8267404 L93.54167,114.616552 C93.3977462,114.719751 93.228998,114.782876 93.052679,114.799474 L58.0937925,118.090471 C57.5439388,118.142234 57.0562324,117.738451 57.0044697,117.188598 C56.952707,116.638744 57.3564895,116.151038 57.9063432,116.099275 L92.5960015,112.833623 L129.900423,86.0851221 C130.007467,86.0083679 130.12862,85.9535173 130.256924,85.9237208 L166.795918,77.4380995 L203.144631,53.756333 C203.272356,53.6731185 203.417414,53.6202062 203.56872,53.6016401 L241.008677,49.0075468 C241.55685,48.9402828 242.055761,49.3301369 242.123025,49.8783103 C242.190289,50.4264836 241.800435,50.9253941 241.252261,50.992658 L204.042269,55.5585334 L167.739862,79.2101305 C167.642072,79.2738422 167.533884,79.3199429 167.420196,79.3463452 L130.903705,87.8267404 Z M166.967767,77.3981902 L166.6481,77.534405 L166.795918,77.4380995 L166.967767,77.3981902 Z M92.8652297,112.808278 L92.3762387,112.9912 L92.5960015,112.833623 L92.8652297,112.808278 Z" id="Shape" fill="#2A3052" fill-rule="nonzero"></path>
        <g id="Group" transform="translate(231.250000, 41.000000)">
            <g id="Oval" opacity="0.6" fill="#FFFFFF">
                <ellipse cx="8.5125" cy="9.225" rx="8.1375" ry="8.475"></ellipse>
            </g>
            <path d="M8.5125,18.02305 C3.83686418,18.02305 0.05195,14.0811578 0.05195,9.225 C0.05195,4.36884218 3.83686418,0.42695 8.5125,0.42695 C13.1881358,0.42695 16.97305,4.36884218 16.97305,9.225 C16.97305,14.0811578 13.1881358,18.02305 8.5125,18.02305 Z M8.5125,17.37695 C12.8252985,17.37695 16.32695,13.7300687 16.32695,9.225 C16.32695,4.71993131 12.8252985,1.07305 8.5125,1.07305 C4.19970152,1.07305 0.69805,4.71993131 0.69805,9.225 C0.69805,13.7300687 4.19970152,17.37695 8.5125,17.37695 Z" id="Oval" fill="#E88024" fill-rule="nonzero"></path>
        </g>
        <g id="Group" transform="translate(83.000000, 104.250000)">
            <g id="Oval" opacity="0.6" transform="translate(1.000000, 0.000000)" fill="#FFFFFF">
                <ellipse cx="8.1375" cy="8.475" rx="8.1375" ry="8.475"></ellipse>
            </g>
            <path d="M9.1375,18.27305 C4.46186418,18.27305 0.67695,14.3311578 0.67695,9.475 C0.67695,4.61884218 4.46186418,0.67695 9.1375,0.67695 C13.8131358,0.67695 17.59805,4.61884218 17.59805,9.475 C17.59805,14.3311578 13.8131358,18.27305 9.1375,18.27305 Z M9.1375,17.62695 C13.4502985,17.62695 16.95195,13.9800687 16.95195,9.475 C16.95195,4.96993131 13.4502985,1.32305 9.1375,1.32305 C4.82470152,1.32305 1.32305,4.96993131 1.32305,9.475 C1.32305,13.9800687 4.82470152,17.62695 9.1375,17.62695 Z" id="Oval" fill="#E88024" fill-rule="nonzero"></path>
        </g>
        <text id="ขึ้นสูง" font-family="Thonburi-Bold, Thonburi" font-size="15" font-weight="bold" fill="#000000">
            <tspan x="15" y="23">ขึ้นสูง</tspan>
        </text>
        <g id="Group" transform="translate(29.000000, 90.000000)" fill="#2A3052" fill-rule="nonzero">
            <path d="M1.637,8.808 C1.627,11.409 1.627,13.426 1.637,14.858 C2.79,14.578 3.599,15.642 3.599,16.268 C3.599,16.895 3.351,17.881 2.096,17.984 C0.842,18.086 0.146,17.232 0.146,16.184 L0.146,8.808 L1.637,8.808 Z M2.077,15.726 C1.89203488,15.7183535 1.7119868,15.7866719 1.57865287,15.9150955 C1.44531893,16.0435191 1.37029593,16.2208782 1.371,16.406 C1.371,16.715 1.527,17.087 2.078,17.087 C2.628,17.087 2.767,16.687 2.767,16.37 C2.767,16.054 2.559,15.726 2.077,15.726 Z M10.556,8.806 C10.913,9.002 11.27,9.176 11.626,9.325 C11.321,9.975 10.774,10.301 9.987,10.301 C8.807,10.301 8.322,9.697 7.2,9.771 C6.078,9.845 5.958,10.47 5.75,10.796 C6.643,10.879 7.3,10.95 7.722,11.009 C8.356,11.096 10.189,11.556 10.448,12.524 C10.672,13.299 10.556,15.458 10.556,16.242 C10.556,17.026 10.025,17.971 8.613,17.971 C7.2,17.971 7.047,16.764 7.047,16.346 C7.047,15.928 7.497,14.466 9.027,14.902 C9.041,13.935 9.044,13.349 9.037,13.145 C9.027,12.839 9.006,12.292 8.027,12.042 C7.047,11.792 5.354,11.564 4.257,11.692 C4.341,10.68 4.63,9.588 5.75,9.028 C6.87,8.468 8.311,8.956 9.037,9.14 C9.763,9.325 10.116,9.14 10.556,8.806 Z M8.546,15.709 C8.14,15.709 7.88,16.135 7.88,16.4 C7.88,16.665 8.156,17.092 8.546,17.092 C8.936,17.092 9.286,16.855 9.286,16.382 C9.286,15.907 8.953,15.709 8.546,15.709 Z M3.295,7.313 C3.62,5.948 4.195,4.481 6.747,4.414 C9.299,4.347 10.343,6.294 10.639,7.391 C8.776,6.851 4.362,7.005 3.295,7.313 Z M4.914,6.348 C5.961,6.237 8.031,6.237 9.026,6.503 C8.678,5.796 7.754,5.102 6.706,5.17 C5.658,5.237 5.222,5.604 4.914,6.348 Z M9.129,0.795 L10.478,0.795 L10.478,3.379 L9.128,3.379 L9.129,0.795 Z M19.114,8.833 L20.615,8.833 L20.615,16.315 C20.615,17.045 20.274,17.61 19.875,17.771 C19.641,17.866 19.452,18.002 19.114,17.879 C18.246,17.563 18.145,15.552 15.895,15.026 C15.885,15.396 15.878,16.022 15.873,16.901 C15.653,18.027 14.534,18.115 13.611,17.879 C12.687,17.643 12.059,16.425 12.443,15.286 C12.83,14.138 13.446,13.926 14.333,13.823 C14.366,13.11 14.375,12.431 14.36,11.787 C12.93,12.022 12.254,11.002 12.36,10.116 C12.465,9.229 13.112,8.714 14.093,8.714 C15.075,8.713 15.895,9.506 15.873,10.372 C15.85,11.238 15.857,12.498 15.895,13.911 C16.708,14.051 17.247,14.316 17.922,14.91 C18.114,15.078 18.452,15.429 18.972,15.885 C19.072,15.745 19.114,15.485 19.114,14.775 L19.114,8.833 Z M13.894,9.593 C13.551,9.593 13.234,9.749 13.234,10.293 C13.234,10.835 13.581,10.991 13.894,10.991 C14.209,10.991 14.633,10.772 14.633,10.299 C14.633,9.827 14.239,9.594 13.895,9.594 L13.894,9.593 Z M14.369,14.966 C14.284,14.868 14.011,14.865 13.758,15.066 C13.505,15.267 13.292,15.851 13.537,16.566 C13.782,17.282 14.369,16.906 14.369,16.566 L14.369,14.966 Z M29.37,17.857 L29.37,12.603 C29.37,10.252 28.62,10.013 28.363,10.013 C28.106,10.013 27.37,10.564 26.837,10.564 C26.304,10.564 26.132,10.308 25.429,10.013 C24.255,10.409 24.221,12.541 24.462,13.096 C24.622,13.466 24.809,14.589 25.02,16.466 C25.083,16.286 25.61,15.561 26.604,14.293 C25.718,14.406 25.249,13.373 25.249,12.723 C25.249,12.074 26.229,10.77 27.647,11.389 C29.065,12.008 28.533,13.815 27.982,14.293 C27.615,14.613 26.764,15.803 25.429,17.867 L23.664,17.857 C23.694,17.321 23.694,16.685 23.431,15.4 C23.258,14.552 22.837,13.294 22.837,12.22 C22.837,9.521 25.046,8.677 25.577,8.677 C26.12,8.887 26.525,9.49 26.945,9.49 C27.365,9.49 27.59,9.099 28.363,8.677 C30.103,8.677 30.837,10.89 30.837,11.57 L30.837,17.857 L29.37,17.857 Z M26.89,12.197 C26.51,12.197 26.208,12.555 26.208,12.879 C26.208,13.204 26.426,13.551 26.89,13.551 C27.354,13.551 27.605,13.228 27.605,12.829 C27.605,12.429 27.27,12.196 26.89,12.196 L26.89,12.197 Z M30.842,3.788 C31.619,3.791 32.021,3.788 32.242,3.788 C32.249,4.482 32.025,5.31 30.842,6.295 C29.802,7.16 27.982,7.508 27.002,7.441 L26.992,6.781 C27.506,6.723 27.825,6.453 27.949,5.971 C27.096,6.037 26.331,5.647 26.331,4.718 C26.331,3.788 26.927,3.487 27.721,3.419 C28.516,3.351 29.021,4.056 29.196,4.568 C29.371,5.08 29.196,5.746 28.693,6.295 C29.971,6.034 30.842,4.718 30.842,3.788 Z M27.639,4.135 C27.4843042,4.13499425 27.3360161,4.1967871 27.2271001,4.30664201 C27.1181842,4.41649692 27.0576664,4.56530995 27.059,4.72 C27.059,5.01 27.337,5.333 27.639,5.333 C27.942,5.333 28.289,5.185 28.289,4.72 C28.289,4.254 27.995,4.135 27.639,4.135 Z M38.677,8.83 L40.104,8.83 L40.104,14.212 C40.104,14.572 39.573,14.789 39.335,14.889 C40.136,15.259 40.41,15.729 40.41,16.442 C40.41,17.154 39.751,17.989 38.876,17.989 C38.002,17.989 37.586,17.278 37.471,16.751 C37.355,16.225 37.5,15.721 37.653,15.604 C36.721,15.719 35.843,17.039 35.665,17.834 L34.295,17.846 L34.295,11.766 C33.052,11.83 32.43,11.354 32.43,10.335 C32.43,8.807 33.77,8.737 34.123,8.737 C34.476,8.737 35.432,8.954 35.665,10.122 C35.715,11.399 35.665,15.688 35.665,16.002 C36.006,15.499 36.593,14.85 37.322,14.688 C38.052,14.525 38.478,14.434 38.677,14.034 C38.689,13.218 38.689,11.484 38.677,8.829 L38.677,8.83 Z M38.873,15.714 C38.577,15.714 38.237,16.012 38.237,16.419 C38.237,16.826 38.578,17.123 38.873,17.123 C39.0679746,17.1210241 39.253786,17.0399459 39.3878385,16.8983517 C39.521891,16.7567576 39.592688,16.5667909 39.584,16.372 C39.584,15.842 39.169,15.714 38.874,15.714 L38.873,15.714 Z M33.796,9.607 C33.404,9.607 33.256,9.939 33.256,10.295 C33.256,10.651 33.541,10.983 33.885,10.983 C34.229,10.983 34.533,10.633 34.533,10.237 C34.533,9.842 34.188,9.607 33.796,9.607 Z" id="Shape"></path>
        </g>
        <g id="Group" transform="translate(233.838000, 64.802000)" fill="#2A3052" fill-rule="nonzero">
            <path d="M1.158,7.04 C1.468,5.742 2.014,4.348 4.44,4.284 C6.865,4.221 7.857,6.072 8.139,7.114 C6.368,6.601 2.173,6.747 1.159,7.04 L1.158,7.04 Z M2.697,6.122 C3.693,6.016 5.66,6.016 6.606,6.269 C6.275,5.597 5.397,4.938 4.401,5.002 C3.405,5.066 2.99,5.415 2.697,6.122 Z M34.815,17.284 L34.815,12.404 C34.815,10.169 34.432,9.629 32.185,9.629 C29.938,9.629 29.92,12.231 30.149,12.759 C30.302,13.109 30.479,14.177 30.68,15.962 C30.74,15.79 31.241,15.102 32.185,13.896 C31.343,14.004 30.898,13.022 30.898,12.405 C30.898,11.787 31.828,10.548 33.176,11.135 C34.524,11.724 34.018,13.441 33.496,13.896 C33.146,14.199 32.338,15.331 31.069,17.293 L29.391,17.283 C29.419,16.773 29.419,16.169 29.17,14.948 C29.005,14.142 28.474,12.936 28.605,11.926 C28.918,9.52 30.149,8.854 32.407,8.733 C34.664,8.611 36.208,9.784 36.208,11.308 L36.208,17.284 L34.815,17.284 Z M32.457,11.904 C32.096,11.904 31.809,12.244 31.809,12.552 C31.809,12.861 32.016,13.191 32.457,13.191 C32.898,13.191 33.137,12.884 33.137,12.504 C33.137,12.124 32.818,11.904 32.457,11.904 Z M9.015,0.805 C9.624,0.808 9.938,0.805 10.113,0.805 C10.118,1.349 9.942,1.997 9.015,2.768 C8.202,3.445 6.776,3.718 6.01,3.666 L6.001,3.148 C6.404,3.104 6.654,2.892 6.751,2.515 C6.083,2.566 5.484,2.261 5.484,1.533 C5.484,0.805 5.951,0.57 6.573,0.517 C7.195,0.464 7.591,1.015 7.727,1.417 C7.864,1.817 7.727,2.338 7.333,2.768 C8.334,2.564 9.015,1.533 9.015,0.805 Z M6.508,1.077 C6.38706888,1.07726167 6.27123961,1.12575976 6.18619881,1.21173921 C6.101158,1.29771866 6.05393424,1.41407329 6.055,1.535 C6.055,1.762 6.272,2.015 6.508,2.015 C6.745,2.015 7.018,1.9 7.018,1.535 C7.018,1.17 6.787,1.077 6.508,1.077 Z M15.8,8.788 L17.157,8.788 L17.157,13.904 C17.157,14.246 16.652,14.453 16.427,14.547 C17.187,14.9 17.447,15.347 17.447,16.024 C17.447,16.7 16.821,17.494 15.99,17.494 C15.159,17.494 14.764,16.818 14.654,16.318 C14.544,15.818 14.682,15.338 14.827,15.228 C13.941,15.338 13.107,16.591 12.937,17.347 L11.635,17.359 L11.635,11.579 C10.454,11.641 9.863,11.188 9.863,10.219 C9.863,8.767 11.136,8.7 11.472,8.7 C11.808,8.7 12.716,8.907 12.937,10.017 C12.985,11.23 12.937,15.307 12.937,15.605 C13.262,15.128 13.819,14.511 14.513,14.356 C15.206,14.202 15.612,14.116 15.801,13.736 C15.811,12.96 15.811,11.311 15.801,8.788 L15.8,8.788 Z M15.987,15.332 C15.705,15.332 15.382,15.615 15.382,16.002 C15.382,16.388 15.706,16.672 15.987,16.672 C16.267,16.672 16.663,16.46 16.663,15.957 C16.663,15.454 16.268,15.332 15.987,15.332 Z M11.161,9.528 C10.788,9.528 10.648,9.843 10.648,10.182 C10.648,10.52 10.918,10.836 11.246,10.836 C11.573,10.836 11.862,10.502 11.862,10.126 C11.862,9.751 11.533,9.528 11.161,9.528 Z M25.04,9.034 C25.302,8.83 25.76,8.488 25.76,7.844 C26.409,7.996 26.908,8.117 27.257,8.208 C27.257,8.731 26.802,9.394 25.939,9.656 C26.171,9.907 26.297,10.153 26.375,10.322 C26.668,10.869 26.748,13.21 26.615,17.344 L25.246,17.344 C25.253,16.794 25.253,16.354 25.246,16.024 C24.661,13.595 23.286,11.703 22.194,12.194 C21.102,12.684 21.51,14.019 21.51,14.535 C22.194,14.345 23.402,14.535 23.527,15.861 C23.653,17.186 22.32,17.599 21.655,17.469 C20.99,17.339 20.28,17 20.08,15.779 C19.879,14.557 19.829,11.498 21.935,11.221 C24.041,10.945 24.827,12.988 25.246,13.486 C25.372,10.76 25.152,9.366 22.854,9.586 C20.556,9.806 20.384,10.652 20.224,11.002 C19.9576236,10.7908433 19.6862119,10.5861175 19.41,10.388 C20.15,9.247 21.35,8.676 23.013,8.676 C23.903,8.676 24.556,8.823 25.04,9.034 Z M22.025,15.332 C21.628,15.332 21.427,15.666 21.427,15.965 C21.427,16.264 21.659,16.597 22.025,16.597 C22.391,16.597 22.633,16.156 22.633,15.904 C22.6226644,15.5783298 22.3506945,15.3224635 22.025,15.332 Z M6.355,8.835 C6.616,8.631 7.075,8.289 7.075,7.645 C7.724,7.796 8.223,7.917 8.572,8.008 C8.572,8.532 8.117,9.195 7.253,9.457 C7.486,9.707 7.613,9.954 7.69,10.122 C7.983,10.67 8.063,13.011 7.93,17.145 L6.561,17.145 C6.567,16.595 6.567,16.154 6.561,15.824 C5.976,13.396 4.601,11.504 3.509,11.994 C2.417,12.484 2.825,13.819 2.825,14.336 C3.509,14.146 4.717,14.336 4.842,15.661 C4.967,16.987 3.634,17.4 2.97,17.27 C2.305,17.14 1.595,16.8 1.394,15.58 C1.194,14.357 1.144,11.298 3.25,11.022 C5.356,10.745 6.141,12.789 6.561,13.286 C6.687,10.56 6.467,9.166 4.169,9.386 C1.87,9.606 1.699,10.453 1.539,10.802 C1.27262357,10.5908433 1.00121191,10.3861175 0.725,10.188 C1.465,9.048 2.665,8.477 4.328,8.477 C5.218,8.477 5.871,8.623 6.355,8.835 Z M3.34,15.133 C2.943,15.133 2.742,15.466 2.742,15.765 C2.742,16.065 2.974,16.397 3.34,16.397 C3.706,16.397 3.948,15.957 3.948,15.705 C3.93766438,15.3793298 3.66569455,15.1234635 3.34,15.133 Z M25.464,21.605 C25.4606517,21.303676 25.4606517,21.002324 25.464,20.701 C24.354,20.828 23.858,20.119 23.858,19.431 C23.858,18.745 24.277,18.278 25.23,18.191 C26.183,18.105 26.704,18.897 26.773,19.431 C26.819,19.789 26.843,20.513 26.843,21.605 L25.464,21.605 Z M25.195,18.873 C24.932,18.873 24.708,18.873 24.645,19.487 C24.582,20.101 25.014,20.132 25.295,20.132 C25.575,20.132 25.894,19.975 25.894,19.487 C25.894,18.999 25.458,18.873 25.195,18.873 Z" id="Shape"></path>
        </g>
        <g id="Group" transform="translate(124.838000, 157.802000)" fill="#FFFFFF" fill-rule="nonzero">
            <path d="M45.601,9.343 L43.47,9.343 L43.47,1.03 L45.601,1.03 L45.601,9.343 Z M45.601,13.717 L43.47,13.717 L43.47,11.484 L45.601,11.484 L45.601,13.717 Z" id="Shape"></path>
            <path d="M11.333,0.458 L13.899,0.458 C13.767,2.138 12.733,3.195 10.796,3.626 C11.863,3.936 12.42,4.679 12.42,5.817 C12.42,7.619 12.41,9.769 12.42,11.531 C12.42,14.479 11.722,14.781 9.427,14.882 C7.897,14.949 5.497,14.949 2.229,14.882 L2.229,13.265 L3.723,13.265 L3.723,10.345 C3.876,8.724 6.623,6.666 6.623,4.653 C6.623,2.64 4.248,1.536 2.985,2.935 C4.044,2.995 4.932,3.928 5.011,5.273 C5.011,6.676 3.981,7.41 2.788,7.41 C1.596,7.41 0.309,6.603 0.309,4.956 C0.309,3.309 1.039,2.273 2.229,1.527 C3.419,0.781 7.478,0.361 8.4,3.626 C9.323,6.89 5.942,8.706 5.942,10.604 L5.942,13.264 L9.059,13.264 C9.974,13.264 10.223,12.518 10.223,11.132 C10.223,10.219 10.223,7.219 10.047,5.272 C9.962,4.322 9.138,4.035 8.85,4.035 C8.672,3.532 8.667,3.432 8.557,3.055 C10.216,2.904 11.141,2.038 11.333,0.458 Z M2.698,4.2 C2.213,4.2 1.804,4.591 1.804,5.22 C1.804,5.85 2.273,6.24 2.698,6.24 C3.123,6.24 3.754,5.895 3.754,5.196 C3.754,4.496 3.183,4.2 2.698,4.2 Z M24.852,1.177 L27.018,1.177 L27.018,9.354 C27.018,9.9 26.212,10.23 25.851,10.382 C27.067,10.945 27.484,11.659 27.484,12.741 C27.484,13.822 26.483,15.091 25.154,15.091 C23.825,15.091 23.194,14.011 23.019,13.211 C22.843,12.411 23.063,11.645 23.295,11.469 C21.88,11.644 20.545,13.649 20.275,14.855 L18.195,14.875 L18.195,5.637 C16.306,5.736 15.362,5.012 15.362,3.464 C15.362,1.144 17.397,1.037 17.933,1.037 C18.469,1.037 19.921,1.367 20.275,3.141 C20.351,5.081 20.275,11.595 20.275,12.072 C20.795,11.309 21.685,10.322 22.793,10.076 C23.901,9.83 24.549,9.691 24.852,9.084 C24.869,7.844 24.869,5.208 24.852,1.177 Z M25.149,11.636 C24.699,11.636 24.182,12.088 24.182,12.706 C24.182,13.324 24.701,13.776 25.149,13.776 C25.597,13.776 26.229,13.438 26.229,12.634 C26.229,11.831 25.599,11.636 25.149,11.636 Z M17.436,2.358 C16.841,2.358 16.616,2.863 16.616,3.404 C16.616,3.945 17.049,4.449 17.571,4.449 C18.094,4.449 18.556,3.916 18.556,3.316 C18.556,2.716 18.031,2.358 17.436,2.358 Z M37.898,2.339 L39.802,2.649 C38.936,5.805 36.816,7.173 33.444,6.753 C28.386,6.123 30.253,1.683 32.203,1.856 C34.153,2.03 34.6,3.156 34.6,3.893 C34.6,4.63 34.526,4.905 33.635,5.569 C36.135,5.945 37.556,4.869 37.898,2.339 Z M32.311,2.94 C31.776,2.94 31.357,3.46 31.357,3.975 C31.357,4.49 31.827,5.009 32.311,5.009 C32.793,5.009 33.405,4.654 33.405,3.949 C33.405,3.243 32.845,2.94 32.311,2.94 Z M37.898,9.59 L39.802,9.9 C38.936,13.056 36.816,14.424 33.444,14.005 C28.386,13.375 30.253,8.933 32.203,9.107 C34.153,9.281 34.6,10.407 34.6,11.144 C34.6,11.882 34.526,12.156 33.635,12.821 C36.135,13.196 37.556,12.119 37.898,9.59 Z M32.311,10.192 C31.776,10.192 31.357,10.71 31.357,11.226 C31.357,11.741 31.827,12.26 32.311,12.26 C32.793,12.26 33.405,11.905 33.405,11.2 C33.405,10.494 32.845,10.192 32.311,10.192 Z" id="Shape"></path>
        </g>
    </g>
</svg>