<svg width="299" height="197" xmlns="http://www.w3.org/2000/svg"><g fill="none" fill-rule="evenodd"><path stroke="#C2C2C2" stroke-width="2" fill="#F1F2F2" d="M0 0h299v197H0z"/><path d="M2.926 54.501H296.51M2.926 75.1H296.51M2.926 95.66H296.51M2.926 136.816H296.51M2.926 157.376H296.51M2.926 177.936H296.51M38.383 33.942v162.126M75.546 33.942v162.126M112.67 33.942v162.126m37.162-162.126v162.126m37.124-162.126v162.126M224.08 33.942v162.126m37.162-162.126v162.126" stroke="#DFDEDE" stroke-width="1.223"/><path d="M.805 32.728H298.63" stroke="#C2C2C2" stroke-width="2.447" fill="#F1F2F2"/><path d="M125.444 80.798l-37.362-26.79a1 1 0 0 0-.49-.182l-34.958-3.291a1 1 0 1 0-.188 1.99l34.69 3.266L124.44 82.54a1 1 0 0 0 .357.161l36.539 8.486 36.349 23.682a1 1 0 0 0 .424.154l37.44 4.595a1 1 0 1 0 .243-1.986l-37.21-4.565-36.302-23.652a1 1 0 0 0-.32-.136l-36.516-8.48zm36.064 10.429l-.32-.136.148.096.172.04zm-74.103-35.41l-.489-.183.22.157.27.026z" fill="#2A3052" fill-rule="nonzero"/><path d="M190.262 150.563h-35.1l-5.4-8.213-5.4 8.213h-35.1c-2.624 0-4.725 2.137-4.725 4.8v24.787c0 2.662 2.138 4.8 4.725 4.8h81c2.625 0 4.726-2.137 4.726-4.8v-24.787c0-2.663-2.138-4.8-4.726-4.8z" fill="#E88024"/><ellipse cx="8.512" cy="9.225" rx="8.137" ry="8.475" opacity=".6" fill="#FFF" transform="translate(226.75 109.75)"/><path d="M235.262 127.773c-4.675 0-8.46-3.942-8.46-8.798s3.785-8.798 8.46-8.798c4.676 0 8.461 3.942 8.461 8.798s-3.785 8.798-8.46 8.798zm0-.646c4.313 0 7.815-3.647 7.815-8.152 0-4.505-3.502-8.152-7.815-8.152-4.312 0-7.814 3.647-7.814 8.152 0 4.505 3.502 8.152 7.814 8.152z" fill="#E88024" fill-rule="nonzero"/><g transform="translate(79.5 47)"><ellipse cx="8.137" cy="8.475" rx="8.137" ry="8.475" opacity=".6" fill="#FFF"/><ellipse stroke="#E88024" stroke-width=".646" cx="8.137" cy="8.475" rx="8.137" ry="8.475"/></g><path d="M5 136.5h289.284" stroke="#2A3052" stroke-linejoin="round"/><text font-family="Thonburi-Bold, Thonburi" font-size="15" font-weight="bold" fill="#000"><tspan x="15" y="23">ลงต่ำ</tspan></text><path d="M26.637 68.808c-.01 2.601-.01 4.618 0 6.05 1.153-.28 1.962.784 1.962 1.41 0 .627-.248 1.613-1.503 1.716-1.254.102-1.95-.752-1.95-1.8v-7.376h1.491zm.44 6.918a.678.678 0 0 0-.706.68c0 .309.156.681.707.681.55 0 .689-.4.689-.717 0-.316-.208-.644-.69-.644zm8.479-6.92c.357.196.714.37 1.07.519-.305.65-.852.976-1.639.976-1.18 0-1.665-.604-2.787-.53-1.122.074-1.242.699-1.45 1.025.893.083 1.55.154 1.972.213.634.087 2.467.547 2.726 1.515.224.775.108 2.934.108 3.718 0 .784-.531 1.729-1.943 1.729-1.413 0-1.566-1.207-1.566-1.625 0-.418.45-1.88 1.98-1.444.014-.967.017-1.553.01-1.757-.01-.306-.031-.853-1.01-1.103-.98-.25-2.673-.478-3.77-.35.084-1.012.373-2.104 1.493-2.664s2.561-.072 3.287.112c.726.185 1.079 0 1.519-.334zm-2.01 6.903c-.406 0-.666.426-.666.691 0 .265.276.692.666.692s.74-.237.74-.71c0-.475-.333-.673-.74-.673zm-5.251-8.396c.325-1.365.9-2.832 3.452-2.899 2.552-.067 3.596 1.88 3.892 2.977-1.863-.54-6.277-.386-7.344-.078zm1.619-.965c1.047-.111 3.117-.111 4.112.155-.348-.707-1.272-1.401-2.32-1.333-1.048.067-1.484.434-1.792 1.178zm4.215-5.553h1.349v2.584h-1.35l.001-2.584zm9.985 8.038h1.501v7.482c0 .73-.341 1.295-.74 1.456-.234.095-.423.231-.761.108-.868-.316-.969-2.327-3.219-2.853-.01.37-.017.996-.022 1.875-.22 1.126-1.339 1.214-2.262.978-.924-.236-1.552-1.454-1.168-2.593.387-1.148 1.003-1.36 1.89-1.463.033-.713.042-1.392.027-2.036-1.43.235-2.106-.785-2-1.671.105-.887.752-1.402 1.733-1.402.982-.001 1.802.792 1.78 1.658a71.52 71.52 0 0 0 .022 3.539c.813.14 1.352.405 2.027.999.192.168.53.519 1.05.975.1-.14.142-.4.142-1.11v-5.942zm-5.22.76c-.343 0-.66.156-.66.7 0 .542.347.698.66.698.315 0 .739-.219.739-.692 0-.472-.394-.705-.738-.705l-.001-.001zm.475 5.373c-.085-.098-.358-.101-.611.1s-.466.785-.221 1.5c.245.716.832.34.832 0v-1.6zm15.001 2.891v-5.254c0-2.351-.75-2.59-1.007-2.59-.257 0-.993.551-1.526.551s-.705-.256-1.408-.551c-1.174.396-1.208 2.528-.967 3.083.16.37.347 1.493.558 3.37.063-.18.59-.905 1.584-2.173-.886.113-1.355-.92-1.355-1.57 0-.649.98-1.953 2.398-1.334 1.418.619.886 2.426.335 2.904-.367.32-1.218 1.51-2.553 3.574l-1.765-.01c.03-.536.03-1.172-.233-2.457-.173-.848-.594-2.106-.594-3.18 0-2.699 2.209-3.543 2.74-3.543.543.21.948.813 1.368.813.42 0 .645-.391 1.418-.813 1.74 0 2.474 2.213 2.474 2.893v6.287H54.37zm-2.48-5.66c-.38 0-.682.358-.682.682 0 .325.218.672.682.672.464 0 .715-.323.715-.722 0-.4-.335-.633-.715-.633v.001zm3.952-8.409c.777.003 1.179 0 1.4 0 .007.694-.217 1.522-1.4 2.507-1.04.865-2.86 1.213-3.84 1.146l-.01-.66c.514-.058.833-.328.957-.81-.853.066-1.618-.324-1.618-1.253 0-.93.596-1.231 1.39-1.299.795-.068 1.3.637 1.475 1.149.175.512 0 1.178-.503 1.727 1.278-.261 2.149-1.577 2.149-2.507zm-3.203.347a.58.58 0 0 0-.58.585c0 .29.278.613.58.613.303 0 .65-.148.65-.613 0-.466-.294-.585-.65-.585zm11.038 4.695h1.427v5.382c0 .36-.531.577-.769.677.801.37 1.075.84 1.075 1.553 0 .712-.659 1.547-1.534 1.547-.874 0-1.29-.711-1.405-1.238-.116-.526.029-1.03.182-1.147-.932.115-1.81 1.435-1.988 2.23l-1.37.012v-6.08c-1.243.064-1.865-.412-1.865-1.431 0-1.528 1.34-1.598 1.693-1.598s1.309.217 1.542 1.385c.05 1.277 0 5.566 0 5.88.341-.503.928-1.152 1.657-1.314.73-.163 1.156-.254 1.355-.654.012-.816.012-2.55 0-5.205v.001zm.196 6.884c-.296 0-.636.298-.636.705s.341.704.636.704a.719.719 0 0 0 .711-.751c0-.53-.415-.658-.71-.658h-.001zm-5.077-6.107c-.392 0-.54.332-.54.688 0 .356.285.688.629.688.344 0 .648-.35.648-.746 0-.395-.345-.63-.737-.63zm168.2 19.235c.31-1.298.856-2.692 3.282-2.756 2.425-.063 3.417 1.788 3.699 2.83-1.771-.513-5.966-.367-6.98-.074h-.001zm1.539-.918c.996-.106 2.963-.106 3.909.147-.331-.672-1.209-1.331-2.205-1.267-.996.064-1.411.413-1.704 1.12zm32.118 11.162v-4.88c0-2.235-.383-2.775-2.63-2.775s-2.265 2.602-2.036 3.13c.153.35.33 1.418.531 3.203.06-.172.561-.86 1.505-2.066-.842.108-1.287-.874-1.287-1.491 0-.618.93-1.857 2.278-1.27 1.348.589.842 2.306.32 2.761-.35.303-1.158 1.435-2.427 3.397l-1.678-.01c.028-.51.028-1.114-.221-2.335-.165-.806-.696-2.012-.565-3.022.313-2.406 1.544-3.072 3.802-3.193 2.257-.122 3.801 1.051 3.801 2.575v5.976h-1.393zm-2.358-5.38c-.361 0-.648.34-.648.648 0 .309.207.639.648.639.441 0 .68-.307.68-.687 0-.38-.319-.6-.68-.6zm-23.442-11.099c.609.003.923 0 1.098 0 .005.544-.171 1.192-1.098 1.963-.813.677-2.239.95-3.005.898l-.009-.518c.403-.044.653-.256.75-.633-.668.051-1.267-.254-1.267-.982s.467-.963 1.089-1.016c.622-.053 1.018.498 1.154.9.137.4 0 .921-.394 1.351 1.001-.204 1.682-1.235 1.682-1.963zm-2.507.272a.454.454 0 0 0-.453.458c0 .227.217.48.453.48.237 0 .51-.115.51-.48s-.231-.458-.51-.458zm9.292 7.711h1.357v5.116c0 .342-.505.549-.73.643.76.353 1.02.8 1.02 1.477 0 .676-.626 1.47-1.457 1.47-.831 0-1.226-.676-1.336-1.176-.11-.5.028-.98.173-1.09-.886.11-1.72 1.363-1.89 2.119l-1.302.012v-5.78c-1.181.062-1.772-.391-1.772-1.36 0-1.452 1.273-1.519 1.609-1.519.336 0 1.244.207 1.465 1.317.048 1.213 0 5.29 0 5.588.325-.477.882-1.094 1.576-1.249.693-.154 1.099-.24 1.288-.62.01-.776.01-2.425 0-4.948h-.001zm.187 6.544c-.282 0-.605.283-.605.67 0 .386.324.67.605.67.28 0 .676-.212.676-.715s-.395-.625-.676-.625zm-4.826-5.804c-.373 0-.513.315-.513.654 0 .338.27.654.598.654.327 0 .616-.334.616-.71 0-.375-.329-.598-.701-.598zm13.879-.494c.262-.204.72-.546.72-1.19a66.65 66.65 0 0 1 1.497.364c0 .523-.455 1.186-1.318 1.448.232.251.358.497.436.666.293.547.373 2.888.24 7.022h-1.369c.007-.55.007-.99 0-1.32-.585-2.429-1.96-4.321-3.052-3.83-1.092.49-.684 1.825-.684 2.341.684-.19 1.892 0 2.017 1.326.126 1.325-1.207 1.738-1.872 1.608-.665-.13-1.375-.469-1.575-1.69-.201-1.222-.251-4.281 1.855-4.558 2.106-.276 2.892 1.767 3.311 2.265.126-2.726-.094-4.12-2.392-3.9-2.298.22-2.47 1.066-2.63 1.416a21.22 21.22 0 0 0-.814-.614c.74-1.141 1.94-1.712 3.603-1.712.89 0 1.543.147 2.027.358zm-3.015 6.298c-.397 0-.598.334-.598.633s.232.632.598.632.608-.441.608-.693a.591.591 0 0 0-.608-.572zm-15.67-6.497c.261-.204.72-.546.72-1.19.649.151 1.148.272 1.497.363 0 .524-.455 1.187-1.319 1.449.233.25.36.497.437.665.293.548.373 2.889.24 7.023h-1.369c.006-.55.006-.991 0-1.321-.585-2.428-1.96-4.32-3.052-3.83-1.092.49-.684 1.825-.684 2.342.684-.19 1.892 0 2.017 1.325.125 1.326-1.208 1.739-1.872 1.609-.665-.13-1.375-.47-1.576-1.69-.2-1.223-.25-4.282 1.856-4.558 2.106-.277 2.891 1.767 3.311 2.264.126-2.726-.094-4.12-2.392-3.9-2.299.22-2.47 1.067-2.63 1.416a21.22 21.22 0 0 0-.814-.614c.74-1.14 1.94-1.711 3.603-1.711.89 0 1.543.146 2.027.358zm-3.015 6.298c-.397 0-.598.333-.598.632 0 .3.232.632.598.632s.608-.44.608-.692a.591.591 0 0 0-.608-.572zm22.124 6.472a40.68 40.68 0 0 1 0-.904c-1.11.127-1.606-.582-1.606-1.27 0-.686.419-1.153 1.372-1.24.953-.086 1.474.706 1.543 1.24.046.358.07 1.082.07 2.174h-1.379zm-.269-2.732c-.263 0-.487 0-.55.614-.063.614.369.645.65.645.28 0 .599-.157.599-.645s-.436-.614-.699-.614z" fill="#2A3052" fill-rule="nonzero"/><path d="M172.439 169.145h-2.131v-8.313h2.131v8.313zm0 4.374h-2.131v-2.233h2.131v2.233zm-34.268-13.259h2.566c-.132 1.68-1.166 2.737-3.103 3.168 1.067.31 1.624 1.053 1.624 2.191 0 1.802-.01 3.952 0 5.714 0 2.948-.698 3.25-2.993 3.351-1.53.067-3.93.067-7.198 0v-1.617h1.494v-2.92c.153-1.621 2.9-3.679 2.9-5.692 0-2.013-2.375-3.117-3.638-1.718 1.059.06 1.947.993 2.026 2.338 0 1.403-1.03 2.137-2.223 2.137-1.192 0-2.479-.807-2.479-2.454 0-1.647.73-2.683 1.92-3.429s5.249-1.166 6.171 2.099c.923 3.264-2.458 5.08-2.458 6.978v2.66h3.117c.915 0 1.164-.746 1.164-2.132 0-.913 0-3.913-.176-5.86-.085-.95-.909-1.237-1.197-1.237-.178-.503-.183-.603-.293-.98 1.659-.151 2.584-1.017 2.776-2.597zm-8.635 3.742c-.485 0-.894.391-.894 1.02 0 .63.469 1.02.894 1.02.425 0 1.056-.345 1.056-1.044 0-.7-.571-.996-1.056-.996zm22.154-3.023h2.166v8.177c0 .546-.806.876-1.167 1.028 1.216.563 1.633 1.277 1.633 2.359 0 1.081-1.001 2.35-2.33 2.35-1.329 0-1.96-1.08-2.135-1.88-.176-.8.044-1.566.276-1.742-1.415.175-2.75 2.18-3.02 3.386l-2.08.02v-9.238c-1.889.099-2.833-.625-2.833-2.173 0-2.32 2.035-2.427 2.571-2.427s1.988.33 2.342 2.104c.076 1.94 0 8.454 0 8.931.52-.763 1.41-1.75 2.518-1.996 1.108-.246 1.756-.385 2.059-.992.017-1.24.017-3.876 0-7.907zm.297 10.459c-.45 0-.967.452-.967 1.07 0 .618.519 1.07.967 1.07.448 0 1.08-.338 1.08-1.142 0-.803-.63-.998-1.08-.998zm-7.713-9.278c-.595 0-.82.505-.82 1.046s.433 1.045.955 1.045c.523 0 .985-.533.985-1.133s-.525-.958-1.12-.958zm20.462-.019l1.904.31c-.866 3.156-2.986 4.524-6.358 4.104-5.058-.63-3.191-5.07-1.241-4.897 1.95.174 2.397 1.3 2.397 2.037 0 .737-.074 1.012-.965 1.676 2.5.376 3.921-.7 4.263-3.23zm-5.587.601c-.535 0-.954.52-.954 1.035 0 .515.47 1.034.954 1.034.482 0 1.094-.355 1.094-1.06 0-.706-.56-1.009-1.094-1.009zm5.587 6.65l1.904.31c-.866 3.156-2.986 4.524-6.358 4.105-5.058-.63-3.191-5.072-1.241-4.898 1.95.174 2.397 1.3 2.397 2.037 0 .738-.074 1.012-.965 1.677 2.5.375 3.921-.702 4.263-3.231zm-5.587.602c-.535 0-.954.518-.954 1.034 0 .515.47 1.034.954 1.034.482 0 1.094-.355 1.094-1.06 0-.706-.56-1.008-1.094-1.008z" fill="#FFF" fill-rule="nonzero"/></g></svg>