<?xml version="1.0" encoding="UTF-8"?>
<svg width="299px" height="197px" viewBox="0 0 299 197" version="1.1" xmlns="http://www.w3.org/2000/svg" xmlns:xlink="http://www.w3.org/1999/xlink">
    <!-- Generator: Sketch 52.6 (67491) - http://www.bohemiancoding.com/sketch -->
    <title>stays between</title>
    <desc>Created with Sketch.</desc>
    <g id="Page-1" stroke="none" stroke-width="1" fill="none" fill-rule="evenodd">
        <g id="stays-between">
            <g id="Group">
                <polygon id="Path" fill="#F1F2F2" points="0 0 299 0 299 197 0 197"></polygon>
                <path d="M1.98671096,1.9798995 L1.98671096,195.020101 L297.013289,195.020101 L297.013289,1.9798995 L1.98671096,1.9798995 Z M299,0 L299,197 L0,197 L0,0 L299,0 Z" id="Path" fill="#C2C2C2" fill-rule="nonzero"></path>
                <g id="Group-5" transform="translate(2.000000, 33.000000)">
                    <path d="M2.887,23.4456836 L2.887,22.2388448 L292.54325,22.2388448 L292.54325,23.4456836 L2.887,23.4456836 Z M2.887,63.9796458 L2.887,62.772807 L292.54325,62.772807 L292.54325,63.9796458 L2.887,63.9796458 Z M2.887,104.513608 L2.887,103.30677 L292.54325,103.30677 L292.54325,104.513608 L2.887,104.513608 Z M2.887,145.010211 L2.887,143.803373 L292.54325,143.803373 L292.54325,145.010211 L2.887,145.010211 Z M37.2665806,2.59396226 L38.4734194,2.59396226 L38.4734194,162.264151 L37.2665806,162.264151 L37.2665806,2.59396226 Z M73.9314556,2.59396226 L75.1382944,2.59396226 L75.1382944,162.264151 L73.9314556,162.264151 L73.9314556,2.59396226 Z M110.558956,2.59396226 L111.765794,2.59396226 L111.765794,162.264151 L110.558956,162.264151 L110.558956,2.59396226 Z M147.223831,2.59396226 L148.430669,2.59396226 L148.430669,162.264151 L147.223831,162.264151 L147.223831,2.59396226 Z M183.851331,2.59396226 L185.058169,2.59396226 L185.058169,162.264151 L183.851331,162.264151 L183.851331,2.59396226 Z M220.478831,2.59396226 L221.685669,2.59396226 L221.685669,162.264151 L220.478831,162.264151 L220.478831,2.59396226 Z M2.887,84.2279477 L2.887,83.0211089 L292.54325,83.0211089 L292.54325,84.2279477 L2.887,84.2279477 Z" id="Shape" fill="#DFDEDE" fill-rule="nonzero"></path>
                    <path d="M257.143706,2.59396226 L258.350544,2.59396226 L258.350544,162.264151 L257.143706,162.264151 L257.143706,2.59396226 Z M2.887,43.7313439 L2.887,42.5245051 L292.54325,42.5245051 L292.54325,43.7313439 L2.887,43.7313439 Z M2.887,124.76191 L2.887,123.555072 L292.54325,123.555072 L292.54325,124.76191 L2.887,124.76191 Z" id="Shape" fill="#2A3052" fill-rule="nonzero"></path>
                    <polygon id="Path" fill="#C2C2C2" fill-rule="nonzero" points="0.794 2.60551619 0.794 0.191464945 294.63625 0.191464945 294.63625 2.60551619"></polygon>
                    <path d="M38.6640937,85.2515275 C37.7655269,85.6900933 36.6815667,85.3171888 36.2430008,84.418622 C35.804435,83.5200552 36.1773395,82.436095 37.0759063,81.9975291 L78.5621563,61.7492272 C79.1166106,61.4786133 79.7707076,61.5089858 80.2976987,61.8298159 L118.670814,85.1912193 L146.443626,57.7912015 C147.111703,57.1320922 148.172684,57.092765 148.887723,57.7006067 L184.536059,88.0046197 L220.00967,61.9177058 C220.454127,61.5908567 221.023364,61.4845034 221.555852,61.6288248 L258.220727,71.5661833 C259.18579,71.8277464 259.75609,72.8221236 259.494527,73.7871868 C259.232963,74.7522501 258.238586,75.3225496 257.273523,75.0609865 L221.451401,65.3520412 L185.52733,91.7702187 C184.85109,92.2675186 183.921706,92.2347641 183.282152,91.6910914 L147.806069,61.5335072 L120.207874,88.7612513 C119.616637,89.3445521 118.704343,89.4507534 117.994926,89.0188633 L79.2605355,65.4375166 L38.6640937,85.2515275 Z" id="Path" fill="#2A3052" fill-rule="nonzero"></path>
                    <path d="M185.987125,114.445283 L151.0415,114.445283 L145.6595,106.263774 L140.2775,114.445283 L105.331875,114.445283 C104.07173,114.451176 102.865994,114.959272 101.98197,115.856931 C101.097947,116.754589 100.608676,117.967645 100.622625,119.22717 L100.622625,143.921132 C100.606032,146.539822 102.712091,148.678366 105.331875,148.703019 L186.0245,148.703019 C187.284645,148.697126 188.490381,148.18903 189.374405,147.291371 C190.258428,146.393713 190.747699,145.180657 190.73375,143.921132 L190.73375,119.22717 C190.73971,117.963586 190.242729,116.749496 189.352348,115.8525 C188.461966,114.955504 187.251275,114.449236 185.987125,114.445283 Z" id="Path" fill="#E88024"></path>
                    <g id="Group" opacity="0.6" transform="translate(249.412500, 66.132075)" fill="#FFFFFF">
                        <ellipse id="Oval" cx="8.334625" cy="8.56377358" rx="8.110375" ry="8.44301887"></ellipse>
                    </g>
                    <path d="M257.747125,84.3458936 C252.590171,84.3458936 248.429724,80.0148082 248.429724,74.6958491 C248.429724,69.37689 252.590171,65.0458046 257.747125,65.0458046 C262.904079,65.0458046 267.064526,69.37689 267.064526,74.6958491 C267.064526,80.0148082 262.904079,84.3458936 257.747125,84.3458936 Z M257.747125,81.9318423 C261.548644,81.9318423 264.650474,78.7027911 264.650474,74.6958491 C264.650474,70.6889071 261.548644,67.4598559 257.747125,67.4598559 C253.945606,67.4598559 250.843776,70.6889071 250.843776,74.6958491 C250.843776,78.7027911 253.945606,81.9318423 257.747125,81.9318423 Z" id="Oval" fill="#E88024" fill-rule="nonzero"></path>
                    <g id="Group" opacity="0.6" transform="translate(28.900000, 74.603774)" fill="#FFFFFF">
                        <ellipse id="Oval" cx="8.97" cy="9.0207547" rx="8.110375" ry="8.44301887"></ellipse>
                    </g>
                    <path d="M37.87,93.2745728 C32.7130457,93.2745728 28.5525994,88.9434874 28.5525994,83.6245283 C28.5525994,78.3055692 32.7130457,73.9744838 37.87,73.9744838 C43.0269543,73.9744838 47.1874006,78.3055692 47.1874006,83.6245283 C47.1874006,88.9434874 43.0269543,93.2745728 37.87,93.2745728 Z M37.87,90.8605215 C41.6715185,90.8605215 44.7733494,87.6314703 44.7733494,83.6245283 C44.7733494,79.6175863 41.6715185,76.3885351 37.87,76.3885351 C34.0684815,76.3885351 30.9666506,79.6175863 30.9666506,83.6245283 C30.9666506,87.6314703 34.0684815,90.8605215 37.87,90.8605215 Z" id="Oval" fill="#E88024" fill-rule="nonzero"></path>
                </g>
            </g>
            <path d="M22.23,23.102 C22.1041412,23.140334 21.9753881,23.1684256 21.845,23.186 C21.7038052,23.2050427 21.5614725,23.2143979 21.419,23.214 L15.923,23.214 L15.937,19.558 L15.923,18.124 C15.923,17.719 15.974,17.402 16.077,17.174 C16.1948915,16.9379085 16.3479719,16.7211008 16.531,16.531 C16.62,16.423 16.721,16.332 16.836,16.257 C16.9497071,16.1829569 17.0702601,16.1200014 17.196,16.069 C17.456,15.961 17.739,15.908 18.042,15.908 C18.727,15.908 19.258,16.118 19.636,16.538 C19.794,16.714 19.914,16.91 19.996,17.124 C20.077,17.339 20.118,17.577 20.118,17.838 C20.118,18.369 19.932,18.816 19.558,19.18 C19.3761689,19.3574228 19.1615,19.4977048 18.926,19.593 C18.686,19.69 18.382,19.756 18.014,19.788 L18.014,21.488 L20.726,21.488 C20.988,21.488 21.188,21.41 21.328,21.257 L21.328,21.264 C21.426,21.152 21.475,20.851 21.475,20.362 L21.475,16.698 C21.475,16.39 21.445,16.118 21.387,15.883 C21.3407365,15.6773856 21.2617292,15.4805424 21.153,15.3 C20.995,15.08 20.763,14.914 20.457,14.8 C20.152,14.685 19.776,14.628 19.328,14.628 C18.475,14.628 17.799,14.787 17.3,15.104 C16.792,15.425 16.49,15.859 16.392,16.404 L15,15.327 C15.368,14.587 15.942,14.017 16.72,13.621 C17.447,13.244 18.326,13.055 19.356,13.055 C21.421,13.055 22.738,13.701 23.306,14.992 C23.493,15.425 23.586,15.91 23.586,16.446 L23.586,21.256 C23.586,21.424 23.57,21.582 23.537,21.729 C23.5041866,21.876931 23.4503035,22.0193844 23.377,22.152 C23.097,22.636 22.715,22.953 22.23,23.102 Z M18.223,17.006 C17.8909938,17.0025607 17.594073,17.2120571 17.486,17.526 C17.4458495,17.6324093 17.4255144,17.7452689 17.426,17.859 C17.426,18.059 17.506,18.239 17.664,18.397 L17.664,18.383 C17.8114346,18.5329098 18.01376,18.6160077 18.224,18.613 C18.529863,18.6098029 18.8069123,18.4318385 18.937,18.155 C18.9789881,18.0620297 19.0001485,17.9610057 18.999,17.859 C18.9993191,17.7515839 18.9807009,17.6449523 18.944,17.544 C18.9056142,17.4395902 18.8460308,17.3442567 18.769,17.264 C18.601,17.092 18.419,17.006 18.223,17.006 Z M28.942,14.901 C28.942,14.994 28.963,15.081 29.005,15.16 C29.047,15.239 29.103,15.307 29.173,15.362 C29.3102591,15.4713791 29.4795391,15.5328397 29.655,15.537 C29.9258215,15.52802 30.172286,15.3782454 30.305,15.142 C30.3461176,15.0683171 30.3677986,14.9853788 30.368,14.901 C30.368,14.691 30.308,14.535 30.187,14.433 C30.065,14.33 29.888,14.279 29.655,14.279 C29.3852585,14.2786364 29.1358706,14.4223967 29.001,14.656 C28.9612684,14.7314907 28.9409899,14.815698 28.942,14.901 Z M31.879,21.487 C32.014,21.487 32.114,21.441 32.179,21.347 C32.249,21.259 32.284,21.127 32.284,20.949 L32.284,13.229 L34.403,13.229 L34.403,21.194 C34.403,21.72 34.261,22.173 33.976,22.55 C33.641,22.993 33.084,23.214 32.306,23.214 L26.138,23.214 L26.138,21.487 L26.768,21.487 L26.768,20.152 C26.768,19.509 26.91,18.989 27.194,18.592 C27.254123,18.5099364 27.3181986,18.4308431 27.386,18.355 C27.449,18.285 27.52,18.22 27.6,18.159 C27.2783256,18.0565097 26.9842206,17.8820986 26.74,17.649 C26.283,17.206 26.054,16.626 26.054,15.908 C26.054,15.004 26.397,14.288 27.082,13.761 C27.688,13.304 28.443,13.076 29.348,13.076 C29.977,13.076 30.49,13.226 30.886,13.524 C31.324,13.859 31.543,14.321 31.543,14.908 C31.543,15.57 31.287,16.045 30.773,16.334 C30.4404099,16.5280655 30.0610164,16.6273234 29.676,16.621 C28.763,16.621 28.185,16.306 27.942,15.677 L27.949,15.684 C27.9361841,15.6540632 27.9235173,15.6240628 27.911,15.594 C27.899288,15.5660713 27.888614,15.5377185 27.879,15.509 L27.879,15.537 C27.879,15.719 27.909,15.895 27.967,16.065 C28.025,16.235 28.113,16.391 28.232,16.534 C28.352,16.676 28.499,16.796 28.676,16.894 C28.853,16.992 29.061,17.057 29.299,17.089 C29.662,17.145 30.007,17.173 30.333,17.173 L31.291,17.173 L31.291,18.774 L30.291,18.774 C29.867,18.774 29.543,18.868 29.32,19.054 L29.32,19.047 C29.1885033,19.1691003 29.0865857,19.3195827 29.022,19.487 C28.9506206,19.6819175 28.9163638,19.8884756 28.921,20.096 L28.921,21.487 L31.879,21.487 Z M30.34,24.934 C29.963,24.934 29.732,25.1 29.648,25.431 C29.662,25.948 29.893,26.207 30.34,26.207 C30.765,26.207 30.977,25.995 30.977,25.571 C30.977,25.361 30.927,25.202 30.83,25.095 C30.732,24.988 30.569,24.935 30.34,24.935 L30.34,24.934 Z M30.235,28.242 L30.235,27.06 L30.222,27.06 C29.792,27.06 29.389,26.89 29.012,26.55 C28.8875394,26.433455 28.7917105,26.2897117 28.732,26.13 C28.6643994,25.9490748 28.6311636,25.757121 28.634,25.564 C28.634,25.154 28.781,24.794 29.074,24.487 C29.392,24.156 29.818,23.99 30.354,23.99 C31.221,23.99 31.778,24.32 32.025,24.976 C32.067,25.098 32.1,25.24 32.123,25.403 C32.147,25.566 32.158,25.753 32.158,25.963 L32.158,26.801 L32.767,26.801 L32.767,24.158 L34.668,24.158 L34.668,28.242 L30.236,28.242 L30.235,28.242 Z M32.648,8 L34.501,8 L34.501,11.363 L32.648,11.363 L32.648,8 Z M40.863,22.173 C40.9605771,22.1738471 41.0571615,22.1533698 41.146,22.113 C41.3672754,22.0128754 41.5259578,21.8113003 41.5713293,21.5727019 C41.6167008,21.3341036 41.5430809,21.0883542 41.374,20.914 C41.3095371,20.8448572 41.232055,20.7891245 41.146,20.75 C40.9615203,20.6722693 40.7534797,20.6722693 40.569,20.75 C40.4790988,20.7876381 40.3965099,20.8407793 40.325,20.907 C40.1812468,21.0432885 40.1001864,21.2329119 40.101,21.431 C40.0988682,21.6288366 40.1784657,21.8187854 40.321,21.956 C40.4671058,22.0952371 40.6611736,22.1729358 40.863,22.173 Z M39.402,16.936 C39.0285921,16.8639373 38.6512767,16.8138512 38.272,16.786 C37.9125854,16.7599147 37.5523594,16.746573 37.192,16.746 C36.959,16.746 36.767,16.766 36.616,16.806 C36.4600952,16.8474961 36.308944,16.9051414 36.165,16.978 C36.106749,16.8573494 36.0721262,16.7266655 36.063,16.593 C36.0576703,16.5067553 36.0543361,16.4203989 36.053,16.334 C36.053,15.696 36.258,15.057 36.668,14.419 C37.208,13.57 38.083,13.146 39.29,13.146 C39.453,13.146 39.651,13.169 39.884,13.216 C40.117,13.263 40.376,13.326 40.66,13.405 C40.921,13.479 41.15,13.536 41.346,13.576 C41.541,13.616 41.7,13.636 41.821,13.636 C42.236,13.636 42.555,13.444 42.779,13.062 L44.366,13.887 C44.306,14.06 44.23,14.217 44.139,14.359 C44.048,14.501 43.944,14.626 43.828,14.733 C43.669,14.878 43.498,14.994 43.314,15.083 C43.1350301,15.1698146 42.9420048,15.2239972 42.744,15.243 L42.496,15.268 C42.4368535,15.2740877 42.3774562,15.2774246 42.318,15.278 C41.949,15.278 41.437,15.176 40.779,14.971 C40.5507775,14.8970538 40.3187831,14.8352999 40.084,14.786 C39.9173249,14.7497293 39.7475372,14.729636 39.577,14.726 C39.115,14.726 38.759,14.838 38.507,15.062 L38.5,15.062 C38.4611035,15.1011185 38.4227662,15.1407892 38.385,15.181 C38.3442879,15.2240862 38.3077885,15.2709662 38.276,15.321 C38.486,15.33 38.714,15.347 38.961,15.373 C39.208,15.399 39.461,15.43 39.717,15.467 C41.432,15.742 42.495,16.248 42.905,16.985 L42.905,16.978 C43.077,17.295 43.164,17.612 43.164,17.928 L43.164,21.131 C43.164,21.741 42.961,22.271 42.555,22.718 C42.164,23.142 41.663,23.354 41.052,23.354 C40.367,23.354 39.831,23.137 39.444,22.704 L39.451,22.704 C39.125,22.359 38.961,21.934 38.961,21.431 C38.961,20.891 39.143,20.441 39.507,20.082 L39.507,20.089 C39.8624657,19.7287542 40.3510585,19.5315075 40.857,19.544 L40.951,19.544 C40.981,19.544 41.012,19.546 41.045,19.551 L41.045,18.061 C41.045,17.954 41.031,17.854 41.003,17.761 C40.9776852,17.6731102 40.9374308,17.5902335 40.884,17.516 C40.791,17.399 40.622,17.292 40.377,17.194 C40.0609955,17.0770275 39.7345008,16.9906319 39.402,16.936 Z M49.96,14.964 C50.0215023,14.7872164 50.064728,14.604596 50.089,14.419 C50.115,14.227 50.127,14.027 50.127,13.817 L52.043,14.16 C51.853,15.367 51.293,16.29 50.365,16.929 C49.82,17.306 49.02,17.495 47.967,17.495 C46.577,17.495 45.617,17.089 45.087,16.278 C44.8981034,15.9999492 44.8002604,15.6700785 44.807,15.334 C44.807,14.882 44.981,14.454 45.331,14.048 C45.6576845,13.7890014 46.0453952,13.6182159 46.457,13.552 C47.039,13.552 47.527,13.722 47.918,14.062 C48.23,14.402 48.386,14.826 48.386,15.334 C48.386,15.665 48.291,15.947 48.1,16.18 C48.338,16.18 48.573,16.139 48.806,16.055 C49.379,15.855 49.764,15.491 49.96,14.964 Z M49.96,19.998 C50.02,19.835 50.063,19.659 50.089,19.47 C50.1149103,19.2744107 50.1276058,19.0772971 50.127,18.88 L52.043,19.194 C51.847,20.392 51.29,21.314 50.373,21.963 C50.102,22.14 49.763,22.279 49.355,22.379 C48.947,22.479 48.485,22.529 47.967,22.529 C46.559,22.529 45.599,22.131 45.087,21.334 L45.093,21.334 C44.9021615,21.0591944 44.8021503,20.7315354 44.807,20.397 C44.807,19.879 44.981,19.455 45.331,19.124 C45.503,18.961 45.681,18.837 45.866,18.754 C46.0515064,18.6697987 46.2523091,18.624533 46.456,18.621 L46.68,18.621 C47.17,18.621 47.575,18.781 47.897,19.103 L47.897,19.096 C48.223,19.413 48.387,19.846 48.387,20.396 C48.387,20.714 48.289,20.991 48.093,21.229 C49.058,21.21 49.68,20.799 49.96,19.999 L49.96,19.998 Z M45.855,15.258 C45.855,15.458 45.921,15.63 46.051,15.775 C46.181,15.919 46.35,15.992 46.555,15.992 C46.778,15.992 46.965,15.924 47.114,15.789 C47.2633432,15.6537108 47.3453218,15.4593776 47.338,15.258 C47.3391143,15.1597487 47.3175557,15.0625639 47.275,14.974 C47.1911915,14.8001498 47.0414395,14.666957 46.859,14.604 C46.7615903,14.5685247 46.6586676,14.550581 46.555,14.551 C46.367439,14.5493492 46.1875502,14.6253586 46.058,14.761 C45.9289665,14.8944156 45.8562691,15.072399 45.855,15.258 Z M45.813,20.334 C45.813,20.436 45.833,20.532 45.873,20.62 C45.9518756,20.7966165 46.0937917,20.9374629 46.271,21.015 C46.362,21.055 46.457,21.075 46.555,21.075 C47.1,21.075 47.373,20.828 47.373,20.334 C47.3732646,20.2289758 47.3503892,20.1251828 47.306,20.03 C47.2192075,19.8417506 47.0645729,19.6931871 46.873,19.614 C46.7722802,19.5719436 46.6641466,19.5505209 46.555,19.551 C46.3575185,19.5539262 46.1711934,19.6430699 46.045,19.795 C45.8964909,19.9348769 45.8125092,20.1299895 45.813,20.334 Z M59.734,14.984 C59.7370749,15.1785691 59.811853,15.3651582 59.944,15.508 C60.009,15.579 60.087,15.634 60.178,15.674 C60.269,15.714 60.371,15.733 60.482,15.733 C60.6822754,15.7330851 60.8741038,15.6523153 61.014,15.509 C61.0797059,15.4382171 61.1328065,15.356706 61.171,15.268 C61.211,15.178 61.231,15.083 61.231,14.985 C61.2306894,14.8949101 61.2091033,14.8061674 61.168,14.726 C61.1259137,14.6418457 61.0690039,14.5659661 61,14.502 C60.9294366,14.4366565 60.8491447,14.3826788 60.762,14.342 C60.6745825,14.3002381 60.5788803,14.2787051 60.482,14.279 C60.3884921,14.2792054 60.2959843,14.2982512 60.21,14.335 C60.0346929,14.410892 59.8904462,14.5442056 59.801,14.713 C59.7565848,14.7967569 59.7335685,14.8901963 59.734,14.985 L59.734,14.984 Z M53.798,15.041 C53.798,15.139 53.818,15.231 53.858,15.317 C53.898,15.403 53.948,15.477 54.011,15.541 C54.1395605,15.6701205 54.3148012,15.7418755 54.497,15.74 C54.5909368,15.7408551 54.6839859,15.7217681 54.77,15.684 C54.9358671,15.6101391 55.0679269,15.4766517 55.14,15.31 C55.2132337,15.1319012 55.2132337,14.9320988 55.14,14.754 C55.1042223,14.667748 55.0534365,14.588522 54.99,14.52 C54.927565,14.453098 54.8528841,14.3987846 54.77,14.36 C54.5958589,14.279472 54.3951411,14.279472 54.221,14.36 C54.0501556,14.4368714 53.9169967,14.5786676 53.851,14.754 C53.8152934,14.8454402 53.7973071,14.942838 53.798,15.041 Z M59.798,17.229 C59.625,17.229 59.401,17.371 59.126,17.656 C58.851,17.94 58.529,18.357 58.161,18.907 C57.7895141,19.495562 57.5001724,20.1321137 57.301,20.799 C57.077,21.519 56.928,22.324 56.854,23.214 L54.714,23.214 L54.714,16.901 C54.6769098,16.9062846 54.6394595,16.9086253 54.602,16.908 L54.497,16.908 C53.966,16.908 53.514,16.728 53.141,16.369 C52.7686143,16.0264643 52.562286,15.5398065 52.575,15.034 C52.575,14.624 52.705,14.232 52.966,13.859 C53.12,13.649 53.288,13.487 53.47,13.373 C53.651,13.259 53.847,13.186 54.057,13.153 C54.327,13.125 54.527,13.111 54.658,13.111 C55.315,13.111 55.824,13.314 56.182,13.719 L56.175,13.719 C56.6,14.171 56.812,14.708 56.812,15.327 L56.812,17.894 C56.863,17.814 56.92,17.736 56.983,17.659 L57.183,17.419 C57.448,17.096 57.686,16.826 57.895,16.607 C58.105,16.387 58.278,16.234 58.413,16.146 L58.42,16.146 C58.476,16.108 58.53,16.073 58.58,16.041 C58.632,16.008 58.683,15.981 58.735,15.957 C58.677908,15.8760446 58.6296337,15.7892179 58.591,15.698 C58.5525763,15.6084337 58.5256942,15.5143462 58.511,15.418 C58.4984626,15.3416053 58.4877927,15.2649157 58.479,15.188 C58.4734898,15.1415144 58.4701528,15.0947969 58.469,15.048 L58.469,14.978 C58.4621194,14.4522054 58.6839871,13.9493539 59.077,13.6 C59.277,13.428 59.497,13.294 59.737,13.198 C59.9808423,13.1017975 60.2408723,13.0532541 60.503,13.055 C61.091,13.055 61.563,13.246 61.923,13.628 C62.286,14.006 62.468,14.481 62.468,15.055 C62.468,15.232 62.439,15.41 62.381,15.59 C62.323,15.77 62.237,15.94 62.126,16.104 C61.996,16.299 61.853,16.451 61.699,16.558 L61.846,16.733 L61.839,16.726 C61.932,16.847 62.001,16.973 62.045,17.103 C62.089,17.233 62.112,17.364 62.112,17.495 L62.112,23.215 L59.979,23.215 L59.979,17.495 C59.979,17.444 59.951,17.378 59.895,17.299 C59.858,17.253 59.825,17.229 59.797,17.229 L59.798,17.229 Z M69.068,22.194 C69.568,22.194 69.817,21.939 69.817,21.431 C69.8188332,21.1263541 69.6385686,20.8500534 69.359,20.729 C69.1727012,20.6472097 68.9604487,20.6483001 68.775,20.732 C68.6831723,20.7731154 68.5992416,20.8299717 68.527,20.9 C68.4551529,20.9689161 68.3968182,21.0506525 68.355,21.141 C68.2712319,21.3287466 68.2712319,21.5432534 68.355,21.731 C68.4787755,22.0144169 68.7597449,22.1966142 69.069,22.194 L69.068,22.194 Z M71.383,21.131 C71.383,21.429 71.328,21.712 71.219,21.981 C71.109,22.248 70.952,22.494 70.747,22.718 C70.551,22.928 70.328,23.086 70.079,23.193 C69.829,23.301 69.558,23.354 69.264,23.354 C69.204,23.354 69.142,23.352 69.079,23.347 C69.0094655,23.3411928 68.9405506,23.3294839 68.873,23.312 C68.6389561,23.2896617 68.4112691,23.223154 68.202,23.116 C67.9951972,23.0112884 67.8062077,22.8746085 67.642,22.711 C67.3142879,22.3659607 67.1338667,21.9068372 67.139,21.431 C67.139,20.9 67.328,20.453 67.705,20.089 C68.083,19.725 68.535,19.544 69.062,19.544 L69.173,19.544 C69.215,19.544 69.253,19.546 69.285,19.551 L69.285,16.698 C69.285,16.018 69.199,15.544 69.027,15.278 C68.733,14.845 68.213,14.628 67.467,14.628 C66.703,14.628 66.097,14.838 65.65,15.258 C65.374,15.518 65.14,15.957 64.943,16.572 L63.608,15.712 C63.892,14.924 64.316,14.29 64.88,13.81 C65.472,13.307 66.351,13.055 67.516,13.055 C68.677,13.055 69.614,13.342 70.327,13.915 C71.031,14.484 71.383,15.327 71.383,16.446 L71.383,21.131 Z M69.503,8.244 L71.355,8.244 L71.355,11.607 L69.502,11.607 L69.502,8.244 L69.503,8.244 Z M80.473,23.214 L78.361,23.214 L78.361,16.697 C78.361,16.002 78.275,15.532 78.102,15.285 C77.804,14.846 77.284,14.627 76.542,14.627 C75.764,14.627 75.156,14.839 74.718,15.264 C74.438,15.529 74.222,15.963 74.068,16.564 L72.669,15.711 C72.799,15.319 72.968,14.972 73.173,14.669 C73.378,14.366 73.62,14.099 73.9,13.865 C74.548,13.325 75.452,13.055 76.613,13.055 C77.755,13.055 78.683,13.341 79.396,13.915 C80.113,14.487 80.472,15.331 80.472,16.445 L80.472,23.213 L80.473,23.214 Z M85.828,19.438 L86.198,19.878 C86.338,20.046 86.492,20.239 86.66,20.458 L86.66,16.894 C86.5923554,16.8989817 86.524688,16.9036484 86.457,16.908 C85.921,16.908 85.469,16.731 85.101,16.376 C84.7306435,16.0291145 84.5249196,15.5413381 84.535,15.034 C84.535,14.61 84.672,14.216 84.947,13.852 L84.94,13.859 C85.0671966,13.6665881 85.2313793,13.5013855 85.423,13.373 C85.6,13.259 85.796,13.186 86.01,13.153 C86.28,13.125 86.48,13.111 86.611,13.111 C87.282,13.111 87.814,13.335 88.205,13.782 C88.574,14.206 88.758,14.722 88.758,15.327 L88.758,23.214 L86.311,23.214 C86.2639742,23.1209621 86.2149629,23.028941 86.164,22.938 C86.0931988,22.8117777 86.0231974,22.6851085 85.954,22.558 C85.9030908,22.4711753 85.8497361,22.3858078 85.794,22.302 C85.709,22.174 85.593,22.002 85.444,21.788 C85.3738735,21.6722853 85.3015268,21.5579308 85.227,21.445 C85.1188607,21.2809776 85.0091892,21.1179704 84.898,20.956 C84.74,20.742 84.553,20.506 84.338,20.25 C84.1273008,19.9978285 83.9105715,19.7507572 83.688,19.509 L83.094,18.921 L83.066,18.886 L83.066,18.893 C82.703,18.543 82.463,18.336 82.346,18.271 L81.773,17.921 L82.43,16.873 C82.817,16.873 83.556,17.355 84.647,18.32 C85.0538651,18.6788188 85.4477829,19.0520568 85.828,19.439 L85.828,19.438 Z M85.73,15.04 C85.73,15.138 85.75,15.227 85.79,15.309 C85.8290743,15.3900573 85.882233,15.4635314 85.947,15.526 C86.0142894,15.5902778 86.0938855,15.6402805 86.181,15.673 C86.272,15.708 86.367,15.725 86.464,15.725 C86.5544281,15.7248471 86.6435316,15.7032567 86.724,15.662 C86.8064644,15.6210233 86.8817677,15.566994 86.947,15.502 C87.0112329,15.4382166 87.0634053,15.3633458 87.101,15.281 C87.1368734,15.205661 87.1559792,15.1234375 87.157,15.04 C87.1569838,14.9466954 87.1365025,14.8545299 87.097,14.77 C87.0187974,14.5992932 86.8847671,14.4603249 86.717,14.376 C86.6388114,14.3353515 86.5521202,14.3137643 86.464,14.313 C86.2700089,14.3088984 86.0825527,14.3831599 85.944,14.519 C85.8024948,14.6543766 85.7247716,14.8432369 85.73,15.039 L85.73,15.04 Z" id="Shape" fill="#020202" fill-rule="nonzero"></path>
            <path d="M19.537,62.25 L19.537,67.563 C19.663066,67.5308423 19.7929308,67.516039 19.923,67.519 C20.313,67.519 20.639,67.648 20.9,67.905 C21.159709,68.1582126 21.3018195,68.5084135 21.292,68.871 C21.292,69.239 21.176,69.548 20.944,69.798 C20.712,70.048 20.414,70.189 20.05,70.223 C19.95,70.248 19.85,70.261 19.747,70.261 C19.317,70.261 18.947,70.092 18.637,69.754 C18.369,69.467 18.235,69.09 18.235,68.623 L18.235,62.25 L19.537,62.25 Z M20.552,68.87 C20.555936,68.7065572 20.4883774,68.549529 20.367,68.44 C20.2468825,68.3275204 20.0875225,68.2665042 19.923,68.27 C19.764698,68.2681271 19.6126753,68.3318319 19.503,68.446 C19.3882614,68.557352 19.3245792,68.7111302 19.327,68.871 C19.327,69.036 19.385,69.179 19.501,69.298 C19.617,69.418 19.758,69.478 19.923,69.478 C20.0887082,69.4807135 20.2486052,69.4169708 20.367,69.301 C20.4870719,69.1905409 20.554363,69.0341346 20.552,68.871 L20.552,68.87 Z M24.607,62.587 C24.9128965,62.9075759 25.0815373,63.3349188 25.077,63.778 L25.077,69.141 L27.78,69.141 C27.957226,69.1439151 28.1274811,69.0720377 28.249,68.943 C28.333,68.862 28.376,68.703 28.376,68.468 L28.376,59.161 L29.711,59.161 L29.711,68.623 C29.711,69.063 29.617,69.413 29.429,69.671 C29.194,69.983 28.806,70.14 28.265,70.14 L23.063,70.14 L23.063,69.141 L23.769,69.141 L23.769,64.844 C23.6355652,64.864081 23.5009241,64.8751062 23.366,64.877 C22.987,64.877 22.662,64.749 22.389,64.491 C22.1224102,64.2462761 21.9738093,63.8988124 21.981,63.537 C21.981,63.239 22.079,62.954 22.274,62.682 C22.491,62.391 22.743,62.227 23.029,62.19 C23.1849579,62.1697205 23.3418099,62.1570388 23.499,62.152 C23.977,62.152 24.346,62.297 24.607,62.588 L24.607,62.587 Z M22.77,63.536 C22.77,63.694 22.829,63.833 22.947,63.952 C23.064,64.072 23.204,64.132 23.366,64.132 C23.5244516,64.1336124 23.6764967,64.0695362 23.786,63.955 C23.9001681,63.8453247 23.9638729,63.693302 23.962,63.535 C23.9645326,63.3734456 23.9018008,63.2176978 23.788,63.103 C23.6790466,62.9861236 23.5257681,62.9207441 23.366,62.923 C23.196,62.923 23.056,62.983 22.941,63.103 C22.8288925,63.2189099 22.7676969,63.3747787 22.771,63.536 L22.77,63.536 Z M24.023,59.74 C23.9406258,59.7525883 23.8573079,59.757942 23.774,59.756 C23.348,59.756 23.031,59.618 22.825,59.343 C22.693,59.173 22.627,58.953 22.627,58.681 C22.627,58.121 22.903,57.757 23.454,57.588 C23.594,57.544 23.736,57.522 23.879,57.522 C24.328,57.522 24.664,57.692 24.889,58.03 C25.087,58.32 25.187,58.609 25.187,58.896 C25.187,59.028 25.168,59.161 25.131,59.293 C25.043,59.609 24.894,59.858 24.685,60.038 C25.255,59.898 25.68,59.661 25.959,59.326 C26.353,58.859 26.549,58.366 26.549,57.847 L27.802,57.847 C27.802,58.693 27.382,59.425 26.544,60.043 C25.661,60.709 24.539,61.042 23.178,61.042 L23.178,60.462 C23.366,60.462 23.568,60.38 23.785,60.214 C23.943,60.056 24.023,59.898 24.023,59.74 Z M23.785,58.144 C23.44,58.144 23.267,58.321 23.267,58.674 C23.314,59.024 23.507,59.198 23.846,59.198 C24.166,59.198 24.326,59.014 24.326,58.646 C24.326,58.312 24.146,58.144 23.786,58.144 L23.785,58.144 Z M36.982,70.139 L35.664,70.139 L35.664,64.925 C35.664,64.303 35.579,63.868 35.41,63.617 C35.12,63.191 34.625,62.977 33.926,62.977 C33.22,62.977 32.662,63.174 32.254,63.567 C31.9915544,63.810707 31.8056693,64.1254957 31.719,64.473 L30.958,64.009 C31.1347624,63.5067363 31.4477641,63.063548 31.862,62.729 C32.362,62.314 33.071,62.106 33.987,62.106 C34.887,62.106 35.616,62.328 36.171,62.773 C36.712,63.211 36.982,63.857 36.982,64.71 L36.982,70.139 Z M43.675,64.419 C43.447,64.251 43.318,64.051 43.289,63.822 C43.2740593,63.7305141 43.2630491,63.6384295 43.256,63.546 L43.256,63.491 C43.256,63.093 43.401,62.763 43.691,62.501 C43.982,62.237 44.328,62.106 44.729,62.106 C45.152,62.106 45.494,62.241 45.755,62.511 C46.016,62.781 46.147,63.128 46.147,63.551 C46.147,63.816 46.066,64.068 45.904,64.307 C45.734,64.565 45.525,64.715 45.274,64.759 C45.42,64.808 45.549,64.913 45.669,65.077 C45.7844604,65.2223731 45.8494055,65.4014108 45.854,65.587 L45.854,70.139 L44.514,70.139 L44.514,65.587 C44.5114143,65.4775098 44.4711512,65.3722605 44.4,65.289 C44.325,65.194 44.24,65.146 44.144,65.146 C43.776,65.146 43.259,65.646 42.594,66.646 C41.968,67.584 41.597,68.748 41.479,70.139 L40.122,70.139 L40.122,64.842 C39.9885652,64.862081 39.8539241,64.8731062 39.719,64.875 C39.34,64.875 39.015,64.747 38.742,64.489 C38.4754102,64.2442761 38.3268093,63.8968124 38.334,63.535 C38.334,63.237 38.432,62.952 38.627,62.68 C38.844,62.389 39.096,62.225 39.382,62.188 C39.5379579,62.1677205 39.6948099,62.1550388 39.852,62.15 C40.33,62.15 40.699,62.295 40.96,62.586 C41.2658965,62.9065759 41.4345373,63.3339188 41.43,63.777 L41.43,66.795 C41.43,66.608 41.663,66.229 42.13,65.659 C42.568,65.129 42.896,64.791 43.115,64.644 C43.334,64.497 43.522,64.423 43.68,64.423 L43.675,64.419 Z M39.123,63.535 C39.123,63.693 39.182,63.832 39.3,63.951 C39.417,64.071 39.557,64.131 39.719,64.131 C39.8774516,64.1326124 40.0294967,64.0685362 40.139,63.954 C40.2531681,63.8443247 40.3168729,63.692302 40.315,63.534 C40.3175326,63.3724456 40.2548008,63.2166978 40.141,63.102 C40.0320466,62.9851236 39.8787681,62.9197441 39.719,62.922 C39.549,62.922 39.409,62.982 39.294,63.102 C39.1818925,63.2179099 39.1206969,63.3737787 39.124,63.535 L39.123,63.535 Z M44.083,63.502 C44.083,63.674 44.145,63.822 44.268,63.946 C44.3841414,64.0662771 44.544816,64.1332249 44.712,64.131 C44.885,64.131 45.033,64.069 45.156,63.946 C45.2762771,63.8298586 45.3432249,63.669184 45.341,63.502 C45.343363,63.3388654 45.2760719,63.1824591 45.156,63.072 C45.0376052,62.9560292 44.8777082,62.8922865 44.712,62.895 C44.542,62.895 44.396,62.955 44.271,63.074 C44.1501292,63.1833026 44.0817202,63.3390424 44.083,63.502 Z M53.363,62.249 L54.665,62.249 L54.665,68.644 C54.665,69.232 54.568,69.616 54.373,69.797 C54.163,70.065 53.869,70.199 53.49,70.199 C53.34,70.199 53.19,70.099 53.043,69.896 C52.867,69.628 52.688,69.359 52.508,69.091 C52.3361745,68.8194016 52.1305269,68.5707426 51.896,68.351 C51.443,67.947 50.987,67.717 50.527,67.661 L50.527,69.074 C50.527,69.567 50.354,69.902 50.009,70.078 C49.769,70.199 49.472,70.26 49.115,70.26 C48.905,70.26 48.736,70.24 48.607,70.2 C48.155,70.07 47.826,69.776 47.62,69.317 C47.5094671,69.0667952 47.4548636,68.7954842 47.46,68.522 C47.46,67.732 47.737,67.187 48.293,66.889 C48.635,66.702 48.938,66.608 49.203,66.608 L49.203,64.842 L48.999,64.864 C48.9329385,64.8715507 48.8664913,64.8752236 48.8,64.875 C48.425,64.875 48.106,64.747 47.843,64.489 C47.5839038,64.2401802 47.4409878,63.894135 47.449,63.535 C47.449,63.237 47.546,62.952 47.741,62.68 C47.951,62.389 48.197,62.225 48.481,62.188 C48.705,62.163 48.859,62.15 48.944,62.15 C49.44,62.15 49.834,62.31 50.124,62.63 C50.393,62.931 50.527,63.314 50.527,63.777 L50.527,66.724 C50.98,66.746 51.469,66.935 51.995,67.292 C52.035,67.322 52.252,67.516 52.645,67.877 C53.017,68.219 53.209,68.388 53.22,68.384 C53.315,68.354 53.363,68.23 53.363,68.009 L53.363,62.249 Z M48.204,63.535 C48.204,63.689 48.265,63.827 48.387,63.948 C48.4935887,64.0632755 48.6430054,64.129482 48.8,64.131 C48.9638591,64.1317299 49.1214721,64.068182 49.239,63.954 C49.3604474,63.8483291 49.4298188,63.6949818 49.429,63.534 C49.4320272,63.369284 49.3647441,63.2110777 49.244,63.099 C49.1256052,62.9830292 48.9657082,62.9192865 48.8,62.922 C48.6403474,62.9211191 48.4879094,62.9884247 48.381,63.107 C48.2670946,63.220227 48.2033387,63.3743938 48.204,63.535 Z M48.42,68.335 C48.4160919,68.3658474 48.4140881,68.3969062 48.414,68.428 L48.414,68.517 C48.414,68.767 48.445,68.951 48.508,69.068 C48.6,69.26 48.719,69.355 48.867,69.355 C49.091,69.355 49.203,69.235 49.203,68.997 L49.203,67.595 C49.1609643,67.5787286 49.1160407,67.5712414 49.071,67.573 C48.9382954,67.5758499 48.8102816,67.6226241 48.707,67.706 C48.515,67.926 48.42,68.136 48.42,68.335 Z M61.959,70.139 L60.64,70.139 L60.64,64.925 C60.64,64.303 60.556,63.868 60.386,63.617 C60.096,63.191 59.601,62.977 58.902,62.977 C58.196,62.977 57.639,63.174 57.231,63.567 C56.9681876,63.8105773 56.7819474,64.1253789 56.695,64.473 L55.935,64.009 C56.1117624,63.5067363 56.4247641,63.063548 56.839,62.729 C57.339,62.314 58.047,62.106 58.963,62.106 C59.864,62.106 60.593,62.328 61.148,62.773 C61.688,63.211 61.958,63.857 61.958,64.71 L61.958,70.139 L61.959,70.139 Z M68.613,69.14 C68.793,69.14 68.935,69.072 69.037,68.936 C69.126,68.822 69.17,68.666 69.17,68.467 L69.17,62.249 L70.494,62.249 L70.494,68.671 C70.494,69.068 70.391,69.403 70.185,69.675 C69.95,69.985 69.543,70.139 68.965,70.139 L64.039,70.139 L64.039,69.14 L64.569,69.14 L64.569,67.805 C64.569,67.312 64.673,66.92 64.883,66.63 C65.129,66.291 65.433,66.093 65.793,66.034 C65.253,66.034 64.814,65.874 64.478,65.551 C64.141,65.229 63.973,64.8 63.973,64.263 C63.973,63.586 64.228,63.049 64.74,62.652 C65.203,62.299 65.786,62.122 66.489,62.122 C66.956,62.122 67.335,62.24 67.625,62.475 C67.935,62.733 68.089,63.091 68.089,63.551 C68.089,64.055 67.91,64.421 67.553,64.649 C67.318,64.796 67.053,64.869 66.759,64.869 C66.112,64.869 65.703,64.634 65.534,64.164 C65.4764517,64.0160411 65.4466217,63.8587554 65.446,63.7 C65.446,63.557 65.459,63.454 65.484,63.391 C65.367,63.406 65.262,63.503 65.17,63.684 C65.098757,63.818651 65.0590889,63.9677484 65.054,64.12 C65.054,64.896 65.512,65.346 66.428,65.471 C66.729,65.515 67.028,65.537 67.322,65.537 L67.901,65.537 L67.901,66.437 L67.289,66.437 C66.866,66.437 66.546,66.532 66.329,66.724 C66.056,66.97 65.92,67.314 65.92,67.755 L65.92,69.14 L68.613,69.14 Z M66.13,63.551 C66.13,63.717 66.192,63.858 66.315,63.976 C66.4281757,64.0901199 66.5824054,64.1540622 66.7431281,64.1534983 C66.9038508,64.1529344 67.0576279,64.0879113 67.17,63.973 C67.2883075,63.8646372 67.3554702,63.7114336 67.355,63.551 C67.355,63.154 67.151,62.955 66.742,62.955 C66.5811782,62.9532316 66.4263356,63.0158888 66.312,63.129 C66.1939625,63.2372993 66.1277507,63.3908234 66.13,63.551 Z M78.378,63.021 C78.528,63.183 78.652,63.388 78.748,63.634 C78.888,63.984 78.958,64.342 78.958,64.71 L78.958,70.139 L77.644,70.139 L77.644,69.416 C77.644,68.732 77.424,67.941 76.982,67.044 C76.42,65.907 75.807,65.339 75.145,65.339 C74.711,65.339 74.415,65.579 74.257,66.062 C74.187,66.286 74.152,66.569 74.152,66.912 C74.152,67.11 74.167,67.327 74.196,67.562 C74.369,67.5 74.534,67.468 74.693,67.468 C75.079,67.468 75.404,67.602 75.669,67.868 C75.934,68.135 76.066,68.462 76.066,68.848 C76.066,69.142 75.969,69.423 75.774,69.692 C75.568,69.982 75.325,70.146 75.046,70.182 C74.826,70.209 74.674,70.222 74.593,70.222 C74.115,70.222 73.707,70.049 73.369,69.702 C73.008,69.342 72.828,68.645 72.828,67.612 C72.828,66.486 73.008,65.692 73.368,65.228 C73.762,64.71 74.283,64.451 74.93,64.451 C75.298,64.451 75.686,64.548 76.094,64.743 C76.568,64.967 77.017,65.451 77.44,66.194 C77.488,66.279 77.556,66.407 77.644,66.58 L77.644,64.925 C77.644,64.351 77.545,63.919 77.346,63.628 C77.045,63.194 76.473,62.978 75.631,62.978 C74.873,62.978 74.279,63.111 73.849,63.378 C73.419,63.644 73.142,63.945 73.021,64.28 L72.298,63.717 L72.773,63.127 C73.03,62.88 73.288,62.691 73.545,62.558 C73.803,62.426 74.126,62.314 74.516,62.222 C74.8932081,62.1410536 75.2782236,62.1021496 75.664,62.106 C76.418,62.106 77.03,62.206 77.501,62.409 C77.666,62.295 77.793,62.172 77.881,62.039 C78.011,61.874 78.075,61.653 78.075,61.377 L79.476,61.737 C79.476,62.159 79.239,62.521 78.764,62.823 C78.632,62.908 78.504,62.973 78.378,63.022 L78.378,63.021 Z M75.288,68.848 C75.290743,68.6883594 75.2295317,68.5342511 75.118,68.42 C75.0085675,68.3020197 74.8538807,68.2365053 74.693,68.24 C74.5360635,68.2393786 74.3866792,68.3073138 74.284,68.426 C74.0548333,68.6606651 74.0548333,69.0353349 74.284,69.27 C74.398,69.39 74.534,69.45 74.693,69.45 C74.8522149,69.4525349 75.0052318,69.3883549 75.115,69.273 C75.2282377,69.1608709 75.2907351,69.0073369 75.288,68.848 Z M75.465,71.264 C75.134,71.264 74.945,71.419 74.897,71.728 C74.897,72.14 75.087,72.346 75.465,72.346 C75.825,72.346 76.005,72.166 76.005,71.805 C76.0057225,71.7792339 76.0040486,71.7534563 76,71.728 C76,71.418 75.822,71.264 75.465,71.264 Z M75.608,73.814 L75.608,72.794 C75.5310325,72.8165012 75.4511867,72.827619 75.371,72.827 C75.073,72.827 74.786,72.703 74.511,72.457 C74.349,72.314 74.268,72.095 74.268,71.8 C74.268,71.52 74.371,71.273 74.577,71.056 C74.805,70.824 75.107,70.708 75.482,70.708 C76.107,70.708 76.502,70.934 76.668,71.387 C76.734,71.571 76.768,71.819 76.768,72.132 L76.768,73.052 L77.716,73.052 L77.716,70.852 L78.864,70.852 L78.864,73.814 L75.608,73.814 Z M84.215,64.842 C84.0866333,64.8562648 83.9579252,64.8672684 83.829,64.875 C83.447,64.875 83.12,64.748 82.849,64.492 C82.5829412,64.2458865 82.4354346,63.8973338 82.444,63.535 C82.444,63.237 82.544,62.952 82.742,62.68 C82.948,62.389 83.195,62.225 83.482,62.188 C83.71,62.163 83.868,62.15 83.956,62.15 C84.449,62.15 84.837,62.312 85.12,62.635 C85.389,62.945 85.523,63.325 85.523,63.777 L85.523,70.139 L83.84,70.139 C83.7641555,69.9919735 83.685137,69.8466061 83.603,69.703 C83.4633993,69.4802492 83.3180166,69.2611749 83.167,69.046 C83.0179281,68.8119843 82.8652432,68.5802899 82.709,68.351 C82.3924798,67.9138252 82.0459795,67.4991609 81.672,67.11 C81.508872,66.9437835 81.3431855,66.7800972 81.175,66.619 L81.153,66.597 C80.833,66.287 80.618,66.102 80.508,66.04 L80.221,65.874 L80.591,65.289 C80.774,65.289 81.302,65.674 82.174,66.442 C82.49,66.722 82.812,67.027 83.139,67.358 C83.327,67.56 83.574,67.864 83.879,68.268 L84.215,68.726 L84.215,64.844 L84.215,64.842 Z M83.211,63.535 C83.211,63.704 83.271,63.845 83.393,63.96 C83.5101935,64.0720005 83.6669236,64.1331108 83.829,64.13 C83.984,64.13 84.121,64.07 84.24,63.948 C84.36,63.828 84.42,63.689 84.42,63.535 C84.42,63.377 84.36,63.235 84.243,63.11 C84.1384955,62.9906614 83.9876281,62.9221516 83.829,62.922 C83.6649603,62.9187399 83.506719,62.9826867 83.391,63.099 C83.2727814,63.2128437 83.2075227,63.3709149 83.211,63.535 Z M19.491,165.23 L19.491,170.353 C19.59,170.325 19.714,170.311 19.863,170.311 C20.239,170.311 20.553,170.435 20.805,170.683 C21.057,170.931 21.183,171.242 21.183,171.614 C21.183,171.969 21.071,172.267 20.847,172.508 C20.6226594,172.749856 20.3141873,172.896577 19.985,172.918 C19.8896305,172.942671 19.7915089,172.955104 19.693,172.955 C19.278,172.955 18.921,172.792 18.623,172.465 C18.364,172.189 18.235,171.825 18.235,171.375 L18.235,165.23 L19.491,165.23 Z M20.47,171.614 C20.4737416,171.456176 20.4083591,171.304591 20.291,171.199 C20.1753485,171.090228 20.0217377,171.031009 19.863,171.034 C19.7106427,171.032481 19.5644334,171.094005 19.459,171.204 C19.3481798,171.31135 19.2866566,171.459729 19.289,171.614 C19.289,171.774 19.344,171.911 19.456,172.027 C19.5613718,172.139119 19.7091586,172.201574 19.863,172.199 C20.03,172.199 20.173,172.143 20.291,172.029 C20.4071588,171.922552 20.4722941,171.77154 20.47,171.614 Z M24.38,165.554 C24.682,165.881 24.832,166.264 24.832,166.704 L24.832,171.874 L27.439,171.874 C27.6100265,171.877326 27.7745175,171.808334 27.892,171.684 C27.973,171.605 28.014,171.453 28.014,171.226 L28.014,162.25 L29.302,162.25 L29.302,171.375 C29.302,171.8 29.212,172.137 29.03,172.385 C28.803,172.687 28.429,172.838 27.908,172.838 L22.89,172.838 L22.89,171.875 L23.571,171.875 L23.571,167.73 C23.4425354,167.749397 23.3129066,167.760088 23.183,167.762 C22.818,167.762 22.503,167.638 22.241,167.39 C21.9840746,167.15392 21.8409406,166.818848 21.848,166.47 C21.848,166.182 21.942,165.907 22.13,165.645 C22.339,165.365 22.582,165.207 22.858,165.171 C23.075,165.146 23.226,165.134 23.311,165.134 C23.771,165.134 24.128,165.274 24.381,165.554 L24.38,165.554 Z M22.608,166.469 C22.608,166.622 22.665,166.756 22.778,166.871 C22.882869,166.982763 23.029748,167.045504 23.183,167.044 C23.339,167.044 23.473,166.987 23.587,166.874 C23.6972499,166.768328 23.7587959,166.621704 23.757,166.469 C23.7598316,166.313169 23.6996115,166.162799 23.59,166.052 C23.4848044,165.939512 23.3369941,165.876684 23.183,165.879 C23.02,165.879 22.883,165.936 22.773,166.052 C22.6646005,166.16344 22.6052006,166.31356 22.608,166.469 Z M23.816,162.809 C23.759,162.819 23.68,162.825 23.576,162.825 C23.166,162.825 22.86,162.692 22.662,162.425 C22.534,162.263 22.47,162.05 22.47,161.787 C22.47,161.248 22.736,160.897 23.268,160.734 C23.403,160.691 23.539,160.67 23.678,160.67 C24.111,160.67 24.435,160.833 24.651,161.16 C24.843,161.44 24.939,161.718 24.939,161.995 C24.939,162.122 24.921,162.25 24.886,162.378 C24.8176605,162.65517 24.6674801,162.905355 24.455,163.096 C25.005,162.961 25.415,162.733 25.684,162.41 C26.064,161.96 26.253,161.484 26.253,160.984 L27.461,160.984 C27.461,161.8 27.056,162.506 26.248,163.101 C25.396,163.743 24.315,164.064 23.002,164.064 L23.002,163.506 C23.183,163.506 23.378,163.426 23.587,163.266 C23.74,163.114 23.817,162.961 23.817,162.809 L23.816,162.809 Z M23.587,161.271 C23.254,161.271 23.087,161.441 23.087,161.782 C23.133,162.119 23.32,162.287 23.646,162.287 C23.954,162.287 24.109,162.11 24.109,161.755 C24.109,161.433 23.935,161.271 23.587,161.271 Z M36.314,172.838 L35.042,172.838 L35.042,167.81 C35.042,167.21 34.961,166.79 34.798,166.55 C34.518,166.138 34.04,165.932 33.366,165.932 C32.686,165.932 32.148,166.122 31.754,166.502 C31.5011567,166.736541 31.3218929,167.039483 31.238,167.374 L30.504,166.927 C30.671,166.448 30.962,166.037 31.377,165.693 C31.859,165.292 32.542,165.091 33.425,165.091 C34.294,165.091 34.996,165.306 35.532,165.735 C36.053,166.157 36.314,166.78 36.314,167.603 L36.314,172.838 Z M42.768,167.322 C42.548,167.16 42.423,166.968 42.395,166.746 C42.3805368,166.657831 42.3698604,166.569083 42.363,166.48 L42.363,166.427 C42.363,166.044 42.503,165.725 42.783,165.472 C43.0554229,165.221383 43.4138943,165.0853 43.784,165.092 C44.192,165.092 44.522,165.222 44.774,165.482 C45.025,165.743 45.151,166.077 45.151,166.485 C45.151,166.741 45.073,166.984 44.917,167.215 C44.754,167.462 44.552,167.608 44.311,167.65 C44.451,167.697 44.575,167.798 44.691,167.956 C44.8024115,168.096579 44.864908,168.269673 44.869,168.449 L44.869,172.838 L43.576,172.838 L43.576,168.448 C43.576,168.349 43.54,168.253 43.467,168.161 C43.395,168.069 43.312,168.023 43.22,168.023 C42.865,168.023 42.367,168.505 41.725,169.47 C41.122,170.375 40.764,171.497 40.65,172.838 L39.341,172.838 L39.341,167.73 C39.2125354,167.749397 39.0829066,167.760088 38.953,167.762 C38.588,167.762 38.273,167.638 38.011,167.39 C37.7540746,167.15392 37.6109406,166.818848 37.618,166.47 C37.618,166.182 37.712,165.907 37.899,165.645 C38.109,165.365 38.352,165.207 38.629,165.171 C38.845,165.146 38.996,165.134 39.081,165.134 C39.541,165.134 39.898,165.274 40.151,165.554 C40.451,165.881 40.602,166.264 40.602,166.704 L40.602,169.614 C40.602,169.433 40.828,169.067 41.278,168.518 C41.7,168.007 42.017,167.681 42.228,167.538 C42.438,167.397 42.621,167.326 42.773,167.326 L42.768,167.322 Z M38.378,166.47 C38.378,166.622 38.435,166.756 38.548,166.871 C38.652869,166.982763 38.799748,167.045504 38.953,167.044 C39.109,167.044 39.243,166.987 39.357,166.874 C39.4672499,166.768328 39.5287959,166.621704 39.527,166.469 C39.5298316,166.313169 39.4696115,166.162799 39.36,166.052 C39.2548044,165.939512 39.1069941,165.876684 38.953,165.879 C38.79,165.879 38.653,165.936 38.543,166.052 C38.4346005,166.16344 38.3752006,166.31356 38.378,166.469 L38.378,166.47 Z M43.161,166.437 C43.161,166.604 43.221,166.747 43.34,166.866 C43.4520021,166.981837 43.6068867,167.046251 43.768,167.044 C43.935,167.044 44.078,166.984 44.196,166.866 C44.3124598,166.75393 44.3772678,166.598609 44.375,166.437 C44.3772941,166.27946 44.3121588,166.128448 44.196,166.022 C44.0817489,165.910468 43.9276406,165.849257 43.768,165.852 C43.6085767,165.850367 43.4551453,165.912676 43.342,166.025 C43.2260442,166.130418 43.1605642,166.280294 43.162,166.437 L43.161,166.437 Z M52.111,165.23 L53.366,165.23 L53.366,171.396 C53.366,171.964 53.272,172.334 53.084,172.508 C52.882,172.767 52.598,172.896 52.233,172.896 C52.087,172.896 51.943,172.799 51.802,172.604 C51.632,172.344 51.46,172.086 51.286,171.827 C51.1203119,171.565314 50.9220591,171.32573 50.696,171.114 C50.259,170.724 49.819,170.502 49.376,170.449 L49.376,171.811 C49.376,172.286 49.209,172.609 48.876,172.779 C48.646,172.896 48.358,172.955 48.014,172.955 C47.812,172.955 47.648,172.935 47.524,172.896 C47.088,172.772 46.771,172.489 46.572,172.046 C46.4654611,171.804587 46.4129044,171.542827 46.418,171.279 C46.418,170.516 46.685,169.991 47.221,169.704 C47.551,169.524 47.843,169.433 48.099,169.433 L48.099,167.73 L47.902,167.752 C47.842,167.759 47.778,167.762 47.71,167.762 C47.3645389,167.768722 47.0312517,167.634396 46.787,167.39 C46.5370939,167.150075 46.3992503,166.816348 46.407,166.47 C46.407,166.182 46.501,165.907 46.689,165.645 C46.891,165.365 47.129,165.207 47.402,165.171 C47.618,165.146 47.767,165.134 47.849,165.134 C48.328,165.134 48.707,165.288 48.987,165.597 C49.247,165.887 49.376,166.257 49.376,166.703 L49.376,169.545 C49.812,169.565 50.284,169.749 50.791,170.093 C50.831,170.121 51.039,170.309 51.419,170.657 C51.777,170.987 51.962,171.15 51.972,171.146 C52.064,171.118 52.111,170.997 52.111,170.784 L52.111,165.23 Z M47.136,166.47 C47.1371957,166.621071 47.2004805,166.764999 47.311,166.868 C47.4143036,166.979393 47.5590816,167.043095 47.711,167.044 C47.871,167.044 48.011,166.987 48.133,166.874 C48.2504295,166.77227 48.3176257,166.624365 48.317,166.469 C48.3202146,166.310034 48.2554617,166.157246 48.139,166.049 C48.0245037,165.937219 47.8699851,165.875988 47.71,165.879 C47.5561228,165.878061 47.4091538,165.942814 47.306,166.057 C47.1967228,166.166211 47.1355329,166.314506 47.136,166.469 L47.136,166.47 Z M47.343,171.098 C47.339481,171.127868 47.3378111,171.157926 47.338,171.188 L47.338,171.274 C47.338,171.514 47.368,171.692 47.428,171.806 C47.518,171.99 47.632,172.082 47.774,172.082 C47.991,172.082 48.099,171.967 48.099,171.737 L48.099,170.385 C48.0582218,170.369308 48.0146546,170.36216 47.971,170.364 C47.8430704,170.366709 47.7196418,170.41172 47.62,170.492 C47.436,170.704 47.343,170.907 47.343,171.098 Z M60.4,172.838 L59.128,172.838 L59.128,167.81 C59.128,167.21 59.047,166.79 58.883,166.55 C58.603,166.138 58.126,165.932 57.453,165.932 C56.771,165.932 56.233,166.122 55.84,166.502 C55.5871567,166.736541 55.4078929,167.039483 55.324,167.374 L54.59,166.927 C54.757,166.448 55.047,166.037 55.462,165.693 C55.945,165.292 56.628,165.091 57.511,165.091 C58.38,165.091 59.082,165.306 59.618,165.735 C60.139,166.157 60.4,166.78 60.4,167.603 L60.4,172.838 Z M66.816,171.875 C66.99,171.875 67.126,171.809 67.226,171.678 C67.311,171.568 67.354,171.418 67.354,171.226 L67.354,165.23 L68.631,165.23 L68.631,171.423 C68.631,171.806 68.531,172.129 68.333,172.391 C68.106,172.689 67.713,172.838 67.157,172.838 L62.406,172.838 L62.406,171.875 L62.916,171.875 L62.916,170.587 C62.916,170.112 63.018,169.734 63.22,169.454 C63.457,169.128 63.75,168.936 64.098,168.88 C63.576,168.88 63.153,168.724 62.828,168.414 C62.504,168.104 62.342,167.689 62.342,167.172 C62.342,166.519 62.588,166.002 63.082,165.618 C63.528,165.278 64.09,165.108 64.768,165.108 C65.218,165.108 65.584,165.221 65.864,165.448 C66.162,165.696 66.311,166.042 66.311,166.485 C66.311,166.971 66.139,167.325 65.795,167.545 C65.5651419,167.687346 65.2993365,167.760911 65.029,167.757 C64.404,167.757 64.011,167.53 63.848,167.076 C63.7921727,166.933532 63.7630212,166.782012 63.762,166.629 C63.762,166.491 63.775,166.391 63.8,166.331 C63.686,166.345 63.585,166.439 63.496,166.613 C63.4276574,166.742782 63.3897017,166.886398 63.385,167.033 C63.385,167.782 63.826,168.216 64.709,168.337 C65,168.379 65.288,168.401 65.571,168.401 L66.13,168.401 L66.13,169.268 L65.54,169.268 C65.132,169.268 64.823,169.36 64.614,169.545 C64.351,169.782 64.22,170.114 64.22,170.539 L64.22,171.875 L66.816,171.875 Z M64.422,166.485 C64.422,166.645 64.482,166.781 64.6,166.895 C64.7093589,167.004838 64.8581314,167.066335 65.0131264,167.065772 C65.1681215,167.065208 65.3164428,167.00263 65.425,166.892 C65.5390219,166.787468 65.6036545,166.639685 65.603,166.485 C65.603,166.102 65.406,165.911 65.013,165.911 C64.857922,165.909046 64.7084996,165.969175 64.598,166.078 C64.4839822,166.182364 64.4199477,166.330444 64.422,166.485 Z M84.315,172.838 L83.028,172.838 L83.028,167.81 C83.028,167.221 82.966,166.828 82.842,166.629 C82.544,166.164 82.058,165.932 81.384,165.932 C80.696,165.932 80.157,166.12 79.766,166.496 C79.526,166.726 79.35,167.019 79.24,167.374 L78.527,166.927 C78.715,166.43 79.018,166.007 79.437,165.655 C79.883,165.279 80.543,165.091 81.416,165.091 C82.306,165.091 83.017,165.306 83.549,165.735 C84.06,166.147 84.315,166.769 84.315,167.603 L84.315,172.838 Z M76.138,161.186 C76.496,161.186 76.798,161.313 77.042,161.566 C77.287,161.82 77.409,162.128 77.409,162.49 C77.409,162.851 77.288,163.16 77.045,163.413 C76.802,163.666 76.5,163.793 76.138,163.793 C75.769,163.793 75.456,163.668 75.198,163.418 C74.9448004,163.176623 74.8050321,162.839727 74.813,162.49 C74.813,162.12 74.942,161.811 75.199,161.561 C75.456,161.311 75.769,161.186 76.138,161.186 Z M75.531,162.49 C75.531,162.88 75.733,163.075 76.138,163.075 C76.294,163.075 76.428,163.016 76.54,162.899 C76.6481557,162.790099 76.7082844,162.642478 76.707,162.489 C76.7086863,162.334267 76.6485773,162.185254 76.54,162.075 C76.4372568,161.961653 76.2909764,161.89761 76.138,161.899 C75.9776532,161.895141 75.8224367,161.955643 75.707,162.067 C75.5907002,162.176453 75.5266657,162.330354 75.531,162.49 Z M75.957,172.838 L75.957,167.672 C75.957,167.126 75.813,166.714 75.526,166.437 L75.26,166.257 C75.22382,166.23352 75.1810467,166.222301 75.138,166.225 C75.102,166.225 74.935,166.302 74.638,166.456 C74.34,166.61 74.075,166.687 73.845,166.687 C73.639,166.687 73.404,166.613 73.14,166.464 C72.875,166.315 72.731,166.241 72.706,166.241 C72.639,166.241 72.536,166.285 72.398,166.374 C72.2975379,166.435538 72.2091,166.514827 72.137,166.608 C71.889,166.913 71.764,167.381 71.764,168.012 C71.764,168.36 71.802,168.697 71.876,169.023 L72.078,169.949 C72.234,170.641 72.312,171.205 72.312,171.641 C72.458,171.368 72.68,171.047 72.977,170.678 L73.643,169.853 C73.3792931,169.87782 73.1181561,169.784426 72.93,169.598 C72.6565192,169.350892 72.5033569,168.997524 72.51,168.629 C72.51,168.154 72.71,167.785 73.11,167.523 C73.3432853,167.372942 73.6156486,167.295024 73.893,167.299 L73.983,167.299 C74.175,167.328 74.364,167.354 74.553,167.379 C74.708,167.429 74.863,167.571 75.015,167.805 C75.196,168.095 75.287,168.402 75.287,168.725 C75.287,168.985 75.122,169.357 74.792,169.843 C74.735,169.924 74.434,170.313 73.887,171.008 C73.788,171.132 73.667,171.297 73.525,171.503 L73.115,172.088 C72.9464832,172.325649 72.7973365,172.576457 72.669,172.838 L71.146,172.838 C71.146,172.806 71.148,172.755 71.152,172.686 C71.155,172.617 71.157,172.565 71.157,172.529 C71.157,172.065 71.113,171.543 71.024,170.965 C70.8517814,170.232671 70.6884361,169.498284 70.534,168.762 C70.4816169,168.497615 70.4568174,168.228506 70.46,167.959 C70.46,167.548 70.545,167.138 70.715,166.73 C70.9,166.294 71.146,165.959 71.455,165.724 C71.923,165.374 72.361,165.168 72.769,165.107 C72.858,165.093 73.034,165.203 73.299,165.437 C73.563,165.671 73.775,165.788 73.934,165.788 C74.108,165.788 74.334,165.675 74.61,165.448 C74.887,165.221 75.062,165.108 75.137,165.108 C75.346,165.108 75.578,165.168 75.834,165.288 C76.064,165.405 76.27,165.567 76.451,165.772 C76.735,166.095 76.931,166.404 77.041,166.698 C77.158,167.014 77.217,167.361 77.217,167.741 L77.217,172.838 L75.956,172.838 L75.957,172.838 Z M73.296,168.644 C73.296,168.804 73.356,168.941 73.476,169.054 C73.597,169.168 73.736,169.224 73.892,169.224 C74.0478306,169.226832 74.1982006,169.166611 74.309,169.057 C74.4224205,168.949954 74.4852659,168.799924 74.482,168.644 C74.482,168.261 74.285,168.07 73.892,168.07 C73.7360724,168.06824 73.5857893,168.128282 73.474,168.237 C73.3588125,168.340695 73.2939396,168.489027 73.296,168.644 Z M76.036,157.668 L77.185,157.668 L77.185,159.887 L76.035,159.887 L76.035,157.668 L76.036,157.668 Z" id="Shape" fill="#6D6E71" fill-rule="nonzero"></path>
            <g id="Group" transform="translate(24.896000, 130.144000)" fill="#2A3052" fill-rule="nonzero">
                <path d="M1.488,7.175 C1.47905908,8.97732224 1.47905908,10.7796778 1.488,12.582 C2.518,12.332 3.241,13.282 3.241,13.842 C3.241,14.402 3.019,15.283 1.898,15.375 C0.777,15.466 0.155,14.703 0.155,13.767 L0.155,7.175 L1.488,7.175 Z M1.881,13.357 C1.7156447,13.3501712 1.55469037,13.4112665 1.43551503,13.5260978 C1.3163397,13.6409292 1.24931286,13.7995052 1.25,13.965 C1.25,14.241 1.39,14.574 1.881,14.574 C2.373,14.574 2.497,14.215 2.497,13.933 C2.497,13.65 2.311,13.357 1.881,13.357 Z M9.457,7.174 C9.777,7.349 10.096,7.504 10.414,7.637 C10.141,8.218 9.653,8.509 8.949,8.509 C7.894,8.509 7.461,7.969 6.459,8.036 C5.456,8.101 5.349,8.66 5.163,8.952 C5.961,9.026 6.548,9.09 6.926,9.142 C7.492,9.22 9.13,9.63 9.362,10.496 C9.562,11.188 9.457,13.118 9.457,13.818 C9.457,14.518 8.983,15.363 7.721,15.363 C6.459,15.363 6.322,14.285 6.322,13.911 C6.322,13.537 6.724,12.231 8.091,12.621 C8.104,11.756 8.107,11.233 8.101,11.051 C8.091,10.777 8.072,10.288 7.197,10.065 C6.322,9.841 4.809,9.638 3.828,9.753 C3.904,8.848 4.163,7.872 5.163,7.371 C6.164,6.871 7.452,7.307 8.101,7.472 C8.749,7.637 9.064,7.472 9.457,7.174 Z M7.662,13.342 C7.299,13.342 7.066,13.722 7.066,13.96 C7.066,14.197 7.313,14.578 7.662,14.578 C8.011,14.578 8.323,14.366 8.323,13.943 C8.323,13.519 8.025,13.342 7.662,13.342 Z M2.969,5.84 C3.259,4.62 3.774,3.308 6.054,3.249 C8.334,3.189 9.267,4.929 9.532,5.909 C7.867,5.427 3.923,5.564 2.969,5.839 L2.969,5.84 Z M4.416,4.977 C5.352,4.877 7.201,4.877 8.091,5.115 C7.779,4.483 6.954,3.863 6.018,3.924 C5.081,3.984 4.691,4.312 4.416,4.977 Z M8.182,0.015 L9.388,0.015 L9.388,2.323 L8.182,2.323 L8.182,0.015 Z M17.105,7.197 L18.447,7.197 L18.447,13.883 C18.447,14.536 18.142,15.04 17.787,15.185 C17.577,15.27 17.407,15.391 17.105,15.281 C16.329,14.999 16.239,13.201 14.229,12.731 C14.221,13.063 14.214,13.621 14.209,14.407 C14.013,15.414 13.013,15.492 12.187,15.281 C11.362,15.07 10.801,13.981 11.144,12.964 C11.49,11.938 12.04,11.748 12.832,11.656 C12.862,11.019 12.871,10.413 12.857,9.836 C11.579,10.047 10.975,9.136 11.069,8.344 C11.164,7.551 11.742,7.091 12.619,7.091 C13.496,7.091 14.229,7.799 14.209,8.573 C14.189,9.347 14.195,10.473 14.229,11.735 C14.956,11.86 15.437,12.097 16.04,12.628 C16.211,12.778 16.514,13.091 16.978,13.499 C17.068,13.374 17.105,13.142 17.105,12.508 L17.105,7.197 Z M12.441,7.877 C12.134,7.877 11.851,8.016 11.851,8.501 C11.851,8.987 12.161,9.125 12.441,9.125 C12.722,9.125 13.101,8.93 13.101,8.508 C13.101,8.085 12.749,7.877 12.441,7.877 Z M12.865,12.678 C12.789,12.591 12.545,12.588 12.319,12.768 C12.093,12.948 11.902,13.469 12.121,14.108 C12.341,14.748 12.865,14.412 12.865,14.108 L12.865,12.678 Z M26.271,15.262 L26.271,10.567 C26.271,8.465 25.6,8.251 25.371,8.251 C25.141,8.251 24.483,8.744 24.007,8.744 C23.53,8.744 23.377,8.516 22.749,8.251 C21.699,8.606 21.669,10.511 21.884,11.007 C22.028,11.337 22.194,12.341 22.384,14.019 C22.439,13.857 22.911,13.209 23.798,12.077 C23.007,12.177 22.588,11.255 22.588,10.674 C22.588,10.094 23.463,8.929 24.73,9.482 C25.997,10.034 25.522,11.649 25.03,12.077 C24.702,12.362 23.942,13.427 22.749,15.27 L21.172,15.262 C21.197,14.782 21.197,14.214 20.963,13.066 C20.809,12.308 20.433,11.184 20.433,10.225 C20.433,7.813 22.406,7.058 22.881,7.058 C23.366,7.245 23.728,7.785 24.103,7.785 C24.478,7.785 24.68,7.435 25.37,7.058 C26.926,7.058 27.58,9.036 27.58,9.643 L27.58,15.262 L26.271,15.262 Z M24.054,10.203 C23.714,10.203 23.444,10.523 23.444,10.813 C23.444,11.103 23.639,11.413 24.054,11.413 C24.468,11.413 24.694,11.125 24.694,10.768 C24.694,10.411 24.394,10.203 24.054,10.203 Z M27.585,2.689 C28.28,2.692 28.639,2.689 28.837,2.689 C28.843,3.309 28.643,4.049 27.585,4.929 C26.657,5.702 25.029,6.013 24.155,5.954 L24.145,5.364 C24.605,5.312 24.89,5.071 25,4.64 C24.238,4.699 23.555,4.35 23.555,3.52 C23.555,2.689 24.087,2.42 24.797,2.36 C25.507,2.299 25.959,2.929 26.115,3.386 C26.271,3.844 26.115,4.438 25.665,4.929 C26.808,4.696 27.585,3.519 27.585,2.689 Z M24.724,2.999 C24.5857471,2.99899356 24.4532284,3.05425423 24.3559395,3.15248217 C24.2586507,3.25071011 24.2046655,3.38375359 24.206,3.522 C24.206,3.781 24.453,4.07 24.724,4.07 C24.994,4.07 25.305,3.938 25.305,3.522 C25.305,3.106 25.042,2.999 24.724,2.999 Z M34.588,7.194 L35.862,7.194 L35.862,12.004 C35.862,12.325 35.388,12.52 35.176,12.609 C35.891,12.94 36.136,13.36 36.136,13.997 C36.136,14.633 35.547,15.38 34.766,15.38 C33.984,15.38 33.612,14.744 33.509,14.273 C33.406,13.803 33.535,13.353 33.672,13.248 C32.839,13.351 32.054,14.53 31.895,15.241 L30.671,15.252 L30.671,9.818 C29.561,9.876 29.005,9.45 29.005,8.54 C29.005,7.174 30.202,7.111 30.518,7.111 C30.833,7.111 31.688,7.306 31.895,8.349 C31.94,9.49 31.895,13.323 31.895,13.603 C32.201,13.155 32.725,12.574 33.377,12.429 C34.028,12.284 34.41,12.203 34.587,11.845 C34.597,11.116 34.597,9.565 34.587,7.195 L34.588,7.194 Z M34.762,13.347 C34.498,13.347 34.194,13.613 34.194,13.977 C34.194,14.34 34.499,14.606 34.762,14.606 C35.026,14.606 35.398,14.406 35.398,13.934 C35.398,13.462 35.027,13.347 34.762,13.347 Z M30.225,7.889 C29.875,7.889 29.743,8.186 29.743,8.504 C29.743,8.822 29.997,9.119 30.305,9.119 C30.612,9.119 30.885,8.805 30.885,8.452 C30.885,8.099 30.575,7.889 30.225,7.889 Z" id="Shape"></path>
            </g>
            <g id="Group" transform="translate(263.896000, 119.144000)" fill="#2A3052" fill-rule="nonzero">
                <path d="M0.426,6.145 C0.681,5.075 1.132,3.925 3.133,3.872 C5.133,3.82 5.952,5.347 6.183,6.206 C4.723,5.784 1.263,5.904 0.426,6.146 L0.426,6.145 Z M1.696,5.389 C2.516,5.301 4.139,5.301 4.919,5.51 C4.646,4.955 3.922,4.412 3.101,4.465 C2.279,4.518 1.937,4.805 1.695,5.389 L1.696,5.389 Z M28.188,14.595 L28.188,10.571 C28.188,8.727 27.872,8.281 26.018,8.281 C24.165,8.281 24.15,10.427 24.339,10.862 C24.465,11.152 24.611,12.032 24.777,13.505 C24.827,13.363 25.24,12.795 26.018,11.801 C25.324,11.889 24.956,11.08 24.956,10.571 C24.956,10.061 25.724,9.039 26.836,9.524 C27.948,10.009 27.531,11.426 27.099,11.801 C26.811,12.051 26.144,12.985 25.098,14.602 L23.714,14.595 C23.737,14.175 23.737,13.675 23.531,12.669 C23.396,12.004 22.957,11.009 23.065,10.176 C23.324,8.191 24.339,7.642 26.201,7.542 C28.063,7.442 29.337,8.409 29.337,9.666 L29.337,14.595 L28.187,14.595 L28.188,14.595 Z M26.243,10.157 C25.945,10.157 25.708,10.437 25.708,10.692 C25.708,10.947 25.878,11.219 26.243,11.219 C26.606,11.219 26.803,10.966 26.803,10.653 C26.803,10.34 26.54,10.157 26.243,10.157 Z M6.907,1.003 C7.409,1.005 7.668,1.003 7.812,1.003 C7.816,1.451 7.672,1.986 6.907,2.623 C6.236,3.181 5.06,3.405 4.427,3.363 L4.421,2.936 C4.753,2.899 4.959,2.724 5.039,2.413 C4.489,2.456 3.994,2.204 3.994,1.603 C3.994,1.003 4.379,0.809 4.892,0.765 C5.405,0.721 5.732,1.176 5.845,1.507 C5.957,1.837 5.845,2.267 5.519,2.622 C6.345,2.453 6.907,1.604 6.907,1.003 Z M4.839,1.227 C4.609,1.227 4.465,1.417 4.465,1.605 C4.465,1.792 4.644,2.001 4.839,2.001 C5.034,2.001 5.259,1.906 5.259,1.605 C5.259,1.305 5.069,1.227 4.839,1.227 Z M12.504,7.588 L13.622,7.588 L13.622,11.808 C13.622,12.089 13.206,12.26 13.02,12.338 C13.647,12.629 13.862,12.998 13.862,13.556 C13.862,14.114 13.346,14.769 12.66,14.769 C11.974,14.769 11.648,14.211 11.558,13.799 C11.468,13.386 11.581,12.99 11.701,12.899 C10.971,12.989 10.281,14.024 10.141,14.647 L9.068,14.657 L9.068,9.89 C8.094,9.94 7.606,9.567 7.606,8.768 C7.606,7.57 8.656,7.515 8.933,7.515 C9.21,7.515 9.959,7.685 10.142,8.601 C10.182,9.602 10.142,12.965 10.142,13.211 C10.41,12.817 10.87,12.308 11.442,12.181 C12.013,12.053 12.348,11.981 12.504,11.668 C12.513,11.028 12.513,9.668 12.504,7.588 Z M12.657,12.985 C12.425,12.985 12.158,13.219 12.158,13.538 C12.158,13.857 12.426,14.09 12.658,14.09 C12.8110707,14.0885451 12.9569498,14.0248234 13.0620344,13.913513 C13.1671189,13.8022026 13.2223481,13.6529012 13.215,13.5 C13.215,13.086 12.889,12.985 12.657,12.985 Z M8.677,8.197 C8.369,8.197 8.253,8.457 8.253,8.737 C8.253,9.017 8.477,9.277 8.746,9.277 C9.016,9.277 9.255,9.001 9.255,8.692 C9.255,8.382 8.984,8.197 8.677,8.197 Z M20.125,7.79 C20.34,7.623 20.719,7.34 20.719,6.81 C21.254,6.934 21.665,7.034 21.954,7.109 C21.954,7.541 21.578,8.087 20.866,8.304 C21.058,8.51 21.162,8.714 21.226,8.853 C21.468,9.304 21.534,11.235 21.423,14.645 L20.295,14.645 C20.3,14.191 20.3,13.828 20.295,13.555 C19.812,11.553 18.678,9.992 17.777,10.397 C16.877,10.801 17.213,11.902 17.213,12.328 C17.777,12.171 18.773,12.328 18.877,13.421 C18.98,14.515 17.881,14.855 17.333,14.748 C16.784,14.641 16.199,14.361 16.033,13.354 C15.868,12.346 15.826,9.823 17.563,9.594 C19.301,9.367 19.949,11.052 20.295,11.462 C20.399,9.214 20.217,8.064 18.322,8.246 C16.426,8.427 16.284,9.126 16.152,9.413 C15.906,9.219 15.682,9.05 15.481,8.907 C16.091,7.966 17.081,7.495 18.453,7.495 C19.187,7.495 19.726,7.616 20.125,7.79 Z M17.638,12.986 C17.311,12.986 17.145,13.26 17.145,13.507 C17.145,13.754 17.336,14.028 17.638,14.028 C17.94,14.028 18.14,13.665 18.14,13.458 C18.1312979,13.1892259 17.9068002,12.9781444 17.638,12.986 Z M4.712,7.626 C4.928,7.458 5.307,7.176 5.307,6.645 C5.841,6.769 6.253,6.869 6.541,6.945 C6.541,7.376 6.166,7.923 5.454,8.139 C5.645,8.346 5.75,8.549 5.814,8.689 C6.055,9.139 6.121,11.071 6.011,14.48 L4.883,14.48 C4.888,14.026 4.888,13.663 4.883,13.391 C4.4,11.388 3.266,9.827 2.365,10.232 C1.464,10.637 1.8,11.737 1.8,12.164 C2.365,12.007 3.361,12.164 3.464,13.257 C3.568,14.35 2.468,14.691 1.92,14.584 C1.372,14.476 0.786,14.197 0.62,13.189 C0.455,12.181 0.414,9.659 2.151,9.43 C3.888,9.202 4.536,10.888 4.883,11.298 C4.987,9.049 4.805,7.9 2.909,8.081 C1.013,8.263 0.872,8.961 0.739,9.249 C0.493,9.055 0.269,8.886 0.069,8.743 C0.679,7.801 1.669,7.331 3.04,7.331 C3.774,7.331 4.314,7.451 4.712,7.626 Z M2.226,12.821 C1.898,12.821 1.732,13.096 1.732,13.343 C1.732,13.589 1.924,13.864 2.226,13.864 C2.528,13.864 2.727,13.5 2.727,13.293 C2.71829535,13.0246272 2.49441489,12.8137058 2.226,12.821 Z M20.475,18.16 C20.472,17.838 20.472,17.59 20.475,17.414 C19.559,17.519 19.15,16.934 19.15,16.367 C19.15,15.8 19.495,15.415 20.281,15.344 C21.068,15.272 21.497,15.926 21.554,16.367 C21.593,16.661 21.612,17.259 21.612,18.16 L20.475,18.16 Z M20.253,15.906 C20.036,15.906 19.851,15.906 19.799,16.413 C19.747,16.919 20.103,16.945 20.334,16.945 C20.566,16.945 20.829,16.815 20.829,16.413 C20.829,16.01 20.469,15.906 20.253,15.906 Z" id="Shape"></path>
            </g>
            <g id="Group" transform="translate(166.896000, 158.144000)" fill="#FFFFFF" fill-rule="nonzero">
                <path d="M3.001,8.888 L0.87,8.888 L0.87,0.575 L3,0.575 L3.001,8.888 Z M3.001,13.262 L0.87,13.262 L0.87,11.029 L3,11.029 L3.001,13.262 Z" id="Shape"></path>
            </g>
            <path d="M135.629,158.147 L138.195,158.147 C138.063,159.828 137.029,160.884 135.092,161.315 C136.16,161.626 136.716,162.368 136.716,163.507 C136.716,165.309 136.706,167.458 136.716,169.22 C136.716,172.169 136.018,172.47 133.723,172.571 C132.193,172.639 129.793,172.639 126.526,172.571 L126.526,170.954 L128.019,170.954 L128.019,168.034 C128.172,166.414 130.919,164.356 130.919,162.342 C130.919,160.329 128.544,159.226 127.281,160.625 C128.34,160.685 129.228,161.617 129.307,162.962 C129.307,164.365 128.277,165.099 127.085,165.099 C125.892,165.099 124.605,164.292 124.605,162.646 C124.605,160.999 125.335,159.962 126.525,159.216 C127.715,158.471 131.774,158.05 132.696,161.315 C133.619,164.58 130.238,166.395 130.238,168.293 L130.238,170.953 L133.355,170.953 C134.27,170.953 134.519,170.207 134.519,168.821 C134.519,167.908 134.519,164.908 134.344,162.961 C134.258,162.011 133.434,161.724 133.146,161.724 C132.968,161.222 132.963,161.121 132.853,160.745 C134.512,160.593 135.437,159.727 135.629,158.147 Z M126.994,161.89 C126.509,161.89 126.1,162.28 126.1,162.91 C126.1,163.539 126.569,163.93 126.994,163.93 C127.419,163.93 128.05,163.584 128.05,162.885 C128.05,162.185 127.48,161.89 126.994,161.89 Z M149.148,158.867 L151.315,158.867 L151.315,167.043 C151.315,167.589 150.508,167.919 150.147,168.071 C151.363,168.635 151.78,169.348 151.78,170.43 C151.78,171.512 150.779,172.781 149.45,172.781 C148.121,172.781 147.49,171.701 147.315,170.901 C147.139,170.101 147.359,169.334 147.591,169.158 C146.176,169.333 144.841,171.338 144.571,172.545 L142.491,172.564 L142.491,163.327 C140.602,163.425 139.658,162.701 139.658,161.154 C139.658,158.833 141.693,158.726 142.229,158.726 C142.766,158.726 144.217,159.056 144.571,160.83 C144.647,162.77 144.571,169.285 144.571,169.761 C145.091,168.999 145.981,168.011 147.089,167.765 C148.197,167.519 148.845,167.381 149.148,166.773 C149.165,165.533 149.165,162.898 149.148,158.867 Z M149.445,169.325 C148.995,169.325 148.478,169.777 148.478,170.395 C148.478,171.013 148.997,171.465 149.445,171.465 C149.893,171.465 150.525,171.127 150.525,170.324 C150.525,169.52 149.895,169.324 149.445,169.324 L149.445,169.325 Z M141.732,160.048 C141.137,160.048 140.912,160.552 140.912,161.093 C140.912,161.634 141.345,162.139 141.867,162.139 C142.39,162.139 142.852,161.605 142.852,161.005 C142.852,160.405 142.327,160.048 141.732,160.048 Z M162.194,160.028 L164.099,160.338 C163.232,163.495 161.112,164.863 157.74,164.443 C152.682,163.813 154.549,159.372 156.499,159.545 C158.449,159.719 158.896,160.845 158.896,161.582 C158.896,162.32 158.822,162.594 157.931,163.259 C160.431,163.635 161.852,162.558 162.194,160.028 Z M156.607,160.63 C156.072,160.63 155.653,161.149 155.653,161.664 C155.653,162.18 156.124,162.698 156.607,162.698 C157.089,162.698 157.701,162.343 157.701,161.638 C157.701,160.932 157.141,160.63 156.607,160.63 Z M162.194,167.279 L164.099,167.589 C163.232,170.746 161.112,172.114 157.74,171.694 C152.682,171.064 154.549,166.623 156.499,166.796 C158.449,166.97 158.896,168.096 158.896,168.833 C158.896,169.571 158.822,169.845 157.931,170.51 C160.431,170.886 161.852,169.809 162.194,167.28 L162.194,167.279 Z M156.607,167.881 C156.072,167.881 155.653,168.4 155.653,168.915 C155.653,169.431 156.124,169.95 156.607,169.95 C157.089,169.95 157.701,169.594 157.701,168.889 C157.701,168.183 157.141,167.881 156.607,167.881 Z" id="Shape" fill="#FFFFFF" fill-rule="nonzero"></path>
        </g>
    </g>
</svg>