<?xml version="1.0" encoding="UTF-8"?>
<svg width="299px" height="197px" viewBox="0 0 299 197" version="1.1" xmlns="http://www.w3.org/2000/svg" xmlns:xlink="http://www.w3.org/1999/xlink">
    <!-- Generator: Sketch 52.6 (67491) - http://www.bohemiancoding.com/sketch -->
    <title>under</title>
    <desc>Created with Sketch.</desc>
    <g id="Page-1" stroke="none" stroke-width="1" fill="none" fill-rule="evenodd">
        <g id="under">
            <g>
                <polygon id="Path" fill="#F1F1F2" points="0 0 299 0 299 197 0 197"></polygon>
                <path d="M1.98671096,1.9798995 L1.98671096,195.020101 L297.013289,195.020101 L297.013289,1.9798995 L1.98671096,1.9798995 Z M299,0 L299,197 L0,197 L0,0 L299,0 Z" id="Path" fill="#C2C2C2" fill-rule="nonzero"></path>
                <path d="M4.57962025,54.9933135 L4.57962025,53.7813019 L294.988101,53.7813019 L294.988101,54.9933135 L4.57962025,54.9933135 Z M4.57962025,75.0721596 L4.57962025,73.860148 L294.988101,73.860148 L294.988101,75.0721596 L4.57962025,75.0721596 Z M4.57962025,135.346583 L4.57962025,134.134571 L294.988101,134.134571 L294.988101,135.346583 L4.57962025,135.346583 Z" id="Shape" fill="#DEDEDD" fill-rule="nonzero"></path>
                <path d="M4.57962025,155.425429 L4.57962025,154.213417 L8.17777956,154.213417 L8.17777956,155.425429 L4.57962025,155.425429 Z M11.7759389,155.425429 L11.7759389,154.213417 L15.3740982,154.213417 L15.3740982,155.425429 L11.7759389,155.425429 Z M18.9722575,155.425429 L18.9722575,154.213417 L22.5704168,154.213417 L22.5704168,155.425429 L18.9722575,155.425429 Z M26.1685761,155.425429 L26.1685761,154.213417 L29.7667354,154.213417 L29.7667354,155.425429 L26.1685761,155.425429 Z M33.3648948,155.425429 L33.3648948,154.213417 L36.9630541,154.213417 L36.9630541,155.425429 L33.3648948,155.425429 Z M40.5612134,155.425429 L40.5612134,154.213417 L44.1593727,154.213417 L44.1593727,155.425429 L40.5612134,155.425429 Z M47.757532,155.425429 L47.757532,154.213417 L51.3556913,154.213417 L51.3556913,155.425429 L47.757532,155.425429 Z M54.9538506,155.425429 L54.9538506,154.213417 L58.5520099,154.213417 L58.5520099,155.425429 L54.9538506,155.425429 Z M62.1501693,155.425429 L62.1501693,154.213417 L65.7483286,154.213417 L65.7483286,155.425429 L62.1501693,155.425429 Z M69.3464879,155.425429 L69.3464879,154.213417 L72.9446472,154.213417 L72.9446472,155.425429 L69.3464879,155.425429 Z M76.5428065,155.425429 L76.5428065,154.213417 L80.1409658,154.213417 L80.1409658,155.425429 L76.5428065,155.425429 Z M83.7391251,155.425429 L83.7391251,154.213417 L87.3372845,154.213417 L87.3372845,155.425429 L83.7391251,155.425429 Z M90.9354438,155.425429 L90.9354438,154.213417 L94.5336031,154.213417 L94.5336031,155.425429 L90.9354438,155.425429 Z M98.1317624,155.425429 L98.1317624,154.213417 L101.729922,154.213417 L101.729922,155.425429 L98.1317624,155.425429 Z M105.328081,155.425429 L105.328081,154.213417 L108.92624,154.213417 L108.92624,155.425429 L105.328081,155.425429 Z M112.5244,155.425429 L112.5244,154.213417 L116.122559,154.213417 L116.122559,155.425429 L112.5244,155.425429 Z M119.720718,155.425429 L119.720718,154.213417 L123.318878,154.213417 L123.318878,155.425429 L119.720718,155.425429 Z M126.917037,155.425429 L126.917037,154.213417 L130.515196,154.213417 L130.515196,155.425429 L126.917037,155.425429 Z M134.113356,155.425429 L134.113356,154.213417 L137.711515,154.213417 L137.711515,155.425429 L134.113356,155.425429 Z M141.309674,155.425429 L141.309674,154.213417 L144.907833,154.213417 L144.907833,155.425429 L141.309674,155.425429 Z M148.505993,155.425429 L148.505993,154.213417 L152.104152,154.213417 L152.104152,155.425429 L148.505993,155.425429 Z M155.702311,155.425429 L155.702311,154.213417 L159.300471,154.213417 L159.300471,155.425429 L155.702311,155.425429 Z M162.89863,155.425429 L162.89863,154.213417 L166.496789,154.213417 L166.496789,155.425429 L162.89863,155.425429 Z M170.094949,155.425429 L170.094949,154.213417 L173.693108,154.213417 L173.693108,155.425429 L170.094949,155.425429 Z M177.291267,155.425429 L177.291267,154.213417 L180.889427,154.213417 L180.889427,155.425429 L177.291267,155.425429 Z M184.487586,155.425429 L184.487586,154.213417 L188.085745,154.213417 L188.085745,155.425429 L184.487586,155.425429 Z M191.683905,155.425429 L191.683905,154.213417 L195.282064,154.213417 L195.282064,155.425429 L191.683905,155.425429 Z M198.880223,155.425429 L198.880223,154.213417 L202.478382,154.213417 L202.478382,155.425429 L198.880223,155.425429 Z M206.076542,155.425429 L206.076542,154.213417 L209.674701,154.213417 L209.674701,155.425429 L206.076542,155.425429 Z M213.27286,155.425429 L213.27286,154.213417 L216.87102,154.213417 L216.87102,155.425429 L213.27286,155.425429 Z M220.469179,155.425429 L220.469179,154.213417 L224.067338,154.213417 L224.067338,155.425429 L220.469179,155.425429 Z M227.665498,155.425429 L227.665498,154.213417 L231.263657,154.213417 L231.263657,155.425429 L227.665498,155.425429 Z M234.861816,155.425429 L234.861816,154.213417 L238.459976,154.213417 L238.459976,155.425429 L234.861816,155.425429 Z M242.058135,155.425429 L242.058135,154.213417 L245.656294,154.213417 L245.656294,155.425429 L242.058135,155.425429 Z M249.254454,155.425429 L249.254454,154.213417 L252.852613,154.213417 L252.852613,155.425429 L249.254454,155.425429 Z M256.450772,155.425429 L256.450772,154.213417 L260.048931,154.213417 L260.048931,155.425429 L256.450772,155.425429 Z M263.647091,155.425429 L263.647091,154.213417 L267.24525,154.213417 L267.24525,155.425429 L263.647091,155.425429 Z M270.843409,155.425429 L270.843409,154.213417 L274.441569,154.213417 L274.441569,155.425429 L270.843409,155.425429 Z M278.039728,155.425429 L278.039728,154.213417 L281.637887,154.213417 L281.637887,155.425429 L278.039728,155.425429 Z M285.236047,155.425429 L285.236047,154.213417 L288.834206,154.213417 L288.834206,155.425429 L285.236047,155.425429 Z M292.432365,155.425429 L292.432365,154.213417 L294.988101,154.213417 L294.988101,155.425429 L292.432365,155.425429 Z" id="Path" fill="#293052" fill-rule="nonzero"></path>
                <path d="M4.57962025,175.504275 L4.57962025,174.292263 L294.988101,174.292263 L294.988101,175.504275 L4.57962025,175.504275 Z M39.0588043,34.3084615 L40.2708159,34.3084615 L40.2708159,192.590385 L39.0588043,192.590385 L39.0588043,34.3084615 Z M75.8093107,34.3084615 L77.0213223,34.3084615 L77.0213223,192.590385 L75.8093107,192.590385 L75.8093107,34.3084615 Z M112.559817,34.3084615 L113.771829,34.3084615 L113.771829,192.590385 L112.559817,192.590385 L112.559817,34.3084615 Z M149.272475,34.3084615 L150.484487,34.3084615 L150.484487,192.590385 L149.272475,192.590385 L149.272475,34.3084615 Z M186.022981,34.3084615 L187.234993,34.3084615 L187.234993,192.590385 L186.022981,192.590385 L186.022981,34.3084615 Z M222.773488,34.3084615 L223.9855,34.3084615 L223.9855,192.590385 L222.773488,192.590385 L222.773488,34.3084615 Z M259.523994,34.3084615 L260.736006,34.3084615 L260.736006,192.590385 L259.523994,192.590385 L259.523994,34.3084615 Z M4.57962025,115.267737 L4.57962025,114.055725 L294.988101,114.055725 L294.988101,115.267737 L4.57962025,115.267737 Z M4.57962025,95.1888904 L4.57962025,93.9768788 L294.988101,93.9768788 L294.988101,95.1888904 L4.57962025,95.1888904 Z" id="Shape" fill="#DEDEDD" fill-rule="nonzero"></path>
                <polygon id="Path" fill="#C2C2C2" fill-rule="nonzero" points="2.49797468 34.3081653 2.49797468 31.8841423 297.107595 31.8841423 297.107595 34.3081653"></polygon>
                <path d="M190.555385,84.7637518 C191.469544,84.0878791 192.773611,84.4188141 193.25487,85.4488038 L225.312211,154.057842 C225.732821,154.958029 225.344046,156.028747 224.443859,156.449356 C223.543672,156.869966 222.472954,156.481191 222.052345,155.581004 L190.926017,88.9645172 L150.266767,119.025479 C149.647137,119.483595 148.804556,119.496219 148.17148,119.05687 L106.275931,89.9817567 L77.6246261,115.993744 C76.9597394,116.597382 75.9515388,116.618272 75.262219,116.042692 L38.5117126,85.3561534 C37.7490288,84.7193153 37.6470108,83.5847786 38.283849,82.8220948 C38.9206871,82.059411 40.0552238,81.957393 40.8179076,82.5942312 L76.3658988,112.276674 L104.916766,86.3558719 C105.536945,85.7928237 106.46365,85.7322836 107.151811,86.2098604 L149.164062,115.365964 L190.555385,84.7637518 Z" id="Path" fill="#293052" fill-rule="nonzero"></path>
                <path d="M255.777468,116.442308 L256.458734,109.850385 L262.438734,109.850385 L262.438734,111.29 L257.859114,111.29 L257.480633,114.661731 C257.736671,114.473673 258.016712,114.320776 258.313291,114.207115 C258.65302,114.083408 259.011532,114.019327 259.373038,114.017692 C260.366446,113.959925 261.330648,114.36556 261.984557,115.116346 C262.654792,115.95 262.991975,117.003027 262.930759,118.071346 C262.97333,119.120401 262.62231,120.147449 261.946709,120.950577 C261.221324,121.713281 260.195899,122.115524 259.145949,122.049231 C258.227608,122.088855 257.326245,121.792599 256.610127,121.215769 C255.912908,120.612097 255.546989,119.710504 255.626076,118.791154 L257.102152,118.791154 C257.065794,119.354363 257.272508,119.906132 257.669873,120.306538 C258.069606,120.676509 258.602405,120.867955 259.145949,120.836923 C259.761305,120.87038 260.354394,120.601818 260.73557,120.117115 C261.12051,119.481425 261.268012,118.729784 261.151899,117.995577 C261.185622,117.31764 260.985148,116.648749 260.584177,116.101346 C260.211091,115.602409 259.616691,115.319088 258.994557,115.343654 C258.508363,115.307839 258.022161,115.413065 257.594177,115.646731 C257.28875,115.857356 257.062309,116.164013 256.950759,116.518077 L255.777468,116.442308 Z M261.795316,137.013654 L263.422785,137.013654 L263.422785,138.301731 L261.795316,138.301731 L261.795316,141.067308 L260.167848,141.067308 L260.167848,138.263846 L254.793418,138.263846 L254.793418,137.354615 L260.054304,129.057885 L261.757468,129.057885 L261.757468,137.013654 L261.795316,137.013654 Z M256.53443,137.013654 L260.319241,137.013654 L260.319241,131.368846 L260.319241,131.785577 L256.53443,137.013654 Z M263.082152,181.073462 L255.323291,181.073462 L255.323291,179.936923 L259.108101,175.580192 C259.653534,175.015611 260.135797,174.393145 260.546329,173.723846 C260.788505,173.296003 260.918699,172.813822 260.92481,172.322115 C260.941776,171.768733 260.75296,171.22874 260.394937,170.806731 C260.046154,170.399807 259.529652,170.176239 258.994557,170.200577 C258.325428,170.149808 257.6659,170.383616 257.177848,170.844615 C256.755636,171.338615 256.538883,171.975942 256.572278,172.625192 L255.134051,172.625192 C255.078909,171.646589 255.451926,170.692405 256.155949,170.011154 C256.955415,169.271212 258.021013,168.888321 259.108101,168.950385 C260.059298,168.900449 260.989408,169.242731 261.681772,169.8975 C262.314128,170.52735 262.656813,171.391749 262.627975,172.284231 C262.623229,172.980647 262.426794,173.662279 262.060253,174.254231 C261.595362,175.017798 261.049732,175.729072 260.432785,176.375769 L257.291392,179.785385 L263.044304,179.785385 L263.044304,181.073462 L263.082152,181.073462 Z M263.082152,70.4882692 C261.868415,71.8476898 260.884083,73.3959893 260.167848,75.0723077 C259.607096,76.6382473 259.238529,78.2665926 259.070253,79.9215385 L259.070253,81.2096154 L257.367089,81.2096154 L257.367089,79.9215385 C257.567876,78.1425196 258.040164,76.4048678 258.767468,74.7692308 C259.478713,73.2024114 260.395112,71.7373067 261.492532,70.4125 L254.982658,70.4125 L254.982658,69.2001923 L263.082152,69.2001923 L263.082152,70.4882692 Z M262.627975,52.8719231 C262.636271,53.4586606 262.449918,54.0315833 262.098101,54.5009615 C261.732922,54.9880083 261.232789,55.3568833 260.659873,55.5617308 C261.307406,55.7829422 261.88292,56.1757167 262.32519,56.6982692 C262.72868,57.2027459 262.942935,57.8327298 262.930759,58.4788462 C262.988164,59.4513642 262.580815,60.39339 261.833165,61.0171154 C260.133059,62.1805904 257.893903,62.1805904 256.193797,61.0171154 C255.465135,60.3822325 255.073381,59.4439174 255.134051,58.4788462 C255.125034,57.8332267 255.338937,57.2042817 255.73962,56.6982692 C256.161986,56.1710277 256.72693,55.7765005 257.367089,55.5617308 C256.805853,55.3543828 256.318559,54.9852642 255.966709,54.5009615 C255.633332,54.0243688 255.460929,53.4535637 255.474684,52.8719231 C255.424696,51.9572075 255.7856,51.0679719 256.458734,50.4473077 C257.17932,49.848034 258.096344,49.537565 259.032405,49.5759615 C259.968466,49.537565 260.88549,49.848034 261.606076,50.4473077 C262.29776,51.0576082 262.67393,51.9501304 262.627975,52.8719231 Z M261.341139,58.4409615 C261.366212,57.8313483 261.132478,57.2395678 260.697722,56.8119231 C260.262978,56.3882281 259.676916,56.1563059 259.070253,56.1678846 C258.465294,56.1355643 257.874636,56.3593441 257.442672,56.7845186 C257.010708,57.2096931 256.777249,57.7970766 256.799367,58.4030769 C256.77548,59.0013615 257.009876,59.5810182 257.442785,59.9942308 C258.407122,60.7598557 259.771232,60.7598557 260.73557,59.9942308 C261.14862,59.5860387 261.368793,59.0213018 261.341139,58.4409615 Z M261.151899,52.9098077 C261.168403,52.3610051 260.963828,51.8285961 260.584177,51.4323077 C259.805108,50.671955 258.562487,50.671955 257.783418,51.4323077 C257.421115,51.8368295 257.230982,52.3669961 257.253544,52.9098077 C257.222542,53.4538761 257.413803,53.9871891 257.783418,54.3873077 C258.570281,55.1282337 259.797314,55.1282337 260.584177,54.3873077 C260.967573,53.9934105 261.172784,53.4593475 261.151899,52.9098077 Z" id="Shape" fill="#808184" fill-rule="nonzero"></path>
                <path d="M188.180759,145.158846 L153.133418,145.158846 L147.607595,137.089423 L142.308861,145.158846 L107.261519,145.158846 C104.648653,145.158846 102.530506,147.279036 102.530506,149.894423 L102.530506,174.405769 C102.530506,177.021156 104.648653,179.141346 107.261519,179.141346 L188.180759,179.141346 C189.455058,179.171968 190.687787,178.686593 191.599735,177.79516 C192.511683,176.903726 193.025684,175.681664 193.025316,174.405769 L193.025316,149.932308 C193.035937,148.649854 192.526447,147.417929 191.613353,146.518235 C190.700259,145.61854 189.461651,145.128022 188.180759,145.158846 Z" id="Path" fill="#E88024"></path>
                <g id="Group" opacity="0.6" transform="translate(214.949367, 145.961538)" fill="#FFFFFF">
                    <ellipse id="Oval" cx="8.4301266" cy="8.8578846" rx="8.13734177" ry="8.3725"></ellipse>
                </g>
                <path d="M223.379494,164.403935 C218.20814,164.403935 214.030141,160.105197 214.030141,154.819423 C214.030141,149.533649 218.20814,145.234911 223.379494,145.234911 C228.550848,145.234911 232.728847,149.533649 232.728847,154.819423 C232.728847,160.105197 228.550848,164.403935 223.379494,164.403935 Z M223.379494,161.979911 C227.196399,161.979911 230.304824,158.781657 230.304824,154.819423 C230.304824,150.857189 227.196399,147.658935 223.379494,147.658935 C219.562589,147.658935 216.454164,150.857189 216.454164,154.819423 C216.454164,158.781657 219.562589,161.979911 223.379494,161.979911 Z" id="Oval" fill="#E88024" fill-rule="nonzero"></path>
                <path d="M259.902911,88.9001923 C260.305298,88.8538574 260.711664,88.8538574 261.114051,88.9001923 C261.455473,88.970571 261.786276,89.0851902 262.098101,89.2411538 L261.757468,90.4913462 L260.92481,90.1503846 C260.585744,90.1041432 260.241978,90.1041432 259.902911,90.1503846 C259.081936,90.1220853 258.301018,90.5058148 257.821266,91.1732692 C257.262064,91.955083 256.982091,92.9025714 257.026456,93.8630769 C257.381616,93.5493977 257.792442,93.3052344 258.237595,93.1432692 C258.708835,92.9636585 259.209442,92.8737193 259.713671,92.8780769 C260.694075,92.832152 261.641795,93.2367165 262.287342,93.9767308 C262.934744,94.7638902 263.271385,95.7613083 263.233544,96.7801923 C263.278019,97.8820307 262.914068,98.9614444 262.211646,99.8109615 C261.530274,100.598642 260.526493,101.031243 259.486582,100.985385 C258.373137,101.006099 257.307087,100.534921 256.572278,99.6973077 C255.755994,98.6827634 255.350691,97.3980663 255.436835,96.0982692 L255.436835,93.8251923 C255.363169,92.4437257 255.824027,91.0869528 256.723671,90.0367308 C257.570328,89.2170791 258.729069,88.8028438 259.902911,88.9001923 Z M259.33519,94.3176923 C258.846481,94.3053349 258.363248,94.4229917 257.93481,94.6586538 C257.550911,94.8679042 257.235504,95.1836148 257.026456,95.5678846 L257.026456,96.5528846 C256.97668,97.455569 257.229798,98.3490032 257.74557,99.0911538 C258.142175,99.6612848 258.792523,100.000924 259.486582,100.000385 C260.172385,100.053196 260.824964,99.6969006 261.151899,99.0911538 C261.539107,98.4664522 261.736365,97.7424768 261.71962,97.0075 C261.761624,96.305102 261.561189,95.6095915 261.151899,95.0375 C260.725025,94.4782323 260.0325,94.1894016 259.33519,94.2798077 L259.33519,94.3176923 Z" id="Shape" fill="#808184" fill-rule="nonzero"></path>
                <polygon id="Path" fill="#E88024" points="246.277595 145.424038 274.852911 145.424038 274.852911 164.214808 246.277595 164.214808"></polygon>
                <polygon id="Path" fill="#E88024" points="249.75962 154.819423 246.428987 158.153269 241.243797 154.819423 246.428987 151.485577"></polygon>
                <path d="M257.594177,153.682885 L258.956709,153.682885 C259.418699,153.716156 259.872966,153.550808 260.205696,153.228269 C260.499099,152.880171 260.64809,152.432768 260.622025,151.978077 C260.644235,151.546843 260.494489,151.124425 260.205696,150.803654 C259.85448,150.554821 259.417488,150.459137 258.994557,150.538462 C258.582251,150.519538 258.177615,150.654547 257.859114,150.917308 C257.559891,151.171164 257.392674,151.547764 257.404937,151.940192 L255.058354,151.940192 C255.009355,151.042095 255.405813,150.177548 256.118101,149.629231 C256.914751,149.003895 257.907189,148.681712 258.918861,148.72 C259.973507,148.66396 261.015473,148.971503 261.871013,149.591346 C262.618663,150.215072 263.026012,151.157097 262.968608,152.129615 C262.963328,152.661556 262.791216,153.178392 262.476582,153.607115 C262.128335,154.088331 261.657926,154.467637 261.114051,154.705769 C261.721858,154.902929 262.251778,155.287492 262.627975,155.804423 C262.980606,156.302137 263.166154,156.899117 263.157848,157.509231 C263.194167,158.513484 262.742928,159.473292 261.946709,160.085385 C261.063339,160.743226 259.98112,161.077567 258.881013,161.0325 C257.852697,161.065498 256.842039,160.759346 256.004557,160.161154 C255.216182,159.583063 254.785859,158.635438 254.869114,157.660769 L257.367089,157.660769 C257.356873,158.093465 257.536715,158.508884 257.859114,158.797308 C258.203138,159.101306 258.649352,159.263723 259.108101,159.251923 C259.592614,159.283668 260.06966,159.119951 260.432785,158.797308 C260.764762,158.468131 260.943298,158.014487 260.92481,157.547115 C260.97781,157.036654 260.812852,156.527543 260.470633,156.145385 C260.080171,155.818217 259.578224,155.655266 259.070253,155.690769 L257.594177,155.690769 L257.594177,153.682885 Z" id="Path" fill="#FFFFFF"></path>
                <polygon id="Path" fill="#293052" fill-rule="nonzero" points="247.56443 126.29216 247.56443 125.080148 270.462532 125.080148 270.462532 126.29216"></polygon>
            </g>
            <path d="M212.866241,12.64 L212.866241,17.816 C212.966241,17.788 213.092241,17.773 213.242241,17.773 C213.622241,17.773 213.939241,17.899 214.194241,18.15 C214.448241,18.4 214.575241,18.714 214.575241,19.09 C214.575241,19.449 214.463241,19.75 214.237241,19.993 C214.01048,20.2372334 213.698811,20.3853743 213.366241,20.407 C213.269595,20.4322174 213.170123,20.4449873 213.070241,20.445 C212.651241,20.445 212.290241,20.28 211.990241,19.95 C211.728241,19.67 211.597241,19.304 211.597241,18.848 L211.597241,12.64 L212.866241,12.64 Z M213.856241,19.09 C213.860097,18.9307896 213.794375,18.777804 213.676241,18.671 C213.559007,18.5606773 213.403189,18.5007197 213.242241,18.504 C213.08834,18.5026129 212.940701,18.5648531 212.834241,18.676 C212.722168,18.7843072 212.659909,18.9341626 212.662241,19.09 C212.662241,19.252 212.718241,19.39 212.832241,19.507 C212.944241,19.623 213.082241,19.682 213.242241,19.682 C213.403769,19.6848817 213.559718,19.6229339 213.675241,19.51 C213.792441,19.4021113 213.857942,19.2492752 213.855241,19.09 L213.856241,19.09 Z M217.285241,17.816 C217.453241,17.756 217.622241,17.725 217.790241,17.725 C218.166241,17.725 218.483241,17.855 218.739241,18.115 C218.995241,18.375 219.123241,18.692 219.123241,19.069 C219.123241,19.355 219.030241,19.631 218.843241,19.897 C218.639241,20.177 218.401241,20.334 218.129241,20.37 C217.979222,20.3892632 217.828396,20.4016096 217.677241,20.407 C217.222241,20.407 216.827241,20.239 216.495241,19.902 C216.136241,19.54 215.957241,18.861 215.957241,17.865 C215.957241,16.754 216.129241,15.98 216.473241,15.542 C216.867241,15.037 217.380241,14.784 218.010241,14.784 C218.365241,14.784 218.743241,14.879 219.145241,15.069 C219.589241,15.284 219.990241,15.713 220.349241,16.354 C220.471241,16.569 220.564241,16.738 220.629241,16.859 L220.629241,15.247 C220.629241,14.667 220.539241,14.245 220.359241,13.983 C220.066241,13.561 219.507241,13.349 218.682241,13.349 C217.966241,13.349 217.382241,13.487 216.930241,13.763 C216.647241,13.939 216.383241,14.223 216.140241,14.618 L215.436241,14.069 L215.903241,13.494 C216.143241,13.261 216.400241,13.075 216.672241,12.935 C216.926241,12.806 217.238241,12.699 217.607241,12.613 C217.971138,12.533712 218.34283,12.4958048 218.715241,12.5 C220.295241,12.5 221.299241,12.982 221.725241,13.946 C221.865241,14.268 221.935241,14.632 221.935241,15.037 L221.935241,20.327 L220.628241,20.327 L220.628241,19.622 C220.628241,18.916 220.422241,18.144 220.010241,17.306 C219.462241,16.202 218.869241,15.65 218.230241,15.65 C217.812241,15.65 217.532241,15.867 217.392241,16.3 C217.299241,16.587 217.252241,16.91 217.252241,17.268 C217.252241,17.548 217.263241,17.73 217.285241,17.816 Z M218.355241,19.069 C218.356749,18.914876 218.297886,18.7662807 218.191241,18.655 C218.09019,18.5402491 217.944133,18.4752539 217.791241,18.477 C217.634245,18.473294 217.483178,18.5369969 217.376241,18.652 C217.267476,18.7632774 217.207708,18.913417 217.210241,19.069 C217.210241,19.23 217.266241,19.368 217.379241,19.483 C217.492241,19.597 217.629241,19.655 217.790241,19.655 C217.940241,19.655 218.072241,19.595 218.185241,19.475 C218.293236,19.3673837 218.354338,19.2214575 218.355241,19.069 Z M229.745241,12.639 L229.745241,18.849 C229.745241,19.246 229.652241,19.578 229.465241,19.843 C229.147241,20.165 228.728241,20.327 228.208241,20.327 L224.316241,20.327 L224.316241,19.37 L225.101241,19.37 L225.101241,17.864 C225.101241,17.48 225.334241,17.005 225.800241,16.439 C226.183241,15.973 226.438241,15.581 226.563241,15.262 C226.653241,15.025 226.697241,14.769 226.697241,14.493 C226.697241,14.185 226.606241,13.92 226.423241,13.698 C226.249831,13.4623603 225.973799,13.3243445 225.681241,13.327 L225.585241,13.327 C225.554479,13.3269194 225.523753,13.3249155 225.493241,13.321 C225.056241,13.321 224.798241,13.427 224.719241,13.638 C225.121241,13.638 225.409241,13.778 225.585241,14.058 C225.767241,14.352 225.859241,14.62 225.859241,14.864 C225.859241,15.09 225.796241,15.314 225.671241,15.536 C225.534241,15.776 225.366241,15.93 225.165241,15.998 C224.963565,16.0808888 224.749068,16.1282542 224.531241,16.138 C224.255241,16.138 223.985241,16.041 223.719241,15.848 C223.443241,15.64 223.287241,15.402 223.252241,15.133 C223.222494,14.98397 223.204439,14.8328433 223.198241,14.681 C223.198241,14.036 223.431241,13.506 223.897241,13.091 C224.302241,12.725 224.891241,12.541 225.665241,12.541 C226.239241,12.541 226.725241,12.699 227.122241,13.015 C227.613241,13.402 227.859241,13.904 227.859241,14.52 C227.859241,15.237 227.588241,15.941 227.047241,16.633 C226.767241,16.991 226.611241,17.199 226.579241,17.256 C226.439241,17.486 226.369241,17.731 226.369241,17.993 L226.369241,19.369 L227.923241,19.369 C228.059241,19.369 228.201241,19.295 228.348241,19.149 C228.408241,19.034 228.439241,18.872 228.439241,18.665 L228.439241,12.639 L229.745241,12.639 Z M224.015241,14.897 C224.015241,15.047 224.066241,15.18 224.168241,15.292 C224.263343,15.4023311 224.402603,15.4646313 224.548241,15.462 C224.923241,15.462 225.112241,15.274 225.112241,14.897 C225.112241,14.521 224.923241,14.333 224.547241,14.333 C224.402671,14.332057 224.265063,14.3950052 224.171241,14.505 C224.070841,14.6107919 224.014984,14.7511509 224.015241,14.897 Z M237.411241,13.392 C237.558241,13.55 237.678241,13.749 237.771241,13.989 C237.907241,14.329 237.975241,14.679 237.975241,15.037 L237.975241,20.327 L236.696241,20.327 L236.696241,19.622 C236.696241,18.956 236.481241,18.185 236.051241,17.311 C235.503241,16.204 234.906241,15.65 234.261241,15.65 C233.838241,15.65 233.549241,15.885 233.395241,16.354 C233.320538,16.6234483 233.286164,16.9024773 233.293241,17.182 C233.293241,17.375 233.308241,17.587 233.336241,17.816 C233.505241,17.756 233.666241,17.725 233.820241,17.725 C234.196241,17.725 234.514241,17.855 234.772241,18.115 C235.030241,18.375 235.159241,18.692 235.159241,19.069 C235.159241,19.355 235.064241,19.629 234.874241,19.891 C234.673241,20.174 234.436241,20.334 234.164241,20.37 C234.018251,20.3893665 233.871415,20.401714 233.724241,20.407 C233.257241,20.407 232.860241,20.239 232.530241,19.902 C232.179241,19.551 232.003241,18.872 232.003241,17.865 C232.003241,16.768 232.179241,15.994 232.530241,15.542 C232.913241,15.037 233.420241,14.784 234.051241,14.784 C234.410241,14.784 234.788241,14.879 235.185241,15.069 C235.648241,15.288 236.085241,15.759 236.497241,16.483 C236.544241,16.566 236.610241,16.691 236.696241,16.859 L236.696241,15.247 C236.696241,14.687 236.599241,14.267 236.406241,13.983 C236.112241,13.561 235.555241,13.349 234.734241,13.349 C233.996241,13.349 233.417241,13.479 232.998241,13.739 C232.578241,13.999 232.310241,14.292 232.191241,14.618 L231.487241,14.069 L231.949241,13.494 C232.200241,13.254 232.451241,13.07 232.702241,12.941 C232.952241,12.811 233.268241,12.702 233.648241,12.613 C234.015594,12.5341786 234.390546,12.496281 234.766241,12.5 C235.501241,12.5 236.098241,12.598 236.556241,12.795 C236.717241,12.685 236.841241,12.565 236.927241,12.435 C237.053241,12.274 237.115241,12.059 237.115241,11.79 L238.481241,12.14 C238.481241,12.552 238.250241,12.905 237.787241,13.199 C237.668751,13.2758731 237.542774,13.340537 237.411241,13.392 Z M234.401241,19.069 C234.401241,18.908 234.345241,18.769 234.234241,18.652 C234.127537,18.5372607 233.976891,18.4735818 233.820241,18.477 C233.667698,18.4762076 233.522383,18.5419282 233.422241,18.657 C233.198791,18.8858324 233.198791,19.2511676 233.422241,19.48 C233.523775,19.5925682 233.668652,19.6562704 233.820241,19.655 C233.975251,19.6575866 234.124277,19.5952204 234.231241,19.483 C234.342079,19.3740143 234.403503,19.2244277 234.401241,19.069 Z M236.868241,24.133 L236.868241,23.299 C236.803875,23.3190234 236.736615,23.328149 236.669241,23.326 C236.279241,23.326 235.974241,23.213 235.755241,22.988 C235.562241,22.783 235.465241,22.522 235.465241,22.203 C235.465241,21.705 235.689241,21.364 236.137241,21.181 C236.334241,21.099 236.544241,21.058 236.766241,21.058 C237.200241,21.058 237.551241,21.219 237.819241,21.542 C238.035241,21.8 238.142241,22.205 238.142241,22.756 L238.142241,24.133 L236.868241,24.133 Z M236.680241,21.671 C236.325241,21.671 236.148241,21.859 236.148241,22.235 C236.148241,22.605 236.338241,22.789 236.718241,22.789 C237.094241,22.789 237.282241,22.589 237.282241,22.192 C237.239241,21.844 237.038241,21.671 236.680241,21.671 Z M245.340241,20.327 L245.340241,15.107 C245.340241,14.577 245.179241,14.157 244.856241,13.849 C244.505241,13.516 243.966241,13.349 243.238241,13.349 C242.625241,13.349 242.128241,13.519 241.749241,13.859 C241.319241,14.25 241.104241,14.781 241.104241,15.451 C241.104241,15.802 241.142241,16.143 241.217241,16.472 L241.421241,17.408 C241.579241,18.107 241.658241,18.676 241.658241,19.118 C241.919241,18.669 242.254241,18.157 242.663241,17.58 C242.788241,17.404 242.901241,17.248 243.002241,17.112 C242.704241,17.076 242.417241,16.932 242.142241,16.682 C241.952241,16.51 241.857241,16.23 241.857241,15.843 C241.857241,15.657 241.887241,15.489 241.947241,15.338 C242.177241,14.772 242.620241,14.488 243.276241,14.488 C243.792241,14.488 244.163241,14.664 244.388241,15.016 C244.571241,15.313 244.663241,15.625 244.663241,15.951 C244.663241,16.177 244.509241,16.535 244.200241,17.026 C243.946241,17.396 243.568241,17.947 243.066241,18.682 C242.873241,18.965 242.596241,19.392 242.238241,19.962 L242.018241,20.327 L240.480241,20.327 C240.480241,20.294 240.482241,20.243 240.486241,20.173 C240.489241,20.103 240.491241,20.051 240.491241,20.015 C240.491241,19.545 240.446241,19.019 240.357241,18.435 C240.183263,17.695025 240.018251,16.9529707 239.862241,16.209 C239.809194,15.9416601 239.78406,15.6695334 239.787241,15.397 C239.787241,14.48 240.126241,13.759 240.803241,13.237 C241.444241,12.745 242.262241,12.5 243.254241,12.5 C244.394241,12.5 245.244241,12.735 245.802241,13.204 C246.343241,13.659 246.614241,14.317 246.614241,15.177 L246.614241,20.327 L245.340241,20.327 Z M242.652241,15.87 C242.652241,16.028 242.714241,16.165 242.838241,16.282 C243.068968,16.5123882 243.442414,16.5132816 243.674241,16.284 C243.788978,16.1771313 243.853256,16.0267844 243.851241,15.87 C243.853746,15.7114544 243.791454,15.5587504 243.678766,15.4471955 C243.566078,15.3356405 243.412753,15.2748935 243.254241,15.279 C243.095714,15.2779557 242.943506,15.3410755 242.832241,15.454 C242.716295,15.5611022 242.650932,15.7121625 242.652241,15.87 Z M249.721241,15.166 C249.491241,15.188 249.354241,15.198 249.307241,15.198 C248.945241,15.198 248.639241,15.071 248.387241,14.817 C248.14104,14.5728994 248.005527,14.2386338 248.012241,13.892 C248.012241,13.602 248.103241,13.326 248.286241,13.064 C248.483241,12.778 248.719241,12.616 248.996241,12.58 C249.214241,12.555 249.364241,12.543 249.446241,12.543 C249.941241,12.543 250.326241,12.699 250.603241,13.01 C250.861241,13.308 250.990241,13.68 250.990241,14.129 L250.990241,15.892 L250.845241,17.032 L251.038241,16.386 C251.063241,16.3 251.180241,15.994 251.388241,15.467 C251.771241,14.482 252.174241,13.718 252.597241,13.177 C252.794241,12.927 252.936241,12.77 253.022241,12.709 C253.162241,12.606 253.352241,12.554 253.592241,12.554 C254.125241,12.554 254.559241,12.74 254.892241,13.113 C255.208241,13.467 255.365241,13.917 255.365241,14.462 L255.365241,20.327 L254.097241,20.327 L254.097241,14.333 C254.097241,13.913 253.909241,13.709 253.532241,13.72 C253.339241,13.727 253.042241,14.136 252.640241,14.946 C252.389981,15.444741 252.165682,15.9560906 251.968241,16.478 C251.599374,17.4716026 251.315031,18.4945671 251.118241,19.536 C251.033241,19.981 250.990241,20.244 250.990241,20.326 L249.721241,20.326 L249.721241,15.166 Z M248.731241,13.892 C248.731241,14.042 248.791241,14.177 248.907241,14.295 C249.023241,14.414 249.157241,14.473 249.307241,14.473 C249.465245,14.4743849 249.617223,14.412441 249.729241,14.301 C249.849241,14.186 249.909241,14.05 249.909241,13.892 C249.912893,13.732097 249.849429,13.5779689 249.734241,13.467 C249.621329,13.3538205 249.467078,13.2916865 249.307241,13.295 C249.152302,13.2937365 249.00434,13.3593352 248.901241,13.475 C248.79167,13.586057 248.730546,13.7359908 248.731241,13.892 Z M253.140241,10.162 C253.083241,10.172 253.002241,10.178 252.898241,10.178 C252.482241,10.178 252.174241,10.043 251.973241,9.774 C251.844241,9.61 251.780241,9.394 251.780241,9.129 C251.780241,8.585 252.049241,8.229 252.586241,8.065 C252.722241,8.022 252.860241,8 253.000241,8 C253.437241,8 253.765241,8.165 253.984241,8.495 C254.177241,8.778 254.274241,9.059 254.274241,9.339 C254.274241,9.468 254.256241,9.597 254.220241,9.726 C254.134241,10.034 253.990241,10.276 253.785241,10.452 C254.340241,10.316 254.755241,10.084 255.027241,9.758 C255.410241,9.303 255.602241,8.823 255.602241,8.318 L256.822241,8.318 C256.822241,9.142 256.414241,9.855 255.597241,10.458 C254.737241,11.106 253.643241,11.43 252.317241,11.43 L252.317241,10.866 C252.500241,10.866 252.697241,10.785 252.909241,10.624 C253.063241,10.47 253.139241,10.316 253.139241,10.161 L253.140241,10.162 Z M252.909241,8.608 C252.572241,8.608 252.403241,8.78 252.403241,9.124 C252.450241,9.464 252.638241,9.634 252.968241,9.634 C253.280241,9.634 253.436241,9.455 253.436241,9.097 C253.436241,8.771 253.260241,8.607 252.909241,8.607 L252.909241,8.608 Z M262.354241,20.327 L261.069241,20.327 L261.069241,15.247 C261.069241,14.641 260.986241,14.217 260.822241,13.973 C260.538241,13.557 260.056241,13.349 259.376241,13.349 C258.688241,13.349 258.145241,13.541 257.746241,13.924 C257.491092,14.1613913 257.310433,14.4678175 257.226241,14.806 L256.484241,14.354 C256.652241,13.871 256.946241,13.454 257.365241,13.107 C257.853241,12.702 258.542241,12.5 259.435241,12.5 C260.313241,12.5 261.022241,12.717 261.563241,13.15 C262.090241,13.577 262.353241,14.206 262.353241,15.037 L262.353241,20.327 L262.354241,20.327 Z M268.837241,19.354 C268.999894,19.3602345 269.155026,19.2852916 269.251241,19.154 C269.337241,19.044 269.380241,18.891 269.380241,18.698 L269.380241,12.64 L270.670241,12.64 L270.670241,18.897 C270.670241,19.284 270.570241,19.61 270.369241,19.875 C270.139241,20.176 269.743241,20.327 269.181241,20.327 L264.381241,20.327 L264.381241,19.354 L264.896241,19.354 L264.896241,18.053 C264.896241,17.573 264.998241,17.191 265.203241,16.908 C265.443241,16.578 265.738241,16.385 266.090241,16.328 C265.563241,16.328 265.136241,16.17 264.808241,15.857 C264.480241,15.543 264.316241,15.125 264.316241,14.602 C264.316241,13.942 264.565241,13.419 265.063241,13.032 C265.515241,12.688 266.083241,12.516 266.767241,12.516 C267.222241,12.516 267.591241,12.631 267.874241,12.86 C268.175241,13.11 268.326241,13.46 268.326241,13.908 C268.326241,14.399 268.152241,14.756 267.804241,14.978 C267.572084,15.1221492 267.303484,15.1967601 267.030241,15.193 C266.400241,15.193 266.002241,14.963 265.837241,14.505 C265.781075,14.3608888 265.751922,14.207668 265.751241,14.053 C265.751241,13.913 265.764241,13.813 265.789241,13.753 C265.674241,13.767 265.572241,13.862 265.482241,14.037 C265.412799,14.1682513 265.374155,14.3135919 265.369241,14.462 C265.369241,15.218 265.816241,15.657 266.708241,15.779 C267.002241,15.822 267.292241,15.843 267.578241,15.843 L268.143241,15.843 L268.143241,16.72 L267.546241,16.72 C267.134241,16.72 266.823241,16.813 266.611241,17 C266.346241,17.24 266.213241,17.574 266.213241,18.004 L266.213241,19.354 L268.837241,19.354 Z M266.417241,13.908 C266.417241,14.069 266.477241,14.208 266.597241,14.322 C266.707611,14.4333735 266.858072,14.4957779 267.014869,14.4952139 C267.171667,14.4946499 267.321674,14.4311647 267.431241,14.319 C267.546156,14.2136756 267.611481,14.0648803 267.611241,13.909 C267.611241,13.521 267.412241,13.328 267.014241,13.328 C266.85762,13.3261756 266.706767,13.3870213 266.595241,13.497 C266.480337,13.6024957 266.41594,13.7520294 266.418241,13.908 L266.417241,13.908 Z" id="Shape" fill="#2A3052" fill-rule="nonzero"></path>
            <path d="M275.338241,15.068 L274.235241,15.068 L274.235241,13.904 L275.369241,13.904 L275.369241,15.068 L275.339241,15.068 L275.338241,15.068 Z M275.338241,20.063 L274.235241,20.063 L274.235241,18.898 L275.369241,18.898 L275.369241,20.063 L275.339241,20.063 L275.338241,20.063 Z M280.149241,16.324 L280.639241,11.759 L284.807241,11.759 L284.807241,12.769 L281.742241,12.769 L281.467241,15.099 C281.647241,14.972 281.842241,14.869 282.049241,14.792 C282.292241,14.75 282.541241,14.75 282.784241,14.792 C283.467808,14.7475723 284.13405,15.0187859 284.592241,15.528 C285.048241,16.112 285.276241,16.841 285.235241,17.581 C285.259791,18.3139406 285.020645,19.0313776 284.561241,19.603 C284.053836,20.1363684 283.335843,20.4169719 282.601241,20.369 C281.869826,20.3937805 281.160384,20.1168017 280.639241,19.603 C280.156912,19.1822365 279.90615,18.5553318 279.965241,17.918 L280.976241,17.918 C280.956241,18.306 281.101241,18.684 281.375241,18.959 C281.662241,19.257 282.065241,19.414 282.478241,19.389 C282.963241,19.436 283.434241,19.212 283.703241,18.806 C283.991241,18.406 284.131241,17.919 284.102241,17.427 C284.122241,16.956 283.982241,16.491 283.703241,16.11 C283.442902,15.7664009 283.030986,15.5718331 282.600241,15.589 C282.27265,15.5612729 281.94379,15.624968 281.650241,15.773 C281.442241,15.923 281.291241,16.139 281.221241,16.386 L280.149241,16.324 Z" id="Shape" fill="#293052" fill-rule="nonzero"></path>
            <path d="M171.341241,165.292 L169.182241,165.292 L169.182241,156.873 L171.341241,156.873 L171.341241,165.292 Z M171.341241,169.721 L169.182241,169.721 L169.182241,167.459 L171.341241,167.459 L171.341241,169.721 Z" id="Shape" fill="#FFFFFF" fill-rule="nonzero"></path>
            <path d="M136.639241,156.294 L139.237241,156.294 C139.104241,157.996 138.057241,159.066 136.095241,159.502 C137.176241,159.817 137.739241,160.568 137.739241,161.722 C137.739241,163.546 137.729241,165.722 137.739241,167.507 C137.739241,170.493 137.033241,170.799 134.709241,170.901 C133.159241,170.969 130.729241,170.969 127.420241,170.901 L127.420241,169.263 L128.933241,169.263 L128.933241,166.306 C129.087241,164.665 131.869241,162.581 131.869241,160.542 C131.869241,158.504 129.464241,157.386 128.185241,158.803 C129.257241,158.864 130.157241,159.808 130.237241,161.17 C130.237241,162.591 129.194241,163.334 127.987241,163.334 C126.778241,163.334 125.475241,162.517 125.475241,160.849 C125.475241,159.182 126.215241,158.132 127.420241,157.377 C128.625241,156.622 132.735241,156.196 133.670241,159.502 C134.603241,162.808 131.180241,164.646 131.180241,166.568 L131.180241,169.263 L134.336241,169.263 C135.262241,169.263 135.515241,168.506 135.515241,167.103 C135.515241,166.178 135.515241,163.141 135.337241,161.17 C135.250241,160.207 134.417241,159.917 134.125241,159.917 C133.945241,159.407 133.939241,159.306 133.828241,158.925 C135.508241,158.771 136.444241,157.894 136.638241,156.294 L136.639241,156.294 Z M127.894241,160.084 C127.403241,160.084 126.989241,160.48 126.989241,161.117 C126.989241,161.754 127.464241,162.15 127.894241,162.15 C128.324241,162.15 128.964241,161.8 128.964241,161.092 C128.964241,160.384 128.386241,160.084 127.894241,160.084 Z M150.329241,157.023 L152.523241,157.023 L152.523241,165.303 C152.523241,165.855 151.706241,166.19 151.341241,166.343 C152.572241,166.914 152.994241,167.637 152.994241,168.733 C152.994241,169.828 151.980241,171.113 150.634241,171.113 C149.289241,171.113 148.650241,170.018 148.472241,169.209 C148.295241,168.399 148.517241,167.623 148.752241,167.444 C147.319241,167.621 145.968241,169.651 145.694241,170.874 L143.587241,170.894 L143.587241,161.539 C141.675241,161.639 140.719241,160.906 140.719241,159.339 C140.719241,156.989 142.779241,156.88 143.323241,156.88 C143.866241,156.88 145.336241,157.215 145.694241,159.01 C145.771241,160.975 145.694241,167.573 145.694241,168.055 C146.220241,167.283 147.122241,166.284 148.244241,166.035 C149.366241,165.785 150.022241,165.645 150.329241,165.029 C150.346241,163.774 150.346241,161.105 150.329241,157.023 Z M150.629241,167.613 C150.174241,167.613 149.650241,168.071 149.650241,168.697 C149.650241,169.323 150.176241,169.781 150.630241,169.781 C151.083241,169.781 151.724241,169.438 151.724241,168.625 C151.724241,167.811 151.085241,167.613 150.630241,167.613 L150.629241,167.613 Z M142.819241,158.219 C142.216241,158.219 141.989241,158.729 141.989241,159.277 C141.989241,159.825 142.427241,160.337 142.956241,160.337 C143.486241,160.337 143.954241,159.796 143.954241,159.188 C143.954241,158.58 143.422241,158.218 142.819241,158.218 L142.819241,158.219 Z M163.540241,158.199 L165.469241,158.513 C164.591241,161.709 162.445241,163.094 159.030241,162.669 C153.908241,162.032 155.798241,157.534 157.773241,157.709 C159.747241,157.886 160.200241,159.025 160.200241,159.772 C160.200241,160.519 160.125241,160.797 159.223241,161.47 C161.754241,161.85 163.193241,160.76 163.540241,158.199 Z M157.882241,158.808 C157.340241,158.808 156.917241,159.334 156.917241,159.855 C156.917241,160.377 157.393241,160.903 157.882241,160.903 C158.371241,160.903 158.990241,160.543 158.990241,159.829 C158.990241,159.114 158.424241,158.808 157.882241,158.808 Z M163.540241,165.542 L165.469241,165.856 C164.591241,169.052 162.445241,170.437 159.030241,170.012 C153.908241,169.375 155.798241,164.877 157.773241,165.052 C159.747241,165.229 160.200241,166.368 160.200241,167.115 C160.200241,167.862 160.125241,168.14 159.223241,168.813 C161.754241,169.193 163.193241,168.103 163.540241,165.542 Z M157.882241,166.151 C157.340241,166.151 156.917241,166.676 156.917241,167.198 C156.917241,167.72 157.393241,168.246 157.882241,168.246 C158.371241,168.246 158.990241,167.886 158.990241,167.172 C158.990241,166.457 158.424241,166.151 157.882241,166.151 Z" id="Shape" fill="#FFFFFF" fill-rule="nonzero"></path>
            <path d="M17.9202409,17.279 C17.9202409,17.359 17.9392409,17.436 17.9752409,17.509 C18.0844341,17.7283838 18.3043917,17.8709348 18.5492409,17.881 C18.7080969,17.8811287 18.8609422,17.820277 18.9762409,17.711 C19.0345435,17.6567394 19.0820466,17.5919316 19.1162409,17.52 C19.1822894,17.3657688 19.184089,17.1915628 19.1212409,17.036 C19.0911458,16.9628924 19.0461969,16.8968311 18.9892409,16.842 C18.7470475,16.6065098 18.3614343,16.6065098 18.1192409,16.842 C18.0593047,16.8968884 18.0104256,16.9627393 17.9752409,17.036 C17.9384933,17.1117027 17.9196736,17.1948515 17.9202409,17.279 Z M20.3432409,21.775 L20.3432409,16.547 C20.3432409,16.091 20.2102409,15.737 19.9432409,15.486 C19.6482409,15.201 19.1762409,15.059 18.5272409,15.059 C18.2762409,15.059 18.0392409,15.101 17.8172409,15.185 C17.5942409,15.269 17.4012409,15.375 17.2372409,15.502 C17.0663647,15.6757842 16.930558,15.8808522 16.8372409,16.106 C16.7342701,16.3491981 16.6822002,16.6109089 16.6842409,16.875 C16.6842409,17.039 16.6932409,17.199 16.7092409,17.355 C16.7252409,17.513 16.7522409,17.665 16.7892409,17.815 L16.9852409,18.718 L16.9852409,18.712 C17.0732409,19.095 17.1352409,19.44 17.1712409,19.746 C17.3763284,19.428499 17.5877034,19.1151038 17.8052409,18.806 C17.8310757,18.7694513 17.8567426,18.7327843 17.8822409,18.696 C17.9029999,18.6641377 17.9250173,18.6331132 17.9482409,18.603 C17.8391803,18.5632608 17.7351405,18.5109053 17.6382409,18.447 C17.5315746,18.3751584 17.4303046,18.295613 17.3352409,18.209 L17.3352409,18.215 C17.1092409,18.01 16.9962409,17.69 16.9962409,17.252 C16.9962409,17.048 17.0292409,16.86 17.0952409,16.689 C17.3572409,16.058 17.8472409,15.743 18.5652409,15.743 C19.1382409,15.743 19.5542409,15.945 19.8132409,16.35 C20.0092409,16.667 20.1082409,17.002 20.1082409,17.356 C20.1082409,17.622 19.9482409,18.005 19.6272409,18.504 L19.2932409,18.991 L18.5332409,20.107 L18.5332409,20.101 C18.4382409,20.24 18.3272409,20.409 18.1992409,20.61 C18.0146456,20.9012907 17.8306452,21.1929579 17.6472409,21.485 C17.6376289,21.5009886 17.6286226,21.5173335 17.6202409,21.534 C17.5991181,21.5779832 17.5743658,21.6201291 17.5462409,21.66 C17.5196342,21.698375 17.4929675,21.7367084 17.4662409,21.775 L15.6672409,21.775 L15.6672409,21.712 L15.6702409,21.6 L15.6732409,21.485 L15.6732409,21.408 C15.6763712,21.3807756 15.6780403,21.353403 15.6782409,21.326 L15.6782409,21.266 C15.6782409,21.051 15.6682409,20.82 15.6482409,20.574 C15.6282409,20.328 15.5962409,20.063 15.5522409,19.779 L15.5582409,19.795 C15.4859546,19.4986971 15.4166178,19.2016824 15.3502409,18.904 C15.2702409,18.546 15.1802409,18.127 15.0822409,17.646 C15.0246064,17.3765497 14.9971042,17.1015274 15.0002409,16.826 C15.0002409,16.348 15.0882409,15.922 15.2652409,15.549 C15.4422409,15.175 15.7072409,14.851 16.0612409,14.578 C16.3952857,14.3272776 16.7710867,14.1376843 17.1712409,14.018 C17.5832409,13.891 18.0412409,13.828 18.5442409,13.828 C19.6892409,13.828 20.5512409,14.071 21.1302409,14.556 C21.7002409,15.037 21.9842409,15.723 21.9842409,16.612 L21.9842409,21.775 L20.3432409,21.775 Z M21.3112409,12.5 C20.9682409,12.438 20.6002409,12.39 20.2062409,12.357 C19.2822435,12.2839445 18.353576,12.2933149 17.4312409,12.385 C16.9012409,12.435 16.3292409,12.512 15.7162409,12.615 L15.9962409,11.652 C16.5092409,10.409 17.4832409,9.787 18.9162409,9.787 C19.5572409,9.787 20.1192409,9.917 20.6002409,10.175 C21.0812409,10.435 21.4822409,10.815 21.8032409,11.318 C21.9312409,11.518 22.0362409,11.735 22.1202409,11.966 C22.2042409,12.198 22.2662409,12.438 22.3062409,12.686 L21.3112409,12.5 Z M18.7082409,10.591 C18.3282409,10.591 18.0182409,10.668 17.7782409,10.821 C17.5265798,10.9857 17.3183581,11.2086721 17.1712409,11.471 C17.5322409,11.453 17.8612409,11.432 18.1582409,11.409 C18.7168754,11.3591435 19.2789133,11.3608173 19.8372409,11.414 C20.1422409,11.441 20.4802409,11.486 20.8522409,11.548 C20.2972409,10.91 19.5822409,10.591 18.7082409,10.591 Z M25.8722409,19.041 C25.8097936,19.0554758 25.7467307,19.0671541 25.6832409,19.076 C25.4183497,19.1136422 25.1482099,19.0765846 24.9032409,18.969 C24.7263604,18.8922283 24.5660628,18.7818539 24.4312409,18.644 C24.2974117,18.5060078 24.1899742,18.3446822 24.1142409,18.168 C24.0361221,17.9895452 23.9959393,17.796804 23.9962409,17.602 C23.9962409,16.88 24.3632409,16.401 25.0962409,16.164 C25.2232409,16.124 25.3542409,16.098 25.4892409,16.087 C25.6242409,16.077 25.7572409,16.079 25.8892409,16.095 C26.0192409,16.112 26.1452409,16.144 26.2662409,16.191 C26.3862409,16.238 26.4972409,16.302 26.5992409,16.382 C26.7092409,16.455 26.8062409,16.539 26.8922409,16.634 C27.0552961,16.8140356 27.18075,17.0248254 27.2612409,17.254 C27.2972409,17.362 27.3192409,17.462 27.3272409,17.553 L27.5672409,20.523 C27.5932409,20.617 27.6462409,20.665 27.7262409,20.665 C27.7882409,20.665 27.8272409,20.655 27.8432409,20.637 C27.8602409,20.619 27.8722409,20.587 27.8792409,20.539 L28.1522409,16.667 C28.1559101,16.6435041 28.1579151,16.6197784 28.1582409,16.596 L28.1582409,16.525 C28.1582409,16.317 28.1322409,16.124 28.0812409,15.945 C28.0323376,15.7699691 27.9401742,15.6100588 27.8132409,15.48 C27.6678974,15.3379024 27.4911228,15.2320432 27.2972409,15.171 C27.0305024,15.0890601 26.7521731,15.0512289 26.4732409,15.059 C25.8902409,15.059 25.4222409,15.183 25.0682409,15.431 L25.0732409,15.425 C24.8990345,15.5421473 24.7481353,15.6906728 24.6282409,15.863 C24.5682409,15.947 24.5102409,16.033 24.4552409,16.12 L24.2912409,16.382 L23.3562409,15.661 C23.4291117,15.3740043 23.574017,15.1103525 23.7772409,14.895 L23.7772409,14.9 C23.9202409,14.74 24.0752409,14.594 24.2452409,14.463 C24.4152409,14.332 24.6082409,14.219 24.8252409,14.123 C25.0422409,14.029 25.2892409,13.956 25.5652409,13.905 C25.8432409,13.855 26.1582409,13.829 26.5122409,13.829 C28.0362409,13.829 29.0522409,14.309 29.5632409,15.272 C29.7641924,15.6470562 29.8478076,16.0738423 29.8032409,16.497 L29.4592409,20.369 C29.4592409,20.497 29.4362409,20.643 29.3892409,20.807 C29.3412409,20.971 29.2692409,21.127 29.1722409,21.274 C29.0762409,21.422 28.9522409,21.55 28.8032409,21.657 C28.6532409,21.765 28.4752409,21.827 28.2672409,21.846 C28.1048047,21.8595049 27.9424672,21.874172 27.7802409,21.89 C27.7496434,21.8927591 27.7189572,21.8944268 27.6882409,21.895 L27.6442409,21.895 C27.2322409,21.895 26.8822409,21.795 26.5942409,21.595 L26.5992409,21.595 C26.2392409,21.354 26.0562409,21.06 26.0522409,20.714 L25.8722409,19.04 L25.8722409,19.041 Z M26.1292409,17.575 C26.129629,17.493433 26.1107862,17.412923 26.0742409,17.34 C26.0383171,17.2675094 25.9891362,17.2023871 25.9292409,17.148 C25.8687161,17.0931741 25.7994207,17.0488926 25.7242409,17.017 C25.6518062,16.9847617 25.5735223,16.9677434 25.4942409,16.967 C25.2472041,16.9563473 25.0252789,17.1169946 24.9582409,17.355 C24.9360756,17.4354317 24.925304,17.5185753 24.9262409,17.602 C24.9262409,17.7 24.9422409,17.787 24.9752409,17.862 C25.0347159,18.0005402 25.1497879,18.1076261 25.2922409,18.157 C25.4348656,18.206767 25.5903081,18.2057072 25.7322409,18.154 C25.8062506,18.1291829 25.8743388,18.0893514 25.9322409,18.037 C25.9918566,17.9822874 26.0401087,17.9163654 26.0742409,17.843 C26.1123985,17.7589081 26.1311939,17.6673236 26.1292409,17.575 Z M29.2242409,12.527 C28.8822409,12.465 28.5142409,12.417 28.1202409,12.385 C27.1959416,12.3115527 26.2669368,12.3205884 25.3442409,12.412 C24.8142409,12.463 24.2422409,12.54 23.6302409,12.642 L23.9092409,11.679 C24.4232409,10.436 25.3962409,9.815 26.8292409,9.815 C27.4712409,9.815 28.0322409,9.944 28.5132409,10.203 C28.9952409,10.462 29.3962409,10.843 29.7162409,11.346 C29.8442409,11.546 29.9502409,11.762 30.0342409,11.994 C30.1172409,12.225 30.1792409,12.465 30.2202409,12.713 L29.2242409,12.527 Z M26.6212409,10.618 C26.2422409,10.618 25.9322409,10.695 25.6912409,10.848 C25.4395798,11.0127 25.2313581,11.2356721 25.0842409,11.498 C25.4452409,11.481 25.7742409,11.46 26.0722409,11.436 C26.6308754,11.3861435 27.1929133,11.3878173 27.7512409,11.441 C28.0552409,11.469 28.3932409,11.513 28.7652409,11.575 C28.2112409,10.937 27.4962409,10.618 26.6212409,10.618 Z M34.1792409,17.488 C34.1792409,17.571 34.1992409,17.648 34.2362409,17.717 C34.2752409,17.787 34.3222409,17.847 34.3792409,17.897 C34.4352409,17.948 34.4992409,17.988 34.5692409,18.017 C34.7072552,18.0774005 34.8642267,18.0774005 35.0022409,18.017 C35.1408274,17.9606538 35.2525053,17.8532712 35.3142409,17.717 C35.3457551,17.6444767 35.3614374,17.5660655 35.3602409,17.487 C35.3602409,17.115 35.1652409,16.929 34.7752409,16.929 C34.6971302,16.9287213 34.6198192,16.9447284 34.5482409,16.976 C34.4786608,17.0058718 34.4147307,17.0474771 34.3592409,17.099 C34.3052874,17.1497964 34.2612105,17.2101479 34.2292409,17.277 C34.1967119,17.3422472 34.1796054,17.4140946 34.1792409,17.487 L34.1792409,17.488 Z M36.5692409,21.775 L36.5692409,16.547 C36.5692409,16.317 36.5382409,16.113 36.4762409,15.934 C36.422959,15.7702232 36.3330094,15.6207632 36.2132409,15.497 L36.1532409,15.453 L35.9892409,15.343 L35.9842409,15.343 C35.9872409,15.343 35.9542409,15.363 35.8852409,15.401 C35.7881576,15.4534213 35.6897943,15.5034366 35.5902409,15.551 C35.4465862,15.6273158 35.2954561,15.6886391 35.1392409,15.734 C35.0051386,15.7739467 34.8661543,15.7951477 34.7262409,15.797 C34.4862409,15.797 34.2212409,15.715 33.9332409,15.551 C33.7182409,15.431 33.6102409,15.367 33.6102409,15.36 C33.5447714,15.3856087 33.4823813,15.4184809 33.4242409,15.458 C33.3474052,15.506401 33.2791428,15.5672288 33.2222409,15.638 C33.0142409,15.901 32.9102409,16.313 32.9102409,16.875 C32.9102409,17.039 32.9182409,17.199 32.9352409,17.355 C32.9512409,17.513 32.9782409,17.665 33.0152409,17.815 L33.2112409,18.718 L33.2112409,18.712 C33.2552409,18.909 33.2932409,19.093 33.3262409,19.265 C33.3592409,19.435 33.3842409,19.6 33.4022409,19.757 L33.5522409,19.552 C33.6022409,19.484 33.6582409,19.414 33.7202409,19.342 L34.1302409,18.832 C34.0492986,18.8081459 33.9719369,18.7735013 33.9002409,18.729 C33.8266097,18.681872 33.7570354,18.6286879 33.6922409,18.57 L33.6982409,18.57 C33.3870946,18.2925835 33.2131313,17.8927601 33.2222409,17.476 C33.2222409,16.94 33.4462409,16.525 33.8952409,16.229 C34.1532409,16.062 34.4452409,15.978 34.7702409,15.978 L34.8902409,15.978 L35.4372409,16.054 C35.6592409,16.12 35.8572409,16.291 36.0332409,16.568 C36.2332409,16.893 36.3332409,17.226 36.3332409,17.569 C36.3332409,17.872 36.1592409,18.275 35.8092409,18.778 C35.5184032,19.1592566 35.2250635,19.5385981 34.9292409,19.916 C34.8882409,19.966 34.8392409,20.032 34.7802409,20.112 C34.7222409,20.192 34.6572409,20.285 34.5842409,20.392 L34.1842409,20.96 C34.0342409,21.175 33.8762409,21.447 33.7092409,21.775 L31.8932409,21.775 L31.8932409,21.712 C31.8932409,21.677 31.8932409,21.64 31.8962409,21.6 C31.8982409,21.56 31.8982409,21.521 31.8982409,21.485 L31.8982409,21.408 C31.9017055,21.3807936 31.9037084,21.3534209 31.9042409,21.326 L31.9042409,21.266 C31.9042409,21.051 31.8942409,20.82 31.8742409,20.574 C31.8542409,20.328 31.8222409,20.063 31.7782409,19.779 L31.7842409,19.795 C31.7119547,19.4986971 31.6426179,19.2016824 31.5762409,18.904 C31.4829754,18.485514 31.3936381,18.0661622 31.3082409,17.646 C31.2506064,17.3765497 31.2231042,17.1015274 31.2262409,16.826 C31.2262409,16.399 31.3162409,15.974 31.4942409,15.551 C31.6912409,15.096 31.9512409,14.74 32.2762409,14.485 C32.5202409,14.303 32.7562409,14.158 32.9842409,14.05 C33.2122409,13.943 33.4342409,13.874 33.6482409,13.845 L33.6432409,13.85 C33.8002409,13.825 34.0292409,13.947 34.3332409,14.217 L34.3272409,14.217 C34.5532409,14.41 34.7152409,14.507 34.8132409,14.507 C34.9372409,14.507 35.1132409,14.412 35.3382409,14.222 C35.6452409,13.971 35.8602409,13.845 35.9842409,13.845 C36.1002409,13.845 36.2222409,13.86 36.3502409,13.891 C36.4887892,13.9258039 36.6229705,13.9761218 36.7502409,14.041 C36.8732409,14.107 36.9902409,14.183 37.1022409,14.269 C37.2132409,14.354 37.3182409,14.454 37.4162409,14.567 C37.5622409,14.731 37.6842409,14.893 37.7832409,15.054 C37.8812409,15.214 37.9612409,15.371 38.0232409,15.524 C38.1472409,15.852 38.2092409,16.214 38.2092409,16.612 L38.2092409,21.775 L36.5692409,21.775 Z M42.9622409,20.358 C42.9638543,20.2059259 42.9048401,20.05947 42.7982409,19.951 C42.6914479,19.8421452 42.5457287,19.7802595 42.3932409,19.779 C42.321956,19.778563 42.251623,19.7953743 42.1882409,19.828 C42.1240419,19.8609062 42.0664221,19.9053074 42.0182409,19.959 C41.9690758,20.0139922 41.9295227,20.0768715 41.9012409,20.145 C41.8417327,20.282852 41.8417327,20.439148 41.9012409,20.577 C41.9560349,20.7103298 42.0582812,20.8186325 42.1882409,20.881 C42.3964462,20.9712796 42.6387236,20.9244128 42.7982409,20.763 C42.906488,20.6564385 42.9658455,20.5098545 42.9622409,20.358 Z M46.1772409,14.972 C46.261829,15.1080858 46.3350761,15.2509009 46.3962409,15.399 L46.3962409,15.393 C46.5352409,15.746 46.6042409,16.109 46.6042409,16.481 L46.6042409,21.775 L44.9642409,21.775 L44.9642409,20.889 C44.9642409,20.284 44.7632409,19.574 44.3622409,18.761 C43.8702409,17.77 43.3572409,17.274 42.8252409,17.274 C42.5152409,17.274 42.3042409,17.454 42.1912409,17.815 L42.1912409,17.81 C42.1561461,17.9143809 42.1329983,18.022404 42.1222409,18.132 C42.1102409,18.252 42.1032409,18.39 42.1032409,18.542 L42.1032409,18.704 C42.1032409,18.764 42.1072409,18.824 42.1142409,18.882 C42.2081359,18.8668223 42.3031286,18.8594637 42.3982409,18.86 C42.8212409,18.86 43.1772409,19.006 43.4652409,19.297 L43.4592409,19.297 C43.7512409,19.589 43.8972409,19.943 43.8972409,20.358 C43.8972409,20.515 43.8702409,20.67 43.8152409,20.823 C43.758389,20.9801385 43.6810551,21.1290902 43.5852409,21.266 C43.3552409,21.583 43.0802409,21.767 42.7592409,21.818 C42.5522409,21.84 42.4002409,21.851 42.3052409,21.851 C41.7952409,21.851 41.3632409,21.669 41.0092409,21.304 L41.0152409,21.304 C40.6352409,20.925 40.4462409,20.224 40.4462409,19.199 C40.4462409,18.656 40.4942409,18.187 40.5882409,17.793 C40.6832409,17.4 40.8182409,17.083 40.9932409,16.842 C41.2012409,16.576 41.4412409,16.373 41.7152409,16.235 C41.9970591,16.0944432 42.3083397,16.0231367 42.6232409,16.027 C42.9952409,16.027 43.3882409,16.125 43.8032409,16.322 C44.2162409,16.522 44.6032409,16.898 44.9632409,17.449 L44.9632409,16.678 C44.9632409,16.426 44.9432409,16.209 44.9002409,16.027 C44.8677506,15.8675497 44.8056803,15.7155961 44.7172409,15.579 L44.7172409,15.584 C44.4772409,15.234 43.9972409,15.059 43.2792409,15.059 C42.6092409,15.059 42.0892409,15.176 41.7202409,15.409 C41.3562409,15.628 41.0932409,15.963 40.9332409,16.415 L39.8662409,15.579 L40.4632409,14.84 C40.798635,14.5013307 41.2100399,14.247631 41.6632409,14.1 C41.8252409,14.043 42.0012409,13.99 42.1912409,13.943 C42.5590922,13.8629578 42.9348064,13.8247154 43.3112409,13.829 C43.6542409,13.829 43.9652409,13.849 44.2442409,13.891 C44.5242409,13.933 44.7762409,13.998 45.0022409,14.086 C45.0822409,14.013 45.1552409,13.936 45.2202409,13.856 C45.3152409,13.728 45.3632409,13.473 45.3632409,13.09 L47.0912409,13.528 C47.0912409,14.111 46.8352409,14.563 46.3252409,14.884 L46.1772409,14.972 Z M43.3772409,23.12 C43.0822409,23.12 42.9022409,23.25 42.8362409,23.508 C42.8462409,23.913 43.0272409,24.115 43.3772409,24.115 C43.7092409,24.115 43.8752409,23.949 43.8752409,23.618 C43.8752409,23.454 43.8372409,23.33 43.7602409,23.246 C43.6842409,23.162 43.5562409,23.12 43.3772409,23.12 Z M43.2952409,25.707 L43.2952409,24.782 L43.2852409,24.782 C42.9492409,24.782 42.6342409,24.649 42.3382409,24.383 C42.2413199,24.2918839 42.1667198,24.1796416 42.1202409,24.055 C42.0672132,23.9134163 42.0410986,23.7631731 42.0432409,23.612 C42.0432409,23.292 42.1582409,23.011 42.3882409,22.77 C42.6352409,22.511 42.9692409,22.382 43.3882409,22.382 C44.0662409,22.382 44.5022409,22.639 44.6952409,23.152 C44.7282409,23.248 44.7542409,23.359 44.7722409,23.486 C44.7902409,23.614 44.7992409,23.76 44.7992409,23.924 L44.7992409,24.58 L45.2752409,24.58 L45.2752409,22.514 L46.7632409,22.514 L46.7632409,25.708 L43.2952409,25.708 L43.2952409,25.707 Z M50.8862409,18.822 C50.9702409,18.92 51.0662409,19.035 51.1762409,19.166 C51.2862409,19.297 51.4062409,19.449 51.5362409,19.62 L51.5362409,16.83 C51.4835931,16.8342441 51.4309258,16.8382442 51.3782409,16.842 C50.9582409,16.842 50.6052409,16.703 50.3182409,16.426 C50.0279879,16.1548347 49.8665849,15.7731383 49.8742409,15.376 C49.8742409,15.044 49.9822409,14.736 50.1972409,14.452 L50.1912409,14.457 C50.3042409,14.293 50.4312409,14.167 50.5692409,14.077 C50.7085413,13.9874937 50.8653893,13.9288462 51.0292409,13.905 C51.2392409,13.883 51.3962409,13.872 51.4992409,13.872 C52.0232409,13.872 52.4392409,14.047 52.7452409,14.397 C53.0332409,14.729 53.1772409,15.132 53.1772409,15.606 L53.1772409,21.775 L51.2632409,21.775 C51.2264531,21.7021878 51.1881109,21.6301713 51.1482409,21.559 C51.0929449,21.4600143 51.0382771,21.360679 50.9842409,21.261 C50.9662409,21.228 50.9242409,21.161 50.8592409,21.061 C50.7932409,20.961 50.7022409,20.827 50.5852409,20.659 C50.5302979,20.5685849 50.4736208,20.479235 50.4152409,20.391 C50.3462409,20.285 50.2612409,20.158 50.1592409,20.008 C49.8614336,19.6163594 49.5457666,19.2386268 49.2132409,18.876 L48.7482409,18.416 L48.7262409,18.39 L48.7262409,18.395 C48.4412409,18.122 48.2542409,17.959 48.1632409,17.908 L47.7142409,17.635 L48.2282409,16.815 C48.5312409,16.815 49.1082409,17.192 49.9622409,17.947 C50.2805619,18.2275708 50.5887585,18.5194236 50.8862409,18.822 Z M50.8092409,15.382 C50.8092409,15.458 50.8252409,15.528 50.8562409,15.592 C50.8862409,15.656 50.9282409,15.712 50.9792409,15.762 C51.0318678,15.812274 51.0941144,15.8513907 51.1622409,15.877 C51.2331232,15.9039737 51.3084017,15.9175373 51.3842409,15.917 C51.4532409,15.917 51.5202409,15.901 51.5862409,15.868 C51.6509426,15.8360584 51.7100416,15.7938448 51.7612409,15.743 C51.8113235,15.6930227 51.8519751,15.6344167 51.8812409,15.57 C51.9093072,15.5112445 51.9243178,15.4471082 51.9252409,15.382 C51.9253475,15.3094892 51.9096499,15.2378264 51.8792409,15.172 C51.8179698,15.0375061 51.7124344,14.9280882 51.5802409,14.862 C51.5196319,14.8305812 51.4525048,14.8137995 51.3842409,14.813 C51.2318909,14.8100218 51.0848186,14.8688162 50.9765067,14.9759979 C50.8681948,15.0831796 50.8078609,15.2296272 50.8092409,15.382 Z M59.9372409,21.775 L59.9372409,16.612 C59.9372409,16.138 59.8372409,15.774 59.6362409,15.518 L59.6412409,15.524 C59.3862409,15.214 58.9142409,15.059 58.2252409,15.059 C57.9861878,15.058579 57.7479047,15.086099 57.5152409,15.141 C57.4237387,15.1652061 57.3338868,15.195268 57.2462409,15.231 C57.1453159,15.2722982 57.0482665,15.3224962 56.9562409,15.381 C56.8607576,15.4390204 56.7660819,15.4983594 56.6722409,15.559 C56.6028287,15.6020264 56.5369538,15.6505131 56.4752409,15.704 L56.4652409,15.715 C56.7412409,15.755 57.0252409,15.799 57.3172409,15.847 C57.6092409,15.894 57.8802409,15.936 58.1322409,15.972 L57.9952409,16.946 C57.6712409,16.946 57.4592409,16.995 57.3612409,17.093 C57.1822409,17.239 57.0932409,17.456 57.0932409,17.744 L57.0932409,21.774 L55.4582409,21.774 L55.4582409,17.744 C55.4582409,17.401 55.5402409,17.123 55.7042409,16.907 C55.7552409,16.846 55.8022409,16.794 55.8462409,16.754 L54.7582409,16.618 L54.8622409,15.502 C55.0662409,15.418 55.2612409,15.272 55.4472409,15.065 C55.7502409,14.736 56.1272409,14.45 56.5792409,14.205 C56.8192409,14.082 57.0762409,13.988 57.3472409,13.925 C57.6192409,13.86 57.9112409,13.829 58.2252409,13.829 C58.9722409,13.829 59.5792409,13.927 60.0462409,14.124 L60.0412409,14.124 C60.3230161,14.2468945 60.5817349,14.4170063 60.8062409,14.627 L60.8012409,14.627 C61.0927735,14.9018635 61.316337,15.2408036 61.4542409,15.617 C61.4892409,15.712 61.5142409,15.805 61.5282409,15.896 C61.5612409,16.104 61.5782409,16.33 61.5782409,16.574 L61.5782409,21.774 L59.9372409,21.774 L59.9372409,21.775 Z M67.0952409,20.976 C67.4852409,20.976 67.6802409,20.778 67.6802409,20.38 C67.6819373,20.1414817 67.5410292,19.9250028 67.3222409,19.83 C67.1766462,19.7665176 67.0109877,19.7676075 66.8662409,19.833 C66.7943637,19.8653364 66.7287052,19.9100113 66.6722409,19.965 C66.6162872,20.0188017 66.5708454,20.0825558 66.5382409,20.153 C66.4725284,20.29999 66.4725284,20.46801 66.5382409,20.615 C66.6352256,20.8357095 66.8541681,20.9776093 67.0952409,20.976 Z M68.9052409,20.145 C68.9052409,20.378 68.8632409,20.6 68.7772409,20.809 C68.6893227,21.0218691 68.5640136,21.2172836 68.4072409,21.386 C68.2614505,21.5450143 68.0839746,21.6717342 67.8862409,21.758 C67.6844757,21.8433418 67.4673013,21.886232 67.2482409,21.884 C67.2012409,21.884 67.1532409,21.882 67.1042409,21.879 C67.0495415,21.8743016 66.995344,21.8649341 66.9422409,21.851 C66.7591438,21.8336395 66.5809981,21.7817228 66.4172409,21.698 C66.2558308,21.6159382 66.1083563,21.5089602 65.9802409,21.381 C65.7239585,21.1115253 65.5826467,20.7528661 65.5862409,20.381 C65.5783273,19.9840152 65.7393568,19.6023425 66.0292409,19.331 C66.3109058,19.0521102 66.692906,18.8982289 67.0892409,18.904 L67.1772409,18.904 C67.2102409,18.904 67.2392409,18.905 67.2652409,18.909 L67.2652409,16.678 C67.2652409,16.146 67.1972409,15.775 67.0632409,15.568 C66.8332409,15.228 66.4262409,15.059 65.8432409,15.059 C65.2452409,15.059 64.7712409,15.223 64.4212409,15.551 C64.2062409,15.755 64.0212409,16.098 63.8692409,16.579 L62.8242409,15.907 C63.0472409,15.291 63.3782409,14.795 63.8202409,14.419 C64.2832409,14.025 64.9702409,13.829 65.8812409,13.829 C66.7892409,13.829 67.5212409,14.053 68.0802409,14.501 C68.6302409,14.946 68.9052409,15.606 68.9052409,16.481 L68.9052409,20.144 L68.9052409,20.145 Z M67.4352409,10.066 L68.8842409,10.066 L68.8842409,12.696 L67.4342409,12.696 L67.4342409,10.066 L67.4352409,10.066 Z M76.0152409,21.775 L74.3632409,21.775 L74.3632409,16.678 C74.3632409,16.135 74.2962409,15.766 74.1612409,15.573 C73.9282409,15.23 73.5212409,15.059 72.9412409,15.059 C72.3332409,15.059 71.8572409,15.225 71.5142409,15.557 C71.2952409,15.765 71.1262409,16.104 71.0052409,16.574 L69.9122409,15.907 C70.0142409,15.6 70.1452409,15.329 70.3052409,15.092 C70.4652409,14.855 70.6552409,14.645 70.8752409,14.463 C71.3812409,14.04 72.0882409,13.829 72.9962409,13.829 C73.8892409,13.829 74.6152409,14.053 75.1732409,14.501 C75.7342409,14.95 76.0152409,15.61 76.0152409,16.481 L76.0152409,21.775 Z" id="Shape" fill="#000000" fill-rule="nonzero"></path>
        </g>
    </g>
</svg>