<svg width="299" height="197" xmlns="http://www.w3.org/2000/svg"><g fill="none" fill-rule="evenodd"><path fill="#F1F1F2" d="M0 0h299v197H0z"/><path d="M1.987 1.98v193.04h295.026V1.98H1.987zM299 0v197H0V0h299z" fill="#C2C2C2" fill-rule="nonzero"/><path d="M4.58 54.993v-1.212h290.408v1.212H4.58zm0 20.08V73.86h290.408v1.212H4.58zm0 60.274v-1.212h290.408v1.212H4.58z" fill="#DEDEDD" fill-rule="nonzero"/><path d="M4.58 155.425v-1.212h3.598v1.212H4.58zm7.196 0v-1.212h3.598v1.212h-3.598zm7.196 0v-1.212h3.598v1.212h-3.598zm7.197 0v-1.212h3.598v1.212h-3.598zm7.196 0v-1.212h3.598v1.212h-3.598zm7.196 0v-1.212h3.598v1.212h-3.598zm7.197 0v-1.212h3.598v1.212h-3.598zm7.196 0v-1.212h3.598v1.212h-3.598zm7.196 0v-1.212h3.598v1.212H62.15zm7.196 0v-1.212h3.599v1.212h-3.599zm7.197 0v-1.212h3.598v1.212h-3.598zm7.196 0v-1.212h3.598v1.212H83.74zm7.196 0v-1.212h3.599v1.212h-3.599zm7.197 0v-1.212h3.598v1.212h-3.598zm7.196 0v-1.212h3.598v1.212h-3.598zm7.196 0v-1.212h3.599v1.212h-3.599zm7.197 0v-1.212h3.598v1.212h-3.598zm7.196 0v-1.212h3.598v1.212h-3.598zm7.196 0v-1.212h3.599v1.212h-3.599zm7.197 0v-1.212h3.598v1.212h-3.598zm7.196 0v-1.212h3.598v1.212h-3.598zm7.196 0v-1.212h3.598v1.212h-3.598zm7.197 0v-1.212h3.598v1.212h-3.598zm7.196 0v-1.212h3.598v1.212h-3.598zm7.196 0v-1.212h3.598v1.212h-3.598zm7.197 0v-1.212h3.598v1.212h-3.598zm7.196 0v-1.212h3.598v1.212h-3.598zm7.196 0v-1.212h3.598v1.212h-3.598zm7.197 0v-1.212h3.598v1.212h-3.598zm7.196 0v-1.212h3.598v1.212h-3.598zm7.196 0v-1.212h3.598v1.212h-3.598zm7.196 0v-1.212h3.599v1.212h-3.599zm7.197 0v-1.212h3.598v1.212h-3.598zm7.196 0v-1.212h3.598v1.212h-3.598zm7.196 0v-1.212h3.599v1.212h-3.599zm7.197 0v-1.212h3.598v1.212h-3.598zm7.196 0v-1.212h3.598v1.212h-3.598zm7.196 0v-1.212h3.599v1.212h-3.599zm7.197 0v-1.212h3.598v1.212h-3.598zm7.196 0v-1.212h3.598v1.212h-3.598zm7.196 0v-1.212h2.556v1.212h-2.556z" fill="#293052" fill-rule="nonzero"/><path d="M4.58 175.504v-1.212h290.408v1.212H4.58zM39.059 34.308h1.212V192.59h-1.212V34.308zm36.75 0h1.212V192.59H75.81V34.308zm36.75 0h1.213V192.59h-1.212V34.308zm36.713 0h1.212V192.59h-1.212V34.308zm36.751 0h1.212V192.59h-1.212V34.308zm36.75 0h1.213V192.59h-1.213V34.308zm36.751 0h1.212V192.59h-1.212V34.308zM4.58 115.268v-1.212h290.408v1.212H4.58zm0-20.08v-1.211h290.408v1.212H4.58z" fill="#DEDEDD" fill-rule="nonzero"/><path fill="#C2C2C2" fill-rule="nonzero" d="M2.498 34.308v-2.424h294.61v2.424z"/><path d="M190.555 84.764a1.8 1.8 0 0 1 2.7.685l32.057 68.609a1.8 1.8 0 1 1-3.26 1.523l-31.126-66.616-40.66 30.06a1.8 1.8 0 0 1-2.095.032l-41.895-29.075-28.651 26.012a1.8 1.8 0 0 1-2.363.049l-36.75-30.687a1.8 1.8 0 1 1 2.306-2.762l35.548 29.683 28.55-25.921a1.8 1.8 0 0 1 2.236-.146l42.012 29.156 41.391-30.602z" fill="#293052" fill-rule="nonzero"/><path d="M255.777 116.442l.682-6.592h5.98v1.44h-4.58l-.378 3.372c.256-.188.536-.341.832-.455.34-.124.699-.188 1.06-.19a3.216 3.216 0 0 1 2.612 1.1 4.322 4.322 0 0 1 .946 2.954 4.208 4.208 0 0 1-.984 2.88 3.556 3.556 0 0 1-2.801 1.098 3.782 3.782 0 0 1-2.536-.833 2.88 2.88 0 0 1-.984-2.425h1.476c-.036.563.17 1.115.568 1.516.4.37.932.561 1.476.53a1.892 1.892 0 0 0 1.59-.72 3.147 3.147 0 0 0 .416-2.121 2.957 2.957 0 0 0-.568-1.895 1.892 1.892 0 0 0-1.59-.757 2.534 2.534 0 0 0-1.4.303c-.305.21-.532.517-.643.871l-1.174-.076zm6.018 20.572h1.628v1.288h-1.628v2.765h-1.627v-2.803h-5.375v-.91l5.261-8.296h1.703v7.956h.038zm-5.26 0h3.784v-5.645.417l-3.785 5.228zm6.547 44.06h-7.759v-1.137l3.785-4.357a10.796 10.796 0 0 0 1.438-1.856 2.92 2.92 0 0 0 .379-1.402 2.237 2.237 0 0 0-.53-1.515 1.74 1.74 0 0 0-1.4-.606 2.383 2.383 0 0 0-1.817.644 2.54 2.54 0 0 0-.606 1.78h-1.438a3.373 3.373 0 0 1 1.022-2.614 4.01 4.01 0 0 1 2.952-1.06 3.48 3.48 0 0 1 2.574.947c.632.63.975 1.494.946 2.386a3.791 3.791 0 0 1-.568 1.97 12.463 12.463 0 0 1-1.627 2.122l-3.142 3.41h5.753v1.287h.038zm0-110.586a16.785 16.785 0 0 0-2.914 4.584 20.55 20.55 0 0 0-1.098 4.85v1.288h-1.703v-1.288c.2-1.78.673-3.517 1.4-5.153a19.4 19.4 0 0 1 2.726-4.357h-6.51V69.2h8.1v1.288zm-.454-17.616a2.654 2.654 0 0 1-.53 1.629 3.104 3.104 0 0 1-1.438 1.06 3.785 3.785 0 0 1 1.665 1.137c.404.505.618 1.135.606 1.78a3.07 3.07 0 0 1-1.098 2.54 4.992 4.992 0 0 1-5.64 0 3.108 3.108 0 0 1-1.059-2.54 2.805 2.805 0 0 1 .606-1.78 3.52 3.52 0 0 1 1.627-1.136 3.028 3.028 0 0 1-1.4-1.061 2.73 2.73 0 0 1-.492-1.63 3.07 3.07 0 0 1 .984-2.424c.72-.599 1.637-.91 2.573-.871a3.782 3.782 0 0 1 2.574.871 3.032 3.032 0 0 1 1.022 2.425zm-1.287 5.569a2.16 2.16 0 0 0-.643-1.63 2.27 2.27 0 0 0-1.628-.643 2.156 2.156 0 0 0-2.27 2.235c-.025.598.21 1.178.643 1.591a2.647 2.647 0 0 0 3.293 0c.413-.408.633-.973.605-1.553zm-.19-5.531a2.047 2.047 0 0 0-.567-1.478 2.005 2.005 0 0 0-2.8 0 2.085 2.085 0 0 0-.53 1.478c-.031.544.16 1.077.53 1.477.786.741 2.013.741 2.8 0 .384-.394.589-.928.568-1.477z" fill="#808184" fill-rule="nonzero"/><path d="M188.18 145.159h-35.047l-5.525-8.07-5.3 8.07h-35.046a4.733 4.733 0 0 0-4.731 4.735v24.512a4.733 4.733 0 0 0 4.73 4.735h80.92a4.729 4.729 0 0 0 3.419-1.346 4.738 4.738 0 0 0 1.425-3.39v-24.473a4.738 4.738 0 0 0-1.412-3.414 4.729 4.729 0 0 0-3.432-1.36z" fill="#E88024"/><ellipse cx="8.43" cy="8.858" rx="8.137" ry="8.373" opacity=".6" transform="translate(214.95 145.962)" fill="#FFF"/><path d="M223.38 164.404c-5.172 0-9.35-4.299-9.35-9.585 0-5.285 4.178-9.584 9.35-9.584 5.17 0 9.349 4.299 9.349 9.584 0 5.286-4.178 9.585-9.35 9.585zm0-2.424c3.816 0 6.925-3.198 6.925-7.16 0-3.963-3.109-7.161-6.926-7.161-3.816 0-6.925 3.198-6.925 7.16 0 3.963 3.109 7.16 6.925 7.16z" fill="#E88024" fill-rule="nonzero"/><path d="M259.903 88.9a5.294 5.294 0 0 1 1.211 0c.341.07.672.185.984.341l-.34 1.25-.833-.34a3.781 3.781 0 0 0-1.022 0 2.46 2.46 0 0 0-2.082 1.022c-.559.782-.839 1.73-.795 2.69a3.784 3.784 0 0 1 1.212-.72c.47-.18.971-.27 1.476-.265a3.216 3.216 0 0 1 2.573 1.099 4.17 4.17 0 0 1 .947 2.803 4.473 4.473 0 0 1-1.022 3.031 3.405 3.405 0 0 1-2.725 1.174 3.783 3.783 0 0 1-2.915-1.288 5.194 5.194 0 0 1-1.135-3.599v-2.273a5.383 5.383 0 0 1 1.287-3.788 4.085 4.085 0 0 1 3.179-1.137zm-.568 5.418a2.76 2.76 0 0 0-1.4.34c-.384.21-.7.526-.909.91v.985c-.05.903.204 1.796.72 2.538.396.57 1.047.91 1.74.91a1.74 1.74 0 0 0 1.666-.91 3.791 3.791 0 0 0 .568-2.084 3.07 3.07 0 0 0-.568-1.97 1.967 1.967 0 0 0-1.817-.757v.038z" fill="#808184" fill-rule="nonzero"/><path fill="#E88024" d="M246.278 145.424h28.575v18.79h-28.575z"/><path fill="#E88024" d="M249.76 154.82l-3.331 3.333-5.185-3.334 5.185-3.333z"/><path d="M257.594 153.683h1.363c.462.033.916-.132 1.249-.455.293-.348.442-.795.416-1.25a1.63 1.63 0 0 0-.416-1.174 1.588 1.588 0 0 0-1.211-.266 1.664 1.664 0 0 0-1.136.38c-.3.253-.466.63-.454 1.022h-2.347a2.729 2.729 0 0 1 1.06-2.31 4.274 4.274 0 0 1 2.8-.91 4.614 4.614 0 0 1 2.953.871 3.07 3.07 0 0 1 1.098 2.539 2.54 2.54 0 0 1-.492 1.477c-.349.481-.82.86-1.363 1.099a3.028 3.028 0 0 1 1.514 1.098c.353.498.538 1.095.53 1.705a3.108 3.108 0 0 1-1.211 2.576 4.804 4.804 0 0 1-3.066.947 4.69 4.69 0 0 1-2.876-.87 2.805 2.805 0 0 1-1.136-2.501h2.498c-.01.432.17.848.492 1.136.344.304.79.467 1.25.455.484.032.96-.132 1.324-.455.332-.329.51-.783.492-1.25a1.82 1.82 0 0 0-.454-1.402 1.967 1.967 0 0 0-1.4-.454h-1.477v-2.008z" fill="#FFF"/><path fill="#293052" fill-rule="nonzero" d="M247.564 126.292v-1.212h22.899v1.212z"/><path d="M212.866 12.64v5.176c.1-.028.226-.043.376-.043.38 0 .697.126.952.377.254.25.381.564.381.94 0 .359-.112.66-.338.903a1.304 1.304 0 0 1-.87.414 1.173 1.173 0 0 1-.297.038c-.419 0-.78-.165-1.08-.495-.262-.28-.393-.646-.393-1.102V12.64h1.27zm.99 6.45a.547.547 0 0 0-.18-.419.615.615 0 0 0-.434-.167.558.558 0 0 0-.408.172.564.564 0 0 0-.172.414c0 .162.056.3.17.417.112.116.25.175.41.175a.604.604 0 0 0 .433-.172.558.558 0 0 0 .18-.42h.001zm3.43-1.274c.167-.06.336-.091.504-.091.376 0 .693.13.95.39.255.26.383.577.383.954 0 .286-.093.562-.28.828-.204.28-.442.437-.714.473-.15.02-.3.032-.452.037-.455 0-.85-.168-1.182-.505-.359-.362-.538-1.041-.538-2.037 0-1.111.172-1.885.516-2.323.394-.505.907-.758 1.537-.758.355 0 .733.095 1.135.285.444.215.845.644 1.204 1.285.122.215.215.384.28.505v-1.612c0-.58-.09-1.002-.27-1.264-.293-.422-.852-.634-1.677-.634-.716 0-1.3.138-1.752.414-.283.176-.547.46-.79.855l-.704-.549.467-.575a3.22 3.22 0 0 1 .77-.559c.253-.129.565-.236.934-.322.364-.08.736-.117 1.108-.113 1.58 0 2.584.482 3.01 1.446.14.322.21.686.21 1.091v5.29h-1.307v-.705c0-.706-.206-1.478-.618-2.316-.548-1.104-1.14-1.656-1.78-1.656-.418 0-.698.217-.838.65-.093.287-.14.61-.14.968 0 .28.011.462.033.548zm1.07 1.253a.59.59 0 0 0-.165-.414.525.525 0 0 0-.4-.178.549.549 0 0 0-.415.175.583.583 0 0 0-.166.417.57.57 0 0 0 .17.414c.112.114.25.172.41.172.15 0 .282-.06.395-.18a.578.578 0 0 0 .17-.406zm11.39-6.43v6.21c0 .397-.094.729-.28.994-.319.322-.738.484-1.258.484h-3.892v-.957h.785v-1.506c0-.384.233-.859.7-1.425.382-.466.637-.858.762-1.177.09-.237.134-.493.134-.769a1.21 1.21 0 0 0-.274-.795.911.911 0 0 0-.742-.371h-.096a.738.738 0 0 1-.092-.006c-.437 0-.695.106-.774.317.402 0 .69.14.866.42.182.294.274.562.274.806 0 .226-.063.45-.188.672-.137.24-.305.394-.506.462a1.89 1.89 0 0 1-.634.14c-.276 0-.546-.097-.812-.29-.276-.208-.432-.446-.467-.715-.03-.149-.048-.3-.054-.452 0-.645.233-1.175.7-1.59.404-.366.993-.55 1.767-.55.574 0 1.06.158 1.457.474.491.387.737.889.737 1.505 0 .717-.27 1.421-.812 2.113-.28.358-.436.566-.468.623-.14.23-.21.475-.21.737v1.376h1.554c.136 0 .278-.074.425-.22.06-.115.091-.277.091-.484v-6.026h1.306zm-5.73 2.258c0 .15.05.283.152.395a.49.49 0 0 0 .38.17c.375 0 .564-.188.564-.565 0-.376-.189-.564-.565-.564a.49.49 0 0 0-.376.172.568.568 0 0 0-.156.392zm13.395-1.505c.147.158.267.357.36.597.136.34.204.69.204 1.048v5.29h-1.279v-.705c0-.666-.215-1.437-.645-2.311-.548-1.107-1.145-1.661-1.79-1.661-.423 0-.712.235-.866.704-.074.27-.109.548-.102.828 0 .193.015.405.043.634.17-.06.33-.091.484-.091.376 0 .694.13.952.39s.387.577.387.954c0 .286-.095.56-.285.822-.2.283-.438.443-.71.479-.146.02-.293.032-.44.037-.467 0-.864-.168-1.194-.505-.35-.351-.527-1.03-.527-2.037 0-1.097.176-1.871.527-2.323.383-.505.89-.758 1.521-.758.36 0 .737.095 1.134.285.463.219.9.69 1.312 1.414.047.083.113.208.2.376v-1.612c0-.56-.098-.98-.29-1.264-.295-.422-.852-.634-1.673-.634-.738 0-1.317.13-1.736.39-.42.26-.688.553-.807.879l-.704-.549.462-.575a3.26 3.26 0 0 1 .753-.553c.25-.13.566-.239.946-.328a5.089 5.089 0 0 1 1.118-.113c.735 0 1.332.098 1.79.295.161-.11.285-.23.371-.36.126-.161.188-.376.188-.645l1.366.35c0 .412-.23.765-.694 1.059a2.09 2.09 0 0 1-.376.193zm-3.01 5.677c0-.161-.056-.3-.167-.417a.549.549 0 0 0-.414-.175.524.524 0 0 0-.398.18.589.589 0 0 0 0 .823.53.53 0 0 0 .398.175.555.555 0 0 0 .411-.172.569.569 0 0 0 .17-.414zm2.467 5.064v-.834a.605.605 0 0 1-.199.027c-.39 0-.695-.113-.914-.338-.193-.205-.29-.466-.29-.785 0-.498.224-.839.672-1.022.197-.082.407-.123.63-.123.433 0 .784.161 1.052.484.216.258.323.663.323 1.214v1.377h-1.274zm-.188-2.462c-.355 0-.532.188-.532.564 0 .37.19.554.57.554.376 0 .564-.2.564-.597-.043-.348-.244-.521-.602-.521zm8.66-1.344v-5.22c0-.53-.16-.95-.484-1.258-.35-.333-.89-.5-1.618-.5-.613 0-1.11.17-1.489.51-.43.391-.645.922-.645 1.592 0 .351.038.692.113 1.021l.204.936c.158.699.237 1.268.237 1.71.261-.449.596-.961 1.005-1.538.125-.176.238-.332.34-.468-.299-.036-.586-.18-.86-.43-.19-.172-.286-.452-.286-.839 0-.186.03-.354.09-.505.23-.566.673-.85 1.33-.85.515 0 .886.176 1.111.528.183.297.275.609.275.935 0 .226-.154.584-.463 1.075-.254.37-.632.921-1.134 1.656-.193.283-.47.71-.828 1.28l-.22.365h-1.538c0-.033.002-.084.006-.154.003-.07.005-.122.005-.158 0-.47-.045-.996-.134-1.58a94.173 94.173 0 0 1-.495-2.226 3.936 3.936 0 0 1-.075-.812c0-.917.34-1.638 1.016-2.16.641-.492 1.46-.737 2.451-.737 1.14 0 1.99.235 2.548.704.541.455.812 1.113.812 1.973v5.15h-1.274zm-2.688-4.457c0 .158.062.295.186.412.231.23.604.231.836.002a.556.556 0 0 0 .177-.414.582.582 0 0 0-.597-.591.587.587 0 0 0-.422.175.56.56 0 0 0-.18.416zm7.07-.704c-.23.022-.368.032-.415.032-.362 0-.668-.127-.92-.381a1.268 1.268 0 0 1-.375-.925c0-.29.091-.566.274-.828.197-.286.433-.448.71-.484a4.68 4.68 0 0 1 .45-.037c.495 0 .88.156 1.157.467.258.298.387.67.387 1.119v1.763l-.145 1.14.193-.646c.025-.086.142-.392.35-.919.383-.985.786-1.749 1.21-2.29.196-.25.338-.407.424-.468.14-.103.33-.155.57-.155.533 0 .967.186 1.3.559.316.354.473.804.473 1.349v5.865h-1.268v-5.994c0-.42-.188-.624-.565-.613-.193.007-.49.416-.892 1.226-.25.499-.474 1.01-.672 1.532a18.835 18.835 0 0 0-.85 3.058c-.085.445-.128.708-.128.79h-1.269v-5.16zm-.99-1.274c0 .15.06.285.175.403.116.119.25.178.4.178.158.001.31-.06.422-.172a.547.547 0 0 0 .18-.409.572.572 0 0 0-.175-.425.586.586 0 0 0-.427-.172.538.538 0 0 0-.406.18.59.59 0 0 0-.17.417zm4.408-3.73c-.057.01-.138.016-.242.016-.416 0-.724-.135-.925-.404-.129-.164-.193-.38-.193-.645 0-.544.27-.9.806-1.064.136-.043.274-.065.414-.065.437 0 .765.165.984.495.193.283.29.564.29.844 0 .129-.018.258-.054.387-.086.308-.23.55-.435.726.555-.136.97-.368 1.242-.694.383-.455.575-.935.575-1.44h1.22c0 .824-.408 1.537-1.225 2.14-.86.648-1.954.972-3.28.972v-.564c.183 0 .38-.081.592-.242.154-.154.23-.308.23-.463l.001.001zm-.23-1.554c-.338 0-.507.172-.507.516.047.34.235.51.565.51.312 0 .468-.179.468-.537 0-.326-.176-.49-.527-.49v.001zm9.444 11.719h-1.285v-5.08c0-.606-.083-1.03-.247-1.274-.284-.416-.766-.624-1.446-.624-.688 0-1.23.192-1.63.575a1.798 1.798 0 0 0-.52.882l-.742-.452c.168-.483.462-.9.881-1.247.488-.405 1.177-.607 2.07-.607.878 0 1.587.217 2.128.65.527.427.79 1.056.79 1.887v5.29h.001zm6.483-.973a.49.49 0 0 0 .414-.2c.086-.11.13-.263.13-.456V12.64h1.29v6.257c0 .387-.1.713-.302.978-.23.301-.626.452-1.188.452h-4.8v-.973h.515v-1.301c0-.48.102-.862.307-1.145.24-.33.535-.523.887-.58-.527 0-.954-.158-1.282-.471-.328-.314-.492-.732-.492-1.255 0-.66.25-1.183.747-1.57.452-.344 1.02-.516 1.704-.516.455 0 .824.115 1.107.344.301.25.452.6.452 1.048 0 .491-.174.848-.522 1.07a1.43 1.43 0 0 1-.774.215c-.63 0-1.028-.23-1.193-.688a1.26 1.26 0 0 1-.086-.452c0-.14.013-.24.038-.3-.115.014-.217.109-.307.284a.978.978 0 0 0-.113.425c0 .756.447 1.195 1.34 1.317.293.043.583.064.87.064h.564v.877h-.597c-.412 0-.723.093-.935.28-.265.24-.398.574-.398 1.004v1.35h2.624zm-2.42-5.446c0 .161.06.3.18.414a.585.585 0 0 0 .834-.003.555.555 0 0 0 .18-.41c0-.388-.199-.581-.597-.581a.587.587 0 0 0-.419.169.547.547 0 0 0-.177.411z" fill="#2A3052" fill-rule="nonzero"/><path d="M275.338 15.068h-1.103v-1.164h1.134v1.164h-.03zm0 4.995h-1.103v-1.165h1.134v1.165h-.03zm4.811-3.739l.49-4.565h4.168v1.01h-3.065l-.275 2.33c.18-.127.375-.23.582-.307a2.16 2.16 0 0 1 .735 0 2.237 2.237 0 0 1 1.808.736 3.06 3.06 0 0 1 .643 2.053 3.064 3.064 0 0 1-.674 2.022 2.482 2.482 0 0 1-1.96.766 2.666 2.666 0 0 1-1.962-.766 1.992 1.992 0 0 1-.674-1.685h1.011c-.02.388.125.766.4 1.041.286.298.69.455 1.102.43.485.047.956-.177 1.225-.583.288-.4.428-.887.4-1.379a2.08 2.08 0 0 0-.4-1.317 1.318 1.318 0 0 0-1.103-.521 1.777 1.777 0 0 0-.95.184c-.208.15-.359.366-.429.613l-1.072-.062z" fill="#293052" fill-rule="nonzero"/><path d="M171.341 165.292h-2.159v-8.419h2.16v8.419zm0 4.429h-2.159v-2.262h2.16v2.262zM136.64 156.294h2.597c-.133 1.702-1.18 2.772-3.142 3.208 1.081.315 1.644 1.066 1.644 2.22 0 1.824-.01 4 0 5.785 0 2.986-.706 3.292-3.03 3.394-1.55.068-3.98.068-7.289 0v-1.638h1.513v-2.957c.154-1.641 2.936-3.725 2.936-5.764 0-2.038-2.405-3.156-3.684-1.739 1.072.061 1.972 1.005 2.052 2.367 0 1.421-1.043 2.164-2.25 2.164-1.209 0-2.512-.817-2.512-2.485 0-1.667.74-2.717 1.945-3.472 1.205-.755 5.315-1.181 6.25 2.125.933 3.306-2.49 5.144-2.49 7.066v2.695h3.156c.926 0 1.18-.757 1.18-2.16 0-.925 0-3.962-.179-5.933-.087-.963-.92-1.253-1.212-1.253-.18-.51-.186-.611-.297-.992 1.68-.154 2.616-1.031 2.81-2.631h.001zm-8.746 3.79c-.49 0-.905.396-.905 1.033 0 .637.475 1.033.905 1.033.43 0 1.07-.35 1.07-1.058 0-.708-.578-1.008-1.07-1.008zm22.435-3.061h2.194v8.28c0 .552-.817.887-1.182 1.04 1.231.571 1.653 1.294 1.653 2.39 0 1.095-1.014 2.38-2.36 2.38-1.345 0-1.984-1.095-2.162-1.904-.177-.81.045-1.586.28-1.765-1.433.177-2.784 2.207-3.058 3.43l-2.107.02v-9.355c-1.912.1-2.868-.633-2.868-2.2 0-2.35 2.06-2.459 2.604-2.459.543 0 2.013.335 2.371 2.13.077 1.965 0 8.563 0 9.045.526-.772 1.428-1.771 2.55-2.02 1.122-.25 1.778-.39 2.085-1.006.017-1.255.017-3.924 0-8.006zm.3 10.59c-.455 0-.979.458-.979 1.084 0 .626.526 1.084.98 1.084.453 0 1.094-.343 1.094-1.156 0-.814-.639-1.012-1.094-1.012zm-7.81-9.394c-.603 0-.83.51-.83 1.058s.438 1.06.967 1.06c.53 0 .998-.541.998-1.149s-.532-.97-1.135-.97v.001zm20.721-.02l1.93.314c-.879 3.196-3.025 4.581-6.44 4.156-5.122-.637-3.232-5.135-1.257-4.96 1.974.177 2.427 1.316 2.427 2.063 0 .747-.075 1.025-.977 1.698 2.531.38 3.97-.71 4.317-3.271zm-5.658.609c-.542 0-.965.526-.965 1.047 0 .522.476 1.048.965 1.048.49 0 1.108-.36 1.108-1.074 0-.715-.566-1.021-1.108-1.021zm5.658 6.734l1.93.314c-.879 3.196-3.025 4.581-6.44 4.156-5.122-.637-3.232-5.135-1.257-4.96 1.974.177 2.427 1.316 2.427 2.063 0 .747-.075 1.025-.977 1.698 2.531.38 3.97-.71 4.317-3.271zm-5.658.609c-.542 0-.965.525-.965 1.047 0 .522.476 1.048.965 1.048.49 0 1.108-.36 1.108-1.074 0-.715-.566-1.021-1.108-1.021z" fill="#FFF" fill-rule="nonzero"/><path d="M17.92 17.279c0 .08.02.157.055.23.11.22.33.362.574.372a.631.631 0 0 0 .567-.361.63.63 0 0 0 .005-.484.571.571 0 0 0-.132-.194.624.624 0 0 0-.87 0 .637.637 0 0 0-.144.194.548.548 0 0 0-.055.243zm2.423 4.496v-5.228c0-.456-.133-.81-.4-1.061-.295-.285-.767-.427-1.416-.427a1.99 1.99 0 0 0-.71.126c-.223.084-.416.19-.58.317-.17.174-.306.379-.4.604a1.934 1.934 0 0 0-.153.769c0 .164.01.324.025.48.016.158.043.31.08.46l.196.903v-.006c.088.383.15.728.186 1.034a28.538 28.538 0 0 1 .777-1.143 1.489 1.489 0 0 1-.31-.156 2.638 2.638 0 0 1-.303-.238v.006c-.226-.205-.339-.525-.339-.963 0-.204.033-.392.1-.563.261-.631.751-.946 1.47-.946.572 0 .988.202 1.247.607.196.317.295.652.295 1.006 0 .266-.16.649-.48 1.148l-.335.487-.76 1.116v-.006a19.09 19.09 0 0 0-.334.509l-.552.875a.743.743 0 0 0-.027.049.878.878 0 0 1-.074.126 44.79 44.79 0 0 1-.08.115h-1.799v-.063l.003-.112.003-.115v-.077a.767.767 0 0 0 .005-.082v-.06c0-.215-.01-.446-.03-.692-.02-.246-.052-.511-.096-.795l.006.016a45.986 45.986 0 0 1-.208-.891c-.08-.358-.17-.777-.268-1.258a3.718 3.718 0 0 1-.082-.82c0-.478.088-.904.265-1.277.177-.374.442-.698.796-.971.334-.25.71-.44 1.11-.56a4.65 4.65 0 0 1 1.373-.19c1.145 0 2.007.243 2.586.728.57.481.854 1.167.854 2.056v5.163h-1.64zm.968-9.275c-.343-.062-.71-.11-1.105-.143a15.613 15.613 0 0 0-2.775.028c-.53.05-1.102.127-1.715.23l.28-.963c.513-1.243 1.487-1.865 2.92-1.865.641 0 1.203.13 1.684.388.481.26.882.64 1.203 1.143.128.2.233.417.317.648.084.232.146.472.186.72l-.995-.186zm-2.603-1.909c-.38 0-.69.077-.93.23a1.87 1.87 0 0 0-.607.65c.361-.018.69-.039.987-.062a9.139 9.139 0 0 1 1.68.005c.304.027.642.072 1.014.134-.555-.638-1.27-.957-2.144-.957zm7.164 8.45a2.152 2.152 0 0 1-.189.035c-.265.038-.535 0-.78-.107a1.49 1.49 0 0 1-.472-.325 1.575 1.575 0 0 1-.317-.476 1.406 1.406 0 0 1-.118-.566c0-.722.367-1.201 1.1-1.438.127-.04.258-.066.393-.077.135-.01.268-.008.4.008.13.017.256.049.377.096.12.047.231.111.333.191.11.073.207.157.293.252.163.18.289.39.37.62.035.108.057.208.065.299l.24 2.97c.026.094.08.142.16.142.061 0 .1-.01.116-.028.017-.018.03-.05.036-.098l.273-3.872a.505.505 0 0 0 .006-.071v-.071c0-.208-.026-.401-.077-.58a1.083 1.083 0 0 0-.268-.465 1.294 1.294 0 0 0-.516-.309 2.563 2.563 0 0 0-.824-.112c-.583 0-1.05.124-1.405.372l.005-.006a1.693 1.693 0 0 0-.445.438c-.06.084-.118.17-.173.257l-.164.262-.935-.721a1.74 1.74 0 0 1 .421-.766v.005c.143-.16.298-.306.468-.437a2.8 2.8 0 0 1 .58-.34 3.43 3.43 0 0 1 .74-.218c.278-.05.593-.076.947-.076 1.524 0 2.54.48 3.051 1.443.201.375.285.802.24 1.225l-.344 3.872a1.723 1.723 0 0 1-.287.905c-.096.148-.22.276-.369.383-.15.108-.328.17-.536.189a34.17 34.17 0 0 0-.487.044c-.03.003-.061.004-.092.005h-.044c-.412 0-.762-.1-1.05-.3h.005c-.36-.241-.543-.535-.547-.881l-.18-1.674v.001zm.257-1.466a.519.519 0 0 0-.055-.235.648.648 0 0 0-.145-.192.73.73 0 0 0-.205-.131.579.579 0 0 0-.23-.05.533.533 0 0 0-.536.388.892.892 0 0 0-.032.247c0 .098.016.185.05.26.059.139.174.246.316.295a.655.655 0 0 0 .64-.12.616.616 0 0 0 .197-.462zm3.095-5.048c-.342-.062-.71-.11-1.104-.142a15.613 15.613 0 0 0-2.776.027c-.53.051-1.102.128-1.714.23l.28-.963c.513-1.243 1.486-1.864 2.92-1.864.641 0 1.202.129 1.683.388.482.259.883.64 1.203 1.143.128.2.234.416.318.648.083.231.145.471.186.719l-.996-.186zm-2.603-1.909c-.379 0-.689.077-.93.23a1.87 1.87 0 0 0-.607.65c.361-.017.69-.038.988-.062a9.139 9.139 0 0 1 1.68.005c.303.028.641.072 1.013.134-.554-.638-1.269-.957-2.144-.957zm7.558 6.87c0 .083.02.16.057.229a.669.669 0 0 0 .333.3.54.54 0 0 0 .433 0 .556.556 0 0 0 .358-.53c0-.372-.195-.558-.585-.558a.562.562 0 0 0-.227.047.6.6 0 0 0-.319.301.476.476 0 0 0-.05.21v.001zm2.39 4.287v-5.228c0-.23-.03-.434-.093-.613a1.132 1.132 0 0 0-.263-.437l-.06-.044-.164-.11h-.005c.003 0-.03.02-.099.058a6.7 6.7 0 0 1-.295.15 2.37 2.37 0 0 1-.45.183c-.135.04-.274.061-.414.063-.24 0-.505-.082-.793-.246a2.954 2.954 0 0 1-.323-.191.94.94 0 0 0-.186.098.82.82 0 0 0-.202.18c-.208.263-.312.675-.312 1.237 0 .164.008.324.025.48.016.158.043.31.08.46l.196.903v-.006c.044.197.082.381.115.553.033.17.058.335.076.492l.15-.205c.05-.068.106-.138.168-.21l.41-.51a.94.94 0 0 1-.23-.103 1.573 1.573 0 0 1-.208-.159h.006a1.424 1.424 0 0 1-.476-1.094c0-.536.224-.951.673-1.247.258-.167.55-.251.875-.251h.12l.547.076c.222.066.42.237.596.514.2.325.3.658.3 1.001 0 .303-.174.706-.524 1.209-.29.381-.584.76-.88 1.138-.04.05-.09.116-.149.196-.058.08-.123.173-.196.28l-.4.568c-.15.215-.308.487-.475.815h-1.816v-.063c0-.035 0-.072.003-.112.002-.04.002-.079.002-.115v-.077a.767.767 0 0 0 .006-.082v-.06c0-.215-.01-.446-.03-.692-.02-.246-.052-.511-.096-.795l.006.016a45.987 45.987 0 0 1-.208-.891 68.55 68.55 0 0 1-.268-1.258 3.718 3.718 0 0 1-.082-.82c0-.427.09-.852.268-1.275.197-.455.457-.811.782-1.066a4.21 4.21 0 0 1 .708-.435c.228-.107.45-.176.664-.205l-.005.005c.157-.025.386.097.69.367h-.006c.226.193.388.29.486.29.124 0 .3-.095.525-.285.307-.251.522-.377.646-.377.116 0 .238.015.366.046a1.9 1.9 0 0 1 .4.15c.123.066.24.142.352.228.111.085.216.185.314.298a3.217 3.217 0 0 1 .607.957c.124.328.186.69.186 1.088v5.163h-1.64zm6.393-1.417a.572.572 0 0 0-.569-.579.442.442 0 0 0-.205.049.59.59 0 0 0-.17.131.657.657 0 0 0-.117.186.545.545 0 0 0 0 .432.583.583 0 0 0 .287.304.55.55 0 0 0 .61-.118.55.55 0 0 0 .164-.405zm3.215-5.386c.085.136.158.279.22.427v-.006c.138.353.207.716.207 1.088v5.294h-1.64v-.886c0-.605-.2-1.315-.602-2.128-.492-.991-1.005-1.487-1.537-1.487-.31 0-.52.18-.634.541v-.005a1.457 1.457 0 0 0-.069.322c-.012.12-.019.258-.019.41v.162c0 .06.004.12.011.178.094-.015.19-.023.284-.022.423 0 .78.146 1.067.437h-.006c.292.292.438.646.438 1.061 0 .157-.027.312-.082.465a1.9 1.9 0 0 1-.23.443c-.23.317-.505.501-.826.552a4.825 4.825 0 0 1-.454.033c-.51 0-.942-.182-1.296-.547h.006c-.38-.379-.569-1.08-.569-2.105 0-.543.048-1.012.142-1.406.095-.393.23-.71.405-.951.208-.266.448-.469.722-.607a1.98 1.98 0 0 1 .908-.208c.372 0 .765.098 1.18.295.413.2.8.576 1.16 1.127v-.771c0-.252-.02-.469-.063-.651a1.303 1.303 0 0 0-.183-.448v.005c-.24-.35-.72-.525-1.438-.525-.67 0-1.19.117-1.559.35-.364.219-.627.554-.787 1.006l-1.067-.836.597-.739a2.994 2.994 0 0 1 1.2-.74c.162-.057.338-.11.528-.157a5 5 0 0 1 1.12-.114c.343 0 .654.02.933.062.28.042.532.107.758.195.08-.073.153-.15.218-.23.095-.128.143-.383.143-.766l1.728.438c0 .583-.256 1.035-.766 1.356l-.148.088zm-2.8 8.148c-.295 0-.475.13-.54.388.01.405.19.607.54.607.332 0 .498-.166.498-.497 0-.164-.038-.288-.115-.372-.076-.084-.204-.126-.383-.126zm-.082 2.587v-.925h-.01c-.336 0-.65-.133-.947-.399a.865.865 0 0 1-.218-.328 1.214 1.214 0 0 1-.077-.443c0-.32.115-.601.345-.842.247-.259.581-.388 1-.388.678 0 1.114.257 1.307.77.033.096.06.207.077.334.018.128.027.274.027.438v.656h.476v-2.066h1.488v3.194h-3.468v-.001zm7.591-6.885c.084.098.18.213.29.344.11.131.23.283.36.454v-2.79a1.468 1.468 0 0 1-1.218-.404 1.4 1.4 0 0 1-.444-1.05c0-.332.108-.64.323-.924l-.006.005c.113-.164.24-.29.378-.38.14-.09.296-.148.46-.172.21-.022.367-.033.47-.033.524 0 .94.175 1.246.525.288.332.432.735.432 1.209v6.169h-1.914a5.717 5.717 0 0 0-.115-.216 26.82 26.82 0 0 1-.164-.298 3.98 3.98 0 0 0-.125-.2c-.066-.1-.157-.234-.274-.402a23.512 23.512 0 0 0-.426-.651c-.298-.392-.613-.77-.946-1.132l-.465-.46-.022-.026v.005c-.285-.273-.472-.436-.563-.487l-.449-.273.514-.82c.303 0 .88.377 1.734 1.132.319.28.627.572.924.875zm-.077-3.44c0 .076.016.146.047.21.03.064.072.12.123.17a.54.54 0 0 0 .183.115c.071.027.146.04.222.04a.445.445 0 0 0 .202-.049.668.668 0 0 0 .175-.125c.05-.05.091-.109.12-.173a.451.451 0 0 0 .044-.188.499.499 0 0 0-.046-.21.646.646 0 0 0-.299-.31.437.437 0 0 0-.196-.049.564.564 0 0 0-.575.569zm9.128 6.393v-5.163c0-.474-.1-.838-.3-1.094l.004.006c-.255-.31-.727-.465-1.416-.465-.239 0-.477.027-.71.082a2.209 2.209 0 0 0-.269.09c-.1.041-.198.091-.29.15-.095.058-.19.117-.284.178-.07.043-.135.092-.197.145l-.01.011c.276.04.56.084.852.132.292.047.563.089.815.125l-.137.974c-.324 0-.536.049-.634.147-.179.146-.268.363-.268.651v4.03h-1.635v-4.03c0-.343.082-.621.246-.837a1.58 1.58 0 0 1 .142-.153l-1.088-.136.104-1.116a1.64 1.64 0 0 0 .585-.437c.303-.329.68-.615 1.132-.86.24-.123.497-.217.768-.28.272-.065.564-.096.878-.096.747 0 1.354.098 1.821.295h-.005a2.7 2.7 0 0 1 .765.503h-.005c.292.275.515.614.653.99.035.095.06.188.074.279.033.208.05.434.05.678v5.2h-1.64v.001zm7.158-.799c.39 0 .585-.198.585-.596a.595.595 0 0 0-.358-.55.562.562 0 0 0-.456.003.675.675 0 0 0-.328.32.566.566 0 0 0 0 .462c.097.22.316.363.557.361zm1.81-.831c0 .233-.042.455-.128.664a1.93 1.93 0 0 1-.37.577 1.545 1.545 0 0 1-.52.372 1.596 1.596 0 0 1-.639.126c-.047 0-.095-.002-.144-.005a.963.963 0 0 1-.162-.028 1.455 1.455 0 0 1-.525-.153 1.724 1.724 0 0 1-.437-.317 1.431 1.431 0 0 1-.394-1 1.4 1.4 0 0 1 .443-1.05 1.476 1.476 0 0 1 1.06-.427h.088c.033 0 .062.001.088.005v-2.231c0-.532-.068-.903-.202-1.11-.23-.34-.637-.509-1.22-.509-.598 0-1.072.164-1.422.492-.215.204-.4.547-.552 1.028l-1.045-.672c.223-.616.554-1.112.996-1.488.463-.394 1.15-.59 2.061-.59.908 0 1.64.224 2.2.672.55.445.824 1.105.824 1.98V20.145zm-1.47-10.079h1.45v2.63h-1.45v-2.63zm8.58 11.709h-1.652v-5.097c0-.543-.067-.912-.202-1.105-.233-.343-.64-.514-1.22-.514-.608 0-1.084.166-1.427.498-.219.208-.388.547-.509 1.017l-1.093-.667c.102-.307.233-.578.393-.815s.35-.447.57-.629c.506-.423 1.213-.634 2.121-.634.893 0 1.62.224 2.177.672.561.449.842 1.109.842 1.98v5.294z" fill="#000" fill-rule="nonzero"/></g></svg>