<?xml version="1.0" encoding="utf-8"?>
<!-- Generator: Adobe Illustrator 19.1.0, SVG Export Plug-In . SVG Version: 6.00 Build 0)  -->
<svg version="1.1" id="Layer_1" xmlns="http://www.w3.org/2000/svg" xmlns:xlink="http://www.w3.org/1999/xlink" x="0px" y="0px"
	 viewBox="0 0 940 450" style="enable-background:new 0 0 940 450;" xml:space="preserve">
<style type="text/css">
	.st0{fill:#EFEEEE;stroke:#EFEEEE;stroke-width:1.2517;}
	.st1{fill:#BFC8D0;stroke:#BFC8D0;stroke-width:1.2517;}
	.st2{fill:none;stroke:#676767;stroke-width:1.2517;}
	.st3{fill:#EAE7E8;stroke:#BCBCBB;stroke-width:1.2517;}
	.st4{fill:#676767;}
	.st5{fill:none;stroke:#EFEEEE;stroke-width:1.2517;}
	.st6{fill:none;stroke:#D8D9D8;stroke-width:1.2517;}
	.st7{fill:none;stroke:#C0D0E0;stroke-width:1.2517;}
	.st8{fill:none;stroke:#81B4E1;stroke-width:2.5033;stroke-linecap:round;stroke-linejoin:round;}
	.st9{clip-path:url(#SVGID_2_);}
	.st10{fill:#4673A8;fill-opacity:5.000000e-02;}
	.st11{fill:none;stroke:#4673A8;stroke-width:1.2517;stroke-linecap:round;stroke-linejoin:round;}
	.st12{fill:#84B2E0;fill-opacity:0.3;}
	.st13{fill:none;stroke:#B3B2B6;stroke-width:1.2517;}
	.st14{fill:#EAE7E8;stroke:#B3B2B6;stroke-width:1.2517;}
	.st15{fill:#333333;}
	.st16{font-family:'LucidaGrande';}
	.st17{font-size:16px;}
	.st18{fill:#616161;}
	.st19{font-size:11px;}
	.st20{fill:#888888;}
</style>
<g>
	<g transform="translate(10,422)">
		<rect x="6.7" y="0.2" class="st0" width="908.7" height="14"/>
		<rect x="30.9" y="0.2" class="st1" width="861.7" height="14"/>
		<path class="st2" d="M456.3,4.2V10 M461,4.2V10 M465.7,4.2V10"/>
		<g>
			<rect x="5.9" y="0.2" class="st3" width="21.9" height="14"/>
			<path class="st4" d="M19.2,4.7v6l-4.7-3"/>
		</g>
		<g transform="translate(566,0)">
			<rect x="326.6" y="0.2" class="st3" width="21.9" height="14"/>
			<path class="st4" d="M336.8,4.7v6l4.7-3"/>
		</g>
	</g>
	<g>
		<path class="st5" d="M323,381.7v40"/>
		<path class="st5" d="M758.5,381.7v40"/>
	</g>
	<g>
		<path class="st6" d="M16.7,336.2h908.7"/>
		<path class="st6" d="M16.7,263.2h908.7"/>
		<path class="st6" d="M16.7,190.2h908.7"/>
		<path class="st6" d="M16.7,117.2h908.7"/>
		<path class="st6" d="M16.7,43.2h908.7"/>
	</g>
	<g>
		<path class="st7" d="M133.4,335.7v10"/>
		<path class="st7" d="M310.4,335.7v10"/>
		<path class="st7" d="M495.3,335.7v10"/>
		<path class="st7" d="M680.1,335.7v10"/>
		<path class="st7" d="M865,335.7v10"/>
		<path class="st7" d="M16.7,336.2h908.7"/>
	</g>
	<g>
		<g>
			<g transform="translate(10,43) scale(1 1)">
				<path class="st8" d="M6.7,198.5l1.6-0.7l1.6-1.5l1.6,1.5l1.6-1.5l1.6,1.5L16,197l1.6,0.7l1.6,0.7h1.6l1.6,0.7l1.6-2.2l1.6,2.2
					l1.6-1.5l1.6,0.7H30h1.6l1.6,2.2h1.6l1.6,2.9l1.6-2.2h1.6l1.6,0.7l1.6-1.5l1.6,1.5l1.6-0.7h1.6l1.6-0.7l1.6,0.7l1.6,1.5l1.6-1.5
					l1.6,1.5l1.6-0.7l1.6,0.7l1.6-0.7H62l1.6,0.7l1.6-0.7l1.6-0.7h1.6L70,202h1.6l1.6,2.9l1.6,0.7l1.6,0.7l1.6,6.6l1.6-2.9l1.6-2.2
					h1.6l1.6-0.7H86l1.6,2.2h1.6l1.6,0.7l1.6-2.2l1.6,2.9l1.6,3.6l1.6-2.9l1.6,10.9l1.6-0.7l1.6-5.1l1.6-0.7l1.6,13.9l1.6,9.5
					l1.6-1.5l1.6,0.7l1.6-2.2l1.6,0.7l1.6,1.5h1.6l1.6-0.7l1.6-0.7l1.6-0.7h1.6l1.6-0.7l1.6-2.2l1.6-1.5l1.6-0.7l1.6,1.5l1.6,4.4
					l1.6-0.7l1.6,4.4l1.6,0.7l1.6,1.5l1.6,0.7h1.6h1.6l1.6-1.5h1.6l1.6,2.2h1.6l1.6,0.7l1.6-1.5l1.6-3.6l1.6-3.7l1.6,1.5h1.6
					l1.6-2.2l1.6,1.5l1.6-0.7h1.6l1.6-0.7l1.6,1.5l1.6-1.5l1.6,0.7l1.6,0.7l1.6,2.9l1.6-1.5h1.6h1.6l1.6-6.6l1.6-2.9l1.6-0.7
					l1.6-0.7l1.6,0.7l1.6,2.9l1.6-2.2l1.6-0.7h1.6l1.6,1.5h1.6l1.6-1.5l1.6,1.5l1.6-2.2h1.6l1.6-2.9l1.6,1.5l1.6-1.5l1.6-0.7
					l1.6-0.7l1.6,2.2l1.6-2.2h1.6l1.6-5.8l1.6-10.2l1.6-6.6l1.6,2.2l1.6-1.5l1.6,2.2l1.6-0.7l1.6,0.7l1.6,1.5l1.6,0.7l1.6-0.7
					l1.6-2.2h1.6l1.6-1.5l1.6,1.5l1.6,1.5l1.6-2.2l1.6,0.7l1.6,0.7l1.6-3.7l1.6-1.5l1.6-2.2l1.6-3.6l1.6-2.9l1.6,2.9l1.6-3.7
					l1.6,0.7l1.6-1.5l1.6-6.6l1.6-4.4l1.6,1.5l1.6,2.2l1.6-2.2h1.6l1.6-1.5l1.6-10.9l1.6,0.7l1.6-1.5l1.6-9.5l1.6,2.2l1.6,2.2
					l1.6-0.7h1.6l1.6,0.7l1.6-0.7l1.6,1.5l1.6,0.7h1.6l1.6-0.7l1.6,0.7l1.6-1.5l1.6,0.7l1.6-1.5l1.6-1.5l1.6-0.7l1.6,0.7l1.6-0.7
					l1.6-1.5l1.6,2.9l1.6-0.7l1.6-8.8l1.6-0.7l1.6,2.9l1.6,2.2l1.6,1.5l1.6,2.2l1.6-0.7l1.6-2.9l1.6-2.2l1.6,1.5h1.6l1.6-0.7
					l1.6-1.5l1.6,0.7h1.6l1.6-0.7l1.6,2.9l1.6-2.9h1.6l1.6,0.7l1.6-0.7h1.6l1.6,0.7l1.6,2.2h1.6l1.6,1.5l1.6-5.8l1.6,3.7l1.6,4.4
					l1.6-1.5l1.6,0.7h1.6h1.6l1.6-1.5l1.6,0.7l1.6-0.7l1.6,0.7l1.6-0.7h1.6l1.6,0.7l1.6,1.5l1.6-1.5h1.6l1.6-0.7l1.6-1.5l1.6,0.7
					l1.6,0.7h1.6l1.6,2.2l1.6-3.6l1.6,2.2l1.6-5.8l1.6-3.6l1.6-0.7l1.6,0.7l1.6-0.7l1.6,0.7l1.6-0.7l1.6,0.7l1.6-2.9l1.6,1.5
					l1.6,0.7l1.6,2.2l1.6-6.6h1.6h1.6l1.6-2.2l1.6-2.9l1.6-0.7l1.6,2.2l1.6-5.1l1.6,0.7l1.6-1.5l1.6-0.7l1.6,2.2l1.6-2.2h1.6
					l1.6,0.7h1.6h1.6h1.6h1.6l1.6-0.7h1.6l1.6,0.7l1.6-1.5l1.6-2.2h1.6h1.6l1.6,1.5l1.6-2.2l1.6,1.5l1.6-4.4l1.6,3.7l1.6,4.4
					l1.6-0.7l1.6-2.9l1.6-1.5l1.6-0.7h1.6l1.6,0.7l1.6,1.5l1.6-2.9l1.6,2.2h1.6l1.6,1.5l1.6-0.7h1.6h1.6h1.6h1.6l1.6,2.9l1.6-1.5
					l1.6-0.7l1.6-4.4l1.6-4.4h1.6l1.6,0.7l1.6,0.7l1.6-2.2l1.6-9.5l1.6-3.7h1.6l1.6-2.2h1.6l1.6-1.5l1.6-2.9l1.6-2.2l1.6,0.7
					l1.6-1.5l1.6,0.7l1.6,0.7h1.6h1.6l1.6-1.5h1.6l1.6-2.2l1.6,0.7h1.6l1.6-2.2l1.6,2.2l1.6-2.2h1.6l1.6,0.7h1.6l1.6-0.7h1.6
					l1.6-4.4l1.6-0.7l1.6,0.7h1.6h1.6l1.6,2.2l1.6,4.4l1.6-2.2l1.6,2.9l1.6-1.5h1.6l1.6-2.9l1.6,1.5l1.6-2.9l1.6-0.7l1.6-0.7
					l1.6-1.5l1.6-0.7l1.6-7.3l1.6-2.9l1.6-3.7l1.6,5.8l1.6-5.8l1.6,4.4l1.6-5.1l1.6-4.4h1.6l1.6-2.2l1.6-10.2l1.6-5.8l1.6-12.4h1.6
					l1.6-2.2l1.6,5.1h1.6L606,50l1.6-1.5l1.6-1.5l1.6-3.7l1.6-15.3l1.6-0.7l1.6,0.7l1.6-1.5l1.6,2.9l1.6,5.8L622,41l1.6-1.5l1.6,6.6
					l1.6-2.2l1.6,0.7l1.6-1.5l1,10.8l1.6,4.4l1.6-1.5l1.6,0.7l1.6,0.7l1.6-3.6l1.6-3.7l1.6,2.2L643,51h1.6l1.6-3.6l1.6,0.7h1.6
					L651,51h1.6l1.6,1.5l1.6-2.2l1.6,1.5l1.6-0.7l1.6,0.7l1.6-1.5l1.6,0.7l1.6-0.7L667,54h1.6l1.6-0.7l1.6-0.7l1.6,1.5l1.6-2.9h1.6
					h1.6h1.6l1.6,0.7l1.6-0.7l1.6-0.7l1.6-3.6h1.6h1.6l1.6-1.5l1.6-2.2l1.6,0.7l1.6-3.7l1.6-1.5l1.6-6.6l1.6-2.2l1.6-1.5l1.6,1.5
					l1.6,1.5l1.6,2.2l1.6,0.7l1.6,1.5l1.6,1.5l1.6,0.7l1.6,2.9h1.6l1.6,1.5l1.6-1.5l1.6,2.9l1.6-1.5h1.6l1.6-0.7l1.6-2.9l1.6,2.9
					l1.6-0.7l1.6,2.2l1.6,2.2l1.6,3.7l1.6,5.1l1.6,0.7l-1-0.8l1.6,1.5l1.6-0.7l1.6-2.2l1.6,2.2l1.6,3.6l1.6,4.4l1.6,5.1l1.6,3.6
					l1.6,8L754,81l1.6,0.7l1.6,1.5l1.6,0.7l1.6,5.8l1.6-2.2l1.6-2.2l1.6-5.8l1.6,0.7l1.6-0.7l1.6-2.2l1.6-1.5l1.6-0.7h1.6h1.6
					l1.6-0.7l1.6,0.7l1.6,0.7l1.6,0.7l1.6-1.5l1.6,0.7l1.6,0.7l1.6-2.2l1.6-0.7l1.6-3.7l1.6,0.7l1.6-2.9l1.6,2.9l1.6-6.6l1.6,2.2
					l1.6-1.5h1.6h1.6l1.6,2.2l1.6-2.2L808,62l1.6,1.5l1.6-4.4l1.6-2.9l1.6-2.2l1.6-2.2l1.6-2.2h1.6l1.6,0.7l1.6-0.7l1.6-2.9l1.6,5.1
					l1.6,3.7l1.6,1.5l1.6,2.9l1.6,1.5l1.6-1.5h1.6h1.6l1.6-0.7l1.6,0.7l1.6-1.5l1.6,2.2l1.6,0.7l1.6,1.5l1.6,8.8l1.6,1.5l1.6,0.7
					l1.6,3.7l1.6-4.4l1.6,4.4l1.6-1.5h1.6l1.6-4.4l1.6-3.6l1.6-5.1l1.6-2.9h1.6l1.6,2.9l1.6,1.5l1.6-1.5l1.6,2.9l1.6-0.7l1.6-0.7
					l1.6,0.7l1.6,0.7l1.6,14.6l1.6,7.3l1.6-1.5l1.6,10.9l1.6,3.7l1.6,5.1l1.6-2.2l1.6,2.2l1.6-2.2l1.6,2.2l1.6-3.7l1.6,3.7l1.6-10.2
					l1.6-0.7l1.6-1.5l1.6,0.7l1.6-2.2l1.6-2.2h1.6l1.6-1.5h1.6h1.6l1.6,7.3l1.6,1.5"/>
			</g>
		</g>
		<g transform="translate(10,43) scale(1 1)">
		</g>
		<g>
			<g>
				<defs>
					<rect id="SVGID_1_" x="62.6" y="762.7" width="864.8" height="40"/>
				</defs>
				<clipPath id="SVGID_2_">
					<use xlink:href="#SVGID_1_"  style="overflow:visible;"/>
				</clipPath>
				<g transform="translate(24,381) scale(1 1)" class="st9">
					<path class="st10" d="M14.6,30.2c0,0,1.7-0.1,2.9-0.2c1.2-0.1,1.7-0.1,2.9-0.1c1.2,0,1.7,0.1,2.9,0.2s1.7,0.1,2.9,0.1
						c1.2,0,1.7,0.1,2.9,0.1c1.2,0,1.7-0.1,2.9-0.1s1.7,0,2.9,0s1.7,0,2.9,0.1s1.7,0.2,2.9,0.3s1.7,0.3,2.9,0.3s1.7-0.2,2.9-0.2
						s1.7,0,2.9,0s1.7,0.1,2.9,0.1s1.7,0,2.9-0.1s1.7-0.1,2.9-0.1s1.7,0.1,2.9,0.2c1.2,0,1.7,0,2.9,0.1c1.2,0,1.7,0.1,2.9,0.1
						s1.7-0.1,2.9-0.1s1.7,0.1,2.9,0.1s1.7-0.2,2.9-0.2s1.7,0,2.9,0.1c1.2,0.1,1.7,0.3,2.9,0.5s1.7,0.7,2.9,0.7s1.7,0,2.9-0.1
						c1.2-0.1,1.7-0.2,2.9-0.2c1.2,0,1.7,0,2.9,0.1c1.2,0.1,1.7,0.2,2.9,0.2s1.7-0.1,2.9-0.1c1.2,0,1.7,0.2,2.9,0.6s1.7,1.4,2.9,1.4
						s1.7-0.9,2.9-0.9c1.2,0,1.7,2.2,2.9,2.8c1.2,0.6,1.7,0.6,2.9,0.6s1.7-0.2,2.9-0.2c1.2,0,1.7,0.3,2.9,0.3c1.2,0,1.7-0.1,2.9-0.2
						c1.2-0.1,1.7-0.1,2.9-0.2c1.2-0.1,1.7-0.1,2.9-0.3c1.2-0.1,1.7-0.4,2.9-0.4s1.7,0.3,2.9,0.5s1.7,0.3,2.9,0.6
						c1.2,0.2,1.7,0.4,2.9,0.6c1.2,0.2,1.7,0.2,2.9,0.2s1.7-0.1,2.9-0.1s1.7,0,2.9,0.1s1.7,0.2,2.9,0.2s1.7-0.2,2.9-0.4
						s1.7-0.7,2.9-0.7c1.2-0.1,1.7-0.1,2.9-0.1s1.7,0,2.9,0s1.7-0.1,2.9-0.1s1.7,0,2.9,0.1s1.7,0,2.9,0.1s1.7,0.4,2.9,0.4
						s1.7,0,2.9-0.1s1.7-0.9,2.9-1.2s1.7-0.4,2.9-0.4s1.7,0,2.9,0.1s1.7,0.3,2.9,0.3s1.7-0.3,2.9-0.3s1.7,0.2,2.9,0.2s1.7,0,2.9-0.1
						s1.7-0.1,2.9-0.2c1.2-0.1,1.7-0.2,2.9-0.3s1.7-0.2,2.9-0.2s1.7,0,2.9,0s1.7,0,2.9-0.2s1.7-1,2.9-1.7s1.7-1.6,2.9-1.6
						s1.7,0.1,2.9,0.1s1.7,0,2.9,0.1s1.7,0.1,2.9,0.2s1.7,0.2,2.9,0.2s1.7-0.3,2.9-0.4s1.7-0.1,2.9-0.1s1.7,0.2,2.9,0.2s1.7,0,2.9,0
						s1.7-0.3,2.9-0.6c1.2-0.3,1.7-0.5,2.9-0.7s1.7-0.3,2.9-0.5s1.7-0.1,2.9-0.3c1.2-0.2,1.7-0.3,2.9-0.7c1.2-0.3,1.7-1.1,2.9-1.1
						c1.2,0,1.7,0.3,2.9,0.3c1.2,0,1.7,0,2.9-0.2c1.2-0.2,1.7-0.7,2.9-1.1c1.2-0.4,1.7-0.4,2.9-0.8s1.7-1.4,2.9-1.4
						c1.2,0,1.7,0.4,2.9,0.4c1.2,0,1.7-0.1,2.9-0.1c1.2,0,1.7,0,2.9,0.1s1.7,0.2,2.9,0.2c1.2,0,1.7,0,2.9,0s1.7,0,2.9-0.1
						c1.2,0,1.7,0,2.9-0.1c1.2-0.1,1.7-0.4,2.9-0.4s1.7,0,2.9,0s1.7-0.3,2.9-0.3s1.7,0.4,2.9,0.4c1.2,0,1.7-1.5,2.9-1.5
						c1.2,0,1.7,0.3,2.9,0.6c1.2,0.2,1.7,0.6,2.9,0.6s1.7,0,2.9-0.2c1.2-0.1,1.7-0.4,2.9-0.4s1.7,0.1,2.9,0.1c1.2,0,1.7-0.2,2.9-0.2
						s1.7,0,2.9,0c1.2,0,1.7,0.2,2.9,0.2s1.7-0.1,2.9-0.2c1.2,0,1.7-0.1,2.9-0.1c1.2,0,1.7,0.2,2.9,0.3c1.2,0.1,1.7,0.3,2.9,0.3
						c1.2,0,1.7-0.5,2.9-0.5s1.7,0.8,2.9,0.8c1.2,0,1.7,0,2.9,0s1.7-0.1,2.9-0.1c1.2,0,1.7-0.1,2.9-0.1s1.7,0,2.9,0
						c1.2,0,1.7,0,2.9,0c1.2,0,1.7,0.2,2.9,0.2s1.7-0.1,2.9-0.2c1.2-0.1,1.7-0.2,2.9-0.2c1.2,0,1.7,0.1,2.9,0.2
						c1.2,0,1.7,0.1,2.9,0.1s1.7-0.1,2.9-0.4c1.2-0.3,1.7-1.1,2.9-1.1s1.7,0,2.9,0c1.2,0,1.7,0,2.9,0s1.7-0.2,2.9-0.2
						c1.2,0,1.7,0.1,2.9,0.1c1.2,0,1.7,0,2.9-0.1s1.7-0.3,2.9-0.5c1.2-0.2,1.7-0.4,2.9-0.6c1.2-0.1,1.7,0,2.9-0.2
						c1.2-0.1,1.7-0.4,2.9-0.6s1.7-0.2,2.9-0.2c1.2,0,1.7,0.1,2.9,0.1c1.2,0,1.7-0.1,2.9-0.1s1.7,0.1,2.9,0.1s1.7,0,2.9,0
						s1.7-0.1,2.9-0.1c1.2,0,1.7,0,2.9,0s1.7-0.4,2.9-0.4s1.7,0.1,2.9,0.1s1.7,0,2.9-0.1c1.2-0.1,1.7-0.3,2.9-0.3
						c1.2,0,1.7,0.9,2.9,0.9s1.7-0.4,2.9-0.6c1.2-0.2,1.7-0.2,2.9-0.2s1.7,0.2,2.9,0.2c1.2,0,1.7-0.2,2.9-0.2s1.7,0.3,2.9,0.3
						c1.2,0,1.7,0,2.9,0s1.7,0,2.9,0c1.2,0,1.7,0,2.9,0c1.2,0,1.7,0.3,2.9,0.3s1.7-0.2,2.9-0.6c1.2-0.3,1.7-1,2.9-1s1.7,0.2,2.9,0.2
						c1.2,0,1.7-0.5,2.9-1c1.2-0.5,1.7-1,2.9-1.3c1.2-0.3,1.7-0.2,2.9-0.3c1.2-0.2,1.7-0.3,2.9-0.4c1.2-0.2,1.7-0.4,2.9-0.5
						c1.2-0.1,1.7-0.1,2.9-0.1s1.7,0.2,2.9,0.2s1.7,0,2.9-0.1c1.2-0.1,1.7-0.2,2.9-0.3c1.2-0.1,1.7,0,2.9-0.1s1.7-0.1,2.9-0.2
						c1.2-0.1,1.7-0.2,2.9-0.2s1.7,0.1,2.9,0.1s1.7,0,2.9-0.1s1.7-0.7,2.9-0.7s1.7,0,2.9,0.1c1.2,0,1.7,0,2.9,0.2s1.7,0.5,2.9,0.7
						s1.7,0.2,2.9,0.2s1.7,0,2.9-0.1s1.7-0.2,2.9-0.3s1.7-0.3,2.9-0.4s1.7-0.1,2.9-0.3s1.7-0.4,2.9-0.8c1.2-0.4,1.7-1.3,2.9-1.3
						s1.7,0.2,2.9,0.2s1.7,0,2.9-0.2s1.7-0.6,2.9-1.1c1.2-0.4,1.7-0.4,2.9-1.1c1.2-0.8,1.7-1.9,2.9-2.6c1.2-0.8,1.7-1.1,2.9-1.1
						s1.7,0.2,2.9,0.6s1.7,1.3,2.9,1.3s1.7,0,2.9-0.6s1.7-2.6,2.9-2.7c1.2-0.1,1.7-0.1,2.9-0.1s1.7,0.4,2.9,0.8s1.7,0.8,2.9,1.2
						s1.7,0.7,2.9,0.7s1.7-0.1,2.9-0.2s1.7-0.3,2.9-0.3s1.7,0.3,2.9,0.5s1.7,0.2,2.9,0.3c1.2,0.2,1.7,0.2,2.9,0.4
						c1.2,0.3,1.7,1,2.9,1s1.7-0.2,2.9-0.2s1.7,0.2,2.9,0.2s1.7,0,2.9-0.1s1.7-0.5,2.9-0.7s1.7,0,2.9-0.2c1.2-0.1,1.7-0.5,2.9-0.5
						s1.7,0.2,2.9,0.3c1.2,0.1,1.7,0.3,2.9,0.3S634,8,635.2,8s1.7,0.1,2.9,0.1S639.8,8,641,8s1.7,0.1,2.9,0.2s1.7,0.2,2.9,0.2
						s1.7,0,2.9-0.1s1.7-0.3,2.9-0.3s1.7,0,2.9,0s1.7,0.1,2.9,0.1s1.7,0,2.9-0.1s1.7-0.5,2.9-0.6s1.7,0,2.9-0.1s1.7-0.2,2.9-0.4
						s1.7-0.2,2.9-0.6s1.7-1,2.9-1.3c1.2-0.3,1.7-0.3,2.9-0.3s1.7,0.3,2.9,0.5s1.7,0.2,2.9,0.4c1.2,0.2,1.7,0.2,2.9,0.4
						c1.2,0.2,1.7,0.4,2.9,0.5s1.7,0,2.9,0.1s1.7,0.2,2.9,0.2s1.7-0.1,2.9-0.2s1.7-0.3,2.9-0.3s1.7,0.1,2.9,0.3
						c1.2,0.2,1.7,0.4,2.9,0.8s1.7,1.1,2.9,1.1c1.2,0.1,1.7,0.1,2.9,0.1s1.7-0.2,2.9-0.2s1.7,0.1,2.9,0.4c1.2,0.4,1.7,0.8,2.9,1.3
						c1.2,0.6,1.7,1.1,2.9,1.6s1.7,0.6,2.9,0.9c1.2,0.2,1.7,0.1,2.9,0.3s1.7,0.8,2.9,0.8s1.7-0.7,2.9-1s1.7-0.2,2.9-0.4
						s1.7-0.4,2.9-0.5s1.7-0.2,2.9-0.2c1.2-0.1,1.7-0.1,2.9-0.1s1.7,0.1,2.9,0.1s1.7,0,2.9,0.1c1.2,0,1.7,0.1,2.9,0.1
						s1.7-0.2,2.9-0.3c1.2-0.2,1.7-0.4,2.9-0.6c1.2-0.1,1.7,0,2.9-0.2s1.7-0.6,2.9-0.6c1.2-0.1,1.7-0.1,2.9-0.1s1.7,0.2,2.9,0.2
						s1.7-0.2,2.9-0.4c1.2-0.1,1.7-0.1,2.9-0.3c1.2-0.3,1.7-0.6,2.9-1c1.2-0.3,1.7-0.6,2.9-0.7s1.7,0,2.9-0.1s1.7-0.3,2.9-0.3
						s1.7,0.5,2.9,0.8c1.2,0.3,1.7,0.5,2.9,0.7s1.7,0.3,2.9,0.3s1.7-0.1,2.9-0.1s1.7-0.1,2.9-0.1s1.7,0,2.9,0s1.7,0,2.9,0.4
						s1.7,1.2,2.9,1.6c1.2,0.4,1.7,0.5,2.9,0.5s1.7-0.1,2.9-0.1s1.7,0.1,2.9,0.1s1.7-0.5,2.9-1c1.2-0.4,1.7-1.3,2.9-1.3s1.7,0,2.9,0
						s1.7,0.2,2.9,0.3s1.7,0.3,2.9,0.3s1.7-0.1,2.9-0.1s1.7,0.6,2.9,1.3s1.7,1.3,2.9,2.1c1.2,0.8,1.7,1.3,2.9,1.8s1.7,0.9,2.9,0.9
						s1.7,0,2.9,0s1.7,0,2.9-0.1s1.7-0.2,2.9-0.5s1.7-0.8,2.9-1s1.7,0,2.9-0.2c1.2-0.1,1.7-0.4,2.9-0.5s1.7-0.2,2.9-0.2
						s1.7,0.3,2.9,0.6s2.9,0.8,2.9,0.8v26H14.6"/>
					<path class="st11" d="M14.6,30.2c0,0,1.7-0.1,2.9-0.2c1.2-0.1,1.7-0.1,2.9-0.1c1.2,0,1.7,0.1,2.9,0.2s1.7,0.1,2.9,0.1
						c1.2,0,1.7,0.1,2.9,0.1c1.2,0,1.7-0.1,2.9-0.1s1.7,0,2.9,0s1.7,0,2.9,0.1s1.7,0.2,2.9,0.3s1.7,0.3,2.9,0.3s1.7-0.2,2.9-0.2
						s1.7,0,2.9,0s1.7,0.1,2.9,0.1s1.7,0,2.9-0.1s1.7-0.1,2.9-0.1s1.7,0.1,2.9,0.2c1.2,0,1.7,0,2.9,0.1c1.2,0,1.7,0.1,2.9,0.1
						s1.7-0.1,2.9-0.1s1.7,0.1,2.9,0.1s1.7-0.2,2.9-0.2s1.7,0,2.9,0.1c1.2,0.1,1.7,0.3,2.9,0.5s1.7,0.7,2.9,0.7s1.7,0,2.9-0.1
						c1.2-0.1,1.7-0.2,2.9-0.2c1.2,0,1.7,0,2.9,0.1c1.2,0.1,1.7,0.2,2.9,0.2s1.7-0.1,2.9-0.1c1.2,0,1.7,0.2,2.9,0.6s1.7,1.4,2.9,1.4
						s1.7-0.9,2.9-0.9c1.2,0,1.7,2.2,2.9,2.8c1.2,0.6,1.7,0.6,2.9,0.6s1.7-0.2,2.9-0.2c1.2,0,1.7,0.3,2.9,0.3c1.2,0,1.7-0.1,2.9-0.2
						c1.2-0.1,1.7-0.1,2.9-0.2c1.2-0.1,1.7-0.1,2.9-0.3c1.2-0.1,1.7-0.4,2.9-0.4s1.7,0.3,2.9,0.5s1.7,0.3,2.9,0.6
						c1.2,0.2,1.7,0.4,2.9,0.6c1.2,0.2,1.7,0.2,2.9,0.2s1.7-0.1,2.9-0.1s1.7,0,2.9,0.1s1.7,0.2,2.9,0.2s1.7-0.2,2.9-0.4
						s1.7-0.7,2.9-0.7c1.2-0.1,1.7-0.1,2.9-0.1s1.7,0,2.9,0s1.7-0.1,2.9-0.1s1.7,0,2.9,0.1s1.7,0,2.9,0.1s1.7,0.4,2.9,0.4
						s1.7,0,2.9-0.1s1.7-0.9,2.9-1.2s1.7-0.4,2.9-0.4s1.7,0,2.9,0.1s1.7,0.3,2.9,0.3s1.7-0.3,2.9-0.3s1.7,0.2,2.9,0.2s1.7,0,2.9-0.1
						s1.7-0.1,2.9-0.2c1.2-0.1,1.7-0.2,2.9-0.3s1.7-0.2,2.9-0.2s1.7,0,2.9,0s1.7,0,2.9-0.2s1.7-1,2.9-1.7s1.7-1.6,2.9-1.6
						s1.7,0.1,2.9,0.1s1.7,0,2.9,0.1s1.7,0.1,2.9,0.2s1.7,0.2,2.9,0.2s1.7-0.3,2.9-0.4s1.7-0.1,2.9-0.1s1.7,0.2,2.9,0.2s1.7,0,2.9,0
						s1.7-0.3,2.9-0.6c1.2-0.3,1.7-0.5,2.9-0.7s1.7-0.3,2.9-0.5s1.7-0.1,2.9-0.3c1.2-0.2,1.7-0.3,2.9-0.7c1.2-0.3,1.7-1.1,2.9-1.1
						c1.2,0,1.7,0.3,2.9,0.3c1.2,0,1.7,0,2.9-0.2c1.2-0.2,1.7-0.7,2.9-1.1c1.2-0.4,1.7-0.4,2.9-0.8s1.7-1.4,2.9-1.4
						c1.2,0,1.7,0.4,2.9,0.4c1.2,0,1.7-0.1,2.9-0.1c1.2,0,1.7,0,2.9,0.1s1.7,0.2,2.9,0.2c1.2,0,1.7,0,2.9,0s1.7,0,2.9-0.1
						c1.2,0,1.7,0,2.9-0.1c1.2-0.1,1.7-0.4,2.9-0.4s1.7,0,2.9,0s1.7-0.3,2.9-0.3s1.7,0.4,2.9,0.4c1.2,0,1.7-1.5,2.9-1.5
						c1.2,0,1.7,0.3,2.9,0.6c1.2,0.2,1.7,0.6,2.9,0.6s1.7,0,2.9-0.2c1.2-0.1,1.7-0.4,2.9-0.4s1.7,0.1,2.9,0.1c1.2,0,1.7-0.2,2.9-0.2
						s1.7,0,2.9,0c1.2,0,1.7,0.2,2.9,0.2s1.7-0.1,2.9-0.2c1.2,0,1.7-0.1,2.9-0.1c1.2,0,1.7,0.2,2.9,0.3c1.2,0.1,1.7,0.3,2.9,0.3
						c1.2,0,1.7-0.5,2.9-0.5s1.7,0.8,2.9,0.8c1.2,0,1.7,0,2.9,0s1.7-0.1,2.9-0.1c1.2,0,1.7-0.1,2.9-0.1s1.7,0,2.9,0
						c1.2,0,1.7,0,2.9,0c1.2,0,1.7,0.2,2.9,0.2s1.7-0.1,2.9-0.2c1.2-0.1,1.7-0.2,2.9-0.2c1.2,0,1.7,0.1,2.9,0.2
						c1.2,0,1.7,0.1,2.9,0.1s1.7-0.1,2.9-0.4c1.2-0.3,1.7-1.1,2.9-1.1s1.7,0,2.9,0c1.2,0,1.7,0,2.9,0s1.7-0.2,2.9-0.2
						c1.2,0,1.7,0.1,2.9,0.1c1.2,0,1.7,0,2.9-0.1s1.7-0.3,2.9-0.5c1.2-0.2,1.7-0.4,2.9-0.6c1.2-0.1,1.7,0,2.9-0.2
						c1.2-0.1,1.7-0.4,2.9-0.6s1.7-0.2,2.9-0.2c1.2,0,1.7,0.1,2.9,0.1c1.2,0,1.7-0.1,2.9-0.1s1.7,0.1,2.9,0.1s1.7,0,2.9,0
						s1.7-0.1,2.9-0.1c1.2,0,1.7,0,2.9,0s1.7-0.4,2.9-0.4s1.7,0.1,2.9,0.1s1.7,0,2.9-0.1c1.2-0.1,1.7-0.3,2.9-0.3
						c1.2,0,1.7,0.9,2.9,0.9s1.7-0.4,2.9-0.6c1.2-0.2,1.7-0.2,2.9-0.2s1.7,0.2,2.9,0.2c1.2,0,1.7-0.2,2.9-0.2s1.7,0.3,2.9,0.3
						c1.2,0,1.7,0,2.9,0s1.7,0,2.9,0c1.2,0,1.7,0,2.9,0c1.2,0,1.7,0.3,2.9,0.3s1.7-0.2,2.9-0.6c1.2-0.3,1.7-1,2.9-1s1.7,0.2,2.9,0.2
						c1.2,0,1.7-0.5,2.9-1c1.2-0.5,1.7-1,2.9-1.3c1.2-0.3,1.7-0.2,2.9-0.3c1.2-0.2,1.7-0.3,2.9-0.4c1.2-0.2,1.7-0.4,2.9-0.5
						c1.2-0.1,1.7-0.1,2.9-0.1s1.7,0.2,2.9,0.2s1.7,0,2.9-0.1c1.2-0.1,1.7-0.2,2.9-0.3c1.2-0.1,1.7,0,2.9-0.1s1.7-0.1,2.9-0.2
						c1.2-0.1,1.7-0.2,2.9-0.2s1.7,0.1,2.9,0.1s1.7,0,2.9-0.1s1.7-0.7,2.9-0.7s1.7,0,2.9,0.1c1.2,0,1.7,0,2.9,0.2s1.7,0.5,2.9,0.7
						s1.7,0.2,2.9,0.2s1.7,0,2.9-0.1s1.7-0.2,2.9-0.3s1.7-0.3,2.9-0.4s1.7-0.1,2.9-0.3s1.7-0.4,2.9-0.8c1.2-0.4,1.7-1.3,2.9-1.3
						s1.7,0.2,2.9,0.2s1.7,0,2.9-0.2s1.7-0.6,2.9-1.1c1.2-0.4,1.7-0.4,2.9-1.1c1.2-0.8,1.7-1.9,2.9-2.6c1.2-0.8,1.7-1.1,2.9-1.1
						s1.7,0.2,2.9,0.6s1.7,1.3,2.9,1.3s1.7,0,2.9-0.6s1.7-2.6,2.9-2.7c1.2-0.1,1.7-0.1,2.9-0.1s1.7,0.4,2.9,0.8s1.7,0.8,2.9,1.2
						s1.7,0.7,2.9,0.7s1.7-0.1,2.9-0.2s1.7-0.3,2.9-0.3s1.7,0.3,2.9,0.5s1.7,0.2,2.9,0.3c1.2,0.2,1.7,0.2,2.9,0.4
						c1.2,0.3,1.7,1,2.9,1s1.7-0.2,2.9-0.2s1.7,0.2,2.9,0.2s1.7,0,2.9-0.1s1.7-0.5,2.9-0.7s1.7,0,2.9-0.2c1.2-0.1,1.7-0.5,2.9-0.5
						s1.7,0.2,2.9,0.3c1.2,0.1,1.7,0.3,2.9,0.3S634,8,635.2,8s1.7,0.1,2.9,0.1S639.8,8,641,8s1.7,0.1,2.9,0.2s1.7,0.2,2.9,0.2
						s1.7,0,2.9-0.1s1.7-0.3,2.9-0.3s1.7,0,2.9,0s1.7,0.1,2.9,0.1s1.7,0,2.9-0.1s1.7-0.5,2.9-0.6s1.7,0,2.9-0.1s1.7-0.2,2.9-0.4
						s1.7-0.2,2.9-0.6s1.7-1,2.9-1.3c1.2-0.3,1.7-0.3,2.9-0.3s1.7,0.3,2.9,0.5s1.7,0.2,2.9,0.4c1.2,0.2,1.7,0.2,2.9,0.4
						c1.2,0.2,1.7,0.4,2.9,0.5s1.7,0,2.9,0.1s1.7,0.2,2.9,0.2s1.7-0.1,2.9-0.2s1.7-0.3,2.9-0.3s1.7,0.1,2.9,0.3
						c1.2,0.2,1.7,0.4,2.9,0.8s1.7,1.1,2.9,1.1c1.2,0.1,1.7,0.1,2.9,0.1s1.7-0.2,2.9-0.2s1.7,0.1,2.9,0.4c1.2,0.4,1.7,0.8,2.9,1.3
						c1.2,0.6,1.7,1.1,2.9,1.6s1.7,0.6,2.9,0.9c1.2,0.2,1.7,0.1,2.9,0.3s1.7,0.8,2.9,0.8s1.7-0.7,2.9-1s1.7-0.2,2.9-0.4
						s1.7-0.4,2.9-0.5s1.7-0.2,2.9-0.2c1.2-0.1,1.7-0.1,2.9-0.1s1.7,0.1,2.9,0.1s1.7,0,2.9,0.1c1.2,0,1.7,0.1,2.9,0.1
						s1.7-0.2,2.9-0.3c1.2-0.2,1.7-0.4,2.9-0.6c1.2-0.1,1.7,0,2.9-0.2s1.7-0.6,2.9-0.6c1.2-0.1,1.7-0.1,2.9-0.1s1.7,0.2,2.9,0.2
						s1.7-0.2,2.9-0.4c1.2-0.1,1.7-0.1,2.9-0.3c1.2-0.3,1.7-0.6,2.9-1c1.2-0.3,1.7-0.6,2.9-0.7s1.7,0,2.9-0.1s1.7-0.3,2.9-0.3
						s1.7,0.5,2.9,0.8c1.2,0.3,1.7,0.5,2.9,0.7s1.7,0.3,2.9,0.3s1.7-0.1,2.9-0.1s1.7-0.1,2.9-0.1s1.7,0,2.9,0s1.7,0,2.9,0.4
						s1.7,1.2,2.9,1.6c1.2,0.4,1.7,0.5,2.9,0.5s1.7-0.1,2.9-0.1s1.7,0.1,2.9,0.1s1.7-0.5,2.9-1c1.2-0.4,1.7-1.3,2.9-1.3s1.7,0,2.9,0
						s1.7,0.2,2.9,0.3s1.7,0.3,2.9,0.3s1.7-0.1,2.9-0.1s1.7,0.6,2.9,1.3s1.7,1.3,2.9,2.1c1.2,0.8,1.7,1.3,2.9,1.8s1.7,0.9,2.9,0.9
						s1.7,0,2.9,0s1.7,0,2.9-0.1s1.7-0.2,2.9-0.5s1.7-0.8,2.9-1s1.7,0,2.9-0.2c1.2-0.1,1.7-0.4,2.9-0.5s1.7-0.2,2.9-0.2
						s1.7,0.3,2.9,0.6s2.9,0.8,2.9,0.8"/>
				</g>
			</g>
		</g>
		<g transform="translate(24,381) scale(1 1)">
		</g>
	</g>
	<g>
		<rect x="40.2" y="381.7" class="st12" width="863.2" height="40"/>
		<path class="st13" d="M16.7,382.2h22.7v54h863.2v-54h22.7 M41,382.2h861.7"/>
	</g>
	<g transform="translate(576,393)">
		<rect x="320.4" y="1.2" class="st14" width="12.5" height="15"/>
		<path class="st14" d="M325,4.7v8 M328.2,4.7v8"/>
	</g>
	<text transform="matrix(1 0 0 1 443.1888 22.665)" class="st15 st16 st17">AUD/JPY</text>
	<g transform="translate(25,393)">
		<rect x="8.1" y="1.2" class="st14" width="12.5" height="15"/>
		<path class="st14" d="M12.8,4.7v8 M15.9,4.7v8"/>
	</g>
	<g>
		<text transform="matrix(1 0 0 1 109.4656 354.665)" class="st18 st16 st19">03:18:00</text>
		<text transform="matrix(1 0 0 1 285.5215 354.665)" class="st18 st16 st19">03:20:00</text>
		<text transform="matrix(1 0 0 1 470.9996 354.665)" class="st18 st16 st19">03:22:00</text>
		<text transform="matrix(1 0 0 1 654.7281 354.665)" class="st18 st16 st19">03:24:00</text>
		<text transform="matrix(1 0 0 1 839.5798 354.665)" class="st18 st16 st19">03:26:00</text>
	</g>
	<g>
		<text transform="matrix(1 0 0 1 328.4359 417.665)" class="st20 st16 st19">03:20</text>
		<text transform="matrix(1 0 0 1 763.6216 417.665)" class="st20 st16 st19">03:25</text>
	</g>
	<g>
		<text transform="matrix(1 0 0 1 16.6667 333.665)" class="st18 st16 st19">84.9</text>
		<text transform="matrix(1 0 0 1 16.6667 260.665)" class="st18 st16 st19">85</text>
		<text transform="matrix(1 0 0 1 16.6667 187.665)" class="st18 st16 st19">85.1</text>
		<text transform="matrix(1 0 0 1 16.6667 114.665)" class="st18 st16 st19">85.2</text>
	</g>
	<text transform="matrix(1 0 0 1 16.6667 40.9984)" class="st18 st16 st19">85.3</text>
</g>
</svg>
