<svg id="Layer_1" xmlns="http://www.w3.org/2000/svg" viewBox="0 0 940 500"><style>.st0{fill:#f3f3f3}.st1{enable-background:new}.st2{fill:#020202}.st3{fill:#2a3252}.st4,.st5{fill:#fff}.st5{stroke:#464a4e;stroke-miterlimit:10}.st6{fill:#e98026}.st7,.st8{fill:#fff;stroke:#dfdfde;stroke-miterlimit:10}.st8{stroke-width:1.0518}.st9{fill:#318a42}.st10{stroke:#020202}.st10,.st11,.st12,.st13{fill:none;stroke-miterlimit:10}.st11{stroke-dasharray:.9744,.9744;stroke:#020202}.st12,.st13{stroke:#cac8ba}.st13{fill:#fefdf0}</style><path class="st0" d="M280.8 93.7h-91v-22c0-2.2 1.8-4 4-4h83c2.2 0 4 1.8 4 4v22z"/><g class="st1"><path class="st2" d="M203.5 85.1h-1.3V81h-4.5v4.1h-1.3v-9.2h1.3V80h4.5v-4.2h1.3v9.3zM206.9 76.5h-1.3v-1.3h1.3v1.3zm0 8.6h-1.3v-6.9h1.3v6.9zM208.5 81.8c0-1.1.2-2 .7-2.7s1.1-1 2-1c.4 0 .8.1 1.1.3s.6.4.8.8l.2-.9h1v6.9c0 .9-.3 1.6-.8 2s-1.3.7-2.2.7c-.3 0-.7 0-1.1-.1-.4-.1-.7-.2-1-.4l.3-1c.2.1.5.2.8.3s.6.1.9.1c.6 0 1.1-.1 1.3-.4.3-.3.4-.7.4-1.3v-.8c-.2.3-.5.5-.8.7-.3.1-.7.2-1.1.2-.8 0-1.5-.3-2-.9s-.7-1.4-.7-2.4v-.1zm1.3.1c0 .7.1 1.2.4 1.7s.7.6 1.3.6c.4 0 .7-.1.9-.3.3-.2.5-.4.6-.7V80c-.2-.3-.4-.5-.6-.7-.3-.2-.6-.3-.9-.3-.6 0-1 .2-1.3.7s-.4 1.1-.4 1.9v.3zM217.4 79.1c.2-.3.5-.6.9-.8.3-.2.7-.3 1.1-.3.7 0 1.3.2 1.7.7.4.4.6 1.1.6 2V85h-1.3v-4.3c0-.6-.1-1-.4-1.3-.2-.3-.6-.4-1.1-.4-.3 0-.7.1-.9.2-.3.2-.5.4-.7.7V85H216v-9.9h1.3v4zM226.4 85.2c-1 0-1.7-.3-2.3-1-.6-.6-.8-1.5-.8-2.5v-.3c0-1 .3-1.8.9-2.4.6-.6 1.3-1 2.1-1 .9 0 1.6.3 2.1.8s.7 1.3.7 2.2v.8h-4.5c0 .7.2 1.2.5 1.6.3.4.8.6 1.4.6.4 0 .8-.1 1.1-.2.3-.1.6-.3.8-.5l.5.8c-.2.2-.6.4-1 .6s-.9.5-1.5.5zm-.2-6.1c-.4 0-.8.2-1.1.5-.3.4-.5.8-.5 1.3h3.2v-.2c0-.5-.1-.9-.4-1.2s-.7-.4-1.2-.4zM233.7 79.3h-.6c-.3 0-.6.1-.8.2-.2.2-.4.4-.5.7v4.9h-1.3v-6.9h1.1l.1 1c.2-.4.4-.6.7-.8.3-.2.6-.3 1-.3h.5l-.2 1.2zM235.1 85.9H234l3.9-10h1.1l-3.9 10zM241.8 84.1h4.4v1h-5.6v-9.2h1.3v8.2zM247 81.6c0-1 .3-1.9.8-2.5s1.3-1 2.2-1c1 0 1.7.3 2.3 1 .6.7.8 1.5.8 2.5v.1c0 1-.3 1.9-.8 2.5-.6.7-1.3 1-2.2 1s-1.7-.3-2.2-1c-.6-.7-.8-1.5-.8-2.5v-.1zm1.3.1c0 .7.2 1.3.5 1.8s.8.7 1.4.7c.6 0 1-.2 1.4-.7s.5-1.1.5-1.8v-.1c0-.7-.2-1.3-.5-1.8s-.8-.7-1.4-.7c-.6 0-1 .2-1.4.7-.3.5-.5 1.1-.5 1.8v.1zM256.5 82.6l.1.8.2-.8 1.4-4.4h1l1.4 4.4.2.9.2-.9 1.1-4.4h1.2l-2 6.9h-1l-1.3-4.2-.3-1.2-.3 1.2-1.3 4.2h-1l-2-6.9h1.2l1.2 4.4zM267.4 85.2c-1 0-1.7-.3-2.3-1-.6-.6-.8-1.5-.8-2.5v-.3c0-1 .3-1.8.9-2.4.6-.6 1.3-1 2.1-1 .9 0 1.6.3 2.1.8s.7 1.3.7 2.2v.8h-4.5c0 .7.2 1.2.5 1.6.3.4.8.6 1.4.6.4 0 .8-.1 1.1-.2.3-.1.6-.3.8-.5l.5.8c-.2.2-.6.4-1 .6s-.9.5-1.5.5zm-.2-6.1c-.4 0-.8.2-1.1.5-.3.4-.5.8-.5 1.3h3.2v-.2c0-.5-.1-.9-.4-1.2s-.7-.4-1.2-.4zM274.7 79.3h-.6c-.3 0-.6.1-.8.2-.2.2-.4.4-.5.7v4.9h-1.3v-6.9h1.1l.1 1c.2-.4.4-.6.7-.8.3-.2.6-.3 1-.3h.5l-.2 1.2z"/></g><path class="st0" d="M388.7 93.7H282.8v-22c0-2.2 1.8-4 4-4h97.9c2.2 0 4 1.8 4 4v22z"/><g class="st1"><path class="st2" d="M294.7 76.8h-3v8.3h-1.3v-8.3h-3v-1h7.2v1zM295.1 81.6c0-1 .3-1.9.8-2.5s1.3-1 2.2-1c1 0 1.7.3 2.3 1 .6.7.8 1.5.8 2.5v.1c0 1-.3 1.9-.8 2.5-.6.7-1.3 1-2.2 1s-1.7-.3-2.2-1c-.6-.7-.8-1.5-.8-2.5v-.1zm1.2.1c0 .7.2 1.3.5 1.8s.8.7 1.4.7c.6 0 1-.2 1.4-.7s.5-1.1.5-1.8v-.1c0-.7-.2-1.3-.5-1.8s-.8-.7-1.4-.7c-.6 0-1 .2-1.4.7-.3.5-.5 1.1-.5 1.8v.1zM307.1 84.1c-.2.4-.5.7-.8.9s-.7.3-1.2.3c-.7 0-1.3-.2-1.8-.7s-.6-1.2-.6-2.2v-4h1.3v4.1c0 .7.1 1.2.3 1.5s.6.4 1 .4.8-.1 1.1-.3c.3-.2.5-.4.7-.8v-5h1.3v6.9h-1.1l-.2-1.1zM312.9 84.2c.4 0 .8-.1 1.1-.4.3-.3.5-.6.5-.9h1.1c0 .6-.2 1.1-.8 1.6-.5.5-1.2.7-1.9.7-1 0-1.8-.3-2.3-1-.5-.7-.8-1.5-.8-2.5v-.3c0-1 .3-1.8.8-2.4.5-.7 1.3-1 2.3-1 .8 0 1.5.2 2 .7.5.5.8 1.1.7 1.7h-1.1c0-.4-.1-.8-.4-1.1s-.7-.4-1.1-.4c-.7 0-1.1.2-1.4.7-.3.5-.4 1-.4 1.7v.3c0 .7.1 1.3.4 1.8.2.6.7.8 1.3.8zM318.3 79.1c.2-.3.5-.6.9-.8.3-.2.7-.3 1.1-.3.7 0 1.3.2 1.7.7.4.4.6 1.1.6 2V85h-1.3v-4.3c0-.6-.1-1-.4-1.3-.2-.3-.6-.4-1.1-.4-.3 0-.7.1-.9.2-.3.2-.5.4-.7.7V85H317v-9.9h1.3v4zM324.7 85.9h-1.1l3.9-10h1.1l-3.9 10zM337 85.1h-1.3l-4.4-7.1v7.1H330v-9.2h1.3l4.4 7.1v-7.1h1.3v9.2zM338.8 81.6c0-1 .3-1.9.8-2.5s1.3-1 2.2-1c1 0 1.7.3 2.3 1 .6.7.8 1.5.8 2.5v.1c0 1-.3 1.9-.8 2.5-.6.7-1.3 1-2.2 1s-1.7-.3-2.2-1c-.6-.7-.8-1.5-.8-2.5v-.1zm1.2.1c0 .7.2 1.3.5 1.8s.8.7 1.4.7c.6 0 1-.2 1.4-.7s.5-1.1.5-1.8v-.1c0-.7-.2-1.3-.5-1.8s-.8-.7-1.4-.7c-.6 0-1 .2-1.4.7-.3.5-.5 1.1-.5 1.8v.1zM356.2 76.8h-3v8.3H352v-8.3h-3v-1h7.2v1zM356.5 81.6c0-1 .3-1.9.8-2.5s1.3-1 2.2-1c1 0 1.7.3 2.3 1 .6.7.8 1.5.8 2.5v.1c0 1-.3 1.9-.8 2.5-.6.7-1.3 1-2.2 1s-1.7-.3-2.2-1c-.6-.7-.8-1.5-.8-2.5v-.1zm1.3.1c0 .7.2 1.3.5 1.8s.8.7 1.4.7c.6 0 1-.2 1.4-.7s.5-1.1.5-1.8v-.1c0-.7-.2-1.3-.5-1.8s-.8-.7-1.4-.7c-.6 0-1 .2-1.4.7-.3.5-.5 1.1-.5 1.8v.1zM368.6 84.1c-.2.4-.5.7-.8.9s-.7.3-1.2.3c-.7 0-1.3-.2-1.8-.7s-.6-1.2-.6-2.2v-4h1.3v4.1c0 .7.1 1.2.3 1.5s.6.4 1 .4.8-.1 1.1-.3c.3-.2.5-.4.7-.8v-5h1.3v6.9h-1.1l-.2-1.1zM374.4 84.2c.4 0 .8-.1 1.1-.4.3-.3.5-.6.5-.9h1.1c0 .6-.2 1.1-.8 1.6-.5.5-1.2.7-1.9.7-1 0-1.8-.3-2.3-1-.5-.7-.8-1.5-.8-2.5v-.3c0-1 .3-1.8.8-2.4.5-.7 1.3-1 2.3-1 .8 0 1.5.2 2 .7.5.5.8 1.1.7 1.7H376c0-.4-.1-.8-.4-1.1s-.7-.4-1.1-.4c-.7 0-1.1.2-1.4.7-.3.5-.4 1-.4 1.7v.3c0 .7.1 1.3.4 1.8.2.6.6.8 1.3.8zM379.7 79.1c.2-.3.5-.6.9-.8.3-.2.7-.3 1.1-.3.7 0 1.3.2 1.7.7.4.4.6 1.1.6 2V85h-1.3v-4.3c0-.6-.1-1-.4-1.3-.2-.3-.6-.4-1.1-.4-.3 0-.7.1-.9.2-.3.2-.5.4-.7.7V85h-1.3v-9.9h1.3v4z"/></g><path class="st3" d="M455.7 93.7h-65v-22c0-2.2 1.8-4 4-4h57c2.2 0 4 1.8 4 4v22z"/><g class="st1"><path class="st4" d="M402.4 82.8c0-.4-.2-.8-.5-1.1-.3-.3-.9-.5-1.7-.7-1-.2-1.7-.6-2.3-1-.5-.5-.8-1-.8-1.7s.3-1.3.9-1.8c.6-.5 1.4-.7 2.3-.7 1 0 1.8.3 2.4.8.6.6.9 1.2.9 1.9h-1.2c0-.5-.2-1-.5-1.3-.4-.3-.9-.5-1.5-.5s-1.1.1-1.4.4c-.3.3-.5.6-.5 1.1 0 .4.2.7.5 1s.9.5 1.8.7c1 .2 1.7.6 2.2 1.1s.8 1.1.8 1.7c0 .7-.3 1.3-.9 1.8s-1.4.7-2.4.7c-.9 0-1.7-.2-2.4-.8-.7-.5-1.1-1.2-1-2h1.2c0 .6.2 1 .7 1.4.4.3 1 .5 1.6.5.6 0 1.1-.1 1.5-.4s.3-.7.3-1.1zM406.9 76.6v1.7h1.3v.9h-1.3v4.2c0 .3.1.5.2.7.1.1.3.2.5.2h.2c.1 0 .2 0 .2-.1l.2.9c-.1.1-.2.1-.4.2-.2 0-.4.1-.5.1-.5 0-.9-.2-1.2-.5s-.5-.8-.5-1.4v-4.2h-1.1v-.9h1.1v-1.7h1.3zM413.9 85.1c0-.2-.1-.4-.1-.5v-.5c-.2.3-.5.6-.9.8-.4.2-.8.3-1.2.3-.7 0-1.3-.2-1.6-.5-.4-.4-.6-.9-.6-1.5 0-.7.3-1.2.8-1.5.5-.4 1.3-.6 2.2-.6h1.4v-.7c0-.4-.1-.7-.4-1-.2-.2-.6-.4-1-.4s-.7.1-1 .3c-.3.2-.4.5-.4.7h-1.2c0-.5.2-1 .7-1.4.5-.4 1.1-.6 1.9-.6.8 0 1.4.2 1.9.6s.7 1 .7 1.7v4c0 .2.1.5.1.7h-1.3zm-2-.9c.5 0 .9-.1 1.2-.3s.6-.5.7-.8V82h-1.4c-.5 0-.9.1-1.2.4-.3.3-.5.6-.5.9 0 .3.1.5.3.7.2.1.5.2.9.2zM418.9 82.5l.2.9 1.7-5.2h1.4l-2.9 7.9c-.2.5-.4.9-.7 1.2-.3.3-.8.5-1.3.5h-.4c-.2 0-.3 0-.4-.1l.1-1h.5c.3 0 .5-.1.7-.4.2-.2.3-.5.4-.8l.3-.7-2.6-6.7h1.4l1.6 4.4zM423.6 85.9h-1.1l3.9-10h1.1l-3.9 10zM434.4 80.8h-4.2v3.3h4.9v1H429v-9.2h6.1v1h-4.8v3h4.2v.9zM437.4 78.2l.1 1c.2-.4.5-.6.9-.8.3-.2.7-.3 1.2-.3.7 0 1.3.2 1.7.7s.6 1.1.6 2v4.3h-1.3v-4.3c0-.6-.1-1-.4-1.3-.2-.3-.6-.4-1.1-.4-.4 0-.7.1-1 .3-.3.2-.5.4-.7.7v5h-1.3v-6.9h1.3zM443.4 81.8c0-1.1.2-2 .7-2.7.5-.7 1.1-1 2-1 .4 0 .8.1 1.1.2.3.1.6.4.8.6v-3.8h1.3V85h-1l-.1-.8c-.2.3-.5.6-.8.7s-.7.2-1.1.2c-.8 0-1.5-.3-2-.9s-.7-1.4-.7-2.4zm1.2.1c0 .7.1 1.2.4 1.7s.7.6 1.3.6c.4 0 .7-.1.9-.3.3-.2.5-.4.6-.7V80c-.2-.3-.4-.5-.6-.7-.3-.2-.6-.3-.9-.3-.6 0-1 .2-1.3.7-.3.5-.4 1.1-.4 1.9v.3z"/></g><path class="st5" d="M190.3 93.7h520v368h-520v-368z"/><g class="st1"><path class="st6" d="M196.9 42.9h-4.2V47h-1.3v-9.2h6.1v1h-4.9V42h4.2v.9zM198.3 43.5c0-1 .3-1.9.8-2.5s1.3-1 2.2-1c1 0 1.7.3 2.3 1 .6.7.8 1.5.8 2.5v.1c0 1-.3 1.9-.8 2.5-.6.7-1.3 1-2.2 1s-1.7-.3-2.2-1c-.6-.7-.8-1.5-.8-2.5v-.1zm1.3.2c0 .7.2 1.3.5 1.8s.8.7 1.4.7c.6 0 1-.2 1.4-.7s.5-1.1.5-1.8v-.1c0-.7-.2-1.3-.5-1.8s-.8-.7-1.4-.7c-.6 0-1 .2-1.4.7-.3.5-.5 1.1-.5 1.8v.1zM209.3 41.3h-.6c-.3 0-.6.1-.8.2-.2.2-.4.4-.5.7V47H206v-6.9h1.1l.1 1c.2-.4.4-.6.7-.8.3-.2.6-.3 1-.3h.5l-.1 1.3zM213.2 47.1c-1 0-1.7-.3-2.3-1-.6-.6-.8-1.5-.8-2.5v-.3c0-1 .3-1.8.9-2.4.6-.6 1.3-1 2.1-1 .9 0 1.6.3 2.1.8s.7 1.3.7 2.2v.8h-4.5c0 .7.2 1.2.5 1.6.3.4.8.6 1.4.6.4 0 .8-.1 1.1-.2.3-.1.6-.3.8-.5l.5.8c-.2.2-.6.4-1 .6s-.9.5-1.5.5zM213 41c-.4 0-.8.2-1.1.5-.3.4-.5.8-.5 1.3h3.2v-.2c0-.5-.1-.9-.4-1.2s-.7-.4-1.2-.4zM219.6 42.7l1.5-2.5h1.5l-2.2 3.4 2.3 3.5h-1.4l-1.5-2.6-1.5 2.6h-1.4l2.3-3.5-2.2-3.4h1.4l1.2 2.5z"/></g><path class="st7" d="M386.4 167.8H276c-3.3 0-6-2.7-6-6v-15c0-3.3 2.7-6 6-6h110.4c3.3 0 6 2.7 6 6v15c0 3.3-2.7 6-6 6z"/><g class="st1"><path class="st2" d="M283.4 146.7l4.1 10.4h.1l4.1-10.4h2.2v12.8h-1.7v-5.1l.2-5.2-4.1 10.3H287l-4.1-10.2.2 5.2v5.1h-1.7v-12.8h2zM302.6 159.5c-.1-.3-.1-.5-.1-.8 0-.2-.1-.4-.1-.7-.3.5-.7.8-1.3 1.1-.5.3-1.1.5-1.7.5-1 0-1.7-.3-2.3-.8-.5-.5-.8-1.2-.8-2.1 0-.9.4-1.6 1.1-2.1s1.7-.8 3-.8h1.9v-.8c0-.6-.2-1-.5-1.3-.3-.3-.8-.5-1.4-.5-.6 0-1 .1-1.4.4s-.5.6-.5 1h-1.7v-.1c0-.7.3-1.3 1-1.9s1.6-.9 2.7-.9 1.9.3 2.6.8 1 1.3 1 2.4v4.6c0 .3 0 .7.1 1s.1.6.2.9h-1.8zm-2.9-1.2c.6 0 1.2-.2 1.7-.5s.8-.7 1-1.1v-1.5h-1.9c-.7 0-1.3.2-1.7.5-.4.4-.6.8-.6 1.2 0 .4.1.8.4 1s.6.4 1.1.4zM308.6 150v10.3c0 1-.3 1.7-.8 2.3s-1.2.8-2.1.8h-.5c-.1 0-.3-.1-.5-.1l.1-1.4c.1 0 .2.1.4.1h.4c.4 0 .7-.1.9-.4s.3-.7.3-1.3V150h1.8zm-.1-2.5h-1.7v-1.7h1.7v1.7zM310.9 154.7c0-1.4.4-2.6 1.1-3.5s1.8-1.4 3.1-1.4 2.4.5 3.1 1.4 1.1 2.1 1.1 3.5v.2c0 1.4-.4 2.6-1.1 3.5s-1.8 1.4-3.1 1.4-2.4-.5-3.1-1.4c-.8-.9-1.1-2.1-1.1-3.5v-.2zm1.7.2c0 1 .2 1.8.6 2.5s1.1 1 1.9 1c.8 0 1.5-.3 1.9-1s.6-1.5.6-2.5v-.2c0-1-.2-1.8-.6-2.5s-1.1-1-1.9-1c-.8 0-1.5.3-1.9 1s-.6 1.5-.6 2.5v.2zM326 151.5l-.9-.1c-.5 0-.8.1-1.2.3s-.6.5-.7.9v6.8h-1.7V150h1.5l.2 1.4c.3-.5.6-.9 1-1.2s.9-.4 1.4-.4h.4c.1 0 .2 0 .3.1l-.3 1.6zM334.2 154.4v5.1h-1.7v-12.8h4.9c1.4 0 2.4.4 3.2 1.1s1.1 1.6 1.1 2.8c0 1.2-.4 2.1-1.1 2.8-.8.7-1.8 1-3.2 1h-3.2zm0-1.4h3.2c.9 0 1.5-.2 1.9-.7s.6-1.1.6-1.8-.2-1.3-.6-1.8-1.1-.7-1.9-.7h-3.2v5zM349.4 159.5c-.1-.3-.1-.5-.1-.8 0-.2-.1-.4-.1-.7-.3.5-.7.8-1.3 1.1-.5.3-1.1.5-1.7.5-1 0-1.7-.3-2.3-.8-.5-.5-.8-1.2-.8-2.1 0-.9.4-1.6 1.1-2.1s1.7-.8 3-.8h1.9v-.8c0-.6-.2-1-.5-1.3-.3-.3-.8-.5-1.4-.5-.6 0-1 .1-1.4.4s-.5.6-.5 1h-1.7v-.1c0-.7.3-1.3 1-1.9s1.6-.9 2.7-.9 1.9.3 2.6.8 1 1.3 1 2.4v4.6c0 .3 0 .7.1 1s.1.6.2.9h-1.8zm-2.9-1.2c.6 0 1.2-.2 1.7-.5s.8-.7 1-1.1v-1.5h-1.9c-.7 0-1.3.2-1.7.5-.4.4-.6.8-.6 1.2 0 .4.1.8.4 1s.6.4 1.1.4zM355.3 147.6h-1.7v-1.8h1.7v1.8zm0 11.9h-1.7V150h1.7v9.5zM362.5 151.5l-.9-.1c-.5 0-.8.1-1.2.3s-.6.5-.7.9v6.8H358V150h1.5l.2 1.4c.3-.5.6-.9 1-1.2s.9-.4 1.4-.4h.4c.1 0 .2 0 .3.1l-.3 1.6zM369.7 157c0-.4-.1-.7-.4-.9s-.8-.5-1.6-.6c-1.2-.3-2-.6-2.6-1s-.9-1-.9-1.8.3-1.4 1-2 1.5-.8 2.6-.8 2 .3 2.6.9 1 1.3.9 2.1v.1h-1.7c0-.4-.2-.8-.5-1.1s-.8-.5-1.4-.5c-.6 0-1.1.1-1.4.4s-.4.6-.4 1 .1.7.4.9.8.4 1.6.6c1.2.3 2.1.6 2.7 1 .6.4.9 1 .9 1.8s-.3 1.5-1 2-1.6.8-2.7.8c-1.2 0-2.2-.3-2.9-.9s-1-1.3-1-2.2v-.1h1.7c0 .6.3 1.1.7 1.3.4.3.9.4 1.5.4s1.1-.1 1.4-.4.5-.6.5-1z"/></g><path class="st7" d="M386.4 204.5H276c-3.3 0-6-2.7-6-6v-15c0-3.3 2.7-6 6-6h110.4c3.3 0 6 2.7 6 6v15c0 3.3-2.7 6-6 6z"/><g class="st1"><path class="st2" d="M288.8 190.3H283v4.6h6.8v1.4h-8.5v-12.8h8.4v1.4H283v4.1h5.9v1.3zM293 186.8l.1 1.4c.3-.5.7-.9 1.2-1.2s1-.4 1.6-.4c1 0 1.8.3 2.4.9.6.6.8 1.5.8 2.8v6h-1.7v-6c0-.8-.2-1.4-.5-1.8s-.8-.5-1.5-.5c-.5 0-.9.1-1.3.4s-.7.6-.9 1v6.9h-1.7v-9.5h1.5zM301.2 191.7c0-1.5.3-2.8 1-3.7s1.6-1.4 2.7-1.4c.6 0 1.1.1 1.5.3s.8.5 1.1.9v-5.2h1.7v13.7h-1.4l-.2-1.2c-.3.4-.7.8-1.1 1s-1 .3-1.6.3c-1.2 0-2.1-.4-2.7-1.3s-1-1.9-1-3.3v-.1zm1.8.2c0 1 .2 1.7.6 2.3.4.6 1 .9 1.8.9.5 0 .9-.1 1.3-.4s.6-.6.9-1v-4.4c-.2-.4-.5-.7-.9-.9s-.8-.3-1.3-.3c-.8 0-1.4.3-1.8 1s-.6 1.6-.6 2.7v.1zM325.3 184.8h-4.1v11.4h-1.7v-11.4h-4.1v-1.4h9.9v1.4zM328.8 184.3H327v-1.8h1.7v1.8zm0 12H327v-9.5h1.7v9.5zM333 186.8l.1 1.2c.3-.5.7-.8 1.2-1.1.5-.2 1-.4 1.7-.4s1.2.1 1.6.4.8.7 1 1.3c.3-.5.7-1 1.2-1.3s1.1-.5 1.7-.5c1 0 1.7.3 2.3 1s.8 1.7.8 3v5.7h-1.7v-5.7c0-.9-.2-1.6-.5-2-.3-.4-.8-.6-1.4-.6-.6 0-1.1.2-1.4.6s-.6.9-.6 1.6v6.1h-1.7v-5.7c0-.9-.2-1.5-.5-2-.3-.4-.8-.6-1.4-.6-.5 0-1 .1-1.3.3s-.6.5-.8.9v7h-1.7v-9.5h1.4zM351.1 196.5c-1.3 0-2.4-.4-3.2-1.3-.8-.9-1.2-2-1.2-3.4v-.4c0-1.4.4-2.5 1.2-3.4s1.8-1.3 2.9-1.3c1.3 0 2.3.4 2.9 1.2s1 1.8 1 3.1v1.1h-6.2c0 .9.2 1.7.7 2.2s1.1.9 1.9.9c.6 0 1.1-.1 1.5-.2.4-.2.8-.4 1.1-.7l.7 1.1c-.3.3-.8.6-1.3.8-.5.1-1.2.3-2 .3zm-.3-8.5c-.6 0-1.1.2-1.5.7s-.7 1.1-.8 1.8h4.4v-.2c0-.7-.2-1.2-.5-1.7-.3-.4-.8-.6-1.6-.6z"/></g><path class="st7" d="M413 177.5h102v27H413v-27z"/><g class="st1"><path class="st2" d="M428 196.3h-8.3v-1.2l4.2-4.7c.8-.8 1.3-1.5 1.5-2s.4-1 .4-1.5c0-.6-.2-1.2-.6-1.6-.4-.4-.9-.7-1.5-.7-.9 0-1.5.2-2 .7s-.6 1.1-.6 1.9h-1.7v-.1c0-1.1.3-2 1.1-2.8s1.8-1.1 3.2-1.1c1.1 0 2.1.3 2.7 1s1 1.5 1 2.6c0 .7-.2 1.4-.6 2.1s-1 1.5-1.7 2.3l-3.4 3.7h6.2v1.4zM438 191.4c0 1.6-.4 2.9-1.1 3.8-.7.9-1.7 1.3-3 1.3s-2.3-.4-3-1.3-1.1-2.1-1.1-3.8v-3c0-1.6.4-2.9 1.1-3.8.7-.9 1.7-1.3 3-1.3s2.3.4 3 1.3c.7.9 1.1 2.1 1.1 3.8v3zm-1.8-3.4c0-1.1-.2-1.9-.6-2.5-.4-.6-1-.8-1.7-.8s-1.3.3-1.7.8c-.4.6-.6 1.4-.6 2.5v3.8c0 1.1.2 1.9.6 2.5.4.6 1 .8 1.7.8s1.3-.3 1.7-.8c.4-.6.6-1.4.6-2.5V188zM444.9 196.3h-1.7v-11.1h-2.6V184l4.4-.5v12.8zM450.6 190.5l.7-7h6.4v1.5h-4.9l-.4 3.6c.3-.2.6-.4.9-.5.3-.1.7-.2 1.1-.2 1.2 0 2.1.4 2.8 1.2s1 1.8 1 3.1-.3 2.3-1 3.1-1.7 1.2-3 1.2c-1.1 0-2-.3-2.7-.9s-1.1-1.5-1-2.6v-.1h1.6c0 .7.2 1.2.6 1.6s.9.6 1.6.6c.7 0 1.3-.3 1.7-.8s.6-1.2.6-2.1c0-.8-.2-1.5-.6-2s-1-.8-1.7-.8-1.2.1-1.5.3-.5.5-.7.9l-1.5-.1zM463.8 191.5h-4.3v-1.4h4.3v1.4zM473.3 191.4c0 1.6-.4 2.9-1.1 3.8-.7.9-1.7 1.3-3 1.3s-2.3-.4-3-1.3-1.1-2.1-1.1-3.8v-3c0-1.6.4-2.9 1.1-3.8.7-.9 1.7-1.3 3-1.3s2.3.4 3 1.3c.7.9 1.1 2.1 1.1 3.8v3zm-1.7-3.4c0-1.1-.2-1.9-.6-2.5-.4-.6-1-.8-1.7-.8s-1.3.3-1.7.8c-.4.6-.6 1.4-.6 2.5v3.8c0 1.1.2 1.9.6 2.5.4.6 1 .8 1.7.8s1.3-.3 1.7-.8c.4-.6.6-1.4.6-2.5V188zM483.6 184.8c-1.5 1.8-2.6 3.5-3.1 4.9s-.9 3.1-1.2 5.2l-.1 1.4h-1.7l.1-1.4c.2-2 .7-3.8 1.4-5.4s1.7-3.1 2.9-4.6h-7v-1.4h8.7v1.3zM489 191.5h-4.3v-1.4h4.3v1.4zM498.7 196.3h-8.3v-1.2l4.2-4.7c.8-.8 1.3-1.5 1.5-2s.4-1 .4-1.5c0-.6-.2-1.2-.6-1.6-.4-.4-.9-.7-1.5-.7-.9 0-1.5.2-2 .7s-.6 1.1-.6 1.9h-1.7v-.1c0-1.1.3-2 1.1-2.8s1.8-1.1 3.2-1.1c1.1 0 2.1.3 2.7 1s1 1.5 1 2.6c0 .7-.2 1.4-.6 2.1s-1 1.5-1.7 2.3l-3.4 3.7h6.2v1.4zM508.4 186.8c0 .7-.2 1.3-.6 1.8-.4.5-.9.9-1.5 1.1.7.3 1.3.7 1.8 1.2s.7 1.2.7 1.9c0 1.2-.4 2.1-1.2 2.7-.8.6-1.8.9-3 .9-1.3 0-2.3-.3-3-.9-.8-.6-1.1-1.5-1.1-2.7 0-.7.2-1.4.7-1.9s1-1 1.8-1.2c-.6-.2-1.1-.6-1.5-1.1-.4-.5-.5-1.1-.5-1.8 0-1.1.3-2 1-2.6s1.6-.9 2.8-.9c1.1 0 2 .3 2.8.9s.8 1.5.8 2.6zm-1.4 6c0-.7-.2-1.3-.7-1.7s-1-.7-1.8-.7c-.7 0-1.3.2-1.8.7s-.7 1-.7 1.7.2 1.3.7 1.7 1 .6 1.8.6c.7 0 1.3-.2 1.8-.6.5-.4.7-1 .7-1.7zm-.4-5.9c0-.6-.2-1.2-.6-1.6s-.9-.6-1.5-.6-1.1.2-1.5.6c-.4.4-.6.9-.6 1.6 0 .7.2 1.2.6 1.6s.9.6 1.5.6 1.1-.2 1.5-.6.6-1 .6-1.6z"/></g><path class="st7" d="M413 256.5h102v27H413z"/><g class="st1"><path class="st2" d="M423.2 274.1c.8 0 1.5-.3 2-1s.8-1.6.8-2.8v-.6c-.3.4-.6.7-1.1.9s-.9.3-1.4.3c-1.2 0-2.2-.4-2.9-1.1-.7-.8-1.1-1.8-1.1-3.2 0-1.3.4-2.3 1.2-3.2s1.7-1.2 2.8-1.2c1.3 0 2.4.4 3.2 1.3.8.8 1.2 2.1 1.2 3.7v3c0 1.7-.4 3-1.3 3.8s-1.9 1.3-3.3 1.3c-.5 0-.9 0-1.4-.1-.5-.1-.9-.2-1.3-.4l.3-1.3c.3.2.7.3 1.1.4s.7.2 1.2.2zm.2-4.5c.6 0 1.2-.1 1.6-.4.4-.3.7-.6.9-1.1V267c0-1.1-.2-2-.6-2.5s-1.1-.9-1.9-.9c-.6 0-1.2.3-1.6.8s-.7 1.3-.7 2.2c0 .9.2 1.6.6 2.1s1 .9 1.7.9zM438 270.4c0 1.6-.4 2.9-1.1 3.8-.7.9-1.7 1.3-3 1.3s-2.3-.4-3-1.3-1.1-2.1-1.1-3.8v-3c0-1.6.4-2.9 1.1-3.8.7-.9 1.7-1.3 3-1.3s2.3.4 3 1.3c.7.9 1.1 2.1 1.1 3.8v3zm-1.8-3.4c0-1.1-.2-1.9-.6-2.5-.4-.6-1-.8-1.7-.8s-1.3.3-1.7.8c-.4.6-.6 1.4-.6 2.5v3.8c0 1.1.2 1.9.6 2.5.4.6 1 .8 1.7.8s1.3-.3 1.7-.8c.4-.6.6-1.4.6-2.5V267zM442.1 275.3h-1.7v-1.8h1.7v1.8zM451.7 271h1.8v1.4h-1.8v2.9H450v-2.9h-5.7v-1l5.6-8.9h1.8v8.5zm-5.6 0h3.9v-6h-.1l-.2.4-3.6 5.6zM458.4 274.1c.8 0 1.5-.3 2-1s.8-1.6.8-2.8v-.6c-.3.4-.6.7-1.1.9s-.9.3-1.4.3c-1.2 0-2.2-.4-2.9-1.1-.7-.8-1.1-1.8-1.1-3.2 0-1.3.4-2.3 1.2-3.2s1.7-1.2 2.8-1.2c1.3 0 2.4.4 3.2 1.3.8.8 1.2 2.1 1.2 3.7v3c0 1.7-.4 3-1.3 3.8s-1.9 1.3-3.3 1.3c-.5 0-.9 0-1.4-.1-.5-.1-.9-.2-1.3-.4l.3-1.3c.3.2.7.3 1.1.4s.7.2 1.2.2zm.3-4.5c.6 0 1.2-.1 1.6-.4.4-.3.7-.6.9-1.1V267c0-1.1-.2-2-.6-2.5s-1.1-.9-1.9-.9c-.6 0-1.2.3-1.6.8s-.7 1.3-.7 2.2c0 .9.2 1.6.6 2.1s1 .9 1.7.9zM473.4 263.8c-1.5 1.8-2.6 3.5-3.1 4.9s-.9 3.1-1.2 5.2l-.1 1.4h-1.7l.1-1.4c.2-2 .7-3.8 1.4-5.4s1.7-3.1 2.9-4.6h-7v-1.4h8.7v1.3z"/></g><path class="st7" d="M413 294.1h102v27H413v-27z"/><g class="st1"><path class="st2" d="M427.6 303.4c0 .7-.2 1.3-.6 1.8-.4.5-.9.9-1.5 1.1.7.3 1.3.7 1.8 1.2s.7 1.2.7 1.9c0 1.2-.4 2.1-1.2 2.7-.8.6-1.8.9-3 .9-1.3 0-2.3-.3-3-.9-.8-.6-1.1-1.5-1.1-2.7 0-.7.2-1.4.7-1.9s1-1 1.8-1.2c-.6-.2-1.1-.6-1.5-1.1-.4-.5-.5-1.1-.5-1.8 0-1.1.3-2 1-2.6s1.6-.9 2.8-.9c1.1 0 2 .3 2.8.9s.8 1.4.8 2.6zm-1.4 5.9c0-.7-.2-1.3-.7-1.7s-1-.7-1.8-.7c-.7 0-1.3.2-1.8.7s-.7 1-.7 1.7.2 1.3.7 1.7 1 .6 1.8.6c.7 0 1.3-.2 1.8-.6.5-.4.7-1 .7-1.7zm-.4-5.9c0-.6-.2-1.2-.6-1.6s-.9-.6-1.5-.6-1.1.2-1.5.6c-.4.4-.6.9-.6 1.6 0 .7.2 1.2.6 1.6s.9.6 1.5.6 1.1-.2 1.5-.6.6-.9.6-1.6zM433.3 311.7c.8 0 1.5-.3 2-1s.8-1.6.8-2.8v-.6c-.3.4-.6.7-1.1.9s-.9.3-1.4.3c-1.2 0-2.2-.4-2.9-1.1-.7-.8-1.1-1.8-1.1-3.2 0-1.3.4-2.3 1.2-3.2s1.7-1.2 2.8-1.2c1.3 0 2.4.4 3.2 1.3.8.8 1.2 2.1 1.2 3.7v3c0 1.7-.4 3-1.3 3.8s-1.9 1.3-3.3 1.3c-.5 0-.9 0-1.4-.1-.5-.1-.9-.2-1.3-.4l.3-1.3c.3.2.7.3 1.1.4s.7.2 1.2.2zm.3-4.5c.6 0 1.2-.1 1.6-.4.4-.3.7-.6.9-1.1v-1.1c0-1.1-.2-2-.6-2.5s-1.1-.9-1.9-.9c-.6 0-1.2.3-1.6.8s-.7 1.3-.7 2.2c0 .9.2 1.6.6 2.1s1 .9 1.7.9zM442.1 312.8h-1.7V311h1.7v1.8zM449.7 299.8c.4 0 .9 0 1.3.1s.8.2 1.1.4l-.4 1.3c-.3-.1-.6-.3-.9-.4s-.7-.1-1.1-.1c-.9 0-1.7.4-2.2 1.1s-.8 1.7-.8 2.9v.2c.4-.3.8-.6 1.3-.8.5-.2 1-.3 1.6-.3 1.1 0 2.1.4 2.7 1.2s1 1.8 1 3c0 1.3-.4 2.4-1.1 3.2-.7.8-1.7 1.3-2.9 1.3-1.3 0-2.3-.5-3.1-1.4s-1.2-2.2-1.2-3.8v-2.4c0-1.6.5-3 1.4-4s1.9-1.5 3.3-1.5zm-.6 5.8c-.6 0-1.1.1-1.5.4-.4.2-.7.6-.9 1v1c0 1.2.2 2.1.7 2.7s1.1 1 1.9 1c.7 0 1.3-.3 1.7-.9s.6-1.3.6-2.2c0-.8-.2-1.5-.6-2.1s-1.1-.9-1.9-.9zM463 308c0 1.6-.4 2.9-1.1 3.8-.7.9-1.7 1.3-3 1.3s-2.3-.4-3-1.3-1.1-2.1-1.1-3.8v-3c0-1.6.4-2.9 1.1-3.8.7-.9 1.7-1.3 3-1.3s2.3.4 3 1.3c.7.9 1.1 2.1 1.1 3.8v3zm-1.7-3.5c0-1.1-.2-1.9-.6-2.5-.4-.6-1-.8-1.7-.8s-1.3.3-1.7.8c-.4.6-.6 1.4-.6 2.5v3.8c0 1.1.2 1.9.6 2.5.4.6 1 .8 1.7.8s1.3-.3 1.7-.8c.4-.6.6-1.4.6-2.5v-3.8zM472 308.5h1.8v1.4H472v2.9h-1.7v-2.9h-5.7v-1l5.6-8.9h1.8v8.5zm-5.6 0h3.9v-6h-.1l-.2.4-3.6 5.6z"/></g><path class="st8" d="M521 167.8H418c-2.8 0-5-2.2-5-5v-17c0-2.8 2.2-5 5-5h103c2.8 0 5 2.2 5 5v17c0 2.7-2.3 5-5 5z"/><g class="st1"><path class="st2" d="M431.9 156.2h-5.4l-1.2 3.3h-1.8l4.9-12.8h1.5l4.9 12.8H433l-1.1-3.3zm-4.9-1.4h4.3l-2.1-5.8h-.1l-2.1 5.8zM445.9 146.7v8.7c0 1.4-.5 2.5-1.4 3.2s-2.1 1.1-3.5 1.1-2.5-.4-3.4-1.1c-.9-.7-1.3-1.8-1.3-3.2v-8.7h1.7v8.7c0 1 .3 1.7.8 2.2s1.3.8 2.2.8c.9 0 1.7-.2 2.3-.8s.9-1.2.9-2.2v-8.7h1.7zM448.8 159.5v-12.8h3.9c1.7 0 3 .5 4 1.5s1.5 2.4 1.5 4v1.7c0 1.6-.5 3-1.5 4s-2.4 1.5-4 1.5h-3.9zm1.7-11.4v10.1h2.2c1.2 0 2.1-.4 2.8-1.2s1-1.8 1-3v-1.8c0-1.2-.3-2.2-1-3s-1.6-1.2-2.8-1.2h-2.2zM460.7 160.6h-1.5l5.3-13.9h1.5l-5.3 13.9zM473.2 146.7h1.7v9.3c0 1.1-.4 2-1.1 2.7-.7.7-1.7 1-2.8 1-1.2 0-2.2-.3-2.9-.9s-1.1-1.5-1-2.7v-.1h1.7c0 .8.2 1.4.6 1.8s1 .6 1.7.6c.6 0 1.2-.2 1.6-.6s.6-1 .6-1.7v-9.4zM479.8 154.4v5.1H478v-12.8h4.9c1.4 0 2.4.4 3.2 1.1s1.1 1.6 1.1 2.8c0 1.2-.4 2.1-1.1 2.8-.8.7-1.8 1-3.2 1h-3.1zm0-1.4h3.2c.9 0 1.5-.2 1.9-.7s.6-1.1.6-1.8-.2-1.3-.6-1.8-1.1-.7-1.9-.7h-3.2v5zM493.5 153.2l3.3-6.5h2l-4.5 8.3v4.5h-1.7v-4.6l-4.4-8.2h2l3.3 6.5z"/></g><path class="st2" d="M520.2 154.6l-3 4.8-3-4.8zM520.2 152.9l-3-4.9-3 4.9z"/><path class="st8" d="M387.4 358.1H275c-2.8 0-5-2.2-5-5v-17c0-2.8 2.2-5 5-5h112.3c2.8 0 5 2.2 5 5v17c.1 2.8-2.3 5-4.9 5z"/><g class="st1"><path class="st2" d="M283 344.7v5.1h-1.7V337h4.9c1.4 0 2.4.4 3.2 1.1s1.1 1.6 1.1 2.8c0 1.2-.4 2.1-1.1 2.8-.8.7-1.8 1-3.2 1H283zm0-1.4h3.2c.9 0 1.5-.2 1.9-.7s.6-1.1.6-1.8-.2-1.3-.6-1.8-1.1-.7-1.9-.7H283v5zM298.2 349.8c-.1-.3-.1-.5-.1-.8 0-.2-.1-.4-.1-.7-.3.5-.7.8-1.3 1.1-.5.3-1.1.5-1.7.5-1 0-1.7-.3-2.3-.8-.5-.5-.8-1.2-.8-2.1 0-.9.4-1.6 1.1-2.1s1.7-.8 3-.8h1.9v-.9c0-.6-.2-1-.5-1.3-.3-.3-.8-.5-1.4-.5-.6 0-1 .1-1.4.4s-.5.6-.5 1h-1.7v-.1c0-.7.3-1.3 1-1.9s1.6-.9 2.7-.9 1.9.3 2.6.8 1 1.3 1 2.4v4.6c0 .3 0 .7.1 1s.1.6.2.9h-1.8zm-2.9-1.2c.6 0 1.2-.2 1.7-.5s.8-.7 1-1.1v-1.5h-2c-.7 0-1.3.2-1.7.5-.4.4-.6.8-.6 1.2 0 .4.1.8.4 1s.7.4 1.2.4zM305 346.3l.3 1.2h.1l2.3-7.2h1.9l-4 11c-.2.6-.6 1.2-1 1.7s-1.1.7-1.8.7h-.5c-.2 0-.4-.1-.5-.1l.2-1.4h.8c.4 0 .7-.2.9-.5s.4-.7.6-1.1l.4-1-3.5-9.3h1.9l1.9 6zM310.6 345c0-1.4.4-2.6 1.1-3.5s1.8-1.4 3.1-1.4 2.4.5 3.1 1.4 1.1 2.1 1.1 3.5v.2c0 1.4-.4 2.6-1.1 3.5s-1.8 1.4-3.1 1.4-2.4-.5-3.1-1.4c-.8-.9-1.1-2.1-1.1-3.5v-.2zm1.7.2c0 1 .2 1.8.6 2.5s1.1 1 1.9 1c.8 0 1.5-.3 1.9-1s.6-1.5.6-2.5v-.2c0-1-.2-1.8-.6-2.5s-1.1-1-1.9-1c-.8 0-1.5.3-1.9 1s-.6 1.5-.6 2.5v.2zM327.3 348.4c-.3.5-.7.9-1.2 1.2s-1 .4-1.6.4c-1 0-1.8-.3-2.4-1s-.9-1.7-.9-3.1v-5.6h1.7v5.6c0 1 .1 1.7.4 2.1s.8.6 1.4.6c.6 0 1.1-.1 1.5-.4.4-.2.7-.6.9-1.1v-6.9h1.7v9.5h-1.6l.1-1.3zM333.8 338v2.3h1.8v1.3h-1.8v5.8c0 .4.1.8.3.9s.4.3.7.3h.3c.1 0 .2-.1.3-.1l.2 1.2c-.1.1-.3.2-.6.3-.2.1-.5.1-.8.1-.7 0-1.3-.2-1.7-.6-.4-.4-.6-1.1-.6-2v-5.8h-1.5v-1.3h1.5V338h1.9z"/></g><g><path class="st8" d="M479.7 358.1H418c-2.8 0-5-2.2-5-5v-17c0-2.8 2.2-5 5-5h61.7c2.8 0 5 2.2 5 5v17c0 2.8-2.2 5-5 5z"/><g class="st1"><path class="st2" d="M429.4 337h1.7v9.3c0 1.1-.4 2-1.1 2.7-.7.7-1.7 1-2.8 1-1.2 0-2.2-.3-2.9-.9s-1.1-1.5-1-2.7v-.1h1.7c0 .8.2 1.4.6 1.8s1 .6 1.7.6c.6 0 1.2-.2 1.6-.6s.6-1 .6-1.7V337zM435.9 344.7v5.1h-1.7V337h4.9c1.4 0 2.4.4 3.2 1.1s1.1 1.6 1.1 2.8c0 1.2-.4 2.1-1.1 2.8-.8.7-1.8 1-3.2 1h-3.2zm0-1.4h3.2c.9 0 1.5-.2 1.9-.7s.6-1.1.6-1.8-.2-1.3-.6-1.8-1.1-.7-1.9-.7h-3.2v5zM449.6 343.5l3.3-6.5h2l-4.5 8.3v4.5h-1.7v-4.6l-4.4-8.2h2l3.3 6.5z"/></g></g><g><path class="st8" d="M490.7 331.1h77.8v27h-77.8v-27z"/><g class="st1"><path class="st2" d="M506.4 349.8h-1.7v-11.1h-2.6v-1.2l4.4-.5v12.8zM519.7 345c0 1.6-.4 2.9-1.1 3.8-.7.9-1.7 1.3-3 1.3s-2.3-.4-3-1.3-1.1-2.1-1.1-3.8v-3c0-1.6.4-2.9 1.1-3.8.7-.9 1.7-1.3 3-1.3s2.3.4 3 1.3c.7.9 1.1 2.1 1.1 3.8v3zm-1.8-3.5c0-1.1-.2-1.9-.6-2.5-.4-.6-1-.8-1.7-.8s-1.3.3-1.7.8c-.4.6-.6 1.4-.6 2.5v3.8c0 1.1.2 1.9.6 2.5.4.6 1 .8 1.7.8s1.3-.3 1.7-.8c.4-.6.6-1.4.6-2.5v-3.8zM529.8 345c0 1.6-.4 2.9-1.1 3.8-.7.9-1.7 1.3-3 1.3s-2.3-.4-3-1.3-1.1-2.1-1.1-3.8v-3c0-1.6.4-2.9 1.1-3.8.7-.9 1.7-1.3 3-1.3s2.3.4 3 1.3c.7.9 1.1 2.1 1.1 3.8v3zm-1.7-3.5c0-1.1-.2-1.9-.6-2.5-.4-.6-1-.8-1.7-.8s-1.3.3-1.7.8c-.4.6-.6 1.4-.6 2.5v3.8c0 1.1.2 1.9.6 2.5.4.6 1 .8 1.7.8s1.3-.3 1.7-.8c.4-.6.6-1.4.6-2.5v-3.8zM539.9 345c0 1.6-.4 2.9-1.1 3.8-.7.9-1.7 1.3-3 1.3s-2.3-.4-3-1.3-1.1-2.1-1.1-3.8v-3c0-1.6.4-2.9 1.1-3.8.7-.9 1.7-1.3 3-1.3s2.3.4 3 1.3c.7.9 1.1 2.1 1.1 3.8v3zm-1.7-3.5c0-1.1-.2-1.9-.6-2.5-.4-.6-1-.8-1.7-.8s-1.3.3-1.7.8c-.4.6-.6 1.4-.6 2.5v3.8c0 1.1.2 1.9.6 2.5.4.6 1 .8 1.7.8s1.3-.3 1.7-.8c.4-.6.6-1.4.6-2.5v-3.8z"/></g></g><g><path class="st9" d="M511 426.3H382c-2.2 0-4-1.8-4-4v-30c0-2.2 1.8-4 4-4h129c2.2 0 4 1.8 4 4v30c0 2.1-1.8 4-4 4z"/><g class="st1"><path class="st4" d="M415.9 410.9c-.3.5-.9.9-1.7 1.3-.8.4-1.8.6-3 .6-1.5 0-2.8-.5-3.8-1.5s-1.5-2.2-1.5-3.8v-2.7c0-1.5.5-2.8 1.4-3.8.9-1 2.2-1.5 3.6-1.5 1.5 0 2.7.4 3.5 1.1s1.3 1.7 1.3 2.9v.1h-2c0-.7-.3-1.3-.8-1.7-.5-.4-1.1-.6-2-.6-.9 0-1.6.3-2.1 1s-.8 1.5-.8 2.5v2.7c0 1 .3 1.9.9 2.5.6.7 1.4 1 2.3 1 .7 0 1.2-.1 1.6-.2.4-.2.7-.3.9-.5v-2.6h-2.5v-1.6h4.7v4.8zM422.3 412.8c-1.3 0-2.4-.4-3.2-1.3-.8-.9-1.2-2-1.2-3.4v-.4c0-1.4.4-2.5 1.2-3.4.8-.9 1.8-1.4 3-1.4 1.3 0 2.3.4 2.9 1.2.7.8 1 1.8 1 3.1v1.3h-5.9c0 .8.3 1.4.7 1.8.4.5 1 .7 1.7.7.6 0 1.1-.1 1.5-.2s.8-.3 1.2-.6l.7 1.4c-.4.3-.8.6-1.4.8s-1.4.4-2.2.4zm-.2-8.1c-.5 0-1 .2-1.3.6-.3.4-.6 1-.6 1.6h3.8v-.2c0-.6-.2-1.1-.5-1.5s-.8-.5-1.4-.5zM430.4 400.8v2.3h1.7v1.6h-1.7v5.3c0 .4.1.7.3.8.2.2.4.2.7.2h.3c.1 0 .2 0 .3-.1l.2 1.6c-.2.1-.4.2-.7.2-.3.1-.5.1-.8.1-.8 0-1.4-.2-1.8-.7-.4-.5-.7-1.2-.7-2.2v-5.3h-1.5V403h1.5v-2.3h2.2zM440.9 407.8v4.9h-2.1v-12.8h5c1.4 0 2.5.4 3.3 1.1.8.7 1.2 1.7 1.2 2.9s-.4 2.2-1.2 2.9c-.8.7-1.9 1.1-3.3 1.1h-2.9zm0-1.7h2.9c.8 0 1.4-.2 1.8-.6s.6-1 .6-1.6-.2-1.2-.6-1.6-1-.7-1.8-.7h-2.9v4.5zM454.9 405.1h-.9c-.4 0-.8.1-1 .3s-.5.4-.6.7v6.6h-2.1v-9.5h2l.1 1.4c.2-.5.5-.9.9-1.1s.8-.4 1.3-.4h.4c.2 0 .2 0 .3.1l-.4 1.9zM458.6 400.8h-2.1v-1.9h2.1v1.9zm0 11.8h-2.1v-9.5h2.1v9.5zM464.9 411.1c.5 0 1-.2 1.3-.5s.5-.7.5-1.1h1.9v.1c0 .9-.3 1.7-1.1 2.3s-1.7 1-2.7 1c-1.4 0-2.5-.5-3.2-1.4s-1.1-2-1.1-3.4v-.3c0-1.4.4-2.5 1.1-3.4.7-.9 1.8-1.4 3.2-1.4 1.1 0 2.1.3 2.8 1s1.1 1.5 1 2.5v.1h-1.9c0-.5-.2-1-.5-1.3s-.8-.5-1.3-.5c-.8 0-1.4.3-1.7.9-.3.6-.5 1.3-.5 2.2v.3c0 .9.2 1.6.5 2.2s.9.7 1.7.7zM474.5 412.8c-1.3 0-2.4-.4-3.2-1.3-.8-.9-1.2-2-1.2-3.4v-.4c0-1.4.4-2.5 1.2-3.4.8-.9 1.8-1.4 3-1.4 1.3 0 2.3.4 2.9 1.2.7.8 1 1.8 1 3.1v1.3h-5.9c0 .8.3 1.4.7 1.8.4.5 1 .7 1.7.7.6 0 1.1-.1 1.5-.2s.8-.3 1.2-.6l.7 1.4c-.4.3-.8.6-1.4.8s-1.4.4-2.2.4zm-.2-8.1c-.5 0-1 .2-1.3.6-.3.4-.6 1-.6 1.6h3.8v-.2c0-.6-.2-1.1-.5-1.5s-.8-.5-1.4-.5zM485.3 410.1c0-.3-.1-.6-.4-.8s-.8-.4-1.6-.6c-1.1-.2-2-.6-2.6-1s-.9-1-.9-1.8.3-1.5 1-2 1.6-.8 2.7-.8c1.2 0 2.1.3 2.8.9.7.6 1 1.3 1 2.1v.1h-2c0-.4-.1-.7-.4-1s-.7-.4-1.2-.4-.9.1-1.2.3-.4.5-.4.8.1.6.4.8c.3.2.8.4 1.6.5 1.2.2 2.1.6 2.7 1 .6.4.9 1.1.9 1.8 0 .9-.4 1.5-1.1 2.1s-1.6.8-2.8.8c-1.2 0-2.2-.3-2.9-.9s-1.1-1.4-1-2.2v-.1h2c0 .6.2 1 .6 1.2s.8.4 1.4.4c.6 0 1-.1 1.3-.3s.1-.6.1-.9z"/></g></g><g><path class="st7" d="M541.2 177.5h96.2v27h-96.2v-27z"/><g class="st1"><path class="st2" d="M556.2 196.3h-8.3v-1.2l4.2-4.7c.8-.8 1.3-1.5 1.5-2s.4-1 .4-1.5c0-.6-.2-1.2-.6-1.6-.4-.4-.9-.7-1.5-.7-.9 0-1.5.2-2 .7s-.6 1.1-.6 1.9h-1.7v-.1c0-1.1.3-2 1.1-2.8s1.8-1.1 3.2-1.1c1.1 0 2.1.3 2.7 1s1 1.5 1 2.6c0 .7-.2 1.4-.6 2.1s-1 1.5-1.7 2.3l-3.4 3.7h6.2v1.4zM560.4 189.1h1.5c.8 0 1.3-.2 1.6-.6s.5-.9.5-1.6c0-.7-.2-1.3-.5-1.7s-.9-.6-1.6-.6c-.7 0-1.2.2-1.6.6-.4.4-.6.9-.6 1.6H558v-.1c0-1 .3-1.8 1.1-2.5.7-.7 1.7-1 2.9-1s2.1.3 2.8.9c.7.6 1.1 1.5 1.1 2.7 0 .5-.2 1.1-.5 1.6s-.8.9-1.4 1.2c.8.3 1.3.6 1.6 1.2s.5 1.1.5 1.8c0 1.2-.4 2.1-1.1 2.8s-1.7 1-2.9 1-2.1-.3-2.9-.9-1.1-1.5-1.1-2.6v-.1h1.7c0 .7.2 1.2.6 1.6.4.4 1 .6 1.7.6s1.3-.2 1.7-.6c.4-.4.6-1 .6-1.8s-.2-1.4-.6-1.7c-.4-.4-1-.6-1.7-.6h-1.5v-1.2zM570.3 188.6h-1.7v-1.8h1.7v1.8zm0 7.7h-1.7v-1.8h1.7v1.8zM573.2 190.5l.7-7h6.4v1.5h-4.9l-.4 3.6c.3-.2.6-.4.9-.5.3-.1.7-.2 1.1-.2 1.2 0 2.1.4 2.8 1.2s1 1.8 1 3.1-.3 2.3-1 3.1-1.7 1.2-3 1.2c-1.1 0-2-.3-2.7-.9s-1.1-1.5-1-2.6v-.1h1.6c0 .7.2 1.2.6 1.6s.9.6 1.6.6c.7 0 1.3-.3 1.7-.8s.6-1.2.6-2.1c0-.8-.2-1.5-.6-2s-1-.8-1.7-.8-1.2.1-1.5.3-.5.5-.7.9l-1.5-.1zM586.3 195.1c.8 0 1.5-.3 2-1s.8-1.6.8-2.8v-.6c-.3.4-.6.7-1.1.9s-.9.3-1.4.3c-1.2 0-2.2-.4-2.9-1.1-.7-.8-1.1-1.8-1.1-3.2 0-1.3.4-2.3 1.2-3.2s1.7-1.2 2.8-1.2c1.3 0 2.4.4 3.2 1.3.8.8 1.2 2.1 1.2 3.7v3c0 1.7-.4 3-1.3 3.8s-1.9 1.3-3.3 1.3c-.5 0-.9 0-1.4-.1-.5-.1-.9-.2-1.3-.4l.3-1.3c.3.2.7.3 1.1.4s.7.2 1.2.2zm.3-4.5c.6 0 1.2-.1 1.6-.4.4-.3.7-.6.9-1.1V188c0-1.1-.2-2-.6-2.5s-1.1-.9-1.9-.9c-.6 0-1.2.3-1.6.8s-.7 1.3-.7 2.2c0 .9.2 1.6.6 2.1s.9.9 1.7.9zM595.1 188.6h-1.7v-1.8h1.7v1.8zm0 7.7h-1.7v-1.8h1.7v1.8zM598 190.5l.7-7h6.4v1.5h-4.9l-.4 3.6c.3-.2.6-.4.9-.5.3-.1.7-.2 1.1-.2 1.2 0 2.1.4 2.8 1.2s1 1.8 1 3.1-.3 2.3-1 3.1-1.7 1.2-3 1.2c-1.1 0-2-.3-2.7-.9s-1.1-1.5-1-2.6v-.1h1.6c0 .7.2 1.2.6 1.6s.9.6 1.6.6c.7 0 1.3-.3 1.7-.8s.6-1.2.6-2.1c0-.8-.2-1.5-.6-2s-1-.8-1.7-.8-1.2.1-1.5.3-.5.5-.7.9l-1.5-.1zM611.1 195.1c.8 0 1.5-.3 2-1s.8-1.6.8-2.8v-.6c-.3.4-.6.7-1.1.9s-.9.3-1.4.3c-1.2 0-2.2-.4-2.9-1.1-.7-.8-1.1-1.8-1.1-3.2 0-1.3.4-2.3 1.2-3.2s1.7-1.2 2.8-1.2c1.3 0 2.4.4 3.2 1.3.8.8 1.2 2.1 1.2 3.7v3c0 1.7-.4 3-1.3 3.8s-1.9 1.3-3.3 1.3c-.5 0-.9 0-1.4-.1-.5-.1-.9-.2-1.3-.4l.3-1.3c.3.2.7.3 1.1.4s.7.2 1.2.2zm.3-4.5c.6 0 1.2-.1 1.6-.4.4-.3.7-.6.9-1.1V188c0-1.1-.2-2-.6-2.5s-1.1-.9-1.9-.9c-.6 0-1.2.3-1.6.8s-.7 1.3-.7 2.2c0 .9.2 1.6.6 2.1s1 .9 1.7.9z"/></g></g><g><circle class="st10" cx="649.4" cy="189.7" r="6.6"/><path class="st2" d="M649 186.5c-.1-.1-.2-.3-.2-.5s.1-.3.2-.5c.1-.1.3-.2.5-.2s.3.1.5.2c.1.1.2.3.2.5s-.2.3-.2.5c-.1.1-.3.2-.5.2-.3 0-.5 0-.5-.2zm-.1 7.6v-6.4h1v6.4h-1z"/><g><path class="st10" d="M642.5 199.9h.5"/><path class="st11" d="M644 199.9h11.2"/><path class="st10" d="M655.7 199.9h.5"/></g></g><g class="st1"><path class="st2" d="M304.1 275.3h-1.7v-5.7h-6.2v5.7h-1.7v-12.8h1.7v5.8h6.2v-5.8h1.7v12.8zM308.8 263.3H307v-1.8h1.7v1.8zm0 12H307v-9.5h1.7v9.5zM311 270.7c0-1.5.3-2.8 1-3.7s1.6-1.4 2.8-1.4c.6 0 1.1.1 1.6.4s.8.6 1.1 1l.2-1.2h1.4v9.6c0 1.2-.4 2.2-1.1 2.8-.7.7-1.7 1-3.1 1-.5 0-1-.1-1.5-.2s-1-.3-1.4-.5l.4-1.3c.3.2.7.3 1.1.4s.9.2 1.3.2c.8 0 1.5-.2 1.8-.6.4-.4.6-1 .6-1.8v-1.1c-.3.4-.7.7-1.1.9-.4.2-.9.3-1.5.3-1.2 0-2.1-.4-2.8-1.3s-1-1.9-1-3.3v-.2zm1.8.2c0 1 .2 1.7.6 2.3s1 .9 1.8.9c.5 0 1-.1 1.3-.4.4-.2.6-.6.9-1v-4.4c-.2-.4-.5-.7-.9-1-.4-.2-.8-.4-1.3-.4-.8 0-1.4.3-1.9 1s-.6 1.6-.6 2.7v.3zM323.4 267c.3-.5.7-.8 1.2-1.1.5-.3 1-.4 1.6-.4 1 0 1.8.3 2.4.9s.8 1.5.8 2.8v6h-1.7v-6c0-.8-.2-1.4-.5-1.7s-.8-.6-1.5-.6c-.5 0-.9.1-1.3.3-.4.2-.7.5-1 .9v7h-1.7v-13.7h1.7v5.6zM344.5 270.9c0 1.4-.3 2.5-1 3.3s-1.6 1.3-2.7 1.3c-.6 0-1.2-.1-1.6-.4-.5-.2-.8-.6-1.2-1.1l-.2 1.3h-1.4v-13.7h1.7v5.3c.3-.4.7-.7 1.1-1s1-.3 1.6-.3c1.2 0 2.1.5 2.7 1.4s1 2.2 1 3.7v.2zm-1.7-.2c0-1.1-.2-2-.6-2.7s-1-1-1.8-1c-.5 0-1 .1-1.3.4-.4.3-.7.6-.9 1.1v4.1c.2.5.5.8.9 1.1s.8.4 1.4.4c.8 0 1.4-.3 1.8-.9s.6-1.3.6-2.3v-.2zM352.4 275.3c-.1-.3-.1-.5-.1-.8 0-.2-.1-.4-.1-.7-.3.5-.7.8-1.3 1.1-.5.3-1.1.5-1.7.5-1 0-1.7-.3-2.3-.8-.5-.5-.8-1.2-.8-2.1 0-.9.4-1.6 1.1-2.1s1.7-.8 3-.8h1.9v-.9c0-.6-.2-1-.5-1.3-.3-.3-.8-.5-1.4-.5-.6 0-1 .1-1.4.4s-.5.6-.5 1h-1.7v-.1c0-.7.3-1.3 1-1.9s1.6-.9 2.7-.9 1.9.3 2.6.8 1 1.3 1 2.4v4.6c0 .3 0 .7.1 1s.1.6.2.9h-1.8zm-2.8-1.3c.6 0 1.2-.2 1.7-.5s.8-.7 1-1.1v-1.5h-1.9c-.7 0-1.3.2-1.7.5-.4.4-.6.8-.6 1.2 0 .4.1.8.4 1s.5.4 1.1.4zM361 267.3l-.9-.1c-.5 0-.8.1-1.2.3s-.6.5-.7.9v6.8h-1.7v-9.5h1.5l.2 1.4c.3-.5.6-.9 1-1.2s.9-.4 1.4-.4h.4c.1 0 .2 0 .3.1l-.3 1.7zM367.2 267.3l-.9-.1c-.5 0-.8.1-1.2.3s-.6.5-.7.9v6.8h-1.7v-9.5h1.5l.2 1.4c.3-.5.6-.9 1-1.2s.9-.4 1.4-.4h.4c.1 0 .2 0 .3.1l-.3 1.7zM370.7 263.3H369v-1.8h1.7v1.8zm0 12H369v-9.5h1.7v9.5zM377.3 275.5c-1.3 0-2.4-.4-3.2-1.3-.8-.9-1.2-2-1.2-3.4v-.4c0-1.4.4-2.5 1.2-3.4s1.8-1.3 2.9-1.3c1.3 0 2.3.4 2.9 1.2s1 1.8 1 3.1v1.1h-6.2c0 .9.2 1.7.7 2.2s1.1.9 1.9.9c.6 0 1.1-.1 1.5-.2.4-.2.8-.4 1.1-.7l.7 1.1c-.3.3-.8.6-1.3.8-.5.1-1.2.3-2 .3zm-.3-8.5c-.6 0-1.1.2-1.5.7s-.7 1.1-.8 1.8h4.4v-.2c0-.7-.2-1.2-.5-1.7-.3-.4-.8-.6-1.6-.6zM387.4 267.3l-.9-.1c-.5 0-.8.1-1.2.3s-.6.5-.7.9v6.8h-1.7v-9.5h1.5l.2 1.4c.3-.5.6-.9 1-1.2s.9-.4 1.4-.4h.4c.1 0 .2 0 .3.1l-.3 1.7zM389.4 267.6h-1.7v-1.8h1.7v1.8zm0 7.7h-1.7v-1.8h1.7v1.8z"/></g><g class="st1"><path class="st2" d="M358.4 232.6c0-.6-.2-1.1-.7-1.5-.4-.4-1.2-.7-2.3-1-1.4-.3-2.4-.8-3.2-1.4-.8-.6-1.1-1.4-1.1-2.4s.4-1.8 1.2-2.5c.8-.7 1.9-1 3.2-1 1.4 0 2.5.4 3.3 1.2s1.2 1.7 1.2 2.7v.1h-1.7c0-.8-.2-1.4-.7-1.8s-1.2-.7-2.1-.7c-.9 0-1.5.2-2 .6-.5.4-.7.9-.7 1.5s.2 1 .7 1.4c.5.4 1.3.7 2.4 1 1.3.3 2.4.8 3.1 1.5s1.1 1.5 1.1 2.4c0 1-.4 1.9-1.3 2.5s-1.9.9-3.3.9c-1.3 0-2.4-.3-3.4-1s-1.5-1.6-1.4-2.8v-.1h1.7c0 .8.3 1.4.9 1.9s1.4.6 2.2.6c.9 0 1.6-.2 2.1-.6.6-.4.8-.9.8-1.5zM370.5 231.4c0 1.4-.3 2.5-1 3.3s-1.6 1.3-2.7 1.3c-.6 0-1.1-.1-1.5-.3-.4-.2-.8-.5-1.1-.9v4.6h-1.7v-13.2h1.3l.3 1.2c.3-.5.7-.8 1.2-1s1-.4 1.6-.4c1.2 0 2.1.5 2.7 1.4s1 2.2 1 3.7v.3zm-1.8-.2c0-1.1-.2-2-.6-2.7s-1.1-1-1.9-1c-.5 0-.9.1-1.3.3s-.6.5-.9.9v4.6c.2.4.5.7.9.9s.8.3 1.3.3c.8 0 1.4-.3 1.9-.9.4-.6.6-1.4.6-2.3v-.1zM372.2 230.9c0-1.4.4-2.6 1.1-3.5s1.8-1.4 3.1-1.4 2.4.5 3.1 1.4 1.1 2.1 1.1 3.5v.2c0 1.4-.4 2.6-1.1 3.5s-1.8 1.4-3.1 1.4-2.4-.5-3.1-1.4c-.8-.9-1.1-2.1-1.1-3.5v-.2zm1.7.2c0 1 .2 1.8.6 2.5s1.1 1 1.9 1c.8 0 1.5-.3 1.9-1s.6-1.5.6-2.5v-.2c0-1-.2-1.8-.6-2.5s-1.1-1-1.9-1c-.8 0-1.5.3-1.9 1s-.6 1.5-.6 2.5v.2zM385.1 224v2.3h1.8v1.3h-1.8v5.8c0 .4.1.8.3.9s.4.3.7.3h.3c.1 0 .2-.1.3-.1l.2 1.2c-.1.1-.3.2-.6.3-.2.1-.5.1-.8.1-.7 0-1.3-.2-1.7-.6-.4-.4-.6-1.1-.6-2v-5.8h-1.5v-1.3h1.5V224h1.9zM390.9 228.1h-1.7v-1.8h1.7v1.8zm0 7.7h-1.7V234h1.7v1.8z"/></g><g class="st1"><path class="st2" d="M421.9 226.3c0 .7-.2 1.3-.6 1.8-.4.5-.9.9-1.5 1.1.7.3 1.3.7 1.8 1.2s.7 1.2.7 1.9c0 1.2-.4 2.1-1.2 2.7-.8.6-1.8.9-3 .9-1.3 0-2.3-.3-3-.9-.8-.6-1.1-1.5-1.1-2.7 0-.7.2-1.4.7-1.9s1-1 1.8-1.2c-.6-.2-1.1-.6-1.5-1.1-.4-.5-.5-1.1-.5-1.8 0-1.1.3-2 1-2.6s1.6-.9 2.8-.9c1.1 0 2 .3 2.8.9s.8 1.5.8 2.6zm-1.4 6c0-.7-.2-1.3-.7-1.7s-1-.7-1.8-.7c-.7 0-1.3.2-1.8.7s-.7 1-.7 1.7.2 1.3.7 1.7 1 .6 1.8.6c.7 0 1.3-.2 1.8-.6.5-.4.7-1 .7-1.7zm-.3-5.9c0-.6-.2-1.2-.6-1.6s-.9-.6-1.5-.6-1.1.2-1.5.6c-.4.4-.6.9-.6 1.6 0 .7.2 1.2.6 1.6s.9.6 1.5.6 1.1-.2 1.5-.6.6-1 .6-1.6zM427.6 234.6c.8 0 1.5-.3 2-1s.8-1.6.8-2.8v-.6c-.3.4-.6.7-1.1.9s-.9.3-1.4.3c-1.2 0-2.2-.4-2.9-1.1-.7-.8-1.1-1.8-1.1-3.2 0-1.3.4-2.3 1.2-3.2s1.7-1.2 2.8-1.2c1.3 0 2.4.4 3.2 1.3.8.8 1.2 2.1 1.2 3.7v3c0 1.7-.4 3-1.3 3.8s-1.9 1.3-3.3 1.3c-.5 0-.9 0-1.4-.1-.5-.1-.9-.2-1.3-.4l.3-1.3c.3.2.7.3 1.1.4s.7.2 1.2.2zm.3-4.5c.6 0 1.2-.1 1.6-.4.4-.3.7-.6.9-1.1v-1.1c0-1.1-.2-2-.6-2.5s-1.1-.9-1.9-.9c-.6 0-1.2.3-1.6.8s-.7 1.3-.7 2.2c0 .9.2 1.6.6 2.1s1 .9 1.7.9zM436.4 235.8h-1.7V234h1.7v1.8zM442.6 234.6c.8 0 1.5-.3 2-1s.8-1.6.8-2.8v-.6c-.3.4-.6.7-1.1.9s-.9.3-1.4.3c-1.2 0-2.2-.4-2.9-1.1-.7-.8-1.1-1.8-1.1-3.2 0-1.3.4-2.3 1.2-3.2s1.7-1.2 2.8-1.2c1.3 0 2.4.4 3.2 1.3.8.8 1.2 2.1 1.2 3.7v3c0 1.7-.4 3-1.3 3.8s-1.9 1.3-3.3 1.3c-.5 0-.9 0-1.4-.1-.5-.1-.9-.2-1.3-.4l.3-1.3c.3.2.7.3 1.1.4s.7.2 1.2.2zm.3-4.5c.6 0 1.2-.1 1.6-.4.4-.3.7-.6.9-1.1v-1.1c0-1.1-.2-2-.6-2.5s-1.1-.9-1.9-.9c-.6 0-1.2.3-1.6.8s-.7 1.3-.7 2.2c0 .9.2 1.6.6 2.1s.9.9 1.7.9zM451.6 228.6h1.5c.8 0 1.3-.2 1.6-.6s.5-.9.5-1.6c0-.7-.2-1.3-.5-1.7s-.9-.6-1.6-.6c-.7 0-1.2.2-1.6.6-.4.4-.6.9-.6 1.6h-1.7v-.1c0-1 .3-1.8 1.1-2.5.7-.7 1.7-1 2.9-1s2.1.3 2.8.9c.7.6 1.1 1.5 1.1 2.7 0 .5-.2 1.1-.5 1.6s-.8.9-1.4 1.2c.8.3 1.3.6 1.6 1.2s.5 1.1.5 1.8c0 1.2-.4 2.1-1.1 2.8s-1.7 1-2.9 1-2.1-.3-2.9-.9-1.1-1.5-1.1-2.6v-.1h1.7c0 .7.2 1.2.6 1.6.4.4 1 .6 1.7.6s1.3-.2 1.7-.6c.4-.4.6-1 .6-1.8s-.2-1.4-.6-1.7c-.4-.4-1-.6-1.7-.6h-1.5v-1.2zM466.3 231.5h1.8v1.4h-1.8v2.9h-1.7v-2.9h-5.7v-1l5.6-8.9h1.8v8.5zm-5.6 0h3.9v-6h-.1l-.2.4-3.6 5.6z"/></g><g class="st1"><path class="st2" d="M300.4 311.5h6.1v1.4h-7.8V300h1.7v11.5zM307.6 308c0-1.4.4-2.6 1.1-3.5s1.8-1.4 3.1-1.4 2.4.5 3.1 1.4 1.1 2.1 1.1 3.5v.2c0 1.4-.4 2.6-1.1 3.5s-1.8 1.4-3.1 1.4-2.4-.5-3.1-1.4c-.8-.9-1.1-2.1-1.1-3.5v-.2zm1.8.2c0 1 .2 1.8.6 2.5s1.1 1 1.9 1c.8 0 1.5-.3 1.9-1s.6-1.5.6-2.5v-.2c0-1-.2-1.8-.6-2.5s-1.1-1-1.9-1c-.8 0-1.5.3-1.9 1s-.6 1.5-.6 2.5v.2zM320.7 309.4l.2 1.2h.1l.2-1.2 1.9-6h1.4l1.9 6 .3 1.3h.1l.3-1.3 1.5-6h1.7l-2.8 9.5H326l-1.8-5.8-.4-1.6h-.1l-.4 1.6-1.8 5.8h-1.4l-2.8-9.5h1.7l1.7 6zM344.5 308.4c0 1.4-.3 2.5-1 3.3s-1.6 1.3-2.7 1.3c-.6 0-1.2-.1-1.6-.4-.5-.2-.8-.6-1.2-1.1l-.2 1.3h-1.4v-13.7h1.7v5.3c.3-.4.7-.7 1.1-1s1-.3 1.6-.3c1.2 0 2.1.5 2.7 1.4s1 2.2 1 3.7v.2zm-1.7-.2c0-1.1-.2-2-.6-2.7s-1-1-1.8-1c-.5 0-1 .1-1.3.4-.4.3-.7.6-.9 1.1v4.1c.2.5.5.8.9 1.1s.8.4 1.4.4c.8 0 1.4-.3 1.8-.9s.6-1.3.6-2.3v-.2zM352.4 312.8c-.1-.3-.1-.5-.1-.8 0-.2-.1-.4-.1-.7-.3.5-.7.8-1.3 1.1-.5.3-1.1.5-1.7.5-1 0-1.7-.3-2.3-.8-.5-.5-.8-1.2-.8-2.1 0-.9.4-1.6 1.1-2.1s1.7-.8 3-.8h1.9v-.9c0-.6-.2-1-.5-1.3-.3-.3-.8-.5-1.4-.5-.6 0-1 .1-1.4.4s-.5.6-.5 1h-1.7v-.1c0-.7.3-1.3 1-1.9s1.6-.9 2.7-.9 1.9.3 2.6.8 1 1.3 1 2.4v4.6c0 .3 0 .7.1 1s.1.6.2.9h-1.8zm-2.8-1.2c.6 0 1.2-.2 1.7-.5s.8-.7 1-1.1v-1.5h-1.9c-.7 0-1.3.2-1.7.5-.4.4-.6.8-.6 1.2 0 .4.1.8.4 1s.5.4 1.1.4zM361 304.8l-.9-.1c-.5 0-.8.1-1.2.3s-.6.5-.7.9v6.8h-1.7v-9.5h1.5l.2 1.4c.3-.5.6-.9 1-1.2s.9-.4 1.4-.4h.4c.1 0 .2 0 .3.1l-.3 1.7zM367.2 304.8l-.9-.1c-.5 0-.8.1-1.2.3s-.6.5-.7.9v6.8h-1.7v-9.5h1.5l.2 1.4c.3-.5.6-.9 1-1.2s.9-.4 1.4-.4h.4c.1 0 .2 0 .3.1l-.3 1.7zM370.7 300.9H369v-1.8h1.7v1.8zm0 11.9H369v-9.5h1.7v9.5zM377.3 313c-1.3 0-2.4-.4-3.2-1.3-.8-.9-1.2-2-1.2-3.4v-.4c0-1.4.4-2.5 1.2-3.4s1.8-1.3 2.9-1.3c1.3 0 2.3.4 2.9 1.2s1 1.8 1 3.1v1.1h-6.2c0 .9.2 1.7.7 2.2s1.1.9 1.9.9c.6 0 1.1-.1 1.5-.2.4-.2.8-.4 1.1-.7l.7 1.1c-.3.3-.8.6-1.3.8-.5.2-1.2.3-2 .3zm-.3-8.5c-.6 0-1.1.2-1.5.7s-.7 1.1-.8 1.8h4.4v-.2c0-.7-.2-1.2-.5-1.7-.3-.4-.8-.6-1.6-.6zM387.4 304.8l-.9-.1c-.5 0-.8.1-1.2.3s-.6.5-.7.9v6.8h-1.7v-9.5h1.5l.2 1.4c.3-.5.6-.9 1-1.2s.9-.4 1.4-.4h.4c.1 0 .2 0 .3.1l-.3 1.7zM389.4 305.1h-1.7v-1.8h1.7v1.8zm0 7.7h-1.7V311h1.7v1.8z"/></g><g><path class="st12" d="M460.5 82.3h131.3"/><path class="st13" d="M591.7 67.9h192.8v29H591.7v-29z"/><g class="st1"><path class="st2" d="M614.7 84.5c-.1 1.2-.5 2.1-1.2 2.7s-1.7 1-2.9 1c-1.3 0-2.3-.5-3.1-1.4s-1.2-2.1-1.2-3.6v-1.9c0-1.4.4-2.6 1.2-3.6s1.8-1.4 3.1-1.4c1.2 0 2.2.3 2.9 1s1.1 1.5 1.2 2.7h-.9c-.1-.9-.4-1.7-1-2.2s-1.3-.8-2.2-.8c-1 0-1.8.4-2.4 1.2s-.9 1.8-.9 3v1.9c0 1.2.3 2.2.9 3s1.4 1.2 2.4 1.2 1.7-.2 2.2-.7.8-1.2 1-2.2h.9zM617.8 81.1c.3-.5.7-.9 1.1-1.2s1-.4 1.6-.4c.9 0 1.6.3 2.1.8s.7 1.4.7 2.6v5.2h-.9v-5.2c0-.9-.2-1.6-.5-2s-.9-.6-1.5-.6-1.2.2-1.6.5-.7.8-.9 1.3v6h-.9V75.9h.9v5.2zM625.2 83.7c0-1.2.3-2.3 1-3.1s1.6-1.2 2.7-1.2 2 .4 2.7 1.2 1 1.8 1 3.1v.3c0 1.2-.3 2.3-1 3.1s-1.6 1.2-2.7 1.2-2-.4-2.7-1.2-1-1.8-1-3.1v-.3zm1 .3c0 1 .2 1.8.7 2.5s1.2 1 2.1 1c.9 0 1.6-.3 2.1-1s.7-1.5.7-2.5v-.3c0-1-.2-1.8-.8-2.5s-1.2-1-2.1-1-1.6.3-2.1 1-.7 1.5-.7 2.5v.3zM634.1 83.7c0-1.2.3-2.3 1-3.1s1.6-1.2 2.7-1.2 2 .4 2.7 1.2 1 1.8 1 3.1v.3c0 1.2-.3 2.3-1 3.1s-1.6 1.2-2.7 1.2-2-.4-2.7-1.2-1-1.8-1-3.1v-.3zm1 .3c0 1 .2 1.8.7 2.5s1.2 1 2.1 1c.9 0 1.6-.3 2.1-1s.7-1.5.7-2.5v-.3c0-1-.2-1.8-.8-2.5s-1.2-1-2.1-1-1.6.3-2.1 1-.7 1.5-.7 2.5v.3zM648.6 85.9c0-.4-.2-.7-.5-1-.3-.3-.9-.5-1.8-.7-1-.2-1.8-.5-2.2-.9s-.7-.9-.7-1.5.3-1.2.8-1.6 1.3-.7 2.2-.7c1 0 1.7.2 2.3.7s.8 1.1.8 1.8h-.9c0-.5-.2-.9-.6-1.2s-.9-.5-1.6-.5c-.7 0-1.2.1-1.5.4s-.5.6-.5 1 .1.7.4 1 .9.5 1.8.7c1 .2 1.8.5 2.3.9s.8.9.8 1.6c0 .7-.3 1.3-.9 1.7s-1.3.7-2.3.7c-1 0-1.8-.2-2.4-.7s-.9-1.1-.8-1.8h.9c0 .6.3 1 .7 1.3.5.3 1 .4 1.6.4.7 0 1.2-.1 1.6-.4s.5-.8.5-1.2zM654.9 88.2c-1.1 0-1.9-.4-2.6-1.2s-1.1-1.8-1.1-3v-.4c0-1.2.3-2.2 1-3s1.5-1.2 2.5-1.2 1.9.3 2.4 1 .9 1.5.9 2.6v.8h-6v.2c0 1 .3 1.7.8 2.4.5.6 1.2 1 2 1 .6 0 1.1-.1 1.5-.2s.8-.4 1.1-.7l.4.6c-.3.3-.7.6-1.2.8s-1 .3-1.7.3zm-.1-7.9c-.7 0-1.3.3-1.7.8s-.7 1.2-.8 2h5v-.2c0-.7-.2-1.3-.6-1.8s-1.2-.8-1.9-.8zM666.3 85.8l.3 1 2.6-7.2h1l-3.7 9.8c-.2.6-.5 1.1-.9 1.5s-.9.6-1.5.6h-.4c-.2 0-.3 0-.3-.1l.1-.8h.6c.4 0 .7-.1 1-.4s.5-.7.6-1.1l.4-1.1-3.3-8.3h1l2.5 6.1zM671 83.7c0-1.2.3-2.3 1-3.1s1.6-1.2 2.7-1.2 2 .4 2.7 1.2 1 1.8 1 3.1v.3c0 1.2-.3 2.3-1 3.1s-1.6 1.2-2.7 1.2-2-.4-2.7-1.2-1-1.8-1-3.1v-.3zm1 .3c0 1 .2 1.8.7 2.5s1.2 1 2.1 1c.9 0 1.6-.3 2.1-1s.7-1.5.7-2.5v-.3c0-1-.2-1.8-.8-2.5s-1.2-1-2.1-1-1.6.3-2.1 1-.7 1.5-.7 2.5v.3zM686 86.7c-.3.5-.6.9-1.1 1.1s-1 .4-1.6.4c-.9 0-1.6-.3-2.1-.9s-.8-1.5-.8-2.8v-4.9h.9v4.9c0 1 .2 1.8.5 2.2.4.4.9.7 1.5.7.7 0 1.3-.2 1.7-.5s.7-.8.9-1.3v-6h.9v8.5h-.8v-1.4zM693.3 80.4h-.7c-.6 0-1.1.2-1.4.5s-.6.8-.8 1.4v5.8h-.9v-8.5h.8l.1 1.4v.1c.2-.5.6-.9 1-1.2s.9-.4 1.5-.4h.3c.1 0 .2 0 .3.1l-.2.8zM700.2 77.5v2.2h1.9v.8h-1.9V86c0 .6.1.9.3 1.2s.5.3.8.3h.4c.1 0 .3 0 .5-.1l.1.7c-.2.1-.3.1-.6.2s-.4.1-.7.1c-.6 0-1.1-.2-1.4-.6s-.5-1-.5-1.8v-5.5h-1.5v-.8h1.5v-2.2h1.1zM707.9 80.4h-.7c-.6 0-1.1.2-1.4.5s-.6.8-.8 1.4v5.8h-1v-8.5h.8l.2 1.4v.1c.2-.5.6-.9 1-1.2s.9-.4 1.5-.4h.3c.1 0 .2 0 .3.1l-.2.8zM714.8 88.1c-.1-.3-.1-.5-.1-.7v-.6c-.3.4-.7.8-1.2 1.1s-1.1.4-1.8.4c-.8 0-1.5-.2-1.9-.7s-.7-1-.7-1.8.3-1.4 1-1.9 1.6-.7 2.7-.7h1.9v-1c0-.6-.2-1.1-.6-1.4s-.9-.5-1.6-.5c-.7 0-1.2.2-1.6.5s-.6.7-.6 1.2h-.9c0-.6.3-1.2.9-1.7s1.4-.7 2.3-.7c.9 0 1.7.2 2.2.7s.9 1.2.9 2v4.2c0 .3 0 .6.1.9s.1.6.2.8h-1.2zm-3-.7c.7 0 1.3-.2 1.8-.5s.9-.7 1.1-1.2V84h-1.9c-.8 0-1.5.2-2 .5s-.8.8-.8 1.3.2.8.5 1.1.7.5 1.3.5zM717.7 83.9c0-1.3.3-2.4.9-3.2s1.4-1.2 2.4-1.2c.6 0 1.1.1 1.5.4s.8.6 1.1 1.1v-5h.9v12.2h-.8l-.1-1.2c-.3.4-.6.8-1.1 1s-1 .4-1.6.4c-1 0-1.8-.4-2.4-1.1s-.9-1.8-.9-3v-.4zm.9.2c0 1 .2 1.8.6 2.4s1 .9 1.8.9c.6 0 1.1-.1 1.5-.4.4-.3.7-.6.9-1.1v-4c-.2-.5-.5-.9-.9-1.2-.4-.3-.9-.5-1.5-.5-.8 0-1.4.3-1.9 1-.4.7-.6 1.6-.6 2.6v.3zM730.2 88.2c-1.1 0-1.9-.4-2.6-1.2s-1.1-1.8-1.1-3v-.4c0-1.2.3-2.2 1-3s1.5-1.2 2.5-1.2 1.9.3 2.4 1 .9 1.5.9 2.6v.8h-6v.2c0 1 .3 1.7.8 2.4.5.6 1.2 1 2 1 .6 0 1.1-.1 1.5-.2s.8-.4 1.1-.7l.4.6c-.3.3-.7.6-1.2.8s-1.1.3-1.7.3zm-.2-7.9c-.7 0-1.3.3-1.7.8s-.7 1.2-.8 2h5v-.2c0-.7-.2-1.3-.6-1.8s-1.1-.8-1.9-.8zM740.6 77.5v2.2h1.9v.8h-1.9V86c0 .6.1.9.3 1.2s.5.3.8.3h.4c.1 0 .3 0 .5-.1l.1.7c-.2.1-.3.1-.6.2s-.4.1-.7.1c-.6 0-1.1-.2-1.4-.6s-.5-1-.5-1.8v-5.5H738v-.8h1.5v-2.2h1.1zM746.8 85.8l.3 1 2.6-7.2h1l-3.7 9.8c-.2.6-.5 1.1-.9 1.5s-.9.6-1.5.6h-.4c-.2 0-.3 0-.3-.1l.1-.8h.6c.4 0 .7-.1 1-.4s.5-.7.6-1.1l.4-1.1-3.3-8.3h1l2.5 6.1zM759.1 84.1c0 1.3-.3 2.3-.9 3s-1.4 1.1-2.4 1.1c-.6 0-1.1-.1-1.6-.3s-.8-.5-1.1-1v4.4h-.9V79.6h.8l.1 1.3c.3-.5.6-.8 1.1-1.1s1-.4 1.6-.4c1 0 1.8.4 2.4 1.2s.9 1.9.9 3.2v.3zm-1-.2c0-1.1-.2-2-.6-2.6s-1.1-1-1.9-1c-.6 0-1.1.2-1.5.4-.4.3-.7.7-.9 1.2V86c.2.5.5.8.9 1.1.4.3.9.4 1.5.4.8 0 1.4-.3 1.9-.9s.6-1.4.6-2.4v-.3zM764.3 88.2c-1.1 0-1.9-.4-2.6-1.2s-1.1-1.8-1.1-3v-.4c0-1.2.3-2.2 1-3s1.5-1.2 2.5-1.2 1.9.3 2.4 1 .9 1.5.9 2.6v.8h-6v.2c0 1 .3 1.7.8 2.4.5.6 1.2 1 2 1 .6 0 1.1-.1 1.5-.2s.8-.4 1.1-.7l.4.6c-.3.3-.7.6-1.2.8s-1 .3-1.7.3zm-.1-7.9c-.7 0-1.3.3-1.7.8s-.7 1.2-.8 2h5v-.2c0-.7-.2-1.3-.6-1.8s-1.1-.8-1.9-.8z"/></g></g><g><path class="st12" d="M530.4 153.1h101.8"/><path class="st13" d="M632.2 138.8h139.7v29H632.2v-29z"/><g class="st1"><path class="st2" d="M650.7 153.8l3.5-6.3h1.1l-4.1 7.2v4.2h-.9v-4.2l-4.1-7.2h1.1l3.4 6.3zM655.7 154.5c0-1.2.3-2.3 1-3.1.7-.8 1.6-1.2 2.7-1.2s2 .4 2.7 1.2c.7.8 1 1.8 1 3.1v.3c0 1.2-.3 2.3-1 3.1s-1.6 1.2-2.7 1.2-2-.4-2.7-1.2c-.7-.8-1-1.8-1-3.1v-.3zm1 .3c0 1 .2 1.8.7 2.5.5.7 1.2 1 2.1 1 .9 0 1.6-.3 2.1-1s.7-1.5.7-2.5v-.3c0-1-.2-1.8-.8-2.5s-1.2-1-2.1-1-1.6.3-2.1 1-.7 1.5-.7 2.5v.3zM670.7 157.5c-.3.5-.6.9-1.1 1.1-.5.3-1 .4-1.6.4-.9 0-1.6-.3-2.1-.9-.5-.6-.8-1.5-.8-2.8v-4.9h.9v4.9c0 1 .2 1.8.5 2.2.4.4.8.7 1.5.7s1.3-.2 1.7-.5.7-.8.9-1.3v-6h.9v8.5h-.8v-1.4zM678 151.2h-.7c-.6 0-1.1.2-1.4.5-.4.3-.6.8-.8 1.4v5.8h-.9v-8.5h.8l.1 1.4v.1c.2-.5.6-.9 1-1.2.4-.3.9-.4 1.5-.4h.3c.1 0 .2 0 .3.1l-.2.8zM688.9 157.5c-.3.5-.6.9-1.1 1.1-.5.3-1 .4-1.6.4-.9 0-1.6-.3-2.1-.9-.5-.6-.8-1.5-.8-2.8v-4.9h.9v4.9c0 1 .2 1.8.5 2.2.4.4.8.7 1.5.7s1.3-.2 1.7-.5.7-.8.9-1.3v-6h.9v8.5h-.7l-.1-1.4zM693.1 150.4l.1 1.5c.3-.5.6-.9 1.1-1.2s1-.4 1.6-.4c.9 0 1.6.3 2.1.8.5.6.7 1.4.7 2.6v5.1h-.9v-5.2c0-1-.2-1.7-.5-2.1-.4-.4-.9-.6-1.5-.6-.7 0-1.2.2-1.6.5s-.7.8-.9 1.4v5.9h-.9v-8.5h.7zM700.8 154.7c0-1.3.3-2.4.9-3.2s1.4-1.2 2.4-1.2c.6 0 1.1.1 1.5.4.4.2.8.6 1.1 1.1v-5h.9V159h-.8l-.1-1.2c-.3.4-.6.8-1.1 1-.4.2-1 .4-1.6.4-1 0-1.8-.4-2.4-1.1s-.9-1.8-.9-3v-.4zm1 .2c0 1 .2 1.8.6 2.4.4.6 1 .9 1.8.9.6 0 1.1-.1 1.5-.4.4-.3.7-.6.9-1.1v-4c-.2-.5-.5-.9-.9-1.2-.4-.3-.9-.5-1.5-.5-.8 0-1.4.3-1.9 1-.4.7-.6 1.6-.6 2.6v.3zM713.3 159.1c-1.1 0-1.9-.4-2.6-1.2-.7-.8-1.1-1.8-1.1-3v-.4c0-1.2.3-2.2 1-3s1.5-1.2 2.5-1.2 1.9.3 2.4 1 .9 1.5.9 2.6v.8h-6v.2c0 1 .3 1.7.8 2.4.5.6 1.2 1 2 1 .6 0 1.1-.1 1.5-.2.4-.2.8-.4 1.1-.7l.4.6c-.3.3-.7.6-1.2.8-.5.2-1 .3-1.7.3zm-.1-8c-.7 0-1.3.3-1.7.8s-.7 1.2-.8 2h5v-.2c0-.7-.2-1.3-.6-1.8-.6-.6-1.2-.8-1.9-.8zM722.3 151.2h-.7c-.6 0-1.1.2-1.4.5-.4.3-.6.8-.8 1.4v5.8h-.9v-8.5h.8l.1 1.4v.1c.2-.5.6-.9 1-1.2.4-.3.9-.4 1.5-.4h.3c.1 0 .2 0 .3.1l-.2.8zM724.9 158.9h-.9v-12.2h.9v12.2zM729.8 156.6l.3 1 2.6-7.2h1l-3.7 9.8c-.2.6-.5 1.1-.9 1.5-.3.4-.9.6-1.5.6h-.4c-.2 0-.3 0-.3-.1l.1-.8h.6c.4 0 .7-.1 1-.4.2-.3.5-.7.6-1.1l.4-1.1-3.3-8.3h1l2.5 6.1zM736.3 148h-.9v-1.3h.9v1.3zm0 10.9h-.9v-8.5h.9v8.5zM739.7 150.4l.1 1.5c.3-.5.6-.9 1.1-1.2s1-.4 1.6-.4c.9 0 1.6.3 2.1.8.5.6.7 1.4.7 2.6v5.1h-.9v-5.2c0-1-.2-1.7-.5-2.1-.4-.4-.9-.6-1.5-.6-.7 0-1.2.2-1.6.5s-.7.8-.9 1.4v5.9h-.9v-8.5h.7zM747.4 154.7c0-1.3.3-2.4.9-3.2.6-.8 1.4-1.2 2.4-1.2.6 0 1.1.1 1.6.4s.8.6 1.1 1.1l.1-1.4h.8v8.3c0 1.1-.3 1.9-.9 2.6s-1.4.9-2.5.9c-.4 0-.8 0-1.3-.1s-.9-.2-1.2-.4l.2-.8c.3.2.7.3 1.1.4.4.1.8.1 1.2.1.8 0 1.4-.2 1.9-.7.4-.5.6-1.1.6-2v-1.1c-.3.4-.6.8-1.1 1s-.9.3-1.5.3c-1 0-1.8-.4-2.4-1.1-.6-.8-.9-1.8-.9-3v-.1zm1 .2c0 1 .2 1.8.6 2.4.4.6 1 .9 1.9.9.6 0 1.1-.1 1.5-.4.4-.3.7-.7.9-1.2v-3.9c-.2-.5-.5-.9-.9-1.2-.4-.3-.9-.5-1.5-.5-.8 0-1.4.3-1.9 1-.4.7-.6 1.6-.6 2.6v.3z"/></g></g><g><path class="st12" d="M279.7 269.9h-61.5"/><path class="st13" d="M78.5 255.5h139.7v29H78.5v-29z"/><g class="st1"><path class="st2" d="M99.9 270.6l3.5-6.3h1.1l-4.1 7.2v4.2h-.9v-4.2l-4.1-7.2h1.1l3.4 6.3zM104.9 271.3c0-1.2.3-2.3 1-3.1.7-.8 1.6-1.2 2.7-1.2s2 .4 2.7 1.2c.7.8 1 1.8 1 3.1v.3c0 1.2-.3 2.3-1 3.1s-1.6 1.2-2.7 1.2-2-.4-2.7-1.2c-.7-.8-1-1.8-1-3.1v-.3zm1 .2c0 1 .2 1.8.7 2.5.5.7 1.2 1 2.1 1 .9 0 1.6-.3 2.1-1s.7-1.5.7-2.5v-.3c0-1-.2-1.8-.8-2.5s-1.2-1-2.1-1-1.6.3-2.1 1-.7 1.5-.7 2.5v.3zM119.9 274.3c-.3.5-.6.9-1.1 1.1-.5.3-1 .4-1.6.4-.9 0-1.6-.3-2.1-.9-.5-.6-.8-1.5-.8-2.8v-4.9h.9v4.9c0 1 .2 1.8.5 2.2.4.4.9.7 1.5.7.7 0 1.3-.2 1.7-.5s.7-.8.9-1.3v-6h.9v8.5h-.7l-.1-1.4zM127.2 268h-.7c-.6 0-1.1.2-1.4.5-.4.3-.6.8-.8 1.4v5.8h-.9v-8.5h.8l.1 1.4v.1c.2-.5.6-.9 1-1.2.4-.3.9-.4 1.5-.4h.3c.1 0 .2 0 .3.1l-.2.8zM138.2 274.3c-.3.5-.6.9-1.1 1.1-.5.3-1 .4-1.6.4-.9 0-1.6-.3-2.1-.9-.5-.6-.8-1.5-.8-2.8v-4.9h.9v4.9c0 1 .2 1.8.5 2.2.4.4.9.7 1.5.7.7 0 1.3-.2 1.7-.5s.7-.8.9-1.3v-6h.9v8.5h-.8v-1.4zM142.4 267.2l.1 1.5c.3-.5.6-.9 1.1-1.2s1-.4 1.6-.4c.9 0 1.6.3 2.1.8.5.6.7 1.4.7 2.6v5.1h-.9v-5.2c0-1-.2-1.7-.5-2.1-.4-.4-.9-.6-1.5-.6-.7 0-1.2.2-1.6.5s-.7.8-.9 1.4v5.9h-.9V267h.7zM150.1 271.5c0-1.3.3-2.4.9-3.2s1.4-1.2 2.4-1.2c.6 0 1.1.1 1.5.4.4.2.8.6 1.1 1.1v-5h.9v12.2h-.9l-.1-1.2c-.3.4-.6.8-1.1 1-.4.2-1 .4-1.6.4-1 0-1.8-.4-2.4-1.1s-.9-1.8-.9-3v-.4zm.9.2c0 1 .2 1.8.6 2.4.4.6 1 .9 1.8.9.6 0 1.1-.1 1.5-.4.4-.3.7-.6.9-1.1v-4c-.2-.5-.5-.9-.9-1.2-.4-.3-.9-.5-1.5-.5-.8 0-1.4.3-1.9 1-.4.7-.6 1.6-.6 2.6v.3zM162.5 275.8c-1.1 0-1.9-.4-2.6-1.2-.7-.8-1.1-1.8-1.1-3v-.4c0-1.2.3-2.2 1-3s1.5-1.2 2.5-1.2 1.9.3 2.4 1 .9 1.5.9 2.6v.8h-6v.2c0 1 .3 1.7.8 2.4.5.6 1.2 1 2 1 .6 0 1.1-.1 1.5-.2.4-.2.8-.4 1.1-.7l.4.6c-.3.3-.7.6-1.2.8-.4.2-1 .3-1.7.3zm-.1-8c-.7 0-1.3.3-1.7.8s-.7 1.2-.8 2h5v-.2c0-.7-.2-1.3-.6-1.8-.6-.5-1.2-.8-1.9-.8zM171.5 268h-.7c-.6 0-1.1.2-1.4.5-.4.3-.6.8-.8 1.4v5.8h-.9v-8.5h.8l.1 1.4v.1c.2-.5.6-.9 1-1.2.4-.3.9-.4 1.5-.4h.3c.1 0 .2 0 .3.1l-.2.8zM174.1 275.6h-.9v-12.2h.9v12.2zM179.1 273.4l.3 1 2.6-7.2h1l-3.7 9.8c-.2.6-.5 1.1-.9 1.5-.3.4-.9.6-1.5.6h-.4c-.2 0-.3 0-.3-.1l.1-.8h.6c.4 0 .7-.1 1-.4.2-.3.5-.7.6-1.1l.4-1.1-3.3-8.3h1l2.5 6.1zM185.5 264.8h-.9v-1.3h.9v1.3zm0 10.8h-.9v-8.5h.9v8.5zM188.9 267.2l.1 1.5c.3-.5.6-.9 1.1-1.2s1-.4 1.6-.4c.9 0 1.6.3 2.1.8.5.6.7 1.4.7 2.6v5.1h-.9v-5.2c0-1-.2-1.7-.5-2.1-.4-.4-.9-.6-1.5-.6-.7 0-1.2.2-1.6.5s-.7.8-.9 1.4v5.9h-.9V267h.7zM196.7 271.5c0-1.3.3-2.4.9-3.2.6-.8 1.4-1.2 2.4-1.2.6 0 1.1.1 1.6.4s.8.6 1.1 1.1l.1-1.4h.8v8.3c0 1.1-.3 1.9-.9 2.6s-1.4.9-2.5.9c-.4 0-.8 0-1.3-.1s-.9-.2-1.2-.4l.2-.8c.3.2.7.3 1.1.4.4.1.8.1 1.2.1.8 0 1.4-.2 1.9-.7.4-.5.6-1.1.6-2v-1.1c-.3.4-.6.8-1.1 1s-.9.3-1.5.3c-1 0-1.8-.4-2.4-1.1-.6-.8-.9-1.8-.9-3v-.1zm.9.2c0 1 .2 1.8.6 2.4.4.6 1 .9 1.9.9.6 0 1.1-.1 1.5-.4.4-.3.7-.7.9-1.2v-3.9c-.2-.5-.5-.9-.9-1.2-.4-.3-.9-.5-1.5-.5-.8 0-1.4.3-1.9 1-.4.7-.6 1.6-.6 2.6v.3z"/></g></g><g><path class="st12" d="M259.5 344.4H198"/><path class="st13" d="M84.2 330.1h113.9v29H84.2v-29z"/><g class="st1"><path class="st2" d="M104.7 345.1l3.5-6.3h1.1l-4.1 7.2v4.2h-.9V346l-4.1-7.2h1.1l3.4 6.3zM109.7 345.8c0-1.2.3-2.3 1-3.1.7-.8 1.6-1.2 2.7-1.2s2 .4 2.7 1.2c.7.8 1 1.8 1 3.1v.3c0 1.2-.3 2.3-1 3.1s-1.6 1.2-2.7 1.2-2-.4-2.7-1.2c-.7-.8-1-1.8-1-3.1v-.3zm1 .3c0 1 .2 1.8.7 2.5.5.7 1.2 1 2.1 1 .9 0 1.6-.3 2.1-1s.7-1.5.7-2.5v-.3c0-1-.2-1.8-.8-2.5s-1.2-1-2.1-1-1.6.3-2.1 1-.7 1.5-.7 2.5v.3zM124.7 348.8c-.3.5-.6.9-1.1 1.1-.5.3-1 .4-1.6.4-.9 0-1.6-.3-2.1-.9-.5-.6-.8-1.5-.8-2.8v-4.9h.9v4.9c0 1 .2 1.8.5 2.2.4.4.9.7 1.5.7.7 0 1.3-.2 1.7-.5s.7-.8.9-1.3v-6h.9v8.5h-.8v-1.4zM132 342.5h-.7c-.6 0-1.1.2-1.4.5-.4.3-.6.8-.8 1.4v5.8h-.9v-8.5h.8l.1 1.4v.1c.2-.5.6-.9 1-1.2.4-.3.9-.4 1.5-.4h.3c.1 0 .2 0 .3.1l-.2.8zM144.2 346.2c0 1.3-.3 2.3-.9 3-.6.8-1.4 1.1-2.4 1.1-.6 0-1.1-.1-1.6-.3s-.8-.5-1.1-1v4.4h-.9v-11.7h.8l.1 1.3c.3-.5.6-.8 1.1-1.1s1-.4 1.6-.4c1 0 1.8.4 2.4 1.2.6.8.9 1.9.9 3.2v.3zm-.9-.2c0-1.1-.2-2-.6-2.6-.4-.7-1.1-1-1.9-1-.6 0-1.1.2-1.5.4-.4.3-.7.7-.9 1.2v4.1c.2.5.5.8.9 1.1.4.3.9.4 1.5.4.8 0 1.4-.3 1.9-.9.4-.6.6-1.4.6-2.4v-.3zM151.7 350.2c-.1-.3-.1-.5-.1-.7v-.6c-.3.4-.7.8-1.2 1.1-.5.3-1.1.4-1.8.4-.8 0-1.5-.2-1.9-.7-.5-.4-.7-1-.7-1.8s.3-1.4 1-1.9 1.6-.7 2.7-.7h1.9v-1c0-.6-.2-1.1-.6-1.4-.4-.3-.9-.5-1.6-.5-.7 0-1.2.2-1.6.5s-.6.7-.6 1.2h-.9c0-.6.3-1.2.9-1.7.6-.5 1.4-.7 2.3-.7.9 0 1.7.2 2.2.7.6.5.9 1.2.9 2v4.2c0 .3 0 .6.1.9 0 .3.1.6.2.8h-1.2zm-3.1-.7c.7 0 1.3-.2 1.8-.5s.9-.7 1.1-1.2V346h-1.9c-.8 0-1.5.2-2 .5s-.8.8-.8 1.3.2.8.5 1.1c.3.5.7.6 1.3.6zM157.2 347.9l.3 1 2.6-7.2h1l-3.7 9.8c-.2.6-.5 1.1-.9 1.5-.3.4-.9.6-1.5.6h-.4c-.2 0-.3 0-.3-.1l.1-.8h.6c.4 0 .7-.1 1-.4.2-.3.5-.7.6-1.1l.4-1.1-3.3-8.3h1l2.5 6.1zM162 345.8c0-1.2.3-2.3 1-3.1.7-.8 1.6-1.2 2.7-1.2s2 .4 2.7 1.2c.7.8 1 1.8 1 3.1v.3c0 1.2-.3 2.3-1 3.1s-1.6 1.2-2.7 1.2-2-.4-2.7-1.2c-.7-.8-1-1.8-1-3.1v-.3zm.9.3c0 1 .2 1.8.7 2.5.5.7 1.2 1 2.1 1 .9 0 1.6-.3 2.1-1s.7-1.5.7-2.5v-.3c0-1-.2-1.8-.8-2.5s-1.2-1-2.1-1-1.6.3-2.1 1-.7 1.5-.7 2.5v.3zM177 348.8c-.3.5-.6.9-1.1 1.1-.5.3-1 .4-1.6.4-.9 0-1.6-.3-2.1-.9-.5-.6-.8-1.5-.8-2.8v-4.9h.9v4.9c0 1 .2 1.8.5 2.2.4.4.9.7 1.5.7.7 0 1.3-.2 1.7-.5s.7-.8.9-1.3v-6h.9v8.5h-.8v-1.4zM181.8 339.6v2.2h1.9v.8h-1.9v5.5c0 .6.1.9.3 1.2.2.2.5.3.8.3h.4c.1 0 .3 0 .5-.1l.1.7c-.2.1-.3.1-.6.2-.2 0-.4.1-.7.1-.6 0-1.1-.2-1.4-.6-.3-.4-.5-1-.5-1.8v-5.5h-1.5v-.8h1.5v-2.2h1.1z"/></g></g><g><path class="st12" d="M640.4 190.9h99.1"/><path class="st13" d="M739.5 176.5h122v29h-122v-29z"/><g class="st1"><path class="st2" d="M758 191.6l3.5-6.3h1.1l-4.1 7.2v4.2h-.9v-4.2l-4.1-7.2h1.1l3.4 6.3zM763.1 192.3c0-1.2.3-2.3 1-3.1.7-.8 1.6-1.2 2.7-1.2s2 .4 2.7 1.2c.7.8 1 1.8 1 3.1v.3c0 1.2-.3 2.3-1 3.1s-1.6 1.2-2.7 1.2-2-.4-2.7-1.2c-.7-.8-1-1.8-1-3.1v-.3zm.9.2c0 1 .2 1.8.7 2.5.5.7 1.2 1 2.1 1 .9 0 1.6-.3 2.1-1s.7-1.5.7-2.5v-.3c0-1-.2-1.8-.8-2.5s-1.2-1-2.1-1-1.6.3-2.1 1-.7 1.5-.7 2.5v.3zM778.1 195.3c-.3.5-.6.9-1.1 1.1-.5.3-1 .4-1.6.4-.9 0-1.6-.3-2.1-.9-.5-.6-.8-1.5-.8-2.8v-4.9h.9v4.9c0 1 .2 1.8.5 2.2.4.4.9.7 1.5.7.7 0 1.3-.2 1.7-.5s.7-.8.9-1.3v-6h.9v8.5h-.8v-1.4zM785.3 189h-.7c-.6 0-1.1.2-1.4.5-.4.3-.6.8-.8 1.4v5.8h-.9v-8.5h.8l.1 1.4v.1c.2-.5.6-.9 1-1.2.4-.3.9-.4 1.5-.4h.3c.1 0 .2 0 .3.1l-.2.8zM790.4 192.5c0-1.3.3-2.4.9-3.2s1.4-1.2 2.4-1.2c.6 0 1.1.1 1.5.4.4.2.8.6 1.1 1.1v-5h.9v12.2h-.8l-.1-1.2c-.3.4-.6.8-1.1 1-.4.2-1 .4-1.6.4-1 0-1.8-.4-2.4-1.1s-.9-1.8-.9-3v-.4zm.9.2c0 1 .2 1.8.6 2.4.4.6 1 .9 1.8.9.6 0 1.1-.1 1.5-.4.4-.3.7-.6.9-1.1v-4c-.2-.5-.5-.9-.9-1.2-.4-.3-.9-.5-1.5-.5-.8 0-1.4.3-1.9 1-.4.7-.6 1.6-.6 2.6v.3zM805.2 195.3c-.3.5-.6.9-1.1 1.1-.5.3-1 .4-1.6.4-.9 0-1.6-.3-2.1-.9-.5-.6-.8-1.5-.8-2.8v-4.9h.9v4.9c0 1 .2 1.8.5 2.2.4.4.9.7 1.5.7.7 0 1.3-.2 1.7-.5s.7-.8.9-1.3v-6h.9v8.5h-.8v-1.4zM812.5 189h-.7c-.6 0-1.1.2-1.4.5-.4.3-.6.8-.8 1.4v5.8h-.9v-8.5h.8l.1 1.4v.1c.2-.5.6-.9 1-1.2.4-.3.9-.4 1.5-.4h.3c.1 0 .2 0 .3.1l-.2.8zM819.4 196.6c-.1-.3-.1-.5-.1-.7v-.6c-.3.4-.7.8-1.2 1.1-.5.3-1.1.4-1.8.4-.8 0-1.5-.2-1.9-.7-.5-.4-.7-1-.7-1.8s.3-1.4 1-1.9 1.6-.7 2.7-.7h1.9v-1c0-.6-.2-1.1-.6-1.4-.4-.3-.9-.5-1.6-.5-.7 0-1.2.2-1.6.5s-.6.7-.6 1.2h-.9c0-.6.3-1.2.9-1.7.6-.5 1.4-.7 2.3-.7.9 0 1.7.2 2.2.7.6.5.9 1.2.9 2v4.2c0 .3 0 .6.1.9 0 .3.1.6.2.8h-1.2zm-3.1-.6c.7 0 1.3-.2 1.8-.5s.9-.7 1.1-1.2v-1.8h-1.9c-.8 0-1.5.2-2 .5s-.8.8-.8 1.3.2.8.5 1.1c.3.4.8.6 1.3.6zM824.1 186v2.2h1.9v.8h-1.9v5.5c0 .6.1.9.3 1.2.2.2.5.3.8.3h.4c.1 0 .3 0 .5-.1l.1.7c-.2.1-.3.1-.6.2-.2 0-.4.1-.7.1-.6 0-1.1-.2-1.4-.6-.3-.4-.5-1-.5-1.8V189h-1.5v-.8h1.5V186h1.1zM829 185.8h-.9v-1.3h.9v1.3zm0 10.8h-.9v-8.5h.9v8.5zM831 192.3c0-1.2.3-2.3 1-3.1.7-.8 1.6-1.2 2.7-1.2s2 .4 2.7 1.2c.7.8 1 1.8 1 3.1v.3c0 1.2-.3 2.3-1 3.1s-1.6 1.2-2.7 1.2-2-.4-2.7-1.2c-.7-.8-1-1.8-1-3.1v-.3zm1 .2c0 1 .2 1.8.7 2.5.5.7 1.2 1 2.1 1 .9 0 1.6-.3 2.1-1s.7-1.5.7-2.5v-.3c0-1-.2-1.8-.8-2.5s-1.2-1-2.1-1-1.6.3-2.1 1-.7 1.5-.7 2.5v.3zM841.3 188.2l.1 1.5c.3-.5.6-.9 1.1-1.2s1-.4 1.6-.4c.9 0 1.6.3 2.1.8.5.6.7 1.4.7 2.6v5.1h-.9v-5.2c0-1-.2-1.7-.5-2.1-.4-.4-.9-.6-1.5-.6-.7 0-1.2.2-1.6.5s-.7.8-.9 1.4v5.9h-.9V188h.7z"/></g></g></svg>