<?xml version="1.0" encoding="utf-8"?>
<!-- Generator: Adobe Illustrator 19.1.0, SVG Export Plug-In . SVG Version: 6.00 Build 0)  -->
<svg version="1.1" id="Layer_1" xmlns="http://www.w3.org/2000/svg" xmlns:xlink="http://www.w3.org/1999/xlink" x="0" y="0"
	 viewBox="0 0 940 500" style="enable-background:new 0 0 940 500;" xml:space="preserve">
<style type="text/css">
	.st0{fill:#F3F3F3;}
	.st1{enable-background:new    ;}
	.st2{fill:#020202;}
	.st3{fill:#2A3252;}
	.st4{fill:#FFFFFF;}
	.st5{fill:#FFFFFF;stroke:#464A4E;stroke-miterlimit:10;}
	.st6{fill:#E98026;}
	.st7{fill:#FFFFFF;stroke:#DFDFDE;stroke-miterlimit:10;}
	.st8{fill:#FFFFFF;stroke:#DFDFDE;stroke-width:1.0518;stroke-miterlimit:10;}
	.st9{fill:#318A42;}
	.st10{fill:none;stroke:#020202;stroke-miterlimit:10;}
	.st11{fill:none;stroke:#020202;stroke-miterlimit:10;stroke-dasharray:0.9744,0.9744;}
	.st12{fill:none;stroke:#CAC8BA;stroke-miterlimit:10;}
	.st13{fill:#FEFDF0;stroke:#CAC8BA;stroke-miterlimit:10;}
</style>
<g>
	<g>
		<path class="st0" d="M280.8,93.7h-91v-22c0-2.2,1.8-4,4-4h83c2.2,0,4,1.8,4,4V93.7z"/>
		<g class="st1">
			<path class="st2" d="M203.5,85.1h-1.3V81h-4.5v4.1h-1.3v-9.2h1.3V80h4.5v-4.2h1.3V85.1z"/>
			<path class="st2" d="M206.9,76.5h-1.3v-1.3h1.3V76.5z M206.9,85.1h-1.3v-6.9h1.3V85.1z"/>
			<path class="st2" d="M208.5,81.8c0-1.1,0.2-2,0.7-2.7s1.1-1,2-1c0.4,0,0.8,0.1,1.1,0.3s0.6,0.4,0.8,0.8l0.2-0.9h1v6.9
				c0,0.9-0.3,1.6-0.8,2s-1.3,0.7-2.2,0.7c-0.3,0-0.7,0-1.1-0.1c-0.4-0.1-0.7-0.2-1-0.4l0.3-1c0.2,0.1,0.5,0.2,0.8,0.3
				s0.6,0.1,0.9,0.1c0.6,0,1.1-0.1,1.3-0.4c0.3-0.3,0.4-0.7,0.4-1.3v-0.8c-0.2,0.3-0.5,0.5-0.8,0.7c-0.3,0.1-0.7,0.2-1.1,0.2
				c-0.8,0-1.5-0.3-2-0.9s-0.7-1.4-0.7-2.4V81.8z M209.8,81.9c0,0.7,0.1,1.2,0.4,1.7s0.7,0.6,1.3,0.6c0.4,0,0.7-0.1,0.9-0.3
				c0.3-0.2,0.5-0.4,0.6-0.7v-3.2c-0.2-0.3-0.4-0.5-0.6-0.7c-0.3-0.2-0.6-0.3-0.9-0.3c-0.6,0-1,0.2-1.3,0.7s-0.4,1.1-0.4,1.9V81.9z"
				/>
			<path class="st2" d="M217.4,79.1c0.2-0.3,0.5-0.6,0.9-0.8c0.3-0.2,0.7-0.3,1.1-0.3c0.7,0,1.3,0.2,1.7,0.7c0.4,0.4,0.6,1.1,0.6,2
				v4.3h-1.3v-4.3c0-0.6-0.1-1-0.4-1.3c-0.2-0.3-0.6-0.4-1.1-0.4c-0.3,0-0.7,0.1-0.9,0.2c-0.3,0.2-0.5,0.4-0.7,0.7v5.1h-1.3v-9.9
				h1.3V79.1z"/>
			<path class="st2" d="M226.4,85.2c-1,0-1.7-0.3-2.3-1c-0.6-0.6-0.8-1.5-0.8-2.5v-0.3c0-1,0.3-1.8,0.9-2.4c0.6-0.6,1.3-1,2.1-1
				c0.9,0,1.6,0.3,2.1,0.8s0.7,1.3,0.7,2.2v0.8h-4.5l0,0c0,0.7,0.2,1.2,0.5,1.6c0.3,0.4,0.8,0.6,1.4,0.6c0.4,0,0.8-0.1,1.1-0.2
				c0.3-0.1,0.6-0.3,0.8-0.5l0.5,0.8c-0.2,0.2-0.6,0.4-1,0.6S227,85.2,226.4,85.2z M226.2,79.1c-0.4,0-0.8,0.2-1.1,0.5
				c-0.3,0.4-0.5,0.8-0.5,1.3l0,0h3.2v-0.2c0-0.5-0.1-0.9-0.4-1.2S226.7,79.1,226.2,79.1z"/>
			<path class="st2" d="M233.7,79.3l-0.6,0c-0.3,0-0.6,0.1-0.8,0.2c-0.2,0.2-0.4,0.4-0.5,0.7v4.9h-1.3v-6.9h1.1l0.1,1
				c0.2-0.4,0.4-0.6,0.7-0.8c0.3-0.2,0.6-0.3,1-0.3c0.1,0,0.2,0,0.3,0s0.2,0,0.2,0L233.7,79.3z"/>
			<path class="st2" d="M235.1,85.9h-1.1l3.9-10h1.1L235.1,85.9z"/>
			<path class="st2" d="M241.8,84.1h4.4v1h-5.6v-9.2h1.3V84.1z"/>
			<path class="st2" d="M247,81.6c0-1,0.3-1.9,0.8-2.5s1.3-1,2.2-1c1,0,1.7,0.3,2.3,1c0.6,0.7,0.8,1.5,0.8,2.5v0.1
				c0,1-0.3,1.9-0.8,2.5c-0.6,0.7-1.3,1-2.2,1s-1.7-0.3-2.2-1c-0.6-0.7-0.8-1.5-0.8-2.5V81.6z M248.3,81.7c0,0.7,0.2,1.3,0.5,1.8
				c0.3,0.5,0.8,0.7,1.4,0.7c0.6,0,1-0.2,1.4-0.7s0.5-1.1,0.5-1.8v-0.1c0-0.7-0.2-1.3-0.5-1.8c-0.3-0.5-0.8-0.7-1.4-0.7
				c-0.6,0-1,0.2-1.4,0.7c-0.3,0.5-0.5,1.1-0.5,1.8V81.7z"/>
			<path class="st2" d="M256.5,82.6l0.1,0.8h0l0.2-0.8l1.4-4.4h1l1.4,4.4l0.2,0.9h0l0.2-0.9l1.1-4.4h1.2l-2,6.9h-1l-1.3-4.2
				l-0.3-1.2l0,0l-0.3,1.2l-1.3,4.2h-1l-2-6.9h1.2L256.5,82.6z"/>
			<path class="st2" d="M267.4,85.2c-1,0-1.7-0.3-2.3-1c-0.6-0.6-0.8-1.5-0.8-2.5v-0.3c0-1,0.3-1.8,0.9-2.4c0.6-0.6,1.3-1,2.1-1
				c0.9,0,1.6,0.3,2.1,0.8s0.7,1.3,0.7,2.2v0.8h-4.5l0,0c0,0.7,0.2,1.2,0.5,1.6c0.3,0.4,0.8,0.6,1.4,0.6c0.4,0,0.8-0.1,1.1-0.2
				c0.3-0.1,0.6-0.3,0.8-0.5l0.5,0.8c-0.2,0.2-0.6,0.4-1,0.6S268,85.2,267.4,85.2z M267.2,79.1c-0.4,0-0.8,0.2-1.1,0.5
				c-0.3,0.4-0.5,0.8-0.5,1.3l0,0h3.2v-0.2c0-0.5-0.1-0.9-0.4-1.2S267.7,79.1,267.2,79.1z"/>
			<path class="st2" d="M274.7,79.3l-0.6,0c-0.3,0-0.6,0.1-0.8,0.2c-0.2,0.2-0.4,0.4-0.5,0.7v4.9h-1.3v-6.9h1.1l0.1,1
				c0.2-0.4,0.4-0.6,0.7-0.8c0.3-0.2,0.6-0.3,1-0.3c0.1,0,0.2,0,0.3,0s0.2,0,0.2,0L274.7,79.3z"/>
		</g>
	</g>
	<g>
		<path class="st0" d="M388.7,93.7H282.8v-22c0-2.2,1.8-4,4-4h97.9c2.2,0,4,1.8,4,4L388.7,93.7L388.7,93.7z"/>
		<g class="st1">
			<path class="st2" d="M294.7,76.8h-3v8.3h-1.3v-8.3h-3v-1h7.2V76.8z"/>
			<path class="st2" d="M295.1,81.6c0-1,0.3-1.9,0.8-2.5s1.3-1,2.2-1c1,0,1.7,0.3,2.3,1c0.6,0.7,0.8,1.5,0.8,2.5v0.1
				c0,1-0.3,1.9-0.8,2.5c-0.6,0.7-1.3,1-2.2,1s-1.7-0.3-2.2-1c-0.6-0.7-0.8-1.5-0.8-2.5V81.6z M296.3,81.7c0,0.7,0.2,1.3,0.5,1.8
				c0.3,0.5,0.8,0.7,1.4,0.7c0.6,0,1-0.2,1.4-0.7s0.5-1.1,0.5-1.8v-0.1c0-0.7-0.2-1.3-0.5-1.8c-0.3-0.5-0.8-0.7-1.4-0.7
				c-0.6,0-1,0.2-1.4,0.7c-0.3,0.5-0.5,1.1-0.5,1.8V81.7z"/>
			<path class="st2" d="M307.1,84.1c-0.2,0.4-0.5,0.7-0.8,0.9s-0.7,0.3-1.2,0.3c-0.7,0-1.3-0.2-1.8-0.7s-0.6-1.2-0.6-2.2v-4h1.3v4.1
				c0,0.7,0.1,1.2,0.3,1.5s0.6,0.4,1,0.4c0.4,0,0.8-0.1,1.1-0.3c0.3-0.2,0.5-0.4,0.7-0.8v-5h1.3v6.9h-1.1L307.1,84.1z"/>
			<path class="st2" d="M312.9,84.2c0.4,0,0.8-0.1,1.1-0.4c0.3-0.3,0.5-0.6,0.5-0.9h1.1l0,0c0,0.6-0.2,1.1-0.8,1.6
				c-0.5,0.5-1.2,0.7-1.9,0.7c-1,0-1.8-0.3-2.3-1c-0.5-0.7-0.8-1.5-0.8-2.5v-0.3c0-1,0.3-1.8,0.8-2.4c0.5-0.7,1.3-1,2.3-1
				c0.8,0,1.5,0.2,2,0.7c0.5,0.5,0.8,1.1,0.7,1.7l0,0h-1.1c0-0.4-0.1-0.8-0.4-1.1s-0.7-0.4-1.1-0.4c-0.7,0-1.1,0.2-1.4,0.7
				c-0.3,0.5-0.4,1-0.4,1.7v0.3c0,0.7,0.1,1.3,0.4,1.8C311.8,84,312.3,84.2,312.9,84.2z"/>
			<path class="st2" d="M318.3,79.1c0.2-0.3,0.5-0.6,0.9-0.8c0.3-0.2,0.7-0.3,1.1-0.3c0.7,0,1.3,0.2,1.7,0.7c0.4,0.4,0.6,1.1,0.6,2
				v4.3h-1.3v-4.3c0-0.6-0.1-1-0.4-1.3c-0.2-0.3-0.6-0.4-1.1-0.4c-0.3,0-0.7,0.1-0.9,0.2c-0.3,0.2-0.5,0.4-0.7,0.7v5.1H317v-9.9h1.3
				V79.1z"/>
			<path class="st2" d="M324.7,85.9h-1.1l3.9-10h1.1L324.7,85.9z"/>
			<path class="st2" d="M337,85.1h-1.3l-4.4-7.1l0,0v7.1H330v-9.2h1.3l4.4,7.1l0,0v-7.1h1.3V85.1z"/>
			<path class="st2" d="M338.8,81.6c0-1,0.3-1.9,0.8-2.5s1.3-1,2.2-1c1,0,1.7,0.3,2.3,1c0.6,0.7,0.8,1.5,0.8,2.5v0.1
				c0,1-0.3,1.9-0.8,2.5c-0.6,0.7-1.3,1-2.2,1s-1.7-0.3-2.2-1c-0.6-0.7-0.8-1.5-0.8-2.5V81.6z M340,81.7c0,0.7,0.2,1.3,0.5,1.8
				c0.3,0.5,0.8,0.7,1.4,0.7c0.6,0,1-0.2,1.4-0.7s0.5-1.1,0.5-1.8v-0.1c0-0.7-0.2-1.3-0.5-1.8c-0.3-0.5-0.8-0.7-1.4-0.7
				c-0.6,0-1,0.2-1.4,0.7c-0.3,0.5-0.5,1.1-0.5,1.8V81.7z"/>
			<path class="st2" d="M356.2,76.8h-3v8.3H352v-8.3h-3v-1h7.2V76.8z"/>
			<path class="st2" d="M356.5,81.6c0-1,0.3-1.9,0.8-2.5s1.3-1,2.2-1c1,0,1.7,0.3,2.3,1c0.6,0.7,0.8,1.5,0.8,2.5v0.1
				c0,1-0.3,1.9-0.8,2.5c-0.6,0.7-1.3,1-2.2,1s-1.7-0.3-2.2-1c-0.6-0.7-0.8-1.5-0.8-2.5V81.6z M357.8,81.7c0,0.7,0.2,1.3,0.5,1.8
				c0.3,0.5,0.8,0.7,1.4,0.7c0.6,0,1-0.2,1.4-0.7s0.5-1.1,0.5-1.8v-0.1c0-0.7-0.2-1.3-0.5-1.8c-0.3-0.5-0.8-0.7-1.4-0.7
				c-0.6,0-1,0.2-1.4,0.7c-0.3,0.5-0.5,1.1-0.5,1.8V81.7z"/>
			<path class="st2" d="M368.6,84.1c-0.2,0.4-0.5,0.7-0.8,0.9s-0.7,0.3-1.2,0.3c-0.7,0-1.3-0.2-1.8-0.7s-0.6-1.2-0.6-2.2v-4h1.3v4.1
				c0,0.7,0.1,1.2,0.3,1.5s0.6,0.4,1,0.4c0.4,0,0.8-0.1,1.1-0.3c0.3-0.2,0.5-0.4,0.7-0.8v-5h1.3v6.9h-1.1L368.6,84.1z"/>
			<path class="st2" d="M374.4,84.2c0.4,0,0.8-0.1,1.1-0.4c0.3-0.3,0.5-0.6,0.5-0.9h1.1l0,0c0,0.6-0.2,1.1-0.8,1.6
				c-0.5,0.5-1.2,0.7-1.9,0.7c-1,0-1.8-0.3-2.3-1c-0.5-0.7-0.8-1.5-0.8-2.5v-0.3c0-1,0.3-1.8,0.8-2.4c0.5-0.7,1.3-1,2.3-1
				c0.8,0,1.5,0.2,2,0.7c0.5,0.5,0.8,1.1,0.7,1.7l0,0H376c0-0.4-0.1-0.8-0.4-1.1s-0.7-0.4-1.1-0.4c-0.7,0-1.1,0.2-1.4,0.7
				c-0.3,0.5-0.4,1-0.4,1.7v0.3c0,0.7,0.1,1.3,0.4,1.8C373.3,84,373.7,84.2,374.4,84.2z"/>
			<path class="st2" d="M379.7,79.1c0.2-0.3,0.5-0.6,0.9-0.8c0.3-0.2,0.7-0.3,1.1-0.3c0.7,0,1.3,0.2,1.7,0.7c0.4,0.4,0.6,1.1,0.6,2
				v4.3h-1.3v-4.3c0-0.6-0.1-1-0.4-1.3c-0.2-0.3-0.6-0.4-1.1-0.4c-0.3,0-0.7,0.1-0.9,0.2c-0.3,0.2-0.5,0.4-0.7,0.7v5.1h-1.3v-9.9
				h1.3V79.1z"/>
		</g>
	</g>
	<g>
		<path class="st3" d="M455.7,93.7h-65v-22c0-2.2,1.8-4,4-4h57c2.2,0,4,1.8,4,4V93.7z"/>
		<g class="st1">
			<path class="st4" d="M402.4,82.8c0-0.4-0.2-0.8-0.5-1.1c-0.3-0.3-0.9-0.5-1.7-0.7c-1-0.2-1.7-0.6-2.3-1c-0.5-0.5-0.8-1-0.8-1.7
				c0-0.7,0.3-1.3,0.9-1.8c0.6-0.5,1.4-0.7,2.3-0.7c1,0,1.8,0.3,2.4,0.8c0.6,0.6,0.9,1.2,0.9,1.9l0,0h-1.2c0-0.5-0.2-1-0.5-1.3
				c-0.4-0.3-0.9-0.5-1.5-0.5c-0.6,0-1.1,0.1-1.4,0.4c-0.3,0.3-0.5,0.6-0.5,1.1c0,0.4,0.2,0.7,0.5,1s0.9,0.5,1.8,0.7
				c1,0.2,1.7,0.6,2.2,1.1s0.8,1.1,0.8,1.7c0,0.7-0.3,1.3-0.9,1.8s-1.4,0.7-2.4,0.7c-0.9,0-1.7-0.2-2.4-0.8c-0.7-0.5-1.1-1.2-1-2
				l0,0h1.2c0,0.6,0.2,1,0.7,1.4c0.4,0.3,1,0.5,1.6,0.5c0.6,0,1.1-0.1,1.5-0.4S402.4,83.2,402.4,82.8z"/>
			<path class="st4" d="M406.9,76.6v1.7h1.3v0.9h-1.3v4.2c0,0.3,0.1,0.5,0.2,0.7c0.1,0.1,0.3,0.2,0.5,0.2c0.1,0,0.2,0,0.2,0
				c0.1,0,0.2,0,0.2-0.1l0.2,0.9c-0.1,0.1-0.2,0.1-0.4,0.2c-0.2,0-0.4,0.1-0.5,0.1c-0.5,0-0.9-0.2-1.2-0.5s-0.5-0.8-0.5-1.4v-4.2
				h-1.1v-0.9h1.1v-1.7H406.9z"/>
			<path class="st4" d="M413.9,85.1c0-0.2-0.1-0.4-0.1-0.5c0-0.2,0-0.3,0-0.5c-0.2,0.3-0.5,0.6-0.9,0.8c-0.4,0.2-0.8,0.3-1.2,0.3
				c-0.7,0-1.3-0.2-1.6-0.5c-0.4-0.4-0.6-0.9-0.6-1.5c0-0.7,0.3-1.2,0.8-1.5c0.5-0.4,1.3-0.6,2.2-0.6h1.4v-0.7c0-0.4-0.1-0.7-0.4-1
				c-0.2-0.2-0.6-0.4-1-0.4c-0.4,0-0.7,0.1-1,0.3c-0.3,0.2-0.4,0.5-0.4,0.7h-1.2l0,0c0-0.5,0.2-1,0.7-1.4c0.5-0.4,1.1-0.6,1.9-0.6
				c0.8,0,1.4,0.2,1.9,0.6s0.7,1,0.7,1.7v3.3c0,0.2,0,0.5,0,0.7s0.1,0.5,0.1,0.7H413.9z M411.9,84.2c0.5,0,0.9-0.1,1.2-0.3
				s0.6-0.5,0.7-0.8v-1.1h-1.4c-0.5,0-0.9,0.1-1.2,0.4c-0.3,0.3-0.5,0.6-0.5,0.9c0,0.3,0.1,0.5,0.3,0.7
				C411.2,84.1,411.5,84.2,411.9,84.2z"/>
			<path class="st4" d="M418.9,82.5l0.2,0.9h0l1.7-5.2h1.4l-2.9,7.9c-0.2,0.5-0.4,0.9-0.7,1.2c-0.3,0.3-0.8,0.5-1.3,0.5
				c-0.1,0-0.2,0-0.4,0s-0.3,0-0.4-0.1l0.1-1c0,0,0,0,0.2,0c0.2,0,0.3,0,0.3,0c0.3,0,0.5-0.1,0.7-0.4c0.2-0.2,0.3-0.5,0.4-0.8
				l0.3-0.7l-2.6-6.7h1.4L418.9,82.5z"/>
			<path class="st4" d="M423.6,85.9h-1.1l3.9-10h1.1L423.6,85.9z"/>
			<path class="st4" d="M434.4,80.8h-4.2v3.3h4.9v1h-6.1v-9.2h6.1v1h-4.8v3h4.2V80.8z"/>
			<path class="st4" d="M437.4,78.2l0.1,1c0.2-0.4,0.5-0.6,0.9-0.8c0.3-0.2,0.7-0.3,1.2-0.3c0.7,0,1.3,0.2,1.7,0.7s0.6,1.1,0.6,2
				v4.3h-1.3v-4.3c0-0.6-0.1-1-0.4-1.3c-0.2-0.3-0.6-0.4-1.1-0.4c-0.4,0-0.7,0.1-1,0.3c-0.3,0.2-0.5,0.4-0.7,0.7v5h-1.3v-6.9H437.4z
				"/>
			<path class="st4" d="M443.4,81.8c0-1.1,0.2-2,0.7-2.7c0.5-0.7,1.1-1,2-1c0.4,0,0.8,0.1,1.1,0.2c0.3,0.1,0.6,0.4,0.8,0.6v-3.8h1.3
				v9.9h-1l-0.1-0.8c-0.2,0.3-0.5,0.6-0.8,0.7s-0.7,0.2-1.1,0.2c-0.8,0-1.5-0.3-2-0.9s-0.7-1.4-0.7-2.4V81.8z M444.6,81.9
				c0,0.7,0.1,1.2,0.4,1.7s0.7,0.6,1.3,0.6c0.4,0,0.7-0.1,0.9-0.3c0.3-0.2,0.5-0.4,0.6-0.7V80c-0.2-0.3-0.4-0.5-0.6-0.7
				c-0.3-0.2-0.6-0.3-0.9-0.3c-0.6,0-1,0.2-1.3,0.7c-0.3,0.5-0.4,1.1-0.4,1.9V81.9z"/>
		</g>
	</g>
	<path class="st5" d="M190.3,93.7h520v368h-520L190.3,93.7L190.3,93.7z"/>
	<g transform="matrix(1,0,0,1,0,0)">
		<g class="st1">
			<path class="st6" d="M196.9,42.9h-4.2V47h-1.3v-9.2h6.1v1h-4.9v3.2h4.2V42.9z"/>
			<path class="st6" d="M198.3,43.5c0-1,0.3-1.9,0.8-2.5s1.3-1,2.2-1c1,0,1.7,0.3,2.3,1c0.6,0.7,0.8,1.5,0.8,2.5v0.1
				c0,1-0.3,1.9-0.8,2.5c-0.6,0.7-1.3,1-2.2,1s-1.7-0.3-2.2-1c-0.6-0.7-0.8-1.5-0.8-2.5V43.5z M199.6,43.7c0,0.7,0.2,1.3,0.5,1.8
				c0.3,0.5,0.8,0.7,1.4,0.7c0.6,0,1-0.2,1.4-0.7s0.5-1.1,0.5-1.8v-0.1c0-0.7-0.2-1.3-0.5-1.8c-0.3-0.5-0.8-0.7-1.4-0.7
				c-0.6,0-1,0.2-1.4,0.7c-0.3,0.5-0.5,1.1-0.5,1.8V43.7z"/>
			<path class="st6" d="M209.3,41.3l-0.6,0c-0.3,0-0.6,0.1-0.8,0.2c-0.2,0.2-0.4,0.4-0.5,0.7V47H206v-6.9h1.1l0.1,1
				c0.2-0.4,0.4-0.6,0.7-0.8c0.3-0.2,0.6-0.3,1-0.3c0.1,0,0.2,0,0.3,0s0.2,0,0.2,0L209.3,41.3z"/>
			<path class="st6" d="M213.2,47.1c-1,0-1.7-0.3-2.3-1c-0.6-0.6-0.8-1.5-0.8-2.5v-0.3c0-1,0.3-1.8,0.9-2.4c0.6-0.6,1.3-1,2.1-1
				c0.9,0,1.6,0.3,2.1,0.8s0.7,1.3,0.7,2.2v0.8h-4.5l0,0c0,0.7,0.2,1.2,0.5,1.6c0.3,0.4,0.8,0.6,1.4,0.6c0.4,0,0.8-0.1,1.1-0.2
				c0.3-0.1,0.6-0.3,0.8-0.5l0.5,0.8c-0.2,0.2-0.6,0.4-1,0.6S213.8,47.1,213.2,47.1z M213,41c-0.4,0-0.8,0.2-1.1,0.5
				c-0.3,0.4-0.5,0.8-0.5,1.3l0,0h3.2v-0.2c0-0.5-0.1-0.9-0.4-1.2S213.5,41,213,41z"/>
			<path class="st6" d="M219.6,42.7l1.5-2.5h1.5l-2.2,3.4l2.3,3.5h-1.4l-1.5-2.6l-1.5,2.6h-1.4l2.3-3.5l-2.2-3.4h1.4L219.6,42.7z"/>
		</g>
	</g>
	<g>
		<g>
			<path class="st7" d="M386.4,167.8H276c-3.3,0-6-2.7-6-6v-15c0-3.3,2.7-6,6-6h110.4c3.3,0,6,2.7,6,6v15
				C392.4,165.1,389.7,167.8,386.4,167.8z"/>
			<g class="st1">
				<path class="st2" d="M283.4,146.7l4.1,10.4h0.1l4.1-10.4h2.2v12.8h-1.7v-5.1l0.2-5.2l0,0l-4.1,10.3H287l-4.1-10.2l0,0l0.2,5.2
					v5.1h-1.7v-12.8H283.4z"/>
				<path class="st2" d="M302.6,159.5c-0.1-0.3-0.1-0.5-0.1-0.8c0-0.2-0.1-0.4-0.1-0.7c-0.3,0.5-0.7,0.8-1.3,1.1
					c-0.5,0.3-1.1,0.5-1.7,0.5c-1,0-1.7-0.3-2.3-0.8c-0.5-0.5-0.8-1.2-0.8-2.1c0-0.9,0.4-1.6,1.1-2.1s1.7-0.8,3-0.8h1.9V153
					c0-0.6-0.2-1-0.5-1.3c-0.3-0.3-0.8-0.5-1.4-0.5c-0.6,0-1,0.1-1.4,0.4s-0.5,0.6-0.5,1h-1.7l0-0.1c0-0.7,0.3-1.3,1-1.9
					s1.6-0.9,2.7-0.9c1.1,0,1.9,0.3,2.6,0.8s1,1.3,1,2.4v4.6c0,0.3,0,0.7,0.1,1s0.1,0.6,0.2,0.9H302.6z M299.7,158.3
					c0.6,0,1.2-0.2,1.7-0.5s0.8-0.7,1-1.1v-1.5h-1.9c-0.7,0-1.3,0.2-1.7,0.5c-0.4,0.4-0.6,0.8-0.6,1.2c0,0.4,0.1,0.8,0.4,1
					S299.2,158.3,299.7,158.3z"/>
				<path class="st2" d="M308.6,150v10.3c0,1-0.3,1.7-0.8,2.3s-1.2,0.8-2.1,0.8c-0.2,0-0.3,0-0.5,0c-0.1,0-0.3-0.1-0.5-0.1l0.1-1.4
					c0.1,0,0.2,0.1,0.4,0.1s0.3,0,0.4,0c0.4,0,0.7-0.1,0.9-0.4s0.3-0.7,0.3-1.3V150H308.6z M308.5,147.5h-1.7v-1.7h1.7V147.5z"/>
				<path class="st2" d="M310.9,154.7c0-1.4,0.4-2.6,1.1-3.5s1.8-1.4,3.1-1.4c1.3,0,2.4,0.5,3.1,1.4s1.1,2.1,1.1,3.5v0.2
					c0,1.4-0.4,2.6-1.1,3.5s-1.8,1.4-3.1,1.4s-2.4-0.5-3.1-1.4c-0.8-0.9-1.1-2.1-1.1-3.5V154.7z M312.6,154.9c0,1,0.2,1.8,0.6,2.5
					s1.1,1,1.9,1c0.8,0,1.5-0.3,1.9-1s0.6-1.5,0.6-2.5v-0.2c0-1-0.2-1.8-0.6-2.5s-1.1-1-1.9-1c-0.8,0-1.5,0.3-1.9,1
					s-0.6,1.5-0.6,2.5V154.9z"/>
				<path class="st2" d="M326,151.5l-0.9-0.1c-0.5,0-0.8,0.1-1.2,0.3s-0.6,0.5-0.7,0.9v6.8h-1.7V150h1.5l0.2,1.4
					c0.3-0.5,0.6-0.9,1-1.2s0.9-0.4,1.4-0.4c0.1,0,0.3,0,0.4,0s0.2,0,0.3,0.1L326,151.5z"/>
				<path class="st2" d="M334.2,154.4v5.1h-1.7v-12.8h4.9c1.4,0,2.4,0.4,3.2,1.1s1.1,1.6,1.1,2.8c0,1.2-0.4,2.1-1.1,2.8
					c-0.8,0.7-1.8,1-3.2,1H334.2z M334.2,153h3.2c0.9,0,1.5-0.2,1.9-0.7s0.6-1.1,0.6-1.8c0-0.7-0.2-1.3-0.6-1.8s-1.1-0.7-1.9-0.7
					h-3.2V153z"/>
				<path class="st2" d="M349.4,159.5c-0.1-0.3-0.1-0.5-0.1-0.8c0-0.2-0.1-0.4-0.1-0.7c-0.3,0.5-0.7,0.8-1.3,1.1
					c-0.5,0.3-1.1,0.5-1.7,0.5c-1,0-1.7-0.3-2.3-0.8c-0.5-0.5-0.8-1.2-0.8-2.1c0-0.9,0.4-1.6,1.1-2.1s1.7-0.8,3-0.8h1.9V153
					c0-0.6-0.2-1-0.5-1.3c-0.3-0.3-0.8-0.5-1.4-0.5c-0.6,0-1,0.1-1.4,0.4s-0.5,0.6-0.5,1h-1.7l0-0.1c0-0.7,0.3-1.3,1-1.9
					s1.6-0.9,2.7-0.9c1.1,0,1.9,0.3,2.6,0.8s1,1.3,1,2.4v4.6c0,0.3,0,0.7,0.1,1s0.1,0.6,0.2,0.9H349.4z M346.5,158.3
					c0.6,0,1.2-0.2,1.7-0.5s0.8-0.7,1-1.1v-1.5h-1.9c-0.7,0-1.3,0.2-1.7,0.5c-0.4,0.4-0.6,0.8-0.6,1.2c0,0.4,0.1,0.8,0.4,1
					S346,158.3,346.5,158.3z"/>
				<path class="st2" d="M355.3,147.6h-1.7v-1.8h1.7V147.6z M355.3,159.5h-1.7V150h1.7V159.5z"/>
				<path class="st2" d="M362.5,151.5l-0.9-0.1c-0.5,0-0.8,0.1-1.2,0.3s-0.6,0.5-0.7,0.9v6.8H358V150h1.5l0.2,1.4
					c0.3-0.5,0.6-0.9,1-1.2s0.9-0.4,1.4-0.4c0.1,0,0.3,0,0.4,0s0.2,0,0.3,0.1L362.5,151.5z"/>
				<path class="st2" d="M369.7,157c0-0.4-0.1-0.7-0.4-0.9s-0.8-0.5-1.6-0.6c-1.2-0.3-2-0.6-2.6-1s-0.9-1-0.9-1.8c0-0.8,0.3-1.4,1-2
					s1.5-0.8,2.6-0.8c1.1,0,2,0.3,2.6,0.9s1,1.3,0.9,2.1l0,0.1h-1.7c0-0.4-0.2-0.8-0.5-1.1s-0.8-0.5-1.4-0.5c-0.6,0-1.1,0.1-1.4,0.4
					s-0.4,0.6-0.4,1c0,0.4,0.1,0.7,0.4,0.9s0.8,0.4,1.6,0.6c1.2,0.3,2.1,0.6,2.7,1c0.6,0.4,0.9,1,0.9,1.8c0,0.8-0.3,1.5-1,2
					s-1.6,0.8-2.7,0.8c-1.2,0-2.2-0.3-2.9-0.9s-1-1.3-1-2.2l0-0.1h1.7c0,0.6,0.3,1.1,0.7,1.3c0.4,0.3,0.9,0.4,1.5,0.4
					c0.6,0,1.1-0.1,1.4-0.4S369.7,157.4,369.7,157z"/>
			</g>
		</g>
		<g>
			<path class="st7" d="M386.4,204.5H276c-3.3,0-6-2.7-6-6v-15c0-3.3,2.7-6,6-6h110.4c3.3,0,6,2.7,6,6v15
				C392.4,201.8,389.7,204.5,386.4,204.5z"/>
			<g class="st1">
				<path class="st2" d="M288.8,190.3H283v4.6h6.8v1.4h-8.5v-12.8h8.4v1.4H283v4.1h5.9V190.3z"/>
				<path class="st2" d="M293,186.8l0.1,1.4c0.3-0.5,0.7-0.9,1.2-1.2s1-0.4,1.6-0.4c1,0,1.8,0.3,2.4,0.9c0.6,0.6,0.8,1.5,0.8,2.8v6
					h-1.7v-6c0-0.8-0.2-1.4-0.5-1.8s-0.8-0.5-1.5-0.5c-0.5,0-0.9,0.1-1.3,0.4s-0.7,0.6-0.9,1v6.9h-1.7v-9.5H293z"/>
				<path class="st2" d="M301.2,191.7c0-1.5,0.3-2.8,1-3.7s1.6-1.4,2.7-1.4c0.6,0,1.1,0.1,1.5,0.3s0.8,0.5,1.1,0.9v-5.2h1.7v13.7
					h-1.4l-0.2-1.2c-0.3,0.4-0.7,0.8-1.1,1s-1,0.3-1.6,0.3c-1.2,0-2.1-0.4-2.7-1.3s-1-1.9-1-3.3V191.7z M303,191.9
					c0,1,0.2,1.7,0.6,2.3c0.4,0.6,1,0.9,1.8,0.9c0.5,0,0.9-0.1,1.3-0.4s0.6-0.6,0.9-1v-4.4c-0.2-0.4-0.5-0.7-0.9-0.9
					s-0.8-0.3-1.3-0.3c-0.8,0-1.4,0.3-1.8,1s-0.6,1.6-0.6,2.7V191.9z"/>
				<path class="st2" d="M325.3,184.8h-4.1v11.4h-1.7v-11.4h-4.1v-1.4h9.9V184.8z"/>
				<path class="st2" d="M328.8,184.3H327v-1.8h1.7V184.3z M328.8,196.3H327v-9.5h1.7V196.3z"/>
				<path class="st2" d="M333,186.8l0.1,1.2c0.3-0.5,0.7-0.8,1.2-1.1c0.5-0.2,1-0.4,1.7-0.4s1.2,0.1,1.6,0.4s0.8,0.7,1,1.3
					c0.3-0.5,0.7-1,1.2-1.3s1.1-0.5,1.7-0.5c1,0,1.7,0.3,2.3,1s0.8,1.7,0.8,3v5.7h-1.7v-5.7c0-0.9-0.2-1.6-0.5-2
					c-0.3-0.4-0.8-0.6-1.4-0.6c-0.6,0-1.1,0.2-1.4,0.6s-0.6,0.9-0.6,1.6v0.1v6h-1.7v-5.7c0-0.9-0.2-1.5-0.5-2
					c-0.3-0.4-0.8-0.6-1.4-0.6c-0.5,0-1,0.1-1.3,0.3s-0.6,0.5-0.8,0.9v7h-1.7v-9.5H333z"/>
				<path class="st2" d="M351.1,196.5c-1.3,0-2.4-0.4-3.2-1.3c-0.8-0.9-1.2-2-1.2-3.4v-0.4c0-1.4,0.4-2.5,1.2-3.4s1.8-1.3,2.9-1.3
					c1.3,0,2.3,0.4,2.9,1.2s1,1.8,1,3.1v1.1h-6.2l0,0c0,0.9,0.2,1.7,0.7,2.2s1.1,0.9,1.9,0.9c0.6,0,1.1-0.1,1.5-0.2
					c0.4-0.2,0.8-0.4,1.1-0.7l0.7,1.1c-0.3,0.3-0.8,0.6-1.3,0.8C352.6,196.3,351.9,196.5,351.1,196.5z M350.8,188
					c-0.6,0-1.1,0.2-1.5,0.7s-0.7,1.1-0.8,1.8l0,0h4.4v-0.2c0-0.7-0.2-1.2-0.5-1.7C352.1,188.2,351.6,188,350.8,188z"/>
			</g>
		</g>
		<g>
			<path class="st7" d="M413,177.5h102v27H413V177.5z"/>
			<g class="st1">
				<path class="st2" d="M428,196.3h-8.3v-1.2l4.2-4.7c0.8-0.8,1.3-1.5,1.5-2s0.4-1,0.4-1.5c0-0.6-0.2-1.2-0.6-1.6
					c-0.4-0.4-0.9-0.7-1.5-0.7c-0.9,0-1.5,0.2-2,0.7s-0.6,1.1-0.6,1.9h-1.7l0-0.1c0-1.1,0.3-2,1.1-2.8s1.8-1.1,3.2-1.1
					c1.1,0,2.1,0.3,2.7,1s1,1.5,1,2.6c0,0.7-0.2,1.4-0.6,2.1s-1,1.5-1.7,2.3l-3.4,3.7l0,0h6.2V196.3z"/>
				<path class="st2" d="M438,191.4c0,1.6-0.4,2.9-1.1,3.8c-0.7,0.9-1.7,1.3-3,1.3s-2.3-0.4-3-1.3s-1.1-2.1-1.1-3.8v-3
					c0-1.6,0.4-2.9,1.1-3.8c0.7-0.9,1.7-1.3,3-1.3c1.3,0,2.3,0.4,3,1.3c0.7,0.9,1.1,2.1,1.1,3.8V191.4z M436.2,188
					c0-1.1-0.2-1.9-0.6-2.5c-0.4-0.6-1-0.8-1.7-0.8s-1.3,0.3-1.7,0.8c-0.4,0.6-0.6,1.4-0.6,2.5v3.8c0,1.1,0.2,1.9,0.6,2.5
					c0.4,0.6,1,0.8,1.7,0.8s1.3-0.3,1.7-0.8c0.4-0.6,0.6-1.4,0.6-2.5V188z"/>
				<path class="st2" d="M444.9,196.3h-1.7v-11.1l-2.6,0V184l4.4-0.5V196.3z"/>
				<path class="st2" d="M450.6,190.5l0.7-7h6.4v1.5h-4.9l-0.4,3.6c0.3-0.2,0.6-0.4,0.9-0.5c0.3-0.1,0.7-0.2,1.1-0.2
					c1.2,0,2.1,0.4,2.8,1.2s1,1.8,1,3.1c0,1.3-0.3,2.3-1,3.1s-1.7,1.2-3,1.2c-1.1,0-2-0.3-2.7-0.9s-1.1-1.5-1-2.6l0-0.1h1.6
					c0,0.7,0.2,1.2,0.6,1.6s0.9,0.6,1.6,0.6c0.7,0,1.3-0.3,1.7-0.8s0.6-1.2,0.6-2.1c0-0.8-0.2-1.5-0.6-2s-1-0.8-1.7-0.8
					c-0.7,0-1.2,0.1-1.5,0.3s-0.5,0.5-0.7,0.9L450.6,190.5z"/>
				<path class="st2" d="M463.8,191.5h-4.3v-1.4h4.3V191.5z"/>
				<path class="st2" d="M473.3,191.4c0,1.6-0.4,2.9-1.1,3.8c-0.7,0.9-1.7,1.3-3,1.3c-1.3,0-2.3-0.4-3-1.3s-1.1-2.1-1.1-3.8v-3
					c0-1.6,0.4-2.9,1.1-3.8c0.7-0.9,1.7-1.3,3-1.3c1.3,0,2.3,0.4,3,1.3c0.7,0.9,1.1,2.1,1.1,3.8V191.4z M471.6,188
					c0-1.1-0.2-1.9-0.6-2.5c-0.4-0.6-1-0.8-1.7-0.8s-1.3,0.3-1.7,0.8c-0.4,0.6-0.6,1.4-0.6,2.5v3.8c0,1.1,0.2,1.9,0.6,2.5
					c0.4,0.6,1,0.8,1.7,0.8s1.3-0.3,1.7-0.8c0.4-0.6,0.6-1.4,0.6-2.5V188z"/>
				<path class="st2" d="M483.6,184.8c-1.5,1.8-2.6,3.5-3.1,4.9s-0.9,3.1-1.2,5.2l-0.1,1.4h-1.7l0.1-1.4c0.2-2,0.7-3.8,1.4-5.4
					s1.7-3.1,2.9-4.6h-7v-1.4h8.7V184.8z"/>
				<path class="st2" d="M489,191.5h-4.3v-1.4h4.3V191.5z"/>
				<path class="st2" d="M498.7,196.3h-8.3v-1.2l4.2-4.7c0.8-0.8,1.3-1.5,1.5-2s0.4-1,0.4-1.5c0-0.6-0.2-1.2-0.6-1.6
					c-0.4-0.4-0.9-0.7-1.5-0.7c-0.9,0-1.5,0.2-2,0.7s-0.6,1.1-0.6,1.9h-1.7l0-0.1c0-1.1,0.3-2,1.1-2.8s1.8-1.1,3.2-1.1
					c1.1,0,2.1,0.3,2.7,1s1,1.5,1,2.6c0,0.7-0.2,1.4-0.6,2.1s-1,1.5-1.7,2.3l-3.4,3.7l0,0h6.2V196.3z"/>
				<path class="st2" d="M508.4,186.8c0,0.7-0.2,1.3-0.6,1.8c-0.4,0.5-0.9,0.9-1.5,1.1c0.7,0.3,1.3,0.7,1.8,1.2s0.7,1.2,0.7,1.9
					c0,1.2-0.4,2.1-1.2,2.7c-0.8,0.6-1.8,0.9-3,0.9c-1.3,0-2.3-0.3-3-0.9c-0.8-0.6-1.1-1.5-1.1-2.7c0-0.7,0.2-1.4,0.7-1.9
					s1-1,1.8-1.2c-0.6-0.2-1.1-0.6-1.5-1.1c-0.4-0.5-0.5-1.1-0.5-1.8c0-1.1,0.3-2,1-2.6s1.6-0.9,2.8-0.9c1.1,0,2,0.3,2.8,0.9
					S508.4,185.7,508.4,186.8z M507,192.8c0-0.7-0.2-1.3-0.7-1.7s-1-0.7-1.8-0.7c-0.7,0-1.3,0.2-1.8,0.7s-0.7,1-0.7,1.7
					c0,0.7,0.2,1.3,0.7,1.7s1,0.6,1.8,0.6c0.7,0,1.3-0.2,1.8-0.6C506.8,194.1,507,193.5,507,192.8z M506.6,186.9
					c0-0.6-0.2-1.2-0.6-1.6s-0.9-0.6-1.5-0.6c-0.6,0-1.1,0.2-1.5,0.6c-0.4,0.4-0.6,0.9-0.6,1.6c0,0.7,0.2,1.2,0.6,1.6
					s0.9,0.6,1.5,0.6c0.6,0,1.1-0.2,1.5-0.6S506.6,187.5,506.6,186.9z"/>
			</g>
		</g>
		<g>
			<rect x="413" y="256.5" class="st7" width="102" height="27"/>
			<g class="st1">
				<path class="st2" d="M423.2,274.1c0.8,0,1.5-0.3,2-1s0.8-1.6,0.8-2.8v-0.6c-0.3,0.4-0.6,0.7-1.1,0.9s-0.9,0.3-1.4,0.3
					c-1.2,0-2.2-0.4-2.9-1.1c-0.7-0.8-1.1-1.8-1.1-3.2c0-1.3,0.4-2.3,1.2-3.2s1.7-1.2,2.8-1.2c1.3,0,2.4,0.4,3.2,1.3
					c0.8,0.8,1.2,2.1,1.2,3.7v3c0,1.7-0.4,3-1.3,3.8s-1.9,1.3-3.3,1.3c-0.5,0-0.9,0-1.4-0.1c-0.5-0.1-0.9-0.2-1.3-0.4l0.3-1.3
					c0.3,0.2,0.7,0.3,1.1,0.4S422.7,274.1,423.2,274.1z M423.4,269.6c0.6,0,1.2-0.1,1.6-0.4c0.4-0.3,0.7-0.6,0.9-1.1v-1.1
					c0-1.1-0.2-2-0.6-2.5s-1.1-0.9-1.9-0.9c-0.6,0-1.2,0.3-1.6,0.8s-0.7,1.3-0.7,2.2c0,0.9,0.2,1.6,0.6,2.1S422.7,269.6,423.4,269.6
					z"/>
				<path class="st2" d="M438,270.4c0,1.6-0.4,2.9-1.1,3.8c-0.7,0.9-1.7,1.3-3,1.3s-2.3-0.4-3-1.3s-1.1-2.1-1.1-3.8v-3
					c0-1.6,0.4-2.9,1.1-3.8c0.7-0.9,1.7-1.3,3-1.3c1.3,0,2.3,0.4,3,1.3c0.7,0.9,1.1,2.1,1.1,3.8V270.4z M436.2,267
					c0-1.1-0.2-1.9-0.6-2.5c-0.4-0.6-1-0.8-1.7-0.8s-1.3,0.3-1.7,0.8c-0.4,0.6-0.6,1.4-0.6,2.5v3.8c0,1.1,0.2,1.9,0.6,2.5
					c0.4,0.6,1,0.8,1.7,0.8s1.3-0.3,1.7-0.8c0.4-0.6,0.6-1.4,0.6-2.5V267z"/>
				<path class="st2" d="M442.1,275.3h-1.7v-1.8h1.7V275.3z"/>
				<path class="st2" d="M451.7,271h1.8v1.4h-1.8v2.9H450v-2.9h-5.7v-1l5.6-8.9h1.8V271z M446.1,271h3.9v-6l-0.1,0l-0.2,0.4
					L446.1,271z"/>
				<path class="st2" d="M458.4,274.1c0.8,0,1.5-0.3,2-1s0.8-1.6,0.8-2.8v-0.6c-0.3,0.4-0.6,0.7-1.1,0.9s-0.9,0.3-1.4,0.3
					c-1.2,0-2.2-0.4-2.9-1.1c-0.7-0.8-1.1-1.8-1.1-3.2c0-1.3,0.4-2.3,1.2-3.2s1.7-1.2,2.8-1.2c1.3,0,2.4,0.4,3.2,1.3
					c0.8,0.8,1.2,2.1,1.2,3.7v3c0,1.7-0.4,3-1.3,3.8s-1.9,1.3-3.3,1.3c-0.5,0-0.9,0-1.4-0.1c-0.5-0.1-0.9-0.2-1.3-0.4l0.3-1.3
					c0.3,0.2,0.7,0.3,1.1,0.4S457.9,274.1,458.4,274.1z M458.7,269.6c0.6,0,1.2-0.1,1.6-0.4c0.4-0.3,0.7-0.6,0.9-1.1v-1.1
					c0-1.1-0.2-2-0.6-2.5s-1.1-0.9-1.9-0.9c-0.6,0-1.2,0.3-1.6,0.8s-0.7,1.3-0.7,2.2c0,0.9,0.2,1.6,0.6,2.1S458,269.6,458.7,269.6z"
					/>
				<path class="st2" d="M473.4,263.8c-1.5,1.8-2.6,3.5-3.1,4.9s-0.9,3.1-1.2,5.2l-0.1,1.4h-1.7l0.1-1.4c0.2-2,0.7-3.8,1.4-5.4
					s1.7-3.1,2.9-4.6h-7v-1.4h8.7V263.8z"/>
			</g>
		</g>
		<g>
			<path class="st7" d="M413,294.1h102v27H413V294.1z"/>
			<g class="st1">
				<path class="st2" d="M427.6,303.4c0,0.7-0.2,1.3-0.6,1.8c-0.4,0.5-0.9,0.9-1.5,1.1c0.7,0.3,1.3,0.7,1.8,1.2s0.7,1.2,0.7,1.9
					c0,1.2-0.4,2.1-1.2,2.7c-0.8,0.6-1.8,0.9-3,0.9c-1.3,0-2.3-0.3-3-0.9c-0.8-0.6-1.1-1.5-1.1-2.7c0-0.7,0.2-1.4,0.7-1.9
					s1-1,1.8-1.2c-0.6-0.2-1.1-0.6-1.5-1.1c-0.4-0.5-0.5-1.1-0.5-1.8c0-1.1,0.3-2,1-2.6s1.6-0.9,2.8-0.9c1.1,0,2,0.3,2.8,0.9
					S427.6,302.2,427.6,303.4z M426.2,309.3c0-0.7-0.2-1.3-0.7-1.7s-1-0.7-1.8-0.7c-0.7,0-1.3,0.2-1.8,0.7s-0.7,1-0.7,1.7
					c0,0.7,0.2,1.3,0.7,1.7s1,0.6,1.8,0.6c0.7,0,1.3-0.2,1.8-0.6C426,310.6,426.2,310,426.2,309.3z M425.8,303.4
					c0-0.6-0.2-1.2-0.6-1.6s-0.9-0.6-1.5-0.6c-0.6,0-1.1,0.2-1.5,0.6c-0.4,0.4-0.6,0.9-0.6,1.6c0,0.7,0.2,1.2,0.6,1.6
					s0.9,0.6,1.5,0.6c0.6,0,1.1-0.2,1.5-0.6S425.8,304.1,425.8,303.4z"/>
				<path class="st2" d="M433.3,311.7c0.8,0,1.5-0.3,2-1s0.8-1.6,0.8-2.8v-0.6c-0.3,0.4-0.6,0.7-1.1,0.9s-0.9,0.3-1.4,0.3
					c-1.2,0-2.2-0.4-2.9-1.1c-0.7-0.8-1.1-1.8-1.1-3.2c0-1.3,0.4-2.3,1.2-3.2s1.7-1.2,2.8-1.2c1.3,0,2.4,0.4,3.2,1.3
					c0.8,0.8,1.2,2.1,1.2,3.7v3c0,1.7-0.4,3-1.3,3.8s-1.9,1.3-3.3,1.3c-0.5,0-0.9,0-1.4-0.1c-0.5-0.1-0.9-0.2-1.3-0.4l0.3-1.3
					c0.3,0.2,0.7,0.3,1.1,0.4S432.8,311.7,433.3,311.7z M433.6,307.2c0.6,0,1.2-0.1,1.6-0.4c0.4-0.3,0.7-0.6,0.9-1.1v-1.1
					c0-1.1-0.2-2-0.6-2.5s-1.1-0.9-1.9-0.9c-0.6,0-1.2,0.3-1.6,0.8s-0.7,1.3-0.7,2.2c0,0.9,0.2,1.6,0.6,2.1S432.9,307.2,433.6,307.2
					z"/>
				<path class="st2" d="M442.1,312.8h-1.7V311h1.7V312.8z"/>
				<path class="st2" d="M449.7,299.8c0.4,0,0.9,0,1.3,0.1s0.8,0.2,1.1,0.4l-0.4,1.3c-0.3-0.1-0.6-0.3-0.9-0.4s-0.7-0.1-1.1-0.1
					c-0.9,0-1.7,0.4-2.2,1.1s-0.8,1.7-0.8,2.9v0.2c0.4-0.3,0.8-0.6,1.3-0.8c0.5-0.2,1-0.3,1.6-0.3c1.1,0,2.1,0.4,2.7,1.2s1,1.8,1,3
					c0,1.3-0.4,2.4-1.1,3.2c-0.7,0.8-1.7,1.3-2.9,1.3c-1.3,0-2.3-0.5-3.1-1.4s-1.2-2.2-1.2-3.8v-2.4c0-1.6,0.5-3,1.4-4
					S448.3,299.8,449.7,299.8z M449.1,305.6c-0.6,0-1.1,0.1-1.5,0.4c-0.4,0.2-0.7,0.6-0.9,1v1c0,1.2,0.2,2.1,0.7,2.7s1.1,1,1.9,1
					c0.7,0,1.3-0.3,1.7-0.9s0.6-1.3,0.6-2.2c0-0.8-0.2-1.5-0.6-2.1S449.9,305.6,449.1,305.6z"/>
				<path class="st2" d="M463,308c0,1.6-0.4,2.9-1.1,3.8c-0.7,0.9-1.7,1.3-3,1.3s-2.3-0.4-3-1.3s-1.1-2.1-1.1-3.8v-3
					c0-1.6,0.4-2.9,1.1-3.8c0.7-0.9,1.7-1.3,3-1.3c1.3,0,2.3,0.4,3,1.3c0.7,0.9,1.1,2.1,1.1,3.8V308z M461.3,304.5
					c0-1.1-0.2-1.9-0.6-2.5c-0.4-0.6-1-0.8-1.7-0.8s-1.3,0.3-1.7,0.8c-0.4,0.6-0.6,1.4-0.6,2.5v3.8c0,1.1,0.2,1.9,0.6,2.5
					c0.4,0.6,1,0.8,1.7,0.8s1.3-0.3,1.7-0.8c0.4-0.6,0.6-1.4,0.6-2.5V304.5z"/>
				<path class="st2" d="M472,308.5h1.8v1.4H472v2.9h-1.7v-2.9h-5.7v-1l5.6-8.9h1.8V308.5z M466.4,308.5h3.9v-6l-0.1,0l-0.2,0.4
					L466.4,308.5z"/>
			</g>
		</g>
		<g>
			<g>
				<path class="st8" d="M521,167.8H418c-2.8,0-5-2.2-5-5v-17c0-2.8,2.2-5,5-5h103c2.8,0,5,2.2,5,5v17
					C526,165.5,523.7,167.8,521,167.8z"/>
				<g class="st1">
					<path class="st2" d="M431.9,156.2h-5.4l-1.2,3.3h-1.8l4.9-12.8h1.5l4.9,12.8h-1.8L431.9,156.2z M427,154.8h4.3l-2.1-5.8h-0.1
						L427,154.8z"/>
					<path class="st2" d="M445.9,146.7v8.7c0,1.4-0.5,2.5-1.4,3.2s-2.1,1.1-3.5,1.1c-1.4,0-2.5-0.4-3.4-1.1
						c-0.9-0.7-1.3-1.8-1.3-3.2v-8.7h1.7v8.7c0,1,0.3,1.7,0.8,2.2s1.3,0.8,2.2,0.8c0.9,0,1.7-0.2,2.3-0.8s0.9-1.2,0.9-2.2v-8.7
						H445.9z"/>
					<path class="st2" d="M448.8,159.5v-12.8h3.9c1.7,0,3,0.5,4,1.5c1,1,1.5,2.4,1.5,4v1.7c0,1.6-0.5,3-1.5,4s-2.4,1.5-4,1.5H448.8z
						 M450.5,148.1v10.1h2.2c1.2,0,2.1-0.4,2.8-1.2s1-1.8,1-3v-1.8c0-1.2-0.3-2.2-1-3s-1.6-1.2-2.8-1.2H450.5z"/>
					<path class="st2" d="M460.7,160.6h-1.5l5.3-13.9h1.5L460.7,160.6z"/>
					<path class="st2" d="M473.2,146.7h1.7v9.3c0,1.1-0.4,2-1.1,2.7c-0.7,0.7-1.7,1-2.8,1c-1.2,0-2.2-0.3-2.9-0.9s-1.1-1.5-1-2.7
						l0-0.1h1.7c0,0.8,0.2,1.4,0.6,1.8s1,0.6,1.7,0.6c0.6,0,1.2-0.2,1.6-0.6s0.6-1,0.6-1.7V146.7z"/>
					<path class="st2" d="M479.8,154.4v5.1H478v-12.8h4.9c1.4,0,2.4,0.4,3.2,1.1s1.1,1.6,1.1,2.8c0,1.2-0.4,2.1-1.1,2.8
						c-0.8,0.7-1.8,1-3.2,1H479.8z M479.8,153h3.2c0.9,0,1.5-0.2,1.9-0.7s0.6-1.1,0.6-1.8c0-0.7-0.2-1.3-0.6-1.8s-1.1-0.7-1.9-0.7
						h-3.2V153z"/>
					<path class="st2" d="M493.5,153.2l3.3-6.5h2l-4.5,8.3v4.5h-1.7v-4.6l-4.4-8.2h2L493.5,153.2z"/>
				</g>
			</g>
			<g>
				<polygon class="st2" points="520.2,154.6 517.2,159.4 514.2,154.6 				"/>
				<polygon class="st2" points="520.2,152.9 517.2,148 514.2,152.9 				"/>
			</g>
		</g>
		<g>
			<g>
				<path class="st8" d="M387.4,358.1H275c-2.8,0-5-2.2-5-5v-17c0-2.8,2.2-5,5-5h112.3c2.8,0,5,2.2,5,5v17
					C392.4,355.9,390,358.1,387.4,358.1z"/>
				<g class="st1">
					<path class="st2" d="M283,344.7v5.1h-1.7V337h4.9c1.4,0,2.4,0.4,3.2,1.1s1.1,1.6,1.1,2.8c0,1.2-0.4,2.1-1.1,2.8
						c-0.8,0.7-1.8,1-3.2,1H283z M283,343.3h3.2c0.9,0,1.5-0.2,1.9-0.7s0.6-1.1,0.6-1.8c0-0.7-0.2-1.3-0.6-1.8s-1.1-0.7-1.9-0.7H283
						V343.3z"/>
					<path class="st2" d="M298.2,349.8c-0.1-0.3-0.1-0.5-0.1-0.8c0-0.2-0.1-0.4-0.1-0.7c-0.3,0.5-0.7,0.8-1.3,1.1
						c-0.5,0.3-1.1,0.5-1.7,0.5c-1,0-1.7-0.3-2.3-0.8c-0.5-0.5-0.8-1.2-0.8-2.1c0-0.9,0.4-1.6,1.1-2.1s1.7-0.8,3-0.8h1.9v-0.9
						c0-0.6-0.2-1-0.5-1.3c-0.3-0.3-0.8-0.5-1.4-0.5c-0.6,0-1,0.1-1.4,0.4s-0.5,0.6-0.5,1h-1.7l0-0.1c0-0.7,0.3-1.3,1-1.9
						s1.6-0.9,2.7-0.9c1.1,0,1.9,0.3,2.6,0.8s1,1.3,1,2.4v4.6c0,0.3,0,0.7,0.1,1s0.1,0.6,0.2,0.9H298.2z M295.3,348.6
						c0.6,0,1.2-0.2,1.7-0.5s0.8-0.7,1-1.1v-1.5H296c-0.7,0-1.3,0.2-1.7,0.5c-0.4,0.4-0.6,0.8-0.6,1.2c0,0.4,0.1,0.8,0.4,1
						S294.8,348.6,295.3,348.6z"/>
					<path class="st2" d="M305,346.3l0.3,1.2h0.1l2.3-7.2h1.9l-4,11c-0.2,0.6-0.6,1.2-1,1.7s-1.1,0.7-1.8,0.7c-0.1,0-0.3,0-0.5,0
						c-0.2,0-0.4-0.1-0.5-0.1l0.2-1.4c0,0,0.1,0,0.3,0s0.4,0,0.5,0c0.4,0,0.7-0.2,0.9-0.5s0.4-0.7,0.6-1.1l0.4-1l-3.5-9.3h1.9
						L305,346.3z"/>
					<path class="st2" d="M310.6,345c0-1.4,0.4-2.6,1.1-3.5s1.8-1.4,3.1-1.4c1.3,0,2.4,0.5,3.1,1.4s1.1,2.1,1.1,3.5v0.2
						c0,1.4-0.4,2.6-1.1,3.5s-1.8,1.4-3.1,1.4s-2.4-0.5-3.1-1.4c-0.8-0.9-1.1-2.1-1.1-3.5V345z M312.3,345.2c0,1,0.2,1.8,0.6,2.5
						s1.1,1,1.9,1c0.8,0,1.5-0.3,1.9-1s0.6-1.5,0.6-2.5V345c0-1-0.2-1.8-0.6-2.5s-1.1-1-1.9-1c-0.8,0-1.5,0.3-1.9,1
						s-0.6,1.5-0.6,2.5V345.2z"/>
					<path class="st2" d="M327.3,348.4c-0.3,0.5-0.7,0.9-1.2,1.2s-1,0.4-1.6,0.4c-1,0-1.8-0.3-2.4-1s-0.9-1.7-0.9-3.1v-5.6h1.7v5.6
						c0,1,0.1,1.7,0.4,2.1s0.8,0.6,1.4,0.6c0.6,0,1.1-0.1,1.5-0.4c0.4-0.2,0.7-0.6,0.9-1.1v-6.9h1.7v9.5h-1.6L327.3,348.4z"/>
					<path class="st2" d="M333.8,338v2.3h1.8v1.3h-1.8v5.8c0,0.4,0.1,0.8,0.3,0.9s0.4,0.3,0.7,0.3c0.1,0,0.2,0,0.3,0
						s0.2-0.1,0.3-0.1l0.2,1.2c-0.1,0.1-0.3,0.2-0.6,0.3c-0.2,0.1-0.5,0.1-0.8,0.1c-0.7,0-1.3-0.2-1.7-0.6c-0.4-0.4-0.6-1.1-0.6-2
						v-5.8h-1.5v-1.3h1.5V338H333.8z"/>
				</g>
			</g>
		</g>
		<g>
			<g>
				<path class="st8" d="M479.7,358.1H418c-2.8,0-5-2.2-5-5v-17c0-2.8,2.2-5,5-5h61.7c2.8,0,5,2.2,5,5v17
					C484.7,355.9,482.5,358.1,479.7,358.1z"/>
				<g class="st1">
					<path class="st2" d="M429.4,337h1.7v9.3c0,1.1-0.4,2-1.1,2.7c-0.7,0.7-1.7,1-2.8,1c-1.2,0-2.2-0.3-2.9-0.9s-1.1-1.5-1-2.7
						l0-0.1h1.7c0,0.8,0.2,1.4,0.6,1.8s1,0.6,1.7,0.6c0.6,0,1.2-0.2,1.6-0.6s0.6-1,0.6-1.7V337z"/>
					<path class="st2" d="M435.9,344.7v5.1h-1.7V337h4.9c1.4,0,2.4,0.4,3.2,1.1s1.1,1.6,1.1,2.8c0,1.2-0.4,2.1-1.1,2.8
						c-0.8,0.7-1.8,1-3.2,1H435.9z M435.9,343.3h3.2c0.9,0,1.5-0.2,1.9-0.7s0.6-1.1,0.6-1.8c0-0.7-0.2-1.3-0.6-1.8s-1.1-0.7-1.9-0.7
						h-3.2V343.3z"/>
					<path class="st2" d="M449.6,343.5l3.3-6.5h2l-4.5,8.3v4.5h-1.7v-4.6l-4.4-8.2h2L449.6,343.5z"/>
				</g>
			</g>
		</g>
		<g>
			<g>
				<path class="st8" d="M490.7,331.1h77.8v27h-77.8V331.1z"/>
				<g class="st1">
					<path class="st2" d="M506.4,349.8h-1.7v-11.1l-2.6,0v-1.2l4.4-0.5V349.8z"/>
					<path class="st2" d="M519.7,345c0,1.6-0.4,2.9-1.1,3.8c-0.7,0.9-1.7,1.3-3,1.3s-2.3-0.4-3-1.3s-1.1-2.1-1.1-3.8v-3
						c0-1.6,0.4-2.9,1.1-3.8c0.7-0.9,1.7-1.3,3-1.3c1.3,0,2.3,0.4,3,1.3c0.7,0.9,1.1,2.1,1.1,3.8V345z M517.9,341.5
						c0-1.1-0.2-1.9-0.6-2.5c-0.4-0.6-1-0.8-1.7-0.8s-1.3,0.3-1.7,0.8c-0.4,0.6-0.6,1.4-0.6,2.5v3.8c0,1.1,0.2,1.9,0.6,2.5
						c0.4,0.6,1,0.8,1.7,0.8s1.3-0.3,1.7-0.8c0.4-0.6,0.6-1.4,0.6-2.5V341.5z"/>
					<path class="st2" d="M529.8,345c0,1.6-0.4,2.9-1.1,3.8c-0.7,0.9-1.7,1.3-3,1.3s-2.3-0.4-3-1.3s-1.1-2.1-1.1-3.8v-3
						c0-1.6,0.4-2.9,1.1-3.8c0.7-0.9,1.7-1.3,3-1.3c1.3,0,2.3,0.4,3,1.3c0.7,0.9,1.1,2.1,1.1,3.8V345z M528.1,341.5
						c0-1.1-0.2-1.9-0.6-2.5c-0.4-0.6-1-0.8-1.7-0.8s-1.3,0.3-1.7,0.8c-0.4,0.6-0.6,1.4-0.6,2.5v3.8c0,1.1,0.2,1.9,0.6,2.5
						c0.4,0.6,1,0.8,1.7,0.8s1.3-0.3,1.7-0.8c0.4-0.6,0.6-1.4,0.6-2.5V341.5z"/>
					<path class="st2" d="M539.9,345c0,1.6-0.4,2.9-1.1,3.8c-0.7,0.9-1.7,1.3-3,1.3s-2.3-0.4-3-1.3s-1.1-2.1-1.1-3.8v-3
						c0-1.6,0.4-2.9,1.1-3.8c0.7-0.9,1.7-1.3,3-1.3c1.3,0,2.3,0.4,3,1.3c0.7,0.9,1.1,2.1,1.1,3.8V345z M538.2,341.5
						c0-1.1-0.2-1.9-0.6-2.5c-0.4-0.6-1-0.8-1.7-0.8s-1.3,0.3-1.7,0.8c-0.4,0.6-0.6,1.4-0.6,2.5v3.8c0,1.1,0.2,1.9,0.6,2.5
						c0.4,0.6,1,0.8,1.7,0.8s1.3-0.3,1.7-0.8c0.4-0.6,0.6-1.4,0.6-2.5V341.5z"/>
				</g>
			</g>
		</g>
		<g>
			<path class="st9" d="M511,426.3H382c-2.2,0-4-1.8-4-4v-30c0-2.2,1.8-4,4-4h129c2.2,0,4,1.8,4,4v30
				C515,424.4,513.2,426.3,511,426.3z"/>
			<g class="st1">
				<path class="st4" d="M415.9,410.9c-0.3,0.5-0.9,0.9-1.7,1.3c-0.8,0.4-1.8,0.6-3,0.6c-1.5,0-2.8-0.5-3.8-1.5
					c-1-1-1.5-2.2-1.5-3.8v-2.7c0-1.5,0.5-2.8,1.4-3.8c0.9-1,2.2-1.5,3.6-1.5c1.5,0,2.7,0.4,3.5,1.1s1.3,1.7,1.3,2.9l0,0.1h-2
					c0-0.7-0.3-1.3-0.8-1.7c-0.5-0.4-1.1-0.6-2-0.6c-0.9,0-1.6,0.3-2.1,1c-0.5,0.7-0.8,1.5-0.8,2.5v2.7c0,1,0.3,1.9,0.9,2.5
					c0.6,0.7,1.4,1,2.3,1c0.7,0,1.2-0.1,1.6-0.2c0.4-0.2,0.7-0.3,0.9-0.5v-2.6h-2.5v-1.6h4.7V410.9z"/>
				<path class="st4" d="M422.3,412.8c-1.3,0-2.4-0.4-3.2-1.3c-0.8-0.9-1.2-2-1.2-3.4v-0.4c0-1.4,0.4-2.5,1.2-3.4
					c0.8-0.9,1.8-1.4,3-1.4c1.3,0,2.3,0.4,2.9,1.2c0.7,0.8,1,1.8,1,3.1v1.3h-5.9l0,0c0,0.8,0.3,1.4,0.7,1.8c0.4,0.5,1,0.7,1.7,0.7
					c0.6,0,1.1-0.1,1.5-0.2s0.8-0.3,1.2-0.6l0.7,1.4c-0.4,0.3-0.8,0.6-1.4,0.8S423.1,412.8,422.3,412.8z M422.1,404.7
					c-0.5,0-1,0.2-1.3,0.6c-0.3,0.4-0.6,1-0.6,1.6l0,0h3.8v-0.2c0-0.6-0.2-1.1-0.5-1.5S422.7,404.7,422.1,404.7z"/>
				<path class="st4" d="M430.4,400.8v2.3h1.7v1.6h-1.7v5.3c0,0.4,0.1,0.7,0.3,0.8c0.2,0.2,0.4,0.2,0.7,0.2c0.1,0,0.2,0,0.3,0
					c0.1,0,0.2,0,0.3-0.1l0.2,1.6c-0.2,0.1-0.4,0.2-0.7,0.2c-0.3,0.1-0.5,0.1-0.8,0.1c-0.8,0-1.4-0.2-1.8-0.7
					c-0.4-0.5-0.7-1.2-0.7-2.2v-5.3h-1.5v-1.6h1.5v-2.3H430.4z"/>
				<path class="st4" d="M440.9,407.8v4.9h-2.1v-12.8h5c1.4,0,2.5,0.4,3.3,1.1c0.8,0.7,1.2,1.7,1.2,2.9c0,1.2-0.4,2.2-1.2,2.9
					c-0.8,0.7-1.9,1.1-3.3,1.1H440.9z M440.9,406.1h2.9c0.8,0,1.4-0.2,1.8-0.6s0.6-1,0.6-1.6s-0.2-1.2-0.6-1.6s-1-0.7-1.8-0.7h-2.9
					V406.1z"/>
				<path class="st4" d="M454.9,405.1l-0.9,0c-0.4,0-0.8,0.1-1,0.3s-0.5,0.4-0.6,0.7v6.6h-2.1v-9.5h2l0.1,1.4
					c0.2-0.5,0.5-0.9,0.9-1.1s0.8-0.4,1.3-0.4c0.1,0,0.2,0,0.4,0s0.2,0,0.3,0.1L454.9,405.1z"/>
				<path class="st4" d="M458.6,400.8h-2.1v-1.9h2.1V400.8z M458.6,412.6h-2.1v-9.5h2.1V412.6z"/>
				<path class="st4" d="M464.9,411.1c0.5,0,1-0.2,1.3-0.5s0.5-0.7,0.5-1.1h1.9l0,0.1c0,0.9-0.3,1.7-1.1,2.3s-1.7,1-2.7,1
					c-1.4,0-2.5-0.5-3.2-1.4s-1.1-2-1.1-3.4v-0.3c0-1.4,0.4-2.5,1.1-3.4c0.7-0.9,1.8-1.4,3.2-1.4c1.1,0,2.1,0.3,2.8,1s1.1,1.5,1,2.5
					l0,0.1h-1.9c0-0.5-0.2-1-0.5-1.3s-0.8-0.5-1.3-0.5c-0.8,0-1.4,0.3-1.7,0.9c-0.3,0.6-0.5,1.3-0.5,2.2v0.3c0,0.9,0.2,1.6,0.5,2.2
					S464.1,411.1,464.9,411.1z"/>
				<path class="st4" d="M474.5,412.8c-1.3,0-2.4-0.4-3.2-1.3c-0.8-0.9-1.2-2-1.2-3.4v-0.4c0-1.4,0.4-2.5,1.2-3.4
					c0.8-0.9,1.8-1.4,3-1.4c1.3,0,2.3,0.4,2.9,1.2c0.7,0.8,1,1.8,1,3.1v1.3h-5.9l0,0c0,0.8,0.3,1.4,0.7,1.8c0.4,0.5,1,0.7,1.7,0.7
					c0.6,0,1.1-0.1,1.5-0.2s0.8-0.3,1.2-0.6l0.7,1.4c-0.4,0.3-0.8,0.6-1.4,0.8S475.3,412.8,474.5,412.8z M474.3,404.7
					c-0.5,0-1,0.2-1.3,0.6c-0.3,0.4-0.6,1-0.6,1.6l0,0h3.8v-0.2c0-0.6-0.2-1.1-0.5-1.5S474.9,404.7,474.3,404.7z"/>
				<path class="st4" d="M485.3,410.1c0-0.3-0.1-0.6-0.4-0.8s-0.8-0.4-1.6-0.6c-1.1-0.2-2-0.6-2.6-1s-0.9-1-0.9-1.8
					c0-0.8,0.3-1.5,1-2s1.6-0.8,2.7-0.8c1.2,0,2.1,0.3,2.8,0.9c0.7,0.6,1,1.3,1,2.1l0,0.1h-2c0-0.4-0.1-0.7-0.4-1s-0.7-0.4-1.2-0.4
					c-0.5,0-0.9,0.1-1.2,0.3s-0.4,0.5-0.4,0.8s0.1,0.6,0.4,0.8c0.3,0.2,0.8,0.4,1.6,0.5c1.2,0.2,2.1,0.6,2.7,1
					c0.6,0.4,0.9,1.1,0.9,1.8c0,0.9-0.4,1.5-1.1,2.1s-1.6,0.8-2.8,0.8c-1.2,0-2.2-0.3-2.9-0.9s-1.1-1.4-1-2.2l0-0.1h2
					c0,0.6,0.2,1,0.6,1.2s0.8,0.4,1.4,0.4c0.6,0,1-0.1,1.3-0.3S485.3,410.4,485.3,410.1z"/>
			</g>
		</g>
		<g>
			<g>
				<path class="st7" d="M541.2,177.5h96.2v27h-96.2V177.5z"/>
				<g class="st1">
					<path class="st2" d="M556.2,196.3h-8.3v-1.2l4.2-4.7c0.8-0.8,1.3-1.5,1.5-2s0.4-1,0.4-1.5c0-0.6-0.2-1.2-0.6-1.6
						c-0.4-0.4-0.9-0.7-1.5-0.7c-0.9,0-1.5,0.2-2,0.7s-0.6,1.1-0.6,1.9h-1.7l0-0.1c0-1.1,0.3-2,1.1-2.8s1.8-1.1,3.2-1.1
						c1.1,0,2.1,0.3,2.7,1s1,1.5,1,2.6c0,0.7-0.2,1.4-0.6,2.1s-1,1.5-1.7,2.3l-3.4,3.7l0,0h6.2V196.3z"/>
					<path class="st2" d="M560.4,189.1h1.5c0.8,0,1.3-0.2,1.6-0.6s0.5-0.9,0.5-1.6c0-0.7-0.2-1.3-0.5-1.7s-0.9-0.6-1.6-0.6
						c-0.7,0-1.2,0.2-1.6,0.6c-0.4,0.4-0.6,0.9-0.6,1.6H558l0-0.1c0-1,0.3-1.8,1.1-2.5c0.7-0.7,1.7-1,2.9-1c1.2,0,2.1,0.3,2.8,0.9
						c0.7,0.6,1.1,1.5,1.1,2.7c0,0.5-0.2,1.1-0.5,1.6c-0.3,0.5-0.8,0.9-1.4,1.2c0.8,0.3,1.3,0.6,1.6,1.2s0.5,1.1,0.5,1.8
						c0,1.2-0.4,2.1-1.1,2.8s-1.7,1-2.9,1c-1.2,0-2.1-0.3-2.9-0.9s-1.1-1.5-1.1-2.6l0-0.1h1.7c0,0.7,0.2,1.2,0.6,1.6
						c0.4,0.4,1,0.6,1.7,0.6c0.7,0,1.3-0.2,1.7-0.6c0.4-0.4,0.6-1,0.6-1.8c0-0.8-0.2-1.4-0.6-1.7c-0.4-0.4-1-0.6-1.7-0.6h-1.5V189.1
						z"/>
					<path class="st2" d="M570.3,188.6h-1.7v-1.8h1.7V188.6z M570.3,196.3h-1.7v-1.8h1.7V196.3z"/>
					<path class="st2" d="M573.2,190.5l0.7-7h6.4v1.5h-4.9l-0.4,3.6c0.3-0.2,0.6-0.4,0.9-0.5c0.3-0.1,0.7-0.2,1.1-0.2
						c1.2,0,2.1,0.4,2.8,1.2s1,1.8,1,3.1c0,1.3-0.3,2.3-1,3.1s-1.7,1.2-3,1.2c-1.1,0-2-0.3-2.7-0.9s-1.1-1.5-1-2.6l0-0.1h1.6
						c0,0.7,0.2,1.2,0.6,1.6s0.9,0.6,1.6,0.6c0.7,0,1.3-0.3,1.7-0.8s0.6-1.2,0.6-2.1c0-0.8-0.2-1.5-0.6-2s-1-0.8-1.7-0.8
						c-0.7,0-1.2,0.1-1.5,0.3s-0.5,0.5-0.7,0.9L573.2,190.5z"/>
					<path class="st2" d="M586.3,195.1c0.8,0,1.5-0.3,2-1s0.8-1.6,0.8-2.8v-0.6c-0.3,0.4-0.6,0.7-1.1,0.9s-0.9,0.3-1.4,0.3
						c-1.2,0-2.2-0.4-2.9-1.1c-0.7-0.8-1.1-1.8-1.1-3.2c0-1.3,0.4-2.3,1.2-3.2s1.7-1.2,2.8-1.2c1.3,0,2.4,0.4,3.2,1.3
						c0.8,0.8,1.2,2.1,1.2,3.7v3c0,1.7-0.4,3-1.3,3.8s-1.9,1.3-3.3,1.3c-0.5,0-0.9,0-1.4-0.1c-0.5-0.1-0.9-0.2-1.3-0.4l0.3-1.3
						c0.3,0.2,0.7,0.3,1.1,0.4S585.8,195.1,586.3,195.1z M586.6,190.6c0.6,0,1.2-0.1,1.6-0.4c0.4-0.3,0.7-0.6,0.9-1.1v-1.1
						c0-1.1-0.2-2-0.6-2.5s-1.1-0.9-1.9-0.9c-0.6,0-1.2,0.3-1.6,0.8s-0.7,1.3-0.7,2.2c0,0.9,0.2,1.6,0.6,2.1
						S585.8,190.6,586.6,190.6z"/>
					<path class="st2" d="M595.1,188.6h-1.7v-1.8h1.7V188.6z M595.1,196.3h-1.7v-1.8h1.7V196.3z"/>
					<path class="st2" d="M598,190.5l0.7-7h6.4v1.5h-4.9l-0.4,3.6c0.3-0.2,0.6-0.4,0.9-0.5c0.3-0.1,0.7-0.2,1.1-0.2
						c1.2,0,2.1,0.4,2.8,1.2s1,1.8,1,3.1c0,1.3-0.3,2.3-1,3.1s-1.7,1.2-3,1.2c-1.1,0-2-0.3-2.7-0.9s-1.1-1.5-1-2.6l0-0.1h1.6
						c0,0.7,0.2,1.2,0.6,1.6s0.9,0.6,1.6,0.6c0.7,0,1.3-0.3,1.7-0.8s0.6-1.2,0.6-2.1c0-0.8-0.2-1.5-0.6-2s-1-0.8-1.7-0.8
						c-0.7,0-1.2,0.1-1.5,0.3s-0.5,0.5-0.7,0.9L598,190.5z"/>
					<path class="st2" d="M611.1,195.1c0.8,0,1.5-0.3,2-1s0.8-1.6,0.8-2.8v-0.6c-0.3,0.4-0.6,0.7-1.1,0.9s-0.9,0.3-1.4,0.3
						c-1.2,0-2.2-0.4-2.9-1.1c-0.7-0.8-1.1-1.8-1.1-3.2c0-1.3,0.4-2.3,1.2-3.2s1.7-1.2,2.8-1.2c1.3,0,2.4,0.4,3.2,1.3
						c0.8,0.8,1.2,2.1,1.2,3.7v3c0,1.7-0.4,3-1.3,3.8s-1.9,1.3-3.3,1.3c-0.5,0-0.9,0-1.4-0.1c-0.5-0.1-0.9-0.2-1.3-0.4l0.3-1.3
						c0.3,0.2,0.7,0.3,1.1,0.4S610.6,195.1,611.1,195.1z M611.4,190.6c0.6,0,1.2-0.1,1.6-0.4c0.4-0.3,0.7-0.6,0.9-1.1v-1.1
						c0-1.1-0.2-2-0.6-2.5s-1.1-0.9-1.9-0.9c-0.6,0-1.2,0.3-1.6,0.8s-0.7,1.3-0.7,2.2c0,0.9,0.2,1.6,0.6,2.1
						S610.7,190.6,611.4,190.6z"/>
				</g>
			</g>
		</g>
		<g>
			<g>
				<circle class="st10" cx="649.4" cy="189.7" r="6.6"/>
				<g>
					<path class="st2" d="M649,186.5c-0.1-0.1-0.2-0.3-0.2-0.5s0.1-0.3,0.2-0.5c0.1-0.1,0.3-0.2,0.5-0.2s0.3,0.1,0.5,0.2
						c0.1,0.1,0.2,0.3,0.2,0.5s-0.2,0.3-0.2,0.5c-0.1,0.1-0.3,0.2-0.5,0.2C649.2,186.7,649,186.7,649,186.5z M648.9,194.1v-6.4h1
						v6.4H648.9z"/>
				</g>
			</g>
			<g>
				<g>
					<line class="st10" x1="642.5" y1="199.9" x2="643" y2="199.9"/>
					<line class="st11" x1="644" y1="199.9" x2="655.2" y2="199.9"/>
					<line class="st10" x1="655.7" y1="199.9" x2="656.2" y2="199.9"/>
				</g>
			</g>
		</g>
		<g class="st1">
			<path class="st2" d="M304.1,275.3h-1.7v-5.7h-6.2v5.7h-1.7v-12.8h1.7v5.8h6.2v-5.8h1.7V275.3z"/>
			<path class="st2" d="M308.8,263.3H307v-1.8h1.7V263.3z M308.8,275.3H307v-9.5h1.7V275.3z"/>
			<path class="st2" d="M311,270.7c0-1.5,0.3-2.8,1-3.7s1.6-1.4,2.8-1.4c0.6,0,1.1,0.1,1.6,0.4s0.8,0.6,1.1,1l0.2-1.2h1.4v9.6
				c0,1.2-0.4,2.2-1.1,2.8c-0.7,0.7-1.7,1-3.1,1c-0.5,0-1-0.1-1.5-0.2c-0.5-0.1-1-0.3-1.4-0.5l0.4-1.3c0.3,0.2,0.7,0.3,1.1,0.4
				s0.9,0.2,1.3,0.2c0.8,0,1.5-0.2,1.8-0.6c0.4-0.4,0.6-1,0.6-1.8v-1.1c-0.3,0.4-0.7,0.7-1.1,0.9c-0.4,0.2-0.9,0.3-1.5,0.3
				c-1.2,0-2.1-0.4-2.8-1.3s-1-1.9-1-3.3V270.7z M312.8,270.9c0,1,0.2,1.7,0.6,2.3s1,0.9,1.8,0.9c0.5,0,1-0.1,1.3-0.4
				c0.4-0.2,0.6-0.6,0.9-1v-4.4c-0.2-0.4-0.5-0.7-0.9-1c-0.4-0.2-0.8-0.4-1.3-0.4c-0.8,0-1.4,0.3-1.9,1s-0.6,1.6-0.6,2.7V270.9z"/>
			<path class="st2" d="M323.4,267c0.3-0.5,0.7-0.8,1.2-1.1c0.5-0.3,1-0.4,1.6-0.4c1,0,1.8,0.3,2.4,0.9s0.8,1.5,0.8,2.8v6h-1.7v-6
				c0-0.8-0.2-1.4-0.5-1.7s-0.8-0.6-1.5-0.6c-0.5,0-0.9,0.1-1.3,0.3c-0.4,0.2-0.7,0.5-1,0.9v7h-1.7v-13.7h1.7V267z"/>
			<path class="st2" d="M344.5,270.9c0,1.4-0.3,2.5-1,3.3s-1.6,1.3-2.7,1.3c-0.6,0-1.2-0.1-1.6-0.4c-0.5-0.2-0.8-0.6-1.2-1.1
				l-0.2,1.3h-1.4v-13.7h1.7v5.3c0.3-0.4,0.7-0.7,1.1-1s1-0.3,1.6-0.3c1.2,0,2.1,0.5,2.7,1.4s1,2.2,1,3.7V270.9z M342.8,270.7
				c0-1.1-0.2-2-0.6-2.7s-1-1-1.8-1c-0.5,0-1,0.1-1.3,0.4c-0.4,0.3-0.7,0.6-0.9,1.1v4.1c0.2,0.5,0.5,0.8,0.9,1.1s0.8,0.4,1.4,0.4
				c0.8,0,1.4-0.3,1.8-0.9s0.6-1.3,0.6-2.3V270.7z"/>
			<path class="st2" d="M352.4,275.3c-0.1-0.3-0.1-0.5-0.1-0.8c0-0.2-0.1-0.4-0.1-0.7c-0.3,0.5-0.7,0.8-1.3,1.1
				c-0.5,0.3-1.1,0.5-1.7,0.5c-1,0-1.7-0.3-2.3-0.8c-0.5-0.5-0.8-1.2-0.8-2.1c0-0.9,0.4-1.6,1.1-2.1s1.7-0.8,3-0.8h1.9v-0.9
				c0-0.6-0.2-1-0.5-1.3c-0.3-0.3-0.8-0.5-1.4-0.5c-0.6,0-1,0.1-1.4,0.4s-0.5,0.6-0.5,1h-1.7l0-0.1c0-0.7,0.3-1.3,1-1.9
				s1.6-0.9,2.7-0.9c1.1,0,1.9,0.3,2.6,0.8s1,1.3,1,2.4v4.6c0,0.3,0,0.7,0.1,1s0.1,0.6,0.2,0.9H352.4z M349.6,274
				c0.6,0,1.2-0.2,1.7-0.5s0.8-0.7,1-1.1v-1.5h-1.9c-0.7,0-1.3,0.2-1.7,0.5c-0.4,0.4-0.6,0.8-0.6,1.2c0,0.4,0.1,0.8,0.4,1
				S349,274,349.6,274z"/>
			<path class="st2" d="M361,267.3l-0.9-0.1c-0.5,0-0.8,0.1-1.2,0.3s-0.6,0.5-0.7,0.9v6.8h-1.7v-9.5h1.5l0.2,1.4
				c0.3-0.5,0.6-0.9,1-1.2s0.9-0.4,1.4-0.4c0.1,0,0.3,0,0.4,0s0.2,0,0.3,0.1L361,267.3z"/>
			<path class="st2" d="M367.2,267.3l-0.9-0.1c-0.5,0-0.8,0.1-1.2,0.3s-0.6,0.5-0.7,0.9v6.8h-1.7v-9.5h1.5l0.2,1.4
				c0.3-0.5,0.6-0.9,1-1.2s0.9-0.4,1.4-0.4c0.1,0,0.3,0,0.4,0s0.2,0,0.3,0.1L367.2,267.3z"/>
			<path class="st2" d="M370.7,263.3H369v-1.8h1.7V263.3z M370.7,275.3H369v-9.5h1.7V275.3z"/>
			<path class="st2" d="M377.3,275.5c-1.3,0-2.4-0.4-3.2-1.3c-0.8-0.9-1.2-2-1.2-3.4v-0.4c0-1.4,0.4-2.5,1.2-3.4s1.8-1.3,2.9-1.3
				c1.3,0,2.3,0.4,2.9,1.2s1,1.8,1,3.1v1.1h-6.2l0,0c0,0.9,0.2,1.7,0.7,2.2s1.1,0.9,1.9,0.9c0.6,0,1.1-0.1,1.5-0.2
				c0.4-0.2,0.8-0.4,1.1-0.7l0.7,1.1c-0.3,0.3-0.8,0.6-1.3,0.8C378.8,275.3,378.1,275.5,377.3,275.5z M377,267
				c-0.6,0-1.1,0.2-1.5,0.7s-0.7,1.1-0.8,1.8l0,0h4.4v-0.2c0-0.7-0.2-1.2-0.5-1.7C378.3,267.2,377.8,267,377,267z"/>
			<path class="st2" d="M387.4,267.3l-0.9-0.1c-0.5,0-0.8,0.1-1.2,0.3s-0.6,0.5-0.7,0.9v6.8h-1.7v-9.5h1.5l0.2,1.4
				c0.3-0.5,0.6-0.9,1-1.2s0.9-0.4,1.4-0.4c0.1,0,0.3,0,0.4,0s0.2,0,0.3,0.1L387.4,267.3z"/>
			<path class="st2" d="M389.4,267.6h-1.7v-1.8h1.7V267.6z M389.4,275.3h-1.7v-1.8h1.7V275.3z"/>
		</g>
		<g class="st1">
			<path class="st2" d="M358.4,232.6c0-0.6-0.2-1.1-0.7-1.5c-0.4-0.4-1.2-0.7-2.3-1c-1.4-0.3-2.4-0.8-3.2-1.4
				c-0.8-0.6-1.1-1.4-1.1-2.4c0-1,0.4-1.8,1.2-2.5c0.8-0.7,1.9-1,3.2-1c1.4,0,2.5,0.4,3.3,1.2s1.2,1.7,1.2,2.7l0,0.1h-1.7
				c0-0.8-0.2-1.4-0.7-1.8s-1.2-0.7-2.1-0.7c-0.9,0-1.5,0.2-2,0.6c-0.5,0.4-0.7,0.9-0.7,1.5c0,0.6,0.2,1,0.7,1.4
				c0.5,0.4,1.3,0.7,2.4,1c1.3,0.3,2.4,0.8,3.1,1.5s1.1,1.5,1.1,2.4c0,1-0.4,1.9-1.3,2.5s-1.9,0.9-3.3,0.9c-1.3,0-2.4-0.3-3.4-1
				c-1-0.7-1.5-1.6-1.4-2.8l0-0.1h1.7c0,0.8,0.3,1.4,0.9,1.9s1.4,0.6,2.2,0.6c0.9,0,1.6-0.2,2.1-0.6
				C358.2,233.7,358.4,233.2,358.4,232.6z"/>
			<path class="st2" d="M370.5,231.4c0,1.4-0.3,2.5-1,3.3s-1.6,1.3-2.7,1.3c-0.6,0-1.1-0.1-1.5-0.3c-0.4-0.2-0.8-0.5-1.1-0.9v4.6
				h-1.7v-13.2h1.3l0.3,1.2c0.3-0.5,0.7-0.8,1.2-1s1-0.4,1.6-0.4c1.2,0,2.1,0.5,2.7,1.4s1,2.2,1,3.7V231.4z M368.7,231.2
				c0-1.1-0.2-2-0.6-2.7s-1.1-1-1.9-1c-0.5,0-0.9,0.1-1.3,0.3s-0.6,0.5-0.9,0.9v4.6c0.2,0.4,0.5,0.7,0.9,0.9s0.8,0.3,1.3,0.3
				c0.8,0,1.4-0.3,1.9-0.9c0.4-0.6,0.6-1.4,0.6-2.3V231.2z"/>
			<path class="st2" d="M372.2,230.9c0-1.4,0.4-2.6,1.1-3.5s1.8-1.4,3.1-1.4c1.3,0,2.4,0.5,3.1,1.4s1.1,2.1,1.1,3.5v0.2
				c0,1.4-0.4,2.6-1.1,3.5s-1.8,1.4-3.1,1.4s-2.4-0.5-3.1-1.4c-0.8-0.9-1.1-2.1-1.1-3.5V230.9z M373.9,231.1c0,1,0.2,1.8,0.6,2.5
				s1.1,1,1.9,1c0.8,0,1.5-0.3,1.9-1s0.6-1.5,0.6-2.5v-0.2c0-1-0.2-1.8-0.6-2.5s-1.1-1-1.9-1c-0.8,0-1.5,0.3-1.9,1s-0.6,1.5-0.6,2.5
				V231.1z"/>
			<path class="st2" d="M385.1,224v2.3h1.8v1.3h-1.8v5.8c0,0.4,0.1,0.8,0.3,0.9s0.4,0.3,0.7,0.3c0.1,0,0.2,0,0.3,0s0.2-0.1,0.3-0.1
				l0.2,1.2c-0.1,0.1-0.3,0.2-0.6,0.3c-0.2,0.1-0.5,0.1-0.8,0.1c-0.7,0-1.3-0.2-1.7-0.6c-0.4-0.4-0.6-1.1-0.6-2v-5.8h-1.5v-1.3h1.5
				V224H385.1z"/>
			<path class="st2" d="M390.9,228.1h-1.7v-1.8h1.7V228.1z M390.9,235.8h-1.7V234h1.7V235.8z"/>
		</g>
		<g class="st1">
			<path class="st2" d="M421.9,226.3c0,0.7-0.2,1.3-0.6,1.8c-0.4,0.5-0.9,0.9-1.5,1.1c0.7,0.3,1.3,0.7,1.8,1.2s0.7,1.2,0.7,1.9
				c0,1.2-0.4,2.1-1.2,2.7c-0.8,0.6-1.8,0.9-3,0.9c-1.3,0-2.3-0.3-3-0.9c-0.8-0.6-1.1-1.5-1.1-2.7c0-0.7,0.2-1.4,0.7-1.9
				s1-1,1.8-1.2c-0.6-0.2-1.1-0.6-1.5-1.1c-0.4-0.5-0.5-1.1-0.5-1.8c0-1.1,0.3-2,1-2.6s1.6-0.9,2.8-0.9c1.1,0,2,0.3,2.8,0.9
				S421.9,225.2,421.9,226.3z M420.5,232.3c0-0.7-0.2-1.3-0.7-1.7s-1-0.7-1.8-0.7c-0.7,0-1.3,0.2-1.8,0.7s-0.7,1-0.7,1.7
				c0,0.7,0.2,1.3,0.7,1.7s1,0.6,1.8,0.6c0.7,0,1.3-0.2,1.8-0.6C420.3,233.6,420.5,233,420.5,232.3z M420.2,226.4
				c0-0.6-0.2-1.2-0.6-1.6s-0.9-0.6-1.5-0.6c-0.6,0-1.1,0.2-1.5,0.6c-0.4,0.4-0.6,0.9-0.6,1.6c0,0.7,0.2,1.2,0.6,1.6
				s0.9,0.6,1.5,0.6c0.6,0,1.1-0.2,1.5-0.6S420.2,227,420.2,226.4z"/>
			<path class="st2" d="M427.6,234.6c0.8,0,1.5-0.3,2-1s0.8-1.6,0.8-2.8v-0.6c-0.3,0.4-0.6,0.7-1.1,0.9s-0.9,0.3-1.4,0.3
				c-1.2,0-2.2-0.4-2.9-1.1c-0.7-0.8-1.1-1.8-1.1-3.2c0-1.3,0.4-2.3,1.2-3.2s1.7-1.2,2.8-1.2c1.3,0,2.4,0.4,3.2,1.3
				c0.8,0.8,1.2,2.1,1.2,3.7v3c0,1.7-0.4,3-1.3,3.8s-1.9,1.3-3.3,1.3c-0.5,0-0.9,0-1.4-0.1c-0.5-0.1-0.9-0.2-1.3-0.4l0.3-1.3
				c0.3,0.2,0.7,0.3,1.1,0.4S427.1,234.6,427.6,234.6z M427.9,230.1c0.6,0,1.2-0.1,1.6-0.4c0.4-0.3,0.7-0.6,0.9-1.1v-1.1
				c0-1.1-0.2-2-0.6-2.5s-1.1-0.9-1.9-0.9c-0.6,0-1.2,0.3-1.6,0.8s-0.7,1.3-0.7,2.2c0,0.9,0.2,1.6,0.6,2.1S427.2,230.1,427.9,230.1z
				"/>
			<path class="st2" d="M436.4,235.8h-1.7V234h1.7V235.8z"/>
			<path class="st2" d="M442.6,234.6c0.8,0,1.5-0.3,2-1s0.8-1.6,0.8-2.8v-0.6c-0.3,0.4-0.6,0.7-1.1,0.9s-0.9,0.3-1.4,0.3
				c-1.2,0-2.2-0.4-2.9-1.1c-0.7-0.8-1.1-1.8-1.1-3.2c0-1.3,0.4-2.3,1.2-3.2s1.7-1.2,2.8-1.2c1.3,0,2.4,0.4,3.2,1.3
				c0.8,0.8,1.2,2.1,1.2,3.7v3c0,1.7-0.4,3-1.3,3.8s-1.9,1.3-3.3,1.3c-0.5,0-0.9,0-1.4-0.1c-0.5-0.1-0.9-0.2-1.3-0.4l0.3-1.3
				c0.3,0.2,0.7,0.3,1.1,0.4S442.1,234.6,442.6,234.6z M442.9,230.1c0.6,0,1.2-0.1,1.6-0.4c0.4-0.3,0.7-0.6,0.9-1.1v-1.1
				c0-1.1-0.2-2-0.6-2.5s-1.1-0.9-1.9-0.9c-0.6,0-1.2,0.3-1.6,0.8s-0.7,1.3-0.7,2.2c0,0.9,0.2,1.6,0.6,2.1S442.1,230.1,442.9,230.1z
				"/>
			<path class="st2" d="M451.6,228.6h1.5c0.8,0,1.3-0.2,1.6-0.6s0.5-0.9,0.5-1.6c0-0.7-0.2-1.3-0.5-1.7s-0.9-0.6-1.6-0.6
				c-0.7,0-1.2,0.2-1.6,0.6c-0.4,0.4-0.6,0.9-0.6,1.6h-1.7l0-0.1c0-1,0.3-1.8,1.1-2.5c0.7-0.7,1.7-1,2.9-1c1.2,0,2.1,0.3,2.8,0.9
				c0.7,0.6,1.1,1.5,1.1,2.7c0,0.5-0.2,1.1-0.5,1.6c-0.3,0.5-0.8,0.9-1.4,1.2c0.8,0.3,1.3,0.6,1.6,1.2s0.5,1.1,0.5,1.8
				c0,1.2-0.4,2.1-1.1,2.8s-1.7,1-2.9,1c-1.2,0-2.1-0.3-2.9-0.9s-1.1-1.5-1.1-2.6l0-0.1h1.7c0,0.7,0.2,1.2,0.6,1.6
				c0.4,0.4,1,0.6,1.7,0.6c0.7,0,1.3-0.2,1.7-0.6c0.4-0.4,0.6-1,0.6-1.8c0-0.8-0.2-1.4-0.6-1.7c-0.4-0.4-1-0.6-1.7-0.6h-1.5V228.6z"
				/>
			<path class="st2" d="M466.3,231.5h1.8v1.4h-1.8v2.9h-1.7v-2.9h-5.7v-1l5.6-8.9h1.8V231.5z M460.7,231.5h3.9v-6l-0.1,0l-0.2,0.4
				L460.7,231.5z"/>
		</g>
		<g class="st1">
			<path class="st2" d="M300.4,311.5h6.1v1.4h-7.8V300h1.7V311.5z"/>
			<path class="st2" d="M307.6,308c0-1.4,0.4-2.6,1.1-3.5s1.8-1.4,3.1-1.4c1.3,0,2.4,0.5,3.1,1.4s1.1,2.1,1.1,3.5v0.2
				c0,1.4-0.4,2.6-1.1,3.5s-1.8,1.4-3.1,1.4s-2.4-0.5-3.1-1.4c-0.8-0.9-1.1-2.1-1.1-3.5V308z M309.4,308.2c0,1,0.2,1.8,0.6,2.5
				s1.1,1,1.9,1c0.8,0,1.5-0.3,1.9-1s0.6-1.5,0.6-2.5V308c0-1-0.2-1.8-0.6-2.5s-1.1-1-1.9-1c-0.8,0-1.5,0.3-1.9,1s-0.6,1.5-0.6,2.5
				V308.2z"/>
			<path class="st2" d="M320.7,309.4l0.2,1.2h0.1l0.2-1.2l1.9-6h1.4l1.9,6l0.3,1.3h0.1l0.3-1.3l1.5-6h1.7l-2.8,9.5H326l-1.8-5.8
				l-0.4-1.6l-0.1,0l-0.4,1.6l-1.8,5.8h-1.4l-2.8-9.5h1.7L320.7,309.4z"/>
			<path class="st2" d="M344.5,308.4c0,1.4-0.3,2.5-1,3.3s-1.6,1.3-2.7,1.3c-0.6,0-1.2-0.1-1.6-0.4c-0.5-0.2-0.8-0.6-1.2-1.1
				l-0.2,1.3h-1.4v-13.7h1.7v5.3c0.3-0.4,0.7-0.7,1.1-1s1-0.3,1.6-0.3c1.2,0,2.1,0.5,2.7,1.4s1,2.2,1,3.7V308.4z M342.8,308.2
				c0-1.1-0.2-2-0.6-2.7s-1-1-1.8-1c-0.5,0-1,0.1-1.3,0.4c-0.4,0.3-0.7,0.6-0.9,1.1v4.1c0.2,0.5,0.5,0.8,0.9,1.1s0.8,0.4,1.4,0.4
				c0.8,0,1.4-0.3,1.8-0.9s0.6-1.3,0.6-2.3V308.2z"/>
			<path class="st2" d="M352.4,312.8c-0.1-0.3-0.1-0.5-0.1-0.8c0-0.2-0.1-0.4-0.1-0.7c-0.3,0.5-0.7,0.8-1.3,1.1
				c-0.5,0.3-1.1,0.5-1.7,0.5c-1,0-1.7-0.3-2.3-0.8c-0.5-0.5-0.8-1.2-0.8-2.1c0-0.9,0.4-1.6,1.1-2.1s1.7-0.8,3-0.8h1.9v-0.9
				c0-0.6-0.2-1-0.5-1.3c-0.3-0.3-0.8-0.5-1.4-0.5c-0.6,0-1,0.1-1.4,0.4s-0.5,0.6-0.5,1h-1.7l0-0.1c0-0.7,0.3-1.3,1-1.9
				s1.6-0.9,2.7-0.9c1.1,0,1.9,0.3,2.6,0.8s1,1.3,1,2.4v4.6c0,0.3,0,0.7,0.1,1s0.1,0.6,0.2,0.9H352.4z M349.6,311.6
				c0.6,0,1.2-0.2,1.7-0.5s0.8-0.7,1-1.1v-1.5h-1.9c-0.7,0-1.3,0.2-1.7,0.5c-0.4,0.4-0.6,0.8-0.6,1.2c0,0.4,0.1,0.8,0.4,1
				S349,311.6,349.6,311.6z"/>
			<path class="st2" d="M361,304.8l-0.9-0.1c-0.5,0-0.8,0.1-1.2,0.3s-0.6,0.5-0.7,0.9v6.8h-1.7v-9.5h1.5l0.2,1.4
				c0.3-0.5,0.6-0.9,1-1.2s0.9-0.4,1.4-0.4c0.1,0,0.3,0,0.4,0s0.2,0,0.3,0.1L361,304.8z"/>
			<path class="st2" d="M367.2,304.8l-0.9-0.1c-0.5,0-0.8,0.1-1.2,0.3s-0.6,0.5-0.7,0.9v6.8h-1.7v-9.5h1.5l0.2,1.4
				c0.3-0.5,0.6-0.9,1-1.2s0.9-0.4,1.4-0.4c0.1,0,0.3,0,0.4,0s0.2,0,0.3,0.1L367.2,304.8z"/>
			<path class="st2" d="M370.7,300.9H369v-1.8h1.7V300.9z M370.7,312.8H369v-9.5h1.7V312.8z"/>
			<path class="st2" d="M377.3,313c-1.3,0-2.4-0.4-3.2-1.3c-0.8-0.9-1.2-2-1.2-3.4v-0.4c0-1.4,0.4-2.5,1.2-3.4s1.8-1.3,2.9-1.3
				c1.3,0,2.3,0.4,2.9,1.2s1,1.8,1,3.1v1.1h-6.2l0,0c0,0.9,0.2,1.7,0.7,2.2s1.1,0.9,1.9,0.9c0.6,0,1.1-0.1,1.5-0.2
				c0.4-0.2,0.8-0.4,1.1-0.7l0.7,1.1c-0.3,0.3-0.8,0.6-1.3,0.8C378.8,312.9,378.1,313,377.3,313z M377,304.5c-0.6,0-1.1,0.2-1.5,0.7
				s-0.7,1.1-0.8,1.8l0,0h4.4v-0.2c0-0.7-0.2-1.2-0.5-1.7C378.3,304.7,377.8,304.5,377,304.5z"/>
			<path class="st2" d="M387.4,304.8l-0.9-0.1c-0.5,0-0.8,0.1-1.2,0.3s-0.6,0.5-0.7,0.9v6.8h-1.7v-9.5h1.5l0.2,1.4
				c0.3-0.5,0.6-0.9,1-1.2s0.9-0.4,1.4-0.4c0.1,0,0.3,0,0.4,0s0.2,0,0.3,0.1L387.4,304.8z"/>
			<path class="st2" d="M389.4,305.1h-1.7v-1.8h1.7V305.1z M389.4,312.8h-1.7V311h1.7V312.8z"/>
		</g>
	</g>
	<g>
		<path class="st12" d="M460.5,82.3h131.3"/>
		<path class="st13" d="M591.7,67.9h192.8v29H591.7V67.9z"/>
		<g class="st1">
			<path class="st2" d="M614.7,84.5L614.7,84.5c-0.1,1.2-0.5,2.1-1.2,2.7s-1.7,1-2.9,1c-1.3,0-2.3-0.5-3.1-1.4s-1.2-2.1-1.2-3.6
				v-1.9c0-1.4,0.4-2.6,1.2-3.6s1.8-1.4,3.1-1.4c1.2,0,2.2,0.3,2.9,1s1.1,1.5,1.2,2.7l0,0h-0.9c-0.1-0.9-0.4-1.7-1-2.2
				s-1.3-0.8-2.2-0.8c-1,0-1.8,0.4-2.4,1.2s-0.9,1.8-0.9,3v1.9c0,1.2,0.3,2.2,0.9,3s1.4,1.2,2.4,1.2c1,0,1.7-0.2,2.2-0.7
				s0.8-1.2,1-2.2H614.7z"/>
			<path class="st2" d="M617.8,81.1c0.3-0.5,0.7-0.9,1.1-1.2s1-0.4,1.6-0.4c0.9,0,1.6,0.3,2.1,0.8s0.7,1.4,0.7,2.6v5.2h-0.9v-5.2
				c0-0.9-0.2-1.6-0.5-2s-0.9-0.6-1.5-0.6c-0.6,0-1.2,0.2-1.6,0.5s-0.7,0.8-0.9,1.3v6h-0.9V75.9h0.9V81.1z"/>
			<path class="st2" d="M625.2,83.7c0-1.2,0.3-2.3,1-3.1s1.6-1.2,2.7-1.2c1.1,0,2,0.4,2.7,1.2s1,1.8,1,3.1V84c0,1.2-0.3,2.3-1,3.1
				s-1.6,1.2-2.7,1.2c-1.1,0-2-0.4-2.7-1.2s-1-1.8-1-3.1V83.7z M626.2,84c0,1,0.2,1.8,0.7,2.5s1.2,1,2.1,1c0.9,0,1.6-0.3,2.1-1
				s0.7-1.5,0.7-2.5v-0.3c0-1-0.2-1.8-0.8-2.5s-1.2-1-2.1-1s-1.6,0.3-2.1,1s-0.7,1.5-0.7,2.5V84z"/>
			<path class="st2" d="M634.1,83.7c0-1.2,0.3-2.3,1-3.1s1.6-1.2,2.7-1.2c1.1,0,2,0.4,2.7,1.2s1,1.8,1,3.1V84c0,1.2-0.3,2.3-1,3.1
				s-1.6,1.2-2.7,1.2c-1.1,0-2-0.4-2.7-1.2s-1-1.8-1-3.1V83.7z M635.1,84c0,1,0.2,1.8,0.7,2.5s1.2,1,2.1,1c0.9,0,1.6-0.3,2.1-1
				s0.7-1.5,0.7-2.5v-0.3c0-1-0.2-1.8-0.8-2.5s-1.2-1-2.1-1s-1.6,0.3-2.1,1s-0.7,1.5-0.7,2.5V84z"/>
			<path class="st2" d="M648.6,85.9c0-0.4-0.2-0.7-0.5-1c-0.3-0.3-0.9-0.5-1.8-0.7c-1-0.2-1.8-0.5-2.2-0.9s-0.7-0.9-0.7-1.5
				c0-0.6,0.3-1.2,0.8-1.6s1.3-0.7,2.2-0.7c1,0,1.7,0.2,2.3,0.7s0.8,1.1,0.8,1.8l0,0h-0.9c0-0.5-0.2-0.9-0.6-1.2s-0.9-0.5-1.6-0.5
				c-0.7,0-1.2,0.1-1.5,0.4s-0.5,0.6-0.5,1c0,0.4,0.1,0.7,0.4,1s0.9,0.5,1.8,0.7c1,0.2,1.8,0.5,2.3,0.9s0.8,0.9,0.8,1.6
				c0,0.7-0.3,1.3-0.9,1.7s-1.3,0.7-2.3,0.7c-1,0-1.8-0.2-2.4-0.7s-0.9-1.1-0.8-1.8l0,0h0.9c0,0.6,0.3,1,0.7,1.3
				c0.5,0.3,1,0.4,1.6,0.4c0.7,0,1.2-0.1,1.6-0.4S648.6,86.3,648.6,85.9z"/>
			<path class="st2" d="M654.9,88.2c-1.1,0-1.9-0.4-2.6-1.2s-1.1-1.8-1.1-3v-0.4c0-1.2,0.3-2.2,1-3s1.5-1.2,2.5-1.2
				c1,0,1.9,0.3,2.4,1s0.9,1.5,0.9,2.6v0.8h-6v0.2c0,1,0.3,1.7,0.8,2.4c0.5,0.6,1.2,1,2,1c0.6,0,1.1-0.1,1.5-0.2s0.8-0.4,1.1-0.7
				l0.4,0.6c-0.3,0.3-0.7,0.6-1.2,0.8S655.6,88.2,654.9,88.2z M654.8,80.3c-0.7,0-1.3,0.3-1.7,0.8s-0.7,1.2-0.8,2l0,0h5v-0.2
				c0-0.7-0.2-1.3-0.6-1.8S655.5,80.3,654.8,80.3z"/>
			<path class="st2" d="M666.3,85.8l0.3,1h0l2.6-7.2h1l-3.7,9.8c-0.2,0.6-0.5,1.1-0.9,1.5s-0.9,0.6-1.5,0.6c-0.1,0-0.2,0-0.4,0
				s-0.3,0-0.3-0.1l0.1-0.8c0.1,0,0.2,0,0.3,0s0.2,0,0.3,0c0.4,0,0.7-0.1,1-0.4s0.5-0.7,0.6-1.1l0.4-1.1l-3.3-8.3h1L666.3,85.8z"/>
			<path class="st2" d="M671,83.7c0-1.2,0.3-2.3,1-3.1s1.6-1.2,2.7-1.2c1.1,0,2,0.4,2.7,1.2s1,1.8,1,3.1V84c0,1.2-0.3,2.3-1,3.1
				s-1.6,1.2-2.7,1.2c-1.1,0-2-0.4-2.7-1.2s-1-1.8-1-3.1V83.7z M672,84c0,1,0.2,1.8,0.7,2.5s1.2,1,2.1,1c0.9,0,1.6-0.3,2.1-1
				s0.7-1.5,0.7-2.5v-0.3c0-1-0.2-1.8-0.8-2.5s-1.2-1-2.1-1s-1.6,0.3-2.1,1s-0.7,1.5-0.7,2.5V84z"/>
			<path class="st2" d="M686,86.7c-0.3,0.5-0.6,0.9-1.1,1.1s-1,0.4-1.6,0.4c-0.9,0-1.6-0.3-2.1-0.9s-0.8-1.5-0.8-2.8v-4.9h0.9v4.9
				c0,1,0.2,1.8,0.5,2.2c0.4,0.4,0.9,0.7,1.5,0.7c0.7,0,1.3-0.2,1.7-0.5s0.7-0.8,0.9-1.3v-6h0.9v8.5h-0.8L686,86.7z"/>
			<path class="st2" d="M693.3,80.4l-0.7,0c-0.6,0-1.1,0.2-1.4,0.5s-0.6,0.8-0.8,1.4v5.8h-0.9v-8.5h0.8l0.1,1.4v0.1
				c0.2-0.5,0.6-0.9,1-1.2s0.9-0.4,1.5-0.4c0.1,0,0.2,0,0.3,0s0.2,0,0.3,0.1L693.3,80.4z"/>
			<path class="st2" d="M700.2,77.5v2.2h1.9v0.8h-1.9v5.5c0,0.6,0.1,0.9,0.3,1.2s0.5,0.3,0.8,0.3c0.2,0,0.3,0,0.4,0s0.3,0,0.5-0.1
				l0.1,0.7c-0.2,0.1-0.3,0.1-0.6,0.2s-0.4,0.1-0.7,0.1c-0.6,0-1.1-0.2-1.4-0.6s-0.5-1-0.5-1.8v-5.5h-1.5v-0.8h1.5v-2.2H700.2z"/>
			<path class="st2" d="M707.9,80.4l-0.7,0c-0.6,0-1.1,0.2-1.4,0.5s-0.6,0.8-0.8,1.4v5.8H704v-8.5h0.8L705,81v0.1
				c0.2-0.5,0.6-0.9,1-1.2s0.9-0.4,1.5-0.4c0.1,0,0.2,0,0.3,0s0.2,0,0.3,0.1L707.9,80.4z"/>
			<path class="st2" d="M714.8,88.1c-0.1-0.3-0.1-0.5-0.1-0.7s0-0.4,0-0.6c-0.3,0.4-0.7,0.8-1.2,1.1s-1.1,0.4-1.8,0.4
				c-0.8,0-1.5-0.2-1.9-0.7s-0.7-1-0.7-1.8c0-0.8,0.3-1.4,1-1.9s1.6-0.7,2.7-0.7h1.9v-1c0-0.6-0.2-1.1-0.6-1.4s-0.9-0.5-1.6-0.5
				c-0.7,0-1.2,0.2-1.6,0.5s-0.6,0.7-0.6,1.2l-0.9,0l0,0c0-0.6,0.3-1.2,0.9-1.7s1.4-0.7,2.3-0.7c0.9,0,1.7,0.2,2.2,0.7
				s0.9,1.2,0.9,2v4.2c0,0.3,0,0.6,0.1,0.9s0.1,0.6,0.2,0.8H714.8z M711.8,87.4c0.7,0,1.3-0.2,1.8-0.5s0.9-0.7,1.1-1.2V84h-1.9
				c-0.8,0-1.5,0.2-2,0.5s-0.8,0.8-0.8,1.3c0,0.5,0.2,0.8,0.5,1.1S711.2,87.4,711.8,87.4z"/>
			<path class="st2" d="M717.7,83.9c0-1.3,0.3-2.4,0.9-3.2s1.4-1.2,2.4-1.2c0.6,0,1.1,0.1,1.5,0.4s0.8,0.6,1.1,1.1v-5h0.9v12.2h-0.8
				l-0.1-1.2c-0.3,0.4-0.6,0.8-1.1,1s-1,0.4-1.6,0.4c-1,0-1.8-0.4-2.4-1.1s-0.9-1.8-0.9-3V83.9z M718.6,84.1c0,1,0.2,1.8,0.6,2.4
				s1,0.9,1.8,0.9c0.6,0,1.1-0.1,1.5-0.4c0.4-0.3,0.7-0.6,0.9-1.1v-4c-0.2-0.5-0.5-0.9-0.9-1.2c-0.4-0.3-0.9-0.5-1.5-0.5
				c-0.8,0-1.4,0.3-1.9,1c-0.4,0.7-0.6,1.6-0.6,2.6V84.1z"/>
			<path class="st2" d="M730.2,88.2c-1.1,0-1.9-0.4-2.6-1.2s-1.1-1.8-1.1-3v-0.4c0-1.2,0.3-2.2,1-3s1.5-1.2,2.5-1.2
				c1,0,1.9,0.3,2.4,1s0.9,1.5,0.9,2.6v0.8h-6v0.2c0,1,0.3,1.7,0.8,2.4c0.5,0.6,1.2,1,2,1c0.6,0,1.1-0.1,1.5-0.2s0.8-0.4,1.1-0.7
				l0.4,0.6c-0.3,0.3-0.7,0.6-1.2,0.8S730.8,88.2,730.2,88.2z M730,80.3c-0.7,0-1.3,0.3-1.7,0.8s-0.7,1.2-0.8,2l0,0h5v-0.2
				c0-0.7-0.2-1.3-0.6-1.8S730.8,80.3,730,80.3z"/>
			<path class="st2" d="M740.6,77.5v2.2h1.9v0.8h-1.9v5.5c0,0.6,0.1,0.9,0.3,1.2s0.5,0.3,0.8,0.3c0.2,0,0.3,0,0.4,0s0.3,0,0.5-0.1
				l0.1,0.7c-0.2,0.1-0.3,0.1-0.6,0.2s-0.4,0.1-0.7,0.1c-0.6,0-1.1-0.2-1.4-0.6s-0.5-1-0.5-1.8v-5.5h-1.5v-0.8h1.5v-2.2H740.6z"/>
			<path class="st2" d="M746.8,85.8l0.3,1h0l2.6-7.2h1l-3.7,9.8c-0.2,0.6-0.5,1.1-0.9,1.5s-0.9,0.6-1.5,0.6c-0.1,0-0.2,0-0.4,0
				s-0.3,0-0.3-0.1l0.1-0.8c0.1,0,0.2,0,0.3,0s0.2,0,0.3,0c0.4,0,0.7-0.1,1-0.4s0.5-0.7,0.6-1.1l0.4-1.1l-3.3-8.3h1L746.8,85.8z"/>
			<path class="st2" d="M759.1,84.1c0,1.3-0.3,2.3-0.9,3s-1.4,1.1-2.4,1.1c-0.6,0-1.1-0.1-1.6-0.3s-0.8-0.5-1.1-1v4.4h-0.9V79.6h0.8
				l0.1,1.3c0.3-0.5,0.6-0.8,1.1-1.1s1-0.4,1.6-0.4c1,0,1.8,0.4,2.4,1.2s0.9,1.9,0.9,3.2V84.1z M758.1,83.9c0-1.1-0.2-2-0.6-2.6
				s-1.1-1-1.9-1c-0.6,0-1.1,0.2-1.5,0.4c-0.4,0.3-0.7,0.7-0.9,1.2V86c0.2,0.5,0.5,0.8,0.9,1.1c0.4,0.3,0.9,0.4,1.5,0.4
				c0.8,0,1.4-0.3,1.9-0.9s0.6-1.4,0.6-2.4V83.9z"/>
			<path class="st2" d="M764.3,88.2c-1.1,0-1.9-0.4-2.6-1.2s-1.1-1.8-1.1-3v-0.4c0-1.2,0.3-2.2,1-3s1.5-1.2,2.5-1.2
				c1,0,1.9,0.3,2.4,1s0.9,1.5,0.9,2.6v0.8h-6v0.2c0,1,0.3,1.7,0.8,2.4c0.5,0.6,1.2,1,2,1c0.6,0,1.1-0.1,1.5-0.2s0.8-0.4,1.1-0.7
				l0.4,0.6c-0.3,0.3-0.7,0.6-1.2,0.8S765,88.2,764.3,88.2z M764.2,80.3c-0.7,0-1.3,0.3-1.7,0.8s-0.7,1.2-0.8,2l0,0h5v-0.2
				c0-0.7-0.2-1.3-0.6-1.8S765,80.3,764.2,80.3z"/>
		</g>
	</g>
	<g>
		<line class="st12" x1="530.4" y1="153.1" x2="632.2" y2="153.1"/>
		<path class="st13" d="M632.2,138.8h139.7v29H632.2V138.8z"/>
		<g class="st1">
			<path class="st2" d="M650.7,153.8l3.5-6.3h1.1l-4.1,7.2v4.2h-0.9v-4.2l-4.1-7.2h1.1L650.7,153.8z"/>
			<path class="st2" d="M655.7,154.5c0-1.2,0.3-2.3,1-3.1c0.7-0.8,1.6-1.2,2.7-1.2c1.1,0,2,0.4,2.7,1.2c0.7,0.8,1,1.8,1,3.1v0.3
				c0,1.2-0.3,2.3-1,3.1s-1.6,1.2-2.7,1.2c-1.1,0-2-0.4-2.7-1.2c-0.7-0.8-1-1.8-1-3.1V154.5z M656.7,154.8c0,1,0.2,1.8,0.7,2.5
				c0.5,0.7,1.2,1,2.1,1c0.9,0,1.6-0.3,2.1-1c0.5-0.7,0.7-1.5,0.7-2.5v-0.3c0-1-0.2-1.8-0.8-2.5s-1.2-1-2.1-1s-1.6,0.3-2.1,1
				c-0.5,0.7-0.7,1.5-0.7,2.5V154.8z"/>
			<path class="st2" d="M670.7,157.5c-0.3,0.5-0.6,0.9-1.1,1.1c-0.5,0.3-1,0.4-1.6,0.4c-0.9,0-1.6-0.3-2.1-0.9
				c-0.5-0.6-0.8-1.5-0.8-2.8v-4.9h0.9v4.9c0,1,0.2,1.8,0.5,2.2c0.4,0.4,0.8,0.7,1.5,0.7c0.7,0,1.3-0.2,1.7-0.5s0.7-0.8,0.9-1.3v-6
				h0.9v8.5h-0.8L670.7,157.5z"/>
			<path class="st2" d="M678,151.2l-0.7,0c-0.6,0-1.1,0.2-1.4,0.5c-0.4,0.3-0.6,0.8-0.8,1.4v5.8h-0.9v-8.5h0.8l0.1,1.4v0.1
				c0.2-0.5,0.6-0.9,1-1.2c0.4-0.3,0.9-0.4,1.5-0.4c0.1,0,0.2,0,0.3,0c0.1,0,0.2,0,0.3,0.1L678,151.2z"/>
			<path class="st2" d="M688.9,157.5c-0.3,0.5-0.6,0.9-1.1,1.1c-0.5,0.3-1,0.4-1.6,0.4c-0.9,0-1.6-0.3-2.1-0.9
				c-0.5-0.6-0.8-1.5-0.8-2.8v-4.9h0.9v4.9c0,1,0.2,1.8,0.5,2.2c0.4,0.4,0.8,0.7,1.5,0.7c0.7,0,1.3-0.2,1.7-0.5s0.7-0.8,0.9-1.3v-6
				h0.9v8.5H689L688.9,157.5z"/>
			<path class="st2" d="M693.1,150.4l0.1,1.5c0.3-0.5,0.6-0.9,1.1-1.2s1-0.4,1.6-0.4c0.9,0,1.6,0.3,2.1,0.8c0.5,0.6,0.7,1.4,0.7,2.6
				v5.1h-0.9v-5.2c0-1-0.2-1.7-0.5-2.1c-0.4-0.4-0.9-0.6-1.5-0.6c-0.7,0-1.2,0.2-1.6,0.5s-0.7,0.8-0.9,1.4v5.9h-0.9v-8.5H693.1z"/>
			<path class="st2" d="M700.8,154.7c0-1.3,0.3-2.4,0.9-3.2s1.4-1.2,2.4-1.2c0.6,0,1.1,0.1,1.5,0.4c0.4,0.2,0.8,0.6,1.1,1.1v-5h0.9
				v12.2h-0.8l-0.1-1.2c-0.3,0.4-0.6,0.8-1.1,1c-0.4,0.2-1,0.4-1.6,0.4c-1,0-1.8-0.4-2.4-1.1s-0.9-1.8-0.9-3V154.7z M701.8,154.9
				c0,1,0.2,1.8,0.6,2.4c0.4,0.6,1,0.9,1.8,0.9c0.6,0,1.1-0.1,1.5-0.4c0.4-0.3,0.7-0.6,0.9-1.1v-4c-0.2-0.5-0.5-0.9-0.9-1.2
				c-0.4-0.3-0.9-0.5-1.5-0.5c-0.8,0-1.4,0.3-1.9,1c-0.4,0.7-0.6,1.6-0.6,2.6V154.9z"/>
			<path class="st2" d="M713.3,159.1c-1.1,0-1.9-0.4-2.6-1.2c-0.7-0.8-1.1-1.8-1.1-3v-0.4c0-1.2,0.3-2.2,1-3s1.5-1.2,2.5-1.2
				c1,0,1.9,0.3,2.4,1s0.9,1.5,0.9,2.6v0.8h-6v0.2c0,1,0.3,1.7,0.8,2.4c0.5,0.6,1.2,1,2,1c0.6,0,1.1-0.1,1.5-0.2
				c0.4-0.2,0.8-0.4,1.1-0.7l0.4,0.6c-0.3,0.3-0.7,0.6-1.2,0.8C714.5,159,714,159.1,713.3,159.1z M713.2,151.1
				c-0.7,0-1.3,0.3-1.7,0.8s-0.7,1.2-0.8,2l0,0h5v-0.2c0-0.7-0.2-1.3-0.6-1.8C714.5,151.3,713.9,151.1,713.2,151.1z"/>
			<path class="st2" d="M722.3,151.2l-0.7,0c-0.6,0-1.1,0.2-1.4,0.5c-0.4,0.3-0.6,0.8-0.8,1.4v5.8h-0.9v-8.5h0.8l0.1,1.4v0.1
				c0.2-0.5,0.6-0.9,1-1.2c0.4-0.3,0.9-0.4,1.5-0.4c0.1,0,0.2,0,0.3,0c0.1,0,0.2,0,0.3,0.1L722.3,151.2z"/>
			<path class="st2" d="M724.9,158.9h-0.9v-12.2h0.9V158.9z"/>
			<path class="st2" d="M729.8,156.6l0.3,1h0l2.6-7.2h1l-3.7,9.8c-0.2,0.6-0.5,1.1-0.9,1.5c-0.3,0.4-0.9,0.6-1.5,0.6
				c-0.1,0-0.2,0-0.4,0s-0.3,0-0.3-0.1l0.1-0.8c0.1,0,0.2,0,0.3,0c0.1,0,0.2,0,0.3,0c0.4,0,0.7-0.1,1-0.4c0.2-0.3,0.5-0.7,0.6-1.1
				l0.4-1.1l-3.3-8.3h1L729.8,156.6z"/>
			<path class="st2" d="M736.3,148h-0.9v-1.3h0.9V148z M736.3,158.9h-0.9v-8.5h0.9V158.9z"/>
			<path class="st2" d="M739.7,150.4l0.1,1.5c0.3-0.5,0.6-0.9,1.1-1.2s1-0.4,1.6-0.4c0.9,0,1.6,0.3,2.1,0.8c0.5,0.6,0.7,1.4,0.7,2.6
				v5.1h-0.9v-5.2c0-1-0.2-1.7-0.5-2.1c-0.4-0.4-0.9-0.6-1.5-0.6c-0.7,0-1.2,0.2-1.6,0.5s-0.7,0.8-0.9,1.4v5.9h-0.9v-8.5H739.7z"/>
			<path class="st2" d="M747.4,154.7c0-1.3,0.3-2.4,0.9-3.2c0.6-0.8,1.4-1.2,2.4-1.2c0.6,0,1.1,0.1,1.6,0.4s0.8,0.6,1.1,1.1l0.1-1.4
				h0.8v8.3c0,1.1-0.3,1.9-0.9,2.6s-1.4,0.9-2.5,0.9c-0.4,0-0.8,0-1.3-0.1c-0.5-0.1-0.9-0.2-1.2-0.4l0.2-0.8
				c0.3,0.2,0.7,0.3,1.1,0.4c0.4,0.1,0.8,0.1,1.2,0.1c0.8,0,1.4-0.2,1.9-0.7c0.4-0.5,0.6-1.1,0.6-2v-1.1c-0.3,0.4-0.6,0.8-1.1,1
				s-0.9,0.3-1.5,0.3c-1,0-1.8-0.4-2.4-1.1c-0.6-0.8-0.9-1.8-0.9-3V154.7z M748.4,154.9c0,1,0.2,1.8,0.6,2.4c0.4,0.6,1,0.9,1.9,0.9
				c0.6,0,1.1-0.1,1.5-0.4c0.4-0.3,0.7-0.7,0.9-1.2v-3.9c-0.2-0.5-0.5-0.9-0.9-1.2c-0.4-0.3-0.9-0.5-1.5-0.5c-0.8,0-1.4,0.3-1.9,1
				c-0.4,0.7-0.6,1.6-0.6,2.6V154.9z"/>
		</g>
	</g>
	<g>
		<path class="st12" d="M279.7,269.9h-61.5"/>
		<path class="st13" d="M78.5,255.5h139.7v29H78.5V255.5z"/>
		<g class="st1">
			<path class="st2" d="M99.9,270.6l3.5-6.3h1.1l-4.1,7.2v4.2h-0.9v-4.2l-4.1-7.2h1.1L99.9,270.6z"/>
			<path class="st2" d="M104.9,271.3c0-1.2,0.3-2.3,1-3.1c0.7-0.8,1.6-1.2,2.7-1.2c1.1,0,2,0.4,2.7,1.2c0.7,0.8,1,1.8,1,3.1v0.3
				c0,1.2-0.3,2.3-1,3.1s-1.6,1.2-2.7,1.2c-1.1,0-2-0.4-2.7-1.2c-0.7-0.8-1-1.8-1-3.1V271.3z M105.9,271.5c0,1,0.2,1.8,0.7,2.5
				c0.5,0.7,1.2,1,2.1,1c0.9,0,1.6-0.3,2.1-1c0.5-0.7,0.7-1.5,0.7-2.5v-0.3c0-1-0.2-1.8-0.8-2.5s-1.2-1-2.1-1s-1.6,0.3-2.1,1
				c-0.5,0.7-0.7,1.5-0.7,2.5V271.5z"/>
			<path class="st2" d="M119.9,274.3c-0.3,0.5-0.6,0.9-1.1,1.1c-0.5,0.3-1,0.4-1.6,0.4c-0.9,0-1.6-0.3-2.1-0.9
				c-0.5-0.6-0.8-1.5-0.8-2.8v-4.9h0.9v4.9c0,1,0.2,1.8,0.5,2.2c0.4,0.4,0.9,0.7,1.5,0.7c0.7,0,1.3-0.2,1.7-0.5s0.7-0.8,0.9-1.3v-6
				h0.9v8.5H120L119.9,274.3z"/>
			<path class="st2" d="M127.2,268l-0.7,0c-0.6,0-1.1,0.2-1.4,0.5c-0.4,0.3-0.6,0.8-0.8,1.4v5.8h-0.9v-8.5h0.8l0.1,1.4v0.1
				c0.2-0.5,0.6-0.9,1-1.2c0.4-0.3,0.9-0.4,1.5-0.4c0.1,0,0.2,0,0.3,0c0.1,0,0.2,0,0.3,0.1L127.2,268z"/>
			<path class="st2" d="M138.2,274.3c-0.3,0.5-0.6,0.9-1.1,1.1c-0.5,0.3-1,0.4-1.6,0.4c-0.9,0-1.6-0.3-2.1-0.9
				c-0.5-0.6-0.8-1.5-0.8-2.8v-4.9h0.9v4.9c0,1,0.2,1.8,0.5,2.2c0.4,0.4,0.9,0.7,1.5,0.7c0.7,0,1.3-0.2,1.7-0.5s0.7-0.8,0.9-1.3v-6
				h0.9v8.5h-0.8L138.2,274.3z"/>
			<path class="st2" d="M142.4,267.2l0.1,1.5c0.3-0.5,0.6-0.9,1.1-1.2s1-0.4,1.6-0.4c0.9,0,1.6,0.3,2.1,0.8c0.5,0.6,0.7,1.4,0.7,2.6
				v5.1h-0.9v-5.2c0-1-0.2-1.7-0.5-2.1c-0.4-0.4-0.9-0.6-1.5-0.6c-0.7,0-1.2,0.2-1.6,0.5s-0.7,0.8-0.9,1.4v5.9h-0.9v-8.5H142.4z"/>
			<path class="st2" d="M150.1,271.5c0-1.3,0.3-2.4,0.9-3.2s1.4-1.2,2.4-1.2c0.6,0,1.1,0.1,1.5,0.4c0.4,0.2,0.8,0.6,1.1,1.1v-5h0.9
				v12.2H156l-0.1-1.2c-0.3,0.4-0.6,0.8-1.1,1c-0.4,0.2-1,0.4-1.6,0.4c-1,0-1.8-0.4-2.4-1.1s-0.9-1.8-0.9-3V271.5z M151,271.7
				c0,1,0.2,1.8,0.6,2.4c0.4,0.6,1,0.9,1.8,0.9c0.6,0,1.1-0.1,1.5-0.4c0.4-0.3,0.7-0.6,0.9-1.1v-4c-0.2-0.5-0.5-0.9-0.9-1.2
				c-0.4-0.3-0.9-0.5-1.5-0.5c-0.8,0-1.4,0.3-1.9,1c-0.4,0.7-0.6,1.6-0.6,2.6V271.7z"/>
			<path class="st2" d="M162.5,275.8c-1.1,0-1.9-0.4-2.6-1.2c-0.7-0.8-1.1-1.8-1.1-3v-0.4c0-1.2,0.3-2.2,1-3s1.5-1.2,2.5-1.2
				c1,0,1.9,0.3,2.4,1s0.9,1.5,0.9,2.6v0.8h-6v0.2c0,1,0.3,1.7,0.8,2.4c0.5,0.6,1.2,1,2,1c0.6,0,1.1-0.1,1.5-0.2
				c0.4-0.2,0.8-0.4,1.1-0.7l0.4,0.6c-0.3,0.3-0.7,0.6-1.2,0.8C163.8,275.7,163.2,275.8,162.5,275.8z M162.4,267.8
				c-0.7,0-1.3,0.3-1.7,0.8s-0.7,1.2-0.8,2l0,0h5v-0.2c0-0.7-0.2-1.3-0.6-1.8C163.7,268.1,163.1,267.8,162.4,267.8z"/>
			<path class="st2" d="M171.5,268l-0.7,0c-0.6,0-1.1,0.2-1.4,0.5c-0.4,0.3-0.6,0.8-0.8,1.4v5.8h-0.9v-8.5h0.8l0.1,1.4v0.1
				c0.2-0.5,0.6-0.9,1-1.2c0.4-0.3,0.9-0.4,1.5-0.4c0.1,0,0.2,0,0.3,0c0.1,0,0.2,0,0.3,0.1L171.5,268z"/>
			<path class="st2" d="M174.1,275.6h-0.9v-12.2h0.9V275.6z"/>
			<path class="st2" d="M179.1,273.4l0.3,1h0l2.6-7.2h1l-3.7,9.8c-0.2,0.6-0.5,1.1-0.9,1.5c-0.3,0.4-0.9,0.6-1.5,0.6
				c-0.1,0-0.2,0-0.4,0s-0.3,0-0.3-0.1l0.1-0.8c0.1,0,0.2,0,0.3,0c0.1,0,0.2,0,0.3,0c0.4,0,0.7-0.1,1-0.4c0.2-0.3,0.5-0.7,0.6-1.1
				l0.4-1.1l-3.3-8.3h1L179.1,273.4z"/>
			<path class="st2" d="M185.5,264.8h-0.9v-1.3h0.9V264.8z M185.5,275.6h-0.9v-8.5h0.9V275.6z"/>
			<path class="st2" d="M188.9,267.2l0.1,1.5c0.3-0.5,0.6-0.9,1.1-1.2s1-0.4,1.6-0.4c0.9,0,1.6,0.3,2.1,0.8c0.5,0.6,0.7,1.4,0.7,2.6
				v5.1h-0.9v-5.2c0-1-0.2-1.7-0.5-2.1c-0.4-0.4-0.9-0.6-1.5-0.6c-0.7,0-1.2,0.2-1.6,0.5s-0.7,0.8-0.9,1.4v5.9h-0.9v-8.5H188.9z"/>
			<path class="st2" d="M196.7,271.5c0-1.3,0.3-2.4,0.9-3.2c0.6-0.8,1.4-1.2,2.4-1.2c0.6,0,1.1,0.1,1.6,0.4s0.8,0.6,1.1,1.1l0.1-1.4
				h0.8v8.3c0,1.1-0.3,1.9-0.9,2.6s-1.4,0.9-2.5,0.9c-0.4,0-0.8,0-1.3-0.1c-0.5-0.1-0.9-0.2-1.2-0.4l0.2-0.8
				c0.3,0.2,0.7,0.3,1.1,0.4c0.4,0.1,0.8,0.1,1.2,0.1c0.8,0,1.4-0.2,1.9-0.7c0.4-0.5,0.6-1.1,0.6-2v-1.1c-0.3,0.4-0.6,0.8-1.1,1
				s-0.9,0.3-1.5,0.3c-1,0-1.8-0.4-2.4-1.1c-0.6-0.8-0.9-1.8-0.9-3V271.5z M197.6,271.7c0,1,0.2,1.8,0.6,2.4c0.4,0.6,1,0.9,1.9,0.9
				c0.6,0,1.1-0.1,1.5-0.4c0.4-0.3,0.7-0.7,0.9-1.2v-3.9c-0.2-0.5-0.5-0.9-0.9-1.2c-0.4-0.3-0.9-0.5-1.5-0.5c-0.8,0-1.4,0.3-1.9,1
				c-0.4,0.7-0.6,1.6-0.6,2.6V271.7z"/>
		</g>
	</g>
	<g>
		<path class="st12" d="M259.5,344.4H198"/>
		<path class="st13" d="M84.2,330.1h113.9v29H84.2V330.1z"/>
		<g class="st1">
			<path class="st2" d="M104.7,345.1l3.5-6.3h1.1l-4.1,7.2v4.2h-0.9V346l-4.1-7.2h1.1L104.7,345.1z"/>
			<path class="st2" d="M109.7,345.8c0-1.2,0.3-2.3,1-3.1c0.7-0.8,1.6-1.2,2.7-1.2c1.1,0,2,0.4,2.7,1.2c0.7,0.8,1,1.8,1,3.1v0.3
				c0,1.2-0.3,2.3-1,3.1s-1.6,1.2-2.7,1.2c-1.1,0-2-0.4-2.7-1.2c-0.7-0.8-1-1.8-1-3.1V345.8z M110.7,346.1c0,1,0.2,1.8,0.7,2.5
				c0.5,0.7,1.2,1,2.1,1c0.9,0,1.6-0.3,2.1-1c0.5-0.7,0.7-1.5,0.7-2.5v-0.3c0-1-0.2-1.8-0.8-2.5s-1.2-1-2.1-1s-1.6,0.3-2.1,1
				c-0.5,0.7-0.7,1.5-0.7,2.5V346.1z"/>
			<path class="st2" d="M124.7,348.8c-0.3,0.5-0.6,0.9-1.1,1.1c-0.5,0.3-1,0.4-1.6,0.4c-0.9,0-1.6-0.3-2.1-0.9
				c-0.5-0.6-0.8-1.5-0.8-2.8v-4.9h0.9v4.9c0,1,0.2,1.8,0.5,2.2c0.4,0.4,0.9,0.7,1.5,0.7c0.7,0,1.3-0.2,1.7-0.5s0.7-0.8,0.9-1.3v-6
				h0.9v8.5h-0.8L124.7,348.8z"/>
			<path class="st2" d="M132,342.5l-0.7,0c-0.6,0-1.1,0.2-1.4,0.5c-0.4,0.3-0.6,0.8-0.8,1.4v5.8h-0.9v-8.5h0.8l0.1,1.4v0.1
				c0.2-0.5,0.6-0.9,1-1.2c0.4-0.3,0.9-0.4,1.5-0.4c0.1,0,0.2,0,0.3,0c0.1,0,0.2,0,0.3,0.1L132,342.5z"/>
			<path class="st2" d="M144.2,346.2c0,1.3-0.3,2.3-0.9,3c-0.6,0.8-1.4,1.1-2.4,1.1c-0.6,0-1.1-0.1-1.6-0.3s-0.8-0.5-1.1-1v4.4h-0.9
				v-11.7h0.8l0.1,1.3c0.3-0.5,0.6-0.8,1.1-1.1s1-0.4,1.6-0.4c1,0,1.8,0.4,2.4,1.2c0.6,0.8,0.9,1.9,0.9,3.2V346.2z M143.3,346
				c0-1.1-0.2-2-0.6-2.6c-0.4-0.7-1.1-1-1.9-1c-0.6,0-1.1,0.2-1.5,0.4c-0.4,0.3-0.7,0.7-0.9,1.2v4.1c0.2,0.5,0.5,0.8,0.9,1.1
				c0.4,0.3,0.9,0.4,1.5,0.4c0.8,0,1.4-0.3,1.9-0.9c0.4-0.6,0.6-1.4,0.6-2.4V346z"/>
			<path class="st2" d="M151.7,350.2c-0.1-0.3-0.1-0.5-0.1-0.7c0-0.2,0-0.4,0-0.6c-0.3,0.4-0.7,0.8-1.2,1.1
				c-0.5,0.3-1.1,0.4-1.8,0.4c-0.8,0-1.5-0.2-1.9-0.7c-0.5-0.4-0.7-1-0.7-1.8c0-0.8,0.3-1.4,1-1.9c0.7-0.5,1.6-0.7,2.7-0.7h1.9v-1
				c0-0.6-0.2-1.1-0.6-1.4c-0.4-0.3-0.9-0.5-1.6-0.5c-0.7,0-1.2,0.2-1.6,0.5s-0.6,0.7-0.6,1.2l-0.9,0l0,0c0-0.6,0.3-1.2,0.9-1.7
				c0.6-0.5,1.4-0.7,2.3-0.7c0.9,0,1.7,0.2,2.2,0.7c0.6,0.5,0.9,1.2,0.9,2v4.2c0,0.3,0,0.6,0.1,0.9c0,0.3,0.1,0.6,0.2,0.8H151.7z
				 M148.6,349.5c0.7,0,1.3-0.2,1.8-0.5s0.9-0.7,1.1-1.2v-1.8h-1.9c-0.8,0-1.5,0.2-2,0.5s-0.8,0.8-0.8,1.3c0,0.5,0.2,0.8,0.5,1.1
				C147.6,349.4,148,349.5,148.6,349.5z"/>
			<path class="st2" d="M157.2,347.9l0.3,1h0l2.6-7.2h1l-3.7,9.8c-0.2,0.6-0.5,1.1-0.9,1.5c-0.3,0.4-0.9,0.6-1.5,0.6
				c-0.1,0-0.2,0-0.4,0s-0.3,0-0.3-0.1l0.1-0.8c0.1,0,0.2,0,0.3,0c0.1,0,0.2,0,0.3,0c0.4,0,0.7-0.1,1-0.4c0.2-0.3,0.5-0.7,0.6-1.1
				l0.4-1.1l-3.3-8.3h1L157.2,347.9z"/>
			<path class="st2" d="M162,345.8c0-1.2,0.3-2.3,1-3.1c0.7-0.8,1.6-1.2,2.7-1.2c1.1,0,2,0.4,2.7,1.2c0.7,0.8,1,1.8,1,3.1v0.3
				c0,1.2-0.3,2.3-1,3.1s-1.6,1.2-2.7,1.2c-1.1,0-2-0.4-2.7-1.2c-0.7-0.8-1-1.8-1-3.1V345.8z M162.9,346.1c0,1,0.2,1.8,0.7,2.5
				c0.5,0.7,1.2,1,2.1,1c0.9,0,1.6-0.3,2.1-1c0.5-0.7,0.7-1.5,0.7-2.5v-0.3c0-1-0.2-1.8-0.8-2.5s-1.2-1-2.1-1s-1.6,0.3-2.1,1
				c-0.5,0.7-0.7,1.5-0.7,2.5V346.1z"/>
			<path class="st2" d="M177,348.8c-0.3,0.5-0.6,0.9-1.1,1.1c-0.5,0.3-1,0.4-1.6,0.4c-0.9,0-1.6-0.3-2.1-0.9
				c-0.5-0.6-0.8-1.5-0.8-2.8v-4.9h0.9v4.9c0,1,0.2,1.8,0.5,2.2c0.4,0.4,0.9,0.7,1.5,0.7c0.7,0,1.3-0.2,1.7-0.5s0.7-0.8,0.9-1.3v-6
				h0.9v8.5H177L177,348.8z"/>
			<path class="st2" d="M181.8,339.6v2.2h1.9v0.8h-1.9v5.5c0,0.6,0.1,0.9,0.3,1.2c0.2,0.2,0.5,0.3,0.8,0.3c0.2,0,0.3,0,0.4,0
				c0.1,0,0.3,0,0.5-0.1l0.1,0.7c-0.2,0.1-0.3,0.1-0.6,0.2c-0.2,0-0.4,0.1-0.7,0.1c-0.6,0-1.1-0.2-1.4-0.6c-0.3-0.4-0.5-1-0.5-1.8
				v-5.5h-1.5v-0.8h1.5v-2.2H181.8z"/>
		</g>
	</g>
	<g>
		<line class="st12" x1="640.4" y1="190.9" x2="739.5" y2="190.9"/>
		<path class="st13" d="M739.5,176.5h122v29h-122V176.5z"/>
		<g class="st1">
			<path class="st2" d="M758,191.6l3.5-6.3h1.1l-4.1,7.2v4.2h-0.9v-4.2l-4.1-7.2h1.1L758,191.6z"/>
			<path class="st2" d="M763.1,192.3c0-1.2,0.3-2.3,1-3.1c0.7-0.8,1.6-1.2,2.7-1.2c1.1,0,2,0.4,2.7,1.2c0.7,0.8,1,1.8,1,3.1v0.3
				c0,1.2-0.3,2.3-1,3.1s-1.6,1.2-2.7,1.2c-1.1,0-2-0.4-2.7-1.2c-0.7-0.8-1-1.8-1-3.1V192.3z M764,192.5c0,1,0.2,1.8,0.7,2.5
				c0.5,0.7,1.2,1,2.1,1c0.9,0,1.6-0.3,2.1-1c0.5-0.7,0.7-1.5,0.7-2.5v-0.3c0-1-0.2-1.8-0.8-2.5s-1.2-1-2.1-1s-1.6,0.3-2.1,1
				c-0.5,0.7-0.7,1.5-0.7,2.5V192.5z"/>
			<path class="st2" d="M778.1,195.3c-0.3,0.5-0.6,0.9-1.1,1.1c-0.5,0.3-1,0.4-1.6,0.4c-0.9,0-1.6-0.3-2.1-0.9
				c-0.5-0.6-0.8-1.5-0.8-2.8v-4.9h0.9v4.9c0,1,0.2,1.8,0.5,2.2c0.4,0.4,0.9,0.7,1.5,0.7c0.7,0,1.3-0.2,1.7-0.5s0.7-0.8,0.9-1.3v-6
				h0.9v8.5h-0.8L778.1,195.3z"/>
			<path class="st2" d="M785.3,189l-0.7,0c-0.6,0-1.1,0.2-1.4,0.5c-0.4,0.3-0.6,0.8-0.8,1.4v5.8h-0.9v-8.5h0.8l0.1,1.4v0.1
				c0.2-0.5,0.6-0.9,1-1.2c0.4-0.3,0.9-0.4,1.5-0.4c0.1,0,0.2,0,0.3,0c0.1,0,0.2,0,0.3,0.1L785.3,189z"/>
			<path class="st2" d="M790.4,192.5c0-1.3,0.3-2.4,0.9-3.2s1.4-1.2,2.4-1.2c0.6,0,1.1,0.1,1.5,0.4c0.4,0.2,0.8,0.6,1.1,1.1v-5h0.9
				v12.2h-0.8l-0.1-1.2c-0.3,0.4-0.6,0.8-1.1,1c-0.4,0.2-1,0.4-1.6,0.4c-1,0-1.8-0.4-2.4-1.1s-0.9-1.8-0.9-3V192.5z M791.3,192.7
				c0,1,0.2,1.8,0.6,2.4c0.4,0.6,1,0.9,1.8,0.9c0.6,0,1.1-0.1,1.5-0.4c0.4-0.3,0.7-0.6,0.9-1.1v-4c-0.2-0.5-0.5-0.9-0.9-1.2
				c-0.4-0.3-0.9-0.5-1.5-0.5c-0.8,0-1.4,0.3-1.9,1c-0.4,0.7-0.6,1.6-0.6,2.6V192.7z"/>
			<path class="st2" d="M805.2,195.3c-0.3,0.5-0.6,0.9-1.1,1.1c-0.5,0.3-1,0.4-1.6,0.4c-0.9,0-1.6-0.3-2.1-0.9
				c-0.5-0.6-0.8-1.5-0.8-2.8v-4.9h0.9v4.9c0,1,0.2,1.8,0.5,2.2c0.4,0.4,0.9,0.7,1.5,0.7c0.7,0,1.3-0.2,1.7-0.5s0.7-0.8,0.9-1.3v-6
				h0.9v8.5h-0.8L805.2,195.3z"/>
			<path class="st2" d="M812.5,189l-0.7,0c-0.6,0-1.1,0.2-1.4,0.5c-0.4,0.3-0.6,0.8-0.8,1.4v5.8h-0.9v-8.5h0.8l0.1,1.4v0.1
				c0.2-0.5,0.6-0.9,1-1.2c0.4-0.3,0.9-0.4,1.5-0.4c0.1,0,0.2,0,0.3,0c0.1,0,0.2,0,0.3,0.1L812.5,189z"/>
			<path class="st2" d="M819.4,196.6c-0.1-0.3-0.1-0.5-0.1-0.7c0-0.2,0-0.4,0-0.6c-0.3,0.4-0.7,0.8-1.2,1.1
				c-0.5,0.3-1.1,0.4-1.8,0.4c-0.8,0-1.5-0.2-1.9-0.7c-0.5-0.4-0.7-1-0.7-1.8c0-0.8,0.3-1.4,1-1.9c0.7-0.5,1.6-0.7,2.7-0.7h1.9v-1
				c0-0.6-0.2-1.1-0.6-1.4c-0.4-0.3-0.9-0.5-1.6-0.5c-0.7,0-1.2,0.2-1.6,0.5s-0.6,0.7-0.6,1.2l-0.9,0l0,0c0-0.6,0.3-1.2,0.9-1.7
				c0.6-0.5,1.4-0.7,2.3-0.7c0.9,0,1.7,0.2,2.2,0.7c0.6,0.5,0.9,1.2,0.9,2v4.2c0,0.3,0,0.6,0.1,0.9c0,0.3,0.1,0.6,0.2,0.8H819.4z
				 M816.3,196c0.7,0,1.3-0.2,1.8-0.5s0.9-0.7,1.1-1.2v-1.8h-1.9c-0.8,0-1.5,0.2-2,0.5s-0.8,0.8-0.8,1.3c0,0.5,0.2,0.8,0.5,1.1
				C815.3,195.8,815.8,196,816.3,196z"/>
			<path class="st2" d="M824.1,186v2.2h1.9v0.8h-1.9v5.5c0,0.6,0.1,0.9,0.3,1.2c0.2,0.2,0.5,0.3,0.8,0.3c0.2,0,0.3,0,0.4,0
				c0.1,0,0.3,0,0.5-0.1l0.1,0.7c-0.2,0.1-0.3,0.1-0.6,0.2c-0.2,0-0.4,0.1-0.7,0.1c-0.6,0-1.1-0.2-1.4-0.6c-0.3-0.4-0.5-1-0.5-1.8
				V189h-1.5v-0.8h1.5V186H824.1z"/>
			<path class="st2" d="M829,185.8h-0.9v-1.3h0.9V185.8z M829,196.6h-0.9v-8.5h0.9V196.6z"/>
			<path class="st2" d="M831,192.3c0-1.2,0.3-2.3,1-3.1c0.7-0.8,1.6-1.2,2.7-1.2c1.1,0,2,0.4,2.7,1.2c0.7,0.8,1,1.8,1,3.1v0.3
				c0,1.2-0.3,2.3-1,3.1s-1.6,1.2-2.7,1.2c-1.1,0-2-0.4-2.7-1.2c-0.7-0.8-1-1.8-1-3.1V192.3z M832,192.5c0,1,0.2,1.8,0.7,2.5
				c0.5,0.7,1.2,1,2.1,1c0.9,0,1.6-0.3,2.1-1c0.5-0.7,0.7-1.5,0.7-2.5v-0.3c0-1-0.2-1.8-0.8-2.5s-1.2-1-2.1-1s-1.6,0.3-2.1,1
				c-0.5,0.7-0.7,1.5-0.7,2.5V192.5z"/>
			<path class="st2" d="M841.3,188.2l0.1,1.5c0.3-0.5,0.6-0.9,1.1-1.2s1-0.4,1.6-0.4c0.9,0,1.6,0.3,2.1,0.8c0.5,0.6,0.7,1.4,0.7,2.6
				v5.1H846v-5.2c0-1-0.2-1.7-0.5-2.1c-0.4-0.4-0.9-0.6-1.5-0.6c-0.7,0-1.2,0.2-1.6,0.5s-0.7,0.8-0.9,1.4v5.9h-0.9v-8.5H841.3z"/>
		</g>
	</g>
</g>
</svg>
