<svg id="Layer_1" data-name="Layer 1" xmlns="http://www.w3.org/2000/svg" viewBox="0 0 400 230"><defs><style>.cls-1,.cls-10,.cls-4,.cls-9{fill:#fff;}.cls-1,.cls-10,.cls-12,.cls-5,.cls-6,.cls-9{stroke:#dedede;}.cls-1,.cls-10,.cls-11,.cls-12,.cls-13,.cls-17,.cls-18,.cls-19,.cls-5,.cls-6,.cls-9{stroke-miterlimit:10;}.cls-1,.cls-12{stroke-width:0.51px;}.cls-2{fill:#f2f2f2;}.cls-3{fill:#2a3052;}.cls-11,.cls-12,.cls-13,.cls-17,.cls-18,.cls-5,.cls-6{fill:none;}.cls-5{stroke-width:0.56px;}.cls-6{stroke-width:0.38px;}.cls-7{fill:#e98024;}.cls-8{fill:#231f20;}.cls-19,.cls-9{stroke-width:0.51px;}.cls-10{stroke-width:0.42px;}.cls-11,.cls-13{stroke:#000;}.cls-11{stroke-dasharray:1 1;}.cls-14{fill:#0000f0;}.cls-15{fill:#f00000;}.cls-16{fill:#00f000;}.cls-17,.cls-18{stroke:#e98024;}.cls-18{stroke-width:1.02px;}.cls-19{fill:#fefdec;stroke:#cac8ba;}</style></defs><title>trade_guide</title><rect class="cls-1" x="95.65" y="72.74" width="241.74" height="146.48"/><path class="cls-2" d="M98.07,59.42h28.64a2,2,0,0,1,2,2V72.74a0,0,0,0,1,0,0H96a0,0,0,0,1,0,0V61.47A2,2,0,0,1,98.07,59.42Z"/><path d="M102.94,63.25v3.46A1.55,1.55,0,0,1,102.4,68a2.17,2.17,0,0,1-1.41.44A2,2,0,0,1,99.62,68a1.57,1.57,0,0,1-.52-1.27V63.25h0.69V66.7a1.12,1.12,0,0,0,.33.88,1.24,1.24,0,0,0,.87.3,1.36,1.36,0,0,0,.92-0.3,1.09,1.09,0,0,0,.35-0.88V63.25h0.69Z"/><path d="M107.17,66.6a2.09,2.09,0,0,1-.39,1.32,1.3,1.3,0,0,1-1.08.5,1.51,1.51,0,0,1-.61-0.12,1.17,1.17,0,0,1-.45-0.35v1.85h-0.69V64.56h0.53l0.11,0.49a1.26,1.26,0,0,1,.46-0.42,1.38,1.38,0,0,1,.64-0.14,1.26,1.26,0,0,1,1.09.56,2.53,2.53,0,0,1,.39,1.48V66.6Zm-0.69-.08a2,2,0,0,0-.25-1.06,0.82,0.82,0,0,0-.75-0.41,0.93,0.93,0,0,0-.51.13,1,1,0,0,0-.34.37v1.83a1,1,0,0,0,.34.37,1,1,0,0,0,.51.13,0.85,0.85,0,0,0,.74-0.36,1.57,1.57,0,0,0,.25-0.92V66.52Z"/><path d="M108.16,68.79h-0.59l2.13-5.54h0.58Z"/><path d="M111.12,68.35v-5.1h1.56a2.09,2.09,0,0,1,2.21,2.2v0.7a2.09,2.09,0,0,1-2.21,2.2h-1.56Zm0.69-4.55v4h0.88a1.41,1.41,0,0,0,1.11-.47,1.74,1.74,0,0,0,.41-1.19v-0.7a1.73,1.73,0,0,0-.41-1.19,1.41,1.41,0,0,0-1.11-.46h-0.88Z"/><path d="M115.55,66.42A2.09,2.09,0,0,1,116,65a1.53,1.53,0,0,1,1.24-.54,1.54,1.54,0,0,1,1.24.54,2.08,2.08,0,0,1,.46,1.39V66.5a2.07,2.07,0,0,1-.46,1.39,1.69,1.69,0,0,1-2.48,0,2.07,2.07,0,0,1-.46-1.38V66.42Zm0.69,0.08a1.79,1.79,0,0,0,.25,1,0.92,0.92,0,0,0,1.5,0,1.78,1.78,0,0,0,.26-1V66.42a1.78,1.78,0,0,0-.26-1,0.84,0.84,0,0,0-.75-0.4,0.83,0.83,0,0,0-.75.4,1.8,1.8,0,0,0-.25,1v0.08Z"/><path d="M120.76,67l0.08,0.46h0L121,67l0.76-2.41h0.55L123,67l0.11,0.51h0l0.1-.51,0.6-2.41h0.69l-1.1,3.79h-0.56L122.15,66,122,65.4h0l-0.15.64-0.72,2.31h-0.56l-1.1-3.79h0.69Z"/><path d="M125.83,64.56l0,0.56a1.38,1.38,0,0,1,.47-0.47,1.27,1.27,0,0,1,.65-0.17,1.24,1.24,0,0,1,.95.36,1.58,1.58,0,0,1,.34,1.11v2.39H127.6V66a1,1,0,0,0-.2-0.71,0.79,0.79,0,0,0-.6-0.21,1,1,0,0,0-.53.14,1,1,0,0,0-.37.39v2.76h-0.69V64.56h0.62Z"/><path class="cls-2" d="M133.88,59.42h53.56a2,2,0,0,1,2,2V72.74a0,0,0,0,1,0,0H131.83a0,0,0,0,1,0,0V61.47A2,2,0,0,1,133.88,59.42Z"/><path d="M138.48,63.79h-1.64v4.55h-0.69V63.79h-1.63V63.25h4v0.54Z"/><path d="M138.66,66.42a2.09,2.09,0,0,1,.46-1.38,1.53,1.53,0,0,1,1.24-.54,1.54,1.54,0,0,1,1.24.54,2.08,2.08,0,0,1,.46,1.39V66.5a2.07,2.07,0,0,1-.46,1.39,1.69,1.69,0,0,1-2.48,0,2.07,2.07,0,0,1-.46-1.38V66.42Zm0.69,0.08a1.79,1.79,0,0,0,.25,1,0.92,0.92,0,0,0,1.5,0,1.78,1.78,0,0,0,.26-1V66.42a1.78,1.78,0,0,0-.26-1,0.84,0.84,0,0,0-.75-0.4,0.83,0.83,0,0,0-.75.4,1.8,1.8,0,0,0-.25,1v0.08Z"/><path d="M145.3,67.79a1.29,1.29,0,0,1-.46.47,1.26,1.26,0,0,1-.65.16,1.21,1.21,0,0,1-1-.4,1.83,1.83,0,0,1-.35-1.23V64.56h0.69V66.8a1.41,1.41,0,0,0,.18.83,0.66,0.66,0,0,0,.56.23,1.14,1.14,0,0,0,.61-0.15,0.94,0.94,0,0,0,.36-0.42V64.56H146v3.79h-0.62Z"/><path d="M148.51,67.88a0.93,0.93,0,0,0,.6-0.21,0.65,0.65,0,0,0,.26-0.52H150v0a1.07,1.07,0,0,1-.44.87,1.59,1.59,0,0,1-1.06.38,1.53,1.53,0,0,1-1.26-.54,2.08,2.08,0,0,1-.44-1.35V66.38a2.07,2.07,0,0,1,.44-1.35,1.72,1.72,0,0,1,2.35-.15,1.22,1.22,0,0,1,.41,1v0h-0.62a0.8,0.8,0,0,0-.25-0.59,0.84,0.84,0,0,0-.62-0.24,0.83,0.83,0,0,0-.78.39,1.84,1.84,0,0,0-.23,1v0.15a1.86,1.86,0,0,0,.23,1A0.83,0.83,0,0,0,148.51,67.88Z"/><path d="M151.47,65.07a1.4,1.4,0,0,1,.48-0.43,1.32,1.32,0,0,1,.63-0.15,1.22,1.22,0,0,1,.94.36,1.6,1.6,0,0,1,.34,1.12v2.37h-0.69V66a1,1,0,0,0-.2-0.69,0.76,0.76,0,0,0-.6-0.22,1,1,0,0,0-.52.13,1.12,1.12,0,0,0-.38.37v2.8h-0.69V62.89h0.69v2.18Z"/><path d="M155,68.79h-0.59l2.13-5.54h0.58Z"/><path d="M161.81,68.35h-0.69l-2.45-3.94h0v3.94H158v-5.1h0.69l2.45,3.94h0V63.25h0.69v5.1Z"/><path d="M162.78,66.42a2.09,2.09,0,0,1,.46-1.38,1.53,1.53,0,0,1,1.24-.54,1.54,1.54,0,0,1,1.24.54,2.08,2.08,0,0,1,.46,1.39V66.5a2.07,2.07,0,0,1-.46,1.39,1.69,1.69,0,0,1-2.48,0,2.07,2.07,0,0,1-.46-1.38V66.42Zm0.69,0.08a1.79,1.79,0,0,0,.25,1,0.92,0.92,0,0,0,1.5,0,1.78,1.78,0,0,0,.26-1V66.42a1.78,1.78,0,0,0-.26-1,0.84,0.84,0,0,0-.75-0.4,0.83,0.83,0,0,0-.75.4,1.8,1.8,0,0,0-.25,1v0.08Z"/><path d="M172.38,63.79h-1.64v4.55h-0.69V63.79h-1.63V63.25h4v0.54Z"/><path d="M172.56,66.42A2.09,2.09,0,0,1,173,65a1.53,1.53,0,0,1,1.24-.54,1.54,1.54,0,0,1,1.24.54,2.08,2.08,0,0,1,.46,1.39V66.5a2.07,2.07,0,0,1-.46,1.39,1.69,1.69,0,0,1-2.48,0,2.07,2.07,0,0,1-.46-1.38V66.42Zm0.69,0.08a1.79,1.79,0,0,0,.25,1,0.92,0.92,0,0,0,1.5,0,1.78,1.78,0,0,0,.26-1V66.42a1.78,1.78,0,0,0-.26-1,0.84,0.84,0,0,0-.75-0.4,0.83,0.83,0,0,0-.75.4,1.8,1.8,0,0,0-.25,1v0.08Z"/><path d="M179.2,67.79a1.29,1.29,0,0,1-.46.47,1.26,1.26,0,0,1-.65.16,1.21,1.21,0,0,1-1-.4,1.83,1.83,0,0,1-.35-1.23V64.56h0.69V66.8a1.41,1.41,0,0,0,.18.83,0.66,0.66,0,0,0,.56.23,1.14,1.14,0,0,0,.61-0.15,0.94,0.94,0,0,0,.36-0.42V64.56h0.69v3.79h-0.62Z"/><path d="M182.42,67.88a0.93,0.93,0,0,0,.6-0.21,0.65,0.65,0,0,0,.26-0.52h0.62v0a1.07,1.07,0,0,1-.44.87,1.59,1.59,0,0,1-1.06.38,1.53,1.53,0,0,1-1.26-.54,2.08,2.08,0,0,1-.44-1.35V66.38a2.07,2.07,0,0,1,.44-1.35,1.72,1.72,0,0,1,2.35-.15,1.22,1.22,0,0,1,.41,1v0h-0.62a0.8,0.8,0,0,0-.25-0.59,0.84,0.84,0,0,0-.62-0.24,0.83,0.83,0,0,0-.78.39,1.84,1.84,0,0,0-.23,1v0.15a1.86,1.86,0,0,0,.23,1A0.83,0.83,0,0,0,182.42,67.88Z"/><path d="M185.37,65.07a1.4,1.4,0,0,1,.48-0.43,1.32,1.32,0,0,1,.63-0.15,1.22,1.22,0,0,1,.94.36,1.6,1.6,0,0,1,.34,1.12v2.37h-0.69V66a1,1,0,0,0-.2-0.69,0.76,0.76,0,0,0-.6-0.22,1,1,0,0,0-.52.13,1.12,1.12,0,0,0-.38.37v2.8h-0.69V62.89h0.69v2.18Z"/><path class="cls-3" d="M194.1,59.42h20.4a2,2,0,0,1,2,2V72.74a0,0,0,0,1,0,0h-24.5a0,0,0,0,1,0,0V61.47A2,2,0,0,1,194.1,59.42Z"/><path class="cls-4" d="M196,68.35h-0.69v-5.1H196v5.1Z"/><path class="cls-4" d="M197.76,64.56l0,0.56a1.38,1.38,0,0,1,.47-0.47,1.27,1.27,0,0,1,.65-0.17,1.24,1.24,0,0,1,.95.36,1.58,1.58,0,0,1,.34,1.11v2.39h-0.69V66a1,1,0,0,0-.2-0.71,0.79,0.79,0,0,0-.6-0.21,1,1,0,0,0-.53.14,1,1,0,0,0-.37.39v2.76h-0.69V64.56h0.62Z"/><path class="cls-4" d="M201.36,68.79h-0.59l2.13-5.54h0.58Z"/><path class="cls-4" d="M208.18,66.25a2.18,2.18,0,0,1-.58,1.55,2,2,0,0,1-1.5.62,1.87,1.87,0,0,1-1.45-.62,2.22,2.22,0,0,1-.56-1.55V65.35a2.23,2.23,0,0,1,.56-1.55,1.86,1.86,0,0,1,1.45-.62,2,2,0,0,1,1.5.62,2.18,2.18,0,0,1,.58,1.55v0.91Zm-0.69-.91a1.72,1.72,0,0,0-.38-1.15,1.26,1.26,0,0,0-1-.45,1.17,1.17,0,0,0-1,.45,1.78,1.78,0,0,0-.36,1.15v0.91a1.79,1.79,0,0,0,.36,1.16,1.17,1.17,0,0,0,1,.45,1.26,1.26,0,0,0,1-.45,1.73,1.73,0,0,0,.38-1.16V65.34Z"/><path class="cls-4" d="M211.49,67.79a1.29,1.29,0,0,1-.46.47,1.26,1.26,0,0,1-.65.16,1.22,1.22,0,0,1-1-.4,1.84,1.84,0,0,1-.35-1.23V64.56h0.69V66.8a1.42,1.42,0,0,0,.18.83,0.66,0.66,0,0,0,.56.23,1.13,1.13,0,0,0,.61-0.15,0.94,0.94,0,0,0,.36-0.42V64.56h0.69v3.79h-0.62Z"/><path class="cls-4" d="M214.07,63.65v0.91h0.72v0.51h-0.72v2.3a0.51,0.51,0,0,0,.11.37,0.4,0.4,0,0,0,.29.11h0.13l0.13,0,0.09,0.47a0.61,0.61,0,0,1-.23.1,1.13,1.13,0,0,1-.3,0,0.9,0.9,0,0,1-.67-0.25,1.1,1.1,0,0,1-.25-0.8v-2.3h-0.6V64.56h0.6V63.65h0.69Z"/><rect class="cls-4" x="95.65" y="36.9" width="80.92" height="14.34" rx="2.86" ry="2.86"/><rect class="cls-5" x="95.65" y="36.9" width="80.92" height="14.34" rx="2.86" ry="2.86"/><path d="M106,44.33h-3v2.9h-0.89V40.68h4.33v0.7H103v2.26h3v0.7Z"/><path d="M107.05,44.75a2.68,2.68,0,0,1,.59-1.78,2.17,2.17,0,0,1,3.19,0,2.67,2.67,0,0,1,.59,1.78v0.1a2.67,2.67,0,0,1-.58,1.78,2.18,2.18,0,0,1-3.19,0,2.66,2.66,0,0,1-.59-1.78v-0.1Zm0.89,0.1a2.3,2.3,0,0,0,.33,1.28,1.18,1.18,0,0,0,1.93,0,2.29,2.29,0,0,0,.33-1.28v-0.1a2.29,2.29,0,0,0-.33-1.27,1.09,1.09,0,0,0-1-.51,1.07,1.07,0,0,0-1,.51,2.31,2.31,0,0,0-.33,1.27v0.1Z"/><path d="M114.81,43.14l-0.45,0a1,1,0,0,0-.59.17,1.07,1.07,0,0,0-.37.47v3.48H112.5V42.36h0.79l0.09,0.71a1.69,1.69,0,0,1,.51-0.59,1.19,1.19,0,0,1,.7-0.21l0.19,0,0.15,0Z"/><path d="M117.6,47.32a2.06,2.06,0,0,1-1.62-.68,2.55,2.55,0,0,1-.6-1.76v-0.2A2.5,2.5,0,0,1,116,43a1.91,1.91,0,0,1,1.47-.69,1.84,1.84,0,0,1,1.49.59,2.37,2.37,0,0,1,.5,1.58V45H116.3v0a1.92,1.92,0,0,0,.36,1.15,1.13,1.13,0,0,0,1,.45,2.23,2.23,0,0,0,.79-0.13,1.81,1.81,0,0,0,.59-0.35l0.35,0.58a2.06,2.06,0,0,1-.69.43A2.77,2.77,0,0,1,117.6,47.32ZM117.46,43a1,1,0,0,0-.76.37,1.77,1.77,0,0,0-.39.94v0h2.25V44.19a1.35,1.35,0,0,0-.28-0.87A1,1,0,0,0,117.46,43Z"/><path d="M122.1,44.16l1-1.8h1l-1.58,2.41,1.63,2.46h-1l-1.08-1.84L121,47.23h-1l1.63-2.46-1.58-2.41h1Z"/><polygon points="172.92 43.53 170.88 40.01 168.84 43.53 172.92 43.53"/><polygon points="172.92 44.62 170.88 48.14 168.84 44.62 172.92 44.62"/><rect class="cls-4" x="186.36" y="36.9" width="55.82" height="14.34" rx="1.93" ry="1.93"/><rect class="cls-6" x="186.36" y="36.9" width="55.82" height="14.34" rx="1.93" ry="1.93"/><path d="M195,45.54h-2.75l-0.62,1.69h-0.9l2.53-6.55H194l2.49,6.55h-0.9Zm-2.47-.74h2.21l-1.08-3h0Z"/><path d="M202.21,40.68v4.44a2,2,0,0,1-.7,1.64,2.79,2.79,0,0,1-1.82.57,2.62,2.62,0,0,1-1.75-.57,2,2,0,0,1-.67-1.64V40.68h0.89v4.44a1.45,1.45,0,0,0,.42,1.13,1.6,1.6,0,0,0,1.12.38,1.74,1.74,0,0,0,1.18-.38,1.4,1.4,0,0,0,.45-1.13V40.68h0.89Z"/><path d="M203.66,47.23V40.68h2a2.69,2.69,0,0,1,2.84,2.83v0.9a2.69,2.69,0,0,1-2.84,2.83h-2Zm0.89-5.86v5.16h1.13a1.81,1.81,0,0,0,1.43-.6,2.24,2.24,0,0,0,.52-1.53V43.5a2.23,2.23,0,0,0-.52-1.52,1.81,1.81,0,0,0-1.43-.6h-1.12Z"/><path d="M209.75,47.79H209l2.74-7.12h0.75Z"/><path d="M216.2,40.68h0.89v4.74a1.81,1.81,0,0,1-.56,1.39,2,2,0,0,1-1.44.52,2.22,2.22,0,0,1-1.5-.48,1.68,1.68,0,0,1-.54-1.4v0h0.85a1.07,1.07,0,0,0,1.18,1.21,1.05,1.05,0,0,0,.8-0.33,1.24,1.24,0,0,0,.31-0.88V40.68Z"/><path d="M219.53,44.6v2.63h-0.89V40.68h2.51a2.3,2.3,0,0,1,1.63.54,2,2,0,0,1,0,2.85,2.32,2.32,0,0,1-1.63.53h-1.62Zm0-.7h1.62a1.3,1.3,0,0,0,1-2.17,1.27,1.27,0,0,0-1-.36h-1.62V43.9Z"/><path d="M226.55,44l1.71-3.33h1L227,44.92v2.3H226.1V44.87l-2.26-4.19h1Z"/><polygon points="238.54 43.53 236.5 40.01 234.46 43.53 238.54 43.53"/><polygon points="238.54 44.62 236.5 48.14 234.46 44.62 238.54 44.62"/><path d="M256.79,42a1.46,1.46,0,0,1-.29.9,1.71,1.71,0,0,1-.78.57,2,2,0,0,1,.91.62,1.52,1.52,0,0,1,.34,1,1.68,1.68,0,0,1-.59,1.39,2.73,2.73,0,0,1-3.09,0,1.69,1.69,0,0,1-.59-1.39,1.54,1.54,0,0,1,.33-1,1.93,1.93,0,0,1,.9-0.62,1.66,1.66,0,0,1-.77-0.57,1.49,1.49,0,0,1-.28-0.9,1.69,1.69,0,0,1,.53-1.33,2.06,2.06,0,0,1,1.41-.47,2.09,2.09,0,0,1,1.41.47A1.66,1.66,0,0,1,256.79,42Zm-0.7,3a1.18,1.18,0,0,0-.36-0.88,1.24,1.24,0,0,0-.9-0.35,1.18,1.18,0,0,0-1.24,1.23,1.13,1.13,0,0,0,.34.87,1.45,1.45,0,0,0,1.81,0A1.13,1.13,0,0,0,256.09,45.07Zm-0.18-3a1.12,1.12,0,0,0-.3-0.81,1.09,1.09,0,0,0-1.53,0,1.14,1.14,0,0,0-.29.82,1.1,1.1,0,0,0,.29.8,1.13,1.13,0,0,0,1.54,0A1.09,1.09,0,0,0,255.91,42Z"/><path d="M262.12,44.36a2.94,2.94,0,0,1-.56,1.92,2.08,2.08,0,0,1-3.05,0,2.91,2.91,0,0,1-.56-1.92V42.81a2.93,2.93,0,0,1,.56-1.92,2.07,2.07,0,0,1,3.05,0,2.93,2.93,0,0,1,.56,1.92v1.55Zm-0.89-1.74a2.2,2.2,0,0,0-.31-1.28,1.14,1.14,0,0,0-1.79,0,2.2,2.2,0,0,0-.31,1.28v1.92a2.2,2.2,0,0,0,.31,1.28,1,1,0,0,0,.9.43,1,1,0,0,0,.89-0.43,2.24,2.24,0,0,0,.3-1.29V42.62Z"/><path d="M264.25,46.86h-0.89V45.94h0.89v0.92Z"/><path d="M269.17,44.66h0.9v0.7h-0.9v1.51h-0.88V45.35h-2.94v-0.5l2.89-4.55h0.94v4.35Zm-2.88,0h2V41.58h0l-0.08.23Z"/><path d="M273.36,46.86h-0.89V41.17l-1.34,0V40.55l2.23-.24v6.55Z"/><path d="M278.55,46.86h-0.89V41.17l-1.34,0V40.55l2.23-.24v6.55Z"/><path class="cls-7" d="M107,81.27h-2v1.56h2.31v0.47h-2.9V78.92h2.87v0.46H105V80.8h2v0.47Z"/><path class="cls-7" d="M108.44,80l0,0.48a1.18,1.18,0,0,1,.41-0.4,1.09,1.09,0,0,1,.56-0.14,1.06,1.06,0,0,1,.81.31,1.35,1.35,0,0,1,.29.95v2H110v-2a0.88,0.88,0,0,0-.17-0.61,0.68,0.68,0,0,0-.52-0.18,0.83,0.83,0,0,0-.45.12,0.89,0.89,0,0,0-.31.34v2.37h-0.59V80h0.53Z"/><path class="cls-7" d="M111.27,81.73a2.17,2.17,0,0,1,.33-1.26,1.08,1.08,0,0,1,.94-0.48,1.17,1.17,0,0,1,.51.1,1,1,0,0,1,.38.31V78.61H114v4.68h-0.48l-0.07-.4a1.05,1.05,0,0,1-.39.34,1.17,1.17,0,0,1-.54.12,1.11,1.11,0,0,1-.93-0.43,1.79,1.79,0,0,1-.34-1.13V81.73Zm0.59,0.06a1.38,1.38,0,0,0,.2.79,0.7,0.7,0,0,0,.62.3,0.78,0.78,0,0,0,.44-0.12,0.9,0.9,0,0,0,.29-0.34V80.9a0.91,0.91,0,0,0-.3-0.32,0.78,0.78,0,0,0-.44-0.12,0.67,0.67,0,0,0-.63.35,1.81,1.81,0,0,0-.2.91v0.06Z"/><path class="cls-7" d="M116.78,82.43a0.4,0.4,0,0,0-.15-0.32,1.4,1.4,0,0,0-.56-0.22,2.36,2.36,0,0,1-.89-0.35,0.71,0.71,0,0,1-.3-0.6,0.85,0.85,0,0,1,.34-0.67,1.53,1.53,0,0,1,1.78,0,0.86,0.86,0,0,1,.32.71v0h-0.56a0.52,0.52,0,0,0-.18-0.38,0.66,0.66,0,0,0-.47-0.17,0.68,0.68,0,0,0-.47.14,0.43,0.43,0,0,0-.15.33,0.37,0.37,0,0,0,.14.3,1.41,1.41,0,0,0,.55.2,2.36,2.36,0,0,1,.92.36,0.72,0.72,0,0,1,.3.61,0.84,0.84,0,0,1-.35.7,1.46,1.46,0,0,1-.91.27,1.43,1.43,0,0,1-1-.31,0.9,0.9,0,0,1-.34-0.74v0h0.56a0.54,0.54,0,0,0,.23.46,0.91,0.91,0,0,0,.51.14,0.84,0.84,0,0,0,.49-0.13A0.39,0.39,0,0,0,116.78,82.43Z"/><path class="cls-7" d="M120.37,83.29h-0.59V78.92h0.59v4.37Z"/><path class="cls-7" d="M121.9,80l0,0.48a1.18,1.18,0,0,1,.41-0.4,1.09,1.09,0,0,1,.56-0.14,1.06,1.06,0,0,1,.81.31,1.35,1.35,0,0,1,.29.95v2h-0.59v-2a0.88,0.88,0,0,0-.17-0.61,0.68,0.68,0,0,0-.52-0.18,0.83,0.83,0,0,0-.45.12,0.89,0.89,0,0,0-.31.34v2.37h-0.59V80h0.53Z"/><path class="cls-7" d="M125,83.67h-0.5l1.82-4.74h0.5Z"/><path class="cls-7" d="M130.84,81.5a1.86,1.86,0,0,1-.5,1.33,1.69,1.69,0,0,1-1.29.53,1.6,1.6,0,0,1-1.24-.53,1.9,1.9,0,0,1-.48-1.33V80.72a1.91,1.91,0,0,1,.48-1.33,1.6,1.6,0,0,1,1.24-.53,1.69,1.69,0,0,1,1.29.53,1.87,1.87,0,0,1,.5,1.33V81.5Zm-0.59-.78a1.47,1.47,0,0,0-.32-1,1.08,1.08,0,0,0-.87-0.38,1,1,0,0,0-.82.38,1.52,1.52,0,0,0-.31,1V81.5a1.54,1.54,0,0,0,.31,1,1,1,0,0,0,.82.38,1.08,1.08,0,0,0,.87-0.38,1.49,1.49,0,0,0,.32-1V80.71Z"/><path class="cls-7" d="M133.67,82.81a1.1,1.1,0,0,1-.39.4,1.07,1.07,0,0,1-.56.14,1,1,0,0,1-.83-0.34,1.57,1.57,0,0,1-.3-1.06V80h0.59V82a1.21,1.21,0,0,0,.15.71,0.57,0.57,0,0,0,.48.2,1,1,0,0,0,.52-0.13,0.8,0.8,0,0,0,.31-0.36V80h0.59v3.25h-0.53Z"/><path class="cls-7" d="M135.88,79.26V80h0.62v0.44h-0.62v2a0.44,0.44,0,0,0,.09.32,0.34,0.34,0,0,0,.25.09h0.11l0.11,0,0.08,0.41a0.52,0.52,0,0,1-.19.09,1,1,0,0,1-.26,0,0.76,0.76,0,0,1-.57-0.22,0.94,0.94,0,0,1-.21-0.68v-2h-0.52V80h0.52V79.26h0.59Z"/><path class="cls-8" d="M159.26,82.19a0.64,0.64,0,0,0-.23-0.5,1.89,1.89,0,0,0-.8-0.34,2.64,2.64,0,0,1-1.08-.49,1,1,0,0,1-.39-0.81,1.06,1.06,0,0,1,.42-0.85,1.66,1.66,0,0,1,1.08-.34,1.61,1.61,0,0,1,1.14.39,1.16,1.16,0,0,1,.41.91v0h-0.56a0.81,0.81,0,0,0-.25-0.62,1.24,1.24,0,0,0-1.4,0,0.65,0.65,0,0,0-.24.52,0.57,0.57,0,0,0,.26.48,2.41,2.41,0,0,0,.83.33,2.36,2.36,0,0,1,1.05.5,1.08,1.08,0,0,1,.36.83,1,1,0,0,1-.43.85,1.84,1.84,0,0,1-1.13.32,2,2,0,0,1-1.16-.36,1.07,1.07,0,0,1-.49-0.95v0h0.56a0.73,0.73,0,0,0,.31.64,1.29,1.29,0,0,0,.77.22A1.19,1.19,0,0,0,159,82.7,0.6,0.6,0,0,0,159.26,82.19Z"/><path class="cls-8" d="M161.38,79.26V80H162v0.44h-0.62v2a0.44,0.44,0,0,0,.09.32,0.34,0.34,0,0,0,.25.09h0.11l0.11,0L162,83.23a0.52,0.52,0,0,1-.19.09,1,1,0,0,1-.26,0,0.76,0.76,0,0,1-.57-0.22,0.94,0.94,0,0,1-.21-0.68v-2h-0.52V80h0.52V79.26h0.59Z"/><path class="cls-8" d="M164.72,83.29q0-.15,0-0.26a1.84,1.84,0,0,1,0-.23,1.38,1.38,0,0,1-.43.39,1.1,1.1,0,0,1-.57.16,1.06,1.06,0,0,1-.77-0.26,1,1,0,0,1-.27-0.72,0.84,0.84,0,0,1,.38-0.73,1.76,1.76,0,0,1,1-.26h0.64V81.07a0.6,0.6,0,0,0-.17-0.45,0.68,0.68,0,0,0-.49-0.17,0.71,0.71,0,0,0-.46.15,0.44,0.44,0,0,0-.18.35h-0.56v0a0.79,0.79,0,0,1,.33-0.65A1.37,1.37,0,0,1,164,80a1.34,1.34,0,0,1,.89.28,1,1,0,0,1,.34.81v1.56a3.12,3.12,0,0,0,0,.34,1.77,1.77,0,0,0,.07.32h-0.61Zm-1-.44a1.06,1.06,0,0,0,.58-0.16,0.78,0.78,0,0,0,.34-0.38V81.79H164a0.86,0.86,0,0,0-.57.18,0.54,0.54,0,0,0-.21.42,0.44,0.44,0,0,0,.14.34A0.57,0.57,0,0,0,163.74,82.86Z"/><path class="cls-8" d="M167,82.09l0.1,0.41h0L168,80h0.66l-1.37,3.75a1.68,1.68,0,0,1-.35.57,0.81,0.81,0,0,1-.62.24l-0.18,0-0.17,0,0.06-.46h0.26a0.36,0.36,0,0,0,.31-0.17,1.74,1.74,0,0,0,.2-0.37l0.14-.34L165.71,80h0.66Z"/><path class="cls-8" d="M171,82.43a0.4,0.4,0,0,0-.15-0.32,1.4,1.4,0,0,0-.56-0.22,2.36,2.36,0,0,1-.89-0.35,0.71,0.71,0,0,1-.3-0.6,0.85,0.85,0,0,1,.34-0.67,1.53,1.53,0,0,1,1.78,0,0.86,0.86,0,0,1,.32.71v0H171a0.52,0.52,0,0,0-.18-0.38,0.66,0.66,0,0,0-.47-0.17,0.68,0.68,0,0,0-.47.14,0.43,0.43,0,0,0-.15.33,0.37,0.37,0,0,0,.14.3,1.41,1.41,0,0,0,.55.2,2.36,2.36,0,0,1,.92.36,0.72,0.72,0,0,1,.3.61,0.84,0.84,0,0,1-.35.7,1.46,1.46,0,0,1-.91.27,1.43,1.43,0,0,1-1-.31A0.9,0.9,0,0,1,169,82.3v0h0.56a0.54,0.54,0,0,0,.23.46,0.91,0.91,0,0,0,.51.14,0.84,0.84,0,0,0,.49-0.13A0.39,0.39,0,0,0,171,82.43Z"/><path class="cls-8" d="M174.62,83.29H174V78.92h0.59v4.37Z"/><path class="cls-8" d="M176.15,80l0,0.48a1.18,1.18,0,0,1,.41-0.4,1.09,1.09,0,0,1,.56-0.14,1.06,1.06,0,0,1,.81.31,1.35,1.35,0,0,1,.29.95v2h-0.59v-2a0.88,0.88,0,0,0-.17-0.61,0.68,0.68,0,0,0-.52-0.18,0.83,0.83,0,0,0-.45.12,0.89,0.89,0,0,0-.31.34v2.37h-0.59V80h0.53Z"/><path class="cls-8" d="M179.24,83.67h-0.5l1.82-4.74h0.5Z"/><path class="cls-8" d="M184.95,82.71a1.4,1.4,0,0,1-.54.44,2.15,2.15,0,0,1-1,.2,1.78,1.78,0,0,1-1.29-.5,1.74,1.74,0,0,1-.51-1.3v-0.9a1.8,1.8,0,0,1,.48-1.3,1.62,1.62,0,0,1,1.23-.5,1.75,1.75,0,0,1,1.18.37,1.22,1.22,0,0,1,.44,1v0h-0.56a0.91,0.91,0,0,0-.29-0.63,1.07,1.07,0,0,0-.76-0.25,1,1,0,0,0-.81.38,1.45,1.45,0,0,0-.31,1v0.91a1.37,1.37,0,0,0,.34,1,1.12,1.12,0,0,0,.87.38,1.6,1.6,0,0,0,.61-0.1,0.85,0.85,0,0,0,.34-0.22v-1h-1V81.11h1.55v1.6Z"/><path class="cls-8" d="M185.72,81.64a1.79,1.79,0,0,1,.39-1.19,1.45,1.45,0,0,1,2.13,0,1.78,1.78,0,0,1,.39,1.19V81.7a1.78,1.78,0,0,1-.39,1.19,1.45,1.45,0,0,1-2.13,0,1.78,1.78,0,0,1-.39-1.19V81.64Zm0.59,0.06a1.54,1.54,0,0,0,.22.85,0.79,0.79,0,0,0,1.29,0A1.53,1.53,0,0,0,188,81.7V81.64a1.53,1.53,0,0,0-.22-0.85,0.72,0.72,0,0,0-.65-0.34,0.71,0.71,0,0,0-.64.34,1.54,1.54,0,0,0-.22.85V81.7Z"/><path class="cls-8" d="M190.7,83.35a1.37,1.37,0,0,1-1.08-.45,1.7,1.7,0,0,1-.4-1.17V81.6a1.67,1.67,0,0,1,.41-1.15,1.27,1.27,0,0,1,1-.46,1.23,1.23,0,0,1,1,.4,1.58,1.58,0,0,1,.34,1.06v0.37h-2.12a1.28,1.28,0,0,0,.24.77,0.76,0.76,0,0,0,.64.3,1.48,1.48,0,0,0,.53-0.09,1.2,1.2,0,0,0,.39-0.24L191.85,83a1.37,1.37,0,0,1-.46.29A1.85,1.85,0,0,1,190.7,83.35Zm-0.09-2.9a0.64,0.64,0,0,0-.51.25,1.18,1.18,0,0,0-.26.63h1.5V81.26a0.9,0.9,0,0,0-.19-0.58A0.66,0.66,0,0,0,190.61,80.45Z"/><path class="cls-8" d="M194.49,82.43a0.4,0.4,0,0,0-.15-0.32,1.4,1.4,0,0,0-.56-0.22,2.36,2.36,0,0,1-.89-0.35,0.71,0.71,0,0,1-.3-0.6,0.85,0.85,0,0,1,.34-0.67,1.53,1.53,0,0,1,1.78,0A0.86,0.86,0,0,1,195,81v0h-0.56a0.52,0.52,0,0,0-.18-0.38,0.66,0.66,0,0,0-.47-0.17,0.68,0.68,0,0,0-.47.14,0.43,0.43,0,0,0-.15.33,0.37,0.37,0,0,0,.14.3,1.41,1.41,0,0,0,.55.2,2.36,2.36,0,0,1,.92.36,0.72,0.72,0,0,1,.3.61,0.84,0.84,0,0,1-.35.7,1.46,1.46,0,0,1-.91.27,1.43,1.43,0,0,1-1-.31,0.9,0.9,0,0,1-.34-0.74v0h0.56a0.54,0.54,0,0,0,.23.46,0.91,0.91,0,0,0,.51.14,0.84,0.84,0,0,0,.49-0.13A0.39,0.39,0,0,0,194.49,82.43Z"/><path class="cls-8" d="M200.76,81.5a1.86,1.86,0,0,1-.5,1.33,1.69,1.69,0,0,1-1.29.53,1.6,1.6,0,0,1-1.24-.53,1.9,1.9,0,0,1-.48-1.33V80.72a1.91,1.91,0,0,1,.48-1.33,1.6,1.6,0,0,1,1.24-.53,1.69,1.69,0,0,1,1.29.53,1.87,1.87,0,0,1,.5,1.33V81.5Zm-0.59-.78a1.47,1.47,0,0,0-.32-1,1.08,1.08,0,0,0-.87-0.38,1,1,0,0,0-.82.38,1.52,1.52,0,0,0-.31,1V81.5a1.54,1.54,0,0,0,.31,1,1,1,0,0,0,.82.38,1.08,1.08,0,0,0,.87-0.38,1.49,1.49,0,0,0,.32-1V80.71Z"/><path class="cls-8" d="M203.59,82.81a1.1,1.1,0,0,1-.39.4,1.07,1.07,0,0,1-.56.14,1,1,0,0,1-.83-0.34,1.57,1.57,0,0,1-.3-1.06V80h0.59V82a1.21,1.21,0,0,0,.15.71,0.57,0.57,0,0,0,.48.2,1,1,0,0,0,.52-0.13,0.8,0.8,0,0,0,.31-0.36V80h0.59v3.25h-0.53Z"/><path class="cls-8" d="M205.81,79.26V80h0.62v0.44h-0.62v2a0.44,0.44,0,0,0,.09.32,0.34,0.34,0,0,0,.25.09h0.11l0.11,0,0.08,0.41a0.52,0.52,0,0,1-.19.09,1,1,0,0,1-.26,0,0.76,0.76,0,0,1-.57-0.22,1,1,0,0,1-.21-0.68v-2H204.7V80h0.52V79.26h0.59Z"/><rect class="cls-9" x="128.09" y="107.82" width="52.24" height="14.34" rx="2.56" ry="2.56"/><path d="M132.24,117.38v-5.83H134a2.39,2.39,0,0,1,2.53,2.52v0.8a2.39,2.39,0,0,1-2.53,2.51h-1.79Zm0.79-5.21v4.59h1a1.61,1.61,0,0,0,1.27-.53,2,2,0,0,0,.47-1.36v-0.8a2,2,0,0,0-.47-1.35,1.61,1.61,0,0,0-1.27-.53h-1Z"/><path d="M140.24,116.74a1.46,1.46,0,0,1-.52.54,1.43,1.43,0,0,1-.74.19,1.39,1.39,0,0,1-1.1-.45,2.1,2.1,0,0,1-.4-1.41v-2.55h0.79v2.56a1.61,1.61,0,0,0,.2,1,0.76,0.76,0,0,0,.64.26,1.3,1.3,0,0,0,.69-0.17,1.06,1.06,0,0,0,.41-0.48v-3.12H141v4.33h-0.71Z"/><path d="M144.19,113.75l-0.4,0a0.9,0.9,0,0,0-.53.15,1,1,0,0,0-.33.42v3.09h-0.79v-4.33h0.7l0.08,0.63a1.5,1.5,0,0,1,.45-0.52A1.06,1.06,0,0,1,144,113h0.17l0.13,0Z"/><path d="M147.61,117.38c0-.13,0-0.25-0.06-0.35a2.48,2.48,0,0,1,0-.3,1.85,1.85,0,0,1-.57.52,1.47,1.47,0,0,1-.76.21,1.41,1.41,0,0,1-1-.35,1.27,1.27,0,0,1-.35-1,1.12,1.12,0,0,1,.5-1,2.35,2.35,0,0,1,1.36-.35h0.86v-0.43a0.8,0.8,0,0,0-.23-0.6,0.91,0.91,0,0,0-.66-0.22,1,1,0,0,0-.62.19,0.58,0.58,0,0,0-.24.47H145v0a1,1,0,0,1,.45-0.86,1.83,1.83,0,0,1,1.21-.39,1.79,1.79,0,0,1,1.18.37,1.33,1.33,0,0,1,.45,1.08v2.08a4.15,4.15,0,0,0,0,.45,2.29,2.29,0,0,0,.09.42h-0.81Zm-1.31-.58a1.4,1.4,0,0,0,.77-0.22,1,1,0,0,0,.45-0.5v-0.7h-0.88a1.15,1.15,0,0,0-.76.24,0.71,0.71,0,0,0-.29.56,0.59,0.59,0,0,0,.18.46A0.76,0.76,0,0,0,146.31,116.8Z"/><path d="M150.5,112v1h0.82v0.58H150.5v2.63a0.59,0.59,0,0,0,.13.43,0.46,0.46,0,0,0,.33.12l0.15,0,0.15,0,0.1,0.54a0.71,0.71,0,0,1-.26.12,1.32,1.32,0,0,1-.34,0,1,1,0,0,1-.76-0.29,1.26,1.26,0,0,1-.28-0.91v-2.63H149v-0.58h0.69v-1h0.79Z"/><path d="M153.14,111.94h-0.79v-0.8h0.79v0.8Zm0,5.44h-0.79v-4.33h0.79v4.33Z"/><path d="M154.17,115.18a2.38,2.38,0,0,1,.52-1.58,1.93,1.93,0,0,1,2.83,0,2.38,2.38,0,0,1,.52,1.58v0.09a2.37,2.37,0,0,1-.52,1.58,1.94,1.94,0,0,1-2.83,0,2.37,2.37,0,0,1-.52-1.58v-0.09Zm0.79,0.09a2,2,0,0,0,.29,1.13,1,1,0,0,0,1.72,0,2,2,0,0,0,.29-1.13v-0.09A2,2,0,0,0,157,114a1,1,0,0,0-.86-0.45,1,1,0,0,0-.85.45,2.05,2.05,0,0,0-.29,1.13v0.09Z"/><path d="M159.72,113.05l0.06,0.64a1.57,1.57,0,0,1,.54-0.53,1.45,1.45,0,0,1,.74-0.19,1.41,1.41,0,0,1,1.08.41,1.8,1.8,0,0,1,.38,1.27v2.73h-0.79v-2.72a1.17,1.17,0,0,0-.23-0.81,0.91,0.91,0,0,0-.69-0.24,1.11,1.11,0,0,0-.6.16,1.2,1.2,0,0,0-.42.45v3.16H159v-4.33h0.7Z"/><polygon points="176.64 114.06 175.04 111.3 173.44 114.06 176.64 114.06"/><polygon points="176.64 115.92 175.04 118.68 173.44 115.92 176.64 115.92"/><rect class="cls-9" x="228.07" y="107.82" width="51.22" height="14.34" rx="2.56" ry="2.56"/><path d="M231.38,115.3a2.89,2.89,0,0,1,.45-1.68,1.44,1.44,0,0,1,1.25-.64,1.55,1.55,0,0,1,.67.14,1.38,1.38,0,0,1,.5.41v-2.38H235v6.24H234.4l-0.09-.53a1.41,1.41,0,0,1-.52.46,1.56,1.56,0,0,1-.72.16,1.49,1.49,0,0,1-1.24-.57,2.39,2.39,0,0,1-.45-1.51V115.3Zm0.79,0.08a1.84,1.84,0,0,0,.27,1.05,0.94,0.94,0,0,0,.83.39,1,1,0,0,0,.59-0.16,1.18,1.18,0,0,0,.39-0.45v-2a1.21,1.21,0,0,0-.39-0.43,1,1,0,0,0-.58-0.16,0.9,0.9,0,0,0-.84.47,2.42,2.42,0,0,0-.27,1.22v0.08Z"/><path d="M238.88,117.38c0-.13,0-0.25-0.06-0.35a2.58,2.58,0,0,1,0-.3,1.84,1.84,0,0,1-.57.52,1.47,1.47,0,0,1-.76.21,1.41,1.41,0,0,1-1-.35,1.27,1.27,0,0,1-.35-1,1.12,1.12,0,0,1,.5-1,2.34,2.34,0,0,1,1.36-.35h0.86v-0.43a0.79,0.79,0,0,0-.23-0.6,0.91,0.91,0,0,0-.66-0.22,1,1,0,0,0-.62.19,0.58,0.58,0,0,0-.24.47h-0.75v0a1,1,0,0,1,.45-0.86,1.83,1.83,0,0,1,1.21-.39,1.79,1.79,0,0,1,1.18.37,1.33,1.33,0,0,1,.45,1.08v2.08a4.15,4.15,0,0,0,0,.45,2.42,2.42,0,0,0,.09.42h-0.81Zm-1.31-.58a1.41,1.41,0,0,0,.77-0.22,1,1,0,0,0,.45-0.5v-0.7H237.9a1.15,1.15,0,0,0-.76.24,0.72,0.72,0,0,0-.29.56,0.59,0.59,0,0,0,.18.46A0.76,0.76,0,0,0,237.57,116.8Z"/><path d="M242,115.78l0.14,0.54h0l1.06-3.27h0.88l-1.82,5a2.25,2.25,0,0,1-.47.76,1.08,1.08,0,0,1-.83.32l-0.24,0-0.23,0,0.08-.62h0.35a0.49,0.49,0,0,0,.41-0.22,2.34,2.34,0,0,0,.27-0.5l0.19-.45-1.61-4.24h0.88Z"/><path d="M247.3,116.23a0.54,0.54,0,0,0-.2-0.43,1.86,1.86,0,0,0-.75-0.29,3.16,3.16,0,0,1-1.19-.47,0.94,0.94,0,0,1-.4-0.8,1.13,1.13,0,0,1,.45-0.9,2,2,0,0,1,2.37,0,1.14,1.14,0,0,1,.43.94v0h-0.75a0.69,0.69,0,0,0-.24-0.51,0.88,0.88,0,0,0-.63-0.23,0.91,0.91,0,0,0-.62.18,0.57,0.57,0,0,0-.2.44,0.49,0.49,0,0,0,.18.4,1.87,1.87,0,0,0,.73.26,3.16,3.16,0,0,1,1.22.48,1,1,0,0,1,.4.81,1.12,1.12,0,0,1-.47.93,2,2,0,0,1-1.22.36,1.9,1.9,0,0,1-1.3-.42,1.19,1.19,0,0,1-.45-1v0h0.75a0.72,0.72,0,0,0,.31.61,1.21,1.21,0,0,0,.68.19,1.11,1.11,0,0,0,.66-0.17A0.52,0.52,0,0,0,247.3,116.23Z"/><polygon points="275.6 114.06 274 111.3 272.4 114.06 275.6 114.06"/><polygon points="275.6 115.92 274 118.68 272.4 115.92 275.6 115.92"/><rect class="cls-9" x="189.66" y="107.82" width="35.85" height="14.34" rx="2.56" ry="2.56"/><path d="M197.51,112.18a8.19,8.19,0,0,0-1.43,2.23,10,10,0,0,0-.53,2.35l-0.06.63H194.7l0.06-.63a8.54,8.54,0,0,1,.65-2.46,9.49,9.49,0,0,1,1.32-2.12h-3.17v-0.62h3.94v0.62Z"/><rect class="cls-9" x="136.8" y="180.03" width="43.53" height="14.34" rx="2.56" ry="2.56"/><path d="M141.94,187.26v2.34h-0.79v-5.83h2.23a2,2,0,0,1,1.45.48,1.81,1.81,0,0,1,0,2.54,2.07,2.07,0,0,1-1.45.47h-1.44Zm0-.62h1.44a1.13,1.13,0,1,0,0-2.25h-1.44v2.25Z"/><path d="M148.87,189.6q0-.2-0.06-0.35a2.52,2.52,0,0,1,0-.3,1.84,1.84,0,0,1-.57.52,1.47,1.47,0,0,1-.76.21,1.42,1.42,0,0,1-1-.35,1.27,1.27,0,0,1-.35-1,1.12,1.12,0,0,1,.5-1,2.35,2.35,0,0,1,1.36-.35h0.86v-0.43a0.8,0.8,0,0,0-.23-0.6,0.91,0.91,0,0,0-.66-0.22,0.94,0.94,0,0,0-.62.19,0.58,0.58,0,0,0-.24.47h-0.75v0a1,1,0,0,1,.45-0.86,1.84,1.84,0,0,1,1.21-.39,1.79,1.79,0,0,1,1.18.37,1.32,1.32,0,0,1,.45,1.08v2.08a4.17,4.17,0,0,0,0,.45,2.29,2.29,0,0,0,.09.42h-0.81Zm-1.31-.58a1.4,1.4,0,0,0,.77-0.22,1,1,0,0,0,.45-0.5v-0.7H147.9a1.15,1.15,0,0,0-.76.24,0.72,0.72,0,0,0-.29.56,0.59,0.59,0,0,0,.18.45A0.75,0.75,0,0,0,147.56,189Z"/><path d="M152,188l0.14,0.54h0l1.06-3.27h0.88l-1.82,5a2.25,2.25,0,0,1-.47.76,1.08,1.08,0,0,1-.83.32l-0.24,0-0.23,0,0.08-.62h0.35a0.49,0.49,0,0,0,.41-0.22,2.3,2.3,0,0,0,.27-0.5l0.19-.45-1.61-4.24h0.88Z"/><path d="M154.53,187.39a2.38,2.38,0,0,1,.52-1.58,1.74,1.74,0,0,1,1.41-.62,1.76,1.76,0,0,1,1.42.62,2.37,2.37,0,0,1,.52,1.58v0.09a2.37,2.37,0,0,1-.52,1.58,1.94,1.94,0,0,1-2.83,0,2.37,2.37,0,0,1-.52-1.58v-0.09Zm0.79,0.09a2.05,2.05,0,0,0,.29,1.14,1,1,0,0,0,1.72,0,2,2,0,0,0,.29-1.14v-0.09a2,2,0,0,0-.29-1.13,1,1,0,0,0-.86-0.45,1,1,0,0,0-.85.45,2.06,2.06,0,0,0-.29,1.13v0.09Z"/><path d="M162.12,189a1.46,1.46,0,0,1-.52.54,1.43,1.43,0,0,1-.74.19,1.39,1.39,0,0,1-1.1-.45,2.1,2.1,0,0,1-.4-1.41v-2.55h0.79v2.56a1.61,1.61,0,0,0,.2,1,0.76,0.76,0,0,0,.64.26,1.3,1.3,0,0,0,.69-0.17,1.06,1.06,0,0,0,.41-0.48v-3.12h0.79v4.33h-0.71Z"/><path d="M165.07,184.22v1h0.82v0.58h-0.82v2.63a0.59,0.59,0,0,0,.13.43,0.45,0.45,0,0,0,.33.12l0.15,0,0.15,0,0.1,0.54a0.71,0.71,0,0,1-.26.12,1.32,1.32,0,0,1-.34,0,1,1,0,0,1-.76-0.29,1.26,1.26,0,0,1-.28-0.91v-2.63h-0.69v-0.58h0.69v-1h0.79Z"/><polygon points="176.64 186.27 175.04 183.51 173.44 186.27 176.64 186.27"/><polygon points="176.64 188.13 175.04 190.89 173.44 188.13 176.64 188.13"/><rect class="cls-9" x="228.07" y="180.03" width="51.22" height="14.34" rx="2.56" ry="2.56"/><path d="M233.71,189.6h-0.79v-5.06l-1.19,0V184l2-.22v5.83Z"/><path d="M239.76,187.38a2.61,2.61,0,0,1-.49,1.71,1.85,1.85,0,0,1-2.71,0,2.59,2.59,0,0,1-.5-1.71V186a2.6,2.6,0,0,1,.5-1.71,1.84,1.84,0,0,1,2.71,0,2.6,2.6,0,0,1,.5,1.71v1.38ZM239,185.83a2,2,0,0,0-.27-1.14,1,1,0,0,0-1.59,0,2,2,0,0,0-.27,1.14v1.71a2,2,0,0,0,.28,1.14,0.92,0.92,0,0,0,.8.39,0.9,0.9,0,0,0,.79-0.38,2,2,0,0,0,.27-1.14v-1.71Z"/><rect class="cls-10" x="189.66" y="180.03" width="35.85" height="14.34" rx="2.56" ry="2.56"/><path d="M198.24,183.77v3.95a1.77,1.77,0,0,1-.62,1.46,2.47,2.47,0,0,1-1.61.5,2.33,2.33,0,0,1-1.56-.51,1.8,1.8,0,0,1-.6-1.46v-3.95h0.79v3.95a1.29,1.29,0,0,0,.38,1,1.42,1.42,0,0,0,1,.34,1.55,1.55,0,0,0,1-.34,1.25,1.25,0,0,0,.4-1v-3.95h0.79Z"/><path d="M202.7,188.13a0.86,0.86,0,0,0-.3-0.67,2.53,2.53,0,0,0-1.06-.45,3.51,3.51,0,0,1-1.44-.65,1.34,1.34,0,0,1-.52-1.08,1.42,1.42,0,0,1,.56-1.14,2.2,2.2,0,0,1,1.45-.46,2.15,2.15,0,0,1,1.52.52,1.55,1.55,0,0,1,.55,1.22v0h-0.75a1.08,1.08,0,0,0-.34-0.83,1.65,1.65,0,0,0-1.87,0,0.87,0.87,0,0,0-.31.69,0.76,0.76,0,0,0,.34.63,3.22,3.22,0,0,0,1.1.45,3.16,3.16,0,0,1,1.4.67,1.44,1.44,0,0,1,.48,1.1,1.35,1.35,0,0,1-.58,1.13,2.46,2.46,0,0,1-1.5.43,2.61,2.61,0,0,1-1.54-.47,1.43,1.43,0,0,1-.65-1.27v0H200a1,1,0,0,0,.41.85,1.72,1.72,0,0,0,1,.29,1.59,1.59,0,0,0,.94-0.25A0.79,0.79,0,0,0,202.7,188.13Z"/><path d="M204.63,189.6v-5.83h1.79a2.39,2.39,0,0,1,2.53,2.52v0.8a2.39,2.39,0,0,1-2.53,2.51h-1.79Zm0.79-5.21V189h1a1.61,1.61,0,0,0,1.27-.53,2,2,0,0,0,.47-1.36v-0.8a2,2,0,0,0-.47-1.36,1.61,1.61,0,0,0-1.27-.53h-1Z"/><rect class="cls-9" x="189.66" y="132.4" width="89.63" height="14.34" rx="2.56" ry="2.56"/><path d="M197.3,137.66a1.3,1.3,0,0,1-.26.8,1.53,1.53,0,0,1-.69.51,1.74,1.74,0,0,1,.81.55,1.35,1.35,0,0,1,.3.87,1.5,1.5,0,0,1-.53,1.23,2.43,2.43,0,0,1-2.75,0,1.5,1.5,0,0,1-.52-1.23,1.36,1.36,0,0,1,.3-0.87,1.7,1.7,0,0,1,.8-0.55,1.48,1.48,0,0,1-.68-0.51,1.32,1.32,0,0,1-.25-0.8,1.5,1.5,0,0,1,.47-1.19,1.82,1.82,0,0,1,1.25-.42,1.85,1.85,0,0,1,1.25.42A1.48,1.48,0,0,1,197.3,137.66Zm-0.62,2.71a1,1,0,0,0-.32-0.79,1.1,1.1,0,0,0-.8-0.31,1.05,1.05,0,0,0-1.1,1.09,1,1,0,0,0,.3.78,1.29,1.29,0,0,0,1.61,0A1,1,0,0,0,196.68,140.37Zm-0.16-2.69a1,1,0,0,0-.27-0.72,1,1,0,0,0-1.36,0,1,1,0,0,0-.26.73,1,1,0,0,0,.26.71,1,1,0,0,0,1.37,0A1,1,0,0,0,196.51,137.68Z"/><path d="M202,139.75a2.61,2.61,0,0,1-.49,1.71,1.85,1.85,0,0,1-2.71,0,2.59,2.59,0,0,1-.5-1.71v-1.38a2.6,2.6,0,0,1,.5-1.71,1.84,1.84,0,0,1,2.71,0,2.6,2.6,0,0,1,.5,1.71v1.38Zm-0.79-1.55a2,2,0,0,0-.27-1.14,1,1,0,0,0-1.59,0,2,2,0,0,0-.27,1.14v1.71a2,2,0,0,0,.28,1.14,0.92,0.92,0,0,0,.8.39A0.91,0.91,0,0,0,201,141a2,2,0,0,0,.27-1.14V138.2Z"/><path d="M203.92,142h-0.79v-0.82h0.79V142Z"/><path d="M208.72,137.66a1.3,1.3,0,0,1-.26.8,1.53,1.53,0,0,1-.69.51,1.75,1.75,0,0,1,.81.55,1.35,1.35,0,0,1,.3.87,1.5,1.5,0,0,1-.53,1.23,2.42,2.42,0,0,1-2.74,0,1.5,1.5,0,0,1-.52-1.23,1.36,1.36,0,0,1,.3-0.87,1.7,1.7,0,0,1,.8-0.55,1.48,1.48,0,0,1-.68-0.51,1.33,1.33,0,0,1-.25-0.8,1.5,1.5,0,0,1,.47-1.19,1.83,1.83,0,0,1,1.25-.42,1.85,1.85,0,0,1,1.25.42A1.48,1.48,0,0,1,208.72,137.66Zm-0.62,2.71a1,1,0,0,0-.32-0.79,1.1,1.1,0,0,0-.8-0.31,1.05,1.05,0,0,0-1.1,1.09,1,1,0,0,0,.3.78,1.29,1.29,0,0,0,1.61,0A1,1,0,0,0,208.1,140.37Zm-0.16-2.69a1,1,0,0,0-.27-0.72,1,1,0,0,0-1.36,0,1,1,0,0,0-.26.73,1,1,0,0,0,.26.71,1,1,0,0,0,1.37,0A1,1,0,0,0,207.94,137.68Z"/><path d="M212,142h-0.79v-5.06l-1.19,0v-0.57l2-.22V142Z"/><path d="M218,137.66a1.3,1.3,0,0,1-.26.8,1.53,1.53,0,0,1-.69.51,1.75,1.75,0,0,1,.81.55,1.35,1.35,0,0,1,.3.87,1.5,1.5,0,0,1-.53,1.23,2.42,2.42,0,0,1-2.74,0,1.5,1.5,0,0,1-.52-1.23,1.36,1.36,0,0,1,.3-0.87,1.7,1.7,0,0,1,.8-0.55,1.48,1.48,0,0,1-.68-0.51,1.33,1.33,0,0,1-.25-0.8,1.5,1.5,0,0,1,.47-1.19,1.83,1.83,0,0,1,1.25-.42,1.85,1.85,0,0,1,1.25.42A1.48,1.48,0,0,1,218,137.66Zm-0.62,2.71a1,1,0,0,0-.32-0.79,1.1,1.1,0,0,0-.8-0.31,1.05,1.05,0,0,0-1.1,1.09,1,1,0,0,0,.3.78,1.29,1.29,0,0,0,1.61,0A1,1,0,0,0,217.33,140.37Zm-0.16-2.69a1,1,0,0,0-.27-0.72,1,1,0,0,0-1.36,0,1,1,0,0,0-.26.73,1,1,0,0,0,.26.71,1,1,0,0,0,1.37,0A1,1,0,0,0,217.16,137.68Z"/><path d="M142.2,142h-0.79v-2.57h-2.83V142H137.8v-5.83h0.79v2.63h2.83v-2.63h0.79V142Z"/><path d="M144.35,136.53h-0.79v-0.8h0.79v0.8Zm0,5.44h-0.79v-4.33h0.79V142Z"/><path d="M145.39,139.88a2.84,2.84,0,0,1,.46-1.68,1.46,1.46,0,0,1,1.26-.64,1.52,1.52,0,0,1,.72.17,1.42,1.42,0,0,1,.52.48l0.1-.56h0.63V142a1.65,1.65,0,0,1-.48,1.28,2,2,0,0,1-1.4.45,2.92,2.92,0,0,1-.67-0.09,2.61,2.61,0,0,1-.64-0.23l0.2-.61a2,2,0,0,0,.51.19,2.49,2.49,0,0,0,.59.07,1.15,1.15,0,0,0,.84-0.26,1.09,1.09,0,0,0,.26-0.8V141.5a1.38,1.38,0,0,1-.51.41,1.6,1.6,0,0,1-.68.14,1.51,1.51,0,0,1-1.25-.58,2.36,2.36,0,0,1-.46-1.51v-0.08Zm0.79,0.08a1.8,1.8,0,0,0,.28,1,1,1,0,0,0,.84.4,1,1,0,0,0,.6-0.16,1.23,1.23,0,0,0,.4-0.46v-2a1.23,1.23,0,0,0-.4-0.44,1,1,0,0,0-.59-0.16,0.92,0.92,0,0,0-.84.47,2.35,2.35,0,0,0-.28,1.21V140Z"/><path d="M151,138.22a1.6,1.6,0,0,1,.55-0.49,1.51,1.51,0,0,1,.72-0.17,1.4,1.4,0,0,1,1.08.42,1.83,1.83,0,0,1,.39,1.28V142H153v-2.72a1.16,1.16,0,0,0-.23-0.79,0.88,0.88,0,0,0-.69-0.26,1.17,1.17,0,0,0-.59.15,1.29,1.29,0,0,0-.44.42V142h-0.79v-6.24H151v2.49Z"/><path d="M160.61,140a2.38,2.38,0,0,1-.45,1.51,1.49,1.49,0,0,1-1.24.57,1.58,1.58,0,0,1-.74-0.17,1.38,1.38,0,0,1-.52-0.49l-0.1.57h-0.64v-6.24h0.79v2.42a1.36,1.36,0,0,1,.51-0.44,1.55,1.55,0,0,1,.71-0.15,1.44,1.44,0,0,1,1.25.64,2.88,2.88,0,0,1,.45,1.68V140Zm-0.79-.08a2.39,2.39,0,0,0-.27-1.21,0.9,0.9,0,0,0-.83-0.47,1,1,0,0,0-.61.18,1.25,1.25,0,0,0-.4.48v1.88a1.29,1.29,0,0,0,.4.5,1,1,0,0,0,.62.18,0.94,0.94,0,0,0,.83-0.4,1.82,1.82,0,0,0,.27-1v-0.08Z"/><path d="M164.23,142q0-.2-0.06-0.35a2.52,2.52,0,0,1,0-.3,1.84,1.84,0,0,1-.57.52,1.47,1.47,0,0,1-.76.21,1.42,1.42,0,0,1-1-.35,1.27,1.27,0,0,1-.35-1,1.12,1.12,0,0,1,.5-1,2.35,2.35,0,0,1,1.36-.35h0.86V139a0.8,0.8,0,0,0-.23-0.6,0.91,0.91,0,0,0-.66-0.22,0.94,0.94,0,0,0-.62.19,0.58,0.58,0,0,0-.24.47h-0.75v0a1,1,0,0,1,.45-0.86,1.84,1.84,0,0,1,1.21-.39,1.79,1.79,0,0,1,1.18.37,1.32,1.32,0,0,1,.45,1.08v2.08a4.17,4.17,0,0,0,0,.45,2.29,2.29,0,0,0,.09.42h-0.81Zm-1.31-.58a1.4,1.4,0,0,0,.77-0.22,1,1,0,0,0,.45-0.5V140h-0.88a1.15,1.15,0,0,0-.76.24,0.72,0.72,0,0,0-.29.56,0.59,0.59,0,0,0,.18.45A0.75,0.75,0,0,0,162.92,141.39Z"/><path d="M168.12,138.33l-0.4,0a0.9,0.9,0,0,0-.53.15,1,1,0,0,0-.33.42V142h-0.79v-4.33h0.7l0.08,0.63a1.51,1.51,0,0,1,.45-0.52,1.06,1.06,0,0,1,.62-0.19h0.17l0.13,0Z"/><path d="M170.93,138.33l-0.4,0a0.9,0.9,0,0,0-.53.15,1,1,0,0,0-.33.42V142h-0.79v-4.33h0.7l0.08,0.63a1.51,1.51,0,0,1,.45-0.52,1.06,1.06,0,0,1,.62-0.19h0.17l0.13,0Z"/><path d="M172.55,136.53h-0.79v-0.8h0.79v0.8Zm0,5.44h-0.79v-4.33h0.79V142Z"/><path d="M175.55,142a1.82,1.82,0,0,1-1.44-.6,2.27,2.27,0,0,1-.53-1.56v-0.18a2.22,2.22,0,0,1,.55-1.54,1.7,1.7,0,0,1,1.3-.61,1.64,1.64,0,0,1,1.32.53,2.1,2.1,0,0,1,.45,1.41V140H174.4v0a1.7,1.7,0,0,0,.32,1,1,1,0,0,0,.85.4,2,2,0,0,0,.7-0.11,1.63,1.63,0,0,0,.52-0.31l0.31,0.51a1.83,1.83,0,0,1-.61.38A2.45,2.45,0,0,1,175.55,142Zm-0.12-3.87a0.86,0.86,0,0,0-.68.33,1.57,1.57,0,0,0-.34.83v0h2v-0.1a1.2,1.2,0,0,0-.25-0.77A0.89,0.89,0,0,0,175.43,138.18Z"/><path d="M180.14,138.33l-0.4,0a0.9,0.9,0,0,0-.53.15,1,1,0,0,0-.33.42V142h-0.79v-4.33h0.7l0.08,0.63a1.51,1.51,0,0,1,.45-0.52,1.06,1.06,0,0,1,.62-0.19h0.17l0.13,0Z"/><rect class="cls-9" x="189.66" y="156.17" width="89.63" height="14.34" rx="2.56" ry="2.56"/><path d="M197.3,161.43a1.3,1.3,0,0,1-.26.8,1.53,1.53,0,0,1-.69.51,1.74,1.74,0,0,1,.81.55,1.35,1.35,0,0,1,.3.87,1.5,1.5,0,0,1-.53,1.23,2.43,2.43,0,0,1-2.75,0,1.5,1.5,0,0,1-.52-1.23,1.36,1.36,0,0,1,.3-0.87,1.7,1.7,0,0,1,.8-0.55,1.48,1.48,0,0,1-.68-0.51,1.32,1.32,0,0,1-.25-0.8,1.5,1.5,0,0,1,.47-1.19,1.82,1.82,0,0,1,1.25-.42,1.85,1.85,0,0,1,1.25.42A1.48,1.48,0,0,1,197.3,161.43Zm-0.62,2.71a1,1,0,0,0-.32-0.79,1.1,1.1,0,0,0-.8-0.31,1.05,1.05,0,0,0-1.1,1.09,1,1,0,0,0,.3.78,1.29,1.29,0,0,0,1.61,0A1,1,0,0,0,196.68,164.14Zm-0.16-2.69a1,1,0,0,0-.27-0.72,1,1,0,0,0-1.36,0,1,1,0,0,0-.26.73,1,1,0,0,0,.26.71,1,1,0,0,0,1.37,0A1,1,0,0,0,196.51,161.45Z"/><path d="M202,163.52a2.61,2.61,0,0,1-.49,1.71,1.85,1.85,0,0,1-2.71,0,2.59,2.59,0,0,1-.5-1.71v-1.38a2.6,2.6,0,0,1,.5-1.71,1.84,1.84,0,0,1,2.71,0,2.6,2.6,0,0,1,.5,1.71v1.38ZM201.25,162a2,2,0,0,0-.27-1.14,1,1,0,0,0-1.59,0,2,2,0,0,0-.27,1.14v1.71a2,2,0,0,0,.28,1.14,0.92,0.92,0,0,0,.8.39,0.91,0.91,0,0,0,.79-0.38,2,2,0,0,0,.27-1.14V162Z"/><path d="M203.92,165.74h-0.79v-0.82h0.79v0.82Z"/><path d="M208.84,163.52a2.61,2.61,0,0,1-.49,1.71,1.85,1.85,0,0,1-2.71,0,2.59,2.59,0,0,1-.5-1.71v-1.38a2.6,2.6,0,0,1,.5-1.71,1.84,1.84,0,0,1,2.71,0,2.6,2.6,0,0,1,.5,1.71v1.38ZM208.06,162a2,2,0,0,0-.27-1.14,1,1,0,0,0-1.59,0,2,2,0,0,0-.27,1.14v1.71a2,2,0,0,0,.28,1.14,0.92,0.92,0,0,0,.8.39,0.9,0.9,0,0,0,.79-0.38,2,2,0,0,0,.27-1.14V162Z"/><path d="M212,159.83a2.66,2.66,0,0,1,.59.07,2,2,0,0,1,.49.17l-0.17.6a2.33,2.33,0,0,0-.41-0.16,1.83,1.83,0,0,0-.5-0.06,1.21,1.21,0,0,0-1,.5,2.09,2.09,0,0,0-.38,1.3v0.09a1.93,1.93,0,0,1,.59-0.35,2,2,0,0,1,.71-0.13,1.56,1.56,0,0,1,1.25.54,2,2,0,0,1,.46,1.37,2.17,2.17,0,0,1-.49,1.47,1.66,1.66,0,0,1-1.32.57,1.83,1.83,0,0,1-1.42-.62,2.52,2.52,0,0,1-.56-1.75v-1.11a2.62,2.62,0,0,1,.62-1.82A2,2,0,0,1,212,159.83Zm-0.27,2.63a1.36,1.36,0,0,0-.69.16,1.11,1.11,0,0,0-.43.44v0.47a2,2,0,0,0,.34,1.24,1,1,0,0,0,.85.44,0.86,0.86,0,0,0,.75-0.41,1.81,1.81,0,0,0,.27-1,1.49,1.49,0,0,0-.29-0.95A1,1,0,0,0,211.73,162.46Z"/><path d="M218,161.43a1.3,1.3,0,0,1-.26.8,1.53,1.53,0,0,1-.69.51,1.75,1.75,0,0,1,.81.55,1.35,1.35,0,0,1,.3.87,1.5,1.5,0,0,1-.53,1.23,2.42,2.42,0,0,1-2.74,0,1.5,1.5,0,0,1-.52-1.23,1.36,1.36,0,0,1,.3-0.87,1.7,1.7,0,0,1,.8-0.55,1.48,1.48,0,0,1-.68-0.51,1.33,1.33,0,0,1-.25-0.8,1.5,1.5,0,0,1,.47-1.19,1.83,1.83,0,0,1,1.25-.42,1.85,1.85,0,0,1,1.25.42A1.48,1.48,0,0,1,218,161.43Zm-0.62,2.71a1,1,0,0,0-.32-0.79,1.1,1.1,0,0,0-.8-0.31,1.05,1.05,0,0,0-1.1,1.09,1,1,0,0,0,.3.78,1.29,1.29,0,0,0,1.61,0A1,1,0,0,0,217.33,164.14Zm-0.16-2.69a1,1,0,0,0-.27-0.72,1,1,0,0,0-1.36,0,1,1,0,0,0-.26.73,1,1,0,0,0,.26.71,1,1,0,0,0,1.37,0A1,1,0,0,0,217.17,161.45Z"/><path d="M140.53,165.12h2.76v0.62h-3.54v-5.83h0.79v5.21Z"/><path d="M143.83,163.53a2.38,2.38,0,0,1,.52-1.58,1.74,1.74,0,0,1,1.41-.62,1.76,1.76,0,0,1,1.42.62,2.37,2.37,0,0,1,.52,1.58v0.09a2.37,2.37,0,0,1-.52,1.58,1.94,1.94,0,0,1-2.83,0,2.37,2.37,0,0,1-.52-1.58v-0.09Zm0.79,0.09a2.05,2.05,0,0,0,.29,1.14,1,1,0,0,0,1.72,0,2,2,0,0,0,.29-1.14v-0.09a2,2,0,0,0-.29-1.13,1,1,0,0,0-.86-0.45,1,1,0,0,0-.85.45,2.06,2.06,0,0,0-.29,1.13v0.09Z"/><path d="M149.78,164.16l0.09,0.52h0l0.11-.52,0.86-2.75h0.63l0.87,2.75,0.12,0.58h0l0.12-.58,0.68-2.75h0.78l-1.26,4.33h-0.64l-0.84-2.64-0.18-.74h0l-0.17.73-0.82,2.64h-0.64l-1.26-4.33h0.78Z"/><path d="M160.61,163.74a2.38,2.38,0,0,1-.45,1.51,1.49,1.49,0,0,1-1.24.57,1.58,1.58,0,0,1-.74-0.17,1.38,1.38,0,0,1-.52-0.49l-0.1.57h-0.64V159.5h0.79v2.42a1.36,1.36,0,0,1,.51-0.44,1.55,1.55,0,0,1,.71-0.15,1.44,1.44,0,0,1,1.25.64,2.88,2.88,0,0,1,.45,1.68v0.08Zm-0.79-.08a2.39,2.39,0,0,0-.27-1.21,0.9,0.9,0,0,0-.83-0.47,1,1,0,0,0-.61.18,1.25,1.25,0,0,0-.4.48v1.88a1.29,1.29,0,0,0,.4.5,1,1,0,0,0,.62.18,0.94,0.94,0,0,0,.83-0.4,1.82,1.82,0,0,0,.27-1v-0.08Z"/><path d="M164.23,165.74q0-.2-0.06-0.35a2.52,2.52,0,0,1,0-.3,1.84,1.84,0,0,1-.57.52,1.47,1.47,0,0,1-.76.21,1.42,1.42,0,0,1-1-.35,1.27,1.27,0,0,1-.35-1,1.12,1.12,0,0,1,.5-1,2.35,2.35,0,0,1,1.36-.35h0.86v-0.43a0.8,0.8,0,0,0-.23-0.6,0.91,0.91,0,0,0-.66-0.22,0.94,0.94,0,0,0-.62.19,0.58,0.58,0,0,0-.24.47h-0.75v0a1,1,0,0,1,.45-0.86,1.84,1.84,0,0,1,1.21-.39,1.79,1.79,0,0,1,1.18.37,1.32,1.32,0,0,1,.45,1.08v2.08a4.17,4.17,0,0,0,0,.45,2.29,2.29,0,0,0,.09.42h-0.81Zm-1.31-.58a1.4,1.4,0,0,0,.77-0.22,1,1,0,0,0,.45-0.5v-0.7h-0.88a1.15,1.15,0,0,0-.76.24,0.72,0.72,0,0,0-.29.56,0.59,0.59,0,0,0,.18.45A0.75,0.75,0,0,0,162.92,165.16Z"/><path d="M168.12,162.11l-0.4,0a0.9,0.9,0,0,0-.53.15,1,1,0,0,0-.33.42v3.09h-0.79v-4.33h0.7l0.08,0.63a1.51,1.51,0,0,1,.45-0.52,1.06,1.06,0,0,1,.62-0.19h0.17l0.13,0Z"/><path d="M170.93,162.11l-0.4,0a0.9,0.9,0,0,0-.53.15,1,1,0,0,0-.33.42v3.09h-0.79v-4.33h0.7l0.08,0.63a1.51,1.51,0,0,1,.45-0.52,1.06,1.06,0,0,1,.62-0.19h0.17l0.13,0Z"/><path d="M172.55,160.3h-0.79v-0.8h0.79v0.8Zm0,5.44h-0.79v-4.33h0.79v4.33Z"/><path d="M175.55,165.82a1.82,1.82,0,0,1-1.44-.6,2.27,2.27,0,0,1-.53-1.56v-0.18a2.22,2.22,0,0,1,.55-1.54,1.7,1.7,0,0,1,1.3-.61,1.64,1.64,0,0,1,1.32.53,2.1,2.1,0,0,1,.45,1.41v0.49H174.4v0a1.7,1.7,0,0,0,.32,1,1,1,0,0,0,.85.4,2,2,0,0,0,.7-0.11,1.63,1.63,0,0,0,.52-0.31l0.31,0.51a1.83,1.83,0,0,1-.61.38A2.45,2.45,0,0,1,175.55,165.82Zm-0.12-3.87a0.86,0.86,0,0,0-.68.33,1.57,1.57,0,0,0-.34.83v0h2V163a1.2,1.2,0,0,0-.25-0.77A0.89,0.89,0,0,0,175.43,161.95Z"/><path d="M180.14,162.11l-0.4,0a0.9,0.9,0,0,0-.53.15,1,1,0,0,0-.33.42v3.09h-0.79v-4.33h0.7l0.08,0.63a1.51,1.51,0,0,1,.45-0.52,1.06,1.06,0,0,1,.62-0.19h0.17l0.13,0Z"/><polygon points="221.55 186.27 219.95 183.51 218.35 186.27 221.55 186.27"/><polygon points="221.55 188.13 219.95 190.89 218.35 188.13 221.55 188.13"/><path d="M285.69,113.05l0.06,0.57a1.48,1.48,0,0,1,.54-0.48A1.62,1.62,0,0,1,287,113a1.34,1.34,0,0,1,.74.2,1.21,1.21,0,0,1,.47.6,1.61,1.61,0,0,1,.54-0.58,1.42,1.42,0,0,1,.78-0.22,1.3,1.3,0,0,1,1,.45,2.08,2.08,0,0,1,.38,1.37v2.59h-0.79v-2.6a1.44,1.44,0,0,0-.22-0.91,0.8,0.8,0,0,0-.66-0.27,0.83,0.83,0,0,0-.65.28,1.22,1.22,0,0,0-.29.71v2.78H287.6v-2.6a1.42,1.42,0,0,0-.23-0.89,0.78,0.78,0,0,0-.65-0.28,1.08,1.08,0,0,0-.59.15,1,1,0,0,0-.36.42v3.21H285v-4.33h0.7Z"/><path d="M293,111.94h-0.79v-0.8H293v0.8Zm0,5.44h-0.79v-4.33H293v4.33Z"/><path d="M294.92,113.05L295,113.7a1.57,1.57,0,0,1,.54-0.53,1.44,1.44,0,0,1,.74-0.19,1.41,1.41,0,0,1,1.08.41,1.8,1.8,0,0,1,.38,1.27v2.73h-0.79v-2.72a1.17,1.17,0,0,0-.23-0.81,0.91,0.91,0,0,0-.69-0.24,1.11,1.11,0,0,0-.6.16,1.2,1.2,0,0,0-.42.45v3.16h-0.79v-4.33h0.7Z"/><path d="M303.06,117.38h-0.79v-5.06l-1.19,0v-0.57l2-.22v5.83Z"/><line class="cls-11" x1="286" y1="119.5" x2="298" y2="119.5"/><rect class="cls-12" x="95.65" y="72.74" width="241.74" height="146.48"/><polyline class="cls-13" points="289.91 42.77 291.05 43.5 292.71 43.5 294.12 41.92 294.76 41.47 297.11 40.47 298.9 38.5 300.9 38.5 302.01 37.58 303.25 38.34 304.53 39.61 305.86 40.12 307.65 39.88 308.97 40.5 312.17 40.5 313.75 41.87 315.2 46.31 316.48 45.71 318.02 45.78"/><circle class="cls-14" cx="301.65" cy="37.9" r="0.73"/><circle class="cls-15" cx="315.05" cy="46.09" r="0.73"/><circle class="cls-16" cx="318.1" cy="45.6" r="0.73"/><line class="cls-17" x1="323" y1="115.5" x2="308" y2="115.5"/><polyline class="cls-18" points="309.76 117.29 307.47 115 309.76 112.71"/><line class="cls-17" x1="241" y1="65.5" x2="220" y2="65.5"/><polyline class="cls-18" points="222.1 68.13 219.8 65.83 222.1 63.54"/><rect class="cls-19" x="323.3" y="106.03" width="71.7" height="17.93"/><path class="cls-8" d="M330.5,115.52v0a2.48,2.48,0,0,1-.69,1.18,1.78,1.78,0,0,1-1.25.43,1.46,1.46,0,0,1-1.24-.64,1.89,1.89,0,0,1-.28-1.56l0.18-.91a3,3,0,0,1,.75-1.57,1.85,1.85,0,0,1,1.37-.56,1.53,1.53,0,0,1,1.19.48,1.47,1.47,0,0,1,.34,1.24v0h-0.65a1.3,1.3,0,0,0-.2-0.87,0.87,0.87,0,0,0-.75-0.32,1.09,1.09,0,0,0-.86.45,2.5,2.5,0,0,0-.51,1.13l-0.19.92a1.71,1.71,0,0,0,.11,1.19,0.86,0.86,0,0,0,.8.46,1,1,0,0,0,.74-0.27,2,2,0,0,0,.46-0.83h0.65Z"/><path class="cls-8" d="M332.3,113.75a1.7,1.7,0,0,1,.52-0.39,1.39,1.39,0,0,1,.6-0.14,0.9,0.9,0,0,1,.79.37,1.45,1.45,0,0,1,.11,1.11l-0.48,2.37h-0.68l0.48-2.38a1,1,0,0,0,0-.71,0.56,0.56,0,0,0-.51-0.21,1,1,0,0,0-.48.14,1.59,1.59,0,0,0-.43.37l-0.56,2.79H331l1.09-5.46h0.68Z"/><path class="cls-8" d="M335,115.15a2.55,2.55,0,0,1,.64-1.4,1.64,1.64,0,0,1,1.24-.53,1.18,1.18,0,0,1,1.06.55,1.92,1.92,0,0,1,.22,1.38v0.08a2.56,2.56,0,0,1-.65,1.4,1.65,1.65,0,0,1-1.24.52,1.18,1.18,0,0,1-1.06-.55,1.91,1.91,0,0,1-.21-1.38v-0.08Zm0.67,0.08a1.83,1.83,0,0,0,.06,1,0.61,0.61,0,0,0,.62.38,0.89,0.89,0,0,0,.73-0.4,2.18,2.18,0,0,0,.4-1v-0.08a1.83,1.83,0,0,0-.07-1,0.61,0.61,0,0,0-.62-0.38,0.89,0.89,0,0,0-.73.4,2.19,2.19,0,0,0-.39,1v0.08Z"/><path class="cls-8" d="M338.85,115.15a2.55,2.55,0,0,1,.64-1.4,1.64,1.64,0,0,1,1.24-.53,1.18,1.18,0,0,1,1.06.55,1.92,1.92,0,0,1,.22,1.38v0.08a2.56,2.56,0,0,1-.65,1.4,1.65,1.65,0,0,1-1.24.52,1.18,1.18,0,0,1-1.06-.55,1.91,1.91,0,0,1-.21-1.38v-0.08Zm0.67,0.08a1.83,1.83,0,0,0,.06,1,0.61,0.61,0,0,0,.62.38,0.89,0.89,0,0,0,.73-0.4,2.18,2.18,0,0,0,.4-1v-0.08a1.83,1.83,0,0,0-.07-1,0.61,0.61,0,0,0-.62-0.38,0.89,0.89,0,0,0-.73.4,2.19,2.19,0,0,0-.39,1v0.08Z"/><path class="cls-8" d="M344.73,116.08a0.42,0.42,0,0,0-.09-0.38,1.2,1.2,0,0,0-.55-0.25,2.11,2.11,0,0,1-.91-0.41,0.72,0.72,0,0,1-.21-0.7,1.22,1.22,0,0,1,.49-0.8,1.62,1.62,0,0,1,1-.32,1.2,1.2,0,0,1,.92.34,0.89,0.89,0,0,1,.23.82v0h-0.65a0.55,0.55,0,0,0-.11-0.45,0.55,0.55,0,0,0-.46-0.19,0.77,0.77,0,0,0-.51.16,0.62,0.62,0,0,0-.23.39,0.4,0.4,0,0,0,.08.36,1.27,1.27,0,0,0,.55.23,2.07,2.07,0,0,1,.93.42,0.75,0.75,0,0,1,.21.71,1.2,1.2,0,0,1-.51.82,1.77,1.77,0,0,1-1,.3,1.29,1.29,0,0,1-1-.37,0.92,0.92,0,0,1-.25-0.85v0h0.65a0.56,0.56,0,0,0,.16.53,0.77,0.77,0,0,0,.51.17,0.93,0.93,0,0,0,.54-0.15A0.57,0.57,0,0,0,344.73,116.08Z"/><path class="cls-8" d="M347.53,117.16a1.23,1.23,0,0,1-1.08-.53,1.82,1.82,0,0,1-.23-1.36l0-.15a2.37,2.37,0,0,1,.66-1.36,1.62,1.62,0,0,1,1.15-.52,1.1,1.1,0,0,1,1,.47,1.73,1.73,0,0,1,.18,1.23l-0.07.43h-2.28a1.51,1.51,0,0,0,.11.92,0.65,0.65,0,0,0,.63.34,1.63,1.63,0,0,0,1-.37l0.19,0.45a1.74,1.74,0,0,1-.55.33A2.08,2.08,0,0,1,347.53,117.16Zm0.44-3.39a0.79,0.79,0,0,0-.57.29,1.7,1.7,0,0,0-.39.73v0h1.56v-0.09a1.07,1.07,0,0,0-.08-0.69A0.56,0.56,0,0,0,348,113.77Z"/><path class="cls-8" d="M352.65,115.68l0,0.43h0l1.41-2.82h0.75l-2.35,4.37a2.69,2.69,0,0,1-.53.67,1,1,0,0,1-.73.28l-0.2,0-0.19,0L351,118h0.29a0.51,0.51,0,0,0,.37-0.21,2.27,2.27,0,0,0,.3-0.42l0.23-.4-0.56-3.71h0.76Z"/><path class="cls-8" d="M354.85,115.15a2.55,2.55,0,0,1,.64-1.4,1.64,1.64,0,0,1,1.24-.53,1.18,1.18,0,0,1,1.06.55,1.92,1.92,0,0,1,.22,1.38v0.08a2.56,2.56,0,0,1-.65,1.4,1.65,1.65,0,0,1-1.24.52,1.18,1.18,0,0,1-1.06-.55,1.91,1.91,0,0,1-.21-1.38v-0.08Zm0.67,0.08a1.83,1.83,0,0,0,.06,1,0.61,0.61,0,0,0,.62.38,0.89,0.89,0,0,0,.73-0.4,2.18,2.18,0,0,0,.4-1v-0.08a1.83,1.83,0,0,0-.07-1,0.61,0.61,0,0,0-.62-0.38,0.89,0.89,0,0,0-.73.4,2.19,2.19,0,0,0-.39,1v0.08Z"/><path class="cls-8" d="M360.74,117.08l0.06-.52a1.57,1.57,0,0,1-.51.44,1.32,1.32,0,0,1-.62.15,0.89,0.89,0,0,1-.8-0.4,1.67,1.67,0,0,1-.1-1.23l0.44-2.23h0.68l-0.45,2.24a1.45,1.45,0,0,0,0,.85,0.48,0.48,0,0,0,.46.21,1.07,1.07,0,0,0,.57-0.15,1.32,1.32,0,0,0,.43-0.43l0.54-2.72h0.68l-0.76,3.79h-0.61Z"/><path class="cls-8" d="M364.65,113.9l-0.37,0a0.74,0.74,0,0,0-.42.13,1.16,1.16,0,0,0-.34.37l-0.54,2.7H362.3l0.76-3.79h0.61l0,0.51a1.51,1.51,0,0,1,.44-0.43,1,1,0,0,1,.53-0.15h0.15l0.12,0Z"/><path class="cls-8" d="M366.61,115.19a3.19,3.19,0,0,1,.62-1.47,1.38,1.38,0,0,1,1.09-.49,1.14,1.14,0,0,1,.53.12,1,1,0,0,1,.39.34l0.41-2.07h0.68l-1.09,5.46h-0.58l0-.36a1.46,1.46,0,0,1-.46.33,1.37,1.37,0,0,1-.55.11,1,1,0,0,1-.92-0.55,1.91,1.91,0,0,1-.15-1.35v-0.07Zm0.67,0.07a1.58,1.58,0,0,0,0,1,0.63,0.63,0,0,0,.63.37,0.76,0.76,0,0,0,.45-0.14,1.4,1.4,0,0,0,.36-0.39l0.36-1.79a0.81,0.81,0,0,0-.27-0.36,0.76,0.76,0,0,0-.46-0.13,0.83,0.83,0,0,0-.7.38,2.59,2.59,0,0,0-.4,1v0.07Z"/><path class="cls-8" d="M372.49,117.08l0.06-.52a1.57,1.57,0,0,1-.51.44,1.32,1.32,0,0,1-.62.15,0.89,0.89,0,0,1-.8-0.4,1.67,1.67,0,0,1-.1-1.23l0.44-2.23h0.68l-0.45,2.24a1.45,1.45,0,0,0,0,.85,0.48,0.48,0,0,0,.46.21,1.07,1.07,0,0,0,.57-0.15,1.32,1.32,0,0,0,.43-0.43l0.54-2.72h0.68l-0.76,3.79h-0.61Z"/><path class="cls-8" d="M376.4,113.9l-0.37,0a0.74,0.74,0,0,0-.42.13,1.16,1.16,0,0,0-.34.37l-0.54,2.7h-0.68l0.76-3.79h0.61l0,0.51a1.51,1.51,0,0,1,.44-0.43,1,1,0,0,1,.53-0.15h0.15l0.12,0Z"/><path class="cls-8" d="M378.59,117.08c0-.11,0-0.21,0-0.28s0-.15,0-0.23a2.18,2.18,0,0,1-.54.42,1.26,1.26,0,0,1-.61.17,0.92,0.92,0,0,1-.76-0.31,1,1,0,0,1-.14-0.83,1.26,1.26,0,0,1,.57-0.87,2.15,2.15,0,0,1,1.17-.29H379l0.07-.37A0.64,0.64,0,0,0,379,114a0.59,0.59,0,0,0-.49-0.18,0.88,0.88,0,0,0-.53.17,0.66,0.66,0,0,0-.28.4H377v0a1.19,1.19,0,0,1,.53-0.77,1.79,1.79,0,0,1,1.08-.33,1.19,1.19,0,0,1,.89.33,1,1,0,0,1,.21.94l-0.36,1.82a3.56,3.56,0,0,0-.06.4,1.93,1.93,0,0,0,0,.37h-0.7Zm-0.9-.5a1.18,1.18,0,0,0,.58-0.16,1.37,1.37,0,0,0,.46-0.39l0.14-.7H378.2a1,1,0,0,0-.62.21,0.81,0.81,0,0,0-.33.49,0.48,0.48,0,0,0,.05.41A0.48,0.48,0,0,0,377.69,116.58Z"/><path class="cls-8" d="M382,112.38l-0.19.91h0.65l-0.1.51h-0.65l-0.46,2.3a0.51,0.51,0,0,0,0,.38,0.3,0.3,0,0,0,.25.1l0.19,0,0.18,0V117a0.94,0.94,0,0,1-.29.1,1.72,1.72,0,0,1-.37,0,0.67,0.67,0,0,1-.57-0.26,1,1,0,0,1-.09-0.79l0.46-2.3h-0.55l0.1-.51h0.55l0.19-.91H382Z"/><path class="cls-8" d="M383.27,117.08h-0.68l0.76-3.79H384Zm1-4.76h-0.68l0.14-.7h0.68Z"/><path class="cls-8" d="M384.49,115.15a2.55,2.55,0,0,1,.64-1.4,1.64,1.64,0,0,1,1.24-.53,1.18,1.18,0,0,1,1.06.55,1.92,1.92,0,0,1,.22,1.38v0.08a2.56,2.56,0,0,1-.65,1.4,1.65,1.65,0,0,1-1.24.52,1.18,1.18,0,0,1-1.06-.55,1.91,1.91,0,0,1-.21-1.38v-0.08Zm0.67,0.08a1.83,1.83,0,0,0,.06,1,0.61,0.61,0,0,0,.62.38,0.89,0.89,0,0,0,.73-0.4,2.18,2.18,0,0,0,.4-1v-0.08a1.83,1.83,0,0,0-.07-1,0.61,0.61,0,0,0-.62-0.38,0.89,0.89,0,0,0-.73.4,2.19,2.19,0,0,0-.39,1v0.08Z"/><path class="cls-8" d="M389.41,113.82a1.66,1.66,0,0,1,.52-0.44,1.34,1.34,0,0,1,.63-0.15,0.91,0.91,0,0,1,.79.36,1.42,1.42,0,0,1,.11,1.1L391,117.08h-0.68l0.48-2.38a1,1,0,0,0,0-.73,0.59,0.59,0,0,0-.52-0.19,0.92,0.92,0,0,0-.49.15,1.51,1.51,0,0,0-.42.4l-0.55,2.75h-0.68l0.76-3.79h0.61Z"/><rect class="cls-19" x="241.1" y="56.86" width="79.38" height="17.93"/><path class="cls-8" d="M249.53,66.35v0a2.48,2.48,0,0,1-.69,1.18,1.78,1.78,0,0,1-1.25.43,1.46,1.46,0,0,1-1.24-.64,1.89,1.89,0,0,1-.28-1.56l0.18-.91a3,3,0,0,1,.75-1.57,1.85,1.85,0,0,1,1.37-.56,1.53,1.53,0,0,1,1.19.48,1.47,1.47,0,0,1,.34,1.24v0h-0.65a1.3,1.3,0,0,0-.2-0.87,0.87,0.87,0,0,0-.75-0.32,1.09,1.09,0,0,0-.86.45,2.5,2.5,0,0,0-.51,1.13l-0.19.92a1.71,1.71,0,0,0,.11,1.19,0.86,0.86,0,0,0,.8.46,1,1,0,0,0,.74-0.27,2,2,0,0,0,.46-0.83h0.65Z"/><path class="cls-8" d="M251.33,64.59a1.7,1.7,0,0,1,.52-0.39,1.39,1.39,0,0,1,.6-0.14,0.9,0.9,0,0,1,.79.37,1.45,1.45,0,0,1,.11,1.11l-0.48,2.37H252.2l0.48-2.38a1,1,0,0,0,0-.71,0.56,0.56,0,0,0-.51-0.21,1,1,0,0,0-.48.14,1.59,1.59,0,0,0-.43.37l-0.56,2.79H250l1.09-5.46h0.68Z"/><path class="cls-8" d="M254,66a2.55,2.55,0,0,1,.64-1.4,1.64,1.64,0,0,1,1.24-.53,1.18,1.18,0,0,1,1.06.55,1.92,1.92,0,0,1,.22,1.38v0.08a2.56,2.56,0,0,1-.65,1.4,1.65,1.65,0,0,1-1.24.52,1.18,1.18,0,0,1-1.06-.55,1.91,1.91,0,0,1-.21-1.38V66Zm0.67,0.08a1.83,1.83,0,0,0,.06,1,0.61,0.61,0,0,0,.62.38,0.89,0.89,0,0,0,.73-0.4,2.18,2.18,0,0,0,.4-1V66a1.83,1.83,0,0,0-.07-1,0.61,0.61,0,0,0-.62-0.38,0.89,0.89,0,0,0-.73.4,2.19,2.19,0,0,0-.39,1v0.08Z"/><path class="cls-8" d="M257.88,66a2.55,2.55,0,0,1,.64-1.4,1.64,1.64,0,0,1,1.24-.53,1.18,1.18,0,0,1,1.06.55A1.92,1.92,0,0,1,261,66v0.08a2.56,2.56,0,0,1-.65,1.4,1.65,1.65,0,0,1-1.24.52,1.18,1.18,0,0,1-1.06-.55,1.91,1.91,0,0,1-.21-1.38V66Zm0.67,0.08a1.83,1.83,0,0,0,.06,1,0.61,0.61,0,0,0,.62.38A0.89,0.89,0,0,0,260,67a2.18,2.18,0,0,0,.4-1V66a1.83,1.83,0,0,0-.07-1,0.61,0.61,0,0,0-.62-0.38,0.89,0.89,0,0,0-.73.4,2.19,2.19,0,0,0-.39,1v0.08Z"/><path class="cls-8" d="M263.75,66.91a0.42,0.42,0,0,0-.09-0.38,1.2,1.2,0,0,0-.55-0.25,2.11,2.11,0,0,1-.91-0.41,0.72,0.72,0,0,1-.21-0.7,1.22,1.22,0,0,1,.49-0.8,1.62,1.62,0,0,1,1-.32,1.2,1.2,0,0,1,.92.34,0.89,0.89,0,0,1,.23.82v0H264a0.55,0.55,0,0,0-.11-0.45,0.55,0.55,0,0,0-.46-0.19,0.77,0.77,0,0,0-.51.16,0.62,0.62,0,0,0-.23.39,0.4,0.4,0,0,0,.08.36,1.27,1.27,0,0,0,.55.23,2.07,2.07,0,0,1,.93.42,0.75,0.75,0,0,1,.21.71,1.2,1.2,0,0,1-.51.82,1.77,1.77,0,0,1-1,.3,1.29,1.29,0,0,1-1-.37,0.92,0.92,0,0,1-.25-0.85v0h0.65a0.56,0.56,0,0,0,.16.53,0.77,0.77,0,0,0,.51.17,0.93,0.93,0,0,0,.54-0.15A0.57,0.57,0,0,0,263.75,66.91Z"/><path class="cls-8" d="M266.56,68a1.23,1.23,0,0,1-1.08-.53,1.82,1.82,0,0,1-.23-1.36l0-.15a2.37,2.37,0,0,1,.66-1.36,1.62,1.62,0,0,1,1.15-.52,1.1,1.1,0,0,1,1,.47,1.73,1.73,0,0,1,.18,1.23l-0.07.43h-2.28a1.51,1.51,0,0,0,.11.92,0.65,0.65,0,0,0,.63.34,1.63,1.63,0,0,0,1-.37l0.19,0.45a1.74,1.74,0,0,1-.55.33A2.08,2.08,0,0,1,266.56,68ZM267,64.6a0.79,0.79,0,0,0-.57.29,1.7,1.7,0,0,0-.39.73v0h1.56V65.55a1.07,1.07,0,0,0-.08-0.69A0.56,0.56,0,0,0,267,64.6Z"/><path class="cls-8" d="M271.68,66.51l0,0.43h0l1.41-2.82h0.75l-2.35,4.37a2.72,2.72,0,0,1-.53.67,1,1,0,0,1-.73.28l-0.2,0-0.19,0,0.18-.54h0.29a0.51,0.51,0,0,0,.37-0.21,2.3,2.3,0,0,0,.3-0.42l0.23-.4-0.56-3.71h0.76Z"/><path class="cls-8" d="M273.88,66a2.55,2.55,0,0,1,.64-1.4,1.64,1.64,0,0,1,1.24-.53,1.18,1.18,0,0,1,1.06.55A1.92,1.92,0,0,1,277,66v0.08a2.56,2.56,0,0,1-.65,1.4,1.65,1.65,0,0,1-1.24.52,1.18,1.18,0,0,1-1.06-.55,1.91,1.91,0,0,1-.21-1.38V66Zm0.67,0.08a1.83,1.83,0,0,0,.06,1,0.61,0.61,0,0,0,.62.38A0.89,0.89,0,0,0,276,67a2.18,2.18,0,0,0,.4-1V66a1.83,1.83,0,0,0-.07-1,0.61,0.61,0,0,0-.62-0.38,0.89,0.89,0,0,0-.73.4,2.19,2.19,0,0,0-.39,1v0.08Z"/><path class="cls-8" d="M279.77,67.92l0.06-.52a1.57,1.57,0,0,1-.51.44,1.32,1.32,0,0,1-.62.15,0.89,0.89,0,0,1-.8-0.4,1.67,1.67,0,0,1-.1-1.23l0.44-2.23h0.68l-0.45,2.24a1.45,1.45,0,0,0,0,.85,0.48,0.48,0,0,0,.46.21,1.07,1.07,0,0,0,.57-0.15,1.32,1.32,0,0,0,.43-0.43l0.54-2.72h0.68l-0.76,3.79h-0.61Z"/><path class="cls-8" d="M283.68,64.74l-0.37,0a0.74,0.74,0,0,0-.42.13,1.16,1.16,0,0,0-.34.37L282,67.92h-0.68l0.76-3.79h0.61l0,0.51a1.51,1.51,0,0,1,.44-0.43,1,1,0,0,1,.53-0.15h0.15l0.12,0Z"/><path class="cls-8" d="M287.25,63.21l-0.19.91h0.65l-0.1.51H287l-0.46,2.3a0.51,0.51,0,0,0,0,.38,0.3,0.3,0,0,0,.25.1l0.19,0,0.18,0v0.47a0.93,0.93,0,0,1-.29.1,1.75,1.75,0,0,1-.37,0,0.67,0.67,0,0,1-.57-0.26,1,1,0,0,1-.09-0.79l0.46-2.3h-0.55l0.1-.51h0.55l0.19-.91h0.68Z"/><path class="cls-8" d="M290.15,64.74l-0.37,0a0.74,0.74,0,0,0-.42.13,1.16,1.16,0,0,0-.34.37l-0.54,2.7H287.8l0.76-3.79h0.61l0,0.51a1.51,1.51,0,0,1,.44-0.43,1,1,0,0,1,.53-0.15h0.15l0.12,0Z"/><path class="cls-8" d="M292.34,67.92c0-.11,0-0.21,0-0.28s0-.15,0-0.23a2.18,2.18,0,0,1-.54.42,1.25,1.25,0,0,1-.61.17,0.92,0.92,0,0,1-.76-0.31,1,1,0,0,1-.14-0.83,1.26,1.26,0,0,1,.57-0.87,2.15,2.15,0,0,1,1.17-.29h0.65l0.07-.37a0.64,0.64,0,0,0-.08-0.54,0.59,0.59,0,0,0-.49-0.18,0.88,0.88,0,0,0-.53.17,0.66,0.66,0,0,0-.28.4h-0.64v0a1.19,1.19,0,0,1,.53-0.77,1.79,1.79,0,0,1,1.08-.33,1.19,1.19,0,0,1,.89.33,1,1,0,0,1,.21.94l-0.36,1.82a3.56,3.56,0,0,0-.06.4,1.93,1.93,0,0,0,0,.37h-0.7Zm-0.9-.5a1.18,1.18,0,0,0,.58-0.16,1.37,1.37,0,0,0,.46-0.39l0.14-.7h-0.67a1,1,0,0,0-.62.21,0.81,0.81,0,0,0-.33.49,0.48,0.48,0,0,0,.05.41A0.48,0.48,0,0,0,291.44,67.41Z"/><path class="cls-8" d="M294.12,66a3.19,3.19,0,0,1,.62-1.47,1.38,1.38,0,0,1,1.09-.49,1.14,1.14,0,0,1,.53.12,1,1,0,0,1,.39.34l0.41-2.07h0.68l-1.09,5.46h-0.58l0-.36a1.45,1.45,0,0,1-.46.33,1.37,1.37,0,0,1-.55.11,1,1,0,0,1-.92-0.55,1.91,1.91,0,0,1-.15-1.35V66Zm0.67,0.07a1.58,1.58,0,0,0,0,1,0.63,0.63,0,0,0,.63.37,0.76,0.76,0,0,0,.45-0.14,1.4,1.4,0,0,0,.36-0.39l0.36-1.79a0.81,0.81,0,0,0-.27-0.36,0.76,0.76,0,0,0-.46-0.13,0.83,0.83,0,0,0-.7.38,2.59,2.59,0,0,0-.4,1V66.1Z"/><path class="cls-8" d="M299.25,68a1.23,1.23,0,0,1-1.08-.53,1.82,1.82,0,0,1-.23-1.36l0-.15a2.37,2.37,0,0,1,.66-1.36,1.62,1.62,0,0,1,1.15-.52,1.1,1.1,0,0,1,1,.47,1.73,1.73,0,0,1,.18,1.23l-0.07.43H298.6a1.51,1.51,0,0,0,.11.92,0.65,0.65,0,0,0,.63.34,1.63,1.63,0,0,0,1-.37l0.19,0.45a1.74,1.74,0,0,1-.55.33A2.08,2.08,0,0,1,299.25,68Zm0.44-3.39a0.79,0.79,0,0,0-.57.29,1.7,1.7,0,0,0-.39.73v0h1.56V65.55a1.07,1.07,0,0,0-.08-0.69A0.56,0.56,0,0,0,299.69,64.6Z"/><path class="cls-8" d="M304.84,63.21l-0.19.91h0.65l-0.1.51h-0.65l-0.46,2.3a0.51,0.51,0,0,0,0,.38,0.3,0.3,0,0,0,.25.1l0.19,0,0.18,0v0.47a0.93,0.93,0,0,1-.29.1,1.75,1.75,0,0,1-.37,0,0.67,0.67,0,0,1-.57-0.26,1,1,0,0,1-.09-0.79l0.46-2.3h-0.55l0.1-.51H304l0.19-.91h0.68Z"/><path class="cls-8" d="M306.76,66.51l0,0.43h0l1.41-2.82H309l-2.35,4.37a2.72,2.72,0,0,1-.53.67,1,1,0,0,1-.73.28l-0.2,0-0.19,0,0.18-.54h0.29a0.51,0.51,0,0,0,.37-0.21,2.3,2.3,0,0,0,.3-0.42l0.23-.4-0.56-3.71h0.76Z"/><path class="cls-8" d="M312.16,66.24a2.64,2.64,0,0,1-.59,1.31,1.4,1.4,0,0,1-1.07.44,1.26,1.26,0,0,1-.55-0.12,1,1,0,0,1-.4-0.34l-0.37,1.83h-0.68l1-5.24h0.58l0,0.37a1.48,1.48,0,0,1,.47-0.33,1.39,1.39,0,0,1,.56-0.11,1,1,0,0,1,.91.61,2.34,2.34,0,0,1,.12,1.5v0.07Zm-0.66-.08a2,2,0,0,0,0-1.11,0.63,0.63,0,0,0-.63-0.43,0.75,0.75,0,0,0-.43.14,1.39,1.39,0,0,0-.36.37L309.66,67a0.75,0.75,0,0,0,.27.34,0.81,0.81,0,0,0,.47.12,0.87,0.87,0,0,0,.69-0.33,2,2,0,0,0,.39-0.89V66.16Z"/><path class="cls-8" d="M314.16,68a1.23,1.23,0,0,1-1.08-.53,1.82,1.82,0,0,1-.23-1.36l0-.15a2.37,2.37,0,0,1,.66-1.36,1.62,1.62,0,0,1,1.15-.52,1.1,1.1,0,0,1,1,.47,1.73,1.73,0,0,1,.18,1.23l-0.07.43h-2.28a1.51,1.51,0,0,0,.11.92,0.65,0.65,0,0,0,.63.34,1.63,1.63,0,0,0,1-.37l0.19,0.45a1.74,1.74,0,0,1-.55.33A2.08,2.08,0,0,1,314.16,68Zm0.44-3.39a0.79,0.79,0,0,0-.57.29,1.7,1.7,0,0,0-.39.73v0h1.56V65.55a1.07,1.07,0,0,0-.08-0.69A0.56,0.56,0,0,0,314.6,64.6Z"/><line class="cls-17" x1="214.5" y1="20" x2="214.5" y2="34"/><polyline class="cls-18" points="216.55 32.38 214.25 34.68 211.96 32.38"/><rect class="cls-19" x="174.6" y="4.37" width="79.38" height="17.93"/><path class="cls-8" d="M182.42,13.87v0a2.47,2.47,0,0,1-.69,1.18,1.78,1.78,0,0,1-1.25.43,1.46,1.46,0,0,1-1.24-.64,1.89,1.89,0,0,1-.28-1.56l0.18-.91a3,3,0,0,1,.75-1.57,1.85,1.85,0,0,1,1.37-.56,1.53,1.53,0,0,1,1.19.48,1.48,1.48,0,0,1,.34,1.24v0h-0.65a1.31,1.31,0,0,0-.2-0.87,0.87,0.87,0,0,0-.75-0.32,1.09,1.09,0,0,0-.86.45,2.51,2.51,0,0,0-.51,1.13l-0.19.92a1.71,1.71,0,0,0,.11,1.19,0.86,0.86,0,0,0,.8.46,1,1,0,0,0,.74-0.27,2,2,0,0,0,.46-0.83h0.65Z"/><path class="cls-8" d="M184.22,12.1a1.7,1.7,0,0,1,.52-0.39,1.38,1.38,0,0,1,.6-0.14,0.9,0.9,0,0,1,.79.37,1.44,1.44,0,0,1,.11,1.11l-0.48,2.37H185.1l0.48-2.38a1,1,0,0,0,0-.71,0.56,0.56,0,0,0-.51-0.21,1,1,0,0,0-.48.14,1.6,1.6,0,0,0-.43.37l-0.56,2.79h-0.68L184,10h0.68Z"/><path class="cls-8" d="M186.94,13.5a2.56,2.56,0,0,1,.64-1.4,1.65,1.65,0,0,1,1.24-.53,1.17,1.17,0,0,1,1.06.55,1.92,1.92,0,0,1,.22,1.38v0.08a2.57,2.57,0,0,1-.65,1.4,1.65,1.65,0,0,1-1.24.52,1.17,1.17,0,0,1-1.06-.55,1.9,1.9,0,0,1-.22-1.38V13.5Zm0.67,0.08a1.83,1.83,0,0,0,.06,1,0.61,0.61,0,0,0,.62.38,0.89,0.89,0,0,0,.73-0.4,2.18,2.18,0,0,0,.4-1V13.5a1.83,1.83,0,0,0-.07-1,0.61,0.61,0,0,0-.62-0.38,0.89,0.89,0,0,0-.73.4,2.2,2.2,0,0,0-.39,1v0.08Z"/><path class="cls-8" d="M190.78,13.5a2.56,2.56,0,0,1,.64-1.4,1.65,1.65,0,0,1,1.24-.53,1.17,1.17,0,0,1,1.06.55,1.92,1.92,0,0,1,.22,1.38v0.08a2.57,2.57,0,0,1-.65,1.4,1.65,1.65,0,0,1-1.24.52A1.17,1.17,0,0,1,191,15a1.9,1.9,0,0,1-.22-1.38V13.5Zm0.67,0.08a1.83,1.83,0,0,0,.06,1,0.61,0.61,0,0,0,.62.38,0.89,0.89,0,0,0,.73-0.4,2.18,2.18,0,0,0,.4-1V13.5a1.83,1.83,0,0,0-.07-1,0.61,0.61,0,0,0-.62-0.38,0.89,0.89,0,0,0-.73.4,2.2,2.2,0,0,0-.39,1v0.08Z"/><path class="cls-8" d="M196.65,14.43a0.42,0.42,0,0,0-.09-0.38A1.2,1.2,0,0,0,196,13.8a2.12,2.12,0,0,1-.91-0.41,0.72,0.72,0,0,1-.22-0.7,1.22,1.22,0,0,1,.49-0.8,1.62,1.62,0,0,1,1-.32,1.2,1.2,0,0,1,.92.34,0.89,0.89,0,0,1,.23.82v0h-0.65a0.54,0.54,0,0,0-.57-0.64,0.77,0.77,0,0,0-.51.16,0.62,0.62,0,0,0-.23.39,0.39,0.39,0,0,0,.08.36,1.27,1.27,0,0,0,.55.23,2.08,2.08,0,0,1,.93.42,0.75,0.75,0,0,1,.21.71,1.2,1.2,0,0,1-.51.82,1.77,1.77,0,0,1-1.05.3,1.29,1.29,0,0,1-1-.37,0.93,0.93,0,0,1-.25-0.85v0h0.65a0.56,0.56,0,0,0,.16.53,0.77,0.77,0,0,0,.51.17,0.93,0.93,0,0,0,.54-0.15A0.57,0.57,0,0,0,196.65,14.43Z"/><path class="cls-8" d="M199.45,15.51a1.23,1.23,0,0,1-1.08-.53,1.82,1.82,0,0,1-.23-1.36l0-.15a2.37,2.37,0,0,1,.66-1.36,1.61,1.61,0,0,1,1.15-.52,1.1,1.1,0,0,1,1,.47,1.73,1.73,0,0,1,.18,1.23l-0.07.43H198.8a1.51,1.51,0,0,0,.11.92,0.65,0.65,0,0,0,.63.34,1.61,1.61,0,0,0,.58-0.1,1.63,1.63,0,0,0,.47-0.27L200.78,15a1.73,1.73,0,0,1-.55.33A2.08,2.08,0,0,1,199.45,15.51Zm0.44-3.39a0.79,0.79,0,0,0-.57.29,1.71,1.71,0,0,0-.39.73v0h1.56V13.07a1.06,1.06,0,0,0-.08-0.69A0.56,0.56,0,0,0,199.89,12.12Z"/><path class="cls-8" d="M204.57,14l0,0.43h0L206,11.64h0.75L204.42,16a2.72,2.72,0,0,1-.53.67,1,1,0,0,1-.73.28l-0.2,0-0.19,0,0.18-.54h0.29a0.51,0.51,0,0,0,.37-0.21,2.3,2.3,0,0,0,.3-0.42l0.23-.4-0.56-3.71h0.76Z"/><path class="cls-8" d="M206.77,13.5a2.55,2.55,0,0,1,.64-1.4,1.64,1.64,0,0,1,1.24-.53,1.18,1.18,0,0,1,1.06.55,1.92,1.92,0,0,1,.22,1.38v0.08a2.56,2.56,0,0,1-.65,1.4,1.65,1.65,0,0,1-1.24.52A1.18,1.18,0,0,1,207,15a1.91,1.91,0,0,1-.21-1.38V13.5Zm0.67,0.08a1.83,1.83,0,0,0,.06,1,0.61,0.61,0,0,0,.62.38,0.89,0.89,0,0,0,.73-0.4,2.18,2.18,0,0,0,.4-1V13.5a1.83,1.83,0,0,0-.07-1,0.61,0.61,0,0,0-.62-0.38,0.89,0.89,0,0,0-.73.4,2.19,2.19,0,0,0-.39,1v0.08Z"/><path class="cls-8" d="M212.66,15.43l0.06-.52a1.57,1.57,0,0,1-.51.44,1.32,1.32,0,0,1-.62.15,0.89,0.89,0,0,1-.8-0.4,1.67,1.67,0,0,1-.1-1.23l0.44-2.23h0.68l-0.45,2.24a1.45,1.45,0,0,0,0,.85,0.48,0.48,0,0,0,.46.21,1.07,1.07,0,0,0,.57-0.15,1.32,1.32,0,0,0,.43-0.43l0.54-2.72H214l-0.76,3.79h-0.61Z"/><path class="cls-8" d="M216.58,12.25l-0.37,0a0.74,0.74,0,0,0-.42.13,1.16,1.16,0,0,0-.34.37l-0.54,2.7h-0.68L215,11.64h0.61l0,0.51a1.51,1.51,0,0,1,.44-0.43,1,1,0,0,1,.53-0.15h0.15l0.12,0Z"/><path class="cls-8" d="M220.57,15.43l0.06-.52a1.57,1.57,0,0,1-.51.44,1.32,1.32,0,0,1-.62.15,0.89,0.89,0,0,1-.8-0.4,1.67,1.67,0,0,1-.1-1.23L219,11.64h0.68l-0.45,2.24a1.45,1.45,0,0,0,0,.85,0.48,0.48,0,0,0,.46.21,1.07,1.07,0,0,0,.57-0.15,1.32,1.32,0,0,0,.43-0.43l0.54-2.72h0.68l-0.76,3.79h-0.61Z"/><path class="cls-8" d="M223.44,12.17a1.66,1.66,0,0,1,.52-0.44,1.34,1.34,0,0,1,.63-0.15,0.91,0.91,0,0,1,.79.36,1.42,1.42,0,0,1,.11,1.1L225,15.43h-0.68l0.48-2.38a1,1,0,0,0,0-.73,0.59,0.59,0,0,0-.52-0.19,0.92,0.92,0,0,0-.49.15,1.51,1.51,0,0,0-.42.4l-0.55,2.75h-0.68l0.76-3.79h0.61Z"/><path class="cls-8" d="M226.21,13.54a3.19,3.19,0,0,1,.62-1.47,1.38,1.38,0,0,1,1.09-.49,1.14,1.14,0,0,1,.53.12,1,1,0,0,1,.39.34L229.25,10h0.68l-1.09,5.46h-0.58l0-.36a1.45,1.45,0,0,1-.46.33,1.37,1.37,0,0,1-.55.11,1,1,0,0,1-.92-0.55,1.91,1.91,0,0,1-.15-1.35V13.54Zm0.67,0.07a1.58,1.58,0,0,0,0,1,0.63,0.63,0,0,0,.63.37,0.76,0.76,0,0,0,.45-0.14,1.4,1.4,0,0,0,.36-0.39l0.36-1.79a0.81,0.81,0,0,0-.27-0.36,0.76,0.76,0,0,0-.46-0.13,0.83,0.83,0,0,0-.7.38,2.59,2.59,0,0,0-.4,1v0.07Z"/><path class="cls-8" d="M231.34,15.51a1.23,1.23,0,0,1-1.08-.53,1.82,1.82,0,0,1-.23-1.36l0-.15a2.37,2.37,0,0,1,.66-1.36,1.62,1.62,0,0,1,1.15-.52,1.1,1.1,0,0,1,1,.47,1.73,1.73,0,0,1,.18,1.23L233,13.7h-2.28a1.51,1.51,0,0,0,.11.92,0.65,0.65,0,0,0,.63.34,1.63,1.63,0,0,0,1-.37L232.66,15a1.74,1.74,0,0,1-.55.33A2.08,2.08,0,0,1,231.34,15.51Zm0.44-3.39a0.79,0.79,0,0,0-.57.29,1.7,1.7,0,0,0-.39.73v0h1.56V13.07a1.07,1.07,0,0,0-.08-0.69A0.56,0.56,0,0,0,231.77,12.12Z"/><path class="cls-8" d="M235.74,12.25l-0.37,0a0.74,0.74,0,0,0-.42.13,1.16,1.16,0,0,0-.34.37l-0.54,2.7h-0.68l0.76-3.79h0.61l0,0.51a1.51,1.51,0,0,1,.44-0.43,1,1,0,0,1,.53-0.15h0.15l0.12,0Z"/><path class="cls-8" d="M236.49,15.43h-0.68L236.91,10h0.68Z"/><path class="cls-8" d="M238.87,14l0,0.43h0l1.41-2.82h0.75L238.72,16a2.72,2.72,0,0,1-.53.67,1,1,0,0,1-.73.28l-0.2,0-0.19,0,0.18-.54h0.29a0.51,0.51,0,0,0,.37-0.21,2.3,2.3,0,0,0,.3-0.42l0.23-.4-0.56-3.71h0.76Z"/><path class="cls-8" d="M241.63,15.43H241l0.76-3.79h0.68Zm1-4.76h-0.68L242,10h0.68Z"/><path class="cls-8" d="M243.94,12.17a1.66,1.66,0,0,1,.52-0.44,1.34,1.34,0,0,1,.63-0.15,0.91,0.91,0,0,1,.79.36A1.42,1.42,0,0,1,246,13l-0.48,2.39h-0.68l0.48-2.38a1,1,0,0,0,0-.73,0.59,0.59,0,0,0-.52-0.19,0.92,0.92,0,0,0-.49.15,1.51,1.51,0,0,0-.42.4l-0.55,2.75h-0.68l0.76-3.79H244Z"/><path class="cls-8" d="M246.72,13.54a3.15,3.15,0,0,1,.63-1.47,1.4,1.4,0,0,1,1.1-.5,1.13,1.13,0,0,1,.56.14,1.06,1.06,0,0,1,.4.39l0.15-.46h0.57l-0.75,3.74a2,2,0,0,1-.63,1.18,1.85,1.85,0,0,1-1.23.4,2.11,2.11,0,0,1-.53-0.08,1.66,1.66,0,0,1-.48-0.2l0.28-.54a1.16,1.16,0,0,0,.38.17,1.74,1.74,0,0,0,.47.06,1,1,0,0,0,.7-0.26,1.34,1.34,0,0,0,.37-0.73l0.05-.26a1.36,1.36,0,0,1-1,.38,1,1,0,0,1-.93-0.55,1.88,1.88,0,0,1-.16-1.35V13.54Zm0.66,0.07a1.53,1.53,0,0,0,.05,1,0.64,0.64,0,0,0,.64.37,0.76,0.76,0,0,0,.45-0.14,1.44,1.44,0,0,0,.37-0.4l0.35-1.76a0.84,0.84,0,0,0-.28-0.36,0.75,0.75,0,0,0-.46-0.14,0.84,0.84,0,0,0-.7.38,2.53,2.53,0,0,0-.41,1v0.07Z"/><line class="cls-17" x1="71" y1="44.5" x2="92" y2="44.5"/><polyline class="cls-18" points="90.67 42.03 92.96 44.32 90.67 46.62"/><rect class="cls-19" x="5" y="35.35" width="71.7" height="17.93"/><path class="cls-8" d="M14.33,44.84v0A2.47,2.47,0,0,1,13.65,46a1.78,1.78,0,0,1-1.25.43,1.46,1.46,0,0,1-1.24-.64,1.89,1.89,0,0,1-.28-1.56l0.18-.91a3,3,0,0,1,.75-1.57,1.85,1.85,0,0,1,1.37-.56,1.53,1.53,0,0,1,1.19.48A1.48,1.48,0,0,1,14.72,43v0H14.06a1.31,1.31,0,0,0-.2-0.87,0.87,0.87,0,0,0-.75-0.32,1.09,1.09,0,0,0-.86.45,2.51,2.51,0,0,0-.51,1.13l-0.19.92a1.71,1.71,0,0,0,.11,1.19,0.86,0.86,0,0,0,.8.46,1,1,0,0,0,.74-0.27,2,2,0,0,0,.46-0.83h0.65Z"/><path class="cls-8" d="M16.13,43.08a1.7,1.7,0,0,1,.52-0.39,1.38,1.38,0,0,1,.6-0.14,0.9,0.9,0,0,1,.79.37A1.44,1.44,0,0,1,18.16,44l-0.48,2.37H17L17.48,44a1,1,0,0,0,0-.71,0.56,0.56,0,0,0-.51-0.21,1,1,0,0,0-.48.14,1.6,1.6,0,0,0-.43.37l-0.56,2.79H14.79l1.09-5.46h0.68Z"/><path class="cls-8" d="M18.85,44.48a2.56,2.56,0,0,1,.64-1.4,1.65,1.65,0,0,1,1.24-.53,1.17,1.17,0,0,1,1.06.55A1.92,1.92,0,0,1,22,44.48v0.08a2.57,2.57,0,0,1-.65,1.4,1.65,1.65,0,0,1-1.24.52,1.17,1.17,0,0,1-1.06-.55,1.9,1.9,0,0,1-.22-1.38V44.48Zm0.67,0.08a1.83,1.83,0,0,0,.06,1,0.61,0.61,0,0,0,.62.38,0.89,0.89,0,0,0,.73-0.4,2.18,2.18,0,0,0,.4-1V44.47a1.83,1.83,0,0,0-.07-1,0.61,0.61,0,0,0-.62-0.38,0.89,0.89,0,0,0-.73.4,2.2,2.2,0,0,0-.39,1v0.08Z"/><path class="cls-8" d="M22.68,44.48a2.56,2.56,0,0,1,.64-1.4,1.65,1.65,0,0,1,1.24-.53,1.17,1.17,0,0,1,1.06.55,1.92,1.92,0,0,1,.22,1.38v0.08a2.57,2.57,0,0,1-.65,1.4,1.65,1.65,0,0,1-1.24.52,1.17,1.17,0,0,1-1.06-.55,1.9,1.9,0,0,1-.22-1.38V44.48Zm0.67,0.08a1.83,1.83,0,0,0,.06,1,0.61,0.61,0,0,0,.62.38,0.89,0.89,0,0,0,.73-0.4,2.18,2.18,0,0,0,.4-1V44.47a1.83,1.83,0,0,0-.07-1,0.61,0.61,0,0,0-.62-0.38,0.89,0.89,0,0,0-.73.4,2.2,2.2,0,0,0-.39,1v0.08Z"/><path class="cls-8" d="M28.55,45.4A0.42,0.42,0,0,0,28.46,45a1.2,1.2,0,0,0-.55-0.25A2.12,2.12,0,0,1,27,44.36a0.72,0.72,0,0,1-.22-0.7,1.22,1.22,0,0,1,.49-0.8,1.62,1.62,0,0,1,1-.32,1.2,1.2,0,0,1,.92.34,0.89,0.89,0,0,1,.23.82v0H28.78a0.54,0.54,0,0,0-.57-0.64,0.77,0.77,0,0,0-.51.16,0.62,0.62,0,0,0-.23.39,0.39,0.39,0,0,0,.08.36,1.27,1.27,0,0,0,.55.23,2.08,2.08,0,0,1,.93.42,0.75,0.75,0,0,1,.21.71,1.2,1.2,0,0,1-.51.82,1.77,1.77,0,0,1-1.05.3,1.29,1.29,0,0,1-1-.37,0.93,0.93,0,0,1-.25-0.85v0h0.65a0.56,0.56,0,0,0,.16.53,0.77,0.77,0,0,0,.51.17,0.93,0.93,0,0,0,.54-0.15A0.57,0.57,0,0,0,28.55,45.4Z"/><path class="cls-8" d="M31.36,46.48a1.23,1.23,0,0,1-1.08-.53A1.82,1.82,0,0,1,30,44.58l0-.15a2.37,2.37,0,0,1,.66-1.36,1.61,1.61,0,0,1,1.15-.52,1.1,1.1,0,0,1,1,.47,1.73,1.73,0,0,1,.18,1.23L33,44.68H30.71a1.51,1.51,0,0,0,.11.92,0.65,0.65,0,0,0,.63.34,1.61,1.61,0,0,0,.58-0.1,1.63,1.63,0,0,0,.47-0.27L32.68,46a1.73,1.73,0,0,1-.55.33A2.08,2.08,0,0,1,31.36,46.48Zm0.44-3.39a0.79,0.79,0,0,0-.57.29,1.71,1.71,0,0,0-.39.73v0H32.4V44a1.06,1.06,0,0,0-.08-0.69A0.56,0.56,0,0,0,31.8,43.09Z"/><path class="cls-8" d="M36.48,45l0,0.43h0l1.41-2.82h0.75L36.33,47a2.75,2.75,0,0,1-.52.67,1,1,0,0,1-.73.28l-0.2,0-0.19,0,0.18-.54h0.29a0.51,0.51,0,0,0,.37-0.21,2.26,2.26,0,0,0,.3-0.42l0.23-.4-0.56-3.71h0.76Z"/><path class="cls-8" d="M38.68,44.48a2.56,2.56,0,0,1,.64-1.4,1.65,1.65,0,0,1,1.24-.53,1.17,1.17,0,0,1,1.06.55,1.92,1.92,0,0,1,.22,1.38v0.08a2.57,2.57,0,0,1-.65,1.4,1.65,1.65,0,0,1-1.24.52,1.17,1.17,0,0,1-1.06-.55,1.9,1.9,0,0,1-.22-1.38V44.48Zm0.67,0.08a1.83,1.83,0,0,0,.06,1,0.61,0.61,0,0,0,.62.38,0.89,0.89,0,0,0,.73-0.4,2.18,2.18,0,0,0,.4-1V44.47a1.83,1.83,0,0,0-.07-1,0.61,0.61,0,0,0-.62-0.38,0.89,0.89,0,0,0-.73.4,2.2,2.2,0,0,0-.39,1v0.08Z"/><path class="cls-8" d="M44.57,46.41l0.06-.52a1.57,1.57,0,0,1-.51.44,1.32,1.32,0,0,1-.62.15,0.89,0.89,0,0,1-.8-0.4,1.67,1.67,0,0,1-.1-1.23L43,42.62h0.68l-0.45,2.24a1.46,1.46,0,0,0,0,.85,0.49,0.49,0,0,0,.47.21,1.07,1.07,0,0,0,.57-0.15,1.33,1.33,0,0,0,.43-0.43l0.54-2.72h0.68l-0.76,3.79H44.57Z"/><path class="cls-8" d="M48.48,43.23l-0.37,0a0.74,0.74,0,0,0-.43.13,1.16,1.16,0,0,0-.34.37l-0.54,2.7H46.13l0.76-3.79H47.5l0,0.51a1.51,1.51,0,0,1,.44-0.43,1,1,0,0,1,.53-0.15h0.15l0.12,0Z"/><path class="cls-8" d="M51.53,43.07A1.53,1.53,0,0,1,52,42.68a1.5,1.5,0,0,1,.64-0.14,0.84,0.84,0,0,1,.54.17,0.84,0.84,0,0,1,.29.51,1.68,1.68,0,0,1,.53-0.5,1.32,1.32,0,0,1,.68-0.18,0.82,0.82,0,0,1,.75.4,1.67,1.67,0,0,1,.09,1.19l-0.45,2.27H54.43l0.46-2.27a1.33,1.33,0,0,0,0-.81,0.51,0.51,0,0,0-.48-0.21,0.76,0.76,0,0,0-.54.25,1.49,1.49,0,0,0-.37.62h0L53,46.41H52.32l0.46-2.27a1.28,1.28,0,0,0,0-.8,0.49,0.49,0,0,0-.48-0.23,0.86,0.86,0,0,0-.48.13,1.19,1.19,0,0,0-.36.37l-0.56,2.79H50.21L51,42.62h0.6Z"/><path class="cls-8" d="M58.22,46.41c0-.11,0-0.21,0-0.28s0-.15,0-0.23a2.16,2.16,0,0,1-.54.42,1.25,1.25,0,0,1-.61.17,0.92,0.92,0,0,1-.76-0.31,1,1,0,0,1-.14-0.83,1.26,1.26,0,0,1,.57-0.87,2.15,2.15,0,0,1,1.17-.29h0.65l0.07-.37a0.64,0.64,0,0,0-.08-0.54,0.59,0.59,0,0,0-.49-0.18,0.88,0.88,0,0,0-.53.17,0.66,0.66,0,0,0-.28.4H56.64v0a1.19,1.19,0,0,1,.53-0.77,1.79,1.79,0,0,1,1.09-.33,1.19,1.19,0,0,1,.89.33,1,1,0,0,1,.21.94L59,45.64a3.57,3.57,0,0,0-.06.4,1.93,1.93,0,0,0,0,.37h-0.7Zm-0.9-.5a1.18,1.18,0,0,0,.58-0.16,1.37,1.37,0,0,0,.46-0.39l0.14-.7H57.82a1,1,0,0,0-.62.21,0.81,0.81,0,0,0-.33.49,0.48,0.48,0,0,0,.05.41A0.48,0.48,0,0,0,57.32,45.9Z"/><path class="cls-8" d="M62.12,43.23l-0.37,0a0.74,0.74,0,0,0-.43.13,1.16,1.16,0,0,0-.34.37l-0.54,2.7H59.77l0.76-3.79h0.61l0,0.51a1.51,1.51,0,0,1,.44-0.43,1,1,0,0,1,.53-0.15h0.15l0.12,0Z"/><path class="cls-8" d="M63.59,44.65H63.18l-0.35,1.75H62.15l1.09-5.46h0.68l-0.63,3.16h0.41l1.21-1.49h0.78v0l-1.51,1.71,0.95,2.07H64.34Z"/><path class="cls-8" d="M67.07,46.48A1.23,1.23,0,0,1,66,45.95a1.82,1.82,0,0,1-.23-1.36l0-.15a2.37,2.37,0,0,1,.66-1.36,1.61,1.61,0,0,1,1.15-.52,1.1,1.1,0,0,1,1,.47,1.73,1.73,0,0,1,.18,1.23l-0.07.43H66.42a1.51,1.51,0,0,0,.11.92,0.65,0.65,0,0,0,.63.34,1.61,1.61,0,0,0,.58-0.1,1.63,1.63,0,0,0,.47-0.27L68.4,46a1.73,1.73,0,0,1-.55.33A2.08,2.08,0,0,1,67.07,46.48Zm0.44-3.39a0.79,0.79,0,0,0-.57.29,1.71,1.71,0,0,0-.39.73v0h1.56V44a1.06,1.06,0,0,0-.08-0.69A0.56,0.56,0,0,0,67.51,43.09Z"/><path class="cls-8" d="M71,41.7l-0.19.91h0.65l-0.1.51H70.68l-0.46,2.3a0.5,0.5,0,0,0,0,.38,0.29,0.29,0,0,0,.25.1l0.19,0,0.18,0v0.47a0.93,0.93,0,0,1-.29.1,1.75,1.75,0,0,1-.37,0,0.67,0.67,0,0,1-.57-0.26,1,1,0,0,1-.09-0.79L70,43.13H69.45l0.1-.51H70.1l0.19-.91H71Z"/><polyline class="cls-17" points="134 139.5 120.5 139.5 120.5 163.5 134 163.5"/><polyline class="cls-18" points="132.66 137.29 134.96 139.58 132.66 141.88"/><polyline class="cls-18" points="132.66 160.85 134.96 163.14 132.66 165.44"/><line class="cls-17" x1="110" y1="151.5" x2="120" y2="151.5"/><rect class="cls-19" x="39.66" y="142.29" width="71.7" height="17.93"/><path class="cls-8" d="M47.88,151.78v0A2.48,2.48,0,0,1,47.2,153a1.78,1.78,0,0,1-1.25.43,1.46,1.46,0,0,1-1.24-.64,1.89,1.89,0,0,1-.28-1.56l0.18-.91a3,3,0,0,1,.75-1.57,1.85,1.85,0,0,1,1.37-.56,1.53,1.53,0,0,1,1.19.48,1.48,1.48,0,0,1,.34,1.24v0H47.61a1.3,1.3,0,0,0-.2-0.87,0.87,0.87,0,0,0-.75-0.32,1.09,1.09,0,0,0-.86.45,2.51,2.51,0,0,0-.51,1.13l-0.19.92a1.71,1.71,0,0,0,.11,1.19,0.86,0.86,0,0,0,.8.46,1,1,0,0,0,.74-0.27,2,2,0,0,0,.46-0.83h0.65Z"/><path class="cls-8" d="M49.68,150a1.69,1.69,0,0,1,.52-0.39,1.38,1.38,0,0,1,.6-0.14,0.9,0.9,0,0,1,.79.37,1.45,1.45,0,0,1,.11,1.11l-0.48,2.37H50.55L51,151a1,1,0,0,0,0-.71,0.57,0.57,0,0,0-.51-0.21,1,1,0,0,0-.48.14,1.6,1.6,0,0,0-.43.37L49,153.34H48.34l1.09-5.46h0.68Z"/><path class="cls-8" d="M52.4,151.42A2.56,2.56,0,0,1,53,150a1.65,1.65,0,0,1,1.24-.53,1.17,1.17,0,0,1,1.06.55,1.93,1.93,0,0,1,.22,1.38v0.08a2.57,2.57,0,0,1-.65,1.4,1.65,1.65,0,0,1-1.24.52,1.17,1.17,0,0,1-1.06-.55,1.9,1.9,0,0,1-.22-1.38v-0.08Zm0.67,0.08a1.83,1.83,0,0,0,.06,1,0.61,0.61,0,0,0,.62.38,0.89,0.89,0,0,0,.73-0.4,2.18,2.18,0,0,0,.4-1v-0.08a1.83,1.83,0,0,0-.07-1,0.61,0.61,0,0,0-.62-0.38,0.89,0.89,0,0,0-.73.4,2.19,2.19,0,0,0-.39,1v0.08Z"/><path class="cls-8" d="M56.23,151.42a2.56,2.56,0,0,1,.64-1.4,1.65,1.65,0,0,1,1.24-.53,1.17,1.17,0,0,1,1.06.55,1.93,1.93,0,0,1,.22,1.38v0.08a2.57,2.57,0,0,1-.65,1.4,1.65,1.65,0,0,1-1.24.52,1.17,1.17,0,0,1-1.06-.55,1.9,1.9,0,0,1-.22-1.38v-0.08Zm0.67,0.08a1.83,1.83,0,0,0,.06,1,0.61,0.61,0,0,0,.62.38,0.89,0.89,0,0,0,.73-0.4,2.18,2.18,0,0,0,.4-1v-0.08a1.83,1.83,0,0,0-.07-1A0.61,0.61,0,0,0,58,150a0.89,0.89,0,0,0-.73.4,2.19,2.19,0,0,0-.39,1v0.08Z"/><path class="cls-8" d="M62.1,152.34A0.42,0.42,0,0,0,62,152a1.2,1.2,0,0,0-.55-0.25,2.11,2.11,0,0,1-.91-0.41,0.72,0.72,0,0,1-.22-0.7,1.22,1.22,0,0,1,.49-0.8,1.62,1.62,0,0,1,1-.32,1.19,1.19,0,0,1,.92.34,0.89,0.89,0,0,1,.23.82v0H62.33a0.54,0.54,0,0,0-.57-0.64,0.78,0.78,0,0,0-.51.16,0.62,0.62,0,0,0-.23.39,0.39,0.39,0,0,0,.08.36,1.26,1.26,0,0,0,.55.23,2.08,2.08,0,0,1,.93.42,0.75,0.75,0,0,1,.21.71,1.21,1.21,0,0,1-.51.82,1.78,1.78,0,0,1-1.05.3,1.29,1.29,0,0,1-1-.37,0.92,0.92,0,0,1-.25-0.85v0h0.65a0.56,0.56,0,0,0,.16.54,0.77,0.77,0,0,0,.51.17,0.93,0.93,0,0,0,.54-0.15A0.57,0.57,0,0,0,62.1,152.34Z"/><path class="cls-8" d="M64.91,153.42a1.23,1.23,0,0,1-1.08-.53,1.82,1.82,0,0,1-.23-1.36l0-.15a2.37,2.37,0,0,1,.66-1.36,1.61,1.61,0,0,1,1.15-.52,1.1,1.1,0,0,1,1,.47,1.73,1.73,0,0,1,.18,1.23l-0.07.43H64.26a1.51,1.51,0,0,0,.11.92,0.65,0.65,0,0,0,.63.34,1.59,1.59,0,0,0,.58-0.1A1.63,1.63,0,0,0,66,152.5L66.23,153a1.74,1.74,0,0,1-.55.33A2.08,2.08,0,0,1,64.91,153.42ZM65.35,150a0.79,0.79,0,0,0-.57.29,1.71,1.71,0,0,0-.39.73v0H66V151a1.06,1.06,0,0,0-.08-0.69A0.56,0.56,0,0,0,65.35,150Z"/><path class="cls-8" d="M70,151.94l0,0.43h0l1.41-2.82h0.75l-2.35,4.37a2.71,2.71,0,0,1-.52.67,1,1,0,0,1-.73.28l-0.2,0-0.19,0,0.18-.54h0.29a0.51,0.51,0,0,0,.37-0.21,2.22,2.22,0,0,0,.3-0.42l0.23-.4L69,149.56h0.76Z"/><path class="cls-8" d="M72.23,151.42a2.56,2.56,0,0,1,.64-1.4,1.65,1.65,0,0,1,1.24-.53,1.17,1.17,0,0,1,1.06.55,1.93,1.93,0,0,1,.22,1.38v0.08a2.57,2.57,0,0,1-.65,1.4,1.65,1.65,0,0,1-1.24.52,1.17,1.17,0,0,1-1.06-.55,1.9,1.9,0,0,1-.22-1.38v-0.08Zm0.67,0.08a1.83,1.83,0,0,0,.06,1,0.61,0.61,0,0,0,.62.38,0.89,0.89,0,0,0,.73-0.4,2.18,2.18,0,0,0,.4-1v-0.08a1.83,1.83,0,0,0-.07-1A0.61,0.61,0,0,0,74,150a0.89,0.89,0,0,0-.73.4,2.19,2.19,0,0,0-.39,1v0.08Z"/><path class="cls-8" d="M78.12,153.34l0.06-.52a1.57,1.57,0,0,1-.51.44,1.32,1.32,0,0,1-.62.15,0.89,0.89,0,0,1-.8-0.4,1.67,1.67,0,0,1-.1-1.23l0.44-2.23h0.68l-0.45,2.24a1.46,1.46,0,0,0,0,.85,0.48,0.48,0,0,0,.47.21,1.07,1.07,0,0,0,.57-0.15,1.33,1.33,0,0,0,.43-0.43l0.54-2.72h0.68l-0.76,3.79H78.12Z"/><path class="cls-8" d="M82,150.17l-0.37,0a0.74,0.74,0,0,0-.43.13,1.14,1.14,0,0,0-.34.37l-0.54,2.7H79.68l0.76-3.79H81l0,0.51a1.51,1.51,0,0,1,.44-0.43,1,1,0,0,1,.53-0.15h0.15l0.12,0Z"/><path class="cls-8" d="M87.13,151.66a2.64,2.64,0,0,1-.59,1.31,1.41,1.41,0,0,1-1.07.44,1,1,0,0,1-.55-0.17,1.19,1.19,0,0,1-.4-0.46l-0.18.55H83.76l1.09-5.46h0.68l-0.4,2a1.43,1.43,0,0,1,.45-0.31,1.35,1.35,0,0,1,.54-0.11,1,1,0,0,1,.91.61,2.34,2.34,0,0,1,.12,1.5v0.07Zm-0.66-.07a2.08,2.08,0,0,0,0-1.12,0.61,0.61,0,0,0-.62-0.43,0.76,0.76,0,0,0-.47.16,1.55,1.55,0,0,0-.38.43l-0.33,1.67a0.82,0.82,0,0,0,.27.4,0.76,0.76,0,0,0,.49.15,0.84,0.84,0,0,0,.68-0.32,2,2,0,0,0,.38-0.88v-0.07Z"/><path class="cls-8" d="M89.75,153.34c0-.11,0-0.21,0-0.28s0-.15,0-0.23a2.15,2.15,0,0,1-.54.42,1.26,1.26,0,0,1-.61.17,0.92,0.92,0,0,1-.76-0.31,1,1,0,0,1-.14-0.83,1.26,1.26,0,0,1,.57-0.87,2.16,2.16,0,0,1,1.17-.29h0.65l0.07-.37a0.64,0.64,0,0,0-.08-0.54,0.59,0.59,0,0,0-.49-0.18,0.88,0.88,0,0,0-.53.17,0.66,0.66,0,0,0-.28.4H88.17v0a1.19,1.19,0,0,1,.53-0.77,1.79,1.79,0,0,1,1.09-.33,1.19,1.19,0,0,1,.89.33,1,1,0,0,1,.21.94l-0.36,1.82a3.55,3.55,0,0,0-.06.4,1.92,1.92,0,0,0,0,.37h-0.7Zm-0.9-.5a1.17,1.17,0,0,0,.58-0.17,1.37,1.37,0,0,0,.46-0.39l0.14-.7H89.36a1,1,0,0,0-.62.21,0.81,0.81,0,0,0-.33.49,0.48,0.48,0,0,0,.05.41A0.48,0.48,0,0,0,88.85,152.84Z"/><path class="cls-8" d="M93.66,150.17l-0.37,0a0.74,0.74,0,0,0-.43.13,1.14,1.14,0,0,0-.34.37L92,153.34H91.31l0.76-3.79h0.61l0,0.51a1.51,1.51,0,0,1,.44-0.43,1,1,0,0,1,.53-0.15h0.15l0.12,0Z"/><path class="cls-8" d="M96,150.17l-0.37,0a0.74,0.74,0,0,0-.43.13,1.14,1.14,0,0,0-.34.37l-0.54,2.7H93.68l0.76-3.79H95l0,0.51a1.51,1.51,0,0,1,.44-0.43,1,1,0,0,1,.53-0.15h0.15l0.12,0Z"/><path class="cls-8" d="M96.79,153.34H96.11l0.76-3.79h0.68Zm1-4.76H97.07l0.14-.7h0.68Z"/><path class="cls-8" d="M99.32,153.42a1.23,1.23,0,0,1-1.08-.53,1.82,1.82,0,0,1-.23-1.36l0-.15a2.37,2.37,0,0,1,.66-1.36,1.61,1.61,0,0,1,1.15-.52,1.1,1.1,0,0,1,1,.47,1.73,1.73,0,0,1,.18,1.23l-0.07.43H98.67a1.51,1.51,0,0,0,.11.92,0.65,0.65,0,0,0,.63.34,1.59,1.59,0,0,0,.58-0.1,1.63,1.63,0,0,0,.47-0.27l0.19,0.45a1.74,1.74,0,0,1-.55.33A2.08,2.08,0,0,1,99.32,153.42ZM99.76,150a0.79,0.79,0,0,0-.57.29,1.71,1.71,0,0,0-.39.73v0h1.56V151a1.06,1.06,0,0,0-.08-0.69A0.56,0.56,0,0,0,99.76,150Z"/><path class="cls-8" d="M103.72,150.17l-0.37,0a0.74,0.74,0,0,0-.43.13,1.14,1.14,0,0,0-.34.37l-0.54,2.7h-0.68l0.76-3.79h0.61l0,0.51a1.51,1.51,0,0,1,.44-0.43,1,1,0,0,1,.53-0.15h0.15l0.12,0Z"/><path class="cls-8" d="M106,152.34a0.42,0.42,0,0,0-.09-0.38,1.2,1.2,0,0,0-.55-0.25,2.11,2.11,0,0,1-.91-0.41,0.72,0.72,0,0,1-.22-0.7,1.22,1.22,0,0,1,.49-0.8,1.62,1.62,0,0,1,1-.32,1.19,1.19,0,0,1,.92.34,0.89,0.89,0,0,1,.23.82v0h-0.65a0.54,0.54,0,0,0-.57-0.64,0.78,0.78,0,0,0-.51.16,0.62,0.62,0,0,0-.23.39,0.39,0.39,0,0,0,.08.36,1.26,1.26,0,0,0,.55.23,2.08,2.08,0,0,1,.93.42,0.75,0.75,0,0,1,.21.71,1.21,1.21,0,0,1-.51.82,1.78,1.78,0,0,1-1.05.3,1.29,1.29,0,0,1-1-.37,0.92,0.92,0,0,1-.25-0.85v0h0.65a0.56,0.56,0,0,0,.16.54,0.77,0.77,0,0,0,.51.17,0.93,0.93,0,0,0,.54-0.15A0.57,0.57,0,0,0,106,152.34Z"/><line class="cls-17" x1="157.5" y1="210" x2="157.5" y2="197"/><polyline class="cls-18" points="155.11 198.64 157.41 196.35 159.7 198.64"/><rect class="cls-19" x="121.59" y="207.7" width="71.7" height="17.93"/><path class="cls-8" d="M131.12,217.19v0a2.48,2.48,0,0,1-.69,1.18,1.78,1.78,0,0,1-1.25.43,1.46,1.46,0,0,1-1.24-.64,1.89,1.89,0,0,1-.28-1.56l0.18-.91a3,3,0,0,1,.75-1.57,1.85,1.85,0,0,1,1.37-.56,1.53,1.53,0,0,1,1.19.48,1.48,1.48,0,0,1,.34,1.24v0h-0.65a1.3,1.3,0,0,0-.2-0.87,0.87,0.87,0,0,0-.75-0.32,1.09,1.09,0,0,0-.86.45,2.51,2.51,0,0,0-.51,1.13l-0.19.92a1.71,1.71,0,0,0,.11,1.19,0.86,0.86,0,0,0,.8.46A1,1,0,0,0,130,218a2,2,0,0,0,.46-0.83h0.65Z"/><path class="cls-8" d="M132.92,215.43a1.69,1.69,0,0,1,.52-0.39,1.38,1.38,0,0,1,.6-0.14,0.9,0.9,0,0,1,.79.37,1.45,1.45,0,0,1,.11,1.11l-0.48,2.37H133.8l0.48-2.38a1,1,0,0,0,0-.71,0.57,0.57,0,0,0-.51-0.21,1,1,0,0,0-.48.14,1.6,1.6,0,0,0-.43.37l-0.56,2.79h-0.68l1.09-5.46h0.68Z"/><path class="cls-8" d="M135.64,216.83a2.56,2.56,0,0,1,.64-1.4,1.65,1.65,0,0,1,1.24-.53,1.17,1.17,0,0,1,1.06.55,1.93,1.93,0,0,1,.22,1.38v0.08a2.57,2.57,0,0,1-.65,1.4,1.65,1.65,0,0,1-1.24.52,1.17,1.17,0,0,1-1.06-.55,1.9,1.9,0,0,1-.22-1.38v-0.08Zm0.67,0.08a1.83,1.83,0,0,0,.06,1,0.61,0.61,0,0,0,.62.38,0.89,0.89,0,0,0,.73-0.4,2.18,2.18,0,0,0,.4-1v-0.08a1.83,1.83,0,0,0-.07-1,0.61,0.61,0,0,0-.62-0.38,0.89,0.89,0,0,0-.73.4,2.19,2.19,0,0,0-.39,1v0.08Z"/><path class="cls-8" d="M139.47,216.83a2.56,2.56,0,0,1,.64-1.4,1.65,1.65,0,0,1,1.24-.53,1.17,1.17,0,0,1,1.06.55,1.93,1.93,0,0,1,.22,1.38v0.08a2.57,2.57,0,0,1-.65,1.4,1.65,1.65,0,0,1-1.24.52,1.17,1.17,0,0,1-1.06-.55,1.9,1.9,0,0,1-.22-1.38v-0.08Zm0.67,0.08a1.83,1.83,0,0,0,.06,1,0.61,0.61,0,0,0,.62.38,0.89,0.89,0,0,0,.73-0.4,2.18,2.18,0,0,0,.4-1v-0.08a1.83,1.83,0,0,0-.07-1,0.61,0.61,0,0,0-.62-0.38,0.89,0.89,0,0,0-.73.4,2.19,2.19,0,0,0-.39,1v0.08Z"/><path class="cls-8" d="M145.35,217.75a0.42,0.42,0,0,0-.09-0.38,1.2,1.2,0,0,0-.55-0.25,2.11,2.11,0,0,1-.91-0.41,0.72,0.72,0,0,1-.22-0.7,1.22,1.22,0,0,1,.49-0.8,1.62,1.62,0,0,1,1-.32,1.19,1.19,0,0,1,.92.34,0.89,0.89,0,0,1,.23.82v0h-0.65a0.54,0.54,0,0,0-.57-0.64,0.78,0.78,0,0,0-.51.16,0.62,0.62,0,0,0-.23.39,0.39,0.39,0,0,0,.08.36,1.26,1.26,0,0,0,.55.23,2.08,2.08,0,0,1,.93.42,0.75,0.75,0,0,1,.21.71,1.21,1.21,0,0,1-.51.82,1.78,1.78,0,0,1-1.05.3,1.29,1.29,0,0,1-1-.37,0.92,0.92,0,0,1-.25-0.85v0h0.65a0.56,0.56,0,0,0,.16.54,0.77,0.77,0,0,0,.51.17,0.93,0.93,0,0,0,.54-0.15A0.57,0.57,0,0,0,145.35,217.75Z"/><path class="cls-8" d="M148.15,218.83a1.23,1.23,0,0,1-1.08-.53,1.82,1.82,0,0,1-.23-1.36l0-.15a2.37,2.37,0,0,1,.66-1.36,1.61,1.61,0,0,1,1.15-.52,1.1,1.1,0,0,1,1,.47,1.73,1.73,0,0,1,.18,1.23l-0.07.43H147.5a1.51,1.51,0,0,0,.11.92,0.65,0.65,0,0,0,.63.34,1.59,1.59,0,0,0,.58-0.1,1.63,1.63,0,0,0,.47-0.27l0.19,0.45a1.74,1.74,0,0,1-.55.33A2.08,2.08,0,0,1,148.15,218.83Zm0.44-3.39a0.79,0.79,0,0,0-.57.29,1.71,1.71,0,0,0-.39.73v0h1.56v-0.09a1.06,1.06,0,0,0-.08-0.69A0.56,0.56,0,0,0,148.59,215.44Z"/><path class="cls-8" d="M153.27,217.35l0,0.43h0l1.41-2.82h0.75l-2.35,4.37a2.71,2.71,0,0,1-.52.67,1,1,0,0,1-.73.28l-0.2,0-0.19,0,0.18-.54h0.29a0.51,0.51,0,0,0,.37-0.21,2.22,2.22,0,0,0,.3-0.42l0.23-.4L152.28,215H153Z"/><path class="cls-8" d="M155.47,216.83a2.56,2.56,0,0,1,.64-1.4,1.65,1.65,0,0,1,1.24-.53,1.17,1.17,0,0,1,1.06.55,1.93,1.93,0,0,1,.22,1.38v0.08a2.57,2.57,0,0,1-.65,1.4,1.65,1.65,0,0,1-1.24.52,1.17,1.17,0,0,1-1.06-.55,1.9,1.9,0,0,1-.22-1.38v-0.08Zm0.67,0.08a1.83,1.83,0,0,0,.06,1,0.61,0.61,0,0,0,.62.38,0.89,0.89,0,0,0,.73-0.4,2.18,2.18,0,0,0,.4-1v-0.08a1.83,1.83,0,0,0-.07-1,0.61,0.61,0,0,0-.62-0.38,0.89,0.89,0,0,0-.73.4,2.19,2.19,0,0,0-.39,1v0.08Z"/><path class="cls-8" d="M161.36,218.76l0.06-.52a1.57,1.57,0,0,1-.51.44,1.32,1.32,0,0,1-.62.15,0.89,0.89,0,0,1-.8-0.4,1.67,1.67,0,0,1-.1-1.23l0.44-2.23h0.68l-0.45,2.24a1.46,1.46,0,0,0,0,.85,0.48,0.48,0,0,0,.47.21,1.07,1.07,0,0,0,.57-0.15,1.33,1.33,0,0,0,.43-0.43L162,215h0.68L162,218.76h-0.61Z"/><path class="cls-8" d="M165.27,215.58l-0.37,0a0.74,0.74,0,0,0-.43.13,1.14,1.14,0,0,0-.34.37l-0.54,2.7h-0.68l0.76-3.79h0.61l0,0.51a1.51,1.51,0,0,1,.44-0.43,1,1,0,0,1,.53-0.15h0.15l0.12,0Z"/><path class="cls-8" d="M170.36,217.08a2.64,2.64,0,0,1-.59,1.31,1.41,1.41,0,0,1-1.07.44,1.26,1.26,0,0,1-.55-0.12,1,1,0,0,1-.4-0.34l-0.37,1.83h-0.68l1-5.24h0.58l0,0.38a1.45,1.45,0,0,1,.47-0.33,1.39,1.39,0,0,1,.56-0.11,1,1,0,0,1,.91.61,2.34,2.34,0,0,1,.12,1.5v0.07ZM169.7,217a2,2,0,0,0,0-1.11,0.63,0.63,0,0,0-.63-0.43,0.75,0.75,0,0,0-.43.14,1.37,1.37,0,0,0-.36.37l-0.37,1.85a0.75,0.75,0,0,0,.27.34,0.81,0.81,0,0,0,.47.13,0.87,0.87,0,0,0,.69-0.33,2,2,0,0,0,.39-0.89V217Z"/><path class="cls-8" d="M173,218.76c0-.11,0-0.21,0-0.28s0-.15,0-0.23a2.15,2.15,0,0,1-.54.42,1.26,1.26,0,0,1-.61.17,0.92,0.92,0,0,1-.76-0.31,1,1,0,0,1-.14-0.83,1.26,1.26,0,0,1,.57-0.87,2.16,2.16,0,0,1,1.17-.29h0.65l0.07-.37a0.64,0.64,0,0,0-.08-0.54,0.59,0.59,0,0,0-.49-0.18,0.88,0.88,0,0,0-.53.17,0.66,0.66,0,0,0-.28.4h-0.64v0a1.19,1.19,0,0,1,.53-0.77,1.79,1.79,0,0,1,1.09-.33,1.19,1.19,0,0,1,.89.33,1,1,0,0,1,.21.94L173.75,218a3.55,3.55,0,0,0-.06.4,1.92,1.92,0,0,0,0,.37H173Zm-0.9-.5a1.17,1.17,0,0,0,.58-0.17,1.37,1.37,0,0,0,.46-0.39l0.14-.7H172.6a1,1,0,0,0-.62.21,0.81,0.81,0,0,0-.33.49,0.48,0.48,0,0,0,.05.41A0.48,0.48,0,0,0,172.1,218.25Z"/><path class="cls-8" d="M175.86,217.35l0,0.43h0l1.41-2.82h0.75l-2.35,4.37a2.71,2.71,0,0,1-.52.67,1,1,0,0,1-.73.28l-0.2,0-0.19,0,0.18-.54h0.29a0.51,0.51,0,0,0,.37-0.21,2.22,2.22,0,0,0,.3-0.42l0.23-.4L174.87,215h0.76Z"/><path class="cls-8" d="M178.07,216.83a2.56,2.56,0,0,1,.64-1.4,1.65,1.65,0,0,1,1.24-.53,1.17,1.17,0,0,1,1.06.55,1.93,1.93,0,0,1,.22,1.38v0.08a2.57,2.57,0,0,1-.65,1.4,1.65,1.65,0,0,1-1.24.52,1.17,1.17,0,0,1-1.06-.55,1.9,1.9,0,0,1-.22-1.38v-0.08Zm0.67,0.08a1.83,1.83,0,0,0,.06,1,0.61,0.61,0,0,0,.62.38,0.89,0.89,0,0,0,.73-0.4,2.18,2.18,0,0,0,.4-1v-0.08a1.83,1.83,0,0,0-.07-1,0.61,0.61,0,0,0-.62-0.38,0.89,0.89,0,0,0-.73.4,2.19,2.19,0,0,0-.39,1v0.08Z"/><path class="cls-8" d="M184,218.76l0.06-.52a1.57,1.57,0,0,1-.51.44,1.32,1.32,0,0,1-.62.15,0.89,0.89,0,0,1-.8-0.4,1.67,1.67,0,0,1-.1-1.23l0.44-2.23h0.68l-0.45,2.24a1.46,1.46,0,0,0,0,.85,0.48,0.48,0,0,0,.47.21,1.07,1.07,0,0,0,.57-0.15,1.33,1.33,0,0,0,.43-0.43l0.54-2.72h0.68l-0.76,3.79H184Z"/><path class="cls-8" d="M187.36,214.06l-0.19.91h0.65l-0.1.51h-0.65l-0.46,2.3a0.5,0.5,0,0,0,0,.38,0.29,0.29,0,0,0,.25.1l0.19,0,0.18,0v0.47a0.92,0.92,0,0,1-.29.1,1.72,1.72,0,0,1-.37,0,0.67,0.67,0,0,1-.57-0.26,1,1,0,0,1-.09-0.79l0.46-2.3h-0.55l0.1-.51h0.55l0.19-.91h0.68Z"/></svg>