<svg width="1032" height="587" viewBox="0 0 1032 587" xmlns="http://www.w3.org/2000/svg"><title>download</title><g transform="translate(1 1)" fill="none" fill-rule="evenodd"><rect stroke="#DEDEDE" stroke-width="1.347" fill="#FFF" fill-rule="nonzero" x="239.409" y="180.758" width="638.442" height="387.314" rx="4"/><rect stroke="#DEDEDE" stroke-width="1.347" fill="#FFF" fill-rule="nonzero" x="325.084" y="273.515" width="137.967" height="37.917" rx="6.761"/><path d="M336.044 298.793v-15.415h4.648a6.308 6.308 0 0 1 4.834 1.83 6.324 6.324 0 0 1 1.848 4.833v2.115a6.324 6.324 0 0 1-1.858 4.815 6.308 6.308 0 0 1-4.824 1.822h-4.727.08-.001zm2.087-13.776v12.137h2.64a4.25 4.25 0 0 0 3.355-1.402 5.292 5.292 0 0 0 1.24-3.596v-2.115a5.292 5.292 0 0 0-1.24-3.57 4.25 4.25 0 0 0-3.354-1.401h-2.641v-.053zm19.041 12.083a3.865 3.865 0 0 1-1.373 1.429 3.773 3.773 0 0 1-1.954.502 3.669 3.669 0 0 1-2.906-1.19 5.557 5.557 0 0 1-1.056-3.728v-6.743h2.086v6.77a4.265 4.265 0 0 0 .529 2.644c.42.487 1.049.742 1.69.687a3.43 3.43 0 0 0 1.822-.45c.481-.303.86-.746 1.083-1.269v-8.25h2.086v11.45h-1.875l-.132-1.851v-.001zm10.432-7.905h-1.056a2.375 2.375 0 0 0-1.4.396 2.644 2.644 0 0 0-.871 1.111v8.17h-2.087v-11.449h1.849l.211 1.666a3.965 3.965 0 0 1 1.189-1.375 2.797 2.797 0 0 1 1.664-.502h.792l-.29 1.983h-.001zm9.033 9.598c0-.344 0-.661-.159-.925a6.565 6.565 0 0 1 0-.794c-.4.56-.912 1.028-1.505 1.375-.606.365-1.3.557-2.007.556a3.721 3.721 0 0 1-2.641-.926 3.36 3.36 0 0 1-.925-2.644 2.963 2.963 0 0 1 1.32-2.644 6.2 6.2 0 0 1 3.593-.926h2.27v-1.137a2.117 2.117 0 0 0-.607-1.586 2.402 2.402 0 0 0-1.743-.582 2.639 2.639 0 0 0-1.637.503c-.398.288-.634.75-.634 1.242h-2.218a2.645 2.645 0 0 1 1.188-2.274 4.83 4.83 0 0 1 3.196-1.03 4.724 4.724 0 0 1 3.116.978 3.519 3.519 0 0 1 1.189 2.855v5.5c-.022.396-.022.794 0 1.19.044.377.123.749.237 1.11h-2.139l.106.16v-.001zm-3.46-1.534a3.694 3.694 0 0 0 2.034-.581c.536-.29.956-.757 1.188-1.322v-1.851h-2.324a3.035 3.035 0 0 0-2.007.634 1.878 1.878 0 0 0-.766 1.481c-.027.456.147.9.475 1.216a2 2 0 0 0 1.426.423h-.026zm11.093-12.691v2.644h2.165v1.533h-2.166v6.954c-.04.41.084.819.344 1.137.237.217.55.331.871.318h.792l.265 1.428c-.205.15-.44.259-.687.317a3.46 3.46 0 0 1-.898 0 2.64 2.64 0 0 1-2.007-.767 3.334 3.334 0 0 1-.74-2.406v-6.954h-1.901v-1.534h1.822v-2.644h2.086l.053-.026h.001zm6.972-.159h-2.087v-2.115h2.087v2.115zm0 14.384h-2.087v-11.45h2.087v11.45zm2.72-5.817a6.298 6.298 0 0 1 1.373-4.178 5.094 5.094 0 0 1 7.474 0 6.298 6.298 0 0 1 1.374 4.178v.238a6.271 6.271 0 0 1-1.374 4.178 5.12 5.12 0 0 1-7.474 0 6.271 6.271 0 0 1-1.373-4.178v-.238zm2.086.238c-.047 1.05.22 2.09.766 2.988a2.64 2.64 0 0 0 4.543 0 5.293 5.293 0 0 0 .766-2.988v-.238a5.293 5.293 0 0 0-.687-3.12 2.64 2.64 0 0 0-2.271-1.19 2.64 2.64 0 0 0-2.245 1.19c-.54.9-.805 1.939-.766 2.988v.238l-.106.132zm12.572-5.87l.158 1.692a4.149 4.149 0 0 1 1.426-1.401 3.826 3.826 0 0 1 1.954-.503 3.721 3.721 0 0 1 2.853 1.084 4.763 4.763 0 0 1 1.003 3.359v7.218h-2.086v-7.192a3.096 3.096 0 0 0-.607-2.142 2.402 2.402 0 0 0-1.823-.634 2.929 2.929 0 0 0-1.584.423c-.467.293-.85.703-1.11 1.19v8.355h-2.086v-11.45h1.901l.001.001z" fill="#000" fill-rule="nonzero"/><rect stroke="#DEDEDE" stroke-width="1.347" fill="#FFF" fill-rule="nonzero" x="589.134" y="273.515" width="135.273" height="37.917" rx="6.761"/><path d="M597.875 293.293a7.648 7.648 0 0 1 1.189-4.442 3.802 3.802 0 0 1 3.301-1.692 4.09 4.09 0 0 1 1.77.37c.52.252.972.623 1.32 1.084v-6.293h1.98v16.5h-1.584l-.237-1.402c-.35.514-.822.932-1.374 1.216a4.116 4.116 0 0 1-1.901.423 3.933 3.933 0 0 1-3.275-1.507 6.325 6.325 0 0 1-1.189-3.992v-.265zm2.087.212a4.87 4.87 0 0 0 .713 2.776 2.481 2.481 0 0 0 2.192 1.031 2.639 2.639 0 0 0 1.558-.423c.44-.302.794-.711 1.03-1.19v-5.288a3.198 3.198 0 0 0-1.03-1.137 2.639 2.639 0 0 0-1.532-.423 2.376 2.376 0 0 0-2.218 1.243 6.405 6.405 0 0 0-.713 3.226v.211-.026zm17.721 5.288c0-.344 0-.661-.158-.925a6.83 6.83 0 0 1 0-.794c-.4.56-.913 1.029-1.506 1.375-.606.365-1.3.557-2.007.556a3.721 3.721 0 0 1-2.641-.926 3.36 3.36 0 0 1-.924-2.644 2.963 2.963 0 0 1 1.32-2.644 6.174 6.174 0 0 1 3.592-.926h2.271v-1.137a2.09 2.09 0 0 0-.607-1.586 2.402 2.402 0 0 0-1.743-.582 2.639 2.639 0 0 0-1.638.503c-.398.288-.634.75-.634 1.242h-1.98a2.645 2.645 0 0 1 1.188-2.274 4.83 4.83 0 0 1 3.196-1.03 4.724 4.724 0 0 1 3.116.978 3.519 3.519 0 0 1 1.189 2.855v5.5c-.022.396-.022.794 0 1.19.046.376.125.748.237 1.11h-2.139l-.132.16v-.001zm-3.46-1.534a3.72 3.72 0 0 0 2.034-.581c.537-.29.957-.757 1.188-1.322v-1.851h-2.35a3.035 3.035 0 0 0-2.007.634c-.47.35-.752.896-.766 1.481-.027.456.147.9.475 1.216a2 2 0 0 0 1.426.423zm11.7-2.697l.37 1.428 2.8-8.646h2.323l-4.806 13.22a5.95 5.95 0 0 1-1.242 2.01 2.85 2.85 0 0 1-2.192.846h-1.241l.211-1.64h.925c.436.002.842-.217 1.083-.58.29-.41.53-.855.713-1.323l.501-1.19-4.252-11.21h2.325l2.482 7.085zm13.997 1.19c.009-.44-.186-.86-.528-1.137a4.909 4.909 0 0 0-1.98-.766 8.34 8.34 0 0 1-3.143-1.243 2.486 2.486 0 0 1-1.057-2.116 2.99 2.99 0 0 1 1.189-2.38 5.277 5.277 0 0 1 6.259 0 3.016 3.016 0 0 1 1.136 2.486h-1.981a1.82 1.82 0 0 0-.634-1.348 2.322 2.322 0 0 0-1.664-.608 2.401 2.401 0 0 0-1.637.475c-.34.29-.533.717-.528 1.164-.017.408.159.8.475 1.058a4.935 4.935 0 0 0 1.928.687 8.34 8.34 0 0 1 3.222 1.27 2.645 2.645 0 0 1 1.056 2.141 2.963 2.963 0 0 1-1.24 2.46 5.278 5.278 0 0 1-3.223.95 5.014 5.014 0 0 1-3.433-1.11 3.148 3.148 0 0 1-1.189-2.644h1.981a1.904 1.904 0 0 0 .819 1.613c.535.343 1.16.518 1.796.503a2.929 2.929 0 0 0 1.743-.45c.352-.221.585-.59.634-1.005h-.001z" fill="#000" fill-rule="nonzero"/><rect stroke="#DEDEDE" stroke-width="1.347" fill="#FFF" fill-rule="nonzero" x="487.692" y="273.515" width="94.681" height="37.917" rx="6.761"/><path d="M508.424 285.044a21.659 21.659 0 0 0-3.777 5.896 26.468 26.468 0 0 0-1.4 6.214l-.158 1.666h-2.086l.158-1.666a22.602 22.602 0 0 1 1.717-6.505 25.098 25.098 0 0 1 3.486-5.605h-8.372v-1.64h10.405v1.64h.027z" fill="#000" fill-rule="nonzero"/><rect stroke="#DEDEDE" stroke-width="1.347" fill="#FFF" fill-rule="nonzero" x="348.087" y="464.449" width="114.964" height="37.917" rx="6.761"/><path d="M361.662 483.566v6.187h-2.086v-15.415h5.89a5.278 5.278 0 0 1 3.829 1.269 4.79 4.79 0 0 1 0 6.716 5.463 5.463 0 0 1-3.83 1.243h-3.803zm0-1.64h3.803a2.983 2.983 0 0 0 2.817-1.4 2.99 2.99 0 0 0 0-3.149 2.983 2.983 0 0 0-2.817-1.4h-3.803v5.95-.001zm18.302 7.827c0-.352-.052-.66-.158-.925a6.67 6.67 0 0 1 0-.794c-.4.56-.912 1.029-1.505 1.375-.607.365-1.3.557-2.008.556a3.748 3.748 0 0 1-2.64-.926 3.36 3.36 0 0 1-.925-2.644 2.963 2.963 0 0 1 1.32-2.644 6.2 6.2 0 0 1 3.592-.926h2.272v-1.136a2.117 2.117 0 0 0-.608-1.587 2.402 2.402 0 0 0-1.743-.582 2.48 2.48 0 0 0-1.637.503 1.53 1.53 0 0 0-.634 1.242h-1.981a2.645 2.645 0 0 1 1.188-2.274 4.856 4.856 0 0 1 3.196-1.03 4.724 4.724 0 0 1 3.116.978 3.492 3.492 0 0 1 1.189 2.855v5.5c-.021.396-.021.794 0 1.19.044.377.124.749.238 1.11h-2.14l-.132.16v-.001zm-3.46-1.533a3.694 3.694 0 0 0 2.034-.582c.537-.29.957-.757 1.189-1.322v-1.851h-2.324a3.035 3.035 0 0 0-2.008.634c-.469.35-.751.896-.766 1.481-.019.447.155.88.476 1.19.4.305.9.447 1.4.397v.053h-.001zm11.726-2.697l.37 1.427 2.8-8.646h2.324l-4.807 13.22a5.95 5.95 0 0 1-1.24 2.01 2.85 2.85 0 0 1-2.193.846h-1.241l.211-1.639h.924c.436.001.843-.218 1.083-.582.292-.41.531-.853.713-1.322l.502-1.19-4.252-11.21h2.324l2.483 7.086h-.001zm6.683-1.613a6.298 6.298 0 0 1 1.373-4.178 4.593 4.593 0 0 1 3.724-1.64 4.646 4.646 0 0 1 3.75 1.64 6.271 6.271 0 0 1 1.373 4.178v.238a6.271 6.271 0 0 1-1.373 4.177 5.12 5.12 0 0 1-7.474 0 6.271 6.271 0 0 1-1.373-4.177v-.238zm2.086.238a5.425 5.425 0 0 0 .766 3.014 2.64 2.64 0 0 0 4.542 0 5.293 5.293 0 0 0 .766-3.014v-.238a5.293 5.293 0 0 0-.766-2.988 2.64 2.64 0 0 0-2.27-1.19 2.64 2.64 0 0 0-2.246 1.19 5.452 5.452 0 0 0-.766 2.988v.238H396.999zm17.959 4.019a3.87 3.87 0 0 1-1.373 1.428 3.773 3.773 0 0 1-1.955.502 3.669 3.669 0 0 1-2.905-1.19 5.557 5.557 0 0 1-1.056-3.728v-6.743h2.086v6.77c-.115.915.07 1.843.528 2.643.421.487 1.05.743 1.69.688a3.43 3.43 0 0 0 1.823-.45c.481-.303.86-.746 1.083-1.269v-8.25h2.086v11.45h-1.875l-.132-1.851zm7.791-12.639v2.644h2.166v1.533h-2.166v6.955c-.04.409.084.818.343 1.136.236.22.55.335.872.318h.792l.264 1.428a1.877 1.877 0 0 1-.686.317 3.46 3.46 0 0 1-.898 0 2.64 2.64 0 0 1-2.008-.767 3.334 3.334 0 0 1-.739-2.406v-6.954h-1.822v-1.534h1.822v-2.644h2.086l-.026-.026z" fill="#000" fill-rule="nonzero"/><rect stroke="#DEDEDE" stroke-width="1.347" fill="#FFF" fill-rule="nonzero" x="589.134" y="464.449" width="135.273" height="37.917" rx="6.761"/><path d="M604.029 489.753h-2.086v-13.38H598.8v-1.427l5.282-.582v15.416l-.053-.027zm15.978-5.87a6.907 6.907 0 0 1-1.294 4.522 4.883 4.883 0 0 1-7.157 0 6.854 6.854 0 0 1-1.32-4.522v-3.649a6.88 6.88 0 0 1 1.32-4.521 4.857 4.857 0 0 1 7.157 0 6.88 6.88 0 0 1 1.32 4.521v3.65h-.026v-.001zM618 479.785a5.293 5.293 0 0 0-.713-3.015 2.64 2.64 0 0 0-4.2 0 5.293 5.293 0 0 0-.712 3.015v4.521a5.293 5.293 0 0 0 .74 3.015 2.429 2.429 0 0 0 2.112 1.03c.822.05 1.612-.33 2.086-1.004.533-.911.782-1.96.713-3.014v-4.522l-.026-.026z" fill="#000" fill-rule="nonzero"/><rect stroke="#DEDEDE" stroke-width="1.109" fill="#FFF" fill-rule="nonzero" x="487.692" y="464.449" width="94.681" height="37.917" rx="6.761"/><path d="M510.352 474.338v10.444a4.683 4.683 0 0 1-1.638 3.86 6.518 6.518 0 0 1-4.252 1.323 6.149 6.149 0 0 1-4.12-1.349 4.762 4.762 0 0 1-1.584-3.86V474.31h2.086v10.445a3.413 3.413 0 0 0 1.004 2.644 3.75 3.75 0 0 0 2.64.899 4.09 4.09 0 0 0 2.642-.9 3.307 3.307 0 0 0 1.056-2.643V474.31h2.087l.079.027v.001zm11.778 11.528a2.275 2.275 0 0 0-.792-1.771 6.678 6.678 0 0 0-2.799-1.19 9.265 9.265 0 0 1-3.803-1.719 3.545 3.545 0 0 1-1.373-2.856 3.756 3.756 0 0 1 1.479-3.014 5.806 5.806 0 0 1 3.829-1.216 5.674 5.674 0 0 1 4.014 1.375 4.1 4.1 0 0 1 1.453 3.226h-1.98a2.857 2.857 0 0 0-.899-2.195 4.353 4.353 0 0 0-4.938 0 2.302 2.302 0 0 0-.82 1.824c.004.67.34 1.296.899 1.666a8.498 8.498 0 0 0 2.905 1.19 8.342 8.342 0 0 1 3.697 1.772 3.81 3.81 0 0 1 1.268 2.908 3.57 3.57 0 0 1-1.532 2.988 6.491 6.491 0 0 1-3.961 1.137 6.887 6.887 0 0 1-4.068-1.243 3.782 3.782 0 0 1-1.716-3.358H515a2.645 2.645 0 0 0 1.083 2.248c.78.522 1.703.79 2.64.767a4.195 4.195 0 0 0 2.483-.661 2.09 2.09 0 0 0 .925-1.878h-.001zm5.098 3.887v-15.415h4.727a6.308 6.308 0 0 1 4.835 1.83 6.324 6.324 0 0 1 1.847 4.833v2.115a6.324 6.324 0 0 1-1.858 4.815 6.308 6.308 0 0 1-4.824 1.822h-4.727zm2.086-13.776v12.19h2.641a4.25 4.25 0 0 0 3.354-1.402 5.292 5.292 0 0 0 1.242-3.596v-2.115a5.292 5.292 0 0 0-1.242-3.596 4.25 4.25 0 0 0-3.354-1.402h-2.64v-.079h-.001z" fill="#000" fill-rule="nonzero"/><rect stroke="#DEDEDE" stroke-width="1.347" fill="#FFF" fill-rule="nonzero" x="487.692" y="338.508" width="236.715" height="37.917" rx="6.761"/><path d="M507.87 352.416a3.44 3.44 0 0 1-.687 2.116 4.041 4.041 0 0 1-1.823 1.348c.838.27 1.58.775 2.14 1.454.525.65.805 1.465.792 2.3a3.968 3.968 0 0 1-1.4 3.253 6.411 6.411 0 0 1-7.263 0 3.968 3.968 0 0 1-1.373-3.252 3.6 3.6 0 0 1 .792-2.3 4.49 4.49 0 0 1 2.113-1.455 3.91 3.91 0 0 1-1.796-1.348 3.493 3.493 0 0 1-.66-2.116 3.969 3.969 0 0 1 1.241-3.146 4.803 4.803 0 0 1 3.301-1.11 4.882 4.882 0 0 1 3.302 1.11 3.916 3.916 0 0 1 1.32 3.146h.001zm-1.638 7.166a2.646 2.646 0 0 0-.845-2.089 2.903 2.903 0 0 0-2.113-.82 2.771 2.771 0 0 0-2.905 2.882c-.05.77.24 1.524.792 2.063a3.404 3.404 0 0 0 4.252 0c.555-.528.853-1.27.819-2.036zm-.423-7.113a2.646 2.646 0 0 0-.713-1.904 2.639 2.639 0 0 0-3.592 0 2.646 2.646 0 0 0-.686 1.93c-.026.692.22 1.366.686 1.878a2.639 2.639 0 0 0 3.619 0c.462-.522.7-1.207.66-1.904h.026zm14.473 5.474a6.907 6.907 0 0 1-1.294 4.521 4.883 4.883 0 0 1-7.157 0 6.854 6.854 0 0 1-1.32-4.521v-3.65a6.88 6.88 0 0 1 1.32-4.52 4.857 4.857 0 0 1 7.157 0 6.88 6.88 0 0 1 1.32 4.52v3.65h-.026zm-2.086-4.099a5.293 5.293 0 0 0-.713-3.014 2.64 2.64 0 0 0-4.2 0 5.293 5.293 0 0 0-.713 3.014v4.522a5.293 5.293 0 0 0 .74 3.014 2.429 2.429 0 0 0 2.113 1.031c.898.06 1.755-.39 2.218-1.163a5.295 5.295 0 0 0 .713-3.015v-4.389h-.158zm7.157 10.048h-2.087v-2.168h2.087v2.168zm12.677-11.476a3.44 3.44 0 0 1-.687 2.116 4.041 4.041 0 0 1-1.822 1.348 4.622 4.622 0 0 1 2.139 1.454c.525.65.805 1.465.792 2.3a3.968 3.968 0 0 1-1.4 3.253 6.385 6.385 0 0 1-7.236 0 3.968 3.968 0 0 1-1.373-3.252 3.594 3.594 0 0 1 .792-2.3 4.49 4.49 0 0 1 2.113-1.455 3.91 3.91 0 0 1-1.796-1.348 3.52 3.52 0 0 1-.66-2.116 3.969 3.969 0 0 1 1.241-3.146 4.83 4.83 0 0 1 3.301-1.11 4.882 4.882 0 0 1 3.302 1.11 3.916 3.916 0 0 1 1.294 3.146zm-1.638 7.166a2.646 2.646 0 0 0-.845-2.089 2.903 2.903 0 0 0-2.113-.82 2.771 2.771 0 0 0-2.905 2.882c-.049.77.24 1.524.793 2.063a3.404 3.404 0 0 0 4.252 0c.554-.528.853-1.27.818-2.036zm-.422-7.113a2.646 2.646 0 0 0-.713-1.904 2.639 2.639 0 0 0-3.592 0 2.646 2.646 0 0 0-.687 1.93 2.646 2.646 0 0 0 .687 1.878 2.639 2.639 0 0 0 3.618 0c.472-.519.72-1.203.687-1.904zm10.722 11.423h-2.086v-13.38h-3.143v-1.507l5.282-.581v15.468h-.053zm15.846-11.476a3.44 3.44 0 0 1-.686 2.116 4.041 4.041 0 0 1-1.823 1.348c.837.271 1.58.775 2.14 1.454.525.65.805 1.465.792 2.3a3.968 3.968 0 0 1-1.4 3.253 6.385 6.385 0 0 1-7.236 0 3.968 3.968 0 0 1-1.373-3.252 3.594 3.594 0 0 1 .792-2.3 4.49 4.49 0 0 1 2.113-1.455 3.91 3.91 0 0 1-1.796-1.348 3.52 3.52 0 0 1-.66-2.116 3.969 3.969 0 0 1 1.24-3.146 4.83 4.83 0 0 1 3.302-1.11 4.882 4.882 0 0 1 3.301 1.11 3.916 3.916 0 0 1 1.294 3.146zm-1.637 7.166a2.646 2.646 0 0 0-.845-2.089 2.903 2.903 0 0 0-2.113-.82 2.771 2.771 0 0 0-2.905 2.882c-.05.77.24 1.524.792 2.063a3.404 3.404 0 0 0 4.252 0c.507-.55.756-1.29.687-2.036h.132zm-.423-7.113a2.646 2.646 0 0 0-.713-1.904 2.639 2.639 0 0 0-3.591 0 2.646 2.646 0 0 0-.687 1.93 2.646 2.646 0 0 0 .687 1.878 2.639 2.639 0 0 0 3.618 0 2.646 2.646 0 0 0 .528-1.904h.158zm-198.129 11.423h-2.087v-6.796h-7.474v6.796h-2.06v-15.415h2.087v6.954h7.474v-6.954h2.086v15.415h-.026zm5.678-14.464h-2.086v-2.115h2.086v2.115zm0 14.385h-2.086v-11.45h2.086v11.529-.08.001zm2.747-5.527a7.516 7.516 0 0 1 1.214-4.442 3.854 3.854 0 0 1 3.328-1.692 4.01 4.01 0 0 1 1.902.45c.557.3 1.03.736 1.373 1.269l.264-1.481h1.664v11.502a4.366 4.366 0 0 1-1.268 3.384 5.278 5.278 0 0 1-3.697 1.19 7.703 7.703 0 0 1-1.77-.238 6.888 6.888 0 0 1-1.69-.608l.528-1.613a5.31 5.31 0 0 0 1.347.503c.51.123 1.034.185 1.558.185.802.074 1.6-.173 2.219-.688.502-.585.75-1.346.687-2.115v-1.322a3.645 3.645 0 0 1-1.347 1.084 4.221 4.221 0 0 1-1.796.37 3.986 3.986 0 0 1-3.302-1.534 6.245 6.245 0 0 1-1.214-3.992v-.212zm2.086.212c-.018.935.24 1.854.74 2.644a2.64 2.64 0 0 0 2.218 1.058c.56.03 1.115-.118 1.585-.423.448-.31.811-.729 1.056-1.217v-5.288a3.25 3.25 0 0 0-1.056-1.163 2.639 2.639 0 0 0-1.559-.424 2.43 2.43 0 0 0-2.218 1.243 6.22 6.22 0 0 0-.74 3.2v.476l-.026-.106zm12.73-4.601c.377-.54.874-.983 1.452-1.296a3.984 3.984 0 0 1 1.902-.45 3.695 3.695 0 0 1 2.852 1.111 4.843 4.843 0 0 1 1.03 3.385v7.245h-1.954V356.7a3.07 3.07 0 0 0-.608-2.09 2.323 2.323 0 0 0-1.822-.687 3.087 3.087 0 0 0-1.558.397 3.41 3.41 0 0 0-1.162 1.11v8.462h-2.087v-16.5h1.955v6.584-.079zm25.38 4.707a6.298 6.298 0 0 1-1.188 3.992 3.933 3.933 0 0 1-3.275 1.507 4.169 4.169 0 0 1-1.955-.45 3.646 3.646 0 0 1-1.373-1.295l-.264 1.507h-1.69v-16.499h2.086v6.399a3.593 3.593 0 0 1 1.347-1.164 4.09 4.09 0 0 1 1.875-.396 3.802 3.802 0 0 1 3.301 1.692 7.622 7.622 0 0 1 1.189 4.442v.265h-.053zm-2.086-.212a6.326 6.326 0 0 0-.713-3.2 2.376 2.376 0 0 0-2.193-1.242 2.639 2.639 0 0 0-1.61.476 3.304 3.304 0 0 0-1.057 1.269v4.971a3.41 3.41 0 0 0 1.056 1.322 2.639 2.639 0 0 0 1.638.476 2.482 2.482 0 0 0 2.192-1.058 4.817 4.817 0 0 0 .713-2.644v-.211l-.026-.159zm11.646 5.5a2.48 2.48 0 0 0-.158-.926 6.671 6.671 0 0 1 0-.793 4.85 4.85 0 0 1-1.505 1.375 3.87 3.87 0 0 1-2.008.555 3.748 3.748 0 0 1-2.64-.925 3.36 3.36 0 0 1-.925-2.644 2.963 2.963 0 0 1 1.32-2.644 6.2 6.2 0 0 1 3.592-.926h2.272v-1.005a2.117 2.117 0 0 0-.608-1.586 2.402 2.402 0 0 0-1.743-.582 2.48 2.48 0 0 0-1.637.503c-.398.288-.634.75-.634 1.242h-1.98a2.645 2.645 0 0 1 1.188-2.274 4.856 4.856 0 0 1 3.195-1.03 4.724 4.724 0 0 1 3.117.978 3.492 3.492 0 0 1 1.188 2.855v5.5c-.021.396-.021.794 0 1.19.044.377.124.749.238 1.11h-2.14l-.131.027h-.001zm-3.46-1.534a3.694 3.694 0 0 0 2.034-.581c.537-.29.957-.758 1.189-1.322v-1.851h-2.324a3.035 3.035 0 0 0-2.007.634c-.47.35-.752.896-.766 1.48-.02.447.154.88.475 1.19.403.297.903.429 1.4.371v.08l-.001-.001zm13.734-8.17h-1.056a2.375 2.375 0 0 0-1.4.397 2.644 2.644 0 0 0-.872 1.11v8.197h-2.086v-11.45h1.849l.211 1.667a3.991 3.991 0 0 1 1.188-1.375 2.797 2.797 0 0 1 1.638-.503h.792l-.264 1.957zm7.421 0h-1.056a2.375 2.375 0 0 0-1.4.397 2.644 2.644 0 0 0-.871 1.11v8.197h-2.087v-11.45h1.849l.211 1.667a3.991 3.991 0 0 1 1.189-1.375 2.797 2.797 0 0 1 1.637-.503h.792l-.264 1.957zm4.279-4.76h-2.087v-2.115h2.087v2.115zm0 14.385h-2.087v-11.45h2.087v11.529-.08.001zm7.923.079a4.804 4.804 0 0 1-3.803-1.587 6.007 6.007 0 0 1-1.4-4.124v-.476a5.874 5.874 0 0 1 1.453-4.072 4.488 4.488 0 0 1 3.433-1.613 4.329 4.329 0 0 1 3.486 1.401 5.557 5.557 0 0 1 1.189 3.728v1.455h-7.395a4.499 4.499 0 0 0 .845 2.644 2.64 2.64 0 0 0 2.245 1.057 5.276 5.276 0 0 0 1.848-.29 4.305 4.305 0 0 0 1.374-.82l.819 1.348a4.832 4.832 0 0 1-1.612 1.005 6.463 6.463 0 0 1-2.482.344zm-.317-10.233a2.27 2.27 0 0 0-1.796.873 4.154 4.154 0 0 0-.898 2.194h5.282v-.264a3.175 3.175 0 0 0-.66-2.036 2.349 2.349 0 0 0-1.928-.635v-.132zm12.44.529h-1.057a2.375 2.375 0 0 0-1.4.397 2.644 2.644 0 0 0-.871 1.11v8.197h-2.087v-11.45h1.849l.211 1.667a3.991 3.991 0 0 1 1.189-1.375 2.797 2.797 0 0 1 1.637-.503h.792l-.264 1.957h.001z" fill="#000" fill-rule="nonzero"/><rect stroke="#DEDEDE" stroke-width="1.347" fill="#FFF" fill-rule="nonzero" x="487.692" y="401.359" width="236.715" height="37.917" rx="6.761"/><path d="M507.87 415.268a3.44 3.44 0 0 1-.687 2.115 4.041 4.041 0 0 1-1.823 1.348 4.6 4.6 0 0 1 2.14 1.455c.525.65.805 1.464.792 2.3a3.968 3.968 0 0 1-1.4 3.252 6.411 6.411 0 0 1-7.263 0 3.968 3.968 0 0 1-1.373-3.252 3.602 3.602 0 0 1 .792-2.3 4.49 4.49 0 0 1 2.113-1.455 3.91 3.91 0 0 1-1.796-1.348 3.493 3.493 0 0 1-.66-2.115 3.969 3.969 0 0 1 1.241-3.147 4.803 4.803 0 0 1 3.301-1.11 4.882 4.882 0 0 1 3.302 1.11 3.916 3.916 0 0 1 1.32 3.147h.001zm-1.638 7.165a2.646 2.646 0 0 0-.845-2.089 2.903 2.903 0 0 0-2.113-.82 2.771 2.771 0 0 0-2.905 2.883c-.05.77.24 1.523.792 2.062a3.404 3.404 0 0 0 4.252 0c.555-.528.853-1.27.819-2.036zm-.423-7.113a2.646 2.646 0 0 0-.713-1.903 2.639 2.639 0 0 0-3.592 0 2.646 2.646 0 0 0-.686 1.93c-.025.691.22 1.365.686 1.877a2.639 2.639 0 0 0 3.619 0c.462-.522.7-1.207.66-1.904h.026zm14.473 5.474a6.907 6.907 0 0 1-1.294 4.521 4.883 4.883 0 0 1-7.157 0 6.854 6.854 0 0 1-1.32-4.521v-3.649a6.88 6.88 0 0 1 1.32-4.522 4.857 4.857 0 0 1 7.157 0 6.88 6.88 0 0 1 1.32 4.522v3.649h-.026zm-1.98-4.02a5.293 5.293 0 0 0-.714-3.014 2.64 2.64 0 0 0-4.199 0 5.293 5.293 0 0 0-.713 3.015v4.521a5.293 5.293 0 0 0 .74 3.015 2.429 2.429 0 0 0 2.112 1.03 2.402 2.402 0 0 0 2.087-1.004 5.3 5.3 0 0 0 .713-3.014v-4.548h-.027l.001-.001zm7.051 9.89h-2.087v-2.168h2.087v2.168zm12.994-5.87a6.907 6.907 0 0 1-1.294 4.521 4.883 4.883 0 0 1-7.158 0 6.854 6.854 0 0 1-1.32-4.521v-3.649a6.88 6.88 0 0 1 1.32-4.522 4.857 4.857 0 0 1 7.158 0 6.88 6.88 0 0 1 1.32 4.522v3.649h-.026zm-2.06-4.02a5.293 5.293 0 0 0-.713-3.014 2.64 2.64 0 0 0-4.2 0 5.293 5.293 0 0 0-.713 3.015v4.521a5.293 5.293 0 0 0 .74 3.015 2.429 2.429 0 0 0 2.113 1.03c.822.05 1.611-.33 2.086-1.004.533-.911.781-1.96.713-3.014v-4.548h-.026v-.001zm10.405-5.737a7.017 7.017 0 0 1 1.559.185c.449.093.884.244 1.294.45l-.45 1.586a6.15 6.15 0 0 0-1.082-.423 4.828 4.828 0 0 0-1.32-.159 3.194 3.194 0 0 0-2.642 1.322 5.531 5.531 0 0 0-1.003 3.438v.238a5.277 5.277 0 0 1 3.433-1.269 4.118 4.118 0 0 1 3.301 1.427 5.292 5.292 0 0 1 1.215 3.623 5.742 5.742 0 0 1-1.294 3.887 4.382 4.382 0 0 1-3.486 1.507 4.83 4.83 0 0 1-3.75-1.64 6.668 6.668 0 0 1-1.48-4.627v-2.935a6.933 6.933 0 0 1 1.638-4.812 5.28 5.28 0 0 1 4.067-1.798zm-.713 6.954a3.588 3.588 0 0 0-1.822.423c-.48.273-.874.676-1.136 1.164v1.242a5.293 5.293 0 0 0 .898 3.28 2.64 2.64 0 0 0 2.245 1.162 2.27 2.27 0 0 0 1.98-1.084 4.79 4.79 0 0 0 .714-2.644c.04-.9-.231-1.787-.766-2.512a2.64 2.64 0 0 0-2.113-1.03v-.001zm16.559-2.723a3.44 3.44 0 0 1-.686 2.115 4.041 4.041 0 0 1-1.823 1.348c.837.271 1.58.776 2.14 1.455.525.65.805 1.464.792 2.3a3.968 3.968 0 0 1-1.4 3.252 6.385 6.385 0 0 1-7.236 0 3.968 3.968 0 0 1-1.373-3.252 3.596 3.596 0 0 1 .792-2.3 4.49 4.49 0 0 1 2.113-1.455 3.91 3.91 0 0 1-1.796-1.348 3.52 3.52 0 0 1-.66-2.115 3.969 3.969 0 0 1 1.24-3.147 4.83 4.83 0 0 1 3.302-1.11 4.882 4.882 0 0 1 3.301 1.11 3.916 3.916 0 0 1 1.294 3.147zm-1.637 7.165a2.646 2.646 0 0 0-.845-2.089 2.903 2.903 0 0 0-2.113-.82 2.771 2.771 0 0 0-2.905 2.883c-.05.77.24 1.523.792 2.062a3.404 3.404 0 0 0 4.252 0c.507-.55.756-1.29.687-2.036h.132zm-.423-7.113a2.646 2.646 0 0 0-.713-1.903 2.639 2.639 0 0 0-3.591 0 2.646 2.646 0 0 0-.687 1.93 2.646 2.646 0 0 0 .687 1.877 2.639 2.639 0 0 0 3.618 0 2.646 2.646 0 0 0 .554-1.904h.132zm-202.54 9.705h7.29v1.639h-9.35v-15.415h2.087v13.776h-.027zm8.716-4.205a6.298 6.298 0 0 1 1.373-4.177 4.593 4.593 0 0 1 3.724-1.64 4.646 4.646 0 0 1 3.75 1.64 6.271 6.271 0 0 1 1.373 4.177v.238a6.271 6.271 0 0 1-1.373 4.178 5.12 5.12 0 0 1-7.474 0 6.271 6.271 0 0 1-1.373-4.178v-.238zm2.086.238a5.425 5.425 0 0 0 .766 3.015 2.64 2.64 0 0 0 4.542 0 5.293 5.293 0 0 0 .766-3.015v-.238a5.293 5.293 0 0 0-.766-2.988 2.64 2.64 0 0 0-2.27-1.19 2.64 2.64 0 0 0-2.246 1.19 5.452 5.452 0 0 0-.766 2.988v.238h-.026zm13.628 1.428l.237 1.375.29-1.375 2.272-7.271h1.664l2.298 7.271.317 1.534.317-1.534 1.795-7.271h2.06l-3.327 11.449h-1.69l-2.219-6.98-.475-1.957-.45 1.93-2.165 6.98h-1.69l-3.328-11.449h2.06l2.034 7.298zm28.602-1.11a6.298 6.298 0 0 1-1.188 3.992 3.933 3.933 0 0 1-3.275 1.507 4.169 4.169 0 0 1-1.955-.45 3.646 3.646 0 0 1-1.373-1.295l-.264 1.507h-1.69v-16.473h2.086v6.4a3.593 3.593 0 0 1 1.347-1.164 4.09 4.09 0 0 1 1.875-.397 3.802 3.802 0 0 1 3.301 1.692 7.622 7.622 0 0 1 1.189 4.443v.211l-.053.027zm-2.086-.212a6.326 6.326 0 0 0-.713-3.2 2.376 2.376 0 0 0-2.193-1.242 2.639 2.639 0 0 0-1.61.476 3.304 3.304 0 0 0-1.057 1.269v4.971a3.41 3.41 0 0 0 1.056 1.322 2.639 2.639 0 0 0 1.638.476 2.482 2.482 0 0 0 2.192-1.058 4.817 4.817 0 0 0 .713-2.644v-.211l-.026-.159zm11.646 5.5a2.48 2.48 0 0 0-.158-.926 6.671 6.671 0 0 1 0-.793 4.862 4.862 0 0 1-1.505 1.375 3.87 3.87 0 0 1-2.008.555 3.748 3.748 0 0 1-2.64-.925 3.36 3.36 0 0 1-.925-2.644 2.963 2.963 0 0 1 1.32-2.644 6.2 6.2 0 0 1 3.592-.926h2.272V418.6a2.117 2.117 0 0 0-.608-1.586 2.402 2.402 0 0 0-1.743-.582 2.48 2.48 0 0 0-1.637.502 1.536 1.536 0 0 0-.634 1.243h-1.98a2.645 2.645 0 0 1 1.188-2.274 4.856 4.856 0 0 1 3.195-1.031 4.724 4.724 0 0 1 3.117.978 3.492 3.492 0 0 1 1.188 2.856v5.5c-.021.396-.021.793 0 1.19.044.377.124.748.238 1.11h-2.14l-.131.159-.001-.001zm-3.46-1.534a3.694 3.694 0 0 0 2.034-.581c.537-.29.957-.758 1.189-1.323v-1.85h-2.324a3.035 3.035 0 0 0-2.007.634c-.47.35-.752.896-.766 1.48-.02.447.154.88.475 1.19a1.98 1.98 0 0 0 1.4.45h-.001zm13.734-8.064h-1.056a2.375 2.375 0 0 0-1.4.396 2.644 2.644 0 0 0-.872 1.11v8.171h-2.086v-11.449h1.849l.211 1.666a3.991 3.991 0 0 1 1.188-1.375 2.797 2.797 0 0 1 1.638-.502h.792l-.264 1.983zm7.421 0h-1.056a2.375 2.375 0 0 0-1.4.396 2.644 2.644 0 0 0-.871 1.11v8.171h-2.087v-11.449h1.849l.211 1.666a3.991 3.991 0 0 1 1.189-1.375 2.797 2.797 0 0 1 1.637-.502h.792l-.264 1.983zm4.279-4.786h-2.087v-2.116h2.087v2.116zm0 14.384h-2.087v-11.45h2.087v11.45zm7.923.211a4.804 4.804 0 0 1-3.803-1.586 6.007 6.007 0 0 1-1.4-4.125v-.476a5.874 5.874 0 0 1 1.453-4.072 4.488 4.488 0 0 1 3.433-1.613 4.329 4.329 0 0 1 3.486 1.402 5.557 5.557 0 0 1 1.189 3.728v1.295h-7.395a4.499 4.499 0 0 0 .845 2.645 2.64 2.64 0 0 0 2.245 1.057 5.276 5.276 0 0 0 1.848-.29 4.342 4.342 0 0 0 1.374-.82l.819 1.348a4.832 4.832 0 0 1-1.612 1.005c-.786.33-1.63.5-2.482.502zm-.317-10.232a2.27 2.27 0 0 0-1.796.872 4.154 4.154 0 0 0-.898 2.195h5.282v-.291a3.175 3.175 0 0 0-.66-2.036 2.349 2.349 0 0 0-1.928-.74zm12.44.423h-1.057a2.375 2.375 0 0 0-1.4.396 2.644 2.644 0 0 0-.871 1.11v8.171h-2.087v-11.449h1.849l.211 1.666a3.991 3.991 0 0 1 1.189-1.375 2.797 2.797 0 0 1 1.637-.502h.792l-.264 1.983h.001zm278.76-129.722l.158 1.507a3.91 3.91 0 0 1 1.426-1.27 4.306 4.306 0 0 1 1.875-.37 3.536 3.536 0 0 1 1.955.53 3.199 3.199 0 0 1 1.24 1.586 4.26 4.26 0 0 1 1.427-1.534 3.747 3.747 0 0 1 2.06-.581 3.432 3.432 0 0 1 2.641 1.19 5.505 5.505 0 0 1 1.004 3.622v6.848h-2.087v-6.874a3.811 3.811 0 0 0-.58-2.407 2.112 2.112 0 0 0-1.744-.713 2.19 2.19 0 0 0-1.717.74 3.228 3.228 0 0 0-.765 1.877v7.35h-1.85v-6.874a3.758 3.758 0 0 0-.607-2.353 2.059 2.059 0 0 0-1.716-.74 2.85 2.85 0 0 0-1.558.396 2.643 2.643 0 0 0-.951 1.11v8.488h-2.034v-11.449h1.849l-.027-.08.001.001zm19.305-2.935h-2.086v-2.115h2.086v2.115zm0 14.384h-2.086v-11.45h2.086v11.45zm5.071-11.449l.211 1.719a4.149 4.149 0 0 1 1.427-1.402 3.8 3.8 0 0 1 1.954-.502 3.721 3.721 0 0 1 2.852 1.084 4.763 4.763 0 0 1 1.004 3.358v7.219h-2.087v-7.193a3.096 3.096 0 0 0-.607-2.141 2.402 2.402 0 0 0-1.822-.635 2.929 2.929 0 0 0-1.585.423 3.18 3.18 0 0 0-1.11 1.19v8.356h-2.086v-11.45h1.85v-.026h-.001zm21.498 11.449h-2.086v-13.38h-3.143v-1.506l5.282-.582v15.415l-.053.053z" fill="#000" fill-rule="nonzero"/><path d="M742.128 304.399h31.693" stroke="#000" stroke-width="2.641" stroke-dasharray="2.641"/><path d="M839.846 293.822h-39.615" stroke="#E98024" stroke-width="2.641"/><path stroke="#E98024" stroke-width="2.694" d="M804.879 298.555l-6.048-6.055 6.048-6.055"/><path stroke="#CAC8BA" stroke-width="1.347" fill="#FEFDEC" fill-rule="nonzero" d="M841 269h189.362v47.41H841z"/><path d="M862.23 293.422c-.247 1.324-.846 2.373-1.798 3.146-.952.774-2.094 1.143-3.424 1.108-.79-.018-1.482-.213-2.074-.585-.592-.372-1.052-.908-1.38-1.608a6.007 6.007 0 0 1-.545-2.325 7.45 7.45 0 0 1 .062-1.406l.15-1.055c.275-1.922.95-3.438 2.025-4.548 1.075-1.11 2.383-1.651 3.925-1.622 1.2.024 2.153.412 2.856 1.165.703.753 1.075 1.797 1.116 3.133H861.5c-.077-1.793-.78-2.76-2.11-2.9l-.29-.018c-1.107-.03-2.032.383-2.773 1.235-.741.853-1.22 2.017-1.437 3.494l-.193 1.327-.053.773c-.035 1.078.157 1.935.576 2.571.419.636 1.041.965 1.867.989.891.03 1.628-.185 2.21-.642.584-.457 1.028-1.192 1.332-2.206l1.6-.026zm4.42-4.272c.832-.908 1.79-1.35 2.874-1.327.89.012 1.551.318 1.982.919.43.6.59 1.443.479 2.527l-1.037 6.231h-1.591l1.046-6.258a3.34 3.34 0 0 0 .009-.8c-.1-.82-.583-1.239-1.45-1.256-.973-.024-1.811.486-2.514 1.529l-1.178 6.785h-1.59l2.346-13.5h1.59l-.966 5.15zm12.015-1.336c.797.012 1.48.229 2.048.65.568.423.988 1.004 1.26 1.745.273.742.365 1.552.278 2.43l-.018.194a6.396 6.396 0 0 1-.826 2.51 4.848 4.848 0 0 1-1.705 1.744 4.158 4.158 0 0 1-2.294.589c-.791-.012-1.472-.229-2.044-.65-.57-.422-.988-.997-1.252-1.723-.264-.727-.358-1.527-.281-2.4.088-.984.354-1.869.8-2.654.445-.785 1.018-1.393 1.718-1.824.7-.43 1.472-.634 2.316-.61zm-3.235 5.098a5.4 5.4 0 0 0 0 1.151c.059.692.265 1.243.62 1.653.354.41.828.624 1.42.641a2.534 2.534 0 0 0 1.458-.39c.446-.279.82-.7 1.125-1.262a5.311 5.311 0 0 0 .59-1.872c.046-.54.055-.993.026-1.362-.07-.71-.285-1.269-.642-1.679-.357-.41-.832-.627-1.424-.65-.82-.018-1.517.304-2.092.966-.574.663-.928 1.53-1.063 2.602l-.018.202zm13.28-5.098c.797.012 1.48.229 2.048.65.569.423.99 1.004 1.262 1.745.272.742.364 1.552.276 2.43l-.017.194a6.396 6.396 0 0 1-.826 2.51 4.848 4.848 0 0 1-1.705 1.744 4.158 4.158 0 0 1-2.294.589c-.791-.012-1.472-.229-2.044-.65-.571-.422-.989-.997-1.252-1.723-.264-.727-.358-1.527-.281-2.4.087-.984.354-1.869.8-2.654.445-.785 1.017-1.393 1.718-1.824.7-.43 1.472-.634 2.316-.61zm-3.234 5.098a5.4 5.4 0 0 0 0 1.151c.059.692.265 1.243.62 1.653.354.41.827.624 1.42.641a2.534 2.534 0 0 0 1.458-.39c.446-.279.82-.7 1.125-1.262a5.311 5.311 0 0 0 .59-1.872c.046-.54.055-.993.025-1.362-.07-.71-.284-1.269-.641-1.679-.358-.41-.832-.627-1.424-.65-.82-.018-1.518.304-2.092.966-.574.663-.928 1.53-1.063 2.602l-.018.202zm13.887 2.013c.088-.656-.273-1.12-1.081-1.389l-1.653-.483c-1.394-.48-2.068-1.278-2.021-2.39.041-.839.423-1.526 1.147-2.062.724-.536 1.575-.798 2.553-.787.961.012 1.742.292 2.342.84.601.548.89 1.261.866 2.14l-1.582-.009c.012-.474-.138-.861-.448-1.16-.31-.299-.724-.454-1.24-.466-.55-.012-1.025.123-1.423.404a1.48 1.48 0 0 0-.642 1.038c-.076.55.261.952 1.011 1.204l.8.22c1.09.28 1.863.647 2.32 1.098.457.451.668 1.01.633 1.679a2.666 2.666 0 0 1-.58 1.547c-.352.44-.82.775-1.406 1.006a4.703 4.703 0 0 1-1.872.32c-1.008-.01-1.84-.305-2.497-.883-.656-.577-.972-1.32-.949-2.228l1.591.01c0 .532.17.96.51 1.282.34.323.805.484 1.397.484.58.012 1.081-.11 1.503-.365.422-.255.662-.605.72-1.05zm7.312 2.75c-1.183-.023-2.109-.46-2.777-1.309-.668-.85-.95-1.936-.844-3.26l.044-.378c.1-.944.38-1.805.84-2.584.46-.78 1.02-1.367 1.683-1.763a3.927 3.927 0 0 1 2.144-.567c.979.024 1.746.35 2.303.976.557.627.861 1.477.914 2.549.018.38.006.762-.035 1.142l-.097.73h-6.214c-.105.861.037 1.594.427 2.197.39.604.97.917 1.744.94.938.024 1.805-.398 2.602-1.265l.914.773a4.183 4.183 0 0 1-1.543 1.35c-.63.325-1.331.481-2.105.47zm1.011-8.533a2.324 2.324 0 0 0-1.718.668c-.49.462-.878 1.15-1.165 2.065l4.623.009.036-.14c.093-.74-.025-1.353-.356-1.842-.331-.49-.805-.743-1.42-.76zm12.032 5.959l3.384-7.11h1.758l-5.643 11.091c-.785 1.541-1.793 2.303-3.023 2.285-.217-.006-.536-.058-.958-.158l.14-1.318.414.044c.504.023.939-.09 1.305-.339.366-.249.69-.652.971-1.208l.571-1.09-1.643-9.308h1.66l1.064 7.11zm10.222-7.287c.797.012 1.48.229 2.048.65.568.423.989 1.004 1.261 1.745.273.742.365 1.552.277 2.43l-.018.194a6.396 6.396 0 0 1-.826 2.51 4.848 4.848 0 0 1-1.705 1.744 4.158 4.158 0 0 1-2.294.589c-.79-.012-1.472-.229-2.043-.65-.572-.422-.989-.997-1.253-1.723-.263-.727-.357-1.527-.28-2.4.087-.984.354-1.869.799-2.654.445-.785 1.018-1.393 1.718-1.824.7-.43 1.472-.634 2.316-.61zm-3.234 5.098a5.4 5.4 0 0 0 0 1.151c.058.692.265 1.243.62 1.653.354.41.827.624 1.419.641a2.534 2.534 0 0 0 1.459-.39c.445-.279.82-.7 1.125-1.262a5.311 5.311 0 0 0 .589-1.872c.046-.54.055-.993.026-1.362-.07-.71-.284-1.269-.642-1.679-.357-.41-.832-.627-1.423-.65-.82-.018-1.518.304-2.092.966-.575.663-.929 1.53-1.064 2.602l-.017.202zm14.036 3.648c-.744.767-1.69 1.14-2.84 1.116-.907-.024-1.58-.349-2.016-.976-.437-.627-.6-1.482-.488-2.566l1.02-6.144h1.59l-1.028 6.17c-.03.258-.035.51-.018.756.03.422.156.753.378.993.223.24.534.37.932.387 1.137.035 2.016-.425 2.637-1.38l1.195-6.926h1.59l-1.651 9.51h-1.503l.202-.94zm9.589-7.12l-.747-.079c-1.02 0-1.823.46-2.409 1.38l-1.169 6.759h-1.59l1.652-9.51 1.538-.009-.237 1.108c.674-.885 1.468-1.316 2.382-1.292.193 0 .445.044.755.132l-.175 1.511zm4.948 3.288c.117-.967.384-1.84.8-2.62.416-.779.928-1.362 1.538-1.749a3.517 3.517 0 0 1 2.012-.553c1.061.023 1.875.41 2.444 1.16l.914-4.966h1.59l-2.337 13.5h-1.45l.167-1.02c-.75.82-1.676 1.22-2.778 1.196-.879-.024-1.579-.368-2.1-1.033-.522-.665-.803-1.557-.844-2.676a8.547 8.547 0 0 1 .044-1.24zm1.53.914c-.018.837.131 1.488.447 1.95.317.464.78.701 1.39.713.919.04 1.736-.422 2.451-1.389l.756-4.395c-.351-.867-.99-1.312-1.916-1.335a2.41 2.41 0 0 0-1.657.566c-.477.396-.84.95-1.09 1.662a6.859 6.859 0 0 0-.382 2.228zm13.983 2.918c-.745.767-1.69 1.14-2.84 1.116-.907-.024-1.58-.349-2.016-.976-.437-.627-.6-1.482-.488-2.566l1.02-6.144h1.59l-1.028 6.17c-.03.258-.035.51-.018.756.03.422.156.753.378.993.223.24.533.37.932.387 1.137.035 2.015-.425 2.637-1.38l1.195-6.926h1.59l-1.652 9.51h-1.503l.203-.94zm9.588-7.12l-.747-.079c-1.02 0-1.822.46-2.408 1.38l-1.169 6.759h-1.59l1.652-9.51 1.538-.009-.237 1.108c.673-.885 1.467-1.316 2.381-1.292.194 0 .446.044.756.132l-.176 1.511zm5.898 8.06a2.13 2.13 0 0 1-.062-.501l.027-.501c-.873.809-1.8 1.201-2.778 1.178-.837-.012-1.519-.277-2.043-.796-.524-.518-.763-1.167-.716-1.946.058-1.008.5-1.795 1.322-2.36.824-.566 1.906-.848 3.248-.848l1.661.008.106-.755c.058-.569-.052-1.019-.33-1.35-.278-.33-.696-.502-1.252-.514a2.453 2.453 0 0 0-1.446.4c-.42.278-.676.646-.77 1.103l-1.599.009a2.55 2.55 0 0 1 .65-1.481c.381-.43.87-.765 1.468-1.002a4.742 4.742 0 0 1 1.855-.338c.99.023 1.76.323 2.311.9.551.578.783 1.344.695 2.299l-.774 4.71-.044.678c-.011.322.024.641.106.958l-.018.149h-1.617zm-2.496-1.23c.51.011.992-.11 1.446-.365a3.66 3.66 0 0 0 1.173-1.06l.343-1.96-1.204-.008c-1.002 0-1.77.158-2.303.475-.533.316-.835.764-.905 1.344-.053.446.05.816.312 1.112.26.296.64.45 1.138.462zm10.468-10.582l-.405 2.302h1.732l-.22 1.257h-1.723l-.993 5.915c-.017.152-.02.293-.009.422.041.457.29.686.747.686.194 0 .452-.03.774-.088l-.123 1.327c-.381.105-.768.158-1.16.158-.633-.012-1.108-.245-1.424-.699-.317-.454-.44-1.065-.37-1.832l.968-5.889h-1.68l.22-1.257h1.68l.404-2.303h1.582zm3.313 11.812h-1.582l1.652-9.51h1.582l-1.652 9.51zm1.31-12.981a.87.87 0 0 1 .672.241c.179.173.268.4.268.681a.955.955 0 0 1-.268.677.962.962 0 0 1-.672.281c-.276.012-.501-.067-.677-.237-.176-.17-.26-.392-.255-.668a.997.997 0 0 1 .264-.685.93.93 0 0 1 .668-.29zm6.574 3.295c.797.012 1.48.229 2.048.65.568.423.988 1.004 1.261 1.745.272.742.365 1.552.277 2.43l-.018.194a6.396 6.396 0 0 1-.826 2.51 4.848 4.848 0 0 1-1.705 1.744 4.158 4.158 0 0 1-2.294.589c-.791-.012-1.472-.229-2.043-.65-.572-.422-.99-.997-1.253-1.723-.264-.727-.357-1.527-.281-2.4.088-.984.354-1.869.8-2.654.445-.785 1.018-1.393 1.718-1.824.7-.43 1.472-.634 2.316-.61zm-3.235 5.098a5.4 5.4 0 0 0 0 1.151c.06.692.266 1.243.62 1.653.355.41.828.624 1.42.641a2.535 2.535 0 0 0 1.459-.39c.445-.279.82-.7 1.125-1.262a5.31 5.31 0 0 0 .588-1.872 8.43 8.43 0 0 0 .027-1.362c-.07-.71-.284-1.269-.642-1.679-.357-.41-.832-.627-1.424-.65-.82-.018-1.517.304-2.091.966-.575.663-.93 1.53-1.064 2.602l-.018.202zm11.154-4.93l-.229 1.204c.856-.938 1.828-1.395 2.918-1.372.897.024 1.559.334 1.987.932.427.598.586 1.439.474 2.523l-1.037 6.231h-1.59l1.045-6.258c.035-.287.038-.554.009-.8-.1-.82-.583-1.239-1.45-1.256-.955-.018-1.793.492-2.514 1.529l-1.178 6.785h-1.59l1.652-9.51 1.503-.009z" fill="#000"/><path stroke="#CAC8BA" stroke-width="1.347" fill="#FEFDEC" fill-rule="nonzero" d="M333 0h209.645v47.41H333z"/><path d="M357.23 24.422c-.247 1.324-.846 2.373-1.798 3.146-.952.774-2.094 1.143-3.424 1.108-.79-.018-1.482-.213-2.074-.585-.592-.372-1.052-.908-1.38-1.608a6.007 6.007 0 0 1-.545-2.325 7.45 7.45 0 0 1 .062-1.406l.15-1.055c.275-1.922.95-3.438 2.025-4.548 1.075-1.11 2.383-1.651 3.925-1.622 1.2.024 2.153.412 2.856 1.165.703.753 1.075 1.797 1.116 3.133H356.5c-.077-1.793-.78-2.76-2.11-2.9l-.29-.018c-1.107-.03-2.032.383-2.773 1.235-.741.853-1.22 2.017-1.437 3.494l-.193 1.327-.053.773c-.035 1.078.157 1.935.576 2.571.419.636 1.041.965 1.867.989.891.03 1.628-.185 2.21-.642.584-.457 1.028-1.192 1.332-2.206l1.6-.026zm4.42-4.272c.832-.908 1.79-1.35 2.874-1.327.89.012 1.551.318 1.982.919.43.6.59 1.443.479 2.527l-1.037 6.231h-1.591l1.046-6.258a3.34 3.34 0 0 0 .009-.8c-.1-.82-.583-1.239-1.45-1.256-.973-.024-1.811.486-2.514 1.529L360.27 28.5h-1.59l2.346-13.5h1.59l-.966 5.15zm12.015-1.336c.797.012 1.48.229 2.047.65.569.423.99 1.004 1.262 1.745.272.742.364 1.552.277 2.43l-.018.194a6.396 6.396 0 0 1-.826 2.51 4.848 4.848 0 0 1-1.705 1.744 4.158 4.158 0 0 1-2.294.589c-.791-.012-1.472-.229-2.044-.65-.57-.422-.988-.997-1.252-1.723-.264-.727-.358-1.527-.281-2.4.088-.984.354-1.869.8-2.654.445-.785 1.018-1.393 1.718-1.824.7-.43 1.472-.634 2.316-.61zm-3.235 5.098a5.4 5.4 0 0 0 0 1.151c.059.692.265 1.243.62 1.653.354.41.828.624 1.42.641a2.534 2.534 0 0 0 1.458-.39c.446-.279.82-.7 1.125-1.262a5.311 5.311 0 0 0 .59-1.872c.046-.54.055-.993.026-1.362-.07-.71-.285-1.269-.642-1.679-.357-.41-.832-.627-1.424-.65-.82-.018-1.517.304-2.092.966-.574.663-.928 1.53-1.063 2.602l-.018.202zm13.28-5.098c.797.012 1.48.229 2.048.65.569.423.99 1.004 1.262 1.745.272.742.364 1.552.276 2.43l-.017.194a6.396 6.396 0 0 1-.826 2.51 4.848 4.848 0 0 1-1.705 1.744 4.158 4.158 0 0 1-2.294.589c-.791-.012-1.472-.229-2.044-.65-.571-.422-.989-.997-1.252-1.723-.264-.727-.358-1.527-.281-2.4.087-.984.354-1.869.8-2.654.445-.785 1.017-1.393 1.718-1.824.7-.43 1.472-.634 2.316-.61zm-3.234 5.098a5.4 5.4 0 0 0 0 1.151c.059.692.265 1.243.62 1.653.354.41.827.624 1.42.641a2.534 2.534 0 0 0 1.458-.39c.446-.279.82-.7 1.125-1.262a5.311 5.311 0 0 0 .59-1.872c.046-.54.055-.993.025-1.362-.07-.71-.284-1.269-.641-1.679-.358-.41-.832-.627-1.424-.65-.82-.018-1.518.304-2.092.966-.574.663-.928 1.53-1.063 2.602l-.018.202zm13.887 2.013c.088-.656-.273-1.12-1.081-1.389l-1.653-.483c-1.394-.48-2.068-1.278-2.021-2.39.041-.839.423-1.526 1.147-2.062.724-.536 1.575-.798 2.553-.787.961.012 1.742.292 2.342.84.601.548.89 1.261.866 2.14l-1.582-.009c.012-.474-.138-.861-.448-1.16-.31-.299-.724-.454-1.24-.466-.55-.012-1.025.123-1.423.404a1.48 1.48 0 0 0-.642 1.038c-.076.55.261.952 1.011 1.204l.8.22c1.09.28 1.863.647 2.32 1.098.457.451.668 1.01.633 1.679a2.666 2.666 0 0 1-.58 1.547c-.352.44-.82.775-1.406 1.006a4.703 4.703 0 0 1-1.872.32c-1.008-.01-1.84-.305-2.497-.883-.656-.577-.972-1.32-.949-2.228l1.591.01c0 .532.17.96.51 1.282.34.323.805.484 1.397.484.58.012 1.081-.11 1.503-.365.422-.255.662-.605.72-1.05zm7.312 2.75c-1.183-.023-2.109-.46-2.777-1.309-.668-.85-.95-1.936-.844-3.26l.044-.378c.1-.944.38-1.805.84-2.584.46-.78 1.02-1.367 1.683-1.763a3.927 3.927 0 0 1 2.144-.567c.979.024 1.746.35 2.303.976.557.627.861 1.477.914 2.549.018.38.006.762-.035 1.142l-.097.73h-6.214c-.105.861.037 1.594.427 2.197.39.604.97.917 1.744.94.938.024 1.805-.398 2.602-1.265l.914.773a4.183 4.183 0 0 1-1.543 1.35c-.63.325-1.331.482-2.105.47zm1.011-8.533a2.324 2.324 0 0 0-1.718.668c-.49.462-.878 1.15-1.165 2.065l4.623.009.036-.14c.093-.74-.025-1.353-.356-1.842-.331-.49-.805-.743-1.42-.76zm12.032 5.959l3.384-7.11h1.758l-5.643 11.091c-.785 1.541-1.793 2.303-3.023 2.285-.217-.006-.536-.058-.958-.158l.14-1.318.414.044c.504.023.939-.09 1.305-.339.366-.249.69-.652.971-1.208l.571-1.09-1.643-9.308h1.66l1.064 7.11zm10.222-7.287c.797.012 1.48.229 2.048.65.568.423.989 1.004 1.261 1.745.273.742.365 1.552.277 2.43l-.018.194a6.396 6.396 0 0 1-.826 2.51 4.848 4.848 0 0 1-1.705 1.744 4.158 4.158 0 0 1-2.294.589c-.79-.012-1.472-.229-2.043-.65-.572-.422-.989-.997-1.253-1.723-.263-.727-.357-1.527-.28-2.4.087-.984.354-1.869.799-2.654.445-.785 1.018-1.393 1.718-1.824.7-.43 1.472-.634 2.316-.61zm-3.234 5.098a5.4 5.4 0 0 0 0 1.151c.058.692.265 1.243.62 1.653.354.41.827.624 1.419.641a2.534 2.534 0 0 0 1.459-.39c.445-.279.82-.7 1.125-1.262a5.311 5.311 0 0 0 .589-1.872c.046-.54.055-.993.026-1.362-.07-.71-.284-1.269-.642-1.679-.357-.41-.832-.627-1.423-.65-.82-.018-1.518.304-2.092.966-.575.663-.929 1.53-1.064 2.602l-.017.202zm14.036 3.648c-.744.767-1.69 1.14-2.84 1.116-.907-.024-1.58-.349-2.016-.976-.437-.627-.6-1.482-.488-2.566l1.02-6.144h1.59l-1.028 6.17c-.03.258-.035.51-.018.756.03.422.156.753.378.993.223.24.534.37.932.387 1.137.035 2.016-.425 2.637-1.38l1.195-6.926h1.59l-1.651 9.51h-1.503l.202-.94zm9.589-7.12l-.747-.079c-1.02 0-1.823.46-2.409 1.38l-1.169 6.759h-1.59l1.652-9.51 1.538-.009-.237 1.108c.674-.885 1.468-1.316 2.382-1.292.193 0 .445.044.755.132l-.175 1.511zm8.692-3.753l-.404 2.303h1.731l-.22 1.257h-1.722l-.993 5.915c-.018.152-.02.293-.01.422.042.457.29.686.748.686.193 0 .451-.03.773-.088l-.123 1.327c-.38.105-.767.158-1.16.158-.633-.012-1.107-.245-1.424-.699-.316-.454-.44-1.065-.369-1.832l.967-5.889h-1.679l.22-1.257h1.679l.404-2.302h1.582zm7.506 3.753l-.747-.079c-1.02 0-1.822.46-2.408 1.38l-1.17 6.759h-1.59l1.652-9.51 1.538-.009-.237 1.108c.674-.885 1.468-1.316 2.382-1.292.193 0 .445.044.756.132l-.176 1.511zm5.897 8.06a2.13 2.13 0 0 1-.061-.501l.026-.501c-.873.809-1.799 1.201-2.777 1.178-.838-.012-1.52-.277-2.044-.796-.524-.518-.763-1.167-.716-1.946.059-1.008.5-1.795 1.323-2.36.823-.566 1.906-.848 3.247-.848l1.662.008.105-.755c.059-.569-.051-1.019-.33-1.35-.278-.33-.695-.502-1.252-.514a2.453 2.453 0 0 0-1.446.4c-.419.278-.675.646-.769 1.103l-1.6.009a2.55 2.55 0 0 1 .65-1.481c.382-.43.871-.765 1.469-1.002a4.742 4.742 0 0 1 1.854-.338c.99.023 1.76.323 2.312.9.55.578.782 1.344.694 2.299l-.773 4.71-.044.678c-.012.322.023.641.105.958l-.017.149h-1.618zm-2.496-1.23c.51.011.992-.11 1.446-.365a3.66 3.66 0 0 0 1.173-1.06l.343-1.96-1.204-.008c-1.002 0-1.77.158-2.303.475-.533.316-.835.764-.905 1.344-.053.446.051.816.312 1.112.26.296.64.45 1.138.462zm6.724-3.542c.117-.967.384-1.84.8-2.62.416-.779.928-1.362 1.538-1.749a3.517 3.517 0 0 1 2.012-.553c1.061.023 1.875.41 2.444 1.16l.914-4.966h1.59l-2.337 13.5h-1.45l.167-1.02c-.75.82-1.676 1.22-2.778 1.196-.879-.024-1.579-.368-2.1-1.033-.522-.665-.803-1.557-.844-2.676a8.547 8.547 0 0 1 .044-1.24zm1.53.914c-.018.837.131 1.488.447 1.95.317.464.78.701 1.39.713.919.04 1.736-.422 2.451-1.389l.756-4.395c-.351-.867-.99-1.312-1.916-1.335a2.41 2.41 0 0 0-1.657.566c-.477.396-.84.95-1.09 1.662a6.859 6.859 0 0 0-.382 2.228zm12.058 4.034c-1.184-.024-2.11-.46-2.778-1.31-.668-.85-.949-1.936-.843-3.26l.044-.378c.1-.944.379-1.805.839-2.584.46-.78 1.021-1.367 1.683-1.763a3.927 3.927 0 0 1 2.145-.567c.978.024 1.746.35 2.302.976.557.627.862 1.477.914 2.549.018.38.006.762-.035 1.142l-.096.73h-6.214c-.106.861.036 1.594.426 2.197.39.604.971.917 1.745.94.937.024 1.804-.398 2.601-1.265l.914.773a4.183 4.183 0 0 1-1.542 1.35c-.63.325-1.332.482-2.105.47zm1.01-8.534a2.324 2.324 0 0 0-1.718.668c-.489.462-.877 1.15-1.164 2.065l4.623.009.035-.14c.094-.74-.025-1.353-.356-1.842-.331-.49-.804-.743-1.42-.76zm12.824-3.454l-.405 2.302h1.732l-.22 1.257h-1.722l-.994 5.915c-.017.152-.02.293-.008.422.04.457.29.686.747.686.193 0 .45-.03.773-.088l-.123 1.327c-.38.105-.768.158-1.16.158-.633-.012-1.108-.245-1.424-.699-.316-.454-.44-1.065-.37-1.832l.968-5.889h-1.679l.22-1.257h1.678l.405-2.302h1.582zm5 9.413l3.385-7.11h1.757l-5.642 11.091c-.785 1.541-1.793 2.303-3.024 2.285-.216-.006-.536-.058-.958-.158l.141-1.318.413.044c.504.023.939-.09 1.305-.339.366-.249.69-.652.971-1.208l.572-1.09-1.644-9.308h1.661l1.064 7.11zm13.553-2.312c-.117.967-.377 1.837-.782 2.61-.404.774-.905 1.352-1.503 1.736a3.44 3.44 0 0 1-1.986.55c-1.102-.024-1.945-.396-2.531-1.117l-.853 4.588h-1.59l2.285-13.166 1.441-.009-.176 1.064c.785-.844 1.726-1.254 2.821-1.23.915.023 1.626.36 2.136 1.01.51.65.78 1.547.809 2.69.006.375-.009.738-.044 1.09l-.027.184zm-1.564-.185l.044-.738c0-.855-.163-1.51-.488-1.964-.325-.454-.795-.693-1.41-.716-.92-.024-1.714.413-2.382 1.31l-.8 4.56c.357.844.999 1.278 1.925 1.301.79.018 1.463-.291 2.017-.927.554-.636.918-1.577 1.094-2.826zm6.952 5.072c-1.183-.024-2.11-.46-2.777-1.31-.668-.85-.95-1.936-.844-3.26l.044-.378c.1-.944.38-1.805.84-2.584.46-.78 1.02-1.367 1.683-1.763a3.927 3.927 0 0 1 2.144-.567c.979.024 1.746.35 2.303.976.556.627.861 1.477.914 2.549.017.38.006.762-.035 1.142l-.097.73h-6.214c-.105.861.037 1.594.426 2.197.39.604.972.917 1.745.94.938.024 1.805-.398 2.602-1.265l.914.773a4.183 4.183 0 0 1-1.543 1.35c-.63.325-1.331.482-2.105.47zm1.01-8.534a2.324 2.324 0 0 0-1.717.668c-.49.462-.878 1.15-1.165 2.065l4.623.009.035-.14c.094-.74-.025-1.353-.356-1.842-.33-.49-.804-.743-1.42-.76z" fill="#000"/><path d="M437 47.918v37.018" stroke="#E98024" stroke-width="2.641"/><path stroke="#E98024" stroke-width="2.694" d="M443.122 80.918L437.048 87 431 80.918"/><path d="M174 128h55.462" stroke="#E98024" stroke-width="2.641"/><path stroke="#E98024" stroke-width="2.694" d="M226 122l6.048 6.055-6.048 6.082"/><path stroke="#CAC8BA" stroke-width="1.347" fill="#FEFDEC" fill-rule="nonzero" d="M0 104h189.362v47.41H0z"/><path d="M25.23 128.422c-.247 1.324-.846 2.373-1.798 3.146-.952.774-2.094 1.143-3.424 1.108-.79-.018-1.482-.213-2.074-.585-.592-.372-1.052-.908-1.38-1.608a6.007 6.007 0 0 1-.545-2.325 7.45 7.45 0 0 1 .062-1.406l.15-1.055c.275-1.922.95-3.438 2.025-4.548 1.075-1.11 2.383-1.651 3.925-1.622 1.2.024 2.153.412 2.856 1.165.703.753 1.075 1.797 1.116 3.133H24.5c-.077-1.793-.78-2.76-2.11-2.9l-.29-.018c-1.107-.03-2.032.383-2.773 1.235-.741.853-1.22 2.017-1.437 3.494l-.193 1.327-.053.773c-.035 1.078.157 1.935.576 2.571.419.636 1.041.965 1.868.989.89.03 1.627-.185 2.21-.642s1.027-1.192 1.331-2.206l1.6-.026zm4.42-4.272c.832-.908 1.79-1.35 2.874-1.327.89.012 1.551.318 1.982.919.43.6.59 1.443.479 2.527l-1.037 6.231h-1.591l1.046-6.258a3.34 3.34 0 0 0 .009-.8c-.1-.82-.583-1.239-1.45-1.256-.973-.024-1.811.486-2.514 1.529L28.27 132.5h-1.59l2.346-13.5h1.59l-.966 5.15zm12.015-1.336c.797.012 1.48.229 2.048.65.568.423.988 1.004 1.26 1.745.273.742.365 1.552.278 2.43l-.018.194a6.396 6.396 0 0 1-.826 2.51 4.848 4.848 0 0 1-1.705 1.744 4.158 4.158 0 0 1-2.294.589c-.791-.012-1.472-.229-2.044-.65-.57-.422-.988-.997-1.252-1.723-.264-.727-.358-1.527-.281-2.4.088-.984.354-1.869.8-2.654.445-.785 1.018-1.393 1.718-1.824.7-.43 1.472-.634 2.316-.61zm-3.235 5.098a5.4 5.4 0 0 0 0 1.151c.059.692.265 1.243.62 1.653.354.41.828.624 1.42.641a2.534 2.534 0 0 0 1.458-.39c.446-.279.82-.7 1.125-1.262a5.311 5.311 0 0 0 .59-1.872c.046-.54.055-.993.026-1.362-.07-.71-.285-1.269-.642-1.679-.357-.41-.832-.627-1.424-.65-.82-.018-1.517.304-2.092.966-.574.663-.928 1.53-1.063 2.602l-.018.202zm13.28-5.098c.797.012 1.48.229 2.048.65.569.423.99 1.004 1.262 1.745.272.742.364 1.552.276 2.43l-.017.194a6.396 6.396 0 0 1-.826 2.51 4.848 4.848 0 0 1-1.705 1.744 4.158 4.158 0 0 1-2.294.589c-.791-.012-1.472-.229-2.044-.65-.571-.422-.989-.997-1.252-1.723-.264-.727-.358-1.527-.281-2.4.087-.984.354-1.869.8-2.654.445-.785 1.017-1.393 1.718-1.824.7-.43 1.472-.634 2.316-.61zm-3.234 5.098a5.4 5.4 0 0 0 0 1.151c.059.692.265 1.243.62 1.653.354.41.827.624 1.42.641a2.534 2.534 0 0 0 1.458-.39c.446-.279.82-.7 1.125-1.262a5.311 5.311 0 0 0 .59-1.872c.046-.54.055-.993.025-1.362-.07-.71-.284-1.269-.641-1.679-.358-.41-.832-.627-1.424-.65-.82-.018-1.518.304-2.092.966-.574.663-.928 1.53-1.063 2.602l-.018.202zm13.887 2.013c.088-.656-.273-1.12-1.081-1.389l-1.653-.483c-1.394-.48-2.068-1.278-2.021-2.39.041-.839.423-1.526 1.147-2.062.724-.536 1.575-.798 2.553-.787.961.012 1.742.292 2.342.84.601.548.89 1.261.866 2.14l-1.582-.009c.012-.474-.138-.861-.448-1.16-.31-.299-.724-.454-1.24-.466-.55-.012-1.025.123-1.423.404a1.48 1.48 0 0 0-.642 1.038c-.076.55.261.952 1.011 1.204l.8.22c1.09.28 1.863.647 2.32 1.098.457.451.668 1.01.633 1.679a2.666 2.666 0 0 1-.58 1.547c-.352.44-.82.775-1.406 1.006a4.703 4.703 0 0 1-1.872.32c-1.008-.01-1.84-.305-2.497-.883-.656-.577-.972-1.32-.949-2.228l1.591.01c0 .532.17.96.51 1.282.34.323.805.484 1.397.484.58.012 1.081-.11 1.503-.365.422-.255.662-.605.72-1.05zm7.312 2.75c-1.183-.023-2.109-.46-2.777-1.309-.668-.85-.95-1.936-.844-3.26l.044-.378c.1-.944.38-1.805.84-2.584.46-.78 1.02-1.367 1.683-1.763a3.927 3.927 0 0 1 2.144-.567c.979.024 1.746.35 2.303.976.557.627.861 1.477.914 2.549.018.38.006.762-.035 1.142l-.097.73h-6.214c-.105.861.037 1.594.427 2.197.39.604.97.917 1.744.94.938.024 1.805-.398 2.602-1.265l.914.773a4.183 4.183 0 0 1-1.543 1.35c-.63.325-1.331.482-2.105.47zm1.011-8.533a2.324 2.324 0 0 0-1.718.668c-.49.462-.878 1.15-1.165 2.065l4.623.009.036-.14c.093-.74-.025-1.353-.356-1.842-.331-.49-.805-.743-1.42-.76zm12.032 5.959l3.384-7.11h1.758l-5.643 11.091c-.785 1.541-1.793 2.303-3.023 2.285-.217-.006-.536-.058-.958-.158l.14-1.318.414.044c.504.023.939-.09 1.305-.339.366-.249.69-.652.971-1.208l.571-1.09-1.643-9.308h1.66l1.064 7.11zm10.222-7.287c.797.012 1.48.229 2.048.65.568.423.989 1.004 1.261 1.745.273.742.365 1.552.277 2.43l-.018.194a6.396 6.396 0 0 1-.826 2.51 4.848 4.848 0 0 1-1.705 1.744 4.158 4.158 0 0 1-2.294.589c-.79-.012-1.472-.229-2.043-.65-.572-.422-.989-.997-1.253-1.723-.263-.727-.357-1.527-.28-2.4.087-.984.354-1.869.799-2.654.445-.785 1.018-1.393 1.718-1.824.7-.43 1.472-.634 2.316-.61zm-3.234 5.098a5.4 5.4 0 0 0 0 1.151c.058.692.265 1.243.62 1.653.354.41.827.624 1.419.641a2.534 2.534 0 0 0 1.459-.39c.445-.279.82-.7 1.125-1.262a5.311 5.311 0 0 0 .589-1.872c.046-.54.055-.993.026-1.362-.07-.71-.284-1.269-.642-1.679-.357-.41-.832-.627-1.423-.65-.82-.018-1.518.304-2.092.966-.575.663-.929 1.53-1.064 2.602l-.017.202zm14.036 3.648c-.744.767-1.69 1.14-2.84 1.116-.907-.024-1.58-.349-2.016-.976-.437-.627-.6-1.482-.488-2.566l1.02-6.144h1.59l-1.028 6.17c-.03.258-.035.51-.017.756.029.422.155.753.377.993.223.24.534.37.932.387 1.137.035 2.016-.425 2.637-1.38l1.195-6.926h1.59l-1.651 9.51h-1.503l.202-.94zm9.589-7.12l-.747-.079c-1.02 0-1.823.46-2.409 1.38l-1.169 6.759h-1.59l1.652-9.51 1.538-.009-.237 1.108c.674-.885 1.468-1.316 2.382-1.292.193 0 .445.044.755.132l-.175 1.511zm7.629-1.459l-.203 1.064c.797-.844 1.761-1.254 2.892-1.23.604.011 1.115.149 1.534.413.419.263.707.635.865 1.116.891-1.043 1.943-1.553 3.156-1.53.949.024 1.65.343 2.1.958.451.616.618 1.442.501 2.479l-1.046 6.249h-1.582l1.037-6.267a3.31 3.31 0 0 0 0-.835c-.11-.796-.632-1.204-1.564-1.221a2.402 2.402 0 0 0-1.578.54 2.5 2.5 0 0 0-.91 1.464l-1.08 6.319h-1.6l1.055-6.258c.076-.65-.022-1.151-.295-1.503-.272-.351-.696-.533-1.27-.545-.99-.023-1.778.428-2.364 1.354l-1.204 6.952h-1.59l1.651-9.51 1.495-.009zm18.07 9.519a2.13 2.13 0 0 1-.062-.501l.027-.501c-.873.809-1.8 1.201-2.778 1.178-.838-.012-1.519-.277-2.043-.796-.524-.518-.763-1.167-.716-1.946.058-1.008.5-1.795 1.322-2.36.824-.566 1.906-.848 3.248-.848l1.661.008.106-.755c.058-.569-.052-1.019-.33-1.35-.278-.33-.696-.502-1.252-.514a2.453 2.453 0 0 0-1.446.4c-.42.278-.676.646-.77 1.103l-1.599.009a2.55 2.55 0 0 1 .65-1.481c.381-.43.87-.765 1.468-1.002a4.742 4.742 0 0 1 1.855-.338c.99.023 1.76.323 2.311.9.551.578.782 1.344.695 2.299l-.774 4.71-.044.678c-.012.322.024.641.106.958l-.018.149h-1.617zm-2.496-1.23c.51.011.991-.11 1.446-.365a3.66 3.66 0 0 0 1.173-1.06l.343-1.96-1.204-.008c-1.002 0-1.77.158-2.303.475-.533.316-.835.764-.905 1.344-.053.446.05.816.312 1.112.26.296.64.45 1.138.462zm12.181-6.83l-.747-.079c-1.02 0-1.822.46-2.408 1.38l-1.169 6.759h-1.59l1.652-9.51 1.538-.009-.237 1.108c.673-.885 1.467-1.316 2.381-1.292.194 0 .446.044.756.132l-.176 1.511zm3.49 3.674l-1.248 1.116-.563 3.27h-1.59l2.346-13.5h1.59l-1.405 8.068.975-.984 3.375-3.094h2.066l-4.369 4.052 3.006 5.458h-1.74l-2.443-4.386zm9.641 4.562c-1.183-.024-2.11-.46-2.777-1.31-.668-.85-.95-1.936-.844-3.26l.044-.378c.1-.944.38-1.805.84-2.584.46-.78 1.02-1.367 1.683-1.763a3.927 3.927 0 0 1 2.144-.567c.979.024 1.746.35 2.303.976.557.627.861 1.477.914 2.549.018.38.006.762-.035 1.142l-.097.73h-6.214c-.105.861.037 1.594.426 2.197.39.604.972.917 1.745.94.938.024 1.805-.398 2.602-1.265l.914.773a4.183 4.183 0 0 1-1.543 1.35c-.63.325-1.331.482-2.105.47zm1.011-8.534a2.324 2.324 0 0 0-1.718.668c-.49.462-.878 1.15-1.165 2.065l4.623.009.035-.14c.094-.74-.024-1.353-.356-1.842-.33-.49-.804-.743-1.419-.76zm8.411-3.454l-.404 2.302h1.731l-.22 1.257h-1.722l-.993 5.915c-.018.152-.02.293-.009.422.041.457.29.686.747.686.193 0 .451-.03.773-.088l-.123 1.327c-.38.105-.767.158-1.16.158-.633-.012-1.107-.245-1.424-.699-.316-.454-.439-1.065-.369-1.832l.967-5.889h-1.679l.22-1.257h1.679l.404-2.302h1.582z" fill="#000"/><path stroke="#E98024" stroke-width="2.641" d="M340.692 357.282h-35.654v63.459h35.654"/><path d="M337.153 351.438l6.075 6.055-6.075 6.082m0 50.159l6.075 6.055-6.075 6.082" stroke="#E98024" stroke-width="2.694"/><path d="M277.308 389.011h26.41" stroke="#E98024" stroke-width="2.641"/><path stroke="#CAC8BA" stroke-width="1.347" fill="#FEFDEC" fill-rule="nonzero" d="M92 365h189.362v47.41H92z"/><path d="M115.23 389.422c-.247 1.324-.846 2.373-1.798 3.146-.952.774-2.094 1.143-3.424 1.108-.79-.018-1.482-.213-2.074-.585-.592-.372-1.052-.908-1.38-1.608a6.007 6.007 0 0 1-.545-2.325 7.45 7.45 0 0 1 .062-1.406l.15-1.055c.275-1.922.95-3.438 2.025-4.548 1.075-1.11 2.383-1.651 3.925-1.622 1.2.024 2.153.412 2.856 1.165.703.753 1.075 1.797 1.116 3.133H114.5c-.077-1.793-.78-2.76-2.11-2.9l-.29-.018c-1.107-.03-2.032.383-2.773 1.235-.741.853-1.22 2.017-1.437 3.494l-.193 1.327-.053.773c-.035 1.078.157 1.935.576 2.571.419.636 1.041.965 1.868.989.89.03 1.627-.185 2.21-.642s1.027-1.192 1.331-2.206l1.6-.026zm4.42-4.272c.832-.908 1.79-1.35 2.874-1.327.89.012 1.551.318 1.982.919.43.6.59 1.443.479 2.527l-1.037 6.231h-1.591l1.046-6.258a3.34 3.34 0 0 0 .009-.8c-.1-.82-.583-1.239-1.45-1.256-.973-.024-1.811.486-2.514 1.529l-1.178 6.785h-1.59l2.346-13.5h1.59l-.966 5.15zm12.015-1.336c.797.012 1.48.229 2.048.65.568.423.988 1.004 1.26 1.745.273.742.365 1.552.278 2.43l-.018.194a6.396 6.396 0 0 1-.826 2.51 4.848 4.848 0 0 1-1.705 1.744 4.158 4.158 0 0 1-2.294.589c-.791-.012-1.472-.229-2.044-.65-.57-.422-.988-.997-1.252-1.723-.264-.727-.358-1.527-.281-2.4.088-.984.354-1.869.8-2.654.445-.785 1.018-1.393 1.718-1.824.7-.43 1.472-.634 2.316-.61zm-3.235 5.098a5.4 5.4 0 0 0 0 1.151c.059.692.265 1.243.62 1.653.354.41.828.624 1.42.641a2.534 2.534 0 0 0 1.458-.39c.446-.279.82-.7 1.125-1.262a5.311 5.311 0 0 0 .59-1.872c.046-.54.055-.993.026-1.362-.07-.71-.285-1.269-.642-1.679-.357-.41-.832-.627-1.424-.65-.82-.018-1.517.304-2.092.966-.574.663-.928 1.53-1.063 2.602l-.018.202zm13.28-5.098c.797.012 1.48.229 2.048.65.569.423.99 1.004 1.262 1.745.272.742.364 1.552.276 2.43l-.017.194a6.396 6.396 0 0 1-.826 2.51 4.848 4.848 0 0 1-1.705 1.744 4.158 4.158 0 0 1-2.294.589c-.791-.012-1.472-.229-2.044-.65-.571-.422-.989-.997-1.252-1.723-.264-.727-.358-1.527-.281-2.4.087-.984.354-1.869.8-2.654.445-.785 1.017-1.393 1.718-1.824.7-.43 1.472-.634 2.316-.61zm-3.234 5.098a5.4 5.4 0 0 0 0 1.151c.059.692.265 1.243.62 1.653.354.41.827.624 1.42.641a2.534 2.534 0 0 0 1.458-.39c.446-.279.82-.7 1.125-1.262a5.311 5.311 0 0 0 .59-1.872c.046-.54.055-.993.025-1.362-.07-.71-.284-1.269-.641-1.679-.358-.41-.832-.627-1.424-.65-.82-.018-1.518.304-2.092.966-.574.663-.928 1.53-1.063 2.602l-.018.202zm13.887 2.013c.088-.656-.273-1.12-1.081-1.389l-1.653-.483c-1.394-.48-2.068-1.278-2.021-2.39.041-.839.423-1.526 1.147-2.062.724-.536 1.575-.798 2.553-.787.961.012 1.742.292 2.342.84.601.548.89 1.261.866 2.14l-1.582-.009c.012-.474-.138-.861-.448-1.16-.31-.299-.724-.454-1.24-.466-.55-.012-1.025.123-1.423.404a1.48 1.48 0 0 0-.642 1.038c-.076.55.261.952 1.011 1.204l.8.22c1.09.28 1.863.647 2.32 1.098.457.451.668 1.01.633 1.679a2.666 2.666 0 0 1-.58 1.547c-.352.44-.82.775-1.406 1.006a4.703 4.703 0 0 1-1.872.32c-1.008-.01-1.84-.305-2.497-.883-.656-.577-.972-1.32-.949-2.228l1.591.01c0 .532.17.96.51 1.282.34.323.805.484 1.397.484.58.012 1.081-.11 1.503-.365.422-.255.662-.605.72-1.05zm7.312 2.75c-1.183-.023-2.109-.46-2.777-1.309-.668-.85-.95-1.936-.844-3.26l.044-.378c.1-.944.38-1.805.84-2.584.46-.78 1.02-1.367 1.683-1.763a3.927 3.927 0 0 1 2.144-.567c.979.024 1.746.35 2.303.976.557.627.861 1.477.914 2.549.018.38.006.762-.035 1.142l-.097.73h-6.214c-.105.861.037 1.594.427 2.197.39.604.97.917 1.744.94.938.024 1.805-.398 2.602-1.265l.914.773a4.183 4.183 0 0 1-1.543 1.35c-.63.325-1.331.481-2.105.47zm1.011-8.533a2.324 2.324 0 0 0-1.718.668c-.49.462-.878 1.15-1.165 2.065l4.623.009.036-.14c.093-.74-.025-1.353-.356-1.842-.331-.49-.805-.743-1.42-.76zm12.032 5.959l3.384-7.11h1.758l-5.643 11.091c-.785 1.541-1.793 2.303-3.023 2.285-.217-.006-.536-.058-.958-.158l.14-1.318.414.044c.504.023.939-.09 1.305-.339.366-.249.69-.652.971-1.208l.571-1.09-1.643-9.308h1.66l1.064 7.11zm10.222-7.287c.797.012 1.48.229 2.048.65.568.423.989 1.004 1.261 1.745.273.742.365 1.552.277 2.43l-.018.194a6.396 6.396 0 0 1-.826 2.51 4.848 4.848 0 0 1-1.705 1.744 4.158 4.158 0 0 1-2.294.589c-.79-.012-1.472-.229-2.043-.65-.572-.422-.989-.997-1.253-1.723-.263-.727-.357-1.527-.28-2.4.087-.984.354-1.869.799-2.654.445-.785 1.018-1.393 1.718-1.824.7-.43 1.472-.634 2.316-.61zm-3.234 5.098a5.4 5.4 0 0 0 0 1.151c.058.692.265 1.243.62 1.653.354.41.827.624 1.419.641a2.534 2.534 0 0 0 1.459-.39c.445-.279.82-.7 1.125-1.262a5.311 5.311 0 0 0 .589-1.872c.046-.54.055-.993.026-1.362-.07-.71-.284-1.269-.642-1.679-.357-.41-.832-.627-1.423-.65-.82-.018-1.518.304-2.092.966-.575.663-.929 1.53-1.064 2.602l-.017.202zm14.036 3.648c-.744.767-1.69 1.14-2.84 1.116-.907-.024-1.58-.349-2.016-.976-.437-.627-.6-1.482-.488-2.566l1.02-6.144h1.59l-1.028 6.17c-.03.258-.035.51-.017.756.029.422.155.753.377.993.223.24.534.37.932.387 1.137.035 2.016-.425 2.637-1.38l1.195-6.926h1.59l-1.651 9.51h-1.503l.202-.94zm9.589-7.12l-.747-.079c-1.02 0-1.823.46-2.409 1.38l-1.169 6.759h-1.59l1.652-9.51 1.538-.009-.237 1.108c.674-.885 1.468-1.316 2.382-1.292.193 0 .445.044.755.132l-.175 1.511zm13.122 3.35c-.117.972-.384 1.848-.8 2.627-.416.78-.92 1.356-1.512 1.731a3.44 3.44 0 0 1-1.969.537c-1.148-.024-2-.455-2.557-1.292l-.325 1.107h-1.468l2.347-13.5h1.59l-.958 5.045c.762-.844 1.688-1.254 2.778-1.23.914.023 1.626.36 2.135 1.01.51.65.78 1.547.809 2.69.006.375-.012.738-.053 1.09l-.017.184zm-1.512-.924c.018-.855-.126-1.51-.43-1.964-.305-.454-.771-.693-1.398-.716-.99-.024-1.828.474-2.514 1.494l-.712 4.14c.352.966 1.011 1.461 1.978 1.485a2.31 2.31 0 0 0 1.63-.554c.466-.393.82-.942 1.06-1.648.24-.706.368-1.452.386-2.237zm8.587 5.634a2.13 2.13 0 0 1-.062-.501l.027-.501c-.873.809-1.799 1.201-2.778 1.178-.837-.012-1.519-.277-2.043-.796-.524-.518-.763-1.167-.716-1.946.058-1.008.5-1.795 1.322-2.36.824-.566 1.906-.848 3.248-.848l1.661.008.106-.755c.058-.569-.052-1.019-.33-1.35-.278-.33-.696-.502-1.252-.514a2.453 2.453 0 0 0-1.446.4c-.42.278-.676.646-.77 1.103l-1.599.009a2.55 2.55 0 0 1 .65-1.481c.381-.43.87-.765 1.468-1.002a4.742 4.742 0 0 1 1.855-.338c.99.023 1.76.323 2.311.9.551.578.783 1.344.695 2.299l-.774 4.71-.044.678c-.011.322.024.641.106.958l-.018.149h-1.617zm-2.496-1.23c.51.011.992-.11 1.446-.365a3.66 3.66 0 0 0 1.173-1.06l.343-1.96-1.204-.008c-1.002 0-1.77.158-2.303.475-.533.316-.835.764-.905 1.344-.053.446.05.816.312 1.112.26.296.64.45 1.138.462zm12.181-6.83l-.747-.079c-1.02 0-1.822.46-2.408 1.38l-1.169 6.759h-1.59l1.652-9.51 1.538-.009-.237 1.108c.673-.885 1.467-1.316 2.381-1.292.194 0 .446.044.756.132l-.176 1.511zm5.995 0l-.747-.079c-1.02 0-1.823.46-2.409 1.38l-1.169 6.759h-1.59l1.652-9.51 1.538-.009-.237 1.108c.674-.885 1.467-1.316 2.382-1.292.193 0 .445.044.755.132l-.175 1.511zm1.801 8.06h-1.582l1.653-9.51h1.582l-1.653 9.51zm1.31-12.981a.87.87 0 0 1 .672.241c.179.173.268.4.268.681a.955.955 0 0 1-.268.677.962.962 0 0 1-.672.281c-.275.012-.501-.067-.677-.237-.176-.17-.26-.392-.255-.668a.997.997 0 0 1 .264-.685.93.93 0 0 1 .668-.29zm5.405 13.157c-1.183-.024-2.11-.46-2.777-1.31-.668-.85-.95-1.936-.844-3.26l.044-.378c.1-.944.38-1.805.84-2.584.46-.78 1.02-1.367 1.683-1.763a3.927 3.927 0 0 1 2.144-.567c.979.024 1.746.35 2.303.976.556.627.861 1.477.914 2.549.017.38.006.762-.035 1.142l-.097.73h-6.214c-.105.861.037 1.594.426 2.197.39.604.972.917 1.745.94.938.024 1.805-.398 2.602-1.265l.914.773a4.183 4.183 0 0 1-1.543 1.35c-.63.325-1.331.481-2.105.47zm1.011-8.534a2.324 2.324 0 0 0-1.718.668c-.49.462-.878 1.15-1.165 2.065l4.623.009.035-.14c.094-.74-.025-1.353-.356-1.842-.33-.49-.804-.743-1.419-.76zm10.125.298l-.747-.079c-1.02 0-1.822.46-2.408 1.38l-1.17 6.759h-1.59l1.652-9.51 1.538-.009-.237 1.108c.674-.885 1.468-1.316 2.382-1.292.193 0 .445.044.756.132l-.176 1.511zm5.968 5.485c.088-.656-.273-1.12-1.081-1.389l-1.653-.483c-1.394-.48-2.068-1.278-2.021-2.39.04-.839.423-1.526 1.147-2.062.723-.536 1.575-.798 2.553-.787.961.012 1.742.292 2.342.84.6.548.89 1.261.866 2.14l-1.582-.009c.012-.474-.138-.861-.448-1.16-.31-.299-.724-.454-1.24-.466-.55-.012-1.025.123-1.423.404a1.48 1.48 0 0 0-.642 1.038c-.076.55.26.952 1.01 1.204l.8.22c1.09.28 1.864.647 2.321 1.098.457.451.668 1.01.633 1.679a2.666 2.666 0 0 1-.58 1.547c-.352.44-.82.775-1.407 1.006a4.703 4.703 0 0 1-1.872.32c-1.007-.01-1.84-.305-2.496-.883-.656-.577-.972-1.32-.949-2.228l1.59.01c0 .532.17.96.51 1.282.34.323.806.484 1.398.484.58.012 1.081-.11 1.503-.365.422-.255.662-.605.72-1.05z" fill="#000"/><path d="M402.756 543.694V509.32" stroke="#E98024" stroke-width="2.641"/><path stroke="#E98024" stroke-width="2.694" d="M396.444 513.656l6.075-6.055 6.048 6.055"/><path stroke="#CAC8BA" stroke-width="1.347" fill="#FEFDEC" fill-rule="nonzero" d="M308 538h189.362v47.41H308z"/><path d="M334.23 562.422c-.247 1.324-.846 2.373-1.798 3.146-.952.774-2.094 1.143-3.424 1.108-.79-.018-1.482-.213-2.074-.585-.592-.372-1.052-.908-1.38-1.608a6.007 6.007 0 0 1-.545-2.325 7.45 7.45 0 0 1 .062-1.406l.15-1.055c.275-1.922.95-3.438 2.025-4.548 1.075-1.11 2.383-1.651 3.925-1.622 1.2.024 2.153.412 2.856 1.165.703.753 1.075 1.797 1.116 3.133H333.5c-.077-1.793-.78-2.76-2.11-2.9l-.29-.018c-1.107-.03-2.032.383-2.773 1.235-.741.853-1.22 2.017-1.437 3.494l-.193 1.327-.053.773c-.035 1.078.157 1.935.576 2.571.419.636 1.041.965 1.867.989.891.03 1.628-.185 2.21-.642.584-.457 1.028-1.192 1.332-2.206l1.6-.026zm4.42-4.272c.832-.908 1.79-1.35 2.874-1.327.89.012 1.551.318 1.982.919.43.6.59 1.443.479 2.527l-1.037 6.231h-1.591l1.046-6.258a3.34 3.34 0 0 0 .009-.8c-.1-.82-.583-1.239-1.45-1.256-.973-.024-1.811.486-2.514 1.529l-1.178 6.785h-1.59l2.346-13.5h1.59l-.966 5.15zm12.015-1.336c.797.012 1.48.229 2.047.65.569.423.99 1.004 1.262 1.745.272.742.364 1.552.277 2.43l-.018.194a6.396 6.396 0 0 1-.826 2.51 4.848 4.848 0 0 1-1.705 1.744 4.158 4.158 0 0 1-2.294.589c-.791-.012-1.472-.229-2.044-.65-.57-.422-.988-.997-1.252-1.723-.264-.727-.358-1.527-.281-2.4.088-.984.354-1.869.8-2.654.445-.785 1.018-1.393 1.718-1.824.7-.43 1.472-.634 2.316-.61zm-3.235 5.098a5.4 5.4 0 0 0 0 1.151c.059.692.265 1.243.62 1.653.354.41.828.624 1.42.641a2.534 2.534 0 0 0 1.458-.39c.446-.279.82-.7 1.125-1.262a5.311 5.311 0 0 0 .59-1.872c.046-.54.055-.993.026-1.362-.07-.71-.285-1.269-.642-1.679-.357-.41-.832-.627-1.424-.65-.82-.018-1.517.304-2.092.966-.574.663-.928 1.53-1.063 2.602l-.018.202zm13.28-5.098c.797.012 1.48.229 2.048.65.569.423.99 1.004 1.262 1.745.272.742.364 1.552.276 2.43l-.017.194a6.396 6.396 0 0 1-.826 2.51 4.848 4.848 0 0 1-1.705 1.744 4.158 4.158 0 0 1-2.294.589c-.791-.012-1.472-.229-2.044-.65-.571-.422-.989-.997-1.252-1.723-.264-.727-.358-1.527-.281-2.4.087-.984.354-1.869.8-2.654.445-.785 1.017-1.393 1.718-1.824.7-.43 1.472-.634 2.316-.61zm-3.234 5.098a5.4 5.4 0 0 0 0 1.151c.059.692.265 1.243.62 1.653.354.41.827.624 1.42.641a2.534 2.534 0 0 0 1.458-.39c.446-.279.82-.7 1.125-1.262a5.311 5.311 0 0 0 .59-1.872c.046-.54.055-.993.025-1.362-.07-.71-.284-1.269-.641-1.679-.358-.41-.832-.627-1.424-.65-.82-.018-1.518.304-2.092.966-.574.663-.928 1.53-1.063 2.602l-.018.202zm13.887 2.013c.088-.656-.273-1.12-1.081-1.389l-1.653-.483c-1.394-.48-2.068-1.278-2.021-2.39.041-.839.423-1.526 1.147-2.062.724-.536 1.575-.798 2.553-.787.961.012 1.742.292 2.342.84.601.548.89 1.261.866 2.14l-1.582-.009c.012-.474-.138-.861-.448-1.16-.31-.299-.724-.454-1.24-.466-.55-.012-1.025.123-1.423.404a1.48 1.48 0 0 0-.642 1.038c-.076.55.261.952 1.011 1.204l.8.22c1.09.28 1.863.647 2.32 1.098.457.451.668 1.01.633 1.679a2.666 2.666 0 0 1-.58 1.547c-.352.44-.82.775-1.406 1.006a4.703 4.703 0 0 1-1.872.32c-1.008-.01-1.84-.305-2.497-.883-.656-.577-.972-1.32-.949-2.228l1.591.01c0 .532.17.96.51 1.282.34.323.805.484 1.397.484.58.012 1.081-.11 1.503-.365.422-.255.662-.605.72-1.05zm7.312 2.75c-1.183-.023-2.109-.46-2.777-1.309-.668-.85-.95-1.936-.844-3.26l.044-.378c.1-.944.38-1.805.84-2.584.46-.78 1.02-1.367 1.683-1.763a3.927 3.927 0 0 1 2.144-.567c.979.024 1.746.35 2.303.976.557.627.861 1.477.914 2.549.018.38.006.762-.035 1.142l-.097.73h-6.214c-.105.861.037 1.594.427 2.197.39.604.97.917 1.744.94.938.024 1.805-.398 2.602-1.265l.914.773a4.183 4.183 0 0 1-1.543 1.35c-.63.325-1.331.481-2.105.47zm1.011-8.533a2.324 2.324 0 0 0-1.718.668c-.49.462-.878 1.15-1.165 2.065l4.623.009.036-.14c.093-.74-.025-1.353-.356-1.842-.331-.49-.805-.743-1.42-.76zm12.032 5.959l3.384-7.11h1.758l-5.643 11.091c-.785 1.541-1.793 2.303-3.023 2.285-.217-.006-.536-.058-.958-.158l.14-1.318.414.044c.504.023.939-.09 1.305-.339.366-.249.69-.652.971-1.208l.571-1.09-1.643-9.308h1.66l1.064 7.11zm10.222-7.287c.797.012 1.48.229 2.048.65.568.423.989 1.004 1.261 1.745.273.742.365 1.552.277 2.43l-.018.194a6.396 6.396 0 0 1-.826 2.51 4.848 4.848 0 0 1-1.705 1.744 4.158 4.158 0 0 1-2.294.589c-.79-.012-1.472-.229-2.043-.65-.572-.422-.989-.997-1.253-1.723-.263-.727-.357-1.527-.28-2.4.087-.984.354-1.869.799-2.654.445-.785 1.018-1.393 1.718-1.824.7-.43 1.472-.634 2.316-.61zm-3.234 5.098a5.4 5.4 0 0 0 0 1.151c.058.692.265 1.243.62 1.653.354.41.827.624 1.419.641a2.534 2.534 0 0 0 1.459-.39c.445-.279.82-.7 1.125-1.262a5.311 5.311 0 0 0 .589-1.872c.046-.54.055-.993.026-1.362-.07-.71-.284-1.269-.642-1.679-.357-.41-.832-.627-1.423-.65-.82-.018-1.518.304-2.092.966-.575.663-.929 1.53-1.064 2.602l-.017.202zm14.036 3.648c-.744.767-1.69 1.14-2.84 1.116-.907-.024-1.58-.349-2.016-.976-.437-.627-.6-1.482-.488-2.566l1.02-6.144h1.59l-1.028 6.17c-.03.258-.035.51-.018.756.03.422.156.753.378.993.223.24.534.37.932.387 1.137.035 2.016-.425 2.637-1.38l1.195-6.926h1.59l-1.651 9.51h-1.503l.202-.94zm9.589-7.12l-.747-.079c-1.02 0-1.823.46-2.409 1.38l-1.169 6.759h-1.59l1.652-9.51 1.538-.009-.237 1.108c.674-.885 1.468-1.316 2.382-1.292.193 0 .445.044.755.132l-.175 1.511zm13.104 3.35c-.117.966-.378 1.836-.782 2.61-.404.773-.905 1.351-1.503 1.735a3.44 3.44 0 0 1-1.986.55c-1.102-.024-1.946-.396-2.532-1.117l-.852 4.588h-1.59l2.284-13.166 1.442-.009-.176 1.064c.785-.844 1.725-1.254 2.821-1.23.914.023 1.626.36 2.136 1.01.51.65.78 1.547.808 2.69.006.375-.008.738-.043 1.09l-.027.184zm-1.564-.186l.044-.738c0-.855-.163-1.51-.488-1.964-.325-.454-.796-.693-1.41-.716-.92-.024-1.715.413-2.383 1.31l-.8 4.56c.358.844 1 1.278 1.925 1.301.791.018 1.464-.291 2.017-.927.554-.636.919-1.577 1.095-2.826zm8.657 4.896a2.13 2.13 0 0 1-.062-.501l.027-.501c-.873.809-1.8 1.201-2.778 1.178-.837-.012-1.519-.277-2.043-.796-.524-.518-.763-1.167-.716-1.946.058-1.008.5-1.795 1.322-2.36.824-.566 1.906-.848 3.248-.848l1.661.008.106-.755c.058-.569-.052-1.019-.33-1.35-.278-.33-.696-.502-1.252-.514a2.453 2.453 0 0 0-1.446.4c-.42.278-.676.646-.77 1.103l-1.599.009a2.55 2.55 0 0 1 .65-1.481c.381-.43.87-.765 1.468-1.002a4.742 4.742 0 0 1 1.855-.338c.99.023 1.76.323 2.311.9.551.578.783 1.344.695 2.299l-.774 4.71-.044.678c-.011.322.024.641.106.958l-.018.149h-1.617zm-2.496-1.23c.51.011.992-.11 1.446-.365a3.66 3.66 0 0 0 1.173-1.06l.343-1.96-1.204-.008c-1.002 0-1.77.158-2.303.475-.533.316-.835.764-.905 1.344-.053.446.05.816.312 1.112.26.296.64.45 1.138.462zm9.677-1.17l3.383-7.11h1.758l-5.642 11.092c-.786 1.541-1.793 2.303-3.024 2.285-.217-.006-.536-.058-.958-.158l.14-1.318.414.044c.504.023.939-.09 1.305-.339.366-.249.69-.652.971-1.208l.572-1.09-1.644-9.308h1.661l1.064 7.11zm10.221-7.286c.797.012 1.48.229 2.048.65.568.423.989 1.004 1.261 1.745.273.742.365 1.552.277 2.43l-.017.194a6.396 6.396 0 0 1-.827 2.51 4.848 4.848 0 0 1-1.705 1.744 4.158 4.158 0 0 1-2.294.589c-.79-.012-1.472-.229-2.043-.65-.571-.422-.989-.997-1.252-1.723-.264-.727-.358-1.527-.282-2.4.088-.984.355-1.869.8-2.654.445-.785 1.018-1.393 1.718-1.824.7-.43 1.473-.634 2.316-.61zm-3.234 5.098a5.4 5.4 0 0 0 0 1.151c.058.692.265 1.243.62 1.653.354.41.827.624 1.419.641a2.534 2.534 0 0 0 1.459-.39c.445-.279.82-.7 1.125-1.262a5.311 5.311 0 0 0 .589-1.872c.047-.54.055-.993.026-1.362-.07-.71-.284-1.269-.641-1.679-.358-.41-.832-.627-1.424-.65-.82-.018-1.518.304-2.092.966-.574.663-.929 1.53-1.064 2.602l-.017.202zm14.036 3.648c-.744.767-1.69 1.14-2.839 1.116-.908-.024-1.58-.349-2.017-.976-.436-.627-.599-1.482-.488-2.566l1.02-6.144h1.59l-1.028 6.17c-.029.258-.035.51-.017.756.029.422.155.753.378.993.222.24.533.37.931.387 1.137.035 2.016-.425 2.637-1.38l1.195-6.926h1.591l-1.652 9.51h-1.503l.202-.94zm7.875-10.872l-.404 2.302h1.731l-.22 1.257h-1.722l-.993 5.915c-.018.152-.02.293-.01.422.042.457.29.686.748.686.193 0 .451-.03.773-.088l-.123 1.327c-.38.105-.767.158-1.16.158-.633-.012-1.107-.245-1.424-.699-.316-.454-.44-1.065-.369-1.832l.967-5.889h-1.679l.22-1.257h1.679l.404-2.303h1.582z" fill="#000"/><g transform="translate(526 138)" fill-rule="nonzero"><rect fill="#C03" width="73" height="25" rx="4"/><path d="M9.484 13a3.52 3.52 0 0 1-1.082.867 2.932 2.932 0 0 1-1.379.328c-.656 0-1.227-.161-1.714-.484-.487-.323-.864-.777-1.13-1.363a4.648 4.648 0 0 1-.398-1.942c0-.76.145-1.445.434-2.054.289-.61.7-1.076 1.23-1.399.532-.323 1.151-.484 1.86-.484 1.125 0 2.011.42 2.66 1.261.648.842.973 1.989.973 3.442v.422c0 2.213-.438 3.83-1.313 4.847-.875 1.019-2.195 1.54-3.96 1.567h-.282v-1.219h.304c1.193-.02 2.11-.332 2.75-.934.641-.601.99-1.553 1.047-2.855zm-2.226 0c.484 0 .93-.148 1.34-.445.409-.297.707-.664.894-1.102v-.578c0-.948-.206-1.719-.617-2.313-.411-.593-.932-.89-1.563-.89-.635 0-1.145.243-1.53.73-.386.487-.579 1.13-.579 1.926 0 .776.186 1.415.559 1.918.372.503.87.754 1.496.754zm7.773-1.39h1.086c.682-.011 1.219-.19 1.61-.54.39-.349.585-.82.585-1.414 0-1.333-.664-2-1.992-2-.625 0-1.123.179-1.496.535-.372.357-.558.83-.558 1.418H12.82c0-.9.33-1.65.989-2.246.658-.596 1.496-.894 2.511-.894 1.073 0 1.914.284 2.524.851.61.568.914 1.357.914 2.367 0 .495-.16.974-.48 1.438-.321.464-.757.81-1.31 1.04.626.197 1.109.525 1.45.983.341.459.512 1.019.512 1.68 0 1.021-.334 1.83-1 2.43-.667.599-1.534.898-2.602.898-1.068 0-1.936-.289-2.605-.867-.67-.578-1.004-1.341-1.004-2.289h1.453c0 .599.195 1.078.586 1.438.39.359.914.539 1.57.539.698 0 1.232-.183 1.602-.547.37-.365.554-.888.554-1.57 0-.662-.203-1.17-.609-1.524-.406-.354-.992-.537-1.758-.547h-1.086v-1.18.001zm8.985 0h1.086c.682-.011 1.218-.19 1.609-.54.39-.349.586-.82.586-1.414 0-1.333-.664-2-1.992-2-.625 0-1.124.179-1.496.535-.373.357-.559.83-.559 1.418h-1.445c0-.9.33-1.65.988-2.246.659-.596 1.496-.894 2.512-.894 1.073 0 1.914.284 2.523.851.61.568.914 1.357.914 2.367 0 .495-.16.974-.48 1.438-.32.464-.757.81-1.309 1.04.625.197 1.108.525 1.45.983.34.459.511 1.019.511 1.68 0 1.021-.333 1.83-1 2.43-.667.599-1.534.898-2.602.898-1.067 0-1.936-.289-2.605-.867-.67-.578-1.004-1.341-1.004-2.289h1.453c0 .599.196 1.078.586 1.438.39.359.914.539 1.57.539.698 0 1.232-.183 1.602-.547.37-.365.555-.888.555-1.57 0-.662-.203-1.17-.61-1.524-.406-.354-.992-.537-1.757-.547h-1.086v-1.18.001zM38.352 18h-7.454v-1.04l3.938-4.374c.583-.662.986-1.2 1.207-1.613.221-.414.332-.843.332-1.286 0-.593-.18-1.08-.54-1.46-.358-.38-.838-.57-1.437-.57-.718 0-1.277.204-1.675.613-.399.408-.598.977-.598 1.707H30.68c0-1.047.337-1.894 1.011-2.54.675-.645 1.577-.968 2.707-.968 1.058 0 1.894.277 2.508.832.615.554.922 1.293.922 2.215 0 1.12-.713 2.453-2.14 4L32.64 16.82h5.71V18h.002zm1.71-.758c0-.25.075-.458.223-.625.149-.166.371-.25.668-.25.297 0 .522.084.676.25.154.167.23.375.23.625 0 .24-.076.44-.23.602-.154.161-.379.242-.676.242-.297 0-.52-.08-.668-.242a.855.855 0 0 1-.222-.602h-.001zm10.133-3.062h1.578v1.18h-1.578V18h-1.453v-2.64h-5.18v-.852l5.094-7.883h1.54v7.555h-.001zm-4.992 0h3.54V8.602l-.173.312-3.367 5.266zm8.54-1.883l.577-5.672h5.828v1.336h-4.601l-.344 3.101c.557-.328 1.19-.492 1.899-.492 1.036 0 1.859.343 2.468 1.028.61.685.914 1.61.914 2.777 0 1.172-.316 2.095-.949 2.77-.633.674-1.517 1.011-2.652 1.011-1.005 0-1.826-.278-2.461-.836-.636-.557-.998-1.328-1.086-2.312h1.367c.089.65.32 1.142.695 1.472.375.331.87.497 1.485.497.672 0 1.199-.23 1.582-.688.383-.458.574-1.091.574-1.898 0-.76-.207-1.371-.621-1.832-.414-.461-.965-.692-1.652-.692-.63 0-1.125.138-1.485.414l-.383.313-1.156-.297h.001zm8.984 0l.578-5.672h5.828v1.336H64.53l-.344 3.101c.558-.328 1.19-.492 1.899-.492 1.036 0 1.86.343 2.469 1.028.61.685.914 1.61.914 2.777 0 1.172-.317 2.095-.95 2.77-.632.674-1.516 1.011-2.652 1.011-1.005 0-1.825-.278-2.46-.836-.636-.557-.998-1.328-1.087-2.312h1.367c.089.65.32 1.142.696 1.472.375.331.87.497 1.484.497.672 0 1.2-.23 1.582-.688.383-.458.574-1.091.574-1.898 0-.76-.207-1.371-.62-1.832-.415-.461-.965-.692-1.653-.692-.63 0-1.125.138-1.484.414l-.383.313-1.156-.297h.001z" fill="#FFF"/></g><g transform="translate(239 94)"><path d="M19.404 51.94h-5.508l-1.152 3.31h-2.568l5.37-14.219h2.218l5.38 14.219h-2.578l-1.162-3.31zm-4.814-1.993h4.12l-2.06-5.898-2.06 5.898zm20.566-8.916v9.502c0 1.51-.483 2.707-1.45 3.59-.967.881-2.254 1.322-3.862 1.322-1.628 0-2.92-.434-3.877-1.303-.957-.87-1.436-2.076-1.436-3.619v-9.492h2.461v9.512c0 .95.241 1.676.723 2.178.482.501 1.191.752 2.129.752 1.9 0 2.851-1.003 2.851-3.008V41.03h2.461v.001zm2.637 14.219V41.031h4.2c1.256 0 2.37.28 3.344.84a5.726 5.726 0 0 1 2.26 2.383c.535 1.029.801 2.207.801 3.535v.713c0 1.348-.268 2.533-.805 3.555a5.658 5.658 0 0 1-2.295 2.363c-.993.553-2.13.83-3.413.83h-4.092zm2.47-12.227v10.254h1.612c1.296 0 2.29-.405 2.983-1.215.694-.811 1.047-1.975 1.06-3.492v-.79c0-1.544-.335-2.722-1.006-3.536-.67-.814-1.644-1.22-2.92-1.22h-1.728l-.001-.001zM51.3 56.471h-1.865l5.595-15.44h1.866L51.3 56.471zm13.29-15.44h2.462v9.971c0 1.36-.425 2.441-1.275 3.242-.85.8-1.97 1.201-3.364 1.201-1.484 0-2.63-.374-3.437-1.123-.808-.748-1.211-1.79-1.211-3.125h2.46c0 .755.188 1.324.562 1.704.374.381.916.572 1.626.572.664 0 1.193-.22 1.587-.66.394-.439.59-1.046.59-1.82V41.03v.001zm7.755 8.936v5.283h-2.471V41.031h5.44c1.588 0 2.85.414 3.784 1.24.934.827 1.401 1.921 1.401 3.282 0 1.393-.457 2.477-1.372 3.252-.915.774-2.196 1.162-3.843 1.162h-2.94.001zm0-1.983h2.969c.878 0 1.549-.206 2.011-.62.462-.413.694-1.01.694-1.792 0-.768-.235-1.382-.704-1.84-.468-.46-1.113-.696-1.933-.709h-3.037v4.961zm14.95-.214l3.272-6.739h2.735l-4.766 8.985v5.234h-2.48v-5.234l-4.776-8.985h2.744l3.272 6.739h-.001zM17.831 20.104h-4.65V25h-2.007V13.447h7.34v1.619h-5.332v3.436h4.65v1.602h-.001zm1.722.524c0-.841.167-1.599.5-2.273.333-.675.801-1.193 1.405-1.555.603-.363 1.295-.544 2.078-.544 1.159 0 2.1.373 2.821 1.119.722.746 1.112 1.735 1.17 2.967l.008.453c0 .846-.162 1.602-.488 2.269a3.607 3.607 0 0 1-1.396 1.547c-.606.365-1.305.548-2.099.548-1.211 0-2.18-.404-2.908-1.21-.727-.807-1.09-1.882-1.09-3.226v-.095h-.001zm1.928.167c0 .883.183 1.575.548 2.075.365.5.873.75 1.523.75.65 0 1.157-.255 1.52-.762.362-.508.543-1.251.543-2.23 0-.867-.186-1.555-.56-2.063-.372-.508-.879-.762-1.519-.762-.63 0-1.129.25-1.5.75-.37.5-.555 1.247-.555 2.242zm12.18-2.619a4.771 4.771 0 0 0-.786-.063c-.883 0-1.478.338-1.785 1.015V25h-1.928v-8.585h1.84l.048.96c.466-.746 1.111-1.119 1.936-1.119.276 0 .503.037.683.111l-.008 1.81v-.001zm4.999 6.983c-1.222 0-2.213-.385-2.972-1.155-.759-.77-1.138-1.794-1.138-3.074v-.238c0-.857.165-1.623.495-2.298a3.782 3.782 0 0 1 1.393-1.575 3.681 3.681 0 0 1 2-.563c1.169 0 2.072.373 2.71 1.119.637.746.955 1.801.955 3.166v.777h-5.61c.059.71.295 1.27.71 1.682.416.413.938.62 1.568.62.883 0 1.603-.358 2.158-1.072l1.04.992c-.344.514-.82.926-1.377 1.194-.574.283-1.218.425-1.932.425zm-.23-7.356c-.53 0-.957.185-1.282.556-.325.37-.533.886-.623 1.547H40.2v-.143c-.042-.645-.214-1.133-.516-1.464-.301-.33-.72-.496-1.253-.496h-.001zm8.252 1.437l1.634-2.825h2.142l-2.626 4.229L50.546 25h-2.127l-1.714-2.936L45 25h-2.142l2.714-4.356-2.619-4.23h2.127l1.603 2.826h-.001z" fill="#000" fill-rule="nonzero"/><rect stroke="#DEDEDE" x=".5" y=".5" width="109" height="69" rx="5"/><path fill="#2A3052" fill-rule="nonzero" d="M85.833 18.333L90 22.5l4.167-4.167z"/><path d="M80 10h20v20H80z"/></g><g transform="translate(368 94)"><path d="M22.734 55.25h-2.46v-6.318h-6.358v6.318h-2.47V41.031h2.47v5.918h6.357v-5.918h2.461V55.25zm5.215 0h-2.373V44.684h2.373V55.25zm-2.52-13.31c0-.365.116-.668.347-.909.231-.24.562-.361.992-.361.43 0 .761.12.996.361.234.241.351.544.351.908 0 .359-.117.656-.351.894-.235.238-.567.356-.996.356-.43 0-.76-.118-.992-.356a1.23 1.23 0 0 1-.346-.894l-.001.001zm4.688 7.949c0-1.641.386-2.951 1.157-3.931.772-.98 1.796-1.47 3.072-1.47 1.204 0 2.151.42 2.842 1.26l.107-1.064h2.139v10.244c0 1.386-.432 2.48-1.294 3.281-.863.8-2.027 1.201-3.492 1.201a5.627 5.627 0 0 1-2.27-.483c-.739-.323-1.3-.744-1.685-1.265l1.123-1.426c.73.866 1.628 1.3 2.696 1.3.787 0 1.41-.214 1.865-.64.456-.427.684-1.054.684-1.88v-.713c-.684.761-1.595 1.142-2.735 1.142-1.237 0-2.248-.491-3.032-1.474-.785-.983-1.177-2.344-1.177-4.082zm2.363.205c0 1.061.217 1.896.65 2.505.433.608 1.033.913 1.802.913.957 0 1.666-.41 2.129-1.23v-4.65c-.45-.8-1.153-1.2-2.11-1.2-.781 0-1.388.309-1.821.927-.433.619-.65 1.53-.65 2.735zm11.729-4.258c.775-.899 1.755-1.348 2.94-1.348 2.252 0 3.395 1.286 3.427 3.858v6.904h-2.373v-6.816c0-.73-.158-1.246-.474-1.548-.315-.303-.78-.454-1.391-.454-.95 0-1.66.423-2.129 1.27v7.548h-2.373v-15h2.373v5.586zm13.418 9.61c-1.504 0-2.723-.474-3.657-1.422-.935-.947-1.402-2.208-1.402-3.784v-.293c0-1.054.204-1.997.61-2.827.408-.83.979-1.476 1.715-1.938a4.531 4.531 0 0 1 2.46-.694c1.44 0 2.551.46 3.335 1.377.785.918 1.177 2.217 1.177 3.897v.957h-6.904c.072.872.363 1.562.874 2.07.511.508 1.154.762 1.929.762 1.087 0 1.972-.44 2.656-1.319l1.28 1.221a4.272 4.272 0 0 1-1.695 1.47c-.707.348-1.5.522-2.378.522v.001zm-.283-9.053c-.651 0-1.177.227-1.577.683-.4.456-.656 1.09-.767 1.904h4.521v-.175c-.052-.795-.263-1.395-.634-1.802-.371-.407-.886-.61-1.543-.61zm11.894.459a5.872 5.872 0 0 0-.967-.079c-1.087 0-1.82.417-2.197 1.25v7.227h-2.373V44.684h2.266l.058 1.181c.573-.918 1.368-1.377 2.383-1.377.339 0 .619.046.84.137l-.01 2.227zm2.168 9.619h-1.865l5.596-15.44h1.865l-5.596 15.44zm9.942-3.194h6.455v1.973h-8.926V41.031h2.47v12.246h.001zm7.675-3.408c0-1.035.206-1.968.616-2.798.41-.83.986-1.468 1.728-1.914.742-.446 1.595-.669 2.559-.669 1.426 0 2.583.46 3.471 1.377.89.918 1.37 2.136 1.44 3.653l.01.556c0 1.042-.2 1.973-.6 2.793-.4.82-.973 1.455-1.719 1.904-.745.45-1.606.674-2.583.674-1.49 0-2.684-.496-3.579-1.489-.895-.993-1.343-2.316-1.343-3.97v-.117zm2.373.205c0 1.087.225 1.939.674 2.554.45.615 1.075.923 1.875.923.801 0 1.424-.313 1.87-.938.446-.625.67-1.54.67-2.744 0-1.068-.23-1.914-.69-2.539-.458-.625-1.081-.937-1.87-.937-.774 0-1.39.307-1.845.922-.456.616-.684 1.535-.684 2.76v-.001zm18.74 1.905l1.68-7.295h2.315L111.25 55.25h-1.953l-2.266-7.256-2.226 7.256h-1.953L99.96 44.684h2.314l1.71 7.216 2.167-7.216h1.787l2.198 7.295zm10.235 3.466c-1.504 0-2.723-.473-3.657-1.42-.934-.948-1.401-2.21-1.401-3.785v-.293c0-1.054.203-1.997.61-2.827.407-.83.978-1.476 1.714-1.938a4.531 4.531 0 0 1 2.46-.694c1.44 0 2.551.46 3.336 1.377.784.918 1.176 2.217 1.176 3.897v.957h-6.904c.072.872.363 1.562.874 2.07.511.508 1.154.762 1.929.762 1.087 0 1.972-.44 2.656-1.319l1.28 1.221a4.272 4.272 0 0 1-1.695 1.47c-.706.348-1.499.522-2.378.522zm-.283-9.052c-.651 0-1.177.227-1.577.683-.4.456-.656 1.09-.767 1.904h4.522v-.175c-.052-.795-.264-1.395-.635-1.802-.371-.407-.886-.61-1.543-.61zm11.894.459a5.872 5.872 0 0 0-.966-.079c-1.088 0-1.82.417-2.198 1.25v7.227h-2.373V44.684h2.266l.059 1.181c.572-.918 1.367-1.377 2.382-1.377.339 0 .619.046.84.137l-.01 2.227z" fill="#000" fill-rule="nonzero"/><path fill="#2A3052" fill-rule="nonzero" d="M118.333 18.333L122.5 22.5l4.167-4.167z"/><path d="M112.5 10h20v20h-20z"/><path d="M19.625 13.447v7.72c0 1.228-.393 2.2-1.179 2.917-.785.716-1.831 1.075-3.138 1.075-1.322 0-2.372-.353-3.15-1.06-.777-.706-1.166-1.686-1.166-2.94v-7.712h2v7.729c0 .772.195 1.362.586 1.769.392.407.969.61 1.73.61 1.545 0 2.317-.814 2.317-2.443v-7.665h2zm9.474 7.348c0 1.327-.302 2.387-.905 3.177-.603.791-1.412 1.187-2.428 1.187-.942 0-1.695-.31-2.261-.929v4.07h-1.928V16.416h1.777l.08.873c.565-.688 1.335-1.032 2.308-1.032 1.048 0 1.869.39 2.464 1.17.595.78.893 1.864.893 3.25v.119-.001zm-1.92-.167c0-.857-.171-1.537-.512-2.04-.342-.502-.83-.753-1.464-.753-.789 0-1.355.325-1.698.976v3.809c.349.666.92 1 1.714 1 .613 0 1.093-.248 1.44-.742.346-.495.52-1.245.52-2.25zm4.094 5.364h-1.516l4.547-12.545h1.515l-4.546 12.545zm6.07-.992V13.447h3.411c1.021 0 1.927.228 2.718.683.79.455 1.403 1.1 1.837 1.936.434.835.65 1.793.65 2.872v.58c0 1.094-.218 2.057-.654 2.887a4.597 4.597 0 0 1-1.865 1.92c-.806.45-1.73.675-2.773.675h-3.324zm2.007-9.934v8.331h1.31c1.052 0 1.86-.33 2.423-.988.564-.658.85-1.604.861-2.836v-.643c0-1.254-.272-2.211-.817-2.872-.545-.661-1.336-.992-2.373-.992H39.35zm8.061 5.562c0-.841.167-1.599.5-2.273.334-.675.802-1.193 1.405-1.555.603-.363 1.296-.544 2.079-.544 1.158 0 2.098.373 2.82 1.119s1.113 1.735 1.17 2.967l.009.453c0 .846-.163 1.602-.488 2.269a3.607 3.607 0 0 1-1.397 1.547c-.605.365-1.305.548-2.098.548-1.212 0-2.181-.404-2.908-1.21-.728-.807-1.092-1.882-1.092-3.226v-.095zm1.929.167c0 .883.182 1.575.547 2.075.365.5.873.75 1.524.75.65 0 1.157-.255 1.519-.762.362-.508.544-1.251.544-2.23 0-.867-.187-1.555-.56-2.063-.373-.508-.88-.762-1.52-.762-.629 0-1.129.25-1.499.75-.37.5-.555 1.247-.555 2.242zm15.226 1.547l1.365-5.927h1.88L65.471 25h-1.587l-1.841-5.895L60.233 25h-1.586l-2.349-8.585h1.88l1.39 5.863 1.76-5.863h1.453l1.785 5.927zm6.324-5.927l.055.992c.635-.767 1.468-1.15 2.5-1.15 1.788 0 2.698 1.023 2.73 3.07V25h-1.929v-5.562c0-.545-.117-.948-.353-1.21-.235-.262-.62-.393-1.154-.393-.778 0-1.357.352-1.738 1.055V25h-1.928v-8.585h1.817z" fill="#000" fill-rule="nonzero"/><rect stroke="#DEDEDE" x=".5" y=".5" width="141.5" height="69" rx="5"/></g><g transform="translate(534 111)" fill-rule="nonzero"><path fill="#000" d="M.012 2.798v-1h3.776l.198.04 2.155.931 2.145-1.197.243-.064h3.967l.356.149 6.045 6.16 2.392 1.233 3.39-1.375 5.31 5.26 8.937.038 3.034-1.281 3.397 4.2h2.648l3.045-4.181 5.964 1.954-.312.95-5.272-1.728-2.916 4.005h-3.395l-.389-.186-3.078-3.804-2.532 1.032h-9.338l-.351-.145-4.988-4.94-2.99 1.214-.417-.019-2.724-1.43-6.025-6.106H8.66L6.413 3.762l-.442.023-2.287-.987z"/><circle fill="#F00100" cx="44.5" cy="16.5" r="1.5"/><circle fill="#00F000" cx="56.5" cy="14.5" r="1.5"/><circle fill="#0000F0" cx="2.5" cy="1.5" r="1.5"/></g><path d="M437 283h19.792v19.792H437z"/><path stroke="#DEDEDE" stroke-width="1.25" stroke-linecap="round" stroke-linejoin="round" d="M440.646 289.77l6.25 6.25 6.249-6.25"/><path d="M698 283h19.792v19.792H698z"/><path stroke="#DEDEDE" stroke-width="1.25" stroke-linecap="round" stroke-linejoin="round" d="M701.646 289.77l6.25 6.25 6.249-6.25"/><path d="M438 473h19.792v19.792H438z"/><path stroke="#DEDEDE" stroke-width="1.25" stroke-linecap="round" stroke-linejoin="round" d="M441.646 479.77l6.25 6.25 6.249-6.25"/><g><path d="M557 474h19.792v19.792H557z"/><path stroke="#DEDEDE" stroke-width="1.25" stroke-linecap="round" stroke-linejoin="round" d="M560.646 480.77l6.25 6.25 6.249-6.25"/></g></g></svg>