<?xml version="1.0" encoding="UTF-8"?>
<svg width="299px" height="197px" viewBox="0 0 299 197" version="1.1" xmlns="http://www.w3.org/2000/svg" xmlns:xlink="http://www.w3.org/1999/xlink">
    <!-- Generator: Sketch 52.5 (67469) - http://www.bohemiancoding.com/sketch -->
    <title>Fall</title>
    <desc>Created with Sketch.</desc>
    <g id="Page-1" stroke="none" stroke-width="1" fill="none" fill-rule="evenodd">
        <g id="Fall">
            <polygon id="Path" fill="#F1F2F2" points="0.993355482 0.989949749 297.993355 0.989949749 297.993355 195.98995 0.993355482 195.98995"></polygon>
            <path d="M1.98671096,1.9798995 L1.98671096,195.020101 L297.013289,195.020101 L297.013289,1.9798995 L1.98671096,1.9798995 Z M299,0 L299,197 L0,197 L0,0 L299,0 Z" id="Path" fill="#C2C2C2" fill-rule="nonzero"></path>
            <g id="Group-3" transform="translate(0.993355, 32.668342)">
                <path d="M2.90670293,22.2752314 L294.539772,22.2752314 M2.90670293,42.6659664 L294.539772,42.6659664 M2.90670293,63.0191493 L294.539772,63.0191493 M2.90670293,103.763067 L294.539772,103.763067 M2.90670293,124.11625 L294.539772,124.11625 M2.90670293,144.469433 L294.539772,144.469433 M38.1284517,1.9220485 L38.1284517,162.419288 M75.0435538,1.9220485 L75.0435538,162.419288 M111.921025,1.9220485 L111.921025,162.419288 M148.836128,1.9220485 L148.836128,162.419288 M185.7136,1.9220485 L185.7136,162.419288 M222.591072,1.9220485 L222.591072,162.419288 M259.506174,1.9220485 L259.506174,162.419288" id="Shape" stroke="#DFDEDE" stroke-width="1.21507508"></path>
                <polygon id="Path" fill="#C2C2C2" fill-rule="nonzero" points="0.799418819 1.93148124 0.799418819 -0.490712116 296.647057 -0.490712116 296.647057 1.93148124"></polygon>
                <path d="M187.256433,114.352731 L152.072314,114.352731 L146.653584,106.128843 L141.234853,114.352731 L106.050735,114.352731 C103.416629,114.352731 101.309346,116.493194 101.309346,119.159386 L101.309346,143.981257 C101.309346,146.647448 103.454259,148.787913 106.050735,148.787913 L187.294063,148.787913 C189.928168,148.787913 192.035452,146.647448 192.035452,143.981257 L192.035452,119.159386 C192.035452,116.493194 189.890538,114.352731 187.256433,114.352731 Z" id="Path" fill="#E88024"></path>
            </g>
            <g id="Group" transform="translate(5.960133, 93.055276)">
                <polygon id="Path" fill="#2A3052" fill-rule="nonzero" points="0.259860831 23.1761021 0.259860831 21.705961 286.694881 21.705961 286.694881 23.1761021"></polygon>
                <polyline id="Path" stroke="#2A3052" stroke-width="3.61128689" stroke-linecap="round" stroke-linejoin="round" points="35.0948891 22.4410316 68.3355832 46.7421041 102.725135 8.44760435 135.556501 43.9138226 179.77778 0.409640211 222.55224 88.9820859 252.268205 62.8180324"></polyline>
                <ellipse id="Oval" fill="#FFFFFF" opacity="0.6" cx="35.0948891" cy="22.4410316" rx="8.01367818" ry="8.41036433"></ellipse>
                <path d="M35.0948891,32.0510311 C29.9899068,32.0510311 25.8774486,27.7350016 25.8774486,22.4410316 C25.8774486,17.1470616 29.9899068,12.8310321 35.0948891,12.8310321 C40.1998714,12.8310321 44.3123296,17.1470616 44.3123296,22.4410316 C44.3123296,27.7350016 40.1998714,32.0510311 35.0948891,32.0510311 Z M35.0948891,29.6517607 C38.8415713,29.6517607 41.904805,26.4368935 41.904805,22.4410316 C41.904805,18.4451697 38.8415713,15.2303024 35.0948891,15.2303024 C31.3482069,15.2303024 28.2849732,18.4451697 28.2849732,22.4410316 C28.2849732,26.4368935 31.3482069,29.6517607 35.0948891,29.6517607 Z" id="Oval" fill="#E88024" fill-rule="nonzero"></path>
                <ellipse id="Oval" fill="#FFFFFF" opacity="0.6" cx="252.268205" cy="62.2231721" rx="8.01367818" ry="8.41036433"></ellipse>
                <path d="M252.268205,71.8341515 C247.163223,71.8341515 243.050765,67.518122 243.050765,62.224152 C243.050765,56.930182 247.163223,52.6141525 252.268205,52.6141525 C257.373188,52.6141525 261.485646,56.930182 261.485646,62.224152 C261.485646,67.518122 257.373188,71.8341515 252.268205,71.8341515 Z M252.268205,69.4348812 C256.014887,69.4348812 259.078121,66.2200139 259.078121,62.224152 C259.078121,58.2282901 256.014887,55.0134229 252.268205,55.0134229 C248.521523,55.0134229 245.458289,58.2282901 245.458289,62.224152 C245.458289,66.2200139 248.521523,69.4348812 252.268205,69.4348812 Z" id="Oval" fill="#E88024" fill-rule="nonzero"></path>
            </g>
            <path d="M31.3323819,93.4525551 C31.3323819,92.9643792 31.1442316,92.5888592 30.8055609,92.2508912 C30.4668903,91.9504752 29.827179,91.6500592 28.9240572,91.4622992 C27.8327851,91.1994353 26.9672935,90.8239153 26.3652123,90.2981873 C25.7898065,89.8286578 25.4578731,89.1247628 25.4620905,88.3830354 C25.4620905,87.5568914 25.8007612,86.8809554 26.4404725,86.3552275 C27.0801836,85.7919476 27.9456754,85.5290835 28.9993174,85.5290835 C30.1282196,85.5290835 31.0313414,85.8294995 31.7086827,86.4678835 C32.3860241,87.1062675 32.6870646,87.8197555 32.6870646,88.6458994 L32.6870646,88.6834514 L31.294752,88.6834514 C31.294752,88.0826194 31.1066016,87.5944434 30.6926708,87.2189235 C30.2787399,86.8434035 29.7142888,86.6556435 28.9616873,86.6556435 C28.284346,86.6556435 27.7198949,86.8058515 27.3812243,87.1438195 C27.00555,87.4432267 26.7958043,87.9037098 26.8167732,88.3830354 C26.8167732,88.8336593 27.0049236,89.2091794 27.4188544,89.5095953 C27.8327851,89.8100113 28.4724964,90.0728754 29.3756182,90.2981873 C30.4668903,90.5610513 31.294752,90.9741232 31.8592031,91.4998512 C32.4236541,92.0255793 32.7246947,92.7015152 32.7246947,93.4525551 C32.7246947,94.2786991 32.3860241,94.9546351 31.7086827,95.480363 C31.0313414,96.006091 30.1282196,96.231403 29.0369475,96.231403 C28.0209355,96.231403 27.0801836,95.930987 26.2899522,95.367707 C25.4997206,94.8044271 25.1234199,94.0533871 25.1234199,93.1145871 L25.1234199,93.0770352 L26.4404725,93.0770352 C26.4404725,93.7529711 26.6662529,94.2411471 27.1554438,94.6166671 C27.6446348,94.992187 28.246716,95.1423951 28.9616873,95.1423951 C29.6766587,95.1423951 30.2034797,94.992187 30.6174106,94.6917711 C31.1066016,94.3538031 31.3323819,93.9407311 31.3323819,93.4525551 Z M36.3371817,86.4678835 L36.3371817,88.3454834 L37.8047546,88.3454834 L37.8047546,89.3969394 L36.3371817,89.3969394 L36.3371817,94.0909391 C36.3371817,94.4664591 36.4124419,94.6917711 36.5629622,94.8419791 C36.7134825,94.992187 36.9016328,95.067291 37.1650434,95.067291 C37.2403035,95.067291 37.3155637,95.067291 37.4284538,95.0297391 C37.5413441,94.992187 37.6166042,94.992187 37.6918644,94.9546351 L37.8800148,95.930987 C37.7671246,96.006091 37.6166042,96.081195 37.4284538,96.156299 C37.2403035,96.193851 37.0145231,96.231403 36.8263727,96.231403 C36.3217256,96.2486572 35.8320677,96.0586298 35.4716901,95.705675 C35.1330194,95.367707 34.9824992,94.8044271 34.9824992,94.0909391 L34.9824992,89.3593874 L33.7030767,89.3593874 L33.7030767,88.3079314 L34.907239,88.3079314 L34.907239,86.4303315 L36.3371817,86.4303315 L36.3371817,86.4678835 Z M44.2018671,96.043643 C44.164237,95.8183311 44.1266069,95.593019 44.0889769,95.405259 C44.0513469,95.2174991 44.0513469,95.067291 44.0513469,94.879531 C43.7879363,95.255051 43.4492657,95.555467 43.0353348,95.8183311 C42.621404,96.081195 42.1698432,96.193851 41.6806522,96.193851 C40.8904207,96.193851 40.2883395,96.006091 39.8744086,95.555467 C39.4382174,95.1034141 39.2069753,94.4925726 39.2346975,93.8656271 C39.2346975,93.1145871 39.535738,92.5513072 40.1378192,92.1382352 C40.7399004,91.7251633 41.5301319,91.4998512 42.5461439,91.4998512 L44.0513469,91.4998512 L44.0513469,90.7488113 C44.0657545,90.345027 43.9165464,89.9524766 43.637416,89.6598034 C43.3181593,89.3743446 42.8990383,89.2259329 42.4708837,89.2467314 C42.0193229,89.2467314 41.6430222,89.3593874 41.3796116,89.5846994 C41.116201,89.8100113 40.9656808,90.1104273 40.9656808,90.4108433 L39.6486282,90.4108433 L39.6486282,90.3732913 C39.6109982,89.8100113 39.8744086,89.2842834 40.4388598,88.8336593 C41.0493382,88.3549038 41.8075407,88.102694 42.583774,88.1201715 C43.4492657,88.1201715 44.164237,88.3454834 44.6910581,88.7961074 C45.2178791,89.2467314 45.4812896,89.8851154 45.4812896,90.7112593 L45.4812896,94.4289071 C45.471434,94.9483788 45.5347699,95.4666559 45.66944,95.968539 L44.2018671,95.968539 L44.2018671,96.043643 Z M41.9064326,95.0297391 C42.3956236,95.0297391 42.8471845,94.9170831 43.2611153,94.6542191 C43.6750461,94.3913551 43.9384566,94.0909391 44.0513469,93.7529711 L44.0513469,92.5137552 L42.4708837,92.5137552 C41.9064326,92.5137552 41.4548718,92.6639632 41.116201,92.9268271 C40.7775304,93.1896912 40.6270101,93.5652112 40.6270101,93.9407311 C40.6270101,94.2786991 40.7399004,94.5415631 40.9280507,94.766875 C41.1538311,94.9170831 41.4925018,95.0297391 41.9064326,95.0297391 Z M51.0881706,89.5471473 L50.3731991,89.5095953 C49.9968984,89.5095953 49.6958578,89.5846994 49.4324474,89.7724594 C49.1645517,89.9608767 48.9557638,90.2213201 48.8303662,90.5234993 L48.8303662,96.043643 L47.4380534,96.043643 L47.4380534,88.3079314 L48.6798459,88.3079314 L48.8303662,89.4344913 C49.0561466,89.0214193 49.3195571,88.7210034 49.6205977,88.4956914 C49.9216383,88.2703794 50.297939,88.1577234 50.7118699,88.1577234 C50.82476,88.1577234 50.9000202,88.1577234 51.0129104,88.1952754 C51.0881706,88.1952754 51.2010608,88.2328275 51.2386909,88.2328275 L51.0881706,89.5471473 Z M54.3996171,86.4678835 L54.3996171,88.3454834 L55.8671899,88.3454834 L55.8671899,89.3969394 L54.3996171,89.3969394 L54.3996171,94.0909391 C54.3996171,94.4664591 54.4748772,94.6917711 54.6253974,94.8419791 C54.7759178,94.992187 54.9640682,95.067291 55.2274786,95.067291 C55.3027388,95.067291 55.3779989,95.067291 55.4908892,95.0297391 C55.6037794,94.992187 55.6790396,94.992187 55.7542996,94.9546351 L55.94245,95.930987 C55.8295598,96.006091 55.6790396,96.081195 55.4908892,96.156299 C55.3027388,96.193851 55.0769584,96.231403 54.888808,96.231403 C54.3841608,96.2486572 53.894503,96.0586298 53.5341253,95.705675 C53.1954547,95.367707 53.0449344,94.8044271 53.0449344,94.0909391 L53.0449344,89.3593874 L51.8407721,89.3593874 L51.8407721,88.3079314 L53.0449344,88.3079314 L53.0449344,86.4303315 L54.3996171,86.4303315 L54.3996171,86.4678835 Z M255.72051,174.171167 L251.016751,174.171167 L251.016751,177.888814 L256.473112,177.888814 L256.473112,178.977822 L249.624438,178.977822 L249.624438,168.575919 L256.397851,168.575919 L256.397851,169.664927 L251.054381,169.664927 L251.054381,173.044607 L255.75814,173.044607 L255.75814,174.171167 L255.72051,174.171167 Z M259.069587,171.279663 L259.182477,172.443775 C259.644587,171.638285 260.510377,171.148689 261.440282,171.167007 C262.268143,171.167007 262.907854,171.429871 263.359416,171.918047 C263.810976,172.406223 264.036757,173.157263 264.036757,174.171167 L264.036757,179.052927 L262.644444,179.052927 L262.644444,174.208719 C262.644444,173.532783 262.493924,173.044607 262.230513,172.744191 C261.967103,172.443775 261.553171,172.331118 261.02635,172.331118 C260.61242,172.331118 260.273749,172.443775 259.972708,172.631535 C259.671668,172.819295 259.408258,173.082159 259.220107,173.420127 L259.220107,179.052927 L257.827794,179.052927 L257.827794,171.317215 L259.069587,171.317215 L259.069587,171.279663 Z M265.73011,175.297727 C265.73011,174.058511 265.99352,173.044607 266.520341,172.293567 C267.047162,171.542527 267.799764,171.167007 268.740516,171.167007 C269.192076,171.167007 269.568377,171.242111 269.944678,171.429871 C270.283349,171.580079 270.584389,171.842943 270.8478,172.143359 L270.8478,167.899984 L272.240113,167.899984 L272.240113,179.052927 L271.11121,179.052927 L270.92306,178.076575 C270.690208,178.418047 270.381039,178.700864 270.019939,178.902719 C269.620382,179.090334 269.181843,179.180433 268.740516,179.165582 C267.890464,179.204945 267.075036,178.826137 266.557972,178.151679 C266.03115,177.475743 265.767739,176.574495 265.767739,175.447935 L265.767739,175.297727 L265.73011,175.297727 Z M267.122422,175.447935 C267.122422,176.236527 267.272943,176.874911 267.611614,177.325535 C267.950284,177.776159 268.401845,178.039022 269.079186,178.039022 C269.493117,178.039022 269.831788,177.926367 270.132828,177.738607 C270.433869,177.550846 270.65965,177.287983 270.81017,176.950015 L270.81017,173.307471 C270.632874,173.005601 270.388212,172.748596 270.095198,172.556431 C269.792098,172.3618 269.439611,172.257576 269.079186,172.256015 C268.401845,172.256015 267.912654,172.518879 267.611614,173.082159 C267.310572,173.645439 267.122422,174.358927 267.122422,175.260175 L267.122422,175.447935 Z" id="Shape" fill="#2A3052" fill-rule="nonzero"></path>
            <path d="M249.887848,124.865393 L247.329003,124.865393 L245.78617,132.601105 L244.657269,132.601105 L246.200102,124.865393 L243.678887,124.865393 L243.867037,123.926593 L250.075999,123.926593 L249.887848,124.865393 Z M252.333803,132.638657 L252.333803,132.150481 C252.333803,132.037825 252.371434,131.887617 252.371434,131.774961 C252.108023,132.075377 251.806982,132.300689 251.468312,132.488449 C251.160812,132.673316 250.811084,132.776724 250.4523,132.788865 C249.887848,132.788865 249.436288,132.601105 249.172878,132.263137 C248.909467,131.925169 248.834207,131.436993 248.947097,130.836161 C249.059987,130.197777 249.398658,129.672049 249.887848,129.371633 C250.414669,129.033666 251.054381,128.883458 251.844613,128.883458 L252.935885,128.883458 L253.048775,128.245074 C253.124035,127.832001 253.086405,127.531585 252.935885,127.343825 C252.785364,127.156065 252.484324,127.043409 252.108023,127.043409 C251.769352,127.043409 251.468312,127.156065 251.204902,127.343825 C250.941491,127.531585 250.79097,127.756898 250.715711,128.019761 L249.624438,128.019761 L249.624438,127.982209 C249.699699,127.494033 250.000739,127.043409 250.48993,126.66789 C251.016751,126.292369 251.618832,126.104609 252.333803,126.104609 C252.973514,126.104609 253.462705,126.292369 253.839006,126.66789 C254.215307,127.043409 254.328197,127.569137 254.177677,128.245074 L253.575596,131.361889 L253.462705,132.037825 C253.425076,132.263137 253.425076,132.450897 253.462705,132.676209 L252.333803,132.676209 L252.333803,132.638657 Z M250.828601,131.774961 C251.129641,131.774961 251.468312,131.699857 251.806982,131.512097 C252.145653,131.324337 252.409064,131.099025 252.559584,130.836161 L252.785364,129.634497 L251.656462,129.634497 C251.280161,129.634497 250.90386,129.747153 250.60282,130.010017 C250.30178,130.272881 250.113629,130.535745 250.03837,130.836161 C249.963109,131.136577 250.000739,131.361889 250.113629,131.54965 C250.226519,131.737409 250.48993,131.774961 250.828601,131.774961 Z M258.919067,127.231169 L258.279355,127.193617 C258.023461,127.193413 257.773752,127.272105 257.564383,127.418929 C257.32115,127.576067 257.125885,127.796907 256.999933,128.057314 L256.096811,132.638657 L254.967909,132.638657 L256.247331,126.179714 L257.263343,126.179714 L257.188083,127.043409 C257.380015,126.750476 257.637692,126.50619 257.940684,126.329922 C258.204095,126.179714 258.505136,126.067057 258.843806,126.067057 C258.919067,126.067057 258.994326,126.067057 259.107216,126.104609 C259.220107,126.142161 259.257738,126.142161 259.295367,126.142161 L258.919067,127.231169 Z M259.257738,129.409185 C259.483517,128.320177 259.822188,127.456482 260.311379,126.893201 C260.800571,126.329922 261.402651,126.067057 262.155253,126.067057 C262.493924,126.067057 262.832594,126.142161 263.096005,126.292369 C263.359416,126.442577 263.585195,126.66789 263.773346,126.968306 L264.036757,126.179714 L265.015138,126.179714 L263.773346,132.526001 C263.585195,133.427249 263.246525,134.103185 262.719704,134.553808 C262.192882,135.004433 261.477912,135.229745 260.650049,135.229745 C260.342823,135.229064 260.037769,135.178327 259.746928,135.079537 C259.452091,135.019973 259.171201,134.905302 258.919067,134.741569 L259.370627,133.840321 C259.521148,133.952977 259.746928,134.065633 260.010338,134.140737 C260.273749,134.215841 260.53716,134.253393 260.800571,134.253393 C261.289761,134.253393 261.666061,134.103185 261.967103,133.802769 C262.296516,133.460535 262.51882,133.029898 262.606814,132.563553 L262.682073,132.112929 C262.252947,132.53768 261.66815,132.768398 261.063981,132.751313 C260.386639,132.751313 259.859818,132.450897 259.521148,131.812513 C259.160274,131.105378 259.066762,130.292172 259.257738,129.521841 L259.257738,129.409185 Z M260.386639,129.521841 C260.236119,130.197777 260.273749,130.761058 260.461899,131.174129 C260.650049,131.587201 261.02635,131.812513 261.553171,131.812513 C261.816583,131.812513 262.079993,131.737409 262.305773,131.587201 C262.531553,131.436993 262.757334,131.211681 262.945484,130.911265 L263.547565,127.907106 C263.440878,127.656652 263.272627,127.437089 263.058374,127.268722 C262.826017,127.11094 262.548957,127.031945 262.268143,127.043409 C261.778952,127.043409 261.402651,127.268722 261.101611,127.681793 C260.800571,128.132417 260.53716,128.695698 260.42427,129.409185 L260.386639,129.521841 Z M267.875024,132.751313 C267.084793,132.751313 266.482711,132.450897 266.068781,131.850065 C265.654849,131.249233 265.54196,130.460641 265.69248,129.521841 L265.73011,129.258977 C265.88063,128.320177 266.256931,127.531585 266.859012,126.930753 C267.461094,126.329922 268.100805,126.029506 268.778146,126.029506 C269.568377,126.029506 270.132828,126.292369 270.471499,126.818098 C270.81017,127.343825 270.92306,128.057314 270.772539,128.921009 L270.65965,129.672049 L266.783751,129.672049 C266.708492,130.310433 266.746122,130.836161 266.971902,131.249233 C267.197683,131.624753 267.536353,131.812513 268.025544,131.812513 C268.670829,131.807466 269.294948,131.58219 269.794158,131.174129 L270.132828,131.925169 C269.907048,132.150481 269.568377,132.338241 269.229706,132.488449 C268.815776,132.676209 268.364215,132.751313 267.875024,132.751313 Z M268.589995,127.005857 C268.251325,127.005857 267.950284,127.156065 267.649243,127.494033 C267.348203,127.832001 267.122422,128.245074 266.971902,128.733249 L266.971902,128.770801 L269.606007,128.770801 L269.643638,128.620593 C269.718897,128.132417 269.681268,127.756898 269.493117,127.456482 C269.304967,127.156065 269.041556,127.005857 268.589995,127.005857 Z M274.422657,124.640081 L274.121617,126.179714 L275.212888,126.179714 L275.024738,127.043409 L273.933466,127.043409 L273.143234,130.948817 C273.067974,131.249233 273.067974,131.474545 273.180864,131.587201 C273.256125,131.699857 273.406645,131.737409 273.594795,131.737409 C273.670055,131.737409 273.782945,131.737409 273.933466,131.699857 C274.046356,131.699857 274.159246,131.662305 274.234506,131.624753 L274.234506,132.413345 C274.121617,132.488449 273.971095,132.526001 273.745316,132.601105 C273.519535,132.638657 273.331384,132.676209 273.105604,132.676209 C272.691673,132.676209 272.390633,132.526001 272.164852,132.225585 C271.939072,131.925169 271.901442,131.474545 272.014332,130.873713 L272.804563,126.968306 L271.863812,126.968306 L272.051962,126.104609 L272.992714,126.104609 L273.293754,124.564978 L274.422657,124.564978 L274.422657,124.640081 Z" id="Shape" fill="#6D6E71" fill-rule="nonzero"></path>
            <path d="M139.631733,167.937535 L139.706994,167.937535 L141.889538,157.385423 L144.862313,157.385423 L141.325087,172.744191 L138.465201,172.744191 L135.680576,162.605151 L135.605316,162.605151 L132.82069,172.744191 L129.998434,172.744191 L126.423577,157.385423 L129.396354,157.385423 L131.578898,167.899984 L131.654158,167.899984 L134.514044,157.347872 L136.771848,157.347872 L139.631733,167.937535 Z M149.528443,158.62464 L146.480407,158.62464 L146.480407,156.296415 L149.528443,156.296415 L149.528443,158.62464 Z M149.528443,172.781743 L146.480407,172.781743 L146.480407,161.365935 L149.528443,161.365935 L149.528443,172.781743 Z M154.834283,161.365935 L154.984803,163.018224 C155.361104,162.417391 155.812665,161.966767 156.377116,161.666351 C156.941568,161.328383 157.543648,161.178175 158.22099,161.178175 C159.349892,161.178175 160.253013,161.553696 160.892725,162.267183 C161.532436,162.980672 161.871107,164.144783 161.871107,165.684416 L161.871107,172.819295 L158.785441,172.819295 L158.785441,165.684416 C158.785441,164.895824 158.634921,164.370095 158.33388,164.032127 C158.032839,163.694159 157.581279,163.543951 156.941568,163.543951 C156.527636,163.543951 156.188966,163.619056 155.850295,163.806816 C155.511624,163.994575 155.248214,164.219887 155.060064,164.520303 L155.060064,172.819295 L152.012028,172.819295 L152.012028,161.403488 L154.834283,161.403488 L154.834283,161.365935 Z M167.402727,167.486911 L164.354692,167.486911 L164.354692,157.422976 L167.402727,157.422976 L167.402727,167.486911 Z M167.402727,172.781743 L164.354692,172.781743 L164.354692,170.077999 L167.402727,170.077999 L167.402727,172.781743 Z" id="Shape" fill="#FFFFFF" fill-rule="nonzero"></path>
            <path d="M23.2303552,18.4547321 L19.0396368,18.4547321 L19.0396368,22.7688442 L16.8569709,22.7688442 L16.8569709,12.2119582 L23.754195,12.2119582 L23.754195,13.9738561 L19.0396368,13.9738561 L19.0396368,16.7000849 L23.2303552,16.7000849 L23.2303552,18.4547321 Z M29.1963086,22.7688442 C29.0993006,22.5803275 29.0289711,22.3458934 28.9853175,22.0655352 C28.4760262,22.6310855 27.8139576,22.9138564 26.9990916,22.9138564 C26.2278791,22.9138564 25.5888494,22.6915066 25.0819834,22.2468004 C24.5751173,21.8020942 24.3216881,21.2413861 24.3216881,20.5646592 C24.3216881,19.733252 24.630896,19.0952048 25.2493211,18.6504986 C25.8677462,18.2057924 26.7614177,17.9810257 27.9303623,17.976192 L28.8980109,17.976192 L28.8980109,17.5266542 C28.8980109,17.1641221 28.8046422,16.8741006 28.6179021,16.6565813 C28.431162,16.4390619 28.1365051,16.3303039 27.7339224,16.3303039 C27.3798437,16.3303039 27.1021629,16.4148934 26.9008716,16.5840752 C26.6995803,16.7532569 26.5989362,16.9852741 26.5989362,17.2801336 L24.4963013,17.2801336 C24.4963013,16.8257598 24.6369607,16.4052288 24.9182834,16.0185277 C25.1996063,15.6318267 25.5973325,15.3285126 26.1114741,15.1085763 C26.6256157,14.8886401 27.2028038,14.7786736 27.8430557,14.7786736 C28.8131343,14.7786736 29.5831226,15.0215666 30.1530437,15.5073598 C30.7229649,15.993153 31.0079212,16.6759118 31.0079212,17.5556567 L31.0079212,20.9561921 C31.0127716,21.7005916 31.1170535,22.2637166 31.3207699,22.6455839 L31.3207699,22.7688442 L29.1963086,22.7688442 Z M27.4574514,21.3114719 C27.7678765,21.3114719 28.0540454,21.2425918 28.3159666,21.1048296 C28.5778879,20.9670673 28.7719006,20.7821786 28.8980109,20.5501581 L28.8980109,19.2015449 L28.1122512,19.2015449 C27.059716,19.2015449 26.499504,19.5640717 26.4315984,20.2891361 L26.4243229,20.4123964 C26.4243229,20.6734197 26.5164789,20.8885189 26.7007939,21.0577006 C26.8851088,21.2268824 27.1373254,21.3114719 27.4574514,21.3114719 Z M34.8421375,22.7688442 L32.7322272,22.7688442 L32.7322272,11.6319095 L34.8421375,11.6319095 L34.8421375,22.7688442 Z M38.7927627,22.7688442 L36.6828524,22.7688442 L36.6828524,11.6319095 L38.7927627,11.6319095 L38.7927627,22.7688442 Z" id="Shape" fill="#000000" fill-rule="nonzero"></path>
        </g>
    </g>
</svg>