<svg width="298" height="198" viewBox="0 0 298 198" xmlns="http://www.w3.org/2000/svg"><title>close-low-image</title><g transform="translate(1 1)" fill="none" fill-rule="evenodd"><path stroke="#C2C2C2" stroke-width="2.422" fill="#F1F2F2" fill-rule="nonzero" d="M.211.211H295v195H.21z"/><path d="M2.911 54.061h290.625M2.911 94.75h290.625M2.911 135.436h290.625M2.911 176.086h290.625M38.011 33.736v160.275M74.8 33.736v160.275m36.75-160.275v160.275m36.787-160.275v160.275m36.75-160.275v160.275m36.75-160.275v160.275M2.911 115.074h290.625" stroke="#DFDEDE" stroke-width="1.211"/><path d="M2.911 160.25h290.625" stroke="#15212D" stroke-width="1.133" fill="#D8D8D8" fill-rule="nonzero"/><path d="M.811 29h294.825" stroke="#C2C2C2" stroke-width="2.422" fill="#F1F2F2" fill-rule="nonzero"/><path d="M20.687 19.02h4.841v1.48h-6.694V9.836h1.853v9.185zm5.757-2.556c0-.776.154-1.475.461-2.098a3.37 3.37 0 0 1 1.297-1.436c.556-.334 1.196-.501 1.919-.501 1.069 0 1.937.344 2.603 1.032.667.689 1.027 1.602 1.08 2.74l.008.417c0 .781-.15 1.48-.45 2.095a3.33 3.33 0 0 1-1.29 1.428c-.559.337-1.204.505-1.937.505-1.118 0-2.013-.372-2.684-1.116-.671-.745-1.007-1.738-1.007-2.978v-.088zm1.78.154c0 .816.168 1.454.505 1.915.337.462.806.693 1.406.693.6 0 1.068-.235 1.403-.704.334-.468.502-1.154.502-2.058 0-.8-.173-1.435-.517-1.904-.344-.469-.812-.703-1.402-.703-.581 0-1.043.23-1.385.692-.341.462-.512 1.151-.512 2.07zm14.055 1.428l1.26-5.47h1.735l-2.16 7.924h-1.465l-1.7-5.442-1.67 5.442h-1.464l-2.168-7.925h1.736l1.282 5.413 1.626-5.413h1.34l1.648 5.471zm15.798-6.716h-3.325v9.17h-1.838v-9.17h-3.296V9.836h8.46v1.494zm3.12 9.17h-1.78v-7.925h1.78V20.5zm-1.89-9.983c0-.273.087-.5.26-.681.174-.18.422-.271.744-.271s.571.09.747.27c.176.182.264.409.264.682a.916.916 0 0 1-.264.67c-.176.178-.425.268-.747.268s-.57-.09-.743-.268a.923.923 0 0 1-.26-.67zm7.083 8.709c.444 0 .813-.13 1.106-.389.293-.258.45-.578.469-.96h1.677c-.02.494-.173.954-.461 1.382a3.027 3.027 0 0 1-1.172 1.014 3.492 3.492 0 0 1-1.597.373c-1.108 0-1.987-.358-2.637-1.076-.649-.718-.974-1.71-.974-2.974v-.183c0-1.206.323-2.172.967-2.897.645-.725 1.523-1.087 2.637-1.087.942 0 1.71.274 2.303.824.594.549.905 1.27.934 2.164h-1.677c-.02-.454-.175-.828-.465-1.12-.29-.294-.66-.44-1.11-.44-.576 0-1.02.209-1.333.626-.312.418-.471 1.051-.476 1.9v.286c0 .86.155 1.5.465 1.923.31.422.758.634 1.344.634zm7.17-2.124l-.79.813V20.5h-1.78V9.25h1.78v6.49l.556-.697 2.19-2.468h2.139l-2.945 3.303 3.26 4.622h-2.058l-2.351-3.398z" fill="#000"/><path stroke="#2A3052" stroke-width="3.633" stroke-linecap="round" stroke-linejoin="round" d="M39 110.127l49.993 30.33L135 104.228l48.955 50.174L244.2 68.05"/><path d="M141.592 168.123h-2.494V175h-1.379v-6.877h-2.472v-1.121h6.345v1.12zm2.34 6.877h-1.335v-5.944h1.335V175zm-1.417-7.487c0-.205.065-.376.195-.511.13-.136.316-.203.557-.203.242 0 .429.067.56.203a.703.703 0 0 1 .198.51.687.687 0 0 1-.197.503c-.132.134-.32.2-.56.2-.242 0-.428-.066-.558-.2a.692.692 0 0 1-.195-.502zm5.312 6.531c.333 0 .61-.097.829-.29a.995.995 0 0 0 .352-.72h1.258a1.96 1.96 0 0 1-.347 1.035 2.27 2.27 0 0 1-.878.76 2.62 2.62 0 0 1-1.198.28c-.831 0-1.49-.268-1.978-.807-.487-.538-.73-1.281-.73-2.23v-.137c0-.905.242-1.629.725-2.173s1.143-.815 1.978-.815c.706 0 1.282.206 1.727.618.445.412.679.953.7 1.623h-1.257c-.015-.34-.131-.621-.35-.84a1.122 1.122 0 0 0-.831-.33c-.433 0-.766.156-1 .47-.235.312-.354.788-.357 1.425v.214c0 .645.116 1.125.349 1.442.232.317.568.475 1.008.475zm5.377-1.593l-.593.61V175h-1.335v-8.438h1.335v4.867l.418-.521 1.642-1.852h1.604l-2.208 2.478L156.51 175h-1.543l-1.764-2.549zm11.173-.302h.995v1.071h-.995V175h-1.334v-1.78h-3.456l-.038-.813 3.45-5.405h1.378v5.147zm-3.427 0h2.093v-3.34l-.1.176-1.993 3.164zm6.196 1.445c.249 0 .441.07.577.211a.735.735 0 0 1 .203.53.709.709 0 0 1-.203.52c-.136.137-.328.205-.577.205-.238 0-.427-.067-.566-.203a.697.697 0 0 1-.209-.522c0-.212.068-.389.204-.53.135-.14.326-.211.571-.211zm0-4.664c.249 0 .441.07.577.212a.735.735 0 0 1 .203.53.709.709 0 0 1-.203.519c-.136.137-.328.206-.577.206-.238 0-.427-.068-.566-.204a.697.697 0 0 1-.209-.521c0-.213.068-.39.204-.53.135-.141.326-.212.571-.212zm6.498 4.96h3.631V175h-5.02v-7.998h1.39v6.888zm4.318-1.917c0-.582.115-1.107.346-1.574.23-.466.555-.825.972-1.076.418-.251.898-.376 1.44-.376.802 0 1.453.258 1.952.774.5.516.77 1.201.81 2.055l.006.313c0 .586-.112 1.11-.338 1.57a2.497 2.497 0 0 1-.966 1.072c-.42.253-.904.379-1.453.379-.839 0-1.51-.28-2.014-.838-.503-.558-.755-1.303-.755-2.233v-.066zm1.335.116c0 .611.126 1.09.379 1.436.253.346.604.52 1.055.52.45 0 .8-.177 1.052-.528.25-.352.376-.866.376-1.544 0-.6-.13-1.076-.387-1.428a1.237 1.237 0 0 0-1.052-.527c-.436 0-.782.173-1.039.519-.256.346-.384.863-.384 1.552zm10.541 1.07l.945-4.103h1.302l-1.62 5.944h-1.1l-1.274-4.081L186.84 175h-1.099l-1.626-5.944h1.302l.962 4.06 1.219-4.06h1.005l1.236 4.104zm5.757 1.95c-.846 0-1.532-.266-2.057-.798-.526-.533-.788-1.243-.788-2.129v-.165c0-.593.114-1.123.343-1.59.229-.467.55-.83.964-1.09.414-.26.875-.39 1.384-.39.81 0 1.435.258 1.876.774.441.516.662 1.247.662 2.192v.538h-3.884c.04.49.205.88.492 1.165.288.285.65.428 1.085.428.612 0 1.11-.247 1.494-.741l.72.686c-.238.355-.556.631-.953.827a2.984 2.984 0 0 1-1.338.294zm-.16-5.091c-.365 0-.661.128-.886.384-.226.257-.37.614-.432 1.071h2.544v-.098c-.03-.447-.149-.785-.357-1.014-.209-.229-.498-.343-.868-.343zm6.911 3.367a.605.605 0 0 0-.294-.544c-.196-.124-.52-.234-.975-.33a5.012 5.012 0 0 1-1.137-.362c-.666-.322-1-.79-1-1.4 0-.513.216-.942.649-1.286.432-.344.981-.516 1.648-.516.71 0 1.284.175 1.722.527.437.351.656.807.656 1.368h-1.335a.823.823 0 0 0-.285-.64c-.19-.17-.443-.256-.758-.256-.293 0-.532.068-.717.204a.64.64 0 0 0-.278.543c0 .205.086.365.258.478.173.114.52.228 1.044.344.524.115.935.252 1.233.412.299.159.52.35.665.574.145.223.217.494.217.813 0 .534-.221.967-.665 1.299-.443.331-1.023.497-1.74.497-.488 0-.922-.088-1.303-.264a2.143 2.143 0 0 1-.89-.725 1.716 1.716 0 0 1-.318-.994h1.296c.018.315.137.557.357.728.22.17.511.255.874.255.351 0 .618-.067.802-.2a.62.62 0 0 0 .274-.525zm4.148-5.773v1.444h1.049v.99h-1.05v3.317c0 .227.045.391.135.492.09.1.25.15.48.15.155 0 .31-.018.468-.054v1.033a3.288 3.288 0 0 1-.88.126c-1.025 0-1.537-.566-1.537-1.698v-3.367h-.978v-.989h.978v-1.444h1.335zm10.777.51h-2.494V175h-1.379v-6.877h-2.471v-1.121h6.344v1.12zm2.34 6.878h-1.335v-5.944h1.335V175zm-1.417-7.487c0-.205.065-.376.195-.511.13-.136.316-.203.558-.203.241 0 .428.067.56.203a.703.703 0 0 1 .198.51.687.687 0 0 1-.198.503c-.132.134-.319.2-.56.2-.242 0-.428-.066-.558-.2a.692.692 0 0 1-.195-.502zm5.312 6.531c.333 0 .61-.097.83-.29a.995.995 0 0 0 .35-.72h1.259a1.96 1.96 0 0 1-.346 1.035 2.27 2.27 0 0 1-.88.76 2.62 2.62 0 0 1-1.197.28c-.831 0-1.49-.268-1.977-.807-.487-.538-.73-1.281-.73-2.23v-.137c0-.905.24-1.629.724-2.173s1.143-.815 1.978-.815c.707 0 1.282.206 1.727.618.445.412.679.953.7 1.623h-1.257c-.015-.34-.131-.621-.349-.84a1.122 1.122 0 0 0-.832-.33c-.432 0-.766.156-1 .47-.234.312-.353.788-.357 1.425v.214c0 .645.116 1.125.349 1.442.232.317.568.475 1.008.475zm5.378-1.593l-.594.61V175h-1.334v-8.438h1.334v4.867l.418-.521 1.642-1.852h1.604l-2.208 2.478 2.445 3.466h-1.544l-1.763-2.549zM230.488 56.43h-3.285v2.46h3.84V60h-5.23v-7.998h5.191v1.12h-3.801v2.209h3.285v1.098zm3.691-.418l1.132-1.956h1.483l-1.818 2.928L236.854 60h-1.472l-1.186-2.032L233.015 60h-1.484l1.879-3.016-1.813-2.928h1.472l1.11 1.956zM239.123 60h-1.335v-5.944h1.335V60zm-1.417-7.487c0-.205.065-.376.195-.511.13-.136.316-.203.557-.203.242 0 .429.067.56.203a.703.703 0 0 1 .198.51.687.687 0 0 1-.197.503c-.132.134-.319.2-.56.2-.242 0-.428-.066-.558-.2a.692.692 0 0 1-.195-.502zm4.543.099v1.444h1.049v.99h-1.05v3.317c0 .227.045.391.135.492.09.1.25.15.48.15.155 0 .31-.018.468-.054v1.033a3.288 3.288 0 0 1-.88.126c-1.025 0-1.537-.566-1.537-1.698v-3.367h-.978v-.989h.978v-1.444h1.335zm10.777.51h-2.494V60h-1.379v-6.877h-2.471v-1.121h6.344v1.12zm2.34 6.878h-1.335v-5.944h1.335V60zm-1.417-7.487c0-.205.065-.376.195-.511.13-.136.316-.203.558-.203.241 0 .428.067.56.203a.703.703 0 0 1 .198.51.687.687 0 0 1-.198.503c-.132.134-.319.2-.56.2-.242 0-.428-.066-.558-.2a.692.692 0 0 1-.195-.502zm5.312 6.531c.333 0 .61-.097.83-.29a.995.995 0 0 0 .35-.72h1.259a1.96 1.96 0 0 1-.346 1.035 2.27 2.27 0 0 1-.88.76 2.62 2.62 0 0 1-1.197.28c-.831 0-1.49-.268-1.977-.807-.487-.538-.73-1.281-.73-2.23v-.137c0-.905.24-1.629.724-2.173s1.143-.815 1.978-.815c.707 0 1.283.206 1.727.618.445.412.679.953.7 1.623h-1.257c-.015-.34-.131-.621-.349-.84a1.122 1.122 0 0 0-.832-.33c-.432 0-.766.156-1 .47-.234.312-.353.788-.357 1.425v.214c0 .645.116 1.125.349 1.442.232.317.568.475 1.008.475zm5.378-1.593l-.594.61V60h-1.334v-8.438h1.334v4.867l.418-.521 1.642-1.852h1.604l-2.208 2.478L267.946 60h-1.544l-1.763-2.549z" fill="#2A3052"/><path d="M21.579 101.451c.08-.586-.224-1.014-.912-1.285l-.95-.346-.32-.138c-1.069-.487-1.569-1.172-1.499-2.054.031-.429.19-.838.456-1.176.28-.35.646-.621 1.063-.788a3.41 3.41 0 0 1 1.409-.26c.45.002.895.113 1.294.323.367.194.669.493.865.86.2.382.292.813.263 1.244l-1.038-.005c.061-.41-.059-.826-.33-1.14a1.479 1.479 0 0 0-1.098-.415c-.447-.023-.888.1-1.258.352-.33.228-.542.59-.582.988-.074.546.262.96 1.005 1.242l.818.29.412.176a2.068 2.068 0 0 1 1.434 2.12c-.03.427-.19.834-.456 1.168a2.55 2.55 0 0 1-1.074.76c-.464.182-.96.268-1.458.254a3.051 3.051 0 0 1-1.376-.322 2.245 2.245 0 0 1-.948-.865 2.164 2.164 0 0 1-.285-1.247l1.032.006c-.053.417.09.836.388 1.134.34.298.781.453 1.233.431.463.026.922-.095 1.313-.346.33-.217.55-.568.599-.96zm4.51-5.323l-.253 1.44h1.082l-.137.785h-1.077l-.62 3.697a1.29 1.29 0 0 0-.006.264.419.419 0 0 0 .467.428c.162-.004.324-.023.483-.055l-.077.83c-.236.065-.48.098-.725.098a1.038 1.038 0 0 1-.89-.436 1.689 1.689 0 0 1-.23-1.145l.604-3.68h-1.05l.138-.786h1.049l.253-1.44h.988zm4.63 7.383a1.33 1.33 0 0 1-.038-.313l.016-.313a2.437 2.437 0 0 1-1.736.736 1.776 1.776 0 0 1-1.277-.497 1.505 1.505 0 0 1-.447-1.217 1.83 1.83 0 0 1 .826-1.475 3.52 3.52 0 0 1 2.03-.53l1.038.006.066-.473a1.086 1.086 0 0 0-.206-.843.994.994 0 0 0-.783-.322 1.533 1.533 0 0 0-.903.25 1.064 1.064 0 0 0-.481.69l-1 .005c.032-.344.174-.67.407-.925.251-.279.566-.494.917-.627.368-.147.762-.219 1.16-.211a1.97 1.97 0 0 1 1.444.563c.353.39.513.917.434 1.436l-.484 2.945-.027.423c-.007.202.015.403.066.599l-.011.093h-1.01zm-1.56-.769c.317.008.63-.07.904-.228.29-.165.54-.39.733-.662l.214-1.225-.752-.005a2.85 2.85 0 0 0-1.44.296c-.314.17-.526.485-.565.84a.85.85 0 0 0 .195.696c.184.194.444.299.711.288zm7.614-4.268l-.467-.05a1.701 1.701 0 0 0-1.505.863l-.731 4.224h-.994l1.033-5.944.96-.005-.147.692a1.777 1.777 0 0 1 1.488-.808c.16.007.32.035.473.083l-.11.945zm2.95-2.346l-.253 1.44h1.082l-.137.785h-1.077l-.62 3.697c-.012.087-.013.176-.006.264a.419.419 0 0 0 .467.428c.162-.004.324-.023.483-.055l-.077.83c-.236.065-.48.098-.725.098a1.038 1.038 0 0 1-.89-.436 1.69 1.69 0 0 1-.23-1.146l.604-3.68h-1.05l.138-.786h1.05l.252-1.439h.989z" fill="#2A3052" fill-rule="nonzero"/><ellipse cx="8.137" cy="8.475" rx="8.137" ry="8.475" opacity=".6" transform="translate(176.25 146.25)" fill="#FFF" fill-rule="nonzero"/><ellipse stroke="#E88024" stroke-width="2.422" cx="184.387" cy="154.725" rx="8.137" ry="8.475"/></g></svg>