<?xml version="1.0" encoding="UTF-8"?>
<svg width="299px" height="197px" viewBox="0 0 299 197" version="1.1" xmlns="http://www.w3.org/2000/svg" xmlns:xlink="http://www.w3.org/1999/xlink">
    <!-- Generator: Sketch 52.5 (67469) - http://www.bohemiancoding.com/sketch -->
    <title>no touch</title>
    <desc>Created with Sketch.</desc>
    <g id="Page-1" stroke="none" stroke-width="1" fill="none" fill-rule="evenodd">
        <g id="no-touch">
            <polygon id="Path" fill="#F2F2F2" points="0 0 299 0 299 197 0 197"></polygon>
            <path d="M1.98671096,1.9798995 L1.98671096,195.020101 L297.013289,195.020101 L297.013289,1.9798995 L1.98671096,1.9798995 Z M299,0 L299,197 L0,197 L0,0 L299,0 Z" id="Path" fill="#C2C2C2" fill-rule="nonzero"></path>
            <g id="content" transform="translate(2.000000, 33.000000)">
                <path d="M2.887,22.8422642 L292.54325,22.8422642 M2.887,63.3762264 L292.54325,63.3762264 M2.887,103.910189 L292.54325,103.910189 M2.887,144.406792 L292.54325,144.406792 M37.87,2.5939623 L37.87,162.264151 M74.534875,2.5939623 L74.534875,162.264151 M111.162375,2.5939623 L111.162375,162.264151 M147.82725,2.5939623 L147.82725,162.264151 M184.45475,2.5939623 L184.45475,162.264151 M221.08225,2.5939623 L221.08225,162.264151 M2.887,83.624528 L292.54325,83.624528" id="Shape" stroke="#DEDEDD" stroke-width="1.20683875"></path>
                <polygon id="Path" fill="#293152" points="2.887 43.7313439 2.887 42.5245052 292.54325 42.5245052 292.54325 43.7313439"></polygon>
                <polygon id="Path" fill="#DEDEDD" fill-rule="nonzero" points="2.887 124.76191 2.887 123.555072 292.54325 123.555072 292.54325 124.76191"></polygon>
                <polygon id="Path" fill="#293152" points="257.143706 2.5939623 258.350544 2.5939623 258.350544 162.264151 257.143706 162.264151"></polygon>
                <polygon id="Path" fill="#C2C2C2" points="0.794 2.6055162 0.794 0.1914649 294.63625 0.1914649 294.63625 2.6055162"></polygon>
                <path d="M39.0869303,105.250633 C38.3466231,105.922725 37.2016474,105.867426 36.5295554,105.127119 C35.8574633,104.386812 35.9127626,103.241836 36.6530697,102.569744 L73.3179447,69.283329 C73.9706206,68.6907935 74.9552005,68.6544789 75.649753,69.1973241 L107.620457,94.184843 L140.107871,69.1888917 C140.773588,68.6766861 141.704176,68.689637 142.355382,69.2201701 L175.917857,96.563308 L211.356112,64.9760448 C211.814269,64.5676746 212.44812,64.4192234 213.039967,64.581677 L258.226342,76.9846959 C259.190559,77.2493599 259.757659,78.2455652 259.492995,79.209783 C259.228331,80.174 258.232126,80.7411 257.267908,80.476436 L213.030658,68.3339384 L177.175263,100.293012 C176.51153,100.884618 175.516438,100.906697 174.827118,100.345113 L141.17974,72.9328053 L108.715754,97.910731 C108.060866,98.414604 107.147911,98.411135 106.496872,97.902299 L74.6221416,72.9897898 L39.0869303,105.250633 Z" id="Path" fill="#293152"></path>
                <path d="M185.987125,114.445283 L151.0415,114.445283 L145.6595,106.263774 L140.2775,114.445283 L105.331875,114.445283 C102.715625,114.445283 100.622625,116.574717 100.622625,119.22717 L100.622625,143.921132 C100.622625,146.573585 102.753,148.703019 105.331875,148.703019 L186.0245,148.703019 C188.64075,148.703019 190.73375,146.573585 190.73375,143.921132 L190.73375,119.22717 C190.73375,116.574717 188.603375,114.445283 185.987125,114.445283 Z" id="Path" fill="#E88124"></path>
                <g id="Group" opacity="0.6" transform="translate(249.412500, 69.867925)" fill="#FFFFFF">
                    <ellipse id="Oval" cx="8.334625" cy="8.86264151" rx="8.110375" ry="8.44301887"></ellipse>
                </g>
                <path d="M257.747125,88.3806105 C252.590171,88.3806105 248.429724,84.0495251 248.429724,78.730566 C248.429724,73.4116069 252.590171,69.0805215 257.747125,69.0805215 C262.904079,69.0805215 267.064526,73.4116069 267.064526,78.730566 C267.064526,84.0495251 262.904079,88.3806105 257.747125,88.3806105 Z M257.747125,85.9665592 C261.548644,85.9665592 264.650474,82.737508 264.650474,78.730566 C264.650474,74.723624 261.548644,71.4945728 257.747125,71.4945728 C253.945606,71.4945728 250.843776,74.723624 250.843776,78.730566 C250.843776,82.737508 253.945606,85.9665592 257.747125,85.9665592 Z" id="Oval" fill="#E88124" fill-rule="nonzero"></path>
                <g id="Group" opacity="0.6" transform="translate(28.900000, 95.018868)" fill="#FFFFFF">
                    <ellipse id="Oval" cx="8.97" cy="8.89132075" rx="8.110375" ry="8.44301887"></ellipse>
                </g>
                <path d="M37.87,113.560233 C32.7130457,113.560233 28.5525994,109.229148 28.5525994,103.910189 C28.5525994,98.5912299 32.7130457,94.2601445 37.87,94.2601445 C43.0269543,94.2601445 47.1874006,98.5912299 47.1874006,103.910189 C47.1874006,109.229148 43.0269543,113.560233 37.87,113.560233 Z M37.87,111.146182 C41.6715185,111.146182 44.7733494,107.917131 44.7733494,103.910189 C44.7733494,99.903247 41.6715185,96.6741958 37.87,96.6741958 C34.0684815,96.6741958 30.9666506,99.903247 30.9666506,103.910189 C30.9666506,107.917131 34.0684815,111.146182 37.87,111.146182 Z" id="Oval" fill="#E88124" fill-rule="nonzero"></path>
            </g>
            <path d="M26.714,23.7513208 L24.69575,23.7513208 L20.547125,16.690566 L20.50975,16.690566 L20.50975,23.7513208 L18.454125,23.7513208 L18.454125,13.4030189 L20.50975,13.4030189 L24.658375,20.4637736 L24.69575,20.4637736 L24.69575,13.4030189 L26.751375,13.4030189 L26.751375,23.7513208 L26.714,23.7513208 Z M28.171625,19.8286793 C28.171625,18.670566 28.470625,17.7366038 29.106,16.989434 C29.741375,16.2422641 30.601,15.9060377 31.72225,15.9060377 C32.8435,15.9060377 33.7405,16.2796226 34.375875,16.989434 C35.01125,17.7366038 35.347625,18.670566 35.347625,19.8286793 L35.347625,19.9781132 C35.347625,21.1362264 35.048625,22.0701887 34.41325,22.8173585 C33.777875,23.5271698 32.91825,23.9007547 31.797,23.9007547 C30.67575,23.9007547 29.77875,23.5271698 29.143375,22.8173585 C28.470625,22.0701887 28.171625,21.1362264 28.171625,19.9781132 L28.171625,19.8286793 Z M30.189875,19.9781132 C30.189875,20.6879245 30.302,21.2483019 30.563625,21.6592453 C30.82525,22.0701887 31.199,22.2943396 31.759625,22.2943396 C32.282875,22.2943396 32.694,22.0701887 32.91825,21.6592453 C33.1425,21.2483019 33.292,20.6879245 33.292,19.9781132 L33.292,19.8286793 C33.292,19.1562264 33.179875,18.5958491 32.91825,18.1475472 C32.6687738,17.7299931 32.208057,17.4853454 31.72225,17.5124528 C31.199,17.5124528 30.787875,17.7366038 30.563625,18.1475472 C30.302,18.5958491 30.189875,19.1188679 30.189875,19.8286793 L30.189875,19.9781132 Z M47.41975,15.009434 L44.541875,15.009434 L44.541875,23.7513208 L42.48625,23.7513208 L42.48625,15.009434 L39.608375,15.009434 L39.608375,13.4030189 L47.41975,13.4030189 L47.41975,15.009434 Z M47.41975,19.8286793 C47.41975,18.670566 47.71875,17.7366038 48.354125,16.989434 C48.9895,16.2422641 49.849125,15.9060377 50.970375,15.9060377 C52.091625,15.9060377 52.988625,16.2796226 53.624,16.989434 C54.259375,17.7366038 54.59575,18.670566 54.59575,19.8286793 L54.59575,19.9781132 C54.59575,21.1362264 54.29675,22.0701887 53.661375,22.8173585 C53.026,23.5271698 52.166375,23.9007547 51.045125,23.9007547 C49.923875,23.9007547 49.026875,23.5271698 48.3915,22.8173585 C47.756125,22.1075472 47.457125,21.1362264 47.457125,19.9781132 L47.457125,19.8286793 L47.41975,19.8286793 Z M49.475375,19.9781132 C49.475375,20.6879245 49.5875,21.2483019 49.849125,21.6592453 C50.11075,22.0701887 50.4845,22.2943396 51.045125,22.2943396 C51.568375,22.2943396 51.9795,22.0701887 52.20375,21.6592453 C52.428,21.2483019 52.5775,20.6879245 52.5775,19.9781132 L52.5775,19.8286793 C52.5775,19.1562264 52.465375,18.5958491 52.20375,18.1475472 C51.942125,17.6992453 51.568375,17.5124528 51.045125,17.5124528 C50.521875,17.5124528 50.11075,17.7366038 49.8865,18.1475472 C49.624875,18.5958491 49.51275,19.1188679 49.51275,19.8286793 L49.51275,19.9781132 L49.475375,19.9781132 Z M60.501,22.630566 C60.0818853,23.4164833 59.2616054,23.9055569 58.370625,23.9007547 C57.58575,23.9007547 56.950375,23.6392453 56.501875,23.1162264 C56.053375,22.5932075 55.829125,21.7713208 55.829125,20.6879245 L55.829125,16.0554717 L57.88475,16.0554717 L57.88475,20.725283 C57.88475,21.2856604 57.996875,21.6966038 58.18375,21.9207547 C58.370625,22.1822642 58.63225,22.2943396 59.006,22.2943396 C59.342375,22.2943396 59.604,22.2569811 59.865625,22.1449057 C60.089875,22.0328302 60.27675,21.8833962 60.42625,21.6592453 L60.42625,16.0554717 L62.481875,16.0554717 L62.481875,23.7513208 L60.72525,23.7513208 L60.501,22.630566 Z M67.191125,22.2943396 C67.564875,22.2943396 67.863875,22.1822642 68.088125,21.9581132 C68.312375,21.7339623 68.4245,21.4724528 68.4245,21.0988679 L70.29325,21.0988679 L70.330625,21.1362264 C70.3755441,21.8846792 70.0552219,22.6085661 69.471,23.0788679 C68.873,23.6018868 68.1255,23.8633962 67.2285,23.8633962 C66.10725,23.8633962 65.21025,23.4898113 64.61225,22.78 C64.01425,22.0701887 63.677875,21.1362264 63.677875,19.9781132 L63.677875,19.7913207 C63.677875,18.670566 63.976875,17.7366038 64.61225,16.989434 C65.21025,16.2422641 66.10725,15.9060377 67.2285,15.9060377 C68.162875,15.9060377 68.910375,16.1675472 69.508375,16.7279245 C70.069,17.2509434 70.368,17.9981132 70.330625,18.8573585 L70.330625,18.894717 L68.461875,18.894717 C68.477256,18.5286408 68.3575476,18.1696742 68.1255,17.8860377 C67.9047155,17.6196573 67.5745085,17.4683793 67.2285,17.4750943 C66.667875,17.4750943 66.294125,17.6992453 66.069875,18.1101887 C65.8250874,18.6224176 65.709595,19.1867978 65.7335,19.7539623 L65.7335,19.9781132 C65.7335,20.650566 65.845625,21.2109434 66.069875,21.6218868 C66.25675,22.1075472 66.6305,22.2943396 67.191125,22.2943396 Z M73.43275,17.0267924 C73.657,16.690566 73.956,16.3916981 74.32975,16.2049057 C74.666125,16.0181132 75.07725,15.9060377 75.488375,15.9060377 C76.27325,15.9060377 76.908625,16.1675472 77.357125,16.690566 C77.805625,17.2135849 78.029875,18.0354717 78.029875,19.1562264 L78.029875,23.7139623 L75.97425,23.7139623 L75.97425,19.1562264 C75.97425,18.5584906 75.862125,18.1475472 75.67525,17.8860377 C75.451,17.6245283 75.152,17.5124528 74.740875,17.5124528 C74.441875,17.5124528 74.217625,17.5498113 73.993375,17.6618868 C73.769125,17.7739623 73.58225,17.9233962 73.470125,18.1101887 L73.470125,23.7513208 L71.4145,23.7513208 L71.4145,12.6558491 L73.470125,12.6558491 L73.470125,17.0267924 L73.43275,17.0267924 Z" id="Shape" fill="#231F20" fill-rule="nonzero"></path>
            <path d="M32.133375,162.762264 C32.133375,162.276604 31.9465,161.903019 31.610125,161.566792 C31.27375,161.230566 30.638375,160.969057 29.741375,160.782264 C28.6575,160.520755 27.797875,160.14717 27.199875,159.624151 C26.6283696,159.157041 26.2986862,158.456773 26.302875,157.718868 C26.302875,156.896981 26.63925,156.224528 27.274625,155.701509 C27.91,155.141132 28.769625,154.879623 29.816125,154.879623 C30.937375,154.879623 31.834375,155.178491 32.507125,155.813585 C33.179875,156.448679 33.478875,157.158491 33.478875,157.980377 L33.478875,158.017736 L32.096,158.017736 C32.096,157.42 31.909125,156.93434 31.498,156.560755 C31.086875,156.18717 30.52625,156.000377 29.77875,156.000377 C29.106,156.000377 28.545375,156.149811 28.209,156.486038 C27.8358722,156.783902 27.6275482,157.242012 27.648375,157.718868 C27.648375,158.16717 27.83525,158.540755 28.246375,158.839623 C28.6575,159.138491 29.292875,159.4 30.189875,159.624151 C31.27375,159.88566 32.096,160.296604 32.656625,160.819623 C33.21725,161.342642 33.51625,162.015094 33.51625,162.762264 C33.51625,163.584151 33.179875,164.256604 32.507125,164.779623 C31.834375,165.302642 30.937375,165.526792 29.8535,165.526792 C28.844375,165.526792 27.947375,165.227925 27.1625,164.667547 C26.4163052,164.169293 25.9786866,163.322664 26.003875,162.426038 L26.003875,162.388679 L27.312,162.388679 C27.312,163.061132 27.53625,163.546792 28.022125,163.920377 C28.508,164.256604 29.106,164.443396 29.816125,164.443396 C30.52625,164.443396 31.0495,164.293962 31.460625,163.995094 C31.909125,163.696226 32.133375,163.285283 32.133375,162.762264 Z M37.10425,155.850943 L37.10425,157.718868 L38.561875,157.718868 L38.561875,158.764906 L37.10425,158.764906 L37.10425,163.434717 C37.10425,163.808302 37.179,164.032453 37.3285,164.181887 C37.478,164.331321 37.664875,164.406038 37.9265,164.406038 C38.00125,164.406038 38.076,164.406038 38.188125,164.368679 C38.30025,164.331321 38.375,164.331321 38.44975,164.293962 L38.636625,165.265283 C38.5245,165.34 38.375,165.414717 38.188125,165.489434 C38.00125,165.526792 37.777,165.564151 37.590125,165.564151 C37.0295,165.564151 36.581,165.377358 36.244625,165.041132 C35.90825,164.704906 35.75875,164.144528 35.75875,163.434717 L35.75875,158.764906 L34.488,158.764906 L34.488,157.718868 L35.684,157.718868 L35.684,155.850943 L37.10425,155.850943 Z M44.915625,165.377358 C44.87825,165.153208 44.840875,164.929057 44.8035,164.779623 C44.766125,164.630189 44.766125,164.406038 44.766125,164.256604 C44.5045,164.630189 44.168125,164.929057 43.757,165.190566 C43.345875,165.452075 42.897375,165.564151 42.4115,165.564151 C41.626625,165.564151 41.028625,165.377358 40.6175,164.966415 C40.1842655,164.516692 39.9545908,163.908998 39.982125,163.285283 C39.982125,162.538113 40.281125,161.977736 40.879125,161.566792 C41.477125,161.155849 42.262,160.931698 43.271125,160.931698 L44.766125,160.931698 L44.766125,160.184528 C44.780435,159.782825 44.6322384,159.392297 44.355,159.101132 C44.0379073,158.817144 43.6216274,158.669497 43.196375,158.690189 C42.747875,158.690189 42.374125,158.802264 42.1125,159.026415 C41.850875,159.250566 41.701375,159.549434 41.701375,159.848302 L40.39325,159.848302 L40.39325,159.810943 C40.355875,159.250566 40.6175,158.727547 41.178125,158.279245 C41.7844653,157.802957 42.5375284,157.552047 43.3085,157.569434 C44.168125,157.569434 44.87825,157.793585 45.4015,158.241887 C45.92475,158.690189 46.186375,159.325283 46.186375,160.14717 L46.186375,163.84566 C46.186375,164.10717 46.186375,164.368679 46.22375,164.630189 C46.261125,164.891698 46.2985,165.153208 46.37325,165.377358 L44.915625,165.377358 Z M42.63575,164.368679 C43.121625,164.368679 43.6075,164.256604 43.98125,163.995094 C44.392375,163.733585 44.654,163.434717 44.766125,163.098491 L44.766125,161.86566 L43.196375,161.86566 C42.63575,161.86566 42.18725,162.015094 41.850875,162.276604 C41.5458243,162.523021 41.3674864,162.893251 41.365,163.285283 C41.365,163.621509 41.477125,163.883019 41.664,164.10717 C41.88825,164.256604 42.224625,164.368679 42.63575,164.368679 Z M51.75525,158.91434 L51.045125,158.876981 C50.671375,158.876981 50.372375,158.951698 50.11075,159.138491 C49.8446703,159.325937 49.6372977,159.585038 49.51275,159.88566 L49.51275,165.377358 L48.129875,165.377358 L48.129875,157.681509 L49.36325,157.681509 L49.51275,158.802264 C49.737,158.391321 49.998625,158.092453 50.297625,157.868302 C50.596625,157.644151 50.970375,157.532075 51.3815,157.532075 C51.493625,157.532075 51.568375,157.532075 51.6805,157.569434 C51.792625,157.606792 51.867375,157.606792 51.90475,157.606792 L51.75525,158.91434 Z M55.04425,155.850943 L55.04425,157.718868 L56.501875,157.718868 L56.501875,158.764906 L55.04425,158.764906 L55.04425,163.434717 C55.04425,163.808302 55.119,164.032453 55.2685,164.181887 C55.418,164.331321 55.604875,164.406038 55.8665,164.406038 C55.94125,164.406038 56.016,164.406038 56.128125,164.368679 C56.24025,164.331321 56.315,164.331321 56.38975,164.293962 L56.576625,165.265283 C56.4645,165.34 56.315,165.414717 56.128125,165.489434 C55.94125,165.526792 55.717,165.564151 55.530125,165.564151 C54.9695,165.564151 54.521,165.377358 54.184625,165.041132 C53.84825,164.704906 53.69875,164.144528 53.69875,163.434717 L53.69875,158.764906 L52.50275,158.764906 L52.50275,157.718868 L53.69875,157.718868 L53.69875,155.850943 L55.04425,155.850943 Z M273.01525,136.835472 L268.343375,136.835472 L268.343375,140.533962 L273.76275,140.533962 L273.76275,141.654717 L266.9605,141.654717 L266.9605,131.306415 L273.688,131.306415 L273.688,132.42717 L268.343375,132.42717 L268.343375,135.789434 L273.01525,135.789434 L273.01525,136.835472 Z M276.30425,133.921509 L276.416375,135.079623 C276.875353,134.278284 277.735273,133.791211 278.658875,133.809434 C279.481125,133.809434 280.1165,134.070943 280.565,134.556604 C281.0135,135.042264 281.23775,135.789434 281.23775,136.798113 L281.23775,141.654717 L279.854875,141.654717 L279.854875,136.835472 C279.854875,136.163019 279.705375,135.677358 279.44375,135.378491 C279.182125,135.079623 278.771,134.967547 278.24775,134.967547 C277.836625,134.967547 277.50025,135.079623 277.20125,135.266415 C276.90225,135.453208 276.640625,135.714717 276.45375,136.050943 L276.45375,141.654717 L275.070875,141.654717 L275.070875,133.958868 L276.30425,133.958868 L276.30425,133.921509 Z M282.957,137.918868 C282.957,136.686038 283.218625,135.677358 283.741875,134.930189 C284.265125,134.183019 285.012625,133.809434 285.947,133.809434 C286.3955,133.809434 286.76925,133.884151 287.143,134.070943 C287.51675,134.257736 287.778375,134.481887 288.04,134.780755 L288.04,130.559245 L289.422875,130.559245 L289.422875,141.654717 L288.301625,141.654717 L288.152125,140.720755 C287.8905,141.09434 287.5915,141.355849 287.255125,141.542642 C286.91875,141.729434 286.47025,141.804151 285.984375,141.804151 C285.140085,141.843311 284.330185,141.466455 283.816625,140.795472 C283.293375,140.123019 283.03175,139.226415 283.03175,138.10566 L283.03175,137.918868 L282.957,137.918868 Z M284.339875,138.068302 C284.339875,138.85283 284.489375,139.450566 284.82575,139.936226 C285.12475,140.421887 285.610625,140.646038 286.283375,140.646038 C286.6945,140.646038 287.030875,140.533962 287.329875,140.34717 C287.628875,140.160377 287.853125,139.898868 288.002625,139.562642 L288.002625,135.976226 C287.83693,135.668242 287.591724,135.410244 287.2925,135.229057 C286.991454,135.035429 286.641357,134.931742 286.283375,134.930189 C285.610625,134.930189 285.12475,135.191698 284.82575,135.752075 C284.52675,136.312453 284.339875,137.022264 284.339875,137.918868 L284.339875,138.068302 Z" id="Shape" fill="#293152" fill-rule="nonzero"></path>
            <path d="M29.704,60.9230189 L27.1625,60.9230189 L25.6675,68.6562264 L24.54625,68.6562264 L26.078625,60.9603774 L23.537125,60.9603774 L23.724,60.0264151 L29.890875,60.0264151 L29.704,60.9230189 Z M32.133375,68.6562264 L32.133375,68.170566 C32.133375,68.0584906 32.17075,67.9090566 32.17075,67.7969811 C31.909125,68.0958491 31.610125,68.32 31.27375,68.5067925 C30.9683345,68.6907065 30.6209772,68.7935818 30.264625,68.8056604 C29.704,68.8056604 29.2555,68.6188679 28.993875,68.2826415 C28.73225,67.9464151 28.6575,67.4607547 28.769625,66.8630189 C28.88175,66.2279245 29.218125,65.7049057 29.704,65.4060377 C30.22725,65.0698113 30.862625,64.9203774 31.6475,64.9203774 L32.731375,64.9203774 L32.8435,64.285283 C32.91825,63.8743396 32.880875,63.5754717 32.731375,63.3886792 C32.581875,63.1645283 32.282875,63.0898113 31.909125,63.0898113 C31.57275,63.0898113 31.27375,63.2018868 31.012125,63.3886792 C30.7505,63.5754717 30.601,63.7996226 30.52625,64.0611321 L29.47975,64.0611321 L29.47975,64.0237736 C29.5545,63.5381132 29.8535,63.0898113 30.37675,62.7162264 C30.9,62.3426415 31.498,62.1558491 32.208125,62.1558491 C32.8435,62.1558491 33.329375,62.3426415 33.703125,62.7162264 C34.076875,63.0898113 34.189,63.6128302 34.0395,64.285283 L33.4415,67.3860377 L33.329375,68.0584906 C33.292,68.245283 33.292,68.469434 33.329375,68.6935849 L32.133375,68.6935849 L32.133375,68.6562264 Z M30.638375,67.7969811 C30.937375,67.7969811 31.27375,67.7222642 31.610125,67.5354717 C31.9465,67.3486792 32.208125,67.1245283 32.357625,66.8630189 L32.581875,65.6675472 L31.460625,65.6675472 C31.086875,65.6675472 30.713125,65.7796226 30.414125,66.0411321 C30.115125,66.265283 29.92825,66.5641509 29.8535,66.8630189 C29.77875,67.1618868 29.816125,67.3860377 29.92825,67.5354717 C30.07775,67.7222642 30.302,67.7969811 30.638375,67.7969811 Z M38.636625,63.2766038 L38.00125,63.2392453 C37.7470903,63.2390427 37.4990738,63.317329 37.291125,63.4633962 C37.066875,63.6128302 36.88,63.8369811 36.7305,64.0984906 L35.8335,68.6562264 L34.71225,68.6562264 L35.983,62.230566 L36.992125,62.230566 L36.917375,63.0898113 C37.1080054,62.7983874 37.3639359,62.5553608 37.664875,62.38 C38.0038179,62.1492158 38.4228863,62.0681417 38.8235,62.1558491 C38.89825,62.1558491 38.973,62.1932075 39.010375,62.1932075 L38.636625,63.2766038 Z M38.973,65.4433962 C39.19725,64.36 39.533625,63.5007547 40.0195,62.9403774 C40.505375,62.38 41.103375,62.1184906 41.850875,62.1184906 C42.18725,62.1184906 42.523625,62.1932075 42.78525,62.3426415 C43.046875,62.4920755 43.271125,62.7162264 43.458,63.0150943 L43.719625,62.230566 L44.691375,62.230566 L43.458,68.5441509 C43.271125,69.4407547 42.93475,70.1132075 42.4115,70.5615094 C41.88825,71.0098113 41.178125,71.2339623 40.355875,71.2339623 C40.09425,71.2339623 39.79525,71.1966038 39.458875,71.1218868 C39.166036,71.0626294 38.8870505,70.9485494 38.636625,70.7856604 L39.085125,69.8890566 C39.234625,70.0011321 39.458875,70.1132075 39.7205,70.1879245 C39.982125,70.2626415 40.24375,70.3 40.505375,70.3 C40.99125,70.3 41.365,70.150566 41.664,69.8516981 C41.9911813,69.5112271 42.2119786,69.0828099 42.299375,68.6188679 L42.374125,68.170566 C41.9479065,68.5931284 41.3670748,68.8226581 40.767,68.8056604 C40.09425,68.8056604 39.571,68.5067925 39.234625,67.8716981 C38.8761978,67.1682067 38.7833189,66.3591915 38.973,65.5928302 L38.973,65.4433962 Z M40.09425,65.5554717 C39.94475,66.2279245 39.982125,66.7883019 40.169,67.1992453 C40.355875,67.6101887 40.729625,67.8343396 41.252875,67.8343396 C41.5145,67.8343396 41.776125,67.7596226 42.000375,67.6101887 C42.224625,67.4607547 42.448875,67.2366038 42.63575,66.9377358 L43.23375,63.9490566 C43.121625,63.6875472 42.972125,63.5007547 42.747875,63.3139623 C42.523625,63.1271698 42.299375,63.0898113 41.963,63.0898113 C41.477125,63.0898113 41.103375,63.3139623 40.804375,63.7249057 C40.4723075,64.2494945 40.2439357,64.8328536 40.131625,65.4433962 L40.09425,65.5554717 Z M47.531875,68.7683019 C46.747,68.7683019 46.149,68.469434 45.737875,67.8716981 C45.32675,67.2739623 45.214625,66.489434 45.364125,65.5554717 L45.4015,65.2939623 C45.551,64.36 45.92475,63.5754717 46.52275,62.9777358 C47.12075,62.38 47.756125,62.0811321 48.428875,62.0811321 C49.21375,62.0811321 49.774375,62.3426415 50.11075,62.8656604 C50.447125,63.3886792 50.55925,64.0984906 50.40975,64.9577358 L50.297625,65.7049057 L46.485375,65.7049057 C46.410625,66.34 46.448,66.8630189 46.67225,67.2739623 C46.8965,67.6849057 47.232875,67.8343396 47.71875,67.8343396 C48.3596601,67.8293191 48.9795488,67.6052031 49.475375,67.1992453 L49.81175,67.9464151 C49.1796283,68.4927725 48.3673683,68.7855893 47.531875,68.7683019 Z M48.279375,63.0524528 C47.943,63.0524528 47.644,63.2018868 47.345,63.5381132 C47.046,63.8743396 46.82175,64.285283 46.67225,64.7709434 L46.67225,64.8083019 L49.2885,64.8083019 L49.325875,64.6588679 C49.400625,64.1732075 49.36325,63.7996226 49.176375,63.5007547 C49.026875,63.2018868 48.727875,63.0524528 48.279375,63.0524528 Z M54.035125,60.6988679 L53.736125,62.230566 L54.82,62.230566 L54.633125,63.0898113 L53.54925,63.0898113 L52.764375,66.9750943 C52.689625,67.3113208 52.689625,67.4981132 52.80175,67.6101887 C52.8765,67.7222642 53.026,67.7969811 53.212875,67.7969811 C53.287625,67.7969811 53.39975,67.7969811 53.54925,67.7596226 C53.661375,67.7596226 53.7735,67.7222642 53.84825,67.7222642 L53.84825,68.5067925 C53.736125,68.5815094 53.586625,68.6188679 53.362375,68.6935849 C53.138125,68.7309434 52.95125,68.7683019 52.727,68.7683019 C52.3596125,68.7870432 52.0077922,68.6182441 51.792625,68.32 C51.568375,68.0211321 51.531,67.5728302 51.643125,66.9750943 L52.428,63.0898113 L51.493625,63.0898113 L51.6805,62.230566 L52.614875,62.230566 L52.913875,60.6988679 L54.035125,60.6988679 Z" id="Shape" fill="#6E6F71" fill-rule="nonzero"></path>
            <path d="M139.698625,168.253962 L139.773375,168.253962 L141.941125,157.756226 L144.89375,157.756226 L141.3805,173.073208 L138.54,173.073208 L135.77425,162.986415 L135.6995,162.986415 L132.93375,173.073208 L130.130625,173.073208 L126.58,157.756226 L129.532625,157.756226 L131.700375,168.216604 L131.775125,168.216604 L134.615625,157.718868 L136.858125,157.718868 L139.698625,168.253962 Z M149.52825,158.989057 L146.500875,158.989057 L146.500875,156.67283 L149.52825,156.67283 L149.52825,158.989057 Z M149.52825,173.073208 L146.500875,173.073208 L146.500875,161.716226 L149.52825,161.716226 L149.52825,173.073208 Z M154.798125,161.716226 L154.947625,163.36 C155.321375,162.762264 155.769875,162.313962 156.3305,162.015094 C156.891125,161.678868 157.489125,161.529434 158.161875,161.529434 C159.283125,161.529434 160.180125,161.903019 160.8155,162.61283 C161.450875,163.322642 161.78725,164.480755 161.78725,166.012453 L161.78725,173.110566 L158.7225,173.110566 L158.7225,166.012453 C158.7225,165.227925 158.573,164.704906 158.274,164.368679 C157.975,164.032453 157.5265,163.883019 156.891125,163.883019 C156.48,163.883019 156.143625,163.957736 155.80725,164.144528 C155.470875,164.293962 155.20925,164.555472 155.022375,164.85434 L155.022375,173.110566 L151.995,173.110566 L151.995,161.753585 L154.798125,161.753585 L154.798125,161.716226 Z M167.281375,167.80566 L164.254,167.80566 L164.254,157.793585 L167.281375,157.793585 L167.281375,167.80566 Z M167.281375,173.073208 L164.254,173.073208 L164.254,170.383396 L167.281375,170.383396 L167.281375,173.073208 Z" id="Shape" fill="#FFFFFF" fill-rule="nonzero"></path>
        </g>
    </g>
</svg>