<?xml version="1.0" encoding="UTF-8"?>
<svg width="299px" height="197px" viewBox="0 0 299 197" version="1.1" xmlns="http://www.w3.org/2000/svg" xmlns:xlink="http://www.w3.org/1999/xlink">
    <!-- Generator: Sketch 52.6 (67491) - http://www.bohemiancoding.com/sketch -->
    <title>Run low</title>
    <desc>Created with Sketch.</desc>
    <g id="Page-1" stroke="none" stroke-width="1" fill="none" fill-rule="evenodd">
        <g id="Run-low">
            <polygon id="Path" fill="#F1F2F2" points="0 0 299 0 299 197 0 197"></polygon>
            <path d="M1.98671096,1.9798995 L1.98671096,195.020101 L297.013289,195.020101 L297.013289,1.9798995 L1.98671096,1.9798995 Z M299,0 L299,197 L0,197 L0,0 L299,0 Z" id="Path" fill="#C2C2C2" fill-rule="nonzero"></path>
            <path d="M2.92614576,55.1129772 L2.92614576,53.8897746 L296.509938,53.8897746 L296.509938,55.1129772 L2.92614576,55.1129772 Z M2.92614576,75.7107247 L2.92614576,74.4875221 L296.509938,74.4875221 L296.509938,75.7107247 L2.92614576,75.7107247 Z M2.92614576,96.2705389 L2.92614576,95.0473363 L296.509938,95.0473363 L296.509938,96.2705389 L2.92614576,96.2705389 Z M2.92614576,137.4281 L2.92614576,136.204898 L296.509938,136.204898 L296.509938,137.4281 L2.92614576,137.4281 Z M2.92614576,157.987914 L2.92614576,156.764712 L296.509938,156.764712 L296.509938,157.987914 L2.92614576,157.987914 Z M2.92614576,178.547729 L2.92614576,177.324527 L296.509938,177.324527 L296.509938,178.547729 L2.92614576,178.547729 Z M37.7718902,33.9415617 L38.9950928,33.9415617 L38.9950928,196.068215 L37.7718902,196.068215 L37.7718902,33.9415617 Z M74.9339161,33.9415617 L76.1571187,33.9415617 L76.1571187,196.068215 L74.9339161,196.068215 L74.9339161,33.9415617 Z M112.05806,33.9415617 L113.281262,33.9415617 L113.281262,196.068215 L112.05806,196.068215 L112.05806,33.9415617 Z M149.220086,33.9415617 L150.443288,33.9415617 L150.443288,196.068215 L149.220086,196.068215 L149.220086,33.9415617 Z M186.34423,33.9415617 L187.567432,33.9415617 L187.567432,196.068215 L186.34423,196.068215 L186.34423,33.9415617 Z M223.468374,33.9415617 L224.691576,33.9415617 L224.691576,196.068215 L223.468374,196.068215 L223.468374,33.9415617 Z M260.6304,33.9415617 L261.853602,33.9415617 L261.853602,196.068215 L260.6304,196.068215 L260.6304,33.9415617 Z" id="Shape" fill="#DFDEDE" fill-rule="nonzero"></path>
            <polygon id="Path" fill="#C2C2C2" fill-rule="nonzero" points="0.804766102 33.9510902 0.804766102 31.504306 298.631318 31.504306 298.631318 33.9510902"></polygon>
            <path d="M125.443646,89.3568677 L88.0816107,116.146679 C87.9376869,116.249878 87.7689387,116.313003 87.5926197,116.329601 L52.6337332,119.620598 C52.0838795,119.672361 51.5961731,119.268578 51.5444104,118.718725 C51.4926477,118.168871 51.8964302,117.681165 52.4462839,117.629402 L87.1359422,114.36375 L124.440364,87.6152494 C124.547408,87.5384952 124.668561,87.4836446 124.796865,87.4538481 L161.335859,78.9682268 L197.684572,55.2864603 C197.812297,55.2032458 197.957355,55.1503335 198.108661,55.1317674 L235.548618,50.5376741 C236.096791,50.4704101 236.595702,50.8602642 236.662966,51.4084376 C236.73023,51.9566109 236.340376,52.4555214 235.792202,52.5227853 L198.58221,57.0886607 L162.279803,80.7402578 C162.182013,80.8039695 162.073825,80.8500702 161.960137,80.8764725 L125.443646,89.3568677 Z M161.507708,78.9283175 L161.188041,79.0645323 L161.335859,78.9682268 L161.507708,78.9283175 Z M87.4051704,114.338405 L86.9161794,114.521327 L87.1359422,114.36375 L87.4051704,114.338405 Z" id="Shape" fill="#2A3052" fill-rule="nonzero" transform="translate(144.105227, 85.077597) scale(-1, 1) rotate(-180.000000) translate(-144.105227, -85.077597) "></path>
            <g id="Group" transform="translate(36.000000, 57.750000)" fill="#2A3052">
                <path d="M6.7375,8.325 C6.7375,7.8375 6.55,7.4625 6.2125,7.125 C5.875,6.825 5.2375,6.525 4.3375,6.3375 C3.25,6.075 2.3875,5.7 1.7875,5.175 C1.1875,4.65 0.8875,4.0125 0.8875,3.2625 C0.8875,2.4375 1.225,1.7625 1.8625,1.2375 C2.5,0.675 3.3625,0.4125 4.4125,0.4125 C5.5375,0.4125 6.4375,0.7125 7.1125,1.35 C7.7875,1.9875 8.0875,2.7 8.0875,3.525 L8.0875,3.5625 L6.7375,3.5625 C6.7375,2.9625 6.55,2.475 6.1375,2.1 C5.725,1.725 5.1625,1.5375 4.4125,1.5375 C3.7375,1.5375 3.175,1.6875 2.8375,2.025 C2.4625,2.325 2.275,2.7375 2.275,3.2625 C2.275,3.7125 2.4625,4.0875 2.875,4.3875 C3.2875,4.6875 3.925,4.95 4.825,5.175 C5.9125,5.4375 6.7375,5.85 7.3,6.375 C7.8625,6.9 8.1625,7.575 8.1625,8.325 C8.1625,9.15 7.825,9.825 7.15,10.35 C6.475,10.875 5.575,11.1 4.4875,11.1 C3.475,11.1 2.5375,10.8 1.75,10.2375 C0.9625,9.675 0.5875,8.925 0.5875,7.9875 L0.5875,7.95 L1.9,7.95 C1.9,8.625 2.125,9.1125 2.6125,9.4875 C3.1,9.8625 3.7,10.0125 4.4125,10.0125 C5.125,10.0125 5.65,9.8625 6.0625,9.5625 C6.55,9.2625 6.7375,8.85 6.7375,8.325 Z" id="Shape"></path>
                <path d="M11.725,1.3875 L11.725,3.2625 L13.1875,3.2625 L13.1875,4.3125 L11.725,4.3125 L11.725,9 C11.725,9.375 11.8,9.6 11.95,9.75 C12.1,9.9 12.2875,9.975 12.55,9.975 C12.625,9.975 12.7,9.975 12.8125,9.9375 C12.925,9.9375 13,9.9 13.075,9.8625 L13.2625,10.8375 C13.15,10.9125 13,10.9875 12.8125,11.0625 C12.625,11.1 12.4,11.1375 12.2125,11.1375 C11.65,11.1375 11.2,10.95 10.8625,10.6125 C10.525,10.275 10.375,9.7125 10.375,9 L10.375,4.3125 L9.1375,4.3125 L9.1375,3.2625 L10.3375,3.2625 L10.3375,1.3875 C10.3375,1.3875 11.725,1.3875 11.725,1.3875 Z" id="Shape"></path>
                <path d="M19.6,10.95 C19.5625,10.725 19.525,10.5 19.4875,10.3125 C19.45,10.125 19.45,9.975 19.45,9.7875 C19.1875,10.1625 18.85,10.4625 18.4375,10.725 C18.025,10.9875 17.575,11.1 17.0875,11.1 C16.3,11.1 15.7,10.9125 15.2875,10.4625 C14.875,10.05 14.65,9.4875 14.65,8.775 C14.65,8.025 14.95,7.4625 15.55,7.05 C16.15,6.6375 16.9375,6.4125 17.95,6.4125 L19.45,6.4125 L19.45,5.6625 C19.45,5.2125 19.3,4.8375 19.0375,4.575 C18.775,4.3125 18.3625,4.1625 17.875,4.1625 C17.425,4.1625 17.05,4.275 16.7875,4.5 C16.525,4.725 16.375,5.025 16.375,5.325 L15.0625,5.325 L15.0625,5.2875 C15.025,4.725 15.2875,4.2 15.85,3.75 C16.4125,3.3 17.125,3.0375 17.9875,3.0375 C18.85,3.0375 19.5625,3.2625 20.0875,3.7125 C20.6125,4.1625 20.875,4.8 20.875,5.625 L20.875,9.3375 C20.875,9.6 20.875,9.8625 20.9125,10.125 C20.95,10.3875 20.9875,10.65 21.0625,10.875 L19.6,10.875 L19.6,10.95 Z M17.275,9.9375 C17.7625,9.9375 18.25,9.825 18.625,9.5625 C19.0375,9.3 19.3,9 19.4125,8.6625 L19.4125,7.425 L17.875,7.425 C17.3125,7.425 16.8625,7.575 16.525,7.8375 C16.1875,8.1 16.0375,8.475 16.0375,8.85 C16.0375,9.1875 16.15,9.45 16.3375,9.675 C16.5625,9.825 16.8625,9.9375 17.275,9.9375 Z" id="Shape" fill-rule="nonzero"></path>
                <path d="M26.4625,4.4625 L25.75,4.425 C25.375,4.425 25.075,4.5 24.8125,4.6875 C24.55,4.875 24.3625,5.1 24.2125,5.4375 L24.2125,10.95 L22.825,10.95 L22.825,3.225 L24.0625,3.225 L24.2125,4.35 C24.4375,3.9375 24.7,3.6375 25,3.4125 C25.3,3.1875 25.675,3.075 26.0875,3.075 C26.2,3.075 26.275,3.075 26.3875,3.1125 C26.4625,3.1125 26.575,3.15 26.6125,3.15 L26.4625,4.4625 Z" id="Shape"></path>
                <path d="M29.7625,1.3875 L29.7625,3.2625 L31.225,3.2625 L31.225,4.3125 L29.7625,4.3125 L29.7625,9 C29.7625,9.375 29.8375,9.6 29.9875,9.75 C30.1375,9.9 30.325,9.975 30.5875,9.975 C30.6625,9.975 30.7375,9.975 30.85,9.9375 C30.9625,9.9375 31.0375,9.9 31.1125,9.8625 L31.3,10.8375 C31.1875,10.9125 31.0375,10.9875 30.85,11.0625 C30.6625,11.1 30.4375,11.1375 30.25,11.1375 C29.6875,11.1375 29.2375,10.95 28.9,10.6125 C28.5625,10.275 28.4125,9.7125 28.4125,9 L28.4125,4.3125 L27.2125,4.3125 L27.2125,3.2625 L28.4125,3.2625 L28.4125,1.3875 C28.4125,1.3875 29.7625,1.3875 29.7625,1.3875 Z" id="Shape"></path>
            </g>
            <g id="Group" transform="translate(246.000000, 113.250000)" fill="#2A3052">
                <polygon id="Shape" points="6.5375 7.25 1.85 7.25 1.85 10.9625 7.2875 10.9625 7.2875 12.05 0.4625 12.05 0.4625 1.6625 7.2125 1.6625 7.2125 2.75 1.85 2.75 1.85 6.125 6.5375 6.125"></polygon>
                <path d="M9.875,4.325 L9.9875,5.4875 C10.25,5.075 10.55,4.775 10.925,4.55 C11.3,4.325 11.75,4.2125 12.2375,4.2125 C13.0625,4.2125 13.7,4.4375 14.15,4.9625 C14.6,5.45 14.825,6.2 14.825,7.2125 L14.825,12.0875 L13.4375,12.0875 L13.4375,7.25 C13.4375,6.575 13.2875,6.0875 13.025,5.7875 C12.7625,5.4875 12.35,5.375 11.825,5.375 C11.4125,5.375 11.075,5.4875 10.775,5.675 C10.475,5.8625 10.2125,6.125 10.025,6.4625 L10.025,12.0875 L8.6375,12.0875 L8.6375,4.3625 L9.875,4.325 Z" id="Shape"></path>
                <path d="M16.5125,8.3375 C16.5125,7.1 16.775,6.0875 17.3,5.3375 C17.825,4.5875 18.575,4.2125 19.5125,4.2125 C19.9625,4.2125 20.375,4.2875 20.7125,4.475 C21.05,4.625 21.35,4.8875 21.6125,5.1875 L21.6125,0.95 L23,0.95 L23,12.0875 L21.875,12.0875 L21.725,11.15 C21.4625,11.525 21.1625,11.7875 20.825,11.975 C20.45,12.1625 20.0375,12.2375 19.55,12.2375 C18.6125,12.2375 17.9,11.9 17.375,11.225 C16.85,10.55 16.5875,9.65 16.5875,8.525 L16.5875,8.3375 L16.5125,8.3375 Z M17.9,8.4875 C17.9,9.275 18.05,9.9125 18.3875,10.3625 C18.725,10.8125 19.175,11.075 19.85,11.075 C20.2625,11.075 20.6,10.9625 20.9,10.775 C21.2,10.5875 21.425,10.325 21.575,9.9875 L21.575,6.3875 C21.3875,6.05 21.1625,5.825 20.8625,5.6375 C20.5625,5.45 20.225,5.3375 19.85,5.3375 C19.175,5.3375 18.6875,5.6 18.3875,6.1625 C18.0875,6.725 17.9,7.4375 17.9,8.3375 L17.9,8.4875 Z" id="Shape" fill-rule="nonzero"></path>
            </g>
            <path d="M190.2625,150.5625 L155.1625,150.5625 L149.7625,142.35 L144.3625,150.5625 L109.2625,150.5625 C106.6375,150.5625 104.5375,152.7 104.5375,155.3625 L104.5375,180.15 C104.5375,182.8125 106.675,184.95 109.2625,184.95 L190.2625,184.95 C192.8875,184.95 194.9875,182.8125 194.9875,180.15 L194.9875,155.3625 C194.9875,152.7 192.85,150.5625 190.2625,150.5625 Z" id="Shape" fill="#E88024"></path>
            <g id="Group" transform="translate(128.250000, 159.750000)" fill="#FFFFFF">
                <polygon id="Shape" points="13.525 11.7 13.6 11.7 15.775 1.1625 18.7375 1.1625 15.2125 16.5 12.4 16.5 9.625 6.375 9.55 6.375 6.775 16.5 3.9625 16.5 0.4 1.1625 3.3625 1.1625 5.5375 11.6625 5.6125 11.6625 8.4625 1.125 10.7125 1.125"></polygon>
                <path d="M23.3875,2.4 L20.35,2.4 L20.35,0.075 L23.3875,0.075 L23.3875,2.4 Z M23.3875,16.5375 L20.35,16.5375 L20.35,5.1375 L23.3875,5.1375 L23.3875,16.5375 Z" id="Shape" fill-rule="nonzero"></path>
                <path d="M28.6375,5.1375 L28.7875,6.7875 C29.1625,6.1875 29.6125,5.7375 30.175,5.4375 C30.7375,5.1 31.3375,4.95 32.0125,4.95 C33.1375,4.95 34.0375,5.325 34.675,6.0375 C35.3125,6.75 35.65,7.9125 35.65,9.45 L35.65,16.575 L32.6125,16.575 L32.6125,9.45 C32.6125,8.6625 32.4625,8.1375 32.1625,7.8 C31.8625,7.4625 31.4125,7.3125 30.775,7.3125 C30.3625,7.3125 30.025,7.3875 29.6875,7.575 C29.35,7.725 29.0875,7.9875 28.9,8.2875 L28.9,16.575 L25.8625,16.575 L25.8625,5.175 L28.6375,5.1375 Z" id="Shape"></path>
                <path d="M41.2,11.25 L38.1625,11.25 L38.1625,1.2 L41.2,1.2 L41.2,11.25 Z M41.2,16.5375 L38.1625,16.5375 L38.1625,13.8375 L41.2,13.8375 L41.2,16.5375 Z" id="Shape" fill-rule="nonzero"></path>
            </g>
            <g id="Group" transform="translate(226.750000, 109.750000)">
                <g id="Oval" opacity="0.6" fill="#FFFFFF">
                    <ellipse cx="8.5125" cy="9.225" rx="8.1375" ry="8.475"></ellipse>
                </g>
                <path d="M8.5125,18.02305 C3.83686418,18.02305 0.05195,14.0811578 0.05195,9.225 C0.05195,4.36884218 3.83686418,0.42695 8.5125,0.42695 C13.1881358,0.42695 16.97305,4.36884218 16.97305,9.225 C16.97305,14.0811578 13.1881358,18.02305 8.5125,18.02305 Z M8.5125,17.37695 C12.8252985,17.37695 16.32695,13.7300687 16.32695,9.225 C16.32695,4.71993131 12.8252985,1.07305 8.5125,1.07305 C4.19970152,1.07305 0.69805,4.71993131 0.69805,9.225 C0.69805,13.7300687 4.19970152,17.37695 8.5125,17.37695 Z" id="Oval" fill="#E88024" fill-rule="nonzero"></path>
            </g>
            <g id="Group" transform="translate(79.500000, 47.000000)">
                <g id="Oval" opacity="0.6" fill="#FFFFFF">
                    <ellipse cx="8.1375" cy="8.475" rx="8.1375" ry="8.475"></ellipse>
                </g>
                <path d="M8.1375,17.27305 C3.46186418,17.27305 -0.32305,13.3311578 -0.32305,8.475 C-0.32305,3.61884218 3.46186418,-0.32305 8.1375,-0.32305 C12.8131358,-0.32305 16.59805,3.61884218 16.59805,8.475 C16.59805,13.3311578 12.8131358,17.27305 8.1375,17.27305 Z M8.1375,16.62695 C12.4502985,16.62695 15.95195,12.9800687 15.95195,8.475 C15.95195,3.96993131 12.4502985,0.32305 8.1375,0.32305 C3.82470152,0.32305 0.32305,3.96993131 0.32305,8.475 C0.32305,12.9800687 3.82470152,16.62695 8.1375,16.62695 Z" id="Oval" fill="#E88024" fill-rule="nonzero"></path>
            </g>
            <polygon id="Shape" fill="#2A3052" fill-rule="nonzero" points="5 137 5 136 294.283847 136 294.283847 137"></polygon>
            <path d="M17.2045898,12.875 L17.2045898,15.7753906 L19.7607421,15.7753906 C20.2685572,15.7753906 20.6494127,15.7167974 20.9033203,15.5996093 C21.3525413,15.3945302 21.5771484,14.9892608 21.5771484,14.383789 C21.5771484,13.7294889 21.3598654,13.2900401 20.9252929,13.0654296 C20.6811511,12.9384759 20.3149438,12.875 19.8266601,12.875 L17.2045898,12.875 Z M20.2954101,11 C21.0522498,11.0146485 21.6345194,11.107421 22.0422363,11.2783203 C22.4499532,11.4492196 22.7954087,11.7006819 23.0786132,12.0327148 C23.3129894,12.3061537 23.4985344,12.608885 23.6352539,12.9409179 C23.7719733,13.2729508 23.840332,13.651365 23.840332,14.0761718 C23.840332,14.5888697 23.7109388,15.0930151 23.4521484,15.588623 C23.193358,16.084231 22.7661162,16.4345692 22.1704101,16.6396484 C22.6684595,16.8398447 23.0212392,17.1242657 23.2287597,17.4929199 C23.4362803,17.8615741 23.540039,18.4243126 23.540039,19.1811523 L23.540039,19.90625 C23.540039,20.3994165 23.5595701,20.7338858 23.5986328,20.9096679 C23.6572268,21.1879896 23.7939442,21.3930657 24.008789,21.5249023 L24.008789,21.7958984 L21.5258789,21.7958984 C21.4575191,21.5566394 21.4086915,21.3637702 21.3793945,21.2172851 C21.3208004,20.9145492 21.2890625,20.6044937 21.2841796,20.2871093 L21.2695312,19.2836914 C21.2597655,18.5952114 21.1340344,18.1362316 20.8923339,17.9067382 C20.6506335,17.6772449 20.1977572,17.5625 19.5336914,17.5625 L17.2045898,17.5625 L17.2045898,21.7958984 L15,21.7958984 L15,11 L20.2954101,11 Z M26.9928711,13.8125 L26.9928711,18.6245117 C26.9928711,19.0786155 27.0465815,19.420409 27.1540039,19.6499023 C27.3444345,20.0551778 27.7179659,20.2578125 28.2746093,20.2578125 C28.9875035,20.2578125 29.4757799,19.9697294 29.7394531,19.3935546 C29.8761725,19.0810531 29.9445312,18.6684596 29.9445312,18.1557617 L29.9445312,13.8125 L32.0612304,13.8125 L32.0612304,21.7958984 L30.0324218,21.7958984 L30.0324218,20.6679687 C30.0128905,20.6923829 29.9640629,20.7656244 29.8859375,20.8876953 C29.8078121,21.0097662 29.7150396,21.117187 29.6076172,21.2099609 C29.2804671,21.5029311 28.9643081,21.7031244 28.6591308,21.8105468 C28.3539535,21.9179692 27.9962911,21.9716796 27.5861328,21.9716796 C26.4044862,21.9716796 25.6085958,21.5468792 25.1984375,20.6972656 C24.9689441,20.2285132 24.8541992,19.5376022 24.8541992,18.6245117 L24.8541992,13.8125 L26.9928711,13.8125 Z M37.7992187,13.6220703 C38.6244182,13.6220703 39.2994602,13.8381326 39.8243652,14.2702636 C40.3492702,14.7023947 40.6117187,15.4189403 40.6117187,16.4199218 L40.6117187,21.7958984 L38.4730469,21.7958984 L38.4730469,16.9399414 C38.4730469,16.5200174 38.4168951,16.197755 38.3045898,15.9731445 C38.0995107,15.5629862 37.7088896,15.3579101 37.1327148,15.3579101 C36.4247035,15.3579101 35.9388685,15.6582001 35.6751953,16.258789 C35.5384759,16.5761734 35.4701172,16.9814428 35.4701172,17.4746093 L35.4701172,21.7958984 L33.390039,21.7958984 L33.390039,13.8271484 L35.4041992,13.8271484 L35.4041992,14.9916992 C35.6727552,14.5815409 35.9266589,14.2861337 36.1659179,14.1054687 C36.5956076,13.7832015 37.1400357,13.6220703 37.7992187,13.6220703 Z M46.0064453,11 L48.2623047,11 L48.2623047,19.8549804 L53.6089844,19.8549804 L53.6089844,21.7958984 L46.0064453,21.7958984 L46.0064453,11 Z M57.8821289,20.3237304 C58.4924835,20.3237304 58.9612288,20.1064474 59.2883789,19.671875 C59.615529,19.2373025 59.7791016,18.6196329 59.7791016,17.8188476 C59.7791016,17.0180624 59.615529,16.4016135 59.2883789,15.9694824 C58.9612288,15.5373513 58.4924835,15.321289 57.8821289,15.321289 C57.2717743,15.321289 56.8018083,15.5373513 56.4722168,15.9694824 C56.1426253,16.4016135 55.977832,17.0180624 55.977832,17.8188476 C55.977832,18.6196329 56.1426253,19.2373025 56.4722168,19.671875 C56.8018083,20.1064474 57.2717743,20.3237304 57.8821289,20.3237304 Z M61.969043,17.8188476 C61.969043,18.9907285 61.6321323,19.9929157 60.9583008,20.8254394 C60.2844693,21.6579631 59.2615303,22.0742187 57.8894531,22.0742187 C56.517376,22.0742187 55.494437,21.6579631 54.8206055,20.8254394 C54.146774,19.9929157 53.8098633,18.9907285 53.8098633,17.8188476 C53.8098633,16.6664981 54.146774,15.6679729 54.8206055,14.8232422 C55.494437,13.9785114 56.517376,13.5561523 57.8894531,13.5561523 C59.2615303,13.5561523 60.2844693,13.9785114 60.9583008,14.8232422 C61.6321323,15.6679729 61.969043,16.6664981 61.969043,17.8188476 Z M66.527832,13.8125 L68.6445313,13.8125 L69.8603516,19.5620117 L71.1054688,13.8125 L73.2807617,13.8125 L70.9663086,21.7958984 L68.8203125,21.7958984 L67.5678711,15.9804687 L66.3007813,21.7958984 L64.1328125,21.7958984 L61.8916016,13.8125 L64.1328125,13.8125 L65.3779297,19.540039 L66.527832,13.8125 Z" id="RunLow" fill="#000000" fill-rule="nonzero"></path>
        </g>
    </g>
</svg>