<?xml version="1.0" encoding="UTF-8"?>
<svg width="299px" height="197px" viewBox="0 0 299 197" version="1.1" xmlns="http://www.w3.org/2000/svg" xmlns:xlink="http://www.w3.org/1999/xlink">
    <!-- Generator: Sketch 52.6 (67491) - http://www.bohemiancoding.com/sketch -->
    <title>Run high</title>
    <desc>Created with Sketch.</desc>
    <g id="Page-1" stroke="none" stroke-width="1" fill="none" fill-rule="evenodd">
        <g id="Run-high">
            <polygon id="Path" fill="#F1F2F2" points="0 0 299 0 299 197 0 197"></polygon>
            <path d="M1.98671096,1.9798995 L1.98671096,195.020101 L297.013289,195.020101 L297.013289,1.9798995 L1.98671096,1.9798995 Z M299,0 L299,197 L0,197 L0,0 L299,0 Z" id="Path" fill="#C2C2C2" fill-rule="nonzero"></path>
            <path d="M4,54.0670861 L4,52.8631465 L294,52.8631465 L294,54.0670861 L4,54.0670861 Z M4,76.3926677 L4,75.188728 L294,75.188728 L294,76.3926677 L4,76.3926677 Z M4,94.9973189 L4,93.7933792 L294,93.7933792 L294,94.9973189 L4,94.9973189 Z M4,134.936627 L4,133.732687 L294,133.732687 L294,134.936627 L4,134.936627 Z M4,154.532203 L4,153.328263 L294,153.328263 L294,154.532203 L4,154.532203 Z M4,176.857784 L4,175.653845 L294,175.653845 L294,176.857784 L4,176.857784 Z M38.72025,33 L39.9207756,33 L39.9207756,193 L38.72025,193 L38.72025,33 Z M75.8997371,33 L77.1002628,33 L77.1002628,193 L75.8997371,193 L75.8997371,33 Z M113.079225,33 L114.27975,33 L114.27975,193 L113.079225,193 L113.079225,33 Z M146.540763,33 L147.741288,33 L147.741288,193 L146.540763,193 L146.540763,33 Z M183.720249,33 L184.920775,33 L184.920775,193 L183.720249,193 L183.720249,33 Z M220.899737,33 L222.100263,33 L222.100263,193 L220.899737,193 L220.899737,33 Z M258.079224,33 L259.279749,33 L259.279749,193 L258.079224,193 L258.079224,33 Z" id="Shape" fill="#DFDEDE" fill-rule="nonzero"></path>
            <polygon id="Path" fill="#2A3052" fill-rule="nonzero" points="3.90644108 134.819829 3.90644108 133.604863 295.513238 133.604863 295.513238 134.819829"></polygon>
            <polygon id="Path" fill="#C2C2C2" fill-rule="nonzero" points="0.799346801 34.7797904 0.799346801 32.3494829 294.362731 32.3494829 294.362731 34.7797904"></polygon>
            <path d="M187.239564,148.191156 L152.058614,148.191156 L146.640372,139.96769 L141.22213,148.191156 L106.041181,148.191156 C103.407313,148.191156 101.300218,150.33151 101.300218,152.997566 L101.300218,177.818164 C101.300218,180.484219 103.444939,182.624573 106.041181,182.624573 L187.27719,182.624573 C189.911058,182.624573 192.018152,180.484219 192.018152,177.818164 L192.018152,152.997566 C192.018152,150.33151 189.873431,148.191156 187.239564,148.191156 Z" id="Path" fill="#E88024"></path>
            <path d="M44.3362934,105.996068 C44.3362934,105.507917 44.1481599,105.132416 43.8095198,104.794465 C43.4708796,104.494065 42.831226,104.193664 41.9281856,104.005914 C40.8370118,103.743063 39.9715981,103.367563 39.3695711,102.841862 C38.7942173,102.372356 38.4623137,101.668497 38.4665307,100.926808 C38.4665307,100.100706 38.8051709,99.424805 39.4448245,98.899104 C40.0844781,98.3358529 40.9498918,98.0730024 42.003439,98.0730024 C43.1322395,98.0730024 44.0352799,98.373403 44.7125602,99.0117542 C45.3898405,99.6501055 45.690854,100.363557 45.690854,101.189658 L45.690854,101.227209 L44.2986667,101.227209 C44.2986667,100.626407 44.1105332,100.138256 43.6966397,99.7627557 C43.2827462,99.387255 42.718346,99.1995046 41.9658123,99.1995046 C41.288532,99.1995046 40.7241317,99.3497049 40.3854916,99.6876555 C40.0098511,99.9870475 39.8001243,100.447507 39.8210913,100.926808 C39.8210913,101.377409 40.0092247,101.75291 40.4231183,102.05331 C40.8370118,102.353711 41.4766654,102.616561 42.3797058,102.841862 C43.4708796,103.067162 44.2986667,103.480213 44.8630669,104.005914 C45.4274672,104.531615 45.7284806,105.207516 45.7284806,105.958518 C45.7284806,106.784619 45.3898405,107.460521 44.7125602,107.986222 C44.0352799,108.511923 43.1322395,108.737223 42.0410657,108.737223 C41.0251452,108.737223 40.0844781,108.436822 39.2943178,107.873571 C38.5041574,107.31032 38.1278906,106.559319 38.1278906,105.620567 L38.1278906,105.583017 L39.4448245,105.583017 C39.4448245,106.258918 39.6705846,106.747069 40.1597315,107.12257 C40.6488784,107.498071 41.2509053,107.648271 41.9658123,107.648271 C42.6807193,107.648271 43.2074928,107.498071 43.6213864,107.19767 C44.1105332,106.897269 44.3362934,106.521769 44.3362934,105.996068 Z M49.3406423,99.0117542 L49.3406423,100.889258 L50.8080829,100.889258 L50.8080829,101.94066 L49.3406423,101.94066 L49.3406423,106.634419 C49.3406423,107.00992 49.4158956,107.23522 49.5664024,107.38542 C49.7169091,107.535621 49.9050425,107.610721 50.1684293,107.610721 C50.2436827,107.610721 50.318936,107.610721 50.4318161,107.573171 C50.5446961,107.535621 50.6199495,107.535621 50.6952029,107.498071 L50.8833363,108.474373 C50.7704562,108.549473 50.6199495,108.624573 50.4318161,108.699673 C50.2436827,108.737223 50.0179226,108.774773 49.8297891,108.774773 C49.3251875,108.792026 48.8355737,108.602009 48.4752285,108.249072 C48.1365884,107.911121 47.9860816,107.34787 47.9860816,106.634419 L47.9860816,101.94066 L46.7067744,101.94066 L46.7067744,100.889258 L47.9108283,100.889258 L47.9108283,99.0117542 L49.3406423,99.0117542 Z M57.2046191,108.624573 C57.1669924,108.399272 57.1293657,108.173972 57.0917391,107.986222 C57.0541124,107.798471 57.0541124,107.648271 57.0541124,107.460521 C56.7907256,107.836021 56.4520854,108.136422 56.0381919,108.399272 C55.6242984,108.662123 55.1727782,108.774773 54.6836313,108.774773 C53.893471,108.774773 53.291444,108.587023 52.8775505,108.136422 C52.4413986,107.684392 52.2101773,107.073582 52.2378969,106.446669 C52.2378969,105.695667 52.5389104,105.132416 53.1409373,104.719365 C53.7429642,104.306314 54.5331246,104.081014 55.549045,104.081014 L57.0541124,104.081014 L57.0541124,103.330013 C57.0685188,102.926249 56.9193242,102.533719 56.6402189,102.24106 C56.3209909,101.955616 55.9019077,101.807212 55.4737917,101.82801 C55.0222715,101.82801 54.6460046,101.94066 54.3826178,102.16596 C54.1192311,102.391261 53.9687243,102.691661 53.9687243,102.992062 L52.6517904,102.992062 L52.6517904,102.954512 C52.6141637,102.391261 52.8775505,101.86556 53.4419508,101.414959 C54.0523741,100.936228 54.8105084,100.684031 55.5866717,100.701507 C56.4520854,100.701507 57.1669924,100.926808 57.693766,101.377409 C58.2205396,101.82801 58.4839263,102.466361 58.4839263,103.292463 L58.4839263,107.00992 C58.4740716,107.529365 58.5374018,108.047615 58.6720598,108.549473 L57.2046191,108.549473 L57.2046191,108.624573 Z M54.9093914,107.573171 C55.3985383,107.573171 55.8500585,107.460521 56.263952,107.19767 C56.6778455,106.93482 56.9412323,106.634419 57.0541124,106.296468 L57.0541124,105.057316 L55.4737917,105.057316 C54.9093914,105.057316 54.4578712,105.207516 54.1192311,105.470367 C53.7805909,105.733217 53.6300842,106.108718 53.6300842,106.484219 C53.6300842,106.822169 53.7429642,107.08502 53.9310976,107.31032 C54.1568577,107.498071 54.4954979,107.573171 54.9093914,107.573171 Z M64.0903022,102.12841 L63.3753952,102.09086 C62.9991284,102.09086 62.6981149,102.16596 62.4347281,102.353711 C62.1668567,102.542118 61.9580876,102.802548 61.8327012,103.104712 L61.8327012,108.624573 L60.4405139,108.624573 L60.4405139,100.889258 L61.6821944,100.889258 L61.8327012,102.01576 C62.0584613,101.602709 62.3218481,101.302309 62.6228615,101.077008 C62.923875,100.851708 63.3001418,100.739058 63.7140354,100.739058 C63.8269154,100.739058 63.9021688,100.739058 64.0150488,100.776608 C64.0903022,100.776608 64.2031822,100.814158 64.2408089,100.814158 L64.0903022,102.12841 Z M67.4014503,99.0117542 L67.4014503,100.889258 L68.868891,100.889258 L68.868891,101.94066 L67.4014503,101.94066 L67.4014503,106.634419 C67.4014503,107.00992 67.4767037,107.23522 67.6272104,107.38542 C67.7777172,107.535621 67.9658506,107.610721 68.2292374,107.610721 C68.3044907,107.610721 68.3797441,107.610721 68.4926242,107.573171 C68.6055042,107.535621 68.6807576,107.535621 68.7560109,107.498071 L68.9441444,108.474373 C68.8312643,108.549473 68.6807576,108.624573 68.4926242,108.699673 C68.3044907,108.737223 68.0787306,108.774773 67.8905972,108.774773 C67.3859956,108.792026 66.8963818,108.602009 66.5360366,108.249072 C66.1973965,107.911121 66.0468897,107.34787 66.0468897,106.634419 L66.0468897,101.94066 L64.8428359,101.94066 L64.8428359,100.889258 L66.0468897,100.889258 L66.0468897,99.0117542 L67.4014503,99.0117542 Z M250.704207,69.0618094 L246.000872,69.0618094 L246.000872,72.7792666 L251.456741,72.7792666 L251.456741,73.8682187 L244.608684,73.8682187 L244.608684,63.4668486 L251.381487,63.4668486 L251.381487,64.5558007 L246.038498,64.5558007 L246.038498,67.9353072 L250.741834,67.9353072 L250.741834,69.0618094 L250.704207,69.0618094 Z M254.052982,66.1329037 L254.165862,67.296956 C254.62793,66.4915077 255.493642,66.0019367 256.423463,66.0202535 C257.25125,66.0202535 257.890904,66.283104 258.342424,66.771255 C258.793944,67.2594059 259.019704,68.0104074 259.019704,69.0242593 L259.019704,73.9057687 L257.627517,73.9057687 L257.627517,69.0618094 C257.627517,68.3859081 257.47701,67.8977571 257.213623,67.5973566 C256.950237,67.296956 256.536343,67.1843058 256.009569,67.1843058 C255.595676,67.1843058 255.257036,67.296956 254.956022,67.4847063 C254.655009,67.6724567 254.391622,67.9353072 254.203489,68.2732579 L254.203489,73.9057687 L252.811301,73.9057687 L252.811301,66.1704538 L254.052982,66.1704538 L254.052982,66.1329037 Z M260.712905,70.1507615 C260.712905,68.9116091 260.976292,67.8977571 261.503065,67.1467557 C262.029839,66.3957542 262.782372,66.0202535 263.72304,66.0202535 C264.17456,66.0202535 264.550827,66.0953537 264.927093,66.283104 C265.265734,66.4333043 265.566747,66.6961548 265.830134,66.9965554 L265.830134,62.7533972 L267.222321,62.7533972 L267.222321,73.9057687 L266.093521,73.9057687 L265.905387,72.9294669 C265.672556,73.2709221 265.363416,73.5537239 265.002347,73.7555685 C264.602827,73.9431739 264.164327,74.0332694 263.72304,74.018419 C262.873064,74.0577795 262.05771,73.678991 261.540692,73.004567 C261.013918,72.3286657 260.750532,71.427464 260.750532,70.3009618 L260.750532,70.1507615 L260.712905,70.1507615 Z M262.105092,70.3009618 C262.105092,71.0895133 262.255599,71.7278645 262.594239,72.1784654 C262.932879,72.6290663 263.384399,72.8919168 264.06168,72.8919168 C264.475573,72.8919168 264.814213,72.7792666 265.115227,72.5915162 C265.41624,72.4037658 265.642,72.1409153 265.792507,71.8029647 L265.792507,68.1981577 C265.615228,67.8963037 265.370587,67.6393119 265.0776,67.4471563 C264.774527,67.2525354 264.422073,67.1483172 264.06168,67.1467557 C263.384399,67.1467557 262.895253,67.4096062 262.594239,67.9728573 C262.293226,68.5361084 262.105092,69.2495597 262.105092,70.1507615 L262.105092,70.3009618 Z" id="Shape" fill="#2A3052" fill-rule="nonzero"></path>
            <path d="M138.625888,169.106547 L138.701142,169.106547 L140.883489,158.554976 L143.855997,158.554976 L140.319089,173.912956 L137.459461,173.912956 L134.675087,163.774436 L134.599833,163.774436 L131.815459,173.912956 L128.993457,173.912956 L125.418923,158.554976 L128.391431,158.554976 L130.573778,169.068997 L130.649032,169.068997 L133.50866,158.517426 L135.766261,158.517426 L138.625888,169.106547 Z M148.521706,159.794129 L145.473945,159.794129 L145.473945,157.466024 L148.521706,157.466024 L148.521706,159.794129 Z M148.521706,173.950506 L145.473945,173.950506 L145.473945,162.535284 L148.521706,162.535284 L148.521706,173.950506 Z M153.827069,162.535284 L153.977575,164.187487 C154.353842,163.586686 154.805362,163.136085 155.369763,162.835685 C155.934163,162.497734 156.53619,162.347534 157.21347,162.347534 C158.342271,162.347534 159.245311,162.723034 159.884965,163.436486 C160.524618,164.149937 160.863258,165.313989 160.863258,166.853542 L160.863258,173.988056 L157.77787,173.988056 L157.77787,166.853542 C157.77787,166.064991 157.627364,165.53929 157.32635,165.201339 C157.025337,164.863388 156.573816,164.713188 155.934163,164.713188 C155.520269,164.713188 155.181629,164.788288 154.842989,164.976039 C154.504349,165.163789 154.240962,165.38909 154.052829,165.68949 L154.052829,173.988056 L151.005067,173.988056 L151.005067,162.572834 L153.827069,162.572834 L153.827069,162.535284 Z M166.394381,168.655946 L163.34662,168.655946 L163.34662,158.592526 L166.394381,158.592526 L166.394381,168.655946 Z M166.394381,173.950506 L163.34662,173.950506 L163.34662,171.246901 L166.394381,171.246901 L166.394381,173.950506 Z" id="Shape" fill="#FFFFFF" fill-rule="nonzero"></path>
            <path d="M130.903705,87.8267404 L93.54167,114.616552 C93.3977462,114.719751 93.228998,114.782876 93.052679,114.799474 L58.0937925,118.090471 C57.5439388,118.142234 57.0562324,117.738451 57.0044697,117.188598 C56.952707,116.638744 57.3564895,116.151038 57.9063432,116.099275 L92.5960015,112.833623 L129.900423,86.0851221 C130.007467,86.0083679 130.12862,85.9535173 130.256924,85.9237208 L166.795918,77.4380995 L203.144631,53.756333 C203.272356,53.6731185 203.417414,53.6202062 203.56872,53.6016401 L241.008677,49.0075468 C241.55685,48.9402828 242.055761,49.3301369 242.123025,49.8783103 C242.190289,50.4264836 241.800435,50.9253941 241.252261,50.992658 L204.042269,55.5585334 L167.739862,79.2101305 C167.642072,79.2738422 167.533884,79.3199429 167.420196,79.3463452 L130.903705,87.8267404 Z M166.967767,77.3981902 L166.6481,77.534405 L166.795918,77.4380995 L166.967767,77.3981902 Z M92.8652297,112.808278 L92.3762387,112.9912 L92.5960015,112.833623 L92.8652297,112.808278 Z" id="Shape" fill="#2A3052" fill-rule="nonzero"></path>
            <g id="Group" transform="translate(231.250000, 41.000000)">
                <g id="Oval" opacity="0.6" fill="#FFFFFF">
                    <ellipse cx="8.5125" cy="9.225" rx="8.1375" ry="8.475"></ellipse>
                </g>
                <path d="M8.5125,18.02305 C3.83686418,18.02305 0.05195,14.0811578 0.05195,9.225 C0.05195,4.36884218 3.83686418,0.42695 8.5125,0.42695 C13.1881358,0.42695 16.97305,4.36884218 16.97305,9.225 C16.97305,14.0811578 13.1881358,18.02305 8.5125,18.02305 Z M8.5125,17.37695 C12.8252985,17.37695 16.32695,13.7300687 16.32695,9.225 C16.32695,4.71993131 12.8252985,1.07305 8.5125,1.07305 C4.19970152,1.07305 0.69805,4.71993131 0.69805,9.225 C0.69805,13.7300687 4.19970152,17.37695 8.5125,17.37695 Z" id="Oval" fill="#E88024" fill-rule="nonzero"></path>
            </g>
            <g id="Group" transform="translate(83.000000, 104.250000)">
                <g id="Oval" opacity="0.6" transform="translate(1.000000, 0.000000)" fill="#FFFFFF">
                    <ellipse cx="8.1375" cy="8.475" rx="8.1375" ry="8.475"></ellipse>
                </g>
                <path d="M9.1375,18.27305 C4.46186418,18.27305 0.67695,14.3311578 0.67695,9.475 C0.67695,4.61884218 4.46186418,0.67695 9.1375,0.67695 C13.8131358,0.67695 17.59805,4.61884218 17.59805,9.475 C17.59805,14.3311578 13.8131358,18.27305 9.1375,18.27305 Z M9.1375,17.62695 C13.4502985,17.62695 16.95195,13.9800687 16.95195,9.475 C16.95195,4.96993131 13.4502985,1.32305 9.1375,1.32305 C4.82470152,1.32305 1.32305,4.96993131 1.32305,9.475 C1.32305,13.9800687 4.82470152,17.62695 9.1375,17.62695 Z" id="Oval" fill="#E88024" fill-rule="nonzero"></path>
            </g>
            <path d="M17.2045898,12.940918 L17.2045898,15.8413086 L19.7607421,15.8413086 C20.2685572,15.8413086 20.6494127,15.7827154 20.9033203,15.6655273 C21.3525413,15.4604482 21.5771484,15.0551788 21.5771484,14.449707 C21.5771484,13.7954069 21.3598654,13.3559581 20.9252929,13.1313476 C20.6811511,13.0043939 20.3149438,12.940918 19.8266601,12.940918 L17.2045898,12.940918 Z M20.2954101,11.065918 C21.0522498,11.0805665 21.6345194,11.173339 22.0422363,11.3442383 C22.4499532,11.5151376 22.7954087,11.7665999 23.0786132,12.0986328 C23.3129894,12.3720717 23.4985344,12.674803 23.6352539,13.0068359 C23.7719733,13.3388688 23.840332,13.717283 23.840332,14.1420898 C23.840332,14.6547877 23.7109388,15.1589331 23.4521484,15.654541 C23.193358,16.150149 22.7661162,16.5004872 22.1704101,16.7055664 C22.6684595,16.9057627 23.0212392,17.1901837 23.2287597,17.5588379 C23.4362803,17.9274921 23.540039,18.4902306 23.540039,19.2470703 L23.540039,19.972168 C23.540039,20.4653345 23.5595701,20.7998038 23.5986328,20.9755859 C23.6572268,21.2539076 23.7939442,21.4589837 24.008789,21.5908203 L24.008789,21.8618164 L21.5258789,21.8618164 C21.4575191,21.6225574 21.4086915,21.4296882 21.3793945,21.2832031 C21.3208004,20.9804672 21.2890625,20.6704117 21.2841796,20.3530273 L21.2695312,19.3496094 C21.2597655,18.6611294 21.1340344,18.2021496 20.8923339,17.9726562 C20.6506335,17.7431629 20.1977572,17.628418 19.5336914,17.628418 L17.2045898,17.628418 L17.2045898,21.8618164 L15,21.8618164 L15,11.065918 L20.2954101,11.065918 Z M26.9928711,13.878418 L26.9928711,18.6904297 C26.9928711,19.1445335 27.0465815,19.486327 27.1540039,19.7158203 C27.3444345,20.1210958 27.7179659,20.3237305 28.2746093,20.3237305 C28.9875035,20.3237305 29.4757799,20.0356474 29.7394531,19.4594726 C29.8761725,19.1469711 29.9445312,18.7343776 29.9445312,18.2216797 L29.9445312,13.878418 L32.0612304,13.878418 L32.0612304,21.8618164 L30.0324218,21.8618164 L30.0324218,20.7338867 C30.0128905,20.7583009 29.9640629,20.8315424 29.8859375,20.9536133 C29.8078121,21.0756842 29.7150396,21.183105 29.6076172,21.2758789 C29.2804671,21.5688491 28.9643081,21.7690424 28.6591308,21.8764648 C28.3539535,21.9838872 27.9962911,22.0375976 27.5861328,22.0375976 C26.4044862,22.0375976 25.6085958,21.6127972 25.1984375,20.7631836 C24.9689441,20.2944312 24.8541992,19.6035202 24.8541992,18.6904297 L24.8541992,13.878418 L26.9928711,13.878418 Z M37.7992187,13.6879883 C38.6244182,13.6879883 39.2994602,13.9040506 39.8243652,14.3361816 C40.3492702,14.7683127 40.6117187,15.4848583 40.6117187,16.4858398 L40.6117187,21.8618164 L38.4730469,21.8618164 L38.4730469,17.0058594 C38.4730469,16.5859354 38.4168951,16.263673 38.3045898,16.0390625 C38.0995107,15.6289042 37.7088896,15.4238281 37.1327148,15.4238281 C36.4247035,15.4238281 35.9388685,15.7241181 35.6751953,16.324707 C35.5384759,16.6420914 35.4701172,17.0473608 35.4701172,17.5405273 L35.4701172,21.8618164 L33.390039,21.8618164 L33.390039,13.8930664 L35.4041992,13.8930664 L35.4041992,15.0576172 C35.6727552,14.6474589 35.9266589,14.3520517 36.1659179,14.1713867 C36.5956076,13.8491195 37.1400357,13.6879883 37.7992187,13.6879883 Z M45.9917969,21.8618164 L45.9917969,11.065918 L48.2256836,11.065918 L48.2256836,15.1821289 L52.4444336,15.1821289 L52.4444336,11.065918 L54.6856445,11.065918 L54.6856445,21.8618164 L52.4444336,21.8618164 L52.4444336,17.0424805 L48.2256836,17.0424805 L48.2256836,21.8618164 L45.9917969,21.8618164 Z M58.1165039,12.9262695 L55.9998047,12.9262695 L55.9998047,11 L58.1165039,11 L58.1165039,12.9262695 Z M55.9998047,13.878418 L58.1165039,13.878418 L58.1165039,21.8618164 L55.9998047,21.8618164 L55.9998047,13.878418 Z M62.8657227,20.1479492 C63.3540064,20.1479492 63.7665999,19.9636249 64.1035156,19.5949707 C64.4404314,19.2263165 64.6088867,18.6391642 64.6088867,17.8334961 C64.6088867,17.0766564 64.4489762,16.5004903 64.1291504,16.1049805 C63.8093246,15.7094707 63.3808621,15.5117187 62.84375,15.5117187 C62.1113245,15.5117187 61.6059584,15.8559536 61.3276367,16.5444336 C61.1811516,16.9106464 61.1079102,17.362302 61.1079102,17.8994141 C61.1079102,18.3632836 61.1860344,18.7758771 61.3422852,19.137207 C61.6254897,19.8110385 62.1332971,20.1479492 62.8657227,20.1479492 Z M62.3457031,13.6879883 C62.7460958,13.6879883 63.0952134,13.7490228 63.3930664,13.8710937 C63.9008815,14.0810557 64.3110336,14.4667941 64.6235352,15.0283203 L64.6235352,13.878418 L66.6523438,13.878418 L66.6523438,21.4516602 C66.6523438,22.4819387 66.4790057,23.2582982 66.1323242,23.7807617 C65.5366181,24.6792037 64.3940514,25.128418 62.7045899,25.128418 C61.6840769,25.128418 60.8515657,24.9282247 60.2070313,24.527832 C59.5624968,24.1274394 59.206055,23.5293008 59.1376953,22.7333984 L61.4082031,22.7333984 C61.4667972,22.9775403 61.5620111,23.1533198 61.6938477,23.2607422 C61.9184582,23.4511728 62.2968724,23.5463867 62.8291016,23.5463867 C63.5810585,23.5463867 64.0839831,23.2949244 64.3378906,22.7919922 C64.5039071,22.4697249 64.5869141,21.9277382 64.5869141,21.1660156 L64.5869141,20.6533203 C64.3867178,20.9951189 64.1718762,21.251464 63.9423828,21.4223633 C63.5273417,21.7397477 62.9877963,21.8984375 62.3237305,21.8984375 C61.2983347,21.8984375 60.4792511,21.5383337 59.8664551,20.8181152 C59.2536591,20.0978968 58.9472656,19.1225647 58.9472656,17.8920898 C58.9472656,16.7055605 59.2426728,15.708256 59.8334961,14.9001465 C60.4243194,14.092037 61.2617133,13.6879883 62.3457031,13.6879883 Z M72.3024414,13.6733398 C72.795608,13.6733398 73.2436015,13.7587882 73.6464356,13.9296875 C74.0492696,14.1005868 74.3800769,14.3618146 74.6388672,14.7133789 C74.8585949,15.011232 74.9928709,15.3176254 75.0416992,15.6325684 C75.0905276,15.9475113 75.1149414,16.4614222 75.1149414,17.1743164 L75.1149414,21.8618164 L72.9835938,21.8618164 L72.9835938,17.0058594 C72.9835938,16.5761697 72.9103523,16.2294935 72.7638672,15.9658203 C72.5734366,15.5947247 72.2121121,15.4091797 71.6798828,15.4091797 C71.1281223,15.4091797 70.7094253,15.593504 70.4237793,15.9621582 C70.1381334,16.3308124 69.9953125,16.8569302 69.9953125,17.5405273 L69.9953125,21.8618164 L67.9152344,21.8618164 L67.9152344,11.1025391 L69.9953125,11.1025391 L69.9953125,14.918457 C70.2980484,14.4545875 70.6483867,14.1311044 71.0463379,13.947998 C71.4442891,13.7648917 71.8629861,13.6733398 72.3024414,13.6733398 Z" id="RunHigh" fill="#000000" fill-rule="nonzero"></path>
        </g>
    </g>
</svg>