<svg width="299" height="197" xmlns="http://www.w3.org/2000/svg"><g fill="none" fill-rule="evenodd"><path fill="#F1F2F2" d="M0 0h299v197H0z"/><path d="M1.987 1.98v193.04h295.026V1.98H1.987zM299 0v197H0V0h299z" fill="#C2C2C2" fill-rule="nonzero"/><path d="M2.926 55.113V53.89H296.51v1.223H2.926zm0 20.598v-1.223H296.51v1.223H2.926zm0 20.56v-1.224H296.51v1.224H2.926zm0 41.157v-1.223H296.51v1.223H2.926zm0 20.56v-1.223H296.51v1.223H2.926zm0 20.56v-1.223H296.51v1.223H2.926zM37.772 33.942h1.223v162.126h-1.223V33.942zm37.162 0h1.223v162.126h-1.223V33.942zm37.124 0h1.223v162.126h-1.223V33.942zm37.162 0h1.223v162.126h-1.223V33.942zm37.124 0h1.223v162.126h-1.223V33.942zm37.124 0h1.224v162.126h-1.224V33.942zm37.162 0h1.224v162.126h-1.224V33.942z" fill="#DFDEDE" fill-rule="nonzero"/><path fill="#C2C2C2" fill-rule="nonzero" d="M.805 33.951v-2.447H298.63v2.447z"/><path d="M125.444 80.798l-37.362-26.79a1 1 0 0 0-.49-.182l-34.958-3.291a1 1 0 1 0-.188 1.99l34.69 3.266L124.44 82.54a1 1 0 0 0 .357.161l36.539 8.486 36.349 23.682a1 1 0 0 0 .424.154l37.44 4.595a1 1 0 1 0 .243-1.986l-37.21-4.565-36.302-23.652a1 1 0 0 0-.32-.136l-36.516-8.48zm36.064 10.429l-.32-.136.148.096.172.04zm-74.103-35.41l-.489-.183.22.157.27.026z" fill="#2A3052" fill-rule="nonzero"/><g fill="#2A3052"><path d="M42.737 66.075c0-.487-.187-.862-.525-1.2-.337-.3-.975-.6-1.875-.787-1.087-.263-1.95-.638-2.55-1.163-.6-.525-.9-1.162-.9-1.912 0-.825.338-1.5.976-2.025.637-.563 1.5-.825 2.55-.825 1.125 0 2.025.3 2.7.937.675.637.975 1.35.975 2.175v.038h-1.35c0-.6-.188-1.088-.6-1.463-.413-.375-.975-.563-1.725-.563-.675 0-1.238.15-1.575.488-.376.3-.563.712-.563 1.238 0 .45.188.824.6 1.124.413.3 1.05.563 1.95.788 1.087.263 1.912.675 2.475 1.2.563.525.863 1.2.863 1.95 0 .825-.338 1.5-1.013 2.025-.675.525-1.575.75-2.662.75-1.013 0-1.95-.3-2.738-.862-.787-.563-1.162-1.313-1.162-2.25V65.7H37.9c0 .675.225 1.163.713 1.538.487.375 1.087.525 1.8.525.712 0 1.237-.15 1.65-.45.487-.3.674-.713.674-1.238zm4.988-6.937v1.875h1.463v1.05h-1.463v4.687c0 .375.075.6.225.75.15.15.338.225.6.225.075 0 .15 0 .263-.037.112 0 .187-.038.262-.076l.188.976c-.113.074-.263.15-.45.224a3.282 3.282 0 0 1-.6.075c-.563 0-1.013-.187-1.35-.525-.338-.337-.488-.9-.488-1.612v-4.688h-1.238v-1.05h1.2v-1.875h1.388z"/><path d="M55.6 68.7c-.038-.225-.075-.45-.113-.637-.037-.188-.037-.338-.037-.526-.263.375-.6.675-1.013.938a2.448 2.448 0 0 1-1.35.375c-.787 0-1.387-.188-1.8-.637-.412-.413-.637-.976-.637-1.688 0-.75.3-1.313.9-1.725.6-.412 1.388-.638 2.4-.638h1.5v-.75c0-.45-.15-.825-.412-1.087-.263-.263-.675-.413-1.163-.413-.45 0-.825.113-1.087.338-.263.225-.413.525-.413.825h-1.312v-.038c-.038-.562.225-1.087.787-1.537.563-.45 1.275-.713 2.138-.713.862 0 1.575.225 2.1.675.525.45.787 1.088.787 1.913v3.712c0 .263 0 .525.038.788.037.262.075.525.15.75H55.6v.075zm-2.325-1.012c.488 0 .975-.113 1.35-.376.413-.262.675-.562.788-.9v-1.237h-1.538c-.563 0-1.012.15-1.35.413a1.258 1.258 0 0 0-.487 1.012c0 .338.112.6.3.825.224.15.524.262.937.262z" fill-rule="nonzero"/><path d="M62.462 62.212l-.712-.037c-.375 0-.675.075-.938.263-.262.187-.45.412-.6.75V68.7h-1.387v-7.725h1.238l.15 1.125a2.83 2.83 0 0 1 .787-.937c.3-.225.675-.338 1.087-.338.113 0 .188 0 .3.037.076 0 .188.038.226.038l-.15 1.313zm3.301-3.074v1.875h1.462v1.05h-1.462v4.687c0 .375.074.6.224.75.15.15.338.225.6.225.076 0 .15 0 .263-.037a.542.542 0 0 0 .263-.076l.187.976c-.112.074-.262.15-.45.224a3.282 3.282 0 0 1-.6.075c-.563 0-1.012-.187-1.35-.525-.337-.337-.487-.9-.487-1.612v-4.688h-1.2v-1.05h1.2v-1.875h1.35z"/></g><g fill="#2A3052"><path d="M252.537 120.5h-4.687v3.713h5.438v1.087h-6.826v-10.387h6.75V116h-5.362v3.375h4.688zm3.338-2.925l.113 1.162a2.8 2.8 0 0 1 .937-.937c.375-.225.825-.337 1.313-.337.825 0 1.462.224 1.912.75.45.487.675 1.237.675 2.25v4.874h-1.387V120.5c0-.675-.15-1.163-.413-1.463-.262-.3-.675-.412-1.2-.412-.412 0-.75.112-1.05.3-.3.187-.562.45-.75.787v5.625h-1.387v-7.725l1.237-.037z"/><path d="M262.512 121.588c0-1.238.263-2.25.788-3s1.275-1.125 2.212-1.125c.45 0 .863.075 1.2.262.338.15.638.413.9.713V114.2H269v11.138h-1.125l-.15-.938a2.66 2.66 0 0 1-.9.825c-.375.188-.787.263-1.275.263-.938 0-1.65-.338-2.175-1.013-.525-.675-.788-1.575-.788-2.7v-.187h-.075zm1.388.15c0 .787.15 1.425.488 1.875.337.45.787.712 1.462.712.412 0 .75-.112 1.05-.3.3-.187.525-.45.675-.787v-3.6a1.963 1.963 0 0 0-.712-.75c-.3-.188-.638-.3-1.013-.3-.675 0-1.163.262-1.463.825-.3.562-.487 1.275-.487 2.175v.15z" fill-rule="nonzero"/></g><path d="M190.262 150.563h-35.1l-5.4-8.213-5.4 8.213h-35.1c-2.624 0-4.725 2.137-4.725 4.8v24.787c0 2.662 2.138 4.8 4.725 4.8h81c2.625 0 4.726-2.137 4.726-4.8v-24.787c0-2.663-2.138-4.8-4.726-4.8z" fill="#E88024"/><g fill="#FFF"><path d="M141.775 171.45h.075l2.175-10.537h2.963l-3.525 15.337h-2.813l-2.775-10.125h-.075l-2.775 10.125h-2.813l-3.562-15.338h2.962l2.176 10.5h.075l2.85-10.537h2.25z"/><path d="M151.637 162.15H148.6v-2.325h3.037v2.325zm0 14.138H148.6v-11.4h3.037v11.4z" fill-rule="nonzero"/><path d="M156.887 164.887l.15 1.65c.375-.6.825-1.05 1.388-1.35.562-.337 1.162-.487 1.837-.487 1.125 0 2.025.375 2.663 1.087.637.713.975 1.875.975 3.413v7.125h-3.038V169.2c0-.787-.15-1.313-.45-1.65-.3-.338-.75-.488-1.387-.488-.413 0-.75.075-1.088.263-.337.15-.6.412-.787.712v8.288h-3.038v-11.4l2.775-.038z"/><path d="M169.45 171h-3.038v-10.05h3.038V171zm0 5.288h-3.038v-2.7h3.038v2.7z" fill-rule="nonzero"/></g><ellipse cx="8.512" cy="9.225" rx="8.137" ry="8.475" opacity=".6" fill="#FFF" transform="translate(226.75 109.75)"/><path d="M235.262 127.773c-4.675 0-8.46-3.942-8.46-8.798s3.785-8.798 8.46-8.798c4.676 0 8.461 3.942 8.461 8.798s-3.785 8.798-8.46 8.798zm0-.646c4.313 0 7.815-3.647 7.815-8.152 0-4.505-3.502-8.152-7.815-8.152-4.312 0-7.814 3.647-7.814 8.152 0 4.505 3.502 8.152 7.814 8.152z" fill="#E88024" fill-rule="nonzero"/><ellipse cx="8.137" cy="8.475" rx="8.137" ry="8.475" opacity=".6" fill="#FFF" transform="translate(79.5 47)"/><path d="M87.638 64.273c-4.676 0-8.461-3.942-8.461-8.798s3.785-8.798 8.46-8.798c4.676 0 8.461 3.942 8.461 8.798s-3.785 8.798-8.46 8.798zm0-.646c4.312 0 7.814-3.647 7.814-8.152 0-4.505-3.502-8.152-7.814-8.152-4.313 0-7.815 3.647-7.815 8.152 0 4.505 3.502 8.152 7.815 8.152z" fill="#E88024" fill-rule="nonzero"/><path fill="#2A3052" fill-rule="nonzero" d="M5 137v-1h289.284v1z"/><path d="M17.205 12.875v2.9h2.556c.508 0 .888-.058 1.142-.175.45-.205.674-.61.674-1.216 0-.655-.217-1.094-.652-1.319-.244-.127-.61-.19-1.098-.19h-2.622zM20.295 11c.757.015 1.34.107 1.747.278.408.171.753.423 1.037.755.234.273.42.576.556.908.137.332.205.71.205 1.135 0 .513-.13 1.017-.388 1.513-.259.495-.686.846-1.282 1.05.498.2.851.485 1.059.854.207.369.311.931.311 1.688v.725c0 .493.02.828.059 1.004.058.278.195.483.41.615v.27h-2.483a7.745 7.745 0 0 1-.147-.578 5.316 5.316 0 0 1-.095-.93l-.014-1.003c-.01-.689-.136-1.148-.378-1.377-.241-.23-.694-.345-1.358-.345h-2.33v4.234H15V11h5.295zm6.698 2.813v4.812c0 .454.054.795.161 1.025.19.405.564.608 1.12.608.714 0 1.202-.288 1.465-.864.137-.313.206-.726.206-1.238v-4.343h2.116v7.983h-2.029v-1.128c-.02.024-.068.098-.146.22a1.47 1.47 0 0 1-.278.322c-.328.293-.644.493-.949.6a3.232 3.232 0 0 1-1.073.162c-1.182 0-1.977-.425-2.388-1.275-.23-.468-.344-1.16-.344-2.072v-4.813h2.139zm10.806-.19c.825 0 1.5.215 2.025.647.525.432.788 1.149.788 2.15v5.376h-2.139V16.94c0-.42-.056-.742-.168-.967-.205-.41-.596-.615-1.172-.615-.708 0-1.194.3-1.458.9-.137.318-.205.723-.205 1.217v4.32h-2.08v-7.968h2.014v1.165c.269-.41.523-.706.762-.887.43-.322.974-.483 1.633-.483zM46.006 11h2.256v8.855h5.347v1.94h-7.603V11zm11.876 9.324c.61 0 1.08-.218 1.406-.652.328-.435.491-1.052.491-1.853 0-.8-.163-1.417-.49-1.85-.328-.432-.797-.648-1.407-.648s-1.08.216-1.41.648c-.33.433-.494 1.05-.494 1.85s.165 1.418.494 1.853c.33.434.8.652 1.41.652zm4.087-2.505c0 1.172-.337 2.174-1.01 3.006-.675.833-1.697 1.25-3.07 1.25-1.372 0-2.395-.417-3.068-1.25-.674-.832-1.011-1.834-1.011-3.006 0-1.153.337-2.151 1.01-2.996.674-.844 1.697-1.267 3.07-1.267 1.372 0 2.394.423 3.068 1.267.674.845 1.011 1.843 1.011 2.996zm4.559-4.006h2.117l1.215 5.749 1.245-5.75h2.176l-2.315 7.984H68.82l-1.252-5.816-1.267 5.816h-2.168l-2.241-7.983h2.24l1.246 5.727 1.15-5.727z" fill="#000" fill-rule="nonzero"/></g></svg>