<svg width="295" height="195" xmlns="http://www.w3.org/2000/svg"><g fill="none" fill-rule="evenodd"><path stroke="#C2C2C2" stroke-width="2" fill="#F1F2F2" fill-rule="nonzero" d="M1 1h293v193H1z"/><path d="M2.937 54.75H292.22M2.937 74.75H292.22M2.937 94.75H292.22M2.937 134.75H292.22M2.937 154.75H292.22M2.937 174.75H292.22M37.75 34.996v157.36M73.75 34.996v157.36M110.75 34.996v157.36M146.75 34.996v157.36M183.75 34.996v157.36M220.75 34.996v157.36M256.75 34.996v157.36" stroke="#DFDEDE"/><path d="M2.937 129.75H292.22" stroke="#2A3052" stroke-linejoin="round"/><path d="M0 32h295" stroke="#C2C2C2" stroke-width="2"/><path d="M18.398 13.08v2.9h2.557c.507 0 .888-.06 1.142-.176.45-.205.674-.61.674-1.216 0-.654-.217-1.094-.652-1.318-.244-.127-.61-.19-1.098-.19h-2.623zm3.091-1.876c.757.015 1.34.108 1.747.278.408.171.753.423 1.036.755.235.273.42.576.557.908.137.332.205.71.205 1.135 0 .513-.13 1.017-.388 1.513-.259.495-.686.846-1.282 1.05.498.2.851.485 1.059.854.207.369.31.931.31 1.688v.725c0 .494.02.828.06 1.004.058.278.195.483.41.615V22H22.72a7.745 7.745 0 0 1-.147-.579 5.316 5.316 0 0 1-.095-.93l-.015-1.003c-.01-.689-.135-1.148-.377-1.377-.242-.23-.694-.344-1.358-.344h-2.33V22h-2.204V11.204h5.295zm6.698 2.813v4.812c0 .454.053.796.16 1.025.191.405.565.608 1.121.608.713 0 1.202-.288 1.465-.864.137-.313.205-.725.205-1.238v-4.343h2.117V22h-2.029v-1.128c-.02.024-.068.098-.146.22a1.47 1.47 0 0 1-.279.322c-.327.293-.643.493-.948.6a3.232 3.232 0 0 1-1.073.162c-1.182 0-1.978-.425-2.388-1.275-.23-.468-.344-1.16-.344-2.072v-4.812h2.139zm10.806-.19c.825 0 1.5.215 2.025.647.525.432.788 1.149.788 2.15V22h-2.14v-4.856c0-.42-.055-.742-.168-.967-.205-.41-.595-.615-1.171-.615-.708 0-1.194.3-1.458.9-.137.318-.205.724-.205 1.217V22h-2.08v-7.969h2.014v1.165c.269-.41.523-.706.762-.886.43-.323.974-.484 1.633-.484zM43.186 22V11.204h2.234v4.116h4.218v-4.116h2.241V22h-2.24v-4.82h-4.22V22h-2.233zm12.124-8.936h-2.116v-1.926h2.116v1.926zm-2.116.953h2.116V22h-2.116v-7.983zm6.866 6.27c.488 0 .9-.185 1.237-.554.337-.368.506-.956.506-1.761 0-.757-.16-1.333-.48-1.729-.32-.395-.748-.593-1.285-.593-.733 0-1.238.344-1.517 1.033-.146.366-.22.817-.22 1.355 0 .463.079.876.235 1.237.283.674.791 1.011 1.524 1.011zm-.52-6.46c.4 0 .75.06 1.047.182.508.21.918.596 1.23 1.158v-1.15h2.03v7.573c0 1.03-.174 1.806-.52 2.329-.597.898-1.74 1.348-3.429 1.348-1.02 0-1.853-.2-2.497-.601-.645-.4-1.001-.999-1.07-1.794h2.271c.059.244.154.42.286.527.224.19.603.286 1.135.286.752 0 1.255-.252 1.509-.755.166-.322.249-.864.249-1.626v-.512c-.2.341-.415.598-.645.769-.415.317-.954.476-1.618.476-1.026 0-1.845-.36-2.458-1.08-.612-.72-.919-1.696-.919-2.927 0-1.186.296-2.184.886-2.992.591-.808 1.429-1.212 2.513-1.212zm9.956-.015c.493 0 .941.085 1.344.256.403.17.734.432.993.784.22.297.354.604.403.919.048.315.073.829.073 1.541V22h-2.132v-4.856c0-.43-.073-.776-.22-1.04-.19-.371-.551-.557-1.083-.557-.552 0-.97.185-1.256.553-.286.369-.429.895-.429 1.579V22h-2.08V11.24h2.08v3.817c.303-.464.653-.788 1.051-.97a2.97 2.97 0 0 1 1.256-.275z" fill="#000"/><path stroke="#2A3052" stroke-width="2" stroke-linecap="round" stroke-linejoin="round" d="M49.04 114.375l34.959-3.291 37.524-26.906 36.71-8.526 36.497-23.778 37.44-4.594"/><g fill="#2A3052" fill-rule="nonzero"><path d="M37.237 104.825c0-.487-.187-.862-.525-1.2-.337-.3-.975-.6-1.875-.787-1.087-.263-1.95-.638-2.55-1.163-.6-.525-.9-1.162-.9-1.912 0-.825.338-1.5.976-2.025.637-.563 1.5-.825 2.55-.825 1.125 0 2.025.3 2.7.937.675.638.975 1.35.975 2.175v.038h-1.35c0-.6-.188-1.088-.6-1.463-.413-.375-.975-.563-1.725-.563-.675 0-1.238.15-1.575.488-.376.3-.563.712-.563 1.237 0 .45.188.825.6 1.125.413.3 1.05.563 1.95.788 1.087.262 1.912.675 2.475 1.2.563.525.863 1.2.863 1.95 0 .825-.338 1.5-1.013 2.025-.675.525-1.575.75-2.662.75-1.013 0-1.95-.3-2.738-.862-.787-.563-1.162-1.313-1.162-2.25v-.038H32.4c0 .675.225 1.163.713 1.538.487.374 1.087.524 1.8.524.712 0 1.237-.15 1.65-.45.487-.3.674-.712.674-1.237zM42.225 97.888v1.874h1.463v1.05h-1.463v4.688c0 .375.075.6.225.75.15.15.338.225.6.225.075 0 .15 0 .263-.037.112 0 .187-.038.262-.076l.188.976c-.113.074-.263.15-.45.224a3.282 3.282 0 0 1-.6.075c-.563 0-1.013-.187-1.35-.525-.338-.337-.488-.9-.488-1.612v-4.688h-1.238v-1.05h1.2v-1.875h1.388zM50.1 107.45c-.038-.225-.075-.45-.113-.637-.037-.188-.037-.338-.037-.526-.263.375-.6.675-1.013.938a2.448 2.448 0 0 1-1.35.375c-.787 0-1.387-.188-1.8-.637-.412-.413-.637-.976-.637-1.688 0-.75.3-1.313.9-1.725.6-.412 1.388-.638 2.4-.638h1.5v-.75c0-.45-.15-.825-.412-1.087-.263-.263-.675-.413-1.163-.413-.45 0-.825.113-1.087.338-.263.225-.413.525-.413.825h-1.312v-.038c-.038-.562.225-1.087.787-1.537.563-.45 1.275-.712 2.138-.712.862 0 1.575.225 2.1.675.525.45.787 1.087.787 1.912v3.713c0 .262 0 .525.038.787.037.262.075.525.15.75H50.1v.075zm-2.325-1.012c.488 0 .975-.113 1.35-.376.413-.262.675-.562.788-.9v-1.237h-1.538c-.563 0-1.012.15-1.35.413a1.258 1.258 0 0 0-.487 1.012c0 .338.112.6.3.825.224.15.524.262.937.262zM56.962 100.963l-.712-.038c-.375 0-.675.075-.938.263-.262.187-.45.412-.6.75v5.512h-1.387v-7.725h1.238l.15 1.125a2.83 2.83 0 0 1 .787-.937c.3-.225.675-.338 1.087-.338.113 0 .188 0 .3.038.076 0 .188.037.226.037l-.15 1.313zM60.263 97.888v1.874h1.462v1.05h-1.462v4.688c0 .375.075.6.225.75.15.15.337.225.6.225.075 0 .15 0 .262-.037a.542.542 0 0 0 .263-.076l.187.976c-.112.074-.262.15-.45.224a3.282 3.282 0 0 1-.6.075c-.562 0-1.012-.187-1.35-.525-.337-.337-.487-.9-.487-1.612v-4.688h-1.2v-1.05h1.2v-1.875h1.35z"/></g><g fill="#2A3052" fill-rule="nonzero"><path d="M251.037 50.25h-4.687v3.713h5.438v1.087h-6.826V44.662h6.75v1.088h-5.362v3.375h4.688zM254.375 47.325l.113 1.162a2.8 2.8 0 0 1 .937-.937c.375-.225.825-.337 1.313-.337.825 0 1.462.225 1.912.75.45.487.675 1.237.675 2.25v4.875h-1.387V50.25c0-.675-.15-1.162-.413-1.462-.262-.3-.675-.413-1.2-.413-.412 0-.75.113-1.05.3-.3.188-.562.45-.75.788v5.625h-1.387v-7.725l1.237-.038zM261.012 51.337c0-1.237.263-2.25.788-3s1.275-1.125 2.212-1.125c.45 0 .863.075 1.2.263.338.15.638.412.9.712V43.95h1.388v11.137h-1.125l-.15-.937a2.66 2.66 0 0 1-.9.825c-.375.187-.787.262-1.275.262-.938 0-1.65-.337-2.175-1.012-.525-.675-.788-1.575-.788-2.7v-.188h-.075zm1.388.15c0 .788.15 1.425.488 1.875.337.45.787.713 1.462.713.412 0 .75-.113 1.05-.3.3-.188.525-.45.675-.787v-3.6a1.963 1.963 0 0 0-.712-.75c-.3-.188-.638-.3-1.013-.3-.675 0-1.163.262-1.463.824-.3.563-.487 1.275-.487 2.175v.15z"/></g><path d="M186.762 146.313h-35.1l-5.4-8.213-5.4 8.213h-35.1c-2.624 0-4.725 2.137-4.725 4.8V175.9c0 2.662 2.138 4.8 4.725 4.8h81c2.625 0 4.726-2.137 4.726-4.8v-24.787c0-2.663-2.138-4.8-4.726-4.8z" fill="#E88024" fill-rule="nonzero"/><g fill="#FFF" fill-rule="nonzero"><path d="M138.275 167.2h.075l2.175-10.537h2.963L139.963 172h-2.813l-2.775-10.125h-.075L131.525 172h-2.813l-3.562-15.338h2.962l2.176 10.5h.075l2.85-10.537h2.25zM148.137 157.9H145.1v-2.325h3.037v2.325zm0 14.138H145.1v-11.4h3.037v11.4zM153.387 160.637l.15 1.65c.375-.6.825-1.05 1.388-1.35.562-.337 1.162-.487 1.837-.487 1.125 0 2.025.375 2.663 1.087.637.713.975 1.875.975 3.413v7.125h-3.038v-7.125c0-.787-.15-1.313-.45-1.65-.3-.338-.75-.488-1.387-.488-.413 0-.75.075-1.088.263-.337.15-.6.412-.787.712v8.288h-3.038v-11.4l2.775-.038zM165.95 166.75h-3.038V156.7h3.038v10.05zm0 5.288h-3.038v-2.7h3.038v2.7z"/></g><g transform="translate(223.25 38.5)"><ellipse cx="8.512" cy="9.225" rx="8.137" ry="8.475" opacity=".6" fill="#FFF" fill-rule="nonzero"/><ellipse stroke="#E88024" stroke-width=".646" cx="8.512" cy="9.225" rx="8.137" ry="8.475"/></g><g transform="translate(76 101.75)"><ellipse cx="8.137" cy="8.475" rx="8.137" ry="8.475" opacity=".6" fill="#FFF" fill-rule="nonzero"/><ellipse stroke="#E88024" stroke-width=".646" cx="8.137" cy="8.475" rx="8.137" ry="8.475"/></g></g></svg>