<?xml version="1.0" encoding="UTF-8"?>
<svg width="299px" height="197px" viewBox="0 0 299 197" version="1.1" xmlns="http://www.w3.org/2000/svg" xmlns:xlink="http://www.w3.org/1999/xlink">
    <!-- Generator: Sketch 52.5 (67469) - http://www.bohemiancoding.com/sketch -->
    <title>stays between</title>
    <desc>Created with Sketch.</desc>
    <g id="Page-1" stroke="none" stroke-width="1" fill="none" fill-rule="evenodd">
        <g id="stays-between">
            <polygon id="Path" fill="#F1F2F2" points="0 0 299 0 299 197 0 197"></polygon>
            <path d="M1.98671096,1.9798995 L1.98671096,195.020101 L297.013289,195.020101 L297.013289,1.9798995 L1.98671096,1.9798995 Z M299,0 L299,197 L0,197 L0,0 L299,0 Z" id="Path" fill="#C2C2C2" fill-rule="nonzero"></path>
            <g id="Group-5" transform="translate(2.000000, 13.000000)">
                <path d="M2.887,43.4456836 L2.887,42.2388448 L292.54325,42.2388448 L292.54325,43.4456836 L2.887,43.4456836 Z M2.887,83.9796458 L2.887,82.772807 L292.54325,82.772807 L292.54325,83.9796458 L2.887,83.9796458 Z M2.887,124.513608 L2.887,123.30677 L292.54325,123.30677 L292.54325,124.513608 L2.887,124.513608 Z M2.887,165.010211 L2.887,163.803373 L292.54325,163.803373 L292.54325,165.010211 L2.887,165.010211 Z M37.2665806,22.5939623 L38.4734194,22.5939623 L38.4734194,182.264151 L37.2665806,182.264151 L37.2665806,22.5939623 Z M73.9314556,22.5939623 L75.1382944,22.5939623 L75.1382944,182.264151 L73.9314556,182.264151 L73.9314556,22.5939623 Z M110.558956,22.5939623 L111.765794,22.5939623 L111.765794,182.264151 L110.558956,182.264151 L110.558956,22.5939623 Z M147.223831,22.5939623 L148.430669,22.5939623 L148.430669,182.264151 L147.223831,182.264151 L147.223831,22.5939623 Z M183.851331,22.5939623 L185.058169,22.5939623 L185.058169,182.264151 L183.851331,182.264151 L183.851331,22.5939623 Z M220.478831,22.5939623 L221.685669,22.5939623 L221.685669,182.264151 L220.478831,182.264151 L220.478831,22.5939623 Z M2.887,104.227947 L2.887,103.021109 L292.54325,103.021109 L292.54325,104.227947 L2.887,104.227947 Z" id="Shape" fill="#DFDEDE" fill-rule="nonzero"></path>
                <path d="M257.143706,22.5939623 L258.350544,22.5939623 L258.350544,182.264151 L257.143706,182.264151 L257.143706,22.5939623 Z M2.887,63.7313439 L2.887,62.5245051 L292.54325,62.5245051 L292.54325,63.7313439 L2.887,63.7313439 Z M2.887,144.76191 L2.887,143.555072 L292.54325,143.555072 L292.54325,144.76191 L2.887,144.76191 Z" id="Shape" fill="#2A3052" fill-rule="nonzero"></path>
                <polygon id="Path" fill="#C2C2C2" fill-rule="nonzero" points="0.794 22.6055162 0.794 20.191465 294.63625 20.191465 294.63625 22.6055162"></polygon>
                <path d="M38.6640937,105.251527 C37.7655269,105.690093 36.6815667,105.317189 36.2430008,104.418622 C35.804435,103.520055 36.1773395,102.436095 37.0759063,101.997529 L78.5621563,81.7492272 C79.1166106,81.4786133 79.7707077,81.5089858 80.2976987,81.8298159 L118.670814,105.19122 L146.443626,77.7912015 C147.111703,77.1320922 148.172684,77.092765 148.887723,77.7006067 L184.536059,108.00462 L220.00967,81.9177058 C220.454127,81.5908567 221.023364,81.4845034 221.555852,81.6288248 L258.220727,91.5661833 C259.18579,91.8277464 259.75609,92.8221236 259.494527,93.7871868 C259.232963,94.7522501 258.238586,95.3225496 257.273523,95.0609865 L221.451401,85.3520412 L185.52733,111.770219 C184.85109,112.267519 183.921706,112.234764 183.282152,111.691091 L147.806069,81.5335072 L120.207874,108.761251 C119.616637,109.344552 118.704343,109.450754 117.994926,109.018863 L79.2605355,85.4375166 L38.6640937,105.251527 Z" id="Path" fill="#2A3052" fill-rule="nonzero"></path>
                <path d="M185.987125,134.445283 L151.0415,134.445283 L145.6595,126.263774 L140.2775,134.445283 L105.331875,134.445283 C104.07173,134.451176 102.865994,134.959272 101.98197,135.856931 C101.097947,136.754589 100.608676,137.967645 100.622625,139.22717 L100.622625,163.921132 C100.606032,166.539822 102.712091,168.678366 105.331875,168.703019 L186.0245,168.703019 C187.284645,168.697126 188.490381,168.18903 189.374405,167.291371 C190.258428,166.393713 190.747699,165.180657 190.73375,163.921132 L190.73375,139.22717 C190.73971,137.963586 190.242729,136.749496 189.352348,135.8525 C188.461966,134.955504 187.251275,134.449236 185.987125,134.445283 Z" id="Path" fill="#E88024"></path>
                <g id="Group" opacity="0.6" transform="translate(249.412500, 86.132075)" fill="#FFFFFF">
                    <ellipse id="Oval" cx="8.334625" cy="8.56377358" rx="8.110375" ry="8.44301887"></ellipse>
                </g>
                <path d="M257.747125,104.345894 C252.590171,104.345894 248.429724,100.014808 248.429724,94.6958491 C248.429724,89.37689 252.590171,85.0458046 257.747125,85.0458046 C262.904079,85.0458046 267.064526,89.37689 267.064526,94.6958491 C267.064526,100.014808 262.904079,104.345894 257.747125,104.345894 Z M257.747125,101.931842 C261.548644,101.931842 264.650474,98.7027911 264.650474,94.6958491 C264.650474,90.6889071 261.548644,87.4598559 257.747125,87.4598559 C253.945606,87.4598559 250.843776,90.6889071 250.843776,94.6958491 C250.843776,98.7027911 253.945606,101.931842 257.747125,101.931842 Z" id="Oval" fill="#E88024" fill-rule="nonzero"></path>
                <g id="Group" opacity="0.6" transform="translate(28.900000, 94.603774)" fill="#FFFFFF">
                    <ellipse id="Oval" cx="8.97" cy="9.0207547" rx="8.110375" ry="8.44301887"></ellipse>
                </g>
                <path d="M37.87,113.274572 C32.7130457,113.274572 28.5525994,108.943487 28.5525994,103.624528 C28.5525994,98.3055689 32.7130457,93.9744835 37.87,93.9744835 C43.0269543,93.9744835 47.1874006,98.3055689 47.1874006,103.624528 C47.1874006,108.943487 43.0269543,113.274572 37.87,113.274572 Z M37.87,110.860521 C41.6715185,110.860521 44.7733494,107.63147 44.7733494,103.624528 C44.7733494,99.617586 41.6715185,96.3885348 37.87,96.3885348 C34.0684815,96.3885348 30.9666506,99.617586 30.9666506,103.624528 C30.9666506,107.63147 34.0684815,110.860521 37.87,110.860521 Z" id="Oval" fill="#E88024" fill-rule="nonzero"></path>
                <path d="M30.133375,124.993585 C30.135553,124.539142 29.9455057,124.10494 29.610125,123.798113 C29.06053,123.388198 28.4189741,123.118863 27.741375,123.013585 C26.8143203,122.834448 25.9431834,122.437487 25.199875,121.855472 C24.6283696,121.388362 24.2986862,120.688094 24.302875,119.950189 C24.2928282,119.162724 24.6524976,118.416049 25.274625,117.93283 C25.9905491,117.353385 26.8963147,117.060473 27.816125,117.110943 C28.8011282,117.056206 29.7680152,117.391783 30.507125,118.044906 C31.1309201,118.591513 31.4856733,119.382536 31.478875,120.211698 L31.478875,120.249057 L30.096,120.249057 C30.1217551,119.698947 29.9028513,119.165604 29.498,118.792075 C29.0178447,118.392126 28.402478,118.191552 27.77875,118.231698 C27.2123578,118.184603 26.6497369,118.35867 26.209,118.717358 C25.8358722,119.015223 25.6275482,119.473333 25.648375,119.950189 C25.643431,120.401268 25.8688563,120.823754 26.246375,121.070943 C26.8405931,121.449374 27.4993904,121.71531 28.189875,121.855472 C29.1007684,122.036862 29.9500024,122.44843 30.656625,123.050943 C31.2060033,123.547201 31.5185161,124.253439 31.51625,124.993585 C31.5291002,125.790285 31.1524771,126.543199 30.507125,127.010943 C29.7313497,127.550217 28.7968168,127.813349 27.8535,127.758113 C26.8762261,127.765924 25.9214165,127.465226 25.125125,126.898868 C24.3789302,126.400614 23.9413116,125.553984 23.9665,124.657358 L23.9665,124.62 L25.274625,124.62 C25.2390217,125.217361 25.5057605,125.792701 25.98475,126.151698 C26.5064876,126.523567 27.1388155,126.707915 27.77875,126.674717 C28.3610629,126.707625 28.9382794,126.550272 29.42325,126.226415 C29.8838444,125.99285 30.1625427,125.509009 30.133375,124.993585 Z M35.10425,118.082264 L35.10425,119.950189 L36.561875,119.950189 L36.561875,120.996226 L35.10425,120.996226 L35.10425,125.666038 C35.0735476,125.935275 35.1545981,126.205324 35.3285,126.413208 C35.487292,126.568872 35.7044625,126.650275 35.9265,126.637358 C36.0152573,126.640946 36.1039231,126.628286 36.188125,126.6 C36.276687,126.5801 36.364038,126.555154 36.44975,126.525283 L36.636625,127.496604 C36.4950544,127.58622 36.3447922,127.661318 36.188125,127.720755 C35.9915173,127.764005 35.7913342,127.789017 35.590125,127.795472 C35.0888986,127.812637 34.6025598,127.623589 34.244625,127.272453 C33.8803151,126.820259 33.7060919,126.244236 33.75875,125.666038 L33.75875,120.996226 L32.525375,120.996226 L32.525375,119.950189 L33.721375,119.950189 L33.721375,118.082264 L35.10425,118.082264 Z M42.915625,127.608679 C42.87825,127.384528 42.840875,127.160377 42.8035,126.973585 C42.7724785,126.801069 42.7599493,126.625738 42.766125,126.450566 C42.4956425,126.826228 42.1524937,127.143818 41.757,127.384528 C41.3544755,127.63739 40.8868296,127.767234 40.4115,127.758113 C39.768252,127.827475 39.1271086,127.609996 38.6589484,127.163641 C38.1907883,126.717285 37.9431831,126.087409 37.982125,125.441887 C37.9557466,124.750738 38.2968985,124.097152 38.879125,123.723396 C39.5925633,123.271812 40.4275351,123.05012 41.271125,123.088302 L42.766125,123.088302 L42.766125,122.341132 C42.780435,121.939429 42.6322384,121.548901 42.355,121.257736 C42.0379073,120.973748 41.6216274,120.826101 41.196375,120.846792 C40.8064909,120.825768 40.4219709,120.945049 40.1125,121.183019 C39.862281,121.384085 39.7121673,121.684179 39.701375,122.004906 L38.39325,122.004906 L38.39325,121.967547 C38.3766696,121.356654 38.6724784,120.779378 39.178125,120.435849 C39.7844653,119.959561 40.5375284,119.70865 41.3085,119.726038 C42.0645825,119.689695 42.8082038,119.928611 43.4015,120.398491 C43.9398065,120.880933 44.2287464,121.582334 44.186375,122.303774 L44.186375,126.002264 C44.1765862,126.519059 44.2394928,127.034665 44.37325,127.533962 L42.915625,127.533962 L42.915625,127.608679 Z M40.63575,126.6 C41.1110796,126.609121 41.5787255,126.479277 41.98125,126.226415 C42.3390196,126.027618 42.6164914,125.710647 42.766125,125.329811 L42.766125,124.096981 L41.196375,124.096981 C40.7143356,124.078301 40.2401448,124.223129 39.850875,124.507925 C39.5411932,124.734018 39.3601456,125.095953 39.365,125.479245 C39.3608375,125.780525 39.4672017,126.072897 39.664,126.301132 C39.9434715,126.510322 40.2869689,126.615967 40.63575,126.6 Z M49.75525,121.14566 L49.045125,121.108302 C48.7135498,121.092003 48.3856464,121.183775 48.11075,121.369811 C47.8446703,121.557258 47.6372977,121.816359 47.51275,122.116981 L47.51275,127.608679 L46.129875,127.608679 L46.129875,119.91283 L47.36325,119.91283 L47.51275,121.033585 C47.703093,120.668769 47.970981,120.349996 48.297625,120.099623 C48.6125068,119.872279 48.9931747,119.754193 49.3815,119.763396 C49.482618,119.757333 49.5839865,119.769998 49.6805,119.800755 C49.75525,119.800755 49.867375,119.838113 49.90475,119.838113 L49.75525,121.14566 Z M53.04425,118.082264 L53.04425,119.950189 L54.501875,119.950189 L54.501875,120.996226 L53.04425,120.996226 L53.04425,125.666038 C53.0135476,125.935275 53.0945981,126.205324 53.2685,126.413208 C53.427292,126.568872 53.6444625,126.650275 53.8665,126.637358 C53.9552573,126.640946 54.0439231,126.628286 54.128125,126.6 C54.216687,126.5801 54.304038,126.555154 54.38975,126.525283 L54.576625,127.496604 C54.4350544,127.58622 54.2847922,127.661318 54.128125,127.720755 C53.9315173,127.764005 53.7313342,127.789017 53.530125,127.795472 C53.0288986,127.812637 52.5425598,127.623589 52.184625,127.272453 C51.8203151,126.820259 51.6460919,126.244236 51.69875,125.666038 L51.69875,120.996226 L50.50275,120.996226 L50.50275,119.950189 L51.69875,119.950189 L51.69875,118.082264 L53.04425,118.082264 Z M271.01525,111.693962 L266.343375,111.693962 L266.343375,115.392453 L271.76275,115.392453 L271.76275,116.475849 L264.9605,116.475849 L264.9605,106.127547 L271.688,106.127547 L271.688,107.210943 L266.38075,107.210943 L266.38075,110.573208 L271.052625,110.573208 L271.052625,111.693962 L271.01525,111.693962 Z M274.30425,108.78 L274.416375,109.938113 C274.875353,109.136774 275.735273,108.649701 276.658875,108.667925 C277.372376,108.630198 278.06736,108.90262 278.565,109.415094 C279.063193,110.051157 279.303392,110.851465 279.23775,111.656604 L279.23775,116.513208 L277.854875,116.513208 L277.854875,111.656604 C277.895529,111.137528 277.749766,110.620963 277.44375,110.199623 C277.124713,109.893877 276.687427,109.743627 276.24775,109.788679 C275.877329,109.784955 275.51379,109.888777 275.20125,110.087547 C274.889433,110.281313 274.632169,110.55132 274.45375,110.872075 L274.45375,116.475849 L273.070875,116.475849 L273.070875,108.78 L274.30425,108.78 Z M280.957,112.777358 C280.906044,111.724276 281.180032,110.680973 281.741875,109.788679 C282.228616,109.053503 283.065933,108.627937 283.947,108.667925 C284.360987,108.656831 284.771458,108.746582 285.143,108.929434 C285.489381,109.099136 285.795274,109.341194 286.04,109.639245 L286.04,105.417736 L287.422875,105.417736 L287.422875,116.513208 L286.301625,116.513208 L286.152125,115.579245 C285.684085,116.311631 284.851367,116.727806 283.984375,116.662642 C283.140085,116.701801 282.330185,116.324945 281.816625,115.653962 C281.259245,114.871377 280.982671,113.923542 281.03175,112.964151 L281.03175,112.777358 L280.957,112.777358 Z M282.339875,112.926792 C282.297588,113.585371 282.4679,114.240128 282.82575,114.794717 C283.159324,115.263606 283.708377,115.530975 284.283375,115.504528 C284.653796,115.508253 285.017335,115.40443 285.329875,115.20566 C285.628857,115.018775 285.863583,114.745049 286.002625,114.421132 L286.002625,110.834717 C285.829055,110.544348 285.600548,110.290563 285.329875,110.087547 C285.028829,109.893919 284.678732,109.790233 284.32075,109.788679 C283.713761,109.744846 283.139532,110.068627 282.863125,110.610566 C282.524043,111.281429 282.35708,112.026009 282.37725,112.777358 L282.37725,112.926792 L282.339875,112.926792 Z" id="Shape" fill="#2A3052" fill-rule="nonzero"></path>
                <path d="M14.510625,8.06150943 C14.5174975,7.69412744 14.3680691,7.34108917 14.0995,7.09018868 C13.6717066,6.75717152 13.1729489,6.52707734 12.641875,6.41773585 C11.6525871,6.15969167 10.7164108,5.72974662 9.876125,5.14754717 C9.25078994,4.67034534 8.9011885,3.91553978 8.94175,3.13018868 C8.94005098,2.29786824 9.34459137,1.51703185 10.025625,1.03811321 C10.8235372,0.479117921 11.7799469,0.19101218 12.754,0.216226415 C13.7431541,0.167095234 14.715361,0.486583736 15.482375,1.11283019 C16.1657032,1.6497212 16.5426757,2.48706787 16.4915,3.35433962 L16.4915,3.39169811 L14.510625,3.39169811 C14.5336129,2.95183527 14.3547434,2.52548874 14.02475,2.23358491 C13.6549074,1.90920622 13.1698373,1.74758761 12.67925,1.78528302 C12.2240195,1.74842307 11.7712768,1.88152387 11.4085,2.15886792 C11.1234734,2.38484909 10.9581155,2.72919255 10.96,3.09283019 C10.9589093,3.44488175 11.1435648,3.77143561 11.445875,3.95207547 C11.9625483,4.25578012 12.5149379,4.49420663 13.090375,4.66188679 C14.0295397,4.89999851 14.9081544,5.33274786 15.66925,5.93207547 C16.2554923,6.44924033 16.5722783,7.20643758 16.528875,7.98679245 C16.5618765,8.817354 16.1669188,9.60692052 15.482375,10.0788679 C14.6828422,10.6307797 13.724715,10.9062836 12.754,10.8633962 C11.7171247,10.8823216 10.699465,10.582375 9.83875,10.0041509 C9.03383759,9.46717285 8.57765025,8.54095163 8.64275,7.57584906 L8.64275,7.53849057 L10.623625,7.53849057 C10.5708696,8.05272152 10.7818069,8.55874752 11.18425,8.88339623 C11.6486407,9.19125272 12.1969929,9.34785557 12.754,9.33169811 C13.2029559,9.36138988 13.6492866,9.24329572 14.02475,8.9954717 C14.3384193,8.79001009 14.5224942,8.43617624 14.510625,8.06150943 Z M20.3785,1.18754717 L20.3785,3.0554717 L21.64925,3.0554717 L21.64925,4.51245283 L20.3785,4.51245283 L20.3785,8.43509434 C20.3597008,8.66264609 20.426318,8.88904471 20.565375,9.07018868 C20.697839,9.19168474 20.8714754,9.25843847 21.05125,9.25698113 L21.312875,9.25698113 C21.4032202,9.24476172 21.4913334,9.21959765 21.5745,9.18226415 L21.761375,10.6766038 C21.5655681,10.7395823 21.3657959,10.7895033 21.163375,10.8260377 C20.9532057,10.8582063 20.740493,10.8707132 20.528,10.8633962 C19.920291,10.9030411 19.3237858,10.6862259 18.8835,10.2656604 C18.4505304,9.75970223 18.2474543,9.09661343 18.322875,8.43509434 L18.322875,4.51245283 L17.201625,4.51245283 L17.201625,3.0554717 L18.322875,3.0554717 L18.322875,1.18754717 L20.3785,1.18754717 Z M27.442375,10.7513208 C27.367625,10.5645283 27.292875,10.4150943 27.218125,10.1909434 L27.106,9.59320755 C26.8938096,9.95394684 26.6147417,10.2709295 26.28375,10.5271698 C25.9273719,10.7888346 25.4921185,10.9206713 25.050375,10.9007547 C24.3797767,10.9404512 23.7209107,10.711966 23.219,10.2656604 C22.7711772,9.82529635 22.5389553,9.21086287 22.583625,8.5845283 C22.559512,7.89262325 22.8818659,7.23419098 23.44325,6.82867925 C24.1920861,6.36303914 25.0670258,6.14113757 25.947375,6.19358491 L27.106,6.19358491 L27.106,5.59584906 C27.1422541,5.27896867 27.0318923,4.96286824 26.8062639,4.73733955 C26.5806355,4.51181086 26.2643954,4.40149775 25.947375,4.43773585 C25.6610269,4.41433475 25.3775316,4.50879141 25.1625,4.69924528 C24.9794872,4.87328744 24.8835814,5.11979342 24.900875,5.37169811 L22.92,5.37169811 L22.92,5.33433962 C22.9062138,4.6740776 23.2125007,4.04785846 23.74225,3.65320755 C24.4083456,3.15398135 25.2279405,2.90292614 26.0595,2.94339623 C26.8567044,2.90207586 27.6413567,3.15464888 28.264625,3.65320755 C28.8403023,4.1461299 29.1572843,4.87624402 29.12425,5.63320755 L29.12425,8.80867925 C29.1277217,9.14615076 29.1526889,9.48305886 29.199,9.81735849 C29.2512761,10.1374164 29.3390244,10.4506651 29.460625,10.7513208 L27.442375,10.7513208 Z M25.53625,9.3690566 C25.8789584,9.3802624 26.2172449,9.28922548 26.508,9.10754717 C26.7700545,8.9763408 26.9710115,8.74869015 27.068625,8.47245283 L27.068625,7.3890566 L25.91,7.3890566 C25.5420727,7.36089214 25.1783107,7.4820926 24.900875,7.72528302 C24.6853323,7.92925095 24.5636161,8.21313009 24.5645,8.50981132 C24.5547926,8.74953097 24.6503609,8.9815229 24.826125,9.14490566 C25.0340738,9.29097284 25.2820903,9.36925922 25.53625,9.3690566 Z M33.31025,7.53849057 L33.385,7.94943396 L33.422375,7.94943396 L34.88,3.0554717 L37.085125,3.0554717 L34.020375,11.909434 C33.8186168,12.4177545 33.5274871,12.8858867 33.16075,13.2916981 C32.6985006,13.6972652 32.0921223,13.899302 31.478875,13.8520755 C31.3159945,13.8597354 31.1527922,13.8471869 30.993,13.814717 C30.8435,13.7773585 30.656625,13.74 30.46975,13.7026415 L30.694,12.1709434 C30.7585922,12.1651289 30.8234888,12.1781025 30.880875,12.2083019 L31.06775,12.2083019 C31.3540981,12.231703 31.6375934,12.1372463 31.852625,11.9467925 C32.0515578,11.7822246 32.1950796,11.5605162 32.26375,11.3116981 L32.525375,10.7513208 L29.834375,3.0554717 L32.0395,3.0554717 L33.31025,7.53849057 Z M42.056,8.62188679 C42.0437988,8.38095635 41.9192791,8.15968574 41.719625,8.02415094 C41.3444841,7.81825906 40.9417062,7.66728408 40.523625,7.57584906 C39.7950037,7.46641503 39.1030624,7.18463757 38.505375,6.75396226 C38.0581452,6.38958792 37.8088545,5.83585349 37.832625,5.25962264 C37.8207012,4.59977227 38.1265945,3.97435774 38.654875,3.57849057 C39.283717,3.0903878 40.0643735,2.83910098 40.86,2.86867925 C41.686471,2.82269105 42.5039086,3.05990683 43.17725,3.54113208 C43.7293198,3.95094269 44.0382885,4.6107207 43.9995,5.29698113 L43.9995,5.33433962 L42.018625,5.33433962 C42.0226236,5.05539402 41.9149818,4.78640849 41.719625,4.58716981 C41.4836852,4.37820242 41.1747487,4.2707937 40.86,4.28830189 C40.5736519,4.26490079 40.2901566,4.35935745 40.075125,4.54981132 C39.8847783,4.69773296 39.7734375,4.92522708 39.7734375,5.16622642 C39.7734375,5.40722575 39.8847783,5.63471987 40.075125,5.78264151 C40.4404496,6.00215597 40.8479856,6.14218459 41.271125,6.19358491 C42.0176744,6.32161898 42.7300188,6.60134495 43.364125,7.0154717 C43.8392122,7.37466134 44.09388,7.9544819 44.036875,8.54716981 C44.0426472,9.21435029 43.7216154,9.84217864 43.17725,10.2283019 C42.5013277,10.7041849 41.6857885,10.9408497 40.86,10.9007547 C39.992653,10.9468209 39.1394288,10.6669804 38.468,10.1162264 C37.9321167,9.68974434 37.616475,9.0450223 37.608375,8.36037736 L37.608375,8.32301887 L39.477125,8.32301887 C39.4543937,8.67201507 39.6089183,9.00901081 39.88825,9.21962264 C40.1887361,9.41071187 40.5418555,9.50222092 40.897375,9.48113208 C41.200756,9.50267238 41.502807,9.42391128 41.757,9.25698113 C41.9492808,9.10267176 42.0596048,8.86833689 42.056,8.62188679 Z M49.0825,10.7513208 L49.0825,0.403018868 L52.521,0.403018868 C53.5066785,0.340434612 54.4871441,0.588709505 55.324125,1.11283019 C56.000546,1.60521342 56.3805993,2.40719376 56.33325,3.24226415 C56.3473836,3.69466805 56.2164233,4.13973633 55.9595,4.51245283 C55.6957773,4.90399421 55.3171056,5.20418738 54.875625,5.37169811 C55.4288192,5.47271118 55.9230504,5.7798003 56.2585,6.2309434 C56.5624366,6.68306711 56.71909,7.21806305 56.707,7.76264151 C56.767071,8.62331615 56.4045997,9.459419 55.73525,10.0041509 C54.9432003,10.5716807 53.9795534,10.8487717 53.006875,10.7886792 L49.0825,10.7886792 L49.0825,10.7513208 Z M51.138125,4.73660377 L52.633125,4.73660377 C53.0820809,4.76629554 53.5284116,4.64820138 53.903875,4.40037736 C54.2111111,4.15901866 54.3790228,3.78138413 54.352375,3.39169811 C54.3870899,2.9900212 54.2188143,2.59755169 53.903875,2.34566038 C53.5024936,2.0935667 53.0312198,1.97580031 52.558375,2.00943396 L51.138125,2.00943396 L51.138125,4.73660377 Z M51.138125,6.19358491 L51.138125,9.18226415 L53.04425,9.18226415 C53.4886923,9.22636636 53.9324332,9.09195883 54.277625,8.80867925 C54.5749442,8.54634608 54.7279256,8.15711067 54.68875,7.76264151 C54.7498431,7.33742351 54.6096785,6.90798315 54.3094682,6.60058641 C54.0092578,6.29318968 53.5831293,6.14278126 53.156375,6.19358491 L51.138125,6.19358491 Z M61.528375,10.9007547 C60.5397422,10.9394718 59.5837153,10.5435785 58.912125,9.81735849 C58.2433916,9.08550811 57.8937212,8.11761771 57.940375,7.12754717 L57.940375,6.82867925 C57.8929087,5.79974743 58.2254503,4.78926767 58.87475,3.98943396 C59.4847947,3.24441899 60.4179274,2.84070412 61.378875,2.90603774 C62.2749481,2.84977412 63.1502127,3.19152335 63.770875,3.84 C64.3682135,4.54782674 64.6753361,5.45544046 64.6305,6.38037736 L64.6305,7.50113208 L60.108125,7.50113208 L60.108125,7.53849057 C60.1294396,7.99178949 60.3002855,8.42528349 60.594,8.77132075 C60.9010697,9.10221627 61.3390601,9.28007129 61.79,9.25698113 C62.169607,9.27287839 62.5490714,9.22230549 62.91125,9.10754717 C63.2581256,9.01391536 63.5866708,8.8623461 63.883,8.65924528 L64.443625,9.92943396 C64.0841284,10.2290679 63.6630332,10.4458999 63.21025,10.5645283 C62.6852989,10.8115799 62.1080071,10.9269872 61.528375,10.9007547 Z M61.3415,4.51245283 C60.9864228,4.50304724 60.6500185,4.67117511 60.4445,4.96075472 C60.1973625,5.29843624 60.0544518,5.70100677 60.033375,6.11886792 L60.07075,6.15622642 L62.574875,6.15622642 L62.574875,5.96943396 C62.5898239,5.59774922 62.485016,5.23108355 62.275875,4.92339623 C62.0496418,4.6428993 61.701236,4.48966845 61.3415,4.51245283 Z M68.2185,1.18754717 L68.2185,3.0554717 L69.48925,3.0554717 L69.48925,4.51245283 L68.2185,4.51245283 L68.2185,8.43509434 C68.1997008,8.66264609 68.266318,8.88904471 68.405375,9.07018868 C68.537839,9.19168474 68.7114754,9.25843847 68.89125,9.25698113 L69.152875,9.25698113 C69.2432202,9.24476172 69.3313334,9.21959765 69.4145,9.18226415 L69.601375,10.6766038 C69.4055681,10.7395823 69.2057959,10.7895033 69.003375,10.8260377 C68.7932057,10.8582063 68.580493,10.8707132 68.368,10.8633962 C67.760291,10.9030411 67.1637858,10.6862259 66.7235,10.2656604 C66.2905304,9.75970223 66.0874543,9.09661343 66.162875,8.43509434 L66.162875,4.51245283 L65.041625,4.51245283 L65.041625,3.0554717 L66.162875,3.0554717 L66.162875,1.18754717 L68.2185,1.18754717 Z M77.41275,7.98679245 L77.450125,7.98679245 L78.45925,3.0554717 L80.40275,3.0554717 L78.45925,10.7513208 L76.74,10.7513208 L75.31975,6.15622642 L75.282375,6.15622642 L73.862125,10.7513208 L72.142875,10.7513208 L70.199375,3.0554717 L72.142875,3.0554717 L73.152,7.98679245 L73.189375,7.98679245 L74.609625,3.0554717 L75.9925,3.0554717 L77.41275,7.98679245 Z M84.775625,10.9007547 C83.7869922,10.9394718 82.8309653,10.5435785 82.159375,9.81735849 C81.4906416,9.08550811 81.1409712,8.11761771 81.187625,7.12754717 L81.187625,6.82867925 C81.1401587,5.79974743 81.4727003,4.78926767 82.122,3.98943396 C82.7320447,3.24441899 83.6651774,2.84070412 84.626125,2.90603774 C85.5221981,2.84977412 86.3974627,3.19152335 87.018125,3.84 C87.6154635,4.54782674 87.9225861,5.45544046 87.87775,6.38037736 L87.87775,7.50113208 L83.318,7.50113208 L83.318,7.53849057 C83.3393146,7.99178949 83.5101605,8.42528349 83.803875,8.77132075 C84.1109447,9.10221627 84.5489351,9.28007129 84.999875,9.25698113 C85.379482,9.27287839 85.7589464,9.22230549 86.121125,9.10754717 C86.4680006,9.01391536 86.7965458,8.8623461 87.092875,8.65924528 L87.6535,9.92943396 C87.2940034,10.2290679 86.8729082,10.4458999 86.420125,10.5645283 C85.908415,10.8114206 85.343224,10.9269768 84.775625,10.9007547 Z M84.58875,4.51245283 C84.2336728,4.50304724 83.8972685,4.67117511 83.69175,4.96075472 C83.4446125,5.29843624 83.3017018,5.70100677 83.280625,6.11886792 L83.318,6.15622642 L85.822125,6.15622642 L85.822125,5.96943396 C85.8370739,5.59774922 85.732266,5.23108355 85.523125,4.92339623 C85.2968918,4.6428993 84.948486,4.48966845 84.58875,4.51245283 Z M92.36275,10.9007547 C91.3741172,10.9394718 90.4180903,10.5435785 89.7465,9.81735849 C89.0932182,9.07627351 88.7458855,8.11485396 88.77475,7.12754717 L88.77475,6.82867925 C88.7272837,5.79974743 89.0598253,4.78926767 89.709125,3.98943396 C90.3191697,3.24441899 91.2523024,2.84070412 92.21325,2.90603774 C93.1093231,2.84977412 93.9845877,3.19152335 94.60525,3.84 C95.2025885,4.54782674 95.5097111,5.45544046 95.464875,6.38037736 L95.464875,7.50113208 L90.9425,7.50113208 L90.9425,7.53849057 C90.9469029,7.99524733 91.1199331,8.43428403 91.428375,8.77132075 C91.7354447,9.10221627 92.1734351,9.28007129 92.624375,9.25698113 C93.003982,9.27287839 93.3834464,9.22230549 93.745625,9.10754717 C94.0925006,9.01391536 94.4210458,8.8623461 94.717375,8.65924528 L95.278,9.92943396 C94.9185034,10.2290679 94.4974082,10.4458999 94.044625,10.5645283 C93.5209005,10.815275 92.9426717,10.9308696 92.36275,10.9007547 Z M92.21325,4.51245283 C91.8581728,4.50304724 91.5217685,4.67117511 91.31625,4.96075472 C91.0691125,5.29843624 90.9262018,5.70100677 90.905125,6.11886792 L90.9425,6.15622642 L93.446625,6.15622642 L93.446625,5.96943396 C93.4615739,5.59774922 93.356766,5.23108355 93.147625,4.92339623 C92.9213918,4.6428993 92.572986,4.48966845 92.21325,4.51245283 Z M98.49225,3.0554717 L98.567,4.13886792 C98.799203,3.75729725 99.1196357,3.4370061 99.501375,3.20490566 C99.8736117,2.98128113 100.300471,2.86491633 100.73475,2.86867925 C101.415552,2.83065783 102.076378,3.10588029 102.52875,3.61584906 C103.001693,4.29145965 103.226186,5.10983506 103.164125,5.93207547 L103.164125,10.7513208 L101.1085,10.7513208 L101.1085,5.93207547 C101.146441,5.54639813 101.039902,5.16036377 100.8095,4.84867925 C100.558203,4.61187426 100.219764,4.49008996 99.875125,4.51245283 C99.6177779,4.50415354 99.3619827,4.55528997 99.127625,4.66188679 C98.9003983,4.77034529 98.706701,4.93814207 98.567,5.14754717 L98.567,10.7513208 L96.511375,10.7513208 L96.511375,3.0554717 L98.49225,3.0554717 Z" id="Shape" fill="#000000" fill-rule="nonzero"></path>
                <path d="M17.31375,159.139245 L21.05125,159.139245 L20.864375,160.073208 L16.005625,160.073208 L17.6875,151.443396 L18.80875,151.443396 L17.31375,159.139245 Z M22.24725,156.78566 C22.3588665,155.897608 22.7367162,155.064101 23.331125,154.394717 C23.8635092,153.803539 24.6286797,153.475753 25.424125,153.498113 C26.1394276,153.451512 26.8196077,153.81315 27.18075,154.432075 C27.5840631,155.146281 27.7167319,155.981725 27.5545,156.78566 L27.5545,156.897736 C27.4506294,157.787956 27.0717714,158.623687 26.470625,159.288679 C25.9338328,159.873673 25.1716302,160.200187 24.377625,160.185283 C23.6623224,160.231885 22.9821423,159.870246 22.621,159.251321 C22.2176869,158.537115 22.0850181,157.701671 22.24725,156.897736 L22.24725,156.78566 Z M23.3685,156.935094 C23.2460106,157.507255 23.2848267,158.102173 23.480625,158.653585 C23.6433017,159.079427 24.0740904,159.340862 24.527125,159.288679 C25.0244035,159.28295 25.4864536,159.031034 25.7605,158.616226 C26.1171426,158.118301 26.3479595,157.541513 26.43325,156.935094 L26.43325,156.78566 C26.5579444,156.226131 26.5190225,155.642561 26.321125,155.104528 C26.1584483,154.678686 25.7276596,154.417251 25.274625,154.469434 C24.7773465,154.475163 24.3152964,154.727079 24.04125,155.141887 C23.6846074,155.639813 23.4537905,156.2166 23.3685,156.823019 L23.3685,156.935094 Z M30.32025,157.719623 L30.282875,158.392075 L30.32025,158.392075 L30.581875,157.682264 L32.56275,153.610189 L33.45975,153.610189 L33.8335,157.682264 L33.8335,158.466792 L33.870875,158.466792 L34.169875,157.682264 L35.889125,153.610189 L37.010375,153.610189 L34.020375,160.035849 L33.123375,160.035849 L32.787,156.113208 L32.749625,155.06717 L32.71225,155.06717 L32.26375,156.150566 L30.395,160.073208 L29.498,160.073208 L29.0495,153.647547 L30.17075,153.647547 L30.32025,157.719623 Z M46.76525,152.34 L44.22375,152.34 L42.691375,160.035849 L41.570125,160.035849 L43.1025,152.34 L40.598375,152.34 L40.78525,151.406038 L46.952125,151.406038 L46.76525,152.34 Z M49.194625,160.073208 L49.194625,159.587547 C49.194625,159.475472 49.232,159.326038 49.232,159.213962 C48.9769949,159.501354 48.6733602,159.741626 48.335,159.923774 C48.0295845,160.107688 47.6822272,160.210563 47.325875,160.222642 C46.8439203,160.255616 46.3741121,160.062251 46.055125,159.699623 C45.779329,159.280778 45.6976027,158.763406 45.830875,158.28 C45.9187497,157.682824 46.2590654,157.152166 46.76525,156.823019 C47.3516992,156.474811 48.02736,156.305971 48.70875,156.337358 L49.792625,156.337358 L49.90475,155.702264 C49.9963298,155.401031 49.9555694,155.075092 49.792625,154.80566 C49.575354,154.5908 49.2749702,154.481618 48.970375,154.506792 C48.6472046,154.508643 48.3330219,154.613324 48.073375,154.80566 C47.8372346,154.965613 47.6651659,155.203757 47.5875,155.478113 L46.503625,155.478113 L46.503625,155.440755 C46.6094558,154.909876 46.9177342,154.440964 47.36325,154.133208 C47.8974317,153.754209 48.5397301,153.557673 49.194625,153.57283 C49.7491861,153.544018 50.2907582,153.747018 50.689625,154.133208 C51.0759225,154.557685 51.2043697,155.15684 51.026,155.702264 L50.428,158.803019 L50.315875,159.475472 C50.2784674,159.685519 50.2784674,159.900519 50.315875,160.110566 L49.194625,160.110566 L49.194625,160.073208 Z M47.699625,159.213962 C48.0405263,159.210861 48.3749962,159.120851 48.671375,158.952453 C48.9766919,158.799843 49.2349916,158.567476 49.418875,158.28 L49.643125,157.084528 L48.521875,157.084528 C48.1391387,157.077346 47.7669675,157.210206 47.475375,157.458113 C47.2073313,157.666939 47.0113125,157.954307 46.91475,158.28 C46.8393973,158.516655 46.8665009,158.774026 46.9895,158.989811 C47.101625,159.176604 47.36325,159.213962 47.699625,159.213962 Z M55.697875,154.693585 L55.0625,154.656226 C54.8083403,154.656024 54.5603238,154.73431 54.352375,154.880377 C54.1107899,155.036705 53.9168486,155.256408 53.79175,155.515472 L52.89475,160.073208 L51.7735,160.073208 L53.04425,153.647547 L54.053375,153.647547 L53.978625,154.506792 C54.1692554,154.215369 54.4251859,153.972342 54.726125,153.796981 C54.9968393,153.632309 55.3062918,153.542092 55.623125,153.535472 C55.7118823,153.531884 55.8005481,153.544545 55.88475,153.57283 C55.9440753,153.597124 56.0075153,153.609806 56.071625,153.610189 L55.697875,154.693585 Z M56.071625,156.860377 C56.2084592,155.952498 56.5679832,155.092589 57.118125,154.357358 C57.5692707,153.815961 58.2449541,153.512727 58.9495,153.535472 C59.6113008,153.508323 60.2323314,153.854791 60.556625,154.432075 L60.81825,153.647547 L61.79,153.647547 L60.556625,159.961132 C60.4433243,160.731647 60.0748572,161.441948 59.510125,161.978491 C58.9281377,162.442483 58.1983217,162.681227 57.4545,162.650943 C57.1493559,162.650266 56.8463697,162.59979 56.5575,162.501509 C56.264661,162.442252 55.9856755,162.328172 55.73525,162.165283 L56.18375,161.268679 C56.3764037,161.404715 56.5914619,161.505874 56.819125,161.567547 C57.0742322,161.64135 57.3384233,161.679075 57.604,161.679623 C58.0359047,161.698537 58.4560302,161.53598 58.762625,161.231321 C59.0898063,160.89085 59.3106036,160.462433 59.398,159.998491 L59.47275,159.550189 C59.0465315,159.972751 58.4656998,160.202281 57.865625,160.185283 C57.2138802,160.208509 56.6110505,159.841092 56.33325,159.251321 C55.9748228,158.547829 55.8819439,157.738814 56.071625,156.972453 L56.071625,156.860377 Z M57.1555,156.972453 C57.0038825,157.514265 57.0300818,158.090397 57.23025,158.616226 C57.4228915,159.033864 57.8554431,159.287317 58.314125,159.251321 C58.5799742,159.252059 58.8400842,159.174061 59.061625,159.02717 C59.3184668,158.850288 59.5349932,158.621126 59.697,158.354717 L60.295,155.366038 C60.1891759,155.116794 60.0220414,154.89833 59.809125,154.730943 C59.5783427,154.573975 59.3031606,154.495386 59.02425,154.506792 C58.5549338,154.507039 58.1181375,154.746467 57.865625,155.141887 C57.5179852,155.65846 57.2883061,156.245158 57.192875,156.860377 L57.1555,156.972453 Z M64.593125,160.185283 C63.8793059,160.221059 63.1987833,159.880948 62.799125,159.288679 C62.3777498,158.594633 62.2436733,157.763726 62.425375,156.972453 L62.46275,156.710943 C62.5788029,155.838799 62.9718265,155.026909 63.584,154.394717 C64.0702799,153.848283 64.7589389,153.524351 65.490125,153.498113 C66.1510635,153.438494 66.793169,153.738011 67.172,154.282642 C67.5318208,154.917434 67.6386077,155.664611 67.471,156.374717 L67.358875,157.121887 L63.546625,157.121887 C63.445561,157.651654 63.5108332,158.199698 63.7335,158.690943 C63.9466655,159.062151 64.3527338,159.279591 64.78,159.251321 C65.4209101,159.2463 66.0407988,159.022184 66.536625,158.616226 L66.873,159.363396 C66.2408783,159.909754 65.4286183,160.20257 64.593125,160.185283 Z M65.340625,154.469434 C64.9717821,154.482003 64.6283729,154.660496 64.40625,154.955094 C64.0954922,155.312605 63.8659706,155.733209 63.7335,156.187925 L63.7335,156.225283 L66.34975,156.225283 L66.387125,156.075849 C66.480773,155.684533 66.4275806,155.272474 66.237625,154.917736 C66.0496921,154.608381 65.7009784,154.434101 65.340625,154.469434 Z M71.096375,152.115849 L70.797375,153.647547 L71.88125,153.647547 L71.694375,154.506792 L70.6105,154.506792 L69.825625,158.392075 C69.750875,158.690943 69.750875,158.915094 69.863,159.02717 C69.9668024,159.141999 70.120777,159.197965 70.274125,159.176604 C70.3874071,159.179021 70.5005118,159.166459 70.6105,159.139245 C70.7144704,159.136764 70.8165934,159.111245 70.9095,159.064528 L70.9095,159.849057 C70.7555028,159.93031 70.5924044,159.993013 70.423625,160.035849 C70.2144037,160.079137 70.0018095,160.104137 69.78825,160.110566 C69.4208625,160.129307 69.0690422,159.960508 68.853875,159.662264 C68.6199753,159.253964 68.5658467,158.767022 68.704375,158.317358 L69.48925,154.432075 L68.554875,154.432075 L68.74175,153.57283 L69.676125,153.57283 L69.975125,152.041132 L71.096375,152.041132 L71.096375,152.115849 Z M22.023,55.6562264 L20.90175,55.6562264 L21.64925,51.8456604 L17.874375,51.8456604 L17.126875,55.6562264 L16.005625,55.6562264 L17.6875,47.0264151 L18.80875,47.0264151 L18.06125,50.9116981 L21.836125,50.9116981 L22.621,47.0264151 L23.74225,47.0264151 L22.023,55.6562264 Z M25.050375,55.6562264 L23.929125,55.6562264 L25.1625,49.230566 L26.28375,49.230566 L25.050375,55.6562264 Z M26.620125,47.5867925 L25.498875,47.5867925 L25.723125,46.3913208 L26.844375,46.3913208 L26.620125,47.5867925 Z M27.143375,52.4433962 C27.2802092,51.535517 27.6397332,50.6756074 28.189875,49.9403774 C28.6410207,49.39898 29.3167041,49.0957459 30.02125,49.1184906 C30.6830508,49.0913415 31.3040814,49.4378101 31.628375,50.0150943 L31.89,49.230566 L32.86175,49.230566 L31.628375,55.5441509 C31.5150743,56.3146656 31.1466072,57.0249669 30.581875,57.5615094 C29.9714098,58.0261218 29.2181993,58.2638727 28.4515,58.2339623 C28.1463559,58.2332846 27.8433697,58.1828092 27.5545,58.0845283 C27.261661,58.0252709 26.9826755,57.9111909 26.73225,57.7483019 L27.18075,56.8516981 C27.3734037,56.9877336 27.5884619,57.0888927 27.816125,57.150566 C28.0712322,57.2243685 28.3354233,57.2620934 28.601,57.2626415 C29.0329047,57.2815563 29.4530302,57.1189989 29.759625,56.8143396 C30.0868063,56.4738686 30.3076036,56.0454514 30.395,55.5815094 L30.46975,55.1332075 C30.2540871,55.3415612 30.0002991,55.5064506 29.72225,55.6188679 C29.4637163,55.7325515 29.1820218,55.783746 28.9,55.7683019 C28.2482552,55.791528 27.6454255,55.4241112 27.367625,54.8343396 C27.0091978,54.1308482 26.9163189,53.321833 27.106,52.5554717 L27.143375,52.4433962 Z M28.22725,52.5554717 C28.0756325,53.0972842 28.1018318,53.673416 28.302,54.1992453 C28.4946415,54.6168827 28.9271931,54.8703354 29.385875,54.8343396 C29.6517242,54.8350781 29.9118342,54.7570796 30.133375,54.6101887 C30.3902168,54.4333066 30.6067432,54.2041447 30.76875,53.9377358 L31.36675,50.9490566 C31.2607853,50.6998943 31.0936755,50.4814627 30.880875,50.3139623 C30.6500927,50.1569939 30.3749106,50.0784052 30.096,50.0898113 C29.6266838,50.090058 29.1898875,50.3294857 28.937375,50.7249057 C28.5897352,51.2414784 28.3600561,51.8281768 28.264625,52.4433962 L28.22725,52.5554717 Z M35.365875,50.0150943 C35.606228,49.7375004 35.8981592,49.5091334 36.2255,49.3426415 C36.5409476,49.1936524 36.8857374,49.1170663 37.234625,49.1184906 C37.7527236,49.0821203 38.2510455,49.3240555 38.54275,49.7535849 C38.8502045,50.3268768 38.917418,50.9987147 38.729625,51.6215094 L37.94475,55.6562264 L36.8235,55.6562264 L37.608375,51.6215094 C37.7307929,51.2273187 37.704194,50.8019249 37.533625,50.4260377 C37.3279036,50.1652798 37.0050908,50.0249884 36.674,50.0524528 C36.3971773,50.0566793 36.126397,50.134011 35.889125,50.2766038 C35.6105685,50.4363066 35.3686457,50.6526683 35.179,50.9116981 L34.244625,55.6188679 L33.123375,55.6188679 L34.95475,46.3539623 L36.076,46.3539623 L35.365875,50.0150943 Z M49.493625,47.9230189 L46.952125,47.9230189 L45.41975,55.6188679 L44.2985,55.6188679 L45.830875,47.9230189 L43.32675,47.9230189 L43.513625,46.9890566 L49.6805,46.9890566 L49.493625,47.9230189 Z M51.923,55.6562264 L51.923,55.170566 C51.923,55.0584906 51.960375,54.9090566 51.960375,54.7969811 C51.7053699,55.0843732 51.4017352,55.3246445 51.063375,55.5067925 C50.7579595,55.6907065 50.4106022,55.7935818 50.05425,55.8056604 C49.5722953,55.8386352 49.1024871,55.6452702 48.7835,55.2826415 C48.507704,54.8637965 48.4259777,54.3464251 48.55925,53.8630189 C48.6471247,53.2658429 48.9874404,52.7351848 49.493625,52.4060377 C50.0800742,52.0578301 50.755735,51.8889895 51.437125,51.9203774 L52.521,51.9203774 L52.633125,51.285283 C52.7247048,50.9840499 52.6839444,50.6581109 52.521,50.3886792 C52.303729,50.1738186 52.0033452,50.0646364 51.69875,50.0898113 C51.3755796,50.0916615 51.0613969,50.1963428 50.80175,50.3886792 C50.5656096,50.5486322 50.3935409,50.7867759 50.315875,51.0611321 L49.232,51.0611321 L49.232,51.0237736 C49.3378308,50.4928946 49.6461092,50.0239824 50.091625,49.7162264 C50.6258067,49.3372274 51.2681051,49.1406923 51.923,49.1558491 C52.4775611,49.1270371 53.0191332,49.3300369 53.418,49.7162264 C53.8042975,50.1407036 53.9327447,50.7398592 53.754375,51.285283 L53.156375,54.3860377 L53.04425,55.0584906 C53.0068424,55.2685376 53.0068424,55.4835378 53.04425,55.6935849 L51.923,55.6935849 L51.923,55.6562264 Z M50.428,54.7969811 C50.7689013,54.7938795 51.1033712,54.7038697 51.39975,54.5354717 C51.7050669,54.382862 51.9633666,54.150495 52.14725,53.8630189 L52.3715,52.6675472 L51.25025,52.6675472 C50.8675137,52.660365 50.4953425,52.7932245 50.20375,53.0411321 C49.9357063,53.2499581 49.7396875,53.5373255 49.643125,53.8630189 C49.5677723,54.099674 49.5948759,54.3570449 49.717875,54.5728302 C49.83,54.7596226 50.091625,54.7969811 50.428,54.7969811 Z M58.463625,50.2766038 L57.82825,50.2392453 C57.5740903,50.2390427 57.3260738,50.317329 57.118125,50.4633962 C56.8765399,50.6197235 56.6825986,50.8394266 56.5575,51.0984906 L55.6605,55.6562264 L54.53925,55.6562264 L55.81,49.230566 L56.819125,49.230566 L56.744375,50.0898113 C56.9350054,49.7983874 57.1909359,49.5553608 57.491875,49.38 C57.7625893,49.2153279 58.0720418,49.1251108 58.388875,49.1184906 C58.4776323,49.1149026 58.5662981,49.1275635 58.6505,49.1558491 C58.7098253,49.1801428 58.7732653,49.1928252 58.837375,49.1932075 L58.463625,50.2766038 Z M58.8,52.4433962 C58.9368342,51.535517 59.2963582,50.6756074 59.8465,49.9403774 C60.2976457,49.39898 60.9733291,49.0957459 61.677875,49.1184906 C62.3396758,49.0913415 62.9607064,49.4378101 63.285,50.0150943 L63.546625,49.230566 L64.518375,49.230566 L63.285,55.5441509 C63.1716993,56.3146656 62.8032322,57.0249669 62.2385,57.5615094 C61.6565127,58.025502 60.9266967,58.2642454 60.182875,58.2339623 C59.8777309,58.2332846 59.5747447,58.1828092 59.285875,58.0845283 C58.993036,58.0252709 58.7140505,57.9111909 58.463625,57.7483019 L58.912125,56.8516981 C59.1047787,56.9877336 59.3198369,57.0888927 59.5475,57.150566 C59.8026072,57.2243685 60.0667983,57.2620934 60.332375,57.2626415 C60.7642797,57.2815563 61.1844052,57.1189989 61.491,56.8143396 C61.8181813,56.4738686 62.0389786,56.0454514 62.126375,55.5815094 L62.201125,55.1332075 C61.7749065,55.5557699 61.1940748,55.7852996 60.594,55.7683019 C59.9422552,55.791528 59.3394255,55.4241112 59.061625,54.8343396 C58.7031978,54.1308482 58.6103189,53.321833 58.8,52.5554717 L58.8,52.4433962 Z M59.883875,52.5554717 C59.7322575,53.0972842 59.7584568,53.673416 59.958625,54.1992453 C60.1512665,54.6168827 60.5838181,54.8703354 61.0425,54.8343396 C61.3083492,54.8350781 61.5684592,54.7570796 61.79,54.6101887 C62.0468418,54.4333066 62.2633682,54.2041447 62.425375,53.9377358 L63.023375,50.9490566 C62.9174103,50.6998943 62.7503005,50.4814627 62.5375,50.3139623 C62.3067177,50.1569939 62.0315356,50.0784052 61.752625,50.0898113 C61.2833088,50.090058 60.8465125,50.3294857 60.594,50.7249057 C60.246469,51.2415353 60.0167997,51.8282087 59.92125,52.4433962 L59.883875,52.5554717 Z M67.358875,55.7683019 C66.6450559,55.8040775 65.9645333,55.4639665 65.564875,54.8716981 C65.1434998,54.1776523 65.0094233,53.346745 65.191125,52.5554717 L65.2285,52.2939623 C65.3445529,51.4218179 65.7375765,50.6099279 66.34975,49.9777358 C66.8360299,49.431302 67.5246889,49.1073703 68.255875,49.0811321 C68.9168135,49.0215133 69.558919,49.3210301 69.93775,49.8656604 C70.2975708,50.5004524 70.4043577,51.2476302 70.23675,51.9577358 L70.124625,52.7049057 L66.312375,52.7049057 C66.211311,53.2346731 66.2765832,53.7827172 66.49925,54.2739623 C66.7124155,54.6451697 67.1184838,54.8626102 67.54575,54.8343396 C68.1866601,54.8293191 68.8065488,54.6052031 69.302375,54.1992453 L69.63875,54.9464151 C69.3746413,55.1839452 69.0710876,55.3735824 68.74175,55.5067925 C68.3022801,55.6833257 67.8324891,55.7721658 67.358875,55.7683019 Z M68.069,50.0524528 C67.7001571,50.0650215 67.3567479,50.2435154 67.134625,50.5381132 C66.8238672,50.8956242 66.5943456,51.3162278 66.461875,51.7709434 L66.461875,51.8083019 L69.078125,51.8083019 L69.1155,51.6588679 C69.209148,51.2675516 69.1559556,50.8554931 68.966,50.5007547 C68.7780671,50.1913994 68.4293534,50.0171195 68.069,50.0524528 Z M73.862125,47.6988679 L73.563125,49.230566 L74.647,49.230566 L74.460125,50.0898113 L73.37625,50.0898113 L72.591375,53.9750943 C72.516625,54.2739623 72.516625,54.4981132 72.62875,54.6101887 C72.7325524,54.7250177 72.886527,54.7809837 73.039875,54.7596226 C73.1531571,54.7620399 73.2662618,54.7494783 73.37625,54.7222642 C73.4802204,54.7197833 73.5823434,54.6942638 73.67525,54.6475472 L73.67525,55.4320755 C73.5212528,55.5133289 73.3581544,55.5760314 73.189375,55.6188679 C72.9801537,55.6621556 72.7675595,55.6871556 72.554,55.6935849 C72.1866125,55.7123263 71.8347922,55.5435271 71.619625,55.245283 C71.3857253,54.8369826 71.3315967,54.3500404 71.470125,53.9003774 L72.255,50.0150943 L71.320625,50.0150943 L71.5075,49.1558491 L72.441875,49.1558491 L72.740875,47.6241509 L73.862125,47.6241509 L73.862125,47.6988679 Z" id="Shape" fill="#6D6E71" fill-rule="nonzero"></path>
                <path d="M137.698625,155.253962 L137.773375,155.253962 L139.941125,144.756226 L142.89375,144.756226 L139.3805,160.035849 L136.54,160.035849 L133.77425,149.949057 L133.6995,149.949057 L130.93375,160.035849 L128.130625,160.035849 L124.58,144.756226 L127.532625,144.756226 L129.700375,155.216604 L129.775125,155.216604 L132.615625,144.718868 L134.858125,144.718868 L137.698625,155.253962 Z M147.52825,145.989057 L144.500875,145.989057 L144.500875,143.67283 L147.52825,143.67283 L147.52825,145.989057 Z M147.52825,160.073208 L144.500875,160.073208 L144.500875,148.716226 L147.52825,148.716226 L147.52825,160.073208 Z M152.798125,148.716226 L152.947625,150.36 C153.280047,149.796218 153.757574,149.331802 154.3305,149.015094 C154.883566,148.68534 155.518009,148.517092 156.161875,148.529434 C157.162724,148.483186 158.133243,148.87942 158.8155,149.61283 C159.537988,150.592306 159.882996,151.799299 159.78725,153.012453 L159.78725,160.110566 L156.7225,160.110566 L156.7225,153.012453 C156.778955,152.428158 156.619411,151.843423 156.274,151.368679 C155.907502,151.010464 155.401237,150.832666 154.891125,150.883019 C154.512938,150.871734 154.138644,150.962041 153.80725,151.144528 C153.488521,151.309168 153.218059,151.553763 153.022375,151.85434 L153.022375,160.110566 L149.995,160.110566 L149.995,148.753585 L152.798125,148.753585 L152.798125,148.716226 Z M165.281375,154.80566 L162.254,154.80566 L162.254,144.793585 L165.281375,144.793585 L165.281375,154.80566 Z M165.281375,160.073208 L162.254,160.073208 L162.254,157.383396 L165.281375,157.383396 L165.281375,160.073208 Z" id="Shape" fill="#FFFFFF" fill-rule="nonzero"></path>
            </g>
        </g>
    </g>
</svg>