<?xml version="1.0" encoding="UTF-8"?>
<svg width="299px" height="197px" viewBox="0 0 299 197" version="1.1" xmlns="http://www.w3.org/2000/svg" xmlns:xlink="http://www.w3.org/1999/xlink">
    <!-- Generator: Sketch 52.5 (67469) - http://www.bohemiancoding.com/sketch -->
    <title>under</title>
    <desc>Created with Sketch.</desc>
    <g id="Page-1" stroke="none" stroke-width="1" fill="none" fill-rule="evenodd">
        <g id="under">
            <polygon id="Path" fill="#F1F1F2" points="0 0 299 0 299 197 0 197"></polygon>
            <path d="M1.98671096,1.9798995 L1.98671096,195.020101 L297.013289,195.020101 L297.013289,1.9798995 L1.98671096,1.9798995 Z M299,0 L299,197 L0,197 L0,0 L299,0 Z" id="Path" fill="#C2C2C2" fill-rule="nonzero"></path>
            <path d="M4.57962025,54.9933135 L4.57962025,53.7813019 L294.988101,53.7813019 L294.988101,54.9933135 L4.57962025,54.9933135 Z M4.57962025,75.0721596 L4.57962025,73.860148 L294.988101,73.860148 L294.988101,75.0721596 L4.57962025,75.0721596 Z M4.57962025,135.346583 L4.57962025,134.134571 L294.988101,134.134571 L294.988101,135.346583 L4.57962025,135.346583 Z" id="Shape" fill="#DEDEDD" fill-rule="nonzero"></path>
            <path d="M4.57962025,155.425429 L4.57962025,154.213417 L8.17777956,154.213417 L8.17777956,155.425429 L4.57962025,155.425429 Z M11.7759389,155.425429 L11.7759389,154.213417 L15.3740982,154.213417 L15.3740982,155.425429 L11.7759389,155.425429 Z M18.9722575,155.425429 L18.9722575,154.213417 L22.5704168,154.213417 L22.5704168,155.425429 L18.9722575,155.425429 Z M26.1685761,155.425429 L26.1685761,154.213417 L29.7667354,154.213417 L29.7667354,155.425429 L26.1685761,155.425429 Z M33.3648948,155.425429 L33.3648948,154.213417 L36.9630541,154.213417 L36.9630541,155.425429 L33.3648948,155.425429 Z M40.5612134,155.425429 L40.5612134,154.213417 L44.1593727,154.213417 L44.1593727,155.425429 L40.5612134,155.425429 Z M47.757532,155.425429 L47.757532,154.213417 L51.3556913,154.213417 L51.3556913,155.425429 L47.757532,155.425429 Z M54.9538506,155.425429 L54.9538506,154.213417 L58.5520099,154.213417 L58.5520099,155.425429 L54.9538506,155.425429 Z M62.1501693,155.425429 L62.1501693,154.213417 L65.7483286,154.213417 L65.7483286,155.425429 L62.1501693,155.425429 Z M69.3464879,155.425429 L69.3464879,154.213417 L72.9446472,154.213417 L72.9446472,155.425429 L69.3464879,155.425429 Z M76.5428065,155.425429 L76.5428065,154.213417 L80.1409658,154.213417 L80.1409658,155.425429 L76.5428065,155.425429 Z M83.7391251,155.425429 L83.7391251,154.213417 L87.3372845,154.213417 L87.3372845,155.425429 L83.7391251,155.425429 Z M90.9354438,155.425429 L90.9354438,154.213417 L94.5336031,154.213417 L94.5336031,155.425429 L90.9354438,155.425429 Z M98.1317624,155.425429 L98.1317624,154.213417 L101.729922,154.213417 L101.729922,155.425429 L98.1317624,155.425429 Z M105.328081,155.425429 L105.328081,154.213417 L108.92624,154.213417 L108.92624,155.425429 L105.328081,155.425429 Z M112.5244,155.425429 L112.5244,154.213417 L116.122559,154.213417 L116.122559,155.425429 L112.5244,155.425429 Z M119.720718,155.425429 L119.720718,154.213417 L123.318878,154.213417 L123.318878,155.425429 L119.720718,155.425429 Z M126.917037,155.425429 L126.917037,154.213417 L130.515196,154.213417 L130.515196,155.425429 L126.917037,155.425429 Z M134.113356,155.425429 L134.113356,154.213417 L137.711515,154.213417 L137.711515,155.425429 L134.113356,155.425429 Z M141.309674,155.425429 L141.309674,154.213417 L144.907833,154.213417 L144.907833,155.425429 L141.309674,155.425429 Z M148.505993,155.425429 L148.505993,154.213417 L152.104152,154.213417 L152.104152,155.425429 L148.505993,155.425429 Z M155.702311,155.425429 L155.702311,154.213417 L159.300471,154.213417 L159.300471,155.425429 L155.702311,155.425429 Z M162.89863,155.425429 L162.89863,154.213417 L166.496789,154.213417 L166.496789,155.425429 L162.89863,155.425429 Z M170.094949,155.425429 L170.094949,154.213417 L173.693108,154.213417 L173.693108,155.425429 L170.094949,155.425429 Z M177.291267,155.425429 L177.291267,154.213417 L180.889427,154.213417 L180.889427,155.425429 L177.291267,155.425429 Z M184.487586,155.425429 L184.487586,154.213417 L188.085745,154.213417 L188.085745,155.425429 L184.487586,155.425429 Z M191.683905,155.425429 L191.683905,154.213417 L195.282064,154.213417 L195.282064,155.425429 L191.683905,155.425429 Z M198.880223,155.425429 L198.880223,154.213417 L202.478382,154.213417 L202.478382,155.425429 L198.880223,155.425429 Z M206.076542,155.425429 L206.076542,154.213417 L209.674701,154.213417 L209.674701,155.425429 L206.076542,155.425429 Z M213.27286,155.425429 L213.27286,154.213417 L216.87102,154.213417 L216.87102,155.425429 L213.27286,155.425429 Z M220.469179,155.425429 L220.469179,154.213417 L224.067338,154.213417 L224.067338,155.425429 L220.469179,155.425429 Z M227.665498,155.425429 L227.665498,154.213417 L231.263657,154.213417 L231.263657,155.425429 L227.665498,155.425429 Z M234.861816,155.425429 L234.861816,154.213417 L238.459976,154.213417 L238.459976,155.425429 L234.861816,155.425429 Z M242.058135,155.425429 L242.058135,154.213417 L245.656294,154.213417 L245.656294,155.425429 L242.058135,155.425429 Z M249.254454,155.425429 L249.254454,154.213417 L252.852613,154.213417 L252.852613,155.425429 L249.254454,155.425429 Z M256.450772,155.425429 L256.450772,154.213417 L260.048931,154.213417 L260.048931,155.425429 L256.450772,155.425429 Z M263.647091,155.425429 L263.647091,154.213417 L267.24525,154.213417 L267.24525,155.425429 L263.647091,155.425429 Z M270.843409,155.425429 L270.843409,154.213417 L274.441569,154.213417 L274.441569,155.425429 L270.843409,155.425429 Z M278.039728,155.425429 L278.039728,154.213417 L281.637887,154.213417 L281.637887,155.425429 L278.039728,155.425429 Z M285.236047,155.425429 L285.236047,154.213417 L288.834206,154.213417 L288.834206,155.425429 L285.236047,155.425429 Z M292.432365,155.425429 L292.432365,154.213417 L294.988101,154.213417 L294.988101,155.425429 L292.432365,155.425429 Z" id="Path" fill="#293052" fill-rule="nonzero"></path>
            <path d="M4.57962025,175.504275 L4.57962025,174.292263 L294.988101,174.292263 L294.988101,175.504275 L4.57962025,175.504275 Z M39.0588043,34.3084615 L40.2708159,34.3084615 L40.2708159,192.590385 L39.0588043,192.590385 L39.0588043,34.3084615 Z M75.8093107,34.3084615 L77.0213223,34.3084615 L77.0213223,192.590385 L75.8093107,192.590385 L75.8093107,34.3084615 Z M112.559817,34.3084615 L113.771829,34.3084615 L113.771829,192.590385 L112.559817,192.590385 L112.559817,34.3084615 Z M149.272475,34.3084615 L150.484487,34.3084615 L150.484487,192.590385 L149.272475,192.590385 L149.272475,34.3084615 Z M186.022981,34.3084615 L187.234993,34.3084615 L187.234993,192.590385 L186.022981,192.590385 L186.022981,34.3084615 Z M222.773488,34.3084615 L223.9855,34.3084615 L223.9855,192.590385 L222.773488,192.590385 L222.773488,34.3084615 Z M259.523994,34.3084615 L260.736006,34.3084615 L260.736006,192.590385 L259.523994,192.590385 L259.523994,34.3084615 Z M4.57962025,115.267737 L4.57962025,114.055725 L294.988101,114.055725 L294.988101,115.267737 L4.57962025,115.267737 Z M4.57962025,95.1888904 L4.57962025,93.9768788 L294.988101,93.9768788 L294.988101,95.1888904 L4.57962025,95.1888904 Z" id="Shape" fill="#DEDEDD" fill-rule="nonzero"></path>
            <polygon id="Path" fill="#C2C2C2" fill-rule="nonzero" points="2.49797468 34.3081653 2.49797468 31.8841423 297.107595 31.8841423 297.107595 34.3081653"></polygon>
            <polygon id="Path" fill="#293052" fill-rule="nonzero" points="247.56443 126.29216 247.56443 125.080148 270.462532 125.080148 270.462532 126.29216"></polygon>
            <polyline id="Path" stroke="#293052" stroke-width="3.59815921" stroke-linecap="round" stroke-linejoin="round" points="223.682278 154.819423 191.624937 86.2103846 149.197215 117.578846 106.126076 87.6878846 76.4153165 114.661731 39.6648101 83.9751923"></polyline>
            <path d="M255.777468,116.442308 L256.458734,109.850385 L262.438734,109.850385 L262.438734,111.29 L257.859114,111.29 L257.480633,114.661731 C257.736671,114.473673 258.016712,114.320776 258.313291,114.207115 C258.65302,114.083408 259.011532,114.019327 259.373038,114.017692 C260.366446,113.959925 261.330648,114.36556 261.984557,115.116346 C262.654792,115.95 262.991975,117.003027 262.930759,118.071346 C262.97333,119.120401 262.62231,120.147449 261.946709,120.950577 C261.221324,121.713281 260.195899,122.115524 259.145949,122.049231 C258.227608,122.088855 257.326245,121.792599 256.610127,121.215769 C255.912908,120.612097 255.546989,119.710504 255.626076,118.791154 L257.102152,118.791154 C257.065794,119.354363 257.272508,119.906132 257.669873,120.306538 C258.069606,120.676509 258.602405,120.867955 259.145949,120.836923 C259.761305,120.87038 260.354394,120.601818 260.73557,120.117115 C261.12051,119.481425 261.268012,118.729784 261.151899,117.995577 C261.185622,117.31764 260.985148,116.648749 260.584177,116.101346 C260.211091,115.602409 259.616691,115.319088 258.994557,115.343654 C258.508363,115.307839 258.022161,115.413065 257.594177,115.646731 C257.28875,115.857356 257.062309,116.164013 256.950759,116.518077 L255.777468,116.442308 Z M261.795316,137.013654 L263.422785,137.013654 L263.422785,138.301731 L261.795316,138.301731 L261.795316,141.067308 L260.167848,141.067308 L260.167848,138.263846 L254.793418,138.263846 L254.793418,137.354615 L260.054304,129.057885 L261.757468,129.057885 L261.757468,137.013654 L261.795316,137.013654 Z M256.53443,137.013654 L260.319241,137.013654 L260.319241,131.368846 L260.319241,131.785577 L256.53443,137.013654 Z M263.082152,181.073462 L255.323291,181.073462 L255.323291,179.936923 L259.108101,175.580192 C259.653534,175.015611 260.135797,174.393145 260.546329,173.723846 C260.788505,173.296003 260.918699,172.813822 260.92481,172.322115 C260.941776,171.768733 260.75296,171.22874 260.394937,170.806731 C260.046154,170.399807 259.529652,170.176239 258.994557,170.200577 C258.325428,170.149808 257.6659,170.383616 257.177848,170.844615 C256.755636,171.338615 256.538883,171.975942 256.572278,172.625192 L255.134051,172.625192 C255.078909,171.646589 255.451926,170.692405 256.155949,170.011154 C256.955415,169.271212 258.021013,168.888321 259.108101,168.950385 C260.059298,168.900449 260.989408,169.242731 261.681772,169.8975 C262.314128,170.52735 262.656813,171.391749 262.627975,172.284231 C262.623229,172.980647 262.426794,173.662279 262.060253,174.254231 C261.595362,175.017798 261.049732,175.729072 260.432785,176.375769 L257.291392,179.785385 L263.044304,179.785385 L263.044304,181.073462 L263.082152,181.073462 Z M263.082152,70.4882692 C261.868415,71.8476898 260.884083,73.3959893 260.167848,75.0723077 C259.607096,76.6382473 259.238529,78.2665926 259.070253,79.9215385 L259.070253,81.2096154 L257.367089,81.2096154 L257.367089,79.9215385 C257.567876,78.1425196 258.040164,76.4048678 258.767468,74.7692308 C259.478713,73.2024114 260.395112,71.7373067 261.492532,70.4125 L254.982658,70.4125 L254.982658,69.2001923 L263.082152,69.2001923 L263.082152,70.4882692 Z M262.627975,52.8719231 C262.636271,53.4586606 262.449918,54.0315833 262.098101,54.5009615 C261.732922,54.9880083 261.232789,55.3568833 260.659873,55.5617308 C261.307406,55.7829422 261.88292,56.1757167 262.32519,56.6982692 C262.72868,57.2027459 262.942935,57.8327298 262.930759,58.4788462 C262.988164,59.4513642 262.580815,60.39339 261.833165,61.0171154 C260.133059,62.1805904 257.893903,62.1805904 256.193797,61.0171154 C255.465135,60.3822325 255.073381,59.4439174 255.134051,58.4788462 C255.125034,57.8332267 255.338937,57.2042817 255.73962,56.6982692 C256.161986,56.1710277 256.72693,55.7765005 257.367089,55.5617308 C256.805853,55.3543828 256.318559,54.9852642 255.966709,54.5009615 C255.633332,54.0243688 255.460929,53.4535637 255.474684,52.8719231 C255.424696,51.9572075 255.7856,51.0679719 256.458734,50.4473077 C257.17932,49.848034 258.096344,49.537565 259.032405,49.5759615 C259.968466,49.537565 260.88549,49.848034 261.606076,50.4473077 C262.29776,51.0576082 262.67393,51.9501304 262.627975,52.8719231 Z M261.341139,58.4409615 C261.366212,57.8313483 261.132478,57.2395678 260.697722,56.8119231 C260.262978,56.3882281 259.676916,56.1563059 259.070253,56.1678846 C258.465294,56.1355643 257.874636,56.3593441 257.442672,56.7845186 C257.010708,57.2096931 256.777249,57.7970766 256.799367,58.4030769 C256.77548,59.0013615 257.009876,59.5810182 257.442785,59.9942308 C258.407122,60.7598557 259.771232,60.7598557 260.73557,59.9942308 C261.14862,59.5860387 261.368793,59.0213018 261.341139,58.4409615 Z M261.151899,52.9098077 C261.168403,52.3610051 260.963828,51.8285961 260.584177,51.4323077 C259.805108,50.671955 258.562487,50.671955 257.783418,51.4323077 C257.421115,51.8368295 257.230982,52.3669961 257.253544,52.9098077 C257.222542,53.4538761 257.413803,53.9871891 257.783418,54.3873077 C258.570281,55.1282337 259.797314,55.1282337 260.584177,54.3873077 C260.967573,53.9934105 261.172784,53.4593475 261.151899,52.9098077 Z" id="Shape" fill="#808184" fill-rule="nonzero"></path>
            <path d="M188.180759,145.158846 L153.133418,145.158846 L147.607595,137.089423 L142.308861,145.158846 L107.261519,145.158846 C104.648653,145.158846 102.530506,147.279036 102.530506,149.894423 L102.530506,174.405769 C102.530506,177.021156 104.648653,179.141346 107.261519,179.141346 L188.180759,179.141346 C189.455058,179.171968 190.687787,178.686593 191.599735,177.79516 C192.511683,176.903726 193.025684,175.681664 193.025316,174.405769 L193.025316,149.932308 C193.035937,148.649854 192.526447,147.417929 191.613353,146.518235 C190.700259,145.61854 189.461651,145.128022 188.180759,145.158846 Z" id="Path" fill="#E88024"></path>
            <g id="Group" opacity="0.6" transform="translate(214.949367, 145.961538)" fill="#FFFFFF">
                <ellipse id="Oval" cx="8.4301266" cy="8.8578846" rx="8.13734177" ry="8.3725"></ellipse>
            </g>
            <path d="M223.379494,164.403935 C218.20814,164.403935 214.030141,160.105197 214.030141,154.819423 C214.030141,149.533649 218.20814,145.234911 223.379494,145.234911 C228.550848,145.234911 232.728847,149.533649 232.728847,154.819423 C232.728847,160.105197 228.550848,164.403935 223.379494,164.403935 Z M223.379494,161.979911 C227.196399,161.979911 230.304824,158.781657 230.304824,154.819423 C230.304824,150.857189 227.196399,147.658935 223.379494,147.658935 C219.562589,147.658935 216.454164,150.857189 216.454164,154.819423 C216.454164,158.781657 219.562589,161.979911 223.379494,161.979911 Z" id="Oval" fill="#E88024" fill-rule="nonzero"></path>
            <path d="M259.902911,88.9001923 C260.305298,88.8538574 260.711664,88.8538574 261.114051,88.9001923 C261.455473,88.970571 261.786276,89.0851902 262.098101,89.2411538 L261.757468,90.4913462 L260.92481,90.1503846 C260.585744,90.1041432 260.241978,90.1041432 259.902911,90.1503846 C259.081936,90.1220853 258.301018,90.5058148 257.821266,91.1732692 C257.262064,91.955083 256.982091,92.9025714 257.026456,93.8630769 C257.381616,93.5493977 257.792442,93.3052344 258.237595,93.1432692 C258.708835,92.9636585 259.209442,92.8737193 259.713671,92.8780769 C260.694075,92.832152 261.641795,93.2367165 262.287342,93.9767308 C262.934744,94.7638902 263.271385,95.7613083 263.233544,96.7801923 C263.278019,97.8820307 262.914068,98.9614444 262.211646,99.8109615 C261.530274,100.598642 260.526493,101.031243 259.486582,100.985385 C258.373137,101.006099 257.307087,100.534921 256.572278,99.6973077 C255.755994,98.6827634 255.350691,97.3980663 255.436835,96.0982692 L255.436835,93.8251923 C255.363169,92.4437257 255.824027,91.0869528 256.723671,90.0367308 C257.570328,89.2170791 258.729069,88.8028438 259.902911,88.9001923 Z M259.33519,94.3176923 C258.846481,94.3053349 258.363248,94.4229917 257.93481,94.6586538 C257.550911,94.8679042 257.235504,95.1836148 257.026456,95.5678846 L257.026456,96.5528846 C256.97668,97.455569 257.229798,98.3490032 257.74557,99.0911538 C258.142175,99.6612848 258.792523,100.000924 259.486582,100.000385 C260.172385,100.053196 260.824964,99.6969006 261.151899,99.0911538 C261.539107,98.4664522 261.736365,97.7424768 261.71962,97.0075 C261.761624,96.305102 261.561189,95.6095915 261.151899,95.0375 C260.725025,94.4782323 260.0325,94.1894016 259.33519,94.2798077 L259.33519,94.3176923 Z" id="Shape" fill="#808184" fill-rule="nonzero"></path>
            <polygon id="Path" fill="#E88024" points="246.277595 145.424038 274.852911 145.424038 274.852911 164.214808 246.277595 164.214808"></polygon>
            <polygon id="Path" fill="#E88024" points="249.75962 154.819423 246.428987 158.153269 241.243797 154.819423 246.428987 151.485577"></polygon>
            <path d="M257.594177,153.682885 L258.956709,153.682885 C259.418699,153.716156 259.872966,153.550808 260.205696,153.228269 C260.499099,152.880171 260.64809,152.432768 260.622025,151.978077 C260.644235,151.546843 260.494489,151.124425 260.205696,150.803654 C259.85448,150.554821 259.417488,150.459137 258.994557,150.538462 C258.582251,150.519538 258.177615,150.654547 257.859114,150.917308 C257.559891,151.171164 257.392674,151.547764 257.404937,151.940192 L255.058354,151.940192 C255.009355,151.042095 255.405813,150.177548 256.118101,149.629231 C256.914751,149.003895 257.907189,148.681712 258.918861,148.72 C259.973507,148.66396 261.015473,148.971503 261.871013,149.591346 C262.618663,150.215072 263.026012,151.157097 262.968608,152.129615 C262.963328,152.661556 262.791216,153.178392 262.476582,153.607115 C262.128335,154.088331 261.657926,154.467637 261.114051,154.705769 C261.721858,154.902929 262.251778,155.287492 262.627975,155.804423 C262.980606,156.302137 263.166154,156.899117 263.157848,157.509231 C263.194167,158.513484 262.742928,159.473292 261.946709,160.085385 C261.063339,160.743226 259.98112,161.077567 258.881013,161.0325 C257.852697,161.065498 256.842039,160.759346 256.004557,160.161154 C255.216182,159.583063 254.785859,158.635438 254.869114,157.660769 L257.367089,157.660769 C257.356873,158.093465 257.536715,158.508884 257.859114,158.797308 C258.203138,159.101306 258.649352,159.263723 259.108101,159.251923 C259.592614,159.283668 260.06966,159.119951 260.432785,158.797308 C260.764762,158.468131 260.943298,158.014487 260.92481,157.547115 C260.97781,157.036654 260.812852,156.527543 260.470633,156.145385 C260.080171,155.818217 259.578224,155.655266 259.070253,155.690769 L257.594177,155.690769 L257.594177,153.682885 Z" id="Path" fill="#FFFFFF"></path>
            <path d="M139.773038,165.692308 L141.93038,155.311923 L144.958228,155.311923 L141.438354,170.465769 L138.599747,170.465769 L135.836835,160.464231 L133.073924,170.465769 L130.15962,170.465769 L126.601899,155.311923 L129.591899,155.311923 L131.749241,165.692308 L134.587848,155.311923 L136.820886,155.311923 L139.773038,165.692308 Z M149.613544,156.637885 L146.585696,156.637885 L146.585696,154.326923 L149.613544,154.326923 L149.613544,156.6 L149.613544,156.637885 Z M149.613544,170.617308 L146.585696,170.617308 L146.585696,159.251923 L149.613544,159.251923 L149.613544,170.617308 Z M154.87443,159.327692 L154.87443,160.956731 C155.228943,160.409316 155.709086,159.954688 156.27481,159.630769 C156.840471,159.309878 157.479181,159.140261 158.129367,159.138269 C159.125021,159.08673 160.093253,159.474397 160.778734,160.199038 C161.493,161.170509 161.82936,162.369108 161.724937,163.570769 L161.724937,170.617308 L158.962025,170.617308 L158.962025,163.532885 C158.983743,162.931013 158.765945,162.345114 158.356456,161.903846 C157.972318,161.565401 157.465539,161.400881 156.956076,161.449231 C156.577239,161.435142 156.200631,161.513136 155.858481,161.676538 C155.544104,161.838786 155.271937,162.072298 155.063671,162.358462 L155.063671,170.541538 L152.035823,170.541538 L152.035823,159.176154 L154.87443,159.176154 L154.87443,159.327692 Z M167.402152,165.351346 L164.374304,165.351346 L164.374304,155.425577 L167.402152,155.425577 L167.402152,165.351346 Z M167.402152,170.579423 L164.374304,170.579423 L164.374304,167.9275 L167.402152,167.9275 L167.402152,170.579423 Z" id="Shape" fill="#FFFFFF" fill-rule="nonzero"></path>
            <path d="M26.3044304,12.2975 L26.3044304,19.1167308 C26.3589151,20.1294144 25.9391788,21.1097439 25.1689873,21.7686538 C24.316284,22.429707 23.2563869,22.7654411 22.1789873,22.7157692 C21.0964047,22.758088 20.034859,22.4083815 19.1889873,21.7307692 C18.4187959,21.0718593 17.9990596,20.0915298 18.0535443,19.0788462 L18.0535443,12.2975 L20.1351899,12.2975 L20.1351899,19.1167308 C20.0888356,19.6742549 20.281485,20.2252128 20.6650633,20.6321154 C21.0769201,20.9776547 21.6045301,21.1536944 22.1411392,21.1246154 C22.6900512,21.1596288 23.2315957,20.9834571 23.6550633,20.6321154 C24.0524284,20.2317093 24.2591425,19.6799398 24.2227848,19.1167308 L24.2227848,12.2975 L26.3044304,12.2975 Z M29.8243038,14.9494231 L29.8243038,16.0480769 C30.0633595,15.6743053 30.3876525,15.3626836 30.7705063,15.1388462 C31.1482207,14.9138724 31.5799708,14.7960087 32.0194937,14.7978846 C32.7779182,14.6830826 33.5437831,14.9528136 34.0632911,15.5176923 C34.5446236,16.1729135 34.7731344,16.9802002 34.7067089,17.7907692 L34.7067089,22.5642308 L32.4736709,22.5642308 L32.4736709,17.9423077 C32.5579871,17.50136 32.4475731,17.0454627 32.1708861,16.6921154 C31.9109202,16.4644755 31.5683832,16.3547579 31.2246835,16.3890385 C30.9881259,16.3340547 30.7421273,16.3340547 30.5055696,16.3890385 C30.2967515,16.4983403 30.1155449,16.65381 29.9756962,16.8436538 L29.9756962,22.5642308 L27.8940506,22.5642308 L27.8940506,14.9873077 L29.8243038,14.9873077 L29.8243038,14.9494231 Z M35.7664557,18.8136538 C35.7218143,17.7822009 35.9996495,16.7624889 36.5612658,15.8965385 C37.0554156,15.1766605 37.8846185,14.7616591 38.7564557,14.7978846 C39.113982,14.7985945 39.465519,14.8898217 39.7783544,15.0630769 C40.0922029,15.2426212 40.3633814,15.4882099 40.5731646,15.7828846 L40.5731646,11.5776923 L42.616962,11.5776923 L42.616962,22.5642308 L40.8759494,22.5642308 L40.8759494,21.6171154 C40.6629937,21.9426917 40.3781016,22.2148965 40.0432911,22.4126923 C39.6949508,22.6001792 39.3031128,22.6916962 38.9078481,22.6778846 C38.0012866,22.8094265 37.093201,22.4487274 36.5234177,21.7307692 C35.9640398,20.934718 35.6844848,19.975319 35.7286076,19.0030769 L35.7664557,18.8136538 Z M37.8102532,18.8136538 C37.7823474,19.3647683 37.8998257,19.9135293 38.1508861,20.4048077 C38.3793803,20.7873617 38.8045283,21.007478 39.248481,20.9730769 C39.5091434,21.0404446 39.7826287,21.0404446 40.0432911,20.9730769 C40.263634,20.8462545 40.4464644,20.6632477 40.5731646,20.4426923 L40.5731646,17.1467308 C40.4449391,16.9172843 40.2631393,16.7223109 40.0432911,16.5784615 C39.8132288,16.4467082 39.5512671,16.3811546 39.2863291,16.3890385 C38.8171298,16.3761242 38.3853922,16.6443578 38.1887342,17.0709615 C37.9388642,17.6166435 37.822113,18.2139476 37.8481013,18.8136538 L37.8102532,18.8136538 Z M47.6129114,22.7157692 C46.6296772,22.781942 45.6652202,22.4233695 44.9635443,21.7307692 C44.2964804,20.9976318 43.9431811,20.031922 43.9794937,19.0409615 L43.9794937,18.7 C43.9416528,17.681116 44.2782936,16.6836979 44.9256962,15.8965385 C46.2805788,14.5631501 48.4532187,14.5631501 49.8081013,15.8965385 C50.4085481,16.5870268 50.7202878,17.4824473 50.6786076,18.3969231 L50.6786076,19.5334615 L46.0989873,19.5334615 C46.1115545,19.9950322 46.2856994,20.4375187 46.5910127,20.7836538 C46.9054866,21.1140752 47.3465603,21.2934342 47.8021519,21.2761538 C48.1787189,21.3300353 48.5610279,21.3300353 48.9375949,21.2761538 C49.2787138,21.1705458 49.6083827,21.030936 49.9216456,20.8594231 L50.4893671,21.7307692 C50.1282041,22.0174823 49.7177541,22.2357443 49.2782278,22.3748077 C48.7452567,22.5780677 48.1828114,22.6932243 47.6129114,22.7157692 Z M47.6129114,16.3890385 C47.2525785,16.3760314 46.9103611,16.5473052 46.704557,16.8436538 C46.4673567,17.1787418 46.3236499,17.5710476 46.2882278,17.9801923 L48.8240506,17.9801923 L48.8240506,17.9423077 C48.8463313,17.5645673 48.739552,17.1904792 48.5212658,16.8815385 C48.2858356,16.5134575 47.8548339,16.3200634 47.4236709,16.3890385 L47.6129114,16.3890385 Z M55.8637975,16.73 L55.1068354,16.73 C54.8414621,16.7179289 54.5783513,16.78377 54.3498734,16.9194231 C54.1497706,17.0477829 53.9918197,17.2322368 53.8956962,17.4498077 L53.8956962,22.5642308 L51.8518987,22.5642308 L51.8518987,14.9873077 L53.7443038,14.9873077 L53.7443038,16.1238462 C53.8909652,15.7573277 54.1248283,15.4322046 54.4255696,15.1767308 C54.7045599,14.9530147 55.05216,14.8325755 55.4096203,14.8357692 L55.9773418,14.8357073 L55.8637975,16.73 Z" id="Shape" fill="#231F20" fill-rule="nonzero"></path>
            <path d="M208.164557,21.4655769 L213.009114,21.4655769 L213.009114,22.5642308 L206.688481,22.5642308 L206.688481,12.2975 L208.164557,12.2975 L208.164557,21.4655769 Z M218.913418,22.5642308 L218.913418,21.9580769 C218.904185,21.7814028 218.904185,21.6043664 218.913418,21.4276923 C218.640937,21.7997702 218.292621,22.1096833 217.891519,22.3369231 C217.491795,22.5796142 217.034314,22.7104491 216.566835,22.7157692 C215.854248,22.8063604 215.137186,22.5855132 214.598734,22.1096154 C214.162038,21.6676949 213.928906,21.0637129 213.955316,20.4426923 C213.93155,19.7620038 214.26074,19.1173156 214.825823,18.7378846 C215.529087,18.2233626 216.377012,17.9448688 217.248101,17.9423077 L218.762025,17.9423077 L218.762025,17.3361538 C218.779599,16.9395019 218.628297,16.5539971 218.345696,16.2753846 C218.019365,15.9999785 217.598002,15.863924 217.172405,15.8965385 C216.777711,15.8762246 216.388664,15.9970798 216.07481,16.2375 C215.810327,16.432241 215.655434,16.7423263 215.658481,17.0709615 L214.333797,17.0709615 C214.336414,16.4664225 214.632961,15.9010254 215.128608,15.5555769 C215.731511,15.0830238 216.48304,14.841228 217.248101,14.8736538 C217.996522,14.8328814 218.734844,15.06131 219.329747,15.5176923 C219.875935,15.9900243 220.170005,16.6908642 220.124557,17.4119231 L220.124557,21.2003846 C220.110978,21.4654028 220.110978,21.7309434 220.124557,21.9959615 C220.102184,22.2480292 220.102184,22.5015862 220.124557,22.7536538 L218.913418,22.7536538 L218.913418,22.5642308 Z M216.604684,21.7307692 C217.085835,21.73849 217.558974,21.6069357 217.967215,21.3519231 C218.321542,21.1579742 218.601208,20.8513788 218.762025,20.4805769 L218.762025,19.0409615 L217.172405,19.0409615 C216.657592,18.9927668 216.143663,19.1416792 215.734177,19.4576923 C215.42675,19.6921416 215.245074,20.0558438 215.242152,20.4426923 C215.227673,20.7385701 215.337456,21.0270293 215.544937,21.2382692 C215.802868,21.5579279 216.19428,21.7398303 216.604684,21.7307692 Z M226.596582,20.5563462 C226.605681,20.2647486 226.480017,19.9852251 226.255949,19.7986538 C225.858419,19.5270788 225.406245,19.3460346 224.931266,19.2682692 C224.187479,19.1367928 223.478811,18.8530522 222.84962,18.4348077 C222.390489,18.1176223 222.120523,17.5913911 222.130506,17.0330769 C222.13345,16.407742 222.427297,15.819481 222.925316,15.4419231 C224.171935,14.5559114 225.841989,14.5559114 227.088608,15.4419231 C227.594082,15.843362 227.875774,16.4636819 227.84557,17.1088462 L226.483038,17.1088462 C226.481451,16.7599199 226.329741,16.428597 226.066709,16.1996154 C225.769476,15.9221999 225.37538,15.7725712 224.969114,15.7828846 C224.573571,15.7555478 224.182101,15.8771559 223.871519,16.1238462 C223.645952,16.3255158 223.521218,16.6168412 223.530886,16.9194231 C223.512721,17.1937354 223.624952,17.4605408 223.833671,17.6392308 C224.226195,17.8790526 224.664552,18.0339163 225.120506,18.0938462 C225.890001,18.217361 226.624988,18.501314 227.277848,18.9273077 C227.743019,19.2565814 228.012899,19.7968631 227.996962,20.3669231 C228.02601,21.0683296 227.679969,21.732213 227.088608,22.1096154 C226.461868,22.5601225 225.702151,22.7869235 224.931266,22.7536538 C224.094318,22.7973708 223.271146,22.5272179 222.622532,21.9959615 C222.095745,21.5746809 221.800644,20.9276449 221.827722,20.2532692 L223.303797,20.2532692 C223.306251,20.6790494 223.518755,21.0761056 223.871519,21.3140385 C224.23145,21.5477746 224.653774,21.6666677 225.082658,21.655 C225.495866,21.6799999 225.906428,21.5739461 226.255949,21.3519231 C226.496405,21.1613075 226.624515,20.8620966 226.596582,20.5563462 Z M231.516835,13.0930769 L231.516835,14.9494231 L232.955063,14.9494231 L232.955063,15.9723077 L231.516835,15.9723077 L231.516835,20.5942308 C231.487953,20.8670584 231.569776,21.1400632 231.743924,21.3519231 C231.904465,21.5101894 232.124573,21.5928096 232.349494,21.5792308 L232.879367,21.5792308 L232.879367,22.5263462 L232.42519,22.7157692 L231.81962,22.7157692 C231.316869,22.7477988 230.823403,22.5694308 230.457089,22.2232692 C230.094405,21.7761446 229.918146,21.2061434 229.965063,20.6321154 L229.965063,15.9723077 L228.943165,15.9723077 L228.943165,14.9494231 L230.154304,14.9494231 L230.154304,13.0930769 L231.554684,13.0930769 L231.516835,13.0930769 Z M238.443038,22.5642308 L238.443038,12.2975 L241.58443,12.2975 C242.778007,12.230969 243.943378,12.6765576 244.788672,13.5226672 C245.633966,14.3687767 246.079125,15.5352715 246.012658,16.73 L246.012658,18.1317308 C246.080171,19.3334492 245.630008,20.5065229 244.776132,21.3539794 C243.922256,22.2014358 242.746524,22.6420331 241.546582,22.5642308 L238.443038,22.5642308 Z M239.919114,13.3961538 L239.919114,21.4655769 L241.660127,21.4655769 C242.508526,21.5000623 243.327798,21.1525782 243.893165,20.5184615 C244.456131,19.8533835 244.752798,19.0030189 244.725823,18.1317308 L244.725823,16.73 C244.81687,15.7993263 244.530478,14.8710673 243.931013,14.1538462 C243.365646,13.5197295 242.546374,13.1722454 241.697975,13.2067308 L239.919114,13.2067308 L239.919114,13.3961538 Z M249.267595,12.9794231 L247.905063,12.9794231 L247.905063,11.5776923 L249.305443,11.5776923 L249.305443,12.9794231 L249.267595,12.9794231 Z M249.267595,22.5642308 L247.905063,22.5642308 L247.905063,14.9873077 L249.305443,14.9873077 L249.305443,22.5642308 L249.267595,22.5642308 Z M251.122152,18.8894231 C251.072086,17.8454881 251.350042,16.8120863 251.916962,15.9344231 C252.414452,15.1940611 253.25925,14.7640886 254.15,14.7978846 C254.597639,14.7884459 255.040366,14.8927175 255.436835,15.1009615 C255.805354,15.2971508 256.117945,15.5839685 256.34519,15.9344231 L256.34519,14.9494231 L257.442785,14.9494231 L257.442785,22.5263462 C257.496179,23.3561459 257.193256,24.1693157 256.610127,24.7615385 C255.920593,25.3294928 255.041174,25.6138868 254.15,25.5571154 C253.7602,25.6022116 253.366508,25.6022116 252.976709,25.5571154 C252.581857,25.4678025 252.200208,25.3277295 251.841266,25.1403846 L252.181899,24.0796154 C252.468818,24.2318018 252.77411,24.3463968 253.090253,24.4205769 C253.442206,24.4634081 253.798047,24.4634081 254.15,24.4205769 C254.682921,24.4722955 255.214382,24.3086113 255.626076,23.9659615 C255.956523,23.5771233 256.119805,23.0731847 256.080253,22.5642308 L256.080253,21.7307692 C255.839033,22.0396655 255.527613,22.2864439 255.171899,22.4505769 C254.789684,22.6142011 254.37623,22.6917984 253.960759,22.6778846 C253.172671,22.6821682 252.423586,22.3350354 251.916962,21.7307692 C251.357829,20.9632971 251.077407,20.0276565 251.122152,19.0788462 L251.122152,18.8894231 Z M252.522532,18.8894231 C252.491633,19.5441593 252.663469,20.1924743 253.014557,20.7457692 C253.354786,21.2143588 253.913657,21.4725481 254.490633,21.4276923 C254.866713,21.4389491 255.237008,21.3330485 255.55038,21.1246154 C255.83824,20.9182948 256.071975,20.645342 256.231646,20.3290385 L256.231646,16.9951923 C256.068219,16.6918274 255.834623,16.4320251 255.55038,16.2375 C255.247679,16.0364808 254.891725,15.930911 254.528481,15.9344231 C253.919358,15.9136702 253.349703,16.235324 253.052405,16.7678846 C252.701683,17.4182493 252.531764,18.1509129 252.56038,18.8894231 L252.522532,18.8894231 Z M261.151899,12.9794231 L259.713671,12.9794231 L259.713671,11.5776923 L261.151899,11.5776923 L261.151899,12.9794231 Z M261.151899,22.5642308 L259.713671,22.5642308 L259.713671,14.9873077 L261.151899,14.9873077 L261.151899,22.5642308 Z M264.936709,13.0930769 L264.936709,14.9494231 L266.374937,14.9494231 L266.374937,15.9723077 L264.936709,15.9723077 L264.936709,20.5942308 C264.907827,20.8670584 264.989649,21.1400632 265.163797,21.3519231 C265.324338,21.5101894 265.544447,21.5928096 265.769367,21.5792308 L266.299241,21.5792308 L266.299241,22.5263462 L265.845063,22.7157692 L265.239494,22.7157692 C264.736742,22.7477988 264.243276,22.5694308 263.876962,22.2232692 C263.514279,21.7761446 263.33802,21.2061434 263.384937,20.6321154 L263.384937,15.9723077 L262.476582,15.9723077 L262.476582,14.9494231 L263.687722,14.9494231 L263.687722,13.0930769 L264.936709,13.0930769 Z M269.743418,16.3890385 L268.380886,16.3890385 L268.380886,14.9494231 L269.781266,14.9494231 L269.781266,16.3890385 L269.743418,16.3890385 Z M269.743418,22.5642308 L268.380886,22.5642308 L268.380886,21.1246154 L269.781266,21.1246154 L269.781266,22.5642308 L269.743418,22.5642308 Z M275.68557,17.9423077 L276.291139,12.2975 L281.438481,12.2975 L281.438481,13.5476923 L277.653671,13.5476923 L277.313038,16.4269231 C277.535345,16.2700088 277.777072,16.1426615 278.032152,16.0480769 C278.332743,15.9964815 278.639915,15.9964815 278.940506,16.0480769 C279.784661,15.9929868 280.607509,16.3280275 281.173544,16.9573077 C281.736277,17.6794238 282.018631,18.581138 281.968354,19.4955769 C281.998724,20.4019297 281.703279,21.2891185 281.135696,21.9959615 C280.508667,22.6557946 279.621244,23.0027787 278.713418,22.9430769 C277.810369,22.973407 276.934545,22.6309584 276.291139,21.9959615 C275.695162,21.4757267 275.385348,20.7004448 275.458481,19.9123077 L276.707468,19.9123077 C276.682928,20.3918663 276.861575,20.8595468 277.199494,21.2003846 C277.553921,21.5687327 278.052101,21.7626562 278.562025,21.7307692 C279.160793,21.7893711 279.743015,21.5125485 280.075949,21.0109615 C280.430671,20.5161081 280.604412,19.9141179 280.567975,19.3061538 C280.593065,18.7230284 280.419586,18.1486576 280.075949,17.6771154 C279.75439,17.2522348 279.245508,17.0116977 278.713418,17.0330769 C278.308846,16.9987779 277.902697,17.0774632 277.540127,17.2603846 C277.282949,17.4456694 277.096151,17.7127809 277.010253,18.0180769 L275.68557,17.9423077 Z" id="Shape" fill="#293052" fill-rule="nonzero"></path>
        </g>
    </g>
</svg>