<svg width="299" height="199" xmlns="http://www.w3.org/2000/svg"><g transform="translate(2 2)" fill="none" fill-rule="evenodd"><path stroke="#C2C2C2" stroke-width="2.423" fill="#F1F2F2" d="M.2.202h295.012v195.245H.2z"/><path d="M2.938 54.12h290.774M2.938 74.506h290.774M2.938 94.857h290.774M2.938 135.598h290.774M2.938 155.947h290.774M2.938 176.297h290.774M38.038 33.77v160.476M74.825 33.77v160.476M111.612 33.77v160.476M148.4 33.77v160.476M185.187 33.77v160.476M221.976 33.77v160.476M258.762 33.77v160.476" stroke="#DFDEDE" stroke-width="1.211"/><path d="M2.938 115.208h290.774" stroke="#2A3052" stroke-width="1.211" stroke-linejoin="round"/><path d="M.8 32.567h295.012" stroke="#C2C2C2" stroke-width="2.423"/><path stroke="#2A3052" stroke-width="3.634" stroke-linecap="round" stroke-linejoin="round" d="M38.038 115.208l28.35-26.358 38.587 39.087L140.3 76.685l50.175 55.12 42.113-73.33 26.174 16.032"/><path d="M30.238 136.685a1.62 1.62 0 0 0-.526-1.201 4.216 4.216 0 0 0-1.875-.789 5.97 5.97 0 0 1-2.55-1.163 2.457 2.457 0 0 1-.9-1.915c-.01-.792.351-1.542.976-2.028a3.724 3.724 0 0 1 2.55-.826 3.758 3.758 0 0 1 2.7.939c.625.55.981 1.344.974 2.177v.038h-1.35a1.875 1.875 0 0 0-.6-1.464 2.447 2.447 0 0 0-1.724-.564 2.203 2.203 0 0 0-1.576.489c-.374.299-.583.76-.562 1.239a1.33 1.33 0 0 0 .6 1.126 5.76 5.76 0 0 0 1.95.789 5.453 5.453 0 0 1 2.475 1.201c.551.499.865 1.209.863 1.952.012.801-.365 1.558-1.013 2.028a4.226 4.226 0 0 1-2.662.751 4.653 4.653 0 0 1-2.738-.864 2.622 2.622 0 0 1-1.163-2.252v-.038H25.4c-.036.6.232 1.179.713 1.54a2.844 2.844 0 0 0 1.8.525 2.694 2.694 0 0 0 1.65-.45c.442-.251.703-.732.675-1.24zm4.987-6.946v1.878h1.462v1.05h-1.462v4.694c-.03.27.05.542.225.751a.79.79 0 0 0 .6.226.73.73 0 0 0 .263-.038.543.543 0 0 0 .262-.075l.188.976c-.143.09-.293.166-.45.225a3.281 3.281 0 0 1-.6.076 1.836 1.836 0 0 1-1.35-.526 2.251 2.251 0 0 1-.488-1.615v-4.693h-1.237v-1.051h1.2v-1.878h1.387zm7.875 9.575c-.038-.226-.075-.45-.113-.639a2.481 2.481 0 0 1-.037-.525 3.474 3.474 0 0 1-1.013.938 2.446 2.446 0 0 1-1.35.376 2.203 2.203 0 0 1-2.437-2.328 1.964 1.964 0 0 1 .9-1.727 4.132 4.132 0 0 1 2.4-.638h1.5v-.751a1.503 1.503 0 0 0-.413-1.09 1.877 1.877 0 0 0-2.25-.074 1.108 1.108 0 0 0-.412.826h-1.313v-.038a1.803 1.803 0 0 1 .788-1.54 3.335 3.335 0 0 1 2.137-.713 3.136 3.136 0 0 1 2.1.676c.54.485.83 1.19.788 1.915v3.717c-.006.264.006.527.038.789.028.254.078.505.15.75H43.1v.076zm-2.325-1.014a2.36 2.36 0 0 0 1.35-.375c.359-.2.637-.519.788-.902v-1.239h-1.538a2.143 2.143 0 0 0-1.35.413 1.258 1.258 0 0 0-.487 1.014 1.24 1.24 0 0 0 .3.826c.278.18.605.273.937.263zm9.188-5.482l-.713-.037a1.536 1.536 0 0 0-.938.262 1.727 1.727 0 0 0-.6.751v5.52h-1.387v-7.735h1.237l.15 1.126c.191-.366.46-.687.788-.938a1.783 1.783 0 0 1 1.087-.338.824.824 0 0 1 .3.037c.075 0 .188.038.225.038l-.15 1.314zm3.3-3.079v1.878h1.462v1.05h-1.462v4.694c-.031.27.05.542.224.751a.79.79 0 0 0 .6.226.73.73 0 0 0 .263-.038.543.543 0 0 0 .262-.075l.188.976c-.142.09-.293.166-.45.225a3.281 3.281 0 0 1-.6.076 1.836 1.836 0 0 1-1.35-.526 2.251 2.251 0 0 1-.487-1.615v-4.693h-1.2v-1.051h1.2v-1.878h1.35zm200.774-33.68h-4.687v3.718h5.438v1.088h-6.826v-10.4h6.75v1.089h-5.362v3.379h4.688v1.126zm3.338-2.928l.113 1.164a2.8 2.8 0 0 1 .937-.939c.399-.23.852-.347 1.313-.338a2.357 2.357 0 0 1 1.912.751c.5.64.74 1.444.675 2.253v4.881h-1.387v-4.844a2.202 2.202 0 0 0-.413-1.464 1.51 1.51 0 0 0-1.2-.413c-.372-.004-.736.1-1.05.3a2.17 2.17 0 0 0-.75.789v5.632h-1.387v-7.735l1.237-.037zm6.637 4.017a5.175 5.175 0 0 1 .788-3.003 2.56 2.56 0 0 1 2.212-1.127c.416-.015.83.075 1.2.263.348.17.655.414.9.713v-4.242h1.388v11.151h-1.125l-.15-.939c-.232.342-.54.625-.9.826a2.772 2.772 0 0 1-1.275.263c-.847.04-1.66-.34-2.175-1.014a4.288 4.288 0 0 1-.788-2.703v-.188h-.075zm1.388.15c-.043.662.128 1.32.488 1.878.334.471.885.74 1.462.713.372.004.736-.1 1.05-.3.3-.188.535-.463.675-.789v-3.604a1.966 1.966 0 0 0-.712-.751 1.885 1.885 0 0 0-1.013-.3 1.518 1.518 0 0 0-1.463.826 4.563 4.563 0 0 0-.487 2.177v.15z" fill="#2A3052" fill-rule="nonzero"/><path d="M186.762 146.185h-35.1l-5.4-8.223-5.4 8.223h-35.1a4.745 4.745 0 0 0-3.36 1.419 4.757 4.757 0 0 0-1.365 3.387v24.819a4.773 4.773 0 0 0 4.725 4.806h81a4.745 4.745 0 0 0 3.362-1.42 4.757 4.757 0 0 0 1.364-3.386v-24.82a4.773 4.773 0 0 0-4.726-4.805z" fill="#E88024"/><path d="M248.225 124.032h-2.55l-1.538 7.735h-1.125l1.538-7.735H242l.188-.939h6.187l-.15.94zm2.438 7.772v-.488c0-.15.037-.263.037-.375-.256.289-.56.53-.9.713a2.098 2.098 0 0 1-1.013.3 1.555 1.555 0 0 1-1.275-.525 1.752 1.752 0 0 1-.225-1.427c.089-.6.43-1.133.938-1.464a3.499 3.499 0 0 1 1.95-.488h1.087l.113-.639c.092-.302.051-.63-.113-.9a1.05 1.05 0 0 0-.825-.301c-.324.002-.639.107-.9.3-.236.16-.41.4-.487.676H248v-.038a2.016 2.016 0 0 1 .9-1.314 3.05 3.05 0 0 1 1.838-.563c.556-.029 1.1.175 1.5.563.387.427.516 1.03.337 1.577l-.6 3.117-.112.676a1.823 1.823 0 0 0 0 .638h-1.2v-.038zm-1.5-.863c.342-.003.677-.094.974-.263.307-.153.566-.387.75-.676l.226-1.201h-1.125a1.574 1.574 0 0 0-1.05.375 1.498 1.498 0 0 0-.563.826.895.895 0 0 0 .075.713c.197.17.454.25.713.226zm8.024-4.543l-.637-.038c-.255 0-.504.078-.713.225a1.576 1.576 0 0 0-.562.639l-.9 4.58h-1.125l1.275-6.458h1.012l-.075.864c.192-.293.449-.537.75-.714.272-.165.583-.256.9-.262a.73.73 0 0 1 .263.037c.063.009.126.021.188.038l-.375 1.089zm.375 2.177a5.59 5.59 0 0 1 1.05-2.515 2.294 2.294 0 0 1 1.838-.826 1.766 1.766 0 0 1 1.613.9l.262-.788h.975l-1.238 6.346a3.5 3.5 0 0 1-1.05 2.027 3.102 3.102 0 0 1-2.062.676 2.81 2.81 0 0 1-.9-.15 2.372 2.372 0 0 1-.825-.338l.45-.901c.193.137.41.238.637.3.256.074.522.112.788.113.433.019.855-.145 1.162-.45.329-.343.55-.773.638-1.24l.075-.45c-.21.217-.466.384-.75.488a2.199 2.199 0 0 1-.863.15 1.725 1.725 0 0 1-1.575-.939 3.304 3.304 0 0 1-.262-2.29l.038-.113zm1.088.113a2.646 2.646 0 0 0 .075 1.652c.193.42.627.674 1.087.638.267.001.528-.077.75-.225.258-.178.475-.408.638-.676l.6-3.004a1.964 1.964 0 0 0-.45-.638 1.304 1.304 0 0 0-.788-.225c-.47 0-.909.24-1.162.638a4.268 4.268 0 0 0-.675 1.727l-.075.113zm7.5 3.229a2.047 2.047 0 0 1-1.8-.901 3.139 3.139 0 0 1-.375-2.328l.037-.263a4.132 4.132 0 0 1 1.125-2.328 2.687 2.687 0 0 1 1.913-.901 1.852 1.852 0 0 1 1.688.789c.36.638.468 1.388.3 2.102l-.113.751H265.1a2.631 2.631 0 0 0 .188 1.577c.213.373.62.592 1.05.563.333-.004.663-.068.974-.187a2.7 2.7 0 0 0 .788-.451l.337.75c-.265.24-.57.43-.9.564-.44.178-.912.267-1.387.263zm.713-5.745c-.37.013-.715.192-.938.488-.312.36-.542.782-.675 1.24v.037h2.625l.038-.15c.093-.394.04-.808-.15-1.164a.94.94 0 0 0-.9-.45zm5.812-2.365l-.3 1.54h1.087l-.187.863h-1.087l-.788 3.905c-.075.3-.075.525.038.638a.468.468 0 0 0 .412.15c.114.003.227-.01.337-.037a.704.704 0 0 0 .3-.075v.788a2.207 2.207 0 0 1-.487.188 3.69 3.69 0 0 1-.637.075 1.087 1.087 0 0 1-.938-.45 1.71 1.71 0 0 1-.15-1.352l.788-3.905h-.938l.188-.864h.937l.3-1.54h1.125v.076z" fill="#6D6E71" fill-rule="nonzero"/><path d="M138.275 167.099h.075l2.175-10.551h2.963l-3.525 15.357h-2.813l-2.775-10.138h-.075l-2.775 10.138h-2.813l-3.562-15.357h2.963l2.174 10.513h.076l2.85-10.55h2.25l2.812 10.588zm9.862-9.312H145.1v-2.328h3.037v2.328zm0 14.155H145.1v-11.414h3.037v11.414zm5.25-11.414l.15 1.652a3.677 3.677 0 0 1 1.388-1.352 3.454 3.454 0 0 1 1.837-.488 3.418 3.418 0 0 1 2.663 1.09 5.088 5.088 0 0 1 .975 3.416v7.134h-3.037v-7.134a2.417 2.417 0 0 0-.45-1.652 1.739 1.739 0 0 0-1.388-.488 2.12 2.12 0 0 0-1.088.262 1.816 1.816 0 0 0-.787.714v8.298h-3.037v-11.415l2.774-.037zm12.563 6.12h-3.037v-10.063h3.037v10.063zm0 5.294h-3.037v-2.703h3.037v2.703z" fill="#FFF" fill-rule="nonzero"/><ellipse cx="8.512" cy="11.677" rx="8.137" ry="8.486" opacity=".6" transform="translate(250.25 62.83)" fill="#FFF"/><ellipse stroke="#E88024" stroke-width="2.423" cx="258.762" cy="74.507" rx="8.137" ry="8.486"/><ellipse cx="9.037" cy="11.076" rx="8.137" ry="8.486" opacity=".6" transform="translate(29 104.132)" fill="#FFF"/><ellipse stroke="#E88024" stroke-width="2.423" cx="38.038" cy="115.208" rx="8.137" ry="8.486"/><path d="M27.723 10.086v6.79c0 1.128-.353 2.02-1.059 2.676-.705.656-1.67.984-2.892.984-1.204 0-2.16-.319-2.867-.956-.708-.637-1.07-1.513-1.084-2.627v-6.867h2.124v6.804c0 .675.162 1.167.485 1.476.324.31.77.464 1.342.464 1.194 0 1.8-.628 1.82-1.884v-6.86h2.13zm8.503 6.549c0 1.18-.268 2.125-.804 2.835-.535.71-1.259 1.066-2.17 1.066-.774 0-1.4-.27-1.876-.807v3.61H29.33V12.735h1.897l.071.75c.496-.595 1.142-.892 1.94-.892.944 0 1.678.35 2.202 1.048.524.699.786 1.661.786 2.889v.106zm-2.046-.149c0-.713-.127-1.262-.38-1.65-.252-.387-.619-.58-1.1-.58-.642 0-1.083.245-1.324.736v3.137c.25.505.696.757 1.338.757.977 0 1.466-.8 1.466-2.4z" fill="#000"/></g></svg>