<svg xmlns="http://www.w3.org/2000/svg" viewBox="7242 1550 429.999 264">
  <defs>
    <style>
      .cls-1 {
        fill: #292f51;
      }

      .cls-2, .cls-3 {
        fill: #2a3052;
      }

      .cls-2 {
        fill-rule: evenodd;
      }

      .cls-4 {
        fill: #fff;
      }
    </style>
  </defs>
  <g id="Group_352" data-name="Group 352" transform="translate(465.156 -2135)">
    <g id="Group_27" data-name="Group 27" transform="translate(6903.352 3685)">
      <g id="Group_26" data-name="Group 26">
        <g id="Group_134" data-name="Group 134">
          <path id="Subtraction_4" data-name="Subtraction 4" class="cls-1" d="M229.255,263.109H42.757v-9.442H98.483L121,211.462H5a4.988,4.988,0,0,1-5-4.835V4.835A4.988,4.988,0,0,1,5,0H267.246a4.922,4.922,0,0,1,3.438,1.448,4.593,4.593,0,0,1,1.337,3.387V120.191h-9.778V9.45H9.778V164.2h181.8v47.266H151.025l22.516,42.2h55.714Zm-93.246-85.718a9.235,9.235,0,1,0,9.553,9.232A9.394,9.394,0,0,0,136.009,177.391Z"/>
        </g>
        <g id="Group_25" data-name="Group 25">
          <g id="Group_134-2" data-name="Group 134">
            <path id="Subtraction_4-2" data-name="Subtraction 4" class="cls-1" d="M229.255,263.109H42.757v-9.442H98.483L121,211.462H5a4.988,4.988,0,0,1-5-4.835V4.835A4.988,4.988,0,0,1,5,0H267.246a4.922,4.922,0,0,1,3.438,1.448,4.593,4.593,0,0,1,1.337,3.387V211.462L262.242,164.2V9.45H9.778V164.2H262.242l9.778,47.266h-121l22.516,42.2h55.714Zm-93.246-85.718a9.235,9.235,0,1,0,9.553,9.232A9.394,9.394,0,0,0,136.009,177.391Z"/>
          </g>
        </g>
      </g>
    </g>
    <g id="Group_281" data-name="Group 281" transform="translate(7126.82 3797.708)">
      <g id="Group_34" data-name="Group 34" transform="translate(0)">
        <g id="Group_33" data-name="Group 33">
          <path id="Path_677" data-name="Path 677" class="cls-2" d="M8,124.816H72.02V22.694H8Zm32.009,18.912a5.682,5.682,0,1,1,6-5.673,5.847,5.847,0,0,1-6,5.673Zm-13-134.272H53.015a2.931,2.931,0,0,1,3,2.837,2.933,2.933,0,0,1-3,2.837H27.008a2.933,2.933,0,0,1-3-2.837,2.931,2.931,0,0,1,3-2.837ZM64.018,0H16C7.166,0,0,6.774,0,15.129V136.163c0,8.355,7.166,15.129,16,15.129H64.018c8.838,0,16-6.774,16-15.129V15.129C80.023,6.774,72.856,0,64.018,0Z"/>
        </g>
      </g>
    </g>
    <g id="Group_283" data-name="Group 283" transform="translate(6776.844 3820.249)">
      <g id="noun_1062182_cc" transform="translate(0 0)">
        <path id="Path_674" data-name="Path 674" class="cls-3" d="M181.88,27.8H30.639A10.614,10.614,0,0,0,20,38.439V145.113a10.614,10.614,0,0,0,10.639,10.639H181.88a10.614,10.614,0,0,0,10.639-10.639V38.151A10.375,10.375,0,0,0,181.88,27.8ZM86.132,46.2a6.038,6.038,0,1,1-6.038-6.038A5.9,5.9,0,0,1,86.132,46.2Zm-19.84,0a6.038,6.038,0,1,1-6.038-6.038A5.9,5.9,0,0,1,66.293,46.2Zm-20.127,0a6.038,6.038,0,1,1-6.038-6.038A5.9,5.9,0,0,1,46.165,46.2ZM30.926,144.825V64.316H181.88v80.509Z" transform="translate(-20 -27.8)"/>
      </g>
    </g>
    <path id="Path_689" data-name="Path 689" class="cls-4" d="M-.4-.6H152.017V83.554H-.4Z" transform="translate(6788.006 3857.335)"/>
    <path id="Path_690" data-name="Path 690" class="cls-4" d="M-1.2-.1H62.977L62.69,105.239H-1.2Z" transform="translate(7136.042 3820.054)"/>
    <rect id="Rectangle_143" data-name="Rectangle 143" class="cls-4" width="34.38" height="8.827" rx="4.414" transform="translate(7149.74 3805.536)"/>
  </g>
</svg>
