<svg xmlns="http://www.w3.org/2000/svg" viewBox="7628 903 128 128"><defs><style>.cls-1{fill:#2a3052}.cls-2{fill:#e98024;stroke:#e98024}.cls-3,.cls-5{fill:none}.cls-3{stroke:#95989a;opacity:0}.cls-4{stroke:none}</style></defs><g id="Group_43" data-name="Group 43" transform="translate(7147 395)"><g id="enhance_trade" transform="translate(64 89.55)"><path id="Rectangle_138" data-name="Rectangle 138" class="cls-1" transform="translate(450 499.223)" d="M0 0h12.19v13.221H0z"/><path id="Rectangle_139" data-name="Rectangle 139" class="cls-1" transform="translate(467.275 486.009)" d="M0 0h11.176v26.441H0z"/><path id="Rectangle_140" data-name="Rectangle 140" class="cls-1" transform="translate(484.549 473.803)" d="M0 0h11.176v38.64H0z"/><path id="Rectangle_141" data-name="Rectangle 141" class="cls-1" transform="translate(500.81 460.583)" d="M0 0h12.19v51.224H0z"/><path id="Path_687" data-name="Path 687" class="cls-2" d="M494.814 452.45h-9.645l3.667 3.669-35.816 35.841 1.846 1.841 36.049-35.835 3.9 3.669z" transform="translate(-1.117)"/></g><g id="Rectangle_142" data-name="Rectangle 142" class="cls-3"><path class="cls-4" d="M0 0h128v128H0z" transform="translate(481 508)"/><path class="cls-5" d="M.5.5h127v127H.5z" transform="translate(481 508)"/></g></g></svg>