<svg xmlns="http://www.w3.org/2000/svg" viewBox="7966 1141 128 128"><defs><style>.cls-1,.cls-2,.cls-6{fill:none}.cls-1{stroke:#95989a;opacity:0}.cls-2{stroke:#e98024;stroke-miterlimit:10;stroke-width:4px}.cls-3{fill:#292f51}.cls-4{fill:#2a3052;fill-rule:evenodd}.cls-5{stroke:none}</style></defs><g id="Group_57" data-name="Group 57" transform="translate(6952 1193)"><g id="Rectangle_144" data-name="Rectangle 144" class="cls-1"><path class="cls-5" d="M0 0h128v128H0z" transform="translate(1014 -52)"/><path class="cls-6" d="M.5.5h127v127H.5z" transform="translate(1014 -52)"/></g><path id="Path_169" data-name="Path 169" class="cls-2" d="M464.7 50.169l10.04-10.324 6.623 4.746 7.9-8.878 5.127 3.716L500.8 32" transform="translate(594.586 -39.933)"/><path id="Path_169-2" data-name="Path 169" class="cls-2" d="M464.7 50.169l10.04-10.324 6.623 4.746 7.9-8.878 5.127 3.716L500.8 32" transform="translate(594.586 -39.933)"/><path id="Subtraction_4" data-name="Subtraction 4" class="cls-3" d="M53.095 61H9.9v-2.189h12.908l5.215-9.785H1.159A1.156 1.156 0 0 1 0 47.9V1.121A1.156 1.156 0 0 1 1.159 0h60.734a1.139 1.139 0 0 1 .8.336 1.065 1.065 0 0 1 .31.785v26.744h-2.268V2.191H2.265v35.877H44.37v10.958h-9.393l5.215 9.785h12.9zM31.5 41.127a2.141 2.141 0 1 0 2.213 2.14 2.177 2.177 0 0 0-2.213-2.14z" transform="translate(1047 -18)"/><g id="Group_56" data-name="Group 56" transform="translate(1094 12)"><path id="Path_677" data-name="Path 677" class="cls-4" d="M1.6 24.956h12.8V4.538H1.6zM8 28.738A1.136 1.136 0 1 1 9.2 27.6 1.169 1.169 0 0 1 8 28.738zM5.4 1.891h5.2a.586.586 0 0 1 .6.567.587.587 0 0 1-.6.567H5.4a.587.587 0 0 1-.6-.567.586.586 0 0 1 .6-.567zM12.8 0H3.2A3.116 3.116 0 0 0 0 3.025v24.2a3.116 3.116 0 0 0 3.2 3.025h9.6a3.116 3.116 0 0 0 3.2-3.025v-24.2A3.116 3.116 0 0 0 12.8 0z"/></g></g></svg>