<svg xmlns="http://www.w3.org/2000/svg" viewBox="12447 7733 128 128"><defs><style>.cls-1{fill:none}.cls-2,.cls-3{fill:#2a3052;fill-rule:evenodd}.cls-3{fill:#e98024}</style></defs><g id="Group_662" data-name="Group 662" transform="translate(34 -2741)"><path id="Rectangle_259" data-name="Rectangle 259" class="cls-1" transform="translate(12413 10474)" d="M0 0h128v128H0z"/><g id="noun_623711_cc" transform="translate(12445 10506)"><g id="Group_659" data-name="Group 659"><g id="Group_658" data-name="Group 658"><g id="Group_657" data-name="Group 657"><path id="Path_2722" data-name="Path 2722" class="cls-2" d="M30.476 57.9A27.4 27.4 0 1 1 56.2 40.022a1.524 1.524 0 0 0 2.857 1.061 30.449 30.449 0 1 0-17.974 17.972 1.524 1.524 0 0 0-1.061-2.855 27.367 27.367 0 0 1-9.546 1.7z"/><path id="Path_2723" data-name="Path 2723" class="cls-2" d="M26.82 15.048A37.765 37.765 0 0 1 39.374 17a1.524 1.524 0 1 0 1.014-2.874A40.784 40.784 0 0 0 26.82 12C15.335 12 6.5 15.822 2.077 21.908A1.524 1.524 0 0 0 4.542 23.7c3.805-5.233 11.707-8.652 22.278-8.652z" transform="translate(3.656 24.571)"/><path id="Path_2724" data-name="Path 2724" class="cls-2" d="M30.381 15.19a12.19 12.19 0 1 0-12.19 12.19 12.19 12.19 0 0 0 12.19-12.19zm-21.333 0a9.143 9.143 0 1 1 9.143 9.143 9.143 9.143 0 0 1-9.143-9.143z" transform="translate(12.286 6.143)"/><path id="Path_2725" data-name="Path 2725" class="cls-3" d="M39.429 25.714a13.714 13.714 0 1 0-13.715 13.715 13.714 13.714 0 0 0 13.715-13.715zm-24.381 0a10.667 10.667 0 1 1 10.666 10.667 10.667 10.667 0 0 1-10.666-10.667z" transform="translate(24.571 24.571)"/><path id="Path_2726" data-name="Path 2726" class="cls-3" d="M0 13.714a1.524 1.524 0 0 0 3.048 0V1.524a1.524 1.524 0 0 0-3.048 0z" transform="rotate(90 4.571 53.334)"/><path id="Path_2727" data-name="Path 2727" class="cls-3" d="M16 27.714a1.524 1.524 0 1 0 3.048 0v-12.19a1.524 1.524 0 0 0-3.048 0z" transform="translate(32.762 28.667)"/></g></g></g></g></g></svg>