<svg xmlns="http://www.w3.org/2000/svg" viewBox="7295 1142 128 128"><defs><style>.cls-1{fill:#fff;opacity:0}.cls-2{fill:#2a3052}.cls-3{fill:#e98024}</style></defs><g id="Group_11" data-name="Group 11" transform="translate(6858 782)"><g id="Group_2" data-name="Group 2" transform="translate(437 360)"><path id="Rectangle_134" data-name="Rectangle 134" class="cls-1" d="M0 0h128v128H0z"/><g id="Group_1" data-name="Group 1" transform="translate(32 32)"><path id="Path_675" data-name="Path 675" class="cls-2" d="M490 527.93h-16.043v-6.556a1.606 1.606 0 0 0-.949-1.491l-1.606-.665a1.593 1.593 0 0 0-1.774.346L465 524.2l-11.282-11.3 4.632-4.631a1.593 1.593 0 0 0 .346-1.774l-.666-1.606a1.6 1.6 0 0 0-1.473-.976H450v-15.967h6.557a1.6 1.6 0 0 0 1.482-.994l.666-1.606a1.593 1.593 0 0 0-.346-1.774l-4.632-4.631 11.3-11.293 4.632 4.631a1.593 1.593 0 0 0 1.774.346l1.571-.648a1.606 1.606 0 0 0 .949-1.49v-6.557h15.971v6.556a1.575 1.575 0 0 0 1.065 1.49l1.606.665a1.594 1.594 0 0 0 1.775-.346l4.63-4.63 11.277 11.294-4.632 4.631a1.593 1.593 0 0 0-.346 1.774l.665 1.606a1.6 1.6 0 0 0 1.473.976H514v15.969h-6.557a1.58 1.58 0 0 0-1.482.985l-.665 1.606a1.593 1.593 0 0 0 .346 1.774l4.632 4.631-11.3 11.3-4.605-4.631a1.593 1.593 0 0 0-1.774-.346l-1.6.647a1.58 1.58 0 0 0-.985 1.482zm-12.8-3.2h9.6v-3.353a4.791 4.791 0 0 1 2.972-4.436l1.606-.665a4.784 4.784 0 0 1 5.226 1.047l2.369 2.369 6.788-6.787-2.369-2.369a4.782 4.782 0 0 1-1.047-5.225l.666-1.606a4.791 4.791 0 0 1 4.436-2.972h3.354v-9.6h-3.363a4.791 4.791 0 0 1-4.436-2.972l-.657-1.606a4.783 4.783 0 0 1 1.047-5.225l2.369-2.369-6.788-6.787-2.369 2.369a4.781 4.781 0 0 1-5.226 1.038l-1.606-.656a4.79 4.79 0 0 1-2.972-4.436v-3.354h-9.6v3.354a4.79 4.79 0 0 1-2.972 4.436l-1.606.665a4.783 4.783 0 0 1-5.226-1.047l-2.369-2.369-6.788 6.787 2.4 2.369a4.78 4.78 0 0 1 1.038 5.225l-.656 1.606a4.791 4.791 0 0 1-4.437 2.972H453.2v9.6h3.354a4.791 4.791 0 0 1 4.436 2.972l.666 1.606a4.777 4.777 0 0 1-1.011 5.225l-2.369 2.369 6.788 6.787 2.369-2.369a4.784 4.784 0 0 1 5.226-1.047l1.606.665a4.791 4.791 0 0 1 2.972 4.436zm4.8-12.83a16.024 16.024 0 1 1 13.886-8.073l-1.038 1.774-6.3-6.3.381-.976a7.323 7.323 0 0 0-1.721-7.718 7.453 7.453 0 0 0-6.042-2.12l5.146 5.145-6.4 6.4-5.312-5.232a7.441 7.441 0 0 0 2.174 6.13 7.316 7.316 0 0 0 7.835 1.677l.976-.381 6.379 6.388-1.775 1.056A15.985 15.985 0 0 1 482 511.9zm0-28.8a12.8 12.8 0 1 0 4.641 24.743l-1.917-1.916a10.645 10.645 0 0 1-12.342-14.851l.985-1.961 6.533 6.385 1.9-1.9-6.45-6.45 2.085-.976a10.76 10.76 0 0 1 12.041 2.12 10.573 10.573 0 0 1 2.777 10.3l1.775 1.774A12.782 12.782 0 0 0 482 483.128z" transform="translate(-450 -463.93)"/><path id="Path_676" data-name="Path 676" class="cls-3" d="M531.6 495.64h5.055v-1.955a1.266 1.266 0 0 1 .784-1.171l.637-.258a1.259 1.259 0 0 1 1.378.275l1.378 1.378 3.574-3.574-1.378-1.378a1.261 1.261 0 0 1-.276-1.378l.259-.637a1.267 1.267 0 0 1 1.171-.783h1.946v-5.046h-1.955a1.267 1.267 0 0 1-1.172-.783l-.258-.637a1.26 1.26 0 0 1 .276-1.378l1.378-1.378-3.574-3.574-1.378 1.378a1.26 1.26 0 0 1-1.378.276l-.637-.258a1.267 1.267 0 0 1-.783-1.171v-1.948h-5.055v1.955a1.266 1.266 0 0 1-.783 1.171l-.637.259a1.26 1.26 0 0 1-1.378-.276l-1.377-1.378-3.574 3.574 1.378 1.378a1.26 1.26 0 0 1 .275 1.378l-.258.637a1.267 1.267 0 0 1-1.171.784h-1.937v5.055h1.955a1.267 1.267 0 0 1 1.171.784l.259.637a1.26 1.26 0 0 1-.276 1.378l-1.378 1.378 3.574 3.574 1.378-1.378a1.26 1.26 0 0 1 1.378-.276l.637.258a1.267 1.267 0 0 1 .783 1.171zm-3.152-12a5.683 5.683 0 1 1 5.683 5.684 5.684 5.684 0 0 1-5.68-5.688z" transform="translate(-458.129 -471.64)"/></g></g></g></svg>