<svg id="Layer_1" data-name="Layer 1" xmlns="http://www.w3.org/2000/svg" viewBox="0 0 210 80"><defs><style>.cls-1{fill:#f2f2f2}.cls-2{fill:none;stroke:#2a2f53;stroke-miterlimit:10;stroke-width:2.8px}.cls-3{fill:#2a2f53}</style></defs><title>icon</title><path class="cls-1" d="M0 0h210v80H0z"/><path class="cls-2" d="M59.22 10h91.57v60H59.22z"/><path class="cls-2" d="M67.97 18.65h31v29.08h-31zM110.53 18.65h30.13M110.53 26.52h30.13M110.53 34.39h16.82"/><path class="cls-3" d="M92.29 46.68a8.18 8.18 0 0 0-6.15-7.92v-1.65H82.2v1.65a8.18 8.18 0 0 0-6.15 7.92h16.24zM84.23 27.07l.37-.51.33.54a5.62 5.62 0 0 0 4.28 2.27c-.41-2.94-2.55-5.2-5.17-5.2s-4.77 2.27-5.17 5.23a6.37 6.37 0 0 0 5.36-2.33z"/><path class="cls-3" d="M89.44 30.21A6.74 6.74 0 0 1 84.56 28a7.3 7.3 0 0 1-5.63 2.27h-.31a1.16 1.16 0 0 0-.5 1 1.11 1.11 0 0 0 1 1.17 5 5 0 0 0 9.94 0 1.11 1.11 0 0 0 1-1.17 1.16 1.16 0 0 0-.62-1.06z"/></svg>