<svg data-name="Layer 1" xmlns="http://www.w3.org/2000/svg" viewBox="0 0 32 32"><path fill="#f2f2f2" d="M32 32H0V0h32v32"/><path d="M16.39 4.89c.39.37.38.54.23 2A31.78 31.78 0 0 1 15 13.83a38.23 38.23 0 0 1-3.7 7.3 20.08 20.08 0 0 1-3.17 4 3.63 3.63 0 0 1-1.78 1c-.37.06-.54 0-.64-.2a1.49 1.49 0 0 1 0-.92 3 3 0 0 1 .86-1.43 11 11 0 0 1 2.84-2 28.29 28.29 0 0 1 4.39-1.71 29.51 29.51 0 0 1 3.4-.84 25.72 25.72 0 0 1 2.55-.37 15.1 15.1 0 0 1 2.33 0 13.57 13.57 0 0 1 2.15.36 5.24 5.24 0 0 1 1.65.67 2.84 2.84 0 0 1 1.08 1.21 1.77 1.77 0 0 1 0 1.37A1.41 1.41 0 0 1 26 23a2.21 2.21 0 0 1-1.35 0 6.79 6.79 0 0 1-1.77-1 17.32 17.32 0 0 1-2.2-2 41.45 41.45 0 0 1-2.87-3.36 24.44 24.44 0 0 1-2.16-3.38 13.45 13.45 0 0 1-1-2.63 14.94 14.94 0 0 1-.46-2.37 9 9 0 0 1 0-1.91 3 3 0 0 1 .33-1.18 1.24 1.24 0 0 1 .58-.46 1.92 1.92 0 0 1 .37-.08.68.68 0 0 1 .35 0 1 1 0 0 1 .57.26z" fill="none" stroke="#dedede" stroke-miterlimit="10"/></svg>