<svg id="Layer_1" data-name="Layer 1" xmlns="http://www.w3.org/2000/svg" viewBox="0 0 32 32"><defs><style>.cls-1{fill:#2a3052;}.cls-2{fill:#fff;}</style></defs><title>Payment Methods Refrences </title><rect class="cls-1" width="32" height="32"/><path class="cls-2" d="M28.4,11.15a6,6,0,0,0-1-2.65A3.46,3.46,0,0,0,24.9,7.37c-3.49-.27-8.74-.27-8.74-.27h0s-5.24,0-8.74.27A3.45,3.45,0,0,0,4.91,8.5a6.05,6.05,0,0,0-1,2.65,42.73,42.73,0,0,0-.25,4.31v2a43.06,43.06,0,0,0,.25,4.32,6,6,0,0,0,1,2.64,4.08,4.08,0,0,0,2.75,1.14c2,.2,8.5.27,8.5.27s5.25,0,8.74-.28a3.46,3.46,0,0,0,2.51-1.13,6,6,0,0,0,1-2.64,43.06,43.06,0,0,0,.25-4.32v-2A42.73,42.73,0,0,0,28.4,11.15Z"/><polygon class="cls-1" points="13.04 11.79 13.04 21.16 20.85 16.48 13.04 11.79"/></svg>