<svg width="398" height="169" viewBox="0 0 398 169" xmlns="http://www.w3.org/2000/svg" xmlns:xlink="http://www.w3.org/1999/xlink"><title>Forex</title><defs><circle id="b" cx="48" cy="42" r="42"/><filter x="-8.3%" y="-6%" width="116.7%" height="116.7%" filterUnits="objectBoundingBox" id="a"><feOffset dy="2" in="SourceAlpha" result="shadowOffsetOuter1"/><feGaussianBlur stdDeviation="2" in="shadowOffsetOuter1" result="shadowBlurOuter1"/><feColorMatrix values="0 0 0 0 0 0 0 0 0 0 0 0 0 0 0 0 0 0 0.3 0" in="shadowBlurOuter1"/></filter><circle id="d" cx="47" cy="43" r="43"/><filter x="-8.1%" y="-5.8%" width="116.3%" height="116.3%" filterUnits="objectBoundingBox" id="c"><feOffset dy="2" in="SourceAlpha" result="shadowOffsetOuter1"/><feGaussianBlur stdDeviation="2" in="shadowOffsetOuter1" result="shadowBlurOuter1"/><feColorMatrix values="0 0 0 0 0 0 0 0 0 0 0 0 0 0 0 0 0 0 0.3 0" in="shadowBlurOuter1"/></filter><circle id="f" cx="29.814" cy="25.814" r="25.814"/><filter x="-13.6%" y="-9.7%" width="127.1%" height="127.1%" filterUnits="objectBoundingBox" id="e"><feOffset dy="2" in="SourceAlpha" result="shadowOffsetOuter1"/><feGaussianBlur stdDeviation="2" in="shadowOffsetOuter1" result="shadowBlurOuter1"/><feColorMatrix values="0 0 0 0 0 0 0 0 0 0 0 0 0 0 0 0 0 0 0.3 0" in="shadowBlurOuter1"/></filter><circle id="h" cx="30.182" cy="26.182" r="26.182"/><filter x="-13.4%" y="-9.5%" width="126.7%" height="126.7%" filterUnits="objectBoundingBox" id="g"><feOffset dy="2" in="SourceAlpha" result="shadowOffsetOuter1"/><feGaussianBlur stdDeviation="2" in="shadowOffsetOuter1" result="shadowBlurOuter1"/><feColorMatrix values="0 0 0 0 0 0 0 0 0 0 0 0 0 0 0 0 0 0 0.3 0" in="shadowBlurOuter1"/></filter><ellipse id="j" cx="22.453" cy="19" rx="19.36" ry="19"/><filter x="-18.1%" y="-13.2%" width="136.2%" height="136.8%" filterUnits="objectBoundingBox" id="i"><feOffset dy="2" in="SourceAlpha" result="shadowOffsetOuter1"/><feGaussianBlur stdDeviation="2" in="shadowOffsetOuter1" result="shadowBlurOuter1"/><feColorMatrix values="0 0 0 0 0 0 0 0 0 0 0 0 0 0 0 0 0 0 0.3 0" in="shadowBlurOuter1"/></filter><ellipse id="l" cx="22.453" cy="19" rx="19.36" ry="19"/><filter x="-18.1%" y="-13.2%" width="136.2%" height="136.8%" filterUnits="objectBoundingBox" id="k"><feOffset dy="2" in="SourceAlpha" result="shadowOffsetOuter1"/><feGaussianBlur stdDeviation="2" in="shadowOffsetOuter1" result="shadowBlurOuter1"/><feColorMatrix values="0 0 0 0 0 0 0 0 0 0 0 0 0 0 0 0 0 0 0.3 0" in="shadowBlurOuter1"/></filter></defs><g fill="none" fill-rule="evenodd"><g transform="translate(0 45)"><use fill="#000" filter="url(#a)" xlink:href="#b"/><use fill="#F2F2F2" xlink:href="#b"/></g><g fill-rule="nonzero"><path d="M66.796 99.078H2.223a1.124 1.124 0 0 1-1.111-1.117V56.219c0-.61.505-1.117 1.111-1.117h64.573c.606 0 1.111.507 1.111 1.117V97.96c0 .508-.505 1.016-1.111 1.117z" fill="#41479B"/><path d="M67.907 56.117c0-.61-.505-1.117-1.111-1.117h-5.154L40.32 69.016V55H28.8v14.016L7.478 55H2.324c-.606 0-1.111.508-1.111 1.117v2.946l18.29 12.085H1.213v11.579h18.29L1.213 94.812v2.946c0 .61.505 1.117 1.111 1.117h5.154L28.8 84.859v14.016h11.52V84.859l21.322 14.016h5.154c.606 0 1.111-.508 1.111-1.117v-2.945l-18.29-12.086h18.391V71.148h-18.29l18.29-12.085v-2.946h-.1z" fill="#F5F5F5"/><g fill="#FF4B55"><path d="M67.907 73.586H37.895V55h-6.973v18.586H.91v7.008h30.013V99.18h6.973V80.594h30.012z"/><path d="M24.354 82.828L1.01 98.062c.1.61.505 1.016 1.111 1.016H3.74l24.859-16.25h-4.244zM46.282 82.828h-4.244l24.859 16.25c.606-.101 1.01-.508 1.01-1.117v-.914L46.282 82.828zM1.01 57.438L22.13 71.25h4.245L1.718 55.102c-.404.203-.707.609-.707 1.015v1.32zM44.463 71.25l23.444-15.234c-.1-.508-.606-.914-1.111-.914h-1.617L40.32 71.352h4.143v-.102z"/></g></g><g fill-rule="nonzero"><path d="M93.785 119.078H29.213a1.124 1.124 0 0 1-1.112-1.117V76.219c0-.61.505-1.117 1.112-1.117h64.572c.607 0 1.112.507 1.112 1.117v41.742c0 .508-.505 1.016-1.112 1.117z" fill="#F5F5F5"/><g fill="#FF4B55"><path d="M94.897 78.352H28v-2.235c0-.61.505-1.117 1.112-1.117h64.572c.607 0 1.112.508 1.112 1.117l.1 2.235zM28 88.508h66.897v3.351H28zM28 81.805h66.897v3.351H28zM94.897 98.664H29.112A1.124 1.124 0 0 1 28 97.547v-2.234h66.897v3.351zM28 108.922h66.897v3.351H28zM93.785 119.078H29.213a1.124 1.124 0 0 1-1.112-1.117v-2.234h66.897v2.234c-.101.508-.606 1.117-1.213 1.117zM28 102.117h66.897v3.352H28z"/></g><path d="M58.013 75h-28.8c-.607 0-1.112.508-1.112 1.117v21.43c0 .61.505 1.117 1.112 1.117h28.8c.606 0 1.111-.508 1.111-1.117v-21.43c0-.61-.505-1.117-1.111-1.117z" fill="#41479B"/><g fill="#F5F5F5"><path d="M31.192 77.688l.303.813h.809c.1 0 .1.101.1.101v.102l-.605.508.202.812c0 .102 0 .102-.101.102h-.101l-.607-.508-.606.508h-.202v-.102l.202-.812-.606-.508s-.101-.102 0-.203h.91l.302-.813c-.1-.101 0-.101 0 0zM31.192 81.65l.303.812h.809c.1 0 .1.101.1.101v.102l-.605.508.202.812c0 .102 0 .102-.101.102h-.101l-.607-.508-.606.508h-.202v-.102l.202-.812-.606-.508s-.101-.102 0-.203h.91l.302-.813c-.1-.101 0-.101 0 0zM31.192 85.712l.303.812h.809c.1 0 .1.102.1.102v.101l-.605.508.202.813c0 .101 0 .101-.101.101h-.101l-.607-.508-.606.508h-.202v-.101l.202-.813-.606-.508s-.101-.101 0-.203h.91l.302-.812c-.1-.102 0-.102 0 0zM31.192 89.774l.303.813h.809c.1 0 .1 0 .1.101v.102l-.605.508.202.812c0 .102 0 .102-.101.102h-.101l-.607-.508-.606.508h-.202v-.102l.202-.812-.606-.508s-.101-.102 0-.203h.91l.302-.813c-.1-.101 0-.101 0 0zM31.192 93.735l.303.813h.809c.1 0 .1 0 .1.101v.102l-.605.508.202.812c0 .102 0 .102-.101.102h-.101l-.607-.508-.606.508h-.202v-.102l.202-.812-.606-.508s-.101-.102 0-.203h.91l.302-.813c-.1-.101 0-.101 0 0zM34.325 79.618l.303.813h.808c.102 0 .102.101.102.101v.102l-.607.507.202.813c0 .102 0 .102-.1.102h-.102l-.606-.508-.606.508h-.203v-.102l.203-.813-.607-.507s-.1-.102 0-.203h.91l.303-.813c-.101-.102 0-.102 0 0zM34.325 83.68l.303.813h.808c.102 0 .102.102.102.102v.101l-.607.508.202.812c0 .102 0 .102-.1.102h-.102l-.606-.508-.606.508h-.203v-.102l.203-.812-.607-.508s-.1-.101 0-.203h.91l.303-.812c-.101-.102 0-.102 0 0zM34.325 87.641l.303.813h.808c.102 0 .102.102.102.102v.101l-.607.508.202.812c0 .102 0 .102-.1.102h-.102l-.606-.508-.606.508h-.203v-.102l.203-.812-.607-.508s-.1-.101 0-.203h.91l.303-.813c-.101-.101 0-.101 0 0zM34.325 91.704l.303.812h.808c.102 0 .102.102.102.102v.102l-.607.507.202.813c0 .101 0 .101-.1.101h-.102l-.606-.507-.606.507h-.203v-.101l.203-.813-.607-.507s-.1-.102 0-.204h.91l.303-.812c-.101-.102 0-.102 0 0zM37.458 77.688l.303.813h.808c.101 0 .101.101.101.101v.102l-.606.508.202.812c0 .102 0 .102-.101.102h-.101l-.606-.508-.607.508h-.202v-.102l.202-.812-.606-.508s-.101-.102 0-.203h.91l.303-.813c-.203-.101 0-.101 0 0zM37.458 81.65l.303.812h.808c.101 0 .101.101.101.101v.102l-.707.508.202.812c0 .102 0 .102-.101.102h-.101l-.607-.508-.606.508h-.202v-.102l.202-.812-.606-.508s-.101-.102 0-.203h.91l.302-.813c-.1-.101.102-.101.102 0zM37.458 85.712l.303.812h.808c.101 0 .101.102.101.102v.101l-.606.508.202.813c0 .101 0 .101-.101.101h-.101l-.606-.508-.607.508h-.202v-.101l.202-.813-.606-.508s-.101-.101 0-.203h.91l.303-.812c-.203-.102 0-.102 0 0zM37.458 89.774l.303.813h.808c.101 0 .101.101.101.101v.102l-.606.508.202.812c0 .102 0 .102-.101.102h-.101l-.606-.508-.607.508h-.202v-.102l.202-.812-.606-.508s-.101-.102 0-.203h.91l.303-.813c-.203-.101 0-.101 0 0zM37.458 93.735l.303.813h.808c.101 0 .101 0 .101.101v.102l-.606.508.202.812c0 .102 0 .102-.101.102h-.101l-.606-.508-.607.508h-.202v-.102l.202-.812-.606-.508s-.101-.102 0-.203h.91l.303-.813c-.203-.101 0-.101 0 0zM40.59 79.618l.303.813h.809c.1 0 .1.101.1.101v.102l-.606.507.203.813c0 .102 0 .102-.101.102h-.102l-.606-.508-.606.508h-.202v-.102l.202-.813-.606-.507s-.102-.102 0-.203h.909l.303-.813c-.202-.102-.1-.102 0 0zM40.59 83.68l.303.813h.809c.1 0 .1.102.1.102v.101l-.606.508.203.812c0 .102 0 .102-.101.102h-.102l-.606-.508-.606.508h-.202v-.102l.202-.812-.606-.508s-.102-.101 0-.203h.909l.303-.812c-.202-.102-.1-.102 0 0zM40.59 87.641l.303.813h.809c.1 0 .1.102.1.102v.101l-.606.508.203.812c0 .102 0 .102-.101.102h-.102l-.606-.508-.606.508h-.202v-.102l.202-.812-.606-.508s-.102-.101 0-.203h.909l.303-.813c-.202-.101-.1-.101 0 0zM40.59 91.704l.303.812h.809c.1 0 .1.102.1.102v.102l-.606.507.203.813c0 .101 0 .101-.101.101h-.102l-.606-.507-.606.507h-.202v-.101l.202-.813-.606-.507s-.102-.102 0-.204h.909l.303-.812c-.202-.102-.1-.102 0 0zM43.723 77.688l.303.813h.808c.101 0 .101.101.101.101v.102l-.606.508.202.812c0 .102 0 .102-.1.102h-.102l-.606-.508-.607.508h-.202v-.102l.202-.812-.606-.508s-.1-.102 0-.203h.91l.303-.813c-.202-.101-.101-.101 0 0zM43.723 81.65l.303.812h.808c.101 0 .101.101.101.101v.102l-.606.508.202.812c0 .102 0 .102-.1.102h-.102l-.606-.508-.607.508h-.202v-.102l.202-.812-.606-.508s-.1-.102 0-.203h.91l.303-.813c-.202-.101-.101-.101 0 0zM43.723 85.712l.303.812h.808c.101 0 .101.102.101.102v.101l-.606.508.202.813c0 .101 0 .101-.1.101h-.102l-.606-.508-.607.508h-.202v-.101l.202-.813-.606-.508s-.1-.101 0-.203h.91l.303-.812c-.202-.102-.101-.102 0 0zM43.723 89.774l.303.813h.808c.101 0 .101.101.101.101v.102l-.606.508.202.812c0 .102 0 .102-.1.102h-.102l-.606-.508-.607.508h-.202v-.102l.202-.812-.606-.508s-.1-.102 0-.203h.91l.303-.813c-.202-.101-.101-.101 0 0zM43.723 93.735l.303.813h.808c.101 0 .101 0 .101.101v.102l-.606.508.202.812c0 .102 0 .102-.1.102h-.102l-.606-.508-.607.508h-.202v-.102l.202-.812-.606-.508s-.1-.102 0-.203h.91l.303-.813c-.202-.101-.101-.101 0 0zM46.754 79.618l.304.813h.808c.101 0 .101.101.101.101v.102l-.606.507.202.813c0 .102 0 .102-.101.102h-.101l-.607-.508-.606.508h-.202v-.102l.202-.813-.606-.507s-.101-.102 0-.203h.91l.302-.813c-.1-.102 0-.102 0 0zM46.754 83.68l.304.813h.808c.101 0 .101.102.101.102v.101l-.606.508.202.812c0 .102 0 .102-.101.102h-.101l-.607-.508-.606.508h-.202v-.102l.202-.812-.606-.508s-.101-.101 0-.203h.91l.302-.812c-.1-.102 0-.102 0 0zM46.754 87.641l.304.813h.808c.101 0 .101.102.101.102v.101l-.606.508.202.812c0 .102 0 .102-.101.102h-.101l-.607-.508-.606.508h-.202v-.102l.202-.812-.606-.508s-.101-.101 0-.203h.91l.302-.813c-.1-.101 0-.101 0 0zM46.754 91.704l.304.812h.808c.101 0 .101.102.101.102v.102l-.606.507.202.813c0 .101 0 .101-.101.101h-.101l-.607-.507-.606.507h-.202v-.101l.202-.813-.606-.507s-.101-.102 0-.204h.91l.302-.812c-.1-.102 0-.102 0 0zM49.887 77.688l.303.813H51c.1 0 .1.101.1.101v.102l-.606.508.202.812c0 .102 0 .102-.1.102h-.102l-.606-.508-.606.508h-.202v-.102l.202-.812-.607-.508s-.1-.102 0-.203h.91l.303-.813c-.202-.101-.101-.101 0 0 0-.101 0-.101 0 0zM49.887 81.65l.303.812H51c.1 0 .1.101.1.101v.102l-.606.508.202.812c0 .102 0 .102-.1.102h-.102l-.606-.508-.606.508h-.202v-.102l.202-.812-.607-.508s-.1-.102 0-.203h.91l.303-.813c-.202-.101 0-.101 0 0zM49.887 85.712l.303.812H51c.1 0 .1.102.1.102v.101l-.606.508.202.813c0 .101 0 .101-.1.101h-.102l-.606-.508-.606.508h-.202v-.101l.202-.813-.607-.508s-.1-.101 0-.203h.91l.303-.812c-.202 0-.101-.102 0 0 0-.102 0 0 0 0zM49.887 89.774l.303.813H51c.1 0 .1.101.1.101v.102l-.606.508.202.812c0 .102 0 .102-.1.102h-.102l-.606-.508-.606.508h-.202v-.102l.202-.812-.607-.508s-.1-.102 0-.203h.91l.303-.813c-.202-.101 0-.101 0 0zM49.887 93.735l.303.813H51c.1 0 .1 0 .1.101v.102l-.606.508.202.812c0 .102 0 .102-.1.102h-.102l-.606-.508-.606.508h-.202v-.102l.202-.812-.607-.508s-.1-.102 0-.203h.91l.303-.813c-.202 0-.101-.101 0 0zM53.02 79.618l.303.813h.808c.101 0 .101.101.101.101v.102l-.606.507.202.813c0 .102 0 .102-.101.102h-.101l-.606-.508-.607.508h-.202v-.102l.202-.813-.606-.507s-.101-.102 0-.203h.91l.303-.813c-.202 0-.101-.102 0 0-.101 0 0 0 0 0zM53.02 83.68l.303.813h.808c.101 0 .101.102.101.102v.101l-.606.508.202.812c0 .102 0 .102-.101.102h-.101l-.606-.508-.607.508h-.202v-.102l.202-.812-.606-.508s-.101-.101 0-.203h.91l.303-.812c-.202-.102-.101-.102 0 0zM53.02 87.641l.303.813h.808c.101 0 .101.102.101.102v.101l-.606.508.202.812c0 .102 0 .102-.101.102h-.101l-.606-.508-.607.508h-.202v-.102l.202-.812-.606-.508s-.101-.101 0-.203h.91l.303-.813c-.202 0-.101 0 0 0-.101 0 0 0 0 0zM53.02 91.704l.303.812h.808c.101 0 .101.102.101.102v.102l-.606.507.202.813c0 .101 0 .101-.101.101h-.101l-.606-.507-.607.507h-.202v-.101l.202-.813-.606-.507s-.101-.102 0-.204h.91l.303-.812c-.202 0-.101-.102 0 0-.101-.102 0 0 0 0zM56.051 77.688l.303.813h.809c.1 0 .1.101.1.101v.102l-.605.508.202.812c0 .102 0 .102-.101.102h-.101l-.607-.508-.606.508h-.202v-.102l.202-.812-.606-.508s-.101-.102 0-.203h.909l.303-.813c-.1-.101-.1-.101 0 0 0-.101 0-.101 0 0zM56.051 81.65l.303.812h.809c.1 0 .1.101.1.101v.102l-.605.508.202.812c0 .102 0 .102-.101.102h-.101l-.607-.508-.606.508h-.202v-.102l.202-.812-.606-.508s-.101-.102 0-.203h.909l.303-.813c-.1-.101 0-.101 0 0zM56.051 85.712l.303.812h.809c.1 0 .1.102.1.102v.101l-.605.508.202.813c0 .101 0 .101-.101.101h-.101l-.607-.508-.606.508h-.202v-.101l.202-.813-.606-.508s-.101-.101 0-.203h.909l.303-.812c-.1 0-.1-.102 0 0 0-.102 0 0 0 0zM56.051 89.774l.303.813h.809c.1 0 .1 0 .1.101v.102l-.605.508.202.812c0 .102 0 .102-.101.102h-.101l-.607-.508-.606.508h-.202v-.102l.202-.812-.606-.508s-.101-.102 0-.203h.909l.303-.813c-.1-.101 0-.101 0 0zM56.051 93.735l.303.813h.809c.1 0 .1 0 .1.101v.102l-.605.508.202.812c0 .102 0 .102-.101.102h-.101l-.607-.508-.606.508h-.202v-.102l.202-.812-.606-.508s-.101-.102 0-.203h.909l.303-.813c-.1 0-.1-.101 0 0z"/></g></g><g transform="translate(218 39)"><use fill="#000" filter="url(#c)" xlink:href="#d"/><use fill="#F2F2F2" xlink:href="#d"/></g><g fill-rule="nonzero"><path d="M285.2 94.112h-65.961c-.62 0-1.136-.53-1.136-1.168V49.275c0-.638.516-1.169 1.136-1.169H285.2c.62 0 1.135.531 1.135 1.169v43.669c0 .531-.516 1.168-1.135 1.168z" fill="#41479B"/><path d="M251.032 48h-2.064l-10.942 7.331V48h-5.884v7.331L221.2 48h-2.065c-.619 0-1.135.531-1.135 1.169v.956l9.394 6.269H218v6.056h9.394L218 68.825v.956c0 .638.516 1.169 1.135 1.169h2.065l10.942-7.331v7.331h5.884v-7.331l10.942 7.331h2.064c.62 0 1.136-.531 1.136-1.169v-.956l-9.394-6.269h9.394V56.5h-9.394l9.394-6.269v-.956c0-.744-.516-1.275-1.136-1.275z" fill="#F5F5F5"/><g fill="#FF4B55"><path d="M252.168 57.669H236.89V48h-3.51v9.669h-15.277v3.612h15.278v9.669h3.51v-9.669h15.277z"/><path d="M231.006 56.5l-12.387-8.287c-.31.212-.516.637-.516.956v.106l10.839 7.225h2.064zM240.194 56.5l11.767-7.862A1.131 1.131 0 0 0 250.93 48h-.206l-12.697 8.5h2.168zM229.974 62.556l-11.768 7.863c.207.425.62.637 1.033.637h.206l12.697-8.5h-2.168zM252.168 69.888l-11.045-7.332h-2.168l12.49 8.394c.413-.212.723-.637.723-1.063z"/></g><g fill="#F5F5F5"><path d="M235.45 77.64l.928 2.974 2.89-1.168c.104 0 .31 0 .31.212v.213l-1.755 2.55 2.684 1.593c.104.107.207.213.104.32 0 .105-.104.105-.207.105l-3.097.213.516 3.081c0 .106-.103.319-.206.319s-.206 0-.206-.106l-2.065-2.338-2.064 2.338a.307.307 0 0 1-.413 0c-.104-.107-.104-.107-.104-.213l.517-3.081-3.097-.213c-.103 0-.207-.106-.207-.318 0-.107.104-.213.104-.213l2.683-1.594-1.754-2.55c-.104-.106-.104-.318.103-.425.103 0 .206-.106.206 0l2.89 1.17.93-2.976c-.104-.106.206-.106.31.106zM270.443 56.177l.413 1.488 1.342-.532c.103 0 .103 0 .206.107v.106l-.826 1.275 1.342.744c.103 0 .103.106 0 .212l-.103.106-1.445.107.206 1.487c0 .106 0 .106-.103.106h-.103l-1.032-1.168-1.033 1.168c-.103.107-.103.107-.206 0v-.106l.206-1.487-1.445-.107c-.103 0-.103-.106-.103-.106s0-.106.103-.106l1.342-.744-.826-1.275v-.212h.104l1.341.53.413-1.487c0-.106.104-.106.104-.106.103-.106.103-.106.103 0zM260.843 67.546l.413 1.487 1.342-.531c.103 0 .103 0 .206.106v.106l-.826 1.276 1.342.743c.103 0 .103.106 0 .213l-.103.106-1.445.106.206 1.488c0 .106 0 .106-.103.106h-.103l-1.032-1.169-1.033 1.169c-.103.106-.103.106-.206 0v-.106l.206-1.488-1.445-.106c-.103 0-.103-.106-.103-.106s0-.106.103-.106l1.342-.744-.826-1.275v-.213h.104l1.341.531.413-1.487c0-.106.104-.106.104-.106 0-.107 0-.107.103 0zM279.63 62.658l.413 1.488 1.342-.531c.103 0 .103 0 .206.106v.106l-.826 1.275 1.342.744c.104 0 .104.106 0 .212l-.103.107-1.445.106.206 1.487c0 .107 0 .107-.103.107h-.103l-1.032-1.17-1.033 1.17c-.103.106-.103.106-.206 0v-.107l.206-1.487-1.445-.106c-.103 0-.103-.107-.103-.107s0-.106.103-.106l1.342-.744-.826-1.275v-.212h.104l1.342.531.412-1.487c0-.213.104-.213.207-.107 0-.106 0-.106 0 0zM270.443 82.102l.413 1.488 1.342-.532c.103 0 .103 0 .206.106v.107l-.826 1.275 1.342.744c.103 0 .103.106 0 .212l-.103.106-1.445.107.206 1.487c0 .106 0 .106-.103.106h-.103l-1.032-1.168-1.033 1.168c-.103.107-.103.107-.206 0v-.106l.206-1.487-1.445-.107c-.103 0-.103-.106-.103-.106s0-.106.103-.106l1.342-.744-.826-1.275v-.212h.104l1.341.53.413-1.487c0-.106.104-.106.104-.106.103-.106.103-.106.103 0zM273.85 70.096l-.31 1.062h-1.136c-.103 0-.103.107-.103.107s0 .106.103.106l.93.637-.31 1.063c0 .106 0 .212.103.212h.103l.929-.637.929.637h.206v-.106l-.31-1.063.93-.637c.103 0 .103-.106 0-.213l-.103-.106h-1.136l-.31-1.062c-.31-.107-.516-.107-.516 0z"/></g></g><g transform="translate(244.839 69.25)" fill-rule="nonzero"><path d="M67.2 46.112H1.239c-.62 0-1.136-.53-1.136-1.168V1.275C.103.638.62.106 1.24.106H67.2c.62 0 1.135.531 1.135 1.169v43.669c0 .531-.516 1.168-1.135 1.168z" stroke="#DEDEDE" fill="#FFF"/><ellipse fill="#FF4B55" cx="34.168" cy="23.056" rx="13.006" ry="13.387"/></g><g><g transform="translate(338 111)"><use fill="#000" filter="url(#e)" xlink:href="#f"/><use fill="#F2F2F2" xlink:href="#f"/></g><g fill-rule="nonzero"><path d="M379.279 144.532h-40.557a.723.723 0 0 1-.722-.721v-26.088a.729.729 0 0 1 .722-.723h40.548c.398 0 .721.324.721.723v26.088a.711.711 0 0 1-.712.721z" fill="#41479B"/><path d="M380 117.723a.723.723 0 0 0-.721-.723h-3.24l-13.421 8.791V117h-7.243v8.791L341.962 117h-3.24a.729.729 0 0 0-.722.723v1.87l11.51 7.546H338v7.248h11.51L338 141.939v1.872c0 .399.323.722.722.723h3.24l13.411-8.791v8.791h7.243v-8.793l13.412 8.792h3.24a.723.723 0 0 0 .721-.723v-1.871l-11.506-7.539H380v-7.254h-11.51l11.51-7.543v-1.88z" fill="#F5F5F5"/><g fill="#FF4B55"><path d="M380 128.59h-18.826V117h-4.35v11.59H338v4.35h18.826v11.591h4.35v-11.589H380z"/><path d="M352.676 134.394l-14.66 9.522a.71.71 0 0 0 .705.624h1.001l15.62-10.146h-2.666zM366.416 134.394h-2.658l15.6 10.13a.718.718 0 0 0 .648-.707v-.6l-13.59-8.823zM338 118.527l13.272 8.619h2.658l-15.511-10.073a.717.717 0 0 0-.419.649v.805zM365.284 127.146l14.692-9.546a.712.712 0 0 0-.697-.6h-1.034l-15.627 10.146h2.666z"/></g></g><g fill-rule="nonzero"><path d="M397.286 156.541h-40.565a.723.723 0 0 1-.721-.723v-26.095a.729.729 0 0 1 .722-.723h40.557c.398 0 .721.324.721.723v26.1a.711.711 0 0 1-.714.718z" fill="#41479B"/><path d="M376.281 129h-1.255l-6.711 4.401V129H364.7v4.401L357.986 129h-1.264a.729.729 0 0 0-.722.723v.575l5.76 3.777H356v3.625h5.76l-5.76 3.773v.577c0 .399.323.722.722.723h1.255l6.713-4.404v4.401h3.61v-4.401l6.718 4.401h1.256a.723.723 0 0 0 .726-.72v-.577l-5.765-3.773H377v-3.625h-5.76l5.76-3.777v-.575a.729.729 0 0 0-.719-.723z" fill="#F5F5F5"/><g fill="#FF4B55"><path d="M377 134.798h-9.415V129h-2.166v5.798H356v2.176h9.418v5.796h2.166v-5.796H377z"/><path d="M363.966 134.073l-7.621-4.95a.711.711 0 0 0-.345.6v.04l6.637 4.31h1.33zM369.644 134.075l7.252-4.713a.704.704 0 0 0-.615-.362h-.15l-7.816 5.074h1.329zM363.342 137.696l-7.236 4.705c.125.228.365.37.624.369h.14l7.81-5.075h-1.338zM376.997 142.106l-6.786-4.41h-1.329l7.704 5a.708.708 0 0 0 .411-.59z"/></g><g fill="#F5F5F5"><path d="M366.724 146.729l.549 1.8 1.756-.698a.166.166 0 0 1 .197.246l-1.067 1.553 1.641.936a.163.163 0 0 1-.066.3l-1.88.132.287 1.864a.16.16 0 0 1-.279.132l-1.272-1.387-1.272 1.387a.162.162 0 0 1-.279-.132l.286-1.864-1.879-.132a.162.162 0 0 1-.066-.3l1.641-.936-1.067-1.553a.165.165 0 0 1 .197-.246l1.756.698.55-1.8c-.005-.156.217-.156.266 0zM388.27 133.886l.271.879.854-.345a.08.08 0 0 1 .099.115l-.526.75.804.46a.08.08 0 0 1-.032.15l-.92.066.14.912a.081.081 0 0 1-.14.066l-.624-.68-.624.68a.082.082 0 0 1-.14-.066l.14-.912-.92-.066a.08.08 0 0 1-.032-.15l.804-.46-.525-.75a.08.08 0 0 1 .099-.115l.853.345.271-.88a.075.075 0 0 1 .148 0zM382.311 140.652l.272.879.853-.345a.08.08 0 0 1 .1.115l-.526.75.804.461a.08.08 0 0 1-.033.15l-.919.066.14.912a.081.081 0 0 1-.14.066l-.624-.681-.624.681a.082.082 0 0 1-.14-.066l.14-.912-.92-.066a.08.08 0 0 1-.033-.15l.804-.46-.525-.74a.08.08 0 0 1 .1-.115l.853.345.271-.88a.075.075 0 0 1 .147-.01zM393.897 137.753l.272.879.854-.345a.08.08 0 0 1 .098.115l-.525.75.804.46a.08.08 0 0 1-.033.15l-.919.066.14.912a.081.081 0 0 1-.14.066l-.624-.68-.624.68a.082.082 0 0 1-.14-.066l.14-.912-.92-.066a.08.08 0 0 1-.033-.15l.804-.46-.525-.75a.08.08 0 0 1 .1-.115l.853.345.27-.88a.077.077 0 0 1 .148 0zM388.27 149.357l.271.879.854-.345a.08.08 0 0 1 .099.115l-.526.75.804.46a.08.08 0 0 1-.032.15l-.92.066.14.913a.081.081 0 0 1-.14.066l-.624-.681-.624.68a.083.083 0 0 1-.14-.065l.14-.912-.92-.066a.08.08 0 0 1-.032-.15l.804-.461-.525-.75a.08.08 0 0 1 .099-.115l.853.345.271-.88a.075.075 0 0 1 .148 0zM390.337 142.236l-.213.64-.682.008a.093.093 0 0 0-.056.164l.541.402-.206.648a.089.089 0 0 0 .14.099l.549-.395.549.395a.09.09 0 0 0 .14-.1l-.206-.648.541-.402a.092.092 0 0 0-.057-.163l-.68-.007-.213-.641c-.008-.082-.123-.082-.147 0z"/></g></g></g><g><g transform="translate(127 29)"><use fill="#000" filter="url(#g)" xlink:href="#h"/><use fill="#F2F2F2" xlink:href="#h"/></g><g fill-rule="nonzero"><path d="M168.286 62.882h-40.565a.728.728 0 0 1-.721-.732V35.732a.734.734 0 0 1 .722-.732h40.557c.398 0 .721.328.721.732v26.422a.724.724 0 0 1-.207.515.707.707 0 0 1-.507.213z" fill="#41479B"/><path d="M148.294 38.192l.287.88.919.008a.125.125 0 0 1 .114.087c.017.05 0 .105-.04.138l-.738.548.279.89a.127.127 0 0 1-.046.138.123.123 0 0 1-.143.003l-.75-.54-.75.54a.122.122 0 0 1-.146 0 .125.125 0 0 1-.043-.141l.279-.89-.738-.548a.124.124 0 0 1-.048-.14.122.122 0 0 1 .121-.085l.92-.007.286-.881a.12.12 0 0 1 .119-.102.12.12 0 0 1 .118.102zM148.294 57.137l.287.88.919.008a.125.125 0 0 1 .114.087c.017.05 0 .105-.04.138l-.738.548.279.89a.127.127 0 0 1-.046.138.123.123 0 0 1-.143.003l-.75-.54-.75.54a.122.122 0 0 1-.146 0 .125.125 0 0 1-.043-.14l.279-.89-.738-.549a.124.124 0 0 1-.048-.14.122.122 0 0 1 .121-.085l.92-.007.286-.881a.12.12 0 0 1 .119-.102.12.12 0 0 1 .118.102zM157.64 47.66l.287.88.92.008a.125.125 0 0 1 .114.087c.016.05 0 .105-.041.138l-.738.548.279.89a.127.127 0 0 1-.045.138.123.123 0 0 1-.144.003l-.75-.54-.75.54a.122.122 0 0 1-.146 0 .125.125 0 0 1-.043-.141l.279-.89-.738-.548a.124.124 0 0 1-.047-.14.122.122 0 0 1 .12-.085l.92-.007.287-.881a.123.123 0 0 1 .118-.091c.055 0 .104.037.119.09zM138.949 47.66l.287.88.919.008a.125.125 0 0 1 .114.087c.017.05 0 .105-.04.138l-.739.548.28.89a.127.127 0 0 1-.046.138.123.123 0 0 1-.143.003l-.75-.54-.75.54a.122.122 0 0 1-.146 0 .125.125 0 0 1-.044-.141l.28-.89-.738-.548a.124.124 0 0 1-.048-.14.122.122 0 0 1 .121-.085l.92-.007.286-.881a.123.123 0 0 1 .119-.091c.055 0 .103.037.118.09zM140.353 42.714l.287.88.919.008a.125.125 0 0 1 .114.087c.017.05 0 .105-.04.138l-.739.548.28.89a.127.127 0 0 1-.046.139.123.123 0 0 1-.143.002l-.75-.54-.75.54a.122.122 0 0 1-.146 0 .125.125 0 0 1-.044-.14l.28-.89-.738-.549a.124.124 0 0 1-.048-.14.122.122 0 0 1 .121-.085l.92-.007.286-.88a.123.123 0 0 1 .118-.092c.056 0 .104.037.119.091zM156.541 52.191l.287.88.919.008a.125.125 0 0 1 .114.087c.017.05 0 .105-.04.138l-.739.548.28.89a.127.127 0 0 1-.046.139.123.123 0 0 1-.144.002l-.75-.54-.75.54a.122.122 0 0 1-.145 0 .125.125 0 0 1-.044-.14l.28-.89-.739-.549a.124.124 0 0 1-.047-.14.122.122 0 0 1 .121-.085l.92-.007.286-.88a.12.12 0 0 1 .118-.103.12.12 0 0 1 .119.102zM153.12 39.247l.286.881.92.008a.125.125 0 0 1 .114.086c.016.05 0 .105-.041.138l-.738.549.279.89a.127.127 0 0 1-.045.138.123.123 0 0 1-.144.003l-.75-.541-.75.54a.122.122 0 0 1-.146 0 .125.125 0 0 1-.043-.14l.279-.89-.738-.549a.124.124 0 0 1-.047-.14.122.122 0 0 1 .12-.084l.92-.008.287-.88a.123.123 0 0 1 .118-.092c.055 0 .104.037.118.091zM143.774 55.656l.287.881.92.008a.125.125 0 0 1 .114.086c.016.05 0 .106-.041.138l-.738.549.279.89a.127.127 0 0 1-.045.138.123.123 0 0 1-.144.003l-.75-.54-.75.54a.122.122 0 0 1-.146 0 .125.125 0 0 1-.043-.141l.279-.89-.738-.549a.124.124 0 0 1-.047-.14.122.122 0 0 1 .12-.084l.92-.008.286-.88a.12.12 0 0 1 .119-.103.12.12 0 0 1 .118.102zM156.307 42.714l-.287.88-.919.008a.125.125 0 0 0-.114.087c-.017.05 0 .105.04.138l.738.548-.279.89a.127.127 0 0 0 .046.139c.042.031.1.032.143.002l.75-.54.75.54a.122.122 0 0 0 .146 0 .125.125 0 0 0 .043-.14l-.279-.89.738-.549a.124.124 0 0 0 .048-.14.122.122 0 0 0-.121-.085l-.92-.007-.286-.88a.123.123 0 0 0-.119-.092.123.123 0 0 0-.118.091zM140.119 52.191l-.287.88-.919.008a.125.125 0 0 0-.114.087c-.017.05 0 .105.04.138l.738.548-.279.89a.127.127 0 0 0 .046.139c.042.031.1.033.143.002l.75-.54.75.54a.122.122 0 0 0 .146 0 .125.125 0 0 0 .043-.14l-.278-.89.738-.549a.124.124 0 0 0 .047-.14.122.122 0 0 0-.121-.085l-.92-.007-.286-.88a.12.12 0 0 0-.118-.103.12.12 0 0 0-.119.102zM143.54 39.249l-.286.88-.92.008a.125.125 0 0 0-.114.087c-.016.05 0 .105.041.138l.738.548-.279.89a.127.127 0 0 0 .045.138c.043.032.1.033.144.003l.75-.54.75.54a.122.122 0 0 0 .146 0 .125.125 0 0 0 .043-.141l-.279-.89.738-.548a.124.124 0 0 0 .047-.14.122.122 0 0 0-.12-.085h-.911l-.286-.88a.128.128 0 0 0-.12-.1.128.128 0 0 0-.126.092zM152.886 55.656l-.287.881-.92.008a.125.125 0 0 0-.114.086c-.016.05 0 .106.041.138l.738.549-.279.89a.127.127 0 0 0 .045.138c.043.032.1.033.144.003l.75-.54.75.54a.122.122 0 0 0 .146 0 .125.125 0 0 0 .043-.141l-.279-.89.738-.549a.124.124 0 0 0 .047-.14.122.122 0 0 0-.12-.084l-.92-.008-.286-.88a.12.12 0 0 0-.119-.103.12.12 0 0 0-.118.102z" fill="#FFE15A"/></g><g fill-rule="nonzero"><path d="M186.286 75.03h-40.565a.728.728 0 0 1-.721-.732V47.88a.734.734 0 0 1 .721-.732h40.557c.4.001.722.328.722.732v26.422a.724.724 0 0 1-.207.515.707.707 0 0 1-.507.213z" fill="#F5F5F5"/><path fill="#F5F5F5" d="M154.418 47.148h23.178V75.03h-23.178z"/><path d="M145.721 47.148a.734.734 0 0 0-.721.732v26.422c0 .404.323.731.722.732h8.689V47.148h-8.69zM186.289 47.148h-8.7V75.03h8.688a.728.728 0 0 0 .721-.732V47.88a.722.722 0 0 0-.709-.732zM170.403 64.313l4.299-2.485-.984-.498a.734.734 0 0 1-.395-.76l.32-2.43-1.821.541a.72.72 0 0 1-.573-.075.736.736 0 0 1-.338-.473l-.173-.799-1.707 2.03a.354.354 0 0 1-.428.093.363.363 0 0 1-.196-.398l.731-4.297-1.116.304a.71.71 0 0 1-.828-.366l-1.19-2.231-1.173 2.237a.73.73 0 0 1-.828.366l-1.116-.304.731 4.297a.363.363 0 0 1-.195.398.354.354 0 0 1-.429-.094l-1.707-2.04-.172.798a.736.736 0 0 1-.339.473.72.72 0 0 1-.572.075l-1.821-.54.32 2.43a.74.74 0 0 1-.395.759l-.984.498 4.299 2.485c.443.26.637.804.459 1.29l-.369.997 3.684-.316a.338.338 0 0 1 .264.095c.07.068.109.164.105.262l-.115 3.991h.721l-.116-3.99a.347.347 0 0 1 .106-.263.338.338 0 0 1 .264-.095l3.684.316-.37-.997c-.18-.485.017-1.03.463-1.284z" fill="#FF4B55"/></g></g><g><g transform="translate(158 125)"><use fill="#000" filter="url(#i)" xlink:href="#j"/><use fill="#F2F2F2" xlink:href="#j"/></g><g fill-rule="nonzero"><path d="M189.5 149.344h-30.92a.529.529 0 0 1-.532-.516v-19.266c0-.28.242-.515.533-.515H189.5c.29 0 .532.234.532.516v19.265c0 .234-.242.516-.532.516z" fill="#41479B"/><g fill="#FFE15A"><path d="M174.247 131.31l.242.657h.678c.048 0 .097.047.097.093 0 .047 0 .047-.049.047l-.58.422.193.656c0 .047 0 .094-.048.094h-.097l-.58-.375-.581.375c-.049.047-.097 0-.146 0 0-.047-.048-.047 0-.094l.194-.656-.58-.422c-.049-.047-.049-.093 0-.14 0-.047.048-.047.096-.047h.678l.241-.656c0-.047.049-.094.097-.047a.6.6 0 0 1 .145.093zM174.247 145.139l.242.656h.678c.048 0 .097.047.097.094 0 .046 0 .046-.049.046l-.58.422.193.657c0 .046 0 .093-.048.093h-.097l-.58-.375-.581.375c-.049.047-.097 0-.146 0 0-.047-.048-.047 0-.093l.194-.657-.58-.422c-.049-.046-.049-.093 0-.14 0-.047.048-.047.096-.047h.678l.241-.656c0-.047.049-.094.097-.047.097.047.145.047.145.094zM181.36 138.248l.242.656h.678c.048 0 .096.047.096.094s0 .047-.048.047l-.58.422.193.656c0 .047 0 .094-.048.094h-.097l-.58-.375-.581.375c-.049.047-.097 0-.146 0 0-.047-.048-.047 0-.094l.194-.656-.58-.422c-.05-.047-.05-.094 0-.14 0-.048.048-.048.096-.048h.677l.242-.656c0-.047.049-.094.097-.047.097.047.145.047.145.094zM167.135 138.248l.241.656h.678c.048 0 .097.047.097.094s0 .047-.049.047l-.58.422.193.656c0 .047 0 .094-.048.094h-.097l-.58-.375-.581.375c-.049.047-.097 0-.145 0 0-.047-.049-.047 0-.094l.193-.656-.58-.422c-.049-.047-.049-.094 0-.14 0-.048.048-.048.096-.048h.678l.242-.656c0-.047.048-.094.096-.047.097.047.097.047.146.094zM168.199 134.639l.242.656h.677c.049 0 .097.047.097.094 0 .046 0 .046-.048.046l-.58.422.193.657c0 .046 0 .093-.049.093h-.096l-.581-.375-.58.375c-.05.047-.098 0-.146 0 0-.047-.048-.047 0-.093l.194-.657-.581-.422c-.048-.046-.048-.093 0-.14 0-.047.048-.047.097-.047h.677l.242-.656c0-.047.048-.094.097-.047.097.047.145.047.145.094zM180.538 141.53l.242.655h.677c.048 0 .097.047.097.094s0 .047-.049.047l-.58.422.193.656c0 .047 0 .094-.048.094h-.097l-.58-.375-.581.375c-.048.047-.097 0-.145 0 0-.047-.049-.047 0-.094l.193-.656-.58-.422c-.049-.047-.049-.094 0-.14 0-.047.048-.047.096-.047h.678l.242-.657c0-.047.048-.093.097-.047.096.047.145.047.145.094zM177.925 132.107l.242.657h.677c.049 0 .097.046.097.093s0 .047-.048.047l-.581.422.193.656c0 .047 0 .094-.048.094h-.097l-.58-.375-.581.375c-.048.047-.097 0-.145 0v-.094l.193-.656-.58-.422c-.049-.047-.049-.094 0-.14 0-.047.048-.047.097-.047h.677l.242-.657c0-.046.048-.093.097-.046.096.046.145.046.145.093zM170.812 144.06l.242.657h.677c.049 0 .097.047.097.093 0 .047 0 .047-.048.047l-.581.422.194.656c0 .047 0 .094-.049.094h-.097l-.58-.375-.58.375c-.05.047-.098 0-.146 0 0-.047-.048-.047 0-.094l.194-.656-.581-.422c-.049-.047-.049-.093 0-.14 0-.047.048-.047.097-.047h.677l.242-.656c0-.047.048-.094.097-.047.097.047.097.047.145.093zM180.344 134.639l-.242.656h-.677c-.049 0-.097.047-.097.094 0 .046 0 .046.048.046l.581.422-.193.657c0 .046 0 .093.048.093h.097l.58-.375.581.375c.048.047.097 0 .145 0 0-.047.049-.047 0-.093l-.193-.657.58-.422c.049-.046.049-.093 0-.14 0-.047-.048-.047-.097-.047h-.677l-.242-.656c0-.047-.048-.094-.097-.047-.096.047-.145.047-.145.094zM168.005 141.53l-.241.655h-.678c-.048 0-.097.047-.097.094s0 .047.049.047l.58.422-.193.656c0 .047 0 .094.048.094h.097l.58-.375.581.375c.049.047.097 0 .145 0v-.094l-.193-.656.58-.422c.049-.047.049-.094 0-.14 0-.047-.048-.047-.096-.047h-.678l-.242-.657c0-.047-.048-.093-.096-.047-.097.047-.146.047-.146.094zM170.618 132.107l-.242.657h-.677c-.048 0-.097.046-.097.093s0 .047.049.047l.58.422-.193.656c0 .047 0 .094.048.094h.097l.58-.375.581.375c.049.047.097 0 .145 0 0-.047.049-.047 0-.094l-.193-.656.58-.422c.049-.047.049-.094 0-.14 0-.047-.048-.047-.096-.047h-.678l-.242-.657c0-.046-.048-.093-.096-.046-.097.046-.146.046-.146.093zM177.731 144.06l-.242.657h-.677c-.048 0-.097.047-.097.093 0 .047 0 .047.049.047l.58.422-.193.656c0 .047 0 .094.048.094h.097l.58-.375.581.375c.048.047.097 0 .145 0 0-.047.049-.047 0-.094l-.193-.656.58-.422c.049-.047.049-.093 0-.14 0-.047-.048-.047-.096-.047h-.678l-.242-.656c0-.047-.048-.094-.097-.047-.096.047-.145.047-.145.093z"/></g></g><g fill-rule="nonzero"><path d="M202.08 158.719h-30.919a.529.529 0 0 1-.532-.516v-19.266c0-.28.242-.515.532-.515h30.92c.29 0 .532.234.532.516v19.265c0 .234-.242.469-.532.516z" fill="#41479B"/><path d="M202.613 138.89a.529.529 0 0 0-.532-.515h-2.468l-10.21 6.469v-6.469h-5.516v6.469l-10.21-6.469h-2.467a.529.529 0 0 0-.533.516v1.359l8.758 5.578h-8.758v5.344h8.758l-8.758 5.578v1.36c0 .28.242.515.533.515h2.467l10.21-6.469v6.469h5.516v-6.469l10.21 6.469h2.468c.29 0 .532-.234.532-.516v-1.359l-8.758-5.578h8.806v-5.344h-8.758l8.758-5.578v-1.36h-.048z" fill="#F5F5F5"/><g fill="#FF4B55"><path d="M202.613 146.953h-14.371v-8.578h-3.339v8.578h-14.37v3.234h14.37v8.579h3.339v-8.578h14.37z"/><path d="M181.758 151.219l-11.177 7.031c.048.281.242.469.532.469h.774l11.903-7.5h-2.032zM192.258 151.219h-2.032l11.903 7.5c.29-.047.484-.235.484-.516v-.422l-10.355-6.562zM170.58 139.5l10.114 6.375h2.032l-11.807-7.453c-.193.094-.338.281-.338.469v.609zM191.387 145.875l11.226-7.031a.563.563 0 0 0-.532-.422h-.775l-11.903 7.5h1.984v-.047z"/></g></g></g><g><g transform="translate(307 2)"><use fill="#000" filter="url(#k)" xlink:href="#l"/><use fill="#F2F2F2" xlink:href="#l"/></g><g fill-rule="nonzero"><path d="M338.418 27.429h-29.335a.53.53 0 0 1-.522-.536V7.607c0-.29.231-.528.522-.536h29.328a.53.53 0 0 1 .522.536v19.286a.52.52 0 0 1-.515.536z" fill="#F5F5F5"/><g fill="#FF4B55"><path d="M338.94 8.638H308.56v-1.03c0-.291.231-.529.522-.537h29.328a.53.53 0 0 1 .522.536l.006 1.032v-.001zM308.561 13.335h30.378v1.566h-30.378zM308.561 10.203h30.378v1.567h-30.378zM338.94 18.033h-29.857a.53.53 0 0 1-.522-.535v-1.031h30.378v1.566zM308.561 22.73h30.378v1.567h-30.378zM338.418 27.429h-29.335a.53.53 0 0 1-.522-.536v-1.03h30.378v1.03a.53.53 0 0 1-.521.536zM308.561 19.599h30.378v1.566h-30.378z"/></g><path d="M322.178 7.071h-13.095a.536.536 0 0 0-.522.536V17.5a.53.53 0 0 0 .522.535h13.095a.53.53 0 0 0 .522-.535V7.607a.53.53 0 0 0-.522-.536z" fill="#41479B"/><g fill="#F5F5F5"><path d="M310.033 8.304l.12.357h.367a.051.051 0 0 1 .03.092l-.297.225.112.357a.05.05 0 0 1-.077.055l-.297-.214-.296.214a.05.05 0 0 1-.077-.055l.112-.357-.297-.225a.051.051 0 0 1 .03-.092h.368l.119-.357c.006-.049.065-.049.083 0zM310.033 10.156l.12.358h.367a.051.051 0 0 1 .03.091l-.297.225.112.358a.05.05 0 0 1-.077.055l-.297-.215-.296.215a.05.05 0 0 1-.077-.055l.112-.358-.297-.225a.051.051 0 0 1 .03-.091h.368l.119-.358c.006-.037.065-.037.083 0zM310.033 12.025l.12.358h.367a.051.051 0 0 1 .03.09l-.297.226.112.36a.05.05 0 0 1-.077.055l-.297-.214-.296.214a.05.05 0 0 1-.077-.054l.112-.358-.297-.225a.051.051 0 0 1 .03-.091h.368l.119-.358c.006-.052.065-.052.083-.003zM310.033 13.876l.12.358h.367a.051.051 0 0 1 .03.091l-.297.225.112.358a.05.05 0 0 1-.077.055l-.297-.215-.296.215a.05.05 0 0 1-.077-.055l.112-.358-.297-.225a.051.051 0 0 1 .03-.091h.368l.119-.358c.006-.037.065-.037.083 0zM310.033 15.745l.12.358h.367a.051.051 0 0 1 .03.09l-.297.226.112.357a.05.05 0 0 1-.077.055l-.297-.214-.296.214a.05.05 0 0 1-.077-.055l.112-.357-.297-.225a.051.051 0 0 1 .03-.091h.368l.119-.358c.006-.049.065-.049.083 0zM311.445 9.214l.12.358h.367a.051.051 0 0 1 .03.091l-.297.225.113.358a.05.05 0 0 1-.078.055l-.296-.215-.297.215a.05.05 0 0 1-.077-.055l.112-.358-.297-.225a.051.051 0 0 1 .03-.09h.368l.119-.359c.006-.048.065-.048.083 0zM311.445 11.066l.12.358h.367a.051.051 0 0 1 .03.09l-.297.226.113.358a.05.05 0 0 1-.078.054l-.296-.214-.297.214a.05.05 0 0 1-.077-.054l.112-.358-.297-.225a.051.051 0 0 1 .03-.091h.368l.119-.358c.006-.038.065-.038.083 0zM311.445 12.934l.12.358h.367a.051.051 0 0 1 .03.091l-.297.225.113.361a.05.05 0 0 1-.078.055l-.296-.214-.297.214a.05.05 0 0 1-.077-.055l.112-.358-.297-.225a.051.051 0 0 1 .03-.09h.368l.119-.358c.006-.052.065-.052.083-.004zM311.445 14.798l.12.357h.367a.051.051 0 0 1 .03.091l-.297.225.113.358a.05.05 0 0 1-.078.055l-.296-.214-.297.214a.05.05 0 0 1-.077-.055l.112-.358-.297-.225a.051.051 0 0 1 .03-.09h.368l.119-.358c.006-.049.065-.049.083 0zM312.858 8.304l.118.357h.368a.051.051 0 0 1 .03.092l-.297.225.113.357a.05.05 0 0 1-.077.055l-.297-.214-.297.214a.05.05 0 0 1-.077-.055l.112-.357-.296-.225a.051.051 0 0 1 .03-.092h.367l.119-.357c.001-.049.065-.049.084 0zM312.858 10.156l.118.358h.368a.051.051 0 0 1 .03.091l-.302.225.112.358a.05.05 0 0 1-.077.055l-.297-.215-.296.215a.05.05 0 0 1-.078-.055l.113-.358-.297-.225a.051.051 0 0 1 .03-.091h.368l.119-.358c.005-.037.07-.037.089 0zM312.858 12.025l.118.358h.368a.051.051 0 0 1 .03.09l-.297.226.113.36a.05.05 0 0 1-.077.055l-.297-.214-.297.214a.05.05 0 0 1-.077-.054l.112-.358-.296-.228a.051.051 0 0 1 .03-.091h.367l.119-.358c.001-.049.065-.049.084 0zM312.858 13.876l.118.358h.368a.051.051 0 0 1 .03.091l-.297.225.113.358a.05.05 0 0 1-.077.055l-.297-.215-.297.215a.05.05 0 0 1-.077-.055l.112-.358-.296-.225a.051.051 0 0 1 .03-.091h.367l.119-.358c.001-.037.065-.037.084 0zM312.858 15.745l.118.358h.368a.051.051 0 0 1 .03.09l-.297.226.113.357a.05.05 0 0 1-.077.055l-.297-.214-.297.214a.05.05 0 0 1-.077-.055l.112-.357-.296-.225a.051.051 0 0 1 .03-.091h.367l.119-.358c.001-.049.065-.049.084 0zM314.27 9.214l.119.358h.367a.051.051 0 0 1 .03.091l-.297.225.113.358a.05.05 0 0 1-.077.055l-.297-.215-.297.215a.05.05 0 0 1-.077-.055l.112-.358-.296-.225a.051.051 0 0 1 .03-.09h.367l.12-.359c0-.048.064-.048.083 0zM314.27 11.066l.119.358h.367a.051.051 0 0 1 .03.09l-.297.226.113.358a.05.05 0 0 1-.077.054l-.297-.214-.297.214a.05.05 0 0 1-.077-.054l.112-.358-.296-.225a.051.051 0 0 1 .03-.091h.367l.12-.358c0-.038.064-.038.083 0zM314.27 12.934l.119.358h.367a.051.051 0 0 1 .03.091l-.297.225.113.361a.05.05 0 0 1-.077.055l-.297-.214-.297.214a.05.05 0 0 1-.077-.055l.112-.358-.296-.225a.051.051 0 0 1 .03-.09h.367l.12-.358c0-.052.064-.052.083-.004zM314.27 14.798l.119.357h.367a.051.051 0 0 1 .03.091l-.297.225.113.358a.05.05 0 0 1-.077.055l-.297-.214-.297.214a.05.05 0 0 1-.077-.055l.112-.358-.296-.225a.051.051 0 0 1 .03-.09h.367l.12-.358c0-.049.064-.049.083 0zM315.682 8.304l.119.357h.367a.051.051 0 0 1 .03.092l-.297.225.113.357a.05.05 0 0 1-.077.055l-.297-.214-.297.214a.05.05 0 0 1-.077-.055l.113-.357-.297-.225a.051.051 0 0 1 .03-.092h.367l.12-.357c0-.049.065-.049.083 0zM315.682 10.156l.119.358h.367a.051.051 0 0 1 .03.091l-.297.225.113.358a.05.05 0 0 1-.077.055l-.297-.215-.297.215a.05.05 0 0 1-.077-.055l.113-.358-.297-.225a.051.051 0 0 1 .03-.091h.367l.12-.358c0-.037.065-.037.083 0zM315.682 12.025l.119.358h.367a.051.051 0 0 1 .03.09l-.297.226.113.357a.05.05 0 0 1-.077.055l-.297-.214-.297.214a.05.05 0 0 1-.077-.055l.113-.357-.297-.225a.051.051 0 0 1 .03-.091h.367l.12-.358c0-.049.065-.049.083 0zM315.682 13.876l.119.358h.367a.051.051 0 0 1 .03.091l-.297.225.113.358a.05.05 0 0 1-.077.055l-.297-.215-.297.215a.05.05 0 0 1-.077-.055l.113-.358-.297-.225a.051.051 0 0 1 .03-.091h.367l.12-.358c0-.037.065-.037.083 0zM315.682 15.745l.119.358h.367a.051.051 0 0 1 .03.09l-.297.226.113.357a.05.05 0 0 1-.077.055l-.297-.214-.297.214a.05.05 0 0 1-.077-.055l.113-.357-.297-.225a.051.051 0 0 1 .03-.091h.367l.12-.358c0-.049.065-.049.083 0zM317.094 9.214l.119.358h.367a.051.051 0 0 1 .03.091l-.296.225.112.358a.05.05 0 0 1-.077.055l-.297-.215-.297.215a.05.05 0 0 1-.077-.055l.113-.358-.297-.225a.051.051 0 0 1 .03-.09h.367l.12-.359c0-.048.065-.048.083 0zM317.094 11.066l.119.358h.367a.051.051 0 0 1 .03.09l-.296.226.112.358a.05.05 0 0 1-.077.054l-.297-.214-.297.214a.05.05 0 0 1-.077-.054l.113-.358-.297-.225a.051.051 0 0 1 .03-.091h.367l.12-.358c0-.038.065-.038.083 0zM317.094 12.934l.119.358h.367a.051.051 0 0 1 .03.091l-.296.225.112.358a.05.05 0 0 1-.077.055l-.297-.215-.297.215a.05.05 0 0 1-.077-.055l.113-.358-.297-.225a.051.051 0 0 1 .03-.09h.367l.12-.359c0-.048.065-.048.083 0zM317.094 14.798l.119.357h.367a.051.051 0 0 1 .03.091l-.296.225.112.358a.05.05 0 0 1-.077.055l-.297-.214-.297.214a.05.05 0 0 1-.077-.055l.113-.358-.297-.225a.051.051 0 0 1 .03-.09h.367l.12-.358c0-.049.065-.049.083 0zM318.5 8.304l.119.357h.367a.051.051 0 0 1 .03.092l-.297.225.113.357a.05.05 0 0 1-.077.055l-.297-.214-.297.214a.05.05 0 0 1-.077-.055l.112-.357-.296-.225a.051.051 0 0 1 .03-.092h.367l.12-.357a.042.042 0 1 1 .083 0zM318.5 10.156l.119.358h.367a.051.051 0 0 1 .03.091l-.297.225.113.358a.05.05 0 0 1-.077.055l-.297-.215-.297.215a.05.05 0 0 1-.077-.055l.112-.358-.296-.225a.051.051 0 0 1 .03-.091h.367l.12-.358c.006-.037.07-.037.083 0zM318.5 12.025l.119.358h.367a.051.051 0 0 1 .03.09l-.297.226.113.357a.05.05 0 0 1-.077.055l-.297-.214-.297.214a.05.05 0 0 1-.077-.055l.112-.357-.296-.225a.051.051 0 0 1 .03-.091h.367l.12-.358a.042.042 0 1 1 .083 0zM318.5 13.876l.119.358h.367a.051.051 0 0 1 .03.091l-.297.225.113.358a.05.05 0 0 1-.077.055l-.297-.215-.297.215a.05.05 0 0 1-.077-.055l.112-.358-.296-.225a.051.051 0 0 1 .03-.091h.367l.12-.358c.006-.037.07-.037.083 0zM318.5 15.745l.119.358h.367a.051.051 0 0 1 .03.09l-.297.226.113.357a.05.05 0 0 1-.077.055l-.297-.214-.297.214a.05.05 0 0 1-.077-.055l.112-.357-.296-.225a.051.051 0 0 1 .03-.091h.367l.12-.358a.042.042 0 1 1 .083 0zM319.912 9.214l.119.358h.367a.051.051 0 0 1 .03.091l-.297.225.113.358a.05.05 0 0 1-.077.055l-.297-.215-.297.215a.05.05 0 0 1-.077-.055l.113-.358-.297-.225a.051.051 0 0 1 .03-.09h.367l.12-.359a.042.042 0 1 1 .083 0zM319.912 11.066l.119.358h.367a.051.051 0 0 1 .03.09l-.297.226.113.358a.05.05 0 0 1-.077.054l-.297-.214-.297.214a.05.05 0 0 1-.077-.054l.113-.358-.297-.225a.051.051 0 0 1 .03-.091h.367l.12-.358c.006-.038.071-.038.083 0zM319.912 12.934l.119.358h.367a.051.051 0 0 1 .03.091l-.297.225.113.358a.05.05 0 0 1-.077.055l-.297-.215-.297.215a.05.05 0 0 1-.077-.055l.113-.358-.297-.225a.051.051 0 0 1 .03-.09h.367l.12-.359a.042.042 0 1 1 .083 0zM319.912 14.798l.119.357h.367a.051.051 0 0 1 .03.091l-.297.225.113.358a.05.05 0 0 1-.077.055l-.297-.214-.297.214a.05.05 0 0 1-.077-.055l.113-.358-.297-.225a.051.051 0 0 1 .03-.09h.367l.12-.358a.042.042 0 1 1 .083 0zM321.324 8.304l.119.357h.367a.051.051 0 0 1 .03.092l-.296.225.112.357a.05.05 0 0 1-.077.055l-.297-.214-.297.214a.05.05 0 0 1-.077-.055l.113-.357-.297-.225a.051.051 0 0 1 .03-.092h.367l.12-.357a.042.042 0 1 1 .083 0zM321.324 10.156l.119.358h.367a.051.051 0 0 1 .03.091l-.296.225.112.358a.05.05 0 0 1-.077.055l-.297-.215-.297.215a.05.05 0 0 1-.077-.055l.113-.358-.297-.225a.051.051 0 0 1 .03-.091h.367l.12-.358c.006-.037.071-.037.083 0zM321.324 12.025l.119.358h.367a.051.051 0 0 1 .03.09l-.296.226.112.357a.05.05 0 0 1-.077.055l-.297-.214-.297.214a.05.05 0 0 1-.077-.055l.113-.357-.297-.225a.051.051 0 0 1 .03-.091h.367l.12-.358a.042.042 0 1 1 .083 0zM321.324 13.876l.119.358h.367a.051.051 0 0 1 .03.091l-.296.225.112.358a.05.05 0 0 1-.077.055l-.297-.215-.297.215a.05.05 0 0 1-.077-.055l.113-.358-.297-.225a.051.051 0 0 1 .03-.091h.367l.12-.358c.006-.037.071-.037.083 0zM321.324 15.745l.119.358h.367a.051.051 0 0 1 .03.09l-.296.226.112.357a.05.05 0 0 1-.077.055l-.297-.214-.297.214a.05.05 0 0 1-.077-.055l.113-.357-.297-.225a.051.051 0 0 1 .03-.091h.367l.12-.358a.042.042 0 1 1 .083 0z"/></g></g><g fill-rule="nonzero"><path fill="#FF4B55" d="M322 14.571h30v20.316h-30z"/><path fill="#FFF" d="M334.788 31.791v-5.078h-4.92v-4.015h4.92v-5.08h3.887v5.08h4.918v4.015h-4.918v5.08z"/></g></g></g></svg>