<svg width="350" height="104" viewBox="0 0 350 104" xmlns="http://www.w3.org/2000/svg"><title>Metals_Image</title><g fill="none" fill-rule="evenodd"><ellipse fill-opacity=".1" fill="#000" cx="175" cy="101.172" rx="175" ry="2.734"/><g fill-rule="nonzero"><path d="M347.05 95.156H239.2a1.876 1.876 0 0 1-1.856-1.861V23.737c0-1.016.844-1.862 1.856-1.862h107.85c1.012 0 1.856.846 1.856 1.862v69.558c0 .846-.844 1.692-1.856 1.861z" fill="#F5F5F5"/><g fill="#FF4B55"><path d="M348.734 27.496h-111.39v-3.747c0-1.022.841-1.874 1.85-1.874h107.521c1.01 0 1.851.852 1.851 1.874l.168 3.747zM237.344 44.529h111.39v5.62h-111.39zM237.344 33.287h111.39v5.62h-111.39zM348.734 61.562h-109.54c-1.009 0-1.85-.852-1.85-1.874v-3.747h111.39v5.62zM237.344 78.765h111.39v5.62h-111.39zM346.884 95.798H239.363c-1.01 0-1.851-.852-1.851-1.874v-3.747h111.39v3.747c-.168.852-1.009 1.874-2.018 1.874zM237.344 67.353h111.39v5.62h-111.39z"/></g><path d="M286.908 21.875h-47.722c-1.005 0-1.842.845-1.842 1.859V59.39c0 1.014.837 1.859 1.842 1.859h47.722c1.005 0 1.842-.845 1.842-1.859V23.734c0-1.014-.837-1.859-1.842-1.859z" fill="#41479B"/><g fill="#F5F5F5"><path d="M242.832 26.42l.509 1.356h1.358c.17 0 .17.17.17.17v.169l-1.019.848.34 1.356c0 .17 0 .17-.17.17h-.17l-1.018-.848-1.019.848h-.34v-.17l.34-1.356-1.018-.848s-.17-.17 0-.34h1.527l.51-1.355c-.17-.17 0-.17 0 0zM242.832 33.032l.509 1.356h1.358c.17 0 .17.17.17.17v.17l-1.019.847.34 1.357c0 .17 0 .17-.17.17h-.17l-1.018-.849-1.019.848h-.34v-.17l.34-1.356-1.018-.848s-.17-.17 0-.339h1.527l.51-1.356c-.17-.17 0-.17 0 0zM242.832 39.814l.509 1.356h1.358c.17 0 .17.17.17.17v.17l-1.019.847.34 1.357c0 .17 0 .17-.17.17h-.17l-1.018-.849-1.019.848h-.34v-.17l.34-1.356-1.018-.848s-.17-.17 0-.339h1.527l.51-1.356c-.17-.17 0-.17 0 0zM242.832 46.596l.509 1.356h1.358c.17 0 .17 0 .17.17v.17l-1.019.847.34 1.357c0 .17 0 .17-.17.17h-.17l-1.018-.849-1.019.848h-.34v-.17l.34-1.356-1.018-.848s-.17-.17 0-.339h1.527l.51-1.356c-.17-.17 0-.17 0 0zM242.832 53.208l.509 1.357h1.358c.17 0 .17 0 .17.17v.169l-1.019.848.34 1.356c0 .17 0 .17-.17.17h-.17l-1.018-.848-1.019.848h-.34v-.17l.34-1.356-1.018-.848s-.17-.17 0-.34h1.527l.51-1.356c-.17-.17 0-.17 0 0zM248.093 29.641l.51 1.356h1.358c.17 0 .17.17.17.17v.17l-1.02.847.34 1.357c0 .17 0 .17-.17.17h-.17l-1.018-.849-1.018.848h-.34v-.17l.34-1.356-1.018-.848s-.17-.17 0-.339h1.527l.51-1.356c-.17-.17 0-.17 0 0zM248.093 36.423l.51 1.356h1.358c.17 0 .17.17.17.17v.17l-1.02.847.34 1.357c0 .17 0 .17-.17.17h-.17l-1.018-.849-1.018.848h-.34v-.17l.34-1.356-1.018-.848s-.17-.17 0-.339h1.527l.51-1.356c-.17-.17 0-.17 0 0zM248.093 43.035l.51 1.357h1.358c.17 0 .17.17.17.17v.169l-1.02.848.34 1.356c0 .17 0 .17-.17.17h-.17l-1.018-.848-1.018.848h-.34v-.17l.34-1.356-1.018-.848s-.17-.17 0-.34h1.527l.51-1.356c-.17-.17 0-.17 0 0zM248.093 49.817l.51 1.357h1.358c.17 0 .17.17.17.17v.169l-1.02.848.34 1.356c0 .17 0 .17-.17.17h-.17l-1.018-.848-1.018.848h-.34v-.17l.34-1.356-1.018-.848s-.17-.17 0-.34h1.527l.51-1.356c-.17-.17 0-.17 0 0zM253.355 26.42l.51 1.356h1.357c.17 0 .17.17.17.17v.169l-1.018.848.34 1.356c0 .17 0 .17-.17.17h-.17l-1.019-.848-1.018.848h-.34v-.17l.34-1.356-1.019-.848s-.17-.17 0-.34h1.528l.51-1.355c-.34-.17 0-.17 0 0zM253.355 33.032l.51 1.356h1.357c.17 0 .17.17.17.17v.17l-1.188.847.34 1.357c0 .17 0 .17-.17.17h-.17l-1.018-.849-1.019.848h-.34v-.17l.34-1.356-1.018-.848s-.17-.17 0-.339h1.527l.51-1.356c-.17-.17.17-.17.17 0zM253.355 39.814l.51 1.356h1.357c.17 0 .17.17.17.17v.17l-1.018.847.34 1.357c0 .17 0 .17-.17.17h-.17l-1.019-.849-1.018.848h-.34v-.17l.34-1.356-1.019-.848s-.17-.17 0-.339h1.528l.51-1.356c-.34-.17 0-.17 0 0zM253.355 46.596l.51 1.356h1.357c.17 0 .17.17.17.17v.17l-1.018.847.34 1.357c0 .17 0 .17-.17.17h-.17l-1.019-.849-1.018.848h-.34v-.17l.34-1.356-1.019-.848s-.17-.17 0-.339h1.528l.51-1.356c-.34-.17 0-.17 0 0zM253.355 53.208l.51 1.357h1.357c.17 0 .17 0 .17.17v.169l-1.018.848.34 1.356c0 .17 0 .17-.17.17h-.17l-1.019-.848-1.018.848h-.34v-.17l.34-1.356-1.019-.848s-.17-.17 0-.34h1.528l.51-1.356c-.34-.17 0-.17 0 0zM258.617 29.641l.51 1.356h1.357c.17 0 .17.17.17.17v.17l-1.018.847.339 1.357c0 .17 0 .17-.17.17h-.17l-1.018-.849-1.018.848h-.34v-.17l.34-1.356-1.019-.848s-.17-.17 0-.339h1.528l.51-1.356c-.34-.17-.17-.17 0 0zM258.617 36.423l.51 1.356h1.357c.17 0 .17.17.17.17v.17l-1.018.847.339 1.357c0 .17 0 .17-.17.17h-.17l-1.018-.849-1.018.848h-.34v-.17l.34-1.356-1.019-.848s-.17-.17 0-.339h1.528l.51-1.356c-.34-.17-.17-.17 0 0zM258.617 43.035l.51 1.357h1.357c.17 0 .17.17.17.17v.169l-1.018.848.339 1.356c0 .17 0 .17-.17.17h-.17l-1.018-.848-1.018.848h-.34v-.17l.34-1.356-1.019-.848s-.17-.17 0-.34h1.528l.51-1.356c-.34-.17-.17-.17 0 0zM258.617 49.817l.51 1.357h1.357c.17 0 .17.17.17.17v.169l-1.018.848.339 1.356c0 .17 0 .17-.17.17h-.17l-1.018-.848-1.018.848h-.34v-.17l.34-1.356-1.019-.848s-.17-.17 0-.34h1.528l.51-1.356c-.34-.17-.17-.17 0 0zM263.879 26.42l.51 1.356h1.357c.17 0 .17.17.17.17v.169l-1.019.848.34 1.356c0 .17 0 .17-.17.17h-.17l-1.018-.848-1.018.848h-.34v-.17l.34-1.356-1.019-.848s-.17-.17 0-.34h1.528l.509-1.355c-.34-.17-.17-.17 0 0zM263.879 33.032l.51 1.356h1.357c.17 0 .17.17.17.17v.17l-1.019.847.34 1.357c0 .17 0 .17-.17.17h-.17l-1.018-.849-1.018.848h-.34v-.17l.34-1.356-1.019-.848s-.17-.17 0-.339h1.528l.509-1.356c-.34-.17-.17-.17 0 0zM263.879 39.814l.51 1.356h1.357c.17 0 .17.17.17.17v.17l-1.019.847.34 1.357c0 .17 0 .17-.17.17h-.17l-1.018-.849-1.018.848h-.34v-.17l.34-1.356-1.019-.848s-.17-.17 0-.339h1.528l.509-1.356c-.34-.17-.17-.17 0 0zM263.879 46.596l.51 1.356h1.357c.17 0 .17.17.17.17v.17l-1.019.847.34 1.357c0 .17 0 .17-.17.17h-.17l-1.018-.849-1.018.848h-.34v-.17l.34-1.356-1.019-.848s-.17-.17 0-.339h1.528l.509-1.356c-.34-.17-.17-.17 0 0zM263.879 53.208l.51 1.357h1.357c.17 0 .17 0 .17.17v.169l-1.019.848.34 1.356c0 .17 0 .17-.17.17h-.17l-1.018-.848-1.018.848h-.34v-.17l.34-1.356-1.019-.848s-.17-.17 0-.34h1.528l.509-1.356c-.34-.17-.17-.17 0 0zM268.971 29.641l.51 1.356h1.357c.17 0 .17.17.17.17v.17l-1.019.847.34 1.357c0 .17 0 .17-.17.17h-.17l-1.018-.849-1.018.848h-.34v-.17l.34-1.356-1.019-.848s-.17-.17 0-.339h1.528l.51-1.356c-.17-.17 0-.17 0 0zM268.971 36.423l.51 1.356h1.357c.17 0 .17.17.17.17v.17l-1.019.847.34 1.357c0 .17 0 .17-.17.17h-.17l-1.018-.849-1.018.848h-.34v-.17l.34-1.356-1.019-.848s-.17-.17 0-.339h1.528l.51-1.356c-.17-.17 0-.17 0 0zM268.971 43.035l.51 1.357h1.357c.17 0 .17.17.17.17v.169l-1.019.848.34 1.356c0 .17 0 .17-.17.17h-.17l-1.018-.848-1.018.848h-.34v-.17l.34-1.356-1.019-.848s-.17-.17 0-.34h1.528l.51-1.356c-.17-.17 0-.17 0 0zM268.971 49.817l.51 1.357h1.357c.17 0 .17.17.17.17v.169l-1.019.848.34 1.356c0 .17 0 .17-.17.17h-.17l-1.018-.848-1.018.848h-.34v-.17l.34-1.356-1.019-.848s-.17-.17 0-.34h1.528l.51-1.356c-.17-.17 0-.17 0 0zM274.233 26.42l.51 1.356h1.357c.17 0 .17.17.17.17v.169l-1.019.848.34 1.356c0 .17 0 .17-.17.17h-.17l-1.018-.848-1.019.848h-.339v-.17l.34-1.356-1.019-.848s-.17-.17 0-.34h1.528l.509-1.355c-.34-.17-.17-.17 0 0 0-.17 0-.17 0 0zM274.233 33.032l.51 1.356h1.357c.17 0 .17.17.17.17v.17l-1.019.847.34 1.357c0 .17 0 .17-.17.17h-.17l-1.018-.849-1.019.848h-.339v-.17l.34-1.356-1.019-.848s-.17-.17 0-.339h1.528l.509-1.356c-.34-.17 0-.17 0 0zM274.233 39.814l.51 1.356h1.357c.17 0 .17.17.17.17v.17l-1.019.847.34 1.357c0 .17 0 .17-.17.17h-.17l-1.018-.849-1.019.848h-.339v-.17l.34-1.356-1.019-.848s-.17-.17 0-.339h1.528l.509-1.356c-.34 0-.17-.17 0 0 0-.17 0 0 0 0zM274.233 46.596l.51 1.356h1.357c.17 0 .17.17.17.17v.17l-1.019.847.34 1.357c0 .17 0 .17-.17.17h-.17l-1.018-.849-1.019.848h-.339v-.17l.34-1.356-1.019-.848s-.17-.17 0-.339h1.528l.509-1.356c-.34-.17 0-.17 0 0zM274.233 53.208l.51 1.357h1.357c.17 0 .17 0 .17.17v.169l-1.019.848.34 1.356c0 .17 0 .17-.17.17h-.17l-1.018-.848-1.019.848h-.339v-.17l.34-1.356-1.019-.848s-.17-.17 0-.34h1.528l.509-1.356c-.34 0-.17-.17 0 0zM279.495 29.641l.509 1.356h1.358c.17 0 .17.17.17.17v.17l-1.019.847.34 1.357c0 .17 0 .17-.17.17h-.17l-1.018-.849-1.019.848h-.34v-.17l.34-1.356-1.018-.848s-.17-.17 0-.339h1.528l.509-1.356c-.34 0-.17-.17 0 0-.17 0 0 0 0 0zM279.495 36.423l.509 1.356h1.358c.17 0 .17.17.17.17v.17l-1.019.847.34 1.357c0 .17 0 .17-.17.17h-.17l-1.018-.849-1.019.848h-.34v-.17l.34-1.356-1.018-.848s-.17-.17 0-.339h1.528l.509-1.356c-.34-.17-.17-.17 0 0zM279.495 43.035l.509 1.357h1.358c.17 0 .17.17.17.17v.169l-1.019.848.34 1.356c0 .17 0 .17-.17.17h-.17l-1.018-.848-1.019.848h-.34v-.17l.34-1.356-1.018-.848s-.17-.17 0-.34h1.528l.509-1.356c-.34 0-.17 0 0 0-.17 0 0 0 0 0zM279.495 49.817l.509 1.357h1.358c.17 0 .17.17.17.17v.169l-1.019.848.34 1.356c0 .17 0 .17-.17.17h-.17l-1.018-.848-1.019.848h-.34v-.17l.34-1.356-1.018-.848s-.17-.17 0-.34h1.528l.509-1.356c-.34 0-.17-.17 0 0-.17-.17 0 0 0 0zM284.587 26.42l.51 1.356h1.357c.17 0 .17.17.17.17v.169l-1.019.848.34 1.356c0 .17 0 .17-.17.17h-.17l-1.018-.848-1.019.848h-.34v-.17l.34-1.356-1.018-.848s-.17-.17 0-.34h1.528l.509-1.355c-.17-.17-.17-.17 0 0 0-.17 0-.17 0 0zM284.587 33.032l.51 1.356h1.357c.17 0 .17.17.17.17v.17l-1.019.847.34 1.357c0 .17 0 .17-.17.17h-.17l-1.018-.849-1.019.848h-.34v-.17l.34-1.356-1.018-.848s-.17-.17 0-.339h1.528l.509-1.356c-.17-.17 0-.17 0 0zM284.587 39.814l.51 1.356h1.357c.17 0 .17.17.17.17v.17l-1.019.847.34 1.357c0 .17 0 .17-.17.17h-.17l-1.018-.849-1.019.848h-.34v-.17l.34-1.356-1.018-.848s-.17-.17 0-.339h1.528l.509-1.356c-.17 0-.17-.17 0 0 0-.17 0 0 0 0zM284.587 46.596l.51 1.356h1.357c.17 0 .17 0 .17.17v.17l-1.019.847.34 1.357c0 .17 0 .17-.17.17h-.17l-1.018-.849-1.019.848h-.34v-.17l.34-1.356-1.018-.848s-.17-.17 0-.339h1.528l.509-1.356c-.17-.17 0-.17 0 0zM284.587 53.208l.51 1.357h1.357c.17 0 .17 0 .17.17v.169l-1.019.848.34 1.356c0 .17 0 .17-.17.17h-.17l-1.018-.848-1.019.848h-.34v-.17l.34-1.356-1.018-.848s-.17-.17 0-.34h1.528l.509-1.356c-.17 0-.17-.17 0 0z"/></g></g><g fill-rule="nonzero"><path d="M60.54 85.697c13.857-13.857 13.857-36.312 0-50.149-13.856-13.856-36.292-13.856-50.148 0-13.856 13.857-13.856 36.292 0 50.149 13.856 13.856 36.292 13.856 50.148 0z" fill="#EFB533"/><path d="M60.54 85.697c13.857-13.857 13.857-36.312 0-50.149L10.392 85.697c13.856 13.856 36.292 13.856 50.148 0z" fill="#E5AA17"/><path d="M57.197 82.353c12.004-12.003 12.004-31.458 0-43.461-12.003-12.004-31.458-12.004-43.462 0-12.003 12.003-12.003 31.458 0 43.461 12.004 12.004 31.459 12.004 43.462 0z" fill="#F4DE7F"/><path d="M57.197 82.353c12.004-12.003 12.004-31.458 0-43.461L13.735 82.353c12.004 12.004 31.459 12.004 43.462 0z" fill="#F2D55A"/><path d="M47.248 50.009c0 2.256-2.558 3.867-2.719 3.665-1.913-2.215-5.176-3.867-8.499-3.867-3.363 0-5.417 1.51-5.417 3.767 0 2.618 2.759 3.323 6.626 4.169 4.612 1.007 10.694 2.86 10.694 9.445 0 5.075-3.525 8.58-9.385 9.486v1.954c0 2.316-.907 3.423-2.92 3.423h-.262c-2.115 0-2.86-1.047-2.86-3.423v-1.853c-6.082-.645-9.547-3.424-9.547-6.223 0-2.155 2.417-3.726 2.619-3.525 1.913 2.316 5.619 4.21 9.546 4.21 3.565 0 5.619-1.511 5.619-3.767 0-2.759-3.122-3.524-6.787-4.37-4.41-.947-10.251-2.72-10.251-9.345 0-4.814 3.423-8.278 8.841-9.285v-1.852c0-2.317.846-3.424 2.86-3.424h.302c2.054 0 2.86 1.047 2.86 3.424v1.711c5.619.605 8.68 3.102 8.68 5.68z" fill="#E5AA17"/><g fill="#F2D55A"><path d="M40.763 67.47c0-2.759-3.122-3.524-6.787-4.37-.262-.06-.544-.121-.826-.181l-5.78 5.78c2.034 1.49 4.834 2.557 7.754 2.557 3.585-.02 5.64-1.51 5.64-3.786z"/><path d="M57.197 38.892l-10.11 10.11c.1.322.161.664.161 1.007 0 2.256-2.558 3.867-2.719 3.665a10.501 10.501 0 0 0-1.067-1.047l-5.317 5.317c4.471 1.067 9.788 3.081 9.788 9.244 0 5.075-3.525 8.58-9.385 9.486v1.954c0 2.316-.907 3.423-2.92 3.423h-.262c-2.115 0-2.86-1.047-2.86-3.423v-1.853c-4.632-.504-7.734-2.216-8.962-4.25l-9.829 9.828c12.004 12.004 31.459 12.004 43.462 0 12.024-12.003 12.024-31.458.02-43.461z"/></g><g fill="#EFB533"><path d="M25.598 67.027c-.202-.201-2.618 1.35-2.618 3.525 0 .664.201 1.349.584 1.973L27.39 68.7a10.277 10.277 0 0 1-1.792-1.672zM37.259 57.743c-3.867-.846-6.626-1.551-6.626-4.17 0-2.255 2.054-3.766 5.417-3.766 2.76 0 5.499 1.148 7.432 2.82l3.605-3.605c-.685-2.195-3.625-4.149-8.479-4.672v-1.712c0-2.357-.805-3.424-2.86-3.424h-.302c-2.014 0-2.86 1.108-2.86 3.424v1.853c-5.417 1.007-8.841 4.47-8.841 9.284 0 6.223 5.136 8.157 9.425 9.164l4.995-4.995c-.322-.08-.624-.141-.906-.201z"/></g><path d="M44.53 53.674c.14.202 2.718-1.41 2.718-3.665 0-.343-.06-.665-.161-1.007l-3.605 3.605c.383.342.725.685 1.047 1.067z" fill="#E5AA17"/></g><g fill-rule="nonzero"><path fill="#F6C358" d="M182.726 65.955h-35.433l-5.074 29.505h45.58z"/><path fill="#FCD462" d="M182.726 65.955h-35.433l-5.074 29.505 32.1-10.372z"/><path fill="#F6C358" d="M228.18 65.955h-35.433l-5.073 29.505h45.58z"/><path fill="#FCD462" d="M228.18 65.955h-35.433l-5.073 29.505 32.1-10.372z"/><path fill="#F6C358" d="M273.89 65.955h-35.433l-5.074 29.505h45.581z"/><path fill="#FCD462" d="M273.89 65.955h-35.433l-5.074 29.505 32.101-10.372z"/><path fill="#F6C358" d="M205.453 34.002H170.02l-5.074 29.504h45.581z"/><path fill="#FCD462" d="M205.453 34.002H170.02l-5.074 29.504 32.101-10.371z"/><path fill="#F6C358" d="M251.163 34.002H215.73l-5.074 29.504h45.58z"/><path fill="#FCD462" d="M251.163 34.002H215.73l-5.074 29.504 32.1-10.371z"/><path fill="#F6C358" d="M228.308 2.048h-35.433l-5.074 29.505h45.58z"/><path fill="#FCD462" d="M228.308 2.048h-35.433l-5.074 29.505 32.1-10.372z"/><g><path fill="#C2C2C2" d="M91.663 65.94H55.746l-5.143 29.773h46.203z"/><path fill="#DEDEDE" d="M91.306 65.94H55.702l-5.099 29.773L82.86 85.247z"/><path fill="#C2C2C2" d="M137.866 65.94H101.95l-5.143 29.773h46.203z"/><path fill="#DEDEDE" d="M137.509 65.94h-35.605l-5.098 29.773 32.256-10.466z"/><path fill="#C2C2C2" d="M182.97 65.94h-35.918l-5.143 29.773h46.203z"/><path fill="#DEDEDE" d="M182.612 65.94h-35.605l-5.098 29.773 32.256-10.466z"/><path fill="#C2C2C2" d="M114.765 32.858H78.848L73.705 62.63h46.203z"/><path fill="#DEDEDE" d="M114.408 32.858H78.803L73.705 62.63l32.256-10.466z"/><path fill="#C2C2C2" d="M159.868 32.858H123.95l-5.143 29.773h46.203z"/><path fill="#DEDEDE" d="M159.51 32.858h-35.604l-5.098 29.773 32.256-10.466z"/><path fill="#C2C2C2" d="M137.866.879H101.95l-5.144 29.773h46.203z"/><path fill="#DEDEDE" d="M137.509.879h-35.604l-5.099 29.773 32.256-10.466z"/></g></g></g></svg>