<svg xmlns="http://www.w3.org/2000/svg" width="83" height="66"><g fill="none" fill-rule="evenodd" stroke="#FFF" stroke-width="2"><path d="M16.526 13.342h11.812L41.562 33.97a21.358 21.358 0 0 1-11.284 29.444 20.628 20.628 0 0 1-15.868 0A21.336 21.336 0 0 1 3.306 33.97l13.22-20.628z"/><path d="M16.349 13.342L7.005 1h30.854l-9.168 12.342zm5.819 12.341v5.289m0 19.394v5.289m6.171-21.333v-.705a2.712 2.712 0 0 0-2.645-2.645h-6.168a2.972 2.972 0 0 0-3 3v1.234a3.109 3.109 0 0 0 1.41 2.645l8.639 4.937a3.413 3.413 0 0 1 1.763 3v1.41a3.348 3.348 0 0 1-3.35 3.35h-5.817a2.712 2.712 0 0 1-2.645-2.65v-.706"/><path fill="#FFF" fill-rule="nonzero" d="M38.035 18.631h44.077m-38.787 8.815h35.262m-31.736 8.816H75.06m-26.446 8.815h21.157"/></g></svg>