<svg id="Layer_1" data-name="Layer 1" xmlns="http://www.w3.org/2000/svg" viewBox="0 0 79 52"><defs><style>.cls-1{fill:#f1f1f2;stroke:#c2c2c2;}.cls-1,.cls-11,.cls-2{stroke-miterlimit:10;}.cls-1,.cls-11{stroke-width:0.64px;}.cls-11,.cls-2,.cls-3,.cls-4,.cls-6{fill:none;}.cls-2{stroke:#dededd;}.cls-2,.cls-3,.cls-4{stroke-width:0.32px;}.cls-3,.cls-4,.cls-6{stroke:#293052;stroke-linejoin:round;}.cls-4{stroke-dasharray:0.96 0.96;}.cls-5{fill:#231f20;}.cls-6{stroke-linecap:round;stroke-width:0.95px;}.cls-7{fill:#293052;}.cls-8{fill:#e88024;}.cls-9{fill:#fff;}.cls-10{opacity:0.6;}.cls-11{stroke:#e88024;}.cls-12{fill:#d5d3da;}</style></defs><title>guide</title><rect class="cls-1" x="0.5" y="0.58" width="77.84" height="50.84"/><line class="cls-2" x1="1.21" y1="14.62" x2="77.94" y2="14.62"/><line class="cls-2" x1="1.21" y1="25.23" x2="77.94" y2="25.23"/><line class="cls-2" x1="1.21" y1="35.83" x2="77.94" y2="35.83"/><line class="cls-2" x1="1.21" y1="41.13" x2="77.94" y2="41.13"/><line class="cls-2" x1="1.21" y1="46.43" x2="77.94" y2="46.43"/><line class="cls-2" x1="10.48" y1="9.32" x2="10.48" y2="51.1"/><line class="cls-2" x1="20.19" y1="9.32" x2="20.19" y2="51.1"/><line class="cls-2" x1="29.9" y1="9.32" x2="29.9" y2="51.1"/><line class="cls-2" x1="39.6" y1="9.32" x2="39.6" y2="51.1"/><line class="cls-2" x1="49.31" y1="9.32" x2="49.31" y2="51.1"/><line class="cls-2" x1="59.02" y1="9.32" x2="59.02" y2="51.1"/><line class="cls-2" x1="68.73" y1="9.32" x2="68.73" y2="51.1"/><line class="cls-2" x1="1.21" y1="30.53" x2="77.94" y2="30.53"/><line class="cls-3" x1="1.21" y1="19.92" x2="1.69" y2="19.92"/><line class="cls-4" x1="2.65" y1="19.92" x2="76.99" y2="19.92"/><line class="cls-3" x1="77.47" y1="19.92" x2="77.94" y2="19.92"/><line class="cls-1" x1="0.66" y1="9" x2="78.5" y2="9"/><path class="cls-5" d="M7,5.11a1.13,1.13,0,0,1-.32.82,1.09,1.09,0,0,1-.82.33A1.07,1.07,0,0,1,5,5.94a1.14,1.14,0,0,1-.31-0.82V4.62A1.14,1.14,0,0,1,5,3.8a1.07,1.07,0,0,1,.81-0.33,1.09,1.09,0,0,1,.82.33A1.13,1.13,0,0,1,7,4.62V5.11ZM6.44,4.62A0.82,0.82,0,0,0,6.28,4.1a0.52,0.52,0,0,0-.44-0.2,0.51,0.51,0,0,0-.43.2,0.84,0.84,0,0,0-.15.52V5.11a0.85,0.85,0,0,0,.15.53,0.51,0.51,0,0,0,.43.2,0.52,0.52,0,0,0,.44-0.2,0.84,0.84,0,0,0,.16-0.53V4.62Z"/><path class="cls-5" d="M7.28,5.23a1.31,1.31,0,0,1,.21-0.77,0.67,0.67,0,0,1,.58-0.29,0.56,0.56,0,0,1,.27.07,0.65,0.65,0,0,1,.21.19V3.32H9.1v2.9H8.63l0-.25a0.66,0.66,0,0,1-.22.21,0.6,0.6,0,0,1-.3.07A0.68,0.68,0,0,1,7.49,6a1.16,1.16,0,0,1-.21-0.72v0Zm0.54,0a0.83,0.83,0,0,0,.09.42,0.31,0.31,0,0,0,.29.15,0.42,0.42,0,0,0,.21,0,0.37,0.37,0,0,0,.14-0.14V4.79a0.42,0.42,0,0,0-.14-0.15,0.37,0.37,0,0,0-.2-0.05,0.31,0.31,0,0,0-.29.18,1,1,0,0,0-.09.46v0Z"/><path class="cls-5" d="M9.43,5.23a1.31,1.31,0,0,1,.21-0.77,0.67,0.67,0,0,1,.58-0.29,0.56,0.56,0,0,1,.27.07,0.65,0.65,0,0,1,.21.19V3.32h0.54v2.9H10.78l0-.25a0.66,0.66,0,0,1-.22.21,0.6,0.6,0,0,1-.3.07A0.68,0.68,0,0,1,9.64,6a1.16,1.16,0,0,1-.21-0.72v0Zm0.54,0a0.83,0.83,0,0,0,.09.42,0.31,0.31,0,0,0,.29.15,0.42,0.42,0,0,0,.21,0,0.37,0.37,0,0,0,.14-0.14V4.79a0.42,0.42,0,0,0-.14-0.15,0.37,0.37,0,0,0-.2-0.05,0.31,0.31,0,0,0-.29.18,1,1,0,0,0-.09.46v0Z"/><polyline class="cls-6" points="10.48 30.53 20.19 21.17 29.9 34.33 39.58 28.5 49.31 35.83 68.73 19.77"/><path class="cls-7" d="M8.43,36.12a0.4,0.4,0,0,0-.14-0.31,1.16,1.16,0,0,0-.5-0.21,1.65,1.65,0,0,1-.67-0.3,0.62,0.62,0,0,1-.24-0.5,0.66,0.66,0,0,1,.26-0.53,1,1,0,0,1,.67-0.21,1,1,0,0,1,.71.24,0.72,0.72,0,0,1,.25.57H8.42a0.51,0.51,0,0,0-.16-0.39,0.64,0.64,0,0,0-.45-0.15,0.63,0.63,0,0,0-.42.12,0.4,0.4,0,0,0-.15.32,0.36,0.36,0,0,0,.16.3,1.52,1.52,0,0,0,.51.21,1.47,1.47,0,0,1,.65.31,0.67,0.67,0,0,1,.22.51,0.62,0.62,0,0,1-.27.53,1.14,1.14,0,0,1-.7.2,1.21,1.21,0,0,1-.72-0.22A0.67,0.67,0,0,1,6.81,36H7.16a0.45,0.45,0,0,0,.19.4,0.8,0.8,0,0,0,.47.14,0.74,0.74,0,0,0,.44-0.12A0.37,0.37,0,0,0,8.43,36.12Z"/><path class="cls-7" d="M9.74,34.3v0.49h0.38v0.27H9.74v1.22a0.27,0.27,0,0,0,.06.2,0.21,0.21,0,0,0,.16.06H10l0.07,0,0,0.25a0.33,0.33,0,0,1-.12.05l-0.16,0a0.48,0.48,0,0,1-.36-0.13,0.59,0.59,0,0,1-.13-0.42V35.06H9.06V34.79H9.38V34.3H9.74Z"/><path class="cls-7" d="M11.81,36.8l0-.16a1.37,1.37,0,0,1,0-.14,0.86,0.86,0,0,1-.27.24,0.68,0.68,0,0,1-.35.1,0.66,0.66,0,0,1-.48-0.16,0.59,0.59,0,0,1-.17-0.44,0.52,0.52,0,0,1,.23-0.45,1.09,1.09,0,0,1,.63-0.16h0.4v-0.2a0.37,0.37,0,0,0-.11-0.28,0.42,0.42,0,0,0-.31-0.1,0.44,0.44,0,0,0-.29.09,0.27,0.27,0,0,0-.11.22H10.61a0.49,0.49,0,0,1,.21-0.4,0.85,0.85,0,0,1,.56-0.18,0.83,0.83,0,0,1,.55.17,0.62,0.62,0,0,1,.21.5v1a2.06,2.06,0,0,0,0,.21,1.12,1.12,0,0,0,0,.2H11.81Zm-0.61-.27a0.65,0.65,0,0,0,.36-0.1,0.48,0.48,0,0,0,.21-0.23V35.87H11.36A0.54,0.54,0,0,0,11,36a0.33,0.33,0,0,0-.13.26,0.28,0.28,0,0,0,.08.21A0.35,0.35,0,0,0,11.21,36.53Z"/><path class="cls-7" d="M13.63,35.11H13.44a0.42,0.42,0,0,0-.25.07,0.44,0.44,0,0,0-.15.19V36.8H12.67v-2H13l0,0.29a0.71,0.71,0,0,1,.21-0.24,0.49,0.49,0,0,1,.29-0.09h0.14Z"/><path class="cls-7" d="M14.5,34.3v0.49h0.38v0.27H14.5v1.22a0.27,0.27,0,0,0,.06.2,0.21,0.21,0,0,0,.16.06h0.07l0.07,0,0,0.25a0.33,0.33,0,0,1-.12.05l-0.16,0a0.48,0.48,0,0,1-.36-0.13,0.59,0.59,0,0,1-.13-0.42V35.06H13.81V34.79h0.32V34.3H14.5Z"/><path class="cls-7" d="M67.48,25.54H66.23v1h1.43v0.29h-1.8V24.08h1.78v0.29H66.23v0.88h1.24v0.29Z"/><path class="cls-7" d="M68.35,24.78l0,0.3a0.73,0.73,0,0,1,.25-0.25A0.67,0.67,0,0,1,69,24.74a0.65,0.65,0,0,1,.5.19,0.84,0.84,0,0,1,.18.59v1.27H69.29V25.53a0.54,0.54,0,0,0-.11-0.38A0.42,0.42,0,0,0,68.87,25a0.52,0.52,0,0,0-.28.08,0.57,0.57,0,0,0-.19.21v1.47H68v-2h0.33Z"/><path class="cls-7" d="M70.11,25.83A1.35,1.35,0,0,1,70.32,25a0.67,0.67,0,0,1,.58-0.3,0.71,0.71,0,0,1,.31.07,0.64,0.64,0,0,1,.23.19V23.89h0.37v2.9h-0.3l0-.25a0.66,0.66,0,0,1-.24.21,0.74,0.74,0,0,1-.33.07,0.69,0.69,0,0,1-.58-0.27,1.11,1.11,0,0,1-.21-0.7v0Zm0.37,0a0.86,0.86,0,0,0,.13.49,0.44,0.44,0,0,0,.39.18,0.49,0.49,0,0,0,.28-0.07,0.56,0.56,0,0,0,.18-0.21V25.31a0.56,0.56,0,0,0-.18-0.2A0.48,0.48,0,0,0,71,25a0.42,0.42,0,0,0-.39.22,1.12,1.12,0,0,0-.13.57v0Z"/><path class="cls-8" d="M49.72,38.58H40.46L39,36.45,37.6,38.58H28.34a1.25,1.25,0,0,0-1.25,1.25V46.3a1.25,1.25,0,0,0,1.25,1.25H49.72A1.25,1.25,0,0,0,51,46.3V39.84A1.25,1.25,0,0,0,49.72,38.58Z"/><path class="cls-9" d="M36.93,44h0l0.57-2.74H38.3l-0.93,4H36.62l-0.73-2.64h0l-0.73,2.64H34.39l-0.94-4h0.79L34.81,44h0l0.75-2.74h0.59Z"/><path class="cls-9" d="M39.53,41.61h-0.8V41h0.8v0.6Zm0,3.69h-0.8v-3h0.8v3Z"/><path class="cls-9" d="M40.92,42.32l0,0.43a1.08,1.08,0,0,1,.37-0.35,1,1,0,0,1,.49-0.13,0.9,0.9,0,0,1,.7.28,1.31,1.31,0,0,1,.25.89v1.86H42V43.43A0.6,0.6,0,0,0,41.84,43a0.49,0.49,0,0,0-.37-0.12,0.62,0.62,0,0,0-.29.06,0.6,0.6,0,0,0-.21.18v2.16h-0.8v-3h0.75Z"/><path class="cls-9" d="M44.23,43.91h-0.8V41.29h0.8v2.62Zm0,1.38h-0.8v-0.7h0.8v0.7Z"/><g class="cls-10"><ellipse class="cls-9" cx="68.73" cy="19.92" rx="2.15" ry="2.21"/></g><ellipse class="cls-11" cx="68.73" cy="19.92" rx="2.15" ry="2.21"/><g class="cls-10"><ellipse class="cls-9" cx="10.48" cy="30.53" rx="2.15" ry="2.21"/></g><ellipse class="cls-11" cx="10.48" cy="30.53" rx="2.15" ry="2.21"/><rect class="cls-8" x="65.41" y="12.03" width="6.63" height="4.36"/><rect class="cls-8" x="68.28" y="15.95" width="0.89" height="0.89" transform="translate(8.54 53.4) rotate(-45)"/><path class="cls-9" d="M68,14.38l0.16-1.49h1.36v0.33h-1L68.36,14a0.85,0.85,0,0,1,.19-0.11,0.71,0.71,0,0,1,.24,0,0.73,0.73,0,0,1,.59.24,1,1,0,0,1,.21.67,1,1,0,0,1-.22.66,0.8,0.8,0,0,1-.64.25,0.87,0.87,0,0,1-.57-0.19,0.65,0.65,0,0,1-.22-0.55h0.33a0.45,0.45,0,0,0,.13.34,0.46,0.46,0,0,0,.33.12,0.43,0.43,0,0,0,.36-0.16,0.71,0.71,0,0,0,.13-0.45,0.67,0.67,0,0,0-.13-0.43,0.43,0.43,0,0,0-.36-0.17,0.58,0.58,0,0,0-.31.07,0.37,0.37,0,0,0-.14.2Z"/><rect class="cls-12" x="36.29" y="20.45" width="6.63" height="4.36"/><rect class="cls-12" x="39.16" y="24.37" width="0.89" height="0.89" transform="translate(-5.95 35.27) rotate(-45)"/><path class="cls-7" d="M40.51,24H38.75V23.77l0.89-1A2.49,2.49,0,0,0,40,22.36,0.66,0.66,0,0,0,40,22a0.51,0.51,0,0,0-.12-0.34,0.39,0.39,0,0,0-.31-0.14,0.54,0.54,0,0,0-.41.14,0.57,0.57,0,0,0-.13.4H38.71a0.77,0.77,0,0,1,.23-0.59,0.92,0.92,0,0,1,.67-0.24,0.79,0.79,0,0,1,.58.21,0.73,0.73,0,0,1,.22.54,0.87,0.87,0,0,1-.13.44,2.84,2.84,0,0,1-.37.48l-0.71.77h1.31V24Z"/><rect class="cls-12" x="7.16" y="22.55" width="6.63" height="4.36"/><rect class="cls-12" x="10.03" y="26.47" width="0.89" height="0.89" transform="translate(-15.96 15.29) rotate(-45)"/><path class="cls-7" d="M10.68,26.12H10.31V23.77H9.75V23.51l0.92-.1v2.71Z"/></svg>