<?xml version="1.0" encoding="utf-8"?>
<!-- Generator: Adobe Illustrator 19.1.0, SVG Export Plug-In . SVG Version: 6.00 Build 0)  -->
<svg version="1.1" id="Layer_1" xmlns="http://www.w3.org/2000/svg" xmlns:xlink="http://www.w3.org/1999/xlink" x="0" y="0"
	 viewBox="0 0 79.26 52.65" style="enable-background:new 0 0 79.26 52.65;" xml:space="preserve">
<style type="text/css">
	.st0{fill:#F1F2F2;stroke:#C2C2C2;stroke-width:0.6459;stroke-miterlimit:10;}
	.st1{fill:none;stroke:#DFDEDE;stroke-width:0.3229;stroke-miterlimit:10;}
	.st2{fill:none;stroke:#2A3052;stroke-width:0.3229;stroke-linejoin:round;stroke-miterlimit:10;}
	.st3{fill:none;stroke:#2A3052;stroke-width:0.9688;stroke-linecap:round;stroke-linejoin:round;stroke-miterlimit:10;}
	.st4{fill:#2A3052;}
	.st5{fill:#E88024;}
	.st6{fill:#6D6E71;}
	.st7{fill:#FFFFFF;}
	.st8{opacity:0.6;}
	.st9{fill:none;stroke:#E88024;stroke-width:0.6459;stroke-miterlimit:10;}
</style>
<g>
	<rect x="0.32" y="0.32" class="st0" width="78.61" height="52"/>
	<g>
		<line class="st1" x1="1.04" y1="14.68" x2="78.54" y2="14.68"/>
		<line class="st1" x1="1.04" y1="20.11" x2="78.54" y2="20.11"/>
		<line class="st1" x1="1.04" y1="25.53" x2="78.54" y2="25.53"/>
		<line class="st1" x1="1.04" y1="36.38" x2="78.54" y2="36.38"/>
		<line class="st1" x1="1.04" y1="41.8" x2="78.54" y2="41.8"/>
		<line class="st1" x1="1.04" y1="47.22" x2="78.54" y2="47.22"/>
		<line class="st1" x1="10.4" y1="9.26" x2="10.4" y2="52"/>
		<line class="st1" x1="20.21" y1="9.26" x2="20.21" y2="52"/>
		<line class="st1" x1="30.01" y1="9.26" x2="30.01" y2="52"/>
		<line class="st1" x1="39.82" y1="9.26" x2="39.82" y2="52"/>
		<line class="st1" x1="49.62" y1="9.26" x2="49.62" y2="52"/>
		<line class="st1" x1="59.42" y1="9.26" x2="59.42" y2="52"/>
		<line class="st1" x1="69.23" y1="9.26" x2="69.23" y2="52"/>
		<line class="st2" x1="1.04" y1="30.95" x2="78.54" y2="30.95"/>
	</g>
	<line class="st0" x1="0.48" y1="8.94" x2="79.1" y2="8.94"/>
	<g>
		<path d="M6.88,6.09H6.34V4.94H5.22v1.15H4.67V3.32h0.55v1.19h1.12V3.32h0.55V6.09z"/>
		<path d="M7.93,3.54H7.38V3.12h0.55V3.54z M7.93,6.09H7.38V4.03h0.55V6.09z"/>
		<path d="M8.29,5.08c0-0.33,0.07-0.59,0.21-0.79c0.14-0.2,0.34-0.3,0.59-0.3c0.11,0,0.21,0.03,0.3,0.08S9.55,4.2,9.61,4.29
			l0.04-0.26h0.47v2.05c0,0.27-0.09,0.48-0.26,0.62C9.7,6.85,9.46,6.92,9.15,6.92c-0.1,0-0.21-0.01-0.33-0.04
			C8.7,6.85,8.6,6.81,8.5,6.76l0.1-0.42c0.08,0.04,0.17,0.07,0.26,0.09c0.09,0.02,0.18,0.03,0.29,0.03c0.15,0,0.26-0.03,0.33-0.1
			s0.11-0.16,0.11-0.3V5.89C9.52,5.97,9.45,6.03,9.37,6.07C9.29,6.11,9.19,6.13,9.09,6.13c-0.25,0-0.44-0.09-0.58-0.28
			C8.36,5.67,8.29,5.42,8.29,5.12V5.08z M8.84,5.12c0,0.18,0.03,0.32,0.09,0.43C8.99,5.65,9.09,5.7,9.23,5.7
			c0.08,0,0.16-0.02,0.21-0.05s0.1-0.08,0.14-0.14v-0.9C9.55,4.56,9.5,4.51,9.44,4.47S9.31,4.42,9.23,4.42C9.1,4.42,9,4.48,8.94,4.6
			S8.84,4.88,8.84,5.08V5.12z"/>
		<path d="M11.09,4.29c0.06-0.09,0.14-0.17,0.23-0.22s0.2-0.08,0.31-0.08c0.21,0,0.38,0.07,0.5,0.21c0.12,0.14,0.18,0.36,0.18,0.66
			v1.22h-0.55V4.86c0-0.16-0.03-0.27-0.08-0.34c-0.06-0.07-0.14-0.1-0.25-0.1c-0.08,0-0.14,0.01-0.2,0.04s-0.1,0.07-0.14,0.12v1.51
			h-0.55V3.12h0.55V4.29z"/>
		<path d="M13.63,6.13c-0.29,0-0.53-0.1-0.7-0.29c-0.18-0.19-0.26-0.43-0.26-0.72V5.04c0-0.31,0.08-0.56,0.25-0.76
			c0.17-0.2,0.39-0.3,0.67-0.29c0.27,0,0.49,0.08,0.64,0.25c0.15,0.17,0.23,0.39,0.23,0.68v0.3h-1.21l0,0.01
			c0.01,0.14,0.06,0.25,0.13,0.33c0.08,0.09,0.19,0.13,0.32,0.13c0.12,0,0.22-0.01,0.3-0.04c0.08-0.02,0.17-0.06,0.26-0.12
			l0.15,0.34c-0.08,0.07-0.19,0.13-0.33,0.17C13.94,6.11,13.79,6.13,13.63,6.13z M13.58,4.42c-0.1,0-0.18,0.04-0.24,0.12
			c-0.06,0.08-0.1,0.18-0.11,0.31l0.01,0.01h0.67V4.81c0-0.12-0.03-0.21-0.08-0.28S13.69,4.42,13.58,4.42z"/>
		<path d="M15.83,4.51l-0.2-0.01c-0.08,0-0.15,0.02-0.2,0.05s-0.09,0.08-0.12,0.15v1.39h-0.55V4.03h0.51l0.02,0.3
			c0.05-0.11,0.11-0.19,0.19-0.25c0.08-0.06,0.16-0.09,0.26-0.09c0.03,0,0.05,0,0.08,0.01c0.02,0,0.05,0.01,0.07,0.02L15.83,4.51z"
			/>
	</g>
	<polyline class="st3" points="10.4,41.8 18.72,26.32 27.18,35.37 39.24,20.11 51.3,37.01 60.11,14.09 69.23,20.11 	"/>
	<g>
		<path class="st4" d="M8.33,47.67c0-0.13-0.05-0.23-0.14-0.32c-0.09-0.08-0.26-0.16-0.5-0.21c-0.29-0.07-0.52-0.17-0.68-0.31
			c-0.16-0.14-0.24-0.31-0.24-0.51c0-0.22,0.09-0.4,0.26-0.54c0.17-0.15,0.4-0.22,0.68-0.22c0.3,0,0.54,0.08,0.72,0.25
			c0.18,0.17,0.26,0.36,0.26,0.58l0,0.01H8.32c0-0.16-0.05-0.29-0.16-0.39s-0.26-0.15-0.46-0.15c-0.18,0-0.33,0.04-0.42,0.13
			c-0.1,0.08-0.15,0.19-0.15,0.33c0,0.12,0.05,0.22,0.16,0.3c0.11,0.08,0.28,0.15,0.52,0.21C8.1,46.89,8.32,47,8.47,47.14
			s0.23,0.32,0.23,0.52c0,0.22-0.09,0.4-0.27,0.54c-0.18,0.14-0.42,0.2-0.71,0.2c-0.27,0-0.52-0.08-0.73-0.23s-0.31-0.35-0.31-0.6
			l0-0.01h0.35c0,0.18,0.06,0.31,0.19,0.41s0.29,0.14,0.48,0.14c0.19,0,0.33-0.04,0.44-0.12C8.27,47.91,8.33,47.81,8.33,47.67z"/>
		<path class="st4" d="M9.66,45.81v0.5h0.39v0.28H9.66v1.25c0,0.1,0.02,0.16,0.06,0.2c0.04,0.04,0.09,0.06,0.16,0.06
			c0.02,0,0.04,0,0.07-0.01s0.05-0.01,0.07-0.02l0.05,0.26c-0.03,0.02-0.07,0.04-0.12,0.06c-0.05,0.01-0.11,0.02-0.16,0.02
			c-0.15,0-0.27-0.05-0.36-0.14c-0.09-0.09-0.13-0.24-0.13-0.43v-1.25H8.96v-0.28h0.32v-0.5H9.66z"/>
		<path class="st4" d="M11.75,48.37c-0.01-0.06-0.02-0.12-0.03-0.17c-0.01-0.05-0.01-0.09-0.01-0.14c-0.07,0.1-0.16,0.18-0.27,0.25
			c-0.11,0.07-0.23,0.1-0.36,0.1c-0.21,0-0.37-0.05-0.48-0.17c-0.11-0.11-0.17-0.26-0.17-0.45c0-0.2,0.08-0.35,0.24-0.46
			c0.16-0.11,0.37-0.17,0.64-0.17h0.4v-0.2c0-0.12-0.04-0.22-0.11-0.29c-0.07-0.07-0.18-0.11-0.31-0.11c-0.12,0-0.22,0.03-0.29,0.09
			c-0.07,0.06-0.11,0.14-0.11,0.22h-0.35l0-0.01c-0.01-0.15,0.06-0.29,0.21-0.41c0.15-0.12,0.34-0.19,0.57-0.19
			c0.23,0,0.42,0.06,0.56,0.18c0.14,0.12,0.21,0.29,0.21,0.51v0.99c0,0.07,0,0.14,0.01,0.21c0.01,0.07,0.02,0.14,0.04,0.2H11.75z
			 M11.14,48.09c0.13,0,0.25-0.03,0.36-0.1c0.11-0.07,0.18-0.15,0.21-0.24v-0.33h-0.42c-0.15,0-0.27,0.04-0.36,0.11
			s-0.13,0.17-0.13,0.27c0,0.09,0.03,0.16,0.08,0.22C10.94,48.07,11.03,48.09,11.14,48.09z"/>
		<path class="st4" d="M13.58,46.64l-0.19-0.01c-0.1,0-0.18,0.02-0.25,0.07c-0.07,0.05-0.12,0.11-0.16,0.2v1.47h-0.37v-2.06h0.33
			l0.04,0.3c0.06-0.11,0.13-0.19,0.21-0.25c0.08-0.06,0.18-0.09,0.29-0.09c0.03,0,0.05,0,0.08,0.01c0.02,0,0.05,0.01,0.06,0.01
			L13.58,46.64z"/>
		<path class="st4" d="M14.46,45.81v0.5h0.39v0.28h-0.39v1.25c0,0.1,0.02,0.16,0.06,0.2c0.04,0.04,0.09,0.06,0.16,0.06
			c0.02,0,0.04,0,0.07-0.01s0.05-0.01,0.07-0.02l0.05,0.26c-0.03,0.02-0.07,0.04-0.12,0.06c-0.05,0.01-0.11,0.02-0.16,0.02
			c-0.15,0-0.27-0.05-0.36-0.14c-0.09-0.09-0.13-0.24-0.13-0.43v-1.25h-0.32v-0.28h0.32v-0.5H14.46z"/>
	</g>
	<g>
		<path class="st4" d="M67.96,25.85h-1.25v0.99h1.45v0.29h-1.82v-2.77h1.8v0.29h-1.42v0.9h1.25V25.85z"/>
		<path class="st4" d="M68.85,25.07l0.03,0.31c0.07-0.11,0.15-0.19,0.25-0.25c0.1-0.06,0.22-0.09,0.35-0.09
			c0.22,0,0.39,0.07,0.51,0.2c0.12,0.13,0.18,0.33,0.18,0.6v1.3H69.8v-1.29c0-0.18-0.04-0.31-0.11-0.39s-0.18-0.11-0.32-0.11
			c-0.11,0-0.2,0.03-0.28,0.08c-0.08,0.05-0.15,0.12-0.2,0.21v1.5h-0.37v-2.06H68.85z"/>
		<path class="st4" d="M70.62,26.14c0-0.33,0.07-0.6,0.21-0.8c0.14-0.2,0.34-0.3,0.59-0.3c0.12,0,0.22,0.02,0.32,0.07
			c0.09,0.04,0.17,0.11,0.24,0.19v-1.13h0.37v2.97h-0.3L72,26.88c-0.07,0.1-0.15,0.17-0.24,0.22c-0.1,0.05-0.21,0.07-0.34,0.07
			c-0.25,0-0.44-0.09-0.58-0.27c-0.14-0.18-0.21-0.42-0.21-0.72V26.14z M70.99,26.18c0,0.21,0.04,0.38,0.13,0.5s0.21,0.19,0.39,0.19
			c0.11,0,0.2-0.03,0.28-0.08s0.14-0.12,0.18-0.21v-0.96c-0.05-0.08-0.11-0.15-0.19-0.2c-0.08-0.05-0.17-0.08-0.27-0.08
			c-0.18,0-0.31,0.07-0.39,0.22s-0.13,0.34-0.13,0.58V26.18z"/>
	</g>
	<path class="st5" d="M50.03,39.2h-9.35l-1.44-2.19l-1.44,2.19h-9.35c-0.7,0-1.26,0.57-1.26,1.28v6.61c0,0.71,0.57,1.28,1.26,1.28
		h21.59c0.7,0,1.26-0.57,1.26-1.28v-6.61C51.3,39.77,50.73,39.2,50.03,39.2z"/>
	<g>
		<g>
			<path class="st6" d="M66.41,33.3h-0.68l-0.41,2.06h-0.3l0.41-2.06h-0.67l0.05-0.25h1.65L66.41,33.3z"/>
			<path class="st6" d="M67.06,35.37c0-0.05,0-0.09,0-0.13c0-0.03,0.01-0.07,0.01-0.1c-0.07,0.08-0.15,0.14-0.24,0.19
				c-0.09,0.05-0.18,0.08-0.27,0.08c-0.15,0-0.27-0.05-0.34-0.14s-0.09-0.22-0.06-0.38c0.03-0.17,0.12-0.31,0.25-0.39
				c0.14-0.09,0.31-0.13,0.52-0.13h0.29l0.03-0.17c0.02-0.11,0.01-0.19-0.03-0.24c-0.04-0.05-0.12-0.08-0.22-0.08
				c-0.09,0-0.17,0.03-0.24,0.08c-0.07,0.05-0.11,0.11-0.13,0.18h-0.29l0-0.01c0.02-0.13,0.1-0.25,0.23-0.35
				c0.14-0.1,0.3-0.15,0.49-0.15c0.17,0,0.3,0.05,0.4,0.15c0.1,0.1,0.13,0.24,0.09,0.42l-0.16,0.83c-0.01,0.06-0.02,0.12-0.03,0.18
				c-0.01,0.06-0.01,0.11,0,0.17H67.06z M66.66,35.14c0.08,0,0.17-0.02,0.26-0.07c0.09-0.05,0.16-0.11,0.2-0.18l0.06-0.32h-0.3
				c-0.1,0-0.2,0.03-0.28,0.1s-0.13,0.14-0.15,0.22c-0.02,0.08-0.01,0.14,0.02,0.19S66.57,35.14,66.66,35.14z"/>
			<path class="st6" d="M68.81,33.93l-0.17-0.01c-0.07,0-0.13,0.02-0.19,0.06c-0.06,0.04-0.11,0.09-0.15,0.17l-0.24,1.22h-0.3
				l0.34-1.72h0.27l-0.02,0.23c0.06-0.08,0.12-0.15,0.2-0.19c0.07-0.04,0.15-0.07,0.24-0.07c0.02,0,0.04,0,0.07,0.01
				s0.04,0.01,0.05,0.01L68.81,33.93z"/>
			<path class="st6" d="M68.9,34.51c0.06-0.29,0.15-0.52,0.28-0.67s0.29-0.22,0.49-0.22c0.09,0,0.18,0.02,0.25,0.06
				c0.07,0.04,0.13,0.1,0.18,0.18l0.07-0.21h0.26l-0.33,1.69c-0.05,0.24-0.14,0.42-0.28,0.54s-0.33,0.18-0.55,0.18
				c-0.07,0-0.15-0.01-0.24-0.04c-0.09-0.02-0.16-0.05-0.22-0.09l0.12-0.24c0.04,0.03,0.1,0.06,0.17,0.08
				c0.07,0.02,0.14,0.03,0.21,0.03c0.13,0,0.23-0.04,0.31-0.12c0.08-0.08,0.14-0.19,0.17-0.33l0.02-0.12
				c-0.06,0.06-0.13,0.1-0.2,0.13c-0.07,0.03-0.15,0.04-0.23,0.04c-0.18,0-0.32-0.08-0.41-0.25c-0.09-0.17-0.12-0.37-0.07-0.61
				L68.9,34.51z M69.2,34.54c-0.04,0.18-0.03,0.33,0.02,0.44c0.05,0.11,0.15,0.17,0.29,0.17c0.07,0,0.14-0.02,0.2-0.06
				s0.12-0.1,0.17-0.18l0.16-0.8c-0.03-0.07-0.07-0.12-0.13-0.17c-0.06-0.04-0.12-0.06-0.21-0.06c-0.13,0-0.23,0.06-0.31,0.17
				c-0.08,0.12-0.15,0.27-0.18,0.46L69.2,34.54z"/>
			<path class="st6" d="M71.19,35.4c-0.21,0-0.37-0.08-0.48-0.24c-0.11-0.16-0.14-0.37-0.1-0.62l0.01-0.07
				c0.04-0.25,0.14-0.46,0.3-0.62c0.16-0.16,0.33-0.24,0.51-0.24c0.21,0,0.36,0.07,0.45,0.21c0.09,0.14,0.12,0.33,0.08,0.56
				l-0.03,0.2H70.9c-0.02,0.17-0.01,0.31,0.05,0.42c0.06,0.1,0.15,0.15,0.28,0.15c0.09,0,0.18-0.02,0.26-0.05
				c0.08-0.03,0.15-0.07,0.21-0.12l0.09,0.2c-0.06,0.06-0.15,0.11-0.24,0.15C71.44,35.38,71.32,35.4,71.19,35.4z M71.38,33.87
				c-0.09,0-0.17,0.04-0.25,0.13s-0.14,0.2-0.18,0.33l0,0.01h0.7l0.01-0.04c0.02-0.13,0.01-0.23-0.04-0.31S71.5,33.87,71.38,33.87z"
				/>
			<path class="st6" d="M72.93,33.24l-0.08,0.41h0.29l-0.05,0.23H72.8l-0.21,1.04c-0.02,0.08-0.02,0.14,0.01,0.17
				c0.02,0.03,0.06,0.04,0.11,0.04c0.02,0,0.05,0,0.09-0.01c0.03,0,0.06-0.01,0.08-0.02l0,0.21c-0.03,0.02-0.07,0.03-0.13,0.05
				c-0.06,0.01-0.11,0.02-0.17,0.02c-0.11,0-0.19-0.04-0.25-0.12s-0.07-0.2-0.04-0.36l0.21-1.04h-0.25l0.05-0.23h0.25l0.08-0.41
				H72.93z"/>
		</g>
	</g>
	<g>
		<g>
			<path class="st7" d="M37.11,44.77h0.02l0.58-2.81h0.79l-0.94,4.09H36.8l-0.74-2.7h-0.02l-0.74,2.7h-0.75l-0.95-4.09h0.79
				l0.58,2.8l0.02,0l0.76-2.81h0.6L37.11,44.77z"/>
			<path class="st7" d="M39.74,42.29h-0.81v-0.62h0.81V42.29z M39.74,46.06h-0.81v-3.04h0.81V46.06z"/>
			<path class="st7" d="M41.15,43.02l0.04,0.44c0.1-0.16,0.22-0.28,0.37-0.36c0.15-0.09,0.31-0.13,0.49-0.13
				c0.3,0,0.54,0.1,0.71,0.29s0.26,0.5,0.26,0.91v1.9H42.2v-1.9c0-0.21-0.04-0.35-0.12-0.44c-0.08-0.09-0.2-0.13-0.37-0.13
				c-0.11,0-0.2,0.02-0.29,0.07s-0.16,0.11-0.21,0.19v2.21h-0.81v-3.04H41.15z"/>
			<path class="st7" d="M44.49,44.65h-0.81v-2.68h0.81V44.65z M44.49,46.06h-0.81v-0.72h0.81V46.06z"/>
		</g>
	</g>
	<g>
		<g class="st8">
			<ellipse class="st7" cx="69.23" cy="20.11" rx="2.17" ry="2.26"/>
		</g>
		<g>
			<ellipse class="st9" cx="69.23" cy="20.11" rx="2.17" ry="2.26"/>
		</g>
	</g>
	<g>
		<g class="st8">
			<ellipse class="st7" cx="10.4" cy="41.8" rx="2.17" ry="2.26"/>
		</g>
		<g>
			<ellipse class="st9" cx="10.4" cy="41.8" rx="2.17" ry="2.26"/>
		</g>
	</g>
</g>
</svg>
