<?xml version="1.0" encoding="utf-8"?>
<!-- Generator: Adobe Illustrator 19.1.0, SVG Export Plug-In . SVG Version: 6.00 Build 0)  -->
<svg version="1.1" id="Layer_1" xmlns="http://www.w3.org/2000/svg" xmlns:xlink="http://www.w3.org/1999/xlink" x="0" y="0"
	 viewBox="0 0 79.26 52.65" style="enable-background:new 0 0 79.26 52.65;" xml:space="preserve">
<style type="text/css">
	.st0{fill:#F1F2F2;stroke:#C2C2C2;stroke-width:0.6459;stroke-miterlimit:10;}
	.st1{fill:none;stroke:#DFDEDE;stroke-width:0.3229;stroke-miterlimit:10;}
	.st2{fill:none;stroke:#2A3052;stroke-width:0.3229;stroke-linejoin:round;stroke-miterlimit:10;}
	.st3{fill:none;stroke:#2A3052;stroke-width:0.9688;stroke-linecap:round;stroke-linejoin:round;stroke-miterlimit:10;}
	.st4{fill:#2A3052;}
	.st5{fill:#6D6E71;}
	.st6{fill:#E88024;}
	.st7{fill:#FFFFFF;}
	.st8{opacity:0.6;}
	.st9{fill:none;stroke:#E88024;stroke-width:0.6459;stroke-miterlimit:10;}
</style>
<g>
	<g>
		<rect x="0.32" y="0.32" class="st0" width="78.61" height="52"/>
		<g>
			<line class="st1" x1="1.04" y1="14.68" x2="78.54" y2="14.68"/>
			<line class="st1" x1="1.04" y1="25.53" x2="78.54" y2="25.53"/>
			<line class="st1" x1="1.04" y1="36.38" x2="78.54" y2="36.38"/>
			<line class="st1" x1="1.04" y1="47.22" x2="78.54" y2="47.22"/>
			<line class="st1" x1="10.4" y1="9.26" x2="10.4" y2="52"/>
			<line class="st1" x1="20.21" y1="9.26" x2="20.21" y2="52"/>
			<line class="st1" x1="30.01" y1="9.26" x2="30.01" y2="52"/>
			<line class="st1" x1="39.82" y1="9.26" x2="39.82" y2="52"/>
			<line class="st1" x1="49.62" y1="9.26" x2="49.62" y2="52"/>
			<line class="st1" x1="59.42" y1="9.26" x2="59.42" y2="52"/>
			<line class="st1" x1="1.04" y1="30.95" x2="78.54" y2="30.95"/>
			<line class="st2" x1="69.23" y1="9.26" x2="69.23" y2="52"/>
			<line class="st2" x1="1.04" y1="20.11" x2="78.54" y2="20.11"/>
			<line class="st2" x1="1.04" y1="41.8" x2="78.54" y2="41.8"/>
		</g>
		<line class="st0" x1="0.48" y1="8.94" x2="79.1" y2="8.94"/>
		<g>
			<path d="M6.35,4.87H5.22v0.79h1.33v0.43H4.67V3.32h1.87v0.43H5.22v0.7h1.13V4.87z"/>
			<path d="M7.34,4.03l0.02,0.29c0.07-0.11,0.15-0.19,0.25-0.25c0.1-0.06,0.21-0.09,0.33-0.09c0.21,0,0.37,0.07,0.48,0.2
				S8.6,4.53,8.6,4.8v1.29H8.05V4.8c0-0.14-0.03-0.24-0.08-0.29C7.91,4.45,7.83,4.42,7.71,4.42c-0.07,0-0.14,0.01-0.2,0.04
				C7.46,4.5,7.41,4.54,7.37,4.59v1.5H6.83V4.03H7.34z"/>
			<path d="M8.92,5.08c0-0.33,0.07-0.59,0.21-0.79c0.14-0.2,0.33-0.3,0.59-0.3c0.1,0,0.19,0.02,0.27,0.07
				c0.08,0.04,0.15,0.11,0.21,0.19V3.12h0.55v2.97h-0.47l-0.05-0.25c-0.06,0.09-0.14,0.17-0.23,0.22c-0.09,0.05-0.19,0.07-0.3,0.07
				c-0.25,0-0.44-0.09-0.58-0.28C8.99,5.67,8.92,5.42,8.92,5.12V5.08z M9.47,5.12c0,0.18,0.03,0.32,0.09,0.43
				C9.62,5.65,9.72,5.7,9.85,5.7c0.08,0,0.15-0.02,0.21-0.05c0.06-0.03,0.11-0.08,0.14-0.14V4.63c-0.04-0.07-0.09-0.12-0.14-0.15
				C10,4.44,9.94,4.42,9.86,4.42c-0.13,0-0.23,0.06-0.29,0.18S9.47,4.88,9.47,5.08V5.12z"/>
			<path d="M12.28,5.52c0-0.06-0.03-0.11-0.09-0.16c-0.06-0.04-0.17-0.08-0.32-0.12c-0.24-0.05-0.42-0.12-0.54-0.22
				c-0.12-0.1-0.18-0.23-0.18-0.4c0-0.18,0.07-0.33,0.22-0.45c0.15-0.12,0.34-0.19,0.59-0.19c0.26,0,0.47,0.06,0.62,0.18
				c0.15,0.12,0.23,0.28,0.22,0.47l0,0.01h-0.53c0-0.08-0.03-0.15-0.08-0.2c-0.05-0.05-0.13-0.08-0.23-0.08
				c-0.09,0-0.16,0.02-0.21,0.07c-0.05,0.04-0.08,0.1-0.08,0.17c0,0.06,0.03,0.12,0.08,0.16s0.16,0.08,0.32,0.11
				c0.25,0.05,0.44,0.12,0.56,0.22s0.18,0.23,0.18,0.41c0,0.18-0.08,0.34-0.23,0.45c-0.16,0.12-0.36,0.18-0.62,0.18
				c-0.27,0-0.48-0.07-0.64-0.21c-0.16-0.14-0.23-0.3-0.23-0.47l0-0.01h0.5c0,0.11,0.04,0.19,0.11,0.24
				c0.07,0.05,0.16,0.07,0.27,0.07c0.1,0,0.18-0.02,0.23-0.06C12.26,5.65,12.28,5.59,12.28,5.52z"/>
			<path d="M14.75,6.09H14.2V3.32h0.55V6.09z"/>
			<path d="M15.76,4.03l0.02,0.29c0.07-0.11,0.15-0.19,0.25-0.25c0.1-0.06,0.21-0.09,0.33-0.09c0.21,0,0.37,0.07,0.48,0.2
				s0.17,0.34,0.17,0.62v1.29h-0.55V4.8c0-0.14-0.03-0.24-0.08-0.29c-0.06-0.06-0.14-0.09-0.25-0.09c-0.07,0-0.14,0.01-0.2,0.04
				c-0.06,0.03-0.11,0.07-0.15,0.13v1.5h-0.55V4.03H15.76z"/>
			<path d="M17.73,6.33h-0.53l1-3.01h0.53L17.73,6.33z"/>
			<path d="M21.23,4.96c0,0.34-0.11,0.62-0.32,0.84c-0.21,0.22-0.49,0.33-0.83,0.33c-0.34,0-0.61-0.11-0.82-0.33
				c-0.21-0.22-0.32-0.5-0.32-0.84v-0.5c0-0.34,0.1-0.62,0.31-0.84s0.48-0.33,0.82-0.33c0.34,0,0.62,0.11,0.83,0.33
				s0.32,0.5,0.32,0.84V4.96z M20.68,4.45c0-0.22-0.05-0.39-0.16-0.53c-0.11-0.14-0.25-0.21-0.44-0.21c-0.19,0-0.33,0.07-0.43,0.21
				c-0.1,0.14-0.15,0.32-0.15,0.53v0.5c0,0.22,0.05,0.4,0.16,0.54s0.25,0.21,0.43,0.21c0.19,0,0.33-0.07,0.44-0.21
				c0.1-0.14,0.16-0.32,0.16-0.54V4.45z"/>
			<path d="M22.85,5.8c-0.06,0.11-0.14,0.19-0.24,0.25c-0.1,0.06-0.21,0.09-0.33,0.09c-0.21,0-0.38-0.07-0.5-0.21
				c-0.12-0.14-0.18-0.35-0.18-0.65V4.03h0.55v1.25c0,0.15,0.02,0.26,0.08,0.32c0.05,0.07,0.12,0.1,0.22,0.1
				c0.09,0,0.16-0.01,0.23-0.04c0.06-0.03,0.11-0.07,0.15-0.13v-1.5h0.55v2.06H22.9L22.85,5.8z"/>
			<path d="M24.44,3.53v0.5h0.34v0.39h-0.34v1.05c0,0.08,0.02,0.14,0.05,0.17c0.03,0.03,0.08,0.05,0.13,0.05c0.03,0,0.05,0,0.07,0
				c0.02,0,0.04-0.01,0.07-0.02l0.05,0.4c-0.06,0.02-0.11,0.03-0.16,0.04c-0.05,0.01-0.11,0.01-0.17,0.01
				c-0.19,0-0.33-0.05-0.44-0.16s-0.15-0.27-0.15-0.5V4.42h-0.3V4.03h0.3v-0.5H24.44z"/>
			<path d="M26.11,4.96c0-0.5,0.1-0.92,0.29-1.27c0.19-0.35,0.41-0.57,0.65-0.67h0.01l0.1,0.28c-0.16,0.12-0.3,0.33-0.41,0.6
				c-0.11,0.28-0.17,0.63-0.17,1.06v0.05c0,0.43,0.06,0.78,0.17,1.06c0.11,0.28,0.25,0.48,0.41,0.61l-0.1,0.27h-0.01
				c-0.24-0.1-0.46-0.33-0.65-0.67s-0.29-0.77-0.29-1.27V4.96z"/>
			<path d="M29.15,4.87h-1.13v0.79h1.33v0.43h-1.87V3.32h1.87v0.43h-1.32v0.7h1.13V4.87z"/>
			<path d="M30.14,4.03l0.02,0.29c0.07-0.11,0.15-0.19,0.25-0.25c0.1-0.06,0.21-0.09,0.33-0.09c0.21,0,0.37,0.07,0.48,0.2
				S31.4,4.53,31.4,4.8v1.29h-0.55V4.8c0-0.14-0.03-0.24-0.08-0.29c-0.06-0.06-0.14-0.09-0.25-0.09c-0.07,0-0.14,0.01-0.2,0.04
				c-0.06,0.03-0.11,0.07-0.15,0.13v1.5h-0.55V4.03H30.14z"/>
			<path d="M31.72,5.08c0-0.33,0.07-0.59,0.21-0.79c0.14-0.2,0.33-0.3,0.59-0.3c0.1,0,0.19,0.02,0.27,0.07
				c0.08,0.04,0.15,0.11,0.21,0.19V3.12h0.55v2.97h-0.47l-0.05-0.25c-0.06,0.09-0.14,0.17-0.23,0.22c-0.09,0.05-0.19,0.07-0.3,0.07
				c-0.25,0-0.44-0.09-0.58-0.28c-0.14-0.19-0.21-0.43-0.21-0.73V5.08z M32.27,5.12c0,0.18,0.03,0.32,0.09,0.43
				c0.06,0.1,0.16,0.16,0.29,0.16c0.08,0,0.15-0.02,0.21-0.05c0.06-0.03,0.11-0.08,0.14-0.14V4.63c-0.04-0.07-0.09-0.12-0.14-0.15
				c-0.06-0.04-0.13-0.05-0.2-0.05c-0.13,0-0.23,0.06-0.29,0.18s-0.09,0.28-0.09,0.48V5.12z"/>
			<path d="M35.08,5.52c0-0.06-0.03-0.11-0.09-0.16c-0.06-0.04-0.17-0.08-0.32-0.12c-0.24-0.05-0.42-0.12-0.54-0.22
				c-0.12-0.1-0.18-0.23-0.18-0.4c0-0.18,0.07-0.33,0.22-0.45c0.15-0.12,0.34-0.19,0.59-0.19c0.26,0,0.47,0.06,0.62,0.18
				c0.15,0.12,0.23,0.28,0.22,0.47l0,0.01h-0.53c0-0.08-0.03-0.15-0.08-0.2c-0.05-0.05-0.13-0.08-0.23-0.08
				c-0.09,0-0.16,0.02-0.21,0.07c-0.05,0.04-0.08,0.1-0.08,0.17c0,0.06,0.03,0.12,0.08,0.16s0.16,0.08,0.32,0.11
				c0.25,0.05,0.44,0.12,0.56,0.22s0.18,0.23,0.18,0.41c0,0.18-0.08,0.34-0.23,0.45c-0.16,0.12-0.36,0.18-0.62,0.18
				c-0.27,0-0.48-0.07-0.64-0.21c-0.16-0.14-0.23-0.3-0.23-0.47l0-0.01h0.5c0,0.11,0.04,0.19,0.11,0.24
				c0.07,0.05,0.16,0.07,0.27,0.07c0.1,0,0.18-0.02,0.23-0.06C35.06,5.65,35.08,5.59,35.08,5.52z"/>
			<path d="M39.17,4.96c0,0.34-0.11,0.62-0.32,0.84c-0.21,0.22-0.49,0.33-0.83,0.33c-0.34,0-0.61-0.11-0.82-0.33
				c-0.21-0.22-0.32-0.5-0.32-0.84v-0.5c0-0.34,0.1-0.62,0.31-0.84s0.48-0.33,0.82-0.33c0.34,0,0.62,0.11,0.83,0.33
				s0.32,0.5,0.32,0.84V4.96z M38.62,4.45c0-0.22-0.05-0.39-0.16-0.53c-0.11-0.14-0.25-0.21-0.44-0.21c-0.19,0-0.33,0.07-0.43,0.21
				c-0.1,0.14-0.15,0.32-0.15,0.53v0.5c0,0.22,0.05,0.4,0.16,0.54s0.25,0.21,0.43,0.21c0.19,0,0.33-0.07,0.44-0.21
				c0.1-0.14,0.16-0.32,0.16-0.54V4.45z"/>
			<path d="M40.8,5.8c-0.06,0.11-0.14,0.19-0.24,0.25c-0.1,0.06-0.21,0.09-0.33,0.09c-0.21,0-0.38-0.07-0.5-0.21
				c-0.12-0.14-0.18-0.35-0.18-0.65V4.03h0.55v1.25c0,0.15,0.02,0.26,0.08,0.32c0.05,0.07,0.12,0.1,0.22,0.1
				c0.09,0,0.16-0.01,0.23-0.04c0.06-0.03,0.11-0.07,0.15-0.13v-1.5h0.55v2.06h-0.47L40.8,5.8z"/>
			<path d="M42.38,3.53v0.5h0.34v0.39h-0.34v1.05c0,0.08,0.02,0.14,0.05,0.17c0.03,0.03,0.08,0.05,0.13,0.05c0.03,0,0.05,0,0.07,0
				c0.02,0,0.04-0.01,0.07-0.02l0.05,0.4c-0.06,0.02-0.11,0.03-0.16,0.04c-0.05,0.01-0.11,0.01-0.17,0.01
				c-0.19,0-0.33-0.05-0.44-0.16s-0.15-0.27-0.15-0.5V4.42h-0.3V4.03h0.3v-0.5H42.38z"/>
			<path d="M44.17,5.52c0-0.06-0.03-0.11-0.09-0.16c-0.06-0.04-0.17-0.08-0.32-0.12c-0.24-0.05-0.42-0.12-0.54-0.22
				c-0.12-0.1-0.18-0.23-0.18-0.4c0-0.18,0.07-0.33,0.22-0.45c0.15-0.12,0.34-0.19,0.59-0.19c0.26,0,0.47,0.06,0.62,0.18
				c0.15,0.12,0.23,0.28,0.22,0.47l0,0.01h-0.53c0-0.08-0.03-0.15-0.08-0.2c-0.05-0.05-0.13-0.08-0.23-0.08
				c-0.09,0-0.16,0.02-0.21,0.07c-0.05,0.04-0.08,0.1-0.08,0.17c0,0.06,0.03,0.12,0.08,0.16s0.16,0.08,0.32,0.11
				C44.22,4.92,44.4,5,44.52,5.09s0.18,0.23,0.18,0.41c0,0.18-0.08,0.34-0.23,0.45c-0.16,0.12-0.36,0.18-0.62,0.18
				c-0.27,0-0.48-0.07-0.64-0.21c-0.16-0.14-0.23-0.3-0.23-0.47l0-0.01h0.5c0,0.11,0.04,0.19,0.11,0.24
				c0.07,0.05,0.16,0.07,0.27,0.07c0.1,0,0.18-0.02,0.23-0.06C44.15,5.65,44.17,5.59,44.17,5.52z"/>
			<path d="M45.64,3.54h-0.55V3.12h0.55V3.54z M45.64,6.09h-0.55V4.03h0.55V6.09z"/>
			<path d="M46,5.08c0-0.33,0.07-0.59,0.21-0.79c0.14-0.2,0.33-0.3,0.59-0.3c0.1,0,0.19,0.02,0.27,0.07
				c0.08,0.04,0.15,0.11,0.21,0.19V3.12h0.55v2.97h-0.47l-0.05-0.25c-0.06,0.09-0.14,0.17-0.23,0.22c-0.09,0.05-0.19,0.07-0.3,0.07
				c-0.25,0-0.44-0.09-0.58-0.28C46.07,5.67,46,5.42,46,5.12V5.08z M46.55,5.12c0,0.18,0.03,0.32,0.09,0.43
				c0.06,0.1,0.16,0.16,0.29,0.16c0.08,0,0.15-0.02,0.21-0.05c0.06-0.03,0.11-0.08,0.14-0.14V4.63c-0.04-0.07-0.09-0.12-0.14-0.15
				c-0.06-0.04-0.13-0.05-0.2-0.05c-0.13,0-0.23,0.06-0.29,0.18s-0.09,0.28-0.09,0.48V5.12z"/>
			<path d="M49.16,6.13c-0.29,0-0.53-0.1-0.7-0.29c-0.18-0.19-0.26-0.43-0.26-0.72V5.05c0-0.31,0.08-0.56,0.25-0.76
				c0.17-0.2,0.39-0.3,0.67-0.29c0.27,0,0.49,0.08,0.64,0.25c0.15,0.17,0.23,0.39,0.23,0.68v0.3h-1.21l0,0.01
				c0.01,0.14,0.06,0.25,0.13,0.33c0.08,0.09,0.19,0.13,0.32,0.13c0.12,0,0.22-0.01,0.3-0.04c0.08-0.02,0.17-0.06,0.26-0.12
				l0.15,0.34c-0.08,0.07-0.19,0.13-0.33,0.17C49.48,6.11,49.33,6.13,49.16,6.13z M49.11,4.42c-0.1,0-0.18,0.04-0.24,0.12
				c-0.06,0.08-0.1,0.18-0.11,0.31l0.01,0.01h0.67V4.81c0-0.12-0.03-0.21-0.08-0.28S49.22,4.42,49.11,4.42z"/>
			<path d="M51.22,5.01c0,0.49-0.1,0.91-0.3,1.26s-0.42,0.58-0.66,0.68h-0.01l-0.1-0.27c0.16-0.12,0.3-0.33,0.41-0.6
				c0.11-0.28,0.17-0.63,0.17-1.06V4.96c0-0.43-0.06-0.78-0.17-1.06c-0.11-0.28-0.25-0.48-0.41-0.61l0.1-0.27h0.01
				c0.24,0.1,0.46,0.33,0.66,0.68c0.2,0.35,0.3,0.77,0.3,1.26V5.01z"/>
		</g>
	</g>
	<polyline class="st3" points="10.4,30.95 20.21,25.26 29.17,32.74 39.82,25.53 49.62,34.05 69.23,14.68 	"/>
	<g>
		<path class="st4" d="M8.33,36.67c0-0.13-0.05-0.23-0.14-0.32c-0.09-0.08-0.26-0.16-0.5-0.21c-0.29-0.07-0.52-0.17-0.68-0.31
			c-0.16-0.14-0.24-0.31-0.24-0.51c0-0.22,0.09-0.4,0.26-0.54c0.17-0.15,0.4-0.22,0.68-0.22c0.3,0,0.54,0.08,0.72,0.25
			c0.18,0.17,0.26,0.36,0.26,0.58l0,0.01H8.32c0-0.16-0.05-0.29-0.16-0.39s-0.26-0.15-0.46-0.15c-0.18,0-0.33,0.04-0.42,0.13
			c-0.1,0.08-0.15,0.19-0.15,0.33c0,0.12,0.05,0.22,0.16,0.3c0.11,0.08,0.28,0.15,0.52,0.21c0.29,0.07,0.51,0.18,0.66,0.32
			s0.23,0.32,0.23,0.52c0,0.22-0.09,0.4-0.27,0.54c-0.18,0.14-0.42,0.2-0.71,0.2c-0.27,0-0.52-0.08-0.73-0.23s-0.31-0.35-0.31-0.6
			l0-0.01h0.35c0,0.18,0.06,0.31,0.19,0.41s0.29,0.14,0.48,0.14c0.19,0,0.33-0.04,0.44-0.12C8.27,36.92,8.33,36.81,8.33,36.67z"/>
		<path class="st4" d="M9.66,34.82v0.5h0.39v0.28H9.66v1.25c0,0.1,0.02,0.16,0.06,0.2c0.04,0.04,0.09,0.06,0.16,0.06
			c0.02,0,0.04,0,0.07-0.01s0.05-0.01,0.07-0.02l0.05,0.26c-0.03,0.02-0.07,0.04-0.12,0.06c-0.05,0.01-0.11,0.02-0.16,0.02
			c-0.15,0-0.27-0.05-0.36-0.14c-0.09-0.09-0.13-0.24-0.13-0.43v-1.25H8.96v-0.28h0.32v-0.5H9.66z"/>
		<path class="st4" d="M11.75,37.37c-0.01-0.06-0.02-0.12-0.03-0.17c-0.01-0.05-0.01-0.09-0.01-0.14c-0.07,0.1-0.16,0.18-0.27,0.25
			c-0.11,0.07-0.23,0.1-0.36,0.1c-0.21,0-0.37-0.05-0.48-0.17c-0.11-0.11-0.17-0.26-0.17-0.45c0-0.2,0.08-0.35,0.24-0.46
			c0.16-0.11,0.37-0.17,0.64-0.17h0.4v-0.2c0-0.12-0.04-0.22-0.11-0.29c-0.07-0.07-0.18-0.11-0.31-0.11c-0.12,0-0.22,0.03-0.29,0.09
			c-0.07,0.06-0.11,0.14-0.11,0.22h-0.35l0-0.01c-0.01-0.15,0.06-0.29,0.21-0.41c0.15-0.12,0.34-0.19,0.57-0.19
			c0.23,0,0.42,0.06,0.56,0.18c0.14,0.12,0.21,0.29,0.21,0.51v0.99c0,0.07,0,0.14,0.01,0.21c0.01,0.07,0.02,0.14,0.04,0.2H11.75z
			 M11.14,37.1c0.13,0,0.25-0.03,0.36-0.1c0.11-0.07,0.18-0.15,0.21-0.24v-0.33h-0.42c-0.15,0-0.27,0.04-0.36,0.11
			S10.8,36.7,10.8,36.8c0,0.09,0.03,0.16,0.08,0.22C10.94,37.07,11.03,37.1,11.14,37.1z"/>
		<path class="st4" d="M13.58,35.64l-0.19-0.01c-0.1,0-0.18,0.02-0.25,0.07c-0.07,0.05-0.12,0.11-0.16,0.2v1.47h-0.37v-2.06h0.33
			l0.04,0.3c0.06-0.11,0.13-0.19,0.21-0.25c0.08-0.06,0.18-0.09,0.29-0.09c0.03,0,0.05,0,0.08,0.01c0.02,0,0.05,0.01,0.06,0.01
			L13.58,35.64z"/>
		<path class="st4" d="M14.46,34.82v0.5h0.39v0.28h-0.39v1.25c0,0.1,0.02,0.16,0.06,0.2c0.04,0.04,0.09,0.06,0.16,0.06
			c0.02,0,0.04,0,0.07-0.01s0.05-0.01,0.07-0.02l0.05,0.26c-0.03,0.02-0.07,0.04-0.12,0.06c-0.05,0.01-0.11,0.02-0.16,0.02
			c-0.15,0-0.27-0.05-0.36-0.14c-0.09-0.09-0.13-0.24-0.13-0.43v-1.25h-0.32v-0.28h0.32v-0.5H14.46z"/>
	</g>
	<g>
		<path class="st4" d="M72.78,18.29h-1.25v0.99h1.45v0.29h-1.82V16.8h1.8v0.29h-1.42V18h1.25V18.29z"/>
		<path class="st4" d="M73.66,17.52l0.03,0.31c0.07-0.11,0.15-0.19,0.25-0.25c0.1-0.06,0.22-0.09,0.35-0.09
			c0.22,0,0.39,0.07,0.51,0.2c0.12,0.13,0.18,0.33,0.18,0.6v1.3h-0.37v-1.29c0-0.18-0.04-0.31-0.11-0.39s-0.18-0.11-0.32-0.11
			c-0.11,0-0.2,0.03-0.28,0.08c-0.08,0.05-0.15,0.12-0.2,0.21v1.5h-0.37v-2.06H73.66z"/>
		<path class="st4" d="M75.44,18.59c0-0.33,0.07-0.6,0.21-0.8c0.14-0.2,0.34-0.3,0.59-0.3c0.12,0,0.22,0.02,0.32,0.07
			c0.09,0.04,0.17,0.11,0.24,0.19v-1.13h0.37v2.97h-0.3l-0.04-0.25c-0.07,0.1-0.15,0.17-0.24,0.22c-0.1,0.05-0.21,0.07-0.34,0.07
			c-0.25,0-0.44-0.09-0.58-0.27c-0.14-0.18-0.21-0.42-0.21-0.72V18.59z M75.81,18.63c0,0.21,0.04,0.38,0.13,0.5s0.21,0.19,0.39,0.19
			c0.11,0,0.2-0.03,0.28-0.08s0.14-0.12,0.18-0.21v-0.96c-0.05-0.08-0.11-0.15-0.19-0.2c-0.08-0.05-0.17-0.08-0.27-0.08
			c-0.18,0-0.31,0.07-0.39,0.22s-0.13,0.34-0.13,0.58V18.63z"/>
	</g>
	<g>
		<g>
			<path class="st5" d="M4.9,45.81h1l-0.05,0.25h-1.3L5,43.75h0.3L4.9,45.81z"/>
			<path class="st5" d="M6.22,45.18c0.04-0.26,0.14-0.48,0.29-0.64s0.33-0.24,0.56-0.24c0.21,0,0.37,0.08,0.47,0.25
				c0.1,0.17,0.14,0.37,0.1,0.63l0,0.03c-0.04,0.27-0.14,0.48-0.29,0.64s-0.34,0.24-0.56,0.24c-0.21,0-0.37-0.08-0.47-0.25
				c-0.1-0.17-0.14-0.37-0.1-0.63L6.22,45.18z M6.52,45.22c-0.03,0.19-0.02,0.34,0.03,0.46c0.05,0.12,0.14,0.17,0.28,0.17
				c0.13,0,0.24-0.06,0.33-0.18s0.15-0.27,0.18-0.45l0-0.04c0.03-0.19,0.02-0.34-0.03-0.45c-0.05-0.12-0.14-0.17-0.28-0.17
				c-0.13,0-0.24,0.06-0.33,0.18s-0.15,0.27-0.18,0.45L6.52,45.22z"/>
			<path class="st5" d="M8.38,45.43l-0.01,0.18l0.01,0l0.07-0.19l0.53-1.09h0.24l0.1,1.09l0,0.21l0.01,0l0.08-0.21l0.46-1.09h0.3
				l-0.8,1.72H9.13l-0.09-1.05l-0.01-0.28l-0.01,0L8.9,45.01l-0.5,1.05H8.16l-0.12-1.72h0.3L8.38,45.43z"/>
			<path class="st5" d="M12.78,43.99H12.1l-0.41,2.06h-0.3l0.41-2.06h-0.67l0.05-0.25h1.65L12.78,43.99z"/>
			<path class="st5" d="M13.43,46.06c0-0.05,0-0.09,0-0.13c0-0.03,0.01-0.07,0.01-0.1c-0.07,0.08-0.15,0.14-0.24,0.19
				c-0.09,0.05-0.18,0.08-0.27,0.08c-0.15,0-0.27-0.05-0.34-0.14s-0.09-0.22-0.06-0.38c0.03-0.17,0.12-0.31,0.25-0.39
				c0.14-0.09,0.31-0.13,0.52-0.13h0.29l0.03-0.17c0.02-0.11,0.01-0.19-0.03-0.24c-0.04-0.05-0.12-0.08-0.22-0.08
				c-0.09,0-0.17,0.03-0.24,0.08c-0.07,0.05-0.11,0.11-0.13,0.18h-0.29l0-0.01c0.02-0.13,0.1-0.25,0.23-0.35
				c0.14-0.1,0.3-0.15,0.49-0.15c0.17,0,0.3,0.05,0.4,0.15c0.1,0.1,0.13,0.24,0.09,0.42l-0.16,0.83c-0.01,0.06-0.02,0.12-0.03,0.18
				c-0.01,0.06-0.01,0.11,0,0.17H13.43z M13.03,45.83c0.08,0,0.17-0.02,0.26-0.07c0.09-0.05,0.16-0.11,0.2-0.18l0.06-0.32h-0.3
				c-0.1,0-0.2,0.03-0.28,0.1s-0.13,0.14-0.15,0.22c-0.02,0.08-0.01,0.14,0.02,0.19S12.94,45.83,13.03,45.83z"/>
			<path class="st5" d="M15.17,44.62l-0.17-0.01c-0.07,0-0.13,0.02-0.19,0.06c-0.06,0.04-0.11,0.09-0.15,0.17l-0.24,1.22h-0.3
				l0.34-1.72h0.27l-0.02,0.23c0.06-0.08,0.12-0.15,0.2-0.19c0.07-0.04,0.15-0.07,0.24-0.07c0.02,0,0.04,0,0.07,0.01
				s0.04,0.01,0.05,0.01L15.17,44.62z"/>
			<path class="st5" d="M15.26,45.2c0.06-0.29,0.15-0.52,0.28-0.67s0.29-0.22,0.49-0.22c0.09,0,0.18,0.02,0.25,0.06
				c0.07,0.04,0.13,0.1,0.18,0.18l0.07-0.21h0.26l-0.33,1.69c-0.05,0.24-0.14,0.42-0.28,0.54s-0.33,0.18-0.55,0.18
				c-0.07,0-0.15-0.01-0.24-0.04c-0.09-0.02-0.16-0.05-0.22-0.09l0.12-0.24c0.04,0.03,0.1,0.06,0.17,0.08
				c0.07,0.02,0.14,0.03,0.21,0.03c0.13,0,0.23-0.04,0.31-0.12c0.08-0.08,0.14-0.19,0.17-0.33l0.02-0.12
				c-0.06,0.06-0.13,0.1-0.2,0.13c-0.07,0.03-0.15,0.04-0.23,0.04c-0.18,0-0.32-0.08-0.41-0.25c-0.09-0.17-0.12-0.37-0.07-0.61
				L15.26,45.2z M15.56,45.23c-0.04,0.18-0.03,0.33,0.02,0.44c0.05,0.11,0.15,0.17,0.29,0.17c0.07,0,0.14-0.02,0.2-0.06
				s0.12-0.1,0.17-0.18l0.16-0.8c-0.03-0.07-0.07-0.12-0.13-0.17c-0.06-0.04-0.12-0.06-0.21-0.06c-0.13,0-0.23,0.06-0.31,0.17
				c-0.08,0.12-0.15,0.27-0.18,0.46L15.56,45.23z"/>
			<path class="st5" d="M17.55,46.09c-0.21,0-0.37-0.08-0.48-0.24c-0.11-0.16-0.14-0.37-0.1-0.62l0.01-0.07
				c0.04-0.25,0.14-0.46,0.3-0.62c0.16-0.16,0.33-0.24,0.51-0.24c0.21,0,0.36,0.07,0.45,0.21c0.09,0.14,0.12,0.33,0.08,0.56
				l-0.03,0.2h-1.02c-0.02,0.17-0.01,0.31,0.05,0.42c0.06,0.1,0.15,0.15,0.28,0.15c0.09,0,0.18-0.02,0.26-0.05
				c0.08-0.03,0.15-0.07,0.21-0.12l0.09,0.2c-0.06,0.06-0.15,0.11-0.24,0.15C17.8,46.07,17.69,46.09,17.55,46.09z M17.75,44.56
				c-0.09,0-0.17,0.04-0.25,0.13s-0.14,0.2-0.18,0.33l0,0.01h0.7l0.01-0.04c0.02-0.13,0.01-0.23-0.04-0.31S17.87,44.56,17.75,44.56z
				"/>
			<path class="st5" d="M19.29,43.93l-0.08,0.41h0.29l-0.05,0.23h-0.29l-0.21,1.04c-0.02,0.08-0.02,0.14,0.01,0.17
				c0.02,0.03,0.06,0.04,0.11,0.04c0.02,0,0.05,0,0.09-0.01c0.03,0,0.06-0.01,0.08-0.02l0,0.21c-0.03,0.02-0.07,0.03-0.13,0.05
				c-0.06,0.01-0.11,0.02-0.17,0.02c-0.11,0-0.19-0.04-0.25-0.12s-0.07-0.2-0.04-0.36l0.21-1.04h-0.25l0.05-0.23h0.25l0.08-0.41
				H19.29z"/>
		</g>
	</g>
	<g>
		<g>
			<path class="st5" d="M6.16,18.11h-0.3l0.2-1.02H5.05l-0.2,1.02h-0.3L5,15.8h0.3L5.1,16.84h1.01l0.21-1.04h0.3L6.16,18.11z"/>
			<path class="st5" d="M6.97,18.11h-0.3L7,16.39h0.3L6.97,18.11z M7.39,15.95h-0.3l0.06-0.32h0.3L7.39,15.95z"/>
			<path class="st5" d="M7.52,17.25c0.06-0.29,0.15-0.52,0.28-0.67s0.29-0.22,0.49-0.22c0.09,0,0.18,0.02,0.25,0.06
				c0.07,0.04,0.13,0.1,0.18,0.18l0.07-0.21h0.26l-0.33,1.69c-0.05,0.24-0.14,0.42-0.28,0.54S8.1,18.8,7.88,18.8
				c-0.07,0-0.15-0.01-0.24-0.04c-0.09-0.02-0.16-0.05-0.22-0.09l0.12-0.24c0.04,0.03,0.1,0.06,0.17,0.08
				c0.07,0.02,0.14,0.03,0.21,0.03c0.13,0,0.23-0.04,0.31-0.12c0.08-0.08,0.14-0.19,0.17-0.33l0.02-0.12
				c-0.06,0.06-0.13,0.1-0.2,0.13C8.16,18.13,8.09,18.14,8,18.14c-0.18,0-0.32-0.08-0.41-0.25c-0.09-0.17-0.12-0.37-0.07-0.61
				L7.52,17.25z M7.82,17.28c-0.04,0.18-0.03,0.33,0.02,0.44c0.05,0.11,0.15,0.17,0.29,0.17c0.07,0,0.14-0.02,0.2-0.06
				s0.12-0.1,0.17-0.18l0.16-0.8c-0.03-0.07-0.07-0.12-0.13-0.17c-0.06-0.04-0.12-0.06-0.21-0.06c-0.13,0-0.23,0.06-0.31,0.17
				c-0.08,0.12-0.15,0.27-0.18,0.46L7.82,17.28z"/>
			<path class="st5" d="M9.73,16.6c0.07-0.08,0.15-0.14,0.23-0.18c0.08-0.04,0.18-0.06,0.27-0.06c0.16,0,0.28,0.06,0.35,0.17
				c0.08,0.11,0.09,0.28,0.05,0.5l-0.21,1.08h-0.3l0.21-1.08c0.03-0.15,0.02-0.26-0.02-0.32c-0.04-0.06-0.12-0.1-0.23-0.1
				c-0.07,0-0.14,0.02-0.21,0.06c-0.07,0.04-0.14,0.1-0.19,0.17l-0.25,1.26h-0.3l0.49-2.48h0.3L9.73,16.6z"/>
			<path class="st5" d="M13.51,16.04h-0.68l-0.41,2.06h-0.3l0.41-2.06h-0.67l0.05-0.25h1.65L13.51,16.04z"/>
			<path class="st5" d="M14.16,18.11c0-0.05,0-0.09,0-0.13c0-0.03,0.01-0.07,0.01-0.1c-0.07,0.08-0.15,0.14-0.24,0.19
				c-0.09,0.05-0.18,0.08-0.27,0.08c-0.15,0-0.27-0.05-0.34-0.14s-0.09-0.22-0.06-0.38c0.03-0.17,0.12-0.31,0.25-0.39
				c0.14-0.09,0.31-0.13,0.52-0.13h0.29l0.03-0.17c0.02-0.11,0.01-0.19-0.03-0.24c-0.04-0.05-0.12-0.08-0.22-0.08
				c-0.09,0-0.17,0.03-0.24,0.08c-0.07,0.05-0.11,0.11-0.13,0.18h-0.29l0-0.01c0.02-0.13,0.1-0.25,0.23-0.35
				c0.14-0.1,0.3-0.15,0.49-0.15c0.17,0,0.3,0.05,0.4,0.15c0.1,0.1,0.13,0.24,0.09,0.42l-0.16,0.83c-0.01,0.06-0.02,0.12-0.03,0.18
				c-0.01,0.06-0.01,0.11,0,0.17H14.16z M13.76,17.88c0.08,0,0.17-0.02,0.26-0.07c0.09-0.05,0.16-0.11,0.2-0.18l0.06-0.32h-0.3
				c-0.1,0-0.2,0.03-0.28,0.1s-0.13,0.14-0.15,0.22c-0.02,0.08-0.01,0.14,0.02,0.19S13.67,17.88,13.76,17.88z"/>
			<path class="st5" d="M15.91,16.67l-0.17-0.01c-0.07,0-0.13,0.02-0.19,0.06c-0.06,0.04-0.11,0.09-0.15,0.17l-0.24,1.22h-0.3
				l0.34-1.72h0.27l-0.02,0.23c0.06-0.08,0.12-0.15,0.2-0.19c0.07-0.04,0.15-0.07,0.24-0.07c0.02,0,0.04,0,0.07,0.01
				s0.04,0.01,0.05,0.01L15.91,16.67z"/>
			<path class="st5" d="M16,17.25c0.06-0.29,0.15-0.52,0.28-0.67s0.29-0.22,0.49-0.22c0.09,0,0.18,0.02,0.25,0.06
				c0.07,0.04,0.13,0.1,0.18,0.18l0.07-0.21h0.26l-0.33,1.69c-0.05,0.24-0.14,0.42-0.28,0.54s-0.33,0.18-0.55,0.18
				c-0.07,0-0.15-0.01-0.24-0.04c-0.09-0.02-0.16-0.05-0.22-0.09l0.12-0.24c0.04,0.03,0.1,0.06,0.17,0.08
				c0.07,0.02,0.14,0.03,0.21,0.03c0.13,0,0.23-0.04,0.31-0.12c0.08-0.08,0.14-0.19,0.17-0.33l0.02-0.12
				c-0.06,0.06-0.13,0.1-0.2,0.13c-0.07,0.03-0.15,0.04-0.23,0.04c-0.18,0-0.32-0.08-0.41-0.25c-0.09-0.17-0.12-0.37-0.07-0.61
				L16,17.25z M16.29,17.28c-0.04,0.18-0.03,0.33,0.02,0.44c0.05,0.11,0.15,0.17,0.29,0.17c0.07,0,0.14-0.02,0.2-0.06
				s0.12-0.1,0.17-0.18l0.16-0.8c-0.03-0.07-0.07-0.12-0.13-0.17c-0.06-0.04-0.12-0.06-0.21-0.06c-0.13,0-0.23,0.06-0.31,0.17
				c-0.08,0.12-0.15,0.27-0.18,0.46L16.29,17.28z"/>
			<path class="st5" d="M18.29,18.14c-0.21,0-0.37-0.08-0.48-0.24c-0.11-0.16-0.14-0.37-0.1-0.62l0.01-0.07
				c0.04-0.25,0.14-0.46,0.3-0.62c0.16-0.16,0.33-0.24,0.51-0.24c0.21,0,0.36,0.07,0.45,0.21c0.09,0.14,0.12,0.33,0.08,0.56
				l-0.03,0.2h-1.02c-0.02,0.17-0.01,0.31,0.05,0.42c0.06,0.1,0.15,0.15,0.28,0.15c0.09,0,0.18-0.02,0.26-0.05
				c0.08-0.03,0.15-0.07,0.21-0.12l0.09,0.2c-0.06,0.06-0.15,0.11-0.24,0.15C18.53,18.12,18.42,18.14,18.29,18.14z M18.48,16.61
				c-0.09,0-0.17,0.04-0.25,0.13s-0.14,0.2-0.18,0.33l0,0.01h0.7l0.01-0.04c0.02-0.13,0.01-0.23-0.04-0.31S18.6,16.61,18.48,16.61z"
				/>
			<path class="st5" d="M20.03,15.98l-0.08,0.41h0.29l-0.05,0.23H19.9l-0.21,1.04c-0.02,0.08-0.02,0.14,0.01,0.17
				c0.02,0.03,0.06,0.04,0.11,0.04c0.02,0,0.05,0,0.09-0.01c0.03,0,0.06-0.01,0.08-0.02l0,0.21c-0.03,0.02-0.07,0.03-0.13,0.05
				c-0.06,0.01-0.11,0.02-0.17,0.02c-0.11,0-0.19-0.04-0.25-0.12s-0.07-0.2-0.04-0.36l0.21-1.04h-0.25l0.05-0.23h0.25l0.08-0.41
				H20.03z"/>
		</g>
	</g>
	<g>
		<path class="st6" d="M50.03,39.2h-9.35l-1.44-2.19l-1.44,2.19h-9.35c-0.7,0-1.26,0.57-1.26,1.28v6.61c0,0.71,0.57,1.28,1.26,1.28
			h21.59c0.7,0,1.26-0.57,1.26-1.28v-6.61C51.3,39.77,50.73,39.2,50.03,39.2z"/>
		<g>
			<g>
				<path class="st7" d="M37.11,44.77h0.02l0.58-2.81h0.79l-0.94,4.09H36.8l-0.74-2.7h-0.02l-0.74,2.7h-0.75l-0.95-4.09h0.79
					l0.58,2.8l0.02,0l0.76-2.81h0.6L37.11,44.77z"/>
				<path class="st7" d="M39.74,42.29h-0.81v-0.62h0.81V42.29z M39.74,46.06h-0.81v-3.04h0.81V46.06z"/>
				<path class="st7" d="M41.15,43.02l0.04,0.44c0.1-0.16,0.22-0.28,0.37-0.36c0.15-0.09,0.31-0.13,0.49-0.13
					c0.3,0,0.54,0.1,0.71,0.29s0.26,0.5,0.26,0.91v1.9H42.2v-1.9c0-0.21-0.04-0.35-0.12-0.44c-0.08-0.09-0.2-0.13-0.37-0.13
					c-0.11,0-0.2,0.02-0.29,0.07s-0.16,0.11-0.21,0.19v2.21h-0.81v-3.04H41.15z"/>
				<path class="st7" d="M44.49,44.65h-0.81v-2.68h0.81V44.65z M44.49,46.06h-0.81v-0.72h0.81V46.06z"/>
			</g>
		</g>
	</g>
	<g>
		<g class="st8">
			<ellipse class="st7" cx="69.23" cy="14.47" rx="2.17" ry="2.26"/>
		</g>
		<g>
			<ellipse class="st9" cx="69.23" cy="14.47" rx="2.17" ry="2.26"/>
		</g>
	</g>
	<g>
		<g class="st8">
			<ellipse class="st7" cx="10.4" cy="30.95" rx="2.17" ry="2.26"/>
		</g>
		<g>
			<ellipse class="st9" cx="10.4" cy="30.95" rx="2.17" ry="2.26"/>
		</g>
	</g>
</g>
</svg>
