<svg id="Layer_1" data-name="Layer 1" xmlns="http://www.w3.org/2000/svg" viewBox="0 0 79.26 52.65"><defs><style>.cls-1{fill:#f1f2f2;stroke:#c2c2c2}.cls-1,.cls-10,.cls-2{stroke-miterlimit:10}.cls-1,.cls-10{stroke-width:.6459px}.cls-10,.cls-2,.cls-3,.cls-4{fill:none}.cls-2,.cls-3,.cls-4{stroke:#dfdede;stroke-width:.3229px}.cls-3,.cls-4{stroke:#2a3052;stroke-linejoin:round}.cls-4{stroke-linecap:round;stroke-width:.9688px}.cls-5{fill:#2a3052}.cls-6{fill:#6d6e71}.cls-7{fill:#e88024}.cls-8{fill:#fff}.cls-9{opacity:.6}.cls-10{stroke:#e88024}</style></defs><title>Artboard 1</title><path class="cls-1" d="M.32.32h78.61v52H.32z"/><path class="cls-2" d="M1.04 14.68h77.5M1.04 25.53h77.5M1.04 36.38h77.5M1.04 47.22h77.5M10.4 9.26V52m9.81-42.74V52m9.8-42.74V52m9.81-42.74V52m9.8-42.74V52m9.8-42.74V52M1.04 30.95h77.5"/><path class="cls-3" d="M69.23 9.26V52M1.04 20.11h77.5M1.04 41.8h77.5"/><path class="cls-1" d="M.48 8.94H79.1"/><path d="M4.15 5.37a.347.347 0 0 0-.11-.26.945.945 0 0 0-.39-.18 2.333 2.333 0 0 1-.74-.34.638.638 0 0 1-.25-.54.683.683 0 0 1 .29-.56 1.217 1.217 0 0 1 .73-.22 1.07 1.07 0 0 1 .73.24.71.71 0 0 1 .27.6v.01h-.53a.387.387 0 0 0-.13-.31.489.489 0 0 0-.36-.12.494.494 0 0 0-.34.1.317.317 0 0 0-.12.25.267.267 0 0 0 .13.23 1.938 1.938 0 0 0 .44.19 1.85 1.85 0 0 1 .69.34.683.683 0 0 1 .23.55.649.649 0 0 1-.28.56 1.192 1.192 0 0 1-.73.21 1.354 1.354 0 0 1-.78-.23.723.723 0 0 1-.32-.65v-.01h.53a.409.409 0 0 0 .15.36.722.722 0 0 0 .42.12.551.551 0 0 0 .34-.09.288.288 0 0 0 .13-.25zm1.57-1.84v.5h.34v.39h-.34v1.05a.246.246 0 0 0 .05.17.19.19 0 0 0 .13.05h.07a.254.254 0 0 0 .07-.02l.05.4a1.244 1.244 0 0 1-.16.04.915.915 0 0 1-.17.01.582.582 0 0 1-.44-.16.642.642 0 0 1-.15-.49V4.42h-.3v-.39h.3v-.5zm1.89 2.56c-.02-.05-.04-.09-.06-.15l-.03-.16a.881.881 0 0 1-.22.25.518.518 0 0 1-.33.1.677.677 0 0 1-.49-.17.574.574 0 0 1-.17-.45.556.556 0 0 1 .23-.47 1.14 1.14 0 0 1 .67-.17h.31v-.16a.28.28 0 0 0-.31-.31.282.282 0 0 0-.21.07.227.227 0 0 0-.07.18H6.4v-.01a.547.547 0 0 1 .22-.45.956.956 0 0 1 .62-.19.872.872 0 0 1 .59.19.66.66 0 0 1 .23.53v.85a2.128 2.128 0 0 0 .02.27 1.17 1.17 0 0 0 .07.25zm-.51-.37a.462.462 0 0 0 .26-.07.303.303 0 0 0 .15-.17v-.29H7.2a.367.367 0 0 0-.27.09.288.288 0 0 0-.09.21.22.22 0 0 0 .07.17.33.33 0 0 0 .19.06zm2.08-.49l.02.11h.01l.39-1.31h.59L9.37 6.4a1.227 1.227 0 0 1-.23.37.611.611 0 0 1-.45.15.528.528 0 0 1-.13-.01c-.04-.01-.09-.02-.14-.03l.06-.41a.09.09 0 0 1 .05.01h.05a.282.282 0 0 0 .21-.07.337.337 0 0 0 .11-.17l.07-.15-.72-2.06h.59zm2.34.29a.206.206 0 0 0-.09-.16 1.196 1.196 0 0 0-.32-.12 1.238 1.238 0 0 1-.54-.22.49.49 0 0 1-.18-.4.55.55 0 0 1 .22-.45.907.907 0 0 1 .59-.19.973.973 0 0 1 .62.18.547.547 0 0 1 .22.47v.01h-.53a.28.28 0 0 0-.08-.2.32.32 0 0 0-.23-.08.282.282 0 0 0-.21.07.209.209 0 0 0 0 .33.811.811 0 0 0 .32.11 1.482 1.482 0 0 1 .56.22.459.459 0 0 1 .18.41.546.546 0 0 1-.23.45.993.993 0 0 1-.62.18.931.931 0 0 1-.64-.21.61.61 0 0 1-.23-.47v-.01h.5a.278.278 0 0 0 .11.24.453.453 0 0 0 .27.07.371.371 0 0 0 .23-.06.214.214 0 0 0 .08-.17zm1.88.57V3.32h.92a1.262 1.262 0 0 1 .75.19.659.659 0 0 1 .27.57.568.568 0 0 1-.1.34.611.611 0 0 1-.29.23.594.594 0 0 1 .37.23.707.707 0 0 1 .12.41.71.71 0 0 1-.26.6 1.133 1.133 0 0 1-.73.21H13.4zm.55-1.61h.4a.551.551 0 0 0 .34-.09.316.316 0 0 0 .12-.27.323.323 0 0 0-.12-.28.597.597 0 0 0-.36-.09h-.38zm0 .39v.8h.51a.45.45 0 0 0 .33-.1.33.33 0 0 0 .11-.28.37.37 0 0 0-.41-.42zm2.78 1.26a.905.905 0 0 1-.7-.29.998.998 0 0 1-.26-.72v-.08a1.124 1.124 0 0 1 .25-.76.796.796 0 0 1 .67-.29.815.815 0 0 1 .64.25.981.981 0 0 1 .23.68v.3h-1.21v.01a.55.55 0 0 0 .13.33.408.408 0 0 0 .32.13.872.872 0 0 0 .3-.04.853.853 0 0 0 .26-.12l.15.34a.853.853 0 0 1-.33.17.955.955 0 0 1-.45.09zm-.05-1.71a.285.285 0 0 0-.24.12.574.574 0 0 0-.11.31l.01.01h.67v-.05a.465.465 0 0 0-.08-.28.297.297 0 0 0-.25-.11zm1.84-.89v.5h.34v.39h-.34v1.05a.246.246 0 0 0 .05.17.19.19 0 0 0 .13.05h.07a.254.254 0 0 0 .07-.02l.05.4a1.244 1.244 0 0 1-.16.04.915.915 0 0 1-.17.01.582.582 0 0 1-.44-.16.642.642 0 0 1-.15-.49V4.42h-.3v-.39h.3v-.5zm2.46 1.82h.01l.27-1.32h.52l-.52 2.06h-.46l-.38-1.23h-.01l-.38 1.23h-.46l-.52-2.06h.52l.27 1.32h.01l.38-1.32h.37zm1.97.78a.905.905 0 0 1-.7-.29.998.998 0 0 1-.26-.72v-.08a1.124 1.124 0 0 1 .25-.76.796.796 0 0 1 .67-.29.815.815 0 0 1 .64.25.981.981 0 0 1 .23.68v.3h-1.22v.01a.55.55 0 0 0 .13.33.408.408 0 0 0 .32.13.872.872 0 0 0 .3-.04.853.853 0 0 0 .26-.12l.15.34a.853.853 0 0 1-.33.17.915.915 0 0 1-.44.09zm-.05-1.71a.285.285 0 0 0-.24.12.574.574 0 0 0-.11.31l.01.01h.67v-.05a.465.465 0 0 0-.08-.28.297.297 0 0 0-.25-.11zm2.08 1.71a.905.905 0 0 1-.7-.29 1.043 1.043 0 0 1-.26-.72v-.08a1.124 1.124 0 0 1 .25-.76.796.796 0 0 1 .67-.29.815.815 0 0 1 .64.25.981.981 0 0 1 .23.68v.3H24.6v.01a.496.496 0 0 0 .13.33.408.408 0 0 0 .32.13.872.872 0 0 0 .3-.04.853.853 0 0 0 .26-.12l.15.34a.853.853 0 0 1-.33.17.93.93 0 0 1-.45.09zm-.04-1.71a.285.285 0 0 0-.24.12.574.574 0 0 0-.11.31l.01.01h.67v-.05a.465.465 0 0 0-.08-.28.297.297 0 0 0-.25-.11zm1.68-.39l.02.29a.747.747 0 0 1 .25-.25.63.63 0 0 1 .33-.09.597.597 0 0 1 .48.2.956.956 0 0 1 .17.62v1.29h-.55V4.8a.419.419 0 0 0-.08-.29.333.333 0 0 0-.25-.09.448.448 0 0 0-.2.04.374.374 0 0 0-.15.13v1.5h-.55V4.03z"/><path class="cls-4" d="M10.4 30.95l11.1-5.42 10.59 6.45 7.7-7.6 9.83 8.36 9.8-7.21 9.81 2.66"/><path class="cls-5" d="M8.33 36.67a.431.431 0 0 0-.14-.32 1.125 1.125 0 0 0-.5-.21 1.593 1.593 0 0 1-.68-.31.654.654 0 0 1-.24-.51.673.673 0 0 1 .26-.54.994.994 0 0 1 .68-.22 1.003 1.003 0 0 1 .72.25.763.763 0 0 1 .26.58v.01h-.37a.499.499 0 0 0-.16-.39.653.653 0 0 0-.46-.15.588.588 0 0 0-.42.13.4.4 0 0 0-.15.33.354.354 0 0 0 .16.3 1.537 1.537 0 0 0 .52.21 1.455 1.455 0 0 1 .66.32.698.698 0 0 1 .23.52.654.654 0 0 1-.27.54 1.128 1.128 0 0 1-.71.2 1.242 1.242 0 0 1-.73-.23.698.698 0 0 1-.31-.6v-.01h.35a.477.477 0 0 0 .19.41.759.759 0 0 0 .48.14.719.719 0 0 0 .44-.12.348.348 0 0 0 .19-.33zm1.33-1.85v.5h.39v.28h-.39v1.25a.265.265 0 0 0 .06.2.211.211 0 0 0 .16.06.195.195 0 0 0 .07-.01.637.637 0 0 0 .07-.02l.05.26a.666.666 0 0 1-.12.06.875.875 0 0 1-.16.02.49.49 0 0 1-.36-.14.599.599 0 0 1-.13-.43V35.6h-.33v-.28h.32v-.5zm2.09 2.55c-.01-.06-.02-.12-.03-.17a.66.66 0 0 1-.01-.14.926.926 0 0 1-.27.25.653.653 0 0 1-.36.1.588.588 0 0 1-.65-.62.523.523 0 0 1 .24-.46 1.103 1.103 0 0 1 .64-.17h.4v-.2a.4.4 0 0 0-.11-.29.433.433 0 0 0-.31-.11.437.437 0 0 0-.29.09.295.295 0 0 0-.11.22h-.35v-.01a.48.48 0 0 1 .21-.41.89.89 0 0 1 .57-.19.837.837 0 0 1 .56.18.635.635 0 0 1 .21.51v.99a1.477 1.477 0 0 0 .05.41h-.39zm-.61-.27a.653.653 0 0 0 .36-.1.472.472 0 0 0 .21-.24v-.33h-.42a.572.572 0 0 0-.36.11.317.317 0 0 0-.13.26.33.33 0 0 0 .08.22.403.403 0 0 0 .26.08zm2.44-1.46l-.19-.01a.41.41 0 0 0-.25.07.46.46 0 0 0-.16.2v1.47h-.37v-2.06h.33l.04.3a.755.755 0 0 1 .21-.25.476.476 0 0 1 .29-.09.22.22 0 0 1 .08.01c.02 0 .05.01.06.01zm.88-.82v.5h.39v.28h-.39v1.25a.265.265 0 0 0 .06.2.211.211 0 0 0 .16.06.195.195 0 0 0 .07-.01.637.637 0 0 0 .07-.02l.05.26a.666.666 0 0 1-.12.06.875.875 0 0 1-.16.02.49.49 0 0 1-.36-.14.599.599 0 0 1-.13-.43V35.6h-.32v-.28h.32v-.5zm58.32-1.71h-1.25v.99h1.45v.29h-1.82v-2.77h1.8v.29h-1.42v.9h1.25v.3zm.88-.78l.03.31a.676.676 0 0 1 .6-.34.662.662 0 0 1 .51.2.86.86 0 0 1 .18.6v1.3h-.37v-1.3a.586.586 0 0 0-.11-.39.403.403 0 0 0-.32-.11.512.512 0 0 0-.28.08.578.578 0 0 0-.2.21v1.5h-.37v-2.06zm1.78 1.07a1.377 1.377 0 0 1 .21-.8.671.671 0 0 1 .59-.3.683.683 0 0 1 .32.07.721.721 0 0 1 .24.19v-1.13h.37v2.97h-.3l-.04-.25a.632.632 0 0 1-.58.29.69.69 0 0 1-.58-.27 1.141 1.141 0 0 1-.21-.72v-.05zm.37.04a.825.825 0 0 0 .13.5.453.453 0 0 0 .39.19.512.512 0 0 0 .28-.08.463.463 0 0 0 .18-.21v-.96a.697.697 0 0 0-.18-.2.503.503 0 0 0-.27-.08.405.405 0 0 0-.39.22 1.214 1.214 0 0 0-.13.58v.04z"/><path class="cls-6" d="M4.9 45.81h1l-.05.25h-1.3L5 43.75h.3zm1.32-.63a1.187 1.187 0 0 1 .29-.64.726.726 0 0 1 .56-.24.506.506 0 0 1 .47.25.914.914 0 0 1 .1.63v.03a1.154 1.154 0 0 1-.29.64.741.741 0 0 1-.56.24.506.506 0 0 1-.47-.25.914.914 0 0 1-.1-.63zm.3.04a.846.846 0 0 0 .03.46.267.267 0 0 0 .28.17.401.401 0 0 0 .33-.18 1.016 1.016 0 0 0 .18-.45v-.04a.8.8 0 0 0-.03-.45.267.267 0 0 0-.28-.17.401.401 0 0 0-.33.18 1.016 1.016 0 0 0-.18.45zm1.86.21l-.01.18h.01l.07-.19.53-1.09h.24l.1 1.09v.21h.01l.08-.21.46-1.09h.3l-.8 1.72h-.24L9.04 45l-.01-.28h-.01l-.12.29-.5 1.05h-.24l-.12-1.72h.3zm4.4-1.44h-.68l-.41 2.06h-.3l.41-2.06h-.67l.05-.25h1.65zm.65 2.07v-.13c0-.03.01-.07.01-.1a.876.876 0 0 1-.24.19.56.56 0 0 1-.27.08.415.415 0 0 1-.34-.14.466.466 0 0 1-.06-.38.563.563 0 0 1 .25-.39.934.934 0 0 1 .52-.13h.29l.03-.17a.297.297 0 0 0-.03-.24.28.28 0 0 0-.22-.08.407.407 0 0 0-.24.08.324.324 0 0 0-.13.18h-.29v-.01a.558.558 0 0 1 .23-.35.814.814 0 0 1 .49-.15.535.535 0 0 1 .4.15.427.427 0 0 1 .09.42l-.16.83-.03.18a.485.485 0 0 0 0 .17h-.3zm-.4-.23a.536.536 0 0 0 .26-.07.506.506 0 0 0 .2-.18l.06-.32h-.3a.42.42 0 0 0-.28.1.436.436 0 0 0-.15.22.238.238 0 0 0 .02.19c.03.05.1.06.19.06zm2.14-1.21l-.17-.01a.33.33 0 0 0-.19.06.42.42 0 0 0-.15.17l-.24 1.22h-.3l.34-1.72h.27l-.02.23a.6.6 0 0 1 .2-.19.481.481 0 0 1 .24-.07.195.195 0 0 1 .07.01.134.134 0 0 0 .05.01zm.1.58a1.489 1.489 0 0 1 .28-.67.612.612 0 0 1 .49-.22.471.471 0 0 1 .43.24l.07-.21h.26l-.33 1.69a.932.932 0 0 1-.28.54.828.828 0 0 1-.55.18.75.75 0 0 1-.24-.04.634.634 0 0 1-.22-.09l.12-.24a.539.539 0 0 0 .17.08.761.761 0 0 0 .21.03.414.414 0 0 0 .31-.12.65.65 0 0 0 .17-.33l.02-.12a.587.587 0 0 1-.43.17.436.436 0 0 1-.41-.25.879.879 0 0 1-.07-.61zm.29.03a.704.704 0 0 0 .02.44.294.294 0 0 0 .29.17.36.36 0 0 0 .2-.06.592.592 0 0 0 .17-.18l.16-.8a.43.43 0 0 0-.13-.17.348.348 0 0 0-.21-.06.368.368 0 0 0-.31.17 1.136 1.136 0 0 0-.18.46zm1.99.86a.546.546 0 0 1-.48-.24.835.835 0 0 1-.1-.62l.01-.07a1.1 1.1 0 0 1 .3-.62.717.717 0 0 1 .51-.24.494.494 0 0 1 .45.21.775.775 0 0 1 .08.56l-.03.2h-1.02a.7.7 0 0 0 .05.42.3.3 0 0 0 .28.15.751.751 0 0 0 .47-.17l.09.2a.904.904 0 0 1-.61.22zm.2-1.53a.327.327 0 0 0-.25.13.877.877 0 0 0-.18.33v.01h.7l.01-.04a.44.44 0 0 0-.04-.31.252.252 0 0 0-.24-.12zm1.54-.63l-.08.41h.29l-.05.23h-.29l-.21 1.04c-.02.08-.02.14.01.17a.125.125 0 0 0 .11.04.344.344 0 0 0 .09-.01.188.188 0 0 0 .08-.02V46a.589.589 0 0 1-.13.05.985.985 0 0 1-.17.02.29.29 0 0 1-.25-.12.455.455 0 0 1-.04-.36l.21-1.04h-.25l.05-.23h.25l.08-.41h.3zM6.16 18.11h-.3l.2-1.02H5.05l-.2 1.02h-.3L5 15.8h.3l-.2 1.04h1.01l.21-1.04h.3zm.81 0h-.3L7 16.39h.3zm.42-2.16h-.3l.06-.32h.3zm.14 1.3a1.489 1.489 0 0 1 .28-.67.612.612 0 0 1 .49-.22.471.471 0 0 1 .43.24l.07-.21h.26l-.33 1.69a.932.932 0 0 1-.28.54.884.884 0 0 1-.57.18.75.75 0 0 1-.24-.04.634.634 0 0 1-.22-.09l.12-.24a.539.539 0 0 0 .17.08.761.761 0 0 0 .21.03.414.414 0 0 0 .31-.12.65.65 0 0 0 .17-.33l.02-.12a.625.625 0 0 1-.2.13.481.481 0 0 1-.22.04.436.436 0 0 1-.41-.25.879.879 0 0 1-.07-.61zm.29.03a.704.704 0 0 0 .02.44.294.294 0 0 0 .29.17.36.36 0 0 0 .2-.06.592.592 0 0 0 .17-.18l.16-.8a.431.431 0 0 0-.13-.17.348.348 0 0 0-.21-.06.368.368 0 0 0-.31.17 1.136 1.136 0 0 0-.18.46zm1.91-.68a.76.76 0 0 1 .23-.18.626.626 0 0 1 .27-.06.39.39 0 0 1 .35.17.657.657 0 0 1 .05.5l-.21 1.08h-.3l.21-1.08a.451.451 0 0 0-.02-.32.265.265 0 0 0-.23-.1.42.42 0 0 0-.21.06.614.614 0 0 0-.19.17l-.25 1.26h-.3l.49-2.48h.3zm3.78-.56h-.68l-.41 2.06h-.3l.41-2.06h-.67l.05-.25h1.65zm.65 2.07v-.13c0-.03.01-.07.01-.1a.876.876 0 0 1-.24.19.56.56 0 0 1-.27.08.415.415 0 0 1-.34-.14.466.466 0 0 1-.06-.38.563.563 0 0 1 .25-.39.934.934 0 0 1 .52-.13h.29l.03-.17a.297.297 0 0 0-.03-.24.28.28 0 0 0-.22-.08.407.407 0 0 0-.24.08.324.324 0 0 0-.13.18h-.29v-.01a.558.558 0 0 1 .23-.35.814.814 0 0 1 .49-.15.535.535 0 0 1 .4.15.427.427 0 0 1 .09.42l-.16.83-.03.18a.485.485 0 0 0 0 .17h-.3zm-.4-.23a.536.536 0 0 0 .26-.07.506.506 0 0 0 .2-.18l.06-.32h-.3a.42.42 0 0 0-.28.1.436.436 0 0 0-.15.22.238.238 0 0 0 .02.19c.03.05.1.06.19.06zm2.15-1.21l-.17-.01a.33.33 0 0 0-.19.06.42.42 0 0 0-.15.17l-.24 1.22h-.3l.34-1.72h.27l-.02.23a.6.6 0 0 1 .2-.19.481.481 0 0 1 .24-.07.195.195 0 0 1 .07.01.134.134 0 0 0 .05.01zm.09.58a1.489 1.489 0 0 1 .28-.67.612.612 0 0 1 .49-.22.471.471 0 0 1 .43.24l.07-.21h.26l-.33 1.69a.932.932 0 0 1-.28.54.828.828 0 0 1-.55.18.75.75 0 0 1-.24-.04.634.634 0 0 1-.22-.09l.12-.24a.539.539 0 0 0 .17.08.761.761 0 0 0 .21.03.414.414 0 0 0 .31-.12.65.65 0 0 0 .17-.33l.02-.12a.587.587 0 0 1-.43.17.436.436 0 0 1-.41-.25.879.879 0 0 1-.07-.61zm.29.03a.704.704 0 0 0 .02.44.294.294 0 0 0 .29.17.36.36 0 0 0 .2-.06.592.592 0 0 0 .17-.18l.16-.8a.431.431 0 0 0-.13-.17.348.348 0 0 0-.21-.06.368.368 0 0 0-.31.17 1.137 1.137 0 0 0-.18.46zm2 .86a.546.546 0 0 1-.48-.24.835.835 0 0 1-.1-.62l.01-.07a1.1 1.1 0 0 1 .3-.62.717.717 0 0 1 .51-.24.494.494 0 0 1 .45.21.775.775 0 0 1 .08.56l-.03.2h-1.02a.7.7 0 0 0 .05.42.3.3 0 0 0 .28.15.751.751 0 0 0 .47-.17l.09.2a.817.817 0 0 1-.24.15.971.971 0 0 1-.37.07zm.19-1.53a.327.327 0 0 0-.25.13.877.877 0 0 0-.18.33v.01h.7l.01-.04a.44.44 0 0 0-.04-.31.252.252 0 0 0-.24-.12zm1.55-.63l-.08.41h.29l-.05.23h-.29l-.21 1.04c-.02.08-.02.14.01.17a.125.125 0 0 0 .11.04.344.344 0 0 0 .09-.01.188.188 0 0 0 .08-.02v.21a.589.589 0 0 1-.13.05.985.985 0 0 1-.17.02.29.29 0 0 1-.25-.12.455.455 0 0 1-.04-.36l.21-1.04h-.25l.05-.23h.25l.08-.41h.3z"/><path class="cls-7" d="M50.03 39.2h-9.35l-1.44-2.19-1.44 2.19h-9.35a1.266 1.266 0 0 0-1.26 1.28v6.61a1.272 1.272 0 0 0 1.26 1.28h21.59a1.266 1.266 0 0 0 1.26-1.28v-6.61a1.274 1.274 0 0 0-1.27-1.28z"/><path class="cls-8" d="M37.11 44.77h.02l.58-2.81h.79l-.94 4.09h-.76l-.74-2.7h-.02l-.74 2.7h-.75l-.95-4.09h.79l.58 2.8h.02l.76-2.81h.6zm2.63-2.48h-.81v-.62h.81zm0 3.77h-.81v-3.04h.81zm1.41-3.04l.04.44a.98.98 0 0 1 .37-.36.922.922 0 0 1 .49-.13.912.912 0 0 1 .71.29 1.354 1.354 0 0 1 .26.91v1.9h-.82v-1.9a.643.643 0 0 0-.12-.44.464.464 0 0 0-.37-.13.566.566 0 0 0-.29.07.554.554 0 0 0-.21.19v2.21h-.81v-3.04h.75zm3.34 1.63h-.81v-2.68h.81zm0 1.41h-.81v-.72h.81z"/><g class="cls-9"><ellipse class="cls-8" cx="69.23" cy="28.56" rx="2.17" ry="2.26"/></g><ellipse class="cls-10" cx="69.23" cy="28.56" rx="2.17" ry="2.26"/><g class="cls-9"><ellipse class="cls-8" cx="10.4" cy="30.95" rx="2.17" ry="2.26"/></g><ellipse class="cls-10" cx="10.4" cy="30.95" rx="2.17" ry="2.26"/></svg>