<svg id="Layer_1" data-name="Layer 1" xmlns="http://www.w3.org/2000/svg" viewBox="0 0 79.26 52.65"><defs><style>.cls-1{fill:#f1f2f2;stroke:#c2c2c2;}.cls-1,.cls-10,.cls-2{stroke-miterlimit:10;}.cls-1,.cls-10{stroke-width:0.6459px;}.cls-10,.cls-2,.cls-3,.cls-4{fill:none;}.cls-2{stroke:#dfdede;}.cls-2,.cls-3{stroke-width:0.3229px;}.cls-3,.cls-4{stroke:#2a3052;stroke-linejoin:round;}.cls-4{stroke-linecap:round;stroke-width:0.9688px;}.cls-5{fill:#2a3052;}.cls-6{fill:#6d6e71;}.cls-7{fill:#e88024;}.cls-8{fill:#fff;}.cls-9{opacity:0.6;}.cls-10{stroke:#e88024;}</style></defs><title>Artboard 1</title><path class="cls-1" d="M.32.32H78.93v52H.32Z"/><path class="cls-2" d="M1.04,14.68h77.5M1.04,25.53h77.5M1.04,36.38h77.5M1.04,47.22h77.5M10.4,9.26V52M20.21,9.26V52m9.8-42.74V52M39.82,9.26V52m9.8-42.74V52m9.8-42.74V52M1.04,30.95h77.5"/><path class="cls-3" d="M69.23,9.26V52M1.04,20.11h77.5M1.04,41.8h77.5"/><path class="cls-1" d="M.48,8.94H79.1"/><path d="M4.96,4.87H3.83v.79H5.16v.43H3.29V3.32H5.16v.43H3.84v.7H4.97v.42Zm.99-.84.02.29a.74653.74653,0,0,1,.25-.25.6294.6294,0,0,1,.33-.09.59661.59661,0,0,1,.48.2.95636.95636,0,0,1,.17.62V6.09H6.65V4.8a.41861.41861,0,0,0-.08-.29.33275.33275,0,0,0-.25-.09.44771.44771,0,0,0-.2.04.37377.37377,0,0,0-.15.13v1.5H5.42V4.03ZM7.54,5.08a1.34342,1.34342,0,0,1,.21-.79.67109.67109,0,0,1,.59-.3.49533.49533,0,0,1,.27.07.628.628,0,0,1,.21.19V3.12h.55V6.09H8.9l-.05-.25a.69015.69015,0,0,1-.23.22.604.604,0,0,1-.3.07.67241.67241,0,0,1-.58-.28,1.19207,1.19207,0,0,1-.21-.73V5.08Zm.54.04a.8863.8863,0,0,0,.09.43.32381.32381,0,0,0,.29.16.46484.46484,0,0,0,.21-.05.31594.31594,0,0,0,.14-.14V4.63a.41.41,0,0,0-.14-.15.351.351,0,0,0-.2-.05.30566.30566,0,0,0-.29.18,1.081,1.081,0,0,0-.09.48v.03Zm2.81.4a.20586.20586,0,0,0-.09-.16,1.19623,1.19623,0,0,0-.32-.12,1.23776,1.23776,0,0,1-.54-.22.49.49,0,0,1-.18-.4.54917.54917,0,0,1,.22-.45.907.907,0,0,1,.59-.19.97322.97322,0,0,1,.62.18.54688.54688,0,0,1,.22.47v.01h-.54a.28.28,0,0,0-.08-.2.33981.33981,0,0,0-.22-.06.2817.2817,0,0,0-.21.07.209.209,0,0,0,0,.33.81135.81135,0,0,0,.32.11,1.27994,1.27994,0,0,1,.56.22.49643.49643,0,0,1,.18.41.56383.56383,0,0,1-.23.46.99271.99271,0,0,1-.62.18.93137.93137,0,0,1-.64-.21.61.61,0,0,1-.23-.47V5.47h.5a.27755.27755,0,0,0,.11.24.45264.45264,0,0,0,.27.07.37148.37148,0,0,0,.23-.06A.28653.28653,0,0,0,10.89,5.52Zm1.89.57V3.32h.92a1.26206,1.26206,0,0,1,.75.19.65888.65888,0,0,1,.27.57.56763.56763,0,0,1-.1.34.611.611,0,0,1-.29.23.59384.59384,0,0,1,.37.23.70716.70716,0,0,1,.12.41.71021.71021,0,0,1-.26.6,1.13328,1.13328,0,0,1-.73.21H12.78Zm.55-1.61h.4a.551.551,0,0,0,.34-.09.316.316,0,0,0,.12-.27.32314.32314,0,0,0-.12-.28.59682.59682,0,0,0-.36-.09h-.38Zm0,.39v.8h.51a.45027.45027,0,0,0,.33-.1.32978.32978,0,0,0,.11-.28.36949.36949,0,0,0-.41-.42Zm2.78,1.26a.90451.90451,0,0,1-.7-.29,1.0066,1.0066,0,0,1-.26-.73V5.04a1.12375,1.12375,0,0,1,.25-.76.79561.79561,0,0,1,.67-.29.81478.81478,0,0,1,.64.25.98109.98109,0,0,1,.23.68v.3H15.73v.01a.55086.55086,0,0,0,.13.33.408.408,0,0,0,.32.13.87165.87165,0,0,0,.3-.04.853.853,0,0,0,.26-.12l.15.34a.85317.85317,0,0,1-.33.17A.981.981,0,0,1,16.11,6.13Zm-.05-1.71a.2851.2851,0,0,0-.24.12.57431.57431,0,0,0-.11.31l.01.01h.67V4.81a.46542.46542,0,0,0-.08-.28A.297.297,0,0,0,16.06,4.42Zm1.84-.89v.5h.34v.39H17.9V5.47a.24571.24571,0,0,0,.05.17.1901.1901,0,0,0,.13.05h.07a.25439.25439,0,0,0,.07-.02l.05.4a1.24368,1.24368,0,0,1-.16.04.915.915,0,0,1-.17.01.58162.58162,0,0,1-.44-.16.66722.66722,0,0,1-.15-.5V4.42h-.3V4.03h.3v-.5Zm2.46,1.82h.01l.27-1.32h.52l-.52,2.06h-.46L19.8,4.86h-.01l-.38,1.23h-.46l-.52-2.06h.52l.27,1.32h.01l.38-1.32h.37Zm1.96.78a.90451.90451,0,0,1-.7-.29,1.0066,1.0066,0,0,1-.26-.73V5.04a1.12375,1.12375,0,0,1,.25-.76.79561.79561,0,0,1,.67-.29.81478.81478,0,0,1,.64.25.98109.98109,0,0,1,.23.68v.3H21.94v.01a.55086.55086,0,0,0,.13.33.408.408,0,0,0,.32.13.87165.87165,0,0,0,.3-.04.85677.85677,0,0,0,.26-.1l.15.34a.93249.93249,0,0,1-.33.17A1.25148,1.25148,0,0,1,22.32,6.13Zm-.04-1.71a.2851.2851,0,0,0-.24.12.57431.57431,0,0,0-.11.31l.01.01h.67V4.81a.46549.46549,0,0,0-.08-.28A.297.297,0,0,0,22.28,4.42Zm2.08,1.71a.90451.90451,0,0,1-.7-.29,1.0066,1.0066,0,0,1-.26-.73V5.04a1.12375,1.12375,0,0,1,.25-.76.79561.79561,0,0,1,.67-.29.81478.81478,0,0,1,.64.25.98109.98109,0,0,1,.23.68v.3H23.97v.01a.55086.55086,0,0,0,.13.33.408.408,0,0,0,.32.13.87165.87165,0,0,0,.3-.04.853.853,0,0,0,.26-.12l.15.34a.85317.85317,0,0,1-.33.17A.86731.86731,0,0,1,24.36,6.13Zm-.05-1.71a.2851.2851,0,0,0-.24.12.57431.57431,0,0,0-.11.31l.01.01h.67V4.81a.46542.46542,0,0,0-.08-.28A.297.297,0,0,0,24.31,4.42ZM26,4.03l.02.29a.74653.74653,0,0,1,.25-.25.6294.6294,0,0,1,.33-.09.59661.59661,0,0,1,.48.2.95636.95636,0,0,1,.17.62V6.09H26.7V4.8a.41861.41861,0,0,0-.08-.29.33275.33275,0,0,0-.25-.09.44771.44771,0,0,0-.2.04.37377.37377,0,0,0-.15.13v1.5h-.55V4.03Z"/><path class="cls-4" d="M10.4,30.95l11.1-5.42,10.59,6.45,7.7-7.6,9.83,8.36,9.8-7.21,9.81,2.66"/><path class="cls-5" d="M8.33,36.67a.43138.43138,0,0,0-.14-.32,1.12531,1.12531,0,0,0-.5-.21,1.5925,1.5925,0,0,1-.68-.31.654.654,0,0,1-.24-.51.67253.67253,0,0,1,.26-.54.994.994,0,0,1,.68-.22,1.003,1.003,0,0,1,.72.25.763.763,0,0,1,.26.58v.01H8.32a.4987.4987,0,0,0-.16-.39.65339.65339,0,0,0-.46-.15.588.588,0,0,0-.42.13.4.4,0,0,0-.15.33.35386.35386,0,0,0,.16.3,1.537,1.537,0,0,0,.52.21,1.45541,1.45541,0,0,1,.66.32.69773.69773,0,0,1,.23.52.65429.65429,0,0,1-.27.54,1.12788,1.12788,0,0,1-.71.2,1.24215,1.24215,0,0,1-.73-.23.69754.69754,0,0,1-.31-.6v-.01h.35a.4771.4771,0,0,0,.19.41.75855.75855,0,0,0,.48.14A.71854.71854,0,0,0,8.14,37,.36549.36549,0,0,0,8.33,36.67Zm1.33-1.85v.5h.39v.28H9.66v1.25a.26545.26545,0,0,0,.06.2.21113.21113,0,0,0,.16.06.19523.19523,0,0,0,.07-.01.63729.63729,0,0,0,.07-.02l.05.26a.66582.66582,0,0,1-.12.06.87524.87524,0,0,1-.16.02.49.49,0,0,1-.36-.14.59872.59872,0,0,1-.13-.43V35.6H8.96v-.28h.32v-.5Zm2.09,2.55c-.01-.06-.02-.12-.03-.17a.6602.6602,0,0,1-.01-.14.92647.92647,0,0,1-.27.25.65285.65285,0,0,1-.36.1.588.588,0,0,1-.65-.62.52342.52342,0,0,1,.24-.46,1.10344,1.10344,0,0,1,.64-.17h.4v-.2a.4.4,0,0,0-.11-.29.433.433,0,0,0-.31-.11.43745.43745,0,0,0-.29.09.29483.29483,0,0,0-.11.22h-.35v-.01a.48019.48019,0,0,1,.21-.41.89.89,0,0,1,.57-.19.83706.83706,0,0,1,.56.18.63512.63512,0,0,1,.21.51v.99a1.477,1.477,0,0,0,.05.41h-.39Zm-.61-.27a.65285.65285,0,0,0,.36-.1.47235.47235,0,0,0,.21-.24v-.33h-.42a.5721.5721,0,0,0-.36.11.31721.31721,0,0,0-.13.26.32947.32947,0,0,0,.08.22A.40333.40333,0,0,0,11.14,37.1Zm2.44-1.46-.19-.01a.40929.40929,0,0,0-.25.07.46.46,0,0,0-.16.2v1.47h-.37V35.31h.33l.04.3a.75489.75489,0,0,1,.21-.25.47637.47637,0,0,1,.29-.09.22018.22018,0,0,1,.08.01c.02,0,.05.01.06.01Zm.88-.82v.5h.39v.28h-.39v1.25a.26545.26545,0,0,0,.06.2.21113.21113,0,0,0,.16.06.19523.19523,0,0,0,.07-.01.63729.63729,0,0,0,.07-.02l.05.26a.66582.66582,0,0,1-.12.06.87524.87524,0,0,1-.16.02.49.49,0,0,1-.36-.14.59872.59872,0,0,1-.13-.43V35.6h-.32v-.28h.32v-.5Z"/><path class="cls-5" d="M72.78,33.11H71.53v.99h1.45v.29H71.16V31.62h1.8v.29H71.54v.9h1.25v.3Zm.88-.78.03.31a.676.676,0,0,1,.6-.34.66227.66227,0,0,1,.51.2.86084.86084,0,0,1,.18.6v1.3h-.37V33.1a.58568.58568,0,0,0-.11-.39.40349.40349,0,0,0-.32-.11.51174.51174,0,0,0-.28.08.5775.5775,0,0,0-.2.21v1.5h-.37V32.33Zm1.78,1.07a1.3769,1.3769,0,0,1,.21-.8.7411.7411,0,0,1,.91-.23.72144.72144,0,0,1,.24.19V31.43h.37V34.4h-.3l-.04-.25a.70988.70988,0,0,1-.24.22.74.74,0,0,1-.34.07.69.69,0,0,1-.58-.27,1.14148,1.14148,0,0,1-.21-.72V33.4Zm.37.04a.82453.82453,0,0,0,.13.5.45262.45262,0,0,0,.39.19.51174.51174,0,0,0,.28-.08.46263.46263,0,0,0,.18-.21v-.96a.60606.60606,0,0,0-.19-.2.503.503,0,0,0-.27-.08.40531.40531,0,0,0-.39.22,1.21394,1.21394,0,0,0-.13.58Z"/><path class="cls-6" d="M4.9,45.81h1l-.05.25H4.55L5,43.75h.3Zm1.32-.63a1.18717,1.18717,0,0,1,.29-.64.72626.72626,0,0,1,.56-.24.50584.50584,0,0,1,.47.25.91351.91351,0,0,1,.1.63v.03a1.15393,1.15393,0,0,1-.29.64.74126.74126,0,0,1-.56.24.50584.50584,0,0,1-.47-.25.91351.91351,0,0,1-.1-.63Zm.3.04a.84628.84628,0,0,0,.03.46.26737.26737,0,0,0,.28.17.401.401,0,0,0,.33-.18,1.016,1.016,0,0,0,.18-.45v-.04a.80052.80052,0,0,0-.03-.45.26737.26737,0,0,0-.28-.17.401.401,0,0,0-.33.18,1.016,1.016,0,0,0-.18.45Zm1.86.21-.01.18h.01l.07-.19.53-1.09h.24l.1,1.09v.21h.01l.08-.21.46-1.09h.3l-.8,1.72H9.13L9.04,45l-.01-.28H9.02l-.12.29-.5,1.05H8.16l-.12-1.72h.3Zm4.4-1.44H12.1l-.41,2.06h-.3l.41-2.06h-.67l.05-.25h1.65Zm.65,2.07v-.13c0-.03.01-.07.01-.1a.87584.87584,0,0,1-.24.19.56.56,0,0,1-.27.08.41541.41541,0,0,1-.34-.14.46584.46584,0,0,1-.06-.38.56311.56311,0,0,1,.25-.39.93417.93417,0,0,1,.52-.13h.29l.03-.17a.29674.29674,0,0,0-.03-.24.27939.27939,0,0,0-.22-.08.40688.40688,0,0,0-.24.08.32377.32377,0,0,0-.13.18h-.29v-.01a.55762.55762,0,0,1,.23-.35.814.814,0,0,1,.49-.15.5354.5354,0,0,1,.4.15.42652.42652,0,0,1,.09.42l-.16.83-.03.18a.48536.48536,0,0,0,0,.17h-.3Zm-.4-.23a.53556.53556,0,0,0,.26-.07.50645.50645,0,0,0,.2-.18l.06-.32h-.3a.41917.41917,0,0,0-.28.1.43633.43633,0,0,0-.15.22.23809.23809,0,0,0,.02.19C12.87,45.82,12.94,45.83,13.03,45.83Zm2.14-1.21L15,44.61a.33.33,0,0,0-.19.06.42.42,0,0,0-.15.17l-.24,1.22h-.3l.34-1.72h.27l-.02.23a.6.6,0,0,1,.2-.19.48147.48147,0,0,1,.24-.07.19523.19523,0,0,1,.07.01.13382.13382,0,0,0,.05.01Zm.1.58a1.4886,1.4886,0,0,1,.28-.67.61205.61205,0,0,1,.49-.22.47118.47118,0,0,1,.43.24l.07-.21h.26l-.33,1.69a.93244.93244,0,0,1-.28.54.82762.82762,0,0,1-.55.18.74991.74991,0,0,1-.24-.04.634.634,0,0,1-.22-.09l.12-.24a.53887.53887,0,0,0,.17.08.76125.76125,0,0,0,.21.03.41432.41432,0,0,0,.31-.12.64993.64993,0,0,0,.17-.33l.02-.12a.587.587,0,0,1-.43.17.43624.43624,0,0,1-.41-.25.879.879,0,0,1-.07-.61Zm.29.03a.70386.70386,0,0,0,.02.44.29406.29406,0,0,0,.29.17.3605.3605,0,0,0,.2-.06.59205.59205,0,0,0,.17-.18l.16-.8a.43087.43087,0,0,0-.13-.17.34791.34791,0,0,0-.21-.06.3683.3683,0,0,0-.31.17,1.13644,1.13644,0,0,0-.18.46Zm1.99.86a.546.546,0,0,1-.48-.24.83537.83537,0,0,1-.1-.62l.01-.07a1.10074,1.10074,0,0,1,.3-.62.71679.71679,0,0,1,.51-.24.49387.49387,0,0,1,.45.21.77459.77459,0,0,1,.08.56l-.03.2H17.27a.70018.70018,0,0,0,.05.42.3.3,0,0,0,.28.15.751.751,0,0,0,.47-.17l.09.2A.904.904,0,0,1,17.55,46.09Zm.2-1.53a.32705.32705,0,0,0-.25.13.8772.8772,0,0,0-.18.33v.01h.7l.01-.04a.43991.43991,0,0,0-.04-.31A.2515.2515,0,0,0,17.75,44.56Zm1.54-.63-.08.41h.29l-.05.23h-.29l-.21,1.04c-.02.08-.02.14.01.17a.1246.1246,0,0,0,.11.04.34445.34445,0,0,0,.09-.01.18839.18839,0,0,0,.08-.02V46a.32.32,0,0,1-.13.05.98524.98524,0,0,1-.17.02.29079.29079,0,0,1-.25-.12.45491.45491,0,0,1-.04-.36l.21-1.04h-.25l.05-.23h.25l.08-.41h.3Z"/><path class="cls-6" d="M6.16,18.11h-.3l.2-1.02H5.05l-.2,1.02h-.3L5,15.8h.3l-.2,1.04H6.11l.21-1.04h.3Zm.81,0h-.3L7,16.39h.3Zm.42-2.16h-.3l.06-.32h.3Zm.14,1.3a1.4886,1.4886,0,0,1,.28-.67.61205.61205,0,0,1,.49-.22.47118.47118,0,0,1,.43.24l.07-.21h.26l-.33,1.69a.93244.93244,0,0,1-.28.54.88372.88372,0,0,1-.57.18.74991.74991,0,0,1-.24-.04.634.634,0,0,1-.22-.09l.12-.24a.53887.53887,0,0,0,.17.08.76125.76125,0,0,0,.21.03.41432.41432,0,0,0,.31-.12.64993.64993,0,0,0,.17-.33l.02-.12a.62512.62512,0,0,1-.2.13.48128.48128,0,0,1-.22.04.43624.43624,0,0,1-.41-.25.879.879,0,0,1-.07-.61Zm.29.03a.70386.70386,0,0,0,.02.44.29406.29406,0,0,0,.29.17.36057.36057,0,0,0,.2-.06.59217.59217,0,0,0,.17-.18l.16-.8a.431.431,0,0,0-.13-.17.34808.34808,0,0,0-.21-.06.36829.36829,0,0,0-.31.17,1.13644,1.13644,0,0,0-.18.46Zm1.91-.68a.7602.7602,0,0,1,.23-.18.6264.6264,0,0,1,.27-.06.38965.38965,0,0,1,.35.17.65748.65748,0,0,1,.05.5l-.21,1.08h-.3l.21-1.08a.45115.45115,0,0,0-.02-.32.26512.26512,0,0,0-.23-.1.42.42,0,0,0-.21.06.61358.61358,0,0,0-.19.17L9.43,18.1h-.3l.49-2.48h.3Zm3.78-.56h-.68l-.41,2.06h-.3l.41-2.06h-.67l.05-.25h1.65Zm.65,2.07v-.13c0-.03.01-.07.01-.1a.87584.87584,0,0,1-.24.19.56.56,0,0,1-.27.08.41541.41541,0,0,1-.34-.14.46584.46584,0,0,1-.06-.38.56311.56311,0,0,1,.25-.39.93417.93417,0,0,1,.52-.13h.29l.03-.17a.29674.29674,0,0,0-.03-.24.27943.27943,0,0,0-.22-.08.407.407,0,0,0-.24.08.3238.3238,0,0,0-.13.18h-.29v-.01a.55769.55769,0,0,1,.23-.35.814.814,0,0,1,.49-.15.53543.53543,0,0,1,.4.15.42654.42654,0,0,1,.09.42l-.16.83-.03.18a.48542.48542,0,0,0,0,.17h-.3Zm-.4-.23a.53556.53556,0,0,0,.26-.07.50645.50645,0,0,0,.2-.18l.06-.32h-.3a.41917.41917,0,0,0-.28.1.43633.43633,0,0,0-.15.22.23809.23809,0,0,0,.02.19C13.6,17.87,13.67,17.88,13.76,17.88Zm2.15-1.21-.17-.01a.33.33,0,0,0-.19.06.41992.41992,0,0,0-.15.17l-.24,1.22h-.3l.34-1.72h.27l-.02.23a.6.6,0,0,1,.2-.19.48147.48147,0,0,1,.24-.07.19523.19523,0,0,1,.07.01.13382.13382,0,0,0,.05.01Zm.09.58a1.4886,1.4886,0,0,1,.28-.67.61205.61205,0,0,1,.49-.22.47118.47118,0,0,1,.43.24l.07-.21h.26l-.33,1.69a.93244.93244,0,0,1-.28.54.82767.82767,0,0,1-.55.18.74991.74991,0,0,1-.24-.04.634.634,0,0,1-.22-.09l.12-.24a.53887.53887,0,0,0,.17.08.76125.76125,0,0,0,.21.03.41432.41432,0,0,0,.31-.12.64993.64993,0,0,0,.17-.33l.02-.12a.587.587,0,0,1-.43.17.43624.43624,0,0,1-.41-.25.879.879,0,0,1-.07-.61Zm.29.03a.70386.70386,0,0,0,.02.44.29406.29406,0,0,0,.29.17.36057.36057,0,0,0,.2-.06.59217.59217,0,0,0,.17-.18l.16-.8a.431.431,0,0,0-.13-.17.348.348,0,0,0-.21-.06.36828.36828,0,0,0-.31.17,1.13659,1.13659,0,0,0-.18.46Zm2,.86a.546.546,0,0,1-.48-.24.83537.83537,0,0,1-.1-.62l.01-.07a1.10074,1.10074,0,0,1,.3-.62.71679.71679,0,0,1,.51-.24.49387.49387,0,0,1,.45.21.77459.77459,0,0,1,.08.56l-.03.2H18.01a.70018.70018,0,0,0,.05.42.3.3,0,0,0,.28.15.75106.75106,0,0,0,.47-.17l.09.2a.81746.81746,0,0,1-.24.15A.971.971,0,0,1,18.29,18.14Zm.19-1.53a.32705.32705,0,0,0-.25.13.8772.8772,0,0,0-.18.33v.01h.7l.01-.04a.43991.43991,0,0,0-.04-.31A.2515.2515,0,0,0,18.48,16.61Zm1.55-.63-.08.41h.29l-.05.23H19.9l-.21,1.04c-.02.08-.02.14.01.17a.1246.1246,0,0,0,.11.04.34445.34445,0,0,0,.09-.01.18839.18839,0,0,0,.08-.02v.21a.32.32,0,0,1-.13.05.98524.98524,0,0,1-.17.02.29079.29079,0,0,1-.25-.12.45491.45491,0,0,1-.04-.36l.21-1.04h-.25l.05-.23h.25l.08-.41h.3Z"/><path class="cls-7" d="M50.03,39.2H40.68l-1.44-2.19L37.8,39.2H28.45a1.26554,1.26554,0,0,0-1.26,1.28v6.61a1.27193,1.27193,0,0,0,1.26,1.28H50.04a1.26554,1.26554,0,0,0,1.26-1.28V40.48A1.274,1.274,0,0,0,50.03,39.2Z"/><path class="cls-8" d="M37.11,44.77h.02l.58-2.81h.79l-.94,4.09H36.8l-.74-2.7h-.02l-.74,2.7h-.75l-.95-4.09h.79l.58,2.8h.02l.76-2.81h.6Zm2.63-2.48h-.81v-.62h.81Zm0,3.77h-.81V43.02h.81Zm1.41-3.04.04.44a.97993.97993,0,0,1,.37-.36.92245.92245,0,0,1,.49-.13.91163.91163,0,0,1,.71.29,1.35414,1.35414,0,0,1,.26.91v1.9H42.2v-1.9a.64342.64342,0,0,0-.12-.44.46381.46381,0,0,0-.37-.13.56642.56642,0,0,0-.29.07.55353.55353,0,0,0-.21.19v2.21H40.4V43.03h.75Zm3.34,1.63h-.81V41.97h.81Zm0,1.41h-.81v-.72h.81Z"/><g class="cls-9"><ellipse class="cls-8" cx="69.23" cy="28.56" rx="2.17" ry="2.26"/></g><ellipse class="cls-10" cx="69.23" cy="28.56" rx="2.17" ry="2.26"/><g class="cls-9"><ellipse class="cls-8" cx="10.4" cy="30.95" rx="2.17" ry="2.26"/></g><ellipse class="cls-10" cx="10.4" cy="30.95" rx="2.17" ry="2.26"/></svg>