<svg id="Layer_1" data-name="Layer 1" xmlns="http://www.w3.org/2000/svg" viewBox="0 0 79 52"><defs><style>.cls-1{fill:#f1f1f2;stroke:#c2c2c2;}.cls-1,.cls-12,.cls-2{stroke-miterlimit:10;}.cls-1,.cls-12{stroke-width:0.64px;}.cls-12,.cls-2,.cls-3,.cls-4,.cls-6{fill:none;}.cls-2{stroke:#dededd;}.cls-2,.cls-3,.cls-4{stroke-width:0.32px;}.cls-3,.cls-4,.cls-6{stroke:#293052;stroke-linejoin:round;}.cls-4{stroke-dasharray:0.96 0.96;}.cls-5{fill:#231f20;}.cls-6{stroke-linecap:round;stroke-width:0.95px;}.cls-7{fill:#293052;}.cls-8{fill:#808184;}.cls-9{fill:#e88024;}.cls-10{fill:#fff;}.cls-11{opacity:0.6;}.cls-12{stroke:#e88024;}</style></defs><title>guide</title><rect class="cls-1" x="0.5" y="0.58" width="77.84" height="50.84"/><line class="cls-2" x1="1.21" y1="14.62" x2="77.94" y2="14.62"/><line class="cls-2" x1="1.21" y1="19.92" x2="77.94" y2="19.92"/><line class="cls-2" x1="1.21" y1="35.83" x2="77.94" y2="35.83"/><line class="cls-2" x1="1.21" y1="41.13" x2="77.94" y2="41.13"/><line class="cls-2" x1="1.21" y1="46.43" x2="77.94" y2="46.43"/><line class="cls-2" x1="10.48" y1="9.32" x2="10.48" y2="51.1"/><line class="cls-2" x1="20.19" y1="9.32" x2="20.19" y2="51.1"/><line class="cls-2" x1="29.9" y1="9.32" x2="29.9" y2="51.1"/><line class="cls-2" x1="39.6" y1="9.32" x2="39.6" y2="51.1"/><line class="cls-2" x1="49.31" y1="9.32" x2="49.31" y2="51.1"/><line class="cls-2" x1="59.02" y1="9.32" x2="59.02" y2="51.1"/><line class="cls-2" x1="68.73" y1="9.32" x2="68.73" y2="51.1"/><line class="cls-2" x1="1.21" y1="30.53" x2="77.94" y2="30.53"/><line class="cls-3" x1="1.21" y1="25.23" x2="1.69" y2="25.23"/><line class="cls-4" x1="2.65" y1="25.23" x2="76.99" y2="25.23"/><line class="cls-3" x1="77.47" y1="25.23" x2="77.94" y2="25.23"/><line class="cls-1" x1="0.66" y1="9" x2="78.5" y2="9"/><path class="cls-5" d="M7,5.11a1.14,1.14,0,0,1-.32.82,1.09,1.09,0,0,1-.82.33A1.08,1.08,0,0,1,5,5.94a1.14,1.14,0,0,1-.31-0.82V4.62A1.15,1.15,0,0,1,5,3.8a1.07,1.07,0,0,1,.81-0.33,1.09,1.09,0,0,1,.82.33A1.14,1.14,0,0,1,7,4.62V5.11ZM6.44,4.62A0.82,0.82,0,0,0,6.28,4.1a0.52,0.52,0,0,0-.44-0.2,0.51,0.51,0,0,0-.43.2,0.84,0.84,0,0,0-.15.52V5.11a0.85,0.85,0,0,0,.15.53,0.51,0.51,0,0,0,.43.2,0.52,0.52,0,0,0,.44-0.2,0.84,0.84,0,0,0,.16-0.53V4.62Z"/><path class="cls-5" d="M8.09,5.47l0,0.19h0l0-.19L8.51,4.21H9.07l-0.69,2H7.87l-0.69-2H7.75Z"/><path class="cls-5" d="M10.17,6.26A0.91,0.91,0,0,1,9.48,6a1,1,0,0,1-.26-0.71V5.2a1.1,1.1,0,0,1,.25-0.74,0.92,0.92,0,0,1,1.29,0,0.94,0.94,0,0,1,.23.66v0.3H9.78a0.52,0.52,0,0,0,.13.33,0.41,0.41,0,0,0,.32.13,1.05,1.05,0,0,0,.3,0,1.38,1.38,0,0,0,.26-0.11L10.94,6a1,1,0,0,1-.32.17A1.39,1.39,0,0,1,10.17,6.26Zm0-1.67a0.28,0.28,0,0,0-.24.12,0.6,0.6,0,0,0-.11.3h0.67V5a0.43,0.43,0,0,0-.08-0.28A0.29,0.29,0,0,0,10.13,4.59Z"/><path class="cls-5" d="M12.36,4.68h-0.2a0.37,0.37,0,0,0-.2.05,0.32,0.32,0,0,0-.12.14V6.22H11.3v-2h0.5l0,0.3A0.63,0.63,0,0,1,12,4.26a0.41,0.41,0,0,1,.26-0.09h0.08l0.07,0Z"/><polyline class="cls-6" points="59.02 25.23 50.63 33.73 39.42 27.84 28.04 34.41 20.19 30.53 10.48 22.43"/><path class="cls-7" d="M55,5.93h1.28V6.22H54.61V3.51H55V5.93Z"/><path class="cls-7" d="M57.84,6.22c0-.06,0-0.11,0-0.16a1.12,1.12,0,0,1,0-.14,0.86,0.86,0,0,1-.27.24,0.69,0.69,0,0,1-.35.1A0.66,0.66,0,0,1,56.7,6.1a0.59,0.59,0,0,1-.17-0.44,0.52,0.52,0,0,1,.23-0.45A1.09,1.09,0,0,1,57.4,5h0.4V4.84a0.37,0.37,0,0,0-.11-0.28,0.43,0.43,0,0,0-.31-0.1,0.44,0.44,0,0,0-.29.09,0.27,0.27,0,0,0-.11.22H56.63a0.49,0.49,0,0,1,.21-0.4,0.85,0.85,0,0,1,.56-0.18,0.83,0.83,0,0,1,.55.17,0.62,0.62,0,0,1,.21.5v1a1.8,1.8,0,0,0,0,.21,1,1,0,0,0,0,.2H57.84ZM57.23,6a0.66,0.66,0,0,0,.36-0.1,0.49,0.49,0,0,0,.21-0.23V5.29H57.38A0.54,0.54,0,0,0,57,5.4a0.33,0.33,0,0,0-.13.26,0.27,0.27,0,0,0,.08.21A0.35,0.35,0,0,0,57.23,6Z"/><path class="cls-7" d="M59.87,5.69a0.25,0.25,0,0,0-.09-0.2,0.87,0.87,0,0,0-.35-0.14,1.46,1.46,0,0,1-.55-0.22,0.44,0.44,0,0,1-.19-0.37,0.52,0.52,0,0,1,.21-0.42,0.95,0.95,0,0,1,1.1,0,0.53,0.53,0,0,1,.2.44H59.84a0.32,0.32,0,0,0-.11-0.24,0.41,0.41,0,0,0-.29-0.11,0.42,0.42,0,0,0-.29.09,0.27,0.27,0,0,0-.09.21,0.23,0.23,0,0,0,.08.19,0.87,0.87,0,0,0,.34.12,1.47,1.47,0,0,1,.57.22,0.45,0.45,0,0,1,.19.38A0.52,0.52,0,0,1,60,6.1a0.91,0.91,0,0,1-.57.17,0.89,0.89,0,0,1-.61-0.2,0.56,0.56,0,0,1-.21-0.46H59a0.34,0.34,0,0,0,.15.28,0.56,0.56,0,0,0,.32.09,0.52,0.52,0,0,0,.31-0.08A0.24,0.24,0,0,0,59.87,5.69Z"/><path class="cls-7" d="M61.17,3.72V4.21h0.38V4.48H61.17V5.7a0.27,0.27,0,0,0,.06.2,0.21,0.21,0,0,0,.16.06h0.07l0.07,0,0,0.25-0.12.05-0.16,0a0.48,0.48,0,0,1-.36-0.13,0.59,0.59,0,0,1-.13-0.42V4.48H60.49V4.21h0.32V3.72h0.37Z"/><path class="cls-7" d="M63,6.22V3.51h0.83A1.11,1.11,0,0,1,65,4.68V5.05a1.11,1.11,0,0,1-1.18,1.17H63ZM63.39,3.8V5.93h0.47a0.75,0.75,0,0,0,.59-0.25,0.93,0.93,0,0,0,.22-0.63V4.68A0.92,0.92,0,0,0,64.45,4a0.75,0.75,0,0,0-.59-0.25H63.39Z"/><path class="cls-7" d="M65.86,3.69H65.5V3.32h0.37V3.69Zm0,2.53H65.5v-2h0.37v2Z"/><path class="cls-7" d="M66.35,5.25a1.32,1.32,0,0,1,.21-0.78,0.68,0.68,0,0,1,.59-0.3,0.7,0.7,0,0,1,.34.08,0.67,0.67,0,0,1,.24.22l0-.26h0.29v2a0.77,0.77,0,0,1-.23.59,0.93,0.93,0,0,1-.65.21,1.36,1.36,0,0,1-.31,0,1.24,1.24,0,0,1-.3-0.11l0.09-.28a0.94,0.94,0,0,0,.24.09,1.15,1.15,0,0,0,.28,0,0.53,0.53,0,0,0,.39-0.12,0.51,0.51,0,0,0,.12-0.37V6a0.64,0.64,0,0,1-.24.19,0.75,0.75,0,0,1-.32.06A0.7,0.7,0,0,1,66.56,6a1.1,1.1,0,0,1-.21-0.7v0Zm0.37,0a0.84,0.84,0,0,0,.13.49,0.45,0.45,0,0,0,.39.18,0.48,0.48,0,0,0,.28-0.08,0.58,0.58,0,0,0,.18-0.21V4.75a0.57,0.57,0,0,0-.18-0.2,0.48,0.48,0,0,0-.27-0.08,0.43,0.43,0,0,0-.39.22,1.09,1.09,0,0,0-.13.56v0Z"/><path class="cls-7" d="M69,3.69H68.62V3.32H69V3.69Zm0,2.53H68.62v-2H69v2Z"/><path class="cls-7" d="M70,3.72V4.21h0.38V4.48H70V5.7a0.27,0.27,0,0,0,.06.2,0.21,0.21,0,0,0,.16.06h0.07l0.07,0,0,0.25-0.12.05-0.16,0a0.48,0.48,0,0,1-.36-0.13,0.59,0.59,0,0,1-.13-0.42V4.48H69.35V4.21h0.32V3.72H70Z"/><path class="cls-7" d="M71.27,4.59H70.91V4.21h0.37V4.59Zm0,1.63H70.91V5.84h0.37V6.22Z"/><path class="cls-7" d="M72.84,5L73,3.51h1.36V3.84h-1l-0.09.76a0.85,0.85,0,0,1,.19-0.1,0.71,0.71,0,0,1,.24,0,0.73,0.73,0,0,1,.59.24,1,1,0,0,1,.22.67,1,1,0,0,1-.22.66,0.81,0.81,0,0,1-.64.25A0.87,0.87,0,0,1,73,6.07a0.65,0.65,0,0,1-.22-0.55h0.33a0.45,0.45,0,0,0,.13.34A0.46,0.46,0,0,0,73.6,6,0.43,0.43,0,0,0,74,5.81a0.7,0.7,0,0,0,.13-0.45A0.68,0.68,0,0,0,74,4.93a0.43,0.43,0,0,0-.36-0.17,0.58,0.58,0,0,0-.31.06,0.37,0.37,0,0,0-.14.2Z"/><path class="cls-8" d="M67.58,31l0.18-1.74h1.58v0.38H68.13l-0.1.89a1,1,0,0,1,.22-0.12,0.82,0.82,0,0,1,.28-0.05,0.85,0.85,0,0,1,.69.28,1.15,1.15,0,0,1,.25.78,1.11,1.11,0,0,1-.25.76,0.94,0.94,0,0,1-.74.29,1,1,0,0,1-.67-0.22,0.76,0.76,0,0,1-.26-0.65h0.39a0.53,0.53,0,0,0,.15.4,0.54,0.54,0,0,0,.39.14,0.5,0.5,0,0,0,.42-0.19A0.82,0.82,0,0,0,69,31.41a0.79,0.79,0,0,0-.15-0.5,0.5,0.5,0,0,0-.42-0.19,0.67,0.67,0,0,0-.36.08,0.44,0.44,0,0,0-.17.23Z"/><path class="cls-8" d="M69.17,36.43H69.6v0.34H69.17v0.73H68.74V36.76H67.32V36.52l1.39-2.19h0.45v2.1Zm-1.39,0h1V34.94h0l0,0.11Z"/><path class="cls-8" d="M68,41.11h0.37a0.5,0.5,0,0,0,.4-0.14,0.6,0.6,0,0,0,.12-0.4,0.58,0.58,0,0,0-.13-0.41,0.52,0.52,0,0,0-.4-0.14,0.55,0.55,0,0,0-.4.15,0.52,0.52,0,0,0-.15.39H67.44a0.77,0.77,0,0,1,.26-0.61,1,1,0,0,1,.71-0.25,1,1,0,0,1,.7.23,0.85,0.85,0,0,1,.26.67,0.76,0.76,0,0,1-.47.69,0.7,0.7,0,0,1,.4.29,0.94,0.94,0,0,1-.17,1.13,1.06,1.06,0,0,1-.72.25,1.09,1.09,0,0,1-.72-0.23,0.75,0.75,0,0,1-.27-0.63h0.41a0.52,0.52,0,0,0,.15.4,0.58,0.58,0,0,0,.42.15,0.59,0.59,0,0,0,.43-0.15A0.57,0.57,0,0,0,69,42a0.49,0.49,0,0,0-.57-0.57H68V41.11Z"/><path class="cls-8" d="M69.51,48.06H67.46V47.76l1-1.15a2.92,2.92,0,0,0,.38-0.49,0.78,0.78,0,0,0,.1-0.37,0.59,0.59,0,0,0-.14-0.4,0.46,0.46,0,0,0-.37-0.16,0.63,0.63,0,0,0-.48.17,0.67,0.67,0,0,0-.16.47H67.41a0.89,0.89,0,0,1,.27-0.69,1.07,1.07,0,0,1,.78-0.28,0.93,0.93,0,0,1,.68.25,0.85,0.85,0,0,1,.25.63,1,1,0,0,1-.15.52,3.34,3.34,0,0,1-.43.56l-0.83.9h1.52v0.34Z"/><path class="cls-8" d="M69.51,18.87a4.45,4.45,0,0,0-.77,1.21,5.42,5.42,0,0,0-.29,1.28l0,0.34H68l0-.34A4.65,4.65,0,0,1,68.37,20a5.18,5.18,0,0,1,.72-1.15H67.37V18.53h2.14v0.34Z"/><path class="cls-8" d="M69.39,14.22a0.7,0.7,0,0,1-.14.43,0.82,0.82,0,0,1-.38.28,1,1,0,0,1,.44.3,0.73,0.73,0,0,1,.16.47,0.81,0.81,0,0,1-.29.67,1.32,1.32,0,0,1-1.49,0,0.82,0.82,0,0,1-.28-0.67,0.74,0.74,0,0,1,.16-0.47,0.93,0.93,0,0,1,.43-0.3,0.8,0.8,0,0,1-.37-0.28,0.72,0.72,0,0,1-.13-0.43,0.81,0.81,0,0,1,.26-0.64,1,1,0,0,1,.68-0.23,1,1,0,0,1,.68.23A0.8,0.8,0,0,1,69.39,14.22Zm-0.34,1.47a0.57,0.57,0,0,0-.17-0.43,0.6,0.6,0,0,0-.43-0.17,0.59,0.59,0,0,0-.43.17,0.58,0.58,0,0,0-.17.43,0.55,0.55,0,0,0,.17.42,0.7,0.7,0,0,0,.87,0A0.54,0.54,0,0,0,69.05,15.69ZM69,14.23a0.54,0.54,0,0,0-.15-0.39,0.53,0.53,0,0,0-.74,0,0.55,0.55,0,0,0-.14.39,0.53,0.53,0,0,0,.14.39,0.55,0.55,0,0,0,.74,0A0.53,0.53,0,0,0,69,14.23Z"/><path class="cls-9" d="M49.72,38.58H40.46L39,36.45,37.6,38.58H28.34a1.25,1.25,0,0,0-1.25,1.25V46.3a1.25,1.25,0,0,0,1.25,1.25H49.72A1.25,1.25,0,0,0,51,46.3V39.84A1.25,1.25,0,0,0,49.72,38.58Z"/><path class="cls-10" d="M36.93,44h0l0.57-2.74H38.3l-0.93,4H36.62l-0.73-2.64h0l-0.73,2.64H34.39l-0.94-4h0.79L34.81,44h0l0.75-2.74h0.59Z"/><path class="cls-10" d="M39.53,41.61h-0.8V41h0.8v0.6Zm0,3.69h-0.8v-3h0.8v3Z"/><path class="cls-10" d="M40.92,42.32l0,0.43a1.09,1.09,0,0,1,.37-0.35,1,1,0,0,1,.49-0.13,0.89,0.89,0,0,1,.7.28,1.31,1.31,0,0,1,.25.89v1.86H42V43.43A0.6,0.6,0,0,0,41.84,43a0.48,0.48,0,0,0-.37-0.13,0.62,0.62,0,0,0-.29.06,0.59,0.59,0,0,0-.21.18v2.16h-0.8v-3h0.75Z"/><path class="cls-10" d="M44.23,43.91h-0.8V41.29h0.8v2.62Zm0,1.38h-0.8v-0.7h0.8v0.7Z"/><g class="cls-11"><ellipse class="cls-10" cx="59.02" cy="25.23" rx="2.15" ry="2.21"/></g><ellipse class="cls-12" cx="59.02" cy="25.23" rx="2.15" ry="2.21"/><rect class="cls-9" x="65.07" y="22.9" width="7.55" height="4.96"/><path class="cls-10" d="M68.69,23.73a1.51,1.51,0,0,1,.33,0,1.73,1.73,0,0,1,.3.1l-0.11.46-0.26-.07-0.26,0a0.57,0.57,0,0,0-.46.22,0.88,0.88,0,0,0-.16.6h0a0.73,0.73,0,0,1,.27-0.17,1,1,0,0,1,.37-0.06,0.8,0.8,0,0,1,.66.3,1.2,1.2,0,0,1,.24.77,1.09,1.09,0,0,1-.3.79,1,1,0,0,1-.77.31,1.06,1.06,0,0,1-.82-0.34,1.33,1.33,0,0,1-.31-0.94V25.08a1.35,1.35,0,0,1,.36-1A1.22,1.22,0,0,1,68.69,23.73Zm-0.15,1.57a0.72,0.72,0,0,0-.3.06,0.46,0.46,0,0,0-.19.15v0.21a1,1,0,0,0,.14.58,0.42,0.42,0,0,0,.36.2,0.36,0.36,0,0,0,.31-0.18A0.77,0.77,0,0,0,69,25.88a0.7,0.7,0,0,0-.12-0.43A0.38,0.38,0,0,0,68.54,25.29Z"/><polygon class="cls-9" points="65.99 25.38 65.11 26.26 63.74 25.38 65.11 24.51 65.99 25.38"/><line class="cls-3" x1="65.41" y1="33.44" x2="71.46" y2="33.44"/></svg>