<?xml version="1.0" encoding="UTF-8"?>
<svg width="298px" height="198px" viewBox="0 0 298 198" version="1.1" xmlns="http://www.w3.org/2000/svg" xmlns:xlink="http://www.w3.org/1999/xlink">
    <!-- Generator: Sketch 50.2 (55047) - http://www.bohemiancoding.com/sketch -->
    <title>Group Copy</title>
    <desc>Created with Sketch.</desc>
    <defs></defs>
    <g id="Call-Spread" stroke="none" stroke-width="1" fill="none" fill-rule="evenodd">
        <g id="5.5-call-put-spread-explanation" transform="translate(-659.000000, -789.000000)">
            <g id="Group-4" transform="translate(149.000000, 619.000000)">
                <g id="Group-Copy" transform="translate(511.000000, 171.000000)">
                    <g id="close-low-image">
                        <polygon id="Shape" stroke="#C2C2C2" stroke-width="2.422125" fill="#F1F2F2" fill-rule="nonzero" points="294.99875 0.21125 294.99875 195.21125 0.21125 195.21125 0.21125 0.21125"></polygon>
                        <path d="M245.5,39.5 L245.5,173.872616" id="Line-3" stroke="#2A3052" stroke-linecap="square"></path>
                        <path d="M2.9110625,54.0610625 L293.536062,54.0610625 M2.9110625,94.7485625 L293.536062,94.7485625 M2.9110625,135.436063 L293.536062,135.436063 M2.9110625,176.086063 L293.536062,176.086063 M38.0110625,33.7360625 L38.0110625,194.011063 M74.7985625,33.7360625 L74.7985625,194.011063 M111.548562,33.7360625 L111.548562,194.011063 M148.336062,33.7360625 L148.336062,194.011063 M185.086062,33.7360625 L185.086062,194.011063 M221.836062,33.7360625 L221.836062,194.011063 M2.9110625,115.073563 L293.536062,115.073563" id="Shape-2" stroke="#DFDEDE" stroke-width="1.210875"></path>
                        <path d="M2.9110625,68.25 L293.536062,68.25" id="Shape-3" stroke="#15212D" stroke-width="1.1325" fill="#D8D8D8" fill-rule="nonzero"></path>
                        <path d="M2.9110625,148.25 L293.536062,148.25" id="Path-2" stroke="#15212D" stroke-width="1.1325" fill="#D8D8D8" fill-rule="nonzero"></path>
                        <path d="M0.8110625,29 L295.636062,29" id="Shape-4" stroke="#C2C2C2" stroke-width="2.422125" fill="#F1F2F2" fill-rule="nonzero"></path>
                        <path d="M20.6870117,16.5375977 L20.6870117,20.5 L18.8339844,20.5 L18.8339844,9.8359375 L22.9135742,9.8359375 C24.1049864,9.8359375 25.0510219,10.145993 25.751709,10.7661133 C26.4523961,11.3862336 26.8027344,12.2065379 26.8027344,13.2270508 C26.8027344,14.2719779 26.4597202,15.084958 25.7736816,15.6660156 C25.0876431,16.2470732 24.1269593,16.5375977 22.8916016,16.5375977 L20.6870117,16.5375977 Z M20.6870117,15.0507812 L22.9135742,15.0507812 C23.5727572,15.0507812 24.0756819,14.8957535 24.4223633,14.5856934 C24.7690447,14.2756332 24.9423828,13.8276396 24.9423828,13.2416992 C24.9423828,12.6655245 24.7666033,12.205324 24.4150391,11.861084 C24.0634748,11.516844 23.5800812,11.3398438 22.9648438,11.3300781 L20.6870117,11.3300781 L20.6870117,15.0507812 Z M33.050293,19.7236328 C32.5278294,20.3388703 31.7856493,20.6464844 30.8237305,20.6464844 C29.9643512,20.6464844 29.3137229,20.395022 28.8718262,19.8920898 C28.4299294,19.3891576 28.2089844,18.6616259 28.2089844,17.7094727 L28.2089844,12.5751953 L29.9887695,12.5751953 L29.9887695,17.6875 C29.9887695,18.6933644 30.4062458,19.1962891 31.2412109,19.1962891 C32.1054731,19.1962891 32.6889633,18.8862336 32.9916992,18.2661133 L32.9916992,12.5751953 L34.7714844,12.5751953 L34.7714844,20.5 L33.0942383,20.5 L33.050293,19.7236328 Z M38.8144531,10.6489258 L38.8144531,12.5751953 L40.2133789,12.5751953 L40.2133789,13.8935547 L38.8144531,13.8935547 L38.8144531,18.3173828 C38.8144531,18.6201187 38.874267,18.8386224 38.9938965,18.9729004 C39.113526,19.1071784 39.3271469,19.1743164 39.6347656,19.1743164 C39.8398448,19.1743164 40.0473622,19.1499026 40.2573242,19.1010742 L40.2573242,20.4780273 C39.8520488,20.5903326 39.4614277,20.6464844 39.0854492,20.6464844 C37.7182549,20.6464844 37.034668,19.8920974 37.034668,18.3833008 L37.034668,13.8935547 L35.730957,13.8935547 L35.730957,12.5751953 L37.034668,12.5751953 L37.034668,10.6489258 L38.8144531,10.6489258 Z M51.0532227,17.753418 C51.0532227,17.2846656 50.8884294,16.9233411 50.5588379,16.6694336 C50.2292464,16.4155261 49.6347699,16.159181 48.7753906,15.9003906 C47.9160113,15.6416003 47.2324244,15.3535172 46.7246094,15.0361328 C45.7529248,14.4257782 45.2670898,13.6298877 45.2670898,12.6484375 C45.2670898,11.7890582 45.6174281,11.0810575 46.3181152,10.5244141 C47.0188023,9.96777065 47.9282171,9.68945312 49.0463867,9.68945312 C49.7885779,9.68945312 50.4501924,9.82617051 51.03125,10.0996094 C51.6123076,10.3730482 52.068846,10.7624486 52.4008789,11.2678223 C52.7329118,11.7731959 52.8989258,12.333493 52.8989258,12.9487305 L51.0532227,12.9487305 C51.0532227,12.3920871 50.8786639,11.9563004 50.529541,11.6413574 C50.1804182,11.3264144 49.6811556,11.1689453 49.0317383,11.1689453 C48.4262665,11.1689453 47.9563005,11.2983385 47.6218262,11.5571289 C47.2873518,11.8159193 47.1201172,12.1772438 47.1201172,12.6411133 C47.1201172,13.0317402 47.3007794,13.3576647 47.6621094,13.6188965 C48.0234393,13.8801283 48.6191365,14.134032 49.4492188,14.3806152 C50.279301,14.6271985 50.9457983,14.9079574 51.4487305,15.2229004 C51.9516627,15.5378434 52.3203113,15.8991679 52.5546875,16.3068848 C52.7890637,16.7146016 52.90625,17.1918918 52.90625,17.7387695 C52.90625,18.6274458 52.5656772,19.3342259 51.8845215,19.8591309 C51.2033657,20.3840358 50.2793027,20.6464844 49.1123047,20.6464844 C48.3408165,20.6464844 47.631595,20.5036635 46.9846191,20.2180176 C46.3376432,19.9323716 45.8347186,19.5380885 45.4758301,19.0351562 C45.1169416,18.532224 44.9375,17.9462924 44.9375,17.2773438 L46.7905273,17.2773438 C46.7905273,17.8828155 46.9907207,18.3515608 47.3911133,18.6835938 C47.7915059,19.0156267 48.3652306,19.1816406 49.1123047,19.1816406 C49.7568392,19.1816406 50.2414535,19.0510267 50.5661621,18.7897949 C50.8908708,18.5285631 51.0532227,18.1831076 51.0532227,17.753418 Z M61.2998047,16.6181641 C61.2998047,17.8437561 61.0214872,18.8215296 60.4648438,19.5515137 C59.9082003,20.2814978 59.1611375,20.6464844 58.2236328,20.6464844 C57.3544878,20.6464844 56.658694,20.3608427 56.1362305,19.7895508 L56.1362305,23.546875 L54.3564453,23.546875 L54.3564453,12.5751953 L55.9970703,12.5751953 L56.0703125,13.3808594 C56.592776,12.7460906 57.3032182,12.4287109 58.2016602,12.4287109 C59.1684619,12.4287109 59.9265109,12.7888148 60.4758301,13.5090332 C61.0251492,14.2292516 61.2998047,15.2289975 61.2998047,16.5083008 L61.2998047,16.6181641 Z M59.5273438,16.4643555 C59.5273438,15.6733359 59.3698746,15.0459008 59.0549316,14.5820312 C58.7399887,14.1181617 58.2895537,13.8862305 57.7036133,13.8862305 C56.9760706,13.8862305 56.4536149,14.1865204 56.1362305,14.7871094 L56.1362305,18.3027344 C56.4584977,18.9179718 56.9858362,19.2255859 57.7182617,19.2255859 C58.2846708,19.2255859 58.7277816,18.9973167 59.0476074,18.5407715 C59.3674332,18.0842262 59.5273438,17.3920945 59.5273438,16.4643555 Z M66.9541016,14.2011719 C66.7197254,14.1621092 66.4780286,14.1425781 66.2290039,14.1425781 C65.4135701,14.1425781 64.8642592,14.455075 64.5810547,15.0800781 L64.5810547,20.5 L62.8012695,20.5 L62.8012695,12.5751953 L64.5004883,12.5751953 L64.5444336,13.4614258 C64.9741232,12.7729458 65.5698204,12.4287109 66.331543,12.4287109 C66.5854505,12.4287109 66.7954093,12.4628903 66.9614258,12.53125 L66.9541016,14.2011719 Z M71.5683594,20.6464844 C70.440424,20.6464844 69.5261266,20.2912633 68.8254395,19.5808105 C68.1247524,18.8703578 67.7744141,17.9243223 67.7744141,16.7426758 L67.7744141,16.5229492 C67.7744141,15.7319296 67.9270004,15.0251496 68.2321777,14.4025879 C68.537355,13.7800262 68.9658176,13.2954119 69.5175781,12.9487305 C70.0693387,12.602049 70.6845669,12.4287109 71.3632812,12.4287109 C72.4423882,12.4287109 73.2761201,12.7729458 73.864502,13.4614258 C74.4528838,14.1499058 74.7470703,15.1240171 74.7470703,16.3837891 L74.7470703,17.1015625 L69.5688477,17.1015625 C69.6225589,17.7558626 69.8410625,18.2734356 70.2243652,18.6542969 C70.6076679,19.0351582 71.0898408,19.2255859 71.6708984,19.2255859 C72.4863322,19.2255859 73.1503881,18.8959994 73.6630859,18.2368164 L74.6225586,19.1523438 C74.3051742,19.6259789 73.8815944,19.9934069 73.3518066,20.2546387 C72.8220188,20.5158704 72.2275424,20.6464844 71.5683594,20.6464844 Z M71.355957,13.8569336 C70.8676733,13.8569336 70.4733902,14.0278303 70.1730957,14.3696289 C69.8728012,14.7114275 69.6811528,15.1874969 69.5981445,15.7978516 L72.9892578,15.7978516 L72.9892578,15.6660156 C72.9501951,15.0703095 72.7915053,14.6198746 72.5131836,14.3146973 C72.2348619,14.00952 71.8491236,13.8569336 71.355957,13.8569336 Z M80.862793,20.5 C80.7846676,20.3486321 80.7163089,20.1020525 80.6577148,19.7602539 C80.0913058,20.3510772 79.3979533,20.6464844 78.5776367,20.6464844 C77.7817343,20.6464844 77.1323267,20.4194359 76.6293945,19.965332 C76.1264623,19.5112282 75.875,18.9497104 75.875,18.2807617 C75.875,17.4360309 76.1887176,16.7878441 76.8161621,16.3361816 C77.4436067,15.8845192 78.3408145,15.6586914 79.5078125,15.6586914 L80.5991211,15.6586914 L80.5991211,15.1386719 C80.5991211,14.7285136 80.4843761,14.4001477 80.2548828,14.1535645 C80.0253895,13.9069812 79.6762719,13.7836914 79.2075195,13.7836914 C78.8022441,13.7836914 78.4702161,13.8850088 78.2114258,14.0876465 C77.9526354,14.2902842 77.8232422,14.54785 77.8232422,14.8603516 L76.043457,14.8603516 C76.043457,14.4257791 76.1874986,14.019289 76.4755859,13.6408691 C76.7636733,13.2624493 77.1555151,12.9658214 77.651123,12.7509766 C78.146731,12.5361317 78.699704,12.4287109 79.3100586,12.4287109 C80.2377976,12.4287109 80.9775363,12.6618629 81.5292969,13.1281738 C82.0810574,13.5944848 82.3642577,14.2499958 82.3789062,15.0947266 L82.3789062,18.6689453 C82.3789062,19.3818395 82.4790029,19.9506815 82.6791992,20.3754883 L82.6791992,20.5 L80.862793,20.5 Z M78.9072266,19.2182617 C79.2587908,19.2182617 79.5895981,19.1328134 79.8996582,18.9619141 C80.2097183,18.7910148 80.4428703,18.5615249 80.5991211,18.2734375 L80.5991211,16.7792969 L79.6396484,16.7792969 C78.9804655,16.7792969 78.4848649,16.8940418 78.152832,17.1235352 C77.8207991,17.3530285 77.6547852,17.6777323 77.6547852,18.0976562 C77.6547852,18.4394548 77.7683094,18.7116689 77.9953613,18.9143066 C78.2224132,19.1169444 78.5263653,19.2182617 78.9072266,19.2182617 Z M83.909668,16.4790039 C83.909668,15.2582947 84.1928683,14.2780799 84.7592773,13.5383301 C85.3256864,12.7985803 86.0849562,12.4287109 87.0371094,12.4287109 C87.8769573,12.4287109 88.5556615,12.7216768 89.0732422,13.3076172 L89.0732422,9.25 L90.8530273,9.25 L90.8530273,20.5 L89.2416992,20.5 L89.1538086,19.6796875 C88.6215794,20.324222 87.9111373,20.6464844 87.0224609,20.6464844 C86.0947219,20.6464844 85.343997,20.272953 84.7702637,19.5258789 C84.1965303,18.7788049 83.909668,17.76319 83.909668,16.4790039 Z M85.6894531,16.6328125 C85.6894531,17.4384806 85.8444809,18.0671364 86.154541,18.5187988 C86.4646012,18.9704612 86.9052706,19.1962891 87.4765625,19.1962891 C88.2041052,19.1962891 88.7363264,18.8715853 89.0732422,18.222168 L89.0732422,14.8383789 C88.7460921,14.2036101 88.2187536,13.8862305 87.4912109,13.8862305 C86.9150362,13.8862305 86.4707047,14.1144997 86.1582031,14.5710449 C85.8457016,15.0275902 85.6894531,15.7148392 85.6894531,16.6328125 Z" id="Put-Spread" fill="#000000"></path>
                        <path d="M32.0002443,100.822563 L88.9932483,76.2288124 L176.305828,85.1705932 L245.767734,55.6730531" id="Shape-5" stroke="#6E7287" stroke-width="2" stroke-dasharray="10"></path>
                        <path d="M32.0149231,111.202813 L88.5472864,93.3362991 L184.640098,115.184744 L245.980729,107.541032" id="Shape-5" stroke="#6E7287" stroke-width="2" stroke-dasharray="10"></path>
                        <path d="M32.1775491,160.459906 L100.70051,139.701039 L184.052886,144.865578 L245.626852,118.942172" id="Shape-5" stroke="#6E7287" stroke-width="2" stroke-dasharray="10" transform="translate(138.902201, 139.701039) scale(1, -1) translate(-138.902201, -139.701039) "></path>
                        <path d="M231.487671,183.429443 L228.202759,183.429443 L228.202759,185.890381 L232.04248,185.890381 L232.04248,187 L226.812988,187 L226.812988,179.001953 L232.004028,179.001953 L232.004028,180.122559 L228.202759,180.122559 L228.202759,182.330811 L231.487671,182.330811 L231.487671,183.429443 Z M234.283691,181.056396 L234.322144,181.743042 C234.761599,181.212033 235.338375,180.946533 236.05249,180.946533 C237.290289,180.946533 237.920166,181.655144 237.942139,183.072388 L237.942139,187 L236.6073,187 L236.6073,183.149292 C236.6073,182.772093 236.525819,182.49286 236.362854,182.311584 C236.199889,182.130309 235.933474,182.039673 235.563599,182.039673 C235.025266,182.039673 234.624269,182.283201 234.360596,182.770264 L234.360596,187 L233.025757,187 L233.025757,181.056396 L234.283691,181.056396 Z M239.051758,183.984253 C239.051758,183.068721 239.264158,182.33356 239.688965,181.778748 C240.113772,181.223935 240.683224,180.946533 241.397339,180.946533 C242.027225,180.946533 242.536253,181.166258 242.924438,181.605713 L242.924438,178.5625 L244.259277,178.5625 L244.259277,187 L243.050781,187 L242.984863,186.384766 C242.585691,186.868166 242.05286,187.109863 241.386353,187.109863 C240.690548,187.109863 240.127505,186.829715 239.697205,186.269409 C239.266905,185.709104 239.051758,184.947393 239.051758,183.984253 Z M240.386597,184.099609 C240.386597,184.70386 240.502867,185.175352 240.735413,185.514099 C240.967958,185.852846 241.29846,186.022217 241.726929,186.022217 C242.272586,186.022217 242.671752,185.778689 242.924438,185.291626 L242.924438,182.753784 C242.679076,182.277708 242.283572,182.039673 241.737915,182.039673 C241.305784,182.039673 240.972535,182.210875 240.738159,182.553284 C240.503783,182.895693 240.386597,183.411129 240.386597,184.099609 Z" id="End" fill="#2A3052"></path>
                        <path d="M9.99328613,133.940063 C9.99328613,133.588499 9.86969118,133.317506 9.62249756,133.127075 C9.37530394,132.936645 8.92944658,132.744386 8.28491211,132.550293 C7.64037764,132.3562 7.12768745,132.140138 6.74682617,131.9021 C6.01806276,131.444334 5.65368652,130.847416 5.65368652,130.111328 C5.65368652,129.466794 5.91644024,128.935793 6.44195557,128.518311 C6.96747089,128.100828 7.64953194,127.89209 8.48815918,127.89209 C9.04480259,127.89209 9.54101345,127.994628 9.97680664,128.199707 C10.4125998,128.404786 10.7550036,128.696836 11.0040283,129.075867 C11.253053,129.454897 11.3775635,129.87512 11.3775635,130.336548 L9.99328613,130.336548 C9.99328613,129.919065 9.86236703,129.592225 9.6005249,129.356018 C9.33868277,129.119811 8.96423583,129.001709 8.47717285,129.001709 C8.02306902,129.001709 7.67059452,129.098754 7.41973877,129.292847 C7.16888302,129.486939 7.04345703,129.757933 7.04345703,130.105835 C7.04345703,130.398805 7.17895372,130.643249 7.44995117,130.839172 C7.72094862,131.035096 8.1677215,131.225524 8.7902832,131.410461 C9.41284491,131.595399 9.91271784,131.805968 10.289917,132.042175 C10.6671161,132.278383 10.9436026,132.549376 11.1193848,132.855164 C11.2951669,133.160951 11.3830566,133.518919 11.3830566,133.929077 C11.3830566,134.595584 11.1276271,135.125669 10.6167603,135.519348 C10.1058934,135.913027 9.41284617,136.109863 8.53759766,136.109863 C7.95898148,136.109863 7.42706541,136.002748 6.9418335,135.788513 C6.45660158,135.574279 6.07940808,135.278566 5.8102417,134.901367 C5.54107531,134.524168 5.40649414,134.084719 5.40649414,133.583008 L6.79626465,133.583008 C6.79626465,134.037112 6.94640963,134.388671 7.2467041,134.637695 C7.54699857,134.88672 7.97729212,135.01123 8.53759766,135.01123 C9.02099851,135.01123 9.38445923,134.91327 9.62799072,134.717346 C9.87152221,134.521422 9.99328613,134.262331 9.99328613,133.940063 Z M14.1461182,128.611694 L14.1461182,130.056396 L15.1953125,130.056396 L15.1953125,131.045166 L14.1461182,131.045166 L14.1461182,134.363037 C14.1461182,134.590089 14.1909786,134.753967 14.2807007,134.854675 C14.3704228,134.955384 14.5306385,135.005737 14.7613525,135.005737 C14.9151619,135.005737 15.0708,134.987427 15.2282715,134.950806 L15.2282715,135.983521 C14.9243149,136.067749 14.6313491,136.109863 14.3493652,136.109863 C13.3239695,136.109863 12.8112793,135.544073 12.8112793,134.412476 L12.8112793,131.045166 L11.8334961,131.045166 L11.8334961,130.056396 L12.8112793,130.056396 L12.8112793,128.611694 L14.1461182,128.611694 Z M19.765625,136 C19.707031,135.886474 19.6557619,135.701539 19.6118164,135.44519 C19.1870096,135.888308 18.6669953,136.109863 18.0517578,136.109863 C17.454831,136.109863 16.9677753,135.939577 16.5905762,135.598999 C16.213377,135.258421 16.0247803,134.837283 16.0247803,134.335571 C16.0247803,133.702023 16.2600684,133.215883 16.7306519,132.877136 C17.2012353,132.538389 17.8741411,132.369019 18.7493896,132.369019 L19.5678711,132.369019 L19.5678711,131.979004 C19.5678711,131.671385 19.4818124,131.425111 19.3096924,131.240173 C19.1375724,131.055236 18.8757342,130.962769 18.5241699,130.962769 C18.2202133,130.962769 17.9711924,131.038757 17.7770996,131.190735 C17.5830068,131.342713 17.4859619,131.535888 17.4859619,131.770264 L16.151123,131.770264 C16.151123,131.444334 16.2591542,131.139467 16.4752197,130.855652 C16.6912853,130.571837 16.9851666,130.349366 17.3568726,130.188232 C17.7285785,130.027099 18.1433083,129.946533 18.6010742,129.946533 C19.2968785,129.946533 19.8516825,130.121397 20.2655029,130.47113 C20.6793234,130.820864 20.8917236,131.312497 20.90271,131.946045 L20.90271,134.626709 C20.90271,135.16138 20.9777825,135.588011 21.1279297,135.906616 L21.1279297,136 L19.765625,136 Z M18.2989502,135.038696 C18.5626234,135.038696 18.8107288,134.97461 19.0432739,134.846436 C19.275819,134.718261 19.450683,134.546144 19.5678711,134.330078 L19.5678711,133.209473 L18.8482666,133.209473 C18.3538794,133.209473 17.982179,133.295531 17.7331543,133.467651 C17.4841296,133.639771 17.3596191,133.883299 17.3596191,134.198242 C17.3596191,134.454591 17.4447623,134.658752 17.6150513,134.81073 C17.7853402,134.962708 18.0133042,135.038696 18.2989502,135.038696 Z M25.4125977,131.275879 C25.2368155,131.246582 25.0555429,131.231934 24.8687744,131.231934 C24.2571991,131.231934 23.8452159,131.466306 23.6328125,131.935059 L23.6328125,136 L22.2979736,136 L22.2979736,130.056396 L23.5723877,130.056396 L23.6053467,130.721069 C23.9276139,130.204709 24.3743868,129.946533 24.9456787,129.946533 C25.1361094,129.946533 25.2935785,129.972168 25.4180908,130.023438 L25.4125977,131.275879 Z M27.9284668,128.611694 L27.9284668,130.056396 L28.9776611,130.056396 L28.9776611,131.045166 L27.9284668,131.045166 L27.9284668,134.363037 C27.9284668,134.590089 27.9733272,134.753967 28.0630493,134.854675 C28.1527714,134.955384 28.3129871,135.005737 28.5437012,135.005737 C28.6975105,135.005737 28.8531486,134.987427 29.0106201,134.950806 L29.0106201,135.983521 C28.7066635,136.067749 28.4136977,136.109863 28.1317139,136.109863 C27.1063181,136.109863 26.5936279,135.544073 26.5936279,134.412476 L26.5936279,131.045166 L25.6158447,131.045166 L25.6158447,130.056396 L26.5936279,130.056396 L26.5936279,128.611694 L27.9284668,128.611694 Z" id="Start" fill="#2A3052"></path>
                        <path d="M49.295166,62 L48.2624512,62 L48.9051514,58.3031006 L44.9995117,58.3031006 L44.3568115,62 L43.3240967,62 L44.7138672,54.0019531 L45.746582,54.0019531 L45.1478271,57.4406738 L49.0479736,57.4406738 L49.6467285,54.0019531 L50.6849365,54.0019531 L49.295166,62 Z M52.0802002,62 L51.0914307,62 L52.1241455,56.0563965 L53.112915,56.0563965 L52.0802002,62 Z M52.8986816,53.8865967 C53.0671395,53.8792724 53.2072138,53.9296259 53.3189087,54.0376587 C53.4306036,54.1456915 53.4864502,54.2875968 53.4864502,54.4633789 C53.4827881,54.6354989 53.4269415,54.7764887 53.3189087,54.8863525 C53.2108759,54.9962164 53.0708016,55.0548095 52.8986816,55.0621338 C52.7265616,55.069458 52.5855718,55.0200201 52.475708,54.9138184 C52.3658442,54.8076167 52.3127441,54.6684579 52.3164062,54.4963379 C52.3200684,54.3242179 52.3749995,54.1813971 52.4812012,54.0678711 C52.5874029,53.9543451 52.7265616,53.8939209 52.8986816,53.8865967 Z M53.9973145,59.0172119 C54.0852055,58.3690153 54.2600695,57.8059716 54.5219116,57.328064 C54.7837538,56.8501563 55.1023541,56.4967663 55.4777222,56.2678833 C55.8530903,56.0390003 56.2641579,55.9300537 56.7109375,55.94104 C57.3994175,55.9556885 57.9194318,56.2156957 58.2709961,56.7210693 L58.46875,56.0563965 L59.3806152,56.0563965 L58.3918457,61.8736572 C58.285644,62.6317177 57.9780299,63.2387062 57.4689941,63.6946411 C56.9599584,64.150576 56.3319129,64.3675538 55.5848389,64.3455811 C55.1820048,64.3382568 54.7965717,64.2430429 54.4285278,64.0599365 C54.060484,63.8768301 53.7702647,63.6259782 53.5578613,63.307373 L54.1236572,62.6976318 C54.4825457,63.2286404 54.9567842,63.5014648 55.5463867,63.5161133 C56.0188012,63.5307618 56.4188826,63.3989272 56.7466431,63.1206055 C57.0744035,62.8422838 57.2913813,62.4467799 57.397583,61.934082 L57.5074463,61.4067383 C57.0240454,61.8901391 56.4582552,62.1245118 55.8100586,62.1098633 C55.4401837,62.0988769 55.1188368,61.9990854 54.8460083,61.8104858 C54.5731798,61.6218863 54.3616951,61.3490618 54.2115479,60.9920044 C54.0614006,60.6349469 53.979004,60.2366965 53.9643555,59.7972412 C53.9570312,59.5811757 53.9680174,59.3211685 53.9973145,59.0172119 Z M54.9586182,59.5830078 C54.9476318,60.1066921 55.0382681,60.5122666 55.2305298,60.7997437 C55.4227915,61.0872207 55.7130108,61.2382812 56.1011963,61.2529297 C56.694461,61.2675782 57.2053201,60.9764434 57.6337891,60.3795166 L58.100708,57.6494141 C57.8809803,57.1074192 57.4836455,56.8254396 56.9086914,56.8034668 C56.3703586,56.7888183 55.9281634,57.0085427 55.5820923,57.4626465 C55.2360212,57.9167503 55.0318607,58.5301475 54.9696045,59.3028564 L54.9586182,59.5830078 Z M61.7426758,56.7814941 C62.2626979,56.2138643 62.8614468,55.9373779 63.5389404,55.9520264 C64.0955838,55.9593506 64.5084825,56.1506939 64.7776489,56.526062 C65.0468153,56.9014301 65.1466068,57.4278531 65.0770264,58.1053467 L64.428833,62 L63.4345703,62 L64.0882568,58.0888672 C64.1102296,57.9094229 64.1120606,57.7427986 64.09375,57.5889893 C64.0314938,57.0762914 63.7293728,56.8144532 63.1873779,56.8034668 C62.5794647,56.7888183 62.0557883,57.1074186 61.616333,57.7592773 L60.880249,62 L59.8859863,62 L61.3526611,53.5625 L62.3469238,53.5625 L61.7426758,56.7814941 Z M68.8618164,62 L70.2515869,54.0019531 L72.597168,54.0074463 C73.4138224,54.0074463 74.0253886,54.1905499 74.4318848,54.5567627 C74.8383809,54.9229755 75.0159915,55.4338346 74.9647217,56.0893555 C74.8988034,56.8547402 74.4172408,57.4315166 73.5200195,57.8197021 C73.878908,57.958863 74.1471549,58.1968977 74.3247681,58.5338135 C74.5023813,58.8707292 74.5747072,59.2424296 74.541748,59.6489258 C74.4868161,60.3703649 74.1975124,60.9425638 73.6738281,61.3655396 C73.1501439,61.7885153 72.4726604,62 71.6413574,62 L68.8618164,62 Z M70.5427246,58.2591553 L70.0428467,61.1375732 L71.6743164,61.1430664 C72.1723658,61.1430664 72.5898421,61.0094008 72.9267578,60.7420654 C73.2636736,60.4747301 73.4595945,60.1140159 73.5145264,59.6599121 C73.5657962,59.227781 73.4907237,58.8908703 73.2893066,58.6491699 C73.0878896,58.4074695 72.7711203,58.2792969 72.3389893,58.2646484 L70.5427246,58.2591553 Z M70.69104,57.413208 L72.1796875,57.4187012 C72.6447777,57.4187012 73.037535,57.2996838 73.3579712,57.0616455 C73.6784074,56.8236072 73.8660886,56.4958517 73.9210205,56.0783691 C73.9686282,55.6901836 73.8926402,55.3972178 73.6930542,55.1994629 C73.4934682,55.001708 73.1629662,54.8936768 72.7015381,54.8753662 L71.1304932,54.869873 L70.69104,57.413208 Z M79.194458,62 C79.1688231,61.8937983 79.1560059,61.7894292 79.1560059,61.6868896 L79.1724854,61.3737793 C78.6268283,61.8791529 78.0482208,62.1245118 77.4366455,62.1098633 C76.9129612,62.102539 76.4872453,61.9368302 76.1594849,61.6127319 C75.8317244,61.2886336 75.682495,60.8830591 75.711792,60.3959961 C75.7484133,59.7661101 76.0239842,59.2744769 76.5385132,58.9210815 C77.0530421,58.5676862 77.7296101,58.3909912 78.5682373,58.3909912 L79.6064453,58.3964844 L79.6723633,57.9240723 C79.7089846,57.5688459 79.6403207,57.2877818 79.4663696,57.0808716 C79.2924186,56.8739614 79.0314959,56.7668457 78.6835938,56.7595215 C78.3430159,56.7521972 78.0418104,56.8355094 77.7799683,57.0094604 C77.5181261,57.1834115 77.3579104,57.4132066 77.2993164,57.6988525 L76.2995605,57.7043457 C76.3325197,57.3564436 76.4680164,57.0479139 76.7060547,56.7787476 C76.944093,56.5095812 77.2498761,56.300843 77.6234131,56.1525269 C77.9969501,56.0042107 78.3832988,55.9337158 78.7824707,55.94104 C79.4013703,55.9556885 79.8829328,56.1433698 80.2271729,56.5040894 C80.5714129,56.8648089 80.7160647,57.3436249 80.6611328,57.9405518 L80.1777344,60.8848877 L80.1502686,61.3078613 C80.1429443,61.5092784 80.1649167,61.7088613 80.2161865,61.9066162 L80.2052002,62 L79.194458,62 Z M77.6343994,61.230957 C77.9530045,61.2382813 78.25421,61.1622933 78.5380249,61.0029907 C78.8218398,60.8436882 79.0662832,60.6230483 79.2713623,60.3410645 L79.4855957,59.1160889 L78.7330322,59.1105957 C78.1068084,59.1105957 77.6270769,59.2094717 77.2938232,59.4072266 C76.9605696,59.6049815 76.7719729,59.88513 76.7280273,60.2476807 C76.6950682,60.5260024 76.76007,60.7576285 76.9230347,60.9425659 C77.0859993,61.1275034 77.3231186,61.2236328 77.6343994,61.230957 Z M85.2479248,56.9627686 L84.7810059,56.9133301 C84.1437956,56.9133301 83.6420917,57.2008028 83.2758789,57.7757568 L82.5452881,62 L81.5510254,62 L82.5837402,56.0563965 L83.5450439,56.0509033 L83.3967285,56.743042 C83.8178732,56.1900607 84.3140841,55.9208984 84.885376,55.9355469 C85.0062262,55.9355469 85.1636953,55.9630124 85.3577881,56.0179443 L85.2479248,56.9627686 Z M88.9942627,56.9627686 L88.5273438,56.9133301 C87.8901335,56.9133301 87.3884296,57.2008028 87.0222168,57.7757568 L86.291626,62 L85.2973633,62 L86.3300781,56.0563965 L87.2913818,56.0509033 L87.1430664,56.743042 C87.5642111,56.1900607 88.0604219,55.9208984 88.6317139,55.9355469 C88.7525641,55.9355469 88.9100332,55.9630124 89.104126,56.0179443 L88.9942627,56.9627686 Z M90.1203613,62 L89.1315918,62 L90.1643066,56.0563965 L91.1530762,56.0563965 L90.1203613,62 Z M90.9388428,53.8865967 C91.1073006,53.8792724 91.2473749,53.9296259 91.3590698,54.0376587 C91.4707647,54.1456915 91.5266113,54.2875968 91.5266113,54.4633789 C91.5229492,54.6354989 91.4671026,54.7764887 91.3590698,54.8863525 C91.2510371,54.9962164 91.1109628,55.0548095 90.9388428,55.0621338 C90.7667228,55.069458 90.625733,55.0200201 90.5158691,54.9138184 C90.4060053,54.8076167 90.3529053,54.6684579 90.3565674,54.4963379 C90.3602295,54.3242179 90.4151606,54.1813971 90.5213623,54.0678711 C90.627564,53.9543451 90.7667228,53.8939209 90.9388428,53.8865967 Z M94.3171387,62.1098633 C93.5773889,62.0952148 92.9987814,61.8223904 92.5812988,61.2913818 C92.1638163,60.7603733 91.9880368,60.0810588 92.0539551,59.253418 L92.0814209,59.0172119 C92.1436771,58.4276094 92.318541,57.8892847 92.6060181,57.4022217 C92.8934951,56.9151587 93.2441386,56.5480359 93.657959,56.3008423 C94.0717794,56.0536487 94.5185523,55.9355468 94.998291,55.9465332 C95.6098663,55.9611817 96.0895979,56.1644268 96.4375,56.5562744 C96.7854021,56.9481221 96.9758299,57.4791226 97.0087891,58.149292 C97.0197754,58.3873303 97.0124513,58.625365 96.9868164,58.8634033 L96.9263916,59.3193359 L93.0427246,59.3193359 C92.9768063,59.8576687 93.0656116,60.3154278 93.3091431,60.692627 C93.5526746,61.0698261 93.9161353,61.265747 94.3995361,61.2803955 C94.9854766,61.295044 95.5274633,61.0313748 96.0255127,60.4893799 L96.5968018,60.9727783 C96.3477771,61.3316668 96.0264302,61.6127309 95.6327515,61.815979 C95.2390727,62.0192271 94.8005395,62.1171875 94.3171387,62.1098633 Z M94.9488525,56.776001 C94.5386942,56.7650146 94.1807266,56.9041734 93.874939,57.1934814 C93.5691513,57.4827895 93.326539,57.9130831 93.1470947,58.484375 L96.036499,58.4898682 L96.0584717,58.4019775 C96.1170657,57.9405495 96.0429087,57.5569473 95.8359985,57.2511597 C95.6290883,56.945372 95.3333759,56.7869874 94.9488525,56.776001 Z M101.276978,56.9627686 L100.810059,56.9133301 C100.172848,56.9133301 99.6711444,57.2008028 99.3049316,57.7757568 L98.5743408,62 L97.5800781,62 L98.612793,56.0563965 L99.5740967,56.0509033 L99.4257812,56.743042 C99.8469259,56.1900607 100.343137,55.9208984 100.914429,55.9355469 C101.035279,55.9355469 101.192748,55.9630124 101.386841,56.0179443 L101.276978,56.9627686 Z" id="High-Barrier" fill="#2A3052"></path>
                        <path d="M263.400024,55.9016113 C263.436646,55.5866683 263.357911,55.3120129 263.163818,55.0776367 C262.969726,54.8432605 262.641055,54.637269 262.177795,54.4596558 C261.714536,54.2820426 261.345582,54.0815441 261.070923,53.8581543 C260.528928,53.4150368 260.283569,52.8345983 260.334839,52.1168213 C260.375122,51.5162323 260.5921,51.019106 260.985779,50.6254272 C261.379458,50.2317485 261.900387,49.9927983 262.548584,49.9085693 L262.762817,48.7055664 L263.564819,48.7055664 L263.345093,49.9250488 C263.887088,50.0312505 264.290831,50.3049905 264.556335,50.7462769 C264.82184,51.1875632 264.927124,51.7597621 264.872192,52.4628906 L263.888916,52.4628906 C263.918213,51.9245579 263.838563,51.5116592 263.649963,51.2241821 C263.461364,50.9367051 263.183962,50.7874756 262.817749,50.7764893 C262.403929,50.769165 262.06244,50.8854358 261.793274,51.1253052 C261.524108,51.3651745 261.367554,51.6883525 261.323608,52.0948486 C261.290649,52.4097916 261.359313,52.680785 261.529602,52.9078369 C261.699891,53.1348888 262.035886,53.3482046 262.537598,53.5477905 C263.039309,53.7473765 263.420165,53.9561146 263.680176,54.1740112 C263.940187,54.3919078 264.129699,54.6418443 264.248718,54.9238281 C264.367737,55.205812 264.414429,55.5280744 264.388794,55.890625 C264.341186,56.5168488 264.107729,57.0222149 263.688416,57.4067383 C263.269102,57.7912617 262.713382,58.0201412 262.02124,58.0933838 L261.834473,59.1425781 L261.037964,59.1425781 L261.230225,58.0823975 C260.629636,57.9945064 260.175539,57.7363303 259.86792,57.3078613 C259.560301,56.8793924 259.426636,56.3245884 259.466919,55.6434326 L260.461182,55.6434326 C260.420898,56.1231713 260.507872,56.5058579 260.722107,56.7915039 C260.936341,57.0771499 261.259519,57.2236328 261.69165,57.230957 C262.156741,57.2382813 262.545836,57.1201794 262.858948,56.8766479 C263.17206,56.6331165 263.352417,56.3081075 263.400024,55.9016113 Z M267.778076,58.1098633 C267.104245,58.0952148 266.598879,57.8562645 266.261963,57.3930054 C265.925047,56.9297462 265.77124,56.2623335 265.800537,55.3907471 C265.807861,55.1197496 265.828003,54.8524183 265.860962,54.5887451 L266.058716,53.2539062 C266.234498,52.1149845 266.569578,51.2653837 267.063965,50.7050781 C267.558352,50.1447726 268.210201,49.8737792 269.019531,49.8920898 C269.700687,49.9067384 270.2088,50.1401955 270.543884,50.5924683 C270.878969,51.044741 271.033692,51.7011676 271.008057,52.5617676 C270.99707,52.8364272 270.975098,53.1055895 270.942139,53.3692627 L270.749878,54.6601562 C270.555785,55.8649963 270.213381,56.7457248 269.722656,57.3023682 C269.231931,57.8590116 268.583744,58.1281739 267.778076,58.1098633 Z M269.980835,53.1879883 C270.032105,52.7448708 270.055908,52.400636 270.052246,52.1552734 C270.033935,51.225093 269.673221,50.7471925 268.970093,50.7215576 C268.457395,50.703247 268.042665,50.8927592 267.725891,51.2901001 C267.409117,51.687441 267.188477,52.3109088 267.063965,53.1605225 L266.827759,54.75354 C266.776489,55.1783469 266.752686,55.5244127 266.756348,55.791748 C266.774658,56.7622119 267.133541,57.2602538 267.833008,57.2858887 C268.320071,57.3078614 268.721983,57.1284199 269.038757,56.7475586 C269.355531,56.3666973 269.581664,55.7624553 269.717163,54.9348145 L269.980835,53.1879883 Z" id="$0" fill="#2A3052"></path>
                        <path d="M263.223999,161.467896 L259.972046,161.467896 L259.356812,165 L258.324097,165 L259.713867,157.001953 L264.525879,157.001953 L264.37207,157.869873 L260.592773,157.869873 L260.120361,160.605469 L263.377808,160.605469 L263.223999,161.467896 Z M268.030518,164.412231 C267.565427,164.89197 266.974003,165.124512 266.256226,165.109863 C265.688596,165.095215 265.268373,164.89197 264.995544,164.500122 C264.722716,164.108274 264.621093,163.573612 264.690674,162.896118 L265.327881,159.056396 L266.322144,159.056396 L265.679443,162.912598 C265.661133,163.073731 265.657471,163.2312 265.668457,163.38501 C265.686768,163.648683 265.765502,163.85559 265.904663,164.005737 C266.043824,164.155885 266.237914,164.23645 266.486938,164.247437 C267.197391,164.269409 267.746702,163.981937 268.134888,163.38501 L268.881958,159.056396 L269.876221,159.056396 L268.843506,165 L267.904175,165 L268.030518,164.412231 Z M271.40332,165 L270.414551,165 L271.875732,156.5625 L272.869995,156.5625 L271.40332,165 Z M274.105957,165 L273.117188,165 L274.578369,156.5625 L275.572632,156.5625 L274.105957,165 Z M263.553589,175.055664 C263.480346,175.659915 263.317384,176.203733 263.064697,176.687134 C262.81201,177.170535 262.498903,177.532164 262.125366,177.772034 C261.751829,178.011903 261.338015,178.126343 260.883911,178.115356 C260.195431,178.100708 259.668093,177.868166 259.30188,177.417725 L258.769043,180.285156 L257.77478,180.285156 L259.203003,172.056396 L260.103882,172.050903 L259.994019,172.715576 C260.484744,172.18823 261.072506,171.931885 261.757324,171.946533 C262.328616,171.961182 262.773558,172.171751 263.092163,172.578247 C263.410768,172.984743 263.579224,173.54504 263.597534,174.259155 C263.601196,174.493531 263.592041,174.72058 263.570068,174.940308 L263.553589,175.055664 Z M262.575806,174.940308 L262.603271,174.478882 C262.603271,173.944211 262.501649,173.534975 262.298401,173.25116 C262.095153,172.967345 261.801271,172.818115 261.416748,172.803467 C260.841794,172.788818 260.345583,173.061643 259.928101,173.621948 L259.428223,176.4729 C259.651612,177.000247 260.052609,177.27124 260.631226,177.285889 C261.125613,177.296875 261.545836,177.103701 261.891907,176.70636 C262.237978,176.309019 262.465942,175.720341 262.575806,174.940308 Z M267.986572,178 C267.960937,177.893798 267.94812,177.789429 267.94812,177.68689 L267.9646,177.373779 C267.418943,177.879153 266.840335,178.124512 266.22876,178.109863 C265.705076,178.102539 265.27936,177.93683 264.951599,177.612732 C264.623839,177.288634 264.474609,176.883059 264.503906,176.395996 C264.540528,175.76611 264.816099,175.274477 265.330627,174.921082 C265.845156,174.567686 266.521724,174.390991 267.360352,174.390991 L268.39856,174.396484 L268.464478,173.924072 C268.501099,173.568846 268.432435,173.287782 268.258484,173.080872 C268.084533,172.873961 267.82361,172.766846 267.475708,172.759521 C267.13513,172.752197 266.833925,172.835509 266.572083,173.00946 C266.31024,173.183412 266.150025,173.413207 266.091431,173.698853 L265.091675,173.704346 C265.124634,173.356444 265.260131,173.047914 265.498169,172.778748 C265.736207,172.509581 266.04199,172.300843 266.415527,172.152527 C266.789064,172.004211 267.175413,171.933716 267.574585,171.94104 C268.193485,171.955689 268.675047,172.14337 269.019287,172.504089 C269.363527,172.864809 269.508179,173.343625 269.453247,173.940552 L268.969849,176.884888 L268.942383,177.307861 C268.935059,177.509278 268.957031,177.708861 269.008301,177.906616 L268.997314,178 L267.986572,178 Z M266.426514,177.230957 C266.745119,177.238281 267.046324,177.162293 267.330139,177.002991 C267.613954,176.843688 267.858397,176.623048 268.063477,176.341064 L268.27771,175.116089 L267.525146,175.110596 C266.898923,175.110596 266.419191,175.209472 266.085938,175.407227 C265.752684,175.604981 265.564087,175.88513 265.520142,176.247681 C265.487182,176.526002 265.552184,176.757628 265.715149,176.942566 C265.878114,177.127503 266.115233,177.223633 266.426514,177.230957 Z M272.474487,176.500366 L274.589355,172.056396 L275.687988,172.056396 L272.161377,178.98877 C271.670652,179.951909 271.040775,180.427979 270.271729,180.416992 C270.13623,180.41333 269.936647,180.380371 269.672974,180.318115 L269.760864,179.494141 L270.019043,179.521606 C270.333986,179.536255 270.605895,179.46576 270.834778,179.31012 C271.063661,179.154479 271.26599,178.902712 271.441772,178.55481 L271.798828,177.873657 L270.771606,172.056396 L271.809814,172.056396 L272.474487,176.500366 Z M278.863037,171.946533 C279.361086,171.953857 279.787718,172.089354 280.142944,172.353027 C280.498171,172.616701 280.760924,172.980161 280.931213,173.44342 C281.101502,173.90668 281.15918,174.412961 281.104248,174.96228 L281.093262,175.08313 C281.023681,175.661746 280.851564,176.184507 280.576904,176.651428 C280.302245,177.11835 279.947024,177.48181 279.51123,177.741821 C279.075437,178.001832 278.597537,178.124512 278.077515,178.109863 C277.583127,178.102539 277.157411,177.967042 276.800354,177.703369 C276.443297,177.439696 276.182374,177.080813 276.017578,176.626709 C275.852782,176.172605 275.794189,175.672732 275.841797,175.127075 C275.896729,174.511838 276.063353,173.958865 276.341675,173.46814 C276.619997,172.977415 276.977964,172.597474 277.415588,172.328308 C277.853213,172.059142 278.335691,171.931885 278.863037,171.946533 Z M276.841553,175.132568 C276.815918,175.363282 276.815918,175.603148 276.841553,175.852173 C276.878174,176.284304 277.007262,176.628539 277.228821,176.884888 C277.45038,177.141237 277.746092,177.274902 278.115967,177.285889 C278.445558,177.296875 278.74951,177.215394 279.027832,177.041443 C279.306154,176.867492 279.540526,176.604738 279.730957,176.253174 C279.921388,175.90161 280.044067,175.511599 280.098999,175.08313 C280.128296,174.746214 280.133789,174.462403 280.115479,174.231689 C280.071533,173.788572 279.937867,173.438844 279.714478,173.182495 C279.491088,172.926146 279.19446,172.790649 278.824585,172.776001 C278.311887,172.765015 277.8761,172.966429 277.517212,173.380249 C277.158323,173.794069 276.936768,174.336056 276.852539,175.006226 L276.841553,175.132568 Z M285.614136,177.412231 C285.149046,177.89197 284.557621,178.124512 283.839844,178.109863 C283.272214,178.095215 282.851991,177.89197 282.579163,177.500122 C282.306334,177.108274 282.204712,176.573612 282.274292,175.896118 L282.911499,172.056396 L283.905762,172.056396 L283.263062,175.912598 C283.244751,176.073731 283.241089,176.2312 283.252075,176.38501 C283.270386,176.648683 283.34912,176.85559 283.488281,177.005737 C283.627442,177.155885 283.821532,177.23645 284.070557,177.247437 C284.781009,177.269409 285.33032,176.981937 285.718506,176.38501 L286.465576,172.056396 L287.459839,172.056396 L286.427124,178 L285.487793,178 L285.614136,177.412231 Z M290.536011,170.617188 L290.283325,172.056396 L291.365479,172.056396 L291.228149,172.841919 L290.151489,172.841919 L289.530762,176.538818 C289.519775,176.634034 289.517944,176.721923 289.525269,176.80249 C289.550903,177.088136 289.706542,177.230957 289.992188,177.230957 C290.113038,177.230957 290.274169,177.212647 290.475586,177.176025 L290.398682,178.005493 C290.160643,178.071411 289.918947,178.10437 289.673584,178.10437 C289.278074,178.097046 288.981446,177.951478 288.783691,177.667664 C288.585937,177.383849 288.509033,177.002078 288.552979,176.522339 L289.157227,172.841919 L288.108032,172.841919 L288.245361,172.056396 L289.294556,172.056396 L289.547241,170.617188 L290.536011,170.617188 Z" id="Full-payout" fill="#2A3052"></path>
                        <path d="M258.341614,98.8688965 L257.797791,102 L256.765076,102 L258.154846,94.0019531 L260.824524,94.0074463 C261.648503,94.0074463 262.283872,94.2262551 262.730652,94.6638794 C263.177431,95.1015037 263.36969,95.6828577 263.307434,96.407959 C263.241516,97.1733437 262.936648,97.7757546 262.392822,98.21521 C261.848996,98.6546653 261.132146,98.8743896 260.242249,98.8743896 L258.341614,98.8688965 Z M258.489929,98.0064697 L260.269714,98.0119629 C260.83002,98.0119629 261.28961,97.8709731 261.648499,97.5889893 C262.007387,97.3070054 262.217956,96.9151636 262.280212,96.4134521 C262.338806,95.9630104 262.245424,95.5977187 262.000061,95.3175659 C261.754698,95.0374132 261.397646,94.8900147 260.928894,94.8753662 L259.033752,94.869873 L258.489929,98.0064697 Z M267.185608,102 C267.159973,101.893798 267.147156,101.789429 267.147156,101.68689 L267.163635,101.373779 C266.617978,101.879153 266.039371,102.124512 265.427795,102.109863 C264.904111,102.102539 264.478395,101.93683 264.150635,101.612732 C263.822874,101.288634 263.673645,100.883059 263.702942,100.395996 C263.739563,99.7661101 264.015134,99.2744769 264.529663,98.9210815 C265.044192,98.5676862 265.72076,98.3909912 266.559387,98.3909912 L267.597595,98.3964844 L267.663513,97.9240723 C267.700134,97.5688459 267.631471,97.2877818 267.45752,97.0808716 C267.283568,96.8739614 267.022646,96.7668457 266.674744,96.7595215 C266.334166,96.7521972 266.03296,96.8355094 265.771118,97.0094604 C265.509276,97.1834115 265.34906,97.4132066 265.290466,97.6988525 L264.29071,97.7043457 C264.32367,97.3564436 264.459166,97.0479139 264.697205,96.7787476 C264.935243,96.5095812 265.241026,96.300843 265.614563,96.1525269 C265.9881,96.0042107 266.374449,95.9337158 266.773621,95.94104 C267.39252,95.9556885 267.874083,96.1433698 268.218323,96.5040894 C268.562563,96.8648089 268.707215,97.3436249 268.652283,97.9405518 L268.168884,100.884888 L268.141418,101.307861 C268.134094,101.509278 268.156067,101.708861 268.207336,101.906616 L268.19635,102 L267.185608,102 Z M265.625549,101.230957 C265.944154,101.238281 266.24536,101.162293 266.529175,101.002991 C266.81299,100.843688 267.057433,100.623048 267.262512,100.341064 L267.476746,99.1160889 L266.724182,99.1105957 C266.097958,99.1105957 265.618227,99.2094717 265.284973,99.4072266 C264.95172,99.6049815 264.763123,99.88513 264.719177,100.247681 C264.686218,100.526002 264.75122,100.757628 264.914185,100.942566 C265.077149,101.127503 265.314268,101.223633 265.625549,101.230957 Z M271.673523,100.500366 L273.788391,96.0563965 L274.887024,96.0563965 L271.360413,102.98877 C270.869687,103.951909 270.239811,104.427979 269.470764,104.416992 C269.335265,104.41333 269.135682,104.380371 268.872009,104.318115 L268.9599,103.494141 L269.218079,103.521606 C269.533022,103.536255 269.80493,103.46576 270.033813,103.31012 C270.262696,103.154479 270.465026,102.902712 270.640808,102.55481 L270.997864,101.873657 L269.970642,96.0563965 L271.00885,96.0563965 L271.673523,100.500366 Z M278.062073,95.9465332 C278.560122,95.9538575 278.986754,96.0893542 279.34198,96.3530273 C279.697206,96.6167005 279.95996,96.9801613 280.130249,97.4434204 C280.300538,97.9066796 280.358216,98.4129611 280.303284,98.9622803 L280.292297,99.0831299 C280.222717,99.6617461 280.0506,100.184507 279.77594,100.651428 C279.50128,101.11835 279.146059,101.48181 278.710266,101.741821 C278.274473,102.001832 277.796572,102.124512 277.27655,102.109863 C276.782163,102.102539 276.356447,101.967042 275.99939,101.703369 C275.642332,101.439696 275.38141,101.080813 275.216614,100.626709 C275.051818,100.172605 274.993225,99.6727322 275.040833,99.1270752 C275.095764,98.5118377 275.262389,97.9588648 275.54071,97.4681396 C275.819032,96.9774145 276.177,96.5974745 276.614624,96.3283081 C277.052248,96.0591417 277.534726,95.9318847 278.062073,95.9465332 Z M276.040588,99.1325684 C276.014953,99.3632824 276.014953,99.6031482 276.040588,99.8521729 C276.07721,100.284304 276.206298,100.628539 276.427856,100.884888 C276.649415,101.141237 276.945128,101.274902 277.315002,101.285889 C277.644594,101.296875 277.948546,101.215394 278.226868,101.041443 C278.505189,100.867492 278.739562,100.604738 278.929993,100.253174 C279.120423,99.9016096 279.243103,99.5115988 279.298035,99.0831299 C279.327332,98.7462141 279.332825,98.4624035 279.314514,98.2316895 C279.270569,97.788572 279.136903,97.4388441 278.913513,97.1824951 C278.690123,96.9261462 278.393496,96.7906495 278.023621,96.776001 C277.510923,96.7650146 277.075136,96.9664286 276.716248,97.380249 C276.357359,97.7940695 276.135804,98.3360562 276.051575,99.0062256 L276.040588,99.1325684 Z M284.813171,101.412231 C284.348081,101.89197 283.756656,102.124512 283.038879,102.109863 C282.47125,102.095215 282.051027,101.89197 281.778198,101.500122 C281.50537,101.108274 281.403747,100.573612 281.473328,99.8961182 L282.110535,96.0563965 L283.104797,96.0563965 L282.462097,99.9125977 C282.443787,100.073731 282.440124,100.2312 282.451111,100.38501 C282.469421,100.648683 282.548156,100.85559 282.687317,101.005737 C282.826478,101.155885 283.020568,101.23645 283.269592,101.247437 C283.980045,101.269409 284.529356,100.981937 284.917542,100.38501 L285.664612,96.0563965 L286.658875,96.0563965 L285.62616,102 L284.686829,102 L284.813171,101.412231 Z M289.735046,94.6171875 L289.482361,96.0563965 L290.564514,96.0563965 L290.427185,96.8419189 L289.350525,96.8419189 L288.729797,100.538818 C288.718811,100.634034 288.71698,100.721923 288.724304,100.80249 C288.749939,101.088136 288.905577,101.230957 289.191223,101.230957 C289.312073,101.230957 289.473205,101.212647 289.674622,101.176025 L289.597717,102.005493 C289.359679,102.071411 289.117982,102.10437 288.87262,102.10437 C288.47711,102.097046 288.180482,101.951478 287.982727,101.667664 C287.784972,101.383849 287.708069,101.002078 287.752014,100.522339 L288.356262,96.8419189 L287.307068,96.8419189 L287.444397,96.0563965 L288.493591,96.0563965 L288.746277,94.6171875 L289.735046,94.6171875 Z M275.625854,119 L270.533691,119 L270.654541,118.225464 L273.60437,115.358032 L274.1427,114.825195 C274.7616,114.206296 275.104004,113.635012 275.169922,113.111328 C275.21753,112.708494 275.138795,112.379823 274.933716,112.125305 C274.728637,111.870787 274.439333,111.736206 274.065796,111.721558 C273.586057,111.706909 273.18506,111.846983 272.862793,112.141785 C272.540526,112.436586 272.344605,112.840329 272.275024,113.353027 L271.291748,113.358521 C271.339356,112.867795 271.490416,112.432924 271.744934,112.053894 C271.999452,111.674864 272.334532,111.383729 272.750183,111.180481 C273.165835,110.977233 273.617185,110.881103 274.104248,110.89209 C274.767093,110.906738 275.293516,111.107237 275.683533,111.493591 C276.073549,111.879946 276.241089,112.380734 276.186157,112.995972 C276.123901,113.6991 275.719242,114.438839 274.972168,115.21521 L274.466797,115.726074 L271.895996,118.170532 L275.75769,118.170532 L275.625854,119 Z" id="Payout-2" fill="#2A3052"></path>
                        <path d="M257.5,106.5 L290.5,106.5" id="Line-2" stroke="#2A3052" stroke-width="1.5" stroke-linecap="square"></path>
                        <path d="M44.5106201,161.137573 L48.19104,161.137573 L48.0372314,162 L43.3240967,162 L44.7138672,154.001953 L45.7520752,154.001953 L44.5106201,161.137573 Z M52.3988037,155.946533 C52.8968531,155.953857 53.3234846,156.089354 53.6787109,156.353027 C54.0339373,156.616701 54.296691,156.980161 54.46698,157.44342 C54.6372689,157.90668 54.6949466,158.412961 54.6400146,158.96228 L54.6290283,159.08313 C54.5594479,159.661746 54.3873305,160.184507 54.1126709,160.651428 C53.8380113,161.11835 53.4827903,161.48181 53.0469971,161.741821 C52.6112039,162.001832 52.1333034,162.124512 51.6132812,162.109863 C51.118894,162.102539 50.6931781,161.967042 50.3361206,161.703369 C49.9790632,161.439696 49.7181405,161.080813 49.5533447,160.626709 C49.388549,160.172605 49.3299558,159.672732 49.3775635,159.127075 C49.4324954,158.511838 49.5991197,157.958865 49.8774414,157.46814 C50.1557631,156.977415 50.5137307,156.597474 50.951355,156.328308 C51.3889792,156.059142 51.8714573,155.931885 52.3988037,155.946533 Z M50.3773193,159.132568 C50.3516844,159.363282 50.3516844,159.603148 50.3773193,159.852173 C50.4139406,160.284304 50.5430287,160.628539 50.7645874,160.884888 C50.9861461,161.141237 51.2818585,161.274902 51.6517334,161.285889 C51.9813249,161.296875 52.2852769,161.215394 52.5635986,161.041443 C52.8419203,160.867492 53.076293,160.604738 53.2667236,160.253174 C53.4571543,159.90161 53.5798337,159.511599 53.6347656,159.08313 C53.6640626,158.746214 53.6695558,158.462403 53.6512451,158.231689 C53.6072996,157.788572 53.4736339,157.438844 53.2502441,157.182495 C53.0268544,156.926146 52.7302265,156.790649 52.3603516,156.776001 C51.8476537,156.765015 51.411867,156.966429 51.0529785,157.380249 C50.69409,157.794069 50.4725346,158.336056 50.3883057,159.006226 L50.3773193,159.132568 Z M60.7099609,160.59375 L62.6051025,156.056396 L63.6323242,156.056396 L60.9241943,162 L60.1166992,162 L59.5014648,157.506592 L57.3591309,162 L56.5516357,162 L55.9089355,156.056396 L56.8592529,156.056396 L57.2218018,160.483887 L59.3311768,156.056396 L60.1331787,156.056396 L60.7099609,160.59375 Z M66.5437012,162 L67.9334717,154.001953 L70.2790527,154.007446 C71.0957072,154.007446 71.7072734,154.19055 72.1137695,154.556763 C72.5202657,154.922975 72.6978762,155.433835 72.6466064,156.089355 C72.5806881,156.85474 72.0991256,157.431517 71.2019043,157.819702 C71.5607928,157.958863 71.8290396,158.196898 72.0066528,158.533813 C72.184266,158.870729 72.256592,159.24243 72.2236328,159.648926 C72.1687009,160.370365 71.8793971,160.942564 71.3557129,161.36554 C70.8320286,161.788515 70.1545452,162 69.3232422,162 L66.5437012,162 Z M68.2246094,158.259155 L67.7247314,161.137573 L69.3562012,161.143066 C69.8542505,161.143066 70.2717268,161.009401 70.6086426,160.742065 C70.9455583,160.47473 71.1414792,160.114016 71.1964111,159.659912 C71.2476809,159.227781 71.1726084,158.89087 70.9711914,158.64917 C70.7697744,158.407469 70.4530051,158.279297 70.020874,158.264648 L68.2246094,158.259155 Z M68.3729248,157.413208 L69.8615723,157.418701 C70.3266625,157.418701 70.7194198,157.299684 71.039856,157.061646 C71.3602921,156.823607 71.5479734,156.495852 71.6029053,156.078369 C71.6505129,155.690184 71.5745249,155.397218 71.374939,155.199463 C71.175353,155.001708 70.8448509,154.893677 70.3834229,154.875366 L68.8123779,154.869873 L68.3729248,157.413208 Z M76.8763428,162 C76.8507079,161.893798 76.8378906,161.789429 76.8378906,161.68689 L76.8543701,161.373779 C76.3087131,161.879153 75.7301056,162.124512 75.1185303,162.109863 C74.594846,162.102539 74.1691301,161.93683 73.8413696,161.612732 C73.5136092,161.288634 73.3643797,160.883059 73.3936768,160.395996 C73.430298,159.76611 73.705869,159.274477 74.2203979,158.921082 C74.7349269,158.567686 75.4114948,158.390991 76.2501221,158.390991 L77.2883301,158.396484 L77.354248,157.924072 C77.3908693,157.568846 77.3222055,157.287782 77.1482544,157.080872 C76.9743033,156.873961 76.7133806,156.766846 76.3654785,156.759521 C76.0249006,156.752197 75.7236952,156.835509 75.461853,157.00946 C75.2000109,157.183412 75.0397952,157.413207 74.9812012,157.698853 L73.9814453,157.704346 C74.0144045,157.356444 74.1499012,157.047914 74.3879395,156.778748 C74.6259778,156.509581 74.9317608,156.300843 75.3052979,156.152527 C75.6788349,156.004211 76.0651836,155.933716 76.4643555,155.94104 C77.083255,155.955689 77.5648176,156.14337 77.9090576,156.504089 C78.2532976,156.864809 78.3979495,157.343625 78.3430176,157.940552 L77.8596191,160.884888 L77.8321533,161.307861 C77.8248291,161.509278 77.8468015,161.708861 77.8980713,161.906616 L77.887085,162 L76.8763428,162 Z M75.3162842,161.230957 C75.6348893,161.238281 75.9360948,161.162293 76.2199097,161.002991 C76.5037246,160.843688 76.7481679,160.623048 76.9532471,160.341064 L77.1674805,159.116089 L76.414917,159.110596 C75.7886932,159.110596 75.3089616,159.209472 74.975708,159.407227 C74.6424544,159.604981 74.4538576,159.88513 74.4099121,160.247681 C74.376953,160.526002 74.4419548,160.757628 74.6049194,160.942566 C74.7678841,161.127503 75.0050033,161.223633 75.3162842,161.230957 Z M82.9298096,156.962769 L82.4628906,156.91333 C81.8256804,156.91333 81.3239764,157.200803 80.9577637,157.775757 L80.2271729,162 L79.2329102,162 L80.265625,156.056396 L81.2269287,156.050903 L81.0786133,156.743042 C81.499758,156.190061 81.9959688,155.920898 82.5672607,155.935547 C82.688111,155.935547 82.8455801,155.963012 83.0396729,156.017944 L82.9298096,156.962769 Z M86.6761475,156.962769 L86.2092285,156.91333 C85.5720183,156.91333 85.0703143,157.200803 84.7041016,157.775757 L83.9735107,162 L82.979248,162 L84.0119629,156.056396 L84.9732666,156.050903 L84.8249512,156.743042 C85.2460959,156.190061 85.7423067,155.920898 86.3135986,155.935547 C86.4344488,155.935547 86.591918,155.963012 86.7860107,156.017944 L86.6761475,156.962769 Z M87.8022461,162 L86.8134766,162 L87.8461914,156.056396 L88.8349609,156.056396 L87.8022461,162 Z M88.6207275,153.886597 C88.7891854,153.879272 88.9292597,153.929626 89.0409546,154.037659 C89.1526495,154.145691 89.2084961,154.287597 89.2084961,154.463379 C89.204834,154.635499 89.1489874,154.776489 89.0409546,154.886353 C88.9329218,154.996216 88.7928475,155.05481 88.6207275,155.062134 C88.4486075,155.069458 88.3076177,155.02002 88.1977539,154.913818 C88.0878901,154.807617 88.03479,154.668458 88.0384521,154.496338 C88.0421143,154.324218 88.0970454,154.181397 88.2032471,154.067871 C88.3094488,153.954345 88.4486075,153.893921 88.6207275,153.886597 Z M91.9990234,162.109863 C91.2592736,162.095215 90.6806661,161.82239 90.2631836,161.291382 C89.845701,160.760373 89.6699215,160.081059 89.7358398,159.253418 L89.7633057,159.017212 C89.8255618,158.427609 90.0004258,157.889285 90.2879028,157.402222 C90.5753799,156.915159 90.9260233,156.548036 91.3398438,156.300842 C91.7536642,156.053649 92.2004371,155.935547 92.6801758,155.946533 C93.2917511,155.961182 93.7714826,156.164427 94.1193848,156.556274 C94.4672869,156.948122 94.6577147,157.479123 94.6906738,158.149292 C94.7016602,158.38733 94.6943361,158.625365 94.6687012,158.863403 L94.6082764,159.319336 L90.7246094,159.319336 C90.6586911,159.857669 90.7474963,160.315428 90.9910278,160.692627 C91.2345593,161.069826 91.59802,161.265747 92.0814209,161.280396 C92.6673613,161.295044 93.2093481,161.031375 93.7073975,160.48938 L94.2786865,160.972778 C94.0296618,161.331667 93.708315,161.612731 93.3146362,161.815979 C92.9209575,162.019227 92.4824243,162.117188 91.9990234,162.109863 Z M92.6307373,156.776001 C92.220579,156.765015 91.8626114,156.904173 91.5568237,157.193481 C91.2510361,157.48279 91.0084237,157.913083 90.8289795,158.484375 L93.7183838,158.489868 L93.7403564,158.401978 C93.7989505,157.940549 93.7247935,157.556947 93.5178833,157.25116 C93.3109731,156.945372 93.0152607,156.786987 92.6307373,156.776001 Z M98.9588623,156.962769 L98.4919434,156.91333 C97.8547331,156.91333 97.3530292,157.200803 96.9868164,157.775757 L96.2562256,162 L95.2619629,162 L96.2946777,156.056396 L97.2559814,156.050903 L97.107666,156.743042 C97.5288107,156.190061 98.0250216,155.920898 98.5963135,155.935547 C98.7171637,155.935547 98.8746328,155.963012 99.0687256,156.017944 L98.9588623,156.962769 Z" id="Low-Barrier" fill="#2A3052"></path>
                        <g id="Group-2" opacity="0.6" transform="translate(237.000000, 47.000000)" fill="#FFFFFF" fill-rule="nonzero">
                            <ellipse id="Oval-3" cx="8.1375" cy="8.475" rx="8.1375" ry="8.475"></ellipse>
                        </g>
                        <g id="Group-2-Copy" opacity="0.6" transform="translate(237.000000, 99.000000)" fill="#FFFFFF" fill-rule="nonzero">
                            <ellipse id="Oval-3" cx="8.1375" cy="8.475" rx="8.1375" ry="8.475"></ellipse>
                        </g>
                        <g id="Group-2-Copy-2" opacity="0.6" transform="translate(238.000000, 152.000000)" fill="#FFFFFF" fill-rule="nonzero">
                            <ellipse id="Oval-3" cx="8.1375" cy="8.475" rx="8.1375" ry="8.475"></ellipse>
                        </g>
                        <ellipse id="Oval-4" stroke="#E88024" stroke-width="2.422125" cx="245.1375" cy="55.475" rx="8.1375" ry="8.475"></ellipse>
                        <ellipse id="Oval-4-Copy" stroke="#E88024" stroke-width="2.422125" cx="245.1375" cy="107.475" rx="8.1375" ry="8.475"></ellipse>
                        <ellipse id="Oval-4-Copy-2" stroke="#E88024" stroke-width="2.422125" cx="246.1375" cy="160.475" rx="8.1375" ry="8.475"></ellipse>
                    </g>
                </g>
            </g>
        </g>
    </g>
</svg>