<svg id="Layer_1" data-name="Layer 1" xmlns="http://www.w3.org/2000/svg" viewBox="0 0 80.483 53.461"><defs><style>.cls-1{fill:#f1f2f2;stroke-width:.656px}.cls-1,.cls-5{stroke:#c2c2c2}.cls-1,.cls-11,.cls-12,.cls-2,.cls-5{stroke-miterlimit:10}.cls-11,.cls-12,.cls-2,.cls-3,.cls-4,.cls-5,.cls-8{fill:none}.cls-2{stroke:#dfdede}.cls-2,.cls-3,.cls-4{stroke-width:.328px}.cls-3{stroke:#e98024;stroke-dasharray:1.65;stroke-linejoin:round}.cls-4,.cls-8{stroke-linejoin:round;stroke:#2a3052}.cls-5{stroke-width:.656px}.cls-6{fill:#293052}.cls-7{fill:#6d6e70}.cls-8{stroke-linecap:round;stroke-width:.984px}.cls-9{opacity:.6}.cls-10{fill:#fff}.cls-11,.cls-12{stroke:#e88024;stroke-width:.643px}.cls-13{fill:#e88024}</style></defs><title>reset-put</title><path class="cls-1" d="M.328.328h79.827v52.805H.328z"/><path class="cls-2" d="M1.059 14.91h78.7M1.059 25.928h78.7M1.059 36.946h78.7M1.059 47.954h78.7M10.564 9.406v43.402M20.526 9.406v43.402M30.478 9.406v43.402"/><path class="cls-3" d="M40.44 9.406v43.402"/><path class="cls-2" d="M50.391 9.406v43.402M60.343 9.406v43.402M1.059 31.432h78.7"/><path class="cls-4" d="M70.305 9.406v43.402M1.059 20.424h78.7"/><path class="cls-3" d="M1.059 42.45h78.7"/><path class="cls-5" d="M.49 9.081h79.838"/><path d="M5.55 4.894v1.093H5V3.25h1.033a1.134 1.134 0 0 1 .732.213.722.722 0 0 1 .265.6.609.609 0 0 1-.111.364.765.765 0 0 1-.325.246.594.594 0 0 1 .348.239.755.755 0 0 1 .107.413v.2a1.024 1.024 0 0 0 .03.24.333.333 0 0 0 .107.185v.039H6.62a.309.309 0 0 1-.1-.2 1.688 1.688 0 0 1-.02-.269v-.195a.433.433 0 0 0-.112-.318.418.418 0 0 0-.314-.113zm0-.424h.474a.515.515 0 0 0 .345-.1.357.357 0 0 0 .114-.289.4.4 0 0 0-.114-.3.463.463 0 0 0-.336-.111H5.55zM8.4 6.026a.915.915 0 0 1-.7-.281 1.008 1.008 0 0 1-.264-.717v-.075a1.107 1.107 0 0 1 .25-.746.83.83 0 0 1 .668-.292.82.82 0 0 1 .639.249.952.952 0 0 1 .228.671v.3H8.005v.011a.528.528 0 0 0 .135.33.421.421 0 0 0 .32.124 1.035 1.035 0 0 0 .3-.037 1.343 1.343 0 0 0 .263-.116l.149.34a1.037 1.037 0 0 1-.326.169 1.4 1.4 0 0 1-.446.07zm-.047-1.687a.283.283 0 0 0-.24.116.6.6 0 0 0-.113.307l.006.009h.673v-.049a.444.444 0 0 0-.082-.28.3.3 0 0 0-.244-.103zM10.639 5.427a.189.189 0 0 0-.087-.155.908.908 0 0 0-.325-.118 1.308 1.308 0 0 1-.544-.216.473.473 0 0 1-.183-.393.561.561 0 0 1 .221-.445.9.9 0 0 1 .591-.184.971.971 0 0 1 .619.183.54.54 0 0 1 .222.461v.01h-.531a.268.268 0 0 0-.077-.2.315.315 0 0 0-.229-.077.321.321 0 0 0-.21.065.208.208 0 0 0-.076.163.185.185 0 0 0 .08.154.873.873 0 0 0 .324.107 1.318 1.318 0 0 1 .555.218.485.485 0 0 1 .182.4.534.534 0 0 1-.235.449 1.015 1.015 0 0 1-.62.173.943.943 0 0 1-.642-.205.576.576 0 0 1-.225-.469v-.011h.5a.285.285 0 0 0 .107.236.442.442 0 0 0 .265.073.382.382 0 0 0 .232-.059.193.193 0 0 0 .086-.16zM12.426 6.026a.917.917 0 0 1-.7-.281 1.011 1.011 0 0 1-.263-.717v-.075a1.111 1.111 0 0 1 .249-.746.927.927 0 0 1 1.308-.043.957.957 0 0 1 .227.671v.3h-1.218v.011a.533.533 0 0 0 .134.33.422.422 0 0 0 .325.129 1.032 1.032 0 0 0 .3-.037 1.375 1.375 0 0 0 .264-.116l.148.34a1.042 1.042 0 0 1-.325.169 1.4 1.4 0 0 1-.449.065zm-.05-1.687a.284.284 0 0 0-.24.116.61.61 0 0 0-.109.307l.005.009h.673v-.049a.45.45 0 0 0-.081-.28.3.3 0 0 0-.248-.103zM14.215 3.455v.5h.342v.386h-.342v1.033a.245.245 0 0 0 .049.17.179.179 0 0 0 .136.056.517.517 0 0 0 .074 0 .557.557 0 0 0 .072-.017l.048.4a1.385 1.385 0 0 1-.162.042.928.928 0 0 1-.171.013.583.583 0 0 1-.437-.155.686.686 0 0 1-.154-.5V4.339h-.3v-.386h.3v-.5zM16.46 4.994v.993h-.549V3.25H17a1.079 1.079 0 0 1 .742.24.807.807 0 0 1 .271.634.8.8 0 0 1-.271.632 1.083 1.083 0 0 1-.742.238zm0-.423H17a.452.452 0 0 0 .347-.125.443.443 0 0 0 .119-.318.462.462 0 0 0-.116-.328.446.446 0 0 0-.35-.127h-.54zM19.616 5.694a.681.681 0 0 1-.238.247.71.71 0 0 1-.836-.12.948.948 0 0 1-.181-.64V3.953h.547v1.235a.529.529 0 0 0 .075.319.265.265 0 0 0 .222.1.544.544 0 0 0 .225-.042.4.4 0 0 0 .155-.125V3.953h.549v2.034h-.469zM21.2 3.455v.5h.343v.386H21.2v1.033a.245.245 0 0 0 .049.17.179.179 0 0 0 .132.051.506.506 0 0 0 .074 0 .568.568 0 0 0 .073-.017l.047.4a1.29 1.29 0 0 1-.162.042.914.914 0 0 1-.171.013.585.585 0 0 1-.437-.155.686.686 0 0 1-.153-.5V4.339h-.3v-.386h.3v-.5z"/><path class="cls-6" d="M7.705 47.772a.417.417 0 0 0-.145-.323 1.22 1.22 0 0 0-.514-.217 1.709 1.709 0 0 1-.7-.315.647.647 0 0 1-.246-.517.681.681 0 0 1 .27-.55 1.065 1.065 0 0 1 .7-.222 1.042 1.042 0 0 1 .736.254.749.749 0 0 1 .264.588v.012H7.7a.524.524 0 0 0-.163-.4.661.661 0 0 0-.469-.153.654.654 0 0 0-.436.129.419.419 0 0 0-.152.335.369.369 0 0 0 .164.306 1.546 1.546 0 0 0 .534.216 1.519 1.519 0 0 1 .677.325.7.7 0 0 1 .232.532.651.651 0 0 1-.279.548 1.191 1.191 0 0 1-.727.207 1.265 1.265 0 0 1-.745-.23.689.689 0 0 1-.314-.612v-.012h.363a.472.472 0 0 0 .2.412.835.835 0 0 0 .493.142.772.772 0 0 0 .457-.121.386.386 0 0 0 .17-.334zM9.072 45.884v.5h.4v.283h-.4v1.271a.286.286 0 0 0 .061.206.22.22 0 0 0 .161.06.4.4 0 0 0 .073-.008.43.43 0 0 0 .071-.019l.05.261a.347.347 0 0 1-.125.057.625.625 0 0 1-.165.023.494.494 0 0 1-.37-.141.611.611 0 0 1-.137-.439v-1.267h-.332v-.283h.332v-.5zM11.224 48.481c-.012-.064-.023-.12-.029-.167a1.042 1.042 0 0 1-.013-.147.9.9 0 0 1-.277.253.723.723 0 0 1-.369.1.686.686 0 0 1-.5-.168.616.616 0 0 1-.171-.461.538.538 0 0 1 .243-.469 1.129 1.129 0 0 1 .658-.169h.414v-.207a.385.385 0 0 0-.112-.291.439.439 0 0 0-.317-.107.461.461 0 0 0-.3.093.282.282 0 0 0-.115.225h-.361v-.011a.508.508 0 0 1 .216-.418.886.886 0 0 1 .587-.189.865.865 0 0 1 .572.18.642.642 0 0 1 .217.522v1.007a2.138 2.138 0 0 0 .011.216 1.126 1.126 0 0 0 .043.206zm-.632-.281a.676.676 0 0 0 .373-.106.506.506 0 0 0 .217-.243v-.339h-.427a.556.556 0 0 0-.369.115.347.347 0 0 0-.138.273.283.283 0 0 0 .087.219.365.365 0 0 0 .257.081zM13.106 46.725l-.2-.012a.442.442 0 0 0-.254.071.464.464 0 0 0-.159.2v1.5h-.382v-2.096h.341l.037.3a.715.715 0 0 1 .219-.252.512.512 0 0 1 .3-.091.428.428 0 0 1 .081.007.293.293 0 0 1 .064.014zM14.009 45.884v.5h.4v.283h-.4v1.271a.282.282 0 0 0 .061.206.218.218 0 0 0 .161.06.386.386 0 0 0 .069-.004.4.4 0 0 0 .071-.019l.051.261a.356.356 0 0 1-.125.057.627.627 0 0 1-.166.023.491.491 0 0 1-.369-.141.611.611 0 0 1-.137-.439v-1.271H13.3v-.283h.333v-.5zM74.422 38.678h-1.29v1.006h1.487v.3h-1.868v-2.816H74.6v.3h-1.468v.91h1.29zM75.334 37.891l.028.311a.766.766 0 0 1 .261-.258.7.7 0 0 1 .359-.091.678.678 0 0 1 .524.2.868.868 0 0 1 .186.612v1.32h-.381V38.67a.57.57 0 0 0-.109-.393.439.439 0 0 0-.334-.115.544.544 0 0 0-.291.079.579.579 0 0 0-.2.217v1.525h-.381v-2.092zM77.158 38.976a1.4 1.4 0 0 1 .216-.814.691.691 0 0 1 .6-.309.754.754 0 0 1 .326.067.677.677 0 0 1 .243.2v-1.15h.381v3.016h-.312l-.044-.256a.673.673 0 0 1-.252.221.745.745 0 0 1-.346.077.715.715 0 0 1-.6-.279 1.146 1.146 0 0 1-.217-.729zm.381.041a.886.886 0 0 0 .13.508.453.453 0 0 0 .4.19.509.509 0 0 0 .286-.077.594.594 0 0 0 .19-.217v-.977a.6.6 0 0 0-.191-.206.512.512 0 0 0-.282-.076.433.433 0 0 0-.4.226 1.156 1.156 0 0 0-.131.588z"/><path class="cls-7" d="M23.788 16.111l-.2 1.017h-.312l.468-2.345h.8a.663.663 0 0 1 .5.174.529.529 0 0 1 .1.493.7.7 0 0 1-.154.326.788.788 0 0 1-.3.207.369.369 0 0 1 .214.208.6.6 0 0 1 .018.339l-.044.221a.739.739 0 0 0-.018.2.259.259 0 0 0 .05.139l-.008.039h-.321a.219.219 0 0 1-.043-.159 1.384 1.384 0 0 1 .029-.221l.044-.215a.4.4 0 0 0-.036-.311.274.274 0 0 0-.245-.111zm.05-.25h.455a.579.579 0 0 0 .362-.105.509.509 0 0 0 .178-.308.379.379 0 0 0-.039-.312.37.37 0 0 0-.3-.1H24zM25.969 17.162a.568.568 0 0 1-.5-.244.844.844 0 0 1-.107-.628l.011-.071a1.09 1.09 0 0 1 .306-.627.741.741 0 0 1 .528-.239.5.5 0 0 1 .459.214.8.8 0 0 1 .084.567l-.032.2h-1.049a.69.69 0 0 0 .049.423.3.3 0 0 0 .289.157.762.762 0 0 0 .482-.172l.088.207a.781.781 0 0 1-.251.154.953.953 0 0 1-.357.059zm.2-1.56a.363.363 0 0 0-.262.135.788.788 0 0 0-.181.335v.01h.717l.006-.042a.489.489 0 0 0-.037-.316.259.259 0 0 0-.242-.124zM27.951 16.665a.2.2 0 0 0-.044-.174.545.545 0 0 0-.254-.116.959.959 0 0 1-.418-.188.33.33 0 0 1-.1-.323.559.559 0 0 1 .227-.366.739.739 0 0 1 .465-.145.549.549 0 0 1 .423.157.413.413 0 0 1 .106.379v.01h-.3a.249.249 0 0 0-.056-.207.253.253 0 0 0-.212-.09.359.359 0 0 0-.236.075.29.29 0 0 0-.106.179.181.181 0 0 0 .038.165.585.585 0 0 0 .252.105.955.955 0 0 1 .429.192.346.346 0 0 1 .1.326.556.556 0 0 1-.235.379.821.821 0 0 1-.484.139.59.59 0 0 1-.457-.171.424.424 0 0 1-.113-.393v-.01h.3a.256.256 0 0 0 .073.246.353.353 0 0 0 .235.078.425.425 0 0 0 .247-.069.262.262 0 0 0 .12-.178zM29.241 17.162a.567.567 0 0 1-.5-.244.839.839 0 0 1-.107-.628l.011-.071a1.09 1.09 0 0 1 .306-.627.739.739 0 0 1 .528-.239.5.5 0 0 1 .459.214.8.8 0 0 1 .084.567l-.033.2h-1.05a.69.69 0 0 0 .049.423.3.3 0 0 0 .289.157.762.762 0 0 0 .482-.172l.088.207a.781.781 0 0 1-.251.154.955.955 0 0 1-.355.059zm.2-1.56a.363.363 0 0 0-.262.135.778.778 0 0 0-.181.335v.01h.716l.007-.042a.489.489 0 0 0-.037-.316.259.259 0 0 0-.241-.124zM31.032 14.964l-.085.421h.3l-.047.234h-.3l-.211 1.06a.229.229 0 0 0 .008.176.133.133 0 0 0 .114.045.632.632 0 0 0 .09-.006.684.684 0 0 0 .083-.016v.218a.446.446 0 0 1-.133.048.9.9 0 0 1-.17.018.307.307 0 0 1-.26-.119.446.446 0 0 1-.041-.364l.211-1.06h-.255l.047-.234h.255l.085-.421zM34.025 15.031h-.7l-.419 2.1H32.6l.419-2.1h-.693l.05-.25h1.7zM34.217 17.128h-.311l.348-1.743h.311zm.438-2.19h-.311l.064-.324h.311zM35.286 15.592a.68.68 0 0 1 .531-.239.361.361 0 0 1 .38.313.753.753 0 0 1 .245-.23.6.6 0 0 1 .313-.083.376.376 0 0 1 .344.185.765.765 0 0 1 .044.547l-.208 1.043h-.313l.21-1.046a.622.622 0 0 0 0-.375.235.235 0 0 0-.221-.1.354.354 0 0 0-.25.117.7.7 0 0 0-.171.286v.008l-.221 1.107h-.313l.21-1.046a.587.587 0 0 0-.007-.367.227.227 0 0 0-.219-.105.4.4 0 0 0-.219.062.548.548 0 0 0-.166.172l-.258 1.284h-.311l.348-1.743h.277zM38.074 17.162a.567.567 0 0 1-.5-.244.839.839 0 0 1-.107-.628l.011-.071a1.09 1.09 0 0 1 .306-.627.739.739 0 0 1 .528-.239.5.5 0 0 1 .459.214.8.8 0 0 1 .084.567l-.033.2h-1.05a.69.69 0 0 0 .049.423.3.3 0 0 0 .289.157.762.762 0 0 0 .482-.172l.088.207a.781.781 0 0 1-.251.154.955.955 0 0 1-.355.059zm.2-1.56a.363.363 0 0 0-.262.135.778.778 0 0 0-.181.335l.005.01h.716l.007-.042a.489.489 0 0 0-.037-.316.259.259 0 0 0-.246-.124z"/><path class="cls-8" d="M10.398 42.116L21.67 31.527l10.754 2.613 7.819-14.026 9.982 8.388 9.952-.55 9.962 6.008"/><g class="cls-9"><circle class="cls-10" cx="70.139" cy="33.584" r="2.204"/></g><circle class="cls-11" cx="70.139" cy="33.584" r="2.204"/><g class="cls-9"><circle class="cls-10" cx="10.398" cy="42.158" r="2.204"/></g><circle class="cls-12" cx="10.398" cy="42.158" r="2.204"/><g class="cls-9"><circle class="cls-10" cx="40.101" cy="20.431" r="2.204"/></g><circle class="cls-12" cx="40.101" cy="20.431" r="2.204"/><path class="cls-7" d="M72.965 22.77h-.637l-.384 1.922h-.285l.384-1.922h-.635l.046-.229h1.557zM73.576 24.692v-.12c0-.031.006-.062.011-.094a.92.92 0 0 1-.227.174.527.527 0 0 1-.256.071.388.388 0 0 1-.323-.131.408.408 0 0 1-.059-.35.531.531 0 0 1 .241-.365.911.911 0 0 1 .494-.122h.273l.031-.158a.273.273 0 0 0-.032-.227.251.251 0 0 0-.207-.077.377.377 0 0 0-.225.072.284.284 0 0 0-.12.171h-.27v-.009a.5.5 0 0 1 .222-.324.756.756 0 0 1 .458-.139.5.5 0 0 1 .376.141.418.418 0 0 1 .088.4l-.154.769a1.511 1.511 0 0 0-.027.167.813.813 0 0 0 0 .156zm-.378-.213a.5.5 0 0 0 .244-.07.56.56 0 0 0 .192-.164l.059-.294h-.282a.425.425 0 0 0-.263.09.349.349 0 0 0-.139.207.2.2 0 0 0 .023.172.2.2 0 0 0 .168.059zM75.223 23.351l-.156-.01a.309.309 0 0 0-.18.056.48.48 0 0 0-.142.156l-.228 1.139h-.285l.32-1.6h.255l-.018.215a.652.652 0 0 1 .187-.181.426.426 0 0 1 .224-.063h.064a.324.324 0 0 1 .051.012zM75.309 23.893a1.323 1.323 0 0 1 .264-.62.587.587 0 0 1 .465-.209.484.484 0 0 1 .235.057.435.435 0 0 1 .166.164l.062-.192h.243l-.315 1.578a.831.831 0 0 1-.267.5.778.778 0 0 1-.519.168.921.921 0 0 1-.224-.032.716.716 0 0 1-.2-.086l.116-.226a.506.506 0 0 0 .16.072.75.75 0 0 0 .2.027.413.413 0 0 0 .3-.111.57.57 0 0 0 .157-.31l.023-.109a.61.61 0 0 1-.187.12.583.583 0 0 1-.218.041.426.426 0 0 1-.391-.232.794.794 0 0 1-.066-.568zm.28.03a.638.638 0 0 0 .022.408.27.27 0 0 0 .269.155.325.325 0 0 0 .19-.06.6.6 0 0 0 .155-.17l.149-.745a.348.348 0 0 0-.118-.153.314.314 0 0 0-.193-.058.358.358 0 0 0-.3.162 1.062 1.062 0 0 0-.171.431zM77.468 24.723a.519.519 0 0 1-.456-.224.767.767 0 0 1-.1-.576l.01-.065a1.01 1.01 0 0 1 .28-.575.682.682 0 0 1 .484-.219.462.462 0 0 1 .421.2.728.728 0 0 1 .077.518l-.03.183h-.963a.635.635 0 0 0 .045.388.277.277 0 0 0 .265.143.656.656 0 0 0 .244-.043.685.685 0 0 0 .2-.114l.081.189a.712.712 0 0 1-.23.141.87.87 0 0 1-.328.054zm.184-1.43a.333.333 0 0 0-.24.124.724.724 0 0 0-.166.307l.005.009h.657l.006-.039a.454.454 0 0 0-.034-.29.238.238 0 0 0-.228-.111zM79.109 22.708l-.078.385h.276l-.043.216h-.276l-.194.97a.217.217 0 0 0 .008.163.127.127 0 0 0 .1.041.7.7 0 0 0 .082-.006c.032 0 .057-.009.076-.014v.2a.38.38 0 0 1-.122.043.7.7 0 0 1-.156.018.281.281 0 0 1-.238-.11.41.41 0 0 1-.038-.334l.194-.97h-.23l.042-.216h.233l.079-.385z"/><path class="cls-13" d="M71.058 41.321H60.616L59.131 39.1l-1.485 2.222H47.2a1.3 1.3 0 0 0-1.3 1.3v6.715a1.3 1.3 0 0 0 1.3 1.3h23.858a1.3 1.3 0 0 0 1.3-1.3v-6.716a1.3 1.3 0 0 0-1.3-1.3z"/><path class="cls-10" d="M56.945 46.983h.017l.593-2.851h.814L57.4 48.29h-.774l-.763-2.745h-.017l-.763 2.745h-.774l-.974-4.158h.817l.6 2.848h.017l.78-2.851h.614zM59.646 44.46h-.834v-.625h.834zm0 3.83h-.834V45.2h.834zM61.1 45.2l.037.443a1.1 1.1 0 0 1 .379-.368.985.985 0 0 1 .506-.132.93.93 0 0 1 .731.294 1.359 1.359 0 0 1 .263.922v1.931h-.837v-1.932a.624.624 0 0 0-.126-.442.5.5 0 0 0-.379-.131.644.644 0 0 0-.3.068.614.614 0 0 0-.219.19v2.247h-.834V45.2zM64.53 46.857h-.83v-2.725h.834zm0 1.433h-.83v-.731h.834z"/></svg>