<svg id="Layer_1" data-name="Layer 1" xmlns="http://www.w3.org/2000/svg" viewBox="0 0 80.48 53.46"><defs><style>.cls-1{fill:#f1f2f2;stroke-width:.66px}.cls-1,.cls-7{stroke:#c2c2c2}.cls-1,.cls-11,.cls-12,.cls-2,.cls-7{stroke-miterlimit:10}.cls-11,.cls-12,.cls-2,.cls-3,.cls-4,.cls-5,.cls-6,.cls-7,.cls-8{fill:none}.cls-2{stroke:#dfdede}.cls-2,.cls-4{stroke-width:.33px}.cls-3,.cls-5,.cls-6{stroke:#e98024;stroke-width:.33px}.cls-3,.cls-4,.cls-5,.cls-6,.cls-8{stroke-linejoin:round}.cls-3{stroke-dasharray:1.65}.cls-4,.cls-8{stroke:#2a3052}.cls-6{stroke-dasharray:1.64 1.64}.cls-7{stroke-width:.66px}.cls-8{stroke-linecap:round;stroke-width:.98px}.cls-9{opacity:.6}.cls-10,.cls-22{fill:#fff}.cls-11,.cls-12{stroke:#e88024;stroke-width:.64px}.cls-13{font-size:3.85px}.cls-13,.cls-22{font-family:Roboto-Bold,Roboto;font-weight:700}.cls-14{font-size:3.96px;fill:#293052;font-family:Roboto-Regular,Roboto}.cls-15{letter-spacing:.01em}.cls-16,.cls-17{font-size:3.3px;fill:#6d6e70;font-family:Roboto-Italic,Roboto;font-style:italic}.cls-17{font-size:3.03px}.cls-18{letter-spacing:-.06em}.cls-19{letter-spacing:0}.cls-20{letter-spacing:-.01em}.cls-21{fill:#e88024}.cls-22{font-size:5.85px}</style></defs><title>reset-call</title><path class="cls-1" d="M.33.33h79.83v52.81H.33z"/><path class="cls-2" d="M1.06 14.91h78.7M1.06 25.93h78.7M1.06 36.95h78.7M1.06 47.95h78.7M10.56 9.41v43.4M20.53 9.41v43.4M30.48 9.41v43.4"/><path class="cls-3" d="M40.44 9.41v43.4"/><path class="cls-2" d="M50.39 9.41v43.4M60.34 9.41v43.4M1.06 31.43h78.7"/><path class="cls-4" d="M70.31 9.41v43.4"/><path class="cls-5" d="M1.06 20.42h.82"/><path class="cls-6" d="M3.52 20.42h74.59"/><path class="cls-5" d="M78.93 20.42h.83"/><path class="cls-4" d="M1.06 42.45h78.7"/><path class="cls-7" d="M.49 9.08h79.84"/><path class="cls-8" d="M10.56 20.47l11.28 10.59 10.75-2.61 7.82 14.03 9.98-8.39 9.95.55 9.97-6.01"/><g class="cls-9"><circle class="cls-10" cx="70.31" cy="29.01" r="2.2"/></g><circle class="cls-11" cx="70.31" cy="29.01" r="2.2"/><g class="cls-9"><circle class="cls-10" cx="10.56" cy="20.43" r="2.2"/></g><circle class="cls-12" cx="10.56" cy="20.43" r="2.2"/><g class="cls-9"><circle class="cls-10" cx="40.27" cy="42.16" r="2.2"/></g><circle class="cls-12" cx="40.27" cy="42.16" r="2.2"/><text class="cls-13" transform="translate(4.75 5.99)">Reset Call</text><text class="cls-14" transform="translate(6.92 16.44)">Sta<tspan class="cls-15" x="6.02" y="0">r</tspan><tspan x="7.41" y="0">t</tspan></text><text class="cls-14" transform="translate(71.72 24.72)">End</text><text class="cls-16" transform="translate(23.55 48.48)">Reset Time</text><text class="cls-17" transform="translate(70.99 39.96)"><tspan class="cls-18">T</tspan><tspan class="cls-19" x="1.49" y="0">a</tspan><tspan class="cls-20" x="3.06" y="0">r</tspan><tspan x="4.03" y="0">get</tspan></text><path class="cls-21" d="M70.4 41.32H60l-1.53-2.22L57 41.32H46.54a1.3 1.3 0 0 0-1.3 1.3v6.72a1.31 1.31 0 0 0 1.3 1.3H70.4a1.3 1.3 0 0 0 1.3-1.3v-6.72a1.3 1.3 0 0 0-1.3-1.3z"/><text class="cls-22" transform="translate(52.66 48.29)">Win!</text></svg>