<?xml version="1.0" encoding="utf-8"?>
<!-- Generator: Adobe Illustrator 19.1.0, SVG Export Plug-In . SVG Version: 6.00 Build 0)  -->
<svg version="1.1" id="Layer_1" xmlns="http://www.w3.org/2000/svg" xmlns:xlink="http://www.w3.org/1999/xlink" x="0" y="0"
	 viewBox="0 2.35 79.31 52.65" style="enable-background:new 0 2.35 79.31 52.65;" xml:space="preserve">
<style type="text/css">
	.st0{fill:#F1F2F2;stroke:#C2C2C2;stroke-width:0.6461;stroke-miterlimit:10;}
	.st1{fill:none;stroke:#DFDEDE;stroke-width:0.323;stroke-miterlimit:10;}
	.st2{fill:none;stroke:#2A3052;stroke-width:0.323;stroke-linejoin:round;stroke-miterlimit:10;}
	.st3{fill:none;stroke:#C2C2C2;stroke-width:0.6461;stroke-miterlimit:10;}
	.st4{fill:none;stroke:#2A3052;stroke-width:0.9691;stroke-linecap:round;stroke-linejoin:round;stroke-miterlimit:10;}
	.st5{fill:#2A3052;}
	.st6{fill:#E88024;}
	.st7{fill:#6D6E71;}
	.st8{fill:#FFFFFF;}
	.st9{opacity:0.6;}
	.st10{fill:none;stroke:#E88024;stroke-width:0.6461;stroke-miterlimit:10;}
</style>
<g>
	<rect x="0.32" y="2.67" class="st0" width="78.67" height="52"/>
	<g>
		<line class="st1" x1="1.05" y1="17.03" x2="78.59" y2="17.03"/>
		<line class="st1" x1="1.05" y1="22.46" x2="78.59" y2="22.46"/>
		<line class="st1" x1="1.05" y1="27.88" x2="78.59" y2="27.88"/>
		<line class="st1" x1="1.05" y1="38.73" x2="78.59" y2="38.73"/>
		<line class="st1" x1="1.05" y1="44.15" x2="78.59" y2="44.15"/>
		<line class="st1" x1="1.05" y1="49.57" x2="78.59" y2="49.57"/>
		<line class="st1" x1="10.41" y1="11.61" x2="10.41" y2="54.35"/>
		<line class="st1" x1="20.22" y1="11.61" x2="20.22" y2="54.35"/>
		<line class="st1" x1="30.03" y1="11.61" x2="30.03" y2="54.35"/>
		<line class="st1" x1="39.84" y1="11.61" x2="39.84" y2="54.35"/>
		<line class="st1" x1="49.65" y1="11.61" x2="49.65" y2="54.35"/>
		<line class="st1" x1="59.46" y1="11.61" x2="59.46" y2="54.35"/>
		<line class="st1" x1="69.27" y1="11.61" x2="69.27" y2="54.35"/>
		<line class="st2" x1="1.05" y1="33.3" x2="78.59" y2="33.3"/>
	</g>
	<line class="st3" x1="0.48" y1="11.29" x2="79.15" y2="11.29"/>
	<g>
		<path d="M5.22,7.33v1.11H4.67V5.67H5.7c0.31,0,0.56,0.07,0.73,0.22S6.7,6.23,6.7,6.49c0,0.14-0.04,0.27-0.11,0.37
			S6.41,7.05,6.26,7.11c0.17,0.05,0.28,0.13,0.36,0.24C6.69,7.46,6.73,7.6,6.73,7.77v0.2c0,0.08,0.01,0.16,0.03,0.24
			S6.82,8.36,6.87,8.4v0.04H6.29c-0.05-0.04-0.08-0.11-0.1-0.2C6.17,8.15,6.17,8.05,6.17,7.97v-0.2c0-0.14-0.04-0.25-0.11-0.32
			C5.99,7.37,5.88,7.33,5.75,7.33H5.22z M5.22,6.91H5.7c0.15,0,0.27-0.03,0.35-0.1c0.08-0.07,0.11-0.16,0.11-0.29
			s-0.04-0.23-0.11-0.3C5.97,6.14,5.85,6.1,5.71,6.1H5.22V6.91z"/>
		<path d="M7.75,5.89H7.2V5.47h0.55V5.89z M7.75,8.44H7.2V6.38h0.55V8.44z"/>
		<path d="M9.31,7.87c0-0.06-0.03-0.11-0.09-0.16C9.16,7.67,9.05,7.63,8.89,7.6C8.65,7.55,8.47,7.48,8.35,7.38s-0.18-0.23-0.18-0.4
			c0-0.18,0.07-0.33,0.22-0.45c0.15-0.12,0.34-0.19,0.59-0.19c0.26,0,0.47,0.06,0.62,0.19c0.15,0.12,0.22,0.28,0.22,0.46V7H9.28
			c0-0.08-0.03-0.15-0.08-0.2C9.15,6.75,9.08,6.73,8.98,6.73c-0.09,0-0.16,0.02-0.21,0.07C8.72,6.84,8.69,6.9,8.69,6.96
			s0.03,0.12,0.08,0.16s0.16,0.07,0.33,0.1c0.25,0.05,0.43,0.13,0.55,0.22c0.12,0.1,0.18,0.23,0.18,0.41c0,0.19-0.08,0.34-0.24,0.45
			C9.45,8.42,9.24,8.48,8.98,8.48c-0.27,0-0.49-0.07-0.64-0.21s-0.23-0.3-0.22-0.48V7.78h0.5c0,0.11,0.04,0.19,0.11,0.24
			C8.8,8.07,8.89,8.09,9,8.09c0.1,0,0.18-0.02,0.23-0.06C9.28,7.99,9.31,7.94,9.31,7.87z"/>
		<path d="M11.09,8.48c-0.29,0-0.53-0.1-0.7-0.29C10.22,8,10.13,7.76,10.13,7.46V7.39c0-0.31,0.08-0.56,0.25-0.76
			c0.17-0.2,0.39-0.3,0.67-0.3c0.27,0,0.49,0.08,0.64,0.25s0.23,0.39,0.23,0.68v0.3H10.7v0.01c0.01,0.14,0.06,0.25,0.13,0.33
			c0.08,0.09,0.19,0.13,0.32,0.13c0.12,0,0.22-0.01,0.3-0.04c0.08-0.02,0.17-0.06,0.26-0.12l0.15,0.34
			c-0.08,0.07-0.19,0.13-0.33,0.17C11.39,8.42,11.26,8.48,11.09,8.48z M11.04,6.77c-0.1,0-0.18,0.04-0.24,0.12
			c-0.06,0.08-0.1,0.18-0.11,0.31l0.01,0.01h0.67V7.16c0-0.12-0.03-0.21-0.08-0.28C11.24,6.81,11.15,6.77,11.04,6.77z"/>
		<path d="M13.33,7.87c0-0.06-0.03-0.11-0.09-0.16c-0.06-0.04-0.17-0.08-0.32-0.12c-0.24-0.05-0.42-0.12-0.54-0.22
			s-0.18-0.23-0.18-0.4c0-0.18,0.07-0.33,0.22-0.45c0.15-0.12,0.34-0.19,0.59-0.19c0.26,0,0.47,0.06,0.62,0.19
			c0.15,0.12,0.23,0.28,0.22,0.47V7h-0.53c0-0.08-0.03-0.15-0.08-0.2C13.18,6.75,13.1,6.73,13,6.73c-0.09,0-0.16,0.02-0.21,0.07
			c-0.05,0.04-0.08,0.1-0.08,0.16s0.03,0.12,0.08,0.16s0.16,0.08,0.32,0.11c0.25,0.05,0.44,0.13,0.56,0.22
			c0.12,0.1,0.18,0.23,0.18,0.41c0,0.19-0.08,0.34-0.24,0.45c-0.16,0.12-0.36,0.18-0.62,0.18c-0.27,0-0.49-0.07-0.64-0.21
			s-0.23-0.3-0.22-0.48V7.79h0.5c0,0.11,0.04,0.19,0.11,0.24c0.07,0.05,0.16,0.07,0.27,0.07c0.1,0,0.18-0.02,0.23-0.06
			C13.29,8,13.33,7.94,13.33,7.87z"/>
	</g>
	<polyline class="st4" points="10.41,33.3 17.97,26.28 28.26,36.69 37.68,23.04 51.06,37.72 62.29,18.19 69.27,22.46 	"/>
	<g>
		<path class="st5" d="M8.33,39.02c0-0.13-0.05-0.23-0.14-0.32c-0.09-0.08-0.26-0.16-0.5-0.21c-0.29-0.07-0.52-0.17-0.68-0.31
			c-0.16-0.14-0.24-0.31-0.24-0.51c0-0.22,0.09-0.4,0.26-0.54c0.17-0.15,0.4-0.22,0.68-0.22c0.3,0,0.54,0.08,0.72,0.25
			c0.18,0.17,0.26,0.36,0.26,0.58v0.01H8.33c0-0.16-0.05-0.29-0.16-0.39s-0.26-0.15-0.46-0.15c-0.18,0-0.33,0.04-0.42,0.13
			c-0.1,0.08-0.15,0.19-0.15,0.33c0,0.12,0.05,0.22,0.16,0.3c0.11,0.08,0.28,0.15,0.52,0.21c0.29,0.07,0.51,0.18,0.66,0.32
			s0.23,0.32,0.23,0.52c0,0.22-0.09,0.4-0.27,0.54s-0.42,0.2-0.71,0.2c-0.27,0-0.52-0.08-0.73-0.23s-0.31-0.35-0.31-0.6v-0.01h0.35
			c0,0.18,0.06,0.31,0.19,0.41s0.29,0.14,0.48,0.14s0.33-0.04,0.44-0.12C8.28,39.27,8.33,39.16,8.33,39.02z"/>
		<path class="st5" d="M9.66,37.17v0.5h0.39v0.28H9.66v1.25c0,0.1,0.02,0.16,0.06,0.2s0.09,0.06,0.16,0.06c0.02,0,0.04,0,0.07-0.01
			c0.03,0,0.05-0.01,0.07-0.02l0.05,0.26c-0.03,0.02-0.07,0.04-0.12,0.06c-0.05,0.01-0.11,0.02-0.16,0.02
			c-0.15,0-0.27-0.05-0.36-0.14C9.34,39.54,9.3,39.39,9.3,39.2v-1.25H8.97v-0.28h0.32v-0.5C9.29,37.17,9.66,37.17,9.66,37.17z"/>
		<path class="st5" d="M11.76,39.72c-0.01-0.06-0.02-0.12-0.03-0.17c-0.01-0.05-0.01-0.09-0.01-0.14c-0.07,0.1-0.16,0.18-0.27,0.25
			c-0.11,0.07-0.23,0.1-0.36,0.1c-0.21,0-0.37-0.05-0.48-0.17c-0.11-0.11-0.17-0.26-0.17-0.45c0-0.2,0.08-0.35,0.24-0.46
			s0.37-0.17,0.64-0.17h0.4v-0.2c0-0.12-0.04-0.22-0.11-0.29s-0.18-0.11-0.31-0.11c-0.12,0-0.22,0.03-0.29,0.09
			s-0.11,0.14-0.11,0.22h-0.35v-0.01c-0.01-0.15,0.06-0.29,0.21-0.41s0.34-0.19,0.57-0.19s0.42,0.06,0.56,0.18s0.21,0.29,0.21,0.51
			v0.99c0,0.07,0,0.14,0.01,0.21s0.02,0.14,0.04,0.2h-0.39V39.72z M11.14,39.45c0.13,0,0.26-0.03,0.36-0.1
			c0.11-0.07,0.18-0.15,0.21-0.24v-0.33H11.3c-0.15,0-0.27,0.04-0.36,0.11s-0.13,0.17-0.13,0.27c0,0.09,0.03,0.16,0.08,0.22
			C10.95,39.42,11.03,39.45,11.14,39.45z"/>
		<path class="st5" d="M13.59,37.99l-0.19-0.01c-0.1,0-0.18,0.02-0.25,0.07s-0.12,0.11-0.16,0.2v1.47h-0.37v-2.06h0.33l0.04,0.3
			c0.06-0.11,0.13-0.19,0.21-0.25s0.18-0.09,0.29-0.09c0.03,0,0.05,0,0.08,0.01c0.02,0,0.05,0.01,0.06,0.01L13.59,37.99z"/>
		<path class="st5" d="M14.47,37.17v0.5h0.39v0.28h-0.39v1.25c0,0.1,0.02,0.16,0.06,0.2s0.09,0.06,0.16,0.06
			c0.02,0,0.04,0,0.07-0.01c0.03,0,0.05-0.01,0.07-0.02l0.05,0.26c-0.03,0.02-0.07,0.04-0.12,0.06c-0.05,0.01-0.11,0.02-0.16,0.02
			c-0.15,0-0.27-0.05-0.36-0.14c-0.09-0.09-0.13-0.24-0.13-0.43v-1.25h-0.32v-0.28h0.32v-0.5C14.11,37.17,14.47,37.17,14.47,37.17z"
			/>
	</g>
	<g>
		<path class="st5" d="M68.01,28.2h-1.25v0.99h1.45v0.29h-1.82v-2.77h1.8V27h-1.43v0.9h1.25V28.2z"/>
		<path class="st5" d="M68.9,27.42l0.03,0.31c0.07-0.11,0.15-0.19,0.25-0.25s0.22-0.09,0.35-0.09c0.22,0,0.39,0.06,0.51,0.2
			c0.12,0.13,0.18,0.33,0.18,0.6v1.3h-0.37V28.2c0-0.18-0.04-0.31-0.11-0.39s-0.18-0.11-0.32-0.11c-0.11,0-0.2,0.03-0.28,0.08
			s-0.15,0.12-0.2,0.21v1.5h-0.37v-2.06L68.9,27.42L68.9,27.42z"/>
		<path class="st5" d="M70.67,28.49c0-0.33,0.07-0.6,0.21-0.8c0.14-0.2,0.34-0.3,0.59-0.3c0.12,0,0.23,0.02,0.32,0.07
			c0.09,0.04,0.17,0.11,0.24,0.19v-1.13h0.37v2.97h-0.3l-0.04-0.25c-0.07,0.1-0.15,0.17-0.24,0.22c-0.1,0.05-0.21,0.07-0.34,0.07
			c-0.25,0-0.44-0.09-0.58-0.27s-0.21-0.42-0.21-0.72v-0.05H70.67z M71.04,28.53c0,0.21,0.04,0.38,0.13,0.5s0.21,0.19,0.39,0.19
			c0.11,0,0.2-0.03,0.28-0.08s0.14-0.12,0.18-0.21v-0.96c-0.05-0.09-0.11-0.15-0.19-0.2c-0.08-0.05-0.17-0.08-0.27-0.08
			c-0.18,0-0.31,0.07-0.39,0.22s-0.13,0.34-0.13,0.58V28.53z"/>
	</g>
	<path class="st6" d="M50.07,41.55h-9.36l-1.44-2.19l-1.44,2.19h-9.36c-0.7,0-1.26,0.57-1.26,1.28v6.61c0,0.71,0.57,1.28,1.26,1.28
		h21.6c0.7,0,1.26-0.57,1.26-1.28v-6.61C51.33,42.12,50.76,41.55,50.07,41.55z"/>
	<g>
		<g>
			<path class="st7" d="M66.46,35.65h-0.68l-0.41,2.06h-0.3l0.41-2.06H64.8l0.05-0.25h1.65L66.46,35.65z"/>
			<path class="st7" d="M67.11,37.72c0-0.05,0-0.09,0-0.13s0.01-0.07,0.01-0.1c-0.07,0.08-0.15,0.14-0.24,0.19s-0.18,0.08-0.27,0.08
				c-0.15,0-0.27-0.05-0.34-0.14s-0.09-0.22-0.06-0.38c0.03-0.17,0.12-0.31,0.25-0.39c0.14-0.09,0.31-0.13,0.52-0.13h0.29l0.03-0.17
				c0.02-0.11,0.01-0.19-0.03-0.24c-0.04-0.05-0.12-0.08-0.22-0.08c-0.09,0-0.17,0.03-0.24,0.08c-0.07,0.05-0.11,0.11-0.13,0.18
				H66.4v-0.01c0.02-0.13,0.1-0.25,0.24-0.35s0.3-0.15,0.49-0.15c0.17,0,0.3,0.05,0.4,0.15c0.1,0.1,0.13,0.24,0.09,0.42l-0.16,0.83
				c-0.01,0.06-0.02,0.12-0.03,0.18s-0.01,0.11,0,0.17h-0.32V37.72z M66.71,37.49c0.08,0,0.17-0.02,0.26-0.07
				c0.09-0.05,0.16-0.11,0.2-0.18l0.06-0.32h-0.3c-0.1,0-0.2,0.03-0.28,0.1c-0.08,0.06-0.13,0.14-0.15,0.22
				c-0.02,0.08-0.01,0.14,0.02,0.19C66.56,37.47,66.62,37.49,66.71,37.49z"/>
			<path class="st7" d="M68.85,36.28l-0.17-0.01c-0.07,0-0.13,0.02-0.19,0.06c-0.06,0.04-0.11,0.09-0.15,0.17l-0.24,1.22h-0.3
				L68.14,36h0.27l-0.02,0.23c0.06-0.08,0.12-0.15,0.2-0.19c0.07-0.04,0.15-0.07,0.24-0.07c0.02,0,0.04,0,0.07,0.01
				c0.02,0,0.04,0.01,0.05,0.01L68.85,36.28z"/>
			<path class="st7" d="M68.95,36.86c0.06-0.29,0.15-0.52,0.28-0.67c0.13-0.15,0.29-0.22,0.49-0.22c0.09,0,0.18,0.02,0.25,0.06
				s0.13,0.1,0.18,0.18L70.22,36h0.26l-0.33,1.69c-0.05,0.24-0.14,0.42-0.28,0.54s-0.33,0.18-0.55,0.18c-0.07,0-0.15-0.01-0.24-0.04
				c-0.09-0.02-0.16-0.05-0.22-0.09l0.12-0.24c0.04,0.03,0.1,0.06,0.17,0.08s0.14,0.03,0.21,0.03c0.13,0,0.23-0.04,0.31-0.12
				c0.08-0.08,0.14-0.19,0.17-0.33l0.02-0.12c-0.06,0.06-0.12,0.1-0.2,0.13c-0.07,0.03-0.15,0.04-0.23,0.04
				c-0.18,0-0.32-0.08-0.42-0.25c-0.09-0.17-0.12-0.37-0.07-0.61L68.95,36.86z M69.24,36.89c-0.04,0.18-0.03,0.33,0.02,0.44
				c0.05,0.11,0.15,0.17,0.29,0.17c0.07,0,0.14-0.02,0.2-0.06s0.12-0.1,0.17-0.18l0.16-0.8c-0.03-0.07-0.07-0.12-0.12-0.17
				c-0.06-0.04-0.12-0.06-0.21-0.06c-0.13,0-0.23,0.06-0.31,0.17c-0.08,0.12-0.15,0.27-0.18,0.46L69.24,36.89z"/>
			<path class="st7" d="M71.24,37.75c-0.21,0-0.37-0.08-0.48-0.24s-0.14-0.37-0.1-0.62l0.01-0.07c0.04-0.25,0.14-0.46,0.3-0.62
				s0.33-0.24,0.51-0.24c0.21,0,0.36,0.07,0.45,0.21s0.12,0.33,0.08,0.56l-0.03,0.2h-1.02c-0.02,0.17-0.01,0.31,0.05,0.42
				c0.06,0.1,0.15,0.15,0.28,0.15c0.09,0,0.18-0.02,0.26-0.05s0.15-0.07,0.21-0.12l0.09,0.2c-0.06,0.06-0.15,0.11-0.24,0.15
				C71.48,37.73,71.37,37.75,71.24,37.75z M71.43,36.22c-0.09,0-0.17,0.04-0.25,0.13s-0.14,0.2-0.18,0.33v0.01h0.7l0.01-0.04
				c0.02-0.13,0.01-0.23-0.04-0.31S71.55,36.22,71.43,36.22z"/>
			<path class="st7" d="M72.98,35.59L72.9,36h0.29l-0.05,0.23h-0.29l-0.21,1.04c-0.02,0.08-0.02,0.14,0.01,0.17
				c0.02,0.03,0.06,0.04,0.11,0.04c0.02,0,0.05,0,0.09-0.01c0.03,0,0.06-0.01,0.08-0.02v0.21c-0.03,0.02-0.07,0.03-0.13,0.05
				c-0.06,0.01-0.11,0.02-0.17,0.02c-0.11,0-0.19-0.04-0.25-0.12s-0.07-0.2-0.04-0.36l0.21-1.04H72.3l0.05-0.23h0.25l0.08-0.41h0.3
				V35.59z"/>
		</g>
	</g>
	<g>
		<g>
			<path class="st8" d="M37.14,47.12h0.02l0.58-2.81h0.79l-0.94,4.09h-0.75l-0.74-2.7h-0.02l-0.74,2.7h-0.75l-0.95-4.09h0.79
				l0.58,2.8h0.02l0.76-2.81h0.6L37.14,47.12z"/>
			<path class="st8" d="M39.77,44.64h-0.81v-0.62h0.81V44.64z M39.77,48.41h-0.81v-3.04h0.81V48.41z"/>
			<path class="st8" d="M41.17,45.37l0.04,0.44c0.1-0.16,0.22-0.28,0.37-0.36c0.15-0.09,0.31-0.13,0.49-0.13
				c0.3,0,0.54,0.1,0.71,0.29s0.26,0.5,0.26,0.91v1.9h-0.81v-1.9c0-0.21-0.04-0.35-0.12-0.44c-0.08-0.09-0.2-0.13-0.37-0.13
				c-0.11,0-0.2,0.02-0.29,0.07c-0.09,0.04-0.16,0.11-0.21,0.19v2.21h-0.81v-3.04L41.17,45.37L41.17,45.37z"/>
			<path class="st8" d="M44.52,47h-0.81v-2.68h0.81V47z M44.52,48.41h-0.81v-0.72h0.81V48.41z"/>
		</g>
	</g>
	<g>
		<g class="st9">
			<ellipse class="st8" cx="69.27" cy="22.46" rx="2.17" ry="2.26"/>
		</g>
		<g>
			<ellipse class="st10" cx="69.27" cy="22.46" rx="2.17" ry="2.26"/>
		</g>
	</g>
	<g>
		<g class="st9">
			<ellipse class="st8" cx="10.41" cy="33.3" rx="2.17" ry="2.26"/>
		</g>
		<g>
			<ellipse class="st10" cx="10.41" cy="33.3" rx="2.17" ry="2.26"/>
		</g>
	</g>
</g>
</svg>
