<svg id="Layer_1" data-name="Layer 1" xmlns="http://www.w3.org/2000/svg" viewBox="0 0 104 52"><defs><style>.cls-1{fill:#f1f1f2;stroke:#c2c2c2;}.cls-1,.cls-10,.cls-2{stroke-miterlimit:10;}.cls-1,.cls-10{stroke-width:0.65px;}.cls-10,.cls-2,.cls-3,.cls-7{fill:none;}.cls-2{stroke:#dededd;}.cls-2,.cls-3{stroke-width:0.325px;}.cls-3,.cls-7{stroke:#293052;stroke-linejoin:round;}.cls-4{fill:#231f20;}.cls-5{fill:#293052;}.cls-6{fill:#6d6e70;}.cls-7{stroke-linecap:round;stroke-width:0.975px;}.cls-8{opacity:0.6;}.cls-9{fill:#fff;}.cls-10{stroke:#e88024;}.cls-11{fill:#e88024;}</style></defs><title>long</title><rect class="cls-1" x="79.576" width="24.472" height="52"/><rect class="cls-1" x="-0.049" width="79.625" height="52"/><line class="cls-2" x1="0.683" y1="14.361" x2="79.17" y2="14.361"/><line class="cls-2" x1="0.683" y1="25.208" x2="79.17" y2="25.208"/><line class="cls-2" x1="0.683" y1="36.055" x2="79.17" y2="36.055"/><line class="cls-2" x1="0.683" y1="46.902" x2="79.17" y2="46.902"/><line class="cls-2" x1="10.161" y1="8.937" x2="10.161" y2="51.675"/><line class="cls-2" x1="20.091" y1="8.937" x2="20.091" y2="51.675"/><line class="cls-2" x1="30.021" y1="8.937" x2="30.021" y2="51.675"/><line class="cls-2" x1="39.952" y1="8.937" x2="39.952" y2="51.675"/><line class="cls-2" x1="49.882" y1="8.937" x2="49.882" y2="51.675"/><line class="cls-2" x1="59.812" y1="8.937" x2="59.812" y2="51.675"/><line class="cls-2" x1="0.683" y1="30.631" x2="79.17" y2="30.631"/><line class="cls-2" x1="69.743" y1="8.937" x2="69.743" y2="51.675"/><line class="cls-3" x1="0.683" y1="19.784" x2="79.17" y2="19.784"/><line class="cls-3" x1="0.683" y1="41.478" x2="79.17" y2="41.478"/><line class="cls-1" x1="0.114" y1="8.612" x2="104.049" y2="8.612"/><path class="cls-4" d="M4.91,5.339H6.144v.429H4.354V3H4.91Z"/><path class="cls-4" d="M6.333,4.719a1.108,1.108,0,0,1,.257-.756A.9.9,0,0,1,7.3,3.669a.907.907,0,0,1,.716.293,1.1,1.1,0,0,1,.259.757v.04a1.1,1.1,0,0,1-.258.757.9.9,0,0,1-.713.292.905.905,0,0,1-.715-.292,1.1,1.1,0,0,1-.258-.757Zm.554.038a.894.894,0,0,0,.1.452.342.342,0,0,0,.32.17.339.339,0,0,0,.315-.171.893.893,0,0,0,.1-.451V4.718a.884.884,0,0,0-.1-.447A.342.342,0,0,0,7.3,4.1a.337.337,0,0,0-.315.174.886.886,0,0,0-.1.446Z"/><path class="cls-4" d="M9.128,3.708,9.153,4a.752.752,0,0,1,.253-.245.658.658,0,0,1,.337-.088.619.619,0,0,1,.487.2.907.907,0,0,1,.175.615V5.768H9.848V4.48a.419.419,0,0,0-.083-.295A.335.335,0,0,0,9.511,4.1a.425.425,0,0,0-.2.045.405.405,0,0,0-.146.127v1.5H8.61V3.708Z"/><path class="cls-4" d="M10.735,4.755a1.331,1.331,0,0,1,.212-.787.688.688,0,0,1,.6-.3.589.589,0,0,1,.3.078.678.678,0,0,1,.225.223l.044-.263h.48V5.758a.763.763,0,0,1-.264.622,1.114,1.114,0,0,1-.734.22,1.365,1.365,0,0,1-.332-.043,1.513,1.513,0,0,1-.324-.117l.1-.415a1.312,1.312,0,0,0,.26.093,1.275,1.275,0,0,0,.289.031.5.5,0,0,0,.336-.1.378.378,0,0,0,.107-.3V5.57a.622.622,0,0,1-.215.178.643.643,0,0,1-.284.061.7.7,0,0,1-.591-.279,1.179,1.179,0,0,1-.212-.733Zm.556.04a.844.844,0,0,0,.091.428.318.318,0,0,0,.3.156.456.456,0,0,0,.216-.047.36.36,0,0,0,.142-.137V4.3A.384.384,0,0,0,11.9,4.15a.417.417,0,0,0-.212-.052.314.314,0,0,0-.3.182,1.034,1.034,0,0,0-.094.476Z"/><path class="cls-4" d="M15.2,5.768a1.235,1.235,0,0,1-.052-.148,1.021,1.021,0,0,1-.031-.16.769.769,0,0,1-.226.25.57.57,0,0,1-.334.1.7.7,0,0,1-.5-.167.6.6,0,0,1-.175-.454.543.543,0,0,1,.233-.469,1.163,1.163,0,0,1,.681-.167h.311V4.387a.321.321,0,0,0-.078-.23.363.363,0,0,0-.439-.016.232.232,0,0,0-.073.182l-.537,0,0-.012a.523.523,0,0,1,.227-.45.988.988,0,0,1,.63-.189.921.921,0,0,1,.6.188.65.65,0,0,1,.23.534v.852a1.6,1.6,0,0,0,.022.272,1.373,1.373,0,0,0,.069.253ZM14.694,5.4a.48.48,0,0,0,.261-.072.379.379,0,0,0,.154-.168V4.866H14.8a.372.372,0,0,0-.268.088.289.289,0,0,0-.092.215.211.211,0,0,0,.069.165A.265.265,0,0,0,14.694,5.4Z"/><path class="cls-4" d="M16.749,3.2v.5H17.1V4.1h-.347V5.147a.245.245,0,0,0,.049.172.177.177,0,0,0,.133.051.568.568,0,0,0,.076,0c.021,0,.045-.009.073-.017l.047.4a.977.977,0,0,1-.164.043.964.964,0,0,1-.173.015.592.592,0,0,1-.443-.158.693.693,0,0,1-.155-.5V4.1h-.3V3.708h.3V3.2Z"/><path class="cls-4" d="M18.958,4.146h.312a.379.379,0,0,0,.293-.1.41.41,0,0,0,.1-.288.376.376,0,0,0-.1-.269.362.362,0,0,0-.276-.1.392.392,0,0,0-.263.091.3.3,0,0,0-.106.24h-.539l0-.012a.633.633,0,0,1,.25-.537,1,1,0,0,1,.647-.211,1.067,1.067,0,0,1,.687.205.71.71,0,0,1,.256.587.587.587,0,0,1-.114.344.758.758,0,0,1-.314.254.706.706,0,0,1,.352.252.659.659,0,0,1,.121.394.722.722,0,0,1-.277.6,1.112,1.112,0,0,1-.709.218,1.084,1.084,0,0,1-.664-.205.653.653,0,0,1-.268-.577l0-.012h.539A.337.337,0,0,0,19,5.276a.414.414,0,0,0,.29.1.42.42,0,0,0,.3-.106.379.379,0,0,0,.111-.288.416.416,0,0,0-.109-.32.456.456,0,0,0-.323-.1h-.312Z"/><path class="cls-4" d="M23.869,3v1.84a.878.878,0,0,1-.309.72,1.23,1.23,0,0,1-.807.253,1.216,1.216,0,0,1-.8-.253.883.883,0,0,1-.306-.72V3H22.2V4.833a.534.534,0,0,0,.146.41.57.57,0,0,0,.4.136.587.587,0,0,0,.409-.135.529.529,0,0,0,.148-.411V3Z"/><path class="cls-4" d="M25.852,5.044a.322.322,0,0,0-.113-.257,1.128,1.128,0,0,0-.4-.183,2.27,2.27,0,0,1-.749-.34.64.64,0,0,1-.253-.536.666.666,0,0,1,.291-.558,1.212,1.212,0,0,1,.742-.216,1.119,1.119,0,0,1,.745.242.729.729,0,0,1,.278.6l0,.011h-.539a.4.4,0,0,0-.128-.311.509.509,0,0,0-.361-.119.535.535,0,0,0-.344.1.312.312,0,0,0-.122.254.27.27,0,0,0,.13.23,1.766,1.766,0,0,0,.45.191,1.758,1.758,0,0,1,.7.338.7.7,0,0,1,.236.55.658.658,0,0,1-.281.562,1.223,1.223,0,0,1-.742.206,1.355,1.355,0,0,1-.79-.233.728.728,0,0,1-.328-.654l0-.011h.541a.427.427,0,0,0,.151.362.681.681,0,0,0,.422.115.553.553,0,0,0,.347-.094A.3.3,0,0,0,25.852,5.044Z"/><path class="cls-4" d="M26.828,5.768V3h.952a1.145,1.145,0,0,1,.838.324,1.119,1.119,0,0,1,.33.833v.459a1.113,1.113,0,0,1-.33.833,1.144,1.144,0,0,1-.838.323Zm.556-2.344V5.339h.368a.58.58,0,0,0,.468-.2.792.792,0,0,0,.169-.527V4.149a.784.784,0,0,0-.169-.523.577.577,0,0,0-.468-.2Z"/><path class="cls-4" d="M32.168,4.8a1.18,1.18,0,0,1-.211.734.7.7,0,0,1-.59.278.674.674,0,0,1-.288-.06.6.6,0,0,1-.215-.177V6.56H30.31V3.708h.5l.033.244a.657.657,0,0,1,.22-.209.6.6,0,0,1,.3-.073.685.685,0,0,1,.594.3,1.334,1.334,0,0,1,.211.787Zm-.556-.043a1,1,0,0,0-.1-.474.317.317,0,0,0-.3-.181A.411.411,0,0,0,31,4.15a.364.364,0,0,0-.14.146v.9a.336.336,0,0,0,.14.133.463.463,0,0,0,.218.046.319.319,0,0,0,.3-.158.833.833,0,0,0,.094-.429Z"/><path class="cls-4" d="M33.423,5.808a.928.928,0,0,1-.712-.286,1.02,1.02,0,0,1-.267-.725V4.721a1.13,1.13,0,0,1,.252-.757.841.841,0,0,1,.677-.295.832.832,0,0,1,.647.252.964.964,0,0,1,.23.68v.3h-1.23l0,.011a.534.534,0,0,0,.136.334.423.423,0,0,0,.329.131,1.05,1.05,0,0,0,.307-.037,1.374,1.374,0,0,0,.267-.117l.15.344a1.013,1.013,0,0,1-.33.171A1.41,1.41,0,0,1,33.423,5.808Zm-.05-1.71a.289.289,0,0,0-.244.118.614.614,0,0,0-.11.311l.006.009h.682V4.487a.447.447,0,0,0-.083-.283A.3.3,0,0,0,33.374,4.1Z"/><path class="cls-4" d="M35.659,4.186l-.2-.006a.372.372,0,0,0-.2.051.325.325,0,0,0-.122.146V5.768h-.554V3.708h.516l.024.3A.645.645,0,0,1,35.3,3.76a.416.416,0,0,1,.266-.091.384.384,0,0,1,.077.007.679.679,0,0,1,.071.017Z"/><path class="cls-4" d="M38.77,4.8a1.18,1.18,0,0,1-.211.734.7.7,0,0,1-.59.278.674.674,0,0,1-.288-.06.6.6,0,0,1-.215-.177V6.56h-.554V3.708h.5l.033.244a.657.657,0,0,1,.22-.209.6.6,0,0,1,.3-.073.685.685,0,0,1,.594.3,1.334,1.334,0,0,1,.211.787Zm-.556-.043a1,1,0,0,0-.1-.474.317.317,0,0,0-.3-.181.411.411,0,0,0-.214.052.364.364,0,0,0-.14.146v.9a.336.336,0,0,0,.14.133.463.463,0,0,0,.218.046.319.319,0,0,0,.3-.158.833.833,0,0,0,.094-.429Z"/><path class="cls-4" d="M39.027,4.719a1.108,1.108,0,0,1,.257-.756,1.016,1.016,0,0,1,1.428,0,1.1,1.1,0,0,1,.259.757v.04a1.1,1.1,0,0,1-.258.757,1.019,1.019,0,0,1-1.428,0,1.1,1.1,0,0,1-.258-.757Zm.554.038a.894.894,0,0,0,.1.452.342.342,0,0,0,.32.17.339.339,0,0,0,.315-.171.893.893,0,0,0,.1-.451V4.718a.884.884,0,0,0-.1-.447A.342.342,0,0,0,40,4.1a.337.337,0,0,0-.315.174.886.886,0,0,0-.1.446Z"/><path class="cls-4" d="M41.9,3.214h-.556V2.8H41.9Zm0,2.554h-.556V3.708H41.9Z"/><path class="cls-4" d="M42.864,3.708,42.889,4a.752.752,0,0,1,.253-.245.658.658,0,0,1,.337-.088.619.619,0,0,1,.487.2.907.907,0,0,1,.175.615V5.768h-.558V4.48a.419.419,0,0,0-.083-.295.335.335,0,0,0-.253-.087.425.425,0,0,0-.2.045.405.405,0,0,0-.146.127v1.5h-.556V3.708Z"/><path class="cls-4" d="M45.218,3.2v.5h.347V4.1h-.347V5.147a.245.245,0,0,0,.049.172.177.177,0,0,0,.133.051.568.568,0,0,0,.076,0c.021,0,.045-.009.073-.017l.047.4a.977.977,0,0,1-.164.043.964.964,0,0,1-.173.015.592.592,0,0,1-.443-.158.693.693,0,0,1-.155-.5V4.1h-.3V3.708h.3V3.2Z"/><path class="cls-5" d="M62.017,24.893H61.17v.66h.977v.2H60.92V23.9h1.212v.2H61.17v.6h.847Z"/><path class="cls-5" d="M62.859,24.882l.292-.507h.292l-.445.68.458.694h-.287l-.3-.52-.3.52H62.27l.458-.694-.445-.68h.288Z"/><path class="cls-5" d="M63.971,24.024h-.25v-.255h.25Zm0,1.726h-.25V24.375h.25Z"/><path class="cls-5" d="M64.686,24.044v.331h.26v.186h-.26V25.4a.186.186,0,0,0,.04.136.143.143,0,0,0,.105.04.294.294,0,0,0,.048,0,.4.4,0,0,0,.047-.013l.032.171a.216.216,0,0,1-.081.037.416.416,0,0,1-.109.015.323.323,0,0,1-.242-.092.4.4,0,0,1-.09-.289v-.834h-.219v-.186h.219v-.331Z"/><path class="cls-5" d="M66.171,25.75h-.25v-1.98h.25Z"/><path class="cls-5" d="M67.126,25.776a.582.582,0,0,1-.457-.19.724.724,0,0,1-.169-.5v-.056a.705.705,0,0,1,.174-.488.541.541,0,0,1,.414-.2.522.522,0,0,1,.42.168.668.668,0,0,1,.142.447v.156h-.891l0,.006a.544.544,0,0,0,.1.325.322.322,0,0,0,.271.127.649.649,0,0,0,.223-.036.518.518,0,0,0,.165-.1l.1.162a.587.587,0,0,1-.193.122A.788.788,0,0,1,67.126,25.776Zm-.038-1.229a.272.272,0,0,0-.215.105.5.5,0,0,0-.109.266l0,.006H67.4v-.033a.378.378,0,0,0-.078-.245A.283.283,0,0,0,67.088,24.547Z"/><path class="cls-5" d="M68.373,25.344l.021.1H68.4l.024-.1.315-.969H69l-.506,1.374H68.3l-.512-1.374h.256Z"/><path class="cls-5" d="M69.776,25.776a.582.582,0,0,1-.457-.19.724.724,0,0,1-.169-.5v-.056a.705.705,0,0,1,.174-.488.541.541,0,0,1,.414-.2.522.522,0,0,1,.42.168.668.668,0,0,1,.142.447v.156h-.891l0,.006a.544.544,0,0,0,.1.325.322.322,0,0,0,.271.127A.649.649,0,0,0,70,25.543a.518.518,0,0,0,.165-.1l.1.162a.587.587,0,0,1-.193.122A.788.788,0,0,1,69.776,25.776Zm-.038-1.229a.272.272,0,0,0-.215.105.5.5,0,0,0-.109.266l0,.006h.633v-.033a.378.378,0,0,0-.078-.245A.283.283,0,0,0,69.738,24.547Z"/><path class="cls-5" d="M70.851,25.75H70.6v-1.98h.25Z"/><path class="cls-5" d="M62.378,29.975h-.649V27.313h-.657v-.458l1.307-.115Z"/><path class="cls-5" d="M65.7,28.715a1.428,1.428,0,0,1-.294.975,1.128,1.128,0,0,1-1.6,0,1.424,1.424,0,0,1-.3-.975V28a1.432,1.432,0,0,1,.295-.975,1.12,1.12,0,0,1,1.6,0,1.422,1.422,0,0,1,.3.975Zm-.646-.78a1.061,1.061,0,0,0-.115-.562.374.374,0,0,0-.334-.179.37.37,0,0,0-.333.178,1.08,1.08,0,0,0-.113.563v.841a1.082,1.082,0,0,0,.114.568.376.376,0,0,0,.337.178.368.368,0,0,0,.331-.178,1.093,1.093,0,0,0,.113-.568Z"/><path class="cls-5" d="M67.068,29.521a.524.524,0,0,0,.417-.189.812.812,0,0,0,.16-.542v-.159a.706.706,0,0,1-.259.208.735.735,0,0,1-.323.071.894.894,0,0,1-.709-.294,1.163,1.163,0,0,1-.259-.8,1.12,1.12,0,0,1,.306-.8,1.113,1.113,0,0,1,1.585.02,1.382,1.382,0,0,1,.309.959v.764a1.237,1.237,0,0,1-.346.927,1.207,1.207,0,0,1-.881.338,1.8,1.8,0,0,1-.348-.035,1.514,1.514,0,0,1-.332-.1l.075-.47a1.617,1.617,0,0,0,.286.081A1.837,1.837,0,0,0,67.068,29.521Zm.1-1.087a.62.62,0,0,0,.28-.06.534.534,0,0,0,.192-.16v-.3a.963.963,0,0,0-.124-.539.387.387,0,0,0-.338-.185.371.371,0,0,0-.318.182.777.777,0,0,0-.123.444.8.8,0,0,0,.111.445A.361.361,0,0,0,67.172,28.435Z"/><path class="cls-5" d="M69.678,29.521a.524.524,0,0,0,.417-.189.812.812,0,0,0,.16-.542v-.159a.706.706,0,0,1-.259.208.735.735,0,0,1-.323.071.894.894,0,0,1-.709-.294,1.163,1.163,0,0,1-.259-.8,1.12,1.12,0,0,1,.306-.8,1.113,1.113,0,0,1,1.585.02,1.382,1.382,0,0,1,.309.959v.764a1.237,1.237,0,0,1-.346.927,1.207,1.207,0,0,1-.881.338,1.8,1.8,0,0,1-.348-.035,1.514,1.514,0,0,1-.332-.1l.075-.47a1.617,1.617,0,0,0,.286.081A1.837,1.837,0,0,0,69.678,29.521Zm.1-1.087a.62.62,0,0,0,.28-.06.534.534,0,0,0,.192-.16v-.3a.963.963,0,0,0-.124-.539.387.387,0,0,0-.338-.185.371.371,0,0,0-.318.182.777.777,0,0,0-.123.444.8.8,0,0,0,.111.445A.361.361,0,0,0,69.783,28.435Z"/><path class="cls-6" d="M46.824,13.5h-.847v.66h.977v.2H45.727V12.512h1.212v.2h-.962v.6h.847Z"/><path class="cls-6" d="M47.666,13.494l.292-.507h.292l-.446.68.458.694h-.287l-.3-.52-.3.52h-.289l.458-.694-.445-.68h.288Z"/><path class="cls-6" d="M48.778,12.635h-.25V12.38h.25Zm0,1.726h-.25V12.987h.25Z"/><path class="cls-6" d="M49.493,12.656v.331h.26v.186h-.26v.834a.184.184,0,0,0,.04.136.144.144,0,0,0,.106.04.289.289,0,0,0,.047,0,.39.39,0,0,0,.046-.013l.033.171a.214.214,0,0,1-.082.037.414.414,0,0,1-.108.015.324.324,0,0,1-.243-.092.4.4,0,0,1-.09-.289v-.834h-.219v-.186h.219v-.331Z"/><path class="cls-6" d="M51.506,14a.169.169,0,0,0-.063-.136.567.567,0,0,0-.238-.093,1.011,1.011,0,0,1-.376-.148.3.3,0,0,1-.126-.254.359.359,0,0,1,.143-.285.564.564,0,0,1,.371-.118.557.557,0,0,1,.381.124.363.363,0,0,1,.135.3l0,.008h-.239a.22.22,0,0,0-.076-.162.277.277,0,0,0-.2-.071.289.289,0,0,0-.2.059.184.184,0,0,0-.064.141.157.157,0,0,0,.057.128.589.589,0,0,0,.232.084,1,1,0,0,1,.387.151.307.307,0,0,1,.127.258.356.356,0,0,1-.148.3.618.618,0,0,1-.386.112.6.6,0,0,1-.414-.133.382.382,0,0,1-.144-.312l0-.007h.238a.231.231,0,0,0,.1.193.384.384,0,0,0,.217.062.359.359,0,0,0,.208-.054A.167.167,0,0,0,51.506,14Z"/><path class="cls-6" d="M53.238,13.726a.759.759,0,0,1-.142.479.471.471,0,0,1-.393.182.546.546,0,0,1-.223-.042.427.427,0,0,1-.163-.128v.672h-.25v-1.9h.191l.04.178a.452.452,0,0,1,.167-.15.5.5,0,0,1,.234-.053.457.457,0,0,1,.4.2.917.917,0,0,1,.142.535Zm-.25-.027a.725.725,0,0,0-.092-.384.3.3,0,0,0-.271-.15.337.337,0,0,0-.184.049.37.37,0,0,0-.123.134v.663a.352.352,0,0,0,.123.133.342.342,0,0,0,.187.048.31.31,0,0,0,.27-.13.574.574,0,0,0,.091-.336Z"/><path class="cls-6" d="M53.486,13.662a.755.755,0,0,1,.165-.5.554.554,0,0,1,.448-.2.56.56,0,0,1,.451.2.754.754,0,0,1,.166.5v.027a.753.753,0,0,1-.165.5.615.615,0,0,1-.9,0,.749.749,0,0,1-.166-.5Zm.25.027a.646.646,0,0,0,.092.359.332.332,0,0,0,.545,0,.646.646,0,0,0,.092-.359v-.028a.639.639,0,0,0-.093-.358.305.305,0,0,0-.273-.144.3.3,0,0,0-.271.144.647.647,0,0,0-.092.358Z"/><path class="cls-6" d="M55.353,12.656v.331h.26v.186h-.26v.834a.184.184,0,0,0,.04.136.144.144,0,0,0,.106.04.289.289,0,0,0,.047,0,.39.39,0,0,0,.046-.013l.033.171a.214.214,0,0,1-.082.037.414.414,0,0,1-.108.015.324.324,0,0,1-.243-.092.4.4,0,0,1-.09-.289v-.834h-.219v-.186H55.1v-.331Z"/><path class="cls-6" d="M47.185,18.585h-.648V15.924h-.658v-.458l1.306-.115Z"/><path class="cls-6" d="M49.795,18.585h-.648V15.924h-.658v-.458l1.306-.115Z"/><path class="cls-6" d="M53.119,17.326a1.429,1.429,0,0,1-.294.975,1.128,1.128,0,0,1-1.6,0,1.426,1.426,0,0,1-.3-.975v-.713a1.432,1.432,0,0,1,.294-.975,1.122,1.122,0,0,1,1.6,0,1.425,1.425,0,0,1,.3.975Zm-.646-.78a1.061,1.061,0,0,0-.116-.562.4.4,0,0,0-.667,0,1.08,1.08,0,0,0-.113.563v.841a1.076,1.076,0,0,0,.115.568.375.375,0,0,0,.336.178.369.369,0,0,0,.331-.178,1.088,1.088,0,0,0,.113-.568Z"/><path class="cls-6" d="M55.729,17.326a1.429,1.429,0,0,1-.294.975,1.128,1.128,0,0,1-1.6,0,1.426,1.426,0,0,1-.3-.975v-.713a1.432,1.432,0,0,1,.294-.975,1.122,1.122,0,0,1,1.6,0,1.425,1.425,0,0,1,.3.975Zm-.646-.78a1.061,1.061,0,0,0-.116-.562.4.4,0,0,0-.667,0,1.08,1.08,0,0,0-.113.563v.841a1.076,1.076,0,0,0,.115.568.375.375,0,0,0,.336.178.369.369,0,0,0,.331-.178,1.088,1.088,0,0,0,.113-.568Z"/><path class="cls-6" d="M26.048,43.567H25.2v.66h.977v.2H24.951V42.575h1.212v.2H25.2v.6h.847Z"/><path class="cls-6" d="M26.647,43.05l.018.205a.493.493,0,0,1,.172-.17.46.46,0,0,1,.235-.061.448.448,0,0,1,.344.131.57.57,0,0,1,.122.4v.867h-.25v-.862a.372.372,0,0,0-.072-.258A.286.286,0,0,0,27,43.228a.348.348,0,0,0-.191.053.378.378,0,0,0-.133.142v1h-.25V43.05Z"/><path class="cls-6" d="M28.232,42.719v.331h.26v.186h-.26v.834a.184.184,0,0,0,.04.136.144.144,0,0,0,.106.04.289.289,0,0,0,.047,0,.39.39,0,0,0,.046-.013l.033.171a.214.214,0,0,1-.082.037.414.414,0,0,1-.108.015.324.324,0,0,1-.243-.092.4.4,0,0,1-.09-.289v-.834h-.219V43.05h.219v-.331Z"/><path class="cls-6" d="M29.45,43.271l-.128-.008a.287.287,0,0,0-.167.047.3.3,0,0,0-.1.132v.981H28.8V43.05h.223l.024.2a.469.469,0,0,1,.144-.166.336.336,0,0,1,.2-.061.308.308,0,0,1,.053,0,.257.257,0,0,1,.042.01Z"/><path class="cls-6" d="M30.134,43.915l.044.173h.008l.338-1.038H30.8l-.578,1.585a.712.712,0,0,1-.149.241.343.343,0,0,1-.262.1.511.511,0,0,1-.078-.007.648.648,0,0,1-.072-.014l.025-.2.045,0,.067,0a.153.153,0,0,0,.13-.071.714.714,0,0,0,.085-.157l.06-.144-.51-1.346h.279Z"/><path class="cls-6" d="M32.467,44.059a.169.169,0,0,0-.063-.136.567.567,0,0,0-.238-.093,1.011,1.011,0,0,1-.376-.148.3.3,0,0,1-.126-.254.359.359,0,0,1,.143-.285.564.564,0,0,1,.371-.118.557.557,0,0,1,.381.124.363.363,0,0,1,.135.3l0,.008h-.239a.22.22,0,0,0-.076-.162.277.277,0,0,0-.2-.071.289.289,0,0,0-.2.059.184.184,0,0,0-.064.141.157.157,0,0,0,.057.128.589.589,0,0,0,.232.084,1,1,0,0,1,.387.151.307.307,0,0,1,.127.258.356.356,0,0,1-.148.3.618.618,0,0,1-.386.112.6.6,0,0,1-.414-.133.382.382,0,0,1-.144-.312l0-.007h.238a.231.231,0,0,0,.1.193.384.384,0,0,0,.217.062.359.359,0,0,0,.208-.054A.167.167,0,0,0,32.467,44.059Z"/><path class="cls-6" d="M34.2,43.789a.759.759,0,0,1-.142.479.471.471,0,0,1-.393.182.546.546,0,0,1-.223-.042.427.427,0,0,1-.163-.128v.672h-.25v-1.9h.191l.04.178a.452.452,0,0,1,.167-.15.5.5,0,0,1,.234-.053.457.457,0,0,1,.4.2.917.917,0,0,1,.142.535Zm-.25-.027a.725.725,0,0,0-.092-.384.3.3,0,0,0-.271-.15.337.337,0,0,0-.184.049.37.37,0,0,0-.123.134v.663a.352.352,0,0,0,.123.133.342.342,0,0,0,.187.048.31.31,0,0,0,.27-.13.574.574,0,0,0,.091-.336Z"/><path class="cls-6" d="M34.447,43.725a.755.755,0,0,1,.165-.5.554.554,0,0,1,.448-.2.56.56,0,0,1,.451.2.754.754,0,0,1,.166.5v.027a.753.753,0,0,1-.165.5.615.615,0,0,1-.9,0,.749.749,0,0,1-.166-.5Zm.25.027a.646.646,0,0,0,.092.359.332.332,0,0,0,.545,0,.646.646,0,0,0,.092-.359v-.028a.639.639,0,0,0-.093-.358.305.305,0,0,0-.273-.144.3.3,0,0,0-.271.144.647.647,0,0,0-.092.358Z"/><path class="cls-6" d="M36.313,42.719v.331h.26v.186h-.26v.834a.184.184,0,0,0,.04.136.144.144,0,0,0,.106.04.289.289,0,0,0,.047,0,.39.39,0,0,0,.046-.013l.033.171a.214.214,0,0,1-.082.037.414.414,0,0,1-.108.015.324.324,0,0,1-.243-.092.4.4,0,0,1-.09-.289v-.834h-.219V43.05h.219v-.331Z"/><path class="cls-6" d="M27.177,48.648h-.648V45.987h-.658v-.458l1.306-.115Z"/><path class="cls-6" d="M30.5,47.389a1.429,1.429,0,0,1-.294.975,1.128,1.128,0,0,1-1.6,0,1.426,1.426,0,0,1-.3-.975v-.713a1.432,1.432,0,0,1,.294-.975,1.122,1.122,0,0,1,1.6,0,1.425,1.425,0,0,1,.3.975Zm-.646-.78a1.061,1.061,0,0,0-.116-.562.4.4,0,0,0-.667,0,1.08,1.08,0,0,0-.113.563v.841a1.076,1.076,0,0,0,.115.568.375.375,0,0,0,.336.178.369.369,0,0,0,.331-.178,1.088,1.088,0,0,0,.113-.568Z"/><path class="cls-6" d="M33.111,47.389a1.429,1.429,0,0,1-.294.975,1.128,1.128,0,0,1-1.6,0,1.426,1.426,0,0,1-.3-.975v-.713a1.432,1.432,0,0,1,.294-.975,1.122,1.122,0,0,1,1.6,0,1.425,1.425,0,0,1,.3.975Zm-.646-.78a1.061,1.061,0,0,0-.116-.562.4.4,0,0,0-.667,0,1.08,1.08,0,0,0-.113.563v.841a1.076,1.076,0,0,0,.115.568.375.375,0,0,0,.336.178.369.369,0,0,0,.331-.178,1.088,1.088,0,0,0,.113-.568Z"/><path class="cls-6" d="M35.722,47.389a1.429,1.429,0,0,1-.294.975,1.128,1.128,0,0,1-1.6,0,1.426,1.426,0,0,1-.3-.975v-.713a1.432,1.432,0,0,1,.294-.975,1.122,1.122,0,0,1,1.6,0,1.425,1.425,0,0,1,.3.975Zm-.646-.78a1.061,1.061,0,0,0-.116-.562.4.4,0,0,0-.667,0,1.08,1.08,0,0,0-.113.563v.841a1.076,1.076,0,0,0,.115.568.375.375,0,0,0,.336.178.369.369,0,0,0,.331-.178,1.088,1.088,0,0,0,.113-.568Z"/><path class="cls-5" d="M10.605,31.922H9.759v.66h.977v.2H9.509V30.93h1.212v.2H9.759v.6h.847Z"/><path class="cls-5" d="M11.2,31.4l.018.205a.493.493,0,0,1,.172-.17.46.46,0,0,1,.235-.061.448.448,0,0,1,.344.131.57.57,0,0,1,.122.4v.867h-.25v-.862a.372.372,0,0,0-.072-.258.286.286,0,0,0-.219-.076.348.348,0,0,0-.191.053.378.378,0,0,0-.133.142v1h-.25V31.4Z"/><path class="cls-5" d="M12.79,31.073V31.4h.26v.186h-.26v.834a.184.184,0,0,0,.04.136.144.144,0,0,0,.106.04.289.289,0,0,0,.047,0,.39.39,0,0,0,.046-.013l.033.171a.214.214,0,0,1-.082.037.414.414,0,0,1-.108.015.324.324,0,0,1-.243-.092.4.4,0,0,1-.09-.289V31.59h-.219V31.4h.219v-.331Z"/><path class="cls-5" d="M14.008,31.626l-.128-.008a.287.287,0,0,0-.167.047.3.3,0,0,0-.1.132v.981h-.25V31.4h.223l.024.2a.469.469,0,0,1,.144-.166.336.336,0,0,1,.2-.061.308.308,0,0,1,.053,0,.257.257,0,0,1,.042.01Z"/><path class="cls-5" d="M14.692,32.27l.044.173h.008l.338-1.038h.278l-.578,1.585a.712.712,0,0,1-.149.241.343.343,0,0,1-.262.1.511.511,0,0,1-.078-.007.648.648,0,0,1-.072-.014l.025-.2.045,0,.067,0a.153.153,0,0,0,.13-.071.714.714,0,0,0,.085-.157l.06-.144-.51-1.346H14.4Z"/><path class="cls-5" d="M16.5,32.778h-.25V30.8h.25Z"/><path class="cls-5" d="M17.451,32.8a.581.581,0,0,1-.457-.19.722.722,0,0,1-.169-.5v-.056A.706.706,0,0,1,17,31.574a.538.538,0,0,1,.413-.2.522.522,0,0,1,.42.168.668.668,0,0,1,.142.447v.156h-.891l0,.006a.543.543,0,0,0,.1.325.322.322,0,0,0,.271.127.641.641,0,0,0,.223-.036.528.528,0,0,0,.166-.1l.1.162a.592.592,0,0,1-.194.122A.785.785,0,0,1,17.451,32.8Zm-.038-1.229a.271.271,0,0,0-.214.105.5.5,0,0,0-.109.266l0,.006h.634V31.92a.381.381,0,0,0-.079-.245A.282.282,0,0,0,17.413,31.576Z"/><path class="cls-5" d="M18.7,32.373l.022.1h.007l.024-.1.316-.969h.255l-.505,1.374h-.189L18.116,31.4h.256Z"/><path class="cls-5" d="M20.1,32.8a.581.581,0,0,1-.457-.19.722.722,0,0,1-.169-.5v-.056a.706.706,0,0,1,.175-.488.538.538,0,0,1,.413-.2.522.522,0,0,1,.42.168.668.668,0,0,1,.142.447v.156h-.891l0,.006a.543.543,0,0,0,.1.325.322.322,0,0,0,.271.127.641.641,0,0,0,.223-.036.528.528,0,0,0,.166-.1l.1.162a.592.592,0,0,1-.194.122A.785.785,0,0,1,20.1,32.8Zm-.038-1.229a.271.271,0,0,0-.214.105.5.5,0,0,0-.109.266l0,.006h.634V31.92a.381.381,0,0,0-.079-.245A.282.282,0,0,0,20.063,31.576Z"/><path class="cls-5" d="M21.176,32.778h-.25V30.8h.25Z"/><path class="cls-5" d="M11.542,37h-.695V34.151h-.7v-.49l1.4-.124Z"/><path class="cls-5" d="M15.1,35.653a1.527,1.527,0,0,1-.315,1.044,1.209,1.209,0,0,1-1.713,0,1.525,1.525,0,0,1-.316-1.044V34.89a1.533,1.533,0,0,1,.315-1.044,1.2,1.2,0,0,1,1.711,0A1.525,1.525,0,0,1,15.1,34.89Zm-.693-.836a1.142,1.142,0,0,0-.124-.6.43.43,0,0,0-.714,0,1.161,1.161,0,0,0-.121.6v.9a1.156,1.156,0,0,0,.123.608.4.4,0,0,0,.36.19.4.4,0,0,0,.355-.19,1.173,1.173,0,0,0,.121-.608Z"/><path class="cls-5" d="M17.9,35.653a1.527,1.527,0,0,1-.315,1.044,1.209,1.209,0,0,1-1.713,0,1.525,1.525,0,0,1-.316-1.044V34.89a1.533,1.533,0,0,1,.315-1.044,1.2,1.2,0,0,1,1.711,0A1.525,1.525,0,0,1,17.9,34.89Zm-.693-.836a1.142,1.142,0,0,0-.124-.6.43.43,0,0,0-.714,0,1.161,1.161,0,0,0-.121.6v.9a1.156,1.156,0,0,0,.123.608.4.4,0,0,0,.36.19.4.4,0,0,0,.355-.19,1.173,1.173,0,0,0,.121-.608Z"/><path class="cls-5" d="M19.933,37h-.695V34.151h-.7v-.49l1.4-.124Z"/><polyline class="cls-7" points="8.859 46.628 10.646 44.045 15.602 45.183 22.366 39.812 23.745 40.145 26.95 35.027 30.021 33.158 34.127 26 37.865 28.933 39.764 23.977 40.79 25.115 41.44 23.002 42.09 23.733 44.121 23.002 45.259 24.139 47.534 22.108 51.271 22.108 53.871 24.545 55.496 21.295 56.043 22.108 57.771 19.264 59.234 20.483 62.402 14.795 63.946 16.989 65.49 15.933 67.927 16.014 70.446 14.361 72.802 13.658"/><g class="cls-8"><ellipse class="cls-9" cx="65.475" cy="15.773" rx="2.196" ry="2.256"/></g><ellipse class="cls-10" cx="65.475" cy="15.773" rx="2.196" ry="2.256"/><g class="cls-8"><ellipse class="cls-9" cx="15.533" cy="45.257" rx="2.196" ry="2.256"/></g><ellipse class="cls-10" cx="15.533" cy="45.257" rx="2.196" ry="2.256"/><line class="cls-10" x1="63.279" y1="15.773" x2="56.918" y2="15.773"/><line class="cls-10" x1="24.09" y1="45.257" x2="17.729" y2="45.257"/><polygon class="cls-11" points="16.36 40.311 15.533 41.478 14.707 40.311 16.36 40.311"/><line class="cls-10" x1="15.533" y1="40.666" x2="15.533" y2="38.198"/><polygon class="cls-11" points="64.987 20.951 65.813 19.784 66.64 20.951 64.987 20.951"/><line class="cls-10" x1="65.813" y1="20.597" x2="65.813" y2="23.065"/><path class="cls-4" d="M65.317,5.186a.34.34,0,0,0-.119-.264,1,1,0,0,0-.422-.18,1.379,1.379,0,0,1-.572-.258A.533.533,0,0,1,64,4.057a.56.56,0,0,1,.221-.451.877.877,0,0,1,.574-.182.852.852,0,0,1,.6.208.615.615,0,0,1,.217.482l0,.01h-.3a.432.432,0,0,0-.134-.329.658.658,0,0,0-.743-.02.343.343,0,0,0-.124.275.3.3,0,0,0,.135.251,1.278,1.278,0,0,0,.438.178,1.231,1.231,0,0,1,.556.267.569.569,0,0,1,.19.436.533.533,0,0,1-.229.449.974.974,0,0,1-.6.17,1.033,1.033,0,0,1-.611-.187.566.566,0,0,1-.258-.5l0-.009h.3a.388.388,0,0,0,.164.338.681.681,0,0,0,.4.115.63.63,0,0,0,.375-.1A.313.313,0,0,0,65.317,5.186Z"/><path class="cls-4" d="M67.49,4.975a.949.949,0,0,1-.178.6.59.59,0,0,1-.491.228.687.687,0,0,1-.278-.053.548.548,0,0,1-.2-.16v.84h-.312V4.051h.24l.049.222a.569.569,0,0,1,.21-.188.616.616,0,0,1,.292-.065.571.571,0,0,1,.5.253,1.146,1.146,0,0,1,.178.669Zm-.313-.034a.908.908,0,0,0-.114-.479.373.373,0,0,0-.339-.188.416.416,0,0,0-.23.062.455.455,0,0,0-.154.167v.829a.449.449,0,0,0,.154.165.43.43,0,0,0,.233.06.383.383,0,0,0,.336-.162.713.713,0,0,0,.114-.419Z"/><path class="cls-4" d="M68.686,4.328l-.16-.01a.358.358,0,0,0-.208.059.379.379,0,0,0-.132.165V5.768h-.312V4.051h.279l.03.251a.6.6,0,0,1,.181-.208.419.419,0,0,1,.246-.075.376.376,0,0,1,.067.006l.052.012Z"/><path class="cls-4" d="M69.67,5.8a.723.723,0,0,1-.57-.238.9.9,0,0,1-.212-.62V4.874a.879.879,0,0,1,.218-.61.672.672,0,0,1,.517-.244.651.651,0,0,1,.525.21.835.835,0,0,1,.178.559v.2H69.211l0,.008a.681.681,0,0,0,.126.405.4.4,0,0,0,.338.159.785.785,0,0,0,.278-.045.621.621,0,0,0,.207-.125l.122.2a.709.709,0,0,1-.242.151A.989.989,0,0,1,69.67,5.8Zm-.048-1.536a.337.337,0,0,0-.268.132.626.626,0,0,0-.137.332l0,.008h.792V4.7a.48.48,0,0,0-.1-.308A.351.351,0,0,0,69.623,4.265Z"/><path class="cls-4" d="M71.731,5.768c-.011-.052-.019-.1-.024-.138a.964.964,0,0,1-.011-.119.728.728,0,0,1-.228.207.581.581,0,0,1-.3.083.563.563,0,0,1-.408-.137.505.505,0,0,1-.141-.379.443.443,0,0,1,.2-.385.93.93,0,0,1,.54-.139h.34v-.17a.315.315,0,0,0-.092-.239.363.363,0,0,0-.261-.088.376.376,0,0,0-.245.077A.232.232,0,0,0,71,4.527h-.3l0-.009a.414.414,0,0,1,.177-.343.723.723,0,0,1,.481-.156.709.709,0,0,1,.47.148.523.523,0,0,1,.178.428v.827a1.742,1.742,0,0,0,.01.178.988.988,0,0,0,.035.168Zm-.519-.23a.55.55,0,0,0,.306-.087.411.411,0,0,0,.178-.2V4.973h-.351a.452.452,0,0,0-.3.095.284.284,0,0,0-.114.224.236.236,0,0,0,.071.18A.3.3,0,0,0,71.212,5.538Z"/><path class="cls-4" d="M72.391,4.941a1.154,1.154,0,0,1,.177-.668.571.571,0,0,1,.5-.254.615.615,0,0,1,.268.056.54.54,0,0,1,.2.162V3.292h.313V5.768h-.256l-.036-.211a.557.557,0,0,1-.206.183.627.627,0,0,1-.284.062.591.591,0,0,1-.492-.228.949.949,0,0,1-.178-.6Zm.313.034a.734.734,0,0,0,.106.416.371.371,0,0,0,.33.156.417.417,0,0,0,.235-.063.47.47,0,0,0,.155-.178v-.8a.486.486,0,0,0-.156-.17.42.42,0,0,0-.231-.062.359.359,0,0,0-.332.186.962.962,0,0,0-.107.482Z"/><path class="cls-4" d="M76.577,5.768h-1.5V5.552l.757-.84a2.1,2.1,0,0,0,.275-.359.573.573,0,0,0,.072-.273.437.437,0,0,0-.1-.291.335.335,0,0,0-.268-.118.46.46,0,0,0-.354.123.491.491,0,0,0-.113.345h-.3l0-.01a.648.648,0,0,1,.2-.5.778.778,0,0,1,.571-.2.679.679,0,0,1,.5.182.622.622,0,0,1,.185.463.731.731,0,0,1-.112.378,2.357,2.357,0,0,1-.313.407l-.607.66,0,.008h1.111Z"/><path class="cls-5" d="M87.33,4.68V5.769h-.6v-3h1.2a1.18,1.18,0,0,1,.814.265.883.883,0,0,1,.3.7.877.877,0,0,1-.3.692,1.189,1.189,0,0,1-.814.263Zm0-.465h.595a.5.5,0,0,0,.381-.137.487.487,0,0,0,.13-.35.513.513,0,0,0-.129-.358.492.492,0,0,0-.382-.141H87.33Z"/><path class="cls-5" d="M90.6,4.055l-.221-.007a.4.4,0,0,0-.221.056.351.351,0,0,0-.133.157V5.769h-.6V3.537h.559l.027.33a.7.7,0,0,1,.2-.273.45.45,0,0,1,.287-.1.552.552,0,0,1,.084.007l.077.018Z"/><path class="cls-5" d="M90.817,4.632a1.2,1.2,0,0,1,.278-.818,1.1,1.1,0,0,1,1.547,0,1.191,1.191,0,0,1,.28.819v.043a1.192,1.192,0,0,1-.279.82,1.1,1.1,0,0,1-1.547,0,1.192,1.192,0,0,1-.279-.82Zm.6.042a.972.972,0,0,0,.107.489.371.371,0,0,0,.347.185.367.367,0,0,0,.342-.186.96.96,0,0,0,.108-.488V4.631a.961.961,0,0,0-.109-.484.371.371,0,0,0-.345-.187.367.367,0,0,0-.342.188.963.963,0,0,0-.108.483Z"/><path class="cls-5" d="M93.451,5.769V3.959h-.332V3.537h.332V3.29a.755.755,0,0,1,.217-.579.859.859,0,0,1,.608-.2,1.082,1.082,0,0,1,.156.012c.053.008.11.018.174.032L94.554,3l-.1-.015a.884.884,0,0,0-.108-.006.288.288,0,0,0-.222.08.328.328,0,0,0-.075.231v.247H94.5v.423h-.443v1.81Z"/><path class="cls-5" d="M95.437,3h-.6V2.551h.6Zm0,2.767h-.6V3.537h.6Z"/><path class="cls-5" d="M96.649,2.99v.547h.375v.423h-.375V5.1a.26.26,0,0,0,.054.186.188.188,0,0,0,.144.056.5.5,0,0,0,.082,0,.541.541,0,0,0,.079-.018l.052.436a1.3,1.3,0,0,1-.178.047,1.124,1.124,0,0,1-.187.015.641.641,0,0,1-.479-.171.75.75,0,0,1-.168-.543V3.959H95.72V3.537h.326V2.99Z"/><path class="cls-5" d="M82.969,19.418h-.344V17.212l-.521.007v-.248l.864-.095Z"/><path class="cls-5" d="M85.609,18.45a1.14,1.14,0,0,1-.216.746.8.8,0,0,1-1.185,0,1.128,1.128,0,0,1-.218-.745v-.6a1.133,1.133,0,0,1,.218-.746.8.8,0,0,1,1.183,0,1.133,1.133,0,0,1,.218.746Zm-.344-.676a.85.85,0,0,0-.12-.5.443.443,0,0,0-.691,0,.858.858,0,0,0-.119.5v.744a.856.856,0,0,0,.12.5.4.4,0,0,0,.348.168.4.4,0,0,0,.345-.167.863.863,0,0,0,.118-.5Z"/><path class="cls-5" d="M86.7,19.184a.486.486,0,0,0,.4-.189.893.893,0,0,0,.151-.564v-.115a.547.547,0,0,1-.214.188.628.628,0,0,1-.285.064.767.767,0,0,1-.585-.229.871.871,0,0,1-.217-.627.882.882,0,0,1,.229-.627.737.737,0,0,1,.559-.244.811.811,0,0,1,.627.249,1.04,1.04,0,0,1,.229.731v.606a1.074,1.074,0,0,1-.249.763.847.847,0,0,1-.648.266,1.454,1.454,0,0,1-.272-.026.967.967,0,0,1-.249-.078l.053-.265a.778.778,0,0,0,.214.076A1.314,1.314,0,0,0,86.7,19.184Zm.055-.888a.569.569,0,0,0,.316-.082.474.474,0,0,0,.183-.209v-.22a.833.833,0,0,0-.128-.5.44.44,0,0,0-.375-.171.4.4,0,0,0-.321.168.777.777,0,0,0-.009.855A.4.4,0,0,0,86.754,18.3Z"/><path class="cls-5" d="M88.712,19.184a.486.486,0,0,0,.4-.189.893.893,0,0,0,.151-.564v-.115a.547.547,0,0,1-.214.188.628.628,0,0,1-.285.064.767.767,0,0,1-.585-.229.871.871,0,0,1-.217-.627.882.882,0,0,1,.229-.627.737.737,0,0,1,.559-.244.811.811,0,0,1,.627.249,1.04,1.04,0,0,1,.229.731v.606a1.074,1.074,0,0,1-.249.763.847.847,0,0,1-.648.266,1.454,1.454,0,0,1-.272-.026.967.967,0,0,1-.249-.078l.053-.265a.778.778,0,0,0,.214.076A1.314,1.314,0,0,0,88.712,19.184Zm.055-.888a.569.569,0,0,0,.316-.082.474.474,0,0,0,.183-.209v-.22a.833.833,0,0,0-.128-.5.44.44,0,0,0-.375-.171.4.4,0,0,0-.321.168.777.777,0,0,0-.009.855A.4.4,0,0,0,88.767,18.3Z"/><path class="cls-5" d="M91.638,18.479h-.854V18.21h.854Z"/><path class="cls-5" d="M93.778,19.418h-.344V17.212l-.521.007v-.248l.864-.095Z"/><path class="cls-5" d="M96.417,18.45a1.14,1.14,0,0,1-.216.746.8.8,0,0,1-1.185,0,1.128,1.128,0,0,1-.218-.745v-.6a1.133,1.133,0,0,1,.218-.746.8.8,0,0,1,1.183,0,1.133,1.133,0,0,1,.218.746Zm-.344-.676a.85.85,0,0,0-.12-.5.443.443,0,0,0-.691,0,.858.858,0,0,0-.119.5v.744a.856.856,0,0,0,.12.5.4.4,0,0,0,.348.168.4.4,0,0,0,.345-.167.863.863,0,0,0,.118-.5Z"/><path class="cls-5" d="M98.432,18.45a1.14,1.14,0,0,1-.216.746.8.8,0,0,1-1.185,0,1.128,1.128,0,0,1-.218-.745v-.6a1.133,1.133,0,0,1,.218-.746.8.8,0,0,1,1.183,0,1.133,1.133,0,0,1,.218.746Zm-.344-.676a.85.85,0,0,0-.12-.5.443.443,0,0,0-.691,0,.858.858,0,0,0-.119.5v.744a.856.856,0,0,0,.12.5.4.4,0,0,0,.348.168.4.4,0,0,0,.345-.167.863.863,0,0,0,.118-.5Z"/><path class="cls-5" d="M99.82,19.418h-.344V17.212l-.521.007v-.248l.864-.095Z"/><path class="cls-5" d="M102.365,17.982H100.91v-.29h1.455Zm0,.729H100.91v-.29h1.455Z"/><path class="cls-11" d="M87.321,24.068a.487.487,0,0,0,.388-.176.756.756,0,0,0,.149-.5v-.148a.684.684,0,0,1-.24.194.694.694,0,0,1-.3.065.831.831,0,0,1-.659-.273,1.079,1.079,0,0,1-.24-.739,1.039,1.039,0,0,1,.285-.748,1.034,1.034,0,0,1,1.471.019,1.278,1.278,0,0,1,.287.891v.709a1.147,1.147,0,0,1-.321.86,1.122,1.122,0,0,1-.818.313A1.685,1.685,0,0,1,87,24.5a1.439,1.439,0,0,1-.309-.094l.07-.437a1.46,1.46,0,0,0,.265.075A1.7,1.7,0,0,0,87.321,24.068Zm.1-1.009a.575.575,0,0,0,.26-.056.5.5,0,0,0,.18-.148v-.276a.9.9,0,0,0-.116-.5.359.359,0,0,0-.313-.171.345.345,0,0,0-.3.169.723.723,0,0,0-.114.413.736.736,0,0,0,.1.413A.334.334,0,0,0,87.418,23.059Z"/><path class="cls-11" d="M90.838,22.282a.686.686,0,0,1-.118.4.786.786,0,0,1-.327.271.883.883,0,0,1,.377.289.7.7,0,0,1,.139.429.771.771,0,0,1-.282.641,1.34,1.34,0,0,1-1.482,0,.767.767,0,0,1-.284-.641.7.7,0,0,1,.138-.43.884.884,0,0,1,.378-.29.788.788,0,0,1-.328-.27.687.687,0,0,1-.117-.4.763.763,0,0,1,.262-.62,1.2,1.2,0,0,1,1.383,0A.761.761,0,0,1,90.838,22.282Zm-.532,1.344a.446.446,0,0,0-.117-.323.408.408,0,0,0-.306-.121.4.4,0,0,0-.3.121.514.514,0,0,0,0,.647.453.453,0,0,0,.611,0A.445.445,0,0,0,90.306,23.625Zm-.068-1.317a.428.428,0,0,0-.1-.292.326.326,0,0,0-.259-.11.32.32,0,0,0-.258.108.438.438,0,0,0-.093.294.444.444,0,0,0,.094.3.322.322,0,0,0,.261.11.318.318,0,0,0,.257-.11A.444.444,0,0,0,90.238,22.308Z"/><path class="cls-11" d="M94.393,23.435a1.283,1.283,0,0,1-.229.8.756.756,0,0,1-.64.3.719.719,0,0,1-.312-.064.654.654,0,0,1-.233-.191v1.071h-.6V22.256h.542l.035.265a.729.729,0,0,1,.238-.227.647.647,0,0,1,.325-.079.743.743,0,0,1,.644.324,1.447,1.447,0,0,1,.229.852Zm-.6-.047a1.081,1.081,0,0,0-.105-.513.344.344,0,0,0-.322-.2.451.451,0,0,0-.231.056.405.405,0,0,0-.152.159v.979a.368.368,0,0,0,.152.145.505.505,0,0,0,.235.05.345.345,0,0,0,.321-.172.9.9,0,0,0,.1-.465Z"/><path class="cls-11" d="M95.481,21.709v.547h.375v.423h-.375v1.137a.26.26,0,0,0,.054.186.188.188,0,0,0,.144.056.5.5,0,0,0,.082,0,.541.541,0,0,0,.079-.018l.052.436a1.3,1.3,0,0,1-.178.047,1.124,1.124,0,0,1-.187.015.641.641,0,0,1-.479-.171.75.75,0,0,1-.168-.543V22.679h-.326v-.423h.326v-.547Z"/><path class="cls-11" d="M97.446,23.874a.209.209,0,0,0-.1-.171.979.979,0,0,0-.355-.128,1.433,1.433,0,0,1-.6-.238.518.518,0,0,1-.2-.43.616.616,0,0,1,.242-.49.987.987,0,0,1,.649-.2,1.064,1.064,0,0,1,.68.2.593.593,0,0,1,.242.506l0,.012h-.582a.3.3,0,0,0-.085-.219.348.348,0,0,0-.251-.084.343.343,0,0,0-.23.071.222.222,0,0,0-.083.178.2.2,0,0,0,.088.169.928.928,0,0,0,.355.118,1.432,1.432,0,0,1,.612.242.532.532,0,0,1,.2.44.586.586,0,0,1-.258.492,1.118,1.118,0,0,1-.681.19,1.034,1.034,0,0,1-.7-.226.632.632,0,0,1-.247-.515l0-.013h.551a.313.313,0,0,0,.118.26.484.484,0,0,0,.291.081.42.42,0,0,0,.255-.066A.214.214,0,0,0,97.446,23.874Z"/><path class="cls-5" d="M88.073,35.82a.486.486,0,0,0,.4-.189.893.893,0,0,0,.151-.564v-.115a.547.547,0,0,1-.214.188.628.628,0,0,1-.285.064.767.767,0,0,1-.585-.229.871.871,0,0,1-.217-.627.882.882,0,0,1,.229-.627.737.737,0,0,1,.559-.244.811.811,0,0,1,.627.249,1.04,1.04,0,0,1,.229.731v.606a1.074,1.074,0,0,1-.249.763.847.847,0,0,1-.648.266,1.454,1.454,0,0,1-.272-.026.967.967,0,0,1-.249-.078l.053-.265a.778.778,0,0,0,.214.076A1.314,1.314,0,0,0,88.073,35.82Zm.055-.888a.569.569,0,0,0,.316-.082.474.474,0,0,0,.183-.209v-.22a.833.833,0,0,0-.128-.5.44.44,0,0,0-.375-.171.4.4,0,0,0-.321.168.777.777,0,0,0-.009.855A.4.4,0,0,0,88.127,34.933Z"/><path class="cls-5" d="M90.957,34.177a.565.565,0,0,1-.111.348.663.663,0,0,1-.3.223.766.766,0,0,1,.352.241.587.587,0,0,1,.132.379.652.652,0,0,1-.229.538,1.054,1.054,0,0,1-1.2,0,.654.654,0,0,1-.229-.538.591.591,0,0,1,.13-.379.747.747,0,0,1,.349-.241.644.644,0,0,1-.3-.223.581.581,0,0,1-.107-.348.653.653,0,0,1,.206-.518.8.8,0,0,1,.548-.183.806.806,0,0,1,.547.183A.644.644,0,0,1,90.957,34.177Zm-.271,1.183a.461.461,0,0,0-.139-.344.481.481,0,0,0-.349-.134.459.459,0,0,0-.482.478.442.442,0,0,0,.133.339.564.564,0,0,0,.7,0A.437.437,0,0,0,90.685,35.359Zm-.072-1.176a.435.435,0,0,0-.117-.312.424.424,0,0,0-.595,0,.44.44,0,0,0-.113.317.426.426,0,0,0,.114.311.437.437,0,0,0,.6,0A.422.422,0,0,0,90.613,34.184Z"/><path class="cls-5" d="M93.23,34.5l.594-.992h.415l-.807,1.261.824,1.281h-.41l-.609-1.009-.611,1.009H92.21l.824-1.281-.807-1.261h.412Z"/><path class="cls-5" d="M95.921,34.625h.3a.4.4,0,0,0,.324-.114.484.484,0,0,0,.095-.318.464.464,0,0,0-.108-.332.423.423,0,0,0-.319-.113.441.441,0,0,0-.322.118.414.414,0,0,0-.121.313h-.33l0-.01a.617.617,0,0,1,.208-.49.92.92,0,0,1,1.131-.014.681.681,0,0,1,.209.535.6.6,0,0,1-.095.313.605.605,0,0,1-.286.238.554.554,0,0,1,.324.235.755.755,0,0,1-.133.906.851.851,0,0,1-.582.2.877.877,0,0,1-.575-.188.6.6,0,0,1-.219-.509l0-.01h.328a.419.419,0,0,0,.123.317.466.466,0,0,0,.338.118.472.472,0,0,0,.342-.118.459.459,0,0,0,.124-.35.4.4,0,0,0-.457-.457h-.3Z"/><path class="cls-5" d="M86.128,37.8v1.724a.77.77,0,0,1-.271.635,1.079,1.079,0,0,1-.7.221,1.015,1.015,0,0,1-.68-.222.783.783,0,0,1-.261-.634V37.8h.344v1.722a.561.561,0,0,0,.164.438.618.618,0,0,0,.433.148.677.677,0,0,0,.457-.148.547.547,0,0,0,.174-.437V37.8Z"/><path class="cls-5" d="M88.074,39.705a.372.372,0,0,0-.131-.291,1.108,1.108,0,0,0-.464-.2,1.528,1.528,0,0,1-.63-.283.586.586,0,0,1-.226-.471.618.618,0,0,1,.243-.5.965.965,0,0,1,.631-.2.942.942,0,0,1,.665.229.675.675,0,0,1,.237.53l0,.011h-.328a.471.471,0,0,0-.147-.361.723.723,0,0,0-.817-.021.378.378,0,0,0-.137.3.333.333,0,0,0,.148.276,1.416,1.416,0,0,0,.481.2,1.37,1.37,0,0,1,.611.293.626.626,0,0,1,.209.479.584.584,0,0,1-.251.494,1.071,1.071,0,0,1-.656.188,1.135,1.135,0,0,1-.673-.207.623.623,0,0,1-.284-.553l0-.011h.328a.427.427,0,0,0,.18.372.752.752,0,0,0,.445.127A.7.7,0,0,0,87.922,40,.348.348,0,0,0,88.074,39.705Z"/><path class="cls-5" d="M88.919,40.345V37.8h.78a1.044,1.044,0,0,1,1.1,1.1v.347a1.041,1.041,0,0,1-1.1,1.1Zm.344-2.271v2H89.7a.7.7,0,0,0,.556-.232.867.867,0,0,0,.2-.595V38.9a.862.862,0,0,0-.2-.591.7.7,0,0,0-.556-.232Z"/><path class="cls-5" d="M91.281,40.563h-.293l1.061-2.76h.292Z"/><path class="cls-5" d="M94.3,39.472a1.038,1.038,0,0,1-.2.659.645.645,0,0,1-.539.251.75.75,0,0,1-.307-.059.583.583,0,0,1-.224-.176v.924h-.344V38.456h.264l.054.244a.625.625,0,0,1,.23-.208.7.7,0,0,1,.321-.071.628.628,0,0,1,.545.278,1.261,1.261,0,0,1,.2.736Zm-.344-.037a1,1,0,0,0-.127-.527.411.411,0,0,0-.373-.207.459.459,0,0,0-.253.067.511.511,0,0,0-.169.184v.912a.492.492,0,0,0,.169.183.482.482,0,0,0,.257.064.424.424,0,0,0,.37-.179.782.782,0,0,0,.126-.461Z"/><path class="cls-5" d="M95.178,38v.456h.358v.255h-.358v1.146a.256.256,0,0,0,.056.188.2.2,0,0,0,.146.054.324.324,0,0,0,.065-.007.454.454,0,0,0,.063-.018l.046.235a.307.307,0,0,1-.113.052.55.55,0,0,1-.148.021.449.449,0,0,1-.334-.127.552.552,0,0,1-.124-.4V38.711h-.3v-.255h.3V38Z"/><path class="cls-5" d="M97.059,39.842a.235.235,0,0,0-.087-.187.809.809,0,0,0-.327-.128,1.391,1.391,0,0,1-.518-.2.414.414,0,0,1-.174-.35.494.494,0,0,1,.2-.393.888.888,0,0,1,1.034.008A.5.5,0,0,1,97.37,39l0,.011h-.329a.3.3,0,0,0-.1-.223.384.384,0,0,0-.274-.1.4.4,0,0,0-.272.08.252.252,0,0,0-.089.194.214.214,0,0,0,.078.176.8.8,0,0,0,.319.115,1.384,1.384,0,0,1,.532.209.422.422,0,0,1,.175.354.486.486,0,0,1-.2.406.846.846,0,0,1-.531.156A.831.831,0,0,1,96.1,40.2a.523.523,0,0,1-.2-.428l0-.011h.328a.315.315,0,0,0,.137.267.525.525,0,0,0,.3.084.492.492,0,0,0,.287-.073A.232.232,0,0,0,97.059,39.842Z"/><path class="cls-5" d="M100.19,38.908H98.735v-.29h1.455Zm0,.729H98.735v-.29h1.455Z"/><path class="cls-11" d="M86.136,45.415H84.085v-.394l.972-1.042a2.287,2.287,0,0,0,.3-.408.653.653,0,0,0,.089-.308.466.466,0,0,0-.1-.311.358.358,0,0,0-.29-.121.373.373,0,0,0-.316.142.6.6,0,0,0-.108.376h-.586l0-.012a.906.906,0,0,1,.267-.688,1,1,0,0,1,.748-.281,1.042,1.042,0,0,1,.729.241.827.827,0,0,1,.265.644.9.9,0,0,1-.149.5,4.833,4.833,0,0,1-.494.6l-.534.582,0,.011h1.263Z"/><path class="cls-11" d="M87.377,44.994a.487.487,0,0,0,.388-.176.756.756,0,0,0,.149-.5v-.148a.684.684,0,0,1-.24.194.694.694,0,0,1-.3.065.831.831,0,0,1-.659-.273,1.079,1.079,0,0,1-.24-.739,1.039,1.039,0,0,1,.285-.748,1.034,1.034,0,0,1,1.471.019,1.278,1.278,0,0,1,.287.891v.709a1.147,1.147,0,0,1-.321.86,1.122,1.122,0,0,1-.818.313,1.685,1.685,0,0,1-.322-.032,1.439,1.439,0,0,1-.309-.094l.07-.437a1.46,1.46,0,0,0,.265.075A1.7,1.7,0,0,0,87.377,44.994Zm.1-1.009a.575.575,0,0,0,.26-.056.5.5,0,0,0,.18-.148V43.5A.9.9,0,0,0,87.8,43a.359.359,0,0,0-.313-.171.345.345,0,0,0-.3.169.723.723,0,0,0-.114.413.736.736,0,0,0,.1.413A.334.334,0,0,0,87.475,43.985Z"/><path class="cls-11" d="M90.7,44.3h.341v.464H90.7v.652h-.6v-.652H88.874l-.027-.36,1.246-1.991H90.7Zm-1.291,0H90.1V43.216l-.013,0-.048.085Z"/><path class="cls-11" d="M94.863,42.411V44.4a.951.951,0,0,1-.334.779,1.331,1.331,0,0,1-.875.274,1.313,1.313,0,0,1-.869-.274.955.955,0,0,1-.332-.779V42.411h.6V44.4a.578.578,0,0,0,.159.444.618.618,0,0,0,.438.147.634.634,0,0,0,.443-.146.572.572,0,0,0,.161-.445V42.411Z"/><path class="cls-11" d="M97.01,44.631a.349.349,0,0,0-.123-.278,1.256,1.256,0,0,0-.43-.2,2.442,2.442,0,0,1-.812-.367.7.7,0,0,1-.274-.581.719.719,0,0,1,.315-.6,1.307,1.307,0,0,1,.8-.234,1.209,1.209,0,0,1,.807.263.788.788,0,0,1,.3.649l0,.012H97.01a.438.438,0,0,0-.14-.337.553.553,0,0,0-.391-.129.577.577,0,0,0-.374.107.338.338,0,0,0-.132.274.293.293,0,0,0,.142.25,1.949,1.949,0,0,0,.488.208,1.893,1.893,0,0,1,.753.365.759.759,0,0,1,.256.6.714.714,0,0,1-.3.608,1.33,1.33,0,0,1-.8.223,1.473,1.473,0,0,1-.856-.252.791.791,0,0,1-.354-.709l0-.013h.586a.463.463,0,0,0,.164.394A.741.741,0,0,0,96.5,45a.6.6,0,0,0,.376-.1A.327.327,0,0,0,97.01,44.631Z"/><path class="cls-11" d="M98.068,45.415v-3H99.1a1.239,1.239,0,0,1,.907.352,1.215,1.215,0,0,1,.357.9v.5a1.208,1.208,0,0,1-.357.9,1.242,1.242,0,0,1-.907.35Zm.6-2.539v2.075h.4a.629.629,0,0,0,.508-.219.859.859,0,0,0,.184-.571v-.5a.854.854,0,0,0-.184-.567.629.629,0,0,0-.508-.218Z"/><line class="cls-1" x1="84.982" y1="29.177" x2="99.32" y2="29.177"/></svg>