<?xml version="1.0" encoding="utf-8"?>
<!-- Generator: Adobe Illustrator 19.1.0, SVG Export Plug-In . SVG Version: 6.00 Build 0)  -->
<svg version="1.1" id="Layer_1" xmlns="http://www.w3.org/2000/svg" xmlns:xlink="http://www.w3.org/1999/xlink" x="0px" y="0px"
	 viewBox="0 0 104.75 53.36" style="enable-background:new 0 0 104.75 53.36;" xml:space="preserve">
<style type="text/css">
	.st0{fill:#F1F2F2;stroke:#C2C2C2;stroke-width:0.6542;stroke-miterlimit:10;}
	.st1{fill:none;stroke:#DFDEDE;stroke-width:0.3271;stroke-miterlimit:10;}
	.st2{fill:none;stroke:#2A3052;stroke-width:0.3271;stroke-linejoin:round;stroke-miterlimit:10;}
	.st3{fill:#2A3052;}
	.st4{fill:#6D6E71;}
	.st5{fill:none;stroke:#2A3052;stroke-width:0.9813;stroke-linecap:round;stroke-linejoin:round;stroke-miterlimit:10;}
	.st6{opacity:0.6;}
	.st7{fill:#FFFFFF;}
	.st8{fill:none;stroke:#E88024;stroke-width:0.6542;stroke-miterlimit:10;}
	.st9{fill:#E88024;}
</style>
<g>
	<rect x="79.95" y="0.33" class="st0" width="24.47" height="52.67"/>
	<g>
		<g>
			<rect x="0.33" y="0.33" class="st0" width="79.63" height="52.67"/>
			<g>
				<line class="st1" x1="1.06" y1="14.87" x2="79.55" y2="14.87"/>
				<line class="st1" x1="1.06" y1="25.86" x2="79.55" y2="25.86"/>
				<line class="st1" x1="1.06" y1="36.85" x2="79.55" y2="36.85"/>
				<line class="st1" x1="1.06" y1="47.83" x2="79.55" y2="47.83"/>
				<line class="st1" x1="10.54" y1="9.38" x2="10.54" y2="52.67"/>
				<line class="st1" x1="20.47" y1="9.38" x2="20.47" y2="52.67"/>
				<line class="st1" x1="30.4" y1="9.38" x2="30.4" y2="52.67"/>
				<line class="st1" x1="40.33" y1="9.38" x2="40.33" y2="52.67"/>
				<line class="st1" x1="50.26" y1="9.38" x2="50.26" y2="52.67"/>
				<line class="st1" x1="60.19" y1="9.38" x2="60.19" y2="52.67"/>
				<line class="st1" x1="1.06" y1="31.35" x2="79.55" y2="31.35"/>
				<line class="st1" x1="70.12" y1="9.38" x2="70.12" y2="52.67"/>
				<line class="st2" x1="1.06" y1="20.37" x2="79.55" y2="20.37"/>
				<line class="st2" x1="1.06" y1="42.34" x2="79.55" y2="42.34"/>
			</g>
			<line class="st0" x1="0.49" y1="9.05" x2="104.43" y2="9.05"/>
			<g>
				<path d="M6.23,5.44c0-0.11-0.04-0.19-0.11-0.26c-0.08-0.07-0.21-0.13-0.4-0.19c-0.33-0.1-0.58-0.21-0.75-0.34
					C4.8,4.52,4.71,4.33,4.71,4.1c0-0.23,0.1-0.42,0.29-0.56C5.2,3.39,5.45,3.32,5.75,3.32c0.3,0,0.55,0.08,0.74,0.25
					c0.19,0.16,0.28,0.37,0.28,0.61l0,0.01H6.23c0-0.13-0.04-0.24-0.13-0.32C6.01,3.79,5.89,3.75,5.74,3.75
					c-0.15,0-0.26,0.03-0.34,0.1C5.31,3.92,5.27,4,5.27,4.11c0,0.09,0.04,0.17,0.13,0.23C5.49,4.4,5.64,4.47,5.85,4.53
					c0.31,0.09,0.54,0.2,0.69,0.34S6.78,5.2,6.78,5.43C6.78,5.67,6.69,5.86,6.5,6C6.31,6.14,6.07,6.21,5.76,6.21
					c-0.3,0-0.57-0.08-0.79-0.24C4.75,5.82,4.64,5.6,4.64,5.31l0-0.01h0.54c0,0.17,0.05,0.29,0.15,0.37
					c0.1,0.08,0.24,0.12,0.42,0.12c0.15,0,0.27-0.03,0.35-0.09C6.19,5.63,6.23,5.54,6.23,5.44z"/>
				<path d="M7.7,4.35c0.06-0.09,0.14-0.17,0.24-0.22c0.09-0.05,0.2-0.08,0.31-0.08c0.21,0,0.38,0.07,0.51,0.22
					c0.12,0.14,0.18,0.37,0.18,0.67v1.24H8.38V4.92c0-0.16-0.03-0.28-0.08-0.34c-0.06-0.07-0.14-0.1-0.25-0.1
					c-0.08,0-0.14,0.01-0.2,0.04C7.79,4.55,7.74,4.59,7.7,4.64v1.53H7.14V3.16H7.7V4.35z"/>
				<path d="M9.27,5.11c0-0.31,0.09-0.57,0.26-0.76c0.17-0.2,0.41-0.3,0.71-0.3c0.3,0,0.54,0.1,0.72,0.3
					c0.17,0.2,0.26,0.45,0.26,0.77v0.04c0,0.31-0.09,0.57-0.26,0.77c-0.17,0.2-0.41,0.3-0.71,0.3c-0.3,0-0.54-0.1-0.71-0.3
					c-0.17-0.2-0.26-0.45-0.26-0.77V5.11z M9.83,5.15c0,0.19,0.03,0.34,0.1,0.46c0.07,0.11,0.17,0.17,0.32,0.17
					c0.14,0,0.25-0.06,0.32-0.17c0.07-0.12,0.1-0.27,0.1-0.46V5.11c0-0.19-0.03-0.34-0.1-0.45c-0.07-0.12-0.17-0.17-0.32-0.17
					c-0.14,0-0.25,0.06-0.31,0.18c-0.07,0.12-0.1,0.27-0.1,0.45V5.15z"/>
				<path d="M12.64,4.57l-0.2-0.01c-0.08,0-0.15,0.02-0.2,0.05c-0.05,0.04-0.09,0.08-0.12,0.15v1.41h-0.55V4.08h0.52l0.02,0.31
					c0.05-0.11,0.11-0.19,0.19-0.26c0.08-0.06,0.17-0.09,0.27-0.09c0.03,0,0.05,0,0.08,0.01c0.02,0,0.05,0.01,0.07,0.02L12.64,4.57z
					"/>
				<path d="M13.64,3.57v0.51h0.35v0.4h-0.35v1.06c0,0.08,0.02,0.14,0.05,0.17c0.03,0.03,0.08,0.05,0.13,0.05c0.03,0,0.05,0,0.08,0
					c0.02,0,0.05-0.01,0.07-0.02l0.05,0.41c-0.06,0.02-0.11,0.03-0.16,0.04s-0.11,0.01-0.17,0.01c-0.19,0-0.34-0.05-0.44-0.16
					c-0.1-0.11-0.16-0.28-0.16-0.51V4.48h-0.3v-0.4h0.3V3.57H13.64z"/>
				<path d="M16.52,6.17c-0.02-0.05-0.04-0.1-0.05-0.15s-0.02-0.11-0.03-0.16c-0.06,0.1-0.13,0.19-0.23,0.25
					c-0.09,0.07-0.21,0.1-0.33,0.1c-0.22,0-0.38-0.06-0.5-0.17c-0.12-0.11-0.17-0.27-0.17-0.46c0-0.21,0.08-0.36,0.23-0.48
					c0.16-0.11,0.38-0.17,0.68-0.17h0.31V4.77c0-0.1-0.03-0.18-0.08-0.23c-0.05-0.06-0.13-0.08-0.23-0.08
					c-0.09,0-0.16,0.02-0.21,0.07c-0.05,0.04-0.07,0.11-0.07,0.18l-0.54,0l0-0.01c-0.01-0.18,0.07-0.33,0.23-0.46
					c0.16-0.13,0.37-0.19,0.63-0.19c0.25,0,0.45,0.06,0.6,0.19s0.23,0.31,0.23,0.54v0.86c0,0.1,0.01,0.19,0.02,0.28
					c0.01,0.09,0.04,0.17,0.07,0.26H16.52z M16.01,5.79c0.1,0,0.18-0.02,0.26-0.07s0.13-0.11,0.15-0.17V5.26h-0.31
					c-0.12,0-0.21,0.03-0.27,0.09c-0.06,0.06-0.09,0.13-0.09,0.22c0,0.07,0.02,0.12,0.07,0.17C15.87,5.77,15.93,5.79,16.01,5.79z"/>
				<path d="M18.07,3.57v0.51h0.35v0.4h-0.35v1.06c0,0.08,0.02,0.14,0.05,0.17c0.03,0.03,0.08,0.05,0.13,0.05c0.03,0,0.05,0,0.08,0
					c0.02,0,0.05-0.01,0.07-0.02l0.05,0.41c-0.06,0.02-0.11,0.03-0.16,0.04s-0.11,0.01-0.17,0.01c-0.19,0-0.34-0.05-0.44-0.16
					c-0.1-0.11-0.16-0.28-0.16-0.51V4.48h-0.3v-0.4h0.3V3.57H18.07z"/>
				<path d="M20.28,4.53h0.31c0.13,0,0.23-0.04,0.29-0.1c0.06-0.07,0.1-0.17,0.1-0.29c0-0.11-0.03-0.2-0.1-0.27s-0.16-0.1-0.28-0.1
					c-0.1,0-0.19,0.03-0.26,0.09s-0.11,0.14-0.11,0.24H19.7l0-0.01c-0.01-0.22,0.08-0.4,0.25-0.54s0.39-0.21,0.65-0.21
					c0.29,0,0.52,0.07,0.69,0.21s0.26,0.34,0.26,0.59c0,0.12-0.04,0.24-0.11,0.35c-0.08,0.11-0.18,0.2-0.31,0.26
					c0.15,0.05,0.27,0.14,0.35,0.25s0.12,0.25,0.12,0.4c0,0.26-0.09,0.46-0.28,0.61c-0.18,0.15-0.42,0.22-0.71,0.22
					c-0.26,0-0.48-0.07-0.66-0.21c-0.18-0.14-0.27-0.33-0.27-0.58l0-0.01h0.54c0,0.11,0.04,0.2,0.11,0.27s0.17,0.1,0.29,0.1
					c0.13,0,0.23-0.04,0.3-0.11c0.07-0.07,0.11-0.17,0.11-0.29c0-0.15-0.04-0.26-0.11-0.32c-0.07-0.07-0.18-0.1-0.32-0.1h-0.31V4.53
					z"/>
				<path d="M25.19,3.36v1.86c0,0.32-0.1,0.56-0.31,0.73c-0.21,0.17-0.47,0.26-0.81,0.26c-0.33,0-0.6-0.08-0.8-0.26
					s-0.31-0.41-0.31-0.73V3.36h0.56v1.86c0,0.18,0.05,0.32,0.15,0.42s0.23,0.14,0.4,0.14c0.17,0,0.31-0.05,0.41-0.14
					c0.1-0.09,0.15-0.23,0.15-0.42V3.36H25.19z"/>
				<path d="M27.17,5.44c0-0.11-0.04-0.19-0.11-0.26c-0.08-0.07-0.21-0.13-0.4-0.19c-0.33-0.1-0.58-0.21-0.75-0.34
					c-0.17-0.13-0.25-0.31-0.25-0.54c0-0.23,0.1-0.42,0.29-0.56c0.19-0.15,0.44-0.22,0.74-0.22c0.3,0,0.55,0.08,0.74,0.25
					c0.19,0.16,0.28,0.37,0.28,0.61l0,0.01h-0.54c0-0.13-0.04-0.24-0.13-0.32c-0.09-0.08-0.21-0.12-0.36-0.12
					c-0.15,0-0.26,0.03-0.34,0.1C26.25,3.92,26.21,4,26.21,4.11c0,0.09,0.04,0.17,0.13,0.23c0.09,0.06,0.24,0.12,0.45,0.19
					c0.31,0.09,0.54,0.2,0.69,0.34s0.24,0.33,0.24,0.56c0,0.24-0.09,0.43-0.28,0.57c-0.19,0.14-0.43,0.21-0.74,0.21
					c-0.3,0-0.57-0.08-0.79-0.24c-0.22-0.16-0.33-0.38-0.33-0.66l0-0.01h0.54c0,0.17,0.05,0.29,0.15,0.37
					c0.1,0.08,0.24,0.12,0.42,0.12c0.15,0,0.27-0.03,0.35-0.09C27.13,5.63,27.17,5.54,27.17,5.44z"/>
				<path d="M28.15,6.17V3.36h0.95c0.34,0,0.62,0.11,0.84,0.33c0.22,0.22,0.33,0.5,0.33,0.84V5c0,0.34-0.11,0.63-0.33,0.84
					c-0.22,0.22-0.5,0.33-0.84,0.33H28.15z M28.7,3.8v1.94h0.37c0.2,0,0.36-0.07,0.47-0.21C29.65,5.4,29.71,5.22,29.71,5V4.53
					c0-0.22-0.06-0.39-0.17-0.53c-0.11-0.14-0.27-0.2-0.47-0.2H28.7z"/>
				<path d="M33.49,5.18c0,0.31-0.07,0.56-0.21,0.74c-0.14,0.19-0.34,0.28-0.59,0.28c-0.11,0-0.2-0.02-0.29-0.06
					c-0.08-0.04-0.16-0.1-0.21-0.18v1h-0.55V4.08h0.5l0.03,0.25c0.06-0.09,0.13-0.16,0.22-0.21c0.09-0.05,0.19-0.07,0.3-0.07
					c0.25,0,0.45,0.1,0.59,0.3c0.14,0.2,0.21,0.47,0.21,0.8V5.18z M32.93,5.14c0-0.2-0.03-0.36-0.1-0.48
					c-0.06-0.12-0.16-0.18-0.3-0.18c-0.08,0-0.16,0.02-0.21,0.05c-0.06,0.04-0.11,0.08-0.14,0.15v0.92c0.03,0.06,0.08,0.1,0.14,0.14
					c0.06,0.03,0.13,0.05,0.22,0.05c0.13,0,0.23-0.05,0.3-0.16c0.06-0.11,0.09-0.25,0.09-0.43V5.14z"/>
				<path d="M34.74,6.21c-0.3,0-0.53-0.1-0.71-0.29c-0.18-0.19-0.27-0.44-0.27-0.73V5.11c0-0.31,0.08-0.57,0.25-0.77
					c0.17-0.2,0.39-0.3,0.68-0.3c0.28,0,0.49,0.08,0.65,0.25c0.15,0.17,0.23,0.4,0.23,0.69v0.31h-1.23l0,0.01
					c0.01,0.14,0.06,0.25,0.14,0.34c0.08,0.09,0.19,0.13,0.33,0.13c0.12,0,0.23-0.01,0.31-0.04c0.08-0.03,0.17-0.07,0.27-0.12
					l0.15,0.35c-0.08,0.07-0.19,0.13-0.33,0.17S34.91,6.21,34.74,6.21z M34.69,4.48c-0.1,0-0.18,0.04-0.24,0.12
					c-0.06,0.08-0.1,0.18-0.11,0.31l0.01,0.01h0.68V4.87c0-0.12-0.03-0.22-0.08-0.29C34.89,4.51,34.8,4.48,34.69,4.48z"/>
				<path d="M36.98,4.57l-0.2-0.01c-0.08,0-0.15,0.02-0.2,0.05c-0.05,0.04-0.09,0.08-0.12,0.15v1.41h-0.55V4.08h0.52l0.02,0.31
					c0.05-0.11,0.11-0.19,0.19-0.26c0.08-0.06,0.17-0.09,0.27-0.09c0.03,0,0.05,0,0.08,0.01c0.02,0,0.05,0.01,0.07,0.02L36.98,4.57z
					"/>
				<path d="M40.09,5.18c0,0.31-0.07,0.56-0.21,0.74c-0.14,0.19-0.34,0.28-0.59,0.28c-0.11,0-0.2-0.02-0.29-0.06
					c-0.08-0.04-0.16-0.1-0.21-0.18v1h-0.55V4.08h0.5l0.03,0.25c0.06-0.09,0.13-0.16,0.22-0.21c0.09-0.05,0.19-0.07,0.3-0.07
					c0.25,0,0.45,0.1,0.59,0.3c0.14,0.2,0.21,0.47,0.21,0.8V5.18z M39.53,5.14c0-0.2-0.03-0.36-0.1-0.48
					c-0.06-0.12-0.16-0.18-0.3-0.18c-0.08,0-0.16,0.02-0.21,0.05c-0.06,0.04-0.11,0.08-0.14,0.15v0.92c0.03,0.06,0.08,0.1,0.14,0.14
					c0.06,0.03,0.13,0.05,0.22,0.05c0.13,0,0.23-0.05,0.3-0.16c0.06-0.11,0.09-0.25,0.09-0.43V5.14z"/>
				<path d="M40.34,5.11c0-0.31,0.09-0.57,0.26-0.76c0.17-0.2,0.41-0.3,0.71-0.3c0.3,0,0.54,0.1,0.72,0.3
					c0.17,0.2,0.26,0.45,0.26,0.77v0.04c0,0.31-0.09,0.57-0.26,0.77c-0.17,0.2-0.41,0.3-0.71,0.3c-0.3,0-0.54-0.1-0.71-0.3
					c-0.17-0.2-0.26-0.45-0.26-0.77V5.11z M40.9,5.15c0,0.19,0.03,0.34,0.1,0.46c0.07,0.11,0.17,0.17,0.32,0.17
					c0.14,0,0.25-0.06,0.32-0.17c0.07-0.12,0.1-0.27,0.1-0.46V5.11c0-0.19-0.03-0.34-0.1-0.45c-0.07-0.12-0.17-0.17-0.32-0.17
					c-0.14,0-0.25,0.06-0.31,0.18c-0.07,0.12-0.1,0.27-0.1,0.45V5.15z"/>
				<path d="M43.22,3.58h-0.56V3.16h0.56V3.58z M43.22,6.17h-0.56V4.08h0.56V6.17z"/>
				<path d="M44.18,4.08l0.02,0.3c0.07-0.11,0.15-0.19,0.25-0.25c0.1-0.06,0.21-0.09,0.34-0.09c0.21,0,0.37,0.07,0.49,0.2
					c0.12,0.13,0.18,0.34,0.18,0.62v1.3H44.9v-1.3c0-0.14-0.03-0.24-0.08-0.3c-0.06-0.06-0.14-0.09-0.25-0.09
					c-0.07,0-0.14,0.01-0.2,0.04c-0.06,0.03-0.11,0.07-0.15,0.13v1.52h-0.56V4.08H44.18z"/>
				<path d="M46.54,3.57v0.51h0.35v0.4h-0.35v1.06c0,0.08,0.02,0.14,0.05,0.17c0.03,0.03,0.08,0.05,0.13,0.05c0.03,0,0.05,0,0.08,0
					c0.02,0,0.05-0.01,0.07-0.02l0.05,0.41c-0.06,0.02-0.11,0.03-0.16,0.04s-0.11,0.01-0.17,0.01c-0.19,0-0.34-0.05-0.44-0.16
					c-0.1-0.11-0.16-0.28-0.16-0.51V4.48h-0.3v-0.4h0.3V3.57H46.54z"/>
			</g>
			<g>
				<path d="M65.86,5.58c0-0.11-0.04-0.2-0.12-0.27c-0.08-0.07-0.22-0.13-0.42-0.18c-0.24-0.06-0.44-0.15-0.57-0.26
					c-0.14-0.11-0.21-0.26-0.21-0.43c0-0.18,0.07-0.34,0.22-0.46c0.15-0.12,0.34-0.18,0.57-0.18c0.25,0,0.45,0.07,0.6,0.21
					c0.15,0.14,0.22,0.3,0.22,0.49l0,0.01h-0.3c0-0.14-0.04-0.25-0.13-0.33s-0.22-0.13-0.38-0.13c-0.16,0-0.27,0.04-0.36,0.11
					c-0.08,0.07-0.12,0.17-0.12,0.28c0,0.1,0.04,0.19,0.13,0.25s0.24,0.13,0.44,0.18c0.24,0.06,0.43,0.15,0.56,0.27
					s0.19,0.27,0.19,0.44c0,0.19-0.08,0.34-0.23,0.45c-0.15,0.12-0.35,0.17-0.6,0.17c-0.23,0-0.43-0.06-0.61-0.19
					c-0.18-0.13-0.26-0.3-0.26-0.51l0-0.01h0.3c0,0.15,0.05,0.26,0.16,0.34s0.24,0.12,0.4,0.12c0.16,0,0.28-0.03,0.37-0.1
					C65.81,5.79,65.86,5.7,65.86,5.58z"/>
				<path d="M68.03,5.37c0,0.25-0.06,0.45-0.18,0.61c-0.12,0.15-0.28,0.23-0.49,0.23c-0.11,0-0.2-0.02-0.28-0.05
					c-0.08-0.04-0.15-0.09-0.2-0.16v0.85h-0.31V4.43h0.24l0.05,0.22c0.06-0.08,0.13-0.15,0.21-0.19s0.18-0.07,0.29-0.07
					c0.21,0,0.38,0.09,0.5,0.26s0.18,0.4,0.18,0.68V5.37z M67.72,5.33c0-0.2-0.04-0.36-0.12-0.49s-0.19-0.19-0.34-0.19
					c-0.09,0-0.17,0.02-0.23,0.06s-0.11,0.1-0.15,0.17v0.84c0.04,0.07,0.09,0.13,0.15,0.17s0.14,0.06,0.23,0.06
					c0.15,0,0.26-0.05,0.34-0.16s0.11-0.25,0.11-0.42V5.33z"/>
				<path d="M69.23,4.71L69.07,4.7c-0.08,0-0.15,0.02-0.21,0.06c-0.06,0.04-0.1,0.1-0.13,0.17v1.24h-0.31V4.43h0.28l0.03,0.25
					c0.05-0.09,0.11-0.16,0.18-0.21c0.07-0.05,0.15-0.08,0.25-0.08c0.02,0,0.05,0,0.07,0.01c0.02,0,0.04,0.01,0.05,0.01L69.23,4.71z
					"/>
				<path d="M70.21,6.2c-0.24,0-0.43-0.08-0.57-0.24c-0.14-0.16-0.21-0.37-0.21-0.63V5.26c0-0.25,0.07-0.45,0.22-0.62
					c0.15-0.17,0.32-0.25,0.52-0.25c0.23,0,0.41,0.07,0.52,0.21c0.12,0.14,0.18,0.33,0.18,0.57v0.2h-1.11l0,0.01
					c0,0.17,0.04,0.3,0.13,0.41c0.08,0.11,0.19,0.16,0.34,0.16c0.11,0,0.2-0.01,0.28-0.04c0.08-0.03,0.15-0.07,0.21-0.13l0.12,0.21
					c-0.06,0.06-0.14,0.11-0.24,0.15C70.47,6.18,70.35,6.2,70.21,6.2z M70.16,4.65c-0.1,0-0.19,0.04-0.27,0.13
					c-0.07,0.09-0.12,0.2-0.14,0.34l0,0.01h0.79V5.08c0-0.12-0.03-0.23-0.1-0.31C70.39,4.69,70.29,4.65,70.16,4.65z"/>
				<path d="M72.27,6.17c-0.01-0.05-0.02-0.1-0.02-0.14c-0.01-0.04-0.01-0.08-0.01-0.12c-0.06,0.08-0.13,0.15-0.23,0.21
					c-0.09,0.06-0.19,0.08-0.3,0.08c-0.18,0-0.31-0.05-0.41-0.14s-0.14-0.22-0.14-0.38c0-0.17,0.07-0.3,0.2-0.39
					c0.13-0.09,0.31-0.14,0.54-0.14h0.34V4.98c0-0.1-0.03-0.18-0.09-0.24S72,4.65,71.88,4.65c-0.1,0-0.18,0.03-0.25,0.08
					s-0.09,0.11-0.09,0.19h-0.3l0-0.01c-0.01-0.13,0.05-0.24,0.18-0.35c0.12-0.1,0.29-0.16,0.48-0.16c0.19,0,0.35,0.05,0.47,0.15
					c0.12,0.1,0.18,0.25,0.18,0.43v0.84c0,0.06,0,0.12,0.01,0.18c0.01,0.06,0.02,0.11,0.04,0.17H72.27z M71.75,5.94
					c0.11,0,0.22-0.03,0.31-0.09c0.09-0.06,0.15-0.13,0.18-0.2V5.36h-0.35c-0.13,0-0.23,0.03-0.3,0.1s-0.11,0.14-0.11,0.23
					c0,0.08,0.02,0.14,0.07,0.18C71.59,5.91,71.66,5.94,71.75,5.94z"/>
				<path d="M72.93,5.33c0-0.28,0.06-0.5,0.18-0.68c0.12-0.17,0.28-0.26,0.5-0.26c0.1,0,0.19,0.02,0.27,0.06
					c0.08,0.04,0.14,0.09,0.2,0.16V3.66h0.31v2.51h-0.26l-0.04-0.21c-0.06,0.08-0.12,0.14-0.21,0.18C73.8,6.18,73.71,6.2,73.6,6.2
					c-0.21,0-0.37-0.08-0.49-0.23c-0.12-0.15-0.18-0.36-0.18-0.61V5.33z M73.24,5.37c0,0.18,0.04,0.32,0.11,0.42
					c0.07,0.11,0.18,0.16,0.33,0.16c0.09,0,0.17-0.02,0.23-0.06s0.12-0.1,0.16-0.18V4.89c-0.04-0.07-0.09-0.13-0.16-0.17
					c-0.06-0.04-0.14-0.06-0.23-0.06c-0.15,0-0.26,0.06-0.33,0.19s-0.11,0.29-0.11,0.49V5.37z"/>
				<path d="M77.12,6.17h-1.5V5.95l0.76-0.85c0.14-0.15,0.23-0.27,0.28-0.36c0.05-0.09,0.07-0.18,0.07-0.28
					c0-0.12-0.03-0.22-0.1-0.29c-0.07-0.08-0.16-0.12-0.27-0.12c-0.16,0-0.28,0.04-0.35,0.12s-0.11,0.2-0.11,0.35h-0.3l0-0.01
					c-0.01-0.2,0.06-0.37,0.2-0.51c0.14-0.14,0.33-0.21,0.57-0.21c0.21,0,0.37,0.06,0.5,0.18c0.12,0.12,0.19,0.28,0.19,0.47
					c0,0.13-0.04,0.26-0.11,0.38c-0.07,0.13-0.18,0.27-0.31,0.41L76,5.91l0,0.01h1.11V6.17z"/>
			</g>
		</g>
		<g>
			<path class="st3" d="M60.82,11.77h-0.85v0.67h0.98v0.2h-1.23v-1.87h1.21v0.2h-0.96v0.61h0.85V11.77z"/>
			<path class="st3" d="M61.67,11.76l0.29-0.51h0.29l-0.45,0.69l0.46,0.7h-0.29l-0.3-0.53l-0.3,0.53h-0.29l0.46-0.7l-0.45-0.69h0.29
				L61.67,11.76z"/>
			<path class="st3" d="M62.78,10.89h-0.25v-0.26h0.25V10.89z M62.78,12.64h-0.25v-1.39h0.25V12.64z"/>
			<path class="st3" d="M63.49,10.91v0.33h0.26v0.19h-0.26v0.85c0,0.06,0.01,0.11,0.04,0.14c0.03,0.03,0.06,0.04,0.11,0.04
				c0.01,0,0.03,0,0.05,0c0.02,0,0.03-0.01,0.05-0.01l0.03,0.17c-0.02,0.01-0.05,0.03-0.08,0.04c-0.04,0.01-0.07,0.01-0.11,0.01
				c-0.1,0-0.18-0.03-0.24-0.09c-0.06-0.06-0.09-0.16-0.09-0.29v-0.85h-0.22v-0.19h0.22v-0.33H63.49z"/>
			<path class="st3" d="M64.98,12.64h-0.25v-2.01h0.25V12.64z"/>
			<path class="st3" d="M65.93,12.66c-0.19,0-0.34-0.06-0.46-0.19c-0.11-0.13-0.17-0.3-0.17-0.5v-0.06c0-0.2,0.06-0.36,0.17-0.49
				s0.25-0.2,0.41-0.2c0.19,0,0.33,0.06,0.42,0.17s0.14,0.26,0.14,0.45V12h-0.89l0,0.01c0,0.13,0.04,0.24,0.1,0.33
				c0.06,0.09,0.15,0.13,0.27,0.13c0.08,0,0.16-0.01,0.22-0.04c0.06-0.02,0.12-0.06,0.17-0.1l0.1,0.16
				c-0.05,0.05-0.11,0.09-0.19,0.12C66.14,12.65,66.05,12.66,65.93,12.66z M65.89,11.42c-0.08,0-0.16,0.04-0.21,0.11
				c-0.06,0.07-0.1,0.16-0.11,0.27l0,0.01h0.63v-0.03c0-0.1-0.03-0.18-0.08-0.25C66.08,11.45,66,11.42,65.89,11.42z"/>
			<path class="st3" d="M67.18,12.23l0.02,0.1h0.01l0.02-0.1l0.32-0.98h0.26l-0.51,1.39h-0.19l-0.51-1.39h0.26L67.18,12.23z"/>
			<path class="st3" d="M68.58,12.66c-0.19,0-0.34-0.06-0.46-0.19c-0.11-0.13-0.17-0.3-0.17-0.5v-0.06c0-0.2,0.06-0.36,0.17-0.49
				s0.25-0.2,0.41-0.2c0.19,0,0.33,0.06,0.42,0.17s0.14,0.26,0.14,0.45V12h-0.89l0,0.01c0,0.13,0.04,0.24,0.1,0.33
				c0.06,0.09,0.15,0.13,0.27,0.13c0.08,0,0.16-0.01,0.22-0.04c0.06-0.02,0.12-0.06,0.17-0.1l0.1,0.16
				c-0.05,0.05-0.11,0.09-0.19,0.12C68.79,12.65,68.7,12.66,68.58,12.66z M68.54,11.42c-0.08,0-0.16,0.04-0.21,0.11
				c-0.06,0.07-0.1,0.16-0.11,0.27l0,0.01h0.63v-0.03c0-0.1-0.03-0.18-0.08-0.25C68.73,11.45,68.65,11.42,68.54,11.42z"/>
			<path class="st3" d="M69.66,12.64h-0.25v-2.01h0.25V12.64z"/>
			<path class="st3" d="M61.19,16.92h-0.65v-2.7h-0.66v-0.46l1.31-0.12V16.92z"/>
			<path class="st3" d="M63.8,16.92h-0.65v-2.7h-0.66v-0.46l1.31-0.12V16.92z"/>
			<path class="st3" d="M67.12,15.64c0,0.43-0.1,0.76-0.29,0.99s-0.46,0.34-0.8,0.34c-0.34,0-0.6-0.11-0.8-0.34
				c-0.2-0.22-0.3-0.55-0.3-0.99v-0.72c0-0.43,0.1-0.76,0.29-0.99s0.46-0.34,0.8-0.34c0.33,0,0.6,0.11,0.8,0.34s0.3,0.55,0.3,0.99
				V15.64z M66.47,14.85c0-0.26-0.04-0.45-0.12-0.57c-0.08-0.12-0.19-0.18-0.33-0.18c-0.15,0-0.26,0.06-0.33,0.18
				c-0.08,0.12-0.11,0.31-0.11,0.57v0.85c0,0.26,0.04,0.46,0.11,0.58c0.08,0.12,0.19,0.18,0.34,0.18c0.15,0,0.26-0.06,0.33-0.18
				s0.11-0.31,0.11-0.58V14.85z"/>
			<path class="st3" d="M69.02,16.92h-0.65v-2.7h-0.66v-0.46l1.31-0.12V16.92z"/>
		</g>
		<g>
			<path class="st4" d="M66.96,29.64h-0.85v0.67h0.98v0.2h-1.23v-1.87h1.21v0.2h-0.96v0.61h0.85V29.64z"/>
			<path class="st4" d="M67.8,29.63l0.29-0.51h0.29l-0.45,0.69l0.46,0.7h-0.29l-0.3-0.53l-0.3,0.53h-0.29l0.46-0.7l-0.45-0.69h0.29
				L67.8,29.63z"/>
			<path class="st4" d="M68.91,28.76h-0.25V28.5h0.25V28.76z M68.91,30.51h-0.25v-1.39h0.25V30.51z"/>
			<path class="st4" d="M69.63,28.78v0.33h0.26v0.19h-0.26v0.85c0,0.06,0.01,0.11,0.04,0.14c0.03,0.03,0.06,0.04,0.11,0.04
				c0.01,0,0.03,0,0.05,0c0.02,0,0.03-0.01,0.05-0.01l0.03,0.17c-0.02,0.01-0.05,0.03-0.08,0.04c-0.04,0.01-0.07,0.01-0.11,0.01
				c-0.1,0-0.18-0.03-0.24-0.09c-0.06-0.06-0.09-0.16-0.09-0.29v-0.85h-0.22v-0.19h0.22v-0.33H69.63z"/>
			<path class="st4" d="M71.64,30.14c0-0.06-0.02-0.1-0.06-0.14c-0.04-0.04-0.12-0.07-0.24-0.09c-0.17-0.04-0.29-0.09-0.38-0.15
				c-0.08-0.06-0.13-0.15-0.13-0.26c0-0.11,0.05-0.21,0.14-0.29c0.09-0.08,0.22-0.12,0.37-0.12c0.16,0,0.29,0.04,0.38,0.12
				c0.09,0.08,0.14,0.18,0.14,0.3l0,0.01h-0.24c0-0.06-0.03-0.12-0.08-0.16c-0.05-0.05-0.12-0.07-0.2-0.07
				c-0.09,0-0.15,0.02-0.2,0.06c-0.04,0.04-0.06,0.09-0.06,0.14c0,0.05,0.02,0.1,0.06,0.13c0.04,0.03,0.12,0.06,0.23,0.08
				c0.17,0.04,0.3,0.09,0.39,0.15c0.08,0.06,0.13,0.15,0.13,0.26c0,0.12-0.05,0.22-0.15,0.3c-0.1,0.08-0.23,0.12-0.39,0.12
				c-0.18,0-0.31-0.04-0.41-0.14c-0.1-0.09-0.15-0.19-0.14-0.31l0-0.01h0.24c0,0.09,0.04,0.16,0.1,0.2
				c0.06,0.04,0.13,0.06,0.22,0.06c0.09,0,0.16-0.02,0.21-0.05C71.62,30.25,71.64,30.2,71.64,30.14z"/>
			<path class="st4" d="M73.37,29.87c0,0.2-0.05,0.36-0.14,0.49s-0.23,0.18-0.39,0.18c-0.08,0-0.16-0.01-0.22-0.04
				c-0.06-0.03-0.12-0.07-0.16-0.13v0.68H72.2v-1.93h0.19l0.04,0.18c0.04-0.07,0.1-0.12,0.17-0.15s0.15-0.05,0.23-0.05
				c0.17,0,0.3,0.07,0.4,0.21s0.14,0.32,0.14,0.54V29.87z M73.12,29.84c0-0.16-0.03-0.29-0.09-0.39c-0.06-0.1-0.15-0.15-0.27-0.15
				c-0.07,0-0.13,0.02-0.18,0.05s-0.09,0.08-0.12,0.14v0.67c0.03,0.06,0.07,0.1,0.12,0.13s0.11,0.05,0.19,0.05
				c0.12,0,0.21-0.04,0.27-0.13c0.06-0.09,0.09-0.2,0.09-0.34V29.84z"/>
			<path class="st4" d="M73.62,29.8c0-0.21,0.06-0.38,0.17-0.51c0.11-0.13,0.26-0.2,0.45-0.2c0.19,0,0.34,0.07,0.45,0.2
				c0.11,0.13,0.17,0.3,0.17,0.51v0.03c0,0.21-0.06,0.38-0.17,0.51c-0.11,0.13-0.26,0.2-0.45,0.2s-0.34-0.07-0.45-0.2
				c-0.11-0.13-0.17-0.3-0.17-0.51V29.8z M73.87,29.83c0,0.15,0.03,0.27,0.09,0.36s0.15,0.14,0.27,0.14c0.12,0,0.21-0.05,0.27-0.14
				c0.06-0.1,0.09-0.22,0.09-0.36V29.8c0-0.15-0.03-0.27-0.09-0.36c-0.06-0.1-0.15-0.15-0.27-0.15c-0.12,0-0.21,0.05-0.27,0.15
				s-0.09,0.22-0.09,0.36V29.83z"/>
			<path class="st4" d="M75.49,28.78v0.33h0.26v0.19h-0.26v0.85c0,0.06,0.01,0.11,0.04,0.14c0.03,0.03,0.06,0.04,0.11,0.04
				c0.01,0,0.03,0,0.05,0c0.02,0,0.03-0.01,0.05-0.01l0.03,0.17c-0.02,0.01-0.05,0.03-0.08,0.04c-0.04,0.01-0.07,0.01-0.11,0.01
				c-0.1,0-0.18-0.03-0.24-0.09c-0.06-0.06-0.09-0.16-0.09-0.29v-0.85h-0.22v-0.19h0.22v-0.33H75.49z"/>
			<path class="st4" d="M67.32,34.79h-0.65v-2.7h-0.66v-0.46l1.31-0.12V34.79z"/>
			<path class="st4" d="M69.93,34.79h-0.65v-2.7h-0.66v-0.46l1.31-0.12V34.79z"/>
			<path class="st4" d="M73.26,33.51c0,0.43-0.1,0.76-0.29,0.99s-0.46,0.34-0.8,0.34c-0.34,0-0.6-0.11-0.8-0.34
				c-0.2-0.22-0.3-0.55-0.3-0.99v-0.72c0-0.43,0.1-0.76,0.29-0.99s0.46-0.34,0.8-0.34c0.33,0,0.6,0.11,0.8,0.34s0.3,0.55,0.3,0.99
				V33.51z M72.61,32.72c0-0.26-0.04-0.45-0.12-0.57c-0.08-0.12-0.19-0.18-0.33-0.18c-0.15,0-0.26,0.06-0.33,0.18
				c-0.08,0.12-0.11,0.31-0.11,0.57v0.85c0,0.26,0.04,0.46,0.11,0.58c0.08,0.12,0.19,0.18,0.34,0.18c0.15,0,0.26-0.06,0.33-0.18
				s0.11-0.31,0.11-0.58V32.72z"/>
			<path class="st4" d="M75.87,33.51c0,0.43-0.1,0.76-0.29,0.99s-0.46,0.34-0.8,0.34c-0.34,0-0.6-0.11-0.8-0.34
				c-0.2-0.22-0.3-0.55-0.3-0.99v-0.72c0-0.43,0.1-0.76,0.29-0.99s0.46-0.34,0.8-0.34c0.33,0,0.6,0.11,0.8,0.34s0.3,0.55,0.3,0.99
				V33.51z M75.22,32.72c0-0.26-0.04-0.45-0.12-0.57c-0.08-0.12-0.19-0.18-0.33-0.18c-0.15,0-0.26,0.06-0.33,0.18
				c-0.08,0.12-0.11,0.31-0.11,0.57v0.85c0,0.26,0.04,0.46,0.11,0.58c0.08,0.12,0.19,0.18,0.34,0.18c0.15,0,0.26-0.06,0.33-0.18
				s0.11-0.31,0.11-0.58V32.72z"/>
		</g>
		<g>
			<path class="st4" d="M4.44,29.86H3.59v0.67h0.98v0.2H3.34v-1.87h1.21v0.2H3.59v0.61h0.85V29.86z"/>
			<path class="st4" d="M5.28,29.85l0.29-0.51h0.29l-0.45,0.69l0.46,0.7H5.59l-0.3-0.53l-0.3,0.53H4.69l0.46-0.7L4.7,29.34h0.29
				L5.28,29.85z"/>
			<path class="st4" d="M6.39,28.98H6.14v-0.26h0.25V28.98z M6.39,30.73H6.14v-1.39h0.25V30.73z"/>
			<path class="st4" d="M7.1,29v0.33h0.26v0.19H7.1v0.85c0,0.06,0.01,0.11,0.04,0.14c0.03,0.03,0.06,0.04,0.11,0.04
				c0.01,0,0.03,0,0.05,0c0.02,0,0.03-0.01,0.05-0.01l0.03,0.17c-0.02,0.01-0.05,0.03-0.08,0.04c-0.04,0.01-0.07,0.01-0.11,0.01
				c-0.1,0-0.18-0.03-0.24-0.09c-0.06-0.06-0.09-0.16-0.09-0.29v-0.85H6.64v-0.19h0.22V29H7.1z"/>
			<path class="st4" d="M9.12,30.36c0-0.06-0.02-0.1-0.06-0.14c-0.04-0.04-0.12-0.07-0.24-0.09c-0.17-0.04-0.29-0.09-0.38-0.15
				c-0.08-0.06-0.13-0.15-0.13-0.26c0-0.11,0.05-0.21,0.14-0.29c0.09-0.08,0.22-0.12,0.37-0.12c0.16,0,0.29,0.04,0.38,0.12
				c0.09,0.08,0.14,0.18,0.14,0.3l0,0.01H9.1c0-0.06-0.03-0.12-0.08-0.16c-0.05-0.05-0.12-0.07-0.2-0.07c-0.09,0-0.15,0.02-0.2,0.06
				c-0.04,0.04-0.06,0.09-0.06,0.14c0,0.05,0.02,0.1,0.06,0.13c0.04,0.03,0.12,0.06,0.23,0.08c0.17,0.04,0.3,0.09,0.39,0.15
				c0.08,0.06,0.13,0.15,0.13,0.26c0,0.12-0.05,0.22-0.15,0.3c-0.1,0.08-0.23,0.12-0.39,0.12c-0.18,0-0.31-0.04-0.41-0.14
				c-0.1-0.09-0.15-0.19-0.14-0.31l0-0.01h0.24c0,0.09,0.04,0.16,0.1,0.2c0.06,0.04,0.13,0.06,0.22,0.06c0.09,0,0.16-0.02,0.21-0.05
				C9.09,30.47,9.12,30.42,9.12,30.36z"/>
			<path class="st4" d="M10.85,30.09c0,0.2-0.05,0.36-0.14,0.49s-0.23,0.18-0.39,0.18c-0.08,0-0.16-0.01-0.22-0.04
				c-0.06-0.03-0.12-0.07-0.16-0.13v0.68H9.68v-1.93h0.19l0.04,0.18c0.04-0.07,0.1-0.12,0.17-0.15s0.15-0.05,0.23-0.05
				c0.17,0,0.3,0.07,0.4,0.21s0.14,0.32,0.14,0.54V30.09z M10.6,30.06c0-0.16-0.03-0.29-0.09-0.39c-0.06-0.1-0.15-0.15-0.27-0.15
				c-0.07,0-0.13,0.02-0.18,0.05s-0.09,0.08-0.12,0.14v0.67c0.03,0.06,0.07,0.1,0.12,0.13s0.11,0.05,0.19,0.05
				c0.12,0,0.21-0.04,0.27-0.13c0.06-0.09,0.09-0.2,0.09-0.34V30.06z"/>
			<path class="st4" d="M11.1,30.02c0-0.21,0.06-0.38,0.17-0.51c0.11-0.13,0.26-0.2,0.45-0.2c0.19,0,0.34,0.07,0.45,0.2
				c0.11,0.13,0.17,0.3,0.17,0.51v0.03c0,0.21-0.06,0.38-0.17,0.51c-0.11,0.13-0.26,0.2-0.45,0.2s-0.34-0.07-0.45-0.2
				c-0.11-0.13-0.17-0.3-0.17-0.51V30.02z M11.35,30.05c0,0.15,0.03,0.27,0.09,0.36s0.15,0.14,0.27,0.14c0.12,0,0.21-0.05,0.27-0.14
				c0.06-0.1,0.09-0.22,0.09-0.36v-0.03c0-0.15-0.03-0.27-0.09-0.36c-0.06-0.1-0.15-0.15-0.27-0.15c-0.12,0-0.21,0.05-0.27,0.15
				s-0.09,0.22-0.09,0.36V30.05z"/>
			<path class="st4" d="M12.96,29v0.33h0.26v0.19h-0.26v0.85c0,0.06,0.01,0.11,0.04,0.14c0.03,0.03,0.06,0.04,0.11,0.04
				c0.01,0,0.03,0,0.05,0c0.02,0,0.03-0.01,0.05-0.01l0.03,0.17c-0.02,0.01-0.05,0.03-0.08,0.04c-0.04,0.01-0.07,0.01-0.11,0.01
				c-0.1,0-0.18-0.03-0.24-0.09c-0.06-0.06-0.09-0.16-0.09-0.29v-0.85H12.5v-0.19h0.22V29H12.96z"/>
			<path class="st4" d="M4.8,35.01H4.15v-2.7H3.49v-0.46l1.31-0.12V35.01z"/>
			<path class="st4" d="M8.12,33.73c0,0.43-0.1,0.76-0.29,0.99s-0.46,0.34-0.8,0.34c-0.34,0-0.6-0.11-0.8-0.34
				c-0.2-0.22-0.3-0.55-0.3-0.99v-0.72c0-0.43,0.1-0.76,0.29-0.99s0.46-0.34,0.8-0.34c0.33,0,0.6,0.11,0.8,0.34s0.3,0.55,0.3,0.99
				V33.73z M7.47,32.94c0-0.26-0.04-0.45-0.12-0.57c-0.08-0.12-0.19-0.18-0.33-0.18c-0.15,0-0.26,0.06-0.33,0.18
				c-0.08,0.12-0.11,0.31-0.11,0.57v0.85c0,0.26,0.04,0.46,0.11,0.58c0.08,0.12,0.19,0.18,0.34,0.18c0.15,0,0.26-0.06,0.33-0.18
				s0.11-0.31,0.11-0.58V32.94z"/>
			<path class="st4" d="M10.73,33.73c0,0.43-0.1,0.76-0.29,0.99s-0.46,0.34-0.8,0.34c-0.34,0-0.6-0.11-0.8-0.34
				c-0.2-0.22-0.3-0.55-0.3-0.99v-0.72c0-0.43,0.1-0.76,0.29-0.99s0.46-0.34,0.8-0.34c0.33,0,0.6,0.11,0.8,0.34s0.3,0.55,0.3,0.99
				V33.73z M10.08,32.94c0-0.26-0.04-0.45-0.12-0.57c-0.08-0.12-0.19-0.18-0.33-0.18c-0.15,0-0.26,0.06-0.33,0.18
				c-0.08,0.12-0.11,0.31-0.11,0.57v0.85c0,0.26,0.04,0.46,0.11,0.58c0.08,0.12,0.19,0.18,0.34,0.18c0.15,0,0.26-0.06,0.33-0.18
				s0.11-0.31,0.11-0.58V32.94z"/>
			<path class="st4" d="M13.34,33.73c0,0.43-0.1,0.76-0.29,0.99s-0.46,0.34-0.8,0.34c-0.34,0-0.6-0.11-0.8-0.34
				c-0.2-0.22-0.3-0.55-0.3-0.99v-0.72c0-0.43,0.1-0.76,0.29-0.99s0.46-0.34,0.8-0.34c0.33,0,0.6,0.11,0.8,0.34s0.3,0.55,0.3,0.99
				V33.73z M12.69,32.94c0-0.26-0.04-0.45-0.12-0.57c-0.08-0.12-0.19-0.18-0.33-0.18c-0.15,0-0.26,0.06-0.33,0.18
				c-0.08,0.12-0.11,0.31-0.11,0.57v0.85c0,0.26,0.04,0.46,0.11,0.58c0.08,0.12,0.19,0.18,0.34,0.18c0.15,0,0.26-0.06,0.33-0.18
				s0.11-0.31,0.11-0.58V32.94z"/>
		</g>
		<g>
			<path class="st3" d="M13.53,46.88h-0.85v0.67h0.98v0.2h-1.23v-1.87h1.21v0.2h-0.96v0.61h0.85V46.88z"/>
			<path class="st3" d="M14.37,46.87l0.29-0.51h0.29l-0.45,0.69l0.46,0.7h-0.29l-0.3-0.53l-0.3,0.53h-0.29l0.46-0.7l-0.45-0.69h0.29
				L14.37,46.87z"/>
			<path class="st3" d="M15.48,46h-0.25v-0.26h0.25V46z M15.48,47.74h-0.25v-1.39h0.25V47.74z"/>
			<path class="st3" d="M16.2,46.02v0.33h0.26v0.19H16.2v0.85c0,0.06,0.01,0.11,0.04,0.14c0.03,0.03,0.06,0.04,0.11,0.04
				c0.01,0,0.03,0,0.05,0c0.02,0,0.03-0.01,0.05-0.01l0.03,0.17c-0.02,0.01-0.05,0.03-0.08,0.04c-0.04,0.01-0.07,0.01-0.11,0.01
				c-0.1,0-0.18-0.03-0.24-0.09c-0.06-0.06-0.09-0.16-0.09-0.29v-0.85h-0.22v-0.19h0.22v-0.33H16.2z"/>
			<path class="st3" d="M17.68,47.74h-0.25v-2.01h0.25V47.74z"/>
			<path class="st3" d="M18.64,47.77c-0.19,0-0.34-0.06-0.46-0.19c-0.11-0.13-0.17-0.3-0.17-0.5v-0.06c0-0.2,0.06-0.36,0.17-0.49
				s0.25-0.2,0.41-0.2c0.19,0,0.33,0.06,0.42,0.17s0.14,0.26,0.14,0.45v0.16h-0.89l0,0.01c0,0.13,0.04,0.24,0.1,0.33
				c0.06,0.09,0.15,0.13,0.27,0.13c0.08,0,0.16-0.01,0.22-0.04c0.06-0.02,0.12-0.06,0.17-0.1l0.1,0.16
				c-0.05,0.05-0.11,0.09-0.19,0.12C18.85,47.76,18.75,47.77,18.64,47.77z M18.6,46.53c-0.08,0-0.16,0.04-0.21,0.11
				c-0.06,0.07-0.1,0.16-0.11,0.27l0,0.01h0.63v-0.03c0-0.1-0.03-0.18-0.08-0.25C18.78,46.56,18.7,46.53,18.6,46.53z"/>
			<path class="st3" d="M19.88,47.33l0.02,0.1h0.01l0.02-0.1l0.32-0.98h0.26L20,47.74h-0.19l-0.51-1.39h0.26L19.88,47.33z"/>
			<path class="st3" d="M21.29,47.77c-0.19,0-0.34-0.06-0.46-0.19c-0.11-0.13-0.17-0.3-0.17-0.5v-0.06c0-0.2,0.06-0.36,0.17-0.49
				s0.25-0.2,0.41-0.2c0.19,0,0.33,0.06,0.42,0.17s0.14,0.26,0.14,0.45v0.16h-0.89l0,0.01c0,0.13,0.04,0.24,0.1,0.33
				c0.06,0.09,0.15,0.13,0.27,0.13c0.08,0,0.16-0.01,0.22-0.04c0.06-0.02,0.12-0.06,0.17-0.1l0.1,0.16
				c-0.05,0.05-0.11,0.09-0.19,0.12C21.5,47.76,21.4,47.77,21.29,47.77z M21.25,46.53c-0.08,0-0.16,0.04-0.21,0.11
				c-0.06,0.07-0.1,0.16-0.11,0.27l0,0.01h0.63v-0.03c0-0.1-0.03-0.18-0.08-0.25C21.43,46.56,21.35,46.53,21.25,46.53z"/>
			<path class="st3" d="M22.36,47.74h-0.25v-2.01h0.25V47.74z"/>
			<path class="st3" d="M14.43,51.53c0.18,0,0.33-0.07,0.45-0.21s0.17-0.33,0.17-0.59v-0.17c-0.08,0.1-0.17,0.18-0.28,0.23
				c-0.11,0.05-0.22,0.08-0.35,0.08c-0.32,0-0.58-0.11-0.76-0.32c-0.19-0.21-0.28-0.5-0.28-0.86c0-0.35,0.11-0.64,0.33-0.87
				c0.22-0.23,0.5-0.35,0.84-0.35c0.35,0,0.64,0.12,0.86,0.37c0.22,0.25,0.33,0.59,0.33,1.04v0.83c0,0.43-0.12,0.76-0.37,1.01
				c-0.25,0.24-0.56,0.37-0.94,0.37c-0.12,0-0.24-0.01-0.37-0.04c-0.13-0.02-0.25-0.06-0.36-0.11l0.08-0.51
				c0.1,0.04,0.21,0.07,0.31,0.09C14.19,51.52,14.3,51.53,14.43,51.53z M14.54,50.35c0.11,0,0.21-0.02,0.3-0.07
				c0.09-0.04,0.15-0.1,0.21-0.17v-0.32c0-0.26-0.04-0.45-0.13-0.59c-0.09-0.13-0.21-0.2-0.36-0.2c-0.14,0-0.25,0.07-0.34,0.2
				s-0.13,0.29-0.13,0.48c0,0.2,0.04,0.36,0.12,0.48C14.28,50.29,14.39,50.35,14.54,50.35z"/>
			<path class="st3" d="M17.22,51.53c0.18,0,0.33-0.07,0.45-0.21s0.17-0.33,0.17-0.59v-0.17c-0.08,0.1-0.17,0.18-0.28,0.23
				c-0.11,0.05-0.22,0.08-0.35,0.08c-0.32,0-0.58-0.11-0.76-0.32c-0.19-0.21-0.28-0.5-0.28-0.86c0-0.35,0.11-0.64,0.33-0.87
				c0.22-0.23,0.5-0.35,0.84-0.35c0.35,0,0.64,0.12,0.86,0.37c0.22,0.25,0.33,0.59,0.33,1.04v0.83c0,0.43-0.12,0.76-0.37,1.01
				c-0.25,0.24-0.56,0.37-0.94,0.37c-0.12,0-0.24-0.01-0.37-0.04c-0.13-0.02-0.25-0.06-0.36-0.11l0.08-0.51
				c0.1,0.04,0.21,0.07,0.31,0.09C16.98,51.52,17.1,51.53,17.22,51.53z M17.33,50.35c0.11,0,0.21-0.02,0.3-0.07
				c0.09-0.04,0.15-0.1,0.21-0.17v-0.32c0-0.26-0.04-0.45-0.13-0.59c-0.09-0.13-0.21-0.2-0.36-0.2c-0.14,0-0.25,0.07-0.34,0.2
				s-0.13,0.29-0.13,0.48c0,0.2,0.04,0.36,0.12,0.48C17.07,50.29,17.19,50.35,17.33,50.35z"/>
			<path class="st3" d="M20.02,51.53c0.18,0,0.33-0.07,0.45-0.21s0.17-0.33,0.17-0.59v-0.17c-0.08,0.1-0.17,0.18-0.28,0.23
				c-0.11,0.05-0.22,0.08-0.35,0.08c-0.32,0-0.58-0.11-0.76-0.32c-0.19-0.21-0.28-0.5-0.28-0.86c0-0.35,0.11-0.64,0.33-0.87
				c0.22-0.23,0.5-0.35,0.84-0.35c0.35,0,0.64,0.12,0.86,0.37c0.22,0.25,0.33,0.59,0.33,1.04v0.83c0,0.43-0.12,0.76-0.37,1.01
				c-0.25,0.24-0.56,0.37-0.94,0.37c-0.12,0-0.24-0.01-0.37-0.04c-0.13-0.02-0.25-0.06-0.36-0.11l0.08-0.51
				c0.1,0.04,0.21,0.07,0.31,0.09C19.78,51.52,19.89,51.53,20.02,51.53z M20.13,50.35c0.11,0,0.21-0.02,0.3-0.07
				c0.09-0.04,0.15-0.1,0.21-0.17v-0.32c0-0.26-0.04-0.45-0.13-0.59c-0.09-0.13-0.21-0.2-0.36-0.2c-0.14,0-0.25,0.07-0.34,0.2
				s-0.13,0.29-0.13,0.48c0,0.2,0.04,0.36,0.12,0.48C19.87,50.29,19.98,50.35,20.13,50.35z"/>
		</g>
		<polyline class="st5" points="10.07,40.25 13.71,38.91 16.86,37.64 22.74,40.65 24.12,40.99 27.33,35.81 30.4,33.91 34.5,26.66 
			38.24,29.63 40.14,24.61 41.17,25.77 41.82,23.63 42.47,24.37 44.5,23.63 45.64,24.78 47.91,22.72 51.65,23.67 53.51,26.55 
			55.38,22.88 56.42,24.08 57.65,21.77 58.95,22.8 60.19,21.61 64.67,25.19 66.38,22.03 68.54,21.29 71.28,22.72 75.66,21.29 		"/>
		<g>
			<g class="st6">
				<ellipse class="st7" cx="64.5" cy="24.76" rx="2.2" ry="2.29"/>
			</g>
			<g>
				<ellipse class="st8" cx="64.5" cy="24.76" rx="2.2" ry="2.29"/>
			</g>
		</g>
		<g>
			<g class="st6">
				<ellipse class="st7" cx="16.83" cy="37.72" rx="2.2" ry="2.29"/>
			</g>
			<g>
				<ellipse class="st8" cx="16.83" cy="37.72" rx="2.2" ry="2.29"/>
			</g>
		</g>
		<line class="st8" x1="66" y1="26.29" x2="67.85" y2="28.17"/>
		<line class="st8" x1="15.47" y1="36.16" x2="13.7" y2="34.37"/>
		<g>
			<polygon class="st9" points="16,43.52 16.83,42.34 17.66,43.52 			"/>
			<line class="st8" x1="16.83" y1="43.16" x2="16.83" y2="45.66"/>
		</g>
		<g>
			<polygon class="st9" points="65.33,19.18 64.5,20.37 63.67,19.18 			"/>
			<line class="st8" x1="64.5" y1="19.54" x2="64.5" y2="17.04"/>
		</g>
	</g>
	<g>
		<g>
			<path class="st3" d="M88.56,5.7h1.34v0.47h-1.94V3.13h0.6V5.7z"/>
			<path class="st3" d="M90.1,5.02c0-0.34,0.09-0.61,0.28-0.83c0.19-0.22,0.44-0.32,0.77-0.32c0.33,0,0.59,0.11,0.78,0.32
				c0.19,0.21,0.28,0.49,0.28,0.83v0.04c0,0.34-0.09,0.62-0.28,0.83c-0.19,0.21-0.44,0.32-0.77,0.32c-0.33,0-0.59-0.11-0.77-0.32
				C90.19,5.68,90.1,5.4,90.1,5.06V5.02z M90.7,5.06c0,0.21,0.04,0.37,0.11,0.5c0.07,0.12,0.19,0.19,0.35,0.19
				c0.16,0,0.27-0.06,0.34-0.19s0.11-0.29,0.11-0.49V5.02c0-0.2-0.04-0.36-0.11-0.49c-0.07-0.13-0.19-0.19-0.34-0.19
				c-0.16,0-0.27,0.06-0.34,0.19c-0.07,0.13-0.11,0.29-0.11,0.49V5.06z"/>
			<path class="st3" d="M93.79,5.55c0-0.07-0.03-0.12-0.1-0.17s-0.18-0.09-0.36-0.13c-0.26-0.05-0.46-0.13-0.6-0.24
				c-0.13-0.11-0.2-0.25-0.2-0.44c0-0.2,0.08-0.36,0.24-0.5c0.16-0.14,0.38-0.2,0.65-0.2c0.28,0,0.51,0.07,0.68,0.2
				c0.17,0.13,0.25,0.31,0.24,0.51l0,0.01h-0.58c0-0.09-0.03-0.17-0.09-0.22c-0.06-0.06-0.14-0.09-0.25-0.09
				c-0.1,0-0.17,0.02-0.23,0.07s-0.08,0.11-0.08,0.18c0,0.07,0.03,0.13,0.09,0.17c0.06,0.04,0.18,0.08,0.36,0.12
				c0.27,0.06,0.48,0.14,0.61,0.25c0.13,0.11,0.2,0.26,0.2,0.45c0,0.2-0.09,0.37-0.26,0.5c-0.17,0.13-0.4,0.19-0.68,0.19
				c-0.3,0-0.53-0.08-0.7-0.23c-0.17-0.15-0.25-0.33-0.25-0.52l0-0.01h0.55c0,0.12,0.04,0.21,0.12,0.26
				c0.07,0.05,0.17,0.08,0.29,0.08c0.11,0,0.2-0.02,0.25-0.07C93.76,5.69,93.79,5.63,93.79,5.55z"/>
			<path class="st3" d="M95.96,5.55c0-0.07-0.03-0.12-0.1-0.17s-0.18-0.09-0.36-0.13c-0.26-0.05-0.46-0.13-0.6-0.24
				c-0.13-0.11-0.2-0.25-0.2-0.44c0-0.2,0.08-0.36,0.24-0.5c0.16-0.14,0.38-0.2,0.65-0.2c0.28,0,0.51,0.07,0.68,0.2
				c0.17,0.13,0.25,0.31,0.24,0.51l0,0.01h-0.58c0-0.09-0.03-0.17-0.09-0.22c-0.06-0.06-0.14-0.09-0.25-0.09
				c-0.1,0-0.17,0.02-0.23,0.07s-0.08,0.11-0.08,0.18c0,0.07,0.03,0.13,0.09,0.17c0.06,0.04,0.18,0.08,0.36,0.12
				c0.27,0.06,0.48,0.14,0.61,0.25c0.13,0.11,0.2,0.26,0.2,0.45c0,0.2-0.09,0.37-0.26,0.5c-0.17,0.13-0.4,0.19-0.68,0.19
				c-0.3,0-0.53-0.08-0.7-0.23c-0.17-0.15-0.25-0.33-0.25-0.52l0-0.01h0.55c0,0.12,0.04,0.21,0.12,0.26
				C95.4,5.77,95.5,5.8,95.62,5.8c0.11,0,0.2-0.02,0.25-0.07C95.93,5.69,95.96,5.63,95.96,5.55z"/>
		</g>
	</g>
	<g>
		<path class="st3" d="M83.61,19.76c0.17,0,0.3-0.06,0.4-0.19c0.1-0.13,0.15-0.32,0.15-0.57v-0.12c-0.06,0.08-0.13,0.15-0.21,0.19
			s-0.18,0.06-0.29,0.06c-0.25,0-0.44-0.08-0.58-0.23c-0.14-0.15-0.22-0.37-0.22-0.64c0-0.26,0.08-0.47,0.23-0.63
			c0.15-0.17,0.34-0.25,0.56-0.25c0.27,0,0.47,0.08,0.63,0.25c0.15,0.17,0.23,0.42,0.23,0.74v0.61c0,0.34-0.08,0.59-0.25,0.77
			c-0.17,0.18-0.38,0.27-0.65,0.27c-0.09,0-0.18-0.01-0.27-0.03c-0.09-0.02-0.18-0.04-0.25-0.08l0.05-0.27
			c0.07,0.04,0.14,0.06,0.21,0.08S83.52,19.76,83.61,19.76z M83.67,18.86c0.13,0,0.23-0.03,0.32-0.08c0.08-0.06,0.15-0.13,0.18-0.21
			v-0.22c0-0.22-0.04-0.39-0.13-0.51c-0.09-0.12-0.21-0.17-0.37-0.17c-0.13,0-0.23,0.06-0.32,0.17s-0.13,0.26-0.13,0.44
			c0,0.18,0.04,0.32,0.12,0.43S83.53,18.86,83.67,18.86z"/>
		<path class="st3" d="M85.63,19.76c0.17,0,0.3-0.06,0.4-0.19c0.1-0.13,0.15-0.32,0.15-0.57v-0.12c-0.06,0.08-0.13,0.15-0.21,0.19
			s-0.18,0.06-0.29,0.06c-0.25,0-0.44-0.08-0.58-0.23c-0.14-0.15-0.22-0.37-0.22-0.64c0-0.26,0.08-0.47,0.23-0.63
			c0.15-0.17,0.34-0.25,0.56-0.25c0.27,0,0.47,0.08,0.63,0.25c0.15,0.17,0.23,0.42,0.23,0.74v0.61c0,0.34-0.08,0.59-0.25,0.77
			c-0.17,0.18-0.38,0.27-0.65,0.27c-0.09,0-0.18-0.01-0.27-0.03c-0.09-0.02-0.18-0.04-0.25-0.08l0.05-0.27
			c0.07,0.04,0.14,0.06,0.21,0.08S85.53,19.76,85.63,19.76z M85.68,18.86c0.13,0,0.23-0.03,0.32-0.08c0.08-0.06,0.15-0.13,0.18-0.21
			v-0.22c0-0.22-0.04-0.39-0.13-0.51c-0.09-0.12-0.21-0.17-0.37-0.17c-0.13,0-0.23,0.06-0.32,0.17s-0.13,0.26-0.13,0.44
			c0,0.18,0.04,0.32,0.12,0.43S85.54,18.86,85.68,18.86z"/>
		<path class="st3" d="M87.64,19.76c0.17,0,0.3-0.06,0.4-0.19c0.1-0.13,0.15-0.32,0.15-0.57v-0.12c-0.06,0.08-0.13,0.15-0.21,0.19
			s-0.18,0.06-0.29,0.06c-0.25,0-0.44-0.08-0.58-0.23c-0.14-0.15-0.22-0.37-0.22-0.64c0-0.26,0.08-0.47,0.23-0.63
			c0.15-0.17,0.34-0.25,0.56-0.25c0.27,0,0.47,0.08,0.63,0.25c0.15,0.17,0.23,0.42,0.23,0.74v0.61c0,0.34-0.08,0.59-0.25,0.77
			c-0.17,0.18-0.38,0.27-0.65,0.27c-0.09,0-0.18-0.01-0.27-0.03c-0.09-0.02-0.18-0.04-0.25-0.08l0.05-0.27
			c0.07,0.04,0.14,0.06,0.21,0.08S87.54,19.76,87.64,19.76z M87.69,18.86c0.13,0,0.23-0.03,0.32-0.08c0.08-0.06,0.15-0.13,0.18-0.21
			v-0.22c0-0.22-0.04-0.39-0.13-0.51c-0.09-0.12-0.21-0.17-0.37-0.17c-0.13,0-0.23,0.06-0.32,0.17s-0.13,0.26-0.13,0.44
			c0,0.18,0.04,0.32,0.12,0.43S87.55,18.86,87.69,18.86z"/>
		<path class="st3" d="M90.57,19.05h-0.86v-0.27h0.86V19.05z"/>
		<path class="st3" d="M92.71,20h-0.34v-2.24l-0.52,0.01v-0.25l0.86-0.1V20z"/>
		<path class="st3" d="M94.72,20h-0.34v-2.24l-0.52,0.01v-0.25l0.86-0.1V20z"/>
		<path class="st3" d="M97.36,19.02c0,0.33-0.07,0.58-0.22,0.76c-0.14,0.17-0.34,0.26-0.59,0.26c-0.25,0-0.45-0.09-0.59-0.26
			s-0.22-0.43-0.22-0.75V18.4c0-0.33,0.07-0.58,0.22-0.76c0.15-0.18,0.34-0.26,0.59-0.26c0.25,0,0.45,0.09,0.59,0.26
			c0.15,0.18,0.22,0.43,0.22,0.76V19.02z M97.01,18.33c0-0.22-0.04-0.39-0.12-0.5s-0.2-0.17-0.35-0.17s-0.27,0.06-0.35,0.17
			s-0.12,0.28-0.12,0.5v0.75c0,0.22,0.04,0.39,0.12,0.5c0.08,0.11,0.2,0.17,0.35,0.17c0.15,0,0.27-0.06,0.34-0.17
			c0.08-0.11,0.12-0.28,0.12-0.51V18.33z"/>
		<path class="st3" d="M98.75,20H98.4v-2.24l-0.52,0.01v-0.25l0.86-0.1V20z"/>
		<path class="st3" d="M102.18,18.54h-1.46v-0.29h1.46V18.54z M102.18,19.28h-1.46v-0.29h1.46V19.28z"/>
		<path class="st9" d="M86.98,25.13h-0.6v-2.5h-0.61V22.2l1.21-0.11V25.13z"/>
		<path class="st9" d="M90.07,23.95c0,0.4-0.09,0.71-0.27,0.92s-0.43,0.31-0.74,0.31c-0.31,0-0.56-0.1-0.75-0.31
			c-0.18-0.21-0.27-0.51-0.27-0.92v-0.67c0-0.4,0.09-0.71,0.27-0.92c0.18-0.21,0.43-0.31,0.74-0.31c0.31,0,0.56,0.1,0.74,0.31
			c0.18,0.21,0.28,0.51,0.28,0.92V23.95z M89.47,23.21c0-0.24-0.04-0.42-0.11-0.53c-0.07-0.11-0.17-0.17-0.31-0.17
			c-0.14,0-0.24,0.06-0.31,0.17c-0.07,0.11-0.1,0.29-0.1,0.53V24c0,0.25,0.04,0.42,0.11,0.53c0.07,0.11,0.18,0.17,0.31,0.17
			c0.13,0,0.24-0.06,0.31-0.17s0.11-0.29,0.11-0.53V23.21z"/>
		<path class="st9" d="M92.52,25.13h-2.05v-0.4l0.97-1.05c0.14-0.16,0.24-0.3,0.3-0.41s0.09-0.22,0.09-0.31
			c0-0.13-0.03-0.23-0.1-0.31c-0.07-0.08-0.16-0.12-0.29-0.12c-0.14,0-0.24,0.05-0.32,0.14c-0.07,0.09-0.11,0.22-0.11,0.38h-0.59
			l0-0.01c-0.01-0.27,0.08-0.51,0.27-0.7c0.19-0.19,0.43-0.29,0.75-0.29c0.31,0,0.55,0.08,0.73,0.24s0.27,0.38,0.27,0.65
			c0,0.18-0.05,0.35-0.15,0.51s-0.26,0.36-0.49,0.61l-0.53,0.59l0,0.01h1.26V25.13z"/>
		<path class="st9" d="M95.98,24.07c0,0.33-0.08,0.6-0.23,0.81c-0.15,0.2-0.37,0.3-0.64,0.3c-0.12,0-0.22-0.02-0.31-0.07
			c-0.09-0.04-0.17-0.11-0.23-0.19V26h-0.6v-3.13h0.54l0.04,0.27c0.07-0.1,0.15-0.18,0.24-0.23s0.2-0.08,0.33-0.08
			c0.28,0,0.49,0.11,0.64,0.33s0.23,0.51,0.23,0.86V24.07z M95.38,24.02c0-0.21-0.04-0.39-0.1-0.52c-0.07-0.13-0.18-0.2-0.32-0.2
			c-0.09,0-0.17,0.02-0.23,0.06c-0.06,0.04-0.11,0.09-0.15,0.16v0.99c0.04,0.06,0.09,0.11,0.15,0.15s0.14,0.05,0.24,0.05
			c0.15,0,0.25-0.06,0.32-0.17c0.07-0.12,0.1-0.27,0.1-0.47V24.02z"/>
		<path class="st9" d="M97.07,22.32v0.55h0.38v0.43h-0.38v1.15c0,0.09,0.02,0.15,0.05,0.19s0.08,0.06,0.14,0.06
			c0.03,0,0.06,0,0.08-0.01c0.02,0,0.05-0.01,0.08-0.02l0.05,0.44c-0.06,0.02-0.12,0.04-0.18,0.05c-0.06,0.01-0.12,0.02-0.19,0.02
			c-0.21,0-0.37-0.06-0.48-0.17c-0.11-0.12-0.17-0.3-0.17-0.55V23.3h-0.33v-0.43h0.33v-0.55H97.07z"/>
		<path class="st9" d="M99.04,24.51c0-0.07-0.03-0.12-0.1-0.17s-0.18-0.09-0.36-0.13c-0.26-0.05-0.46-0.13-0.6-0.24
			c-0.13-0.11-0.2-0.25-0.2-0.44c0-0.2,0.08-0.36,0.24-0.5s0.38-0.2,0.65-0.2c0.28,0,0.51,0.07,0.68,0.2
			c0.17,0.13,0.25,0.31,0.24,0.51l0,0.01h-0.58c0-0.09-0.03-0.17-0.09-0.22c-0.06-0.06-0.14-0.09-0.25-0.09
			c-0.1,0-0.17,0.02-0.23,0.07s-0.08,0.11-0.08,0.18c0,0.07,0.03,0.13,0.09,0.17c0.06,0.04,0.18,0.08,0.36,0.12
			c0.27,0.06,0.48,0.14,0.61,0.25c0.13,0.11,0.2,0.26,0.2,0.45c0,0.2-0.09,0.37-0.26,0.5c-0.17,0.13-0.4,0.19-0.68,0.19
			c-0.3,0-0.53-0.08-0.7-0.23c-0.17-0.15-0.25-0.33-0.25-0.52l0-0.01h0.55c0,0.12,0.04,0.21,0.12,0.26
			c0.07,0.05,0.17,0.08,0.29,0.08c0.11,0,0.2-0.02,0.25-0.07C99.01,24.65,99.04,24.59,99.04,24.51z"/>
	</g>
	<g>
		<path class="st3" d="M87.74,36.85H87.4v-2.24l-0.52,0.01v-0.25l0.86-0.1V36.85z"/>
		<path class="st3" d="M90.38,35.87c0,0.33-0.07,0.58-0.22,0.76c-0.14,0.17-0.34,0.26-0.59,0.26c-0.25,0-0.45-0.09-0.59-0.26
			s-0.22-0.43-0.22-0.75v-0.61c0-0.33,0.07-0.58,0.22-0.76c0.15-0.18,0.34-0.26,0.59-0.26c0.25,0,0.45,0.09,0.59,0.26
			c0.15,0.18,0.22,0.43,0.22,0.76V35.87z M90.04,35.18c0-0.22-0.04-0.39-0.12-0.5s-0.2-0.17-0.35-0.17s-0.27,0.06-0.35,0.17
			s-0.12,0.28-0.12,0.5v0.75c0,0.22,0.04,0.39,0.12,0.5c0.08,0.11,0.2,0.17,0.35,0.17c0.15,0,0.27-0.06,0.34-0.17
			c0.08-0.11,0.12-0.28,0.12-0.51V35.18z"/>
		<path class="st3" d="M92.43,36.85h-1.65v-0.24l0.83-0.94c0.15-0.17,0.25-0.3,0.3-0.4c0.05-0.1,0.08-0.2,0.08-0.3
			c0-0.13-0.04-0.24-0.11-0.33s-0.17-0.13-0.29-0.13c-0.18,0-0.31,0.05-0.39,0.14c-0.08,0.09-0.12,0.22-0.12,0.38h-0.33l0-0.01
			c-0.01-0.22,0.07-0.41,0.22-0.56c0.15-0.15,0.36-0.23,0.63-0.23c0.23,0,0.41,0.07,0.55,0.2s0.2,0.31,0.2,0.52
			c0,0.14-0.04,0.28-0.12,0.42c-0.08,0.14-0.2,0.29-0.34,0.45l-0.67,0.74l0,0.01h1.22V36.85z"/>
		<path class="st3" d="M94.61,35.28l0.59-1h0.42l-0.81,1.28l0.82,1.3h-0.41l-0.61-1.02l-0.61,1.02H93.6l0.82-1.3l-0.81-1.28h0.41
			L94.61,35.28z"/>
		<path class="st3" d="M97.31,35.4h0.3c0.15,0,0.26-0.04,0.32-0.12s0.1-0.19,0.1-0.32c0-0.15-0.04-0.26-0.11-0.34
			c-0.07-0.08-0.18-0.12-0.32-0.12c-0.13,0-0.24,0.04-0.32,0.12c-0.08,0.08-0.12,0.18-0.12,0.32h-0.33l0-0.01
			c-0.01-0.19,0.06-0.36,0.21-0.5c0.15-0.14,0.33-0.2,0.57-0.2c0.24,0,0.42,0.06,0.56,0.19c0.14,0.13,0.21,0.31,0.21,0.54
			c0,0.11-0.03,0.21-0.09,0.32c-0.06,0.11-0.16,0.19-0.29,0.24c0.15,0.05,0.26,0.13,0.32,0.24s0.1,0.23,0.1,0.36
			c0,0.23-0.08,0.42-0.23,0.55c-0.15,0.13-0.35,0.2-0.58,0.2c-0.23,0-0.42-0.06-0.58-0.19c-0.15-0.13-0.22-0.3-0.22-0.51l0-0.01
			h0.33c0,0.13,0.04,0.24,0.12,0.32s0.19,0.12,0.34,0.12c0.15,0,0.26-0.04,0.34-0.12s0.12-0.2,0.12-0.35c0-0.16-0.04-0.28-0.11-0.35
			c-0.07-0.08-0.19-0.11-0.35-0.11h-0.3V35.4z"/>
		<path class="st3" d="M86.51,38.62v1.75c0,0.28-0.09,0.5-0.27,0.64s-0.41,0.22-0.7,0.22c-0.28,0-0.51-0.07-0.68-0.22
			s-0.26-0.36-0.26-0.64v-1.75h0.34v1.74c0,0.2,0.05,0.34,0.16,0.44s0.25,0.15,0.43,0.15c0.19,0,0.34-0.05,0.46-0.15
			c0.12-0.1,0.17-0.25,0.17-0.44v-1.74H86.51z"/>
		<path class="st3" d="M88.45,40.54c0-0.12-0.04-0.21-0.13-0.29c-0.09-0.08-0.24-0.15-0.46-0.2c-0.27-0.06-0.48-0.16-0.63-0.29
			C87.08,39.64,87,39.48,87,39.29c0-0.2,0.08-0.37,0.24-0.5c0.16-0.13,0.37-0.2,0.63-0.2c0.28,0,0.5,0.08,0.66,0.23
			s0.24,0.33,0.24,0.54l0,0.01h-0.33c0-0.15-0.05-0.27-0.15-0.37c-0.1-0.09-0.24-0.14-0.42-0.14c-0.17,0-0.3,0.04-0.39,0.12
			c-0.09,0.08-0.14,0.18-0.14,0.31c0,0.11,0.05,0.21,0.15,0.28c0.1,0.08,0.26,0.14,0.48,0.2c0.27,0.07,0.47,0.17,0.61,0.3
			s0.21,0.29,0.21,0.49c0,0.21-0.08,0.37-0.25,0.5s-0.39,0.19-0.66,0.19c-0.25,0-0.48-0.07-0.67-0.21c-0.2-0.14-0.29-0.33-0.28-0.56
			l0-0.01h0.33c0,0.17,0.06,0.29,0.18,0.38c0.12,0.09,0.27,0.13,0.45,0.13c0.17,0,0.31-0.04,0.41-0.11
			C88.4,40.77,88.45,40.67,88.45,40.54z"/>
		<path class="st3" d="M89.3,41.19v-2.57h0.78c0.33,0,0.6,0.1,0.8,0.31c0.2,0.21,0.3,0.47,0.3,0.8v0.35c0,0.33-0.1,0.6-0.3,0.8
			c-0.2,0.21-0.47,0.31-0.8,0.31H89.3z M89.64,38.89v2.03h0.44c0.23,0,0.42-0.08,0.56-0.23c0.14-0.16,0.2-0.36,0.2-0.6v-0.36
			c0-0.24-0.07-0.44-0.2-0.6c-0.14-0.16-0.32-0.24-0.56-0.24H89.64z"/>
		<path class="st3" d="M91.66,41.41h-0.29l1.06-2.79h0.29L91.66,41.41z"/>
		<path class="st3" d="M94.68,40.31c0,0.28-0.06,0.5-0.2,0.67s-0.31,0.25-0.54,0.25c-0.12,0-0.22-0.02-0.31-0.06
			c-0.09-0.04-0.16-0.1-0.22-0.18v0.94h-0.34v-2.65h0.26l0.05,0.25c0.06-0.09,0.14-0.16,0.23-0.21s0.2-0.07,0.32-0.07
			c0.23,0,0.42,0.09,0.55,0.28c0.13,0.19,0.19,0.44,0.19,0.75V40.31z M94.34,40.27c0-0.22-0.04-0.39-0.13-0.53s-0.21-0.21-0.37-0.21
			c-0.1,0-0.18,0.02-0.25,0.07s-0.13,0.11-0.17,0.19v0.92c0.04,0.08,0.1,0.14,0.17,0.18c0.07,0.04,0.16,0.07,0.26,0.07
			c0.16,0,0.29-0.06,0.37-0.18c0.08-0.12,0.13-0.28,0.13-0.47V40.27z"/>
		<path class="st3" d="M95.56,38.82v0.46h0.36v0.26h-0.36v1.16c0,0.09,0.02,0.15,0.05,0.19c0.04,0.04,0.09,0.05,0.15,0.05
			c0.02,0,0.04,0,0.07-0.01c0.02,0,0.04-0.01,0.06-0.02l0.05,0.24c-0.03,0.02-0.06,0.04-0.11,0.05c-0.05,0.01-0.1,0.02-0.15,0.02
			c-0.14,0-0.25-0.04-0.33-0.13c-0.08-0.09-0.12-0.22-0.12-0.4v-1.16h-0.3v-0.26h0.3v-0.46H95.56z"/>
		<path class="st3" d="M97.44,40.68c0-0.08-0.03-0.14-0.09-0.19s-0.17-0.09-0.33-0.13c-0.23-0.05-0.4-0.12-0.52-0.21
			c-0.12-0.09-0.17-0.2-0.17-0.35c0-0.16,0.06-0.29,0.2-0.4s0.3-0.16,0.51-0.16c0.22,0,0.4,0.06,0.52,0.17
			c0.13,0.11,0.19,0.25,0.19,0.42l0,0.01h-0.33c0-0.08-0.03-0.16-0.1-0.23c-0.07-0.07-0.16-0.1-0.27-0.1
			c-0.12,0-0.21,0.03-0.27,0.08c-0.06,0.05-0.09,0.12-0.09,0.2c0,0.08,0.03,0.13,0.08,0.18c0.05,0.04,0.16,0.08,0.32,0.12
			c0.24,0.05,0.42,0.12,0.53,0.21c0.12,0.09,0.17,0.21,0.17,0.36c0,0.17-0.07,0.31-0.2,0.41c-0.14,0.1-0.31,0.16-0.53,0.16
			c-0.24,0-0.43-0.06-0.57-0.19c-0.14-0.12-0.2-0.27-0.2-0.43l0-0.01h0.33c0.01,0.12,0.05,0.21,0.14,0.27s0.18,0.08,0.3,0.08
			c0.12,0,0.22-0.02,0.29-0.08C97.4,40.83,97.44,40.77,97.44,40.68z"/>
		<path class="st3" d="M100.57,39.74h-1.46v-0.29h1.46V39.74z M100.57,40.48h-1.46v-0.29h1.46V40.48z"/>
		<path class="st9" d="M85.07,44.55h0.34c0.14,0,0.25-0.04,0.32-0.11c0.07-0.08,0.1-0.18,0.1-0.32c0-0.12-0.03-0.22-0.1-0.29
			c-0.07-0.07-0.17-0.11-0.3-0.11c-0.11,0-0.21,0.03-0.28,0.1c-0.08,0.07-0.12,0.15-0.12,0.26h-0.58l0-0.01
			c-0.01-0.24,0.08-0.43,0.27-0.59s0.42-0.23,0.7-0.23c0.31,0,0.56,0.08,0.74,0.23s0.28,0.36,0.28,0.64c0,0.13-0.04,0.26-0.12,0.38
			s-0.2,0.21-0.34,0.28c0.17,0.06,0.29,0.15,0.38,0.28s0.13,0.27,0.13,0.43c0,0.28-0.1,0.5-0.3,0.66s-0.46,0.24-0.77,0.24
			c-0.28,0-0.52-0.08-0.72-0.22c-0.2-0.15-0.3-0.36-0.29-0.63l0-0.01h0.58c0,0.12,0.04,0.21,0.12,0.29
			c0.08,0.08,0.19,0.11,0.31,0.11c0.14,0,0.25-0.04,0.33-0.12c0.08-0.08,0.12-0.18,0.12-0.32c0-0.16-0.04-0.28-0.12-0.35
			s-0.2-0.11-0.35-0.11h-0.34V44.55z"/>
		<path class="st9" d="M88.91,45.14c0,0.4-0.09,0.71-0.27,0.92s-0.43,0.31-0.74,0.31c-0.31,0-0.56-0.1-0.75-0.31
			c-0.18-0.21-0.27-0.51-0.27-0.92v-0.67c0-0.4,0.09-0.71,0.27-0.92c0.18-0.21,0.43-0.31,0.74-0.31c0.31,0,0.56,0.1,0.74,0.31
			c0.18,0.21,0.28,0.51,0.28,0.92V45.14z M88.31,44.41c0-0.24-0.04-0.42-0.11-0.53c-0.07-0.11-0.17-0.17-0.31-0.17
			c-0.14,0-0.24,0.06-0.31,0.17c-0.07,0.11-0.1,0.29-0.1,0.53v0.79c0,0.25,0.04,0.42,0.11,0.53c0.07,0.11,0.18,0.17,0.31,0.17
			c0.13,0,0.24-0.06,0.31-0.17s0.11-0.29,0.11-0.53V44.41z"/>
		<path class="st9" d="M90.52,43.24c0.11,0,0.22,0.01,0.31,0.03s0.19,0.05,0.29,0.09l-0.11,0.45c-0.09-0.03-0.17-0.06-0.24-0.07
			c-0.07-0.02-0.15-0.02-0.25-0.02c-0.18,0-0.33,0.07-0.44,0.21c-0.11,0.14-0.16,0.33-0.15,0.58l0.01,0.01
			c0.07-0.07,0.15-0.13,0.26-0.17c0.1-0.04,0.22-0.06,0.35-0.06c0.27,0,0.48,0.1,0.63,0.29c0.15,0.19,0.23,0.44,0.23,0.74
			c0,0.31-0.09,0.56-0.28,0.76c-0.19,0.2-0.43,0.3-0.73,0.3c-0.32,0-0.58-0.11-0.78-0.33c-0.2-0.22-0.3-0.52-0.3-0.91v-0.59
			c0-0.4,0.11-0.72,0.34-0.95C89.88,43.36,90.17,43.24,90.52,43.24z M90.38,44.75c-0.11,0-0.21,0.02-0.28,0.05
			c-0.08,0.04-0.14,0.08-0.18,0.15v0.2c0,0.24,0.04,0.42,0.13,0.55c0.09,0.13,0.2,0.19,0.34,0.19c0.12,0,0.22-0.06,0.3-0.17
			c0.08-0.11,0.11-0.25,0.11-0.42c0-0.17-0.04-0.3-0.11-0.41C90.61,44.8,90.51,44.75,90.38,44.75z"/>
		<path class="st9" d="M95.24,43.28v2.02c0,0.34-0.11,0.6-0.33,0.79c-0.22,0.19-0.51,0.28-0.87,0.28c-0.36,0-0.65-0.09-0.87-0.28
			c-0.22-0.18-0.33-0.45-0.33-0.79v-2.02h0.6v2.02c0,0.2,0.05,0.35,0.16,0.45s0.25,0.15,0.44,0.15c0.19,0,0.34-0.05,0.44-0.15
			c0.11-0.1,0.16-0.25,0.16-0.45v-2.02H95.24z"/>
		<path class="st9" d="M97.39,45.53c0-0.12-0.04-0.21-0.12-0.28c-0.08-0.07-0.23-0.14-0.43-0.2c-0.36-0.1-0.63-0.23-0.81-0.37
			c-0.18-0.14-0.27-0.34-0.27-0.59c0-0.25,0.1-0.45,0.31-0.61c0.21-0.16,0.48-0.24,0.8-0.24c0.33,0,0.6,0.09,0.81,0.27
			c0.21,0.18,0.31,0.4,0.3,0.66l0,0.01h-0.58c0-0.14-0.05-0.25-0.14-0.34s-0.22-0.13-0.39-0.13c-0.16,0-0.29,0.04-0.37,0.11
			s-0.13,0.17-0.13,0.28c0,0.1,0.05,0.19,0.14,0.25c0.09,0.07,0.26,0.14,0.49,0.21c0.33,0.09,0.58,0.22,0.75,0.37
			c0.17,0.15,0.26,0.35,0.26,0.6c0,0.26-0.1,0.47-0.3,0.62s-0.47,0.23-0.8,0.23c-0.33,0-0.61-0.08-0.86-0.26s-0.36-0.41-0.35-0.72
			l0-0.01h0.59c0,0.18,0.05,0.31,0.16,0.4c0.11,0.08,0.26,0.13,0.46,0.13c0.16,0,0.29-0.03,0.38-0.1
			C97.34,45.74,97.39,45.65,97.39,45.53z"/>
		<path class="st9" d="M98.45,46.33v-3.04h1.03c0.37,0,0.67,0.12,0.91,0.36c0.24,0.24,0.36,0.54,0.36,0.91v0.5
			c0,0.37-0.12,0.68-0.36,0.91c-0.24,0.24-0.54,0.35-0.91,0.35H98.45z M99.05,43.76v2.1h0.4c0.22,0,0.38-0.07,0.51-0.22
			s0.18-0.34,0.18-0.58v-0.51c0-0.23-0.06-0.43-0.18-0.57s-0.29-0.22-0.51-0.22H99.05z"/>
	</g>
	<line class="st0" x1="85.36" y1="29.88" x2="99.7" y2="29.88"/>
</g>
</svg>
