<svg id="Layer_1" xmlns="http://www.w3.org/2000/svg" viewBox="0 0 79.26 52.65"><style>.st0{fill:#f1f2f2;stroke:#c2c2c2;stroke-width:.6459}.st0,.st1,.st2,.st3{stroke-miterlimit:10}.st1{fill:none;stroke:#dfdede}.st1,.st2{stroke-width:.3229}.st2,.st3{fill:none}.st2,.st3{stroke:#2a3052;stroke-linejoin:round}.st3{stroke-width:.9688;stroke-linecap:round}.st4{fill:#2a3052}.st5{fill:#6d6e71}.st6{fill:#e88024}.st7{fill:#fff}.st8{opacity:.6}.st9{fill:none;stroke:#e88024;stroke-width:.6459;stroke-miterlimit:10}</style><path class="st0" d="M.32.32h78.61v52H.32z"/><path class="st1" d="M1.04 14.68h77.5M1.04 25.53h77.5M1.04 36.38h77.5M1.04 47.22h77.5M10.4 9.26V52m9.81-42.74V52m9.8-42.74V52m9.81-42.74V52m9.8-42.74V52m9.8-42.74V52M1.04 30.95h77.5"/><path class="st2" d="M1.04 20.11h77.5"/><path class="st1" d="M1.04 41.8h77.5"/><path class="st2" d="M69.23 9.26V52"/><path class="st0" d="M.48 8.94H79.1"/><path d="M6.56 3.75h-.77v2.34h-.55V3.75h-.77v-.43h2.09v.43zm0 1.29c0-.31.08-.56.25-.76.17-.2.4-.29.7-.29.3 0 .54.1.71.29.17.2.26.45.26.76v.04c0 .31-.08.56-.25.76-.17.19-.4.29-.7.29-.3 0-.54-.1-.71-.29-.17-.2-.25-.45-.25-.76v-.04zm.55.04c0 .19.03.34.1.45.06.12.17.17.31.17.14 0 .25-.06.31-.17s.1-.26.1-.45v-.04c0-.18-.03-.33-.1-.45s-.17-.17-.31-.17c-.14 0-.25.06-.31.17-.07.12-.1.26-.1.45v.04zm2.95.71c-.06.11-.14.19-.24.25-.09.06-.2.09-.33.09-.21 0-.38-.07-.5-.21-.12-.14-.18-.35-.18-.65V4.03h.55v1.25c0 .15.02.26.08.32.05.07.12.1.22.1.09 0 .16-.01.23-.04.06-.03.11-.07.15-.13v-1.5h.55v2.06h-.47l-.06-.3zm1.79-.09c.1 0 .18-.03.24-.09s.09-.13.09-.23h.5l.01.01c0 .21-.07.38-.23.52s-.36.21-.6.21c-.3 0-.54-.1-.7-.29s-.26-.43-.26-.74v-.06c0-.3.08-.55.25-.75.16-.2.4-.29.7-.29.25 0 .45.07.61.22.15.15.23.34.22.57v.01h-.5a.4.4 0 0 0-.09-.27.304.304 0 0 0-.24-.11c-.15 0-.25.06-.31.17s-.09.26-.09.44v.06c0 .18.03.33.09.44s.16.18.31.18zm1.67-1.41c.06-.09.14-.17.23-.22s.2-.08.31-.08c.21 0 .38.07.5.21.12.14.18.36.18.66v1.22h-.54V4.86c0-.16-.03-.27-.08-.34-.06-.07-.14-.1-.25-.1-.08 0-.14.01-.2.04s-.1.07-.14.12v1.51h-.55V3.12h.55v1.17z"/><path class="st3" d="M10.4 36.38l9.81-8.91 6.97 6.92 8.41-9.3 12.2 11.29 11.63-16.27"/><path class="st4" d="M8.33 43.3c0-.13-.05-.23-.14-.32-.09-.08-.26-.16-.5-.21-.29-.07-.52-.17-.68-.31a.654.654 0 0 1-.24-.51c0-.22.09-.4.26-.54.17-.15.4-.22.68-.22.3 0 .54.08.72.25.18.17.26.36.26.58v.01h-.37c0-.16-.05-.29-.16-.39s-.26-.15-.46-.15c-.18 0-.33.04-.42.13a.4.4 0 0 0-.15.33c0 .12.05.22.16.3.11.08.28.15.52.21.29.07.51.18.66.32s.23.31.23.52c0 .22-.09.4-.27.54-.18.14-.42.2-.71.2-.27 0-.52-.08-.73-.23s-.31-.35-.31-.6v-.01h.35c0 .18.06.31.19.41s.29.14.48.14.33-.04.44-.12c.13-.08.19-.19.19-.33zm1.33-1.86v.5h.39v.28h-.39v1.25c0 .1.02.16.06.2.04.04.09.06.16.06.02 0 .04 0 .07-.01s.05-.01.07-.02l.05.26c-.03.02-.07.04-.12.06-.05.01-.11.02-.16.02a.49.49 0 0 1-.36-.14c-.09-.09-.13-.24-.13-.43v-1.25h-.34v-.28h.32v-.5h.38zM11.75 44c-.01-.06-.02-.12-.03-.17-.01-.05-.01-.09-.01-.14-.07.1-.16.18-.27.25-.11.07-.23.1-.36.1-.21 0-.37-.05-.48-.17a.61.61 0 0 1-.17-.45c0-.2.08-.35.24-.46.16-.11.37-.17.64-.17h.4v-.2a.4.4 0 0 0-.11-.29.433.433 0 0 0-.31-.11c-.12 0-.22.03-.29.09-.07.06-.11.14-.11.22h-.35v-.01c-.01-.15.06-.29.21-.41a.89.89 0 0 1 .57-.19c.23 0 .42.06.56.18.14.12.21.29.21.51v.99a1.477 1.477 0 0 0 .05.41h-.39zm-.61-.27c.13 0 .25-.03.36-.1.11-.07.18-.15.21-.24v-.33h-.42c-.15 0-.27.04-.36.11s-.13.17-.13.27c0 .09.03.16.08.22.06.04.15.07.26.07zm2.44-1.46l-.19-.01c-.1 0-.18.02-.25.07a.46.46 0 0 0-.16.2V44h-.37v-2.06h.33l.04.3c.06-.11.13-.19.21-.25.08-.06.18-.09.29-.09.03 0 .05 0 .08.01.02 0 .05.01.06.01l-.04.35zm.88-.83v.5h.39v.28h-.39v1.25c0 .1.02.16.06.2.04.04.09.06.16.06.02 0 .04 0 .07-.01s.05-.01.07-.02l.05.26c-.03.02-.07.04-.12.06-.05.01-.11.02-.16.02a.49.49 0 0 1-.36-.14c-.09-.09-.13-.24-.13-.43v-1.25h-.32v-.28h.32v-.5h.36zm58.32-8.33h-1.25v.99h1.45v.29h-1.82v-2.77h1.8v.29h-1.42v.9h1.25v.3zm.88-.78l.03.31a.676.676 0 0 1 .6-.34c.22 0 .39.07.51.2s.18.33.18.6v1.3h-.37v-1.3c0-.18-.04-.31-.11-.39s-.18-.11-.32-.11c-.11 0-.2.03-.28.08-.08.05-.15.12-.2.21v1.5h-.37v-2.06h.33zm1.78 1.07c0-.33.07-.6.21-.8.14-.2.34-.3.59-.3.12 0 .22.02.32.07.09.04.17.11.24.19v-1.13h.37v2.97h-.3l-.04-.25a.71.71 0 0 1-.24.22.74.74 0 0 1-.34.07.69.69 0 0 1-.58-.27c-.14-.18-.21-.42-.21-.72v-.05zm.37.04c0 .21.04.38.13.5s.21.19.39.19c.11 0 .2-.03.28-.08s.14-.12.18-.21v-.96a.606.606 0 0 0-.19-.2.503.503 0 0 0-.27-.08c-.18 0-.31.07-.39.22s-.13.34-.13.58v.04z"/><path class="st5" d="M7.68 16.04H7l-.4 2.07h-.3l.41-2.06h-.68l.05-.25h1.65l-.05.24zm.65 2.07v-.13c0-.03.01-.07.01-.1-.07.08-.15.14-.24.19a.56.56 0 0 1-.27.08c-.15 0-.27-.05-.34-.14s-.09-.22-.06-.38c.03-.17.12-.31.25-.39.14-.09.31-.13.52-.13h.29l.03-.17c.02-.11.01-.19-.03-.24-.04-.05-.12-.08-.22-.08-.09 0-.17.03-.24.08-.07.05-.11.11-.13.18h-.28v-.01c.02-.13.1-.25.23-.35.14-.1.3-.15.49-.15.17 0 .3.05.4.15.1.1.13.24.09.42l-.16.83-.03.18c-.01.06-.01.11 0 .17h-.31zm-.4-.23c.08 0 .17-.02.26-.07s.16-.11.2-.18l.06-.32h-.3c-.1 0-.2.03-.28.1s-.13.14-.15.22c-.02.08-.01.14.02.19s.1.06.19.06zm2.14-1.21l-.17-.01a.33.33 0 0 0-.19.06.42.42 0 0 0-.15.17l-.24 1.22h-.3l.34-1.72h.27l-.02.23a.6.6 0 0 1 .2-.19c.07-.04.15-.07.24-.07.02 0 .04 0 .07.01s.04.01.05.01l-.1.29zm.09.58c.06-.29.15-.52.28-.67s.29-.22.49-.22c.09 0 .18.02.25.06.07.04.13.1.18.18l.07-.21h.26l-.33 1.69c-.05.24-.14.42-.28.54s-.33.18-.55.18a.75.75 0 0 1-.24-.04.634.634 0 0 1-.22-.09l.12-.24c.04.03.1.06.17.08.07.02.14.03.21.03.13 0 .23-.04.31-.12a.65.65 0 0 0 .17-.33l.02-.12a.587.587 0 0 1-.43.17c-.18 0-.32-.08-.41-.25a.879.879 0 0 1-.07-.61v-.03zm.3.03c-.04.18-.03.33.02.44.05.11.15.17.29.17.07 0 .14-.02.2-.06s.12-.1.17-.18l.16-.8a.431.431 0 0 0-.13-.17.348.348 0 0 0-.21-.06c-.13 0-.23.06-.31.17-.08.12-.15.27-.18.46l-.01.03zm1.99.86c-.21 0-.37-.08-.48-.24-.11-.16-.14-.37-.1-.62l.01-.07c.04-.25.14-.46.3-.62.16-.16.33-.24.51-.24.21 0 .36.07.45.21.09.14.12.33.08.56l-.03.2h-1.02c-.02.17-.01.31.05.42.06.1.15.15.28.15a.751.751 0 0 0 .47-.17l.09.2a.904.904 0 0 1-.61.22zm.2-1.53c-.09 0-.17.04-.25.13s-.14.2-.18.33v.01h.7l.01-.04c.02-.13.01-.23-.04-.31s-.12-.12-.24-.12zm1.54-.63l-.08.41h.29l-.05.23h-.29l-.21 1.04c-.02.08-.02.14.01.17.02.03.06.04.11.04.02 0 .05 0 .09-.01.03 0 .06-.01.08-.02v.21c-.03.02-.07.03-.13.05-.06.01-.11.02-.17.02-.11 0-.19-.04-.25-.12s-.07-.2-.04-.36l.21-1.04h-.25l.05-.23h.25l.08-.41h.3z"/><path class="st6" d="M50.03 39.2h-9.35l-1.44-2.19-1.44 2.19h-9.35c-.7 0-1.26.57-1.26 1.28v6.61c0 .71.57 1.28 1.26 1.28h21.59c.7 0 1.26-.57 1.26-1.28v-6.61c0-.71-.57-1.28-1.27-1.28z"/><path class="st7" d="M37.11 44.77h.02l.58-2.81h.79l-.94 4.09h-.76l-.74-2.7h-.02l-.74 2.7h-.75l-.95-4.09h.79l.58 2.8h.02l.76-2.81h.6l.76 2.82zm2.63-2.48h-.81v-.62h.81v.62zm0 3.77h-.81v-3.04h.81v3.04zm1.41-3.04l.04.44c.1-.16.22-.28.37-.36.15-.09.31-.13.49-.13.3 0 .54.1.71.29s.26.5.26.91v1.9h-.82v-1.9c0-.21-.04-.35-.12-.44-.08-.09-.2-.13-.37-.13-.11 0-.2.02-.29.07s-.16.11-.21.19v2.21h-.81v-3.04h.75zm3.34 1.63h-.81v-2.68h.81v2.68zm0 1.41h-.81v-.72h.81v.72z"/><g class="st8"><ellipse class="st7" cx="59.42" cy="20.11" rx="2.17" ry="2.26"/></g><ellipse class="st9" cx="59.42" cy="20.11" rx="2.17" ry="2.26"/><g class="st8"><ellipse class="st7" cx="10.4" cy="36.38" rx="2.17" ry="2.26"/></g><ellipse class="st9" cx="10.4" cy="36.38" rx="2.17" ry="2.26"/></svg>