<svg id="Layer_1" xmlns="http://www.w3.org/2000/svg" viewBox="0 0 78.97 52.64"><style>.st0{fill:#f1f2f2;stroke:#c2c2c2;stroke-width:.6461}.st0,.st1,.st2,.st3{stroke-miterlimit:10}.st1{fill:none;stroke:#dfdede}.st1,.st2{stroke-width:.323}.st2,.st3{fill:none}.st2,.st3{stroke:#2a3052;stroke-linejoin:round}.st3{stroke-width:.9691;stroke-linecap:round}.st4{fill:#2a3052}.st5{fill:#e88024}.st6{fill:#6d6e71}.st7{fill:#fff}.st8{opacity:.6}.st10,.st9{stroke-miterlimit:10}.st9{fill:none;stroke:#e88024;stroke-width:.6461}.st10{fill:#f1f2f2;stroke:#c2c2c2;stroke-width:.6447}.st11,.st12{stroke-width:.3223}.st11{fill:none;stroke-miterlimit:10;stroke:#dfdede}.st12{stroke:#2a3052;stroke-linejoin:round}.st12,.st13,.st14{fill:none;stroke-miterlimit:10}.st13{stroke-linecap:round;stroke-linejoin:round;stroke:#2a3052;stroke-width:.967}.st14{stroke:#e88024;stroke-width:.6447}</style><path class="st10" d="M.32.32h78.33v52H.32zM.3 8.93h78.33"/><path d="M4.47 6.09V3.32h.94c.33 0 .61.11.82.32.22.22.32.49.32.83v.46c0 .34-.11.62-.32.83-.22.22-.49.33-.82.33h-.94zm.55-2.34v1.92h.36c.2 0 .35-.07.46-.2.11-.13.17-.31.17-.53v-.47c0-.21-.06-.39-.17-.52a.569.569 0 0 0-.46-.2h-.36zm1.83 1.29c0-.31.08-.56.25-.76.17-.2.4-.29.7-.29.3 0 .53.1.7.29.17.2.25.45.25.76v.04c0 .31-.08.56-.25.76-.17.19-.4.29-.7.29-.3 0-.53-.1-.7-.29-.17-.2-.25-.45-.25-.76v-.04zm.55.04c0 .19.03.34.1.45s.17.17.31.17c.14 0 .24-.06.31-.17.07-.11.1-.26.1-.45v-.04c0-.18-.03-.33-.1-.45a.345.345 0 0 0-.31-.17c-.14 0-.24.06-.31.17s-.1.27-.1.45v.04zm3.47.27h.01l.26-1.32h.51l-.52 2.06h-.46l-.38-1.23h.01l-.38 1.23h-.46l-.51-2.06h.51l.27 1.32h.01l.38-1.32h.37l.38 1.32zm1.56-1.32l.02.29c.07-.11.15-.19.25-.25s.21-.09.33-.09c.21 0 .36.07.48.2s.17.34.17.62v1.29h-.55V4.8c0-.14-.03-.24-.08-.29-.05-.06-.14-.09-.25-.09a.38.38 0 0 0-.19.04c-.06.03-.11.07-.14.13v1.5h-.55V4.03h.51z"/><path class="st11" d="M.86 14.68h77.21M.86 20.11h77.21M.86 25.53h77.21M.86 36.38h77.21M.86 41.8h77.21M.86 47.22h77.21M10.18 9.26V52m9.77-42.74V52m9.77-42.74V52m9.77-42.74V52m9.76-42.74V52m9.77-42.74V52m9.77-42.74V52"/><path class="st12" d="M.86 30.95h77.21"/><path class="st4" d="M67.53 48.03h-1.25v.99h1.44v.29h-1.81v-2.77h1.79v.29h-1.42v.9h1.25v.3zm.89-.77l.03.31a.676.676 0 0 1 .6-.34c.22 0 .39.07.51.2s.18.33.18.6v1.3h-.37v-1.29c0-.18-.04-.31-.11-.39s-.18-.11-.32-.11c-.11 0-.2.03-.28.08-.08.05-.15.12-.2.21v1.5h-.37v-2.06h.33zm1.76 1.06c0-.33.07-.6.21-.8.14-.2.33-.3.58-.3.12 0 .22.02.32.07.09.04.17.11.24.19v-1.13h.37v2.97h-.3l-.04-.25a.71.71 0 0 1-.24.22.74.74 0 0 1-.34.07.69.69 0 0 1-.58-.27c-.14-.18-.21-.42-.21-.72v-.05zm.37.04c0 .21.04.38.12.5s.21.19.39.19c.11 0 .2-.03.28-.08s.14-.12.18-.21v-.96c-.05-.08-.11-.15-.18-.2s-.17-.08-.27-.08c-.18 0-.31.07-.39.22s-.13.34-.13.58v.04z"/><path class="st13" d="M10.25 30.95l3.85-7.82 4.58 9.1 8.22-13 10.32 14.8 8.74-10.68L59.6 44.69l9.19-3.05"/><path class="st6" d="M66.41 34.05h-.67l-.41 2.06h-.3l.41-2.06h-.67l.05-.25h1.65l-.06.25zm.65 2.06v-.13c0-.04.01-.07.01-.1-.07.08-.15.14-.24.19a.56.56 0 0 1-.27.08c-.15 0-.27-.05-.34-.14s-.09-.22-.06-.38c.03-.17.12-.31.25-.39.14-.09.31-.13.52-.13h.29l.03-.17c.02-.11.01-.19-.03-.24-.04-.05-.12-.08-.22-.08-.09 0-.17.03-.24.08-.07.05-.11.11-.13.18h-.29v-.01c.02-.13.1-.25.23-.35.13-.1.3-.15.48-.15.17 0 .3.05.4.15.1.1.13.24.09.42l-.16.83-.03.18v.17h-.29zm-.4-.23a.586.586 0 0 0 .46-.25l.06-.32h-.3c-.1 0-.2.03-.28.1-.08.06-.13.14-.15.22-.02.08-.01.14.02.19s.1.06.19.06zm2.14-1.21l-.17-.01a.33.33 0 0 0-.19.06.42.42 0 0 0-.15.17l-.24 1.22h-.3l.34-1.72h.27l-.02.23a.6.6 0 0 1 .2-.19c.07-.04.15-.07.24-.07.02 0 .04 0 .07.01s.04.01.05.01l-.1.29zm.09.58c.06-.29.15-.52.28-.67.13-.15.29-.22.49-.22.09 0 .18.02.25.06.07.04.13.1.18.18l.07-.21h.26l-.33 1.69c-.05.24-.14.42-.28.54-.14.12-.32.18-.55.18a.75.75 0 0 1-.24-.04.634.634 0 0 1-.22-.09l.12-.24c.04.03.1.06.17.08.07.02.14.03.21.03.13 0 .23-.04.31-.12a.65.65 0 0 0 .17-.33l.02-.12a.587.587 0 0 1-.43.17c-.18 0-.32-.08-.41-.25a.879.879 0 0 1-.07-.61v-.03zm.29.04c-.04.18-.03.33.02.44.05.11.15.17.28.17.07 0 .14-.02.2-.06.06-.04.11-.1.16-.18l.16-.8a.523.523 0 0 0-.12-.17.381.381 0 0 0-.52.11 1.3 1.3 0 0 0-.18.46v.03zm1.99.86c-.21 0-.37-.08-.48-.24-.11-.16-.14-.37-.1-.62l.01-.07c.04-.25.14-.46.3-.62.16-.16.33-.24.51-.24.21 0 .36.07.44.21.09.14.12.33.08.56l-.03.2h-1.02c-.02.17-.01.31.05.42.05.1.15.15.28.15a.751.751 0 0 0 .47-.17l.09.2c-.06.06-.14.11-.24.15-.11.05-.23.07-.36.07zm.2-1.54c-.09 0-.17.04-.25.13-.08.09-.14.2-.18.33v.01h.69l.01-.04c.02-.13.01-.23-.04-.31-.04-.08-.12-.12-.23-.12zm1.54-.63l-.08.41h.29l-.05.23h-.29l-.2 1.04c-.02.08-.01.14.01.17s.06.04.11.04c.02 0 .05 0 .09-.01.03 0 .06-.01.08-.02v.21c-.03.02-.07.03-.13.05-.06.01-.11.02-.17.02-.11 0-.19-.04-.25-.12s-.07-.2-.04-.36l.2-1.04h-.25l.05-.23h.25l.08-.41h.3z"/><path class="st4" d="M7.79 37.97c0-.13-.05-.23-.14-.32-.09-.08-.26-.16-.5-.21-.29-.07-.51-.17-.68-.31a.647.647 0 0 1-.23-.51c0-.22.09-.4.26-.54.17-.15.4-.22.68-.22.3 0 .54.08.71.25.18.17.26.36.26.58v.01h-.36c0-.16-.05-.29-.16-.39s-.26-.15-.45-.15c-.18 0-.32.04-.42.13a.4.4 0 0 0-.15.33c0 .12.05.22.16.3.11.08.28.15.52.21.29.07.51.18.66.32s.23.32.23.52c0 .22-.09.4-.27.54-.18.14-.41.2-.7.2-.27 0-.51-.08-.72-.23a.666.666 0 0 1-.3-.6v-.01h.35c0 .18.06.31.19.41.13.09.29.14.48.14s.33-.04.44-.12c.09-.08.14-.19.14-.33zm1.33-1.85v.5h.38v.28h-.38v1.25c0 .1.02.16.06.2.04.04.09.06.16.06.02 0 .04 0 .07-.01.03 0 .05-.01.07-.02l.05.26c-.03.02-.07.04-.12.06-.05.01-.11.02-.16.02a.49.49 0 0 1-.36-.14c-.09-.09-.13-.24-.13-.43V36.9h-.33v-.28h.32v-.5h.37zm2.08 2.55c-.01-.06-.02-.12-.03-.17-.01-.05-.01-.09-.01-.14-.07.1-.16.18-.27.25-.11.07-.23.1-.36.1-.21 0-.37-.05-.48-.17a.61.61 0 0 1-.17-.45c0-.2.08-.35.23-.46.16-.11.37-.17.64-.17h.4v-.2a.4.4 0 0 0-.11-.29c-.07-.07-.17-.11-.31-.11-.12 0-.22.03-.29.09s-.11.14-.11.22h-.34v-.01c-.01-.15.06-.29.21-.41a.89.89 0 0 1 .57-.19c.23 0 .41.06.55.18.14.12.21.29.21.51v.99a1.477 1.477 0 0 0 .05.41h-.38zm-.61-.27c.13 0 .25-.03.36-.1.11-.07.18-.15.21-.24v-.33h-.41c-.15 0-.27.04-.36.11s-.13.16-.13.26c0 .09.03.16.08.22.06.05.14.08.25.08zm2.44-1.46l-.19-.01c-.1 0-.18.02-.25.07s-.12.11-.15.2v1.47h-.37v-2.06h.33l.04.3c.06-.11.13-.19.21-.25.08-.06.18-.09.29-.09.03 0 .05 0 .08.01.02 0 .05.01.06.01l-.05.35zm.87-.82v.5h.38v.28h-.38v1.25c0 .1.02.16.06.2.04.04.09.06.16.06.02 0 .04 0 .07-.01.03 0 .05-.01.07-.02l.05.26c-.03.02-.07.04-.12.06-.05.01-.11.02-.16.02a.49.49 0 0 1-.36-.14c-.09-.09-.13-.24-.13-.43V36.9h-.32v-.28h.32v-.5h.36z"/><path class="st5" d="M49.67 39.19h-9.32L38.91 37l-1.44 2.19h-9.32c-.7 0-1.26.57-1.26 1.28v6.61c0 .71.56 1.28 1.26 1.28h21.51c.7 0 1.26-.57 1.26-1.28v-6.61c0-.7-.56-1.28-1.25-1.28z"/><path class="st7" d="M36.79 44.77h.02l.58-2.81h.79l-.94 4.09h-.75l-.74-2.7h-.02l-.74 2.7h-.75l-.94-4.09h.79l.58 2.8h.02l.76-2.81h.59l.75 2.82zm2.62-2.48h-.81v-.62h.81v.62zm0 3.77h-.81v-3.04h.81v3.04zm1.4-3.04l.04.44c.1-.16.22-.28.37-.36.15-.09.31-.13.49-.13.3 0 .54.1.71.29.17.19.25.5.25.91v1.9h-.81v-1.9c0-.21-.04-.35-.12-.44-.08-.09-.2-.13-.37-.13-.11 0-.2.02-.29.07s-.16.11-.21.19v2.21h-.81v-3.04h.75zm3.33 1.63h-.81v-2.68h.81v2.68zm0 1.41h-.81v-.72h.81v.72z"/><g class="st8"><ellipse class="st7" cx="10.25" cy="30.95" rx="2.16" ry="2.26"/></g><ellipse class="st14" cx="10.25" cy="30.95" rx="2.16" ry="2.26"/><g class="st8"><ellipse class="st7" cx="68.79" cy="41.64" rx="2.16" ry="2.26"/></g><ellipse class="st14" cx="68.79" cy="41.64" rx="2.16" ry="2.26"/></svg>