<svg xmlns="http://www.w3.org/2000/svg" x="0px" y="0px" viewBox="0 0 626 126.3" style="enable-background:new 0 0 626 126.3;">
    <style type="text/css">
    .st0 {
        fill: none;
        stroke: #E5E6EA;
        stroke-width: 2.2;
        stroke-miterlimit: 10;
    }
    
    .st1 {
        fill: #2A3052;
    }
    
    .st2 {
        fill: #F2F2F2;
    }
    
    .st3 {
        fill: #DEDEDE;
    }
    
    .st4 {
        fill: #E98024;
    }
    
    .st5 {
        fill: #FFFFFF;
    }
    
    .st6 {
        fill: none;
        stroke: #E98024;
        stroke-miterlimit: 10;
    }
    </style>
    <title>mr2_ai</title>
    <line class="st0" x1="0" y1="83.6" x2="626" y2="83.6" />
    <path class="st1" d="M178.2,119.3v4h-1.4v-10h3.8c0.9-0.1,1.8,0.2,2.5,0.8c1.2,1.2,1.2,3.1,0,4.3c-0.7,0.6-1.6,0.9-2.5,0.8
	L178.2,119.3z M178.2,118.3h2.5c1.1,0.1,2-0.7,2.1-1.7c0.1-1.1-0.7-2-1.7-2.1c-0.1,0-0.3,0-0.4,0h-2.5V118.3z" />
    <path class="st1" d="M189.1,117.1h-0.7c-0.3,0-0.6,0.1-0.9,0.2c-0.3,0.2-0.4,0.4-0.6,0.7v5.3h-1.4V116h1.2l0.1,1.1
	c0.2-0.4,0.5-0.7,0.8-0.9c0.3-0.2,0.7-0.3,1.1-0.3h0.3l0.2,0.1L189.1,117.1z" />
    <path class="st1" d="M191.9,114.1h-1.4v-1.4h1.4V114.1z M191.9,123.3h-1.4v-7.4h1.4V123.3z" />
    <path class="st1" d="M196.9,122.4c0.4,0,0.8-0.1,1.2-0.4c0.3-0.2,0.5-0.6,0.5-1h1.2l0,0c0,0.7-0.3,1.3-0.9,1.7
	c-0.6,0.5-1.3,0.8-2.1,0.8c-0.9,0.1-1.9-0.3-2.5-1.1c-0.6-0.8-0.9-1.7-0.9-2.7v-0.3c0-1,0.3-1.9,0.9-2.6c1.2-1.3,3.2-1.4,4.6-0.3
	c0.5,0.5,0.8,1.2,0.8,1.9l0,0h-1.2c0-0.4-0.2-0.8-0.5-1.2c-0.3-0.3-0.8-0.5-1.2-0.5c-0.6-0.1-1.2,0.2-1.5,0.8
	c-0.3,0.6-0.5,1.2-0.4,1.9v0.3c0,0.7,0.1,1.3,0.4,1.9C195.7,122.2,196.3,122.5,196.9,122.4z" />
    <path class="st1" d="M204.4,123.5c-0.9,0-1.8-0.3-2.5-1c-0.6-0.7-1-1.7-0.9-2.7v-0.3c0-1,0.3-1.9,0.9-2.6c0.6-0.6,1.4-1,2.2-1
	c0.9-0.1,1.7,0.3,2.3,0.9c0.5,0.7,0.8,1.5,0.8,2.4v0.8h-4.8l0,0c0,0.6,0.2,1.2,0.5,1.8c0.3,0.5,0.9,0.7,1.5,0.7
	c0.4,0,0.8-0.1,1.2-0.2c0.3-0.1,0.6-0.3,0.9-0.5l0.5,0.9c-0.3,0.3-0.6,0.5-1,0.7C205.5,123.4,205,123.5,204.4,123.5z M204.2,116.9
	c-0.5,0-0.9,0.2-1.2,0.6c-0.3,0.4-0.5,0.9-0.6,1.4l0,0h3.4v-0.2c0-0.5-0.1-0.9-0.4-1.3C205.1,117,204.7,116.8,204.2,116.9
	L204.2,116.9z" />
    <path class="st1" d="M337.5,113.4l3.2,8.1l0,0l3.2-8.1h1.7v10h-1.4v-4l0.1-4l0,0l-3.2,8h-0.9l-3.2-8l0,0l0.1,4v3.9h-1.4v-10
	L337.5,113.4z" />
    <path class="st1" d="M352.4,123.3c0-0.2-0.1-0.4-0.1-0.6c0-0.2,0-0.3,0-0.5c-0.3,0.4-0.6,0.7-1,0.9c-0.4,0.2-0.8,0.4-1.3,0.4
	c-0.6,0-1.3-0.2-1.8-0.6c-0.4-0.4-0.6-1-0.6-1.6c0-0.7,0.3-1.3,0.9-1.7c0.7-0.4,1.5-0.6,2.3-0.6h1.5v-0.7c0-0.4-0.1-0.7-0.4-1
	c-0.3-0.3-0.7-0.4-1.1-0.4c-0.4,0-0.8,0.1-1.1,0.3c-0.3,0.2-0.4,0.5-0.4,0.8H348l0,0c0-0.6,0.3-1.1,0.8-1.5c0.6-0.5,1.3-0.7,2.1-0.7
	c0.7,0,1.4,0.2,2,0.6c0.5,0.5,0.8,1.1,0.8,1.8v3.6c0,0.3,0,0.5,0,0.8c0,0.2,0.1,0.5,0.1,0.7L352.4,123.3z M350.1,122.3
	c0.5,0,0.9-0.1,1.3-0.4c0.3-0.2,0.6-0.5,0.8-0.9v-1.2h-1.5c-0.5,0-0.9,0.1-1.3,0.4c-0.3,0.2-0.5,0.6-0.5,1c0,0.3,0.1,0.6,0.3,0.8
	C349.5,122.3,349.8,122.4,350.1,122.3L350.1,122.3z" />
    <path class="st1" d="M359,117.1h-0.7c-0.3,0-0.6,0.1-0.9,0.2c-0.3,0.2-0.4,0.4-0.6,0.7v5.3h-1.4V116h1.2l0.1,1.1
	c0.2-0.4,0.5-0.7,0.8-0.9c0.3-0.2,0.7-0.3,1.1-0.3h0.3l0.2,0.1L359,117.1z" />
    <path class="st1" d="M359.9,119.8c0-1,0.2-2,0.8-2.9c0.5-0.7,1.3-1.1,2.1-1.1c0.4,0,0.9,0.1,1.2,0.3c0.4,0.2,0.7,0.5,0.9,0.8l0.2-1
	h1.1v7.4c0.1,0.8-0.3,1.6-0.8,2.2c-0.7,0.5-1.5,0.8-2.4,0.8c-0.4,0-0.8-0.1-1.1-0.2c-0.4-0.1-0.7-0.2-1.1-0.4l0.3-1
	c0.3,0.1,0.6,0.3,0.9,0.3c0.3,0.1,0.7,0.1,1,0.1c0.5,0,1-0.1,1.4-0.4c0.3-0.4,0.5-0.9,0.5-1.4v-0.8c-0.2,0.3-0.5,0.5-0.9,0.7
	c-0.4,0.2-0.8,0.2-1.2,0.2c-0.8,0-1.6-0.3-2.1-1c-0.6-0.7-0.8-1.7-0.8-2.6L359.9,119.8z M361.2,119.9c0,0.6,0.1,1.3,0.5,1.8
	c0.3,0.5,0.9,0.7,1.4,0.7c0.4,0,0.7-0.1,1-0.3c0.3-0.2,0.5-0.5,0.7-0.8v-3.4c-0.2-0.3-0.4-0.6-0.7-0.8c-0.3-0.2-0.6-0.3-1-0.3
	c-0.6,0-1.2,0.3-1.4,0.8c-0.3,0.6-0.5,1.3-0.5,2.1L361.2,119.9z" />
    <path class="st1" d="M369.6,114.1h-1.4v-1.4h1.4V114.1z M369.6,123.3h-1.4v-7.4h1.4V123.3z" />
    <path class="st1" d="M372.9,115.9l0.1,1.1c0.2-0.4,0.6-0.7,0.9-0.9c0.4-0.2,0.8-0.3,1.3-0.3c0.7,0,1.4,0.2,1.9,0.7
	c0.5,0.6,0.7,1.4,0.7,2.2v4.7h-1.4v-4.6c0-0.5-0.1-1-0.4-1.4c-0.3-0.3-0.7-0.4-1.2-0.4c-0.4,0-0.7,0.1-1,0.3
	c-0.3,0.2-0.5,0.5-0.7,0.8v5.4h-1.4v-7.4L372.9,115.9z" />
    <path class="st1" d="M386.6,117.1h-0.7c-0.3,0-0.6,0.1-0.9,0.2c-0.3,0.2-0.4,0.4-0.6,0.7v5.3h-1.4V116h1.2l0.1,1.1
	c0.2-0.4,0.5-0.7,0.8-0.9c0.3-0.2,0.7-0.3,1.1-0.3h0.3l0.2,0.1L386.6,117.1z" />
    <path class="st1" d="M392.5,123.3c0-0.2-0.1-0.4-0.1-0.6c0-0.2,0-0.3,0-0.5c-0.3,0.4-0.6,0.7-1,0.9c-0.4,0.2-0.8,0.4-1.3,0.4
	c-0.6,0-1.3-0.2-1.8-0.6c-0.4-0.4-0.6-1-0.6-1.6c0-0.7,0.3-1.3,0.9-1.7c0.7-0.4,1.5-0.6,2.3-0.6h1.5v-0.7c0-0.4-0.1-0.7-0.4-1
	c-0.3-0.3-0.7-0.4-1.1-0.4c-0.4,0-0.8,0.1-1.1,0.3c-0.3,0.2-0.4,0.5-0.4,0.8H388l0,0c0-0.6,0.3-1.1,0.8-1.5c0.6-0.5,1.3-0.7,2.1-0.7
	c0.7,0,1.4,0.2,2,0.6c0.5,0.5,0.8,1.1,0.8,1.8v3.6c0,0.3,0,0.5,0,0.8c0,0.2,0.1,0.5,0.1,0.7L392.5,123.3z M390.2,122.3
	c0.5,0,0.9-0.1,1.3-0.4c0.3-0.2,0.6-0.5,0.8-0.9v-1.2h-1.5c-0.5,0-0.9,0.1-1.3,0.4c-0.3,0.2-0.5,0.6-0.5,1c0,0.3,0.1,0.6,0.3,0.8
	C389.6,122.3,389.9,122.4,390.2,122.3L390.2,122.3z" />
    <path class="st1" d="M397.4,114.2v1.8h1.4v1h-1.4v4.5c0,0.3,0.1,0.5,0.2,0.7c0.2,0.1,0.4,0.2,0.6,0.2h0.3l0.2-0.1l0.2,0.9
	c-0.1,0.1-0.3,0.2-0.4,0.2c-0.2,0.1-0.4,0.1-0.6,0.1c-0.5,0-1-0.2-1.3-0.5c-0.4-0.4-0.5-1-0.5-1.6V117h-1.2v-1h1.1v-1.8L397.4,114.2
	z" />
    <path class="st1" d="M403.5,123.5c-0.9,0-1.8-0.3-2.5-1c-0.6-0.7-1-1.7-0.9-2.7v-0.3c0-1,0.3-1.9,0.9-2.6c0.6-0.6,1.4-1,2.2-1
	c0.9-0.1,1.7,0.3,2.3,0.9c0.5,0.7,0.8,1.5,0.8,2.4v0.8h-4.8l0,0c0,0.6,0.2,1.2,0.5,1.8c0.3,0.5,0.9,0.7,1.5,0.7
	c0.4,0,0.8-0.1,1.2-0.2c0.3-0.1,0.6-0.3,0.9-0.5l0.5,0.9c-0.3,0.3-0.6,0.5-1,0.7C404.6,123.4,404.1,123.5,403.5,123.5z M403.3,116.9
	c-0.5,0-0.9,0.2-1.2,0.6c-0.3,0.4-0.5,0.9-0.6,1.4l0,0h3.4v-0.2c0-0.5-0.1-0.9-0.4-1.3C404.3,117,403.8,116.8,403.3,116.9z" />
    <path class="st1" d="M502.6,113.4l3.2,8.1l0,0l3.2-8.1h1.7v10h-1.4v-4l0.1-4l0,0l-3.2,8h-0.9l-3.2-8l0,0l0.1,4v3.9h-1.4v-10
	L502.6,113.4z" />
    <path class="st1" d="M517.5,123.3c0-0.2-0.1-0.4-0.1-0.6c0-0.2,0-0.3,0-0.5c-0.3,0.4-0.6,0.7-1,0.9c-0.4,0.2-0.8,0.4-1.3,0.4
	c-0.6,0-1.3-0.2-1.8-0.6c-0.4-0.4-0.6-1-0.6-1.6c0-0.7,0.3-1.3,0.9-1.7c0.7-0.4,1.5-0.6,2.3-0.6h1.5v-0.7c0-0.4-0.1-0.7-0.4-1
	c-0.3-0.3-0.7-0.4-1.1-0.4c-0.4,0-0.8,0.1-1.1,0.3c-0.3,0.2-0.4,0.5-0.4,0.8h-1.3l0,0c0-0.6,0.3-1.1,0.8-1.5
	c0.6-0.5,1.3-0.7,2.1-0.7c0.7,0,1.4,0.2,2,0.6c0.5,0.5,0.8,1.1,0.8,1.8v3.6c0,0.3,0,0.5,0,0.8c0,0.2,0.1,0.5,0.2,0.7L517.5,123.3z
	 M515.2,122.3c0.5,0,0.9-0.1,1.3-0.4c0.3-0.2,0.6-0.5,0.8-0.9v-1.2h-1.5c-0.5,0-0.9,0.1-1.3,0.4c-0.3,0.2-0.5,0.6-0.5,1
	c0,0.3,0.1,0.6,0.3,0.8C514.6,122.3,514.9,122.4,515.2,122.3L515.2,122.3z" />
    <path class="st1" d="M524.1,117.1h-0.7c-0.3,0-0.6,0.1-0.9,0.2c-0.3,0.2-0.4,0.4-0.6,0.7v5.3h-1.3V116h1.2l0.2,1
	c0.2-0.4,0.5-0.7,0.8-0.9c0.3-0.2,0.7-0.3,1.1-0.3h0.3l0.2,0.1L524.1,117.1z" />
    <path class="st1" d="M525,119.8c0-1,0.2-2,0.8-2.9c0.5-0.7,1.3-1.1,2.2-1.1c0.4,0,0.9,0.1,1.2,0.3c0.4,0.2,0.7,0.5,0.9,0.8l0.2-1
	h1.1v7.4c0.1,0.8-0.3,1.6-0.8,2.2c-0.7,0.5-1.5,0.8-2.4,0.8c-0.4,0-0.8-0.1-1.2-0.2c-0.4-0.1-0.7-0.2-1.1-0.4l0.3-1
	c0.3,0.1,0.6,0.3,0.9,0.3c0.3,0.1,0.7,0.1,1,0.1c0.5,0,1-0.1,1.4-0.4c0.3-0.4,0.5-0.9,0.5-1.4v-0.8c-0.2,0.3-0.5,0.5-0.9,0.7
	c-0.4,0.2-0.8,0.2-1.2,0.2c-0.8,0-1.6-0.3-2.1-1c-0.6-0.7-0.8-1.7-0.8-2.6L525,119.8z M526.3,119.9c0,0.6,0.1,1.3,0.5,1.8
	c0.3,0.5,0.9,0.7,1.4,0.7c0.4,0,0.7-0.1,1-0.3c0.3-0.2,0.5-0.5,0.7-0.8v-3.4c-0.2-0.3-0.4-0.6-0.7-0.8c-0.3-0.2-0.6-0.3-1-0.3
	c-0.6,0-1.2,0.3-1.4,0.8c-0.3,0.6-0.5,1.3-0.5,2.1L526.3,119.9z" />
    <path class="st1" d="M534.7,114.1h-1.3v-1.4h1.3V114.1z M534.7,123.3h-1.3v-7.4h1.3V123.3z" />
    <path class="st1" d="M538,115.9l0.1,1.1c0.2-0.4,0.6-0.7,0.9-0.9c0.4-0.2,0.8-0.3,1.3-0.3c0.7,0,1.4,0.2,1.8,0.7
	c0.5,0.6,0.7,1.4,0.7,2.2v4.7h-1.3v-4.6c0-0.5-0.1-1-0.4-1.4c-0.3-0.3-0.7-0.4-1.2-0.4c-0.4,0-0.7,0.1-1,0.3
	c-0.3,0.2-0.5,0.5-0.7,0.8v5.4h-1.3v-7.4L538,115.9z" />
    <path class="st1" d="M54.6,120.9l0.2,0.8l0,0l0.2-0.8l2.6-7.5h1.5l-3.7,10h-1.1l-3.7-10H52L54.6,120.9z" />
    <path class="st1" d="M59.6,119.6c0-1,0.3-1.9,0.9-2.7c1.2-1.3,3.3-1.4,4.6-0.2c0.1,0.1,0.1,0.1,0.2,0.2c0.6,0.8,0.9,1.7,0.9,2.7v0.2
	c0,1-0.3,1.9-0.9,2.7c-1.2,1.3-3.3,1.4-4.7,0.2c-0.1-0.1-0.1-0.1-0.2-0.2c-0.6-0.8-0.9-1.7-0.9-2.7L59.6,119.6z M61,119.7
	c0,0.7,0.1,1.4,0.5,1.9c0.6,0.8,1.7,1,2.5,0.4c0.2-0.1,0.3-0.3,0.4-0.4c0.4-0.6,0.5-1.3,0.5-1.9v-0.2c0-0.7-0.1-1.3-0.5-1.9
	c-0.3-0.5-0.9-0.8-1.5-0.8c-0.6,0-1.2,0.3-1.5,0.8c-0.3,0.6-0.5,1.3-0.5,1.9L61,119.7z" />
    <path class="st1" d="M69.3,123.3H68v-10.7h1.3L69.3,123.3z" />
    <path class="st1" d="M76.1,122.2c-0.2,0.4-0.5,0.7-0.9,0.9c-0.4,0.2-0.8,0.3-1.3,0.3c-0.7,0-1.4-0.2-1.9-0.8
	c-0.5-0.7-0.7-1.6-0.7-2.4v-4.4h1.3v4.4c-0.1,0.6,0.1,1.1,0.3,1.6c0.3,0.3,0.7,0.5,1.1,0.4c0.4,0,0.8-0.1,1.2-0.3
	c0.3-0.2,0.6-0.5,0.7-0.8V116h1.3v7.4h-1.2L76.1,122.2z" />
    <path class="st1" d="M80.6,115.9l0.1,1c0.2-0.3,0.5-0.6,0.9-0.8c0.4-0.2,0.8-0.3,1.3-0.3c0.4,0,0.9,0.1,1.3,0.3
	c0.4,0.2,0.6,0.6,0.8,1c0.2-0.4,0.5-0.7,0.9-1c0.4-0.3,0.9-0.4,1.3-0.4c0.7,0,1.3,0.3,1.8,0.8c0.5,0.7,0.7,1.5,0.7,2.3v4.4h-1.3
	v-4.4c0-0.5-0.1-1.1-0.4-1.6c-0.3-0.3-0.7-0.5-1.1-0.5c-0.4,0-0.8,0.2-1.1,0.5c-0.3,0.3-0.5,0.8-0.5,1.2v4.8h-1.3v-4.4
	c0-0.5-0.1-1.1-0.4-1.5c-0.3-0.3-0.7-0.5-1.1-0.5c-0.4,0-0.7,0.1-1,0.2c-0.3,0.2-0.5,0.4-0.6,0.7v5.5h-1.4v-7.4L80.6,115.9z" />
    <path class="st1" d="M94.7,123.5c-0.9,0-1.8-0.3-2.5-1c-0.6-0.7-1-1.7-0.9-2.7v-0.3c0-1,0.3-1.9,0.9-2.6c0.6-0.6,1.4-1,2.2-1
	c0.9-0.1,1.7,0.3,2.3,0.9c0.5,0.7,0.8,1.5,0.8,2.4v0.8h-4.8l0,0c0,0.6,0.2,1.2,0.5,1.8c0.3,0.5,0.9,0.7,1.5,0.7
	c0.4,0,0.8-0.1,1.2-0.2c0.3-0.1,0.6-0.3,0.9-0.5l0.5,0.9c-0.3,0.3-0.6,0.5-1,0.7C95.8,123.4,95.2,123.5,94.7,123.5z M94.5,116.9
	c-0.5,0-0.9,0.2-1.2,0.6c-0.3,0.4-0.5,0.9-0.6,1.4l0,0h3.4v-0.2c0-0.5-0.1-0.9-0.4-1.3C95.4,117,94.9,116.8,94.5,116.9z" />
    <rect x="487.5" y="67.7" class="st2" width="7" height="14" />
    <path class="st3" d="M493.5,68.7v12h-5v-12H493.5 M495.5,66.7h-9v16h9V66.7z" />
    <rect x="549.5" y="67.7" class="st2" width="7" height="14" />
    <path class="st3" d="M555.5,68.7v12h-5v-12H555.5 M557.5,66.7h-9v16h9V66.7z" />
    <rect x="330.5" y="1" class="st2" width="79.6" height="66.9" />
    <path class="st3" d="M409.2,2v64.9h-77.7V2H409.2 M411.2,0h-81.6v68.9h81.6V0z" />
    <rect x="340.9" y="67.7" class="st2" width="7" height="14" />
    <path class="st3" d="M346.9,68.7v12h-5v-12H346.9 M348.9,66.7h-9v16h9V66.7z" />
    <rect x="392.9" y="67.7" class="st2" width="7" height="14" />
    <path class="st3" d="M398.9,68.7v12h-5v-12H398.9 M400.9,66.7h-9v16h9V66.7z" />
    <rect x="429.9" y="38.8" class="st4" width="18" height="4.2" />
    <rect x="429.9" y="30.8" class="st4" width="18" height="4.2" />
    <rect x="48.6" y="1.1" class="st2" width="220.8" height="66.7" />
    <path class="st3" d="M268.3,2.2v64.5H49.7V2.2H268.3 M270.5,0h-223v68.9h223V0z" />
    <rect x="465.5" class="st1" width="113" height="68.9" />
    <path class="st5" d="M490.9,26.3v11.6c0.1,1.6-0.6,3.2-1.8,4.3c-1.4,1-3,1.6-4.7,1.5c-1.6,0.1-3.3-0.5-4.6-1.5
	c-1.2-1.1-1.9-2.6-1.8-4.3V26.3h2.3v11.6c-0.1,1.1,0.3,2.2,1.1,2.9c0.8,0.7,1.8,1.1,2.9,1c1.1,0.1,2.2-0.3,3.1-1
	c0.8-0.7,1.2-1.8,1.2-2.9V26.3H490.9z" />
    <path class="st5" d="M504,39.1c0-0.8-0.3-1.5-0.9-2c-0.9-0.7-2-1.1-3.1-1.3c-1.5-0.3-3-1-4.2-1.9c-1-0.8-1.5-1.9-1.5-3.2
	c0-1.3,0.6-2.5,1.6-3.3c1.2-0.9,2.7-1.4,4.2-1.3c1.6-0.1,3.2,0.5,4.5,1.5c1,0.9,1.6,2.2,1.6,3.6v0.1H504c0-0.9-0.3-1.8-1-2.4
	c-1.6-1.2-3.8-1.2-5.5-0.1c-0.6,0.5-0.9,1.2-0.9,2c0,0.7,0.4,1.4,1,1.9c1,0.6,2.1,1.1,3.2,1.3c1.5,0.3,2.9,1,4.1,2
	c0.9,0.8,1.4,2,1.4,3.2c0,1.3-0.6,2.6-1.7,3.3c-1.3,0.9-2.8,1.3-4.4,1.2c-1.6,0-3.2-0.5-4.5-1.4c-1.2-0.8-2-2.2-1.9-3.7v-0.1h2.2
	c-0.1,1,0.4,1.9,1.2,2.5c0.9,0.6,1.9,0.9,3,0.9c1,0.1,1.9-0.2,2.8-0.7C503.6,40.6,504,39.9,504,39.1z" />
    <path class="st5" d="M517.5,39c0-0.7-0.3-1.3-0.8-1.8c-0.7-0.6-1.6-1.1-2.5-1.3c-1.3-0.3-2.6-1-3.6-1.9c-0.8-0.8-1.3-2-1.2-3.2
	c0-1.2,0.4-2.3,1.1-3.1c0.8-0.8,1.9-1.4,3.1-1.5v-2.6h1.8v2.6c1.2,0.1,2.3,0.7,3,1.7c0.8,1.1,1.2,2.4,1.1,3.8h-2.3
	c0-0.9-0.2-1.8-0.7-2.6c-0.5-0.7-1.2-1-2-1c-1.3-0.2-2.6,0.8-2.7,2.1c0,0.2,0,0.4,0,0.6c0,0.7,0.2,1.4,0.7,1.8
	c0.7,0.6,1.6,1.1,2.6,1.3c1.3,0.4,2.5,1,3.6,1.9c0.8,0.9,1.2,2,1.2,3.2c0.1,1.2-0.4,2.4-1.2,3.2c-0.9,0.8-2.1,1.3-3.3,1.4v2.2h-1.8
	v-2.3c-1.2-0.1-2.4-0.6-3.3-1.5c-0.9-1-1.4-2.3-1.2-3.7v-0.1h2.2c-0.1,0.9,0.2,1.9,0.9,2.6c0.6,0.5,1.4,0.8,2.2,0.8
	c0.8,0.1,1.7-0.2,2.4-0.7C517.2,40.5,517.5,39.8,517.5,39z" />
    <path class="st5" d="M539.5,43.4h-11.1v-1.6l5.6-6.2c0.8-0.8,1.4-1.7,2-2.7c0.3-0.6,0.5-1.3,0.5-2c0-0.8-0.2-1.5-0.7-2.1
	c-0.5-0.6-1.2-0.9-2-0.9c-1-0.1-1.9,0.2-2.6,0.9c-0.6,0.7-0.9,1.6-0.8,2.5h-2.2v-0.1c-0.1-1.4,0.5-2.7,1.5-3.7
	c1.1-1,2.7-1.6,4.2-1.5c1.4-0.1,2.7,0.4,3.7,1.3c0.9,0.9,1.4,2.1,1.4,3.4c0,1-0.3,2-0.8,2.8c-0.7,1.1-1.4,2.1-2.3,3l-4.5,4.9v0.1
	h8.2L539.5,43.4z" />
    <path class="st5" d="M552.7,36.9c0.1,1.8-0.4,3.6-1.5,5c-2,2.2-5.4,2.4-7.6,0.4c-0.1-0.1-0.2-0.2-0.4-0.4c-1.1-1.4-1.6-3.2-1.5-5v-4
	c-0.1-1.8,0.4-3.6,1.5-5c2-2.2,5.4-2.4,7.6-0.3c0.1,0.1,0.2,0.2,0.3,0.3c1.1,1.4,1.6,3.2,1.5,5L552.7,36.9z M550.4,32.3
	c0.1-1.2-0.2-2.3-0.8-3.3c-1.1-1.3-2.9-1.5-4.2-0.4c-0.1,0.1-0.3,0.3-0.4,0.4c-0.6,1-0.9,2.2-0.8,3.3v5c-0.1,1.2,0.2,2.3,0.8,3.3
	c0.5,0.8,1.4,1.2,2.3,1.1c0.9,0,1.8-0.4,2.3-1.1c0.6-1,0.9-2.2,0.8-3.3L550.4,32.3z" />
    <path class="st5" d="M566.2,36.9c0.1,1.8-0.4,3.6-1.5,5c-2,2.2-5.4,2.4-7.6,0.4c-0.1-0.1-0.2-0.2-0.4-0.4c-1.1-1.4-1.6-3.2-1.5-5v-4
	c-0.1-1.8,0.4-3.6,1.5-5c2-2.2,5.4-2.4,7.6-0.3c0.1,0.1,0.2,0.2,0.3,0.3c1.1,1.4,1.6,3.2,1.5,5L566.2,36.9z M563.9,32.3
	c0.1-1.2-0.2-2.3-0.8-3.3c-1-1.3-2.9-1.5-4.2-0.4c-0.2,0.1-0.3,0.3-0.4,0.4c-0.6,1-0.9,2.2-0.8,3.3v5c-0.1,1.2,0.2,2.3,0.8,3.3
	c0.5,0.8,1.4,1.2,2.3,1.1c0.9,0,1.8-0.4,2.3-1.1c0.6-1,0.9-2.2,0.8-3.3L563.9,32.3z" />
    <path class="st1" d="M141.2,26.3v11.6c0.1,1.6-0.6,3.2-1.8,4.3c-1.4,1-3,1.6-4.7,1.5c-1.6,0.1-3.3-0.5-4.6-1.5
	c-1.2-1.1-1.9-2.6-1.8-4.3V26.3h2.3v11.6c-0.1,1.1,0.3,2.2,1.1,2.9c0.8,0.7,1.8,1.1,2.9,1c1.1,0.1,2.2-0.3,3.1-1
	c0.8-0.7,1.2-1.8,1.2-2.9V26.3H141.2z" />
    <path class="st1" d="M154.3,39.1c0-0.8-0.3-1.5-0.9-2c-0.9-0.7-2-1.1-3.1-1.3c-1.5-0.3-3-1-4.2-1.9c-1-0.8-1.5-1.9-1.5-3.2
	c0-1.3,0.6-2.5,1.6-3.3c1.2-0.9,2.7-1.4,4.2-1.3c1.6-0.1,3.2,0.5,4.5,1.5c1,0.9,1.6,2.2,1.6,3.6v0.1h-2.2c0-0.9-0.3-1.8-1-2.4
	c-1.6-1.2-3.8-1.2-5.5-0.1c-0.6,0.5-0.9,1.2-0.9,2c0,0.7,0.4,1.4,1,1.9c1,0.6,2.1,1.1,3.2,1.3c1.5,0.3,2.9,1,4.1,2
	c0.9,0.8,1.4,2,1.4,3.2c0,1.3-0.6,2.6-1.7,3.3c-1.3,0.9-2.8,1.3-4.4,1.2c-1.6,0-3.2-0.4-4.5-1.3c-1.2-0.8-2-2.2-1.9-3.7v-0.1h2.2
	c-0.1,1,0.4,2,1.2,2.5c0.9,0.6,1.9,0.9,3,0.9c1,0.1,1.9-0.2,2.8-0.7C153.9,40.7,154.3,39.9,154.3,39.1z" />
    <path class="st1" d="M167.8,39c0-0.7-0.3-1.3-0.8-1.8c-0.7-0.6-1.6-1.1-2.5-1.3c-1.3-0.3-2.6-1-3.6-1.9c-0.8-0.8-1.3-2-1.2-3.2
	c0-1.2,0.4-2.3,1.1-3.1c0.8-0.8,1.9-1.4,3.1-1.5v-2.6h1.9v2.6c1.2,0.1,2.3,0.7,3.1,1.7c0.8,1.1,1.2,2.4,1.1,3.8h-2.3
	c0-0.9-0.2-1.8-0.7-2.6c-0.5-0.7-1.2-1-2.1-1c-1.3-0.2-2.6,0.8-2.7,2.1c0,0.2,0,0.4,0,0.6c0,0.7,0.2,1.4,0.7,1.8
	c0.7,0.6,1.6,1.1,2.6,1.3c1.3,0.4,2.5,1,3.6,1.9c0.8,0.9,1.2,2,1.2,3.2c0.1,1.2-0.4,2.4-1.2,3.2c-0.9,0.8-2.1,1.3-3.3,1.4v2.2h-1.8
	v-2.3c-1.2-0.1-2.4-0.6-3.3-1.5c-0.9-1-1.4-2.3-1.2-3.7v-0.1h2.2c-0.1,0.9,0.2,1.9,0.9,2.6c0.6,0.5,1.4,0.8,2.2,0.8
	c0.8,0.1,1.7-0.2,2.4-0.7C167.5,40.5,167.8,39.8,167.8,39z" />
    <path class="st1" d="M189.8,43.4h-11.1v-1.6l5.6-6.2c0.8-0.8,1.4-1.7,2-2.7c0.3-0.6,0.5-1.3,0.5-2c0-0.8-0.2-1.5-0.7-2.1
	c-0.5-0.6-1.2-0.9-2-0.9c-1-0.1-1.9,0.2-2.6,0.9c-0.6,0.7-0.9,1.6-0.8,2.5h-2.2v-0.1c-0.1-1.4,0.5-2.7,1.5-3.7
	c1.1-1,2.7-1.6,4.2-1.5c1.4-0.1,2.7,0.4,3.7,1.3c0.9,0.9,1.4,2.1,1.4,3.4c0,1-0.3,2-0.8,2.8c-0.7,1.1-1.4,2.1-2.3,3l-4.5,4.9v0.1
	h8.2L189.8,43.4z" />
    <path class="st1" d="M203,36.9c0.1,1.8-0.4,3.6-1.4,5c-2,2.2-5.4,2.4-7.6,0.4c-0.1-0.1-0.2-0.2-0.4-0.4c-1.1-1.4-1.6-3.2-1.5-5v-4
	c-0.1-1.8,0.4-3.6,1.5-5c2-2.2,5.4-2.4,7.6-0.3c0.1,0.1,0.2,0.2,0.3,0.3c1.1,1.4,1.6,3.2,1.5,5L203,36.9z M200.7,32.3
	c0.1-1.2-0.2-2.3-0.8-3.3c-1-1.3-2.9-1.5-4.2-0.4c-0.2,0.1-0.3,0.3-0.4,0.4c-0.6,1-0.9,2.2-0.8,3.3v5c-0.1,1.2,0.2,2.3,0.8,3.3
	c0.5,0.8,1.4,1.2,2.3,1.1c0.9,0,1.8-0.4,2.3-1.1c0.6-1,0.9-2.2,0.8-3.3L200.7,32.3z" />
    <path class="st1" d="M208,42.8l-1.8,3.6h-1.4l0.8-3.7v-1.9h2.3V42.8z" />
    <path class="st1" d="M221.3,36.9c0.1,1.8-0.4,3.6-1.4,5c-2,2.2-5.4,2.4-7.6,0.4c-0.1-0.1-0.2-0.2-0.4-0.4c-1.1-1.4-1.6-3.2-1.5-5v-4
	c-0.1-1.8,0.4-3.6,1.5-5c2-2.2,5.4-2.4,7.6-0.3c0.1,0.1,0.2,0.2,0.3,0.3c1.1,1.4,1.6,3.2,1.5,5L221.3,36.9z M219,32.3
	c0.1-1.2-0.2-2.3-0.8-3.3c-1-1.3-2.9-1.5-4.2-0.4c-0.2,0.1-0.3,0.3-0.4,0.4c-0.6,1-0.9,2.2-0.8,3.3v5c-0.1,1.2,0.2,2.3,0.8,3.3
	c0.5,0.8,1.4,1.2,2.3,1.1c0.9,0,1.8-0.4,2.3-1.1c0.6-1,0.9-2.2,0.8-3.3L219,32.3z" />
    <path class="st1" d="M234.8,36.9c0.1,1.8-0.4,3.6-1.4,5c-2,2.2-5.4,2.4-7.6,0.4c-0.1-0.1-0.2-0.2-0.4-0.4c-1.1-1.4-1.6-3.2-1.5-5v-4
	c-0.1-1.8,0.4-3.6,1.5-5c2-2.2,5.4-2.4,7.6-0.3c0.1,0.1,0.2,0.2,0.3,0.3c1.1,1.4,1.6,3.2,1.5,5L234.8,36.9z M232.5,32.3
	c0.1-1.2-0.2-2.3-0.8-3.3c-1-1.3-2.9-1.5-4.2-0.5c-0.2,0.1-0.3,0.3-0.5,0.5c-0.6,1-0.9,2.2-0.8,3.3v5c-0.1,1.2,0.2,2.3,0.8,3.3
	c0.5,0.8,1.4,1.2,2.3,1.1c0.9,0,1.8-0.4,2.3-1.1c0.6-1,0.9-2.2,0.8-3.3L232.5,32.3z" />
    <path class="st1" d="M248.3,36.9c0.1,1.8-0.4,3.6-1.4,5c-2,2.2-5.4,2.4-7.6,0.4c-0.1-0.1-0.2-0.2-0.4-0.4c-1.1-1.4-1.6-3.2-1.5-5v-4
	c-0.1-1.8,0.4-3.6,1.5-5c2-2.2,5.4-2.4,7.6-0.3c0.1,0.1,0.2,0.2,0.3,0.3c1.1,1.4,1.6,3.2,1.5,5L248.3,36.9z M246,32.3
	c0.1-1.2-0.2-2.3-0.8-3.3c-1-1.3-2.9-1.5-4.2-0.4c-0.2,0.1-0.3,0.3-0.4,0.4c-0.6,1-0.9,2.2-0.8,3.3v5c-0.1,1.2,0.2,2.3,0.8,3.3
	c0.5,0.8,1.4,1.2,2.3,1.1c0.9,0,1.8-0.4,2.3-1.1c0.6-1,0.9-2.2,0.8-3.3L246,32.3z" />
    <path class="st1" d="M75.4,43.4h-2.3V28.6h-3.5V27l5.8-0.6V43.4z" />
    <polygon class="st4" points="110.3,31.5 107.4,28.5 102.5,33.4 97.6,28.5 94.7,31.5 99.6,36.4 94.7,41.2 97.6,44.2 102.5,39.3
	107.4,44.2 110.3,41.2 105.5,36.4 " />
    <polygon class="st4" points="308.5,31.5 305.6,28.5 300.7,33.4 295.8,28.5 292.9,31.5 297.8,36.4 292.9,41.2 295.8,44.2 300.7,39.3
	305.6,44.2 308.5,41.2 303.7,36.4 " />
    <rect x="79.5" y="67.7" class="st2" width="7" height="14" />
    <path class="st3" d="M85.5,68.7v12h-5v-12H85.5 M87.5,66.7h-9v16h9V66.7z" />
    <rect x="231.5" y="67.7" class="st2" width="7" height="14" />
    <path class="st3" d="M237.5,68.7v12h-5v-12H237.5 M239.5,66.7h-9v16h9V66.7z" />
    <line class="st6" x1="74.2" y1="56.2" x2="74.2" y2="106.7" />
    <circle class="st4" cx="74.2" cy="56.2" r="2" />
    <line class="st6" x1="191.7" y1="56.2" x2="191.7" y2="106.7" />
    <circle class="st4" cx="191.7" cy="56.2" r="2" />
    <line class="st6" x1="370.7" y1="56.2" x2="370.7" y2="106.7" />
    <circle class="st4" cx="370.7" cy="56.2" r="2" />
    <line class="st6" x1="521.7" y1="56.2" x2="521.7" y2="107.7" />
    <circle class="st4" cx="521.7" cy="56.2" r="2" />
    <g>
        <path class="st1" d="M360.6,36.9c0,2.2-0.5,3.8-1.4,5s-2.3,1.7-4,1.7s-3-0.6-4-1.7s-1.5-2.8-1.5-5v-4c0-2.2,0.5-3.8,1.5-5
		s2.3-1.8,4-1.8c1.7,0,3,0.6,4,1.8s1.5,2.8,1.5,5V36.9z M358.3,32.4c0-1.5-0.3-2.6-0.8-3.3c-0.5-0.7-1.3-1.1-2.3-1.1
		s-1.8,0.4-2.3,1.1c-0.5,0.7-0.8,1.9-0.8,3.3v5c0,1.5,0.3,2.6,0.8,3.3s1.3,1.1,2.3,1.1s1.8-0.4,2.3-1.1s0.8-1.9,0.8-3.3V32.4z" />
        <path class="st1" d="M366.1,43.4h-2.3V41h2.3V43.4z" />
        <path class="st1" d="M380.5,36.9c0,2.2-0.5,3.8-1.4,5s-2.3,1.7-4,1.7s-3-0.6-4-1.7s-1.5-2.8-1.5-5v-4c0-2.2,0.5-3.8,1.5-5
		s2.3-1.8,4-1.8c1.7,0,3,0.6,4,1.8s1.5,2.8,1.5,5V36.9z M378.2,32.4c0-1.5-0.3-2.6-0.8-3.3c-0.5-0.7-1.3-1.1-2.3-1.1
		s-1.8,0.4-2.3,1.1c-0.5,0.7-0.8,1.9-0.8,3.3v5c0,1.5,0.3,2.6,0.8,3.3s1.3,1.1,2.3,1.1s1.8-0.4,2.3-1.1s0.8-1.9,0.8-3.3V32.4z" />
        <path class="st1" d="M389.8,43.4h-2.3V28.6l-3.5,0V27l5.8-0.6V43.4z" />
    </g>
</svg>
