<svg width="144" height="40" xmlns="http://www.w3.org/2000/svg"><g fill="none" fill-rule="evenodd"><rect stroke="#DBE8B0" fill="#A4C639" fill-rule="nonzero" x=".5" y=".5" width="143" height="39" rx="4"/><path d="M46.583 28.683h-3.855L41.92 31h-1.798l3.76-9.953h1.552L49.2 31h-1.805l-.813-2.317zm-3.37-1.395h2.885l-1.443-4.129-1.442 4.13zm8.169-3.684l.048.854c.547-.66 1.264-.991 2.153-.991 1.54 0 2.324.882 2.352 2.645V31h-1.662v-4.792c0-.47-.101-.817-.304-1.042-.203-.226-.534-.339-.994-.339-.67 0-1.17.303-1.497.91V31h-1.662v-7.396h1.566zm5.933 3.643c0-1.14.265-2.054.793-2.745.529-.69 1.238-1.035 2.126-1.035.784 0 1.418.273 1.9.82V20.5h1.662V31h-1.504l-.082-.766c-.497.602-1.16.903-1.99.903-.865 0-1.566-.349-2.101-1.046-.536-.697-.804-1.645-.804-2.844zm1.662.144c0 .752.144 1.338.434 1.76.289.421.7.632 1.234.632.679 0 1.175-.303 1.49-.909v-3.158c-.306-.593-.798-.889-1.477-.889-.538 0-.952.213-1.244.64-.292.425-.437 1.067-.437 1.924zM69.4 25.12a4.11 4.11 0 0 0-.676-.055c-.761 0-1.274.292-1.538.875V31h-1.662v-7.396h1.586l.041.827c.401-.643.957-.964 1.668-.964.237 0 .433.032.588.096l-.007 1.558zm.493 2.112c0-.724.143-1.377.43-1.958a3.145 3.145 0 0 1 1.21-1.34c.52-.312 1.117-.468 1.791-.468.998 0 1.808.321 2.43.964.622.642.959 1.494 1.009 2.556l.007.39c0 .73-.14 1.38-.42 1.955a3.108 3.108 0 0 1-1.204 1.333c-.522.314-1.125.472-1.808.472-1.044 0-1.879-.348-2.506-1.043-.626-.695-.94-1.621-.94-2.779v-.082zm1.66.144c0 .761.158 1.357.472 1.788.315.43.752.646 1.313.646.56 0 .997-.22 1.309-.657.312-.437.468-1.077.468-1.92 0-.748-.16-1.34-.482-1.778-.321-.437-.757-.656-1.309-.656-.542 0-.973.215-1.292.646-.319.43-.478 1.074-.478 1.931zM79.943 31h-1.66v-7.396h1.66V31zm-1.763-9.317c0-.256.08-.468.242-.636.162-.169.393-.253.694-.253.301 0 .533.084.698.253.164.168.246.38.246.636 0 .25-.082.459-.246.625-.165.166-.397.25-.698.25-.3 0-.532-.084-.694-.25a.861.861 0 0 1-.242-.625zm3.26 5.564c0-1.14.265-2.054.793-2.745.53-.69 1.238-1.035 2.126-1.035.784 0 1.418.273 1.9.82V20.5h1.662V31h-1.504l-.082-.766c-.497.602-1.16.903-1.99.903-.865 0-1.566-.349-2.101-1.046-.536-.697-.804-1.645-.804-2.844zm1.662.144c0 .752.144 1.338.434 1.76.29.421.7.632 1.234.632.679 0 1.175-.303 1.49-.909v-3.158c-.306-.593-.798-.889-1.477-.889-.538 0-.952.213-1.244.64-.292.425-.437 1.067-.437 1.924zM40.99 16V7.469h2.408c.743 0 1.399.164 1.97.492.57.328 1.01.795 1.32 1.4.311.606.468 1.301.472 2.086v.545c0 .805-.155 1.51-.466 2.115a3.277 3.277 0 0 1-1.33 1.395c-.576.324-1.247.49-2.012.498H40.99zm1.125-7.605v6.685H43.3c.867 0 1.542-.27 2.024-.809.483-.539.724-1.306.724-2.302v-.498c0-.97-.228-1.722-.683-2.26-.455-.536-1.1-.809-1.936-.816h-1.313zm6.287 4.376c0-.62.122-1.18.367-1.675a2.732 2.732 0 0 1 1.02-1.149c.435-.27.932-.404 1.49-.404.864 0 1.562.299 2.095.896.533.598.8 1.393.8 2.385v.076c0 .618-.118 1.171-.355 1.662-.236.49-.574.872-1.013 1.145-.44.273-.945.41-1.515.41-.86 0-1.556-.299-2.089-.896-.533-.598-.8-1.389-.8-2.373v-.077zm1.09.13c0 .703.163 1.267.49 1.693.326.426.762.638 1.309.638.55 0 .988-.215 1.313-.647.324-.432.486-1.036.486-1.814 0-.695-.165-1.258-.495-1.69a1.574 1.574 0 0 0-1.316-.647c-.535 0-.966.212-1.295.638-.328.426-.492 1.035-.492 1.828zm11.654 1.605l1.22-4.846h1.083L61.604 16h-.88l-1.54-4.805-1.5 4.805h-.88l-1.84-6.34h1.079l1.248 4.746 1.477-4.746h.873l1.505 4.846zm4.43-4.846l.035.797c.485-.61 1.118-.914 1.899-.914 1.34 0 2.015.756 2.027 2.268V16h-1.084v-4.195c-.004-.457-.108-.795-.313-1.014-.205-.219-.525-.328-.958-.328-.352 0-.66.094-.926.281a1.91 1.91 0 0 0-.621.738V16H64.55V9.66h1.025zM72.35 16h-1.084V7h1.084v9zm1.447-3.229c0-.62.122-1.18.366-1.675a2.732 2.732 0 0 1 1.02-1.149c.435-.27.932-.404 1.49-.404.864 0 1.562.299 2.096.896.533.598.8 1.393.8 2.385v.076c0 .618-.119 1.171-.355 1.662-.236.49-.574.872-1.014 1.145-.44.273-.944.41-1.514.41-.86 0-1.556-.299-2.09-.896-.533-.598-.8-1.389-.8-2.373v-.077zm1.09.13c0 .703.163 1.267.489 1.693.326.426.763.638 1.31.638.55 0 .988-.215 1.312-.647.324-.432.486-1.036.486-1.814 0-.695-.165-1.258-.495-1.69a1.574 1.574 0 0 0-1.315-.647c-.535 0-.967.212-1.295.638-.328.426-.492 1.035-.492 1.828zM84.842 16c-.063-.125-.113-.348-.153-.668-.503.523-1.105.785-1.804.785-.625 0-1.138-.177-1.538-.53-.4-.354-.6-.802-.6-1.345 0-.66.25-1.173.752-1.538s1.208-.548 2.118-.548h1.055v-.498c0-.379-.113-.68-.34-.905-.227-.225-.56-.337-1.002-.337-.387 0-.71.098-.973.293-.261.195-.392.432-.392.709h-1.09c0-.316.112-.622.337-.917a2.3 2.3 0 0 1 .914-.7 3.075 3.075 0 0 1 1.269-.258c.73 0 1.302.183 1.716.548.414.365.63.868.645 1.509v2.918c0 .582.074 1.044.223 1.388V16h-1.137zm-1.799-.826c.34 0 .662-.088.967-.264.304-.176.525-.404.662-.685v-1.301h-.85c-1.328 0-1.992.388-1.992 1.166 0 .34.113.605.34.797.226.191.517.287.873.287zm4.148-2.397c0-.972.23-1.755.692-2.346.46-.592 1.064-.888 1.81-.888.743 0 1.33.254 1.764.762V7h1.084v9h-.996l-.053-.68c-.433.532-1.037.797-1.81.797-.735 0-1.333-.3-1.796-.902-.463-.602-.695-1.387-.695-2.356v-.082zm1.084.123c0 .72.149 1.282.446 1.688.297.406.707.61 1.23.61.688 0 1.19-.31 1.506-.927V11.36c-.324-.597-.822-.896-1.494-.896-.531 0-.945.205-1.242.615-.297.41-.446 1.018-.446 1.822zm9.452 3.1v-5.502h-1.002V9.66h1.002v-.65c0-.68.181-1.205.544-1.576.364-.372.877-.557 1.541-.557.25 0 .499.033.745.1l-.059.878a3.113 3.113 0 0 0-.586-.052c-.351 0-.623.102-.814.307-.192.205-.287.5-.287.882v.668h1.353v.838h-1.353V16h-1.084zm3.345-3.229c0-.62.122-1.18.366-1.675a2.732 2.732 0 0 1 1.02-1.149c.436-.27.933-.404 1.491-.404.864 0 1.562.299 2.095.896.533.598.8 1.393.8 2.385v.076c0 .618-.118 1.171-.355 1.662-.236.49-.574.872-1.013 1.145-.44.273-.945.41-1.515.41-.86 0-1.556-.299-2.089-.896-.533-.598-.8-1.389-.8-2.373v-.077zm1.09.13c0 .703.163 1.267.49 1.693.326.426.762.638 1.309.638.55 0 .988-.215 1.312-.647.325-.432.487-1.036.487-1.814 0-.695-.165-1.258-.495-1.69a1.574 1.574 0 0 0-1.316-.647c-.535 0-.967.212-1.295.638-.328.426-.492 1.035-.492 1.828zm9.106-2.268a3.248 3.248 0 0 0-.534-.041c-.71 0-1.193.303-1.447.908V16h-1.084V9.66h1.055l.017.733c.356-.567.86-.85 1.512-.85.211 0 .371.027.48.082v1.008z" fill="#FFF"/><g fill="#FFF" fill-rule="nonzero"><path d="M13.478 14.979h-.06a1.389 1.389 0 0 0-1.374 1.398v6.085c0 .773.615 1.399 1.375 1.4h.06a1.39 1.39 0 0 0 1.374-1.4v-6.085a1.392 1.392 0 0 0-1.375-1.398zM15.511 24.811a1.276 1.276 0 0 0 1.264 1.283h1.35v3.287a1.39 1.39 0 0 0 1.375 1.4h.059a1.391 1.391 0 0 0 1.377-1.4v-3.287h1.887v3.287a1.392 1.392 0 0 0 1.377 1.4h.058c.76 0 1.377-.627 1.377-1.4v-3.287h1.351a1.276 1.276 0 0 0 1.263-1.283v-9.609H15.51v9.609zM25.052 9.375l1.072-1.683a.235.235 0 0 0-.065-.32.223.223 0 0 0-.315.066L24.63 9.181a7.24 7.24 0 0 0-5.5 0L18.02 7.44a.227.227 0 0 0-.306-.054.236.236 0 0 0-.078.306l1.073 1.683c-1.934.964-3.24 2.781-3.24 4.867 0 .128.008.254.019.379h12.787c.01-.125.017-.251.017-.38 0-2.085-1.306-3.902-3.24-4.866zm-6.136 3.014a.62.62 0 0 1-.613-.625.62.62 0 0 1 .615-.624.62.62 0 0 1 .613.624.63.63 0 0 1-.18.442.61.61 0 0 1-.435.183zm5.928 0a.62.62 0 0 1-.614-.625.62.62 0 0 1 .614-.624c.34 0 .614.28.614.624a.63.63 0 0 1-.18.442.61.61 0 0 1-.434.183zM30.34 14.979h-.057a1.392 1.392 0 0 0-1.377 1.398v6.085a1.392 1.392 0 0 0 1.377 1.4h.058a1.389 1.389 0 0 0 1.375-1.4v-6.085a1.391 1.391 0 0 0-1.376-1.398z"/></g></g></svg>