<?xml version="1.0" encoding="UTF-8"?>
<svg width="216px" height="64px" viewBox="0 0 216 64" version="1.1" xmlns="http://www.w3.org/2000/svg" xmlns:xlink="http://www.w3.org/1999/xlink">
    <!-- Generator: Sketch 52.3 (67297) - http://www.bohemiancoding.com/sketch -->
    <title>btn-windows</title>
    <desc>Created with Sketch.</desc>
    <g id="Vpn-page" stroke="none" stroke-width="1" fill="none" fill-rule="evenodd">
        <g id="VPN-Page" transform="translate(-412.000000, -1002.000000)">
            <g id="buttons" transform="translate(412.000000, 1002.000000)">
                <g id="btn-windows">
                    <rect id="bg" fill="#000000" x="0" y="0" width="216" height="64" rx="8"></rect>
                    <path d="M208,1.28 C211.711354,1.28 214.72,4.28864648 214.72,8 L214.72,56 C214.72,59.7113535 211.711354,62.72 208,62.72 L8,62.72 C4.28864648,62.72 1.28,59.7113535 1.28,56 L1.28,8 C1.28,4.28864648 4.28864648,1.28 8,1.28 L208,1.28 Z M208,0 L8,0 C3.581722,2.84217094e-15 0,3.581722 0,8 L0,56 C0,60.418278 3.581722,64 8,64 L208,64 C212.418278,64 216,60.418278 216,56 L216,8 C216,3.581722 212.418278,2.84217094e-15 208,0 Z" id="Shape" fill="#A6A6A6" fill-rule="nonzero"></path>
                    <g id="ic-windows" transform="translate(12.000000, 12.000000)" fill="#FFFFFF">
                        <path d="M18.3686076,3.13721519 C25.5618565,2.03679325 32.7632068,0.991054852 39.9726582,0 C39.9780591,6.31628692 39.9797468,12.6305485 39.9777215,18.9427848 C32.7756962,18.9701266 25.5736709,19.0805063 18.3675949,19.1027848 C18.3628692,13.7782278 18.3628692,8.45637131 18.3675949,3.13721519 L18.3686076,3.13721519 Z" id="path5"></path>
                        <path d="M0.101265823,5.68506329 C5.51696203,4.84962025 10.9559494,4.12860759 16.3949367,3.44810127 C16.4003376,8.68556962 16.4033755,13.9220253 16.4040506,19.1574684 C10.9701266,19.1574684 5.53518987,19.235443 0.100253165,19.2212658 L0.100253165,5.68506329 L0.101265823,5.68506329 Z" id="path7"></path>
                        <path d="M0.101265823,20.8698734 C5.53113924,20.8516456 10.9610127,20.9387342 16.3908861,20.9296203 C16.3908861,26.1812658 16.4040506,31.4329114 16.3908861,36.6855696 C10.9660759,35.881519 5.53113924,35.1777215 0.0972151899,34.4425316 L0.101265823,20.8698734 Z" id="path29"></path>
                        <path d="M18.3362025,21.0805063 L39.9726582,21.0805063 C39.9821097,27.3778903 39.9821097,33.676962 39.9726582,39.9777215 C32.7827848,38.9002532 25.5736709,37.8997468 18.3675949,36.9225316 C18.3588186,31.6438819 18.3483544,26.3632068 18.3362025,21.0805063 Z" id="path31"></path>
                    </g>
                    <path d="M65.6523438,26 L65.6523438,13.3964844 L69.1328125,13.3964844 C73.574241,13.3964844 75.7949219,15.4443155 75.7949219,19.5400391 C75.7949219,21.4853613 75.1782288,23.0483339 73.9448242,24.2290039 C72.7114196,25.4096739 71.0605572,26 68.9921875,26 L65.6523438,26 Z M67.1289062,14.7324219 L67.1289062,24.6640625 L69.0097656,24.6640625 C70.6621176,24.6640625 71.9482376,24.2216841 72.8681641,23.3369141 C73.7880905,22.452144 74.2480469,21.1982503 74.2480469,19.5751953 C74.2480469,16.3466635 72.5312672,14.7324219 69.0976562,14.7324219 L67.1289062,14.7324219 Z M81.8417969,26.2109375 C80.5117121,26.2109375 79.449711,25.7905315 78.6557617,24.949707 C77.8618124,24.1088825 77.4648438,22.9941476 77.4648438,21.6054688 C77.4648438,20.0937424 77.8779256,18.9130902 78.7041016,18.0634766 C79.5302776,17.2138629 80.6464773,16.7890625 82.0527344,16.7890625 C83.394538,16.7890625 84.4418908,17.2021443 85.1948242,18.0283203 C85.9477577,18.8544963 86.3242188,19.9999927 86.3242188,21.4648438 C86.3242188,22.9003978 85.9184611,24.0502886 85.1069336,24.9145508 C84.2954061,25.7788129 83.2070381,26.2109375 81.8417969,26.2109375 Z M81.9472656,18.0019531 C81.0214797,18.0019531 80.2890652,18.3168914 79.75,18.9467773 C79.2109348,19.5766633 78.9414062,20.445307 78.9414062,21.5527344 C78.9414062,22.619146 79.2138645,23.4599579 79.7587891,24.0751953 C80.3037137,24.6904328 81.0331986,24.9980469 81.9472656,24.9980469 C82.8789109,24.9980469 83.5952123,24.6962921 84.0961914,24.0927734 C84.5971705,23.4892548 84.8476562,22.6308649 84.8476562,21.5175781 C84.8476562,20.3925725 84.5971705,19.5253937 84.0961914,18.9160156 C83.5952123,18.3066376 82.8789109,18.0019531 81.9472656,18.0019531 Z M99.9648438,17 L97.2666016,26 L95.7724609,26 L93.9179688,19.5576172 C93.8476559,19.3115222 93.8007814,19.0332047 93.7773438,18.7226562 L93.7421875,18.7226562 C93.7246093,18.9335948 93.6630865,19.206053 93.5576172,19.5400391 L91.5449219,26 L90.1035156,26 L87.3789062,17 L88.890625,17 L90.7539062,23.7675781 C90.8125003,23.9726573 90.8535155,24.2421858 90.8769531,24.5761719 L90.9472656,24.5761719 C90.9648438,24.3183581 91.0175777,24.0429702 91.1054688,23.75 L93.1796875,17 L94.4980469,17 L96.3613281,23.7851562 C96.4199222,24.0019542 96.463867,24.2714828 96.4931641,24.59375 L96.5634766,24.59375 C96.5751954,24.3652332 96.6249996,24.0957047 96.7128906,23.7851562 L98.5410156,17 L99.9648438,17 Z M109.105469,26 L107.664062,26 L107.664062,20.8671875 C107.664062,18.9570217 106.966804,18.0019531 105.572266,18.0019531 C104.851559,18.0019531 104.255373,18.2729465 103.783691,18.8149414 C103.312009,19.3569363 103.076172,20.0410115 103.076172,20.8671875 L103.076172,26 L101.634766,26 L101.634766,17 L103.076172,17 L103.076172,18.4941406 L103.111328,18.4941406 C103.791019,17.3574162 104.775384,16.7890625 106.064453,16.7890625 C107.048833,16.7890625 107.801755,17.1069304 108.323242,17.7426758 C108.844729,18.3784211 109.105469,19.296869 109.105469,20.4980469 L109.105469,26 Z M113.262695,26 L111.821289,26 L111.821289,12.6757812 L113.262695,12.6757812 L113.262695,26 Z M119.942383,26.2109375 C118.612298,26.2109375 117.550297,25.7905315 116.756348,24.949707 C115.962398,24.1088825 115.56543,22.9941476 115.56543,21.6054688 C115.56543,20.0937424 115.978511,18.9130902 116.804688,18.0634766 C117.630864,17.2138629 118.747063,16.7890625 120.15332,16.7890625 C121.495124,16.7890625 122.542477,17.2021443 123.29541,18.0283203 C124.048344,18.8544963 124.424805,19.9999927 124.424805,21.4648438 C124.424805,22.9003978 124.019047,24.0502886 123.20752,24.9145508 C122.395992,25.7788129 121.307624,26.2109375 119.942383,26.2109375 Z M120.047852,18.0019531 C119.122066,18.0019531 118.389651,18.3168914 117.850586,18.9467773 C117.311521,19.5766633 117.041992,20.445307 117.041992,21.5527344 C117.041992,22.619146 117.31445,23.4599579 117.859375,24.0751953 C118.4043,24.6904328 119.133784,24.9980469 120.047852,24.9980469 C120.979497,24.9980469 121.695798,24.6962921 122.196777,24.0927734 C122.697756,23.4892548 122.948242,22.6308649 122.948242,21.5175781 C122.948242,20.3925725 122.697756,19.5253937 122.196777,18.9160156 C121.695798,18.3066376 120.979497,18.0019531 120.047852,18.0019531 Z M133.169922,26 L131.728516,26 L131.728516,24.59375 L131.693359,24.59375 C131.066403,25.6718804 130.143561,26.2109375 128.924805,26.2109375 C128.028316,26.2109375 127.326663,25.9736352 126.819824,25.4990234 C126.312986,25.0244117 126.05957,24.3945352 126.05957,23.609375 C126.05957,21.927726 127.049795,20.9492201 129.030273,20.6738281 L131.728516,20.2958984 C131.728516,18.7665939 131.110358,18.0019531 129.874023,18.0019531 C128.790034,18.0019531 127.811528,18.3710901 126.938477,19.109375 L126.938477,17.6328125 C127.823247,17.0703097 128.842768,16.7890625 129.99707,16.7890625 C132.112315,16.7890625 133.169922,17.9081919 133.169922,20.1464844 L133.169922,26 Z M131.728516,21.4472656 L129.557617,21.7460938 C128.889645,21.8398442 128.385744,22.0053699 128.045898,22.2426758 C127.706053,22.4799817 127.536133,22.9003876 127.536133,23.5039062 C127.536133,23.9433616 127.69287,24.3022447 128.006348,24.5805664 C128.319826,24.8588881 128.737302,24.9980469 129.258789,24.9980469 C129.973636,24.9980469 130.563963,24.7475611 131.029785,24.246582 C131.495608,23.745603 131.728516,23.111332 131.728516,22.34375 L131.728516,21.4472656 Z M143.567383,26 L142.125977,26 L142.125977,24.4707031 L142.09082,24.4707031 C141.422848,25.6308652 140.391609,26.2109375 138.99707,26.2109375 C137.866205,26.2109375 136.962406,25.8081095 136.285645,25.0024414 C135.608883,24.1967733 135.270508,23.0996163 135.270508,21.7109375 C135.270508,20.2226488 135.645504,19.0302779 136.395508,18.1337891 C137.145512,17.2373002 138.144525,16.7890625 139.392578,16.7890625 C140.628912,16.7890625 141.528318,17.2753858 142.09082,18.2480469 L142.125977,18.2480469 L142.125977,12.6757812 L143.567383,12.6757812 L143.567383,26 Z M142.125977,21.9306641 L142.125977,20.6035156 C142.125977,19.8769495 141.885745,19.2617213 141.405273,18.7578125 C140.924802,18.2539037 140.315433,18.0019531 139.577148,18.0019531 C138.698238,18.0019531 138.006838,18.3242155 137.50293,18.96875 C136.999021,19.6132845 136.74707,20.5039006 136.74707,21.640625 C136.74707,22.6777396 136.988767,23.496579 137.472168,24.097168 C137.955569,24.6977569 138.604488,24.9980469 139.418945,24.9980469 C140.221684,24.9980469 140.873533,24.7080107 141.374512,24.1279297 C141.875491,23.5478487 142.125977,22.8154341 142.125977,21.9306641 Z M155.863281,13.9414062 C155.58203,13.7832023 155.262697,13.7041016 154.905273,13.7041016 C153.897456,13.7041016 153.393555,14.3398374 153.393555,15.6113281 L153.393555,17 L155.50293,17 L155.50293,18.2304688 L153.393555,18.2304688 L153.393555,26 L151.960938,26 L151.960938,18.2304688 L150.422852,18.2304688 L150.422852,17 L151.960938,17 L151.960938,15.5410156 C151.960938,14.5976515 152.233396,13.8520535 152.77832,13.3041992 C153.323245,12.7563449 154.002926,12.4824219 154.817383,12.4824219 C155.256838,12.4824219 155.605467,12.5351557 155.863281,12.640625 L155.863281,13.9414062 Z M160.811523,26.2109375 C159.481439,26.2109375 158.419438,25.7905315 157.625488,24.949707 C156.831539,24.1088825 156.43457,22.9941476 156.43457,21.6054688 C156.43457,20.0937424 156.847652,18.9130902 157.673828,18.0634766 C158.500004,17.2138629 159.616204,16.7890625 161.022461,16.7890625 C162.364265,16.7890625 163.411617,17.2021443 164.164551,18.0283203 C164.917484,18.8544963 165.293945,19.9999927 165.293945,21.4648438 C165.293945,22.9003978 164.888188,24.0502886 164.07666,24.9145508 C163.265133,25.7788129 162.176765,26.2109375 160.811523,26.2109375 Z M160.916992,18.0019531 C159.991206,18.0019531 159.258792,18.3168914 158.719727,18.9467773 C158.180661,19.5766633 157.911133,20.445307 157.911133,21.5527344 C157.911133,22.619146 158.183591,23.4599579 158.728516,24.0751953 C159.27344,24.6904328 160.002925,24.9980469 160.916992,24.9980469 C161.848637,24.9980469 162.564939,24.6962921 163.065918,24.0927734 C163.566897,23.4892548 163.817383,22.6308649 163.817383,21.5175781 C163.817383,20.3925725 163.566897,19.5253937 163.065918,18.9160156 C162.564939,18.3066376 161.848637,18.0019531 160.916992,18.0019531 Z M172.290039,18.4589844 C172.038085,18.265624 171.674807,18.1689453 171.200195,18.1689453 C170.584958,18.1689453 170.070803,18.4589815 169.657715,19.0390625 C169.244627,19.6191435 169.038086,20.4101512 169.038086,21.4121094 L169.038086,26 L167.59668,26 L167.59668,17 L169.038086,17 L169.038086,18.8544922 L169.073242,18.8544922 C169.278321,18.2216765 169.591795,17.7280291 170.013672,17.3735352 C170.435549,17.0190412 170.907224,16.8417969 171.428711,16.8417969 C171.803713,16.8417969 172.090819,16.8828121 172.290039,16.9648438 L172.290039,18.4589844 Z" id="Download-for" fill="#FFFFFF"></path>
                    <path d="M86.921875,33.1953125 L82.3164062,50 L79.1640625,50 L75.9648438,38.2460938 C75.8320306,37.7460912 75.7500002,37.1992217 75.71875,36.6054688 L75.671875,36.6054688 C75.6328123,37.160159 75.5390632,37.6992161 75.390625,38.2226562 L72.1796875,50 L68.9570312,50 L64.2578125,33.1953125 L67.3164062,33.1953125 L70.3632812,45.5 C70.4882819,46.0156276 70.5664061,46.5546847 70.5976562,47.1171875 L70.65625,47.1171875 C70.6875002,46.718748 70.7968741,46.1796909 70.984375,45.5 L74.4296875,33.1953125 L77.3007812,33.1953125 L80.4882812,45.59375 C80.5976568,46.0156271 80.6796872,46.5156221 80.734375,47.09375 L80.78125,47.09375 C80.8046876,46.703123 80.8945305,46.1875032 81.0507812,45.546875 L84.0390625,33.1953125 L86.921875,33.1953125 Z M90.3203125,35.4804688 C89.8749978,35.4804688 89.4941422,35.3359389 89.1777344,35.046875 C88.8613265,34.7578111 88.703125,34.3906272 88.703125,33.9453125 C88.703125,33.4999978 88.8613265,33.1289077 89.1777344,32.8320312 C89.4941422,32.5351548 89.8749978,32.3867188 90.3203125,32.3867188 C90.7812523,32.3867188 91.1718734,32.5351548 91.4921875,32.8320312 C91.8125016,33.1289077 91.9726562,33.4999978 91.9726562,33.9453125 C91.9726562,34.3671896 91.8125016,34.7285141 91.4921875,35.0292969 C91.1718734,35.3300796 90.7812523,35.4804688 90.3203125,35.4804688 Z M91.6679688,50 L88.9492188,50 L88.9492188,38 L91.6679688,38 L91.6679688,50 Z M105.90625,50 L103.1875,50 L103.1875,43.2382812 C103.1875,40.9960825 102.394539,39.875 100.808594,39.875 C99.9804646,39.875 99.2968777,40.1855438 98.7578125,40.8066406 C98.2187473,41.4277375 97.9492188,42.2109328 97.9492188,43.15625 L97.9492188,50 L95.21875,50 L95.21875,38 L97.9492188,38 L97.9492188,39.9921875 L97.9960938,39.9921875 C98.8945357,38.4765549 100.191398,37.71875 101.886719,37.71875 C103.191413,37.71875 104.187497,38.1425739 104.875,38.9902344 C105.562503,39.8378949 105.90625,41.062492 105.90625,42.6640625 L105.90625,50 Z M120.132812,50 L117.414062,50 L117.414062,47.9609375 L117.367188,47.9609375 C116.492183,49.5078202 115.14454,50.28125 113.324219,50.28125 C111.847649,50.28125 110.66602,49.744146 109.779297,48.6699219 C108.892574,47.5956978 108.449219,46.1328218 108.449219,44.28125 C108.449219,42.2968651 108.939448,40.7070372 109.919922,39.5117188 C110.900396,38.3164003 112.207023,37.71875 113.839844,37.71875 C115.457039,37.71875 116.632809,38.367181 117.367188,39.6640625 L117.414062,39.6640625 L117.414062,32.234375 L120.132812,32.234375 L120.132812,50 Z M117.449219,44.515625 L117.449219,42.9453125 C117.449219,42.0937457 117.171878,41.3710967 116.617188,40.7773438 C116.062497,40.1835908 115.355473,39.8867188 114.496094,39.8867188 C113.480464,39.8867188 112.681644,40.2656212 112.099609,41.0234375 C111.517575,41.7812538 111.226562,42.8320245 111.226562,44.1757812 C111.226562,45.3945373 111.505857,46.3574183 112.064453,47.0644531 C112.62305,47.7714879 113.374995,48.125 114.320312,48.125 C115.250005,48.125 116.003903,47.7832065 116.582031,47.0996094 C117.160159,46.4160122 117.449219,45.5546927 117.449219,44.515625 Z M129.003906,50.28125 C127.152334,50.28125 125.673834,49.7207087 124.568359,48.5996094 C123.462885,47.47851 122.910156,45.9921968 122.910156,44.140625 C122.910156,42.1249899 123.486322,40.5507869 124.638672,39.4179688 C125.791021,38.2851506 127.34374,37.71875 129.296875,37.71875 C131.171884,37.71875 132.632807,38.2695257 133.679688,39.3710938 C134.726568,40.4726618 135.25,41.9999902 135.25,43.953125 C135.25,45.8671971 134.685553,47.4003849 133.556641,48.5527344 C132.427729,49.7050839 130.910166,50.28125 129.003906,50.28125 Z M129.132812,39.8867188 C128.070307,39.8867188 127.230472,40.2578088 126.613281,41 C125.996091,41.7421912 125.6875,42.7656185 125.6875,44.0703125 C125.6875,45.3281313 125.999997,46.3183558 126.625,47.0410156 C127.250003,47.7636755 128.085932,48.125 129.132812,48.125 C130.20313,48.125 131.025388,47.7695348 131.599609,47.0585938 C132.173831,46.3476527 132.460938,45.3359441 132.460938,44.0234375 C132.460938,42.7031184 132.173831,41.6835973 131.599609,40.9648438 C131.025388,40.2460902 130.20313,39.8867188 129.132812,39.8867188 Z M154.152344,38 L150.613281,50 L147.765625,50 L145.585938,41.8671875 C145.5,41.5546859 145.445313,41.203127 145.421875,40.8125 L145.375,40.8125 C145.359375,41.0781263 145.289063,41.4218729 145.164062,41.84375 L142.796875,50 L140.007812,50 L136.480469,38 L139.292969,38 L141.472656,46.6484375 C141.542969,46.9062513 141.589844,47.2499979 141.613281,47.6796875 L141.695312,47.6796875 C141.71875,47.3515609 141.781249,47.0000019 141.882812,46.625 L144.308594,38 L146.863281,38 L149.019531,46.6835938 C149.089844,46.9570326 149.140625,47.3007792 149.171875,47.7148438 L149.253906,47.7148438 C149.269531,47.4257798 149.328124,47.0820332 149.429688,46.6835938 L151.5625,38 L154.152344,38 Z M155.417969,49.625 L155.417969,47.1054688 C156.433599,47.8789101 157.554681,48.265625 158.78125,48.265625 C160.421883,48.265625 161.242188,47.7812548 161.242188,46.8125 C161.242188,46.5390611 161.171876,46.3066416 161.03125,46.1152344 C160.890624,45.9238272 160.701173,45.753907 160.462891,45.6054688 C160.224608,45.4570305 159.943361,45.3242193 159.619141,45.2070312 C159.29492,45.0898432 158.933596,44.957032 158.535156,44.8085938 C158.042966,44.6132803 157.599611,44.4062511 157.205078,44.1875 C156.810545,43.9687489 156.482423,43.7207045 156.220703,43.4433594 C155.958983,43.1660142 155.761719,42.8515643 155.628906,42.5 C155.496093,42.1484357 155.429688,41.7382836 155.429688,41.2695312 C155.429688,40.6914034 155.566405,40.1816428 155.839844,39.7402344 C156.113283,39.2988259 156.480466,38.9277359 156.941406,38.6269531 C157.402346,38.3261704 157.925778,38.0996101 158.511719,37.9472656 C159.097659,37.7949211 159.703122,37.71875 160.328125,37.71875 C161.437506,37.71875 162.429683,37.8867171 163.304688,38.2226562 L163.304688,40.6015625 C162.460933,40.0234346 161.492193,39.734375 160.398438,39.734375 C160.054686,39.734375 159.744142,39.7695309 159.466797,39.8398438 C159.189452,39.9101566 158.953126,40.0078119 158.757812,40.1328125 C158.562499,40.2578131 158.410157,40.4082022 158.300781,40.5839844 C158.191406,40.7597665 158.136719,40.9531239 158.136719,41.1640625 C158.136719,41.4218763 158.191406,41.6406241 158.300781,41.8203125 C158.410157,42.0000009 158.572265,42.1582024 158.787109,42.2949219 C159.001954,42.4316413 159.259764,42.5566401 159.560547,42.6699219 C159.86133,42.7832037 160.207029,42.9062493 160.597656,43.0390625 C161.113284,43.2500011 161.57617,43.4648427 161.986328,43.6835938 C162.396486,43.9023448 162.746092,44.1503892 163.035156,44.4277344 C163.32422,44.7050795 163.546874,45.0253888 163.703125,45.3886719 C163.859376,45.7519549 163.9375,46.1835912 163.9375,46.6835938 C163.9375,47.2929718 163.796876,47.8242165 163.515625,48.2773438 C163.234374,48.730471 162.859377,49.1054673 162.390625,49.4023438 C161.921873,49.6992202 161.380862,49.9199212 160.767578,50.0644531 C160.154294,50.2089851 159.507816,50.28125 158.828125,50.28125 C157.515618,50.28125 156.378911,50.0625022 155.417969,49.625 Z" id="Windows" fill="#FFFFFF"></path>
                </g>
            </g>
        </g>
    </g>
</svg>