<?xml version="1.0" encoding="UTF-8"?>
<svg width="21px" height="21px" viewBox="0 0 21 21" version="1.1" xmlns="http://www.w3.org/2000/svg" xmlns:xlink="http://www.w3.org/1999/xlink">
    <!-- Generator: Sketch 44.1 (41455) - http://www.bohemiancoding.com/sketch -->
    <title>currency/ic-btc</title>
    <desc>Created with Sketch.</desc>
    <defs></defs>
    <g id="Flows-to-create-CR" stroke="none" stroke-width="1" fill="none" fill-rule="evenodd">
        <g id="4-Choose-Currency-(Combine-Version)" transform="translate(-451.000000, -505.000000)" fill-rule="nonzero" fill="#F6A623">
            <g id="Group-10" transform="translate(305.000000, 138.000000)">
                <g id="Group-8" transform="translate(97.000000, 241.000000)">
                    <g id="Group-6-Copy" transform="translate(0.000000, 37.000000)">
                        <g id="Group-16-Copy">
                            <g id="Group-4">
                                <g id="Group-2" transform="translate(0.000000, 75.000000)">
                                    <g id="Group-14">
                                        <g id="currency/ic-btc" transform="translate(49.820713, 14.817128)">
                                            <g id="Group-6" transform="translate(10.000000, 10.000000) rotate(-20.000000) translate(-10.000000, -10.000000) ">
                                                <path d="M13.3377483,0.728476821 C8.1986755,-1.13907285 2.47682119,1.50993377 0.609271523,6.66225166 C-1.25827815,11.8145695 1.40397351,17.5231788 6.54304636,19.3907285 C11.6821192,21.2582781 17.4039735,18.6092715 19.2715232,13.4569536 C21.1390728,8.30463576 18.4768212,2.59602649 13.3377483,0.728476821 Z M12.5562914,14.2384106 C12.2384106,14.4635762 11.8675497,14.6092715 11.4834437,14.6754967 C11.0993377,14.7549669 10.7019868,14.7549669 10.2781457,14.7019868 C9.98675497,14.6622517 9.68211921,14.6092715 9.37748344,14.5165563 L8.78145695,16.1721854 L7.82781457,15.8278146 L8.42384106,14.1721854 L7.45695364,13.8145695 L6.86092715,15.4701987 L5.90728477,15.1258278 L6.50331126,13.4701987 L4.43708609,12.7152318 L4.79470199,11.7218543 L5.09933775,11.8013245 C5.20529801,11.8410596 5.35099338,11.8675497 5.54966887,11.9205298 C5.8013245,11.986755 5.89403974,11.9735099 5.9205298,11.986755 C6.02649007,11.986755 6.06622517,11.9602649 6.06622517,11.9602649 C6.09271523,11.9337748 6.1192053,11.8940397 6.14569536,11.8145695 L8.13245033,6.34437086 C8.1589404,6.26490066 8.1589404,6.21192053 8.1589404,6.1589404 C8.1589404,6.14569536 8.13245033,6.10596026 8.06622517,6.0397351 C7.97350993,5.94701987 7.85430464,5.8807947 7.74834437,5.8013245 C7.60264901,5.7218543 7.48344371,5.66887417 7.40397351,5.61589404 L7.11258278,5.48344371 L7.47019868,4.49006623 L9.48344371,5.21854305 L10.0794702,3.58940397 L11.0331126,3.93377483 L10.4635762,5.58940397 L11.4304636,5.94701987 L12.0264901,4.29139073 L12.9801325,4.63576159 L12.3708609,6.30463576 C12.5695364,6.38410596 12.7549669,6.49006623 12.9271523,6.58278146 C13.2317881,6.76821192 13.4966887,6.98013245 13.7483444,7.23178808 C13.986755,7.48344371 14.1589404,7.77483444 14.2649007,8.10596026 C14.3708609,8.45033113 14.3576159,8.82119205 14.2251656,9.19205298 C14.1059603,9.50993377 13.9337748,9.77483444 13.6953642,9.98675497 C13.4701987,10.1854305 13.192053,10.3311258 12.8874172,10.4238411 C12.7019868,10.4768212 12.4900662,10.5165563 12.2649007,10.5430464 C12.4900662,10.7284768 12.6887417,10.9139073 12.8609272,11.1258278 C13.0993377,11.4039735 13.2715232,11.7218543 13.3774834,12.0927152 C13.4834437,12.4635762 13.4569536,12.8741722 13.3112583,13.2847682 C13.1390728,13.6688742 12.9006623,14 12.5562914,14.2384106 Z" id="Shape"></path>
                                                <path d="M11.0993377,12.410596 C10.8211921,13.1655629 9.98675497,13.5629139 9.23178808,13.2847682 L7.8410596,12.781457 L8.83443709,10.0397351 L10.2251656,10.5430464 C10.9801325,10.8211921 11.3642384,11.6556291 11.0993377,12.410596 Z" id="Shape"></path>
                                                <path d="M11.9470199,8.63576159 C11.7218543,9.27152318 11.0198675,9.58940397 10.384106,9.36423841 L9.24503311,8.95364238 L10.0794702,6.64900662 L11.218543,7.05960265 C11.8410596,7.29801325 12.1721854,8.01324503 11.9470199,8.63576159 Z" id="Shape"></path>
                                            </g>
                                        </g>
                                    </g>
                                </g>
                            </g>
                        </g>
                    </g>
                </g>
            </g>
        </g>
    </g>
</svg>