<svg width="20" height="20" xmlns="http://www.w3.org/2000/svg"><path fill="none" d="M-1-1h22v22H-1z"/><g><g stroke="null" fill="none"><path d="M9.978 19.89c-5.45 0-9.91-4.46-9.91-9.912s4.46-9.91 9.91-9.91 9.912 4.46 9.912 9.91-4.46 9.912-9.912 9.912z" fill="#002868"/><path d="M14.974 4.032a.954.954 0 01.951.951v9.99a.954.954 0 01-.951.952h-9.99a.954.954 0 01-.952-.951v-9.99a.954.954 0 01.951-.952h9.99zm0 .158h-9.99a.795.795 0 00-.794.793v6.264a.16.16 0 00.159.159h11.26a.159.159 0 00.158-.159V4.983a.795.795 0 00-.793-.793z" fill="#FFF"/><path d="M8.25 12.585a.062.062 0 01.06.06v1.106c0 .318.163.545.447.545.284 0 .448-.227.448-.545v-1.106c0-.032.025-.06.056-.06h.378a.062.062 0 01.06.06v1.09c0 .647-.365 1.022-.945 1.022-.577 0-.94-.375-.94-1.022v-1.09c0-.032.026-.06.058-.06h.377zm2.692-.025c.485 0 .823.261.892.652.01.044-.003.073-.05.073h-.348c-.05 0-.066-.02-.085-.057-.066-.155-.211-.252-.432-.252-.198 0-.365.07-.365.201 0 .146.154.206.494.246.518.06.814.218.814.628 0 .46-.404.702-.92.702-.448 0-.833-.217-.892-.674-.007-.044.015-.06.06-.06h.346c.044 0 .07.019.082.054.048.151.209.268.442.268.204 0 .384-.076.384-.237 0-.192-.19-.227-.567-.274-.435-.057-.738-.183-.738-.583s.344-.687.883-.687zm-3.53.025a.062.062 0 01.06.06v.309c0 .03-.03.056-.06.056H6.85a.062.062 0 00-.06.06v1.598c0 .032-.026.06-.057.06h-.381c-.032 0-.057-.029-.057-.06V13.07c0-.031-.026-.06-.057-.06h-.564c-.031 0-.06-.025-.06-.056v-.31c0-.03.03-.06.06-.06h1.737zm5.736 0c.636 0 1.131.437 1.131 1.078 0 .63-.489 1.065-1.131 1.065h-.858c-.031 0-.057-.029-.057-.06v-2.023c0-.032.026-.06.057-.06h.857zm-.004.425h-.356a.06.06 0 00-.057.06v1.175c0 .031.026.057.057.057h.36c.343 0 .61-.271.61-.646s-.268-.646-.614-.646h0z" fill="#002868"/><path d="M12.318 5.52a.12.12 0 01.118.12v1.03a.12.12 0 01-.118.12H10.68V10a.12.12 0 01-.119.12h-1.03a.12.12 0 01-.12-.12V6.79H7.64a.12.12 0 01-.118-.12V5.64a.12.12 0 01.118-.12h4.679z" fill="#FFF"/></g></g></svg>