<svg xmlns="http://www.w3.org/2000/svg" width="36" height="32" viewBox="0 0 36 32"><title>USB</title><path d="M26.926 12.562h4.932v1.719h-4.932v2.865h4.932v1.719h-4.932v1.425c-.011 2.344-.748 4.262-2.21 5.753s-3.445 2.327-5.949 2.509l-.87.034c-2.72 0-4.888-.734-6.504-2.202s-2.435-3.488-2.458-6.06v-1.46H3.777v-1.719h5.158V14.28H3.777v-1.719h5.158v-9.17h3.243v16.831c0 1.798.495 3.195 1.485 4.191s2.401 1.494 4.233 1.494c1.855 0 3.275-.495 4.259-1.485s1.476-2.384 1.476-4.182V3.392h3.295v9.17z"/></svg>