<svg width="96" height="96" viewBox="0 0 96 96" xmlns="http://www.w3.org/2000/svg"><title>96</title><g fill="none" fill-rule="evenodd"><path d="M11.476 80.917c-.552 0-1.117-.023-1.697-.069a12.206 12.206 0 0 1-1.572-.22l2.207-9.242c.524-.1 1.073-.17 1.648-.207a24.884 24.884 0 0 1 1.58-.055c.551 0 1.027.058 1.427.173.4.114.726.269.98.462a1.856 1.856 0 0 1 .751 1.517c0 .202-.02.414-.062.634-.041.221-.124.44-.248.656a2.5 2.5 0 0 1-.51.613 3.272 3.272 0 0 1-.849.524c.414.184.717.435.91.752.193.317.29.67.29 1.055 0 .442-.087.867-.262 1.276-.175.41-.455.773-.841 1.09-.387.317-.888.57-1.504.758-.616.189-1.365.283-2.248.283zm-.193-4.303l-.593 2.483c.147.027.333.048.558.062.226.013.435.02.628.02.276 0 .55-.02.82-.062.272-.041.515-.117.732-.227.216-.11.393-.262.53-.456.139-.193.208-.44.208-.744a1.05 1.05 0 0 0-.076-.387.923.923 0 0 0-.242-.344 1.27 1.27 0 0 0-.434-.249 1.902 1.902 0 0 0-.642-.096h-1.49zm.4-1.614h1.351c.552 0 .964-.12 1.235-.359.271-.239.407-.524.407-.855a.824.824 0 0 0-.117-.448.872.872 0 0 0-.31-.297 1.435 1.435 0 0 0-.442-.158 2.668 2.668 0 0 0-.51-.049c-.194 0-.4.007-.621.021-.22.014-.386.03-.497.048L11.683 75zm7.572 5.793h-2.041l1.724-7.255h2.055l-1.738 7.255zm.993-8.138c-.285 0-.542-.085-.772-.255-.23-.17-.345-.43-.345-.78 0-.192.04-.374.117-.544a1.443 1.443 0 0 1 1.304-.848c.285 0 .542.085.772.255.23.17.345.43.345.78 0 .192-.04.374-.117.544a1.443 1.443 0 0 1-1.304.848zm2.842-.924l2.138-.331-.525 2.138h2.29l-.414 1.683h-2.276l-.606 2.538c-.056.211-.09.409-.104.593a.974.974 0 0 0 .07.476.631.631 0 0 0 .31.31c.147.073.349.11.606.11.221 0 .435-.02.642-.062a4.74 4.74 0 0 0 .627-.172L26 80.586a7.387 7.387 0 0 1-.897.262 5.16 5.16 0 0 1-1.144.11c-.635 0-1.127-.094-1.476-.282a1.634 1.634 0 0 1-.745-.773 2.445 2.445 0 0 1-.193-1.124c.018-.423.083-.869.193-1.338l1.352-5.71zm4.179 6.166c0-.626.101-1.214.303-1.766a4.348 4.348 0 0 1 .87-1.448c.376-.414.834-.74 1.372-.98a4.384 4.384 0 0 1 1.8-.358c.414 0 .784.039 1.11.117.327.078.623.182.89.31l-.704 1.6a6.977 6.977 0 0 0-.572-.2 2.53 2.53 0 0 0-.724-.09c-.69 0-1.232.233-1.628.697-.395.465-.593 1.097-.593 1.897 0 .469.101.848.304 1.138.202.29.574.434 1.117.434a3.748 3.748 0 0 0 1.434-.29L32.4 80.6c-.257.101-.54.19-.848.269a4.636 4.636 0 0 1-1.124.117c-.57 0-1.053-.083-1.449-.248a2.744 2.744 0 0 1-.979-.669 2.527 2.527 0 0 1-.559-.986 4.045 4.045 0 0 1-.172-1.186zm9.49 3.09c-.488 0-.91-.074-1.27-.221a2.35 2.35 0 0 1-.889-.621 2.681 2.681 0 0 1-.531-.945 3.845 3.845 0 0 1-.18-1.207c0-.552.09-1.103.27-1.655a4.724 4.724 0 0 1 .793-1.49c.35-.441.777-.802 1.282-1.082.506-.28 1.086-.421 1.738-.421.479 0 .9.073 1.262.22.364.148.663.355.897.621.235.267.412.582.531.945.12.363.18.766.18 1.207 0 .552-.088 1.103-.263 1.655a4.783 4.783 0 0 1-.772 1.49c-.34.441-.766.802-1.276 1.083-.51.28-1.101.42-1.772.42zm1.02-5.904c-.303 0-.57.087-.8.262-.23.175-.423.395-.579.662a3.266 3.266 0 0 0-.352.876 3.78 3.78 0 0 0-.117.903c0 .47.074.83.22 1.083.148.253.415.38.8.38.304 0 .57-.088.8-.263.23-.175.424-.395.58-.662.156-.267.274-.558.352-.876a3.78 3.78 0 0 0 .117-.903c0-.47-.074-.83-.22-1.083-.148-.253-.414-.38-.8-.38zm5.655 5.71h-2.04l1.723-7.255h2.055l-1.738 7.255zm.994-8.138a1.27 1.27 0 0 1-.773-.255c-.23-.17-.345-.43-.345-.78 0-.192.04-.374.118-.544a1.443 1.443 0 0 1 1.303-.848c.285 0 .543.085.772.255.23.17.345.43.345.78 0 .192-.039.374-.117.544a1.443 1.443 0 0 1-1.303.848zm2.538 1.214c.156-.046.328-.099.517-.159.188-.06.4-.115.634-.165.235-.05.497-.092.786-.124.29-.032.619-.049.987-.049 1.085 0 1.83.313 2.234.938.405.626.474 1.48.207 2.566l-.938 3.917h-2.055l.91-3.834c.055-.24.1-.472.131-.697a1.69 1.69 0 0 0-.007-.593.701.701 0 0 0-.255-.414c-.133-.106-.338-.158-.614-.158-.266 0-.537.027-.813.082l-1.338 5.614h-2.055l1.669-6.924zm16.965 6.51a6.105 6.105 0 0 1-1.255.442c-.46.11-1.02.165-1.683.165-.57 0-1.092-.094-1.565-.283a3.405 3.405 0 0 1-1.214-.806 3.61 3.61 0 0 1-.78-1.276 4.878 4.878 0 0 1-.275-1.69c0-.717.126-1.43.379-2.138a5.76 5.76 0 0 1 1.117-1.896 5.771 5.771 0 0 1 1.807-1.36c.713-.348 1.533-.523 2.462-.523a5.6 5.6 0 0 1 1.304.152 5.4 5.4 0 0 1 1.344.537l-.772 1.67a4.644 4.644 0 0 0-1.034-.414 4.149 4.149 0 0 0-.98-.11 3.09 3.09 0 0 0-1.414.317 3.316 3.316 0 0 0-1.075.862 3.844 3.844 0 0 0-.683 1.262 4.852 4.852 0 0 0-.235 1.517c0 .81.177 1.398.531 1.765.354.368.862.552 1.524.552.442 0 .849-.046 1.221-.138a5.91 5.91 0 0 0 1.042-.358l.234 1.751zm8.097-2.717a4.58 4.58 0 0 0-.11 1.58c.054.528.16 1 .316 1.413l-1.834.262a9.518 9.518 0 0 1-.152-.317 4.478 4.478 0 0 1-.138-.345 3.68 3.68 0 0 1-.855.524 2.57 2.57 0 0 1-1.048.207c-.46 0-.853-.08-1.18-.241a2.225 2.225 0 0 1-.8-.648 2.602 2.602 0 0 1-.448-.952 4.736 4.736 0 0 1-.138-1.166c0-.634.113-1.232.338-1.793.226-.56.538-1.05.938-1.469.4-.418.872-.747 1.414-.986a4.329 4.329 0 0 1 1.766-.359 9.54 9.54 0 0 1 1.145.076c.266.032.547.085.84.159.295.073.575.175.842.303l-.896 3.752zm-1.435-2.538a3.794 3.794 0 0 0-.676-.055c-.312 0-.604.078-.876.234a2.53 2.53 0 0 0-.71.614c-.202.253-.36.545-.476.876a3.131 3.131 0 0 0-.172 1.035c0 .441.073.79.22 1.048.148.257.419.386.814.386.212 0 .403-.041.573-.124.17-.083.351-.22.544-.414.019-.23.049-.471.09-.724.042-.253.085-.485.131-.697l.538-2.179zm5.104 4.207c.469 0 .79-.067.965-.2.175-.133.262-.278.262-.434a.65.65 0 0 0-.048-.263.595.595 0 0 0-.159-.206 1.648 1.648 0 0 0-.303-.2 8.754 8.754 0 0 0-.497-.242 7.099 7.099 0 0 1-.648-.324 2.255 2.255 0 0 1-.531-.414 1.841 1.841 0 0 1-.359-.551 1.89 1.89 0 0 1-.13-.738c0-.745.273-1.334.82-1.766.547-.432 1.345-.648 2.393-.648.497 0 .938.055 1.324.165.386.11.7.23.938.359l-.703 1.531a4.355 4.355 0 0 0-.745-.29A3.08 3.08 0 0 0 77 74.993c-.124.014-.24.044-.345.09a.638.638 0 0 0-.255.193.525.525 0 0 0-.097.33.46.46 0 0 0 .214.415c.143.092.343.202.6.33.359.175.658.336.897.483.239.148.43.304.572.47.143.165.246.353.31.565.065.211.097.46.097.745 0 .294-.062.584-.186.869a2.04 2.04 0 0 1-.586.758c-.267.221-.607.4-1.021.538-.414.138-.91.207-1.49.207-.358 0-.682-.023-.972-.069a5.45 5.45 0 0 1-.766-.172 4.1 4.1 0 0 1-.558-.214 7.55 7.55 0 0 1-.352-.18l.704-1.572c.156.092.4.207.73.345.332.138.732.207 1.2.207zm9.2-5.917c.395 0 .735.057 1.02.172.285.115.52.276.704.483.184.207.322.453.413.738.092.285.138.593.138.924 0 .386-.046.768-.138 1.145l-.937 3.917H84.04l.91-3.834c.038-.157.072-.322.104-.497s.048-.34.048-.496c0-.24-.062-.444-.186-.614-.124-.17-.36-.255-.71-.255-.147 0-.287.009-.42.027a5.391 5.391 0 0 0-.394.07l-1.338 5.6H80l2.483-10.373 2.138-.331-.842 3.462c.184-.037.37-.07.559-.097.188-.027.375-.041.559-.041z" fill="#000"/><path d="M55.01 17.748c-12.333-4.482-26.066 1.876-30.548 14.241-4.482 12.366 1.908 26.067 14.241 30.549 12.334 4.482 26.067-1.876 30.549-14.241C73.734 35.93 67.344 22.23 55.01 17.748z" fill="#F5A623" fill-rule="nonzero"/><path d="M57.958 43.077a6.313 6.313 0 0 1-1.299 2.46c-.583.738-1.314 1.35-2.175 1.907-.597.377-1.238.75-1.942 1.049l1.459 3.963-2.285.838-1.458-3.963-2.33.834 1.459 3.963-2.285.838-1.458-3.963-4.963 1.8-.875-2.379.682-.323c.256-.09.565-.267 1.012-.476.565-.266.715-.434.784-.45.195-.164.227-.274.227-.274.008-.09-.005-.203-.079-.39l-4.786-13.122a1.234 1.234 0 0 0-.237-.382c-.02-.024-.13-.057-.354-.076-.314-.028-.635.035-.953.052-.39.079-.691.165-.919.19l-.74.206-.875-2.378 4.825-1.766-1.417-3.915 2.284-.838 1.507 3.923 2.33-.835-1.459-3.963 2.285-.838 1.454 4.008c.488-.16.993-.251 1.452-.347.846-.129 1.66-.148 2.511-.073a5.41 5.41 0 0 1 2.298.81c.726.47 1.274 1.172 1.603 2.058.271.768.363 1.521.252 2.279-.108.712-.394 1.41-.811 2.05-.26.383-.588.783-.961 1.179.7-.006 1.351.028 1.995.152a6.06 6.06 0 0 1 2.441.98c.767.52 1.352 1.315 1.717 2.294.276.972.349 1.949.084 2.918z" fill="#FFF"/><path d="M52.46 41.965c.653 1.817-.269 3.835-2.086 4.488l-3.333 1.22-2.403-6.573 3.333-1.22c1.817-.654 3.81.288 4.488 2.085zm-4.266-8.248c.567 1.516-.233 3.183-1.75 3.75l-2.727 1.003-2.021-5.525 2.727-1.002c1.513-.522 3.225.282 3.771 1.774z" fill="#F5A623" fill-rule="nonzero"/></g></svg>