<svg xmlns="http://www.w3.org/2000/svg" viewBox="0 0 578 163.2"><path d="M112.7 99.3c0 9.3-2.9 16.5-8.8 21.6-5.8 5.1-14 7.7-24.4 7.7-4.4 0-8.5-.5-12.4-1.5-3.9-1.1-7.2-2.5-10-4.5v-21.9c3.3 2.2 7.1 4.1 11.4 5.6 4.3 1.5 8.2 2.3 11.7 2.3 2.9 0 5.2-.7 6.7-1.9 1.5-1.3 2.3-3.1 2.3-5.5 0-1.1-.2-2.2-.7-3.2-.5-1-1.2-2-2-2.9-.9-1-3.2-3.1-7-6.5-4.6-3.9-8-7.9-10.1-12-2.1-4.1-3.1-8.6-3.1-13.5 0-5.5 1.3-10.4 3.9-14.7 2.6-4.4 6.3-7.7 11-10.1 4.7-2.4 10-3.6 15.9-3.6 9.5 0 18 2.2 25.6 6.7L114.6 60c-6.8-3.7-12.5-5.5-17.3-5.5-2.5 0-4.5.6-5.9 1.8-1.4 1.2-2 2.9-2 5.1 0 2 .7 4 2 5.7 1.3 1.8 3.9 4.1 7.6 7.1 4.7 3.6 8.1 7.5 10.4 11.5 2.1 3.9 3.3 8.4 3.3 13.6zm41 28.1h-23.2l14.1-71.3h-18.8l4.1-20.2H191l-4.2 20.2h-18.9l-14.2 71.3zm26.9 0L199 35.9h23.6l-18.4 91.5h-23.6zm88.9-72.5c-4.3 0-8.2 1.6-11.6 4.9-3.4 3.3-6.1 7.7-8.1 13.5-2 5.7-2.9 11.9-2.9 18.6 0 5.6 1.1 9.8 3.3 12.5 2.2 2.7 5.4 4.1 9.6 4.1 3.3 0 6.6-.4 10-1.3 3.4-.9 7.3-2.3 11.9-4.4V123c-8.1 3.8-16.8 5.6-26.2 5.6-10.3 0-18.3-3.1-23.8-9.3-5.6-6.2-8.3-15-8.3-26.3 0-11.1 2-21.3 6-30.5 4-9.3 9.5-16.2 16.4-21 6.9-4.7 14.8-7.1 23.8-7.1 10.5 0 20 2.7 28.6 8.2l-8.8 19.1c-3.7-2.3-7.1-4-10.2-5.2-3.2-1-6.4-1.6-9.7-1.6zm93.8 8.4c0 10.5-3.4 18.8-10.2 24.7-6.8 6-16.1 9-27.9 9H320l-6 30.4h-23.2l18.4-91.5h22.2c10.3 0 18.2 2.4 23.6 7.1 5.5 4.8 8.3 11.6 8.3 20.3zm-39.1 13.8h3.8c3.6 0 6.5-1.2 8.7-3.7 2.2-2.4 3.3-5.5 3.3-9.3 0-2.5-.7-4.4-2.1-6-1.4-1.5-3.4-2.3-5.9-2.3h-3.5l-4.3 21.3zm86.7 33.2h-26.6l-7.5 17.1h-24.1l44.2-91.5h29.9l7.3 91.5h-22.6l-.6-17.1zm-18.1-19.5h17.4l-1-26.5-.1-5.4c0-3.1.1-5.9.2-8.2-.9 3.6-2.2 7.1-3.6 10.4l-12.9 29.7zm83.6-20.9l18.6-34h25.9l-36.4 56-7.2 35.5H454l7.1-35.5-14.1-56h24l5.4 34z" fill="#ea5504"/></svg>