<svg xmlns="http://www.w3.org/2000/svg" width="161" height="153" viewBox="0 0 161 153"><circle fill="#E78127" cx="46.322" cy="107.137" r="15.307"/><circle fill="#E78127" cx="122.206" cy="58.415" r="13.366"/><circle fill="#E78127" cx="58.178" cy="28.772" r="9.593"/><path fill="#293152" d="M154.946 60.4v.025c0 .003 0 .006-.002.008v.042c-.004.002-.004.005-.004.008v.04h-.003l-.012.15 5.626.493c.1-1.124.15-2.27.15-3.403 0-1.556-.095-3.123-.28-4.658l-5.606.678.037.312.007.064v.012h.002v.013c.003.018.004.034.005.05v.017c.003.003.003.007.003.01v.002c.002.017.003.032.007.048v.02l.002.01v.018l.005.03v.005c.002.003.002.006.002.01v.014l.002.007v.007c.003.002.003.005.003.006v.047c0 .002 0 .005.004.008v.02l.002.008v.024c.002 0 .002.004.002.006v.014c0 .003.004.006.004.01v.02c.003.004.003.006.003.01v.027c0 .002 0 .004.002.007v.008l.002.008v.043l.004.01v.02c0 .002 0 .004.002.006v.022l.002.007v.008l.002.006v.033l.002.01v.02c.002.003.002.006.002.01v.004c.003.005.003.008.003.013v.017l.002.004v.033c0 .003 0 .007.002.01v.02l.002.015v.02l.002.01V55l.002.01v.02c.002.01.002.02.002.03v.005c.003.003.003.007.003.01v.035l.003.03v.017c.002.004.002.008.002.01v.005c.003.004.003.01.003.012v.004l.003.03v.016c.002.004.002.01.002.012v.005l.002.014v.016c0 .01 0 .02.002.03v.02c0 .003 0 .006.002.01v.005c0 .005 0 .008.002.012v.002c0 .01 0 .02.002.03v.03c0 .003 0 .004.002.005v.015c0 .016.002.03.003.045v.018c0 .006 0 .01.003.013v.004c0 .004 0 .01.002.014v.034c.002.005.002.01.002.013v.033c0 .012.004.02.004.03v.018c.003.007.003.01.003.014v.05h.003v.016c.002.004.002.01.002.012v.02s0 .007.003.01v.035l.004.013v.032l.003.03v.015l.002.004v.032l.002.03c.002.005.002.01.002.015v.034c.002.006.002.01.002.015v.034c.002.003.002.01.002.012v.033l.003.03v.02c.003.003.003.006.003.01v.02c0 .01 0 .02.002.03v.044l.002.004v.048l.003.012v.014c-.146-3.336-.794-6.54-1.86-9.544.034.1.076.196.11.296l5.34-1.84c-.877-2.545-2.027-5.007-3.42-7.32l-4.84 2.92c.03.045.052.095.08.14-1.39-2.327-3.053-4.472-4.955-6.38.014.015.03.03.047.045l.008.01.01.01c.004.004.008.006.01.01s.008.007.01.01h.002l.037.037c.002.005.006.007.007.01h.002l.006.01h.004c.002.004.004.007.008.01l.002.002c.002 0 .004.004.006.007.003 0 .004.004.004.004l.007.007.003.004c0 .002.006.004.006.007l.002.004c.002 0 .004.004.007.007l.002.003.007.008.02.02c.003.005.005.008.01.01 0 0 0 .003.002.004l.006.007.004.004c0 .003.004.005.006.006 0 0 .002 0 .003.003l.008.006s.003 0 .004 0l.003.007.004.003c0 .004.004.006.005.007 0 .002.002.004.004.005l.003.004.006.006.002.004.008.005c0 .004.002.005.003.006 0 .002.002.004.004.006 0 0 0 .003.002.004l.013.013h.003c.002 0 .004.005.007.007.004.005.007.006.008.01h.003c0 .004.004.006.006.01h.002l.006.008c.002 0 .002.002.003.003.003 0 .006.004.008.006 0 0 0 .002.003.003.003 0 .004.004.006.006l.003.002c.002.004.004.006.006.007v.004c.005.002.006.004.008.007l.05.055h.002l.007.01c.005.002.007.005.01.007v.002c.003.002.007.005.01.01.085.087.17.177.254.268l4.124-3.858c-1.838-1.967-3.89-3.745-6.096-5.285l-3.232 4.63c.16.112.314.23.472.347-2.033-1.477-4.24-2.728-6.588-3.71l.083.03 2.193-5.203c-2.485-1.047-5.09-1.833-7.74-2.335l-1.052 5.55c.065.013.128.03.193.043-2.054-.4-4.17-.617-6.343-.617-1.025 0-2.038.053-3.04.146.08-.008.153-.02.233-.028.028 0 .055-.004.082-.007l.214-.017h.014c.005 0 .01 0 .015-.002h.04l.013-.003h.034v-.003h.042l.012-.002h.018c.012 0 .025-.002.04-.004l.107-.007h.041c.005 0 .008 0 .013-.003h.015c.002-.002.008-.002.012-.002h.04c.006-.002.01-.002.013-.002h.034c.004-.002.008-.002.01-.002h.044l.004-.003h.026c.004-.002.006-.002.01-.002h.018l.08-.005h.03c.003-.002.006-.002.01-.002h.016l.004-.002h.054c.005-.002.01-.002.012-.002h.045c.002-.002.006-.002.01-.002h.016l.01-.002h.03l.002-.002h.04c.004 0 .006 0 .01-.002h.03l.068-.004h.03c.004-.002.01-.002.01-.002h.034l.01-.002h.04c0-.002.004-.002.005-.002h.043c0-.002.005-.002.008-.002h.06c.004 0 .006 0 .01-.002h.03c.003-.002.01-.002.01-.002h.02l.053-.002h.028c.003-.002.005-.002.01-.002h.047l.01-.002h.054s.003 0 .004-.002h.096c.003 0 .005 0 .008-.002h.078l.014-.002h.072c.003-.002.006-.002.008-.002h.09c.002 0 .006 0 .007-.002h.12c0-.002.003-.002.006-.002h.194l.004-.002h.27v-5.648c-2.702 0-5.403.283-8.025.84l1.173 5.523c.034-.008.07-.012.104-.02-2.496.522-4.886 1.33-7.137 2.383.16-.075.318-.156.48-.23l-2.307-5.153c-2.457 1.1-4.807 2.464-6.983 4.056l3.332 4.56c.158-.114.323-.22.484-.334-2.183 1.538-4.17 3.335-5.917 5.346.11-.126.216-.26.327-.384l-4.208-3.77c-1.798 2.01-3.39 4.21-4.73 6.543l4.9 2.81c.064-.106.134-.212.197-.32-1.247 2.11-2.265 4.37-3.015 6.75.013-.04.022-.082.034-.123l-5.38-1.72c-.818 2.564-1.368 5.227-1.635 7.913l5.62.556.008-.065v-.02c-.11 1.104-.167 2.22-.167 3.354 0 1.447.103 2.868.284 4.266-.026-.214-.062-.427-.087-.642l-5.613.617c.294 2.684.874 5.34 1.722 7.896l5.36-1.78c-.037-.11-.068-.225-.104-.336.778 2.432 1.83 4.74 3.122 6.888-.025-.044-.055-.087-.083-.13v-.002c-.002-.004-.003-.007-.006-.01 0-.004 0-.008-.004-.01v-.002c-.014-.02-.025-.042-.036-.063v-.002c-.004-.002-.006-.006-.008-.01-.003-.003-.004-.007-.006-.01v-.002c-.004 0-.006-.004-.007-.007l-.06-.048-.006-.008c0-.003 0-.003-.003-.004l-.003-.01h-.003c0-.003 0-.004-.002-.006l-4.87 2.863c1.365 2.318 2.98 4.503 4.8 6.49l4.167-3.813c-.014-.017-.027-.033-.044-.05 1.756 1.925 3.735 3.64 5.897 5.103-.003 0-.004-.002-.006-.004l-.003-.002c0-.003-.006-.005-.01-.007-.003 0-.005-.003-.01-.006-.026-.02-.054-.035-.082-.055-.005-.005-.014-.01-.02-.014l-.02-.013c-.186-.127-.366-.254-.548-.383L99.85 89.1c2.196 1.568 4.56 2.908 7.03 3.98l2.25-5.18c-.02-.01-.037-.018-.057-.025 2.15.938 4.42 1.652 6.78 2.114l-.148-.027-1.112 5.537c2.49.5 5.052.754 7.612.754.143 0 .283 0 .42-.002l-.058-5.648-.308.003h-.362c0-.003-.002-.003-.004-.003h-.208c-.004-.002-.007-.002-.01-.002h-.12c0-.002-.003-.002-.004-.002h-.026l-.105-.002h-.104l-.006-.002h-.04l-.01-.002h-.08l-.006-.002h-.068c-.004-.002-.007-.002-.01-.002h-.042c-.005 0-.008-.003-.012-.003h-.044l-.01-.002h-.044l-.01-.002h-.05c-.007 0-.01-.003-.014-.003h.03-.012c-.124-.004-.245-.01-.367-.018.56.03 1.124.044 1.69.044 2.646 0 5.214-.322 7.678-.912-.16.037-.313.082-.472.12l1.232 5.51c2.632-.59 5.208-1.46 7.658-2.59L135.94 87.6c-.223.102-.45.197-.677.296 2.41-1.044 4.668-2.368 6.736-3.93-.036.023-.067.054-.103.077v.002l-.01.007-.028.022 3.382 4.522c2.155-1.61 4.147-3.457 5.922-5.48l-4.247-3.723c-.077.09-.16.174-.238.262 1.654-1.85 3.102-3.885 4.31-6.074-.034.063-.064.125-.098.185l4.93 2.76c1.317-2.357 2.388-4.857 3.18-7.433l-5.397-1.66h-.002c0 .006 0 .008-.002.013v.002c-.003.003-.003.008-.003.01l-.002.004-.004.01c0 .007 0 .01-.002.013 0 0 0 .002-.002.003 0 .003-.004.007-.004.01v.002c-.002.003-.002.006-.003.01.745-2.402 1.216-4.926 1.39-7.53-.01.14-.01.284-.025.423zM89.89 51.904v-.013c.002-.003.003-.01.003-.012.002-.005.003-.008.003-.013 0-.006.003-.01.003-.014v-.013l.003-.013c.007-.04.015-.08.02-.12.004-.005.005-.01.005-.013v-.013l.002-.003.002-.01v-.003l.002-.01v-.002l.003-.01v-.004l.002-.01V51.606l.004-.01v-.003l.002-.01v-.014c.004-.003.004-.004.004-.005 0-.005 0-.007.002-.01v-.004c0-.003 0-.006.002-.01 0-.006 0-.01.003-.013v-.003c0-.003 0-.008.002-.013 0-.007.002-.017.005-.025l.002-.013v-.006l.003-.007v-.007l.002-.007v-.006c.002-.002.002-.003.002-.007.003-.002.003-.003.003-.006v-.007c.002-.002.002-.004.002-.006V51.4s0-.002.004-.005v-.007c0-.002 0-.004.002-.006v-.012c0-.003 0-.004.004-.007v-.005c0-.003 0-.005.002-.007v-.005c0-.003 0-.005.003-.007v-.016l.002-.006v-.008l.002-.005v-.014l.003-.01v-.004l.01-.046h.002v-.01l.002-.002v-.012h.003v-.01l.002-.004v-.01c.002 0 .002-.003.002-.004v-.013c.004-.003.004-.006.005-.01v-.016l.004-.01v-.015s0-.002.003-.002v-.01l.003-.003v-.01l.002-.002v-.01l.003-.003c0-.004.002-.007.003-.01.028-.138.065-.272.095-.406-.117.526-.22 1.06-.312 1.597.02-.11.03-.233.054-.354zm-.35 2.487v-.013c.002-.004.002-.008.002-.01v-.014c0-.003 0-.003.003-.005v-.022c.002-.002.002-.005.002-.006v-.014s0-.005.002-.008V54.246c0-.003.004-.006.004-.007v-.013c0-.004 0-.006.003-.008v-.02l.003-.01v-.004c.002-.004.002-.007.002-.01v-.014l.002-.005v-.014c0-.004 0-.005.002-.008v-.02c0-.002.003-.005.003-.01v-.032c0-.003 0-.005.004-.008v-.02c.002-.002.002-.005.002-.01v-.01l.002-.003v-.012c.004-.03.01-.063.01-.095l.002-.014v-.013l.003-.002v-.013l.003-.012v-.016c.003-.004.003-.008.004-.01v-.016c.02-.148.046-.293.065-.44-.045.345-.092.678-.128 1.015zm.854 11.543v-.002l-.004-.01-.002-.01v-.003c0-.004-.003-.008-.005-.012 0-.005-.002-.01-.004-.013l-.004-.01v-.002c-.113-.443-.215-.89-.31-1.34 0-.005-.003-.008-.004-.013 0-.004 0-.008-.002-.012 0-.005 0-.01-.002-.013 0-.004 0-.01-.003-.013 0-.006 0-.01-.003-.014l-.002-.012v-.002l-.002-.01v-.002l-.002-.012h-.002l-.02-.1c0-.005 0-.01-.002-.013 0-.005 0-.01-.002-.012V64.3c-.002-.003-.003-.007-.003-.01v-.002c-.002-.004-.002-.007-.002-.01 0 0 0-.003-.003-.004v-.01l-.002-.002v-.01l-.002-.003-.002-.01v-.004l-.002-.01v-.004c0-.003-.003-.006-.005-.01v-.002c0-.004 0-.007-.004-.01v-.004c0-.003 0-.007-.002-.01v-.014c-.01-.033-.015-.065-.022-.1 0-.004 0-.008-.002-.01v-.017c-.003-.003-.003-.007-.004-.01v-.002c0-.003 0-.007-.002-.01v-.004c-.003-.004-.003-.007-.004-.01v-.004c0-.003 0-.005-.002-.008v-.017c-.004-.002-.004-.005-.004-.01v-.004c0-.002 0-.005-.002-.008v-.004l-.002-.008v-.003c-.003-.005-.003-.008-.004-.012 0-.005 0-.008-.002-.01v-.004l-.01-.046v-.003c0-.003 0-.007-.002-.01v-.002c0-.003 0-.006-.002-.01v-.003l-.003-.01v-.004c0-.004 0-.006-.002-.01v-.012c-.004 0-.004-.003-.004-.004V63.774c-.004-.003-.004-.005-.004-.007v-.007c-.002-.002-.002-.005-.002-.007v-.005l-.002-.007v-.015c0-.003-.003-.004-.003-.006v-.01c0-.003-.003-.003-.003-.006V63.7c0-.005-.002-.006-.002-.008l-.002-.007v-.013l-.002-.01.003.015-.002-.01v-.017c-.003 0-.003-.003-.003-.005-.002-.003-.002-.007-.003-.01v-.017l-.002-.01v-.004c-.004-.003-.004-.006-.004-.01v-.004l-.002-.008v-.004l-.002-.01-.002-.004v-.01s0-.002-.002-.003v-.013s0-.005-.004-.007v-.007l-.002-.008v-.005l-.002-.01v-.003c-.002-.003-.002-.007-.003-.01v-.003c0-.004 0-.007-.003-.01v-.004c0-.003 0-.007-.002-.01v-.003c0-.004 0-.008-.002-.012l-.002-.014-.01-.053c0-.01-.003-.017-.004-.025 0-.006 0-.008-.002-.013v-.013l-.002-.004v-.01s-.002 0-.002-.002v-.01s0-.002-.004-.003v-.017c0-.004 0-.007-.002-.01v-.002c-.002-.004-.002-.01-.003-.013V63.23h-.004c-.01-.054-.018-.106-.026-.16v-.015c-.004-.003-.004-.01-.004-.013-.007-.048-.01-.095-.02-.14.162 1.027.37 2.04.623 3.034v-.002zm.24.886l-.005-.014v-.002l-.005-.01v-.003l-.003-.01-.03-.104c0-.005-.003-.01-.004-.013v-.002l-.004-.01v-.002l-.005-.01v-.014c-.003 0-.003-.002-.003-.003 0-.003-.003-.005-.003-.01v-.002l-.002-.01v-.004c-.003-.002-.003-.006-.004-.008 0 0-.003-.003-.003-.005s0-.005-.003-.007v-.005l-.003-.008v-.006c0-.003-.003-.005-.004-.008v-.005l-.002-.006c-.002 0-.002-.003-.003-.005v-.014l-.004-.006v-.01c-.003-.002-.003-.003-.004-.006l-.002-.007v-.004l-.006-.03c-.003 0-.003-.003-.003-.004v-.01l-.003-.008-.002-.005c0-.003 0-.006-.002-.008v-.007l-.002-.008-.002-.005v-.007c-.002 0-.002-.003-.002-.005-.003-.003-.003-.005-.004-.008v-.005c0-.002 0-.005-.002-.007v-.006l-.002-.007-.003-.006v-.01l-.005-.005v-.007l-.002-.006v-.008l-.004-.004c0-.003 0-.006-.002-.01v-.012c-.003 0-.003-.002-.003-.003-.003-.003-.003-.007-.004-.01v-.002l-.007-.022c-.006-.016-.01-.03-.014-.05l-.003-.01-.003-.01v-.003c0-.004-.002-.007-.003-.01v-.002l-.003-.01v-.014s-.004 0-.004 0c0-.005 0-.008-.002-.01v-.005l-.002-.01-.002-.002c0-.002 0-.006-.002-.01V66.1l-.003-.01v-.002c-.004-.004-.005-.008-.005-.01v-.004c0-.003 0-.007-.002-.01l-.002-.002v-.012c-.01-.028-.015-.058-.02-.086.105.423.23.84.353 1.255-.037-.126-.085-.26-.124-.403zm5.256 10.587c0-.002-.003-.004-.004-.005 0 0-.003-.002-.003-.004l-.017-.023-.003-.003-.006-.007v-.002l-.007-.007s0-.002-.003-.004c0-.003-.004-.005-.005-.007 0 0 0-.003-.002-.004 0-.002-.005-.004-.005-.007-.002 0-.002 0-.004-.004l-.002-.008h-.003l-.005-.01h-.004c0-.005-.002-.007-.005-.01V77.3l-.006-.01c-.013-.016-.025-.03-.037-.048l-.006-.01-.01-.01v-.002c0-.002-.003-.005-.005-.008v-.002c-.004-.002-.006-.005-.007-.01-.003-.002-.005-.006-.007-.01l-.06-.078-.014-.02v-.002l-.007-.01-.008-.01c-.123-.17-.237-.345-.358-.517.2.287.398.574.607.854.003.002.003.002 0 .002zm.388.51l-.007-.01-.064-.086c-.004-.002-.006-.007-.01-.01 0-.003-.003-.007-.007-.01l-.008-.01v-.003l-.01-.008v-.003l-.008-.01v-.002c-.003-.002-.006-.006-.008-.01-.01-.015-.022-.027-.033-.043l-.006-.01h-.003c0-.003-.004-.007-.005-.01l-.01-.01s0-.002 0-.003c-.004-.003-.005-.006-.007-.01l-.002-.003-.007-.007c0-.003 0-.003-.002-.005l-.005-.007v-.003c-.004-.002-.007-.006-.007-.008-.002 0-.002-.002-.002-.002-.003-.004-.005-.006-.006-.01-.003 0-.003 0-.003-.002l-.005-.007-.007-.007c0-.004-.004-.006-.005-.008l-.002-.004-.007-.008-.003-.003c0-.005-.002-.007-.004-.01l-.002-.003-.005-.006-.003-.003c0-.003-.003-.004-.004-.007 0-.002-.003-.003-.003-.004-.002 0-.004-.005-.005-.007 0-.002-.002-.003-.004-.005l-.003-.006-.005-.006c0-.002-.003-.003-.003-.005l-.004-.007s0-.003-.003-.006l-.003-.004-.004-.006-.004-.004-.005-.008-.004-.007-.006-.007-.004-.004s0-.003-.003-.005l-.004-.004-.006-.005-.003-.005-.002-.006-.005-.005-.005-.006-.004-.007-.003-.005-.004-.007c0-.002-.002-.003-.003-.005-.002 0-.002-.003-.006-.005 0-.003 0-.004-.002-.006.244.326.498.643.75.96-.116-.144-.242-.295-.364-.45zm34.177-51.954c.004 0 .007 0 .01.003h.003l.01.003h.003c.005 0 .01 0 .01.002l.006.002.008.002h.004c.002.002.005.002.008.003h.016c0 .003 0 .003.004.003l.008.003h.003l.01.003h.002l.01.003h.003l.01.002s.003 0 .003.002c.003 0 .007 0 .01.002h.003l.01.003.01.002s.003 0 .005.002c.004 0 .006 0 .008.002h.007c.004 0 .005 0 .008.003h.006c.004.002.005.003.008.003h.005l.006.003h.005l.008.003h.006c0 .002.004.003.007.004h.004c.003.002.006.002.01.003h.003l.008.003h.005c0 .002.006.002.01.003h.003c.004.002.005.003.01.003h.004l.01.002h.002l.01.004h.003l.01.003h.003c.003 0 .006 0 .012.004.02.004.033.01.053.014h.003c.004 0 .008 0 .01.003h.004l.01.004h.003c.002.002.007.003.01.004h.003l.01.003h.004c.003.004.006.005.01.005h.002l.01.004h.002l.012.004c.004 0 .01.002.014.004.12.032.234.074.354.108-.29-.083-.576-.17-.867-.246-.008-.002-.004 0 .002 0zm-23.884 2.913l.007-.003.007-.004c0-.003.004-.003.005-.004 0-.002.003-.002.006-.003 0-.002.003-.003.003-.003.002-.003.005-.004.01-.005l.002-.003c.004 0 .006-.003.008-.004l.006-.003c.003 0 .007-.003.01-.005h.003c.002-.003.004-.005.01-.006 0-.002 0-.002.002-.003.003 0 .005 0 .007-.002l.005-.003c.003 0 .004-.002.006-.003 0 0 .004 0 .006-.003.003 0 .004 0 .006-.003l.006-.004.007-.002.005-.002.007-.003.005-.003.005-.004c.004 0 .005-.002.007-.003l.005-.003.005-.003.006-.005.007-.003.006-.003.006-.004.002-.003c.006 0 .01-.003.015-.006l.004-.002.008-.004h.004c.003 0 .006-.003.01-.005l.004-.003c0-.002.003-.003.006-.005 0 0 .003 0 .004-.002.003 0 .005-.002.006-.004l.006-.002.007-.003c0-.002.003-.002.005-.003l.007-.003.003-.003.01-.004v-.002c.005 0 .008 0 .01-.002h.003l.01-.007h.003l.028-.016h.003l.008-.004.005-.002c.003 0 .006-.002.01-.004v-.002l.008-.004.005-.002.007-.004.005-.002.008-.004.003-.002c.005 0 .007-.003.01-.004l.002-.002c.004 0 .006-.003.008-.004l.004-.003.008-.003h.004l.01-.007c.017-.01.036-.02.054-.027.003-.003.006-.005.01-.006v-.002c.005 0 .007-.002.01-.004h.004l.006-.005c.003 0 .003 0 .005-.002l.01-.004.002-.003c.004 0 .007-.003.01-.004v-.002c.005 0 .008-.002.01-.003h.003c.002-.003.005-.005.01-.006l.065-.033.01-.006.01-.004h.003c.003-.003.007-.005.01-.006.005-.003.008-.006.012-.007l.01-.005h.002l.01-.007h.002l.074-.037c.003-.003.006-.004.01-.005h.002l.01-.007h.002l.01-.005.01-.006.112-.056.01-.005.012-.007v-.002c.082-.04.166-.075.247-.115-.41.2-.814.404-1.213.62.002 0 .003 0 .004-.002s-.007.005-.005.005zm-2.393 1.433l.136-.09.01-.006c.005-.002.008-.005.01-.007l.083-.053.01-.007h.002l.01-.007.002-.002c0-.002.006-.005.008-.006l.01-.007h.002c.002-.003.006-.005.01-.007l.01-.006v-.002c.02-.01.034-.02.05-.032.007-.002.008-.004.012-.006l.01-.007h.003c.002-.003.005-.005.01-.007l.01-.007.01-.005.01-.006.003-.003c.003-.003.007-.004.01-.005l.052-.032.008-.007h.003c.004 0 .007-.003.01-.004l.003-.004c.003 0 .006-.003.01-.005l.01-.006c.004-.003.006-.005.01-.006 0 0 .002 0 .002-.002.003 0 .006-.003.008-.005h.004c.002 0 .006-.004.008-.006h.003c.003-.003.005-.005.008-.006l.002-.002.008-.005.04-.024c.002 0 .002 0 .003-.002l.007-.005c.002 0 .003 0 .004-.003l.01-.004c0-.002 0-.003.003-.004l.004-.005c.004 0 .004-.002.006-.003l.006-.005.005-.003.006-.004.007-.003.006-.004h.003c.003-.003.006-.004.01-.006v-.002l.05-.03.01-.006.004-.003c0-.002.002-.003.005-.005l.004-.003s.002-.005.004-.006l.004-.002.007-.005.004-.002.01-.004v-.003c.004 0 .006-.003.008-.004.002 0 .003-.002.003-.002 0-.002.007-.003.008-.004l.004-.002c.002-.002.004-.004.008-.005h.002l.01-.008h.002l.025-.017.003-.002c.004 0 .005 0 .008-.004l.005-.003c.003 0 .005-.003.007-.004l.005-.003.005-.004.006-.003s.002-.003.005-.004l.005-.003c.002 0 .004-.003.005-.005l.007-.004.006-.003c0-.002 0-.002.005-.003l.007-.005.002-.002.01-.005.002-.002.006-.004c.004 0 .006-.002.007-.004l.01-.006c.002 0 .004-.002.005-.004.003 0 .005-.003.008-.003l.004-.004c.003 0 .004 0 .005-.002.003 0 .005-.002.006-.003l.005-.002.008-.004.005-.002c0-.002.005-.003.005-.004.004 0 .005 0 .007-.002l.005-.004c.003 0 .004-.002.006-.003l.006-.003.004-.003.005-.005.005-.004.006-.002c.003 0 .004-.002.006-.004.002 0 .004-.002.005-.004.004 0 .005 0 .007-.003l.008-.004c0-.002.002-.002.005-.003 0-.002.003-.004.007-.005l.008-.005s.005-.002.007-.005l.005-.003.007-.004.005-.004.003-.003.006-.003c.002 0 .003-.002.005-.004l.007-.003.005-.004c0-.002.004-.003.006-.004l.006-.003c0-.004.003-.005.005-.005 0-.002.002-.003.004-.004l.005-.003.006-.003c.004 0 .005-.002.007-.003l.006-.002c.002-.003.004-.004.006-.005l.004-.004.006-.003s.002 0 .004-.003l.007-.004c.005 0 .01-.003.013-.005.002 0 .003-.002.005-.004h.007s.005-.003.005-.005c.002 0 .003 0 .006-.003l.007-.002.004-.004.006-.003s.003 0 .005-.002c.002 0 .005 0 .006-.003l.007-.003c.003 0 .003-.002.006-.003l.004-.002c.003 0 .005-.002.008-.003l.004-.003.007-.003c.003-.003.003-.004.006-.004l.005-.003.007-.003.004-.004c.004 0 .005 0 .007-.002l.006-.004.006-.003c.003 0 .006-.004.01-.005 0-.002.005-.004.007-.004l.003-.002s.007-.003.008-.005c.002 0 .004 0 .005-.002.003 0 .006-.002.007-.003.003 0 .004-.002.006-.003l.005-.004c.005 0 .007-.002.008-.002.002-.002.005-.003.005-.005.003 0 .004 0 .007-.002 0 0 .002 0 .003-.003.003 0 .004-.002.007-.004.003 0 .004 0 .005-.002.003 0 .006-.002.006-.003.006 0 .007-.002.008-.003l.006-.004.006-.003s.002-.003.005-.004l.004-.002.004-.003.005-.002.01-.008c.004 0 .005-.003.008-.003v-.002l.01-.005c.002 0 .004-.002.005-.004h.005c.004 0 .006-.003.008-.005.002 0 .004-.002.004-.003l.007-.003c0-.003 0-.003.004-.004l.008-.004c.002 0 .003 0 .004-.002.003 0 .005-.002.007-.003l.006-.003.006-.004c.003 0 .005-.002.005-.003l.006-.003c.002-.002.002-.002.007-.003l.006-.002.004-.004c.004 0 .006-.002.007-.003.003 0 .005 0 .006-.002l.006-.003.005-.005.01-.006.004-.003h.005c.003 0 .005-.004.008-.005l.005-.003s.003 0 .005-.002c0-.002 0-.003.005-.003l.006-.004.005-.002.007-.002.004-.004c.004 0 .007 0 .01-.002l.003-.003.006-.005s.003 0 .005-.002l.006-.003.007-.004.006-.002.006-.003.005-.003c.002 0 .002-.002.003-.002l.022-.013s.003 0 .003-.002c.005 0 .007-.003.01-.005l.003-.002c.004 0 .005-.002.007-.004l.004-.004.007-.005h.005l.006-.005c0-.003.002-.003.003-.005.002 0 .004-.002.005-.003.003 0 .003-.002.004-.002.002 0 .005-.003.006-.005.004 0 .004 0 .007-.002l.007-.005s.004 0 .005-.002l.006-.003.005-.002c.002-.002.007-.003.008-.005l.002-.002c.004 0 .01-.003.01-.005h.003c.005-.004.008-.007.012-.008l.005-.003c.002 0 .006-.003.006-.004l.005-.002c.003 0 .006-.002.007-.003.003 0 .004-.002.005-.003.003 0 .004-.003.008-.004 0 0 .003 0 .005-.002l.007-.004.005-.003.005-.003.005-.003c.003 0 .005-.002.006-.003.003 0 .005-.002.005-.002.005 0 .006-.002.008-.004l.007-.002.006-.002c0-.002.003-.002.005-.003l.006-.004h.003c.003-.004.01-.006.01-.008h.002l.022-.014c0-.002.002-.003.004-.003l.008-.005.004-.002c.003 0 .004-.003.008-.004.002 0 .003 0 .004-.002l.006-.005c.004 0 .004-.002.006-.003l.006-.004.006-.003.006-.004.006-.002.007-.003s0-.002.002-.003c.005 0 .005 0 .007-.004 0 0 .003 0 .004-.002.002 0 .004 0 .007-.003.004 0 .005-.002.006-.003l.007-.004.004-.002c.004 0 .01-.004.01-.005h.004c.003 0 .007-.004.01-.006h.002l.01-.006.005-.003c.003 0 .006-.004.008-.005.003 0 .004-.002.006-.003l.006-.004.005-.003c.003 0 .006-.003.007-.003 0-.002.004-.002.005-.003l.007-.004c.002 0 .003-.002.004-.003l.007-.003.006-.003.008-.003.004-.003c.003 0 .004-.002.007-.003l.005-.002.006-.003.007-.002.005-.003.006-.004h.003l.015-.01c.002 0 .004 0 .005-.003.004 0 .005 0 .006-.002.004 0 .006-.003.008-.003 0-.002.003-.002.005-.004 0 0 .002 0 .005-.004l.005-.003c.002 0 .003-.002.007-.005h.003l.01-.006s0-.002.002-.002h.004c-.873.473-1.72.988-2.54 1.536.01-.01.06-.05.116-.086zm-.338 54.677l.006.006-.007-.006zm1.27.82l-.092-.058-.022-.015c-.005-.002-.007-.004-.012-.008l-.01-.006h-.002l-.055-.036c-.005-.002-.01-.004-.01-.006-.004 0-.004 0-.004-.002l-.008-.004h-.002l-.01-.007s-.002 0-.002-.002c-.003 0-.006-.002-.01-.005l-.01-.007-.01-.006c-.007 0-.01-.004-.014-.007h-.002c-.015-.01-.028-.02-.043-.027v-.002l-.01-.006h-.003l-.007-.007h-.005c0-.002-.005-.005-.008-.006l-.003-.003-.008-.005-.005-.003-.005-.005c0-.002 0-.002-.002-.002l-.01-.006-.002-.002-.01-.006-.01-.007-.003-.002c-.01-.007-.02-.013-.034-.02l-.008-.006c-.003-.002-.003-.003-.004-.005l-.007-.005h-.003c-.003-.003-.006-.004-.01-.006 0 0 0-.003-.004-.004-.002 0-.003 0-.006-.003 0-.002-.003-.002-.003-.003l-.006-.005-.004-.003-.007-.004-.007-.003c-.002 0-.003-.003-.006-.005 0 0-.002-.002-.005-.002l-.005-.005c-.002 0-.003 0-.006-.003l-.004-.004-.006-.002-.02-.014h-.002c-.003-.003-.01-.005-.01-.007l-.002-.002-.01-.005-.003-.003-.007-.005s-.004 0-.005-.002l-.006-.005-.004-.003c-.002 0-.006-.002-.007-.004 0 0-.002 0-.003-.003-.004 0-.006-.002-.008-.004-.002 0-.003 0-.005-.002l-.006-.004s-.002-.003-.004-.003c-.003 0-.003 0-.006-.003s-.003-.002-.006-.003l-.006-.004c-.002 0-.003-.003-.004-.003l-.006-.005c-.002 0-.004 0-.006-.003s-.006-.005-.008-.006c-.004 0-.004-.004-.007-.006 0-.002-.003-.003-.005-.005l-.006-.005c-.004 0-.005 0-.006-.003l-.006-.002c-.002-.002-.004-.004-.006-.004l-.006-.003-.006-.004c-.002 0-.002-.003-.004-.005-.002 0-.002-.003-.006-.004l-.006-.003-.005-.003-.007-.004-.005-.004-.006-.005h-.005c-.003-.003-.005-.003-.005-.005-.002 0-.005 0-.006-.003l-.005-.004s-.004 0-.004-.002l-.007-.004h-.002l-.026-.02c-.005-.003-.008-.003-.01-.007 0 0-.003 0-.003-.003l-.01-.004s0-.002 0-.002l-.01-.004v-.002l-.01-.006-.01-.007h-.004l-.007-.005-.003-.002c-.003-.002-.007-.004-.008-.006 0 0-.003 0-.004-.002l-.008-.004s-.004 0-.004-.002c-.002 0-.004-.003-.008-.005l-.005-.002-.005-.004c-.006-.005-.01-.01-.02-.013l-.008-.005-.002-.002-.01-.006-.002-.002-.007-.006-.01-.008-.002-.002c-.003 0-.006-.003-.01-.004 0-.003 0-.003-.002-.004-.002 0-.005-.003-.008-.005h-.003c0-.003-.005-.004-.006-.005l-.002-.004c-.004 0-.006 0-.01-.004l-.01-.007-.05-.034-.002-.002c-.004 0-.006 0-.01-.004v-.002l-.01-.006-.002-.002c-.003 0-.005-.003-.008-.005h-.002l-.01-.006-.002-.002-.007-.005h-.003l-.008-.007h-.003l-.01-.007h-.002l-.06-.04c-.003-.003-.005-.006-.01-.008l.02.012-.008-.006c.426.288.857.565 1.297.833-.012-.008-.025-.013-.037-.02zm3.178 1.708h-.002c0-.002-.005-.004-.008-.006h-.003l-.01-.005v-.002c-.005-.002-.01-.002-.012-.005l-.01-.005-.056-.025h-.002l-.01-.006h-.002c-.004 0-.006-.002-.008-.005h-.004l-.006-.004h-.005c-.003-.003-.006-.004-.01-.005-.002 0-.002 0-.003-.002l-.007-.004c-.004 0-.006 0-.007-.003-.002 0-.005-.003-.006-.005-.002 0-.005 0-.006-.002l-.004-.002c-.002 0-.004 0-.007-.002l-.007-.002c0-.002-.006-.002-.007-.004-.002 0-.003-.002-.004-.003 0-.003-.003-.003-.006-.005-.003 0-.004 0-.005-.002-.004 0-.01-.003-.012-.005h-.002l-.01-.006c-.002 0-.003 0-.006-.003l-.008-.005s-.002 0-.003-.002c-.005 0-.007 0-.01-.002h-.004c-.004 0-.006-.004-.008-.005-.004 0-.005 0-.006-.002l-.007-.003-.006-.003-.007-.004-.004-.002-.01-.003h-.003l-.003-.003h-.007c0-.003 0-.003-.002-.003l-.01-.003v-.002l-.05-.022h-.002l-.01-.006h-.003l-.01-.006h-.002l-.01-.004h-.002c-.003-.002-.005-.004-.01-.005l-.003-.002-.01-.004h-.002l-.007-.006-.075-.035c-.008-.006-.015-.01-.022-.013l-.013-.006h-.002l-.01-.005v-.003c-.24-.116-.473-.245-.71-.368.324.17.646.34.974.497.312.15.625.293.94.433-.2-.09-.408-.182-.616-.28zm12.222 3.045h-.03c-.004-.003-.01-.003-.014-.003-.49-.025-.975-.065-1.456-.112.497.05 1 .09 1.503.114h-.004zm12.947-1.933h-.002l-.01.004h-.002l-.01.006h-.004l-.01.004h-.003c-.003 0-.006.003-.01.003 0 .002 0 .002-.003.002-.003.002-.006.002-.01.003h-.002l-.008.005-.004.002s-.005 0-.008.002h-.003l-.01.005h-.005c-.002.002-.007.003-.01.004v.002c-.004 0-.007 0-.01.002h-.005c0 .003-.005.005-.008.005h-.002c-.01.004-.018.008-.028.01 0 .002-.003.003-.004.004h-.01s-.002 0-.003 0c-.004.003-.006.004-.01.004l-.002.002-.008.002h-.005l-.008.004h-.005c-.002.003-.006.004-.008.004l-.007.003c-.002 0-.005 0-.005.002l-.008.002-.007.002-.005.002h-.01c0 .003-.003.003-.004.004-.002 0-.004 0-.006.003-.003 0-.004 0-.006.002h-.007s-.004 0-.006.002-.004.002-.007.002l-.006.002-.007.002s-.004 0-.007.002l-.002.002-.024.01h-.003c-.005 0-.007.003-.01.003 0 0-.002 0-.003.002-.003 0-.007 0-.01.003h-.004l-.01.003-.004.003c-.002 0-.005 0-.008.003 0 0-.003 0-.004.003h-.008l-.005.003-.008.002h-.007c0 .002-.007.003-.008.004h-.003l-.008.004H133c-.004 0-.005.002-.01.003 0 0-.002 0-.003.002h-.01l-.003.003c-.004 0-.005 0-.01.003h-.002c-.004 0-.01.003-.01.004h-.003l-.04.014-.01.005h-.005c-.005 0-.008.003-.012.003s-.007.003-.01.003l-.004.002c-.004 0-.01.002-.01.004h-.003c-.005 0-.008.002-.01.003-.002 0-.004 0-.004.002-.004 0-.006 0-.01.002h-.002c-.003 0-.007 0-.01.003h-.002c-.005 0-.01.003-.013.005l-.012.003-.104.037c-.005 0-.01.002-.014.004l-.012.005-.014.005-.012.003c-.108.036-.22.065-.328.102.395-.128.788-.257 1.178-.398-.002-.002-.017.004-.03.01zm.15-.057c-.002.002-.007.002-.01.004l-.012.004-.013.006c-.004 0-.007.002-.012.004l-.012.004-.013.005c-.003 0-.007.003-.01.005h-.002l-.018.006c.47-.174.936-.357 1.396-.55-.422.178-.853.35-1.29.512zm10.708-6.52l-.08.072-.01.01c-.003.003-.008.006-.01.01h-.002c-.003.003-.004.005-.008.007h-.002c0 .002-.005.004-.007.01h-.003l-.008.007-.012.01-.04.036-.01.008v.003l-.008.007c0 .002-.002.003-.003.004-.004.002-.006.005-.01.006v.002c-.002.004-.007.005-.01.007h-.002l-.008.008-.008.008v.002c-.006.002-.01.006-.012.008l-.02.018v.002c-.004.002-.007.005-.008.008l-.005.002c-.005.002-.007.004-.008.006l-.004.004-.008.004c0 .002-.002.004-.003.004l-.01.006v.002l-.006.007-.004.003-.008.006s-.002 0-.003.003c-.004 0-.007.003-.01.005v.002l-.01.006-.002.002c0 .002-.005.004-.005.005 0 .002-.003.003-.004.005-.005.002-.007.006-.01.008l-.006.003-.006.006-.003.003s-.007.003-.008.005l-.004.004-.006.003c0 .002-.002.003-.004.005l-.004.003c-.002 0-.004.004-.007.006l-.003.003-.006.005-.005.004-.007.004c0 .002 0 .002-.003.004-.003 0-.004.002-.006.004l-.003.002c0 .004-.005.004-.006.006l-.003.004c-.002.002-.003.004-.005.004 0 .002-.004.003-.005.005l-.02.02h-.005l-.006.007c-.002 0-.004.002-.004.003l-.007.006-.005.003-.006.006h-.005l-.005.007c0 .002 0 .002-.005.003 0 .004-.003.004-.006.006l-.003.004-.007.005-.004.003-.006.006-.004.002-.006.007c-.013.01-.025.02-.037.032l-.007.006-.004.004c-.002.003-.004.005-.007.006l-.003.002-.006.006c-.003 0-.003 0-.004.003l-.008.008v.002c-.002 0-.005.003-.007.005l-.004.002-.007.007h-.002l-.064.056c0 .004-.006.006-.008.01l-.01.006h-.002l-.007.01c-.006.002-.008.006-.01.008h-.002l-.072.063-.01.01c-.004.002-.006.004-.008.008-.005.002-.01.005-.012.008l-.01.008c-.048.044-.1.08-.15.123.378-.317.75-.64 1.114-.975-.02.015-.046.045-.077.073zm-22.01-1.593c-12.535 0-22.697-10.162-22.697-22.696s10.162-22.694 22.696-22.694C134.84 35.066 145 45.226 145 57.76c0 12.535-10.16 22.697-22.696 22.697zm23.763-.13v.003c-.004.003-.006.006-.007.008v.002c-.003.002-.005.004-.006.007l-.003.003-.007.006v.003c-.004 0-.006.002-.008.005 0 0 0 .002-.003.002l-.004.008-.003.002c-.002.002-.003.004-.007.006l-.002.004-.006.006s0 .002-.002.002c-.004.003-.005.006-.008.007l-.008.01-.005.003s-.003.006-.005.006c0 0 0 .004-.002.005l-.007.006s0 .004-.002.005l-.005.006-.004.005-.003.005-.004.005c-.004 0-.006.004-.007.007 0 0-.003 0-.003.003-.002.002-.004.003-.004.005l-.006.004c0 .002-.002.004-.005.007 0 .003 0 .003-.004.005l-.007.007c0 .002-.003.002-.004.004l-.008.008-.02.02v.002l-.008.008c-.002 0-.002.002-.003.002-.002.003-.003.006-.008.008v.002l-.01.007v.004l-.01.008-.01.01v.002c-.003.002-.005.006-.01.007v.002c-.004.003-.005.006-.007.008l-.003.003-.055.058h-.002c0 .003-.006.007-.01.01l-.008.01-.01.01c-.043.046-.093.088-.137.133.25-.25.492-.51.733-.77-.08.092-.17.19-.26.285zm6.364-35.442l.005.012.005.01v.002c.003.002.004.005.006.01l.004.01.006.013.005.012c.01.022.02.045.028.067v.002l.008.01c0 .004.003.008.004.01l.002.004.003.008v.003c.004.003.004.005.005.01l.003.002c0 .003 0 .006.002.01v.002l.005.01.003.003c0 .002 0 .004.003.007 0 .002 0 .004.002.004 0 .002 0 .005.002.008v.004c.01.013.013.025.02.04v.003c.003.003.003.005.004.007v.006l.005.007v.004c0 .002.004.005.006.007 0 .002 0 .003.002.005l.002.006s0 .003.002.005c0 .003 0 .005.002.007 0 .004 0 .005.003.007l.003.007c0 .003 0 .004.002.006 0 .002 0 .004.003.006 0 .002 0 .004.002.006s.002.004.002.006v.007c.003.003.003.005.003.007l.002.008s0 .003.003.005c0 0 0 .006.003.008l.003.004.01.025v.002c.003.002.004.004.005.01l.005.01v.004l.007.01c0 .005.003.01.003.012l.002.002c0 .004.002.006.003.01v.003c.004.004.005.007.006.01v.003l.005.01s0 .002 0 .003l.004.01.003.003.003.01h.003c.01.025.018.05.03.076 0 .004 0 .008.005.012 0 .004.004.01.005.014.06.15.11.306.17.458-.16-.42-.328-.84-.507-1.25.018.04.044.09.066.14zm1.124 22.707c0 .003-.003.007-.004.01v.003c0 .004-.002.006-.003.01 0 0-.004.002-.004.004-.002 0-.002.003-.003.006v.005c-.003 0-.004.006-.004.008s0 .003-.003.005c0 .002 0 .005-.002.007v.006c0 .002 0 .005-.003.007l-.002.006v.007c-.003.002-.003.004-.003.006l-.002.007c0 .003 0 .005-.002.006 0 .003-.002.005-.003.008v.005c-.003 0-.004.005-.004.007-.002 0-.002.003-.002.004 0 .003 0 .006-.002.007 0 .006-.003.012-.005.017v.002l-.004.01s0 .002-.002.003V67.78l-.005.004v.01c-.003 0-.003.002-.003.003 0 .002 0 .006-.003.008v.005l-.004.01v.003c-.003.003-.003.006-.004.01v.002c-.003.003-.005.006-.005.01l-.008.023v.002c-.007.015-.01.03-.015.046h-.004l-.002.012-.002.01v.003l-.005.013v.002c0 .004-.002.007-.004.01v.003c0 .004-.002.007-.003.01v.002c-.003.002-.004.006-.004.01v.002l-.007.01v.002c0 .004-.002.007-.003.01-.012.033-.02.064-.032.097 0 .005-.002.01-.005.014l-.003.013c-.004.008-.006.015-.008.023-.055.16-.115.317-.17.477.122-.354.246-.71.36-1.07l-.01.03c.004-.007.004-.006.004-.005zm.018-.056h-.002l.004-.008-.002.008zm.007-.024l-.003.012c.002-.005.002-.01.005-.014v.002zm1.44-11.183c0 .01.004.02.004.03v.047l.002.003v.06l.002.005v.062c0 .002 0 .002.002.003v.045c0 .01 0 .022.003.03v.05l.002.03v.06c.002.007.002.013.002.017v.067l.003.014v.067c0 .01 0 .02.003.03v.105c.002.004.002.008.002.01v.052c.002.004.002.007.002.012v.125c0 .002 0 .004.002.005v.368l.002.012v.297l-.002.01v.347c0 .01 0 .02-.002.03v.12c-.003.02-.003.045-.003.067l-.002.01v.014c-.002.142-.016.28-.02.42.013-.384.03-.768.03-1.153 0-.48-.01-.96-.032-1.435v-.04zm-69.16 53.225v.03c0 .004 0 .007-.003.01v.05c-.004.004-.004.006-.004.01v.023s0 .005-.003.008v.018c-.005.063-.01.12-.017.18l6.777.596c.12-1.355.18-2.734.18-4.1 0-1.874-.113-3.763-.336-5.61l-6.754.815.043.375c.005.026.006.053.01.078v.015l.002.004v.014l.007.063v.02c.003.005.003.01.003.013v.002c.002.02.004.04.008.06v.016l.002.01v.008c.003.003.003.007.003.01v.006c0 .013.002.024.003.036v.008c.003.003.003.007.003.01 0 .002 0 .005.003.007v.01l.002.01v.018s0 .005.002.008v.026c0 .002.003.004.003.008v.016c0 .004 0 .008.002.01v.008l.002.008v.026c.004.007.004.012.004.02.003 0 .003.004.003.006v.02s.003.004.003.008v.026c.003.002.003.006.003.008v.034s0 .006.002.01v.007l.003.01v.027c.004.002.004.004.004.008v.07c0 .003 0 .006.005.01v.026l.003.006v.022l.002.013v.005l.002.012v.024l.002.01v.027c.003.006.003.012.003.018l.002.004v.03c.002.002.002.005.002.007v.02c0 .003 0 .007.002.012v.003l.002.016v.022l.002.014v.024l.002.01v.007c.003.01.003.02.003.033v.004c.003.006.003.01.003.014v.042c.003.012.005.023.005.035v.025c.003.006.003.01.003.016v.004c.002.004.002.01.002.013v.005c.003.012.004.023.004.035v.043c.003.005.003.01.003.015v.003c.003.004.003.01.003.014v.004c0 .014 0 .025.002.037v.02c0 .006 0 .008.003.014v.006c0 .006 0 .01.003.015v.003c0 .014 0 .024.002.036v.018c.002 0 .002.003.002.004v.038l.006.054v.022c0 .006 0 .01.003.016v.06c.003.005.003.01.003.017v.04c0 .013.003.02.003.034v.022c.004.006.004.01.004.016v.02l.002.037h.002v.04l.002.014v.02l.002.037v.004l.003.017v.043l.002.037v.04c0 .003.004.01.004.015v.04c.002.005.002.01.002.017v.04c.004.006.004.01.004.016v.002c.002.01.002.023.002.035v.023c0 .005 0 .01.002.015v.022l.003.038V104.49l.003.002v.06c.003.005.003.01.003.015v.04c0 .006 0 .014.003.02v.052c-.177-4.017-.956-7.875-2.24-11.494.04.12.093.236.134.356l6.432-2.215c-1.057-3.066-2.442-6.032-4.122-8.816l-5.825 3.514c.034.055.062.115.094.17-1.673-2.805-3.678-5.387-5.968-7.687.016.02.037.036.056.056.004.004.01.008.01.012.006.004.008.008.014.01v.003l.012.01.01.013h.003l.044.046c.002 0 .002 0 .002.002.003.004.008.006.01.01 0 0 .003 0 .003.002l.007.008c.002 0 .002.003.003.003.004.004.006.01.01.01l.003.004.007.008.004.004.01.01.003.003s.006.003.006.007c0 0 0 .002.002.003.005.003.007.007.01.01h.003l.01.01.002.002.022.023c.004.003.006.008.012.01 0 .002 0 .003.003.005 0 .002.003.006.006.008l.005.003.007.01c.002 0 .004 0 .005.002l.007.008s.003.004.005.004c0 .003.002.006.005.008 0 .002.002.004.003.004l.007.007c.002.004.005.005.006.008l.005.005.007.006s.005.005.005.007l.008.006c0 .002.002.002.003.004 0 .002.005.004.007.008l.002.002c.004.006.01.012.016.017v.003l.01.01.01.01.003.002c0 .003.003.006.006.01l.01.01c.002 0 .002.002.005.002.004.002.005.006.01.008v.003c.006.002.007.004.01.006l.003.003c.002.004.004.006.008.008l.003.005.01.008c.02.02.038.043.06.063v.002l.01.01h.002c0 .003.004.007.008.01h.002l.01.013.307.324 4.966-4.646c-2.216-2.368-4.687-4.51-7.345-6.365L69.06 73.98c.192.135.38.28.57.417-2.45-1.776-5.108-3.283-7.937-4.466.032.014.067.024.1.04l2.644-6.27c-2.993-1.26-6.13-2.208-9.32-2.813L53.85 67.57c.076.016.15.036.23.053-2.475-.483-5.024-.744-7.64-.744-1.235 0-2.455.062-3.663.174.095-.008.187-.023.282-.03l.097-.01.26-.02.018-.002h.016l.017-.002.015-.002h.02l.015-.002h.017c.006-.002.008-.002.013-.002h.002l.015-.002h.02c.005 0 .01 0 .013-.002h.026c.004-.002.008-.002.015-.003l.046-.003h.002l.128-.01h.018c.006 0 .01 0 .017-.002h.032c.007 0 .013-.003.018-.003h.034l.013-.004h.033l.004-.002h.02l.01-.002h.022l.012-.002h.032l.003-.002h.02l.01-.002h.02c.008 0 .01 0 .016-.003l.1-.005h.015l.016-.003h.04l.01-.002h.023l.01-.002H44.44l.01-.003h.04c.005-.002.008-.002.012-.002h.034l.004-.002h.017c.006 0 .01 0 .014-.002h.068c.026 0 .056-.005.083-.005h.038c.005-.003.01-.003.012-.003h.02c.006-.002.008-.002.014-.002h.02l.01-.002h.038c0-.002.002-.002.004-.002h.05c0-.002.005-.002.01-.002h.07l.01-.002h.018l.006-.002h.05c.02-.002.042-.002.065-.003h.036c.006-.002.007-.002.015-.002h.055l.013-.002h.106s.003 0 .005-.002h.055s.002 0 .006 0h.084l.012-.003h.038l.032-.002h.088l.01-.002h.07l.008-.002h.382l.008-.003h.332v-6.805c-3.254 0-6.508.34-9.666 1.01l1.412 6.654c.044-.008.085-.013.127-.022-3.008.63-5.887 1.602-8.597 2.87.192-.09.382-.188.58-.275l-2.78-6.21c-2.96 1.325-5.79 2.97-8.412 4.887l4.016 5.49c.19-.14.387-.267.583-.404-2.633 1.855-5.025 4.018-7.13 6.44.133-.153.26-.313.395-.464l-5.068-4.54c-2.164 2.42-4.082 5.07-5.694 7.88l5.9 3.386c.076-.13.16-.257.236-.388-1.5 2.544-2.726 5.265-3.63 8.132.017-.05.027-.102.043-.15L2.27 92.24C1.284 95.328.622 98.535.3 101.77l6.77.67.01-.078v-.025c-.134 1.327-.2 2.674-.2 4.037 0 1.743.122 3.455.34 5.138-.032-.257-.075-.513-.103-.772l-6.763.742c.355 3.232 1.054 6.433 2.074 9.51l6.455-2.143c-.043-.14-.08-.275-.124-.41.936 2.93 2.203 5.71 3.76 8.297-.03-.055-.068-.104-.1-.158l-.01-.015-.005-.013h-.002l-.044-.076-.008-.013v-.002c-.005 0-.006-.006-.01-.01v-.003l-.008-.01v-.002l-.007-.012-.003-.003c0-.002-.003-.006-.005-.008l-.003-.003c0-.005-.002-.007-.003-.01l-5.864 3.45c1.645 2.793 3.59 5.423 5.78 7.817l5.02-4.593-.05-.06c2.11 2.32 4.496 4.384 7.1 6.146-.002 0-.004-.002-.006-.004h-.004c-.002-.004-.006-.007-.012-.01l-.01-.007v-.004c-.034-.02-.067-.043-.1-.065l-.025-.016v-.002l-.024-.016c-.224-.15-.44-.305-.66-.46l-3.954 5.535c2.644 1.89 5.492 3.503 8.465 4.795l2.713-6.238-.07-.03c2.59 1.13 5.325 1.99 8.168 2.546-.06-.012-.12-.02-.18-.03l-1.34 6.667c3 .605 6.086.91 9.17.91.17 0 .34 0 .507-.003l-.07-6.802c-.123 0-.248 0-.37.002h-.43c0-.002-.003-.002-.004-.002h-.132l-.01-.002h-.153l-.01-.002h-.134l-.127-.003h-.032l-.015-.002h-.11l-.008-.002h-.015c-.005 0-.007 0-.012-.002h-.165l-.007-.003h-.064c-.007-.002-.01-.002-.015-.002h-.003l-.012-.002h-.084l-.002-.002h-.03.024-.061c-.007-.003-.01-.003-.015-.003h-.033l-.444-.022c.673.034 1.352.052 2.033.052 3.185 0 6.277-.388 9.245-1.097-.19.044-.378.098-.568.142l1.484 6.638c3.17-.71 6.274-1.76 9.226-3.12l-2.848-6.176c-.27.124-.545.238-.817.357 2.9-1.26 5.624-2.85 8.114-4.734-.04.03-.08.066-.122.097-.002.004-.007.007-.01.01-.013.01-.023.017-.036.024l4.074 5.447c2.596-1.94 4.997-4.16 7.135-6.6l-5.116-4.484c-.094.106-.19.208-.288.314 1.995-2.227 3.738-4.68 5.192-7.315-.04.07-.076.146-.117.22l5.938 3.32c1.585-2.84 2.874-5.85 3.828-8.95l-6.5-2s0 .002-.002.002l-.003.013v.003c-.002.003-.004.007-.004.01-.003.003-.003.003-.003.005 0 .004 0 .008-.002.012v.003c-.003.005-.004.008-.005.013v.005c0 .002-.006.008-.006.012l-.003.012c.896-2.895 1.462-5.933 1.672-9.068-.01.17-.01.342-.025.51zM7.503 99.322c0-.007.004-.012.004-.017.002-.005.003-.01.003-.016v-.003l.002-.015c0-.007.003-.01.003-.017 0-.006.003-.01.003-.016.002-.007.003-.01.003-.02.013-.046.02-.093.028-.142v-.003c0-.005.003-.01.003-.014h.003v-.014l.002-.004v-.013s.003 0 .003-.004l.003-.014v-.002c0-.003.004-.008.004-.013v-.003c0-.005.003-.007.003-.012v-.005c0-.004.003-.006.003-.01v-.017c0-.002.004-.003.004-.003l.002-.012v-.006l.002-.014v-.003c.003-.005.003-.01.005-.013v-.003c.002-.004.002-.008.003-.014v.007c0-.005 0-.008.004-.014v-.02l.007-.03v-.002c.002-.004.003-.01.003-.014v-.007l.003-.01c.002 0 .002-.004.002-.006v-.01c.002 0 .002-.003.002-.005.002-.004.002-.006.002-.01v-.008l.002-.008c.002-.003.002-.005.002-.008v-.008c.002-.002.002-.006.002-.008s0-.005.003-.008V98.7c0-.004 0-.006.004-.01v-.007s0-.005.004-.01v-.014c0-.005 0-.007.002-.01v-.01l.004-.006v-.007c0-.004.003-.006.003-.008v-.01l.002-.007V98.577l.003-.004c.003-.02.01-.037.01-.055l.003-.003v-.012c0-.002 0-.002.002-.003v-.014h.003c0-.007.004-.01.004-.015v-.002l.002-.01v-.006c0-.004.002-.008.005-.01v-.005c0-.005 0-.01.003-.013v-.004c.002-.004.002-.008.005-.01v-.006c0-.004 0-.007.002-.01v-.016s0-.003.005-.003v-.028h.004v-.015l.002-.002c0-.005 0-.01.002-.013.035-.165.08-.325.113-.488-.14.635-.264 1.275-.374 1.924.022-.137.04-.287.062-.433zm-.42 2.994v-.003c.002-.003.002-.01.002-.01v-.006c.002-.004.002-.008.002-.012v-.014c0-.003 0-.003.003-.005v-.027c.002-.002.002-.006.002-.008v-.032l.002-.01v-.004l.002-.012v-.005c.002-.004.002-.008.002-.01 0-.003 0-.007.002-.008v-.01l.002-.01v-.014c0-.003 0-.007.002-.01v-.007l.002-.01v-.007l.002-.01v-.016c0-.003 0-.004.002-.007v-.008l.002-.008v-.01c.002-.002.002-.004.002-.005 0-.007 0-.01.002-.013v-.022l.002-.01v-.02s.004-.002.004-.005v-.016c0-.004 0-.007.002-.01v-.006l.002-.01v-.007c.003-.004.003-.006.003-.01V101.855l.014-.114v-.016c.003-.007.003-.01.003-.017 0-.006 0-.01.004-.016l.003-.014v-.02l.004-.014v-.017c.023-.178.056-.352.078-.53-.053.417-.11.817-.153 1.223zm1.03 13.9H8.11c0-.005-.003-.01-.004-.013v-.002c-.002-.003-.003-.01-.003-.012v-.002c0-.004-.003-.008-.004-.014l-.007-.014c0-.005-.003-.01-.004-.015-.136-.534-.26-1.072-.373-1.614 0-.006-.002-.01-.004-.016 0-.004-.003-.01-.004-.015 0-.005 0-.01-.003-.016l-.004-.014v-.002c0-.005 0-.01-.004-.014v-.002c0-.004-.004-.008-.004-.014s-.003-.01-.003-.015v-.002l-.002-.013v-.002l-.024-.12c0-.005 0-.01-.002-.014 0-.006 0-.01-.004-.014v-.003l-.002-.01v-.005l-.003-.012s0-.004-.002-.004v-.013l-.002-.005v-.012l-.002-.002-.002-.01-.002-.004v-.012c-.002 0-.002-.002-.002-.004 0-.003 0-.008-.002-.012v-.003c0-.005 0-.007-.003-.01v-.005c0-.004 0-.008-.003-.013 0-.007 0-.01-.003-.015v-.002c-.01-.04-.015-.077-.023-.117v-.003l-.003-.013v-.002c0-.005 0-.008-.003-.013v-.003l-.002-.013v-.004c0-.004 0-.008-.003-.012v-.003c-.002-.004-.002-.01-.004-.01V113.87c-.006-.004-.006-.01-.006-.012v-.005c0-.003 0-.008-.003-.01v-.005l-.003-.01v-.006c0-.003 0-.007-.002-.01v-.005c0-.003 0-.008-.003-.012v-.003l-.01-.056v-.002c-.002-.003-.002-.01-.003-.013-.004-.005-.004-.01-.006-.013v-.003c0-.004 0-.008-.002-.01v-.006c0-.003 0-.006-.003-.01v-.006c-.003-.003-.003-.006-.003-.01v-.005l-.002-.01v-.008c-.005-.003-.005-.006-.005-.01v-.006c-.002-.004-.002-.006-.002-.01v-.006c-.002-.002-.002-.005-.002-.01v-.005c0-.004-.004-.006-.004-.01v-.006l-.002-.01v-.007c0-.004-.004-.006-.004-.008v-.01l-.002-.006v-.01l-.002-.008-.003-.01v-.005l-.004-.014c-.002 0-.002 0-.002-.003v-.01c0-.003-.003-.005-.003-.005v-.016c-.003-.003-.003-.005-.003-.007 0-.005 0-.008-.002-.01v-.006c-.002-.004-.002-.008-.002-.01-.003-.003-.003-.006-.003-.007l-.002-.01v-.005c.002.017.002.014.002.01-.002-.002-.002-.005-.002-.007l-.002-.008v-.006l-.002-.01-.002-.006-.003-.01s0-.005-.003-.006v-.016s0-.008-.004-.01v-.006c0-.004 0-.006-.002-.01v-.02l-.005-.01v-.005l-.003-.012v-.004c0-.004 0-.008-.003-.013 0-.005 0-.01-.004-.016v-.016h-.004c-.002-.022-.007-.045-.01-.065 0-.012-.005-.02-.006-.03v-.004c0-.006 0-.01-.004-.014v-.017c-.002 0-.002 0-.002-.005v-.012s-.003 0-.003-.003v-.014s0-.003-.003-.003v-.017c0-.006 0-.01-.003-.016V113c0-.004 0-.01-.003-.014v-.002l-.003-.014H7.42l-.03-.195v-.016c-.006-.008-.006-.014-.006-.018-.008-.057-.012-.113-.02-.17.194 1.24.443 2.46.75 3.656 0-.005 0-.007-.003-.013zm.29 1.07v-.003l-.007-.014v-.004c0-.004-.003-.01-.004-.014 0-.007-.002-.01-.004-.016-.01-.043-.022-.082-.035-.123v-.003c0-.003 0-.008-.004-.013v-.003l-.006-.013c0-.005-.002-.01-.003-.013v-.004l-.002-.012v-.003c0-.004-.005-.007-.005-.01v-.006c-.003 0-.004-.007-.004-.01v-.003c-.004-.004-.004-.01-.006-.01V117c-.002-.003-.002-.007-.002-.01s-.004-.004-.004-.007l-.002-.008v-.007c0-.003-.002-.006-.005-.01v-.006l-.002-.008c0-.002 0-.003-.003-.006v-.01c0 .004 0 .003 0 0 0-.002 0-.005-.003-.007v-.01c-.003 0-.003-.003-.005-.005l-.002-.01v-.002c-.004-.012-.005-.024-.008-.036-.005 0-.005-.005-.005-.005v-.008l-.002-.007c0-.003 0-.007-.002-.01l-.003-.004c0-.003 0-.007-.002-.01l-.002-.006v-.01c-.003 0-.003-.003-.004-.007v-.015c-.003-.002-.003-.006-.005-.01v-.006c-.003-.003-.003-.007-.004-.01v-.007s-.003-.003-.003-.007c-.002-.002-.002-.004-.003-.008v-.007c-.003-.002-.003-.004-.004-.006 0-.003-.003-.005-.003-.008v-.006c-.002-.003-.002-.007-.002-.01 0 0-.003-.003-.003-.005v-.015l-.002-.01-.004-.003v-.015c-.005-.008-.007-.018-.01-.027l-.016-.058-.004-.015-.003-.014-.002-.004-.003-.013-.003-.013v-.005c-.005-.003-.005-.007-.005-.01v-.005c0-.004-.002-.008-.003-.01v-.006c-.004-.003-.005-.005-.005-.01v-.003l-.003-.012s-.003 0-.003-.003v-.014l-.004-.013c-.004 0-.004 0-.004-.003 0-.004 0-.008-.003-.012v-.002c0-.005-.003-.01-.005-.014-.01-.036-.02-.07-.026-.105.13.51.276 1.01.43 1.51-.05-.16-.108-.323-.154-.49zm6.33 12.75c-.004 0-.005-.004-.006-.005l-.004-.004-.02-.028c-.002 0-.003-.003-.003-.003l-.007-.01-.002-.003-.006-.008s0-.002-.003-.004c0-.003-.004-.005-.005-.008l-.004-.004c0-.003-.002-.006-.006-.008 0-.002 0-.003-.002-.005 0-.003-.004-.005-.005-.01l-.002-.002c-.005-.002-.005-.006-.008-.008l-.002-.004c-.002 0-.003-.005-.006-.007 0-.002-.003-.002-.003-.003-.004-.003-.005-.007-.007-.01h-.003c-.012-.02-.027-.04-.04-.06-.006-.004-.008-.008-.01-.012v-.002c-.005-.002-.008-.006-.01-.01v-.002l-.01-.01v-.002c-.003-.003-.007-.007-.008-.01l-.01-.013-.07-.097c-.006-.01-.01-.017-.02-.024v-.003c0-.004-.006-.007-.007-.01v-.002c-.002-.004-.007-.008-.01-.012-.148-.204-.287-.415-.434-.623.242.346.48.69.73 1.027.004.004.004.003 0 .002zm.467.615l-.01-.01-.08-.105-.01-.013-.01-.01v-.003c-.004-.006-.005-.008-.01-.01v-.004l-.01-.01v-.004l-.01-.01c0-.002 0-.002-.003-.002l-.008-.012-.04-.053c-.004-.004-.01-.008-.01-.012l-.005-.002-.004-.01s-.003 0-.003-.002l-.007-.01v-.002c-.006-.004-.007-.007-.01-.01v-.004l-.01-.01s0-.003-.002-.005c-.003-.002-.004-.006-.01-.008v-.004c-.004-.003-.006-.007-.006-.01-.002 0-.002-.002-.002-.003-.005-.003-.007-.007-.008-.01-.003 0-.003 0-.003-.002l-.01-.01c0-.002-.004-.005-.005-.006l-.007-.008c-.002 0-.002-.002-.004-.004-.003-.002-.004-.005-.008-.01l-.003-.003c0-.004-.003-.007-.006-.01l-.002-.005c-.002 0-.005-.003-.007-.007l-.003-.004-.006-.01s-.004-.003-.004-.005c-.002 0-.004-.005-.005-.01l-.004-.003-.006-.007c0-.002 0-.004-.004-.007l-.003-.006c-.003-.003-.003-.005-.007-.007 0-.002 0-.004-.002-.007l-.006-.005-.006-.008c0-.003-.003-.004-.004-.005 0-.003-.004-.005-.007-.01l-.004-.01s-.006-.003-.007-.005l-.004-.007c-.003 0-.003-.004-.006-.006 0-.003-.004-.004-.004-.007l-.006-.006-.006-.005c0-.004-.002-.005-.003-.007 0-.003 0-.005-.003-.008 0-.003-.002-.004-.006-.006 0-.004-.002-.006-.003-.008l-.004-.007s-.003-.004-.007-.006c0-.005-.002-.005-.003-.008-.002 0-.002-.004-.005-.007l-.004-.005c.294.392.6.773.905 1.153-.14-.17-.29-.352-.44-.54zm41.16-62.573c.006 0 .008 0 .014.003.006 0 .01.002.015.003h.002c.004.002.01.003.014.003h.002c.004.003.007.004.01.004l.003.002c.006 0 .01.002.013.003h.005l.01.003h.007c.003.003.005.004.01.005h.003l.012.005h.005c.004 0 .007.002.01.003l.006.003.01.003h.006c.002.002.008.003.01.004h.005c.005 0 .01.002.01.003l.01.003.013.002.008.003.01.005h.01l.007.004h.008l.007.003h.007l.006.003c.006 0 .006 0 .01.003h.008s.005 0 .007.003c.006 0 .008.002.01.002l.01.002.005.002c.002 0 .007 0 .007.002l.008.002.012.003h.004l.01.004h.007l.01.004.004.002c.005 0 .007.002.012.003h.004l.012.003c.002 0 .002 0 .003.002.002 0 .007 0 .013.003.023.005.04.012.063.018l.016.004h.002c.006 0 .008.002.012.003l.004.002c.005 0 .01.002.013.003h.005l.012.004h.005c.004.002.006.004.012.004h.002c0 .002.007.003.012.005.004.004.012.005.016.007.006 0 .01.002.016.004.146.04.283.09.426.133-.348-.1-.693-.205-1.045-.296-.005-.002-.002-.002.005 0zm-28.765 3.508s.002-.003.005-.004l.01-.003s.002-.003.006-.004l.008-.004.002-.004c.005 0 .01-.004.012-.006 0-.002.003-.003.004-.003.004 0 .007-.003.01-.005l.006-.003.013-.01s.004 0 .004 0c.003-.003.006-.005.012-.006 0-.002.002-.003.003-.004.004 0 .006 0 .01-.004 0 0 .004 0 .005-.003.004 0 .006-.003.01-.004 0-.003.003-.005.006-.006.003 0 .005 0 .008-.003.002 0 .002 0 .005-.003l.008-.004.007-.003.007-.004s.005 0 .007-.003l.008-.004.008-.006.007-.003c.002 0 .004-.002.006-.004.004 0 .005 0 .01-.004l.007-.003.007-.005.006-.003c.003 0 .004-.002.006-.003l.016-.01s.005 0 .006-.003c.002 0 .006-.003.008-.005h.006c.002-.004.005-.005.008-.007l.008-.004.006-.002c0-.002.003-.003.005-.004l.005-.005c.005 0 .006 0 .007-.004.004 0 .006 0 .01-.003l.005-.003c.003 0 .006-.002.008-.004l.006-.002.01-.004c0-.002.004-.003.004-.004l.01-.005h.003l.012-.005.035-.02-.006.003.007-.005.007-.002c.003 0 .006-.003.008-.004l.005-.002c.002-.004.006-.005.008-.006 0 0 .005 0 .006-.002l.01-.005h.005l.01-.006c.002 0 .002 0 .003-.002.004 0 .006-.003.01-.004 0-.002 0-.002.003-.003l.01-.005c.003 0 .006-.002.006-.003l.01-.004s.004 0 .004-.003c.003 0 .008-.002.01-.004h.002c.02-.012.042-.022.064-.034.004-.004.007-.006.013-.008l.01-.006c.004 0 .005-.002.006-.002l.007-.005.006-.003.01-.004.002-.003c.005-.002.007-.005.012-.006l.002-.002c.005 0 .007-.004.012-.005v-.002c.004-.003.008-.004.012-.005l.08-.042.014-.006c.004-.004.01-.005.013-.007.003-.004.01-.006.014-.008l.014-.008h.002c.002-.003.005-.006.01-.008l.014-.007c.03-.017.063-.032.092-.048h.003c0-.002.007-.004.01-.006h.002l.013-.007.014-.007c.004-.002.007-.005.012-.006l.134-.066.014-.007.013-.007h.002c.1-.05.197-.093.294-.14-.49.24-.977.485-1.46.746.003 0 .004-.002.006-.003-.008.004-.003 0 0 0zM24.71 73.31h.003l.16-.105h.004c.002-.003.007-.005.012-.008l.01-.01.1-.062c.005-.003.007-.007.012-.008v-.002c.007 0 .01-.004.012-.007h.003l.01-.008.002-.002.01-.007c.004 0 .01-.003.01-.006h.005c.003-.004.008-.007.012-.008l.06-.04.014-.008.013-.007.004-.003c.003 0 .007-.003.01-.005h.004l.01-.007v-.002l.01-.006.005-.002.012-.006s0-.003.003-.003l.01-.007c.02-.014.043-.026.063-.04.002-.002.008-.005.01-.008h.003c.002-.003.008-.006.01-.007l.005-.003.01-.006s.003 0 .004-.003c.004 0 .007 0 .01-.004l.003-.004.01-.006s.002 0 .002-.002c.003 0 .007-.005.01-.007h.003l.012-.007.012-.007c0-.002 0-.002.003-.002l.01-.006.048-.03c.002 0 .002 0 .003-.002l.01-.006.006-.003.01-.005.004-.003c0-.003.004-.005.004-.006.005 0 .005-.002.007-.004l.01-.004c.004-.002.004-.002.006-.005l.007-.003c.003 0 .003-.003.007-.004 0-.002.003-.004.006-.006.003 0 .004-.002.005-.003.006 0 .008-.002.01-.004l.005-.002.06-.037v.004c.004 0 .007-.004.01-.006l.004-.002.01-.006.003-.003c.002 0 .004-.004.008-.005.003 0 .003 0 .004-.003l.01-.006c.002 0 .003-.003.004-.003l.01-.004c.002 0 .003-.002.005-.003.002-.003.007-.006.01-.007l.003-.002c0-.002.008-.003.01-.006.005-.004.01-.005.013-.007.005-.003.01-.005.01-.008.003 0 .005 0 .006-.002l.03-.02c.002 0 .004 0 .005-.002l.008-.006c.003 0 .005 0 .007-.003.003 0 .004-.004.007-.005l.007-.003c0-.002.003-.002.005-.005.003 0 .005-.002.007-.003l.007-.006.007-.003.006-.003.01-.005c0-.002.002-.003.007-.004 0-.002 0-.003.004-.004l.01-.006c0-.002.002-.003.003-.004.004 0 .006-.004.01-.005l.006-.002c0-.002.003-.004.006-.005l.006-.005.013-.007.004-.003c.005-.003.007-.004.01-.004 0-.003.004-.004.006-.006.004 0 .005-.002.006-.004.002 0 .006-.003.008-.005.003 0 .005-.003.006-.004.003 0 .004 0 .008-.003 0-.002.003-.002.006-.005l.005-.004c.004 0 .005-.003.01-.004 0 0 .002-.004.004-.004l.007-.006c.004 0 .006 0 .01-.003l.004-.003c.004-.002.006-.003.006-.005.004 0 .006-.002.01-.004 0 0 0-.002.007-.004 0 0 .002-.003.006-.004l.006-.004s.002-.003.006-.004l.008-.005c0-.002.003-.002.006-.003.002-.003.005-.004.008-.006.004 0 .007-.004.012-.006 0 0 .003-.003.007-.004 0-.002.004-.003.007-.004l.007-.005s.005-.003.007-.006l.006-.003s.005 0 .006-.004c.003 0 .004 0 .006-.003 0-.003.006-.005.008-.006.003 0 .005-.002.007-.003l.008-.003c.003 0 .005-.002.007-.004l.01-.003c0-.003 0-.005.004-.005l.01-.005c0-.002 0-.003.002-.004.004 0 .006-.004.01-.005l.004-.003.01-.007s.003 0 .006-.004l.007-.004.005-.003s.003-.003.007-.004l.013-.01.006-.003.01-.005c.002 0 .004 0 .004-.002 0-.003.005-.003.007-.005l.008-.004c0-.002.005-.003.007-.004l.01-.005s.002 0 .005-.002l.006-.004c.005 0 .006-.003.01-.004l.004-.006c.004 0 .005-.002.007-.004.003 0 .006 0 .01-.003l.005-.005c.003 0 .005-.003.01-.004 0-.002 0-.002.006-.004.002 0 .003-.003.006-.004l.008-.004c0-.002.003-.003.005-.004.002 0 .003-.002.006-.004.003 0 .004-.002.008-.004 0-.002.004-.002.007-.003l.014-.006c0-.002.006-.003.01-.005 0-.003 0-.003.004-.004l.008-.005.006-.003c.003 0 .006-.004.01-.004l.007-.004.005-.005c.004 0 .005-.003.006-.004.004 0 .006-.002.006-.003l.008-.004.007-.004.007-.006.007-.003.008-.003.007-.004c.002 0 .004-.003.007-.005.002-.002.002-.002.007-.003l.007-.005.006-.004c.002-.002.006-.003.007-.005h.008l.014-.01c.003 0 .004-.003.007-.003 0 0 0-.002.002-.003l.008-.005.01-.006c.003 0 .004-.003.005-.003l.01-.004.004-.003.006-.005.006-.003.01-.006.002-.003.01-.005c.002 0 .003 0 .006-.003.004 0 .007-.003.01-.005 0 0 .004-.002.004-.004l.008-.003.007-.005s.004 0 .005-.003l.007-.005.007-.004.007-.003c.002-.003.005-.004.006-.005.003 0 .007-.002.01-.005l.01-.005c.003 0 .005-.003.006-.004.003 0 .004-.003.006-.004.003 0 .006-.003.01-.004 0-.002.002-.003.006-.004 0-.002.004-.002.007-.004 0-.002 0-.003.005-.003.002-.004.003-.005.007-.007h.006c0-.003.005-.005.006-.006l.007-.004.008-.003.007-.005c.004 0 .005-.003.007-.004l.007-.003s.005-.002.007-.005c0-.002.006-.002.007-.004.003 0 .005-.004.007-.004 0-.002.007-.003.008-.004.002 0 .005-.004.008-.005.002 0 .002-.002.003-.002l.03-.015.002-.003c.004-.002.01-.004.01-.006l.006-.003c.002-.002.003-.004.007-.005 0-.002.002-.004.003-.005.006 0 .008-.003.01-.004.003 0 .005-.002.006-.003l.008-.004.007-.004.007-.005.005-.003.01-.006.006-.002c.002-.002.004-.004.008-.005 0-.002.003-.002.006-.004l.008-.004s.003 0 .006-.003c0 0 .007-.004.008-.006l.004-.002c.004 0 .008-.005.01-.006l.005-.002.014-.008s0-.002.005-.004l.007-.004.004-.004c.003 0 .007-.002.008-.004.003 0 .005 0 .006-.003.006 0 .007-.004.012-.005 0 0 .002 0 .004-.003.005 0 .006-.003.008-.006l.006-.002c0-.002.006-.004.008-.005l.005-.004.01-.003c0-.002.004-.003.006-.003l.01-.005c0-.003 0-.003.006-.005l.007-.004.007-.002.005-.004.007-.002.01-.006h.003c.008-.007.02-.012.027-.018h.005c.004-.003.006-.006.01-.007l.005-.004.01-.007h.005c.004-.004.004-.005.008-.007.003 0 .003-.003.006-.003l.006-.005.006-.003c.002-.002.007-.003.008-.005.003 0 .006 0 .007-.003.002-.002.007-.002.01-.005l.004-.004.01-.004.005-.003.01-.005c.002 0 .003-.002.004-.004.004 0 .01-.002.01-.003l.005-.003.01-.006.005-.002c.003-.002.006-.006.012-.008.003 0 .01-.005.014-.007h.004l.01-.007c.003 0 .004-.002.005-.004.004 0 .004 0 .008-.005.003 0 .004-.002.006-.003l.006-.003c.002-.003.005-.003.006-.005.003 0 .008-.004.01-.005 0 0 .003 0 .004-.003.003 0 .008-.003.01-.004l.005-.002s.005-.003.01-.003c0-.002.002-.002.004-.005l.008-.004c.004 0 .005-.003.007-.004l.01-.004s0-.003.003-.003l.007-.004.008-.003.005-.002.017-.01.007-.003c.002 0 .003-.003.006-.004l.01-.003s0-.002.002-.003c.004 0 .005 0 .01-.004l.005-.003c.003 0 .004-.002.01-.005 0 0 .003 0 .004-.002l.01-.006s.003 0 .004-.002h.002c-1.05.57-2.07 1.19-3.058 1.852.012-.018.072-.066.14-.11zm-.406 65.858v-.002l.01.008-.01-.006zm1.532.984c-.037-.02-.075-.046-.108-.068h-.003c-.007-.006-.02-.012-.027-.016-.005-.004-.007-.007-.014-.01-.003-.003-.007-.006-.013-.008-.022-.016-.043-.03-.067-.043L25.59 140l-.003-.003-.01-.007c-.003 0-.003 0-.005-.002l-.01-.007h-.004l-.012-.006-.002-.002c-.005-.002-.008-.003-.01-.007h-.002c-.004-.004-.01-.006-.014-.008l-.014-.01c-.02-.01-.037-.023-.054-.034h-.002c-.005-.003-.01-.004-.013-.008h-.003l-.01-.008c-.002 0-.003 0-.004-.002-.004-.002-.007-.005-.012-.006 0 0 0-.003-.003-.003-.003-.004-.005-.004-.01-.007 0 0-.002 0-.004-.003-.003 0-.01-.004-.01-.006h-.005l-.01-.007-.004-.003-.01-.006h-.002l-.013-.008-.002-.002c-.014-.01-.026-.017-.04-.025l-.012-.01h-.004c-.002-.005-.007-.006-.01-.008 0 0-.002 0-.004-.003s-.006-.004-.01-.007c0 0-.002-.003-.005-.004l-.01-.006s-.003 0-.003-.002c-.005 0-.007-.005-.008-.005l-.007-.004c0-.003-.008-.005-.01-.007l-.005-.002c-.004 0-.007-.003-.01-.005 0-.003-.004-.003-.006-.004-.004-.002-.005-.005-.01-.005 0 0 0-.002-.005-.003 0 0-.003-.004-.006-.004-.003-.003-.004-.005-.007-.006-.008-.005-.02-.01-.026-.017l-.014-.01-.012-.007-.004-.003-.008-.006s-.005 0-.006-.002c-.002 0-.005-.003-.008-.005 0-.002-.003-.002-.003-.004l-.01-.006c0-.002 0-.003-.004-.003s-.005-.003-.008-.005c-.003 0-.005-.003-.007-.004 0-.002-.004-.003-.006-.005l-.007-.003c0-.002 0-.002-.005-.004-.002-.003-.002-.005-.007-.005 0-.002-.004-.004-.007-.006 0-.002-.003-.003-.004-.005-.003 0-.006-.003-.007-.004-.006 0-.007 0-.008-.004-.005 0-.008-.005-.013-.006-.002 0-.003-.003-.007-.004 0-.003-.005-.004-.008-.005l-.006-.005c-.003 0-.006-.002-.007-.004-.005 0-.007 0-.008-.003l-.007-.004c-.005-.003-.007-.005-.008-.007-.004 0-.006-.002-.007-.002-.003 0-.003-.004-.006-.005-.003 0-.003-.003-.008-.005l-.007-.005c-.003 0-.004 0-.007-.003l-.007-.004-.008-.006c-.002 0-.005-.002-.006-.004-.004 0-.007-.002-.008-.004-.003 0-.006-.004-.006-.005l-.006-.005c-.004 0-.005-.003-.007-.003-.003 0-.005-.004-.005-.004l-.01-.006-.004-.002c-.012-.008-.02-.015-.032-.02-.004-.005-.007-.006-.012-.008 0 0-.002 0-.002-.003l-.012-.007s0-.002-.002-.003c-.003 0-.008-.003-.01-.005 0-.002 0-.002-.004-.002-.002-.003-.004-.005-.01-.007l-.01-.008c-.004 0-.003 0-.006-.002l-.01-.006-.002-.002-.01-.006c0-.002 0-.003-.002-.003l-.01-.008c-.002 0-.004 0-.004-.002l-.01-.006-.006-.004-.008-.004h-.002c-.005-.007-.013-.01-.02-.016l-.004-.002c-.002 0-.005-.004-.008-.005l-.003-.003c-.005-.003-.008-.004-.01-.008h-.004c-.002-.002-.006-.004-.008-.008l-.013-.008-.004-.002-.01-.006-.004-.003c-.002-.003-.007-.004-.01-.007h-.003c-.003-.005-.01-.005-.01-.01l-.013-.007h-.002l-.01-.007-.002-.002c-.02-.01-.04-.026-.06-.04h-.002l-.01-.006v-.003l-.01-.006h-.005l-.008-.008c-.004 0-.004 0-.004-.003l-.01-.007-.005-.002c-.002 0-.004-.004-.007-.005l-.002-.003-.01-.008h-.002l-.014-.01-.07-.05c-.005-.002-.008-.006-.014-.01-.005 0-.007-.003-.01-.006.51.346 1.032.68 1.563 1.003.007.007-.007-.003-.023-.01zm3.828 2.06l-.004-.002c0-.002-.006-.003-.01-.006h-.002c-.004-.003-.007-.005-.013-.006l-.015-.007-.013-.004v-.002l-.067-.03c-.002-.003-.008-.005-.01-.005l-.005-.004c-.002 0-.007-.003-.008-.005h-.006c0-.002-.003-.003-.006-.005l-.006-.002c-.003-.002-.006-.004-.01-.004l-.003-.004c-.005 0-.007-.003-.01-.004-.003 0-.005 0-.006-.002-.005 0-.008-.003-.01-.004 0 0-.005-.002-.005-.004-.005 0-.006-.002-.008-.004-.004 0-.006 0-.008-.003-.005 0-.006 0-.008-.002 0-.002-.007-.002-.008-.004-.003 0-.004-.003-.005-.003l-.01-.005-.006-.004-.014-.006h-.003c-.004-.004-.008-.005-.013-.008-.002 0-.003 0-.006-.003 0 0-.004 0-.01-.003 0 0 0-.002-.002-.003-.004 0-.006-.003-.01-.004l-.004-.004c-.005 0-.01-.003-.012-.004l-.004-.003-.01-.006c-.003 0-.003-.003-.005-.003l-.01-.003-.003-.004c-.005 0-.008-.003-.012-.004 0 0-.002 0-.003-.003 0 0-.003 0-.003-.002-.004 0-.007-.002-.01-.004h-.005l-.008-.005-.005-.002-.056-.028h-.003l-.01-.007h-.004l-.013-.007h-.004c-.003 0-.007-.004-.01-.006l-.004-.002-.01-.004-.007-.005-.012-.004h-.002l-.01-.008H29.1c-.028-.015-.058-.03-.087-.043-.01-.007-.02-.01-.03-.015v-.002l-.014-.006-.014-.008h-.002c-.29-.144-.568-.298-.854-.446.39.204.778.41 1.173.6.375.18.753.353 1.132.52-.242-.107-.493-.218-.74-.334zm14.718 3.666h-.05c-.59-.033-1.175-.08-1.757-.138.602.06 1.206.107 1.813.138h-.008zm15.597-2.327l-.016.007h-.003l-.01.005-.005.003c-.004 0-.006.002-.01.004h-.004l-.01.004h-.005c-.002.003-.007.003-.01.005H59.9s-.004 0-.01.004l-.003.002c-.004 0-.006.002-.012.004h-.002c-.005 0-.008.003-.013.003h-.003c-.002.003-.008.004-.01.006h-.004c-.002 0-.008 0-.01.002l-.005.002-.01.004h-.004c-.012.005-.02.01-.034.012l-.006.003c-.003.002-.007.002-.01.003-.002 0-.004 0-.006.002s-.006.003-.008.003c-.002.003-.006.003-.006.003l-.008.004h-.008l-.008.004s-.006 0-.007.004l-.01.002s-.004 0-.005.002c-.003 0-.006.002-.006.003l-.008.003c-.003 0-.008.002-.01.004l-.006.003-.01.002c0 .002-.004.002-.005.004h-.008c-.003.003-.004.003-.007.004l-.01.003h-.006c-.002.004-.006.004-.008.004 0 .002-.006.003-.007.004-.003 0-.006.004-.01.004l-.008.003s-.004 0-.005.003c-.01.002-.022.007-.032.01h-.003c-.003.004-.007.004-.01.005-.002 0-.003.002-.004.003-.004 0-.007.003-.012.005h-.003l-.01.004h-.01c-.003.002-.004.003-.01.004 0 0-.002.004-.005.004l-.008.002h-.008c0 .003-.01.005-.01.005l-.006.003-.01.004s-.004 0-.004.003l-.01.002-.006.003-.01.003c-.002 0-.003.003-.005.003-.006 0-.01.004-.01.005h-.008c-.003.004-.004.004-.01.006l-.017.007c-.02.005-.032.01-.047.015l-.014.006H59.3c-.006.003-.008.004-.014.005v.002c-.005 0-.008.003-.014.004l-.003.002-.013.003h-.002c-.005.003-.01.004-.013.005l-.003.003-.013.004h-.003l-.013.006-.015.006h-.002c-.005 0-.01 0-.014.002-.044.016-.085.03-.125.042l-.016.005-.016.005c-.007.002-.01.004-.017.004-.005 0-.01.003-.016.005-.13.045-.263.08-.394.123.476-.155.948-.31 1.417-.48 0-.003-.02.005-.035.01zm.18-.066l-.014.005-.014.005c-.007 0-.012.003-.015.005l-.014.004H60.1l-.01.006h-.003c-.005.002-.008.004-.014.005-.004 0-.008.003-.014.006h-.003l-.022.01c.57-.208 1.128-.43 1.684-.663-.516.214-1.033.423-1.56.617zm12.895-7.853c-.03.03-.063.06-.096.09l-.013.01-.013.01v.002l-.013.01v.002c0 .002-.006.005-.01.01l-.002.002-.01.008c-.003 0-.003 0-.003.002l-.01.01c-.02.015-.033.028-.05.043l-.013.01c-.002.004-.008.007-.01.01l-.003.003-.01.008s0 .003-.003.003c0 .004-.006.006-.01.008l-.003.004-.01.01-.01.01c-.002 0-.002 0-.002.003-.004.002-.01.006-.01.01l-.028.02-.008.01c-.002 0-.003.003-.004.005-.005.003-.007.005-.008.007l-.005.004c-.004 0-.008.004-.01.005l-.004.004c-.002.003-.007.005-.01.007v.004c-.004 0-.008.006-.01.006 0 0-.002.003-.004.003-.002.003-.007.005-.01.008 0 .003 0 .004-.003.006-.003 0-.005.004-.01.006v.005c-.006.002-.008.004-.01.008-.004 0-.004 0-.005.003l-.006.005c0 .003-.005.005-.006.006-.005.002-.007.006-.013.01l-.002.004-.01.007c-.002 0-.003.005-.005.005 0 .003-.005.007-.006.01-.004 0-.005 0-.007.003-.003.002-.003.004-.005.004l-.007.007-.004.004c-.002 0-.003.002-.008.005l-.005.003-.007.005c0 .002-.003.003-.004.005-.003 0-.004.004-.007.005 0 .002 0 .002-.005.005-.003 0-.004.003-.008.006 0 0 0 .002-.002.002-.005.003-.007.004-.008.007l-.006.002c-.003.003-.004.005-.007.006l-.005.005c-.01.01-.02.017-.026.024-.003 0-.003.002-.003.002l-.01.005c0 .002-.004.004-.004.005l-.008.007c-.002 0-.003.002-.004.003-.005 0-.006.005-.008.007-.003 0-.003.003-.005.004s-.003.005-.008.007c0 .002 0 .002-.005.004 0 .003-.005.005-.008.007-.002 0-.002.004-.005.004 0 .004-.005.005-.01.008l-.002.003-.008.007-.004.004c-.004.003-.006.007-.007.01-.018.013-.03.024-.046.04-.004 0-.006.002-.01.006l-.003.003c-.002 0-.005.004-.01.005v.003c-.005.003-.007.006-.008.008-.005 0-.005 0-.005.002l-.01.01v.002c-.004 0-.006.004-.01.007h-.002c-.002.005-.006.007-.01.01h-.002c-.025.023-.05.046-.077.067v.002c0 .003-.005.006-.01.01l-.012.01c-.003.004-.007.005-.01.01h-.002c-.004.003-.008.006-.01.01-.03.024-.062.05-.09.075v.003c-.006 0-.01.005-.013.007l-.01.01v.002c-.007 0-.01.003-.015.007l-.01.01c-.06.05-.125.095-.185.145.455-.38.903-.77 1.344-1.174-.024.02-.057.057-.094.09zm-26.51-1.917c-15.097 0-27.338-12.24-27.338-27.337S31.447 79.04 46.544 79.04c15.1 0 27.336 12.24 27.336 27.336s-12.236 27.337-27.335 27.337zm28.622-.155v.002c-.005.002-.007.005-.008.01h-.004c-.003.005-.006.006-.007.01-.003 0-.004.002-.004.003l-.01.008v.004c-.006.002-.008.006-.01.008 0 .003-.003.005-.004.005 0 .002-.006.006-.007.008l-.002.004c-.004 0-.005.003-.008.006 0 0-.004.003-.004.005l-.006.008-.004.002-.006.007c-.002.004-.008.008-.01.01-.003.002-.004.004-.005.006-.003 0-.008.006-.01.007v.004l-.01.007c0 .004-.003.006-.005.008-.002.003-.002.004-.006.006 0 .002-.004.004-.005.004 0 .003-.005.006-.006.008l-.006.004-.008.007s-.003.002-.003.004c-.003.004-.007.006-.007.008s-.002.004-.004.006l-.01.007v.006c-.006.002-.007.004-.01.008l-.004.002-.01.01-.002.002c-.007.006-.014.017-.02.023h-.002l-.01.01-.003.005-.01.01v.002l-.01.008v.003l-.01.01-.01.01c0 .003 0 .003-.004.004l-.008.01-.002.002c-.006.004-.008.006-.01.01-.002 0-.002 0-.003.002-.022.023-.045.046-.066.07h-.002l-.01.01s0 .002-.002.002l-.01.01v.002l-.012.01c-.05.057-.11.106-.164.16.3-.303.593-.61.882-.924-.1.108-.204.228-.314.343zm7.664-42.69c.004.004.005.01.007.014l.006.015c.004.006.005.01.006.014l.005.014.002.002.005.013.006.012v.004c.01.026.02.053.033.08l.007.015.005.01v.007l.006.01v.003c.003.003.003.007.006.01l.003.005c0 .002 0 .006.002.01v.004s.005.005.006.01v.002c.002.004.002.007.005.01 0 .002 0 .004.003.005 0 .004 0 .007.002.01.003 0 .003.003.003.005l.02.047v.004c.005.003.005.005.006.01v.005l.005.01s0 .003 0 .003c0 .004.003.007.006.01 0 .002 0 .004.002.006 0 0 0 .005.004.006 0 .003 0 .006.002.008 0 .003 0 .005.004.007l.003.01s0 .004.004.007l.003.006c0 .004 0 .005.002.008l.004.01v.005c.004.004.004.006.004.01.003.002.003.004.003.006.003.003.004.006.004.01.002 0 .002.003.003.005l.005.01v.006c.006.01.01.02.014.03l.006.015c.002 0 .002.002.002.002 0 .007.003.007.004.013.002.002.002.003.002.005 0 .003.004.008.006.01v.004c.003.002.005.006.005.01v.004l.007.01v.006l.007.01v.005l.005.012s0 .002 0 .003c0 .003.004.01.006.01v.005c.003.004.004.008.005.014h.003c.012.03.02.06.036.09l.004.014v.002c.004.005.007.01.008.015.07.18.135.37.205.553-.194-.506-.396-1.01-.61-1.506.02.05.053.108.08.17zm1.356 27.35c-.004.003-.005.008-.006.01v.006c0 .003 0 .006-.004.01v.005l-.003.01v.006c-.005.002-.006.006-.006.008s0 .006-.003.008c0 .003 0 .007-.003.01v.016s-.002.003-.002.005l-.004.01v.007l-.004.008c-.002.004-.002.006-.004.007 0 .003-.003.006-.004.01v.005l-.005.012v.003c-.002.002-.002.006-.003.008 0 .008-.006.014-.007.02v.003c0 .004-.003.008-.005.012v.004l-.004.01v.004c-.004.004-.004.007-.004.01 0 .002-.003.003-.003.005v.016l-.006.01v.006c0 .003-.002.006-.005.01v.005l-.004.01c0 .002-.003.003-.003.005s-.003.006-.003.01c-.002 0-.002.003-.002.003l-.008.027-.02.057h-.002c0 .005 0 .01-.003.014 0 .005-.003.01-.003.013v.004l-.007.01v.004l-.003.013-.003.003-.004.01-.002.003c0 .004-.004.008-.004.013v.003l-.004.01v.002c-.002.005-.003.01-.006.012v.002c-.012.037-.022.076-.036.114v.002c-.003.004-.004.01-.006.014 0 .004-.003.01-.004.015v.003c-.005.01-.008.018-.01.027-.064.194-.14.382-.206.575.15-.428.3-.855.436-1.29-.004.013-.008.025-.01.038.003-.01.003-.008.003-.006zm.02-.068c0-.004 0-.008.004-.01-.002.003-.004.006-.004.01zm.01-.03c-.004.004-.004.01-.006.013.003-.005.003-.01.007-.016v.003zm1.734-13.47v.003c0 .013.003.022.003.037v.058l.005.002v.112s0 .002.002.002v.078c.002.006.002.01.002.016 0 .014 0 .025.003.04v.06l.002.035v.078c.002.007.002.014.002.02v.036c.002.003.002.004.002.007v.094l.002.014v.023c0 .012 0 .024.002.035v.122c.003.005.003.01.003.013V105.765c0 .003 0 .005.003.007v.1l.002.015v.12l.002.015v.79l-.002.008v.116c0 .006 0 .014-.002.02v.076c0 .012 0 .022-.002.037V107.285l-.003.013v.014c-.003.172-.02.34-.024.508.015-.462.035-.923.035-1.39 0-.58-.013-1.156-.038-1.73v-.048zm-3.87-73.99v.054c-.004.003-.004.004-.004.006v.03l-.01.11 4.157.365c.07-.83.11-1.677.11-2.515 0-1.15-.07-2.308-.206-3.443l-4.144.502.026.23c0 .014 0 .03.004.046v.02c.003.013.005.025.005.038v.02c0 .013.003.023.005.035v.013c0 .003.003.006.003.007v.015c0 .008 0 .015.003.022v.023l.003.005v.01c0 .002 0 .004.002.006v.026c.003.002.003.003.003.005v.022c0 .003.003.004.003.008v.03l.005.004v.032l.002.01v.01l.002.008v.025c.002 0 .002.002.002.004v.022s0 .003.002.003v.006s0 .003.002.005v.035l.002.007v.026l.002.008v.004c.002.004.002.006.002.01v.023c.003 0 .003.002.003.003v.022c0 .004 0 .007.002.01v.014l.002.01v.059c.004.003.004.007.004.01v.047c.003.004.003.007.003.01v.025c.003.01.004.016.004.022v.03c.003.002.003.004.003.01v.01c.002.008.002.016.002.023v.013c0 .003 0 .005.003.008v.015c0 .01 0 .014.003.022v.023h.003v.012c0 .01 0 .02.002.032v.026c0 .003 0 .006.003.01v.024c.002.004.002.007.002.01v.024-.016c0 .01.003.016.003.022v.012l.002.01v.037h.002v.037c0 .003 0 .007.002.01v.06c.003.01.003.016.003.023v.025l.004.008v.024c.002.004.002.008.002.01v.095l.005.02v.035c0 .008 0 .017.002.023v.05c0 .002 0 .007.004.01v.033c-.107-2.464-.585-4.832-1.373-7.052.025.075.056.148.08.22l3.947-1.357c-.647-1.88-1.497-3.7-2.527-5.408L78.69 16.2c.02.032.037.07.058.103-1.028-1.72-2.257-3.305-3.66-4.716.01.012.02.022.032.033h.003c0 .003.003.005.004.008l.007.007.01.007c0 .003.005.005.006.007l.027.027c.002.002.006.004.007.007l.007.007h.003l.005.008h.002l.005.006v.002c.004 0 .005.003.007.005l.002.003s.004.003.004.005c.002 0 .002 0 .003.002l.006.005h.003c0 .004.002.005.005.007v.002c.004.005.012.01.015.015 0 .002.002.004.006.007v.002c.002 0 .004 0 .006.004h.002l.004.006.003.003c.005.002.006.003.007.005l.002.003.004.006s0 .002.003.003l.003.003.003.004s0 .002.003.002l.004.004.002.003.005.003.003.003.003.003s0 .002.002.002c.002.004.007.008.01.01l.002.002c0 .002.002.004.005.005v.002c.002.002.006.003.006.005h.002c0 .004.002.005.005.007.002 0 .003.003.007.005.003.003.003.005.006.006v.003l.007.005.002.002.003.004.003.002c0 .002.003.004.006.005.01.015.02.027.034.04h.002c0 .004.003.005.004.007h.003c0 .002.003.004.004.006h.003l.004.007c.065.065.127.132.19.2l3.046-2.85c-1.358-1.453-2.875-2.767-4.506-3.905L71.77 8.797c.117.084.23.172.348.257-1.5-1.09-3.132-2.015-4.867-2.74.02.01.043.015.063.023l1.622-3.846c-1.836-.77-3.76-1.352-5.72-1.724l-.776 4.1c.047.01.092.023.142.032-1.518-.296-3.082-.456-4.687-.456-.757 0-1.507.04-2.247.108.06-.005.115-.015.174-.02l.06-.006.16-.012h.01c.003-.002.007-.002.01-.002h.01l.01-.002h.02c.005 0 .007 0 .01-.002h.022l.01-.002h.02c.003-.002.007-.002.01-.002h.002c.01 0 .02 0 .028-.002.026 0 .055-.002.08-.004h.022l.008-.002h.012l.01-.002h.03c.006 0 .007-.002.01-.002h.022l.007-.002h.034c0-.002.004-.002.006-.002h.024c.002-.002.004-.002.008-.002h.01l.062-.004.01-.002h.042c.005 0 .006 0 .01-.002h.042l.007-.002h.023c.002-.002.003-.002.006-.002h.042c0-.002.002-.002.002-.002h.03c.004 0 .008 0 .01-.002h.01l.053-.002h.032c.002-.002.003-.002.01-.002h.03l.01-.002h.054l.008-.003h.062c.002-.003.006-.003.01-.003h.01c.014 0 .026 0 .04-.002h.065l.007-.002h.093s0-.002.004-.002h.162l.007-.003h.102c.002-.002.003-.002.005-.002h.245c0-.002.003-.002.005-.002h.138V.268c-1.996 0-3.992.21-5.93.62l.867 4.082.075-.013c-1.844.385-3.61.98-5.273 1.76.118-.056.236-.115.356-.17l-1.71-3.807c-1.816.812-3.553 1.82-5.16 2.996l2.46 3.37c.12-.086.24-.165.36-.25-1.616 1.138-3.082 2.465-4.374 3.95.08-.093.156-.19.24-.283l-3.11-2.785c-1.327 1.484-2.504 3.11-3.493 4.835l3.62 2.076c.046-.08.1-.16.147-.24-.92 1.56-1.674 3.23-2.228 4.99.01-.03.02-.063.026-.093l-3.975-1.27c-.605 1.894-1.01 3.86-1.208 5.846l4.152.41c0-.016.002-.03.005-.047v-.016c-.08.815-.123 1.643-.123 2.48 0 1.068.075 2.118.21 3.15-.022-.158-.047-.314-.064-.474l-4.147.455c.218 1.985.646 3.948 1.272 5.836l3.96-1.314c-.027-.082-.05-.166-.075-.25.574 1.798 1.352 3.504 2.306 5.09-.02-.032-.04-.062-.06-.096l-.006-.008c-.002-.003-.002-.006-.003-.01h-.002c-.01-.015-.02-.03-.026-.046l-.008-.007c-.002-.004-.002-.006-.005-.008v-.002c0-.002-.003-.004-.003-.007l-.006-.007-.003-.003c0-.002 0-.004-.003-.006 0-.002-.002-.003-.003-.005L33.4 43.112c1.008 1.714 2.202 3.327 3.546 4.797l3.078-2.82-.03-.035c1.295 1.42 2.758 2.688 4.356 3.77-.003 0-.004-.002-.005-.004h-.003l-.006-.004-.008-.005-.06-.04-.016-.01-.016-.01c-.136-.093-.27-.187-.404-.283l-2.425 3.396c1.622 1.16 3.37 2.15 5.192 2.94l1.664-3.826-.04-.02c1.586.694 3.264 1.222 5.01 1.564l-.11-.02-.823 4.093c1.84.37 3.733.556 5.625.556h.31l-.042-4.175h-.71c-.003-.003-.006-.003-.007-.003h-.083c-.025 0-.052 0-.078-.002h-.095l-.004-.002h-.044l-.004-.002h-.08c0-.002-.004-.002-.006-.002h-.008.004-.04l-.002-.002h-.048c-.004-.002-.01-.002-.01-.002h-.04c-.003-.002-.006-.002-.01-.002h-.02c-.09-.003-.18-.008-.27-.013.414.02.83.03 1.247.03 1.954 0 3.852-.236 5.672-.672-.115.03-.23.062-.35.09l.913 4.07c1.945-.434 3.85-1.077 5.658-1.912l-1.746-3.79c-.165.077-.332.147-.5.22 1.78-.772 3.45-1.75 4.978-2.904l-.074.06c-.003 0-.004.003-.006.004l-.02.017 2.5 3.342c1.592-1.19 3.064-2.555 4.376-4.05l-3.14-2.75c-.056.063-.117.127-.175.192 1.225-1.367 2.293-2.87 3.185-4.49l-.07.137 3.642 2.035c.974-1.74 1.765-3.588 2.35-5.49l-3.988-1.227h-.002l-.002.01-.003.008c-.002 0-.002.002-.002.003v.006l-.004.007v.011c-.003.003-.003.006-.003.008.55-1.775.896-3.64 1.025-5.563-.008.102-.008.206-.017.31zm-48.07-6.28l.002-.01v-.01c.004-.004.004-.006.004-.01l.002-.01v-.01l.003-.01c.007-.03.014-.06.018-.09l.002-.01v-.01c0-.002.004-.007.004-.01v-.01h.002v-.008l.002-.004v-.007h.002v-.01l.002-.01.004-.007v-.012h.002v-.01l.004-.01v-.01c0-.002 0-.006.002-.01l.003-.02c.003-.002.003-.006.003-.01v-.003l.002-.006v-.003l.002-.005v-.005c.002-.002.002-.003.002-.005v-.01c.002 0 .002-.004.002-.006v-.004l.002-.005c0-.003 0-.005.002-.006l.002-.004v-.01c0-.003 0-.004.002-.006v-.006c0-.002 0-.004.003-.005V23.94l.005-.004v-.01l.002-.005v-.002l.007-.034v-.007l.003-.002.002-.01V23.846c0-.003.004-.005.005-.007v-.004c0-.002 0-.005.002-.007v-.013c.002-.002.002-.005.002-.007V23.8s0-.004.004-.004v-.016l.003-.002v-.008.01l.003-.01c.023-.1.05-.198.07-.298-.085.39-.16.784-.23 1.18.014-.09.024-.18.04-.27zm-.258 1.837v-.003c.002-.002.002-.005.002-.007v-.02l.002-.004v-.027c0-.002 0-.004.002-.007v-.004l.002-.007v-.01l.002-.008v-.017l.002-.008v-.01c0-.004.003-.007.003-.008v-.015c.002-.003.002-.005.002-.008v-.044l.003-.006v-.02c.002 0 .002 0 .002-.003v-.01c0-.002.002-.003.002-.007v-.002c.003-.003.003-.005.003-.007v-.01c.002 0 .002 0 .002-.002v-.01l.008-.07v-.01c.002-.004.002-.007.002-.01s.002 0 .002 0v-.022c.002-.003.002-.005.002-.01 0-.003 0-.006.002-.008v-.012c.015-.11.034-.216.05-.325-.035.253-.07.5-.096.75zm.632 8.527h-.002c0-.004 0-.006-.003-.01l-.003-.01-.002-.01-.004-.008v-.01c-.084-.327-.16-.658-.23-.99v-.01c0-.002 0-.006-.004-.008v-.01l-.004-.01v-.01l-.004-.007-.002-.01-.002-.01c-.004-.024-.01-.05-.016-.074v-.008c-.002-.004-.002-.006-.002-.01 0-.003-.003-.006-.003-.01-.002-.002-.002-.005-.002-.008v-.02.002l-.003-.007v-.012h-.002l-.002-.01c0-.004 0-.005-.003-.008v-.02c-.006-.023-.012-.048-.016-.072v-.002c-.002 0-.002-.004-.002-.006v-.002c0-.004 0-.006-.002-.008v-.003s0-.004-.002-.007v-.002c0-.002 0-.004-.003-.007v-.012l-.003-.005v-.01l-.002-.01-.003-.008v-.007c-.002-.003-.002-.005-.002-.007v-.003c0-.002 0-.006-.004-.007 0-.013-.003-.024-.004-.035v-.003c0-.003 0-.005-.002-.008v-.008l-.005-.008v-.015c-.003-.003-.003-.005-.003-.007v-.01c-.002 0-.002 0-.002-.003-.002-.002-.002-.004-.002-.006v-.013c-.003 0-.003-.004-.003-.006v-.003l-.002-.006v-.002s-.003-.003-.003-.005v-.005l-.002-.005v-.007c0-.002-.003-.003-.003-.006v-.01l-.002-.004v-.008.002l-.002-.008v-.002l-.002-.01v-.003l-.004-.006v-.013l-.002-.005c-.002 0-.002-.002-.002-.004v-.01l-.002-.005V33c0-.003-.003-.005-.003-.008v-.035s0-.005-.004-.008v-.003c0-.003 0-.006-.002-.008v-.012l-.003-.008v-.002c0-.003 0-.006-.002-.01v-.01l-.008-.04c0-.006-.004-.013-.005-.02 0-.004 0-.006-.002-.01v-.01h-.002v-.03c0-.004 0-.007-.003-.01 0-.003 0-.007-.002-.01 0-.004 0-.008-.003-.01v-.01l-.02-.12v-.01c-.002-.003-.002-.006-.002-.01-.008-.034-.01-.068-.015-.104.12.76.27 1.51.46 2.244v-.003zm.177.654v-.01l-.003-.008c0-.004-.004-.006-.005-.01-.005-.026-.013-.05-.02-.076 0-.004 0-.007-.004-.01 0-.004 0-.006-.002-.01l-.002-.008v-.004c0-.002-.003-.003-.003-.006v-.003l-.002-.006v-.004l-.002-.007v-.005c-.003 0-.003-.002-.004-.004v-.01l-.003-.003v-.006s0-.002-.003-.003V35.2l-.002-.003v-.005c-.003 0-.003-.002-.003-.005l-.002-.006c-.002-.002-.002-.005-.002-.006v-.005c-.003 0-.003-.003-.003-.005v-.005l-.002-.003c0-.008 0-.016-.004-.022-.003 0-.003-.003-.003-.003v-.006s-.003-.002-.003-.004v-.01c-.002 0-.002-.003-.002-.005v-.004l-.002-.005v-.005s-.004-.003-.004-.005v-.004c-.002 0-.002-.004-.002-.005v-.006c-.003-.002-.003-.003-.003-.005v-.017l-.003-.004c-.002 0-.002-.003-.003-.004v-.005s-.002 0-.002-.002v-.006s-.002 0-.002-.002 0-.004-.003-.007v-.01l-.003-.007c0-.007-.004-.013-.006-.02l-.01-.035-.003-.01v-.006c0-.004-.003-.006-.004-.01V34.9l-.005-.007v-.002l-.002-.006c-.003-.003-.003-.006-.003-.01 0-.003-.002-.006-.003-.008v-.01h-.002c-.002-.004-.002-.006-.002-.01l-.002-.008-.017-.065c.08.313.17.62.263.928-.025-.094-.06-.193-.09-.3zm3.886 7.825c-.002 0-.003-.002-.005-.003v-.003l-.014-.02h-.002c0-.003 0-.005-.003-.007v-.002c-.002 0-.003-.003-.005-.004 0-.002 0-.003-.003-.004l-.002-.004v-.003c-.002 0-.004-.004-.005-.005l-.003-.002c0-.002-.003-.004-.004-.006v-.002l-.005-.005v-.002l-.005-.005v-.002c-.003-.002-.004-.004-.005-.006v-.002c-.01-.012-.02-.023-.026-.035l-.005-.008h-.004l-.004-.007-.007-.008c0-.003-.004-.005-.004-.007v-.002l-.005-.006-.044-.06-.01-.014-.004-.007c-.002-.002-.003-.005-.006-.006-.09-.126-.175-.256-.265-.383.146.21.293.425.447.63l.002.003zm.285.377c0-.003-.003-.005-.003-.008-.018-.02-.033-.042-.05-.063-.003 0-.004-.005-.006-.008 0-.003-.003-.007-.004-.008h-.002l-.005-.008-.007-.008v-.002l-.007-.007-.006-.008c-.01-.012-.02-.02-.026-.032 0-.002-.002-.004-.006-.007l-.004-.007s-.002 0-.002-.003c0-.002-.004-.003-.004-.005-.003 0-.003-.002-.003-.002l-.004-.007v-.004l-.003-.005h-.004c0-.003-.002-.005-.004-.007V43.4c-.004 0-.005-.003-.005-.005-.002 0-.002 0-.002-.003-.003 0-.005-.004-.005-.005v-.002c-.004-.002-.005-.004-.006-.006l-.002-.005c0-.003-.004-.004-.005-.006v-.003c-.004-.002-.004-.004-.006-.005v-.003l-.007-.006v-.004c-.002 0-.002 0-.004-.003 0-.002-.003-.002-.003-.003 0-.002-.002-.003-.005-.006h-.003c0-.003-.004-.005-.005-.007h-.002v-.005l-.006-.004v-.003c-.004 0-.004-.002-.006-.004v-.004s0-.005-.004-.005L38.5 43.3l-.003-.003-.003-.006s-.005 0-.005-.004c-.003 0-.004-.003-.005-.004-.002 0-.003-.002-.004-.003v-.004l-.003-.005c-.003 0-.003-.002-.004-.004l-.003-.004v-.002l-.004-.004c-.003-.002-.003-.003-.003-.004l-.005-.005v-.003c-.002 0-.004-.003-.004-.004l-.005-.004s0-.002-.004-.004-.002-.002-.002-.003c.18.24.368.473.555.706l-.27-.332zM63.987 5.21c.002 0 .005 0 .008.002l.01.003.01.002.008.002H64.035c.003 0 .004 0 .006.003h.003c.002 0 .005.003.008.003s.007 0 .008.002h.002c.004 0 .005 0 .007.002h.004l.008.002s.002 0 .002.002h.005c.003 0 .004 0 .005.002l.006.002s.006 0 .007.002h.006l.002.002c.003 0 .005 0 .006.002h.004l.006.003.005.002h.014l.004.003.006.002h.005c0 .002.006.002.006.002l.006.002h.008c.002 0 .003 0 .005.003h.01c0 .002.004.003.006.003h.005l.005.002h.005c.002.002.003.002.007.003l.004.003h.007l.01.004.04.012h.01c.004 0 .005.004.008.004h.005l.007.003h.002c.005 0 .007 0 .008.002h.003l.008.002h.002l.01.003.01.002.01.003c.088.024.174.056.26.08-.212-.06-.425-.125-.64-.18-.005-.002-.003 0 .003 0zm-17.65 2.153c.004 0 .004-.002.006-.002l.006-.003.002-.003c.004 0 .005 0 .007-.003l.01-.004s0-.002.002-.003c0 0 .003 0 .004-.002s.002 0 .003 0c.004 0 .007-.004.01-.005v-.002l.008-.004.003-.003.004-.002s.002-.003.005-.003c.002 0 .003 0 .005-.002l.004-.002.005-.003s0-.002.004-.002c0 0 .002 0 .003-.002l.004-.002.007-.002h.004c0-.003.004-.004.006-.004l.003-.002c.002 0 .002 0 .003-.002l.004-.003h.003c0-.002 0-.003.003-.004h.004s.003 0 .004-.003h.005c.003-.004.008-.005.012-.007l.002-.002.004-.003h.003l.006-.004.004-.002h.006c0-.002 0-.004.002-.004 0-.003.003-.003.003-.004.003 0 .005 0 .005-.002.003 0 .004 0 .006-.002l.002-.002c.002 0 .004 0 .008-.003h.002c0-.002.003-.002.005-.003l.002-.002c.003 0 .004 0 .006-.002l.007-.004h.005l.02-.014h.002l.006-.003.004-.002h.004l.005-.003s.002 0 .004-.002h.003c0-.003.005-.004.006-.004l.007-.003.004-.002c.003 0 .005-.003.005-.003h.002c.002-.003.005-.004.007-.005v-.002c.004 0 .005 0 .007-.003h.004l.007-.004.04-.02.008-.004c.005 0 .006-.002.008-.004h.003l.005-.004h.005c0-.003.002-.003.005-.005.006 0 .007-.003.008-.003 0-.002 0-.002.003-.003.003 0 .006 0 .007-.003h.003s.003-.003.006-.003v.002l.05-.025c.003 0 .005-.003.01-.004l.006-.003.01-.005.01-.005.006-.003.008-.005.057-.03.01-.004c.002-.003.005-.004.008-.005l.01-.004.007-.004h.002l.08-.04.01-.005h-.008l.007-.004c.06-.03.12-.057.18-.085-.3.147-.6.3-.895.458h.002l.006-.003zm-1.768 1.06l.1-.066.01-.006.005-.004c.02-.014.04-.027.063-.04l.007-.005.007-.004.008-.006.01-.004c0-.003.003-.005.006-.006l.008-.005v-.002c.014-.007.025-.016.038-.023l.007-.005.008-.004c.004 0 .006-.003.007-.005h.003c.002-.002.004-.003.005-.006h.002l.007-.005c0-.003.004-.004.006-.005v-.002c.003-.002.007-.003.01-.003.01-.008.024-.016.037-.024l.006-.003.01-.005V8.18l.007-.003v.003c.003 0 .005 0 .007-.003s.005-.004.008-.005h.002c0-.003.004-.004.005-.005h.002c0-.003.004-.004.007-.005V8.16c.002 0 .004-.002.006-.004l.008-.005c.01-.003.02-.01.03-.016V8.13l.007-.003h.003c.003 0 .004-.003.007-.004l.004-.002h.003s0-.003.004-.004l.008-.002s0-.002.003-.002l.005-.003s.002 0 .003-.003c.004 0 .004 0 .006-.003 0 0 0-.002.003-.002s.003-.002.006-.003c0 0 0-.003.002-.003l.035-.022.007-.004h.002c0-.003 0-.003.004-.004l.002-.003c.002 0 .002-.002.005-.003 0-.002 0-.002.003-.003l.006-.002c0-.002.002-.002.003-.002l.004-.004.003-.004c.004 0 .005-.002.008-.003V8.04l.008-.002v-.002l.007-.004h.002l.006-.005.005-.003c.007-.003.013-.008.02-.012l.003-.002c.002 0 .003 0 .004-.002s.003 0 .005 0c.002-.003.002-.003.005-.004l.004-.002c0-.002 0-.003.003-.004l.003-.002s.005 0 .006-.003h.002c0-.002.003-.003.003-.004.002 0 .002-.003.006-.003l.004-.002s0-.002.003-.002c0-.002.003-.003.006-.004l.002-.003s.003-.003.005-.003c0 0 0-.002.003-.002.002 0 .003-.002.004-.003.002 0 .004-.003.005-.004l.008-.003c0-.002.002-.003.003-.004l.004-.003c.002 0 .005-.003.005-.003.002 0 .003 0 .003-.003h.005c.004 0 .004-.003.005-.003 0 0 .002 0 .004-.003l.002-.002c0-.002.002-.002.005-.004l.002-.002c.002 0 .003-.003.004-.003.002 0 .004-.002.004-.003l.005-.002c0-.002.002-.002.003-.003l.003-.002c.003 0 .004-.002.006-.003l.004-.003c.002 0 .003-.002.004-.003l.005-.003h.003s.003-.003.003-.005h.005c0-.002.005-.003.006-.005l.007-.003s.002-.002.005-.002l.002-.004h.006l.003-.004.003-.004h.005c0-.002.002-.003.003-.004l.006-.003s0-.002.004-.002l.004-.004s.003 0 .004-.003.003-.002.005-.002c0-.002 0-.002.003-.003l.005-.002c0-.002.003-.002.004-.003 0-.002.003-.002.006-.003l.004-.003s.002 0 .003-.002l.004-.002.005-.003c0-.002.002-.003.003-.003l.006-.003.01-.005s0-.002.003-.003c0 0 .002 0 .004-.004l-.01.005s0-.002.003-.002c0 0 .002-.003.006-.003 0 0 0-.002.002-.003h.005c0-.002 0-.003.003-.004 0 0 .004 0 .005-.002s.002-.003.004-.003 0 0 .002-.002h.005s.002-.003.005-.003l.003-.003h.005c.002-.003.002-.003.005-.004 0 0 .002 0 .002-.002.004 0 .005 0 .006-.003 0 0 .002 0 .003-.002h.003c0-.002 0-.004.005-.004 0-.003 0-.003.002-.003.003 0 .005-.003.007-.005.002 0 .003-.002.005-.003l.002-.003.006-.003c0-.002.002-.002.003-.003l.005-.002c.003 0 .004-.002.005-.002.003 0 .004-.002.005-.003.002 0 .002-.003.004-.003l.002-.003.006-.002.004-.003.003-.003c.002 0 .004 0 .004-.004l.005-.002c.002 0 .002 0 .003-.002s.003-.002.006-.004h.003c0-.002.002-.003.003-.004l.004-.003c.002 0 .003 0 .004-.002h.004c.002-.004.006-.005.01-.006l.003-.003h.003l.006-.006c.002 0 .003 0 .004-.003h.003l.008-.004c0-.002.003-.002.003-.002s.003-.003.006-.003h.002l.006-.004s.002 0 .002-.002c.003 0 .004 0 .006-.003h.005l.003-.003c.002 0 .004-.003.004-.003.002 0 .004-.002.005-.003h.003c0-.002.002-.003.003-.004 0 0 .003 0 .005-.002l.005-.003h.004c0-.002 0-.003.004-.003l.006-.004.006-.003c.003 0 .004-.004.005-.004l.005-.002.006-.003h.005c0-.002.002-.002.005-.003l.002-.002c.004 0 .004-.002.006-.003h.004l.003-.004c.004 0 .005-.002.005-.002.002 0 .003 0 .005-.002l.003-.003.006-.002.003-.003s.002 0 .003-.003h.005l.006-.003s.003 0 .004-.004c.003 0 .003 0 .005-.002v-.002c.006-.003.014-.006.018-.01 0 0 .002 0 .002-.002.005 0 .006-.002.008-.003h.003c0-.002.003-.003.004-.004.002 0 .003 0 .005-.002.002 0 .003 0 .004-.002.002 0 .002 0 .003-.002.004 0 .004 0 .006-.002 0 0 .002 0 .003-.002l.003-.002.004-.002.006-.003h.003c.002-.002.002-.003.005-.004h.004s0-.003.004-.004h.003c0-.002.004-.003.005-.005.005 0 .008-.002.01-.003h.002l.007-.005.004-.003c.002 0 .004 0 .004-.004l.004-.002c.003 0 .003-.003.006-.003L46 7.55l.006-.002.004-.003c.003 0 .003-.002.005-.003 0 0 .003 0 .004-.002 0 0 0-.002.003-.002l.003-.003.004-.003c.003 0 .004 0 .004-.002.005 0 .005 0 .007-.002.003 0 .003 0 .006-.003l.005-.002h.005l.002-.006h.004l.01-.005.017-.01h.005c.002-.002.003-.004.006-.005 0 0 .002 0 .003-.002s0-.002.006-.003c0 0 .002 0 .003-.002 0 0 .002 0 .003-.003l.004-.002.005-.002c.003 0 .004-.002.004-.002.002 0 .006 0 .006-.002.002 0 .003 0 .004-.002l.005-.002s0-.002.003-.002.003 0 .005-.002h.004l.004-.005c.004 0 .005 0 .006-.002.002 0 .004 0 .005-.002h.003l.008-.004.002-.002.007-.003c.004 0 .007-.002.008-.003.002 0 .003-.002.003-.002.003 0 .006 0 .007-.003 0 0 .002 0 .003-.002l.004-.002.005-.003s.003 0 .004-.002h.005c0-.003.004-.004.005-.005l.002-.002h.004l.005-.003.006-.003s.003 0 .004-.003h.005c0-.002.002-.002.003-.003l.006-.003s.003 0 .004 0c0 0 .003 0 .003-.003.003 0 .005 0 .006-.002s-.005.002-.004.002l.01-.006c.002 0 .005 0 .005-.002h.004s.004-.003.006-.003c0 0 0-.002.002-.002.003 0 .004 0 .006-.003l.003-.003.007-.003h.002c0-.002.004-.004.006-.005h.006c-.646.35-1.27.727-1.878 1.134.04-.027.078-.057.12-.083zm-.25 40.4c0 .002.004.004.005.005l-.005-.004zm.94.606l-.067-.04-.016-.01v-.003c-.004 0-.005-.002-.01-.004l-.007-.006h-.002c-.014-.01-.025-.018-.042-.026l-.007-.004-.008-.005h-.002l-.006-.005h-.005l-.006-.004h-.003l-.007-.005c-.003-.003-.006-.004-.01-.006l-.007-.005c-.013-.008-.022-.015-.034-.02h-.003l-.007-.006-.008-.006H45c0-.003-.005-.004-.007-.005v-.004c-.004 0-.005 0-.007-.003h-.002l-.006-.005c-.002 0-.002-.002-.003-.002l-.006-.005h-.005l-.006-.004-.01-.005-.027-.017-.006-.005h-.002l-.007-.005c-.002 0-.002 0-.003-.002-.002 0-.004 0-.005-.002-.003 0-.004 0-.005-.003-.002 0-.003 0-.005-.003h-.002l-.006-.005-.003-.003-.005-.003s-.003 0-.005 0c0 0 0-.003-.002-.004 0-.003-.004-.003-.004-.003-.002 0-.002-.003-.006-.004l-.003-.003-.004-.002-.003-.002-.015-.01-.007-.006-.008-.005c-.002 0-.002 0-.003-.002l-.007-.003-.002-.003c-.002 0-.004-.002-.005-.003h-.002c-.003 0-.005-.004-.006-.004 0-.002-.003-.002-.003-.003l-.007-.003s0-.002-.003-.003h-.004c0-.003-.002-.003-.003-.004-.003 0-.003 0-.005-.002l-.004-.002-.003-.002-.003-.002c-.002 0-.003-.003-.004-.004-.003 0-.004 0-.005-.002s-.006-.003-.007-.004l-.004-.003s-.002 0-.004-.003c-.002-.002-.005-.002-.005-.002l-.004-.004h-.003c-.002 0-.004-.003-.005-.004l-.005-.004s-.002 0-.003-.002c-.002 0-.002-.002-.005-.003l-.005-.002-.003-.002-.004-.003-.005-.002-.004-.002-.004-.003-.004-.002s-.003 0-.003-.003l-.005-.002c0-.002-.002-.003-.004-.004h-.004c0-.002-.003-.003-.004-.004v-.002c-.01-.005-.015-.01-.022-.014 0-.002-.004-.003-.006-.004 0 0-.002 0-.002-.002-.003-.002-.005-.003-.008-.003s-.004-.003-.006-.005l-.003-.003-.005-.003s0-.003-.002-.003c0-.002-.005-.002-.006-.003-.002-.002 0-.002-.002-.003-.003 0-.005-.002-.006-.003h-.002l-.006-.005h-.002c-.002-.003-.003-.004-.007-.005l-.002-.002s-.003 0-.005-.002l-.003-.003-.006-.002c-.005-.005-.01-.007-.014-.01v-.002c-.003 0-.005 0-.006-.002h-.005l-.006-.006h-.003c-.002 0-.003-.004-.007-.005l-.006-.005-.008-.005-.003-.002-.004-.002-.006-.002c0-.002-.003-.002-.005-.003 0 0 0-.002-.003-.002l-.007-.003-.006-.005-.037-.024c-.003 0-.006-.003-.007-.004h-.002l-.006-.005h-.003c-.003 0-.005-.004-.008-.006H44.4c0-.002-.002-.003-.005-.004l-.007-.004.012.006-.007-.004-.008-.006-.045-.03-.01-.005c0-.003-.002-.004-.006-.005.314.212.636.418.96.615-.008-.006-.018-.01-.027-.016zm2.348 1.263h-.002c0-.002-.003-.003-.008-.005l-.007-.005-.01-.004-.008-.004-.04-.02h-.002l-.006-.003s-.002 0-.002-.002h-.01c0-.003-.002-.004-.005-.005l-.004-.002-.004-.003h-.003c-.003 0-.005 0-.008-.003h-.004l-.004-.004c-.003 0-.005 0-.005-.002h-.005l-.005-.002c-.002 0-.003 0-.005-.002l-.004-.003h-.004l-.006-.004s-.002 0-.003-.003c-.003 0-.006-.002-.008-.004h-.003c0-.002-.003-.003-.007-.004l-.005-.003s-.002 0-.003-.002-.004 0-.005-.002-.002-.002-.006-.003c0 0 0-.003-.003-.003s-.005 0-.006-.002h-.005c0-.002-.002-.004-.004-.004h-.003l-.006-.002v-.002l-.008-.003h-.002l-.002-.002-.005-.002s-.006-.002-.007-.004h-.002l-.035-.02c-.004 0-.007-.002-.01-.003l-.01-.003c0-.002-.004-.004-.008-.004l-.008-.005h-.003l-.007-.005h-.002l-.006-.004c-.018-.01-.035-.02-.055-.027l-.017-.01h-.002l-.01-.004c-.002 0-.005-.004-.007-.005-.178-.088-.35-.183-.525-.273.24.126.477.252.72.37.23.11.46.214.694.317-.15-.065-.3-.13-.455-.204zm9.03 2.25h-.01l-.01-.002h-.01c-.362-.02-.722-.047-1.078-.082.37.035.74.064 1.112.084h-.006zm9.568-1.428c-.004 0-.007.002-.01.003-.003 0-.005 0-.008.002l-.003.002s-.003 0-.005.002h-.002l-.008.003h-.003l-.007.002h-.002l-.006.003h-.003c-.003 0-.005.002-.007.003-.005 0-.006 0-.01.002h-.002c0 .002-.005.003-.006.004l-.01.002h-.002c0 .003-.006.003-.007.004l-.022.008-.003.002s-.004 0-.005.002h-.002l-.007.003h-.002c0 .003-.002.003-.004.004h-.004l-.007.003s-.002 0-.002.002l-.007.002h-.003c0 .002-.004.002-.004.003h-.005l-.006.004h-.005l-.006.003-.004.002c-.003 0-.004.002-.005.002h-.004l-.004.003h-.006l-.006.004h-.003l-.006.003h-.006c0 .002 0 .002-.002.003l-.02.007c-.003 0-.006.002-.007.003h-.005l-.005.004h-.003l-.007.002h-.004s-.002 0-.005.003H65.9l-.005.002h-.003l-.007.004h.005l-.007.003h-.006l-.002.003c-.005 0-.005.002-.008.002h-.003l-.007.003h-.002l-.006.003h-.004l-.007.004-.03.01-.01.003-.01.003c-.002 0-.004.003-.008.003h-.003c-.003 0-.006.002-.007.003h-.002c-.005 0-.008.002-.01.003H65.75l-.003.003c-.003 0-.006.002-.008.003h-.003c-.002.002-.006.002-.008.003h-.011l-.075.028h-.003l-.01.003-.007.004h-.002c-.002.002-.004.004-.01.004l-.008.004c-.08.026-.163.048-.244.075.293-.095.583-.19.87-.295-.006 0-.02.004-.03.008zm.11-.042l-.006.004-.01.003c-.003.003-.007.004-.01.004l-.007.004-.01.003v.003l-.01.002-.007.004-.014.004c.347-.128.69-.265 1.032-.406-.314.13-.632.258-.956.377zm7.915-4.818c-.02.02-.04.035-.06.054h-.003l-.007.006h-.002c0 .002-.003.004-.006.007l-.008.006c0 .002-.004.004-.006.006-.005.003-.005.005-.008.007-.004.002-.005.005-.007.007-.012.01-.02.02-.03.027h-.002c0 .003-.002.005-.004.006v.002l-.006.005c-.002 0-.003 0-.005.002 0 .002-.003.004-.004.005 0 .004-.005.005-.006.006l-.002.002c0 .002-.003.004-.005.005-.003.004-.006.005-.007.008l-.008.007-.017.013-.005.007s-.002 0-.003.003c-.003 0-.004.002-.006.003l-.002.005-.005.004-.002.002-.005.005v.002l-.006.003c0 .002-.003.003-.004.003l-.005.005-.002.004-.005.004-.003.002-.005.005c-.002 0-.002.002-.003.003l-.005.003-.002.005-.007.006-.004.004s-.002 0-.004.003l-.003.003-.006.003v.002s0 .002-.004.003c0 0 0 .003-.003.004l-.002.002c-.002 0-.003.002-.005.004l-.003.002s0 .002-.005.004c0 0 0 .002-.002.003l-.003.004H73.9c0 .003-.003.004-.004.006 0 0-.003 0-.004.002l-.005.005h-.002c0 .003-.002.004-.006.005 0 .002 0 .002-.003.003l-.016.016h-.002c0 .003-.002.004-.006.006v.002c-.002.002-.003.004-.006.005h-.002l-.005.005h-.005c0 .002 0 .005-.003.006l-.002.003-.005.004s0 .002-.004.002l-.003.003s-.003 0-.003.002c-.002 0-.004.003-.006.005h-.002l-.004.005-.026.024-.006.002s-.002 0-.002.002l-.005.005h-.002s-.003.003-.003.005h-.003c0 .003-.003.006-.004.007h-.002l-.005.006h-.002c0 .002-.003.003-.005.005h-.002l-.048.042s-.005.003-.006.006l-.008.006h-.002c0 .003-.005.005-.006.007l-.007.005-.056.048-.01.007s0 .003-.005.005l-.007.006c0 .003-.004.005-.007.006-.035.03-.074.06-.11.09.278-.234.554-.474.82-.72-.01.012-.03.035-.05.054zM57.96 45.48c-9.262 0-16.77-7.51-16.77-16.772 0-9.263 7.508-16.77 16.77-16.77 9.263 0 16.77 7.507 16.77 16.77s-7.507 16.77-16.77 16.77zm17.56-.095l-.005.007h-.002l-.006.006-.003.002c-.002.002-.003.004-.006.005v.002l-.006.005v.003c-.002 0-.003.002-.004.004h-.002c-.002 0-.002.003-.005.005l-.002.002c0 .002 0 .003-.003.005l-.007.007c-.002 0-.004.004-.007.005 0 .002 0 .003-.002.003 0 0-.002.003-.004.003v.004c0 .002-.003.004-.005.005v.003l-.007.004s0 .002-.002.003c0 .002-.002.005-.003.005 0 0 0 .002-.002.003-.003 0-.005.004-.005.005-.002 0-.003 0-.003.002l-.004.004h-.002l-.004.006v.003c-.005 0-.005 0-.007.004l-.01.008-.014.015v.002c-.003 0-.004.002-.005.004-.002 0-.002 0-.002.002l-.006.006c0 .003-.002.004-.005.007h-.002c0 .002-.004.003-.005.006l-.007.007v.002c-.002 0-.005.004-.006.005v.002l-.008.007-.043.04-.007.008-.007.007-.007.007c-.032.034-.07.065-.102.1.186-.187.366-.377.543-.57-.06.066-.124.14-.192.21zm4.702-26.19l.003.008c.004.003.004.005.005.008v.004l.004.007.003.01c0 .004 0 .006.002.01l.004.01c.006.015.014.03.02.05 0 .002.004.004.005.01.003 0 .003.002.004.005v.002l.003.007v.002c0 .002 0 .004.003.006l.004.004v.007c.002 0 .002.002.002.003l.003.006v.008c.003 0 .003.002.003.003 0 .003 0 .005.002.007.002 0 .002 0 .002.003.004.01.007.02.013.03v.002c.002 0 .002.003.004.005v.004l.003.006s0 .003.003.004v.005l.004.003v.004l.004.004v.006c.002 0 .002.003.002.005l.002.005.003.004v.004c.003.003.003.004.003.006.002 0 .002.002.002.004.002.002.002.003.002.005v.003c.002 0 .004.003.004.005v.003l.004.007v.003c.004.006.006.013.008.02h.002c0 .004 0 .005.002.008.002 0 .002.002.002.002 0 .003.002.004.003.007v.003c0 .002.003.005.005.006v.002l.002.007v.004l.004.005s0 .002.002.003c0 .002 0 .004.002.006v.004l.004.007v.003c0 .002.002.006.004.007v.002c0 .003.003.006.004.01l.02.055c.004.004.004.006.006.01l.003.01c.044.11.084.227.127.34-.12-.313-.243-.622-.375-.926.013.03.032.066.05.104zm.83 16.78l-.003.005v.013c-.002.002-.002.004-.003.007-.002 0-.002.002-.002.004v.005l-.004.002v.01s0 .003-.002.004v.005c0 .003 0 .005-.002.006-.002.002-.002.003-.002.005v.006c-.003 0-.003.003-.003.004 0 .003 0 .004-.002.007v.003c-.002.002-.002.005-.002.007v.003c-.002 0-.002.003-.002.005-.002.004-.004.008-.004.012l-.005.008v.003l-.003.006v.01l-.003.002c0 .003-.004.005-.004.007v.003l-.003.006v.003c0 .002-.003.004-.004.006v.006c0-.003 0 0 0 0l-.003.004v.005c-.003 0-.003 0-.003.002 0 .006-.004.012-.005.017-.005.012-.01.023-.01.034h-.005v.01c-.002.003-.003.005-.003.008 0 .004-.002.007-.004.01 0 .004-.002.005-.003.01l-.002.008-.003.002v.007c-.002 0-.002 0-.002.002l-.002.007v.002l-.004.007v.003l-.023.07v.01c-.003.002-.004.005-.004.008-.005.007-.006.013-.008.02-.04.12-.086.234-.128.353.092-.263.184-.524.27-.79-.004.007-.005.015-.008.02v.002zm.012-.042l.002-.007-.002.007zm.008-.02c-.003.004-.003.007-.006.01.003-.004.003-.007.006-.01zm1.064-8.263v.06h.003v.046c.004 0 .004 0 .004.002v.07c.002.004.002.007.002.01v.06l.003.02V28.027l.003.01v.106l.002.003v.084c.003.003.003.005.003.01v.157l.002.01v.643c0 .005 0 .01-.002.013v.15c-.003.017-.003.035-.003.05v.017c-.002.105-.012.207-.016.312.01-.283.02-.567.02-.853 0-.357-.008-.71-.02-1.064l-.003-.027z"/></svg>