<svg width="24" height="24" viewBox="0 0 24 24" xmlns="http://www.w3.org/2000/svg" xmlns:xlink="http://www.w3.org/1999/xlink"><title>lookback_high_on</title><defs><circle id="a" cx="12" cy="12" r="12"/></defs><g fill="none" fill-rule="evenodd"><g><use fill="#2A3052" xlink:href="#a"/><circle stroke="#E4E6F1" cx="12" cy="12" r="11.5"/></g><path d="M4 20h16V4H4z"/><path d="M4.5 15.5h15" stroke="#FFF" stroke-linecap="round"/><g fill="#FFF" fill-rule="nonzero"><path d="M16.5 13V7a.5.5 0 0 1 1 0v6a.5.5 0 0 1-1 0z"/><path d="M17.021 12.586l1.061-1.06a.5.5 0 1 1 .707.706l-1.414 1.414a.5.5 0 0 1-.707 0l-1.414-1.414a.5.5 0 0 1 .707-.707l1.06 1.06zM17.021 7.172l1.061 1.06a.5.5 0 1 0 .707-.707l-1.414-1.414a.5.5 0 0 0-.707 0l-1.414 1.414a.5.5 0 0 0 .707.707l1.06-1.06z"/></g><g fill="#FFF" fill-rule="nonzero"><path d="M4.812 11.11a.5.5 0 0 0-.624.78l2.5 2a.5.5 0 0 0 .68-.05l6-6.5a.5.5 0 1 0-.735-.68L6.949 12.82l-2.137-1.71z"/><path d="M13 7v1.5a.5.5 0 1 0 1 0v-2a.5.5 0 0 0-.5-.5h-2a.5.5 0 1 0 0 1H13z"/></g></g></svg>