<?xml version="1.0" encoding="UTF-8"?>
<svg width="16px" height="16px" viewBox="0 0 16 16" version="1.1" xmlns="http://www.w3.org/2000/svg" xmlns:xlink="http://www.w3.org/1999/xlink">
    <!-- Generator: Sketch 50.2 (55047) - http://www.bohemiancoding.com/sketch -->
    <title>icons/trade types/light/ends between-ends outside/ic-light-ends-outside</title>
    <desc>Created with Sketch.</desc>
    <defs></defs>
    <g id="icons/trade-types/light/ends-between-ends-outside/ic-light-ends-outside" stroke="none" stroke-width="1" fill="none" fill-rule="evenodd">
        <g id="binary/icons/Ends-out/-Ends-out-Off" fill="#2A3052">
            <g id="Group-Copy">
                <rect id="border" opacity="0" transform="translate(8.000000, 8.000000) scale(-1, -1) translate(-8.000000, -8.000000) " x="0" y="0" width="16" height="16"></rect>
                <rect id="Rectangle" transform="translate(8.000000, 5.000000) scale(-1, -1) translate(-8.000000, -5.000000) " x="0" y="4.5" width="16" height="1" rx="0.5"></rect>
                <rect id="Rectangle-Copy" transform="translate(8.000000, 11.000000) scale(-1, -1) translate(-8.000000, -11.000000) " x="0" y="10.5" width="16" height="1" rx="0.5"></rect>
                <g id="Group-2" transform="translate(10.000000, 0.000000)" fill-rule="nonzero">
                    <path d="M3.64644661,3.14644661 C3.45118446,3.34170876 3.45118446,3.65829124 3.64644661,3.85355339 C3.84170876,4.04881554 4.15829124,4.04881554 4.35355339,3.85355339 L5.85355339,2.35355339 C6.04881554,2.15829124 6.04881554,1.84170876 5.85355339,1.64644661 L4.35355339,0.146446609 C4.15829124,-0.0488155365 3.84170876,-0.0488155365 3.64644661,0.146446609 C3.45118446,0.341708755 3.45118446,0.658291245 3.64644661,0.853553391 L4.79289322,2 L3.64644661,3.14644661 Z" id="Path-3"></path>
                    <path d="M5.49977903,1.5 L0.5,1.5 C0.223857625,1.5 0,1.72385763 0,2 C0,2.27614237 0.223857625,2.5 0.5,2.5 L5.49977903,2.5 C5.77592141,2.5 5.99977903,2.27614237 5.99977903,2 C5.99977903,1.72385763 5.77592141,1.5 5.49977903,1.5 Z" id="Path-2"></path>
                </g>
            </g>
        </g>
    </g>
</svg>