<svg width="16" height="16" viewBox="0 0 16 16" xmlns="http://www.w3.org/2000/svg"><title>icons/system/light/two step confirmation/ic-two-step</title><path d="M1.5 4h10A1.5 1.5 0 0 1 13 5.5v8a1.5 1.5 0 0 1-1.5 1.5h-10A1.5 1.5 0 0 1 0 13.5v-8A1.5 1.5 0 0 1 1.5 4zM4 2.5V3H3v-.5A1.5 1.5 0 0 1 4.5 1h10A1.5 1.5 0 0 1 16 2.5v8a1.5 1.5 0 0 1-1.5 1.5H14v-1h.5a.5.5 0 0 0 .5-.5v-8a.5.5 0 0 0-.5-.5h-10a.5.5 0 0 0-.5.5zM1.5 5a.5.5 0 0 0-.5.5v8a.5.5 0 0 0 .5.5h10a.5.5 0 0 0 .5-.5v-8a.5.5 0 0 0-.5-.5h-10zm7.646 2.146a.5.5 0 1 1 .708.708l-4 4a.5.5 0 0 1-.708 0l-2-2a.5.5 0 1 1 .708-.708L5.5 10.793l3.646-3.647z" fill="#2A3052" fill-rule="nonzero"/></svg>