<svg xmlns="http://www.w3.org/2000/svg" xmlns:xlink="http://www.w3.org/1999/xlink" width="140" height="140" viewBox="0 0 140 140"><path fill="#F3F3F3" d="M1 1h138v138H1z"/><path fill="#CDCCCC" d="M138 2v136H2V2h136m2-2H0v140h140V0z"/><path fill="#fff" d="M52.39 32.876c-1.378 0-2.5-1.122-2.5-2.5V8.11c0-1.38 1.122-2.5 2.5-2.5h36.006c1.38 0 2.5 1.12 2.5 2.5v22.266c0 1.378-1.12 2.5-2.5 2.5H52.39z"/><path fill="#CDCCCC" d="M88.396 6.11c1.103 0 2 .896 2 2v22.266c0 1.103-.897 2-2 2H52.39c-1.103 0-2-.897-2-2V8.11c0-1.104.897-2 2-2h36.006m0-1H52.39c-1.65 0-3 1.35-3 3v22.266c0 1.65 1.35 3 3 3h36.006c1.65 0 3-1.35 3-3V8.11c0-1.65-1.35-3-3-3z"/><g fill-rule="evenodd" clip-rule="evenodd"><path fill="#F78F20" d="M75.076 18.27c-.12-.557-.38-.977-.74-1.293-.125-.13-.275-.225-.447-.324l-.263-.123c-.188-.072-.434-.155-.74-.124.154-.077.383-.08.617-.077.195.02.357.074.523.123l.416.23c.338-1.008.21-2.39-.168-3.28-.366-.934-.896-1.703-1.588-2.31-.68-.622-1.494-1.105-2.572-1.326-.534-.117-1.205-.098-1.695.015-.512.134-.938.356-1.31.63-.346.308-.68.624-.91 1.048l-.184.31-.154.337c-.08.244-.17.477-.216.755-.123.505-.146 1.197-.06 1.74.062.585.233 1.06.415 1.525.112.217.215.443.34.647.117.206.263.384.4.57.31.337.644.65 1.03.91.788.513 1.69.908 2.928.97.025-.05-.033-.15-.045-.215l-.047-.23c-.018-.168-.023-.36 0-.525l.077.107.077.093.14.216c.114.12.206.267.354.355.117.12.273.198.414.293.153.08.285.18.463.23.308.162.718.22 1.126.278.412.056.81.126 1.186.215.348.12.703.233.986.417.15.086.298.175.432.278l.2.153.2.14c.24.227.476.458.68.723.082.153.197.275.26.448l.124.23c.003.088.088.194.015.262-.114.018-.092-.103-.14-.153l-.107-.185c-.18-.19-.342-.398-.54-.57-.194-.17-.386-.343-.615-.478-.43-.304-.93-.54-1.51-.693-.572-.165-1.214-.23-1.957-.184-.325.043-.637.103-.908.2-.29.073-.617.112-.94.154-1.26.078-2.664-.223-3.604-.678-.5-.232-.963-.505-1.355-.848-.215-.155-.39-.35-.57-.54-.164-.2-.338-.39-.462-.63-.163-.206-.262-.478-.4-.71-.09-.273-.217-.51-.276-.815-.095-.276-.152-.588-.185-.926l-.048-.416.016-.046c-.007-.13-.038-.333 0-.447-.007-.306.05-.68.108-.97.055-.31.137-.593.23-.864.092-.277.214-.525.323-.785l.2-.354.2-.338.123-.154.107-.17.123-.154.124-.154c.183-.18.348-.38.54-.554l.6-.51.34-.214.323-.216c.257-.112.476-.264.755-.354.24-.125.528-.2.8-.293.593-.152 1.19-.257 1.927-.23h.046c1.396.04 2.414.46 3.28 1.03.862.574 1.527 1.34 2.005 2.297.466.947.73 2.234.508 3.59-.11.608-.288 1.148-.507 1.648-.127.234-.238.48-.386.693-.064.115-.134.227-.216.324l-.106.154-.063.077-.03.03-.014.018m-.37.4c-.18-.07-.212-.292-.293-.46-.015-.064-.027-.157 0-.217l.03-.015.154.03c.088.103.145.236.186.386.002.122.012.25-.077.277m-1.356-.26h.016c.273.035.398.217.416.508-.023.16-.114.255-.262.292-.367.006-.577-.333-.447-.678.073-.06.125-.14.277-.122"/><path fill="#0769B3" d="M65.954 28.67c.045.187.14.323.247.447.107.125.233.23.387.308.142.09.298.164.478.215l.277.078c.073.04.165.062.17.17-.004.128-.09.176-.2.2-.11-.024-.248-.02-.34-.063-.234-.027-.42-.102-.616-.17-.376-.146-.69-.356-.955-.616l-.184-.247-.154-.277c-.458-.06-.77-.267-1.048-.508-.254-.29-.455-.634-.54-1.094-.097-.442-.066-.992.047-1.418.253-.826.785-1.373 1.788-1.448.277.01.518.042.74.124.222.08.434.23.6.385l.03.03.17.186.017.046.06.06.018.046.046.077.03.03.062.17.077.17c.058.177.096.383.122.6.06.62-.063 1.174-.293 1.587-.11.215-.258.39-.432.54-.164.16-.387.263-.604.37m-.738-3.882c-.135.01-.215.073-.324.108l-.216.2-.184.23c-.06.15-.118.316-.155.51-.035.19-.06.404-.062.616-.003.53.11 1.057.324 1.37.122.154.274.28.46.37l.31.047.216-.047.2-.062.153-.106.168-.186.093-.138c.27-.513.3-1.454.124-2.05-.064-.218-.158-.394-.262-.54-.113-.116-.247-.214-.4-.292-.123-.024-.238-.058-.4-.045l-.016.015h-.03zm3.25-.432c.242.01.523-.02.74.016.05.076.03.163.03.246.018 1.13 0 2.342 0 3.497v.278c-.002.076.018.16-.03.23-.108.027-.262.016-.4.016-.146 0-.29.02-.386-.032-.025-1.366-.025-2.84 0-4.206l.047-.046m1.847 0h.725c.063.09.084.223.106.354.218.83.434 1.662.632 2.51l.046-.076.03-.092.048-.185.123-.354.215-.725c.068-.25.16-.477.217-.74.102-.21.125-.5.246-.693h.31c.11.208.15.487.245.71l.215.723c.152.48.31.955.447 1.448.062-.093.063-.247.107-.354l.093-.354c.12-.488.23-.98.37-1.448.053-.246.102-.494.185-.708.18-.026.454-.026.632 0 .016.18-.07.376-.123.54l-.14.54-.308 1.062-.293 1.08-.153.537c-.06.167-.08.374-.17.51h-.43c-.11-.193-.15-.457-.248-.663-.214-.68-.454-1.333-.663-2.018-.073.075-.07.226-.124.322l-.107.34-.2.677c-.086.21-.15.445-.217.677-.09.202-.123.462-.23.647-.115.034-.292.005-.432.015-.107-.124-.118-.345-.185-.51-.052-.173-.088-.363-.153-.523l-.294-1.08c-.11-.344-.206-.706-.307-1.062l-.153-.524c-.025-.185-.15-.35-.108-.553l.044-.03m6.086 0c.242.01.523-.02.74.015.053.162.03.333.03.507v3.235c0 .175.022.346-.03.51-.167.02-.412.024-.617.014-.06-.003-.13.013-.17-.032-.053-.16-.03-.333-.03-.508v-3.205c0-.194-.018-.38.03-.508l.047-.03"/></g><path fill="#fff" d="M9.144 49.46c-1.378 0-2.5-1.123-2.5-2.5V24.692c0-1.378 1.122-2.5 2.5-2.5H45.15c1.378 0 2.5 1.122 2.5 2.5V46.96c0 1.377-1.122 2.5-2.5 2.5H9.144z"/><path fill="#CDCCCC" d="M45.15 22.693c1.102 0 2 .897 2 2V46.96c0 1.102-.898 2-2 2H9.143c-1.103 0-2-.898-2-2V24.692c0-1.103.897-2 2-2H45.15m0-1H9.143c-1.65 0-3 1.35-3 3V46.96c0 1.65 1.35 3 3 3H45.15c1.65 0 3-1.35 3-3V24.692c0-1.65-1.35-3-3-3z"/><path d="M12.84 35.45l.362-2.626.368 2.626h1.77l.857-4.054h-1.384l-.38 2.563-.378-2.564h-1.688l-.38 2.495-.373-2.494h-1.44l.87 4.054h1.797zm4.052 0h3.52v-1.055H18.64v-.48h1.672v-1.042H18.64v-.435h1.714v-1.042h-3.462v4.054zm4.278-1.303l-.007.147c0 .77.7 1.224 2.02 1.224 1.303 0 2.013-.465 2.013-1.322 0-.738-.416-.958-1.452-1.307-.554-.187-.875-.177-.875-.46 0-.15.097-.262.327-.262.274 0 .407.182.395.447h1.496v-.17c0-.717-.648-1.15-1.844-1.15-1.313 0-2.01.512-2.01 1.307 0 .57.352.9 1.078 1.107.53.15.837.277 1.068.38.122.054.162.174.146.288-.023.158-.12.255-.358.255-.294 0-.377-.176-.377-.453v-.034h-1.62zm8.32-2.75h-3.856v1.082h1.074v2.97h1.715v-2.97h1.066v-1.084zm.738 4.053h3.52v-1.055h-1.773v-.48h1.656v-1.042h-1.655v-.435h1.714v-1.042h-3.462v4.054zm4.593 0h1.688v-1.445l.155-.005c.405 0 .466.147.53.587l.043.3c.024.18.075.365.13.563h1.713c-.075-.3-.132-.542-.156-.722l-.057-.434c-.075-.587-.3-.807-.753-.898.463-.113.81-.462.81-.95 0-.81-.51-1.05-1.744-1.05h-2.358v4.054zm1.688-2.44v-.707l.193-.006c.38 0 .55.093.55.344 0 .26-.213.375-.618.375l-.124-.005zm4.745.127l.904 2.313h1.962v-4.054h-1.326v2.063l-.75-2.064h-2.116v4.054h1.325v-2.313zM22.27 37.975l.904 2.312h1.962v-4.054H23.81v2.064l-.748-2.064h-2.118v4.054h1.326v-2.312zm13.46 0l.902 2.312h1.963v-4.054H37.27v2.064l-.75-2.064h-2.117v4.054h1.326v-2.312zm-20.033-1.742v2.442c0 .467.03.834.392 1.183.372.362.912.498 1.683.498 1.417 0 2.083-.53 2.083-1.68v-2.442H18.17v2.504c0 .332-.148.512-.397.512-.26 0-.397-.17-.397-.512v-2.504h-1.68zm12.27 0h-1.73v4.054h1.73v-4.054zm3.16 4.118c1.537 0 2.358-.742 2.358-2.12 0-1.352-.828-2.123-2.3-2.123-1.487 0-2.32.77-2.32 2.13 0 1.347.827 2.114 2.263 2.114zm.052-3.302c.396 0 .492.35.492 1.12 0 .855-.103 1.246-.5 1.246-.393 0-.493-.384-.493-1.164 0-.818.088-1.202.5-1.202z" fill-rule="evenodd" clip-rule="evenodd"/><path fill="#fff" d="M9.144 119.133c-1.378 0-2.5-1.12-2.5-2.5V94.366c0-1.38 1.122-2.5 2.5-2.5H45.15c1.378 0 2.5 1.12 2.5 2.5v22.267c0 1.38-1.122 2.5-2.5 2.5H9.144z"/><path fill="#CDCCCC" d="M45.15 92.366c1.102 0 2 .897 2 2v22.267c0 1.103-.898 2-2 2H9.143c-1.103 0-2-.897-2-2V94.366c0-1.103.897-2 2-2H45.15m0-1H9.143c-1.65 0-3 1.35-3 3v22.267c0 1.65 1.35 3 3 3H45.15c1.65 0 3-1.35 3-3V94.366c0-1.65-1.35-3-3-3z"/><g fill-rule="evenodd" clip-rule="evenodd"><path fill="#FCB131" d="M27.155 113.132c1.804 1.662 4.228 2.67 6.863 2.67 5.66 0 10.24-4.616 10.24-10.294 0-5.695-4.58-10.312-10.24-10.312-2.636 0-5.06 1.01-6.863 2.67-2.07 1.894-3.38 4.617-3.38 7.642s1.31 5.75 3.38 7.624zm15.742-1.894c0-.176.14-.318.318-.318.194 0 .336.143.336.318 0 .195-.14.338-.335.338-.177 0-.318-.142-.318-.338zm.32.266c.14 0 .264-.123.264-.266 0-.14-.122-.246-.264-.246-.124 0-.248.105-.248.246 0 .143.124.266.248.266zm-.036-.106h-.07v-.3h.123l.07.017.036.07-.054.072.07.14h-.088l-.036-.123h-.052v.124-.177h.07l.018-.035-.018-.035h-.07v.248z"/><path fill="#ED1C2E" d="M30.463 104.412c-.035-.372-.106-.726-.177-1.097h-6.262c.07-.372.177-.726.283-1.08h5.678c-.124-.37-.266-.74-.425-1.096h-4.812c.178-.373.372-.744.584-1.098h3.626c-.23-.37-.495-.743-.778-1.08h-2.07c.32-.388.674-.76 1.045-1.096-1.822-1.646-4.228-2.67-6.88-2.67-5.643 0-10.242 4.615-10.242 10.31 0 5.68 4.6 10.296 10.24 10.296 2.654 0 5.06-1.01 6.882-2.67.37-.338.707-.69 1.025-1.08h-2.07c-.282-.354-.53-.708-.777-1.097h3.626c.228-.354.424-.708.6-1.097h-4.81c-.16-.354-.32-.708-.442-1.08h5.678c.124-.353.212-.724.3-1.096.07-.354.143-.725.178-1.096.035-.354.053-.71.053-1.08s-.02-.74-.054-1.094z"/><path fill="#fff" d="M42.897 107.896c0-.195.14-.336.318-.336.194 0 .336.14.336.336 0 .176-.14.335-.335.335-.177 0-.318-.158-.318-.334zm.32.25c.14 0 .264-.108.264-.25 0-.142-.122-.247-.264-.247-.124 0-.248.104-.248.247 0 .14.124.248.248.248zm-.036-.11h-.07v-.282h.194l.035.09-.054.07.07.123h-.088l-.036-.105h-.052v.105-.158h.035l.035-.02.018-.035-.018-.018h-.07v.23z"/><path fill="#003473" d="M23.67 108.48c-.335.087-.583.14-.83.14-.53 0-.85-.335-.85-.937l.035-.39.07-.406.054-.336.477-2.9h1.062l-.125.638h.672l-.16 1.062h-.672l-.282 1.732-.018.178c0 .23.106.318.37.318l.337-.035-.14.937zm3.432-.035c-.39.105-.742.158-1.132.158-1.202 0-1.893-.637-1.893-1.893 0-1.468.814-2.53 1.946-2.53.9 0 1.485.603 1.485 1.54 0 .318-.035.62-.124 1.043h-2.21l-.02.143c0 .494.337.742.974.742.407 0 .76-.088 1.15-.265l-.176 1.062zm-.655-2.53v-.212c0-.354-.194-.55-.53-.55-.354 0-.602.267-.708.763h1.237zm-11.266 2.617h-1.096l.637-4.014-1.432 4.014h-.76l-.09-3.997-.67 3.997h-1.08l.867-5.217h1.61l.034 3.22 1.078-3.22h1.77l-.867 5.217zm2.672-1.89l-.213-.02c-.638 0-.956.248-.956.638 0 .265.16.44.407.44.53 0 .743-.44.762-1.06zm.883 1.89h-.955l.02-.44c-.25.335-.586.512-1.17.512-.53 0-.99-.477-.99-1.168 0-.193.036-.37.09-.548.176-.654.83-1.062 1.84-1.08.122 0 .317 0 .494.02l.035-.283c0-.284-.23-.372-.744-.372-.317 0-.672.054-.92.143l-.158.035-.07.02.158-.956c.513-.16.885-.23 1.29-.23.956 0 1.47.442 1.47 1.256 0 .212.017.37-.053.832l-.248 1.52-.035.267-.02.21-.017.143-.018.12zm13.708-4.21c.32 0 .602.09.99.284l.194-1.132-.282-.106-.442-.124c-.14-.035-.318-.054-.513-.054-.548 0-.867.02-1.203.213-.176.124-.406.283-.653.565l-.143-.035-1.13.797.052-.442h-1.167l-.69 4.244h1.115l.407-2.28s.158-.32.23-.426c.21-.266.388-.266.618-.266h.088c-.035.248-.053.514-.053.814 0 1.38.778 2.246 1.98 2.246.3 0 .566-.035.974-.14l.193-1.204c-.353.194-.672.283-.937.283-.654 0-1.044-.497-1.044-1.274.002-1.15.586-1.963 1.417-1.963zm9.392-1.007l-.246 1.485c-.267-.406-.586-.602-1.01-.602-.584 0-1.133.336-1.468.973v-.017l-.708-.424.07-.443H37.29l-.672 4.244h1.097l.37-2.28s.284-.318.355-.425c.177-.212.354-.248.496-.266-.124.354-.195.778-.195 1.255 0 1.063.55 1.77 1.363 1.77.407 0 .725-.14 1.025-.478l-.053.424h1.044l.848-5.216h-1.133zm-1.36 4.21c-.372 0-.566-.283-.566-.832 0-.832.353-1.434.865-1.434.39 0 .584.3.584.83-.002.85-.356 1.434-.886 1.434zm-5.113-.884l-.212-.017c-.638 0-.956.247-.956.637 0 .265.16.44.407.44.532 0 .744-.44.762-1.06zm.885 1.892h-.974l.036-.44c-.25.335-.585.512-1.17.512-.547 0-1.025-.46-1.025-1.168 0-1.008.76-1.627 1.964-1.627.123 0 .317 0 .477.017l.053-.282c0-.284-.23-.372-.76-.372-.3 0-.673.054-.92.143l-.143.035-.07.02.16-.956c.513-.16.884-.23 1.29-.23.955 0 1.45.442 1.45 1.256 0 .212.036.37-.053.832l-.23 1.52-.034.267-.036.21-.017.143v.12zm-15.194-3.343c.212 0 .513.017.83.07l.16-.99c-.318-.035-.742-.09-.99-.09-1.238 0-1.645.673-1.645 1.45 0 .514.23.885.83 1.17.443.21.514.246.514.44 0 .267-.23.425-.654.425-.336 0-.654-.053-1.01-.178l-.122.975.018.018.212.035.283.052.636.036c1.238 0 1.75-.477 1.75-1.415 0-.584-.282-.938-.83-1.185-.478-.213-.53-.248-.53-.443 0-.193.21-.37.547-.37z"/><path fill="#fff" d="M33.93 103.14l-.195 1.13c-.39-.194-.672-.282-.99-.282-.83 0-1.415.813-1.415 1.964 0 .795.39 1.272 1.044 1.272.265 0 .583-.088.938-.265l-.195 1.185c-.406.105-.672.158-.973.158-1.202 0-1.945-.867-1.945-2.264 0-1.858 1.024-3.167 2.493-3.167.194 0 .37.018.513.053l.442.105.282.11zm-3.574.776h-.106c-.37 0-.584.178-.92.69l.106-.655h-1.008l-.69 4.247h1.114c.407-2.6.513-3.043 1.044-3.043h.07c.106-.513.248-.884.425-1.22l-.034-.018zm-6.403 4.23c-.3.104-.55.14-.795.14-.566 0-.885-.318-.885-.938l.035-.37.07-.426.054-.336.478-2.9h1.097l-.124.636h.566l-.143 1.044h-.566l-.3 1.77-.018.177c0 .212.106.3.37.3.125 0 .23 0 .303-.034l-.142.935zm-4.263-2.85c0 .53.248.902.832 1.185.46.214.53.284.53.462 0 .266-.194.39-.637.39-.336 0-.637-.054-.99-.16l-.16.974.054.017.193.036c.07.017.16.033.3.033.25.036.46.036.603.036 1.167 0 1.716-.443 1.716-1.416 0-.583-.23-.92-.778-1.185-.478-.214-.53-.267-.53-.462 0-.23.194-.336.548-.336.212 0 .513.018.796.054l.16-.974c-.284-.053-.726-.088-.974-.088-1.24 0-1.68.654-1.664 1.43zm22.71 2.9H41.36l.053-.407c-.3.318-.618.46-1.025.46-.813 0-1.344-.69-1.344-1.752 0-1.414.833-2.617 1.806-2.617.442 0 .76.195 1.06.585l.25-1.486h1.096l-.85 5.217zm-1.626-.99c.514 0 .867-.602.867-1.433 0-.548-.194-.83-.584-.83-.494 0-.866.582-.866 1.413 0 .568.195.85.584.85zm-13.424.902c-.39.123-.743.177-1.15.177-1.238 0-1.874-.654-1.874-1.91 0-1.45.813-2.53 1.928-2.53.92 0 1.504.603 1.504 1.54 0 .318-.035.62-.142 1.06h-2.193l-.02.124c0 .495.337.743.975.743.407 0 .76-.07 1.15-.266l-.178 1.06zm-.62-2.53v-.21c0-.355-.194-.55-.53-.55-.354 0-.602.266-.708.76h1.238zm-11.266 2.62h-1.097l.637-4.016-1.434 4.015h-.76l-.088-3.98-.672 3.98h-1.027l.868-5.218h1.592l.053 3.236 1.062-3.237h1.733l-.866 5.217zm2.74-1.894l-.247-.017c-.618 0-.938.23-.938.654 0 .267.14.425.39.425.46 0 .778-.424.795-1.06zm.815 1.893h-.92l.018-.443c-.284.354-.655.514-1.168.514-.602 0-1.008-.46-1.008-1.15 0-1.043.707-1.645 1.945-1.645l.46.035.035-.265c0-.283-.194-.39-.707-.39-.32 0-.673.035-.92.106l-.16.053-.105.018.16-.955c.548-.16.92-.212 1.326-.212.955 0 1.468.425 1.468 1.238 0 .214-.018.372-.09.85l-.246 1.503-.035.267-.02.212-.017.16-.017.105zm16.697-1.893l-.248-.017c-.638 0-.957.23-.957.654 0 .267.16.425.407.425.442 0 .778-.424.797-1.06zm.812 1.893h-.92l.017-.443c-.283.354-.654.514-1.167.514-.602 0-1.01-.46-1.01-1.15 0-1.043.71-1.645 1.947-1.645l.442.035.052-.265c0-.283-.194-.39-.708-.39-.317 0-.688.035-.937.106l-.142.053-.105.018.16-.955c.547-.16.92-.212 1.325-.212.955 0 1.45.425 1.45 1.238 0 .214 0 .372-.088.85l-.23 1.503-.035.267-.034.212-.02.16v.105zm2.97-4.28h-.105c-.37 0-.583.177-.92.69l.107-.656h-1.01l-.672 4.247h1.097c.407-2.6.514-3.043 1.044-3.043h.072c.105-.513.247-.884.424-1.22l-.036-.018z"/></g><path fill="#fff" d="M52.39 101.215c-1.378 0-2.5-1.12-2.5-2.5V76.45c0-1.38 1.122-2.5 2.5-2.5h36.007c1.38 0 2.5 1.12 2.5 2.5v22.265c0 1.38-1.12 2.5-2.5 2.5H52.39z"/><path fill="#CDCCCC" d="M88.396 74.45c1.103 0 2 .896 2 2v22.265c0 1.103-.897 2-2 2H52.39c-1.103 0-2-.897-2-2V76.45c0-1.104.897-2 2-2h36.006m0-1H52.39c-1.65 0-3 1.35-3 3v22.265c0 1.65 1.35 3 3 3h36.007c1.65 0 3-1.35 3-3V76.45c0-1.65-1.35-3-3-3z"/><path fill="#E31837" d="M61.18 78.107h7.56c1.057 0 1.713.86 1.467 1.92l-3.52 15.113c-.25 1.055-1.306 1.916-2.362 1.916h-7.56c-1.055 0-1.713-.86-1.466-1.916l3.52-15.114c.246-1.06 1.303-1.92 2.36-1.92z"/><path fill="#00447C" d="M68.11 78.107h8.696c1.055 0 .58.86.33 1.92l-3.52 15.113c-.246 1.055-.17 1.916-1.227 1.916h-8.696c-1.058 0-1.712-.86-1.464-1.916l3.52-15.114c.25-1.06 1.305-1.92 2.36-1.92z"/><path fill="#007B85" d="M76.46 78.107h7.564c1.057 0 1.713.86 1.465 1.92L81.97 95.14c-.25 1.055-1.308 1.916-2.364 1.916h-7.558c-1.058 0-1.714-.86-1.466-1.916l3.52-15.114c.247-1.06 1.302-1.92 2.36-1.92z"/><path fill-rule="evenodd" clip-rule="evenodd" fill="#fff" d="M75.2 92.324h.712l.204-.686h-.71l-.207.686zm.57-1.892l-.245.81s.27-.137.416-.18l.37-.062.174-.568h-.714m.354-1.166l-.237.78s.268-.12.41-.16c.146-.038.366-.052.366-.052l.17-.568h-.71m1.577 0l-.922 3.05h.25l-.194.63h-.246l-.06.195h-.876l.06-.193h-1.78l.178-.583h.182l.934-3.098.187-.624h.894l-.093.315s.237-.172.464-.23c.226-.06 1.52-.08 1.52-.08l-.19.62H77.7"/><path fill="#fff" d="M78.096 88.646h.955l.01.355c-.005.062.046.09.157.09h.195l-.178.588h-.517c-.446.03-.616-.16-.604-.377l-.017-.654zm.126 2.786h-.91l.155-.52h1.04l.15-.48h-1.028l.174-.59h2.858l-.178.59h-.96l-.148.48h.962l-.16.52h-1.04l-.184.22h.422l.103.66.032.137c.02.02.148.034.222.034h.128l-.195.64h-.324l-.23-.007c-.095-.01-.163-.065-.23-.1-.06-.027-.147-.1-.17-.222l-.1-.658-.474.647c-.15.205-.355.36-.698.36h-.66l.174-.57h.252l.186-.055.14-.117.688-.97zM68.252 90h2.412l-.18.574h-.963l-.15.49h.987l-.18.595h-.985l-.24.797c-.028.088.235.1.33.1l.492-.068-.197.656h-1.11l-.254-.034c-.094-.023-.135-.066-.177-.13-.04-.063-.104-.118-.06-.257l.32-1.056h-.55l.183-.605h.55l.145-.49h-.547l.175-.575zm1.622-1.033h.99l-.18.6H69.33l-.146.128-.167.08c-.078.038-.238.114-.446.114h-.432l.174-.578h.13c.11 0 .186-.01.224-.034.043-.027.09-.09.145-.188l.25-.45h.98l-.17.327z"/><path fill-rule="evenodd" clip-rule="evenodd" fill="#fff" d="M71.77 89.955s.27-.246.733-.326c.104-.02.76-.015.76-.015l.1-.33h-1.39l-.202.67zm1.306.252h-1.38l-.085.277h1.196l.182-.003.088-.273m-1.788-1.56h.843l-.122.423s.266-.213.452-.29c.185-.068.604-.13.604-.13l1.363-.008-.464 1.548c-.078.264-.17.436-.227.514-.052.078-.11.146-.23.21-.114.064-.22.1-.315.108l-.42.012H71.46l-.37 1.22c-.035.124-.05.183-.027.216l.126.06.58-.054-.2.67h-.646l-.462-.012c-.1-.01-.204 0-.274-.053-.06-.054-.152-.124-.15-.194l.077-.328 1.178-3.912"/><path fill="#fff" d="M73.744 91.14l-.078.372c-.033.117-.062.203-.15.278-.092.08-.2.16-.452.16l-.468.02-.004.42c-.005.118.027.106.045.125l.063.038.148-.008.445-.025-.186.613h-.512c-.36 0-.625-.01-.71-.077-.088-.056-.1-.123-.1-.24l.034-1.638h.817l-.012.334h.197l.14-.023.056-.087.082-.262h.644zm-11.67-8.206c-.028.134-.554 2.555-.555 2.557-.114.49-.196.84-.476 1.065-.16.13-.344.193-.558.193-.346 0-.546-.17-.58-.496l-.006-.11.105-.66s.55-2.206.65-2.497l.007-.033c-1.072.01-1.262 0-1.274-.018l-.034.16-.563 2.486-.047.21-.093.69c0 .205.04.37.12.513.256.447.986.515 1.4.515.532 0 1.032-.113 1.37-.32.586-.346.74-.887.876-1.367l.063-.247s.566-2.29.663-2.588l.01-.033c-.776.007-1.007 0-1.08-.018zm3.138 4.55c-.38-.007-.515-.007-.96.018l-.015-.034.117-.507.055-.23c.08-.36.162-.778.17-.907.01-.076.036-.268-.184-.268-.092 0-.188.045-.286.09-.054.19-.162.73-.213.975l-.167.83-.03.035c-.393-.007-.53-.007-.98.018l-.02-.04.22-.92c.19-.834.236-1.15.288-1.575l.036-.024c.44-.062.546-.075 1.022-.17l.04.043-.073.265.24-.138c.224-.11.474-.144.61-.144.21 0 .438.06.533.3.09.215.03.48-.09 1l-.06.267c-.122.58-.143.686-.21 1.084l-.044.034zm1.546 0l-.52-.002-.497.02-.01-.02-.015-.02.118-.375.108-.38c.068-.29.11-.493.136-.673l.072-.488.017-.014.018-.017.52-.077.537-.095.01.02.005.022-.13.543-.128.543-.14.63-.06.348-.02.02-.02.016zm2.42-1.35c-.02.097-.105.464-.223.62-.08.115-.178.186-.284.186-.03 0-.22 0-.223-.28 0-.14.027-.28.062-.433.1-.443.218-.814.52-.814.235 0 .252.275.147.72zm.995.04c.134-.584.03-.857-.1-1.023-.2-.253-.55-.334-.912-.334-.217 0-.736.02-1.143.396-.292.27-.426.637-.508.988-.082.357-.177 1.002.415 1.24.184.08.447.102.617.102.434 0 .88-.12 1.214-.475.26-.288.376-.717.417-.893M79.47 87.523c-.46-.004-.59-.004-1.015.014l-.027-.034c.115-.437.23-.87.333-1.313.135-.572.164-.815.208-1.15l.034-.028c.457-.064.583-.083 1.058-.17l.015.04-.258 1.077c-.174.753-.238 1.138-.305 1.532l-.04.03zm-.69-1.34c-.022.095-.11.464-.226.62-.078.11-.264.178-.37.178-.03 0-.216 0-.223-.274 0-.137.027-.277.063-.433.102-.435.22-.802.52-.802.238 0 .34.267.238.713zm.908.044c.133-.582-.405-.053-.49-.244-.13-.3-.05-.905-.577-1.11-.202-.078-.68.024-1.088.397-.288.267-.427.63-.505.98-.083.354-.178.998.412 1.228.187.08.355.104.526.095.593-.03 1.044-.926 1.38-1.28.258-.28.302.104.342-.066M72.77 87.484c-.38-.007-.512-.007-.957.018l-.016-.034.12-.507.052-.23c.083-.36.163-.778.17-.907.01-.076.036-.268-.183-.268-.094 0-.19.045-.287.09-.052.19-.162.73-.215.975l-.163.83-.034.035c-.39-.007-.525-.007-.977.018l-.02-.04.222-.92c.19-.834.232-1.15.286-1.575l.034-.024c.44-.062.547-.075 1.023-.17l.037.043-.068.265.238-.138c.223-.11.474-.144.61-.144.207 0 .437.06.534.3.09.215.028.48-.092 1l-.06.267c-.125.58-.143.686-.21 1.084l-.043.034zm3.295-4.553l-.316.004c-.823.01-1.152.007-1.288-.01l-.034.167-.293 1.367-.738 3.04c.717-.01 1.012-.01 1.136.005l.196-.947.15-.617.088-.086h.065c.62 0 1.318 0 1.865-.403.373-.277.63-.686.742-1.182.03-.12.05-.267.05-.41 0-.19-.036-.38-.147-.525-.28-.393-.836-.4-1.478-.402zm.412 1.422c-.067.303-.264.558-.516.68-.208.105-.462.113-.726.113h-.17l.014-.067.312-1.357.01-.07.005-.05.125.01.66.058c.255.098.36.352.287.684"/><path fill="#fff" d="M83.227 84.836l-.037-.04c-.47.095-.555.11-.985.167l-.03.032-.006.02-.003-.007c-.32.74-.312.582-.573 1.164l-.003-.07-.063-1.266-.042-.04c-.49.095-.503.11-.958.167l-.035.032-.008.05.004.006c.057.292.043.227.1.685l.088.673c.045.372.07.554.125 1.12-.306.507-.378.7-.673 1.143l.018.042c.443-.016.547-.016.875-.016l.07-.082c.247-.536 2.137-3.778 2.137-3.778zm-16.053.314c.25-.175.283-.416.07-.542-.213-.126-.59-.086-.843.09-.252.17-.28.414-.067.542.21.123.59.086.84-.09zm13.88 3.508l-.368.633c-.116.218-.332.38-.678.38l-.588-.01.172-.568h.115l.136-.02.075-.068.22-.346h.917zm-71.91-4.363c-1.378 0-2.5-1.12-2.5-2.5V59.53c0-1.38 1.122-2.5 2.5-2.5H45.15c1.378 0 2.5 1.12 2.5 2.5v22.265c0 1.38-1.122 2.5-2.5 2.5H9.144z"/><path fill="#CDCCCC" d="M45.15 57.53c1.102 0 2 .896 2 2v22.265c0 1.103-.898 2-2 2H9.143c-1.103 0-2-.897-2-2V59.53c0-1.104.897-2 2-2H45.15m0-1H9.143c-1.65 0-3 1.35-3 3v22.265c0 1.65 1.35 3 3 3H45.15c1.65 0 3-1.35 3-3V59.53c0-1.65-1.35-3-3-3z"/><path fill="#862165" d="M36.692 63.21l2.71-.484v10.41h-2.71V63.21zm3.958 0v9.924h2.714V62.726l-2.714.485zm-7.82 9.925h2.713v-7.613H32.83v7.613zm-17.924-6.537c-.343-.022-1.137-.074-1.137-.788 0-.863 1.142-.863 1.57-.863.754 0 1.73.223 2.427.43 0 0 .39.14.72.28l.03.007v-2.36l-.042-.014c-.823-.288-1.78-.565-3.552-.565-3.058 0-4.14 1.782-4.14 3.308 0 .88.376 2.95 3.877 3.188.297.018 1.085.065 1.085.802 0 .61-.646.97-1.73.97-1.188 0-2.34-.303-3.042-.59v2.43c1.05.275 2.23.413 3.616.413 2.988 0 4.327-1.686 4.327-3.355 0-1.892-1.497-3.123-4.01-3.292zm16.396-1.187c-2.507.082-3.78 1.207-3.78 3.442v4.283h2.735V69.64c0-1.337.176-1.91 1.764-1.966V65.45c-.266-.057-.718-.04-.718-.04zm-7.36.103c-.06.15-.493 1.378-1.544 2.65v-5.437l-2.798.554v9.855h2.8V70.09c.81 1.215 1.21 3.045 1.21 3.045h3.352c-.33-1.38-1.78-3.92-1.78-3.92 1.3-1.65 1.872-3.41 1.964-3.7h-3.203zm10.244-.72c.74 0 1.337-.598 1.337-1.337 0-.738-.598-1.337-1.337-1.337-.737 0-1.337.598-1.337 1.336s.598 1.336 1.336 1.336z"/><path d="M13.886 78.254v-1.607c0-.184-.067-.31-.25-.31-.142 0-.278.09-.42.226v1.69h-.79v-1.606c0-.184-.068-.31-.25-.31-.147 0-.278.09-.42.226v1.69h-.79V75.69h.696l.058.352c.23-.235.466-.403.795-.403.35 0 .546.173.64.403.23-.23.48-.403.8-.403.478 0 .73.298.73.796v1.822h-.8zm2.424.053c-.707 0-1.225-.51-1.225-1.33 0-.822.522-1.34 1.23-1.34.712 0 1.234.512 1.234 1.334s-.53 1.337-1.24 1.337zm.004-2.022c-.303 0-.466.266-.466.686 0 .415.168.697.466.697.304 0 .472-.278.472-.69 0-.414-.168-.692-.472-.692zm3.14 1.97v-1.608c0-.184-.072-.31-.26-.31-.152 0-.295.09-.436.23v1.687h-.79v-2.566h.695l.06.352c.23-.225.475-.403.8-.403.477 0 .73.298.73.796v1.822h-.798zm3.53-1.085h-1.54c.04.402.282.56.628.56.282 0 .56-.104.843-.267l.08.556c-.278.176-.62.287-1.022.287-.77 0-1.32-.41-1.32-1.326 0-.835.514-1.344 1.21-1.344.785 0 1.136.587 1.136 1.33l-.017.204zm-1.142-1.022c-.22 0-.377.194-.402.588h.806c-.027-.388-.163-.588-.404-.588zm2.96 2.16c-.228.67-.543.9-1.103.9l-.3-.032-.1-.635c.083.026.162.044.314.044.178 0 .335-.068.42-.248l.03-.078-.933-2.506.85-.102.497 1.62.47-1.583h.766l-.91 2.62zm2.325-.023c-.414 0-.8-.068-1.1-.184v-3.5l.79-.126v1.497c.163-.166.383-.334.687-.334.523 0 .92.398.92 1.267 0 .952-.507 1.382-1.297 1.382zm.126-1.942c-.168 0-.304.1-.436.245v1.016c.105.032.168.048.288.048.31 0 .53-.188.53-.696 0-.43-.157-.613-.382-.613zm2.705 1.964c-.707 0-1.225-.51-1.225-1.33 0-.822.524-1.34 1.23-1.34.712 0 1.235.512 1.235 1.334s-.527 1.337-1.24 1.337zm.006-2.022c-.305 0-.466.266-.466.686 0 .415.167.697.466.697.303 0 .47-.278.47-.69 0-.414-.167-.692-.47-.692zm2.753 2.022c-.706 0-1.226-.51-1.226-1.33 0-.822.524-1.34 1.23-1.34.713 0 1.236.512 1.236 1.334s-.528 1.337-1.24 1.337zm.005-2.022c-.303 0-.466.266-.466.686 0 .415.168.697.466.697.305 0 .47-.278.47-.69 0-.414-.166-.692-.47-.692zm3.187 2.006l-.744-1.23v1.194h-.79V74.6l.79-.126v2.267l.686-1.052h.848l-.807 1.17.838 1.316-.82.117zm3.207-1.12h-1.54c.044.402.284.56.63.56.282 0 .56-.104.843-.267l.078.556c-.276.176-.617.287-1.02.287-.77 0-1.32-.41-1.32-1.326 0-.835.513-1.344 1.21-1.344.785 0 1.136.587 1.136 1.33l-.017.204zm-1.14-1.022c-.22 0-.377.194-.402.588h.806c-.026-.388-.162-.588-.403-.588zm2.37.682v1.424h-.79v-2.566h.69l.085.508c.156-.293.37-.533.748-.56l.132.807c-.383.026-.67.177-.864.387zm2.11 1.465c-.41 0-.79-.114-1.06-.256l.095-.604c.305.188.676.305.97.305.22 0 .324-.073.324-.193 0-.13-.073-.188-.435-.277-.643-.168-.916-.34-.916-.822 0-.477.356-.797.984-.797.346 0 .682.07.947.19l-.1.603c-.277-.153-.596-.24-.843-.24-.188 0-.27.067-.27.167 0 .104.072.162.434.262.68.183.922.355.922.832 0 .538-.37.83-1.052.83z"/><path fill="#fff" d="M95.844 84.295c-1.38 0-2.5-1.12-2.5-2.5V59.53c0-1.38 1.12-2.5 2.5-2.5h36.007c1.38 0 2.5 1.12 2.5 2.5v22.265c0 1.38-1.12 2.5-2.5 2.5H95.845z"/><path fill="#CDCCCC" d="M131.85 57.53c1.104 0 2 .896 2 2v22.265c0 1.103-.896 2-2 2H95.845c-1.103 0-2-.897-2-2V59.53c0-1.104.897-2 2-2h36.007m0-1H95.845c-1.65 0-3 1.35-3 3v22.265c0 1.65 1.35 3 3 3h36.007c1.65 0 3-1.35 3-3V59.53c0-1.65-1.35-3-3-3z"/><path d="M111.503 76.192h-2.878l1.8-11.053h2.876zm-5.3-11.053l-2.743 7.603-.324-1.64v.003l-.968-4.97s-.117-.997-1.366-.997h-4.535l-.052.187s1.387.288 3.01 1.263l2.5 9.603h2.998L109.3 65.14h-3.097zm22.635 11.052h2.644l-2.306-11.054h-2.312c-1.068 0-1.33.824-1.33.824l-4.29 10.23h3l.6-1.643h3.658l.336 1.642zm-3.166-3.91l1.512-4.136.852 4.136h-2.364zm-4.203-4.486l.41-2.373s-1.27-.482-2.59-.482c-1.427 0-4.818.625-4.818 3.66 0 2.856 3.98 2.892 3.98 4.39 0 1.5-3.57 1.232-4.75.286l-.427 2.48s1.285.626 3.248.626c1.964 0 4.928-1.018 4.928-3.785 0-2.873-4.017-3.14-4.017-4.39s2.803-1.09 4.036-.41z" fill="#0066B3"/><path fill="#FAA634" d="M103.136 71.105l-.968-4.97s-.117-.997-1.366-.997h-4.535l-.052.188s2.18.452 4.27 2.144c2 1.617 2.65 3.635 2.65 3.635z"/><path fill="#fff" d="M52.39 67.045c-1.378 0-2.5-1.122-2.5-2.5V42.28c0-1.378 1.122-2.5 2.5-2.5h36.007c1.38 0 2.5 1.122 2.5 2.5v22.266c0 1.378-1.12 2.5-2.5 2.5H52.39z"/><path fill="#CDCCCC" d="M88.396 40.28c1.103 0 2 .897 2 2v22.266c0 1.103-.897 2-2 2H52.39c-1.103 0-2-.897-2-2V42.28c0-1.103.897-2 2-2h36.006m0-1H52.39c-1.65 0-3 1.35-3 3v22.266c0 1.65 1.35 3 3 3h36.007c1.65 0 3-1.35 3-3V42.28c0-1.65-1.35-3-3-3z"/><path fill="#8EC641" d="M86.278 51.118c-.192-.216-.435-.355-.7-.458-.28-.108-.572-.166-.87-.198l-.263-.028-.116-.01H81.73l-.13.685-.313 1.703-.28 1.516-.117.645-.076.067h-2.855l-.068-.01.04-.22.14-.748.072-.062h1.66c.09 0 .082.01.098-.08l.19-1.057-.04-.048h-1.68c-.074 0-.074 0-.06-.076l.16-.874c.02-.095 0-.083.1-.083h1.734l.054-.047.09-.507.138-.743.008-.063H76.81l-.043.27-.16.877-.19 1.027-.226 1.228-.17.926-.063.052h-1.264l-.05-.06.238-1.272.227-1.222.24-1.292.092-.488v-.044h-1.976l-.28 1.526-.263 1.427-.255 1.374-.06.054H71.37l-.045-.06.305-1.646.318-1.697.166-.904.005-.07h-1.98l-.043.266-.147.806-.19 1.026-.198 1.083-.21 1.14-.048.255-.05.042H66.37c-.08 0-.09.02-.07-.09l.16-.887.08-.063h1.705l.048-.04.2-1.12v-.008l-.074-.008h-1.646c-.08 0-.082 0-.067-.077l.168-.918.056-.046H68.722l.056-.046.064-.362.162-.893.006-.058H57.234l-.058.342-.228 1.24-.198 1.09-.163.887-.012.06-.024-.026-.713-1.962-.577-1.575-.016-.055H53.19l-.088.46-.275 1.493-.278 1.503-.265 1.438-.182.988-.024.052.03.04h1.946l.005-.098.197-1.116.216-1.205.2-1.13.028-.162.024.026.264.762.646 1.87.336.977.02.075h7.03l.045-.272.213-1.16.213-1.148.188-1.014.18-.964.064-.054h.995l.03.036-.03.185-.282 1.52-.277 1.493-.188 1.02-.063.356h18.455l.043-.27.162-.893.227-1.228.088-.475.02.034.4 1.34.435 1.464.006.026h1.965l-.207-.556-.655-1.75c-.028-.07-.027-.07.047-.085.184-.038.364-.08.535-.156.475-.21.783-.563.928-1.06.05-.177.073-.356.08-.54.008-.178-.003-.352-.042-.524-.054-.227-.156-.43-.315-.605zm-24.44 1.014l-.166.9-.19 1.02-.17.93-.07.06h-2.868l-.057-.01.13-.71.048-.255.076-.063h1.726c.087 0 .09 0 .104-.087l.177-.977.014-.082-.035-.044h-1.733c-.082 0-.082 0-.068-.08l.152-.88.08-.07h2.856l.047.055-.052.292zm22.808.568c-.076.188-.212.32-.395.406-.134.063-.278.094-.427.112l-.36.013h-.265l-.055-.062.07-.388.194-1.043c.017-.1.017-.1.118-.1l.41.013c.133.014.26.038.383.09.238.1.383.316.384.574.006.132-.006.26-.056.386zm3.032 1.952c-.46.08-.78.517-.715.98.052.36.256.597.592.724l.12.04h.31l.214-.07c.254-.122.42-.318.492-.592l.018-.1v-.232l-.025-.12c-.124-.432-.55-.71-1.007-.63zm.155 1.594c-.355-.002-.72-.29-.723-.725 0-.4.32-.723.727-.72.416 0 .73.353.72.72.015.373-.32.728-.724.726zm.236-.705c.174-.065.22-.29.088-.422-.05-.052-.113-.067-.182-.067l-.425.016c-.088.003-.088.003-.084.095l.002.026.023.422.017.33c.002.078.003.074.078.072l.052-.056-.013-.27.002-.08.078-.015c.11-.025.196.01.266.1l.182.25.042.04.146-.02c-.105-.138-.184-.292-.332-.4l.06-.02zm-.15-.077l-.236.013h-.02l-.052-.05-.01-.19.06-.066.213-.013.115.013c.063.015.105.067.108.128 0 .06-.024.108-.08.137l-.098.028z"/><path fill="#fff" d="M95.844 119.133c-1.38 0-2.5-1.12-2.5-2.5V94.366c0-1.38 1.12-2.5 2.5-2.5h36.007c1.38 0 2.5 1.12 2.5 2.5v22.267c0 1.38-1.12 2.5-2.5 2.5H95.845z"/><path fill="#CDCCCC" d="M131.85 92.366c1.104 0 2 .897 2 2v22.267c0 1.103-.896 2-2 2H95.845c-1.103 0-2-.897-2-2V94.366c0-1.103.897-2 2-2h36.007m0-1H95.845c-1.65 0-3 1.35-3 3v22.267c0 1.65 1.35 3 3 3h36.007c1.65 0 3-1.35 3-3V94.366c0-1.65-1.35-3-3-3z"/><defs><path id="a" d="M96.158 105.5c-.463 3.71 1.873 6.715 5.22 6.715s6.432-3.006 6.895-6.715c.463-3.71-1.874-6.715-5.22-6.715s-6.432 3.006-6.895 6.715"/></defs><clipPath id="b"><use xlink:href="#a" overflow="visible"/></clipPath><linearGradient id="c" gradientUnits="userSpaceOnUse" x1="-226.502" y1="369.301" x2="-226.412" y2="369.301" gradientTransform="matrix(-9 147.333 147.333 9 -56345.957 30146.543)"><stop offset="0" stop-color="#A31E22"/><stop offset="1" stop-color="#701314"/></linearGradient><path clip-path="url(#b)" fill="url(#c)" d="M109.553 98.835l-.865 14.173-13.81-.843.866-14.174z"/><defs><path id="d" d="M97.067 105.3c-.42 3.372 1.704 6.105 4.745 6.105 3.042 0 5.85-2.733 6.27-6.106.422-3.373-1.703-6.106-4.744-6.106-3.043 0-5.85 2.733-6.27 6.105"/></defs><clipPath id="e"><use xlink:href="#d" overflow="visible"/></clipPath><linearGradient id="f" gradientUnits="userSpaceOnUse" x1="-226.136" y1="369.406" x2="-226.046" y2="369.406" gradientTransform="matrix(23.334 120 120 -23.334 -38950.648 35856.148)"><stop offset="0" stop-color="#BB2326"/><stop offset="1" stop-color="#84181A"/></linearGradient><path clip-path="url(#e)" fill="url(#f)" d="M108.072 96.97l2.72 13.99-13.714 2.667-2.72-13.988z"/><defs><path id="g" d="M97.29 99.193h10.568v4.914H97.29z"/></defs><clipPath id="h"><use xlink:href="#g" overflow="visible"/></clipPath><g clip-path="url(#h)"><defs><path id="i" d="M103.33 99.62c2.11 0 3.79 1.247 4.528 3.093-.618-2.08-2.343-3.52-4.55-3.52-2.675 0-5.166 2.112-6.018 4.914.993-2.586 3.43-4.487 6.04-4.487"/></defs><clipPath id="j"><use xlink:href="#i" overflow="visible"/></clipPath><linearGradient id="k" gradientUnits="userSpaceOnUse" x1="-228.103" y1="368.785" x2="-228.013" y2="368.785" gradientTransform="matrix(-117.862 0 0 117.862 -26776.875 -43364.063)"><stop offset="0" stop-color="#761113"/><stop offset="1" stop-color="#fff"/></linearGradient><path clip-path="url(#j)" fill="url(#k)" d="M97.29 99.193h10.568v4.914H97.29z"/></g><path fill="#fff" d="M100.814 102.158h.533s.427.002.326.48l-.875 4.14s-.275 1.093.89 1.197c1.165.105 1.62-.65 1.897-1.965l.793-3.752s0-.1.102-.1h1.37s.42.023.327.462l-.874 4.14s-.29 2.1-1.903 2.534c-.8.292-1.852.226-1.852.226s-2.46.007-2.66-1.94c0-.878.14-1.34.14-1.34l.83-3.925s.01-.156.116-.156h.84z"/><path fill="#010101" d="M110.826 102.29s.008-.132.108-.132h1.087s.548.043.423.635l-.658 3.113 1.803-1.777h1.978s.096.044 0 .135c-.095.09-2.854 2.593-2.854 2.593l1.687 2.4s.062.127-.07.127h-1.67l-.092-.068c-.067-.095-1.14-1.72-1.14-1.72l-.257 1.222s-.067.554-.49.554h-1.25s-.108.047-.06-.184l1.456-6.9m8.353 1.765c-.854-.168-1.643-.055-1.643-.055s-1.258.088-1.696.94c-.234.438-.28.658-.28.658s-.05.175.048.175h1.467s.086.006.12-.15c.032-.155.235-.49.562-.512l.356-.024s.857-.045.73.565-.685.59-1.03.604c-.345.016-1.845.02-2.533.674-.325.27-.404.76-.404.76s-.136.89.267 1.314c.4.424.815.518 1.23.518.414 0 1.3.066 1.793-.666l-.093.44s-.026.1.052.095h1.117s.4.014.555-.53c.154-.543.57-2.33.57-2.33s.135-.87.14-1.343-.48-.964-1.328-1.132m-1.244 4.22c-.617.435-1.39.127-1.375-.367.017-.496.425-.626.784-.695.36-.066 1.025-.045 1.215-.23 0 0-.054.872-.624 1.29m2.802-.63h1.434s.07.003.082.11.03.433.412.585c.383.154.885.045 1.068-.115.184-.162.285-.586-.105-.734-.39-.15-1.313-.376-1.313-.376s-.824-.165-1.067-.865c-.125-.442-.048-.805-.048-.805s.02-.453.513-.888c.535-.465 1.52-.55 1.52-.55s1.166-.09 1.78.198c.615.288.893.794.862 1.42l-.06.06-1.413-.007s-.07.016-.083-.124c-.01-.14-.08-.514-.685-.51-.604.003-.746.33-.738.51.008.18.117.378 1.12.573s1.448.555 1.545 1.082c.1.524-.02 1.29-.34 1.614-.32.323-.657.545-1.685.695-1.094.047-1.514-.08-1.514-.08s-1.29-.21-1.35-1.707l.065-.09m6.672-5.42l.078-.064h1.236s.42.002.31.52l-.44 2.095s.517-.854 1.912-.78c1.396.072 1.472 1.302 1.385 1.712l-.67 3.17s-.15.492-.498.492h-1.277s-.08.022-.038-.173l.61-2.88s.26-1.035-.597-1.024c-.857.012-1.105.8-1.163 1.074l-.522 2.47s-.15.528-.51.534h-1.237s-.095.04-.06-.124l1.482-7.023M131.383 103.047v-.596h.254l.14.017.067.058.026.094-.04.11-.117.055.064.05.068.097.073.116h-.145l-.087-.13-.063-.087-.036-.024-.06-.006h-.026v.248h-.117zm.12-.344h.09l.107-.008.034-.025.012-.044-.016-.048-.045-.024-.088-.002h-.096v.15zm.095.652c-.33 0-.6-.268-.6-.598 0-.332.27-.6.6-.6.33 0 .6.268.6.6-.002.33-.27.598-.6.598m0-1.058c-.254 0-.46.206-.46.46 0 .255.206.46.46.46s.46-.205.46-.46c0-.254-.206-.46-.46-.46"/><path fill="#fff" d="M95.844 49.46c-1.38 0-2.5-1.123-2.5-2.5V24.692c0-1.378 1.12-2.5 2.5-2.5h36.007c1.38 0 2.5 1.122 2.5 2.5V46.96c0 1.377-1.12 2.5-2.5 2.5H95.845z"/><path fill="#CDCCCC" d="M131.85 22.693c1.104 0 2 .897 2 2V46.96c0 1.102-.896 2-2 2H95.845c-1.103 0-2-.898-2-2V24.692c0-1.103.897-2 2-2h36.007m0-1H95.845c-1.65 0-3 1.35-3 3V46.96c0 1.65 1.35 3 3 3h36.007c1.65 0 3-1.35 3-3V24.692c0-1.65-1.35-3-3-3z"/><g fill="#0073B8"><path d="M126.764 31.51c.678 0 1.32.157 1.893.437l.27.142-.398.354-.6-.617-1.007.9-.598-.654-1.878 1.692 1.204 1.327-.473.416 1.186 1.33-.47.414 1.693 1.886 1.006-.926.87.992c-.173.134-.362.26-.57.378-.628.358-1.354.563-2.128.563-2.378 0-4.316-1.94-4.316-4.317s1.938-4.32 4.316-4.32zm-.787 4.043l1.027-.925.924 1.028-1.026.924-.925-1.027zm.73 1.774l1.027-.924.924 1.027-1.026.924-.925-1.027zm-1.465-3.527l1.028-.924.923 1.026-1.027.925-.924-1.027zm1.885-.497l.77-.694.693.77-.77.693-.693-.77zm1.367 3.175l.77-.693.694.77-.77.693-.694-.77zm.678 1.556l.77-.695.693.77-.77.693-.693-.77zm.31-3.565l.513-.463.462.513-.513.46-.462-.51zm-.656-1.527l.514-.462.462.515-.513.462-.464-.514zm1.313 3.05l.51-.46.463.51-.512.464-.46-.513zm-2.304-1.142l.77-.692.693.77-.77.693-.694-.77z" fill-rule="evenodd" clip-rule="evenodd"/><path d="M98.596 35.082h-.035l-.648 2.458h-.532l-.798-3.493h.552l.552 2.606h.034l.64-2.606h.44l.684 2.606h.035l.5-2.606h.577l-.8 3.493h-.53l-.67-2.458zm4.183 1.916v.375c-.224.128-.52.227-.874.227-.827 0-1.167-.513-1.167-1.29 0-.75.38-1.292 1.117-1.292.615 0 .995.4.995 1.202v.182h-1.605c0 .59.24.852.75.852.265 0 .51-.093.782-.256zm-1.524-.926h1.13c-.025-.518-.276-.724-.543-.724-.3 0-.532.232-.587.724zm2.557-.872c.148-.08.4-.182.666-.182.61 0 .94.423.94 1.212 0 .92-.444 1.37-1.158 1.37-.262 0-.666-.084-.96-.243V33.92l.51-.124V35.2zm-.004 1.976c.155.07.33.08.452.08.364 0 .64-.228.64-1.025 0-.625-.227-.827-.556-.827-.197 0-.34.054-.537.163v1.61zm3.85-.375h.025l1.053-2.753h.61v3.493h-.53v-2.532h-.045l-1.005 2.532h-.315l-1.005-2.473h-.044v2.473h-.443v-3.493h.597l1.103 2.754zm2.232-.49c0-.863.474-1.292 1.123-1.292.65 0 1.123.428 1.123 1.29 0 .843-.448 1.292-1.123 1.292s-1.123-.45-1.123-1.29zm1.73 0c0-.666-.272-.947-.607-.947-.325 0-.606.28-.606.946 0 .674.256.945.605.945s.606-.272.606-.946zm.983-.928c.223-.133.69-.364 1.256-.364.593 0 .814.23.814.74v1.783h-.512v-1.67c0-.388-.19-.457-.443-.457-.198 0-.448.09-.602.177v1.95h-.513v-2.158zm4.567 1.616v.375c-.222.128-.518.227-.872.227-.827 0-1.167-.513-1.167-1.29 0-.75.38-1.292 1.118-1.292.617 0 .996.4.996 1.202v.182h-1.605c0 .59.24.852.75.852.264 0 .51-.093.782-.256zm-1.522-.926h1.127c-.023-.518-.275-.724-.54-.724-.3 0-.533.232-.587.724zm3.512-.97h.527l-.893 2.463c-.247.68-.548 1.034-1.113 1.034v-.405c.335 0 .542-.266.66-.63l-.946-2.463h.543l.63 1.813h.03l.562-1.813z"/></g><path fill="#fff" d="M52.39 135.385c-1.377 0-2.5-1.12-2.5-2.5V110.62c0-1.38 1.123-2.5 2.5-2.5h36.007c1.38 0 2.5 1.12 2.5 2.5v22.265c0 1.38-1.12 2.5-2.5 2.5H52.39z"/><path fill="#CDCCCC" d="M88.396 108.62c1.103 0 2 .896 2 2v22.265c0 1.103-.897 2-2 2H52.39c-1.102 0-2-.897-2-2V110.62c0-1.104.898-2 2-2h36.006m0-1H52.39c-1.65 0-3 1.35-3 3v22.265c0 1.65 1.35 3 3 3h36.007c1.65 0 3-1.35 3-3V110.62c0-1.65-1.35-3-3-3z"/><path fill="#C6373B" d="M55.86 121.094l.012.21v1.47c0 .123-.015.244-.05.36-.03.097-.075.182-.145.256-.086.093-.193.146-.314.177l-.25.03-1.87-.003c-.193 0-.36-.074-.507-.196l-.066-.08c-.053-.084-.087-.174-.107-.27l-.022-.147-.018-.055v-1.654l.02-.053.03-.188c.024-.09.06-.176.112-.253l.063-.07c.114-.09.243-.15.388-.176l.09-.005h1.91c.1 0 .194.012.287.04.174.058.297.17.37.34.038.085.058.177.068.27z"/><path fill="#3591CF" d="M59.716 121.09l-.052-.23c-.077-.2-.22-.33-.43-.383l-.23-.03h-1.147l-.085.007c-.128.02-.24.075-.347.147l-.13.147-.08.193c-.03.112-.04.23-.04.343v3.47l.02.02h.728l.024-.022v-1.127l.024-.025h.908l.175-.008c.098-.008.19-.035.275-.082l.185-.145c.14-.14.21-.305.21-.504v-1.57l-.007-.2zm-.767.93v.568l-.02.092c-.042.067-.1.115-.185.115h-.553l-.118-.02c-.062-.026-.1-.07-.114-.137l-.012-.094V121.5l.01-.1c.02-.076.064-.127.14-.148l.086-.012h.576l.06.008c.066.014.104.057.12.12l.01.09v.563zm18.11-1.122c-.067-.22-.208-.36-.433-.42l-.258-.033h-1.054l-.09.003c-.1.007-.193.026-.283.064-.148.063-.256.17-.318.323-.043.113-.06.23-.06.35l.003.586.008.838.01.346.027.152c.023.095.074.174.137.247.098.11.217.184.36.215l.298.027h1.635l.057-.058v-.682l-.06-.062h-1.532l-.086-.044-.025-.037c-.04-.053-.045-.115-.04-.177l.01-.015.022-.01.73-.29.942-.37.027-.01.01-.017.003-.024v-.613c0-.095-.015-.195-.044-.29zm-.77.506l-.116.045-.764.288-.053.016-.014-.012-.004-.034v-.267l.05-.115c.057-.058.125-.087.207-.085h.525l.12.03.065.104-.016.03zm-13.418-.457c-.03-.127-.09-.24-.188-.328-.08-.07-.176-.114-.28-.142l-.287-.033H60.42l-.06.064v.7l.027.03h1.57l.084.017.083.088.008.074-.066.07h-.942l-.076.002-.27.048c-.192.065-.32.194-.383.387-.03.1-.045.2-.047.303v.65l.03.234c.03.11.08.21.163.29.073.067.16.112.255.142.116.035.236.047.356.05h.964l.175-.01c.09-.007.174-.032.25-.077.128-.072.22-.175.283-.306.056-.115.077-.24.077-.37v-1.628l-.028-.26zm-.74 1.677l-.008.06-.08.09-.11.023h-.607c-.067.002-.122-.03-.168-.075l-.032-.072.002-.27v-.017c.017-.077.03-.11.12-.123l.07-.007h.602l.083.01c.076.02.12.07.127.15V122.623zm10.702.972h.697l.024-.023V121.3l.057-.058h.446l.047-.047v-.727l-.025-.022h-.496l-.027-.025v-.165l.012-.063c.02-.062.06-.104.12-.127l.116-.02h.258l.046-.047v-.682l-.045-.044h-.45l-.145.01c-.172.023-.324.086-.455.2-.102.09-.172.196-.207.325l-.025.23v3.5l.056.06z"/><path fill="#C6373B" d="M52.63 120.47l.016-.013.223-.134.16-.056.024-.025.045-.148c.18-.48.654-.797 1.177-.762.163.01.318.05.46.126.314.165.516.417.606.76l.056.056c.135.03.26.09.364.18l.022.006.002-.063-.016-.23-.052-.28c-.15-.533-.573-.95-1.107-1.095l-.26-.048-.026-.01h-.292v.01l-.147.023c-.37.076-.677.262-.914.555-.178.217-.29.466-.334.742l-.024.294v.104l.014.007z"/><path fill="#3591CF" d="M72.125 120.95c-.03-.13-.09-.243-.193-.332-.078-.07-.172-.114-.273-.14l-.29-.034h-1.705l-.053.054v.724l.02.018h1.54l.1.01c.063.018.103.054.112.136v.065l-.04.04h-.936l-.19.01-.256.067c-.138.063-.234.163-.293.302-.05.108-.067.224-.068.34v.68l.026.217c.028.114.078.214.163.295.074.07.164.116.26.146.118.037.24.05.36.05h.963l.17-.01c.092-.01.178-.034.26-.08.117-.068.203-.163.264-.28.066-.125.09-.26.09-.398v-1.615l-.032-.265zm-.744 1.685c0 .08-.042.132-.12.15l-.08.012h-.6c-.068.002-.12-.025-.17-.072l-.033-.076.002-.263.01-.063.083-.078.084-.012h.627l.078.012c.072.02.113.073.12.148v.24zm11.817-1.31l-.008-.16c-.015-.13-.048-.253-.105-.368-.06-.123-.13-.222-.217-.3-.09-.086-.2-.14-.318-.16l-.39-.027h-1.591c-.105.013-.122.09-.124.14v.137c.004.077.05.125.123.13l.056.004H82.257l.213.023.13.066c.06.05.106.116.144.2.03.074.047.158.05.26v.096h-1.397l-.105.004c-.117.004-.23.027-.334.068-.17.064-.3.176-.387.33-.048.08-.08.166-.097.26l-.033.303v.384l.01.21.064.255c.096.218.26.374.492.464.11.043.236.063.38.063h.92l.198-.02c.252-.05.443-.184.578-.397.05-.086.082-.168.094-.254l.02-.314v-1.396zm-.41 1.484c0 .087-.014.165-.043.24-.04.1-.105.167-.207.206l-.23.038H81.374c-.145 0-.27-.045-.387-.142l-.074-.077-.033-.07-.028-.18v-.56l.04-.2c.056-.15.16-.24.323-.276l.164-.02 1.407.003v1.036zm-4.043.896h1.106c.07-.01.117-.058.12-.132v-.125c0-.128-.075-.155-.142-.155h-1.053l-.178-.01-.127-.023c-.096-.033-.158-.07-.2-.123-.05-.058-.09-.128-.11-.208l-.033-.273-.002-.862.002-.432.004-.23.022-.13c.018-.07.05-.125.096-.166l.12-.07c.085-.035.185-.05.298-.05h1.159l.13-.02v-.26l-.02-.12-.1-.01-.056-.002h-.988l-.28.008-.235.042c-.143.046-.262.134-.373.263-.082.1-.14.213-.162.34l-.02.216v1.592c0 .102.014.207.047.31.052.19.16.347.32.46.09.064.18.105.27.124.117.03.244.044.384.044zm5.56-.17v-2.206l.007-.167.048-.188c.033-.076.084-.137.154-.178l.127-.05.2-.026H85.065l.107-.033v-.25l-.016-.112-.098-.012-.305.003-.244.038c-.16.04-.292.117-.392.228-.09.1-.15.216-.186.354-.03.114-.045.235-.045.37v2.23l.027.17h.234l.11-.04.045-.13zm3.82-4.252h-.126c-.094 0-.145.052-.143.138l-.002.893h-1.365c-.148 0-.268.016-.38.047-.15.045-.278.118-.378.223-.092.096-.158.21-.2.35-.038.123-.056.257-.056.398v1.404c0 .108.014.217.04.33.06.238.204.42.43.54l.188.066.322.033h.703l.225-.007c.12-.013.22-.032.307-.065.24-.088.41-.254.5-.496.05-.134.073-.284.073-.445v-3.272c0-.09-.052-.14-.14-.14zm-.27 3.405l-.028.224-.084.17-.05.05c-.09.072-.196.12-.33.145l-.23.016h-.642c-.107 0-.215-.016-.318-.05l-.094-.04c-.076-.037-.127-.095-.158-.18l-.033-.17v-.082l-.002-1.52.037-.2.07-.12.104-.104.146-.077.176-.027.207-.004h1.23v1.967zm-21.85-2.245h-.636l-.067.066v2.087l-.032.093c-.05.063-.113.104-.196.104h-.567c-.1 0-.162-.054-.187-.15l-.01-.123v-2.017l-.06-.06h-.658l-.063.064v2.258l.022.244c.025.12.08.23.16.323.1.12.223.205.378.238l.224.024h.964l.022.025v.16l-.045.108-.146.08-.08.006h-1.444l-.055.057v.714l.02.025h1.757l.155-.01c.134-.022.252-.075.353-.17.104-.097.17-.218.21-.353.034-.116.045-.236.045-.355v-3.375l-.063-.062zm2.294 3.15l.21-.017.196-.085c.14-.107.243-.24.307-.407l.036-.19v-.588l-.017-.147c-.042-.175-.14-.313-.282-.42-.114-.088-.246-.124-.39-.126h-.652l-.08-.002-.095-.023c-.05-.024-.078-.065-.08-.12v-.086l.076-.113.063-.02.108-.008h1.294l.054-.055v-.683l-.06-.06H67.46l-.096.003c-.1.006-.2.024-.292.063-.165.064-.28.18-.338.348-.03.086-.046.176-.046.265l-.002.628c.002.12.04.23.108.33l.13.138c.145.13.313.195.507.2h.672l.113.058c.048.07.04.145.026.223v.005l-.083.076-.122.02h-1.31l-.052.05v.697l.052.052 1.573-.004z"/></svg>