<svg xmlns="http://www.w3.org/2000/svg" width="140" height="140" viewBox="0 0 140 140"><path fill="#F3F3F3" d="M1 1h138v138H1z"/><path fill="#CDCCCC" d="M138 2v136H2V2h136m2-2H0v140h140V0z"/><path stroke="#CDCCCC" stroke-width="2" fill="none" d="M140 39.204H0m140-20.14H0m140 40.28H0m140 20.14H0m140 20.142H0m140 20.14H0"/><path d="M14.8 27.857c.254-.334.585-.593.994-.777.41-.185.85-.277 1.326-.277.605 0 1.128.17 1.567.51s.66.822.66 1.452c0 .618-.267 1.235-.8 1.85-.53.618-1.344 1.355-2.438 2.213h3.27v.742H14.8v-.67c1.37-1.066 2.333-1.89 2.886-2.467.553-.58.83-1.135.83-1.668 0-.4-.138-.704-.415-.91-.276-.206-.603-.31-.98-.31-.768 0-1.372.28-1.812.84l-.508-.528zm6.006 4.76l.513-.556c.458.594 1.07.89 1.835.89.453 0 .823-.137 1.11-.41s.433-.613.433-1.02c0-.434-.142-.782-.425-1.046s-.653-.396-1.108-.396c-.592 0-1.105.207-1.538.62l-.61-.21V26.9H25.1v.742h-3.253v2.315c.414-.414.934-.62 1.563-.62.59 0 1.09.193 1.502.58.412.388.617.912.617 1.572s-.226 1.192-.676 1.596c-.45.404-1.017.605-1.703.605-1.023 0-1.804-.36-2.344-1.072zm5.998.892c-.106-.107-.16-.236-.16-.39 0-.152.054-.282.16-.39s.236-.16.39-.16.286.053.392.16.16.238.16.39c0 .154-.054.283-.16.39s-.236.158-.39.158-.286-.053-.392-.16zM28.7 31.47c-.097-.394-.145-.803-.145-1.23s.048-.835.145-1.23c.097-.393.243-.76.438-1.096.195-.337.46-.607.793-.81.335-.2.72-.302 1.156-.302.43 0 .814.1 1.152.303.338.202.604.472.8.81.196.336.34.702.437 1.096s.143.804.143 1.23-.048.836-.143 1.23-.24.76-.437 1.1c-.196.34-.462.61-.8.814-.338.203-.722.305-1.152.305-.436 0-.82-.102-1.155-.305-.333-.204-.598-.475-.792-.815-.195-.34-.34-.706-.438-1.1zm.834-2.527c-.1.387-.15.82-.15 1.297s.05.91.15 1.298c.1.387.283.72.55.995.268.276.602.415 1.002.415s.734-.138 1-.415.45-.608.55-.995c.1-.387.15-.82.15-1.298s-.05-.91-.15-1.297c-.102-.387-.285-.717-.55-.99-.266-.274-.6-.41-1-.41s-.735.136-1.002.41c-.267.273-.45.603-.55.99zm5.284 2.527c-.097-.394-.145-.803-.145-1.23s.048-.835.145-1.23c.097-.393.243-.76.438-1.096.195-.337.46-.607.793-.81.333-.2.718-.302 1.154-.302.43 0 .814.1 1.152.303.338.202.604.472.8.81.196.336.34.702.437 1.096s.143.804.143 1.23-.048.836-.143 1.23-.24.76-.437 1.1c-.196.34-.462.61-.8.814-.338.203-.722.305-1.152.305-.436 0-.82-.102-1.155-.305-.335-.204-.6-.475-.794-.815-.195-.34-.34-.706-.438-1.1zm.834-2.527c-.1.387-.15.82-.15 1.297s.05.91.15 1.298c.1.387.283.72.55.995.268.276.602.415 1.002.415s.734-.138 1-.415.45-.608.55-.995c.1-.387.15-.82.15-1.298s-.05-.91-.15-1.297c-.102-.387-.285-.717-.55-.99-.266-.274-.6-.41-1-.41s-.735.136-1.002.41c-.267.273-.45.603-.55.99z"/><path d="M101.467 27.857c.254-.334.584-.593.993-.777.41-.185.85-.277 1.325-.277.605 0 1.13.17 1.568.51s.658.822.658 1.452c0 .618-.265 1.235-.797 1.85-.532.618-1.345 1.355-2.438 2.213h3.27v.742h-4.58v-.67c1.37-1.066 2.333-1.89 2.886-2.467.555-.58.83-1.135.83-1.668 0-.4-.137-.704-.413-.91-.277-.206-.604-.31-.982-.31-.768 0-1.37.28-1.81.84l-.508-.528zm5.668 4.034v-.697l2.857-4.292h1.143v4.25h.938v.74h-.938v1.68h-.83v-1.68h-3.17zm.83-.742h2.34V27.67l-2.34 3.478zm5.183 2.36c-.105-.105-.158-.234-.158-.387 0-.152.053-.282.158-.39s.236-.16.39-.16.286.053.392.16.158.238.158.39c0 .154-.053.283-.158.39s-.236.158-.39.158-.286-.053-.392-.16zm2.082-5.65c.254-.335.586-.594.994-.778.408-.185.85-.277 1.326-.277.605 0 1.127.17 1.566.51s.66.822.66 1.452c0 .618-.267 1.235-.8 1.85-.53.618-1.345 1.355-2.438 2.213h3.27v.742h-4.58v-.67c1.372-1.066 2.335-1.89 2.888-2.467.553-.58.83-1.135.83-1.668 0-.4-.14-.704-.416-.91-.276-.206-.604-.31-.98-.31-.77 0-1.373.28-1.813.84l-.507-.528zm6.006 4.76l.514-.557c.46.594 1.07.89 1.836.89.452 0 .822-.137 1.11-.41s.433-.613.433-1.02c0-.434-.144-.782-.427-1.046s-.652-.396-1.107-.396c-.593 0-1.105.207-1.54.62l-.608-.21V26.9h4.082v.742h-3.252v2.315c.413-.414.934-.62 1.563-.62.59 0 1.09.193 1.503.58.41.388.617.912.617 1.572s-.226 1.192-.676 1.596c-.45.404-1.017.605-1.702.605-1.023 0-1.805-.36-2.346-1.072z" fill="#2F8942"/><path d="M14.478 9.094l1.67-1.72h.732v6.67h-.83v-5.58l-1.074 1.143-.498-.513zm3.938 4.89c-.106-.106-.16-.235-.16-.388 0-.153.054-.283.16-.39s.236-.162.39-.162.286.054.392.16.16.24.16.392c0 .153-.054.282-.16.388s-.236.16-.39.16-.287-.054-.392-.16zm1.75-3.27c0-.972.23-1.79.694-2.448.463-.66 1.137-.99 2.024-.99.773 0 1.384.268 1.832.8l-.415.61c-.387-.444-.86-.667-1.416-.667-.606 0-1.073.255-1.4.767-.325.512-.488 1.13-.488 1.85v.258c.166-.273.425-.52.777-.737.352-.218.726-.327 1.12-.327.632 0 1.152.188 1.56.562.406.374.61.905.61 1.593 0 .6-.212 1.112-.638 1.54-.425.43-.986.643-1.684.643-.45 0-.845-.094-1.185-.28s-.607-.445-.803-.772c-.197-.327-.344-.69-.44-1.09s-.146-.84-.146-1.31zm.864.85c.04.495.195.93.47 1.3s.674.56 1.202.56c.48 0 .854-.146 1.125-.44s.406-.616.406-.97c0-.466-.144-.823-.43-1.07-.287-.247-.654-.37-1.1-.37-.327 0-.64.09-.942.275-.3.183-.544.42-.73.714zm4.86.8v-.697l2.855-4.292h1.143v4.248h.938v.742h-.938v1.68h-.83v-1.68h-3.17zm.83-.74h2.338V8.145l-2.34 3.477z"/><path d="M101.145 9.094l1.67-1.72h.732v6.67h-.83v-5.58l-1.074 1.143-.498-.513zm3.937 4.89c-.105-.106-.158-.235-.158-.388 0-.153.053-.283.158-.39s.236-.162.39-.162.286.054.392.16.158.24.158.392c0 .153-.053.282-.158.388s-.236.16-.39.16-.286-.054-.392-.16zm1.838-.92l.494-.52c.198.268.46.48.788.64.327.16.685.24 1.07.24.48 0 .86-.113 1.14-.34.28-.225.42-.53.42-.91 0-.4-.148-.697-.445-.89-.296-.195-.7-.292-1.215-.292-.395 0-.624.003-.69.01v-.762c.076.007.306.01.69.01.452 0 .824-.092 1.115-.275s.438-.457.438-.82c0-.355-.143-.633-.426-.836s-.64-.306-1.07-.306c-.673 0-1.26.27-1.757.81l-.46-.522c.56-.687 1.323-1.03 2.29-1.03.66 0 1.2.16 1.62.476s.632.75.632 1.295c0 .44-.148.792-.442 1.06s-.624.428-.99.487c.37.04.718.203 1.046.492.328.29.493.676.493 1.162 0 .566-.215 1.03-.645 1.387-.43.36-1.005.538-1.725.538-.533 0-1.007-.104-1.42-.313-.414-.21-.73-.472-.953-.792zm5.787-2.35c0-.972.23-1.79.693-2.448s1.137-.99 2.023-.99c.773 0 1.385.268 1.832.8l-.414.61c-.388-.444-.86-.667-1.417-.667-.605 0-1.072.255-1.398.767s-.488 1.13-.488 1.85v.258c.166-.273.425-.52.777-.737.352-.218.725-.327 1.12-.327.632 0 1.15.188 1.56.562.406.374.61.905.61 1.593 0 .6-.213 1.112-.638 1.54-.426.43-.986.643-1.685.643-.45 0-.846-.094-1.185-.28s-.606-.445-.804-.772c-.195-.327-.343-.69-.44-1.09s-.143-.84-.143-1.31zm.863.85c.04.495.195.93.47 1.3s.675.56 1.203.56c.48 0 .854-.146 1.125-.44s.405-.616.405-.97c0-.466-.143-.823-.43-1.07-.287-.247-.654-.37-1.1-.37-.326 0-.64.09-.942.275s-.543.42-.73.714z" fill="#2F8942"/><path d="M14.478 49.62l1.67-1.72h.732v6.67h-.83v-5.58l-1.074 1.142-.498-.513zm3.938 4.89c-.106-.107-.16-.236-.16-.39 0-.152.054-.282.16-.39s.236-.16.39-.16.286.053.392.16.16.238.16.39c0 .154-.054.283-.16.39s-.236.158-.39.158-.287-.053-.392-.16zm2.21-.892l.512-.557c.46.594 1.07.89 1.836.89.453 0 .823-.137 1.11-.41s.433-.613.433-1.02c0-.434-.142-.782-.425-1.046s-.653-.396-1.108-.396c-.592 0-1.105.207-1.538.62l-.61-.21V47.9h4.082v.742h-3.252v2.315c.414-.414.934-.62 1.563-.62.59 0 1.09.193 1.5.58.413.388.618.912.618 1.572s-.225 1.192-.675 1.596c-.45.404-1.017.605-1.703.605-1.024 0-1.805-.36-2.345-1.072zm5.77-4.76c.254-.335.585-.594.994-.778.41-.185.85-.277 1.326-.277.605 0 1.128.17 1.567.51s.66.822.66 1.452c0 .618-.267 1.235-.8 1.85-.53.618-1.344 1.355-2.438 2.213h3.27v.742h-4.58v-.67c1.372-1.066 2.334-1.89 2.887-2.467.553-.58.83-1.135.83-1.668 0-.4-.138-.704-.415-.91-.277-.206-.604-.31-.98-.31-.77 0-1.373.28-1.813.84l-.508-.528z"/><path d="M101.145 49.62l1.67-1.72h.732v6.67h-.83v-5.58l-1.074 1.142-.498-.513zm3.937 4.89c-.105-.107-.158-.236-.158-.39 0-.152.053-.282.158-.39s.236-.16.39-.16.286.053.392.16.158.238.158.39c0 .154-.053.283-.158.39s-.236.158-.39.158-.286-.053-.392-.16zm1.873-1.62v-.697l2.855-4.292h1.143v4.25h.938v.74h-.937v1.68h-.83v-1.68h-3.168zm.83-.742h2.338V48.67l-2.338 3.478zm4.945.734c0-.42.15-.783.452-1.09.3-.307.677-.528 1.126-.66-.424-.12-.774-.315-1.053-.584-.278-.27-.418-.606-.418-1.013 0-.56.227-.99.678-1.287s.982-.445 1.596-.445 1.147.148 1.603.445c.454.297.682.726.682 1.287 0 .407-.14.745-.423 1.015-.282.27-.634.464-1.058.58.45.134.824.355 1.126.662s.452.67.452 1.09c0 .547-.227.985-.68 1.315s-1.02.495-1.7.495-1.25-.164-1.702-.49c-.453-.327-.68-.767-.68-1.32zm.83-.093c0 .344.15.624.45.838.3.215.668.322 1.102.322.428 0 .793-.106 1.096-.32s.455-.493.455-.84c0-.268-.105-.502-.316-.703-.21-.202-.424-.345-.64-.43-.218-.084-.415-.137-.595-.156-.18.02-.377.073-.594.157-.217.085-.43.228-.64.43-.212.2-.317.435-.317.702zm.108-3.147c0 .186.055.354.162.505s.248.27.42.352c.174.083.326.147.46.195.134.047.268.08.4.1.135-.02.27-.053.407-.1l.465-.195c.172-.083.313-.2.42-.35s.162-.318.162-.506c0-.332-.14-.598-.416-.798-.277-.2-.623-.3-1.037-.3s-.757.1-1.03.295c-.275.197-.412.464-.412.803z" fill="#2F8942"/><path d="M14.927 73.618l.513-.557c.46.594 1.07.89 1.836.89.453 0 .823-.137 1.11-.41s.433-.613.433-1.02c0-.434-.143-.782-.426-1.046s-.653-.396-1.108-.396c-.592 0-1.105.207-1.538.62l-.61-.21V67.9h4.082v.742h-3.252v2.315c.414-.414.934-.62 1.563-.62.59 0 1.09.193 1.503.58.412.388.617.91.617 1.572s-.225 1.192-.675 1.596-1.017.605-1.703.605c-1.024 0-1.805-.36-2.345-1.072zm5.998.892c-.106-.106-.16-.235-.16-.39s.054-.282.16-.39.236-.16.39-.16.286.053.392.16.16.237.16.39-.054.283-.16.39c-.106.105-.236.158-.39.158s-.286-.053-.392-.158zm1.873-1.62v-.696l2.856-4.293h1.143v4.25h.938v.74h-.938v1.68h-.83v-1.68h-3.17zm.83-.742h2.34V68.67l-2.34 3.478zm5.077.325c-.097-.395-.145-.804-.145-1.23 0-.426.048-.836.145-1.23.097-.394.243-.76.438-1.097.195-.337.46-.607.793-.81.334-.2.72-.302 1.155-.302.43 0 .815.1 1.153.303.338.202.604.472.8.81.196.336.34.702.437 1.096s.143.804.143 1.23c0 .427-.048.836-.143 1.23-.095.394-.24.76-.437 1.1s-.462.61-.8.815c-.338.203-.722.305-1.152.305-.435 0-.82-.102-1.154-.305-.334-.204-.6-.476-.793-.815-.195-.34-.34-.707-.438-1.1zm.834-2.528c-.1.387-.15.82-.15 1.298 0 .478.05.91.15 1.297.1.388.282.72.55.995.267.277.6.415 1 .415s.735-.138 1-.415c.267-.276.45-.607.55-.995.102-.387.152-.82.152-1.297 0-.48-.05-.91-.15-1.298-.103-.387-.286-.717-.55-.99-.267-.274-.6-.41-1-.41s-.736.136-1.003.41c-.268.273-.452.603-.55.99z"/><path d="M101.256 72.89v-.696l2.857-4.293h1.143v4.25h.938v.74h-.938v1.68h-.83v-1.68h-3.17zm.83-.742h2.34V68.67l-2.34 3.478zm5.184 2.362c-.105-.106-.158-.235-.158-.39s.053-.282.158-.39.236-.16.39-.16.286.053.392.16.158.237.158.39-.053.283-.158.39c-.105.105-.236.158-.39.158s-.287-.053-.392-.158zm1.75-3.27c0-.973.232-1.79.694-2.45.463-.658 1.138-.988 2.024-.988.772 0 1.383.267 1.832.8l-.416.61c-.387-.445-.86-.668-1.416-.668-.607 0-1.073.256-1.4.768-.324.512-.488 1.13-.488 1.85v.26c.166-.274.426-.52.777-.738.353-.218.727-.327 1.12-.327.633 0 1.153.187 1.56.56.407.375.61.905.61 1.594 0 .6-.212 1.113-.638 1.542-.425.428-.987.642-1.685.642-.45 0-.846-.094-1.186-.28-.34-.188-.608-.445-.804-.77-.197-.33-.344-.692-.44-1.093s-.146-.838-.146-1.31zm.865.85c.04.495.195.93.47 1.3.272.374.675.56 1.202.56.48 0 .854-.145 1.125-.438s.406-.617.406-.972c0-.466-.145-.822-.43-1.07-.288-.246-.654-.37-1.102-.37-.326 0-.64.092-.94.276-.302.183-.546.42-.73.714zm5.188.383c-.097-.395-.146-.804-.146-1.23 0-.426.05-.836.146-1.23s.243-.76.438-1.097c.196-.337.46-.607.794-.81.335-.2.72-.302 1.155-.302.43 0 .812.1 1.15.303.338.202.605.472.8.81.196.336.343.702.438 1.096s.144.804.144 1.23c0 .427-.05.836-.144 1.23-.095.394-.24.76-.437 1.1s-.462.61-.8.815c-.338.203-.72.305-1.15.305-.437 0-.82-.102-1.156-.305-.334-.204-.598-.476-.793-.815s-.34-.707-.437-1.1zm.834-2.528c-.1.387-.15.82-.15 1.298 0 .478.052.91.15 1.297.1.388.283.72.55.995.268.277.602.415 1.003.415s.734-.138 1-.415c.266-.276.448-.607.55-.995.102-.387.152-.82.152-1.297 0-.48-.05-.91-.152-1.298-.102-.387-.284-.717-.55-.99-.266-.274-.6-.41-1-.41s-.735.136-1.003.41c-.267.273-.45.603-.55.99z" fill="#2F8942"/><path d="M14.478 88.37l1.67-1.72h.732v6.67h-.83v-5.58l-1.074 1.142-.498-.513zm3.938 4.89c-.106-.106-.16-.235-.16-.39s.054-.282.16-.39.236-.16.39-.16.286.053.392.16.16.237.16.39-.054.283-.16.39c-.106.105-.236.158-.39.158s-.287-.053-.392-.158zm1.75-3.27c0-.974.23-1.79.694-2.45.463-.657 1.137-.987 2.024-.987.773 0 1.384.267 1.832.8l-.415.61c-.387-.445-.86-.668-1.416-.668-.606 0-1.073.256-1.4.768-.325.512-.488 1.13-.488 1.85v.26c.166-.274.425-.52.777-.738.352-.218.726-.327 1.12-.327.632 0 1.152.187 1.56.56.406.375.61.905.61 1.594 0 .6-.212 1.112-.638 1.54-.425.43-.986.643-1.684.643-.45 0-.845-.094-1.185-.28-.34-.188-.607-.445-.803-.77-.197-.33-.344-.692-.44-1.093s-.146-.84-.146-1.312zm.864.85c.04.495.195.93.47 1.3.273.374.674.56 1.202.56.48 0 .854-.145 1.125-.438s.406-.617.406-.972c0-.466-.144-.822-.43-1.07-.287-.246-.654-.37-1.1-.37-.327 0-.64.092-.942.276-.3.183-.544.42-.73.714zm5.06.792c0-.42.15-.783.45-1.09.302-.308.678-.528 1.127-.66-.424-.122-.775-.315-1.053-.584s-.417-.606-.417-1.013c0-.56.226-.99.677-1.287s.983-.445 1.596-.445 1.146.148 1.6.445.683.727.683 1.287c0 .406-.14.745-.422 1.015-.28.27-.633.464-1.057.58.45.134.825.355 1.126.66.3.31.45.672.45 1.092 0 .547-.226.985-.678 1.315s-1.02.495-1.7.495c-.683 0-1.25-.163-1.702-.49-.455-.327-.68-.767-.68-1.32zm.83-.093c0 .344.15.624.45.838.3.215.666.322 1.1.322.427 0 .792-.106 1.095-.32.303-.212.455-.493.455-.84 0-.268-.105-.502-.315-.703-.21-.202-.424-.345-.64-.43-.218-.084-.416-.137-.595-.156-.18.02-.377.073-.594.157-.217.085-.43.228-.64.43-.212.2-.317.435-.317.702zm.106-3.147c0 .186.054.354.16.505.11.15.25.27.422.352l.46.194c.133.048.267.08.4.1.135-.02.27-.052.407-.1.137-.047.292-.11.465-.194s.313-.2.42-.35c.108-.15.162-.318.162-.507 0-.332-.14-.598-.416-.798-.277-.2-.623-.3-1.037-.3s-.76.1-1.033.295c-.274.197-.41.465-.41.803z"/><path d="M101.232 91.23v-.688h2.402v.688h-2.402zm2.91-2.86l1.67-1.72h.733v6.67h-.83v-5.58l-1.074 1.142-.497-.513zm3.938 4.89c-.105-.106-.158-.235-.158-.39s.053-.282.158-.39.236-.16.39-.16.286.053.392.16.158.237.158.39-.053.283-.158.39c-.105.105-.236.158-.39.158s-.286-.053-.392-.158zm1.75-3.27c0-.974.232-1.79.694-2.45.463-.657 1.138-.987 2.024-.987.772 0 1.383.267 1.832.8l-.416.61c-.387-.445-.86-.668-1.416-.668-.607 0-1.073.256-1.4.768-.324.512-.488 1.13-.488 1.85v.26c.166-.274.426-.52.777-.738.353-.218.727-.327 1.12-.327.633 0 1.153.187 1.56.56.407.375.61.905.61 1.594 0 .6-.212 1.112-.638 1.54-.425.43-.987.643-1.685.643-.45 0-.846-.094-1.186-.28-.34-.188-.608-.445-.804-.77-.197-.33-.344-.692-.44-1.093s-.146-.84-.146-1.312zm.865.85c.04.495.195.93.47 1.3.272.374.675.56 1.202.56.48 0 .854-.145 1.125-.438s.406-.617.406-.972c0-.466-.145-.822-.43-1.07-.288-.246-.654-.37-1.102-.37-.326 0-.64.092-.94.276-.3.183-.545.42-.73.714zm5.06.792c0-.42.15-.783.45-1.09.3-.308.677-.528 1.127-.66-.424-.122-.775-.315-1.054-.584s-.417-.606-.417-1.013c0-.56.226-.99.677-1.287s.984-.445 1.597-.445 1.146.148 1.6.445c.456.297.683.727.683 1.287 0 .406-.14.745-.422 1.015-.28.27-.635.464-1.06.58.45.134.827.355 1.128.66.3.31.45.672.45 1.092 0 .547-.226.985-.678 1.315s-1.02.495-1.7.495c-.683 0-1.25-.163-1.702-.49-.454-.327-.68-.767-.68-1.32zm.83-.093c0 .344.148.624.448.838.3.215.667.322 1.1.322.428 0 .793-.106 1.096-.32.303-.212.454-.493.454-.84 0-.268-.104-.502-.314-.703-.21-.202-.424-.345-.64-.43-.218-.084-.417-.137-.596-.156-.18.02-.378.073-.595.157-.218.085-.43.228-.642.43-.21.2-.314.435-.314.702zm.106-3.147c0 .186.054.354.16.505.11.15.25.27.423.352.172.083.326.147.46.194.133.048.267.08.4.1.134-.02.27-.052.405-.1.138-.047.293-.11.465-.194.174-.083.313-.2.42-.35.11-.15.162-.318.162-.507 0-.332-.14-.598-.415-.798-.277-.2-.623-.3-1.037-.3s-.76.1-1.032.295c-.272.197-.41.465-.41.803z" fill="#EF4136"/><path d="M14.478 108.12l1.67-1.72h.732v6.67h-.83v-5.58l-1.074 1.142-.498-.513zm3.938 4.89c-.106-.106-.16-.235-.16-.39s.054-.282.16-.39.236-.16.39-.16.286.053.392.16.16.237.16.39-.054.283-.16.39c-.106.105-.236.158-.39.158s-.287-.053-.392-.158zm1.75-3.27c0-.974.23-1.79.694-2.45.463-.657 1.137-.987 2.024-.987.773 0 1.384.267 1.832.8l-.415.61c-.387-.445-.86-.668-1.416-.668-.606 0-1.073.256-1.4.768-.325.512-.488 1.13-.488 1.85v.26c.166-.274.425-.52.777-.738.352-.218.726-.327 1.12-.327.632 0 1.152.187 1.56.56.406.375.61.905.61 1.594 0 .6-.212 1.112-.638 1.54-.425.43-.986.643-1.684.643-.45 0-.845-.094-1.185-.28-.34-.188-.607-.445-.803-.77-.197-.33-.344-.692-.44-1.093s-.146-.84-.146-1.312zm.864.85c.04.495.195.93.47 1.3.273.374.674.56 1.202.56.48 0 .854-.145 1.125-.438s.406-.617.406-.972c0-.466-.144-.822-.43-1.07-.287-.246-.654-.37-1.1-.37-.327 0-.64.092-.942.276-.3.183-.544.42-.73.714zm5.044-.85c0-.974.23-1.79.694-2.45.463-.657 1.137-.987 2.024-.987.773 0 1.384.267 1.832.8l-.415.61c-.39-.445-.86-.668-1.418-.668-.606 0-1.073.256-1.4.768-.325.512-.488 1.13-.488 1.85v.26c.166-.274.425-.52.777-.738.353-.218.727-.327 1.12-.327.633 0 1.153.187 1.56.56.407.375.61.905.61 1.594 0 .6-.21 1.112-.637 1.54-.425.43-.986.643-1.684.643-.452 0-.847-.094-1.187-.28-.34-.188-.607-.445-.803-.77-.197-.33-.344-.692-.44-1.093s-.146-.84-.146-1.312zm.864.85c.04.495.195.93.47 1.3.273.374.674.56 1.202.56.48 0 .854-.145 1.125-.438s.406-.617.406-.972c0-.466-.143-.822-.43-1.07-.286-.246-.653-.37-1.1-.37-.326 0-.64.092-.94.276-.302.183-.545.42-.732.714z"/><path d="M101.232 110.98v-.688h2.402v.688h-2.402zm2.91-2.86l1.67-1.72h.733v6.67h-.83v-5.58l-1.074 1.142-.497-.513zm3.938 4.89c-.105-.106-.158-.235-.158-.39s.053-.282.158-.39.236-.16.39-.16.286.053.392.16.158.237.158.39-.053.283-.158.39c-.105.105-.236.158-.39.158s-.286-.053-.392-.158zm1.75-3.27c0-.974.232-1.79.694-2.45.463-.657 1.138-.987 2.024-.987.772 0 1.383.267 1.832.8l-.416.61c-.387-.445-.86-.668-1.416-.668-.607 0-1.073.256-1.4.768-.324.512-.488 1.13-.488 1.85v.26c.166-.274.426-.52.777-.738.353-.218.727-.327 1.12-.327.633 0 1.153.187 1.56.56.407.375.61.905.61 1.594 0 .6-.212 1.112-.638 1.54-.425.43-.987.643-1.685.643-.45 0-.846-.094-1.186-.28-.34-.188-.608-.445-.804-.77-.197-.33-.344-.692-.44-1.093s-.146-.84-.146-1.312zm.865.85c.04.495.195.93.47 1.3.272.374.675.56 1.202.56.48 0 .854-.145 1.125-.438s.406-.617.406-.972c0-.466-.145-.822-.43-1.07-.288-.246-.654-.37-1.102-.37-.326 0-.64.092-.94.276-.3.183-.545.42-.73.714zm5.043-.85c0-.974.232-1.79.694-2.45.463-.657 1.138-.987 2.024-.987.772 0 1.383.267 1.832.8l-.416.61c-.387-.445-.86-.668-1.416-.668-.607 0-1.073.256-1.4.768-.324.512-.488 1.13-.488 1.85v.26c.166-.274.426-.52.777-.738.353-.218.727-.327 1.12-.327.633 0 1.153.187 1.56.56.407.375.61.905.61 1.594 0 .6-.212 1.112-.638 1.54-.424.43-.986.643-1.684.643-.45 0-.846-.094-1.186-.28-.34-.188-.607-.445-.803-.77-.197-.33-.344-.692-.44-1.093s-.146-.84-.146-1.312zm.866.85c.04.495.195.93.47 1.3.272.374.675.56 1.202.56.48 0 .854-.145 1.125-.438s.407-.617.407-.972c0-.466-.145-.822-.43-1.07-.288-.246-.654-.37-1.102-.37-.326 0-.64.092-.94.276-.302.183-.546.42-.73.714z" fill="#EF4136"/><path d="M14.8 126.857c.254-.334.585-.593.994-.777s.85-.277 1.326-.277c.605 0 1.128.17 1.567.51s.66.822.66 1.452c0 .618-.267 1.235-.8 1.852s-1.344 1.354-2.438 2.212h3.27v.74H14.8v-.668c1.37-1.066 2.333-1.89 2.886-2.47.553-.578.83-1.134.83-1.667 0-.4-.138-.703-.415-.91-.276-.206-.603-.31-.98-.31-.768 0-1.372.28-1.812.84l-.508-.528zm6.106 5.653c-.106-.106-.16-.235-.16-.39s.054-.282.16-.39.236-.16.39-.16.286.053.392.16.16.237.16.39-.054.283-.16.39c-.106.105-.236.158-.39.158s-.286-.053-.392-.158zm1.75-3.27c0-.974.23-1.79.694-2.45.463-.657 1.137-.987 2.024-.987.773 0 1.384.267 1.832.8l-.415.61c-.387-.445-.86-.668-1.416-.668-.606 0-1.073.256-1.4.768-.325.512-.488 1.13-.488 1.85v.26c.166-.274.425-.52.777-.738.352-.218.726-.327 1.12-.327.632 0 1.152.187 1.56.56.406.375.61.905.61 1.594 0 .6-.212 1.112-.638 1.54-.425.43-.986.643-1.684.643-.45 0-.845-.094-1.185-.28-.34-.188-.607-.445-.803-.77-.197-.33-.344-.692-.44-1.093s-.146-.84-.146-1.312zm.865.85c.04.495.196.93.47 1.3.274.374.675.56 1.203.56.48 0 .854-.145 1.125-.438s.406-.617.406-.972c0-.466-.144-.822-.43-1.07-.287-.246-.654-.37-1.1-.37-.327 0-.64.092-.942.276-.302.183-.545.42-.73.714zm5.025-2.12c0-.598.212-1.11.638-1.54.425-.428.99-.642 1.7-.642.443 0 .835.094 1.175.28.34.188.608.445.808.77.2.33.348.692.443 1.093s.143.838.143 1.31c0 .628-.093 1.193-.28 1.697-.187.502-.49.92-.908 1.25-.42.33-.927.495-1.524.495-.756 0-1.372-.267-1.846-.8l.415-.612c.387.446.864.67 1.43.67.428 0 .79-.134 1.082-.4.293-.267.5-.59.62-.97.122-.38.182-.796.182-1.252l-.01-.26c-.167.274-.423.52-.77.738-.347.218-.718.327-1.113.327-.63 0-1.154-.187-1.566-.56-.413-.374-.62-.904-.62-1.592zm.83-.03c0 .467.144.823.433 1.07s.66.37 1.113.37c.327 0 .642-.09.945-.275.303-.184.546-.425.73-.725-.02-.222-.065-.436-.135-.643-.07-.206-.17-.402-.296-.588-.127-.187-.3-.336-.516-.45s-.462-.17-.736-.17c-.473 0-.847.144-1.123.434s-.415.616-.415.977zm29.88-96.05v-.697l2.857-4.292h1.143v4.25h.938v.74h-.938v1.68h-.83v-1.68h-3.17zm.83-.742h2.34V27.67l-2.34 3.478zM65 28.97c0-.598.21-1.11.637-1.54.425-.428.99-.642 1.7-.642.443 0 .835.094 1.175.28s.608.445.808.772.348.69.443 1.09.144.838.144 1.31c0 .628-.093 1.194-.28 1.697-.187.503-.49.92-.908 1.25s-.928.496-1.525.496c-.757 0-1.373-.267-1.847-.8l.415-.612c.388.448.865.67 1.432.67.427 0 .788-.132 1.08-.4.294-.266.5-.59.622-.968s.18-.796.18-1.252l-.01-.26c-.166.274-.422.52-.77.738-.346.218-.717.327-1.112.327-.632 0-1.155-.187-1.567-.56-.413-.375-.62-.906-.62-1.594zm.83-.03c0 .467.143.823.432 1.07.29.248.66.37 1.113.37.326 0 .64-.09.944-.275s.545-.425.728-.725c-.02-.22-.064-.436-.134-.642-.07-.207-.17-.403-.296-.588-.127-.186-.3-.335-.516-.45-.217-.113-.462-.17-.736-.17-.473 0-.847.145-1.123.435-.277.29-.414.615-.414.976zm5.04 4.57c-.106-.107-.16-.236-.16-.39 0-.152.054-.282.16-.39s.235-.16.39-.16.285.053.392.16.16.238.16.39c0 .154-.054.283-.16.39s-.235.158-.39.158-.286-.053-.392-.16zm2.083-5.653c.254-.334.584-.593.993-.777.41-.185.85-.277 1.325-.277.606 0 1.13.17 1.57.51s.657.822.657 1.452c0 .618-.266 1.235-.798 1.85-.533.618-1.346 1.355-2.44 2.213h3.272v.742h-4.58v-.67c1.37-1.066 2.332-1.89 2.885-2.467.554-.58.83-1.135.83-1.668 0-.4-.138-.704-.414-.91-.277-.206-.604-.31-.982-.31-.767 0-1.37.28-1.81.84l-.507-.528zm6.006 4.76l.51-.556c.46.594 1.072.89 1.837.89.453 0 .823-.137 1.11-.41s.433-.613.433-1.02c0-.434-.14-.782-.424-1.046s-.653-.396-1.11-.396c-.59 0-1.103.207-1.536.62l-.61-.21V26.9h4.08v.742H80v2.315c.413-.414.934-.62 1.562-.62.59 0 1.09.193 1.502.58.412.388.617.912.617 1.572s-.224 1.192-.673 1.596c-.45.404-1.018.605-1.703.605-1.025 0-1.806-.36-2.345-1.072zM59.22 13.064l.493-.518c.2.267.46.48.79.64.326.16.684.24 1.07.24.48 0 .86-.114 1.14-.34s.42-.53.42-.91c0-.4-.15-.698-.445-.892s-.702-.29-1.216-.29c-.394 0-.624.002-.688.01v-.763c.075.007.304.01.688.01.453 0 .824-.092 1.116-.275s.437-.457.437-.82c0-.355-.142-.633-.425-.836s-.64-.306-1.07-.306c-.673 0-1.26.27-1.757.81l-.46-.522c.56-.687 1.324-1.03 2.29-1.03.662 0 1.202.16 1.622.476s.63.75.63 1.295c0 .44-.147.792-.442 1.06s-.624.428-.99.487c.37.04.717.203 1.046.492s.494.676.494 1.162c0 .566-.215 1.03-.645 1.387-.43.36-1.005.538-1.725.538-.534 0-1.007-.104-1.42-.313s-.732-.472-.953-.792zm6.038.92c-.106-.105-.16-.234-.16-.387s.054-.283.16-.39.236-.162.39-.162.286.054.392.16.16.24.16.392c0 .153-.054.282-.16.388s-.236.16-.39.16-.286-.054-.392-.16zm1.895-2.036c-.097-.394-.145-.803-.145-1.23s.048-.835.145-1.23c.097-.393.243-.76.438-1.096.195-.336.46-.606.793-.808.334-.202.72-.303 1.155-.303.43 0 .815.1 1.153.302.337.202.605.472.8.81.195.336.342.702.437 1.096s.144.804.144 1.23-.05.836-.144 1.23-.24.76-.437 1.1c-.195.34-.463.61-.8.814-.338.203-.722.305-1.152.305-.435 0-.82-.102-1.154-.305-.334-.204-.6-.475-.793-.815-.195-.34-.34-.707-.438-1.1zm.834-2.527c-.1.387-.15.82-.15 1.297s.05.91.15 1.298c.1.387.282.72.55.995.267.276.6.415 1 .415s.735-.138 1-.415.45-.608.55-.995c.103-.387.153-.82.153-1.298s-.05-.91-.152-1.297c-.1-.387-.283-.717-.55-.99-.265-.274-.598-.41-1-.41s-.734.136-1 .41c-.268.273-.45.603-.55.99zm5.283 2.527c-.097-.394-.145-.803-.145-1.23s.048-.835.145-1.23c.098-.393.243-.76.438-1.096.195-.336.46-.606.795-.808.334-.202.72-.303 1.154-.303.43 0 .813.1 1.15.302.34.202.605.472.8.81.197.336.342.702.438 1.096s.143.804.143 1.23-.046.836-.142 1.23-.24.76-.437 1.1c-.195.34-.46.61-.8.814-.337.203-.722.305-1.15.305-.437 0-.82-.102-1.155-.305-.334-.204-.6-.475-.794-.815-.193-.34-.34-.707-.437-1.1zm.834-2.527c-.1.387-.148.82-.148 1.297s.048.91.147 1.298c.1.387.283.72.55.995s.603.415 1.003.415.734-.138 1-.415.45-.608.55-.995c.1-.387.15-.82.15-1.298s-.05-.91-.15-1.297c-.1-.387-.284-.717-.55-.99-.266-.274-.6-.41-1-.41s-.734.136-1.002.41c-.267.273-.45.603-.55.99zM59.222 53.59l.493-.52c.2.268.46.48.79.64.326.16.684.24 1.07.24.48 0 .86-.113 1.14-.34s.42-.53.42-.91c0-.4-.15-.697-.445-.89s-.702-.292-1.216-.292c-.394 0-.624.003-.688.01v-.762c.075.007.304.01.688.01.453 0 .824-.092 1.116-.275s.437-.456.437-.82c0-.354-.142-.632-.425-.835s-.64-.305-1.07-.305c-.673 0-1.26.27-1.757.81l-.46-.522c.56-.687 1.324-1.03 2.29-1.03.662 0 1.202.16 1.622.476s.63.75.63 1.295c0 .438-.147.79-.442 1.058s-.624.43-.99.488c.37.04.717.203 1.046.492s.494.676.494 1.162c0 .566-.215 1.03-.645 1.387-.43.358-1.005.537-1.725.537-.534 0-1.007-.104-1.42-.313s-.732-.472-.953-.79zm6.038.92c-.106-.107-.16-.236-.16-.39 0-.152.054-.282.16-.39s.236-.16.39-.16.286.053.392.16.16.238.16.39c0 .154-.054.283-.16.39s-.236.158-.39.158-.286-.053-.392-.16zm1.895-2.038c-.097-.394-.145-.803-.145-1.23s.048-.835.145-1.23c.097-.393.243-.76.438-1.096.195-.337.46-.607.793-.81.334-.2.72-.302 1.155-.302.43 0 .815.1 1.153.303.337.202.605.472.8.81.195.336.342.702.437 1.096s.144.804.144 1.23-.05.836-.144 1.23-.24.76-.437 1.1c-.195.34-.463.61-.8.814-.338.203-.722.305-1.152.305-.435 0-.82-.102-1.154-.305-.334-.204-.6-.475-.793-.815-.195-.34-.34-.706-.438-1.1zm.834-2.527c-.1.387-.15.82-.15 1.297s.05.91.15 1.298c.1.387.282.72.55.995.267.276.6.415 1 .415s.735-.138 1-.415.45-.608.55-.995c.103-.387.153-.82.153-1.298s-.05-.91-.152-1.297c-.1-.387-.283-.717-.55-.99-.265-.274-.598-.41-1-.41s-.734.136-1 .41c-.268.273-.45.603-.55.99zm5.283 2.527c-.097-.394-.145-.803-.145-1.23s.048-.835.145-1.23c.098-.393.243-.76.438-1.096.195-.337.46-.607.795-.81.334-.2.72-.302 1.154-.302.43 0 .813.1 1.15.303.34.202.605.472.8.81.197.336.342.702.438 1.096s.143.804.143 1.23-.046.836-.142 1.23-.24.76-.437 1.1c-.195.34-.46.61-.8.814-.337.203-.722.305-1.15.305-.437 0-.82-.102-1.155-.305-.334-.204-.6-.475-.794-.815-.193-.34-.34-.706-.437-1.1zm.834-2.527c-.1.387-.148.82-.148 1.297s.048.91.147 1.298c.1.387.283.72.55.995s.603.415 1.003.415.734-.138 1-.415.45-.608.55-.995c.1-.387.15-.82.15-1.298s-.05-.91-.15-1.297c-.1-.387-.284-.717-.55-.99-.266-.274-.6-.41-1-.41s-.734.136-1.002.41c-.267.273-.45.603-.55.99zM59.144 69.62l1.67-1.72h.732v6.67h-.83v-5.58l-1.074 1.142-.498-.513zm3.832 2.853c-.097-.395-.145-.804-.145-1.23 0-.426.05-.836.146-1.23.097-.394.243-.76.438-1.097.195-.337.46-.607.793-.81.334-.2.72-.302 1.155-.302.43 0 .814.1 1.152.303.338.202.604.472.8.81.196.336.34.702.437 1.096s.144.804.144 1.23c0 .427-.048.836-.143 1.23-.094.394-.24.76-.436 1.1s-.462.61-.8.815c-.338.203-.722.305-1.152.305-.436 0-.82-.102-1.155-.305-.334-.204-.6-.476-.793-.815-.195-.34-.34-.707-.438-1.1zm.834-2.528c-.1.387-.15.82-.15 1.298 0 .478.05.91.15 1.297.1.388.283.72.55.995.268.277.602.415 1.002.415s.734-.138 1-.415c.266-.276.45-.607.55-.995.1-.387.15-.82.15-1.297 0-.48-.05-.91-.15-1.298-.102-.387-.285-.717-.55-.99-.266-.274-.6-.41-1-.41s-.735.136-1.002.41c-.267.273-.45.603-.55.99zm5.083 4.565c-.106-.106-.16-.235-.16-.39s.054-.282.16-.39.236-.16.39-.16.286.053.392.16.16.237.16.39-.054.283-.16.39c-.106.105-.236.158-.39.158s-.286-.053-.392-.158zm1.895-2.037c-.097-.395-.145-.804-.145-1.23 0-.426.048-.836.145-1.23.097-.394.243-.76.438-1.097.195-.337.46-.607.793-.81.334-.2.72-.302 1.154-.302.43 0 .813.1 1.15.303.34.202.606.472.802.81.195.336.342.702.437 1.096s.144.804.144 1.23c0 .427-.05.836-.144 1.23-.095.394-.24.76-.437 1.1s-.463.61-.8.815c-.34.203-.722.305-1.152.305-.436 0-.82-.102-1.155-.305-.335-.204-.6-.476-.794-.815s-.34-.707-.438-1.1zm.834-2.528c-.1.387-.15.82-.15 1.298 0 .478.052.91.15 1.297.1.388.283.72.55.995.268.277.602.415 1.003.415s.734-.138 1-.415c.266-.276.448-.607.55-.995.102-.387.152-.82.152-1.297 0-.48-.05-.91-.152-1.298-.102-.387-.284-.717-.55-.99-.266-.274-.6-.41-1-.41s-.735.136-1.003.41c-.267.273-.45.603-.55.99zm5.284 2.528c-.097-.395-.145-.804-.145-1.23 0-.426.05-.836.146-1.23.098-.394.243-.76.438-1.097.194-.337.46-.607.794-.81.334-.2.72-.302 1.154-.302.43 0 .814.1 1.152.303.338.202.604.472.8.81.196.336.34.702.437 1.096s.144.804.144 1.23c0 .427-.047.836-.143 1.23-.095.394-.24.76-.436 1.1s-.462.61-.8.815c-.338.203-.723.305-1.152.305-.436 0-.82-.102-1.154-.305-.334-.204-.6-.476-.794-.815-.195-.34-.34-.707-.438-1.1zm.834-2.528c-.1.387-.148.82-.148 1.298 0 .478.05.91.148 1.297.1.388.283.72.55.995.27.277.603.415 1.003.415s.734-.138 1-.415c.266-.276.45-.607.55-.995.1-.387.15-.82.15-1.297 0-.48-.05-.91-.15-1.298-.1-.387-.284-.717-.55-.99-.266-.274-.6-.41-1-.41s-.734.136-1.002.41c-.267.273-.45.603-.55.99zM59.587 91.223c-.097-.395-.145-.804-.145-1.23 0-.426.048-.836.145-1.23.097-.394.243-.76.438-1.097.195-.337.46-.607.793-.81.334-.2.72-.303 1.155-.303.43 0 .814.102 1.152.303.338.202.604.473.8.81s.34.703.437 1.097c.095.395.143.805.143 1.23 0 .427-.048.836-.143 1.23-.095.394-.24.76-.437 1.1s-.462.61-.8.815c-.338.203-.722.305-1.152.305-.436 0-.82-.102-1.155-.305-.334-.204-.6-.476-.793-.815-.195-.34-.34-.707-.438-1.1zm.834-2.528c-.098.387-.148.82-.148 1.298 0 .478.05.91.15 1.297.1.388.282.72.55.995.267.277.6.415 1 .415s.735-.138 1-.415c.267-.276.45-.607.55-.995.102-.387.152-.82.152-1.297 0-.48-.05-.91-.15-1.298-.103-.388-.286-.718-.55-.99-.267-.273-.6-.41-1-.41s-.736.137-1.003.41c-.266.273-.45.603-.55.99zm5.084 4.565c-.106-.106-.16-.235-.16-.39s.054-.282.16-.39.236-.16.39-.16.286.053.392.16.16.237.16.39-.054.283-.16.39c-.106.105-.236.158-.39.158s-.286-.053-.392-.158zm1.895-2.037c-.098-.395-.146-.804-.146-1.23 0-.426.048-.836.145-1.23.096-.394.242-.76.437-1.097.195-.337.46-.607.793-.81.334-.2.72-.303 1.155-.303.43 0 .814.102 1.152.303.337.202.605.473.8.81s.342.703.437 1.097c.095.395.144.805.144 1.23 0 .427-.05.836-.144 1.23-.095.394-.24.76-.437 1.1s-.463.61-.8.815c-.338.203-.722.305-1.152.305-.436 0-.82-.102-1.155-.305-.334-.204-.6-.476-.793-.815-.194-.34-.34-.707-.438-1.1zm.833-2.528c-.1.387-.15.82-.15 1.298 0 .478.05.91.15 1.297.1.388.283.72.55.995.268.277.602.415 1.002.415s.734-.138 1-.415c.266-.276.448-.607.55-.995.102-.387.152-.82.152-1.297 0-.48-.05-.91-.152-1.298s-.284-.718-.55-.99c-.266-.273-.6-.41-1-.41s-.735.137-1.002.41c-.266.273-.45.603-.55.99zm5.285 2.528c-.097-.395-.145-.804-.145-1.23 0-.426.048-.836.145-1.23.098-.394.243-.76.438-1.097.194-.337.46-.607.794-.81.334-.2.72-.303 1.154-.303.43 0 .814.102 1.152.303.338.202.604.473.8.81s.34.703.437 1.097c.096.395.143.805.143 1.23 0 .427-.047.836-.143 1.23-.096.394-.24.76-.437 1.1s-.462.61-.8.815c-.338.203-.723.305-1.152.305-.436 0-.82-.102-1.154-.305-.334-.204-.6-.476-.794-.815-.195-.34-.34-.707-.438-1.1zm.834-2.528c-.1.387-.148.82-.148 1.298 0 .478.05.91.148 1.297.1.388.283.72.55.995.27.277.603.415 1.003.415s.734-.138 1-.415c.266-.276.45-.607.55-.995.1-.387.15-.82.15-1.297 0-.48-.05-.91-.15-1.298-.1-.388-.284-.718-.55-.99-.266-.273-.6-.41-1-.41s-.734.137-1.002.41c-.268.273-.452.603-.55.99zm-14.765 22.278c-.097-.395-.145-.804-.145-1.23 0-.426.048-.836.145-1.23.097-.394.243-.76.438-1.097.195-.337.46-.607.793-.81.334-.2.72-.303 1.155-.303.43 0 .814.102 1.152.303.338.202.604.473.8.81s.34.703.437 1.097c.095.395.143.805.143 1.23 0 .427-.048.836-.143 1.23-.095.394-.24.76-.437 1.1s-.462.61-.8.815c-.338.203-.722.305-1.152.305-.436 0-.82-.102-1.155-.305-.334-.204-.6-.476-.793-.815-.195-.34-.34-.707-.438-1.1zm.834-2.528c-.098.387-.148.82-.148 1.298 0 .478.05.91.15 1.297.1.388.282.72.55.995.267.277.6.415 1 .415s.735-.138 1-.415c.267-.276.45-.607.55-.995.102-.387.152-.82.152-1.297 0-.48-.05-.91-.15-1.298-.103-.388-.286-.718-.55-.99-.267-.273-.6-.41-1-.41s-.736.137-1.003.41c-.266.273-.45.603-.55.99zm5.084 4.565c-.106-.106-.16-.235-.16-.39s.054-.282.16-.39.236-.16.39-.16.286.053.392.16.16.237.16.39-.054.283-.16.39c-.106.105-.236.158-.39.158s-.286-.053-.392-.158zm1.895-2.037c-.098-.395-.146-.804-.146-1.23 0-.426.048-.836.145-1.23.096-.394.242-.76.437-1.097.195-.337.46-.607.793-.81.334-.2.72-.303 1.155-.303.43 0 .814.102 1.152.303.337.202.605.473.8.81s.342.703.437 1.097c.095.395.144.805.144 1.23 0 .427-.05.836-.144 1.23-.095.394-.24.76-.437 1.1s-.463.61-.8.815c-.338.203-.722.305-1.152.305-.436 0-.82-.102-1.155-.305-.334-.204-.6-.476-.793-.815-.194-.34-.34-.707-.438-1.1zm.833-2.528c-.1.387-.15.82-.15 1.298 0 .478.05.91.15 1.297.1.388.283.72.55.995.268.277.602.415 1.002.415s.734-.138 1-.415c.266-.276.448-.607.55-.995.102-.387.152-.82.152-1.297 0-.48-.05-.91-.152-1.298s-.284-.718-.55-.99c-.266-.273-.6-.41-1-.41s-.735.137-1.002.41c-.266.273-.45.603-.55.99zm5.285 2.528c-.097-.395-.145-.804-.145-1.23 0-.426.048-.836.145-1.23.098-.394.243-.76.438-1.097.194-.337.46-.607.794-.81.334-.2.72-.303 1.154-.303.43 0 .814.102 1.152.303.338.202.604.473.8.81s.34.703.437 1.097c.096.395.143.805.143 1.23 0 .427-.047.836-.143 1.23-.096.394-.24.76-.437 1.1s-.462.61-.8.815c-.338.203-.723.305-1.152.305-.436 0-.82-.102-1.154-.305-.334-.204-.6-.476-.794-.815-.195-.34-.34-.707-.438-1.1zm.834-2.528c-.1.387-.148.82-.148 1.298 0 .478.05.91.148 1.297.1.388.283.72.55.995.27.277.603.415 1.003.415s.734-.138 1-.415c.266-.276.45-.607.55-.995.1-.387.15-.82.15-1.297 0-.48-.05-.91-.15-1.298-.1-.388-.284-.718-.55-.99-.266-.273-.6-.41-1-.41s-.734.137-1.002.41c-.268.273-.452.603-.55.99zm-14.765 22.028c-.097-.395-.145-.804-.145-1.23 0-.426.048-.836.145-1.23.097-.394.243-.76.438-1.097.195-.337.46-.607.793-.81.334-.2.72-.303 1.155-.303.43 0 .814.102 1.152.303.338.202.604.473.8.81s.34.703.437 1.097c.095.395.143.805.143 1.23 0 .427-.048.836-.143 1.23-.095.394-.24.76-.437 1.1s-.462.61-.8.815c-.338.203-.722.305-1.152.305-.436 0-.82-.102-1.155-.305-.334-.204-.6-.476-.793-.815-.195-.34-.34-.707-.438-1.1zm.834-2.528c-.098.387-.148.82-.148 1.298 0 .478.05.91.15 1.297.1.388.282.72.55.995.267.277.6.415 1 .415s.735-.138 1-.415c.267-.276.45-.607.55-.995.102-.387.152-.82.152-1.297 0-.48-.05-.91-.15-1.298-.103-.388-.286-.718-.55-.99-.267-.273-.6-.41-1-.41s-.736.137-1.003.41c-.266.273-.45.603-.55.99zm5.084 4.565c-.106-.106-.16-.235-.16-.39s.054-.282.16-.39.236-.16.39-.16.286.053.392.16.16.237.16.39-.054.283-.16.39c-.106.105-.236.158-.39.158s-.286-.053-.392-.158zm1.895-2.037c-.098-.395-.146-.804-.146-1.23 0-.426.048-.836.145-1.23.096-.394.242-.76.437-1.097.195-.337.46-.607.793-.81.334-.2.72-.303 1.155-.303.43 0 .814.102 1.152.303.337.202.605.473.8.81s.342.703.437 1.097c.095.395.144.805.144 1.23 0 .427-.05.836-.144 1.23-.095.394-.24.76-.437 1.1s-.463.61-.8.815c-.338.203-.722.305-1.152.305-.436 0-.82-.102-1.155-.305-.334-.204-.6-.476-.793-.815-.194-.34-.34-.707-.438-1.1zm.833-2.528c-.1.387-.15.82-.15 1.298 0 .478.05.91.15 1.297.1.388.283.72.55.995.268.277.602.415 1.002.415s.734-.138 1-.415c.266-.276.448-.607.55-.995.102-.387.152-.82.152-1.297 0-.48-.05-.91-.152-1.298s-.284-.718-.55-.99c-.266-.273-.6-.41-1-.41s-.735.137-1.002.41c-.266.273-.45.603-.55.99zm5.285 2.528c-.097-.395-.145-.804-.145-1.23 0-.426.048-.836.145-1.23.098-.394.243-.76.438-1.097.194-.337.46-.607.794-.81.334-.2.72-.303 1.154-.303.43 0 .814.102 1.152.303.338.202.604.473.8.81s.34.703.437 1.097c.096.395.143.805.143 1.23 0 .427-.047.836-.143 1.23-.096.394-.24.76-.437 1.1s-.462.61-.8.815c-.338.203-.723.305-1.152.305-.436 0-.82-.102-1.154-.305-.334-.204-.6-.476-.794-.815-.195-.34-.34-.707-.438-1.1zm.834-2.528c-.1.387-.148.82-.148 1.298 0 .478.05.91.148 1.297.1.388.283.72.55.995.27.277.603.415 1.003.415s.734-.138 1-.415c.266-.276.45-.607.55-.995.1-.387.15-.82.15-1.297 0-.48-.05-.91-.15-1.298-.1-.388-.284-.718-.55-.99-.266-.273-.6-.41-1-.41s-.734.137-1.002.41c-.268.273-.452.603-.55.99z"/><path d="M101.232 130.48v-.688h2.402v.688h-2.402zm3.233-3.623c.254-.334.584-.593.993-.777s.85-.277 1.325-.277c.605 0 1.13.17 1.568.51s.66.822.66 1.452c0 .618-.267 1.235-.8 1.852s-1.344 1.354-2.437 2.212h3.27v.74h-4.58v-.668c1.37-1.066 2.333-1.89 2.886-2.47.553-.578.83-1.134.83-1.667 0-.4-.14-.703-.415-.91-.277-.206-.604-.31-.982-.31-.768 0-1.37.28-1.81.84l-.508-.528zm6.105 5.653c-.105-.106-.158-.235-.158-.39s.053-.282.158-.39.236-.16.39-.16.286.053.392.16.158.237.158.39-.053.283-.158.39c-.105.105-.236.158-.39.158s-.286-.053-.392-.158zm1.75-3.27c0-.974.232-1.79.694-2.45.463-.657 1.138-.987 2.024-.987.772 0 1.383.267 1.832.8l-.416.61c-.387-.445-.86-.668-1.416-.668-.607 0-1.073.256-1.4.768-.324.512-.488 1.13-.488 1.85v.26c.166-.274.426-.52.777-.738.353-.218.727-.327 1.12-.327.633 0 1.153.187 1.56.56.407.375.61.905.61 1.594 0 .6-.212 1.112-.638 1.54-.425.43-.987.643-1.685.643-.45 0-.846-.094-1.186-.28-.34-.188-.608-.445-.804-.77-.197-.33-.344-.692-.44-1.093s-.146-.84-.146-1.312zm.866.85c.04.495.195.93.47 1.3.272.374.675.56 1.202.56.48 0 .854-.145 1.125-.438s.406-.617.406-.972c0-.466-.146-.822-.432-1.07-.287-.246-.653-.37-1.1-.37-.327 0-.64.092-.942.276-.3.183-.545.42-.73.714zm5.023-2.12c0-.598.212-1.11.638-1.54.424-.428.99-.642 1.698-.642.444 0 .837.094 1.176.28.34.188.608.445.808.77.2.33.348.692.443 1.093s.145.838.145 1.31c0 .628-.094 1.193-.28 1.697-.187.502-.49.92-.91 1.25-.417.33-.925.495-1.522.495-.758 0-1.373-.267-1.848-.8l.416-.612c.387.446.864.67 1.432.67.427 0 .787-.134 1.08-.4s.5-.59.62-.97c.122-.38.183-.796.183-1.252l-.01-.26c-.168.274-.425.52-.772.738-.347.218-.718.327-1.112.327-.633 0-1.155-.187-1.567-.56-.414-.374-.62-.904-.62-1.592zm.83-.03c0 .467.144.823.433 1.07.288.247.66.37 1.112.37.325 0 .64-.09.944-.275.302-.184.544-.425.728-.725-.02-.222-.064-.436-.135-.643-.07-.206-.17-.402-.296-.588-.128-.187-.3-.336-.517-.45s-.46-.17-.735-.17c-.473 0-.847.144-1.122.434s-.414.616-.414.977z" fill="#EF4136"/></svg>