<svg xmlns="http://www.w3.org/2000/svg" viewBox="0 0 400 115"><path fill="#fff" d="M8.904 89.365c-3.314 0-6.223-2.724-6.223-5.824L1.15 30.345c0-3.247 2.61-5.858 5.824-5.858l.085.003 31.563 2.28c3.196.023 5.782 2.627 5.782 5.823l.863 48.358c0 3.226-2.246 5.51-5.715 5.84L8.95 89.366h-.046zm2.363-51.587c-1.41.017-2.55 1.17-2.55 2.584l.474 31.29c0 1.424 1.136 2.575 2.54 2.598l21.78-1.812c1.696-.162 2.678-1.1 2.678-2.585l-.19-28.15c0-1.43-1.16-2.588-2.587-2.588h-.062l-22.08-1.337z"/><path fill="#414142" d="M6.974 25.633l31.607 2.285c2.58 0 4.676 2.096 4.676 4.674l.865 48.38c0 2.576-1.755 4.396-4.674 4.672L8.904 88.217c-2.58 0-5.076-2.098-5.076-4.676l-1.53-53.23c0-2.577 2.098-4.677 4.676-4.677m4.798 49.765l21.833-1.814c2.33-.223 3.73-1.67 3.73-3.73L37.14 41.7c0-2.06-1.67-3.733-3.733-3.733L11.296 36.63c-2.058 0-3.73 1.674-3.73 3.733l.475 31.307c0 2.057 1.673 3.728 3.73 3.728M7.06 23.336h-.086C3.128 23.336 0 26.468 0 30.31v.034l.003.034 1.53 53.2c.022 3.767 3.387 6.94 7.37 6.94H9l.1-.012 30.537-2.567c4.066-.388 6.78-3.187 6.78-6.967V80.93l-.864-48.36c-.007-3.804-3.08-6.898-6.878-6.95l-31.54-2.277-.075-.007zm2.803 17.01c.007-.765.62-1.39 1.383-1.42l22.03 1.335.072.002h.063c.794 0 1.44.645 1.44 1.437l.19 28.167c0 .337 0 1.272-1.65 1.43L11.7 73.1c-.756-.04-1.36-.664-1.36-1.43v-.036l-.477-31.288z"/><path fill="#fff" d="M28.608 103.357c-4.244 0-7.694-3.452-7.694-7.696l-1.65-76.344c0-4.27 3.45-7.722 7.693-7.722h.056L61.76 15.24c4.2.034 7.615 3.454 7.636 7.656L74.042 91.4v.04c0 4.23-2.975 7.25-7.586 7.69l-37.785 4.227h-.062zm3.256-73.667c-2.23.027-4.028 1.846-4.028 4.075l.79 44.028c0 2.253 1.803 4.07 4.033 4.094l28.597-2.362c2.606-.25 4.172-1.774 4.172-4.08l-1.94-39.037c0-2.306-1.83-4.134-4.078-4.134h-.054L31.864 29.69z"/><path fill="#414142" d="M26.957 12.744L61.7 16.39c3.61 0 6.545 2.94 6.545 6.548l4.65 68.502c0 3.61-2.453 6.157-6.545 6.55l-37.74 4.22c-3.61 0-6.546-2.938-6.546-6.548L20.41 19.294c-.002-3.614 2.935-6.55 6.547-6.55m5.745 70.295l28.647-2.374c3.265-.307 5.227-2.342 5.227-5.223l-1.94-39.092c0-2.878-2.342-5.226-5.225-5.226l-27.5-2.585c-2.88 0-5.224 2.346-5.224 5.225l.79 44.047c0 2.883 2.34 5.227 5.224 5.227m-5.624-72.592h-.12c-4.877 0-8.848 3.965-8.848 8.845v.047l1.653 76.345c.014 4.87 3.98 8.822 8.845 8.822h.127l.127-.016 37.72-4.218c5.233-.506 8.612-3.973 8.612-8.834v-.078l-.003-.078-4.647-68.428c-.042-4.797-3.923-8.692-8.716-8.762l-34.63-3.635-.12-.01zm1.905 23.3c.01-1.576 1.27-2.86 2.833-2.91L59.2 33.41l.105.01h.106c1.616 0 2.93 1.316 2.93 2.93v.113l1.94 39.032c-.028 2.14-1.72 2.75-3.145 2.887l-28.516 2.36c-1.577-.044-2.845-1.34-2.845-2.93v-.04l-.792-44.025z"/><path fill="#fff" d="M52.7 113.697c-5.073 0-9.195-4.123-9.195-9.19l-2.486-93.98c-.004-5.1 4.12-9.222 9.186-9.222h.075l39.83 5.17c5.02.04 9.094 4.124 9.116 9.148l5.553 81.856v.04c0 5.04-3.55 8.642-9.046 9.18l-42.942 6.998H52.7zm3.883-90.246c-2.884.025-5.23 2.377-5.23 5.27l1.988 54.59c.005 2.925 2.336 5.275 5.21 5.31l31.745-3.44c3.363-.324 5.372-2.28 5.39-5.243l-2.777-48.73v-.032c0-2.902-2.366-5.267-5.27-5.267h-.046l-31.01-2.457z"/><path fill="#414142" d="M50.206 2.453L90.03 7.62c4.435 0 8.044 3.608 8.044 8.043l5.555 81.857c0 4.433-3.016 7.563-8.045 8.04L52.7 112.55c-4.434 0-8.046-3.608-8.046-8.042l-2.486-94.015c0-4.434 3.604-8.04 8.038-8.04m8.402 87.313l31.805-3.445c4.01-.38 6.418-2.877 6.418-6.42l-2.775-48.727c0-3.54-2.88-6.417-6.418-6.417l-31.013-2.453c-3.538 0-6.418 2.878-6.418 6.415l1.99 54.63c0 3.538 2.876 6.418 6.412 6.418M50.354.154h-.148c-5.702 0-10.336 4.64-10.336 10.34v.06l2.486 93.986c.016 5.686 4.648 10.305 10.343 10.305h.184l.185-.03 42.812-6.976c6.106-.612 10.045-4.656 10.045-10.32v-.08l-.007-.077-5.546-81.784c-.044-5.61-4.58-10.173-10.185-10.254L50.503.173l-.15-.02zm2.15 28.53c.02-2.228 1.82-4.04 4.038-4.084l30.91 2.446.092.007h.093c2.273 0 4.118 1.847 4.118 4.12v.065l.003.066 2.778 48.658c-.035 3.185-2.73 3.918-4.342 4.07h-.016l-.014.003-31.663 3.43c-2.224-.058-4.01-1.88-4.01-4.115v-.087l-1.986-54.58z"/><g fill="#231F20"><path d="M129.94 36.84h18.326c8.313 0 12.822 4.625 12.822 12.353 0 7.73-4.51 12.412-12.822 12.355H135.5v17.096h-5.56V36.84zm5.56 20.023h10.893c6.265.06 9.135-2.694 9.135-7.67 0-4.978-2.87-7.672-9.135-7.672H135.5v15.343zM166.78 36.84h4.977v15.984h.117c1.64-3.63 5.914-5.153 9.544-5.153 7.963 0 10.42 4.567 10.42 11.068v19.906h-4.975V58.152c0-3.69-2.342-6.09-6.146-6.09-6.03 0-8.96 4.04-8.96 9.486v17.096h-4.976V36.84zM212.108 47.67c9.602 0 14.7 6.967 14.7 15.87 0 8.84-5.1 15.808-14.7 15.808s-14.694-6.97-14.694-15.81c0-8.9 5.093-15.867 14.694-15.867zm0 27.285c5.215 0 9.43-4.1 9.43-11.416 0-7.38-4.215-11.477-9.43-11.477-5.21 0-9.424 4.097-9.424 11.476 0 7.315 4.215 11.415 9.424 11.415zM232.38 48.372h4.686v4.803h.117c2.107-3.748 5.504-5.503 9.836-5.503 7.96 0 10.423 4.566 10.423 11.067v19.905h-4.98V58.152c0-3.69-2.342-6.09-6.146-6.09-6.03 0-8.96 4.04-8.96 9.486v17.096h-4.976V48.372zM290.474 69.042c-1.346 6.675-6.15 10.306-12.94 10.306-9.66 0-14.226-6.676-14.52-15.927 0-9.074 5.97-15.75 14.23-15.75 10.718 0 13.993 10.013 13.698 17.33h-22.658c-.176 5.27 2.81 9.955 9.426 9.955 4.102 0 6.97-1.99 7.85-5.913h4.914zm-4.8-8.43c-.233-4.746-3.806-8.55-8.724-8.55-5.213 0-8.316 3.923-8.668 8.55h17.39zM327.897 73.434c-3.22 4.39-8.488 6.206-13.406 6.206-12.47 0-19.91-10.188-19.91-21.078 0-12.18 6.68-22.717 19.91-22.717 9.136 0 16.396 4.097 17.976 13.875h-5.56c-1.116-6.324-6.21-9.193-12.415-9.193-10.13 0-14.343 8.783-14.343 17.742 0 8.723 5.03 16.686 14.344 16.686 8.606 0 13.76-6.03 13.407-13.64h-13.35v-4.688h18.33v22.017h-3.514l-1.466-5.21zM366.79 78.527c-.877.528-1.99.82-3.568.82-2.576 0-4.217-1.406-4.217-4.684-2.752 3.22-6.443 4.684-10.656 4.684-5.507 0-10.015-2.46-10.015-8.492 0-6.85 5.092-8.313 10.246-9.307 5.507-1.057 10.19-.704 10.19-4.452 0-4.333-3.57-5.034-6.73-5.034-4.22 0-7.322 1.287-7.557 5.737h-4.975c.29-7.496 6.086-10.13 12.82-10.13 5.447 0 11.36 1.23 11.36 8.314V71.56c0 2.34 0 3.394 1.58 3.394.41 0 .88-.06 1.52-.29v3.863zm-8.078-15.515c-1.934 1.404-5.682 1.464-9.018 2.05-3.28.584-6.088 1.757-6.088 5.443 0 3.28 2.81 4.45 5.854 4.45 6.56 0 9.252-4.1 9.252-6.85v-5.093zM371.31 48.372h4.977v4.1h.117c1.64-3.338 5.504-4.8 9.662-4.8 9.31 0 13.934 7.376 13.934 15.925 0 8.548-4.566 15.75-13.816 15.75-3.104 0-7.557-1.17-9.78-4.744h-.116v15.633h-4.977V48.372zm14.05 3.69c-6.672 0-9.252 5.738-9.252 11.418 0 5.97 2.697 11.475 9.547 11.475 6.793 0 9.076-5.796 9.076-11.71 0-5.678-2.926-11.182-9.37-11.182z"/></g></svg>