<svg xmlns="http://www.w3.org/2000/svg" viewBox="0 0 137 148"><path fill="#CDCCCC" d="M96.71.82H48.77c-2.612 0-4.75 2.138-4.75 4.75v91.986c0 2.613 2.138 4.75 4.75 4.75h82.354c2.613 0 4.75-2.137 4.75-4.75V40.014L96.71.82z"/><g fill="#B4B4B4"><path d="M91.268 34.303H52.07v-6h39.198v6zM101.562 51.725H52.07v-6h49.492v6zM101.562 60.435H52.07v-6h49.492v6zM109.877 69.145H52.07v-6h57.807v6zM101.562 86.566H52.07v-6h49.492v6z"/></g><path fill="#F3F3F3" d="M132.84 39.75H96.547V3.455z"/><path fill="#E6E6E5" d="M53.814 45.693H5.876c-2.612 0-4.75 2.138-4.75 4.75v91.986c0 2.612 2.138 4.75 4.75 4.75H88.23c2.613 0 4.752-2.138 4.752-4.75V84.886L53.814 45.693z"/><g fill="#CDCCCC"><path d="M48.373 79.176H9.176v-6h39.197v6zM58.668 96.598H9.176v-6h49.492v6zM58.668 105.31H9.176v-6h49.492v6zM66.982 114.018H9.176v-6h57.806v6zM58.668 131.44H9.176v-6h49.492v6z"/></g><path fill="#F3F3F3" d="M89.946 84.623H53.652V48.328z"/><path fill="#E98025" d="M84.553 137.32c-4.92 0-8.172-.68-8.276-.7l1.078-4.884-.54 2.44.536-2.44c1.236.27 30.455 6.25 44.668-22.616l4.486 2.21c-11.082 22.504-30.8 25.99-41.95 25.99z"/><g fill="#E98025"><path d="M127.628 119.713l-3.903-9.176-9.177 3.902-1.957-4.602 13.78-5.86 5.86 13.778-4.602 1.957zM19.563 39.21l-4.502-2.177C30.793 4.478 64.756 11.3 65.1 11.37l-1.038 4.892c-1.24-.26-30.5-6.022-44.497 22.947zM15.25 44.383L9.287 30.647l4.587-1.99 3.97 9.148 9.147-3.97 1.99 4.586-13.733 5.963z"/></g></svg>