<svg xmlns="http://www.w3.org/2000/svg" width="19" height="23" viewBox="0 0 19 23"><g fill="none" fill-rule="evenodd" transform="translate(-15 -421)"><rect width="219" height="936" x=".5" y=".5" stroke="#DEDEDE" rx="5"/><g fill-rule="nonzero"><path fill="#F7BF00" d="M22.773 426.193c0 .049.02.069.06.06.034 0 .068-.038.105-.116a.22.22 0 0 1 .189-.13h-.122c-.155.026-.232.087-.232.186m1.064.177a.198.198 0 0 1 .214.057c.061.06.108.088.14.079.05-.025.062-.062.038-.111-.066-.105-.197-.114-.392-.024"/><path fill="#2A3052" d="M25.624 425.807l-.024.036c-.066.041-.098.05-.098.026-.033-.221-.107-.347-.22-.38-.017-.01-.034-.017-.05-.025-.057-.05-.029-.077.085-.086.025-.008.061.004.11.037.05.034.094.083.135.154a.456.456 0 0 1 .062.238m-3.17-.196c-.024-.008-.045-.033-.06-.074 0-.073.036-.101.11-.085.048.017.095.078.14.184.044.107.054.23.03.367 0 .025-.012.037-.036.037-.09 0-.122-.082-.099-.245.025-.123-.003-.184-.085-.184m5.265 13.304c.068.43.095.729.08.901a9.068 9.068 0 0 1-.166 1.103c-.094.474-.154.789-.177.944-.172-.009-.27-.072-.294-.19-.025-.118 0-.273.073-.46.18-.548.273-.923.282-1.128.015-.375-.025-.588-.122-.637-.09-.065-.229.057-.417.368-.359.588-1.08.943-2.166 1.066-.979.13-1.656-.016-2.03-.441-.083-.057-.165-.067-.246-.031-.082.037-.135.076-.159.117-.008.016 0 .04.024.073.025.032.063.082.118.146.051.066.094.132.127.198.318.556.29.931-.085 1.127 0-.376-.029-.664-.086-.864a2.236 2.236 0 0 0-.343-.662 5.728 5.728 0 0 1-.355-.546c.244-.024.43-.118.557-.28a.77.77 0 0 0 .172-.529.68.68 0 0 0-.216-.466c-.072-.073-.452-.384-1.137-.936-.686-.552-1.11-.922-1.273-1.11a5.036 5.036 0 0 0-.293-.244c-.164-.131-.266-.246-.307-.344-.375-.825-.416-1.503-.122-2.035l.05-.06c.04-.008.044.065.012.22-.049.23-.067.458-.049.686.032.516.18.9.44 1.152.171.171.288.16.354-.037.05-.064.072-.305.067-.723-.003-.416.003-.7.02-.845.064-.466.26-1.042.581-1.728.322-.687.577-1.054.764-1.104a1.038 1.038 0 0 1-.14-.772c.053-.277.138-.515.258-.711.117-.195.237-.423.36-.68.123-.257.184-.488.184-.692 0-.056.002-.098.012-.123.024-.073.126.018.305.27.343.507.601.805.772.894.18.099.378.095.6-.01.22-.108.491-.284.813-.528.323-.246.598-.426.827-.54a.862.862 0 0 0 .115-.055c.054-.028.094-.05.122-.061a1.48 1.48 0 0 0 .215-.116.698.698 0 0 0 .073-.056.195.195 0 0 0 .05-.062.149.149 0 0 0 .011-.054c-.016-.073-.05-.119-.104-.135-.053-.017-.125-.006-.214.03-.09.037-.189.086-.3.147-.11.061-.232.132-.368.209-.134.078-.27.15-.409.215-.14.065-.285.123-.44.172a1.905 1.905 0 0 1-.44.084c-.345.01-.617-.082-.82-.268-.13-.123-.2-.2-.209-.234-.008-.033.03-.04.11-.025.441.059.763.068.967.025.213-.033.497-.126.856-.28.074-.034.26-.114.557-.24.297-.128.528-.216.692-.264.098-.025.166-.063.201-.116.037-.053.05-.102.038-.146a.173.173 0 0 0-.08-.105c-.09-.05-.172-.017-.245.098-.04.072-.125.144-.256.215-.13.068-.25.122-.363.158-.108.037-.25.08-.42.13a4.402 4.402 0 0 0-.282.085c-.45.138-.865.2-1.248.184a1.316 1.316 0 0 1-.434-.08.488.488 0 0 1-.228-.16 1.865 1.865 0 0 0-.195-.232 1.4 1.4 0 0 0-.307-.239c-.08-.041-.11-.114-.092-.22a.699.699 0 0 1 .191-.332 4.97 4.97 0 0 1 .25-.153 1.02 1.02 0 0 0 .337-.288c.073-.114.2-.232.38-.355.007-.033.014-.123.018-.27a1.047 1.047 0 0 0-.116-.478c-.082-.17-.191-.257-.33-.257-.196-.008-.335.048-.416.173a.717.717 0 0 0-.11.451.856.856 0 0 0 .115.41c.07.12.133.18.19.18.09-.009.119.023.086.096a.328.328 0 0 1-.196.173c-.058.016-.12-.04-.19-.165a1.605 1.605 0 0 1-.158-.46 1.753 1.753 0 0 1-.044-.454c.018-.253.085-.496.203-.73.118-.232.287-.344.507-.336.228.01.411.147.551.418.138.268.203.637.195 1.102.024.059.088.077.19.062.101-.016.236-.02.403-.007.17.012.288.055.361.129.008 0 .013-.062.013-.184-.147-1.03.216-1.577 1.09-1.643.13.025.24.055.33.092.09.036.186.098.287.184.102.086.188.21.258.374.068.163.124.368.164.612v.454c0 .262-.053.41-.159.442-.17.057-.294.055-.367-.007-.073-.06-.065-.17.024-.324.083-.204.065-.442-.048-.711-.114-.27-.322-.393-.624-.367-.205.007-.35.117-.44.33-.092.212-.123.42-.1.625.026.205.07.31.135.318.05.01.194.073.434.197.242.122.422.196.546.22.318.065.5.168.544.306.045.14.027.342-.054.607-.083.266-.107.485-.076.656.035.18.095.343.185.491.09.147.186.281.288.404.102.122.222.352.36.687.14.334.265.755.38 1.26.008.01.038.038.091.087.054.05.107.111.16.185.053.073.116.174.19.3.072.127.152.312.238.557.086.245.166.527.24.845.088.377.135.815.14 1.313.003.498.036.838.097 1.023.061.184.218.259.47.228.32-.017.524-.19.614-.516.268-.948.047-2.084-.662-3.406-.269-.516-.502-.855-.697-1.019.285.164.578.47.88.92.303.45.494.87.575 1.262.01.04.031.15.07.325l.06.307c.003.028.02.112.048.25.028.14.043.23.043.27 0 .041.004.12.013.239.007.119.005.21-.007.276a4.663 4.663 0 0 0-.036.263 2.286 2.286 0 0 1-.06.32c-.03.101-.06.214-.094.336.45.196.673.368.673.515-.17-.138-.416-.231-.733-.275a1.517 1.517 0 0 0-.888.128.694.694 0 0 0-.42.65c-.295 0-.503.073-.626.22-.179.213-.274.5-.282.864-.007.363.024.759.094 1.188m-8.586-6.66a1.19 1.19 0 0 0 .122-.161.72.72 0 0 0 .067-.165.941.941 0 0 1 .056-.153c.016-.033.041-.046.073-.037.016.01.028.015.036.024a.044.044 0 0 1 .013.032v.037a.24.24 0 0 1-.006.047.213.213 0 0 1-.018.057.354.354 0 0 0-.025.073.577.577 0 0 1-.178.305c-.068.065-.12.094-.152.086-.05-.016-.045-.065.012-.146m6.37-9.174a.39.39 0 0 0 .071-.128c.017-.05.02-.1.006-.153a.265.265 0 0 1 .013-.16c.02-.054.067-.083.14-.093.074 0 .172.062.294.185.025.016.064.042.117.073a.566.566 0 0 1 .11.086c.02.024.03.045.03.06-.016.042-.054.07-.11.086a.636.636 0 0 1-.183.025c-.066 0-.103.004-.11.013a.611.611 0 0 0-.184.11c-.057.05-.102.085-.135.11-.033.024-.065.024-.098 0-.032-.05-.045-.084-.037-.104a.661.661 0 0 1 .075-.11m1.517 4.76c.024-.014.041-.02.05-.017a2.098 2.098 0 0 1 .116.13c.02.024.047.056.084.097a.55.55 0 0 0 .117.098.452.452 0 0 0 .176.067.386.386 0 0 1 .161.061.248.248 0 0 1 .08.14.353.353 0 0 1-.043.247c-.046.073-.105.106-.179.098-.146-.034-.305-.162-.477-.387-.17-.223-.2-.401-.085-.534m6.18 11.547a3.446 3.446 0 0 0-.202-.117 3.146 3.146 0 0 1-.264-.16 1.862 1.862 0 0 1-.256-.231 1.416 1.416 0 0 1-.25-.35 2.984 2.984 0 0 1-.276-1.189c-.114.098-.179.293-.19.582a1.94 1.94 0 0 0 .183.888c.135.304.337.5.606.59.261.09.47.186.63.287.16.103.261.22.306.35.044.13-.03.272-.226.423-.196.15-.51.3-.943.447-.595.204-1.017.378-1.266.521-.249.142-.614.414-1.095.814-.327.271-.674.415-1.04.436a1.009 1.009 0 0 1-.894-.405c-.228-.29-.3-.7-.22-1.232.154-1.02.151-1.817-.013-2.39-.13-.449-.158-.845-.086-1.188.075-.343.188-.543.344-.6.154-.058.322.065.501.367.016.04.053.12.11.24.058.118.105.202.141.25.036.05.091.113.166.191a.598.598 0 0 0 .275.164c.11.033.238.054.385.062a1.515 1.515 0 0 0 1.242-.583c.11-.15.221-.295.33-.434.11-.14.206-.218.288-.233.09-.016.172-.107.244-.27.074-.162.124-.39.147-.681.024-.29.005-.634-.06-1.035-.123-.71-.366-1.491-.728-2.341-.364-.85-.77-1.516-1.218-1.998-.808-.858-1.35-1.75-1.628-2.672-.286-.972-.408-1.847-.367-2.623.041-.555-.08-1.157-.36-1.807-.283-.65-.656-1.145-1.12-1.49a3.254 3.254 0 0 0-1.09-.508 4.608 4.608 0 0 0-1.296-.165c-.53 0-.955.085-1.274.257-.653.352-1.085.778-1.297 1.28-.212.503-.309 1.121-.293 1.858.032 1.617.097 2.885.195 3.8-.114.424-.619 1.221-1.517 2.39a3.001 3.001 0 0 0-.478.661 6.94 6.94 0 0 0-.367.748c-.089.22-.209.54-.36.956a82.84 82.84 0 0 1-.325.883 3.255 3.255 0 0 1-.27.514 3.73 3.73 0 0 0-.294.575c-.073.19-.114.401-.122.639-.007.18 0 .334.026.465.032.196.094.257.182.184.368-.279.83-.115 1.384.49.391.425 1.08 1.414 2.068 2.966.082.138.164.288.245.447.081.16.16.372.231.638.073.265.105.505.092.717-.01.212-.105.409-.28.589-.176.18-.44.293-.789.341a2.023 2.023 0 0 1-.68-.048 10.846 10.846 0 0 1-1.01-.282c-.407-.131-.71-.22-.906-.268-.284-.067-.69-.15-1.217-.253a14.055 14.055 0 0 1-1.034-.226c-.278-.074-.429-.182-.453-.319-.026-.114.032-.31.172-.589.138-.278.208-.477.208-.6.007-.09.004-.179-.013-.268a1.088 1.088 0 0 0-.055-.21 3.33 3.33 0 0 0-.104-.22 1.768 1.768 0 0 1-.098-.222c-.146-.342-.167-.575-.06-.698.072-.105.248-.147.525-.122.416.04.755-.021 1.017-.184.431-.27.562-.703.39-1.299 0 .279-.049.487-.145.625-.099.139-.27.282-.515.428-.139.082-.384.13-.734.148-.35.016-.583.073-.698.17-.082.076-.125.185-.128.332-.004.147.014.298.054.447.041.152.082.325.123.52.04.198.057.361.048.492-.008.09-.08.313-.219.668-.139.355-.168.627-.086.814a.6.6 0 0 0 .208.24c.097.07.235.128.41.178.175.048.336.087.483.115.146.03.352.067.612.11a12.561 12.561 0 0 1 2.41.643c.67.246 1.123.373 1.36.381.227.01.446-.039.654-.139.208-.103.386-.22.531-.35.148-.132.367-.254.656-.368.29-.114.614-.175.973-.183.163-.01.4-.018.71-.031.31-.013.541-.02.698-.02.7 0 1.231.005 1.59.013.244.008.436.047.575.116.14.07.228.15.27.24.04.088.107.193.201.313.093.117.214.214.361.287.31.148.673.205 1.09.177.415-.028.693-.107.831-.237.23-.221.537-.483.924-.785a6.585 6.585 0 0 1 1.046-.687l.33-.16c.157-.073.286-.137.393-.19.105-.053.234-.12.386-.202.15-.081.272-.156.367-.227.094-.07.19-.149.286-.24a.63.63 0 0 0 .19-.268.719.719 0 0 0 .031-.277.532.532 0 0 0-.147-.294 1.608 1.608 0 0 0-.379-.299"/></g></g></svg>