<svg width="300" height="199" viewBox="0 0 300 199" xmlns="http://www.w3.org/2000/svg"><title>polish end bet</title><g fill="none" fill-rule="evenodd"><path fill="#F1F2F2" fill-rule="nonzero" d="M0 0h300v199H0z"/><path d="M39.125 55.375V74.75H75.25V55.375H39.125zm0-1H75.25V34h1v20.375h36.125V34h1v20.375H149.5V34h1v20.375h36.125V34h1v20.375h36.125V34h1v20.375h36.125V34h1v20.375H299.5v1h-37.625V74.75H299.5v1h-37.625v19.375H299.5v1h-37.625V115.5H299.5v1h-37.625v19.375H299.5v1h-37.625v19.375H299.5v1h-37.625v19.375H299.5v1h-37.625V199h-1v-21.375H224.75V199h-1v-21.375h-36.125V199h-1v-21.375H150.5V199h-1v-21.375h-36.125V199h-1v-21.375H76.25V199h-1v-21.375H39.125V199h-1v-21.375H1.5v-1h36.625V157.25H1.5v-1h36.625v-19.375H1.5v-1h36.625V116.5H1.5v-1h36.625V96.125H1.5v-1h36.625V75.75H1.5v-1h36.625V55.375H1.5v-1h36.625V34h1v20.375zm221.75 1H224.75V74.75h36.125V55.375zm-37.125 0h-36.125V74.75h36.125V55.375zm-37.125 0H150.5V74.75h36.125V55.375zm-37.125 0h-36.125V74.75H149.5V55.375zm-37.125 0H76.25V74.75h36.125V55.375zM39.125 75.75v19.375H75.25V75.75H39.125zm221.75 0H224.75v19.375h36.125V75.75zm-37.125 0h-36.125v19.375h36.125V75.75zm-37.125 0H150.5v19.375h36.125V75.75zm-37.125 0h-36.125v19.375H149.5V75.75zm-37.125 0H76.25v19.375h36.125V75.75zm-73.25 20.375V115.5H75.25V96.125H39.125zm221.75 0H224.75V115.5h36.125V96.125zm-37.125 0h-36.125V115.5h36.125V96.125zm-37.125 0H150.5V115.5h36.125V96.125zm-37.125 0h-36.125V115.5H149.5V96.125zm-37.125 0H76.25V115.5h36.125V96.125zM39.125 116.5v19.375H75.25V116.5H39.125zm221.75 0H224.75v19.375h36.125V116.5zm-37.125 0h-36.125v19.375h36.125V116.5zm-37.125 0H150.5v19.375h36.125V116.5zm-37.125 0h-36.125v19.375H149.5V116.5zm-37.125 0H76.25v19.375h36.125V116.5zm-73.25 20.375v19.375H75.25v-19.375H39.125zm221.75 0H224.75v19.375h36.125v-19.375zm-37.125 0h-36.125v19.375h36.125v-19.375zm-37.125 0H150.5v19.375h36.125v-19.375zm-37.125 0h-36.125v19.375H149.5v-19.375zm-37.125 0H76.25v19.375h36.125v-19.375zm-73.25 20.375v19.375H75.25V157.25H39.125zm221.75 0H224.75v19.375h36.125V157.25zm-37.125 0h-36.125v19.375h36.125V157.25zm-37.125 0H150.5v19.375h36.125V157.25zm-37.125 0h-36.125v19.375H149.5V157.25zm-37.125 0H76.25v19.375h36.125V157.25z" fill="#DFDEDE" fill-rule="nonzero"/><path stroke="#C2C2C2" stroke-width="2" d="M1 1h298v197H1z"/><path fill="#C2C2C2" fill-rule="nonzero" d="M0 33h300v2H0z"/><g transform="translate(4 33.989)"><path d="M256.613.725V161M.9 41.412h290.625M.9 122.75h290.625" stroke="#2A3052" stroke-width="1.211" stroke-linejoin="round"/><path stroke="#2A3052" stroke-width="3.633" stroke-linecap="round" stroke-linejoin="round" d="M36 82.063l41.625-20.326 39.713 24.188 28.875-28.5 36.862 31.35 36.75-27.038 36.788 9.976"/><path d="M184.613 113H149.55l-5.4-8.213-5.4 8.213h-35.063a4.747 4.747 0 0 0-4.724 4.8v24.788a4.77 4.77 0 0 0 4.725 4.8h80.962a4.747 4.747 0 0 0 4.725-4.8V117.8a4.777 4.777 0 0 0-4.762-4.8z" fill="#E88024" fill-rule="nonzero"/><ellipse cx="8.363" cy="8.6" rx="8.137" ry="8.475" opacity=".6" transform="translate(248.25 64.5)" fill="#FFF" fill-rule="nonzero"/><ellipse stroke="#E88024" stroke-width="2.422" cx="256.613" cy="73.1" rx="8.137" ry="8.475"/><ellipse cx="9" cy="9.063" rx="8.137" ry="8.475" opacity=".6" transform="translate(27 73)" fill="#FFF" fill-rule="nonzero"/><ellipse stroke="#E88024" stroke-width="2.422" cx="36" cy="82.063" rx="8.137" ry="8.475"/></g><path d="M18.216 16.95h-.696v3.954h-1.898v-9.467h1.898v3.869h.534l2.594-3.869h2.347l-3.277 4.402 3.53 5.065H20.83l-2.614-3.953zm5.28.371c0-1.049.292-1.908.877-2.578.585-.67 1.396-1.004 2.432-1.004 1.04 0 1.855.334 2.445 1.001.59.668.884 1.528.884 2.581v.137c0 1.057-.294 1.919-.881 2.584-.588.666-1.4.998-2.435.998-1.04 0-1.854-.332-2.441-.998-.588-.665-.881-1.527-.881-2.584v-.137zm1.892.137c0 .641.112 1.156.338 1.544.225.388.59.582 1.092.582.49 0 .848-.195 1.076-.585.228-.39.341-.904.341-1.541v-.137c0-.624-.115-1.133-.344-1.528-.23-.394-.592-.591-1.086-.591-.49 0-.849.198-1.076.595-.228.396-.341.904-.341 1.524v.137zm7.652-3.59l.085 1.009c.234-.36.522-.64.864-.84.343-.198.726-.298 1.151-.298.711 0 1.266.228 1.665.686.398.457.598 1.18.598 2.168v4.31h-1.905V16.6c0-.503-.088-.86-.264-1.07-.175-.21-.438-.315-.79-.315-.281 0-.53.053-.744.159a1.453 1.453 0 0 0-.53.439v5.09h-1.898V13.87h1.768zm1.665-3.003h2.113l.013.04-1.801 1.69h-1.62l1.295-1.73zm7.054 8.719c.33 0 .592-.099.787-.296.195-.197.292-.46.292-.79h1.73l.013.04c.017.71-.247 1.305-.794 1.784-.546.479-1.222.718-2.028.718-1.04 0-1.844-.332-2.412-.998-.568-.665-.852-1.516-.852-2.552v-.195c0-1.031.283-1.882.849-2.552.565-.67 1.366-1.004 2.402-1.004.858 0 1.55.247 2.074.741.524.494.778 1.144.76 1.95l-.012.04h-1.73c0-.365-.096-.667-.29-.907-.192-.241-.46-.361-.802-.361-.49 0-.838.196-1.044.588-.205.392-.308.894-.308 1.505v.195c0 .625.103 1.13.308 1.515.206.386.558.579 1.057.579zm6.047-.137h3.485v1.457h-5.846v-1.119l3.349-4.447h-3.245v-1.47h5.631v1.087l-3.374 4.492zm7.217-1.495l.078.39h.039l1.345-4.473h2.042l-2.854 8.088c-.2.503-.47.927-.813 1.271-.342.345-.856.517-1.54.517-.161 0-.31-.013-.446-.039a10.143 10.143 0 0 1-.498-.11l.221-1.385.182.026c.065.008.124.013.176.013.312 0 .553-.077.722-.231.169-.154.299-.346.39-.576l.22-.546-2.496-7.028h2.042l1.19 4.083zm16.442 2.952h-1.898v-7.035h1.898v7.035zm0-8.72h-1.898v-1.423h1.898v1.424zm4.61 8.856c-1.049 0-1.868-.322-2.457-.965-.59-.644-.885-1.473-.885-2.487v-.26c0-1.053.286-1.916.859-2.588.572-.672 1.358-1.005 2.36-1.001.945 0 1.67.29 2.175.868.505.578.757 1.358.757 2.337v.982H74.69l-.02.039c.031.481.177.871.44 1.17.262.3.651.449 1.167.449.425 0 .785-.043 1.082-.13.297-.087.604-.219.92-.397l.514 1.17c-.282.23-.663.423-1.144.58a5.075 5.075 0 0 1-1.574.233zm-.123-5.838c-.382 0-.675.13-.881.393-.206.262-.33.61-.374 1.044l.013.032h2.314v-.143c0-.412-.084-.736-.253-.972-.17-.236-.442-.354-.82-.354zm2.041 5.429c-.234.23-.405.424-.513.585a.975.975 0 0 0-.163.559c0 .117.037.222.11.315.074.094.224.14.45.14.12 0 .228-.013.321-.039.093-.026.19-.056.29-.09l.227 1a2.66 2.66 0 0 1-.523.205 2.555 2.555 0 0 1-.686.081c-.469 0-.853-.122-1.154-.367-.302-.245-.452-.586-.452-1.024 0-.334.1-.651.299-.952.2-.302.511-.57.936-.803l.858.39zm12.536-3.31c0-1.049.292-1.908.877-2.578.586-.67 1.396-1.004 2.432-1.004 1.04 0 1.855.334 2.445 1.001.59.668.884 1.528.884 2.581v.137c0 1.057-.294 1.919-.881 2.584-.587.666-1.399.998-2.435.998-1.04 0-1.854-.332-2.441-.998-.588-.665-.881-1.527-.881-2.584v-.137zm1.892.137c0 .641.112 1.156.338 1.544.225.388.59.582 1.092.582.49 0 .849-.195 1.076-.585.228-.39.341-.904.341-1.541v-.137c0-.624-.114-1.133-.344-1.528-.23-.394-.592-.591-1.086-.591-.49 0-.848.198-1.076.595-.228.396-.341.904-.341 1.524v.137zm7.678-3.59l.078.93c.226-.337.508-.599.849-.783a2.44 2.44 0 0 1 1.18-.276c.45 0 .836.1 1.157.299.32.2.564.5.728.904.217-.377.499-.672.846-.885.346-.212.754-.318 1.222-.318.693 0 1.24.246 1.642.738.4.492.601 1.243.601 2.253v4.174h-1.899v-4.18c0-.564-.086-.957-.26-1.178-.173-.22-.43-.331-.773-.331-.27 0-.502.06-.7.179-.196.119-.354.285-.47.497 0 .082.002.153.006.211.004.059.006.118.006.179v4.623h-1.892v-4.18c0-.551-.086-.94-.26-1.168-.173-.227-.433-.341-.78-.341-.256 0-.48.049-.673.146a1.29 1.29 0 0 0-.478.413v5.13h-1.892v-7.035h1.762zm11.755 7.036h-1.898v-7.035h1.898v7.035zm0-8.72h-1.898v-1.423h1.898v1.424zm4.61 8.856c-1.049 0-1.868-.322-2.458-.965-.589-.644-.884-1.473-.884-2.487v-.26c0-1.053.286-1.916.858-2.588.573-.672 1.36-1.005 2.36-1.001.946 0 1.67.29 2.175.868.505.578.758 1.358.758 2.337v.982h-4.194l-.02.039c.031.481.177.871.44 1.17.262.3.65.449 1.167.449.424 0 .785-.043 1.082-.13.297-.087.604-.219.92-.397l.514 1.17c-.282.23-.663.423-1.144.58a5.075 5.075 0 0 1-1.574.233zm-.123-5.838c-.382 0-.675.13-.881.393-.206.262-.33.61-.374 1.044l.013.032h2.314v-.143c0-.412-.084-.736-.253-.972-.17-.236-.442-.354-.82-.354zm2.041 5.429c-.234.23-.405.424-.513.585a.975.975 0 0 0-.163.559c0 .117.037.222.11.315.074.094.224.14.45.14.12 0 .228-.013.321-.039.093-.026.19-.056.29-.09l.227 1a2.66 2.66 0 0 1-.524.205 2.555 2.555 0 0 1-.685.081c-.469 0-.853-.122-1.155-.367-.3-.245-.451-.586-.451-1.024 0-.334.1-.651.299-.952.2-.302.511-.57.936-.803l.858.39zm1.704-3.186c0-1.11.24-2.005.718-2.685.479-.68 1.154-1.021 2.025-1.021.351 0 .668.076.95.227.281.152.528.369.74.65v-3.855h1.906v10.143h-1.62l-.162-.865a2.352 2.352 0 0 1-.786.745 2.08 2.08 0 0 1-1.04.256c-.863 0-1.534-.316-2.013-.949-.479-.633-.718-1.47-.718-2.51v-.136zm1.892.136c0 .616.104 1.1.312 1.454.208.353.546.53 1.014.53.273 0 .511-.056.715-.166.204-.11.37-.272.5-.485v-2.997a1.461 1.461 0 0 0-.497-.517 1.323 1.323 0 0 0-.705-.185c-.464 0-.803.206-1.018.617-.214.412-.321.95-.321 1.613v.136zm8.036 1.866h3.485v1.457h-5.845v-1.119l3.348-4.447h-3.244v-1.47h5.63v1.087l-3.374 4.492zm7.217-1.495l.078.39h.039l1.346-4.473h2.041l-2.854 8.088c-.2.503-.47.927-.813 1.271-.342.345-.856.517-1.54.517-.161 0-.31-.013-.446-.039a10.142 10.142 0 0 1-.497-.11l.22-1.385.183.026c.065.008.123.013.175.013.312 0 .553-.077.722-.231.169-.154.299-.346.39-.576l.221-.546L134 13.87h2.042l1.19 4.083z" fill="#020202" fill-rule="nonzero"/><path d="M11.629 64.164l-.018.824.026.004.272-.828 1.725-4.101h.832l.51 4.101.017.837.025.004.246-.84 1.51-4.102h.923l-2.459 6.28h-.759l-.6-4.357-.012-.56-.026-.005-.172.565-1.928 4.356h-.76l-.573-6.28h.919l.302 4.102zm7.586.449l.065.586.025.005 1.674-3.528h.944l-2.768 5.382a3.031 3.031 0 0 1-.632.82c-.255.232-.569.349-.943.349a2.795 2.795 0 0 1-.496-.069l.186-.669a1.14 1.14 0 0 1 .157.009c.114.009.186.013.218.013.173 0 .333-.084.48-.252.149-.169.272-.343.37-.524l.28-.488-1.052-4.571h.948l.544 2.937zm5.667.474c.026-.193-.023-.346-.147-.461-.123-.115-.38-.217-.767-.307-.535-.118-.935-.283-1.201-.496-.266-.212-.373-.497-.322-.854.055-.396.261-.726.62-.987.357-.262.796-.393 1.317-.393.506 0 .908.146 1.207.436.3.29.416.624.35 1l-.009.026h-.815a.641.641 0 0 0-.186-.552c-.152-.16-.365-.241-.638-.241-.287 0-.518.068-.692.205a.737.737 0 0 0-.3.48c-.026.19.017.334.13.432.112.098.365.188.759.272.555.12.964.291 1.229.513.264.221.372.51.323.867-.06.428-.274.77-.642 1.024s-.825.382-1.372.382c-.57 0-1.01-.153-1.322-.457-.312-.305-.432-.656-.36-1.053l.009-.026h.815c-.026.302.056.523.246.662.19.14.425.21.707.21.29 0 .532-.065.725-.195.192-.129.304-.291.336-.487zm1.868-1.121c.106-.716.377-1.291.813-1.725.435-.435.976-.652 1.623-.652.621 0 1.092.225 1.413.675.32.45.43 1.017.33 1.702l-.018.095c-.109.721-.38 1.297-.815 1.727-.434.43-.976.645-1.626.645-.62 0-1.091-.225-1.412-.673-.32-.449-.43-1.015-.326-1.7l.018-.094zm.832.095c-.078.511-.036.924.125 1.237.161.314.449.47.863.47.388 0 .715-.163.98-.489.267-.326.437-.732.512-1.218l.017-.095c.075-.506.031-.917-.131-1.234-.163-.316-.45-.474-.86-.474-.392 0-.72.164-.986.494-.266.329-.434.734-.503 1.214l-.017.095zm5.646.129h-.44l-.324 2.152h-.85l1.01-6.728h.85l-.587 3.899h.427l1.677-1.837h.984l.013.025-1.993 2.127 1.462 2.514h-1.005l-1.224-2.152zm5.779 2.152a11.428 11.428 0 0 1-.009-.39c0-.1.006-.2.017-.304a2.52 2.52 0 0 1-.705.558 1.763 1.763 0 0 1-.852.227c-.468 0-.815-.126-1.041-.378-.226-.251-.306-.593-.24-1.024.067-.46.297-.812.69-1.057.395-.244.905-.366 1.532-.366h.923l.069-.462c.043-.284-.007-.504-.15-.657-.141-.154-.366-.231-.674-.231-.262 0-.492.069-.69.207-.199.138-.31.303-.337.496l-.81.008-.005-.025c.035-.354.24-.668.617-.943.377-.274.834-.412 1.372-.412.508 0 .908.136 1.199.408.29.272.4.658.327 1.158l-.336 2.247a3.69 3.69 0 0 0-.05.49 2.49 2.49 0 0 0 .028.45h-.875zm-1.316-.62c.294 0 .578-.081.854-.242.276-.161.468-.343.574-.544l.116-.755h-.953c-.33 0-.615.088-.854.263-.238.176-.374.377-.405.604-.035.216.003.382.114.498.11.117.296.175.554.175zm7.44.047c.25 0 .488-.088.714-.264a.995.995 0 0 0 .399-.638h.768l.008.026c-.052.42-.277.781-.675 1.085a2.119 2.119 0 0 1-1.313.455c-.627 0-1.092-.225-1.395-.675-.304-.45-.406-1.003-.309-1.659l.026-.18c.104-.682.365-1.24.785-1.676.42-.436.96-.654 1.617-.654.504 0 .902.163 1.195.488.293.325.398.72.315 1.186l-.009.021h-.776c.043-.296-.011-.541-.164-.735-.152-.194-.372-.291-.66-.291-.4 0-.724.164-.974.494-.25.329-.409.718-.475 1.166l-.026.181c-.074.483-.041.882.1 1.197.14.315.424.473.85.473zm4.602.664c-.644 0-1.128-.217-1.451-.652-.324-.434-.434-.994-.33-1.682l.03-.19c.1-.695.374-1.256.822-1.681.447-.426.953-.639 1.52-.639.6 0 1.034.197 1.298.591.265.394.35.907.255 1.54l-.065.448h-3.02c-.065.495-.016.885.147 1.171.164.286.462.43.893.43.276 0 .533-.042.77-.126a2.02 2.02 0 0 0 .615-.336l.25.552c-.19.161-.43.297-.72.408-.29.11-.629.166-1.014.166zm.492-4.175c-.285 0-.543.115-.775.345-.231.23-.397.52-.498.871l.009.026h2.1l.009-.07c.052-.347.011-.63-.12-.847-.133-.217-.375-.325-.725-.325zm3.631.086c.19-.241.412-.428.666-.558.255-.131.532-.197.83-.197.487 0 .85.15 1.09.447.24.297.314.75.222 1.36l-.44 2.946h-.85l.44-2.928c.063-.426.027-.721-.108-.887-.135-.165-.372-.248-.711-.248-.253 0-.48.056-.682.166-.201.111-.37.264-.509.46l-.517 3.437h-.85l.699-4.666h.759l-.039.668zm6.47 3.998a11.428 11.428 0 0 1-.01-.39c0-.1.007-.2.018-.304a2.52 2.52 0 0 1-.705.558 1.763 1.763 0 0 1-.852.227c-.469 0-.816-.126-1.041-.378-.226-.251-.306-.593-.24-1.024.066-.46.296-.812.69-1.057.394-.244.905-.366 1.531-.366h.923l.07-.462c.042-.284-.007-.504-.15-.657-.142-.154-.367-.231-.674-.231-.262 0-.492.069-.69.207-.199.138-.311.303-.337.496l-.81.008-.005-.025c.034-.354.24-.668.617-.943.376-.274.834-.412 1.371-.412.51 0 .909.136 1.2.408.29.272.399.658.327 1.158l-.336 2.247a3.69 3.69 0 0 0-.05.49 2.49 2.49 0 0 0 .028.45h-.876zm-1.316-.62c.293 0 .578-.081.854-.242.276-.161.467-.343.574-.544l.116-.755h-.953c-.33 0-.615.088-.854.263-.239.176-.374.377-.405.604-.035.216.003.382.114.498.11.117.295.175.554.175zm5.641-1.627c.115-.78.365-1.392.75-1.837a1.84 1.84 0 0 1 1.454-.669c.268 0 .5.054.697.16.197.106.357.26.48.461l.389-2.596h.85l-1.01 6.728h-.651l-.039-.59a1.895 1.895 0 0 1-.642.508c-.242.115-.51.173-.807.173-.55 0-.959-.209-1.23-.626-.27-.417-.354-.957-.254-1.621l.013-.09zm.837.09c-.075.487-.037.868.114 1.144.151.276.43.414.84.414.244 0 .462-.06.655-.177.192-.118.36-.282.504-.492l.324-2.16c-.08-.196-.2-.35-.356-.464-.157-.114-.357-.17-.602-.17-.39 0-.713.17-.968.51-.254.341-.42.776-.498 1.305l-.013.09zm4.2-.22c.107-.715.378-1.29.814-1.724.435-.435.977-.652 1.624-.652.62 0 1.091.225 1.412.675.32.45.43 1.017.33 1.702l-.017.095c-.11.721-.381 1.297-.815 1.727-.435.43-.977.645-1.626.645-.621 0-1.092-.225-1.413-.673-.32-.449-.429-1.015-.325-1.7l.017-.094zm.833.096c-.077.511-.036.924.125 1.237.161.314.449.47.863.47.388 0 .715-.163.981-.489.266-.326.436-.732.511-1.218l.017-.095c.075-.506.031-.917-.131-1.234-.163-.316-.45-.474-.86-.474-.392 0-.72.164-.986.494-.266.329-.434.734-.503 1.214l-.017.095zm5.97 1.708c.25 0 .487-.088.713-.264a.995.995 0 0 0 .399-.638h.768l.008.026c-.051.42-.276.781-.675 1.085a2.119 2.119 0 0 1-1.313.455c-.627 0-1.092-.225-1.395-.675-.304-.45-.406-1.003-.309-1.659l.026-.18c.104-.682.365-1.24.785-1.676.42-.436.96-.654 1.618-.654.503 0 .901.163 1.194.488.294.325.398.72.315 1.186l-.009.021h-.776c.043-.296-.011-.541-.164-.735-.152-.194-.372-.291-.66-.291-.4 0-.724.164-.974.494-.25.329-.409.718-.475 1.166l-.026.181c-.074.483-.041.882.1 1.197.14.315.424.473.85.473zm4.601.664c-.644 0-1.128-.217-1.451-.652-.324-.434-.434-.994-.33-1.682l.03-.19c.1-.695.375-1.256.822-1.681.447-.426.954-.639 1.52-.639.6 0 1.034.197 1.298.591.265.394.35.907.255 1.54l-.065.448h-3.02c-.065.495-.016.885.148 1.171.163.286.461.43.892.43.276 0 .533-.042.77-.126a2.02 2.02 0 0 0 .615-.336l.25.552c-.19.161-.43.297-.72.408-.29.11-.629.166-1.014.166zm.492-4.175c-.285 0-.543.115-.774.345-.232.23-.398.52-.499.871l.01.026h2.1l.008-.07c.052-.347.012-.63-.12-.847-.133-.217-.374-.325-.725-.325zm3.13 4.084h-.849l1.01-6.728h.85l-1.01 6.728zm1.467-2.376c.107-.716.378-1.291.813-1.725.436-.435.977-.652 1.624-.652.621 0 1.092.225 1.413.675.32.45.43 1.017.33 1.702l-.018.095c-.109.721-.38 1.297-.815 1.727-.434.43-.976.645-1.626.645-.62 0-1.092-.225-1.412-.673-.32-.449-.43-1.015-.326-1.7l.017-.094zm.833.095c-.078.511-.036.924.125 1.237.16.314.448.47.862.47.389 0 .716-.163.982-.489.266-.326.436-.732.51-1.218l.018-.095c.075-.506.03-.917-.132-1.234-.162-.316-.449-.474-.86-.474-.391 0-.72.164-.986.494-.266.329-.433.734-.502 1.214l-.017.095zm5.477.582l.017.595.022.004.207-.6 1.376-2.966h.681l.492 2.967.021.668.026.005.238-.673 1.134-2.967h.888l-2.053 4.666h-.685l-.496-2.842-.065-.738-.026-.004-.276.742-1.333 2.842h-.685l-.656-4.666h.884l.29 2.967zm8.104 1.7a11.43 11.43 0 0 1-.009-.391c0-.1.006-.2.018-.304a2.52 2.52 0 0 1-.706.558 1.763 1.763 0 0 1-.851.227c-.469 0-.816-.126-1.042-.378-.226-.251-.305-.593-.24-1.024.067-.46.297-.812.69-1.057.395-.244.905-.366 1.532-.366h.923l.069-.462c.043-.284-.007-.504-.149-.657-.142-.154-.367-.231-.675-.231-.262 0-.492.069-.69.207-.198.138-.31.303-.336.496l-.811.008-.004-.025c.034-.354.24-.668.616-.943.377-.274.834-.412 1.372-.412.509 0 .908.136 1.199.408.29.272.4.658.328 1.158l-.337 2.247a3.69 3.69 0 0 0-.05.49 2.49 2.49 0 0 0 .029.45h-.876zm-1.315-.622c.293 0 .578-.08.854-.241.276-.161.467-.343.573-.544l.117-.755h-.954c-.33 0-.615.088-.853.263-.24.176-.374.377-.406.604-.034.216.004.382.114.498.111.117.296.175.555.175zM15.385 171.825h-.89l-2.419-5.032-.027.005-.75 5.027h-.891l.985-6.582h.89l2.42 5.027.026-.005.75-5.022h.891l-.985 6.582zm2.382 0h-.89l.732-4.891h.89l-.732 4.89zm.922-6.144h-.89l.135-.908h.89l-.135.908zm3.499 4.828c.027-.202-.024-.363-.154-.484-.13-.12-.398-.227-.804-.32-.56-.124-.98-.297-1.26-.52-.278-.223-.39-.522-.336-.895.057-.416.273-.761.649-1.035.375-.275.835-.412 1.38-.412.53 0 .953.152 1.266.457.314.304.436.654.366 1.048l-.009.028h-.854a.672.672 0 0 0-.194-.579c-.16-.169-.383-.253-.67-.253-.3 0-.543.071-.725.215-.182.143-.287.31-.314.504-.027.198.018.35.136.452.117.102.382.197.795.284.582.127 1.011.306 1.288.538.278.232.39.535.34.909a1.516 1.516 0 0 1-.674 1.073c-.386.267-.865.4-1.438.4-.596 0-1.058-.16-1.385-.479-.327-.32-.453-.687-.377-1.103l.009-.027h.854c-.027.317.059.548.258.694.198.146.446.22.74.22.305 0 .558-.068.76-.204.202-.136.32-.306.353-.51zm3.485-.94h-.461l-.34 2.256h-.89l1.058-7.052h.89l-.614 4.086h.447l1.759-1.925h1.03l.014.027-2.088 2.228 1.532 2.636h-1.053l-1.284-2.256zm6.057 2.256a11.977 11.977 0 0 1-.009-.41c0-.103.006-.21.018-.318a2.64 2.64 0 0 1-.739.585c-.29.158-.588.237-.893.237-.49 0-.855-.131-1.091-.395-.237-.264-.32-.622-.251-1.074.07-.482.31-.85.723-1.107.413-.256.948-.384 1.605-.384h.967l.073-.484c.045-.298-.007-.528-.156-.69-.15-.16-.385-.241-.708-.241-.274 0-.515.072-.723.217-.208.144-.326.318-.353.52l-.85.009-.004-.027c.036-.371.252-.7.646-.988.395-.288.874-.432 1.438-.432.533 0 .952.143 1.257.427.304.285.418.69.343 1.214l-.353 2.355c-.03.184-.047.355-.052.513a2.61 2.61 0 0 0 .03.473h-.918zm-1.378-.651c.307 0 .605-.085.895-.253.289-.17.49-.36.6-.57l.123-.791h-1a1.47 1.47 0 0 0-.894.276c-.25.183-.392.394-.425.632-.036.226.004.4.12.523.116.122.31.183.58.183zm7.797.05c.262 0 .512-.093.748-.276.237-.184.376-.407.418-.67h.805l.009.028c-.054.44-.29.819-.707 1.137a2.22 2.22 0 0 1-1.377.476c-.657 0-1.144-.235-1.462-.707-.318-.472-.426-1.05-.323-1.738l.027-.19c.108-.714.382-1.3.822-1.756.44-.457 1.005-.685 1.696-.685.527 0 .944.17 1.252.511.307.34.417.755.33 1.243l-.01.023h-.813c.045-.31-.012-.568-.172-.771-.16-.203-.39-.305-.691-.305-.42 0-.76.172-1.022.517a2.613 2.613 0 0 0-.497 1.223l-.027.19c-.079.506-.044.924.104 1.254.147.33.444.495.89.495zm4.823.695c-.675 0-1.182-.227-1.52-.682-.34-.455-.455-1.043-.347-1.763l.032-.199c.105-.73.393-1.317.861-1.763.469-.446 1-.669 1.594-.669.63 0 1.083.207 1.36.62.277.412.366.95.267 1.613l-.068.47h-3.164c-.07.519-.018.928.154 1.228.171.3.483.45.935.45.29 0 .558-.044.807-.132.249-.087.463-.205.644-.352l.262.578c-.198.17-.45.311-.754.427a2.974 2.974 0 0 1-1.063.174zm.516-4.375c-.299 0-.57.12-.812.361a2.06 2.06 0 0 0-.522.914l.01.027h2.2l.01-.073c.054-.364.012-.66-.127-.888-.139-.227-.392-.341-.76-.341zm3.806.09c.199-.253.431-.448.698-.585.267-.137.557-.206.87-.206.51 0 .89.156 1.142.468.251.312.329.787.232 1.426l-.46 3.088h-.891l.46-3.07c.067-.446.03-.755-.112-.929-.142-.173-.39-.26-.746-.26-.265 0-.503.058-.714.174a1.58 1.58 0 0 0-.534.482l-.542 3.603h-.89l.732-4.891h.795l-.04.7zm6.78 4.19a11.977 11.977 0 0 1-.009-.409c0-.103.006-.21.018-.318a2.64 2.64 0 0 1-.739.585c-.29.158-.588.237-.893.237-.49 0-.855-.131-1.091-.395-.237-.264-.32-.622-.251-1.074.07-.482.31-.85.723-1.107.413-.256.948-.384 1.605-.384h.967l.072-.484c.046-.298-.006-.528-.156-.69-.149-.16-.384-.241-.707-.241-.274 0-.515.072-.723.217-.208.144-.326.318-.353.52l-.85.009-.004-.027c.036-.371.252-.7.646-.988.395-.288.874-.432 1.438-.432.533 0 .952.143 1.256.427.305.285.42.69.344 1.214l-.353 2.355c-.03.184-.047.355-.052.513a2.61 2.61 0 0 0 .03.473h-.918zm-1.379-.65c.308 0 .606-.085.895-.253.29-.17.49-.36.602-.57l.122-.791h-1a1.47 1.47 0 0 0-.894.276c-.25.183-.392.394-.425.632-.036.226.004.4.12.523.116.122.31.183.58.183zm5.913-1.705c.12-.816.383-1.458.787-1.925.403-.467.911-.7 1.523-.7.28 0 .523.055.73.166.206.112.374.273.504.484l.407-2.721h.89l-1.058 7.052h-.682l-.04-.62c-.197.235-.421.413-.674.534-.253.12-.535.18-.846.18-.575 0-1.005-.218-1.288-.655-.283-.437-.372-1.003-.267-1.7l.014-.095zm.877.095c-.078.51-.038.909.12 1.198.158.29.451.434.879.434.256 0 .485-.062.687-.185.202-.124.378-.295.529-.515l.339-2.265a1.103 1.103 0 0 0-.373-.486c-.164-.119-.374-.179-.63-.179-.41 0-.749.179-1.015.536-.267.357-.441.813-.522 1.367l-.014.095zm4.403-.23c.111-.75.395-1.353.852-1.808.456-.455 1.024-.683 1.702-.683.65 0 1.144.236 1.48.708.336.471.451 1.066.346 1.783l-.018.1c-.115.756-.4 1.36-.855 1.81-.455.45-1.023.675-1.704.675-.65 0-1.144-.235-1.48-.705-.336-.47-.45-1.063-.341-1.78l.018-.1zm.872.1c-.081.536-.038.968.131 1.297.169.328.47.492.904.492.407 0 .75-.17 1.029-.513.278-.342.457-.767.535-1.277l.018-.1c.079-.53.033-.96-.137-1.292-.17-.331-.471-.497-.902-.497-.41 0-.754.172-1.033.517-.279.345-.454.77-.527 1.273l-.018.1zm6.256 1.79c.262 0 .512-.093.748-.276.237-.184.376-.407.418-.67h.805l.01.028c-.055.44-.29.819-.708 1.137a2.22 2.22 0 0 1-1.377.476c-.657 0-1.144-.235-1.462-.707-.318-.472-.426-1.05-.323-1.738l.027-.19c.108-.714.383-1.3.823-1.756.44-.457 1.005-.685 1.695-.685.527 0 .944.17 1.252.511.307.34.417.755.33 1.243l-.01.023h-.813c.045-.31-.012-.568-.172-.771-.16-.203-.39-.305-.691-.305-.42 0-.76.172-1.022.517a2.613 2.613 0 0 0-.497 1.223l-.027.19c-.079.506-.044.924.104 1.254.147.33.444.495.89.495zm4.823.695c-.675 0-1.182-.227-1.52-.682-.34-.455-.455-1.043-.346-1.763l.031-.199c.106-.73.393-1.317.861-1.763.469-.446 1-.669 1.594-.669.63 0 1.083.207 1.36.62.278.412.366.95.267 1.613l-.068.47h-3.164c-.07.519-.018.928.154 1.228.171.3.483.45.935.45.29 0 .559-.044.807-.132.249-.087.464-.205.644-.352l.263.578c-.2.17-.45.311-.755.427a2.974 2.974 0 0 1-1.063.174zm.516-4.375c-.299 0-.57.12-.812.361a2.06 2.06 0 0 0-.522.914l.01.027h2.2l.01-.073c.054-.364.012-.66-.127-.888-.138-.227-.392-.341-.76-.341zm3.281 4.28h-.89l1.058-7.051h.89l-1.058 7.052zm1.537-2.49c.112-.75.396-1.353.852-1.808.457-.455 1.024-.683 1.702-.683.651 0 1.145.236 1.48.708.337.471.452 1.066.347 1.783l-.019.1c-.114.756-.399 1.36-.854 1.81-.455.45-1.023.675-1.704.675-.65 0-1.144-.235-1.48-.705-.336-.47-.45-1.063-.342-1.78l.018-.1zm.873.1c-.082.536-.038.968.13 1.297.17.328.471.492.905.492.407 0 .75-.17 1.028-.513.28-.342.458-.767.536-1.277l.018-.1c.078-.53.032-.96-.138-1.292-.17-.331-.47-.497-.902-.497-.41 0-.754.172-1.033.517-.278.345-.454.77-.526 1.273l-.018.1zm5.74.61l.019.623.022.005.217-.628 1.442-3.11h.714l.516 3.11.022.7.027.005.25-.705 1.188-3.11h.931l-2.152 4.89h-.718l-.52-2.978-.068-.773-.027-.005-.29.778-1.396 2.979h-.719l-.687-4.891h.927l.303 3.11zm8.494 1.78a11.977 11.977 0 0 1-.009-.409c0-.103.006-.21.018-.318a2.64 2.64 0 0 1-.739.585c-.29.158-.588.237-.893.237-.49 0-.855-.131-1.091-.395-.237-.264-.32-.622-.251-1.074.07-.482.31-.85.723-1.107.413-.256.948-.384 1.605-.384h.967l.073-.484c.045-.298-.007-.528-.156-.69-.15-.16-.385-.241-.708-.241-.274 0-.515.072-.723.217-.208.144-.326.318-.353.52l-.85.009-.004-.027c.036-.371.252-.7.646-.988.395-.288.874-.432 1.438-.432.533 0 .952.143 1.257.427.304.285.418.69.343 1.214l-.353 2.355c-.03.184-.047.355-.052.513a2.61 2.61 0 0 0 .03.473h-.918zm-1.378-.65c.307 0 .605-.085.895-.253.289-.17.49-.36.6-.57l.123-.791h-1a1.47 1.47 0 0 0-.894.276c-.25.183-.392.394-.425.632-.036.226.004.4.12.523.116.122.31.183.58.183z" fill="#6D6E71" fill-rule="nonzero"/><g fill="#FFF" fill-rule="nonzero"><path d="M183 165.217h-2.042v-6.753H183zM183 168.77h-2.042v-1.814H183z"/><g><path d="M161.844 160.27h1.716l.087 1.25c.702-1.048 1.614-1.514 2.735-1.398.65.067 2.018.28 2.426 2.123.15.675.118 1.817.107 3.368-.005.603-.005 1.646 0 3.13h-1.884v-5.308c0-.624-.174-1.32-.697-1.584-.72-.363-2.074-.21-2.617.703v6.188h-1.873v-8.472zM151.724 159.957c-.08.75-.166 1.366-.26 1.85-.943-.062-1.922-.151-2.35.95l.011 5.928h-1.94v-8.659h1.726c.083.578.134 1 .154 1.264.597-1.114 1.483-1.558 2.66-1.333zM154.923 162.532a142.14 142.14 0 0 0-1.864 0c0-.935.669-2.632 3.346-2.632 2.678 0 3.32 1.84 3.394 2.236.072.396-.187 5.95.373 6.581l-1.99.002c-.163-.562-.246-.978-.246-1.247-.31.38-.844 1.071-1.664 1.326-.82.254-2.683.39-3.446-1.397-.503-1.179-.182-2.504.763-3.111 1.561-1.003 3.707-.668 4.347-.668.083-1.789-.451-2.206-1.664-2.206-.808 0-1.258.372-1.35 1.116zm3.013 2.313a32.278 32.278 0 0 0-1.965.017c-.78.069-1.476.646-1.417 1.469.071.98 1.186 1.16 2.059.877.732-.237 1.243-.85 1.323-1.11v-1.253zM173 162.532a142.14 142.14 0 0 0-1.865 0c0-.935.67-2.632 3.347-2.632 2.678 0 3.32 1.84 3.393 2.236.073.396-.186 5.95.374 6.581l-1.99.002c-.164-.562-.246-.978-.246-1.247-.31.38-.844 1.071-1.664 1.326-.82.254-2.684.39-3.447-1.397-.503-1.179-.182-2.504.763-3.111 1.562-1.003 3.708-.668 4.348-.668.083-1.789-.452-2.206-1.664-2.206-.809 0-1.259.372-1.35 1.116zm3.012 2.313a32.278 32.278 0 0 0-1.964.017c-.781.069-1.476.646-1.417 1.469.07.98 1.186 1.16 2.059.877.732-.237 1.243-.85 1.322-1.11v-1.253zM143.352 161.237l.195-1.1h1.587v8.8c.006 3.066-3.437 4.24-6.602 2.709.182-.905.282-1.41.3-1.518 1.378.461 4.809 1.613 4.372-2.205-1.969 2.018-4.199.795-4.97-.552-.85-1.487-1.405-5.924 1.334-7.12 1.577-.69 2.838-.361 3.784.986zm-.165 1.341c-.375-.567-.615-1.04-1.873-1.04-1.259 0-2.046 1.544-1.773 3.914.273 2.37 2.845 2.37 3.646.871v-3.745zM128.805 160.14h2.023l1.898 6.07 1.936-6.07h2.069c-2.116 6.05-3.294 9.384-3.532 9.999-.358.922-1.274 2.753-3.764 2 .121-.81.187-1.304.196-1.48 1.012.14 1.594 0 2.246-1.962-.638-1.976-1.663-4.828-3.072-8.556zM120.613 157.115h1.692l2.3 8.453 1.755-8.453h2.05l-2.79 11.662h-1.722l-2.394-8.252-2.366 8.252h-1.77l-2.767-11.662h2.049l1.741 8.453z"/></g></g><g fill="#2A3052" fill-rule="nonzero"><path d="M276.25 124.8l.082.844a1.84 1.84 0 0 1 1.634-.926c.599 0 1.062.163 1.388.545.327.354.49.898.49 1.633v3.54h-1.007v-3.512c0-.49-.109-.845-.3-1.062-.19-.218-.49-.3-.87-.3-.3 0-.546.082-.763.218a1.573 1.573 0 0 0-.545.572v4.084h-1.008v-5.61l.9-.026zM288.162 127.775h-3.505c0 .65.133 1.12.399 1.41.349.382.716.52 1.22.47.88-.088 1.05-.324 1.414-.531l.37.636c-.433.448-1.126.672-2.08.672-1.43 0-2.301-1.185-2.358-2.596-.057-1.41.506-3.047 2.359-3.116 1.57.042 2.297 1.06 2.18 3.055zm-.984-.775c-.01-.993-.409-1.489-1.196-1.489-.788 0-1.218.496-1.292 1.489h2.488zM281.333 125.017h1.018v5.6h-1.018zM281.347 122.473v1.01h1.036v-1.01zM292.74 126.698c.35-.01.679 0 .89 0 0-1.565-1.24-1.978-2.238-1.978-.997 0-2.238.905-2.238 2.846 0 1.94 1.089 2.885 2.44 2.836 1.351-.049 2.036-1.076 2.036-1.832-.394.01-.495.01-.89 0 0 .714-.642 1.09-1.146 1.09-1.206 0-1.48-1.17-1.48-2.101 0-.93.309-2.08 1.386-2.08.914 0 1.24.71 1.24 1.219zM271.555 124.721c.622-.034 1.41.182 1.85.629.487.494.835 1.11.835 2.124 0 .899-.18 1.549-.605 2.074-.48.593-1.228.864-1.835.864-.63 0-1.313-.099-1.887-.629-.47-.434-.904-1.178-.86-2.216.048-1.148.417-1.802.86-2.217.45-.42.976-.593 1.642-.629zm.224.75c-.714 0-1.577.466-1.577 1.91 0 1.442.533 2.301 1.49 2.301.956 0 1.583-.971 1.486-2.302-.097-1.33-.686-1.908-1.4-1.908zM263.135 122.907h.985v3.27h.593l2.724-3.27h1.122l-2.988 3.512 3.196 3.864h-1.225l-2.728-3.302h-.694v3.302h-.985z"/><path d="M263.135 122.907h.985v3.27h.593l2.724-3.27h1.122l-2.988 3.512 3.196 3.864h-1.225l-2.728-3.302h-.694v3.302h-.985z"/></g><path d="M31.712 134.892c0-.407-.156-.72-.438-1.002-.282-.25-.814-.501-1.566-.658-.908-.219-1.628-.532-2.13-.97a2.048 2.048 0 0 1-.75-1.598c0-.688.28-1.252.813-1.69.533-.47 1.253-.69 2.13-.69.94 0 1.69.251 2.254.783.564.533.814 1.128.814 1.817v.03h-1.158c0-.5-.157-.907-.501-1.22-.345-.313-.814-.47-1.44-.47-.564 0-1.034.125-1.316.407-.312.25-.487.634-.47 1.033 0 .376.157.69.501.94.345.25.877.47 1.629.657.908.188 1.597.533 2.067.971.47.439.72 1.002.72 1.629 0 .688-.282 1.252-.846 1.69-.563.439-1.315.627-2.223.627a3.89 3.89 0 0 1-2.286-.72c-.658-.47-.97-1.096-.97-1.88v-.03h1.095c0 .563.188.97.595 1.283.407.313.908.439 1.503.439.595 0 1.034-.126 1.378-.376.407-.25.595-.564.595-1.002zm4.165-5.825v1.566h1.221v.877h-1.221v3.914c0 .313.063.501.188.626.125.126.282.188.5.188.063 0 .126 0 .22-.03.094-.032.157-.032.22-.064l.156.815c-.094.062-.22.125-.376.187a2.74 2.74 0 0 1-.501.063 1.534 1.534 0 0 1-1.127-.438c-.282-.282-.407-.752-.407-1.347v-3.914h-1.065v-.877h1.002v-1.566h1.19zm6.545 8.017c-.032-.188-.063-.376-.094-.532-.032-.157-.032-.282-.032-.439-.219.313-.5.564-.845.783-.345.22-.72.313-1.127.313-.658 0-1.16-.156-1.504-.532a1.91 1.91 0 0 1-.532-1.41c0-.626.25-1.095.752-1.44.5-.344 1.158-.532 2.004-.532h1.252v-.626a1.253 1.253 0 0 0-.344-.909 1.356 1.356 0 0 0-.97-.344c-.377 0-.69.094-.909.282-.22.188-.344.438-.344.689h-1.096v-.032c-.032-.47.187-.908.657-1.283.508-.4 1.14-.61 1.785-.595.72 0 1.315.187 1.754.563.438.376.657.908.657 1.597v3.1c-.008.434.045.866.157 1.284h-1.221v.063zm-1.91-.877c.407 0 .782-.094 1.127-.313.344-.22.563-.47.657-.752v-1.033h-1.315c-.47 0-.845.125-1.127.344a1.05 1.05 0 0 0-.407.846c0 .282.094.501.25.689.188.156.47.22.814.22zm7.64-4.54l-.595-.032c-.313 0-.563.063-.783.22a1.44 1.44 0 0 0-.5.626v4.603h-1.16v-6.45h1.034l.125.939c.188-.345.407-.595.658-.783.25-.188.564-.282.908-.282a.69.69 0 0 1 .25.031c.063 0 .157.031.188.031l-.125 1.096zm2.756-2.6v1.566h1.221v.877h-1.221v3.914c0 .313.062.501.188.626.125.126.282.188.5.188.063 0 .126 0 .22-.03.094-.032.156-.032.22-.064l.156.815c-.094.062-.22.125-.376.187a2.74 2.74 0 0 1-.501.063 1.534 1.534 0 0 1-1.127-.438c-.282-.282-.408-.752-.408-1.347v-3.914h-1.002v-.877h1.002v-1.566h1.128z" fill="#2A3052" fill-rule="nonzero"/><path d="M66.246 18.39c0-.382-.133-.69-.4-.922-.266-.233-.735-.451-1.405-.656-1.148-.347-2.02-.755-2.614-1.224-.595-.47-.892-1.11-.892-1.921 0-.816.335-1.482 1.004-2 .67-.517 1.525-.775 2.564-.775 1.103 0 1.99.278 2.663.834.672.556.996 1.285.974 2.187l-.014.041h-1.935c0-.497-.15-.878-.45-1.145-.302-.267-.723-.4-1.265-.4-.493 0-.873.119-1.142.356-.269.237-.403.54-.403.909 0 .337.145.614.437.83.292.217.795.446 1.51.687 1.095.31 1.929.715 2.503 1.214.574.499.861 1.156.861 1.972 0 .852-.332 1.524-.998 2.017-.665.492-1.545.738-2.639.738-1.07 0-1.99-.267-2.758-.8s-1.14-1.328-1.118-2.386l.014-.04h1.935c0 .587.173 1.02.52 1.298.346.278.815.417 1.407.417.534 0 .94-.112 1.22-.335.281-.223.421-.522.421-.895zM84.883 17.379v3.61h-1.996v-9.954h3.807c1.144 0 2.044.292 2.7.875.657.583.985 1.351.985 2.304 0 .952-.328 1.718-.984 2.297-.657.579-1.557.868-2.7.868h-1.812zm0-1.538h1.811c.556 0 .978-.152 1.265-.455.287-.303.43-.69.43-1.158 0-.479-.142-.874-.427-1.186-.284-.313-.707-.469-1.268-.469h-1.811v3.268z" fill="#000"/></g></svg>