<?xml version="1.0" encoding="UTF-8"?>
<svg width="299px" height="197px" viewBox="0 0 299 197" version="1.1" xmlns="http://www.w3.org/2000/svg" xmlns:xlink="http://www.w3.org/1999/xlink">
    <!-- Generator: Sketch 52.6 (67491) - http://www.bohemiancoding.com/sketch -->
    <title>end outside</title>
    <desc>Created with Sketch.</desc>
    <g id="Page-1" stroke="none" stroke-width="1" fill="none" fill-rule="evenodd">
        <g id="end-outside">
            <g id="ends-outside">
                <polygon id="Path" fill="#F1F2F2" points="0 0 299 0 299 197 0 197"></polygon>
                <path d="M1.98671096,1.9798995 L1.98671096,195.020101 L297.013289,195.020101 L297.013289,1.9798995 L1.98671096,1.9798995 Z M299,0 L299,197 L0,197 L0,0 L299,0 Z" id="Path" fill="#C2C2C2" fill-rule="nonzero"></path>
                <g id="Group-6" transform="translate(2.000000, 33.000000)">
                    <path d="M2.887,23.4456836 L2.887,22.2388448 L292.54325,22.2388448 L292.54325,23.4456836 L2.887,23.4456836 Z M2.887,63.9796458 L2.887,62.772807 L292.54325,62.772807 L292.54325,63.9796458 L2.887,63.9796458 Z M2.887,104.513608 L2.887,103.30677 L292.54325,103.30677 L292.54325,104.513608 L2.887,104.513608 Z M2.887,145.010211 L2.887,143.803373 L292.54325,143.803373 L292.54325,145.010211 L2.887,145.010211 Z M37.2665806,2.59396226 L38.4734194,2.59396226 L38.4734194,162.264151 L37.2665806,162.264151 L37.2665806,2.59396226 Z M73.9314556,2.59396226 L75.1382944,2.59396226 L75.1382944,162.264151 L73.9314556,162.264151 L73.9314556,2.59396226 Z M110.558956,2.59396226 L111.765794,2.59396226 L111.765794,162.264151 L110.558956,162.264151 L110.558956,2.59396226 Z M147.223831,2.59396226 L148.430669,2.59396226 L148.430669,162.264151 L147.223831,162.264151 L147.223831,2.59396226 Z M183.851331,2.59396226 L185.058169,2.59396226 L185.058169,162.264151 L183.851331,162.264151 L183.851331,2.59396226 Z M220.478831,2.59396226 L221.685669,2.59396226 L221.685669,162.264151 L220.478831,162.264151 L220.478831,2.59396226 Z M2.887,84.2279477 L2.887,83.0211089 L292.54325,83.0211089 L292.54325,84.2279477 L2.887,84.2279477 Z" id="Shape" fill="#DFDEDE" fill-rule="nonzero"></path>
                    <path d="M257.143706,2.59396226 L258.350544,2.59396226 L258.350544,162.264151 L257.143706,162.264151 L257.143706,2.59396226 Z M2.887,43.7313439 L2.887,42.5245051 L292.54325,42.5245051 L292.54325,43.7313439 L2.887,43.7313439 Z M2.887,124.76191 L2.887,123.555072 L292.54325,123.555072 L292.54325,124.76191 L2.887,124.76191 Z" id="Shape" fill="#2A3052" fill-rule="nonzero"></path>
                    <polygon id="Path" fill="#C2C2C2" fill-rule="nonzero" points="0.794 2.60551619 0.794 0.191464945 294.63625 0.191464945 294.63625 2.60551619"></polygon>
                    <path d="M38.7780566,85.19078 C37.9130397,85.6922858 36.8052541,85.3976018 36.3037483,84.5325849 C35.8022425,83.667568 36.0969265,82.5597824 36.9619434,82.0582766 L73.6268184,60.8012955 C74.2847374,60.4198577 75.110905,60.4902479 75.6948117,60.9774903 L108.13667,88.0486852 L146.812609,61.8768219 C147.491995,61.4170836 148.395598,61.4715961 149.014788,62.0096747 L184.376286,92.7389481 L256.475138,21.5539476 C257.186655,20.8514485 258.332942,20.8587594 259.035442,21.570277 C259.737941,22.2817946 259.73063,23.4280816 259.019112,24.1305808 L185.726737,96.493977 C185.053337,97.1588418 183.981505,97.1929357 183.267212,96.5722121 L147.68976,65.655274 L109.037516,91.8111026 C108.369276,92.2632987 107.482446,92.2187049 106.862938,91.701755 L74.3473092,64.5690015 L38.7780566,85.19078 Z" id="Path" fill="#2A3052" fill-rule="nonzero"></path>
                    <path d="M185.987125,114.445283 L151.0415,114.445283 L145.6595,106.263774 L140.2775,114.445283 L105.331875,114.445283 C104.07173,114.451176 102.865994,114.959272 101.98197,115.856931 C101.097947,116.754589 100.608676,117.967645 100.622625,119.22717 L100.622625,143.921132 C100.606032,146.539822 102.712091,148.678366 105.331875,148.703019 L186.0245,148.703019 C187.284645,148.697126 188.490381,148.18903 189.374405,147.291371 C190.258428,146.393713 190.747699,145.180657 190.73375,143.921132 L190.73375,119.22717 C190.73971,117.963586 190.242729,116.749496 189.352348,115.8525 C188.461966,114.955504 187.251275,114.449236 185.987125,114.445283 Z" id="Path" fill="#E88024"></path>
                    <g id="Group" opacity="0.6" transform="translate(249.412500, 12.830189)" fill="#FFFFFF">
                        <ellipse id="Oval" cx="8.334625" cy="9.22754717" rx="8.110375" ry="8.44301887"></ellipse>
                    </g>
                    <path d="M257.747125,31.7077803 C252.590171,31.7077803 248.429724,27.3766949 248.429724,22.0577358 C248.429724,16.7387767 252.590171,12.4076913 257.747125,12.4076913 C262.904079,12.4076913 267.064526,16.7387767 267.064526,22.0577358 C267.064526,27.3766949 262.904079,31.7077803 257.747125,31.7077803 Z M257.747125,29.293729 C261.548644,29.293729 264.650474,26.0646778 264.650474,22.0577358 C264.650474,18.0507938 261.548644,14.8217426 257.747125,14.8217426 C253.945606,14.8217426 250.843776,18.0507938 250.843776,22.0577358 C250.843776,26.0646778 253.945606,29.293729 257.747125,29.293729 Z" id="Oval" fill="#E88024" fill-rule="nonzero"></path>
                    <g id="Group" opacity="0.6" transform="translate(28.900000, 74.603774)" fill="#FFFFFF">
                        <ellipse id="Oval" cx="8.97" cy="9.0207547" rx="8.110375" ry="8.44301887"></ellipse>
                    </g>
                    <path d="M37.87,93.2745728 C32.7130457,93.2745728 28.5525994,88.9434874 28.5525994,83.6245283 C28.5525994,78.3055692 32.7130457,73.9744838 37.87,73.9744838 C43.0269543,73.9744838 47.1874006,78.3055692 47.1874006,83.6245283 C47.1874006,88.9434874 43.0269543,93.2745728 37.87,93.2745728 Z M37.87,90.8605215 C41.6715185,90.8605215 44.7733494,87.6314703 44.7733494,83.6245283 C44.7733494,79.6175863 41.6715185,76.3885351 37.87,76.3885351 C34.0684815,76.3885351 30.9666506,79.6175863 30.9666506,83.6245283 C30.9666506,87.6314703 34.0684815,90.8605215 37.87,90.8605215 Z" id="Oval" fill="#E88024" fill-rule="nonzero"></path>
                </g>
            </g>
            <g id="Group-31" transform="translate(15.663000, 10.000000)" fill="#000000">
                <path d="M8.628,2.883 L5.473,2.883 L5.473,12.219 L3.26,12.219 L3.26,2.883 L0.15,2.883 L0.15,1.177 L8.63,1.177 L8.63,2.883 L8.628,2.883 Z M12.557,12.378 C11.333,12.378 10.377,12.003 9.69,11.252 C9.002,10.502 8.659,9.534 8.659,8.352 L8.659,8.048 C8.659,6.819 8.992,5.813 9.659,5.03 C10.327,4.246 11.245,3.857 12.413,3.862 C13.515,3.862 14.36,4.199 14.949,4.874 C15.539,5.549 15.833,6.458 15.833,7.601 L15.833,8.746 L10.94,8.746 L10.918,8.791 C10.953,9.352 11.124,9.807 11.429,10.156 C11.735,10.506 12.189,10.68 12.791,10.68 C13.286,10.68 13.707,10.629 14.053,10.528 C14.4270694,10.4148623 14.7870514,10.25953 15.126,10.065 L15.726,11.43 C15.397,11.698 14.952,11.923 14.391,12.105 C13.7974818,12.2918715 13.1782128,12.3840025 12.556,12.378 L12.557,12.378 Z M12.413,5.568 C11.968,5.568 11.625,5.721 11.385,6.027 C11.145,6.333 10.999,6.739 10.949,7.244 L10.964,7.282 L13.664,7.282 L13.664,7.115 C13.664,6.635 13.565,6.257 13.368,5.981 C13.171,5.706 12.852,5.568 12.413,5.568 Z M21.437,5.917 L20.626,5.894 C20.297,5.894 20.026,5.962 19.814,6.099 C19.5989699,6.23885905 19.4302003,6.43929473 19.329,6.675 L19.329,12.219 L17.122,12.219 L17.122,4.013 L19.177,4.013 L19.276,5.227 C19.468,4.797 19.716,4.462 20.023,4.222 C20.329,3.982 20.681,3.862 21.081,3.862 C21.191,3.862 21.294,3.871 21.388,3.888 C21.481,3.906 21.576,3.928 21.672,3.953 L21.437,5.917 Z M24.645,4.013 L24.736,5.098 C24.999,4.704 25.329,4.398 25.726,4.184 C26.123,3.969 26.581,3.862 27.102,3.862 C27.628,3.862 28.078,3.978 28.452,4.211 C28.826,4.443 29.109,4.795 29.302,5.265 C29.554,4.825 29.882,4.481 30.287,4.233 C30.692,3.986 31.167,3.862 31.713,3.862 C32.522,3.862 33.16,4.149 33.628,4.722 C34.096,5.296 34.329,6.172 34.329,7.35 L34.329,12.219 L32.115,12.219 L32.115,7.343 C32.115,6.685 32.014,6.228 31.812,5.97 C31.609,5.712 31.309,5.583 30.909,5.583 C30.596,5.583 30.324,5.653 30.094,5.792 C29.862206,5.93280379 29.6723065,6.13306148 29.544,6.372 C29.544,6.468 29.547,6.55 29.552,6.618 C29.557,6.687 29.559,6.756 29.559,6.827 L29.559,12.219 L27.352,12.219 L27.352,7.343 C27.352,6.701 27.252,6.247 27.049,5.981 C26.847,5.716 26.544,5.583 26.139,5.583 C25.841,5.583 25.579,5.64 25.354,5.753 C25.129,5.868 24.944,6.028 24.797,6.235 L24.797,12.219 L22.59,12.219 L22.59,4.013 L24.645,4.013 Z M38.356,12.219 L36.142,12.219 L36.142,4.013 L38.356,4.013 L38.356,12.219 Z M38.356,2.049 L36.142,2.049 L36.142,0.389 L38.356,0.389 L38.356,2.049 Z M42.201,4.013 L42.3,5.189 C42.573,4.769 42.91,4.443 43.309,4.211 C43.708,3.978 44.155,3.861 44.651,3.861 C45.48,3.861 46.127,4.128 46.592,4.661 C47.057,5.195 47.29,6.038 47.29,7.191 L47.29,12.219 L45.068,12.219 L45.068,7.199 C45.068,6.612 44.966,6.196 44.761,5.951 C44.556,5.706 44.249,5.583 43.839,5.583 C43.511,5.583 43.221,5.645 42.971,5.769 C42.721,5.893 42.515,6.064 42.353,6.281 L42.353,12.219 L40.139,12.219 L40.139,4.013 L42.2,4.013 L42.201,4.013 Z M53.781,12.219 C53.698439,12.0265662 53.6289481,11.8287843 53.573,11.627 C53.515,11.42 53.473,11.207 53.448,10.99 C53.22,11.39 52.92,11.721 52.546,11.984 C52.171,12.247 51.726,12.378 51.211,12.378 C50.351,12.378 49.689,12.158 49.224,11.715 C48.759,11.272 48.526,10.669 48.526,9.906 C48.526,9.102 48.836,8.479 49.456,8.036 C50.074,7.594 50.978,7.373 52.166,7.373 L53.41,7.373 L53.41,6.721 C53.41,6.326 53.306,6.021 53.1,5.803 C52.892,5.586 52.583,5.477 52.174,5.477 C51.815,5.477 51.538,5.564 51.344,5.739 C51.149,5.913 51.052,6.152 51.052,6.455 L48.92,6.455 L48.904,6.41 C48.869,5.717 49.171,5.12 49.811,4.616 C50.451,4.113 51.286,3.862 52.317,3.862 C53.303,3.862 54.1,4.109 54.71,4.605 C55.319,5.1 55.624,5.811 55.624,6.736 L55.624,10.126 C55.624,10.51 55.653,10.872 55.711,11.21 C55.769,11.55 55.861,11.885 55.988,12.219 L53.781,12.219 Z M51.757,10.74 C52.141,10.74 52.485,10.644 52.788,10.452 C53.092,10.26 53.298,10.037 53.41,9.785 L53.41,8.625 L52.166,8.625 C51.696,8.625 51.341,8.741 51.101,8.973 C50.861,9.206 50.741,9.491 50.741,9.83 C50.741,10.108 50.831,10.33 51.01,10.494 C51.19,10.658 51.438,10.74 51.757,10.74 Z M74.596,11.006 C74.343,11.446 74.022,11.784 73.633,12.022 C73.243,12.259 72.791,12.378 72.275,12.378 C71.411,12.378 70.735,12.085 70.247,11.498 C69.759,10.912 69.515,10.002 69.515,8.768 L69.515,4.013 L71.722,4.013 L71.722,8.783 C71.722,9.502 71.819,9.993 72.014,10.259 C72.208,10.524 72.51,10.657 72.92,10.657 C73.274,10.657 73.577,10.6 73.83,10.487 C74.083,10.372 74.29,10.204 74.452,9.982 L74.452,4.013 L76.666,4.013 L76.666,12.219 L74.831,12.219 L74.596,11.006 Z M77.993,8.04 C77.993,6.817 78.335,5.815 79.017,5.033 C79.7,4.253 80.645,3.862 81.853,3.862 C83.067,3.862 84.017,4.251 84.705,5.03 C85.392,5.808 85.736,6.812 85.736,8.04 L85.736,8.2 C85.736,9.433 85.394,10.438 84.709,11.214 C84.024,11.99 83.077,12.378 81.869,12.378 C80.655,12.378 79.706,11.99 79.021,11.214 C78.336,10.438 77.993,9.434 77.993,8.2 L77.993,8.04 Z M80.2,8.2 C80.2,8.948 80.332,9.548 80.595,10 C80.857,10.453 81.282,10.68 81.869,10.68 C82.439,10.68 82.859,10.452 83.124,9.997 C83.389,9.542 83.522,8.943 83.522,8.2 L83.522,8.04 C83.522,7.312 83.388,6.718 83.12,6.258 C82.852,5.798 82.43,5.568 81.853,5.568 C81.283,5.568 80.863,5.799 80.598,6.262 C80.333,6.725 80.2,7.317 80.2,8.04 L80.2,8.2 Z M91.416,5.917 L90.605,5.894 C90.276,5.894 90.005,5.962 89.794,6.099 C89.5785994,6.23870974 89.4094691,6.43916052 89.308,6.675 L89.308,12.219 L87.101,12.219 L87.101,4.013 L89.157,4.013 L89.255,5.227 C89.447,4.797 89.696,4.462 90.002,4.222 C90.308,3.982 90.661,3.862 91.06,3.862 C91.171,3.862 91.274,3.871 91.367,3.888 C91.461,3.906 91.556,3.928 91.652,3.953 L91.416,5.917 Z M94.897,12.219 L92.683,12.219 L92.683,4.013 L94.897,4.013 L94.897,12.219 Z M94.897,2.049 L92.683,2.049 L92.683,0.389 L94.897,0.389 L94.897,2.049 Z" id="Shape" fill-rule="nonzero"></path>
                <polygon id="Path" points="67.738 7.54 63.432 7.54 63.432 12.2 61.182 12.2 61.182 0.985 68.523 0.985 68.523 2.718 63.432 2.718 63.432 5.807 67.738 5.807"></polygon>
            </g>
            <path d="M25.053,60.042 L22.033,60.042 L20.807,68.225 L19.567,68.225 L20.794,60.042 L17.813,60.042 L17.957,59.067 L25.197,59.067 L25.052,60.042 L25.053,60.042 Z M28.43,68.225 C28.4227502,68.0350823 28.4187496,67.8450545 28.418,67.655 C28.418,67.511 28.426,67.363 28.443,67.212 C28.1517054,67.5432347 27.8031433,67.8193068 27.414,68.027 C27.0346259,68.2404027 26.6072656,68.3539526 26.172,68.357 C25.488,68.357 24.982,68.173 24.653,67.807 C24.323,67.44 24.207,66.942 24.303,66.313 C24.3807215,65.6706702 24.7529276,65.1010875 25.31,64.772 C25.885,64.415 26.63,64.237 27.543,64.237 L28.889,64.237 L28.989,63.564 C29.053,63.149 28.98,62.829 28.773,62.604 C28.565,62.38 28.237,62.268 27.789,62.268 C27.407,62.268 27.071,62.368 26.782,62.57 C26.492,62.771 26.329,63.012 26.292,63.293 L25.109,63.306 L25.103,63.268 C25.153,62.753 25.453,62.294 26.003,61.894 C26.552,61.494 27.218,61.294 28.003,61.294 C28.745,61.294 29.327,61.491 29.751,61.888 C30.175,62.284 30.334,62.847 30.229,63.576 L29.739,66.854 C29.6988539,67.089781 29.6744665,67.3279755 29.666,67.567 C29.66,67.787 29.673,68.007 29.707,68.225 L28.43,68.225 Z M26.512,67.319 C26.9511138,67.3158353 27.3812354,67.1942266 27.757,66.967 C28.16,66.732 28.438,66.467 28.594,66.174 L28.764,65.074 L27.374,65.074 C26.891,65.074 26.476,65.201 26.128,65.457 C25.78,65.713 25.583,66.007 25.537,66.337 C25.487,66.652 25.542,66.894 25.703,67.064 C25.865,67.234 26.134,67.319 26.512,67.319 Z M35.406,62.513 L34.776,62.476 C34.454,62.476 34.169,62.556 33.921,62.718 C33.6608721,62.8930017 33.4454324,63.1265945 33.292,63.4 L32.569,68.225 L31.329,68.225 L32.349,61.419 L33.456,61.419 L33.431,62.381 C33.6502894,62.0600393 33.9327058,61.7871502 34.261,61.579 C34.6453305,61.3426287 35.1006295,61.2491614 35.547,61.315 C35.633,61.33 35.701,61.345 35.752,61.362 L35.406,62.513 Z M35.991,64.948 C36.158,63.811 36.523,62.918 37.085,62.268 C37.647,61.618 38.351,61.293 39.198,61.293 C39.622,61.293 39.985,61.383 40.287,61.563 C40.589,61.744 40.827,62.004 41.004,62.343 L41.294,61.419 L42.281,61.419 L41.255,68.263 C41.117,69.168 40.764,69.847 40.195,70.297 C39.627,70.748 38.859,70.973 37.89,70.973 C37.576,70.973 37.232,70.927 36.859,70.835 C36.525078,70.7578311 36.2033847,70.6350089 35.903,70.47 L36.236,69.508 C36.458,69.634 36.732,69.735 37.056,69.813 C37.376648,69.8899648 37.7052444,69.9288996 38.035,69.929 C38.614,69.929 39.067,69.789 39.397,69.511 C39.726,69.232 39.932,68.816 40.017,68.263 L40.129,67.489 C39.8782746,67.7645436 39.5732017,67.9851767 39.233,68.137 C38.8844555,68.2867992 38.5083423,68.3617493 38.129,68.357 C37.332,68.357 36.737,68.053 36.343,67.445 C35.949,66.837 35.825,66.048 35.972,65.08 L35.991,64.948 Z M37.211,65.08 C37.101,65.788 37.157,66.344 37.378,66.747 C37.598,67.149 38.003,67.35 38.595,67.35 C38.955,67.35 39.276,67.263 39.557,67.09 C39.8533064,66.9007884 40.1061867,66.6509754 40.299,66.357 L40.771,63.243 C40.661962,62.9698362 40.4804403,62.7316105 40.246,62.554 C40.017,62.384 39.723,62.3 39.362,62.3 C38.796,62.3 38.327,62.55 37.956,63.048 C37.586,63.548 37.343,64.18 37.23,64.948 L37.21,65.08 L37.211,65.08 Z M45.841,68.357 C44.901,68.357 44.196,68.04 43.724,67.407 C43.252,66.774 43.092,65.957 43.243,64.954 L43.287,64.677 C43.434,63.662 43.833,62.845 44.485,62.224 C45.137,61.604 45.876,61.294 46.702,61.294 C47.579,61.294 48.21,61.58 48.596,62.155 C48.981,62.729 49.106,63.478 48.966,64.4 L48.872,65.055 L44.469,65.055 C44.373,65.775 44.444,66.345 44.683,66.762 C44.923,67.18 45.356,67.388 45.985,67.388 C46.388,67.388 46.762,67.328 47.108,67.206 C47.454,67.084 47.753,66.921 48.004,66.716 L48.369,67.52 C48.0551932,67.7763242 47.7001493,67.9775157 47.319,68.115 C46.895,68.276 46.403,68.357 45.841,68.357 Z M46.558,62.268 C46.143,62.268 45.766,62.436 45.428,62.771 C45.091,63.107 44.849,63.531 44.702,64.042 L44.715,64.08 L47.778,64.08 L47.791,63.98 C47.866,63.472 47.807,63.06 47.614,62.743 C47.422,62.426 47.069,62.268 46.558,62.268 Z M52.772,59.778 L52.527,61.419 L53.817,61.419 L53.678,62.337 L52.388,62.337 L51.772,66.47 C51.722,66.801 51.752,67.029 51.863,67.152 C51.974,67.276 52.141,67.338 52.363,67.338 C52.5237242,67.3313203 52.6826669,67.301687 52.835,67.25 L52.879,68.099 C52.774,68.174 52.629,68.236 52.442,68.285 C52.264444,68.3319232 52.0816495,68.3561166 51.898,68.357 C51.411,68.357 51.038,68.204 50.775,67.897 C50.513,67.592 50.432,67.116 50.533,66.47 L51.149,62.337 L50.068,62.337 L50.206,61.419 L51.288,61.419 L51.533,59.777 L52.773,59.777 L52.772,59.778 Z M61.509,68.225 C61.5014168,68.035088 61.4970828,67.8450602 61.496,67.655 C61.496,67.511 61.505,67.363 61.522,67.212 C61.2307054,67.5432347 60.8821433,67.8193068 60.493,68.027 C60.1136259,68.2404027 59.6862656,68.3539526 59.251,68.357 C58.567,68.357 58.061,68.173 57.731,67.807 C57.403,67.44 57.286,66.942 57.383,66.313 C57.4604977,65.670859 57.8323101,65.1013134 58.389,64.772 C58.964,64.415 59.708,64.237 60.622,64.237 L61.968,64.237 L62.068,63.564 C62.132,63.149 62.059,62.829 61.852,62.604 C61.644,62.38 61.316,62.268 60.867,62.268 C60.486,62.268 60.15,62.368 59.861,62.57 C59.571,62.771 59.408,63.012 59.371,63.293 L58.188,63.306 L58.182,63.268 C58.232,62.753 58.532,62.294 59.081,61.894 C59.631,61.494 60.297,61.294 61.081,61.294 C61.823,61.294 62.406,61.491 62.83,61.888 C63.253,62.284 63.413,62.847 63.308,63.576 L62.818,66.854 C62.7778539,67.089781 62.7534665,67.3279755 62.745,67.567 C62.739,67.787 62.752,68.007 62.785,68.225 L61.509,68.225 Z M59.591,67.319 C60.0301138,67.3158353 60.4602354,67.1942266 60.836,66.967 C61.238,66.732 61.517,66.467 61.672,66.174 L61.842,65.074 L60.452,65.074 C59.97,65.074 59.555,65.201 59.207,65.457 C58.859,65.713 58.662,66.007 58.616,66.337 C58.566,66.652 58.621,66.894 58.782,67.064 C58.944,67.234 59.213,67.319 59.591,67.319 Z M65.748,68.225 L64.509,68.225 L65.981,58.412 L67.221,58.412 L65.748,68.225 Z M70.642,59.777 L70.397,61.419 L71.687,61.419 L71.547,62.337 L70.258,62.337 L69.642,66.47 C69.592,66.801 69.622,67.029 69.733,67.152 C69.844,67.276 70.011,67.338 70.233,67.338 C70.3937242,67.3313203 70.5526669,67.301687 70.705,67.25 L70.749,68.099 C70.644,68.174 70.499,68.236 70.312,68.285 C70.134444,68.3319232 69.9516495,68.3561166 69.768,68.357 C69.281,68.357 68.907,68.204 68.645,67.897 C68.383,67.592 68.302,67.116 68.403,66.47 L69.019,62.337 L67.937,62.337 L68.076,61.419 L69.158,61.419 L69.403,59.777 L70.642,59.777 Z M72.227,64.759 C72.382,63.715 72.777,62.876 73.413,62.243 C74.048,61.61 74.837,61.293 75.781,61.293 C76.687,61.293 77.373,61.621 77.841,62.278 C78.308,62.934 78.469,63.761 78.322,64.759 L78.297,64.897 C78.137,65.95 77.741,66.79 77.108,67.417 C76.475,68.043 75.684,68.357 74.737,68.357 C73.831,68.357 73.144,68.03 72.677,67.376 C72.209,66.721 72.051,65.896 72.202,64.897 L72.227,64.759 Z M73.441,64.897 C73.328,65.644 73.389,66.246 73.623,66.703 C73.858,67.16 74.278,67.388 74.881,67.388 C75.447,67.388 75.924,67.15 76.312,66.674 C76.7,66.198 76.949,65.606 77.058,64.897 L77.083,64.759 C77.192,64.021 77.128,63.421 76.891,62.96 C76.654,62.499 76.236,62.268 75.636,62.268 C75.066,62.268 74.586,62.508 74.199,62.988 C73.811,63.468 73.567,64.058 73.466,64.759 L73.441,64.897 Z M22.123,163.977 L19.153,163.977 L17.946,172.029 L16.726,172.029 L17.934,163.977 L15,163.977 L15.143,163.017 L22.266,163.017 L22.124,163.977 L22.123,163.977 Z M25.447,172.029 C25.4398123,171.842415 25.4358118,171.655721 25.435,171.469 C25.435,171.327 25.443,171.181 25.46,171.033 C25.1734311,171.358528 24.8306387,171.629849 24.448,171.834 C24.0744454,172.044183 23.6536152,172.156014 23.225,172.159 C22.553,172.159 22.055,171.979 21.731,171.618 C21.407,171.257 21.292,170.767 21.387,170.148 C21.482,169.488 21.812,168.982 22.377,168.631 C22.943,168.281 23.675,168.105 24.575,168.105 L25.899,168.105 L25.999,167.443 C26.06,167.035 25.989,166.72 25.785,166.499 C25.58,166.279 25.258,166.169 24.816,166.169 C24.46319,166.161888 24.1170035,166.265394 23.826,166.465 C23.541,166.663 23.38,166.901 23.343,167.177 L22.18,167.189 L22.173,167.152 C22.223,166.645 22.518,166.194 23.058,165.8 C23.598,165.406 24.255,165.209 25.026,165.209 C25.756,165.209 26.33,165.404 26.747,165.794 C27.164,166.184 27.321,166.738 27.217,167.455 L26.735,170.68 C26.6957545,170.912162 26.6720352,171.146682 26.664,171.382 C26.657,171.599 26.671,171.815 26.704,172.029 L25.447,172.029 Z M23.56,171.138 C23.98,171.138 24.389,171.022 24.785,170.791 C25.181,170.561 25.455,170.301 25.608,170.011 L25.775,168.928 L24.408,168.928 C23.933,168.928 23.525,169.054 23.182,169.306 C22.84,169.558 22.646,169.846 22.6,170.172 C22.55,170.482 22.606,170.72 22.764,170.887 C22.924,171.054 23.188,171.138 23.56,171.138 Z M32.311,166.41 L31.692,166.372 C31.374,166.372 31.094,166.452 30.85,166.611 C30.607,166.77 30.4,166.993 30.232,167.282 L29.52,172.029 L28.3,172.029 L29.303,165.333 L30.393,165.333 L30.368,166.28 C30.607,165.941 30.879,165.678 31.185,165.49 C31.5630264,165.257409 32.0108827,165.16536 32.45,165.23 C32.535,165.245 32.602,165.26 32.651,165.277 L32.311,166.41 Z M32.887,168.805 C33.052,167.687 33.411,166.808 33.964,166.168 C34.516,165.528 35.21,165.208 36.044,165.208 C36.46,165.208 36.817,165.298 37.114,165.475 C37.411,165.652 37.646,165.908 37.819,166.242 L38.104,165.332 L39.076,165.332 L38.066,172.066 C37.931,172.958 37.583,173.625 37.024,174.069 C36.465,174.512 35.709,174.734 34.756,174.734 C34.446,174.734 34.108,174.688 33.741,174.598 C33.412275,174.52183 33.0956252,174.400689 32.8,174.238 L33.128,173.292 C33.347,173.416 33.616,173.516 33.936,173.592 C34.256,173.668 34.576,173.706 34.898,173.706 C35.468,173.706 35.914,173.569 36.238,173.295 C36.562,173.021 36.765,172.611 36.848,172.066 L36.959,171.306 C36.699,171.586 36.405,171.798 36.077,171.943 C35.749,172.087 35.387,172.159 34.991,172.159 C34.207,172.159 33.621,171.86 33.233,171.262 C32.845,170.663 32.723,169.888 32.868,168.935 L32.887,168.805 Z M34.087,168.935 C33.98,169.632 34.035,170.179 34.251,170.575 C34.468,170.971 34.867,171.169 35.449,171.169 C35.804,171.169 36.119,171.083 36.396,170.912 C36.687392,170.726174 36.9361726,170.480801 37.126,170.192 L37.59,167.127 C37.482726,166.858631 37.3043327,166.624576 37.074,166.45 C36.849,166.283 36.559,166.2 36.204,166.2 C35.647,166.2 35.186,166.445 34.821,166.936 C34.456,167.426 34.217,168.05 34.106,168.805 L34.087,168.935 Z M42.579,172.159 C41.655,172.159 40.96,171.848 40.496,171.225 C40.032,170.602 39.874,169.797 40.023,168.811 L40.066,168.539 C40.21,167.54 40.603,166.735 41.245,166.125 C41.887,165.515 42.614,165.209 43.427,165.209 C44.289,165.209 44.91,165.491 45.29,166.057 C45.67,166.622 45.79,167.359 45.655,168.267 L45.562,168.91 L41.23,168.91 C41.135,169.62 41.205,170.18 41.44,170.59 C41.675,171 42.102,171.206 42.721,171.206 C43.117,171.206 43.485,171.146 43.826,171.026 C44.1458139,170.917895 44.444296,170.754779 44.708,170.544 L45.067,171.336 C44.7579341,171.588127 44.4082973,171.785939 44.033,171.921 C43.616,172.08 43.132,172.159 42.579,172.159 Z M43.284,166.169 C42.876,166.169 42.506,166.333 42.174,166.663 C41.831504,167.010767 41.585138,167.441477 41.459,167.913 L41.471,167.951 L44.485,167.951 L44.497,167.851 C44.572,167.352 44.514,166.947 44.324,166.635 C44.134,166.324 43.788,166.168 43.284,166.168 L43.284,166.169 Z M49.399,163.717 L49.158,165.333 L50.427,165.333 L50.29,166.236 L49.023,166.236 L48.416,170.302 C48.366,170.628 48.396,170.852 48.506,170.974 C48.616,171.096 48.779,171.157 48.998,171.157 C49.1560215,171.150253 49.3122678,171.120957 49.462,171.07 L49.505,171.905 C49.3739607,171.991591 49.2282517,172.053602 49.075,172.088 C48.9003858,172.134191 48.7206179,172.158048 48.54,172.159 C48.061,172.159 47.693,172.009 47.435,171.707 C47.177,171.407 47.098,170.937 47.197,170.302 L47.803,166.236 L46.739,166.236 L46.875,165.333 L47.94,165.333 L48.18,163.717 L49.4,163.717 L49.399,163.717 Z M60.063,168.935 C59.91,169.937 59.562,170.725 59.017,171.299 C58.472,171.872 57.789,172.159 56.968,172.159 C56.535,172.159 56.168,172.069 55.867,171.887 C55.5576543,171.696554 55.3119112,171.41844 55.161,171.088 L54.815,172.029 L53.88,172.029 L55.328,162.374 L56.548,162.374 L55.984,166.124 C56.244,165.828 56.541,165.601 56.876,165.444 C57.2272995,165.283618 57.609863,165.203348 57.996,165.209 C58.788,165.209 59.373,165.542 59.75,166.209 C60.128,166.875 60.238,167.74 60.082,168.805 L60.062,168.935 L60.063,168.935 Z M58.863,168.805 C58.982,168.008 58.937,167.375 58.726,166.905 C58.516,166.435 58.12,166.199 57.538,166.199 C57.175,166.199 56.848,166.293 56.557,166.481 C56.266,166.668 56.019,166.921 55.817,167.239 L55.384,170.123 C55.491,170.453 55.658,170.71 55.885,170.893 C56.112,171.077 56.42,171.169 56.807,171.169 C57.36,171.169 57.813,170.962 58.166,170.547 C58.519,170.132 58.745,169.595 58.844,168.935 L58.862,168.805 L58.863,168.805 Z M65.2,172.029 C65.1928123,171.842415 65.1888118,171.655721 65.188,171.469 C65.188,171.327 65.196,171.181 65.212,171.033 C64.9254311,171.358528 64.5826387,171.629849 64.2,171.834 C63.8267413,172.044019 63.4062759,172.155845 62.978,172.159 C62.305,172.159 61.808,171.979 61.483,171.618 C61.159,171.257 61.045,170.767 61.14,170.148 C61.235,169.488 61.565,168.982 62.13,168.631 C62.695,168.281 63.428,168.105 64.327,168.105 L65.652,168.105 L65.751,167.443 C65.813,167.035 65.741,166.72 65.537,166.499 C65.333,166.279 65.01,166.169 64.569,166.169 C64.21619,166.161888 63.8700035,166.265394 63.579,166.465 C63.294,166.663 63.133,166.901 63.096,167.177 L61.932,167.189 L61.926,167.152 C61.976,166.645 62.27,166.194 62.811,165.8 C63.351,165.406 64.007,165.209 64.779,165.209 C65.509,165.209 66.083,165.404 66.499,165.794 C66.916,166.184 67.073,166.738 66.97,167.455 L66.487,170.68 C66.4480897,170.912184 66.4247045,171.146704 66.417,171.382 C66.41,171.599 66.423,171.815 66.457,172.029 L65.2,172.029 Z M63.312,171.138 C63.733,171.138 64.142,171.022 64.538,170.791 C64.934,170.561 65.208,170.301 65.361,170.011 L65.528,168.928 L64.16,168.928 C63.686,168.928 63.277,169.054 62.935,169.306 C62.592,169.558 62.398,169.846 62.353,170.172 C62.303,170.482 62.358,170.72 62.517,170.887 C62.676,171.054 62.941,171.138 63.312,171.138 Z M72.231,170.228 C72.268,169.952 72.198,169.731 72.021,169.566 C71.843,169.401 71.476,169.254 70.919,169.126 C70.151,168.957 69.577,168.72 69.195,168.415 C68.813,168.109 68.66,167.701 68.734,167.189 C68.812,166.62 69.108,166.148 69.622,165.772 C70.136,165.397 70.766,165.209 71.512,165.209 C72.239,165.209 72.817,165.417 73.246,165.834 C73.675,166.251 73.842,166.729 73.747,167.27 L73.735,167.307 L72.565,167.307 C72.60823,167.01564 72.5093386,166.721197 72.299,166.515 C72.08,166.284 71.775,166.168 71.383,166.168 C70.97,166.168 70.639,166.266 70.389,166.462 C70.139,166.658 69.996,166.888 69.959,167.152 C69.922,167.425 69.984,167.631 70.145,167.772 C70.305,167.912 70.669,168.042 71.235,168.161 C72.031,168.334 72.619,168.58 72.998,168.898 C73.378,169.215 73.532,169.63 73.462,170.142 C73.376,170.756 73.068,171.246 72.54,171.612 C72.012,171.977 71.356,172.159 70.572,172.159 C69.755,172.159 69.122,171.941 68.675,171.503 C68.227,171.066 68.055,170.563 68.158,169.993 L68.171,169.956 L69.341,169.956 C69.303,170.389 69.421,170.706 69.693,170.906 C69.965,171.106 70.303,171.206 70.708,171.206 C71.125,171.206 71.472,171.113 71.748,170.928 C72.024,170.742 72.185,170.508 72.231,170.228 Z M78.859,170.228 C78.896,169.952 78.826,169.731 78.649,169.566 C78.471,169.401 78.104,169.254 77.547,169.126 C76.78,168.957 76.205,168.72 75.823,168.415 C75.442,168.109 75.288,167.701 75.363,167.189 C75.441,166.62 75.737,166.148 76.251,165.772 C76.764,165.397 77.394,165.209 78.141,165.209 C78.867,165.209 79.445,165.417 79.874,165.834 C80.304,166.251 80.47,166.729 80.376,167.27 L80.363,167.307 L79.193,167.307 C79.23623,167.01564 79.1373386,166.721197 78.927,166.515 C78.709,166.284 78.403,166.168 78.011,166.168 C77.599,166.168 77.268,166.266 77.018,166.462 C76.768,166.658 76.625,166.888 76.588,167.152 C76.551,167.425 76.613,167.631 76.773,167.772 C76.934,167.912 77.298,168.042 77.863,168.161 C78.659,168.334 79.247,168.58 79.627,168.898 C80.007,169.215 80.161,169.63 80.091,170.142 C80.004,170.756 79.697,171.246 79.169,171.612 C78.641,171.977 77.985,172.159 77.201,172.159 C76.384,172.159 75.751,171.941 75.304,171.503 C74.856,171.066 74.684,170.563 74.787,169.993 L74.799,169.956 L75.969,169.956 C75.932,170.389 76.049,170.706 76.322,170.906 C76.594,171.106 76.932,171.206 77.337,171.206 C77.753,171.206 78.1,171.113 78.377,170.928 C78.653,170.742 78.814,170.508 78.859,170.228 Z M81.539,168.619 C81.692,167.592 82.081,166.766 82.706,166.143 C83.331,165.52 84.108,165.209 85.036,165.209 C85.927,165.209 86.603,165.532 87.063,166.177 C87.523,166.823 87.681,167.637 87.536,168.619 L87.512,168.755 C87.355,169.791 86.965,170.617 86.342,171.234 C85.719,171.851 84.941,172.159 84.009,172.159 C83.117,172.159 82.442,171.837 81.982,171.194 C81.522,170.55 81.366,169.737 81.514,168.755 L81.539,168.619 Z M82.734,168.755 C82.622,169.49 82.682,170.082 82.914,170.531 C83.144,170.981 83.557,171.206 84.151,171.206 C84.708,171.206 85.177,170.972 85.559,170.504 C85.941,170.035 86.185,169.452 86.292,168.755 L86.317,168.619 C86.424,167.893 86.361,167.303 86.128,166.849 C85.895,166.395 85.484,166.169 84.894,166.169 C84.332,166.169 83.861,166.404 83.479,166.877 C83.098,167.349 82.857,167.93 82.759,168.619 L82.734,168.755 Z" id="Shape" fill="#6D6E71" fill-rule="nonzero"></path>
            <g id="Group" transform="translate(24.663000, 129.000000)" fill="#2A3052" fill-rule="nonzero">
                <path d="M4.899,3.428 L5.006,4.535 C5.44430548,3.76910769 6.26573108,3.30355648 7.148,3.321 C7.933,3.321 8.54,3.535 8.968,4.035 C9.398,4.499 9.611,5.213 9.611,6.177 L9.611,10.818 L8.291,10.818 L8.291,6.213 C8.291,5.57 8.148,5.106 7.898,4.82 C7.648,4.535 7.255,4.427 6.755,4.427 C6.363,4.427 6.041,4.535 5.755,4.713 C5.45744523,4.89832888 5.21205096,5.15645749 5.042,5.463 L5.042,10.818 L3.72,10.818 L3.72,3.464 L4.898,3.428 L4.899,3.428 Z M0.224,0.795 L1.458,0.795 L1.458,10.547 L0.224,10.547 L0.224,0.795 Z M22.022,3.365 L23.326,3.365 L23.326,10.542 L22.022,10.542 L22.022,3.365 Z M22.04,0.105 L22.04,1.4 L23.368,1.4 L23.368,0.105 L22.04,0.105 Z M11.656,3.376 L12.96,3.376 L12.96,10.554 L11.656,10.554 L11.656,3.376 Z M11.674,0.116 L11.674,1.41 L13.002,1.41 L13.002,0.116 L11.674,0.116 Z" id="Shape"></path>
                <path d="M11.631,3.376 L12.935,3.376 L12.935,10.554 L11.631,10.554 L11.631,3.376 Z M11.649,0.116 L11.649,1.41 L12.977,1.41 L12.977,0.116 L11.649,0.116 Z M14.74,4.351 L14.74,3.321 L20.231,3.321 L20.231,4.19 L16.264,9.569 L20.441,9.569 L20.441,10.547 L14.741,10.547 L14.741,9.713 L18.661,4.351 L14.74,4.351 Z M28.415,3.157 C30.573,3.157 31.536,4.731 31.698,6.549 C31.86,8.367 31.096,10.55 28.71,10.736 C26.325,10.923 25.132,8.996 25.132,6.964 C25.132,4.932 26.258,3.157 28.415,3.157 Z M28.364,4.194 C27.56,4.194 26.61,4.677 26.488,6.648 C26.366,8.618 27.16,9.7 28.426,9.7 C29.692,9.7 30.361,8.55 30.361,6.648 C30.361,4.745 29.167,4.194 28.364,4.194 Z" id="Shape"></path>
            </g>
            <g id="Group-32" transform="translate(112.663000, 158.000000)" fill="#FFFFFF" fill-rule="nonzero">
                <g id="Group" transform="translate(68.000000, 0.000000)">
                    <path d="M2.62,7.914 L0.4,7.914 L0.4,0.566 L2.62,0.566 L2.62,7.914 Z M2.62,11.78 L0.4,11.78 L0.4,9.806 L2.62,9.806 L2.62,11.78 Z" id="Shape"></path>
                </g>
                <path d="M51.535,3.621 L53.132,3.621 L53.212,4.784 C53.867,3.809 54.715,3.375 55.758,3.483 C56.362,3.546 57.635,3.743 58.015,5.458 C58.155,6.087 58.125,7.149 58.115,8.593 C58.11,9.153 58.11,10.123 58.115,11.503 L56.362,11.503 L56.362,6.566 C56.362,5.986 56.199,5.337 55.712,5.092 C55.043,4.754 53.783,4.896 53.278,5.746 L53.278,11.504 L51.535,11.504 L51.535,3.621 Z M4.303,7.339 L4.303,6.045 L8.217,6.045 C8.261,8.3 8.261,9.615 8.217,9.989 C7.887,10.977 3.978,12.771 1.454,10.495 C0.702,9.816 0.348,9.065 0.154,7.926 C0.146,6.764 0.125,5.673 0.134,4.642 C0.324,3.378 0.748,2.66 1.089,2.252 C2.329,0.769 4.307,0.45 6.046,1.05 C7.784,1.651 8.01,2.9 8.151,4.122 C7.748,4.122 7.536,4.104 6.448,4.122 C6.558,3.434 5.933,2.106 4.302,2.179 C2.67,2.252 1.9,3.592 1.9,4.709 C1.9,5.826 1.842,5.451 1.9,7.669 C1.974,10.218 5.029,10.902 6.448,9.541 L6.5,7.371 L4.303,7.339 Z M63.089,3.48 C65.273,3.48 66.458,4.812 66.757,6.807 C67.057,8.802 65.98,11.62 63.243,11.62 C60.505,11.62 59.62,9.539 59.62,7.385 C59.62,5.231 60.905,3.481 63.089,3.481 L63.089,3.48 Z M63.109,4.879 C62.459,4.94 61.309,5.395 61.376,7.549 C61.443,9.702 62.385,10.208 63.109,10.208 C63.832,10.208 65.053,10.008 65.053,7.558 C65.053,5.108 63.758,4.818 63.109,4.878 L63.109,4.879 Z" id="Shape"></path>
                <path d="M10.143,3.682 C10.853,3.704 11.415,3.704 11.83,3.682 L11.83,8.117 C11.83,9.877 12.476,10.179 13.104,10.239 C13.8289619,10.303849 14.5317489,9.96893302 14.938,9.365 C14.953,7.341 14.953,5.447 14.938,3.682 L16.746,3.682 L16.746,11.512 L15.2,11.512 L15.035,10.362 C14.489,11.303 13.633,11.722 12.467,11.619 C10.717,11.464 10.143,9.971 10.143,8.584 C10.143,6.164 10.105,4.903 10.143,3.682 Z M20.438,5.843 C19.903,5.839 19.342,5.839 18.755,5.843 C18.755,4.998 19.359,3.467 21.776,3.467 C24.194,3.467 24.774,5.127 24.84,5.485 C24.905,5.843 24.671,10.857 25.177,11.427 L23.381,11.429 C23.233,10.921 23.159,10.546 23.159,10.303 C22.879,10.645 22.396,11.27 21.656,11.5 C20.916,11.73 19.233,11.853 18.544,10.238 C18.09,9.175 18.38,7.978 19.234,7.43 C20.643,6.524 22.58,6.827 23.159,6.827 C23.233,5.212 22.751,4.836 21.656,4.836 C20.926,4.836 20.52,5.171 20.438,5.843 Z M23.158,7.932 C22.628,7.921 22.269,7.919 21.384,7.946 C20.679,8.008 20.052,8.53 20.105,9.272 C20.169,10.158 21.175,10.32 21.964,10.065 C22.625,9.851 23.086,9.297 23.158,9.062 L23.158,7.932 Z M36.748,5.843 C36.212,5.839 35.651,5.839 35.065,5.843 C35.065,4.998 35.669,3.467 38.086,3.467 C40.504,3.467 41.084,5.127 41.15,5.485 C41.215,5.843 40.981,10.857 41.487,11.427 L39.691,11.429 C39.543,10.921 39.468,10.546 39.468,10.303 C39.188,10.645 38.706,11.27 37.966,11.5 C37.226,11.73 35.543,11.853 34.854,10.238 C34.4,9.175 34.69,7.978 35.544,7.43 C36.953,6.524 38.89,6.827 39.468,6.827 C39.543,5.212 39.061,4.836 37.966,4.836 C37.236,4.836 36.83,5.171 36.748,5.843 Z M39.468,7.932 C38.937,7.921 38.579,7.919 37.694,7.946 C36.989,8.008 36.361,8.53 36.414,9.272 C36.479,10.158 37.485,10.32 38.274,10.065 C38.934,9.851 39.396,9.297 39.468,9.062 L39.468,7.932 Z M31.42,0.23 L33.123,0.23 L33.123,11.515 L31.723,11.515 C31.6448708,11.1832251 31.5738545,10.8498154 31.51,10.515 C31.23,11.295 28.383,12.67 26.974,10.342 C25.796,8.397 26.444,5.783 27.044,4.837 C27.494,4.127 29.32,2.303 31.42,4.534 C31.423,1.913 31.423,0.478 31.42,0.229 L31.42,0.23 Z M31.43,5.92 C31.158,5.06 29.333,4.516 28.6,5.57 C27.868,6.623 27.902,7.974 28.32,9.209 C28.74,10.444 30.532,10.68 31.43,9.321 L31.43,5.921 L31.43,5.92 Z M48.074,4.673 L48.25,3.681 L49.684,3.681 L49.684,11.625 C49.689,14.394 46.58,15.455 43.724,14.071 C43.887,13.255 43.977,12.798 43.994,12.701 C45.238,13.117 48.335,14.157 47.941,10.711 C46.163,12.532 44.151,11.428 43.454,10.211 C42.686,8.869 42.186,4.863 44.658,3.783 C46.082,3.161 47.221,3.457 48.074,4.673 Z M47.925,5.884 C47.587,5.373 47.37,4.946 46.235,4.946 C45.098,4.946 44.387,6.34 44.634,8.479 C44.88,10.619 47.203,10.619 47.925,9.266 L47.925,5.884 Z" id="Shape"></path>
            </g>
            <g id="Group" transform="translate(267.663000, 61.000000)" fill="#2A3052" fill-rule="nonzero">
                <path d="M11.767,3.709 L11.861,4.679 C12.2452725,4.00803039 12.9649262,3.60008607 13.738,3.615 C14.427,3.615 14.959,3.803 15.335,4.241 C15.71,4.648 15.898,5.274 15.898,6.119 L15.898,10.187 L14.74,10.187 L14.74,6.15 C14.74,5.587 14.615,5.18 14.396,4.93 C14.176,4.68 13.832,4.585 13.394,4.585 C13.05,4.585 12.768,4.679 12.518,4.835 C12.268,4.992 12.048,5.211 11.892,5.493 L11.892,10.187 L10.734,10.187 L10.734,3.74 L11.767,3.709 Z M6.29,1.373 L6.29,2.283 L1.925,2.283 L1.925,5.374 L5.643,5.374 L5.643,6.311 L1.925,6.311 L1.925,10.268 L0.643,10.268 L0.643,1.373 L6.29,1.373 Z M22.659,7.137 L18.508,7.137 C18.508,7.907 18.665,8.465 18.98,8.808 C19.393,9.26 19.828,9.423 20.425,9.364 C21.467,9.26 21.669,8.981 22.1,8.734 L22.54,9.488 C22.026,10.018 21.204,10.284 20.075,10.284 C18.381,10.284 17.349,8.88 17.281,7.209 C17.214,5.539 17.881,3.599 20.075,3.519 C21.935,3.568 22.795,4.774 22.659,7.137 Z M21.493,6.219 C21.481,5.043 21.009,4.456 20.076,4.456 C19.143,4.456 18.634,5.043 18.546,6.219 L21.493,6.219 Z M7.64,3.718 L8.805,3.718 L8.805,10.133 L7.639,10.133 L7.64,3.718 Z M7.655,0.805 L7.655,1.962 L8.842,1.962 L8.842,0.805 L7.655,0.805 Z" id="Shape"></path>
            </g>
        </g>
    </g>
</svg>