<?xml version="1.0" encoding="UTF-8"?>
<svg width="299px" height="197px" viewBox="0 0 299 197" version="1.1" xmlns="http://www.w3.org/2000/svg" xmlns:xlink="http://www.w3.org/1999/xlink">
    <!-- Generator: Sketch 52.6 (67491) - http://www.bohemiancoding.com/sketch -->
    <title>high-low</title>
    <desc>Created with Sketch.</desc>
    <g id="Page-1" stroke="none" stroke-width="1" fill="none" fill-rule="evenodd">
        <g id="high-low">
            <g id="Group">
                <polygon id="Shape" fill="#F1F2F2" points="0 0 299 0 299 197 0 197"></polygon>
                <path d="M1.98671096,1.9798995 L1.98671096,195.020101 L297.013289,195.020101 L297.013289,1.9798995 L1.98671096,1.9798995 Z M299,0 L299,197 L0,197 L0,0 L299,0 Z" id="Shape" fill="#C2C2C2" fill-rule="nonzero"></path>
                <path d="M4.887,56.1681983 L4.887,54.9623677 L294.54325,54.9623677 L294.54325,56.1681983 L4.887,56.1681983 Z M4.887,96.4974436 L4.887,95.291613 L294.54325,95.291613 L294.54325,96.4974436 L4.887,96.4974436 Z M4.887,136.826689 L4.887,135.620859 L294.54325,135.620859 L294.54325,136.826689 L4.887,136.826689 Z M4.887,177.118764 L4.887,175.912934 L294.54325,175.912934 L294.54325,177.118764 L4.887,177.118764 Z M39.2670847,35.4192453 L40.4729153,35.4192453 L40.4729153,194.283019 L39.2670847,194.283019 L39.2670847,35.4192453 Z M75.9319597,35.4192453 L77.1377903,35.4192453 L77.1377903,194.283019 L75.9319597,194.283019 L75.9319597,35.4192453 Z M112.55946,35.4192453 L113.76529,35.4192453 L113.76529,194.283019 L112.55946,194.283019 L112.55946,35.4192453 Z M149.224335,35.4192453 L150.430165,35.4192453 L150.430165,194.283019 L149.224335,194.283019 L149.224335,35.4192453 Z M185.851835,35.4192453 L187.057665,35.4192453 L187.057665,194.283019 L185.851835,194.283019 L185.851835,35.4192453 Z M222.479335,35.4192453 L223.685165,35.4192453 L223.685165,194.283019 L222.479335,194.283019 L222.479335,35.4192453 Z M4.887,116.643481 L4.887,115.437651 L294.54325,115.437651 L294.54325,116.643481 L4.887,116.643481 Z" id="Shape-2" fill="#DFDEDE" fill-rule="nonzero"></path>
                <path d="M4.887,65.1614382 L4.887,64.0336562 L12.3557552,64.0336562 L12.3557552,65.1614382 L4.887,65.1614382 Z M19.8245105,65.1614382 L19.8245105,64.0336562 L27.2932657,64.0336562 L27.2932657,65.1614382 L19.8245105,65.1614382 Z M34.762021,65.1614382 L34.762021,64.0336562 L42.2307762,64.0336562 L42.2307762,65.1614382 L34.762021,65.1614382 Z M49.6995315,65.1614382 L49.6995315,64.0336562 L57.1682867,64.0336562 L57.1682867,65.1614382 L49.6995315,65.1614382 Z M64.637042,65.1614382 L64.637042,64.0336562 L72.1057972,64.0336562 L72.1057972,65.1614382 L64.637042,65.1614382 Z M79.5745525,65.1614382 L79.5745525,64.0336562 L87.0433077,64.0336562 L87.0433077,65.1614382 L79.5745525,65.1614382 Z M94.5120629,65.1614382 L94.5120629,64.0336562 L101.980818,64.0336562 L101.980818,65.1614382 L94.5120629,65.1614382 Z M109.449573,65.1614382 L109.449573,64.0336562 L116.918329,64.0336562 L116.918329,65.1614382 L109.449573,65.1614382 Z M124.387084,65.1614382 L124.387084,64.0336562 L131.855839,64.0336562 L131.855839,65.1614382 L124.387084,65.1614382 Z M139.324594,65.1614382 L139.324594,64.0336562 L146.79335,64.0336562 L146.79335,65.1614382 L139.324594,65.1614382 Z M154.262105,65.1614382 L154.262105,64.0336562 L161.73086,64.0336562 L161.73086,65.1614382 L154.262105,65.1614382 Z M169.199615,65.1614382 L169.199615,64.0336562 L176.668371,64.0336562 L176.668371,65.1614382 L169.199615,65.1614382 Z M184.137126,65.1614382 L184.137126,64.0336562 L191.605881,64.0336562 L191.605881,65.1614382 L184.137126,65.1614382 Z M199.074636,65.1614382 L199.074636,64.0336562 L206.543392,64.0336562 L206.543392,65.1614382 L199.074636,65.1614382 Z M214.012147,65.1614382 L214.012147,64.0336562 L221.480902,64.0336562 L221.480902,65.1614382 L214.012147,65.1614382 Z M228.949657,65.1614382 L228.949657,64.0336562 L236.418413,64.0336562 L236.418413,65.1614382 L228.949657,65.1614382 Z M243.887168,65.1614382 L243.887168,64.0336562 L251.355923,64.0336562 L251.355923,65.1614382 L243.887168,65.1614382 Z M258.824678,65.1614382 L258.824678,64.0336562 L266.293434,64.0336562 L266.293434,65.1614382 L258.824678,65.1614382 Z M273.762189,65.1614382 L273.762189,64.0336562 L281.230944,64.0336562 L281.230944,65.1614382 L273.762189,65.1614382 Z M288.699699,65.1614382 L288.699699,64.0336562 L294.54325,64.0336562 L294.54325,65.1614382 L288.699699,65.1614382 Z" id="Shape-3" fill="#15212D" fill-rule="nonzero"></path>
                <polygon id="Path" fill="#2A3052" fill-rule="nonzero" points="240.45671 35.4192453 241.66254 35.4192453 241.66254 194.283019 240.45671 194.283019"></polygon>
                <path d="M4.887,157.677099 L4.887,156.549317 L12.3557552,156.549317 L12.3557552,157.677099 L4.887,157.677099 Z M19.8245105,157.677099 L19.8245105,156.549317 L27.2932657,156.549317 L27.2932657,157.677099 L19.8245105,157.677099 Z M34.762021,157.677099 L34.762021,156.549317 L42.2307762,156.549317 L42.2307762,157.677099 L34.762021,157.677099 Z M49.6995315,157.677099 L49.6995315,156.549317 L57.1682867,156.549317 L57.1682867,157.677099 L49.6995315,157.677099 Z M64.637042,157.677099 L64.637042,156.549317 L72.1057972,156.549317 L72.1057972,157.677099 L64.637042,157.677099 Z M79.5745525,157.677099 L79.5745525,156.549317 L87.0433077,156.549317 L87.0433077,157.677099 L79.5745525,157.677099 Z M94.5120629,157.677099 L94.5120629,156.549317 L101.980818,156.549317 L101.980818,157.677099 L94.5120629,157.677099 Z M109.449573,157.677099 L109.449573,156.549317 L116.918329,156.549317 L116.918329,157.677099 L109.449573,157.677099 Z M124.387084,157.677099 L124.387084,156.549317 L131.855839,156.549317 L131.855839,157.677099 L124.387084,157.677099 Z M139.324594,157.677099 L139.324594,156.549317 L146.79335,156.549317 L146.79335,157.677099 L139.324594,157.677099 Z M154.262105,157.677099 L154.262105,156.549317 L161.73086,156.549317 L161.73086,157.677099 L154.262105,157.677099 Z M169.199615,157.677099 L169.199615,156.549317 L176.668371,156.549317 L176.668371,157.677099 L169.199615,157.677099 Z M184.137126,157.677099 L184.137126,156.549317 L191.605881,156.549317 L191.605881,157.677099 L184.137126,157.677099 Z M199.074636,157.677099 L199.074636,156.549317 L206.543392,156.549317 L206.543392,157.677099 L199.074636,157.677099 Z M214.012147,157.677099 L214.012147,156.549317 L221.480902,156.549317 L221.480902,157.677099 L214.012147,157.677099 Z M228.949657,157.677099 L228.949657,156.549317 L236.418413,156.549317 L236.418413,157.677099 L228.949657,157.677099 Z M243.887168,157.677099 L243.887168,156.549317 L251.355923,156.549317 L251.355923,157.677099 L243.887168,157.677099 Z M258.824678,157.677099 L258.824678,156.549317 L266.293434,156.549317 L266.293434,157.677099 L258.824678,157.677099 Z M273.762189,157.677099 L273.762189,156.549317 L281.230944,156.549317 L281.230944,157.677099 L273.762189,157.677099 Z M288.699699,157.677099 L288.699699,156.549317 L294.54325,156.549317 L294.54325,157.677099 L288.699699,157.677099 Z" id="Path-2" fill="#15212D" fill-rule="nonzero"></path>
                <polygon id="Shape-4" fill="#C2C2C2" fill-rule="nonzero" points="2.794 32.4358286 2.794 30.023794 296.63625 30.023794 296.63625 32.4358286"></polygon>
                <path d="M56.6412045,102.228668 L21.9184493,117.693023 C21.0058223,118.099477 19.9364962,117.689142 19.5300426,116.776515 C19.123589,115.863888 19.5339236,114.794562 20.4465507,114.388109 L56.1920007,98.4682786 C56.8186454,98.1891919 57.5492377,98.2885757 58.0785624,98.7249108 L83.037108,119.298844 L125.345574,64.0442066 C126.224621,62.8961762 128.02865,63.1924409 128.494361,64.5613128 L158.380194,152.405232 L174.764402,108.178915 C174.874246,107.882411 175.059891,107.619878 175.302829,107.41749 L202.657592,84.6286784 C203.274242,84.1149571 204.155659,84.0689828 204.822408,84.5157626 L241.748908,109.259706 C242.578852,109.81584 242.800819,110.939479 242.244685,111.769423 C241.688551,112.599367 240.564912,112.821334 239.734968,112.2652 L203.933129,88.2748764 L177.989301,109.888261 L160.003911,158.436689 C159.4124,160.03337 157.143525,160.002902 156.595102,158.390914 L126.159764,68.9318244 L84.7696381,122.987114 C84.1467836,123.800559 82.9733241,123.934871 82.1827751,123.283202 L56.6412045,102.228668 Z" id="Shape-5" fill="#2A3052" fill-rule="nonzero"></path>
                <g opacity="0.6" transform="translate(150.500000, 147.962264)" fill="#FFFFFF" id="Oval">
                    <ellipse cx="8.110375" cy="9.3739623" rx="8.110375" ry="8.40037736"></ellipse>
                </g>
                <path d="M158.610375,166.942621 C153.455409,166.942621 149.293983,162.632395 149.293983,157.336226 C149.293983,152.040057 153.455409,147.729831 158.610375,147.729831 C163.765341,147.729831 167.926767,152.040057 167.926767,157.336226 C167.926767,162.632395 163.765341,166.942621 158.610375,166.942621 Z M158.610375,164.530586 C162.413882,164.530586 165.514733,161.318858 165.514733,157.336226 C165.514733,153.353594 162.413882,150.141866 158.610375,150.141866 C154.806868,150.141866 151.706017,153.353594 151.706017,157.336226 C151.706017,161.318858 154.806868,164.530586 158.610375,164.530586 Z" id="Oval-2" fill="#E88024" fill-rule="nonzero"></path>
                <g id="Group-2" opacity="0.6" transform="translate(117.862500, 56.754717)" fill="#FFFFFF">
                    <ellipse id="Oval-3" cx="8.979125" cy="8.40037736" rx="8.110375" ry="8.40037736"></ellipse>
                </g>
                <path d="M126.841625,74.7614889 C121.686659,74.7614889 117.525233,70.4512631 117.525233,65.1550943 C117.525233,59.8589255 121.686659,55.5486997 126.841625,55.5486997 C131.996591,55.5486997 136.158017,59.8589255 136.158017,65.1550943 C136.158017,70.4512631 131.996591,74.7614889 126.841625,74.7614889 Z M126.841625,72.3494544 C130.645132,72.3494544 133.745983,69.1377262 133.745983,65.1550943 C133.745983,61.1724624 130.645132,57.9607342 126.841625,57.9607342 C123.038118,57.9607342 119.937267,61.1724624 119.937267,65.1550943 C119.937267,69.1377262 123.038118,72.3494544 126.841625,72.3494544 Z" id="Oval-4" fill="#E88024" fill-rule="nonzero"></path>
            </g>
            <g id="Group" transform="translate(8.000000, 123.000000)" fill="#2A3052" fill-rule="nonzero">
                <path d="M4.762,3.173 L4.852,4.107 C5.22225601,3.46029934 5.91595406,3.06724213 6.661,3.082 C7.324,3.082 7.836,3.263 8.198,3.685 C8.56,4.077 8.741,4.68 8.741,5.494 L8.741,9.412 L7.626,9.412 L7.626,5.524 C7.626,4.981 7.505,4.59 7.294,4.348 C7.083,4.108 6.751,4.017 6.329,4.017 C5.998,4.017 5.727,4.107 5.485,4.258 C5.23377101,4.41437611 5.02657481,4.63224188 4.883,4.891 L4.883,9.412 L3.767,9.412 L3.767,3.203 L4.762,3.173 Z M0.815,0.95 L1.857,0.95 L1.857,9.184 L0.815,9.184 L0.815,0.95 Z M19.219,3.12 L20.319,3.12 L20.319,9.18 L19.219,9.18 L19.219,3.12 Z M19.234,0.368 L19.234,1.46 L20.355,1.46 L20.355,0.368 L19.234,0.368 Z M10.467,3.129 L11.568,3.129 L11.568,9.189 L10.467,9.189 L10.467,3.129 Z M10.482,0.376 L10.482,1.469 L11.603,1.469 L11.603,0.376 L10.482,0.376 Z" id="Shape"></path>
                <path d="M10.446,3.129 L11.547,3.129 L11.547,9.189 L10.446,9.189 L10.446,3.129 Z M10.46,0.376 L10.46,1.469 L11.583,1.469 L11.583,0.376 L10.46,0.376 Z M13.071,3.952 L13.071,3.082 L17.707,3.082 L17.707,3.816 L14.357,8.358 L17.884,8.358 L17.884,9.184 L13.07,9.184 L13.07,8.479 L16.38,3.952 L13.071,3.952 Z M24.617,2.944 C26.438,2.944 27.251,4.273 27.388,5.808 C27.525,7.343 26.88,9.186 24.866,9.343 C22.852,9.501 21.845,7.874 21.845,6.159 C21.845,4.443 22.795,2.944 24.617,2.944 Z M24.573,3.82 C23.895,3.82 23.093,4.228 22.989,5.891 C22.887,7.555 23.557,8.469 24.626,8.469 C25.695,8.469 26.26,7.498 26.26,5.891 C26.26,4.285 25.251,3.82 24.573,3.82 Z" id="Shape"></path>
            </g>
            <path d="M123.328,48.407 L120.036,48.407 L119.321,50.577 L117.719,50.577 L120.961,41.286 L122.435,41.286 L125.638,50.576 L124.036,50.576 L123.328,48.407 Z M120.463,47.112 L122.907,47.112 L121.714,43.449 L121.676,43.449 L120.463,47.112 Z M128.28,50.577 L126.73,50.577 L126.73,40.622 L128.28,40.622 L128.28,50.577 Z M132,41.994 L132,43.672 L133.238,43.672 L133.238,44.821 L132,44.821 L132,48.637 C132,48.922 132.062,49.125 132.185,49.247 C132.317364,49.3713968 132.494564,49.4367191 132.676,49.428 C132.839338,49.4291095 133.001558,49.4010004 133.155,49.345 L133.321,50.481 C133.173049,50.5591304 133.014827,50.616023 132.851,50.65 C132.671,50.69 132.483,50.71 132.287,50.71 C131.717,50.71 131.269,50.544 130.944,50.21 C130.618,49.876 130.456,49.351 130.456,48.637 L130.456,44.82 L129.403,44.82 L129.403,43.671 L130.456,43.671 L130.456,41.993 L132,41.993 L132,41.994 Z M134.201,47.061 C134.201,46.031 134.483,45.188 135.047,44.531 C135.61,43.873 136.381,43.545 137.36,43.545 C138.351,43.545 139.128,43.873 139.692,44.531 C140.256,45.188 140.537,46.031 140.537,47.061 L140.537,47.195 C140.537,48.233 140.256,49.078 139.692,49.731 C139.128,50.384 138.355,50.711 137.372,50.711 C136.386,50.711 135.61,50.383 135.047,49.728 C134.483,49.073 134.201,48.228 134.201,47.195 L134.201,47.061 Z M135.751,47.195 C135.751,47.871 135.884,48.42 136.147,48.841 C136.411,49.262 136.82,49.473 137.373,49.473 C137.913,49.473 138.318,49.261 138.588,48.838 C138.858,48.414 138.993,47.867 138.993,47.195 L138.993,47.061 C138.993,46.401 138.858,45.858 138.588,45.431 C138.318,45.003 137.908,44.789 137.36,44.789 C136.82,44.789 136.416,45.003 136.15,45.43 C135.885,45.858 135.752,46.401 135.752,47.06 L135.752,47.195 L135.751,47.195 Z M142.98,179.75 L142.98,171.581 L145.655,171.581 C146.557,171.581 147.262,171.767 147.77,172.139 C148.28,172.512 148.533,173.068 148.533,173.809 C148.533,174.168 148.431,174.491 148.228,174.779 C148.013753,175.07496 147.718595,175.302753 147.378,175.435 C147.901,175.522 148.304,175.748 148.587,176.115 C148.869,176.481 149.01,176.911 149.01,177.405 C149.01,178.171 148.76,178.754 148.258,179.152 C147.758,179.551 147.065,179.75 146.183,179.75 L142.979,179.75 L142.98,179.75 Z M144.342,176.036 L144.342,178.661 L146.182,178.661 C146.654,178.661 147.017,178.554 147.272,178.339 C147.525,178.124 147.652,177.812 147.652,177.405 C147.652,176.993 147.527,176.666 147.277,176.423 C147.027,176.18 146.675,176.051 146.222,176.036 L144.342,176.036 Z M144.342,175.02 L145.802,175.02 C146.224,175.02 146.558,174.92 146.802,174.72 C147.048,174.52 147.17,174.237 147.17,173.87 C147.17,173.466 147.041,173.166 146.783,172.97 C146.525,172.773 146.149,172.675 145.655,172.675 L144.342,172.675 L144.342,175.02 Z M153.812,179.75 C153.765105,179.602262 153.725062,179.452435 153.692,179.301 C153.66061,179.156647 153.639226,179.010299 153.628,178.863 C153.439042,179.153148 153.187996,179.397704 152.893,179.579 C152.585524,179.771961 152.228984,179.872293 151.866,179.868 C151.234,179.868 150.749,179.705 150.41,179.38 C150.072,179.054 149.902,178.607 149.902,178.039 C149.902,177.451 150.134,176.994 150.598,176.667 C151.062,176.34 151.714,176.177 152.556,176.177 L153.616,176.177 L153.616,175.643 C153.616,175.325 153.524,175.076 153.339,174.897 C153.153,174.717 152.885,174.627 152.534,174.627 C152.224,174.627 151.976,174.701 151.793,174.849 C151.61485,174.985818 151.512684,175.199437 151.518,175.424 L150.205,175.43 L150.2,175.396 C150.173,174.917 150.388,174.493 150.842,174.123 C151.296,173.753 151.888,173.567 152.618,173.567 C153.325,173.567 153.895,173.747 154.328,174.106 C154.763,174.465 154.98,174.981 154.98,175.654 L154.98,178.353 C154.98,178.603 154.996,178.843 155.03,179.073 C155.064,179.303 155.118,179.529 155.193,179.75 L153.813,179.75 L153.812,179.75 Z M152.146,178.774 C152.486,178.774 152.794,178.688 153.069,178.516 C153.344,178.344 153.527,178.147 153.616,177.926 L153.616,177.029 L152.534,177.029 C152.137,177.029 151.827,177.127 151.602,177.323 C151.378,177.52 151.266,177.751 151.266,178.016 C151.266,178.248 151.341,178.432 151.493,178.569 C151.644,178.705 151.863,178.774 152.146,178.774 Z M159.816,178.089 C159.817681,177.882639 159.717869,177.688622 159.549,177.57 C159.372,177.434 159.036,177.311 158.542,177.203 C157.828,177.057 157.282,176.842 156.904,176.558 C156.53632,176.294398 156.323791,175.865217 156.337,175.413 C156.337,174.904 156.552,174.47 156.983,174.109 C157.413,173.748 157.979,173.567 158.683,173.567 C159.408,173.567 159.993,173.753 160.436,174.125 C160.879,174.498 161.091,174.945 161.072,175.469 L161.062,175.503 L159.754,175.503 C159.754522,175.256463 159.647977,175.021844 159.462,174.86 C159.268,174.679 159.008,174.588 158.682,174.588 C158.353,174.588 158.102,174.663 157.931,174.813 C157.7659,174.94761 157.670966,175.149989 157.673,175.363 C157.673,175.568 157.753,175.733 157.913,175.856 C158.075,175.98 158.406,176.09 158.907,176.187 C159.651,176.337 160.212,176.557 160.59,176.847 C160.968,177.137 161.157,177.524 161.157,178.011 C161.157,178.557 160.931,179.003 160.481,179.349 C160.03,179.695 159.436,179.868 158.699,179.868 C157.91,179.868 157.287,179.666 156.831,179.262 C156.375,178.858 156.158,178.394 156.181,177.87 L156.191,177.837 L157.459,177.837 C157.474,178.188 157.602,178.444 157.841,178.605 C158.081,178.766 158.372,178.847 158.716,178.847 C159.064,178.847 159.334,178.777 159.526,178.639 C159.71034,178.517304 159.819722,178.309856 159.816,178.089 Z M165.791,178.089 C165.792681,177.882639 165.692869,177.688622 165.524,177.57 C165.347,177.434 165.011,177.311 164.517,177.203 C163.803,177.057 163.257,176.842 162.879,176.558 C162.51132,176.294398 162.298791,175.865217 162.312,175.413 C162.312,174.904 162.527,174.47 162.958,174.109 C163.388,173.748 163.954,173.567 164.658,173.567 C165.383,173.567 165.968,173.753 166.411,174.125 C166.854,174.498 167.066,174.945 167.047,175.469 L167.037,175.503 L165.729,175.503 C165.729522,175.256463 165.622977,175.021844 165.437,174.86 C165.243,174.679 164.983,174.588 164.657,174.588 C164.328,174.588 164.077,174.663 163.906,174.813 C163.7409,174.94761 163.645966,175.149989 163.648,175.363 C163.648,175.568 163.728,175.733 163.888,175.856 C164.05,175.98 164.381,176.09 164.882,176.187 C165.626,176.337 166.187,176.557 166.565,176.847 C166.943,177.137 167.132,177.524 167.132,178.011 C167.132,178.557 166.906,179.003 166.456,179.349 C166.005,179.695 165.411,179.868 164.674,179.868 C163.885,179.868 163.262,179.666 162.806,179.262 C162.35,178.858 162.133,178.394 162.156,177.87 L162.166,177.837 L163.434,177.837 C163.449,178.188 163.577,178.444 163.816,178.605 C164.056,178.766 164.347,178.847 164.691,178.847 C165.039,178.847 165.309,178.777 165.501,178.639 C165.68534,178.517304 165.794722,178.309856 165.791,178.089 Z M168.102,176.659 C168.102,175.753 168.35,175.012 168.846,174.434 C169.341,173.856 170.019,173.567 170.879,173.567 C171.751,173.567 172.434,173.857 172.929,174.434 C173.425,175.012 173.673,175.754 173.673,176.659 L173.673,176.776 C173.673,177.689 173.425,178.432 172.93,179.006 C172.434,179.581 171.755,179.868 170.89,179.868 C170.023,179.868 169.341,179.58 168.846,179.004 C168.35,178.428 168.102,177.685 168.102,176.776 L168.102,176.659 Z M169.465,176.776 C169.465,177.371 169.581,177.854 169.813,178.224 C170.045,178.594 170.404,178.779 170.891,178.779 C171.366,178.779 171.721,178.593 171.959,178.221 C172.197,177.849 172.316,177.367 172.316,176.776 L172.316,176.659 C172.316,176.079 172.196,175.601 171.959,175.225 C171.722,174.849 171.362,174.661 170.879,174.661 C170.404,174.661 170.049,174.849 169.816,175.225 C169.582,175.601 169.466,176.079 169.466,176.659 L169.466,176.776 L169.465,176.776 Z" id="Shape" fill="#2A3052" fill-rule="nonzero"></path>
            <g id="Group" transform="translate(246.000000, 112.000000)" fill="#2A3052" fill-rule="nonzero">
                <path d="M11.608,3.138 L11.702,4.108 C12.0862725,3.43703039 12.8059262,3.02908607 13.579,3.044 C14.268,3.044 14.8,3.232 15.176,3.67 C15.551,4.077 15.739,4.703 15.739,5.548 L15.739,9.617 L14.581,9.617 L14.581,5.579 C14.581,5.016 14.456,4.609 14.237,4.359 C14.017,4.109 13.673,4.014 13.235,4.014 C12.891,4.014 12.609,4.108 12.359,4.264 C12.109,4.421 11.889,4.64 11.733,4.922 L11.733,9.617 L10.575,9.617 L10.575,3.169 L11.608,3.139 L11.608,3.138 Z M6.131,0.802 L6.131,1.712 L1.766,1.712 L1.766,4.803 L5.484,4.803 L5.484,5.74 L1.766,5.74 L1.766,9.697 L0.484,9.697 L0.484,0.802 L6.131,0.802 Z M22.5,6.566 L18.349,6.566 C18.349,7.336 18.506,7.894 18.821,8.237 C19.234,8.689 19.67,8.852 20.266,8.793 C21.308,8.689 21.51,8.41 21.941,8.163 L22.381,8.917 C21.867,9.447 21.045,9.713 19.916,9.713 C18.222,9.713 17.19,8.309 17.122,6.638 C17.055,4.968 17.722,3.028 19.916,2.948 C21.776,2.997 22.636,4.203 22.5,6.566 Z M21.334,5.648 C21.322,4.472 20.85,3.885 19.917,3.885 C18.985,3.885 18.475,4.472 18.387,5.648 L21.334,5.648 Z M7.48,3.147 L8.646,3.147 L8.646,9.562 L7.48,9.562 L7.48,3.147 Z M7.496,0.234 L7.496,1.391 L8.683,1.391 L8.683,0.234 L7.496,0.234 Z" id="Shape"></path>
            </g>
            <g id="Group" transform="translate(15.000000, 11.000000)" fill-rule="nonzero">
                <path d="M5.707,8.126 L2.628,8.126 L1.989,10.174 L0,10.174 L3.202,0.678 L5.152,0.678 L8.342,10.174 L6.352,10.174 L5.707,8.126 Z M3.097,6.633 L5.244,6.633 L4.194,3.287 L4.154,3.287 L3.098,6.633 L3.097,6.633 Z M11.113,10.174 L9.21,10.174 L9.21,0 L11.114,0 L11.114,10.174 L11.113,10.174 Z M14.961,1.389 L14.961,3.117 L16.154,3.117 L16.154,4.454 L14.961,4.454 L14.961,8.048 C14.961,8.322 15.019,8.518 15.134,8.635 C15.2539005,8.75419276 15.4180789,8.81797949 15.587,8.811 C15.7612299,8.81180203 15.9346704,8.78755404 16.102,8.739 L16.259,10.115 C15.8908496,10.247383 15.5022193,10.3137345 15.111,10.311 C14.454,10.311 13.949,10.131 13.595,9.77 C13.24,9.409 13.063,8.837 13.063,8.054 L13.063,4.454 L12.033,4.454 L12.033,3.117 L13.063,3.117 L13.063,1.39 L14.961,1.39 L14.961,1.389 Z M17.035,6.58 C17.035,5.528 17.328,4.666 17.915,3.995 C18.502,3.323 19.315,2.987 20.355,2.987 C21.398,2.987 22.215,3.322 22.807,3.991 C23.398,4.661 23.694,5.524 23.694,6.581 L23.694,6.717 C23.694,7.778 23.399,8.642 22.81,9.31 C22.22,9.977 21.407,10.311 20.368,10.311 C19.324,10.311 18.508,9.977 17.918,9.31 C17.33,8.642 17.035,7.778 17.035,6.717 L17.035,6.58 Z M18.933,6.717 C18.933,7.361 19.046,7.877 19.272,8.267 C19.498,8.656 19.863,8.85 20.368,8.85 C20.858,8.85 21.218,8.654 21.447,8.263 C21.675,7.872 21.789,7.357 21.789,6.717 L21.789,6.58 C21.789,5.954 21.674,5.444 21.444,5.048 C21.214,4.652 20.85,4.454 20.354,4.454 C19.864,4.454 19.504,4.654 19.275,5.051 C19.047,5.449 18.933,5.959 18.933,6.581 L18.933,6.717 Z" id="Shape" fill="#020202"></path>
                <path d="M31,10.058 L31,1 L33.967,1 C35.033,1 35.865,1.208 36.462,1.625 C37.059,2.042 37.358,2.661 37.358,3.482 C37.358,3.897 37.25,4.268 37.034,4.596 C36.819,4.923 36.504,5.17 36.089,5.336 C36.653,5.44 37.078,5.684 37.364,6.07 C37.65,6.456 37.794,6.906 37.794,7.42 C37.794,8.287 37.507,8.943 36.934,9.39 C36.363,9.835 35.552,10.058 34.502,10.058 L31,10.058 Z M32.817,6.051 L32.817,8.664 L34.502,8.664 C34.984,8.664 35.351,8.56 35.604,8.35 C35.857,8.14 35.984,7.83 35.984,7.42 C35.984,6.98 35.859,6.642 35.61,6.406 C35.36,6.17 34.986,6.051 34.484,6.051 L32.817,6.051 Z M32.817,4.795 L34.03,4.795 C34.515,4.795 34.888,4.695 35.15,4.496 C35.41,4.297 35.541,4.006 35.541,3.626 C35.541,3.206 35.41,2.897 35.146,2.698 C34.883,2.499 34.49,2.4 33.967,2.4 L32.817,2.4 L32.817,4.795 Z M42.951,10.058 C42.8831703,9.900358 42.8260409,9.73832426 42.78,9.573 C42.7319318,9.40165485 42.697491,9.22677622 42.677,9.05 C42.4942265,9.37347294 42.2413815,9.65194414 41.937,9.865 C41.63,10.081 41.265,10.188 40.842,10.188 C40.137,10.188 39.593,10.007 39.212,9.644 C38.83,9.281 38.639,8.787 38.639,8.16 C38.639,7.501 38.893,6.99 39.402,6.627 C39.91,6.264 40.651,6.083 41.626,6.083 L42.646,6.083 L42.646,5.548 C42.646,5.224 42.561,4.973 42.391,4.795 C42.221,4.616 41.968,4.527 41.631,4.527 C41.337,4.527 41.111,4.599 40.951,4.742 C40.791,4.885 40.711,5.081 40.711,5.33 L38.963,5.33 L38.95,5.293 C38.921,4.724 39.17,4.233 39.694,3.821 C40.219,3.409 40.904,3.202 41.75,3.202 C42.559,3.202 43.213,3.405 43.713,3.812 C44.213,4.218 44.463,4.802 44.463,5.56 L44.463,8.34 C44.463,8.656 44.486,8.953 44.533,9.23 C44.582,9.508 44.657,9.784 44.761,10.058 L42.951,10.058 Z M41.29,8.845 C41.605,8.845 41.887,8.765 42.136,8.608 C42.385,8.451 42.555,8.268 42.646,8.061 L42.646,7.109 L41.626,7.109 C41.24,7.109 40.948,7.204 40.751,7.395 C40.557787,7.57714845 40.450626,7.83251847 40.456,8.098 C40.456,8.326 40.53,8.508 40.676,8.643 C40.824,8.777 41.028,8.845 41.29,8.845 Z M49.464,8.192 C49.464,7.992 49.368,7.822 49.174,7.678 C48.982,7.535 48.624,7.41 48.102,7.302 C47.314,7.144 46.715,6.906 46.307,6.586 C45.898,6.267 45.694,5.834 45.694,5.286 C45.694,4.71 45.939,4.218 46.428,3.812 C46.918,3.405 47.568,3.202 48.382,3.202 C49.232,3.202 49.913,3.405 50.425,3.812 C50.937,4.218 51.183,4.724 51.162,5.33 L51.15,5.367 L49.396,5.367 C49.396,5.097 49.309,4.877 49.134,4.707 C48.96,4.537 48.709,4.453 48.382,4.453 C48.092,4.453 47.862,4.525 47.692,4.67 C47.5289351,4.799477 47.4345209,4.99678794 47.436,5.205 C47.436,5.413 47.524,5.582 47.7,5.712 C47.877,5.843 48.234,5.96 48.774,6.064 C49.599,6.23 50.214,6.474 50.618,6.794 C51.022,7.116 51.225,7.559 51.225,8.124 C51.225,8.729 50.965,9.224 50.447,9.61 C49.929,9.996 49.244,10.188 48.394,10.188 C47.498,10.188 46.79,9.961 46.27,9.508 C45.749,9.053 45.501,8.536 45.526,7.955 L45.539,7.918 L47.199,7.918 C47.212,8.278 47.33,8.54 47.554,8.702 C47.778,8.863 48.071,8.944 48.431,8.944 C48.767,8.944 49.023,8.877 49.2,8.742 C49.3730825,8.61322854 49.4717891,8.40758984 49.464,8.192 Z M56.034,8.192 C56.034,7.992 55.937,7.822 55.744,7.678 C55.551,7.535 55.194,7.41 54.671,7.302 C53.883,7.144 53.285,6.906 52.876,6.586 C52.468,6.267 52.264,5.834 52.264,5.286 C52.264,4.71 52.508,4.218 52.998,3.812 C53.487,3.405 54.138,3.202 54.951,3.202 C55.801,3.202 56.482,3.405 56.995,3.812 C57.507,4.218 57.753,4.724 57.732,5.33 L57.719,5.367 L55.965,5.367 C55.965,5.097 55.878,4.877 55.704,4.707 C55.53,4.537 55.279,4.453 54.951,4.453 C54.661,4.453 54.431,4.525 54.261,4.67 C54.0979351,4.799477 54.0035209,4.99678794 54.005,5.205 C54.005,5.413 54.094,5.582 54.27,5.712 C54.446,5.843 54.804,5.96 55.343,6.064 C56.168,6.23 56.783,6.474 57.187,6.794 C57.592,7.116 57.794,7.559 57.794,8.124 C57.794,8.729 57.534,9.224 57.016,9.61 C56.498,9.996 55.814,10.188 54.963,10.188 C54.068,10.188 53.359,9.961 52.839,9.508 C52.319,9.053 52.071,8.536 52.096,7.955 L52.108,7.918 L53.769,7.918 C53.781,8.278 53.899,8.54 54.124,8.702 C54.348,8.863 54.64,8.944 55.001,8.944 C55.337,8.944 55.593,8.877 55.769,8.742 C55.9420825,8.61322854 56.0407891,8.40758984 56.033,8.192 L56.034,8.192 Z M58.684,6.63 C58.684,5.626 58.964,4.804 59.524,4.163 C60.084,3.523 60.859,3.203 61.85,3.203 C62.846,3.203 63.625,3.522 64.19,4.16 C64.753,4.799 65.035,5.622 65.035,6.63 L65.035,6.76 C65.035,7.773 64.755,8.597 64.192,9.234 C63.63,9.87 62.854,10.188 61.862,10.188 C60.867,10.188 60.089,9.87 59.527,9.234 C58.965,8.597 58.684,7.773 58.684,6.761 L58.684,6.63 Z M60.494,6.76 C60.494,7.374 60.602,7.867 60.817,8.238 C61.033,8.609 61.381,8.795 61.863,8.795 C62.331,8.795 62.674,8.608 62.893,8.235 C63.11,7.862 63.219,7.37 63.219,6.761 L63.219,6.63 C63.219,6.033 63.109,5.546 62.889,5.168 C62.669,4.791 62.323,4.602 61.85,4.602 C61.381,4.602 61.038,4.792 60.82,5.172 C60.603,5.551 60.494,6.037 60.494,6.63 L60.494,6.76 Z M29.147,7.234 L25.3,7.234 L25.3,5.8 L29.147,5.8 L29.147,7.234 Z" id="Shape" fill="#000000"></path>
            </g>
        </g>
    </g>
</svg>