<?xml version="1.0" encoding="UTF-8"?>
<svg width="299px" height="197px" viewBox="0 0 299 197" version="1.1" xmlns="http://www.w3.org/2000/svg" xmlns:xlink="http://www.w3.org/1999/xlink">
    <!-- Generator: Sketch 53.1 (72631) - https://sketchapp.com -->
    <title>low tick</title>
    <desc>Created with Sketch.</desc>
    <g id="Page-1" stroke="none" stroke-width="1" fill="none" fill-rule="evenodd">
        <g id="low-tick">
            <g id="Group">
                <polygon id="Path" fill="#F1F2F2" points="0.00101428135 0 299 0 299 197 0 197"></polygon>
                <path d="M1.98671096,1.9798995 L1.98671096,195.020101 L297.013289,195.020101 L297.013289,1.9798995 L1.98671096,1.9798995 Z M299,0 L299,197 L0,197 L0,0 L299,0 Z" id="Path" fill="#C2C2C2" fill-rule="nonzero"></path>
                <path d="M2.94050338,54.9484859 L2.94050338,53.7251569 L296.511027,53.7251569 L296.511027,54.9484859 L2.94050338,54.9484859 Z M2.94050338,95.8450829 L2.94050338,94.6217539 L296.511027,94.6217539 L296.511027,95.8450829 L2.94050338,95.8450829 Z M2.94050338,75.8450829 L2.94050338,74.6217539 L296.511027,74.6217539 L296.511027,75.8450829 L2.94050338,75.8450829 Z M2.94050338,136.738664 L2.94050338,135.515336 L296.511027,135.515336 L296.511027,136.738664 L2.94050338,136.738664 Z M2.94050338,177.596062 L2.94050338,176.372734 L296.511027,176.372734 L296.511027,177.596062 L2.94050338,177.596062 Z M37.7845821,33.9081224 L39.0079111,33.9081224 L39.0079111,195.000852 L37.7845821,195.000852 L37.7845821,33.9081224 Z M74.9464436,33.9081224 L76.1697726,33.9081224 L76.1697726,195.000852 L74.9464436,195.000852 L74.9464436,33.9081224 Z M112.06891,33.9081224 L113.292238,33.9081224 L113.292238,195.000852 L112.06891,195.000852 L112.06891,33.9081224 Z M149.228752,33.9081224 L150.45208,33.9081224 L150.45208,195.000852 L149.228752,195.000852 L149.228752,33.9081224 Z M186.351218,33.9081224 L187.574546,33.9081224 L187.574546,195.000852 L186.351218,195.000852 L186.351218,33.9081224 Z M223.473684,33.9081224 L224.697012,33.9081224 L224.697012,195.000852 L223.473684,195.000852 L223.473684,33.9081224 Z M2.94050338,116.272777 L2.94050338,115.049448 L296.511027,115.049448 L296.511027,116.272777 L2.94050338,116.272777 Z" id="Shape" fill="#DFDEDE" fill-rule="nonzero"></path>
                <polygon id="Path" fill="#15212D" points="2.94050338 161.639869 2.94050338 160.495335 296.511027 160.495335 296.511027 161.639869"></polygon>
                <polygon id="Path" fill="#C2C2C2" points="1 30 1 28 297 28 297 30"></polygon>
                <path d="M136.207603,107.216837 L91.0267149,142.618028 C90.4268878,143.088018 89.5990087,143.138382 88.9466331,142.744567 L38.4469473,112.259823 C37.5793355,111.736078 37.3005758,110.608161 37.8243202,109.740549 C38.3480645,108.872938 39.4759815,108.594178 40.3435933,109.117922 L89.759593,138.948487 L135.236484,103.315365 C135.972308,102.738814 137.023939,102.807569 137.678432,103.475017 L185.584163,152.328981 L245.172535,67.3437236 C245.754351,66.5139351 246.898682,66.3129133 247.72847,66.8947289 C248.558259,67.4765445 248.759281,68.6208757 248.177465,69.4506642 L187.321874,156.243235 C186.662965,157.182974 185.312791,157.294001 184.50922,156.474524 L136.207603,107.216837 Z" id="Path" fill="#2A3052"></path>
                <ellipse id="Oval" fill="#FFFFFF" opacity="0.6" cx="186.255787" cy="155.514413" rx="8.21946959" ry="8.5182398"></ellipse>
                <path d="M186.255787,165.255982 C181.030707,165.255982 176.812988,160.884953 176.812988,155.514413 C176.812988,150.143873 181.030707,145.772844 186.255787,145.772844 C191.480867,145.772844 195.698586,150.143873 195.698586,155.514413 C195.698586,160.884953 191.480867,165.255982 186.255787,165.255982 Z M186.255787,162.809324 C190.109683,162.809324 193.251928,159.552861 193.251928,155.514413 C193.251928,151.475965 190.109683,148.219502 186.255787,148.219502 C182.401891,148.219502 179.259646,151.475965 179.259646,155.514413 C179.259646,159.552861 182.401891,162.809324 186.255787,162.809324 Z" id="Oval" fill="#E88024" fill-rule="nonzero"></path>
            </g>
            <path d="M163.421387,56.7026367 L162.291504,57.8769531 L162.291504,61 L161.072754,61 L161.072754,51.7578125 L162.291504,51.7578125 L162.291504,56.328125 L166.398438,51.7578125 L167.871094,51.7578125 L164.233887,55.8393555 L168.156738,61 L166.696777,61 L163.421387,56.7026367 Z M168.728027,57.5024414 C168.728027,56.8295865 168.860269,56.2244493 169.124756,55.6870117 C169.389243,55.1495741 169.757403,54.7348647 170.229248,54.4428711 C170.701093,54.1508774 171.23958,54.0048828 171.844727,54.0048828 C172.779953,54.0048828 173.536374,54.32861 174.114014,54.9760742 C174.691653,55.6235384 174.980469,56.4846951 174.980469,57.5595703 L174.980469,57.6420898 C174.980469,58.310713 174.852459,58.9105605 174.596436,59.4416504 C174.340412,59.9727403 173.974368,60.3863917 173.498291,60.6826172 C173.022214,60.9788426 172.475264,61.1269531 171.857422,61.1269531 C170.926428,61.1269531 170.172122,60.8032259 169.594482,60.1557617 C169.016843,59.5082975 168.728027,58.6513725 168.728027,57.5849609 L168.728027,57.5024414 Z M169.908691,57.6420898 C169.908691,58.4038124 170.085366,59.0152972 170.438721,59.4765625 C170.792075,59.9378278 171.264971,60.168457 171.857422,60.168457 C172.454105,60.168457 172.928058,59.934654 173.279297,59.467041 C173.630536,58.999428 173.806152,58.344568 173.806152,57.5024414 C173.806152,56.7491824 173.627362,56.1387556 173.269775,55.6711426 C172.912189,55.2035296 172.437177,54.9697266 171.844727,54.9697266 C171.264971,54.9697266 170.797365,55.2003558 170.441895,55.6616211 C170.086424,56.1228864 169.908691,56.7830361 169.908691,57.6420898 Z M177.563965,54.1318359 L177.602051,54.9951172 C178.126793,54.3349576 178.812333,54.0048828 179.658691,54.0048828 C181.110196,54.0048828 181.842285,54.8237223 181.85498,56.4614258 L181.85498,61 L180.680664,61 L180.680664,56.4550781 C180.676432,55.9599585 180.563234,55.5939139 180.341064,55.3569336 C180.118895,55.1199532 179.772952,55.0014648 179.303223,55.0014648 C178.922361,55.0014648 178.588055,55.1030263 178.300293,55.3061523 C178.012531,55.5092784 177.78825,55.7758773 177.627441,56.105957 L177.627441,61 L176.453125,61 L176.453125,54.1318359 L177.563965,54.1318359 Z M179.772949,51.25 L181.194824,51.25 L179.493652,53.1162109 L178.547852,53.1162109 L179.772949,51.25 Z M186.380859,60.168457 C186.799807,60.168457 187.165851,60.0415052 187.479004,59.7875977 C187.792157,59.5336901 187.965657,59.2163105 187.999512,58.8354492 L189.110352,58.8354492 C189.089193,59.2290059 188.953777,59.6035138 188.704102,59.9589844 C188.454426,60.3144549 188.121177,60.5979807 187.704346,60.8095703 C187.287514,61.0211599 186.846356,61.1269531 186.380859,61.1269531 C185.445633,61.1269531 184.701907,60.8148631 184.149658,60.1906738 C183.597409,59.5664845 183.321289,58.7127333 183.321289,57.6293945 L183.321289,57.4326172 C183.321289,56.7639941 183.444009,56.1694362 183.689453,55.6489258 C183.934897,55.1284154 184.287188,54.7242853 184.746338,54.4365234 C185.205487,54.1487616 185.748207,54.0048828 186.374512,54.0048828 C187.144698,54.0048828 187.784747,54.235512 188.294678,54.6967773 C188.804609,55.1580427 189.076497,55.7568323 189.110352,56.4931641 L187.999512,56.4931641 C187.965657,56.0488259 187.797446,55.6838393 187.494873,55.3981934 C187.1923,55.1125474 186.81885,54.9697266 186.374512,54.9697266 C185.777829,54.9697266 185.315513,55.1844868 184.987549,55.6140137 C184.659585,56.0435406 184.495605,56.6645467 184.495605,57.4770508 L184.495605,57.6992188 C184.495605,58.4905639 184.658527,59.0999328 184.984375,59.5273438 C185.310223,59.9547547 185.775713,60.168457 186.380859,60.168457 Z M190.119629,57.5024414 C190.119629,56.8295865 190.25187,56.2244493 190.516357,55.6870117 C190.780844,55.1495741 191.149005,54.7348647 191.62085,54.4428711 C192.092694,54.1508774 192.631182,54.0048828 193.236328,54.0048828 C194.171554,54.0048828 194.927976,54.32861 195.505615,54.9760742 C196.083255,55.6235384 196.37207,56.4846951 196.37207,57.5595703 L196.37207,57.6420898 C196.37207,58.310713 196.244061,58.9105605 195.988037,59.4416504 C195.732014,59.9727403 195.365969,60.3863917 194.889893,60.6826172 C194.413816,60.9788426 193.866865,61.1269531 193.249023,61.1269531 C192.318029,61.1269531 191.563724,60.8032259 190.986084,60.1557617 C190.408444,59.5082975 190.119629,58.6513725 190.119629,57.5849609 L190.119629,57.5024414 Z M191.300293,57.6420898 C191.300293,58.4038124 191.476968,59.0152972 191.830322,59.4765625 C192.183677,59.9378278 192.656573,60.168457 193.249023,60.168457 C193.845706,60.168457 194.31966,59.934654 194.670898,59.467041 C195.022137,58.999428 195.197754,58.344568 195.197754,57.5024414 C195.197754,56.7491824 195.018963,56.1387556 194.661377,55.6711426 C194.303791,55.2035296 193.828779,54.9697266 193.236328,54.9697266 C192.656573,54.9697266 192.188967,55.2003558 191.833496,55.6616211 C191.478026,56.1228864 191.300293,56.7830361 191.300293,57.6420898 Z M203.925781,59.3813477 L205.246094,54.1318359 L206.42041,54.1318359 L204.420898,61 L203.46875,61 L201.799316,55.7949219 L200.174316,61 L199.222168,61 L197.229004,54.1318359 L198.396973,54.1318359 L199.749023,59.2734375 L201.348633,54.1318359 L202.294434,54.1318359 L203.925781,59.3813477 Z M211.854004,61 C211.786295,60.8645827 211.731283,60.6233741 211.688965,60.2763672 C211.143064,60.8434273 210.491377,61.1269531 209.733887,61.1269531 C209.0568,61.1269531 208.501386,60.9354674 208.067627,60.5524902 C207.633868,60.1695131 207.416992,59.6839222 207.416992,59.0957031 C207.416992,58.3805303 207.688881,57.8251159 208.232666,57.4294434 C208.776451,57.0337708 209.541336,56.8359375 210.527344,56.8359375 L211.669922,56.8359375 L211.669922,56.2963867 C211.669922,55.8859029 211.547202,55.5590019 211.301758,55.3156738 C211.056314,55.0723458 210.694501,54.9506836 210.216309,54.9506836 C209.797361,54.9506836 209.446128,55.0564768 209.162598,55.2680664 C208.879068,55.479656 208.737305,55.7356756 208.737305,56.0361328 L207.556641,56.0361328 C207.556641,55.6933577 207.678303,55.3622249 207.921631,55.0427246 C208.164959,54.7232243 208.495034,54.4703785 208.911865,54.2841797 C209.328697,54.0979808 209.786781,54.0048828 210.286133,54.0048828 C211.077478,54.0048828 211.697426,54.2027161 212.145996,54.5983887 C212.594566,54.9940612 212.827311,55.5388963 212.844238,56.2329102 L212.844238,59.394043 C212.844238,60.02458 212.924641,60.5260398 213.085449,60.8984375 L213.085449,61 L211.854004,61 Z M209.905273,60.1049805 C210.273439,60.1049805 210.622557,60.0097666 210.952637,59.8193359 C211.282716,59.6289053 211.521809,59.3813492 211.669922,59.0766602 L211.669922,57.6674805 L210.749512,57.6674805 C209.310702,57.6674805 208.591309,58.0885375 208.591309,58.9306641 C208.591309,59.29883 208.714029,59.5865875 208.959473,59.7939453 C209.204917,60.0013031 209.52018,60.1049805 209.905273,60.1049805 Z M219.007812,60.0415039 L223.025879,60.0415039 L223.025879,61 L217.573242,61 L217.573242,60.1367188 L221.362793,55.1030273 L217.630371,55.1030273 L217.630371,54.1318359 L222.835449,54.1318359 L222.835449,54.9633789 L219.007812,60.0415039 Z M225.450684,54.1318359 L225.482422,54.8935547 C225.986005,54.3011038 226.665198,54.0048828 227.52002,54.0048828 C228.480636,54.0048828 229.134438,54.3730432 229.481445,55.109375 C229.709962,54.7792952 230.007241,54.5126963 230.373291,54.3095703 C230.739341,54.1064443 231.172035,54.0048828 231.671387,54.0048828 C233.177905,54.0048828 233.943848,54.8025636 233.969238,56.3979492 L233.969238,61 L232.794922,61 L232.794922,56.4677734 C232.794922,55.9768856 232.682781,55.6097831 232.458496,55.3664551 C232.234211,55.123127 231.857587,55.0014648 231.328613,55.0014648 C230.892739,55.0014648 230.530926,55.1315905 230.243164,55.3918457 C229.955402,55.6521009 229.788249,56.0022764 229.741699,56.4423828 L229.741699,61 L228.561035,61 L228.561035,56.4995117 C228.561035,55.5008088 228.072271,55.0014648 227.094727,55.0014648 C226.32454,55.0014648 225.79769,55.3294238 225.51416,55.9853516 L225.51416,61 L224.339844,61 L224.339844,54.1318359 L225.450684,54.1318359 Z M237.016113,61 L235.841797,61 L235.841797,54.1318359 L237.016113,54.1318359 L237.016113,61 Z M235.746582,52.3100586 C235.746582,52.119628 235.804768,51.9588223 235.921143,51.8276367 C236.037517,51.6964512 236.20996,51.6308594 236.438477,51.6308594 C236.666993,51.6308594 236.840494,51.6964512 236.958984,51.8276367 C237.077475,51.9588223 237.136719,52.119628 237.136719,52.3100586 C237.136719,52.5004892 237.077475,52.6591791 236.958984,52.7861328 C236.840494,52.9130866 236.666993,52.9765625 236.438477,52.9765625 C236.20996,52.9765625 236.037517,52.9130866 235.921143,52.7861328 C235.804768,52.6591791 235.746582,52.5004892 235.746582,52.3100586 Z M243.135254,61 C243.067545,60.8645827 243.012533,60.6233741 242.970215,60.2763672 C242.424314,60.8434273 241.772627,61.1269531 241.015137,61.1269531 C240.33805,61.1269531 239.782636,60.9354674 239.348877,60.5524902 C238.915118,60.1695131 238.698242,59.6839222 238.698242,59.0957031 C238.698242,58.3805303 238.970131,57.8251159 239.513916,57.4294434 C240.057701,57.0337708 240.822586,56.8359375 241.808594,56.8359375 L242.951172,56.8359375 L242.951172,56.2963867 C242.951172,55.8859029 242.828452,55.5590019 242.583008,55.3156738 C242.337564,55.0723458 241.975751,54.9506836 241.497559,54.9506836 C241.078611,54.9506836 240.727378,55.0564768 240.443848,55.2680664 C240.160318,55.479656 240.018555,55.7356756 240.018555,56.0361328 L238.837891,56.0361328 C238.837891,55.6933577 238.959553,55.3622249 239.202881,55.0427246 C239.446209,54.7232243 239.776284,54.4703785 240.193115,54.2841797 C240.609947,54.0979808 241.068031,54.0048828 241.567383,54.0048828 C242.358728,54.0048828 242.978676,54.2027161 243.427246,54.5983887 C243.875816,54.9940612 244.108561,55.5388963 244.125488,56.2329102 L244.125488,59.394043 C244.125488,60.02458 244.205891,60.5260398 244.366699,60.8984375 L244.366699,61 L243.135254,61 Z M241.186523,60.1049805 C241.554689,60.1049805 241.903807,60.0097666 242.233887,59.8193359 C242.563966,59.6289053 242.803059,59.3813492 242.951172,59.0766602 L242.951172,57.6674805 L242.030762,57.6674805 C240.591952,57.6674805 239.872559,58.0885375 239.872559,58.9306641 C239.872559,59.29883 239.995279,59.5865875 240.240723,59.7939453 C240.486167,60.0013031 240.80143,60.1049805 241.186523,60.1049805 Z M247.077148,54.1318359 L247.115234,54.9951172 C247.639977,54.3349576 248.325517,54.0048828 249.171875,54.0048828 C250.62338,54.0048828 251.355469,54.8237223 251.368164,56.4614258 L251.368164,61 L250.193848,61 L250.193848,56.4550781 C250.189616,55.9599585 250.076417,55.5939139 249.854248,55.3569336 C249.632079,55.1199532 249.286135,55.0014648 248.816406,55.0014648 C248.435545,55.0014648 248.101238,55.1030263 247.813477,55.3061523 C247.525715,55.5092784 247.301433,55.7758773 247.140625,56.105957 L247.140625,61 L245.966309,61 L245.966309,54.1318359 L247.077148,54.1318359 Z M257.379395,61 C257.311686,60.8645827 257.256673,60.6233741 257.214355,60.2763672 C256.668454,60.8434273 256.016768,61.1269531 255.259277,61.1269531 C254.582191,61.1269531 254.026776,60.9354674 253.593018,60.5524902 C253.159259,60.1695131 252.942383,59.6839222 252.942383,59.0957031 C252.942383,58.3805303 253.214271,57.8251159 253.758057,57.4294434 C254.301842,57.0337708 255.066727,56.8359375 256.052734,56.8359375 L257.195312,56.8359375 L257.195312,56.2963867 C257.195312,55.8859029 257.072592,55.5590019 256.827148,55.3156738 C256.581705,55.0723458 256.219892,54.9506836 255.741699,54.9506836 C255.322752,54.9506836 254.971518,55.0564768 254.687988,55.2680664 C254.404458,55.479656 254.262695,55.7356756 254.262695,56.0361328 L253.082031,56.0361328 C253.082031,55.6933577 253.203693,55.3622249 253.447021,55.0427246 C253.69035,54.7232243 254.020424,54.4703785 254.437256,54.2841797 C254.854087,54.0979808 255.312172,54.0048828 255.811523,54.0048828 C256.602869,54.0048828 257.222817,54.2027161 257.671387,54.5983887 C258.119957,54.9940612 258.352702,55.5388963 258.369629,56.2329102 L258.369629,59.394043 C258.369629,60.02458 258.450032,60.5260398 258.61084,60.8984375 L258.61084,61 L257.379395,61 Z M255.430664,60.1049805 C255.79883,60.1049805 256.147948,60.0097666 256.478027,59.8193359 C256.808107,59.6289053 257.0472,59.3813492 257.195312,59.0766602 L257.195312,57.6674805 L256.274902,57.6674805 C254.836093,57.6674805 254.116699,58.0885375 254.116699,58.9306641 C254.116699,59.29883 254.239419,59.5865875 254.484863,59.7939453 C254.730307,60.0013031 255.045571,60.1049805 255.430664,60.1049805 Z M266.183594,60.168457 C266.602541,60.168457 266.968586,60.0415052 267.281738,59.7875977 C267.594891,59.5336901 267.768392,59.2163105 267.802246,58.8354492 L268.913086,58.8354492 C268.891927,59.2290059 268.756512,59.6035138 268.506836,59.9589844 C268.25716,60.3144549 267.923912,60.5979807 267.50708,60.8095703 C267.090249,61.0211599 266.649091,61.1269531 266.183594,61.1269531 C265.248368,61.1269531 264.504641,60.8148631 263.952393,60.1906738 C263.400144,59.5664845 263.124023,58.7127333 263.124023,57.6293945 L263.124023,57.4326172 C263.124023,56.7639941 263.246744,56.1694362 263.492188,55.6489258 C263.737631,55.1284154 264.089923,54.7242853 264.549072,54.4365234 C265.008222,54.1487616 265.550941,54.0048828 266.177246,54.0048828 C266.947432,54.0048828 267.587481,54.235512 268.097412,54.6967773 C268.607343,55.1580427 268.879232,55.7568323 268.913086,56.4931641 L267.802246,56.4931641 C267.768392,56.0488259 267.600181,55.6838393 267.297607,55.3981934 C266.995034,55.1125474 266.621584,54.9697266 266.177246,54.9697266 C265.580563,54.9697266 265.118247,55.1844868 264.790283,55.6140137 C264.462319,56.0435406 264.29834,56.6645467 264.29834,57.4770508 L264.29834,57.6992188 C264.29834,58.4905639 264.461261,59.0999328 264.787109,59.5273438 C265.112957,59.9547547 265.578447,60.168457 266.183594,60.168457 Z M273.083496,61.1269531 C272.152502,61.1269531 271.395022,60.8212107 270.811035,60.2097168 C270.227048,59.5982229 269.935059,58.7804413 269.935059,57.7563477 L269.935059,57.5405273 C269.935059,56.8592088 270.065184,56.2508979 270.325439,55.7155762 C270.585695,55.1802545 270.949623,54.7613134 271.417236,54.4587402 C271.884849,54.1561671 272.391599,54.0048828 272.9375,54.0048828 C273.830408,54.0048828 274.524412,54.2989879 275.019531,54.887207 C275.514651,55.4754261 275.762207,56.3175401 275.762207,57.4135742 L275.762207,57.9023438 L271.109375,57.9023438 C271.126302,58.5794305 271.324135,59.1263814 271.702881,59.5432129 C272.081626,59.9600444 272.562985,60.168457 273.146973,60.168457 C273.561688,60.168457 273.912922,60.0838225 274.200684,59.9145508 C274.488445,59.7452791 274.740233,59.5209975 274.956055,59.2416992 L275.67334,59.800293 C275.097816,60.6847375 274.234544,61.1269531 273.083496,61.1269531 Z M272.9375,54.9697266 C272.463539,54.9697266 272.065757,55.1421695 271.744141,55.4870605 C271.422524,55.8319516 271.223633,56.3154266 271.147461,56.9375 L274.587891,56.9375 L274.587891,56.8486328 C274.554036,56.2519501 274.393231,55.7896338 274.105469,55.4616699 C273.817707,55.133706 273.428388,54.9697266 272.9375,54.9697266 Z M278.231445,54.1318359 L278.269531,54.9951172 C278.794273,54.3349576 279.479813,54.0048828 280.326172,54.0048828 C281.777677,54.0048828 282.509766,54.8237223 282.522461,56.4614258 L282.522461,61 L281.348145,61 L281.348145,56.4550781 C281.343913,55.9599585 281.230714,55.5939139 281.008545,55.3569336 C280.786376,55.1199532 280.440432,55.0014648 279.970703,55.0014648 C279.589842,55.0014648 279.255535,55.1030263 278.967773,55.3061523 C278.680012,55.5092784 278.45573,55.7758773 278.294922,56.105957 L278.294922,61 L277.120605,61 L277.120605,54.1318359 L278.231445,54.1318359 Z M286.540527,59.2797852 L288.140137,54.1318359 L289.396973,54.1318359 L286.635742,62.0600586 C286.208331,63.2026424 285.529139,63.7739258 284.598145,63.7739258 L284.375977,63.7548828 L283.937988,63.6723633 L283.937988,62.7202148 L284.255371,62.7456055 C284.65316,62.7456055 284.963134,62.6652026 285.185303,62.5043945 C285.407472,62.3435864 285.590494,62.0494813 285.734375,61.6220703 L285.994629,60.9238281 L283.544434,54.1318359 L284.82666,54.1318359 L286.540527,59.2797852 Z" id="Końcowazmianaceny" fill="#2A3052" fill-rule="nonzero"></path>
            <path d="M24.6240234,20 L22.4267578,20 L18.1494141,12.9833984 L18.1494141,20 L15.9521484,20 L15.9521484,9.3359375 L18.1494141,9.3359375 L22.434082,16.3671875 L22.434082,9.3359375 L24.6240234,9.3359375 L24.6240234,20 Z M28.6376953,20 L26.5136719,20 L26.5136719,12.0751953 L28.6376953,12.0751953 L28.6376953,20 Z M26.3891602,10.0244141 C26.3891602,9.70702966 26.4953603,9.44580181 26.7077637,9.24072266 C26.9201671,9.03564351 27.2094708,8.93310547 27.5756836,8.93310547 C27.9370135,8.93310547 28.2250966,9.03564351 28.4399414,9.24072266 C28.6547862,9.44580181 28.762207,9.70702966 28.762207,10.0244141 C28.762207,10.3466813 28.6535655,10.6103505 28.4362793,10.8154297 C28.2189931,11.0205088 27.9321307,11.1230469 27.5756836,11.1230469 C27.2192365,11.1230469 26.9323741,11.0205088 26.7150879,10.8154297 C26.4978016,10.6103505 26.3891602,10.3466813 26.3891602,10.0244141 Z M34.6728516,17.8100586 C34.6728516,17.5512682 34.544679,17.3474129 34.2883301,17.1984863 C34.0319811,17.0495598 33.6206083,16.9165045 33.0541992,16.7993164 C31.1694242,16.4038066 30.2270508,15.6030334 30.2270508,14.3969727 C30.2270508,13.6938441 30.5187959,13.1066918 31.1022949,12.635498 C31.6857939,12.1643043 32.4487258,11.9287109 33.3911133,11.9287109 C34.3969777,11.9287109 35.201413,12.165525 35.8044434,12.6391602 C36.4074737,13.1127953 36.7089844,13.7280236 36.7089844,14.4848633 L34.5922852,14.4848633 C34.5922852,14.1821274 34.4946299,13.9318858 34.2993164,13.7341309 C34.1040029,13.536376 33.7988302,13.4375 33.3837891,13.4375 C33.027342,13.4375 32.7514658,13.5180656 32.5561523,13.6791992 C32.3608389,13.8403328 32.2631836,14.0454089 32.2631836,14.2944336 C32.2631836,14.5288098 32.3742665,14.7180169 32.5964355,14.8620605 C32.8186046,15.0061042 33.1933567,15.1306147 33.7207031,15.2355957 C34.2480495,15.3405767 34.692381,15.4589837 35.0537109,15.5908203 C36.1718806,16.0009786 36.730957,16.7114207 36.730957,17.722168 C36.730957,18.4448278 36.4209015,19.0295388 35.8007812,19.4763184 C35.180661,19.9230979 34.3798877,20.1464844 33.3984375,20.1464844 C32.7343717,20.1464844 32.144778,20.0280774 31.6296387,19.7912598 C31.1144994,19.5544422 30.7104507,19.2297384 30.4174805,18.8171387 C30.1245103,18.404539 29.9780273,17.9589868 29.9780273,17.4804688 L31.9848633,17.4804688 C32.0043946,17.8564472 32.1435534,18.1445302 32.4023438,18.3447266 C32.6611341,18.5449229 33.0078103,18.6450195 33.4423828,18.6450195 C33.8476583,18.6450195 34.1540517,18.568116 34.3615723,18.4143066 C34.5690928,18.2604973 34.6728516,18.0590833 34.6728516,17.8100586 Z M40.9716797,16.8212891 L40.2099609,17.5830078 L40.2099609,20 L38.0932617,20 L38.0932617,8.75 L40.2099609,8.75 L40.2099609,14.9829102 L40.6201172,14.4555664 L42.6489258,12.0751953 L45.1904297,12.0751953 L42.3266602,15.378418 L45.4394531,20 L43.0078125,20 L40.9716797,16.8212891 Z M50.6982422,20 C50.6005854,19.8095694 50.5297854,19.5727553 50.4858398,19.2895508 C49.973142,19.8608427 49.3066447,20.1464844 48.4863281,20.1464844 C47.7099571,20.1464844 47.0666529,19.9218772 46.5563965,19.4726562 C46.04614,19.0234353 45.7910156,18.4570347 45.7910156,17.7734375 C45.7910156,16.9335896 46.1022918,16.2890647 46.7248535,15.8398438 C47.3474152,15.3906228 48.2470644,15.1635742 49.4238281,15.1586914 L50.3979492,15.1586914 L50.3979492,14.7045898 C50.3979492,14.3383771 50.303956,14.0454113 50.1159668,13.8256836 C49.9279776,13.6059559 49.6313497,13.4960938 49.2260742,13.4960938 C48.8696271,13.4960938 48.5900889,13.5815421 48.3874512,13.7524414 C48.1848134,13.9233407 48.0834961,14.1577134 48.0834961,14.4555664 L45.9667969,14.4555664 C45.9667969,13.9965797 46.108397,13.5717793 46.3916016,13.1811523 C46.6748061,12.7905254 47.0751927,12.484132 47.5927734,12.2619629 C48.1103542,12.0397938 48.691403,11.9287109 49.3359375,11.9287109 C50.3125049,11.9287109 51.0876436,12.1740698 51.661377,12.6647949 C52.2351103,13.15552 52.5219727,13.8452104 52.5219727,14.7338867 L52.5219727,18.1689453 C52.5268555,18.9209022 52.6318349,19.4897442 52.8369141,19.8754883 L52.8369141,20 L50.6982422,20 Z M48.9477539,18.527832 C49.2602555,18.527832 49.5483385,18.4582526 49.8120117,18.3190918 C50.0756849,18.1799309 50.2709955,17.9931652 50.3979492,17.7587891 L50.3979492,16.3964844 L49.6069336,16.3964844 C48.547358,16.3964844 47.9833988,16.7626917 47.9150391,17.4951172 L47.9077148,17.6196289 C47.9077148,17.8833021 48.0004874,18.1005851 48.1860352,18.2714844 C48.371583,18.4423837 48.6254867,18.527832 48.9477539,18.527832 Z M60.3149414,18.293457 L64.1894531,18.293457 L64.1894531,20 L57.6123047,20 L57.6123047,18.7109375 L61.340332,13.7890625 L57.722168,13.7890625 L57.722168,12.0751953 L64.0722656,12.0751953 L64.0722656,13.3276367 L60.3149414,18.293457 Z M67.5,12.0751953 L67.565918,12.9614258 C68.1274442,12.2729458 68.886714,11.9287109 69.84375,11.9287109 C70.8642629,11.9287109 71.5649395,12.3315389 71.9458008,13.137207 C72.5024442,12.3315389 73.2958933,11.9287109 74.3261719,11.9287109 C75.1855512,11.9287109 75.8251932,12.1789526 76.2451172,12.6794434 C76.6650412,13.1799341 76.875,13.9331004 76.875,14.9389648 L76.875,20 L74.7509766,20 L74.7509766,14.9462891 C74.7509766,14.4970681 74.6630868,14.1687022 74.4873047,13.9611816 C74.3115226,13.7536611 74.0014671,13.6499023 73.5571289,13.6499023 C72.9223601,13.6499023 72.4829114,13.9526337 72.2387695,14.5581055 L72.2460938,20 L70.1293945,20 L70.1293945,14.9536133 C70.1293945,14.4946266 70.0390634,14.1625987 69.8583984,13.9575195 C69.6777335,13.7524404 69.3701194,13.6499023 68.9355469,13.6499023 C68.3349579,13.6499023 67.900392,13.8989233 67.6318359,14.3969727 L67.6318359,20 L65.5151367,20 L65.5151367,12.0751953 L67.5,12.0751953 Z M80.7348633,20 L78.6108398,20 L78.6108398,12.0751953 L80.7348633,12.0751953 L80.7348633,20 Z M78.4863281,10.0244141 C78.4863281,9.70702966 78.5925282,9.44580181 78.8049316,9.24072266 C79.017335,9.03564351 79.3066388,8.93310547 79.6728516,8.93310547 C80.0341815,8.93310547 80.3222646,9.03564351 80.5371094,9.24072266 C80.7519542,9.44580181 80.859375,9.70702966 80.859375,10.0244141 C80.859375,10.3466813 80.7507335,10.6103505 80.5334473,10.8154297 C80.316161,11.0205088 80.0292987,11.1230469 79.6728516,11.1230469 C79.3164045,11.1230469 79.0295421,11.0205088 78.8122559,10.8154297 C78.5949696,10.6103505 78.4863281,10.3466813 78.4863281,10.0244141 Z M87.0703125,20 C86.9726558,19.8095694 86.9018557,19.5727553 86.8579102,19.2895508 C86.3452123,19.8608427 85.678715,20.1464844 84.8583984,20.1464844 C84.0820274,20.1464844 83.4387233,19.9218772 82.9284668,19.4726562 C82.4182103,19.0234353 82.1630859,18.4570347 82.1630859,17.7734375 C82.1630859,16.9335896 82.4743621,16.2890647 83.0969238,15.8398438 C83.7194855,15.3906228 84.6191347,15.1635742 85.7958984,15.1586914 L86.7700195,15.1586914 L86.7700195,14.7045898 C86.7700195,14.3383771 86.6760263,14.0454113 86.4880371,13.8256836 C86.3000479,13.6059559 86.00342,13.4960938 85.5981445,13.4960938 C85.2416974,13.4960938 84.9621592,13.5815421 84.7595215,13.7524414 C84.5568838,13.9233407 84.4555664,14.1577134 84.4555664,14.4555664 L82.3388672,14.4555664 C82.3388672,13.9965797 82.4804673,13.5717793 82.7636719,13.1811523 C83.0468764,12.7905254 83.447263,12.484132 83.9648438,12.2619629 C84.4824245,12.0397938 85.0634733,11.9287109 85.7080078,11.9287109 C86.6845752,11.9287109 87.4597139,12.1740698 88.0334473,12.6647949 C88.6071806,13.15552 88.894043,13.8452104 88.894043,14.7338867 L88.894043,18.1689453 C88.8989258,18.9209022 89.0039052,19.4897442 89.2089844,19.8754883 L89.2089844,20 L87.0703125,20 Z M85.3198242,18.527832 C85.6323258,18.527832 85.9204088,18.4582526 86.184082,18.3190918 C86.4477552,18.1799309 86.6430658,17.9931652 86.7700195,17.7587891 L86.7700195,16.3964844 L85.9790039,16.3964844 C84.9194283,16.3964844 84.3554691,16.7626917 84.2871094,17.4951172 L84.2797852,17.6196289 C84.2797852,17.8833021 84.3725577,18.1005851 84.5581055,18.2714844 C84.7436533,18.4423837 84.997557,18.527832 85.3198242,18.527832 Z M92.4682617,12.0751953 L92.5341797,12.9907227 C93.1005888,12.2827113 93.8598585,11.9287109 94.8120117,11.9287109 C95.6518597,11.9287109 96.2768534,12.1752905 96.6870117,12.668457 C97.09717,13.1616236 97.3071289,13.8989209 97.3168945,14.8803711 L97.3168945,20 L95.2001953,20 L95.2001953,14.9316406 C95.2001953,14.4824196 95.10254,14.1564952 94.9072266,13.9538574 C94.7119131,13.7512197 94.3872093,13.6499023 93.9331055,13.6499023 C93.3373994,13.6499023 92.8906265,13.9038061 92.5927734,14.4116211 L92.5927734,20 L90.4760742,20 L90.4760742,12.0751953 L92.4682617,12.0751953 Z M103.513184,20 C103.415527,19.8095694 103.344727,19.5727553 103.300781,19.2895508 C102.788083,19.8608427 102.121586,20.1464844 101.30127,20.1464844 C100.524898,20.1464844 99.8815943,19.9218772 99.3713379,19.4726562 C98.8610814,19.0234353 98.605957,18.4570347 98.605957,17.7734375 C98.605957,16.9335896 98.9172332,16.2890647 99.5397949,15.8398438 C100.162357,15.3906228 101.062006,15.1635742 102.23877,15.1586914 L103.212891,15.1586914 L103.212891,14.7045898 C103.212891,14.3383771 103.118897,14.0454113 102.930908,13.8256836 C102.742919,13.6059559 102.446291,13.4960938 102.041016,13.4960938 C101.684569,13.4960938 101.40503,13.5815421 101.202393,13.7524414 C100.999755,13.9233407 100.898438,14.1577134 100.898438,14.4555664 L98.7817383,14.4555664 C98.7817383,13.9965797 98.9233384,13.5717793 99.206543,13.1811523 C99.4897475,12.7905254 99.8901341,12.484132 100.407715,12.2619629 C100.925296,12.0397938 101.506344,11.9287109 102.150879,11.9287109 C103.127446,11.9287109 103.902585,12.1740698 104.476318,12.6647949 C105.050052,13.15552 105.336914,13.8452104 105.336914,14.7338867 L105.336914,18.1689453 C105.341797,18.9209022 105.446776,19.4897442 105.651855,19.8754883 L105.651855,20 L103.513184,20 Z M101.762695,18.527832 C102.075197,18.527832 102.36328,18.4582526 102.626953,18.3190918 C102.890626,18.1799309 103.085937,17.9931652 103.212891,17.7587891 L103.212891,16.3964844 L102.421875,16.3964844 C101.362299,16.3964844 100.79834,16.7626917 100.72998,17.4951172 L100.722656,17.6196289 C100.722656,17.8833021 100.815429,18.1005851 101.000977,18.2714844 C101.186524,18.4423837 101.440428,18.527832 101.762695,18.527832 Z M113.994141,18.4399414 C114.384768,18.4399414 114.702147,18.3325206 114.946289,18.1176758 C115.190431,17.902831 115.317383,17.6171893 115.327148,17.2607422 L117.312012,17.2607422 C117.307129,17.7978542 117.160646,18.2897927 116.872559,18.7365723 C116.584471,19.1833518 116.190188,19.5300281 115.689697,19.7766113 C115.189206,20.0231946 114.636233,20.1464844 114.030762,20.1464844 C112.897944,20.1464844 112.004398,19.7863806 111.350098,19.0661621 C110.695798,18.3459437 110.368652,17.3510806 110.368652,16.081543 L110.368652,15.9423828 C110.368652,14.7216736 110.693356,13.7475622 111.342773,13.0200195 C111.992191,12.2924768 112.883295,11.9287109 114.016113,11.9287109 C115.007329,11.9287109 115.801999,12.2106905 116.400146,12.7746582 C116.998294,13.3386259 117.302246,14.0893508 117.312012,15.0268555 L115.327148,15.0268555 C115.317383,14.6166972 115.190431,14.2834485 114.946289,14.0270996 C114.702147,13.7707507 114.379885,13.6425781 113.979492,13.6425781 C113.486326,13.6425781 113.114015,13.8220197 112.862549,14.1809082 C112.611083,14.5397967 112.485352,15.1220663 112.485352,15.9277344 L112.485352,16.1474609 C112.485352,16.9628947 112.609862,17.5488263 112.858887,17.9052734 C113.107911,18.2617205 113.486326,18.4399414 113.994141,18.4399414 Z M122.167969,20.1464844 C121.005854,20.1464844 120.059818,19.7900426 119.329834,19.0771484 C118.59985,18.3642542 118.234863,17.4145567 118.234863,16.2280273 L118.234863,16.0229492 C118.234863,15.2270468 118.38867,14.515384 118.696289,13.8879395 C119.003908,13.2604949 119.439694,12.7771013 120.003662,12.4377441 C120.56763,12.098387 121.210934,11.9287109 121.933594,11.9287109 C123.017584,11.9287109 123.870846,12.2705044 124.493408,12.9541016 C125.11597,13.6376987 125.427246,14.6069273 125.427246,15.8618164 L125.427246,16.7260742 L120.380859,16.7260742 C120.449219,17.2436549 120.655516,17.6586898 120.999756,17.9711914 C121.343996,18.283693 121.779783,18.4399414 122.307129,18.4399414 C123.122563,18.4399414 123.759763,18.1445342 124.21875,17.5537109 L125.258789,18.7182617 C124.941405,19.1674827 124.511721,19.517821 123.969727,19.7692871 C123.427732,20.0207532 122.827152,20.1464844 122.167969,20.1464844 Z M121.92627,13.6425781 C121.506346,13.6425781 121.165773,13.7841783 120.904541,14.0673828 C120.643309,14.3505874 120.476075,14.7558567 120.402832,15.2832031 L123.347168,15.2832031 L123.347168,15.1147461 C123.337402,14.6459938 123.21045,14.2834485 122.966309,14.0270996 C122.722167,13.7707507 122.375491,13.6425781 121.92627,13.6425781 Z M128.57666,12.0751953 L128.642578,12.9907227 C129.208987,12.2827113 129.968257,11.9287109 130.92041,11.9287109 C131.760258,11.9287109 132.385252,12.1752905 132.79541,12.668457 C133.205568,13.1616236 133.415527,13.8989209 133.425293,14.8803711 L133.425293,20 L131.308594,20 L131.308594,14.9316406 C131.308594,14.4824196 131.210938,14.1564952 131.015625,13.9538574 C130.820312,13.7512197 130.495608,13.6499023 130.041504,13.6499023 C129.445798,13.6499023 128.999025,13.9038061 128.701172,14.4116211 L128.701172,20 L126.584473,20 L126.584473,12.0751953 L128.57666,12.0751953 Z M137.988281,17.0043945 L139.453125,12.0751953 L141.723633,12.0751953 L138.537598,21.2304688 L138.361816,21.6479492 C137.888181,22.6831106 137.106939,23.2006836 136.018066,23.2006836 C135.710448,23.2006836 135.397951,23.1542973 135.080566,23.0615234 L135.080566,21.4575195 L135.402832,21.4648438 C135.803225,21.4648438 136.102294,21.4038092 136.300049,21.2817383 C136.497804,21.1596674 136.652831,20.9570327 136.765137,20.6738281 L137.01416,20.0219727 L134.238281,12.0751953 L136.516113,12.0751953 L137.988281,17.0043945 Z" id="Niskazmianaceny" fill="#000000" fill-rule="nonzero"></path>
            <path d="M26.3798828,97.246582 C25.1738221,96.8999006 24.2961453,96.4738795 23.7468262,95.9685059 C23.197507,95.4631322 22.9228516,94.8393592 22.9228516,94.097168 C22.9228516,93.25732 23.2585416,92.5627469 23.9299316,92.0134277 C24.6013217,91.4641086 25.4741157,91.1894531 26.5483398,91.1894531 C27.2807654,91.1894531 27.933835,91.3310533 28.5075684,91.6142578 C29.0813017,91.8974624 29.5256332,92.2880834 29.8405762,92.7861328 C30.1555192,93.2841822 30.3129883,93.8286103 30.3129883,94.4194336 L28.8994141,94.4194336 C28.8994141,93.7748991 28.694338,93.2683124 28.2841797,92.8996582 C27.8740214,92.531004 27.2954139,92.3466797 26.5483398,92.3466797 C25.854977,92.3466797 25.3142109,92.4992661 24.9260254,92.8044434 C24.5378399,93.1096207 24.34375,93.5332004 24.34375,94.0751953 C24.34375,94.5097678 24.5280743,94.8771958 24.8967285,95.1774902 C25.2653827,95.4777847 25.8928178,95.7524402 26.7790527,96.0014648 C27.6652876,96.2504895 28.3586401,96.525145 28.8591309,96.8254395 C29.3596216,97.1257339 29.7307117,97.4760722 29.9724121,97.8764648 C30.2141125,98.2768575 30.3349609,98.7480442 30.3349609,99.2900391 C30.3349609,100.154301 29.9980502,100.846433 29.3242188,101.366455 C28.6503873,101.886477 27.7495174,102.146484 26.621582,102.146484 C25.8891565,102.146484 25.2055696,102.006105 24.5708008,101.725342 C23.936032,101.444579 23.4465349,101.060061 23.1022949,100.571777 C22.7580549,100.083494 22.5859375,99.5293 22.5859375,98.9091797 L23.9995117,98.9091797 C23.9995117,99.5537142 24.2375464,100.062742 24.713623,100.436279 C25.1896996,100.809816 25.8256796,100.996582 26.621582,100.996582 C27.3637732,100.996582 27.9326152,100.845216 28.328125,100.54248 C28.7236348,100.239745 28.9213867,99.827151 28.9213867,99.3046875 C28.9213867,98.782224 28.7382831,98.3781753 28.3720703,98.0925293 C28.0058575,97.8068833 27.3418017,97.5249037 26.3798828,97.246582 Z M33.7626953,92.15625 L33.7626953,94.0751953 L35.2421875,94.0751953 L35.2421875,95.1225586 L33.7626953,95.1225586 L33.7626953,100.037109 C33.7626953,100.354494 33.8286126,100.592529 33.9604492,100.751221 C34.0922858,100.909913 34.3168929,100.989258 34.6342773,100.989258 C34.7905281,100.989258 35.0053697,100.959961 35.2788086,100.901367 L35.2788086,102 C34.9223615,102.097657 34.5756853,102.146484 34.2387695,102.146484 C33.6332978,102.146484 33.1767594,101.963381 32.8691406,101.597168 C32.5615219,101.230955 32.4077148,100.710941 32.4077148,100.037109 L32.4077148,95.1225586 L30.9648438,95.1225586 L30.9648438,94.0751953 L32.4077148,94.0751953 L32.4077148,92.15625 L33.7626953,92.15625 Z M41.7167969,102 C41.6386715,101.843749 41.5751956,101.565432 41.5263672,101.165039 C40.8964812,101.819339 40.1445356,102.146484 39.2705078,102.146484 C38.4892539,102.146484 37.8483912,101.925539 37.3479004,101.483643 C36.8474096,101.041746 36.597168,100.481449 36.597168,99.8027344 C36.597168,98.9775349 36.9108855,98.3366722 37.5383301,97.880127 C38.1657746,97.4235817 39.0483342,97.1953125 40.1860352,97.1953125 L41.5043945,97.1953125 L41.5043945,96.5727539 C41.5043945,96.0991187 41.3627944,95.7219252 41.0795898,95.4411621 C40.7963853,95.160399 40.378909,95.0200195 39.8271484,95.0200195 C39.3437476,95.0200195 38.9384782,95.1420886 38.6113281,95.3862305 C38.2841781,95.6303723 38.1206055,95.9257795 38.1206055,96.2724609 L36.7583008,96.2724609 C36.7583008,95.8769511 36.8986802,95.4948749 37.1794434,95.1262207 C37.4602065,94.7575665 37.841062,94.4658214 38.3220215,94.2509766 C38.8029809,94.0361317 39.3315401,93.9287109 39.9077148,93.9287109 C40.8208053,93.9287109 41.5361302,94.1569801 42.0537109,94.6135254 C42.5712917,95.0700706 42.8398437,95.6987265 42.859375,96.4995117 L42.859375,100.146973 C42.859375,100.874515 42.9521475,101.453123 43.1376953,101.882812 L43.1376953,102 L41.7167969,102 Z M39.4682617,100.967285 C39.8930685,100.967285 40.2958965,100.857423 40.6767578,100.637695 C41.0576191,100.417968 41.3334952,100.132326 41.5043945,99.7807617 L41.5043945,98.1547852 L40.4423828,98.1547852 C38.7822183,98.1547852 37.9521484,98.6406201 37.9521484,99.6123047 C37.9521484,100.037111 38.0937486,100.369139 38.3769531,100.608398 C38.6601577,100.847657 39.0239236,100.967285 39.4682617,100.967285 Z M48.8139648,95.2910156 C48.6088857,95.2568358 48.3867199,95.2397461 48.1474609,95.2397461 C47.2587846,95.2397461 46.6557633,95.6181603 46.3383789,96.375 L46.3383789,102 L44.9833984,102 L44.9833984,94.0751953 L46.3017578,94.0751953 L46.3237305,94.9907227 C46.7680686,94.2827113 47.3979451,93.9287109 48.2133789,93.9287109 C48.4770521,93.9287109 48.6772454,93.9628903 48.8139648,94.03125 L48.8139648,95.2910156 Z M51.8974609,92.15625 L51.8974609,94.0751953 L53.3769531,94.0751953 L53.3769531,95.1225586 L51.8974609,95.1225586 L51.8974609,100.037109 C51.8974609,100.354494 51.9633782,100.592529 52.0952148,100.751221 C52.2270514,100.909913 52.4516586,100.989258 52.769043,100.989258 C52.9252938,100.989258 53.1401354,100.959961 53.4135742,100.901367 L53.4135742,102 C53.0571271,102.097657 52.7104509,102.146484 52.3735352,102.146484 C51.7680634,102.146484 51.311525,101.963381 51.0039062,101.597168 C50.6962875,101.230955 50.5424805,100.710941 50.5424805,100.037109 L50.5424805,95.1225586 L49.0996094,95.1225586 L49.0996094,94.0751953 L50.5424805,94.0751953 L50.5424805,92.15625 L51.8974609,92.15625 Z" id="Start" fill="#2A3052" fill-rule="nonzero"></path>
            <path d="M109.884766,174.394531 L107.142578,174.394531 L107.142578,182 L106.023438,182 L106.023438,174.394531 L103.287109,174.394531 L103.287109,173.46875 L109.884766,173.46875 L109.884766,174.394531 Z M112.158203,182 L111.074219,182 L111.074219,175.660156 L112.158203,175.660156 L112.158203,182 Z M110.986328,173.978516 C110.986328,173.802733 111.040039,173.654297 111.147461,173.533203 C111.254883,173.412109 111.414061,173.351562 111.625,173.351562 C111.835939,173.351562 111.996093,173.412109 112.105469,173.533203 C112.214844,173.654297 112.269531,173.802733 112.269531,173.978516 C112.269531,174.154298 112.214844,174.300781 112.105469,174.417969 C111.996093,174.535157 111.835939,174.59375 111.625,174.59375 C111.414061,174.59375 111.254883,174.535157 111.147461,174.417969 C111.040039,174.300781 110.986328,174.154298 110.986328,173.978516 Z M116.435547,181.232422 C116.822268,181.232422 117.160155,181.115236 117.449219,180.880859 C117.738283,180.646483 117.898437,180.353517 117.929688,180.001953 L118.955078,180.001953 C118.935547,180.365236 118.810548,180.710936 118.580078,181.039062 C118.349608,181.367189 118.041994,181.628905 117.657227,181.824219 C117.272459,182.019532 116.865237,182.117188 116.435547,182.117188 C115.572261,182.117188 114.885745,181.829104 114.375977,181.25293 C113.866208,180.676755 113.611328,179.888677 113.611328,178.888672 L113.611328,178.707031 C113.611328,178.089841 113.724608,177.541018 113.951172,177.060547 C114.177736,176.580076 114.502928,176.207033 114.926758,175.941406 C115.350588,175.67578 115.85156,175.542969 116.429688,175.542969 C117.140629,175.542969 117.731443,175.755857 118.202148,176.181641 C118.672854,176.607424 118.923828,177.160153 118.955078,177.839844 L117.929688,177.839844 C117.898437,177.429685 117.743165,177.092775 117.463867,176.829102 C117.184569,176.565428 116.839846,176.433594 116.429688,176.433594 C115.878903,176.433594 115.45215,176.631834 115.149414,177.02832 C114.846678,177.424807 114.695312,177.998043 114.695312,178.748047 L114.695312,178.953125 C114.695312,179.683597 114.845702,180.246092 115.146484,180.640625 C115.447267,181.035158 115.87695,181.232422 116.435547,181.232422 Z M121.943359,179.064453 L121.263672,179.773438 L121.263672,182 L120.179688,182 L120.179688,173 L121.263672,173 L121.263672,178.443359 L121.84375,177.746094 L123.818359,175.660156 L125.136719,175.660156 L122.669922,178.308594 L125.423828,182 L124.152344,182 L121.943359,179.064453 Z M133.691406,179.134766 L134.875,179.134766 L134.875,180.019531 L133.691406,180.019531 L133.691406,182 L132.601562,182 L132.601562,180.019531 L128.716797,180.019531 L128.716797,179.380859 L132.537109,173.46875 L133.691406,173.46875 L133.691406,179.134766 Z M129.947266,179.134766 L132.601562,179.134766 L132.601562,174.951172 L132.472656,175.185547 L129.947266,179.134766 Z M135.929688,181.431641 C135.929688,181.24414 135.985351,181.087891 136.09668,180.962891 C136.208008,180.83789 136.374999,180.775391 136.597656,180.775391 C136.820314,180.775391 136.989257,180.83789 137.104492,180.962891 C137.219727,181.087891 137.277344,181.24414 137.277344,181.431641 C137.277344,181.611329 137.219727,181.761718 137.104492,181.882812 C136.989257,182.003907 136.820314,182.064453 136.597656,182.064453 C136.374999,182.064453 136.208008,182.003907 136.09668,181.882812 C135.985351,181.761718 135.929688,181.611329 135.929688,181.431641 Z M135.935547,176.257812 C135.935547,176.070312 135.99121,175.914063 136.102539,175.789062 C136.213868,175.664062 136.380858,175.601562 136.603516,175.601562 C136.826173,175.601562 136.995117,175.664062 137.110352,175.789062 C137.225587,175.914063 137.283203,176.070312 137.283203,176.257812 C137.283203,176.437501 137.225587,176.58789 137.110352,176.708984 C136.995117,176.830079 136.826173,176.890625 136.603516,176.890625 C136.380858,176.890625 136.213868,176.830079 136.102539,176.708984 C135.99121,176.58789 135.935547,176.437501 135.935547,176.257812 Z M148.568359,182 L147.4375,182 L143.142578,175.425781 L143.142578,182 L142.011719,182 L142.011719,173.46875 L143.142578,173.46875 L147.449219,180.072266 L147.449219,173.46875 L148.568359,173.46875 L148.568359,182 Z M154.310547,182 C154.248047,181.874999 154.197266,181.652345 154.158203,181.332031 C153.654294,181.855471 153.052738,182.117188 152.353516,182.117188 C151.728512,182.117188 151.215822,181.940431 150.81543,181.586914 C150.415037,181.233397 150.214844,180.785159 150.214844,180.242188 C150.214844,179.582028 150.465818,179.069338 150.967773,178.704102 C151.469729,178.338865 152.175777,178.15625 153.085938,178.15625 L154.140625,178.15625 L154.140625,177.658203 C154.140625,177.279295 154.027345,176.97754 153.800781,176.75293 C153.574218,176.528319 153.240237,176.416016 152.798828,176.416016 C152.412107,176.416016 152.087892,176.513671 151.826172,176.708984 C151.564452,176.904298 151.433594,177.140624 151.433594,177.417969 L150.34375,177.417969 C150.34375,177.101561 150.456054,176.7959 150.680664,176.500977 C150.905275,176.206053 151.209959,175.972657 151.594727,175.800781 C151.979494,175.628905 152.402341,175.542969 152.863281,175.542969 C153.593754,175.542969 154.166014,175.725584 154.580078,176.09082 C154.994143,176.456057 155.208984,176.958981 155.224609,177.599609 L155.224609,180.517578 C155.224609,181.099612 155.298827,181.562498 155.447266,181.90625 L155.447266,182 L154.310547,182 Z M152.511719,181.173828 C152.851564,181.173828 153.173827,181.085938 153.478516,180.910156 C153.783205,180.734374 154.003906,180.505861 154.140625,180.224609 L154.140625,178.923828 L153.291016,178.923828 C151.962884,178.923828 151.298828,179.312496 151.298828,180.089844 C151.298828,180.429689 151.412108,180.695312 151.638672,180.886719 C151.865236,181.078126 152.156248,181.173828 152.511719,181.173828 Z M158.042969,175.660156 L158.042969,182.732422 C158.042969,183.951178 157.49024,184.560547 156.384766,184.560547 C156.146483,184.560547 155.925782,184.525391 155.722656,184.455078 L155.722656,183.587891 C155.847657,183.619141 156.011718,183.634766 156.214844,183.634766 C156.457032,183.634766 156.641601,183.569337 156.768555,183.438477 C156.895508,183.307617 156.958984,183.08008 156.958984,182.755859 L156.958984,175.660156 L158.042969,175.660156 Z M156.847656,173.978516 C156.847656,173.80664 156.901367,173.65918 157.008789,173.536133 C157.116211,173.413085 157.273436,173.351562 157.480469,173.351562 C157.691407,173.351562 157.851562,173.412109 157.960938,173.533203 C158.070313,173.654297 158.125,173.802733 158.125,173.978516 C158.125,174.154298 158.070313,174.300781 157.960938,174.417969 C157.851562,174.535157 157.691407,174.59375 157.480469,174.59375 C157.26953,174.59375 157.111329,174.535157 157.005859,174.417969 C156.90039,174.300781 156.847656,174.154298 156.847656,173.978516 Z M160.814453,175.660156 L160.849609,176.457031 C161.333987,175.847653 161.966793,175.542969 162.748047,175.542969 C164.087897,175.542969 164.763672,176.298821 164.775391,177.810547 L164.775391,182 L163.691406,182 L163.691406,177.804688 C163.6875,177.347654 163.583009,177.009767 163.37793,176.791016 C163.172851,176.572265 162.853518,176.462891 162.419922,176.462891 C162.068358,176.462891 161.759767,176.55664 161.494141,176.744141 C161.228514,176.931642 161.021485,177.177733 160.873047,177.482422 L160.873047,182 L159.789062,182 L159.789062,175.660156 L160.814453,175.660156 Z M167.587891,182 L166.503906,182 L166.503906,175.660156 L167.587891,175.660156 L167.587891,182 Z M166.416016,173.978516 C166.416016,173.802733 166.469726,173.654297 166.577148,173.533203 C166.684571,173.412109 166.843749,173.351562 167.054688,173.351562 C167.265626,173.351562 167.425781,173.412109 167.535156,173.533203 C167.644532,173.654297 167.699219,173.802733 167.699219,173.978516 C167.699219,174.154298 167.644532,174.300781 167.535156,174.417969 C167.425781,174.535157 167.265626,174.59375 167.054688,174.59375 C166.843749,174.59375 166.684571,174.535157 166.577148,174.417969 C166.469726,174.300781 166.416016,174.154298 166.416016,173.978516 Z M170.341797,181.115234 L174.050781,181.115234 L174.050781,182 L169.017578,182 L169.017578,181.203125 L172.515625,176.556641 L169.070312,176.556641 L169.070312,175.660156 L173.875,175.660156 L173.875,176.427734 L170.341797,181.115234 Z M170.875,173.990234 C170.875,173.814452 170.92871,173.666016 171.036133,173.544922 C171.143555,173.423828 171.302733,173.363281 171.513672,173.363281 C171.72461,173.363281 171.884765,173.423828 171.994141,173.544922 C172.103516,173.666016 172.158203,173.814452 172.158203,173.990234 C172.158203,174.166017 172.103516,174.312499 171.994141,174.429688 C171.884765,174.546876 171.72461,174.605469 171.513672,174.605469 C171.302733,174.605469 171.143555,174.546876 171.036133,174.429688 C170.92871,174.312499 170.875,174.166017 170.875,173.990234 Z M178.960938,180.318359 C178.960938,180.025389 178.850587,179.797852 178.629883,179.635742 C178.409179,179.473632 178.024417,179.333985 177.475586,179.216797 C176.926755,179.099609 176.491213,178.958985 176.168945,178.794922 C175.846678,178.630859 175.608399,178.435548 175.454102,178.208984 C175.299804,177.982421 175.222656,177.712892 175.222656,177.400391 C175.222656,176.880857 175.442381,176.441408 175.881836,176.082031 C176.321291,175.722654 176.882809,175.542969 177.566406,175.542969 C178.28516,175.542969 178.868162,175.728514 179.31543,176.099609 C179.762698,176.470705 179.986328,176.94531 179.986328,177.523438 L178.896484,177.523438 C178.896484,177.226561 178.770509,176.970704 178.518555,176.755859 C178.2666,176.541015 177.949221,176.433594 177.566406,176.433594 C177.171873,176.433594 176.863282,176.51953 176.640625,176.691406 C176.417968,176.863282 176.306641,177.087889 176.306641,177.365234 C176.306641,177.626954 176.410155,177.824218 176.617188,177.957031 C176.82422,178.089844 177.198239,178.216796 177.739258,178.337891 C178.280276,178.458985 178.718748,178.603515 179.054688,178.771484 C179.390627,178.939454 179.639648,179.1416 179.801758,179.37793 C179.963868,179.614259 180.044922,179.902342 180.044922,180.242188 C180.044922,180.808597 179.818362,181.262694 179.365234,181.604492 C178.912107,181.946291 178.324222,182.117188 177.601562,182.117188 C177.093747,182.117188 176.644533,182.027345 176.253906,181.847656 C175.863279,181.667968 175.557618,181.416994 175.336914,181.094727 C175.11621,180.772459 175.005859,180.42383 175.005859,180.048828 L176.089844,180.048828 C176.109375,180.412111 176.254881,180.700194 176.526367,180.913086 C176.797853,181.125978 177.156248,181.232422 177.601562,181.232422 C178.011721,181.232422 178.340819,181.149415 178.588867,180.983398 C178.836915,180.817382 178.960938,180.595705 178.960938,180.318359 Z M182.476562,181.115234 L186.185547,181.115234 L186.185547,182 L181.152344,182 L181.152344,181.203125 L184.650391,176.556641 L181.205078,176.556641 L181.205078,175.660156 L186.009766,175.660156 L186.009766,176.427734 L182.476562,181.115234 Z M191.318359,182 C191.255859,181.874999 191.205078,181.652345 191.166016,181.332031 C190.662107,181.855471 190.06055,182.117188 189.361328,182.117188 C188.736325,182.117188 188.223635,181.940431 187.823242,181.586914 C187.42285,181.233397 187.222656,180.785159 187.222656,180.242188 C187.222656,179.582028 187.47363,179.069338 187.975586,178.704102 C188.477542,178.338865 189.183589,178.15625 190.09375,178.15625 L191.148438,178.15625 L191.148438,177.658203 C191.148438,177.279295 191.035157,176.97754 190.808594,176.75293 C190.58203,176.528319 190.248049,176.416016 189.806641,176.416016 C189.41992,176.416016 189.095704,176.513671 188.833984,176.708984 C188.572264,176.904298 188.441406,177.140624 188.441406,177.417969 L187.351562,177.417969 C187.351562,177.101561 187.463866,176.7959 187.688477,176.500977 C187.913087,176.206053 188.217772,175.972657 188.602539,175.800781 C188.987307,175.628905 189.410154,175.542969 189.871094,175.542969 C190.601566,175.542969 191.173826,175.725584 191.587891,176.09082 C192.001955,176.456057 192.216797,176.958981 192.232422,177.599609 L192.232422,180.517578 C192.232422,181.099612 192.30664,181.562498 192.455078,181.90625 L192.455078,182 L191.318359,182 Z M189.519531,181.173828 C189.859377,181.173828 190.181639,181.085938 190.486328,180.910156 C190.791017,180.734374 191.011718,180.505861 191.148438,180.224609 L191.148438,178.923828 L190.298828,178.923828 C188.970696,178.923828 188.306641,179.312496 188.306641,180.089844 C188.306641,180.429689 188.419921,180.695312 188.646484,180.886719 C188.873048,181.078126 189.164061,181.173828 189.519531,181.173828 Z M197.921875,181.115234 L201.630859,181.115234 L201.630859,182 L196.597656,182 L196.597656,181.203125 L200.095703,176.556641 L196.650391,176.556641 L196.650391,175.660156 L201.455078,175.660156 L201.455078,176.427734 L197.921875,181.115234 Z M203.869141,175.660156 L203.898438,176.363281 C204.363284,175.816404 204.99023,175.542969 205.779297,175.542969 C206.66602,175.542969 207.26953,175.882809 207.589844,176.5625 C207.800782,176.257811 208.075194,176.01172 208.413086,175.824219 C208.750978,175.636718 209.150388,175.542969 209.611328,175.542969 C211.00196,175.542969 211.708984,176.27929 211.732422,177.751953 L211.732422,182 L210.648438,182 L210.648438,177.816406 C210.648438,177.363279 210.544923,177.024415 210.337891,176.799805 C210.130858,176.575194 209.783206,176.462891 209.294922,176.462891 C208.892576,176.462891 208.558595,176.583007 208.292969,176.823242 C208.027342,177.063478 207.873047,177.386717 207.830078,177.792969 L207.830078,182 L206.740234,182 L206.740234,177.845703 C206.740234,176.923824 206.289067,176.462891 205.386719,176.462891 C204.675778,176.462891 204.189454,176.765622 203.927734,177.371094 L203.927734,182 L202.84375,182 L202.84375,175.660156 L203.869141,175.660156 Z M214.544922,182 L213.460938,182 L213.460938,175.660156 L214.544922,175.660156 L214.544922,182 Z M213.373047,173.978516 C213.373047,173.802733 213.426757,173.654297 213.53418,173.533203 C213.641602,173.412109 213.80078,173.351562 214.011719,173.351562 C214.222657,173.351562 214.382812,173.412109 214.492188,173.533203 C214.601563,173.654297 214.65625,173.802733 214.65625,173.978516 C214.65625,174.154298 214.601563,174.300781 214.492188,174.417969 C214.382812,174.535157 214.222657,174.59375 214.011719,174.59375 C213.80078,174.59375 213.641602,174.535157 213.53418,174.417969 C213.426757,174.300781 213.373047,174.154298 213.373047,173.978516 Z M220.193359,182 C220.130859,181.874999 220.080078,181.652345 220.041016,181.332031 C219.537107,181.855471 218.93555,182.117188 218.236328,182.117188 C217.611325,182.117188 217.098635,181.940431 216.698242,181.586914 C216.29785,181.233397 216.097656,180.785159 216.097656,180.242188 C216.097656,179.582028 216.34863,179.069338 216.850586,178.704102 C217.352542,178.338865 218.058589,178.15625 218.96875,178.15625 L220.023438,178.15625 L220.023438,177.658203 C220.023438,177.279295 219.910157,176.97754 219.683594,176.75293 C219.45703,176.528319 219.123049,176.416016 218.681641,176.416016 C218.29492,176.416016 217.970704,176.513671 217.708984,176.708984 C217.447264,176.904298 217.316406,177.140624 217.316406,177.417969 L216.226562,177.417969 C216.226562,177.101561 216.338866,176.7959 216.563477,176.500977 C216.788087,176.206053 217.092772,175.972657 217.477539,175.800781 C217.862307,175.628905 218.285154,175.542969 218.746094,175.542969 C219.476566,175.542969 220.048826,175.725584 220.462891,176.09082 C220.876955,176.456057 221.091797,176.958981 221.107422,177.599609 L221.107422,180.517578 C221.107422,181.099612 221.18164,181.562498 221.330078,181.90625 L221.330078,182 L220.193359,182 Z M218.394531,181.173828 C218.734377,181.173828 219.056639,181.085938 219.361328,180.910156 C219.666017,180.734374 219.886718,180.505861 220.023438,180.224609 L220.023438,178.923828 L219.173828,178.923828 C217.845696,178.923828 217.181641,179.312496 217.181641,180.089844 C217.181641,180.429689 217.294921,180.695312 217.521484,180.886719 C217.748048,181.078126 218.039061,181.173828 218.394531,181.173828 Z M223.832031,175.660156 L223.867188,176.457031 C224.351565,175.847653 224.984371,175.542969 225.765625,175.542969 C227.105475,175.542969 227.78125,176.298821 227.792969,177.810547 L227.792969,182 L226.708984,182 L226.708984,177.804688 C226.705078,177.347654 226.600587,177.009767 226.395508,176.791016 C226.190429,176.572265 225.871096,176.462891 225.4375,176.462891 C225.085936,176.462891 224.777345,176.55664 224.511719,176.744141 C224.246092,176.931642 224.039063,177.177733 223.890625,177.482422 L223.890625,182 L222.806641,182 L222.806641,175.660156 L223.832031,175.660156 Z M233.341797,182 C233.279297,181.874999 233.228516,181.652345 233.189453,181.332031 C232.685544,181.855471 232.083988,182.117188 231.384766,182.117188 C230.759763,182.117188 230.247072,181.940431 229.84668,181.586914 C229.446287,181.233397 229.246094,180.785159 229.246094,180.242188 C229.246094,179.582028 229.497068,179.069338 229.999023,178.704102 C230.500979,178.338865 231.207027,178.15625 232.117188,178.15625 L233.171875,178.15625 L233.171875,177.658203 C233.171875,177.279295 233.058595,176.97754 232.832031,176.75293 C232.605468,176.528319 232.271487,176.416016 231.830078,176.416016 C231.443357,176.416016 231.119142,176.513671 230.857422,176.708984 C230.595702,176.904298 230.464844,177.140624 230.464844,177.417969 L229.375,177.417969 C229.375,177.101561 229.487304,176.7959 229.711914,176.500977 C229.936525,176.206053 230.241209,175.972657 230.625977,175.800781 C231.010744,175.628905 231.433591,175.542969 231.894531,175.542969 C232.625004,175.542969 233.197264,175.725584 233.611328,176.09082 C234.025393,176.456057 234.240234,176.958981 234.255859,177.599609 L234.255859,180.517578 C234.255859,181.099612 234.330077,181.562498 234.478516,181.90625 L234.478516,182 L233.341797,182 Z M231.542969,181.173828 C231.882814,181.173828 232.205077,181.085938 232.509766,180.910156 C232.814455,180.734374 233.035156,180.505861 233.171875,180.224609 L233.171875,178.923828 L232.322266,178.923828 C230.994134,178.923828 230.330078,179.312496 230.330078,180.089844 C230.330078,180.429689 230.443358,180.695312 230.669922,180.886719 C230.896486,181.078126 231.187498,181.173828 231.542969,181.173828 Z M241.46875,181.232422 C241.855471,181.232422 242.193358,181.115236 242.482422,180.880859 C242.771486,180.646483 242.93164,180.353517 242.962891,180.001953 L243.988281,180.001953 C243.96875,180.365236 243.843751,180.710936 243.613281,181.039062 C243.382811,181.367189 243.075197,181.628905 242.69043,181.824219 C242.305662,182.019532 241.89844,182.117188 241.46875,182.117188 C240.605464,182.117188 239.918948,181.829104 239.40918,181.25293 C238.899412,180.676755 238.644531,179.888677 238.644531,178.888672 L238.644531,178.707031 C238.644531,178.089841 238.757811,177.541018 238.984375,177.060547 C239.210939,176.580076 239.536131,176.207033 239.959961,175.941406 C240.383791,175.67578 240.884763,175.542969 241.462891,175.542969 C242.173832,175.542969 242.764646,175.755857 243.235352,176.181641 C243.706057,176.607424 243.957031,177.160153 243.988281,177.839844 L242.962891,177.839844 C242.93164,177.429685 242.776369,177.092775 242.49707,176.829102 C242.217772,176.565428 241.873049,176.433594 241.462891,176.433594 C240.912107,176.433594 240.485353,176.631834 240.182617,177.02832 C239.879881,177.424807 239.728516,177.998043 239.728516,178.748047 L239.728516,178.953125 C239.728516,179.683597 239.878905,180.246092 240.179688,180.640625 C240.48047,181.035158 240.910153,181.232422 241.46875,181.232422 Z M247.837891,182.117188 C246.978511,182.117188 246.2793,181.834964 245.740234,181.270508 C245.201169,180.706052 244.931641,179.951177 244.931641,179.005859 L244.931641,178.806641 C244.931641,178.177731 245.051757,177.616213 245.291992,177.12207 C245.532228,176.627927 245.868162,176.241212 246.299805,175.961914 C246.731447,175.682616 247.199216,175.542969 247.703125,175.542969 C248.527348,175.542969 249.167966,175.81445 249.625,176.357422 C250.082034,176.900393 250.310547,177.677729 250.310547,178.689453 L250.310547,179.140625 L246.015625,179.140625 C246.03125,179.765628 246.213865,180.270506 246.563477,180.655273 C246.913088,181.040041 247.357419,181.232422 247.896484,181.232422 C248.279299,181.232422 248.603514,181.154298 248.869141,180.998047 C249.134767,180.841796 249.367187,180.634767 249.566406,180.376953 L250.228516,180.892578 C249.697263,181.708988 248.900396,182.117188 247.837891,182.117188 Z M247.703125,176.433594 C247.265623,176.433594 246.898439,176.592772 246.601562,176.911133 C246.304686,177.229494 246.121094,177.675778 246.050781,178.25 L249.226562,178.25 L249.226562,178.167969 C249.195312,177.617185 249.046876,177.190431 248.78125,176.887695 C248.515624,176.584959 248.156252,176.433594 247.703125,176.433594 Z M252.589844,175.660156 L252.625,176.457031 C253.109377,175.847653 253.742184,175.542969 254.523438,175.542969 C255.863288,175.542969 256.539062,176.298821 256.550781,177.810547 L256.550781,182 L255.466797,182 L255.466797,177.804688 C255.462891,177.347654 255.358399,177.009767 255.15332,176.791016 C254.948241,176.572265 254.628908,176.462891 254.195312,176.462891 C253.843748,176.462891 253.535158,176.55664 253.269531,176.744141 C253.003905,176.931642 252.796876,177.177733 252.648438,177.482422 L252.648438,182 L251.564453,182 L251.564453,175.660156 L252.589844,175.660156 Z M260.259766,180.412109 L261.736328,175.660156 L262.896484,175.660156 L260.347656,182.978516 C259.953123,184.033208 259.326176,184.560547 258.466797,184.560547 L258.261719,184.542969 L257.857422,184.466797 L257.857422,183.587891 L258.150391,183.611328 C258.51758,183.611328 258.80371,183.53711 259.008789,183.388672 C259.213868,183.240234 259.382812,182.968752 259.515625,182.574219 L259.755859,181.929688 L257.494141,175.660156 L258.677734,175.660156 L260.259766,180.412109 Z" id="Tick4:Najniższazmianaceny" fill="#2A3052" fill-rule="nonzero"></path>
        </g>
    </g>
</svg>