<?xml version="1.0" encoding="UTF-8"?>
<svg width="299px" height="197px" viewBox="0 0 299 197" version="1.1" xmlns="http://www.w3.org/2000/svg" xmlns:xlink="http://www.w3.org/1999/xlink">
    <!-- Generator: Sketch 53.1 (72631) - https://sketchapp.com -->
    <title>matches</title>
    <desc>Created with Sketch.</desc>
    <g id="Page-1" stroke="none" stroke-width="1" fill="none" fill-rule="evenodd">
        <g id="matches">
            <g id="Group">
                <polygon id="Path" fill="#F1F1F2" points="0 0 299 0 299 197 0 197"></polygon>
                <path d="M1.98671096,1.9798995 L1.98671096,195.020101 L297.013289,195.020101 L297.013289,1.9798995 L1.98671096,1.9798995 Z M299,0 L299,197 L0,197 L0,0 L299,0 Z" id="Path" fill="#C2C2C2" fill-rule="nonzero"></path>
                <g id="Group-16" transform="translate(2.000000, 28.000000)">
                    <path d="M1.60706376,26.9965523 L1.60706376,25.7774477 L293.964849,25.7774477 L293.964849,26.9965523 L1.60706376,26.9965523 Z M1.60706376,47.0765523 L1.60706376,45.8574477 L293.964849,45.8574477 L293.964849,47.0765523 L1.60706376,47.0765523 Z M1.60706376,107.349552 L1.60706376,106.130448 L293.964849,106.130448 L293.964849,107.349552 L1.60706376,107.349552 Z" id="Shape" fill="#DEDEDD" fill-rule="nonzero"></path>
                    <path d="M1.60706376,127.429552 L1.60706376,126.210448 L5.22725247,126.210448 L5.22725247,127.429552 L1.60706376,127.429552 Z M8.84744119,127.429552 L8.84744119,126.210448 L12.4676299,126.210448 L12.4676299,127.429552 L8.84744119,127.429552 Z M16.0878186,127.429552 L16.0878186,126.210448 L19.7080073,126.210448 L19.7080073,127.429552 L16.0878186,127.429552 Z M23.328196,127.429552 L23.328196,126.210448 L26.9483848,126.210448 L26.9483848,127.429552 L23.328196,127.429552 Z M30.5685735,127.429552 L30.5685735,126.210448 L34.1887622,126.210448 L34.1887622,127.429552 L30.5685735,127.429552 Z M37.8089509,127.429552 L37.8089509,126.210448 L41.4291396,126.210448 L41.4291396,127.429552 L37.8089509,127.429552 Z M45.0493283,127.429552 L45.0493283,126.210448 L48.669517,126.210448 L48.669517,127.429552 L45.0493283,127.429552 Z M52.2897057,127.429552 L52.2897057,126.210448 L55.9098945,126.210448 L55.9098945,127.429552 L52.2897057,127.429552 Z M59.5300832,127.429552 L59.5300832,126.210448 L63.1502719,126.210448 L63.1502719,127.429552 L59.5300832,127.429552 Z M66.7704606,127.429552 L66.7704606,126.210448 L70.3906493,126.210448 L70.3906493,127.429552 L66.7704606,127.429552 Z M74.010838,127.429552 L74.010838,126.210448 L77.6310267,126.210448 L77.6310267,127.429552 L74.010838,127.429552 Z M81.2512154,127.429552 L81.2512154,126.210448 L84.8714042,126.210448 L84.8714042,127.429552 L81.2512154,127.429552 Z M88.4915929,127.429552 L88.4915929,126.210448 L92.1117816,126.210448 L92.1117816,127.429552 L88.4915929,127.429552 Z M95.7319703,127.429552 L95.7319703,126.210448 L99.352159,126.210448 L99.352159,127.429552 L95.7319703,127.429552 Z M102.972348,127.429552 L102.972348,126.210448 L106.592536,126.210448 L106.592536,127.429552 L102.972348,127.429552 Z M110.212725,127.429552 L110.212725,126.210448 L113.832914,126.210448 L113.832914,127.429552 L110.212725,127.429552 Z M117.453103,127.429552 L117.453103,126.210448 L121.073291,126.210448 L121.073291,127.429552 L117.453103,127.429552 Z M124.69348,127.429552 L124.69348,126.210448 L128.313669,126.210448 L128.313669,127.429552 L124.69348,127.429552 Z M131.933857,127.429552 L131.933857,126.210448 L135.554046,126.210448 L135.554046,127.429552 L131.933857,127.429552 Z M139.174235,127.429552 L139.174235,126.210448 L142.794424,126.210448 L142.794424,127.429552 L139.174235,127.429552 Z M146.414612,127.429552 L146.414612,126.210448 L150.034801,126.210448 L150.034801,127.429552 L146.414612,127.429552 Z M153.65499,127.429552 L153.65499,126.210448 L157.275178,126.210448 L157.275178,127.429552 L153.65499,127.429552 Z M160.895367,127.429552 L160.895367,126.210448 L164.515556,126.210448 L164.515556,127.429552 L160.895367,127.429552 Z M168.135745,127.429552 L168.135745,126.210448 L171.755933,126.210448 L171.755933,127.429552 L168.135745,127.429552 Z M175.376122,127.429552 L175.376122,126.210448 L178.996311,126.210448 L178.996311,127.429552 L175.376122,127.429552 Z M182.616499,127.429552 L182.616499,126.210448 L186.236688,126.210448 L186.236688,127.429552 L182.616499,127.429552 Z M189.856877,127.429552 L189.856877,126.210448 L193.477066,126.210448 L193.477066,127.429552 L189.856877,127.429552 Z M197.097254,127.429552 L197.097254,126.210448 L200.717443,126.210448 L200.717443,127.429552 L197.097254,127.429552 Z M204.337632,127.429552 L204.337632,126.210448 L207.95782,126.210448 L207.95782,127.429552 L204.337632,127.429552 Z M211.578009,127.429552 L211.578009,126.210448 L215.198198,126.210448 L215.198198,127.429552 L211.578009,127.429552 Z M218.818387,127.429552 L218.818387,126.210448 L222.438575,126.210448 L222.438575,127.429552 L218.818387,127.429552 Z M226.058764,127.429552 L226.058764,126.210448 L229.678953,126.210448 L229.678953,127.429552 L226.058764,127.429552 Z M233.299141,127.429552 L233.299141,126.210448 L236.91933,126.210448 L236.91933,127.429552 L233.299141,127.429552 Z M240.539519,127.429552 L240.539519,126.210448 L244.159708,126.210448 L244.159708,127.429552 L240.539519,127.429552 Z M247.779896,127.429552 L247.779896,126.210448 L251.400085,126.210448 L251.400085,127.429552 L247.779896,127.429552 Z M255.020274,127.429552 L255.020274,126.210448 L258.640462,126.210448 L258.640462,127.429552 L255.020274,127.429552 Z M262.260651,127.429552 L262.260651,126.210448 L265.88084,126.210448 L265.88084,127.429552 L262.260651,127.429552 Z M269.501029,127.429552 L269.501029,126.210448 L273.121217,126.210448 L273.121217,127.429552 L269.501029,127.429552 Z M276.741406,127.429552 L276.741406,126.210448 L280.361595,126.210448 L280.361595,127.429552 L276.741406,127.429552 Z M283.981783,127.429552 L283.981783,126.210448 L287.601972,126.210448 L287.601972,127.429552 L283.981783,127.429552 Z M291.222161,127.429552 L291.222161,126.210448 L293.964849,126.210448 L293.964849,127.429552 L291.222161,127.429552 Z" id="Path" fill="#293052" fill-rule="nonzero"></path>
                    <path d="M1.60706376,147.507552 L1.60706376,146.288448 L293.964849,146.288448 L293.964849,147.507552 L1.60706376,147.507552 Z M36.317639,6.308 L37.5367436,6.308 L37.5367436,164.59 L36.317639,164.59 L36.317639,6.308 Z M73.3153772,6.308 L74.5344818,6.308 L74.5344818,164.59 L73.3153772,164.59 L73.3153772,6.308 Z M110.312112,6.308 L111.531216,6.308 L111.531216,164.59 L110.312112,164.59 L110.312112,6.308 Z M147.271723,6.308 L148.490827,6.308 L148.490827,164.59 L147.271723,164.59 L147.271723,6.308 Z M184.268458,6.308 L185.487562,6.308 L185.487562,164.59 L184.268458,164.59 L184.268458,6.308 Z M221.266196,6.308 L222.4853,6.308 L222.4853,164.59 L221.266196,164.59 L221.266196,6.308 Z M258.262931,6.308 L259.482035,6.308 L259.482035,164.59 L258.262931,164.59 L258.262931,6.308 Z M1.60706376,87.2715523 L1.60706376,86.0524477 L293.964849,86.0524477 L293.964849,87.2715523 L1.60706376,87.2715523 Z M1.60706376,67.1915523 L1.60706376,65.9724477 L293.964849,65.9724477 L293.964849,67.1915523 L1.60706376,67.1915523 Z" id="Shape" fill="#DEDEDD" fill-rule="nonzero"></path>
                    <polygon id="Path" fill="#C2C2C2" points="0 2 0 0 296 0 296 2"></polygon>
                    <path d="M147.16177,87.3575841 L188.836381,56.7510845 C189.75488,56.0765246 191.060729,56.4083509 191.545778,57.4395628 L223.817711,126.049563 C224.243212,126.954176 223.854815,128.032446 222.950202,128.457946 C222.045589,128.883447 220.967319,128.49505 220.541819,127.590437 L189.20622,60.9710809 L148.266431,91.0379155 C147.644928,91.4943574 146.80249,91.5069519 146.16762,91.0692929 L103.985124,61.9900383 L75.137183,88.0062034 C74.469587,88.6082667 73.4612908,88.6291414 72.7693486,88.0552244 L35.7716104,57.3682244 C35.0021538,56.7300147 34.8957572,55.5888757 35.5339669,54.8194191 C36.1721766,54.0499625 37.3133156,53.9435659 38.0827722,54.5817756 L73.875392,84.2692153 L102.622709,58.3437966 C103.245323,57.7823 104.172043,57.7218503 104.862323,58.1977071 L147.16177,87.3575841 Z" id="Path" fill="#293052"></path>
                    <path d="M186.225379,119.07 L150.943379,119.07 L145.379772,111 L140.045933,119.07 L104.762929,119.07 C103.501318,119.068408 102.290745,119.566378 101.397522,120.454363 C100.504299,121.342348 100.001595,122.547608 100,123.805 L100,148.317 C100.001595,149.574392 100.504299,150.779652 101.397522,151.667637 C102.290745,152.555622 103.501318,153.053592 104.762929,153.052 L186.225379,153.052 C187.507474,153.082783 188.747975,152.597614 189.666889,151.706 C190.584591,150.815293 191.102055,149.59268 191.101688,148.316 L191.101688,123.843 C191.112272,122.560055 190.599489,121.327862 189.680936,120.429 C188.760903,119.528748 187.514333,119.038137 186.225379,119.069 L186.225379,119.07 Z" id="Path" fill="#E88024"></path>
                    <ellipse id="Oval" fill="#FFFFFF" opacity="0.6" cx="221.874745" cy="126.82" rx="8.19239933" ry="8.373"></ellipse>
                    <path d="M221.875748,136.411105 C216.671896,136.411105 212.464244,132.110695 212.464244,126.819 C212.464244,121.527305 216.671896,117.226895 221.875748,117.226895 C227.0796,117.226895 231.287252,121.527305 231.287252,126.819 C231.287252,132.110695 227.0796,136.411105 221.875748,136.411105 Z M221.875748,133.972895 C225.720971,133.972895 228.849043,130.775865 228.849043,126.819 C228.849043,122.862135 225.720971,119.665105 221.875748,119.665105 C218.030525,119.665105 214.902453,122.862135 214.902453,126.819 C214.902453,130.775865 218.030525,133.972895 221.875748,133.972895 Z" id="Oval" fill="#E88024" fill-rule="nonzero"></path>
                    <polygon id="Path" fill="#E88024" points="244.926842 117.424 273.694054 117.424 273.694054 136.214 244.927846 136.214"></polygon>
                    <polygon id="Path" fill="#E88024" points="248.432567 126.82 245.079352 130.153 239.859896 126.819 245.079352 123.486"></polygon>
                    <path d="M256.319946,125.683 L257.691534,125.683 C258.156087,125.716 258.614621,125.551 258.948738,125.228 C259.243725,124.88 259.394228,124.433 259.368141,123.978 C259.390213,123.5467 259.239331,123.124349 258.948738,122.804 C258.595096,122.554892 258.155388,122.458948 257.729661,122.538 C257.314325,122.519115 256.906735,122.654524 256.585836,122.918 C256.284829,123.171 256.117268,123.548 256.129309,123.94 L253.766406,123.94 C253.717802,123.041563 254.117304,122.177125 254.833977,121.63 C255.636415,121.004237 256.635244,120.681854 257.653406,120.72 C258.714767,120.66371 259.763501,120.971068 260.625346,121.591 C261.377805,122.214045 261.787955,123.156723 261.73004,124.13 C261.724486,124.661984 261.551073,125.178731 261.234383,125.607 C260.883587,126.088574 260.410063,126.467991 259.862795,126.706 C260.474842,126.903 261.008628,127.287 261.387896,127.804 C261.742081,128.302 261.929708,128.899 261.920678,129.509 C261.956896,130.513767 261.502573,131.473783 260.701601,132.085 C259.811709,132.743046 258.722427,133.077278 257.615279,133.032 C256.580557,133.065449 255.563372,132.759839 254.719594,132.162 C253.925756,131.585027 253.49202,130.636654 253.575768,129.661 L256.091181,129.661 C256.081148,130.093 256.261752,130.509 256.586839,130.797 C256.932997,131.101 257.381497,131.264 257.844044,131.252 C258.331674,131.284 258.811279,131.12 259.177503,130.797 C259.511621,130.468 259.691221,130.014 259.672158,129.547 C259.725675,129.03636 259.559816,128.527003 259.215631,128.145 C258.822139,127.817987 258.317003,127.655308 257.805916,127.691 L256.319946,127.691 L256.319946,125.683 Z" id="Path" fill="#FFFFFF"></path>
                </g>
            </g>
            <path d="M119.125,14.7832031 L119.125,18.1230469 L118,18.1230469 L118,9.59179688 L121.146484,9.59179688 C122.080083,9.59179688 122.811521,9.83007574 123.34082,10.3066406 C123.87012,10.7832055 124.134766,11.4140586 124.134766,12.1992188 C124.134766,13.0273479 123.875979,13.6650368 123.358398,14.1123047 C122.840818,14.5595725 122.099614,14.7832031 121.134766,14.7832031 L119.125,14.7832031 Z M119.125,13.8632812 L121.146484,13.8632812 C121.74805,13.8632812 122.208983,13.7216811 122.529297,13.4384766 C122.849611,13.155272 123.009766,12.7460964 123.009766,12.2109375 C123.009766,11.7031225 122.849611,11.2968765 122.529297,10.9921875 C122.208983,10.6874985 121.769534,10.5292969 121.210938,10.5175781 L119.125,10.5175781 L119.125,13.8632812 Z M128.464844,12.7558594 C128.30078,12.7285155 128.123048,12.7148438 127.931641,12.7148438 C127.2207,12.7148438 126.738283,13.0175751 126.484375,13.6230469 L126.484375,18.1230469 L125.400391,18.1230469 L125.400391,11.7832031 L126.455078,11.7832031 L126.472656,12.515625 C126.828127,11.9492159 127.332028,11.6660156 127.984375,11.6660156 C128.195314,11.6660156 128.355468,11.6933591 128.464844,11.7480469 L128.464844,12.7558594 Z M130.480469,17.2382812 L134.189453,17.2382812 L134.189453,18.1230469 L129.15625,18.1230469 L129.15625,17.3261719 L132.654297,12.6796875 L129.208984,12.6796875 L129.208984,11.7832031 L134.013672,11.7832031 L134.013672,12.5507812 L130.480469,17.2382812 Z M138.039062,18.2402344 C137.179683,18.2402344 136.480471,17.9580106 135.941406,17.3935547 C135.402341,16.8290987 135.132812,16.0742235 135.132812,15.1289062 L135.132812,14.9296875 C135.132812,14.3007781 135.252928,13.7392603 135.493164,13.2451172 C135.7334,12.7509741 136.069334,12.3642592 136.500977,12.0849609 C136.932619,11.8056627 137.400388,11.6660156 137.904297,11.6660156 C138.72852,11.6660156 139.369138,11.9374973 139.826172,12.4804688 C140.283205,13.0234402 140.511719,13.8007762 140.511719,14.8125 L140.511719,15.2636719 L136.216797,15.2636719 C136.232422,15.888675 136.415037,16.3935528 136.764648,16.7783203 C137.11426,17.1630879 137.558591,17.3554688 138.097656,17.3554688 C138.480471,17.3554688 138.804686,17.2773445 139.070312,17.1210938 C139.335939,16.964843 139.568358,16.7578138 139.767578,16.5 L140.429688,17.015625 C139.898435,17.8320353 139.101568,18.2402344 138.039062,18.2402344 Z M137.904297,12.5566406 C137.466795,12.5566406 137.099611,12.7158187 136.802734,13.0341797 C136.505858,13.3525407 136.322266,13.7988253 136.251953,14.3730469 L139.427734,14.3730469 L139.427734,14.2910156 C139.396484,13.7402316 139.248048,13.3134781 138.982422,13.0107422 C138.716796,12.7080063 138.357424,12.5566406 137.904297,12.5566406 Z M147.378906,16.6289062 L148.597656,11.7832031 L149.681641,11.7832031 L147.835938,18.1230469 L146.957031,18.1230469 L145.416016,13.3183594 L143.916016,18.1230469 L143.037109,18.1230469 L141.197266,11.7832031 L142.275391,11.7832031 L143.523438,16.5292969 L145,11.7832031 L145.873047,11.7832031 L147.378906,16.6289062 Z M151.960938,18.1230469 L150.876953,18.1230469 L150.876953,11.7832031 L151.960938,11.7832031 L151.960938,18.1230469 Z M150.789062,10.1015625 C150.789062,9.92578037 150.842773,9.77734436 150.950195,9.65625 C151.057618,9.53515564 151.216796,9.47460938 151.427734,9.47460938 C151.638673,9.47460938 151.798828,9.53515564 151.908203,9.65625 C152.017579,9.77734436 152.072266,9.92578037 152.072266,10.1015625 C152.072266,10.2773446 152.017579,10.4238275 151.908203,10.5410156 C151.798828,10.6582037 151.638673,10.7167969 151.427734,10.7167969 C151.216796,10.7167969 151.057618,10.6582037 150.950195,10.5410156 C150.842773,10.4238275 150.789062,10.2773446 150.789062,10.1015625 Z M153.431641,14.9003906 C153.431641,13.9277295 153.662107,13.1455108 154.123047,12.5537109 C154.583987,11.9619111 155.187496,11.6660156 155.933594,11.6660156 C156.675785,11.6660156 157.26367,11.9199193 157.697266,12.4277344 L157.697266,9.12304688 L158.78125,9.12304688 L158.78125,18.1230469 L157.785156,18.1230469 L157.732422,17.4433594 C157.298826,17.974612 156.695316,18.2402344 155.921875,18.2402344 C155.187496,18.2402344 154.58887,17.9394561 154.125977,17.3378906 C153.663084,16.7363251 153.431641,15.9511767 153.431641,14.9824219 L153.431641,14.9003906 Z M154.515625,15.0234375 C154.515625,15.7421911 154.664061,16.3046855 154.960938,16.7109375 C155.257814,17.1171895 155.667966,17.3203125 156.191406,17.3203125 C156.87891,17.3203125 157.380858,17.0117218 157.697266,16.3945312 L157.697266,13.4824219 C157.373045,12.8847626 156.875003,12.5859375 156.203125,12.5859375 C155.671872,12.5859375 155.257814,12.7910136 154.960938,13.2011719 C154.664061,13.6113302 154.515625,14.218746 154.515625,15.0234375 Z M162.537109,16.5351562 L164.013672,11.7832031 L165.173828,11.7832031 L162.625,19.1015625 C162.230467,20.1562553 161.60352,20.6835938 160.744141,20.6835938 L160.539062,20.6660156 L160.134766,20.5898438 L160.134766,19.7109375 L160.427734,19.734375 C160.794924,19.734375 161.081054,19.660157 161.286133,19.5117188 C161.491212,19.3632805 161.660156,19.0917988 161.792969,18.6972656 L162.033203,18.0527344 L159.771484,11.7832031 L160.955078,11.7832031 L162.537109,16.5351562 Z M171.753906,16.6289062 L172.972656,11.7832031 L174.056641,11.7832031 L172.210938,18.1230469 L171.332031,18.1230469 L169.791016,13.3183594 L168.291016,18.1230469 L167.412109,18.1230469 L165.572266,11.7832031 L166.650391,11.7832031 L167.898438,16.5292969 L169.375,11.7832031 L170.248047,11.7832031 L171.753906,16.6289062 Z M179.072266,18.1230469 C179.009765,17.9980463 178.958985,17.7753922 178.919922,17.4550781 C178.416013,17.9785182 177.814457,18.2402344 177.115234,18.2402344 C176.490231,18.2402344 175.977541,18.0634783 175.577148,17.7099609 C175.176756,17.3564435 174.976562,16.9082058 174.976562,16.3652344 C174.976562,15.7050748 175.227537,15.1923846 175.729492,14.8271484 C176.231448,14.4619122 176.937495,14.2792969 177.847656,14.2792969 L178.902344,14.2792969 L178.902344,13.78125 C178.902344,13.4023419 178.789064,13.1005871 178.5625,12.8759766 C178.335936,12.6513661 178.001955,12.5390625 177.560547,12.5390625 C177.173826,12.5390625 176.849611,12.6367178 176.587891,12.8320312 C176.326171,13.0273447 176.195312,13.2636705 176.195312,13.5410156 L175.105469,13.5410156 C175.105469,13.2246078 175.217772,12.9189468 175.442383,12.6240234 C175.666993,12.3291001 175.971678,12.095704 176.356445,11.9238281 C176.741213,11.7519523 177.16406,11.6660156 177.625,11.6660156 C178.355472,11.6660156 178.927732,11.848631 179.341797,12.2138672 C179.755861,12.5791034 179.970703,13.082028 179.986328,13.7226562 L179.986328,16.640625 C179.986328,17.2226592 180.060546,17.6855452 180.208984,18.0292969 L180.208984,18.1230469 L179.072266,18.1230469 Z M177.273438,17.296875 C177.613283,17.296875 177.935545,17.2089853 178.240234,17.0332031 C178.544923,16.857421 178.765624,16.6289077 178.902344,16.3476562 L178.902344,15.046875 L178.052734,15.046875 C176.724603,15.046875 176.060547,15.435543 176.060547,16.2128906 C176.060547,16.5527361 176.173827,16.8183584 176.400391,17.0097656 C176.626954,17.2011728 176.917967,17.296875 177.273438,17.296875 Z M182.710938,11.7832031 L182.746094,12.5800781 C183.230471,11.9707001 183.863277,11.6660156 184.644531,11.6660156 C185.984382,11.6660156 186.660156,12.4218674 186.671875,13.9335938 L186.671875,18.1230469 L185.587891,18.1230469 L185.587891,13.9277344 C185.583984,13.4707008 185.479493,13.1328136 185.274414,12.9140625 C185.069335,12.6953114 184.750002,12.5859375 184.316406,12.5859375 C183.964842,12.5859375 183.656251,12.6796866 183.390625,12.8671875 C183.124999,13.0546884 182.917969,13.3007797 182.769531,13.6054688 L182.769531,18.1230469 L181.685547,18.1230469 L181.685547,11.7832031 L182.710938,11.7832031 Z M189.484375,18.1230469 L188.400391,18.1230469 L188.400391,11.7832031 L189.484375,11.7832031 L189.484375,18.1230469 Z M188.3125,10.1015625 C188.3125,9.92578037 188.36621,9.77734436 188.473633,9.65625 C188.581055,9.53515564 188.740233,9.47460938 188.951172,9.47460938 C189.16211,9.47460938 189.322265,9.53515564 189.431641,9.65625 C189.541016,9.77734436 189.595703,9.92578037 189.595703,10.1015625 C189.595703,10.2773446 189.541016,10.4238275 189.431641,10.5410156 C189.322265,10.6582037 189.16211,10.7167969 188.951172,10.7167969 C188.740233,10.7167969 188.581055,10.6582037 188.473633,10.5410156 C188.36621,10.4238275 188.3125,10.2773446 188.3125,10.1015625 Z M193.849609,18.2402344 C192.99023,18.2402344 192.291018,17.9580106 191.751953,17.3935547 C191.212888,16.8290987 190.943359,16.0742235 190.943359,15.1289062 L190.943359,14.9296875 C190.943359,14.3007781 191.063475,13.7392603 191.303711,13.2451172 C191.543947,12.7509741 191.879881,12.3642592 192.311523,12.0849609 C192.743166,11.8056627 193.210935,11.6660156 193.714844,11.6660156 C194.539067,11.6660156 195.179685,11.9374973 195.636719,12.4804688 C196.093752,13.0234402 196.322266,13.8007762 196.322266,14.8125 L196.322266,15.2636719 L192.027344,15.2636719 C192.042969,15.888675 192.225584,16.3935528 192.575195,16.7783203 C192.924806,17.1630879 193.369138,17.3554688 193.908203,17.3554688 C194.291018,17.3554688 194.615233,17.2773445 194.880859,17.1210938 C195.146486,16.964843 195.378905,16.7578138 195.578125,16.5 L196.240234,17.015625 C195.708982,17.8320353 194.912115,18.2402344 193.849609,18.2402344 Z M193.714844,12.5566406 C193.277342,12.5566406 192.910158,12.7158187 192.613281,13.0341797 C192.316405,13.3525407 192.132813,13.7988253 192.0625,14.3730469 L195.238281,14.3730469 L195.238281,14.2910156 C195.207031,13.7402316 195.058595,13.3134781 194.792969,13.0107422 C194.527342,12.7080063 194.167971,12.5566406 193.714844,12.5566406 Z M200.259766,14.8945312 C200.259766,14.2734344 200.381835,13.7148462 200.625977,13.21875 C200.870118,12.7226538 201.209959,12.3398451 201.645508,12.0703125 C202.081057,11.8007799 202.578122,11.6660156 203.136719,11.6660156 C204.000004,11.6660156 204.69824,11.9648408 205.231445,12.5625 C205.764651,13.1601592 206.03125,13.9550732 206.03125,14.9472656 L206.03125,15.0234375 C206.03125,15.6406281 205.913087,16.1943335 205.676758,16.6845703 C205.440429,17.1748071 205.102541,17.5566393 204.663086,17.8300781 C204.223631,18.103517 203.718753,18.2402344 203.148438,18.2402344 C202.289058,18.2402344 201.592776,17.9414092 201.05957,17.34375 C200.526365,16.7460908 200.259766,15.955083 200.259766,14.9707031 L200.259766,14.8945312 Z M201.349609,15.0234375 C201.349609,15.726566 201.512694,16.2910135 201.838867,16.7167969 C202.165041,17.1425803 202.60156,17.3554688 203.148438,17.3554688 C203.699222,17.3554688 204.136717,17.1396506 204.460938,16.7080078 C204.785158,16.276365 204.947266,15.6718789 204.947266,14.8945312 C204.947266,14.1992153 204.782228,13.6357443 204.452148,13.2041016 C204.122069,12.7724588 203.683596,12.5566406 203.136719,12.5566406 C202.60156,12.5566406 202.169924,12.7695291 201.841797,13.1953125 C201.51367,13.6210959 201.349609,14.2304648 201.349609,15.0234375 Z M211.082031,16.4414062 C211.082031,16.148436 210.971681,15.9208992 210.750977,15.7587891 C210.530272,15.5966789 210.145511,15.4570318 209.59668,15.3398438 C209.047849,15.2226557 208.612306,15.0820321 208.290039,14.9179688 C207.967772,14.7539054 207.729493,14.5585949 207.575195,14.3320312 C207.420898,14.1054676 207.34375,13.8359391 207.34375,13.5234375 C207.34375,13.0039037 207.563474,12.5644549 208.00293,12.2050781 C208.442385,11.8457013 209.003903,11.6660156 209.6875,11.6660156 C210.406254,11.6660156 210.989256,11.8515606 211.436523,12.2226562 C211.883791,12.5937519 212.107422,13.0683565 212.107422,13.6464844 L211.017578,13.6464844 C211.017578,13.3496079 210.891603,13.0937511 210.639648,12.8789062 C210.387694,12.6640614 210.070314,12.5566406 209.6875,12.5566406 C209.292967,12.5566406 208.984376,12.6425773 208.761719,12.8144531 C208.539061,12.986329 208.427734,13.2109361 208.427734,13.4882812 C208.427734,13.7500013 208.531249,13.947265 208.738281,14.0800781 C208.945314,14.2128913 209.319333,14.3398431 209.860352,14.4609375 C210.40137,14.5820319 210.839842,14.7265617 211.175781,14.8945312 C211.51172,15.0625008 211.760741,15.2646473 211.922852,15.5009766 C212.084962,15.7373059 212.166016,16.0253889 212.166016,16.3652344 C212.166016,16.9316435 211.939455,17.3857405 211.486328,17.7275391 C211.033201,18.0693376 210.445316,18.2402344 209.722656,18.2402344 C209.214841,18.2402344 208.765627,18.1503915 208.375,17.9707031 C207.984373,17.7910147 207.678712,17.5400407 207.458008,17.2177734 C207.237304,16.8955062 207.126953,16.5468769 207.126953,16.171875 L208.210938,16.171875 C208.230469,16.5351581 208.375975,16.8232411 208.647461,17.0361328 C208.918947,17.2490245 209.277342,17.3554688 209.722656,17.3554688 C210.132815,17.3554688 210.461913,17.2724618 210.709961,17.1064453 C210.958009,16.9404289 211.082031,16.7187514 211.082031,16.4414062 Z M215.048828,10.2480469 L215.048828,11.7832031 L216.232422,11.7832031 L216.232422,12.6210938 L215.048828,12.6210938 L215.048828,16.5527344 C215.048828,16.8066419 215.101562,16.9970697 215.207031,17.1240234 C215.312501,17.2509772 215.492186,17.3144531 215.746094,17.3144531 C215.871094,17.3144531 216.042968,17.2910159 216.261719,17.2441406 L216.261719,18.1230469 C215.976561,18.2011723 215.69922,18.2402344 215.429688,18.2402344 C214.94531,18.2402344 214.580079,18.0937515 214.333984,17.8007812 C214.087889,17.507811 213.964844,17.0917996 213.964844,16.5527344 L213.964844,12.6210938 L212.810547,12.6210938 L212.810547,11.7832031 L213.964844,11.7832031 L213.964844,10.2480469 L215.048828,10.2480469 Z M221.412109,18.1230469 C221.349609,17.9980463 221.298828,17.7753922 221.259766,17.4550781 C220.755857,17.9785182 220.1543,18.2402344 219.455078,18.2402344 C218.830075,18.2402344 218.317385,18.0634783 217.916992,17.7099609 C217.5166,17.3564435 217.316406,16.9082058 217.316406,16.3652344 C217.316406,15.7050748 217.56738,15.1923846 218.069336,14.8271484 C218.571292,14.4619122 219.277339,14.2792969 220.1875,14.2792969 L221.242188,14.2792969 L221.242188,13.78125 C221.242188,13.4023419 221.128907,13.1005871 220.902344,12.8759766 C220.67578,12.6513661 220.341799,12.5390625 219.900391,12.5390625 C219.51367,12.5390625 219.189454,12.6367178 218.927734,12.8320312 C218.666014,13.0273447 218.535156,13.2636705 218.535156,13.5410156 L217.445312,13.5410156 C217.445312,13.2246078 217.557616,12.9189468 217.782227,12.6240234 C218.006837,12.3291001 218.311522,12.095704 218.696289,11.9238281 C219.081057,11.7519523 219.503904,11.6660156 219.964844,11.6660156 C220.695316,11.6660156 221.267576,11.848631 221.681641,12.2138672 C222.095705,12.5791034 222.310547,13.082028 222.326172,13.7226562 L222.326172,16.640625 C222.326172,17.2226592 222.40039,17.6855452 222.548828,18.0292969 L222.548828,18.1230469 L221.412109,18.1230469 Z M219.613281,17.296875 C219.953127,17.296875 220.275389,17.2089853 220.580078,17.0332031 C220.884767,16.857421 221.105468,16.6289077 221.242188,16.3476562 L221.242188,15.046875 L220.392578,15.046875 C219.064446,15.046875 218.400391,15.435543 218.400391,16.2128906 C218.400391,16.5527361 218.513671,16.8183584 218.740234,17.0097656 C218.966798,17.2011728 219.257811,17.296875 219.613281,17.296875 Z M225.496094,10.2480469 L225.496094,11.7832031 L226.679688,11.7832031 L226.679688,12.6210938 L225.496094,12.6210938 L225.496094,16.5527344 C225.496094,16.8066419 225.548828,16.9970697 225.654297,17.1240234 C225.759766,17.2509772 225.939452,17.3144531 226.193359,17.3144531 C226.31836,17.3144531 226.490233,17.2910159 226.708984,17.2441406 L226.708984,18.1230469 C226.423827,18.2011723 226.146486,18.2402344 225.876953,18.2402344 C225.392576,18.2402344 225.027345,18.0937515 224.78125,17.8007812 C224.535155,17.507811 224.412109,17.0917996 224.412109,16.5527344 L224.412109,12.6210938 L223.257812,12.6210938 L223.257812,11.7832031 L224.412109,11.7832031 L224.412109,10.2480469 L225.496094,10.2480469 Z M228.970703,11.7832031 L229.005859,12.5800781 C229.490237,11.9707001 230.123043,11.6660156 230.904297,11.6660156 C232.244147,11.6660156 232.919922,12.4218674 232.931641,13.9335938 L232.931641,18.1230469 L231.847656,18.1230469 L231.847656,13.9277344 C231.84375,13.4707008 231.739259,13.1328136 231.53418,12.9140625 C231.329101,12.6953114 231.009768,12.5859375 230.576172,12.5859375 C230.224608,12.5859375 229.916017,12.6796866 229.650391,12.8671875 C229.384764,13.0546884 229.177735,13.3007797 229.029297,13.6054688 L229.029297,18.1230469 L227.945312,18.1230469 L227.945312,11.7832031 L228.970703,11.7832031 Z M235.744141,18.1230469 L234.660156,18.1230469 L234.660156,11.7832031 L235.744141,11.7832031 L235.744141,18.1230469 Z M234.572266,10.1015625 C234.572266,9.92578037 234.625976,9.77734436 234.733398,9.65625 C234.840821,9.53515564 234.999999,9.47460938 235.210938,9.47460938 C235.421876,9.47460938 235.582031,9.53515564 235.691406,9.65625 C235.800782,9.77734436 235.855469,9.92578037 235.855469,10.1015625 C235.855469,10.2773446 235.800782,10.4238275 235.691406,10.5410156 C235.582031,10.6582037 235.421876,10.7167969 235.210938,10.7167969 C234.999999,10.7167969 234.840821,10.6582037 234.733398,10.5410156 C234.625976,10.4238275 234.572266,10.2773446 234.572266,10.1015625 Z M240.109375,18.2402344 C239.249996,18.2402344 238.550784,17.9580106 238.011719,17.3935547 C237.472654,16.8290987 237.203125,16.0742235 237.203125,15.1289062 L237.203125,14.9296875 C237.203125,14.3007781 237.323241,13.7392603 237.563477,13.2451172 C237.803712,12.7509741 238.139646,12.3642592 238.571289,12.0849609 C239.002932,11.8056627 239.470701,11.6660156 239.974609,11.6660156 C240.798832,11.6660156 241.439451,11.9374973 241.896484,12.4804688 C242.353518,13.0234402 242.582031,13.8007762 242.582031,14.8125 L242.582031,15.2636719 L238.287109,15.2636719 C238.302734,15.888675 238.48535,16.3935528 238.834961,16.7783203 C239.184572,17.1630879 239.628904,17.3554688 240.167969,17.3554688 C240.550783,17.3554688 240.874999,17.2773445 241.140625,17.1210938 C241.406251,16.964843 241.638671,16.7578138 241.837891,16.5 L242.5,17.015625 C241.968747,17.8320353 241.17188,18.2402344 240.109375,18.2402344 Z M239.974609,12.5566406 C239.537107,12.5566406 239.169923,12.7158187 238.873047,13.0341797 C238.57617,13.3525407 238.392578,13.7988253 238.322266,14.3730469 L241.498047,14.3730469 L241.498047,14.2910156 C241.466797,13.7402316 241.318361,13.3134781 241.052734,13.0107422 C240.787108,12.7080063 240.427737,12.5566406 239.974609,12.5566406 Z M244.955078,11.7832031 L244.955078,18.8554688 C244.955078,20.0742248 244.402349,20.6835938 243.296875,20.6835938 C243.058593,20.6835938 242.837892,20.6484379 242.634766,20.578125 L242.634766,19.7109375 C242.759766,19.7421877 242.923827,19.7578125 243.126953,19.7578125 C243.369142,19.7578125 243.55371,19.6923835 243.680664,19.5615234 C243.807618,19.4306634 243.871094,19.2031266 243.871094,18.8789062 L243.871094,11.7832031 L244.955078,11.7832031 Z M243.759766,10.1015625 C243.759766,9.92968664 243.813476,9.78222718 243.920898,9.65917969 C244.028321,9.5361322 244.185546,9.47460938 244.392578,9.47460938 C244.603517,9.47460938 244.763671,9.53515564 244.873047,9.65625 C244.982422,9.77734436 245.037109,9.92578037 245.037109,10.1015625 C245.037109,10.2773446 244.982422,10.4238275 244.873047,10.5410156 C244.763671,10.6582037 244.603517,10.7167969 244.392578,10.7167969 C244.18164,10.7167969 244.023438,10.6582037 243.917969,10.5410156 C243.812499,10.4238275 243.759766,10.2773446 243.759766,10.1015625 Z M252.214844,17.3554688 C252.601564,17.3554688 252.939452,17.2382824 253.228516,17.0039062 C253.51758,16.7695301 253.677734,16.4765643 253.708984,16.125 L254.734375,16.125 C254.714844,16.4882831 254.589845,16.8339827 254.359375,17.1621094 C254.128905,17.490236 253.821291,17.7519521 253.436523,17.9472656 C253.051756,18.1425791 252.644533,18.2402344 252.214844,18.2402344 C251.351558,18.2402344 250.665042,17.9521513 250.155273,17.3759766 C249.645505,16.7998018 249.390625,16.0117238 249.390625,15.0117188 L249.390625,14.8300781 C249.390625,14.2128875 249.503905,13.6640649 249.730469,13.1835938 C249.957032,12.7031226 250.282224,12.3300795 250.706055,12.0644531 C251.129885,11.7988268 251.630856,11.6660156 252.208984,11.6660156 C252.919925,11.6660156 253.51074,11.8789041 253.981445,12.3046875 C254.452151,12.7304709 254.703125,13.2831997 254.734375,13.9628906 L253.708984,13.9628906 C253.677734,13.5527323 253.522462,13.2158216 253.243164,12.9521484 C252.963866,12.6884752 252.619143,12.5566406 252.208984,12.5566406 C251.6582,12.5566406 251.231447,12.7548808 250.928711,13.1513672 C250.625975,13.5478535 250.474609,14.12109 250.474609,14.8710938 L250.474609,15.0761719 C250.474609,15.8066443 250.624998,16.3691387 250.925781,16.7636719 C251.226564,17.1582051 251.656247,17.3554688 252.214844,17.3554688 Z M258.027344,16.5351562 L259.503906,11.7832031 L260.664062,11.7832031 L258.115234,19.1015625 C257.720701,20.1562553 257.093754,20.6835938 256.234375,20.6835938 L256.029297,20.6660156 L255.625,20.5898438 L255.625,19.7109375 L255.917969,19.734375 C256.285158,19.734375 256.571288,19.660157 256.776367,19.5117188 C256.981446,19.3632805 257.15039,19.0917988 257.283203,18.6972656 L257.523438,18.0527344 L255.261719,11.7832031 L256.445312,11.7832031 L258.027344,16.5351562 Z M262.164062,18.1230469 L262.164062,12.6210938 L261.162109,12.6210938 L261.162109,11.7832031 L262.164062,11.7832031 L262.164062,11.1328125 C262.164062,10.4531216 262.345701,9.92773623 262.708984,9.55664062 C263.072267,9.18554502 263.585934,9 264.25,9 C264.500001,9 264.748046,9.03320279 264.994141,9.09960938 L264.935547,9.97851562 C264.751952,9.9433592 264.556642,9.92578125 264.349609,9.92578125 C263.998045,9.92578125 263.726563,10.0283193 263.535156,10.2333984 C263.343749,10.4384776 263.248047,10.73242 263.248047,11.1152344 L263.248047,11.7832031 L264.601562,11.7832031 L264.601562,12.6210938 L263.248047,12.6210938 L263.248047,18.1230469 L262.164062,18.1230469 Z M268.861328,12.7558594 C268.697265,12.7285155 268.519532,12.7148438 268.328125,12.7148438 C267.617184,12.7148438 267.134767,13.0175751 266.880859,13.6230469 L266.880859,18.1230469 L265.796875,18.1230469 L265.796875,11.7832031 L266.851562,11.7832031 L266.869141,12.515625 C267.224611,11.9492159 267.728512,11.6660156 268.380859,11.6660156 C268.591798,11.6660156 268.751953,11.6933591 268.861328,11.7480469 L268.861328,12.7558594 Z M271.931641,16.5351562 L273.408203,11.7832031 L274.568359,11.7832031 L272.019531,19.1015625 C271.624998,20.1562553 270.998051,20.6835938 270.138672,20.6835938 L269.933594,20.6660156 L269.529297,20.5898438 L269.529297,19.7109375 L269.822266,19.734375 C270.189455,19.734375 270.475585,19.660157 270.680664,19.5117188 C270.885743,19.3632805 271.054687,19.0917988 271.1875,18.6972656 L271.427734,18.0527344 L269.166016,11.7832031 L270.349609,11.7832031 L271.931641,16.5351562 Z M275.5,17.5546875 C275.5,17.3671866 275.555664,17.2109381 275.666992,17.0859375 C275.778321,16.9609369 275.945311,16.8984375 276.167969,16.8984375 C276.390626,16.8984375 276.55957,16.9609369 276.674805,17.0859375 C276.79004,17.2109381 276.847656,17.3671866 276.847656,17.5546875 C276.847656,17.7343759 276.79004,17.884765 276.674805,18.0058594 C276.55957,18.1269537 276.390626,18.1875 276.167969,18.1875 C275.945311,18.1875 275.778321,18.1269537 275.666992,18.0058594 C275.555664,17.884765 275.5,17.7343759 275.5,17.5546875 Z M275.505859,12.3808594 C275.505859,12.1933584 275.561523,12.03711 275.672852,11.9121094 C275.78418,11.7871087 275.951171,11.7246094 276.173828,11.7246094 C276.396485,11.7246094 276.565429,11.7871087 276.680664,11.9121094 C276.795899,12.03711 276.853516,12.1933584 276.853516,12.3808594 C276.853516,12.5605478 276.795899,12.7109369 276.680664,12.8320312 C276.565429,12.9531256 276.396485,13.0136719 276.173828,13.0136719 C275.951171,13.0136719 275.78418,12.9531256 275.672852,12.8320312 C275.561523,12.7109369 275.505859,12.5605478 275.505859,12.3808594 Z M282.876953,13.3300781 L283.691406,13.3300781 C284.203128,13.3222656 284.605467,13.1875013 284.898438,12.9257812 C285.191408,12.6640612 285.337891,12.3105491 285.337891,11.8652344 C285.337891,10.8652294 284.839849,10.3652344 283.84375,10.3652344 C283.374998,10.3652344 283.000978,10.4990221 282.72168,10.7666016 C282.442381,11.034181 282.302734,11.3886697 282.302734,11.8300781 L281.21875,11.8300781 C281.21875,11.1542935 281.465818,10.5927757 281.959961,10.1455078 C282.454104,9.69823995 283.082027,9.47460938 283.84375,9.47460938 C284.648442,9.47460938 285.279295,9.68749787 285.736328,10.1132812 C286.193362,10.5390646 286.421875,11.1308556 286.421875,11.8886719 C286.421875,12.2597675 286.301759,12.6191389 286.061523,12.9667969 C285.821288,13.3144549 285.494143,13.5742179 285.080078,13.7460938 C285.54883,13.894532 285.911132,14.1406233 286.166992,14.484375 C286.422853,14.8281267 286.550781,15.2480444 286.550781,15.7441406 C286.550781,16.5097695 286.300784,17.1171853 285.800781,17.5664062 C285.300779,18.0156272 284.650395,18.2402344 283.849609,18.2402344 C283.048824,18.2402344 282.397463,18.0234397 281.895508,17.5898438 C281.393552,17.1562478 281.142578,16.5839879 281.142578,15.8730469 L282.232422,15.8730469 C282.232422,16.3222679 282.378905,16.6816393 282.671875,16.9511719 C282.964845,17.2207045 283.357419,17.3554688 283.849609,17.3554688 C284.373049,17.3554688 284.773436,17.2187514 285.050781,16.9453125 C285.328126,16.6718736 285.466797,16.2792994 285.466797,15.7675781 C285.466797,15.2714819 285.314455,14.8906263 285.009766,14.625 C284.705077,14.3593737 284.265628,14.2226563 283.691406,14.2148438 L282.876953,14.2148438 L282.876953,13.3300781 Z" id="Przewidywanieostatniejcyfry:3" fill="#2A3052" fill-rule="nonzero"></path>
            <path d="M125.078125,166.1875 L126.828125,157.625 L128.789062,157.625 L126.164062,169 L124.273438,169 L122.109375,160.695312 L119.898438,169 L118,169 L115.375,157.625 L117.335938,157.625 L119.101562,166.171875 L121.273438,157.625 L122.929688,157.625 L125.078125,166.1875 Z M133.007812,166.28125 L134.726562,160.546875 L136.75,160.546875 L133.390625,170.28125 C132.874997,171.703132 132.000006,172.414062 130.765625,172.414062 C130.489582,172.414062 130.184898,172.367188 129.851562,172.273438 L129.851562,170.804688 L130.210938,170.828125 C130.690107,170.828125 131.05078,170.740886 131.292969,170.566406 C131.535157,170.391926 131.726562,170.09896 131.867188,169.6875 L132.140625,168.960938 L129.171875,160.546875 L131.21875,160.546875 L133.007812,166.28125 Z M137.507812,164.710938 C137.507812,163.398431 137.816403,162.350264 138.433594,161.566406 C139.050784,160.782548 139.869787,160.390625 140.890625,160.390625 C141.854171,160.390625 142.611976,160.726559 143.164062,161.398438 L143.25,160.546875 L144.960938,160.546875 L144.960938,168.742188 C144.960938,169.851568 144.615889,170.726559 143.925781,171.367188 C143.235674,172.007816 142.304693,172.328125 141.132812,172.328125 C140.513018,172.328125 139.907555,172.19922 139.316406,171.941406 C138.725257,171.683592 138.276043,171.346356 137.96875,170.929688 L138.867188,169.789062 C139.450524,170.481774 140.169267,170.828125 141.023438,170.828125 C141.653649,170.828125 142.15104,170.657554 142.515625,170.316406 C142.88021,169.975259 143.0625,169.473962 143.0625,168.8125 L143.0625,168.242188 C142.515622,168.851566 141.786463,169.15625 140.875,169.15625 C139.885412,169.15625 139.076826,168.763025 138.449219,167.976562 C137.821611,167.1901 137.507812,166.101569 137.507812,164.710938 Z M139.398438,164.875 C139.398438,165.723963 139.571613,166.391925 139.917969,166.878906 C140.264325,167.365888 140.744789,167.609375 141.359375,167.609375 C142.125004,167.609375 142.692706,167.281253 143.0625,166.625 L143.0625,162.90625 C142.703123,162.265622 142.140629,161.945312 141.375,161.945312 C140.749997,161.945312 140.264325,162.192706 139.917969,162.6875 C139.571613,163.182294 139.398438,163.911454 139.398438,164.875 Z M151.335938,162.28125 C151.085936,162.239583 150.828126,162.21875 150.5625,162.21875 C149.692704,162.21875 149.106772,162.55208 148.804688,163.21875 L148.804688,169 L146.90625,169 L146.90625,160.546875 L148.71875,160.546875 L148.765625,161.492188 C149.223961,160.757809 149.859371,160.390625 150.671875,160.390625 C150.94271,160.390625 151.166666,160.427083 151.34375,160.5 L151.335938,162.28125 Z M157.585938,169 C157.502604,168.838541 157.429688,168.575523 157.367188,168.210938 C156.763018,168.841149 156.023442,169.15625 155.148438,169.15625 C154.299475,169.15625 153.606774,168.914065 153.070312,168.429688 C152.533851,167.94531 152.265625,167.346358 152.265625,166.632812 C152.265625,165.731766 152.600257,165.040367 153.269531,164.558594 C153.938805,164.076821 154.895827,163.835938 156.140625,163.835938 L157.304688,163.835938 L157.304688,163.28125 C157.304688,162.843748 157.182293,162.493491 156.9375,162.230469 C156.692707,161.967447 156.320315,161.835938 155.820312,161.835938 C155.388019,161.835938 155.033856,161.944009 154.757812,162.160156 C154.481769,162.376303 154.34375,162.65104 154.34375,162.984375 L152.445312,162.984375 C152.445312,162.520831 152.598957,162.087242 152.90625,161.683594 C153.213543,161.279946 153.631508,160.963543 154.160156,160.734375 C154.688805,160.505207 155.278643,160.390625 155.929688,160.390625 C156.919276,160.390625 157.70833,160.63932 158.296875,161.136719 C158.88542,161.634117 159.1875,162.333329 159.203125,163.234375 L159.203125,167.046875 C159.203125,167.807295 159.309895,168.41406 159.523438,168.867188 L159.523438,169 L157.585938,169 Z M155.5,167.632812 C155.875002,167.632812 156.227863,167.541668 156.558594,167.359375 C156.889325,167.177082 157.13802,166.932293 157.304688,166.625 L157.304688,165.03125 L156.28125,165.03125 C155.578121,165.03125 155.049481,165.153645 154.695312,165.398438 C154.341144,165.64323 154.164062,165.989581 154.164062,166.4375 C154.164062,166.802085 154.285155,167.092447 154.527344,167.308594 C154.769532,167.524741 155.093748,167.632812 155.5,167.632812 Z M162.953125,160.546875 L163.007812,161.523438 C163.632816,160.768225 164.45312,160.390625 165.46875,160.390625 C167.229175,160.390625 168.125,161.398427 168.15625,163.414062 L168.15625,169 L166.257812,169 L166.257812,163.523438 C166.257812,162.986976 166.141928,162.589845 165.910156,162.332031 C165.678384,162.074217 165.299482,161.945312 164.773438,161.945312 C164.007809,161.945312 163.437502,162.291663 163.0625,162.984375 L163.0625,169 L161.164062,169 L161.164062,160.546875 L162.953125,160.546875 Z M175.140625,169 C175.057291,168.838541 174.984375,168.575523 174.921875,168.210938 C174.317705,168.841149 173.578129,169.15625 172.703125,169.15625 C171.854162,169.15625 171.161461,168.914065 170.625,168.429688 C170.088539,167.94531 169.820312,167.346358 169.820312,166.632812 C169.820312,165.731766 170.154945,165.040367 170.824219,164.558594 C171.493493,164.076821 172.450515,163.835938 173.695312,163.835938 L174.859375,163.835938 L174.859375,163.28125 C174.859375,162.843748 174.73698,162.493491 174.492188,162.230469 C174.247395,161.967447 173.875002,161.835938 173.375,161.835938 C172.942706,161.835938 172.588543,161.944009 172.3125,162.160156 C172.036457,162.376303 171.898438,162.65104 171.898438,162.984375 L170,162.984375 C170,162.520831 170.153644,162.087242 170.460938,161.683594 C170.768231,161.279946 171.186195,160.963543 171.714844,160.734375 C172.243492,160.505207 172.83333,160.390625 173.484375,160.390625 C174.473963,160.390625 175.263018,160.63932 175.851562,161.136719 C176.440107,161.634117 176.742187,162.333329 176.757812,163.234375 L176.757812,167.046875 C176.757812,167.807295 176.864582,168.41406 177.078125,168.867188 L177.078125,169 L175.140625,169 Z M173.054688,167.632812 C173.429689,167.632812 173.78255,167.541668 174.113281,167.359375 C174.444012,167.177082 174.692707,166.932293 174.859375,166.625 L174.859375,165.03125 L173.835938,165.03125 C173.132809,165.03125 172.604168,165.153645 172.25,165.398438 C171.895832,165.64323 171.71875,165.989581 171.71875,166.4375 C171.71875,166.802085 171.839843,167.092447 172.082031,167.308594 C172.32422,167.524741 172.648435,167.632812 173.054688,167.632812 Z M180.757812,165.648438 L179.125,165.648438 L178.945312,157.625 L180.945312,157.625 L180.757812,165.648438 Z M178.890625,168.101562 C178.890625,167.804686 178.986978,167.558595 179.179688,167.363281 C179.372397,167.167968 179.635415,167.070312 179.96875,167.070312 C180.302085,167.070312 180.565103,167.167968 180.757812,167.363281 C180.950522,167.558595 181.046875,167.804686 181.046875,168.101562 C181.046875,168.388022 180.953126,168.627603 180.765625,168.820312 C180.578124,169.013022 180.312502,169.109375 179.96875,169.109375 C179.624998,169.109375 179.359376,169.013022 179.171875,168.820312 C178.984374,168.627603 178.890625,168.388022 178.890625,168.101562 Z" id="Wygrana!" fill="#FFFFFF" fill-rule="nonzero"></path>
            <path d="M18.28125,18.2348633 L23.6572266,18.2348633 L23.6572266,20 L15.534668,20 L15.534668,18.7109375 L20.8081055,11.1157227 L15.5419922,11.1157227 L15.5419922,9.3359375 L23.5400391,9.3359375 L23.5400391,10.5957031 L18.28125,18.2348633 Z M24.5947266,15.9790039 C24.5947266,14.7631775 24.8840303,13.7841834 25.4626465,13.0419922 C26.0412627,12.299801 26.8212842,11.9287109 27.8027344,11.9287109 C28.6718793,11.9287109 29.3481421,12.2265595 29.831543,12.8222656 L29.9194336,12.0751953 L31.8383789,12.0751953 L31.8383789,19.7363281 C31.8383789,20.429691 31.6809098,21.0327123 31.3659668,21.5454102 C31.0510238,22.058108 30.607913,22.4487291 30.0366211,22.7172852 C29.4653292,22.9858412 28.7963906,23.1201172 28.0297852,23.1201172 C27.4487276,23.1201172 26.882327,23.0041516 26.3305664,22.7722168 C25.7788058,22.540282 25.3613295,22.2412128 25.078125,21.875 L26.015625,20.5859375 C26.5429714,21.1767608 27.1826134,21.472168 27.9345703,21.472168 C28.4960966,21.472168 28.9331039,21.322023 29.2456055,21.0217285 C29.558107,20.721434 29.7143555,20.2954129 29.7143555,19.7436523 L29.7143555,19.3188477 C29.2260718,19.8706082 28.5839884,20.1464844 27.7880859,20.1464844 C26.8359327,20.1464844 26.0656768,19.7741736 25.4772949,19.029541 C24.8889131,18.2849084 24.5947266,17.2973694 24.5947266,16.0668945 L24.5947266,15.9790039 Z M26.7114258,16.1328125 C26.7114258,16.8505895 26.8554673,17.413328 27.1435547,17.8210449 C27.4316421,18.2287618 27.8271459,18.4326172 28.3300781,18.4326172 C28.9746126,18.4326172 29.4360338,18.1909204 29.7143555,17.7075195 L29.7143555,14.375 C29.4311509,13.8915991 28.9746125,13.6499023 28.3447266,13.6499023 C27.8369115,13.6499023 27.4377456,13.8574198 27.1472168,14.2724609 C26.856688,14.6875021 26.7114258,15.3076131 26.7114258,16.1328125 Z M38.0566406,20 C37.9589839,19.8095694 37.8881838,19.5727553 37.8442383,19.2895508 C37.3315404,19.8608427 36.6650432,20.1464844 35.8447266,20.1464844 C35.0683555,20.1464844 34.4250514,19.9218772 33.9147949,19.4726562 C33.4045385,19.0234353 33.1494141,18.4570347 33.1494141,17.7734375 C33.1494141,16.9335896 33.4606902,16.2890647 34.083252,15.8398438 C34.7058137,15.3906228 35.6054629,15.1635742 36.7822266,15.1586914 L37.7563477,15.1586914 L37.7563477,14.7045898 C37.7563477,14.3383771 37.6623545,14.0454113 37.4743652,13.8256836 C37.286376,13.6059559 36.9897481,13.4960938 36.5844727,13.4960938 C36.2280256,13.4960938 35.9484873,13.5815421 35.7458496,13.7524414 C35.5432119,13.9233407 35.4418945,14.1577134 35.4418945,14.4555664 L33.3251953,14.4555664 C33.3251953,13.9965797 33.4667955,13.5717793 33.75,13.1811523 C34.0332045,12.7905254 34.4335912,12.484132 34.9511719,12.2619629 C35.4687526,12.0397938 36.0498015,11.9287109 36.6943359,11.9287109 C37.6709033,11.9287109 38.4460421,12.1740698 39.0197754,12.6647949 C39.5935087,13.15552 39.8803711,13.8452104 39.8803711,14.7338867 L39.8803711,18.1689453 C39.8852539,18.9209022 39.9902333,19.4897442 40.1953125,19.8754883 L40.1953125,20 L38.0566406,20 Z M36.3061523,18.527832 C36.6186539,18.527832 36.906737,18.4582526 37.1704102,18.3190918 C37.4340833,18.1799309 37.6293939,17.9931652 37.7563477,17.7587891 L37.7563477,16.3964844 L36.965332,16.3964844 C35.9057564,16.3964844 35.3417972,16.7626917 35.2734375,17.4951172 L35.2661133,17.6196289 C35.2661133,17.8833021 35.3588858,18.1005851 35.5444336,18.2714844 C35.7299814,18.4423837 35.9838851,18.527832 36.3061523,18.527832 Z M41.1767578,15.9790039 C41.1767578,14.7436462 41.4538547,13.7597693 42.0080566,13.0273438 C42.5622586,12.2949182 43.3203077,11.9287109 44.2822266,11.9287109 C45.0537148,11.9287109 45.6909155,12.216794 46.1938477,12.7929688 L46.1938477,8.75 L48.3178711,8.75 L48.3178711,20 L46.40625,20 L46.3037109,19.1577148 C45.7763646,19.8168978 45.0976604,20.1464844 44.2675781,20.1464844 C43.3349563,20.1464844 42.5866727,19.7790564 42.0227051,19.0441895 C41.4587374,18.3093225 41.1767578,17.2876042 41.1767578,15.9790039 Z M43.293457,16.1328125 C43.293457,16.8750037 43.4228503,17.4438457 43.6816406,17.8393555 C43.940431,18.2348653 44.3164038,18.4326172 44.8095703,18.4326172 C45.4638705,18.4326172 45.9252916,18.156741 46.1938477,17.6049805 L46.1938477,14.4775391 C45.9301745,13.9257785 45.4736361,13.6499023 44.8242188,13.6499023 C43.8037058,13.6499023 43.293457,14.4775308 43.293457,16.1328125 Z M52.3901367,18.293457 L56.2646484,18.293457 L56.2646484,20 L49.6875,20 L49.6875,18.7109375 L53.4155273,13.7890625 L49.7973633,13.7890625 L49.7973633,12.0751953 L56.1474609,12.0751953 L56.1474609,13.3276367 L52.3901367,18.293457 Z M62.1826172,20 C62.0849604,19.8095694 62.0141604,19.5727553 61.9702148,19.2895508 C61.457517,19.8608427 60.7910197,20.1464844 59.9707031,20.1464844 C59.1943321,20.1464844 58.5510279,19.9218772 58.0407715,19.4726562 C57.530515,19.0234353 57.2753906,18.4570347 57.2753906,17.7734375 C57.2753906,16.9335896 57.5866668,16.2890647 58.2092285,15.8398438 C58.8317902,15.3906228 59.7314394,15.1635742 60.9082031,15.1586914 L61.8823242,15.1586914 L61.8823242,14.7045898 C61.8823242,14.3383771 61.788331,14.0454113 61.6003418,13.8256836 C61.4123526,13.6059559 61.1157247,13.4960938 60.7104492,13.4960938 C60.3540021,13.4960938 60.0744639,13.5815421 59.8718262,13.7524414 C59.6691884,13.9233407 59.5678711,14.1577134 59.5678711,14.4555664 L57.4511719,14.4555664 C57.4511719,13.9965797 57.592772,13.5717793 57.8759766,13.1811523 C58.1591811,12.7905254 58.5595677,12.484132 59.0771484,12.2619629 C59.5947292,12.0397938 60.175778,11.9287109 60.8203125,11.9287109 C61.7968799,11.9287109 62.5720186,12.1740698 63.145752,12.6647949 C63.7194853,13.15552 64.0063477,13.8452104 64.0063477,14.7338867 L64.0063477,18.1689453 C64.0112305,18.9209022 64.1162099,19.4897442 64.3212891,19.8754883 L64.3212891,20 L62.1826172,20 Z M60.4321289,18.527832 C60.7446305,18.527832 61.0327135,18.4582526 61.2963867,18.3190918 C61.5600599,18.1799309 61.7553705,17.9931652 61.8823242,17.7587891 L61.8823242,16.3964844 L61.0913086,16.3964844 C60.031733,16.3964844 59.4677738,16.7626917 59.3994141,17.4951172 L59.3920898,17.6196289 C59.3920898,17.8833021 59.4848624,18.1005851 59.6704102,18.2714844 C59.855958,18.4423837 60.1098617,18.527832 60.4321289,18.527832 Z M73.659668,17.8100586 C73.659668,17.5512682 73.5314954,17.3474129 73.2751465,17.1984863 C73.0187975,17.0495598 72.6074247,16.9165045 72.0410156,16.7993164 C70.1562406,16.4038066 69.2138672,15.6030334 69.2138672,14.3969727 C69.2138672,13.6938441 69.5056123,13.1066918 70.0891113,12.635498 C70.6726103,12.1643043 71.4355422,11.9287109 72.3779297,11.9287109 C73.3837941,11.9287109 74.1882294,12.165525 74.7912598,12.6391602 C75.3942901,13.1127953 75.6958008,13.7280236 75.6958008,14.4848633 L73.5791016,14.4848633 C73.5791016,14.1821274 73.4814463,13.9318858 73.2861328,13.7341309 C73.0908193,13.536376 72.7856466,13.4375 72.3706055,13.4375 C72.0141584,13.4375 71.7382822,13.5180656 71.5429688,13.6791992 C71.3476553,13.8403328 71.25,14.0454089 71.25,14.2944336 C71.25,14.5288098 71.3610829,14.7180169 71.583252,14.8620605 C71.805421,15.0061042 72.1801731,15.1306147 72.7075195,15.2355957 C73.2348659,15.3405767 73.6791974,15.4589837 74.0405273,15.5908203 C75.158697,16.0009786 75.7177734,16.7114207 75.7177734,17.722168 C75.7177734,18.4448278 75.4077179,19.0295388 74.7875977,19.4763184 C74.1674774,19.9230979 73.3667041,20.1464844 72.3852539,20.1464844 C71.7211881,20.1464844 71.1315944,20.0280774 70.6164551,19.7912598 C70.1013158,19.5544422 69.6972671,19.2297384 69.4042969,18.8171387 C69.1113267,18.404539 68.9648438,17.9589868 68.9648438,17.4804688 L70.9716797,17.4804688 C70.991211,17.8564472 71.1303698,18.1445302 71.3891602,18.3447266 C71.6479505,18.5449229 71.9946267,18.6450195 72.4291992,18.6450195 C72.8344747,18.6450195 73.1408681,18.568116 73.3483887,18.4143066 C73.5559092,18.2604973 73.659668,18.0590833 73.659668,17.8100586 Z M79.3139648,20 L77.1899414,20 L77.1899414,12.0751953 L79.3139648,12.0751953 L79.3139648,20 Z M77.0654297,10.0244141 C77.0654297,9.70702966 77.1716298,9.44580181 77.3840332,9.24072266 C77.5964366,9.03564351 77.8857404,8.93310547 78.2519531,8.93310547 C78.6132831,8.93310547 78.9013661,9.03564351 79.1162109,9.24072266 C79.3310558,9.44580181 79.4384766,9.70702966 79.4384766,10.0244141 C79.4384766,10.3466813 79.3298351,10.6103505 79.1125488,10.8154297 C78.8952626,11.0205088 78.6084002,11.1230469 78.2519531,11.1230469 C77.895506,11.1230469 77.6086437,11.0205088 77.3913574,10.8154297 C77.1740712,10.6103505 77.0654297,10.3466813 77.0654297,10.0244141 Z M87.7954102,18.7182617 C87.4926743,19.1625999 87.0605497,19.5141589 86.4990234,19.7729492 L86.5063477,19.7729492 C86.1450177,19.9780284 85.8667002,20.1794424 85.6713867,20.3771973 C85.4760732,20.5749522 85.378418,20.8032214 85.378418,21.0620117 C85.378418,21.3793961 85.5395492,21.5380859 85.8618164,21.5380859 C86.02295,21.5380859 86.2182606,21.4892583 86.4477539,21.3916016 L86.6601562,22.5415039 C86.3037092,22.7563487 85.9008812,22.8637695 85.4516602,22.8637695 C84.9633765,22.8637695 84.5642105,22.7282728 84.2541504,22.4572754 C83.9440902,22.1862779 83.7890625,21.8115258 83.7890625,21.3330078 C83.7890625,20.8593726 83.9428696,20.4565446 84.2504883,20.1245117 C83.2055612,20.0317378 82.3645051,19.6350133 81.7272949,18.9343262 C81.0900847,18.2336391 80.7714844,17.3388726 80.7714844,16.25 L80.7714844,16.0229492 C80.7714844,15.2270468 80.9252914,14.515384 81.2329102,13.8879395 C81.5405289,13.2604949 81.9763155,12.7771013 82.5402832,12.4377441 C83.1042509,12.098387 83.747555,11.9287109 84.4702148,11.9287109 C85.5542046,11.9287109 86.4074676,12.2705044 87.0300293,12.9541016 C87.652591,13.6376987 87.9638672,14.6069273 87.9638672,15.8618164 L87.9638672,16.7260742 L82.9174805,16.7260742 C82.9858402,17.2436549 83.192137,17.6586898 83.536377,17.9711914 C83.880617,18.283693 84.3164036,18.4399414 84.84375,18.4399414 C85.6591838,18.4399414 86.2963844,18.1445342 86.7553711,17.5537109 L87.7954102,18.7182617 Z M84.4628906,13.6425781 C84.0429667,13.6425781 83.7023939,13.7841783 83.4411621,14.0673828 C83.1799303,14.3505874 83.0126957,14.7558567 82.9394531,15.2832031 L85.8837891,15.2832031 L85.8837891,15.1147461 C85.8740234,14.6459938 85.7470715,14.2834485 85.5029297,14.0270996 C85.2587878,13.7707507 84.9121116,13.6425781 84.4628906,13.6425781 Z" id="Zgadzasi" fill="#000000" fill-rule="nonzero"></path>
        </g>
    </g>
</svg>