<svg width="299" height="197" xmlns="http://www.w3.org/2000/svg" xmlns:xlink="http://www.w3.org/1999/xlink"><defs><path d="M110.42 17.66V21h-1.125v-8.531h3.146c.934 0 1.665.238 2.195.715.529.476.794 1.107.794 1.892 0 .828-.26 1.466-.777 1.913-.517.448-1.258.671-2.223.671h-2.01zm0-.92h2.021c.602 0 1.063-.141 1.383-.425.32-.283.48-.692.48-1.227 0-.508-.16-.914-.48-1.219-.32-.305-.76-.463-1.318-.474h-2.086v3.345zm9.34-1.107a3.248 3.248 0 0 0-.533-.041c-.711 0-1.194.303-1.448.908V21h-1.084v-6.34h1.055l.018.733c.355-.567.859-.85 1.511-.85.211 0 .371.027.48.082v1.008zm2.015 4.482h3.71V21h-5.034v-.797l3.498-4.646h-3.445v-.897h4.805v.768l-3.534 4.687zm7.465 1.002c-.86 0-1.558-.282-2.097-.846-.54-.565-.809-1.32-.809-2.265v-.2c0-.628.12-1.19.36-1.684s.577-.88 1.008-1.16c.432-.28.9-.419 1.403-.419.825 0 1.465.271 1.922.814.457.543.686 1.32.686 2.332v.452h-4.295c.016.625.198 1.13.548 1.514.35.385.794.577 1.333.577.383 0 .707-.078.972-.234.266-.156.499-.363.698-.621l.662.516c-.531.816-1.328 1.224-2.39 1.224zm-.135-5.683c-.437 0-.804.159-1.101.477-.297.318-.48.765-.55 1.339h3.175v-.082c-.031-.55-.18-.978-.445-1.28-.266-.303-.625-.454-1.079-.454zm9.475 4.072l1.219-4.846h1.084L139.037 21h-.879l-1.54-4.805-1.5 4.805h-.88l-1.84-6.34h1.079l1.248 4.746 1.476-4.746h.873l1.506 4.846zM143.162 21h-1.084v-6.34h1.084V21zm-1.172-8.021c0-.176.054-.325.161-.446.108-.12.267-.181.478-.181.21 0 .371.06.48.181a.64.64 0 0 1 .164.446.62.62 0 0 1-.164.439c-.109.117-.27.176-.48.176-.211 0-.37-.059-.478-.176a.626.626 0 0 1-.16-.44zm2.643 4.798c0-.972.23-1.755.691-2.346.461-.592 1.065-.888 1.81-.888.743 0 1.33.254 1.764.762V12h1.084v9h-.996l-.052-.68c-.434.532-1.038.797-1.811.797-.734 0-1.333-.3-1.796-.902-.463-.602-.694-1.387-.694-2.356v-.082zm1.084.123c0 .72.148 1.282.445 1.688.297.406.707.61 1.23.61.688 0 1.19-.31 1.506-.927V16.36c-.324-.597-.822-.896-1.494-.896-.531 0-.945.205-1.242.615-.297.41-.445 1.018-.445 1.822zm8.021 1.512l1.477-4.752h1.16l-2.549 7.319c-.394 1.054-1.021 1.582-1.88 1.582l-.206-.018-.404-.076v-.88l.293.024c.367 0 .653-.074.858-.222.205-.149.374-.42.507-.815l.24-.644-2.261-6.27h1.183l1.582 4.752zm9.217.094l1.219-4.846h1.084L163.412 21h-.879l-1.54-4.805-1.5 4.805h-.88l-1.84-6.34h1.079l1.248 4.746 1.476-4.746h.873l1.506 4.846zM170.273 21c-.062-.125-.113-.348-.152-.668-.504.523-1.105.785-1.805.785-.625 0-1.137-.177-1.538-.53-.4-.354-.6-.802-.6-1.345 0-.66.25-1.173.753-1.538.502-.365 1.208-.548 2.118-.548h1.055v-.498c0-.379-.114-.68-.34-.905-.227-.225-.56-.337-1.002-.337-.387 0-.711.098-.973.293-.262.195-.393.432-.393.709h-1.09c0-.316.113-.622.338-.917a2.3 2.3 0 0 1 .914-.7 3.075 3.075 0 0 1 1.268-.258c.73 0 1.303.183 1.717.548.414.365.629.868.644 1.509v2.918c0 .582.075 1.044.223 1.388V21h-1.137zm-1.798-.826c.34 0 .662-.088.966-.264.305-.176.526-.404.663-.685v-1.301h-.85c-1.328 0-1.992.388-1.992 1.166 0 .34.113.605.34.797.226.191.517.287.873.287zm5.437-5.514l.035.797c.485-.61 1.117-.914 1.899-.914 1.34 0 2.015.756 2.027 2.268V21h-1.084v-4.195c-.004-.457-.108-.795-.313-1.014-.205-.219-.525-.328-.958-.328-.352 0-.66.094-.926.281a1.91 1.91 0 0 0-.621.738V21h-1.084v-6.34h1.025zm6.774 6.34h-1.084v-6.34h1.084V21zm-1.172-8.021c0-.176.053-.325.16-.446.108-.12.267-.181.478-.181.211 0 .371.06.48.181a.64.64 0 0 1 .165.446.62.62 0 0 1-.164.439c-.11.117-.27.176-.48.176-.212 0-.37-.059-.478-.176a.626.626 0 0 1-.161-.44zm5.537 8.138c-.86 0-1.559-.282-2.098-.846-.539-.565-.808-1.32-.808-2.265v-.2c0-.628.12-1.19.36-1.684s.576-.88 1.008-1.16c.431-.28.9-.419 1.403-.419.824 0 1.465.271 1.922.814.457.543.685 1.32.685 2.332v.452h-4.294c.015.625.198 1.13.547 1.514.35.385.794.577 1.333.577.383 0 .707-.078.973-.234.266-.156.498-.363.697-.621l.662.516c-.53.816-1.328 1.224-2.39 1.224zm-.135-5.683c-.437 0-.805.159-1.102.477-.296.318-.48.765-.55 1.339h3.175v-.082c-.03-.55-.18-.978-.445-1.28-.265-.303-.625-.454-1.078-.454zm6.545 2.337c0-.62.122-1.18.366-1.675a2.732 2.732 0 0 1 1.02-1.149c.435-.27.932-.404 1.49-.404.864 0 1.562.299 2.096.896.533.598.8 1.393.8 2.385v.076c0 .618-.119 1.171-.355 1.662-.236.49-.574.872-1.014 1.145-.44.273-.944.41-1.514.41-.86 0-1.556-.299-2.09-.896-.532-.598-.8-1.389-.8-2.373v-.077zm1.09.13c0 .703.163 1.267.489 1.693.326.426.763.638 1.31.638.55 0 .988-.215 1.312-.647.324-.432.486-1.036.486-1.814 0-.695-.165-1.258-.495-1.69a1.574 1.574 0 0 0-1.315-.647c-.535 0-.967.212-1.295.638-.328.426-.492 1.035-.492 1.828zm9.732 1.417c0-.293-.11-.52-.33-.682-.222-.162-.606-.302-1.155-.42-.549-.116-.985-.257-1.307-.421-.322-.164-.56-.36-.715-.586a1.402 1.402 0 0 1-.231-.809c0-.52.22-.959.66-1.318.439-.36 1-.539 1.684-.539.718 0 1.301.186 1.749.557.447.37.67.845.67 1.423h-1.09c0-.296-.125-.552-.377-.767-.252-.215-.57-.322-.952-.322-.395 0-.703.086-.926.257a.812.812 0 0 0-.334.674c0 .262.103.46.31.592.207.133.582.26 1.123.38.54.122.979.267 1.315.434.336.168.585.37.747.607.162.236.243.524.243.864 0 .567-.226 1.02-.68 1.362-.453.342-1.04.513-1.763.513-.508 0-.957-.09-1.348-.27-.39-.179-.696-.43-.917-.752a1.815 1.815 0 0 1-.33-1.046h1.083c.02.363.165.651.437.864.271.213.63.32 1.075.32.41 0 .74-.084.987-.25.248-.166.372-.387.372-.665zm3.967-6.193v1.535h1.184v.838h-1.184v3.932c0 .254.053.444.158.571.106.127.285.19.54.19.124 0 .296-.023.515-.07V21a3.143 3.143 0 0 1-.832.117c-.485 0-.85-.146-1.096-.44-.246-.292-.369-.708-.369-1.247v-3.932h-1.154v-.838h1.154v-1.535h1.084zM212.613 21c-.062-.125-.113-.348-.152-.668-.504.523-1.106.785-1.805.785-.625 0-1.137-.177-1.538-.53-.4-.354-.6-.802-.6-1.345 0-.66.25-1.173.753-1.538.501-.365 1.208-.548 2.118-.548h1.054v-.498c0-.379-.113-.68-.34-.905-.226-.225-.56-.337-1.001-.337-.387 0-.711.098-.973.293-.262.195-.393.432-.393.709h-1.09c0-.316.113-.622.337-.917a2.3 2.3 0 0 1 .914-.7 3.075 3.075 0 0 1 1.269-.258c.73 0 1.303.183 1.717.548.414.365.629.868.644 1.509v2.918c0 .582.075 1.044.223 1.388V21h-1.137zm-1.799-.826c.34 0 .663-.088.967-.264.305-.176.526-.404.662-.685v-1.301h-.85c-1.327 0-1.991.388-1.991 1.166 0 .34.113.605.34.797.226.191.517.287.872.287zm5.883-7.049v1.535h1.184v.838h-1.184v3.932c0 .254.053.444.158.571.106.127.286.19.54.19.125 0 .296-.023.515-.07V21a3.143 3.143 0 0 1-.832.117c-.484 0-.85-.146-1.096-.44-.246-.292-.369-.708-.369-1.247v-3.932h-1.154v-.838h1.154v-1.535h1.084zm3.475 1.535l.035.797c.484-.61 1.117-.914 1.898-.914 1.34 0 2.016.756 2.028 2.268V21h-1.084v-4.195c-.004-.457-.109-.795-.314-1.014-.205-.219-.524-.328-.958-.328-.351 0-.66.094-.925.281a1.91 1.91 0 0 0-.622.738V21h-1.084v-6.34h1.026zm6.773 6.34h-1.084v-6.34h1.084V21zm-1.172-8.021c0-.176.054-.325.162-.446.107-.12.266-.181.477-.181.211 0 .371.06.48.181a.64.64 0 0 1 .165.446.62.62 0 0 1-.164.439c-.11.117-.27.176-.48.176-.212 0-.371-.059-.478-.176a.626.626 0 0 1-.162-.44zm5.538 8.138c-.86 0-1.559-.282-2.098-.846-.54-.565-.809-1.32-.809-2.265v-.2c0-.628.12-1.19.36-1.684s.577-.88 1.008-1.16c.432-.28.9-.419 1.404-.419.824 0 1.465.271 1.922.814.457.543.685 1.32.685 2.332v.452h-4.295c.016.625.199 1.13.548 1.514.35.385.794.577 1.333.577.383 0 .707-.078.973-.234.265-.156.498-.363.697-.621l.662.516c-.531.816-1.328 1.224-2.39 1.224zm-.135-5.683c-.438 0-.805.159-1.102.477-.297.318-.48.765-.55 1.339h3.175v-.082c-.031-.55-.18-.978-.445-1.28-.266-.303-.625-.454-1.078-.454zm4.98-.774v7.072c0 1.22-.552 1.829-1.658 1.829-.238 0-.459-.036-.662-.106v-.867c.125.031.289.047.492.047.242 0 .427-.066.554-.197.127-.13.19-.358.19-.682V14.66h1.084zm-1.195-1.681a.65.65 0 0 1 .161-.443c.107-.123.265-.184.472-.184.21 0 .37.06.48.181a.64.64 0 0 1 .164.446.62.62 0 0 1-.164.439c-.11.117-.27.176-.48.176-.211 0-.37-.059-.475-.176a.632.632 0 0 1-.158-.44zm8.455 7.253c.387 0 .725-.117 1.014-.351.289-.235.449-.527.48-.879h1.026c-.02.363-.145.709-.375 1.037a2.47 2.47 0 0 1-.923.785 2.663 2.663 0 0 1-1.222.293c-.863 0-1.55-.288-2.06-.864-.51-.576-.764-1.364-.764-2.364v-.182c0-.617.113-1.166.34-1.646.226-.48.551-.854.975-1.12.424-.265.925-.398 1.503-.398.711 0 1.302.213 1.773.639.47.425.721.978.753 1.658h-1.026a1.494 1.494 0 0 0-.466-1.01 1.45 1.45 0 0 0-1.034-.396c-.55 0-.977.198-1.28.594-.303.397-.454.97-.454 1.72v.205c0 .73.15 1.293.451 1.688.3.394.73.591 1.289.591zm5.813-.82l1.476-4.752h1.16l-2.549 7.319c-.394 1.054-1.021 1.582-1.88 1.582l-.206-.018-.404-.076v-.88l.293.024c.367 0 .653-.074.859-.222.205-.149.374-.42.506-.815l.24-.644-2.261-6.27h1.183l1.583 4.752zM253.44 21v-5.502h-1.002v-.838h1.002v-.65c0-.68.182-1.205.545-1.576.364-.372.877-.557 1.541-.557.25 0 .498.033.744.1l-.058.878a3.113 3.113 0 0 0-.586-.052c-.352 0-.623.102-.815.307-.19.205-.287.5-.287.882v.668h1.354v.838h-1.354V21h-1.084zm6.698-5.367a3.248 3.248 0 0 0-.534-.041c-.71 0-1.193.303-1.447.908V21h-1.084v-6.34h1.055l.017.733c.356-.567.86-.85 1.512-.85.211 0 .371.027.48.082v1.008zm3.175 3.78l1.477-4.753h1.16l-2.549 7.319c-.394 1.054-1.021 1.582-1.88 1.582l-.206-.018-.404-.076v-.88l.293.024c.367 0 .653-.074.858-.222.206-.149.375-.42.507-.815l.24-.644-2.261-6.27h1.183l1.582 4.752zm8.04-3.206h.814c.512-.008.914-.143 1.207-.404.293-.262.44-.615.44-1.06 0-1-.499-1.5-1.495-1.5-.468 0-.842.133-1.122.4-.28.268-.419.623-.419 1.064h-1.084c0-.676.247-1.237.742-1.685.494-.447 1.122-.67 1.883-.67.805 0 1.436.212 1.893.638.457.426.685 1.018.685 1.776 0 .37-.12.73-.36 1.078-.24.347-.567.607-.981.779.468.148.83.395 1.087.738.255.344.383.764.383 1.26 0 .766-.25 1.373-.75 1.822-.5.45-1.15.674-1.95.674-.802 0-1.453-.217-1.955-.65-.502-.434-.753-1.006-.753-1.717h1.09c0 .45.146.809.44 1.078.292.27.685.404 1.177.404.524 0 .924-.136 1.201-.41.278-.273.416-.666.416-1.177 0-.497-.152-.877-.457-1.143-.304-.266-.744-.402-1.318-.41h-.814v-.885z" id="a"/><path d="M119.505 164.104l1.819-9.612h2.774L121.1 168H118.3l-2.198-9.036-2.2 9.036h-2.8l-2.997-13.508h2.773l1.828 9.593 2.227-9.593h2.356l2.217 9.612zm9.667.102l1.856-6.244h2.876l-4.036 11.597-.222.528c-.6 1.312-1.59 1.967-2.97 1.967-.389 0-.785-.059-1.187-.176v-2.032l.408.01c.508 0 .886-.078 1.137-.232.25-.155.447-.412.589-.77l.315-.826-3.516-10.066h2.886l1.864 6.244zm5.28-1.3c0-1.54.366-2.78 1.099-3.72.732-.94 1.72-1.41 2.964-1.41 1.1 0 1.957.378 2.57 1.132l.11-.946h2.431v9.704c0 .878-.199 1.642-.598 2.292a3.843 3.843 0 0 1-1.684 1.484c-.723.34-1.57.51-2.542.51a5.504 5.504 0 0 1-2.152-.44c-.699-.294-1.228-.673-1.587-1.137l1.188-1.633c.668.749 1.478 1.123 2.43 1.123.712 0 1.265-.19 1.661-.57.396-.381.594-.92.594-1.62v-.538c-.618.7-1.432 1.049-2.44 1.049-1.206 0-2.182-.472-2.927-1.415-.745-.943-1.118-2.194-1.118-3.753v-.111zm2.68.196c0 .909.183 1.622.548 2.138.365.516.866.775 1.503.775.816 0 1.4-.307 1.753-.919v-4.221c-.359-.612-.937-.918-1.735-.918-.643 0-1.149.262-1.517.788-.368.526-.552 1.311-.552 2.357zm14.195-2.626a7.284 7.284 0 0 0-.965-.074c-1.015 0-1.68.343-1.995 1.03V168h-2.681v-10.038h2.533l.074 1.197c.538-.922 1.283-1.383 2.236-1.383.297 0 .575.04.835.121l-.037 2.58zm6.828 7.524a2.977 2.977 0 0 1-.27-.9c-.649.724-1.493 1.086-2.532 1.086-.983 0-1.798-.285-2.445-.854-.646-.569-.969-1.286-.969-2.152 0-1.064.394-1.88 1.183-2.45.788-.569 1.928-.856 3.419-.862h1.233v-.576c0-.463-.119-.834-.357-1.113-.238-.278-.614-.417-1.127-.417-.451 0-.806.108-1.062.324-.257.217-.385.514-.385.891h-2.681c0-.581.179-1.12.538-1.614.358-.495.866-.883 1.521-1.165.656-.28 1.392-.422 2.208-.422 1.237 0 2.219.311 2.946.933.726.621 1.09 1.495 1.09 2.62v4.352c.006.952.139 1.673.399 2.161V168h-2.71zm-2.218-1.865c.396 0 .761-.088 1.095-.264.334-.176.582-.413.742-.71v-1.725h-1.002c-1.342 0-2.056.463-2.143 1.391l-.009.158c0 .334.118.61.353.826.235.216.556.324.964.324zm9.055-8.173l.084 1.16c.717-.897 1.679-1.346 2.885-1.346 1.064 0 1.855.313 2.375.937.52.625.785 1.559.798 2.802V168h-2.681v-6.42c0-.569-.124-.982-.371-1.238-.248-.257-.66-.385-1.234-.385-.755 0-1.32.321-1.698.964V168h-2.681v-10.038h2.523zM178.982 168a2.977 2.977 0 0 1-.269-.9c-.649.724-1.493 1.086-2.532 1.086-.984 0-1.799-.285-2.445-.854-.646-.569-.97-1.286-.97-2.152 0-1.064.395-1.88 1.183-2.45.789-.569 1.929-.856 3.42-.862h1.233v-.576c0-.463-.119-.834-.357-1.113-.238-.278-.614-.417-1.127-.417-.452 0-.806.108-1.063.324-.256.217-.385.514-.385.891h-2.68c0-.581.179-1.12.537-1.614.36-.495.866-.883 1.522-1.165.655-.28 1.391-.422 2.208-.422 1.237 0 2.219.311 2.945.933.727.621 1.09 1.495 1.09 2.62v4.352c.007.952.14 1.673.4 2.161V168h-2.71zm-2.217-1.865c.396 0 .76-.088 1.095-.264.334-.176.581-.413.742-.71v-1.725H177.6c-1.342 0-2.056.463-2.143 1.391l-.01.158c0 .334.118.61.353.826.235.216.557.324.965.324zm9.315-2.282h-2.227l-.315-9.36h2.857l-.315 9.36zm-1.114 1.466c.452 0 .815.133 1.09.399.276.266.413.606.413 1.02 0 .408-.137.746-.413 1.012-.275.265-.638.398-1.09.398-.445 0-.805-.133-1.08-.398-.276-.266-.413-.604-.413-1.012 0-.408.137-.747.412-1.016.276-.269.636-.403 1.081-.403z" id="b"/><path d="M23.844 19.47h4.659V21h-7.04v-1.117l4.57-6.583H21.47v-1.542H28.4v1.092l-4.557 6.62zm5.338-1.955c0-1.054.25-1.902.752-2.545.502-.644 1.178-.965 2.028-.965.754 0 1.34.258 1.759.774l.076-.647h1.663v6.64c0 .6-.137 1.123-.41 1.567a2.63 2.63 0 0 1-1.152 1.016c-.495.233-1.074.35-1.739.35-.503 0-.994-.101-1.472-.302-.479-.201-.84-.46-1.086-.778l.813-1.117c.457.512 1.011.768 1.663.768.486 0 .865-.13 1.136-.39.27-.26.406-.63.406-1.108v-.368c-.423.478-.98.717-1.67.717-.824 0-1.492-.323-2.002-.968-.51-.645-.765-1.501-.765-2.568v-.076zm1.835.133c0 .623.124 1.11.374 1.464.25.353.593.53 1.028.53.559 0 .959-.21 1.2-.629v-2.888c-.245-.419-.641-.628-1.187-.628a1.2 1.2 0 0 0-1.038.54c-.252.359-.377.896-.377 1.611zM40.849 21a2.037 2.037 0 0 1-.184-.616c-.444.495-1.022.743-1.733.743-.673 0-1.23-.195-1.672-.584a1.878 1.878 0 0 1-.664-1.473c0-.728.27-1.286.81-1.675.54-.39 1.319-.587 2.339-.59h.844v-.394c0-.318-.082-.572-.245-.762-.162-.19-.42-.286-.77-.286-.31 0-.552.074-.728.222-.175.149-.263.352-.263.61h-1.834c0-.398.122-.766.368-1.105.245-.338.592-.604 1.04-.796a3.794 3.794 0 0 1 1.511-.29c.847 0 1.519.214 2.016.639.497.425.746 1.023.746 1.793v2.977c.004.652.095 1.145.273 1.48V21h-1.854zm-1.517-1.276c.27 0 .52-.06.75-.18.228-.121.397-.283.507-.486v-1.181h-.686c-.918 0-1.407.317-1.466.952l-.006.108c0 .229.08.417.24.565.162.148.382.222.661.222zm4.221-2.209c0-1.07.24-1.923.72-2.558.481-.635 1.138-.952 1.972-.952.668 0 1.22.25 1.656.749V11.25h1.841V21h-1.657l-.088-.73c-.457.571-1.046.857-1.765.857-.808 0-1.457-.318-1.946-.955-.488-.637-.733-1.523-.733-2.657zm1.835.133c0 .644.112 1.137.336 1.48.224.342.55.514.978.514.567 0 .967-.24 1.2-.718v-2.71c-.23-.478-.625-.717-1.188-.717-.884 0-1.326.717-1.326 2.151zm7.883 1.873h3.358V21h-5.7v-1.117l3.231-4.266h-3.136v-1.485h5.504v1.085l-3.257 4.304zM61.758 21a2.037 2.037 0 0 1-.184-.616c-.444.495-1.022.743-1.733.743-.673 0-1.23-.195-1.672-.584a1.878 1.878 0 0 1-.664-1.473c0-.728.27-1.286.81-1.675.54-.39 1.319-.587 2.339-.59h.844v-.394c0-.318-.081-.572-.244-.762-.163-.19-.42-.286-.772-.286-.308 0-.55.074-.726.222-.176.149-.264.352-.264.61h-1.834c0-.398.122-.766.368-1.105.245-.338.592-.604 1.04-.796a3.794 3.794 0 0 1 1.512-.29c.846 0 1.518.214 2.015.639.497.425.746 1.023.746 1.793v2.977c.004.652.095 1.145.273 1.48V21h-1.854zm-1.517-1.276c.271 0 .52-.06.75-.18.228-.121.397-.283.507-.486v-1.181h-.685c-.919 0-1.408.317-1.467.952l-.006.108c0 .229.08.417.241.565.16.148.38.222.66.222zm12.657-1.149c0-.36-.127-.636-.38-.828-.254-.193-.711-.396-1.372-.61-.66-.213-1.182-.424-1.567-.631-1.05-.567-1.575-1.331-1.575-2.292 0-.499.141-.944.423-1.336.28-.391.685-.697 1.212-.917.527-.22 1.118-.33 1.774-.33.66 0 1.248.12 1.765.359.516.239.917.576 1.203 1.012.285.436.428.93.428 1.485h-1.904c0-.423-.134-.752-.4-.987-.267-.235-.641-.352-1.124-.352-.465 0-.827.098-1.085.295a.931.931 0 0 0-.387.778c0 .3.151.552.454.755.302.203.748.394 1.336.571 1.083.326 1.872.73 2.367 1.213.496.482.743 1.083.743 1.802 0 .8-.302 1.428-.908 1.883-.605.454-1.42.682-2.443.682a4.72 4.72 0 0 1-1.943-.39c-.584-.26-1.03-.617-1.336-1.07-.307-.453-.46-.978-.46-1.574h1.91c0 1.02.61 1.53 1.829 1.53.452 0 .806-.092 1.06-.277.253-.184.38-.44.38-.77zM77.913 21h-1.84v-6.868h1.84V21zm-1.949-8.646c0-.275.092-.501.276-.679.185-.177.435-.266.753-.266.313 0 .563.089.749.266.186.178.279.404.279.68a.9.9 0 0 1-.282.685c-.189.178-.437.267-.746.267-.31 0-.558-.09-.746-.267a.9.9 0 0 1-.283-.686zm9.3 7.535c-.263.385-.637.69-1.124.914h.006a3.339 3.339 0 0 0-.723.524.82.82 0 0 0-.254.593c0 .275.14.413.419.413.14 0 .309-.042.508-.127l.184.997c-.31.186-.658.279-1.048.279-.423 0-.769-.117-1.037-.352-.27-.235-.403-.56-.403-.975 0-.41.133-.76.4-1.047-.906-.08-1.635-.424-2.187-1.032-.553-.607-.829-1.382-.829-2.326v-.197c0-.69.134-1.306.4-1.85a2.935 2.935 0 0 1 1.133-1.257c.489-.294 1.047-.441 1.673-.441.94 0 1.679.296 2.218.889.54.592.81 1.432.81 2.52v.749h-4.374c.06.448.238.808.537 1.079.298.27.676.406 1.133.406.706 0 1.259-.256 1.656-.768l.902 1.01zm-2.889-4.399c-.363 0-.659.123-.885.368-.226.246-.371.597-.435 1.054h2.552v-.146c-.009-.406-.119-.72-.33-.943-.212-.222-.512-.333-.902-.333z" id="c"/></defs><g transform="translate(1 2)" fill="none" fill-rule="evenodd"><path stroke="#C2C2C2" stroke-width="2.43" fill="#F1F1F2" d="M.899.197h295.595v192.606H.899z"/><path d="M3.595 53.387h291.38M3.595 73.467h291.38M3.595 133.74h291.38" stroke="#DEDEDD" stroke-width="1.215"/><path d="M3.595 153.82h291.38" stroke="#293052" stroke-width="1.215" stroke-linejoin="round" stroke-dasharray="3.608"/><path d="M3.595 173.898h291.38M38.797 33.308V191.59M75.671 33.308V191.59m36.873-158.282V191.59M149.38 33.308V191.59m36.873-158.282V191.59m36.874-158.282V191.59M260 33.308V191.59M3.595 113.662h291.38M3.595 93.582h291.38" stroke="#DEDEDD" stroke-width="1.215"/><path d="M1.506 32.096h295.595" stroke="#C2C2C2" stroke-width="2.43" fill="#F1F1F2"/><path stroke="#293052" stroke-width="3.608" stroke-linecap="round" stroke-linejoin="round" d="M223.43 153.82l-32.164-68.61-42.57 31.369-43.215-29.891-29.81 26.974-36.874-30.687"/><path d="M187.937 144.07h-35.165l-5.544-8.07-5.317 8.07h-35.164a4.741 4.741 0 0 0-4.747 4.735v24.511a4.741 4.741 0 0 0 4.747 4.736h81.19a4.753 4.753 0 0 0 3.43-1.346 4.73 4.73 0 0 0 1.43-3.39v-24.473a4.73 4.73 0 0 0-1.416-3.414 4.753 4.753 0 0 0-3.444-1.36z" fill="#E88024"/><ellipse cx="8.468" cy="8.858" rx="8.165" ry="8.373" opacity=".6" transform="translate(214.658 144.962)" fill="#FFF"/><ellipse stroke="#E88024" stroke-width="2.43" cx="223.127" cy="153.819" rx="8.165" ry="8.373"/><path fill="#E88024" d="M246.101 144.424h28.671v18.79h-28.67z"/><path fill="#E88024" d="M249.595 153.82l-3.342 3.333-5.202-3.334 5.202-3.333z"/><path d="M257.456 152.683h1.367c.463.033.92-.132 1.253-.455.294-.348.444-.795.418-1.25a1.627 1.627 0 0 0-.418-1.174 1.598 1.598 0 0 0-1.215-.266 1.673 1.673 0 0 0-1.14.38c-.3.253-.467.63-.455 1.022h-2.355a2.725 2.725 0 0 1 1.064-2.31 4.298 4.298 0 0 1 2.81-.91 4.64 4.64 0 0 1 2.962.871 3.065 3.065 0 0 1 1.101 2.539 2.534 2.534 0 0 1-.494 1.477 3.34 3.34 0 0 1-1.367 1.099c.61.197 1.142.581 1.52 1.098.353.498.54 1.095.531 1.705a3.104 3.104 0 0 1-1.215 2.576 4.83 4.83 0 0 1-3.076.947 4.717 4.717 0 0 1-2.886-.87 2.8 2.8 0 0 1-1.14-2.501h2.507c-.01.432.17.848.494 1.136.345.304.792.467 1.253.455.486.032.964-.132 1.329-.455.333-.329.512-.783.493-1.25a1.816 1.816 0 0 0-.455-1.402 1.978 1.978 0 0 0-1.405-.454h-1.481v-2.008z" fill="#FFF"/><use fill="#000" xlink:href="#a"/><use fill="#2A3052" xlink:href="#a"/><use fill="#000" xlink:href="#b"/><use fill="#FFF" xlink:href="#b"/><g fill="#000"><use xlink:href="#c"/><use xlink:href="#c"/></g></g></svg>