<?xml version="1.0" encoding="UTF-8"?>
<svg width="299px" height="197px" viewBox="0 0 299 197" version="1.1" xmlns="http://www.w3.org/2000/svg" xmlns:xlink="http://www.w3.org/1999/xlink">
    <!-- Generator: Sketch 52.3 (67297) - http://www.bohemiancoding.com/sketch -->
    <title>POLISH Matches</title>
    <desc>Created with Sketch.</desc>
    <defs>
        <path d="M110.419922,17.6601562 L110.419922,21 L109.294922,21 L109.294922,12.46875 L112.441407,12.46875 C113.375005,12.46875 114.106443,12.7070289 114.635743,13.1835938 C115.165042,13.6601586 115.429688,14.2910117 115.429688,15.0761719 C115.429688,15.904301 115.170902,16.54199 114.653321,16.9892578 C114.13574,17.4365257 113.394537,17.6601562 112.429688,17.6601562 L110.419922,17.6601562 Z M110.419922,16.7402344 L112.441407,16.7402344 C113.042972,16.7402344 113.503905,16.5986342 113.824219,16.3154297 C114.144533,16.0322251 114.304688,15.6230496 114.304688,15.0878906 C114.304688,14.5800756 114.144533,14.1738296 113.824219,13.8691406 C113.503905,13.5644516 113.064456,13.4062501 112.50586,13.3945312 L110.419922,13.3945312 L110.419922,16.7402344 Z M119.759766,15.6328125 C119.595703,15.6054686 119.41797,15.5917969 119.226563,15.5917969 C118.515622,15.5917969 118.033205,15.8945282 117.779297,16.5 L117.779297,21 L116.695313,21 L116.695313,14.6601562 L117.75,14.6601562 L117.767579,15.3925781 C118.123049,14.826169 118.62695,14.5429688 119.279297,14.5429688 C119.490236,14.5429688 119.650391,14.5703122 119.759766,14.625 L119.759766,15.6328125 Z M121.775391,20.1152344 L125.484375,20.1152344 L125.484375,21 L120.451172,21 L120.451172,20.203125 L123.949219,15.5566406 L120.503907,15.5566406 L120.503907,14.6601562 L125.308594,14.6601562 L125.308594,15.4277344 L121.775391,20.1152344 Z M129.240235,21.1171875 C128.380856,21.1171875 127.681644,20.8349638 127.142579,20.2705078 C126.603513,19.7060519 126.333985,18.9511766 126.333985,18.0058594 L126.333985,17.8066406 C126.333985,17.1777312 126.454101,16.6162134 126.694336,16.1220703 C126.934572,15.6279272 127.270506,15.2412123 127.702149,14.9619141 C128.133792,14.6826158 128.60156,14.5429688 129.105469,14.5429688 C129.929692,14.5429688 130.570311,14.8144504 131.027344,15.3574219 C131.484378,15.9003933 131.712891,16.6777293 131.712891,17.6894531 L131.712891,18.140625 L127.417969,18.140625 C127.433594,18.7656281 127.61621,19.2705059 127.965821,19.6552734 C128.315432,20.040041 128.759763,20.2324219 129.298829,20.2324219 C129.681643,20.2324219 130.005859,20.1542977 130.271485,19.9980469 C130.537111,19.8417961 130.769531,19.6347669 130.96875,19.3769531 L131.63086,19.8925781 C131.099607,20.7089885 130.30274,21.1171875 129.240235,21.1171875 Z M129.105469,15.4335938 C128.667967,15.4335938 128.300783,15.5927718 128.003907,15.9111328 C127.70703,16.2294938 127.523438,16.6757784 127.453125,17.25 L130.628907,17.25 L130.628907,17.1679688 C130.597657,16.6171847 130.449221,16.1904312 130.183594,15.8876953 C129.917968,15.5849594 129.558597,15.4335938 129.105469,15.4335938 Z M138.580079,19.5058594 L139.798829,14.6601562 L140.882813,14.6601562 L139.03711,21 L138.158204,21 L136.617188,16.1953125 L135.117188,21 L134.238282,21 L132.398438,14.6601562 L133.476563,14.6601562 L134.72461,19.40625 L136.201172,14.6601562 L137.074219,14.6601562 L138.580079,19.5058594 Z M143.16211,21 L142.078125,21 L142.078125,14.6601562 L143.16211,14.6601562 L143.16211,21 Z M141.990235,12.9785156 C141.990235,12.8027335 142.043945,12.6542975 142.151368,12.5332031 C142.25879,12.4121088 142.417968,12.3515625 142.628907,12.3515625 C142.839845,12.3515625 143,12.4121088 143.109375,12.5332031 C143.218751,12.6542975 143.273438,12.8027335 143.273438,12.9785156 C143.273438,13.1542978 143.218751,13.3007807 143.109375,13.4179688 C143,13.5351568 142.839845,13.59375 142.628907,13.59375 C142.417968,13.59375 142.25879,13.5351568 142.151368,13.4179688 C142.043945,13.3007807 141.990235,13.1542978 141.990235,12.9785156 Z M144.632813,17.7773438 C144.632813,16.8046826 144.863279,16.0224639 145.324219,15.4306641 C145.785159,14.8388642 146.388669,14.5429688 147.134766,14.5429688 C147.876957,14.5429688 148.464842,14.7968725 148.898438,15.3046875 L148.898438,12 L149.982422,12 L149.982422,21 L148.986329,21 L148.933594,20.3203125 C148.499998,20.8515652 147.896489,21.1171875 147.123047,21.1171875 C146.388669,21.1171875 145.790042,20.8164093 145.327149,20.2148438 C144.864256,19.6132782 144.632813,18.8281298 144.632813,17.859375 L144.632813,17.7773438 Z M145.716797,17.9003906 C145.716797,18.6191442 145.865233,19.1816386 146.16211,19.5878906 C146.458986,19.9941427 146.869139,20.1972656 147.392579,20.1972656 C148.080082,20.1972656 148.58203,19.888675 148.898438,19.2714844 L148.898438,16.359375 C148.574218,15.7617158 148.076176,15.4628906 147.404297,15.4628906 C146.873045,15.4628906 146.458986,15.6679667 146.16211,16.078125 C145.865233,16.4882833 145.716797,17.0956991 145.716797,17.9003906 Z M153.738282,19.4121094 L155.214844,14.6601562 L156.375,14.6601562 L153.826172,21.9785156 C153.431639,23.0332084 152.804692,23.5605469 151.945313,23.5605469 L151.740235,23.5429688 L151.335938,23.4667969 L151.335938,22.5878906 L151.628907,22.6113281 C151.996096,22.6113281 152.282226,22.5371101 152.487305,22.3886719 C152.692384,22.2402336 152.861328,21.968752 152.994141,21.5742188 L153.234375,20.9296875 L150.972657,14.6601562 L152.15625,14.6601562 L153.738282,19.4121094 Z M162.955079,19.5058594 L164.173829,14.6601562 L165.257813,14.6601562 L163.41211,21 L162.533204,21 L160.992188,16.1953125 L159.492188,21 L158.613282,21 L156.773438,14.6601562 L157.851563,14.6601562 L159.09961,19.40625 L160.576172,14.6601562 L161.449219,14.6601562 L162.955079,19.5058594 Z M170.273438,21 C170.210938,20.8749994 170.160157,20.6523454 170.121094,20.3320312 C169.617185,20.8554714 169.015629,21.1171875 168.316407,21.1171875 C167.691404,21.1171875 167.178713,20.9404315 166.778321,20.5869141 C166.377928,20.2333967 166.177735,19.785159 166.177735,19.2421875 C166.177735,18.5820279 166.428709,18.0693378 166.930665,17.7041016 C167.43262,17.3388654 168.138668,17.15625 169.048829,17.15625 L170.103516,17.15625 L170.103516,16.6582031 C170.103516,16.279295 169.990236,15.9775402 169.763672,15.7529297 C169.537109,15.5283192 169.203128,15.4160156 168.761719,15.4160156 C168.374999,15.4160156 168.050783,15.5136709 167.789063,15.7089844 C167.527343,15.9042979 167.396485,16.1406236 167.396485,16.4179688 L166.306641,16.4179688 C166.306641,16.1015609 166.418945,15.7958999 166.643555,15.5009766 C166.868166,15.2060532 167.17285,14.9726571 167.557618,14.8007812 C167.942385,14.6289054 168.365233,14.5429688 168.826172,14.5429688 C169.556645,14.5429688 170.128905,14.7255841 170.542969,15.0908203 C170.957034,15.4560565 171.171875,15.9589812 171.1875,16.5996094 L171.1875,19.5175781 C171.1875,20.0996123 171.261719,20.5624983 171.410157,20.90625 L171.410157,21 L170.273438,21 Z M168.47461,20.1738281 C168.814455,20.1738281 169.136718,20.0859384 169.441407,19.9101562 C169.746096,19.7343741 169.966797,19.5058608 170.103516,19.2246094 L170.103516,17.9238281 L169.253907,17.9238281 C167.925775,17.9238281 167.261719,18.3124961 167.261719,19.0898438 C167.261719,19.4296892 167.374999,19.6953115 167.601563,19.8867188 C167.828127,20.078126 168.119139,20.1738281 168.47461,20.1738281 Z M173.91211,14.6601562 L173.947266,15.4570312 C174.431644,14.8476532 175.06445,14.5429688 175.845704,14.5429688 C177.185554,14.5429688 177.861329,15.2988206 177.873047,16.8105469 L177.873047,21 L176.789063,21 L176.789063,16.8046875 C176.785157,16.347654 176.680666,16.0097667 176.475586,15.7910156 C176.270507,15.5722645 175.951175,15.4628906 175.517579,15.4628906 C175.166014,15.4628906 174.857424,15.5566397 174.591797,15.7441406 C174.326171,15.9316416 174.119142,16.1777329 173.970704,16.4824219 L173.970704,21 L172.886719,21 L172.886719,14.6601562 L173.91211,14.6601562 Z M180.685547,21 L179.601563,21 L179.601563,14.6601562 L180.685547,14.6601562 L180.685547,21 Z M179.513672,12.9785156 C179.513672,12.8027335 179.567383,12.6542975 179.674805,12.5332031 C179.782228,12.4121088 179.941406,12.3515625 180.152344,12.3515625 C180.363283,12.3515625 180.523437,12.4121088 180.632813,12.5332031 C180.742189,12.6542975 180.796875,12.8027335 180.796875,12.9785156 C180.796875,13.1542978 180.742189,13.3007807 180.632813,13.4179688 C180.523437,13.5351568 180.363283,13.59375 180.152344,13.59375 C179.941406,13.59375 179.782228,13.5351568 179.674805,13.4179688 C179.567383,13.3007807 179.513672,13.1542978 179.513672,12.9785156 Z M185.050782,21.1171875 C184.191402,21.1171875 183.492191,20.8349638 182.953125,20.2705078 C182.41406,19.7060519 182.144532,18.9511766 182.144532,18.0058594 L182.144532,17.8066406 C182.144532,17.1777312 182.264648,16.6162134 182.504883,16.1220703 C182.745119,15.6279272 183.081053,15.2412123 183.512696,14.9619141 C183.944339,14.6826158 184.412107,14.5429688 184.916016,14.5429688 C185.740239,14.5429688 186.380858,14.8144504 186.837891,15.3574219 C187.294925,15.9003933 187.523438,16.6777293 187.523438,17.6894531 L187.523438,18.140625 L183.228516,18.140625 C183.244141,18.7656281 183.426757,19.2705059 183.776368,19.6552734 C184.125979,20.040041 184.57031,20.2324219 185.109375,20.2324219 C185.49219,20.2324219 185.816405,20.1542977 186.082032,19.9980469 C186.347658,19.8417961 186.580078,19.6347669 186.779297,19.3769531 L187.441407,19.8925781 C186.910154,20.7089885 186.113287,21.1171875 185.050782,21.1171875 Z M184.916016,15.4335938 C184.478514,15.4335938 184.11133,15.5927718 183.814454,15.9111328 C183.517577,16.2294938 183.333985,16.6757784 183.263672,17.25 L186.439454,17.25 L186.439454,17.1679688 C186.408203,16.6171847 186.259767,16.1904312 185.994141,15.8876953 C185.728515,15.5849594 185.369143,15.4335938 184.916016,15.4335938 Z M191.460938,17.7714844 C191.460938,17.1503875 191.583007,16.5917994 191.827149,16.0957031 C192.071291,15.5996069 192.411131,15.2167982 192.84668,14.9472656 C193.282229,14.677733 193.779295,14.5429688 194.337891,14.5429688 C195.201177,14.5429688 195.899412,14.8417939 196.432618,15.4394531 C196.965823,16.0371124 197.232422,16.8320263 197.232422,17.8242188 L197.232422,17.9003906 C197.232422,18.5175812 197.114259,19.0712866 196.87793,19.5615234 C196.641601,20.0517603 196.303714,20.4335924 195.864258,20.7070312 C195.424803,20.9804701 194.919925,21.1171875 194.34961,21.1171875 C193.490231,21.1171875 192.793948,20.8183624 192.260743,20.2207031 C191.727537,19.6230439 191.460938,18.8320362 191.460938,17.8476562 L191.460938,17.7714844 Z M192.550782,17.9003906 C192.550782,18.6035191 192.713866,19.1679666 193.04004,19.59375 C193.366213,20.0195334 193.802732,20.2324219 194.34961,20.2324219 C194.900394,20.2324219 195.33789,20.0166037 195.66211,19.5849609 C195.98633,19.1533182 196.148438,18.548832 196.148438,17.7714844 C196.148438,17.0761684 195.983401,16.5126975 195.653321,16.0810547 C195.323241,15.6494119 194.884769,15.4335938 194.337891,15.4335938 C193.802732,15.4335938 193.371096,15.6464822 193.042969,16.0722656 C192.714843,16.498049 192.550782,17.1074179 192.550782,17.9003906 Z M202.283204,19.3183594 C202.283204,19.0253892 202.172853,18.7978524 201.952149,18.6357422 C201.731445,18.473632 201.346683,18.333985 200.797852,18.2167969 C200.249021,18.0996088 199.813479,17.9589852 199.491211,17.7949219 C199.168944,17.6308586 198.930665,17.435548 198.776368,17.2089844 C198.62207,16.9824207 198.544922,16.7128922 198.544922,16.4003906 C198.544922,15.8808568 198.764647,15.441408 199.204102,15.0820312 C199.643557,14.7226545 200.205075,14.5429688 200.888672,14.5429688 C201.607426,14.5429688 202.190428,14.7285138 202.637696,15.0996094 C203.084964,15.470705 203.308594,15.9453096 203.308594,16.5234375 L202.21875,16.5234375 C202.21875,16.226561 202.092775,15.9707042 201.840821,15.7558594 C201.588866,15.5410146 201.271487,15.4335938 200.888672,15.4335938 C200.494139,15.4335938 200.185548,15.5195304 199.962891,15.6914062 C199.740234,15.8632821 199.628907,16.0878892 199.628907,16.3652344 C199.628907,16.6269544 199.732421,16.8242181 199.939454,16.9570312 C200.146486,17.0898444 200.520506,17.2167963 201.061524,17.3378906 C201.602542,17.458985 202.041014,17.6035148 202.376954,17.7714844 C202.712893,17.939454 202.961914,18.1416004 203.124024,18.3779297 C203.286134,18.614259 203.367188,18.9023421 203.367188,19.2421875 C203.367188,19.8085966 203.140628,20.2626936 202.6875,20.6044922 C202.234373,20.9462908 201.646488,21.1171875 200.923829,21.1171875 C200.416014,21.1171875 199.966799,21.0273446 199.576172,20.8476562 C199.185545,20.6679679 198.879884,20.4169938 198.65918,20.0947266 C198.438476,19.7724593 198.328125,19.42383 198.328125,19.0488281 L199.41211,19.0488281 C199.431641,19.4121112 199.577148,19.7001942 199.848633,19.9130859 C200.120119,20.1259776 200.478514,20.2324219 200.923829,20.2324219 C201.333987,20.2324219 201.663085,20.1494149 201.911133,19.9833984 C202.159181,19.817382 202.283204,19.5957045 202.283204,19.3183594 Z M206.25,13.125 L206.25,14.6601562 L207.433594,14.6601562 L207.433594,15.4980469 L206.25,15.4980469 L206.25,19.4296875 C206.25,19.683595 206.302734,19.8740228 206.408204,20.0009766 C206.513673,20.1279303 206.693359,20.1914062 206.947266,20.1914062 C207.072267,20.1914062 207.24414,20.167969 207.462891,20.1210938 L207.462891,21 C207.177733,21.0781254 206.900392,21.1171875 206.63086,21.1171875 C206.146482,21.1171875 205.781252,20.9707046 205.535157,20.6777344 C205.289062,20.3847642 205.166016,19.9687527 205.166016,19.4296875 L205.166016,15.4980469 L204.011719,15.4980469 L204.011719,14.6601562 L205.166016,14.6601562 L205.166016,13.125 L206.25,13.125 Z M212.613282,21 C212.550781,20.8749994 212.500001,20.6523454 212.460938,20.3320312 C211.957029,20.8554714 211.355473,21.1171875 210.65625,21.1171875 C210.031247,21.1171875 209.518557,20.9404315 209.118165,20.5869141 C208.717772,20.2333967 208.517579,19.785159 208.517579,19.2421875 C208.517579,18.5820279 208.768553,18.0693378 209.270508,17.7041016 C209.772464,17.3388654 210.478512,17.15625 211.388672,17.15625 L212.44336,17.15625 L212.44336,16.6582031 C212.44336,16.279295 212.33008,15.9775402 212.103516,15.7529297 C211.876952,15.5283192 211.542971,15.4160156 211.101563,15.4160156 C210.714842,15.4160156 210.390627,15.5136709 210.128907,15.7089844 C209.867187,15.9042979 209.736329,16.1406236 209.736329,16.4179688 L208.646485,16.4179688 C208.646485,16.1015609 208.758788,15.7958999 208.983399,15.5009766 C209.208009,15.2060532 209.512694,14.9726571 209.897461,14.8007812 C210.282229,14.6289054 210.705076,14.5429688 211.166016,14.5429688 C211.896489,14.5429688 212.468748,14.7255841 212.882813,15.0908203 C213.296878,15.4560565 213.511719,15.9589812 213.527344,16.5996094 L213.527344,19.5175781 C213.527344,20.0996123 213.601562,20.5624983 213.75,20.90625 L213.75,21 L212.613282,21 Z M210.814454,20.1738281 C211.154299,20.1738281 211.476561,20.0859384 211.78125,19.9101562 C212.08594,19.7343741 212.30664,19.5058608 212.44336,19.2246094 L212.44336,17.9238281 L211.59375,17.9238281 C210.265619,17.9238281 209.601563,18.3124961 209.601563,19.0898438 C209.601563,19.4296892 209.714843,19.6953115 209.941407,19.8867188 C210.16797,20.078126 210.458983,20.1738281 210.814454,20.1738281 Z M216.697266,13.125 L216.697266,14.6601562 L217.88086,14.6601562 L217.88086,15.4980469 L216.697266,15.4980469 L216.697266,19.4296875 C216.697266,19.683595 216.75,19.8740228 216.855469,20.0009766 C216.960939,20.1279303 217.140624,20.1914062 217.394532,20.1914062 C217.519532,20.1914062 217.691406,20.167969 217.910157,20.1210938 L217.910157,21 C217.624999,21.0781254 217.347658,21.1171875 217.078125,21.1171875 C216.593748,21.1171875 216.228517,20.9707046 215.982422,20.6777344 C215.736327,20.3847642 215.613282,19.9687527 215.613282,19.4296875 L215.613282,15.4980469 L214.458985,15.4980469 L214.458985,14.6601562 L215.613282,14.6601562 L215.613282,13.125 L216.697266,13.125 Z M220.171875,14.6601562 L220.207032,15.4570312 C220.691409,14.8476532 221.324215,14.5429688 222.105469,14.5429688 C223.44532,14.5429688 224.121094,15.2988206 224.132813,16.8105469 L224.132813,21 L223.048829,21 L223.048829,16.8046875 C223.044922,16.347654 222.940431,16.0097667 222.735352,15.7910156 C222.530273,15.5722645 222.21094,15.4628906 221.777344,15.4628906 C221.42578,15.4628906 221.117189,15.5566397 220.851563,15.7441406 C220.585937,15.9316416 220.378907,16.1777329 220.230469,16.4824219 L220.230469,21 L219.146485,21 L219.146485,14.6601562 L220.171875,14.6601562 Z M226.945313,21 L225.861329,21 L225.861329,14.6601562 L226.945313,14.6601562 L226.945313,21 Z M225.773438,12.9785156 C225.773438,12.8027335 225.827148,12.6542975 225.934571,12.5332031 C226.041993,12.4121088 226.201171,12.3515625 226.41211,12.3515625 C226.623048,12.3515625 226.783203,12.4121088 226.892579,12.5332031 C227.001954,12.6542975 227.056641,12.8027335 227.056641,12.9785156 C227.056641,13.1542978 227.001954,13.3007807 226.892579,13.4179688 C226.783203,13.5351568 226.623048,13.59375 226.41211,13.59375 C226.201171,13.59375 226.041993,13.5351568 225.934571,13.4179688 C225.827148,13.3007807 225.773438,13.1542978 225.773438,12.9785156 Z M231.310547,21.1171875 C230.451168,21.1171875 229.751956,20.8349638 229.212891,20.2705078 C228.673826,19.7060519 228.404297,18.9511766 228.404297,18.0058594 L228.404297,17.8066406 C228.404297,17.1777312 228.524413,16.6162134 228.764649,16.1220703 C229.004885,15.6279272 229.340819,15.2412123 229.772461,14.9619141 C230.204104,14.6826158 230.671873,14.5429688 231.175782,14.5429688 C232.000005,14.5429688 232.640623,14.8144504 233.097657,15.3574219 C233.55469,15.9003933 233.783204,16.6777293 233.783204,17.6894531 L233.783204,18.140625 L229.488282,18.140625 C229.503907,18.7656281 229.686522,19.2705059 230.036133,19.6552734 C230.385744,20.040041 230.830076,20.2324219 231.369141,20.2324219 C231.751956,20.2324219 232.076171,20.1542977 232.341797,19.9980469 C232.607424,19.8417961 232.839843,19.6347669 233.039063,19.3769531 L233.701172,19.8925781 C233.16992,20.7089885 232.373053,21.1171875 231.310547,21.1171875 Z M231.175782,15.4335938 C230.73828,15.4335938 230.371096,15.5927718 230.074219,15.9111328 C229.777343,16.2294938 229.593751,16.6757784 229.523438,17.25 L232.699219,17.25 L232.699219,17.1679688 C232.667969,16.6171847 232.519533,16.1904312 232.253907,15.8876953 C231.98828,15.5849594 231.628909,15.4335938 231.175782,15.4335938 Z M236.15625,14.6601562 L236.15625,21.7324219 C236.15625,22.951178 235.603522,23.5605469 234.498047,23.5605469 C234.259765,23.5605469 234.039064,23.525391 233.835938,23.4550781 L233.835938,22.5878906 C233.960939,22.6191408 234.124999,22.6347656 234.328125,22.6347656 C234.570314,22.6347656 234.754883,22.5693366 234.881836,22.4384766 C235.00879,22.3076165 235.072266,22.0800797 235.072266,21.7558594 L235.072266,14.6601562 L236.15625,14.6601562 Z M234.960938,12.9785156 C234.960938,12.8066398 235.014648,12.6591803 235.122071,12.5361328 C235.229493,12.4130853 235.386718,12.3515625 235.59375,12.3515625 C235.804689,12.3515625 235.964844,12.4121088 236.074219,12.5332031 C236.183595,12.6542975 236.238282,12.8027335 236.238282,12.9785156 C236.238282,13.1542978 236.183595,13.3007807 236.074219,13.4179688 C235.964844,13.5351568 235.804689,13.59375 235.59375,13.59375 C235.382812,13.59375 235.22461,13.5351568 235.119141,13.4179688 C235.013672,13.3007807 234.960938,13.1542978 234.960938,12.9785156 Z M243.416016,20.2324219 C243.802737,20.2324219 244.140624,20.1152355 244.429688,19.8808594 C244.718752,19.6464832 244.878907,19.3535174 244.910157,19.0019531 L245.935547,19.0019531 C245.916016,19.3652362 245.791017,19.7109359 245.560547,20.0390625 C245.330077,20.3671891 245.022463,20.6289053 244.637696,20.8242188 C244.252928,21.0195322 243.845706,21.1171875 243.416016,21.1171875 C242.552731,21.1171875 241.866214,20.8291044 241.356446,20.2529297 C240.846678,19.6767549 240.591797,18.8886769 240.591797,17.8886719 L240.591797,17.7070312 C240.591797,17.0898407 240.705077,16.541018 240.931641,16.0605469 C241.158205,15.5800757 241.483397,15.2070326 241.907227,14.9414062 C242.331057,14.6757799 242.832029,14.5429688 243.410157,14.5429688 C244.121098,14.5429688 244.711912,14.7558572 245.182618,15.1816406 C245.653323,15.607424 245.904297,16.1601529 245.935547,16.8398438 L244.910157,16.8398438 C244.878907,16.4296854 244.723635,16.0927748 244.444336,15.8291016 C244.165038,15.5654284 243.820315,15.4335938 243.410157,15.4335938 C242.859373,15.4335938 242.432619,15.631834 242.129883,16.0283203 C241.827147,16.4248067 241.675782,16.9980431 241.675782,17.7480469 L241.675782,17.953125 C241.675782,18.6835974 241.826171,19.2460918 242.126954,19.640625 C242.427736,20.0351582 242.85742,20.2324219 243.416016,20.2324219 Z M249.228516,19.4121094 L250.705079,14.6601562 L251.865235,14.6601562 L249.316407,21.9785156 C248.921874,23.0332084 248.294927,23.5605469 247.435547,23.5605469 L247.230469,23.5429688 L246.826172,23.4667969 L246.826172,22.5878906 L247.119141,22.6113281 C247.48633,22.6113281 247.77246,22.5371101 247.97754,22.3886719 C248.182619,22.2402336 248.351562,21.968752 248.484375,21.5742188 L248.72461,20.9296875 L246.462891,14.6601562 L247.646485,14.6601562 L249.228516,19.4121094 Z M253.441407,21 L253.441407,15.4980469 L252.439454,15.4980469 L252.439454,14.6601562 L253.441407,14.6601562 L253.441407,14.0097656 C253.441407,13.3300747 253.623046,12.8046894 253.986329,12.4335938 C254.349612,12.0624981 254.863278,11.8769531 255.527344,11.8769531 C255.777345,11.8769531 256.02539,11.9101559 256.271485,11.9765625 L256.212891,12.8554688 C256.029296,12.8203123 255.833986,12.8027344 255.626954,12.8027344 C255.275389,12.8027344 255.003908,12.9052724 254.8125,13.1103516 C254.621093,13.3154307 254.525391,13.6093731 254.525391,13.9921875 L254.525391,14.6601562 L255.878907,14.6601562 L255.878907,15.4980469 L254.525391,15.4980469 L254.525391,21 L253.441407,21 Z M260.138672,15.6328125 C259.974609,15.6054686 259.796876,15.5917969 259.605469,15.5917969 C258.894528,15.5917969 258.412111,15.8945282 258.158204,16.5 L258.158204,21 L257.074219,21 L257.074219,14.6601562 L258.128907,14.6601562 L258.146485,15.3925781 C258.501955,14.826169 259.005857,14.5429688 259.658204,14.5429688 C259.869142,14.5429688 260.029297,14.5703122 260.138672,14.625 L260.138672,15.6328125 Z M263.314454,19.4121094 L264.791016,14.6601562 L265.951172,14.6601562 L263.402344,21.9785156 C263.007811,23.0332084 262.380864,23.5605469 261.521485,23.5605469 L261.316407,23.5429688 L260.91211,23.4667969 L260.91211,22.5878906 L261.205079,22.6113281 C261.572268,22.6113281 261.858398,22.5371101 262.063477,22.3886719 C262.268556,22.2402336 262.4375,21.968752 262.570313,21.5742188 L262.810547,20.9296875 L260.548829,14.6601562 L261.732422,14.6601562 L263.314454,19.4121094 Z M271.353516,16.2070312 L272.167969,16.2070312 C272.679691,16.1992187 273.08203,16.0644544 273.375,15.8027344 C273.667971,15.5410143 273.814454,15.1875022 273.814454,14.7421875 C273.814454,13.7421825 273.316412,13.2421875 272.320313,13.2421875 C271.851561,13.2421875 271.477541,13.3759752 271.198243,13.6435547 C270.918944,13.9111342 270.779297,14.2656228 270.779297,14.7070312 L269.695313,14.7070312 C269.695313,14.0312466 269.942381,13.4697288 270.436524,13.0224609 C270.930667,12.5751931 271.55859,12.3515625 272.320313,12.3515625 C273.125005,12.3515625 273.755858,12.564451 274.212891,12.9902344 C274.669925,13.4160178 274.898438,14.0078087 274.898438,14.765625 C274.898438,15.1367206 274.778322,15.496092 274.538086,15.84375 C274.297851,16.191408 273.970706,16.451171 273.556641,16.6230469 C274.025393,16.7714851 274.387695,17.0175764 274.643555,17.3613281 C274.899416,17.7050798 275.027344,18.1249975 275.027344,18.6210938 C275.027344,19.3867226 274.777347,19.9941384 274.277344,20.4433594 C273.777342,20.8925804 273.126958,21.1171875 272.326172,21.1171875 C271.525387,21.1171875 270.874026,20.9003928 270.372071,20.4667969 C269.870115,20.033201 269.619141,19.4609411 269.619141,18.75 L270.708985,18.75 C270.708985,19.199221 270.855468,19.5585924 271.148438,19.828125 C271.441408,20.0976576 271.833982,20.2324219 272.326172,20.2324219 C272.849612,20.2324219 273.249999,20.0957045 273.527344,19.8222656 C273.804689,19.5488268 273.94336,19.1562526 273.94336,18.6445312 C273.94336,18.148435 273.791018,17.7675795 273.486329,17.5019531 C273.18164,17.2363268 272.742191,17.0996094 272.167969,17.0917969 L271.353516,17.0917969 L271.353516,16.2070312 Z" id="path-1"></path>
        <path d="M119.505371,164.103516 L121.323731,154.492188 L124.097657,154.492188 L121.101075,168 L118.299317,168 L116.100586,158.963867 L113.901856,168 L111.100098,168 L108.103516,154.492188 L110.877442,154.492188 L112.705079,164.084961 L114.931641,154.492188 L117.288086,154.492188 L119.505371,164.103516 Z M129.172364,164.205566 L131.027832,157.961914 L133.903809,157.961914 L129.868164,169.558594 L129.645508,170.087402 C129.04557,171.398607 128.055997,172.054199 126.676758,172.054199 C126.287108,172.054199 125.891278,171.995443 125.489258,171.87793 L125.489258,169.846191 L125.897461,169.855469 C126.404625,169.855469 126.783446,169.778158 127.033936,169.623535 C127.284425,169.468912 127.480794,169.212241 127.623047,168.853516 L127.938477,168.027832 L124.422364,157.961914 L127.307618,157.961914 L129.172364,164.205566 Z M134.451172,162.906738 C134.451172,161.366692 134.817624,160.126632 135.550538,159.186523 C136.283451,158.246415 137.271479,157.776367 138.514649,157.776367 C139.615566,157.776367 140.472165,158.153642 141.084473,158.908203 L141.195801,157.961914 L143.626465,157.961914 L143.626465,167.666016 C143.626465,168.544275 143.427004,169.308102 143.028077,169.95752 C142.629149,170.606937 142.067875,171.101724 141.344239,171.441895 C140.620602,171.782066 139.77328,171.952148 138.802246,171.952148 C138.06624,171.952148 137.348799,171.805259 136.649903,171.511475 C135.951006,171.217691 135.422203,170.83887 135.063477,170.375 L136.250977,168.742188 C136.918949,169.490564 137.729162,169.864746 138.681641,169.864746 C139.392908,169.864746 139.94645,169.674562 140.342286,169.294189 C140.738121,168.913816 140.936036,168.37419 140.936036,167.675293 L140.936036,167.137207 C140.317543,167.836104 139.504237,168.185547 138.496094,168.185547 C137.290033,168.185547 136.314376,167.713953 135.569092,166.770752 C134.823809,165.827551 134.451172,164.576668 134.451172,163.018066 L134.451172,162.906738 Z M137.132325,163.101562 C137.132325,164.010747 137.314777,164.723549 137.679688,165.23999 C138.044599,165.756432 138.54557,166.014648 139.182618,166.014648 C139.999028,166.014648 140.583495,165.708499 140.936036,165.096191 L140.936036,160.875 C140.57731,160.262692 139.999028,159.956543 139.201172,159.956543 C138.55794,159.956543 138.05233,160.219398 137.684327,160.745117 C137.316323,161.270836 137.132325,162.05631 137.132325,163.101562 Z M151.326661,160.476074 C150.96175,160.426595 150.640139,160.401855 150.361817,160.401855 C149.347489,160.401855 148.682619,160.745114 148.367188,161.431641 L148.367188,168 L145.686036,168 L145.686036,157.961914 L148.21875,157.961914 L148.292969,159.158691 C148.831058,158.237137 149.57633,157.776367 150.528809,157.776367 C150.825685,157.776367 151.104003,157.816569 151.36377,157.896973 L151.326661,160.476074 Z M158.154786,168 C158.031087,167.758788 157.941407,167.458823 157.885743,167.100098 C157.236325,167.823734 156.392095,168.185547 155.353028,168.185547 C154.369624,168.185547 153.554773,167.901045 152.908448,167.332031 C152.262123,166.763018 151.938965,166.045577 151.938965,165.179688 C151.938965,164.11588 152.333248,163.299482 153.121827,162.730469 C153.910405,162.161455 155.04996,161.873861 156.540528,161.867676 L157.774414,161.867676 L157.774414,161.29248 C157.774414,160.828611 157.655356,160.457521 157.417237,160.179199 C157.179117,159.900878 156.803388,159.761719 156.290039,159.761719 C155.83854,159.761719 155.484458,159.869953 155.227784,160.086426 C154.971109,160.302898 154.842774,160.59977 154.842774,160.977051 L152.161621,160.977051 C152.161621,160.395668 152.340982,159.857587 152.699707,159.362793 C153.058433,158.867999 153.56559,158.4799 154.221192,158.198486 C154.876794,157.917072 155.612789,157.776367 156.4292,157.776367 C157.666185,157.776367 158.648027,158.087155 159.374756,158.70874 C160.101485,159.330325 160.464844,160.203933 160.464844,161.32959 L160.464844,165.680664 C160.471029,166.633143 160.604003,167.353676 160.86377,167.842285 L160.86377,168 L158.154786,168 Z M155.9375,166.135254 C156.333336,166.135254 156.698241,166.04712 157.032227,165.87085 C157.366213,165.694579 157.613606,165.458009 157.774414,165.161133 L157.774414,163.435547 L156.772461,163.435547 C155.430332,163.435547 154.715984,163.899409 154.629395,164.827148 L154.620118,164.984863 C154.620118,165.318849 154.737629,165.594074 154.972657,165.810547 C155.207684,166.027019 155.529295,166.135254 155.9375,166.135254 Z M164.992188,157.961914 L165.075684,159.121582 C165.793136,158.224768 166.754877,157.776367 167.960938,157.776367 C169.024745,157.776367 169.816404,158.088701 170.335938,158.713379 C170.855472,159.338057 171.12142,160.271966 171.133789,161.515137 L171.133789,168 L168.452637,168 L168.452637,161.580078 C168.452637,161.011065 168.32894,160.598227 168.081543,160.341553 C167.834146,160.084878 167.422855,159.956543 166.847657,159.956543 C166.093096,159.956543 165.527183,160.278154 165.149903,160.921387 L165.149903,168 L162.46875,168 L162.46875,157.961914 L164.992188,157.961914 Z M178.982422,168 C178.858724,167.758788 178.769044,167.458823 178.713379,167.100098 C178.063962,167.823734 177.219732,168.185547 176.180664,168.185547 C175.197261,168.185547 174.382409,167.901045 173.736084,167.332031 C173.08976,166.763018 172.766602,166.045577 172.766602,165.179688 C172.766602,164.11588 173.160885,163.299482 173.949463,162.730469 C174.738041,162.161455 175.877597,161.873861 177.368164,161.867676 L178.602051,161.867676 L178.602051,161.29248 C178.602051,160.828611 178.482993,160.457521 178.244873,160.179199 C178.006754,159.900878 177.631025,159.761719 177.117676,159.761719 C176.666177,159.761719 176.312095,159.869953 176.05542,160.086426 C175.798746,160.302898 175.670411,160.59977 175.670411,160.977051 L172.989258,160.977051 C172.989258,160.395668 173.168618,159.857587 173.527344,159.362793 C173.88607,158.867999 174.393226,158.4799 175.048829,158.198486 C175.704431,157.917072 176.440426,157.776367 177.256836,157.776367 C178.493822,157.776367 179.475664,158.087155 180.202393,158.70874 C180.929122,159.330325 181.292481,160.203933 181.292481,161.32959 L181.292481,165.680664 C181.298666,166.633143 181.43164,167.353676 181.691407,167.842285 L181.691407,168 L178.982422,168 Z M176.765137,166.135254 C177.160972,166.135254 177.525878,166.04712 177.859864,165.87085 C178.19385,165.694579 178.441243,165.458009 178.602051,165.161133 L178.602051,163.435547 L177.600098,163.435547 C176.257969,163.435547 175.543621,163.899409 175.457032,164.827148 L175.447754,164.984863 C175.447754,165.318849 175.565266,165.594074 175.800293,165.810547 C176.035321,166.027019 176.356932,166.135254 176.765137,166.135254 Z M186.07959,163.853027 L183.853028,163.853027 L183.537598,154.492188 L186.39502,154.492188 L186.07959,163.853027 Z M184.966309,165.318848 C185.417809,165.318848 185.781168,165.451822 186.056397,165.717773 C186.331626,165.983725 186.469239,166.323891 186.469239,166.738281 C186.469239,167.146486 186.331626,167.48356 186.056397,167.749512 C185.781168,168.015464 185.417809,168.148438 184.966309,168.148438 C184.520994,168.148438 184.160728,168.015464 183.885498,167.749512 C183.610269,167.48356 183.472657,167.146486 183.472657,166.738281 C183.472657,166.330076 183.610269,165.991456 183.885498,165.722412 C184.160728,165.453368 184.520994,165.318848 184.966309,165.318848 Z" id="path-2"></path>
        <path d="M23.84375,19.4702148 L28.5029297,19.4702148 L28.5029297,21 L21.4633789,21 L21.4633789,19.8828125 L26.0336914,13.300293 L21.4697266,13.300293 L21.4697266,11.7578125 L28.4013672,11.7578125 L28.4013672,12.8496094 L23.84375,19.4702148 Z M29.1821289,17.5151367 C29.1821289,16.4614205 29.4328588,15.6129589 29.9343262,14.9697266 C30.4357935,14.3264942 31.1118122,14.0048828 31.9624023,14.0048828 C32.7156613,14.0048828 33.3017557,14.2630183 33.7207031,14.7792969 L33.796875,14.1318359 L35.4599609,14.1318359 L35.4599609,20.7714844 C35.4599609,21.3723988 35.3234877,21.8950173 35.0505371,22.3393555 C34.7775865,22.7836936 34.3935572,23.1222319 33.8984375,23.3549805 C33.4033178,23.587729 32.823571,23.7041016 32.1591797,23.7041016 C31.6555964,23.7041016 31.1647159,23.603598 30.6865234,23.4025879 C30.2083309,23.2015778 29.8465182,22.9423844 29.6010742,22.625 L30.4135742,21.5078125 C30.8706078,22.0198593 31.4249642,22.2758789 32.0766602,22.2758789 C32.5633162,22.2758789 32.9420559,22.1457533 33.2128906,21.885498 C33.4837253,21.6252428 33.6191406,21.2560245 33.6191406,20.777832 L33.6191406,20.409668 C33.1959614,20.8878605 32.6394891,21.1269531 31.949707,21.1269531 C31.1245076,21.1269531 30.4569524,20.8042838 29.9470215,20.1589355 C29.4370905,19.5135873 29.1821289,18.6577202 29.1821289,17.5913086 L29.1821289,17.5151367 Z M31.0166016,17.6484375 C31.0166016,18.2705109 31.1414376,18.7582176 31.3911133,19.1115723 C31.640789,19.4649269 31.983559,19.6416016 32.4194336,19.6416016 C32.9780301,19.6416016 33.3779285,19.432131 33.6191406,19.0131836 L33.6191406,16.125 C33.3736967,15.7060526 32.9780301,15.496582 32.4321289,15.496582 C31.9920225,15.496582 31.6460787,15.6764305 31.3942871,16.0361328 C31.1424955,16.3958351 31.0166016,16.9332647 31.0166016,17.6484375 Z M40.8491211,21 C40.7644853,20.8349601 40.7031252,20.6297213 40.6650391,20.3842773 C40.2207009,20.879397 39.64307,21.1269531 38.9321289,21.1269531 C38.259274,21.1269531 37.7017437,20.9322936 37.2595215,20.5429688 C36.8172992,20.1536439 36.5961914,19.6627634 36.5961914,19.0703125 C36.5961914,18.3424443 36.8659641,17.7838561 37.4055176,17.3945312 C37.9450711,17.0052064 38.724767,16.808431 39.7446289,16.8041992 L40.5888672,16.8041992 L40.5888672,16.4106445 C40.5888672,16.0932601 40.5074064,15.8393564 40.3444824,15.6489258 C40.1815584,15.4584951 39.9244809,15.3632812 39.5732422,15.3632812 C39.2643214,15.3632812 39.0220549,15.4373365 38.8464355,15.5854492 C38.6708162,15.7335619 38.5830078,15.9366849 38.5830078,16.1948242 L36.7485352,16.1948242 C36.7485352,15.7970358 36.8712553,15.4288754 37.1166992,15.090332 C37.3621432,14.7517887 37.7091449,14.4862477 38.1577148,14.2937012 C38.6062848,14.1011546 39.1098605,14.0048828 39.668457,14.0048828 C40.5148154,14.0048828 41.1866023,14.2175272 41.6838379,14.6428223 C42.1810734,15.0681174 42.4296875,15.665849 42.4296875,16.4360352 L42.4296875,19.4130859 C42.4339193,20.0647819 42.5249015,20.5577783 42.7026367,20.8920898 L42.7026367,21 L40.8491211,21 Z M39.3320312,19.7241211 C39.6028659,19.7241211 39.8525379,19.663819 40.0810547,19.5432129 C40.3095715,19.4226068 40.4788406,19.2607432 40.5888672,19.0576172 L40.5888672,17.8769531 L39.9033203,17.8769531 C38.9850215,17.8769531 38.4962568,18.1943328 38.4370117,18.8291016 L38.4306641,18.9370117 C38.4306641,19.1655285 38.5110669,19.3538404 38.671875,19.5019531 C38.8326831,19.6500658 39.052733,19.7241211 39.3320312,19.7241211 Z M43.5532227,17.5151367 C43.5532227,16.4444933 43.7933732,15.5918 44.2736816,14.9570312 C44.75399,14.3222625 45.4109659,14.0048828 46.2446289,14.0048828 C46.913252,14.0048828 47.4654926,14.2545548 47.9013672,14.7539062 L47.9013672,11.25 L49.7421875,11.25 L49.7421875,21 L48.0854492,21 L47.996582,20.2700195 C47.5395485,20.8413115 46.9513382,21.1269531 46.2319336,21.1269531 C45.4236613,21.1269531 44.7751489,20.8085156 44.286377,20.1716309 C43.797605,19.5347462 43.5532227,18.649257 43.5532227,17.5151367 Z M45.3876953,17.6484375 C45.3876953,18.2916699 45.4998361,18.7846663 45.7241211,19.1274414 C45.9484061,19.4702166 46.2742492,19.6416016 46.7016602,19.6416016 C47.2687203,19.6416016 47.6686186,19.4025089 47.9013672,18.9243164 L47.9013672,16.2138672 C47.6728504,15.7356747 47.2771838,15.496582 46.7143555,15.496582 C45.8299109,15.496582 45.3876953,16.21386 45.3876953,17.6484375 Z M53.2714844,19.5209961 L56.6293945,19.5209961 L56.6293945,21 L50.9291992,21 L50.9291992,19.8828125 L54.1601562,15.6171875 L51.0244141,15.6171875 L51.0244141,14.1318359 L56.527832,14.1318359 L56.527832,15.2172852 L53.2714844,19.5209961 Z M61.7583008,21 C61.6736649,20.8349601 61.6123049,20.6297213 61.5742188,20.3842773 C61.1298806,20.879397 60.5522496,21.1269531 59.8413086,21.1269531 C59.1684537,21.1269531 58.6109234,20.9322936 58.1687012,20.5429688 C57.7264789,20.1536439 57.5053711,19.6627634 57.5053711,19.0703125 C57.5053711,18.3424443 57.7751438,17.7838561 58.3146973,17.3945312 C58.8542507,17.0052064 59.6339467,16.808431 60.6538086,16.8041992 L61.4980469,16.8041992 L61.4980469,16.4106445 C61.4980469,16.0932601 61.4165861,15.8393564 61.2536621,15.6489258 C61.0907381,15.4584951 60.8336606,15.3632812 60.4824219,15.3632812 C60.1735011,15.3632812 59.9312346,15.4373365 59.7556152,15.5854492 C59.5799959,15.7335619 59.4921875,15.9366849 59.4921875,16.1948242 L57.6577148,16.1948242 C57.6577148,15.7970358 57.780435,15.4288754 58.0258789,15.090332 C58.2713228,14.7517887 58.6183246,14.4862477 59.0668945,14.2937012 C59.5154645,14.1011546 60.0190402,14.0048828 60.5776367,14.0048828 C61.4239951,14.0048828 62.095782,14.2175272 62.5930176,14.6428223 C63.0902531,15.0681174 63.3388672,15.665849 63.3388672,16.4360352 L63.3388672,19.4130859 C63.343099,20.0647819 63.4340811,20.5577783 63.6118164,20.8920898 L63.6118164,21 L61.7583008,21 Z M60.2412109,19.7241211 C60.5120456,19.7241211 60.7617176,19.663819 60.9902344,19.5432129 C61.2187511,19.4226068 61.3880203,19.2607432 61.4980469,19.0576172 L61.4980469,17.8769531 L60.8125,17.8769531 C59.8942011,17.8769531 59.4054365,18.1943328 59.3461914,18.8291016 L59.3398438,18.9370117 C59.3398438,19.1655285 59.4202466,19.3538404 59.5810547,19.5019531 C59.7418628,19.6500658 59.9619127,19.7241211 60.2412109,19.7241211 Z M72.8984375,18.5751953 C72.8984375,18.215493 72.7714856,17.9393727 72.5175781,17.7468262 C72.2636706,17.5542796 71.8066439,17.3511567 71.1464844,17.1374512 C70.4863248,16.9237457 69.9637064,16.7132172 69.5786133,16.5058594 C68.5291289,15.9387992 68.0043945,15.1749723 68.0043945,14.2143555 C68.0043945,13.715004 68.1450995,13.2696146 68.4265137,12.8781738 C68.7079278,12.4867331 69.1120579,12.1809907 69.638916,11.9609375 C70.1657741,11.7408843 70.7571582,11.6308594 71.4130859,11.6308594 C72.0732455,11.6308594 72.6614558,11.7504057 73.1777344,11.989502 C73.694013,12.2285982 74.0949693,12.5660785 74.3806152,13.0019531 C74.6662612,13.4378277 74.809082,13.9329399 74.809082,14.4873047 L72.9047852,14.4873047 C72.9047852,14.0641255 72.7714857,13.7351086 72.5048828,13.5002441 C72.2382799,13.2653797 71.8637719,13.1479492 71.3813477,13.1479492 C70.9158505,13.1479492 70.5540377,13.2463369 70.2958984,13.4431152 C70.0377591,13.6398936 69.9086914,13.8990869 69.9086914,14.2207031 C69.9086914,14.5211604 70.0599757,14.7729482 70.3625488,14.9760742 C70.665122,15.1792002 71.1105114,15.369628 71.6987305,15.5473633 C72.7820692,15.8732113 73.5712866,16.2773413 74.0664062,16.7597656 C74.5615259,17.2421899 74.809082,17.8430954 74.809082,18.5625 C74.809082,19.3623087 74.5065134,19.9896624 73.9013672,20.4445801 C73.2962209,20.8994977 72.4816132,21.1269531 71.4575195,21.1269531 C70.7465785,21.1269531 70.099124,20.9968275 69.5151367,20.7365723 C68.9311494,20.4763171 68.48576,20.1197939 68.1789551,19.6669922 C67.8721502,19.2141904 67.71875,18.6894561 67.71875,18.0927734 L69.6293945,18.0927734 C69.6293945,19.1126353 70.2387634,19.6225586 71.4575195,19.6225586 C71.9103213,19.6225586 72.2636706,19.5305185 72.5175781,19.3464355 C72.7714856,19.1623526 72.8984375,18.9052751 72.8984375,18.5751953 Z M77.9130859,21 L76.0722656,21 L76.0722656,14.1318359 L77.9130859,14.1318359 L77.9130859,21 Z M75.9643555,12.3544922 C75.9643555,12.0794257 76.0563956,11.8530282 76.2404785,11.675293 C76.4245615,11.4975577 76.6752914,11.4086914 76.9926758,11.4086914 C77.3058284,11.4086914 77.5555004,11.4975577 77.7416992,11.675293 C77.9278981,11.8530282 78.0209961,12.0794257 78.0209961,12.3544922 C78.0209961,12.6337905 77.9268401,12.8623038 77.7385254,13.0400391 C77.5502106,13.2177743 77.3015966,13.3066406 76.9926758,13.3066406 C76.683755,13.3066406 76.4351409,13.2177743 76.2468262,13.0400391 C76.0585114,12.8623038 75.9643555,12.6337905 75.9643555,12.3544922 Z M85.2636719,19.8891602 C85.0013008,20.2742532 84.6267928,20.5789377 84.1401367,20.8032227 L84.1464844,20.8032227 C83.8333318,20.9809579 83.5921232,21.1555167 83.4228516,21.3269043 C83.2535799,21.4982919 83.1689453,21.6961252 83.1689453,21.9204102 C83.1689453,22.1954766 83.3085924,22.3330078 83.5878906,22.3330078 C83.7275398,22.3330078 83.8968089,22.2906905 84.0957031,22.2060547 L84.2797852,23.2026367 C83.9708643,23.3888356 83.6217467,23.4819336 83.2324219,23.4819336 C82.8092427,23.4819336 82.4632989,23.3645031 82.1945801,23.1296387 C81.9258613,22.8947742 81.7915039,22.5699891 81.7915039,22.1552734 C81.7915039,21.7447896 81.9248034,21.395672 82.1914062,21.1079102 C81.2858028,21.0275061 80.5568875,20.6836782 80.0046387,20.076416 C79.4523898,19.4691539 79.1762695,18.6936896 79.1762695,17.75 L79.1762695,17.5532227 C79.1762695,16.8634406 79.309569,16.2466661 79.5761719,15.7028809 C79.8427748,15.1590956 80.2204565,14.7401545 80.7092285,14.4460449 C81.1980005,14.1519354 81.7555307,14.0048828 82.3818359,14.0048828 C83.3212938,14.0048828 84.0607883,14.3011038 84.6003418,14.8935547 C85.1398953,15.4860056 85.409668,16.3260037 85.409668,17.4135742 L85.409668,18.1625977 L81.0361328,18.1625977 C81.0953779,18.6111676 81.2741684,18.9708645 81.5725098,19.2416992 C81.8708511,19.5125339 82.2485329,19.6479492 82.7055664,19.6479492 C83.4122757,19.6479492 83.9645162,19.3919296 84.3623047,18.8798828 L85.2636719,19.8891602 Z M82.3754883,15.4902344 C82.0115542,15.4902344 81.7163911,15.6129545 81.4899902,15.8583984 C81.2635894,16.1038424 81.1186527,16.4550758 81.0551758,16.9121094 L83.6069336,16.9121094 L83.6069336,16.7661133 C83.59847,16.3598613 83.4884451,16.0456554 83.2768555,15.8234863 C83.0652659,15.6013172 82.7648131,15.4902344 82.3754883,15.4902344 Z" id="path-3"></path>
    </defs>
    <g id="POLISH-Matches" stroke="none" stroke-width="1" fill="none" fill-rule="evenodd">
        <g transform="translate(1.000000, 2.000000)">
            <polygon id="Path" stroke="#C2C2C2" stroke-width="2.43037975" fill="#F1F1F2" points="0.898734177 0.197307692 296.493671 0.197307692 296.493671 192.802692 0.898734177 192.802692"></polygon>
            <path d="M3.59493671,53.3873077 L294.974684,53.3873077 M3.59493671,73.4661538 L294.974684,73.4661538 M3.59493671,133.740577 L294.974684,133.740577" id="Shape" stroke="#DEDEDD" stroke-width="1.21518987"></path>
            <path d="M3.59493671,153.819423 L294.974684,153.819423" id="Path" stroke="#293052" stroke-width="1.21518987" stroke-linejoin="round" stroke-dasharray="3.60759489143951"></path>
            <path d="M3.59493671,173.898269 L294.974684,173.898269 M38.7974684,33.3084615 L38.7974684,191.590385 M75.6708861,33.3084615 L75.6708861,191.590385 M112.544304,33.3084615 L112.544304,191.590385 M149.379747,33.3084615 L149.379747,191.590385 M186.253165,33.3084615 L186.253165,191.590385 M223.126582,33.3084615 L223.126582,191.590385 M260,33.3084615 L260,191.590385 M3.59493671,113.661731 L294.974684,113.661731 M3.59493671,93.5828846 L294.974684,93.5828846" id="Shape" stroke="#DEDEDD" stroke-width="1.21518987"></path>
            <path d="M1.50632911,32.0961538 L297.101266,32.0961538" id="Path" stroke="#C2C2C2" stroke-width="2.43037975" fill="#F1F1F2"></path>
            <polyline id="Path" stroke="#293052" stroke-width="3.60759494" stroke-linecap="round" stroke-linejoin="round" points="223.43038 153.819423 191.265823 85.2103846 148.696203 116.578846 105.481013 86.6878846 75.6708861 113.661731 38.7974684 82.9751923"></polyline>
            <path d="M187.936709,144.069423 L152.772152,144.069423 L147.227848,136 L141.911392,144.069423 L106.746835,144.069423 C104.12523,144.069423 102,146.189613 102,148.805 L102,173.316346 C102,175.931733 104.12523,178.051923 106.746835,178.051923 L187.936709,178.051923 C189.215269,178.082545 190.45212,177.59717 191.367119,176.705737 C192.282117,175.814303 192.797836,174.592241 192.797468,173.316346 L192.797468,148.842885 C192.808124,147.560431 192.296931,146.328506 191.380783,145.428812 C190.464635,144.529117 189.221884,144.038599 187.936709,144.069423 Z" id="Path" fill="#E88024"></path>
            <g id="Group" opacity="0.6" transform="translate(214.658228, 144.961538)" fill="#FFFFFF">
                <ellipse id="Oval" cx="8.4683544" cy="8.8578846" rx="8.16455696" ry="8.3725"></ellipse>
            </g>
            <ellipse id="Oval" stroke="#E88024" stroke-width="2.43037975" cx="223.126582" cy="153.819423" rx="8.16455696" ry="8.3725"></ellipse>
            <polygon id="Path" fill="#E88024" points="246.101266 144.424038 274.772152 144.424038 274.772152 163.214808 246.101266 163.214808"></polygon>
            <polygon id="Path" fill="#E88024" points="249.594937 153.819423 246.253165 157.153269 241.050633 153.819423 246.253165 150.485577"></polygon>
            <path d="M257.455696,152.682885 L258.822785,152.682885 C259.286321,152.716156 259.742107,152.550808 260.075949,152.228269 C260.370334,151.880171 260.519823,151.432768 260.493671,150.978077 C260.515955,150.546843 260.365708,150.124425 260.075949,149.803654 C259.723559,149.554821 259.285105,149.459137 258.860759,149.538462 C258.447075,149.519538 258.041086,149.654547 257.721519,149.917308 C257.421295,150.171164 257.253519,150.547764 257.265823,150.940192 L254.911392,150.940192 C254.862229,150.042095 255.260014,149.177548 255.974684,148.629231 C256.773998,148.003895 257.769755,147.681712 258.78481,147.72 C259.842983,147.66396 260.888435,147.971503 261.746835,148.591346 C262.496986,149.215072 262.905698,150.157097 262.848101,151.129615 C262.842804,151.661556 262.670116,152.178392 262.35443,152.607115 C262.005019,153.088331 261.533037,153.467637 260.987342,153.705769 C261.597182,153.902929 262.128875,154.287492 262.506329,154.804423 C262.860139,155.302137 263.046308,155.899117 263.037975,156.509231 C263.074415,157.513484 262.621667,158.473292 261.822785,159.085385 C260.936461,159.743226 259.850622,160.077567 258.746835,160.0325 C257.71508,160.065498 256.701042,159.759346 255.860759,159.161154 C255.069748,158.583063 254.637985,157.635438 254.721519,156.660769 L257.227848,156.660769 C257.217598,157.093465 257.398042,157.508884 257.721519,157.797308 C258.066694,158.101306 258.5144,158.263723 258.974684,158.251923 C259.460817,158.283668 259.939458,158.119951 260.303797,157.797308 C260.636885,157.468131 260.816018,157.014487 260.797468,156.547115 C260.850645,156.036654 260.685135,155.527543 260.341772,155.145385 C259.950005,154.818217 259.446379,154.655266 258.936709,154.690769 L257.455696,154.690769 L257.455696,152.682885 Z" id="Path" fill="#FFFFFF"></path>
            <g id="Przewidywanie-ostatniej-cyfry-3">
                <use fill="#000000" xlink:href="#path-1"></use>
                <use fill="#2A3052" xlink:href="#path-1"></use>
            </g>
            <g id="Wygrana!">
                <use fill="#000000" xlink:href="#path-2"></use>
                <use fill="#FFFFFF" xlink:href="#path-2"></use>
            </g>
            <g id="Zgadza-Się" fill="#000000">
                <use xlink:href="#path-3"></use>
                <use xlink:href="#path-3"></use>
            </g>
        </g>
    </g>
</svg>