<svg width="299" height="197" xmlns="http://www.w3.org/2000/svg"><g fill="none" fill-rule="evenodd"><path fill="#F1F1F2" d="M0 0h299v197H0z"/><path d="M1.987 1.98v193.04h295.026V1.98H1.987zM299 0v197H0V0h299z" fill="#C2C2C2" fill-rule="nonzero"/><path d="M4.58 54.993v-1.211h290.408v1.21H4.58zm0 40.195v-1.21h290.408v1.21H4.58zm0 40.158v-1.211h290.408v1.211H4.58zm0 20.079v-1.211h290.408v1.211H4.58zm0 20.079v-1.211h290.408v1.21H4.58zM39.06 34.308h1.21V192.59h-1.21V34.308zm36.75 0h1.21V192.59h-1.21V34.308zm36.75 0h1.211V192.59h-1.21V34.308zm36.713 0h1.211V192.59h-1.211V34.308zm36.75 0h1.212V192.59h-1.212V34.308zm36.75 0h1.212V192.59h-1.211V34.308zm36.751 0h1.212V192.59h-1.212V34.308zM4.58 115.268v-1.212h290.408v1.211H4.58z" fill="#DEDEDD" fill-rule="nonzero"/><path fill="#293052" fill-rule="nonzero" d="M4.58 75.072V73.86h1.816v1.21zM10.03 75.072V73.86h3.633v1.21H10.03zm7.267 0V73.86h3.633v1.21h-3.633zm7.266 0V73.86h3.634v1.21h-3.634zm7.267 0V73.86h3.634v1.21H31.83zm7.267 0V73.86h3.634v1.21h-3.634zm7.267 0V73.86h3.633v1.21h-3.633zm7.267 0V73.86h3.633v1.21h-3.633zm7.267 0V73.86h3.633v1.21h-3.633zm7.266 0V73.86h3.634v1.21h-3.634zm7.267 0V73.86h3.634v1.21H75.43zm7.267 0V73.86h3.634v1.21h-3.634zm7.267 0V73.86h3.633v1.21h-3.633zm7.267 0V73.86h3.633v1.21h-3.633zm7.267 0V73.86h3.633v1.21h-3.633zm7.266 0V73.86h3.634v1.21h-3.634zm7.267 0V73.86h3.634v1.21h-3.634zm7.267 0V73.86h3.634v1.21h-3.634zm7.267 0V73.86h3.633v1.21h-3.633zm7.267 0V73.86h3.633v1.21h-3.633zm7.267 0V73.86h3.633v1.21H148.1zm7.266 0V73.86H159v1.21h-3.634zm7.267 0V73.86h3.634v1.21h-3.634zm7.267 0V73.86h3.634v1.21H169.9zm7.267 0V73.86h3.633v1.21h-3.633zm7.267 0V73.86h3.633v1.21h-3.633zm7.267 0V73.86h3.633v1.21h-3.633zm7.266 0V73.86h3.634v1.21h-3.634zm7.267 0V73.86h3.634v1.21h-3.634zm7.267 0V73.86h3.634v1.21H213.5zm7.267 0V73.86h3.633v1.21h-3.633zm7.267 0V73.86h3.633v1.21h-3.633zm7.267 0V73.86h3.633v1.21h-3.633zm7.266 0V73.86h3.634v1.21h-3.634zm7.267 0V73.86h3.634v1.21h-3.634zm7.267 0V73.86h3.634v1.21h-3.634zm7.267 0V73.86h3.633v1.21h-3.633zm7.267 0V73.86h3.633v1.21h-3.633zm7.267 0V73.86h3.633v1.21h-3.633zm7.266 0V73.86h3.634v1.21h-3.634zM293.21 75.072V73.86h1.778v1.21z"/><path fill="#C2C2C2" fill-rule="nonzero" d="M2.498 34.307v-2.422h294.61v2.422z"/><path d="M76.186 81.92l-35.273 34.035a1.798 1.798 0 0 1-2.496-2.587l36.75-35.46a1.798 1.798 0 0 1 2.695.227l35.779 48.537 35.234-21.24a1.798 1.798 0 0 1 2.01.104l35.692 26.914 72.407-59.937a1.798 1.798 0 1 1 2.292 2.77l-73.5 60.842a1.798 1.798 0 0 1-2.23.051l-35.856-27.038-35.596 21.46a1.798 1.798 0 0 1-2.375-.473L76.186 81.92z" fill="#293052" fill-rule="nonzero"/><path d="M188.18 145.159h-35.047l-5.525-8.07-5.3 8.07h-35.046a4.733 4.733 0 0 0-4.731 4.735v24.512a4.733 4.733 0 0 0 4.73 4.735h80.92a4.729 4.729 0 0 0 3.419-1.346 4.738 4.738 0 0 0 1.425-3.39v-24.473a4.738 4.738 0 0 0-1.412-3.414 4.729 4.729 0 0 0-3.432-1.36z" fill="#E88024"/><ellipse cx="8.333" cy="9.062" rx="8.137" ry="8.373" opacity=".6" transform="translate(251.797 65.404)" fill="#FFF"/><path d="M260.13 84.05c-5.17 0-9.348-4.299-9.348-9.584 0-5.285 4.177-9.583 9.348-9.583 5.17 0 9.348 4.298 9.348 9.583s-4.177 9.584-9.348 9.584zm0-2.422c3.817 0 6.926-3.2 6.926-7.162 0-3.963-3.109-7.161-6.926-7.161s-6.926 3.198-6.926 7.161c0 3.963 3.109 7.162 6.926 7.162z" fill="#E88024" fill-rule="nonzero"/><ellipse cx="8.386" cy="8.585" rx="8.137" ry="8.373" opacity=".6" transform="translate(31.278 106.077)" fill="#FFF"/><path d="M39.665 124.245c-5.171 0-9.349-4.298-9.349-9.583 0-5.286 4.178-9.584 9.349-9.584 5.17 0 9.348 4.298 9.348 9.584 0 5.285-4.177 9.583-9.348 9.583zm0-2.422c3.817 0 6.926-3.199 6.926-7.161 0-3.963-3.109-7.162-6.926-7.162-3.818 0-6.926 3.199-6.926 7.162 0 3.962 3.108 7.161 6.926 7.161z" fill="#E88024" fill-rule="nonzero"/><path fill="#E88024" d="M247.564 44.575h25.094v16.518h-25.094z"/><path fill="#E88024" d="M257.745 61.12l2.382-2.383 2.382 2.384-2.382 2.384z"/><path d="M257.367 53.478l.606-5.645h5.147v1.25h-3.785l-.605 2.955c.22-.169.462-.31.719-.416.3-.052.607-.052.908 0a2.762 2.762 0 0 1 2.233.909 3.79 3.79 0 0 1 .795 2.538 3.79 3.79 0 0 1-.833 2.5 3.026 3.026 0 0 1-2.422.948 3.29 3.29 0 0 1-2.157-.72 2.464 2.464 0 0 1-.833-2.084h1.249c-.025.48.154.948.492 1.288.34.311.789.475 1.249.455a1.627 1.627 0 0 0 1.363-.606 2.692 2.692 0 0 0 .492-1.705 2.54 2.54 0 0 0-.492-1.629 1.627 1.627 0 0 0-1.363-.644 2.193 2.193 0 0 0-1.173.265 1.402 1.402 0 0 0-.53.758l-1.06-.417z" fill="#FFF"/><path fill="#D5D3DA" d="M137.35 76.474h25.094v16.518h-25.093z"/><path fill="#D5D3DA" d="M147.505 93l2.382-2.385L152.268 93l-2.381 2.385z"/><path d="M153.323 89.923h-6.662v-.871l3.369-3.789a9.43 9.43 0 0 0 1.362-1.553 2.503 2.503 0 0 0 0-1.364c.01-.47-.15-.928-.454-1.288a1.475 1.475 0 0 0-1.173-.53 2.043 2.043 0 0 0-1.552.53 2.16 2.16 0 0 0-.492 1.515h-1.211a2.919 2.919 0 0 1 .87-2.235 3.48 3.48 0 0 1 2.536-.909 2.988 2.988 0 0 1 2.196.796c.549.536.85 1.277.832 2.045a3.298 3.298 0 0 1-.492 1.667c-.4.655-.87 1.264-1.4 1.819l-2.687 2.917h4.958v1.25z" fill="#293052"/><path fill="#D5D3DA" d="M27.1 84.43h25.093v16.517H27.099z"/><path fill="#D5D3DA" d="M37.28 100.966l2.381-2.384 2.382 2.384-2.382 2.384z"/><path fill="#293052" d="M40.422 97.955h-1.4v-8.903h-2.12v-.985l3.482-.38v10.268z"/><g fill="#2A3052" fill-rule="nonzero"><path d="M29.065 131.831l.108 1.12a2.444 2.444 0 0 1 2.17-1.229c.795 0 1.41.217 1.843.724.434.47.65 1.193.65 2.169v4.7h-1.337v-4.664c0-.65-.144-1.12-.398-1.41-.253-.29-.65-.398-1.156-.398a1.85 1.85 0 0 0-1.013.29 2.08 2.08 0 0 0-.723.759v5.423h-1.338v-7.448l1.194-.036zm-4.734-2.666h1.25v9.875h-1.25v-9.875zm22.074 2.602h1.32v7.268h-1.32v-7.268zm.017-3.301v1.31h1.346v-1.31h-1.346zm-10.515 3.312h1.32v7.27h-1.32v-7.27zm.018-3.301v1.31h1.345v-1.31h-1.345z"/><path d="M35.882 131.778h1.32v7.27h-1.32v-7.27zm.018-3.301v1.31h1.345v-1.31H35.9zm3.131 4.289v-1.044h5.56v.88l-4.018 5.448h4.23v.99h-5.772v-.845l3.97-5.429h-3.97zm13.848-1.21c2.184 0 3.16 1.594 3.324 3.435.164 1.841-.61 4.052-3.026 4.241-2.415.189-3.623-1.762-3.623-3.82s1.14-3.856 3.325-3.856zm-.053 1.051c-.813 0-1.776.489-1.899 2.485-.123 1.995.68 3.09 1.963 3.09 1.282 0 1.96-1.164 1.96-3.09 0-1.927-1.21-2.485-2.024-2.485z"/></g><g><path d="M164.969 159.752h1.617l.082 1.179c.662-.988 1.521-1.427 2.577-1.318.612.063 1.901.264 2.286 2 .14.637.11 1.712.1 3.174-.004.568-.004 1.55 0 2.948h-1.774v-5c0-.588-.165-1.244-.658-1.493-.677-.341-1.953-.198-2.465.663v5.83h-1.765V159.752zm-47.83 3.765v-1.31h3.964c.045 2.284.045 3.615 0 3.994-.335 1-4.293 2.818-6.849.512-.762-.687-1.12-1.448-1.316-2.6-.009-1.178-.03-2.282-.022-3.326.194-1.28.623-2.008.968-2.42 1.257-1.503 3.259-1.826 5.02-1.217 1.76.608 1.99 1.873 2.131 3.11-.407 0-.622-.018-1.723 0 .111-.696-.522-2.042-2.174-1.968-1.652.074-2.432 1.432-2.432 2.563 0 1.13-.06.75 0 2.998.075 2.58 3.168 3.273 4.606 1.894l.052-2.197-2.225-.033zm59.53-3.906c2.212 0 3.411 1.348 3.715 3.368.303 2.02-.788 4.874-3.56 4.874-2.771 0-3.668-2.107-3.668-4.288s1.301-3.954 3.513-3.954zm.02 1.415c-.658.062-1.823.523-1.755 2.704.069 2.18 1.022 2.693 1.755 2.693.733 0 1.969-.203 1.969-2.684 0-2.481-1.312-2.775-1.97-2.713h.001z" fill="#FFF" fill-rule="nonzero"/><path d="M176.689 161.026c-.658.062-1.823.523-1.755 2.704.069 2.18 1.022 2.693 1.755 2.693.733 0 1.969-.203 1.969-2.684 0-2.481-1.312-2.775-1.97-2.713h.001z"/><path d="M123.053 159.815c.719.022 1.288.022 1.708 0v4.49c0 1.782.655 2.088 1.29 2.15a2.02 2.02 0 0 0 1.857-.885c.016-2.05.016-3.968 0-5.755h1.831v7.929h-1.565l-.168-1.165c-.552.953-1.419 1.377-2.6 1.273-1.771-.157-2.353-1.668-2.353-3.073 0-2.452-.039-3.728 0-4.964zm10.425 2.187c-.542-.003-1.11-.003-1.704 0 0-.854.611-2.405 3.06-2.405 2.448 0 3.035 1.682 3.102 2.044.066.361-.17 5.44.341 6.016l-1.818.002c-.15-.514-.226-.894-.226-1.14-.284.347-.771.98-1.521 1.212-.75.233-2.454.357-3.151-1.277-.46-1.077-.167-2.289.697-2.844 1.428-.917 3.39-.61 3.975-.61.076-1.636-.413-2.017-1.521-2.017-.74 0-1.15.34-1.234 1.02v-.001zm2.755 2.116c-.538-.01-.9-.013-1.796.015-.714.063-1.35.59-1.296 1.343.065.896 1.084 1.061 1.882.802.67-.217 1.137-.777 1.21-1.016v-1.144zm13.761-2.116c-.542-.003-1.11-.003-1.704 0 0-.854.612-2.405 3.06-2.405s3.036 1.682 3.102 2.044c.066.361-.17 5.44.342 6.016l-1.82.002c-.15-.514-.224-.894-.224-1.14-.284.347-.772.98-1.522 1.212-.75.233-2.453.357-3.15-1.277-.46-1.077-.167-2.289.697-2.844 1.427-.917 3.39-.61 3.975-.61.075-1.636-.413-2.017-1.522-2.017-.74 0-1.15.34-1.234 1.02v-.001zm2.755 2.116c-.538-.01-.9-.013-1.796.015-.714.063-1.35.59-1.296 1.343.065.896 1.084 1.061 1.883.802.67-.217 1.136-.777 1.209-1.016v-1.144zm-8.15-7.8h1.725v11.429h-1.418a24.18 24.18 0 0 1-.216-1.014c-.283.79-3.166 2.183-4.593-.174-1.193-1.97-.538-4.617.07-5.575.456-.719 2.305-2.566 4.432-.306a875.64 875.64 0 0 0 0-4.36zm.01 5.763c-.275-.871-2.123-1.422-2.865-.355-.741 1.067-.707 2.434-.283 3.685.424 1.252 2.239 1.49 3.148.114v-3.444zm16.855-1.263l.179-1.005h1.451v8.045c.005 2.804-3.143 3.878-6.036 2.477.166-.827.257-1.29.274-1.387 1.26.421 4.397 1.475 3.997-2.016-1.8 1.845-3.838.727-4.543-.505-.778-1.36-1.285-5.416 1.219-6.51 1.442-.63 2.595-.33 3.46.901h-.001zm-.15 1.227c-.343-.519-.563-.95-1.713-.95-1.15 0-1.87 1.41-1.62 3.578.249 2.167 2.6 2.167 3.332.796v-3.424h.001zM184.296 164.1h-2.25v-7.44h2.25v7.44zm0 3.915h-2.25v-2h2.25v2z" fill="#FFF" fill-rule="nonzero"/></g><g fill="#2A3052" fill-rule="nonzero"><path d="M264.615 91.866l.096.983a2.142 2.142 0 0 1 1.901-1.078c.697 0 1.236.19 1.616.634.38.412.57 1.046.57 1.901v4.12h-1.172v-4.088c0-.57-.127-.982-.348-1.236-.222-.253-.57-.348-1.015-.348-.348 0-.633.095-.887.253a1.83 1.83 0 0 0-.634.666v4.754h-1.172v-6.53l1.045-.03v-.001zm-5.545-2.365v.921h-4.42v3.13h3.765v.95h-3.766v4.006h-1.298v-9.007h5.719zm16.575 5.837h-4.203c0 .78.16 1.344.478 1.692.418.457.86.623 1.463.563 1.056-.106 1.26-.389 1.696-.638l.445.763c-.52.538-1.352.806-2.495.806-1.715 0-2.76-1.421-2.83-3.113-.067-1.692.608-3.655 2.83-3.738 1.883.05 2.755 1.272 2.616 3.665zm-1.18-.93c-.012-1.19-.49-1.786-1.435-1.786-.944 0-1.46.595-1.549 1.785h2.984v.001zm-14.029-2.533h1.18v6.497h-1.18v-6.497zm.016-2.95v1.172h1.202v-1.172h-1.202z"/></g><path d="M22.393 18.212l.013.038c.018 1.02-.293 1.818-.931 2.395-.639.577-1.52.866-2.644.866-1.146 0-2.07-.368-2.775-1.105-.704-.737-1.056-1.69-1.056-2.858v-1.896c0-1.163.343-2.115 1.03-2.857.686-.741 1.587-1.112 2.703-1.112 1.163 0 2.073.285 2.729.853.656.569.975 1.37.958 2.401l-.014.04h-1.863c0-.613-.147-1.069-.443-1.368-.295-.3-.75-.45-1.367-.45-.573 0-1.02.231-1.342.693-.322.461-.482 1.057-.482 1.787v1.91c0 .734.17 1.333.508 1.797.34.464.81.695 1.414.695.573 0 1-.15 1.283-.449.282-.3.423-.76.423-1.38h1.856zm3.254 3.16h-1.915v-7.098h1.915v7.098zm0-8.797h-1.915v-1.437h1.915v1.437zm2.073 8.797v-5.753h-1.056v-1.345h1.056v-.787c0-.797.23-1.41.69-1.84.459-.432 1.104-.647 1.935-.647a3.5 3.5 0 0 1 .495.036c.168.024.353.058.554.102l-.164 1.423a9.472 9.472 0 0 0-.305-.045 2.64 2.64 0 0 0-.344-.02c-.31 0-.546.085-.705.256-.16.17-.24.415-.24.735v.787h1.365v1.345h-1.365v5.753H27.72zm7.919-5.452l-.702-.02c-.284 0-.518.06-.702.178a1.123 1.123 0 0 0-.42.499v4.795h-1.908v-7.098h1.778l.085 1.05c.166-.372.382-.662.646-.87a1.44 1.44 0 0 1 .916-.311c.096 0 .184.007.265.023.081.015.163.033.246.055l-.203 1.7-.001-.001zm5.183 5.452a4.03 4.03 0 0 1-.18-.511 3.56 3.56 0 0 1-.109-.552c-.193.341-.46.635-.78.86-.324.227-.71.341-1.155.341-.744 0-1.317-.191-1.719-.574-.402-.383-.604-.904-.604-1.565 0-.695.268-1.234.804-1.617s1.318-.574 2.345-.574H40.5v-.564c0-.341-.09-.606-.269-.794-.179-.188-.446-.282-.8-.282-.31 0-.55.075-.718.226-.169.151-.253.358-.253.62h-1.843l-.014-.04c-.03-.598.231-1.115.784-1.55.554-.436 1.276-.653 2.169-.653.853 0 1.542.214 2.07.642.527.43.79 1.044.79 1.844v2.933c0 .332.025.645.075.938.05.293.13.584.24.872h-1.91.001zm-1.752-1.28c.333 0 .63-.082.892-.248.263-.167.442-.359.538-.578v-1.003h-1.076c-.406 0-.714.1-.921.301a.992.992 0 0 0-.312.742c0 .24.078.432.233.574.155.142.37.213.646.213v-.001zm8.273 1.28v-9.55h3.333c1.167 0 2.13.373 2.886 1.119.757.745 1.135 1.702 1.135 2.87v1.581c0 1.172-.378 2.129-1.135 2.87-.756.742-1.719 1.112-2.886 1.112h-3.333v-.002zm1.916-8.076v6.607h1.417c.63 0 1.137-.235 1.522-.706.385-.47.577-1.072.577-1.807v-1.594c0-.73-.192-1.33-.577-1.798-.385-.468-.892-.702-1.522-.702h-1.417zm8.843 8.076h-1.915v-7.098h1.915v7.098zm0-8.797h-1.915v-1.437h1.915v1.437zm5.413 6.83c0-.21-.102-.391-.305-.542-.204-.151-.581-.283-1.132-.397-.831-.166-1.462-.418-1.893-.755-.43-.336-.646-.793-.646-1.37 0-.609.258-1.127.774-1.556.516-.428 1.203-.642 2.06-.642.897 0 1.615.214 2.155.642.54.43.8.963.778 1.601l-.013.04h-1.85a.929.929 0 0 0-.276-.696c-.184-.18-.448-.269-.794-.269-.306 0-.549.077-.728.23a.714.714 0 0 0-.27.564c0 .219.094.397.28.535.186.137.563.261 1.131.37.87.175 1.52.432 1.946.771.426.34.64.806.64 1.4 0 .64-.274 1.162-.82 1.569-.548.407-1.27.61-2.166.61-.944 0-1.691-.24-2.24-.718-.55-.48-.81-1.025-.784-1.637l.013-.04h1.752c.013.38.137.656.374.827.236.17.544.256.925.256.354 0 .624-.071.81-.213a.692.692 0 0 0 .279-.58zm9.493-1.385c0 1.05-.243 1.894-.729 2.532-.485.639-1.163.958-2.033.958-.372 0-.702-.069-.99-.207a2.035 2.035 0 0 1-.742-.606v3.404h-1.91v-9.827h1.726l.112.84c.21-.311.462-.55.757-.719a2.05 2.05 0 0 1 1.034-.252c.879 0 1.561.343 2.046 1.03.486.686.729 1.59.729 2.71v.137zm-1.916-.138c0-.67-.112-1.211-.335-1.627-.223-.415-.564-.623-1.023-.623-.289 0-.535.059-.738.177-.205.12-.372.295-.482.505v3.11c.118.201.279.354.482.459.203.105.454.157.751.157.464 0 .804-.181 1.02-.544.217-.363.325-.855.325-1.476v-.138zm7.282 3.49a4.03 4.03 0 0 1-.18-.511 3.56 3.56 0 0 1-.108-.552c-.193.341-.46.635-.781.86-.324.227-.709.341-1.155.341-.743 0-1.316-.191-1.719-.574-.402-.383-.603-.904-.603-1.565 0-.695.268-1.234.803-1.617.536-.383 1.318-.574 2.346-.574h1.076v-.564c0-.341-.09-.606-.27-.794-.179-.188-.445-.282-.8-.282-.31 0-.55.075-.718.226-.168.151-.253.358-.253.62h-1.843l-.013-.04c-.03-.598.23-1.115.784-1.55.553-.436 1.276-.653 2.168-.653.853 0 1.543.214 2.07.642.527.43.79 1.044.79 1.844v2.933c0 .332.026.645.076.938.05.293.13.584.24.872h-1.91zm-1.751-1.28c.332 0 .63-.082.892-.248.262-.167.442-.359.538-.578v-1.003h-1.076c-.407 0-.714.1-.922.301a.992.992 0 0 0-.312.742c0 .24.078.432.233.574.156.142.371.213.647.213v-.001zm8.515-4.172l-.702-.02c-.284 0-.518.06-.702.178a1.123 1.123 0 0 0-.42.499v4.795h-1.909v-7.098h1.778l.085 1.05c.167-.372.382-.662.647-.87a1.44 1.44 0 0 1 .915-.311c.096 0 .185.007.265.023.081.015.163.033.246.055l-.203 1.7v-.001zm3.011 5.452h-1.915v-7.098h1.915v7.098zm0-8.797h-1.915v-1.437h1.915v1.437z" fill="#000" fill-rule="nonzero"/></g></svg>