<?xml version="1.0" encoding="UTF-8"?>
<svg width="299px" height="197px" viewBox="0 0 299 197" version="1.1" xmlns="http://www.w3.org/2000/svg" xmlns:xlink="http://www.w3.org/1999/xlink">
    <!-- Generator: Sketch 52.6 (67491) - http://www.bohemiancoding.com/sketch -->
    <title>odd</title>
    <desc>Created with Sketch.</desc>
    <g id="Page-1" stroke="none" stroke-width="1" fill="none" fill-rule="evenodd">
        <g id="odd">
            <g>
                <polygon id="Path" fill="#F1F1F2" points="0 0 299 0 299 197 0 197"></polygon>
                <path d="M1.98671096,1.9798995 L1.98671096,195.020101 L297.013289,195.020101 L297.013289,1.9798995 L1.98671096,1.9798995 Z M299,0 L299,197 L0,197 L0,0 L299,0 Z" id="Path" fill="#C2C2C2" fill-rule="nonzero"></path>
                <g id="Group-8" transform="translate(2.000000, 32.000000)">
                    <path d="M2.57962025,22.9928773 L2.57962025,21.7817381 L292.988101,21.7817381 L292.988101,22.9928773 L2.57962025,22.9928773 Z M2.57962025,63.1884542 L2.57962025,61.977315 L292.988101,61.977315 L292.988101,63.1884542 L2.57962025,63.1884542 Z M2.57962025,103.346147 L2.57962025,102.135007 L292.988101,102.135007 L292.988101,103.346147 L2.57962025,103.346147 Z M2.57962025,123.424993 L2.57962025,122.213853 L292.988101,122.213853 L292.988101,123.424993 L2.57962025,123.424993 Z M2.57962025,143.503839 L2.57962025,142.292699 L292.988101,142.292699 L292.988101,143.503839 L2.57962025,143.503839 Z M37.0592405,2.30846154 L38.2703797,2.30846154 L38.2703797,160.590385 L37.0592405,160.590385 L37.0592405,2.30846154 Z M73.8097469,2.30846154 L75.0208861,2.30846154 L75.0208861,160.590385 L73.8097469,160.590385 L73.8097469,2.30846154 Z M110.560253,2.30846154 L111.771393,2.30846154 L111.771393,160.590385 L110.560253,160.590385 L110.560253,2.30846154 Z M147.272911,2.30846154 L148.484051,2.30846154 L148.484051,160.590385 L147.272911,160.590385 L147.272911,2.30846154 Z M184.023417,2.30846154 L185.234557,2.30846154 L185.234557,160.590385 L184.023417,160.590385 L184.023417,2.30846154 Z M220.773924,2.30846154 L221.985064,2.30846154 L221.985064,160.590385 L220.773924,160.590385 L220.773924,2.30846154 Z M257.52443,2.30846154 L258.73557,2.30846154 L258.73557,160.590385 L257.52443,160.590385 L257.52443,2.30846154 Z M2.57962025,83.2673004 L2.57962025,82.0561612 L292.988101,82.0561612 L292.988101,83.2673004 L2.57962025,83.2673004 Z" id="Shape" fill="#DEDEDD" fill-rule="nonzero"></path>
                    <polygon id="Path" fill="#293052" fill-rule="nonzero" points="2.57962025 43.0717234 2.57962025 41.8605842 4.39632911 41.8605842 4.39632911 43.0717234"></polygon>
                    <path d="M8.02974684,43.0717234 L8.02974684,41.8605842 L11.6631644,41.8605842 L11.6631644,43.0717234 L8.02974684,43.0717234 Z M15.2965821,43.0717234 L15.2965821,41.8605842 L18.9299997,41.8605842 L18.9299997,43.0717234 L15.2965821,43.0717234 Z M22.5634173,43.0717234 L22.5634173,41.8605842 L26.1968349,41.8605842 L26.1968349,43.0717234 L22.5634173,43.0717234 Z M29.8302525,43.0717234 L29.8302525,41.8605842 L33.4636701,41.8605842 L33.4636701,43.0717234 L29.8302525,43.0717234 Z M37.0970877,43.0717234 L37.0970877,41.8605842 L40.7305053,41.8605842 L40.7305053,43.0717234 L37.0970877,43.0717234 Z M44.3639229,43.0717234 L44.3639229,41.8605842 L47.9973405,41.8605842 L47.9973405,43.0717234 L44.3639229,43.0717234 Z M51.6307581,43.0717234 L51.6307581,41.8605842 L55.2641757,41.8605842 L55.2641757,43.0717234 L51.6307581,43.0717234 Z M58.8975933,43.0717234 L58.8975933,41.8605842 L62.5310109,41.8605842 L62.5310109,43.0717234 L58.8975933,43.0717234 Z M66.1644285,43.0717234 L66.1644285,41.8605842 L69.7978461,41.8605842 L69.7978461,43.0717234 L66.1644285,43.0717234 Z M73.4312638,43.0717234 L73.4312638,41.8605842 L77.0646814,41.8605842 L77.0646814,43.0717234 L73.4312638,43.0717234 Z M80.698099,43.0717234 L80.698099,41.8605842 L84.3315166,41.8605842 L84.3315166,43.0717234 L80.698099,43.0717234 Z M87.9649342,43.0717234 L87.9649342,41.8605842 L91.5983518,41.8605842 L91.5983518,43.0717234 L87.9649342,43.0717234 Z M95.2317694,43.0717234 L95.2317694,41.8605842 L98.865187,41.8605842 L98.865187,43.0717234 L95.2317694,43.0717234 Z M102.498605,43.0717234 L102.498605,41.8605842 L106.132022,41.8605842 L106.132022,43.0717234 L102.498605,43.0717234 Z M109.76544,43.0717234 L109.76544,41.8605842 L113.398857,41.8605842 L113.398857,43.0717234 L109.76544,43.0717234 Z M117.032275,43.0717234 L117.032275,41.8605842 L120.665693,41.8605842 L120.665693,43.0717234 L117.032275,43.0717234 Z M124.29911,43.0717234 L124.29911,41.8605842 L127.932528,41.8605842 L127.932528,43.0717234 L124.29911,43.0717234 Z M131.565945,43.0717234 L131.565945,41.8605842 L135.199363,41.8605842 L135.199363,43.0717234 L131.565945,43.0717234 Z M138.832781,43.0717234 L138.832781,41.8605842 L142.466198,41.8605842 L142.466198,43.0717234 L138.832781,43.0717234 Z M146.099616,43.0717234 L146.099616,41.8605842 L149.733033,41.8605842 L149.733033,43.0717234 L146.099616,43.0717234 Z M153.366451,43.0717234 L153.366451,41.8605842 L156.999869,41.8605842 L156.999869,43.0717234 L153.366451,43.0717234 Z M160.633286,43.0717234 L160.633286,41.8605842 L164.266704,41.8605842 L164.266704,43.0717234 L160.633286,43.0717234 Z M167.900122,43.0717234 L167.900122,41.8605842 L171.533539,41.8605842 L171.533539,43.0717234 L167.900122,43.0717234 Z M175.166957,43.0717234 L175.166957,41.8605842 L178.800374,41.8605842 L178.800374,43.0717234 L175.166957,43.0717234 Z M182.433792,43.0717234 L182.433792,41.8605842 L186.06721,41.8605842 L186.06721,43.0717234 L182.433792,43.0717234 Z M189.700627,43.0717234 L189.700627,41.8605842 L193.334045,41.8605842 L193.334045,43.0717234 L189.700627,43.0717234 Z M196.967462,43.0717234 L196.967462,41.8605842 L200.60088,41.8605842 L200.60088,43.0717234 L196.967462,43.0717234 Z M204.234298,43.0717234 L204.234298,41.8605842 L207.867715,41.8605842 L207.867715,43.0717234 L204.234298,43.0717234 Z M211.501133,43.0717234 L211.501133,41.8605842 L215.13455,41.8605842 L215.13455,43.0717234 L211.501133,43.0717234 Z M218.767968,43.0717234 L218.767968,41.8605842 L222.401386,41.8605842 L222.401386,43.0717234 L218.767968,43.0717234 Z M226.034803,43.0717234 L226.034803,41.8605842 L229.668221,41.8605842 L229.668221,43.0717234 L226.034803,43.0717234 Z M233.301638,43.0717234 L233.301638,41.8605842 L236.935056,41.8605842 L236.935056,43.0717234 L233.301638,43.0717234 Z M240.568474,43.0717234 L240.568474,41.8605842 L244.201891,41.8605842 L244.201891,43.0717234 L240.568474,43.0717234 Z M247.835309,43.0717234 L247.835309,41.8605842 L251.468726,41.8605842 L251.468726,43.0717234 L247.835309,43.0717234 Z M255.102144,43.0717234 L255.102144,41.8605842 L258.735562,41.8605842 L258.735562,43.0717234 L255.102144,43.0717234 Z M262.368979,43.0717234 L262.368979,41.8605842 L266.002397,41.8605842 L266.002397,43.0717234 L262.368979,43.0717234 Z M269.635814,43.0717234 L269.635814,41.8605842 L273.269232,41.8605842 L273.269232,43.0717234 L269.635814,43.0717234 Z M276.90265,43.0717234 L276.90265,41.8605842 L280.536067,41.8605842 L280.536067,43.0717234 L276.90265,43.0717234 Z M284.169485,43.0717234 L284.169485,41.8605842 L287.802903,41.8605842 L287.802903,43.0717234 L284.169485,43.0717234 Z" id="Path" fill="#293052" fill-rule="nonzero"></path>
                    <polygon id="Path" fill="#293052" fill-rule="nonzero" points="291.209241 43.0717234 291.209241 41.8605842 292.988101 41.8605842 292.988101 43.0717234"></polygon>
                    <polygon id="Path" fill="#C2C2C2" fill-rule="nonzero" points="0.497974684 2.30729309 0.497974684 -0.11498539 295.107595 -0.11498539 295.107595 2.30729309"></polygon>
                    <path d="M74.1862917,49.9209243 L38.913118,83.9554687 C38.1986062,84.6448901 37.0604936,84.6245504 36.3710722,83.9100387 C35.6816508,83.1955269 35.7019905,82.0574143 36.4165022,81.3679929 L73.1670086,45.9079929 C73.9493243,45.1531485 75.2173979,45.2599523 75.8624341,46.1350158 L111.640793,94.6723434 L146.874604,73.4315079 C147.503231,73.0525374 148.299115,73.0937946 148.885188,73.535733 L184.57703,100.449773 L256.983631,40.5130134 C257.748474,39.8798913 258.881749,39.9866723 259.514871,40.7515155 C260.147993,41.5163587 260.041212,42.6496336 259.276369,43.2827558 L185.775356,104.125448 C185.133819,104.6565 184.211537,104.677417 183.546584,104.175998 L147.690456,77.1380755 L112.094004,98.5975305 C111.298898,99.0768634 110.26958,98.8719223 109.718705,98.1245996 L74.1862917,49.9209243 Z" id="Path" fill="#293052" fill-rule="nonzero"></path>
                    <path d="M186.180759,113.158846 L151.133418,113.158846 L145.607595,105.089423 L140.308861,113.158846 L105.261519,113.158846 C102.648653,113.158846 100.530506,115.279036 100.530506,117.894423 L100.530506,142.405769 C100.530506,145.021156 102.648653,147.141346 105.261519,147.141346 L186.180759,147.141346 C187.455058,147.171968 188.687787,146.686593 189.599735,145.79516 C190.511683,144.903726 191.025684,143.681664 191.025316,142.405769 L191.025316,117.932308 C191.035937,116.649854 190.526447,115.417929 189.613353,114.518235 C188.700259,113.61854 187.461651,113.128022 186.180759,113.158846 Z" id="Path" fill="#E88024"></path>
                    <g id="Group" opacity="0.6" transform="translate(249.797468, 33.403846)" fill="#FFFFFF">
                        <ellipse id="Oval" cx="8.3325316" cy="9.0623077" rx="8.13734177" ry="8.3725"></ellipse>
                    </g>
                    <path d="M258.13,52.049793 C252.959133,52.049793 248.781519,47.7514515 248.781519,42.4661538 C248.781519,37.1808561 252.959133,32.8825146 258.13,32.8825146 C263.300867,32.8825146 267.478481,37.1808561 267.478481,42.4661538 C267.478481,47.7514515 263.300867,52.049793 258.13,52.049793 Z M258.13,49.6275146 C261.947393,49.6275146 265.056203,46.4288642 265.056203,42.4661538 C265.056203,38.5034434 261.947393,35.304793 258.13,35.304793 C254.312607,35.304793 251.203797,38.5034434 251.203797,42.4661538 C251.203797,46.4288642 254.312607,49.6275146 258.13,49.6275146 Z" id="Oval" fill="#E88024" fill-rule="nonzero"></path>
                    <g id="Group" opacity="0.6" transform="translate(29.278481, 74.076923)" fill="#FFFFFF">
                        <ellipse id="Oval" cx="8.38632911" cy="8.58480769" rx="8.13734177" ry="8.3725"></ellipse>
                    </g>
                    <path d="M37.6648101,92.24537 C32.4939432,92.24537 28.3163291,87.9470285 28.3163291,82.6617308 C28.3163291,77.3764331 32.4939432,73.0780916 37.6648101,73.0780916 C42.835677,73.0780916 47.0132911,77.3764331 47.0132911,82.6617308 C47.0132911,87.9470285 42.835677,92.24537 37.6648101,92.24537 Z M37.6648101,89.8230916 C41.4822027,89.8230916 44.5910126,86.6244412 44.5910126,82.6617308 C44.5910126,78.6990204 41.4822027,75.50037 37.6648101,75.50037 C33.8474175,75.50037 30.7386076,78.6990204 30.7386076,82.6617308 C30.7386076,86.6244412 33.8474175,89.8230916 37.6648101,89.8230916 Z" id="Oval" fill="#E88024" fill-rule="nonzero"></path>
                    <polygon id="Path" fill="#E88024" points="245.56443 12.5751923 270.657722 12.5751923 270.657722 29.0928846 245.56443 29.0928846"></polygon>
                    <polygon id="Path" fill="#E88024" transform="translate(258.127323, 29.120783) rotate(-45.000000) translate(-258.127323, -29.120783) " points="256.443083 27.4365426 259.813189 27.4349177 259.811564 30.8050236 256.441458 30.8066485"></polygon>
                    <path d="M255.367089,21.4780769 L255.972658,15.8332692 L261.12,15.8332692 L261.12,17.0834615 L257.33519,17.0834615 L256.72962,20.0384615 C256.95032,19.8690188 257.19204,19.7289404 257.448734,19.6217308 C257.749325,19.5701354 258.056498,19.5701354 258.357089,19.6217308 C259.201243,19.5666407 260.024091,19.9016814 260.590127,20.5309615 C261.152859,21.2530777 261.435214,22.1547919 261.384937,23.0692308 C261.415306,23.9755835 261.119861,24.8627724 260.552278,25.5696154 C259.928305,26.2339888 259.038654,26.5818442 258.13,26.5167308 C257.348306,26.5408491 256.583556,26.2856865 255.972658,25.7969231 C255.376681,25.2766883 255.066867,24.5014063 255.14,23.7132692 L256.388987,23.7132692 C256.364447,24.1928278 256.543094,24.6605084 256.881013,25.0013462 C257.220907,25.3122361 257.669994,25.4756978 258.13,25.4559615 C258.655372,25.4862946 259.162972,25.2604769 259.492532,24.8498077 C259.844479,24.3536105 260.017931,23.7526194 259.984557,23.145 C260.012718,22.5614916 259.838936,21.9861199 259.492532,21.5159615 C259.170972,21.0910809 258.66209,20.8505438 258.13,20.8719231 C257.721864,20.8492524 257.315511,20.9410981 256.956709,21.1371154 C256.699531,21.3224002 256.512734,21.5895117 256.426835,21.8948077 L255.367089,21.4780769 Z" id="Path" fill="#FFFFFF"></path>
                    <polygon id="Path" fill="#D5D3DA" points="135.350759 44.4740385 160.444051 44.4740385 160.444051 60.9917308 135.350759 60.9917308"></polygon>
                    <polygon id="Path" fill="#D5D3DA" transform="translate(147.886510, 60.999498) rotate(-45.000000) translate(-147.886510, -60.999498) " points="146.202269 59.3152579 149.572375 59.313633 149.57075 62.6837389 146.200644 62.6853638"></polygon>
                    <path d="M151.322658,57.9230769 L144.661392,57.9230769 L144.661392,57.0517308 L148.029873,53.2632692 C148.539522,52.7970349 148.996442,52.2761522 149.392405,51.71 C149.518665,51.264168 149.518665,50.7919858 149.392405,50.3461538 C149.402746,49.8757634 149.241254,49.4177604 148.938228,49.0580769 C148.648817,48.7108858 148.21651,48.5154624 147.764937,48.5276923 C147.196394,48.4799342 146.633789,48.6722286 146.213165,49.0580769 C145.862162,49.4819531 145.68616,50.02402 145.721139,50.5734615 L144.51,50.5734615 C144.466505,49.7379156 144.783528,48.9238979 145.380506,48.3382692 C146.069699,47.7069567 146.983426,47.3793359 147.916329,47.4290385 C148.725532,47.3855084 149.517731,47.6726156 150.111519,48.2246154 C150.660918,48.7611607 150.96257,49.5022933 150.944177,50.2703846 C150.93213,50.8600837 150.762213,51.435743 150.452152,51.9373077 C150.051494,52.5917238 149.582028,53.2013478 149.051772,53.7557692 L146.364557,56.6728846 L151.322658,56.6728846 L151.322658,57.9230769 Z" id="Path" fill="#293052"></path>
                    <polygon id="Path" fill="#D5D3DA" points="25.0992405 52.4298077 50.1925316 52.4298077 50.1925316 68.9475 25.0992405 68.9475"></polygon>
                    <polygon id="Path" fill="#D5D3DA" transform="translate(37.661484, 68.966252) rotate(-45.000000) translate(-37.661484, -68.966252) " points="35.9772438 67.2820111 39.3473497 67.2803862 39.3457248 70.6504921 35.9756189 70.652117"></polygon>
                    <polygon id="Path" fill="#293052" points="38.4217722 65.9546154 37.0213924 65.9546154 37.0213924 57.0517308 34.9018987 57.0517308 34.9018987 56.0667308 38.3839241 55.6878846 38.3839241 65.9546154"></polygon>
                </g>
            </g>
            <g id="Group" transform="translate(23.547000, 128.252000)" fill="#2A3052" fill-rule="nonzero">
                <path d="M5.518,3.579 L5.626,4.699 C6.07017447,3.92334445 6.90235034,3.45203378 7.796,3.47 C8.591,3.47 9.206,3.687 9.639,4.194 C10.073,4.664 10.289,5.387 10.289,6.363 L10.289,11.063 L8.952,11.063 L8.952,6.399 C8.952,5.749 8.808,5.279 8.554,4.989 C8.301,4.699 7.904,4.591 7.398,4.591 C7.03936121,4.58742863 6.68741695,4.68818266 6.385,4.881 C6.096,5.061 5.843,5.314 5.662,5.64 L5.662,11.063 L4.324,11.063 L4.324,3.615 L5.518,3.579 Z M0.784,0.913 L2.034,0.913 L2.034,10.788 L0.784,10.788 L0.784,0.913 Z M22.858,3.515 L24.178,3.515 L24.178,10.783 L22.858,10.783 L22.858,3.515 Z M22.875,0.214 L22.875,1.524 L24.221,1.524 L24.221,0.214 L22.875,0.214 Z M12.36,3.526 L13.68,3.526 L13.68,10.796 L12.36,10.796 L12.36,3.526 Z M12.378,0.225 L12.378,1.535 L13.723,1.535 L13.723,0.225 L12.378,0.225 Z" id="Shape"></path>
                <path d="M12.335,3.526 L13.655,3.526 L13.655,10.796 L12.335,10.796 L12.335,3.526 Z M12.353,0.225 L12.353,1.535 L13.698,1.535 L13.698,0.225 L12.353,0.225 Z M15.484,4.514 L15.484,3.47 L21.044,3.47 L21.044,4.35 L17.026,9.798 L21.256,9.798 L21.256,10.788 L15.484,10.788 L15.484,9.943 L19.454,4.514 L15.484,4.514 Z M29.332,3.304 C31.516,3.304 32.492,4.898 32.656,6.739 C32.82,8.58 32.046,10.791 29.63,10.98 C27.215,11.169 26.007,9.218 26.007,7.16 C26.007,5.102 27.147,3.304 29.332,3.304 Z M29.279,4.355 C28.466,4.355 27.503,4.844 27.38,6.84 C27.257,8.835 28.06,9.93 29.343,9.93 C30.625,9.93 31.303,8.766 31.303,6.84 C31.303,4.913 30.093,4.355 29.279,4.355 Z" id="Shape"></path>
            </g>
            <g id="Group-21" transform="translate(112.547000, 156.252000)">
                <path d="M52.422,3.5 L54.039,3.5 L54.121,4.679 C54.783,3.691 55.642,3.252 56.698,3.361 C57.31,3.424 58.599,3.625 58.984,5.361 C59.124,5.998 59.094,7.073 59.084,8.535 C59.08,9.103 59.08,10.085 59.084,11.483 L57.31,11.483 L57.31,6.483 C57.31,5.895 57.145,5.239 56.652,4.99 C55.975,4.649 54.699,4.792 54.187,5.653 L54.187,11.483 L52.422,11.483 L52.422,3.501 L52.422,3.5 Z M4.592,7.265 L4.592,5.955 L8.556,5.955 C8.601,8.239 8.601,9.57 8.556,9.949 C8.221,10.949 4.263,12.767 1.707,10.461 C0.945,9.774 0.587,9.013 0.391,7.861 C0.382,6.683 0.361,5.579 0.369,4.535 C0.563,3.255 0.992,2.527 1.337,2.115 C2.594,0.612 4.596,0.289 6.357,0.898 C8.117,1.506 8.347,2.771 8.488,4.008 C8.081,4.008 7.866,3.99 6.765,4.008 C6.876,3.312 6.243,1.966 4.591,2.04 C2.939,2.114 2.159,3.472 2.159,4.603 C2.159,5.733 2.099,5.353 2.159,7.601 C2.234,10.181 5.327,10.874 6.765,9.495 L6.817,7.298 L4.592,7.265 Z M64.122,3.359 C66.334,3.359 67.533,4.707 67.837,6.727 C68.14,8.747 67.049,11.601 64.277,11.601 C61.506,11.601 60.609,9.494 60.609,7.313 C60.609,5.132 61.91,3.359 64.122,3.359 Z M64.142,4.774 C63.484,4.836 62.319,5.297 62.387,7.478 C62.456,9.658 63.409,10.171 64.142,10.171 C64.875,10.171 66.111,9.968 66.111,7.487 C66.111,5.006 64.799,4.712 64.141,4.774 L64.142,4.774 Z" id="Shape" fill="#FFFFFF" fill-rule="nonzero"></path>
                <path d="M64.142,4.774 C63.484,4.836 62.319,5.297 62.387,7.478 C62.456,9.658 63.409,10.171 64.142,10.171 C64.875,10.171 66.111,9.968 66.111,7.487 C66.111,5.006 64.799,4.712 64.141,4.774 L64.142,4.774 Z" id="Path"></path>
                <path d="M10.506,3.563 C11.225,3.585 11.794,3.585 12.214,3.563 L12.214,8.053 C12.214,9.835 12.869,10.141 13.504,10.203 C14.2381021,10.2688809 14.9498144,9.92969651 15.361,9.318 C15.377,7.268 15.377,5.35 15.361,3.563 L17.192,3.563 L17.192,11.492 L15.627,11.492 L15.459,10.327 C14.907,11.28 14.04,11.704 12.859,11.6 C11.088,11.443 10.506,9.932 10.506,8.527 C10.506,6.075 10.467,4.799 10.506,3.563 Z M20.931,5.75 C20.389,5.747 19.821,5.747 19.227,5.75 C19.227,4.896 19.838,3.345 22.287,3.345 C24.735,3.345 25.322,5.027 25.389,5.389 C25.455,5.75 25.219,10.829 25.73,11.405 L23.912,11.407 C23.762,10.893 23.686,10.513 23.686,10.267 C23.402,10.614 22.915,11.247 22.165,11.479 C21.415,11.712 19.711,11.836 19.014,10.202 C18.554,9.125 18.847,7.913 19.711,7.358 C21.139,6.441 23.101,6.748 23.686,6.748 C23.762,5.112 23.273,4.731 22.165,4.731 C21.425,4.731 21.015,5.071 20.931,5.751 L20.931,5.75 Z M23.686,7.866 C23.148,7.856 22.786,7.853 21.89,7.881 C21.176,7.944 20.54,8.471 20.594,9.224 C20.659,10.12 21.678,10.285 22.476,10.026 C23.146,9.809 23.613,9.249 23.686,9.01 L23.686,7.866 Z M37.447,5.75 C36.905,5.747 36.337,5.747 35.743,5.75 C35.743,4.896 36.355,3.345 38.803,3.345 C41.251,3.345 41.839,5.027 41.905,5.389 C41.971,5.75 41.735,10.829 42.247,11.405 L40.427,11.407 C40.277,10.893 40.203,10.513 40.203,10.267 C39.919,10.614 39.431,11.247 38.681,11.479 C37.931,11.712 36.228,11.836 35.531,10.202 C35.071,9.125 35.364,7.913 36.228,7.358 C37.655,6.441 39.618,6.748 40.203,6.748 C40.278,5.112 39.79,4.731 38.681,4.731 C37.941,4.731 37.531,5.071 37.447,5.751 L37.447,5.75 Z M40.202,7.866 C39.664,7.856 39.302,7.853 38.406,7.881 C37.692,7.944 37.056,8.471 37.11,9.224 C37.175,10.12 38.194,10.285 38.993,10.026 C39.663,9.809 40.129,9.249 40.202,9.01 L40.202,7.866 Z M32.052,0.066 L33.777,0.066 L33.777,11.495 L32.359,11.495 C32.2797613,11.1585826 32.2077448,10.8205049 32.143,10.481 C31.86,11.271 28.977,12.664 27.55,10.307 C26.357,8.337 27.012,5.69 27.62,4.732 C28.076,4.013 29.925,2.166 32.052,4.426 C32.055,1.771 32.055,0.318 32.052,0.066 Z M32.062,5.829 C31.787,4.958 29.939,4.407 29.197,5.474 C28.456,6.541 28.49,7.908 28.914,9.159 C29.338,10.411 31.153,10.649 32.062,9.273 L32.062,5.829 Z M48.917,4.566 L49.096,3.561 L50.547,3.561 L50.547,11.606 C50.552,14.41 47.404,15.484 44.511,14.083 C44.677,13.256 44.768,12.793 44.785,12.696 C46.045,13.117 49.182,14.171 48.782,10.68 C46.982,12.525 44.944,11.407 44.239,10.175 C43.461,8.815 42.954,4.759 45.458,3.665 C46.9,3.035 48.053,3.335 48.918,4.566 L48.917,4.566 Z M48.767,5.793 C48.424,5.274 48.204,4.843 47.054,4.843 C45.904,4.843 45.184,6.253 45.434,8.421 C45.683,10.588 48.034,10.588 48.766,9.217 L48.766,5.793 L48.767,5.793 Z" id="Shape" fill="#FFFFFF" fill-rule="nonzero"></path>
                <g id="Group" transform="translate(69.000000, 0.000000)" fill="#FFFFFF" fill-rule="nonzero">
                    <path d="M2.749,7.848 L0.499,7.848 L0.499,0.408 L2.749,0.408 L2.749,7.848 Z M2.749,11.763 L0.499,11.763 L0.499,9.763 L2.749,9.763 L2.749,11.763 Z" id="Shape"></path>
                </g>
            </g>
            <g id="Group" transform="translate(252.547000, 88.252000)" fill="#2A3052" fill-rule="nonzero">
                <path d="M12.068,3.614 L12.164,4.597 C12.5529159,3.9171307 13.2819003,3.50374559 14.065,3.519 C14.762,3.519 15.301,3.709 15.681,4.153 C16.061,4.565 16.251,5.199 16.251,6.054 L16.251,10.174 L15.079,10.174 L15.079,6.086 C15.079,5.516 14.952,5.104 14.731,4.85 C14.509,4.597 14.161,4.502 13.716,4.502 C13.368,4.502 13.083,4.597 12.829,4.755 C12.564428,4.91942229 12.346206,5.1486587 12.195,5.421 L12.195,10.175 L11.023,10.175 L11.023,3.645 L12.068,3.615 L12.068,3.614 Z M6.523,1.249 L6.523,2.17 L2.103,2.17 L2.103,5.3 L5.868,5.3 L5.868,6.25 L2.102,6.25 L2.102,10.256 L0.804,10.256 L0.804,1.249 L6.523,1.249 Z M23.098,7.086 L18.895,7.086 C18.895,7.866 19.055,8.43 19.373,8.778 C19.791,9.235 20.233,9.401 20.836,9.341 C21.892,9.235 22.096,8.952 22.532,8.703 L22.977,9.466 C22.457,10.004 21.625,10.272 20.482,10.272 C18.767,10.272 17.722,8.851 17.652,7.159 C17.585,5.467 18.26,3.504 20.482,3.421 C22.365,3.471 23.237,4.693 23.098,7.086 Z M21.918,6.156 C21.906,4.966 21.428,4.37 20.483,4.37 C19.539,4.37 19.023,4.965 18.934,6.155 L21.918,6.155 L21.918,6.156 Z M7.889,3.623 L9.069,3.623 L9.069,10.12 L7.889,10.12 L7.889,3.623 Z M7.905,0.673 L7.905,1.845 L9.107,1.845 L9.107,0.673 L7.905,0.673 Z" id="Shape"></path>
            </g>
            <path d="M22.393,18.212 L22.406,18.25 C22.424,19.27 22.113,20.068 21.475,20.645 C20.836,21.222 19.955,21.511 18.831,21.511 C17.685,21.511 16.761,21.143 16.056,20.406 C15.352,19.669 15,18.716 15,17.548 L15,15.652 C15,14.489 15.343,13.537 16.03,12.795 C16.716,12.054 17.617,11.683 18.733,11.683 C19.896,11.683 20.806,11.968 21.462,12.536 C22.118,13.105 22.437,13.906 22.42,14.937 L22.406,14.977 L20.543,14.977 C20.543,14.364 20.396,13.908 20.1,13.609 C19.805,13.309 19.35,13.159 18.733,13.159 C18.16,13.159 17.713,13.39 17.391,13.852 C17.069,14.313 16.909,14.909 16.909,15.639 L16.909,17.549 C16.909,18.283 17.079,18.882 17.417,19.346 C17.757,19.81 18.227,20.041 18.831,20.041 C19.404,20.041 19.831,19.891 20.114,19.592 C20.396,19.292 20.537,18.832 20.537,18.212 L22.393,18.212 Z M25.647,21.372 L23.732,21.372 L23.732,14.274 L25.647,14.274 L25.647,21.372 Z M25.647,12.575 L23.732,12.575 L23.732,11.138 L25.647,11.138 L25.647,12.575 Z M27.72,21.372 L27.72,15.619 L26.664,15.619 L26.664,14.274 L27.72,14.274 L27.72,13.487 C27.72,12.69 27.95,12.077 28.41,11.647 C28.869,11.215 29.514,11 30.345,11 C30.510644,11.0002715 30.6760598,11.0123017 30.84,11.036 C31.008,11.06 31.193,11.094 31.394,11.138 L31.23,12.561 C31.1285842,12.5443463 31.0269041,12.5293443 30.925,12.516 C30.8108912,12.5018491 30.6959799,12.4951682 30.581,12.496 C30.271,12.496 30.035,12.581 29.876,12.752 C29.716,12.922 29.636,13.167 29.636,13.487 L29.636,14.274 L31.001,14.274 L31.001,15.619 L29.636,15.619 L29.636,21.372 L27.72,21.372 Z M35.639,15.92 L34.937,15.9 C34.653,15.9 34.419,15.96 34.235,16.078 C34.0487169,16.1991199 33.902551,16.3727789 33.815,16.577 L33.815,21.372 L31.907,21.372 L31.907,14.274 L33.685,14.274 L33.77,15.324 C33.936,14.952 34.152,14.662 34.416,14.454 C34.6763363,14.2478089 34.9999396,14.1379392 35.332,14.143 C35.428,14.143 35.516,14.15 35.597,14.166 C35.678,14.181 35.76,14.199 35.843,14.221 L35.64,15.921 L35.639,15.92 Z M40.822,21.372 C40.7506055,21.2058971 40.6904697,21.0351781 40.642,20.861 C40.5911602,20.6801639 40.554713,20.4955876 40.533,20.309 C40.3404224,20.6502729 40.0739092,20.9441208 39.753,21.169 C39.429,21.396 39.043,21.51 38.598,21.51 C37.854,21.51 37.281,21.319 36.879,20.936 C36.477,20.553 36.275,20.032 36.275,19.371 C36.275,18.676 36.543,18.137 37.079,17.754 C37.615,17.371 38.397,17.18 39.424,17.18 L40.5,17.18 L40.5,16.616 C40.5,16.275 40.41,16.01 40.231,15.822 C40.052,15.634 39.785,15.54 39.431,15.54 C39.121,15.54 38.881,15.615 38.713,15.766 C38.544,15.917 38.46,16.124 38.46,16.386 L36.617,16.386 L36.603,16.346 C36.573,15.748 36.834,15.231 37.387,14.796 C37.941,14.36 38.663,14.143 39.556,14.143 C40.409,14.143 41.098,14.357 41.626,14.785 C42.153,15.215 42.416,15.829 42.416,16.629 L42.416,19.562 C42.416,19.894 42.441,20.207 42.491,20.5 C42.541,20.793 42.621,21.084 42.731,21.372 L40.821,21.372 L40.822,21.372 Z M39.07,20.092 C39.403,20.092 39.7,20.01 39.962,19.844 C40.225,19.677 40.404,19.485 40.5,19.266 L40.5,18.263 L39.424,18.263 C39.018,18.263 38.71,18.363 38.503,18.564 C38.2988188,18.7561308 38.1854731,19.02569 38.191,19.306 C38.191,19.546 38.269,19.738 38.424,19.88 C38.579,20.022 38.794,20.093 39.07,20.093 L39.07,20.092 Z M47.343,21.372 L47.343,11.822 L50.676,11.822 C51.843,11.822 52.806,12.195 53.562,12.941 C54.319,13.686 54.697,14.643 54.697,15.811 L54.697,17.392 C54.697,18.564 54.319,19.521 53.562,20.262 C52.806,21.004 51.843,21.374 50.676,21.374 L47.343,21.374 L47.343,21.372 Z M49.259,13.296 L49.259,19.903 L50.676,19.903 C51.306,19.903 51.813,19.668 52.198,19.197 C52.583,18.727 52.775,18.125 52.775,17.39 L52.775,15.796 C52.775,15.066 52.583,14.466 52.198,13.998 C51.813,13.53 51.306,13.296 50.676,13.296 L49.259,13.296 Z M58.102,21.372 L56.187,21.372 L56.187,14.274 L58.102,14.274 L58.102,21.372 Z M58.102,12.575 L56.187,12.575 L56.187,11.138 L58.102,11.138 L58.102,12.575 Z M63.515,19.405 C63.515,19.195 63.413,19.014 63.21,18.863 C63.006,18.712 62.629,18.58 62.078,18.466 C61.247,18.3 60.616,18.048 60.185,17.711 C59.755,17.375 59.539,16.918 59.539,16.341 C59.539,15.732 59.797,15.214 60.313,14.785 C60.829,14.357 61.516,14.143 62.373,14.143 C63.27,14.143 63.988,14.357 64.528,14.785 C65.068,15.215 65.328,15.748 65.306,16.386 L65.293,16.426 L63.443,16.426 C63.452702,16.165556 63.3525561,15.9130141 63.167,15.73 C62.983,15.55 62.719,15.461 62.373,15.461 C62.067,15.461 61.824,15.538 61.645,15.691 C61.4730862,15.8274996 61.373516,16.0354908 61.375,16.255 C61.375,16.474 61.469,16.652 61.655,16.79 C61.841,16.927 62.218,17.051 62.786,17.16 C63.656,17.335 64.306,17.592 64.732,17.931 C65.158,18.271 65.372,18.737 65.372,19.331 C65.372,19.971 65.098,20.493 64.552,20.9 C64.004,21.307 63.282,21.51 62.386,21.51 C61.442,21.51 60.695,21.27 60.146,20.792 C59.596,20.312 59.336,19.767 59.362,19.155 L59.375,19.115 L61.127,19.115 C61.14,19.495 61.264,19.771 61.501,19.942 C61.737,20.112 62.045,20.198 62.426,20.198 C62.78,20.198 63.05,20.127 63.236,19.985 C63.4187196,19.8493102 63.5230368,19.6324502 63.515,19.405 Z M73.008,18.02 C73.008,19.07 72.765,19.914 72.279,20.552 C71.794,21.191 71.116,21.51 70.246,21.51 C69.874,21.51 69.544,21.441 69.256,21.303 C68.9639656,21.1629266 68.7095837,20.9551699 68.514,20.697 L68.514,24.101 L66.604,24.101 L66.604,14.274 L68.33,14.274 L68.442,15.114 C68.652,14.803 68.904,14.564 69.199,14.395 C69.5154718,14.2214372 69.8721588,14.1345077 70.233,14.143 C71.112,14.143 71.794,14.486 72.279,15.173 C72.765,15.859 73.008,16.763 73.008,17.883 L73.008,18.02 Z M71.092,17.882 C71.092,17.212 70.98,16.671 70.757,16.255 C70.534,15.84 70.193,15.632 69.734,15.632 C69.445,15.632 69.199,15.691 68.996,15.809 C68.7911123,15.928748 68.6240742,16.1037568 68.514,16.314 L68.514,19.424 C68.632,19.625 68.793,19.778 68.996,19.883 C69.199,19.988 69.45,20.04 69.747,20.04 C70.211,20.04 70.551,19.859 70.767,19.496 C70.984,19.133 71.092,18.641 71.092,18.02 L71.092,17.882 Z M78.374,21.372 C78.3026055,21.2058971 78.2424697,21.0351781 78.194,20.861 C78.143498,20.6801364 78.1073853,20.4955604 78.086,20.309 C77.8931352,20.6503778 77.6262725,20.9442343 77.305,21.169 C76.981,21.396 76.596,21.51 76.15,21.51 C75.407,21.51 74.834,21.319 74.431,20.936 C74.029,20.553 73.828,20.032 73.828,19.371 C73.828,18.676 74.096,18.137 74.631,17.754 C75.167,17.371 75.949,17.18 76.977,17.18 L78.053,17.18 L78.053,16.616 C78.053,16.275 77.963,16.01 77.783,15.822 C77.604,15.634 77.338,15.54 76.983,15.54 C76.673,15.54 76.433,15.615 76.265,15.766 C76.097,15.917 76.012,16.124 76.012,16.386 L74.169,16.386 L74.156,16.346 C74.126,15.748 74.386,15.231 74.94,14.796 C75.493,14.36 76.216,14.143 77.108,14.143 C77.961,14.143 78.651,14.357 79.178,14.785 C79.705,15.215 79.968,15.829 79.968,16.629 L79.968,19.562 C79.968,19.894 79.994,20.207 80.044,20.5 C80.094,20.793 80.174,21.084 80.284,21.372 L78.374,21.372 Z M76.623,20.092 C76.955,20.092 77.253,20.01 77.515,19.844 C77.777,19.677 77.957,19.485 78.053,19.266 L78.053,18.263 L76.977,18.263 C76.57,18.263 76.263,18.363 76.055,18.564 C75.8508188,18.7561308 75.7374731,19.02569 75.743,19.306 C75.743,19.546 75.821,19.738 75.976,19.88 C76.132,20.022 76.347,20.093 76.623,20.093 L76.623,20.092 Z M85.138,15.92 L84.436,15.9 C84.152,15.9 83.918,15.96 83.734,16.078 C83.5477169,16.1991199 83.401551,16.3727789 83.314,16.577 L83.314,21.372 L81.405,21.372 L81.405,14.274 L83.183,14.274 L83.268,15.324 C83.435,14.952 83.65,14.662 83.915,14.454 C84.1750691,14.2480274 84.4982812,14.1381706 84.83,14.143 C84.926,14.143 85.015,14.15 85.095,14.166 C85.176,14.181 85.258,14.199 85.341,14.221 L85.138,15.921 L85.138,15.92 Z M88.149,21.372 L86.234,21.372 L86.234,14.274 L88.149,14.274 L88.149,21.372 Z M88.149,12.575 L86.234,12.575 L86.234,11.138 L88.149,11.138 L88.149,12.575 Z" id="Shape" fill="#000000" fill-rule="nonzero"></path>
        </g>
    </g>
</svg>