<?xml version="1.0" encoding="UTF-8"?>
<svg width="299px" height="197px" viewBox="0 0 299 197" version="1.1" xmlns="http://www.w3.org/2000/svg" xmlns:xlink="http://www.w3.org/1999/xlink">
    <!-- Generator: Sketch 53.1 (72631) - https://sketchapp.com -->
    <title>odd</title>
    <desc>Created with Sketch.</desc>
    <g id="Page-1" stroke="none" stroke-width="1" fill="none" fill-rule="evenodd">
        <g id="odd">
            <polygon id="Path" fill="#F1F1F2" points="0 0 299 0 299 197 0 197"></polygon>
            <path d="M1.98671096,1.9798995 L1.98671096,195.020101 L297.013289,195.020101 L297.013289,1.9798995 L1.98671096,1.9798995 Z M299,0 L299,197 L0,197 L0,0 L299,0 Z" id="Path" fill="#C2C2C2" fill-rule="nonzero"></path>
            <path d="M4.57962025,54.9928773 L4.57962025,53.7817381 L294.988101,53.7817381 L294.988101,54.9928773 L4.57962025,54.9928773 Z M4.57962025,95.1884542 L4.57962025,93.977315 L294.988101,93.977315 L294.988101,95.1884542 L4.57962025,95.1884542 Z M4.57962025,135.346147 L4.57962025,134.135007 L294.988101,134.135007 L294.988101,135.346147 L4.57962025,135.346147 Z M4.57962025,155.424993 L4.57962025,154.213853 L294.988101,154.213853 L294.988101,155.424993 L4.57962025,155.424993 Z M4.57962025,175.503839 L4.57962025,174.292699 L294.988101,174.292699 L294.988101,175.503839 L4.57962025,175.503839 Z M39.0592405,34.3084615 L40.2703797,34.3084615 L40.2703797,192.590385 L39.0592405,192.590385 L39.0592405,34.3084615 Z M75.8097469,34.3084615 L77.0208861,34.3084615 L77.0208861,192.590385 L75.8097469,192.590385 L75.8097469,34.3084615 Z M112.560253,34.3084615 L113.771393,34.3084615 L113.771393,192.590385 L112.560253,192.590385 L112.560253,34.3084615 Z M149.272911,34.3084615 L150.484051,34.3084615 L150.484051,192.590385 L149.272911,192.590385 L149.272911,34.3084615 Z M186.023417,34.3084615 L187.234557,34.3084615 L187.234557,192.590385 L186.023417,192.590385 L186.023417,34.3084615 Z M222.773924,34.3084615 L223.985064,34.3084615 L223.985064,192.590385 L222.773924,192.590385 L222.773924,34.3084615 Z M259.52443,34.3084615 L260.73557,34.3084615 L260.73557,192.590385 L259.52443,192.590385 L259.52443,34.3084615 Z M4.57962025,115.2673 L4.57962025,114.056161 L294.988101,114.056161 L294.988101,115.2673 L4.57962025,115.2673 Z" id="Shape" fill="#DEDEDD" fill-rule="nonzero"></path>
            <polygon id="Path" fill="#293052" points="4.57962025 75.0717234 4.57962025 73.8605842 6.39632911 73.8605842 6.39632911 75.0717234"></polygon>
            <path d="M10.0297468,75.0717234 L10.0297468,73.8605842 L13.6631644,73.8605842 L13.6631644,75.0717234 L10.0297468,75.0717234 Z M17.2965821,75.0717234 L17.2965821,73.8605842 L20.9299997,73.8605842 L20.9299997,75.0717234 L17.2965821,75.0717234 Z M24.5634173,75.0717234 L24.5634173,73.8605842 L28.1968349,73.8605842 L28.1968349,75.0717234 L24.5634173,75.0717234 Z M31.8302525,75.0717234 L31.8302525,73.8605842 L35.4636701,73.8605842 L35.4636701,75.0717234 L31.8302525,75.0717234 Z M39.0970877,75.0717234 L39.0970877,73.8605842 L42.7305053,73.8605842 L42.7305053,75.0717234 L39.0970877,75.0717234 Z M46.3639229,75.0717234 L46.3639229,73.8605842 L49.9973405,73.8605842 L49.9973405,75.0717234 L46.3639229,75.0717234 Z M53.6307581,75.0717234 L53.6307581,73.8605842 L57.2641757,73.8605842 L57.2641757,75.0717234 L53.6307581,75.0717234 Z M60.8975933,75.0717234 L60.8975933,73.8605842 L64.5310109,73.8605842 L64.5310109,75.0717234 L60.8975933,75.0717234 Z M68.1644285,75.0717234 L68.1644285,73.8605842 L71.7978461,73.8605842 L71.7978461,75.0717234 L68.1644285,75.0717234 Z M75.4312638,75.0717234 L75.4312638,73.8605842 L79.0646814,73.8605842 L79.0646814,75.0717234 L75.4312638,75.0717234 Z M82.698099,75.0717234 L82.698099,73.8605842 L86.3315166,73.8605842 L86.3315166,75.0717234 L82.698099,75.0717234 Z M89.9649342,75.0717234 L89.9649342,73.8605842 L93.5983518,73.8605842 L93.5983518,75.0717234 L89.9649342,75.0717234 Z M97.2317694,75.0717234 L97.2317694,73.8605842 L100.865187,73.8605842 L100.865187,75.0717234 L97.2317694,75.0717234 Z M104.498605,75.0717234 L104.498605,73.8605842 L108.132022,73.8605842 L108.132022,75.0717234 L104.498605,75.0717234 Z M111.76544,75.0717234 L111.76544,73.8605842 L115.398857,73.8605842 L115.398857,75.0717234 L111.76544,75.0717234 Z M119.032275,75.0717234 L119.032275,73.8605842 L122.665693,73.8605842 L122.665693,75.0717234 L119.032275,75.0717234 Z M126.29911,75.0717234 L126.29911,73.8605842 L129.932528,73.8605842 L129.932528,75.0717234 L126.29911,75.0717234 Z M133.565945,75.0717234 L133.565945,73.8605842 L137.199363,73.8605842 L137.199363,75.0717234 L133.565945,75.0717234 Z M140.832781,75.0717234 L140.832781,73.8605842 L144.466198,73.8605842 L144.466198,75.0717234 L140.832781,75.0717234 Z M148.099616,75.0717234 L148.099616,73.8605842 L151.733033,73.8605842 L151.733033,75.0717234 L148.099616,75.0717234 Z M155.366451,75.0717234 L155.366451,73.8605842 L158.999869,73.8605842 L158.999869,75.0717234 L155.366451,75.0717234 Z M162.633286,75.0717234 L162.633286,73.8605842 L166.266704,73.8605842 L166.266704,75.0717234 L162.633286,75.0717234 Z M169.900122,75.0717234 L169.900122,73.8605842 L173.533539,73.8605842 L173.533539,75.0717234 L169.900122,75.0717234 Z M177.166957,75.0717234 L177.166957,73.8605842 L180.800374,73.8605842 L180.800374,75.0717234 L177.166957,75.0717234 Z M184.433792,75.0717234 L184.433792,73.8605842 L188.06721,73.8605842 L188.06721,75.0717234 L184.433792,75.0717234 Z M191.700627,75.0717234 L191.700627,73.8605842 L195.334045,73.8605842 L195.334045,75.0717234 L191.700627,75.0717234 Z M198.967462,75.0717234 L198.967462,73.8605842 L202.60088,73.8605842 L202.60088,75.0717234 L198.967462,75.0717234 Z M206.234298,75.0717234 L206.234298,73.8605842 L209.867715,73.8605842 L209.867715,75.0717234 L206.234298,75.0717234 Z M213.501133,75.0717234 L213.501133,73.8605842 L217.13455,73.8605842 L217.13455,75.0717234 L213.501133,75.0717234 Z M220.767968,75.0717234 L220.767968,73.8605842 L224.401386,73.8605842 L224.401386,75.0717234 L220.767968,75.0717234 Z M228.034803,75.0717234 L228.034803,73.8605842 L231.668221,73.8605842 L231.668221,75.0717234 L228.034803,75.0717234 Z M235.301638,75.0717234 L235.301638,73.8605842 L238.935056,73.8605842 L238.935056,75.0717234 L235.301638,75.0717234 Z M242.568474,75.0717234 L242.568474,73.8605842 L246.201891,73.8605842 L246.201891,75.0717234 L242.568474,75.0717234 Z M249.835309,75.0717234 L249.835309,73.8605842 L253.468726,73.8605842 L253.468726,75.0717234 L249.835309,75.0717234 Z M257.102144,75.0717234 L257.102144,73.8605842 L260.735562,73.8605842 L260.735562,75.0717234 L257.102144,75.0717234 Z M264.368979,75.0717234 L264.368979,73.8605842 L268.002397,73.8605842 L268.002397,75.0717234 L264.368979,75.0717234 Z M271.635814,75.0717234 L271.635814,73.8605842 L275.269232,73.8605842 L275.269232,75.0717234 L271.635814,75.0717234 Z M278.90265,75.0717234 L278.90265,73.8605842 L282.536067,73.8605842 L282.536067,75.0717234 L278.90265,75.0717234 Z M286.169485,75.0717234 L286.169485,73.8605842 L289.802903,73.8605842 L289.802903,75.0717234 L286.169485,75.0717234 Z" id="Path" fill="#293052" fill-rule="nonzero"></path>
            <polygon id="Path" fill="#293052" points="293.209241 75.0717234 293.209241 73.8605842 294.988101 73.8605842 294.988101 75.0717234"></polygon>
            <polygon id="Path" fill="#C2C2C2" points="2 30 2 28 297 28 297 30"></polygon>
            <path d="M76.1862917,81.9209243 L40.913118,115.955469 C40.1986062,116.64489 39.0604936,116.62455 38.3710722,115.910039 C37.6816508,115.195527 37.7019905,114.057414 38.4165022,113.367993 L75.1670086,77.9079929 C75.9493243,77.1531485 77.2173979,77.2599523 77.8624341,78.1350158 L113.640793,126.672343 L148.874604,105.431508 C149.503231,105.052537 150.299115,105.093795 150.885188,105.535733 L186.57703,132.449773 L258.983631,72.5130134 C259.748474,71.8798913 260.881749,71.9866723 261.514871,72.7515155 C262.147993,73.5163587 262.041212,74.6496336 261.276369,75.2827558 L187.775356,136.125448 C187.133819,136.6565 186.211537,136.677417 185.546584,136.175998 L149.690456,109.138075 L114.094004,130.59753 C113.298898,131.076863 112.26958,130.871922 111.718705,130.1246 L76.1862917,81.9209243 Z" id="Path" fill="#293052"></path>
            <path d="M188.650253,147.069423 L153.602912,147.069423 L148.077089,139 L142.778355,147.069423 L107.731013,147.069423 C105.118147,147.069423 103,149.189613 103,151.805 L103,176.316346 C103,178.931733 105.118147,181.051923 107.731013,181.051923 L188.650253,181.051923 C189.924552,181.082545 191.157281,180.59717 192.069229,179.705737 C192.981177,178.814303 193.495178,177.592241 193.49481,176.316346 L193.49481,151.842885 C193.505431,150.560431 192.995941,149.328506 192.082847,148.428812 C191.169753,147.529117 189.931145,147.038599 188.650253,147.069423 Z" id="Path" fill="#E88024"></path>
            <g id="Group" opacity="0.6" transform="translate(251.797468, 65.403846)" fill="#FFFFFF">
                <ellipse id="Oval" cx="8.3325316" cy="9.0623077" rx="8.13734177" ry="8.3725"></ellipse>
            </g>
            <path d="M260.13,84.049793 C254.959133,84.049793 250.781519,79.7514515 250.781519,74.4661538 C250.781519,69.1808561 254.959133,64.8825146 260.13,64.8825146 C265.300867,64.8825146 269.478481,69.1808561 269.478481,74.4661538 C269.478481,79.7514515 265.300867,84.049793 260.13,84.049793 Z M260.13,81.6275146 C263.947393,81.6275146 267.056203,78.4288642 267.056203,74.4661538 C267.056203,70.5034434 263.947393,67.304793 260.13,67.304793 C256.312607,67.304793 253.203797,70.5034434 253.203797,74.4661538 C253.203797,78.4288642 256.312607,81.6275146 260.13,81.6275146 Z" id="Oval" fill="#E88024" fill-rule="nonzero"></path>
            <g id="Group" opacity="0.6" transform="translate(31.278481, 106.076923)" fill="#FFFFFF">
                <ellipse id="Oval" cx="8.38632911" cy="8.58480769" rx="8.13734177" ry="8.3725"></ellipse>
            </g>
            <path d="M39.6648101,124.24537 C34.4939432,124.24537 30.3163291,119.947028 30.3163291,114.661731 C30.3163291,109.376433 34.4939432,105.078092 39.6648101,105.078092 C44.835677,105.078092 49.0132911,109.376433 49.0132911,114.661731 C49.0132911,119.947028 44.835677,124.24537 39.6648101,124.24537 Z M39.6648101,121.823092 C43.4822027,121.823092 46.5910126,118.624441 46.5910126,114.661731 C46.5910126,110.69902 43.4822027,107.50037 39.6648101,107.50037 C35.8474175,107.50037 32.7386076,110.69902 32.7386076,114.661731 C32.7386076,118.624441 35.8474175,121.823092 39.6648101,121.823092 Z" id="Oval" fill="#E88024" fill-rule="nonzero"></path>
            <polygon id="Path" fill="#E88024" points="247.56443 44.5751923 272.657722 44.5751923 272.657722 61.0928846 247.56443 61.0928846"></polygon>
            <polygon id="Path" fill="#E88024" transform="translate(260.127323, 61.120783) rotate(-45.000000) translate(-260.127323, -61.120783) " points="258.443083 59.4365422 261.813189 59.4349173 261.811564 62.8050232 258.441458 62.8066481"></polygon>
            <path d="M257.367089,53.4780769 L257.972658,47.8332692 L263.12,47.8332692 L263.12,49.0834615 L259.33519,49.0834615 L258.72962,52.0384615 C258.95032,51.8690188 259.19204,51.7289404 259.448734,51.6217308 C259.749325,51.5701354 260.056498,51.5701354 260.357089,51.6217308 C261.201243,51.5666407 262.024091,51.9016814 262.590127,52.5309615 C263.152859,53.2530777 263.435214,54.1547919 263.384937,55.0692308 C263.415306,55.9755835 263.119861,56.8627724 262.552278,57.5696154 C261.928305,58.2339888 261.038654,58.5818442 260.13,58.5167308 C259.348306,58.5408491 258.583556,58.2856865 257.972658,57.7969231 C257.376681,57.2766883 257.066867,56.5014063 257.14,55.7132692 L258.388987,55.7132692 C258.364447,56.1928278 258.543094,56.6605084 258.881013,57.0013462 C259.220907,57.3122361 259.669994,57.4756978 260.13,57.4559615 C260.655372,57.4862946 261.162972,57.2604769 261.492532,56.8498077 C261.844479,56.3536105 262.017931,55.7526194 261.984557,55.145 C262.012718,54.5614916 261.838936,53.9861199 261.492532,53.5159615 C261.170972,53.0910809 260.66209,52.8505438 260.13,52.8719231 C259.721864,52.8492524 259.315511,52.9410981 258.956709,53.1371154 C258.699531,53.3224002 258.512734,53.5895117 258.426835,53.8948077 L257.367089,53.4780769 Z" id="Path" fill="#FFFFFF"></path>
            <polygon id="Path" fill="#D5D3DA" points="137.350759 76.4740385 162.444051 76.4740385 162.444051 92.9917308 137.350759 92.9917308"></polygon>
            <polygon id="Path" fill="#D5D3DA" transform="translate(149.886510, 92.999499) rotate(-45.000000) translate(-149.886510, -92.999499) " points="148.202269 91.3152581 151.572375 91.3136332 151.57075 94.6837391 148.200644 94.685364"></polygon>
            <path d="M153.322658,89.9230769 L146.661392,89.9230769 L146.661392,89.0517308 L150.029873,85.2632692 C150.539522,84.7970349 150.996442,84.2761522 151.392405,83.71 C151.518665,83.264168 151.518665,82.7919858 151.392405,82.3461538 C151.402746,81.8757634 151.241254,81.4177604 150.938228,81.0580769 C150.648817,80.7108858 150.21651,80.5154624 149.764937,80.5276923 C149.196394,80.4799342 148.633789,80.6722286 148.213165,81.0580769 C147.862162,81.4819531 147.68616,82.02402 147.721139,82.5734615 L146.51,82.5734615 C146.466505,81.7379156 146.783528,80.9238979 147.380506,80.3382692 C148.069699,79.7069567 148.983426,79.3793359 149.916329,79.4290385 C150.725532,79.3855084 151.517731,79.6726156 152.111519,80.2246154 C152.660918,80.7611607 152.96257,81.5022933 152.944177,82.2703846 C152.93213,82.8600837 152.762213,83.435743 152.452152,83.9373077 C152.051494,84.5917238 151.582028,85.2013478 151.051772,85.7557692 L148.364557,88.6728846 L153.322658,88.6728846 L153.322658,89.9230769 Z" id="Path" fill="#293052"></path>
            <polygon id="Path" fill="#D5D3DA" points="27.0992405 84.4298077 52.1925316 84.4298077 52.1925316 100.9475 27.0992405 100.9475"></polygon>
            <polygon id="Path" fill="#D5D3DA" transform="translate(39.661484, 100.966252) rotate(-45.000000) translate(-39.661484, -100.966252) " points="37.9772434 99.282011 41.3473493 99.2803861 41.3457244 102.650492 37.9756185 102.652117"></polygon>
            <polygon id="Path" fill="#293052" points="40.4217722 97.9546154 39.0213924 97.9546154 39.0213924 89.0517308 36.9018987 89.0517308 36.9018987 88.0667308 40.3839241 87.6878846 40.3839241 97.9546154"></polygon>
            <path d="M176.689,161.026 C176.031,161.088 174.866,161.549 174.934,163.73 C175.003,165.91 175.956,166.423 176.689,166.423 C177.422,166.423 178.658,166.22 178.658,163.739 C178.658,161.258 177.346,160.964 176.688,161.026 L176.689,161.026 Z" id="Path"></path>
            <path d="M126.078125,166.1875 L127.828125,157.625 L129.789062,157.625 L127.164062,169 L125.273438,169 L123.109375,160.695312 L120.898438,169 L119,169 L116.375,157.625 L118.335938,157.625 L120.101562,166.171875 L122.273438,157.625 L123.929688,157.625 L126.078125,166.1875 Z M134.007812,166.28125 L135.726562,160.546875 L137.75,160.546875 L134.390625,170.28125 C133.874997,171.703132 133.000006,172.414062 131.765625,172.414062 C131.489582,172.414062 131.184898,172.367188 130.851562,172.273438 L130.851562,170.804688 L131.210938,170.828125 C131.690107,170.828125 132.05078,170.740886 132.292969,170.566406 C132.535157,170.391926 132.726562,170.09896 132.867188,169.6875 L133.140625,168.960938 L130.171875,160.546875 L132.21875,160.546875 L134.007812,166.28125 Z M138.507812,164.710938 C138.507812,163.398431 138.816403,162.350264 139.433594,161.566406 C140.050784,160.782548 140.869787,160.390625 141.890625,160.390625 C142.854171,160.390625 143.611976,160.726559 144.164062,161.398438 L144.25,160.546875 L145.960938,160.546875 L145.960938,168.742188 C145.960938,169.851568 145.615889,170.726559 144.925781,171.367188 C144.235674,172.007816 143.304693,172.328125 142.132812,172.328125 C141.513018,172.328125 140.907555,172.19922 140.316406,171.941406 C139.725257,171.683592 139.276043,171.346356 138.96875,170.929688 L139.867188,169.789062 C140.450524,170.481774 141.169267,170.828125 142.023438,170.828125 C142.653649,170.828125 143.15104,170.657554 143.515625,170.316406 C143.88021,169.975259 144.0625,169.473962 144.0625,168.8125 L144.0625,168.242188 C143.515622,168.851566 142.786463,169.15625 141.875,169.15625 C140.885412,169.15625 140.076826,168.763025 139.449219,167.976562 C138.821611,167.1901 138.507812,166.101569 138.507812,164.710938 Z M140.398438,164.875 C140.398438,165.723963 140.571613,166.391925 140.917969,166.878906 C141.264325,167.365888 141.744789,167.609375 142.359375,167.609375 C143.125004,167.609375 143.692706,167.281253 144.0625,166.625 L144.0625,162.90625 C143.703123,162.265622 143.140629,161.945312 142.375,161.945312 C141.749997,161.945312 141.264325,162.192706 140.917969,162.6875 C140.571613,163.182294 140.398438,163.911454 140.398438,164.875 Z M152.335938,162.28125 C152.085936,162.239583 151.828126,162.21875 151.5625,162.21875 C150.692704,162.21875 150.106772,162.55208 149.804688,163.21875 L149.804688,169 L147.90625,169 L147.90625,160.546875 L149.71875,160.546875 L149.765625,161.492188 C150.223961,160.757809 150.859371,160.390625 151.671875,160.390625 C151.94271,160.390625 152.166666,160.427083 152.34375,160.5 L152.335938,162.28125 Z M158.585938,169 C158.502604,168.838541 158.429688,168.575523 158.367188,168.210938 C157.763018,168.841149 157.023442,169.15625 156.148438,169.15625 C155.299475,169.15625 154.606774,168.914065 154.070312,168.429688 C153.533851,167.94531 153.265625,167.346358 153.265625,166.632812 C153.265625,165.731766 153.600257,165.040367 154.269531,164.558594 C154.938805,164.076821 155.895827,163.835938 157.140625,163.835938 L158.304688,163.835938 L158.304688,163.28125 C158.304688,162.843748 158.182293,162.493491 157.9375,162.230469 C157.692707,161.967447 157.320315,161.835938 156.820312,161.835938 C156.388019,161.835938 156.033856,161.944009 155.757812,162.160156 C155.481769,162.376303 155.34375,162.65104 155.34375,162.984375 L153.445312,162.984375 C153.445312,162.520831 153.598957,162.087242 153.90625,161.683594 C154.213543,161.279946 154.631508,160.963543 155.160156,160.734375 C155.688805,160.505207 156.278643,160.390625 156.929688,160.390625 C157.919276,160.390625 158.70833,160.63932 159.296875,161.136719 C159.88542,161.634117 160.1875,162.333329 160.203125,163.234375 L160.203125,167.046875 C160.203125,167.807295 160.309895,168.41406 160.523438,168.867188 L160.523438,169 L158.585938,169 Z M156.5,167.632812 C156.875002,167.632812 157.227863,167.541668 157.558594,167.359375 C157.889325,167.177082 158.13802,166.932293 158.304688,166.625 L158.304688,165.03125 L157.28125,165.03125 C156.578121,165.03125 156.049481,165.153645 155.695312,165.398438 C155.341144,165.64323 155.164062,165.989581 155.164062,166.4375 C155.164062,166.802085 155.285155,167.092447 155.527344,167.308594 C155.769532,167.524741 156.093748,167.632812 156.5,167.632812 Z M163.953125,160.546875 L164.007812,161.523438 C164.632816,160.768225 165.45312,160.390625 166.46875,160.390625 C168.229175,160.390625 169.125,161.398427 169.15625,163.414062 L169.15625,169 L167.257812,169 L167.257812,163.523438 C167.257812,162.986976 167.141928,162.589845 166.910156,162.332031 C166.678384,162.074217 166.299482,161.945312 165.773438,161.945312 C165.007809,161.945312 164.437502,162.291663 164.0625,162.984375 L164.0625,169 L162.164062,169 L162.164062,160.546875 L163.953125,160.546875 Z M176.140625,169 C176.057291,168.838541 175.984375,168.575523 175.921875,168.210938 C175.317705,168.841149 174.578129,169.15625 173.703125,169.15625 C172.854162,169.15625 172.161461,168.914065 171.625,168.429688 C171.088539,167.94531 170.820312,167.346358 170.820312,166.632812 C170.820312,165.731766 171.154945,165.040367 171.824219,164.558594 C172.493493,164.076821 173.450515,163.835938 174.695312,163.835938 L175.859375,163.835938 L175.859375,163.28125 C175.859375,162.843748 175.73698,162.493491 175.492188,162.230469 C175.247395,161.967447 174.875002,161.835938 174.375,161.835938 C173.942706,161.835938 173.588543,161.944009 173.3125,162.160156 C173.036457,162.376303 172.898438,162.65104 172.898438,162.984375 L171,162.984375 C171,162.520831 171.153644,162.087242 171.460938,161.683594 C171.768231,161.279946 172.186195,160.963543 172.714844,160.734375 C173.243492,160.505207 173.83333,160.390625 174.484375,160.390625 C175.473963,160.390625 176.263018,160.63932 176.851562,161.136719 C177.440107,161.634117 177.742187,162.333329 177.757812,163.234375 L177.757812,167.046875 C177.757812,167.807295 177.864582,168.41406 178.078125,168.867188 L178.078125,169 L176.140625,169 Z M174.054688,167.632812 C174.429689,167.632812 174.78255,167.541668 175.113281,167.359375 C175.444012,167.177082 175.692707,166.932293 175.859375,166.625 L175.859375,165.03125 L174.835938,165.03125 C174.132809,165.03125 173.604168,165.153645 173.25,165.398438 C172.895832,165.64323 172.71875,165.989581 172.71875,166.4375 C172.71875,166.802085 172.839843,167.092447 173.082031,167.308594 C173.32422,167.524741 173.648435,167.632812 174.054688,167.632812 Z M181.757812,165.648438 L180.125,165.648438 L179.945312,157.625 L181.945312,157.625 L181.757812,165.648438 Z M179.890625,168.101562 C179.890625,167.804686 179.986978,167.558595 180.179688,167.363281 C180.372397,167.167968 180.635415,167.070312 180.96875,167.070312 C181.302085,167.070312 181.565103,167.167968 181.757812,167.363281 C181.950522,167.558595 182.046875,167.804686 182.046875,168.101562 C182.046875,168.388022 181.953126,168.627603 181.765625,168.820312 C181.578124,169.013022 181.312502,169.109375 180.96875,169.109375 C180.624998,169.109375 180.359376,169.013022 180.171875,168.820312 C179.984374,168.627603 179.890625,168.388022 179.890625,168.101562 Z" id="Wygrana!" fill="#FFFFFF" fill-rule="nonzero"></path>
            <path d="M247.947754,101.041504 L246.644043,102.396484 L246.644043,106 L245.237793,106 L245.237793,95.3359375 L246.644043,95.3359375 L246.644043,100.609375 L251.382812,95.3359375 L253.082031,95.3359375 L248.885254,100.04541 L253.411621,106 L251.727051,106 L247.947754,101.041504 Z M254.070801,101.964355 C254.070801,101.187984 254.223387,100.489749 254.528564,99.8696289 C254.833742,99.2495086 255.258542,98.7709978 255.802979,98.434082 C256.347415,98.0971663 256.968747,97.9287109 257.666992,97.9287109 C258.746099,97.9287109 259.618893,98.3022424 260.2854,99.0493164 C260.951908,99.7963905 261.285156,100.790033 261.285156,102.030273 L261.285156,102.125488 C261.285156,102.896977 261.137453,103.589108 260.842041,104.201904 C260.546629,104.8147 260.12427,105.29199 259.574951,105.633789 C259.025632,105.975588 258.394535,106.146484 257.681641,106.146484 C256.607417,106.146484 255.737064,105.772953 255.070557,105.025879 C254.404049,104.278805 254.070801,103.290045 254.070801,102.05957 L254.070801,101.964355 Z M255.433105,102.125488 C255.433105,103.004399 255.636961,103.709958 256.044678,104.242188 C256.452395,104.774417 256.998043,105.040527 257.681641,105.040527 C258.370121,105.040527 258.91699,104.770755 259.322266,104.231201 C259.727541,103.691648 259.930176,102.93604 259.930176,101.964355 C259.930176,101.09521 259.723879,100.390872 259.311279,99.8513184 C258.89868,99.3117649 258.350589,99.0419922 257.666992,99.0419922 C256.998044,99.0419922 256.458498,99.3081028 256.04834,99.840332 C255.638182,100.372561 255.433105,101.134272 255.433105,102.125488 Z M264.266113,98.0751953 L264.310059,99.0712891 C264.91553,98.3095665 265.706538,97.9287109 266.683105,97.9287109 C268.357919,97.9287109 269.202637,98.8735257 269.217285,100.763184 L269.217285,106 L267.862305,106 L267.862305,100.755859 C267.857422,100.184567 267.726808,99.7622084 267.470459,99.4887695 C267.21411,99.2153307 266.814944,99.0786133 266.272949,99.0786133 C265.833494,99.0786133 265.447756,99.1957996 265.115723,99.4301758 C264.78369,99.664552 264.524903,99.9721661 264.339355,100.353027 L264.339355,106 L262.984375,106 L262.984375,98.0751953 L264.266113,98.0751953 Z M272.73291,106 L271.37793,106 L271.37793,98.0751953 L272.73291,98.0751953 L272.73291,106 Z M271.268066,95.9731445 C271.268066,95.7534169 271.335204,95.5678719 271.469482,95.4165039 C271.60376,95.265136 271.802733,95.1894531 272.066406,95.1894531 C272.330079,95.1894531 272.530273,95.265136 272.666992,95.4165039 C272.803712,95.5678719 272.87207,95.7534169 272.87207,95.9731445 C272.87207,96.1928722 272.803712,96.3759758 272.666992,96.5224609 C272.530273,96.668946 272.330079,96.7421875 272.066406,96.7421875 C271.802733,96.7421875 271.60376,96.668946 271.469482,96.5224609 C271.335204,96.3759758 271.268066,96.1928722 271.268066,95.9731445 Z M278.189453,106.146484 C277.115229,106.146484 276.241214,105.793705 275.567383,105.088135 C274.893551,104.382565 274.556641,103.438971 274.556641,102.257324 L274.556641,102.008301 C274.556641,101.222164 274.706786,100.520267 275.00708,99.9025879 C275.307375,99.284909 275.727292,98.8015154 276.266846,98.4523926 C276.806399,98.1032697 277.39111,97.9287109 278.020996,97.9287109 C279.051275,97.9287109 279.852048,98.268063 280.42334,98.9467773 C280.994632,99.6254917 281.280273,100.597162 281.280273,101.861816 L281.280273,102.425781 L275.911621,102.425781 C275.931152,103.207035 276.159422,103.838132 276.596436,104.319092 C277.033449,104.800051 277.588864,105.040527 278.262695,105.040527 C278.741213,105.040527 279.146483,104.942872 279.478516,104.747559 C279.810549,104.552245 280.101073,104.293459 280.350098,103.971191 L281.177734,104.615723 C280.513669,105.636236 279.517585,106.146484 278.189453,106.146484 Z M278.020996,99.0419922 C277.474118,99.0419922 277.015139,99.2409648 276.644043,99.638916 C276.272947,100.036867 276.043457,100.594723 275.955566,101.3125 L279.925293,101.3125 L279.925293,101.209961 C279.88623,100.521481 279.700685,99.988039 279.368652,99.6096191 C279.036619,99.2311993 278.587405,99.0419922 278.020996,99.0419922 Z M286.026367,105.040527 C286.509768,105.040527 286.932127,104.894044 287.293457,104.601074 C287.654787,104.308104 287.85498,103.941897 287.894043,103.502441 L289.175781,103.502441 C289.151367,103.956545 288.995119,104.38867 288.707031,104.798828 C288.418944,105.208986 288.034426,105.536132 287.553467,105.780273 C287.072507,106.024415 286.563479,106.146484 286.026367,106.146484 C284.94726,106.146484 284.089115,105.786381 283.451904,105.066162 C282.814694,104.345944 282.496094,103.360846 282.496094,102.11084 L282.496094,101.883789 C282.496094,101.112301 282.637694,100.426273 282.920898,99.8256836 C283.204103,99.2250947 283.610593,98.7587907 284.140381,98.4267578 C284.670169,98.0947249 285.296383,97.9287109 286.019043,97.9287109 C286.907719,97.9287109 287.646237,98.1948216 288.234619,98.7270508 C288.823001,99.25928 289.136719,99.9501911 289.175781,100.799805 L287.894043,100.799805 C287.85498,100.287107 287.66089,99.8659684 287.311768,99.536377 C286.962645,99.2067855 286.531741,99.0419922 286.019043,99.0419922 C285.330563,99.0419922 284.797121,99.2897924 284.418701,99.7854004 C284.040281,100.281008 283.851074,100.997554 283.851074,101.935059 L283.851074,102.191406 C283.851074,103.104497 284.039061,103.807615 284.415039,104.300781 C284.791018,104.793948 285.328122,105.040527 286.026367,105.040527 Z" id="Koniec" fill="#2A3052" fill-rule="nonzero"></path>
            <path d="M28.3798828,136.246582 C27.1738221,135.899901 26.2961453,135.473879 25.7468262,134.968506 C25.197507,134.463132 24.9228516,133.839359 24.9228516,133.097168 C24.9228516,132.25732 25.2585416,131.562747 25.9299316,131.013428 C26.6013217,130.464109 27.4741157,130.189453 28.5483398,130.189453 C29.2807654,130.189453 29.933835,130.331053 30.5075684,130.614258 C31.0813017,130.897462 31.5256332,131.288083 31.8405762,131.786133 C32.1555192,132.284182 32.3129883,132.82861 32.3129883,133.419434 L30.8994141,133.419434 C30.8994141,132.774899 30.694338,132.268312 30.2841797,131.899658 C29.8740214,131.531004 29.2954139,131.34668 28.5483398,131.34668 C27.854977,131.34668 27.3142109,131.499266 26.9260254,131.804443 C26.5378399,132.109621 26.34375,132.5332 26.34375,133.075195 C26.34375,133.509768 26.5280743,133.877196 26.8967285,134.17749 C27.2653827,134.477785 27.8928178,134.75244 28.7790527,135.001465 C29.6652876,135.25049 30.3586401,135.525145 30.8591309,135.825439 C31.3596216,136.125734 31.7307117,136.476072 31.9724121,136.876465 C32.2141125,137.276857 32.3349609,137.748044 32.3349609,138.290039 C32.3349609,139.154301 31.9980502,139.846433 31.3242188,140.366455 C30.6503873,140.886477 29.7495174,141.146484 28.621582,141.146484 C27.8891565,141.146484 27.2055696,141.006105 26.5708008,140.725342 C25.936032,140.444579 25.4465349,140.060061 25.1022949,139.571777 C24.7580549,139.083494 24.5859375,138.5293 24.5859375,137.90918 L25.9995117,137.90918 C25.9995117,138.553714 26.2375464,139.062742 26.713623,139.436279 C27.1896996,139.809816 27.8256796,139.996582 28.621582,139.996582 C29.3637732,139.996582 29.9326152,139.845216 30.328125,139.54248 C30.7236348,139.239745 30.9213867,138.827151 30.9213867,138.304688 C30.9213867,137.782224 30.7382831,137.378175 30.3720703,137.092529 C30.0058575,136.806883 29.3418017,136.524904 28.3798828,136.246582 Z M35.7626953,131.15625 L35.7626953,133.075195 L37.2421875,133.075195 L37.2421875,134.122559 L35.7626953,134.122559 L35.7626953,139.037109 C35.7626953,139.354494 35.8286126,139.592529 35.9604492,139.751221 C36.0922858,139.909913 36.3168929,139.989258 36.6342773,139.989258 C36.7905281,139.989258 37.0053697,139.959961 37.2788086,139.901367 L37.2788086,141 C36.9223615,141.097657 36.5756853,141.146484 36.2387695,141.146484 C35.6332978,141.146484 35.1767594,140.963381 34.8691406,140.597168 C34.5615219,140.230955 34.4077148,139.710941 34.4077148,139.037109 L34.4077148,134.122559 L32.9648438,134.122559 L32.9648438,133.075195 L34.4077148,133.075195 L34.4077148,131.15625 L35.7626953,131.15625 Z M43.7167969,141 C43.6386715,140.843749 43.5751956,140.565432 43.5263672,140.165039 C42.8964812,140.819339 42.1445356,141.146484 41.2705078,141.146484 C40.4892539,141.146484 39.8483912,140.925539 39.3479004,140.483643 C38.8474096,140.041746 38.597168,139.481449 38.597168,138.802734 C38.597168,137.977535 38.9108855,137.336672 39.5383301,136.880127 C40.1657746,136.423582 41.0483342,136.195312 42.1860352,136.195312 L43.5043945,136.195312 L43.5043945,135.572754 C43.5043945,135.099119 43.3627944,134.721925 43.0795898,134.441162 C42.7963853,134.160399 42.378909,134.02002 41.8271484,134.02002 C41.3437476,134.02002 40.9384782,134.142089 40.6113281,134.38623 C40.2841781,134.630372 40.1206055,134.92578 40.1206055,135.272461 L38.7583008,135.272461 C38.7583008,134.876951 38.8986802,134.494875 39.1794434,134.126221 C39.4602065,133.757567 39.841062,133.465821 40.3220215,133.250977 C40.8029809,133.036132 41.3315401,132.928711 41.9077148,132.928711 C42.8208053,132.928711 43.5361302,133.15698 44.0537109,133.613525 C44.5712917,134.070071 44.8398437,134.698726 44.859375,135.499512 L44.859375,139.146973 C44.859375,139.874515 44.9521475,140.453123 45.1376953,140.882812 L45.1376953,141 L43.7167969,141 Z M41.4682617,139.967285 C41.8930685,139.967285 42.2958965,139.857423 42.6767578,139.637695 C43.0576191,139.417968 43.3334952,139.132326 43.5043945,138.780762 L43.5043945,137.154785 L42.4423828,137.154785 C40.7822183,137.154785 39.9521484,137.64062 39.9521484,138.612305 C39.9521484,139.037111 40.0937486,139.369139 40.3769531,139.608398 C40.6601577,139.847657 41.0239236,139.967285 41.4682617,139.967285 Z M50.8139648,134.291016 C50.6088857,134.256836 50.3867199,134.239746 50.1474609,134.239746 C49.2587846,134.239746 48.6557633,134.61816 48.3383789,135.375 L48.3383789,141 L46.9833984,141 L46.9833984,133.075195 L48.3017578,133.075195 L48.3237305,133.990723 C48.7680686,133.282711 49.3979451,132.928711 50.2133789,132.928711 C50.4770521,132.928711 50.6772454,132.96289 50.8139648,133.03125 L50.8139648,134.291016 Z M53.8974609,131.15625 L53.8974609,133.075195 L55.3769531,133.075195 L55.3769531,134.122559 L53.8974609,134.122559 L53.8974609,139.037109 C53.8974609,139.354494 53.9633782,139.592529 54.0952148,139.751221 C54.2270514,139.909913 54.4516586,139.989258 54.769043,139.989258 C54.9252938,139.989258 55.1401354,139.959961 55.4135742,139.901367 L55.4135742,141 C55.0571271,141.097657 54.7104509,141.146484 54.3735352,141.146484 C53.7680634,141.146484 53.311525,140.963381 53.0039062,140.597168 C52.6962875,140.230955 52.5424805,139.710941 52.5424805,139.037109 L52.5424805,134.122559 L51.0996094,134.122559 L51.0996094,133.075195 L52.5424805,133.075195 L52.5424805,131.15625 L53.8974609,131.15625 Z" id="Start" fill="#2A3052" fill-rule="nonzero"></path>
            <path d="M24.3237305,16.4477539 C24.2407222,17.5952206 23.8171425,18.4985319 23.0529785,19.1577148 C22.2888145,19.8168978 21.2817445,20.1464844 20.0317383,20.1464844 C18.6645439,20.1464844 17.5891152,19.6862839 16.8054199,18.7658691 C16.0217246,17.8454544 15.6298828,16.5820393 15.6298828,14.9755859 L15.6298828,14.3237305 C15.6298828,13.2983347 15.8105451,12.3950234 16.171875,11.6137695 C16.5332049,10.8325156 17.0495572,10.2331564 17.7209473,9.81567383 C18.3923373,9.39819127 19.1723588,9.18945312 20.0610352,9.18945312 C21.2915101,9.18945312 22.2827111,9.51903967 23.034668,10.1782227 C23.7866249,10.8374056 24.2211908,11.7626894 24.3383789,12.9541016 L22.1411133,12.9541016 C22.0874021,12.2656216 21.8957536,11.766359 21.5661621,11.4562988 C21.2365706,11.1462387 20.7348667,10.9912109 20.0610352,10.9912109 C19.3286096,10.9912109 18.7805194,11.2536595 18.416748,11.7785645 C18.0529767,12.3034694 17.866211,13.1176703 17.8564453,14.2211914 L17.8564453,15.0268555 C17.8564453,16.179205 18.0310041,17.0214817 18.380127,17.5537109 C18.7292498,18.0859402 19.2797814,18.3520508 20.0317383,18.3520508 C20.7104526,18.3520508 21.2170393,18.197023 21.5515137,17.8869629 C21.885988,17.5769027 22.0776365,17.0971712 22.1264648,16.4477539 L24.3237305,16.4477539 Z M28.5864258,17.0043945 L30.0512695,12.0751953 L32.3217773,12.0751953 L29.1357422,21.2304688 L28.9599609,21.6479492 C28.4863258,22.6831106 27.7050836,23.2006836 26.6162109,23.2006836 C26.3085922,23.2006836 25.9960953,23.1542973 25.6787109,23.0615234 L25.6787109,21.4575195 L26.0009766,21.4648438 C26.4013692,21.4648438 26.7004385,21.4038092 26.8981934,21.2817383 C27.0959483,21.1596674 27.250976,20.9570327 27.3632812,20.6738281 L27.6123047,20.0219727 L24.8364258,12.0751953 L27.1142578,12.0751953 L28.5864258,17.0043945 Z M33.7353516,20 L33.7353516,13.6279297 L32.5561523,13.6279297 L32.5561523,12.0751953 L33.7353516,12.0751953 L33.7353516,11.4013672 C33.7353516,10.5126909 33.990476,9.8230005 34.5007324,9.33227539 C35.0109889,8.84155028 35.7250931,8.59619141 36.6430664,8.59619141 C36.9360366,8.59619141 37.2949198,8.64501904 37.7197266,8.74267578 L37.6977539,10.3833008 C37.5219718,10.3393552 37.3071302,10.3173828 37.0532227,10.3173828 C36.2573202,10.3173828 35.859375,10.6909142 35.859375,11.4379883 L35.859375,12.0751953 L37.434082,12.0751953 L37.434082,13.6279297 L35.859375,13.6279297 L35.859375,20 L33.7353516,20 Z M42.9858398,14.0600586 C42.6977525,14.0209959 42.4438488,14.0014648 42.2241211,14.0014648 C41.4233358,14.0014648 40.8984387,14.2724582 40.6494141,14.8144531 L40.6494141,20 L38.5327148,20 L38.5327148,12.0751953 L40.5322266,12.0751953 L40.5908203,13.0200195 C41.0156271,12.2924768 41.6040001,11.9287109 42.355957,11.9287109 C42.5903332,11.9287109 42.8100576,11.9604489 43.0151367,12.0239258 L42.9858398,14.0600586 Z M48.5961914,20 C48.4985347,19.8095694 48.4277346,19.5727553 48.3837891,19.2895508 C47.8710912,19.8608427 47.2045939,20.1464844 46.3842773,20.1464844 C45.6079063,20.1464844 44.9646022,19.9218772 44.4543457,19.4726562 C43.9440892,19.0234353 43.6889648,18.4570347 43.6889648,17.7734375 C43.6889648,16.9335896 44.000241,16.2890647 44.6228027,15.8398438 C45.2453644,15.3906228 46.1450136,15.1635742 47.3217773,15.1586914 L48.2958984,15.1586914 L48.2958984,14.7045898 C48.2958984,14.3383771 48.2019052,14.0454113 48.013916,13.8256836 C47.8259268,13.6059559 47.5292989,13.4960938 47.1240234,13.4960938 C46.7675763,13.4960938 46.4880381,13.5815421 46.2854004,13.7524414 C46.0827627,13.9233407 45.9814453,14.1577134 45.9814453,14.4555664 L43.8647461,14.4555664 C43.8647461,13.9965797 44.0063462,13.5717793 44.2895508,13.1811523 C44.5727553,12.7905254 44.9731419,12.484132 45.4907227,12.2619629 C46.0083034,12.0397938 46.5893522,11.9287109 47.2338867,11.9287109 C48.2104541,11.9287109 48.9855928,12.1740698 49.5593262,12.6647949 C50.1330595,13.15552 50.4199219,13.8452104 50.4199219,14.7338867 L50.4199219,18.1689453 C50.4248047,18.9209022 50.5297841,19.4897442 50.7348633,19.8754883 L50.7348633,20 L48.5961914,20 Z M46.8457031,18.527832 C47.1582047,18.527832 47.4462877,18.4582526 47.7099609,18.3190918 C47.9736341,18.1799309 48.1689447,17.9931652 48.2958984,17.7587891 L48.2958984,16.3964844 L47.5048828,16.3964844 C46.4453072,16.3964844 45.881348,16.7626917 45.8129883,17.4951172 L45.8056641,17.6196289 C45.8056641,17.8833021 45.8984366,18.1005851 46.0839844,18.2714844 C46.2695322,18.4423837 46.5234359,18.527832 46.8457031,18.527832 Z M57.7294922,12.0751953 L57.7954102,12.9907227 C58.3618192,12.2827113 59.121089,11.9287109 60.0732422,11.9287109 C60.9130901,11.9287109 61.5380839,12.1752905 61.9482422,12.668457 C62.3584005,13.1616236 62.5683593,13.8989209 62.578125,14.8803711 L62.578125,20 L60.4614258,20 L60.4614258,14.9316406 C60.4614258,14.4824196 60.3637705,14.1564952 60.168457,13.9538574 C59.9731436,13.7512197 59.6484398,13.6499023 59.1943359,13.6499023 C58.5986298,13.6499023 58.151857,13.9038061 57.8540039,14.4116211 L57.8540039,20 L55.7373047,20 L55.7373047,12.0751953 L57.7294922,12.0751953 Z M66.4160156,20 L64.2919922,20 L64.2919922,12.0751953 L66.4160156,12.0751953 L66.4160156,20 Z M64.1674805,10.0244141 C64.1674805,9.70702966 64.2736806,9.44580181 64.486084,9.24072266 C64.6984874,9.03564351 64.9877911,8.93310547 65.3540039,8.93310547 C65.7153338,8.93310547 66.0034169,9.03564351 66.2182617,9.24072266 C66.4331065,9.44580181 66.5405273,9.70702966 66.5405273,10.0244141 C66.5405273,10.3466813 66.4318859,10.6103505 66.2145996,10.8154297 C65.9973134,11.0205088 65.710451,11.1230469 65.3540039,11.1230469 C64.9975568,11.1230469 64.7106944,11.0205088 64.4934082,10.8154297 C64.276122,10.6103505 64.1674805,10.3466813 64.1674805,10.0244141 Z M71.8066406,20.1464844 C70.6445254,20.1464844 69.69849,19.7900426 68.9685059,19.0771484 C68.2385217,18.3642542 67.8735352,17.4145567 67.8735352,16.2280273 L67.8735352,16.0229492 C67.8735352,15.2270468 68.0273422,14.515384 68.3349609,13.8879395 C68.6425797,13.2604949 69.0783663,12.7771013 69.642334,12.4377441 C70.2063016,12.098387 70.8496058,11.9287109 71.5722656,11.9287109 C72.6562554,11.9287109 73.5095184,12.2705044 74.1320801,12.9541016 C74.7546418,13.6376987 75.065918,14.6069273 75.065918,15.8618164 L75.065918,16.7260742 L70.0195312,16.7260742 C70.087891,17.2436549 70.2941877,17.6586898 70.6384277,17.9711914 C70.9826677,18.283693 71.4184544,18.4399414 71.9458008,18.4399414 C72.7612345,18.4399414 73.3984352,18.1445342 73.8574219,17.5537109 L74.8974609,18.7182617 C74.5800765,19.1674827 74.1503933,19.517821 73.6083984,19.7692871 C73.0664035,20.0207532 72.4658236,20.1464844 71.8066406,20.1464844 Z M71.5649414,13.6425781 C71.1450174,13.6425781 70.8044447,13.7841783 70.5432129,14.0673828 C70.2819811,14.3505874 70.1147465,14.7558567 70.0415039,15.2832031 L72.9858398,15.2832031 L72.9858398,15.1147461 C72.9760742,14.6459938 72.8491223,14.2834485 72.6049805,14.0270996 C72.3608386,13.7707507 72.0141624,13.6425781 71.5649414,13.6425781 Z M83.4008789,16.1108398 C83.4008789,17.3315491 83.1237821,18.3093225 82.5695801,19.0441895 C82.0153781,19.7790564 81.2670946,20.1464844 80.324707,20.1464844 C79.5239218,20.1464844 78.8769556,19.8681668 78.3837891,19.3115234 L78.3837891,23.046875 L76.2670898,23.046875 L76.2670898,12.0751953 L78.2299805,12.0751953 L78.3032227,12.8515625 C78.8159205,12.236325 79.4848592,11.9287109 80.3100586,11.9287109 C81.286626,11.9287109 82.0458957,12.2900354 82.5878906,13.0126953 C83.1298855,13.7353552 83.4008789,14.731439 83.4008789,16.0009766 L83.4008789,16.1108398 Z M81.2841797,15.9570312 C81.2841797,15.2197229 81.1535658,14.6508809 80.892334,14.2504883 C80.6311022,13.8500957 80.2514673,13.6499023 79.753418,13.6499023 C79.0893521,13.6499023 78.6328137,13.9038061 78.3837891,14.4116211 L78.3837891,17.65625 C78.6425794,18.1787135 79.1040006,18.4399414 79.7680664,18.4399414 C80.7788136,18.4399414 81.2841797,17.612313 81.2841797,15.9570312 Z M89.3041992,20 C89.2065425,19.8095694 89.1357424,19.5727553 89.0917969,19.2895508 C88.579099,19.8608427 87.9126018,20.1464844 87.0922852,20.1464844 C86.3159141,20.1464844 85.67261,19.9218772 85.1623535,19.4726562 C84.6520971,19.0234353 84.3969727,18.4570347 84.3969727,17.7734375 C84.3969727,16.9335896 84.7082488,16.2890647 85.3308105,15.8398438 C85.9533723,15.3906228 86.8530215,15.1635742 88.0297852,15.1586914 L89.0039062,15.1586914 L89.0039062,14.7045898 C89.0039062,14.3383771 88.909913,14.0454113 88.7219238,13.8256836 C88.5339346,13.6059559 88.2373067,13.4960938 87.8320312,13.4960938 C87.4755842,13.4960938 87.1960459,13.5815421 86.9934082,13.7524414 C86.7907705,13.9233407 86.6894531,14.1577134 86.6894531,14.4555664 L84.5727539,14.4555664 C84.5727539,13.9965797 84.7143541,13.5717793 84.9975586,13.1811523 C85.2807631,12.7905254 85.6811498,12.484132 86.1987305,12.2619629 C86.7163112,12.0397938 87.2973601,11.9287109 87.9418945,11.9287109 C88.9184619,11.9287109 89.6936006,12.1740698 90.267334,12.6647949 C90.8410673,13.15552 91.1279297,13.8452104 91.1279297,14.7338867 L91.1279297,18.1689453 C91.1328125,18.9209022 91.2377919,19.4897442 91.4428711,19.8754883 L91.4428711,20 L89.3041992,20 Z M87.5537109,18.527832 C87.8662125,18.527832 88.1542956,18.4582526 88.4179688,18.3190918 C88.6816419,18.1799309 88.8769525,17.9931652 89.0039062,17.7587891 L89.0039062,16.3964844 L88.2128906,16.3964844 C87.153315,16.3964844 86.5893558,16.7626917 86.5209961,17.4951172 L86.5136719,17.6196289 C86.5136719,17.8833021 86.6064444,18.1005851 86.7919922,18.2714844 C86.97754,18.4423837 87.2314437,18.527832 87.5537109,18.527832 Z M97.2070312,14.0600586 C96.9189439,14.0209959 96.6650402,14.0014648 96.4453125,14.0014648 C95.6445272,14.0014648 95.1196302,14.2724582 94.8706055,14.8144531 L94.8706055,20 L92.7539062,20 L92.7539062,12.0751953 L94.753418,12.0751953 L94.8120117,13.0200195 C95.2368185,12.2924768 95.8251916,11.9287109 96.5771484,11.9287109 C96.8115246,11.9287109 97.031249,11.9604489 97.2363281,12.0239258 L97.2070312,14.0600586 Z M100.656738,18.293457 L104.53125,18.293457 L104.53125,20 L97.9541016,20 L97.9541016,18.7109375 L101.682129,13.7890625 L98.0639648,13.7890625 L98.0639648,12.0751953 L104.414062,12.0751953 L104.414062,13.3276367 L100.656738,18.293457 Z M108.815918,17.0043945 L110.280762,12.0751953 L112.55127,12.0751953 L109.365234,21.2304688 L109.189453,21.6479492 C108.715818,22.6831106 107.934576,23.2006836 106.845703,23.2006836 C106.538084,23.2006836 106.225588,23.1542973 105.908203,23.0615234 L105.908203,21.4575195 L106.230469,21.4648438 C106.630861,21.4648438 106.929931,21.4038092 107.127686,21.2817383 C107.32544,21.1596674 107.480468,20.9570327 107.592773,20.6738281 L107.841797,20.0219727 L105.065918,12.0751953 L107.34375,12.0751953 L108.815918,17.0043945 Z M117.678223,17.8100586 C117.678223,17.5512682 117.55005,17.3474129 117.293701,17.1984863 C117.037352,17.0495598 116.625979,16.9165045 116.05957,16.7993164 C114.174795,16.4038066 113.232422,15.6030334 113.232422,14.3969727 C113.232422,13.6938441 113.524167,13.1066918 114.107666,12.635498 C114.691165,12.1643043 115.454097,11.9287109 116.396484,11.9287109 C117.402349,11.9287109 118.206784,12.165525 118.809814,12.6391602 C119.412845,13.1127953 119.714355,13.7280236 119.714355,14.4848633 L117.597656,14.4848633 C117.597656,14.1821274 117.500001,13.9318858 117.304688,13.7341309 C117.109374,13.536376 116.804201,13.4375 116.38916,13.4375 C116.032713,13.4375 115.756837,13.5180656 115.561523,13.6791992 C115.36621,13.8403328 115.268555,14.0454089 115.268555,14.2944336 C115.268555,14.5288098 115.379638,14.7180169 115.601807,14.8620605 C115.823976,15.0061042 116.198728,15.1306147 116.726074,15.2355957 C117.253421,15.3405767 117.697752,15.4589837 118.059082,15.5908203 C119.177252,16.0009786 119.736328,16.7114207 119.736328,17.722168 C119.736328,18.4448278 119.426273,19.0295388 118.806152,19.4763184 C118.186032,19.9230979 117.385259,20.1464844 116.403809,20.1464844 C115.739743,20.1464844 115.150149,20.0280774 114.63501,19.7912598 C114.11987,19.5544422 113.715822,19.2297384 113.422852,18.8171387 C113.129881,18.404539 112.983398,17.9589868 112.983398,17.4804688 L114.990234,17.4804688 C115.009766,17.8564472 115.148924,18.1445302 115.407715,18.3447266 C115.666505,18.5449229 116.013181,18.6450195 116.447754,18.6450195 C116.853029,18.6450195 117.159423,18.568116 117.366943,18.4143066 C117.574464,18.2604973 117.678223,18.0590833 117.678223,17.8100586 Z M123.632812,10.1269531 L123.632812,12.0751953 L124.987793,12.0751953 L124.987793,13.6279297 L123.632812,13.6279297 L123.632812,17.5830078 C123.632812,17.875978 123.688964,18.0859369 123.80127,18.2128906 C123.913575,18.3398444 124.128416,18.4033203 124.445801,18.4033203 C124.680177,18.4033203 124.887694,18.3862306 125.068359,18.3520508 L125.068359,19.9560547 C124.653318,20.0830084 124.226076,20.1464844 123.786621,20.1464844 C122.302239,20.1464844 121.54541,19.3969802 121.516113,17.8979492 L121.516113,13.6279297 L120.358887,13.6279297 L120.358887,12.0751953 L121.516113,12.0751953 L121.516113,10.1269531 L123.632812,10.1269531 Z M130.759277,20 C130.661621,19.8095694 130.590821,19.5727553 130.546875,19.2895508 C130.034177,19.8608427 129.36768,20.1464844 128.547363,20.1464844 C127.770992,20.1464844 127.127688,19.9218772 126.617432,19.4726562 C126.107175,19.0234353 125.852051,18.4570347 125.852051,17.7734375 C125.852051,16.9335896 126.163327,16.2890647 126.785889,15.8398438 C127.40845,15.3906228 128.3081,15.1635742 129.484863,15.1586914 L130.458984,15.1586914 L130.458984,14.7045898 C130.458984,14.3383771 130.364991,14.0454113 130.177002,13.8256836 C129.989013,13.6059559 129.692385,13.4960938 129.287109,13.4960938 C128.930662,13.4960938 128.651124,13.5815421 128.448486,13.7524414 C128.245849,13.9233407 128.144531,14.1577134 128.144531,14.4555664 L126.027832,14.4555664 C126.027832,13.9965797 126.169432,13.5717793 126.452637,13.1811523 C126.735841,12.7905254 127.136228,12.484132 127.653809,12.2619629 C128.171389,12.0397938 128.752438,11.9287109 129.396973,11.9287109 C130.37354,11.9287109 131.148679,12.1740698 131.722412,12.6647949 C132.296145,13.15552 132.583008,13.8452104 132.583008,14.7338867 L132.583008,18.1689453 C132.587891,18.9209022 132.69287,19.4897442 132.897949,19.8754883 L132.897949,20 L130.759277,20 Z M129.008789,18.527832 C129.321291,18.527832 129.609374,18.4582526 129.873047,18.3190918 C130.13672,18.1799309 130.332031,17.9931652 130.458984,17.7587891 L130.458984,16.3964844 L129.667969,16.3964844 C128.608393,16.3964844 128.044434,16.7626917 127.976074,17.4951172 L127.96875,17.6196289 C127.96875,17.8833021 128.061523,18.1005851 128.24707,18.2714844 C128.432618,18.4423837 128.686522,18.527832 129.008789,18.527832 Z" id="Cyfranieparzysta" fill="#000000" fill-rule="nonzero"></path>
        </g>
    </g>
</svg>