<svg width="300" height="199" viewBox="0 0 300 199" xmlns="http://www.w3.org/2000/svg"><title>Polish over</title><g fill="none" fill-rule="evenodd"><path fill="#F1F2F2" fill-rule="nonzero" d="M0 0h300v199H0z"/><path d="M39.125 55.375V74.75H75.25V55.375H39.125zm0-1H75.25V34h1v20.375h36.125V34h1v20.375H149.5V34h1v20.375h36.125V34h1v20.375h36.125V34h1v20.375h36.125V34h1v20.375H299.5v1h-37.625V74.75H299.5v1h-37.625v19.375H299.5v1h-37.625V115.5H299.5v1h-37.625v19.375H299.5v1h-37.625v19.375H299.5v1h-37.625v19.375H299.5v1h-37.625V199h-1v-21.375H224.75V199h-1v-21.375h-36.125V199h-1v-21.375H150.5V199h-1v-21.375h-36.125V199h-1v-21.375H76.25V199h-1v-21.375H39.125V199h-1v-21.375H1.5v-1h36.625V157.25H1.5v-1h36.625v-19.375H1.5v-1h36.625V116.5H1.5v-1h36.625V96.125H1.5v-1h36.625V75.75H1.5v-1h36.625V55.375H1.5v-1h36.625V34h1v20.375zm221.75 1H224.75V74.75h36.125V55.375zm-37.125 0h-36.125V74.75h36.125V55.375zm-37.125 0H150.5V74.75h36.125V55.375zm-37.125 0h-36.125V74.75H149.5V55.375zm-37.125 0H76.25V74.75h36.125V55.375zM39.125 75.75v19.375H75.25V75.75H39.125zm221.75 0H224.75v19.375h36.125V75.75zm-37.125 0h-36.125v19.375h36.125V75.75zm-37.125 0H150.5v19.375h36.125V75.75zm-37.125 0h-36.125v19.375H149.5V75.75zm-37.125 0H76.25v19.375h36.125V75.75zm-73.25 20.375V115.5H75.25V96.125H39.125zm221.75 0H224.75V115.5h36.125V96.125zm-37.125 0h-36.125V115.5h36.125V96.125zm-37.125 0H150.5V115.5h36.125V96.125zm-37.125 0h-36.125V115.5H149.5V96.125zm-37.125 0H76.25V115.5h36.125V96.125zM39.125 116.5v19.375H75.25V116.5H39.125zm221.75 0H224.75v19.375h36.125V116.5zm-37.125 0h-36.125v19.375h36.125V116.5zm-37.125 0H150.5v19.375h36.125V116.5zm-37.125 0h-36.125v19.375H149.5V116.5zm-37.125 0H76.25v19.375h36.125V116.5zm-73.25 20.375v19.375H75.25v-19.375H39.125zm221.75 0H224.75v19.375h36.125v-19.375zm-37.125 0h-36.125v19.375h36.125v-19.375zm-37.125 0H150.5v19.375h36.125v-19.375zm-37.125 0h-36.125v19.375H149.5v-19.375zm-37.125 0H76.25v19.375h36.125v-19.375zm-73.25 20.375v19.375H75.25V157.25H39.125zm221.75 0H224.75v19.375h36.125V157.25zm-37.125 0h-36.125v19.375h36.125V157.25zm-37.125 0H150.5v19.375h36.125V157.25zm-37.125 0h-36.125v19.375H149.5V157.25zm-37.125 0H76.25v19.375h36.125V157.25z" fill="#DFDEDE" fill-rule="nonzero"/><path stroke="#C2C2C2" stroke-width="2" d="M1 1h298v197H1z"/><path fill="#C2C2C2" fill-rule="nonzero" d="M0 33h300v2H0z"/><g transform="translate(2 50.94)"><path d="M.62 47.228h1.834" stroke="#293052" stroke-width="1.215" stroke-linejoin="round"/><path d="M6.124 47.228h284.199" stroke="#293052" stroke-width="1.215" stroke-linejoin="round" stroke-dasharray="3.646"/><path d="M292.158 47.228h1.796" stroke="#293052" stroke-width="1.215" stroke-linejoin="round"/><path stroke="#293052" stroke-width="3.608" stroke-linecap="round" stroke-linejoin="round" d="M221.624 47.228l-32.075 33.11-42.855-22.943-43.505 25.592-30.01-15.114-37.121-31.552"/><path d="M254.349 69.704l.688-6.778h6.04v1.48h-4.626l-.382 3.467c.26-.19.542-.348.84-.467a3.083 3.083 0 0 1 1.071-.195 3.22 3.22 0 0 1 2.638 1.09 4.536 4.536 0 0 1 .956 3.04 4.378 4.378 0 0 1-.956 2.96 3.558 3.558 0 0 1-2.829 1.13 3.777 3.777 0 0 1-2.561-.858 2.989 2.989 0 0 1-.994-2.532h1.49a2.087 2.087 0 0 0 .574 1.558c.406.377.943.573 1.491.546a1.897 1.897 0 0 0 1.606-.74c.36-.636.496-1.379.382-2.104a3.119 3.119 0 0 0-.573-1.948 1.897 1.897 0 0 0-1.606-.74 2.522 2.522 0 0 0-1.376.312 1.712 1.712 0 0 0-.65.896l-1.223-.117zm6.078 21.152h1.644v1.324h-1.644v2.844h-1.644V92.14h-5.428v-.935l5.314-8.53h1.72v8.18h.038zm-5.314 0h3.823v-5.804.428l-3.823 5.376zm.841 18.23h1.415a1.89 1.89 0 0 0 1.529-.545c.331-.447.494-1 .459-1.559a2.288 2.288 0 0 0-.497-1.597 1.966 1.966 0 0 0-1.53-.545 2.08 2.08 0 0 0-1.529.584c-.39.403-.599.954-.573 1.52h-1.415a3.026 3.026 0 0 1 .994-2.377 3.78 3.78 0 0 1 2.715-.973 3.777 3.777 0 0 1 2.676.895 3.345 3.345 0 0 1 .994 2.61 2.96 2.96 0 0 1-1.797 2.688 2.68 2.68 0 0 1 1.53 1.13 3.713 3.713 0 0 1-.65 4.401 4.006 4.006 0 0 1-2.753.974 4.115 4.115 0 0 1-2.753-.896 2.947 2.947 0 0 1-1.032-2.454h1.567c-.036.58.172 1.147.574 1.558a2.193 2.193 0 0 0 1.605.585 2.23 2.23 0 0 0 1.644-.585c.517-.501.76-1.229.65-1.947a1.932 1.932 0 0 0-.518-1.693 1.851 1.851 0 0 0-1.66-.528h-1.645v-1.246zm5.773 27.073h-7.837v-1.169l3.823-4.48a11.35 11.35 0 0 0 1.452-1.908c.244-.441.375-.936.383-1.442a2.325 2.325 0 0 0-.535-1.558 1.744 1.744 0 0 0-1.415-.623 2.382 2.382 0 0 0-1.835.662 2.641 2.641 0 0 0-.612 1.83H253.7a3.502 3.502 0 0 1 1.032-2.687 4.045 4.045 0 0 1 2.982-1.09 3.517 3.517 0 0 1 2.6.973c.638.648.984 1.537.955 2.454a3.95 3.95 0 0 1-.573 2.026 12.986 12.986 0 0 1-1.644 2.181l-3.173 3.506h5.81v1.325h.039zm0-113.705a17.38 17.38 0 0 0-2.944 4.713 21.452 21.452 0 0 0-1.108 4.986v1.324h-1.72v-1.324a18.383 18.383 0 0 1 1.414-5.298 20.24 20.24 0 0 1 2.752-4.48h-6.575V21.13h8.18v1.325zm-.459-18.114a2.761 2.761 0 0 1-.535 1.675c-.369.501-.874.88-1.453 1.09a3.821 3.821 0 0 1 1.682 1.17c.408.518.624 1.166.612 1.83.058 1-.354 1.969-1.109 2.61a4.969 4.969 0 0 1-5.696 0 3.224 3.224 0 0 1-1.07-2.61c-.01-.664.207-1.31.611-1.83a3.556 3.556 0 0 1 1.644-1.17 3.065 3.065 0 0 1-1.414-1.09 2.842 2.842 0 0 1-.497-1.675c-.05-.94.314-1.855.994-2.493a3.778 3.778 0 0 1 2.6-.896c.945-.04 1.871.28 2.599.896a3.145 3.145 0 0 1 1.032 2.493zm-1.3 5.726a2.243 2.243 0 0 0-2.293-2.337 2.233 2.233 0 0 0-1.644.662 2.282 2.282 0 0 0-.65 1.675 2.163 2.163 0 0 0 .65 1.636 2.637 2.637 0 0 0 3.326 0c.427-.428.65-1.026.611-1.636zm-.19-5.687a2.126 2.126 0 0 0-.574-1.519 2 2 0 0 0-2.83 0 2.167 2.167 0 0 0-.534 1.52c-.032.559.161 1.107.535 1.518a2.074 2.074 0 0 0 2.829 0c.387-.405.594-.954.573-1.519z" fill="#808184" fill-rule="nonzero"/><path d="M186.07 99.23h-35.4l-5.581-8.296-5.353 8.297h-35.4c-2.64 0-4.779 2.18-4.779 4.869v25.203c0 2.689 2.14 4.869 4.779 4.869h81.735a4.731 4.731 0 0 0 3.453-1.384 4.915 4.915 0 0 0 1.44-3.485v-25.164a4.916 4.916 0 0 0-1.426-3.51 4.731 4.731 0 0 0-3.467-1.398z" fill="#E88024" fill-rule="nonzero"/><ellipse cx="8.545" cy="8.687" rx="8.219" ry="8.609" opacity=".6" transform="translate(213.079 38.541)" fill="#FFF" fill-rule="nonzero"/><ellipse stroke="#E88024" stroke-width="2.43" cx="221.624" cy="47.228" rx="8.219" ry="8.609"/><path fill="#E88024" fill-rule="nonzero" d="M244.753 38.152h28.863v19.32h-28.863z"/><path d="M258.592 41.385c.42-.047.842-.047 1.262 0 .393.094.777.224 1.147.39l-.421 1.791-.994-.272h-.994a2.164 2.164 0 0 0-1.759.857 3.476 3.476 0 0 0-.611 2.337 2.784 2.784 0 0 1 1.032-.662 3.759 3.759 0 0 1 1.415-.234 3.035 3.035 0 0 1 2.523 1.168c.636.862.96 1.922.917 3a4.292 4.292 0 0 1-1.147 3.077 3.787 3.787 0 0 1-2.943 1.208 4.015 4.015 0 0 1-3.135-1.325 5.245 5.245 0 0 1-1.185-3.661v-2.415a5.318 5.318 0 0 1 1.376-3.896 4.616 4.616 0 0 1 3.517-1.363zm-.573 6.116a2.708 2.708 0 0 0-1.147.233c-.29.126-.54.327-.727.585v.818c-.051.79.136 1.579.536 2.259a1.6 1.6 0 0 0 1.376.779c.49-.002.94-.27 1.185-.701.346-.502.533-1.1.535-1.714a2.765 2.765 0 0 0-.459-1.675 1.443 1.443 0 0 0-1.3-.623v.039z" fill="#FFF" fill-rule="nonzero"/><path fill="#E88024" fill-rule="nonzero" d="M248.27 47.812l-3.364 3.428-5.238-3.428 5.238-3.389z"/><path d="M246.053 79.209h23.129" stroke="#293052" stroke-width="1.215" stroke-linejoin="round"/></g><path d="M274.464 15.811h-1.367v-1.443h1.405v1.443h-.038zm0 6.19h-1.367v-1.443h1.405V22h-.038zm5.962-4.633l.608-5.658h5.164v1.253h-3.797l-.342 2.886c.223-.157.466-.285.722-.38.301-.051.61-.051.911 0a2.772 2.772 0 0 1 2.24.912c.565.724.848 1.627.798 2.544a3.797 3.797 0 0 1-.835 2.506 3.076 3.076 0 0 1-2.43.95 3.304 3.304 0 0 1-2.431-.95 2.468 2.468 0 0 1-.836-2.088h1.253c-.024.48.155.95.494 1.29.356.37.856.564 1.367.533.601.058 1.185-.22 1.52-.722.355-.496.53-1.1.493-1.709a2.582 2.582 0 0 0-.494-1.633 1.633 1.633 0 0 0-1.367-.645 2.203 2.203 0 0 0-1.177.228 1.405 1.405 0 0 0-.532.759l-1.329-.076z" fill="#293052" fill-rule="nonzero"/><path d="M20.417 18.232l.013.04c.017 1.022-.294 1.823-.935 2.402-.64.579-1.524.868-2.652.868-1.15 0-2.077-.37-2.783-1.108-.707-.74-1.06-1.695-1.06-2.866v-1.902c0-1.167.344-2.123 1.033-2.866.689-.744 1.593-1.116 2.711-1.116 1.167 0 2.08.286 2.738.856.658.57.978 1.373.96 2.408l-.012.04h-1.87c0-.614-.147-1.072-.443-1.372-.297-.3-.754-.45-1.373-.45-.574 0-1.023.23-1.345.693-.323.463-.484 1.06-.484 1.794v1.915c0 .737.17 1.338.51 1.803.34.465.813.697 1.418.697.575 0 1.004-.15 1.287-.45.283-.301.424-.763.424-1.386h1.863zm3.81.185l.079.394h.04l1.361-4.527h2.067l-2.89 8.186a3.769 3.769 0 0 1-.822 1.287c-.346.349-.866.523-1.56.523-.162 0-.312-.013-.45-.04a10.266 10.266 0 0 1-.504-.111l.224-1.402.184.026c.066.009.125.013.178.013.316 0 .56-.077.73-.233.172-.156.303-.35.395-.583l.224-.552-2.527-7.114h2.067l1.204 4.133zm4.902 2.987v-5.771H28.07v-1.35h1.06v-.789c0-.798.23-1.414.69-1.846.461-.432 1.108-.648 1.942-.648.162 0 .328.012.497.036.169.024.354.058.556.102l-.165 1.428a9.501 9.501 0 0 0-.306-.046A2.648 2.648 0 0 0 32 12.5c-.312 0-.548.086-.708.257-.16.171-.24.417-.24.737v.79h1.369v1.349H31.05v5.771H29.13zm7.943-5.468l-.704-.02c-.285 0-.52.06-.704.178a1.126 1.126 0 0 0-.421.5v4.81h-1.915v-7.12h1.783l.086 1.053c.167-.373.383-.664.648-.872.266-.209.572-.313.918-.313.097 0 .186.008.267.023.08.016.163.034.246.056l-.204 1.705zm5.2 5.468a4.042 4.042 0 0 1-.182-.513 3.57 3.57 0 0 1-.108-.553 2.634 2.634 0 0 1-.783.862c-.325.228-.711.342-1.159.342-.745 0-1.32-.192-1.724-.575-.403-.384-.605-.907-.605-1.57 0-.697.269-1.238.806-1.622.537-.384 1.322-.576 2.353-.576h1.079v-.566c0-.342-.09-.607-.27-.796-.18-.189-.447-.283-.803-.283-.311 0-.552.076-.72.227-.17.151-.254.359-.254.622h-1.849l-.013-.04c-.03-.6.231-1.12.786-1.556.555-.437 1.28-.655 2.175-.655.856 0 1.548.215 2.076.645.53.43.793 1.046.793 1.85v2.94c0 .334.026.648.076.942.05.294.13.586.24.875h-1.915zm-1.758-1.283c.334 0 .632-.083.895-.25.263-.167.443-.36.54-.58v-1.006h-1.08c-.407 0-.716.1-.924.303a.995.995 0 0 0-.313.743c0 .242.078.434.234.576.156.143.372.214.648.214zm20.091 1.283h-1.921v-7.12h1.921v7.12zm0-8.825h-1.921v-1.44h1.921v1.44zm4.666 8.963c-1.062 0-1.89-.325-2.487-.977-.597-.651-.895-1.49-.895-2.517v-.263c0-1.066.29-1.94.868-2.62.58-.68 1.376-1.017 2.39-1.013.956 0 1.69.293 2.2.879.511.585.767 1.374.767 2.366v.993h-4.245l-.02.04c.031.487.18.882.445 1.184.265.303.66.454 1.181.454.43 0 .795-.044 1.096-.131.3-.088.61-.222.931-.402l.52 1.185c-.285.232-.671.428-1.158.586a5.136 5.136 0 0 1-1.593.236zm-.125-5.91c-.386 0-.683.134-.892.399-.208.265-.334.618-.378 1.056l.013.033h2.343v-.145c0-.416-.086-.744-.257-.983-.17-.24-.447-.36-.829-.36zm2.066 5.496c-.236.232-.41.43-.52.592a.987.987 0 0 0-.164.566c0 .118.037.225.112.32.075.094.226.14.454.14.123 0 .231-.012.326-.039.094-.026.192-.057.293-.092l.23 1.014a2.692 2.692 0 0 1-.53.207 2.586 2.586 0 0 1-.694.082c-.474 0-.863-.124-1.168-.372-.305-.248-.458-.593-.458-1.036 0-.338.101-.66.303-.964.202-.305.518-.576.948-.813l.868.395zm4.43-2.705h-.488v2.981h-1.921V11.138h1.921v5.824h.428l1.705-2.678h2.224l-2.317 3.244 2.633 3.876h-2.211l-1.975-2.98zm8.66 1.007c0-.21-.102-.392-.306-.543-.204-.151-.583-.284-1.136-.398-.833-.167-1.466-.419-1.898-.757-.432-.338-.648-.796-.648-1.375 0-.61.259-1.13.776-1.56.518-.43 1.207-.645 2.067-.645.899 0 1.62.215 2.161.645.542.43.802.965.78 1.606l-.013.04h-1.856a.932.932 0 0 0-.276-.698c-.184-.18-.45-.27-.796-.27-.308 0-.551.077-.73.23a.716.716 0 0 0-.27.566c0 .22.093.398.279.537.186.138.565.262 1.135.371.873.176 1.524.434 1.951.774.428.34.642.808.642 1.405 0 .64-.274 1.164-.823 1.572-.548.408-1.272.612-2.171.612-.948 0-1.697-.24-2.248-.72-.55-.48-.812-1.028-.786-1.642l.013-.04h1.757c.013.382.138.659.375.83.237.17.547.256.928.256.356 0 .626-.071.813-.214a.694.694 0 0 0 .28-.582zm5.245.5h3.527v1.474h-5.916v-1.132l3.389-4.5h-3.284v-1.488h5.699v1.099l-3.415 4.547zm8.936 1.474a4.042 4.042 0 0 1-.18-.513 3.57 3.57 0 0 1-.11-.553 2.634 2.634 0 0 1-.782.862c-.325.228-.711.342-1.159.342-.745 0-1.32-.192-1.724-.575-.403-.384-.605-.907-.605-1.57 0-.697.268-1.238.806-1.622.537-.384 1.322-.576 2.353-.576h1.079v-.566c0-.342-.09-.607-.27-.796-.18-.189-.448-.283-.803-.283-.311 0-.552.076-.72.227-.17.151-.254.359-.254.622h-1.85l-.012-.04c-.03-.6.231-1.12.786-1.556.555-.437 1.28-.655 2.175-.655.856 0 1.548.215 2.076.645.529.43.793 1.046.793 1.85v2.94c0 .334.026.648.076.942.05.294.13.586.24.875h-1.915zm-1.757-1.283c.334 0 .632-.083.895-.25.263-.167.443-.36.54-.58v-1.006h-1.08c-.407 0-.716.1-.924.303a.995.995 0 0 0-.313.743c0 .242.078.434.234.576.156.143.372.214.648.214z" fill="#020202" fill-rule="nonzero"/><path d="M197.462 17.863c0 1.114-.345 2.038-1.036 2.772-.69.735-1.586 1.102-2.688 1.102-1.064 0-1.929-.367-2.594-1.102-.666-.734-.999-1.658-.999-2.772V16.24c0-1.11.333-2.034.999-2.772.665-.739 1.53-1.108 2.594-1.108 1.102 0 1.998.368 2.688 1.105.691.736 1.036 1.661 1.036 2.775v1.622zm-1.233-1.634c0-.835-.225-1.519-.676-2.053-.45-.534-1.055-.801-1.815-.801-.718 0-1.29.267-1.718.8-.428.535-.642 1.22-.642 2.054v1.634c0 .843.214 1.531.642 2.065.428.534 1 .801 1.718.801.764 0 1.37-.266 1.818-.798.449-.532.673-1.221.673-2.068v-1.634zm6.779 3.555a.822.822 0 0 0-.31-.663c-.206-.171-.598-.322-1.173-.451-.797-.171-1.41-.411-1.838-.72-.427-.309-.641-.722-.641-1.24 0-.55.235-1.021.704-1.414.47-.392 1.078-.588 1.825-.588.767 0 1.39.209 1.865.626.476.417.703.903.682 1.458l-.012.038h-1.177c0-.292-.128-.557-.385-.795s-.581-.357-.973-.357c-.434 0-.759.098-.974.294a.918.918 0 0 0-.322.701c0 .267.093.474.279.62.185.146.568.28 1.148.4.83.176 1.46.424 1.89.745.43.322.645.741.645 1.259 0 .6-.243 1.09-.73 1.47-.485.38-1.12.57-1.905.57-.864 0-1.544-.219-2.04-.657-.497-.438-.733-.95-.708-1.534l.013-.037h1.176c.021.438.184.758.489.96.304.203.661.304 1.07.304.438 0 .781-.093 1.03-.278.248-.186.372-.423.372-.71zm4.482-6.584v1.633h1.283v.914h-1.283v4.112c0 .317.065.54.197.67.131.13.305.194.522.194.071 0 .15-.01.238-.028.088-.019.16-.039.22-.06l.168.845a1.09 1.09 0 0 1-.407.185c-.179.048-.356.072-.532.072-.5 0-.899-.151-1.195-.454-.296-.302-.444-.777-.444-1.424v-4.112h-1.077v-.914h1.077V13.2h1.233zm6.766 8.406a10.02 10.02 0 0 1-.097-.542 3.974 3.974 0 0 1-.041-.472c-.23.325-.529.597-.898.816-.37.22-.767.329-1.193.329-.705 0-1.242-.18-1.611-.541-.37-.361-.554-.859-.554-1.493 0-.647.262-1.153.785-1.518.524-.365 1.234-.548 2.132-.548h1.339v-.67c0-.396-.121-.71-.363-.941-.242-.232-.584-.348-1.026-.348-.401 0-.724.1-.97.3-.247.2-.37.44-.37.72l-1.17.013-.013-.038c-.03-.492.201-.943.692-1.352.49-.409 1.123-.613 1.9-.613.767 0 1.385.195 1.852.585.467.39.701.953.701 1.687v3.261c0 .242.013.476.038.701.025.225.07.447.137.664h-1.27zm-2.047-.902c.446 0 .85-.114 1.208-.344.359-.23.593-.492.701-.789V18.47h-1.383c-.497 0-.894.125-1.193.375-.298.25-.447.545-.447.883 0 .3.094.538.282.713.187.176.465.263.832.263zm6.647-7.504v1.633h1.283v.914h-1.283v4.112c0 .317.066.54.197.67.132.13.306.194.523.194.071 0 .15-.01.238-.028.088-.019.16-.039.219-.06l.169.845a1.09 1.09 0 0 1-.407.185c-.18.048-.357.072-.532.072-.5 0-.9-.151-1.195-.454-.297-.302-.445-.777-.445-1.424v-4.112h-1.076v-.914h1.076V13.2h1.233zm3.706 1.633l.087 1.008a2.46 2.46 0 0 1 .848-.836c.34-.198.728-.297 1.162-.297.73 0 1.295.214 1.696.642.4.427.6 1.088.6 1.98v4.276h-1.232v-4.25c0-.597-.118-1.02-.354-1.271-.236-.25-.596-.376-1.08-.376-.38 0-.702.077-.967.229a1.66 1.66 0 0 0-.629.641v5.027h-1.233v-6.773h1.102zm7.517 6.773h-1.233v-6.773h1.233v6.773zm0-8.507h-1.233v-1.258h1.233V13.1zm6.059 8.507a10.02 10.02 0 0 1-.097-.542 3.974 3.974 0 0 1-.04-.472c-.23.325-.53.597-.899.816-.37.22-.767.329-1.192.329-.706 0-1.243-.18-1.612-.541-.37-.361-.554-.859-.554-1.493 0-.647.262-1.153.785-1.518.524-.365 1.235-.548 2.132-.548H236v-.67c0-.396-.122-.71-.364-.941-.242-.232-.584-.348-1.026-.348-.401 0-.724.1-.97.3-.247.2-.37.44-.37.72l-1.17.013-.013-.038c-.03-.492.201-.943.692-1.352.49-.409 1.123-.613 1.9-.613.767 0 1.385.195 1.852.585.468.39.701.953.701 1.687v3.261c0 .242.013.476.038.701.025.225.07.447.137.664h-1.27zm-2.047-.902c.447 0 .85-.114 1.208-.344.359-.23.593-.492.701-.789V18.47h-1.383c-.497 0-.894.125-1.193.375-.298.25-.447.545-.447.883 0 .3.094.538.282.713.187.176.465.263.832.263zm10.81.07c.38 0 .711-.127.995-.38.284-.252.426-.562.426-.929h1.114l.018.038c.017.584-.233 1.102-.75 1.555a2.654 2.654 0 0 1-1.803.679c-.952 0-1.686-.323-2.204-.97-.517-.647-.776-1.452-.776-2.416v-.263c0-.956.26-1.758.78-2.407s1.252-.973 2.2-.973c.755 0 1.374.234 1.856.701.482.467.714 1.041.697 1.721l-.012.038h-1.12c0-.413-.135-.765-.404-1.055a1.329 1.329 0 0 0-1.017-.435c-.605 0-1.047.235-1.324.704-.278.47-.416 1.038-.416 1.706v.263c0 .68.136 1.254.41 1.721.273.467.716.701 1.33.701zm6.09-1.678l.219.85h.038l1.664-5.113h1.371l-2.848 7.812a3.512 3.512 0 0 1-.735 1.189c-.32.338-.75.507-1.293.507-.1 0-.227-.012-.381-.035a3.979 3.979 0 0 1-.357-.065l.125-.97c-.025-.005.049 0 .222.012.173.013.283.019.329.019.263 0 .478-.117.644-.35a3.64 3.64 0 0 0 .42-.777l.294-.707-2.516-6.635h1.377l1.427 4.263zm4.97 2.51v-5.859h-1.058v-.914h1.058v-.857c0-.722.188-1.28.566-1.675.378-.394.905-.591 1.58-.591.142 0 .285.011.43.034.143.023.303.056.478.097l-.15.94a2.771 2.771 0 0 0-.607-.063c-.36 0-.626.107-.801.322-.176.215-.263.527-.263.936v.857h1.227v.914h-1.227v5.859h-1.233zm6.91-5.684l-.632-.037c-.326 0-.6.077-.823.231a1.486 1.486 0 0 0-.517.651v4.839h-1.233v-6.773h1.102l.119.99a2.35 2.35 0 0 1 .71-.82c.282-.197.606-.295.973-.295a1.742 1.742 0 0 1 .47.069l-.17 1.145zm5.445 5.684a10.02 10.02 0 0 1-.097-.542 3.974 3.974 0 0 1-.04-.472c-.23.325-.53.597-.899.816-.369.22-.766.329-1.192.329-.705 0-1.242-.18-1.612-.541-.369-.361-.554-.859-.554-1.493 0-.647.262-1.153.786-1.518s1.234-.548 2.131-.548h1.34v-.67c0-.396-.121-.71-.363-.941-.242-.232-.585-.348-1.027-.348-.4 0-.724.1-.97.3-.246.2-.37.44-.37.72l-1.17.013-.012-.038c-.03-.492.201-.943.691-1.352.49-.409 1.124-.613 1.9-.613.768 0 1.385.195 1.853.585.467.39.7.953.7 1.687v3.261c0 .242.013.476.038.701.025.225.071.447.138.664h-1.27zm-2.046-.902c.446 0 .849-.114 1.208-.344.358-.23.592-.492.7-.789V18.47h-1.383c-.496 0-.894.125-1.192.375-.298.25-.448.545-.448.883 0 .3.094.538.282.713.188.176.465.263.833.263z" fill="#2A3052" fill-rule="nonzero"/><g fill="#FFF" fill-rule="nonzero"><path d="M181.778 168.378h-2.067v-6.839h2.067zM181.778 171.976h-2.067v-1.837h2.067z"/><g><path d="M160.355 163.368h1.738l.087 1.266c.712-1.062 1.635-1.534 2.77-1.416.658.068 2.044.283 2.457 2.15.152.684.12 1.84.108 3.411-.004.61-.004 1.666 0 3.169h-1.907v-5.375c0-.632-.177-1.337-.707-1.604-.728-.367-2.1-.213-2.65.712v6.267h-1.896v-8.58zM150.107 163.051c-.08.76-.169 1.383-.264 1.873-.955-.062-1.946-.153-2.38.963l.012 6.002h-1.965v-8.768h1.748c.084.585.136 1.012.156 1.28.604-1.128 1.502-1.578 2.693-1.35zM153.346 165.658c-.6-.004-1.23-.004-1.888 0 0-.947.677-2.664 3.39-2.664 2.711 0 3.362 1.863 3.435 2.264.074.4-.189 6.025.379 6.664l-2.015.002c-.166-.57-.25-.99-.25-1.263-.314.384-.854 1.085-1.685 1.343-.83.257-2.717.395-3.49-1.415-.509-1.193-.184-2.535.773-3.15 1.581-1.016 3.754-.676 4.403-.676.083-1.812-.458-2.234-1.686-2.234-.818 0-1.274.376-1.366 1.13zm3.051 2.343a32.687 32.687 0 0 0-1.99.017c-.79.07-1.494.654-1.434 1.487.071.993 1.2 1.176 2.084.89.742-.241 1.26-.862 1.34-1.126v-1.268zM171.651 165.658c-.6-.004-1.23-.004-1.888 0 0-.947.678-2.664 3.39-2.664 2.711 0 3.362 1.863 3.436 2.264.073.4-.19 6.025.378 6.664l-2.014.002c-.167-.57-.25-.99-.25-1.263-.314.384-.855 1.085-1.685 1.343-.831.257-2.718.395-3.49-1.415-.51-1.193-.185-2.535.772-3.15 1.581-1.016 3.755-.676 4.403-.676.084-1.812-.457-2.234-1.685-2.234-.82 0-1.275.376-1.367 1.13zm3.051 2.343a32.687 32.687 0 0 0-1.989.017c-.79.07-1.495.654-1.435 1.487.072.993 1.2 1.176 2.085.89.741-.241 1.259-.862 1.34-1.126v-1.268zM141.628 164.347l.198-1.114h1.608v8.911c.005 3.106-3.482 4.295-6.686 2.744.184-.916.285-1.428.303-1.537 1.396.467 4.87 1.634 4.428-2.233-1.994 2.044-4.252.805-5.033-.559-.861-1.506-1.423-5.999 1.35-7.21 1.598-.699 2.875-.366 3.832.998zm-.167 1.358c-.38-.574-.622-1.053-1.897-1.053-1.274 0-2.071 1.564-1.795 3.964.277 2.4 2.882 2.4 3.692.882v-3.793zM126.897 163.237h2.05l1.921 6.146 1.96-6.146h2.096c-2.143 6.127-3.335 9.502-3.577 10.125-.362.934-1.29 2.787-3.811 2.025.122-.82.188-1.32.198-1.5 1.025.143 1.614 0 2.275-1.985-.647-2.001-1.684-4.89-3.112-8.665zM118.602 160.173h1.713l2.33 8.56 1.777-8.56h2.075l-2.825 11.81h-1.744l-2.424-8.356-2.396 8.356h-1.792l-2.802-11.81h2.074l1.764 8.56z"/></g></g><path fill="#000" d="M54.518 18.258h.035l1.13-5.79h1.764L55.455 21h-1.588l-1.57-5.62h-.035L50.697 21H49.11l-1.992-8.531h1.764l1.137 5.783h.035l1.535-5.783h1.383z"/></g></svg>