<svg width="304" height="203" viewBox="0 0 304 203" xmlns="http://www.w3.org/2000/svg"><title>polish put spread</title><g transform="translate(2 2)" fill="none" fill-rule="evenodd"><path stroke="#C2C2C2" stroke-width="2.455" fill="#F1F2F2" fill-rule="nonzero" d="M300 0v199H0V0z"/><path d="M2.954 55.442h294.553M2.954 96.89h294.553M2.954 138.334h294.553M2.954 179.74h294.553M38.529 34.739V198M75.815 34.739V198M113.06 34.739V198m37.284-163.261V198m37.247-163.261V198M224.84 34.739V198M2.954 117.592h294.553" stroke="#DFDEDE" stroke-width="1.227"/><path d="M248.821 42.647v136.877" stroke="#2A3052" stroke-width="1.014" stroke-linecap="square"/><path d="M2.954 69.896h294.553M2.954 151.386h294.553" stroke="#15212D" stroke-width="1.148" fill="#D8D8D8" fill-rule="nonzero"/><path d="M.826 29.914h298.809" stroke="#C2C2C2" stroke-width="2.455" fill="#F1F2F2" fill-rule="nonzero"/><path d="M21.218 112.322L90.2 78.023l88.492 9.11 70.401-30.049" stroke="#6E7287" stroke-width="1.52" stroke-linecap="round" stroke-dasharray="10.135"/><path d="M20.538 112.403l69.21-16.954 97.391 22.256 62.169-7.786m-227.935 2.568l80.692 30.19 84.478-5.26 62.406 26.406" stroke="#6E7287" stroke-width="1.52" stroke-linecap="round" stroke-dasharray="10.135"/><path fill="#2A3052" fill-rule="nonzero" d="M260.224 109.619v-1.52h34.966v1.52z"/><ellipse fill="#FFF" fill-rule="nonzero" opacity=".6" cx="248.454" cy="56.883" rx="8.247" ry="8.633"/><ellipse fill="#FFF" fill-rule="nonzero" opacity=".6" cx="248.454" cy="109.852" rx="8.247" ry="8.633"/><ellipse fill="#FFF" fill-rule="nonzero" opacity=".6" cx="249.467" cy="163.839" rx="8.247" ry="8.633"/><ellipse stroke="#E88024" stroke-width="2.455" cx="248.454" cy="56.883" rx="8.247" ry="8.633"/><ellipse stroke="#E88024" stroke-width="2.455" cx="248.454" cy="109.852" rx="8.247" ry="8.633"/><ellipse stroke="#E88024" stroke-width="2.455" cx="249.467" cy="163.839" rx="8.247" ry="8.633"/><ellipse fill="#FFF" fill-rule="nonzero" opacity=".916" cx="21.467" cy="109.87" rx="8.247" ry="8.633"/><ellipse stroke="#E88024" stroke-width="2.455" cx="21.467" cy="109.87" rx="8.247" ry="8.633"/><path d="M278.408 121.261h-5.174l.13-.79 3.093-3.106c.55-.555.933-.997 1.146-1.327.213-.33.348-.667.407-1.011.07-.438.017-.799-.158-1.084-.176-.285-.448-.428-.815-.428-.52 0-.936.153-1.25.46-.315.307-.515.73-.601 1.269h-1.078l-.012-.035c.105-.762.431-1.386.978-1.873.547-.486 1.248-.729 2.104-.729.687 0 1.215.226 1.582.677.367.45.496 1.018.387 1.702a3.348 3.348 0 0 1-.595 1.403c-.319.451-.757.95-1.316 1.497l-2.46 2.438.011.035h3.768l-.147.902zM269.88 57.769c.054-.33-.005-.606-.175-.83-.17-.224-.479-.425-.926-.604-.637-.219-1.1-.51-1.386-.876-.286-.365-.381-.852-.285-1.46.097-.613.33-1.1.701-1.464.371-.364.84-.581 1.405-.653l.188-1.187h.827l-.193 1.198c.526.093.911.355 1.155.784.243.43.31.997.198 1.703h-1.031c.079-.505.043-.903-.107-1.195-.15-.292-.409-.438-.774-.438-.362 0-.659.112-.891.336-.233.224-.378.523-.436.9-.057.357-.004.641.159.85.163.21.486.412.97.605.644.236 1.102.53 1.374.883.273.353.36.832.264 1.437-.104.638-.354 1.134-.75 1.488-.395.355-.901.564-1.517.628l-.161 1.032h-.827l.16-1.032c-.54-.071-.964-.301-1.272-.69-.308-.388-.401-.955-.28-1.7h1.037c-.093.573-.037.972.17 1.195.205.224.494.336.867.336.404 0 .746-.112 1.023-.336.278-.223.449-.527.513-.91zm7.02-.961c-.215 1.063-.574 1.845-1.077 2.344-.503.5-1.122.75-1.856.75-.67 0-1.171-.272-1.506-.814-.335-.543-.404-1.303-.207-2.28l.37-1.853c.212-1.06.572-1.842 1.08-2.345a2.543 2.543 0 0 1 1.859-.755c.673 0 1.174.273 1.503.817.33.544.398 1.305.205 2.283l-.371 1.853zm-.623-2.079c.143-.72.139-1.24-.013-1.56-.153-.32-.442-.481-.868-.481-.39 0-.737.174-1.04.524-.302.349-.52.855-.652 1.517l-.456 2.293c-.144.72-.138 1.242.016 1.566.154.324.444.486.87.486.39 0 .735-.175 1.034-.526.299-.351.516-.86.652-1.526l.457-2.293z" fill="#2A3052" fill-rule="nonzero"/><path d="M25.089 17.26c0-.444-.165-.807-.494-1.09-.33-.284-.912-.538-1.747-.762-1.192-.313-2.108-.727-2.75-1.242-.643-.515-.964-1.19-.964-2.025 0-.86.356-1.567 1.066-2.124.71-.557 1.627-.835 2.75-.835 1.172 0 2.113.315 2.824.945.71.63 1.053 1.387 1.029 2.27l-.015.044h-1.706c0-.546-.186-.99-.557-1.329-.371-.34-.9-.509-1.59-.509-.649 0-1.148.142-1.497.425a1.35 1.35 0 0 0-.524 1.098c0 .406.19.743.568 1.011.378.269 1.004.523 1.878.762 1.148.308 2.02.732 2.615 1.274.596.542.894 1.233.894 2.073 0 .889-.356 1.596-1.066 2.12-.71.525-1.644.788-2.801.788-1.114 0-2.09-.294-2.93-.883-.84-.588-1.248-1.395-1.223-2.42l.014-.044h1.714c0 .65.225 1.134.674 1.453.45.32 1.033.48 1.75.48.66 0 1.172-.133 1.539-.399.366-.266.549-.626.549-1.08zm10.371-.959c0 1.153-.271 2.083-.813 2.79-.542.709-1.296 1.063-2.263 1.063-.45 0-.847-.08-1.194-.242a2.457 2.457 0 0 1-.894-.71v3.845h-1.78V12.075h1.502l.176.996c.254-.37.56-.654.92-.85.358-.195.774-.292 1.248-.292.976 0 1.737.387 2.281 1.16.545.775.817 1.794.817 3.058v.154zm-1.772-.154c0-.81-.153-1.473-.458-1.988-.305-.515-.76-.773-1.366-.773-.371 0-.686.08-.945.238-.259.159-.466.38-.623.663v3.582c.157.278.364.492.623.64.259.15.579.224.96.224.605 0 1.058-.223 1.358-.67.3-.447.45-1.034.45-1.762v-.154zm7.273-2.468l-.762-.03c-.347 0-.636.074-.868.22a1.447 1.447 0 0 0-.538.623V20h-1.78v-7.925h1.626l.117 1.15c.2-.405.458-.723.773-.952.315-.23.677-.344 1.087-.344.108 0 .208.008.3.025.093.017.179.038.257.063l-.212 1.662zm4.643 6.475c-1.123 0-2.018-.368-2.684-1.102-.667-.735-1-1.679-1-2.831v-.293c0-1.153.33-2.108.992-2.868.662-.759 1.49-1.136 2.487-1.131 1.07 0 1.888.323 2.457.97.57.647.854 1.515.854 2.604v1.047h-4.944l-.015.037c.03.63.214 1.145.553 1.545.34.4.81.6 1.41.6.478 0 .889-.058 1.23-.175.342-.117.672-.286.99-.505l.57 1.164c-.297.264-.693.486-1.186.667-.493.18-1.065.27-1.714.27zm-.205-6.797c-.44 0-.8.174-1.084.524-.283.349-.459.792-.527 1.329l.014.037h3.142v-.184c0-.502-.128-.913-.384-1.23-.256-.317-.643-.476-1.161-.476zM54.913 20a6.568 6.568 0 0 1-.157-.586c-.042-.19-.07-.38-.085-.571a3.144 3.144 0 0 1-.963.934 2.45 2.45 0 0 1-1.336.377c-.826 0-1.46-.213-1.901-.637-.442-.425-.663-1.009-.663-1.75 0-.767.303-1.364.908-1.792.606-.427 1.458-.64 2.557-.64h1.384v-.696c0-.415-.122-.74-.366-.974-.245-.235-.594-.352-1.048-.352-.405 0-.727.098-.967.293a.93.93 0 0 0-.358.754h-1.714l-.008-.044c-.034-.625.246-1.179.839-1.662.593-.484 1.366-.725 2.318-.725.923 0 1.668.234 2.234.703.566.469.85 1.142.85 2.021v3.523c0 .327.022.641.066.941.043.3.114.595.212.883h-1.802zm-2.182-1.274c.449 0 .853-.113 1.212-.337.359-.225.597-.481.714-.77v-1.171h-1.414c-.517 0-.923.128-1.216.384-.293.257-.439.558-.439.905 0 .303.099.543.297.721.197.178.48.268.846.268zm5.244-2.579c0-1.264.27-2.283.813-3.057.542-.774 1.303-1.161 2.285-1.161a2.5 2.5 0 0 1 1.153.26c.34.173.634.42.883.743V8.574h1.78V20h-1.494l-.176-.981a2.62 2.62 0 0 1-.916.846c-.356.192-.771.289-1.245.289-.972 0-1.728-.354-2.27-1.062-.542-.708-.813-1.638-.813-2.79v-.155zm1.78.154c0 .733.14 1.316.42 1.75.281.435.727.653 1.337.653.376 0 .695-.081.956-.242a1.84 1.84 0 0 0 .641-.689v-3.457a1.874 1.874 0 0 0-.645-.684 1.742 1.742 0 0 0-.937-.246c-.606 0-1.052.255-1.34.766-.288.51-.433 1.175-.433 1.995v.154zm25.524 0c0 1.153-.27 2.083-.813 2.79-.542.709-1.296 1.063-2.263 1.063-.449 0-.847-.08-1.194-.242a2.457 2.457 0 0 1-.893-.71v3.845h-1.78V12.075h1.501l.176.996c.254-.37.56-.654.92-.85.358-.195.775-.292 1.248-.292.977 0 1.737.387 2.282 1.16.544.775.816 1.794.816 3.058v.154zm-1.772-.154c0-.81-.153-1.473-.458-1.988-.305-.515-.76-.773-1.366-.773-.37 0-.686.08-.945.238-.258.159-.466.38-.622.663v3.582c.156.278.364.492.622.64.26.15.579.224.96.224.605 0 1.058-.223 1.358-.67.3-.447.45-1.034.45-1.762v-.154zm7.273-2.468l-.762-.03c-.347 0-.636.074-.868.22a1.447 1.447 0 0 0-.538.623V20h-1.78v-7.925h1.626l.117 1.15c.2-.405.458-.723.773-.952.315-.23.677-.344 1.088-.344.107 0 .207.008.3.025s.178.038.256.063l-.212 1.662zm3.135 4.9h4.233V20H91.71v-1.165l4-5.324h-3.92v-1.436h6.168v1.128l-4.043 5.376zm8.986 1.575c-1.123 0-2.017-.368-2.684-1.102-.666-.735-1-1.679-1-2.831v-.293c0-1.153.331-2.108.993-2.868.661-.759 1.49-1.136 2.486-1.131 1.07 0 1.889.323 2.458.97.568.647.853 1.515.853 2.604v1.047h-4.944l-.015.037c.03.63.214 1.145.553 1.545.34.4.81.6 1.41.6.479 0 .889-.058 1.23-.175.343-.117.672-.286.99-.505l.57 1.164c-.297.264-.693.486-1.186.667-.493.18-1.064.27-1.714.27zm-.205-6.797c-.44 0-.8.174-1.084.524-.283.349-.459.792-.527 1.329l.015.037h3.142v-.184c0-.502-.128-.913-.385-1.23-.256-.317-.643-.476-1.16-.476zm4.417 2.79c0-1.264.27-2.283.813-3.057.542-.774 1.304-1.161 2.285-1.161a2.5 2.5 0 0 1 1.154.26c.339.173.633.42.882.743V8.574h1.78V20h-1.494l-.176-.981a2.62 2.62 0 0 1-.916.846c-.356.192-.771.289-1.245.289-.971 0-1.728-.354-2.27-1.062-.542-.708-.813-1.638-.813-2.79v-.155zm1.78.154c0 .733.14 1.316.42 1.75.282.435.727.653 1.337.653.376 0 .695-.081.956-.242a1.84 1.84 0 0 0 .641-.689v-3.457a1.874 1.874 0 0 0-.644-.684 1.742 1.742 0 0 0-.938-.246c-.605 0-1.052.255-1.34.766-.288.51-.432 1.175-.432 1.995v.154zM120.707 20a6.568 6.568 0 0 1-.158-.586c-.041-.19-.07-.38-.084-.571a3.144 3.144 0 0 1-.963.934 2.45 2.45 0 0 1-1.337.377c-.825 0-1.459-.213-1.9-.637-.442-.425-.663-1.009-.663-1.75 0-.767.302-1.364.908-1.792.605-.427 1.457-.64 2.556-.64h1.384v-.696c0-.415-.122-.74-.366-.974-.244-.235-.593-.352-1.047-.352-.406 0-.728.098-.967.293a.93.93 0 0 0-.359.754h-1.714l-.007-.044c-.034-.625.245-1.179.838-1.662.594-.484 1.366-.725 2.319-.725.922 0 1.667.234 2.233.703.567.469.85 1.142.85 2.021v3.523c0 .327.022.641.066.941.044.3.115.595.212.883h-1.801zm-2.183-1.274c.45 0 .853-.113 1.212-.337.359-.225.597-.481.714-.77v-1.171h-1.413c-.518 0-.923.128-1.216.384-.293.257-.44.558-.44.905 0 .303.1.543.297.721.198.178.48.268.846.268zm7.463-.147h4.234V20h-6.438v-1.165l3.999-5.324h-3.919v-1.436h6.167v1.128l-4.043 5.376zm1.949-7.8h-1.897V9.146h1.897v1.633zm6.394 6.042l.175.791h.044l1.736-5.537h1.948l-3.28 9.126a4.069 4.069 0 0 1-.887 1.414c-.38.39-.92.586-1.619.586-.146 0-.304-.015-.472-.044a6.842 6.842 0 0 1-.487-.103l.198-1.377.27.022c.118.01.206.015.264.015.323 0 .58-.11.773-.33.193-.22.35-.473.472-.761l.293-.718-2.878-7.83h1.94l1.51 4.746z" fill="#000" fill-rule="nonzero"/><path d="M52.487 53.61c-.233.29-.587.555-1.064.793-.476.238-1.054.357-1.734.357-.817 0-1.464-.303-1.942-.91s-.624-1.376-.438-2.307l.323-1.611c.196-1.01.614-1.799 1.251-2.366a3.261 3.261 0 0 1 2.24-.852c.766 0 1.343.22 1.732.658.388.439.556 1.006.502 1.7l-.016.032h-.994c.011-.472-.087-.85-.292-1.133-.206-.283-.572-.424-1.099-.424-.505 0-.978.227-1.42.682-.443.455-.73 1.019-.863 1.692l-.322 1.622c-.15.738-.084 1.32.199 1.748.283.428.718.642 1.305.642.373 0 .706-.06 1-.18.293-.12.508-.253.644-.4l.354-1.778h-1.547l.167-.832h2.583l-.569 2.868zm1.686-1.922c.144-.895.472-1.612.986-2.151.514-.54 1.149-.809 1.904-.809.723 0 1.265.28 1.625.841.36.56.472 1.267.336 2.119l-.017.118c-.146.899-.477 1.616-.99 2.151-.514.536-1.149.803-1.905.803-.723 0-1.264-.28-1.624-.838-.36-.558-.47-1.264-.33-2.116l.015-.118zm1.021.118c-.104.641-.073 1.156.094 1.544.167.389.484.583.953.583.437 0 .81-.203 1.118-.61.308-.406.51-.912.606-1.517l.017-.118c.1-.63.066-1.142-.102-1.536-.169-.394-.484-.591-.946-.591-.44 0-.813.204-1.12.612-.306.408-.507.913-.604 1.515l-.016.118zm2.659-5.22h1.203l.01.032-1.584 1.396h-.763l1.134-1.429zm5.473 3.184l-.57-.032c-.236 0-.453.067-.652.202a1.772 1.772 0 0 0-.518.566l-.828 4.141h-1.036l1.16-5.811h.93l-.065.779c.2-.283.427-.502.68-.656a1.535 1.535 0 0 1 1.232-.171l-.333.982zm2.04-.134c.237-.293.505-.518.804-.674.299-.156.62-.234.964-.234.548 0 .954.187 1.22.559.264.372.321.936.171 1.692l-.736 3.668h-1.036l.73-3.647c.107-.544.093-.915-.043-1.114-.136-.199-.4-.298-.795-.298-.25 0-.5.076-.746.228a2.3 2.3 0 0 0-.65.61l-.844 4.221H63.37l1.16-5.811h.93l-.092.8zm5.99 2.858l.026.66.033.006 2.159-4.324h1.155l-3.599 6.703c-.222.39-.49.73-.806 1.02-.315.29-.687.436-1.117.436a3.107 3.107 0 0 1-.59-.086l.273-.833.156.01c.154.012.249.017.285.017.186 0 .373-.107.561-.322.188-.215.34-.43.454-.645l.354-.607-.864-5.693h1.16l.36 3.658zm6.842 2.153h-1.036l1.676-8.379h1.036l-1.676 8.38zm2.664 0h-1.036l1.16-5.811h1.037l-1.16 5.811zm1.461-7.299h-1.036l.215-1.08h1.036l-.215 1.08zm2.106 2.18c.225-.257.487-.455.784-.593.297-.138.625-.207.983-.207.326 0 .6.088.824.264.224.175.372.436.444.784.229-.33.5-.587.816-.771a2.025 2.025 0 0 1 1.042-.277c.512 0 .895.207 1.15.62.254.414.302 1.022.144 1.824l-.693 3.475h-1.041l.698-3.485c.118-.616.114-1.033-.011-1.25-.125-.216-.37-.324-.736-.324-.293 0-.571.13-.832.39a2.284 2.284 0 0 0-.575.969v.01l-.736 3.69h-1.042l.698-3.485c.115-.584.108-.992-.021-1.225-.129-.233-.373-.35-.73-.35-.273 0-.516.07-.731.208-.215.137-.4.328-.553.572l-.86 4.28h-1.036l1.16-5.811h.924l-.07.693zm8.073 5.12h-1.037l1.16-5.812h1.037l-1.16 5.811zm1.46-7.3h-1.036l.215-1.08h1.036l-.214 1.08zm2.906.086l-.284 1.402h1.004l-.156.784h-1.004l-.704 3.529c-.06.29-.052.486.027.588.079.102.206.153.381.153.083 0 .182-.008.299-.024.116-.016.208-.033.276-.051l-.005.725a1.424 1.424 0 0 1-.443.158 2.69 2.69 0 0 1-.567.062c-.376 0-.665-.132-.867-.397-.203-.265-.248-.67-.137-1.214l.703-3.529h-.848l.155-.784h.849l.285-1.402h1.036zM47.498 170.398l1.563-7.82h2.051c.91 0 1.632.33 2.168.99.535.66.706 1.475.513 2.441l-.21 1.064c-.218 1.078-.637 1.901-1.257 2.47-.62.57-1.412.855-2.38.855h-2.448zm2.433-6.988l-1.23 6.16h1.412c.613 0 1.134-.23 1.563-.69.43-.46.72-1.062.87-1.807l.215-1.08c.154-.77.063-1.393-.274-1.869-.336-.476-.85-.714-1.541-.714h-1.015zm4.512 4.028c.143-.895.471-1.612.985-2.151.514-.539 1.149-.808 1.904-.808.723 0 1.265.28 1.625.84.36.56.472 1.267.336 2.12l-.016.117c-.147.899-.478 1.616-.991 2.151-.514.536-1.149.803-1.904.803-.724 0-1.265-.279-1.625-.838-.36-.558-.47-1.264-.33-2.116l.016-.118zm1.02.118c-.104.641-.072 1.156.094 1.544.167.389.484.583.953.583.437 0 .81-.203 1.118-.61.308-.406.51-.912.607-1.517l.016-.118c.1-.63.066-1.142-.102-1.536-.169-.394-.484-.59-.946-.59-.44 0-.813.203-1.12.611-.306.409-.507.913-.604 1.515l-.016.118zm5.645 2.842h-1.037l1.676-8.38h1.037l-1.676 8.38zm3.545-5.012c.236-.293.504-.518.803-.674.299-.156.62-.233.964-.233.548 0 .954.186 1.22.558.264.373.322.937.171 1.692l-.736 3.669H66.04l.73-3.647c.108-.545.093-.916-.043-1.115-.136-.199-.4-.298-.795-.298-.25 0-.5.076-.746.228a2.3 2.3 0 0 0-.65.61l-.843 4.222h-1.037l1.16-5.812h.93l-.092.8zm5.989 2.858l.027.66.032.006 2.159-4.324h1.155l-3.599 6.703c-.222.39-.49.73-.805 1.02-.316.29-.688.436-1.118.436a3.107 3.107 0 0 1-.59-.086l.273-.833.156.011c.154.01.249.016.285.016.186 0 .373-.107.561-.322.188-.215.34-.43.454-.645l.354-.607-.864-5.693h1.16l.36 3.658zm6.843 2.154h-1.037l1.676-8.38h1.036l-1.675 8.38zm2.664 0h-1.037l1.16-5.812h1.037l-1.16 5.812zm1.46-7.3h-1.036l.215-1.08h1.036l-.214 1.08zm2.106 2.18c.226-.257.487-.455.784-.593.297-.137.625-.206.983-.206.326 0 .6.087.825.263.223.175.371.437.443.784.229-.33.501-.586.816-.77a2.025 2.025 0 0 1 1.042-.277c.512 0 .895.206 1.15.62.254.414.302 1.021.145 1.823l-.693 3.476h-1.042l.698-3.486c.118-.616.114-1.032-.01-1.25-.126-.216-.371-.324-.737-.324-.293 0-.57.13-.832.39a2.284 2.284 0 0 0-.575.969v.01l-.736 3.69h-1.042l.698-3.485c.115-.584.108-.992-.021-1.225-.129-.233-.372-.349-.73-.349-.273 0-.516.069-.73.207-.216.138-.4.328-.554.572l-.86 4.28h-1.036l1.16-5.811h.924l-.07.693zm8.073 5.12H90.75l1.16-5.812h1.037l-1.16 5.812zm1.46-7.3h-1.036l.215-1.08h1.037l-.215 1.08zm2.906.086l-.284 1.402h1.004l-.156.784h-1.004l-.704 3.529c-.06.29-.052.486.027.588.079.102.206.153.382.153.082 0 .181-.008.298-.024.116-.016.208-.033.276-.051l-.005.725a1.424 1.424 0 0 1-.443.159 2.69 2.69 0 0 1-.567.061c-.376 0-.665-.132-.867-.397-.203-.265-.248-.67-.137-1.214l.703-3.529h-.848l.156-.784h.848l.285-1.402h1.036zM263.51 166.464l-.622 3.137h-1.037l1.563-7.82h2.82c.723 0 1.27.218 1.64.655.371.437.488 1 .352 1.687-.154.755-.482 1.334-.985 1.737s-1.15.604-1.942.604h-1.788zm.167-.827h1.789c.444 0 .82-.145 1.13-.435.31-.29.508-.646.594-1.069.09-.458.045-.826-.132-1.103-.177-.278-.507-.417-.99-.417h-1.784l-.607 3.024zm6.891 4.077c-.73 0-1.283-.271-1.657-.814-.374-.542-.493-1.24-.357-2.092l.038-.236c.136-.86.475-1.556 1.017-2.09.543-.533 1.13-.8 1.76-.8.712 0 1.222.238 1.53.715.308.476.401 1.104.28 1.885l-.108.66h-3.502c-.079.595-.024 1.068.164 1.418.188.351.51.527.964.527.315 0 .61-.053.886-.159.276-.105.516-.244.72-.416l.295.688a2.658 2.658 0 0 1-.837.51c-.34.136-.738.204-1.193.204zm.672-5.2c-.301 0-.592.151-.873.452-.281.3-.483.673-.604 1.117l.016.032h2.39l.021-.14c.068-.433.027-.784-.123-1.055-.15-.27-.426-.405-.827-.405zm4.63.393l.784-.3-.178.885-.784.301-.762 3.808h-1.037l.677-3.384-.742.28.178-.887.74-.279.823-4.109h1.036l-.736 3.685zm2.707-.317c.236-.294.503-.518.802-.674.3-.156.62-.234.965-.234.547 0 .954.186 1.219.559.265.372.322.936.172 1.692l-.736 3.668h-1.037l.73-3.647c.108-.544.094-.916-.042-1.114-.136-.199-.401-.298-.795-.298-.25 0-.5.076-.747.228a2.3 2.3 0 0 0-.65.61l-.843 4.221h-1.037l1.16-5.811h.93l-.091.8zm7.197 5.011c0-.175.003-.32.01-.432.008-.113.02-.228.038-.347a3.33 3.33 0 0 1-.824.637c-.31.17-.62.255-.932.255-.53 0-.921-.158-1.174-.475-.252-.317-.323-.74-.212-1.27.115-.591.406-1.035.873-1.33.467-.295 1.066-.443 1.796-.443h.994l.113-.575c.072-.361.032-.636-.118-.824-.15-.188-.401-.282-.752-.282-.301 0-.573.088-.817.266-.243.177-.388.384-.435.62h-.983l-.01-.032c.071-.448.34-.84.805-1.18.466-.338 1.02-.507 1.665-.507.577 0 1.033.171 1.367.513.335.342.442.821.32 1.437l-.559 2.798c-.046.219-.078.421-.096.607a2.968 2.968 0 0 0 0 .564h-1.07zm-1.375-.773c.29 0 .585-.084.886-.253.3-.168.534-.367.698-.596l.215-1.069h-1.026c-.354 0-.673.11-.956.328-.283.218-.451.469-.505.752-.057.276-.03.484.08.626.112.141.314.212.608.212zm-26.066 13.657l-.022.618.033.01.247-.628 1.804-3.695h.828l.338 3.695-.005.72.032.005.279-.725 1.563-3.695h1.031l-2.728 5.811h-.833l-.311-3.54-.033-.945-.032-.005-.403.95-1.718 3.54h-.833l-.408-5.811h1.031l.14 3.695zm8.062-.038l.027.661.032.005 2.16-4.323h1.154l-3.599 6.703c-.222.39-.49.73-.805 1.02-.315.29-.688.435-1.118.435a3.107 3.107 0 0 1-.59-.086l.274-.832.155.01c.154.011.25.017.285.017.186 0 .373-.108.561-.322.188-.215.34-.43.454-.645l.355-.607-.865-5.693h1.16l.36 3.657zm8.277-.424c-.18.895-.481 1.568-.905 2.017-.425.45-.972.674-1.641.674-.312 0-.592-.06-.84-.177a1.574 1.574 0 0 1-.616-.516l-.564 2.815h-1.036l1.606-8.046h.891l-.037.574c.214-.222.455-.39.722-.507.267-.117.554-.175.862-.175.627 0 1.091.31 1.394.93.302.619.364 1.385.185 2.298l-.021.113zm-1.015-.113c.136-.694.115-1.263-.062-1.705-.177-.442-.5-.663-.97-.663-.24 0-.462.07-.666.21-.204.139-.388.33-.553.574l-.57 2.841c.094.226.234.402.42.53.186.126.424.19.714.19.426 0 .78-.168 1.064-.502.282-.335.483-.789.601-1.362l.022-.113zm3.899-2.003l.784-.3-.177.885-.784.301-.763 3.808h-1.037l.677-3.384-.741.28.177-.887.741-.279.822-4.109h1.037l-.736 3.685zm4.018 4.694c0-.175.003-.32.01-.432.007-.113.02-.228.038-.347a3.33 3.33 0 0 1-.825.637c-.31.17-.62.255-.931.255-.53 0-.922-.158-1.174-.475-.252-.317-.323-.74-.212-1.27.114-.591.405-1.035.873-1.33.467-.295 1.066-.443 1.796-.443h.994l.113-.575c.071-.361.032-.636-.118-.824-.15-.188-.401-.282-.752-.282-.301 0-.573.088-.817.266-.243.177-.388.384-.435.62h-.983l-.01-.032c.071-.448.34-.84.805-1.18.466-.338 1.02-.507 1.665-.507.577 0 1.032.171 1.367.513.335.342.441.821.32 1.437l-.559 2.798c-.046.219-.079.421-.097.607a2.967 2.967 0 0 0 0 .564h-1.068zm-1.375-.773c.29 0 .585-.084.886-.253.3-.168.533-.367.698-.596l.215-1.069h-1.026c-.354 0-.673.11-.956.328-.283.218-.451.469-.505.752-.057.276-.03.484.08.626.112.141.314.212.608.212zm6.58-6.44l-.286 1.402h1.005l-.156.784h-1.004l-.704 3.529c-.06.29-.052.486.027.588.079.102.206.153.381.153.083 0 .182-.008.298-.024.117-.016.209-.033.277-.051l-.005.725a1.424 1.424 0 0 1-.443.158c-.192.041-.38.062-.567.062-.376 0-.665-.132-.868-.397-.202-.265-.247-.67-.136-1.214l.703-3.53h-.849l.156-.783h.849l.285-1.402h1.036zm4.162 7.213c0-.175.003-.32.01-.432.008-.113.02-.228.038-.347a3.33 3.33 0 0 1-.824.637c-.31.17-.62.255-.932.255-.53 0-.921-.158-1.174-.475-.252-.317-.323-.74-.212-1.27.115-.591.406-1.035.873-1.33.467-.295 1.066-.443 1.796-.443h.994l.113-.575c.072-.361.032-.636-.118-.824-.15-.188-.401-.282-.752-.282-.301 0-.573.088-.817.266-.243.177-.388.384-.435.62h-.983l-.01-.032c.071-.448.34-.84.805-1.18.466-.338 1.02-.507 1.665-.507.577 0 1.033.171 1.367.513.335.342.442.821.32 1.437l-.559 2.798c-.046.219-.078.421-.096.607a2.967 2.967 0 0 0 0 .564h-1.07zm-1.375-.773c.29 0 .585-.084.886-.253.3-.168.534-.367.698-.596l.215-1.069h-1.026c-.354 0-.673.11-.956.328-.283.218-.451.469-.505.752-.057.276-.03.484.08.626.112.141.314.212.608.212zM16.317 133.038c0-.326-.121-.593-.363-.8-.242-.208-.669-.394-1.28-.559-.875-.229-1.547-.532-2.018-.91-.47-.378-.706-.873-.706-1.485 0-.63.26-1.15.781-1.558.521-.408 1.194-.612 2.017-.612.86 0 1.55.23 2.07.693.522.462.773 1.017.756 1.665l-.011.032H16.31c0-.401-.136-.726-.408-.975-.272-.249-.66-.373-1.165-.373-.477 0-.843.104-1.099.311a.99.99 0 0 0-.384.806c0 .297.139.544.416.741.278.197.737.383 1.378.559.842.225 1.48.537 1.918.934.436.398.655.904.655 1.52 0 .652-.26 1.17-.782 1.555-.52.385-1.205.578-2.054.578-.816 0-1.533-.216-2.149-.648-.615-.431-.914-1.023-.896-1.775l.01-.032h1.257c0 .476.165.832.494 1.066.33.235.758.352 1.284.352.483 0 .86-.098 1.128-.293a.929.929 0 0 0 .403-.792zm4.135-5.215v1.412h1.042v.967h-1.042v3.212c0 .24.052.411.156.513a.564.564 0 0 0 .414.153 1.154 1.154 0 0 0 .403-.07l.14.956c-.112.061-.244.109-.398.143a2.21 2.21 0 0 1-.478.05c-.48 0-.856-.14-1.128-.421-.272-.281-.408-.722-.408-1.324v-3.212h-.887v-.967h.887v-1.412h1.3zm5.7 7.224a4.817 4.817 0 0 1-.116-.43c-.03-.14-.051-.28-.062-.419-.18.272-.415.5-.706.685a1.797 1.797 0 0 1-.98.277c-.606 0-1.07-.156-1.394-.468-.324-.311-.486-.739-.486-1.283 0-.562.222-1 .666-1.314.444-.313 1.068-.47 1.874-.47h1.015v-.51c0-.304-.09-.542-.268-.714-.18-.172-.435-.258-.768-.258-.298 0-.534.072-.71.215a.682.682 0 0 0-.263.553h-1.256l-.006-.032c-.025-.458.18-.865.615-1.22.435-.354 1.002-.531 1.7-.531.677 0 1.223.172 1.638.516.416.343.623.837.623 1.482v2.583c0 .24.016.47.049.69.032.22.084.437.155.648h-1.32zm-1.601-.935c.329 0 .625-.082.889-.247.263-.164.437-.352.523-.564v-.86h-1.036c-.38 0-.677.095-.892.283-.215.188-.322.409-.322.663 0 .222.072.399.217.53.145.13.352.195.62.195zm6.982-3.7l-.559-.022a1.17 1.17 0 0 0-.636.161c-.17.108-.302.26-.395.457v4.039h-1.305v-5.812h1.192l.086.844c.147-.298.336-.53.567-.699a1.32 1.32 0 0 1 .798-.252c.078 0 .152.006.22.019.068.012.13.027.188.045l-.156 1.22zm2.648-2.59v1.413h1.042v.967H34.18v3.212c0 .24.052.411.156.513a.564.564 0 0 0 .413.153 1.154 1.154 0 0 0 .403-.07l.14.956c-.111.061-.244.109-.398.143a2.21 2.21 0 0 1-.478.05c-.48 0-.856-.14-1.128-.421-.272-.281-.408-.722-.408-1.324v-3.212h-.886v-.967h.886v-1.412h1.3zM217.253 184.217h-.902v3.384h-1.306v-7.82h1.306v3.314h.746l2.455-3.314h1.547l-2.847 3.733 3.067 4.087h-1.595l-2.471-3.384zm4.318.425c0-.863.237-1.572.71-2.127.48-.555 1.129-.833 1.949-.833.834 0 1.488.278 1.96.833.477.551.715 1.26.715 2.127v.113c0 .873-.238 1.586-.715 2.137-.472.548-1.122.822-1.95.822-.83 0-1.483-.276-1.96-.827-.472-.552-.709-1.262-.709-2.132v-.113zm1.305.113c0 .565.111 1.027.333 1.385.219.355.563.532 1.032.532.454 0 .795-.177 1.02-.532.23-.358.344-.82.344-1.385v-.113c0-.555-.115-1.012-.344-1.37-.225-.362-.57-.542-1.031-.542-.455 0-.795.18-1.02.542-.223.362-.334.818-.334 1.37v.113zm6.35-2.965l.074.838c.19-.298.43-.53.717-.696.289-.166.614-.25.975-.25.605 0 1.077.184 1.415.55.339.368.508.94.508 1.717v3.652h-1.305v-3.641c0-.437-.09-.748-.271-.932-.181-.185-.456-.277-.825-.277a1.367 1.367 0 0 0-1.176.634v4.216h-1.305v-5.811h1.192zm6.439 5.811h-1.305v-5.811h1.305v5.811zm0-7.235h-1.305v-1.144h1.305v1.144zm3.953 7.348c-.823 0-1.48-.27-1.968-.808-.49-.54-.733-1.231-.733-2.076v-.215c0-.845.242-1.546.727-2.103.485-.557 1.093-.833 1.824-.83.784 0 1.385.237 1.802.712.417.474.626 1.11.626 1.91v.767h-3.626l-.01.027c.02.462.156.84.405 1.134.249.293.593.44 1.034.44.35 0 .651-.043.902-.129.25-.086.492-.21.725-.37l.42.853c-.22.194-.51.357-.871.49-.362.132-.78.198-1.257.198zm-.15-4.984a.98.98 0 0 0-.795.384c-.208.256-.337.58-.387.975l.01.026h2.305v-.134c0-.369-.094-.67-.282-.902-.188-.233-.472-.35-.851-.35zm5.881 3.942c.319 0 .587-.094.806-.282a.893.893 0 0 0 .327-.706h1.182l.01.032c.019.544-.202 1.013-.663 1.407-.46.394-1.014.591-1.662.591-.856 0-1.512-.276-1.968-.827-.457-.552-.685-1.25-.685-2.095v-.188c0-.841.228-1.539.685-2.092.456-.553 1.112-.83 1.968-.83.698 0 1.265.203 1.7.61.435.406.645.923.631 1.55l-.01.032h-1.188c0-.319-.104-.59-.314-.811-.21-.222-.482-.333-.819-.333-.49 0-.838.178-1.042.534-.204.356-.306.803-.306 1.34v.188c0 .548.102.998.306 1.351.204.353.552.529 1.042.529z" fill="#2A3052" fill-rule="nonzero"/><text fill="#2A3052" font-family="Roboto-Italic, Roboto" font-size="11" font-style="italic"><tspan x="256.621" y="102.406">Wypłata</tspan></text><path d="M75.286 17.366c0-.444-.165-.808-.494-1.091-.33-.283-.912-.537-1.747-.762-1.191-.312-2.108-.726-2.75-1.241-.642-.515-.963-1.19-.963-2.025 0-.86.355-1.568 1.065-2.124.71-.557 1.627-.835 2.75-.835 1.172 0 2.113.315 2.824.944.71.63 1.053 1.387 1.029 2.27l-.015.045H75.28c0-.547-.186-.99-.557-1.33-.37-.339-.9-.509-1.59-.509-.649 0-1.148.142-1.497.425a1.35 1.35 0 0 0-.524 1.099c0 .405.19.742.568 1.01.378.27 1.005.523 1.879.762 1.147.308 2.019.733 2.614 1.275.596.542.894 1.233.894 2.073 0 .888-.355 1.595-1.066 2.12-.71.525-1.644.787-2.801.787-1.114 0-2.09-.294-2.93-.882-.84-.589-1.248-1.396-1.223-2.42l.015-.045h1.713c0 .65.225 1.134.674 1.454.45.32 1.033.48 1.75.48.66 0 1.173-.133 1.539-.4.366-.266.55-.626.55-1.08z" fill="#000"/></g></svg>