<?xml version="1.0" encoding="UTF-8"?>
<svg width="299px" height="197px" viewBox="0 0 299 197" version="1.1" xmlns="http://www.w3.org/2000/svg" xmlns:xlink="http://www.w3.org/1999/xlink">
    <!-- Generator: Sketch 52.6 (67491) - http://www.bohemiancoding.com/sketch -->
    <title>Rise</title>
    <desc>Created with Sketch.</desc>
    <g id="Page-1" stroke="none" stroke-width="1" fill="none" fill-rule="evenodd">
        <g id="Rise">
            <g id="rise">
                <polygon id="Path" fill="#F1F2F2" points="0 0 299 0 299 197 0 197"></polygon>
                <path d="M1.98671096,1.9798995 L1.98671096,195.020101 L297.013289,195.020101 L297.013289,1.9798995 L1.98671096,1.9798995 Z M299,0 L299,197 L0,197 L0,0 L299,0 Z" id="Path" fill="#C2C2C2" fill-rule="nonzero"></path>
                <g id="content" transform="translate(1.000000, 32.000000)">
                    <g id="Group-2">
                        <path d="M0.74920034,22.055088 L0.74920034,20.8401224 L294.237332,20.8401224 L294.237332,22.055088 L0.74920034,22.055088 Z M0.74920034,44.5851316 L0.74920034,43.370166 L294.237332,43.370166 L294.237332,44.5851316 L0.74920034,44.5851316 Z M0.74920034,63.3601679 L0.74920034,62.1452023 L294.237332,62.1452023 L294.237332,63.3601679 L0.74920034,63.3601679 Z M0.74920034,104.665248 L0.74920034,103.450282 L294.237332,103.450282 L294.237332,104.665248 L0.74920034,104.665248 Z M0.74920034,123.440284 L0.74920034,122.225318 L294.237332,122.225318 L294.237332,123.440284 L0.74920034,123.440284 Z M0.74920034,145.970328 L0.74920034,144.755362 L294.237332,144.755362 L294.237332,145.970328 L0.74920034,145.970328 Z M35.8870669,0.79506531 L37.1020325,0.79506531 L37.1020325,162.260377 L35.8870669,162.260377 L35.8870669,0.79506531 Z M73.5137504,0.79506531 L74.728716,0.79506531 L74.728716,162.260377 L73.5137504,162.260377 L73.5137504,0.79506531 Z M111.140434,0.79506531 L112.3554,0.79506531 L112.3554,162.260377 L111.140434,162.260377 L111.140434,0.79506531 Z M145.004449,0.79506531 L146.219415,0.79506531 L146.219415,162.260377 L145.004449,162.260377 L145.004449,0.79506531 Z M182.631132,0.79506531 L183.846098,0.79506531 L183.846098,162.260377 L182.631132,162.260377 L182.631132,0.79506531 Z M220.257816,0.79506531 L221.472782,0.79506531 L221.472782,162.260377 L220.257816,162.260377 L220.257816,0.79506531 Z M257.884499,0.79506531 L259.099465,0.79506531 L259.099465,162.260377 L257.884499,162.260377 L257.884499,0.79506531 Z" id="Shape" fill="#DFDEDE" fill-rule="nonzero"></path>
                        <polygon id="Path" fill="#2A3052" fill-rule="nonzero" points="1.90644108 84.8198292 1.90644108 83.6048636 293.513238 83.6048636 293.513238 84.8198292"></polygon>
                        <polygon id="Path" fill="#C2C2C2" fill-rule="nonzero" points="2.7993468 2.77979041 2.7993468 0.349482925 294.799347 0.349482925 294.799347 2.77979041"></polygon>
                        <path d="M186.239564,115.191156 L151.058614,115.191156 L145.640372,106.96769 L140.22213,115.191156 L105.041181,115.191156 C102.407313,115.191156 100.300218,117.33151 100.300218,119.997566 L100.300218,144.818164 C100.300218,147.484219 102.444939,149.624573 105.041181,149.624573 L186.27719,149.624573 C188.911058,149.624573 191.018152,147.484219 191.018152,144.818164 L191.018152,119.997566 C191.018152,117.33151 188.873431,115.191156 186.239564,115.191156 Z" id="Path" fill="#E88024"></path>
                    </g>
                </g>
            </g>
            <g id="Group" transform="translate(38.000000, 63.000000)">
                <path d="M34.1447863,31.2805909 L8.91547623,54.504784 C8.18206709,55.1799049 7.04022786,55.132653 6.36510693,54.3992439 C5.68998599,53.6658348 5.73723791,52.5239955 6.47064705,51.8488746 L32.9759553,27.4500941 C33.6887565,26.7939432 34.7924433,26.817575 35.4765055,27.503635 L70.0274339,62.1554679 L101.819689,16.4858607 C102.479643,15.5378361 103.847911,15.4451251 104.629718,16.2954589 L149.880274,65.5123068 L188.022702,-0.244794021 C188.529784,-1.11899793 189.655787,-1.40652911 190.519923,-0.882473481 L214.990821,13.9579168 C215.843163,14.4748204 216.11509,15.5848138 215.598187,16.4371563 C215.081283,17.2894989 213.97129,17.5614259 213.118947,17.0445222 L190.221787,3.15852628 L151.7725,69.4446477 C151.161965,70.497203 149.706089,70.6563891 148.882525,69.7606387 L103.496098,20.3960097 L71.7559098,65.9908223 C71.1130035,66.9143579 69.7909656,67.0308733 68.9964363,66.2340236 L34.1447863,31.2805909 Z" id="Path" fill="#2A3052" fill-rule="nonzero"></path>
                <ellipse id="Oval" fill="#FFFFFF" opacity="0.6" cx="214.054884" cy="15.5012195" rx="7.60753767" ry="7.85487805"></ellipse>
                <path d="M214.054884,24.5595477 C209.179941,24.5595477 205.243896,20.4955321 205.243896,15.5012195 C205.243896,10.5069069 209.179941,6.44289128 214.054884,6.44289128 C218.929827,6.44289128 222.865872,10.5069069 222.865872,15.5012195 C222.865872,20.4955321 218.929827,24.5595477 214.054884,24.5595477 Z M214.054884,22.1526474 C217.582995,22.1526474 220.458972,19.1831656 220.458972,15.5012195 C220.458972,11.8192734 217.582995,8.84979161 214.054884,8.84979161 C210.526773,8.84979161 207.650796,11.8192734 207.650796,15.5012195 C207.650796,19.1831656 210.526773,22.1526474 214.054884,22.1526474 Z" id="Oval" fill="#E88024" fill-rule="nonzero"></path>
                <ellipse id="Oval" fill="#FFFFFF" opacity="0.6" cx="7.69212671" cy="53.1768293" rx="7.60753767" ry="7.85487805"></ellipse>
                <path d="M7.69306164,62.2351575 C2.81811857,62.2351575 -1.1179262,58.1711419 -1.1179262,53.1768293 C-1.1179262,48.1825167 2.81811857,44.1185011 7.69306164,44.1185011 C12.5680047,44.1185011 16.5040495,48.1825167 16.5040495,53.1768293 C16.5040495,58.1711419 12.5680047,62.2351575 7.69306164,62.2351575 Z M7.69306164,59.8282572 C11.2211726,59.8282572 14.0971491,56.8587754 14.0971491,53.1768293 C14.0971491,49.4948832 11.2211726,46.5254014 7.69306164,46.5254014 C4.16495063,46.5254014 1.28897413,49.4948832 1.28897413,53.1768293 C1.28897413,56.8587754 4.16495063,59.8282572 7.69306164,59.8282572 Z" id="Oval" fill="#E88024" fill-rule="nonzero"></path>
            </g>
            <path d="M248.872071,125.036613 L246.313457,125.036613 L244.770763,132.771928 L243.641962,132.771928 L245.184656,125.036613 L242.663668,125.036613 L242.851802,124.097862 L249.060205,124.097862 L248.872071,125.036613 Z M251.317806,132.809478 L251.317806,132.321328 C251.317806,132.208677 251.355432,132.058477 251.355432,131.945827 C251.092045,132.246227 250.791032,132.471528 250.452392,132.659278 C250.14492,132.844135 249.795223,132.947538 249.436471,132.959679 C248.872071,132.959679 248.420551,132.771928 248.157164,132.433978 C247.893777,132.096027 247.818524,131.607876 247.931404,131.007075 C248.044284,130.368724 248.382924,129.843023 248.872071,129.542622 C249.398845,129.204672 250.038498,129.054471 250.828659,129.054471 L251.919832,129.054471 L252.032713,128.41612 C252.107966,128.003069 252.070339,127.702669 251.919832,127.514918 C251.769326,127.327168 251.468312,127.214518 251.092045,127.214518 C250.753405,127.214518 250.452392,127.327168 250.189005,127.514918 C249.925618,127.702669 249.775112,127.927969 249.699858,128.19082 L248.608684,128.19082 L248.608684,128.153269 C248.683938,127.665119 248.984951,127.214518 249.474098,126.839017 C250.000872,126.463516 250.602899,126.275766 251.317806,126.275766 C251.957459,126.275766 252.446606,126.463516 252.822873,126.839017 C253.19914,127.214518 253.31202,127.740219 253.161513,128.41612 L252.559486,131.532776 L252.446606,132.208677 C252.408979,132.433978 252.408979,132.621728 252.446606,132.847029 L251.317806,132.847029 L251.317806,132.809478 Z M249.812738,131.945827 C250.113752,131.945827 250.452392,131.870727 250.791032,131.682976 C251.129672,131.495226 251.393059,131.269925 251.543566,131.007075 L251.769326,129.805473 L250.640525,129.805473 C250.264258,129.805473 249.887992,129.918123 249.586978,130.180973 C249.285965,130.443824 249.097831,130.706674 249.022578,131.007075 C248.947324,131.307476 248.984951,131.532776 249.097831,131.720526 C249.210711,131.908277 249.474098,131.945827 249.812738,131.945827 Z M257.902475,127.402268 L257.262822,127.364718 C257.00695,127.364514 256.757264,127.443202 256.547915,127.590018 C256.304703,127.747147 256.109455,127.967977 255.983514,128.22837 L255.080474,132.809478 L253.951673,132.809478 L255.230981,126.350866 L256.246901,126.350866 L256.171648,127.214518 C256.363562,126.921599 256.621216,126.677326 256.924181,126.501066 C257.187568,126.350866 257.488582,126.238216 257.827222,126.238216 C257.902475,126.238216 257.977729,126.238216 258.090609,126.275766 C258.203489,126.313316 258.241115,126.313316 258.278742,126.313316 L257.902475,127.402268 Z M258.241115,129.580172 C258.466875,128.49122 258.805516,127.627568 259.294662,127.064317 C259.783809,126.501066 260.385836,126.238216 261.13837,126.238216 C261.47701,126.238216 261.81565,126.313316 262.079037,126.463516 C262.342424,126.613716 262.568184,126.839017 262.756317,127.139418 L263.019704,126.350866 L263.997998,126.350866 L262.756317,132.696828 C262.568184,133.59803 262.229544,134.273931 261.70277,134.724532 C261.175997,135.175133 260.46109,135.400433 259.633303,135.400433 C259.326104,135.399752 259.021077,135.349018 258.730262,135.250233 C258.435451,135.190672 258.154587,135.076007 257.902475,134.912283 L258.353995,134.011081 C258.504502,134.123731 258.730262,134.236381 258.993649,134.311481 C259.257036,134.386582 259.520423,134.424132 259.783809,134.424132 C260.272956,134.424132 260.649223,134.273931 260.950237,133.973531 C261.279621,133.631314 261.501905,133.200699 261.58989,132.734378 L261.665144,132.283777 C261.236055,132.708507 260.651312,132.939214 260.047196,132.922129 C259.369916,132.922129 258.843142,132.621728 258.504502,131.983377 C258.143661,131.276278 258.050157,130.463114 258.241115,129.692822 L258.241115,129.580172 Z M259.369916,129.692822 C259.219409,130.368724 259.257036,130.931975 259.445169,131.345026 C259.633303,131.758076 260.009569,131.983377 260.536343,131.983377 C260.79973,131.983377 261.063117,131.908277 261.288877,131.758076 C261.514637,131.607876 261.740397,131.382576 261.92853,131.082175 L262.530557,128.078169 C262.423879,127.827729 262.255644,127.608177 262.04141,127.439818 C261.809074,127.282045 261.532039,127.203053 261.25125,127.214518 C260.762103,127.214518 260.385836,127.439818 260.084823,127.852869 C259.783809,128.30347 259.520423,128.866721 259.407543,129.580172 L259.369916,129.692822 Z M266.857626,132.922129 C266.067465,132.922129 265.465439,132.621728 265.051545,132.020927 C264.637652,131.420126 264.524771,130.631574 264.675278,129.692822 L264.712905,129.429972 C264.863412,128.49122 265.239678,127.702669 265.841705,127.101867 C266.443732,126.501066 267.083386,126.200666 267.760666,126.200666 C268.550827,126.200666 269.115227,126.463516 269.453867,126.989217 C269.792507,127.514918 269.905387,128.22837 269.75488,129.092021 L269.642,129.843023 L265.766452,129.843023 C265.691199,130.481374 265.728825,131.007075 265.954585,131.420126 C266.180346,131.795627 266.518986,131.983377 267.008133,131.983377 C267.653359,131.978331 268.277422,131.753065 268.776587,131.345026 L269.115227,132.096027 C268.889467,132.321328 268.550827,132.509078 268.212186,132.659278 C267.798293,132.847029 267.346773,132.922129 266.857626,132.922129 Z M267.572533,127.176968 C267.233893,127.176968 266.932879,127.327168 266.631866,127.665119 C266.330852,128.003069 266.105092,128.41612 265.954585,128.904271 L265.954585,128.941821 L268.588453,128.941821 L268.62608,128.791621 C268.701333,128.30347 268.663707,127.927969 268.475573,127.627568 C268.28744,127.327168 268.024053,127.176968 267.572533,127.176968 Z M273.404669,124.811313 L273.103655,126.350866 L274.194829,126.350866 L274.006696,127.214518 L272.915522,127.214518 L272.125362,131.119725 C272.050108,131.420126 272.050108,131.645426 272.162988,131.758076 C272.238242,131.870727 272.388748,131.908277 272.576882,131.908277 C272.652135,131.908277 272.765015,131.908277 272.915522,131.870727 C273.028402,131.870727 273.141282,131.833177 273.216535,131.795627 L273.216535,132.584178 C273.103655,132.659278 272.953149,132.696828 272.727388,132.771928 C272.501628,132.809478 272.313495,132.847029 272.087735,132.847029 C271.673841,132.847029 271.372828,132.696828 271.147068,132.396428 C270.921308,132.096027 270.883681,131.645426 270.996561,131.044625 L271.786721,127.139418 L270.846054,127.139418 L271.034188,126.275766 L271.974855,126.275766 L272.275868,124.736213 L273.404669,124.736213 L273.404669,124.811313 Z" id="Shape" fill="#6D6E71" fill-rule="nonzero"></path>
            <path d="M254.737089,95.96 L254.832089,96.93 C255.216535,96.2587118 255.93666,95.8507175 256.710089,95.866 C257.398089,95.866 257.930089,96.053 258.306089,96.492 C258.681089,96.898 258.869089,97.524 258.869089,98.369 L258.869089,102.438 L257.711089,102.438 L257.711089,98.401 C257.711089,97.837 257.586089,97.431 257.367089,97.181 C257.147089,96.93 256.803089,96.836 256.365089,96.836 C256.021089,96.836 255.739089,96.93 255.489089,97.086 C255.239089,97.243 255.019089,97.462 254.863089,97.743 L254.863089,102.438 L253.705089,102.438 L253.705089,95.991 L254.738089,95.96 L254.737089,95.96 Z M249.261089,93.624 L249.261089,94.534 L244.896089,94.534 L244.896089,97.624 L248.615089,97.624 L248.615089,98.562 L244.896089,98.562 L244.896089,102.518 L243.614089,102.518 L243.614089,93.624 L249.261089,93.624 Z M265.630089,99.388 L261.479089,99.388 C261.479089,100.158 261.636089,100.715 261.951089,101.058 C262.364089,101.51 262.800089,101.674 263.396089,101.614 C264.439089,101.51 264.640089,101.231 265.071089,100.985 L265.511089,101.739 C264.997089,102.269 264.175089,102.534 263.046089,102.534 C261.352089,102.534 260.320089,101.131 260.253089,99.46 C260.185089,97.789 260.852089,95.85 263.046089,95.769 C264.906089,95.819 265.767089,97.025 265.630089,99.388 Z M264.464089,98.469 C264.452089,97.294 263.980089,96.706 263.047089,96.706 C262.115089,96.706 261.605089,97.294 261.518089,98.469 L264.464089,98.469 Z M250.610089,95.969 L251.776089,95.969 L251.776089,102.384 L250.610089,102.384 L250.610089,95.969 Z M250.627089,93.055 L250.627089,94.212 L251.814089,94.212 L251.814089,93.055 L250.627089,93.055 Z" id="Shape" fill="#2A3052" fill-rule="nonzero"></path>
            <g id="Group" transform="translate(29.867089, 131.090000)" fill="#2A3052" fill-rule="nonzero">
                <path d="M4.794,3.632 L4.901,4.739 C5.33930548,3.97310769 6.16073108,3.50755648 7.043,3.525 C7.828,3.525 8.435,3.739 8.863,4.239 C9.293,4.703 9.506,5.417 9.506,6.381 L9.506,11.022 L8.186,11.022 L8.186,6.417 C8.186,5.774 8.043,5.31 7.793,5.024 C7.543,4.739 7.15,4.631 6.65,4.631 C6.257,4.631 5.936,4.739 5.65,4.917 C5.35244523,5.10232888 5.10705096,5.36045749 4.937,5.667 L4.937,11.022 L3.616,11.022 L3.616,3.668 L4.794,3.632 Z M0.119,1 L1.353,1 L1.353,10.751 L0.12,10.751 L0.119,1 Z M21.917,3.569 L23.221,3.569 L23.221,10.746 L21.917,10.746 L21.917,3.569 Z M21.935,0.31 L21.935,1.603 L23.263,1.603 L23.263,0.309 L21.935,0.31 Z M11.55,3.58 L12.855,3.58 L12.855,10.758 L11.551,10.758 L11.55,3.58 Z M11.568,0.32 L11.568,1.614 L12.897,1.614 L12.897,0.32 L11.568,0.32 Z" id="Shape"></path>
                <path d="M11.526,3.58 L12.83,3.58 L12.83,10.758 L11.526,10.758 L11.526,3.58 Z M11.544,0.32 L11.544,1.614 L12.872,1.614 L12.872,0.32 L11.544,0.32 Z M14.636,4.555 L14.636,3.525 L20.126,3.525 L20.126,4.394 L16.159,9.773 L20.336,9.773 L20.336,10.751 L14.636,10.751 L14.636,9.917 L18.556,4.555 L14.636,4.555 Z M28.31,3.36 C30.468,3.36 31.43,4.935 31.593,6.753 C31.755,8.571 30.991,10.754 28.605,10.94 C26.22,11.127 25.027,9.2 25.027,7.168 C25.027,5.136 26.152,3.361 28.31,3.361 L28.31,3.36 Z M28.258,4.398 C27.455,4.398 26.504,4.881 26.383,6.852 C26.261,8.822 27.055,9.904 28.321,9.904 C29.587,9.904 30.256,8.754 30.256,6.852 C30.256,4.949 29.062,4.398 28.258,4.398 Z" id="Shape"></path>
            </g>
            <g id="Group" transform="translate(112.867089, 157.090000)" fill="#FFFFFF" fill-rule="nonzero">
                <path d="M71.375,7.749 L69.155,7.749 L69.155,0.4 L71.375,0.4 L71.375,7.749 Z M71.375,11.614 L69.155,11.614 L69.155,9.64 L71.375,9.64 L71.375,11.614 Z" id="Shape"></path>
                <path d="M52.29,3.456 L53.887,3.456 L53.967,4.619 C54.622,3.644 55.47,3.209 56.513,3.318 C57.117,3.38 58.39,3.578 58.77,5.293 C58.91,5.922 58.88,6.983 58.87,8.427 C58.865,8.987 58.865,9.958 58.87,11.339 L57.117,11.339 L57.117,6.4 C57.117,5.82 56.955,5.171 56.467,4.926 C55.798,4.588 54.538,4.73 54.033,5.58 L54.033,11.338 L52.291,11.338 L52.291,3.455 L52.29,3.456 Z M5.058,7.173 L5.058,5.88 L8.972,5.88 C9.017,8.135 9.017,9.45 8.972,9.824 C8.642,10.811 4.733,12.606 2.209,10.33 C1.457,9.65 1.103,8.9 0.909,7.761 C0.901,6.599 0.88,5.508 0.889,4.477 C1.079,3.213 1.503,2.495 1.844,2.087 C3.084,0.603 5.062,0.284 6.801,0.885 C8.539,1.486 8.765,2.735 8.906,3.956 C8.503,3.956 8.291,3.939 7.203,3.956 C7.313,3.269 6.688,1.941 5.057,2.014 C3.426,2.087 2.655,3.427 2.655,4.544 C2.655,5.661 2.597,5.286 2.655,7.504 C2.73,10.053 5.784,10.737 7.203,9.375 L7.255,7.205 L5.058,7.173 Z M63.844,3.316 C66.028,3.316 67.213,4.647 67.512,6.642 C67.812,8.637 66.735,11.455 63.998,11.455 C61.261,11.455 60.375,9.374 60.375,7.22 C60.375,5.066 61.66,3.316 63.844,3.316 Z M63.864,4.714 C63.214,4.774 62.064,5.229 62.131,7.383 C62.198,9.537 63.14,10.043 63.864,10.043 C64.588,10.043 65.808,9.842 65.808,7.393 C65.808,4.943 64.513,4.653 63.864,4.713 L63.864,4.714 Z M10.898,3.517 C11.608,3.539 12.17,3.539 12.585,3.517 L12.585,7.952 C12.585,9.712 13.231,10.013 13.859,10.074 C14.5839619,10.138849 15.2867489,9.80393302 15.693,9.2 C15.708,7.176 15.708,5.282 15.693,3.517 L17.501,3.517 L17.501,11.347 L15.955,11.347 L15.79,10.197 C15.244,11.138 14.388,11.557 13.222,11.454 C11.472,11.299 10.898,9.806 10.898,8.419 C10.898,5.998 10.86,4.738 10.898,3.517 Z M21.193,5.677 C20.658,5.674 20.097,5.674 19.51,5.677 C19.51,4.833 20.114,3.302 22.531,3.302 C24.949,3.302 25.529,4.962 25.595,5.32 C25.66,5.677 25.426,10.692 25.932,11.262 L24.136,11.263 C23.988,10.756 23.914,10.381 23.914,10.138 C23.634,10.48 23.152,11.105 22.411,11.335 C21.671,11.565 19.988,11.687 19.3,10.073 C18.846,9.01 19.135,7.813 19.988,7.265 C21.398,6.359 23.336,6.662 23.914,6.662 C23.988,5.047 23.506,4.671 22.411,4.671 C21.681,4.671 21.275,5.006 21.193,5.677 Z M23.913,7.767 C23.383,7.756 23.024,7.754 22.139,7.781 C21.434,7.843 20.807,8.364 20.86,9.107 C20.924,9.992 21.93,10.155 22.719,9.9 C23.38,9.685 23.841,9.132 23.913,8.897 L23.913,7.767 Z M37.503,5.677 C36.968,5.674 36.407,5.674 35.82,5.677 C35.82,4.833 36.424,3.302 38.841,3.302 C41.259,3.302 41.839,4.962 41.905,5.32 C41.97,5.677 41.736,10.692 42.242,11.262 L40.446,11.263 C40.298,10.756 40.224,10.381 40.224,10.138 C39.944,10.48 39.461,11.105 38.721,11.335 C37.981,11.565 36.298,11.687 35.609,10.073 C35.155,9.01 35.445,7.813 36.299,7.265 C37.708,6.359 39.645,6.662 40.224,6.662 C40.298,5.047 39.816,4.671 38.721,4.671 C37.991,4.671 37.585,5.006 37.503,5.677 Z M40.223,7.767 C39.693,7.756 39.334,7.754 38.449,7.781 C37.744,7.843 37.116,8.364 37.17,9.107 C37.234,9.992 38.24,10.155 39.029,9.9 C39.689,9.685 40.151,9.132 40.223,8.897 L40.223,7.767 Z M32.175,0.064 L33.879,0.064 L33.879,11.35 L32.478,11.35 C32.3998708,11.0182251 32.3288545,10.6848154 32.265,10.35 C31.985,11.13 29.138,12.505 27.729,10.177 C26.551,8.231 27.199,5.617 27.799,4.672 C28.249,3.962 30.075,2.138 32.175,4.369 C32.178,1.748 32.178,0.313 32.175,0.064 Z M32.185,5.755 C31.913,4.895 30.088,4.351 29.355,5.405 C28.623,6.458 28.657,7.808 29.076,9.044 C29.496,10.279 31.286,10.515 32.186,9.156 L32.186,5.756 L32.185,5.755 Z M48.83,4.508 L49.005,3.516 L50.439,3.516 L50.439,11.46 C50.444,14.229 47.335,15.29 44.479,13.906 C44.642,13.09 44.732,12.633 44.749,12.536 C45.993,12.952 49.09,13.992 48.696,10.545 C46.918,12.367 44.906,11.263 44.209,10.047 C43.441,8.704 42.941,4.698 45.413,3.617 C46.837,2.995 47.976,3.292 48.829,4.508 L48.83,4.508 Z M48.68,5.719 C48.342,5.207 48.125,4.78 46.99,4.78 C45.853,4.78 45.142,6.174 45.389,8.314 C45.635,10.454 47.958,10.454 48.68,9.101 L48.68,5.719 Z" id="Shape"></path>
            </g>
            <path d="M21.9070891,19.795 C21.9070891,19.33 21.7430891,18.957 21.4140891,18.675 C21.0840891,18.392 20.5070891,18.127 19.6830891,17.878 C18.2440891,17.463 17.1570891,16.97 16.4210891,16.4 C15.6850891,15.83 15.3170891,15.05 15.3170891,14.06 C15.3170891,13.069 15.7390891,12.26 16.5820891,11.632 C17.4260891,11.003 18.5040891,10.689 19.8160891,10.689 C21.1440891,10.689 22.2260891,11.042 23.0610891,11.748 C23.8970891,12.453 24.3010891,13.323 24.2730891,14.358 L24.2570891,14.408 L21.9070891,14.408 C21.9070891,13.849 21.7210891,13.397 21.3470891,13.051 C20.9740891,12.705 20.4490891,12.532 19.7740891,12.532 C19.1270891,12.532 18.6260891,12.676 18.2720891,12.964 C17.9296068,13.2267233 17.732177,13.6364272 17.7400891,14.068 C17.7400891,14.478 17.9300891,14.813 18.3100891,15.076 C18.6880891,15.339 19.3420891,15.617 20.2720891,15.911 C21.6060891,16.281 22.6160891,16.771 23.3020891,17.38 C23.9880891,17.989 24.3320891,18.788 24.3320891,19.779 C24.3320891,20.814 23.9230891,21.629 23.1070891,22.227 C22.2910891,22.825 21.2130891,23.124 19.8740891,23.124 C18.5570891,23.124 17.4080891,22.785 16.4290891,22.107 C15.4490891,21.429 14.9740891,20.479 15.0010891,19.256 L15.0180891,19.206 L17.3750891,19.206 C17.3750891,19.926 17.5950891,20.452 18.0350891,20.787 C18.4750891,21.122 19.0880891,21.289 19.8740891,21.289 C20.5320891,21.289 21.0360891,21.154 21.3840891,20.883 C21.7340891,20.612 21.9070891,20.249 21.9070891,19.795 Z M31.4530891,21.655 C31.1770891,22.125 30.8250891,22.488 30.3990891,22.742 C29.9730891,22.997 29.4830891,23.124 28.9290891,23.124 C27.9840891,23.124 27.2430891,22.821 26.7090891,22.215 C26.1750891,21.609 25.9090891,20.667 25.9090891,19.389 L25.9090891,13.969 L28.3240891,13.969 L28.3240891,19.405 C28.3240891,20.058 28.4340891,20.527 28.6560891,20.812 C28.8770891,21.097 29.2040891,21.24 29.6360891,21.24 C30.0230891,21.24 30.3550891,21.177 30.6320891,21.053 C30.9035753,20.9323606 31.138216,20.7418875 31.3120891,20.501 L31.3120891,13.968 L33.7360891,13.968 L33.7360891,22.95 L31.6690891,22.95 L31.4530891,21.655 Z M43.6630891,18.708 C43.6630891,20.036 43.3570891,21.104 42.7430891,21.912 C42.1280891,22.72 41.2700891,23.124 40.1690891,23.124 C39.6990891,23.124 39.2810891,23.037 38.9160891,22.862 C38.5468443,22.6846154 38.2252687,22.4216639 37.9780891,22.095 L37.9780891,26.403 L35.5620891,26.403 L35.5620891,13.968 L37.7450891,13.968 L37.8860891,15.031 C38.1520891,14.638 38.4720891,14.335 38.8460891,14.121 C39.2190891,13.909 39.6550891,13.802 40.1530891,13.802 C41.2650891,13.802 42.1280891,14.237 42.7430891,15.105 C43.3570891,15.975 43.6630891,17.117 43.6630891,18.534 L43.6630891,18.708 Z M41.2400891,18.534 C41.2400891,17.687 41.0990891,17.001 40.8170891,16.475 C40.5340891,15.949 40.1030891,15.686 39.5220891,15.686 C39.1560891,15.686 38.8450891,15.761 38.5880891,15.911 C38.3288175,16.0625333 38.1174257,16.2839748 37.9780891,16.55 L37.9780891,20.484 C38.1280891,20.739 38.3310891,20.933 38.5880891,21.065 C38.8450891,21.198 39.1620891,21.265 39.5380891,21.265 C40.1250891,21.265 40.5550891,21.035 40.8290891,20.575 C41.1030891,20.116 41.2400891,19.494 41.2400891,18.708 L41.2400891,18.534 Z M49.1340891,23.124 C47.8390891,23.124 46.8040891,22.709 46.0300891,21.879 C45.2550891,21.049 44.8670891,19.995 44.8670891,18.716 L44.8670891,18.384 C44.8670891,17.051 45.2340891,15.952 45.9670891,15.089 C46.7000891,14.225 47.6840891,13.797 48.9180891,13.802 C50.1300891,13.802 51.0710891,14.167 51.7400891,14.898 C52.4100891,15.628 52.7450891,16.616 52.7450891,17.861 L52.7450891,19.181 L47.3830891,19.181 L47.3660891,19.231 C47.4100891,19.823 47.6080891,20.31 47.9590891,20.691 C48.3110891,21.074 48.7890891,21.265 49.3910891,21.265 C49.9280891,21.265 50.3740891,21.211 50.7280891,21.103 C51.1319924,20.9735766 51.5214036,20.8026646 51.8900891,20.593 L52.5460891,22.086 C52.1800891,22.386 51.7020891,22.633 51.1100891,22.829 C50.4715061,23.0326712 49.8043142,23.1322773 49.1340891,23.124 Z M48.9180891,15.67 C48.4700891,15.67 48.1160891,15.841 47.8560891,16.184 C47.5960891,16.528 47.4360891,16.979 47.3740891,17.538 L47.3990891,17.579 L50.3710891,17.579 L50.3710891,17.363 C50.3710891,16.849 50.2510891,16.438 50.0100891,16.131 C49.7690891,15.823 49.4050891,15.67 48.9180891,15.67 Z M58.8790891,16.052 L57.9910891,16.027 C57.6310891,16.027 57.3350891,16.101 57.1030891,16.251 C56.8700891,16.401 56.6930891,16.611 56.5720891,16.881 L56.5720891,22.95 L54.1560891,22.95 L54.1560891,13.968 L56.4060891,13.968 L56.5130891,15.296 C56.7230891,14.826 56.9960891,14.459 57.3310891,14.196 C57.6660891,13.934 58.0510891,13.802 58.4890891,13.802 C58.6110891,13.802 58.7230891,13.812 58.8250891,13.832 C58.9280891,13.851 59.0310891,13.874 59.1360891,13.902 L58.8790891,16.052 Z M62.6560891,22.95 L60.2320891,22.95 L60.2320891,13.968 L62.6560891,13.968 L62.6560891,22.95 Z M62.6560891,11.818 L60.2320891,11.818 L60.2320891,10 L62.6560891,10 L62.6560891,11.818 Z M64.2750891,18.376 C64.2750891,17.036 64.6480891,15.94 65.3950891,15.085 C66.1420891,14.23 67.1770891,13.802 68.5000891,13.802 C69.8280891,13.802 70.8680891,14.228 71.6200891,15.08 C72.3730891,15.933 72.7500891,17.031 72.7500891,18.376 L72.7500891,18.55 C72.7500891,19.9 72.3750891,21 71.6250891,21.85 C70.8750891,22.7 69.8390891,23.124 68.5160891,23.124 C67.1880891,23.124 66.1490891,22.699 65.3990891,21.85 C64.6490891,21 64.2750891,19.9 64.2750891,18.55 L64.2750891,18.376 Z M66.6900891,18.55 C66.6900891,19.37 66.8340891,20.026 67.1220891,20.522 C67.4100891,21.017 67.8740891,21.265 68.5160891,21.265 C69.1420891,21.265 69.6000891,21.015 69.8900891,20.517 C70.1800891,20.019 70.3260891,19.364 70.3260891,18.55 L70.3260891,18.376 C70.3260891,17.579 70.1790891,16.929 69.8860891,16.426 C69.5930891,15.922 69.1310891,15.67 68.5000891,15.67 C67.8740891,15.67 67.4160891,15.923 67.1260891,16.43 C66.8360891,16.936 66.6900891,17.585 66.6900891,18.376 L66.6900891,18.55 Z M78.9670891,16.052 L78.0790891,16.027 C77.7190891,16.027 77.4230891,16.101 77.1910891,16.251 C76.9580891,16.401 76.7810891,16.611 76.6590891,16.881 L76.6590891,22.95 L74.2440891,22.95 L74.2440891,13.968 L76.4940891,13.968 L76.6010891,15.296 C76.8110891,14.826 77.0840891,14.459 77.4190891,14.196 C77.7540891,13.934 78.1390891,13.802 78.5770891,13.802 C78.6990891,13.802 78.8110891,13.812 78.9130891,13.832 C79.0150891,13.851 79.1190891,13.874 79.2240891,13.902 L78.9670891,16.052 Z M84.1720891,23.124 C82.8770891,23.124 81.8420891,22.709 81.0670891,21.879 C80.2920891,21.049 79.9050891,19.995 79.9050891,18.716 L79.9050891,18.384 C79.9050891,17.051 80.2720891,15.952 81.0050891,15.089 C81.7380891,14.225 82.7220891,13.797 83.9550891,13.802 C85.1680891,13.802 86.1080891,14.167 86.7780891,14.898 C87.4480891,15.628 87.7820891,16.616 87.7820891,17.861 L87.7820891,19.181 L82.4200891,19.181 L82.4040891,19.231 C82.4480891,19.823 82.6460891,20.31 82.9970891,20.691 C83.3480891,21.074 83.8260891,21.265 84.4290891,21.265 C84.9660891,21.265 85.4110891,21.211 85.7650891,21.103 C86.1689924,20.9735766 86.5584036,20.8026646 86.9270891,20.593 L87.5830891,22.086 C87.2180891,22.386 86.7390891,22.633 86.1470891,22.829 C85.508825,23.0325651 84.8419794,23.1321699 84.1720891,23.124 Z M83.9560891,15.67 C83.5080891,15.67 83.1530891,15.841 82.8930891,16.184 C82.6330891,16.528 82.4730891,16.979 82.4120891,17.538 L82.4370891,17.579 L85.4080891,17.579 L85.4080891,17.363 C85.4080891,16.849 85.2880891,16.438 85.0480891,16.131 C84.8070891,15.823 84.4430891,15.67 83.9560891,15.67 Z" id="Shape" fill="#000000" fill-rule="nonzero"></path>
        </g>
    </g>
</svg>