<svg width="299" height="197" xmlns="http://www.w3.org/2000/svg"><g fill="none" fill-rule="evenodd"><path fill="#F1F2F2" d="M0 0h299v197H0z"/><path d="M1.987 1.98v193.04h295.026V1.98H1.987zM299 0v197H0V0h299z" fill="#C2C2C2" fill-rule="nonzero"/><path d="M4 55.067v-1.204h290v1.204H4zm0 22.326v-1.204h290v1.204H4zm0 18.604v-1.204h290v1.204H4zm0 35.976v-1.204h290v1.204H4zm0 23.56v-1.205h290v1.204H4zm0 22.325v-1.204h290v1.204H4zM38.72 34h1.2v160h-1.2V34zm37.18 0h1.2v160h-1.2V34zm37.18 0h1.2v160h-1.2V34zm33.46 0h1.201v160h-1.2V34zm37.18 0h1.2v160h-1.2V34zm37.18 0h1.2v160h-1.2V34zm37.18 0h1.2v160h-1.2V34z" fill="#DFDEDE" fill-rule="nonzero"/><path fill="#2A3052" fill-rule="nonzero" d="M3.906 131.82v-1.215h291.607v1.215z"/><path fill="#C2C2C2" fill-rule="nonzero" d="M.8 34.78v-2.43h293.563v2.43z"/><path d="M187.24 148.191h-35.181l-5.419-8.223-5.418 8.223h-35.18c-2.635 0-4.742 2.14-4.742 4.807v24.82c0 2.666 2.145 4.807 4.741 4.807h81.236c2.634 0 4.741-2.14 4.741-4.807v-24.82c0-2.666-2.145-4.807-4.778-4.807z" fill="#E88024"/><g fill="#2A3052"><path d="M40.737 99.075c0-.487-.187-.862-.525-1.2-.337-.3-.975-.6-1.875-.787-1.087-.263-1.95-.638-2.55-1.163-.6-.525-.9-1.162-.9-1.912 0-.825.338-1.5.976-2.025.637-.563 1.5-.825 2.55-.825 1.125 0 2.025.3 2.7.937.675.638.975 1.35.975 2.175v.038h-1.35c0-.6-.188-1.088-.6-1.463-.413-.375-.975-.563-1.725-.563-.675 0-1.238.15-1.575.488-.376.3-.563.712-.563 1.237 0 .45.188.825.6 1.125.413.3 1.05.563 1.95.788 1.087.262 1.912.675 2.475 1.2.563.525.863 1.2.863 1.95 0 .825-.338 1.5-1.013 2.025-.675.525-1.575.75-2.662.75-1.013 0-1.95-.3-2.738-.862-.787-.563-1.162-1.313-1.162-2.25V98.7H35.9c0 .675.225 1.163.713 1.538.487.374 1.087.524 1.8.524.712 0 1.237-.15 1.65-.45.487-.3.674-.712.674-1.237zm4.988-6.937v1.874h1.463v1.05h-1.463v4.688c0 .375.075.6.225.75.15.15.338.225.6.225.075 0 .15 0 .263-.037.112 0 .187-.038.262-.076l.188.976c-.113.074-.263.15-.45.224a3.282 3.282 0 0 1-.6.075c-.563 0-1.013-.187-1.35-.525-.338-.337-.488-.9-.488-1.612v-4.688h-1.238v-1.05h1.2v-1.875h1.388z"/><path d="M53.6 101.7c-.038-.225-.075-.45-.113-.637-.037-.188-.037-.338-.037-.526-.263.375-.6.675-1.013.938a2.448 2.448 0 0 1-1.35.375c-.787 0-1.387-.188-1.8-.637-.412-.413-.637-.976-.637-1.688 0-.75.3-1.313.9-1.725.6-.412 1.388-.638 2.4-.638h1.5v-.75c0-.45-.15-.825-.412-1.087-.263-.263-.675-.413-1.163-.413-.45 0-.825.113-1.087.338-.263.225-.413.525-.413.825h-1.312v-.038c-.038-.562.225-1.087.787-1.537.563-.45 1.275-.712 2.138-.712.862 0 1.575.225 2.1.675.525.45.787 1.087.787 1.912v3.713c0 .262 0 .525.038.787.037.262.075.525.15.75H53.6v.075zm-2.325-1.012c.488 0 .975-.113 1.35-.376.413-.262.675-.562.788-.9v-1.237h-1.538c-.563 0-1.012.15-1.35.413a1.258 1.258 0 0 0-.487 1.012c0 .338.112.6.3.825.224.15.524.262.937.262z" fill-rule="nonzero"/><path d="M60.462 95.213l-.712-.038c-.375 0-.675.075-.938.263-.262.187-.45.412-.6.75v5.512h-1.387v-7.725h1.238l.15 1.125a2.83 2.83 0 0 1 .787-.937c.3-.225.675-.338 1.087-.338.113 0 .188 0 .3.038.076 0 .188.037.226.037l-.15 1.313zm3.301-3.075v1.874h1.462v1.05h-1.462v4.688c0 .375.075.6.225.75.15.15.337.225.6.225.075 0 .15 0 .262-.037a.542.542 0 0 0 .263-.076l.187.976c-.112.074-.262.15-.45.224a3.282 3.282 0 0 1-.6.075c-.563 0-1.012-.187-1.35-.525-.337-.337-.487-.9-.487-1.612v-4.688h-1.2v-1.05h1.2v-1.875h1.35z"/></g><path d="M130.904 87.827l-37.362 26.79a1 1 0 0 1-.49.182l-34.958 3.291a1 1 0 1 1-.188-1.99l34.69-3.266L129.9 86.085a1 1 0 0 1 .357-.161l36.539-8.486 36.349-23.682a1 1 0 0 1 .424-.154l37.44-4.594a1 1 0 1 1 .243 1.985l-37.21 4.566L167.74 79.21a1 1 0 0 1-.32.136l-36.516 8.48zm36.064-10.429l-.32.136.148-.096.172-.04zm-74.103 35.41l-.489.183.22-.157.27-.026z" fill="#2A3052" fill-rule="nonzero"/><ellipse cx="8.512" cy="9.225" rx="8.137" ry="8.475" opacity=".6" fill="#FFF" transform="translate(231.25 41)"/><path d="M239.762 59.023c-4.675 0-8.46-3.942-8.46-8.798s3.785-8.798 8.46-8.798c4.676 0 8.461 3.942 8.461 8.798s-3.785 8.798-8.46 8.798zm0-.646c4.313 0 7.815-3.647 7.815-8.152 0-4.505-3.502-8.152-7.815-8.152-4.312 0-7.814 3.647-7.814 8.152 0 4.505 3.502 8.152 7.814 8.152z" fill="#E88024" fill-rule="nonzero"/><ellipse cx="8.137" cy="8.475" rx="8.137" ry="8.475" opacity=".6" transform="translate(84 104.25)" fill="#FFF"/><path d="M92.138 122.523c-4.676 0-8.461-3.942-8.461-8.798s3.785-8.798 8.46-8.798c4.676 0 8.461 3.942 8.461 8.798s-3.785 8.798-8.46 8.798zm0-.646c4.312 0 7.814-3.647 7.814-8.152 0-4.505-3.502-8.152-7.814-8.152-4.313 0-7.815 3.647-7.815 8.152 0 4.505 3.502 8.152 7.815 8.152z" fill="#E88024" fill-rule="nonzero"/><path d="M25.902 19.514l1.627-8.6h2.481L27.33 23h-2.507l-1.968-8.085L20.888 23H18.38L15.7 10.914h2.482l1.635 8.583 1.992-8.583h2.109l1.984 8.6zm8.051 1.552h4.391V23H30.89v-1.46l4.225-5.58h-4.1v-1.94h7.197v1.419l-4.259 5.628zm10.94-4.798a6.517 6.517 0 0 0-.862-.066c-.908 0-1.503.307-1.785.921V23h-2.4v-8.981h2.267l.066 1.07c.482-.824 1.149-1.236 2-1.236.267 0 .516.036.748.107l-.033 2.308zM51.004 23a2.664 2.664 0 0 1-.24-.805c-.582.647-1.337.971-2.267.971-.88 0-1.609-.255-2.187-.764a2.456 2.456 0 0 1-.867-1.925c0-.952.352-1.683 1.058-2.192.706-.509 1.725-.766 3.059-.772h1.104V17c0-.416-.107-.748-.32-.997-.213-.249-.549-.373-1.008-.373-.404 0-.721.097-.95.29-.23.194-.345.46-.345.797h-2.4c0-.52.161-1.001.482-1.444.321-.443.775-.79 1.362-1.042.586-.252 1.245-.377 1.975-.377 1.107 0 1.985.278 2.636.834.65.556.975 1.338.975 2.345v3.893c.006.852.125 1.497.357 1.934V23h-2.424zm-1.984-1.668c.354 0 .68-.08.98-.237.299-.158.52-.37.664-.635v-1.544h-.897c-1.2 0-1.84.415-1.917 1.245l-.008.141a.96.96 0 0 0 .315.739c.21.194.498.29.863.29zm10.758-.814c0-.293-.145-.524-.436-.693-.29-.169-.756-.32-1.398-.452-2.136-.449-3.204-1.356-3.204-2.723 0-.797.33-1.462.991-1.996.662-.534 1.526-.801 2.594-.801 1.14 0 2.052.268 2.736.805.683.537 1.025 1.234 1.025 2.092h-2.4c0-.344-.11-.627-.331-.851-.222-.224-.567-.336-1.038-.336-.404 0-.716.09-.938.273a.865.865 0 0 0-.332.698c0 .265.126.48.378.643.252.163.676.304 1.274.423.598.12 1.101.254 1.51.403 1.268.465 1.902 1.27 1.902 2.415 0 .82-.352 1.482-1.055 1.988-.702.507-1.61.76-2.722.76-.753 0-1.421-.134-2.005-.403-.584-.268-1.042-.636-1.374-1.104a2.565 2.565 0 0 1-.498-1.514h2.275c.022.426.18.752.473.979.293.227.686.34 1.179.34.459 0 .806-.087 1.041-.261a.814.814 0 0 0 .353-.685zm6.749-8.707v2.208h1.535v1.76h-1.535v4.482c0 .332.063.57.19.714.128.143.371.215.731.215.266 0 .5-.019.706-.058v1.818c-.47.144-.955.216-1.453.216-1.682 0-2.54-.85-2.573-2.548v-4.84h-1.312v-1.76h1.312v-2.207h2.399zM74.602 23a2.664 2.664 0 0 1-.24-.805c-.581.647-1.337.971-2.267.971-.88 0-1.609-.255-2.187-.764a2.456 2.456 0 0 1-.867-1.925c0-.952.353-1.683 1.058-2.192.706-.509 1.725-.766 3.059-.772h1.104V17c0-.416-.107-.748-.32-.997-.213-.249-.549-.373-1.008-.373-.404 0-.72.097-.95.29-.23.194-.345.46-.345.797H69.24c0-.52.16-1.001.481-1.444.321-.443.775-.79 1.362-1.042.586-.252 1.245-.377 1.975-.377 1.107 0 1.986.278 2.636.834.65.556.975 1.338.975 2.345v3.893c.006.852.125 1.497.357 1.934V23h-2.424zm-1.984-1.668c.355 0 .681-.08.98-.237.299-.158.52-.37.664-.635v-1.544h-.897c-1.2 0-1.84.415-1.917 1.245l-.008.141a.96.96 0 0 0 .315.739c.21.194.498.29.863.29z" fill="#000" fill-rule="nonzero"/><path d="M236.962 70.372l-1.216 1.265V75h-1.313v-9.953h1.313v4.922l4.422-4.922h1.586l-3.917 4.395L242.062 75h-1.572l-3.528-4.628zm5.53.861c0-.724.143-1.376.428-1.955a3.187 3.187 0 0 1 1.19-1.34c.508-.314 1.087-.471 1.74-.471 1.006 0 1.82.348 2.443 1.046.622.697.933 1.624.933 2.782v.089c0 .72-.138 1.366-.413 1.938a3.14 3.14 0 0 1-1.183 1.336c-.513.32-1.102.479-1.767.479-1.003 0-1.815-.349-2.437-1.046-.622-.697-.933-1.62-.933-2.769v-.089zm1.272.15c0 .821.19 1.48.571 1.976.38.497.89.745 1.528.745.642 0 1.153-.251 1.531-.755.378-.503.567-1.209.567-2.116 0-.81-.192-1.468-.577-1.972-.385-.503-.897-.755-1.535-.755-.624 0-1.128.248-1.51.745-.383.497-.575 1.208-.575 2.133zm8.244-3.78l.041.93c.565-.71 1.304-1.066 2.215-1.066 1.563 0 2.352.882 2.365 2.645V75h-1.264v-4.895c-.005-.533-.127-.927-.366-1.182-.24-.255-.612-.383-1.118-.383-.41 0-.77.11-1.08.328-.31.219-.551.506-.724.861V75h-1.265v-7.396h1.196zM259.911 75h-1.265v-7.396h1.265V75zm-1.368-9.358c0-.205.063-.379.188-.52.126-.141.311-.212.558-.212.246 0 .433.07.56.212a.747.747 0 0 1 .192.52.722.722 0 0 1-.192.512c-.127.137-.314.205-.56.205-.247 0-.432-.068-.558-.205a.73.73 0 0 1-.188-.512zm6.46 9.495c-1.002 0-1.818-.33-2.447-.988-.629-.659-.943-1.54-.943-2.642v-.233c0-.733.14-1.388.42-1.965a3.28 3.28 0 0 1 1.176-1.353 2.956 2.956 0 0 1 1.637-.49c.962 0 1.71.318 2.242.951.534.633.8 1.54.8 2.72v.527h-5.01c.018.73.23 1.318.639 1.767.407.449.926.673 1.555.673.446 0 .825-.09 1.135-.273.31-.182.58-.424.813-.725l.772.602c-.62.952-1.549 1.429-2.789 1.429zm-.157-6.631c-.51 0-.939.186-1.285.557-.346.371-.56.892-.643 1.562h3.706v-.096c-.037-.642-.21-1.14-.52-1.493-.31-.354-.73-.53-1.258-.53zm7.472 5.598c.451 0 .845-.136 1.182-.41.338-.273.525-.615.561-1.025h1.196a2.293 2.293 0 0 1-.437 1.21 2.881 2.881 0 0 1-1.077.916 3.107 3.107 0 0 1-1.425.342c-1.007 0-1.808-.336-2.403-1.009-.595-.672-.892-1.591-.892-2.758v-.212c0-.72.132-1.36.396-1.92a3.02 3.02 0 0 1 1.139-1.306c.494-.31 1.079-.465 1.753-.465.83 0 1.519.248 2.068.745.55.497.842 1.142.878 1.934h-1.196a1.745 1.745 0 0 0-.543-1.179c-.326-.307-.728-.461-1.207-.461-.643 0-1.14.231-1.494.694-.353.462-.53 1.131-.53 2.006v.24c0 .852.176 1.508.527 1.968.35.46.852.69 1.504.69z" fill="#2A3052" fill-rule="nonzero"/><path d="M122.109 166.771h.053L123.99 158h2.505l-2.989 12.797h-2.381l-2.347-8.447h-.053l-2.347 8.447h-2.381L111 158h2.513l1.837 8.762.053.01 2.4-8.772h1.889l2.417 8.771zm9.044.035l.105.528h.053l1.82-6.047h2.76l-3.86 10.933a5.034 5.034 0 0 1-1.098 1.719c-.463.465-1.157.698-2.083.698a3.22 3.22 0 0 1-.602-.052 13.71 13.71 0 0 1-.672-.15l.299-1.872c.076.012.158.024.246.035.088.012.167.018.237.018.422 0 .747-.104.976-.312a2.06 2.06 0 0 0 .527-.778l.299-.738-3.375-9.501h2.76l1.608 5.52v-.001zm5.238-.685c0-1.5.327-2.71.98-3.63.653-.92 1.569-1.38 2.747-1.38.533 0 1.002.12 1.406.36.404.24.75.583 1.037 1.029l.202-1.213h2.215v9.466c0 1.236-.406 2.192-1.217 2.87-.812.676-1.941 1.014-3.388 1.014-.48 0-.99-.066-1.53-.197a7.102 7.102 0 0 1-1.494-.54l.475-1.917c.392.188.792.33 1.2.426.437.1.883.149 1.331.145.703 0 1.22-.146 1.551-.44.331-.292.497-.75.497-1.37v-.862c-.281.358-.612.63-.993.818a2.937 2.937 0 0 1-1.31.281c-1.166 0-2.076-.43-2.729-1.288-.653-.858-.98-1.987-.98-3.388v-.184zm2.567.184c0 .832.14 1.487.421 1.965.282.477.739.716 1.372.716.392 0 .725-.072.997-.215.273-.144.49-.353.655-.629v-4.13a1.77 1.77 0 0 0-.655-.669c-.272-.158-.6-.237-.98-.237-.627 0-1.085.278-1.375.835-.29.557-.435 1.283-.435 2.18v.184zm12.99-2.812l-.94-.027c-.382 0-.695.08-.941.238a1.5 1.5 0 0 0-.563.668v6.425h-2.557v-9.51h2.382l.114 1.406c.223-.498.511-.886.866-1.165a1.93 1.93 0 0 1 1.226-.417c.129 0 .247.01.356.03.108.021.218.046.33.075l-.273 2.277zm6.882 7.304a5.398 5.398 0 0 1-.242-.686 4.77 4.77 0 0 1-.145-.738c-.264.463-.61.846-1.042 1.151-.43.305-.944.457-1.542.457-.996 0-1.764-.256-2.303-.769-.539-.513-.808-1.211-.808-2.096 0-.932.358-1.654 1.076-2.167.718-.512 1.765-.769 3.142-.769h1.433v-.756c0-.457-.12-.811-.36-1.063-.24-.252-.595-.378-1.064-.378-.416 0-.737.101-.962.303-.226.202-.339.482-.339.84l-2.478-.01-.009-.052c-.041-.803.308-1.496 1.046-2.079.738-.583 1.708-.874 2.91-.874 1.136 0 2.059.289 2.768.866.709.577 1.063 1.399 1.063 2.465v3.929c0 .445.034.864.101 1.257.068.392.175.782.321 1.169h-2.566zm-2.347-1.714c.451 0 .852-.112 1.204-.334.352-.223.589-.48.712-.774v-1.344h-1.433c-.545 0-.958.136-1.239.408a1.326 1.326 0 0 0-.422.989c0 .316.106.571.317.765.21.193.498.29.86.29h.001zm8.78-7.796l.114 1.362a3.478 3.478 0 0 1 1.17-1.134c.462-.27.98-.404 1.555-.404.961 0 1.711.302 2.25.905.54.604.809 1.55.809 2.84v5.94h-2.576v-5.932c0-.639-.128-1.091-.386-1.358-.258-.267-.648-.4-1.17-.4a1.879 1.879 0 0 0-1.59.791v6.9h-2.566v-9.51h2.39zm13.395 9.51a5.398 5.398 0 0 1-.242-.686 4.77 4.77 0 0 1-.145-.738c-.264.463-.61.846-1.041 1.151-.431.305-.945.457-1.543.457-.996 0-1.764-.256-2.303-.769-.539-.513-.808-1.211-.808-2.096 0-.932.359-1.654 1.076-2.167.718-.512 1.765-.769 3.142-.769h1.433v-.756c0-.457-.12-.811-.36-1.063-.24-.252-.595-.378-1.064-.378-.416 0-.737.101-.962.303-.226.202-.339.482-.339.84l-2.478-.01-.009-.052c-.04-.803.308-1.496 1.046-2.079.738-.583 1.708-.874 2.91-.874 1.136 0 2.059.289 2.768.866.709.577 1.063 1.399 1.063 2.465v3.929c0 .445.034.864.101 1.257.068.392.175.782.321 1.169h-2.566zm-2.347-1.714c.451 0 .853-.112 1.204-.334.352-.223.589-.48.712-.774v-1.344h-1.433c-.544 0-.958.136-1.239.408a1.326 1.326 0 0 0-.422.989c0 .316.106.571.317.765.21.193.498.29.861.29zm9.193-2.699h-2.566V158h2.566v8.384zm0 4.413h-2.566v-2.25h2.566v2.25z" fill="#FFF" fill-rule="nonzero"/></g></svg>