<?xml version="1.0" encoding="UTF-8"?>
<svg width="16px" height="16px" viewBox="0 0 16 16" version="1.1" xmlns="http://www.w3.org/2000/svg" xmlns:xlink="http://www.w3.org/1999/xlink">
    <!-- Generator: Sketch 50.2 (55047) - http://www.bohemiancoding.com/sketch -->
    <title>icons/system/light/indicative/ic_price_down</title>
    <desc>Created with Sketch.</desc>
    <defs></defs>
    <g id="icons/system/light/indicative/ic_price_down" stroke="none" stroke-width="1" fill="none" fill-rule="evenodd">
        <g id="vector" transform="translate(1.000000, 4.000000)" fill="#F44336" fill-rule="nonzero">
            <path d="M13,6.29289322 L13,3.5 C13,3.22385763 13.2238576,3 13.5,3 C13.7761424,3 14,3.22385763 14,3.5 L14,7.5 C14,7.77614237 13.7761424,8 13.5,8 L9.5,8 C9.22385763,8 9,7.77614237 9,7.5 C9,7.22385763 9.22385763,7 9.5,7 L12.2928932,7 L7.5,2.20710678 L4.85355339,4.85355339 C4.65829124,5.04881554 4.34170876,5.04881554 4.14644661,4.85355339 L0.146446609,0.853553391 C-0.0488155365,0.658291245 -0.0488155365,0.341708755 0.146446609,0.146446609 C0.341708755,-0.0488155365 0.658291245,-0.0488155365 0.853553391,0.146446609 L4.5,3.79289322 L7.14644661,1.14644661 C7.34170876,0.951184464 7.65829124,0.951184464 7.85355339,1.14644661 L13,6.29289322 Z" id="Combined-Shape"></path>
        </g>
    </g>
</svg>