<svg width="16" height="16" xmlns="http://www.w3.org/2000/svg"><g stroke="#2A3052" fill="none" fill-rule="evenodd"><path d="M6.491 4.5L4.5 2.026c.37-.29.86-.451 1.37-.451.54 0 1.15.15 1.961.397.17.05.35.076.53.075.445 0 .872-.141 1.278-.282.406-.14.76-.265 1.126-.265.266 0 .524.073.735.207L9.672 4.5M4.583 14.5c-.553 0-1.084-.258-1.474-.714-.39-.456-.61-1.074-.609-1.718 0-2.244.708-3.377 2.1-5.337A11.961 11.961 0 0 1 6.647 4.5h2.706c.762.638 1.45 1.388 2.047 2.231 1.394 1.96 2.1 3.09 2.1 5.337.002.643-.216 1.26-.606 1.715-.39.455-.918.71-1.47.71l-6.841.007z" fill="#FFF" stroke-linecap="round" stroke-linejoin="round"/><path d="M8.75 10.701a.61.61 0 0 0-.171-.445c-.117-.12-.316-.23-.596-.33a4.884 4.884 0 0 1-.677-.285c-.547-.293-.823-.731-.823-1.308 0-.391.12-.714.36-.968.238-.253.56-.402.922-.4l.05-.795.597.05-.043.703c.409.058.727.233.952.523.224.288.335.662.285 1.169l-.877-.05c0-.277-.062-.492-.183-.648a.58.58 0 0 0-.485-.228c-.207 0-.365.055-.478.163-.112.109-.17.265-.17.474 0 .185.057.331.169.44.116.115.317.225.602.33.294.108.525.208.694.3.17.094.315.2.432.322.119.122.21.262.274.421.064.159.096.344.096.555 0 .398-.123.723-.368.972a1.319 1.319 0 0 1-.972.389l-.05.716-.593-.05.044-.613c-.463-.052-.821-.219-1.073-.502-.25-.283-.376-.657-.326-1.17l.88.05c0 .275.069.485.204.632.135.147.326.22.577.22.248 0 .434-.059.559-.175a.597.597 0 0 0 .187-.462z" stroke-width=".1" fill="#2A3052"/></g></svg>