<?xml version="1.0" encoding="utf-8"?>
<!-- Generator: Adobe Illustrator 21.0.2, SVG Export Plug-In . SVG Version: 6.00 Build 0)  -->
<svg version="1.1" id="Layer_1" xmlns="http://www.w3.org/2000/svg" xmlns:xlink="http://www.w3.org/1999/xlink" x="0px" y="0px"
	 viewBox="0 0 45 45" style="enable-background:new 0 0 45 45;" xml:space="preserve">
<style type="text/css">
	.st0{fill:#DEDEDE;}
	.st1{enable-background:new    ;}
	.st2{fill:#FFFFFF;}
</style>
<g transform="translate(-18286 -22912)">
	<circle class="st0" cx="18308.5" cy="22934.5" r="22.5"/>
	<g class="st1">
		<path class="st2" d="M18306.8,22935h1.7c0.9,0,1.5-0.2,1.8-0.6c0.4-0.4,0.5-1,0.5-1.8c0-0.8-0.2-1.4-0.6-1.9
			c-0.4-0.4-1-0.6-1.8-0.6c-0.7,0-1.3,0.2-1.8,0.7c-0.5,0.4-0.7,1-0.7,1.8h-1.8l0-0.1c0-1.1,0.4-2,1.2-2.7c0.8-0.8,1.9-1.1,3.2-1.1
			c1.3,0,2.4,0.3,3.1,1c0.8,0.7,1.2,1.7,1.2,3c0,0.6-0.2,1.2-0.5,1.8c-0.4,0.6-0.9,1-1.6,1.3c0.9,0.3,1.5,0.7,1.8,1.3
			c0.4,0.6,0.5,1.3,0.5,2c0,1.3-0.4,2.3-1.3,3.1c-0.8,0.7-1.9,1.1-3.3,1.1c-1.3,0-2.4-0.3-3.2-1.1c-0.9-0.7-1.3-1.6-1.2-2.8l0-0.1
			h1.8c0,0.7,0.2,1.3,0.7,1.8c0.5,0.4,1.1,0.7,1.9,0.7c0.8,0,1.5-0.2,1.9-0.7s0.7-1.1,0.7-2c0-0.9-0.2-1.5-0.6-1.9
			c-0.4-0.4-1.1-0.6-1.9-0.6h-1.7V22935z"/>
	</g>
</g>
</svg>
