<svg id="Layer_1" xmlns="http://www.w3.org/2000/svg" viewBox="0 0 45 45"><style>.st0{fill:#dedede}.st1{enable-background:new}.st2{fill:#fff}</style><g transform="translate(-18286 -22912)"><circle class="st0" cx="18308.5" cy="22934.5" r="22.5"/><g class="st1"><path class="st2" d="M18306.8 22935h1.7c.9 0 1.5-.2 1.8-.6.4-.4.5-1 .5-1.8s-.2-1.4-.6-1.9c-.4-.4-1-.6-1.8-.6-.7 0-1.3.2-1.8.7-.5.4-.7 1-.7 1.8h-1.8v-.1c0-1.1.4-2 1.2-2.7.8-.8 1.9-1.1 3.2-1.1 1.3 0 2.4.3 3.1 1 .8.7 1.2 1.7 1.2 3 0 .6-.2 1.2-.5 1.8-.4.6-.9 1-1.6 1.3.9.3 1.5.7 1.8 1.3.4.6.5 1.3.5 2 0 1.3-.4 2.3-1.3 3.1-.8.7-1.9 1.1-3.3 1.1-1.3 0-2.4-.3-3.2-1.1-.9-.7-1.3-1.6-1.2-2.8v-.1h1.8c0 .7.2 1.3.7 1.8.5.4 1.1.7 1.9.7.8 0 1.5-.2 1.9-.7s.7-1.1.7-2c0-.9-.2-1.5-.6-1.9-.4-.4-1.1-.6-1.9-.6h-1.7v-1.6z"/></g></g></svg>