<?xml version="1.0" encoding="utf-8"?>
<!-- Generator: Adobe Illustrator 21.0.2, SVG Export Plug-In . SVG Version: 6.00 Build 0)  -->
<svg version="1.1" id="Layer_1" xmlns="http://www.w3.org/2000/svg" xmlns:xlink="http://www.w3.org/1999/xlink" x="0px" y="0px"
	 viewBox="0 0 45 45" style="enable-background:new 0 0 45 45;" xml:space="preserve">
<style type="text/css">
	.st0{fill:#DEDEDE;}
	.st1{enable-background:new    ;}
	.st2{fill:#FFFFFF;}
</style>
<g transform="translate(-18788 -22698)">
	<circle class="st0" cx="18810.5" cy="22720.5" r="22.5"/>
	<g class="st1">
		<path class="st2" d="M18806.7,22722.6l0.8-7.8h7.1v1.7h-5.5l-0.5,4c0.3-0.2,0.6-0.4,1-0.6c0.4-0.1,0.8-0.2,1.3-0.2
			c1.3,0,2.3,0.4,3.1,1.3c0.8,0.9,1.1,2,1.1,3.5c0,1.4-0.4,2.6-1.1,3.4c-0.8,0.9-1.9,1.3-3.3,1.3c-1.2,0-2.2-0.3-3-1
			c-0.8-0.7-1.2-1.6-1.2-2.9l0-0.1h1.7c0,0.8,0.2,1.4,0.7,1.8c0.4,0.4,1,0.6,1.7,0.6c0.8,0,1.4-0.3,1.9-0.9c0.4-0.6,0.7-1.4,0.7-2.3
			c0-0.9-0.2-1.7-0.7-2.2c-0.5-0.6-1.1-0.9-1.9-0.9c-0.8,0-1.3,0.1-1.6,0.3c-0.3,0.2-0.6,0.6-0.7,1L18806.7,22722.6z"/>
	</g>
</g>
</svg>
