<?xml version="1.0" encoding="utf-8"?>
<!-- Generator: Adobe Illustrator 21.0.2, SVG Export Plug-In . SVG Version: 6.00 Build 0)  -->
<svg version="1.1" id="Layer_1" xmlns="http://www.w3.org/2000/svg" xmlns:xlink="http://www.w3.org/1999/xlink" x="0px" y="0px"
	 viewBox="0 0 45 45" style="enable-background:new 0 0 45 45;" xml:space="preserve">
<style type="text/css">
	.st0{fill:#DEDEDE;}
	.st1{enable-background:new    ;}
	.st2{fill:#FFFFFF;}
</style>
<g transform="translate(-18286 -22698)">
	<circle class="st0" cx="18308.5" cy="22720.5" r="22.5"/>
	<g class="st1">
		<path class="st2" d="M18309.6,22714.6c0.5,0,1,0.1,1.5,0.2c0.5,0.1,0.9,0.2,1.2,0.4l-0.4,1.5c-0.3-0.2-0.7-0.3-1-0.4
			c-0.3-0.1-0.8-0.2-1.2-0.2c-1,0-1.8,0.4-2.5,1.2c-0.6,0.8-0.9,1.9-0.9,3.2v0.2c0.4-0.4,0.9-0.7,1.4-0.9c0.5-0.2,1.1-0.3,1.7-0.3
			c1.3,0,2.3,0.4,3,1.3s1.1,2,1.1,3.3c0,1.5-0.4,2.7-1.2,3.6c-0.8,0.9-1.9,1.4-3.2,1.4c-1.4,0-2.5-0.5-3.5-1.5
			c-0.9-1-1.4-2.4-1.4-4.3v-2.7c0-1.8,0.5-3.3,1.5-4.4S18308.1,22714.6,18309.6,22714.6z M18308.9,22721c-0.7,0-1.2,0.1-1.7,0.4
			c-0.5,0.3-0.8,0.6-1.1,1.1v1.2c0,1.3,0.3,2.3,0.8,3c0.6,0.7,1.2,1.1,2.1,1.1c0.8,0,1.4-0.3,1.8-1c0.4-0.7,0.7-1.5,0.7-2.5
			c0-0.9-0.2-1.7-0.7-2.3C18310.4,22721.3,18309.8,22721,18308.9,22721z"/>
	</g>
</g>
</svg>
