<svg id="Layer_1" xmlns="http://www.w3.org/2000/svg" viewBox="0 0 360.4 365"><style>.st0{enable-background:new}.st1{fill:#41479b}.st2{fill:#f5f5f5}.st3{fill:#ff4b55}.st4{opacity:.4;fill:#13163e;enable-background:new}.st5{fill:#ffe15a}.st6{opacity:.278;fill:#7b7b7b;enable-background:new}</style><g id="Group_597" transform="translate(-18914 -23041)"><g class="st0"><path d="M18933.3 23130.3c-.3.5-.8.9-1.6 1.3s-1.7.6-2.9.6c-1.5 0-2.8-.5-3.8-1.5s-1.5-2.2-1.5-3.8v-2.6c0-1.6.5-2.8 1.4-3.8.9-1 2.1-1.5 3.6-1.5s2.6.4 3.5 1.1 1.3 1.6 1.3 2.8v.1h-1.7c-.1-.7-.3-1.4-.8-1.8-.5-.5-1.3-.7-2.2-.7-1 0-1.8.4-2.4 1.1s-.9 1.7-.9 2.8v2.7c0 1.1.3 2.1 1 2.8.7.7 1.5 1.1 2.5 1.1.7 0 1.3-.1 1.8-.3.5-.2.8-.4 1-.7v-2.9h-2.8v-1.4h4.5v4.6zM18936.3 23132v-12.8h4.2c1.3 0 2.4.3 3.1.9.8.6 1.1 1.4 1.1 2.6 0 .6-.2 1.1-.5 1.5-.4.4-.8.8-1.4 1 .8.2 1.4.5 1.8 1.1.4.6.7 1.3.7 2.1 0 1.2-.4 2.1-1.1 2.7-.8.6-1.8.9-3.1.9h-4.8zm1.8-7.4h2.8c.6 0 1.2-.2 1.6-.5.4-.4.6-.8.6-1.5s-.2-1.2-.7-1.6c-.4-.3-1.1-.5-1.9-.5h-2.4v4.1zm0 1.4v4.6h3c.8 0 1.4-.2 1.8-.6.4-.4.7-.9.7-1.7 0-.7-.2-1.3-.5-1.8-.4-.4-.9-.6-1.7-.6h-3.3zM18949.6 23126.9v5.1h-1.7v-12.8h4.9c1.4 0 2.4.4 3.2 1.1s1.1 1.6 1.1 2.8c0 1.2-.4 2.1-1.1 2.8-.8.7-1.8 1-3.2 1h-3.2zm0-1.4h3.2c.9 0 1.5-.2 1.9-.7.4-.5.6-1.1.6-1.8s-.2-1.3-.6-1.8c-.4-.5-1.1-.7-1.9-.7h-3.2v5zM18959.4 23133.1h-1.5l5.3-13.9h1.5l-5.3 13.9zM18976.2 23119.2v8.7c0 1.4-.5 2.5-1.4 3.2-.9.7-2.1 1.1-3.5 1.1s-2.5-.4-3.4-1.1c-.9-.7-1.3-1.8-1.3-3.2v-8.7h1.7v8.7c0 1 .3 1.7.8 2.2.6.5 1.3.8 2.2.8.9 0 1.7-.2 2.3-.8.6-.5.9-1.2.9-2.2v-8.7h1.7zM18986 23128.8c0-.6-.2-1.1-.7-1.5-.4-.4-1.2-.7-2.3-1-1.4-.3-2.4-.8-3.2-1.4-.8-.6-1.1-1.4-1.1-2.4s.4-1.8 1.2-2.5c.8-.7 1.9-1 3.2-1 1.4 0 2.5.4 3.3 1.2.8.8 1.2 1.7 1.2 2.7v.1h-1.7c0-.8-.2-1.4-.7-1.8-.5-.5-1.2-.7-2.1-.7-.9 0-1.5.2-2 .6-.5.4-.7.9-.7 1.5s.2 1 .7 1.4c.5.4 1.3.7 2.4 1 1.3.3 2.4.8 3.1 1.5s1.1 1.5 1.1 2.4c0 1-.4 1.9-1.3 2.5s-1.9.9-3.3.9c-1.3 0-2.4-.3-3.4-1s-1.5-1.6-1.4-2.8v-.1h1.7c0 .8.3 1.4.9 1.9s1.4.6 2.2.6c.9 0 1.6-.2 2.1-.6.5-.4.8-.9.8-1.5zM18990.2 23132v-12.8h3.9c1.7 0 3 .5 4 1.5s1.5 2.4 1.5 4v1.8c0 1.6-.5 3-1.5 4s-2.4 1.5-4 1.5h-3.9zm1.8-11.4v10.1h2.2c1.2 0 2.1-.4 2.8-1.2.7-.8 1-1.8 1-3v-1.8c0-1.2-.3-2.2-1-3-.7-.8-1.6-1.2-2.8-1.2h-2.2z"/></g><g class="st0"><path d="M18934.8 23250.2v8.7c0 1.4-.5 2.5-1.4 3.2-.9.7-2.1 1.1-3.5 1.1s-2.5-.4-3.4-1.1c-.9-.7-1.3-1.8-1.3-3.2v-8.7h1.7v8.7c0 1 .3 1.7.8 2.2.6.5 1.3.8 2.2.8.9 0 1.7-.2 2.3-.8.6-.5.9-1.2.9-2.2v-8.7h1.7zM18944.6 23259.8c0-.6-.2-1.1-.7-1.5-.4-.4-1.2-.7-2.3-1-1.4-.3-2.4-.8-3.2-1.4-.8-.6-1.1-1.4-1.1-2.4s.4-1.8 1.2-2.5c.8-.7 1.9-1 3.2-1 1.4 0 2.5.4 3.3 1.2.8.8 1.2 1.7 1.2 2.7v.1h-1.7c0-.8-.2-1.4-.7-1.8-.5-.5-1.2-.7-2.1-.7-.9 0-1.5.2-2 .6-.5.4-.7.9-.7 1.5s.2 1 .7 1.4c.5.4 1.3.7 2.4 1 1.3.3 2.4.8 3.1 1.5s1.1 1.5 1.1 2.4c0 1-.4 1.9-1.3 2.5s-1.9.9-3.3.9c-1.3 0-2.4-.3-3.4-1s-1.5-1.6-1.4-2.8v-.1h1.7c0 .8.3 1.4.9 1.9.6.4 1.3.6 2.2.6.9 0 1.6-.2 2.1-.6s.8-.9.8-1.5zM18948.9 23263v-12.8h3.9c1.7 0 3 .5 4 1.5s1.5 2.4 1.5 4v1.8c0 1.6-.5 3-1.5 4s-2.4 1.5-4 1.5h-3.9zm1.7-11.4v10.1h2.2c1.2 0 2.1-.4 2.8-1.2.7-.8 1-1.8 1-3v-1.8c0-1.2-.3-2.2-1-3-.7-.8-1.6-1.2-2.8-1.2h-2.2zM18960.8 23264.1h-1.5l5.3-13.9h1.5l-5.3 13.9zM18973.4 23250.2h1.7v9.3c0 1.1-.4 2.1-1.1 2.7-.7.7-1.7 1-2.8 1-1.2 0-2.2-.3-2.9-.9s-1.1-1.5-1-2.7v-.1h1.7c0 .8.2 1.4.6 1.8.4.4 1 .6 1.7.6.6 0 1.2-.2 1.6-.6.4-.4.6-1 .6-1.7v-9.4zM18979.9 23257.9v5.1h-1.7v-12.8h4.9c1.4 0 2.4.4 3.2 1.1.8.7 1.1 1.6 1.1 2.8 0 1.2-.4 2.1-1.1 2.8-.8.7-1.8 1-3.2 1h-3.2zm0-1.4h3.2c.9 0 1.5-.2 1.9-.7s.6-1.1.6-1.8-.2-1.3-.6-1.8c-.4-.5-1.1-.7-1.9-.7h-3.2v5zM18993.6 23256.7l3.3-6.5h2l-4.5 8.3v4.5h-1.7v-4.6l-4.4-8.2h2l3.3 6.5z"/></g><g class="st0"><path d="M18934.7 23392.3c-.3.5-.8.9-1.6 1.3s-1.7.6-2.9.6c-1.5 0-2.8-.5-3.8-1.5s-1.5-2.2-1.5-3.8v-2.6c0-1.6.5-2.8 1.4-3.8.9-1 2.1-1.5 3.6-1.5s2.6.4 3.5 1.1 1.3 1.6 1.3 2.8v.1h-1.7c-.1-.7-.3-1.4-.8-1.8-.5-.5-1.3-.7-2.2-.7-1 0-1.8.4-2.4 1.1s-.9 1.7-.9 2.8v2.7c0 1.1.3 2.1 1 2.8.7.7 1.5 1.1 2.5 1.1.7 0 1.3-.1 1.8-.3.5-.2.8-.4 1-.7v-2.9h-2.8v-1.4h4.5v4.6zM18937.7 23394v-12.8h4.2c1.3 0 2.4.3 3.1.9.8.6 1.1 1.4 1.1 2.6 0 .6-.2 1.1-.5 1.5-.4.4-.8.8-1.4 1 .8.2 1.4.5 1.8 1.1.4.6.7 1.3.7 2.1 0 1.2-.4 2.1-1.1 2.7-.8.6-1.8.9-3.1.9h-4.8zm1.8-7.4h2.8c.6 0 1.2-.2 1.6-.5.4-.4.6-.8.6-1.5s-.2-1.2-.7-1.6c-.4-.3-1.1-.5-1.9-.5h-2.4v4.1zm0 1.4v4.6h3c.8 0 1.4-.2 1.8-.6.4-.4.7-.9.7-1.7 0-.7-.2-1.3-.5-1.8-.4-.4-.9-.6-1.7-.6h-3.3zM18951 23388.9v5.1h-1.7v-12.8h4.9c1.4 0 2.4.4 3.2 1.1s1.1 1.6 1.1 2.8c0 1.2-.4 2.1-1.1 2.8-.8.7-1.8 1-3.2 1h-3.2zm0-1.4h3.2c.9 0 1.5-.2 1.9-.7.4-.5.6-1.1.6-1.8s-.2-1.3-.6-1.8c-.4-.5-1.1-.7-1.9-.7h-3.2v5zM18960.8 23395.1h-1.5l5.3-13.9h1.5l-5.3 13.9zM18973.4 23381.2h1.7v9.3c0 1.1-.4 2.1-1.1 2.7-.7.7-1.7 1-2.8 1-1.2 0-2.2-.3-2.9-.9s-1.1-1.5-1-2.7v-.1h1.7c0 .8.2 1.4.6 1.8.4.4 1 .6 1.7.6.6 0 1.2-.2 1.6-.6.4-.4.6-1 .6-1.7v-9.4zM18979.9 23388.9v5.1h-1.7v-12.8h4.9c1.4 0 2.4.4 3.2 1.1s1.1 1.6 1.1 2.8c0 1.2-.4 2.1-1.1 2.8-.8.7-1.8 1-3.2 1h-3.2zm0-1.4h3.2c.9 0 1.5-.2 1.9-.7.4-.5.6-1.1.6-1.8s-.2-1.3-.6-1.8c-.4-.5-1.1-.7-1.9-.7h-3.2v5zM18993.6 23387.7l3.3-6.5h2l-4.5 8.3v4.5h-1.7v-4.6l-4.4-8.2h2l3.3 6.5z"/></g><g class="st0"><path d="M19064.6 23119.2v8.7c0 1.4-.5 2.5-1.4 3.2-.9.7-2.1 1.1-3.5 1.1s-2.5-.4-3.4-1.1c-.9-.7-1.3-1.8-1.3-3.2v-8.7h1.7v8.7c0 1 .3 1.7.8 2.2.6.5 1.3.8 2.2.8.9 0 1.7-.2 2.3-.8.6-.5.9-1.2.9-2.2v-8.7h1.7zM19074.4 23128.8c0-.6-.2-1.1-.7-1.5-.4-.4-1.2-.7-2.3-1-1.4-.3-2.4-.8-3.2-1.4-.8-.6-1.1-1.4-1.1-2.4s.4-1.8 1.2-2.5c.8-.7 1.9-1 3.2-1 1.4 0 2.5.4 3.3 1.2.8.8 1.2 1.7 1.2 2.7v.1h-1.7c0-.8-.2-1.4-.7-1.8-.5-.5-1.2-.7-2.1-.7-.9 0-1.5.2-2 .6-.5.4-.7.9-.7 1.5s.2 1 .7 1.4c.5.4 1.3.7 2.4 1 1.3.3 2.4.8 3.1 1.5s1.1 1.5 1.1 2.4c0 1-.4 1.9-1.3 2.5s-1.9.9-3.3.9c-1.3 0-2.4-.3-3.4-1s-1.5-1.6-1.4-2.8v-.1h1.7c0 .8.3 1.4.9 1.9.6.4 1.4.6 2.2.6.9 0 1.6-.2 2.1-.6s.8-.9.8-1.5zM19078.7 23132v-12.8h3.9c1.7 0 3 .5 4 1.5s1.5 2.4 1.5 4v1.8c0 1.6-.5 3-1.5 4s-2.4 1.5-4 1.5h-3.9zm1.7-11.4v10.1h2.2c1.2 0 2.1-.4 2.8-1.2.7-.8 1-1.8 1-3v-1.8c0-1.2-.3-2.2-1-3-.7-.8-1.6-1.2-2.8-1.2h-2.2zM19090.6 23133.1h-1.5l5.3-13.9h1.5l-5.3 13.9zM19107 23127.9c0 1.3-.4 2.3-1.2 3.1-.9.8-2 1.2-3.4 1.2s-2.6-.5-3.5-1.5c-.9-1-1.4-2.3-1.4-3.9v-2.3c0-1.6.5-2.9 1.4-3.9.9-1 2.1-1.5 3.5-1.5s2.6.4 3.5 1.2c.9.8 1.3 1.8 1.2 3.1v.1h-1.7c0-.9-.3-1.6-.8-2.1s-1.3-.8-2.2-.8c-1 0-1.7.4-2.3 1.2-.6.8-.9 1.7-.9 2.9v2.3c0 1.2.3 2.1.9 2.9.6.8 1.3 1.2 2.3 1.2 1 0 1.7-.3 2.2-.8.5-.5.8-1.2.8-2.2h1.6zM19116.3 23128.7h-5.4l-1.2 3.3h-1.8l4.9-12.8h1.5l4.9 12.8h-1.8l-1.1-3.3zm-4.8-1.4h4.3l-2.1-5.8h-.1l-2.1 5.8zM19121 23132v-12.8h3.9c1.7 0 3 .5 4 1.5s1.5 2.4 1.5 4v1.8c0 1.6-.5 3-1.5 4s-2.4 1.5-4 1.5h-3.9zm1.8-11.4v10.1h2.2c1.2 0 2.1-.4 2.8-1.2.7-.8 1-1.8 1-3v-1.8c0-1.2-.3-2.2-1-3-.7-.8-1.6-1.2-2.8-1.2h-2.2z"/></g><g class="st0"><path d="M19063.2 23259.7h-5.4l-1.2 3.3h-1.8l4.9-12.8h1.5l4.9 12.8h-1.8l-1.1-3.3zm-4.8-1.4h4.3l-2.1-5.8h-.1l-2.1 5.8zM19077.3 23250.2v8.7c0 1.4-.5 2.5-1.4 3.2-.9.7-2.1 1.1-3.5 1.1s-2.5-.4-3.4-1.1c-.9-.7-1.3-1.8-1.3-3.2v-8.7h1.7v8.7c0 1 .3 1.7.8 2.2.6.5 1.3.8 2.2.8.9 0 1.7-.2 2.3-.8.6-.5.9-1.2.9-2.2v-8.7h1.7zM19080.1 23263v-12.8h3.9c1.7 0 3 .5 4 1.5s1.5 2.4 1.5 4v1.8c0 1.6-.5 3-1.5 4s-2.4 1.5-4 1.5h-3.9zm1.7-11.4v10.1h2.2c1.2 0 2.1-.4 2.8-1.2.7-.8 1-1.8 1-3v-1.8c0-1.2-.3-2.2-1-3-.7-.8-1.6-1.2-2.8-1.2h-2.2zM19092 23264.1h-1.5l5.3-13.9h1.5l-5.3 13.9zM19104.6 23250.2h1.7v9.3c0 1.1-.4 2.1-1.1 2.7-.7.7-1.7 1-2.8 1-1.2 0-2.2-.3-2.9-.9s-1.1-1.5-1-2.7v-.1h1.7c0 .8.2 1.4.6 1.8.4.4 1 .6 1.7.6.6 0 1.2-.2 1.6-.6.4-.4.6-1 .6-1.7v-9.4zM19111.1 23257.9v5.1h-1.7v-12.8h4.9c1.4 0 2.4.4 3.2 1.1s1.1 1.6 1.1 2.8c0 1.2-.4 2.1-1.1 2.8-.8.7-1.8 1-3.2 1h-3.2zm0-1.4h3.2c.9 0 1.5-.2 1.9-.7.4-.5.6-1.1.6-1.8s-.2-1.3-.6-1.8c-.4-.5-1.1-.7-1.9-.7h-3.2v5zM19124.8 23256.7l3.3-6.5h2l-4.5 8.3v4.5h-1.7v-4.6l-4.4-8.2h2l3.3 6.5z"/></g><g class="st0"><path d="M19063 23388.1h-5.9v4.6h6.8v1.4h-8.5v-12.8h8.4v1.4h-6.7v4.1h5.9v1.3zM19075.2 23381.2v8.7c0 1.4-.5 2.5-1.4 3.2-.9.7-2.1 1.1-3.5 1.1s-2.5-.4-3.4-1.1c-.9-.7-1.3-1.8-1.3-3.2v-8.7h1.7v8.7c0 1 .3 1.7.8 2.2.6.5 1.3.8 2.2.8.9 0 1.7-.2 2.3-.8.6-.5.9-1.2.9-2.2v-8.7h1.7zM19079.8 23388.5v5.5h-1.7v-12.8h4.6c1.4 0 2.5.3 3.2.9s1.1 1.5 1.1 2.7c0 .7-.2 1.2-.5 1.7s-.8.9-1.5 1.2c.7.2 1.2.6 1.5 1.1.3.5.5 1.1.5 1.9v1.2c0 .4 0 .8.1 1.1s.2.6.5.8v.2h-1.8c-.2-.2-.4-.5-.4-.9-.1-.4-.1-.8-.1-1.2v-1.2c0-.7-.2-1.2-.6-1.7-.4-.4-.9-.6-1.6-.6h-3.3zm0-1.4h2.7c1 0 1.7-.2 2.1-.6.4-.4.6-.9.6-1.7 0-.7-.2-1.3-.6-1.7-.4-.4-1.1-.6-2-.6h-2.9v4.6zM19090 23395.1h-1.5l5.3-13.9h1.5l-5.3 13.9zM19106.8 23392.3c-.3.5-.8.9-1.6 1.3s-1.7.6-2.9.6c-1.5 0-2.8-.5-3.8-1.5s-1.5-2.2-1.5-3.8v-2.6c0-1.6.5-2.8 1.4-3.8.9-1 2.1-1.5 3.6-1.5s2.6.4 3.5 1.1 1.3 1.6 1.3 2.8v.1h-1.7c-.1-.7-.3-1.4-.8-1.8-.5-.5-1.3-.7-2.2-.7-1 0-1.8.4-2.4 1.1s-.9 1.7-.9 2.8v2.7c0 1.1.3 2.1 1 2.8.7.7 1.5 1.1 2.5 1.1.7 0 1.3-.1 1.8-.3.5-.2.8-.4 1-.7v-2.9h-2.8v-1.4h4.5v4.6zM19109.7 23394v-12.8h4.2c1.3 0 2.4.3 3.1.9.8.6 1.1 1.4 1.1 2.6 0 .6-.2 1.1-.5 1.5-.4.4-.8.8-1.4 1 .8.2 1.4.5 1.8 1.1.4.6.7 1.3.7 2.1 0 1.2-.4 2.1-1.1 2.7-.8.6-1.8.9-3.1.9h-4.8zm1.8-7.4h2.8c.6 0 1.2-.2 1.6-.5.4-.4.6-.8.6-1.5s-.2-1.2-.7-1.6c-.4-.3-1.1-.5-1.9-.5h-2.4v4.1zm0 1.4v4.6h3c.8 0 1.4-.2 1.8-.6.4-.4.7-.9.7-1.7 0-.7-.2-1.3-.5-1.8-.4-.4-.9-.6-1.7-.6h-3.3zM19123 23388.9v5.1h-1.7v-12.8h4.9c1.4 0 2.4.4 3.2 1.1s1.1 1.6 1.1 2.8c0 1.2-.4 2.1-1.1 2.8-.8.7-1.8 1-3.2 1h-3.2zm0-1.4h3.2c.9 0 1.5-.2 1.9-.7.4-.5.6-1.1.6-1.8s-.2-1.3-.6-1.8c-.4-.5-1.1-.7-1.9-.7h-3.2v5z"/></g><g class="st0"><path d="M19197 23126.1h-5.9v4.6h6.8v1.4h-8.5v-12.8h8.4v1.4h-6.7v4.1h5.9v1.3zM19209.3 23119.2v8.7c0 1.4-.5 2.5-1.4 3.2-.9.7-2.1 1.1-3.5 1.1s-2.5-.4-3.4-1.1c-.9-.7-1.3-1.8-1.3-3.2v-8.7h1.7v8.7c0 1 .3 1.7.8 2.2.6.5 1.3.8 2.2.8.9 0 1.7-.2 2.3-.8.6-.5.9-1.2.9-2.2v-8.7h1.7zM19213.8 23126.5v5.5h-1.7v-12.8h4.6c1.4 0 2.5.3 3.2.9s1.1 1.5 1.1 2.7c0 .7-.2 1.2-.5 1.7s-.8.9-1.5 1.2c.7.2 1.2.6 1.5 1.1.3.5.5 1.1.5 1.9v1.2c0 .4 0 .8.1 1.1s.2.6.5.8v.2h-1.8c-.2-.2-.4-.5-.4-.9-.1-.4-.1-.8-.1-1.2v-1.2c0-.7-.2-1.2-.6-1.7-.4-.4-.9-.6-1.6-.6h-3.3zm0-1.4h2.7c1 0 1.7-.2 2.1-.6.4-.4.6-.9.6-1.7 0-.7-.2-1.3-.6-1.7-.4-.4-1.1-.6-2-.6h-2.9v4.6zM19224.1 23133.1h-1.5l5.3-13.9h1.5l-5.3 13.9zM19240.9 23119.2v8.7c0 1.4-.5 2.5-1.4 3.2-.9.7-2.1 1.1-3.5 1.1s-2.5-.4-3.4-1.1c-.9-.7-1.3-1.8-1.3-3.2v-8.7h1.7v8.7c0 1 .3 1.7.8 2.2.6.5 1.3.8 2.2.8.9 0 1.7-.2 2.3-.8.6-.5.9-1.2.9-2.2v-8.7h1.7zM19250.7 23128.8c0-.6-.2-1.1-.7-1.5-.4-.4-1.2-.7-2.3-1-1.4-.3-2.4-.8-3.2-1.4-.8-.6-1.1-1.4-1.1-2.4s.4-1.8 1.2-2.5c.8-.7 1.9-1 3.2-1 1.4 0 2.5.4 3.3 1.2.8.8 1.2 1.7 1.2 2.7v.1h-1.7c0-.8-.2-1.4-.7-1.8-.5-.5-1.2-.7-2.1-.7-.9 0-1.5.2-2 .6-.5.4-.7.9-.7 1.5s.2 1 .7 1.4c.5.4 1.3.7 2.4 1 1.3.3 2.4.8 3.1 1.5s1.1 1.5 1.1 2.4c0 1-.4 1.9-1.3 2.5s-1.9.9-3.3.9c-1.3 0-2.4-.3-3.4-1s-1.5-1.6-1.4-2.8v-.1h1.7c0 .8.3 1.4.9 1.9.6.4 1.4.6 2.2.6.9 0 1.6-.2 2.1-.6s.8-.9.8-1.5zM19254.9 23132v-12.8h3.9c1.7 0 3 .5 4 1.5s1.5 2.4 1.5 4v1.8c0 1.6-.5 3-1.5 4s-2.4 1.5-4 1.5h-3.9zm1.7-11.4v10.1h2.2c1.2 0 2.1-.4 2.8-1.2.7-.8 1-1.8 1-3v-1.8c0-1.2-.3-2.2-1-3-.7-.8-1.6-1.2-2.8-1.2h-2.2z"/></g><g class="st0"><path d="M19195.8 23259.7h-5.4l-1.2 3.3h-1.8l4.9-12.8h1.5l4.9 12.8h-1.8l-1.1-3.3zm-4.8-1.4h4.3l-2.1-5.8h-.1l-2.1 5.8zM19209.9 23250.2v8.7c0 1.4-.5 2.5-1.4 3.2-.9.7-2.1 1.1-3.5 1.1s-2.5-.4-3.4-1.1c-.9-.7-1.3-1.8-1.3-3.2v-8.7h1.7v8.7c0 1 .3 1.7.8 2.2.6.5 1.3.8 2.2.8.9 0 1.7-.2 2.3-.8.6-.5.9-1.2.9-2.2v-8.7h1.7zM19212.7 23263v-12.8h3.9c1.7 0 3 .5 4 1.5s1.5 2.4 1.5 4v1.8c0 1.6-.5 3-1.5 4s-2.4 1.5-4 1.5h-3.9zm1.7-11.4v10.1h2.2c1.2 0 2.1-.4 2.8-1.2.7-.8 1-1.8 1-3v-1.8c0-1.2-.3-2.2-1-3-.7-.8-1.6-1.2-2.8-1.2h-2.2zM19224.6 23264.1h-1.5l5.3-13.9h1.5l-5.3 13.9zM19241.4 23250.2v8.7c0 1.4-.5 2.5-1.4 3.2-.9.7-2.1 1.1-3.5 1.1s-2.5-.4-3.4-1.1c-.9-.7-1.3-1.8-1.3-3.2v-8.7h1.7v8.7c0 1 .3 1.7.8 2.2.6.5 1.3.8 2.2.8.9 0 1.7-.2 2.3-.8.6-.5.9-1.2.9-2.2v-8.7h1.7zM19251.2 23259.8c0-.6-.2-1.1-.7-1.5-.4-.4-1.2-.7-2.3-1-1.4-.3-2.4-.8-3.2-1.4-.8-.6-1.1-1.4-1.1-2.4s.4-1.8 1.2-2.5c.8-.7 1.9-1 3.2-1 1.4 0 2.5.4 3.3 1.2.8.8 1.2 1.7 1.2 2.7v.1h-1.7c0-.8-.2-1.4-.7-1.8-.5-.5-1.2-.7-2.1-.7-.9 0-1.5.2-2 .6-.5.4-.7.9-.7 1.5s.2 1 .7 1.4c.5.4 1.3.7 2.4 1 1.3.3 2.4.8 3.1 1.5s1.1 1.5 1.1 2.4c0 1-.4 1.9-1.3 2.5s-1.9.9-3.3.9c-1.3 0-2.4-.3-3.4-1s-1.5-1.6-1.4-2.8v-.1h1.7c0 .8.3 1.4.9 1.9s1.3.6 2.2.6c.9 0 1.6-.2 2.1-.6.5-.4.8-.9.8-1.5zM19255.4 23263v-12.8h3.9c1.7 0 3 .5 4 1.5s1.5 2.4 1.5 4v1.8c0 1.6-.5 3-1.5 4s-2.4 1.5-4 1.5h-3.9zm1.8-11.4v10.1h2.2c1.2 0 2.1-.4 2.8-1.2.7-.8 1-1.8 1-3v-1.8c0-1.2-.3-2.2-1-3-.7-.8-1.6-1.2-2.8-1.2h-2.2z"/></g><g class="st0"><path d="M19198.4 23388.1h-5.9v4.6h6.8v1.4h-8.5v-12.8h8.4v1.4h-6.7v4.1h5.9v1.3zM19210.7 23381.2v8.7c0 1.4-.5 2.5-1.4 3.2-.9.7-2.1 1.1-3.5 1.1s-2.5-.4-3.4-1.1c-.9-.7-1.3-1.8-1.3-3.2v-8.7h1.7v8.7c0 1 .3 1.7.8 2.2.6.5 1.3.8 2.2.8.9 0 1.7-.2 2.3-.8.6-.5.9-1.2.9-2.2v-8.7h1.7zM19215.2 23388.5v5.5h-1.7v-12.8h4.6c1.4 0 2.5.3 3.2.9s1.1 1.5 1.1 2.7c0 .7-.2 1.2-.5 1.7s-.8.9-1.5 1.2c.7.2 1.2.6 1.5 1.1.3.5.5 1.1.5 1.9v1.2c0 .4 0 .8.1 1.1s.2.6.5.8v.2h-1.8c-.2-.2-.4-.5-.4-.9-.1-.4-.1-.8-.1-1.2v-1.2c0-.7-.2-1.2-.6-1.7-.4-.4-.9-.6-1.6-.6h-3.3zm0-1.4h2.7c1 0 1.7-.2 2.1-.6.4-.4.6-.9.6-1.7 0-.7-.2-1.3-.6-1.7-.4-.4-1.1-.6-2-.6h-2.9v4.6zM19225.5 23395.1h-1.5l5.3-13.9h1.5l-5.3 13.9zM19238.1 23381.2h1.7v9.3c0 1.1-.4 2.1-1.1 2.7-.7.7-1.7 1-2.8 1-1.2 0-2.2-.3-2.9-.9s-1.1-1.5-1-2.7v-.1h1.7c0 .8.2 1.4.6 1.8.4.4 1 .6 1.7.6.6 0 1.2-.2 1.6-.6.4-.4.6-1 .6-1.7v-9.4zM19244.6 23388.9v5.1h-1.7v-12.8h4.9c1.4 0 2.4.4 3.2 1.1.8.7 1.1 1.6 1.1 2.8 0 1.2-.4 2.1-1.1 2.8-.8.7-1.8 1-3.2 1h-3.2zm0-1.4h3.2c.9 0 1.5-.2 1.9-.7s.6-1.1.6-1.8-.2-1.3-.6-1.8c-.4-.5-1.1-.7-1.9-.7h-3.2v5zM19258.3 23387.7l3.3-6.5h2l-4.5 8.3v4.5h-1.7v-4.6l-4.4-8.2h2l3.3 6.5z"/></g><g id="Group_553" transform="translate(148 -151)"><g id="Group_549" transform="translate(523 1175)"><path id="Path_2277" class="st1" d="M18308.1 22060.4h-63.9c-.6 0-1.1-.5-1.1-1.1v-41.1c0-.6.5-1.1 1.1-1.1h63.9c.6 0 1.1.5 1.1 1.1v41.1c0 .5-.5 1-1.1 1.1z"/><path id="Path_2278" class="st2" d="M18309.2 22018.1c0-.6-.5-1.1-1.1-1.1h-5.1l-21.1 13.8v-13.8h-11.4v13.8l-21.1-13.8h-5.1c-.6 0-1.1.5-1.1 1.1v2.9l18.1 11.9h-18.1v11.4h18.1l-18.1 11.9v2.9c0 .6.5 1.1 1.1 1.1h5.1l21.1-13.8v13.8h11.4v-13.8l21.1 13.8h5.1c.6 0 1.1-.5 1.1-1.1v-2.9l-18.1-11.9h18.2v-11.4h-18.1l18.1-11.9v-2.9z"/><g id="Group_548"><path id="Path_2279" class="st3" d="M18309.2 22035.3h-29.7v-18.3h-6.9v18.3h-29.7v6.9h29.7v18.3h6.9v-18.3h29.7v-6.9z"/><path id="Path_2280" class="st3" d="M18266.1 22044.4l-23.1 15c.1.6.5 1 1.1 1h1.6l24.6-16h-4.2z"/><path id="Path_2281" class="st3" d="M18287.8 22044.4h-4.2l24.6 16c.6-.1 1-.5 1-1.1v-.9l-21.4-14z"/><path id="Path_2282" class="st3" d="M18243 22019.4l20.9 13.6h4.2l-24.4-15.9c-.4.2-.7.6-.7 1v1.3z"/><path id="Path_2283" class="st3" d="M18286 22033l23.2-15c-.1-.5-.6-.9-1.1-.9h-1.6l-24.6 16h4.1z"/></g></g><path id="Rectangle_218" class="st4" d="M18790 23210h42v25h-42z"/><g id="Group_552" transform="translate(549.243 1194.78)"><path id="Path_2284" class="st2" d="M18308.1 22060.4h-63.9c-.6 0-1.1-.5-1.1-1.1v-41.1c0-.6.5-1.1 1.1-1.1h63.9c.6 0 1.1.5 1.1 1.1v41.1c0 .5-.5 1-1.1 1.1z"/><g id="Group_550"><path id="Path_2285" class="st3" d="M18309.2 22020.3h-66.2v-2.2c0-.6.5-1.1 1.1-1.1h63.9c.6 0 1.1.5 1.1 1.1l.1 2.2z"/><path id="Rectangle_219" class="st3" d="M18243 22030.3h66.2v3.3h-66.2z"/><path id="Rectangle_220" class="st3" d="M18243 22023.7h66.2v3.3h-66.2z"/><path id="Path_2286" class="st3" d="M18309.2 22040.3h-65.1c-.6 0-1.1-.5-1.1-1.1v-2.2h66.2v3.3z"/><path id="Rectangle_221" class="st3" d="M18243 22050.4h66.2v3.3h-66.2z"/><path id="Path_2287" class="st3" d="M18308.1 22060.4h-63.9c-.6 0-1.1-.5-1.1-1.1v-2.2h66.2v2.2c-.1.5-.6 1.1-1.2 1.1z"/><path id="Rectangle_222" class="st3" d="M18243 22043.7h66.2v3.3h-66.2z"/></g><path id="Path_2288" class="st1" d="M18272.7 22017h-28.5c-.6 0-1.1.5-1.1 1.1v21.1c0 .6.5 1.1 1.1 1.1h28.5c.6 0 1.1-.5 1.1-1.1v-21.1c0-.6-.5-1.1-1.1-1.1z"/><g id="Group_551" transform="translate(1.859 2.547)"><path id="Path_2289" class="st2" d="M18244.3 22017.1l.3.8h.8c.1 0 .1.1.1.1v.1l-.6.5.2.8c0 .1 0 .1-.1.1h-.1l-.6-.5-.6.5h-.2v-.1l.2-.8-.6-.5s-.1-.1 0-.2h.9l.3-.8c-.1-.1 0-.1 0 0z"/><path id="Path_2290" class="st2" d="M18244.3 22021l.3.8h.8c.1 0 .1.1.1.1v.1l-.6.5.2.8c0 .1 0 .1-.1.1h-.1l-.6-.5-.6.5h-.2v-.1l.2-.8-.6-.5s-.1-.1 0-.2h.9l.3-.8c-.1-.1 0-.1 0 0z"/><path id="Path_2291" class="st2" d="M18244.3 22025l.3.8h.8c.1 0 .1.1.1.1v.1l-.6.5.2.8c0 .1 0 .1-.1.1h-.1l-.6-.5-.6.5h-.2v-.1l.2-.8-.6-.5s-.1-.1 0-.2h.9l.3-.8c-.1-.1 0-.1 0 0z"/><path id="Path_2292" class="st2" d="M18244.3 22029l.3.8h.8c.1 0 .1 0 .1.1v.1l-.6.5.2.8c0 .1 0 .1-.1.1h-.1l-.6-.5-.6.5h-.2v-.1l.2-.8-.6-.5s-.1-.1 0-.2h.9l.3-.8c-.1-.1 0-.1 0 0z"/><path id="Path_2293" class="st2" d="M18244.3 22032.9l.3.8h.8c.1 0 .1 0 .1.1v.1l-.6.5.2.8c0 .1 0 .1-.1.1h-.1l-.6-.5-.6.5h-.2v-.1l.2-.8-.6-.5s-.1-.1 0-.2h.9l.3-.8c-.1-.1 0-.1 0 0z"/><path id="Path_2294" class="st2" d="M18247.4 22019l.3.8h.8c.1 0 .1.1.1.1v.1l-.6.5.2.8c0 .1 0 .1-.1.1h-.1l-.6-.5-.6.5h-.2v-.1l.2-.8-.6-.5s-.1-.1 0-.2h.9l.3-.8c-.1-.1 0-.1 0 0z"/><path id="Path_2295" class="st2" d="M18247.4 22023l.3.8h.8c.1 0 .1.1.1.1v.1l-.6.5.2.8c0 .1 0 .1-.1.1h-.1l-.6-.5-.6.5h-.2v-.1l.2-.8-.6-.5s-.1-.1 0-.2h.9l.3-.8c-.1-.1 0-.1 0 0z"/><path id="Path_2296" class="st2" d="M18247.4 22026.9l.3.8h.8c.1 0 .1.1.1.1v.1l-.6.5.2.8c0 .1 0 .1-.1.1h-.1l-.6-.5-.6.5h-.2v-.1l.2-.8-.6-.5s-.1-.1 0-.2h.9l.3-.8c-.1-.1 0-.1 0 0z"/><path id="Path_2297" class="st2" d="M18247.4 22030.9l.3.8h.8c.1 0 .1.1.1.1v.1l-.6.5.2.8c0 .1 0 .1-.1.1h-.1l-.6-.5-.6.5h-.2v-.1l.2-.8-.6-.5s-.1-.1 0-.2h.9l.3-.8c-.1-.1 0-.1 0 0z"/><path id="Path_2298" class="st2" d="M18250.5 22017.1l.3.8h.8c.1 0 .1.1.1.1v.1l-.6.5.2.8c0 .1 0 .1-.1.1h-.1l-.6-.5-.6.5h-.2v-.1l.2-.8-.6-.5s-.1-.1 0-.2h.9l.3-.8c-.2-.1 0-.1 0 0z"/><path id="Path_2299" class="st2" d="M18250.5 22021l.3.8h.8c.1 0 .1.1.1.1v.1l-.7.5.2.8c0 .1 0 .1-.1.1h-.1l-.6-.5-.6.5h-.2v-.1l.2-.8-.6-.5s-.1-.1 0-.2h.9l.3-.8c-.1-.1.1-.1.1 0z"/><path id="Path_2300" class="st2" d="M18250.5 22025l.3.8h.8c.1 0 .1.1.1.1v.1l-.6.5.2.8c0 .1 0 .1-.1.1h-.1l-.6-.5-.6.5h-.2v-.1l.2-.8-.6-.5s-.1-.1 0-.2h.9l.3-.8c-.2-.1 0-.1 0 0z"/><path id="Path_2301" class="st2" d="M18250.5 22029l.3.8h.8c.1 0 .1.1.1.1v.1l-.6.5.2.8c0 .1 0 .1-.1.1h-.1l-.6-.5-.6.5h-.2v-.1l.2-.8-.6-.5s-.1-.1 0-.2h.9l.3-.8c-.2-.1 0-.1 0 0z"/><path id="Path_2302" class="st2" d="M18250.5 22032.9l.3.8h.8c.1 0 .1 0 .1.1v.1l-.6.5.2.8c0 .1 0 .1-.1.1h-.1l-.6-.5-.6.5h-.2v-.1l.2-.8-.6-.5s-.1-.1 0-.2h.9l.3-.8c-.2-.1 0-.1 0 0z"/><path id="Path_2303" class="st2" d="M18253.6 22019l.3.8h.8c.1 0 .1.1.1.1v.1l-.6.5.2.8c0 .1 0 .1-.1.1h-.1l-.6-.5-.6.5h-.2v-.1l.2-.8-.6-.5s-.1-.1 0-.2h.9l.3-.8c-.2-.1-.1-.1 0 0z"/><path id="Path_2304" class="st2" d="M18253.6 22023l.3.8h.8c.1 0 .1.1.1.1v.1l-.6.5.2.8c0 .1 0 .1-.1.1h-.1l-.6-.5-.6.5h-.2v-.1l.2-.8-.6-.5s-.1-.1 0-.2h.9l.3-.8c-.2-.1-.1-.1 0 0z"/><path id="Path_2305" class="st2" d="M18253.6 22026.9l.3.8h.8c.1 0 .1.1.1.1v.1l-.6.5.2.8c0 .1 0 .1-.1.1h-.1l-.6-.5-.6.5h-.2v-.1l.2-.8-.6-.5s-.1-.1 0-.2h.9l.3-.8c-.2-.1-.1-.1 0 0z"/><path id="Path_2306" class="st2" d="M18253.6 22030.9l.3.8h.8c.1 0 .1.1.1.1v.1l-.6.5.2.8c0 .1 0 .1-.1.1h-.1l-.6-.5-.6.5h-.2v-.1l.2-.8-.6-.5s-.1-.1 0-.2h.9l.3-.8c-.2-.1-.1-.1 0 0z"/><path id="Path_2307" class="st2" d="M18256.7 22017.1l.3.8h.8c.1 0 .1.1.1.1v.1l-.6.5.2.8c0 .1 0 .1-.1.1h-.1l-.6-.5-.6.5h-.2v-.1l.2-.8-.6-.5s-.1-.1 0-.2h.9l.3-.8c-.2-.1-.1-.1 0 0z"/><path id="Path_2308" class="st2" d="M18256.7 22021l.3.8h.8c.1 0 .1.1.1.1v.1l-.6.5.2.8c0 .1 0 .1-.1.1h-.1l-.6-.5-.6.5h-.2v-.1l.2-.8-.6-.5s-.1-.1 0-.2h.9l.3-.8c-.2-.1-.1-.1 0 0z"/><path id="Path_2309" class="st2" d="M18256.7 22025l.3.8h.8c.1 0 .1.1.1.1v.1l-.6.5.2.8c0 .1 0 .1-.1.1h-.1l-.6-.5-.6.5h-.2v-.1l.2-.8-.6-.5s-.1-.1 0-.2h.9l.3-.8c-.2-.1-.1-.1 0 0z"/><path id="Path_2310" class="st2" d="M18256.7 22029l.3.8h.8c.1 0 .1.1.1.1v.1l-.6.5.2.8c0 .1 0 .1-.1.1h-.1l-.6-.5-.6.5h-.2v-.1l.2-.8-.6-.5s-.1-.1 0-.2h.9l.3-.8c-.2-.1-.1-.1 0 0z"/><path id="Path_2311" class="st2" d="M18256.7 22032.9l.3.8h.8c.1 0 .1 0 .1.1v.1l-.6.5.2.8c0 .1 0 .1-.1.1h-.1l-.6-.5-.6.5h-.2v-.1l.2-.8-.6-.5s-.1-.1 0-.2h.9l.3-.8c-.2-.1-.1-.1 0 0z"/><path id="Path_2312" class="st2" d="M18259.7 22019l.3.8h.8c.1 0 .1.1.1.1v.1l-.6.5.2.8c0 .1 0 .1-.1.1h-.1l-.6-.5-.6.5h-.2v-.1l.2-.8-.6-.5s-.1-.1 0-.2h.9l.3-.8c-.1-.1 0-.1 0 0z"/><path id="Path_2313" class="st2" d="M18259.7 22023l.3.8h.8c.1 0 .1.1.1.1v.1l-.6.5.2.8c0 .1 0 .1-.1.1h-.1l-.6-.5-.6.5h-.2v-.1l.2-.8-.6-.5s-.1-.1 0-.2h.9l.3-.8c-.1-.1 0-.1 0 0z"/><path id="Path_2314" class="st2" d="M18259.7 22026.9l.3.8h.8c.1 0 .1.1.1.1v.1l-.6.5.2.8c0 .1 0 .1-.1.1h-.1l-.6-.5-.6.5h-.2v-.1l.2-.8-.6-.5s-.1-.1 0-.2h.9l.3-.8c-.1-.1 0-.1 0 0z"/><path id="Path_2315" class="st2" d="M18259.7 22030.9l.3.8h.8c.1 0 .1.1.1.1v.1l-.6.5.2.8c0 .1 0 .1-.1.1h-.1l-.6-.5-.6.5h-.2v-.1l.2-.8-.6-.5s-.1-.1 0-.2h.9l.3-.8c-.1-.1 0-.1 0 0z"/><path id="Path_2316" class="st2" d="M18262.8 22017.1l.3.8h.8c.1 0 .1.1.1.1v.1l-.6.5.2.8c0 .1 0 .1-.1.1h-.1l-.6-.5-.6.5h-.2v-.1l.2-.8-.6-.5s-.1-.1 0-.2h.9l.3-.8c-.2-.1-.1-.1 0 0 0-.1 0-.1 0 0z"/><path id="Path_2317" class="st2" d="M18262.8 22021l.3.8h.8c.1 0 .1.1.1.1v.1l-.6.5.2.8c0 .1 0 .1-.1.1h-.1l-.6-.5-.6.5h-.2v-.1l.2-.8-.6-.5s-.1-.1 0-.2h.9l.3-.8c-.2-.1 0-.1 0 0z"/><path id="Path_2318" class="st2" d="M18262.8 22025l.3.8h.8c.1 0 .1.1.1.1v.1l-.6.5.2.8c0 .1 0 .1-.1.1h-.1l-.6-.5-.6.5h-.2v-.1l.2-.8-.6-.5s-.1-.1 0-.2h.9l.3-.8c-.2 0-.1-.1 0 0 0-.1 0 0 0 0z"/><path id="Path_2319" class="st2" d="M18262.8 22029l.3.8h.8c.1 0 .1.1.1.1v.1l-.6.5.2.8c0 .1 0 .1-.1.1h-.1l-.6-.5-.6.5h-.2v-.1l.2-.8-.6-.5s-.1-.1 0-.2h.9l.3-.8c-.2-.1 0-.1 0 0z"/><path id="Path_2320" class="st2" d="M18262.8 22032.9l.3.8h.8c.1 0 .1 0 .1.1v.1l-.6.5.2.8c0 .1 0 .1-.1.1h-.1l-.6-.5-.6.5h-.2v-.1l.2-.8-.6-.5s-.1-.1 0-.2h.9l.3-.8c-.2 0-.1-.1 0 0z"/><path id="Path_2321" class="st2" d="M18265.9 22019l.3.8h.8c.1 0 .1.1.1.1v.1l-.6.5.2.8c0 .1 0 .1-.1.1h-.1l-.6-.5-.6.5h-.2v-.1l.2-.8-.6-.5s-.1-.1 0-.2h.9l.3-.8c-.2 0-.1-.1 0 0-.1 0 0 0 0 0z"/><path id="Path_2322" class="st2" d="M18265.9 22023l.3.8h.8c.1 0 .1.1.1.1v.1l-.6.5.2.8c0 .1 0 .1-.1.1h-.1l-.6-.5-.6.5h-.2v-.1l.2-.8-.6-.5s-.1-.1 0-.2h.9l.3-.8c-.2-.1-.1-.1 0 0z"/><path id="Path_2323" class="st2" d="M18265.9 22026.9l.3.8h.8c.1 0 .1.1.1.1v.1l-.6.5.2.8c0 .1 0 .1-.1.1h-.1l-.6-.5-.6.5h-.2v-.1l.2-.8-.6-.5s-.1-.1 0-.2h.9l.3-.8c-.2 0-.1 0 0 0-.1 0 0 0 0 0z"/><path id="Path_2324" class="st2" d="M18265.9 22030.9l.3.8h.8c.1 0 .1.1.1.1v.1l-.6.5.2.8c0 .1 0 .1-.1.1h-.1l-.6-.5-.6.5h-.2v-.1l.2-.8-.6-.5s-.1-.1 0-.2h.9l.3-.8c-.2 0-.1-.1 0 0-.1-.1 0 0 0 0z"/><path id="Path_2325" class="st2" d="M18268.9 22017.1l.3.8h.8c.1 0 .1.1.1.1v.1l-.6.5.2.8c0 .1 0 .1-.1.1h-.1l-.6-.5-.6.5h-.2v-.1l.2-.8-.6-.5s-.1-.1 0-.2h.9l.3-.8c-.1-.1-.1-.1 0 0 0-.1 0-.1 0 0z"/><path id="Path_2326" class="st2" d="M18268.9 22021l.3.8h.8c.1 0 .1.1.1.1v.1l-.6.5.2.8c0 .1 0 .1-.1.1h-.1l-.6-.5-.6.5h-.2v-.1l.2-.8-.6-.5s-.1-.1 0-.2h.9l.3-.8c-.1-.1 0-.1 0 0z"/><path id="Path_2327" class="st2" d="M18268.9 22025l.3.8h.8c.1 0 .1.1.1.1v.1l-.6.5.2.8c0 .1 0 .1-.1.1h-.1l-.6-.5-.6.5h-.2v-.1l.2-.8-.6-.5s-.1-.1 0-.2h.9l.3-.8c-.1 0-.1-.1 0 0 0-.1 0 0 0 0z"/><path id="Path_2328" class="st2" d="M18268.9 22029l.3.8h.8c.1 0 .1 0 .1.1v.1l-.6.5.2.8c0 .1 0 .1-.1.1h-.1l-.6-.5-.6.5h-.2v-.1l.2-.8-.6-.5s-.1-.1 0-.2h.9l.3-.8c-.1-.1 0-.1 0 0z"/><path id="Path_2329" class="st2" d="M18268.9 22032.9l.3.8h.8c.1 0 .1 0 .1.1v.1l-.6.5.2.8c0 .1 0 .1-.1.1h-.1l-.6-.5-.6.5h-.2v-.1l.2-.8-.6-.5s-.1-.1 0-.2h.9l.3-.8c-.1 0-.1-.1 0 0z"/></g></g></g><g id="Group_557" transform="translate(148 111)"><g id="Group_555" transform="translate(523 1175)"><path id="Path_2330" class="st1" d="M18308.1 22060.4h-63.9c-.6 0-1.1-.5-1.1-1.1v-41.1c0-.6.5-1.1 1.1-1.1h63.9c.6 0 1.1.5 1.1 1.1v41.1c0 .5-.5 1-1.1 1.1z"/><path id="Path_2331" class="st2" d="M18309.2 22018.1c0-.6-.5-1.1-1.1-1.1h-5.1l-21.1 13.8v-13.8h-11.4v13.8l-21.1-13.8h-5.1c-.6 0-1.1.5-1.1 1.1v2.9l18.1 11.9h-18.1v11.4h18.1l-18.1 11.9v2.9c0 .6.5 1.1 1.1 1.1h5.1l21.1-13.8v13.8h11.4v-13.8l21.1 13.8h5.1c.6 0 1.1-.5 1.1-1.1v-2.9l-18.1-11.9h18.2v-11.4h-18.1l18.1-11.9v-2.9z"/><g id="Group_554"><path id="Path_2332" class="st3" d="M18309.2 22035.3h-29.7v-18.3h-6.9v18.3h-29.7v6.9h29.7v18.3h6.9v-18.3h29.7v-6.9z"/><path id="Path_2333" class="st3" d="M18266.1 22044.4l-23.1 15c.1.6.5 1 1.1 1h1.6l24.6-16h-4.2z"/><path id="Path_2334" class="st3" d="M18287.8 22044.4h-4.2l24.6 16c.6-.1 1-.5 1-1.1v-.9l-21.4-14z"/><path id="Path_2335" class="st3" d="M18243 22019.4l20.9 13.6h4.2l-24.4-15.9c-.4.2-.7.6-.7 1v1.3z"/><path id="Path_2336" class="st3" d="M18286 22033l23.2-15c-.1-.5-.6-.9-1.1-.9h-1.6l-24.6 16h4.1z"/></g></g><path id="Rectangle_223" class="st4" d="M18790 23210h42v25h-42z"/><g id="Group_556" transform="translate(549 1195)"><path id="Path_2337" class="st2" d="M18308.1 22060.4h-63.9c-.6 0-1.1-.5-1.1-1.1v-41.1c0-.6.5-1.1 1.1-1.1h63.9c.6 0 1.1.5 1.1 1.1v41.1c0 .5-.5 1.1-1.1 1.1z"/><circle id="Ellipse_50" class="st3" cx="18276.1" cy="22038.7" r="12.6"/></g></g><g id="Group_563" transform="translate(416 -151)"><g id="Group_559" transform="translate(523 1175)"><path id="Path_2338" class="st1" d="M18308.1 22060.4h-63.9c-.6 0-1.1-.5-1.1-1.1v-41.1c0-.6.5-1.1 1.1-1.1h63.9c.6 0 1.1.5 1.1 1.1v41.1c0 .5-.5 1.1-1.1 1.1z"/><g id="Group_558" transform="translate(16.378 4.829)"><path id="Path_2339" class="st5" d="M18260.2 22017.1l.5 1.4h1.4c.1 0 .2.1.2.2s0 .1-.1.1l-1.2.9.4 1.4c0 .1 0 .2-.1.2h-.2l-1.2-.8-1.2.8c-.1.1-.2 0-.3 0 0-.1-.1-.1 0-.2l.4-1.4-1.2-.9c-.1-.1-.1-.2 0-.3 0-.1.1-.1.2-.1h1.4l.5-1.4c0-.1.1-.2.2-.1.2.1.3.2.3.2z"/><path id="Path_2340" class="st5" d="M18260.2 22046.6l.5 1.4h1.4c.1 0 .2.1.2.2s0 .1-.1.1l-1.2.9.4 1.4c0 .1 0 .2-.1.2h-.2l-1.2-.8-1.2.8c-.1.1-.2 0-.3 0 0-.1-.1-.1 0-.2l.4-1.4-1.2-.9c-.1-.1-.1-.2 0-.3 0-.1.1-.1.2-.1h1.4l.5-1.4c0-.1.1-.2.2-.1.2.1.3.1.3.2z"/><path id="Path_2341" class="st5" d="M18274.9 22031.9l.5 1.4h1.4c.1 0 .2.1.2.2s0 .1-.1.1l-1.2.9.4 1.4c0 .1 0 .2-.1.2h-.2l-1.2-.8-1.2.8c-.1.1-.2 0-.3 0 0-.1-.1-.1 0-.2l.4-1.4-1.2-.9c-.1-.1-.1-.2 0-.3 0-.1.1-.1.2-.1h1.4l.5-1.4c0-.1.1-.2.2-.1.2.1.3.1.3.2z"/><path id="Path_2342" class="st5" d="M18245.5 22031.9l.5 1.4h1.4c.1 0 .2.1.2.2s0 .1-.1.1l-1.2.9.4 1.4c0 .1 0 .2-.1.2h-.2l-1.2-.8-1.2.8c-.1.1-.2 0-.3 0 0-.1-.1-.1 0-.2l.4-1.4-1.2-.9c-.1-.1-.1-.2 0-.3 0-.1.1-.1.2-.1h1.4l.5-1.4c0-.1.1-.2.2-.1.2.1.2.1.3.2z"/><path id="Path_2343" class="st5" d="M18247.7 22024.2l.5 1.4h1.4c.1 0 .2.1.2.2s0 .1-.1.1l-1.2.9.4 1.4c0 .1 0 .2-.1.2h-.2l-1.2-.8-1.2.8c-.1.1-.2 0-.3 0 0-.1-.1-.1 0-.2l.4-1.4-1.2-.9c-.1-.1-.1-.2 0-.3 0-.1.1-.1.2-.1h1.4l.5-1.4c0-.1.1-.2.2-.1.2.1.3.1.3.2z"/><path id="Path_2344" class="st5" d="M18273.2 22038.9l.5 1.4h1.4c.1 0 .2.1.2.2s0 .1-.1.1l-1.2.9.4 1.4c0 .1 0 .2-.1.2h-.2l-1.2-.8-1.2.8c-.1.1-.2 0-.3 0 0-.1-.1-.1 0-.2l.4-1.4-1.2-.9c-.1-.1-.1-.2 0-.3 0-.1.1-.1.2-.1h1.4l.5-1.4c0-.1.1-.2.2-.1.2.1.3.1.3.2z"/><path id="Path_2345" class="st5" d="M18267.8 22018.8l.5 1.4h1.4c.1 0 .2.1.2.2s0 .1-.1.1l-1.2.9.4 1.4c0 .1 0 .2-.1.2h-.2l-1.2-.8-1.2.8c-.1.1-.2 0-.3 0v-.2l.4-1.4-1.2-.9c-.1-.1-.1-.2 0-.3 0-.1.1-.1.2-.1h1.4l.5-1.4c0-.1.1-.2.2-.1.2.1.3.1.3.2z"/><path id="Path_2346" class="st5" d="M18253.1 22044.3l.5 1.4h1.4c.1 0 .2.1.2.2s0 .1-.1.1l-1.2.9.4 1.4c0 .1 0 .2-.1.2h-.2l-1.2-.8-1.2.8c-.1.1-.2 0-.3 0 0-.1-.1-.1 0-.2l.4-1.4-1.2-.9c-.1-.1-.1-.2 0-.3 0-.1.1-.1.2-.1h1.4l.5-1.4c0-.1.1-.2.2-.1.2.1.2.1.3.2z"/><path id="Path_2347" class="st5" d="M18272.8 22024.2l-.5 1.4h-1.4c-.1 0-.2.1-.2.2s0 .1.1.1l1.2.9-.4 1.4c0 .1 0 .2.1.2h.2l1.2-.8 1.2.8c.1.1.2 0 .3 0 0-.1.1-.1 0-.2l-.4-1.4 1.2-.9c.1-.1.1-.2 0-.3 0-.1-.1-.1-.2-.1h-1.4l-.5-1.4c0-.1-.1-.2-.2-.1-.2.1-.3.1-.3.2z"/><path id="Path_2348" class="st5" d="M18247.3 22038.9l-.5 1.4h-1.4c-.1 0-.2.1-.2.2s0 .1.1.1l1.2.9-.4 1.4c0 .1 0 .2.1.2h.2l1.2-.8 1.2.8c.1.1.2 0 .3 0v-.2l-.4-1.4 1.2-.9c.1-.1.1-.2 0-.3 0-.1-.1-.1-.2-.1h-1.4l-.5-1.4c0-.1-.1-.2-.2-.1-.2.1-.3.1-.3.2z"/><path id="Path_2349" class="st5" d="M18252.7 22018.8l-.5 1.4h-1.4c-.1 0-.2.1-.2.2s0 .1.1.1l1.2.9-.4 1.4c0 .1 0 .2.1.2h.2l1.2-.8 1.2.8c.1.1.2 0 .3 0 0-.1.1-.1 0-.2l-.4-1.4 1.2-.9c.1-.1.1-.2 0-.3 0-.1-.1-.1-.2-.1h-1.4l-.5-1.4c0-.1-.1-.2-.2-.1-.2.1-.3.1-.3.2z"/><path id="Path_2350" class="st5" d="M18267.4 22044.3l-.5 1.4h-1.4c-.1 0-.2.1-.2.2s0 .1.1.1l1.2.9-.4 1.4c0 .1 0 .2.1.2h.2l1.2-.8 1.2.8c.1.1.2 0 .3 0 0-.1.1-.1 0-.2l-.4-1.4 1.2-.9c.1-.1.1-.2 0-.3 0-.1-.1-.1-.2-.1h-1.4l-.5-1.4c0-.1-.1-.2-.2-.1-.2.1-.3.1-.3.2z"/></g></g><path id="Rectangle_224" class="st4" d="M18790 23210h42v25h-42z"/><g id="Group_562" transform="translate(549.243 1194.78)"><path id="Path_2351" class="st2" d="M18308.1 22060.4h-63.9c-.6 0-1.1-.5-1.1-1.1v-41.1c0-.6.5-1.1 1.1-1.1h63.9c.6 0 1.1.5 1.1 1.1v41.1c0 .5-.5 1-1.1 1.1z"/><g id="Group_560"><path id="Path_2352" class="st3" d="M18309.2 22020.3h-66.2v-2.2c0-.6.5-1.1 1.1-1.1h63.9c.6 0 1.1.5 1.1 1.1l.1 2.2z"/><path id="Rectangle_225" class="st3" d="M18243 22030.3h66.2v3.3h-66.2z"/><path id="Rectangle_226" class="st3" d="M18243 22023.7h66.2v3.3h-66.2z"/><path id="Path_2353" class="st3" d="M18309.2 22040.3h-65.1c-.6 0-1.1-.5-1.1-1.1v-2.2h66.2v3.3z"/><path id="Rectangle_227" class="st3" d="M18243 22050.4h66.2v3.3h-66.2z"/><path id="Path_2354" class="st3" d="M18308.1 22060.4h-63.9c-.6 0-1.1-.5-1.1-1.1v-2.2h66.2v2.2c-.1.5-.6 1.1-1.2 1.1z"/><path id="Rectangle_228" class="st3" d="M18243 22043.7h66.2v3.3h-66.2z"/></g><path id="Path_2355" class="st1" d="M18272.7 22017h-28.5c-.6 0-1.1.5-1.1 1.1v21.1c0 .6.5 1.1 1.1 1.1h28.5c.6 0 1.1-.5 1.1-1.1v-21.1c0-.6-.5-1.1-1.1-1.1z"/><g id="Group_561" transform="translate(1.859 2.547)"><path id="Path_2356" class="st2" d="M18244.3 22017.1l.3.8h.8c.1 0 .1.1.1.1v.1l-.6.5.2.8c0 .1 0 .1-.1.1h-.1l-.6-.5-.6.5h-.2v-.1l.2-.8-.6-.5s-.1-.1 0-.2h.9l.3-.8c-.1-.1 0-.1 0 0z"/><path id="Path_2357" class="st2" d="M18244.3 22021l.3.8h.8c.1 0 .1.1.1.1v.1l-.6.5.2.8c0 .1 0 .1-.1.1h-.1l-.6-.5-.6.5h-.2v-.1l.2-.8-.6-.5s-.1-.1 0-.2h.9l.3-.8c-.1-.1 0-.1 0 0z"/><path id="Path_2358" class="st2" d="M18244.3 22025l.3.8h.8c.1 0 .1.1.1.1v.1l-.6.5.2.8c0 .1 0 .1-.1.1h-.1l-.6-.5-.6.5h-.2v-.1l.2-.8-.6-.5s-.1-.1 0-.2h.9l.3-.8c-.1-.1 0-.1 0 0z"/><path id="Path_2359" class="st2" d="M18244.3 22029l.3.8h.8c.1 0 .1 0 .1.1v.1l-.6.5.2.8c0 .1 0 .1-.1.1h-.1l-.6-.5-.6.5h-.2v-.1l.2-.8-.6-.5s-.1-.1 0-.2h.9l.3-.8c-.1-.1 0-.1 0 0z"/><path id="Path_2360" class="st2" d="M18244.3 22032.9l.3.8h.8c.1 0 .1 0 .1.1v.1l-.6.5.2.8c0 .1 0 .1-.1.1h-.1l-.6-.5-.6.5h-.2v-.1l.2-.8-.6-.5s-.1-.1 0-.2h.9l.3-.8c-.1-.1 0-.1 0 0z"/><path id="Path_2361" class="st2" d="M18247.4 22019l.3.8h.8c.1 0 .1.1.1.1v.1l-.6.5.2.8c0 .1 0 .1-.1.1h-.1l-.6-.5-.6.5h-.2v-.1l.2-.8-.6-.5s-.1-.1 0-.2h.9l.3-.8c-.1-.1 0-.1 0 0z"/><path id="Path_2362" class="st2" d="M18247.4 22023l.3.8h.8c.1 0 .1.1.1.1v.1l-.6.5.2.8c0 .1 0 .1-.1.1h-.1l-.6-.5-.6.5h-.2v-.1l.2-.8-.6-.5s-.1-.1 0-.2h.9l.3-.8c-.1-.1 0-.1 0 0z"/><path id="Path_2363" class="st2" d="M18247.4 22026.9l.3.8h.8c.1 0 .1.1.1.1v.1l-.6.5.2.8c0 .1 0 .1-.1.1h-.1l-.6-.5-.6.5h-.2v-.1l.2-.8-.6-.5s-.1-.1 0-.2h.9l.3-.8c-.1-.1 0-.1 0 0z"/><path id="Path_2364" class="st2" d="M18247.4 22030.9l.3.8h.8c.1 0 .1.1.1.1v.1l-.6.5.2.8c0 .1 0 .1-.1.1h-.1l-.6-.5-.6.5h-.2v-.1l.2-.8-.6-.5s-.1-.1 0-.2h.9l.3-.8c-.1-.1 0-.1 0 0z"/><path id="Path_2365" class="st2" d="M18250.5 22017.1l.3.8h.8c.1 0 .1.1.1.1v.1l-.6.5.2.8c0 .1 0 .1-.1.1h-.1l-.6-.5-.6.5h-.2v-.1l.2-.8-.6-.5s-.1-.1 0-.2h.9l.3-.8c-.2-.1 0-.1 0 0z"/><path id="Path_2366" class="st2" d="M18250.5 22021l.3.8h.8c.1 0 .1.1.1.1v.1l-.7.5.2.8c0 .1 0 .1-.1.1h-.1l-.6-.5-.6.5h-.2v-.1l.2-.8-.6-.5s-.1-.1 0-.2h.9l.3-.8c-.1-.1.1-.1.1 0z"/><path id="Path_2367" class="st2" d="M18250.5 22025l.3.8h.8c.1 0 .1.1.1.1v.1l-.6.5.2.8c0 .1 0 .1-.1.1h-.1l-.6-.5-.6.5h-.2v-.1l.2-.8-.6-.5s-.1-.1 0-.2h.9l.3-.8c-.2-.1 0-.1 0 0z"/><path id="Path_2368" class="st2" d="M18250.5 22029l.3.8h.8c.1 0 .1.1.1.1v.1l-.6.5.2.8c0 .1 0 .1-.1.1h-.1l-.6-.5-.6.5h-.2v-.1l.2-.8-.6-.5s-.1-.1 0-.2h.9l.3-.8c-.2-.1 0-.1 0 0z"/><path id="Path_2369" class="st2" d="M18250.5 22032.9l.3.8h.8c.1 0 .1 0 .1.1v.1l-.6.5.2.8c0 .1 0 .1-.1.1h-.1l-.6-.5-.6.5h-.2v-.1l.2-.8-.6-.5s-.1-.1 0-.2h.9l.3-.8c-.2-.1 0-.1 0 0z"/><path id="Path_2370" class="st2" d="M18253.6 22019l.3.8h.8c.1 0 .1.1.1.1v.1l-.6.5.2.8c0 .1 0 .1-.1.1h-.1l-.6-.5-.6.5h-.2v-.1l.2-.8-.6-.5s-.1-.1 0-.2h.9l.3-.8c-.2-.1-.1-.1 0 0z"/><path id="Path_2371" class="st2" d="M18253.6 22023l.3.8h.8c.1 0 .1.1.1.1v.1l-.6.5.2.8c0 .1 0 .1-.1.1h-.1l-.6-.5-.6.5h-.2v-.1l.2-.8-.6-.5s-.1-.1 0-.2h.9l.3-.8c-.2-.1-.1-.1 0 0z"/><path id="Path_2372" class="st2" d="M18253.6 22026.9l.3.8h.8c.1 0 .1.1.1.1v.1l-.6.5.2.8c0 .1 0 .1-.1.1h-.1l-.6-.5-.6.5h-.2v-.1l.2-.8-.6-.5s-.1-.1 0-.2h.9l.3-.8c-.2-.1-.1-.1 0 0z"/><path id="Path_2373" class="st2" d="M18253.6 22030.9l.3.8h.8c.1 0 .1.1.1.1v.1l-.6.5.2.8c0 .1 0 .1-.1.1h-.1l-.6-.5-.6.5h-.2v-.1l.2-.8-.6-.5s-.1-.1 0-.2h.9l.3-.8c-.2-.1-.1-.1 0 0z"/><path id="Path_2374" class="st2" d="M18256.7 22017.1l.3.8h.8c.1 0 .1.1.1.1v.1l-.6.5.2.8c0 .1 0 .1-.1.1h-.1l-.6-.5-.6.5h-.2v-.1l.2-.8-.6-.5s-.1-.1 0-.2h.9l.3-.8c-.2-.1-.1-.1 0 0z"/><path id="Path_2375" class="st2" d="M18256.7 22021l.3.8h.8c.1 0 .1.1.1.1v.1l-.6.5.2.8c0 .1 0 .1-.1.1h-.1l-.6-.5-.6.5h-.2v-.1l.2-.8-.6-.5s-.1-.1 0-.2h.9l.3-.8c-.2-.1-.1-.1 0 0z"/><path id="Path_2376" class="st2" d="M18256.7 22025l.3.8h.8c.1 0 .1.1.1.1v.1l-.6.5.2.8c0 .1 0 .1-.1.1h-.1l-.6-.5-.6.5h-.2v-.1l.2-.8-.6-.5s-.1-.1 0-.2h.9l.3-.8c-.2-.1-.1-.1 0 0z"/><path id="Path_2377" class="st2" d="M18256.7 22029l.3.8h.8c.1 0 .1.1.1.1v.1l-.6.5.2.8c0 .1 0 .1-.1.1h-.1l-.6-.5-.6.5h-.2v-.1l.2-.8-.6-.5s-.1-.1 0-.2h.9l.3-.8c-.2-.1-.1-.1 0 0z"/><path id="Path_2378" class="st2" d="M18256.7 22032.9l.3.8h.8c.1 0 .1 0 .1.1v.1l-.6.5.2.8c0 .1 0 .1-.1.1h-.1l-.6-.5-.6.5h-.2v-.1l.2-.8-.6-.5s-.1-.1 0-.2h.9l.3-.8c-.2-.1-.1-.1 0 0z"/><path id="Path_2379" class="st2" d="M18259.7 22019l.3.8h.8c.1 0 .1.1.1.1v.1l-.6.5.2.8c0 .1 0 .1-.1.1h-.1l-.6-.5-.6.5h-.2v-.1l.2-.8-.6-.5s-.1-.1 0-.2h.9l.3-.8c-.1-.1 0-.1 0 0z"/><path id="Path_2380" class="st2" d="M18259.7 22023l.3.8h.8c.1 0 .1.1.1.1v.1l-.6.5.2.8c0 .1 0 .1-.1.1h-.1l-.6-.5-.6.5h-.2v-.1l.2-.8-.6-.5s-.1-.1 0-.2h.9l.3-.8c-.1-.1 0-.1 0 0z"/><path id="Path_2381" class="st2" d="M18259.7 22026.9l.3.8h.8c.1 0 .1.1.1.1v.1l-.6.5.2.8c0 .1 0 .1-.1.1h-.1l-.6-.5-.6.5h-.2v-.1l.2-.8-.6-.5s-.1-.1 0-.2h.9l.3-.8c-.1-.1 0-.1 0 0z"/><path id="Path_2382" class="st2" d="M18259.7 22030.9l.3.8h.8c.1 0 .1.1.1.1v.1l-.6.5.2.8c0 .1 0 .1-.1.1h-.1l-.6-.5-.6.5h-.2v-.1l.2-.8-.6-.5s-.1-.1 0-.2h.9l.3-.8c-.1-.1 0-.1 0 0z"/><path id="Path_2383" class="st2" d="M18262.8 22017.1l.3.8h.8c.1 0 .1.1.1.1v.1l-.6.5.2.8c0 .1 0 .1-.1.1h-.1l-.6-.5-.6.5h-.2v-.1l.2-.8-.6-.5s-.1-.1 0-.2h.9l.3-.8c-.2-.1-.1-.1 0 0 0-.1 0-.1 0 0z"/><path id="Path_2384" class="st2" d="M18262.8 22021l.3.8h.8c.1 0 .1.1.1.1v.1l-.6.5.2.8c0 .1 0 .1-.1.1h-.1l-.6-.5-.6.5h-.2v-.1l.2-.8-.6-.5s-.1-.1 0-.2h.9l.3-.8c-.2-.1 0-.1 0 0z"/><path id="Path_2385" class="st2" d="M18262.8 22025l.3.8h.8c.1 0 .1.1.1.1v.1l-.6.5.2.8c0 .1 0 .1-.1.1h-.1l-.6-.5-.6.5h-.2v-.1l.2-.8-.6-.5s-.1-.1 0-.2h.9l.3-.8c-.2 0-.1-.1 0 0 0-.1 0 0 0 0z"/><path id="Path_2386" class="st2" d="M18262.8 22029l.3.8h.8c.1 0 .1.1.1.1v.1l-.6.5.2.8c0 .1 0 .1-.1.1h-.1l-.6-.5-.6.5h-.2v-.1l.2-.8-.6-.5s-.1-.1 0-.2h.9l.3-.8c-.2-.1 0-.1 0 0z"/><path id="Path_2387" class="st2" d="M18262.8 22032.9l.3.8h.8c.1 0 .1 0 .1.1v.1l-.6.5.2.8c0 .1 0 .1-.1.1h-.1l-.6-.5-.6.5h-.2v-.1l.2-.8-.6-.5s-.1-.1 0-.2h.9l.3-.8c-.2 0-.1-.1 0 0z"/><path id="Path_2388" class="st2" d="M18265.9 22019l.3.8h.8c.1 0 .1.1.1.1v.1l-.6.5.2.8c0 .1 0 .1-.1.1h-.1l-.6-.5-.6.5h-.2v-.1l.2-.8-.6-.5s-.1-.1 0-.2h.9l.3-.8c-.2 0-.1-.1 0 0-.1 0 0 0 0 0z"/><path id="Path_2389" class="st2" d="M18265.9 22023l.3.8h.8c.1 0 .1.1.1.1v.1l-.6.5.2.8c0 .1 0 .1-.1.1h-.1l-.6-.5-.6.5h-.2v-.1l.2-.8-.6-.5s-.1-.1 0-.2h.9l.3-.8c-.2-.1-.1-.1 0 0z"/><path id="Path_2390" class="st2" d="M18265.9 22026.9l.3.8h.8c.1 0 .1.1.1.1v.1l-.6.5.2.8c0 .1 0 .1-.1.1h-.1l-.6-.5-.6.5h-.2v-.1l.2-.8-.6-.5s-.1-.1 0-.2h.9l.3-.8c-.2 0-.1 0 0 0-.1 0 0 0 0 0z"/><path id="Path_2391" class="st2" d="M18265.9 22030.9l.3.8h.8c.1 0 .1.1.1.1v.1l-.6.5.2.8c0 .1 0 .1-.1.1h-.1l-.6-.5-.6.5h-.2v-.1l.2-.8-.6-.5s-.1-.1 0-.2h.9l.3-.8c-.2 0-.1-.1 0 0-.1-.1 0 0 0 0z"/><path id="Path_2392" class="st2" d="M18268.9 22017.1l.3.8h.8c.1 0 .1.1.1.1v.1l-.6.5.2.8c0 .1 0 .1-.1.1h-.1l-.6-.5-.6.5h-.2v-.1l.2-.8-.6-.5s-.1-.1 0-.2h.9l.3-.8c-.1-.1-.1-.1 0 0 0-.1 0-.1 0 0z"/><path id="Path_2393" class="st2" d="M18268.9 22021l.3.8h.8c.1 0 .1.1.1.1v.1l-.6.5.2.8c0 .1 0 .1-.1.1h-.1l-.6-.5-.6.5h-.2v-.1l.2-.8-.6-.5s-.1-.1 0-.2h.9l.3-.8c-.1-.1 0-.1 0 0z"/><path id="Path_2394" class="st2" d="M18268.9 22025l.3.8h.8c.1 0 .1.1.1.1v.1l-.6.5.2.8c0 .1 0 .1-.1.1h-.1l-.6-.5-.6.5h-.2v-.1l.2-.8-.6-.5s-.1-.1 0-.2h.9l.3-.8c-.1 0-.1-.1 0 0 0-.1 0 0 0 0z"/><path id="Path_2395" class="st2" d="M18268.9 22029l.3.8h.8c.1 0 .1 0 .1.1v.1l-.6.5.2.8c0 .1 0 .1-.1.1h-.1l-.6-.5-.6.5h-.2v-.1l.2-.8-.6-.5s-.1-.1 0-.2h.9l.3-.8c-.1-.1 0-.1 0 0z"/><path id="Path_2396" class="st2" d="M18268.9 22032.9l.3.8h.8c.1 0 .1 0 .1.1v.1l-.6.5.2.8c0 .1 0 .1-.1.1h-.1l-.6-.5-.6.5h-.2v-.1l.2-.8-.6-.5s-.1-.1 0-.2h.9l.3-.8c-.1 0-.1-.1 0 0z"/></g></g></g><g id="Group_567" transform="translate(416 111)"><g id="Group_565" transform="translate(523 1175)"><path id="Path_2397" class="st1" d="M18308.1 22060.4h-63.9c-.6 0-1.1-.5-1.1-1.1v-41.1c0-.6.5-1.1 1.1-1.1h63.9c.6 0 1.1.5 1.1 1.1v41.1c0 .5-.5 1.1-1.1 1.1z"/><g id="Group_564" transform="translate(16.378 4.829)"><path id="Path_2398" class="st5" d="M18260.2 22017.1l.5 1.4h1.4c.1 0 .2.1.2.2s0 .1-.1.1l-1.2.9.4 1.4c0 .1 0 .2-.1.2h-.2l-1.2-.8-1.2.8c-.1.1-.2 0-.3 0 0-.1-.1-.1 0-.2l.4-1.4-1.2-.9c-.1-.1-.1-.2 0-.3 0-.1.1-.1.2-.1h1.4l.5-1.4c0-.1.1-.2.2-.1.2.1.3.2.3.2z"/><path id="Path_2399" class="st5" d="M18260.2 22046.6l.5 1.4h1.4c.1 0 .2.1.2.2s0 .1-.1.1l-1.2.9.4 1.4c0 .1 0 .2-.1.2h-.2l-1.2-.8-1.2.8c-.1.1-.2 0-.3 0 0-.1-.1-.1 0-.2l.4-1.4-1.2-.9c-.1-.1-.1-.2 0-.3 0-.1.1-.1.2-.1h1.4l.5-1.4c0-.1.1-.2.2-.1.2.1.3.1.3.2z"/><path id="Path_2400" class="st5" d="M18274.9 22031.9l.5 1.4h1.4c.1 0 .2.1.2.2s0 .1-.1.1l-1.2.9.4 1.4c0 .1 0 .2-.1.2h-.2l-1.2-.8-1.2.8c-.1.1-.2 0-.3 0 0-.1-.1-.1 0-.2l.4-1.4-1.2-.9c-.1-.1-.1-.2 0-.3 0-.1.1-.1.2-.1h1.4l.5-1.4c0-.1.1-.2.2-.1.2.1.3.1.3.2z"/><path id="Path_2401" class="st5" d="M18245.5 22031.9l.5 1.4h1.4c.1 0 .2.1.2.2s0 .1-.1.1l-1.2.9.4 1.4c0 .1 0 .2-.1.2h-.2l-1.2-.8-1.2.8c-.1.1-.2 0-.3 0 0-.1-.1-.1 0-.2l.4-1.4-1.2-.9c-.1-.1-.1-.2 0-.3 0-.1.1-.1.2-.1h1.4l.5-1.4c0-.1.1-.2.2-.1.2.1.2.1.3.2z"/><path id="Path_2402" class="st5" d="M18247.7 22024.2l.5 1.4h1.4c.1 0 .2.1.2.2s0 .1-.1.1l-1.2.9.4 1.4c0 .1 0 .2-.1.2h-.2l-1.2-.8-1.2.8c-.1.1-.2 0-.3 0 0-.1-.1-.1 0-.2l.4-1.4-1.2-.9c-.1-.1-.1-.2 0-.3 0-.1.1-.1.2-.1h1.4l.5-1.4c0-.1.1-.2.2-.1.2.1.3.1.3.2z"/><path id="Path_2403" class="st5" d="M18273.2 22038.9l.5 1.4h1.4c.1 0 .2.1.2.2s0 .1-.1.1l-1.2.9.4 1.4c0 .1 0 .2-.1.2h-.2l-1.2-.8-1.2.8c-.1.1-.2 0-.3 0 0-.1-.1-.1 0-.2l.4-1.4-1.2-.9c-.1-.1-.1-.2 0-.3 0-.1.1-.1.2-.1h1.4l.5-1.4c0-.1.1-.2.2-.1.2.1.3.1.3.2z"/><path id="Path_2404" class="st5" d="M18267.8 22018.8l.5 1.4h1.4c.1 0 .2.1.2.2s0 .1-.1.1l-1.2.9.4 1.4c0 .1 0 .2-.1.2h-.2l-1.2-.8-1.2.8c-.1.1-.2 0-.3 0v-.2l.4-1.4-1.2-.9c-.1-.1-.1-.2 0-.3 0-.1.1-.1.2-.1h1.4l.5-1.4c0-.1.1-.2.2-.1.2.1.3.1.3.2z"/><path id="Path_2405" class="st5" d="M18253.1 22044.3l.5 1.4h1.4c.1 0 .2.1.2.2s0 .1-.1.1l-1.2.9.4 1.4c0 .1 0 .2-.1.2h-.2l-1.2-.8-1.2.8c-.1.1-.2 0-.3 0 0-.1-.1-.1 0-.2l.4-1.4-1.2-.9c-.1-.1-.1-.2 0-.3 0-.1.1-.1.2-.1h1.4l.5-1.4c0-.1.1-.2.2-.1.2.1.2.1.3.2z"/><path id="Path_2406" class="st5" d="M18272.8 22024.2l-.5 1.4h-1.4c-.1 0-.2.1-.2.2s0 .1.1.1l1.2.9-.4 1.4c0 .1 0 .2.1.2h.2l1.2-.8 1.2.8c.1.1.2 0 .3 0 0-.1.1-.1 0-.2l-.4-1.4 1.2-.9c.1-.1.1-.2 0-.3 0-.1-.1-.1-.2-.1h-1.4l-.5-1.4c0-.1-.1-.2-.2-.1-.2.1-.3.1-.3.2z"/><path id="Path_2407" class="st5" d="M18247.3 22038.9l-.5 1.4h-1.4c-.1 0-.2.1-.2.2s0 .1.1.1l1.2.9-.4 1.4c0 .1 0 .2.1.2h.2l1.2-.8 1.2.8c.1.1.2 0 .3 0v-.2l-.4-1.4 1.2-.9c.1-.1.1-.2 0-.3 0-.1-.1-.1-.2-.1h-1.4l-.5-1.4c0-.1-.1-.2-.2-.1-.2.1-.3.1-.3.2z"/><path id="Path_2408" class="st5" d="M18252.7 22018.8l-.5 1.4h-1.4c-.1 0-.2.1-.2.2s0 .1.1.1l1.2.9-.4 1.4c0 .1 0 .2.1.2h.2l1.2-.8 1.2.8c.1.1.2 0 .3 0 0-.1.1-.1 0-.2l-.4-1.4 1.2-.9c.1-.1.1-.2 0-.3 0-.1-.1-.1-.2-.1h-1.4l-.5-1.4c0-.1-.1-.2-.2-.1-.2.1-.3.1-.3.2z"/><path id="Path_2409" class="st5" d="M18267.4 22044.3l-.5 1.4h-1.4c-.1 0-.2.1-.2.2s0 .1.1.1l1.2.9-.4 1.4c0 .1 0 .2.1.2h.2l1.2-.8 1.2.8c.1.1.2 0 .3 0 0-.1.1-.1 0-.2l-.4-1.4 1.2-.9c.1-.1.1-.2 0-.3 0-.1-.1-.1-.2-.1h-1.4l-.5-1.4c0-.1-.1-.2-.2-.1-.2.1-.3.1-.3.2z"/></g></g><path id="Rectangle_229" class="st4" d="M18790 23210h42v25h-42z"/><g id="Group_566" transform="translate(549 1195)"><path id="Path_2410" class="st2" d="M18308.1 22060.4h-63.9c-.6 0-1.1-.5-1.1-1.1v-41.1c0-.6.5-1.1 1.1-1.1h63.9c.6 0 1.1.5 1.1 1.1v41.1c0 .5-.5 1.1-1.1 1.1z"/><circle id="Ellipse_51" class="st3" cx="18276.1" cy="22038.7" r="12.6"/></g></g><g id="Group_572" transform="translate(282 111)"><g id="Group_569" transform="translate(523 1175)"><path id="Path_2411" class="st1" d="M18308.1 22060.4h-63.9c-.6 0-1.1-.5-1.1-1.1v-41.1c0-.6.5-1.1 1.1-1.1h63.9c.6 0 1.1.5 1.1 1.1v41.1c0 .5-.5 1.1-1.1 1.1z"/><g id="Group_568" transform="translate(16.378 4.829)"><path id="Path_2412" class="st5" d="M18260.2 22017.1l.5 1.4h1.4c.1 0 .2.1.2.2s0 .1-.1.1l-1.2.9.4 1.4c0 .1 0 .2-.1.2h-.2l-1.2-.8-1.2.8c-.1.1-.2 0-.3 0 0-.1-.1-.1 0-.2l.4-1.4-1.2-.9c-.1-.1-.1-.2 0-.3 0-.1.1-.1.2-.1h1.4l.5-1.4c0-.1.1-.2.2-.1.2.1.3.2.3.2z"/><path id="Path_2413" class="st5" d="M18260.2 22046.6l.5 1.4h1.4c.1 0 .2.1.2.2s0 .1-.1.1l-1.2.9.4 1.4c0 .1 0 .2-.1.2h-.2l-1.2-.8-1.2.8c-.1.1-.2 0-.3 0 0-.1-.1-.1 0-.2l.4-1.4-1.2-.9c-.1-.1-.1-.2 0-.3 0-.1.1-.1.2-.1h1.4l.5-1.4c0-.1.1-.2.2-.1.2.1.3.1.3.2z"/><path id="Path_2414" class="st5" d="M18274.9 22031.9l.5 1.4h1.4c.1 0 .2.1.2.2s0 .1-.1.1l-1.2.9.4 1.4c0 .1 0 .2-.1.2h-.2l-1.2-.8-1.2.8c-.1.1-.2 0-.3 0 0-.1-.1-.1 0-.2l.4-1.4-1.2-.9c-.1-.1-.1-.2 0-.3 0-.1.1-.1.2-.1h1.4l.5-1.4c0-.1.1-.2.2-.1.2.1.3.1.3.2z"/><path id="Path_2415" class="st5" d="M18245.5 22031.9l.5 1.4h1.4c.1 0 .2.1.2.2s0 .1-.1.1l-1.2.9.4 1.4c0 .1 0 .2-.1.2h-.2l-1.2-.8-1.2.8c-.1.1-.2 0-.3 0 0-.1-.1-.1 0-.2l.4-1.4-1.2-.9c-.1-.1-.1-.2 0-.3 0-.1.1-.1.2-.1h1.4l.5-1.4c0-.1.1-.2.2-.1.2.1.2.1.3.2z"/><path id="Path_2416" class="st5" d="M18247.7 22024.2l.5 1.4h1.4c.1 0 .2.1.2.2s0 .1-.1.1l-1.2.9.4 1.4c0 .1 0 .2-.1.2h-.2l-1.2-.8-1.2.8c-.1.1-.2 0-.3 0 0-.1-.1-.1 0-.2l.4-1.4-1.2-.9c-.1-.1-.1-.2 0-.3 0-.1.1-.1.2-.1h1.4l.5-1.4c0-.1.1-.2.2-.1.2.1.3.1.3.2z"/><path id="Path_2417" class="st5" d="M18273.2 22038.9l.5 1.4h1.4c.1 0 .2.1.2.2s0 .1-.1.1l-1.2.9.4 1.4c0 .1 0 .2-.1.2h-.2l-1.2-.8-1.2.8c-.1.1-.2 0-.3 0 0-.1-.1-.1 0-.2l.4-1.4-1.2-.9c-.1-.1-.1-.2 0-.3 0-.1.1-.1.2-.1h1.4l.5-1.4c0-.1.1-.2.2-.1.2.1.3.1.3.2z"/><path id="Path_2418" class="st5" d="M18267.8 22018.8l.5 1.4h1.4c.1 0 .2.1.2.2s0 .1-.1.1l-1.2.9.4 1.4c0 .1 0 .2-.1.2h-.2l-1.2-.8-1.2.8c-.1.1-.2 0-.3 0v-.2l.4-1.4-1.2-.9c-.1-.1-.1-.2 0-.3 0-.1.1-.1.2-.1h1.4l.5-1.4c0-.1.1-.2.2-.1.2.1.3.1.3.2z"/><path id="Path_2419" class="st5" d="M18253.1 22044.3l.5 1.4h1.4c.1 0 .2.1.2.2s0 .1-.1.1l-1.2.9.4 1.4c0 .1 0 .2-.1.2h-.2l-1.2-.8-1.2.8c-.1.1-.2 0-.3 0 0-.1-.1-.1 0-.2l.4-1.4-1.2-.9c-.1-.1-.1-.2 0-.3 0-.1.1-.1.2-.1h1.4l.5-1.4c0-.1.1-.2.2-.1.2.1.2.1.3.2z"/><path id="Path_2420" class="st5" d="M18272.8 22024.2l-.5 1.4h-1.4c-.1 0-.2.1-.2.2s0 .1.1.1l1.2.9-.4 1.4c0 .1 0 .2.1.2h.2l1.2-.8 1.2.8c.1.1.2 0 .3 0 0-.1.1-.1 0-.2l-.4-1.4 1.2-.9c.1-.1.1-.2 0-.3 0-.1-.1-.1-.2-.1h-1.4l-.5-1.4c0-.1-.1-.2-.2-.1-.2.1-.3.1-.3.2z"/><path id="Path_2421" class="st5" d="M18247.3 22038.9l-.5 1.4h-1.4c-.1 0-.2.1-.2.2s0 .1.1.1l1.2.9-.4 1.4c0 .1 0 .2.1.2h.2l1.2-.8 1.2.8c.1.1.2 0 .3 0v-.2l-.4-1.4 1.2-.9c.1-.1.1-.2 0-.3 0-.1-.1-.1-.2-.1h-1.4l-.5-1.4c0-.1-.1-.2-.2-.1-.2.1-.3.1-.3.2z"/><path id="Path_2422" class="st5" d="M18252.7 22018.8l-.5 1.4h-1.4c-.1 0-.2.1-.2.2s0 .1.1.1l1.2.9-.4 1.4c0 .1 0 .2.1.2h.2l1.2-.8 1.2.8c.1.1.2 0 .3 0 0-.1.1-.1 0-.2l-.4-1.4 1.2-.9c.1-.1.1-.2 0-.3 0-.1-.1-.1-.2-.1h-1.4l-.5-1.4c0-.1-.1-.2-.2-.1-.2.1-.3.1-.3.2z"/><path id="Path_2423" class="st5" d="M18267.4 22044.3l-.5 1.4h-1.4c-.1 0-.2.1-.2.2s0 .1.1.1l1.2.9-.4 1.4c0 .1 0 .2.1.2h.2l1.2-.8 1.2.8c.1.1.2 0 .3 0 0-.1.1-.1 0-.2l-.4-1.4 1.2-.9c.1-.1.1-.2 0-.3 0-.1-.1-.1-.2-.1h-1.4l-.5-1.4c0-.1-.1-.2-.2-.1-.2.1-.3.1-.3.2z"/></g></g><path id="Rectangle_230" class="st4" d="M18790 23210h42v25h-42z"/><g id="Group_571" transform="translate(549 1195)"><path id="Path_2424" class="st1" d="M18308.1 22060.4h-63.9c-.6 0-1.1-.5-1.1-1.1v-41.1c0-.6.5-1.1 1.1-1.1h63.9c.6 0 1.1.5 1.1 1.1v41.1c0 .5-.5 1-1.1 1.1z"/><path id="Path_2425" class="st2" d="M18309.2 22018.1c0-.6-.5-1.1-1.1-1.1h-5.1l-21.1 13.8v-13.8h-11.4v13.8l-21.1-13.8h-5.1c-.6 0-1.1.5-1.1 1.1v2.9l18.1 11.9h-18.1v11.4h18.1l-18.1 11.9v2.9c0 .6.5 1.1 1.1 1.1h5.1l21.1-13.8v13.8h11.4v-13.8l21.1 13.8h5.1c.6 0 1.1-.5 1.1-1.1v-2.9l-18.1-11.9h18.2v-11.4h-18.1l18.1-11.9v-2.9z"/><g id="Group_570"><path id="Path_2426" class="st3" d="M18309.2 22035.3h-29.7v-18.3h-6.9v18.3h-29.7v6.9h29.7v18.3h6.9v-18.3h29.7v-6.9z"/><path id="Path_2427" class="st3" d="M18266.1 22044.4l-23.1 15c.1.6.5 1 1.1 1h1.6l24.6-16h-4.2z"/><path id="Path_2428" class="st3" d="M18287.8 22044.4h-4.2l24.6 16c.6-.1 1-.5 1-1.1v-.9l-21.4-14z"/><path id="Path_2429" class="st3" d="M18243 22019.4l20.9 13.6h4.2l-24.4-15.9c-.4.2-.7.6-.7 1v1.3z"/><path id="Path_2430" class="st3" d="M18286 22033l23.2-15c-.1-.5-.6-.9-1.1-.9h-1.6l-24.6 16h4.1z"/></g></g></g><g id="Group_579" transform="translate(282 -151)"><g id="Group_575" transform="translate(522.999 1175)"><path id="Path_2431" class="st2" d="M18308.1 22060.4h-63.9c-.6 0-1.1-.5-1.1-1.1v-41.1c0-.6.5-1.1 1.1-1.1h63.9c.6 0 1.1.5 1.1 1.1v41.1c0 .5-.5 1-1.1 1.1z"/><g id="Group_573"><path id="Path_2432" class="st3" d="M18309.2 22020.3h-66.2v-2.2c0-.6.5-1.1 1.1-1.1h63.9c.6 0 1.1.5 1.1 1.1l.1 2.2z"/><path id="Rectangle_231" class="st3" d="M18243 22030.3h66.2v3.3h-66.2z"/><path id="Rectangle_232" class="st3" d="M18243 22023.7h66.2v3.3h-66.2z"/><path id="Path_2433" class="st3" d="M18309.2 22040.3h-65.1c-.6 0-1.1-.5-1.1-1.1v-2.2h66.2v3.3z"/><path id="Rectangle_233" class="st3" d="M18243 22050.4h66.2v3.3h-66.2z"/><path id="Path_2434" class="st3" d="M18308.1 22060.4h-63.9c-.6 0-1.1-.5-1.1-1.1v-2.2h66.2v2.2c-.1.5-.6 1.1-1.2 1.1z"/><path id="Rectangle_234" class="st3" d="M18243 22043.7h66.2v3.3h-66.2z"/></g><path id="Path_2435" class="st1" d="M18272.7 22017h-28.5c-.6 0-1.1.5-1.1 1.1v21.1c0 .6.5 1.1 1.1 1.1h28.5c.6 0 1.1-.5 1.1-1.1v-21.1c0-.6-.5-1.1-1.1-1.1z"/><g id="Group_574" transform="translate(1.859 2.547)"><path id="Path_2436" class="st2" d="M18244.3 22017.1l.3.8h.8c.1 0 .1.1.1.1v.1l-.6.5.2.8c0 .1 0 .1-.1.1h-.1l-.6-.5-.6.5h-.2v-.1l.2-.8-.6-.5s-.1-.1 0-.2h.9l.3-.8c-.1-.1 0-.1 0 0z"/><path id="Path_2437" class="st2" d="M18244.3 22021l.3.8h.8c.1 0 .1.1.1.1v.1l-.6.5.2.8c0 .1 0 .1-.1.1h-.1l-.6-.5-.6.5h-.2v-.1l.2-.8-.6-.5s-.1-.1 0-.2h.9l.3-.8c-.1-.1 0-.1 0 0z"/><path id="Path_2438" class="st2" d="M18244.3 22025l.3.8h.8c.1 0 .1.1.1.1v.1l-.6.5.2.8c0 .1 0 .1-.1.1h-.1l-.6-.5-.6.5h-.2v-.1l.2-.8-.6-.5s-.1-.1 0-.2h.9l.3-.8c-.1-.1 0-.1 0 0z"/><path id="Path_2439" class="st2" d="M18244.3 22029l.3.8h.8c.1 0 .1 0 .1.1v.1l-.6.5.2.8c0 .1 0 .1-.1.1h-.1l-.6-.5-.6.5h-.2v-.1l.2-.8-.6-.5s-.1-.1 0-.2h.9l.3-.8c-.1-.1 0-.1 0 0z"/><path id="Path_2440" class="st2" d="M18244.3 22032.9l.3.8h.8c.1 0 .1 0 .1.1v.1l-.6.5.2.8c0 .1 0 .1-.1.1h-.1l-.6-.5-.6.5h-.2v-.1l.2-.8-.6-.5s-.1-.1 0-.2h.9l.3-.8c-.1-.1 0-.1 0 0z"/><path id="Path_2441" class="st2" d="M18247.4 22019l.3.8h.8c.1 0 .1.1.1.1v.1l-.6.5.2.8c0 .1 0 .1-.1.1h-.1l-.6-.5-.6.5h-.2v-.1l.2-.8-.6-.5s-.1-.1 0-.2h.9l.3-.8c-.1-.1 0-.1 0 0z"/><path id="Path_2442" class="st2" d="M18247.4 22023l.3.8h.8c.1 0 .1.1.1.1v.1l-.6.5.2.8c0 .1 0 .1-.1.1h-.1l-.6-.5-.6.5h-.2v-.1l.2-.8-.6-.5s-.1-.1 0-.2h.9l.3-.8c-.1-.1 0-.1 0 0z"/><path id="Path_2443" class="st2" d="M18247.4 22026.9l.3.8h.8c.1 0 .1.1.1.1v.1l-.6.5.2.8c0 .1 0 .1-.1.1h-.1l-.6-.5-.6.5h-.2v-.1l.2-.8-.6-.5s-.1-.1 0-.2h.9l.3-.8c-.1-.1 0-.1 0 0z"/><path id="Path_2444" class="st2" d="M18247.4 22030.9l.3.8h.8c.1 0 .1.1.1.1v.1l-.6.5.2.8c0 .1 0 .1-.1.1h-.1l-.6-.5-.6.5h-.2v-.1l.2-.8-.6-.5s-.1-.1 0-.2h.9l.3-.8c-.1-.1 0-.1 0 0z"/><path id="Path_2445" class="st2" d="M18250.5 22017.1l.3.8h.8c.1 0 .1.1.1.1v.1l-.6.5.2.8c0 .1 0 .1-.1.1h-.1l-.6-.5-.6.5h-.2v-.1l.2-.8-.6-.5s-.1-.1 0-.2h.9l.3-.8c-.2-.1 0-.1 0 0z"/><path id="Path_2446" class="st2" d="M18250.5 22021l.3.8h.8c.1 0 .1.1.1.1v.1l-.7.5.2.8c0 .1 0 .1-.1.1h-.1l-.6-.5-.6.5h-.2v-.1l.2-.8-.6-.5s-.1-.1 0-.2h.9l.3-.8c-.1-.1.1-.1.1 0z"/><path id="Path_2447" class="st2" d="M18250.5 22025l.3.8h.8c.1 0 .1.1.1.1v.1l-.6.5.2.8c0 .1 0 .1-.1.1h-.1l-.6-.5-.6.5h-.2v-.1l.2-.8-.6-.5s-.1-.1 0-.2h.9l.3-.8c-.2-.1 0-.1 0 0z"/><path id="Path_2448" class="st2" d="M18250.5 22029l.3.8h.8c.1 0 .1.1.1.1v.1l-.6.5.2.8c0 .1 0 .1-.1.1h-.1l-.6-.5-.6.5h-.2v-.1l.2-.8-.6-.5s-.1-.1 0-.2h.9l.3-.8c-.2-.1 0-.1 0 0z"/><path id="Path_2449" class="st2" d="M18250.5 22032.9l.3.8h.8c.1 0 .1 0 .1.1v.1l-.6.5.2.8c0 .1 0 .1-.1.1h-.1l-.6-.5-.6.5h-.2v-.1l.2-.8-.6-.5s-.1-.1 0-.2h.9l.3-.8c-.2-.1 0-.1 0 0z"/><path id="Path_2450" class="st2" d="M18253.6 22019l.3.8h.8c.1 0 .1.1.1.1v.1l-.6.5.2.8c0 .1 0 .1-.1.1h-.1l-.6-.5-.6.5h-.2v-.1l.2-.8-.6-.5s-.1-.1 0-.2h.9l.3-.8c-.2-.1-.1-.1 0 0z"/><path id="Path_2451" class="st2" d="M18253.6 22023l.3.8h.8c.1 0 .1.1.1.1v.1l-.6.5.2.8c0 .1 0 .1-.1.1h-.1l-.6-.5-.6.5h-.2v-.1l.2-.8-.6-.5s-.1-.1 0-.2h.9l.3-.8c-.2-.1-.1-.1 0 0z"/><path id="Path_2452" class="st2" d="M18253.6 22026.9l.3.8h.8c.1 0 .1.1.1.1v.1l-.6.5.2.8c0 .1 0 .1-.1.1h-.1l-.6-.5-.6.5h-.2v-.1l.2-.8-.6-.5s-.1-.1 0-.2h.9l.3-.8c-.2-.1-.1-.1 0 0z"/><path id="Path_2453" class="st2" d="M18253.6 22030.9l.3.8h.8c.1 0 .1.1.1.1v.1l-.6.5.2.8c0 .1 0 .1-.1.1h-.1l-.6-.5-.6.5h-.2v-.1l.2-.8-.6-.5s-.1-.1 0-.2h.9l.3-.8c-.2-.1-.1-.1 0 0z"/><path id="Path_2454" class="st2" d="M18256.7 22017.1l.3.8h.8c.1 0 .1.1.1.1v.1l-.6.5.2.8c0 .1 0 .1-.1.1h-.1l-.6-.5-.6.5h-.2v-.1l.2-.8-.6-.5s-.1-.1 0-.2h.9l.3-.8c-.2-.1-.1-.1 0 0z"/><path id="Path_2455" class="st2" d="M18256.7 22021l.3.8h.8c.1 0 .1.1.1.1v.1l-.6.5.2.8c0 .1 0 .1-.1.1h-.1l-.6-.5-.6.5h-.2v-.1l.2-.8-.6-.5s-.1-.1 0-.2h.9l.3-.8c-.2-.1-.1-.1 0 0z"/><path id="Path_2456" class="st2" d="M18256.7 22025l.3.8h.8c.1 0 .1.1.1.1v.1l-.6.5.2.8c0 .1 0 .1-.1.1h-.1l-.6-.5-.6.5h-.2v-.1l.2-.8-.6-.5s-.1-.1 0-.2h.9l.3-.8c-.2-.1-.1-.1 0 0z"/><path id="Path_2457" class="st2" d="M18256.7 22029l.3.8h.8c.1 0 .1.1.1.1v.1l-.6.5.2.8c0 .1 0 .1-.1.1h-.1l-.6-.5-.6.5h-.2v-.1l.2-.8-.6-.5s-.1-.1 0-.2h.9l.3-.8c-.2-.1-.1-.1 0 0z"/><path id="Path_2458" class="st2" d="M18256.7 22032.9l.3.8h.8c.1 0 .1 0 .1.1v.1l-.6.5.2.8c0 .1 0 .1-.1.1h-.1l-.6-.5-.6.5h-.2v-.1l.2-.8-.6-.5s-.1-.1 0-.2h.9l.3-.8c-.2-.1-.1-.1 0 0z"/><path id="Path_2459" class="st2" d="M18259.7 22019l.3.8h.8c.1 0 .1.1.1.1v.1l-.6.5.2.8c0 .1 0 .1-.1.1h-.1l-.6-.5-.6.5h-.2v-.1l.2-.8-.6-.5s-.1-.1 0-.2h.9l.3-.8c-.1-.1 0-.1 0 0z"/><path id="Path_2460" class="st2" d="M18259.7 22023l.3.8h.8c.1 0 .1.1.1.1v.1l-.6.5.2.8c0 .1 0 .1-.1.1h-.1l-.6-.5-.6.5h-.2v-.1l.2-.8-.6-.5s-.1-.1 0-.2h.9l.3-.8c-.1-.1 0-.1 0 0z"/><path id="Path_2461" class="st2" d="M18259.7 22026.9l.3.8h.8c.1 0 .1.1.1.1v.1l-.6.5.2.8c0 .1 0 .1-.1.1h-.1l-.6-.5-.6.5h-.2v-.1l.2-.8-.6-.5s-.1-.1 0-.2h.9l.3-.8c-.1-.1 0-.1 0 0z"/><path id="Path_2462" class="st2" d="M18259.7 22030.9l.3.8h.8c.1 0 .1.1.1.1v.1l-.6.5.2.8c0 .1 0 .1-.1.1h-.1l-.6-.5-.6.5h-.2v-.1l.2-.8-.6-.5s-.1-.1 0-.2h.9l.3-.8c-.1-.1 0-.1 0 0z"/><path id="Path_2463" class="st2" d="M18262.8 22017.1l.3.8h.8c.1 0 .1.1.1.1v.1l-.6.5.2.8c0 .1 0 .1-.1.1h-.1l-.6-.5-.6.5h-.2v-.1l.2-.8-.6-.5s-.1-.1 0-.2h.9l.3-.8c-.2-.1-.1-.1 0 0 0-.1 0-.1 0 0z"/><path id="Path_2464" class="st2" d="M18262.8 22021l.3.8h.8c.1 0 .1.1.1.1v.1l-.6.5.2.8c0 .1 0 .1-.1.1h-.1l-.6-.5-.6.5h-.2v-.1l.2-.8-.6-.5s-.1-.1 0-.2h.9l.3-.8c-.2-.1 0-.1 0 0z"/><path id="Path_2465" class="st2" d="M18262.8 22025l.3.8h.8c.1 0 .1.1.1.1v.1l-.6.5.2.8c0 .1 0 .1-.1.1h-.1l-.6-.5-.6.5h-.2v-.1l.2-.8-.6-.5s-.1-.1 0-.2h.9l.3-.8c-.2 0-.1-.1 0 0 0-.1 0 0 0 0z"/><path id="Path_2466" class="st2" d="M18262.8 22029l.3.8h.8c.1 0 .1.1.1.1v.1l-.6.5.2.8c0 .1 0 .1-.1.1h-.1l-.6-.5-.6.5h-.2v-.1l.2-.8-.6-.5s-.1-.1 0-.2h.9l.3-.8c-.2-.1 0-.1 0 0z"/><path id="Path_2467" class="st2" d="M18262.8 22032.9l.3.8h.8c.1 0 .1 0 .1.1v.1l-.6.5.2.8c0 .1 0 .1-.1.1h-.1l-.6-.5-.6.5h-.2v-.1l.2-.8-.6-.5s-.1-.1 0-.2h.9l.3-.8c-.2 0-.1-.1 0 0z"/><path id="Path_2468" class="st2" d="M18265.9 22019l.3.8h.8c.1 0 .1.1.1.1v.1l-.6.5.2.8c0 .1 0 .1-.1.1h-.1l-.6-.5-.6.5h-.2v-.1l.2-.8-.6-.5s-.1-.1 0-.2h.9l.3-.8c-.2 0-.1-.1 0 0-.1 0 0 0 0 0z"/><path id="Path_2469" class="st2" d="M18265.9 22023l.3.8h.8c.1 0 .1.1.1.1v.1l-.6.5.2.8c0 .1 0 .1-.1.1h-.1l-.6-.5-.6.5h-.2v-.1l.2-.8-.6-.5s-.1-.1 0-.2h.9l.3-.8c-.2-.1-.1-.1 0 0z"/><path id="Path_2470" class="st2" d="M18265.9 22026.9l.3.8h.8c.1 0 .1.1.1.1v.1l-.6.5.2.8c0 .1 0 .1-.1.1h-.1l-.6-.5-.6.5h-.2v-.1l.2-.8-.6-.5s-.1-.1 0-.2h.9l.3-.8c-.2 0-.1 0 0 0-.1 0 0 0 0 0z"/><path id="Path_2471" class="st2" d="M18265.9 22030.9l.3.8h.8c.1 0 .1.1.1.1v.1l-.6.5.2.8c0 .1 0 .1-.1.1h-.1l-.6-.5-.6.5h-.2v-.1l.2-.8-.6-.5s-.1-.1 0-.2h.9l.3-.8c-.2 0-.1-.1 0 0-.1-.1 0 0 0 0z"/><path id="Path_2472" class="st2" d="M18268.9 22017.1l.3.8h.8c.1 0 .1.1.1.1v.1l-.6.5.2.8c0 .1 0 .1-.1.1h-.1l-.6-.5-.6.5h-.2v-.1l.2-.8-.6-.5s-.1-.1 0-.2h.9l.3-.8c-.1-.1-.1-.1 0 0 0-.1 0-.1 0 0z"/><path id="Path_2473" class="st2" d="M18268.9 22021l.3.8h.8c.1 0 .1.1.1.1v.1l-.6.5.2.8c0 .1 0 .1-.1.1h-.1l-.6-.5-.6.5h-.2v-.1l.2-.8-.6-.5s-.1-.1 0-.2h.9l.3-.8c-.1-.1 0-.1 0 0z"/><path id="Path_2474" class="st2" d="M18268.9 22025l.3.8h.8c.1 0 .1.1.1.1v.1l-.6.5.2.8c0 .1 0 .1-.1.1h-.1l-.6-.5-.6.5h-.2v-.1l.2-.8-.6-.5s-.1-.1 0-.2h.9l.3-.8c-.1 0-.1-.1 0 0 0-.1 0 0 0 0z"/><path id="Path_2475" class="st2" d="M18268.9 22029l.3.8h.8c.1 0 .1 0 .1.1v.1l-.6.5.2.8c0 .1 0 .1-.1.1h-.1l-.6-.5-.6.5h-.2v-.1l.2-.8-.6-.5s-.1-.1 0-.2h.9l.3-.8c-.1-.1 0-.1 0 0z"/><path id="Path_2476" class="st2" d="M18268.9 22032.9l.3.8h.8c.1 0 .1 0 .1.1v.1l-.6.5.2.8c0 .1 0 .1-.1.1h-.1l-.6-.5-.6.5h-.2v-.1l.2-.8-.6-.5s-.1-.1 0-.2h.9l.3-.8c-.1 0-.1-.1 0 0z"/></g></g><path id="Rectangle_235" class="st4" d="M18790 23210h42v25h-42z"/><g id="Group_578" transform="translate(549 1195)"><g id="Group_576"><path id="Path_2477" class="st2" d="M18308.1 22060.4h-63.9c-.6 0-1.1-.5-1.1-1.1v-41.1c0-.6.5-1.1 1.1-1.1h63.9c.6 0 1.1.5 1.1 1.1v41.1c0 .5-.5 1.1-1.1 1.1z"/><path id="Rectangle_236" class="st2" d="M18257.8 22017h36.5v43.4h-36.5z"/></g><g id="Group_577"><path id="Path_2478" class="st3" d="M18244.1 22017c-.6 0-1.1.5-1.1 1.1v41.1c0 .6.5 1.1 1.1 1.1h13.7v-43.4h-13.7z"/><path id="Path_2479" class="st3" d="M18308.1 22017h-13.7v43.4h13.7c.6 0 1.1-.5 1.1-1.1v-41.1c0-.7-.5-1.2-1.1-1.2z"/><path id="Path_2480" class="st3" d="M18283 22043.7l6.8-3.9-1.6-.8c-.4-.2-.7-.7-.6-1.2l.5-3.8-2.9.8c-.6.2-1.2-.2-1.4-.8v-.1l-.3-1.2-2.7 3.2c-.2.2-.6.3-.8.1-.2-.1-.2-.3-.2-.5l1.2-6.7-1.8.5c-.5.1-1.1-.1-1.3-.6l-1.9-3.5-1.8 3.5c-.3.5-.8.7-1.3.6l-1.8-.5 1.2 6.7c.1.3-.1.6-.4.7-.2 0-.4 0-.5-.2l-2.7-3.2-.3 1.2c-.1.6-.8 1-1.4.9h-.1l-2.9-.8.5 3.8c.1.5-.2 1-.6 1.2l-1.6.8 6.8 3.9c.7.4 1 1.2.7 2l-.6 1.6 5.8-.5c.3 0 .6.2.6.5v.1l-.2 6.2h1.1l-.2-6.2c0-.3.2-.5.5-.6h.1l5.8.5-.6-1.6c-.1-.9.2-1.7.9-2.1z"/></g></g></g><g id="Group_584" transform="translate(148 -20)"><g id="Group_582" transform="translate(523 1175)"><path id="Path_2481" class="st2" d="M18308.1 22060.4h-63.9c-.6 0-1.1-.5-1.1-1.1v-41.1c0-.6.5-1.1 1.1-1.1h63.9c.6 0 1.1.5 1.1 1.1v41.1c0 .5-.5 1-1.1 1.1z"/><g id="Group_580"><path id="Path_2482" class="st3" d="M18309.2 22020.3h-66.2v-2.2c0-.6.5-1.1 1.1-1.1h63.9c.6 0 1.1.5 1.1 1.1l.1 2.2z"/><path id="Rectangle_237" class="st3" d="M18243 22030.3h66.2v3.3h-66.2z"/><path id="Rectangle_238" class="st3" d="M18243 22023.7h66.2v3.3h-66.2z"/><path id="Path_2483" class="st3" d="M18309.2 22040.3h-65.1c-.6 0-1.1-.5-1.1-1.1v-2.2h66.2v3.3z"/><path id="Rectangle_239" class="st3" d="M18243 22050.4h66.2v3.3h-66.2z"/><path id="Path_2484" class="st3" d="M18308.1 22060.4h-63.9c-.6 0-1.1-.5-1.1-1.1v-2.2h66.2v2.2c-.1.5-.6 1.1-1.2 1.1z"/><path id="Rectangle_240" class="st3" d="M18243 22043.7h66.2v3.3h-66.2z"/></g><path id="Path_2485" class="st1" d="M18272.7 22017h-28.5c-.6 0-1.1.5-1.1 1.1v21.1c0 .6.5 1.1 1.1 1.1h28.5c.6 0 1.1-.5 1.1-1.1v-21.1c0-.6-.5-1.1-1.1-1.1z"/><g id="Group_581" transform="translate(1.859 2.547)"><path id="Path_2486" class="st2" d="M18244.3 22017.1l.3.8h.8c.1 0 .1.1.1.1v.1l-.6.5.2.8c0 .1 0 .1-.1.1h-.1l-.6-.5-.6.5h-.2v-.1l.2-.8-.6-.5s-.1-.1 0-.2h.9l.3-.8c-.1-.1 0-.1 0 0z"/><path id="Path_2487" class="st2" d="M18244.3 22021l.3.8h.8c.1 0 .1.1.1.1v.1l-.6.5.2.8c0 .1 0 .1-.1.1h-.1l-.6-.5-.6.5h-.2v-.1l.2-.8-.6-.5s-.1-.1 0-.2h.9l.3-.8c-.1-.1 0-.1 0 0z"/><path id="Path_2488" class="st2" d="M18244.3 22025l.3.8h.8c.1 0 .1.1.1.1v.1l-.6.5.2.8c0 .1 0 .1-.1.1h-.1l-.6-.5-.6.5h-.2v-.1l.2-.8-.6-.5s-.1-.1 0-.2h.9l.3-.8c-.1-.1 0-.1 0 0z"/><path id="Path_2489" class="st2" d="M18244.3 22029l.3.8h.8c.1 0 .1 0 .1.1v.1l-.6.5.2.8c0 .1 0 .1-.1.1h-.1l-.6-.5-.6.5h-.2v-.1l.2-.8-.6-.5s-.1-.1 0-.2h.9l.3-.8c-.1-.1 0-.1 0 0z"/><path id="Path_2490" class="st2" d="M18244.3 22032.9l.3.8h.8c.1 0 .1 0 .1.1v.1l-.6.5.2.8c0 .1 0 .1-.1.1h-.1l-.6-.5-.6.5h-.2v-.1l.2-.8-.6-.5s-.1-.1 0-.2h.9l.3-.8c-.1-.1 0-.1 0 0z"/><path id="Path_2491" class="st2" d="M18247.4 22019l.3.8h.8c.1 0 .1.1.1.1v.1l-.6.5.2.8c0 .1 0 .1-.1.1h-.1l-.6-.5-.6.5h-.2v-.1l.2-.8-.6-.5s-.1-.1 0-.2h.9l.3-.8c-.1-.1 0-.1 0 0z"/><path id="Path_2492" class="st2" d="M18247.4 22023l.3.8h.8c.1 0 .1.1.1.1v.1l-.6.5.2.8c0 .1 0 .1-.1.1h-.1l-.6-.5-.6.5h-.2v-.1l.2-.8-.6-.5s-.1-.1 0-.2h.9l.3-.8c-.1-.1 0-.1 0 0z"/><path id="Path_2493" class="st2" d="M18247.4 22026.9l.3.8h.8c.1 0 .1.1.1.1v.1l-.6.5.2.8c0 .1 0 .1-.1.1h-.1l-.6-.5-.6.5h-.2v-.1l.2-.8-.6-.5s-.1-.1 0-.2h.9l.3-.8c-.1-.1 0-.1 0 0z"/><path id="Path_2494" class="st2" d="M18247.4 22030.9l.3.8h.8c.1 0 .1.1.1.1v.1l-.6.5.2.8c0 .1 0 .1-.1.1h-.1l-.6-.5-.6.5h-.2v-.1l.2-.8-.6-.5s-.1-.1 0-.2h.9l.3-.8c-.1-.1 0-.1 0 0z"/><path id="Path_2495" class="st2" d="M18250.5 22017.1l.3.8h.8c.1 0 .1.1.1.1v.1l-.6.5.2.8c0 .1 0 .1-.1.1h-.1l-.6-.5-.6.5h-.2v-.1l.2-.8-.6-.5s-.1-.1 0-.2h.9l.3-.8c-.2-.1 0-.1 0 0z"/><path id="Path_2496" class="st2" d="M18250.5 22021l.3.8h.8c.1 0 .1.1.1.1v.1l-.7.5.2.8c0 .1 0 .1-.1.1h-.1l-.6-.5-.6.5h-.2v-.1l.2-.8-.6-.5s-.1-.1 0-.2h.9l.3-.8c-.1-.1.1-.1.1 0z"/><path id="Path_2497" class="st2" d="M18250.5 22025l.3.8h.8c.1 0 .1.1.1.1v.1l-.6.5.2.8c0 .1 0 .1-.1.1h-.1l-.6-.5-.6.5h-.2v-.1l.2-.8-.6-.5s-.1-.1 0-.2h.9l.3-.8c-.2-.1 0-.1 0 0z"/><path id="Path_2498" class="st2" d="M18250.5 22029l.3.8h.8c.1 0 .1.1.1.1v.1l-.6.5.2.8c0 .1 0 .1-.1.1h-.1l-.6-.5-.6.5h-.2v-.1l.2-.8-.6-.5s-.1-.1 0-.2h.9l.3-.8c-.2-.1 0-.1 0 0z"/><path id="Path_2499" class="st2" d="M18250.5 22032.9l.3.8h.8c.1 0 .1 0 .1.1v.1l-.6.5.2.8c0 .1 0 .1-.1.1h-.1l-.6-.5-.6.5h-.2v-.1l.2-.8-.6-.5s-.1-.1 0-.2h.9l.3-.8c-.2-.1 0-.1 0 0z"/><path id="Path_2500" class="st2" d="M18253.6 22019l.3.8h.8c.1 0 .1.1.1.1v.1l-.6.5.2.8c0 .1 0 .1-.1.1h-.1l-.6-.5-.6.5h-.2v-.1l.2-.8-.6-.5s-.1-.1 0-.2h.9l.3-.8c-.2-.1-.1-.1 0 0z"/><path id="Path_2501" class="st2" d="M18253.6 22023l.3.8h.8c.1 0 .1.1.1.1v.1l-.6.5.2.8c0 .1 0 .1-.1.1h-.1l-.6-.5-.6.5h-.2v-.1l.2-.8-.6-.5s-.1-.1 0-.2h.9l.3-.8c-.2-.1-.1-.1 0 0z"/><path id="Path_2502" class="st2" d="M18253.6 22026.9l.3.8h.8c.1 0 .1.1.1.1v.1l-.6.5.2.8c0 .1 0 .1-.1.1h-.1l-.6-.5-.6.5h-.2v-.1l.2-.8-.6-.5s-.1-.1 0-.2h.9l.3-.8c-.2-.1-.1-.1 0 0z"/><path id="Path_2503" class="st2" d="M18253.6 22030.9l.3.8h.8c.1 0 .1.1.1.1v.1l-.6.5.2.8c0 .1 0 .1-.1.1h-.1l-.6-.5-.6.5h-.2v-.1l.2-.8-.6-.5s-.1-.1 0-.2h.9l.3-.8c-.2-.1-.1-.1 0 0z"/><path id="Path_2504" class="st2" d="M18256.7 22017.1l.3.8h.8c.1 0 .1.1.1.1v.1l-.6.5.2.8c0 .1 0 .1-.1.1h-.1l-.6-.5-.6.5h-.2v-.1l.2-.8-.6-.5s-.1-.1 0-.2h.9l.3-.8c-.2-.1-.1-.1 0 0z"/><path id="Path_2505" class="st2" d="M18256.7 22021l.3.8h.8c.1 0 .1.1.1.1v.1l-.6.5.2.8c0 .1 0 .1-.1.1h-.1l-.6-.5-.6.5h-.2v-.1l.2-.8-.6-.5s-.1-.1 0-.2h.9l.3-.8c-.2-.1-.1-.1 0 0z"/><path id="Path_2506" class="st2" d="M18256.7 22025l.3.8h.8c.1 0 .1.1.1.1v.1l-.6.5.2.8c0 .1 0 .1-.1.1h-.1l-.6-.5-.6.5h-.2v-.1l.2-.8-.6-.5s-.1-.1 0-.2h.9l.3-.8c-.2-.1-.1-.1 0 0z"/><path id="Path_2507" class="st2" d="M18256.7 22029l.3.8h.8c.1 0 .1.1.1.1v.1l-.6.5.2.8c0 .1 0 .1-.1.1h-.1l-.6-.5-.6.5h-.2v-.1l.2-.8-.6-.5s-.1-.1 0-.2h.9l.3-.8c-.2-.1-.1-.1 0 0z"/><path id="Path_2508" class="st2" d="M18256.7 22032.9l.3.8h.8c.1 0 .1 0 .1.1v.1l-.6.5.2.8c0 .1 0 .1-.1.1h-.1l-.6-.5-.6.5h-.2v-.1l.2-.8-.6-.5s-.1-.1 0-.2h.9l.3-.8c-.2-.1-.1-.1 0 0z"/><path id="Path_2509" class="st2" d="M18259.7 22019l.3.8h.8c.1 0 .1.1.1.1v.1l-.6.5.2.8c0 .1 0 .1-.1.1h-.1l-.6-.5-.6.5h-.2v-.1l.2-.8-.6-.5s-.1-.1 0-.2h.9l.3-.8c-.1-.1 0-.1 0 0z"/><path id="Path_2510" class="st2" d="M18259.7 22023l.3.8h.8c.1 0 .1.1.1.1v.1l-.6.5.2.8c0 .1 0 .1-.1.1h-.1l-.6-.5-.6.5h-.2v-.1l.2-.8-.6-.5s-.1-.1 0-.2h.9l.3-.8c-.1-.1 0-.1 0 0z"/><path id="Path_2511" class="st2" d="M18259.7 22026.9l.3.8h.8c.1 0 .1.1.1.1v.1l-.6.5.2.8c0 .1 0 .1-.1.1h-.1l-.6-.5-.6.5h-.2v-.1l.2-.8-.6-.5s-.1-.1 0-.2h.9l.3-.8c-.1-.1 0-.1 0 0z"/><path id="Path_2512" class="st2" d="M18259.7 22030.9l.3.8h.8c.1 0 .1.1.1.1v.1l-.6.5.2.8c0 .1 0 .1-.1.1h-.1l-.6-.5-.6.5h-.2v-.1l.2-.8-.6-.5s-.1-.1 0-.2h.9l.3-.8c-.1-.1 0-.1 0 0z"/><path id="Path_2513" class="st2" d="M18262.8 22017.1l.3.8h.8c.1 0 .1.1.1.1v.1l-.6.5.2.8c0 .1 0 .1-.1.1h-.1l-.6-.5-.6.5h-.2v-.1l.2-.8-.6-.5s-.1-.1 0-.2h.9l.3-.8c-.2-.1-.1-.1 0 0 0-.1 0-.1 0 0z"/><path id="Path_2514" class="st2" d="M18262.8 22021l.3.8h.8c.1 0 .1.1.1.1v.1l-.6.5.2.8c0 .1 0 .1-.1.1h-.1l-.6-.5-.6.5h-.2v-.1l.2-.8-.6-.5s-.1-.1 0-.2h.9l.3-.8c-.2-.1 0-.1 0 0z"/><path id="Path_2515" class="st2" d="M18262.8 22025l.3.8h.8c.1 0 .1.1.1.1v.1l-.6.5.2.8c0 .1 0 .1-.1.1h-.1l-.6-.5-.6.5h-.2v-.1l.2-.8-.6-.5s-.1-.1 0-.2h.9l.3-.8c-.2 0-.1-.1 0 0 0-.1 0 0 0 0z"/><path id="Path_2516" class="st2" d="M18262.8 22029l.3.8h.8c.1 0 .1.1.1.1v.1l-.6.5.2.8c0 .1 0 .1-.1.1h-.1l-.6-.5-.6.5h-.2v-.1l.2-.8-.6-.5s-.1-.1 0-.2h.9l.3-.8c-.2-.1 0-.1 0 0z"/><path id="Path_2517" class="st2" d="M18262.8 22032.9l.3.8h.8c.1 0 .1 0 .1.1v.1l-.6.5.2.8c0 .1 0 .1-.1.1h-.1l-.6-.5-.6.5h-.2v-.1l.2-.8-.6-.5s-.1-.1 0-.2h.9l.3-.8c-.2 0-.1-.1 0 0z"/><path id="Path_2518" class="st2" d="M18265.9 22019l.3.8h.8c.1 0 .1.1.1.1v.1l-.6.5.2.8c0 .1 0 .1-.1.1h-.1l-.6-.5-.6.5h-.2v-.1l.2-.8-.6-.5s-.1-.1 0-.2h.9l.3-.8c-.2 0-.1-.1 0 0-.1 0 0 0 0 0z"/><path id="Path_2519" class="st2" d="M18265.9 22023l.3.8h.8c.1 0 .1.1.1.1v.1l-.6.5.2.8c0 .1 0 .1-.1.1h-.1l-.6-.5-.6.5h-.2v-.1l.2-.8-.6-.5s-.1-.1 0-.2h.9l.3-.8c-.2-.1-.1-.1 0 0z"/><path id="Path_2520" class="st2" d="M18265.9 22026.9l.3.8h.8c.1 0 .1.1.1.1v.1l-.6.5.2.8c0 .1 0 .1-.1.1h-.1l-.6-.5-.6.5h-.2v-.1l.2-.8-.6-.5s-.1-.1 0-.2h.9l.3-.8c-.2 0-.1 0 0 0-.1 0 0 0 0 0z"/><path id="Path_2521" class="st2" d="M18265.9 22030.9l.3.8h.8c.1 0 .1.1.1.1v.1l-.6.5.2.8c0 .1 0 .1-.1.1h-.1l-.6-.5-.6.5h-.2v-.1l.2-.8-.6-.5s-.1-.1 0-.2h.9l.3-.8c-.2 0-.1-.1 0 0-.1-.1 0 0 0 0z"/><path id="Path_2522" class="st2" d="M18268.9 22017.1l.3.8h.8c.1 0 .1.1.1.1v.1l-.6.5.2.8c0 .1 0 .1-.1.1h-.1l-.6-.5-.6.5h-.2v-.1l.2-.8-.6-.5s-.1-.1 0-.2h.9l.3-.8c-.1-.1-.1-.1 0 0 0-.1 0-.1 0 0z"/><path id="Path_2523" class="st2" d="M18268.9 22021l.3.8h.8c.1 0 .1.1.1.1v.1l-.6.5.2.8c0 .1 0 .1-.1.1h-.1l-.6-.5-.6.5h-.2v-.1l.2-.8-.6-.5s-.1-.1 0-.2h.9l.3-.8c-.1-.1 0-.1 0 0z"/><path id="Path_2524" class="st2" d="M18268.9 22025l.3.8h.8c.1 0 .1.1.1.1v.1l-.6.5.2.8c0 .1 0 .1-.1.1h-.1l-.6-.5-.6.5h-.2v-.1l.2-.8-.6-.5s-.1-.1 0-.2h.9l.3-.8c-.1 0-.1-.1 0 0 0-.1 0 0 0 0z"/><path id="Path_2525" class="st2" d="M18268.9 22029l.3.8h.8c.1 0 .1 0 .1.1v.1l-.6.5.2.8c0 .1 0 .1-.1.1h-.1l-.6-.5-.6.5h-.2v-.1l.2-.8-.6-.5s-.1-.1 0-.2h.9l.3-.8c-.1-.1 0-.1 0 0z"/><path id="Path_2526" class="st2" d="M18268.9 22032.9l.3.8h.8c.1 0 .1 0 .1.1v.1l-.6.5.2.8c0 .1 0 .1-.1.1h-.1l-.6-.5-.6.5h-.2v-.1l.2-.8-.6-.5s-.1-.1 0-.2h.9l.3-.8c-.1 0-.1-.1 0 0z"/></g></g><path id="Rectangle_241" class="st6" d="M18790 23210h42v25h-42z"/><g id="Group_583" transform="translate(549 1195)"><path id="Path_2527" class="st2" d="M18308.1 22060.4h-63.9c-.6 0-1.1-.5-1.1-1.1v-41.1c0-.6.5-1.1 1.1-1.1h63.9c.6 0 1.1.5 1.1 1.1v41.1c0 .5-.5 1.1-1.1 1.1z"/><circle id="Ellipse_52" class="st3" cx="18276.1" cy="22038.7" r="12.6"/></g></g><g id="Group_589" transform="translate(282 -20)"><g id="Group_587" transform="translate(523 1175)"><path id="Path_2528" class="st1" d="M18308.1 22060.4h-63.9c-.6 0-1.1-.5-1.1-1.1v-41.1c0-.6.5-1.1 1.1-1.1h63.9c.6 0 1.1.5 1.1 1.1v41.1c0 .5-.5 1.1-1.1 1.1z"/><path id="Path_2529" class="st2" d="M18275 22017h-2l-10.6 6.9v-6.9h-5.7v6.9l-10.6-6.9h-2c-.6 0-1.1.5-1.1 1.1v.9l9.1 5.9h-9.1v5.7h9.1l-9.1 6v.9c0 .6.5 1.1 1.1 1.1h2l10.6-6.9v6.9h5.7v-6.9l10.6 6.9h2c.6 0 1.1-.5 1.1-1.1v-.9l-9.1-5.9h9.1v-5.7h-9.1l9.1-5.9v-.9c0-.7-.5-1.2-1.1-1.2z"/><g id="Group_585"><path id="Path_2530" class="st3" d="M18276.1 22026.1h-14.8v-9.1h-3.4v9.1h-14.8v3.4h14.8v9.1h3.4v-9.1h14.8v-3.4z"/><path id="Path_2531" class="st3" d="M18255.6 22025l-12-7.8c-.3.2-.5.6-.5.9v.1l10.5 6.8h2z"/><path id="Path_2532" class="st3" d="M18264.5 22025l11.4-7.4c-.2-.4-.6-.6-1-.6h-.2l-12.3 8h2.1z"/><path id="Path_2533" class="st3" d="M18254.6 22030.7l-11.4 7.4c.2.4.6.6 1 .6h.2l12.3-8h-2.1z"/><path id="Path_2534" class="st3" d="M18276.1 22037.6l-10.7-6.9h-2.1l12.1 7.9c.4-.2.7-.6.7-1z"/></g><g id="Group_586" transform="translate(11.504 7.596)"><path id="Path_2535" class="st2" d="M18248.4 22037.3l.9 2.8 2.8-1.1c.1 0 .3 0 .3.2v.2l-1.7 2.4 2.6 1.5c.1.1.2.2.1.3 0 .1-.1.1-.2.1l-3 .2.5 2.9c0 .1-.1.3-.2.3s-.2 0-.2-.1l-2-2.2-2 2.2c-.1.1-.3.1-.4 0-.1-.1-.1-.1-.1-.2l.5-2.9-3-.2c-.1 0-.2-.1-.2-.3 0-.1.1-.2.1-.2l2.6-1.5-1.7-2.4c-.1-.1-.1-.3.1-.4.1 0 .2-.1.2 0l2.8 1.1.9-2.8c-.1-.1.2-.1.3.1z"/><path id="Path_2536" class="st2" d="M18282.3 22017.1l.4 1.4 1.3-.5c.1 0 .1 0 .2.1v.1l-.8 1.2 1.3.7c.1 0 .1.1 0 .2l-.1.1-1.4.1.2 1.4c0 .1 0 .1-.1.1h-.1l-1-1.1-1 1.1c-.1.1-.1.1-.2 0v-.1l.2-1.4-1.4-.1c-.1 0-.1-.1-.1-.1s0-.1.1-.1l1.3-.7-.8-1.2v-.2h.1l1.3.5.4-1.4c0-.1.1-.1.1-.1.1-.1.1-.1.1 0z"/><path id="Path_2537" class="st2" d="M18273 22027.8l.4 1.4 1.3-.5c.1 0 .1 0 .2.1v.1l-.8 1.2 1.3.7c.1 0 .1.1 0 .2l-.1.1-1.4.1.2 1.4c0 .1 0 .1-.1.1h-.1l-1-1.1-1 1.1c-.1.1-.1.1-.2 0v-.1l.2-1.4-1.4-.1c-.1 0-.1-.1-.1-.1s0-.1.1-.1l1.3-.7-.8-1.2v-.2h.1l1.3.5.4-1.4c0-.1.1-.1.1-.1 0-.1 0-.1.1 0z"/><path id="Path_2538" class="st2" d="M18291.2 22023.2l.4 1.4 1.3-.5c.1 0 .1 0 .2.1v.1l-.8 1.2 1.3.7c.1 0 .1.1 0 .2l-.1.1-1.4.1.2 1.4c0 .1 0 .1-.1.1h-.1l-1-1.1-1 1.1c-.1.1-.1.1-.2 0v-.1l.2-1.4-1.4-.1c-.1 0-.1-.1-.1-.1s0-.1.1-.1l1.3-.7-.8-1.2v-.2h.1l1.3.5.4-1.4c0-.2.1-.2.2-.1 0-.1 0-.1 0 0z"/><path id="Path_2539" class="st2" d="M18282.3 22041.5l.4 1.4 1.3-.5c.1 0 .1 0 .2.1v.1l-.8 1.2 1.3.7c.1 0 .1.1 0 .2l-.1.1-1.4.1.2 1.4c0 .1 0 .1-.1.1h-.1l-1-1.1-1 1.1c-.1.1-.1.1-.2 0v-.1l.2-1.4-1.4-.1c-.1 0-.1-.1-.1-.1s0-.1.1-.1l1.3-.7-.8-1.2v-.2h.1l1.3.5.4-1.4c0-.1.1-.1.1-.1.1-.1.1-.1.1 0z"/><path id="Path_2540" class="st2" d="M18285.6 22030.2l-.3 1h-1.1c-.1 0-.1.1-.1.1s0 .1.1.1l.9.6-.3 1c0 .1 0 .2.1.2h.1l.9-.6.9.6h.2v-.1l-.3-1 .9-.6c.1 0 .1-.1 0-.2l-.1-.1h-1.1l-.3-1c-.3-.1-.5-.1-.5 0z"/></g></g><path id="Rectangle_242" class="st4" d="M18790 23210h42v25h-42z"/><g id="Group_588" transform="translate(549 1195)"><path id="Path_2541" class="st2" d="M18308.1 22060.4h-63.9c-.6 0-1.1-.5-1.1-1.1v-41.1c0-.6.5-1.1 1.1-1.1h63.9c.6 0 1.1.5 1.1 1.1v41.1c0 .5-.5 1.1-1.1 1.1z"/><circle id="Ellipse_53" class="st3" cx="18276.1" cy="22038.7" r="12.6"/></g></g><g id="Group_596" transform="translate(416 -20)"><g id="Group_592" transform="translate(523 1175)"><path id="Path_2542" class="st1" d="M18308.1 22060.4h-63.9c-.6 0-1.1-.5-1.1-1.1v-41.1c0-.6.5-1.1 1.1-1.1h63.9c.6 0 1.1.5 1.1 1.1v41.1c0 .5-.5 1.1-1.1 1.1z"/><path id="Path_2543" class="st2" d="M18275 22017h-2l-10.6 6.9v-6.9h-5.7v6.9l-10.6-6.9h-2c-.6 0-1.1.5-1.1 1.1v.9l9.1 5.9h-9.1v5.7h9.1l-9.1 6v.9c0 .6.5 1.1 1.1 1.1h2l10.6-6.9v6.9h5.7v-6.9l10.6 6.9h2c.6 0 1.1-.5 1.1-1.1v-.9l-9.1-5.9h9.1v-5.7h-9.1l9.1-5.9v-.9c0-.7-.5-1.2-1.1-1.2z"/><g id="Group_590"><path id="Path_2544" class="st3" d="M18276.1 22026.1h-14.8v-9.1h-3.4v9.1h-14.8v3.4h14.8v9.1h3.4v-9.1h14.8v-3.4z"/><path id="Path_2545" class="st3" d="M18255.6 22025l-12-7.8c-.3.2-.5.6-.5.9v.1l10.5 6.8h2z"/><path id="Path_2546" class="st3" d="M18264.5 22025l11.4-7.4c-.2-.4-.6-.6-1-.6h-.2l-12.3 8h2.1z"/><path id="Path_2547" class="st3" d="M18254.6 22030.7l-11.4 7.4c.2.4.6.6 1 .6h.2l12.3-8h-2.1z"/><path id="Path_2548" class="st3" d="M18276.1 22037.6l-10.7-6.9h-2.1l12.1 7.9c.4-.2.7-.6.7-1z"/></g><g id="Group_591" transform="translate(11.504 7.596)"><path id="Path_2549" class="st2" d="M18248.4 22037.3l.9 2.8 2.8-1.1c.1 0 .3 0 .3.2v.2l-1.7 2.4 2.6 1.5c.1.1.2.2.1.3 0 .1-.1.1-.2.1l-3 .2.5 2.9c0 .1-.1.3-.2.3s-.2 0-.2-.1l-2-2.2-2 2.2c-.1.1-.3.1-.4 0-.1-.1-.1-.1-.1-.2l.5-2.9-3-.2c-.1 0-.2-.1-.2-.3 0-.1.1-.2.1-.2l2.6-1.5-1.7-2.4c-.1-.1-.1-.3.1-.4.1 0 .2-.1.2 0l2.8 1.1.9-2.8c-.1-.1.2-.1.3.1z"/><path id="Path_2550" class="st2" d="M18282.3 22017.1l.4 1.4 1.3-.5c.1 0 .1 0 .2.1v.1l-.8 1.2 1.3.7c.1 0 .1.1 0 .2l-.1.1-1.4.1.2 1.4c0 .1 0 .1-.1.1h-.1l-1-1.1-1 1.1c-.1.1-.1.1-.2 0v-.1l.2-1.4-1.4-.1c-.1 0-.1-.1-.1-.1s0-.1.1-.1l1.3-.7-.8-1.2v-.2h.1l1.3.5.4-1.4c0-.1.1-.1.1-.1.1-.1.1-.1.1 0z"/><path id="Path_2551" class="st2" d="M18273 22027.8l.4 1.4 1.3-.5c.1 0 .1 0 .2.1v.1l-.8 1.2 1.3.7c.1 0 .1.1 0 .2l-.1.1-1.4.1.2 1.4c0 .1 0 .1-.1.1h-.1l-1-1.1-1 1.1c-.1.1-.1.1-.2 0v-.1l.2-1.4-1.4-.1c-.1 0-.1-.1-.1-.1s0-.1.1-.1l1.3-.7-.8-1.2v-.2h.1l1.3.5.4-1.4c0-.1.1-.1.1-.1 0-.1 0-.1.1 0z"/><path id="Path_2552" class="st2" d="M18291.2 22023.2l.4 1.4 1.3-.5c.1 0 .1 0 .2.1v.1l-.8 1.2 1.3.7c.1 0 .1.1 0 .2l-.1.1-1.4.1.2 1.4c0 .1 0 .1-.1.1h-.1l-1-1.1-1 1.1c-.1.1-.1.1-.2 0v-.1l.2-1.4-1.4-.1c-.1 0-.1-.1-.1-.1s0-.1.1-.1l1.3-.7-.8-1.2v-.2h.1l1.3.5.4-1.4c0-.2.1-.2.2-.1 0-.1 0-.1 0 0z"/><path id="Path_2553" class="st2" d="M18282.3 22041.5l.4 1.4 1.3-.5c.1 0 .1 0 .2.1v.1l-.8 1.2 1.3.7c.1 0 .1.1 0 .2l-.1.1-1.4.1.2 1.4c0 .1 0 .1-.1.1h-.1l-1-1.1-1 1.1c-.1.1-.1.1-.2 0v-.1l.2-1.4-1.4-.1c-.1 0-.1-.1-.1-.1s0-.1.1-.1l1.3-.7-.8-1.2v-.2h.1l1.3.5.4-1.4c0-.1.1-.1.1-.1.1-.1.1-.1.1 0z"/><path id="Path_2554" class="st2" d="M18285.6 22030.2l-.3 1h-1.1c-.1 0-.1.1-.1.1s0 .1.1.1l.9.6-.3 1c0 .1 0 .2.1.2h.1l.9-.6.9.6h.2v-.1l-.3-1 .9-.6c.1 0 .1-.1 0-.2l-.1-.1h-1.1l-.3-1c-.3-.1-.5-.1-.5 0z"/></g></g><path id="Rectangle_243" class="st4" d="M18790 23210h42v25h-42z"/><g id="Group_595" transform="translate(549 1195)"><path id="Path_2555" class="st2" d="M18308.1 22060.4h-63.9c-.6 0-1.1-.5-1.1-1.1v-41.1c0-.6.5-1.1 1.1-1.1h63.9c.6 0 1.1.5 1.1 1.1v41.1c0 .5-.5 1-1.1 1.1z"/><g id="Group_593"><path id="Path_2556" class="st3" d="M18309.2 22020.3h-66.2v-2.2c0-.6.5-1.1 1.1-1.1h63.9c.6 0 1.1.5 1.1 1.1l.1 2.2z"/><path id="Rectangle_244" class="st3" d="M18243 22030.3h66.2v3.3h-66.2z"/><path id="Rectangle_245" class="st3" d="M18243 22023.7h66.2v3.3h-66.2z"/><path id="Path_2557" class="st3" d="M18309.2 22040.3h-65.1c-.6 0-1.1-.5-1.1-1.1v-2.2h66.2v3.3z"/><path id="Rectangle_246" class="st3" d="M18243 22050.4h66.2v3.3h-66.2z"/><path id="Path_2558" class="st3" d="M18308.1 22060.4h-63.9c-.6 0-1.1-.5-1.1-1.1v-2.2h66.2v2.2c-.1.5-.6 1.1-1.2 1.1z"/><path id="Rectangle_247" class="st3" d="M18243 22043.7h66.2v3.3h-66.2z"/></g><path id="Path_2559" class="st1" d="M18272.7 22017h-28.5c-.6 0-1.1.5-1.1 1.1v21.1c0 .6.5 1.1 1.1 1.1h28.5c.6 0 1.1-.5 1.1-1.1v-21.1c0-.6-.5-1.1-1.1-1.1z"/><g id="Group_594" transform="translate(1.859 2.547)"><path id="Path_2560" class="st2" d="M18244.3 22017.1l.3.8h.8c.1 0 .1.1.1.1v.1l-.6.5.2.8c0 .1 0 .1-.1.1h-.1l-.6-.5-.6.5h-.2v-.1l.2-.8-.6-.5s-.1-.1 0-.2h.9l.3-.8c-.1-.1 0-.1 0 0z"/><path id="Path_2561" class="st2" d="M18244.3 22021l.3.8h.8c.1 0 .1.1.1.1v.1l-.6.5.2.8c0 .1 0 .1-.1.1h-.1l-.6-.5-.6.5h-.2v-.1l.2-.8-.6-.5s-.1-.1 0-.2h.9l.3-.8c-.1-.1 0-.1 0 0z"/><path id="Path_2562" class="st2" d="M18244.3 22025l.3.8h.8c.1 0 .1.1.1.1v.1l-.6.5.2.8c0 .1 0 .1-.1.1h-.1l-.6-.5-.6.5h-.2v-.1l.2-.8-.6-.5s-.1-.1 0-.2h.9l.3-.8c-.1-.1 0-.1 0 0z"/><path id="Path_2563" class="st2" d="M18244.3 22029l.3.8h.8c.1 0 .1 0 .1.1v.1l-.6.5.2.8c0 .1 0 .1-.1.1h-.1l-.6-.5-.6.5h-.2v-.1l.2-.8-.6-.5s-.1-.1 0-.2h.9l.3-.8c-.1-.1 0-.1 0 0z"/><path id="Path_2564" class="st2" d="M18244.3 22032.9l.3.8h.8c.1 0 .1 0 .1.1v.1l-.6.5.2.8c0 .1 0 .1-.1.1h-.1l-.6-.5-.6.5h-.2v-.1l.2-.8-.6-.5s-.1-.1 0-.2h.9l.3-.8c-.1-.1 0-.1 0 0z"/><path id="Path_2565" class="st2" d="M18247.4 22019l.3.8h.8c.1 0 .1.1.1.1v.1l-.6.5.2.8c0 .1 0 .1-.1.1h-.1l-.6-.5-.6.5h-.2v-.1l.2-.8-.6-.5s-.1-.1 0-.2h.9l.3-.8c-.1-.1 0-.1 0 0z"/><path id="Path_2566" class="st2" d="M18247.4 22023l.3.8h.8c.1 0 .1.1.1.1v.1l-.6.5.2.8c0 .1 0 .1-.1.1h-.1l-.6-.5-.6.5h-.2v-.1l.2-.8-.6-.5s-.1-.1 0-.2h.9l.3-.8c-.1-.1 0-.1 0 0z"/><path id="Path_2567" class="st2" d="M18247.4 22026.9l.3.8h.8c.1 0 .1.1.1.1v.1l-.6.5.2.8c0 .1 0 .1-.1.1h-.1l-.6-.5-.6.5h-.2v-.1l.2-.8-.6-.5s-.1-.1 0-.2h.9l.3-.8c-.1-.1 0-.1 0 0z"/><path id="Path_2568" class="st2" d="M18247.4 22030.9l.3.8h.8c.1 0 .1.1.1.1v.1l-.6.5.2.8c0 .1 0 .1-.1.1h-.1l-.6-.5-.6.5h-.2v-.1l.2-.8-.6-.5s-.1-.1 0-.2h.9l.3-.8c-.1-.1 0-.1 0 0z"/><path id="Path_2569" class="st2" d="M18250.5 22017.1l.3.8h.8c.1 0 .1.1.1.1v.1l-.6.5.2.8c0 .1 0 .1-.1.1h-.1l-.6-.5-.6.5h-.2v-.1l.2-.8-.6-.5s-.1-.1 0-.2h.9l.3-.8c-.2-.1 0-.1 0 0z"/><path id="Path_2570" class="st2" d="M18250.5 22021l.3.8h.8c.1 0 .1.1.1.1v.1l-.7.5.2.8c0 .1 0 .1-.1.1h-.1l-.6-.5-.6.5h-.2v-.1l.2-.8-.6-.5s-.1-.1 0-.2h.9l.3-.8c-.1-.1.1-.1.1 0z"/><path id="Path_2571" class="st2" d="M18250.5 22025l.3.8h.8c.1 0 .1.1.1.1v.1l-.6.5.2.8c0 .1 0 .1-.1.1h-.1l-.6-.5-.6.5h-.2v-.1l.2-.8-.6-.5s-.1-.1 0-.2h.9l.3-.8c-.2-.1 0-.1 0 0z"/><path id="Path_2572" class="st2" d="M18250.5 22029l.3.8h.8c.1 0 .1.1.1.1v.1l-.6.5.2.8c0 .1 0 .1-.1.1h-.1l-.6-.5-.6.5h-.2v-.1l.2-.8-.6-.5s-.1-.1 0-.2h.9l.3-.8c-.2-.1 0-.1 0 0z"/><path id="Path_2573" class="st2" d="M18250.5 22032.9l.3.8h.8c.1 0 .1 0 .1.1v.1l-.6.5.2.8c0 .1 0 .1-.1.1h-.1l-.6-.5-.6.5h-.2v-.1l.2-.8-.6-.5s-.1-.1 0-.2h.9l.3-.8c-.2-.1 0-.1 0 0z"/><path id="Path_2574" class="st2" d="M18253.6 22019l.3.8h.8c.1 0 .1.1.1.1v.1l-.6.5.2.8c0 .1 0 .1-.1.1h-.1l-.6-.5-.6.5h-.2v-.1l.2-.8-.6-.5s-.1-.1 0-.2h.9l.3-.8c-.2-.1-.1-.1 0 0z"/><path id="Path_2575" class="st2" d="M18253.6 22023l.3.8h.8c.1 0 .1.1.1.1v.1l-.6.5.2.8c0 .1 0 .1-.1.1h-.1l-.6-.5-.6.5h-.2v-.1l.2-.8-.6-.5s-.1-.1 0-.2h.9l.3-.8c-.2-.1-.1-.1 0 0z"/><path id="Path_2576" class="st2" d="M18253.6 22026.9l.3.8h.8c.1 0 .1.1.1.1v.1l-.6.5.2.8c0 .1 0 .1-.1.1h-.1l-.6-.5-.6.5h-.2v-.1l.2-.8-.6-.5s-.1-.1 0-.2h.9l.3-.8c-.2-.1-.1-.1 0 0z"/><path id="Path_2577" class="st2" d="M18253.6 22030.9l.3.8h.8c.1 0 .1.1.1.1v.1l-.6.5.2.8c0 .1 0 .1-.1.1h-.1l-.6-.5-.6.5h-.2v-.1l.2-.8-.6-.5s-.1-.1 0-.2h.9l.3-.8c-.2-.1-.1-.1 0 0z"/><path id="Path_2578" class="st2" d="M18256.7 22017.1l.3.8h.8c.1 0 .1.1.1.1v.1l-.6.5.2.8c0 .1 0 .1-.1.1h-.1l-.6-.5-.6.5h-.2v-.1l.2-.8-.6-.5s-.1-.1 0-.2h.9l.3-.8c-.2-.1-.1-.1 0 0z"/><path id="Path_2579" class="st2" d="M18256.7 22021l.3.8h.8c.1 0 .1.1.1.1v.1l-.6.5.2.8c0 .1 0 .1-.1.1h-.1l-.6-.5-.6.5h-.2v-.1l.2-.8-.6-.5s-.1-.1 0-.2h.9l.3-.8c-.2-.1-.1-.1 0 0z"/><path id="Path_2580" class="st2" d="M18256.7 22025l.3.8h.8c.1 0 .1.1.1.1v.1l-.6.5.2.8c0 .1 0 .1-.1.1h-.1l-.6-.5-.6.5h-.2v-.1l.2-.8-.6-.5s-.1-.1 0-.2h.9l.3-.8c-.2-.1-.1-.1 0 0z"/><path id="Path_2581" class="st2" d="M18256.7 22029l.3.8h.8c.1 0 .1.1.1.1v.1l-.6.5.2.8c0 .1 0 .1-.1.1h-.1l-.6-.5-.6.5h-.2v-.1l.2-.8-.6-.5s-.1-.1 0-.2h.9l.3-.8c-.2-.1-.1-.1 0 0z"/><path id="Path_2582" class="st2" d="M18256.7 22032.9l.3.8h.8c.1 0 .1 0 .1.1v.1l-.6.5.2.8c0 .1 0 .1-.1.1h-.1l-.6-.5-.6.5h-.2v-.1l.2-.8-.6-.5s-.1-.1 0-.2h.9l.3-.8c-.2-.1-.1-.1 0 0z"/><path id="Path_2583" class="st2" d="M18259.7 22019l.3.8h.8c.1 0 .1.1.1.1v.1l-.6.5.2.8c0 .1 0 .1-.1.1h-.1l-.6-.5-.6.5h-.2v-.1l.2-.8-.6-.5s-.1-.1 0-.2h.9l.3-.8c-.1-.1 0-.1 0 0z"/><path id="Path_2584" class="st2" d="M18259.7 22023l.3.8h.8c.1 0 .1.1.1.1v.1l-.6.5.2.8c0 .1 0 .1-.1.1h-.1l-.6-.5-.6.5h-.2v-.1l.2-.8-.6-.5s-.1-.1 0-.2h.9l.3-.8c-.1-.1 0-.1 0 0z"/><path id="Path_2585" class="st2" d="M18259.7 22026.9l.3.8h.8c.1 0 .1.1.1.1v.1l-.6.5.2.8c0 .1 0 .1-.1.1h-.1l-.6-.5-.6.5h-.2v-.1l.2-.8-.6-.5s-.1-.1 0-.2h.9l.3-.8c-.1-.1 0-.1 0 0z"/><path id="Path_2586" class="st2" d="M18259.7 22030.9l.3.8h.8c.1 0 .1.1.1.1v.1l-.6.5.2.8c0 .1 0 .1-.1.1h-.1l-.6-.5-.6.5h-.2v-.1l.2-.8-.6-.5s-.1-.1 0-.2h.9l.3-.8c-.1-.1 0-.1 0 0z"/><path id="Path_2587" class="st2" d="M18262.8 22017.1l.3.8h.8c.1 0 .1.1.1.1v.1l-.6.5.2.8c0 .1 0 .1-.1.1h-.1l-.6-.5-.6.5h-.2v-.1l.2-.8-.6-.5s-.1-.1 0-.2h.9l.3-.8c-.2-.1-.1-.1 0 0 0-.1 0-.1 0 0z"/><path id="Path_2588" class="st2" d="M18262.8 22021l.3.8h.8c.1 0 .1.1.1.1v.1l-.6.5.2.8c0 .1 0 .1-.1.1h-.1l-.6-.5-.6.5h-.2v-.1l.2-.8-.6-.5s-.1-.1 0-.2h.9l.3-.8c-.2-.1 0-.1 0 0z"/><path id="Path_2589" class="st2" d="M18262.8 22025l.3.8h.8c.1 0 .1.1.1.1v.1l-.6.5.2.8c0 .1 0 .1-.1.1h-.1l-.6-.5-.6.5h-.2v-.1l.2-.8-.6-.5s-.1-.1 0-.2h.9l.3-.8c-.2 0-.1-.1 0 0 0-.1 0 0 0 0z"/><path id="Path_2590" class="st2" d="M18262.8 22029l.3.8h.8c.1 0 .1.1.1.1v.1l-.6.5.2.8c0 .1 0 .1-.1.1h-.1l-.6-.5-.6.5h-.2v-.1l.2-.8-.6-.5s-.1-.1 0-.2h.9l.3-.8c-.2-.1 0-.1 0 0z"/><path id="Path_2591" class="st2" d="M18262.8 22032.9l.3.8h.8c.1 0 .1 0 .1.1v.1l-.6.5.2.8c0 .1 0 .1-.1.1h-.1l-.6-.5-.6.5h-.2v-.1l.2-.8-.6-.5s-.1-.1 0-.2h.9l.3-.8c-.2 0-.1-.1 0 0z"/><path id="Path_2592" class="st2" d="M18265.9 22019l.3.8h.8c.1 0 .1.1.1.1v.1l-.6.5.2.8c0 .1 0 .1-.1.1h-.1l-.6-.5-.6.5h-.2v-.1l.2-.8-.6-.5s-.1-.1 0-.2h.9l.3-.8c-.2 0-.1-.1 0 0-.1 0 0 0 0 0z"/><path id="Path_2593" class="st2" d="M18265.9 22023l.3.8h.8c.1 0 .1.1.1.1v.1l-.6.5.2.8c0 .1 0 .1-.1.1h-.1l-.6-.5-.6.5h-.2v-.1l.2-.8-.6-.5s-.1-.1 0-.2h.9l.3-.8c-.2-.1-.1-.1 0 0z"/><path id="Path_2594" class="st2" d="M18265.9 22026.9l.3.8h.8c.1 0 .1.1.1.1v.1l-.6.5.2.8c0 .1 0 .1-.1.1h-.1l-.6-.5-.6.5h-.2v-.1l.2-.8-.6-.5s-.1-.1 0-.2h.9l.3-.8c-.2 0-.1 0 0 0-.1 0 0 0 0 0z"/><path id="Path_2595" class="st2" d="M18265.9 22030.9l.3.8h.8c.1 0 .1.1.1.1v.1l-.6.5.2.8c0 .1 0 .1-.1.1h-.1l-.6-.5-.6.5h-.2v-.1l.2-.8-.6-.5s-.1-.1 0-.2h.9l.3-.8c-.2 0-.1-.1 0 0-.1-.1 0 0 0 0z"/><path id="Path_2596" class="st2" d="M18268.9 22017.1l.3.8h.8c.1 0 .1.1.1.1v.1l-.6.5.2.8c0 .1 0 .1-.1.1h-.1l-.6-.5-.6.5h-.2v-.1l.2-.8-.6-.5s-.1-.1 0-.2h.9l.3-.8c-.1-.1-.1-.1 0 0 0-.1 0-.1 0 0z"/><path id="Path_2597" class="st2" d="M18268.9 22021l.3.8h.8c.1 0 .1.1.1.1v.1l-.6.5.2.8c0 .1 0 .1-.1.1h-.1l-.6-.5-.6.5h-.2v-.1l.2-.8-.6-.5s-.1-.1 0-.2h.9l.3-.8c-.1-.1 0-.1 0 0z"/><path id="Path_2598" class="st2" d="M18268.9 22025l.3.8h.8c.1 0 .1.1.1.1v.1l-.6.5.2.8c0 .1 0 .1-.1.1h-.1l-.6-.5-.6.5h-.2v-.1l.2-.8-.6-.5s-.1-.1 0-.2h.9l.3-.8c-.1 0-.1-.1 0 0 0-.1 0 0 0 0z"/><path id="Path_2599" class="st2" d="M18268.9 22029l.3.8h.8c.1 0 .1 0 .1.1v.1l-.6.5.2.8c0 .1 0 .1-.1.1h-.1l-.6-.5-.6.5h-.2v-.1l.2-.8-.6-.5s-.1-.1 0-.2h.9l.3-.8c-.1-.1 0-.1 0 0z"/><path id="Path_2600" class="st2" d="M18268.9 22032.9l.3.8h.8c.1 0 .1 0 .1.1v.1l-.6.5.2.8c0 .1 0 .1-.1.1h-.1l-.6-.5-.6.5h-.2v-.1l.2-.8-.6-.5s-.1-.1 0-.2h.9l.3-.8c-.1 0-.1-.1 0 0z"/></g></g></g></g></svg>