<svg xmlns="http://www.w3.org/2000/svg" viewBox="-18630 -21342 69.424 72"><defs><style>.a{fill:#fff;}.b{fill:#dedede;}.c{fill:#eddcc7;}.d{fill:#2a3052;}.e{fill:#e98024;}.f{fill:#d6c4b1;}.g{fill:#212641;}.h{fill:#de7921;}.i{fill:#5e5e5e;}</style></defs><g transform="translate(-18630 -21342)"><path class="a" d="M55.2,17.172,38.024,0H0V71.141H55.2Z"/><g transform="translate(11.039 15.945)"><path class="b" d="M10.227,23.453H40.891a1.227,1.227,0,1,0,0-2.453H10.227a1.227,1.227,0,0,0,0,2.453Z" transform="translate(-9 -11.187)"/><path class="b" d="M10.227,15.453H22.492a1.227,1.227,0,0,0,0-2.453H10.227a1.227,1.227,0,0,0,0,2.453Z" transform="translate(-9 -13)"/><path class="b" d="M40.891,29H10.227a1.227,1.227,0,1,0,0,2.453H40.891a1.227,1.227,0,1,0,0-2.453Z" transform="translate(-9 -9.375)"/><path class="b" d="M40.891,37H10.227a1.227,1.227,0,1,0,0,2.453H40.891a1.227,1.227,0,1,0,0-2.453Z" transform="translate(-9 -7.562)"/><path class="b" d="M40.891,45H10.227a1.227,1.227,0,1,0,0,2.453H40.891a1.227,1.227,0,1,0,0-2.453Z" transform="translate(-9 -5.75)"/></g><path class="b" d="M31,0V17.172H48.172Z" transform="translate(7.024)"/><g transform="translate(38.392 40.968)"><path class="c" d="M35.553,49.2h0L33.1,58.154l5.765-5.642Z" transform="translate(-30.892 -29.82)"/><path class="d" d="M56.145,35.73,54.55,34.136a2.371,2.371,0,0,0-3.434,0L46.7,38.552l3.312,3.312Z" transform="translate(-27.811 -33.4)"/><rect class="e" width="20.116" height="4.538" transform="translate(4.69 19.476) rotate(-45)"/><path class="f" d="M42.567,55.58h0l-3.68-3.68-5.765,5.642L33,58.156Z" transform="translate(-30.915 -29.208)"/><path class="g" d="M53.08,45.113,57.5,40.7a2.371,2.371,0,0,0,0-3.434L55.533,35.3,49.4,41.433Z" transform="translate(-27.199 -32.97)"/><rect class="h" width="20.116" height="5.274" transform="translate(7.935 22.598) rotate(-45)"/><path class="i" d="M32.527,59.652a1.114,1.114,0,0,1-.859-.368,1.186,1.186,0,0,1,0-1.717l2.7-2.7a1.214,1.214,0,1,1,1.717,1.717l-2.7,2.7A1.325,1.325,0,0,1,32.527,59.652Z" transform="translate(-31.3 -28.619)"/></g></g></svg>