<svg xmlns="http://www.w3.org/2000/svg" viewBox="-18120 -20936 72 72"><defs><style>.a{fill:#2a3052;}.b{fill:#212641;}.c{fill:#fff;}.d{fill:#e9eff4;}.e{fill:#e98024;}.f{fill:#d87723;}</style></defs><g transform="translate(-18120 -20936)"><circle class="a" cx="36" cy="36" r="36"/><path class="b" d="M174.833,137.539a36.082,36.082,0,0,0,25.256-27.309L179.8,89.938l-7.5-3.192-2.573,2.573-7.5-7.5L155.216,77.9,149.9,83.427l6.6,6.6-.928,28.238Z" transform="translate(-128.82 -66.945)"/><path class="c" d="M285.124,128.749l-5.428-5.372a1.091,1.091,0,0,0-1.547.014l-5.372,5.428a1.094,1.094,0,0,0,1.561,1.533l3.5-3.544v20a1.1,1.1,0,0,0,2.194,0V126.766l3.558,3.53a1.089,1.089,0,1,0,1.533-1.547Z" transform="translate(-234.147 -105.757)"/><path class="d" d="M324.516,128.774l-5.428-5.372a1.059,1.059,0,0,0-.788-.309v24.82h.014a1.1,1.1,0,0,0,1.1-1.1V126.791l3.558,3.53a1.094,1.094,0,0,0,1.547-1.547Z" transform="translate(-273.539 -105.782)"/><path class="c" d="M160.21,71.049,154.8,65.677a1.091,1.091,0,0,0-1.547.014l-5.372,5.428a1.094,1.094,0,0,0,1.561,1.533l3.5-3.544v28.1a1.1,1.1,0,0,0,2.194,0V69.066l3.558,3.53a1.084,1.084,0,1,0,1.519-1.547Z" transform="translate(-126.811 -56.171)"/><path class="d" d="M199.945,71.081l-5.414-5.372a1.11,1.11,0,0,0-.731-.309V98.32a1.1,1.1,0,0,0,1.055-1.083V69.1l3.558,3.53a1.091,1.091,0,0,0,1.547-.014A1.074,1.074,0,0,0,199.945,71.081Z" transform="translate(-166.547 -56.203)"/><path class="e" d="M12.516,0A12.516,12.516,0,1,1,0,12.516,12.516,12.516,0,0,1,12.516,0Z" transform="translate(23.484 30.389)"/><path class="f" d="M255.914,216.1H255.9v25.031h.014a12.516,12.516,0,0,0,0-25.031Z" transform="translate(-219.914 -185.711)"/><path class="c" d="M228.292,247.567a.972.972,0,0,0,.97-.97v-.661c0-2.011-1.9-3.642-4.261-3.713v-.253a.97.97,0,1,0-1.941,0v.253c-2.363.07-4.261,1.7-4.261,3.713v1.322c0,2.011,1.9,3.642,4.261,3.712v4.88c-1.266-.056-2.32-.844-2.32-1.772v-.661a.97.97,0,1,0-1.941,0v.661c0,2.011,1.9,3.642,4.261,3.713v.253a.97.97,0,1,0,1.941,0v-.253c2.363-.07,4.261-1.7,4.261-3.713v-1.322c0-2.011-1.9-3.642-4.261-3.713v-4.88c1.266.056,2.32.844,2.32,1.772v.661A.972.972,0,0,0,228.292,247.567Zm-7.552-.309v-1.322c0-.928,1.055-1.716,2.32-1.772v4.866C221.781,248.973,220.741,248.186,220.741,247.258Zm6.581,5.5v1.322c0,.928-1.055,1.716-2.32,1.772v-4.866C226.267,251.041,227.322,251.828,227.322,252.756Z" transform="translate(-188.031 -207.109)"/><path class="c" d="M260.175,247.567a.972.972,0,0,0,.97-.97v-.661c0-2.011-1.9-3.642-4.261-3.713v-.253a.972.972,0,0,0-.97-.97H255.9v18h.014a.972.972,0,0,0,.97-.97v-.253c2.363-.07,4.261-1.7,4.261-3.712v-1.322c0-2.011-1.9-3.642-4.261-3.712v-4.88c1.266.056,2.32.844,2.32,1.772v.661A.975.975,0,0,0,260.175,247.567Zm-.97,5.189v1.322c0,.928-1.055,1.716-2.32,1.772v-4.866C258.15,251.041,259.2,251.828,259.2,252.756Z" transform="translate(-219.914 -207.109)"/></g></svg>