<svg xmlns="http://www.w3.org/2000/svg" viewBox="-18635 -20943 74.193 72"><defs><style>.a{fill:#e98024;}.b{fill:#2a3052;}</style></defs><g transform="translate(-18635 -20942.988)"><g transform="translate(0 -0.012)"><path class="a" d="M21.915,346.757a1.064,1.064,0,0,0-1.448-.381l-2.652,1.539v-3.063a1.052,1.052,0,1,0-2.1,0v3.063l-2.652-1.539a1.059,1.059,0,1,0-1.067,1.829l2.667,1.555-2.667,1.555a1.059,1.059,0,1,0,1.067,1.829l2.652-1.539v3.063a1.052,1.052,0,0,0,2.1,0V351.6l2.652,1.539a1.059,1.059,0,1,0,1.067-1.829l-2.667-1.555,2.667-1.555A1.054,1.054,0,0,0,21.915,346.757Z" transform="translate(-9.722 -291.4)"/><path class="a" d="M143.112,352.662a1.064,1.064,0,0,0,1.448.381l2.652-1.539v3.063a1.052,1.052,0,1,0,2.1,0V351.5l2.652,1.539a1.059,1.059,0,1,0,1.067-1.829l-2.667-1.555,2.667-1.555a1.059,1.059,0,1,0-1.067-1.829l-2.652,1.539v-3.063a1.052,1.052,0,0,0-2.1,0v3.063l-2.652-1.524a1.059,1.059,0,1,0-1.067,1.829l2.667,1.555-2.667,1.539A1.064,1.064,0,0,0,143.112,352.662Z" transform="translate(-121.18 -291.315)"/><path class="b" d="M131.5,450.408v1.859a.813.813,0,0,0,.808.808H144.79a.813.813,0,0,0,.808-.808v-1.859a.813.813,0,0,0-.808-.808H132.308A.8.8,0,0,0,131.5,450.408Z" transform="translate(-111.458 -381.075)"/><path class="b" d="M166.667,17.349h-.091V13.2A13.156,13.156,0,0,0,153.484-.01a12.908,12.908,0,0,0-12.665,12.879v.4a1.086,1.086,0,0,0,1.082,1.082h3.46a1.086,1.086,0,0,0,1.082-1.082v-.122a7.433,7.433,0,0,1,6.782-7.514,7.253,7.253,0,0,1,7.712,7.224v4.481H150.268v.015h-9.861a3.4,3.4,0,0,0-3.307,3.383V39.479a3.4,3.4,0,0,0,3.4,3.4h26.153a3.4,3.4,0,0,0,3.4-3.4V20.748A3.379,3.379,0,0,0,166.667,17.349ZM155.6,30.96a.732.732,0,0,0-.335.686c.015,1.372.015,2.743,0,4.13h0a1.446,1.446,0,0,1-.777,1.387,1.611,1.611,0,0,1-2.408-1.387V31.63a.719.719,0,0,0-.3-.655,3.132,3.132,0,0,1-1.036-3.871,3.2,3.2,0,0,1,6.127,1.265A2.9,2.9,0,0,1,155.6,30.96Z" transform="translate(-116.205 0.012)"/><path class="b" d="M262.9,450.408v1.859a.813.813,0,0,0,.808.808H276.19a.813.813,0,0,0,.808-.808v-1.859a.813.813,0,0,0-.808-.808H263.708A.813.813,0,0,0,262.9,450.408Z" transform="translate(-222.832 -381.075)"/><path class="a" d="M274.512,352.662a1.064,1.064,0,0,0,1.448.381l2.652-1.539v3.063a1.052,1.052,0,1,0,2.1,0V351.5l2.652,1.539a1.059,1.059,0,0,0,1.067-1.829l-2.667-1.555,2.667-1.555a1.059,1.059,0,0,0-1.067-1.829l-2.652,1.539v-3.063a1.052,1.052,0,1,0-2.1,0v3.063l-2.652-1.539a1.059,1.059,0,0,0-1.067,1.829l2.667,1.555-2.667,1.555A1.064,1.064,0,0,0,274.512,352.662Z" transform="translate(-232.554 -291.315)"/><path class="b" d="M407.59,449.6H395.108a.813.813,0,0,0-.808.808v1.859a.813.813,0,0,0,.808.808H407.59a.813.813,0,0,0,.808-.808v-1.859A.813.813,0,0,0,407.59,449.6Z" transform="translate(-334.205 -381.075)"/><path class="b" d="M.808,453.075H13.29a.813.813,0,0,0,.808-.808v-1.859a.813.813,0,0,0-.808-.808H.808a.813.813,0,0,0-.808.808v1.859A.813.813,0,0,0,.808,453.075Z" transform="translate(0 -381.075)"/><path class="a" d="M405.974,352.662a1.064,1.064,0,0,0,1.448.381l2.652-1.539v3.063a1.052,1.052,0,1,0,2.1,0V351.5l2.652,1.539a1.059,1.059,0,0,0,1.067-1.829l-2.667-1.555L415.9,348.1a1.059,1.059,0,0,0-1.067-1.829l-2.652,1.539v-3.063a1.052,1.052,0,0,0-2.1,0v3.063l-2.652-1.539a1.059,1.059,0,0,0-1.067,1.829l2.667,1.555-2.667,1.555A1.051,1.051,0,0,0,405.974,352.662Z" transform="translate(-343.974 -291.315)"/></g></g></svg>