<?xml version="1.0" encoding="UTF-8"?>
<svg width="32px" height="32px" viewBox="0 0 32 32" version="1.1" xmlns="http://www.w3.org/2000/svg" xmlns:xlink="http://www.w3.org/1999/xlink">
    <!-- Generator: Sketch 49.2 (51160) - http://www.bohemiancoding.com/sketch -->
    <title>icons/server status/ic-close</title>
    <desc>Created with Sketch.</desc>
    <defs></defs>
    <g id="icons/server-status/ic-close" stroke="none" stroke-width="1" fill="none" fill-rule="evenodd">
        <path d="M16,14.5857864 L12.7071068,11.2928932 C12.3165825,10.9023689 11.6834175,10.9023689 11.2928932,11.2928932 C10.9023689,11.6834175 10.9023689,12.3165825 11.2928932,12.7071068 L14.5857864,16 L11.2928932,19.2928932 C10.9023689,19.6834175 10.9023689,20.3165825 11.2928932,20.7071068 C11.6834175,21.0976311 12.3165825,21.0976311 12.7071068,20.7071068 L16,17.4142136 L19.2928932,20.7071068 C19.6834175,21.0976311 20.3165825,21.0976311 20.7071068,20.7071068 C21.0976311,20.3165825 21.0976311,19.6834175 20.7071068,19.2928932 L17.4142136,16 L20.7071068,12.7071068 C21.0976311,12.3165825 21.0976311,11.6834175 20.7071068,11.2928932 C20.3165825,10.9023689 19.6834175,10.9023689 19.2928932,11.2928932 L16,14.5857864 Z M16,26 C10.4771525,26 6,21.5228475 6,16 C6,10.4771525 10.4771525,6 16,6 C21.5228475,6 26,10.4771525 26,16 C26,21.5228475 21.5228475,26 16,26 Z" id="ic-close" fill="#FFFFFF"></path>
    </g>
</svg>