<?xml version="1.0" encoding="UTF-8"?>
<svg width="32px" height="32px" viewBox="0 0 32 32" version="1.1" xmlns="http://www.w3.org/2000/svg" xmlns:xlink="http://www.w3.org/1999/xlink">
    <!-- Generator: Sketch 49.2 (51160) - http://www.bohemiancoding.com/sketch -->
    <title>icons/server status/ic-success</title>
    <desc>Created with Sketch.</desc>
    <defs></defs>
    <g id="icons/server-status/ic-success" stroke="none" stroke-width="1" fill="none" fill-rule="evenodd">
        <path d="M16,24 C20.418278,24 24,20.418278 24,16 C24,11.581722 20.418278,8 16,8 C11.581722,8 8,11.581722 8,16 C8,20.418278 11.581722,24 16,24 Z M16,26 C10.4771525,26 6,21.5228475 6,16 C6,10.4771525 10.4771525,6 16,6 C21.5228475,6 26,10.4771525 26,16 C26,21.5228475 21.5228475,26 16,26 Z" id="round" fill="#FFFFFF" fill-rule="nonzero"></path>
        <path d="M19.7928932,12.7928932 C20.1834175,12.4023689 20.8165825,12.4023689 21.2071068,12.7928932 C21.5976311,13.1834175 21.5976311,13.8165825 21.2071068,14.2071068 L15.2071068,20.2071068 C14.8165825,20.5976311 14.1834175,20.5976311 13.7928932,20.2071068 L10.7928932,17.2071068 C10.4023689,16.8165825 10.4023689,16.1834175 10.7928932,15.7928932 C11.1834175,15.4023689 11.8165825,15.4023689 12.2071068,15.7928932 L14.5,18.0857864 L19.7928932,12.7928932 Z" id="check" fill="#FFFFFF" fill-rule="nonzero"></path>
    </g>
</svg>