<svg id="Layer_1" data-name="Layer 1" xmlns="http://www.w3.org/2000/svg" viewBox="0 0 140 140"><defs><style>.cls-1{fill:#f2f2f2}.cls-2{fill:#c2c2c2}.cls-3{fill:#293252}.cls-4,.cls-5,.cls-6{fill:none;stroke-miterlimit:10;stroke-width:2px}.cls-4{stroke:#293052}.cls-5{stroke:#293252}.cls-6{stroke:#e88024}</style></defs><title>Artboard 1</title><path class="cls-1" d="M1 1h138v138H1z"/><path class="cls-2" d="M138 2v136H2V2h136m2-2H0v140h140V0z"/><path class="cls-3" d="M81 45.83v-2.45a3.87 3.87 0 0 0-2.36-3.45 9.29 9.29 0 0 0-2-.51c-2.36-.42-3.58-1-4.11-1.52a1.51 1.51 0 0 1-.53-1.18v-.35a2.47 2.47 0 0 1 .54-1.1 6 6 0 0 0 1.85-4.14 4.06 4.06 0 1 0-8.1 0 5.46 5.46 0 0 0 1.86 4.14 11.33 11.33 0 0 1 .85 1.1v.52a1.5 1.5 0 0 1-.52 1.18c-.53.51-1.75 1.1-4.11 1.52a8.6 8.6 0 0 0-2 .5A3.66 3.66 0 0 0 60 43.55V46h21zM107 46v-2.26a4 4 0 0 0-2.36-3.58 9.2 9.2 0 0 0-2-.53c-2.36-.43-3.58-1-4.11-1.57a1.58 1.58 0 0 1-.53-1.22v-.39s-.11-.84.23-1.1a6 6 0 0 0 1.85-4.13 4.06 4.06 0 1 0-8.1 0 5.45 5.45 0 0 0 1.86 4.13c.34.34 1.16 1.1 1.16 1.1v.47a1.6 1.6 0 0 1-.52 1.23c-.53.52-1.75 1.13-4.11 1.57a8.48 8.48 0 0 0-2 .52A3.79 3.79 0 0 0 86 43.83v2.32c0-.08 20.76-.08 20.76-.08M55 46v-2.3a4 4 0 0 0-2.36-3.58 9.2 9.2 0 0 0-2-.53c-2.36-.44-3.58-1.05-4.11-1.57A1.58 1.58 0 0 1 46 36.8v-.39a6.74 6.74 0 0 1 .93-1.1 6 6 0 0 0 1.86-4.13 4.06 4.06 0 1 0-8.11 0 5.45 5.45 0 0 0 1.86 4.13 2.43 2.43 0 0 1 .46 1.1v.39a1.52 1.52 0 0 1-.51 1.2c-.52.51-1.72 1.1-4 1.52a8.27 8.27 0 0 0-2 .51A3.88 3.88 0 0 0 34 43.55V46h21c.08 0 .08-.17.08-.17"/><path class="cls-4" d="M35 53h19v24H35zM40 67h9M40 71h9"/><path class="cls-5" d="M87 53h19v24H87z"/><path class="cls-4" d="M92 67h9M92 71h9"/><path class="cls-5" d="M61 53h19v24H61z"/><path class="cls-4" d="M66 67h9M66 71h9M35 86h19v24H35zM40 100h9M40 104h9"/><path class="cls-5" d="M87 86h19v24H87z"/><path class="cls-4" d="M92 100h9M92 104h9"/><path class="cls-5" d="M61 86h19v24H61z"/><path class="cls-4" d="M66 100h9M66 104h9"/><path class="cls-6" d="M31 45H21v41h10M110 45h9v41h-9"/></svg>