<svg width="16" height="16" viewBox="0 0 16 16" xmlns="http://www.w3.org/2000/svg"><title>icons/system/google/trade/ic_monetization_light</title><path d="M8 0C3.584 0 0 3.584 0 8s3.584 8 8 8 8-3.584 8-8-3.584-8-8-8zm1.128 12.872V14.4H6.992v-1.544c-1.368-.288-2.528-1.168-2.616-2.72h1.568c.08.84.656 1.496 2.12 1.496 1.568 0 1.92-.784 1.92-1.272 0-.664-.352-1.288-2.136-1.712-1.984-.48-3.344-1.296-3.344-2.936 0-1.376 1.112-2.272 2.488-2.568V1.6h2.136v1.56c1.488.36 2.232 1.488 2.28 2.712H9.84c-.04-.888-.512-1.496-1.776-1.496-1.2 0-1.92.544-1.92 1.312 0 .672.52 1.112 2.136 1.528 1.616.416 3.344 1.112 3.344 3.128-.008 1.464-1.104 2.264-2.496 2.528z" fill-rule="nonzero" fill="#2196F3"/></svg>