<?xml version="1.0" encoding="UTF-8"?>
<svg width="16px" height="16px" viewBox="0 0 16 16" version="1.1" xmlns="http://www.w3.org/2000/svg" xmlns:xlink="http://www.w3.org/1999/xlink">
    <!-- Generator: Sketch 49.3 (51167) - http://www.bohemiancoding.com/sketch -->
    <title>icons/trade types/light/stays between-goes outside/ic-light-goes-outside</title>
    <desc>Created with Sketch.</desc>
    <defs></defs>
    <g id="icons/trade-types/light/stays-between-goes-outside/ic-light-goes-outside" stroke="none" stroke-width="1" fill="none" fill-rule="evenodd">
        <g id="binary/icons/Goes-Out/Goes-Out-Off">
            <rect id="Rectangle-9" x="0" y="0" width="16" height="16"></rect>
            <rect id="Rectangle-Copy" fill="#2A3052" transform="translate(8.000000, 12.000000) scale(-1, -1) translate(-8.000000, -12.000000) " x="0" y="11.5" width="16" height="1" rx="0.5"></rect>
            <rect id="Rectangle-Copy-2" fill="#2A3052" transform="translate(8.000000, 5.000000) scale(-1, -1) translate(-8.000000, -5.000000) " x="0" y="4.5" width="16" height="1" rx="0.5"></rect>
            <path d="M11.73202,3.38957738 C11.5367579,3.58483953 11.5367579,3.90142202 11.73202,4.09668416 C11.9272822,4.29194631 12.2438646,4.29194631 12.4391268,4.09668416 L13.9391268,2.59668416 C14.1343889,2.40142202 14.1343889,2.08483953 13.9391268,1.88957738 L12.4391268,0.389577383 C12.2438646,0.194315237 11.9272822,0.194315237 11.73202,0.389577383 C11.5367579,0.584839529 11.5367579,0.901422018 11.73202,1.09668416 L12.8784666,2.24313077 L11.73202,3.38957738 Z" id="Path-3" fill="#2A3052" fill-rule="nonzero" transform="translate(12.835573, 2.243131) rotate(-60.000000) translate(-12.835573, -2.243131) "></path>
            <path d="M4.87628835,6.1707477 C4.67121799,5.93638157 4.30410704,5.94447567 4.1095656,6.18765248 L2.25968758,8.5 L0.5,8.5 C0.223857625,8.5 0,8.72385763 0,9 C0,9.27614237 0.223857625,9.5 0.5,9.5 L2.5,9.5 C2.65189186,9.5 2.79554831,9.43095514 2.8904344,9.31234752 L4.51717378,7.27892331 L7.62371165,10.8292523 C7.84823648,11.0858521 8.25809268,11.0473966 8.43096711,10.7535101 L13.4309671,2.25351006 C13.5709768,2.0154935 13.4915266,1.70904263 13.2535101,1.56903289 C13.0154935,1.42902315 12.7090426,1.50847338 12.5690329,1.74648994 L7.9202007,9.64950467 L4.87628835,6.1707477 Z" id="Path-15" fill="#2A3052" fill-rule="nonzero"></path>
        </g>
    </g>
</svg>