<?xml version="1.0" encoding="UTF-8"?>
<svg width="16px" height="16px" viewBox="0 0 16 16" version="1.1" xmlns="http://www.w3.org/2000/svg" xmlns:xlink="http://www.w3.org/1999/xlink">
    <!-- Generator: Sketch 49.3 (51167) - http://www.bohemiancoding.com/sketch -->
    <title>icons/trade types/light/over-under/ic-light-digit-over</title>
    <desc>Created with Sketch.</desc>
    <defs></defs>
    <g id="icons/trade-types/light/over-under/ic-light-digit-over" stroke="none" stroke-width="1" fill="none" fill-rule="evenodd">
        <g id="binary/icons/Digit-Over/Digit-Over-Off">
            <rect id="Rectangle-18" x="0" y="0" width="16" height="16"></rect>
            <rect id="Rectangle-Copy-2" fill="#2A3052" transform="translate(8.000000, 8.000000) scale(-1, -1) translate(-8.000000, -8.000000) " x="0" y="7.5" width="16" height="1" rx="0.5"></rect>
            <path d="M11.73202,5.38957738 C11.5367579,5.58483953 11.5367579,5.90142202 11.73202,6.09668416 C11.9272822,6.29194631 12.2438646,6.29194631 12.4391268,6.09668416 L13.9391268,4.59668416 C14.1343889,4.40142202 14.1343889,4.08483953 13.9391268,3.88957738 L12.4391268,2.38957738 C12.2438646,2.19431524 11.9272822,2.19431524 11.73202,2.38957738 C11.5367579,2.58483953 11.5367579,2.90142202 11.73202,3.09668416 L12.8784666,4.24313077 L11.73202,5.38957738 Z" id="Path-3" fill="#2A3052" fill-rule="nonzero" transform="translate(12.835573, 4.243131) rotate(-45.000000) translate(-12.835573, -4.243131) "></path>
            <path d="M0.5,11 C0.223857625,11 0,11.2238576 0,11.5 C0,11.7761424 0.223857625,12 0.5,12 L5.5,12 C5.63260824,12 5.7597852,11.9473216 5.85355339,11.8535534 L13.3535534,4.35355339 C13.5488155,4.15829124 13.5488155,3.84170876 13.3535534,3.64644661 C13.1582912,3.45118446 12.8417088,3.45118446 12.6464466,3.64644661 L5.29289322,11 L0.5,11 Z" id="Path-15" fill="#2A3052" fill-rule="nonzero"></path>
        </g>
    </g>
</svg>