<svg width="382" height="252" viewBox="0 0 382 252" xmlns="http://www.w3.org/2000/svg" xmlns:xlink="http://www.w3.org/1999/xlink" style="background:#fff"><title>high</title><defs><circle id="a" cx="47" cy="200" r="14"/><circle id="b" cx="285" cy="100" r="14"/></defs><g fill="none" fill-rule="evenodd"><g fill="#FFF" stroke="#EEEFF6" stroke-width="2"><path d="M1 51h47.5v25H1zM48.5 51H96v25H48.5zM96 51h47.5v25H96zM143.5 51H191v25h-47.5zM191 51h47.5v25H191zM238.5 51H286v25h-47.5zM286 51h47.5v25H286zM333.5 51H381v25h-47.5z"/><g><path d="M1 76h47.5v25H1zM48.5 76H96v25H48.5zM96 76h47.5v25H96zM143.5 76H191v25h-47.5zM191 76h47.5v25H191zM238.5 76H286v25h-47.5zM286 76h47.5v25H286zM333.5 76H381v25h-47.5z"/></g><g><path d="M1 101h47.5v25H1zM48.5 101H96v25H48.5zM96 101h47.5v25H96zM143.5 101H191v25h-47.5zM191 101h47.5v25H191zM238.5 101H286v25h-47.5zM286 101h47.5v25H286zM333.5 101H381v25h-47.5z"/></g><g><path d="M1 126h47.5v25H1zM48.5 126H96v25H48.5zM96 126h47.5v25H96zM143.5 126H191v25h-47.5zM191 126h47.5v25H191zM238.5 126H286v25h-47.5zM286 126h47.5v25H286zM333.5 126H381v25h-47.5z"/></g><g><path d="M1 151h47.5v25H1zM48.5 151H96v25H48.5zM96 151h47.5v25H96zM143.5 151H191v25h-47.5zM191 151h47.5v25H191zM238.5 151H286v25h-47.5zM286 151h47.5v25H286zM333.5 151H381v25h-47.5z"/></g><g><path d="M1 176h47.5v25H1zM48.5 176H96v25H48.5zM96 176h47.5v25H96zM143.5 176H191v25h-47.5zM191 176h47.5v25H191zM238.5 176H286v25h-47.5zM286 176h47.5v25H286zM333.5 176H381v25h-47.5z"/></g><g><path d="M1 201h47.5v25H1zM48.5 201H96v25H48.5zM96 201h47.5v25H96zM143.5 201H191v25h-47.5zM191 201h47.5v25H191zM238.5 201H286v25h-47.5zM286 201h47.5v25H286zM333.5 201H381v25h-47.5z"/></g><g><path d="M1 226h47.5v25H1zM48.5 226H96v25H48.5zM96 226h47.5v25H96zM143.5 226H191v25h-47.5zM191 226h47.5v25H191zM238.5 226H286v25h-47.5zM286 226h47.5v25H286zM333.5 226H381v25h-47.5z"/></g></g><path stroke="#EEEFF6" stroke-width="2" fill="#FFF" d="M1 1h380v50H1z"/><path d="M36.847 23.03a5.54 5.54 0 0 0-.277.636 13.504 13.504 0 0 1-2.708 5.259 13.582 13.582 0 0 1-6.597 3.987l-1.438-1.686a12.408 12.408 0 0 0 6.454-3.369 8.865 8.865 0 0 0 2.045-3.744h-9.373c-.652.001-1.303.026-1.953.074v-1.945c.72.075 1.418.13 1.953.13h9.436c.4.01.798-.046 1.18-.168l1.278.826zm-12.181-5.15c.581.062 1.166.093 1.751.094h7.186c.603 0 1.206-.031 1.806-.094v1.93a25.978 25.978 0 0 0-1.824-.056H26.42c-.571 0-1.229.02-1.751.057l-.003-1.93zm27.523 1.912l1.088.674a6.415 6.415 0 0 0-.516 1.14 19.92 19.92 0 0 1-2.612 5.371c.682.45 1.309.88 1.768 1.218l-1.309 1.702a28.215 28.215 0 0 0-1.732-1.31 17.237 17.237 0 0 1-7.04 4.847l-1.658-1.477a15.791 15.791 0 0 0 7.076-4.454 63.374 63.374 0 0 0-3.76-2.32l1.217-1.404a70.54 70.54 0 0 1 3.797 2.17 15.101 15.101 0 0 0 2.15-4.547H44.82a20.957 20.957 0 0 1-4.865 4.884l-1.567-1.236a16.718 16.718 0 0 0 5.897-6.363 7.575 7.575 0 0 0 .701-1.702l2.1.674c-.368.561-.756 1.292-.958 1.665l-.222.393h4.484c.468.015.935-.048 1.383-.187l.073.037a19.434 19.434 0 0 0-1.309-2.283l1.173-.504a27.151 27.151 0 0 1 1.492 2.564l-1.013.448zM53.792 16a22.164 22.164 0 0 1 1.536 2.545l-1.198.543c-.435-.9-.94-1.764-1.51-2.582L53.791 16zm2.497 7.646a33.7 33.7 0 0 0 2.727.112h10.007c.902 0 1.621-.075 2.064-.112v2.302c-.406-.02-1.23-.075-2.047-.075H59.016c-1.031 0-2.119.037-2.727.075v-2.302zm275.436 2.976h3.516v1.51h-3.516v5.201h-1.52v-5.202h-3.585v-1.51h3.584v-2.146h-3.15V22.98h3.144v-5.39h1.521v5.392h3.16v1.493h-3.154v2.146zm-3.55-4.213a16.167 16.167 0 0 0-1.15-3.485l1.285-.412a17.229 17.229 0 0 1 1.25 3.433l-1.386.464zm7.01-3.6a38.635 38.635 0 0 1-1.639 3.606l-1.23-.378c.552-1.17.999-2.389 1.336-3.64l1.534.412zm2.13 10.317h-1.521v-9.475h1.521v9.475zm4.09-11.191v13.39c0 .995-.236 1.459-.828 1.75a9.743 9.743 0 0 1-3.177.275 7.457 7.457 0 0 0-.558-1.63c1.15.051 2.214.034 2.552.034.338 0 .44-.12.44-.43v-13.39h1.571zm10.682 13.458c.79.107 1.586.16 2.383.156.727 0 3.567 0 4.53-.034a4.864 4.864 0 0 0-.592 1.614h-4.022c-3.313 0-5.748-.567-7.286-3.262a8.755 8.755 0 0 1-2.383 3.572 8.544 8.544 0 0 0-1.302-1.092c1.86-1.405 2.721-3.81 3.073-6.816l1.623.156c-.095.756-.23 1.507-.406 2.249a4.885 4.885 0 0 0 2.755 3.022v-6.672h-3.906v-1.528h9.517v1.528h-3.995v2.524h4.848v1.494h-4.834l-.003 3.09zm-6.3-7.998h-1.536v-3.95h6.188V17.61h1.673v1.836h6.255v3.948h-1.606v-2.437h-10.97l-.003 2.439z" fill="#231F20" fill-rule="nonzero"/><path d="M84.558 32H81.92v-5.484h-5.142V32h-2.636V19.203h2.636v5.186h5.142v-5.186h2.637V32zm5.106 0h-2.637V19.203h2.637V32zm12.568-1.617c-.474.568-1.145 1.01-2.012 1.323-.867.313-1.828.47-2.883.47-1.108 0-2.079-.242-2.914-.725-.835-.484-1.48-1.185-1.933-2.105-.454-.92-.687-2.001-.699-3.243v-.87c0-1.278.215-2.384.646-3.318.43-.935 1.052-1.65 1.863-2.145.812-.495 1.762-.743 2.852-.743 1.518 0 2.704.362 3.56 1.086.855.723 1.362 1.777 1.52 3.16h-2.566c-.117-.733-.376-1.27-.778-1.609-.401-.34-.953-.51-1.657-.51-.896 0-1.579.337-2.047 1.011-.47.674-.706 1.676-.712 3.006v.817c0 1.342.255 2.356.764 3.041.51.686 1.257 1.029 2.242 1.029.99 0 1.696-.211 2.118-.633v-2.206h-2.4v-1.943h5.036v5.107zM114.783 32h-2.637v-5.484h-5.141V32h-2.637V19.203h2.637v5.186h5.141v-5.186h2.637V32z" fill="#231F20"/><path fill="#2A3052" d="M285 52h2v198h-2z"/><path fill="#2A3052" d="M2 150h378v2H2z"/><path d="M21.672 221.207v12.018h-1.106v-2.793c-1.937.325-3.906.618-5.366.865l-.2-1.158c.43-.045.938-.106 1.49-.184v-8.748h-1.204v-1.062h7.463v1.063l-1.077-.001zm-1.106 0h-3.004v2.052h2.998l.006-2.052zm0 3.069h-3.004v2.146h2.998l.006-2.146zm-2.998 5.523c.938-.123 1.967-.277 2.998-.43v-1.898h-3.004l.006 2.328zm11.24-8.345a18.791 18.791 0 0 1-2.491 7.82 8.552 8.552 0 0 0 3.168 2.87 4.765 4.765 0 0 0-.816.94 9.637 9.637 0 0 1-3.06-2.792 11.013 11.013 0 0 1-3.137 2.746 4.428 4.428 0 0 0-.754-.926 9.38 9.38 0 0 0 3.231-2.854 21.564 21.564 0 0 1-2.29-6.59l1.092-.2c.338 1.99.975 3.915 1.89 5.712a16.957 16.957 0 0 0 1.908-5.77H22.36v-1.126h5.49l.215-.046.743.216zm8.829 5.138s-.015.368-.03.524c-.278 3.64-.54 5.076-1.092 5.601a1.479 1.479 0 0 1-1.215.493c-.81.033-1.62.023-2.43-.031a2.613 2.613 0 0 0-.4-1.174c1.016.093 2.03.107 2.415.107a.893.893 0 0 0 .677-.168c.369-.324.63-1.512.83-4.289h-4.044c-.062.263-.123.508-.17.74l-1.121-.186c.308-1.28.675-3.316.892-4.875h4.493v-2.437h-5.017v-1.081h6.135v4.599h-4.628c-.123.725-.246 1.48-.384 2.175l5.089.002zm5.258-7.256v13.918h-1.138v-13.918h1.138zm7.959 10.911h-3.306v1.25h-1.045v-11.309h4.35v10.06zm-3.306-9.022v3.426h2.229v-3.426h-2.23zm2.229 7.992v-3.564h-2.23v3.564h2.23zm8.318-4.212v1.744h1.783v1.017h-1.783v4.136c0 .648-.169.988-.63 1.158a8.8 8.8 0 0 1-2.491.185 3.536 3.536 0 0 0-.37-1.065c.954.032 1.8.032 2.045.017.246-.016.339-.079.339-.309v-4.12h-5.811v-1.017h5.812v-1.745H51.1v-1.017h3.858v-1.96H51.76v-1.018h3.198v-1.836h1.124v1.836h3.304v1.017h-3.304v1.96h3.966v1.018l-1.953-.001zm-5.058 3.303c.796.768 1.47 1.653 2 2.625l-.97.617a11.886 11.886 0 0 0-1.952-2.715l.922-.527zm10.078 3.28c.109-.236.161-.494.154-.754v-8.826c-.013-.47-.054-.938-.123-1.403h1.506a9.972 9.972 0 0 0-.107 1.403v8.749a16.58 16.58 0 0 0 8.41-5.262l.693 1.081a17.876 17.876 0 0 1-8.996 5.508 2.214 2.214 0 0 0-.646.278l-.89-.773zm12.557-6.185c.462.03 1.277.077 2.137.077h8.426c.77 0 1.322-.046 1.66-.077v1.511c-.307-.015-.953-.077-1.644-.077h-8.442c-.846 0-1.661.032-2.137.077v-1.511zm23.902 2.715a40.173 40.173 0 0 0-6.043-2.484l.015 5.095c0 .608.031 1.216.092 1.821h-1.475a16.92 16.92 0 0 0 .092-1.821v-8.979a9.741 9.741 0 0 0-.123-1.604h1.506c-.046.479-.107 1.141-.107 1.604v2.515a49.884 49.884 0 0 1 6.566 2.546l-.523 1.307zm-75.566-99.785l1.369.278c-.092.34-.215.788-.277 1.126a34.361 34.361 0 0 1-1.398 4.813 22.44 22.44 0 0 1-2.262 4.24l-1.308-.557a20.226 20.226 0 0 0 2.368-4.197 23.64 23.64 0 0 0 1.508-5.703zm3.829.246l1.246-.417a49.79 49.79 0 0 1 2.245 4.875 61.085 61.085 0 0 1 1.846 5.277l-1.368.447a46.314 46.314 0 0 0-1.737-5.305 39.623 39.623 0 0 0-2.232-4.876v-.001zm4.335.202l-.83.369a17.729 17.729 0 0 0-1.247-2.144l.816-.341c.468.675.89 1.382 1.261 2.116zm1.723-.633l-.83.37a14.622 14.622 0 0 0-1.277-2.13l.815-.34c.479.67.91 1.371 1.292 2.1zm3.976-1.048c-.031.292-.046.74-.046 1.111v5.153c0 .386.015.896.046 1.174h-1.414c.015-.232.061-.726.061-1.189v-5.14c0-.277-.03-.817-.061-1.11h1.414zm7.118-.108c-.03.37-.061.818-.061 1.326v2.5c0 3.704-.493 4.92-1.6 6.248a8.202 8.202 0 0 1-3.656 2.254l-1-1.065a7.07 7.07 0 0 0 3.693-2.052c1.106-1.28 1.29-2.53 1.29-5.444v-2.44c0-.507-.046-.955-.077-1.326l1.411-.001zm15.537 1.266c-.108.154-.308.384-.415.554a14.877 14.877 0 0 1-3.823 4.265l-1.016-.818a10.39 10.39 0 0 0 3.353-3.455H49.87c-.586.001-1.171.032-1.754.093v-1.39c.582.073 1.167.115 1.754.124h8.826a7.72 7.72 0 0 0 1.077-.093l.752.72zm-6.135 2.04c0 4.183-.37 7.006-4.29 8.967l-1.123-.927a5.956 5.956 0 0 0 1.37-.679c2.383-1.465 2.721-3.67 2.721-6.249a9.244 9.244 0 0 0-.061-1.111h1.383zm246.07-8.01c.739-.756 2.076-2.47 3.045-3.61.816-.973 1.445-1.081 2.552-.155a38.785 38.785 0 0 1 3.184 3.192c1.029 1.112 2.598 2.794 3.72 4.12l-.999 1.095c-1.077-1.39-2.475-2.978-3.46-4.103a41.33 41.33 0 0 0-2.998-3.13c-.647-.543-.862-.526-1.385.121-.738.895-2.03 2.594-2.722 3.441-.323.401-.661.878-.892 1.189l-1.123-1.143c.386-.338.679-.616 1.079-1.017zm10.057-6.064a1.871 1.871 0 0 1 1.859 1.879 1.87 1.87 0 0 1-1.868 1.87 1.87 1.87 0 0 1-1.867-1.87c0-.499.197-.977.549-1.33.352-.352.829-.549 1.326-.547l.001-.002zm0 3.007a1.125 1.125 0 0 0 1.108-1.137 1.125 1.125 0 0 0-1.129-1.116 1.125 1.125 0 0 0-.782 1.928c.214.212.502.33.802.327l.001-.002zm16.214-2.991a24.177 24.177 0 0 1-4.121 3.348v6.604c-.009.552.022 1.103.092 1.65h-1.506c.062-.547.093-1.098.092-1.65v-5.832a30.752 30.752 0 0 1-5.781 2.407l-.706-1.203a24.218 24.218 0 0 0 6.87-2.844 16.988 16.988 0 0 0 4.045-3.41l1.015.93zm14.645.696c-.108.154-.308.384-.415.554a14.876 14.876 0 0 1-3.83 4.26l-1.015-.819a10.39 10.39 0 0 0 3.352-3.455h-8.749c-.586.001-1.171.032-1.754.093v-1.39c.582.073 1.168.115 1.754.124h8.826a7.72 7.72 0 0 0 1.077-.093l.754.726zm-6.135 2.035c0 4.182-.37 7.005-4.29 8.966l-1.123-.927a5.956 5.956 0 0 0 1.37-.679c2.383-1.465 2.721-3.67 2.721-6.249a9.245 9.245 0 0 0-.062-1.111h1.384zm19.736-.971a9.908 9.908 0 0 0-.23.926 14.2 14.2 0 0 1-1.506 4.631 9.735 9.735 0 0 1-6.09 4.383l-1-1.158a8.233 8.233 0 0 0 1.6-.43 8.115 8.115 0 0 0 4.166-3.104 11.397 11.397 0 0 0 1.462-4.504h-8.595v2.755c-.005.305.016.61.061.911h-1.338c.03-.262.046-.68.046-.973v-2.717c.007-.396-.008-.793-.046-1.188.475.045.952.066 1.429.062h3.398v-1.436a8.81 8.81 0 0 0-.077-1.158h1.476a6.88 6.88 0 0 0-.092 1.158v1.436h3.444c.358.022.717-.02 1.06-.124l.832.53zm11.031 5.4a40.173 40.173 0 0 0-6.043-2.484l.016 5.094c0 .608.03 1.216.092 1.822h-1.479a16.92 16.92 0 0 0 .093-1.822v-8.988a9.741 9.741 0 0 0-.123-1.604h1.506c-.046.479-.108 1.141-.108 1.604v2.515a49.884 49.884 0 0 1 6.566 2.546l-.52 1.317z" fill="#231F20" fill-rule="nonzero"/><path d="M300.175 170.084c.739-.756 2.076-2.47 3.045-3.61.815-.973 1.445-1.081 2.552-.155a38.785 38.785 0 0 1 3.183 3.192c1.03 1.112 2.599 2.795 3.72 4.12l-.998 1.095c-1.077-1.39-2.475-2.978-3.46-4.103a41.329 41.329 0 0 0-2.999-3.13c-.646-.543-.861-.526-1.384.121-.739.895-2.03 2.594-2.722 3.441-.323.401-.661.879-.892 1.189l-1.123-1.143c.386-.338.678-.616 1.078-1.017zm10.057-6.064c1.03.005 1.86.845 1.859 1.878a1.87 1.87 0 0 1-1.866 1.87 1.87 1.87 0 0 1-1.87-1.866c0-.5.197-.979.549-1.332.352-.353.83-.55 1.328-.548v-.002zm0 3.007a1.125 1.125 0 0 0 1.108-1.137 1.125 1.125 0 0 0-1.13-1.116 1.125 1.125 0 0 0-.78 1.93c.213.21.502.328.802.325v-.002zm16.21-2.991a24.177 24.177 0 0 1-4.122 3.348v6.603c-.008.551.023 1.103.092 1.65h-1.506c.062-.548.093-1.099.092-1.65v-5.831a30.772 30.772 0 0 1-5.781 2.407l-.706-1.203a24.218 24.218 0 0 0 6.872-2.839 16.988 16.988 0 0 0 4.045-3.41l1.014.925zm14.649.688c-.108.155-.308.385-.416.554a14.876 14.876 0 0 1-3.829 4.26l-1.015-.819a10.39 10.39 0 0 0 3.352-3.454h-8.741c-.586 0-1.172.032-1.754.092v-1.39c.582.074 1.167.115 1.754.124h8.826a7.72 7.72 0 0 0 1.077-.092l.746.725zm-6.136 2.035c0 4.182-.369 7.005-4.289 8.966l-1.123-.926a5.956 5.956 0 0 0 1.37-.68c2.382-1.465 2.72-3.67 2.72-6.249a9.245 9.245 0 0 0-.06-1.111h1.382zm19.737-.963a9.908 9.908 0 0 0-.23.926 14.2 14.2 0 0 1-1.507 4.631 9.735 9.735 0 0 1-6.089 4.383l-1-1.158a8.233 8.233 0 0 0 1.6-.43 8.115 8.115 0 0 0 4.166-3.104 11.397 11.397 0 0 0 1.462-4.504h-8.596v2.761c-.004.305.017.61.062.911h-1.338c.03-.262.046-.679.046-.972v-2.716c.007-.397-.008-.793-.046-1.188.475.045.952.065 1.429.061h3.398v-1.435a8.81 8.81 0 0 0-.077-1.158h1.476a6.88 6.88 0 0 0-.093 1.158v1.435h3.445c.358.022.717-.02 1.06-.123l.832.522zm11.033 5.4a40.173 40.173 0 0 0-6.043-2.484l.015 5.094c0 .608.031 1.216.092 1.822h-1.475a16.92 16.92 0 0 0 .092-1.822v-8.978a9.741 9.741 0 0 0-.123-1.604h1.506c-.046.478-.107 1.14-.107 1.604v2.514a49.884 49.884 0 0 1 6.566 2.546l-.523 1.308zm-38.247 13.231c-.901.257-1.821.443-2.752.556a27.48 27.48 0 0 1-3.321 6.465l-1.2-.617a21.953 21.953 0 0 0 3.26-5.712c-.447.03-.893.046-1.339.046-.57 0-1.198-.017-1.768-.046l-.092-1.158c.623.078 1.25.114 1.877.108.539 0 1.106-.031 1.692-.077.253-.86.413-1.745.477-2.639l1.368.124c-.154.554-.352 1.48-.6 2.359a15.323 15.323 0 0 0 2.368-.554l.03 1.145zm1.785 1.774c-.036.55-.04 1.1-.015 1.65.015.556.077 1.56.107 2.484a10.261 10.261 0 0 1 3.153 1.913l-.662 1.05a10.562 10.562 0 0 0-2.444-1.743c.015.23.015.446.015.617 0 1.22-.8 2.222-2.675 2.222-1.676 0-3.045-.695-3.045-2.208 0-1.403 1.321-2.316 3.045-2.316.484-.002.968.045 1.444.14-.046-1.251-.123-2.747-.154-3.812l1.231.003zm-1.03 4.892a5.53 5.53 0 0 0-1.54-.218c-1.12 0-1.86.51-1.86 1.204 0 .695.57 1.19 1.753 1.19 1.246 0 1.662-.696 1.662-1.45 0-.2 0-.448-.016-.724v-.002zm4.06-4.477a18.243 18.243 0 0 0-3.476-2.098l.6-.957a23.116 23.116 0 0 1 3.568 2.036l-.693 1.02zm5.556-4.91a17.158 17.158 0 0 0-.154 1.526c-.061 1.73-.184 5.338-.184 7.623 0 1.683 1.077 2.27 2.49 2.27a6.359 6.359 0 0 0 5.474-3.164l.847 1.064a7.58 7.58 0 0 1-6.351 3.364c-2.183 0-3.693-.926-3.693-3.41 0-2.268.154-6.126.154-7.747a7.868 7.868 0 0 0-.138-1.544l1.555.017z" fill="#6D6E70" fill-rule="nonzero"/><path d="M328.077 82.356h-1.819v-4.681h-4.898v4.68h-1.826V71.382h1.826v4.824h4.898v-4.824h1.819v10.975zm4.117-10.154h-1.826v-1.605h1.826v1.605zm0 10.154h-1.826V74.2h1.826v8.156zm1.712-3.968a5.321 5.321 0 0 1 .85-3.143 2.73 2.73 0 0 1 2.358-1.198c.447-.011.888.095 1.281.309.38.22.7.529.934.9l.18-1.062h1.517v8.162c.055.915-.3 1.808-.97 2.434a4.01 4.01 0 0 1-2.748.854 5.312 5.312 0 0 1-1.282-.17 5.913 5.913 0 0 1-1.243-.448l.39-1.44c.317.161.651.283.996.364.367.09.744.134 1.122.133a2.083 2.083 0 0 0 1.449-.425c.333-.35.5-.826.462-1.309v-.836c-.241.314-.551.568-.907.742-.375.174-.784.26-1.197.252a2.805 2.805 0 0 1-2.343-1.093 4.548 4.548 0 0 1-.849-2.871v-.155zm1.826.154c-.03.631.125 1.257.446 1.799.31.455.837.712 1.385.675.346.012.688-.073.988-.246.276-.171.501-.414.65-.704V76.5a1.955 1.955 0 0 0-.656-.698 1.79 1.79 0 0 0-.967-.252 1.497 1.497 0 0 0-1.392.792 4.08 4.08 0 0 0-.461 2.05l.007.151zm9.022-3.286c.256-.37.595-.674.99-.89a2.65 2.65 0 0 1 1.287-.316 2.56 2.56 0 0 1 2.018.817 3.73 3.73 0 0 1 .725 2.522v4.967h-1.826v-4.982a2.07 2.07 0 0 0-.383-1.39 1.46 1.46 0 0 0-1.15-.429 2.033 2.033 0 0 0-.957.223c-.28.146-.52.358-.703.617v5.96h-1.826V70.598h1.826l-.001 4.659zm-21.472 150.613h5.026v1.47h-6.846v-10.975h1.826l-.006 9.505zm5.926-2.677a4.454 4.454 0 0 1 .992-2.986 3.786 3.786 0 0 1 5.47 0c.687.838 1.043 1.901.998 2.986v.154a4.439 4.439 0 0 1-.999 3 3.812 3.812 0 0 1-5.469 0 4.445 4.445 0 0 1-.992-2.992v-.162zm1.826.154c-.03.679.13 1.352.461 1.944a1.757 1.757 0 0 0 2.87 0 3.56 3.56 0 0 0 .481-1.944v-.154a3.515 3.515 0 0 0-.48-1.92 1.737 1.737 0 0 0-2.87 0 3.62 3.62 0 0 0-.46 1.92l-.002.154zm14.377 1.641h.044l1.27-5.797h1.75l-2.223 8.156h-1.495l-1.728-5.57-.015-.075v.075l-1.712 5.57h-1.496l-2.223-8.156h1.75l1.3 5.712h.045l1.693-5.72h1.329l1.71 5.805z" fill="#293052" fill-rule="nonzero"/><path stroke="#293052" stroke-width="4" stroke-linecap="round" stroke-linejoin="round" d="M48.5 201l39.375-72.909 24.945 42.968 29.194-72.492 47.008 80.275L236.029 70l50.006 31.567"/><g transform="translate(1 1)"><use fill-opacity=".5" fill="#FFF" xlink:href="#a"/><circle stroke="#E98024" stroke-width="4" cx="47" cy="200" r="12"/></g><g transform="translate(1 1)"><use fill-opacity=".5" fill="#FFF" xlink:href="#b"/><circle stroke="#E98024" stroke-width="4" cx="285" cy="100" r="12"/></g></g></svg>