<svg width="382" height="252" viewBox="0 0 382 252" xmlns="http://www.w3.org/2000/svg" xmlns:xlink="http://www.w3.org/1999/xlink"><title>end-out</title><defs><circle id="a" cx="48" cy="150" r="14"/><circle id="b" cx="285" cy="79" r="14"/></defs><g fill="none" fill-rule="evenodd"><g fill="#FFF" stroke="#EEEFF6" stroke-width="2"><path d="M1 51h47.5v25H1zM48.5 51H96v25H48.5zM96 51h47.5v25H96zM143.5 51H191v25h-47.5zM191 51h47.5v25H191zM238.5 51H286v25h-47.5zM286 51h47.5v25H286zM333.5 51H381v25h-47.5z"/><g><path d="M1 76h47.5v25H1zM48.5 76H96v25H48.5zM96 76h47.5v25H96zM143.5 76H191v25h-47.5zM191 76h47.5v25H191zM238.5 76H286v25h-47.5zM286 76h47.5v25H286zM333.5 76H381v25h-47.5z"/></g><g><path d="M1 101h47.5v25H1zM48.5 101H96v25H48.5zM96 101h47.5v25H96zM143.5 101H191v25h-47.5zM191 101h47.5v25H191zM238.5 101H286v25h-47.5zM286 101h47.5v25H286zM333.5 101H381v25h-47.5z"/></g><g><path d="M1 126h47.5v25H1zM48.5 126H96v25H48.5zM96 126h47.5v25H96zM143.5 126H191v25h-47.5zM191 126h47.5v25H191zM238.5 126H286v25h-47.5zM286 126h47.5v25H286zM333.5 126H381v25h-47.5z"/></g><g><path d="M1 151h47.5v25H1zM48.5 151H96v25H48.5zM96 151h47.5v25H96zM143.5 151H191v25h-47.5zM191 151h47.5v25H191zM238.5 151H286v25h-47.5zM286 151h47.5v25H286zM333.5 151H381v25h-47.5z"/></g><g><path d="M1 176h47.5v25H1zM48.5 176H96v25H48.5zM96 176h47.5v25H96zM143.5 176H191v25h-47.5zM191 176h47.5v25H191zM238.5 176H286v25h-47.5zM286 176h47.5v25H286zM333.5 176H381v25h-47.5z"/></g><g><path d="M1 201h47.5v25H1zM48.5 201H96v25H48.5zM96 201h47.5v25H96zM143.5 201H191v25h-47.5zM191 201h47.5v25H191zM238.5 201H286v25h-47.5zM286 201h47.5v25H286zM333.5 201H381v25h-47.5z"/></g><g><path d="M1 226h47.5v25H1zM48.5 226H96v25H48.5zM96 226h47.5v25H96zM143.5 226H191v25h-47.5zM191 226h47.5v25H191zM238.5 226H286v25h-47.5zM286 226h47.5v25H286zM333.5 226H381v25h-47.5z"/></g></g><path stroke="#EEEFF6" stroke-width="2" fill="#FFF" d="M1 1h380v50H1z"/><path fill="#2A3052" d="M285 52h2v198h-2z"/><path fill="#2A3052" d="M2 200h378v2H2zM2 100h378v2H2z"/><path d="M31.054 26.633h-5.43v3.832h6.349v2.076H23v-13.44h8.959v2.077h-6.334v3.379h5.429v2.076zm4.717-4.08l.117 1.43a3.606 3.606 0 0 1 1.197-1.19 3.05 3.05 0 0 1 1.594-.426 2.894 2.894 0 0 1 2.305.945 4.47 4.47 0 0 1 .828 2.983v6.246h-2.637v-6.245a2.066 2.066 0 0 0-.396-1.429 1.568 1.568 0 0 0-1.197-.42 1.978 1.978 0 0 0-.936.217 1.942 1.942 0 0 0-.693.614v7.263h-2.63v-9.988h2.448zm7.601 5.078a6.615 6.615 0 0 1 .994-3.813 3.203 3.203 0 0 1 2.805-1.45c.457-.006.909.105 1.314.324.403.227.754.542 1.026.923V18.14h2.64v14.401h-2.259l-.217-1.218a3.262 3.262 0 0 1-1.084 1.053c-.44.246-.936.37-1.437.36a3.264 3.264 0 0 1-2.786-1.346 5.861 5.861 0 0 1-.994-3.564l-.002-.195zm2.62.195a4.199 4.199 0 0 0 .432 2.075c.29.505.834.798 1.404.756.345.008.686-.073.992-.236.286-.164.526-.402.693-.692v-4.28a2.061 2.061 0 0 0-.689-.74 1.791 1.791 0 0 0-.977-.264 1.48 1.48 0 0 0-1.41.882 5.12 5.12 0 0 0-.445 2.304v.195zm13.274.008h-5.071v-2.078h5.071v2.078zm12.891-.804a5.719 5.719 0 0 1-1.526 4.096 5.208 5.208 0 0 1-3.966 1.615 5.143 5.143 0 0 1-3.935-1.615 5.753 5.753 0 0 1-1.512-4.096v-2.418a5.761 5.761 0 0 1 1.507-4.085 5.12 5.12 0 0 1 3.931-1.613 5.214 5.214 0 0 1 3.97 1.62 5.713 5.713 0 0 1 1.537 4.084l-.006 2.412zm-2.629-2.429a4.148 4.148 0 0 0-.768-2.58 2.498 2.498 0 0 0-2.107-1.009 2.436 2.436 0 0 0-2.08 1.004 4.25 4.25 0 0 0-.738 2.585v2.442a4.27 4.27 0 0 0 .746 2.609 2.436 2.436 0 0 0 2.081 1.008 2.484 2.484 0 0 0 2.107-1.008c.53-.758.796-1.677.756-2.61l.003-2.441zm10.417 6.5a3.318 3.318 0 0 1-1.143 1.21 3.31 3.31 0 0 1-3.995-.586 4.749 4.749 0 0 1-.869-3.15v-6.022h2.62v6.06a2.647 2.647 0 0 0 .36 1.576c.258.325.654.5 1.062.473.369.009.735-.062 1.076-.208.294-.135.549-.347.737-.615v-7.286h2.63v9.988H80.18l-.235-1.44zm7.582-10.995v2.447h1.638v1.89h-1.638v5.09c-.027.296.056.593.234.83.166.17.395.26.63.248.119.001.237-.007.355-.023.117-.02.233-.046.347-.08l.225 1.948a4.555 4.555 0 0 1-1.587.277 2.762 2.762 0 0 1-2.094-.765 3.416 3.416 0 0 1-.734-2.428v-5.095H83.48v-1.89h1.423v-2.449h2.624zm244.195 7.011h3.516v1.525h-3.516v5.25h-1.521V28.64h-3.584v-1.525h3.584V24.95h-3.15v-1.507h3.144V18h1.521v5.443h3.162v1.508h-3.156v2.166zm-3.551-4.254a16.351 16.351 0 0 0-1.15-3.518l1.285-.416a17.406 17.406 0 0 1 1.25 3.466l-1.385.468zm7.012-3.634a39.187 39.187 0 0 1-1.64 3.64l-1.23-.38a22.227 22.227 0 0 0 1.336-3.676l1.534.416zm2.13 10.417h-1.522V20.08h1.522v9.566zm4.09-11.3v13.52c0 1.004-.235 1.472-.828 1.767a9.654 9.654 0 0 1-3.178.277 7.613 7.613 0 0 0-.556-1.646c1.15.052 2.213.035 2.552.035.34 0 .44-.122.44-.434V18.347h1.57zm10.683 13.589c.79.108 1.587.16 2.384.157.727 0 3.566 0 4.53-.034a4.939 4.939 0 0 0-.592 1.628h-4.023c-3.313 0-5.748-.571-7.287-3.292A8.851 8.851 0 0 1 344.715 34a8.572 8.572 0 0 0-1.303-1.103c1.86-1.418 2.721-3.847 3.073-6.881l1.623.157c-.095.764-.23 1.522-.406 2.27a4.913 4.913 0 0 0 2.756 3.052V24.76h-3.905v-1.543h9.517v1.543h-3.996v2.549h4.85v1.507h-4.835l-.003 3.12zm-6.3-8.076h-1.537v-3.987h6.189v-1.855h1.673v1.855h6.254v3.985h-1.606v-2.46h-10.973v2.462zM26.7 89.922v1.138H13v-1.138h5.737V78h1.198v4.702h5.72v1.137h-5.721v6.084l6.766-.001zm6.85-11.093c-.476 1.291-1.107 2.858-1.692 4.057a4.478 4.478 0 0 1 1.522 3.303c.107.66-.133 1.33-.635 1.772a2.036 2.036 0 0 1-.862.293 6.96 6.96 0 0 1-1.138.015 2.491 2.491 0 0 0-.291-1.046c.331.04.665.051.998.033.187-.01.37-.057.539-.139a1.23 1.23 0 0 0 .354-1.045 4.264 4.264 0 0 0-1.539-3.043c.492-1.107.999-2.52 1.37-3.564h-2.253V91.79h-1.077V78.414h3.768l.183-.047.754.462zm8.365 7.38a21.37 21.37 0 0 1-2.473 2.012 6.602 6.602 0 0 0 2.858 2.583c-.3.269-.555.585-.752.937a9.403 9.403 0 0 1-4.397-6.53h-1.662v4.732c.939-.184 1.939-.384 2.923-.584l.077.984c-1.921.446-3.966.89-5.458 1.23l-.37-1.107c.493-.094 1.077-.2 1.724-.323V78.43h6.889v6.777h-3.145c.203.765.486 1.506.846 2.211.73-.56 1.413-1.177 2.045-1.845l.895.637zm-6.427-6.765v1.874h4.641v-1.874h-4.641zm0 4.748h4.641v-1.905h-4.641v1.905zm11.817-3.887l1.369.276c-.094.339-.217.785-.279 1.121a34.018 34.018 0 0 1-1.398 4.794 22.315 22.315 0 0 1-2.252 4.233l-1.308-.554a20.123 20.123 0 0 0 2.368-4.18 23.467 23.467 0 0 0 1.5-5.69zm3.827.244l1.246-.415a49.147 49.147 0 0 1 2.245 4.855 60.672 60.672 0 0 1 1.846 5.256l-1.367.446a46.002 46.002 0 0 0-1.742-5.285 39.276 39.276 0 0 0-2.226-4.857h-.002zm4.336.202l-.83.367a17.64 17.64 0 0 0-1.246-2.136l.814-.34c.47.673.892 1.377 1.263 2.109h-.001zm1.723-.63l-.831.368a14.554 14.554 0 0 0-1.277-2.122l.815-.338c.479.667.911 1.365 1.294 2.091h-.001zm3.975-1.046c-.03.29-.046.736-.046 1.107v5.132c0 .384.017.892.046 1.168h-1.414c.016-.23.06-.722.06-1.183V80.18c0-.277-.03-.815-.06-1.107l1.414.002zm7.12-.108c-.032.37-.061.815-.061 1.32v2.49c0 3.69-.493 4.902-1.6 6.224a8.204 8.204 0 0 1-3.659 2.245l-1-1.061a7.087 7.087 0 0 0 3.692-2.044c1.107-1.274 1.291-2.52 1.291-5.422v-2.43c0-.505-.044-.951-.077-1.32l1.414-.002zm15.536 1.26c-.107.155-.308.384-.416.553a14.832 14.832 0 0 1-3.828 4.242l-1.015-.815a10.352 10.352 0 0 0 3.352-3.441h-8.747c-.586.001-1.171.032-1.754.092v-1.384c.582.073 1.167.114 1.754.123h8.826a7.77 7.77 0 0 0 1.077-.092l.75.723zm-6.134 2.027c0 4.165-.37 6.977-4.29 8.93l-1.123-.922a5.937 5.937 0 0 0 1.37-.677c2.384-1.459 2.723-3.656 2.723-6.224a9.17 9.17 0 0 0-.062-1.107h1.382zM20.149 217.768v2.734l.2-.23a37.9 37.9 0 0 1 5.459 3.18l-.8 1.03a35.153 35.153 0 0 0-4.859-3.058v8.084h-1.214v-11.74h-5.873v-1.138h13.576v1.138H20.15zm13.402-1.2c-.477 1.29-1.108 2.857-1.693 4.057a4.478 4.478 0 0 1 1.522 3.302 1.946 1.946 0 0 1-.63 1.767 2.036 2.036 0 0 1-.86.292 6.96 6.96 0 0 1-1.14.015 2.491 2.491 0 0 0-.29-1.045c.331.04.665.05.998.032.187-.01.37-.057.539-.138a1.23 1.23 0 0 0 .354-1.046 4.264 4.264 0 0 0-1.539-3.043c.493-1.107.999-2.52 1.37-3.563h-2.259v12.324h-1.077v-13.376h3.768l.183-.046.754.467zm8.364 7.38a21.37 21.37 0 0 1-2.473 2.012 6.602 6.602 0 0 0 2.858 2.583c-.3.268-.555.585-.752.936a9.403 9.403 0 0 1-4.397-6.53h-1.662v4.733c.939-.185 1.939-.385 2.923-.584l.077.984c-1.921.445-3.966.89-5.458 1.23l-.37-1.107c.493-.094 1.077-.2 1.724-.323v-11.71h6.889v6.777h-3.145c.203.765.486 1.506.846 2.211.73-.56 1.413-1.177 2.045-1.845l.895.632zm-6.427-6.766v1.874h4.641v-1.874h-4.641zm0 4.748h4.641v-1.897h-4.641v1.897zm11.817-3.887l1.369.277c-.094.338-.217.784-.279 1.12a34.018 34.018 0 0 1-1.398 4.795 22.315 22.315 0 0 1-2.26 4.226l-1.308-.553a20.123 20.123 0 0 0 2.368-4.18 23.467 23.467 0 0 0 1.508-5.685zm3.827.245l1.246-.415a49.147 49.147 0 0 1 2.245 4.855 60.672 60.672 0 0 1 1.846 5.255l-1.367.446a46.002 46.002 0 0 0-1.742-5.283 39.276 39.276 0 0 0-2.226-4.857l-.002-.001zm4.336.201l-.83.368a17.64 17.64 0 0 0-1.246-2.136l.814-.34c.47.675.892 1.381 1.263 2.114l-.001-.006zm1.723-.63l-.831.369a14.554 14.554 0 0 0-1.277-2.122l.815-.338c.479.666.911 1.365 1.294 2.09h-.001zm3.975-1.044c-.03.29-.046.736-.046 1.107v5.132c0 .384.017.892.046 1.168h-1.414c.016-.23.06-.722.06-1.183v-5.117c0-.277-.03-.815-.06-1.107h1.414zm7.12-.108c-.032.37-.061.815-.061 1.32v2.49c0 3.69-.493 4.902-1.6 6.224a8.204 8.204 0 0 1-3.659 2.245l-1-1.061a7.087 7.087 0 0 0 3.692-2.044c1.107-1.274 1.291-2.52 1.291-5.422v-2.425c0-.506-.044-.952-.077-1.32l1.414-.007zm15.536 1.26c-.107.155-.308.384-.416.553a14.832 14.832 0 0 1-3.828 4.242l-1.015-.815a10.352 10.352 0 0 0 3.352-3.441h-8.747c-.586.001-1.171.032-1.754.092v-1.384c.582.073 1.167.114 1.754.123h8.826a7.77 7.77 0 0 0 1.077-.092l.75.723zm-6.134 2.027c0 4.165-.37 6.977-4.29 8.93l-1.123-.922a5.937 5.937 0 0 0 1.37-.677c2.384-1.459 2.723-3.656 2.723-6.224a9.17 9.17 0 0 0-.062-1.107h1.382zm-57.056-46.938v11.97h-1.106v-2.782c-1.938.323-3.906.615-5.366.861l-.2-1.153c.43-.045.937-.106 1.49-.183v-8.713h-1.2v-1.06h7.46v1.06h-1.078zm-1.106 0h-2.998v2.043h2.998v-2.043zm0 3.056h-2.998v2.138h2.998v-2.138zm-2.998 5.502c.937-.123 1.967-.277 2.998-.43v-1.895h-2.998v2.325zm11.24-8.312a18.662 18.662 0 0 1-2.491 7.789 8.537 8.537 0 0 0 3.17 2.858c-.312.275-.586.59-.816.936a9.63 9.63 0 0 1-3.06-2.78 10.998 10.998 0 0 1-3.136 2.734 4.416 4.416 0 0 0-.753-.922 9.363 9.363 0 0 0 3.23-2.843 21.42 21.42 0 0 1-2.29-6.562l1.092-.2c.338 1.981.975 3.9 1.89 5.689a16.824 16.824 0 0 0 1.907-5.747h-5.186v-1.115h5.489l.215-.046.739.209zm8.832 5.117s-.015.367-.03.522c-.278 3.626-.54 5.056-1.093 5.579a1.48 1.48 0 0 1-1.214.49c-.81.033-1.62.023-2.43-.03a2.603 2.603 0 0 0-.4-1.17c1.015.093 2.03.107 2.413.107a.899.899 0 0 0 .677-.168c.368-.323.63-1.505.83-4.27h-4.04c-.062.26-.124.505-.17.736l-1.121-.185c.307-1.275.675-3.303.892-4.855h4.49v-2.428h-5.015v-1.076h6.134v4.58h-4.626c-.123.722-.246 1.474-.385 2.166l5.088.002zm5.26-7.227v13.863h-1.138v-13.863h1.138zm7.962 10.864h-3.31v1.246h-1.046v-11.264h4.356v10.018zm-3.305-8.99v3.412h2.228v-3.411h-2.228zm2.228 7.963v-3.55h-2.233v3.55h2.233zm8.318-4.195v1.737h1.783v1.013H57.06v4.12c0 .645-.17.983-.63 1.152a8.832 8.832 0 0 1-2.492.185c-.065-.371-.189-.73-.367-1.061.952.032 1.798.032 2.044.017.247-.016.339-.079.339-.308v-4.103H50.14v-1.014h5.812v-1.743h-5.889v-1.013h3.86v-1.953h-3.198v-1.013h3.198v-1.828h1.13v1.828h3.304v1.013h-3.305v1.953h3.966v1.013l-1.955.005zm-5.058 3.29c.796.764 1.47 1.646 2 2.614l-.97.615c-.519-.99-1.176-1.9-1.952-2.705l.922-.524zm10.075 3.272c.109-.236.161-.493.154-.752v-8.79a12.042 12.042 0 0 0-.123-1.398h1.506a9.89 9.89 0 0 0-.108 1.398v8.713a16.586 16.586 0 0 0 8.411-5.24l.692 1.076a17.894 17.894 0 0 1-8.995 5.486c-.229.057-.447.15-.646.277l-.891-.77zm12.555-6.161c.462.03 1.277.077 2.139.077h8.432c.77 0 1.322-.046 1.66-.077v1.505c-.308-.015-.952-.077-1.644-.077h-8.448c-.846 0-1.662.032-2.139.077v-1.505zm23.902 2.704a40.234 40.234 0 0 0-6.043-2.474l.015 5.074c.001.606.032 1.212.094 1.814h-1.477c.064-.602.096-1.208.094-1.814V173.6a9.745 9.745 0 0 0-.123-1.597h1.506c-.046.476-.108 1.136-.108 1.597v2.505c2.246.69 4.44 1.537 6.567 2.535l-.525 1.3z" fill="#231F20" fill-rule="nonzero"/><path stroke="#293052" stroke-width="4" stroke-linecap="round" stroke-linejoin="round" d="M49 150.802l37.825-25.656 28.846 18.226 37.692-43.884 43.462 23.015L237.029 66l49.391 13.59"/><g transform="translate(1 1)"><use fill-opacity=".5" fill="#FFF" xlink:href="#a"/><circle stroke="#E98024" stroke-width="4" cx="48" cy="150" r="12"/></g><g transform="translate(1 1)"><use fill-opacity=".5" fill="#FFF" xlink:href="#b"/><circle stroke="#E98024" stroke-width="4" cx="285" cy="79" r="12"/></g><path d="M314.85 61.8h-4.784v3.454h5.55v1.463h-7.376v-10.93h7.325v1.464h-5.499v3.086h4.785V61.8zm3.727-3.205l.105 1.171c.25-.4.594-.734 1.003-.973a2.69 2.69 0 0 1 1.363-.349 2.562 2.562 0 0 1 1.98.769c.528.683.78 1.54.709 2.4v5.104h-1.826v-5.089a1.829 1.829 0 0 0-.379-1.304 1.556 1.556 0 0 0-1.154-.386 1.932 1.932 0 0 0-.953.236 2 2 0 0 0-.691.65v5.893h-1.826v-8.122h1.669zm6.723 4.174a5.36 5.36 0 0 1 .834-3.135 2.697 2.697 0 0 1 2.343-1.188c.41-.008.817.084 1.185.267.355.185.664.448.904.769V55h1.826v11.711h-1.538l-.18-1.005c-.239.36-.56.657-.939.867a2.65 2.65 0 0 1-1.277.295 2.77 2.77 0 0 1-2.329-1.089 4.577 4.577 0 0 1-.834-2.86l.005-.15zm1.826.154c-.031.627.119 1.25.432 1.794.303.454.827.71 1.371.669.344.01.684-.075.982-.248.276-.174.503-.417.657-.705v-3.537a1.924 1.924 0 0 0-.662-.702 1.795 1.795 0 0 0-.961-.25 1.472 1.472 0 0 0-1.376.785 4.15 4.15 0 0 0-.443 2.045v.149zm10.742-.123h-3.943v-1.465h3.943V62.8zm10.29-.565a4.623 4.623 0 0 1-1.256 3.323 4.318 4.318 0 0 1-3.265 1.316 4.172 4.172 0 0 1-3.195-1.316 4.686 4.686 0 0 1-1.231-3.323V60.27a4.685 4.685 0 0 1 1.23-3.318 4.155 4.155 0 0 1 3.188-1.32 4.31 4.31 0 0 1 3.268 1.32 4.61 4.61 0 0 1 1.261 3.318v1.966zm-1.813-1.981a3.381 3.381 0 0 0-.733-2.245 2.444 2.444 0 0 0-1.98-.878 2.299 2.299 0 0 0-1.9.878 3.493 3.493 0 0 0-.698 2.245v1.981a3.535 3.535 0 0 0 .698 2.264 2.308 2.308 0 0 0 1.908.882 2.431 2.431 0 0 0 1.98-.878c.503-.646.76-1.45.725-2.268v-1.981zm8.615 5.278c-.233.408-.567.75-.97.993a2.87 2.87 0 0 1-3.395-.483 3.842 3.842 0 0 1-.737-2.59v-4.857h1.819v4.872a2.439 2.439 0 0 0 .346 1.494c.262.3.649.457 1.045.428a2.37 2.37 0 0 0 1.109-.235c.295-.157.54-.396.701-.688v-5.871h1.827v8.122h-1.591l-.154-1.185zm5.925-8.911v1.974h1.457v1.351h-1.457v4.49a.988.988 0 0 0 .218.718.796.796 0 0 0 .579.213c.098 0 .195-.009.292-.027.092-.016.183-.04.27-.071l.196 1.336c-.175.093-.362.16-.555.2-.22.047-.445.071-.67.07a2.096 2.096 0 0 1-1.577-.59 2.579 2.579 0 0 1-.57-1.845v-4.49h-1.24V58.6h1.24v-1.98h1.817z" fill="#293052" fill-rule="nonzero"/><path d="M305.51 88.056c.707-.722 1.984-2.337 2.998-3.536.861-1.015 1.583-1.12 2.752-.138a35.721 35.721 0 0 1 3.168 3.15c1.03 1.107 2.629 2.812 3.737 4.117l-1.276 1.384c-1.03-1.322-2.429-2.95-3.384-4.057a40.685 40.685 0 0 0-2.937-3.09c-.583-.491-.83-.491-1.306.107-.693.846-1.908 2.46-2.57 3.304-.323.444-.675.936-.923 1.29l-1.429-1.444c.415-.353.725-.66 1.17-1.087zm10.133-5.962a1.92 1.92 0 1 1-1.364.566 1.93 1.93 0 0 1 1.364-.57v.004zm0 2.995a1.06 1.06 0 1 0-1.06-1.06 1.063 1.063 0 0 0 1.06 1.057v.003zm12.232 6.99c-.012.606.024 1.213.107 1.814h-1.907c.063-.603.094-1.209.094-1.815v-5.47a29.497 29.497 0 0 1-5.566 2.259l-.877-1.492a24.162 24.162 0 0 0 6.936-2.795 16.806 16.806 0 0 0 4.012-3.442l1.308 1.183a25.602 25.602 0 0 1-4.105 3.304l-.002 6.453zm18.75-9.144c-.139.167-.385.461-.508.644a15.204 15.204 0 0 1-3.766 4.242l-1.277-1.03a9.555 9.555 0 0 0 3.137-3.18h-8.44c-.602 0-1.139.046-1.8.093v-1.707c.596.085 1.197.132 1.8.138h8.595c.433 0 .864-.035 1.29-.106l.969.906zm-6.213 2.046c0 4.01-.229 6.96-4.274 9.036l-1.413-1.153a5.8 5.8 0 0 0 1.475-.753c2.2-1.413 2.552-3.35 2.552-5.901a6.838 6.838 0 0 0-.092-1.23l1.752.001zm19.83-.971c-.12.339-.208.689-.262 1.045a14.292 14.292 0 0 1-1.477 4.503 9.807 9.807 0 0 1-6.158 4.471l-1.26-1.459a9.739 9.739 0 0 0 1.846-.507 7.898 7.898 0 0 0 3.875-2.889 10.68 10.68 0 0 0 1.416-4.242h-8.185v2.52c-.004.34.016.678.061 1.015h-1.675c.03-.323.06-.769.06-1.107v-2.686c.002-.416-.018-.832-.06-1.246.495.052.993.077 1.49.077h3.353v-1.32a7.097 7.097 0 0 0-.106-1.275h1.86c-.055.423-.086.848-.092 1.275v1.32h3.106c.39.016.78-.036 1.154-.153l1.054.658zm10.832 5.548a40.824 40.824 0 0 0-5.812-2.398v4.748c.005.657.046 1.313.123 1.966h-1.891c.081-.652.122-1.309.123-1.966v-8.88a11.18 11.18 0 0 0-.139-1.721h1.891c-.046.505-.107 1.183-.107 1.72v2.399a53.06 53.06 0 0 1 6.504 2.46l-.692 1.672z" fill="#231F20" fill-rule="nonzero"/><path d="M302.078 227.155c.737-.753 2.076-2.46 3.045-3.596.815-.968 1.445-1.076 2.552-.154a38.71 38.71 0 0 1 3.183 3.18c1.03 1.107 2.597 2.783 3.72 4.104l-.998 1.09c-1.077-1.384-2.475-2.966-3.46-4.087a41.25 41.25 0 0 0-2.997-3.118c-.646-.54-.861-.523-1.385.121-.738.892-2.029 2.583-2.723 3.428-.323.4-.661.874-.89 1.183l-1.123-1.137c.384-.339.676-.615 1.076-1.014zm10.056-6.039a1.867 1.867 0 1 1-.017 3.734 1.867 1.867 0 0 1 .017-3.734zm0 2.995a1.123 1.123 0 1 0-.027-2.245 1.123 1.123 0 0 0 .027 2.245zm16.21-2.98a24.19 24.19 0 0 1-4.12 3.335v6.578c-.01.55.022 1.098.091 1.643h-1.509c.063-.545.095-1.094.094-1.643v-5.807a30.87 30.87 0 0 1-5.783 2.397l-.706-1.198a24.26 24.26 0 0 0 6.872-2.828 16.956 16.956 0 0 0 4.045-3.396l1.017.92zm14.65.688c-.106.154-.308.383-.416.552a14.832 14.832 0 0 1-3.827 4.242l-1.016-.815a10.352 10.352 0 0 0 3.353-3.441h-8.743c-.586.001-1.172.032-1.754.092v-1.384c.582.073 1.167.114 1.754.123h8.826a7.77 7.77 0 0 0 1.077-.092l.746.723zm-6.134 2.026c0 4.165-.37 6.977-4.29 8.93l-1.122-.923a5.937 5.937 0 0 0 1.369-.676c2.385-1.46 2.723-3.656 2.723-6.224a9.17 9.17 0 0 0-.062-1.107h1.382zm19.735-.962a9.835 9.835 0 0 0-.23.922 14.085 14.085 0 0 1-1.507 4.613 9.73 9.73 0 0 1-6.087 4.365l-1-1.153a8.281 8.281 0 0 0 1.6-.43 8.113 8.113 0 0 0 4.166-3.09 11.32 11.32 0 0 0 1.461-4.486h-8.595v2.75c-.004.304.016.607.062.907h-1.339a9.51 9.51 0 0 0 .046-.968v-2.705c.008-.395-.007-.79-.046-1.183.476.045.953.065 1.43.061h3.4v-1.43c-.001-.385-.027-.77-.078-1.153h1.476a6.893 6.893 0 0 0-.092 1.153v1.43h3.443c.357.022.716-.02 1.06-.123l.83.52zm11.033 5.378a40.297 40.297 0 0 0-6.043-2.474l.015 5.074c0 .606.031 1.211.092 1.814h-1.475c.063-.603.094-1.208.092-1.814v-8.942a9.582 9.582 0 0 0-.123-1.598h1.506c-.044.477-.106 1.136-.106 1.598v2.504c2.246.69 4.44 1.537 6.566 2.536l-.524 1.302zm-65.551-82.3c.738-.753 2.077-2.46 3.045-3.596.813-.968 1.444-1.076 2.552-.153a38.703 38.703 0 0 1 3.181 3.18c1.031 1.106 2.599 2.782 3.722 4.103l-.999 1.09c-1.076-1.384-2.475-2.966-3.46-4.087a41.216 41.216 0 0 0-2.998-3.118c-.646-.54-.862-.523-1.385.122-.737.891-2.029 2.583-2.721 3.427-.323.4-.662.875-.892 1.184L301 146.975c.386-.34.677-.614 1.077-1.013zm10.057-6.039a1.867 1.867 0 1 1-.017 3.734 1.867 1.867 0 0 1 .017-3.734zm0 2.995a1.123 1.123 0 1 0-.03-2.245 1.123 1.123 0 0 0 .03 2.245zm16.21-2.98a24.13 24.13 0 0 1-4.12 3.335v6.576c-.009.55.023 1.099.093 1.644h-1.51a14.5 14.5 0 0 0 .091-1.644v-5.807a30.814 30.814 0 0 1-5.781 2.397l-.708-1.198a24.288 24.288 0 0 0 6.874-2.827 16.985 16.985 0 0 0 4.045-3.396l1.017.92zm14.65.693c-.108.153-.308.382-.416.551a14.842 14.842 0 0 1-3.829 4.242l-1.014-.814a10.381 10.381 0 0 0 3.353-3.441h-8.743c-.586 0-1.172.032-1.754.092v-1.39c.582.073 1.167.114 1.754.123h8.824a7.73 7.73 0 0 0 1.077-.092l.748.729zm-6.136 2.026c0 4.165-.367 6.977-4.289 8.93l-1.121-.923a6.002 6.002 0 0 0 1.369-.676c2.383-1.46 2.721-3.656 2.721-6.224a9.17 9.17 0 0 0-.061-1.107h1.381zm19.736-.966c-.077.23-.168.63-.23.923a14.12 14.12 0 0 1-1.506 4.612 9.738 9.738 0 0 1-6.089 4.365l-.998-1.153a8.238 8.238 0 0 0 1.598-.429 8.11 8.11 0 0 0 4.168-3.09 11.317 11.317 0 0 0 1.46-4.487h-8.595v2.751c-.005.304.016.607.061.907h-1.337c.03-.261.045-.676.045-.968v-2.71c.007-.395-.008-.79-.045-1.183.475.045.952.065 1.43.061h3.398v-1.43c0-.385-.026-.77-.077-1.153h1.477a6.76 6.76 0 0 0-.094 1.153v1.43h3.445c.357.022.716-.02 1.06-.123l.829.524zm11.032 5.379a40.234 40.234 0 0 0-6.05-2.476l.015 5.074c0 .606.032 1.211.094 1.814h-1.477c.064-.602.095-1.208.094-1.814v-8.945a9.745 9.745 0 0 0-.124-1.598h1.507c-.047.477-.108 1.137-.108 1.598v2.504c2.246.69 4.44 1.537 6.566 2.536l-.517 1.307zm-38.246 13.177a18.02 18.02 0 0 1-2.752.554 27.327 27.327 0 0 1-3.32 6.439l-1.2-.615a21.798 21.798 0 0 0 3.26-5.689c-.446.031-.891.046-1.337.046-.57 0-1.199-.017-1.768-.046l-.094-1.153c.623.078 1.25.114 1.877.108.539 0 1.108-.031 1.692-.077.253-.856.413-1.737.477-2.628l1.37.123c-.154.552-.353 1.475-.6 2.35a15.393 15.393 0 0 0 2.367-.552l.028 1.14zm1.785 1.767a14.78 14.78 0 0 0-.017 1.644c.017.553.077 1.553.107 2.474a10.278 10.278 0 0 1 3.153 1.904l-.662 1.046a10.578 10.578 0 0 0-2.444-1.736c.015.23.015.444.015.615 0 1.215-.8 2.213-2.675 2.213-1.676 0-3.045-.692-3.045-2.199 0-1.398 1.321-2.306 3.045-2.306.484-.003.968.044 1.444.138-.046-1.245-.123-2.735-.154-3.796l1.233.003zm-1.031 4.872a5.55 5.55 0 0 0-1.539-.216c-1.121 0-1.86.507-1.86 1.199 0 .692.57 1.184 1.754 1.184 1.246 0 1.66-.692 1.66-1.444 0-.2 0-.446-.015-.723zm4.06-4.458a18.31 18.31 0 0 0-3.476-2.09l.6-.953c1.247.569 2.44 1.248 3.567 2.028l-.691 1.015zm5.557-4.885a17.61 17.61 0 0 0-.154 1.52c-.062 1.723-.185 5.317-.185 7.591 0 1.676 1.077 2.26 2.491 2.26a6.365 6.365 0 0 0 5.475-3.15l.847 1.06a7.589 7.589 0 0 1-6.351 3.35c-2.185 0-3.692-.923-3.692-3.397 0-2.258.153-6.1.153-7.715a7.864 7.864 0 0 0-.138-1.537l1.554.018z" fill="#6D6E70" fill-rule="nonzero"/></g></svg>