<svg width="107" height="138" xmlns="http://www.w3.org/2000/svg"><g fill="none" fill-rule="evenodd"><path fill="#F2F2F3" fill-rule="nonzero" d="M13.096 107.017L.683 23.571 106.021.756 90.306 107.017z"/><path d="M105.338 1.639L89.851 106.387h-76.3L1.253 24.076 105.338 1.639M106.7 0L0 23.067l12.641 84.454h78.234L106.7 0zM12.641 107.648h78.235v21.681H12.641v-21.681zM7.63 129.329h88.256v7.815H7.63v-7.815z" fill="#2A3052" fill-rule="nonzero"/><text transform="translate(38.776 113.412)" fill="#FFF" font-family="Roboto-Medium, Roboto" font-size="11" font-weight="400"><tspan x=".496" y="10">2019</tspan></text><path fill="#DFDEDE" fill-rule="nonzero" d="M11.16 90.252l81.993-6.05-3.53 23.446H13.779z"/><g fill="#2A3052" font-family="Roboto-Medium, Roboto" font-size="12" font-weight="400"><text transform="translate(26.776 30.992)"><tspan x="11" y="11">BEST</tspan></text><text transform="translate(26.776 30.992)"><tspan x="4" y="27">BINARY</tspan></text><text transform="translate(26.776 30.992)"><tspan x="0" y="43">OPTIONS</tspan></text><text transform="translate(26.776 30.992)"><tspan x="3" y="59">BROKER</tspan></text></g></g></svg>