<svg width="20" height="20" viewBox="0 0 20 20" xmlns="http://www.w3.org/2000/svg"><title>icons/currencies/logo/euro eur</title><g fill-rule="nonzero" fill="none"><path d="M9.993 0v19.986c5.52 0 9.993-4.474 9.993-9.993C19.986 4.473 15.512 0 9.993 0z" fill="#283991"/><path d="M9.993 0C4.474 0 0 4.474 0 9.993c0 5.52 4.474 9.993 9.993 9.993 5.52 0 5.52-19.986 0-19.986z" fill="#283991"/><g fill="#F8D12E"><path d="M9.976 1.733l.244.75h.789l-.639.464.244.75-.638-.464-.638.464.244-.75-.639-.464h.79zM9.976 15.894l.244.75h.789l-.639.464.244.75-.638-.463-.638.463.244-.75-.639-.464h.79zM13.862 2.988l.244.75h.789l-.638.464.244.75-.639-.463-.638.463.244-.75-.638-.464h.789zM16.514 5.604l.244.75h.789l-.639.464.244.75-.638-.463-.638.463.244-.75-.639-.464h.79zM16.577 12.214l.244.75h.789l-.638.464.243.75-.638-.463-.638.463.244-.75-.639-.464h.79zM3.534 5.604l.244.75h.788l-.638.464.244.75-.638-.463-.638.463.243-.75-.638-.464h.79zM17.129 8.757l.243.75h.79l-.639.463.244.75-.638-.463-.639.464.244-.75-.638-.464h.789zM2.931 8.757l.244.75h.789l-.639.463.244.75-.638-.463-.638.464.244-.75-.638-.464h.788zM3.448 12.214l.244.75h.789l-.638.464.243.75-.638-.463-.638.463.244-.75-.638-.464h.789zM13.977 14.942l.243.75h.79l-.639.464.244.75-.638-.464-.639.464.244-.75-.638-.464h.79zM6.215 2.988l.244.75h.789l-.638.464.244.75-.639-.463-.638.463.244-.75-.638-.464h.789zM5.928 14.894l.243.75h.79l-.639.464.244.75-.638-.464-.638.464.243-.75-.638-.464h.789z"/></g></g></svg>