<svg width="20" height="20" viewBox="0 0 20 20" xmlns="http://www.w3.org/2000/svg"><title>icons/currencies/logo/pound gbp</title><g fill-rule="nonzero" fill="none"><circle fill="#FFF" cx="10" cy="10" r="10"/><g fill="#283991"><path d="M2.067 3.912a9.964 9.964 0 0 0-1.723 3.48h5.203l-3.48-3.48zM19.656 7.391a9.964 9.964 0 0 0-1.723-3.48l-3.48 3.48h5.203zM.344 12.609a9.965 9.965 0 0 0 1.723 3.48l3.48-3.48H.344zM16.088 2.067a9.964 9.964 0 0 0-3.48-1.723v5.203l3.48-3.48zM3.912 17.933a9.964 9.964 0 0 0 3.48 1.723v-5.203l-3.48 3.48zM7.391.344a9.965 9.965 0 0 0-3.48 1.723l3.48 3.48V.344zM12.609 19.656a9.965 9.965 0 0 0 3.48-1.723l-3.48-3.48v5.203zM14.453 12.609l3.48 3.48a9.964 9.964 0 0 0 1.723-3.48h-5.203z"/></g><g fill="#F44336"><path d="M19.915 8.696h-8.61V.085a10.1 10.1 0 0 0-2.61 0v8.61H.086a10.1 10.1 0 0 0 0 2.61h8.61v8.61a10.099 10.099 0 0 0 2.61 0v-8.61h8.61a10.099 10.099 0 0 0 0-2.61z"/><path d="M12.609 12.609l4.462 4.462c.205-.205.401-.42.588-.642l-3.82-3.82h-1.23zM7.391 12.609L2.93 17.07c.205.205.42.401.642.588l3.82-3.82v-1.23zM7.394 7.391L2.932 2.93c-.206.205-.401.42-.588.642l3.82 3.82h1.23zM12.609 7.391L17.07 2.93c-.205-.205-.42-.401-.642-.588l-3.82 3.82v1.23z"/></g></g></svg>