<svg width="20" height="20" viewBox="0 0 20 20" xmlns="http://www.w3.org/2000/svg"><title>icons/currencies/logo/usa usd</title><g fill="none" fill-rule="evenodd"><circle fill="#FFF" cx="10" cy="10" r="10"/><path d="M12.18 1.833h3.583A9.951 9.951 0 0 0 10.578.018h-.308c.906.114 1.323.783 1.91 1.815zM13.106 5.461h5.799a9.976 9.976 0 0 0-1.186-1.814h-5.066c.179.564.33 1.173.453 1.814zM19.945 9.09a9.913 9.913 0 0 0-.331-1.814h-6.19c.062.594.103 1.202.123 1.814h6.398zM19.6 12.719c.167-.585.284-1.191.341-1.814h-6.24c-.022.612-.064 1.22-.127 1.814h6.025zM12.811 16.348h4.865a9.985 9.985 0 0 0 1.203-1.815h-5.61a15.76 15.76 0 0 1-.458 1.815zM9.993 19.975a9.845 9.845 0 0 0 5.698-1.812h-3.616c-.642 1.122-1.066 1.812-2.082 1.812z" fill="#F44336" fill-rule="nonzero"/><path d="M4.223 1.833h8.288C11.924.8 11.176.132 10.27.018h-.861a9.95 9.95 0 0 0-5.186 1.815zM2.268 3.647A9.983 9.983 0 0 0 1.082 5.46H13.73a15.962 15.962 0 0 0-.453-1.814H2.267zM.041 9.09h14.077c-.02-.612-.062-1.22-.124-1.814H.373A9.9 9.9 0 0 0 .04 9.09zM.387 12.719H13.99a25.53 25.53 0 0 0 .127-1.814H.046c.057.623.174 1.23.341 1.814zM1.108 14.533c.335.65.738 1.258 1.202 1.815h10.952c.18-.564.334-1.173.458-1.815H1.108zM9.57 19.966l.061.002c.12.004.24.007.362.007 1.016 0 1.845-.69 2.487-1.813H4.295a9.843 9.843 0 0 0 5.275 1.804z" fill="#F44336" fill-rule="nonzero"/><path d="M9.787.005A9.99 9.99 0 0 0 .043 9.093h9.744V.005z" fill="#283991" fill-rule="nonzero"/><path fill="#EFEFEF" fill-rule="nonzero" d="M2 5.65l.152.468h.493l-.399.289.152.468L2 6.585l-.4.29.153-.468-.399-.29h.493zM2 7.303l.152.468h.493l-.399.289.152.468L2 8.238l-.4.29.153-.468-.399-.29h.493zM3.656 3.17l.152.468h.493l-.399.29.153.468-.399-.29-.399.29.152-.468-.399-.29h.494zM3.656 4.823l.152.468h.493l-.399.29.153.468-.399-.29-.399.29.152-.469-.399-.289h.494zM3.656 6.476l.152.468h.493l-.399.29.153.467-.399-.289-.399.29.152-.469-.399-.289h.494zM.742 7.701L.59 7.233l.398-.289H.496L.484 6.91a9.53 9.53 0 0 0-.148.507l.007-.005.399.29zM1.6 5.222l.4-.29.398.29-.152-.468.399-.29h-.493l-.153-.467-.152.468h-.182a9.409 9.409 0 0 0-.099.154l.187.135-.152.468zM3.656 2.453l.399.29-.153-.468.4-.29h-.286a9.92 9.92 0 0 0-.7.573l-.06.185.4-.29zM4.914 1.916l.398-.29.4.29-.153-.468.399-.289h-.493l-.021-.063a9.895 9.895 0 0 0-.494.268l.116.084-.152.468zM5.312 2.344l.153.468h.493l-.4.29.153.467-.399-.29-.398.29.152-.468-.4-.29h.494zM5.312 3.997l.153.468h.493l-.4.29.153.467-.399-.29-.398.29.152-.468-.4-.29h.494zM5.312 5.65l.153.468h.493l-.4.289.153.468-.399-.29-.398.29.152-.468-.4-.29h.494zM5.312 7.303l.153.468h.493l-.4.289.153.468-.399-.29-.398.29.152-.468-.4-.29h.494zM6.969 1.517l.152.468h.493l-.398.29.152.468-.4-.29-.398.29.152-.468-.399-.29h.493zM6.969 3.17l.152.468h.493l-.398.29.152.468-.4-.29-.398.29.152-.468-.399-.29h.493zM6.969 4.823l.152.468h.493l-.398.29.152.468-.4-.29-.398.29.152-.469-.399-.289h.493zM6.969 6.476l.152.468h.493l-.398.29.152.467-.4-.289-.398.29.152-.469-.399-.289h.493zM8.625.691l.153.468h.493l-.4.29.153.467-.399-.29-.399.29.153-.468-.4-.289h.494zM8.625 2.344l.153.468h.493l-.4.29.153.467-.399-.29-.399.29.153-.468-.4-.29h.494zM8.625 3.997l.153.468h.493l-.4.29.153.467-.399-.29-.399.29.153-.468-.4-.29h.494zM8.625 5.65l.153.468h.493l-.4.289.153.468-.399-.29-.399.29.153-.468-.4-.29h.494zM8.625 7.303l.153.468h.493l-.4.289.153.468-.399-.29-.399.29.153-.468-.4-.29h.494z"/></g></svg>