<svg xmlns="http://www.w3.org/2000/svg" width="62" height="62" viewBox="0 0 62 62">
    <g fill="none" fill-rule="evenodd">
        <path fill="#E98024" fill-rule="nonzero" d="M31 61.5454545C14.1570909 61.5454545.45454545 47.8429091.45454545 31S14.1570909.45454545 31 .45454545 61.5454545 14.1570909 61.5454545 31 47.8429091 61.5454545 31 61.5454545z"/>
        <path fill="#FFF" d="M36.1259766 31.3720703c0-.3105484-.1538071-.5551749-.4614258-.7338867-.3076187-.1787118-.8012662-.3383782-1.480957-.4790039-2.2617301-.4746118-3.3925782-1.4355397-3.3925782-2.8828125 0-.8437542.3500942-1.548337 1.050293-2.1137695.7001988-.5654326 1.615717-.8481446 2.746582-.8481446 1.2070373 0 2.1723597.2841769 2.8959961.8525391.7236364.5683622 1.0854492 1.3066361 1.0854492 2.2148437h-2.540039c0-.363283-.1171864-.663573-.3515625-.9008789-.2343762-.2373058-.6005835-.355957-1.0986328-.355957-.4277366 0-.7587879.0966787-.9931641.2900391-.2343762.1933603-.3515625.4394516-.3515625.7382812 0 .2812514.1332994.5082999.3999023.6811524.2666029.1728524.7163055.322265 1.3491211.4482421.6328157.1259772 1.1660135.2680657 1.5996094.4262696 1.3418036.4921899 2.0126953 1.3447205 2.0126953 2.5576172 0 .8671918-.3720666 1.5688449-1.1162109 2.1049804-.7441444.5361355-1.7050722.8041992-2.8828125.8041992-.796879 0-1.5043915-.1420884-2.1225586-.4262695-.6181672-.2841811-1.1030256-.6738256-1.4545899-1.1689453-.3515642-.4951197-.5273437-1.0297823-.5273437-1.6040039h2.4082031c.0234376.4511741.1904282.7968738.5009766 1.0371094.3105484.2402356.7265599.3603515 1.2480469.3603515.4863305 0 .8540026-.0922842 1.1030273-.2768554.2490247-.1845713.3735352-.4262681.3735352-.7250977zm7.1455078-9.2197265v2.3378906h1.6259765v1.8632812h-1.6259765v4.7460938c0 .3515642.0673821.6035148.2021484.7558594.1347663.1523445.3925762.2285156.7734375.2285156.2812514 0 .5302724-.0205076.7470703-.0615235v1.9248047c-.4980493.1523445-1.0107395.2285156-1.5380859.2285156-1.7812589 0-2.689453-.899405-2.7246094-2.6982421v-5.1240235h-1.3886719v-1.8632812h1.3886719v-2.3378906h2.5400391zM27.9511719 42H24V26.7695312l-4.7167969 1.4628907v-3.2128907l8.2441407-2.953125h.4238281"/>
    </g>
</svg>