<svg xmlns="http://www.w3.org/2000/svg" width="62" height="62" viewBox="0 0 62 62"><g fill="none" fill-rule="evenodd"><path fill="#E98024" fill-rule="nonzero" d="M31 61.545C14.157 61.545.455 47.843.455 31S14.157.455 31 .455 61.545 14.157 61.545 31 47.843 61.545 31 61.545z"/><path fill="#FFF" d="M18.373 30.297h2.106c1.002 0 1.745-.25 2.228-.752.483-.501.725-1.167.725-1.996 0-.802-.24-1.427-.718-1.873-.479-.447-1.137-.67-1.976-.67-.756 0-1.39.207-1.9.622-.51.415-.766.955-.766 1.62h-3.95c0-1.039.28-1.971.84-2.796.56-.825 1.344-1.47 2.351-1.934 1.008-.465 2.117-.698 3.33-.698 2.105 0 3.755.504 4.949 1.511s1.79 2.395 1.79 4.163c0 .912-.277 1.75-.833 2.516a5.418 5.418 0 0 1-2.188 1.763c1.121.401 1.958 1.003 2.51 1.805.55.802.826 1.75.826 2.844 0 1.768-.645 3.185-1.934 4.252s-2.997 1.6-5.12 1.6c-1.987 0-3.612-.525-4.874-1.573-1.263-1.048-1.894-2.433-1.894-4.156h3.951c0 .747.28 1.358.841 1.832.56.474 1.251.71 2.071.71.94 0 1.675-.247 2.208-.744.533-.497.8-1.155.8-1.976 0-1.987-1.094-2.98-3.281-2.98h-2.092v-3.09zm16.946-3.425a6.9 6.9 0 0 0-.914-.07c-.96 0-1.59.325-1.89.975V34h-2.54v-9.51h2.4l.07 1.134c.51-.873 1.216-1.31 2.118-1.31.282 0 .545.039.791.115l-.035 2.443zm.66 2.303c0-1.483.332-2.663.997-3.542.665-.88 1.575-1.319 2.73-1.319.925 0 1.69.346 2.293 1.038V20.5h2.549V34h-2.294l-.123-1.01c-.633.79-1.447 1.186-2.443 1.186-1.12 0-2.018-.441-2.694-1.323-.677-.882-1.015-2.108-1.015-3.678zm2.54.184c0 .891.155 1.574.465 2.048.31.475.762.712 1.354.712.785 0 1.339-.33 1.661-.993v-3.753c-.316-.662-.864-.993-1.644-.993-1.224 0-1.836.993-1.836 2.98z"/></g></svg>