<svg xmlns="http://www.w3.org/2000/svg" width="64" height="64" viewBox="0 0 64 64">
    <g fill="none">
        <path fill="#FFF" d="M31.8577778 0C14.3034921 0 0 14.3034921 0 31.8577778s14.3034921 31.8577778 31.8577778 31.8577778 31.8577778-14.3034921 31.8577778-31.8577778S49.4120635 0 31.8577778 0zm0 61.5483598c-16.3623281 0-29.69058203-13.328254-29.69058203-29.690582 0-16.3623281 13.32825393-29.69058203 29.69058203-29.69058203 16.362328 0 29.690582 13.32825393 29.690582 29.69058203 0 16.362328-13.328254 29.690582-29.690582 29.690582z"/>
        <path fill="#E98024" d="M46.0122751 21.6313228l-14.845291 11.9195767-11.7028571-5.8514286c-.541799-.2167196-1.1919577 0-1.4086773.4334392-.2167195.4334391 0 1.1919576.4334392 1.4086772l12.3530159 6.2848677c.3250793.2167196.8668783.1083598 1.1919576-.1083598l15.38709-12.3530158c.4334391-.4334392.5417989-1.0835979.1083598-1.5170371-.4334392-.4334391-1.0835979-.5417989-1.5170371-.2167195z"/>
    </g>
</svg>