<svg width="64" height="64" viewBox="0 0 64 64" xmlns="http://www.w3.org/2000/svg"><title>Finish_Icon</title><g fill-rule="nonzero" fill="none"><g><circle fill="#2A3052" cx="32" cy="32" r="32"/><circle fill="#E68026" cx="32.533" cy="32.533" r="21.867"/><path d="M14.871 32c0-15.115 10.493-27.773 24.596-31.124A32.12 32.12 0 0 0 32.03 0C14.34 0 0 14.327 0 32c0 17.673 14.34 32 32.03 32 2.562 0 5.05-.309 7.437-.876C25.364 59.773 14.87 47.114 14.87 32z" fill="#565B80"/><path d="M21.333 51.2c-3.798-5.26-6.055-11.696-6.055-18.667 0-6.97 2.257-13.405 6.055-18.666-6.381 3.806-10.666 10.73-10.666 18.666 0 7.937 4.285 14.861 10.666 18.667z" fill="#E68026"/></g><path fill="#FFF" d="M19.969 38.59l9.156 19.247 2.318-.963-10.439-21.942"/><path d="M55.825 28.226c-5.613 2.5-7.094-.827-12.708 1.672-5.614 2.5-4.132 5.827-9.746 8.326-5.614 2.5-7.095-.828-12.708 1.672L13.11 22.934c5.613-2.5 7.094.827 12.708-1.672 5.614-2.5 4.132-5.826 9.746-8.325 5.614-2.5 7.095.827 12.709-1.672l7.551 16.961z" fill="#FFF"/><g fill="#C2C2C2"><path d="M24.5 33.406v.001c-1.774-.208-3.548-.415-6.355.835l-2.516-5.653v-.001c2.807-1.25 4.58-1.043 6.353-.836h.001l2.517 5.654zM30.855 32.57l2.517 5.654c-2.807 1.25-4.582 1.043-6.355.836L24.5 33.407c1.773.207 3.546.413 6.353-.836l.001-.001z"/><path d="M28.337 26.915l-.001.001c-2.807 1.25-4.58 1.044-6.353.837v-.002l-2.517-5.653c1.774.207 3.547.414 6.353-.836h.001l2.517 5.653zM33.209 22.754l2.518 5.653c-1.033 1.457-2.066 2.913-4.872 4.163l-2.518-5.655c2.806-1.25 3.84-2.704 4.872-4.161zM40.6 24.245l2.517 5.653c-2.807 1.25-3.84 2.707-4.872 4.164l-2.518-5.654c1.033-1.457 2.066-2.913 4.873-4.163zM35.566 12.937l2.516 5.654c-2.806 1.25-3.839 2.705-4.873 4.162L30.693 17.1c1.033-1.457 2.065-2.914 4.873-4.163z"/><path d="M44.437 17.755l2.517 5.653c-1.773-.207-3.547-.413-6.354.836v.002l-2.518-5.655c2.808-1.25 4.582-1.044 6.355-.836zM53.308 22.573l2.517 5.653c-2.808 1.25-4.58 1.043-6.353.837l-2.517-5.654-.001-.001c1.774.208 3.548.415 6.354-.835zM48.274 11.266l2.517 5.653c-2.807 1.25-4.58 1.043-6.354.836L41.921 12.1c1.773.207 3.546.414 6.353-.837v.002z"/></g></g></svg>