<svg width="64" height="64" viewBox="0 0 64 64" xmlns="http://www.w3.org/2000/svg"><title>Microphone_Icon</title><g fill-rule="nonzero" fill="none"><g><circle fill="#2A3052" cx="32" cy="32" r="32"/><circle fill="#E68026" cx="32.533" cy="32.533" r="21.867"/><path d="M14.871 32c0-15.115 10.493-27.773 24.596-31.124A32.12 32.12 0 0 0 32.03 0C14.34 0 0 14.327 0 32c0 17.673 14.34 32 32.03 32 2.562 0 5.05-.309 7.437-.876C25.364 59.773 14.87 47.114 14.87 32z" fill="#565B80"/><path d="M21.333 51.2c-3.798-5.26-6.055-11.696-6.055-18.667 0-6.97 2.257-13.405 6.055-18.666-6.381 3.806-10.666 10.73-10.666 18.666 0 7.937 4.285 14.861 10.666 18.667z" fill="#E68026"/></g><g transform="translate(14 12)"><circle fill="#FFF" cx="27.809" cy="8.484" r="8.484"/><path d="M.994 39.613L.07 38.69c2.092-2.091 2.32-3.102 2.563-4.172.256-1.132.521-2.302 2.6-4.38l.923.923c-1.812 1.811-2.015 2.707-2.25 3.745-.26 1.148-.554 2.45-2.912 4.807z" fill="#C2C2C2"/><path d="M6.288 32.486l-2.48-2.48a2.783 2.783 0 0 1-.07-3.864L19.34 9.372l7.58 7.58-16.77 15.603a2.783 2.783 0 0 1-3.863-.07z" fill="#FFF"/><path fill="#CCD4DA" d="M17.635 11.206l7.452 7.452 1.833-1.706-7.58-7.58zM13.886 24.648l-2.241-2.24 3.73-3.73 2.24 2.24z"/><path d="M32.884 15.256L21.038 3.409a.774.774 0 0 1 0-1.095l.6-.601a.774.774 0 0 1 1.095 0L34.58 13.56a.774.774 0 0 1 0 1.094l-.601.601a.774.774 0 0 1-1.095 0z" fill="#C2C2C2"/><path d="M32.878 15.25l-5.917-5.918 1.696-1.696 5.917 5.918c.306.305.306.8 0 1.106l-.59.59a.782.782 0 0 1-1.106 0z" fill="#C2C2C2"/></g></g></svg>