<svg width="64" height="64" viewBox="0 0 64 64" xmlns="http://www.w3.org/2000/svg"><title>Photos_Icon</title><g fill-rule="nonzero" fill="none"><g><circle fill="#2A3052" cx="32" cy="32" r="32"/><circle fill="#E68026" cx="32.533" cy="32.533" r="21.867"/><path d="M14.871 32c0-15.115 10.493-27.773 24.596-31.124A32.12 32.12 0 0 0 32.03 0C14.34 0 0 14.327 0 32c0 17.673 14.34 32 32.03 32 2.562 0 5.05-.309 7.437-.876C25.364 59.773 14.87 47.114 14.87 32z" fill="#565B80"/><path d="M21.333 51.2c-3.798-5.26-6.055-11.696-6.055-18.667 0-6.97 2.257-13.405 6.055-18.666-6.381 3.806-10.666 10.73-10.666 18.666 0 7.937 4.285 14.861 10.666 18.667z" fill="#E68026"/></g><g transform="translate(12 16)"><path fill="#C2C2C2" d="M14 0h14v3H14z"/><path d="M38.307 32H1.693C.758 32 0 31.23 0 30.282V4.718C0 3.77.758 3 1.693 3h36.614C39.242 3 40 3.77 40 4.718v25.564C40 31.23 39.242 32 38.307 32z" fill="#FFF"/><circle fill="#C2C2C2" cx="20.5" cy="17.5" r="11.5"/><circle fill="#CCD4DA" cx="21" cy="17" r="10"/><circle fill="#C2C2C2" cx="16.5" cy="19.5" r="2.5"/></g></g></svg>