<svg width="64" height="64" viewBox="0 0 64 64" xmlns="http://www.w3.org/2000/svg"><title>Start_Icon</title><g fill-rule="nonzero" fill="none"><g><circle fill="#2A3052" cx="32" cy="32" r="32"/><circle fill="#E68026" cx="32.533" cy="32.533" r="21.867"/><path d="M14.871 32c0-15.115 10.493-27.773 24.596-31.124A32.12 32.12 0 0 0 32.03 0C14.34 0 0 14.327 0 32c0 17.673 14.34 32 32.03 32 2.562 0 5.05-.309 7.437-.876C25.364 59.773 14.87 47.114 14.87 32z" fill="#565B80"/><path d="M21.333 51.2c-3.798-5.26-6.055-11.696-6.055-18.667 0-6.97 2.257-13.405 6.055-18.666-6.381 3.806-10.666 10.73-10.666 18.666 0 7.937 4.285 14.861 10.666 18.667z" fill="#E68026"/></g><g fill="#CCD4DA"><path d="M44.433 16.024l-5.225 5.225-3.866-3.866 5.225-5.225zM27.795 24.837l-3.648-.47-1.787 1.84h2.322l2.93 1.506 4.09 1.964-1.454-2.59z"/><path d="M40.885 23.116l-3.32 3.421-.001.001-6.548 6.749.926 3.297-4.19 3.207-2.153-3.454-1.14-4.997 2.334-2.406a4.153 4.153 0 0 0 1.16-2.605 4.18 4.18 0 0 0-1.16-3.218l7.043-7.259 7.05 7.264z"/></g><path d="M31.219 33.3l.958 3.324-4.338 3.233-2.23-3.481-1.18-5.039 2.416-2.424a4.135 4.135 0 0 0 1.2-2.627c.075.08 3.578 3.847 9.955.211L31.219 33.3z" fill="#CCD4DA"/><path d="M41.807 40.543l-2.774 2.824-1.58 1.612a10.237 10.237 0 0 1-3.166 2.193c-.95.42-1.963.693-3.007.804L28.698 52H18l6.55-10.552a10.275 10.275 0 0 1-1.91-6.384l.233-6.022c.017-.445.204-.844.495-1.134.291-.29.688-.47 1.124-.477.92-.015 1.673.74 1.673 1.677v3.324c0 .62.24 1.141.609 1.514.766.774 2.088.913 2.983.002l5.715-5.824 2.026-2.065a1.618 1.618 0 0 1 2.316 0 1.69 1.69 0 0 1 0 2.36l-1.864 1.899-.205.209-.943.96a1.628 1.628 0 0 1 1.158-.489 1.627 1.627 0 0 1 1.158.489 1.69 1.69 0 0 1 0 2.36l-.354.36a1.616 1.616 0 0 1 2.316 0 1.69 1.69 0 0 1 0 2.358l-1.589 1.618a1.616 1.616 0 0 1 2.316 0 1.692 1.692 0 0 1 0 2.36z" fill="#FFF"/><g fill="#FFF"><path d="M34.295 47.18a10 10 0 0 1-2.998.802L28.722 52H18.054l6.532-10.534a10.265 10.265 0 0 1-1.904-6.372l.232-6.012c.017-.444.203-.842.494-1.131.29-.29.685-.47 1.12-.477.918-.015 1.669.739 1.669 1.674v3.318c0 .62.239 1.14.606 1.511v.001s-1.321 9.774 7.492 13.203zM39.807 28.459l-1.86 1.896c-.525-2.79-2.47-2.19-2.47-2.19l2.02-2.061a1.613 1.613 0 0 1 2.31 0c.637.65.637 1.705 0 2.355zM39.112 33.877l-.352.36-.567.578c-.525-2.79-2.47-2.19-2.47-2.19l1.08-1.103a1.623 1.623 0 0 1 1.154-.488 1.622 1.622 0 0 1 1.155.488c.638.65.638 1.705 0 2.355z"/><path d="M41.069 36.592l-.353.36-.566.577c-.526-2.79-2.47-2.19-2.47-2.19l1.08-1.102a1.623 1.623 0 0 1 1.154-.488 1.622 1.622 0 0 1 1.155.488c.637.65.637 1.704 0 2.355zM41.794 40.562l-.353.36-.566.577c-.526-2.79-2.471-2.19-2.471-2.19l1.08-1.102a1.623 1.623 0 0 1 1.155-.488 1.622 1.622 0 0 1 1.155.488c.637.65.637 1.704 0 2.355z"/></g><g fill="#FFF"><path d="M37.923 22.76l-4.947 4.947-4.173-4.173 4.947-4.947zM38.165 20.352l-.868-.869 5.306-5.306.868.868z"/></g><g fill="#C2C2C2"><path d="M30.287 24.668l-.805-.805 1.664-1.664a.57.57 0 0 1 .805.805l-1.664 1.664zM31.88 26.261l-.805-.805 1.664-1.664a.57.57 0 1 1 .805.805l-1.664 1.664z"/></g><g fill="#CDD6E0"><path d="M38.773 31.389l-2.78 2.688c-.594.575-1.4.898-2.24.898l3.304-3.196.585-.367a1.723 1.723 0 0 1 1.131-.023zM40.781 34.03l-2.78 2.687c-.594.575-1.4.898-2.24.898l3.303-3.195.586-.368a1.723 1.723 0 0 1 1.131-.023zM41.525 37.89l-1.839 1.78c-.594.574-1.4.897-2.24.897l2.362-2.285.586-.368a1.723 1.723 0 0 1 1.13-.023z"/></g></g></svg>