<svg width="64" height="64" viewBox="0 0 64 64" xmlns="http://www.w3.org/2000/svg"><title>Tea time_Icon</title><g fill-rule="nonzero" fill="none"><g><circle fill="#2A3052" cx="32" cy="32" r="32"/><circle fill="#E68026" cx="32.533" cy="32.533" r="21.867"/><path d="M14.871 32c0-15.115 10.493-27.773 24.596-31.124A32.12 32.12 0 0 0 32.03 0C14.34 0 0 14.327 0 32c0 17.673 14.34 32 32.03 32 2.562 0 5.05-.309 7.437-.876C25.364 59.773 14.87 47.114 14.87 32z" fill="#565B80"/><path d="M21.333 51.2c-3.798-5.26-6.055-11.696-6.055-18.667 0-6.97 2.257-13.405 6.055-18.666-6.381 3.806-10.666 10.73-10.666 18.666 0 7.937 4.285 14.861 10.666 18.667z" fill="#E68026"/></g><path d="M48.793 48.057a2.813 2.813 0 0 1-2.813 2.813H17.84a2.815 2.815 0 0 1-2.814-2.813h33.766z" fill="#CCD4DA"/><path d="M54.705 31.959c0-4.302-4.28-4.976-7.096-5.014v-2.806H16.313v8.442c0 8.085 4.847 14.723 12.838 15.416.458.04 2.343.06 2.81.06.48 0 2.375-.021 2.843-.063 5.265-.469 9.145-3.525 11.184-7.864 5.555-1.629 8.717-3.54 8.717-8.171zm-7.802 5.72c.456-1.599.706-3.311.706-5.1v-2.892c2.1-.041 4.613.087 4.613 2.206.002 2.438-1.774 4.364-5.32 5.785z" fill="#FFF"/><path fill="#C2C2C2" d="M28.99 31.174h-1.3v-7.036h-1.407v7.036H24.81l-1.341 2.814v5.628h7.034v-5.628z"/><path d="M36.211 47.29c-.467.043-2.363.064-2.843.064-.467 0-2.35-.02-2.81-.06-7.992-.693-12.838-7.331-12.838-15.417v-7.739h-1.407v8.442c0 8.085 4.847 14.723 12.838 15.415.458.041 2.343.06 2.81.06.48 0 2.375-.02 2.843-.062a13.647 13.647 0 0 0 5.712-1.798c-1.31.564-2.739.956-4.305 1.095z" fill="#CCD4DA"/><path d="M39.146 14.555c-1.603-2.108-.366-3.203.04-3.562.347-.307.337-.794-.021-1.09a1.014 1.014 0 0 0-1.276.017c-1.706 1.51-1.795 3.452-.255 5.476.876 1.15.727 2.403-.397 3.35-.355.3-.359.786-.008 1.09.174.153.409.23.642.23.23 0 .457-.074.635-.223 1.727-1.455 1.979-3.532.64-5.288zm-11.5-3.562c.346-.307.337-.794-.021-1.09a1.017 1.017 0 0 0-1.278.016c-1.704 1.51-1.794 3.452-.254 5.476.876 1.15.728 2.403-.397 3.35a.696.696 0 0 0-.006 1.09c.175.154.407.23.64.23.23 0 .457-.073.635-.222 1.727-1.455 1.98-3.532.64-5.288-1.603-2.108-.367-3.204.04-3.562zm5.77 0c.346-.307.337-.794-.02-1.09a1.016 1.016 0 0 0-1.277.017c-1.705 1.51-1.795 3.452-.254 5.476.876 1.15.727 2.403-.397 3.35-.356.3-.359.786-.008 1.09.175.153.408.23.642.23.23 0 .457-.074.634-.223 1.727-1.454 1.98-3.532.64-5.288-1.603-2.108-.367-3.204.04-3.562z" fill="#CCD0D2"/></g></svg>