<svg width="20" height="20" xmlns="http://www.w3.org/2000/svg"><path fill="none" d="M-1-1h22v22H-1z"/><g><g stroke="null" fill="none"><path d="M10.017 19.973c5.517 0 9.956-4.439 9.956-9.956S15.534.06 10.017.06.061 4.499.061 10.017s4.438 9.956 9.956 9.956z" fill="#2775CA"/><path d="M12.755 11.593c0-1.452-.871-1.95-2.614-2.157-1.244-.166-1.493-.498-1.493-1.078 0-.581.415-.955 1.244-.955.747 0 1.162.25 1.37.872a.312.312 0 00.29.207h.664c.166 0 .29-.124.29-.29V8.15a2.073 2.073 0 00-1.867-1.7v-.996c0-.166-.124-.29-.332-.332h-.622c-.166 0-.29.124-.332.332v.954C8.11 6.574 7.32 7.403 7.32 8.44c0 1.369.83 1.908 2.572 2.115 1.162.208 1.535.457 1.535 1.12s-.58 1.12-1.369 1.12c-1.078 0-1.452-.456-1.576-1.078-.041-.166-.166-.25-.29-.25h-.706a.284.284 0 00-.29.291v.042c.166 1.037.83 1.784 2.199 1.991v.996c0 .166.124.29.332.332h.622c.166 0 .29-.125.332-.332v-.996c1.244-.207 2.074-1.078 2.074-2.199z" fill="#FFF"/><path d="M7.901 15.95c-3.236-1.162-4.895-4.771-3.692-7.966a6.137 6.137 0 013.692-3.692c.166-.083.25-.207.25-.415v-.58c0-.167-.084-.291-.25-.333-.041 0-.124 0-.166.042-3.94 1.245-6.098 5.435-4.853 9.376a7.463 7.463 0 004.853 4.853c.166.083.332 0 .374-.166.041-.041.041-.083.041-.166v-.58c0-.125-.124-.29-.249-.374zM12.3 3.005c-.166-.083-.332 0-.374.166-.041.041-.041.083-.041.166v.58c0 .167.124.333.249.415 3.236 1.162 4.895 4.771 3.692 7.966a6.137 6.137 0 01-3.692 3.692c-.166.083-.25.207-.25.415v.58c0 .166.084.29.25.332.041 0 .124 0 .166-.041 3.94-1.245 6.098-5.435 4.853-9.376A7.524 7.524 0 0012.3 3.006z" fill="#FFF"/></g></g></svg>