<svg width="20" height="20" xmlns="http://www.w3.org/2000/svg"><path fill="none" d="M-1-1h22v22H-1z"/><g><g stroke="null" fill="none"><circle fill="#0D74F6" r="9.957" cy="10.017" cx="9.957"/><g fill="#FFF"><path d="M5.945 4.534c1.178-.008 2.357-.001 3.535-.004.06 1.398.003 2.8.026 4.197.992-.596 1.842-1.41 2.561-2.31.089-.131.217-.245.25-.405-.254-.507-.577-.977-.837-1.48 1.471.002 2.943-.01 4.414.006-.788 2.182-2.409 4.033-4.406 5.198a10.255 10.255 0 01-7.306 1.151c-.638-.159-1.294-.305-1.867-.637 1.199.127 2.418.16 3.608-.073.029-1.88-.02-3.763.022-5.642"/><path d="M10.995 10.755c.583-.26 1.116-.615 1.66-.948 1.09 1.894 2.19 3.786 3.244 5.7-1.175.015-2.351.005-3.527.006-.675-1.133-1.24-2.33-1.9-3.472-.328.085-.651.19-.966.316-.016 1.052.02 2.104-.016 3.156-1.183 0-2.367.007-3.55-.005a157.553 157.553 0 01-.003-3.704c1.736.022 3.487-.293 5.057-1.048"/></g></g></g></svg>