<?xml version="1.0" encoding="utf-8"?>
<!-- Generator: Adobe Illustrator 19.1.0, SVG Export Plug-In . SVG Version: 6.00 Build 0)  -->
<svg version="1.1" id="Layer_1" xmlns="http://www.w3.org/2000/svg" xmlns:xlink="http://www.w3.org/1999/xlink" x="0" y="0"
	 viewBox="187 -64 454 184" style="enable-background:new 187 -64 454 184;" xml:space="preserve">
<style type="text/css">
	.st0{fill:#FFFEF4;stroke:#818181;stroke-width:0.5;}
	.st1{enable-background:new    ;}
	.st2{fill:#1A1A1A;}
	.st3{fill:#E98025;}
	.st4{fill:#F3F3F3;}
	.st5{fill:#242C61;}
	.st6{fill:#FFFFFF;}
	.st7{fill:none;stroke:#818181;stroke-width:0.5;}
	.st8{fill:none;stroke:#1A1A1A;}
	.st9{opacity:0.92;fill:#FEFDEB;stroke:#1A1A1A;stroke-width:0.25;enable-background:new    ;}
</style>
<path class="st0" d="M257.42,11.31h115.17v21.5H257.42L257.42,11.31z"/>
<g class="st1">
	<path class="st2" d="M275.33,17.12h1.33v5.79c0,1.01-0.11,1.81-0.34,2.4s-0.64,1.07-1.23,1.45c-0.59,0.37-1.38,0.56-2.34,0.56
		c-0.94,0-1.71-0.16-2.3-0.49s-1.02-0.79-1.28-1.4c-0.26-0.61-0.38-1.45-0.38-2.51v-5.79h1.33v5.78c0,0.87,0.08,1.51,0.24,1.92
		c0.16,0.41,0.44,0.73,0.83,0.95s0.88,0.33,1.45,0.33c0.98,0,1.67-0.22,2.08-0.66s0.62-1.29,0.62-2.55V17.12z"/>
	<path class="st2" d="M278.41,23.92l1.25-0.11c0.06,0.5,0.2,0.91,0.41,1.23c0.22,0.32,0.55,0.58,1.01,0.78
		c0.46,0.2,0.97,0.3,1.54,0.3c0.51,0,0.95-0.08,1.34-0.23s0.68-0.36,0.86-0.62c0.19-0.26,0.28-0.55,0.28-0.86
		c0-0.31-0.09-0.59-0.27-0.82c-0.18-0.23-0.48-0.43-0.9-0.59c-0.27-0.1-0.86-0.27-1.78-0.49c-0.92-0.22-1.57-0.43-1.93-0.62
		c-0.48-0.25-0.83-0.56-1.07-0.93c-0.23-0.37-0.35-0.79-0.35-1.25c0-0.51,0.14-0.98,0.43-1.42c0.29-0.44,0.71-0.77,1.26-1
		s1.16-0.34,1.84-0.34c0.74,0,1.4,0.12,1.97,0.36c0.57,0.24,1,0.59,1.31,1.06s0.47,0.99,0.49,1.58l-1.27,0.1
		c-0.07-0.63-0.3-1.11-0.69-1.44s-0.98-0.49-1.75-0.49c-0.8,0-1.39,0.15-1.75,0.44c-0.37,0.29-0.55,0.65-0.55,1.06
		c0,0.36,0.13,0.66,0.39,0.89c0.26,0.23,0.92,0.47,2,0.71c1.08,0.24,1.82,0.46,2.22,0.64c0.58,0.27,1.01,0.61,1.29,1.02
		c0.28,0.41,0.42,0.89,0.42,1.43c0,0.53-0.15,1.04-0.46,1.51c-0.31,0.47-0.74,0.84-1.32,1.1c-0.57,0.26-1.22,0.39-1.93,0.39
		c-0.91,0-1.67-0.13-2.28-0.4s-1.09-0.66-1.44-1.19C278.61,25.19,278.43,24.59,278.41,23.92z"/>
	<path class="st2" d="M288.2,27.14V17.12h3.45c0.78,0,1.37,0.05,1.78,0.14c0.57,0.13,1.06,0.37,1.47,0.72
		c0.53,0.45,0.92,1.02,1.19,1.71c0.26,0.69,0.39,1.49,0.39,2.38c0,0.76-0.09,1.44-0.27,2.02s-0.41,1.07-0.68,1.46
		c-0.28,0.38-0.58,0.69-0.91,0.91c-0.33,0.22-0.73,0.39-1.2,0.5s-1,0.17-1.61,0.17H288.2z M289.53,25.96h2.14
		c0.66,0,1.18-0.06,1.56-0.18s0.68-0.3,0.9-0.52c0.31-0.31,0.56-0.74,0.73-1.27c0.18-0.53,0.26-1.17,0.26-1.93
		c0-1.05-0.17-1.85-0.52-2.42c-0.34-0.56-0.76-0.94-1.25-1.13c-0.36-0.14-0.93-0.21-1.72-0.21h-2.11V25.96z"/>
	<path class="st2" d="M297.23,27.31l2.91-10.36h0.98l-2.9,10.36H297.23z"/>
	<path class="st2" d="M301.52,24.3l1.2-0.16c0.03,0.77,0.18,1.29,0.43,1.57s0.61,0.42,1.06,0.42c0.33,0,0.62-0.08,0.86-0.23
		c0.24-0.15,0.41-0.36,0.5-0.62c0.09-0.26,0.14-0.68,0.14-1.25v-6.9h1.33v6.83c0,0.84-0.1,1.49-0.3,1.95s-0.52,0.81-0.96,1.05
		s-0.96,0.36-1.55,0.36c-0.88,0-1.55-0.25-2.02-0.76S301.51,25.29,301.52,24.3z"/>
	<path class="st2" d="M309.2,27.14V17.12h3.78c0.67,0,1.17,0.03,1.52,0.1c0.49,0.08,0.9,0.24,1.24,0.47c0.33,0.23,0.6,0.55,0.8,0.97
		c0.2,0.42,0.3,0.87,0.3,1.37c0,0.85-0.27,1.57-0.81,2.16c-0.54,0.59-1.52,0.88-2.94,0.88h-2.57v4.07H309.2z M310.53,21.88h2.59
		c0.86,0,1.46-0.16,1.83-0.48s0.54-0.77,0.54-1.35c0-0.42-0.11-0.78-0.32-1.08c-0.21-0.3-0.49-0.5-0.84-0.59
		c-0.22-0.06-0.64-0.09-1.24-0.09h-2.56V21.88z"/>
	<path class="st2" d="M321.36,27.14v-4.25l-3.86-5.78h1.61l1.98,3.02c0.36,0.57,0.7,1.13,1.02,1.7c0.3-0.52,0.67-1.11,1.09-1.77
		l1.94-2.95h1.54l-4,5.78v4.25H321.36z"/>
</g>
<path class="st3" d="M357.88,20.88l4.46,4.46l4.46-4.46H357.88z"/>
<g>
	<g>
		<path d="M263.8,2.13h5.04v0.79h-10.82V2.13h4.94v-2.97h-3.81v-0.79h3.81v-2.76h-4.34v-0.79h9.63v0.79h-4.45v2.76h3.93v0.79h-3.93
			V2.13z M261.65-7.86c1.26,0.43,2.9,1.2,3.75,1.78l-0.6,0.71c-0.8-0.59-2.43-1.39-3.72-1.87L261.65-7.86z"/>
		<path d="M280.95-0.42h-2.45c-0.37,0.8-0.9,1.45-1.61,1.98c1.43,0.36,2.72,0.76,3.68,1.13l-0.49,0.67
			c-1.06-0.43-2.46-0.88-4.04-1.28c-1.37,0.7-3.23,1.08-5.66,1.26c-0.06-0.24-0.19-0.54-0.32-0.72c2-0.11,3.59-0.36,4.82-0.82
			c-0.78-0.18-1.57-0.35-2.39-0.5l-0.28,0.36l-0.76-0.28c0.38-0.49,0.86-1.13,1.33-1.8h-2.9v-0.7h3.38c0.29-0.42,0.56-0.84,0.8-1.21
			h-3.14v-3.11h2.7v-1.09h-3.65v-0.73h10.88v0.73h-3.72v1.09h2.78v3.11h-5.39l0.58,0.16c-0.04,0.08-0.12,0.12-0.29,0.11
			c-0.19,0.29-0.4,0.61-0.62,0.95h6.74V-0.42z M271.7-4.75v1.74h1.93v-1.74H271.7z M273.73-0.42c-0.26,0.38-0.54,0.77-0.8,1.13
			c1.01,0.18,2.02,0.38,2.97,0.61c0.74-0.44,1.29-1.01,1.69-1.74H273.73z M274.4-6.53v1.09h1.97v-1.09H274.4z M274.4-3.01h1.97
			v-1.74h-1.97V-3.01z M279.13-4.75h-1.98v1.74h1.98V-4.75z"/>
		<path d="M281.81-1.54c0.91-0.96,2.81-3.07,3.49-3.8c0.31-0.31,0.62-0.46,0.94-0.46c0.32,0,0.65,0.17,0.97,0.46
			c1.55,1.42,4.04,4.19,5.85,6.54l-0.72,0.66c-1.7-2.36-4.21-5.21-5.55-6.45c-0.2-0.19-0.36-0.3-0.52-0.3c-0.16,0-0.3,0.12-0.49,0.3
			c-0.56,0.61-2.31,2.63-3.12,3.49c0.01,0.02,0.01,0.06,0.01,0.08c0,0.1-0.05,0.19-0.12,0.25L281.81-1.54z M290.9-7.62
			c0.73,0,1.33,0.6,1.33,1.34c0,0.74-0.6,1.34-1.33,1.34c-0.76,0-1.35-0.6-1.35-1.34C289.54-7.04,290.17-7.62,290.9-7.62z
			 M291.83-6.27c0-0.53-0.42-0.96-0.94-0.96c-0.53,0-0.96,0.43-0.96,0.96c0,0.52,0.43,0.95,0.96,0.95
			C291.44-5.33,291.83-5.78,291.83-6.27z"/>
		<path d="M304-6.37c-0.02,0.05-0.1,0.08-0.16,0.11c-0.65,1.54-1.68,2.87-2.84,3.84c-0.18-0.16-0.52-0.37-0.73-0.49
			c1.1-0.8,1.99-1.97,2.39-2.97h-8.59v-0.82h9.04l0.13-0.06L304-6.37z M299.32-4.19c-0.01,0.1-0.12,0.18-0.28,0.2
			c-0.35,2.83-1.32,5.53-3.79,6.96c-0.17-0.14-0.48-0.42-0.71-0.55c2.45-1.34,3.32-3.85,3.61-6.74L299.32-4.19z"/>
		<path d="M305.18-3.19c0-0.44,0.29-0.77,0.71-0.77c0.43,0,0.71,0.32,0.71,0.77c0,0.43-0.28,0.77-0.71,0.77
			C305.44-2.42,305.18-2.8,305.18-3.19z M305.18,1.71c0-0.44,0.29-0.77,0.71-0.77c0.43,0,0.71,0.32,0.71,0.77
			c0,0.42-0.28,0.75-0.71,0.75C305.44,2.47,305.18,2.11,305.18,1.71z"/>
	</g>
</g>
<path class="st0" d="M413.26,11.31h115.17v21.5H413.26V11.31z"/>
<g class="st1">
	<path class="st2" d="M424.17,18.43v-1.18h6.49v0.96c-0.64,0.68-1.27,1.58-1.9,2.71c-0.63,1.13-1.11,2.28-1.45,3.47
		c-0.25,0.84-0.4,1.76-0.47,2.75h-1.26c0.01-0.79,0.17-1.74,0.46-2.86c0.3-1.12,0.72-2.19,1.28-3.23c0.55-1.04,1.14-1.91,1.77-2.62
		H424.17z"/>
	<path class="st2" d="M433.77,21.7c-0.51-0.19-0.89-0.45-1.13-0.8s-0.37-0.76-0.37-1.24c0-0.73,0.26-1.34,0.79-1.84
		c0.52-0.5,1.22-0.75,2.09-0.75c0.88,0,1.58,0.25,2.11,0.76c0.53,0.51,0.8,1.13,0.8,1.86c0,0.46-0.12,0.87-0.37,1.21
		c-0.24,0.34-0.61,0.61-1.11,0.8c0.62,0.2,1.08,0.52,1.41,0.97s0.48,0.98,0.48,1.6c0,0.86-0.3,1.58-0.91,2.16
		c-0.61,0.58-1.4,0.88-2.39,0.88c-0.99,0-1.79-0.29-2.39-0.88c-0.61-0.59-0.91-1.32-0.91-2.19c0-0.65,0.17-1.2,0.5-1.64
		C432.69,22.16,433.16,21.86,433.77,21.7z M433.13,24.25c0,0.35,0.08,0.69,0.25,1.02c0.17,0.33,0.41,0.58,0.74,0.76
		c0.33,0.18,0.68,0.27,1.06,0.27c0.59,0,1.07-0.19,1.46-0.57s0.57-0.86,0.57-1.44c0-0.59-0.2-1.08-0.59-1.47
		c-0.39-0.39-0.89-0.58-1.48-0.58c-0.58,0-1.06,0.19-1.44,0.57C433.32,23.19,433.13,23.67,433.13,24.25z M433.52,19.62
		c0,0.47,0.15,0.86,0.46,1.16c0.31,0.3,0.7,0.45,1.19,0.45c0.47,0,0.86-0.15,1.17-0.45c0.3-0.3,0.45-0.67,0.45-1.1
		c0-0.45-0.16-0.83-0.47-1.14c-0.31-0.31-0.7-0.46-1.17-0.46c-0.47,0-0.86,0.15-1.17,0.45C433.68,18.84,433.52,19.2,433.52,19.62z"
		/>
	<path class="st2" d="M440.35,27.14v-1.4h1.4v1.4H440.35z"/>
	<path class="st2" d="M443.56,24.49l1.23-0.16c0.14,0.7,0.38,1.2,0.72,1.51c0.34,0.31,0.75,0.46,1.24,0.46c0.58,0,1.07-0.2,1.47-0.6
		c0.4-0.4,0.6-0.9,0.6-1.49c0-0.57-0.18-1.03-0.55-1.4c-0.37-0.37-0.84-0.55-1.41-0.55c-0.23,0-0.52,0.05-0.87,0.14l0.14-1.08
		c0.08,0.01,0.15,0.01,0.2,0.01c0.52,0,1-0.14,1.42-0.41c0.42-0.27,0.63-0.7,0.63-1.26c0-0.45-0.15-0.83-0.46-1.12
		c-0.3-0.3-0.7-0.44-1.18-0.44c-0.48,0-0.88,0.15-1.2,0.45c-0.32,0.3-0.52,0.75-0.62,1.35l-1.23-0.22c0.15-0.83,0.49-1.46,1.03-1.92
		c0.53-0.45,1.2-0.68,1.99-0.68c0.55,0,1.05,0.12,1.51,0.35c0.46,0.24,0.81,0.56,1.06,0.96c0.24,0.41,0.37,0.84,0.37,1.29
		c0,0.43-0.12,0.83-0.35,1.18s-0.58,0.64-1.03,0.85c0.59,0.14,1.05,0.42,1.38,0.85c0.33,0.43,0.49,0.97,0.49,1.62
		c0,0.88-0.32,1.62-0.96,2.23c-0.64,0.61-1.44,0.91-2.42,0.91c-0.88,0-1.61-0.26-2.19-0.79S443.64,25.33,443.56,24.49z"/>
	<path class="st2" d="M451.34,24.51l1.29-0.11c0.1,0.63,0.32,1.1,0.67,1.42c0.35,0.32,0.77,0.48,1.26,0.48
		c0.59,0,1.09-0.22,1.5-0.67s0.62-1.04,0.62-1.78c0-0.7-0.2-1.26-0.59-1.66c-0.39-0.41-0.91-0.61-1.55-0.61
		c-0.4,0-0.75,0.09-1.07,0.27c-0.32,0.18-0.57,0.41-0.75,0.7l-1.16-0.15l0.97-5.15h4.98v1.18h-4l-0.54,2.69
		c0.6-0.42,1.23-0.63,1.89-0.63c0.88,0,1.61,0.3,2.21,0.91s0.9,1.39,0.9,2.34c0,0.91-0.26,1.69-0.79,2.35
		c-0.64,0.81-1.52,1.22-2.63,1.22c-0.91,0-1.66-0.25-2.23-0.77C451.75,26.03,451.42,25.36,451.34,24.51z"/>
	<path class="st2" d="M459.12,24.51l1.29-0.11c0.1,0.63,0.32,1.1,0.67,1.42c0.35,0.32,0.77,0.48,1.26,0.48
		c0.59,0,1.09-0.22,1.5-0.67s0.62-1.04,0.62-1.78c0-0.7-0.2-1.26-0.59-1.66c-0.39-0.41-0.91-0.61-1.55-0.61
		c-0.4,0-0.75,0.09-1.07,0.27c-0.32,0.18-0.57,0.41-0.75,0.7l-1.16-0.15l0.97-5.15h4.98v1.18h-4l-0.54,2.69
		c0.6-0.42,1.23-0.63,1.89-0.63c0.88,0,1.61,0.3,2.21,0.91s0.9,1.39,0.9,2.34c0,0.91-0.26,1.69-0.79,2.35
		c-0.64,0.81-1.52,1.22-2.63,1.22c-0.91,0-1.66-0.25-2.23-0.77C459.54,26.03,459.21,25.36,459.12,24.51z"/>
</g>
<g>
	<g>
		<path d="M417.77-5.59c-0.04,0.1-0.13,0.17-0.31,0.18c-0.48,2.88-1.48,5.91-2.88,7.69c-0.22-0.17-0.54-0.32-0.8-0.43
			c1.34-1.63,2.4-4.68,2.78-7.69L417.77-5.59z M423.8,2.21c-0.56-2.1-1.95-5.5-3.19-7.72l0.78-0.37c1.26,2.15,2.66,5.53,3.29,7.75
			L423.8,2.21z M422.06-7.44c0.55,0.49,1.14,1.24,1.46,1.78l-0.46,0.34c-0.34-0.54-0.96-1.32-1.46-1.78L422.06-7.44z M423.65-8.06
			c0.54,0.5,1.14,1.22,1.47,1.76l-0.47,0.35c-0.33-0.54-0.96-1.31-1.46-1.76L423.65-8.06z"/>
		<path d="M426.94-0.83v-5.83l1.14,0.07c-0.01,0.11-0.1,0.19-0.29,0.22v5.54H426.94z M433.62-7.13c-0.01,0.12-0.1,0.18-0.29,0.2
			v3.81c0,2.52-0.86,4.82-4.31,6.15c-0.12-0.18-0.42-0.49-0.62-0.65c3.32-1.24,4.07-3.29,4.07-5.5V-7.2L433.62-7.13z"/>
		<path d="M445.68-6.37c-0.02,0.05-0.1,0.08-0.16,0.11c-0.65,1.54-1.68,2.87-2.84,3.84c-0.18-0.16-0.52-0.37-0.73-0.49
			c1.1-0.8,1.99-1.97,2.39-2.97h-8.59v-0.82h9.04l0.13-0.06L445.68-6.37z M441-4.19c-0.01,0.1-0.12,0.18-0.28,0.2
			c-0.35,2.83-1.32,5.53-3.79,6.96c-0.17-0.14-0.48-0.42-0.71-0.55c2.45-1.34,3.32-3.85,3.61-6.74L441-4.19z"/>
		<path d="M446.86-3.19c0-0.44,0.29-0.77,0.71-0.77c0.43,0,0.71,0.32,0.71,0.77c0,0.43-0.28,0.77-0.71,0.77
			C447.11-2.42,446.86-2.8,446.86-3.19z M446.86,1.71c0-0.44,0.29-0.77,0.71-0.77c0.43,0,0.71,0.32,0.71,0.77
			c0,0.42-0.28,0.75-0.71,0.75C447.11,2.47,446.86,2.11,446.86,1.71z"/>
	</g>
</g>
<path class="st4" d="M232.69-28.88v-28.45c0-1.95,1.6-3.55,3.55-3.55h89.89c1.95,0,3.55,1.6,3.55,3.55v28.45"/>
<g class="st1">
	<path d="M258.96-48.87c-0.04,0.07-0.12,0.12-0.2,0.16c-0.6,1.42-1.62,2.88-2.69,3.84c-0.24-0.2-0.73-0.49-1.04-0.66
		c0.92-0.71,1.71-1.78,2.06-2.64h-8.16v-1.14h8.83l0.16-0.1L258.96-48.87z M254.33-46.61c-0.02,0.12-0.13,0.2-0.31,0.23
		c-0.32,2.72-1.31,5.43-3.74,6.87c-0.25-0.2-0.7-0.59-1.02-0.77c2.35-1.27,3.26-3.72,3.49-6.49L254.33-46.61z"/>
	<path d="M260.79-46.82c0.34,0.73,0.72,1.86,0.88,2.57l-0.94,0.26c-0.14-0.73-0.49-1.8-0.85-2.55L260.79-46.82z M267.85-46.61
		c-0.04,0.08-0.14,0.13-0.28,0.13c-0.96,3.51-2.77,5.64-5.59,6.78c-0.13-0.2-0.44-0.58-0.65-0.77c2.7-1.03,4.43-2.97,5.27-6.54
		L267.85-46.61z M263.68-47.34c0.25,0.77,0.48,1.92,0.56,2.67l-0.97,0.2c-0.1-0.78-0.32-1.88-0.58-2.67L263.68-47.34z"/>
	<path d="M269.25-48.58h7.56l0.08-0.05l1.09,0.79c-0.05,0.06-0.11,0.11-0.18,0.14c-1.03,4.49-3.08,6.74-6.76,8.16
		c-0.17-0.29-0.52-0.74-0.76-1c3.37-1.24,5.39-3.39,6.08-6.9h-7.11V-48.58z M278.41-50.65c0.72,0,1.29,0.59,1.29,1.31
		s-0.58,1.3-1.29,1.3c-0.73,0-1.31-0.58-1.31-1.3C277.1-50.09,277.7-50.65,278.41-50.65z M279.27-49.35c0-0.49-0.38-0.89-0.86-0.89
		c-0.49,0-0.88,0.4-0.88,0.89c0,0.48,0.38,0.88,0.88,0.88C278.91-48.47,279.27-48.89,279.27-49.35z"/>
	<path d="M280.66-39.63h-1.01l3.43-9.87h1.02L280.66-39.63z"/>
	<path d="M293.3-47.8c-0.04,0.07-0.1,0.11-0.17,0.14c-0.44,1.4-1.01,2.72-1.69,3.83c0.47,0.28,1.08,0.64,1.46,0.92l-0.71,1.12
		c-0.38-0.31-1.02-0.71-1.49-1c-1.08,1.44-2.43,2.58-4.15,3.41c-0.18-0.28-0.62-0.71-0.94-0.9c1.64-0.73,2.97-1.8,4.04-3.12
		c-0.76-0.43-1.61-0.84-2.35-1.13l0.66-0.91c0.77,0.28,1.62,0.64,2.41,1.07c0.52-0.79,0.98-1.86,1.25-2.73h-3.6
		c-0.77,1.24-1.67,2.34-2.6,3.11c-0.23-0.22-0.7-0.58-0.98-0.76c1.63-1.21,2.93-3.23,3.65-5.25l1.5,0.42
		c-0.06,0.14-0.2,0.18-0.36,0.17c-0.14,0.38-0.36,0.82-0.55,1.21h3.5l0.13-0.05L293.3-47.8z M292.03-50.33
		c0.53,0.42,1.16,1.16,1.5,1.66l-0.59,0.44c-0.3-0.46-1-1.26-1.46-1.66L292.03-50.33z M293.67-50.7c0.53,0.43,1.17,1.14,1.52,1.62
		l-0.6,0.44c-0.3-0.46-1.01-1.21-1.47-1.62L293.67-50.7z"/>
	<path d="M299.62-50.07l1.58,0.08c-0.01,0.13-0.16,0.25-0.36,0.28v1.79h2.82l0.23-0.1l1.04,0.43c-0.02,0.06-0.08,0.13-0.17,0.17
		c-0.64,4.26-2.33,6.63-6.1,7.98c-0.17-0.28-0.54-0.74-0.8-1.02c3.44-1.16,5.03-3.25,5.45-6.33h-6.2v2.76h-1.16v-3.89h3.68V-50.07z"
		/>
	<path d="M306.53-49.12c1.22,0.37,2.66,1.01,3.54,1.6l-0.62,1.08c-0.86-0.6-2.29-1.24-3.48-1.66L306.53-49.12z M306.3-40.91
		c4.14-1.27,6.94-3.65,8.36-6.96c0.35,0.28,0.75,0.5,1.1,0.7c-1.49,3.27-4.39,5.84-8.41,7.22c-0.01,0.12-0.1,0.24-0.19,0.29
		L306.3-40.91z"/>
</g>
<path class="st5" d="M331.77-28.88v-28.45c0-1.95,1.6-3.55,3.55-3.55h122.89c1.95,0,3.55,1.6,3.55,3.55v28.45"/>
<g class="st1">
	<path class="st6" d="M360.08-47.18c-0.02,0.08-0.1,0.16-0.19,0.22c-0.46,1.39-1.04,2.77-1.67,3.75c0.42,0.25,0.97,0.61,1.32,0.85
		l-0.88,1.48c-0.35-0.29-0.94-0.7-1.37-0.97c-1.06,1.36-2.42,2.42-4.04,3.21c-0.23-0.35-0.8-0.91-1.19-1.14
		c1.52-0.67,2.87-1.65,3.91-2.87c-0.64-0.38-1.37-0.76-2.03-1.02l0.83-1.17c0.66,0.24,1.4,0.56,2.1,0.92
		c0.47-0.73,0.84-1.52,1.1-2.35h-3.31c-0.74,1.15-1.67,2.25-2.58,3.01c-0.29-0.28-0.88-0.72-1.25-0.95
		c1.69-1.24,2.94-3.18,3.65-5.19l1.93,0.42c-0.05,0.13-0.18,0.2-0.4,0.19c-0.12,0.32-0.34,0.77-0.53,1.13h3.2l0.25-0.07
		L360.08-47.18z"/>
	<path class="st6" d="M362.81-46.13c0.34,0.72,0.7,1.82,0.85,2.54l-1.16,0.32c-0.16-0.74-0.48-1.8-0.82-2.54L362.81-46.13z
		 M369.79-45.85c-0.04,0.1-0.14,0.17-0.3,0.16c-0.98,3.54-2.84,5.62-5.58,6.73c-0.16-0.24-0.54-0.72-0.82-0.95
		c2.57-0.96,4.37-2.87,5.17-6.43L369.79-45.85z M365.68-46.63c0.25,0.73,0.48,1.88,0.58,2.64l-1.22,0.25
		c-0.1-0.79-0.34-1.88-0.59-2.65L365.68-46.63z"/>
	<path class="st6" d="M381.04-43.7h-3.91c-0.25,2.11-1.09,3.78-3.3,5.05c-0.35-0.32-0.86-0.73-1.25-0.98
		c1.98-1.07,2.79-2.29,3.01-4.07h-4.51v-1.39h4.63c0.02-0.62,0.02-1.2,0.02-1.91c-1.06,0.19-2.42,0.4-3.65,0.5
		c-0.1-0.37-0.23-0.78-0.41-1.19c2.91-0.29,5.92-0.95,7.3-1.52l1.04,1.16c-0.07,0.06-0.16,0.06-0.35,0.06
		c-0.68,0.24-1.79,0.54-2.6,0.71l0.53,0.04c-0.02,0.13-0.11,0.24-0.32,0.29c0,0.68-0.01,1.28-0.04,1.86h3.79V-43.7z"/>
	<path class="st6" d="M382.96-38.92h-1.2l3.15-9.91h1.2L382.96-38.92z"/>
	<path class="st6" d="M395.57-48.48c-0.06,0.13-0.25,0.19-0.4,0.2c-1.99,4.76-4.58,7.57-7.9,9.54c-0.26-0.3-0.82-0.84-1.25-1.14
		c3.14-1.8,5.82-4.5,7.56-9.34L395.57-48.48z"/>
	<path class="st6" d="M396.93-44.95h10.01v1.51h-9.51c-0.07,0.12-0.24,0.2-0.41,0.23L396.93-44.95z"/>
	<path class="st6" d="M417.33-47.18c-0.02,0.08-0.1,0.16-0.19,0.22c-0.46,1.39-1.04,2.77-1.67,3.75c0.42,0.25,0.97,0.61,1.32,0.85
		l-0.88,1.48c-0.35-0.29-0.94-0.7-1.37-0.97c-1.06,1.36-2.42,2.42-4.04,3.21c-0.23-0.35-0.8-0.91-1.19-1.14
		c1.52-0.67,2.87-1.65,3.91-2.87c-0.64-0.38-1.37-0.76-2.03-1.02l0.83-1.17c0.66,0.24,1.4,0.56,2.1,0.92
		c0.47-0.73,0.84-1.52,1.1-2.35h-3.31c-0.74,1.15-1.67,2.25-2.58,3.01c-0.29-0.28-0.88-0.72-1.25-0.95
		c1.69-1.24,2.94-3.18,3.65-5.19l1.93,0.42c-0.05,0.13-0.18,0.2-0.4,0.19c-0.12,0.32-0.34,0.77-0.53,1.13h3.2l0.25-0.07
		L417.33-47.18z"/>
	<path class="st6" d="M420.06-46.13c0.34,0.72,0.7,1.82,0.85,2.54l-1.16,0.32c-0.16-0.74-0.48-1.8-0.82-2.54L420.06-46.13z
		 M427.04-45.85c-0.04,0.1-0.14,0.17-0.3,0.16c-0.98,3.54-2.84,5.62-5.58,6.73c-0.16-0.24-0.54-0.72-0.82-0.95
		c2.57-0.96,4.37-2.87,5.17-6.43L427.04-45.85z M422.93-46.63c0.25,0.73,0.48,1.88,0.58,2.64l-1.22,0.25
		c-0.1-0.79-0.33-1.88-0.59-2.65L422.93-46.63z"/>
	<path class="st6" d="M438.3-43.7h-3.91c-0.25,2.11-1.09,3.78-3.3,5.05c-0.35-0.32-0.86-0.73-1.25-0.98
		c1.98-1.07,2.79-2.29,3.01-4.07h-4.51v-1.39h4.63C433-45.72,433-46.29,433-47c-1.06,0.19-2.42,0.4-3.65,0.5
		c-0.1-0.37-0.23-0.78-0.41-1.19c2.91-0.29,5.92-0.95,7.3-1.52l1.04,1.16c-0.07,0.06-0.16,0.06-0.35,0.06
		c-0.68,0.24-1.79,0.54-2.6,0.71l0.53,0.04c-0.02,0.13-0.11,0.24-0.32,0.29c0,0.68-0.01,1.28-0.04,1.86h3.79V-43.7z"/>
</g>
<path class="st4" d="M463.86-28.88v-28.45c0-1.95,1.6-3.55,3.55-3.55H580.3c1.95,0,3.55,1.6,3.55,3.55v28.45"/>
<g>
	<g>
		<path d="M479.32-40.53c2.81-0.8,5.13-2.3,6.5-4.69c0.22,0.28,0.64,0.66,0.88,0.85c-1.58,2.63-4.33,4.32-7.89,5.24
			c-0.02,0.11-0.11,0.23-0.22,0.26l-0.68-1.13l0.17-0.25v-8.66l1.61,0.08c-0.01,0.13-0.12,0.24-0.36,0.28V-40.53z"/>
		<path d="M488.41-48.39c1.22,0.37,2.66,1.01,3.54,1.6l-0.62,1.08c-0.86-0.6-2.29-1.24-3.48-1.66L488.41-48.39z M488.18-40.19
			c4.14-1.27,6.94-3.65,8.36-6.96c0.35,0.28,0.76,0.5,1.1,0.7c-1.49,3.27-4.39,5.84-8.41,7.22c-0.01,0.12-0.1,0.24-0.19,0.29
			L488.18-40.19z"/>
		<path d="M498.86-45.85c1.08,0.26,2.36,0.71,3.15,1.09l-0.52,1.04c-0.78-0.38-2.1-0.86-3.14-1.14L498.86-45.85z M499.39-40.12
			c3.75-1.22,6.46-3.25,8.07-6.81c0.24,0.22,0.78,0.61,1.03,0.77c-1.61,3.48-4.51,5.76-8.02,6.97c0.02,0.11-0.04,0.25-0.17,0.31
			L499.39-40.12z M500.25-48.81c1.08,0.31,2.33,0.77,3.14,1.17l-0.56,1.02c-0.85-0.46-2.03-0.92-3.11-1.24L500.25-48.81z
			 M505.78-49.21c0.49,0.43,1.13,1.16,1.49,1.72l-0.61,0.44c-0.31-0.48-0.98-1.31-1.44-1.71L505.78-49.21z M507.53-49.9
			c0.49,0.43,1.13,1.16,1.49,1.69l-0.61,0.44c-0.31-0.49-0.97-1.27-1.43-1.69L507.53-49.9z"/>
		<path d="M519.95-47.58v7.81c0,1.33-0.64,1.39-2.9,1.39c-0.05-0.31-0.23-0.84-0.38-1.14c0.48,0.02,0.96,0.02,1.33,0.02h0.53
			c0.23,0,0.3-0.07,0.3-0.29v-6.69h-3.33c-0.02,0.44-0.07,0.9-0.17,1.37c1.13,1.01,2.54,2.36,3.25,3.24l-0.95,0.74
			c-0.55-0.76-1.64-1.88-2.65-2.87c-0.47,1.12-1.32,2.22-2.85,3.11c-0.17-0.24-0.54-0.65-0.82-0.85c2.52-1.32,2.95-3.2,3.02-4.74
			h-3.08v8.11h-1.14v-9.21h4.23v-2.05l1.45,0.07c-0.01,0.11-0.1,0.18-0.29,0.22v1.76H519.95z"/>
		<path d="M522.06-38.91h-1.01l3.43-9.87h1.02L522.06-38.91z"/>
		<path d="M528.28-40.53c2.81-0.8,5.13-2.3,6.5-4.69c0.22,0.28,0.64,0.66,0.88,0.85c-1.58,2.63-4.33,4.32-7.89,5.24
			c-0.02,0.11-0.11,0.23-0.22,0.26l-0.68-1.13l0.17-0.25v-8.66l1.61,0.08c-0.01,0.13-0.12,0.24-0.36,0.28V-40.53z"/>
		<path d="M537.37-48.39c1.22,0.37,2.66,1.01,3.54,1.6l-0.62,1.08c-0.86-0.6-2.29-1.24-3.48-1.66L537.37-48.39z M537.14-40.19
			c4.14-1.27,6.94-3.65,8.36-6.96c0.35,0.28,0.75,0.5,1.1,0.7c-1.49,3.27-4.39,5.84-8.41,7.22c-0.01,0.12-0.1,0.24-0.19,0.29
			L537.14-40.19z"/>
		<path d="M547.82-45.85c1.08,0.26,2.36,0.71,3.15,1.09l-0.52,1.04c-0.78-0.38-2.1-0.86-3.14-1.14L547.82-45.85z M548.35-40.12
			c3.75-1.22,6.46-3.25,8.07-6.81c0.24,0.22,0.78,0.61,1.03,0.77c-1.61,3.48-4.51,5.76-8.02,6.97c0.02,0.11-0.04,0.25-0.17,0.31
			L548.35-40.12z M549.21-48.81c1.08,0.31,2.33,0.77,3.14,1.17l-0.56,1.02c-0.85-0.46-2.03-0.92-3.11-1.24L549.21-48.81z
			 M554.74-49.21c0.49,0.43,1.13,1.16,1.49,1.72l-0.61,0.44c-0.31-0.48-0.98-1.31-1.44-1.71L554.74-49.21z M556.49-49.9
			c0.49,0.43,1.13,1.16,1.49,1.69l-0.61,0.44c-0.31-0.49-0.97-1.27-1.43-1.69L556.49-49.9z"/>
		<path d="M567.26-49.51c-0.01,0.1-0.08,0.17-0.29,0.2v5.25c0.84,0.72,1.76,1.34,2.7,1.75c-0.26,0.23-0.64,0.67-0.82,0.97
			c-0.65-0.32-1.28-0.76-1.88-1.25v4.17h-1.18v-5.25c-0.65-0.67-1.24-1.43-1.73-2.21c-0.76,3.62-2.33,6.12-4.44,7.45
			c-0.19-0.25-0.64-0.68-0.91-0.85c1.24-0.72,2.27-1.8,3.04-3.26c-0.48-0.46-1.18-0.97-1.78-1.34l0.61-0.82
			c0.55,0.3,1.16,0.72,1.66,1.13c0.37-0.92,0.66-1.97,0.84-3.14h-2.12c-0.47,1.31-1.08,2.48-1.83,3.32
			c-0.17-0.22-0.55-0.6-0.79-0.79c1.08-1.16,1.85-3.29,2.25-5.46l1.36,0.3c-0.02,0.1-0.13,0.16-0.29,0.16
			c-0.11,0.47-0.22,0.94-0.35,1.39h2.22l0.2-0.05l0.72,0.3c-0.02,0.07-0.07,0.14-0.13,0.19c-0.02,0.19-0.06,0.38-0.08,0.56
			l0.37-0.14c0.31,0.58,0.72,1.14,1.19,1.68v-4.35L567.26-49.51z"/>
	</g>
</g>
<path class="st7" d="M232.69-29.43H593.9V120H232.69V-29.43z"/>
<path class="st0" d="M257.42,75.31h54.92v21.5h-54.92L257.42,75.31z"/>
<g class="st1">
	<path class="st2" d="M269.34,82.43v-1.18h6.49v0.96c-0.64,0.68-1.27,1.58-1.9,2.71s-1.11,2.28-1.45,3.47
		c-0.25,0.84-0.4,1.76-0.47,2.75h-1.26c0.01-0.79,0.17-1.74,0.46-2.86s0.72-2.19,1.27-3.23c0.55-1.04,1.14-1.91,1.77-2.62H269.34z"
		/>
</g>
<path class="st7" d="M317.67,75.31h55.92v21.5h-55.92V75.31z"/>
<g class="st1">
	<path class="st2" d="M324,91.14V81.12h3.45c0.78,0,1.37,0.05,1.78,0.14c0.57,0.13,1.06,0.37,1.47,0.72
		c0.53,0.45,0.92,1.02,1.19,1.71c0.26,0.69,0.39,1.49,0.39,2.38c0,0.76-0.09,1.44-0.27,2.02s-0.41,1.07-0.68,1.46
		c-0.28,0.38-0.58,0.69-0.91,0.91c-0.33,0.22-0.73,0.39-1.2,0.5s-1,0.17-1.61,0.17H324z M325.33,89.96h2.14
		c0.66,0,1.18-0.06,1.56-0.18s0.68-0.3,0.9-0.52c0.31-0.31,0.56-0.74,0.73-1.27c0.18-0.53,0.26-1.17,0.26-1.93
		c0-1.05-0.17-1.85-0.52-2.42c-0.34-0.56-0.76-0.94-1.25-1.13c-0.36-0.14-0.93-0.21-1.72-0.21h-2.11V89.96z"/>
	<path class="st2" d="M338.69,90.24c-0.46,0.39-0.89,0.66-1.32,0.82s-0.87,0.24-1.36,0.24c-0.8,0-1.41-0.2-1.84-0.58
		c-0.43-0.39-0.64-0.89-0.64-1.49c0-0.36,0.08-0.68,0.24-0.97c0.16-0.29,0.37-0.53,0.64-0.71s0.56-0.31,0.89-0.4
		c0.24-0.06,0.61-0.12,1.09-0.18c0.99-0.12,1.73-0.26,2.19-0.42c0-0.17,0.01-0.28,0.01-0.32c0-0.5-0.12-0.85-0.35-1.06
		c-0.31-0.28-0.78-0.42-1.4-0.42c-0.58,0-1.01,0.1-1.28,0.3c-0.28,0.2-0.48,0.56-0.61,1.08l-1.2-0.16c0.11-0.51,0.29-0.93,0.54-1.25
		c0.25-0.32,0.61-0.56,1.09-0.73c0.47-0.17,1.02-0.26,1.65-0.26c0.62,0,1.12,0.07,1.51,0.22s0.67,0.33,0.85,0.55
		c0.18,0.22,0.31,0.5,0.38,0.84c0.04,0.21,0.06,0.59,0.06,1.13v1.64c0,1.14,0.03,1.87,0.08,2.17c0.05,0.3,0.16,0.59,0.31,0.87h-1.29
		C338.81,90.88,338.73,90.58,338.69,90.24z M338.59,87.5c-0.45,0.18-1.12,0.34-2.01,0.46c-0.51,0.07-0.86,0.16-1.07,0.25
		s-0.37,0.22-0.49,0.4c-0.11,0.18-0.17,0.37-0.17,0.58c0,0.33,0.12,0.6,0.37,0.82s0.61,0.33,1.09,0.33c0.47,0,0.9-0.1,1.26-0.31
		c0.37-0.21,0.64-0.49,0.81-0.85c0.13-0.28,0.2-0.69,0.2-1.23V87.5z"/>
	<path class="st2" d="M341.68,93.93l-0.14-1.16c0.27,0.07,0.5,0.11,0.7,0.11c0.27,0,0.49-0.05,0.66-0.14s0.3-0.22,0.4-0.38
		c0.08-0.12,0.2-0.43,0.38-0.92c0.02-0.07,0.06-0.17,0.11-0.3l-2.75-7.27h1.33l1.51,4.2c0.2,0.53,0.37,1.09,0.53,1.68
		c0.14-0.57,0.31-1.12,0.51-1.65l1.55-4.23h1.23l-2.76,7.38c-0.3,0.8-0.53,1.35-0.69,1.65c-0.22,0.41-0.47,0.7-0.75,0.89
		c-0.28,0.19-0.62,0.28-1.01,0.28C342.24,94.08,341.98,94.04,341.68,93.93z"/>
	<path class="st2" d="M348.25,88.97l1.22-0.19c0.07,0.49,0.26,0.86,0.57,1.12s0.75,0.39,1.31,0.39c0.56,0,0.98-0.12,1.26-0.35
		c0.27-0.23,0.41-0.5,0.41-0.81c0-0.28-0.12-0.5-0.36-0.66c-0.17-0.11-0.59-0.25-1.26-0.42c-0.9-0.23-1.53-0.42-1.88-0.59
		c-0.35-0.17-0.61-0.4-0.79-0.69c-0.18-0.29-0.27-0.62-0.27-0.97c0-0.32,0.07-0.62,0.22-0.9c0.15-0.28,0.35-0.5,0.6-0.69
		c0.19-0.14,0.45-0.26,0.78-0.36c0.33-0.1,0.68-0.15,1.06-0.15c0.57,0,1.07,0.08,1.5,0.25s0.75,0.39,0.95,0.67
		c0.21,0.28,0.35,0.66,0.42,1.12l-1.2,0.16c-0.05-0.37-0.21-0.67-0.48-0.88s-0.63-0.31-1.11-0.31c-0.56,0-0.97,0.09-1.21,0.28
		s-0.36,0.41-0.36,0.66c0,0.16,0.05,0.3,0.15,0.43c0.1,0.13,0.26,0.24,0.47,0.33c0.12,0.05,0.49,0.15,1.09,0.31
		c0.87,0.23,1.48,0.42,1.82,0.57c0.34,0.15,0.61,0.36,0.81,0.65s0.29,0.63,0.29,1.05c0,0.41-0.12,0.8-0.36,1.16
		c-0.24,0.36-0.58,0.64-1.04,0.84c-0.45,0.2-0.96,0.3-1.53,0.3c-0.94,0-1.66-0.2-2.16-0.59S348.38,89.74,348.25,88.97z"/>
</g>
<path class="st3" d="M358.88,84.87l4.46,4.46l4.46-4.46H358.88z"/>
<g>
	<g>
		<path d="M264.02,57.56h-1.12v9.79h-0.78v-2.47c-1.44,0.25-2.87,0.5-3.8,0.65c-0.02,0.1-0.1,0.16-0.18,0.17l-0.31-0.92
			c0.31-0.04,0.67-0.08,1.07-0.14v-7.06h-1.04V56.8h6.16V57.56z M262.12,59.3v-1.74h-2.46v1.74H262.12z M262.12,61.8v-1.76h-2.46
			v1.76H262.12z M259.67,62.55v1.98c0.77-0.11,1.62-0.24,2.46-0.36v-1.62H259.67z M268.1,57.94l0.5,0.17
			c-0.01,0.06-0.06,0.12-0.1,0.16c-0.32,2.42-1,4.4-1.93,5.95c0.66,1.07,1.49,1.92,2.51,2.48c-0.19,0.14-0.46,0.46-0.58,0.66
			c-0.97-0.59-1.76-1.39-2.41-2.4c-0.72,1.01-1.56,1.8-2.49,2.39c-0.12-0.19-0.36-0.49-0.54-0.65c0.96-0.55,1.83-1.4,2.57-2.52
			c-0.76-1.44-1.28-3.19-1.64-5.16l0.74-0.14c0.3,1.67,0.74,3.2,1.39,4.5c0.68-1.27,1.21-2.83,1.51-4.62h-4.02v-0.79h4.34
			L268.1,57.94z"/>
		<path d="M274.76,62.06l0.18-0.02l0.48,0.1c0,0.07-0.02,0.17-0.04,0.25c-0.23,2.99-0.44,4.16-0.88,4.58
			c-0.3,0.32-0.66,0.38-1.48,0.38c-0.43,0-1.01-0.02-1.58-0.06c-0.02-0.25-0.13-0.59-0.3-0.83c0.9,0.08,1.79,0.1,2.09,0.1
			s0.44-0.02,0.58-0.13c0.31-0.28,0.52-1.26,0.71-3.61h-3.24c-0.05,0.23-0.08,0.43-0.13,0.62l-0.8-0.13
			c0.25-0.97,0.53-2.54,0.7-3.73h3.51v-2.1h-4.23v-0.75h5.04v3.96h-0.8v-0.35h-2.82c-0.1,0.58-0.2,1.18-0.3,1.73H274.76z
			 M278.84,56.31l1.04,0.07c-0.01,0.08-0.07,0.14-0.24,0.16v10.81h-0.8V56.31z"/>
		<path d="M287.86,63.64v0.73h-6.03v-0.73h1.21v-5.06H282v-0.73h1.04v-1.5l0.97,0.06c-0.01,0.08-0.07,0.13-0.23,0.16v1.28h2.34v-1.5
			l0.98,0.06c-0.01,0.08-0.07,0.14-0.23,0.16v1.28h0.91v0.73h-0.91v5.06H287.86z M284.49,64.97c-0.04,0.07-0.12,0.11-0.25,0.11
			c-0.42,0.8-1.09,1.69-1.74,2.25c-0.14-0.13-0.42-0.35-0.6-0.46c0.62-0.5,1.27-1.37,1.66-2.22L284.49,64.97z M286.12,58.58h-2.34
			v1.19h2.34V58.58z M283.79,60.44v1.21h2.34v-1.21H283.79z M283.79,62.31v1.33h2.34v-1.33H283.79z M292.61,56.81v9.51
			c0,0.97-0.44,1.04-2.24,1.02c-0.02-0.2-0.14-0.56-0.25-0.78c0.38,0.01,0.76,0.02,1.03,0.02c0.61,0,0.68,0,0.68-0.26V63.2h-2.73
			c-0.14,1.49-0.52,3.06-1.42,4.22c-0.12-0.16-0.44-0.4-0.62-0.48c0.12-0.14,0.23-0.3,0.34-0.47c-0.02,0-0.54,0.31-0.66,0.38
			c-0.23-0.49-0.77-1.29-1.25-1.86l0.64-0.35c0.48,0.56,1.02,1.31,1.27,1.8c0.94-1.57,1.03-3.61,1.03-5.22v-4.41H292.61z
			 M289.18,61.23c0,0.38-0.01,0.8-0.04,1.24h2.69v-2.11h-2.65V61.23z M291.83,57.56h-2.65v2.06h2.65V57.56z"/>
		<path d="M298.83,60.87h-3.57v6.49h-0.79V56.73h4.37V60.87z M298.06,57.37h-2.81v1.1h2.81V57.37z M295.26,60.23h2.81v-1.15h-2.81
			V60.23z M301.66,66.21h-3.78v0.64h-0.74v-5.03h4.52V66.21z M300.89,62.46h-3.01v1.2h3.01V62.46z M297.88,65.56h3.01V64.3h-3.01
			V65.56z M304.44,56.73v9.5c0,1.07-0.47,1.12-2.54,1.12c-0.02-0.23-0.16-0.61-0.28-0.84c0.38,0.01,0.77,0.02,1.07,0.02
			c0.88,0,0.95,0,0.95-0.3v-5.35h-3.67v-4.15H304.44z M303.64,57.37h-2.89v1.1h2.89V57.37z M300.75,60.24h2.89v-1.16h-2.89V60.24z"
			/>
		<path d="M306.14,60.81c0-0.44,0.29-0.77,0.71-0.77c0.43,0,0.71,0.32,0.71,0.77c0,0.43-0.28,0.77-0.71,0.77
			C306.39,61.58,306.14,61.2,306.14,60.81z M306.14,65.71c0-0.44,0.29-0.77,0.71-0.77c0.43,0,0.71,0.32,0.71,0.77
			c0,0.42-0.28,0.75-0.71,0.75C306.39,66.47,306.14,66.11,306.14,65.71z"/>
	</g>
</g>
<g>
	<g>
		<path d="M417.77,58.41c-0.04,0.1-0.13,0.17-0.31,0.18c-0.48,2.88-1.48,5.91-2.88,7.69c-0.22-0.17-0.54-0.32-0.8-0.43
			c1.34-1.63,2.4-4.68,2.78-7.69L417.77,58.41z M423.8,66.21c-0.56-2.1-1.95-5.5-3.19-7.72l0.78-0.37c1.26,2.15,2.66,5.53,3.29,7.75
			L423.8,66.21z M423.65,56.01c0.74,0,1.34,0.6,1.34,1.36c0,0.73-0.6,1.34-1.34,1.34c-0.74,0-1.34-0.61-1.34-1.34
			C422.3,56.59,422.93,56.01,423.65,56.01z M424.59,57.37c0-0.54-0.43-0.96-0.95-0.96c-0.53,0-0.95,0.42-0.95,0.96
			c0,0.52,0.42,0.95,0.95,0.95C424.19,58.31,424.59,57.86,424.59,57.37z"/>
		<path d="M435.64,57.31c-0.05,0.06-0.12,0.1-0.23,0.1c-0.04,0-0.07,0-0.12-0.01c-0.92,0.94-2.25,2.03-3.42,2.87
			c0.1,0.04,0.24,0.11,0.29,0.13c-0.02,0.07-0.13,0.14-0.26,0.16v6.44h-0.88v-6.16c-1.27,0.9-2.93,1.87-4.57,2.67
			c-0.12-0.19-0.34-0.49-0.5-0.66c3.27-1.51,6.86-4.08,8.79-6.2L435.64,57.31z"/>
		<path d="M447,57.63c-0.02,0.05-0.1,0.08-0.16,0.11c-0.65,1.54-1.68,2.87-2.84,3.84c-0.18-0.16-0.52-0.37-0.73-0.49
			c1.1-0.8,1.99-1.97,2.39-2.97h-8.59v-0.82h9.04l0.13-0.06L447,57.63z M442.32,59.81c-0.01,0.1-0.12,0.18-0.28,0.2
			c-0.35,2.83-1.32,5.53-3.79,6.96c-0.17-0.14-0.48-0.42-0.71-0.55c2.45-1.34,3.32-3.85,3.61-6.74L442.32,59.81z"/>
		<path d="M452.28,56.48l1.2,0.07c-0.01,0.12-0.16,0.23-0.34,0.24v1.88h3.21l0.18-0.07l0.74,0.34c-0.02,0.05-0.08,0.1-0.13,0.13
			c-0.55,4.2-2.29,6.63-6.09,7.96c-0.12-0.2-0.37-0.52-0.56-0.72c3.56-1.22,5.21-3.45,5.61-6.82h-6.78v2.97h-0.83v-3.79h3.78V56.48z
			"/>
		<path d="M465.84,62.92c-1.22-0.66-2.9-1.44-4.21-1.96v6h-0.9V56.54l1.21,0.07c-0.01,0.13-0.11,0.22-0.31,0.25v3.5l0.18-0.25
			c1.4,0.52,3.26,1.34,4.51,2L465.84,62.92z"/>
		<path d="M468.34,60.81c0-0.44,0.29-0.77,0.71-0.77c0.43,0,0.71,0.32,0.71,0.77c0,0.43-0.28,0.77-0.71,0.77
			C468.59,61.58,468.34,61.2,468.34,60.81z M468.34,65.71c0-0.44,0.29-0.77,0.71-0.77c0.43,0,0.71,0.32,0.71,0.77
			c0,0.42-0.28,0.75-0.71,0.75C468.59,66.47,468.34,66.11,468.34,65.71z"/>
	</g>
</g>
<path class="st7" d="M413.26,75.31h63.58v21.5h-63.58V75.31z"/>
<g class="st1">
	<path class="st2" d="M424.91,88.29l1.2-0.16c0.03,0.77,0.18,1.29,0.43,1.57c0.26,0.28,0.61,0.42,1.06,0.42
		c0.33,0,0.62-0.08,0.86-0.23c0.24-0.15,0.41-0.36,0.5-0.62c0.09-0.26,0.14-0.68,0.14-1.25v-6.9h1.33v6.83c0,0.84-0.1,1.49-0.3,1.95
		c-0.2,0.46-0.52,0.81-0.96,1.05c-0.44,0.24-0.96,0.36-1.55,0.36c-0.88,0-1.55-0.25-2.02-0.76
		C425.12,90.04,424.89,89.29,424.91,88.29z"/>
	<path class="st2" d="M432.59,91.14V81.12h3.78c0.67,0,1.17,0.03,1.52,0.1c0.49,0.08,0.91,0.24,1.24,0.47
		c0.33,0.23,0.6,0.55,0.8,0.97c0.2,0.42,0.3,0.87,0.3,1.37c0,0.85-0.27,1.57-0.81,2.16c-0.54,0.59-1.52,0.88-2.94,0.88h-2.57v4.07
		H432.59z M433.91,85.88h2.59c0.86,0,1.47-0.16,1.83-0.48c0.36-0.32,0.54-0.77,0.54-1.35c0-0.42-0.11-0.78-0.32-1.08
		c-0.21-0.3-0.49-0.5-0.84-0.59c-0.22-0.06-0.64-0.09-1.24-0.09h-2.56V85.88z"/>
	<path class="st2" d="M444.75,91.14v-4.25l-3.86-5.78h1.61l1.98,3.02c0.37,0.57,0.7,1.13,1.02,1.7c0.3-0.52,0.67-1.11,1.09-1.77
		l1.94-2.95h1.54l-4,5.78v4.25H444.75z"/>
</g>
<path class="st3" d="M463.14,84.88l4.46,4.46l4.46-4.46H463.14z"/>
<path class="st0" d="M482.26,75.31h50.48v21.5h-50.48V75.31z"/>
<g class="st1">
	<path class="st2" d="M498.98,91.14h-1.23V83.3c-0.3,0.28-0.68,0.57-1.17,0.85c-0.48,0.28-0.91,0.49-1.3,0.64v-1.19
		c0.69-0.32,1.29-0.72,1.8-1.18c0.52-0.46,0.88-0.91,1.09-1.34h0.79V91.14z"/>
	<path class="st2" d="M502.13,86.2c0-1.18,0.12-2.14,0.37-2.86c0.24-0.72,0.61-1.28,1.09-1.67c0.48-0.39,1.09-0.59,1.81-0.59
		c0.54,0,1.01,0.11,1.42,0.32c0.41,0.22,0.74,0.53,1,0.94c0.26,0.41,0.47,0.9,0.62,1.49c0.15,0.58,0.23,1.38,0.23,2.37
		c0,1.18-0.12,2.12-0.36,2.85c-0.24,0.72-0.6,1.28-1.08,1.68c-0.48,0.39-1.09,0.59-1.82,0.59c-0.97,0-1.72-0.35-2.28-1.04
		C502.46,89.44,502.13,88.08,502.13,86.2z M503.39,86.2c0,1.65,0.19,2.74,0.58,3.28c0.38,0.54,0.86,0.82,1.42,0.82
		c0.57,0,1.04-0.27,1.43-0.82c0.38-0.55,0.58-1.64,0.58-3.28c0-1.65-0.19-2.75-0.58-3.29c-0.39-0.54-0.87-0.81-1.44-0.81
		c-0.56,0-1.02,0.24-1.35,0.72C503.6,83.42,503.39,84.55,503.39,86.2z"/>
	<path class="st2" d="M509.91,86.2c0-1.18,0.12-2.14,0.37-2.86c0.24-0.72,0.61-1.28,1.09-1.67c0.48-0.39,1.09-0.59,1.81-0.59
		c0.54,0,1.01,0.11,1.42,0.32c0.41,0.22,0.74,0.53,1,0.94c0.26,0.41,0.47,0.9,0.62,1.49c0.15,0.58,0.23,1.38,0.23,2.37
		c0,1.18-0.12,2.12-0.36,2.85c-0.24,0.72-0.6,1.28-1.08,1.68c-0.48,0.39-1.09,0.59-1.82,0.59c-0.97,0-1.72-0.35-2.28-1.04
		C510.24,89.44,509.91,88.08,509.91,86.2z M511.18,86.2c0,1.65,0.19,2.74,0.58,3.28c0.38,0.54,0.86,0.82,1.42,0.82
		c0.57,0,1.04-0.27,1.43-0.82c0.38-0.55,0.58-1.64,0.58-3.28c0-1.65-0.19-2.75-0.58-3.29c-0.39-0.54-0.87-0.81-1.44-0.81
		c-0.56,0-1.02,0.24-1.35,0.72C511.39,83.42,511.18,84.55,511.18,86.2z"/>
	<path class="st2" d="M517.7,86.2c0-1.18,0.12-2.14,0.37-2.86c0.24-0.72,0.61-1.28,1.09-1.67c0.48-0.39,1.09-0.59,1.81-0.59
		c0.54,0,1.01,0.11,1.42,0.32c0.41,0.22,0.74,0.53,1,0.94c0.26,0.41,0.47,0.9,0.62,1.49c0.15,0.58,0.23,1.38,0.23,2.37
		c0,1.18-0.12,2.12-0.36,2.85c-0.24,0.72-0.6,1.28-1.08,1.68c-0.48,0.39-1.09,0.59-1.82,0.59c-0.97,0-1.72-0.35-2.28-1.04
		C518.03,89.44,517.7,88.08,517.7,86.2z M518.96,86.2c0,1.65,0.19,2.74,0.58,3.28c0.38,0.54,0.86,0.82,1.42,0.82
		c0.57,0,1.04-0.27,1.43-0.82c0.38-0.55,0.58-1.64,0.58-3.28c0-1.65-0.19-2.75-0.58-3.29c-0.39-0.54-0.87-0.81-1.44-0.81
		c-0.56,0-1.02,0.24-1.35,0.72C519.18,83.42,518.96,84.55,518.96,86.2z"/>
</g>
<path class="st8" d="M219.74-2.33h29"/>
<path class="st9" d="M187.24-21.33h33v38h-33V-21.33z"/>
<g class="st1">
	<path class="st3" d="M206.11,4.23h-2.74V-6.11c-1,0.94-2.18,1.63-3.54,2.08v-2.49c0.72-0.23,1.49-0.68,2.33-1.33
		s1.42-1.42,1.73-2.29h2.23V4.23z"/>
</g>
<path class="st8" d="M219.74,62.5h29"/>
<path class="st9" d="M187.24,43.5h33v38h-33V43.5z"/>
<g class="st1">
	<path class="st3" d="M208.36,66.51v2.55h-9.62c0.1-0.96,0.42-1.88,0.94-2.74s1.55-2.01,3.09-3.43c1.24-1.15,2-1.93,2.28-2.34
		c0.38-0.57,0.57-1.13,0.57-1.68c0-0.61-0.16-1.08-0.49-1.41s-0.78-0.49-1.36-0.49c-0.57,0-1.03,0.17-1.37,0.52
		s-0.53,0.92-0.59,1.72l-2.73-0.27c0.16-1.51,0.67-2.59,1.53-3.25s1.93-0.99,3.22-0.99c1.41,0,2.52,0.38,3.33,1.14
		s1.21,1.71,1.21,2.84c0,0.64-0.12,1.26-0.35,1.84s-0.6,1.19-1.1,1.83c-0.33,0.42-0.93,1.03-1.8,1.83s-1.41,1.32-1.65,1.58
		s-0.42,0.51-0.56,0.76H208.36z"/>
</g>
<path class="st8" d="M543.74,87.12h64.42"/>
<path class="st9" d="M607.76,68.12h33v38h-33V68.12z"/>
<g class="st1">
	<path class="st3" d="M625,93.67v-2.88h-5.86v-2.4l6.21-9.09h2.3v9.08h1.78v2.41h-1.78v2.88H625z M625,88.38v-4.89l-3.29,4.89H625z"
		/>
</g>
<path class="st8" d="M588.24-45h19.92"/>
<path class="st9" d="M607.76-64h33v38h-33V-64z"/>
<g class="st1">
	<path class="st3" d="M619.52-42.24l2.66-0.32c0.08,0.68,0.31,1.19,0.68,1.55s0.82,0.54,1.35,0.54c0.57,0,1.04-0.21,1.43-0.64
		c0.39-0.43,0.58-1.01,0.58-1.74c0-0.69-0.19-1.24-0.56-1.64s-0.82-0.61-1.36-0.61c-0.35,0-0.77,0.07-1.26,0.21l0.3-2.24
		c0.74,0.02,1.31-0.14,1.7-0.48s0.59-0.8,0.59-1.36c0-0.48-0.14-0.87-0.43-1.15c-0.29-0.29-0.67-0.43-1.14-0.43
		c-0.47,0-0.87,0.16-1.2,0.49s-0.53,0.8-0.61,1.43l-2.53-0.43c0.18-0.87,0.44-1.56,0.8-2.08c0.36-0.52,0.85-0.92,1.48-1.22
		s1.35-0.44,2.13-0.44c1.35,0,2.43,0.43,3.24,1.29c0.67,0.7,1.01,1.5,1.01,2.38c0,1.26-0.69,2.26-2.06,3.01
		c0.82,0.18,1.48,0.57,1.97,1.18c0.49,0.61,0.74,1.35,0.74,2.22c0,1.26-0.46,2.33-1.38,3.21s-2.06,1.33-3.43,1.33
		c-1.29,0-2.37-0.37-3.22-1.12C620.15-40.06,619.66-41.04,619.52-42.24z"/>
</g>
</svg>
