<svg id="Layer_1" xmlns="http://www.w3.org/2000/svg" viewBox="187 -64 454 184"><style>.st0{fill:#fffef4;stroke:#818181;stroke-width:.5}.st1{enable-background:new}.st2{fill:#1a1a1a}.st3{fill:#e98025}.st4{fill:#f3f3f3}.st5{fill:#242c61}.st6{fill:#fff}.st7{fill:none;stroke:#818181;stroke-width:.5}.st8,.st9{fill:none;stroke:#1a1a1a}.st9{opacity:.92;fill:#fefdeb;stroke-width:.25;enable-background:new}</style><path class="st0" d="M257.42 11.31h115.17v21.5H257.42v-21.5z"/><g class="st1"><path class="st2" d="M275.33 17.12h1.33v5.79c0 1.01-.11 1.81-.34 2.4s-.64 1.07-1.23 1.45c-.59.37-1.38.56-2.34.56-.94 0-1.71-.16-2.3-.49s-1.02-.79-1.28-1.4c-.26-.61-.38-1.45-.38-2.51v-5.79h1.33v5.78c0 .87.08 1.51.24 1.92.16.41.44.73.83.95s.88.33 1.45.33c.98 0 1.67-.22 2.08-.66s.62-1.29.62-2.55v-5.78zM278.41 23.92l1.25-.11c.06.5.2.91.41 1.23.22.32.55.58 1.01.78.46.2.97.3 1.54.3.51 0 .95-.08 1.34-.23s.68-.36.86-.62c.19-.26.28-.55.28-.86 0-.31-.09-.59-.27-.82-.18-.23-.48-.43-.9-.59-.27-.1-.86-.27-1.78-.49-.92-.22-1.57-.43-1.93-.62-.48-.25-.83-.56-1.07-.93-.23-.37-.35-.79-.35-1.25 0-.51.14-.98.43-1.42.29-.44.71-.77 1.26-1s1.16-.34 1.84-.34c.74 0 1.4.12 1.97.36.57.24 1 .59 1.31 1.06s.47.99.49 1.58l-1.27.1c-.07-.63-.3-1.11-.69-1.44s-.98-.49-1.75-.49c-.8 0-1.39.15-1.75.44-.37.29-.55.65-.55 1.06 0 .36.13.66.39.89.26.23.92.47 2 .71s1.82.46 2.22.64c.58.27 1.01.61 1.29 1.02.28.41.42.89.42 1.43 0 .53-.15 1.04-.46 1.51-.31.47-.74.84-1.32 1.1-.57.26-1.22.39-1.93.39-.91 0-1.67-.13-2.28-.4s-1.09-.66-1.44-1.19c-.37-.53-.55-1.13-.57-1.8zM288.2 27.14V17.12h3.45c.78 0 1.37.05 1.78.14.57.13 1.06.37 1.47.72.53.45.92 1.02 1.19 1.71.26.69.39 1.49.39 2.38 0 .76-.09 1.44-.27 2.02s-.41 1.07-.68 1.46c-.28.38-.58.69-.91.91-.33.22-.73.39-1.2.5s-1 .17-1.61.17h-3.61zm1.33-1.18h2.14c.66 0 1.18-.06 1.56-.18s.68-.3.9-.52c.31-.31.56-.74.73-1.27.18-.53.26-1.17.26-1.93 0-1.05-.17-1.85-.52-2.42-.34-.56-.76-.94-1.25-1.13-.36-.14-.93-.21-1.72-.21h-2.11v7.66zM297.23 27.31l2.91-10.36h.98l-2.9 10.36h-.99zM301.52 24.3l1.2-.16c.03.77.18 1.29.43 1.57s.61.42 1.06.42c.33 0 .62-.08.86-.23.24-.15.41-.36.5-.62.09-.26.14-.68.14-1.25v-6.9h1.33v6.83c0 .84-.1 1.49-.3 1.95s-.52.81-.96 1.05-.96.36-1.55.36c-.88 0-1.55-.25-2.02-.76s-.7-1.27-.69-2.26zM309.2 27.14V17.12h3.78c.67 0 1.17.03 1.52.1.49.08.9.24 1.24.47.33.23.6.55.8.97.2.42.3.87.3 1.37 0 .85-.27 1.57-.81 2.16-.54.59-1.52.88-2.94.88h-2.57v4.07h-1.32zm1.33-5.26h2.59c.86 0 1.46-.16 1.83-.48s.54-.77.54-1.35c0-.42-.11-.78-.32-1.08-.21-.3-.49-.5-.84-.59-.22-.06-.64-.09-1.24-.09h-2.56v3.59zM321.36 27.14v-4.25l-3.86-5.78h1.61l1.98 3.02c.36.57.7 1.13 1.02 1.7.3-.52.67-1.11 1.09-1.77l1.94-2.95h1.54l-4 5.78v4.25h-1.32z"/></g><path class="st3" d="M357.88 20.88l4.46 4.46 4.46-4.46h-8.92z"/><path d="M263.8 2.13h5.04v.79h-10.82v-.79h4.94V-.84h-3.81v-.79h3.81v-2.76h-4.34v-.79h9.63v.79h-4.45v2.76h3.93v.79h-3.93v2.97zm-2.15-9.99c1.26.43 2.9 1.2 3.75 1.78l-.6.71c-.8-.59-2.43-1.39-3.72-1.87l.57-.62zM280.95-.42h-2.45c-.37.8-.9 1.45-1.61 1.98 1.43.36 2.72.76 3.68 1.13l-.49.67c-1.06-.43-2.46-.88-4.04-1.28-1.37.7-3.23 1.08-5.66 1.26-.06-.24-.19-.54-.32-.72 2-.11 3.59-.36 4.82-.82-.78-.18-1.57-.35-2.39-.5l-.28.36-.76-.28c.38-.49.86-1.13 1.33-1.8h-2.9v-.7h3.38c.29-.42.56-.84.8-1.21h-3.14v-3.11h2.7v-1.09h-3.65v-.73h10.88v.73h-3.72v1.09h2.78v3.11h-5.39l.58.16c-.04.08-.12.12-.29.11-.19.29-.4.61-.62.95h6.74v.69zm-9.25-4.33v1.74h1.93v-1.74h-1.93zm2.03 4.33c-.26.38-.54.77-.8 1.13 1.01.18 2.02.38 2.97.61.74-.44 1.29-1.01 1.69-1.74h-3.86zm.67-6.11v1.09h1.97v-1.09h-1.97zm0 3.52h1.97v-1.74h-1.97v1.74zm4.73-1.74h-1.98v1.74h1.98v-1.74zM281.81-1.54c.91-.96 2.81-3.07 3.49-3.8.31-.31.62-.46.94-.46.32 0 .65.17.97.46 1.55 1.42 4.04 4.19 5.85 6.54l-.72.66c-1.7-2.36-4.21-5.21-5.55-6.45-.2-.19-.36-.3-.52-.3-.16 0-.3.12-.49.3-.56.61-2.31 2.63-3.12 3.49.01.02.01.06.01.08 0 .1-.05.19-.12.25l-.74-.77zm9.09-6.08c.73 0 1.33.6 1.33 1.34 0 .74-.6 1.34-1.33 1.34-.76 0-1.35-.6-1.35-1.34-.01-.76.62-1.34 1.35-1.34zm.93 1.35a.95.95 0 0 0-.94-.96.96.96 0 0 0-.96.96c0 .52.43.95.96.95.55-.01.94-.46.94-.95zM304-6.37c-.02.05-.1.08-.16.11-.65 1.54-1.68 2.87-2.84 3.84-.18-.16-.52-.37-.73-.49 1.1-.8 1.99-1.97 2.39-2.97h-8.59v-.82h9.04l.13-.06.76.39zm-4.68 2.18c-.01.1-.12.18-.28.2-.35 2.83-1.32 5.53-3.79 6.96-.17-.14-.48-.42-.71-.55 2.45-1.34 3.32-3.85 3.61-6.74l1.17.13zM305.18-3.19c0-.44.29-.77.71-.77.43 0 .71.32.71.77 0 .43-.28.77-.71.77-.45 0-.71-.38-.71-.77zm0 4.9c0-.44.29-.77.71-.77.43 0 .71.32.71.77 0 .42-.28.75-.71.75-.45.01-.71-.35-.71-.75z"/><path class="st0" d="M413.26 11.31h115.17v21.5H413.26v-21.5z"/><g class="st1"><path class="st2" d="M424.17 18.43v-1.18h6.49v.96c-.64.68-1.27 1.58-1.9 2.71a16.27 16.27 0 0 0-1.45 3.47c-.25.84-.4 1.76-.47 2.75h-1.26c.01-.79.17-1.74.46-2.86.3-1.12.72-2.19 1.28-3.23.55-1.04 1.14-1.91 1.77-2.62h-4.92zM433.77 21.7c-.51-.19-.89-.45-1.13-.8s-.37-.76-.37-1.24c0-.73.26-1.34.79-1.84.52-.5 1.22-.75 2.09-.75.88 0 1.58.25 2.11.76.53.51.8 1.13.8 1.86 0 .46-.12.87-.37 1.21-.24.34-.61.61-1.11.8.62.2 1.08.52 1.41.97s.48.98.48 1.6c0 .86-.3 1.58-.91 2.16-.61.58-1.4.88-2.39.88-.99 0-1.79-.29-2.39-.88-.61-.59-.91-1.32-.91-2.19 0-.65.17-1.2.5-1.64.32-.44.79-.74 1.4-.9zm-.64 2.55c0 .35.08.69.25 1.02.17.33.41.58.74.76.33.18.68.27 1.06.27.59 0 1.07-.19 1.46-.57s.57-.86.57-1.44c0-.59-.2-1.08-.59-1.47-.39-.39-.89-.58-1.48-.58-.58 0-1.06.19-1.44.57-.38.38-.57.86-.57 1.44zm.39-4.63c0 .47.15.86.46 1.16.31.3.7.45 1.19.45.47 0 .86-.15 1.17-.45.3-.3.45-.67.45-1.1 0-.45-.16-.83-.47-1.14-.31-.31-.7-.46-1.17-.46s-.86.15-1.17.45c-.3.31-.46.67-.46 1.09zM440.35 27.14v-1.4h1.4v1.4h-1.4zM443.56 24.49l1.23-.16c.14.7.38 1.2.72 1.51.34.31.75.46 1.24.46.58 0 1.07-.2 1.47-.6.4-.4.6-.9.6-1.49 0-.57-.18-1.03-.55-1.4-.37-.37-.84-.55-1.41-.55-.23 0-.52.05-.87.14l.14-1.08a2.59 2.59 0 0 0 1.62-.4c.42-.27.63-.7.63-1.26 0-.45-.15-.83-.46-1.12-.3-.3-.7-.44-1.18-.44s-.88.15-1.2.45c-.32.3-.52.75-.62 1.35l-1.23-.22c.15-.83.49-1.46 1.03-1.92.53-.45 1.2-.68 1.99-.68.55 0 1.05.12 1.51.35.46.24.81.56 1.06.96.24.41.37.84.37 1.29 0 .43-.12.83-.35 1.18s-.58.64-1.03.85c.59.14 1.05.42 1.38.85.33.43.49.97.49 1.62 0 .88-.32 1.62-.96 2.23-.64.61-1.44.91-2.42.91-.88 0-1.61-.26-2.19-.79s-.93-1.2-1.01-2.04zM451.34 24.51l1.29-.11c.1.63.32 1.1.67 1.42.35.32.77.48 1.26.48.59 0 1.09-.22 1.5-.67s.62-1.04.62-1.78c0-.7-.2-1.26-.59-1.66-.39-.41-.91-.61-1.55-.61-.4 0-.75.09-1.07.27-.32.18-.57.41-.75.7l-1.16-.15.97-5.15h4.98v1.18h-4l-.54 2.69c.6-.42 1.23-.63 1.89-.63.88 0 1.61.3 2.21.91s.9 1.39.9 2.34c0 .91-.26 1.69-.79 2.35-.64.81-1.52 1.22-2.63 1.22-.91 0-1.66-.25-2.23-.77-.57-.51-.9-1.18-.98-2.03zM459.12 24.51l1.29-.11c.1.63.32 1.1.67 1.42.35.32.77.48 1.26.48.59 0 1.09-.22 1.5-.67s.62-1.04.62-1.78c0-.7-.2-1.26-.59-1.66-.39-.41-.91-.61-1.55-.61-.4 0-.75.09-1.07.27-.32.18-.57.41-.75.7l-1.16-.15.97-5.15h4.98v1.18h-4l-.54 2.69c.6-.42 1.23-.63 1.89-.63.88 0 1.61.3 2.21.91s.9 1.39.9 2.34c0 .91-.26 1.69-.79 2.35-.64.81-1.52 1.22-2.63 1.22-.91 0-1.66-.25-2.23-.77-.56-.51-.89-1.18-.98-2.03z"/></g><path d="M417.77-5.59c-.04.1-.13.17-.31.18-.48 2.88-1.48 5.91-2.88 7.69-.22-.17-.54-.32-.8-.43 1.34-1.63 2.4-4.68 2.78-7.69l1.21.25zm6.03 7.8c-.56-2.1-1.95-5.5-3.19-7.72l.78-.37c1.26 2.15 2.66 5.53 3.29 7.75l-.88.34zm-1.74-9.65a8.46 8.46 0 0 1 1.46 1.78l-.46.34c-.34-.54-.96-1.32-1.46-1.78l.46-.34zm1.59-.62c.54.5 1.14 1.22 1.47 1.76l-.47.35a9.29 9.29 0 0 0-1.46-1.76l.46-.35zM426.94-.83v-5.83l1.14.07c-.01.11-.1.19-.29.22v5.54h-.85zm6.68-6.3c-.01.12-.1.18-.29.2v3.81c0 2.52-.86 4.82-4.31 6.15a3.76 3.76 0 0 0-.62-.65c3.32-1.24 4.07-3.29 4.07-5.5V-7.2l1.15.07zM445.68-6.37c-.02.05-.1.08-.16.11-.65 1.54-1.68 2.87-2.84 3.84-.18-.16-.52-.37-.73-.49 1.1-.8 1.99-1.97 2.39-2.97h-8.59v-.82h9.04l.13-.06.76.39zM441-4.19c-.01.1-.12.18-.28.2-.35 2.83-1.32 5.53-3.79 6.96-.17-.14-.48-.42-.71-.55 2.45-1.34 3.32-3.85 3.61-6.74l1.17.13zM446.86-3.19c0-.44.29-.77.71-.77.43 0 .71.32.71.77 0 .43-.28.77-.71.77-.46 0-.71-.38-.71-.77zm0 4.9c0-.44.29-.77.71-.77.43 0 .71.32.71.77 0 .42-.28.75-.71.75-.46.01-.71-.35-.71-.75z"/><path class="st4" d="M232.69-28.88v-28.45c0-1.95 1.6-3.55 3.55-3.55h89.89c1.95 0 3.55 1.6 3.55 3.55v28.45"/><g class="st1"><path d="M258.96-48.87a.46.46 0 0 1-.2.16c-.6 1.42-1.62 2.88-2.69 3.84-.24-.2-.73-.49-1.04-.66.92-.71 1.71-1.78 2.06-2.64h-8.16v-1.14h8.83l.16-.1 1.04.54zm-4.63 2.26c-.02.12-.13.2-.31.23-.32 2.72-1.31 5.43-3.74 6.87-.25-.2-.7-.59-1.02-.77 2.35-1.27 3.26-3.72 3.49-6.49l1.58.16zM260.79-46.82c.34.73.72 1.86.88 2.57l-.94.26c-.14-.73-.49-1.8-.85-2.55l.91-.28zm7.06.21c-.04.08-.14.13-.28.13-.96 3.51-2.77 5.64-5.59 6.78-.13-.2-.44-.58-.65-.77 2.7-1.03 4.43-2.97 5.27-6.54l1.25.4zm-4.17-.73c.25.77.48 1.92.56 2.67l-.97.2c-.1-.78-.32-1.88-.58-2.67l.99-.2zM269.25-48.58h7.56l.08-.05 1.09.79c-.05.06-.11.11-.18.14-1.03 4.49-3.08 6.74-6.76 8.16a7.13 7.13 0 0 0-.76-1c3.37-1.24 5.39-3.39 6.08-6.9h-7.11v-1.14zm9.16-2.07c.72 0 1.29.59 1.29 1.31s-.58 1.3-1.29 1.3a1.3 1.3 0 0 1-1.31-1.3c0-.75.6-1.31 1.31-1.31zm.86 1.3c0-.49-.38-.89-.86-.89-.49 0-.88.4-.88.89 0 .48.38.88.88.88s.86-.42.86-.88zM280.66-39.63h-1.01l3.43-9.87h1.02l-3.44 9.87zM293.3-47.8c-.04.07-.1.11-.17.14-.44 1.4-1.01 2.72-1.69 3.83.47.28 1.08.64 1.46.92l-.71 1.12c-.38-.31-1.02-.71-1.49-1a11.12 11.12 0 0 1-4.15 3.41c-.18-.28-.62-.71-.94-.9 1.64-.73 2.97-1.8 4.04-3.12a19.3 19.3 0 0 0-2.35-1.13l.66-.91c.77.28 1.62.64 2.41 1.07.52-.79.98-1.86 1.25-2.73h-3.6c-.77 1.24-1.67 2.34-2.6 3.11-.23-.22-.7-.58-.98-.76 1.63-1.21 2.93-3.23 3.65-5.25l1.5.42c-.06.14-.2.18-.36.17-.14.38-.36.82-.55 1.21h3.5l.13-.05.99.45zm-1.27-2.53c.53.42 1.16 1.16 1.5 1.66l-.59.44c-.3-.46-1-1.26-1.46-1.66l.55-.44zm1.64-.37c.53.43 1.17 1.14 1.52 1.62l-.6.44c-.3-.46-1.01-1.21-1.47-1.62l.55-.44zM299.62-50.07l1.58.08c-.01.13-.16.25-.36.28v1.79h2.82l.23-.1 1.04.43c-.02.06-.08.13-.17.17-.64 4.26-2.33 6.63-6.1 7.98-.17-.28-.54-.74-.8-1.02 3.44-1.16 5.03-3.25 5.45-6.33h-6.2v2.76h-1.16v-3.89h3.68v-2.15zM306.53-49.12c1.22.37 2.66 1.01 3.54 1.6l-.62 1.08c-.86-.6-2.29-1.24-3.48-1.66l.56-1.02zm-.23 8.21c4.14-1.27 6.94-3.65 8.36-6.96.35.28.75.5 1.1.7-1.49 3.27-4.39 5.84-8.41 7.22a.4.4 0 0 1-.19.29l-.86-1.25z"/></g><path class="st5" d="M331.77-28.88v-28.45c0-1.95 1.6-3.55 3.55-3.55h122.89c1.95 0 3.55 1.6 3.55 3.55v28.45"/><g class="st1"><path class="st6" d="M360.08-47.18c-.02.08-.1.16-.19.22-.46 1.39-1.04 2.77-1.67 3.75.42.25.97.61 1.32.85l-.88 1.48c-.35-.29-.94-.7-1.37-.97-1.06 1.36-2.42 2.42-4.04 3.21-.23-.35-.8-.91-1.19-1.14 1.52-.67 2.87-1.65 3.91-2.87-.64-.38-1.37-.76-2.03-1.02l.83-1.17c.66.24 1.4.56 2.1.92.47-.73.84-1.52 1.1-2.35h-3.31c-.74 1.15-1.67 2.25-2.58 3.01-.29-.28-.88-.72-1.25-.95 1.69-1.24 2.94-3.18 3.65-5.19l1.93.42c-.05.13-.18.2-.4.19-.12.32-.34.77-.53 1.13h3.2l.25-.07 1.15.55zM362.81-46.13c.34.72.7 1.82.85 2.54l-1.16.32c-.16-.74-.48-1.8-.82-2.54l1.13-.32zm6.98.28c-.04.1-.14.17-.3.16-.98 3.54-2.84 5.62-5.58 6.73-.16-.24-.54-.72-.82-.95 2.57-.96 4.37-2.87 5.17-6.43l1.53.49zm-4.11-.78c.25.73.48 1.88.58 2.64l-1.22.25c-.1-.79-.34-1.88-.59-2.65l1.23-.24zM381.04-43.7h-3.91c-.25 2.11-1.09 3.78-3.3 5.05-.35-.32-.86-.73-1.25-.98 1.98-1.07 2.79-2.29 3.01-4.07h-4.51v-1.39h4.63c.02-.62.02-1.2.02-1.91-1.06.19-2.42.4-3.65.5-.1-.37-.23-.78-.41-1.19 2.91-.29 5.92-.95 7.3-1.52l1.04 1.16c-.07.06-.16.06-.35.06-.68.24-1.79.54-2.6.71l.53.04c-.02.13-.11.24-.32.29 0 .68-.01 1.28-.04 1.86h3.79v1.39zM382.96-38.92h-1.2l3.15-9.91h1.2l-3.15 9.91zM395.57-48.48c-.06.13-.25.19-.4.2-1.99 4.76-4.58 7.57-7.9 9.54-.26-.3-.82-.84-1.25-1.14 3.14-1.8 5.82-4.5 7.56-9.34l1.99.74zM396.93-44.95h10.01v1.51h-9.51c-.07.12-.24.2-.41.23l-.09-1.74zM417.33-47.18c-.02.08-.1.16-.19.22-.46 1.39-1.04 2.77-1.67 3.75.42.25.97.61 1.32.85l-.88 1.48c-.35-.29-.94-.7-1.37-.97-1.06 1.36-2.42 2.42-4.04 3.21-.23-.35-.8-.91-1.19-1.14 1.52-.67 2.87-1.65 3.91-2.87-.64-.38-1.37-.76-2.03-1.02l.83-1.17c.66.24 1.4.56 2.1.92.47-.73.84-1.52 1.1-2.35h-3.31c-.74 1.15-1.67 2.25-2.58 3.01-.29-.28-.88-.72-1.25-.95 1.69-1.24 2.94-3.18 3.65-5.19l1.93.42c-.05.13-.18.2-.4.19-.12.32-.34.77-.53 1.13h3.2l.25-.07 1.15.55zM420.06-46.13c.34.72.7 1.82.85 2.54l-1.16.32c-.16-.74-.48-1.8-.82-2.54l1.13-.32zm6.98.28c-.04.1-.14.17-.3.16-.98 3.54-2.84 5.62-5.58 6.73-.16-.24-.54-.72-.82-.95 2.57-.96 4.37-2.87 5.17-6.43l1.53.49zm-4.11-.78c.25.73.48 1.88.58 2.64l-1.22.25c-.1-.79-.33-1.88-.59-2.65l1.23-.24zM438.3-43.7h-3.91c-.25 2.11-1.09 3.78-3.3 5.05-.35-.32-.86-.73-1.25-.98 1.98-1.07 2.79-2.29 3.01-4.07h-4.51v-1.39h4.63c.03-.63.03-1.2.03-1.91-1.06.19-2.42.4-3.65.5-.1-.37-.23-.78-.41-1.19 2.91-.29 5.92-.95 7.3-1.52l1.04 1.16c-.07.06-.16.06-.35.06-.68.24-1.79.54-2.6.71l.53.04c-.02.13-.11.24-.32.29 0 .68-.01 1.28-.04 1.86h3.79v1.39z"/></g><path class="st4" d="M463.86-28.88v-28.45c0-1.95 1.6-3.55 3.55-3.55H580.3c1.95 0 3.55 1.6 3.55 3.55v28.45"/><path d="M479.32-40.53c2.81-.8 5.13-2.3 6.5-4.69.22.28.64.66.88.85-1.58 2.63-4.33 4.32-7.89 5.24-.02.11-.11.23-.22.26l-.68-1.13.17-.25v-8.66l1.61.08c-.01.13-.12.24-.36.28v8.02zM488.41-48.39c1.22.37 2.66 1.01 3.54 1.6l-.62 1.08c-.86-.6-2.29-1.24-3.48-1.66l.56-1.02zm-.23 8.2c4.14-1.27 6.94-3.65 8.36-6.96.35.28.76.5 1.1.7-1.49 3.27-4.39 5.84-8.41 7.22a.4.4 0 0 1-.19.29l-.86-1.25zM498.86-45.85c1.08.26 2.36.71 3.15 1.09l-.52 1.04c-.78-.38-2.1-.86-3.14-1.14l.51-.99zm.53 5.73c3.75-1.22 6.46-3.25 8.07-6.81.24.22.78.61 1.03.77-1.61 3.48-4.51 5.76-8.02 6.97.02.11-.04.25-.17.31l-.91-1.24zm.86-8.69c1.08.31 2.33.77 3.14 1.17l-.56 1.02c-.85-.46-2.03-.92-3.11-1.24l.53-.95zm5.53-.4c.49.43 1.13 1.16 1.49 1.72l-.61.44c-.31-.48-.98-1.31-1.44-1.71l.56-.45zm1.75-.69c.49.43 1.13 1.16 1.49 1.69l-.61.44c-.31-.49-.97-1.27-1.43-1.69l.55-.44zM519.95-47.58v7.81c0 1.33-.64 1.39-2.9 1.39-.05-.31-.23-.84-.38-1.14.48.02.96.02 1.33.02h.53c.23 0 .3-.07.3-.29v-6.69h-3.33c-.02.44-.07.9-.17 1.37 1.13 1.01 2.54 2.36 3.25 3.24l-.95.74c-.55-.76-1.64-1.88-2.65-2.87-.47 1.12-1.32 2.22-2.85 3.11-.17-.24-.54-.65-.82-.85 2.52-1.32 2.95-3.2 3.02-4.74h-3.08v8.11h-1.14v-9.21h4.23v-2.05l1.45.07c-.01.11-.1.18-.29.22v1.76h4.45zM522.06-38.91h-1.01l3.43-9.87h1.02l-3.44 9.87zM528.28-40.53c2.81-.8 5.13-2.3 6.5-4.69.22.28.64.66.88.85-1.58 2.63-4.33 4.32-7.89 5.24-.02.11-.11.23-.22.26l-.68-1.13.17-.25v-8.66l1.61.08c-.01.13-.12.24-.36.28v8.02zM537.37-48.39c1.22.37 2.66 1.01 3.54 1.6l-.62 1.08c-.86-.6-2.29-1.24-3.48-1.66l.56-1.02zm-.23 8.2c4.14-1.27 6.94-3.65 8.36-6.96.35.28.75.5 1.1.7-1.49 3.27-4.39 5.84-8.41 7.22a.4.4 0 0 1-.19.29l-.86-1.25zM547.82-45.85c1.08.26 2.36.71 3.15 1.09l-.52 1.04c-.78-.38-2.1-.86-3.14-1.14l.51-.99zm.53 5.73c3.75-1.22 6.46-3.25 8.07-6.81.24.22.78.61 1.03.77-1.61 3.48-4.51 5.76-8.02 6.97.02.11-.04.25-.17.31l-.91-1.24zm.86-8.69c1.08.31 2.33.77 3.14 1.17l-.56 1.02c-.85-.46-2.03-.92-3.11-1.24l.53-.95zm5.53-.4c.49.43 1.13 1.16 1.49 1.72l-.61.44c-.31-.48-.98-1.31-1.44-1.71l.56-.45zm1.75-.69c.49.43 1.13 1.16 1.49 1.69l-.61.44c-.31-.49-.97-1.27-1.43-1.69l.55-.44zM567.26-49.51c-.01.1-.08.17-.29.2v5.25c.84.72 1.76 1.34 2.7 1.75-.26.23-.64.67-.82.97-.65-.32-1.28-.76-1.88-1.25v4.17h-1.18v-5.25c-.65-.67-1.24-1.43-1.73-2.21-.76 3.62-2.33 6.12-4.44 7.45-.19-.25-.64-.68-.91-.85 1.24-.72 2.27-1.8 3.04-3.26-.48-.46-1.18-.97-1.78-1.34l.61-.82c.55.3 1.16.72 1.66 1.13.37-.92.66-1.97.84-3.14h-2.12c-.47 1.31-1.08 2.48-1.83 3.32-.17-.22-.55-.6-.79-.79 1.08-1.16 1.85-3.29 2.25-5.46l1.36.3c-.02.1-.13.16-.29.16-.11.47-.22.94-.35 1.39h2.22l.2-.05.72.3c-.02.07-.07.14-.13.19-.02.19-.06.38-.08.56l.37-.14c.31.58.72 1.14 1.19 1.68v-4.35l1.46.09z"/><path class="st7" d="M232.69-29.43H593.9V120H232.69V-29.43z"/><path class="st0" d="M257.42 75.31h54.92v21.5h-54.92v-21.5z"/><g class="st1"><path class="st2" d="M269.34 82.43v-1.18h6.49v.96c-.64.68-1.27 1.58-1.9 2.71s-1.11 2.28-1.45 3.47c-.25.84-.4 1.76-.47 2.75h-1.26c.01-.79.17-1.74.46-2.86s.72-2.19 1.27-3.23 1.14-1.91 1.77-2.62h-4.91z"/></g><path class="st7" d="M317.67 75.31h55.92v21.5h-55.92v-21.5z"/><g class="st1"><path class="st2" d="M324 91.14V81.12h3.45c.78 0 1.37.05 1.78.14.57.13 1.06.37 1.47.72.53.45.92 1.02 1.19 1.71.26.69.39 1.49.39 2.38 0 .76-.09 1.44-.27 2.02s-.41 1.07-.68 1.46c-.28.38-.58.69-.91.91-.33.22-.73.39-1.2.5s-1 .17-1.61.17H324zm1.33-1.18h2.14c.66 0 1.18-.06 1.56-.18s.68-.3.9-.52c.31-.31.56-.74.73-1.27.18-.53.26-1.17.26-1.93 0-1.05-.17-1.85-.52-2.42-.34-.56-.76-.94-1.25-1.13-.36-.14-.93-.21-1.72-.21h-2.11v7.66zM338.69 90.24c-.46.39-.89.66-1.32.82s-.87.24-1.36.24c-.8 0-1.41-.2-1.84-.58-.43-.39-.64-.89-.64-1.49 0-.36.08-.68.24-.97.16-.29.37-.53.64-.71s.56-.31.89-.4c.24-.06.61-.12 1.09-.18.99-.12 1.73-.26 2.19-.42 0-.17.01-.28.01-.32 0-.5-.12-.85-.35-1.06-.31-.28-.78-.42-1.4-.42-.58 0-1.01.1-1.28.3-.28.2-.48.56-.61 1.08l-1.2-.16c.11-.51.29-.93.54-1.25.25-.32.61-.56 1.09-.73.47-.17 1.02-.26 1.65-.26.62 0 1.12.07 1.51.22s.67.33.85.55c.18.22.31.5.38.84.04.21.06.59.06 1.13v1.64c0 1.14.03 1.87.08 2.17.05.3.16.59.31.87h-1.29c-.12-.27-.2-.57-.24-.91zm-.1-2.74c-.45.18-1.12.34-2.01.46-.51.07-.86.16-1.07.25s-.37.22-.49.4c-.11.18-.17.37-.17.58 0 .33.12.6.37.82s.61.33 1.09.33c.47 0 .9-.1 1.26-.31.37-.21.64-.49.81-.85.13-.28.2-.69.2-1.23v-.45zM341.68 93.93l-.14-1.16c.27.07.5.11.7.11.27 0 .49-.05.66-.14s.3-.22.4-.38c.08-.12.2-.43.38-.92.02-.07.06-.17.11-.3l-2.75-7.27h1.33l1.51 4.2c.2.53.37 1.09.53 1.68.14-.57.31-1.12.51-1.65l1.55-4.23h1.23l-2.76 7.38c-.3.8-.53 1.35-.69 1.65-.22.41-.47.7-.75.89-.28.19-.62.28-1.01.28-.25.01-.51-.03-.81-.14zM348.25 88.97l1.22-.19c.07.49.26.86.57 1.12s.75.39 1.31.39.98-.12 1.26-.35c.27-.23.41-.5.41-.81 0-.28-.12-.5-.36-.66-.17-.11-.59-.25-1.26-.42-.9-.23-1.53-.42-1.88-.59-.35-.17-.61-.4-.79-.69-.18-.29-.27-.62-.27-.97 0-.32.07-.62.22-.9s.35-.5.6-.69c.19-.14.45-.26.78-.36.33-.1.68-.15 1.06-.15.57 0 1.07.08 1.5.25s.75.39.95.67c.21.28.35.66.42 1.12l-1.2.16c-.05-.37-.21-.67-.48-.88s-.63-.31-1.11-.31c-.56 0-.97.09-1.21.28s-.36.41-.36.66c0 .16.05.3.15.43.1.13.26.24.47.33.12.05.49.15 1.09.31.87.23 1.48.42 1.82.57.34.15.61.36.81.65s.29.63.29 1.05c0 .41-.12.8-.36 1.16-.24.36-.58.64-1.04.84-.45.2-.96.3-1.53.3-.94 0-1.66-.2-2.16-.59s-.79-.96-.92-1.73z"/></g><path class="st3" d="M358.88 84.87l4.46 4.46 4.46-4.46h-8.92z"/><path d="M264.02 57.56h-1.12v9.79h-.78v-2.47c-1.44.25-2.87.5-3.8.65-.02.1-.1.16-.18.17l-.31-.92c.31-.04.67-.08 1.07-.14v-7.06h-1.04v-.78h6.16v.76zm-1.9 1.74v-1.74h-2.46v1.74h2.46zm0 2.5v-1.76h-2.46v1.76h2.46zm-2.45.75v1.98c.77-.11 1.62-.24 2.46-.36v-1.62h-2.46zm8.43-4.61l.5.17c-.01.06-.06.12-.1.16-.32 2.42-1 4.4-1.93 5.95.66 1.07 1.49 1.92 2.51 2.48-.19.14-.46.46-.58.66-.97-.59-1.76-1.39-2.41-2.4a8.93 8.93 0 0 1-2.49 2.39c-.12-.19-.36-.49-.54-.65.96-.55 1.83-1.4 2.57-2.52-.76-1.44-1.28-3.19-1.64-5.16l.74-.14c.3 1.67.74 3.2 1.39 4.5.68-1.27 1.21-2.83 1.51-4.62h-4.02v-.79h4.34l.15-.03zM274.76 62.06l.18-.02.48.1c0 .07-.02.17-.04.25-.23 2.99-.44 4.16-.88 4.58-.3.32-.66.38-1.48.38-.43 0-1.01-.02-1.58-.06-.02-.25-.13-.59-.3-.83.9.08 1.79.1 2.09.1s.44-.02.58-.13c.31-.28.52-1.26.71-3.61h-3.24c-.05.23-.08.43-.13.62l-.8-.13c.25-.97.53-2.54.7-3.73h3.51v-2.1h-4.23v-.75h5.04v3.96h-.8v-.35h-2.82c-.1.58-.2 1.18-.3 1.73h3.31zm4.08-5.75l1.04.07c-.01.08-.07.14-.24.16v10.81h-.8V56.31zM287.86 63.64v.73h-6.03v-.73h1.21v-5.06H282v-.73h1.04v-1.5l.97.06c-.01.08-.07.13-.23.16v1.28h2.34v-1.5l.98.06c-.01.08-.07.14-.23.16v1.28h.91v.73h-.91v5.06h.99zm-3.37 1.33c-.04.07-.12.11-.25.11-.42.8-1.09 1.69-1.74 2.25-.14-.13-.42-.35-.6-.46.62-.5 1.27-1.37 1.66-2.22l.93.32zm1.63-6.39h-2.34v1.19h2.34v-1.19zm-2.33 1.86v1.21h2.34v-1.21h-2.34zm0 1.87v1.33h2.34v-1.33h-2.34zm8.82-5.5v9.51c0 .97-.44 1.04-2.24 1.02-.02-.2-.14-.56-.25-.78.38.01.76.02 1.03.02.61 0 .68 0 .68-.26V63.2h-2.73c-.14 1.49-.52 3.06-1.42 4.22-.12-.16-.44-.4-.62-.48.12-.14.23-.3.34-.47-.02 0-.54.31-.66.38-.23-.49-.77-1.29-1.25-1.86l.64-.35c.48.56 1.02 1.31 1.27 1.8.94-1.57 1.03-3.61 1.03-5.22v-4.41h4.18zm-3.43 4.42c0 .38-.01.8-.04 1.24h2.69v-2.11h-2.65v.87zm2.65-3.67h-2.65v2.06h2.65v-2.06zM298.83 60.87h-3.57v6.49h-.79V56.73h4.37v4.14zm-.77-3.5h-2.81v1.1h2.81v-1.1zm-2.8 2.86h2.81v-1.15h-2.81v1.15zm6.4 5.98h-3.78v.64h-.74v-5.03h4.52v4.39zm-.77-3.75h-3.01v1.2h3.01v-1.2zm-3.01 3.1h3.01V64.3h-3.01v1.26zm6.56-8.83v9.5c0 1.07-.47 1.12-2.54 1.12-.02-.23-.16-.61-.28-.84.38.01.77.02 1.07.02.88 0 .95 0 .95-.3v-5.35h-3.67v-4.15h4.47zm-.8.64h-2.89v1.1h2.89v-1.1zm-2.89 2.87h2.89v-1.16h-2.89v1.16zM306.14 60.81c0-.44.29-.77.71-.77.43 0 .71.32.71.77 0 .43-.28.77-.71.77-.46 0-.71-.38-.71-.77zm0 4.9c0-.44.29-.77.71-.77.43 0 .71.32.71.77 0 .42-.28.75-.71.75-.46.01-.71-.35-.71-.75z"/><g><path d="M417.77 58.41c-.04.1-.13.17-.31.18-.48 2.88-1.48 5.91-2.88 7.69-.22-.17-.54-.32-.8-.43 1.34-1.63 2.4-4.68 2.78-7.69l1.21.25zm6.03 7.8c-.56-2.1-1.95-5.5-3.19-7.72l.78-.37c1.26 2.15 2.66 5.53 3.29 7.75l-.88.34zm-.15-10.2c.74 0 1.34.6 1.34 1.36 0 .73-.6 1.34-1.34 1.34-.74 0-1.34-.61-1.34-1.34-.01-.78.62-1.36 1.34-1.36zm.94 1.36c0-.54-.43-.96-.95-.96-.53 0-.95.42-.95.96 0 .52.42.95.95.95.55-.01.95-.46.95-.95zM435.64 57.31c-.05.06-.12.1-.23.1-.04 0-.07 0-.12-.01-.92.94-2.25 2.03-3.42 2.87.1.04.24.11.29.13-.02.07-.13.14-.26.16V67h-.88v-6.16c-1.27.9-2.93 1.87-4.57 2.67-.12-.19-.34-.49-.5-.66 3.27-1.51 6.86-4.08 8.79-6.2l.9.66zM447 57.63c-.02.05-.1.08-.16.11-.65 1.54-1.68 2.87-2.84 3.84-.18-.16-.52-.37-.73-.49 1.1-.8 1.99-1.97 2.39-2.97h-8.59v-.82h9.04l.13-.06.76.39zm-4.68 2.18c-.01.1-.12.18-.28.2-.35 2.83-1.32 5.53-3.79 6.96-.17-.14-.48-.42-.71-.55 2.45-1.34 3.32-3.85 3.61-6.74l1.17.13zM452.28 56.48l1.2.07c-.01.12-.16.23-.34.24v1.88h3.21l.18-.07.74.34c-.02.05-.08.1-.13.13-.55 4.2-2.29 6.63-6.09 7.96-.12-.2-.37-.52-.56-.72 3.56-1.22 5.21-3.45 5.61-6.82h-6.78v2.97h-.83v-3.79h3.78v-2.19zM465.84 62.92c-1.22-.66-2.9-1.44-4.21-1.96v6h-.9V56.54l1.21.07c-.01.13-.11.22-.31.25v3.5l.18-.25c1.4.52 3.26 1.34 4.51 2l-.48.81zM468.34 60.81c0-.44.29-.77.71-.77.43 0 .71.32.71.77 0 .43-.28.77-.71.77-.46 0-.71-.38-.71-.77zm0 4.9c0-.44.29-.77.71-.77.43 0 .71.32.71.77 0 .42-.28.75-.71.75-.46.01-.71-.35-.71-.75z"/></g><path class="st7" d="M413.26 75.31h63.58v21.5h-63.58v-21.5z"/><g class="st1"><path class="st2" d="M424.91 88.29l1.2-.16c.03.77.18 1.29.43 1.57.26.28.61.42 1.06.42.33 0 .62-.08.86-.23.24-.15.41-.36.5-.62.09-.26.14-.68.14-1.25v-6.9h1.33v6.83c0 .84-.1 1.49-.3 1.95-.2.46-.52.81-.96 1.05-.44.24-.96.36-1.55.36-.88 0-1.55-.25-2.02-.76-.48-.51-.71-1.26-.69-2.26zM432.59 91.14V81.12h3.78c.67 0 1.17.03 1.52.1.49.08.91.24 1.24.47.33.23.6.55.8.97.2.42.3.87.3 1.37 0 .85-.27 1.57-.81 2.16-.54.59-1.52.88-2.94.88h-2.57v4.07h-1.32zm1.32-5.26h2.59c.86 0 1.47-.16 1.83-.48.36-.32.54-.77.54-1.35 0-.42-.11-.78-.32-1.08-.21-.3-.49-.5-.84-.59-.22-.06-.64-.09-1.24-.09h-2.56v3.59zM444.75 91.14v-4.25l-3.86-5.78h1.61l1.98 3.02c.37.57.7 1.13 1.02 1.7.3-.52.67-1.11 1.09-1.77l1.94-2.95h1.54l-4 5.78v4.25h-1.32z"/></g><path class="st3" d="M463.14 84.88l4.46 4.46 4.46-4.46h-8.92z"/><path class="st0" d="M482.26 75.31h50.48v21.5h-50.48v-21.5z"/><g class="st1"><path class="st2" d="M498.98 91.14h-1.23V83.3c-.3.28-.68.57-1.17.85-.48.28-.91.49-1.3.64V83.6c.69-.32 1.29-.72 1.8-1.18.52-.46.88-.91 1.09-1.34h.79v10.06zM502.13 86.2c0-1.18.12-2.14.37-2.86.24-.72.61-1.28 1.09-1.67.48-.39 1.09-.59 1.81-.59.54 0 1.01.11 1.42.32.41.22.74.53 1 .94.26.41.47.9.62 1.49.15.58.23 1.38.23 2.37 0 1.18-.12 2.12-.36 2.85-.24.72-.6 1.28-1.08 1.68-.48.39-1.09.59-1.82.59-.97 0-1.72-.35-2.28-1.04-.67-.84-1-2.2-1-4.08zm1.26 0c0 1.65.19 2.74.58 3.28.38.54.86.82 1.42.82.57 0 1.04-.27 1.43-.82.38-.55.58-1.64.58-3.28 0-1.65-.19-2.75-.58-3.29-.39-.54-.87-.81-1.44-.81-.56 0-1.02.24-1.35.72-.43.6-.64 1.73-.64 3.38zM509.91 86.2c0-1.18.12-2.14.37-2.86.24-.72.61-1.28 1.09-1.67.48-.39 1.09-.59 1.81-.59.54 0 1.01.11 1.42.32.41.22.74.53 1 .94.26.41.47.9.62 1.49.15.58.23 1.38.23 2.37 0 1.18-.12 2.12-.36 2.85-.24.72-.6 1.28-1.08 1.68-.48.39-1.09.59-1.82.59-.97 0-1.72-.35-2.28-1.04-.67-.84-1-2.2-1-4.08zm1.27 0c0 1.65.19 2.74.58 3.28.38.54.86.82 1.42.82.57 0 1.04-.27 1.43-.82.38-.55.58-1.64.58-3.28 0-1.65-.19-2.75-.58-3.29-.39-.54-.87-.81-1.44-.81-.56 0-1.02.24-1.35.72-.43.6-.64 1.73-.64 3.38zM517.7 86.2c0-1.18.12-2.14.37-2.86.24-.72.61-1.28 1.09-1.67.48-.39 1.09-.59 1.81-.59.54 0 1.01.11 1.42.32.41.22.74.53 1 .94.26.41.47.9.62 1.49.15.58.23 1.38.23 2.37 0 1.18-.12 2.12-.36 2.85-.24.72-.6 1.28-1.08 1.68-.48.39-1.09.59-1.82.59-.97 0-1.72-.35-2.28-1.04-.67-.84-1-2.2-1-4.08zm1.26 0c0 1.65.19 2.74.58 3.28.38.54.86.82 1.42.82.57 0 1.04-.27 1.43-.82.38-.55.58-1.64.58-3.28 0-1.65-.19-2.75-.58-3.29-.39-.54-.87-.81-1.44-.81-.56 0-1.02.24-1.35.72-.42.6-.64 1.73-.64 3.38z"/></g><path class="st8" d="M219.74-2.33h29"/><path class="st9" d="M187.24-21.33h33v38h-33v-38z"/><g class="st1"><path class="st3" d="M206.11 4.23h-2.74V-6.11c-1 .94-2.18 1.63-3.54 2.08v-2.49c.72-.23 1.49-.68 2.33-1.33s1.42-1.42 1.73-2.29h2.23V4.23z"/></g><path class="st8" d="M219.74 62.5h29"/><path class="st9" d="M187.24 43.5h33v38h-33v-38z"/><g class="st1"><path class="st3" d="M208.36 66.51v2.55h-9.62c.1-.96.42-1.88.94-2.74s1.55-2.01 3.09-3.43c1.24-1.15 2-1.93 2.28-2.34.38-.57.57-1.13.57-1.68 0-.61-.16-1.08-.49-1.41s-.78-.49-1.36-.49c-.57 0-1.03.17-1.37.52s-.53.92-.59 1.72l-2.73-.27c.16-1.51.67-2.59 1.53-3.25s1.93-.99 3.22-.99c1.41 0 2.52.38 3.33 1.14s1.21 1.71 1.21 2.84c0 .64-.12 1.26-.35 1.84s-.6 1.19-1.1 1.83c-.33.42-.93 1.03-1.8 1.83s-1.41 1.32-1.65 1.58-.42.51-.56.76h5.45z"/></g><path class="st8" d="M543.74 87.12h64.42"/><path class="st9" d="M607.76 68.12h33v38h-33v-38z"/><g class="st1"><path class="st3" d="M625 93.67v-2.88h-5.86v-2.4l6.21-9.09h2.3v9.08h1.78v2.41h-1.78v2.88H625zm0-5.29v-4.89l-3.29 4.89H625z"/></g><path class="st8" d="M588.24-45h19.92"/><path class="st9" d="M607.76-64h33v38h-33v-38z"/><g class="st1"><path class="st3" d="M619.52-42.24l2.66-.32c.08.68.31 1.19.68 1.55s.82.54 1.35.54c.57 0 1.04-.21 1.43-.64.39-.43.58-1.01.58-1.74 0-.69-.19-1.24-.56-1.64s-.82-.61-1.36-.61c-.35 0-.77.07-1.26.21l.3-2.24c.74.02 1.31-.14 1.7-.48s.59-.8.59-1.36c0-.48-.14-.87-.43-1.15-.29-.29-.67-.43-1.14-.43-.47 0-.87.16-1.2.49s-.53.8-.61 1.43l-2.53-.43c.18-.87.44-1.56.8-2.08.36-.52.85-.92 1.48-1.22s1.35-.44 2.13-.44c1.35 0 2.43.43 3.24 1.29.67.7 1.01 1.5 1.01 2.38 0 1.26-.69 2.26-2.06 3.01.82.18 1.48.57 1.97 1.18s.74 1.35.74 2.22c0 1.26-.46 2.33-1.38 3.21s-2.06 1.33-3.43 1.33c-1.29 0-2.37-.37-3.22-1.12-.85-.76-1.34-1.74-1.48-2.94z"/></g></svg>