<svg xmlns="http://www.w3.org/2000/svg" viewBox="0 24 383 270" enable-background="new 0 0 383 337"><path fill="#fff" d="M296.385 209.106h85.46v20.932h-85.46zM296.385 81.11h85.46v20.93h-85.46zM370.443 115.727h11.402v20.93h-11.402zM296.385 178.516h85.46v20.93h-85.46zM112.846 50.52h269v286h-269zM381.846 261.432h-26.698V238.89h26.698v-8.048h-85.46V208.3h85.46v-8.048h-85.46V177.71h85.46v-40.25h-11.403V114.922h11.403v-12.074h-85.46V80.307h85.46v-28.98h-269V336.48h269z"/><path fill="#828282" d="M112.846 50.52V336.48h.804V50.52z"/><path fill="#F3F3F3" d="M116.064 29.592h42.666c1.777 0 3.22 1.442 3.22 3.22v17.71h-49.105V32.81c0-1.778 1.444-3.22 3.22-3.22M166.78 29.592h61.983c1.78 0 3.22 1.442 3.22 3.22v17.71H163.56V32.81c0-1.778 1.444-3.22 3.22-3.22M236.814 29.592h75.67c1.777 0 3.22 1.442 3.22 3.22v17.71h-82.11V32.81c0-1.778 1.443-3.22 3.22-3.22"/><path fill="#232E62" d="M320.533 29.592h29.785c1.78 0 3.22 1.442 3.22 3.22v17.71h-36.226V32.81c0-1.778 1.446-3.22 3.22-3.22"/><text transform="translate(116.869 44.889)" fill="#020202" font-family="Arial" font-size="9">Rise/Fall</text><text transform="translate(167.584 44.889)" fill="#020202" font-family="Arial" font-size="9">Higher/Lower</text><text transform="translate(237.619 44.889)" fill="#020202" font-family="Arial" font-size="9">Touch/No Touch</text><text transform="translate(321.338 44.889)" fill="#fff" font-family="Arial" font-size="9">In/Out</text><path fill="#fff" d="M180.465 80.307h97.404v22.54h-97.405v-22.54"/><path fill="#E4E4E4" d="M180.465 80.307h97.404v.805h-97.405v-.805M180.465 102.042h97.404v.805h-97.405v-.805M180.465 80.307h.805v22.54h-.805v-22.54M277.064 80.307h.805v22.54h-.806v-22.54"/><text transform="translate(184.49 96.408)" fill="#020202" font-family="Arial" font-size="14.49">All</text><text transform="translate(223.129 131.413)" fill="#020202" font-family="Arial" font-size="14.49">Duration:</text><text transform="translate(248.084 163.222)" fill="#676868" font-family="Arial" font-size="14.49">Spot:</text><text transform="translate(202.199 196.227)" fill="#020202" font-family="Arial" font-size="14.49">High barrier:</text><text transform="translate(205.42 226.817)" fill="#020202" font-family="Arial" font-size="14.49">Low barrier:</text><text transform="translate(232.789 257.407)" fill="#020202" font-family="Arial" font-size="14.49">Payout:</text><path fill="#E4E4E4" d="M296.385 80.307h.805v22.54h-.805v-22.54"/><text transform="translate(300.408 96.408)" fill="#020202" font-family="Arial" font-size="14.49">AUD/JPY</text><path fill="#fff" d="M296.385 114.92h66.01v22.542h-66.01v-22.54"/><path fill="#E4E4E4" d="M296.385 114.92h66.01v.807h-66.01v-.806M296.385 136.656h66.01v.805h-66.01v-.804M296.385 114.92h.805v22.542h-.805v-22.54M361.588 114.92h.807v22.542h-.807v-22.54"/><text transform="translate(300.408 131.023)" fill="#020202" font-family="Arial" font-size="14.49">7</text><path fill="#E4E4E4" d="M370.443 114.92h.805v22.542h-.805v-22.54"/><text transform="translate(374.469 131.023)" fill="#020202" font-family="Arial" font-size="14.49">d</text><path fill="#2DA9E1" d="M296.385 147.926h47.494v18.515h-47.495v-18.514"/><text transform="translate(297.994 162.417)" fill="#fff" font-family="Arial" font-size="14.49">93.024</text><path fill="#E4E4E4" d="M296.385 177.71h.805v22.542h-.805v-22.54"/><text transform="translate(300.408 193.813)" fill="#020202" font-family="Arial" font-size="14.49">94.095</text><path fill="#E4E4E4" d="M296.385 208.3h.805v22.542h-.805v-22.54"/><text transform="translate(300.408 224.403)" fill="#020202" font-family="Arial" font-size="14.49">91.783</text><path fill="#fff" d="M296.385 238.89h54.74v22.542h-54.74v-22.54"/><path fill="#E4E4E4" d="M296.385 238.89h54.74v.806h-54.74v-.805M296.385 260.625h54.74v.807h-54.74v-.807M296.385 238.89h.805v22.542h-.805v-22.54M350.318 238.89h.807v22.542h-.807v-22.54"/><text transform="translate(300.408 254.992)" fill="#020202" font-family="Arial" font-size="14.49">GBP</text><path fill="#828282" d="M112.846 50.52h269v.806h-269z"/><path fill="#E4E4E4" d="M296.385 80.307h85.46v.805h-85.46zM296.385 102.042h85.46v.805h-85.46zM370.443 114.92h11.402v.807h-11.402zM370.443 136.656h11.402v.805h-11.402zM296.385 177.71h85.46v.806h-85.46zM296.385 199.446h85.46v.807h-85.46zM296.385 208.3h85.46v.806h-85.46zM296.385 230.038h85.46v.805h-85.46z"/><path fill="#fff" d="M355.148 239.696h26.697v20.93h-26.697z"/><path fill="#E4E4E4" d="M355.148 238.89h26.697v.806h-26.697zM355.148 260.625h26.697v.807h-26.697zM355.148 238.89h.805v22.542h-.805v-22.54"/><text transform="translate(359.174 254.992)" fill="#020202" font-family="Arial" font-size="14.49">10</text><text transform="translate(121.699 64.208)" fill="#E98026" font-family="Arial" font-size="9.66">Stays Between/Goes Outside</text><text transform="translate(282.699 64.208)" fill="#6F7070" font-family="Arial" font-size="9.66">Ends Between/Outside</text><path fill="#020202" d="M272.273 89.914l-2.857 4.668-2.857-4.668zM345.527 248.46l-2.855 4.67-2.858-4.67z"/><path fill="none" stroke="#CAC8BA" d="M97.13 41.967h14.382"/><path fill="#FEFDEE" d="M.973 24.467H96.63v35H.972z"/><path fill="#CAC8BA" d="M96.13 24.967v34H1.472v-34H96.13m1-1H.472v36H97.13v-36z"/><text transform="translate(9.473 46.818)" fill="#020202" font-family="Arial" font-size="14">1. trade type</text><path fill="none" stroke="#CAC8BA" d="M104.13 91.248h71.983"/><path fill="#FEFDEE" d="M7.973 73.748h95.656v35H7.972z"/><path fill="#CAC8BA" d="M103.13 74.248v34H8.472v-34h94.656m1-1H7.472v36h96.656v-36z"/><text transform="translate(16.473 96.099)" fill="#020202" font-family="Arial" font-size="14">2. underlying</text><path fill="none" stroke="#CAC8BA" d="M125.707 191.903h71.982"/><path fill="#FEFDEE" d="M36.55 174.403h88.657v35H36.55z"/><path fill="#CAC8BA" d="M124.707 174.903v34H37.05v-34h87.657m1-1H36.05v36h89.657v-36z"/><text transform="translate(45.05 196.753)" fill="#020202" font-family="Arial" font-size="14">4. barrier(s)</text><path fill="none" stroke="#CAC8BA" d="M125.707 253.13h101.856"/><path fill="#FEFDEE" d="M47.55 235.63h77.657v35H47.55z"/><path fill="#CAC8BA" d="M124.707 236.13v34H48.05v-34h76.657m1-1H47.05v36h78.657v-36z"/><text transform="translate(58.05 257.98)" fill="#020202" font-family="Arial" font-size="14">5. payout</text><path fill="none" stroke="#CAC8BA" d="M175.896 130.16h40.616"/><path fill="#FEFDEE" d="M86.74 112.66h88.656v35H86.74z"/><path fill="#CAC8BA" d="M174.896 113.16v34H87.24v-34h87.656m1-1H86.24v36h89.656v-36z"/><text transform="translate(100.24 135.012)" fill="#020202" font-family="Arial" font-size="14">3. duration</text></svg>