<svg xmlns="http://www.w3.org/2000/svg" viewBox="0 0 157 157"><path fill="#fff" d="M133.705 23.278C103.252-7.2 53.72-7.2 23.268 23.258c-30.453 30.456-30.453 80.02 0 110.476 30.453 30.467 80.005 30.467 110.438-.004 30.487-30.454 30.487-80.016 0-110.452z"/><path fill="#2A3052" d="M56.727 98.986s.898 6.698 6.53 9.802l-1.497-2.798s2.865-7.538-5.033-7.004zm73.03-71.758C101.476-1.065 55.49-1.065 27.222 27.218c-28.275 28.283-28.275 74.29 0 102.572 28.27 28.283 74.27 28.266 102.538-.007 28.298-28.276 28.298-74.282 0-102.555zm-7.497 95.052c-.8.776-1.566 1.538-2.367 2.258-17.428 14.197-30.84 7.135-30.993 7.135-9.093-1.826-13.608-1.854-16.157-3.554-.64-.43-2.696-1.54-3.166-1.272-1.86 1.11-4.41 1.67-7.037-.422-.238-.19-.455-.39-.666-.59-2.887-2.886-1.903-5.86-.94-6.892.667-.68-.507-2.58-.507-2.58s-3.42-5.07-5.758-8.132c-2.564-3.353-2.915-9.99-2.942-10.09l-.028-.084c-2.604-3.086-2.872-4.03-3.77-5.54-.52-.882-1.328-1.72-2.01-2.437-.47-.47-.905-.91-1.207-1.32-.07-.097-.085-.23-.056-.427.23-1.447 3.328-4.617 3.988-5.057C49.473 82.74 53 80.59 53 80.59s1.985-3.11 5.362-3.11c3.04.01 4.895-.165 10.154 1.54l2.184.69c3.658 1.175 6.88 2.562 9.45 3.67 2.178.935 3.92 1.693 5.253 2.044 4.53 1.188 12.513-2.475 14.205-4.023 2.76-2.513 3.946-4.2 3.967-5.577.02-.79-.322-1.453-1.11-2.275-.392-.37-.926-1.07-1.585-1.737-.1-.104-.21-.23-.345-.326-7.667-8.14-6.348-13.242-6.333-13.338.322-3.65-1.77-6-4.03-8.436l-.373-.467c-.12-.105-.254-.29-.254-.29 3.258.528 5.477 1.845 11.86 2.562 3.622.383 2.478.354 5.37.277 3.99-.127 7.148-.48 7.367-1.377-.394-.334-2.156.1-10.624-3.143-3.912-1.498-4.537-1.72-7.03-2.552-3.208-1.085-6.67-2.58-6.67-2.58 13.804 3.634 18.32 5.045 24.645 5.132 2.438.043 3.89-.248 4.747-.432.9-.16 3.687-.793 4.01-1.748.09-.172-2.683.45-7.802-1.242-16.115-5.323-17.49-7.988-26.43-11.467-3.117-1.2-4.135-1.87-13.552-4.297-4.312-1.11-10.827-.48-11.712.07C51.5 25.29 48.736 25.61 45.14 26.372c23.916-15.33 56.2-12.562 77.12 8.355 2.828 2.845 5.343 5.892 7.54 9.143l.295.438c6.713 10.052 10.293 21.842 10.293 34.19 0 16.542-6.438 32.077-18.128 43.782zM81.667 52.387c6.066 2.167 8.012 8.637 8.012 8.637-7.71 1.76-6.09-6.126-6.09-6.126l-1.923-2.51z"/></svg>