<svg xmlns="http://www.w3.org/2000/svg" viewBox="0 0 273 177"><path fill="#E6E6E5" d="M136.35.393C61.315.393.488 61.223.488 136.258c0 13.825 2.07 27.165 5.908 39.733l2.32-2.315 2.27-2.272c-3.147-11.298-4.778-23.096-4.778-35.145 0-34.763 13.538-67.445 38.12-92.025 24.58-24.583 57.26-38.12 92.024-38.12s67.445 13.537 92.027 38.12c24.58 24.58 38.117 57.262 38.117 92.024 0 12.38-1.725 24.49-5.045 36.07l2.265 2.265 2.313 2.313c4.02-12.834 6.188-26.488 6.188-40.647C272.216 61.222 211.386.393 136.35.393zM42.975 139.116H26.17v-5.72h16.804v5.72zm203.558 0h-16.804v-5.72h16.804v5.72zM54.422 91.37l-14.484-8.522 2.902-4.932 14.483 8.522-2.9 4.93zm33.066-34.737L79.143 42.05l4.964-2.842 8.346 14.584-4.965 2.84zm51.924-13.746l-5.72-.013.036-16.804 5.72.013-.036 16.804zm47 14.494l-4.922-2.915 8.566-14.457 4.92 2.917-8.564 14.456zm32.357 34.89l-2.85-4.963 14.575-8.363 2.848 4.962-14.574 8.363zM36.22 127.852l-9.296-.715.053-.713 9.296.715-.054.713zm1.07-8.94l-9.183-1.614.123-.706 9.183 1.614-.124.704zm1.985-8.256l-8.94-2.64.2-.686 8.943 2.642-.203.685zm2.965-8.305l-8.82-3.024.232-.677 8.82 3.026-.232.676zm3.388-8.1l-8.658-3.46.265-.665 8.66 3.46-.267.665zm189.774 34.793l-.054-.713 9.296-.716.054.714-9.296.715zm-1.07-8.94l-.124-.706 9.183-1.614.124.704-9.183 1.614zm-1.986-8.256l-.202-.687 8.942-2.64.202.686-8.942 2.64zm-2.963-8.306l-.233-.678 8.82-3.022.232.677-8.82 3.024zm-3.39-8.1l-.265-.664 8.66-3.462.264.664-8.658 3.462zM54.33 79.508l-7.69-5.27.404-.592 7.69 5.27-.404.592zm5.4-7.205l-7.14-5.992.458-.547 7.142 5.992-.46.548zm5.85-6.156l-6.42-6.76.52-.49 6.42 6.758-.52.492zm6.722-5.708l-6.124-7.03.54-.47 6.124 7.03-.54.47zm6.987-5.32l-5.767-7.326.562-.443 5.766 7.33-.56.44zm138.547 25.222l-.405-.59 7.69-5.27.405.59-7.69 5.27zm-5.4-7.206l-.46-.547 7.143-5.993.46.548-7.144 5.99zm-5.85-6.155l-.52-.49 6.423-6.76.518.492-6.422 6.76zm-6.722-5.707l-.54-.47 6.125-7.03.54.468-6.125 7.033zm-6.986-5.318l-.563-.442 5.765-7.327.563.44-5.766 7.33zm-99.163-9.24l-3.593-8.605.66-.274 3.593 8.602-.66.276zm7.733-3.384l-2.74-8.91.685-.21 2.74 8.91-.685.21zm8.345-2.702l-1.718-9.165.703-.132 1.718 9.166-.703.132zm8.744-1.41l-1.32-9.228.706-.1 1.32 9.228-.707.1zm8.754-1.026l-.86-9.284.712-.065.86 9.284-.712.065zm51.44 9.058l-.66-.275 3.592-8.604.66.276-3.593 8.604zM171 43.866l-.684-.21 2.74-8.91.684.21-2.74 8.91zm-8.345-2.702l-.703-.132 1.718-9.164.703.132-1.718 9.164zm-8.386-2.034l-.708-.102 1.32-9.23.707.102-1.32 9.23zm-9.114-1.026l-.712-.067.86-9.283.712.065-.86 9.284zm-93.529 100.21v.033l.527-.017.528-.017c.264 0 .73-.014 1.4-.042l.804-.033-.493 2.992h-8.924c.34-.403 1.21-1.365 2.605-2.884l1.837-1.995.678-.777c1.347-1.548 2.02-2.883 2.02-4.006 0-.402-.234-.603-.704-.603-.418 0-.74.382-.97 1.147-.084.28-.126.58-.126.897h-3.402c0-.665.184-1.362.553-2.095.62-1.224 1.556-2.07 2.808-2.54a4.948 4.948 0 0 1 1.743-.326c1.39 0 2.404.536 3.04 1.61.32.535.48 1.194.48 1.977 0 2.108-1.467 4.335-4.4 6.68zm10.474-7.04l-.503 1.51c.186-.034.363-.05.537-.05 1.262 0 2.21.535 2.84 1.607.303.516.453 1.1.453 1.753 0 1.503-.598 2.776-1.793 3.82-1.162 1.018-2.498 1.526-4.006 1.526-1.2 0-2.33-.343-3.386-1.024l.896-3.05c.71.475 1.364.77 1.962.89.2.037.422.058.66.058.258 0 .47-.03.64-.093.093-.02.214-.066.358-.133.72-.335 1.082-.838 1.082-1.508 0-.432-.235-.75-.705-.957-.352-.156-.77-.234-1.257-.234-.72 0-1.475.15-2.263.452l2.18-7.593h6.47l-.48 3.024H62.1zm133.256 9.956l1.568-9.955h-1.408l.478-2.983h4.894l-2.045 12.938h-3.487zm8.188-7.106c.323-1.626.888-2.977 1.693-4.056 1-1.347 2.23-2.02 3.694-2.02 1.31 0 2.292.422 2.95 1.266.587.76.88 1.813.88 3.16 0 .882-.103 1.846-.31 2.89-.47 2.375-1.416 4.114-2.84 5.22-.766.594-1.66.89-2.682.89-1.24 0-2.186-.506-2.833-1.518-.553-.86-.83-1.946-.83-3.26a13.39 13.39 0 0 1 .28-2.572zm3.142 1.802l-.066 1.014-.008.27c0 .85.248 1.273.745 1.273.653 0 1.173-.833 1.56-2.498.272-1.19.41-2.234.41-3.134v-.41c0-.915-.246-1.374-.737-1.374-.57 0-1.04.69-1.408 2.07-.09.33-.18.75-.268 1.257-.063.28-.14.79-.228 1.533zm7.223-1.802c.323-1.626.888-2.977 1.692-4.056 1-1.347 2.23-2.02 3.695-2.02 1.308 0 2.29.422 2.95 1.266.586.76.88 1.813.88 3.16 0 .882-.105 1.846-.31 2.89-.47 2.375-1.417 4.114-2.842 5.22-.766.594-1.66.89-2.682.89-1.24 0-2.185-.506-2.832-1.518-.553-.86-.83-1.946-.83-3.26a13.47 13.47 0 0 1 .28-2.572zm3.142 1.802l-.066 1.014-.01.27c0 .85.25 1.273.746 1.273.654 0 1.174-.833 1.56-2.498.273-1.19.41-2.234.41-3.134v-.41c0-.915-.245-1.374-.737-1.374-.57 0-1.04.69-1.407 2.07-.09.33-.18.75-.27 1.257-.06.28-.136.79-.226 1.533zM93.207 65.13l-.503 1.51c.186-.034.363-.05.537-.05 1.263 0 2.21.535 2.84 1.607.304.515.454 1.1.454 1.752 0 1.502-.598 2.775-1.794 3.82-1.16 1.017-2.497 1.525-4.005 1.525-1.2 0-2.33-.342-3.386-1.023l.895-3.05c.71.475 1.363.77 1.962.89.2.037.42.058.66.058.258 0 .47-.03.64-.093.093-.02.214-.067.358-.134.72-.335 1.082-.838 1.082-1.508 0-.43-.235-.75-.705-.956-.352-.157-.77-.235-1.257-.235-.72 0-1.475.15-2.263.453l2.18-7.593h6.47l-.48 3.025h-3.685zm5.212 2.85c.323-1.627.888-2.978 1.692-4.057 1-1.346 2.23-2.02 3.695-2.02 1.308 0 2.29.42 2.95 1.266.586.76.88 1.812.88 3.158 0 .883-.104 1.847-.31 2.892-.47 2.374-1.417 4.113-2.842 5.22-.766.592-1.66.89-2.682.89-1.24 0-2.185-.507-2.832-1.52-.553-.858-.828-1.945-.828-3.258.002-.787.093-1.645.277-2.572zm3.142 1.8l-.066 1.015-.01.27c0 .85.25 1.273.746 1.273.654 0 1.174-.833 1.56-2.498.273-1.19.41-2.234.41-3.134v-.41c0-.916-.245-1.374-.736-1.374-.57 0-1.04.69-1.408 2.07-.09.33-.18.748-.27 1.256-.06.28-.137.79-.226 1.533zm62.741 5.306l6.368-9.955h-4.39l.477-2.982h9.218l-7.91 12.938h-3.763zm16.5-9.955l-.503 1.51c.184-.034.36-.05.535-.05 1.263 0 2.21.535 2.84 1.607.303.515.454 1.1.454 1.752 0 1.502-.6 2.775-1.795 3.82-1.162 1.017-2.497 1.525-4.006 1.525-1.202 0-2.33-.342-3.386-1.023l.896-3.05c.71.475 1.363.77 1.96.89.202.037.423.058.663.058.257 0 .47-.03.637-.093.095-.02.215-.067.36-.134.72-.335 1.08-.838 1.08-1.508 0-.43-.234-.75-.703-.956-.353-.157-.77-.235-1.258-.235-.72 0-1.475.15-2.263.453l2.18-7.593h6.47l-.48 3.025H180.8zm-44.622 57.896c7.788 0 14.123 6.336 14.123 14.123s-6.335 14.122-14.122 14.122-14.122-6.335-14.122-14.122 6.336-14.123 14.123-14.123m0-3.575c-9.773 0-17.697 7.923-17.697 17.698 0 9.774 7.924 17.697 17.698 17.697s17.7-7.923 17.7-17.697c0-9.775-7.925-17.698-17.7-17.698zm6.912 16.446L136.3 45.084l-6.794 90.814.188.045a6.715 6.715 0 0 0-.188 1.563 6.793 6.793 0 1 0 13.585 0c0-.538-.068-1.062-.188-1.563l.188-.045z"/><linearGradient id="a" gradientUnits="userSpaceOnUse" x1="27.309" y1="80.272" x2="245.764" y2="80.272"><stop offset="0" stop-color="#fff" stop-opacity="0"/><stop offset=".368" stop-color="#FBFBFB" stop-opacity=".707"/><stop offset=".521" stop-color="#F3F3F3"/><stop offset="1" stop-color="#E6E6E5"/></linearGradient><path fill="url(#a)" d="M245.764 134.886h-15.73c0-51.554-41.943-93.496-93.497-93.496S43.04 83.332 43.04 134.886H27.31c0-60.23 48.998-109.228 109.227-109.228s109.227 49 109.227 109.228z"/><path d="M26.468 135.96H43.27m186.755 0h16.805M41.688 80.084l14.482 8.52M81.922 40.33l8.346 14.585m46.618-29.136l-.036 16.802m55.964-1.414l-8.565 14.457m47.967 25.503l-14.574 8.362" stroke="#E98025" stroke-width="5.721" fill="none"/><path d="M27.25 126.484l9.297.715m-8.078-10.552l9.18 1.615m-6.916-10.887l8.943 2.64m-5.84-11.324l8.82 3.025M37.4 90.16l8.66 3.462m198.91 34.054l-9.295.715m8.078-10.55l-9.184 1.615m6.916-10.887l-8.94 2.64m5.84-11.323l-8.82 3.023m5.253-11.555l-8.66 3.46M47.14 73.645l7.69 5.27m-1.714-13.177l7.143 5.992m-.543-12.885l6.42 6.76m.608-12.73l6.124 7.03m1.232-12.63l5.765 7.327M225.623 74.48l-7.69 5.27m1.714-13.177l-7.143 5.99m.543-12.885l-6.422 6.76m-.607-12.728l-6.125 7.03m-1.233-12.63l-5.764 7.328M90.752 37.675l3.593 8.603m5.005-12.262l2.74 8.912m6.637-11.827l1.717 9.164m7.426-10.622l1.32 9.23m7.9-10.295l.857 9.284m54.347.348l-3.593 8.604m-5.005-12.26l-2.74 8.91m-6.636-11.828L162.6 40.8m-7.07-11.248l-1.32 9.23m-8.255-10.294l-.86 9.284" stroke="#989898" stroke-width=".715" fill="none"/><text transform="translate(45.127 140.933)" fill="#010101" font-family="'FuturaExtraBoldIta'" font-size="17.162">25</text><text transform="translate(191.725 140.933)" fill="#010101" font-family="'FuturaExtraBoldIta'" font-size="17.162">100</text><text transform="translate(86.6 74.788)" fill="#010101" font-family="'FuturaExtraBoldIta'" font-size="17.162">50</text><text transform="translate(163.828 74.788)" fill="#010101" font-family="'FuturaExtraBoldIta'" font-size="17.162">75</text><path fill="#010101" d="M136.48 122.73c7.786 0 14.12 6.335 14.12 14.122s-6.334 14.122-14.12 14.122c-7.79 0-14.124-6.335-14.124-14.122s6.335-14.123 14.123-14.123m0-3.576c-9.776 0-17.7 7.923-17.7 17.698 0 9.774 7.924 17.697 17.7 17.697 9.773 0 17.696-7.924 17.696-17.698 0-9.775-7.923-17.698-17.697-17.698z"/><path fill="#E98025" d="M143.39 135.6l-6.793-90.813-6.794 90.814.19.046a6.715 6.715 0 0 0-.19 1.563 6.794 6.794 0 0 0 13.587-.001c0-.54-.07-1.063-.188-1.564l.188-.045z"/><path fill="#2A3052" d="M136.648.095C61.612.095.785 60.925.785 135.96c0 13.825 2.07 27.166 5.908 39.734l2.318-2.317 2.272-2.272c-3.147-11.298-4.778-23.096-4.778-35.145 0-34.763 13.538-67.445 38.12-92.025 24.58-24.582 57.26-38.118 92.023-38.118s67.444 13.536 92.025 38.118c24.58 24.58 38.118 57.263 38.118 92.025 0 12.38-1.726 24.49-5.046 36.07l2.267 2.265 2.313 2.313c4.02-12.834 6.188-26.488 6.188-40.647C272.514 60.925 211.686.096 136.65.096z"/></svg>