<svg id="Layer_1" data-name="Layer 1" xmlns="http://www.w3.org/2000/svg" viewBox="0 0 506 506"><defs><style>.cls-1{fill:#f2f2f2;}.cls-2,.cls-3,.cls-5,.cls-7{fill:none;stroke-miterlimit:10;}.cls-2{stroke:#d4d6dc;stroke-width:7px;stroke-dasharray:11.84 11.84;}.cls-3{stroke:#dedede;stroke-width:6px;}.cls-4{fill:#e98024;}.cls-5{stroke:#e98024;}.cls-5,.cls-7{stroke-width:8.94px;}.cls-6{fill:#2a3052;}.cls-7{stroke:#2a3052;}</style></defs><title>icon2</title><rect class="cls-1" x="3" y="3" width="500" height="500"/><line class="cls-2" x1="5.67" y1="209.35" x2="11.67" y2="209.35"/><line class="cls-2" x1="23.5" y1="209.35" x2="491.08" y2="209.35"/><line class="cls-2" x1="497" y1="209.35" x2="503" y2="209.35"/><line class="cls-3" x1="3" y1="86.33" x2="503" y2="86.33"/><line class="cls-3" x1="86.33" y1="3" x2="86.33" y2="503"/><line class="cls-3" x1="169.67" y1="3" x2="169.67" y2="503"/><line class="cls-3" x1="253" y1="3" x2="253" y2="503"/><line class="cls-3" x1="336.33" y1="3" x2="336.33" y2="503"/><line class="cls-3" x1="419.67" y1="3" x2="419.67" y2="503"/><line class="cls-3" x1="3" y1="169.67" x2="503" y2="169.67"/><line class="cls-3" x1="3" y1="253" x2="503" y2="253"/><line class="cls-3" x1="3" y1="336.33" x2="503" y2="336.33"/><line class="cls-3" x1="3" y1="419.67" x2="503" y2="419.67"/><polyline class="cls-4" points="461.33 236.73 483.35 258.75 461.33 280.76"/><polyline class="cls-5" points="3 290.66 43.16 320.65 81.24 285.87 96.53 301.16 119.82 290.66 149.15 310.65 186.49 236.73 237.82 213.98 266.57 285.4 291.82 278.49 327.68 306.55 374.27 249.98 399.96 276.65 434.86 258.54 469.82 258.54"/><polyline class="cls-6" points="461.33 187.33 483.35 209.34 461.33 231.36"/><polyline class="cls-7" points="3 253 40.66 290.66 92.24 239.07 135.82 277.98 227.15 241.98 330.83 266.25 380.82 202.98 400.49 215.31 453.96 207.31 472.34 207.31"/><rect class="cls-3" x="3" y="3" width="500" height="500"/></svg>