<svg id="Layer_1" data-name="Layer 1" xmlns="http://www.w3.org/2000/svg" viewBox="0 0 506 506"><defs><style>.cls-1{fill:#f2f2f2}.cls-2,.cls-3,.cls-5,.cls-7{fill:none;stroke-miterlimit:10}.cls-2{stroke:#d4d6dc;stroke-width:7px;stroke-dasharray:11.84 11.84}.cls-3{stroke:#dedede;stroke-width:6px}.cls-4{fill:#e98024}.cls-5{stroke:#e98024}.cls-5,.cls-7{stroke-width:8.94px}.cls-6{fill:#2a3052}.cls-7{stroke:#2a3052}</style></defs><title>icon2</title><path class="cls-1" d="M3 3h500v500H3z"/><path class="cls-2" d="M5.67 209.35h6M23.5 209.35h467.58M497 209.35h6"/><path class="cls-3" d="M3 86.33h500M86.33 3v500M169.67 3v500M253 3v500M336.33 3v500M419.67 3v500M3 169.67h500M3 253h500M3 336.33h500M3 419.67h500"/><path class="cls-4" d="M461.33 236.73l22.02 22.02-22.02 22.01"/><path class="cls-5" d="M3 290.66l40.16 29.99 38.08-34.78 15.29 15.29 23.29-10.5 29.33 19.99 37.34-73.92 51.33-22.75 28.75 71.42 25.25-6.91 35.86 28.06 46.59-56.57 25.69 26.67 34.9-18.11h34.96"/><path class="cls-6" d="M461.33 187.33l22.02 22.01-22.02 22.02"/><path class="cls-7" d="M3 253l37.66 37.66 51.58-51.59 43.58 38.91 91.33-36 103.68 24.27 49.99-63.27 19.67 12.33 53.47-8h18.38"/><path class="cls-3" d="M3 3h500v500H3z"/></svg>