<svg xmlns="http://www.w3.org/2000/svg" x="0" y="0" viewBox="0 0 95 137" width="95px" height="137px" xml:space="preserve"><path fill="#E98025" d="M47.5.475C21.263.475-.006 21.745-.006 47.98c0 16.723 8.642 31.425 21.7 39.89v9.404c0 5.304 4.34 9.644 9.644 9.644l32.325-3.75c5.304 0 9.644-4.34 9.644-9.646V87.87c13.06-8.465 21.7-23.167 21.7-39.89C95.006 21.745 73.736.476 47.5.476zm25.583 80.29c-1.782 1.394-3.673 2.65-5.67 3.744v9.01c0 2.034-1.718 3.753-3.75 3.753l-32.325 3.75c-2.033 0-3.75-1.72-3.75-3.75V84.51c-1.998-1.094-3.89-2.352-5.672-3.745C12.172 73.14 5.89 61.285 5.89 47.98c0-22.945 18.665-41.613 41.61-41.613S89.112 25.035 89.112 47.98c0 13.305-6.283 25.16-16.03 32.785z"/><path fill="#f2f2f2" d="M66.666 112.104l-39.884 4.902c-1.91.234-3.646-1.123-3.88-3.033-.235-1.907 1.12-3.646 3.03-3.88l39.882-4.903c1.91-.234 3.648 1.123 3.883 3.033.235 1.908-1.122 3.646-3.03 3.88zM66.006 120.863l-36.16 4.445c-1.91.234-3.647-1.123-3.883-3.03-.234-1.91 1.123-3.647 3.032-3.882l36.16-4.445c1.91-.233 3.647 1.123 3.882 3.032.235 1.91-1.122 3.647-3.03 3.88zM59.495 130.344l-20.738 2.55c-1.91.234-3.646-1.124-3.882-3.032-.234-1.91 1.123-3.646 3.033-3.88l20.737-2.55c1.91-.235 3.647 1.123 3.882 3.03.236 1.91-1.123 3.647-3.032 3.882zM53.824 132.41c0 2.272-1.842 4.115-4.113 4.115-2.27 0-4.114-1.843-4.114-4.114v-2.3c0-2.272 1.843-4.114 4.115-4.114 2.272 0 4.114 1.842 4.114 4.113v2.3z"/></svg>
