<?xml version="1.0" encoding="utf-8"?>
<!-- Generator: Adobe Illustrator 19.0.1, SVG Export Plug-In . SVG Version: 6.00 Build 0)  -->
<svg version="1.1" id="Layer_1" xmlns="http://www.w3.org/2000/svg" xmlns:xlink="http://www.w3.org/1999/xlink" x="0px" y="0px"
	 viewBox="0 0 210 80" style="enable-background:new 0 0 210 80;" xml:space="preserve">
<style type="text/css">
	.st0{opacity:0.1;enable-background:new    ;}
	.st1{fill:none;stroke:#E88024;stroke-width:0.5;stroke-miterlimit:10;stroke-dasharray:1;}
	.st2{fill:none;stroke:#FFFFFF;stroke-width:3;stroke-miterlimit:10;}
	.st3{opacity:0.3;fill:#E88024;}
	.st4{fill:none;stroke:#E88024;stroke-width:2;stroke-miterlimit:10;}
	.st5{fill:#FFFFFF;}
	.st6{font-family:'ProximaNova-Bold';}
	.st7{font-size:12px;}
</style>
<g>
	<g class="st0">
		<line class="st1" x1="12.1" y1="10.6" x2="198.1" y2="10.6"/>
		<line class="st1" x1="12.1" y1="18.1" x2="198.1" y2="18.1"/>
		<line class="st1" x1="12.1" y1="25.6" x2="198.1" y2="25.6"/>
		<line class="st1" x1="12.1" y1="33.1" x2="198.1" y2="33.1"/>
		<line class="st1" x1="12.1" y1="40.6" x2="198.1" y2="40.6"/>
		<line class="st1" x1="12.1" y1="48.1" x2="198.1" y2="48.1"/>
		<line class="st1" x1="12.1" y1="55.6" x2="198.1" y2="55.6"/>
		<line class="st1" x1="12.1" y1="63.1" x2="198.1" y2="63.1"/>
		<line class="st1" x1="12.1" y1="70.6" x2="198.1" y2="70.6"/>
	</g>
	<g>
		<polyline class="st2" points="70,56.6 93.7,56.6 118.4,23.4 139.7,23.4 		"/>
		<g>
			<path class="st3" d="M178.5,43.6h-31.4c-2.2,0-4-1.8-4-4V8.6c0-2.2,1.8-4,4-4h31.4c2.2,0,4,1.8,4,4v31.1
				C182.5,41.8,180.7,43.6,178.5,43.6z"/>
			<path class="st4" d="M178.5,43.6h-31.4c-2.2,0-4-1.8-4-4V8.6c0-2.2,1.8-4,4-4h31.4c2.2,0,4,1.8,4,4v31.1
				C182.5,41.8,180.7,43.6,178.5,43.6z"/>
			<text transform="matrix(1 0 0 1 152.2446 28.2412)" class="st5 st6 st7">Buy</text>
		</g>
		<g>
			<path class="st3" d="M62.5,75.4H31.1c-2.2,0-4-1.8-4-4V40.4c0-2.2,1.8-4,4-4h31.4c2.2,0,4,1.8,4,4v31.1
				C66.5,73.6,64.7,75.4,62.5,75.4z"/>
			<path class="st4" d="M62.5,75.4H31.1c-2.2,0-4-1.8-4-4V40.4c0-2.2,1.8-4,4-4h31.4c2.2,0,4,1.8,4,4v31.1
				C66.5,73.6,64.7,75.4,62.5,75.4z"/>
			<g>
				<text transform="matrix(1 0 0 1 36.872 60.0908)" class="st5 st6 st7">Sell</text>
			</g>
		</g>
	</g>
</g>
</svg>
