<svg width="96" height="96" viewBox="0 0 96 96" xmlns="http://www.w3.org/2000/svg"><title>96</title><g fill="none" fill-rule="evenodd"><path d="M12.484 46V34.437h1.641V46h-1.64zm4.618 0V34.437h1.609l5.82 8.93v-8.93h1.407V46h-1.602l-5.828-8.93V46h-1.406zm14.57 0V35.664H27.57v-1.227h9.844v1.227h-4.102V46h-1.64zm7.367 0V34.437H45.5v1.227h-4.82v3.711h4.039v1.21h-4.04v4.188h5.157V46h-6.797zm8.672 0V34.437h3.5c1.11 0 1.96.245 2.55.735.592.49.887 1.2.887 2.133 0 1.541-.778 2.635-2.336 3.28L56.172 46h-2.016l-3.289-4.89h-1.531V46H47.71zm1.625-6.117h.531c2.063 0 3.094-.81 3.094-2.43 0-1.193-.865-1.789-2.594-1.789h-1.031v4.219zM57.828 46V34.437h1.61l5.82 8.93v-8.93h1.406V46h-1.602l-5.828-8.93V46h-1.406zm11.82 0V34.437h6.461v1.227h-4.82v3.711h4.04v1.21h-4.04v4.188h5.156V46h-6.797zm11.422 0V35.664h-4.1v-1.227h9.844v1.227H82.71V46h-1.64z" fill="#064A90"/><g transform="translate(11 49)"><rect fill="#064A90" fill-rule="nonzero" width="76" height="18" rx="1"/><path d="M4.492 15V3.437h3c1.156 0 2.043.22 2.66.657.618.437.926 1.067.926 1.89 0 1.401-.792 2.399-2.375 2.993 1.89.578 2.836 1.622 2.836 3.132 0 .938-.312 1.654-.937 2.149-.625.495-1.526.742-2.704.742H4.492zm1.625-1.227h.336c1.203 0 1.982-.075 2.336-.226.677-.287 1.016-.818 1.016-1.594 0-.687-.308-1.259-.922-1.715-.615-.455-1.383-.683-2.305-.683h-.46v4.218zm0-5.257h.524c.875 0 1.553-.188 2.035-.563.482-.375.722-.904.722-1.586 0-1.135-.88-1.703-2.64-1.703h-.64v3.852zm13.438 2.062l-1.97-4.984-1.976 4.984h3.946zM21.289 15l-1.258-3.203h-4.898L13.859 15h-1.523l4.586-11.563h1.625L23.062 15H21.29zm3.445 0V3.437h1.61l5.82 8.93v-8.93h1.406V15h-1.6l-5.83-8.93V15h-1.407zm11.82 0V3.437h1.54v5.688l4.68-5.688h1.648L39.89 8.954 45.227 15h-2.079l-5.054-5.86V15h-1.54zm10.438 0V3.437h1.64V15h-1.64zm4.617 0V3.437h1.61l5.82 8.93v-8.93h1.406V15h-1.601l-5.828-8.93V15h-1.407zm20.508-.313c-1.4.402-2.622.602-3.664.602-1.838 0-3.249-.523-4.23-1.57-.982-1.047-1.473-2.547-1.473-4.5 0-1.917.497-3.408 1.492-4.473s2.39-1.598 4.188-1.598c1.177 0 2.4.175 3.672.524v1.515c-1.594-.541-2.816-.812-3.665-.812-1.25 0-2.22.424-2.91 1.273-.69.85-1.035 2.045-1.035 3.586 0 1.526.37 2.713 1.11 3.559.74.846 1.776 1.27 3.109 1.27.547 0 1.138-.097 1.773-.29v-3.765h1.633v4.68z" fill="#FFF"/></g></g></svg>