<svg width="96" height="96" viewBox="0 0 96 96" xmlns="http://www.w3.org/2000/svg"><title>96</title><g fill="none"><path d="M85.753 47.826c.004 12.48-10.11 22.599-22.591 22.602-12.48.003-22.6-10.11-22.603-22.591v-.011c-.003-12.48 10.111-22.6 22.591-22.604 12.48-.003 22.6 10.112 22.603 22.592v.012z" fill="#F90"/><path d="M32.698 25.228c-12.406.08-22.451 10.173-22.451 22.598 0 12.473 10.123 22.596 22.597 22.596 5.854 0 11.19-2.23 15.206-5.887l-.002-.001h.005a22.81 22.81 0 0 0 2.294-2.42h-4.63a22.07 22.07 0 0 1-1.684-2.328h7.984a22.5 22.5 0 0 0 1.316-2.42H42.714a22.288 22.288 0 0 1-.944-2.374h12.508a22.542 22.542 0 0 0 1.163-7.167c0-1.66-.18-3.28-.52-4.839H41.106c.17-.802.387-1.595.644-2.374h12.513a22.6 22.6 0 0 0-.974-2.42H42.713c.382-.814.814-1.607 1.297-2.373h7.978a22.646 22.646 0 0 0-1.753-2.42h-4.449a20.972 20.972 0 0 1 2.267-2.282 22.517 22.517 0 0 0-15.21-5.889h-.145z" fill="#C00"/><path d="M83.486 59.639c.123 0 .243.032.36.094a.739.739 0 0 1 .274 1 .68.68 0 0 1-.271.271.743.743 0 0 1-.727 0 .691.691 0 0 1-.27-.27.742.742 0 0 1 0-.73.68.68 0 0 1 .274-.27.758.758 0 0 1 .36-.095m0 .12a.624.624 0 0 0-.3.08.56.56 0 0 0-.227.227.607.607 0 0 0 .527.913.614.614 0 0 0 .529-.306.618.618 0 0 0-.002-.607.613.613 0 0 0-.526-.306m-.321 1.014v-.786h.27a.63.63 0 0 1 .2.022.202.202 0 0 1 .136.19c0 .058-.02.108-.061.15a.242.242 0 0 1-.163.072.24.24 0 0 1 .067.042c.032.03.07.083.116.156l.096.154h-.155l-.07-.124a.635.635 0 0 0-.132-.183.166.166 0 0 0-.101-.027h-.075v.334h-.128m.127-.443h.154c.073 0 .123-.011.15-.033a.107.107 0 0 0 .04-.087.103.103 0 0 0-.019-.062.119.119 0 0 0-.054-.042.394.394 0 0 0-.127-.014h-.144v.238" fill="#FCB340"/><g fill="#006"><path d="M40.343 54.308l.3-2.045c-.164 0-.406.071-.62.071-.837 0-.942-.447-.876-.774l.826-4.114h1.273l.262-2.322h-1.2l.244-1.406h-2.51c-.053.053-1.42 7.911-1.42 8.869 0 1.416.796 2.047 1.917 2.037.878-.007 1.562-.25 1.804-.316zm.761-3.898c0 3.4 2.244 4.207 4.157 4.207 1.765 0 2.69-.409 2.69-.409l.424-2.32s-1.491.606-2.703.606c-2.584 0-2.131-1.927-2.131-1.927l4.963.015s.316-1.558.316-2.193c0-1.586-.863-3.532-3.505-3.532-2.42 0-4.21 2.607-4.21 5.552zm4.22-3.399c1.358 0 1.108 1.526 1.108 1.65H43.76c0-.158.253-1.65 1.564-1.65zm15.236 7.297l.43-2.623s-1.181.592-1.99.592c-1.708 0-2.393-1.303-2.393-2.704 0-2.84 1.469-4.403 3.104-4.403 1.226 0 2.21.688 2.21.688l.392-2.548s-1.161-.839-2.411-.844c-3.76-.015-5.913 2.604-5.913 7.13 0 3 1.594 5.041 4.465 5.041.812 0 2.105-.33 2.105-.33zm-33.45-9.414c-1.65 0-2.915.53-2.915.53l-.35 2.073s1.044-.424 2.623-.424c.895 0 1.55.1 1.55.829 0 .442-.08.605-.08.605s-.706-.059-1.034-.059c-2.348 0-4.266.888-4.266 3.566 0 2.11 1.434 2.593 2.323 2.593 1.698 0 2.37-1.072 2.408-1.075l-.02.89h2.12l.944-6.626c0-2.812-2.452-2.902-3.304-2.902zm.366 5.38c.046.405-.105 2.318-1.554 2.318-.747 0-.941-.572-.941-.909 0-.659.358-1.45 2.12-1.45.411 0 .306.03.375.041zm5.189 4.284c.542 0 3.64.138 3.64-3.059 0-2.989-2.868-2.398-2.868-3.6 0-.596.468-.785 1.322-.785.34 0 1.645.108 1.645.108l.303-2.124s-.845-.19-2.22-.19c-1.78 0-3.587.711-3.587 3.142 0 2.755 3.013 2.479 3.013 3.639 0 .775-.842.838-1.49.838-1.123 0-2.133-.385-2.137-.366l-.321 2.102c.058.018.682.295 2.7.295zm47.74-11.591l-.435 3.241s-.906-1.25-2.323-1.25c-2.668 0-4.042 2.657-4.042 5.71 0 1.972.98 3.905 2.983 3.905 1.441 0 2.24-1.005 2.24-1.005l-.105.858h2.34l1.838-11.442-2.496-.017zm-1.033 6.3c0 1.27-.63 2.968-1.933 2.968-.867 0-1.273-.727-1.273-1.868 0-1.865.838-3.096 1.896-3.096.865 0 1.31.594 1.31 1.995zm-65.29 5.168l1.464-8.638.216 8.638h1.657l3.092-8.638-1.37 8.638h2.464L23.5 42.98l-3.912-.03-2.328 7.014-.063-6.984h-3.586l-1.924 11.456z"/><path d="M51.151 54.452c.7-3.983.95-7.128 2.992-6.477.294-1.541.993-2.881 1.312-3.534 0 0-.1-.15-.732-.15-1.078 0-2.516 2.187-2.516 2.187l.215-1.352H50.18l-1.5 9.325h2.47zm14.448-9.558a8.31 8.31 0 0 0-2.915.53l-.35 2.073s1.045-.424 2.622-.424c.897 0 1.552.1 1.552.829 0 .442-.08.605-.08.605s-.707-.059-1.034-.059c-2.35 0-4.267.888-4.267 3.566 0 2.11 1.434 2.593 2.323 2.593 1.697 0 2.37-1.072 2.408-1.075l-.02.89h2.12l.944-6.626c0-2.812-2.452-2.902-3.303-2.902zm.366 5.38c.046.405-.105 2.318-1.554 2.318-.747 0-.941-.572-.941-.909 0-.659.357-1.45 2.12-1.45.411 0 .306.03.375.041zm5.376 4.178c.385-2.93 1.097-7.044 2.992-6.477.293-1.541.01-1.537-.62-1.537-1.079 0-1.318.04-1.318.04l.216-1.353h-2.24l-1.501 9.326h2.471z"/></g><path d="M40.97 53.579l.3-2.045c-.164 0-.406.07-.619.07-.838 0-.93-.445-.877-.774l.677-4.173h1.273l.307-2.262h-1.2l.244-1.407H38.67c-.053.053-1.42 7.912-1.42 8.869 0 1.416.796 2.047 1.917 2.037.878-.007 1.562-.25 1.804-.315zm.762-3.899c0 3.4 2.244 4.208 4.156 4.208 1.765 0 2.542-.395 2.542-.395l.424-2.32s-1.343.591-2.555.591c-2.584 0-2.131-1.926-2.131-1.926h4.89s.315-1.56.315-2.195c0-1.585-.79-3.517-3.43-3.517-2.42.001-4.211 2.608-4.211 5.554zm4.22-3.399c1.357 0 1.107 1.526 1.107 1.65h-2.672c0-.158.253-1.65 1.564-1.65zm15.235 7.297l.43-2.623s-1.18.592-1.99.592c-1.707 0-2.391-1.304-2.391-2.704 0-2.84 1.468-4.403 3.103-4.403 1.226 0 2.21.689 2.21.689l.392-2.549s-1.459-.59-2.71-.59c-2.777 0-5.479 2.41-5.479 6.935 0 3 1.46 4.982 4.33 4.982.812 0 2.105-.33 2.105-.33zm-33.45-9.414c-1.65 0-2.915.53-2.915.53l-.349 2.073s1.044-.424 2.622-.424c.896 0 1.551.1 1.551.829 0 .442-.08.605-.08.605s-.707-.06-1.034-.06c-2.08 0-4.267.889-4.267 3.566 0 2.11 1.434 2.594 2.323 2.594 1.698 0 2.43-1.102 2.468-1.105l-.079.92h2.119l.945-6.626c0-2.811-2.452-2.902-3.304-2.902zm.515 5.395c.046.405-.254 2.302-1.702 2.302-.747 0-.942-.57-.942-.909 0-.658.358-1.449 2.121-1.449.41 0 .454.045.523.056zm5.04 4.269c.542 0 3.64.138 3.64-3.059 0-2.988-2.867-2.398-2.867-3.599 0-.597.467-.786 1.322-.786.339 0 1.644.108 1.644.108l.303-2.124s-.844-.19-2.22-.19c-1.78 0-3.586.711-3.586 3.142 0 2.755 3.012 2.478 3.012 3.639 0 .774-.841.837-1.49.837-1.122 0-2.133-.385-2.136-.366l-.321 2.103c.058.017.681.295 2.7.295zm47.825-11.57l-.52 3.22s-.905-1.251-2.323-1.251c-2.204 0-4.042 2.658-4.042 5.712 0 1.971.98 3.903 2.984 3.903 1.441 0 2.24-1.005 2.24-1.005l-.106.858h2.34l1.838-11.441-2.411.004zm-1.118 6.279c0 1.27-.629 2.968-1.933 2.968-.866 0-1.272-.727-1.272-1.868 0-1.865.838-3.096 1.895-3.096.866 0 1.31.595 1.31 1.996zM14.71 53.705l1.464-8.638.215 8.638h1.658l3.092-8.638-1.37 8.638h2.463l1.897-11.457H20.32l-2.372 7.03-.123-7.03h-3.511L12.39 53.705zm37.07.016c.7-3.982.83-7.216 2.5-6.624.293-1.542.575-2.138.895-2.79 0 0-.15-.032-.464-.032-1.078 0-1.876 1.472-1.876 1.472l.214-1.352h-2.24l-1.5 9.326h2.47zm14.959-9.557c-1.65 0-2.915.53-2.915.53l-.349 2.073s1.044-.424 2.622-.424c.896 0 1.55.1 1.55.829 0 .442-.079.605-.079.605s-.707-.06-1.034-.06c-2.08 0-4.267.889-4.267 3.566 0 2.11 1.434 2.594 2.323 2.594 1.697 0 2.43-1.102 2.468-1.105l-.079.92h2.119l.945-6.626c0-2.811-2.453-2.902-3.304-2.902zm.516 5.395c.046.405-.254 2.302-1.703 2.302-.748 0-.941-.57-.941-.909 0-.658.357-1.449 2.12-1.449.41 0 .454.045.524.056zm4.724 4.162c.7-3.982.83-7.216 2.501-6.624.293-1.542.576-2.138.895-2.79 0 0-.15-.032-.464-.032-1.078 0-1.876 1.472-1.876 1.472l.215-1.352h-2.24l-1.502 9.326h2.47zm11.497-1.439c.123 0 .243.032.359.095a.736.736 0 0 1 .004 1.27.744.744 0 0 1-.727 0 .683.683 0 0 1-.27-.27.73.73 0 0 1 .634-1.095m0 .12a.619.619 0 0 0-.527.306.614.614 0 0 0-.003.608c.055.096.13.171.227.226a.62.62 0 0 0 .606 0 .614.614 0 0 0 .224-.833.614.614 0 0 0-.527-.306m-.32 1.014v-.787h.271a.63.63 0 0 1 .2.023c.041.014.074.04.1.076a.2.2 0 0 1 .036.115c0 .057-.02.107-.062.15a.238.238 0 0 1-.162.07c.027.013.05.027.066.042.032.032.07.084.117.156l.096.154h-.156l-.069-.123a.637.637 0 0 0-.133-.183.163.163 0 0 0-.101-.027h-.075v.334h-.128m.127-.443h.154c.074 0 .124-.01.15-.033a.107.107 0 0 0 .041-.087.103.103 0 0 0-.019-.062.117.117 0 0 0-.054-.042.4.4 0 0 0-.127-.013h-.144v.237" fill="#FFF"/></g></svg>