<svg width="96" height="96" viewBox="0 0 96 96" xmlns="http://www.w3.org/2000/svg" xmlns:xlink="http://www.w3.org/1999/xlink"><title>96</title><defs><path id="a" d="M.035.078h72.623v17.914H.035z"/><path id="c" d="M.035.078h72.623v17.914H.035z"/><path id="e" d="M.035.078h72.623v17.914H.035z"/><path id="g" d="M.035.078h72.623v17.914H.035z"/><path id="i" d="M.035.078h72.623v17.914H.035z"/></defs><g fill="none" fill-rule="evenodd"><g transform="translate(14.327 40)"><mask id="b" fill="#fff"><use xlink:href="#a"/></mask><path d="M71.766 1.405h-1.16c-.742 0-1.293.485-1.72 1.077L67.74 4.074l-.001.002-2.485 3.446L63.1 4.536c-.01-.015-.016-.028-.027-.044l-1.451-2.006c-.428-.591-.984-1.075-1.726-1.075H58.82c-.742 0-1.223.483-.794 1.073l1.46 2.01.01.012 4.156 5.713v6.466c0 .725.608 1.316 1.35 1.315l.503-.001c.742 0 1.35-.595 1.35-1.319v-6.468L71.28 4.13c.014-.018.031-.035.044-.053l1.158-1.596c.429-.591.025-1.075-.717-1.075" fill="#BF512D" fill-rule="nonzero" mask="url(#b)"/></g><g transform="translate(14.327 40)"><mask id="d" fill="#fff"><use xlink:href="#c"/></mask><path d="M23.328 9.18l4.17-3.907 2.947-2.762c.527-.494-.04-1.106-.762-1.106h-1.586c-.722 0-1.086.406-1.612.903L23.398 5.22l-.007.008-1.986 1.875V4.978h-.009c.002-.028.009-.056.009-.084V2.723a1.32 1.32 0 0 0-1.313-1.318h-.589a1.32 1.32 0 0 0-1.312 1.318v2.17c0 .029.006.057.008.085h-.008v11.705c0 .724.59 1.317 1.312 1.317h.59c.721 0 1.312-.593 1.312-1.317v-5.241l2.83 2.835h.003l2.785 2.793c.511.511.863.93 1.585.93h1.587c.722 0 1.03-.857.519-1.368L23.328 9.18" fill="#D2642C" fill-rule="nonzero" mask="url(#d)"/></g><g transform="translate(14.327 40)"><mask id="f" fill="#fff"><use xlink:href="#e"/></mask><path d="M54.719 10.805h-3.107c-.373 0-.563-.274-.423-.61L52.905 6.1c.14-.335.37-.335.512 0l1.724 4.096c.141.335-.05.61-.422.61zm6.24 5.552h.008L55.551 3.244h-.003l-.254-.615c-.277-.673-1.115-1.224-1.86-1.224h-.539c-.746 0-1.583.551-1.858 1.225l-.25.614h-.01l-5.396 13.044h.002l-.203.49c-.28.672.104 1.222.85 1.222h1.208c.746 0 1.096-.556 1.356-1.235l.182-.477h.007l1.09-2.824h6.596l.09.227.066.134.972 2.532h.004l.156.408c.26.68.716 1.235 1.463 1.235h1.067c.747 0 1.128-.55.848-1.22l-.176-.423z" fill="#BF512D" fill-rule="nonzero" mask="url(#f)"/></g><g transform="translate(14.327 40)"><mask id="h" fill="#fff"><use xlink:href="#g"/></mask><path d="M44.171 7.63a1.993 1.993 0 0 1-.55.774l.002-.002-.002.002c-.488.42-1.216.649-2.196.649h-1.77c-.378 0-.688-.297-.688-.66V4.7c0-.361.31-.658.689-.658h1.77c.98 0 1.707.228 2.195.65.244.21.425.463.55.771.123.308.188.666.188 1.079 0 .417-.065.778-.188 1.088zm3.195 1.128c.276-.647.412-1.388.412-2.216 0-.822-.136-1.558-.412-2.202a4.167 4.167 0 0 0-1.239-1.633c-1.091-.874-2.68-1.302-4.702-1.302h-4.374c-.757 0-1.377.594-1.377 1.318v13.96c0 .724.62 1.317 1.377 1.317h.539c.757 0 1.377-.593 1.377-1.317v-4.994h2.458c2.022 0 3.61-.424 4.702-1.297a4.147 4.147 0 0 0 1.24-1.634z" fill="#BF512D" fill-rule="nonzero" mask="url(#h)"/></g><g transform="translate(14.327 40)"><mask id="j" fill="#fff"><use xlink:href="#i"/></mask><path d="M12.078 13.66a4.25 4.25 0 0 1-1.566 1.22c-.597.267-1.279.403-2.06.403-.782 0-1.465-.136-2.064-.403-.601-.267-1.12-.673-1.576-1.225-.535-.643-.913-1.448-1.14-2.398L3.46 9.875A9.605 9.605 0 0 1 3.446 8.5l.162-1.383c.213-1.081.615-1.987 1.204-2.7l-.003.005h.003a4.234 4.234 0 0 1 1.576-1.225c.6-.267 1.282-.403 2.064-.403.781 0 1.463.136 2.06.403a4.237 4.237 0 0 1 1.566 1.22c.903 1.103 1.372 2.652 1.372 4.625 0 1.97-.469 3.514-1.372 4.617zm2.489-11.12C13.04.905 10.966.073 8.452.078 5.927.073 3.848.905 2.32 2.54 1.195 3.741.484 5.258.19 7.052v.005L.055 8.47v.009a9.882 9.882 0 0 0 .01 1.43v.01l.186 1.413v.004c.323 1.658 1.006 3.076 2.069 4.21C3.848 17.172 5.927 18.004 8.452 18c2.514.005 4.59-.827 6.115-2.463 1.516-1.624 2.279-3.82 2.279-6.494 0-2.677-.76-4.879-2.28-6.502z" fill="#D2642C" fill-rule="nonzero" mask="url(#j)"/></g><path fill="#D2642C" fill-rule="nonzero" d="M22.736 48.043H11.672l1.041-1.991h11.063l-1.04 1.991m-2.073 3.983H11l1.096-1.991h9.663l-1.096 1.991"/></g></svg>