<svg width="16" height="16" viewBox="0 0 16 16" xmlns="http://www.w3.org/2000/svg"><title>icons/system/binary/header/statement/ic-statement-active-light</title><g fill="none" fill-rule="evenodd"><g fill="#2A3052"><path d="M1 0h7.997L13 4v12H1a1 1 0 0 1-1-1V1a1 1 0 0 1 1-1zM14 6h1a1 1 0 0 1 1 1v7a2 2 0 0 1-2 2V6z"/></g><path d="M3.5 5h6a.5.5 0 0 1 0 1h-6a.5.5 0 0 1 0-1zm0 2h6a.5.5 0 0 1 0 1h-6a.5.5 0 0 1 0-1zm0 2h6a.5.5 0 0 1 0 1h-6a.5.5 0 0 1 0-1zm0 2h3a.5.5 0 1 1 0 1h-3a.5.5 0 1 1 0-1z" fill="#FFF"/></g></svg>