<svg width="42" height="24" viewBox="0 0 42 24" xmlns="http://www.w3.org/2000/svg" xmlns:xlink="http://www.w3.org/1999/xlink"><title>ends_in_ends_out</title><defs><circle id="a" cx="30" cy="12" r="12"/><circle id="b" cx="12" cy="12" r="12"/></defs><g fill="none" fill-rule="evenodd"><g><use fill="#FFF" xlink:href="#a"/><circle stroke="#2A3052" cx="30" cy="12" r="11.5"/></g><g transform="translate(22 4)" fill="#2A3052"><rect transform="rotate(180 8 5)" y="4.5" width="16" height="1" rx=".5"/><rect transform="rotate(180 8 11)" y="10.5" width="16" height="1" rx=".5"/><g fill-rule="nonzero"><path d="M13.646 3.146a.5.5 0 1 0 .708.708l1.5-1.5a.5.5 0 0 0 0-.708l-1.5-1.5a.5.5 0 1 0-.708.708L14.793 2l-1.147 1.146z"/><path d="M15.5 1.5h-5a.5.5 0 0 0 0 1h5a.5.5 0 1 0 0-1z"/></g></g><g><use fill="#FFF" xlink:href="#b"/><circle stroke="#2A3052" cx="12" cy="12" r="11.5"/></g><g transform="translate(4 4)" fill="#2A3052"><rect transform="rotate(180 8 5)" y="4.5" width="16" height="1" rx=".5"/><rect transform="rotate(180 8 11)" y="10.5" width="16" height="1" rx=".5"/><g fill-rule="nonzero"><path d="M13.646 9.146a.5.5 0 1 0 .708.708l1.5-1.5a.5.5 0 0 0 0-.708l-1.5-1.5a.5.5 0 1 0-.708.708L14.793 8l-1.147 1.146z"/><path d="M15.5 7.5h-5a.5.5 0 0 0 0 1h5a.5.5 0 1 0 0-1z"/></g></g></g></svg>