<svg width="42" height="24" viewBox="0 0 42 24" xmlns="http://www.w3.org/2000/svg" xmlns:xlink="http://www.w3.org/1999/xlink"><title>stays_in_goes_out_off</title><defs><circle id="a" cx="12" cy="12" r="12"/><circle id="b" cx="12" cy="12" r="12"/></defs><g fill="none" fill-rule="evenodd"><g transform="translate(18)"><use fill="#FFF" xlink:href="#a"/><circle stroke="#2A3052" cx="12" cy="12" r="11.5"/></g><g transform="translate(22 4)"><path d="M0 0h16v16H0z"/><rect fill="#2A3052" transform="rotate(180 8 12)" y="11.5" width="16" height="1" rx=".5"/><rect fill="#2A3052" transform="rotate(180 8 5)" y="4.5" width="16" height="1" rx=".5"/><path d="M13.277 3.772a.5.5 0 0 0 .966-.259l-.55-2.049a.5.5 0 0 0-.612-.353l-2.049.549a.5.5 0 0 0 .259.966l1.566-.42.42 1.566z" fill="#2A3052" fill-rule="nonzero"/><path d="M4.876 6.17a.5.5 0 0 0-.766.018L2.26 8.5H.5a.5.5 0 0 0 0 1h2a.5.5 0 0 0 .39-.188L4.517 7.28l3.107 3.55a.5.5 0 0 0 .807-.075l5-8.5a.5.5 0 0 0-.862-.508L7.92 9.65 4.876 6.17z" fill="#2A3052" fill-rule="nonzero"/></g><g><g><use fill="#FFF" xlink:href="#b"/><circle stroke="#2A3052" cx="12" cy="12" r="11.5"/></g><g transform="translate(4 4)"><path d="M0 0h16v16H0z"/><rect fill="#2A3052" transform="rotate(180 8 11.5)" y="11" width="16" height="1" rx=".5"/><rect fill="#2A3052" transform="rotate(180 8 4.5)" y="4" width="16" height="1" rx=".5"/><path d="M12.646 9.146a.5.5 0 0 0 .708.708l1.5-1.5a.5.5 0 0 0 0-.708l-1.5-1.5a.5.5 0 0 0-.708.708L13.793 8l-1.147 1.146z" fill="#2A3052" fill-rule="nonzero"/><path d="M11.167 7.5L9.3 6.1a.5.5 0 0 0-.716.123L6.955 8.665 4.885 6.18a.5.5 0 0 0-.739-.034L2.293 8H.5a.5.5 0 0 0 0 1h2a.5.5 0 0 0 .354-.146L4.466 7.24l2.15 2.58a.5.5 0 0 0 .8-.044l1.707-2.56L10.7 8.4a.5.5 0 0 0 .3.1h3.5a.5.5 0 1 0 0-1h-3.333z" fill="#2A3052" fill-rule="nonzero"/></g></g></g></svg>