<svg width="42" height="24" viewBox="0 0 42 24" xmlns="http://www.w3.org/2000/svg" xmlns:xlink="http://www.w3.org/1999/xlink"><title>touch_no_touch</title><defs><circle id="a" cx="12" cy="12" r="12"/><circle id="b" cx="12" cy="12" r="12"/></defs><g fill="none" fill-rule="evenodd"><g transform="translate(18)"><use fill="#FFF" xlink:href="#a"/><circle stroke="#2A3052" cx="12" cy="12" r="11.5"/></g><g fill-rule="nonzero" fill="#2A3052"><path d="M31.839 13.87a.5.5 0 0 0 .707 0l2.019-2.019a.5.5 0 1 0-.707-.707l-1.666 1.665-3.794-3.793a.5.5 0 0 0-.707 0l-.454.454-.823-.824a.5.5 0 1 0-.707.708l1.177 1.176a.5.5 0 0 0 .707 0l.454-.454 3.794 3.794z"/><path d="M34.428 12.79a.5.5 0 1 0 1 0v-2.122a.5.5 0 0 0-.5-.5h-2.12a.5.5 0 1 0 0 1h1.62v1.621zM25 15.7h10.5a.5.5 0 1 0 0-1H25a.5.5 0 1 0 0 1z"/></g><g><g><use fill="#FFF" xlink:href="#b"/><circle stroke="#2A3052" cx="12" cy="12" r="11.5"/></g><path d="M7 8h10.5" stroke="#2A3052" stroke-linecap="round"/><path d="M15.074 9.454a.5.5 0 0 0-.707-.708l-4.443 4.445a.5.5 0 0 0 .041.744l.953.762-1.272 1.272a.5.5 0 0 0 .707.707l1.666-1.667a.5.5 0 0 0-.04-.744l-.953-.762 4.048-4.05z" fill="#2A3052" fill-rule="nonzero"/><path fill="#2A3052" d="M15.263 8.556l.034 3.944H14.282v-2.24l-.676-.76H11.34v-.944z"/></g></g></svg>