<svg width="417" height="314" viewBox="0 0 417 314" xmlns="http://www.w3.org/2000/svg"><title>img-fundsafe-left</title><g transform="translate(1)" fill-rule="nonzero" fill="none"><ellipse stroke="#2A3052" stroke-width="2" fill="#F2F2F2" cx="211.716" cy="271.588" rx="40.608" ry="40.621"/><ellipse stroke="#2A3052" stroke-width="2" fill="#F2F2F2" cx="40.608" cy="117.097" rx="40.608" ry="40.621"/><path d="M45.402 107.468a9.312 9.312 0 0 0 1.166-1.27 10.655 10.655 0 0 0 1.32-2.29c.038-.093.085-.187.123-.286.445-.204.823-.53 1.09-.94.369-.552.51-1.226.395-1.88a2.647 2.647 0 0 0-.738-1.449c-.01-.391-.042-.782-.094-1.17-.12-.91-.353-1.801-.696-2.652a9.785 9.785 0 0 0-.428-.907 8.178 8.178 0 0 0-7.12-4.617 8.183 8.183 0 0 0-7.12 4.617c-.15.286-.292.578-.419.884-.212.52-.382 1.055-.507 1.603a10.817 10.817 0 0 0-.287 2.125l-.033.033a2.68 2.68 0 0 0-.86 2.29c.028.213.081.423.16.625.26.695.809 1.243 1.504 1.504.218.551.482 1.083.79 1.59.199.325.417.64.653.94.348.455.739.876 1.165 1.26.24.21.49.409.752.592a7.006 7.006 0 0 0 8.432.005c.262-.188.513-.39.752-.607zM34.39 96.791c.11-.332.243-.657.395-.973a6.406 6.406 0 0 1 5.64-3.94 6.383 6.383 0 0 1 5.64 3.945c.154.33.288.668.4 1.015.094.289.174.582.239.88a4.614 4.614 0 0 1-.757-.25 5.348 5.348 0 0 1-.879-.47 7.677 7.677 0 0 1-2.317-2.534l-.87-1.716-.798 1.753a6.317 6.317 0 0 1-4.738 3.353 12.178 12.178 0 0 1-2.28.25c.075-.446.183-.885.325-1.313zm9.123 9.84a5.169 5.169 0 0 1-6.223-.028 6.74 6.74 0 0 1-.729-.597 7.663 7.663 0 0 1-1.048-1.227 8.718 8.718 0 0 1-1.024-2.012l-.052-.132-.188-.555-.583-.066a.733.733 0 0 1-.634-.658.776.776 0 0 1 .404-.785l.512-.263v-.339h.545a13.964 13.964 0 0 0 1.664-.164c.31-.052.63-.113.94-.193a8.356 8.356 0 0 0 4.85-2.971 8.931 8.931 0 0 0 2.177 2.002 6.49 6.49 0 0 0 2.411.94l.352.057v.678l.442.277a.785.785 0 0 1 .348.756.738.738 0 0 1-.569.626l-.522.108-.169.503a8.638 8.638 0 0 1-1.105 2.2 7.583 7.583 0 0 1-1.057 1.223c-.233.218-.48.419-.742.601v.02zM36.937 111.455a13.36 13.36 0 0 0-2.702 1.194 11.394 11.394 0 0 0-2.42 1.9c-.245.247-.475.506-.692.775a11.112 11.112 0 0 0-2.453 7.1v2.106h1.847v-2.12a9.245 9.245 0 0 1 2.5-6.456c.23-.24.471-.47.724-.686a10.724 10.724 0 0 1 2.449-1.551 12.01 12.01 0 0 1 1.88-.678l.69-.183v-2.995h-1.823v1.594zM50.107 115.324a11.47 11.47 0 0 0-2.1-2.008c-.325-.238-.66-.461-1.007-.667a13.36 13.36 0 0 0-2.703-1.194v-1.594h-1.875v3l.691.183a12.01 12.01 0 0 1 2.89 1.199c.52.302 1.01.65 1.467 1.039.253.216.495.445.724.686a9.24 9.24 0 0 1 2.5 6.456v2.106h1.847v-2.12a11.117 11.117 0 0 0-2.434-7.086z" fill="#293052"/><ellipse stroke="#2A3052" stroke-width="2" fill="#F2F2F2" cx="211.716" cy="117.097" rx="40.608" ry="40.621"/><path d="M222.747 124.53H200.69V89.607h22.062l-.005 34.923zm-20.323-1.74h18.589V91.342H202.42l.004 31.448z" fill="#2A3052"/><path fill="#2A3052" d="M205.413 108.258h4.836v4.838h-4.836zM213.183 108.258h4.836v4.838h-4.836zM205.413 115.456h4.836v4.838h-4.836zM213.183 115.456h4.836v4.838h-4.836zM205.413 93.862h4.836V98.7h-4.836zM213.183 93.862h4.836V98.7h-4.836zM205.413 101.06h4.836v4.838h-4.836zM213.183 101.06h4.836v4.838h-4.836z"/><path d="M27.43 135.08a6.409 6.409 0 0 1 1.88-.315c1.254 0 2.166.691 2.166 1.72 0 1.03-.653 1.712-1.842 1.999a5.54 5.54 0 0 1-1.067.113l-.245-.691c.338.014.677-.007 1.01-.062.762-.14 1.448-.55 1.448-1.354s-.662-1.128-1.485-1.128a5.568 5.568 0 0 0-1.88.339c0 .733.033 1.495.033 1.88 0 .804-.306 1.058-.766 1.058-.682 0-1.81-.653-1.81-1.41 0-.757.898-1.458 1.88-1.881v-.47-1.138c-.235 0-.47.028-.639.028-.367.005-.734-.01-1.1-.042v-.663c.365.05.732.073 1.1.07.202 0 .428 0 .663-.028v-.987a3.372 3.372 0 0 0-.052-.611h.762c0 .16-.033.395-.043.592-.01.198 0 .55-.028.94a11.277 11.277 0 0 0 1.772-.347v.69c-.595.13-1.195.23-1.8.297v1.17l.042.231zm-.602 2.412c0-.315 0-.898-.029-1.528-.7.334-1.212.823-1.212 1.213 0 .39.592.733.94.733.192 0 .296-.15.296-.418h.005zm3.402-5.082c.691.367 1.351.79 1.974 1.264l-.347.56a11.158 11.158 0 0 0-1.937-1.293l.31-.531zM39.226 133.524a6.069 6.069 0 0 1-1.72 1.678c1.076.483 2.218.8 3.389.94a2.642 2.642 0 0 0-.41.621 14.275 14.275 0 0 1-1.179-.235v2.548h-.658v-.3h-3.53v.286h-.615v-2.473c-.447.141-.893.254-1.326.348a2.144 2.144 0 0 0-.324-.569c1.2-.21 2.362-.596 3.45-1.142a5.82 5.82 0 0 1-1.18-1.02 7.42 7.42 0 0 1-1.363.855 1.984 1.984 0 0 0-.437-.47 5.767 5.767 0 0 0 2.477-1.965l.7.131c-.123.18-.256.353-.4.518h2.576l.113-.029.437.278zm-5.386 0h-.62v-1.632h3.29v-.78h.653v.776h3.342v1.631h-.626v-1.03H33.84v1.035zm5.109 2.891a9.798 9.798 0 0 1-2.05-.823c-.586.326-1.2.6-1.832.823h3.882zm-.296 1.81v-1.264h-3.535v1.264h3.535zm-3.074-4.386c.378.426.826.784 1.325 1.058.494-.296.94-.663 1.326-1.091h-2.627l-.024.033zM48.316 133.152c-.531.141-1.1.273-1.63.358a58.68 58.68 0 0 0 1.16 2.416l-.4.419a20.22 20.22 0 0 0-1.79-.254l.07-.57c.33.03.94.095 1.222.123-.244-.531-.681-1.41-.94-2.036a18.385 18.385 0 0 1-3.675 0l-.033-.677c1.138.151 2.29.169 3.431.052l-.287-.64a7.053 7.053 0 0 0-.366-.723l.775-.15c.212.578.367.94.56 1.41.6-.104 1.192-.25 1.771-.438l.132.71zm-4.879 2.596c-.14.348-.222.716-.244 1.09 0 .757.517 1.213 1.81 1.213a9.167 9.167 0 0 0 2.27-.235v.724c-.748.144-1.509.212-2.27.202-1.608 0-2.496-.644-2.496-1.73.018-.45.097-.896.235-1.326l.695.062zM55.93 138.3a6.415 6.415 0 0 0-2.087-1.302v.54c0 .593-.4 1.214-1.527 1.214-1.241 0-1.932-.447-1.932-1.284s.761-1.32 2.007-1.32c.242-.001.484.016.724.051 0-.386-.033-.795-.043-1.152h-.47c-.592 0-1.555-.052-2.176-.122v-.663c.72.106 1.448.161 2.176.164h.47v-1.24h-.432c-.602 0-1.518-.071-2.035-.132v-.65c.67.106 1.347.16 2.026.165h.446v-.568c0-.173-.01-.346-.028-.518h.742a4.36 4.36 0 0 0-.042.579v.47a19.11 19.11 0 0 0 2.219-.212v.64c-.682.07-1.41.14-2.238.183v1.26a23.52 23.52 0 0 0 2.402-.226v.654c-.813.103-1.58.164-2.402.202 0 .447.043.898.062 1.312.92.273 1.775.73 2.514 1.344l-.376.612zm-2.768-1.495a4.388 4.388 0 0 0-.837-.08c-.822 0-1.264.316-1.264.706 0 .39.338.7 1.194.7.498 0 .94-.15.94-.743a2.313 2.313 0 0 1-.052-.578l.019-.005zM4.098 11.9a4.497 4.497 0 0 0 3.944 1.76c1.71.08 5.297.032 7.167-.095a5.76 5.76 0 0 0-.362 1.147c-1.743.08-5.076.109-6.805.033a5.39 5.39 0 0 1-4.432-1.88c-.79.71-1.631 1.377-2.524 2.04l-.569-1.133c.85-.546 1.67-1.14 2.453-1.777V7.933H.705V6.856h3.393v5.045zM3.581 4.38a12.01 12.01 0 0 0-2.608-2.6l.818-.724a11.752 11.752 0 0 1 2.655 2.529l-.865.795zm3.239 8.316h-1.1V4.642h4.479c-.94-.47-2.044-.94-2.984-1.307l.737-.658c.677.235 1.448.55 2.186.865.759-.342 1.48-.76 2.152-1.251H5.734v-.94h7.67l.226-.061.72.53a13.865 13.865 0 0 1-3.178 2.154c.47.221.865.442 1.208.63h1.978v6.935c0 .564-.126.85-.535 1.02a6.916 6.916 0 0 1-2.12.174 3.64 3.64 0 0 0-.329-.94c.738.033 1.41 0 1.603 0 .192 0 .268-.061.268-.268v-1.41h-2.731v2.52H9.46v-2.54H6.82v2.6zm0-7.183v1.382H9.46V5.52l-2.641-.01zM9.46 9.188v-1.41H6.82v1.41H9.46zm3.788-3.676h-2.735v1.382h2.735V5.512zm0 3.676v-1.41h-2.735v1.41h2.735zM30.146 6.494h-1.147V4.172H18.231v2.35h-1.114V3.128h2.515c-.342-.66-.753-1.28-1.227-1.852l1.039-.424a9.304 9.304 0 0 1 1.335 1.839l-.978.437h3.29V.693h1.18v2.435h5.875v3.366zm-.94 6.648c0 .611-.127.94-.611 1.1a8.19 8.19 0 0 1-2.482.188 4.66 4.66 0 0 0-.409-1.067c.94.033 1.777.033 2.012 0 .235-.033.315-.061.315-.25v-2.185h-3.67v4.132h-1.18v-4.132h-3.883v3.427h-1.16v-4.5h5.042V8.569h-3.642V5.276h8.192v3.292h-3.37v1.288h4.827l.019 3.286zm-8.554-5.454h5.926V6.146h-5.926v1.542zm8.22-6.445a21.771 21.771 0 0 1-1.57 1.88l-.94-.395c.49-.595.925-1.234 1.298-1.909l1.212.424zM37.13 11.98h-3.37v1.275h-1.067V1.732h4.437V11.98zm-3.37-9.219V6.25h2.28V2.76h-2.28zm2.28 8.143v-3.61h-2.28v3.629l2.28-.019zm8.502-4.292v1.791h1.823v1.039h-1.823v4.231c0 .663-.174 1.006-.644 1.18a8.988 8.988 0 0 1-2.547.188 3.57 3.57 0 0 0-.376-1.086c.972.033 1.837.033 2.091 0 .254-.032.348-.08.348-.315V9.447h-5.94V8.403h5.935V6.635h-6.016V5.582h3.967v-1.98h-3.29V2.565h3.29V.693h1.147v1.88h3.38v1.03h-3.404v1.98h4.047V6.62l-1.988-.01zm-5.17 3.366a11.114 11.114 0 0 1 2.044 2.67l-.996.654a12.144 12.144 0 0 0-1.998-2.765l.95-.559zM111.785 86.448c-.15.44-.233.902-.245 1.368 0 .94.94 1.551 2.863 1.551 1.396.028 2.79-.13 4.145-.47v1.04c-1.354.31-2.742.454-4.131.427-2.458 0-3.887-.818-3.887-2.35a6.79 6.79 0 0 1 .258-1.688l.997.122zm-.503-4.89c1.063.117 2.131.17 3.2.16 1.162 0 2.398-.085 3.262-.17v1.002c-.817.061-2.138.146-3.261.146a34.24 34.24 0 0 1-3.201-.136v-1.002zm7.849.306l-.658.305a12.836 12.836 0 0 0-1.001-1.71l.658-.269c.365.543.7 1.107 1 1.688v-.014zm1.382-.503l-.672.291a11.313 11.313 0 0 0-1.016-1.688l.649-.282c.378.545.725 1.11 1.039 1.693v-.014zM126.712 80.52a10.466 10.466 0 0 0 5.071 9.623c-.274.222-.52.476-.733.757a10.55 10.55 0 0 1-4.85-6.803 10.813 10.813 0 0 1-4.879 6.822 5.866 5.866 0 0 0-.818-.72 9.901 9.901 0 0 0 4.95-7.287l.535.085c-.084-.564-.136-1.1-.16-1.566h-3.008v-.902l3.892-.01zM138.768 89.739h4.78v.808h-10.369v-.808h4.644V86.72h-4.094v-.794h4.094v-1.64h-2.52v-.697c-.64.472-1.314.896-2.016 1.27a2.934 2.934 0 0 0-.55-.71 13.702 13.702 0 0 0 5.062-4.391h.903a14.406 14.406 0 0 0 5.306 4.23 4.123 4.123 0 0 0-.588.81 15.462 15.462 0 0 1-2.04-1.27v.757h-2.612v1.64h4.192v.795h-4.192v3.019zm-3.29-2.69c.498.66.89 1.395 1.16 2.177l-.78.353a8.501 8.501 0 0 0-1.114-2.252l.733-.277zm5.832-3.568a14.38 14.38 0 0 1-3.008-2.82 13.383 13.383 0 0 1-2.862 2.82h5.87zm-1.532 5.788c.504-.71.94-1.463 1.307-2.252l.855.329a20.17 20.17 0 0 1-1.49 2.224l-.672-.301zM171.93 212.293a17.868 17.868 0 0 1-1.245 2.52v8.317h-.855v-7.006a12.966 12.966 0 0 1-1.359 1.613 5.417 5.417 0 0 0-.512-.88 13.658 13.658 0 0 0 3.13-4.818l.842.254zm7.455 1.97v.756h-7.896v-.756h7.896zm-7.05 5.049h6.209v3.818h-.884v-.541h-4.418v.573h-.879l-.028-3.85zm6.11-2.614h-5.955v-.748h5.969l-.014.748zm-5.964.94h5.94v.734h-5.931l-.01-.734zm5.743-4.302h-5.584v-.747h5.598l-.014.747zm-4.982 6.71v1.805h4.418v-1.796l-4.418-.01zM185.232 214.799h-4.813v-.748h4.817l-.004.748zm-.47 7.691h-2.957v.56h-.808v-4.095h3.76l.005 3.535zm-3.76-6.784h3.788v.72h-3.788v-.72zm0 1.613h3.788v.733h-3.788v-.733zm3.788-4.133h-3.727v-.738h3.727v.738zm-2.994 6.516v2.055h2.139v-2.055h-2.139zm8.582 2.492c.38 0 .47-.38.503-1.88.248.185.53.318.832.39-.099 1.758-.329 2.35-1.269 2.35h-1.603c-.991 0-1.269-.305-1.269-1.476v-3.597l-2.35.367-.136-.856 2.482-.38v-3.254c-.663.146-1.321.268-1.946.367a3.499 3.499 0 0 0-.292-.771 23.71 23.71 0 0 0 5.001-1.321l.757.71c-.851.335-1.726.606-2.618.808v3.291l3.031-.47.16.856-3.191.47v3.761c0 .513.085.611.47.611l1.438.024zM195.172 211.978h.893v11.161h-.893v-4.485c-.719.696-1.466 1.41-2.091 1.956l-.513-.771a57.193 57.193 0 0 0 2.604-2.285v-5.576zm-.87 4.301a13.597 13.597 0 0 0-1.54-2.26l.709-.443a13.775 13.775 0 0 1 1.579 2.215l-.747.488zm6.05.198a8.463 8.463 0 0 0 3.619 5.905c-.254.22-.476.475-.658.757a8.59 8.59 0 0 1-3.384-5.134 8.67 8.67 0 0 1-3.055 5.134 4.423 4.423 0 0 0-.734-.574 8.53 8.53 0 0 0 3.117-6.112h-2.797v-.893h2.82v-3.568h.893V215.56h3.506v.893l-3.327.024zm2.26-1.514a15.61 15.61 0 0 0-1.457-2.167l.686-.39c.562.653 1.06 1.359 1.49 2.106l-.719.451zM207.312 217.342a10.809 10.809 0 0 0-2.444-1.199l.47-.696c.863.267 1.69.64 2.458 1.115l-.484.78zm1.161 1.613a56.938 56.938 0 0 1-2.35 4.071l-.756-.588a35.926 35.926 0 0 0 2.481-4.048l.625.565zm-.573-4.928a8.868 8.868 0 0 0-2.251-1.269l.47-.672c.81.279 1.577.675 2.274 1.175l-.493.766zm7.003 8.228c.305 0 .366-.282.404-1.848.239.17.509.292.794.358-.084 1.81-.32 2.285-1.123 2.285h-1.198c-.903 0-1.124-.282-1.124-1.223v-4.302h-1.41c-.136 2.821-.587 4.645-3.045 5.642a2.896 2.896 0 0 0-.55-.733c2.251-.842 2.58-2.407 2.702-4.913h-1.297v-4.956h6.321v4.96h-1.809v4.293c0 .367.047.437.352.437h.983zm-4.973-5.576h4.512v-3.29h-4.512v3.29zM222.31 221.634c.35-.024.696-.073 1.039-.145a3.63 3.63 0 0 0 3.069-3.583 3.357 3.357 0 0 0-3.215-3.507 25.607 25.607 0 0 1-.72 3.484c-.746 2.482-1.71 3.76-2.82 3.76-1.108 0-2.161-1.245-2.161-3.238a5.17 5.17 0 0 1 5.278-4.923 4.394 4.394 0 0 1 4.644 4.452 4.593 4.593 0 0 1-4.56 4.622l-.554-.922zm-.794-3.963a19.55 19.55 0 0 0 .672-3.263 4.23 4.23 0 0 0-3.76 3.912c0 1.528.71 2.2 1.236 2.2s1.236-.804 1.866-2.844l-.014-.005zM240.053 222.636h-5.001v.526h-.856v-5.796c-.207.206-.427.39-.648.573a5.867 5.867 0 0 0-.55-.573v4.301h-2.35v.94h-.748v-3.934c-.194.413-.423.81-.686 1.184a5.642 5.642 0 0 0-.512-.841 13.35 13.35 0 0 0 1.725-5.37h-1.382v-.832h4.291v.833h-2.049c-.128.914-.312 1.82-.55 2.712h2.26v.833a8.415 8.415 0 0 0 2.482-3.179h-1.32v1.298h-.795v-2.064h2.444c.16-.407.296-.823.405-1.246l.87.174c-.109.367-.222.734-.344 1.077h3.252v2.078h-.817v-1.298h-2.764c-.271.639-.603 1.25-.992 1.824h1.49c.213-.47.396-.951.55-1.443l.856.207c-.198.418-.405.856-.588 1.236h1.932v.771h-2.115v1.246h1.917v.687h-1.917v1.297h1.917v.71h-1.917v1.27h2.495l.014.799zm-7.826-5.487h-1.58v3.72h1.58v-3.72zm4.474-.536h-1.65v1.246h1.65v-1.246zm0 1.956h-1.65v1.298h1.65v-1.298zm-1.65 3.291h1.65v-1.27h-1.65v1.27zM245.43 214.799h-4.32v-.748h4.329l-.01.748zm-.33 7.691h-2.702v.56h-.771v-4.095h3.473v3.535zm0-6.065h-3.445v-.72h3.445v.72zm-3.445.894h3.445v.733h-3.445v-.733zm3.412-4.133h-3.35v-.738h3.35v.738zm-2.65 6.516v2.055h1.917v-2.055h-1.917zm2.787 2.398c.579-.779.916-1.71.968-2.68l.733.183a5.173 5.173 0 0 1-1.039 2.925l-.662-.428zm4.328-5.675a12.22 12.22 0 0 0-1.26-.78 4.814 4.814 0 0 1-2.222 2.21 2.915 2.915 0 0 0-.536-.635 4.146 4.146 0 0 0 2.007-1.951c-.517-.25-1.047-.47-1.589-.659l.47-.634c.47.145.94.352 1.41.564.124-.397.218-.802.282-1.213h-2.054v-.78h5.833v.38c-.108 2.873-.23 3.935-.536 4.293a.87.87 0 0 1-.719.352c-.47.03-.94.03-1.41 0a1.97 1.97 0 0 0-.23-.818c.55.047 1.062.047 1.26.047.197 0 .319 0 .39-.122.206-.22.32-1.077.413-3.338h-2.068a9.796 9.796 0 0 1-.38 1.575c.485.24.956.51 1.41.809l-.47.7zm.17 5.868c.32 0 .38-.174.413-1.41.227.167.484.288.757.357-.085 1.466-.306 1.833-1.076 1.833h-1.359c-.902 0-1.123-.244-1.123-1.152v-2.938h.846v2.934c0 .305.047.357.404.357l1.138.019zm-1.636-4.927c.804.412 1.538.949 2.176 1.589l-.564.601a9.447 9.447 0 0 0-2.138-1.65l.526-.54zm3.031 1.833a8.375 8.375 0 0 1 1.382 2.91l-.794.33a8.977 8.977 0 0 0-1.32-2.948l.732-.292zM309.354 212.293a17.868 17.868 0 0 1-1.245 2.52v8.317h-.856v-7.006a12.966 12.966 0 0 1-1.358 1.613 5.417 5.417 0 0 0-.512-.88 13.658 13.658 0 0 0 3.13-4.818l.841.254zm7.454 1.97v.756h-7.896v-.756h7.896zm-7.05 5.049h6.209v3.818h-.879v-.541h-4.418v.573h-.879l-.033-3.85zm6.11-2.614h-5.95v-.748h5.964l-.014.748zm-5.964.94h5.936v.734h-5.922l-.014-.734zm5.743-4.302h-5.583v-.747h5.597l-.014.747zm-4.977 6.71v1.805h4.423v-1.796l-4.423-.01zM322.655 214.799h-4.817v-.748h4.817v.748zm-.47 7.691h-2.956v.56h-.809v-4.095h3.76l.005 3.535zm-3.76-6.784h3.788v.72h-3.788v-.72zm0 1.613h3.788v.733h-3.788v-.733zm3.788-4.133h-3.727v-.738h3.727v.738zm-2.994 6.516v2.055h2.139v-2.055h-2.139zm8.582 2.492c.381 0 .47-.38.503-1.88.248.185.531.318.832.39-.098 1.758-.329 2.35-1.269 2.35h-1.602c-.992 0-1.27-.305-1.27-1.476v-3.597l-2.35.367-.136-.856 2.482-.38v-3.254c-.663.146-1.32.268-1.946.367a3.499 3.499 0 0 0-.291-.771 23.71 23.71 0 0 0 5-1.321l.757.71c-.85.335-1.726.606-2.618.808v3.291l3.032-.47.16.856-3.192.47v3.761c0 .513.085.611.47.611l1.438.024zM332.596 211.978h.892v11.161h-.892v-4.485c-.72.696-1.467 1.41-2.092 1.956l-.512-.771a57.193 57.193 0 0 0 2.603-2.285v-5.576zm-.87 4.301a13.597 13.597 0 0 0-1.542-2.26l.71-.443a13.775 13.775 0 0 1 1.58 2.215l-.748.488zm6.049.198a8.463 8.463 0 0 0 3.619 5.905c-.254.22-.475.475-.658.757a8.59 8.59 0 0 1-3.384-5.134 8.67 8.67 0 0 1-3.055 5.134 4.423 4.423 0 0 0-.733-.574 8.53 8.53 0 0 0 3.116-6.112h-2.773v-.893h2.82v-3.568h.893V215.56h3.506v.893l-3.351.024zm2.26-1.514a15.61 15.61 0 0 0-1.456-2.167l.686-.39c.561.653 1.06 1.359 1.49 2.106l-.72.451zM344.736 217.342a10.809 10.809 0 0 0-2.444-1.199l.47-.696c.863.267 1.689.64 2.458 1.115l-.484.78zm1.16 1.613a56.938 56.938 0 0 1-2.35 4.071l-.756-.588a35.926 35.926 0 0 0 2.481-4.048l.625.565zm-.573-4.928a8.868 8.868 0 0 0-2.251-1.269l.47-.672c.811.279 1.577.675 2.275 1.175l-.494.766zm7.003 8.228c.306 0 .367-.282.404-1.848.24.17.51.292.795.358-.085 1.81-.32 2.285-1.124 2.285h-1.198c-.903 0-1.123-.282-1.123-1.223v-4.302h-1.41c-.137 2.821-.588 4.645-3.046 5.642a2.896 2.896 0 0 0-.55-.733c2.251-.842 2.58-2.407 2.702-4.913h-1.297v-4.956h6.322v4.96h-1.81v4.293c0 .367.047.437.353.437h.982zm-4.996-5.576h4.512v-3.29h-4.512v3.29zM359.747 221.634c.35-.024.697-.073 1.04-.145a3.63 3.63 0 0 0 3.068-3.583 3.357 3.357 0 0 0-3.215-3.507 25.607 25.607 0 0 1-.719 3.484c-.747 2.482-1.71 3.76-2.82 3.76-1.109 0-2.162-1.245-2.162-3.238a5.17 5.17 0 0 1 5.307-4.928 4.394 4.394 0 0 1 4.643 4.453 4.593 4.593 0 0 1-4.559 4.621l-.583-.917zm-.794-3.963a19.55 19.55 0 0 0 .672-3.263 4.23 4.23 0 0 0-3.76 3.912c0 1.528.71 2.2 1.236 2.2.527 0 1.227-.804 1.852-2.844v-.005zM369.49 215.269h2.252v.78h-1.27l.588.16c-.22.564-.47 1.152-.672 1.58h1.208v.77h-2.1v1.322h1.94v.77h-1.94v2.483h-.856v-2.482h-2.002v-.771h2.002v-1.321h-2.125v-.795h1.199a6.767 6.767 0 0 0-.512-1.58l.596-.16h-1.452v-.756h2.298v-1.213h-1.88v-.78h1.88v-1.251h.856v1.236h1.786v.78H369.5l-.01 1.228zm.184 2.383c.233-.521.434-1.057.601-1.603h-2.382a5.94 5.94 0 0 1 .564 1.613l-.428.122h2.115l-.47-.132zm7.482-.78a11.253 11.253 0 0 1-1.48 4.02 6.11 6.11 0 0 0 1.931 1.551 4.09 4.09 0 0 0-.625.734 6.769 6.769 0 0 1-1.81-1.552 7.154 7.154 0 0 1-1.635 1.58 3.29 3.29 0 0 0-.573-.602v.588h-.832v-10.626h4.742v2.351c0 .47-.084.696-.47.832a7.212 7.212 0 0 1-1.908.137 2.821 2.821 0 0 0-.282-.795c.757.024 1.41.024 1.58 0 .168-.024.244-.047.244-.193v-1.509h-3.07v3.291h3.474l.16-.038.554.23zm-4.192 5.684a6.713 6.713 0 0 0 1.687-1.636 12.122 12.122 0 0 1-1.58-3.46h-.107v5.096zm.879-5.101c.3.956.731 1.866 1.283 2.703a10.11 10.11 0 0 0 1.053-2.703h-2.336zM389.489 216.51v.856H378.82v-.856h5.123v-1.918h-3.008a9.977 9.977 0 0 1-1.16 1.636 7.469 7.469 0 0 0-.819-.47 9.446 9.446 0 0 0 2.115-3.62l.903.206c-.176.48-.377.951-.602 1.41h2.557v-1.776h.94v1.758h3.718v.832h-3.718v1.918l4.62.024zm-9.18 2.054h7.751v4.702h-.94v-.658h-5.903v.681h-.902l-.005-4.725zm.903.842v2.35h5.927v-2.35h-5.927zM284.82 80.068a17.868 17.868 0 0 1-1.245 2.52V90.9h-.856v-7.005a13.013 13.013 0 0 1-1.358 1.612 5.482 5.482 0 0 0-.512-.879 13.635 13.635 0 0 0 3.13-4.819l.841.259zm7.454 1.97v.757h-7.924v-.757h7.924zm-7.05 5.05h6.209V90.9h-.902v-.536h-4.423v.574h-.88l-.004-3.85zm6.11-2.615h-5.974v-.747h5.965l.01.747zm-5.964.94h5.94v.734h-5.95l.01-.734zm5.743-4.301h-5.607v-.748h5.598l.01.748zm-5 6.713v1.796h4.422v-1.796h-4.423zM298.098 82.55h-4.818v-.747h4.818v.747zm-.47 7.692h-2.957v.564h-.827v-4.095h3.76l.024 3.53zm-3.76-6.784h3.788v.719h-3.788v-.72zm0 1.612h3.788v.734h-3.788v-.734zm3.788-4.132h-3.727v-.734h3.727v.734zm-2.994 6.516v2.054h2.138v-2.054h-2.138zm8.582 2.492c.38 0 .47-.381.503-1.88.248.185.53.318.832.39-.099 1.758-.33 2.35-1.27 2.35h-1.616c-.992 0-1.269-.306-1.269-1.48v-3.598l-2.35.367-.136-.856 2.481-.38v-3.216c-.662.146-1.32.268-1.945.367a3.508 3.508 0 0 0-.292-.771c1.71-.257 3.387-.7 5-1.322l.758.71c-.851.336-1.726.607-2.618.809v3.291l3.031-.47.16.856-3.191.47v3.76c0 .513.084.612.47.612l1.452-.01zM111.785 147.182c-.15.44-.233.902-.245 1.368 0 .94.94 1.551 2.863 1.551 1.396.028 2.79-.13 4.145-.47v1.04c-1.354.31-2.742.454-4.131.427-2.458 0-3.887-.818-3.887-2.35a6.79 6.79 0 0 1 .258-1.689l.997.123zm-.503-4.89c1.063.117 2.131.17 3.2.16 1.162 0 2.398-.085 3.262-.17v1.002c-.817.061-2.138.146-3.261.146a34.24 34.24 0 0 1-3.201-.136v-1.002zm7.849.306l-.658.305a12.836 12.836 0 0 0-1.001-1.711l.658-.268c.365.539.699 1.097 1 1.674zm1.382-.503l-.663.3a11.313 11.313 0 0 0-1.015-1.687l.648-.282c.374.536.718 1.094 1.03 1.669zM130.89 146.627v5.012h-.94v-.734h-7.614v.757h-.902v-5.035h.902v3.385h3.262v-4.17h-3.704v-4.18h.903v3.291h2.82v-4.391h.94v4.391h2.933v-3.29h.94v4.179h-3.873v4.17h3.436v-3.385zM138.768 150.459h4.78v.808h-10.369v-.808h4.644v-3.019h-4.094v-.813h4.094v-1.641h-2.52v-.696c-.64.472-1.314.896-2.016 1.27a2.934 2.934 0 0 0-.55-.71 13.702 13.702 0 0 0 5.062-4.391h.903a14.406 14.406 0 0 0 5.306 4.23 4.123 4.123 0 0 0-.588.81 15.462 15.462 0 0 1-2.04-1.27v.757h-2.612v1.64h4.192v.795h-4.192v3.038zm-3.29-2.69c.498.66.89 1.395 1.16 2.177l-.78.353a8.501 8.501 0 0 0-1.114-2.252l.733-.278zm5.832-3.568a14.38 14.38 0 0 1-3.008-2.821 13.383 13.383 0 0 1-2.862 2.82h5.87zm-1.527 5.797c.503-.71.94-1.463 1.306-2.252l.856.329a20.17 20.17 0 0 1-1.49 2.224l-.672-.301zM283.612 149.19a3.698 3.698 0 0 0 3.154 1.367c1.33.047 4.07 0 5.513-.084-.14.3-.242.615-.306.94-1.33.047-3.863.075-5.207.023a4.45 4.45 0 0 1-3.544-1.443 59.7 59.7 0 0 1-1.734 1.566l-.47-.903a18.872 18.872 0 0 0 1.734-1.41v-3.09h-1.551v-.855h2.435l-.024 3.888zm-.357-5.854a8.899 8.899 0 0 0-1.97-2.003l.673-.536c.765.54 1.438 1.2 1.992 1.956l-.695.583zm2.848 1.138a9.01 9.01 0 0 1-1.41 5.171 2.35 2.35 0 0 0-.733-.503 8.502 8.502 0 0 0 1.297-5.218v-2.821h6.552v.841h-5.692v1.712h4.536l.169-.038.578.188a8.76 8.76 0 0 1-2.016 3.912 7.176 7.176 0 0 0 2.848 1.518 2.82 2.82 0 0 0-.588.78 7.675 7.675 0 0 1-2.885-1.673 8.558 8.558 0 0 1-2.614 1.566 3.968 3.968 0 0 0-.512-.757 7.05 7.05 0 0 0 2.505-1.458 9.583 9.583 0 0 1-1.748-3.24l-.287.02zm1.137 0c.331.97.847 1.867 1.519 2.642a7.64 7.64 0 0 0 1.541-2.642h-3.06zM295.79 149.213a3.539 3.539 0 0 0 3.078 1.368c1.344.06 4.155.023 5.64-.075-.139.282-.237.583-.291.893-1.368.061-3.948.085-5.316.023a4.262 4.262 0 0 1-3.459-1.443c-.536.527-1.1 1.04-1.697 1.566l-.47-.87a19.99 19.99 0 0 0 1.688-1.41v-3.108h-1.551v-.856h2.406l-.028 3.912zm-.372-5.877a9.021 9.021 0 0 0-1.931-2.04l.695-.513a9.143 9.143 0 0 1 1.97 1.993l-.733.56zm8.888 1.076h-8.103v-.686h8.103v.686zm-4.634 5.77v-2.192a11.698 11.698 0 0 1-2.74 1.636 5.524 5.524 0 0 0-.55-.672 10.118 10.118 0 0 0 3.093-1.772h-2.238v-2.187h6.054v1.956l.038-.037.648.442a14.57 14.57 0 0 1-1.635 1.222c.616.298 1.269.516 1.94.649a3.62 3.62 0 0 0-.526.696 7.75 7.75 0 0 1-3.229-1.712v1.994l-.855-.024zm3.986-7.053h-6.797v-2.313h6.797v2.313zm-4.804-1.674h-1.208v1.138h1.208v-1.138zm-.77 5.172h4.314v-1.04h-4.315v1.04zm2.763-5.172h-1.26v1.138h1.26v-1.138zm-.32 5.797c.348.4.755.742 1.208 1.016a13.81 13.81 0 0 0 1.307-1.077h-2.505l-.01.061zm2.313-5.797h-1.27v1.138h1.27v-1.138zM199.75 138.409v-6.211h2.026a2.458 2.458 0 0 1 1.522.418c.379.305.584.776.55 1.26.002.27-.09.531-.263.739-.185.217-.425.38-.695.47.352.066.668.263.883.55.216.289.33.64.325 1.001.03.497-.176.98-.555 1.303-.43.327-.96.494-1.5.47h-2.293zm.841-3.569h1.359c.277.012.548-.08.761-.258a1.04 1.04 0 0 0-.024-1.472 1.452 1.452 0 0 0-.911-.25h-1.185v1.98zm0 .663v2.247h1.453c.322.02.64-.08.893-.282.22-.205.337-.498.32-.799a1.265 1.265 0 0 0-.269-.856 1.024 1.024 0 0 0-.822-.31h-1.575zM206.062 132.612h-.841v-.856h.841v.856zm0 5.797h-.841v-4.617h.841v4.617zM208.102 133.792l.061.686c.143-.234.342-.43.578-.569.24-.137.513-.207.79-.202.43-.027.85.133 1.156.437.302.382.448.864.409 1.35v2.915h-.841v-2.896a1.25 1.25 0 0 0-.24-.866.968.968 0 0 0-.738-.253 1.18 1.18 0 0 0-.644.174c-.187.115-.34.277-.447.47v3.366h-.84v-4.612h.756zM215.152 138.409a6.775 6.775 0 0 1-.066-.367 2.62 2.62 0 0 1-.028-.324 1.95 1.95 0 0 1-.611.554 1.565 1.565 0 0 1-.813.226 1.504 1.504 0 0 1-1.1-.371 1.359 1.359 0 0 1-.376-1.016c-.013-.414.19-.806.536-1.034a2.5 2.5 0 0 1 1.452-.372h.912v-.47a.846.846 0 0 0-.25-.64.968.968 0 0 0-.7-.234c-.236-.011-.47.062-.657.207a.62.62 0 0 0-.254.498h-.804v-.024a1.12 1.12 0 0 1 .47-.94c.367-.29.826-.438 1.292-.418.455-.022.901.12 1.26.4.325.289.499.712.47 1.146v2.224c0 .157.007.314.024.47.016.16.047.317.094.47l-.851.015zm-1.41-.616c.291.003.577-.079.822-.235a1.11 1.11 0 0 0 .47-.536v-.738h-.94a1.222 1.222 0 0 0-.813.253.762.762 0 0 0-.305.602.63.63 0 0 0 .192.47c.165.135.376.2.588.18l-.014.004zM219.302 134.535l-.432-.029a.963.963 0 0 0-.56.16 1.02 1.02 0 0 0-.352.442v3.291h-.818v-4.607h.752l.08.672c.111-.22.272-.412.47-.56.194-.134.426-.205.663-.202.059-.005.119-.005.178 0l.141.033-.122.8zM221.596 136.697l.15.579h.023l1.133-3.484h.94l-1.94 5.312c-.113.301-.284.576-.504.81-.23.234-.55.359-.879.342a1.88 1.88 0 0 1-.258 0l-.245-.042.085-.663h.376a.517.517 0 0 0 .423-.226c.117-.164.213-.343.287-.53l.202-.471-1.716-4.523h.94l.983 2.896zM197.071 146.279c-.122-.296-.428-.865-.681-1.326v4.603h-.635v-4.26a9.729 9.729 0 0 1-1.09 2.497 3.15 3.15 0 0 0-.358-.63 9.259 9.259 0 0 0 1.382-3.291h-1.18v-.611h1.25v-1.679h.64v1.679h1.11v.61h-1.11v.288c.235.324.94 1.41 1.076 1.669l-.404.451zm3.572-.339a7 7 0 0 0 1.88 2.62 2.35 2.35 0 0 0-.47.498 8.237 8.237 0 0 1-1.781-2.718v3.216h-.64v-3.136a7.522 7.522 0 0 1-2.12 2.708 2.426 2.426 0 0 0-.446-.498 6.666 6.666 0 0 0 2.2-2.69h-1.701v-.592h2.067v-1.542h-1.08c-.134.45-.325.882-.57 1.283a2.453 2.453 0 0 0-.535-.343c.493-.852.797-1.799.893-2.778l.602.103c-.061.386-.141.762-.226 1.12h.94v-1.628h.64v1.627h1.7v.616h-1.729v1.537h2.007v.593l-1.631.004zM208.417 143.844c.22 2.933.898 5.054 1.762 5.054.235 0 .339-.47.395-1.641.169.154.365.276.578.357-.113 1.51-.357 1.956-1.02 1.956-1.41 0-2.138-2.506-2.373-5.731h-4.507v-.64h4.46c-.028-.517-.033-1.048-.042-1.58h.681c0 .541 0 1.068.038 1.58h2.585v.64l-2.557.005zm-2.67 4.316c.611-.132 1.241-.254 1.88-.395l.052.578c-1.476.348-3.074.715-4.183.94l-.202-.64 1.823-.366v-2.534h-1.555v-.63h3.825v.63h-1.63l-.01 2.417zm4.409-5.055a7.558 7.558 0 0 0-1.241-1.09l.437-.358c.454.301.875.65 1.255 1.04l-.451.408zM216.092 141.596a9.4 9.4 0 0 0 3.807 2.986 3.48 3.48 0 0 0-.418.578 10.712 10.712 0 0 1-3.685-2.943 9.988 9.988 0 0 1-3.605 2.976 2.04 2.04 0 0 0-.376-.517 9.185 9.185 0 0 0 3.614-3.084l.663.004zm-3.826 4.34h7.177v.602h-4.094c-.305.648-.681 1.41-1.029 2.007 1.081-.033 2.312-.08 3.534-.132-.36-.416-.744-.81-1.151-1.18l.55-.296c.78.666 1.47 1.433 2.049 2.28l-.583.358a5.59 5.59 0 0 0-.4-.588c-2.138.103-4.398.202-5.893.254l-.09-.64c.377 0 .814 0 1.284-.037.36-.656.673-1.337.94-2.036h-2.294v-.592zm5.612-1.66v.593h-4.131v-.593h4.13zM223.819 147.045a19.797 19.797 0 0 0-1.1-1.11v3.616h-.64v-3.394a8.663 8.663 0 0 1-1.334 1.081 2.953 2.953 0 0 0-.339-.588 7.564 7.564 0 0 0 2.731-2.863h-2.425v-.592h1.372v-1.627h.64v1.627h.761l.113-.028.366.244a8.12 8.12 0 0 1-1.128 1.88c.4.325 1.17.997 1.41 1.19l-.427.564zm4.813 1.622v.64h-4.912v-.64h2.209v-3.625h-1.88v-.625h1.88v-2.769h.649v2.77h1.88v.63h-1.88v3.624l2.053-.005zM192.286 289.905a5.434 5.434 0 0 1-1.997 2.19c1.028.443 2.116.728 3.229.847-.16.18-.294.383-.395.602a10.197 10.197 0 0 1-3.483-1.082c-1.109.544-2.297.909-3.52 1.082-.1-.21-.23-.405-.385-.578a12.09 12.09 0 0 0 3.29-.875 6.153 6.153 0 0 1-1.763-1.8l.09-.034h-.377v-.601h4.762l.131-.024.418.273zm-5.752-.033h-.611v-1.777h1.41a6.113 6.113 0 0 0-.578-1.152l.559-.155c.254.353.462.737.62 1.142l-.517.165h3.798c.31-.473.581-.97.813-1.486l.653.202c-.235.428-.54.898-.804 1.284h1.495v1.772h-.672v-1.194h-6.166v1.199zm6.33-3.761a45.867 45.867 0 0 1-6.706.672 1.999 1.999 0 0 0-.15-.55 45.538 45.538 0 0 0 6.4-.649l.457.527zm-4.916 4.175a5.128 5.128 0 0 0 1.711 1.504 4.752 4.752 0 0 0 1.66-1.504h-3.37zm1.528-2.22a5.06 5.06 0 0 0-.437-1.283l.583-.132c.21.4.368.825.47 1.265l-.616.15zM199.806 287.991a6.858 6.858 0 0 0 2.637 2.445 2.51 2.51 0 0 0-.446.517 6.401 6.401 0 0 1-.856-.569v2.351h1.17v.578h-7.881v-.587h1.203v-2.3a7.572 7.572 0 0 1-.874.65 3.342 3.342 0 0 0-.499-.47 6.938 6.938 0 0 0 2.567-2.586h-2.177v-.579h2.186a8.83 8.83 0 0 0-.94-1.547l.55-.235c.402.481.74 1.012 1.006 1.58l-.395.202h2.665l-.47-.164c.409-.52.766-1.08 1.067-1.67l.672.208a13.85 13.85 0 0 1-1.152 1.626h2.261v.579l-2.294-.029zm1.17 2.262a8.175 8.175 0 0 1-1.851-2.262h-1.546a8.317 8.317 0 0 1-1.754 2.262h5.152zm-3.717.56h-1.039v1.88h1.039v-1.88zm1.64 0h-1.029v1.88h1.048l-.019-1.88zm1.64 1.88v-1.88h-1.057v1.88h1.058zM207.693 288.97c-.47.324-.94.63-1.41.907h3.605v3.653h-.663v-.245h-3.534v.278h-.64v-3.023c-.521.253-1.066.47-1.597.69-.12-.19-.257-.37-.41-.535a17.209 17.209 0 0 0 3.591-1.73h-3.398v-.588h2.985v-1.12h-2.242v-.577h2.228v-1.091h.639v1.09h2.157v.358c.36-.359.694-.744.997-1.152l.55.296c-.62.81-1.332 1.545-2.12 2.191h2.514v.588l-3.252.01zm1.537 1.457h-3.534v.865h3.534v-.865zm0 2.29v-.908h-3.534v.907h3.534zm-1.753-4.33a13.57 13.57 0 0 0 1.325-1.12h-1.936v1.12h.61zM214.818 285.885a11.797 11.797 0 0 1-.94 1.763v5.905h-.653v-4.97c-.352.462-.743.892-1.17 1.284a4.232 4.232 0 0 0-.376-.63 9.788 9.788 0 0 0 2.523-3.545l.616.193zm2.303 2.953c.296 2.313.865 3.878 1.8 3.968.254 0 .395-.499.47-1.505.166.134.348.248.54.339-.192 1.495-.54 1.946-.996 1.923-1.41-.104-2.129-1.914-2.462-4.636l-2.097.263-.089-.611 2.115-.263a51.424 51.424 0 0 1-.164-2.586h.648c.028.884.08 1.73.165 2.496l2.613-.329.09.612-2.633.329zm1.965-1.312a9.312 9.312 0 0 0-1.41-1.41l.47-.316c.53.416 1.012.89 1.438 1.41l-.498.316zM223.391 291.762c-.94.315-1.932.653-2.707.907l-.15-.653c.324-.094.723-.216 1.17-.367v-2.35h-.992v-.612h.996v-1.88h-1.08v-.612h2.707v.612h-1.025v1.88h.884v.611h-.884v2.158l.94-.315.141.62zm5.212.94v.593h-5.64v-.593h2.656v-1.199h-1.984v-.592h1.984v-1.02h-1.88v-3.888h4.437v3.888h-1.88v1.02h2.035v.592h-2.035v1.2h2.307zm-4.23-5.03h1.326v-1.1h-1.326v1.1zm0 1.65h1.326v-1.12h-1.326v1.12zm3.22-2.75h-1.335v1.1h1.335v-1.1zm0 1.63h-1.335v1.12h1.335v-1.12zM233.566 285.862v.4a7.861 7.861 0 0 0 3.836 6.69c-.189.147-.348.33-.47.535a7.165 7.165 0 0 1-3.633-5.049 7.23 7.23 0 0 1-3.493 5.05 2.402 2.402 0 0 0-.521-.499 7.829 7.829 0 0 0 3.595-7.127h.686zM204.746 300.065a5.807 5.807 0 0 1 1.74-4.156l.52.272a5.464 5.464 0 0 0 0 7.772l-.52.268a5.803 5.803 0 0 1-1.74-4.156zM214.729 296.604v5.172h-.715v-.447h-2.185v2.709h-.705v-2.709h-2.209v.47h-.705v-5.195h6.519zm-5.814.64v1.41h2.209v-1.41h-2.209zm2.209 3.441v-1.41h-2.209v1.41h2.209zm2.89-3.441h-2.185v1.41h2.18l.006-1.41zm0 3.441v-1.41h-2.185v1.41h2.185zM218.179 300.065a5.803 5.803 0 0 1-1.74 4.156l-.521-.268a5.464 5.464 0 0 0 0-7.772l.522-.272a5.807 5.807 0 0 1 1.739 4.156z" fill="#000"/><path fill="#E98024" d="M138.862 106.152v-5.543l6.904 6.906-6.904 6.907v-5.543h-32.694v-2.727zM113.167 125.371v-5.543l-6.905 6.907 6.905 6.906v-5.543h32.693v-2.727zM305.068 106.152v-5.543l6.904 6.906-6.904 6.907v-5.543H272.37v-2.727zM279.373 125.371v-5.543l-6.91 6.907 6.91 6.906v-5.543h32.693v-2.727zM212.92 196.641v-23.507h5.54l-6.904-6.907-6.904 6.907h5.541v23.507h-5.541l6.904 6.907 6.905-6.907h-4.555zM259.99 245.118l83.641-83.667 3.92 3.92v-9.769h-9.767l3.92 3.921-83.641 83.668-.696-.7-3.22-3.221v9.77h9.763l-3.22-3.226z"/><path d="M216.51 261.96a9.313 9.313 0 0 0 1.166-1.27 10.655 10.655 0 0 0 1.32-2.29c.038-.094.085-.188.123-.287.445-.203.823-.53 1.09-.94.37-.552.51-1.226.395-1.88a2.647 2.647 0 0 0-.738-1.449c-.01-.391-.041-.782-.094-1.17-.119-.91-.353-1.801-.696-2.652a9.785 9.785 0 0 0-.427-.907 7.792 7.792 0 0 0-14.237 0c-.15.286-.291.578-.418.884-.212.52-.382 1.056-.507 1.603a10.817 10.817 0 0 0-.287 2.125l-.033.033a2.68 2.68 0 0 0-.86 2.29c.028.214.081.423.16.625.26.695.809 1.243 1.504 1.504.218.551.482 1.083.79 1.59.198.325.417.64.653.94.348.455.739.876 1.165 1.26.24.21.49.409.752.592a7.006 7.006 0 0 0 8.437-.028c.257-.178.505-.37.742-.574zm-11.017-10.697c.111-.332.243-.657.395-.973a6.002 6.002 0 0 1 11.28 0c.155.33.288.669.4 1.016.095.288.175.582.24.879a4.614 4.614 0 0 1-.757-.25 5.348 5.348 0 0 1-.88-.47 7.677 7.677 0 0 1-2.316-2.534l-.87-1.716-.799 1.754a6.317 6.317 0 0 1-4.737 3.352 12.178 12.178 0 0 1-2.28.25c.076-.444.186-.881.33-1.308h-.006zm9.123 9.84a5.169 5.169 0 0 1-6.223-.028 6.74 6.74 0 0 1-.728-.597 7.663 7.663 0 0 1-1.048-1.227 8.718 8.718 0 0 1-1.025-2.012l-.052-.132-.188-.555-.582-.065a.733.733 0 0 1-.635-.659.776.776 0 0 1 .404-.785l.513-.263v-.339h.545a13.964 13.964 0 0 0 1.664-.164c.31-.052.63-.113.94-.193a8.356 8.356 0 0 0 4.85-2.971 8.931 8.931 0 0 0 2.176 2.003 6.49 6.49 0 0 0 2.411.94l.353.056v.677l.441.278a.785.785 0 0 1 .348.757.738.738 0 0 1-.568.625l-.522.108-.17.503a8.637 8.637 0 0 1-1.105 2.2 7.583 7.583 0 0 1-1.056 1.223c-.231.224-.478.432-.738.62h-.005zM208.046 265.946a13.36 13.36 0 0 0-2.703 1.194 11.394 11.394 0 0 0-2.42 1.9c-.245.247-.475.506-.691.775a11.112 11.112 0 0 0-2.45 7.104v2.12h1.848v-2.12a9.245 9.245 0 0 1 2.5-6.455c.23-.241.471-.47.724-.686.457-.39.948-.738 1.467-1.04a12.01 12.01 0 0 1 2.89-1.199l.691-.183v-3.004h-1.852l-.005 1.594zM221.215 269.806a11.469 11.469 0 0 0-3.111-2.675 13.36 13.36 0 0 0-2.703-1.194v-1.585h-1.852v3l.691.183a12.01 12.01 0 0 1 2.89 1.199c.52.302 1.01.65 1.467 1.04.253.215.495.444.724.685a9.24 9.24 0 0 1 2.5 6.456v2.12h1.847v-2.12a11.117 11.117 0 0 0-2.453-7.109zM213.728 268.424l-2.012 2.012-2.016-2.012" fill="#293052"/><path fill="#293052" d="M213.728 276.548l-2.012 2.017-2.016-2.017 2.016-7.607z"/><ellipse stroke="#2A3052" stroke-width="2" fill="#F2F2F2" cx="373.702" cy="117.097" rx="40.608" ry="40.621"/><path d="M367.84 131.7v7.24h-.68v-.531h-4.32v.569h-.653V131.7h5.654zm-5.01.639v2.35h4.33v-2.35h-4.33zm4.33 5.43v-2.426h-4.32v2.436l4.32-.01zM372.856 133.096h-3.154v-.531h3.154v.531zm-.264 5.571h-1.931v.395h-.569v-2.915h2.496l.004 2.52zm-.037-4.386h-2.444v-.517h2.444v.517zm-2.444.672h2.444v.517h-2.444v-.517zm2.435-3.032h-2.383v-.522h2.382v.522zm-1.88 4.753v1.448h1.363v-1.448h-1.363zm7.05 1.476v.62h-4.86v-.606h.653v-4.34h.611v4.34h1.048v-5.924h-2.026v-.601h4.437v.601h-1.781v2.403h1.73v.611h-1.73v2.91l1.918-.014zM382.73 138.216h3.413v.578h-7.403v-.578h3.318v-2.158h-2.923v-.569h2.923v-1.17h-1.8v-.499c-.456.337-.937.64-1.438.907a2.092 2.092 0 0 0-.395-.507 9.786 9.786 0 0 0 3.614-3.136h.644a10.28 10.28 0 0 0 3.789 3.023c-.163.175-.303.37-.419.578a11.096 11.096 0 0 1-1.457-.907v.54h-1.88v1.171h2.994v.569h-2.994l.014 2.158zm-2.35-1.923c.356.472.635.997.828 1.556l-.56.254a6.113 6.113 0 0 0-.794-1.608l.526-.202zm4.165-2.548a10.233 10.233 0 0 1-2.148-2.027 9.533 9.533 0 0 1-2.045 2.027h4.193zm-1.09 4.137c.361-.506.676-1.044.94-1.608l.61.235a14.26 14.26 0 0 1-1.067 1.59l-.484-.217zM359.273 141.789a12.696 12.696 0 0 1-.889 1.8v5.939h-.61v-5.007c-.292.409-.616.794-.969 1.151a3.893 3.893 0 0 0-.366-.63 9.751 9.751 0 0 0 2.237-3.441l.597.188zm5.325 1.41v.541h-5.64v-.545l5.64.004zm-5.02 3.607h4.437v2.726h-.644v-.385h-3.163v.409h-.63v-2.75zm4.357-1.881h-4.263v-.531h4.263v.53zm-4.263.672h4.23v.527h-4.23v-.527zm4.103-3.075h-4v-.53h4.005l-.005.53zm-3.572 4.796v1.283h3.159v-1.283h-3.159zM368.776 143.561h-3.44v-.53h3.44v.53zm-.348 5.492h-2.115v.395h-.578v-2.915h2.689l.004 2.52zm-2.679-4.847h2.707v.54h-2.707v-.54zm0 1.151h2.707v.527h-2.707v-.527zm2.707-2.952h-2.664v-.522h2.665v.522zm-2.138 4.654v1.467h1.528v-1.467h-1.528zm6.11 1.782c.273 0 .324-.272.357-1.354.177.132.378.227.592.278-.07 1.255-.235 1.683-.907 1.683h-1.142c-.705 0-.907-.217-.907-1.058v-2.567l-1.678.263-.094-.611 1.772-.273v-2.294c-.47.103-.94.193-1.41.263a2.497 2.497 0 0 0-.211-.55 16.916 16.916 0 0 0 3.572-.94l.54.508c-.61.24-1.24.434-1.88.578v2.35l2.167-.333.113.611-2.28.348v2.67c0 .367.061.438.348.438l1.048-.01zM377.66 148.61c-1.18.255-2.445.5-3.361.683l-.15-.588c.418-.07.94-.174 1.536-.277v-2.657h-1.41v-.555h1.41v-.94h-.987v-.376a5.921 5.921 0 0 1-.357.33 2.35 2.35 0 0 0-.409-.42 6.328 6.328 0 0 0 1.701-2.237h.579c.584.485 1.12 1.027 1.598 1.617l-.438.498a10.262 10.262 0 0 0-1.372-1.513 7.823 7.823 0 0 1-1.133 1.556h2.444v.545h-1.076v.94h1.302v.57h-1.302v2.548l1.363-.264.061.54zm-2.77-2.35a7.21 7.21 0 0 1 .396 1.599l-.47.14a6.683 6.683 0 0 0-.358-1.621l.433-.118zm1.632 1.486c.17-.521.31-1.052.418-1.59l.508.156c-.165.531-.367 1.17-.527 1.58l-.4-.146zm5.466-1.284c-.416.371-.857.712-1.32 1.02.343.66.883 1.198 1.545 1.538-.166.16-.31.342-.427.54a5.506 5.506 0 0 1-2.374-3.902h-.794v2.873l1.617-.386.06.593a98.51 98.51 0 0 1-2.82.705l-.183-.62.734-.156v-6.742h3.614v3.762h-1.645c.107.455.25.902.428 1.335.396-.294.77-.618 1.118-.969l.447.41zm-3.37-3.94v.969h2.402v-.969h-2.402zm0 2.567h2.402v-1.03h-2.402v1.03zM385.734 143.665c-.28.463-.595.904-.94 1.321v4.593h-.649v-3.892a10.12 10.12 0 0 1-.987.907 6.055 6.055 0 0 0-.47-.54 9.533 9.533 0 0 0 2.444-2.629l.602.24zm-.334-1.838a10.713 10.713 0 0 1-2.237 2.167 5.595 5.595 0 0 0-.386-.517 8.7 8.7 0 0 0 1.998-1.88l.625.23zm5.353 3.29h-1.32v3.607c0 .4-.094.602-.386.705-.54.1-1.092.13-1.64.094a2.3 2.3 0 0 0-.212-.63h1.363c.17 0 .217-.042.217-.193v-3.596h-2.905v-.621h4.888l-.005.635zm-.253-2.392h-4.263v-.612h4.262v.612z" fill="#000"/><path d="M367.145 102.593h3.652v3.972a4.361 4.361 0 0 1 1.32-.804v-4.49h-6.288v18.858h1.655v-1.32h-.339v-16.216zM371.441 110.162v1.006h.677v-2.421a1.918 1.918 0 0 0-.677 1.415zM376.94 101.276h-1.32v4.448c.485.18.933.45 1.32.794v-3.94h3.652v16.216h-.362v1.321h1.692v-18.839h-4.982zM375.633 111.168h.64v-1.006a1.975 1.975 0 0 0-.64-1.41v2.416z" fill="#293052"/><path d="M391.148 102.593v-5.825l-17.272-7.16-17.273 7.16v5.825h4.39v16.215h-4.39v5.722h34.54v-5.736h-4.39v-16.201h4.395zm-4.39 17.536h3.07v3.094h-31.904v-3.094h4.39v-18.853h-4.39v-3.625l15.952-6.615 15.951 6.615v3.625h-4.39v18.858l1.321-.005z" fill="#293052"/><path d="M378.82 112.419h-.987v-2.257a3.831 3.831 0 0 0-3.826-3.827h-.268a3.831 3.831 0 0 0-3.825 3.827v2.257h-.964a.564.564 0 0 0-.564.564v7.72a.564.564 0 0 0 .564.564h9.87a.564.564 0 0 0 .564-.564v-7.72a.564.564 0 0 0-.564-.564zm-4.63 4.546v1.75h-.63v-1.75a.94.94 0 1 1 .63 0zm2.853-4.546h-6.335v-2.257a3.037 3.037 0 0 1 3.031-3.028h.268a3.037 3.037 0 0 1 3.036 3.037v2.248z" fill="#E88024"/></g></svg>