<?xml version="1.0" encoding="utf-8"?>
<!-- Generator: Adobe Illustrator 19.1.0, SVG Export Plug-In . SVG Version: 6.00 Build 0)  -->
<svg version="1.1" id="Layer_1" xmlns="http://www.w3.org/2000/svg" xmlns:xlink="http://www.w3.org/1999/xlink" x="0" y="0"
	 viewBox="0 0 26 26" style="enable-background:new 0 0 26 26;" xml:space="preserve">
<style type="text/css">
	.st0{fill:#2A3052;}
</style>
<g>
	<g>
		<path class="st0" d="M14.62,8.77c0.49-0.22,0.85-0.69,0.92-1.25c0.06-0.5-0.12-0.99-0.46-1.34c-0.07-3.15-2.31-5.69-5.07-5.69
			C7.27,0.5,5.04,3,4.94,6.11C4.54,6.45,4.33,6.98,4.4,7.52c0.07,0.6,0.47,1.09,1.01,1.29c0.83,2.12,2.65,3.52,4.6,3.52
			C11.97,12.34,13.79,10.92,14.62,8.77z M10.01,1.62c1.84,0,3.38,1.5,3.81,3.55c-1.55-0.36-2.39-1.96-2.4-1.98l-0.53-1.04L10.4,3.22
			C9.54,5.13,7.21,5.4,6.14,5.41C6.5,3.26,8.09,1.62,10.01,1.62z M10.01,11.21c-1.55,0-3.02-1.23-3.64-3.05L6.25,7.82L5.9,7.78
			C5.7,7.76,5.54,7.6,5.51,7.39C5.49,7.19,5.59,7,5.76,6.91l0.31-0.16l0-0.21c1.12,0,3.52-0.23,4.88-2.03
			c0.56,0.71,1.56,1.66,3.01,1.83c0,0.01,0,0.01,0,0.02l-0.01,0.4l0.27,0.17c0.15,0.1,0.23,0.28,0.21,0.46
			c-0.02,0.2-0.16,0.35-0.35,0.39l-0.32,0.06l-0.1,0.31C13.03,9.98,11.57,11.21,10.01,11.21z"/>
		<path class="st0" d="M7.89,13.54c-3.12,0.99-5.03,3.51-5.03,6.67v1.29h1.12v-1.29c0-2.76,1.77-4.95,4.62-5.7l0.42-0.11v-1.82H7.89
			V13.54z"/>
	</g>
	<g>
		<path class="st0" d="M12.64,14.84c0.33-0.28,0.7-0.52,1.08-0.73c-0.43-0.23-0.88-0.42-1.37-0.58v-0.97h-1.12v1.82l0.42,0.11
			C11.99,14.6,12.32,14.71,12.64,14.84z"/>
	</g>
	<g>
		<path class="st0" d="M14.88,21.34h-0.69v-2.85h-0.7V18l1.4-0.12V21.34z"/>
		<path class="st0" d="M16.14,19.2l0.02,0.28c0.07-0.1,0.16-0.18,0.26-0.24c0.1-0.06,0.22-0.08,0.36-0.08
			c0.14,0,0.25,0.03,0.35,0.09c0.1,0.06,0.17,0.15,0.22,0.28c0.07-0.12,0.15-0.21,0.26-0.27c0.11-0.06,0.23-0.1,0.37-0.1
			c0.21,0,0.38,0.07,0.5,0.22c0.12,0.15,0.18,0.37,0.18,0.67v1.3H18.1v-1.3c0-0.16-0.03-0.28-0.08-0.34
			c-0.05-0.06-0.13-0.1-0.24-0.1c-0.08,0-0.15,0.02-0.21,0.05c-0.06,0.04-0.11,0.09-0.14,0.15c0,0.03,0,0.05,0,0.06
			c0,0.02,0,0.04,0,0.05v1.41h-0.58v-1.3c0-0.16-0.03-0.27-0.08-0.34s-0.13-0.1-0.24-0.1c-0.08,0-0.15,0.02-0.21,0.04
			c-0.06,0.03-0.11,0.07-0.15,0.13v1.57h-0.58V19.2H16.14z"/>
	</g>
	<path class="st0" d="M20.81,22.47h-0.57c-0.81,1.1-2.11,1.81-3.57,1.81c-2.45,0-4.45-2-4.45-4.45s2-4.45,4.45-4.45
		c1.46,0,2.76,0.71,3.57,1.81h0.57h0.87c-0.95-1.8-2.84-3.03-5.01-3.03c-3.13,0-5.67,2.54-5.67,5.67s2.54,5.67,5.67,5.67
		c2.17,0,4.06-1.23,5.01-3.03H20.81z"/>
	<polygon class="st0" points="23.15,19.22 21.93,19.22 21.93,18 20.71,18 20.71,19.22 19.49,19.22 19.49,20.44 20.71,20.44 
		20.71,21.66 21.93,21.66 21.93,20.44 23.15,20.44 	"/>
</g>
</svg>
