<?xml version="1.0" encoding="utf-8"?>
<!-- Generator: Adobe Illustrator 19.1.0, SVG Export Plug-In . SVG Version: 6.00 Build 0)  -->
<svg version="1.1" id="Layer_1" xmlns="http://www.w3.org/2000/svg" xmlns:xlink="http://www.w3.org/1999/xlink" x="0" y="0"
	 viewBox="0 0 26 26" style="enable-background:new 0 0 26 26;" xml:space="preserve">
<style type="text/css">
	.st0{fill:#2A3052;}
</style>
<g>
	<g>
		<g>
			<polygon class="st0" points="4.45,8.44 3.89,8.44 3.89,3.89 8.68,3.89 8.68,4.45 4.45,4.45 			"/>
		</g>
		<g>
			<polygon class="st0" points="22.11,8.44 21.55,8.44 21.55,4.45 17.32,4.45 17.32,3.89 22.11,3.89 			"/>
		</g>
		<g>
			<polygon class="st0" points="8.68,22.11 3.89,22.11 3.89,17.56 4.45,17.56 4.45,21.55 8.68,21.55 			"/>
		</g>
		<g>
			<polygon class="st0" points="22.11,22.11 17.32,22.11 17.32,21.55 21.55,21.55 21.55,17.56 22.11,17.56 			"/>
		</g>
		<g>
			<path class="st0" d="M8.04,14.76H7.22v-3.4H6.38v-0.58l1.67-0.15V14.76z"/>
			<path class="st0" d="M10.7,14.18c0.22,0,0.39-0.08,0.53-0.24c0.14-0.16,0.21-0.39,0.21-0.69v-0.2c-0.09,0.12-0.2,0.21-0.33,0.27
				c-0.13,0.06-0.27,0.09-0.41,0.09c-0.38,0-0.69-0.13-0.91-0.38c-0.22-0.25-0.33-0.59-0.33-1.02c0-0.41,0.13-0.75,0.39-1.03
				c0.26-0.27,0.59-0.41,1-0.41c0.42,0,0.76,0.14,1.03,0.44c0.26,0.29,0.39,0.7,0.39,1.22v0.98c0,0.5-0.15,0.9-0.44,1.18
				c-0.29,0.29-0.67,0.43-1.12,0.43c-0.14,0-0.29-0.01-0.44-0.04c-0.15-0.03-0.29-0.07-0.42-0.13l0.1-0.6
				c0.12,0.05,0.24,0.08,0.36,0.1C10.41,14.17,10.55,14.18,10.7,14.18z M10.83,12.8c0.14,0,0.26-0.03,0.36-0.08
				c0.1-0.05,0.18-0.12,0.25-0.2v-0.38c0-0.3-0.05-0.53-0.16-0.69c-0.11-0.16-0.25-0.24-0.43-0.24c-0.17,0-0.3,0.08-0.41,0.23
				c-0.1,0.16-0.16,0.34-0.16,0.57c0,0.23,0.05,0.42,0.14,0.57C10.52,12.72,10.66,12.8,10.83,12.8z"/>
			<path class="st0" d="M14.03,14.18c0.22,0,0.39-0.08,0.53-0.24c0.14-0.16,0.21-0.39,0.21-0.69v-0.2c-0.09,0.12-0.2,0.21-0.33,0.27
				c-0.13,0.06-0.27,0.09-0.41,0.09c-0.38,0-0.69-0.13-0.91-0.38c-0.22-0.25-0.33-0.59-0.33-1.02c0-0.41,0.13-0.75,0.39-1.03
				c0.26-0.27,0.59-0.41,1-0.41c0.42,0,0.76,0.14,1.03,0.44c0.26,0.29,0.39,0.7,0.39,1.22v0.98c0,0.5-0.15,0.9-0.44,1.18
				c-0.29,0.29-0.67,0.43-1.12,0.43c-0.14,0-0.29-0.01-0.44-0.04c-0.15-0.03-0.29-0.07-0.42-0.13l0.1-0.6
				c0.12,0.05,0.24,0.08,0.36,0.1C13.74,14.17,13.88,14.18,14.03,14.18z M14.16,12.8c0.14,0,0.26-0.03,0.36-0.08
				c0.1-0.05,0.18-0.12,0.25-0.2v-0.38c0-0.3-0.05-0.53-0.16-0.69c-0.11-0.16-0.25-0.24-0.43-0.24c-0.17,0-0.3,0.08-0.41,0.23
				c-0.1,0.16-0.16,0.34-0.16,0.57c0,0.23,0.05,0.42,0.14,0.57S13.99,12.8,14.16,12.8z"/>
			<path class="st0" d="M17.36,14.18c0.22,0,0.39-0.08,0.53-0.24c0.14-0.16,0.21-0.39,0.21-0.69v-0.2c-0.09,0.12-0.2,0.21-0.33,0.27
				c-0.13,0.06-0.27,0.09-0.41,0.09c-0.38,0-0.69-0.13-0.91-0.38c-0.22-0.25-0.33-0.59-0.33-1.02c0-0.41,0.13-0.75,0.39-1.03
				c0.26-0.27,0.59-0.41,1-0.41c0.42,0,0.76,0.14,1.03,0.44c0.26,0.29,0.39,0.7,0.39,1.22v0.98c0,0.5-0.15,0.9-0.44,1.18
				c-0.29,0.29-0.67,0.43-1.12,0.43c-0.14,0-0.29-0.01-0.44-0.04c-0.15-0.03-0.29-0.07-0.42-0.13l0.1-0.6
				c0.12,0.05,0.24,0.08,0.36,0.1C17.08,14.17,17.21,14.18,17.36,14.18z M17.5,12.8c0.14,0,0.26-0.03,0.36-0.08
				c0.1-0.05,0.18-0.12,0.25-0.2v-0.38c0-0.3-0.05-0.53-0.16-0.69c-0.11-0.16-0.25-0.24-0.43-0.24c-0.17,0-0.3,0.08-0.41,0.23
				c-0.1,0.16-0.16,0.34-0.16,0.57c0,0.23,0.05,0.42,0.14,0.57S17.32,12.8,17.5,12.8z"/>
		</g>
	</g>
	<g>
		<path class="st0" d="M25.5,25.5h-25v-25h25V25.5z M1.5,24.5h23v-23h-23V24.5z"/>
	</g>
</g>
</svg>
