<?xml version="1.0" encoding="utf-8"?>
<!-- Generator: Adobe Illustrator 19.1.0, SVG Export Plug-In . SVG Version: 6.00 Build 0)  -->
<svg version="1.1" id="Layer_1" xmlns="http://www.w3.org/2000/svg" xmlns:xlink="http://www.w3.org/1999/xlink" x="0" y="0"
	 viewBox="0 0 26 26" style="enable-background:new 0 0 26 26;" xml:space="preserve">
<style type="text/css">
	.st0{fill:#2A3052;}
</style>
<g>
	<rect x="3.44" y="4.91" class="st0" width="19.12" height="1.47"/>
	<rect x="3.44" y="9.32" class="st0" width="14.71" height="1.47"/>
	<path class="st0" d="M24.03,0.5H1.97H0.5v1.47v22.06v1.47h1.47h22.06h1.47v-1.47V1.97V0.5H24.03z M24.03,24.03H1.97V1.97h22.06
		V24.03z"/>
	<polygon class="st0" points="16.88,17.1 17.7,16.28 16.57,16.03 17.12,15.01 15.96,15.09 16.21,13.95 15.12,14.36 15.04,13.2 
		14.11,13.89 13.7,12.8 13,13.74 12.3,12.8 11.89,13.89 10.96,13.2 10.88,14.36 9.79,13.95 10.04,15.09 8.88,15.01 9.43,16.03 
		8.3,16.28 9.12,17.1 8.1,17.66 9.12,18.22 8.3,19.04 9.43,19.29 8.88,20.31 10.04,20.22 9.79,21.36 10.88,20.96 10.96,22.12 
		11.89,21.42 12.3,22.51 13,21.58 13.7,22.51 14.11,21.42 15.04,22.12 15.12,20.96 16.21,21.36 15.96,20.23 17.12,20.31 
		16.57,19.29 17.7,19.04 16.88,18.22 17.9,17.66 	"/>
</g>
</svg>
