<?xml version="1.0" encoding="utf-8"?>
<!-- Generator: Adobe Illustrator 19.1.0, SVG Export Plug-In . SVG Version: 6.00 Build 0)  -->
<svg version="1.1" id="Layer_1" xmlns="http://www.w3.org/2000/svg" xmlns:xlink="http://www.w3.org/1999/xlink" x="0" y="0"
	 viewBox="0 0 26 26" style="enable-background:new 0 0 26 26;" xml:space="preserve">
<style type="text/css">
	.st0{fill:#2A3052;}
</style>
<g>
	<g id="XMLID_51_">
		<g id="XMLID_53_">
			<path class="st0" d="M21.87,12.22c-0.25,0-0.48-0.12-0.62-0.33l-0.02-0.03l-2.71-5.4c-0.03-0.04-0.05-0.09-0.07-0.13
				c-0.15-0.39-0.22-0.8-0.22-1.21c0-0.54,0.12-1.06,0.36-1.55c0.61-1.24,1.87-2.02,3.27-2.02c1.4,0,2.66,0.77,3.27,2.02
				c0.24,0.49,0.36,1.01,0.36,1.55c0,0.41-0.07,0.82-0.22,1.21c-0.02,0.05-0.04,0.09-0.07,0.14l-2.73,5.43
				C22.35,12.09,22.12,12.22,21.87,12.22L21.87,12.22z M21.73,11.58c0.04,0.06,0.11,0.06,0.13,0.06c0.03,0,0.09-0.01,0.13-0.06
				l2.73-5.43c0.01-0.01,0.01-0.02,0.02-0.03c0.12-0.33,0.18-0.67,0.18-1.01c0-0.45-0.1-0.89-0.31-1.3c-0.52-1.05-1.57-1.7-2.76-1.7
				c-1.18,0-2.24,0.65-2.76,1.7c-0.2,0.41-0.31,0.85-0.31,1.3c0,0.34,0.06,0.68,0.18,1.01c0,0.01,0.01,0.02,0.02,0.04l0.02,0.03
				L21.73,11.58z"/>
		</g>
		<g id="XMLID_52_">
			<path class="st0" d="M21.87,6.46c-0.89,0-1.62-0.71-1.62-1.59s0.73-1.59,1.62-1.59s1.62,0.71,1.62,1.59S22.76,6.46,21.87,6.46z
				 M21.87,3.85c-0.58,0-1.05,0.46-1.05,1.02s0.47,1.02,1.05,1.02c0.58,0,1.05-0.46,1.05-1.02S22.44,3.85,21.87,3.85z"/>
		</g>
	</g>
	<g id="XMLID_1_">
		<g id="XMLID_3_">
			<path class="st0" d="M15.57,23.49c-0.25,0-0.48-0.12-0.62-0.33l-0.02-0.03l-2.71-5.4c-0.03-0.04-0.05-0.09-0.07-0.13
				c-0.15-0.39-0.22-0.8-0.22-1.21c0-0.54,0.12-1.06,0.36-1.55c0.61-1.24,1.87-2.02,3.27-2.02c1.4,0,2.66,0.77,3.27,2.02
				c0.24,0.49,0.36,1.01,0.36,1.55c0,0.41-0.07,0.82-0.22,1.21c-0.02,0.05-0.04,0.09-0.07,0.14l-2.73,5.43
				C16.05,23.36,15.82,23.49,15.57,23.49L15.57,23.49z M15.44,22.85c0.04,0.06,0.11,0.06,0.13,0.06c0.03,0,0.09-0.01,0.13-0.06
				l2.73-5.43c0.01-0.01,0.01-0.02,0.02-0.03c0.12-0.33,0.18-0.67,0.18-1.01c0-0.45-0.1-0.89-0.31-1.3c-0.52-1.05-1.57-1.7-2.76-1.7
				c-1.18,0-2.24,0.65-2.76,1.7c-0.2,0.41-0.31,0.85-0.31,1.3c0,0.34,0.06,0.68,0.18,1.01c0,0.01,0.01,0.02,0.02,0.04l0.02,0.03
				L15.44,22.85z"/>
		</g>
		<g id="XMLID_2_">
			<path class="st0" d="M15.57,17.73c-0.89,0-1.62-0.71-1.62-1.59s0.73-1.59,1.62-1.59s1.62,0.71,1.62,1.59S16.46,17.73,15.57,17.73
				z M15.57,15.11c-0.58,0-1.05,0.46-1.05,1.02s0.47,1.02,1.05,1.02c0.58,0,1.05-0.46,1.05-1.02S16.15,15.11,15.57,15.11z"/>
		</g>
	</g>
	<g id="XMLID_4_">
		<g id="XMLID_6_">
			<path class="st0" d="M4.13,14.26c-0.25,0-0.48-0.12-0.62-0.33L3.5,13.9l-2.71-5.4C0.76,8.45,0.74,8.41,0.72,8.36
				C0.57,7.97,0.5,7.56,0.5,7.15c0-0.54,0.12-1.06,0.36-1.55c0.61-1.24,1.87-2.02,3.27-2.02c1.4,0,2.66,0.77,3.27,2.02
				c0.24,0.49,0.36,1.01,0.36,1.55c0,0.41-0.07,0.82-0.22,1.21C7.53,8.41,7.51,8.45,7.48,8.49l-2.73,5.43
				C4.62,14.13,4.38,14.26,4.13,14.26L4.13,14.26z M4,13.62c0.04,0.06,0.11,0.06,0.13,0.06c0.03,0,0.09-0.01,0.13-0.06L6.99,8.2
				C7,8.18,7.01,8.17,7.01,8.16c0.12-0.33,0.18-0.67,0.18-1.01c0-0.45-0.1-0.89-0.31-1.3c-0.52-1.05-1.57-1.7-2.76-1.7
				c-1.18,0-2.24,0.65-2.76,1.7c-0.2,0.41-0.31,0.85-0.31,1.3c0,0.34,0.06,0.68,0.18,1.01c0,0.01,0.01,0.02,0.02,0.04l0.02,0.03
				L4,13.62z"/>
		</g>
		<g id="XMLID_5_">
			<path class="st0" d="M4.13,8.5c-0.89,0-1.62-0.71-1.62-1.59s0.73-1.59,1.62-1.59s1.62,0.71,1.62,1.59S5.02,8.5,4.13,8.5z
				 M4.13,5.89c-0.58,0-1.05,0.46-1.05,1.02s0.47,1.02,1.05,1.02s1.05-0.46,1.05-1.02S4.71,5.89,4.13,5.89z"/>
		</g>
	</g>
	<ellipse class="st0" cx="15.57" cy="23.69" rx="1.84" ry="0.77"/>
	<ellipse class="st0" cx="21.87" cy="12.04" rx="1.84" ry="0.77"/>
	<ellipse class="st0" cx="4.13" cy="14.26" rx="1.84" ry="0.77"/>
</g>
</svg>
