<svg width="660" height="246" viewBox="0 0 660 246" xmlns="http://www.w3.org/2000/svg"><title>simple-platform</title><g fill="none" fill-rule="evenodd"><path d="M323.18 46.983v197.962H1.688V46.983H323.18zm.792-.792H.897v199.546h323.075V46.19z" fill="#DEDEDD" fill-rule="nonzero"/><rect fill="#FFF" fill-rule="nonzero" x="49.972" y="91.579" width="87.293" height="19.249" rx="3.436"/><rect stroke="#DEDEDD" stroke-width=".672" x="49.972" y="91.579" width="87.293" height="19.249" rx="3.436"/><path d="M56.462 105.44v-8.8h2.7a3.614 3.614 0 0 1 3.813 3.805v1.202a3.604 3.604 0 0 1-3.818 3.794h-2.695zm1.189-7.859v6.923h1.512a2.428 2.428 0 0 0 1.926-.801 3.011 3.011 0 0 0 .703-2.063v-1.213a2.993 2.993 0 0 0-.703-2.046 2.428 2.428 0 0 0-1.925-.801l-1.513.001zM68.538 104.474c-.189.334-.461.613-.79.81-.34.194-.727.292-1.118.284a2.098 2.098 0 0 1-1.667-.687 3.162 3.162 0 0 1-.598-2.126v-3.85h1.19v3.867c-.049.499.059 1 .307 1.437.24.277.598.423.963.393.366.014.73-.075 1.048-.257.277-.173.496-.427.625-.728v-4.713h1.191v6.537h-1.076l-.075-.967zM74.513 99.956l-.61-.036c-.283-.01-.56.069-.796.224a1.435 1.435 0 0 0-.499.628v4.675h-1.19v-6.543h1.064l.114.954c.164-.314.4-.585.687-.792.276-.19.604-.29.94-.285a1.69 1.69 0 0 1 .454.067l-.164 1.108zM79.678 105.44a9.375 9.375 0 0 1-.093-.522 3.85 3.85 0 0 1-.04-.456c-.23.321-.524.59-.866.789a2.222 2.222 0 0 1-1.151.316 2.137 2.137 0 0 1-1.555-.522 1.925 1.925 0 0 1-.535-1.441 1.687 1.687 0 0 1 .758-1.465 3.54 3.54 0 0 1 2.062-.53h1.293v-.645a1.202 1.202 0 0 0-.35-.91 1.375 1.375 0 0 0-.991-.335 1.43 1.43 0 0 0-.934.293.883.883 0 0 0-.36.704h-1.14l-.012-.036a1.583 1.583 0 0 1 .674-1.305c.52-.41 1.17-.62 1.832-.592a2.702 2.702 0 0 1 1.788.565c.465.409.715 1.01.676 1.628v3.147c0 .226.012.452.036.677.026.217.072.432.138.64h-1.23zm-1.975-.875c.412.005.817-.11 1.166-.332.303-.17.54-.438.676-.759v-1.06H78.21a1.738 1.738 0 0 0-1.15.362 1.08 1.08 0 0 0-.433.85.891.891 0 0 0 .275.687c.225.183.512.273.8.252zM84.033 97.328v1.576h1.238v.883h-1.238v3.97a.888.888 0 0 0 .191.645.687.687 0 0 0 .505.188 1.391 1.391 0 0 0 .448-.085l.157.815c-.117.085-.25.145-.39.177-.169.046-.342.07-.516.07a1.541 1.541 0 0 1-1.154-.437 1.903 1.903 0 0 1-.429-1.375v-3.968h-1.04v-.883h1.04v-1.576h1.188zM88.028 97.225h-1.19v-1.214h1.19v1.214zm0 8.21h-1.19v-6.531h1.19v6.531zM89.58 102.112a3.598 3.598 0 0 1 .785-2.39 2.91 2.91 0 0 1 4.28 0c.543.676.823 1.526.788 2.393v.137a3.575 3.575 0 0 1-.785 2.392 2.923 2.923 0 0 1-4.28 0 3.575 3.575 0 0 1-.788-2.39v-.142zm1.19.129a3.094 3.094 0 0 0 .438 1.715 1.583 1.583 0 0 0 2.594 0 3.077 3.077 0 0 0 .442-1.715v-.138a3.068 3.068 0 0 0-.444-1.707 1.455 1.455 0 0 0-1.302-.688 1.436 1.436 0 0 0-1.29.688 3.1 3.1 0 0 0-.439 1.707v.138zM97.952 98.904l.085.973c.205-.332.488-.609.825-.805.341-.195.729-.295 1.121-.288a2.135 2.135 0 0 1 1.636.619c.43.54.637 1.225.58 1.913v4.125h-1.19v-4.102a1.768 1.768 0 0 0-.341-1.227 1.367 1.367 0 0 0-1.042-.362c-.32-.007-.636.08-.91.247a1.81 1.81 0 0 0-.63.677v4.765h-1.19v-6.535h1.056z" fill="#000" fill-rule="nonzero"/><path d="M124 96h9.896v9.896H124z"/><path stroke="#DEDEDE" stroke-width=".781" stroke-linecap="round" stroke-linejoin="round" d="M125.823 99.385l3.125 3.125 3.124-3.125"/><rect fill="#FFF" fill-rule="nonzero" x="68.617" y="197.006" width="68.648" height="19.249" rx="3.436"/><rect stroke="#DEDEDD" stroke-width=".672" x="68.617" y="197.006" width="68.648" height="19.249" rx="3.436"/><path d="M76.297 207.342v3.527h-1.189v-8.8h3.365a3.09 3.09 0 0 1 2.186.724 2.738 2.738 0 0 1 0 3.827c-.61.51-1.393.766-2.186.716l-2.176.006zm0-.938h2.176a1.744 1.744 0 0 0 1.332-2.905 1.71 1.71 0 0 0-1.332-.488h-2.176v3.393zM86.763 210.869c-.04-.198-.072-.373-.094-.523a3.85 3.85 0 0 1-.04-.456c-.23.321-.524.59-.866.788a2.21 2.21 0 0 1-1.151.316 2.134 2.134 0 0 1-1.555-.523 1.925 1.925 0 0 1-.535-1.44 1.688 1.688 0 0 1 .758-1.465 3.546 3.546 0 0 1 2.062-.528h1.283v-.648a1.202 1.202 0 0 0-.35-.908 1.375 1.375 0 0 0-.99-.336 1.426 1.426 0 0 0-.934.294.88.88 0 0 0-.36.704h-1.136l-.013-.036a1.583 1.583 0 0 1 .674-1.304c.52-.411 1.17-.621 1.833-.593a2.694 2.694 0 0 1 1.787.565c.466.409.716 1.01.677 1.628v3.148c0 .225.011.451.036.676.025.217.071.432.137.64h-1.224zm-1.976-.876a2.13 2.13 0 0 0 1.166-.332c.303-.171.54-.438.676-.758v-1.06h-1.335a1.738 1.738 0 0 0-1.15.361 1.083 1.083 0 0 0-.433.85.891.891 0 0 0 .275.687c.225.183.51.273.8.252zM91.455 208.446l.212.825h.036l1.606-4.936h1.323l-2.75 7.539a3.39 3.39 0 0 1-.71 1.148c-.327.333-.78.511-1.247.488a2.512 2.512 0 0 1-.368-.033 3.597 3.597 0 0 1-.344-.063l.12-.936c.072-.001.144.003.215.012.168.012.275.018.318.018a.734.734 0 0 0 .621-.339c.165-.232.3-.484.405-.749l.284-.687-2.428-6.395h1.33l1.377 4.108zM95.31 207.54a3.596 3.596 0 0 1 .785-2.388 2.63 2.63 0 0 1 2.132-.941 2.663 2.663 0 0 1 2.148.936c.543.677.823 1.526.788 2.393v.137a3.582 3.582 0 0 1-.785 2.393 2.925 2.925 0 0 1-4.28 0 3.575 3.575 0 0 1-.788-2.388v-.142zm1.189.13a3.095 3.095 0 0 0 .439 1.714 1.583 1.583 0 0 0 2.594 0 3.079 3.079 0 0 0 .442-1.713v-.138a3.072 3.072 0 0 0-.445-1.708 1.458 1.458 0 0 0-1.302-.687 1.437 1.437 0 0 0-1.29.687 3.103 3.103 0 0 0-.438 1.708v.138zM106.769 209.902c-.19.334-.462.613-.79.81-.341.194-.727.292-1.119.283a2.098 2.098 0 0 1-1.666-.687 3.17 3.17 0 0 1-.598-2.127v-3.85h1.189v3.866c-.048.5.06 1.002.308 1.438.24.278.597.424.962.394.367.014.73-.075 1.048-.257.278-.173.497-.427.626-.728v-4.707h1.19v6.537h-1.07l-.08-.972zM111.222 202.756v1.582h1.238v.882h-1.238v3.97a.887.887 0 0 0 .192.646.688.688 0 0 0 .504.188 1.391 1.391 0 0 0 .448-.085l.157.816c-.117.085-.25.146-.39.178a1.995 1.995 0 0 1-.516.07 1.539 1.539 0 0 1-1.154-.438 1.899 1.899 0 0 1-.429-1.375v-3.97h-1.04v-.882h1.04v-1.582h1.188z" fill="#000" fill-rule="nonzero"/><path d="M124 202h9.896v9.896H124z"/><path stroke="#DEDEDE" stroke-width=".781" stroke-linecap="round" stroke-linejoin="round" d="M125.823 205.385l3.125 3.125 3.124-3.125"/><rect fill="#FFF" fill-rule="nonzero" x="144.138" y="197.006" width="60.028" height="19.249" rx="3.436"/><rect stroke="#DEDEDD" stroke-width=".672" x="144.138" y="197.006" width="60.028" height="19.249" rx="3.436"/><path d="M157.006 209.7c-.283.384-.658.69-1.09.888a4.335 4.335 0 0 1-2.008.405 3.575 3.575 0 0 1-2.613-1.008 3.492 3.492 0 0 1-1.03-2.613v-1.812a3.633 3.633 0 0 1 .963-2.613 3.267 3.267 0 0 1 2.475-1.007c.856-.05 1.7.214 2.375.742.566.474.89 1.178.882 1.917l-.012.036h-1.136a1.848 1.848 0 0 0-.575-1.26 2.15 2.15 0 0 0-1.524-.495c-.63-.02-1.233.26-1.626.755a2.927 2.927 0 0 0-.616 1.914v1.823a2.75 2.75 0 0 0 .688 1.925 2.265 2.265 0 0 0 1.752.758c.418.014.834-.054 1.226-.2.263-.092.499-.248.688-.452v-1.994H153.9v-.938h3.117l-.011 3.229zM159.065 210.869v-8.8h2.87a3.475 3.475 0 0 1 2.156.597c.537.431.829 1.1.78 1.787.003.383-.13.755-.374 1.05-.26.314-.6.552-.985.687.501.093.949.371 1.254.78.305.409.466.908.457 1.418a2.24 2.24 0 0 1-.783 1.845 3.26 3.26 0 0 1-2.123.638l-3.252-.002zm1.19-5.058h1.925c.393.018.779-.113 1.08-.365a1.47 1.47 0 0 0-.032-2.085 2.063 2.063 0 0 0-1.296-.353h-1.68l.003 2.803zm0 .938v3.183h2.062c.456.027.906-.115 1.263-.4.312-.291.479-.707.453-1.134a1.798 1.798 0 0 0-.376-1.21 1.452 1.452 0 0 0-1.164-.439h-2.238zM168.162 207.342v3.527h-1.189v-8.8h3.365a3.09 3.09 0 0 1 2.186.724 2.738 2.738 0 0 1 0 3.827c-.61.51-1.393.766-2.186.716l-2.175.006zm0-.938h2.176a1.744 1.744 0 0 0 1.332-2.905 1.71 1.71 0 0 0-1.332-.488h-2.175v3.393z" fill="#000" fill-rule="nonzero"/><path d="M191 202h9.896v9.896H191z"/><path stroke="#DEDEDE" stroke-width=".781" stroke-linecap="round" stroke-linejoin="round" d="M192.823 205.385l3.125 3.125 3.124-3.125"/><rect fill="#FFF" fill-rule="nonzero" x="204.167" y="91.579" width="72.201" height="19.249" rx="3.436"/><rect stroke="#DEDEDD" stroke-width=".672" x="204.167" y="91.579" width="72.201" height="19.249" rx="3.436"/><path d="M210.165 102.293a4.362 4.362 0 0 1 .673-2.544 2.17 2.17 0 0 1 1.888-.962c.351-.007.699.066 1.018.212.297.142.557.353.757.616v-3.599h1.191v9.425h-.973l-.138-.803c-.2.293-.47.532-.785.694a2.364 2.364 0 0 1-1.082.235 2.241 2.241 0 0 1-1.873-.866 3.603 3.603 0 0 1-.676-2.281v-.127zm1.189.127c-.028.557.113 1.11.404 1.585.286.405.763.631 1.257.596.315.01.627-.074.894-.242.25-.171.453-.402.591-.671v-3.056a1.833 1.833 0 0 0-.595-.643 1.572 1.572 0 0 0-.879-.238 1.36 1.36 0 0 0-1.265.707 3.645 3.645 0 0 0-.412 1.835l.005.127zM221.485 105.44a9.375 9.375 0 0 1-.094-.522 3.85 3.85 0 0 1-.04-.456c-.229.321-.524.59-.866.789a2.222 2.222 0 0 1-1.15.316 2.137 2.137 0 0 1-1.556-.522 1.925 1.925 0 0 1-.529-1.441 1.687 1.687 0 0 1 .758-1.465 3.54 3.54 0 0 1 2.062-.53h1.293v-.645a1.202 1.202 0 0 0-.35-.91 1.375 1.375 0 0 0-.991-.335 1.43 1.43 0 0 0-.934.293.883.883 0 0 0-.36.704h-1.136l-.012-.036a1.583 1.583 0 0 1 .674-1.305c.52-.41 1.17-.62 1.833-.592a2.702 2.702 0 0 1 1.787.565c.465.409.715 1.01.677 1.628v3.147c0 .226.011.452.035.677.026.217.072.432.138.64h-1.239zm-1.976-.875c.413.005.818-.11 1.166-.332.303-.17.541-.438.677-.759v-1.06h-1.335a1.738 1.738 0 0 0-1.151.362 1.08 1.08 0 0 0-.432.85.891.891 0 0 0 .275.687c.225.183.512.273.802.252h-.002zM226.18 103.018l.211.825h.036l1.606-4.936h1.323l-2.75 7.539a3.394 3.394 0 0 1-.71 1.147c-.327.333-.78.511-1.247.489a2.593 2.593 0 0 1-.369-.033 3.689 3.689 0 0 1-.343-.063l.12-.937c.072 0 .144.004.215.013.168.012.275.018.318.018a.734.734 0 0 0 .621-.339c.165-.232.3-.484.404-.749l.285-.688-2.428-6.403h1.33l1.377 4.117zM234.201 103.701a.81.81 0 0 0-.298-.646 2.81 2.81 0 0 0-1.133-.441 4.762 4.762 0 0 1-1.788-.703 1.422 1.422 0 0 1-.6-1.209c0-.533.25-1.035.676-1.357a3.079 3.079 0 0 1 3.575.025c.429.346.668.875.643 1.426l-.012.036h-1.136a1.04 1.04 0 0 0-.36-.77 1.324 1.324 0 0 0-.952-.341 1.375 1.375 0 0 0-.943.275.872.872 0 0 0-.308.67c-.01.236.093.461.275.61.335.208.71.344 1.1.398a4.77 4.77 0 0 1 1.843.722c.391.283.617.741.603 1.224a1.688 1.688 0 0 1-.704 1.407 2.948 2.948 0 0 1-1.84.537 2.87 2.87 0 0 1-1.969-.633 1.81 1.81 0 0 1-.687-1.48l.012-.036h1.136a1.1 1.1 0 0 0 .472.923c.307.198.667.3 1.032.291.35.02.698-.07.995-.257a.792.792 0 0 0 .368-.67z" fill="#000" fill-rule="nonzero"/><path d="M263 96h9.896v9.896H263z"/><path stroke="#DEDEDE" stroke-width=".781" stroke-linecap="round" stroke-linejoin="round" d="M264.823 99.385l3.125 3.125 3.124-3.125"/><rect fill="#FFF" fill-rule="nonzero" x="144.138" y="91.579" width="53.155" height="19.249" rx="3.436"/><rect stroke="#DEDEDD" stroke-width=".672" x="144.138" y="91.579" width="53.155" height="19.249" rx="3.436"/><path d="M155.96 97.581a12.375 12.375 0 0 0-2.153 3.362 15.01 15.01 0 0 0-.805 3.549l-.097.949h-1.19l.096-.95c.141-1.279.473-2.53.984-3.712a14.34 14.34 0 0 1 2-3.195h-4.782v-.937h5.95l-.002.934z" fill="#000" fill-rule="nonzero"/><rect fill="#FFF" fill-rule="nonzero" x="144.306" y="127.388" width="131.978" height="19.249" rx="3.436"/><rect stroke="#DEDEDD" stroke-width=".672" x="144.306" y="127.388" width="131.978" height="19.249" rx="3.436"/><path d="M152.8 140.44a1.69 1.69 0 0 0 1.392-.657 3.091 3.091 0 0 0 .523-1.953v-.399c-.186.277-.441.5-.74.65a2.18 2.18 0 0 1-.987.22 2.655 2.655 0 0 1-2.024-.788 3.437 3.437 0 0 1 .045-4.34 2.55 2.55 0 0 1 1.925-.846 2.812 2.812 0 0 1 2.173.861c.577.713.86 1.62.795 2.534v2.097a3.713 3.713 0 0 1-.861 2.64c-.581.615-1.399.95-2.244.917-.317 0-.633-.029-.945-.086a3.396 3.396 0 0 1-.86-.275l.181-.916c.233.123.482.211.74.263.292.054.59.08.887.078zm.187-3.075c.386.016.769-.083 1.1-.283.278-.173.497-.424.63-.723v-.76a2.874 2.874 0 0 0-.443-1.744 1.512 1.512 0 0 0-1.296-.593c-.443.004-.857.221-1.112.583a2.692 2.692 0 0 0-.033 2.958c.268.366.7.577 1.154.562zM162.145 138.29h1.215v.937h-1.215v2.024h-1.183v-2.024h-3.952v-.67l3.879-6.102h1.256v5.834zm-3.866 0h2.683v-4.126h-.036l-.114.303-2.533 3.822zM165.806 141.25h-1.19v-1.238h1.19zM173.236 137.898a3.94 3.94 0 0 1-.745 2.582 2.787 2.787 0 0 1-4.099 0 3.91 3.91 0 0 1-.755-2.58v-2.084a3.93 3.93 0 0 1 .752-2.583 2.772 2.772 0 0 1 4.096 0 3.93 3.93 0 0 1 .753 2.583l-.002 2.082zm-1.19-2.338a2.938 2.938 0 0 0-.413-1.717 1.53 1.53 0 0 0-2.395 0 2.955 2.955 0 0 0-.413 1.717v2.577a2.95 2.95 0 0 0 .413 1.723c.274.387.728.607 1.203.583.47.024.921-.194 1.193-.58a3.006 3.006 0 0 0 .413-1.726l-.001-2.577zM177.012 140.44a1.69 1.69 0 0 0 1.393-.657 3.091 3.091 0 0 0 .522-1.953v-.399c-.186.277-.44.5-.74.65a2.18 2.18 0 0 1-.987.22 2.655 2.655 0 0 1-2.024-.788 3.437 3.437 0 0 1 .046-4.34 2.55 2.55 0 0 1 1.925-.846 2.812 2.812 0 0 1 2.172.861c.577.713.861 1.62.795 2.534v2.097a3.713 3.713 0 0 1-.86 2.64c-.582.615-1.4.95-2.245.917-.317 0-.633-.029-.944-.086a3.396 3.396 0 0 1-.861-.275l.181-.916c.233.123.482.211.74.263.293.054.59.08.887.078zm.187-3.075c.386.016.769-.083 1.1-.283.278-.173.498-.424.631-.723v-.76a2.874 2.874 0 0 0-.444-1.744 1.512 1.512 0 0 0-1.295-.593c-.443.004-.857.221-1.113.583a2.692 2.692 0 0 0-.033 2.958c.269.367.701.577 1.155.562h-.001zM181.948 137.281l.508-4.827h4.4v1.059h-3.395l-.29 2.475c.19-.14.4-.255.62-.341.251-.096.518-.147.788-.149a2.368 2.368 0 0 1 1.912.792c.49.61.739 1.38.697 2.162a3.098 3.098 0 0 1-.71 2.127c-.534.56-1.29.854-2.062.803a2.835 2.835 0 0 1-1.861-.61 2.112 2.112 0 0 1-.713-1.787l.013-.036h1.075c-.025.412.124.816.412 1.111.292.268.678.41 1.073.394.453.022.89-.175 1.172-.531.297-.425.443-.937.412-1.455a2.192 2.192 0 0 0-.423-1.387 1.396 1.396 0 0 0-1.166-.543 1.87 1.87 0 0 0-1.015.21 1.209 1.209 0 0 0-.46.648l-.987-.114z" fill="#000" fill-rule="nonzero"/><rect fill="#FFF" fill-rule="nonzero" x="211.041" y="197.006" width="65.413" height="19.249" rx="3.436"/><rect stroke="#DEDEDD" stroke-width=".672" x="211.041" y="197.006" width="65.413" height="19.249" rx="3.436"/><path fill="#000" fill-rule="nonzero" d="M220.56 210.869h-1.191v-7.631l-1.8.024v-.858l2.99-.326zM229.694 207.517a3.94 3.94 0 0 1-.745 2.582 2.787 2.787 0 0 1-4.1 0 3.91 3.91 0 0 1-.754-2.58v-2.082a3.93 3.93 0 0 1 .752-2.582 2.772 2.772 0 0 1 4.096 0 3.93 3.93 0 0 1 .752 2.583l-.001 2.079zm-1.191-2.338a2.938 2.938 0 0 0-.412-1.717 1.53 1.53 0 0 0-2.396 0 2.955 2.955 0 0 0-.412 1.717v2.577a2.95 2.95 0 0 0 .412 1.723c.275.387.729.607 1.203.583.471.024.922-.194 1.194-.58a3.006 3.006 0 0 0 .412-1.726l-.001-2.577zM77.79 140.593H76.6v-3.885h-4.275v3.885h-1.19v-8.8h1.19v3.976h4.27v-3.977h1.19zM81.027 132.382h-1.189v-1.214h1.19v1.214zm0 8.21h-1.189v-6.536h1.19v6.536zM82.599 137.445a4.29 4.29 0 0 1 .688-2.544 2.207 2.207 0 0 1 1.902-.962c.382-.01.76.077 1.1.251.319.17.589.418.786.721l.144-.851h.949v6.572a2.492 2.492 0 0 1-.732 1.925 2.999 2.999 0 0 1-2.108.674 4.384 4.384 0 0 1-1.017-.13 3.94 3.94 0 0 1-.963-.354l.302-.924c.243.132.504.23.774.293.292.073.592.11.893.111.458.041.913-.1 1.265-.394.289-.333.431-.767.396-1.206v-.737a2.075 2.075 0 0 1-.767.619 2.395 2.395 0 0 1-1.027.207 2.277 2.277 0 0 1-1.89-.869 3.564 3.564 0 0 1-.688-2.278l-.007-.124zm1.19.127c-.029.557.115 1.11.412 1.582.29.406.77.633 1.269.6.318.011.632-.075.9-.246a1.85 1.85 0 0 0 .599-.688v-3.012a1.858 1.858 0 0 0-.598-.662 1.574 1.574 0 0 0-.889-.245 1.387 1.387 0 0 0-1.274.714 3.547 3.547 0 0 0-.424 1.83l.004.127zM91.08 134.932c.214-.305.497-.556.825-.733.336-.178.71-.268 1.09-.263a2.112 2.112 0 0 1 1.628.629c.431.547.64 1.238.583 1.933v4.096h-1.184v-4.107a1.75 1.75 0 0 0-.346-1.196 1.321 1.321 0 0 0-1.035-.387 1.761 1.761 0 0 0-.897.233 1.95 1.95 0 0 0-.661.63v4.828h-1.19v-9.424h1.19l-.003 3.76zM105.58 137.572c.038.815-.201 1.62-.68 2.28a2.247 2.247 0 0 1-1.87.867c-.39.01-.775-.077-1.123-.25a2.094 2.094 0 0 1-.792-.74l-.145.863h-.972v-9.424h1.19v3.66c.195-.281.458-.51.764-.664.332-.16.697-.238 1.066-.23a2.173 2.173 0 0 1 1.885.963c.483.758.72 1.647.676 2.544v.13zm-1.191-.127a3.604 3.604 0 0 0-.413-1.833 1.361 1.361 0 0 0-1.26-.71 1.56 1.56 0 0 0-.926.274 1.903 1.903 0 0 0-.601.722v2.834c.134.298.341.558.602.755.275.19.605.287.94.275.492.032.966-.195 1.25-.6a2.75 2.75 0 0 0 .412-1.582l-.004-.135zM111.046 140.593c-.04-.198-.071-.373-.093-.523a3.85 3.85 0 0 1-.04-.457c-.23.322-.525.59-.866.788a2.21 2.21 0 0 1-1.151.317 2.134 2.134 0 0 1-1.555-.523 1.925 1.925 0 0 1-.535-1.445 1.688 1.688 0 0 1 .758-1.464 3.546 3.546 0 0 1 2.062-.528h1.292v-.648a1.202 1.202 0 0 0-.349-.909 1.375 1.375 0 0 0-.991-.335 1.426 1.426 0 0 0-.934.294.88.88 0 0 0-.36.704h-1.136l-.012-.036a1.583 1.583 0 0 1 .674-1.305c.52-.41 1.17-.62 1.832-.592a2.694 2.694 0 0 1 1.788.565c.466.408.716 1.01.676 1.628v3.147c0 .226.012.452.036.677.026.217.072.432.138.64l-1.234.005zm-1.976-.876a2.13 2.13 0 0 0 1.167-.332c.303-.171.54-.438.676-.759v-1.06h-1.335a1.738 1.738 0 0 0-1.151.362 1.083 1.083 0 0 0-.432.85.891.891 0 0 0 .275.687c.226.181.512.27.8.248v.004zM116.924 135.108l-.61-.036c-.282-.01-.56.068-.795.223a1.435 1.435 0 0 0-.499.628v4.675h-1.19v-6.537h1.064l.114.954c.164-.313.4-.584.687-.79.276-.19.604-.29.94-.285.085 0 .17.007.254.022.067.011.134.026.2.046l-.165 1.1zM121.166 135.108l-.61-.036c-.282-.01-.56.068-.795.223a1.435 1.435 0 0 0-.499.628v4.675h-1.19v-6.537h1.063l.115.954c.164-.313.4-.584.687-.79.276-.19.604-.29.94-.285.085 0 .17.007.254.022.067.011.134.026.199.046l-.164 1.1zM123.6 132.382h-1.19v-1.214h1.19v1.214zm0 8.21h-1.19v-6.536h1.19v6.536zM128.143 140.719a2.75 2.75 0 0 1-2.172-.909 3.42 3.42 0 0 1-.806-2.358v-.265a3.35 3.35 0 0 1 .825-2.323 2.556 2.556 0 0 1 1.966-.928c.753-.053 1.49.24 2 .798.475.604.715 1.36.676 2.127v.742h-4.235l-.018.03a2.569 2.569 0 0 0 .477 1.545 1.52 1.52 0 0 0 1.287.605c.36.006.72-.052 1.06-.172.29-.107.558-.268.788-.475l.465.775a2.75 2.75 0 0 1-.924.577 3.713 3.713 0 0 1-1.389.231zm-.181-5.848c-.4 0-.778.186-1.022.503-.293.36-.473.8-.52 1.261l.013.03h3.014v-.156a1.816 1.816 0 0 0-.374-1.169 1.338 1.338 0 0 0-1.111-.469zM135.066 135.108l-.61-.036c-.282-.01-.56.068-.795.223a1.435 1.435 0 0 0-.5.628v4.675h-1.189v-6.537h1.063l.114.954c.165-.313.4-.584.688-.79.276-.19.604-.29.94-.285.084 0 .17.007.254.022.067.011.133.026.199.046l-.164 1.1zM136.473 135.3h-1.19v-1.237h1.19v1.237zm0 5.292h-1.19v-1.237h1.19v1.238z"/><rect fill="#FFF" fill-rule="nonzero" x="144.474" y="162.383" width="131.978" height="19.249" rx="3.436"/><rect stroke="#DEDEDD" stroke-width=".672" x="144.474" y="162.383" width="131.978" height="19.249" rx="3.436"/><path d="M152.966 175.435a1.69 1.69 0 0 0 1.393-.657 3.091 3.091 0 0 0 .522-1.953v-.398c-.186.276-.44.5-.74.649a2.18 2.18 0 0 1-.987.22 2.655 2.655 0 0 1-2.024-.788 3.437 3.437 0 0 1 .046-4.34 2.55 2.55 0 0 1 1.925-.846 2.812 2.812 0 0 1 2.172.861c.577.714.861 1.62.795 2.534v2.097a3.713 3.713 0 0 1-.86 2.64c-.582.615-1.4.95-2.245.917-.317 0-.633-.029-.944-.086a3.396 3.396 0 0 1-.861-.275l.181-.916c.233.123.482.211.74.263.293.054.59.08.887.078zm.187-3.075c.386.016.769-.083 1.1-.283.278-.172.498-.424.631-.723v-.76a2.874 2.874 0 0 0-.444-1.744 1.512 1.512 0 0 0-1.295-.593c-.443.004-.857.221-1.113.583a2.692 2.692 0 0 0-.033 2.958c.269.366.7.576 1.154.561v.001zM160.959 176.245h-1.184v-7.637l-1.8.025v-.858l2.99-.326zM165.972 176.245h-1.19v-1.238h1.19zM173.536 168.385a12.386 12.386 0 0 0-2.153 3.365 15.023 15.023 0 0 0-.806 3.55l-.096.948h-1.191l.096-.948c.141-1.28.473-2.53.985-3.712a14.355 14.355 0 0 1 1.999-3.196h-4.785v-.938h5.951v.931zM180.187 169.744c.008.434-.128.858-.387 1.206-.267.351-.63.618-1.044.77.477.156.9.445 1.218.833.3.37.462.834.456 1.31a2.26 2.26 0 0 1-.794 1.863 3.66 3.66 0 0 1-4.145 0 2.265 2.265 0 0 1-.788-1.863 2.062 2.062 0 0 1 .447-1.31 2.573 2.573 0 0 1 1.207-.833 2.226 2.226 0 0 1-1.032-.77 2.002 2.002 0 0 1-.374-1.206 2.262 2.262 0 0 1 .716-1.788 2.761 2.761 0 0 1 1.894-.63 2.805 2.805 0 0 1 1.893.63c.503.454.772 1.112.733 1.788zm-.943 4.093a1.588 1.588 0 0 0-.477-1.188 1.662 1.662 0 0 0-1.208-.463 1.587 1.587 0 0 0-1.668 1.65c-.024.44.144.868.46 1.174.71.569 1.718.569 2.428 0 .319-.304.489-.733.466-1.173h-.001zm-.248-4.068c.011-.401-.137-.79-.412-1.081a1.466 1.466 0 0 0-2.063-.017c-.271.3-.413.696-.393 1.1-.019.398.124.785.396 1.076.58.541 1.481.541 2.062 0 .279-.289.427-.678.411-1.078zM183.395 171.296h1.04c.413.043.824-.101 1.12-.394.235-.317.352-.706.328-1.1a1.605 1.605 0 0 0-.374-1.148 1.459 1.459 0 0 0-1.1-.394 1.535 1.535 0 0 0-1.115.413c-.286.286-.439.68-.42 1.085h-1.142l-.012-.036a2.13 2.13 0 0 1 .722-1.694c.54-.48 1.245-.73 1.966-.699a2.802 2.802 0 0 1 1.946.65c.503.48.768 1.159.724 1.853a2.113 2.113 0 0 1-1.317 1.908c.462.125.86.416 1.12.817a2.613 2.613 0 0 1-.458 3.135 2.95 2.95 0 0 1-2.015.688 3.025 3.025 0 0 1-1.99-.65 2.084 2.084 0 0 1-.758-1.76l.017-.036h1.136c-.02.41.135.81.426 1.1.32.287.74.436 1.17.412.433.025.858-.124 1.183-.412.306-.326.462-.765.429-1.21a1.65 1.65 0 0 0-.38-1.197 1.627 1.627 0 0 0-1.203-.385h-1.04l-.003-.946zM75.427 174.646h4.162v.936h-5.351v-8.8h1.189zM80.418 172.253a3.596 3.596 0 0 1 .785-2.388 2.63 2.63 0 0 1 2.133-.94 2.663 2.663 0 0 1 2.148.936c.543.676.822 1.526.788 2.392v.138a3.582 3.582 0 0 1-.785 2.392 2.925 2.925 0 0 1-4.28 0 3.575 3.575 0 0 1-.789-2.388v-.142zm1.19.13a3.095 3.095 0 0 0 .438 1.714 1.583 1.583 0 0 0 2.595 0 3.079 3.079 0 0 0 .441-1.713v-.138a3.072 3.072 0 0 0-.444-1.707 1.458 1.458 0 0 0-1.302-.688 1.437 1.437 0 0 0-1.29.688 3.103 3.103 0 0 0-.438 1.707v.138zM89.401 173.202l.138.792h.035l.17-.792 1.304-4.155h.955l1.311 4.155.186.886h.036l.174-.883 1.028-4.156h1.183l-1.896 6.537h-.962L91.8 171.6l-.275-1.113h-.035l-.259 1.1-1.244 3.988h-.963l-1.896-6.537h1.184zM105.749 172.561c.039.816-.2 1.62-.68 2.281a2.247 2.247 0 0 1-1.87.867c-.389.009-.775-.077-1.123-.25a2.094 2.094 0 0 1-.792-.74l-.145.863h-.972v-9.424h1.19v3.667c.195-.281.458-.51.764-.664.332-.16.698-.238 1.066-.23a2.173 2.173 0 0 1 1.885.963c.483.757.72 1.646.677 2.543v.124zm-1.191-.126a3.604 3.604 0 0 0-.413-1.833 1.361 1.361 0 0 0-1.26-.711 1.56 1.56 0 0 0-.926.275 1.903 1.903 0 0 0-.6.722v2.834c.133.298.34.558.601.755.275.19.605.287.94.275.492.032.966-.195 1.25-.6a2.75 2.75 0 0 0 .412-1.582l-.004-.135zM111.216 175.582c-.04-.198-.072-.373-.094-.522a3.85 3.85 0 0 1-.04-.457c-.23.322-.524.59-.866.788a2.21 2.21 0 0 1-1.151.316 2.134 2.134 0 0 1-1.555-.522 1.925 1.925 0 0 1-.535-1.441 1.688 1.688 0 0 1 .758-1.465 3.546 3.546 0 0 1 2.062-.528h1.293v-.647a1.202 1.202 0 0 0-.35-.91 1.375 1.375 0 0 0-.991-.335 1.426 1.426 0 0 0-.934.295.88.88 0 0 0-.36.704h-1.136l-.012-.036a1.583 1.583 0 0 1 .674-1.305c.52-.41 1.17-.621 1.833-.593a2.694 2.694 0 0 1 1.787.565c.466.409.716 1.01.677 1.629v3.147c0 .226.011.452.035.676.026.218.072.432.138.641h-1.233zm-1.976-.876a2.13 2.13 0 0 0 1.166-.331c.303-.172.54-.438.676-.76v-1.06h-1.335a1.738 1.738 0 0 0-1.15.362 1.083 1.083 0 0 0-.433.85.891.891 0 0 0 .275.688c.225.182.512.272.8.251zM117.094 170.1l-.61-.036c-.282-.01-.56.068-.796.223a1.435 1.435 0 0 0-.499.628v4.675h-1.188v-6.536h1.063l.114.954c.165-.314.4-.584.688-.79.275-.191.604-.291.939-.285.085 0 .17.007.254.022.068.01.134.026.2.045l-.165 1.1zM121.335 170.1l-.61-.036c-.282-.01-.56.068-.795.223a1.435 1.435 0 0 0-.499.628v4.675h-1.19v-6.536h1.064l.114.954c.164-.314.4-.584.687-.79.276-.191.604-.291.94-.285.085 0 .17.007.254.022.067.01.134.026.2.045l-.165 1.1zM123.77 167.372h-1.19v-1.214h1.19v1.214zm0 8.21h-1.19v-6.537h1.19v6.537zM128.312 175.709a2.75 2.75 0 0 1-2.172-.91 3.42 3.42 0 0 1-.806-2.357v-.266a3.35 3.35 0 0 1 .825-2.322 2.556 2.556 0 0 1 1.966-.928c.753-.053 1.49.24 2 .797.475.604.715 1.36.676 2.127v.743h-4.235l-.018.029a2.569 2.569 0 0 0 .477 1.545 1.52 1.52 0 0 0 1.287.605c.361.007.72-.051 1.06-.172.29-.107.558-.268.788-.474l.465.774a2.75 2.75 0 0 1-.924.578 3.713 3.713 0 0 1-1.389.23zm-.181-5.848c-.4 0-.778.186-1.022.503-.293.36-.473.799-.52 1.26l.013.031h3.014v-.157a1.816 1.816 0 0 0-.374-1.168 1.338 1.338 0 0 0-1.111-.47zM135.235 170.1l-.61-.036c-.282-.01-.56.068-.795.223a1.435 1.435 0 0 0-.499.628v4.675h-1.194v-6.536h1.063l.115.954c.164-.314.4-.584.687-.79.276-.191.604-.291.94-.285.084 0 .17.007.254.022.067.01.133.026.199.045l-.16 1.1zM136.642 170.29h-1.19v-1.238h1.19v1.238zm0 5.292h-1.19v-1.237h1.19v1.237z" fill="#000" fill-rule="nonzero"/><path stroke="#DEDEDE" stroke-width=".683" fill="#FFF" fill-rule="nonzero" d="M338.225 46.191h320.878v71.002H338.225z"/><rect fill="#2E8836" fill-rule="nonzero" x="420.948" y="81.692" width="225.98" height="24.578" rx="2.731"/><path d="M512.905 94.475v2.944h-1.295v-7.765h3.035a2.875 2.875 0 0 1 2.013.664 2.467 2.467 0 0 1 0 3.5 2.888 2.888 0 0 1-2.013.658l-1.74-.001zm0-1.04h1.74c.398.03.791-.109 1.082-.383.245-.265.375-.616.363-.976a1.309 1.309 0 0 0-1.445-1.375h-1.74v2.735zM522.096 96.577a1.97 1.97 0 0 1-.688.707 2.036 2.036 0 0 1-2.41-.344 2.722 2.722 0 0 1-.523-1.84v-3.45h1.29v3.462c-.034.37.052.743.246 1.061.185.213.46.325.741.304.272.009.542-.049.787-.168.21-.11.382-.28.498-.488V91.65h1.295v5.775h-1.13l-.106-.847zM527.563 92.817l-.55-.022a1.156 1.156 0 0 0-.631.16 1.05 1.05 0 0 0-.392.454v4.011h-1.297v-5.775h1.184l.087.838c.128-.272.321-.508.562-.688.23-.168.508-.256.792-.252.073 0 .146.007.219.02.063.011.125.026.187.045l-.161 1.209zM530.853 96.492c.292.01.576-.088.8-.275a.883.883 0 0 0 .325-.697h1.174l.011.032a1.704 1.704 0 0 1-.659 1.397 2.45 2.45 0 0 1-1.65.587 2.394 2.394 0 0 1-1.955-.825 3.162 3.162 0 0 1-.679-2.08v-.188a3.162 3.162 0 0 1 .68-2.077 2.696 2.696 0 0 1 3.642-.219c.428.394.658.958.627 1.539l-.011.031h-1.179c.007-.299-.105-.589-.312-.805a1.068 1.068 0 0 0-.814-.332 1.1 1.1 0 0 0-1.035.531c-.216.408-.32.867-.304 1.328v.187c-.019.466.086.928.304 1.34a1.1 1.1 0 0 0 1.035.526zM535.483 92.396c.182-.261.422-.477.701-.63a1.89 1.89 0 0 1 .914-.224 1.82 1.82 0 0 1 1.433.579c.383.513.566 1.149.514 1.788v3.514h-1.295v-3.528a1.462 1.462 0 0 0-.275-.987 1.037 1.037 0 0 0-.815-.304 1.404 1.404 0 0 0-1.185.593v4.223h-1.288V89.1h1.296v3.296zM543.862 97.42a4.497 4.497 0 0 1-.114-.427 2.958 2.958 0 0 1-.062-.413 2.285 2.285 0 0 1-.701.68c-.292.184-.63.28-.974.276a1.925 1.925 0 0 1-1.384-.464 1.688 1.688 0 0 1-.483-1.274 1.512 1.512 0 0 1 .66-1.304 3.196 3.196 0 0 1 1.862-.467h1.006v-.514a.94.94 0 0 0-.265-.71 1.06 1.06 0 0 0-.763-.256 1.082 1.082 0 0 0-.706.213.678.678 0 0 0-.26.55h-1.248v-.031a1.43 1.43 0 0 1 .61-1.21 2.586 2.586 0 0 1 1.689-.528 2.475 2.475 0 0 1 1.628.513c.424.367.653.912.619 1.472v2.566c-.001.23.014.46.047.688.031.218.083.433.154.642l-1.315-.002zm-1.588-.928a1.63 1.63 0 0 0 .883-.246c.228-.126.41-.322.52-.56v-.854h-1.03c-.318-.02-.634.078-.886.276a.85.85 0 0 0-.319.658c-.009.198.07.39.216.525a.89.89 0 0 0 .616.201zM549.575 95.85a.604.604 0 0 0-.257-.495 2.547 2.547 0 0 0-.954-.347 3.955 3.955 0 0 1-1.566-.621 1.3 1.3 0 0 1-.531-1.1c0-.486.227-.943.613-1.238a2.437 2.437 0 0 1 1.616-.512 2.531 2.531 0 0 1 1.677.52c.397.306.62.787.596 1.288l-.011.031h-1.238a.813.813 0 0 0-.275-.613 1.042 1.042 0 0 0-.746-.257 1.068 1.068 0 0 0-.716.21.653.653 0 0 0-.246.516c-.006.19.081.37.233.483.29.167.61.275.942.316a3.98 3.98 0 0 1 1.614.632c.346.264.541.679.525 1.113.009.502-.232.975-.643 1.263a2.736 2.736 0 0 1-1.693.486 2.585 2.585 0 0 1-1.776-.576 1.627 1.627 0 0 1-.618-1.323l.01-.032h1.206a.866.866 0 0 0 .363.73c.247.16.537.24.832.23.271.017.541-.05.774-.192a.604.604 0 0 0 .27-.512zM554.488 97.532a2.508 2.508 0 0 1-1.955-.803 2.947 2.947 0 0 1-.728-2.063v-.213a3.06 3.06 0 0 1 .722-2.089 2.285 2.285 0 0 1 1.81-.825 2.258 2.258 0 0 1 1.787.707c.436.533.657 1.209.622 1.896v.763h-3.597l-.011.028c.002.408.144.803.401 1.12.258.296.636.456 1.027.436a2.77 2.77 0 0 0 .895-.127c.257-.09.499-.213.721-.369l.413.85c-.256.214-.55.38-.865.486-.4.14-.82.209-1.242.203zm-.15-4.95a.975.975 0 0 0-.79.38 1.887 1.887 0 0 0-.383.963l.011.028h2.288v-.138a1.375 1.375 0 0 0-.275-.897 1.023 1.023 0 0 0-.852-.336h.001z" fill="#FFF" fill-rule="nonzero"/><path stroke="#DEDEDE" stroke-width=".91" fill="#DEDEDE" fill-rule="nonzero" d="M338.225 117.193h320.878v23.213H338.225z"/><path d="M373.83 93.841c.01-.31-.121-.609-.358-.81a3.61 3.61 0 0 0-1.25-.576 7.134 7.134 0 0 1-2.36-1.068 2.023 2.023 0 0 1-.797-1.692c-.007-.7.336-1.359.914-1.754a3.816 3.816 0 0 1 2.338-.688 3.51 3.51 0 0 1 2.346.766 2.29 2.29 0 0 1 .877 1.888l-.012.036h-1.699a1.276 1.276 0 0 0-.404-.98 1.616 1.616 0 0 0-1.137-.374 1.682 1.682 0 0 0-1.086.312.982.982 0 0 0-.384.799.857.857 0 0 0 .413.728c.443.265.92.467 1.419.603.8.186 1.548.549 2.19 1.061.495.438.768 1.074.744 1.734a2.078 2.078 0 0 1-.885 1.77 3.866 3.866 0 0 1-2.338.649 4.262 4.262 0 0 1-2.486-.732 2.294 2.294 0 0 1-1.033-2.062l.013-.036h1.703c-.036.436.142.863.478 1.144.391.263.858.39 1.33.363.386.025.77-.078 1.092-.294a.947.947 0 0 0 .371-.787zM378.846 88.039v1.59h1.091v1.231h-1.091v3.3a.767.767 0 0 0 .155.54c.111.111.264.17.42.163a1.617 1.617 0 0 0 .47-.066l.148 1.266c-.168.059-.34.105-.516.138a3.163 3.163 0 0 1-.55.045 1.869 1.869 0 0 1-1.395-.498 2.189 2.189 0 0 1-.488-1.578v-3.311h-.948v-1.23h.948v-1.59h1.756zM384.863 96.125a3.558 3.558 0 0 1-.264-.972 2.41 2.41 0 0 1-.711.786c-.31.213-.678.323-1.054.313a2.2 2.2 0 0 1-1.573-.526 1.882 1.882 0 0 1-.55-1.431 1.712 1.712 0 0 1 .735-1.48 3.675 3.675 0 0 1 2.146-.525h.978v-.516a1.01 1.01 0 0 0-.246-.725 1.15 1.15 0 0 0-1.384-.051.729.729 0 0 0-.23.573h-1.692v-.036c-.02-.564.25-1.1.715-1.419a3.109 3.109 0 0 1 1.986-.597c.68-.03 1.349.18 1.89.592.493.415.762 1.039.725 1.683v2.682c-.001.288.022.575.07.858.046.273.12.54.219.8l-1.76-.009zm-1.602-1.17c.29.005.577-.074.825-.228.213-.122.383-.306.486-.528v-.918h-.977a1.169 1.169 0 0 0-.846.275.906.906 0 0 0-.289.676.675.675 0 0 0 .216.52c.163.14.373.21.586.199l-.001.004zM389.894 93.397l.072.36h.036l1.238-4.125h1.883l-2.623 7.456a3.437 3.437 0 0 1-.75 1.172c-.39.345-.903.518-1.423.477a2.186 2.186 0 0 1-.412-.035 11.599 11.599 0 0 1-.458-.102l.202-1.279.17.025c.053.008.106.012.16.012a.963.963 0 0 0 .666-.213c.16-.146.283-.328.36-.53l.204-.505-2.305-6.486h1.885l1.095 3.773zM397.34 94.338a.615.615 0 0 0-.274-.498 2.849 2.849 0 0 0-1.036-.373 4.179 4.179 0 0 1-1.738-.687 1.504 1.504 0 0 1-.584-1.252c-.001-.56.26-1.087.705-1.425a2.86 2.86 0 0 1 1.887-.585 3.1 3.1 0 0 1 1.977.582c.467.34.732.892.705 1.47l-.012.035h-1.691a.854.854 0 0 0-.25-.635 1.192 1.192 0 0 0-1.399-.038.652.652 0 0 0-.243.518.59.59 0 0 0 .255.492c.32.181.672.298 1.036.343a4.202 4.202 0 0 1 1.787.705c.388.31.604.786.582 1.282a1.706 1.706 0 0 1-.75 1.43 3.253 3.253 0 0 1-1.98.55c-.74.041-1.47-.193-2.048-.656a1.836 1.836 0 0 1-.716-1.498l.012-.035h1.602a.912.912 0 0 0 .342.756c.25.165.546.247.846.233.261.018.52-.05.74-.192a.62.62 0 0 0 .246-.522zM360.877 107.727V98.99h2.948a4.17 4.17 0 0 1 2.406.601 2.04 2.04 0 0 1 .865 1.788c.006.385-.106.763-.32 1.083-.23.33-.556.58-.934.717.471.08.893.337 1.179.72.263.374.401.822.393 1.279a2.26 2.26 0 0 1-.825 1.899 3.741 3.741 0 0 1-2.346.645l-3.366.005zm1.752-5.076h1.26c.38.025.76-.076 1.079-.288a.99.99 0 0 0 .378-.84 1.05 1.05 0 0 0-.381-.894 1.87 1.87 0 0 0-1.137-.287h-1.2v2.309zm0 1.211v2.515h1.608c.379.025.754-.082 1.062-.302a1.1 1.1 0 0 0 .366-.896 1.393 1.393 0 0 0-.312-.979 1.28 1.28 0 0 0-.985-.338h-1.74zM371.492 107.854a2.922 2.922 0 0 1-2.244-.9 3.22 3.22 0 0 1-.84-2.287v-.241a3.552 3.552 0 0 1 .795-2.382 2.964 2.964 0 0 1 4.173-.137c.508.594.768 1.361.726 2.142v.954h-3.876l-.013.036c.017.39.17.762.43 1.052a1.34 1.34 0 0 0 1.036.413c.325.007.649-.032.963-.117a4.45 4.45 0 0 0 .84-.369l.474 1.082c-.31.242-.662.425-1.038.54-.46.148-.942.22-1.426.214zm-.155-5.389a.913.913 0 0 0-.769.373 1.925 1.925 0 0 0-.348.977l.018.03h2.15v-.157a1.403 1.403 0 0 0-.262-.892.938.938 0 0 0-.79-.33zM377.204 99.645v1.59h1.091v1.231h-1.091v3.3a.767.767 0 0 0 .155.54c.111.112.264.17.42.163a1.617 1.617 0 0 0 .47-.066l.148 1.266c-.168.06-.34.105-.515.138a3.162 3.162 0 0 1-.55.045 1.869 1.869 0 0 1-1.396-.497 2.189 2.189 0 0 1-.488-1.579v-3.31h-.947v-1.231h.947v-1.59h1.756zM385.06 105.406h.034l.845-4.17h1.65l-1.65 6.493h-1.463l-1.207-3.865h-.034l-1.208 3.865h-1.459l-1.65-6.493h1.65l.858 4.158h.036l1.213-4.158h1.17zM391.325 107.854a2.922 2.922 0 0 1-2.244-.9 3.22 3.22 0 0 1-.84-2.287v-.241a3.552 3.552 0 0 1 .795-2.382 2.964 2.964 0 0 1 4.173-.137c.508.594.768 1.361.726 2.142v.954h-3.876l-.013.036c.017.39.17.762.43 1.052a1.34 1.34 0 0 0 1.036.413c.325.007.649-.032.962-.117a4.45 4.45 0 0 0 .84-.369l.475 1.082c-.31.242-.662.425-1.038.54-.46.148-.942.22-1.426.214zm-.155-5.389a.913.913 0 0 0-.769.373 1.925 1.925 0 0 0-.348.977l.018.03h2.15v-.157a1.403 1.403 0 0 0-.262-.892.938.938 0 0 0-.787-.33h-.002zM397.833 107.854a2.922 2.922 0 0 1-2.244-.9 3.22 3.22 0 0 1-.84-2.287v-.241a3.552 3.552 0 0 1 .794-2.382 2.964 2.964 0 0 1 4.174-.137c.508.594.768 1.361.726 2.142v.954h-3.876l-.013.036c.017.39.17.762.43 1.052a1.34 1.34 0 0 0 1.036.413c.325.007.649-.032.962-.117a4.45 4.45 0 0 0 .84-.369l.475 1.082c-.31.242-.662.425-1.038.54-.461.148-.942.22-1.426.214zm-.156-5.389a.913.913 0 0 0-.768.373 1.925 1.925 0 0 0-.348.977l.018.03h2.149v-.157a1.403 1.403 0 0 0-.261-.892.938.938 0 0 0-.79-.33zM403.066 101.236l.079.93c.2-.318.474-.583.797-.775a2.07 2.07 0 0 1 1.061-.275 1.953 1.953 0 0 1 1.536.619c.413.557.609 1.246.55 1.937v4.057h-1.757v-4.06a1.317 1.317 0 0 0-.264-.929 1.06 1.06 0 0 0-.797-.275 1.353 1.353 0 0 0-.625.138 1.283 1.283 0 0 0-.462.4v4.722h-1.751v-6.49h1.633zM438.573 66.754a.869.869 0 0 0-.315-.688 2.958 2.958 0 0 0-1.114-.483 4.718 4.718 0 0 1-1.752-.791 1.577 1.577 0 0 1-.613-1.29 1.65 1.65 0 0 1 .68-1.353 2.758 2.758 0 0 1 1.751-.532 2.612 2.612 0 0 1 1.8.603c.432.355.674.89.656 1.45l-.01.028h-1.087a1.1 1.1 0 0 0-.355-.847 1.446 1.446 0 0 0-1.012-.324c-.34-.02-.677.077-.954.275a.86.86 0 0 0-.333.698c.002.262.139.505.361.642.37.226.775.39 1.198.486a3.975 3.975 0 0 1 1.665.811c.376.334.585.818.57 1.32a1.595 1.595 0 0 1-.678 1.352 2.933 2.933 0 0 1-1.788.502 3.154 3.154 0 0 1-1.866-.568 1.74 1.74 0 0 1-.778-1.547l.01-.029h1.091c-.025.362.138.712.43.927.331.216.721.323 1.116.305.345.02.688-.068.98-.253a.802.802 0 0 0 .347-.694zM442.167 62.227v1.228h.905v.84h-.905v2.791a.61.61 0 0 0 .138.446.494.494 0 0 0 .36.137 1.1 1.1 0 0 0 .35-.06l.121.825a1.306 1.306 0 0 1-.345.124c-.135.03-.274.044-.412.044a1.298 1.298 0 0 1-.98-.368 1.598 1.598 0 0 1-.355-1.149v-2.791h-.77v-.839h.77v-1.228h1.123zM447.118 68.505a3.565 3.565 0 0 1-.1-.372 2.63 2.63 0 0 1-.054-.365c-.159.24-.368.444-.613.596a1.56 1.56 0 0 1-.852.24 1.676 1.676 0 0 1-1.21-.412 1.473 1.473 0 0 1-.424-1.115 1.319 1.319 0 0 1 .579-1.141 2.797 2.797 0 0 1 1.63-.413h.882v-.443a.825.825 0 0 0-.234-.621.927.927 0 0 0-.666-.224.949.949 0 0 0-.616.187.595.595 0 0 0-.229.48h-1.091v-.027c-.011-.42.19-.819.534-1.06a2.265 2.265 0 0 1 1.477-.462 2.16 2.16 0 0 1 1.423.448c.372.322.572.798.542 1.289v2.244c0 .2.014.4.043.6.028.19.074.379.137.562l-1.158.01zm-1.391-.812c.273.004.54-.07.773-.215.199-.111.358-.282.455-.49v-.746h-.905c-.28-.017-.555.07-.774.245a.743.743 0 0 0-.275.576.591.591 0 0 0 .188.46.781.781 0 0 0 .538.17zM450.92 66.297h-.509v2.207h-1.128v-7.28h1.128v4.163h.474l1.273-1.925h1.335l-1.668 2.29 1.914 2.75h-1.317zM456.35 68.603a2.2 2.2 0 0 1-1.71-.703 2.578 2.578 0 0 1-.638-1.804v-.187a2.678 2.678 0 0 1 .632-1.827 2 2 0 0 1 1.584-.72 1.973 1.973 0 0 1 1.566.618c.384.466.58 1.057.55 1.66v.667h-3.15l-.01.023c.004.357.129.703.354.98.225.259.556.399.898.381.265.006.53-.031.784-.111a2.59 2.59 0 0 0 .63-.322l.364.744c-.224.188-.48.333-.757.426a3.14 3.14 0 0 1-1.097.175zm-.137-4.331a.851.851 0 0 0-.688.334c-.19.245-.306.538-.335.847l.01.023h2.001v-.117a1.207 1.207 0 0 0-.246-.783.894.894 0 0 0-.737-.304h-.005zM460.488 64.416h-1.13V63.33h1.13v1.087zm0 4.088h-1.13v-1.088h1.13v1.088zM471.998 59.769v5.797a2.77 2.77 0 0 1-.972 2.267 3.88 3.88 0 0 1-2.546.799 3.836 3.836 0 0 1-2.53-.799 2.779 2.779 0 0 1-.962-2.267v-5.797h1.759v5.791c-.038.477.13.947.462 1.291.352.302.808.456 1.271.43a1.85 1.85 0 0 0 1.29-.427c.335-.344.506-.816.468-1.295v-5.79h1.76zM478.243 66.224c.01-.31-.12-.608-.358-.81a3.61 3.61 0 0 0-1.25-.576 7.134 7.134 0 0 1-2.359-1.068 2.023 2.023 0 0 1-.798-1.691c-.007-.701.336-1.36.915-1.755a3.816 3.816 0 0 1 2.337-.687 3.51 3.51 0 0 1 2.346.766 2.29 2.29 0 0 1 .877 1.887l-.012.036h-1.698a1.276 1.276 0 0 0-.404-.98 1.616 1.616 0 0 0-1.137-.374 1.682 1.682 0 0 0-1.087.312.982.982 0 0 0-.383.799.857.857 0 0 0 .412.729c.444.264.921.466 1.42.602.8.186 1.548.549 2.19 1.061.494.438.767 1.074.743 1.734a2.078 2.078 0 0 1-.885 1.77 3.866 3.866 0 0 1-2.338.649 4.262 4.262 0 0 1-2.49-.736 2.294 2.294 0 0 1-1.032-2.062l.012-.036h1.704c-.037.436.141.863.477 1.144.391.263.858.39 1.33.363.386.025.77-.078 1.093-.294a.947.947 0 0 0 .375-.783zM481.322 68.505V59.77h3a3.601 3.601 0 0 1 2.64 1.023A3.523 3.523 0 0 1 488 63.416v1.447a3.51 3.51 0 0 1-1.038 2.625 3.614 3.614 0 0 1-2.64 1.017h-3zm1.751-7.386v6.036h1.158a1.822 1.822 0 0 0 1.475-.635 2.497 2.497 0 0 0 .535-1.661V63.4a2.475 2.475 0 0 0-.535-1.65 1.823 1.823 0 0 0-1.475-.635l-1.158.004zM493.983 63.392h.984c.34.028.677-.091.924-.328.213-.253.32-.578.3-.908a1.183 1.183 0 0 0-.3-.846 1.139 1.139 0 0 0-.87-.318c-.301-.008-.595.094-.825.288a.947.947 0 0 0-.336.756h-1.698L492.15 62c-.036-.66.259-1.294.786-1.692a3.135 3.135 0 0 1 2.04-.666c.774-.04 1.538.19 2.162.65.548.452.848 1.138.807 1.847-.003.39-.129.77-.36 1.084a2.403 2.403 0 0 1-.99.801c.44.144.825.42 1.1.792.255.362.388.795.38 1.238a2.27 2.27 0 0 1-.872 1.886 3.506 3.506 0 0 1-2.236.688 3.42 3.42 0 0 1-2.091-.645 2.063 2.063 0 0 1-.843-1.822l.012-.036h1.697c-.008.315.125.617.361.825.251.222.578.338.912.326.353.02.699-.1.963-.335a1.2 1.2 0 0 0 .35-.91 1.319 1.319 0 0 0-.345-1.009 1.445 1.445 0 0 0-1.016-.32h-.984v-1.31zM501.284 68.505h-1.746v-1.53h1.751zM505.365 67.28a1.41 1.41 0 0 0 1.125-.511 2.2 2.2 0 0 0 .434-1.463v-.432a1.957 1.957 0 0 1-1.573.756 2.421 2.421 0 0 1-1.918-.794 3.145 3.145 0 0 1-.7-2.151 3.025 3.025 0 0 1 .825-2.175 3.006 3.006 0 0 1 4.278.053c.594.727.892 1.652.833 2.59v2.062a3.338 3.338 0 0 1-.932 2.502 3.264 3.264 0 0 1-2.38.913 4.987 4.987 0 0 1-.94-.093 4.273 4.273 0 0 1-.896-.275l.203-1.27a4.247 4.247 0 0 0 1.64.288zm.282-2.934c.26.006.52-.05.756-.162.206-.1.385-.248.522-.432v-.804a2.612 2.612 0 0 0-.337-1.46 1.048 1.048 0 0 0-.911-.497c-.354 0-.68.188-.86.492-.231.357-.348.776-.334 1.2-.019.423.086.841.303 1.204.184.295.512.47.86.459zM515.828 61.119a10.23 10.23 0 0 0-1.916 3.066 15.038 15.038 0 0 0-.736 3.438l-.084.888h-1.751l.083-.888c.12-1.215.415-2.407.878-3.537a10.894 10.894 0 0 1 1.842-2.962h-4.49v-1.35h6.174v1.345zM438.196 133.364h-.853l-3.038-4.88-.026.008v4.872h-.854v-6.31h.854l3.037 4.87.028-.008v-4.862h.852zM441.543 133.455a1.98 1.98 0 0 1-1.56-.653 2.456 2.456 0 0 1-.577-1.691v-.192a2.402 2.402 0 0 1 .595-1.666c.349-.42.865-.664 1.411-.666a1.775 1.775 0 0 1 1.434.572c.341.433.514.975.487 1.525v.534h-3.043l-.014.023c-.007.397.113.785.343 1.108a1.1 1.1 0 0 0 .924.435c.259.005.516-.037.76-.124.208-.077.4-.193.565-.34l.334.55c-.191.179-.416.32-.662.412-.318.12-.657.18-.997.173zm-.13-4.195a.927.927 0 0 0-.734.36c-.21.259-.34.573-.372.905l.008.022h2.16v-.112a1.304 1.304 0 0 0-.275-.837.962.962 0 0 0-.788-.336v-.002zM445.418 127.545v1.13h.888v.633h-.888v2.842a.644.644 0 0 0 .137.463.494.494 0 0 0 .363.138 1.075 1.075 0 0 0 .32-.06l.113.584a.76.76 0 0 1-.275.129 1.45 1.45 0 0 1-.371.05 1.1 1.1 0 0 1-.825-.315 1.364 1.364 0 0 1-.308-.986v-2.848h-.745v-.632h.745v-1.13l.846.002zM453.559 131.197a2.586 2.586 0 0 1-.486 1.636c-.32.413-.819.644-1.34.622-.26.006-.52-.044-.76-.145a1.463 1.463 0 0 1-.557-.435v2.293h-.853v-6.493h.655l.137.607c.144-.218.34-.395.572-.516.248-.123.521-.184.798-.179a1.56 1.56 0 0 1 1.353.688c.346.545.515 1.183.484 1.827l-.003.095zm-.854-.092a2.475 2.475 0 0 0-.315-1.309 1.016 1.016 0 0 0-.925-.513 1.137 1.137 0 0 0-.629.167 1.254 1.254 0 0 0-.42.456v2.263c.099.185.244.34.42.453.194.113.415.169.638.162.363.02.71-.148.919-.444.22-.34.33-.74.312-1.144v-.091zM456.827 129.43l-.437-.027a.972.972 0 0 0-.57.16c-.16.113-.284.27-.358.45v3.351h-.853v-4.689h.764l.082.688c.117-.225.285-.42.49-.568.199-.136.434-.208.675-.203.11 0 .219.017.324.048l-.117.79zM457.365 130.977a2.58 2.58 0 0 1 .564-1.715 2.086 2.086 0 0 1 3.069 0c.39.485.59 1.095.565 1.716v.095a2.57 2.57 0 0 1-.563 1.716 2.097 2.097 0 0 1-3.07 0 2.562 2.562 0 0 1-.565-1.713v-.099zm.854.092c-.017.432.092.86.315 1.23a1.136 1.136 0 0 0 1.861 0c.224-.37.334-.797.317-1.23v-.095a2.192 2.192 0 0 0-.32-1.225c-.2-.32-.556-.506-.933-.488a1.03 1.03 0 0 0-.925.488c-.222.37-.331.795-.315 1.225v.095zM462.962 133.364v-4.056h-.731v-.633h.731v-.594c-.027-.423.114-.84.392-1.16a1.446 1.446 0 0 1 1.1-.413c.1 0 .2.009.297.025.1.017.21.039.332.067l-.103.65a1.652 1.652 0 0 0-.19-.028 1.826 1.826 0 0 0-.231-.014.672.672 0 0 0-.55.223 1.001 1.001 0 0 0-.183.649v.594h.975v.632h-.975v4.057l-.864.001zM466.597 127.475h-.854v-.872h.854v.872zm0 5.89h-.854v-4.69h.854v4.69zM469.036 127.545v1.13h.888v.633h-.888v2.842a.644.644 0 0 0 .137.463.494.494 0 0 0 .363.138 1.075 1.075 0 0 0 .32-.06l.113.584a.76.76 0 0 1-.274.129 1.45 1.45 0 0 1-.372.05 1.1 1.1 0 0 1-.825-.315 1.364 1.364 0 0 1-.308-.986v-2.848h-.745v-.632h.745v-1.13l.846.002zM471.908 129.568h-.852v-.886h.852v.886zm0 3.796h-.852v-.884h.852v.884zM480.194 127.054v4.276a1.917 1.917 0 0 1-.67 1.578c-.5.383-1.118.578-1.747.55a2.526 2.526 0 0 1-1.689-.55 1.951 1.951 0 0 1-.649-1.576v-4.276h.854v4.269c-.027.405.123.8.413 1.085.297.256.681.39 1.073.371.41.02.814-.113 1.134-.371.3-.278.458-.677.43-1.085v-4.273l.851.002zM485.026 131.776a.93.93 0 0 0-.325-.722 2.75 2.75 0 0 0-1.152-.488 3.825 3.825 0 0 1-1.563-.704 1.458 1.458 0 0 1-.561-1.169 1.53 1.53 0 0 1 .605-1.237 2.39 2.39 0 0 1 1.566-.495 2.338 2.338 0 0 1 1.65.568c.386.326.604.81.592 1.317l-.01.026h-.813a1.171 1.171 0 0 0-.367-.897 1.788 1.788 0 0 0-2.03-.053.942.942 0 0 0-.34.752c0 .276.139.535.369.688.365.234.77.398 1.196.483a3.416 3.416 0 0 1 1.513.73c.338.301.528.736.52 1.19.01.488-.224.948-.625 1.227a2.657 2.657 0 0 1-1.63.464 2.819 2.819 0 0 1-1.67-.514 1.545 1.545 0 0 1-.705-1.375l.01-.028h.814c-.02.365.148.714.446.925.325.218.71.328 1.1.316.361.018.719-.078 1.022-.275a.855.855 0 0 0 .388-.729zM487.124 133.364v-6.31h1.937a2.59 2.59 0 0 1 2.738 2.726v.862a2.585 2.585 0 0 1-2.738 2.72l-1.937.002zm.854-5.637v4.966h1.083a1.742 1.742 0 0 0 1.375-.576c.346-.412.526-.939.505-1.477v-.87a2.15 2.15 0 0 0-.505-1.467 1.742 1.742 0 0 0-1.375-.576h-1.083zM497.321 126.963c.217 0 .433.025.643.075.183.039.36.102.527.187l-.183.654a1.994 1.994 0 0 0-.993-.243c-.43-.01-.838.193-1.09.543a2.258 2.258 0 0 0-.412 1.412v.1c.187-.163.401-.292.634-.379.246-.093.507-.14.77-.138a1.686 1.686 0 0 1 1.347.586c.344.416.523.943.502 1.483a2.355 2.355 0 0 1-.535 1.596 1.799 1.799 0 0 1-1.429.617 1.979 1.979 0 0 1-1.533-.67 2.73 2.73 0 0 1-.606-1.895v-1.205a2.84 2.84 0 0 1 .675-1.968 2.161 2.161 0 0 1 1.683-.755zm-.292 2.848a1.471 1.471 0 0 0-.745.177c-.197.11-.36.274-.467.472v.51c-.03.476.099.949.368 1.342.213.298.557.474.923.473a.93.93 0 0 0 .818-.444c.204-.33.306-.712.293-1.1a1.62 1.62 0 0 0-.315-1.026 1.045 1.045 0 0 0-.873-.403h-.002zM500.943 133.364h-.853v-.884h.853zM506.275 130.96a2.828 2.828 0 0 1-.536 1.853 2 2 0 0 1-2.941 0 2.805 2.805 0 0 1-.542-1.851v-1.496a2.817 2.817 0 0 1 .54-1.852 1.988 1.988 0 0 1 2.939 0c.392.534.583 1.19.54 1.852v1.493zm-.854-1.68a2.116 2.116 0 0 0-.297-1.237 1.1 1.1 0 0 0-1.719 0 2.127 2.127 0 0 0-.295 1.237v1.85c-.03.433.075.865.3 1.237a.996.996 0 0 0 .862.413.983.983 0 0 0 .856-.413c.22-.373.322-.805.293-1.237v-1.85zM508.449 129.813h.745a.994.994 0 0 0 .804-.285c.17-.228.254-.508.237-.79a1.15 1.15 0 0 0-.275-.826 1.046 1.046 0 0 0-.793-.282 1.1 1.1 0 0 0-.8.293 1.034 1.034 0 0 0-.302.779h-.825l-.008-.028c-.02-.463.17-.91.518-1.216a1.988 1.988 0 0 1 1.41-.5 2.013 2.013 0 0 1 1.395.466c.362.344.553.83.522 1.328a1.512 1.512 0 0 1-.945 1.375c.331.09.618.298.804.586.412.738.277 1.66-.328 2.25-.404.338-.92.514-1.447.493a2.172 2.172 0 0 1-1.427-.466 1.492 1.492 0 0 1-.55-1.264l.012-.026h.816c-.014.295.097.582.306.79.23.205.53.311.838.294.31.018.616-.088.85-.294.22-.234.33-.548.307-.868a.985.985 0 0 0-1.135-1.136h-.746l.017-.673zM515.911 134.046h-.99v-7.28h.99zM520.712 130.63v2.734h-.853v-6.302h2.284a2.398 2.398 0 0 1 1.58.46c.38.337.582.829.55 1.335.008.301-.08.597-.252.845-.19.255-.446.453-.74.572.309.085.575.28.748.55.16.287.24.612.228.94v.594c-.002.178.02.356.065.529a.792.792 0 0 0 .225.38v.104h-.88a.71.71 0 0 1-.217-.433 3.677 3.677 0 0 1-.047-.59v-.576c.014-.304-.094-.601-.3-.825a1.056 1.056 0 0 0-.801-.312l-1.59-.004zm0-.672h1.344c.369.033.737-.064 1.042-.275.227-.217.344-.524.32-.837a1.075 1.075 0 0 0-.312-.825 1.367 1.367 0 0 0-.962-.293h-1.432v2.23zM527.519 133.455a1.98 1.98 0 0 1-1.56-.653 2.456 2.456 0 0 1-.577-1.691v-.192a2.402 2.402 0 0 1 .595-1.666c.349-.42.865-.664 1.411-.666a1.775 1.775 0 0 1 1.434.572c.341.433.514.975.487 1.525v.534h-3.043l-.014.023c-.007.397.113.785.343 1.108a1.1 1.1 0 0 0 .924.435c.259.005.516-.037.76-.124.208-.077.4-.193.565-.34l.334.55c-.191.179-.416.32-.662.412-.318.12-.657.18-.997.173zm-.13-4.195a.927.927 0 0 0-.734.36c-.21.259-.34.573-.372.905l.008.022h2.163v-.112a1.304 1.304 0 0 0-.275-.837.963.963 0 0 0-.79-.336v-.002zM531.394 127.545v1.13h.888v.633h-.889v2.842a.644.644 0 0 0 .138.463.494.494 0 0 0 .363.138 1.075 1.075 0 0 0 .32-.06l.113.584a.76.76 0 0 1-.275.129 1.45 1.45 0 0 1-.371.05 1.1 1.1 0 0 1-.825-.315 1.364 1.364 0 0 1-.308-.986v-2.848h-.76v-.632h.745v-1.13l.86.002zM536.312 132.671c-.136.24-.332.44-.568.58-.244.14-.52.21-.802.204a1.513 1.513 0 0 1-1.196-.49 2.274 2.274 0 0 1-.429-1.525v-2.765h.853v2.774c-.035.359.042.72.221 1.032a.825.825 0 0 0 .688.275c.263.011.523-.053.752-.184.199-.124.355-.307.448-.522v-3.38h.854v4.689h-.768l-.053-.688zM540.598 129.43l-.438-.027a.972.972 0 0 0-.569.16c-.16.113-.285.27-.359.45v3.351h-.852v-4.689h.763l.082.688c.118-.225.286-.42.491-.568.198-.136.434-.208.674-.203.11 0 .22.017.325.048l-.117.79zM542.184 128.675l.061.699c.145-.238.347-.437.587-.579.245-.14.523-.211.804-.206.437-.027.865.135 1.175.444.307.389.455.88.412 1.375v2.959h-.854v-2.943a1.27 1.27 0 0 0-.244-.881.982.982 0 0 0-.748-.258 1.199 1.199 0 0 0-.652.177c-.191.12-.347.288-.454.487v3.418h-.852v-4.689l.765-.003zM551.002 133.364h-.853v-5.477l-1.292.017v-.615l2.147-.233zM553.807 130.518l.365-3.464h3.162v.76h-2.439l-.208 1.772a1.675 1.675 0 0 1 1.01-.352 1.698 1.698 0 0 1 1.375.567c.352.438.53.99.5 1.552a2.222 2.222 0 0 1-.509 1.526 1.875 1.875 0 0 1-1.483.576 2.032 2.032 0 0 1-1.335-.437 1.512 1.512 0 0 1-.512-1.289l.008-.026h.773c-.018.296.09.585.297.796.209.193.486.295.77.284a1.01 1.01 0 0 0 .84-.381 1.65 1.65 0 0 0 .299-1.044 1.572 1.572 0 0 0-.304-.995 1.001 1.001 0 0 0-.835-.39 1.347 1.347 0 0 0-.729.152.868.868 0 0 0-.328.463l-.717-.07zM562.65 133.364h-4.092v-.59l2.063-2.292c.285-.3.537-.63.752-.984.127-.228.196-.484.198-.746a1.181 1.181 0 0 0-.275-.794.913.913 0 0 0-.73-.323 1.255 1.255 0 0 0-.963.335c-.22.263-.332.6-.31.943h-.819l-.01-.026a1.78 1.78 0 0 1 .542-1.375 2.13 2.13 0 0 1 1.56-.55c.501-.025.99.154 1.355.496.337.332.52.79.505 1.263a2.014 2.014 0 0 1-.307 1.034c-.245.4-.531.773-.855 1.112l-1.66 1.804.009.022h3.037v.671zM563.493 128.268c-.01-.344.118-.677.355-.928a1.386 1.386 0 0 1 1.899 0c.237.251.365.586.356.931v.333c.009.342-.118.675-.354.924-.246.253-.59.389-.943.373-.36.018-.71-.117-.963-.373a1.283 1.283 0 0 1-.357-.924l.007-.336zm.632.333a.847.847 0 0 0 .176.55c.123.152.31.235.505.223.189.01.37-.073.488-.22a.86.86 0 0 0 .173-.55v-.333a.872.872 0 0 0-.174-.55.659.659 0 0 0-.996 0 .88.88 0 0 0-.173.55l.001.33zm.901 4.286l-.473-.29 3.081-4.932.473.29-3.081 4.932zm1.52-1.07c-.008-.343.12-.676.357-.925.533-.5 1.363-.5 1.896 0 .238.249.366.582.358.925v.338c.01.345-.119.678-.357.927a1.238 1.238 0 0 1-.94.373c-.36.018-.71-.117-.963-.373a1.288 1.288 0 0 1-.357-.927l.007-.338zm.633.338a.86.86 0 0 0 .176.55c.123.152.31.235.505.223.19.01.372-.073.49-.222a.868.868 0 0 0 .173-.55v-.339a.851.851 0 0 0-.18-.55.656.656 0 0 0-.99 0 .865.865 0 0 0-.175.55l.001.338zM538.26 65.929v2.576h-1.133V61.71h2.655c.64-.038 1.27.17 1.762.58a2.156 2.156 0 0 1 0 3.063 2.526 2.526 0 0 1-1.762.576h-1.522zm0-.91h1.521c.349.027.693-.095.947-.336.214-.232.328-.539.317-.854a1.145 1.145 0 0 0-1.265-1.209h-1.521l.001 2.398zM546.15 68.505a3.565 3.565 0 0 1-.1-.372 2.63 2.63 0 0 1-.054-.365c-.16.24-.368.444-.613.596a1.56 1.56 0 0 1-.853.24 1.676 1.676 0 0 1-1.21-.412 1.473 1.473 0 0 1-.423-1.115 1.319 1.319 0 0 1 .579-1.141 2.797 2.797 0 0 1 1.629-.413h.883v-.443a.825.825 0 0 0-.234-.621.927.927 0 0 0-.667-.224.949.949 0 0 0-.616.187.595.595 0 0 0-.228.48h-1.092v-.027c-.01-.42.19-.819.535-1.06a2.265 2.265 0 0 1 1.477-.462 2.16 2.16 0 0 1 1.423.448c.371.322.572.798.542 1.289v2.244c0 .2.013.4.042.6.029.19.075.379.138.562l-1.158.01zm-1.391-.812c.272.004.54-.07.772-.215.2-.111.359-.282.455-.49v-.746h-.9c-.28-.017-.555.07-.774.245a.743.743 0 0 0-.275.576.591.591 0 0 0 .188.46c.15.119.337.18.528.17h.005zM549.905 66.479l.111.504h.03l1.1-3.528h1.237l-2.091 5.815a2.613 2.613 0 0 1-.564.9 1.375 1.375 0 0 1-1.033.373c-.1 0-.202-.01-.301-.029a4.95 4.95 0 0 1-.31-.064l.126-.878.173.014c.074 0 .13.01.168.01a.62.62 0 0 0 .49-.21c.127-.145.229-.309.303-.486l.187-.458-1.834-4.988h1.237l.971 3.025zM552.788 65.933a2.75 2.75 0 0 1 .616-1.848 2.358 2.358 0 0 1 3.4 0c.427.518.648 1.176.62 1.848v.097a2.739 2.739 0 0 1-.62 1.858 2.373 2.373 0 0 1-3.4 0 2.75 2.75 0 0 1-.615-1.852v-.103zm1.135.095c-.018.42.082.837.29 1.203a1.09 1.09 0 0 0 1.788 0c.213-.364.318-.782.3-1.203v-.098a2.157 2.157 0 0 0-.3-1.188 1.078 1.078 0 0 0-1.788 0 2.233 2.233 0 0 0-.29 1.188v.098zM561.557 67.767a1.727 1.727 0 0 1-.601.619 1.788 1.788 0 0 1-2.11-.301 2.386 2.386 0 0 1-.456-1.61V63.45h1.13v3.025c-.031.324.044.65.214.928a.781.781 0 0 0 .649.266c.237.008.473-.042.687-.147.184-.097.335-.245.436-.427v-3.64h1.134v5.049h-.99l-.093-.737zM565.236 62.227v1.228h.905v.84h-.905v2.791a.61.61 0 0 0 .138.446.494.494 0 0 0 .36.137 1.1 1.1 0 0 0 .35-.06l.122.825a1.306 1.306 0 0 1-.345.124c-.136.03-.274.044-.413.044a1.298 1.298 0 0 1-.979-.368 1.598 1.598 0 0 1-.356-1.149v-2.791h-.77v-.839h.77v-1.228h1.123zM568.396 64.416h-1.129V63.33h1.13v1.087zm0 4.088h-1.129v-1.088h1.13v1.088zM579.904 59.769v5.797a2.77 2.77 0 0 1-.973 2.267 3.88 3.88 0 0 1-2.545.792 3.836 3.836 0 0 1-2.53-.799 2.779 2.779 0 0 1-.962-2.267v-5.79h1.758v5.791c-.037.477.131.947.462 1.291.353.302.809.456 1.272.43a1.85 1.85 0 0 0 1.29-.427c.335-.344.505-.816.467-1.295v-5.79h1.76zM586.149 66.224c.01-.31-.121-.608-.358-.81a3.61 3.61 0 0 0-1.25-.576 7.134 7.134 0 0 1-2.36-1.068 2.023 2.023 0 0 1-.797-1.691c-.007-.701.336-1.36.915-1.755a3.816 3.816 0 0 1 2.337-.687 3.51 3.51 0 0 1 2.346.766 2.29 2.29 0 0 1 .877 1.887l-.012.036h-1.698a1.276 1.276 0 0 0-.404-.98 1.616 1.616 0 0 0-1.138-.374 1.682 1.682 0 0 0-1.086.312.982.982 0 0 0-.383.799.857.857 0 0 0 .412.729c.443.264.92.466 1.419.602.8.186 1.548.549 2.19 1.061.495.438.768 1.074.744 1.734a2.078 2.078 0 0 1-.885 1.77 3.866 3.866 0 0 1-2.338.649 4.262 4.262 0 0 1-2.49-.736 2.294 2.294 0 0 1-1.033-2.062l.013-.036h1.704c-.037.436.141.863.477 1.144.391.263.858.39 1.33.363.386.025.77-.078 1.092-.294a.947.947 0 0 0 .376-.783zM589.227 68.505V59.77h3a3.601 3.601 0 0 1 2.64 1.023 3.523 3.523 0 0 1 1.039 2.624v1.447a3.51 3.51 0 0 1-1.038 2.625 3.614 3.614 0 0 1-2.64 1.017h-3zm1.752-7.386v6.036h1.158a1.822 1.822 0 0 0 1.475-.635 2.497 2.497 0 0 0 .535-1.661V63.4a2.475 2.475 0 0 0-.535-1.65 1.823 1.823 0 0 0-1.475-.635l-1.158.004zM604.079 68.505h-1.752v-7.188h-1.776v-1.238l3.528-.312zM613.055 65.102a3.85 3.85 0 0 1-.795 2.632 3.046 3.046 0 0 1-4.317 0 3.85 3.85 0 0 1-.798-2.632v-1.925a3.864 3.864 0 0 1 .795-2.632 3.025 3.025 0 0 1 4.314 0 3.85 3.85 0 0 1 .8 2.632v1.925zm-1.746-2.108a2.868 2.868 0 0 0-.314-1.519 1.08 1.08 0 0 0-1.8 0c-.238.47-.344.996-.307 1.522v2.272c-.038.53.07 1.06.31 1.534.193.313.541.497.909.48a.996.996 0 0 0 .894-.48 2.941 2.941 0 0 0 .306-1.534l.001-2.275zM616.242 68.505h-1.755v-1.53h1.752zM623.682 65.102a3.85 3.85 0 0 1-.795 2.632 3.046 3.046 0 0 1-4.317 0 3.85 3.85 0 0 1-.798-2.632v-1.925a3.864 3.864 0 0 1 .795-2.632 3.025 3.025 0 0 1 4.315 0 3.85 3.85 0 0 1 .8 2.632v1.925zm-1.746-2.108a2.868 2.868 0 0 0-.314-1.519 1.08 1.08 0 0 0-1.8 0c-.238.47-.344.996-.306 1.522v2.272c-.038.53.069 1.06.31 1.534.192.313.54.497.908.48a.996.996 0 0 0 .894-.48 2.941 2.941 0 0 0 .306-1.534l.002-2.275zM630.733 65.102a3.85 3.85 0 0 1-.795 2.632 3.046 3.046 0 0 1-4.317 0 3.85 3.85 0 0 1-.798-2.632v-1.925a3.864 3.864 0 0 1 .802-2.632 3.025 3.025 0 0 1 4.315 0 3.85 3.85 0 0 1 .8 2.632l-.007 1.925zm-1.746-2.108a2.868 2.868 0 0 0-.314-1.519 1.08 1.08 0 0 0-1.8 0c-.238.47-.344.996-.306 1.522v2.272c-.038.53.069 1.06.31 1.534.192.313.54.497.908.48a.996.996 0 0 0 .894-.48 2.941 2.941 0 0 0 .307-1.534v-2.275z" fill="#000" fill-rule="nonzero"/><path d="M371.606 71.523h24.75v-8.969h-24.75v8.97zm1.185-4.133h2.651l3.067-4.628 3.61 5.338 3.677-4.733 3.248 3.662h2.878l-2.305-2.303h2.338l3.05 3.05-3.13 3.118h-2.337l2.213-2.214H388.3l-2.423-2.732-3.85 4.96-3.503-5.181-2.2 3.312h-3.537l.004-1.649zM371.606 72.624h24.75v6.557h-24.75zM371.606 54.432h24.75v7.022h-24.75z" fill="#29A9E1" fill-rule="nonzero"/><path stroke="#DEDEDE" stroke-width=".683" fill="#FFF" fill-rule="nonzero" d="M338.225 150.715h320.878v71.002H338.225z"/><rect fill="#2E8836" fill-rule="nonzero" x="420.948" y="186.216" width="225.98" height="24.578" rx="2.731"/><path d="M512.908 199.001v2.945h-1.295v-7.764h3.034a2.872 2.872 0 0 1 2.013.663 2.467 2.467 0 0 1 0 3.499 2.888 2.888 0 0 1-2.013.659l-1.739-.002zm0-1.04h1.74c.398.03.79-.109 1.082-.383.245-.265.375-.616.362-.976a1.309 1.309 0 0 0-1.445-1.375h-1.739v2.735zM522.098 201.103c-.165.291-.401.535-.687.709-.791.429-1.77.29-2.41-.344a2.725 2.725 0 0 1-.523-1.841v-3.452h1.29v3.463c-.034.37.052.743.246 1.061.186.212.46.325.741.304.272.009.542-.049.787-.168.21-.11.382-.28.497-.488v-4.17h1.296v5.775h-1.13l-.107-.849zM527.566 197.343l-.55-.022a1.162 1.162 0 0 0-.632.16c-.171.11-.307.267-.392.453v4.011h-1.296v-5.775h1.184l.086.837c.13-.271.322-.507.563-.687.23-.167.508-.255.792-.25.073-.001.146.005.218.019.064.01.126.026.187.044l-.16 1.21zM530.856 201.018c.291.01.576-.088.8-.275a.88.88 0 0 0 .325-.697h1.174l.01.032a1.702 1.702 0 0 1-.658 1.397 2.447 2.447 0 0 1-1.65.587 2.394 2.394 0 0 1-1.955-.825 3.162 3.162 0 0 1-.68-2.08v-.182a3.162 3.162 0 0 1 .68-2.079 2.698 2.698 0 0 1 3.642-.217c.428.393.658.957.627 1.537l-.01.032h-1.173a1.128 1.128 0 0 0-.313-.805 1.064 1.064 0 0 0-.814-.331 1.1 1.1 0 0 0-1.035.53c-.216.41-.32.868-.304 1.33v.187c-.018.466.086.928.304 1.34a1.1 1.1 0 0 0 1.03.52zM535.486 196.922c.182-.26.422-.476.7-.63a1.89 1.89 0 0 1 .915-.222c.54-.03 1.065.182 1.433.579.383.513.566 1.148.514 1.787v3.516h-1.295v-3.527a1.456 1.456 0 0 0-.275-.986 1.037 1.037 0 0 0-.815-.305 1.398 1.398 0 0 0-1.185.591v4.224h-1.29v-8.321h1.295l.003 3.294zM543.865 201.946a4.497 4.497 0 0 1-.114-.427 2.937 2.937 0 0 1-.062-.413 2.28 2.28 0 0 1-.702.688c-.29.183-.629.279-.973.275a1.925 1.925 0 0 1-1.385-.464 1.69 1.69 0 0 1-.482-1.276 1.512 1.512 0 0 1 .66-1.303 3.205 3.205 0 0 1 1.861-.466h1.007v-.508a.938.938 0 0 0-.265-.71 1.06 1.06 0 0 0-.764-.256 1.082 1.082 0 0 0-.705.213.687.687 0 0 0-.26.55h-1.248v-.03c-.013-.481.216-.936.61-1.212a2.59 2.59 0 0 1 1.689-.528 2.475 2.475 0 0 1 1.628.512c.424.367.652.911.619 1.471v2.563c-.002.23.014.46.046.688.032.218.084.434.154.643l-1.314-.01zm-1.588-.928a1.63 1.63 0 0 0 .882-.246c.228-.127.41-.323.52-.56v-.853h-1.028c-.32-.02-.635.077-.887.275a.851.851 0 0 0-.32.658c-.008.199.07.39.217.525a.887.887 0 0 0 .616.201zM549.578 200.377a.604.604 0 0 0-.257-.495 2.548 2.548 0 0 0-.955-.346 3.964 3.964 0 0 1-1.566-.621 1.3 1.3 0 0 1-.53-1.1c0-.486.227-.944.613-1.238a2.437 2.437 0 0 1 1.615-.512 2.531 2.531 0 0 1 1.678.52c.397.307.62.788.595 1.289l-.01.031h-1.238c0-.234-.1-.458-.275-.613a1.045 1.045 0 0 0-.747-.256 1.073 1.073 0 0 0-.715.21.656.656 0 0 0-.246.515c-.006.19.08.37.233.483.289.168.61.276.941.317a3.98 3.98 0 0 1 1.615.631c.345.264.541.68.525 1.114.008.502-.233.975-.644 1.264a2.736 2.736 0 0 1-1.692.485 2.585 2.585 0 0 1-1.777-.576 1.625 1.625 0 0 1-.617-1.323l.01-.031h1.205a.869.869 0 0 0 .363.731c.248.158.538.238.832.228.272.017.542-.05.774-.192a.6.6 0 0 0 .27-.514zM554.49 202.058a2.51 2.51 0 0 1-1.955-.802 2.95 2.95 0 0 1-.727-2.062v-.219a3.065 3.065 0 0 1 .722-2.089 2.287 2.287 0 0 1 1.81-.825 2.256 2.256 0 0 1 1.787.707c.435.533.657 1.209.622 1.896v.763h-3.6l-.011.028c.003.408.144.803.401 1.12.257.296.636.457 1.027.436.304.007.606-.036.895-.127a2.91 2.91 0 0 0 .721-.37l.413.85c-.256.214-.55.38-.865.487-.398.141-.817.21-1.24.207zm-.15-4.95a.975.975 0 0 0-.788.38 1.888 1.888 0 0 0-.384.963l.011.028h2.288v-.138a1.386 1.386 0 0 0-.275-.896 1.023 1.023 0 0 0-.852-.337z" fill="#FFF" fill-rule="nonzero"/><path stroke="#DEDEDE" stroke-width=".91" fill="#DEDEDE" fill-rule="nonzero" d="M338.225 221.718h320.878v23.213H338.225z"/><path d="M377.424 199.452a3.3 3.3 0 0 1-1.216.917c-.656.29-1.369.428-2.086.403a3.575 3.575 0 0 1-2.612-.997 3.46 3.46 0 0 1-1.015-2.586v-1.823a3.538 3.538 0 0 1 .976-2.584 3.354 3.354 0 0 1 2.511-1 3.505 3.505 0 0 1 2.445.776c.569.525.885 1.27.866 2.043l-.01.036h-1.65c-.01-.409-.168-.8-.445-1.1a1.55 1.55 0 0 0-1.16-.406 1.573 1.573 0 0 0-1.294.62 2.496 2.496 0 0 0-.491 1.598v1.839a2.456 2.456 0 0 0 .51 1.615c.335.412.844.642 1.375.62.333.01.665-.032.984-.125.209-.062.401-.168.564-.312v-1.616h-1.552v-1.212h3.3v3.294zM378.515 197.34a3.479 3.479 0 0 1 .812-2.379 3.194 3.194 0 0 1 4.499 0c.561.664.852 1.514.816 2.382v.126a3.468 3.468 0 0 1-.813 2.385 3.208 3.208 0 0 1-4.5 0 3.468 3.468 0 0 1-.814-2.385v-.129zm1.748.123c-.023.493.085.984.312 1.423.206.356.597.564 1.008.536.407.025.793-.184.993-.54.229-.436.337-.927.315-1.42v-.125a2.77 2.77 0 0 0-.318-1.408 1.184 1.184 0 0 0-1.995 0 2.8 2.8 0 0 0-.315 1.406v.127zM388.596 200.772a2.926 2.926 0 0 1-2.244-.9 3.222 3.222 0 0 1-.84-2.286v-.24a3.55 3.55 0 0 1 .794-2.382 2.963 2.963 0 0 1 4.173-.137c.509.594.769 1.362.726 2.143v.953h-3.876l-.012.036c.017.39.169.762.43 1.052.269.281.647.432 1.036.412a3.38 3.38 0 0 0 .962-.117c.292-.093.574-.217.84-.37l.475 1.084c-.311.24-.663.424-1.038.54-.461.147-.943.218-1.426.212zm-.156-5.388a.912.912 0 0 0-.768.372 1.925 1.925 0 0 0-.348.978l.018.03h2.149v-.155a1.404 1.404 0 0 0-.262-.891.94.94 0 0 0-.791-.334h.002zM395.739 198.858a.616.616 0 0 0-.275-.498 2.875 2.875 0 0 0-1.036-.372 4.169 4.169 0 0 1-1.738-.688 1.504 1.504 0 0 1-.584-1.25c-.001-.56.26-1.087.705-1.425a2.864 2.864 0 0 1 1.887-.586 3.1 3.1 0 0 1 1.977.583c.464.34.726.89.7 1.465l-.012.036h-1.692a.854.854 0 0 0-.25-.636 1.195 1.195 0 0 0-1.398-.039.653.653 0 0 0-.244.518.59.59 0 0 0 .256.493c.32.18.671.297 1.035.342a4.194 4.194 0 0 1 1.788.706c.388.309.604.785.582 1.281a1.704 1.704 0 0 1-.75 1.43 3.25 3.25 0 0 1-1.98.55c-.74.04-1.47-.193-2.048-.657a1.837 1.837 0 0 1-.717-1.498l.012-.035h1.602a.91.91 0 0 0 .343.756c.25.166.546.247.845.234.262.016.521-.051.741-.193a.62.62 0 0 0 .25-.517zM370.397 208.67a3.664 3.664 0 0 1-1.017 2.66 3.516 3.516 0 0 1-2.643 1.05 3.472 3.472 0 0 1-2.622-1.05 3.68 3.68 0 0 1-1.008-2.66v-1.573a3.693 3.693 0 0 1 1.005-2.655 3.454 3.454 0 0 1 2.613-1.053 3.52 3.52 0 0 1 2.647 1.053 3.664 3.664 0 0 1 1.02 2.655l.005 1.573zm-1.751-1.578a2.65 2.65 0 0 0-.51-1.678 1.679 1.679 0 0 0-1.404-.656 1.636 1.636 0 0 0-1.386.652 2.718 2.718 0 0 0-.491 1.682v1.586c-.027.604.147 1.2.496 1.694a1.65 1.65 0 0 0 1.388.656 1.667 1.667 0 0 0 1.404-.656 2.695 2.695 0 0 0 .504-1.694l-.001-1.586zM375.587 211.316a2.183 2.183 0 0 1-.762.785 2.248 2.248 0 0 1-2.667-.38 3.039 3.039 0 0 1-.58-2.043v-3.919h1.748v3.941c-.03.356.054.713.24 1.019a.84.84 0 0 0 .709.31c.247.005.492-.042.72-.138.195-.088.364-.226.49-.4v-4.733h1.752v6.493h-1.495l-.155-.935zM380.64 204.17v1.59h1.092v1.23h-1.092v3.3a.765.765 0 0 0 .155.54.55.55 0 0 0 .421.162c.08.001.159-.004.238-.015.078-.013.155-.03.23-.05l.15 1.266a3.025 3.025 0 0 1-1.066.183 1.871 1.871 0 0 1-1.396-.498 2.188 2.188 0 0 1-.488-1.577v-3.313h-.947v-1.23h.947v-1.59l1.756.002zM386.358 210.463a.616.616 0 0 0-.274-.498 2.875 2.875 0 0 0-1.036-.372 4.169 4.169 0 0 1-1.738-.688 1.504 1.504 0 0 1-.584-1.25c-.001-.56.26-1.087.705-1.425a2.864 2.864 0 0 1 1.887-.586 3.1 3.1 0 0 1 1.977.583c.467.34.732.892.705 1.47l-.012.035h-1.691a.854.854 0 0 0-.25-.636 1.195 1.195 0 0 0-1.399-.039.653.653 0 0 0-.243.519.59.59 0 0 0 .255.492c.32.18.672.297 1.036.342a4.194 4.194 0 0 1 1.787.706c.388.309.604.785.582 1.281a1.704 1.704 0 0 1-.75 1.43 3.25 3.25 0 0 1-1.98.55c-.74.04-1.47-.193-2.048-.657a1.837 1.837 0 0 1-.717-1.498l.013-.035h1.592a.91.91 0 0 0 .342.756c.25.166.546.247.846.234.261.017.521-.05.741-.193a.62.62 0 0 0 .255-.52zM391.027 204.2h-1.75v-1.313h1.75v1.313zm0 8.048h-1.75v-6.493h1.75v6.493zM392.195 209.06c-.04-.873.191-1.738.663-2.474a2.152 2.152 0 0 1 1.869-.944c.305-.004.607.068.877.21.27.148.505.353.688.602v-3.559h1.757v9.361h-1.506l-.144-.792c-.184.283-.43.518-.722.688-.295.16-.627.24-.963.233a2.2 2.2 0 0 1-1.857-.877 3.743 3.743 0 0 1-.663-2.317l.001-.13zm1.748.127c-.024.467.075.932.287 1.349.194.328.557.519.937.49.23.006.456-.046.66-.152.191-.106.35-.26.462-.45v-2.787a1.359 1.359 0 0 0-.46-.48 1.218 1.218 0 0 0-.651-.171.987.987 0 0 0-.94.573 3.266 3.266 0 0 0-.296 1.498l.001.13zM402.277 212.379a2.926 2.926 0 0 1-2.244-.9 3.222 3.222 0 0 1-.84-2.286v-.241a3.55 3.55 0 0 1 .795-2.381 2.963 2.963 0 0 1 4.173-.138c.508.595.768 1.362.726 2.144v.953h-3.877l-.012.035c.017.39.169.762.43 1.052.27.282.647.432 1.036.413a3.38 3.38 0 0 0 .962-.117c.293-.094.574-.218.84-.37l.475 1.083c-.311.241-.663.424-1.038.54-.461.147-.943.219-1.426.213zm-.155-5.39a.912.912 0 0 0-.77.374 1.925 1.925 0 0 0-.347.977l.018.03h2.149v-.155a1.404 1.404 0 0 0-.261-.891.94.94 0 0 0-.79-.334zM438.573 171.28a.865.865 0 0 0-.315-.688 2.947 2.947 0 0 0-1.114-.484 4.74 4.74 0 0 1-1.752-.79 1.579 1.579 0 0 1-.613-1.29 1.65 1.65 0 0 1 .68-1.353 2.758 2.758 0 0 1 1.751-.534 2.6 2.6 0 0 1 1.8.605 1.8 1.8 0 0 1 .656 1.45l-.01.029h-1.087a1.1 1.1 0 0 0-.355-.847 1.447 1.447 0 0 0-1.012-.325c-.34-.02-.677.077-.954.275a.86.86 0 0 0-.333.698.764.764 0 0 0 .361.644c.371.225.776.389 1.198.485a3.968 3.968 0 0 1 1.665.813c.376.334.585.817.57 1.32a1.594 1.594 0 0 1-.678 1.35 2.933 2.933 0 0 1-1.788.502 3.162 3.162 0 0 1-1.866-.566 1.74 1.74 0 0 1-.778-1.547l.01-.03h1.091a1.06 1.06 0 0 0 .43.928c.331.216.721.322 1.116.305.345.02.688-.068.98-.253a.803.803 0 0 0 .347-.697zM442.167 166.753v1.228h.905v.84h-.905v2.792a.608.608 0 0 0 .138.445.494.494 0 0 0 .36.138 1.038 1.038 0 0 0 .35-.061l.121.825a1.331 1.331 0 0 1-.345.124c-.135.03-.274.044-.412.044a1.298 1.298 0 0 1-.98-.367 1.6 1.6 0 0 1-.355-1.151v-2.789h-.77v-.84h.77v-1.228h1.123zM447.118 173.031a3.61 3.61 0 0 1-.1-.372 2.613 2.613 0 0 1-.054-.364 2 2 0 0 1-.613.595c-.255.158-.55.24-.851.235a1.679 1.679 0 0 1-1.21-.406 1.475 1.475 0 0 1-.424-1.116 1.319 1.319 0 0 1 .58-1.141 2.791 2.791 0 0 1 1.629-.413h.882v-.443a.825.825 0 0 0-.233-.62.92.92 0 0 0-.667-.224.946.946 0 0 0-.616.187.593.593 0 0 0-.228.481h-1.092v-.029c-.011-.42.19-.819.535-1.06a2.267 2.267 0 0 1 1.476-.462 2.163 2.163 0 0 1 1.424.447c.371.322.572.8.541 1.29v2.245c0 .201.014.401.043.6.028.191.074.38.137.562l-1.159.008zm-1.391-.812c.273.004.541-.07.773-.215.2-.11.359-.282.455-.49v-.746h-.905a1.134 1.134 0 0 0-.774.246.743.743 0 0 0-.275.576.589.589 0 0 0 .188.46.777.777 0 0 0 .538.169zM450.92 170.823h-.509v2.207h-1.128v-7.28h1.128v4.162h.474l1.273-1.932h1.335l-1.665 2.296 1.914 2.75h-1.317zM456.35 173.125a2.2 2.2 0 0 1-1.71-.703 2.58 2.58 0 0 1-.638-1.804v-.187a2.68 2.68 0 0 1 .632-1.827c.39-.469.974-.734 1.584-.72a1.972 1.972 0 0 1 1.566.617c.384.465.58 1.057.55 1.66v.666h-3.15l-.01.024c.004.358.128.704.354.982.225.258.556.398.898.38.265.006.53-.032.784-.111.223-.078.435-.186.63-.322l.364.744c-.224.189-.48.334-.757.428-.352.122-.724.18-1.097.173zm-.137-4.33a.848.848 0 0 0-.688.333c-.19.245-.306.538-.335.847l.01.023h2.001v-.117a1.209 1.209 0 0 0-.246-.783.895.895 0 0 0-.737-.299l-.005-.004zM460.488 168.942h-1.13v-1.087h1.13v1.087zm0 4.09h-1.13v-1.088h1.13v1.088zM471.998 164.295v5.795a2.775 2.775 0 0 1-.972 2.27c-.728.557-1.63.84-2.546.797a3.839 3.839 0 0 1-2.53-.798 2.784 2.784 0 0 1-.962-2.269v-5.795h1.759v5.791c-.038.477.13.947.462 1.291.352.303.808.456 1.271.43.469.026.93-.126 1.29-.427.335-.344.506-.815.468-1.294v-5.791h1.76zM478.243 170.75c.011-.31-.12-.608-.358-.81a3.61 3.61 0 0 0-1.25-.576 7.15 7.15 0 0 1-2.359-1.068 2.024 2.024 0 0 1-.798-1.691c-.007-.701.336-1.36.915-1.755a3.816 3.816 0 0 1 2.337-.687 3.517 3.517 0 0 1 2.346.764c.578.453.904 1.155.877 1.888l-.012.036h-1.698a1.275 1.275 0 0 0-.404-.982 1.616 1.616 0 0 0-1.137-.374 1.678 1.678 0 0 0-1.087.312.982.982 0 0 0-.383.798.855.855 0 0 0 .412.728c.443.266.92.469 1.42.604.8.186 1.547.548 2.19 1.06.494.438.767 1.075.743 1.735a2.078 2.078 0 0 1-.885 1.77 3.866 3.866 0 0 1-2.338.65 4.263 4.263 0 0 1-2.49-.736 2.292 2.292 0 0 1-1.032-2.063l.012-.034h1.704c-.036.435.142.861.477 1.142.391.264.858.391 1.33.363.386.026.77-.078 1.093-.294a.946.946 0 0 0 .375-.78zM481.322 173.031v-8.736h3a3.607 3.607 0 0 1 2.64 1.021 3.525 3.525 0 0 1 1.038 2.627v1.445a3.513 3.513 0 0 1-1.038 2.626 3.614 3.614 0 0 1-2.64 1.016l-3 .001zm1.751-7.386v6.038h1.158a1.822 1.822 0 0 0 1.475-.637c.373-.47.563-1.06.535-1.66v-1.457a2.475 2.475 0 0 0-.535-1.65 1.825 1.825 0 0 0-1.475-.635l-1.158.001zM497.918 166.61c.007.413-.114.818-.345 1.16-.24.343-.568.614-.95.784a2.58 2.58 0 0 1 1.1.84c.266.361.407.8.401 1.248.04.717-.267 1.41-.825 1.863a3.894 3.894 0 0 1-4.312 0 2.233 2.233 0 0 1-.825-1.863 2.054 2.054 0 0 1 .399-1.25 2.586 2.586 0 0 1 1.1-.843 2.287 2.287 0 0 1-.954-.782 2 2 0 0 1-.341-1.157 2.223 2.223 0 0 1 .761-1.802 3.48 3.48 0 0 1 4.02 0c.524.448.808 1.114.77 1.802zm-1.543 3.91a1.292 1.292 0 0 0-.342-.941 1.18 1.18 0 0 0-.889-.353 1.16 1.16 0 0 0-.885.353c-.23.258-.35.595-.333.94-.02.347.101.687.336.944.236.234.56.359.893.343.33.014.65-.112.883-.346.234-.256.355-.595.337-.94zm-.198-3.831a1.254 1.254 0 0 0-.275-.85.95.95 0 0 0-.753-.32.932.932 0 0 0-.75.314 1.262 1.262 0 0 0-.275.856c-.016.312.081.62.275.866a.94.94 0 0 0 .76.32.925.925 0 0 0 .746-.32c.191-.247.286-.555.268-.866h.004zM501.284 173.031h-1.746v-1.535h1.751zM506.799 173.031h-1.752v-7.194h-1.776V164.6l3.528-.312zM513.4 164.168c.306-.002.61.029.91.092.286.066.566.158.835.275l-.312 1.286a6.628 6.628 0 0 0-.705-.208 3.35 3.35 0 0 0-.717-.068 1.565 1.565 0 0 0-1.283.598 2.426 2.426 0 0 0-.445 1.65l.018.029c.21-.213.463-.377.744-.48.324-.121.667-.18 1.013-.175a2.214 2.214 0 0 1 1.833.825 3.29 3.29 0 0 1 .663 2.122 3.025 3.025 0 0 1-.825 2.178 2.798 2.798 0 0 1-2.12.858 2.933 2.933 0 0 1-2.258-.94 3.678 3.678 0 0 1-.87-2.602v-1.704a3.736 3.736 0 0 1 .99-2.73 3.371 3.371 0 0 1 2.53-1.006zm-.403 4.326a1.969 1.969 0 0 0-.825.155c-.211.091-.395.238-.529.425v.582c-.034.556.096 1.11.375 1.594.213.347.593.556 1 .55a.994.994 0 0 0 .866-.494c.226-.356.34-.772.327-1.194a1.936 1.936 0 0 0-.33-1.174 1.04 1.04 0 0 0-.884-.443v-.001zM440.796 237.887h-.852l-3.04-4.88-.025.009v4.871h-.854v-6.31h.854l3.037 4.87.028-.007v-4.862h.852zM444.143 237.981a1.98 1.98 0 0 1-1.56-.653 2.456 2.456 0 0 1-.577-1.691v-.191a2.402 2.402 0 0 1 .596-1.667c.348-.42.865-.664 1.41-.666a1.775 1.775 0 0 1 1.434.572c.342.433.515.975.487 1.525v.534h-3.046l-.013.023c-.008.397.112.785.342 1.108a1.1 1.1 0 0 0 .924.435c.259.005.517-.037.76-.124.209-.077.4-.192.566-.34l.334.55c-.192.18-.417.32-.663.412-.317.12-.655.18-.994.173zm-.13-4.195a.927.927 0 0 0-.734.36c-.21.259-.339.573-.372.905l.008.022h2.163v-.112a1.304 1.304 0 0 0-.275-.837.963.963 0 0 0-.79-.338zM448.018 232.07v1.13h.888v.633h-.888v2.847a.644.644 0 0 0 .137.464.494.494 0 0 0 .363.137 1.075 1.075 0 0 0 .32-.06l.113.584a.76.76 0 0 1-.275.13 1.45 1.45 0 0 1-.371.049 1.1 1.1 0 0 1-.825-.315 1.364 1.364 0 0 1-.308-.986v-2.848h-.745v-.632h.745v-1.13l.846-.003zM456.159 235.722a2.586 2.586 0 0 1-.485 1.636c-.32.412-.82.644-1.341.622-.26.005-.52-.044-.76-.145a1.463 1.463 0 0 1-.557-.436v2.294h-.853V233.2h.655l.137.607c.144-.218.341-.395.572-.516.248-.123.521-.185.798-.179a1.56 1.56 0 0 1 1.353.688c.346.544.515 1.183.484 1.827l-.003.095zm-.854-.092a2.475 2.475 0 0 0-.315-1.31 1.016 1.016 0 0 0-.925-.512 1.137 1.137 0 0 0-.628.166 1.254 1.254 0 0 0-.421.457v2.263c.099.184.244.34.42.452.194.113.415.17.639.163.362.02.709-.148.918-.445.22-.339.33-.739.312-1.144v-.09zM459.427 233.955l-.437-.028a.972.972 0 0 0-.57.161c-.16.113-.284.269-.358.45v3.35h-.853v-4.69h.764l.082.688c.117-.225.285-.42.491-.568.198-.136.433-.207.674-.203.11.001.219.017.324.048l-.117.792zM459.965 235.502a2.58 2.58 0 0 1 .564-1.715 2.086 2.086 0 0 1 3.069 0c.39.485.59 1.095.565 1.716v.095a2.57 2.57 0 0 1-.563 1.716 2.097 2.097 0 0 1-3.07 0 2.562 2.562 0 0 1-.565-1.713v-.1zm.854.092c-.017.432.092.86.315 1.23a1.136 1.136 0 0 0 1.861 0c.224-.37.334-.798.317-1.23v-.095a2.192 2.192 0 0 0-.32-1.225c-.2-.32-.556-.506-.933-.488a1.03 1.03 0 0 0-.925.488c-.222.37-.33.795-.315 1.225v.095zM465.564 237.887v-4.056h-.732v-.632h.732v-.594c-.027-.424.114-.84.392-1.16a1.446 1.446 0 0 1 1.1-.413c.1 0 .199.008.297.024.099.017.21.039.331.068l-.103.65a1.652 1.652 0 0 0-.19-.029 1.826 1.826 0 0 0-.23-.013.672.672 0 0 0-.55.222 1.001 1.001 0 0 0-.183.65v.593h.974v.633h-.974v4.056l-.864.001zM469.195 232h-.853v-.872h.853V232zm0 5.889h-.853V233.2h.853v4.689zM471.636 232.07v1.13h.888v.633h-.888v2.847a.644.644 0 0 0 .137.464.494.494 0 0 0 .363.137 1.075 1.075 0 0 0 .32-.06l.114.584a.76.76 0 0 1-.275.13 1.45 1.45 0 0 1-.372.049 1.1 1.1 0 0 1-.825-.315 1.364 1.364 0 0 1-.308-.986v-2.848h-.745v-.632h.745v-1.13l.846-.003zM474.512 234.094h-.852v-.881h.852v.88zm0 3.796h-.852v-.884h.852v.884zM482.794 231.58v4.277a1.917 1.917 0 0 1-.67 1.577c-.5.383-1.118.578-1.747.55a2.526 2.526 0 0 1-1.689-.55 1.951 1.951 0 0 1-.649-1.576v-4.276h.854v4.273c-.027.405.123.801.413 1.085.297.257.681.39 1.074.371.41.02.813-.112 1.133-.37.3-.279.458-.678.43-1.086v-4.273l.851-.002zM487.626 236.3a.93.93 0 0 0-.325-.721 2.75 2.75 0 0 0-1.152-.488 3.825 3.825 0 0 1-1.563-.704 1.458 1.458 0 0 1-.561-1.169 1.53 1.53 0 0 1 .605-1.237 2.39 2.39 0 0 1 1.566-.495 2.338 2.338 0 0 1 1.65.567c.387.327.604.812.592 1.318l-.01.026h-.813a1.171 1.171 0 0 0-.367-.897 1.788 1.788 0 0 0-2.03-.053.942.942 0 0 0-.34.752c0 .276.139.534.37.687.364.235.77.399 1.195.484a3.416 3.416 0 0 1 1.513.729c.339.302.528.737.52 1.19.01.488-.224.95-.625 1.227a2.657 2.657 0 0 1-1.629.465 2.819 2.819 0 0 1-1.67-.514 1.545 1.545 0 0 1-.706-1.375l.01-.028h.814c-.02.365.148.714.446.924.325.219.71.33 1.1.316.362.019.72-.077 1.022-.274a.855.855 0 0 0 .388-.73zM489.724 237.887v-6.31h1.938a2.59 2.59 0 0 1 2.737 2.726v.862a2.585 2.585 0 0 1-2.738 2.721l-1.937.001zm.854-5.637v4.966h1.084a1.742 1.742 0 0 0 1.375-.576c.346-.412.525-.938.504-1.476v-.87a2.15 2.15 0 0 0-.505-1.468 1.742 1.742 0 0 0-1.375-.576h-1.083zM499.95 237.887h-.854v-5.476l-1.291.016v-.614l2.146-.234zM503.543 237.887h-.853v-.884h.853zM508.75 233.226a1.4 1.4 0 0 1-.275.865c-.193.25-.452.442-.75.55.343.112.646.32.874.598.216.265.332.599.327.94a1.62 1.62 0 0 1-.57 1.339 2.622 2.622 0 0 1-2.973 0 1.628 1.628 0 0 1-.565-1.338 1.48 1.48 0 0 1 .32-.94c.224-.28.526-.489.868-.599a1.6 1.6 0 0 1-.742-.55 1.427 1.427 0 0 1-.275-.865c-.03-.483.159-.955.513-1.285.381-.315.865-.476 1.359-.453.493-.02.976.14 1.358.453.363.325.559.798.531 1.285zm-.676 2.937c.01-.32-.114-.629-.343-.852a1.194 1.194 0 0 0-.866-.333 1.139 1.139 0 0 0-1.196 1.185c-.017.315.103.62.328.84.51.41 1.235.41 1.744 0 .223-.22.34-.526.322-.84h.01zm-.178-2.919a1.08 1.08 0 0 0-.293-.774 1.05 1.05 0 0 0-1.475-.012 1.1 1.1 0 0 0-.282.786c-.013.286.09.564.285.773a1.089 1.089 0 0 0 1.48 0c.194-.209.295-.488.28-.773h.005zM513.288 235.767h.871v.671h-.871v1.45h-.85v-1.453h-2.835v-.472l2.781-4.377h.9l.004 4.181zm-2.775 0h1.925V232.8h-.026l-.083.216-1.816 2.751zM518.375 238.575h-.925v-6.795h.925zM523.108 235.155v2.732h-.854v-6.305h2.284a2.398 2.398 0 0 1 1.581.459c.379.337.581.83.55 1.335.007.302-.082.598-.253.846-.19.255-.445.452-.74.572.31.084.576.28.748.55.161.286.24.61.229.939v.594c-.003.178.02.356.064.53a.792.792 0 0 0 .226.38v.103h-.88a.71.71 0 0 1-.218-.433 3.677 3.677 0 0 1-.046-.59v-.576c.014-.304-.094-.6-.3-.825a1.056 1.056 0 0 0-.802-.312l-1.59.001zm0-.672h1.343c.369.033.738-.065 1.042-.275.227-.217.344-.524.32-.837a1.075 1.075 0 0 0-.311-.825 1.367 1.367 0 0 0-.963-.293h-1.43l-.001 2.23zM529.925 237.981a1.98 1.98 0 0 1-1.56-.653 2.456 2.456 0 0 1-.577-1.691v-.191a2.402 2.402 0 0 1 .596-1.667c.348-.42.865-.664 1.41-.666a1.775 1.775 0 0 1 1.435.572c.34.433.514.975.486 1.525v.534h-3.043l-.013.023c-.008.397.112.785.342 1.108a1.1 1.1 0 0 0 .924.435c.259.005.516-.037.76-.124.209-.077.4-.192.566-.34l.334.55c-.192.18-.417.32-.663.412-.318.12-.657.18-.997.173zm-.13-4.195a.927.927 0 0 0-.733.36c-.21.259-.34.573-.373.905l.008.022h2.163v-.112a1.304 1.304 0 0 0-.275-.837.963.963 0 0 0-.798-.338h.007zM533.796 232.07v1.13h.888v.633h-.888v2.847a.644.644 0 0 0 .137.464.494.494 0 0 0 .363.137 1.075 1.075 0 0 0 .32-.06l.113.584a.76.76 0 0 1-.275.13 1.45 1.45 0 0 1-.371.049 1.1 1.1 0 0 1-.825-.315 1.364 1.364 0 0 1-.308-.986v-2.848h-.745v-.632h.745v-1.13l.846-.003zM538.714 237.2c-.136.24-.332.44-.568.58-.244.14-.52.21-.801.204a1.513 1.513 0 0 1-1.197-.49 2.274 2.274 0 0 1-.429-1.525v-2.765h.853v2.774c-.035.358.042.72.221 1.032a.825.825 0 0 0 .688.275c.263.011.523-.053.752-.184.199-.124.355-.307.448-.523v-3.38h.854v4.69h-.767l-.054-.688zM543 233.955l-.437-.028a.972.972 0 0 0-.57.161c-.16.113-.284.269-.359.45v3.35h-.852v-4.69h.763l.083.688c.117-.225.285-.42.49-.568.198-.136.434-.207.674-.203.11.001.22.017.325.048l-.117.792zM544.587 233.2l.06.699c.145-.239.347-.437.587-.58.245-.139.523-.21.805-.206.437-.026.864.136 1.174.445.307.389.455.88.412 1.375v2.954h-.854v-2.942a1.27 1.27 0 0 0-.244-.881.982.982 0 0 0-.748-.259 1.199 1.199 0 0 0-.652.177c-.191.12-.347.288-.454.487v3.418h-.852V233.2l.766.001zM555.057 237.887h-4.095v-.59l2.063-2.291c.285-.3.538-.63.752-.985.128-.228.196-.484.198-.745a1.181 1.181 0 0 0-.275-.795.913.913 0 0 0-.73-.323 1.255 1.255 0 0 0-.962.335c-.221.263-.332.601-.311.944h-.818l-.01-.026a1.78 1.78 0 0 1 .542-1.375 2.13 2.13 0 0 1 1.56-.55c.5-.026.99.154 1.355.496.337.332.52.79.504 1.262a2.014 2.014 0 0 1-.306 1.034c-.245.4-.532.773-.856 1.113l-1.66 1.804.01.022h3.034l.005.67zM557.132 234.341h.745a.994.994 0 0 0 .805-.284c.17-.228.253-.508.236-.79a1.15 1.15 0 0 0-.275-.826 1.046 1.046 0 0 0-.793-.282 1.1 1.1 0 0 0-.799.293 1.034 1.034 0 0 0-.303.778h-.825l-.008-.027c-.02-.463.17-.91.519-1.216a1.988 1.988 0 0 1 1.409-.5 2.013 2.013 0 0 1 1.396.466c.361.344.552.83.52 1.328a1.512 1.512 0 0 1-.944 1.375c.331.09.618.298.804.586.412.738.277 1.66-.328 2.25-.404.338-.92.514-1.447.493a2.172 2.172 0 0 1-1.427-.466 1.492 1.492 0 0 1-.55-1.264l.013-.026h.815c-.014.295.097.582.306.79.23.205.53.311.838.294.31.018.616-.088.85-.294.22-.234.331-.549.308-.868a.985.985 0 0 0-1.136-1.136h-.745l.016-.674zM560.898 232.8c-.009-.344.119-.678.355-.928a1.386 1.386 0 0 1 1.899 0c.237.25.365.586.356.93v.334c.009.342-.118.674-.353.924-.247.253-.59.388-.944.372-.359.019-.71-.117-.962-.372a1.283 1.283 0 0 1-.358-.924l.007-.336zm.633.333a.847.847 0 0 0 .176.55c.122.151.31.234.504.222.189.01.37-.072.488-.22a.86.86 0 0 0 .174-.55v-.335a.872.872 0 0 0-.175-.55.659.659 0 0 0-.995 0 .88.88 0 0 0-.174.55l.002.333zm.9 4.286l-.473-.29 3.082-4.933.473.29-3.082 4.933zm1.521-1.07c-.01-.344.12-.677.356-.925.534-.5 1.363-.5 1.896 0 .238.248.367.581.358.925v.338c.01.344-.118.678-.356.927a1.238 1.238 0 0 1-.94.373c-.36.018-.71-.118-.963-.373a1.288 1.288 0 0 1-.358-.927l.007-.338zm.633.338a.86.86 0 0 0 .176.55c.122.152.31.235.504.223.19.01.372-.074.49-.223a.868.868 0 0 0 .173-.55v-.338a.851.851 0 0 0-.179-.55.656.656 0 0 0-.99 0 .865.865 0 0 0-.176.55l.002.338zM538.263 170.455v2.576h-1.133v-6.795h2.655c.64-.037 1.27.171 1.762.582a2.156 2.156 0 0 1 0 3.062 2.529 2.529 0 0 1-1.762.576l-1.522-.001zm0-.91h1.52c.35.027.694-.095.948-.336.214-.232.328-.539.316-.854a1.144 1.144 0 0 0-1.265-1.208h-1.52l.001 2.399zM546.15 173.031a3.61 3.61 0 0 1-.1-.372 2.613 2.613 0 0 1-.054-.364 2 2 0 0 1-.613.595c-.255.16-.551.244-.853.24a1.679 1.679 0 0 1-1.21-.405 1.475 1.475 0 0 1-.423-1.117 1.319 1.319 0 0 1 .579-1.14 2.791 2.791 0 0 1 1.629-.413h.883v-.443a.825.825 0 0 0-.234-.62.92.92 0 0 0-.667-.224.946.946 0 0 0-.616.187.593.593 0 0 0-.228.48h-1.092v-.028c-.011-.42.19-.82.535-1.06a2.267 2.267 0 0 1 1.477-.462 2.163 2.163 0 0 1 1.423.447c.372.322.572.799.542 1.29v2.245c0 .2.013.4.042.6.029.19.075.379.138.562l-1.158.002zm-1.391-.812c.272.004.54-.07.772-.215.2-.11.36-.282.455-.49v-.746h-.9a1.134 1.134 0 0 0-.774.246.743.743 0 0 0-.275.576.589.589 0 0 0 .188.46c.15.12.339.18.53.169h.004zM549.908 171.006l.111.503h.03l1.1-3.528h1.237l-2.092 5.815a2.62 2.62 0 0 1-.563.9 1.375 1.375 0 0 1-1.033.373c-.101 0-.202-.01-.301-.029-.108-.019-.21-.04-.311-.066l.126-.877.174.014c.074 0 .13.01.168.01a.62.62 0 0 0 .49-.21c.127-.144.23-.309.303-.486l.187-.457-1.834-4.99h1.237l.97 3.028zM552.791 170.46a2.75 2.75 0 0 1 .616-1.848 2.357 2.357 0 0 1 3.4 0c.427.519.648 1.177.62 1.848v.098a2.742 2.742 0 0 1-.62 1.858 2.373 2.373 0 0 1-3.4 0 2.75 2.75 0 0 1-.616-1.854v-.102zm1.135.095c-.018.42.082.837.29 1.203a1.092 1.092 0 0 0 1.787 0c.214-.364.318-.781.3-1.203v-.097a2.161 2.161 0 0 0-.3-1.189 1.08 1.08 0 0 0-1.787 0 2.233 2.233 0 0 0-.29 1.189v.097zM561.56 172.3a1.715 1.715 0 0 1-.601.617 1.787 1.787 0 0 1-2.11-.3 2.386 2.386 0 0 1-.456-1.61v-3.026h1.129v3.025c-.03.325.044.651.214.93a.782.782 0 0 0 .65.265c.237.008.473-.043.687-.147.184-.097.335-.246.436-.428v-3.649h1.134v5.05h-.99l-.093-.727zM565.24 166.753v1.228h.904v.84h-.905v2.792a.608.608 0 0 0 .138.445.494.494 0 0 0 .36.138 1.038 1.038 0 0 0 .35-.061l.121.825a1.331 1.331 0 0 1-.345.124c-.135.03-.273.044-.412.044a1.298 1.298 0 0 1-.98-.367 1.6 1.6 0 0 1-.355-1.151v-2.789h-.77v-.84h.77v-1.228h1.123zM568.399 168.942h-1.129v-1.087h1.129v1.087zm0 4.09h-1.129v-1.088h1.129v1.088zM579.906 164.295v5.795a2.775 2.775 0 0 1-.972 2.27c-.727.557-1.63.84-2.545.797a3.839 3.839 0 0 1-2.53-.798 2.784 2.784 0 0 1-.963-2.269v-5.795h1.76v5.791c-.038.477.13.947.461 1.291.353.303.809.456 1.272.43.468.026.93-.126 1.29-.427.335-.344.505-.815.467-1.294v-5.791h1.76zM586.152 170.75c.01-.31-.121-.608-.358-.81a3.61 3.61 0 0 0-1.25-.576 7.15 7.15 0 0 1-2.36-1.068 2.024 2.024 0 0 1-.797-1.691c-.007-.701.336-1.36.915-1.755a3.816 3.816 0 0 1 2.337-.687 3.517 3.517 0 0 1 2.346.764c.578.453.904 1.155.877 1.888l-.012.036h-1.698a1.275 1.275 0 0 0-.405-.982 1.616 1.616 0 0 0-1.137-.374 1.678 1.678 0 0 0-1.086.312.982.982 0 0 0-.384.798.855.855 0 0 0 .413.728c.443.266.92.469 1.419.604.8.186 1.548.548 2.19 1.06.495.438.768 1.075.744 1.735a2.078 2.078 0 0 1-.885 1.77 3.866 3.866 0 0 1-2.338.65 4.263 4.263 0 0 1-2.49-.736 2.292 2.292 0 0 1-1.033-2.063l.013-.034h1.703c-.036.435.142.861.477 1.142.392.264.859.391 1.33.363.387.026.771-.078 1.093-.294a.946.946 0 0 0 .376-.78zM589.23 173.031v-8.736h3a3.607 3.607 0 0 1 2.64 1.021 3.525 3.525 0 0 1 1.038 2.627v1.445a3.513 3.513 0 0 1-1.038 2.626 3.614 3.614 0 0 1-2.64 1.016l-3 .001zm1.752-7.386v6.038h1.158a1.822 1.822 0 0 0 1.475-.637c.372-.47.562-1.06.535-1.66v-1.457a2.475 2.475 0 0 0-.535-1.65 1.825 1.825 0 0 0-1.475-.635l-1.158.001zM604.082 173.031h-1.752v-7.194h-1.777V164.6l3.529-.312zM613.058 169.628a3.85 3.85 0 0 1-.795 2.632 3.046 3.046 0 0 1-4.318 0 3.85 3.85 0 0 1-.797-2.632v-1.925a3.868 3.868 0 0 1 .794-2.631 3.025 3.025 0 0 1 4.315 0 3.85 3.85 0 0 1 .8 2.631v1.925zm-1.747-2.107a2.861 2.861 0 0 0-.313-1.513 1.08 1.08 0 0 0-1.8 0c-.238.47-.344.996-.307 1.522v2.272c-.038.53.07 1.06.31 1.534.193.313.54.497.909.48a.995.995 0 0 0 .893-.48 2.943 2.943 0 0 0 .307-1.534l.001-2.281zM616.245 173.031h-1.758v-1.535h1.752zM623.685 169.628a3.85 3.85 0 0 1-.795 2.632 3.046 3.046 0 0 1-4.317 0 3.85 3.85 0 0 1-.798-2.632v-1.925a3.868 3.868 0 0 1 .795-2.631 3.025 3.025 0 0 1 4.315 0 3.85 3.85 0 0 1 .8 2.631v1.925zm-1.746-2.107a2.861 2.861 0 0 0-.314-1.513 1.08 1.08 0 0 0-1.8 0c-.238.47-.344.996-.306 1.522v2.272c-.039.53.068 1.06.309 1.534.193.313.541.497.909.48a.995.995 0 0 0 .894-.48 2.943 2.943 0 0 0 .306-1.534l.002-2.281zM630.736 169.628a3.85 3.85 0 0 1-.795 2.632 3.046 3.046 0 0 1-4.317 0 3.85 3.85 0 0 1-.798-2.632v-1.925a3.868 3.868 0 0 1 .795-2.631 3.025 3.025 0 0 1 4.315 0 3.85 3.85 0 0 1 .8 2.631v1.925zm-1.746-2.107a2.861 2.861 0 0 0-.314-1.513 1.08 1.08 0 0 0-1.8 0c-.238.47-.344.996-.306 1.522v2.272c-.039.53.068 1.06.309 1.534.193.313.541.497.909.48a.995.995 0 0 0 .894-.48 2.943 2.943 0 0 0 .306-1.534l.002-2.281z" fill="#000" fill-rule="nonzero"/><path fill="#29A9E1" fill-rule="nonzero" d="M387.848 167.078h-7.563l3.681 6.974zM391.935 163.126l-1.557 2.8h2.449z"/><path fill="#29A9E1" fill-rule="nonzero" d="M379.065 164.765l.612 1.16h8.811l1.9-3.412-2.881.917 1.07-2.072 4.11-1.308 1.339 4.202-.867 1.673h3.197v-6.97h-24.75v6.97h6.817zM383.928 177.514l-.55-1.042h-11.772v7.234h24.75v-7.234h-11.85zM396.356 167.078h-6.62l-4.593 8.251h11.213zM379.031 168.238l-2.744 4.967h-3.58v-1.65h2.606l2.474-4.477h-6.18v8.251h11.167z"/><g><g transform="translate(148.486 22.629)"><rect fill="#C03" width="37.514" height="12.857" rx="2.05"/><path d="M4.874 6.686c-.155.185-.34.333-.556.446a1.508 1.508 0 0 1-.709.168c-.337 0-.63-.083-.881-.249a1.62 1.62 0 0 1-.58-.7 2.392 2.392 0 0 1-.205-1c0-.39.074-.743.223-1.056.149-.313.36-.553.632-.72.273-.165.592-.248.956-.248.578 0 1.034.216 1.367.649.333.432.5 1.022.5 1.77v.216c0 1.139-.225 1.97-.675 2.494-.45.523-1.128.792-2.035.805h-.145v-.627h.157c.613-.01 1.084-.17 1.413-.48.33-.31.508-.799.538-1.468zm-1.144 0c.249 0 .478-.077.688-.23a1.35 1.35 0 0 0 .46-.566v-.297c0-.488-.106-.884-.317-1.19-.212-.305-.48-.457-.803-.457a.953.953 0 0 0-.787.375c-.198.25-.297.58-.297.99 0 .4.096.729.287.987a.909.909 0 0 0 .769.388zm3.994-.715h.558c.351-.006.627-.098.827-.278.201-.18.302-.422.302-.727 0-.686-.342-1.029-1.024-1.029-.321 0-.578.092-.769.276-.191.183-.287.426-.287.729h-.743c0-.463.17-.848.508-1.155.339-.307.769-.46 1.29-.46.552 0 .984.146 1.298.438.313.292.47.697.47 1.217 0 .255-.083.501-.248.74a1.491 1.491 0 0 1-.672.534c.321.102.57.27.745.506.175.236.263.524.263.864 0 .525-.172.941-.514 1.25-.343.307-.788.462-1.337.462-.549 0-.995-.15-1.34-.446-.343-.298-.515-.69-.515-1.178h.747c0 .308.1.555.3.74.202.184.47.277.808.277.358 0 .633-.094.823-.281.19-.188.285-.457.285-.808 0-.34-.104-.601-.313-.784-.209-.182-.51-.275-.904-.28h-.558V5.97zm4.617 0h.558c.351-.006.627-.098.827-.278.201-.18.302-.422.302-.727 0-.686-.342-1.029-1.024-1.029-.321 0-.578.092-.769.276-.191.183-.287.426-.287.729h-.743c0-.463.17-.848.508-1.155.339-.307.769-.46 1.29-.46.552 0 .984.146 1.298.438.313.292.47.697.47 1.217 0 .255-.083.501-.248.74a1.491 1.491 0 0 1-.672.534c.321.102.57.27.745.506.175.236.263.524.263.864 0 .525-.172.941-.514 1.25-.343.307-.789.462-1.337.462-.549 0-.995-.15-1.34-.446-.343-.298-.515-.69-.515-1.178h.747c0 .308.1.555.3.74.202.184.47.277.808.277.358 0 .633-.094.823-.281.19-.188.285-.457.285-.808 0-.34-.104-.601-.313-.784-.209-.182-.51-.275-.904-.28h-.558V5.97zm7.367 3.286h-3.83v-.534l2.024-2.25c.3-.34.506-.617.62-.83.114-.213.17-.433.17-.66 0-.306-.092-.557-.276-.752-.185-.196-.431-.293-.739-.293-.37 0-.656.105-.861.315-.205.21-.307.503-.307.878h-.743c0-.539.173-.974.52-1.306.346-.332.81-.498 1.391-.498.543 0 .973.142 1.289.428.316.285.473.665.473 1.139 0 .576-.366 1.261-1.1 2.057l-1.565 1.7h2.934v.606zm.88-.39c0-.128.038-.235.114-.321.076-.086.19-.129.343-.129.153 0 .269.043.348.129a.456.456 0 0 1 .118.321c0 .124-.04.227-.118.31-.08.083-.195.124-.348.124-.152 0-.267-.041-.343-.124a.44.44 0 0 1-.114-.31zm5.207-1.575h.81V7.9h-.81v1.358h-.747V7.9h-2.662v-.438l2.618-4.054h.79v3.885zm-2.566 0h1.82V4.424l-.09.16-1.73 2.708zm4.389-.968l.297-2.917h2.995v.687h-2.365l-.177 1.595c.287-.168.612-.253.976-.253.532 0 .955.176 1.269.529.313.352.47.828.47 1.428 0 .603-.163 1.077-.489 1.424-.325.347-.78.52-1.363.52-.516 0-.938-.143-1.264-.43-.327-.286-.513-.682-.558-1.189h.702c.046.335.165.588.358.758.192.17.447.255.762.255.346 0 .617-.118.813-.354.197-.235.296-.56.296-.976 0-.391-.107-.705-.32-.942-.212-.237-.495-.356-.849-.356-.324 0-.578.071-.763.213l-.196.16-.594-.152zm4.616 0l.298-2.917h2.995v.687h-2.365l-.177 1.595c.287-.168.612-.253.976-.253.532 0 .955.176 1.268.529.314.352.47.828.47 1.428 0 .603-.162 1.077-.488 1.424-.325.347-.78.52-1.363.52-.516 0-.938-.143-1.264-.43-.327-.286-.513-.682-.558-1.189h.702c.046.335.165.588.358.758.192.17.447.255.762.255.346 0 .617-.118.813-.354.197-.235.295-.56.295-.976 0-.391-.106-.705-.319-.942-.212-.237-.496-.356-.849-.356-.324 0-.578.071-.763.213l-.196.16-.595-.152z" fill="#FFF"/></g><g transform="translate(1)"><path d="M9.972 26.712h-2.83l-.593 1.702H5.23l2.76-7.312h1.14l2.765 7.312h-1.325l-.597-1.702zm-2.474-1.025h2.117l-1.059-3.033-1.058 3.033zm10.568-4.585v4.887c0 .776-.248 1.392-.745 1.845-.497.454-1.158.68-1.985.68-.836 0-1.5-.223-1.992-.67-.492-.447-.738-1.067-.738-1.86v-4.882h1.265v4.892c0 .488.124.862.371 1.12.248.257.613.386 1.094.386.977 0 1.466-.515 1.466-1.547v-4.851h1.264zm1.355 7.312v-7.312h2.158c.646 0 1.219.144 1.72.432.5.288.887.696 1.16 1.225.275.53.412 1.135.412 1.818v.367c0 .693-.138 1.302-.414 1.828-.276.526-.669.93-1.179 1.215-.51.285-1.095.427-1.754.427h-2.103zm1.27-6.288V27.4h.828c.666 0 1.177-.209 1.533-.626.357-.416.538-1.015.545-1.795v-.407c0-.793-.173-1.4-.517-1.818-.345-.418-.845-.628-1.5-.628h-.889zm5.67 6.916h-.958l2.876-7.94h.958l-2.875 7.94zm6.831-7.94h1.265v5.128c0 .7-.219 1.255-.655 1.667-.437.412-1.013.618-1.73.618-.762 0-1.35-.193-1.766-.578-.414-.385-.622-.92-.622-1.607h1.265c0 .388.096.68.288.876.193.196.471.294.836.294.341 0 .613-.113.815-.339.203-.226.304-.538.304-.936v-5.123zm3.985 4.595v2.717h-1.27v-7.312h2.795c.817 0 1.465.212 1.945.638.48.425.72.987.72 1.687 0 .717-.235 1.274-.705 1.673-.47.398-1.128.597-1.975.597h-1.51zm0-1.02h1.525c.452 0 .797-.106 1.034-.318.238-.213.356-.52.356-.922 0-.395-.12-.71-.361-.947-.24-.236-.572-.357-.994-.364h-1.56v2.552zm7.683-.11l1.681-3.465h1.405l-2.449 4.62v2.692h-1.274v-2.692l-2.454-4.62h1.41l1.68 3.465zM9.163 10.34H6.774v2.517H5.742V6.916h3.772v.832h-2.74v1.767h2.39v.824zm.885.269c0-.433.086-.823.257-1.17.171-.346.412-.613.722-.8.31-.186.666-.279 1.068-.279.595 0 1.079.192 1.45.576.37.383.571.892.601 1.526l.004.232c0 .436-.083.825-.25 1.167a1.854 1.854 0 0 1-.718.796c-.312.188-.671.282-1.079.282-.622 0-1.12-.208-1.494-.623-.374-.414-.56-.967-.56-1.658v-.05zm.991.085c0 .455.094.81.281 1.067a.914.914 0 0 0 .783.386c.335 0 .595-.13.781-.392.186-.26.28-.643.28-1.146 0-.446-.096-.8-.288-1.061a.918.918 0 0 0-.78-.392.91.91 0 0 0-.772.386c-.19.257-.285.641-.285 1.152zm6.259-1.346a2.45 2.45 0 0 0-.404-.033c-.454 0-.76.174-.917.522v3.02h-.991V8.442h.946l.024.494c.24-.384.571-.576.995-.576.142 0 .259.02.351.057l-.004.93zm2.569 3.59c-.628 0-1.137-.197-1.527-.593-.39-.396-.585-.923-.585-1.581v-.123c0-.44.085-.834.254-1.181a1.94 1.94 0 0 1 .716-.81 1.89 1.89 0 0 1 1.028-.29c.6 0 1.065.192 1.392.576.328.383.491.926.491 1.628v.4h-2.882c.03.364.151.653.365.865.213.212.481.318.805.318.454 0 .824-.184 1.109-.55l.534.51a1.784 1.784 0 0 1-.707.613 2.213 2.213 0 0 1-.993.219zm-.118-3.782a.834.834 0 0 0-.659.286c-.167.19-.274.455-.32.795h1.888v-.073c-.022-.332-.11-.583-.265-.753-.155-.17-.37-.255-.644-.255zm4.24.739l.84-1.453h1.101l-1.35 2.175 1.395 2.24h-1.093l-.88-1.51-.877 1.51h-1.101l1.394-2.24-1.345-2.175h1.092l.824 1.453z" fill="#000"/><rect stroke="#DEDEDE" stroke-width=".513" x=".256" y=".256" width="56.015" height="35.487" rx="2.563"/><path fill="#2A3052" fill-rule="nonzero" d="M44.114 9.431l2.136 2.136 2.136-2.136z"/><path d="M41.124 5.16h10.252v10.252H41.124z"/></g><g transform="translate(67.292)"><path d="M11.683 28.414h-1.265v-3.25H7.151v3.25h-1.27v-7.312h1.27v3.043h3.267v-3.043h1.265v7.312zm2.68 0h-1.22V22.98h1.22v5.434zm-1.295-6.845c0-.188.06-.343.178-.467.119-.124.289-.186.51-.186.22 0 .391.062.511.186s.181.28.181.467c0 .184-.06.337-.18.46-.121.122-.292.183-.512.183-.221 0-.391-.061-.51-.184a.633.633 0 0 1-.178-.46zm2.409 4.088c0-.844.198-1.518.595-2.021.396-.504.922-.756 1.578-.756.619 0 1.106.216 1.46.648l.055-.548h1.1v5.269c0 .713-.222 1.275-.665 1.687-.444.412-1.042.618-1.795.618a2.89 2.89 0 0 1-1.166-.249c-.38-.166-.669-.382-.866-.65l.577-.733c.375.445.837.668 1.385.668.405 0 .725-.11.959-.33.234-.219.351-.541.351-.966v-.367c-.351.392-.82.588-1.405.588-.636 0-1.155-.253-1.558-.759-.404-.505-.605-1.205-.605-2.099zm1.214.105c0 .546.112.976.334 1.289.223.313.531.47.926.47.492 0 .856-.212 1.094-.634v-2.39c-.23-.412-.592-.618-1.084-.618-.401 0-.713.16-.936.477-.222.318-.334.787-.334 1.406zm6.028-2.19a1.908 1.908 0 0 1 1.51-.692c1.158 0 1.745.661 1.762 1.984v3.55h-1.22V24.91c0-.375-.081-.64-.243-.796-.163-.156-.401-.234-.715-.234-.489 0-.854.218-1.094.653v3.882h-1.22V20.7h1.22v2.873zm6.895 4.943c-.773 0-1.4-.244-1.88-.731s-.72-1.136-.72-1.946v-.15c0-.543.105-1.028.314-1.455.21-.427.503-.759.88-.997.379-.237.8-.356 1.265-.356.74 0 1.311.236 1.714.708s.605 1.14.605 2.004v.492h-3.548c.037.449.186.803.449 1.065.263.26.593.391.991.391.559 0 1.014-.226 1.365-.678l.658.628a2.196 2.196 0 0 1-.871.756c-.363.18-.77.269-1.222.269zm-.146-4.656c-.334 0-.604.117-.81.352-.206.234-.337.56-.394.979h2.323v-.09c-.026-.409-.135-.718-.326-.927-.19-.21-.455-.314-.793-.314zm6.113.236a3.015 3.015 0 0 0-.497-.04c-.559 0-.935.214-1.13.643v3.716h-1.219V22.98H33.9l.03.608c.294-.472.702-.708 1.224-.708.174 0 .318.023.432.07l-.005 1.145zm1.114 4.947h-.959l2.876-7.94h.958l-2.875 7.94zm5.109-1.642h3.317v1.014h-4.587v-7.312h1.27V27.4zm3.944-1.753c0-.532.106-1.012.316-1.439a2.31 2.31 0 0 1 .889-.984c.381-.23.82-.344 1.314-.344.733 0 1.328.236 1.784.708.457.472.704 1.098.74 1.878l.006.286c0 .536-.103 1.015-.309 1.437-.206.422-.5.748-.883.98-.383.23-.826.346-1.328.346-.766 0-1.379-.256-1.839-.766-.46-.51-.69-1.191-.69-2.042v-.06zm1.22.105c0 .56.115.997.346 1.314.23.316.552.474.963.474.412 0 .732-.16.961-.482.23-.321.344-.792.344-1.411 0-.55-.118-.984-.354-1.306a1.13 1.13 0 0 0-.96-.482 1.12 1.12 0 0 0-.95.475c-.233.316-.35.789-.35 1.418zm9.63.98l.863-3.752h1.19l-1.48 5.434h-1.005l-1.164-3.731-1.144 3.731h-1.004L51.37 22.98h1.19l.877 3.712 1.115-3.712h.918l1.129 3.752zm5.26 1.783c-.773 0-1.4-.244-1.88-.731s-.72-1.136-.72-1.946v-.15c0-.543.104-1.028.313-1.455.21-.427.503-.759.881-.997.378-.237.8-.356 1.265-.356.74 0 1.31.236 1.714.708.403.472.604 1.14.604 2.004v.492h-3.548c.037.449.187.803.45 1.065.262.26.592.391.99.391.56 0 1.014-.226 1.366-.678l.657.628a2.196 2.196 0 0 1-.87.756c-.364.18-.771.269-1.223.269zm-.146-4.656c-.335 0-.605.117-.81.352-.206.234-.338.56-.395.979h2.324v-.09c-.027-.409-.136-.718-.326-.927-.191-.21-.455-.314-.793-.314zm6.112.236a3.015 3.015 0 0 0-.497-.04c-.558 0-.935.214-1.129.643v3.716h-1.22V22.98h1.165l.03.608c.295-.472.703-.708 1.225-.708.174 0 .318.023.431.07l-.005 1.145z" fill="#000"/><path fill="#2A3052" fill-rule="nonzero" d="M60.815 9.431l2.136 2.136 2.136-2.136z"/><path d="M57.825 5.16h10.253v10.252H57.825z"/><path d="M10.085 6.916v3.97c0 .631-.202 1.131-.606 1.5-.403.368-.94.553-1.612.553-.68 0-1.22-.182-1.619-.545-.4-.363-.6-.867-.6-1.512V6.916h1.028v3.974c0 .397.1.7.302.91.201.21.497.314.889.314.793 0 1.19-.418 1.19-1.256V6.916h1.028zm4.868 3.778c0 .683-.155 1.228-.464 1.635-.31.406-.726.61-1.248.61-.484 0-.871-.16-1.162-.478v2.094h-.991V8.442H12l.041.449c.29-.354.686-.53 1.187-.53.538 0 .96.2 1.266.601.305.401.458.958.458 1.671v.061zm-.986-.085c0-.441-.088-.79-.263-1.049a.855.855 0 0 0-.753-.388c-.405 0-.696.168-.872.502v1.959c.18.343.473.514.88.514a.854.854 0 0 0 .74-.381c.179-.255.268-.64.268-1.157zm2.104 2.758h-.78l2.337-6.451h.779l-2.336 6.451zm3.119-.51V6.916h1.753c.525 0 .99.117 1.397.35.406.235.72.567.944.996.223.43.334.923.334 1.478v.297c0 .564-.112 1.059-.336 1.486a2.363 2.363 0 0 1-.959.987c-.414.232-.89.347-1.425.347H19.19zm1.032-5.109v4.285h.672c.541 0 .956-.17 1.246-.508.29-.339.437-.825.442-1.459v-.33c0-.645-.14-1.138-.42-1.478-.28-.34-.686-.51-1.219-.51h-.721zm4.142 2.86c0-.432.086-.822.257-1.168.171-.347.412-.614.722-.8.31-.187.666-.28 1.068-.28.595 0 1.079.192 1.45.576.37.383.571.892.601 1.526l.004.232c0 .436-.083.825-.25 1.167a1.854 1.854 0 0 1-.718.796c-.311.188-.671.282-1.079.282-.622 0-1.12-.208-1.494-.623-.374-.414-.56-.967-.56-1.658v-.05zm.991.086c0 .455.094.81.281 1.067a.914.914 0 0 0 .783.386c.335 0 .595-.13.781-.392.186-.26.28-.643.28-1.146 0-.446-.096-.8-.288-1.061a.918.918 0 0 0-.78-.392.91.91 0 0 0-.772.386c-.19.257-.285.641-.285 1.152zm7.825.796l.701-3.048h.966l-1.202 4.415h-.816l-.946-3.032-.93 3.032h-.815l-1.207-4.415h.966l.714 3.015.905-3.015h.746l.918 3.048zm3.25-3.048l.028.51c.326-.394.754-.592 1.284-.592.92 0 1.387.527 1.403 1.58v2.917h-.99v-2.86c0-.28-.061-.488-.182-.623-.121-.134-.319-.202-.593-.202-.4 0-.698.181-.893.543v3.142h-.991V8.442h.934z" fill="#000"/><rect stroke="#DEDEDE" stroke-width=".513" x=".256" y=".256" width="72.717" height="35.487" rx="2.563"/></g><g transform="translate(152 8)"><path fill="#000" fill-rule="nonzero" d="M.506 1.899v-.5h1.888l.099.02 1.077.465 1.073-.598.122-.032h1.983l.178.074 3.022 3.08 1.197.617 1.694-.688 2.655 2.63 4.469.02 1.517-.641 1.699 2.1h1.323l1.523-2.09 2.982.977-.156.475-2.636-.864-1.458 2.002h-1.698l-.194-.093-1.539-1.902-1.266.516h-4.669l-.176-.072-2.493-2.47-1.496.607-.208-.01-1.362-.715-3.012-3.053H4.83l-1.124.627-.22.011L2.342 1.9z"/><circle fill="#F00100" cx="22.75" cy="8.75" r="1"/><circle fill="#00F000" cx="28.75" cy="7.75" r="1"/><circle fill="#0000F0" cx="1.75" cy="1.25" r="1"/></g></g></g></svg>