<svg xmlns="http://www.w3.org/2000/svg" viewBox="0 268.322 395 174"><path fill="#fff" d="M0 268.322h395v174H0z"/><path fill="#818181" d="M0 268.322h395v1H0v-1m0 173h395v1H0v-1m0-173h1v174H0v-174m394 0h1v174h-1v-174"/><text transform="translate(73.001 297.324)" fill="#010101" font-family="Arial" font-size="18" font-weight="bold">Stays Between</text><text transform="translate(51.501 332.324)" fill="#010101" font-family="Arial" font-size="16" font-weight="bold">GBP</text><text transform="translate(90.501 332.324)" fill="#010101" font-family="Arial" font-size="22" font-weight="bold">3</text><text transform="translate(102.501 323.324)" fill="#010101" font-family="Arial" font-size="14" font-weight="bold">.97</text><path fill="#2F8942" d="M34 340.322h98c2.21 0 4 1.79 4 4v26c0 2.207-1.79 4-4 4H34c-2.207 0-4-1.793-4-4v-26c0-2.21 1.793-4 4-4"/><text transform="translate(45.001 362.324)" fill="#fff" font-family="Arial" font-size="14" font-weight="bold">PURCHASE</text><path fill="#E4E4E4" d="M1 419.322h393v22H1v-22"/><text transform="translate(94.001 435.324)" fill="#676767" font-family="Arial" font-size="13">Net profit: GBP 6.03 | Return: 152%</text><path fill="none" d="M176 313.322h209v62H176z"/><text transform="translate(176 323.375)" font-family="Arial" font-size="14">GBP</text><text transform="translate(209.455 323.375)" font-family="Arial" font-size="14" font-weight="bold">10</text><text transform="translate(225.027 323.375)" font-family="Arial" font-size="14">payout if AUD/JPY</text><text transform="translate(348.744 323.375)" font-family="Arial" font-size="14" font-weight="bold">stays</text><text transform="translate(176 337.375)" font-family="Arial" font-size="14" font-weight="bold">strictly between 91.783</text><text transform="translate(328.523 337.375)" font-family="Arial" font-size="14">and</text><text transform="translate(176 351.375)" font-family="Arial" font-size="14" font-weight="bold">94.095</text><text transform="translate(218.82 351.375)" font-family="Arial" font-size="14">before close (91.783)</text><text transform="translate(176 365.375)" font-family="Arial" font-size="14">on 31-Mar-14.</text><path d="M19 299.186h36v-13.05H19v13.05zm1.725-6.012h3.855l4.46-6.733 5.25 7.768 5.35-6.887 4.725 5.33h4.186l-3.35-3.353h3.393l4.438 4.436-4.536 4.535H45.1l3.22-3.22h-5.033l-3.522-3.974-5.604 7.215-5.096-7.534-3.19 4.816h-5.146v-2.398h-.003zM19 300.784h36v9.538H19zm0-26.462h36v10.214H19z" fill="#29ABE2"/></svg>