<svg xmlns="http://www.w3.org/2000/svg" xmlns:xlink="http://www.w3.org/1999/xlink" width="128" height="128" viewBox="0 0 128 128"><defs><path id="a" d="M0 0h128v128H0z"/><circle id="b" cx="26" cy="26" r="26"/></defs><g fill="none" fill-rule="evenodd"><use fill="#F2F2F2" xlink:href="#a"/><path stroke="#DEDEDE" stroke-width="2" d="M1 1h126v126H1z"/><g transform="translate(52 50)"><use fill="#F2F2F2" xlink:href="#b"/><circle cx="26" cy="26" r="25" stroke="#E98024" stroke-width="2"/></g><g fill="#E98024" transform="translate(62 60)"><rect width="20" height="2" x="6" y="16" rx="1"/><path fill-rule="nonzero" d="M7.625 16.22a1 1 0 0 0-1.25 1.562l5 3.999a1 1 0 0 0 1.36-.103l12-13a1 1 0 1 0-1.47-1.356L11.897 19.637 7.625 16.22z"/><path fill-rule="nonzero" d="M24 8v3a1 1 0 0 0 2 0V7a1 1 0 0 0-1-1h-4a1 1 0 0 0 0 2h3z"/></g><g transform="translate(24 26)"><circle cx="26" cy="26" r="26" fill="#F2F2F2" stroke="#2A3052" stroke-width="2"/><g fill="#2A3052" transform="translate(10 10)"><rect width="20" height="2" x="6" y="13" rx="1"/><path fill-rule="nonzero" d="M23.24 24.65a1 1 0 1 0 1.52-1.3l-12-14a1 1 0 0 0-1.385-.13l-5 4a1 1 0 1 0 1.25 1.561l4.245-3.396L23.24 24.65z"/><path fill-rule="nonzero" d="M24 24h-3a1 1 0 0 0 0 2h4a1 1 0 0 0 1-1v-4a1 1 0 0 0-2 0v3z"/></g></g></g></svg>