<svg xmlns="http://www.w3.org/2000/svg" width="64" height="42" viewBox="0 0 64 42"><g fill="none"><path fill="#F5F5F5" d="M62.774 41.966H1.1A1.103 1.103 0 0 1 0 40.862V1.138C0 .528.493.035 1.101.035h61.673c.608 0 1.101.494 1.101 1.103v39.724c0 .61-.493 1.104-1.101 1.104z"/><path d="M63.875 3.26H0V1.138C0 .528.493.035 1.101.035h61.673c.608 0 1.101.494 1.101 1.103V3.26zM0 12.936h63.875v3.225H0zm0-6.451h63.875V9.71H0zm63.875 16.128H1.101A1.103 1.103 0 0 1 0 21.509v-2.122h63.875v3.226zM0 32.29h63.875v3.225H0zm62.774 9.676H1.1A1.103 1.103 0 0 1 0 40.862V38.74h63.875v2.122c0 .61-.493 1.104-1.101 1.104zM0 25.839h63.875v3.225H0z" fill="#FF4B55"/><path fill="#41479B" d="M28.634.035H1.1C.493.035 0 .529 0 1.138v20.371c0 .61.493 1.104 1.101 1.104h27.533c.608 0 1.101-.494 1.101-1.104V1.138c0-.61-.493-1.103-1.101-1.103z"/><path d="M3.093 2.567l.243.733.771.006c.1 0 .141.128.06.187l-.62.46.233.735a.104.104 0 0 1-.159.116l-.627-.449-.627.45a.104.104 0 0 1-.16-.117l.233-.736-.62-.459a.104.104 0 0 1 .061-.187l.77-.006.245-.733a.104.104 0 0 1 .197 0zm0 3.832l.243.732.771.006c.1.001.141.129.06.188l-.62.459.233.736a.104.104 0 0 1-.159.116l-.627-.449-.627.45a.104.104 0 0 1-.16-.117l.233-.736-.62-.459a.104.104 0 0 1 .061-.188l.77-.005.245-.733a.104.104 0 0 1 .197 0zm0 3.831l.243.733.771.006c.1.001.141.129.06.188l-.62.459.233.736a.104.104 0 0 1-.159.116l-.627-.45-.627.45a.104.104 0 0 1-.16-.116l.233-.736-.62-.459a.104.104 0 0 1 .061-.188l.77-.006.245-.732a.104.104 0 0 1 .197 0zm0 3.833l.243.732.771.006c.1 0 .141.128.06.188l-.62.458.233.737a.104.104 0 0 1-.159.116l-.627-.45-.627.45a.104.104 0 0 1-.16-.116l.233-.736-.62-.46a.104.104 0 0 1 .061-.187l.77-.006.245-.732a.104.104 0 0 1 .197 0zm0 3.831l.243.733.771.006c.1 0 .141.128.06.188l-.62.458.233.736a.104.104 0 0 1-.159.116l-.627-.448-.627.448a.104.104 0 0 1-.16-.116l.233-.736-.62-.458a.104.104 0 0 1 .061-.188l.77-.006.245-.732a.104.104 0 0 1 .197 0zM6.06 4.446l.245.732.77.006c.1.001.141.129.061.188l-.62.459.233.736a.104.104 0 0 1-.16.116l-.627-.45-.626.45a.104.104 0 0 1-.16-.116l.233-.736-.62-.459a.104.104 0 0 1 .06-.188l.771-.006.244-.732a.104.104 0 0 1 .197 0zm0 3.832l.245.732.77.006c.1.001.141.129.061.188l-.62.459.233.736a.104.104 0 0 1-.16.116l-.627-.45-.626.45a.104.104 0 0 1-.16-.116l.233-.736-.62-.46a.104.104 0 0 1 .06-.187l.771-.006.244-.732a.104.104 0 0 1 .197 0zm0 3.832l.245.732.77.006c.1 0 .141.128.061.188l-.62.458.233.736a.104.104 0 0 1-.16.117l-.627-.45-.626.45a.104.104 0 0 1-.16-.117l.233-.736-.62-.458a.104.104 0 0 1 .06-.188l.771-.006.244-.732a.104.104 0 0 1 .197 0zm0 3.831l.245.733.77.006c.1 0 .141.128.061.187l-.62.46.233.735a.104.104 0 0 1-.16.116l-.627-.449-.626.45a.104.104 0 0 1-.16-.117l.233-.736-.62-.459a.104.104 0 0 1 .06-.187l.771-.006.244-.733a.104.104 0 0 1 .197 0zM9.03 2.567l.243.733.77.006c.1 0 .142.128.062.187l-.62.46.232.735a.104.104 0 0 1-.16.116l-.626-.449-.627.45a.104.104 0 0 1-.16-.117l.233-.736-.62-.459a.104.104 0 0 1 .061-.187l.77-.006.244-.733a.104.104 0 0 1 .197 0zm0 3.832l.243.732.77.006c.1.001.142.129.062.188l-.62.459.232.736a.104.104 0 0 1-.16.116l-.626-.449-.627.449a.104.104 0 0 1-.16-.116l.233-.736-.62-.459a.104.104 0 0 1 .061-.188l.77-.005.244-.733a.104.104 0 0 1 .197 0zm0 3.831l.243.733.77.006c.1.001.142.129.062.188l-.62.459.232.736a.104.104 0 0 1-.16.116l-.626-.45-.627.45a.104.104 0 0 1-.16-.116l.233-.736-.62-.46a.104.104 0 0 1 .061-.187l.77-.006.244-.732a.104.104 0 0 1 .197 0zm0 3.833l.243.732.77.006c.1 0 .142.128.062.188l-.62.458.232.737a.104.104 0 0 1-.16.116l-.626-.45-.627.45a.104.104 0 0 1-.16-.116l.233-.737-.62-.458a.104.104 0 0 1 .061-.188l.77-.006.244-.732a.104.104 0 0 1 .197 0zm0 3.831l.243.733.77.006c.1 0 .142.128.062.188l-.62.458.232.736a.104.104 0 0 1-.16.116l-.626-.449-.627.45a.104.104 0 0 1-.16-.117l.233-.736-.62-.459a.104.104 0 0 1 .061-.187l.77-.006.244-.733a.104.104 0 0 1 .197 0zm2.968-13.448l.243.732.771.006c.1.001.141.129.061.188l-.62.459.233.736a.104.104 0 0 1-.16.116l-.627-.45-.627.45a.104.104 0 0 1-.16-.116l.233-.736-.62-.459a.104.104 0 0 1 .061-.188l.771-.006.244-.732a.104.104 0 0 1 .197 0zm0 3.832l.243.732.771.006c.1.001.141.129.061.188l-.62.459.233.736a.104.104 0 0 1-.16.116l-.627-.45-.627.45a.104.104 0 0 1-.16-.116l.233-.736-.62-.46a.104.104 0 0 1 .061-.187l.771-.006.244-.732a.104.104 0 0 1 .197 0zm0 3.832l.243.732.771.006c.1 0 .141.128.061.188l-.62.458.233.736a.104.104 0 0 1-.16.117l-.627-.45-.627.45a.104.104 0 0 1-.16-.117l.233-.736-.62-.458a.104.104 0 0 1 .061-.188l.771-.006.244-.732a.104.104 0 0 1 .197 0zm0 3.831l.243.733.771.006c.1 0 .141.128.061.187l-.62.46.233.735a.104.104 0 0 1-.16.116l-.627-.449-.627.45a.104.104 0 0 1-.16-.117l.233-.736-.62-.459a.104.104 0 0 1 .061-.187l.771-.006.244-.733a.104.104 0 0 1 .197 0zm2.968-13.374l.244.733.77.006c.1 0 .142.128.061.187l-.62.46.233.735a.104.104 0 0 1-.16.116l-.627-.449-.626.45a.104.104 0 0 1-.16-.117l.233-.736-.62-.459a.104.104 0 0 1 .06-.187l.771-.006.244-.733a.104.104 0 0 1 .197 0zm0 3.832l.244.732.77.006c.1.001.142.129.061.188l-.62.459.233.736a.104.104 0 0 1-.16.116l-.627-.449-.626.449a.104.104 0 0 1-.16-.116l.233-.736-.62-.459a.104.104 0 0 1 .06-.188l.771-.005.244-.733a.104.104 0 0 1 .197 0zm0 3.831l.244.733.77.006c.1.001.142.129.061.188l-.62.459.233.736a.104.104 0 0 1-.16.116l-.627-.45-.626.45a.104.104 0 0 1-.16-.116l.233-.736-.62-.46a.104.104 0 0 1 .06-.187l.771-.006.244-.732a.104.104 0 0 1 .197 0zm0 3.833l.244.732.77.006c.1 0 .142.128.061.188l-.62.458.233.737a.104.104 0 0 1-.16.116l-.627-.45-.626.45a.104.104 0 0 1-.16-.116l.233-.737-.62-.458a.104.104 0 0 1 .06-.188l.771-.006.244-.732a.104.104 0 0 1 .197 0zm0 3.831l.244.733.77.006c.1 0 .142.128.061.188l-.62.458.233.736a.104.104 0 0 1-.16.116l-.627-.449-.626.45a.104.104 0 0 1-.16-.117l.233-.736-.62-.459a.104.104 0 0 1 .06-.187l.771-.006.244-.733a.104.104 0 0 1 .197 0zm2.968-13.448l.244.732.77.006c.1.001.142.129.062.188l-.62.459.232.736a.104.104 0 0 1-.16.116l-.626-.45-.627.45a.104.104 0 0 1-.16-.116l.233-.736-.62-.459a.104.104 0 0 1 .061-.188l.77-.006.244-.732a.104.104 0 0 1 .197 0zm0 3.832l.244.732.77.006c.1.001.142.129.062.188l-.62.459.232.736a.104.104 0 0 1-.16.116l-.626-.45-.627.45a.104.104 0 0 1-.16-.116l.233-.736-.62-.46a.104.104 0 0 1 .061-.187l.77-.006.244-.732a.104.104 0 0 1 .197 0zm0 3.832l.244.732.77.006c.1 0 .142.128.062.188l-.62.458.232.736a.104.104 0 0 1-.16.117l-.626-.45-.627.45a.104.104 0 0 1-.16-.117l.233-.736-.62-.458a.104.104 0 0 1 .061-.188l.77-.006.244-.732a.104.104 0 0 1 .197 0zm0 3.831l.244.733.77.006c.1 0 .142.128.062.187l-.62.46.232.735a.104.104 0 0 1-.16.116l-.626-.449-.627.45a.104.104 0 0 1-.16-.117l.233-.736-.62-.459a.104.104 0 0 1 .061-.187l.77-.006.244-.733a.104.104 0 0 1 .197 0zm2.969-13.374l.244.733.77.006c.1 0 .141.128.061.187l-.62.46.233.735a.104.104 0 0 1-.16.116l-.627-.449-.627.45a.104.104 0 0 1-.159-.117l.233-.736-.62-.459a.104.104 0 0 1 .06-.187l.771-.006.244-.733a.104.104 0 0 1 .197 0zm0 3.832l.244.732.77.006c.1.001.141.129.061.188l-.62.459.233.736a.104.104 0 0 1-.16.116l-.627-.449-.627.449a.104.104 0 0 1-.159-.116l.233-.736-.62-.459a.104.104 0 0 1 .06-.188l.771-.005.244-.733a.104.104 0 0 1 .197 0zm0 3.831l.244.733.77.006c.1.001.141.129.061.188l-.62.459.233.736a.104.104 0 0 1-.16.116l-.627-.45-.627.45a.104.104 0 0 1-.159-.116l.233-.736-.62-.46a.104.104 0 0 1 .06-.187l.771-.006.244-.732a.104.104 0 0 1 .197 0zm0 3.833l.244.732.77.006c.1 0 .141.128.061.188l-.62.458.233.737a.104.104 0 0 1-.16.116l-.627-.45-.627.45a.104.104 0 0 1-.159-.116l.233-.737-.62-.458a.104.104 0 0 1 .06-.188l.771-.006.244-.732a.104.104 0 0 1 .197 0zm0 3.831l.244.733.77.006c.1 0 .141.128.061.188l-.62.458.233.736a.104.104 0 0 1-.16.116l-.627-.449-.627.45a.104.104 0 0 1-.159-.117l.233-.736-.62-.459a.104.104 0 0 1 .06-.187l.771-.006.244-.733a.104.104 0 0 1 .197 0zm2.968-13.448l.244.732.77.006c.1.001.142.129.061.188l-.62.459.233.736a.104.104 0 0 1-.16.116l-.626-.45-.627.45a.104.104 0 0 1-.16-.116l.233-.736-.62-.459a.104.104 0 0 1 .06-.188l.771-.006.244-.732a.104.104 0 0 1 .197 0zm0 3.832l.244.732.77.006c.1.001.142.129.061.188l-.62.459.233.736a.104.104 0 0 1-.16.116l-.626-.45-.627.45a.104.104 0 0 1-.16-.116l.233-.736-.62-.46a.104.104 0 0 1 .06-.187l.771-.006.244-.732a.104.104 0 0 1 .197 0zm0 3.832l.244.732.77.006c.1 0 .142.128.061.188l-.62.458.233.736a.104.104 0 0 1-.16.117l-.626-.45-.627.45a.104.104 0 0 1-.16-.117l.233-.736-.62-.458a.104.104 0 0 1 .06-.188l.771-.006.244-.732a.104.104 0 0 1 .197 0zm0 3.831l.244.733.77.006c.1 0 .142.128.061.187l-.62.46.233.735a.104.104 0 0 1-.16.116l-.626-.449-.627.45a.104.104 0 0 1-.16-.117l.233-.736-.62-.459a.104.104 0 0 1 .06-.187l.771-.006.244-.733a.104.104 0 0 1 .197 0zM26.84 2.567l.243.733.771.006c.1 0 .141.128.06.187l-.62.46.233.735a.104.104 0 0 1-.159.116l-.627-.449-.627.45a.104.104 0 0 1-.16-.117l.233-.736-.62-.459a.104.104 0 0 1 .061-.187l.77-.006.245-.733a.104.104 0 0 1 .197 0zm0 3.832l.243.732.771.006c.1.001.141.129.06.188l-.62.459.233.736a.104.104 0 0 1-.159.116l-.627-.449-.627.449a.104.104 0 0 1-.16-.116l.233-.736-.62-.459a.104.104 0 0 1 .061-.188l.77-.005.245-.733a.104.104 0 0 1 .197 0zm0 3.831l.243.733.771.006c.1.001.141.129.06.188l-.62.459.233.736a.104.104 0 0 1-.159.116l-.627-.45-.627.45a.104.104 0 0 1-.16-.116l.233-.736-.62-.46a.104.104 0 0 1 .061-.187l.77-.006.245-.732a.104.104 0 0 1 .197 0zm0 3.833l.243.732.771.006c.1 0 .141.128.06.188l-.62.458.233.737a.104.104 0 0 1-.159.116l-.627-.45-.627.45a.104.104 0 0 1-.16-.116l.233-.737-.62-.458a.104.104 0 0 1 .061-.188l.77-.006.245-.732a.104.104 0 0 1 .197 0zm0 3.831l.243.733.771.006c.1 0 .141.128.06.188l-.62.458.233.736a.104.104 0 0 1-.159.116l-.627-.449-.627.45a.104.104 0 0 1-.16-.117l.233-.736-.62-.459a.104.104 0 0 1 .061-.187l.77-.006.245-.733a.104.104 0 0 1 .197 0z" fill="#F5F5F5"/></g></svg>