<?xml version="1.0" encoding="UTF-8"?>
<svg width="299px" height="197px" viewBox="0 0 299 197" version="1.1" xmlns="http://www.w3.org/2000/svg" xmlns:xlink="http://www.w3.org/1999/xlink">
    <!-- Generator: Sketch 52.6 (67491) - http://www.bohemiancoding.com/sketch -->
    <title>Down</title>
    <desc>Created with Sketch.</desc>
    <g id="Page-1" stroke="none" stroke-width="1" fill="none" fill-rule="evenodd">
        <g id="Down">
            <polygon id="Path" fill="#F1F2F2" points="0 0 299 0 299 197 0 197"></polygon>
            <path d="M2.97019868,2.955 L2.97019868,194.045 L296.029801,194.045 L296.029801,2.955 L2.97019868,2.955 Z M299,0 L299,197 L0,197 L0,0 L299,0 Z" id="Path" fill="#C2C2C2" fill-rule="nonzero"></path>
            <path d="M5,53.8937051 L5,52.6865475 L295,52.6865475 L295,53.8937051 L5,53.8937051 Z M5,74.2212672 L5,73.0141095 L295,73.0141095 L295,74.2212672 L5,74.2212672 Z M5,94.5113934 L5,93.3042358 L295,93.3042358 L295,94.5113934 L5,94.5113934 Z M5,135.129081 L5,133.921924 L295,133.921924 L295,135.129081 L5,135.129081 Z M5,155.419208 L5,154.21205 L295,154.21205 L295,155.419208 L5,155.419208 Z M5,175.709335 L5,174.502177 L295,174.502177 L295,175.709335 L5,175.709335 Z M39.4203806,33 L40.6286516,33 L40.6286516,193 L39.4203806,193 L39.4203806,33 Z M76.1287678,33 L77.3370388,33 L77.3370388,193 L76.1287678,193 L76.1287678,33 Z M112.799735,33 L114.008006,33 L114.008006,193 L112.799735,193 L112.799735,33 Z M149.508122,33 L150.716393,33 L150.716393,193 L149.508122,193 L149.508122,33 Z M186.17909,33 L187.387361,33 L187.387361,193 L186.17909,193 L186.17909,33 Z M222.850058,33 L224.058329,33 L224.058329,193 L222.850058,193 L222.850058,33 Z M259.558445,33 L260.766716,33 L260.766716,193 L259.558445,193 L259.558445,33 Z" id="Shape" fill="#DFDEDE" fill-rule="nonzero"></path>
            <polygon id="Path" fill="#C2C2C2" fill-rule="nonzero" points="0.804766102 34.9510902 0.804766102 32.504306 298.631318 32.504306 298.631318 34.9510902"></polygon>
            <path d="M188.508984,148.513672 L153.08952,148.513672 L147.634544,140.206293 L142.179568,148.513672 L106.760104,148.513672 C104.108379,148.513672 101.987,150.675866 101.987,153.369126 L101.987,178.442996 C101.987,181.136255 104.146261,183.29845 106.760104,183.29845 L188.546866,183.29845 C191.198591,183.29845 193.31997,181.136255 193.31997,178.442996 L193.31997,153.369126 C193.31997,150.675866 191.160709,148.513672 188.508984,148.513672 Z" id="Path" fill="#E88024"></path>
            <g id="Group" transform="translate(5.000000, 94.000000)">
                <polygon id="Path" fill="#2A3052" fill-rule="nonzero" points="0.261599031 23.4113925 0.261599031 21.9263261 288.612573 21.9263261 288.612573 23.4113925"></polygon>
                <path d="M70.1471752,48.4288505 C69.523214,49.1260532 68.471924,49.2357141 67.7175089,48.682291 L34.254469,24.1345071 C33.4450141,23.540708 33.2701905,22.4031458 33.8639897,21.5936908 C34.4577888,20.7842359 35.595351,20.6094123 36.404806,21.2032115 L68.5380371,44.7754756 L102.057762,7.32115955 C102.772989,6.52197849 104.02107,6.51254993 104.748289,7.30083411 L136.524331,41.7451276 L179.70331,-0.879796733 C180.590968,-1.75606415 182.077293,-1.4984018 182.618208,-0.374483904 L224.637241,86.9330431 L252.752096,62.0935584 C253.504429,61.4288713 254.653152,61.4999229 255.317839,62.2522566 C255.982526,63.0045902 255.911474,64.1533124 255.15914,64.8179994 L225.244406,91.2476778 C224.341207,92.0456547 222.925641,91.7597254 222.402983,90.6737402 L180.446103,3.49535477 L137.74023,45.6532439 C137.008654,46.3754328 135.824247,46.3477547 135.127204,45.5921809 L103.432679,11.2362492 L70.1471752,48.4288505 Z" id="Path" fill="#2A3052" fill-rule="nonzero"></path>
                <ellipse id="Oval" fill="#FFFFFF" opacity="0.6" cx="35.3296375" cy="22.6688593" rx="8.06728138" ry="8.49574874"></ellipse>
                <path d="M35.3296375,32.3764223 C30.1905082,32.3764223 26.0505419,28.0165752 26.0505419,22.6688593 C26.0505419,17.3211434 30.1905082,12.9612963 35.3296375,12.9612963 C40.4687668,12.9612963 44.6087331,17.3211434 44.6087331,22.6688593 C44.6087331,28.0165752 40.4687668,32.3764223 35.3296375,32.3764223 Z M35.3296375,29.9527938 C39.1013811,29.9527938 42.1851047,26.7052883 42.1851047,22.6688593 C42.1851047,18.6324303 39.1013811,15.3849248 35.3296375,15.3849248 C31.5578939,15.3849248 28.4741703,18.6324303 28.4741703,22.6688593 C28.4741703,26.7052883 31.5578939,29.9527938 35.3296375,29.9527938 Z" id="Oval" fill="#E88024" fill-rule="nonzero"></path>
                <ellipse id="Oval" fill="#FFFFFF" opacity="0.6" cx="253.955618" cy="62.8548794" rx="8.06728138" ry="8.49574874"></ellipse>
                <path d="M253.955618,72.5634323 C248.816489,72.5634323 244.676522,68.2035852 244.676522,62.8558693 C244.676522,57.5081534 248.816489,53.1483063 253.955618,53.1483063 C259.094747,53.1483063 263.234714,57.5081534 263.234714,62.8558693 C263.234714,68.2035852 259.094747,72.5634323 253.955618,72.5634323 Z M253.955618,70.1398038 C257.727362,70.1398038 260.811085,66.8922983 260.811085,62.8558693 C260.811085,58.8194403 257.727362,55.5719348 253.955618,55.5719348 C250.183874,55.5719348 247.100151,58.8194403 247.100151,62.8558693 C247.100151,66.8922983 250.183874,70.1398038 253.955618,70.1398038 Z" id="Oval" fill="#E88024" fill-rule="nonzero"></path>
            </g>
            <path d="M29.691,142.797 C29.691,142.303 29.501,141.924 29.16,141.582 C28.818,141.278 28.172,140.974 27.26,140.784 C26.16,140.518 25.324,140.139 24.679,139.607 C24.1090757,139.127225 23.7876106,138.414779 23.805,137.67 C23.805,136.835 24.147,136.151 24.793,135.62 C25.438,135.05 26.312,134.784 27.375,134.784 C28.515,134.784 29.425,135.088 30.071,135.734 C30.755,136.379 31.058,137.101 31.058,137.936 L31.058,137.974 L29.691,137.974 C29.691,137.367 29.501,136.873 29.084,136.494 C28.666,136.114 28.096,135.924 27.374,135.924 C26.691,135.924 26.16,136.075 25.78,136.417 C25.4,136.72 25.19,137.186 25.21,137.67 C25.21,138.126 25.4,138.506 25.818,138.81 C26.236,139.113 26.881,139.38 27.793,139.607 C28.893,139.873 29.729,140.291 30.299,140.822 C30.869,141.354 31.172,142.037 31.172,142.797 C31.172,143.632 30.831,144.316 30.147,144.847 C29.463,145.379 28.59,145.607 27.489,145.607 C26.5079069,145.614878 25.5499736,145.308998 24.755,144.734 C23.9922433,144.235126 23.5567647,143.36455 23.615,142.455 L23.615,142.417 L24.945,142.417 C24.945,143.101 25.172,143.594 25.666,143.974 C26.16,144.316 26.767,144.506 27.489,144.506 C28.21,144.506 28.742,144.354 29.159,144.05 C29.501,143.746 29.691,143.329 29.691,142.797 Z M34.741,135.734 L34.741,137.632 L36.185,137.632 L36.185,138.696 L34.742,138.696 L34.742,143.443 C34.742,143.823 34.818,144.05 34.97,144.202 C35.122,144.354 35.312,144.43 35.577,144.43 C35.653,144.43 35.729,144.43 35.843,144.392 C35.957,144.392 36.033,144.354 36.109,144.316 L36.299,145.303 C36.1550714,145.394172 36.0022947,145.47056 35.843,145.531 C35.653,145.569 35.425,145.607 35.236,145.607 C34.7263517,145.624697 34.2317901,145.432367 33.868,145.075 C33.527,144.734 33.375,144.165 33.375,143.443 L33.375,138.696 L32.122,138.696 L32.122,137.632 L33.337,137.632 L33.337,135.734 L34.742,135.734 L34.741,135.734 Z M42.641,145.455 C42.603,145.227 42.565,144.999 42.527,144.81 C42.489,144.62 42.489,144.468 42.489,144.278 C42.223,144.658 41.881,144.962 41.463,145.228 C41.0540638,145.485091 40.5789499,145.617164 40.096,145.608 C39.299,145.608 38.691,145.418 38.274,144.962 C37.8333177,144.504682 37.5997681,143.886463 37.628,143.252 C37.628,142.493 37.932,141.924 38.501,141.506 C39.109,141.088 39.906,140.86 40.931,140.86 L42.451,140.86 L42.451,140.1 C42.451,139.645 42.299,139.265 42.033,139 C41.767,138.734 41.387,138.582 40.856,138.582 C40.4,138.582 40.02,138.696 39.755,138.924 C39.489,139.151 39.337,139.455 39.337,139.759 L38.046,139.759 L38.046,139.721 C38.008,139.151 38.274,138.62 38.843,138.164 C39.413,137.708 40.134,137.443 41.008,137.443 C41.881,137.443 42.565,137.67 43.096,138.126 C43.628,138.582 43.894,139.227 43.894,140.063 L43.894,143.823 C43.894,144.088 43.894,144.353 43.932,144.62 C43.97,144.886 44.008,145.151 44.084,145.38 L42.641,145.38 L42.641,145.455 Z M40.324,144.43 C40.818,144.43 41.274,144.316 41.691,144.05 C42.109,143.784 42.375,143.48 42.489,143.139 L42.489,141.886 L40.932,141.886 C40.362,141.886 39.906,142.037 39.565,142.303 C39.250192,142.53302 39.0661314,142.901141 39.071,143.291 C39.071,143.632 39.185,143.898 39.375,144.126 C39.603,144.316 39.906,144.43 40.325,144.43 L40.324,144.43 Z M49.59,138.886 L48.868,138.848 C48.488,138.848 48.185,138.924 47.919,139.113 C47.653,139.303 47.463,139.531 47.349,139.873 L47.349,145.455 L45.944,145.455 L45.944,137.632 L47.198,137.632 L47.35,138.772 C47.577,138.354 47.843,138.05 48.147,137.822 C48.451,137.594 48.831,137.481 49.248,137.481 C49.362,137.481 49.438,137.481 49.552,137.518 C49.628,137.518 49.742,137.556 49.78,137.556 L49.59,138.886 Z M52.894,135.734 L52.894,137.632 L54.337,137.632 L54.337,138.696 L52.894,138.696 L52.894,143.443 C52.894,143.823 52.97,144.05 53.122,144.202 C53.274,144.354 53.463,144.43 53.729,144.43 C53.805,144.43 53.881,144.43 53.995,144.392 C54.109,144.392 54.185,144.354 54.261,144.316 L54.451,145.303 C54.3070714,145.394172 54.1542947,145.47056 53.995,145.531 C53.805,145.569 53.577,145.607 53.387,145.607 C52.8776947,145.62442 52.3835478,145.432111 52.02,145.075 C51.679,144.734 51.527,144.165 51.527,143.443 L51.527,138.696 L50.312,138.696 L50.312,137.632 L51.527,137.632 L51.527,135.734 L52.894,135.734 Z" id="Shape" fill="#2A3052" fill-rule="nonzero"></path>
            <path d="M257.493,181.268 L253.231,181.268 L253.231,184.643 L258.174,184.643 L258.174,185.631 L251.97,185.631 L251.97,176.188 L258.106,176.188 L258.106,177.177 L253.231,177.177 L253.231,180.245 L257.492,180.245 L257.493,181.268 Z M260.799,178.575 L260.901,179.631 C261.319679,178.899525 262.104349,178.455032 262.947,178.472 C263.697,178.472 264.277,178.677 264.685,179.154 C265.095,179.597 265.299,180.279 265.299,181.199 L265.299,185.631 L264.037,185.631 L264.037,181.234 C264.037,180.62 263.901,180.177 263.662,179.904 C263.424,179.631 263.049,179.529 262.572,179.529 C262.197,179.529 261.89,179.631 261.617,179.802 C261.344,179.972 261.106,180.211 260.935,180.518 L260.935,185.631 L259.674,185.631 L259.674,178.61 L260.799,178.576 L260.799,178.575 Z M266.571,182.084 C266.571,180.959 266.81,180.039 267.287,179.357 C267.764,178.675 268.447,178.334 269.299,178.334 C269.708,178.334 270.083,178.403 270.389,178.574 C270.696,178.709 270.969,178.948 271.208,179.221 L271.208,175.369 L272.468,175.369 L272.468,185.493 L271.446,185.493 L271.31,184.641 C271.099112,184.95099 270.819083,185.20774 270.492,185.391 C270.13,185.561 269.732,185.643 269.332,185.63 C268.48,185.63 267.832,185.323 267.355,184.71 C266.878,184.096 266.64,183.278 266.64,182.255 L266.64,182.085 L266.571,182.085 L266.571,182.084 Z M267.816,182.222 C267.816,182.938 267.952,183.518 268.259,183.927 C268.566,184.336 268.975,184.574 269.589,184.574 C269.963,184.574 270.27,184.472 270.543,184.302 C270.816,184.132 271.02,183.892 271.156,183.586 L271.156,180.313 C271.005105,180.031969 270.7817,179.796477 270.509,179.631 C270.234454,179.454659 269.915298,179.3603 269.589,179.359 C268.975,179.359 268.532,179.597 268.259,180.109 C267.986,180.619 267.816,181.268 267.816,182.086 L267.816,182.222 Z M279.558,182.353 L274.53,182.353 C274.66,183.884 275.289,184.65 276.418,184.65 C278.111,184.65 278.346,183.214 278.346,183.305 L279.458,183.3 C278.916,184.854 277.903,185.631 276.418,185.631 C274.19,185.631 273.408,184.055 273.314,182.353 C273.22,180.651 273.787,178.367 276.436,178.367 C278.608,178.407 279.649,179.736 279.558,182.353 Z M278.297,181.448 C278.17,180.095 277.541,179.418 276.408,179.418 C275.276,179.418 274.647,180.095 274.52,181.448 L278.297,181.448 Z" id="Shape" fill="#2A3052" fill-rule="nonzero"></path>
            <g id="target" transform="translate(254.453000, 124.410000)" fill="#6D6E71" fill-rule="nonzero">
                <path d="M13.891,10.187 L15.029,10.187 L16.007,3.52 L14.842,3.52 L13.891,10.187 Z M16.977,0.512 L16.749,2.367 L15.079,2.367 L15.364,0.512 L16.977,0.512 Z" id="Shape"></path>
                <path d="M1.247,2.353 L1.407,1.427 L6.715,1.427 L6.608,2.353 L1.677,9.493 L6.145,9.493 L5.991,10.455 L0.355,10.455 L0.355,9.493 L5.245,2.353 L1.247,2.353 Z M18.62,0.522 L19.803,0.522 L18.389,10.199 L17.242,10.199 L18.62,0.522 Z M11.537,8.831 C11.606,9.006 11.686,9.192 11.872,9.605 C10.461,10.721 8.838,10.568 8.079,10.107 C6.937,9.413 6.937,8.123 6.942,7.125 C6.95,5.852 7.852,3.485 10.362,3.485 C12.872,3.485 12.46,6.298 12.338,7.125 C12.082,7.125 10.698,7.151 8.185,7.203 C7.952,10.297 10.205,9.605 11.537,8.831 Z M11.386,6.343 C11.532,5.122 11.17,4.511 10.301,4.511 C8.996,4.511 8.539,5.945 8.393,6.343 L11.386,6.343 Z" id="Shape" opacity="0.9"></path>
            </g>
            <path d="M169.317,162.526 L171.262,162.526 L171.36,163.943 C172.156,162.755 173.19,162.226 174.46,162.358 C175.196,162.434 176.747,162.675 177.21,164.764 C177.38,165.53 177.343,166.824 177.33,168.582 C177.326,169.265 177.326,170.447 177.33,172.129 L175.196,172.129 L175.196,166.113 C175.196,165.406 174.998,164.617 174.406,164.318 C173.59,163.907 172.055,164.079 171.439,165.115 L171.439,172.129 L169.317,172.129 L169.317,162.526 Z M159.135,162.526 L161.081,162.526 L161.178,163.943 C161.975,162.755 163.008,162.226 164.279,162.358 C165.014,162.434 166.566,162.675 167.029,164.764 C167.198,165.53 167.162,166.824 167.149,168.582 C167.144,169.265 167.144,170.447 167.149,172.129 L165.014,172.129 L165.014,166.113 C165.014,165.406 164.817,164.617 164.224,164.318 C163.409,163.907 161.874,164.079 161.258,165.115 L161.258,172.129 L159.135,172.129 L159.135,162.526 Z M150.143,162.616 L152.256,162.616 L149.662,172.129 L147.925,172.129 L145.825,165.834 L143.842,172.129 L142.082,172.129 L139.394,162.616 L141.604,162.616 L143.034,169.268 L145.088,162.616 L146.661,162.616 L148.688,169.268 L150.143,162.616 Z M138.154,167.716 L132.301,167.716 C132.43,170.419 134.101,171.072 137.317,169.676 L138.001,170.991 C137.409018,171.480094 136.707895,171.819336 135.957,171.98 C134.367,172.326 132.813,172.061 131.735,171.266 C129.399,169.543 129.995,165.923 130.51,164.676 C130.75,164.093 131.935,162.45 133.343,162.291 C134.619,162.148 137.777,161.844 138.154,166.089 C138.184,166.953 138.184,167.495 138.154,167.716 Z M136.08501,165.956 C136.087,164.446 135.489,163.69 134.293,163.69 C132.498,163.69 132.317,165.956 132.317,165.956 L136.08501,165.956 Z M123.437,166.895 L123.437,165.305 L128.246,165.305 C128.3,168.076 128.3,169.692 128.246,170.152 C127.84,171.365 123.038,173.57 119.937,170.772 C119.013,169.939 118.578,169.015 118.341,167.617 C118.33,166.189 118.304,164.849 118.314,163.582 C118.549,162.029 119.069,161.147 119.488,160.646 C121.013,158.824 123.442,158.432 125.578,159.17 C127.714,159.908 127.992,161.443 128.164,162.943 C127.67,162.943 127.409,162.922 126.073,162.943 C126.208,162.099 125.44,160.466 123.436,160.556 C121.431,160.646 120.486,162.293 120.486,163.665 C120.486,165.037 120.413,164.576 120.486,167.302 C120.576,170.432 124.329,171.272 126.073,169.6 L126.137,166.935 L123.437,166.895 Z M154.001,162.541 L156.055,162.541 L156.055,172.129 L154.001,172.129 L154.001,162.541 Z M154.043,158.356 L156.139,158.356 L156.139,160.176 L154.043,160.176 L154.043,158.356 Z M181.891,168.106 L179.493,168.106 L179.493,160.462 L181.891,160.462 L181.891,168.106 Z M181.891,172.129 L179.493,172.129 L179.493,170.075 L181.891,170.075 L181.891,172.129 Z" id="Shape" fill="#FFFFFF" fill-rule="nonzero"></path>
            <path d="M22.2038574,20.8027344 L18.3513184,20.8027344 L17.6188965,23 L15.2824707,23 L19.2521973,12.3359375 L21.2883301,12.3359375 L25.2800293,23 L22.9436035,23 L22.2038574,20.8027344 Z M18.9445801,19.0229492 L21.6105957,19.0229492 L20.2702637,15.03125 L18.9445801,19.0229492 Z M33.2780762,19.1108398 C33.2780762,20.3803774 33.0070828,21.3703578 32.4650879,22.0808105 C31.923093,22.7912633 31.1662646,23.1464844 30.1945801,23.1464844 C29.3352008,23.1464844 28.6491725,22.8168978 28.1364746,22.1577148 L28.0412598,23 L26.1369629,23 L26.1369629,11.75 L28.2536621,11.75 L28.2536621,15.7856445 C28.7419458,15.2143526 29.3840292,14.9287109 30.1799316,14.9287109 C31.1467333,14.9287109 31.9047824,15.283932 32.4541016,15.9943848 C33.0034207,16.7048375 33.2780762,17.7045834 33.2780762,18.9936523 L33.2780762,19.1108398 Z M31.161377,18.9570312 C31.161377,18.156246 31.0344251,17.571535 30.7805176,17.2028809 C30.5266101,16.8342267 30.1481959,16.6499023 29.6452637,16.6499023 C28.9714322,16.6499023 28.5075696,16.9257785 28.2536621,17.4775391 L28.2536621,20.6049805 C28.5124525,21.1616239 28.9811978,21.4399414 29.6599121,21.4399414 C30.3435093,21.4399414 30.7927235,21.1030307 31.0075684,20.4291992 C31.1101079,20.106932 31.161377,19.6162142 31.161377,18.9570312 Z" id="Ab" fill="#000000" fill-rule="nonzero"></path>
        </g>
    </g>
</svg>