<svg width="301" height="200" viewBox="0 0 301 200" xmlns="http://www.w3.org/2000/svg"><title>Deutsch falls</title><g fill="none" fill-rule="evenodd"><path fill="#F1F2F2" fill-rule="nonzero" d="M.656.637h300v199h-300z"/><path d="M39.781 56.012v19.375h36.125V56.012H39.781zm0-1h36.125V34.637h1v20.375h36.125V34.637h1v20.375h36.125V34.637h1v20.375h36.125V34.637h1v20.375h36.125V34.637h1v20.375h36.125V34.637h1v20.375h37.625v1h-37.625v19.375h37.625v1h-37.625v19.375h37.625v1h-37.625v19.375h37.625v1h-37.625v19.375h37.625v1h-37.625v19.375h37.625v1h-37.625v19.375h37.625v1h-37.625v21.375h-1v-21.375h-36.125v21.375h-1v-21.375h-36.125v21.375h-1v-21.375h-36.125v21.375h-1v-21.375h-36.125v21.375h-1v-21.375H76.906v21.375h-1v-21.375H39.781v21.375h-1v-21.375H2.156v-1h36.625v-19.375H2.156v-1h36.625v-19.375H2.156v-1h36.625v-19.375H2.156v-1h36.625V96.762H2.156v-1h36.625V76.387H2.156v-1h36.625V56.012H2.156v-1h36.625V34.637h1v20.375zm221.75 1h-36.125v19.375h36.125V56.012zm-37.125 0h-36.125v19.375h36.125V56.012zm-37.125 0h-36.125v19.375h36.125V56.012zm-37.125 0h-36.125v19.375h36.125V56.012zm-37.125 0H76.906v19.375h36.125V56.012zm-73.25 20.375v19.375h36.125V76.387H39.781zm221.75 0h-36.125v19.375h36.125V76.387zm-37.125 0h-36.125v19.375h36.125V76.387zm-37.125 0h-36.125v19.375h36.125V76.387zm-37.125 0h-36.125v19.375h36.125V76.387zm-37.125 0H76.906v19.375h36.125V76.387zm-73.25 20.375v19.375h36.125V96.762H39.781zm221.75 0h-36.125v19.375h36.125V96.762zm-37.125 0h-36.125v19.375h36.125V96.762zm-37.125 0h-36.125v19.375h36.125V96.762zm-37.125 0h-36.125v19.375h36.125V96.762zm-37.125 0H76.906v19.375h36.125V96.762zm-73.25 20.375v19.375h36.125v-19.375H39.781zm221.75 0h-36.125v19.375h36.125v-19.375zm-37.125 0h-36.125v19.375h36.125v-19.375zm-37.125 0h-36.125v19.375h36.125v-19.375zm-37.125 0h-36.125v19.375h36.125v-19.375zm-37.125 0H76.906v19.375h36.125v-19.375zm-73.25 20.375v19.375h36.125v-19.375H39.781zm221.75 0h-36.125v19.375h36.125v-19.375zm-37.125 0h-36.125v19.375h36.125v-19.375zm-37.125 0h-36.125v19.375h36.125v-19.375zm-37.125 0h-36.125v19.375h36.125v-19.375zm-37.125 0H76.906v19.375h36.125v-19.375zm-73.25 20.375v19.375h36.125v-19.375H39.781zm221.75 0h-36.125v19.375h36.125v-19.375zm-37.125 0h-36.125v19.375h36.125v-19.375zm-37.125 0h-36.125v19.375h36.125v-19.375zm-37.125 0h-36.125v19.375h36.125v-19.375zm-37.125 0H76.906v19.375h36.125v-19.375z" fill="#DFDEDE" fill-rule="nonzero"/><path stroke="#C2C2C2" stroke-width="2" d="M1.656 1.637h298v197h-298z"/><path fill="#C2C2C2" fill-rule="nonzero" d="M.656 33.637h300v2h-300z"/><g transform="translate(3.656 94.83)"><path d="M.266 22.899h293.202" stroke="#2A3052" stroke-width="1.146" stroke-linejoin="round"/><path stroke="#2A3052" stroke-width="3.439" stroke-linecap="round" stroke-linejoin="round" d="M35.924 22.899L69.95 47.696 105.152 8.62l33.607 36.19L184.025.418l43.785 90.38L258.228 64.1"/><path d="M26.582 49.557c0-.494-.19-.873-.531-1.215-.342-.304-.988-.608-1.9-.798-1.1-.266-1.936-.645-2.581-1.177a2.457 2.457 0 0 1-.874-1.937c0-.835.342-1.519.988-2.05.645-.57 1.519-.836 2.582-.836 1.14 0 2.05.304 2.696.95.684.645.987 1.367.987 2.202v.038h-1.367c0-.607-.19-1.101-.607-1.48-.418-.38-.988-.57-1.71-.57-.683 0-1.214.151-1.594.493-.38.303-.59.769-.57 1.253 0 .456.19.836.608 1.14.418.303 1.063.57 1.975.797 1.1.266 1.936.684 2.506 1.215.57.532.873 1.215.873 1.975 0 .835-.341 1.519-1.025 2.05-.684.532-1.557.76-2.658.76a4.602 4.602 0 0 1-2.734-.873 2.53 2.53 0 0 1-1.14-2.279v-.038h1.33c0 .684.227 1.177.721 1.557.494.342 1.101.532 1.823.532.721 0 1.253-.152 1.67-.456.342-.304.532-.721.532-1.253zm5.05-7.063v1.898h1.444v1.064h-1.443v4.747c0 .38.076.607.228.759.152.152.342.228.607.228.076 0 .152 0 .266-.038.114 0 .19-.038.266-.076l.19.987a2.528 2.528 0 0 1-.456.228c-.19.038-.418.076-.607.076a1.86 1.86 0 0 1-1.368-.532c-.341-.341-.493-.91-.493-1.632v-4.747h-1.253v-1.064h1.215v-1.898h1.405zm7.9 9.721c-.038-.228-.076-.456-.114-.645-.038-.19-.038-.342-.038-.532-.266.38-.608.684-1.026.95a2.48 2.48 0 0 1-1.367.38c-.797 0-1.405-.19-1.822-.646a2.316 2.316 0 0 1-.646-1.71c0-.759.304-1.328.873-1.746.608-.418 1.405-.646 2.43-.646h1.52v-.76c0-.455-.152-.835-.418-1.1-.266-.266-.646-.418-1.177-.418-.456 0-.836.114-1.101.342-.266.227-.418.531-.418.835h-1.291v-.038c-.038-.57.228-1.101.797-1.557.57-.456 1.291-.721 2.165-.721.873 0 1.557.227 2.088.683.532.456.798 1.101.798 1.937v3.76c0 .265 0 .53.038.797.038.266.076.531.152.76h-1.443v.075zm-2.317-1.025c.494 0 .95-.114 1.367-.38.418-.266.684-.57.798-.911v-1.253h-1.557c-.57 0-1.026.151-1.367.417a1.205 1.205 0 0 0-.494.988c0 .341.114.607.304.835.228.19.531.304.95.304zm9.266-5.544l-.722-.038c-.38 0-.683.076-.949.265-.266.19-.456.418-.57.76v5.582h-1.405v-7.823h1.254l.152 1.14c.227-.418.493-.722.797-.95.304-.228.684-.341 1.101-.341.114 0 .19 0 .304.037.076 0 .19.038.228.038l-.19 1.33zm3.304-3.152v1.898h1.443v1.064h-1.443v4.747c0 .38.076.607.228.759.152.152.341.228.607.228.076 0 .152 0 .266-.038.114 0 .19-.038.266-.076l.19.987a2.528 2.528 0 0 1-.456.228c-.19.038-.418.076-.608.076a1.86 1.86 0 0 1-1.367-.532c-.341-.341-.493-.91-.493-1.632v-4.747h-1.215v-1.064h1.215v-1.898h1.367z" fill="#2A3052" fill-rule="nonzero"/><path d="M185.62 54.19h-35.392l-5.469-8.317-5.468 8.317H103.9c-2.658 0-4.785 2.164-4.785 4.86v25.102c0 2.696 2.127 4.86 4.785 4.86h81.683c2.659 0 4.785-2.164 4.785-4.86V59.05c0-2.659-2.126-4.861-4.747-4.861z" fill="#E88024" fill-rule="nonzero"/><ellipse cx="8.544" cy="8.772" rx="8.203" ry="8.582" opacity=".6" transform="translate(27.38 14.127)" fill="#FFF" fill-rule="nonzero"/><ellipse stroke="#E88024" stroke-width="2.293" cx="35.924" cy="22.899" rx="8.203" ry="8.582"/><ellipse cx="8.595" cy="9.392" rx="8.203" ry="8.582" opacity=".6" transform="translate(249.633 54.101)" fill="#FFF" fill-rule="nonzero"/><ellipse stroke="#E88024" stroke-width="2.293" cx="258.228" cy="63.494" rx="8.203" ry="8.582"/></g><g fill="#2A3052" fill-rule="nonzero"><path d="M256.04 183.858h-4.262v3.375h4.943v.988h-6.204v-9.443h6.136v.989h-4.875v3.068h4.261zM259.346 181.165l.102 1.056a2.304 2.304 0 0 1 2.046-1.159c.75 0 1.33.205 1.738.682.41.443.614 1.125.614 2.045v4.432h-1.262v-4.397c0-.614-.136-1.057-.375-1.33-.238-.273-.613-.375-1.09-.375-.375 0-.682.102-.955.273-.273.17-.511.409-.682.716v5.113h-1.261V181.2l1.125-.034zM265.118 184.674c0-1.125.239-2.045.716-2.727.477-.682 1.16-1.023 2.012-1.023.409 0 .784.069 1.09.24.307.135.58.374.819.647v-3.852h1.26v10.124h-1.022l-.136-.852a2.42 2.42 0 0 1-.818.75c-.362.17-.76.252-1.16.239-.852 0-1.5-.307-1.977-.92-.477-.614-.715-1.432-.715-2.455v-.17h-.069zm1.245.138c0 .716.136 1.296.443 1.705.307.409.716.647 1.33.647.374 0 .681-.102.954-.272.273-.17.477-.41.613-.716v-3.273a1.786 1.786 0 0 0-.647-.682 1.715 1.715 0 0 0-.92-.272c-.614 0-1.057.238-1.33.75-.273.51-.443 1.159-.443 1.977v.136zM278.105 184.943h-5.028c.13 1.531.759 2.297 1.888 2.297 1.693 0 1.928-1.436 1.928-1.345l1.112-.005c-.542 1.554-1.555 2.331-3.04 2.331-2.228 0-3.01-1.576-3.104-3.278-.094-1.702.473-3.986 3.122-3.986 2.172.04 3.213 1.369 3.122 3.986zm-1.261-.905c-.127-1.353-.756-2.03-1.889-2.03-1.132 0-1.761.677-1.888 2.03h3.777z"/></g><g fill="#6D6E71" fill-rule="nonzero"><path d="M265.891 140.187h1.138l.978-6.667h-1.165zM268.977 130.512l-.228 1.855h-1.67l.285-1.855z"/><path opacity=".9" d="M253.247 132.353l.16-.926h5.308l-.107.926-4.931 7.14h4.468l-.154.962h-5.636v-.962l4.89-7.14zM270.62 130.522h1.183l-1.414 9.677h-1.147zM263.537 138.831c.069.175.149.361.335.774-1.411 1.116-3.034.963-3.793.502-1.142-.694-1.142-1.984-1.137-2.982.008-1.273.91-3.64 3.42-3.64s2.098 2.813 1.976 3.64c-.256 0-1.64.026-4.153.078-.233 3.094 2.02 2.402 3.352 1.628zm-.151-2.488c.146-1.221-.216-1.832-1.085-1.832-1.305 0-1.762 1.434-1.908 1.832h2.993z"/></g><g fill="#FFF" fill-rule="nonzero"><path d="M166.864 163.116h1.945l.098 1.417c.796-1.188 1.83-1.717 3.1-1.585.736.076 2.287.317 2.75 2.406.17.766.133 2.06.12 3.818-.004.683-.004 1.865 0 3.547h-2.134v-6.016c0-.707-.198-1.496-.79-1.795-.816-.411-2.351-.239-2.967.797v7.014h-2.122v-9.603zM156.682 163.116h1.946l.097 1.417c.797-1.188 1.83-1.717 3.101-1.585.735.076 2.287.317 2.75 2.406.169.766.133 2.06.12 3.818-.005.683-.005 1.865 0 3.547h-2.135v-6.016c0-.707-.197-1.496-.79-1.795-.815-.411-2.35-.239-2.966.797v7.014h-2.123v-9.603zM147.69 163.206h2.113l-2.594 9.513h-1.737l-2.1-6.295-1.983 6.295h-1.76l-2.688-9.513h2.21l1.43 6.652 2.054-6.652h1.573l2.027 6.652zM135.701 168.306h-5.853c.129 2.703 1.8 3.356 5.016 1.96l.684 1.315a4.779 4.779 0 0 1-2.044.989c-1.59.346-3.144.081-4.222-.714-2.336-1.723-1.74-5.343-1.225-6.59.24-.583 1.425-2.226 2.833-2.385 1.276-.143 4.434-.447 4.811 3.798.03.864.03 1.406 0 1.627zm-2.069-1.76c.002-1.51-.596-2.266-1.792-2.266-1.795 0-1.976 2.266-1.976 2.266h3.768zM120.984 167.485v-1.59h4.809c.054 2.771.054 4.387 0 4.847-.406 1.213-5.208 3.418-8.309.62-.924-.833-1.359-1.757-1.596-3.155-.011-1.428-.037-2.768-.027-4.035.235-1.553.755-2.435 1.174-2.936 1.525-1.822 3.954-2.214 6.09-1.476 2.136.738 2.414 2.273 2.586 3.773-.494 0-.755-.021-2.091 0 .135-.844-.633-2.477-2.637-2.387-2.005.09-2.95 1.737-2.95 3.109 0 1.372-.073.911 0 3.637.09 3.13 3.843 3.97 5.587 2.298l.064-2.665-2.7-.04zM151.548 163.131h2.054v9.588h-2.054v-9.588zm.042-4.185h2.096v1.82h-2.096v-1.82zM179.438 168.696h-2.398v-7.644h2.398v7.644zm0 4.023h-2.398v-2.054h2.398v2.054z"/></g><path d="M26.317 24.54h-2.415l-4.881-8.259-.05.009v8.25h-2.424V12.456h2.424l4.881 8.25.05-.008v-8.242h2.415V24.54zm4.616 0h-2.424v-8.98h2.424v8.98zm0-11.13h-2.424V11.59h2.424v1.818zM36.9 24.714c-1.295 0-2.33-.415-3.105-1.245-.774-.83-1.162-1.885-1.162-3.163v-.332c0-1.334.367-2.432 1.1-3.295.733-.864 1.717-1.292 2.951-1.287 1.212 0 2.153.365 2.822 1.096.67.73 1.005 1.718 1.005 2.963v1.32h-5.363l-.016.05c.044.592.242 1.079.593 1.46.352.383.829.573 1.432.573.537 0 .982-.053 1.337-.161a6.142 6.142 0 0 0 1.162-.51l.656 1.493c-.366.3-.844.547-1.437.743a6.249 6.249 0 0 1-1.975.295zm-.216-7.454c-.448 0-.802.171-1.062.514-.26.343-.421.794-.482 1.353l.025.042h2.972v-.216c0-.515-.12-.925-.361-1.233-.241-.307-.605-.46-1.092-.46zm4.864 2.864c0-1.417.306-2.56.918-3.429.611-.869 1.473-1.303 2.585-1.303.448 0 .852.097 1.212.29.36.194.675.471.946.83v-4.922h2.433v12.95h-2.084l-.2-1.096c-.281.415-.615.73-1 .946a2.659 2.659 0 0 1-1.323.324c-1.102 0-1.958-.404-2.57-1.212-.61-.808-.917-1.876-.917-3.204v-.174zm2.416.174c0 .786.133 1.404.398 1.855.266.451.698.677 1.295.677.349 0 .653-.071.913-.212.26-.141.473-.347.64-.619v-3.826a1.865 1.865 0 0 0-.636-.66 1.689 1.689 0 0 0-.9-.237c-.592 0-1.025.263-1.3.789-.273.526-.41 1.212-.41 2.059v.174zm12.277-2.656l-.888-.025c-.36 0-.656.074-.889.224-.232.15-.41.36-.53.63v6.069h-2.416v-8.982h2.25l.107 1.328c.21-.47.483-.837.818-1.1.334-.263.72-.394 1.158-.394.121 0 .233.01.336.03.102.018.206.042.311.07l-.257 2.15zm3.777 6.898h-2.424v-8.982h2.424v8.982zm0-11.132h-2.424v-1.818h2.424v1.818zm1.618 6.716c0-1.417.309-2.56.926-3.429.617-.869 1.481-1.303 2.594-1.303.503 0 .946.114 1.328.34.382.227.708.551.98.972l.19-1.146h2.092v8.94c0 1.168-.383 2.071-1.15 2.71-.766.64-1.833.959-3.2.959-.453 0-.935-.062-1.444-.187a6.707 6.707 0 0 1-1.411-.51l.448-1.81c.371.177.749.311 1.133.403a5.44 5.44 0 0 0 1.258.137c.664 0 1.152-.139 1.465-.415.313-.277.469-.709.469-1.295v-.814a2.712 2.712 0 0 1-.938.772c-.36.177-.772.266-1.237.266-1.101 0-1.96-.406-2.577-1.216-.617-.81-.926-1.878-.926-3.2v-.174zm2.424.174c0 .786.133 1.404.398 1.855.266.451.698.677 1.295.677.371 0 .685-.068.943-.204.257-.135.463-.333.618-.593v-3.902a1.672 1.672 0 0 0-.618-.63c-.258-.15-.566-.225-.926-.225-.592 0-1.025.263-1.3.789-.273.526-.41 1.212-.41 2.059v.174zm11.522 4.416c-1.295 0-2.33-.415-3.105-1.245-.775-.83-1.162-1.885-1.162-3.163v-.332c0-1.334.367-2.432 1.1-3.295.733-.864 1.717-1.292 2.95-1.287 1.213 0 2.153.365 2.823 1.096.67.73 1.004 1.718 1.004 2.963v1.32h-5.362l-.017.05c.045.592.243 1.079.594 1.46.351.383.829.573 1.432.573.537 0 .982-.053 1.336-.161a6.142 6.142 0 0 0 1.162-.51l.656 1.493c-.365.3-.844.547-1.436.743a6.249 6.249 0 0 1-1.975.295zm-.216-7.454c-.449 0-.803.171-1.063.514-.26.343-.42.794-.481 1.353l.025.042h2.971v-.216c0-.515-.12-.925-.36-1.233-.241-.307-.605-.46-1.092-.46zm9.96.382l-.888-.025c-.36 0-.655.074-.888.224-.232.15-.41.36-.531.63v6.069h-2.416v-8.982h2.25l.108 1.328c.21-.47.483-.837.818-1.1.334-.263.72-.394 1.157-.394.122 0 .234.01.337.03.102.018.206.042.311.07l-.257 2.15z" fill="#000"/></g></svg>