<?xml version="1.0" encoding="UTF-8"?>
<svg width="299px" height="197px" viewBox="0 0 299 197" version="1.1" xmlns="http://www.w3.org/2000/svg" xmlns:xlink="http://www.w3.org/1999/xlink">
    <!-- Generator: Sketch 52.5 (67469) - http://www.bohemiancoding.com/sketch -->
    <title>goes outside</title>
    <desc>Created with Sketch.</desc>
    <g id="Page-1" stroke="none" stroke-width="1" fill="none" fill-rule="evenodd">
        <g id="goes-outside">
            <g id="Group">
                <polygon id="Path" fill="#F1F2F2" points="0 0 299 0 299 197 0 197"></polygon>
                <path d="M1.98671096,1.9798995 L1.98671096,195.020101 L297.013289,195.020101 L297.013289,1.9798995 L1.98671096,1.9798995 Z M299,0 L299,197 L0,197 L0,0 L299,0 Z" id="Path" fill="#C2C2C2" fill-rule="nonzero"></path>
                <path d="M4.887,55.4456836 L4.887,54.2388448 L294.54325,54.2388448 L294.54325,55.4456836 L4.887,55.4456836 Z M4.887,95.9796458 L4.887,94.772807 L294.54325,94.772807 L294.54325,95.9796458 L4.887,95.9796458 Z M4.887,136.513608 L4.887,135.30677 L294.54325,135.30677 L294.54325,136.513608 L4.887,136.513608 Z M4.887,177.010211 L4.887,175.803373 L294.54325,175.803373 L294.54325,177.010211 L4.887,177.010211 Z M39.2665806,34.5939623 L40.4734194,34.5939623 L40.4734194,194.264151 L39.2665806,194.264151 L39.2665806,34.5939623 Z M75.9314556,34.5939623 L77.1382944,34.5939623 L77.1382944,194.264151 L75.9314556,194.264151 L75.9314556,34.5939623 Z M112.558956,34.5939623 L113.765794,34.5939623 L113.765794,194.264151 L112.558956,194.264151 L112.558956,34.5939623 Z M149.223831,34.5939623 L150.430669,34.5939623 L150.430669,194.264151 L149.223831,194.264151 L149.223831,34.5939623 Z M185.851331,34.5939623 L187.058169,34.5939623 L187.058169,194.264151 L185.851331,194.264151 L185.851331,34.5939623 Z M222.478831,34.5939623 L223.685669,34.5939623 L223.685669,194.264151 L222.478831,194.264151 L222.478831,34.5939623 Z M4.887,116.227948 L4.887,115.021109 L294.54325,115.021109 L294.54325,116.227948 L4.887,116.227948 Z" id="Shape" fill="#DFDEDE" fill-rule="nonzero"></path>
                <path d="M259.143706,34.5939623 L260.350544,34.5939623 L260.350544,194.264151 L259.143706,194.264151 L259.143706,34.5939623 Z M4.887,75.7313439 L4.887,74.5245051 L294.54325,74.5245051 L294.54325,75.7313439 L4.887,75.7313439 Z M4.887,156.76191 L4.887,155.555072 L294.54325,155.555072 L294.54325,156.76191 L4.887,156.76191 Z" id="Shape" fill="#2A3052" fill-rule="nonzero"></path>
                <polygon id="Path" fill="#C2C2C2" fill-rule="nonzero" points="2.794 34.6055162 2.794 32.1914649 296.63625 32.1914649 296.63625 34.6055162"></polygon>
                <path d="M40.7780566,117.19078 C39.9130397,117.692286 38.8052541,117.397602 38.3037483,116.532585 C37.8022425,115.667568 38.0969265,114.559782 38.9619434,114.058277 L75.6268184,92.8012955 C76.2847374,92.4198577 77.110905,92.4902479 77.6948117,92.9774903 L110.13667,120.048685 L148.812609,93.8768219 C149.491995,93.4170836 150.395598,93.4715961 151.014788,94.0096747 L186.128007,124.523193 L221.601392,74.0864018 C222.176609,73.2685463 223.305917,73.071849 224.123773,73.6470661 C224.941628,74.2222832 225.138325,75.3515916 224.563108,76.1694472 L187.935608,128.247183 C187.318256,129.124947 186.077222,129.276114 185.267212,128.572212 L149.68976,97.655274 L111.037516,123.811103 C110.369276,124.263299 109.482446,124.218705 108.862938,123.701755 L76.3473092,96.5690015 L40.7780566,117.19078 Z" id="Path" fill="#2A3052" fill-rule="nonzero"></path>
                <path d="M187.987125,146.445283 L153.0415,146.445283 L147.6595,138.263774 L142.2775,146.445283 L107.331875,146.445283 C106.07173,146.451176 104.865994,146.959272 103.98197,147.856931 C103.097947,148.754589 102.608676,149.967645 102.622625,151.22717 L102.622625,175.921132 C102.606032,178.539822 104.712091,180.678366 107.331875,180.703019 L188.0245,180.703019 C189.284645,180.697126 190.490381,180.18903 191.374405,179.291371 C192.258428,178.393713 192.747699,177.180657 192.73375,175.921132 L192.73375,151.22717 C192.73971,149.963586 192.242729,148.749496 191.352348,147.8525 C190.461966,146.955504 189.251275,146.449236 187.987125,146.445283 Z" id="Path" fill="#E88024"></path>
                <g opacity="0.6" transform="translate(214.037500, 66.509434)" fill="#FFFFFF" id="Oval">
                    <ellipse cx="9.04475" cy="8.6184906" rx="8.110375" ry="8.44301887"></ellipse>
                </g>
                <path d="M223.08225,84.777969 C217.925296,84.777969 213.764849,80.4468836 213.764849,75.1279245 C213.764849,69.8089654 217.925296,65.47788 223.08225,65.47788 C228.239204,65.47788 232.399651,69.8089654 232.399651,75.1279245 C232.399651,80.4468836 228.239204,84.777969 223.08225,84.777969 Z M223.08225,82.3639177 C226.883769,82.3639177 229.985599,79.1348665 229.985599,75.1279245 C229.985599,71.1209825 226.883769,67.8919313 223.08225,67.8919313 C219.280731,67.8919313 216.178901,71.1209825 216.178901,75.1279245 C216.178901,79.1348665 219.280731,82.3639177 223.08225,82.3639177 Z" id="Oval" fill="#E88024" fill-rule="nonzero"></path>
                <g opacity="0.6" transform="translate(30.900000, 106.603774)" fill="#FFFFFF" id="Oval">
                    <ellipse cx="8.97" cy="9.0207547" rx="8.110375" ry="8.44301887"></ellipse>
                </g>
                <path d="M39.87,125.274573 C34.7130457,125.274573 30.5525994,120.943487 30.5525994,115.624528 C30.5525994,110.305569 34.7130457,105.974484 39.87,105.974484 C45.0269543,105.974484 49.1874006,110.305569 49.1874006,115.624528 C49.1874006,120.943487 45.0269543,125.274573 39.87,125.274573 Z M39.87,122.860522 C43.6715185,122.860522 46.7733494,119.63147 46.7733494,115.624528 C46.7733494,111.617586 43.6715185,108.388535 39.87,108.388535 C36.0684815,108.388535 32.9666506,111.617586 32.9666506,115.624528 C32.9666506,119.63147 36.0684815,122.860522 39.87,122.860522 Z" id="Oval" fill="#E88024" fill-rule="nonzero"></path>
            </g>
            <path d="M29.71,137.866 C29.7119602,137.409675 29.5208982,136.973792 29.184,136.666 C28.6326107,136.254362 27.9889077,135.983835 27.309,135.878 C26.3788029,135.698027 25.5047509,135.299391 24.759,134.715 C24.1857782,134.246186 23.8550206,133.543509 23.859,132.803 C23.849,132.013 24.21,131.263 24.835,130.778 C25.5533416,130.196403 26.4621196,129.902386 27.385,129.953 C28.3733705,129.898165 29.34351,130.235199 30.085,130.891 C30.71,131.439 31.066,132.233 31.059,133.066 L31.059,133.103 L29.672,133.103 C29.6980259,132.550629 29.4783715,132.015038 29.072,131.64 C28.5901517,131.238738 27.9727441,131.037589 27.347,131.078 C26.7786465,131.030866 26.2141364,131.205774 25.772,131.566 C25.3975831,131.864784 25.1883854,132.324424 25.209,132.803 C25.205,133.256 25.431,133.68 25.809,133.928 C26.406,134.308 27.067,134.575 27.759,134.715 C28.6732968,134.896906 29.5257362,135.310043 30.235,135.915 C30.785,136.414 31.099,137.123 31.097,137.865 C31.11,138.665 30.732,139.421 30.085,139.89 C29.3064929,140.431425 28.3686399,140.695559 27.422,140.64 C26.4413373,140.648126 25.4831381,140.346457 24.684,139.778 C23.9354267,139.277807 23.4965215,138.427948 23.522,137.528 L23.522,137.491 L24.835,137.491 C24.799,138.091 25.066,138.668 25.547,139.028 C26.0704739,139.401296 26.704923,139.586344 27.347,139.553 C27.9312624,139.586051 28.5104151,139.4281 28.997,139.103 C29.447,138.857 29.723,138.379 29.71,137.866 Z M34.697,130.928 L34.697,132.803 L36.159,132.803 L36.159,133.853 L34.697,133.853 L34.697,138.541 C34.667,138.811 34.747,139.081 34.922,139.291 C35.082,139.447 35.299,139.528 35.522,139.515 C35.612,139.519 35.7,139.506 35.785,139.478 C35.873,139.458 35.961,139.433 36.047,139.403 L36.235,140.378 C36.092,140.468 35.942,140.543 35.785,140.603 C35.587735,140.646415 35.3868822,140.671522 35.185,140.678 C34.6821073,140.695171 34.1941644,140.505416 33.835,140.153 C33.4693946,139.699308 33.2944118,139.121291 33.347,138.541 L33.347,133.853 L32.072,133.853 L32.072,132.803 L33.272,132.803 L33.272,130.928 L34.697,130.928 Z M42.534,140.491 C42.497,140.265 42.459,140.041 42.422,139.853 C42.3907073,139.679848 42.3779686,139.503853 42.384,139.328 C42.1127998,139.705207 41.7686756,140.024168 41.372,140.266 C40.9680149,140.519455 40.4988167,140.64944 40.022,140.64 C39.3765192,140.709783 38.7330899,140.491552 38.2632472,140.043486 C37.7934046,139.59542 37.544906,138.963064 37.584,138.315 C37.5574824,137.621222 37.8997876,136.965137 38.484,136.59 C39.1998747,136.136865 40.0376397,135.914509 40.884,135.953 L42.384,135.953 L42.384,135.203 C42.3983559,134.800018 42.2498573,134.408226 41.972,134.116 C41.6537856,133.830655 41.23591,133.68226 40.809,133.703 C40.4179215,133.682181 40.0323148,133.802085 39.722,134.041 C39.4707303,134.24271 39.3199184,134.543969 39.309,134.866 L37.997,134.866 L37.997,134.828 C37.9806475,134.214873 38.2776243,133.635618 38.785,133.291 C39.3931873,132.812876 40.1485657,132.560847 40.922,132.578 C41.6806082,132.541543 42.4267086,132.781361 43.022,133.253 C43.562,133.737 43.852,134.441 43.81,135.165 L43.81,138.878 C43.8,139.397 43.863,139.914 43.997,140.415 L42.535,140.415 L42.535,140.491 L42.534,140.491 Z M40.247,139.478 C40.724,139.488 41.193,139.357 41.597,139.103 C41.956,138.903 42.234,138.585 42.385,138.203 L42.385,136.966 L40.81,136.966 C40.3264072,136.947105 39.8506361,137.092303 39.46,137.378 C39.149,137.605 38.967,137.968 38.972,138.353 C38.968,138.655 39.075,138.949 39.272,139.178 C39.552,139.388 39.897,139.494 40.247,139.478 Z M49.397,134.003 L48.685,133.965 C48.3520873,133.94864 48.0228784,134.040945 47.747,134.228 C47.4800304,134.416156 47.2719642,134.676239 47.147,134.978 L47.147,140.491 L45.76,140.491 L45.76,132.765 L46.997,132.765 L47.147,133.89 C47.338,133.524 47.607,133.204 47.935,132.953 C48.2508599,132.725077 48.6326028,132.606727 49.022,132.616 C49.1234253,132.609752 49.2251321,132.622296 49.322,132.653 C49.397,132.653 49.51,132.691 49.547,132.691 L49.397,134.003 Z M52.697,130.928 L52.697,132.803 L54.159,132.803 L54.159,133.853 L52.697,133.853 L52.697,138.541 C52.667,138.811 52.747,139.081 52.922,139.291 C53.082,139.447 53.299,139.528 53.522,139.515 C53.612,139.519 53.7,139.506 53.785,139.478 C53.873,139.458 53.961,139.433 54.047,139.403 L54.235,140.378 C54.092,140.468 53.942,140.543 53.785,140.603 C53.587735,140.646415 53.3868822,140.671522 53.185,140.678 C52.6821073,140.695171 52.1941644,140.505416 51.835,140.153 C51.4693946,139.699308 51.2944118,139.121291 51.347,138.541 L51.347,133.853 L50.147,133.853 L50.147,132.803 L51.347,132.803 L51.347,130.928 L52.697,130.928 Z" id="Shape" fill="#2A3052" fill-rule="nonzero"></path>
            <path d="M22.38,19.81 C22.09,20.19 21.655,20.52 21.078,20.8 C20.501,21.08 19.758,21.22 18.847,21.22 C17.718,21.22 16.795,20.866 16.077,20.157 C15.359,19.447 15,18.526 15,17.393 L15,15.443 C15,14.315 15.348,13.395 16.045,12.683 C16.742,11.971 17.637,11.616 18.732,11.616 C19.872,11.616 20.747,11.886 21.354,12.426 C21.961,12.967 22.254,13.689 22.233,14.591 L22.22,14.629 L20.455,14.629 C20.455,14.133 20.312,13.748 20.025,13.472 C19.739,13.196 19.323,13.058 18.775,13.058 C18.203,13.058 17.741,13.279 17.39,13.722 C17.04,14.164 16.865,14.734 16.865,15.431 L16.865,17.393 C16.865,18.098 17.045,18.673 17.403,19.118 C17.763,19.562 18.243,19.785 18.846,19.785 C19.29,19.785 19.642,19.74 19.901,19.65 C20.159,19.56 20.359,19.447 20.501,19.31 L20.501,17.503 L18.705,17.503 L18.705,16.208 L22.379,16.208 L22.379,19.811 L22.38,19.81 Z M26.836,21.22 C25.802,21.22 24.994,20.904 24.413,20.269 C23.831,19.634 23.541,18.816 23.541,17.816 L23.541,17.56 C23.541,16.52 23.823,15.67 24.387,15.008 C24.951,14.345 25.727,14.016 26.715,14.02 C27.647,14.02 28.361,14.305 28.859,14.876 C29.357,15.446 29.606,16.216 29.606,17.181 L29.606,18.15 L25.471,18.15 L25.451,18.188 C25.481,18.662 25.626,19.048 25.884,19.342 C26.143,19.637 26.527,19.785 27.035,19.785 C27.455,19.785 27.81,19.742 28.103,19.656 C28.396,19.571 28.698,19.44 29.01,19.266 L29.517,20.419 C29.239,20.646 28.863,20.836 28.388,20.99 C27.914,21.144 27.396,21.22 26.836,21.22 Z M26.715,15.463 C26.338,15.463 26.049,15.593 25.845,15.851 C25.643,16.109 25.52,16.452 25.477,16.88 L25.49,16.912 L27.773,16.912 L27.773,16.771 C27.773,16.365 27.689,16.045 27.523,15.812 C27.356,15.579 27.087,15.462 26.715,15.462 L26.715,15.463 Z M32.524,15.027 C32.742,14.71 33.009,14.464 33.326,14.287 C33.6471425,14.1080898 34.0094054,14.0160592 34.377,14.02 C35.1,14.02 35.667,14.26 36.08,14.741 C36.492,15.222 36.698,15.965 36.698,16.97 L36.698,21.086 L34.826,21.086 L34.826,16.956 C34.826,16.418 34.739,16.036 34.566,15.812 C34.393,15.588 34.133,15.476 33.787,15.476 C33.501,15.476 33.252,15.522 33.04,15.614 C32.8372238,15.6991964 32.6595986,15.8348249 32.524,16.008 L32.524,21.086 L30.652,21.086 L30.652,11.083 L32.524,11.083 L32.524,15.027 Z M40.354,12.449 L40.354,14.149 L41.527,14.149 L41.527,15.463 L40.353,15.463 L40.353,18.996 C40.353,19.266 40.41,19.458 40.523,19.573 C40.6410534,19.6903131 40.8027182,19.7530216 40.969,19.746 C41.1401476,19.7470045 41.3105529,19.7234307 41.475,19.676 L41.629,21.029 C41.2669015,21.1589546 40.8847009,21.2239524 40.5,21.221 C39.855,21.221 39.358,21.044 39.01,20.689 C38.661,20.334 38.487,19.772 38.487,19.002 L38.487,15.462 L37.475,15.462 L37.475,14.148 L38.488,14.148 L38.488,12.449 L40.354,12.449 Z M50.959,19.073 L47.932,19.073 L47.304,21.086 L45.348,21.086 L48.497,11.75 L50.414,11.75 L53.549,21.086 L51.595,21.086 L50.96,19.073 L50.959,19.073 Z M48.394,17.604 L50.504,17.604 L49.471,14.315 L49.433,14.315 L48.394,17.605 L48.394,17.604 Z M58.487,20.06 C58.2930641,20.4114384 58.0125185,20.7074742 57.672,20.92 C57.343,21.12 56.961,21.22 56.525,21.22 C55.794,21.22 55.222,20.973 54.809,20.477 C54.397,19.981 54.191,19.212 54.191,18.169 L54.191,14.149 L56.057,14.149 L56.057,18.182 C56.057,18.789 56.139,19.204 56.303,19.429 C56.468,19.653 56.723,19.765 57.07,19.765 C57.369,19.765 57.625,19.717 57.84,19.621 C58.053,19.525 58.228,19.383 58.365,19.195 L58.365,14.148 L60.237,14.148 L60.237,21.086 L58.686,21.086 L58.486,20.06 L58.487,20.06 Z M63.661,21.086 L61.795,21.086 L61.795,14.026 C61.795,13.06 62.071,12.314 62.623,11.789 C63.174,11.263 63.926,11 64.88,11 C65.65,11 66.288,11.204 66.797,11.612 C67.306,12.021 67.56,12.601 67.56,13.353 C67.56,13.815 67.446,14.254 67.217,14.671 C66.988,15.088 66.874,15.441 66.874,15.732 C66.874,15.972 67.194,16.394 67.836,16.999 C68.476,17.603 68.797,18.205 68.797,18.804 C68.797,19.611 68.552,20.216 68.06,20.618 C67.568,21.02 66.859,21.221 65.931,21.221 C65.585,21.221 65.241,21.189 64.902,21.125 C64.562,21.061 64.309,20.973 64.142,20.862 L64.495,19.432 C64.6898876,19.5375645 64.8962347,19.6204388 65.11,19.679 C65.354,19.749 65.615,19.785 65.893,19.785 C66.218,19.785 66.472,19.703 66.656,19.541 C66.84,19.379 66.932,19.158 66.932,18.881 C66.932,18.577 66.611,18.138 65.97,17.563 C65.329,16.988 65.008,16.397 65.008,15.79 C65.008,15.405 65.124,14.999 65.358,14.572 C65.59,14.144 65.707,13.77 65.707,13.449 C65.7145658,13.1781506 65.6099983,12.9161892 65.418,12.725 C65.2472001,12.5418677 65.0084163,12.4373094 64.758,12.436 C64.433,12.436 64.169,12.581 63.966,12.869 C63.763,13.158 63.661,13.552 63.661,14.052 L63.661,21.086 Z M72.953,21.221 C71.918,21.221 71.11,20.904 70.529,20.269 C69.947,19.634 69.657,18.816 69.657,17.816 L69.657,17.56 C69.657,16.52 69.939,15.67 70.503,15.008 C71.067,14.345 71.843,14.016 72.831,14.02 C73.763,14.02 74.478,14.305 74.976,14.876 C75.474,15.446 75.723,16.216 75.723,17.181 L75.723,18.15 L71.587,18.15 L71.567,18.188 C71.597,18.662 71.742,19.048 72,19.342 C72.259,19.637 72.643,19.785 73.151,19.785 C73.571,19.785 73.926,19.742 74.219,19.656 C74.512,19.571 74.814,19.44 75.126,19.266 L75.633,20.419 C75.355,20.646 74.979,20.836 74.504,20.99 C74.03,21.144 73.513,21.22 72.953,21.22 L72.953,21.221 Z M72.831,15.463 C72.455,15.463 72.165,15.593 71.961,15.851 C71.759,16.109 71.636,16.452 71.593,16.88 L71.606,16.912 L73.889,16.912 L73.889,16.771 C73.889,16.365 73.805,16.045 73.639,15.812 C73.472,15.579 73.203,15.462 72.831,15.462 L72.831,15.463 Z M80.461,15.758 L79.775,15.738 C79.497,15.738 79.268,15.796 79.089,15.912 C78.909,16.027 78.773,16.19 78.679,16.399 L78.679,21.086 L76.813,21.086 L76.813,14.148 L78.55,14.148 L78.634,15.174 C78.796,14.811 79.007,14.528 79.265,14.324 C79.524,14.122 79.822,14.02 80.16,14.02 C80.254,14.02 80.34,14.028 80.42,14.043 C80.499,14.058 80.579,14.076 80.66,14.097 L80.461,15.757 L80.461,15.758 Z M83.263,15.027 C83.481,14.71 83.748,14.464 84.065,14.287 C84.3861425,14.1080898 84.7484054,14.0160592 85.116,14.02 C85.839,14.02 86.406,14.26 86.819,14.741 C87.231,15.222 87.438,15.965 87.438,16.97 L87.438,21.086 L85.565,21.086 L85.565,16.956 C85.565,16.418 85.479,16.036 85.305,15.812 C85.132,15.588 84.873,15.476 84.526,15.476 C84.24,15.476 83.991,15.522 83.779,15.614 C83.5762238,15.6991964 83.3985986,15.8348249 83.263,16.008 L83.263,21.086 L81.391,21.086 L81.391,11.083 L83.263,11.083 L83.263,15.027 Z M92.939,21.087 C92.8691702,20.9244754 92.8103703,20.7574304 92.763,20.587 C92.7134677,20.4100803 92.6780236,20.2295159 92.657,20.047 C92.4685441,20.3804346 92.2078361,20.6674525 91.894,20.887 C91.578,21.11 91.201,21.221 90.765,21.221 C90.039,21.221 89.479,21.034 89.085,20.66 C88.692,20.286 88.495,19.776 88.495,19.13 C88.495,18.45 88.757,17.924 89.281,17.55 C89.805,17.176 90.569,16.989 91.573,16.989 L92.625,16.989 L92.625,16.437 C92.625,16.104 92.537,15.845 92.362,15.662 C92.187,15.478 91.926,15.386 91.58,15.386 C91.276,15.386 91.042,15.46 90.878,15.607 C90.713,15.755 90.631,15.957 90.631,16.213 L88.829,16.213 L88.816,16.175 C88.786,15.589 89.042,15.083 89.582,14.658 C90.123,14.233 90.83,14.02 91.702,14.02 C92.535,14.02 93.21,14.23 93.725,14.648 C94.24,15.068 94.497,15.668 94.497,16.45 L94.497,19.317 C94.497,19.641 94.522,19.947 94.571,20.233 C94.621,20.52 94.698,20.804 94.805,21.086 L92.939,21.086 L92.939,21.087 Z M91.227,19.836 C91.552,19.836 91.843,19.755 92.099,19.592 C92.356,19.43 92.531,19.242 92.625,19.028 L92.625,18.047 L91.573,18.047 C91.176,18.047 90.876,18.145 90.673,18.342 C90.4737793,18.5295206 90.3630135,18.7924529 90.368,19.066 C90.368,19.302 90.444,19.489 90.596,19.628 C90.747,19.766 90.958,19.836 91.227,19.836 Z M97.87,21.086 L95.998,21.086 L95.998,11.083 L97.87,11.083 L97.87,21.086 Z M105.667,17.81 C105.667,18.844 105.437,19.671 104.975,20.291 C104.513,20.911 103.846,21.221 102.975,21.221 C102.568,21.221 102.215,21.135 101.913,20.964 C101.599552,20.7812198 101.336355,20.5235203 101.147,20.214 L100.993,21.086 L99.409,21.086 L99.409,11.083 L101.275,11.083 L101.275,14.886 C101.475,14.608 101.716,14.394 101.996,14.245 C102.276,14.095 102.598,14.02 102.961,14.02 C103.841,14.02 104.513,14.352 104.975,15.017 C105.436,15.682 105.667,16.567 105.667,17.675 L105.667,17.81 Z M103.801,17.675 C103.801,17 103.701,16.465 103.503,16.069 C103.304,15.673 102.966,15.476 102.487,15.476 C102.197,15.476 101.95,15.536 101.749,15.658 C101.549,15.78 101.39,15.954 101.275,16.181 L101.275,19.118 C101.39,19.328 101.55,19.488 101.753,19.598 C101.956,19.71 102.205,19.765 102.5,19.765 C102.983,19.765 103.32,19.595 103.513,19.255 C103.705,18.915 103.801,18.434 103.801,17.81 L103.801,17.675 Z" id="Shape" fill="#020202" fill-rule="nonzero"></path>
            <path d="M33.599,69.869 L32.455,69.869 L33.012,66.135 L28.907,66.135 L28.349,69.869 L27.205,69.869 L28.471,61.413 L29.615,61.413 L29.04,65.235 L33.146,65.235 L33.721,61.413 L34.865,61.413 L33.599,69.869 Z M35.631,66.669 C35.774,65.705 36.139,64.931 36.726,64.346 C37.312,63.761 38.041,63.469 38.912,63.469 C39.748,63.469 40.382,63.772 40.814,64.378 C41.245,64.984 41.394,65.748 41.258,66.668 L41.235,66.797 C41.088,67.768 40.722,68.544 40.137,69.122 C39.553,69.702 38.823,69.99 37.948,69.99 C37.112,69.99 36.478,69.688 36.046,69.085 C35.615,68.481 35.468,67.718 35.608,66.797 L35.631,66.669 Z M36.751,66.797 C36.647,67.486 36.703,68.041 36.921,68.463 C37.137,68.885 37.524,69.096 38.081,69.096 C38.604,69.096 39.045,68.876 39.403,68.437 C39.761,67.997 39.99,67.451 40.091,66.797 L40.114,66.669 C40.214,65.987 40.156,65.434 39.937,65.008 C39.718,64.582 39.332,64.369 38.778,64.369 C38.252,64.369 37.81,64.591 37.452,65.034 C37.093,65.477 36.868,66.022 36.775,66.669 L36.752,66.797 L36.751,66.797 Z M44.138,64.392 C44.402,64.098 44.702,63.871 45.038,63.71 C45.3772746,63.5491423 45.7485349,63.4670958 46.124,63.47 C46.771,63.47 47.256,63.672 47.579,64.079 C47.902,64.485 48.004,65.103 47.884,65.931 L47.292,69.869 L46.148,69.869 L46.74,65.919 C46.821,65.385 46.769,64.999 46.583,64.759 C46.397,64.519 46.082,64.399 45.637,64.399 C45.307,64.399 45.005,64.468 44.727,64.607 C44.451,64.747 44.216,64.94 44.022,65.188 L43.32,69.868 L42.175,69.868 L43.533,60.81 L44.677,60.81 L44.137,64.392 L44.138,64.392 Z M51.519,69.99 C50.652,69.99 50.001,69.698 49.565,69.114 C49.129,68.529 48.981,67.774 49.121,66.849 L49.161,66.593 C49.297,65.656 49.666,64.902 50.268,64.329 C50.87,63.756 51.552,63.469 52.315,63.469 C53.124,63.469 53.706,63.734 54.063,64.265 C54.419,64.795 54.533,65.486 54.405,66.338 L54.318,66.942 L50.253,66.942 C50.164,67.608 50.23,68.133 50.451,68.518 C50.671,68.904 51.071,69.096 51.653,69.096 C52.024,69.096 52.37,69.04 52.689,68.928 C53.009,68.816 53.284,68.665 53.517,68.475 L53.853,69.218 C53.598,69.435 53.275,69.618 52.883,69.767 C52.493,69.916 52.038,69.99 51.519,69.99 Z M52.181,64.37 C51.798,64.37 51.451,64.524 51.139,64.834 C50.827,65.144 50.603,65.534 50.468,66.007 L50.48,66.042 L53.308,66.042 L53.319,65.949 C53.389,65.48 53.335,65.1 53.157,64.808 C52.979,64.515 52.653,64.369 52.181,64.369 L52.181,64.37 Z M59.08,68.179 C59.115,67.919 59.049,67.712 58.882,67.557 C58.716,67.402 58.372,67.265 57.849,67.145 C57.129,66.986 56.589,66.764 56.231,66.477 C55.873,66.191 55.729,65.807 55.799,65.327 C55.872,64.793 56.15,64.35 56.632,63.997 C57.114,63.645 57.705,63.469 58.406,63.469 C59.088,63.469 59.63,63.665 60.032,64.056 C60.435,64.446 60.592,64.896 60.502,65.403 L60.491,65.438 L59.393,65.438 C59.4336196,65.1642748 59.3406694,64.887655 59.143,64.694 C58.939,64.478 58.652,64.369 58.284,64.369 C57.897,64.369 57.586,64.461 57.352,64.645 C57.118,64.829 56.983,65.045 56.949,65.293 C56.914,65.548 56.972,65.742 57.123,65.873 C57.273,66.005 57.614,66.127 58.145,66.239 C58.892,66.402 59.444,66.632 59.8,66.93 C60.156,67.228 60.301,67.617 60.235,68.097 C60.155,68.674 59.865,69.134 59.37,69.477 C58.875,69.819 58.26,69.99 57.524,69.99 C56.757,69.99 56.164,69.785 55.744,69.375 C55.324,68.965 55.162,68.492 55.259,67.958 L55.27,67.923 L56.368,67.923 C56.333,68.33 56.443,68.627 56.698,68.815 C56.954,69.002 57.272,69.096 57.651,69.096 C58.042,69.096 58.367,69.009 58.627,68.835 C58.887,68.661 59.037,68.442 59.08,68.179 Z M65.531,68.974 L69.829,68.974 L69.695,69.869 L64.207,69.869 L64.219,69.021 L68.958,62.314 L65.09,62.314 L65.224,61.414 L70.415,61.414 L70.293,62.232 L65.531,68.974 Z M72.221,69.869 L71.077,69.869 L72.017,63.585 L73.162,63.585 L72.222,69.869 L72.221,69.869 Z M73.406,61.977 L72.262,61.977 L72.436,60.81 L73.58,60.81 L73.406,61.977 Z M76.565,69.99 C75.698,69.99 75.046,69.698 74.611,69.114 C74.175,68.529 74.027,67.774 74.166,66.849 L74.207,66.593 C74.343,65.656 74.711,64.902 75.313,64.329 C75.915,63.756 76.598,63.469 77.36,63.469 C78.17,63.469 78.752,63.734 79.108,64.265 C79.464,64.795 79.578,65.486 79.451,66.338 L79.364,66.942 L75.299,66.942 C75.209,67.608 75.276,68.133 75.496,68.518 C75.716,68.904 76.118,69.096 76.698,69.096 C77.07,69.096 77.415,69.04 77.735,68.928 C78.055,68.816 78.33,68.665 78.562,68.475 L78.899,69.218 C78.644,69.435 78.32,69.618 77.929,69.767 C77.539,69.916 77.084,69.99 76.565,69.99 Z M77.227,64.37 C76.843,64.37 76.496,64.524 76.184,64.834 C75.873,65.144 75.649,65.534 75.514,66.007 L75.525,66.042 L78.353,66.042 L78.365,65.949 C78.435,65.48 78.38,65.1 78.202,64.808 C78.024,64.515 77.699,64.369 77.227,64.369 L77.227,64.37 Z M81.443,69.869 L80.299,69.869 L81.658,60.809 L82.802,60.809 L81.442,69.869 L81.443,69.869 Z M21.425,170.035 L20.28,170.035 L17.168,163.562 L17.133,163.567 L16.168,170.035 L15.022,170.035 L16.29,161.567 L17.436,161.567 L20.547,168.034 L20.582,168.028 L21.548,161.567 L22.693,161.567 L21.425,170.035 Z M24.49,170.035 L23.345,170.035 L24.287,163.742 L25.433,163.742 L24.49,170.035 Z M25.677,162.131 L24.531,162.131 L24.706,160.961 L25.851,160.961 L25.677,162.131 Z M28.841,170.157 C27.972,170.157 27.32,169.864 26.884,169.279 C26.448,168.693 26.299,167.937 26.439,167.01 L26.479,166.755 C26.615,165.816 26.985,165.06 27.588,164.486 C28.191,163.912 28.874,163.626 29.638,163.626 C30.448,163.626 31.032,163.891 31.388,164.422 C31.745,164.954 31.86,165.646 31.732,166.499 L31.644,167.104 L27.573,167.104 C27.483,167.77 27.55,168.297 27.771,168.683 C27.991,169.068 28.393,169.261 28.975,169.261 C29.3280275,169.264322 29.6790436,169.20751 30.013,169.093 C30.333,168.98 30.609,168.829 30.842,168.639 L31.179,169.383 C30.923,169.601 30.599,169.783 30.208,169.933 C29.816,170.083 29.361,170.157 28.841,170.157 Z M29.504,164.527 C29.12,164.527 28.772,164.682 28.46,164.992 C28.1380607,165.31889 27.906507,165.723764 27.788,166.167 L27.8,166.202 L30.632,166.202 L30.644,166.109 C30.714,165.639 30.659,165.259 30.481,164.966 C30.303,164.673 29.977,164.527 29.504,164.527 Z M32.68,167.005 C32.835,165.954 33.172,165.128 33.692,164.527 C34.212,163.926 34.865,163.625 35.652,163.625 C36.012,163.625 36.325,163.697 36.591,163.841 C36.857,163.984 37.073,164.191 37.239,164.463 L37.763,160.962 L38.909,160.962 L37.548,170.035 L36.669,170.035 L36.617,169.238 C36.365,169.54 36.077,169.769 35.751,169.924 C35.4104629,170.082476 35.0385717,170.162118 34.663,170.157 C33.923,170.157 33.37,169.876 33.005,169.314 C32.641,168.751 32.526,168.022 32.662,167.127 L32.68,167.005 Z M33.808,167.127 C33.708,167.782 33.758,168.296 33.962,168.668 C34.166,169.04 34.542,169.226 35.093,169.226 C35.423,169.226 35.718,169.146 35.977,168.988 C36.237,168.829 36.464,168.608 36.657,168.325 L37.094,165.411 C36.9962192,165.161526 36.8298008,164.944835 36.614,164.786 C36.403,164.633 36.132,164.556 35.803,164.556 C35.276,164.556 34.84,164.786 34.497,165.246 C34.154,165.705 33.93,166.291 33.825,167.005 L33.808,167.127 Z M43.027,164.754 L42.445,164.719 C42.146,164.719 41.883,164.794 41.654,164.943 C41.425,165.093 41.231,165.303 41.072,165.573 L40.403,170.035 L39.258,170.035 L40.2,163.742 L41.224,163.742 L41.2,164.632 C41.425,164.314 41.681,164.067 41.968,163.89 C42.3236239,163.67124 42.7449816,163.584844 43.158,163.646 C43.237,163.659 43.3,163.674 43.346,163.689 L43.026,164.754 L43.027,164.754 Z M44.667,170.034 L43.521,170.034 L44.463,163.742 L45.609,163.742 L44.667,170.035 L44.667,170.034 Z M45.853,162.131 L44.707,162.131 L44.882,160.961 L46.028,160.961 L45.853,162.131 Z M46.679,167.005 C46.834,165.954 47.171,165.128 47.691,164.527 C48.211,163.926 48.862,163.625 49.645,163.625 C50.037,163.625 50.372,163.709 50.651,163.875 C50.931,164.042 51.151,164.283 51.315,164.597 L51.582,163.742 L52.495,163.742 L51.547,170.07 C51.419,170.907 51.093,171.534 50.567,171.951 C50.042,172.368 49.331,172.577 48.436,172.577 C48.145,172.577 47.826,172.534 47.482,172.449 C47.1731981,172.377502 46.8757299,172.263764 46.598,172.111 L46.906,171.221 C47.111,171.338 47.364,171.431 47.665,171.503 C47.965,171.575 48.267,171.611 48.569,171.611 C49.104,171.611 49.524,171.482 49.829,171.224 C50.133,170.966 50.324,170.582 50.401,170.07 L50.506,169.354 C50.262,169.618 49.986,169.818 49.677,169.954 C49.3549364,170.092249 49.0074547,170.161405 48.657,170.157 C47.92,170.157 47.369,169.876 47.005,169.314 C46.64,168.751 46.525,168.022 46.662,167.127 L46.679,167.005 Z M47.807,167.127 C47.707,167.782 47.758,168.296 47.962,168.668 C48.165,169.04 48.54,169.226 49.087,169.226 C49.42,169.226 49.717,169.146 49.977,168.986 C50.237,168.824 50.465,168.598 50.663,168.307 L51.099,165.428 C50.9980963,165.175886 50.8304288,164.956017 50.614,164.792 C50.402,164.635 50.13,164.556 49.797,164.556 C49.273,164.556 48.84,164.786 48.497,165.248 C48.153,165.71 47.93,166.295 47.825,167.005 L47.807,167.127 Z M55.787,170.157 C54.919,170.157 54.267,169.864 53.83,169.279 C53.394,168.693 53.245,167.937 53.385,167.01 L53.425,166.755 C53.561,165.816 53.931,165.06 54.534,164.486 C55.137,163.912 55.82,163.626 56.584,163.626 C57.394,163.626 57.978,163.891 58.334,164.422 C58.691,164.954 58.806,165.646 58.678,166.499 L58.591,167.104 L54.519,167.104 C54.43,167.77 54.496,168.297 54.717,168.683 C54.938,169.068 55.339,169.261 55.921,169.261 C56.2740275,169.264322 56.6250436,169.20751 56.959,169.093 C57.279,168.98 57.555,168.829 57.788,168.639 L58.125,169.383 C57.869,169.601 57.545,169.783 57.154,169.933 C56.762,170.083 56.307,170.157 55.787,170.157 Z M56.45,164.527 C56.066,164.527 55.718,164.682 55.406,164.992 C55.0840607,165.31889 54.852507,165.723764 54.734,166.167 L54.746,166.202 L57.579,166.202 L57.59,166.109 C57.66,165.639 57.606,165.259 57.427,164.966 C57.249,164.673 56.923,164.527 56.45,164.527 Z M63.36,168.342 C63.395,168.082 63.329,167.875 63.162,167.72 C62.995,167.565 62.65,167.427 62.127,167.307 C61.406,167.148 60.866,166.925 60.507,166.638 C60.148,166.351 60.004,165.968 60.074,165.487 C60.147,164.952 60.426,164.507 60.908,164.155 C61.391,163.802 61.983,163.625 62.685,163.625 C63.368,163.625 63.91,163.821 64.314,164.213 C64.717,164.605 64.874,165.054 64.784,165.563 L64.774,165.597 L63.674,165.597 C63.7144525,165.32329 63.6215273,165.046744 63.424,164.853 C63.218,164.636 62.931,164.527 62.563,164.527 C62.175,164.527 61.864,164.619 61.629,164.803 C61.395,164.987 61.26,165.203 61.225,165.452 C61.19,165.708 61.248,165.902 61.4,166.033 C61.55,166.165 61.892,166.287 62.423,166.4 C63.172,166.563 63.724,166.793 64.081,167.092 C64.438,167.39 64.583,167.78 64.517,168.261 C64.436,168.839 64.147,169.299 63.651,169.642 C63.154,169.985 62.538,170.157 61.801,170.157 C61.033,170.157 60.439,169.952 60.018,169.54 C59.598,169.13 59.436,168.656 59.533,168.121 L59.544,168.086 L60.644,168.086 C60.609,168.494 60.719,168.791 60.975,168.979 C61.231,169.167 61.549,169.261 61.929,169.261 C62.321,169.261 62.646,169.174 62.906,169 C63.166,168.825 63.317,168.606 63.36,168.342 Z M69.821,169.139 L74.125,169.139 L73.992,170.035 L68.495,170.035 L68.507,169.185 L73.253,162.468 L69.379,162.468 L69.513,161.567 L74.713,161.567 L74.591,162.387 L69.821,169.139 Z M76.521,170.035 L75.376,170.035 L76.318,163.742 L77.464,163.742 L76.522,170.035 L76.521,170.035 Z M77.708,162.131 L76.562,162.131 L76.737,160.961 L77.883,160.961 L77.708,162.131 Z M80.872,170.157 C80.004,170.157 79.352,169.864 78.915,169.279 C78.479,168.693 78.33,167.937 78.47,167.01 L78.51,166.755 C78.647,165.816 79.016,165.06 79.619,164.486 C80.222,163.912 80.905,163.626 81.669,163.626 C82.479,163.626 83.063,163.891 83.419,164.422 C83.776,164.954 83.891,165.646 83.763,166.499 L83.676,167.104 L79.604,167.104 C79.515,167.77 79.581,168.297 79.802,168.683 C80.023,169.068 80.424,169.261 81.006,169.261 C81.3590275,169.264322 81.7100436,169.20751 82.044,169.093 C82.364,168.98 82.64,168.829 82.873,168.639 L83.21,169.383 C82.954,169.601 82.63,169.783 82.239,169.933 C81.847,170.083 81.392,170.157 80.872,170.157 Z M81.535,164.527 C81.151,164.527 80.803,164.682 80.491,164.992 C80.1690607,165.31889 79.937507,165.723764 79.819,166.167 L79.831,166.202 L82.664,166.202 L82.675,166.109 C82.745,165.639 82.691,165.259 82.512,164.966 C82.334,164.673 82.008,164.527 81.535,164.527 Z M85.758,170.035 L84.612,170.035 L85.972,160.962 L87.119,160.962 L85.758,170.035 Z" id="Shape" fill="#6D6E71" fill-rule="nonzero"></path>
            <path d="M271.408,125.266 L267.16,125.266 L267.16,128.668 L272.088,128.668 L272.088,129.665 L265.902,129.665 L265.902,120.145 L272.02,120.145 L272.02,121.142 L267.16,121.142 L267.16,124.235 L271.408,124.235 L271.408,125.266 Z M274.705,122.551 L274.807,123.617 C275.220275,122.881826 276.003763,122.432856 276.847,122.448 C277.594,122.448 278.172,122.654 278.58,123.136 C278.988,123.582 279.192,124.27 279.192,125.197 L279.192,129.665 L277.934,129.665 L277.934,125.232 C277.934,124.613 277.798,124.167 277.56,123.892 C277.322,123.617 276.949,123.514 276.473,123.514 C276.099,123.514 275.793,123.617 275.521,123.789 C275.249,123.96 275.011,124.201 274.841,124.51 L274.841,129.665 L273.584,129.665 L273.584,122.585 L274.705,122.551 Z M280.46,126.089 C280.46,124.955 280.698,124.028 281.174,123.34 C281.65,122.653 282.33,122.31 283.18,122.31 C283.587,122.31 283.961,122.378 284.267,122.55 C284.573,122.687 284.845,122.928 285.083,123.203 L285.083,119.32 L286.341,119.32 L286.341,129.526 L285.321,129.526 L285.185,128.666 C284.975,128.979 284.695,129.238 284.369,129.423 C284.009,129.595 283.612,129.677 283.214,129.663 C282.364,129.663 281.718,129.354 281.242,128.736 C280.766,128.117 280.528,127.292 280.528,126.261 L280.528,126.089 L280.46,126.089 Z M281.701,126.229 C281.701,126.95 281.837,127.534 282.143,127.947 C282.449,128.359 282.857,128.6 283.469,128.6 C283.842,128.6 284.149,128.496 284.42,128.325 C284.692,128.153 284.896,127.912 285.032,127.603 L285.032,124.304 C284.881863,124.021433 284.658806,123.784219 284.386,123.617 C284.113084,123.439175 283.794733,123.343704 283.469,123.342 C282.857,123.342 282.415,123.582 282.143,124.098 C281.871,124.613 281.701,125.266 281.701,126.091 L281.701,126.228 L281.701,126.229 Z M293.408,126.36 L288.396,126.36 C288.525,127.904 289.152,128.676 290.277,128.676 C291.966,128.676 292.201,127.229 292.201,127.32 L293.309,127.314 C292.769,128.881 291.759,129.664 290.277,129.664 C288.057,129.664 287.277,128.076 287.184,126.36 C287.09,124.645 287.655,122.342 290.296,122.342 C292.461,122.382 293.499,123.722 293.408,126.36 Z M292.151,125.448 C292.025,124.084 291.397,123.402 290.268,123.402 C289.14,123.402 288.512,124.084 288.386,125.448 L292.151,125.448 Z" id="Shape" fill="#2A3052" fill-rule="nonzero"></path>
            <path d="M167.201,159.823 L169.232,159.823 L169.334,161.318 C170.166,160.063 171.244,159.506 172.571,159.645 C173.339,159.725 174.959,159.979 175.441,162.185 C175.619,162.993 175.581,164.358 175.568,166.215 C175.563,166.935 175.563,168.183 175.568,169.958 L173.339,169.958 L173.339,163.608 C173.339,162.862 173.133,162.028 172.514,161.713 C171.662,161.279 170.06,161.461 169.417,162.554 L169.417,169.958 L167.201,169.958 L167.201,159.822 L167.201,159.823 Z M156.379,159.823 L158.409,159.823 L158.512,161.318 C159.344,160.063 160.422,159.506 161.749,159.645 C162.517,159.725 164.137,159.979 164.619,162.185 C164.796,162.993 164.759,164.358 164.745,166.215 C164.74,166.935 164.74,168.183 164.745,169.958 L162.517,169.958 L162.517,163.608 C162.517,162.862 162.31,162.028 161.691,161.713 C160.841,161.279 159.238,161.461 158.595,162.554 L158.595,169.958 L156.379,169.958 L156.379,159.822 L156.379,159.823 Z M147.195,159.917 L149.401,159.917 L146.692,169.957 L144.88,169.957 L142.687,163.314 L140.617,169.958 L138.78,169.958 L135.973,159.918 L138.281,159.918 L139.773,166.938 L141.918,159.918 L143.56,159.918 L145.676,166.938 L147.195,159.917 Z M134.268,165.3 L128.158,165.3 C128.292,168.153 130.038,168.843 133.395,167.369 L134.108,168.757 C133.479,169.279 132.768,169.627 131.975,169.801 C130.314,170.166 128.692,169.886 127.567,169.048 C125.127,167.228 125.751,163.408 126.287,162.092 C126.539,161.476 127.776,159.742 129.246,159.574 C130.577,159.422 133.874,159.103 134.268,163.583 C134.3,164.495 134.3,165.067 134.268,165.3 Z M132.10801,163.443 C132.11,161.848 131.486,161.051 130.238,161.051 C128.364,161.051 128.174,163.443 128.174,163.443 L132.10801,163.443 Z M119.053,164.433 L119.053,162.756 L124.073,162.756 C124.13,165.681 124.13,167.386 124.073,167.871 C123.65,169.151 118.636,171.479 115.399,168.527 C114.434,167.647 113.98,166.672 113.732,165.196 C113.721,163.688 113.694,162.274 113.704,160.936 C113.95,159.297 114.493,158.366 114.93,157.838 C116.522,155.914 119.058,155.5 121.288,156.279 C123.518,157.059 123.808,158.679 123.988,160.262 C123.472,160.262 123.199,160.24 121.805,160.262 C121.945,159.371 121.144,157.648 119.051,157.742 C116.959,157.838 115.971,159.576 115.971,161.024 C115.971,162.472 115.896,161.986 115.971,164.864 C116.066,168.168 119.984,169.054 121.805,167.289 L121.871,164.476 L119.053,164.434 L119.053,164.433 Z M151.082,159.838 L153.226,159.838 L153.226,169.958 L151.082,169.958 L151.082,159.838 Z M151.125,155.421 L153.313,155.421 L153.313,157.341 L151.125,157.341 L151.125,155.421 Z" id="Shape" fill="#FFFFFF" fill-rule="nonzero"></path>
            <path d="M180.188,165.713 L177.685,165.713 L177.685,157.643 L180.188,157.643 L180.188,165.713 Z M180.188,169.958 L177.685,169.958 L177.685,167.79 L180.188,167.79 L180.188,169.958 Z" id="Shape" fill="#FFFFFF" fill-rule="nonzero"></path>
        </g>
    </g>
</svg>