<?xml version="1.0" encoding="UTF-8"?>
<svg width="299px" height="197px" viewBox="0 0 299 197" version="1.1" xmlns="http://www.w3.org/2000/svg" xmlns:xlink="http://www.w3.org/1999/xlink">
    <!-- Generator: Sketch 52.5 (67469) - http://www.bohemiancoding.com/sketch -->
    <title>low tick</title>
    <desc>Created with Sketch.</desc>
    <g id="Page-1" stroke="none" stroke-width="1" fill="none" fill-rule="evenodd">
        <g id="low-tick">
            <polygon id="Path" fill="#F1F2F2" points="0.00101428135 0 299 0 299 197 0 197"></polygon>
            <path d="M1.98671096,1.9798995 L1.98671096,195.020101 L297.013289,195.020101 L297.013289,1.9798995 L1.98671096,1.9798995 Z M299,0 L299,197 L0,197 L0,0 L299,0 Z" id="Path" fill="#C2C2C2" fill-rule="nonzero"></path>
            <path d="M2.94050338,54.9484859 L2.94050338,53.7251569 L296.511027,53.7251569 L296.511027,54.9484859 L2.94050338,54.9484859 Z M2.94050338,95.8450829 L2.94050338,94.6217539 L296.511027,94.6217539 L296.511027,95.8450829 L2.94050338,95.8450829 Z M2.94050338,136.738664 L2.94050338,135.515336 L296.511027,135.515336 L296.511027,136.738664 L2.94050338,136.738664 Z M2.94050338,177.596062 L2.94050338,176.372734 L296.511027,176.372734 L296.511027,177.596062 L2.94050338,177.596062 Z M37.7845821,33.9081224 L39.0079111,33.9081224 L39.0079111,195.000852 L37.7845821,195.000852 L37.7845821,33.9081224 Z M74.9464436,33.9081224 L76.1697726,33.9081224 L76.1697726,195.000852 L74.9464436,195.000852 L74.9464436,33.9081224 Z M112.06891,33.9081224 L113.292238,33.9081224 L113.292238,195.000852 L112.06891,195.000852 L112.06891,33.9081224 Z M149.228752,33.9081224 L150.45208,33.9081224 L150.45208,195.000852 L149.228752,195.000852 L149.228752,33.9081224 Z M186.351218,33.9081224 L187.574546,33.9081224 L187.574546,195.000852 L186.351218,195.000852 L186.351218,33.9081224 Z M223.473684,33.9081224 L224.697012,33.9081224 L224.697012,195.000852 L223.473684,195.000852 L223.473684,33.9081224 Z M2.94050338,116.272777 L2.94050338,115.049448 L296.511027,115.049448 L296.511027,116.272777 L2.94050338,116.272777 Z" id="Shape" fill="#DFDEDE" fill-rule="nonzero"></path>
            <polygon id="Path" fill="#15212D" fill-rule="nonzero" points="2.94050338 161.639869 2.94050338 160.495335 296.511027 160.495335 296.511027 161.639869"></polygon>
            <polygon id="Path" fill="#C2C2C2" fill-rule="nonzero" points="0.819219595 30.3712881 0.819219595 27.9246302 298.632311 27.9246302 298.632311 30.3712881"></polygon>
            <path d="M136.207603,107.216837 L91.0267149,142.618028 C90.4268878,143.088018 89.5990087,143.138382 88.9466331,142.744567 L38.4469473,112.259823 C37.5793355,111.736078 37.3005758,110.608161 37.8243202,109.740549 C38.3480645,108.872938 39.4759815,108.594178 40.3435933,109.117922 L89.759593,138.948487 L135.236484,103.315365 C135.972308,102.738814 137.023939,102.807569 137.678432,103.475017 L185.584163,152.328981 L245.172535,67.3437236 C245.754351,66.5139351 246.898682,66.3129133 247.72847,66.8947289 C248.558259,67.4765445 248.759281,68.6208757 248.177465,69.4506642 L187.321874,156.243235 C186.662965,157.182974 185.312791,157.294001 184.50922,156.474524 L136.207603,107.216837 Z" id="Path" fill="#2A3052" fill-rule="nonzero"></path>
            <ellipse id="Oval" fill="#FFFFFF" opacity="0.6" cx="186.255787" cy="155.514413" rx="8.21946959" ry="8.5182398"></ellipse>
            <path d="M186.255787,165.255982 C181.030707,165.255982 176.812988,160.884953 176.812988,155.514413 C176.812988,150.143873 181.030707,145.772844 186.255787,145.772844 C191.480867,145.772844 195.698586,150.143873 195.698586,155.514413 C195.698586,160.884953 191.480867,165.255982 186.255787,165.255982 Z M186.255787,162.809324 C190.109683,162.809324 193.251928,159.552861 193.251928,155.514413 C193.251928,151.475965 190.109683,148.219502 186.255787,148.219502 C182.401891,148.219502 179.259646,151.475965 179.259646,155.514413 C179.259646,159.552861 182.401891,162.809324 186.255787,162.809324 Z" id="Oval" fill="#E88024" fill-rule="nonzero"></path>
            <path d="M28.6330993,103.37 C28.7140993,102.773 28.4060993,102.337 27.7090993,102.06 L26.7460993,101.708 L26.4210993,101.568 C25.3380993,101.072 24.8310993,100.374 24.9020993,99.475 C24.9340993,99.038 25.0950993,98.622 25.3640993,98.277 C25.6479965,97.9209061 26.0194327,97.6445686 26.4420993,97.475 C26.8938148,97.2860437 27.3806641,97.195697 27.8700993,97.21 C28.3260993,97.212 28.7770993,97.325 29.1810993,97.539 C29.5530993,97.737 29.8590993,98.041 30.0580993,98.415 C30.2610993,98.805 30.3540993,99.243 30.3240993,99.682 L29.2720993,99.677 C29.3342827,99.2598838 29.212427,98.8363077 28.9380993,98.516 C28.6410993,98.226 28.2380993,98.074 27.8250993,98.093 C27.3720993,98.07 26.9250993,98.195 26.5500993,98.452 C26.2160993,98.684 26.0000993,99.052 25.9600993,99.458 C25.8850993,100.014 26.2260993,100.436 26.9790993,100.723 L27.8080993,101.019 L28.2250993,101.198 C29.150117,101.496238 29.7509095,102.388749 29.6790993,103.358 C29.6485059,103.792153 29.4874719,104.206938 29.2170993,104.548 C28.9270993,104.896 28.5520993,105.163 28.1280993,105.321 C27.6579881,105.506293 27.1552038,105.594399 26.6500993,105.58 C26.1661159,105.581711 25.6885412,105.46934 25.2560993,105.252 C24.8572129,105.05797 24.523587,104.751798 24.2960993,104.371 C24.0742017,103.986351 23.9731562,103.543841 24.0060993,103.101 L25.0520993,103.107 C24.9980993,103.532 25.1430993,103.958 25.4450993,104.262 C25.7900993,104.565 26.2370993,104.723 26.6950993,104.701 C27.1650993,104.727 27.6300993,104.604 28.0250993,104.348 C28.3600993,104.128 28.5830993,103.77 28.6330993,103.371 L28.6330993,103.37 Z M33.2030993,97.947 L32.9470993,99.414 L34.0440993,99.414 L33.9050993,100.214 L32.8150993,100.214 L32.1860993,103.98 C32.1749419,104.069228 32.1729314,104.159363 32.1800993,104.249 C32.1771103,104.372141 32.2273206,104.4906 32.3178905,104.574085 C32.4084604,104.657571 32.5306084,104.697987 32.6530993,104.685 C32.8180993,104.681 32.9820993,104.661 33.1430993,104.629 L33.0650993,105.474 C32.8250993,105.54 32.5790993,105.574 32.3300993,105.574 C31.973514,105.588914 31.6337681,105.421678 31.4280993,105.13 C31.2147099,104.780857 31.1321437,104.367317 31.1950993,103.963 L31.8070993,100.215 L30.7430993,100.215 L30.8830993,99.415 L31.9460993,99.415 L32.2020993,97.947 L33.2040993,97.947 L33.2030993,97.947 Z M37.8960993,105.467 C37.8709617,105.362865 37.8582067,105.256126 37.8580993,105.149 L37.8740993,104.83 C37.4123945,105.306847 36.777836,105.577255 36.1140993,105.58 C35.6323297,105.591876 35.1660196,105.409533 34.8200993,105.074 C34.4902399,104.749866 34.3238607,104.294435 34.3670993,103.834 C34.3860993,103.226 34.6980993,102.665 35.2050993,102.332 C35.8195749,101.94626 36.5373875,101.757821 37.2620993,101.792 L38.3140993,101.798 L38.3810993,101.316 C38.4333823,101.013079 38.3577047,100.702041 38.1720993,100.457 C37.9700787,100.234634 37.679171,100.114309 37.3790993,100.129 C37.0545754,100.1158 36.7341206,100.20501 36.4630993,100.384 C36.2112827,100.541689 36.0352294,100.795828 35.9760993,101.087 L34.9620993,101.092 C34.9950993,100.742 35.1390993,100.409 35.3750993,100.15 C35.6296543,99.8658252 35.948541,99.6467192 36.3050993,99.511 C36.6770993,99.361 37.0760993,99.288 37.4800993,99.296 C38.025843,99.2786293 38.5547717,99.4861515 38.9430993,99.87 C39.3010993,100.267 39.4630993,100.804 39.3830993,101.332 L38.8930993,104.332 L38.8650993,104.763 C38.8580993,104.969 38.8810993,105.173 38.9320993,105.373 L38.9220993,105.468 L37.8970993,105.468 L37.8960993,105.467 Z M36.3160993,104.685 C36.6360993,104.693 36.9540993,104.613 37.2320993,104.452 C37.5250993,104.284 37.7790993,104.055 37.9740993,103.778 L38.1910993,102.53 L37.4290993,102.525 C36.9243471,102.495581 36.420759,102.599747 35.9690993,102.827 C35.6502636,103.001506 35.4367216,103.320699 35.3970993,103.682 C35.3544877,103.936322 35.4270257,104.196433 35.5950993,104.392 C35.7810993,104.589 36.0450993,104.696 36.3150993,104.685 L36.3160993,104.685 Z M44.0320993,100.337 L43.5590993,100.287 C42.928316,100.278236 42.3432326,100.61509 42.0340993,101.165 L41.2930993,105.468 L40.2850993,105.468 L41.3320993,99.413 L42.3050993,99.408 L42.1560993,100.113 C42.4880993,99.6 43.0560993,99.29 43.6640993,99.29 C43.8260993,99.297 43.9890993,99.326 44.1440993,99.374 L44.0320993,100.337 Z M47.0220993,97.947 L46.7660993,99.414 L47.8620993,99.414 L47.7230993,100.214 L46.6320993,100.214 L46.0040993,103.98 C45.9910993,104.068 45.9900993,104.159 45.9970993,104.249 C45.9940746,104.372335 46.0444182,104.490976 46.1352192,104.574498 C46.2260202,104.65802 46.3484458,104.698297 46.4710993,104.685 C46.6350993,104.681 46.7990993,104.661 46.9610993,104.629 L46.8820993,105.474 C46.6430993,105.54 46.3960993,105.574 46.1470993,105.574 C45.790514,105.588914 45.4507681,105.421678 45.2450993,105.13 C45.0315566,104.780548 44.9489879,104.366641 45.0120993,103.962 L45.6240993,100.214 L44.5600993,100.214 L44.7000993,99.414 L45.7650993,99.414 L46.0210993,97.947 L47.0230993,97.947 L47.0220993,97.947 Z" id="Shape" fill="#2A3052" fill-rule="nonzero"></path>
            <path d="M22.4920993,20.426 L20.7200993,20.426 L15.9880993,12.64 L15.9440993,12.655 L15.9440993,20.426 L14.1650993,20.426 L14.1650993,9.762 L15.9450993,9.762 L20.6770993,17.54 L20.7210993,17.526 L20.7210993,9.762 L22.4930993,9.762 L22.4930993,20.426 L22.4920993,20.426 Z M26.4990993,20.426 L24.7190993,20.426 L24.7190993,12.501 L26.4990993,12.501 L26.4990993,20.426 Z M26.4990993,10.56 L24.7190993,10.56 L24.7190993,9 L26.4990993,9 L26.4990993,10.56 Z M31.8890993,20.58 C30.7660993,20.58 29.8710993,20.212 29.2050993,19.478 C28.5380993,18.743 28.2050993,17.799 28.2050993,16.647 L28.2050993,16.354 C28.2050993,15.201 28.5350993,14.246 29.1980993,13.486 C29.8590993,12.727 30.6880993,12.35 31.6840993,12.355 C32.7540993,12.355 33.5720993,12.678 34.1410993,13.325 C34.7110993,13.972 34.9950993,14.84 34.9950993,15.929 L34.9950993,16.976 L30.0510993,16.976 L30.0360993,17.013 C30.0660993,17.643 30.2500993,18.158 30.5890993,18.558 C30.9290993,18.958 31.3990993,19.158 31.9990993,19.158 C32.4780993,19.158 32.8880993,19.1 33.2290993,18.983 C33.5710993,18.866 33.9010993,18.697 34.2190993,18.478 L34.7890993,19.642 C34.4920993,19.906 34.0960993,20.128 33.6030993,20.309 C33.1100993,20.489 32.5390993,20.579 31.8890993,20.579 L31.8890993,20.58 Z M31.6840993,13.783 C31.2440993,13.783 30.8840993,13.957 30.6000993,14.307 C30.3170993,14.656 30.1410993,15.099 30.0730993,15.636 L30.0870993,15.673 L33.2290993,15.673 L33.2290993,15.489 C33.2290993,14.987 33.1010993,14.576 32.8450993,14.259 C32.5890993,13.942 32.2020993,13.783 31.6850993,13.783 L31.6840993,13.783 Z M36.1010993,16.573 C36.1010993,15.309 36.3710993,14.29 36.9140993,13.516 C37.4560993,12.742 38.2170993,12.355 39.1990993,12.355 C39.5986896,12.3482622 39.9940722,12.4374205 40.3520993,12.615 C40.6920993,12.788 40.9860993,13.035 41.2350993,13.358 L41.2350993,9 L43.0150993,9 L43.0150993,20.426 L41.5210993,20.426 L41.3450993,19.445 C41.1122974,19.7966063 40.7980656,20.0868247 40.4290993,20.291 C40.0730993,20.483 39.6580993,20.58 39.1840993,20.58 C38.2120993,20.58 37.4560993,20.226 36.9140993,19.518 C36.3720993,18.81 36.1010993,17.88 36.1010993,16.728 L36.1010993,16.573 Z M37.8810993,16.727 C37.8810993,17.46 38.0210993,18.043 38.3010993,18.477 C38.5820993,18.912 39.0280993,19.13 39.6380993,19.13 C40.0140993,19.13 40.3330993,19.049 40.5940993,18.888 C40.8635109,18.7176455 41.0840467,18.4802249 41.2340993,18.199 L41.2340993,14.742 C41.0809916,14.4630178 40.8593607,14.227621 40.5900993,14.058 C40.3073078,13.8890557 39.9824096,13.8037569 39.6530993,13.812 C39.0470993,13.812 38.6010993,14.067 38.3130993,14.578 C38.0240993,15.088 37.8800993,15.753 37.8800993,16.573 L37.8800993,16.727 L37.8810993,16.727 Z M48.8740993,14.105 L48.1120993,14.075 C47.7660993,14.075 47.4760993,14.149 47.2440993,14.295 C47.0082349,14.4462036 46.8213382,14.6626286 46.7060993,14.918 L46.7060993,20.426 L44.9260993,20.426 L44.9260993,12.501 L46.5520993,12.501 L46.6690993,13.651 C46.8690993,13.246 47.1270993,12.928 47.4420993,12.699 C47.7570993,12.469 48.1200993,12.355 48.5300993,12.355 C48.6370993,12.355 48.7370993,12.363 48.8300993,12.38 C48.9230993,12.397 49.0080993,12.418 49.0860993,12.443 L48.8740993,14.105 Z M52.0160993,20.426 L50.2360993,20.426 L50.2360993,12.501 L52.0160993,12.501 L52.0160993,20.426 Z M52.0160993,10.56 L50.2360993,10.56 L50.2360993,9 L52.0160993,9 L52.0160993,10.56 Z M53.6860993,16.573 C53.6860993,15.313 53.9620993,14.296 54.5140993,13.519 C55.0650993,12.743 55.8320993,12.355 56.8140993,12.355 C57.2870993,12.355 57.7040993,12.456 58.0620993,12.659 C58.4220993,12.861 58.7250993,13.153 58.9740993,13.534 L59.1500993,12.501 L60.6300993,12.501 L60.6300993,20.426 C60.6300993,21.446 60.3140993,22.236 59.6850993,22.792 C59.0550993,23.348 58.1610993,23.627 57.0040993,23.627 C56.6180993,23.627 56.2020993,23.572 55.7550993,23.462 C55.3361671,23.3621078 54.929662,23.2158733 54.5430993,23.026 L54.9230993,21.627 C55.2170993,21.779 55.5400993,21.897 55.8940993,21.982 C56.2526917,22.068274 56.620275,22.1115783 56.9890993,22.111 C57.6340993,22.111 58.1050993,21.973 58.4030993,21.697 C58.7010993,21.421 58.8500993,20.997 58.8500993,20.426 L58.8500993,19.613 C58.6154809,19.9183819 58.3132272,20.1651825 57.9670993,20.334 C57.6270993,20.498 57.2380993,20.58 56.7990993,20.58 C55.8270993,20.58 55.0650993,20.226 54.5140993,19.518 C53.9620993,18.81 53.6860993,17.88 53.6860993,16.728 L53.6860993,16.573 Z M55.4660993,16.727 C55.4660993,17.455 55.6110993,18.037 55.9020993,18.474 C56.1920993,18.911 56.6420993,19.13 57.2520993,19.13 C57.6340993,19.13 57.9550993,19.05 58.2160993,18.892 C58.4770993,18.732 58.6880993,18.505 58.8500993,18.207 L58.8500993,14.735 C58.695906,14.4596499 58.4756218,14.226994 58.2090993,14.058 C57.9480993,13.894 57.6340993,13.812 57.2680993,13.812 C56.6580993,13.812 56.2040993,14.069 55.9080993,14.582 C55.6140993,15.094 55.4660993,15.758 55.4660993,16.573 L55.4660993,16.727 Z M65.9030993,20.58 C64.7800993,20.58 63.8850993,20.212 63.2180993,19.478 C62.5520993,18.743 62.2180993,17.799 62.2180993,16.647 L62.2180993,16.354 C62.2180993,15.201 62.5500993,14.246 63.2110993,13.486 C63.8730993,12.727 64.7010993,12.35 65.6980993,12.355 C66.7680993,12.355 67.5860993,12.678 68.1550993,13.325 C68.7240993,13.972 69.0080993,14.84 69.0080993,15.929 L69.0080993,16.976 L64.0650993,16.976 L64.0510993,17.013 C64.0810993,17.643 64.2640993,18.158 64.6040993,18.558 C64.9440993,18.958 65.4140993,19.158 66.0140993,19.158 C66.4920993,19.158 66.9020993,19.1 67.2440993,18.983 C67.5860993,18.866 67.9160993,18.697 68.2330993,18.478 L68.8040993,19.642 C68.5060993,19.906 68.1110993,20.128 67.6180993,20.309 C67.1250993,20.489 66.5530993,20.579 65.9040993,20.579 L65.9030993,20.58 Z M65.6980993,13.783 C65.2580993,13.783 64.8970993,13.957 64.6140993,14.307 C64.3310993,14.656 64.1540993,15.099 64.0860993,15.636 L64.1010993,15.673 L67.2430993,15.673 L67.2430993,15.489 C67.2430993,14.987 67.1150993,14.576 66.8590993,14.259 C66.6020993,13.942 66.2150993,13.783 65.6980993,13.783 Z M74.3920993,14.105 L73.6300993,14.075 C73.2830993,14.075 72.9940993,14.149 72.7620993,14.295 C72.5262349,14.4462036 72.3393382,14.6626286 72.2240993,14.918 L72.2240993,20.426 L70.4440993,20.426 L70.4440993,12.501 L72.0700993,12.501 L72.1870993,13.651 C72.3870993,13.246 72.6450993,12.928 72.9600993,12.699 C73.2750993,12.469 73.6370993,12.355 74.0470993,12.355 C74.1550993,12.355 74.2550993,12.363 74.3470993,12.38 C74.4400993,12.397 74.5260993,12.418 74.6040993,12.443 L74.3920993,14.105 Z M86.8870993,11.19 L83.6640993,11.19 L83.6640993,20.426 L81.8840993,20.426 L81.8840993,11.19 L78.6620993,11.19 L78.6620993,9.762 L86.8870993,9.762 L86.8870993,11.19 Z M89.9480993,20.426 L88.1680993,20.426 L88.1680993,12.501 L89.9480993,12.501 L89.9480993,20.426 Z M89.9480993,10.56 L88.1680993,10.56 L88.1680993,9 L89.9480993,9 L89.9480993,10.56 Z M95.2140993,19.159 C95.6490993,19.159 96.0150993,19.031 96.3130993,18.774 C96.6110993,18.518 96.7600993,18.197 96.7600993,17.811 L98.3710993,17.811 L98.3860993,17.855 C98.4100993,18.597 98.1090993,19.237 97.4810993,19.775 C96.8540993,20.311 96.0980993,20.58 95.2140993,20.58 C94.0470993,20.58 93.1530993,20.204 92.5300993,19.452 C91.9070993,18.7 91.5960993,17.748 91.5960993,16.595 L91.5960993,16.339 C91.5960993,15.192 91.9070993,14.241 92.5300993,13.486 C93.1530993,12.732 94.0470993,12.355 95.2140993,12.355 C96.1670993,12.355 96.9390993,12.632 97.5320993,13.186 C98.1260993,13.74 98.4120993,14.445 98.3930993,15.299 L98.3780993,15.343 L96.7600993,15.343 C96.7600993,14.908 96.6170993,14.54 96.3310993,14.237 C96.0460993,13.934 95.6730993,13.783 95.2140993,13.783 C94.5450993,13.783 94.0720993,14.026 93.7940993,14.512 C93.5150993,14.998 93.3760993,15.607 93.3760993,16.339 L93.3760993,16.595 C93.3760993,17.343 93.5160993,17.957 93.7930993,18.437 C94.0720993,18.918 94.5450993,19.159 95.2140993,19.159 Z M102.392099,16.962 L101.594099,16.962 L101.594099,20.426 L99.8210993,20.426 L99.8210993,9 L101.594099,9 L101.594099,15.533 L102.334099,15.533 L104.333099,12.501 L106.428099,12.501 L103.813099,16.105 L106.816099,20.426 L104.750099,20.426 L102.392099,16.962 Z" id="Shape" fill="#000000" fill-rule="nonzero"></path>
            <path d="M139.791099,176.614 L137.428099,176.614 L137.428099,183.387 L136.123099,183.387 L136.123099,176.614 L133.760099,176.614 L133.760099,175.567 L139.791099,175.567 L139.791099,176.614 Z M142.036099,183.387 L140.731099,183.387 L140.731099,177.575 L142.036099,177.575 L142.036099,183.387 Z M142.036099,176.152 L140.731099,176.152 L140.731099,175.008 L142.036099,175.008 L142.036099,176.152 Z M145.898099,182.458 C146.217099,182.458 146.486099,182.364 146.704099,182.176 C146.915931,182.002997 147.036802,181.742461 147.032099,181.469 L148.213099,181.469 L148.224099,181.502 C148.242099,182.046 148.021099,182.515 147.561099,182.909 C147.101099,183.303 146.546099,183.499 145.898099,183.499 C145.043099,183.499 144.386099,183.224 143.930099,182.673 C143.473099,182.121 143.245099,181.423 143.245099,180.578 L143.245099,180.39 C143.245099,179.548 143.473099,178.851 143.930099,178.298 C144.386099,177.745 145.043099,177.468 145.898099,177.468 C146.597099,177.468 147.163099,177.671 147.598099,178.078 C148.033099,178.484 148.244099,179.001 148.229099,179.628 L148.219099,179.659 L147.032099,179.659 C147.032099,179.341 146.927099,179.07 146.717099,178.849 C146.507099,178.626 146.235099,178.515 145.898099,178.515 C145.408099,178.515 145.060099,178.693 144.856099,179.05 C144.652099,179.406 144.550099,179.853 144.550099,180.39 L144.550099,180.578 C144.550099,181.126 144.652099,181.576 144.856099,181.928 C145.060099,182.281 145.408099,182.458 145.898099,182.458 Z M151.162099,180.846 L150.577099,180.846 L150.577099,183.386 L149.277099,183.386 L149.277099,175.008 L150.577099,175.008 L150.577099,179.799 L151.119099,179.799 L152.585099,177.575 L154.121099,177.575 L152.204099,180.218 L154.406099,183.387 L152.891099,183.387 L151.162099,180.847 L151.162099,180.846 Z M162.071099,180.599 L163.059099,180.599 L163.059099,181.652 L162.071099,181.652 L162.071099,183.387 L160.771099,183.387 L160.771099,181.652 L157.414099,181.652 L157.382099,180.852 L160.728099,175.567 L162.071099,175.567 L162.071099,180.599 Z M158.671099,180.599 L160.771099,180.599 L160.771099,177.426 L160.739099,177.416 L160.631099,177.646 L158.671099,180.6 L158.671099,180.599 Z M165.454099,183.387 L164.154099,183.387 L164.154099,182.135 L165.454099,182.135 L165.454099,183.387 Z M165.454099,178.682 L164.154099,178.682 L164.154099,177.43 L165.454099,177.43 L165.454099,178.682 Z M175.982099,183.387 L174.682099,183.387 L171.212099,177.677 L171.180099,177.688 L171.180099,183.387 L169.875099,183.387 L169.875099,175.567 L171.180099,175.567 L174.650099,181.271 L174.682099,181.26 L174.682099,175.567 L175.982099,175.567 L175.982099,183.387 Z M178.920099,183.387 L177.615099,183.387 L177.615099,177.575 L178.920099,177.575 L178.920099,183.387 Z M178.920099,176.152 L177.615099,176.152 L177.615099,175.008 L178.920099,175.008 L178.920099,176.152 Z M182.873099,183.5 C182.049099,183.5 181.393099,183.23 180.904099,182.691 C180.416099,182.152 180.171099,181.461 180.171099,180.615 L180.171099,180.401 C180.171099,179.556 180.414099,178.855 180.899099,178.298 C181.384099,177.741 181.992099,177.464 182.723099,177.468 C183.507099,177.468 184.107099,177.705 184.525099,178.18 C184.942099,178.654 185.150099,179.29 185.150099,180.09 L185.150099,180.857 L181.525099,180.857 L181.514099,180.884 C181.536099,181.346 181.671099,181.724 181.920099,182.017 C182.168099,182.311 182.513099,182.457 182.953099,182.457 C183.304099,182.457 183.605099,182.415 183.856099,182.329 C184.106099,182.243 184.348099,182.119 184.581099,181.959 L185.000099,182.812 C184.781099,183.006 184.491099,183.169 184.130099,183.301 C183.768099,183.433 183.350099,183.5 182.873099,183.5 Z M182.723099,178.515 C182.412184,178.509621 182.117168,178.65212 181.928099,178.899 C181.720099,179.155 181.591099,179.48 181.541099,179.874 L181.551099,179.901 L183.856099,179.901 L183.856099,179.767 C183.856099,179.398 183.762099,179.097 183.574099,178.864 C183.386099,178.632 183.102099,178.515 182.723099,178.515 Z M185.961099,180.562 C185.961099,179.634 186.160099,178.887 186.557099,178.319 C186.955099,177.752 187.514099,177.468 188.233099,177.468 C188.548099,177.468 188.830099,177.532 189.079099,177.658 C189.329099,177.786 189.544099,177.968 189.726099,178.204 L189.726099,175.008 L191.032099,175.008 L191.032099,183.387 L189.936099,183.387 L189.807099,182.667 C189.636575,182.924645 189.406393,183.137332 189.136099,183.287 C188.854485,183.433552 188.540492,183.506806 188.223099,183.5 C187.510099,183.5 186.955099,183.24 186.557099,182.72 C186.160099,182.202 185.961099,181.52 185.961099,180.675 L185.961099,180.562 Z M187.266099,180.675 C187.266099,181.212 187.369099,181.64 187.576099,181.958 C187.781099,182.277 188.108099,182.436 188.556099,182.436 C188.831099,182.436 189.065099,182.377 189.256099,182.259 C189.453858,182.134213 189.615813,181.960198 189.726099,181.754 L189.726099,179.219 C189.613959,179.014292 189.451518,178.841526 189.254099,178.717 C189.046415,178.593116 188.807844,178.530699 188.566099,178.537 C188.122099,178.537 187.795099,178.724 187.583099,179.098 C187.373099,179.472 187.266099,179.96 187.266099,180.562 L187.266099,180.675 Z M195.328099,178.752 L194.770099,178.73 C194.546747,178.721722 194.325696,178.777592 194.133099,178.891 C193.963099,178.999 193.832099,179.151 193.739099,179.348 L193.739099,183.387 L192.433099,183.387 L192.433099,177.575 L193.626099,177.575 L193.712099,178.419 C193.859099,178.121 194.047099,177.889 194.278099,177.72 C194.509099,177.552 194.775099,177.468 195.076099,177.468 C195.155099,177.468 195.228099,177.474 195.296099,177.487 C195.364099,177.499 195.426099,177.515 195.484099,177.532 L195.328099,178.752 Z M197.633099,183.387 L196.328099,183.387 L196.328099,177.575 L197.633099,177.575 L197.633099,183.387 Z M197.633099,176.152 L196.328099,176.152 L196.328099,175.008 L197.633099,175.008 L197.633099,176.152 Z M198.857099,180.562 C198.857099,179.638 199.060099,178.892 199.464099,178.322 C199.869099,177.752 200.431099,177.468 201.151099,177.468 C201.498099,177.468 201.803099,177.542 202.067099,177.691 C202.330099,177.839 202.553099,178.053 202.735099,178.333 L202.865099,177.575 L203.949099,177.575 L203.949099,183.387 C203.949099,184.135 203.719099,184.714 203.256099,185.122 C202.794099,185.53 202.139099,185.734 201.290099,185.734 C201.008099,185.734 200.702099,185.694 200.375099,185.614 C200.067461,185.540746 199.768949,185.433416 199.485099,185.294 L199.765099,184.268 C199.980099,184.378 200.217099,184.466 200.477099,184.528 C200.737099,184.591 201.004099,184.622 201.280099,184.622 C201.752099,184.622 202.098099,184.522 202.316099,184.319 C202.535099,184.117 202.644099,183.806 202.644099,183.387 L202.644099,182.791 C202.461099,183.023 202.246099,183.2 201.997099,183.32 C201.728774,183.444197 201.435718,183.505749 201.140099,183.5 C200.427099,183.5 199.869099,183.24 199.464099,182.72 C199.060099,182.202 198.857099,181.52 198.857099,180.675 L198.857099,180.562 Z M200.162099,180.675 C200.162099,181.208 200.269099,181.635 200.482099,181.955 C200.695099,182.276 201.025099,182.436 201.473099,182.436 C201.753099,182.436 201.988099,182.378 202.179099,182.262 C202.371099,182.145 202.526099,181.978 202.644099,181.759 L202.644099,179.214 C202.531107,179.011895 202.369585,178.841093 202.174099,178.717 C201.965923,178.592542 201.726544,178.530096 201.484099,178.537 C201.036099,178.537 200.704099,178.725 200.487099,179.101 C200.271099,179.477 200.162099,179.964 200.162099,180.561 L200.162099,180.675 Z M208.590099,181.808 C208.590099,181.608 208.504099,181.441 208.332099,181.308 C208.160099,181.176 207.840099,181.059 207.370099,180.959 C206.676099,180.812 206.150099,180.604 205.794099,180.333 C205.438099,180.063 205.260099,179.695 205.260099,179.23 C205.260099,178.743 205.466099,178.327 205.877099,177.984 C206.289099,177.64 206.832099,177.468 207.505099,177.468 C208.214099,177.468 208.777099,177.643 209.194099,177.992 C209.611099,178.341 209.811099,178.773 209.793099,179.289 L209.783099,179.321 L208.531099,179.321 C208.53301,179.085157 208.433156,178.859938 208.257099,178.703 C208.074099,178.531 207.823099,178.446 207.505099,178.446 C207.190099,178.446 206.950099,178.516 206.785099,178.658 C206.627841,178.783775 206.536833,178.974635 206.538099,179.176 C206.538099,179.38 206.616099,179.542 206.772099,179.662 C206.927099,179.782 207.243099,179.889 207.720099,179.982 C208.450099,180.132 208.992099,180.344 209.344099,180.618 C209.697099,180.892 209.874099,181.265 209.874099,181.738 C209.874099,182.261 209.658099,182.685 209.226099,183.011 C208.795099,183.337 208.226099,183.5 207.521099,183.5 C206.765099,183.5 206.169099,183.306 205.732099,182.92 C205.295099,182.533 205.088099,182.089 205.109099,181.588 L205.120099,181.555 L206.334099,181.555 C206.348099,181.892 206.470099,182.137 206.699099,182.291 C206.929099,182.445 207.208099,182.522 207.537099,182.522 C207.874099,182.522 208.133099,182.458 208.316099,182.329 C208.491312,182.214336 208.594913,182.017342 208.590099,181.808 Z M212.666099,176.163 L212.666099,177.575 L213.708099,177.575 L213.708099,178.542 L212.666099,178.542 L212.666099,181.754 C212.666099,181.994 212.718099,182.165 212.822099,182.267 C212.933586,182.372121 213.083045,182.427357 213.236099,182.42 C213.373529,182.42085 213.510006,182.397144 213.639099,182.35 L213.779099,183.306 C213.667099,183.367 213.535099,183.415 213.381099,183.449 C213.224057,183.482994 213.063776,183.499759 212.903099,183.499 C212.423099,183.499 212.047099,183.359 211.775099,183.079 C211.503099,182.797 211.367099,182.356 211.367099,181.754 L211.367099,178.542 L210.480099,178.542 L210.480099,177.575 L211.367099,177.575 L211.367099,176.163 L212.667099,176.163 L212.666099,176.163 Z M217.361099,183.5 C216.537099,183.5 215.881099,183.23 215.392099,182.691 C214.903099,182.152 214.659099,181.461 214.659099,180.615 L214.659099,180.401 C214.659099,179.556 214.902099,178.855 215.387099,178.298 C215.872099,177.741 216.480099,177.464 217.210099,177.468 C217.994099,177.468 218.595099,177.705 219.012099,178.18 C219.429099,178.654 219.638099,179.29 219.638099,180.09 L219.638099,180.857 L216.013099,180.857 L216.002099,180.884 C216.023099,181.346 216.158099,181.724 216.407099,182.017 C216.657099,182.311 217.001099,182.457 217.441099,182.457 C217.792099,182.457 218.093099,182.415 218.344099,182.329 C218.594099,182.243 218.836099,182.119 219.069099,181.959 L219.488099,182.812 C219.269099,183.006 218.979099,183.169 218.618099,183.301 C218.256099,183.433 217.837099,183.5 217.361099,183.5 Z M217.211099,178.515 C216.899835,178.509301 216.604378,178.651833 216.415099,178.899 C216.208099,179.155 216.079099,179.48 216.029099,179.874 L216.039099,179.901 L218.344099,179.901 L218.344099,179.767 C218.344099,179.398 218.250099,179.097 218.062099,178.864 C217.874099,178.632 217.590099,178.515 217.210099,178.515 L217.211099,178.515 Z M223.586099,178.752 L223.027099,178.73 C222.804083,178.721914 222.583407,178.777777 222.391099,178.891 C222.221099,178.999 222.089099,179.151 221.996099,179.348 L221.996099,183.387 L220.691099,183.387 L220.691099,177.575 L221.883099,177.575 L221.969099,178.419 C222.116099,178.121 222.305099,177.889 222.536099,177.72 C222.767453,177.55188 223.047148,177.463444 223.333099,177.468 C223.413099,177.468 223.486099,177.474 223.553099,177.487 C223.622099,177.499 223.684099,177.515 223.742099,177.532 L223.586099,178.752 Z M232.749099,176.614 L230.386099,176.614 L230.386099,183.387 L229.080099,183.387 L229.080099,176.614 L226.717099,176.614 L226.717099,175.567 L232.749099,175.567 L232.749099,176.614 Z M234.994099,183.387 L233.689099,183.387 L233.689099,177.575 L234.994099,177.575 L234.994099,183.387 Z M234.994099,176.152 L233.689099,176.152 L233.689099,175.008 L234.994099,175.008 L234.994099,176.152 Z M238.856099,182.458 C239.175099,182.458 239.443099,182.364 239.661099,182.176 C239.872931,182.002997 239.993802,181.742461 239.989099,181.469 L241.171099,181.469 L241.181099,181.502 C241.199099,182.046 240.978099,182.515 240.518099,182.909 C240.058099,183.303 239.504099,183.499 238.856099,183.499 C238.000099,183.499 237.344099,183.224 236.887099,182.673 C236.431099,182.121 236.202099,181.423 236.202099,180.578 L236.202099,180.39 C236.202099,179.548 236.431099,178.851 236.887099,178.298 C237.344099,177.745 238.000099,177.468 238.856099,177.468 C239.554099,177.468 240.121099,177.671 240.556099,178.078 C240.991099,178.484 241.201099,179.001 241.186099,179.628 L241.176099,179.659 L239.989099,179.659 C239.989099,179.341 239.884099,179.07 239.675099,178.849 C239.465099,178.626 239.192099,178.515 238.855099,178.515 C238.365099,178.515 238.018099,178.693 237.814099,179.05 C237.610099,179.406 237.508099,179.853 237.508099,180.39 L237.508099,180.578 C237.508099,181.126 237.610099,181.576 237.814099,181.928 C238.018099,182.281 238.365099,182.458 238.856099,182.458 Z M244.119099,180.846 L243.534099,180.846 L243.534099,183.386 L242.234099,183.386 L242.234099,175.008 L243.534099,175.008 L243.534099,179.799 L244.077099,179.799 L245.543099,177.575 L247.079099,177.575 L245.161099,180.218 L247.364099,183.387 L245.849099,183.387 L244.119099,180.847 L244.119099,180.846 Z M239.985099,56.608 L236.253099,56.608 L236.253099,59.309 L240.583099,59.309 L240.583099,60.446 L234.829099,60.446 L234.829099,51.914 L240.542099,51.914 L240.542099,53.057 L236.253099,53.057 L236.253099,55.465 L239.986099,55.465 L239.986099,56.608 L239.985099,56.608 Z M242.892099,54.106 L242.974099,55.02 C243.181099,54.696 243.442099,54.443 243.756099,54.261 C244.080123,54.0769699 244.44751,53.9830514 244.820099,53.989 C245.480099,53.989 245.994099,54.189 246.363099,54.589 C246.733099,54.989 246.917099,55.614 246.917099,56.461 L246.917099,60.446 L245.493099,60.446 L245.493099,56.473 C245.493099,55.996 245.395099,55.658 245.197099,55.456 C245.000099,55.256 244.700099,55.155 244.298099,55.155 C243.779336,55.1464172 243.29341,55.4081276 243.015099,55.846 L243.015099,60.446 L241.591099,60.446 L241.591099,54.106 L242.891099,54.106 L242.892099,54.106 Z M248.136099,57.364 C248.136099,56.352 248.353099,55.537 248.786099,54.917 C249.220099,54.298 249.829099,53.989 250.614099,53.989 C250.933974,53.9835136 251.250497,54.0548427 251.537099,54.197 C251.809099,54.335 252.044099,54.534 252.243099,54.791 L252.243099,51.306 L253.667099,51.306 L253.667099,60.446 L252.472099,60.446 L252.332099,59.662 C252.145733,59.9430427 251.894278,60.1749441 251.599099,60.338 C251.291863,60.4977821 250.949318,60.5775717 250.603099,60.57 C249.825099,60.57 249.220099,60.287 248.786099,59.72 C248.353099,59.154 248.136099,58.41 248.136099,57.488 L248.136099,57.365 L248.136099,57.364 Z M249.560099,57.487 C249.560099,58.073 249.672099,58.539 249.897099,58.887 C250.121099,59.235 250.477099,59.409 250.966099,59.409 C251.266099,59.409 251.522099,59.344 251.731099,59.215 C251.940099,59.086 252.111099,58.903 252.243099,58.665 L252.243099,55.899 C252.12075,55.6755666 251.943513,55.4869731 251.728099,55.351 C251.517099,55.221 251.267099,55.155 250.978099,55.155 C250.493099,55.155 250.136099,55.359 249.905099,55.767 C249.675099,56.175 249.560099,56.707 249.560099,57.364 L249.560099,57.487 Z M256.966099,52.565 L256.966099,54.105 L258.103099,54.105 L258.103099,55.161 L256.965099,55.161 L256.965099,58.664 C256.965099,58.926 257.022099,59.113 257.135099,59.224 C257.256595,59.3384758 257.419348,59.3987414 257.586099,59.391 C257.736123,59.3920851 257.885132,59.366347 258.026099,59.315 L258.178099,60.358 C258.041487,60.4299227 257.895366,60.4821089 257.744099,60.513 C257.572984,60.5505473 257.398285,60.5693249 257.223099,60.569 C256.699099,60.569 256.289099,60.415 255.993099,60.109 C255.695099,59.802 255.547099,59.321 255.547099,58.664 L255.547099,55.161 L254.580099,55.161 L254.580099,54.106 L255.547099,54.106 L255.547099,52.565 L256.965099,52.565 L256.966099,52.565 Z M260.886099,60.445 L259.462099,60.445 L259.462099,54.105 L260.886099,54.105 L260.886099,60.445 Z M260.886099,52.553 L259.462099,52.553 L259.462099,51.306 L260.886099,51.306 L260.886099,52.554 L260.886099,52.553 Z M265.099099,59.432 C265.420083,59.4414212 265.733196,59.331707 265.978099,59.124 C266.208431,58.9353096 266.339916,58.6517137 266.335099,58.354 L267.625099,58.354 L267.635099,58.389 C267.655099,58.983 267.415099,59.495 266.912099,59.924 C266.410099,60.354 265.806099,60.569 265.099099,60.569 C264.165099,60.569 263.449099,60.268 262.951099,59.666 C262.453099,59.065 262.204099,58.303 262.204099,57.381 L262.204099,57.176 C262.204099,56.258 262.454099,55.497 262.951099,54.894 C263.449099,54.29 264.165099,53.989 265.099099,53.989 C265.861099,53.989 266.479099,54.21 266.953099,54.654 C267.428099,55.097 267.657099,55.661 267.642099,56.344 L267.630099,56.379 L266.335099,56.379 C266.335099,56.032 266.221099,55.737 265.992099,55.495 C265.764099,55.252 265.466099,55.131 265.099099,55.131 C264.564099,55.131 264.185099,55.326 263.962099,55.714 C263.739099,56.103 263.628099,56.59 263.628099,57.176 L263.628099,57.381 C263.628099,57.979 263.739099,58.471 263.962099,58.855 C264.185099,59.24 264.564099,59.432 265.099099,59.432 Z M270.841099,57.674 L270.202099,57.674 L270.202099,60.446 L268.784099,60.446 L268.784099,51.306 L270.202099,51.306 L270.202099,56.532 L270.794099,56.532 L272.394099,54.106 L274.070099,54.106 L271.978099,56.989 L274.380099,60.446 L272.728099,60.446 L270.841099,57.674 Z" id="Shape" fill="#2A3052" fill-rule="nonzero"></path>
        </g>
    </g>
</svg>