<svg width="300" height="199" viewBox="0 0 300 199" xmlns="http://www.w3.org/2000/svg"><title>deutsch no touch</title><g fill="none" fill-rule="evenodd"><path fill="#F1F2F2" d="M0 0h300v199H0z"/><path d="M39.125 55.375V74.75H75.25V55.375H39.125zm0-1H75.25V34h1v20.375h36.125V34h1v20.375H149.5V34h1v20.375h36.125V34h1v20.375h36.125V34h1v20.375h36.125V34h1v20.375H299.5v1h-37.625V74.75H299.5v1h-37.625v19.375H299.5v1h-37.625V115.5H299.5v1h-37.625v19.375H299.5v1h-37.625v19.375H299.5v1h-37.625v19.375H299.5v1h-37.625V199h-1v-21.375H224.75V199h-1v-21.375h-36.125V199h-1v-21.375H150.5V199h-1v-21.375h-36.125V199h-1v-21.375H76.25V199h-1v-21.375H39.125V199h-1v-21.375H1.5v-1h36.625V157.25H1.5v-1h36.625v-19.375H1.5v-1h36.625V116.5H1.5v-1h36.625V96.125H1.5v-1h36.625V75.75H1.5v-1h36.625V55.375H1.5v-1h36.625V34h1v20.375zm221.75 1H224.75V74.75h36.125V55.375zm-37.125 0h-36.125V74.75h36.125V55.375zm-37.125 0H150.5V74.75h36.125V55.375zm-37.125 0h-36.125V74.75H149.5V55.375zm-37.125 0H76.25V74.75h36.125V55.375zM39.125 75.75v19.375H75.25V75.75H39.125zm221.75 0H224.75v19.375h36.125V75.75zm-37.125 0h-36.125v19.375h36.125V75.75zm-37.125 0H150.5v19.375h36.125V75.75zm-37.125 0h-36.125v19.375H149.5V75.75zm-37.125 0H76.25v19.375h36.125V75.75zm-73.25 20.375V115.5H75.25V96.125H39.125zm221.75 0H224.75V115.5h36.125V96.125zm-37.125 0h-36.125V115.5h36.125V96.125zm-37.125 0H150.5V115.5h36.125V96.125zm-37.125 0h-36.125V115.5H149.5V96.125zm-37.125 0H76.25V115.5h36.125V96.125zM39.125 116.5v19.375H75.25V116.5H39.125zm221.75 0H224.75v19.375h36.125V116.5zm-37.125 0h-36.125v19.375h36.125V116.5zm-37.125 0H150.5v19.375h36.125V116.5zm-37.125 0h-36.125v19.375H149.5V116.5zm-37.125 0H76.25v19.375h36.125V116.5zm-73.25 20.375v19.375H75.25v-19.375H39.125zm221.75 0H224.75v19.375h36.125v-19.375zm-37.125 0h-36.125v19.375h36.125v-19.375zm-37.125 0H150.5v19.375h36.125v-19.375zm-37.125 0h-36.125v19.375H149.5v-19.375zm-37.125 0H76.25v19.375h36.125v-19.375zm-73.25 20.375v19.375H75.25V157.25H39.125zm221.75 0H224.75v19.375h36.125V157.25zm-37.125 0h-36.125v19.375h36.125V157.25zm-37.125 0H150.5v19.375h36.125V157.25zm-37.125 0h-36.125v19.375H149.5V157.25zm-37.125 0H76.25v19.375h36.125V157.25z" fill="#DFDEDE"/><path stroke="#C2C2C2" stroke-width="2" d="M1 1h298v197H1z"/><path fill="#C2C2C2" d="M0 33h300v2H0z"/><g transform="translate(2 33.7)"><path d="M.94 41.551h294.552M260.107.241V162.97" stroke="#293152" stroke-width="1.211" stroke-linejoin="round"/><path stroke="#293152" stroke-width="3.633" stroke-linecap="round" stroke-linejoin="round" d="M36.514 103.498l37.284-33.924 33.636 26.347 34.168-26.347 35.346 28.86 37.21-33.239 45.95 12.641"/><path d="M187.134 114.235h-35.536l-5.473-8.339-5.473 8.339h-35.536c-2.66 0-4.79 2.17-4.79 4.873v25.167c0 2.703 2.167 4.874 4.79 4.874h82.056c2.66 0 4.79-2.17 4.79-4.874v-25.167c0-2.703-2.167-4.873-4.828-4.873z" fill="#E88124" fill-rule="nonzero"/><ellipse cx="8.476" cy="10.052" rx="8.247" ry="8.605" opacity=".6" transform="translate(251.632 67.784)" fill="#FFF" fill-rule="nonzero"/><ellipse stroke="#E88124" stroke-width="2.422" cx="260.107" cy="77.836" rx="8.247" ry="8.605"/><ellipse cx="9.122" cy="9.062" rx="8.247" ry="8.605" opacity=".6" transform="translate(27.392 94.436)" fill="#FFF" fill-rule="nonzero"/><ellipse stroke="#E88124" stroke-width="2.422" cx="36.514" cy="103.498" rx="8.247" ry="8.605"/></g><path d="M30.432 158.903c0-.414-.16-.733-.446-1.02-.287-.287-.83-.51-1.594-.67-.925-.223-1.658-.541-2.168-.988a2.085 2.085 0 0 1-.765-1.625c0-.702.287-1.275.829-1.722.542-.478 1.275-.701 2.168-.701.956 0 1.721.255 2.295.797.574.542.829 1.147.829 1.849v.032H30.4c0-.51-.16-.925-.51-1.244-.35-.318-.829-.478-1.466-.478-.574 0-1.052.128-1.34.415a1.275 1.275 0 0 0-.477 1.052c0 .382.16.7.51.956.35.255.892.478 1.657.67.925.223 1.626.573 2.104 1.02.478.446.733 1.02.733 1.657 0 .701-.286 1.275-.86 1.721-.574.447-1.34.638-2.263.638-.861 0-1.626-.255-2.296-.733a2.225 2.225 0 0 1-.988-1.913v-.032h1.116c0 .574.191.988.606 1.307.414.287.924.447 1.53.447.605 0 1.052-.128 1.402-.383.383-.255.574-.606.574-1.052zm4.24-5.897v1.594h1.243v.892h-1.243v3.985c0 .319.063.51.19.637.128.128.288.192.511.192.064 0 .127 0 .223-.032s.16-.032.223-.064l.16.829a2.122 2.122 0 0 1-.383.191 2.79 2.79 0 0 1-.51.064c-.478 0-.86-.16-1.148-.446-.286-.287-.414-.766-.414-1.371v-3.985H32.44v-.892h1.02v-1.594h1.212zm6.662 8.128c-.032-.19-.064-.382-.096-.51-.032-.127-.032-.318-.032-.446-.223.319-.51.574-.86.797-.35.223-.733.319-1.148.319-.67 0-1.18-.16-1.53-.51a1.945 1.945 0 0 1-.542-1.435c0-.637.255-1.115.765-1.466.51-.35 1.18-.542 2.04-.542h1.275v-.637a1.275 1.275 0 0 0-.35-.925 1.38 1.38 0 0 0-.988-.35c-.383 0-.702.095-.925.286-.223.192-.35.447-.35.702h-1.116v-.032c-.032-.478.191-.925.67-1.307a2.837 2.837 0 0 1 1.816-.606c.733 0 1.34.191 1.785.574.447.382.67.924.67 1.626v3.155c0 .224 0 .447.032.67.032.223.063.446.127.637h-1.243zm-1.945-.86c.415 0 .83-.096 1.148-.319.35-.223.574-.478.67-.765v-1.052h-1.34c-.478 0-.86.127-1.147.35-.26.21-.412.527-.414.861 0 .287.095.51.255.702.19.127.478.223.828.223zm7.778-4.654l-.605-.032c-.319 0-.574.064-.797.223-.227.16-.404.381-.51.638v4.685h-1.18v-6.566h1.052l.128.956c.191-.35.414-.606.67-.797.254-.191.573-.287.924-.287.095 0 .16 0 .255.032a.56.56 0 0 0 .191.032l-.128 1.116zm2.806-2.614v1.594h1.243v.892h-1.243v3.985c0 .319.063.51.19.637.128.128.288.192.51.192.065 0 .128 0 .224-.032s.16-.032.223-.064l.16.829a2.122 2.122 0 0 1-.383.191 2.79 2.79 0 0 1-.51.064c-.478 0-.86-.16-1.148-.446-.286-.287-.414-.766-.414-1.371v-3.985h-1.02v-.892h1.02v-1.594h1.148z" fill="#293152" fill-rule="nonzero"/><g fill="#000"><path d="M51.148 20.772h4.799v1.609h-7.27v-1.092l4.655-7.752h-4.649V11.92h7.142v1.05l-4.677 7.802zm8.341 1.609h-2.098v-7.774h2.098v7.774zm0-9.634h-2.098v-1.574h2.098v1.574zm5.094 9.785c-1.16 0-2.065-.356-2.716-1.067-.651-.711-.977-1.627-.977-2.748v-.288c0-1.163.316-2.117.948-2.859.633-.742 1.502-1.111 2.608-1.106 1.044 0 1.845.32 2.403.959.558.64.837 1.5.837 2.583v1.084h-4.634l-.021.044c.033.531.195.962.485 1.293.29.33.72.496 1.29.496.469 0 .868-.048 1.196-.144a4.88 4.88 0 0 0 1.016-.438l.568 1.293c-.311.254-.733.467-1.265.64a5.608 5.608 0 0 1-1.738.258zm-.137-6.452c-.421 0-.746.145-.973.435-.228.29-.365.674-.413 1.153l.014.036h2.558v-.158c0-.455-.094-.813-.28-1.074-.187-.261-.489-.392-.906-.392zm6.667 6.301h-2.097V11.173h2.097v11.208zM20.42 18.013h-.768v4.368h-2.098v-10.46h2.098v4.274h.59l2.866-4.275H25.7l-3.62 4.864 3.9 5.597H23.31l-2.888-4.368zm9.535 4.519c-1.16 0-2.065-.356-2.716-1.067-.651-.711-.977-1.627-.977-2.748v-.288c0-1.163.316-2.117.948-2.859.632-.742 1.502-1.111 2.608-1.106 1.044 0 1.845.32 2.403.959.558.64.837 1.5.837 2.583v1.084h-4.634l-.021.044c.033.531.195.962.485 1.293.29.33.72.496 1.29.496.469 0 .868-.048 1.196-.144a4.88 4.88 0 0 0 1.016-.438l.568 1.293c-.312.254-.733.467-1.265.64a5.608 5.608 0 0 1-1.738.258zm-.137-6.452c-.421 0-.746.145-.973.435-.228.29-.366.674-.413 1.153l.014.036h2.558v-.158c0-.455-.094-.813-.28-1.074-.187-.261-.49-.392-.906-.392zm6.667 6.301h-2.097v-7.774h2.097v7.774zm0-9.634h-2.097v-1.574h2.097v1.574zm3.643 1.86l.093 1.114c.259-.398.578-.707.956-.927a2.48 2.48 0 0 1 1.272-.33c.785 0 1.398.252 1.839.758.44.505.66 1.304.66 2.396v4.763h-2.104v-4.756c0-.556-.097-.95-.291-1.182-.194-.232-.485-.348-.873-.348-.312 0-.586.058-.823.176a1.606 1.606 0 0 0-.585.484v5.626h-2.098v-7.774h1.954z"/></g><g fill="#2A3052"><path d="M272.71 128.422h-4.227v3.386h4.904v.991h-6.156v-9.472h6.088v.992h-4.836v3.078h4.227v1.025zM275.991 125.721l.102 1.06a2.281 2.281 0 0 1 2.029-1.163c.744 0 1.319.206 1.725.684.406.445.609 1.129.609 2.052v4.445h-1.252v-4.41c0-.616-.135-1.06-.372-1.334s-.609-.377-1.082-.377c-.372 0-.677.103-.947.274-.27.171-.508.41-.677.718v5.13h-1.251v-7.045l1.116-.034zM281.718 129.242c0-1.129.237-2.052.71-2.736.474-.684 1.15-1.026 1.996-1.026.406 0 .778.069 1.082.24.304.136.575.376.812.65v-3.865h1.251v10.156h-1.014l-.136-.855c-.209.311-.487.569-.811.753a2.48 2.48 0 0 1-1.15.24c-.846 0-1.489-.309-1.962-.924-.474-.616-.71-1.436-.71-2.462v-.171h-.068zm1.235.138c0 .718.135 1.3.44 1.71.304.41.71.65 1.318.65.372 0 .677-.103.947-.274.27-.171.474-.41.61-.718v-3.283a1.784 1.784 0 0 0-.644-.684 1.688 1.688 0 0 0-.913-.273c-.609 0-1.048.239-1.319.752-.27.513-.44 1.162-.44 1.983v.137zM295.067 129.511h-4.988c.128 1.536.753 2.304 1.873 2.304 1.68 0 1.913-1.44 1.913-1.35l1.103-.004c-.537 1.559-1.543 2.338-3.016 2.338-2.21 0-2.986-1.58-3.079-3.288-.093-1.707.469-3.998 3.097-3.998 2.155.04 3.187 1.373 3.097 3.998zm-1.251-.908c-.126-1.357-.75-2.035-1.873-2.035-1.124 0-1.748.678-1.874 2.035h3.747z"/></g><g fill="#6D6E71"><path d="M41.934 70.38h1.218l1.047-7.213h-1.247zM44.715 59.923l-.194 1.592h-1.418l.243-1.592z"/><path opacity=".9" d="M28.403 61.903l.17-1.001h5.68l-.113 1.001-5.278 7.727h4.782l-.164 1.04h-6.032v-1.04l5.233-7.727zM46.996 59.923h1.265l-1.513 10.47H45.52zM39.415 68.914c.074.189.159.39.359.837-1.51 1.207-3.248 1.043-4.06.543-1.223-.751-1.223-2.147-1.216-3.226.007-1.377.973-3.939 3.66-3.939 2.686 0 2.245 3.044 2.114 3.939-.274 0-1.756.028-4.445.084-.249 3.348 2.162 2.6 3.588 1.762zm-.162-2.692c.157-1.322-.23-1.983-1.161-1.983-1.397 0-1.886 1.552-2.042 1.983h3.203z"/></g><g fill="#FFF"><path d="M168.776 161.205h2.015l.1 1.484c.826-1.245 1.896-1.798 3.212-1.66.762.08 2.369.332 2.848 2.52.175.801.138 2.156.125 3.997-.005.715-.005 1.953 0 3.714h-2.211v-6.299c0-.74-.205-1.567-.82-1.88-.844-.43-2.433-.25-3.071.834v7.345h-2.198v-10.055zM158.04 161.205h2.014l.102 1.484c.825-1.245 1.895-1.798 3.211-1.66.762.08 2.368.332 2.847 2.52.176.801.139 2.156.126 3.997-.005.715-.005 1.953 0 3.714h-2.211v-6.299c0-.74-.205-1.567-.82-1.88-.844-.43-2.433-.25-3.071.834v7.345h-2.198v-10.055zM148.93 161.3h2.187l-2.687 9.96h-1.798l-2.175-6.591-2.054 6.59h-1.822l-2.784-9.96h2.289l1.48 6.965 2.128-6.965h1.629l2.099 6.965zM136.105 166.64h-6.062c.134 2.83 1.865 3.513 5.196 2.051l.707 1.378a4.927 4.927 0 0 1-2.116 1.035c-1.648.362-3.257.085-4.372-.747-2.42-1.805-1.803-5.595-1.27-6.9.25-.611 1.476-2.332 2.935-2.498 1.32-.15 4.592-.468 4.982 3.977.032.904.032 1.472 0 1.703zm-2.142-1.844c.001-1.581-.618-2.372-1.857-2.372-1.858 0-2.046 2.372-2.046 2.372h3.903zM121.011 165.78v-1.665h4.98c.057 2.902.057 4.593 0 5.075-.42 1.27-5.394 3.579-8.605.65-.957-.873-1.407-1.84-1.653-3.304-.011-1.496-.038-2.899-.028-4.225.244-1.627.782-2.55 1.216-3.075 1.58-1.908 4.095-2.319 6.307-1.546 2.213.774 2.5 2.38 2.679 3.951-.512 0-.783-.022-2.166 0 .14-.884-.656-2.593-2.731-2.499-2.076.094-3.056 1.819-3.056 3.255 0 1.437-.075.954 0 3.809.094 3.278 3.98 4.158 5.787 2.407l.066-2.792-2.796-.041zM152.785 161.22h2.127v10.04h-2.127v-10.04zm.043-4.381h2.17v1.905h-2.17v-1.905z"/><path d="M181.66 167.048h-2.484v-8.005h2.483v8.005zm0 4.212h-2.484v-2.15h2.483v2.15z" fill-rule="nonzero"/></g></g></svg>