<?xml version="1.0" encoding="UTF-8"?>
<svg width="299px" height="197px" viewBox="0 0 299 197" version="1.1" xmlns="http://www.w3.org/2000/svg" xmlns:xlink="http://www.w3.org/1999/xlink">
    <!-- Generator: Sketch 52.5 (67469) - http://www.bohemiancoding.com/sketch -->
    <title>over</title>
    <desc>Created with Sketch.</desc>
    <g id="Page-1" stroke="none" stroke-width="1" fill="none" fill-rule="evenodd">
        <g id="over">
            <g id="Group">
                <polygon id="Path" fill="#F1F1F2" points="0 0 299 0 299 197 0 197"></polygon>
                <path d="M1.98671096,1.9798995 L1.98671096,195.020101 L297.013289,195.020101 L297.013289,1.9798995 L1.98671096,1.9798995 Z M299,0 L299,197 L0,197 L0,0 L299,0 Z" id="Path" fill="#C2C2C2" fill-rule="nonzero"></path>
                <path d="M4.57962025,54.9933135 L4.57962025,53.7813019 L294.988101,53.7813019 L294.988101,54.9933135 L4.57962025,54.9933135 Z M4.57962025,75.0721596 L4.57962025,73.860148 L294.988101,73.860148 L294.988101,75.0721596 L4.57962025,75.0721596 Z M4.57962025,135.346583 L4.57962025,134.134571 L294.988101,134.134571 L294.988101,135.346583 L4.57962025,135.346583 Z M4.57962025,155.425429 L4.57962025,154.213417 L294.988101,154.213417 L294.988101,155.425429 L4.57962025,155.425429 Z M4.57962025,175.504275 L4.57962025,174.292263 L294.988101,174.292263 L294.988101,175.504275 L4.57962025,175.504275 Z M39.0588043,34.3084615 L40.2708159,34.3084615 L40.2708159,192.590385 L39.0588043,192.590385 L39.0588043,34.3084615 Z M75.8093107,34.3084615 L77.0213223,34.3084615 L77.0213223,192.590385 L75.8093107,192.590385 L75.8093107,34.3084615 Z M112.559817,34.3084615 L113.771829,34.3084615 L113.771829,192.590385 L112.559817,192.590385 L112.559817,34.3084615 Z M149.272475,34.3084615 L150.484487,34.3084615 L150.484487,192.590385 L149.272475,192.590385 L149.272475,34.3084615 Z M186.022981,34.3084615 L187.234993,34.3084615 L187.234993,192.590385 L186.022981,192.590385 L186.022981,34.3084615 Z M222.773488,34.3084615 L223.9855,34.3084615 L223.9855,192.590385 L222.773488,192.590385 L222.773488,34.3084615 Z M259.523994,34.3084615 L260.736006,34.3084615 L260.736006,192.590385 L259.523994,192.590385 L259.523994,34.3084615 Z M4.57962025,115.267737 L4.57962025,114.055725 L294.988101,114.055725 L294.988101,115.267737 L4.57962025,115.267737 Z" id="Shape" fill="#DEDEDD" fill-rule="nonzero"></path>
                <polygon id="Path" fill="#293052" fill-rule="nonzero" points="4.57962025 95.1888904 4.57962025 93.9768788 6.39632911 93.9768788 6.39632911 95.1888904"></polygon>
                <path d="M10.0297468,95.1888904 L10.0297468,93.9768788 L13.6657813,93.9768788 L13.6657813,95.1888904 L10.0297468,95.1888904 Z M17.3018158,95.1888904 L17.3018158,93.9768788 L20.9378503,93.9768788 L20.9378503,95.1888904 L17.3018158,95.1888904 Z M24.5738848,95.1888904 L24.5738848,93.9768788 L28.2099192,93.9768788 L28.2099192,95.1888904 L24.5738848,95.1888904 Z M31.8459537,95.1888904 L31.8459537,93.9768788 L35.4819882,93.9768788 L35.4819882,95.1888904 L31.8459537,95.1888904 Z M39.1180227,95.1888904 L39.1180227,93.9768788 L42.7540572,93.9768788 L42.7540572,95.1888904 L39.1180227,95.1888904 Z M46.3900917,95.1888904 L46.3900917,93.9768788 L50.0261262,93.9768788 L50.0261262,95.1888904 L46.3900917,95.1888904 Z M53.6621607,95.1888904 L53.6621607,93.9768788 L57.2981952,93.9768788 L57.2981952,95.1888904 L53.6621607,95.1888904 Z M60.9342296,95.1888904 L60.9342296,93.9768788 L64.5702641,93.9768788 L64.5702641,95.1888904 L60.9342296,95.1888904 Z M68.2062986,95.1888904 L68.2062986,93.9768788 L71.8423331,93.9768788 L71.8423331,95.1888904 L68.2062986,95.1888904 Z M75.4783676,95.1888904 L75.4783676,93.9768788 L79.1144021,93.9768788 L79.1144021,95.1888904 L75.4783676,95.1888904 Z M82.7504366,95.1888904 L82.7504366,93.9768788 L86.3864711,93.9768788 L86.3864711,95.1888904 L82.7504366,95.1888904 Z M90.0225056,95.1888904 L90.0225056,93.9768788 L93.65854,93.9768788 L93.65854,95.1888904 L90.0225056,95.1888904 Z M97.2945745,95.1888904 L97.2945745,93.9768788 L100.930609,93.9768788 L100.930609,95.1888904 L97.2945745,95.1888904 Z M104.566644,95.1888904 L104.566644,93.9768788 L108.202678,93.9768788 L108.202678,95.1888904 L104.566644,95.1888904 Z M111.838712,95.1888904 L111.838712,93.9768788 L115.474747,93.9768788 L115.474747,95.1888904 L111.838712,95.1888904 Z M119.110781,95.1888904 L119.110781,93.9768788 L122.746816,93.9768788 L122.746816,95.1888904 L119.110781,95.1888904 Z M126.38285,95.1888904 L126.38285,93.9768788 L130.018885,93.9768788 L130.018885,95.1888904 L126.38285,95.1888904 Z M133.654919,95.1888904 L133.654919,93.9768788 L137.290954,93.9768788 L137.290954,95.1888904 L133.654919,95.1888904 Z M140.926988,95.1888904 L140.926988,93.9768788 L144.563023,93.9768788 L144.563023,95.1888904 L140.926988,95.1888904 Z M148.199057,95.1888904 L148.199057,93.9768788 L151.835092,93.9768788 L151.835092,95.1888904 L148.199057,95.1888904 Z M155.471126,95.1888904 L155.471126,93.9768788 L159.107161,93.9768788 L159.107161,95.1888904 L155.471126,95.1888904 Z M162.743195,95.1888904 L162.743195,93.9768788 L166.37923,93.9768788 L166.37923,95.1888904 L162.743195,95.1888904 Z M170.015264,95.1888904 L170.015264,93.9768788 L173.651299,93.9768788 L173.651299,95.1888904 L170.015264,95.1888904 Z M177.287333,95.1888904 L177.287333,93.9768788 L180.923368,93.9768788 L180.923368,95.1888904 L177.287333,95.1888904 Z M184.559402,95.1888904 L184.559402,93.9768788 L188.195437,93.9768788 L188.195437,95.1888904 L184.559402,95.1888904 Z M191.831471,95.1888904 L191.831471,93.9768788 L195.467506,93.9768788 L195.467506,95.1888904 L191.831471,95.1888904 Z M199.10354,95.1888904 L199.10354,93.9768788 L202.739575,93.9768788 L202.739575,95.1888904 L199.10354,95.1888904 Z M206.375609,95.1888904 L206.375609,93.9768788 L210.011644,93.9768788 L210.011644,95.1888904 L206.375609,95.1888904 Z M213.647678,95.1888904 L213.647678,93.9768788 L217.283713,93.9768788 L217.283713,95.1888904 L213.647678,95.1888904 Z M220.919747,95.1888904 L220.919747,93.9768788 L224.555782,93.9768788 L224.555782,95.1888904 L220.919747,95.1888904 Z M228.191816,95.1888904 L228.191816,93.9768788 L231.827851,93.9768788 L231.827851,95.1888904 L228.191816,95.1888904 Z M235.463885,95.1888904 L235.463885,93.9768788 L239.09992,93.9768788 L239.09992,95.1888904 L235.463885,95.1888904 Z M242.735954,95.1888904 L242.735954,93.9768788 L246.371989,93.9768788 L246.371989,95.1888904 L242.735954,95.1888904 Z M250.008023,95.1888904 L250.008023,93.9768788 L253.644058,93.9768788 L253.644058,95.1888904 L250.008023,95.1888904 Z M257.280092,95.1888904 L257.280092,93.9768788 L260.916127,93.9768788 L260.916127,95.1888904 L257.280092,95.1888904 Z M264.552161,95.1888904 L264.552161,93.9768788 L268.188195,93.9768788 L268.188195,95.1888904 L264.552161,95.1888904 Z M271.82423,95.1888904 L271.82423,93.9768788 L275.460264,93.9768788 L275.460264,95.1888904 L271.82423,95.1888904 Z M279.096299,95.1888904 L279.096299,93.9768788 L282.732333,93.9768788 L282.732333,95.1888904 L279.096299,95.1888904 Z M286.368368,95.1888904 L286.368368,93.9768788 L290.004402,93.9768788 L290.004402,95.1888904 L286.368368,95.1888904 Z" id="Path" fill="#293052" fill-rule="nonzero"></path>
                <polygon id="Path" fill="#293052" fill-rule="nonzero" points="293.209241 95.1888904 293.209241 93.9768788 294.988101 93.9768788 294.988101 95.1888904"></polygon>
                <polygon id="Path" fill="#C2C2C2" fill-rule="nonzero" points="2.49797468 34.3081653 2.49797468 31.8841423 297.107595 31.8841423 297.107595 34.3081653"></polygon>
                <path d="M222.098486,93.3196726 C222.796138,92.6121911 223.935225,92.6042234 224.642706,93.3018761 C225.350187,93.9995288 225.358155,95.1386152 224.660502,95.8460966 L192.905945,128.04802 C192.349395,128.612412 191.48904,128.746059 190.787502,128.377099 L149.238124,106.525008 L107.026241,130.918649 C106.50507,131.219827 105.867808,131.240407 105.32829,130.973483 L75.6175306,116.274252 C75.490378,116.211344 75.3711123,116.133618 75.262219,116.042692 L38.5117126,85.3561534 C37.7490288,84.7193153 37.6470108,83.5847786 38.283849,82.8220948 C38.9206871,82.059411 40.0552238,81.957393 40.8179076,82.5942312 L77.4045007,113.143903 L106.060202,127.32115 L148.29705,102.913082 C148.831898,102.604 149.48792,102.590936 150.03465,102.878478 L191.281081,124.57124 L222.098486,93.3196726 Z" id="Path" fill="#293052" fill-rule="nonzero"></path>
                <path d="M255.777468,116.442308 L256.458734,109.850385 L262.438734,109.850385 L262.438734,111.29 L257.859114,111.29 L257.480633,114.661731 C257.738043,114.475843 258.017792,114.323106 258.313291,114.207115 C258.652819,114.082664 259.011462,114.018559 259.373038,114.017692 C260.360193,113.950487 261.323334,114.341704 261.984557,115.078462 C262.651589,115.913838 262.988369,116.965604 262.930759,118.033462 C262.983885,119.07757 262.646553,120.104048 261.984557,120.912692 C261.259172,121.675396 260.233747,122.07764 259.183797,122.011346 C258.265456,122.05097 257.364093,121.754715 256.647975,121.177885 C255.939311,120.566144 255.572238,119.647575 255.663924,118.715385 L257.14,118.715385 C257.108474,119.277866 257.314475,119.827731 257.707722,120.230769 C258.109708,120.597007 258.640887,120.787871 259.183797,120.761154 C259.799153,120.79461 260.392242,120.526049 260.773418,120.041346 C261.130742,119.423238 261.264403,118.700774 261.151899,117.995577 C261.182556,117.318016 260.982382,116.650124 260.584177,116.101346 C260.203002,115.616643 259.609912,115.348082 258.994557,115.381538 C258.520998,115.352997 258.048937,115.458001 257.632025,115.684615 C257.326598,115.895241 257.100158,116.201898 256.988608,116.555962 L255.777468,116.442308 Z M261.795316,137.013654 L263.422785,137.013654 L263.422785,138.301731 L261.795316,138.301731 L261.795316,141.067308 L260.167848,141.067308 L260.167848,138.263846 L254.793418,138.263846 L254.793418,137.354615 L260.054304,129.057885 L261.757468,129.057885 L261.757468,137.013654 L261.795316,137.013654 Z M256.53443,137.013654 L260.319241,137.013654 L260.319241,131.368846 L260.319241,131.785577 L256.53443,137.013654 Z M257.367089,154.743654 L258.767468,154.743654 C259.325709,154.800257 259.880259,154.605977 260.281392,154.213269 C260.609187,153.778876 260.770348,153.241154 260.73557,152.697885 C260.776505,152.136143 260.600373,151.580115 260.243544,151.144615 C259.837034,150.760667 259.286607,150.567832 258.72962,150.614231 C258.169097,150.591729 257.623226,150.796628 257.215696,151.1825 C256.828398,151.573883 256.62251,152.109709 256.647975,152.66 L255.247595,152.66 C255.21047,151.780519 255.572089,150.931287 256.231646,150.349038 C256.96996,149.695054 257.934074,149.35525 258.918861,149.401923 C259.880591,149.344251 260.828092,149.655873 261.568228,150.273269 C262.255029,150.932115 262.615311,151.861431 262.552278,152.811538 C262.533346,153.960056 261.83422,154.987423 260.773418,155.425577 C261.394692,155.595435 261.932881,155.985999 262.287342,156.524231 C263.063477,157.932888 262.799769,159.687467 261.643924,160.805192 C260.884299,161.448164 259.913111,161.785708 258.918861,161.752308 C257.935754,161.796492 256.969251,161.48745 256.193797,160.880962 C255.48866,160.296826 255.108184,159.408192 255.171899,158.494231 L256.723671,158.494231 C256.687313,159.05744 256.894027,159.609209 257.291392,160.009615 C257.724424,160.403533 258.296652,160.608097 258.881013,160.577885 C259.477619,160.614113 260.063833,160.409422 260.508481,160.009615 C261.019865,159.521741 261.260211,158.814159 261.151899,158.115385 C261.261216,157.51572 261.06945,156.900547 260.638836,156.469519 C260.208223,156.03849 259.593644,155.846539 258.994557,155.955962 L257.367089,155.955962 L257.367089,154.743654 Z M263.082152,181.073462 L255.323291,181.073462 L255.323291,179.936923 L259.108101,175.580192 C259.651976,175.014261 260.134103,174.391971 260.546329,173.723846 C260.786997,173.295384 260.917084,172.813596 260.92481,172.322115 C260.941776,171.768733 260.75296,171.22874 260.394937,170.806731 C260.046154,170.399807 259.529652,170.176239 258.994557,170.200577 C258.325428,170.149808 257.6659,170.383616 257.177848,170.844615 C256.755636,171.338615 256.538883,171.975942 256.572278,172.625192 L255.134051,172.625192 C255.078909,171.646589 255.451926,170.692405 256.155949,170.011154 C256.957697,169.274983 258.021649,168.892683 259.108101,168.950385 C260.058625,168.904874 260.987058,169.246538 261.681772,169.8975 C262.314128,170.52735 262.656813,171.391749 262.627975,172.284231 C262.623229,172.980647 262.426794,173.662279 262.060253,174.254231 C261.594171,175.016979 261.048634,175.728131 260.432785,176.375769 L257.291392,179.785385 L263.044304,179.785385 L263.044304,181.073462 L263.082152,181.073462 Z M263.082152,70.4882692 C261.869489,71.8485036 260.885274,73.3966187 260.167848,75.0723077 C259.607096,76.6382473 259.238529,78.2665926 259.070253,79.9215385 L259.070253,81.2096154 L257.367089,81.2096154 L257.367089,79.9215385 C257.56963,78.142856 258.041846,76.4054673 258.767468,74.7692308 C259.481062,73.2036759 260.397274,71.73887 261.492532,70.4125 L254.982658,70.4125 L254.982658,69.2001923 L263.082152,69.2001923 L263.082152,70.4882692 Z M262.627975,52.8719231 C262.636271,53.4586606 262.449918,54.0315833 262.098101,54.5009615 C261.732922,54.9880083 261.232789,55.3568833 260.659873,55.5617308 C261.307406,55.7829422 261.88292,56.1757167 262.32519,56.6982692 C262.72868,57.2027459 262.942935,57.8327298 262.930759,58.4788462 C262.988164,59.4513642 262.580815,60.39339 261.833165,61.0171154 C260.133059,62.1805904 257.893903,62.1805904 256.193797,61.0171154 C255.465135,60.3822325 255.073381,59.4439174 255.134051,58.4788462 C255.125034,57.8332267 255.338937,57.2042817 255.73962,56.6982692 C256.161986,56.1710277 256.72693,55.7765005 257.367089,55.5617308 C256.805853,55.3543828 256.318559,54.9852642 255.966709,54.5009615 C255.633332,54.0243688 255.460929,53.4535637 255.474684,52.8719231 C255.424696,51.9572075 255.7856,51.0679719 256.458734,50.4473077 C257.17932,49.848034 258.096344,49.537565 259.032405,49.5759615 C259.968466,49.537565 260.88549,49.848034 261.606076,50.4473077 C262.29776,51.0576082 262.67393,51.9501304 262.627975,52.8719231 Z M261.341139,58.4409615 C261.366212,57.8313483 261.132478,57.2395678 260.697722,56.8119231 C260.262978,56.3882281 259.676916,56.1563059 259.070253,56.1678846 C258.462817,56.1519793 257.875137,56.3845421 257.442785,56.8119231 C257.011995,57.2421888 256.778979,57.8321512 256.799367,58.4409615 C256.77548,59.0392461 257.009876,59.6189028 257.442785,60.0321154 C258.407122,60.7977403 259.771232,60.7977403 260.73557,60.0321154 C261.15882,59.6150064 261.379856,59.0342278 261.341139,58.4409615 Z M261.151899,52.9098077 C261.168403,52.3610051 260.963828,51.8285961 260.584177,51.4323077 C259.805108,50.671955 258.562487,50.671955 257.783418,51.4323077 C257.421115,51.8368295 257.230982,52.3669961 257.253544,52.9098077 C257.222542,53.4538761 257.413803,53.9871891 257.783418,54.3873077 C258.577435,55.1099451 259.79016,55.1099451 260.584177,54.3873077 C260.967573,53.9934105 261.172784,53.4593475 261.151899,52.9098077 Z" id="Shape" fill="#808184" fill-rule="nonzero"></path>
                <path d="M188.180759,145.158846 L153.133418,145.158846 L147.607595,137.089423 L142.308861,145.158846 L107.261519,145.158846 C104.648653,145.158846 102.530506,147.279036 102.530506,149.894423 L102.530506,174.405769 C102.530506,177.021156 104.648653,179.141346 107.261519,179.141346 L188.180759,179.141346 C189.455058,179.171968 190.687787,178.686593 191.599735,177.79516 C192.511683,176.903726 193.025684,175.681664 193.025316,174.405769 L193.025316,149.932308 C193.035937,148.649854 192.526447,147.417929 191.613353,146.518235 C190.700259,145.61854 189.461651,145.128022 188.180759,145.158846 Z" id="Path" fill="#E88024"></path>
                <g opacity="0.6" transform="translate(214.949367, 86.134615)" fill="#FFFFFF" id="Oval">
                    <ellipse cx="8.4301266" cy="8.44826923" rx="8.13734177" ry="8.3725"></ellipse>
                </g>
                <path d="M223.379494,104.167396 C218.20814,104.167396 214.030141,99.8686586 214.030141,94.5828846 C214.030141,89.2971106 218.20814,84.9983731 223.379494,84.9983731 C228.550848,84.9983731 232.728847,89.2971106 232.728847,94.5828846 C232.728847,99.8686586 228.550848,104.167396 223.379494,104.167396 Z M223.379494,101.743373 C227.196399,101.743373 230.304824,98.5451187 230.304824,94.5828846 C230.304824,90.6206505 227.196399,87.4223961 223.379494,87.4223961 C219.562589,87.4223961 216.454164,90.6206505 216.454164,94.5828846 C216.454164,98.5451187 219.562589,101.743373 223.379494,101.743373 Z" id="Oval" fill="#E88024" fill-rule="nonzero"></path>
                <polygon id="Path" fill="#E88024" points="246.277595 85.7557692 274.852911 85.7557692 274.852911 104.546538 246.277595 104.546538"></polygon>
                <path d="M259.978608,88.9001923 C260.393686,88.8545188 260.812516,88.8545188 261.227595,88.9001923 C261.616837,88.9915122 261.996905,89.1183239 262.363038,89.2790385 L261.946709,91.0217308 L260.962658,90.7565385 L259.978608,90.7565385 C259.299557,90.7445615 258.654515,91.0533575 258.237595,91.59 C257.766499,92.2488629 257.55123,93.0569009 257.632025,93.8630769 C257.921048,93.5756001 258.270015,93.3556681 258.653924,93.2190385 C259.102231,93.0555945 259.57737,92.9784707 260.054304,92.9917308 C261.020514,92.9495093 261.948742,93.3718383 262.552278,94.1282692 C263.182229,94.966617 263.503151,95.9972339 263.460633,97.0453846 C263.499611,98.155254 263.090334,99.2340572 262.32519,100.038269 C261.569615,100.833878 260.506426,101.262328 259.410886,101.212692 C258.23793,101.258483 257.10378,100.787772 256.307342,99.9246154 C255.473094,98.9328663 255.052867,97.6573993 255.134051,96.3634615 L255.134051,94.0146154 C255.051615,92.6184338 255.544003,91.2493707 256.496582,90.2261538 C257.419714,89.3142991 258.683403,88.8330842 259.978608,88.9001923 Z M259.410886,94.8480769 C259.020507,94.8415525 258.633286,94.9190716 258.275443,95.0753846 C257.989351,95.1971451 257.741048,95.3933628 257.556329,95.6436538 L257.556329,96.4392308 C257.505456,97.2085736 257.690311,97.9751393 258.086203,98.6365385 C258.37702,99.1099493 258.893529,99.3971756 259.448734,99.3942308 C259.933126,99.3918446 260.379832,99.1322165 260.622025,98.7123077 C260.964846,98.2240055 261.149788,97.6421993 261.151899,97.0453846 C261.182189,96.467308 261.022681,95.8951877 260.697722,95.4163462 C260.405575,95.0012912 259.916606,94.7709665 259.410886,94.8101923 L259.410886,94.8480769 Z" id="Shape" fill="#FFFFFF" fill-rule="nonzero"></path>
                <polygon id="Path" fill="#E88024" points="249.75962 95.1511538 246.428987 98.485 241.243797 95.1511538 246.428987 91.8551923"></polygon>
                <polygon id="Path" fill="#293052" fill-rule="nonzero" points="247.56443 126.29216 247.56443 125.080148 270.462532 125.080148 270.462532 126.29216"></polygon>
            </g>
            <path d="M24.319,11.786 L24.319,19.389 C24.319,20.698 23.886,21.721 23.019,22.461 C22.152,23.201 21.027,23.57 19.644,23.57 C18.266,23.57 17.148,23.2 16.289,22.46 C15.429,21.721 15,20.698 15,19.389 L15,11.786 L17.338,11.786 L17.338,19.389 C17.338,20.166 17.546,20.759 17.96,21.169 C18.375,21.578 18.936,21.783 19.644,21.783 C20.362,21.783 20.931,21.578 21.351,21.168 C21.771,20.758 21.981,20.166 21.981,19.389 L21.981,11.786 L24.319,11.786 Z M22.716,10.629 L20.593,10.629 L20.593,9 L22.716,9 L22.716,10.628 L22.716,10.629 Z M18.726,10.629 L16.604,10.629 L16.604,9 L18.726,9 L18.726,10.628 L18.726,10.629 Z M33.949,19.325 C33.949,20.612 33.662,21.642 33.088,22.413 C32.513,23.184 31.683,23.57 30.598,23.57 C30.093,23.57 29.653,23.463 29.278,23.25 C28.8880589,23.0226037 28.5606144,22.7020311 28.325,22.317 L28.133,23.402 L26.163,23.402 L26.163,10.956 L28.484,10.956 L28.484,15.687 C28.734,15.341 29.034,15.075 29.382,14.889 C29.73,14.703 30.13,14.609 30.582,14.609 C31.678,14.609 32.513,15.023 33.088,15.851 C33.662,16.678 33.949,17.78 33.949,19.158 L33.949,19.325 Z M31.628,19.158 C31.628,18.318 31.504,17.651 31.257,17.159 C31.009,16.667 30.587,16.421 29.992,16.421 C29.63,16.421 29.324,16.497 29.074,16.648 C28.824,16.8 28.628,17.017 28.484,17.298 L28.484,20.953 C28.628,21.213 28.826,21.413 29.078,21.551 C29.331,21.69 29.641,21.759 30.008,21.759 C30.609,21.759 31.029,21.547 31.268,21.124 C31.508,20.702 31.628,20.102 31.628,19.325 L31.628,19.158 Z M39.128,23.57 C37.84,23.57 36.835,23.175 36.112,22.385 C35.388,21.595 35.026,20.578 35.026,19.333 L35.026,19.014 C35.026,17.722 35.377,16.664 36.08,15.839 C36.782,15.014 37.747,14.605 38.976,14.609 C40.136,14.609 41.025,14.965 41.645,15.675 C42.265,16.385 42.575,17.341 42.575,18.543 L42.575,19.748 L37.427,19.748 L37.403,19.796 C37.44,20.386 37.62,20.866 37.942,21.232 C38.263,21.599 38.741,21.782 39.374,21.782 C39.895,21.782 40.338,21.729 40.702,21.623 C41.095932,21.504088 41.4750412,21.340702 41.832,21.136 L42.462,22.572 C42.116,22.854 41.648,23.092 41.057,23.282 C40.4327998,23.4788313 39.7814709,23.5760244 39.127,23.57 L39.128,23.57 Z M38.976,16.405 C38.508,16.405 38.147,16.566 37.895,16.888 C37.642,17.21 37.489,17.636 37.435,18.168 L37.452,18.208 L40.292,18.208 L40.292,18.033 C40.292,17.527 40.189,17.13 39.982,16.84 C39.774,16.55 39.439,16.405 38.976,16.405 Z M48.47,16.772 L47.616,16.748 C47.271,16.748 46.986,16.82 46.763,16.964 C46.5368427,17.1111548 46.35937,17.3220341 46.253,17.57 L46.253,23.402 L43.93,23.402 L43.93,14.77 L46.093,14.77 L46.196,16.046 C46.398,15.594 46.66,15.242 46.982,14.989 C47.2981334,14.737875 47.6912979,14.603641 48.095,14.609 C48.212,14.609 48.32,14.619 48.418,14.638 C48.517,14.656 48.616,14.679 48.718,14.706 L48.47,16.772 Z" id="Shape" fill="#020202" fill-rule="nonzero"></path>
            <path d="M272.367,16.101 L271,16.101 L271,14.658 L272.405,14.658 L272.405,16.101 L272.367,16.101 Z M272.367,22.291 L271,22.291 L271,20.848 L272.405,20.848 L272.405,22.291 L272.367,22.291 Z M278.329,17.658 L278.937,12 L284.101,12 L284.101,13.253 L280.304,13.253 L279.962,16.139 C280.185,15.982 280.428,15.854 280.683,15.759 C280.985,15.708 281.293,15.708 281.595,15.759 C282.441908,15.7040668 283.267314,16.0401247 283.835,16.671 C284.4,17.395 284.683,18.299 284.633,19.215 C284.663518,20.1238118 284.366871,21.0133975 283.797,21.722 C283.16789,22.3831553 282.277674,22.7308157 281.367,22.671 C280.460973,22.7011055 279.582373,22.3576202 278.937,21.721 C278.338957,21.199805 278.027901,20.4229087 278.101,19.633 L279.354,19.633 C279.33,20.113 279.509,20.583 279.848,20.924 C280.204,21.294 280.703,21.488 281.215,21.456 C281.815,21.514 282.4,21.237 282.735,20.734 C283.09,20.238 283.265,19.634 283.228,19.025 C283.253122,18.4404167 283.078942,17.8646349 282.734,17.392 C282.411251,16.966362 281.900734,16.7254815 281.367,16.747 C280.961133,16.7127314 280.553712,16.7916541 280.19,16.975 C279.931733,17.1607927 279.74417,17.4287398 279.658,17.735 L278.329,17.658 Z" id="Shape" fill="#293052" fill-rule="nonzero"></path>
            <path d="M197.266,21.031 L201.826,21.031 L201.826,22.02 L196,22.02 L196,12.668 L197.266,12.668 L197.266,21.031 Z M205.936,22.155 C204.939,22.155 204.161,21.835 203.602,21.198 C203.043,20.56 202.764,19.72 202.764,18.68 L202.764,18.397 C202.764,17.4 203.052,16.574 203.628,15.921 C204.204,15.268 204.907,14.941 205.738,14.941 C206.667,14.941 207.364,15.231 207.828,15.809 C208.293,16.387 208.525,17.156 208.525,18.115 L208.525,18.783 L204.08,18.783 L204.061,18.815 C204.061,19.513 204.215,20.079 204.524,20.514 C204.832,20.948 205.303,21.166 205.937,21.166 C206.365,21.166 206.741,21.105 207.064,20.983 C207.387,20.861 207.664,20.693 207.896,20.478 L208.39,21.301 C208.142,21.541 207.814,21.743 207.408,21.907 C207.001,22.072 206.51,22.155 205.937,22.155 L205.936,22.155 Z M205.738,15.937 C205.297,15.937 204.931,16.107 204.642,16.448 C204.353,16.788 204.177,17.224 204.112,17.755 L204.125,17.787 L207.26,17.787 L207.26,17.684 C207.26,17.179 207.136,16.762 206.887,16.432 C206.639,16.102 206.256,15.937 205.737,15.937 L205.738,15.937 Z M211.704,13.394 L211.704,15.07 L213.021,15.07 L213.021,16.008 L211.704,16.008 L211.704,20.228 C211.704,20.553 211.772,20.782 211.907,20.915 C212.042,21.048 212.22,21.115 212.443,21.115 C212.516,21.115 212.597,21.105 212.687,21.085 C212.777,21.066 212.852,21.045 212.912,21.025 L213.085,21.891 C212.991,21.969 212.852,22.031 212.668,22.081 C212.484,22.131 212.302,22.155 212.122,22.155 C211.608,22.155 211.199,22 210.895,21.689 C210.591,21.379 210.439,20.892 210.439,20.228 L210.439,16.008 L209.334,16.008 L209.334,15.07 L210.439,15.07 L210.439,13.394 L211.704,13.394 Z M215.571,21.031 L219.585,21.031 L219.585,22.02 L214.062,22.02 L214.062,21.134 L217.819,16.072 L214.107,16.072 L214.107,15.07 L219.367,15.07 L219.367,15.93 L215.571,21.03 L215.571,21.031 Z M222.752,13.394 L222.752,15.07 L224.069,15.07 L224.069,16.008 L222.752,16.008 L222.752,20.228 C222.752,20.553 222.819,20.782 222.954,20.915 C223.089,21.048 223.268,21.115 223.491,21.115 C223.563,21.115 223.645,21.105 223.735,21.085 C223.825,21.066 223.9,21.045 223.96,21.025 L224.133,21.891 C224.039,21.969 223.9,22.031 223.715,22.081 C223.531,22.131 223.349,22.155 223.169,22.155 C222.656,22.155 222.247,22 221.943,21.689 C221.639,21.379 221.487,20.892 221.487,20.228 L221.487,16.008 L220.382,16.008 L220.382,15.07 L221.487,15.07 L221.487,13.394 L222.752,13.394 Z M228.302,22.154 C227.304,22.154 226.525,21.836 225.967,21.198 C225.407,20.56 225.128,19.72 225.128,18.68 L225.128,18.397 C225.128,17.4 225.416,16.574 225.992,15.921 C226.568,15.268 227.272,14.941 228.102,14.941 C229.032,14.941 229.728,15.231 230.193,15.809 C230.658,16.387 230.89,17.156 230.89,18.115 L230.89,18.783 L226.445,18.783 L226.425,18.815 C226.425,19.513 226.58,20.079 226.888,20.514 C227.197,20.948 227.668,21.166 228.301,21.166 C228.73,21.166 229.105,21.105 229.429,20.983 C229.752,20.861 230.029,20.693 230.26,20.478 L230.755,21.301 C230.507,21.541 230.179,21.743 229.772,21.907 C229.366,22.072 228.875,22.155 228.302,22.155 L228.302,22.154 Z M228.102,15.937 C227.662,15.937 227.296,16.107 227.007,16.448 C226.718,16.788 226.542,17.224 226.477,17.755 L226.49,17.787 L229.625,17.787 L229.625,17.684 C229.625,17.179 229.5,16.762 229.252,16.432 C229.004,16.102 228.62,15.937 228.102,15.937 Z M240.742,19.663 C240.742,19.239 240.591,18.883 240.287,18.596 C239.983,18.31 239.447,18.066 238.681,17.864 C237.731,17.629 236.988,17.282 236.455,16.824 C235.922,16.366 235.655,15.79 235.655,15.096 C235.655,14.364 235.943,13.754 236.516,13.266 C237.09,12.777 237.836,12.533 238.752,12.533 C239.736,12.533 240.522,12.813 241.106,13.371 C241.69,13.931 241.974,14.582 241.956,15.327 L241.937,15.366 L240.73,15.366 C240.73,14.835 240.545,14.396 240.174,14.049 C239.804,13.702 239.33,13.529 238.752,13.529 C238.161,13.529 237.708,13.672 237.393,13.959 C237.078,14.246 236.921,14.619 236.921,15.077 C236.921,15.483 237.093,15.823 237.438,16.095 C237.783,16.367 238.343,16.605 239.118,16.811 C240.06,17.055 240.777,17.415 241.269,17.89 C241.762,18.365 242.008,18.952 242.008,19.65 C242.008,20.403 241.712,21.01 241.118,21.468 C240.525,21.926 239.751,22.155 238.797,22.155 C237.893,22.155 237.096,21.902 236.404,21.397 C235.712,20.892 235.377,20.215 235.399,19.367 L235.412,19.329 L236.619,19.329 C236.619,19.915 236.842,20.369 237.287,20.687 C237.732,21.007 238.236,21.166 238.797,21.166 C239.396,21.166 239.87,21.031 240.219,20.761 C240.569,20.491 240.743,20.125 240.743,19.663 L240.742,19.663 Z M245.387,13.393 L245.387,15.07 L246.703,15.07 L246.703,16.008 L245.387,16.008 L245.387,20.228 C245.387,20.553 245.454,20.782 245.589,20.915 C245.724,21.048 245.902,21.115 246.125,21.115 C246.198,21.115 246.279,21.105 246.369,21.085 C246.459,21.066 246.534,21.045 246.594,21.025 L246.767,21.891 C246.673,21.969 246.534,22.031 246.35,22.081 C246.166,22.131 245.984,22.155 245.804,22.155 C245.29,22.155 244.881,22 244.577,21.689 C244.273,21.379 244.121,20.892 244.121,20.228 L244.121,16.008 L243.016,16.008 L243.016,15.07 L244.121,15.07 L244.121,13.394 L245.387,13.394 L245.387,13.393 Z M250.936,22.155 C249.938,22.155 249.16,21.835 248.601,21.198 C248.042,20.56 247.763,19.72 247.763,18.68 L247.763,18.397 C247.763,17.4 248.051,16.574 248.627,15.921 C249.203,15.268 249.907,14.941 250.737,14.941 C251.666,14.941 252.363,15.231 252.827,15.809 C253.292,16.387 253.524,17.156 253.524,18.115 L253.524,18.783 L249.08,18.783 L249.06,18.815 C249.06,19.513 249.215,20.079 249.523,20.514 C249.831,20.948 250.303,21.166 250.936,21.166 C251.364,21.166 251.74,21.105 252.063,20.983 C252.386,20.861 252.663,20.693 252.895,20.478 L253.39,21.301 C253.141,21.541 252.814,21.743 252.407,21.907 C252,22.072 251.51,22.155 250.936,22.155 Z M250.736,15.937 C250.296,15.937 249.931,16.107 249.642,16.448 C249.352,16.788 249.176,17.224 249.112,17.755 L249.125,17.787 L252.259,17.787 L252.259,17.684 C252.259,17.179 252.135,16.762 251.887,16.432 C251.638,16.102 251.255,15.937 250.737,15.937 L250.736,15.937 Z M256.312,22.02 L255.047,22.02 L255.047,12 L256.312,12 L256.312,22.02 Z M259.626,22.02 L258.361,22.02 L258.361,12 L259.626,12 L259.626,22.02 Z M264.45,22.155 C263.452,22.155 262.674,21.835 262.115,21.198 C261.556,20.56 261.277,19.72 261.277,18.68 L261.277,18.397 C261.277,17.4 261.565,16.574 262.141,15.921 C262.717,15.268 263.421,14.941 264.251,14.941 C265.18,14.941 265.877,15.231 266.341,15.809 C266.806,16.387 267.038,17.156 267.038,18.115 L267.038,18.783 L262.594,18.783 L262.574,18.815 C262.574,19.513 262.729,20.079 263.037,20.514 C263.345,20.948 263.817,21.166 264.45,21.166 C264.878,21.166 265.254,21.105 265.577,20.983 C265.9,20.861 266.177,20.693 266.409,20.478 L266.903,21.301 C266.655,21.541 266.328,21.743 265.921,21.907 C265.514,22.072 265.024,22.155 264.45,22.155 Z M264.25,15.937 C263.81,15.937 263.445,16.107 263.156,16.448 C262.866,16.788 262.69,17.224 262.626,17.755 L262.639,17.787 L265.773,17.787 L265.773,17.684 C265.773,17.179 265.649,16.762 265.4,16.432 C265.152,16.102 264.769,15.937 264.25,15.937 Z" id="Shape" fill="#2A3052" fill-rule="nonzero"></path>
            <path d="M168.064,158.205 L170.121,158.205 L170.224,159.719 C171.066,158.449 172.159,157.884 173.502,158.025 C174.279,158.106 175.92,158.364 176.409,160.597 C176.588,161.415 176.549,162.798 176.536,164.678 C176.531,165.408 176.531,166.672 176.536,168.468 L174.279,168.468 L174.279,162.04 C174.279,161.284 174.071,160.44 173.444,160.12 C172.582,159.682 170.959,159.866 170.308,160.973 L170.308,168.47 L168.064,168.47 L168.064,158.206 L168.064,158.205 Z M157.105,158.205 L159.161,158.205 L159.265,159.719 C160.107,158.449 161.2,157.884 162.543,158.025 C163.32,158.106 164.96,158.364 165.449,160.597 C165.629,161.415 165.59,162.798 165.577,164.678 C165.572,165.408 165.572,166.672 165.577,168.468 L163.32,168.468 L163.32,162.04 C163.32,161.284 163.111,160.44 162.484,160.12 C161.622,159.682 160,159.866 159.348,160.973 L159.348,168.47 L157.105,168.47 L157.105,158.206 L157.105,158.205 Z M147.805,158.301 L150.038,158.301 L147.295,168.469 L145.46,168.469 L143.24,161.741 L141.143,168.469 L139.283,168.469 L136.441,158.301 L138.778,158.301 L140.288,165.411 L142.46,158.301 L144.123,158.301 L146.266,165.411 L147.805,158.301 Z M134.714,163.752 L128.526,163.752 C128.662,166.642 130.43,167.339 133.83,165.847 L134.552,167.253 C133.928051,167.774792 133.186871,168.13749 132.392,168.31 C130.709,168.68 129.067,168.397 127.928,167.547 C125.458,165.705 126.088,161.837 126.633,160.503 C126.887,159.88 128.139,158.123 129.628,157.953 C130.977,157.8 134.315,157.476 134.714,162.013 C134.746,162.936 134.746,163.516 134.714,163.753 L134.714,163.752 Z M132.527002,161.871 C132.528,160.256 131.897,159.449 130.632,159.449 C128.735,159.449 128.542,161.871 128.542,161.871 L132.527002,161.871 Z M119.306,162.875 L119.306,161.175 L124.39,161.175 C124.447,164.137 124.447,165.864 124.39,166.355 C123.961,167.652 118.884,170.009 115.606,167.019 C114.629,166.129 114.169,165.141 113.918,163.646 C113.907,162.12 113.88,160.688 113.89,159.334 C114.138,157.674 114.688,156.731 115.131,156.195 C116.743,154.247 119.311,153.828 121.569,154.617 C123.828,155.407 124.121,157.047 124.304,158.65 C123.781,158.65 123.504,158.628 122.093,158.65 C122.236,157.748 121.423,156.003 119.305,156.099 C117.185,156.195 116.185,157.955 116.185,159.422 C116.185,160.888 116.109,160.396 116.185,163.31 C116.282,166.656 120.249,167.554 122.093,165.766 L122.16,162.917 L119.306,162.875 Z M151.741,158.221 L153.912,158.221 L153.912,168.469 L151.741,168.469 L151.741,158.22 L151.741,158.221 Z M151.784,153.748 L154,153.748 L154,155.693 L151.784,155.693 L151.784,153.748 Z" id="Shape" fill="#FFFFFF" fill-rule="nonzero"></path>
            <path d="M181.216,164.17 L178.681,164.17 L178.681,155.998 L181.216,155.998 L181.216,164.169 L181.216,164.17 Z M181.216,168.469 L178.681,168.469 L178.681,166.273 L181.216,166.273 L181.216,168.469 Z" id="Shape" fill="#FFFFFF" fill-rule="nonzero"></path>
        </g>
    </g>
</svg>