<svg width="299" height="197" xmlns="http://www.w3.org/2000/svg"><g fill="none" fill-rule="evenodd"><path fill="#F1F1F2" d="M0 0h299v197H0z"/><path d="M1.987 1.98v193.04h295.026V1.98H1.987zM299 0v197H0V0h299z" fill="#C2C2C2" fill-rule="nonzero"/><path d="M4.58 54.993v-1.212h290.408v1.212H4.58zm0 20.08V73.86h290.408v1.212H4.58zm0 60.274v-1.212h290.408v1.212H4.58zm0 20.078v-1.212h290.408v1.212H4.58zm0 20.08v-1.213h290.408v1.212H4.58zM39.059 34.307h1.212V192.59h-1.212V34.308zm36.75 0h1.212V192.59H75.81V34.308zm36.75 0h1.213V192.59h-1.212V34.308zm36.713 0h1.212V192.59h-1.212V34.308zm36.751 0h1.212V192.59h-1.212V34.308zm36.75 0h1.213V192.59h-1.213V34.308zm36.751 0h1.212V192.59h-1.212V34.308zM4.58 115.268v-1.212h290.408v1.212H4.58z" fill="#DEDEDD" fill-rule="nonzero"/><path fill="#293052" fill-rule="nonzero" d="M4.58 95.189v-1.212h1.816v1.212zM10.03 95.189v-1.212h3.636v1.212H10.03zm7.272 0v-1.212h3.636v1.212h-3.636zm7.272 0v-1.212h3.636v1.212h-3.636zm7.272 0v-1.212h3.636v1.212h-3.636zm7.272 0v-1.212h3.636v1.212h-3.636zm7.272 0v-1.212h3.636v1.212H46.39zm7.272 0v-1.212h3.636v1.212h-3.636zm7.272 0v-1.212h3.636v1.212h-3.636zm7.272 0v-1.212h3.636v1.212h-3.636zm7.272 0v-1.212h3.636v1.212h-3.636zm7.272 0v-1.212h3.636v1.212H82.75zm7.273 0v-1.212h3.636v1.212h-3.636zm7.272 0v-1.212h3.636v1.212h-3.636zm7.272 0v-1.212h3.636v1.212h-3.636zm7.272 0v-1.212h3.636v1.212h-3.636zm7.272 0v-1.212h3.636v1.212h-3.636zm7.272 0v-1.212h3.636v1.212h-3.636zm7.272 0v-1.212h3.636v1.212h-3.636zm7.272 0v-1.212h3.636v1.212h-3.636zm7.272 0v-1.212h3.636v1.212H148.2zm7.272 0v-1.212h3.636v1.212h-3.636zm7.272 0v-1.212h3.636v1.212h-3.636zm7.272 0v-1.212h3.636v1.212h-3.636zm7.272 0v-1.212h3.636v1.212h-3.636zm7.272 0v-1.212h3.636v1.212h-3.636zm7.272 0v-1.212h3.637v1.212h-3.637zm7.273 0v-1.212h3.636v1.212h-3.636zm7.272 0v-1.212h3.636v1.212h-3.636zm7.272 0v-1.212h3.636v1.212h-3.636zm7.272 0v-1.212h3.636v1.212h-3.636zm7.272 0v-1.212h3.636v1.212h-3.636zm7.272 0v-1.212h3.636v1.212h-3.636zm7.272 0v-1.212h3.636v1.212h-3.636zm7.272 0v-1.212h3.636v1.212h-3.636zm7.272 0v-1.212h3.636v1.212h-3.636zm7.272 0v-1.212h3.636v1.212h-3.636zm7.272 0v-1.212h3.636v1.212h-3.636zm7.272 0v-1.212h3.636v1.212h-3.636zm7.272 0v-1.212h3.636v1.212h-3.636zM293.21 95.189v-1.212h1.778v1.212z"/><path fill="#C2C2C2" fill-rule="nonzero" d="M2.498 34.308v-2.424h294.61v2.424z"/><path d="M222.098 93.32a1.8 1.8 0 1 1 2.563 2.526l-31.755 32.202a1.8 1.8 0 0 1-2.118.33l-41.55-21.853-42.212 24.394a1.8 1.8 0 0 1-1.698.054l-29.71-14.699a1.8 1.8 0 0 1-.356-.231l-36.75-30.687a1.8 1.8 0 1 1 2.306-2.762l36.587 30.55 28.655 14.177 42.237-24.408a1.8 1.8 0 0 1 1.738-.035l41.246 21.693 30.817-31.251z" fill="#293052" fill-rule="nonzero"/><path d="M255.777 116.442l.682-6.592h5.98v1.44h-4.58l-.378 3.372c.257-.186.537-.339.832-.455a3.1 3.1 0 0 1 1.06-.19 3.216 3.216 0 0 1 2.612 1.061 4.36 4.36 0 0 1 .946 2.955 4.208 4.208 0 0 1-.946 2.88 3.556 3.556 0 0 1-2.801 1.098 3.782 3.782 0 0 1-2.536-.833 2.88 2.88 0 0 1-.984-2.463h1.476a2.009 2.009 0 0 0 .568 1.516c.402.366.933.557 1.476.53a1.892 1.892 0 0 0 1.59-.72 3.11 3.11 0 0 0 .378-2.045 2.995 2.995 0 0 0-.568-1.895 1.892 1.892 0 0 0-1.59-.72 2.534 2.534 0 0 0-1.362.304c-.305.21-.532.517-.643.871l-1.212-.114zm6.018 20.572h1.628v1.288h-1.628v2.765h-1.627v-2.803h-5.375v-.91l5.261-8.296h1.703v7.956h.038zm-5.26 0h3.784v-5.645.417l-3.785 5.228zm.832 17.73h1.4a1.891 1.891 0 0 0 1.514-.53c.328-.435.49-.973.455-1.516a2.199 2.199 0 0 0-.492-1.553 1.967 1.967 0 0 0-1.514-.53 2.08 2.08 0 0 0-1.514.567 1.971 1.971 0 0 0-.568 1.478h-1.4a2.918 2.918 0 0 1 .984-2.311 3.783 3.783 0 0 1 2.687-.947 3.782 3.782 0 0 1 2.65.871 3.222 3.222 0 0 1 .983 2.539 2.88 2.88 0 0 1-1.779 2.614c.622.17 1.16.56 1.514 1.098a3.564 3.564 0 0 1-.643 4.281 4.01 4.01 0 0 1-2.725.947 4.123 4.123 0 0 1-2.725-.871 2.843 2.843 0 0 1-1.022-2.387h1.552c-.037.563.17 1.115.567 1.516a2.194 2.194 0 0 0 1.59.568 2.232 2.232 0 0 0 1.627-.568 2.16 2.16 0 0 0 .644-1.895 1.857 1.857 0 0 0-2.157-2.159h-1.628v-1.212zm5.715 26.33h-7.759v-1.137l3.785-4.357a11.06 11.06 0 0 0 1.438-1.856c.241-.429.371-.91.379-1.402a2.237 2.237 0 0 0-.53-1.515 1.74 1.74 0 0 0-1.4-.606 2.383 2.383 0 0 0-1.817.644 2.54 2.54 0 0 0-.606 1.78h-1.438a3.373 3.373 0 0 1 1.022-2.614 4.047 4.047 0 0 1 2.952-1.06 3.518 3.518 0 0 1 2.574.947c.632.63.975 1.494.946 2.386a3.791 3.791 0 0 1-.568 1.97 12.652 12.652 0 0 1-1.627 2.122l-3.142 3.41h5.753v1.287h.038zm0-110.586a16.86 16.86 0 0 0-2.914 4.584 20.55 20.55 0 0 0-1.098 4.85v1.288h-1.703v-1.288a17.63 17.63 0 0 1 1.4-5.153 19.627 19.627 0 0 1 2.726-4.357h-6.51V69.2h8.1v1.288zm-.454-17.616a2.654 2.654 0 0 1-.53 1.629 3.104 3.104 0 0 1-1.438 1.06 3.785 3.785 0 0 1 1.665 1.137c.404.505.618 1.135.606 1.78a3.07 3.07 0 0 1-1.098 2.54 4.992 4.992 0 0 1-5.64 0 3.108 3.108 0 0 1-1.059-2.54 2.805 2.805 0 0 1 .606-1.78 3.52 3.52 0 0 1 1.627-1.136 3.028 3.028 0 0 1-1.4-1.061 2.73 2.73 0 0 1-.492-1.63 3.07 3.07 0 0 1 .984-2.424c.72-.599 1.637-.91 2.573-.871a3.782 3.782 0 0 1 2.574.871 3.032 3.032 0 0 1 1.022 2.425zm-1.287 5.569a2.16 2.16 0 0 0-.643-1.63 2.27 2.27 0 0 0-1.628-.643 2.198 2.198 0 0 0-2.27 2.273c-.025.598.21 1.178.643 1.591a2.647 2.647 0 0 0 3.293 0c.423-.417.644-.998.605-1.591zm-.19-5.531a2.047 2.047 0 0 0-.567-1.478 2.005 2.005 0 0 0-2.8 0 2.085 2.085 0 0 0-.53 1.478c-.031.544.16 1.077.53 1.477a2.08 2.08 0 0 0 2.8 0c.384-.394.589-.928.568-1.477z" fill="#808184" fill-rule="nonzero"/><path d="M188.18 145.159h-35.047l-5.525-8.07-5.3 8.07h-35.046a4.733 4.733 0 0 0-4.731 4.735v24.512a4.733 4.733 0 0 0 4.73 4.735h80.92a4.729 4.729 0 0 0 3.419-1.346 4.738 4.738 0 0 0 1.425-3.39v-24.473a4.738 4.738 0 0 0-1.412-3.414 4.729 4.729 0 0 0-3.432-1.36z" fill="#E88024"/><ellipse cx="8.43" cy="8.448" rx="8.137" ry="8.373" opacity=".6" transform="translate(214.95 86.135)" fill="#FFF"/><path d="M223.38 104.167c-5.172 0-9.35-4.298-9.35-9.584s4.178-9.585 9.35-9.585c5.17 0 9.349 4.3 9.349 9.585 0 5.286-4.178 9.584-9.35 9.584zm0-2.424c3.816 0 6.925-3.198 6.925-7.16s-3.109-7.16-6.926-7.16c-3.816 0-6.925 3.198-6.925 7.16s3.109 7.16 6.925 7.16z" fill="#E88024" fill-rule="nonzero"/><path fill="#E88024" d="M246.278 85.756h28.575v18.79h-28.575z"/><path d="M259.979 88.9a5.71 5.71 0 0 1 1.249 0c.389.092.769.218 1.135.379l-.416 1.743-.984-.265h-.984a2.157 2.157 0 0 0-1.741.833 3.336 3.336 0 0 0-.606 2.273 2.763 2.763 0 0 1 1.022-.644c.448-.163.923-.24 1.4-.227a3.027 3.027 0 0 1 2.498 1.136c.63.839.951 1.87.909 2.917a4.132 4.132 0 0 1-1.136 2.993 3.783 3.783 0 0 1-2.914 1.175 4.01 4.01 0 0 1-3.104-1.288 5.042 5.042 0 0 1-1.173-3.562v-2.348a5.117 5.117 0 0 1 1.363-3.789 4.615 4.615 0 0 1 3.482-1.326zm-.568 5.948a2.723 2.723 0 0 0-1.136.227 1.741 1.741 0 0 0-.719.569v.795c-.05.77.134 1.536.53 2.198.291.473.808.76 1.363.757a1.362 1.362 0 0 0 1.173-.682 2.92 2.92 0 0 0 .53-1.667c.03-.578-.13-1.15-.454-1.629a1.438 1.438 0 0 0-1.287-.606v.038z" fill="#FFF" fill-rule="nonzero"/><path fill="#E88024" d="M249.76 95.151l-3.331 3.334-5.185-3.334 5.185-3.296z"/><path fill="#293052" fill-rule="nonzero" d="M247.564 126.292v-1.212h22.899v1.212z"/><path d="M24.319 11.786v7.603c0 1.309-.433 2.332-1.3 3.072-.867.74-1.992 1.109-3.375 1.109-1.378 0-2.496-.37-3.355-1.11-.86-.739-1.289-1.762-1.289-3.071v-7.603h2.338v7.603c0 .777.208 1.37.622 1.78.415.409.976.614 1.684.614.718 0 1.287-.205 1.707-.615.42-.41.63-1.002.63-1.779v-7.603h2.338zm-1.603-1.157h-2.123V9h2.123V10.629zm-3.99 0h-2.122V9h2.122V10.629zm15.223 8.696c0 1.287-.287 2.317-.861 3.088-.575.771-1.405 1.157-2.49 1.157-.505 0-.945-.107-1.32-.32a2.729 2.729 0 0 1-.953-.933l-.192 1.085h-1.97V10.956h2.321v4.731c.25-.346.55-.612.898-.798.348-.186.748-.28 1.2-.28 1.096 0 1.931.414 2.506 1.242.574.827.861 1.929.861 3.307v.167zm-2.321-.167c0-.84-.124-1.507-.371-1.999-.248-.492-.67-.738-1.265-.738-.362 0-.668.076-.918.227-.25.152-.446.369-.59.65v3.655c.144.26.342.46.594.598.253.139.563.208.93.208.601 0 1.021-.212 1.26-.635.24-.422.36-1.022.36-1.799v-.167zm7.5 4.412c-1.288 0-2.293-.395-3.016-1.185-.724-.79-1.086-1.807-1.086-3.052v-.319c0-1.292.351-2.35 1.054-3.175.702-.825 1.667-1.234 2.896-1.23 1.16 0 2.049.356 2.669 1.066.62.71.93 1.666.93 2.868v1.205h-5.148l-.024.048c.037.59.217 1.07.539 1.436.321.367.799.55 1.432.55.521 0 .964-.053 1.328-.159a5.42 5.42 0 0 0 1.13-.487l.63 1.436c-.346.282-.814.52-1.405.71a6.227 6.227 0 0 1-1.93.288h.001zm-.152-7.165c-.468 0-.829.161-1.081.483-.253.322-.406.748-.46 1.28l.017.04h2.84v-.175c0-.506-.103-.903-.31-1.193-.208-.29-.543-.435-1.006-.435zm9.494.367l-.854-.024c-.345 0-.63.072-.853.216a1.365 1.365 0 0 0-.51.606v5.832H43.93V14.77h2.163l.103 1.276c.202-.452.464-.804.786-1.057.316-.251.71-.385 1.113-.38.117 0 .225.01.323.029.099.018.198.041.3.068l-.248 2.066z" fill="#020202" fill-rule="nonzero"/><path d="M272.367 16.101H271v-1.443h1.405v1.443h-.038zm0 6.19H271v-1.443h1.405v1.443h-.038zm5.962-4.633l.608-5.658h5.164v1.253h-3.797l-.342 2.886c.223-.157.466-.285.721-.38.302-.051.61-.051.912 0a2.772 2.772 0 0 1 2.24.912c.565.724.848 1.628.798 2.544a3.797 3.797 0 0 1-.836 2.507 3.076 3.076 0 0 1-2.43.949 3.304 3.304 0 0 1-2.43-.95 2.468 2.468 0 0 1-.836-2.088h1.253c-.024.48.155.95.494 1.291.356.37.855.564 1.367.532.6.058 1.185-.219 1.52-.722.355-.496.53-1.1.493-1.709a2.582 2.582 0 0 0-.494-1.633 1.633 1.633 0 0 0-1.367-.645 2.203 2.203 0 0 0-1.177.228 1.405 1.405 0 0 0-.532.76l-1.329-.077z" fill="#293052" fill-rule="nonzero"/><path d="M197.266 21.031h4.56v.989H196v-9.352h1.266v8.363zm8.67 1.124c-.997 0-1.775-.32-2.334-.957-.559-.638-.838-1.478-.838-2.518v-.283c0-.997.288-1.823.864-2.476.576-.653 1.279-.98 2.11-.98.929 0 1.626.29 2.09.868.465.578.697 1.347.697 2.306v.668h-4.445l-.019.032c0 .698.154 1.264.463 1.699.308.434.779.652 1.413.652.428 0 .804-.061 1.127-.183.323-.122.6-.29.832-.505l.494.823c-.248.24-.576.442-.982.606-.407.165-.898.248-1.471.248h-.001zm-.198-6.218c-.441 0-.807.17-1.096.511-.289.34-.465.776-.53 1.307l.013.032h3.135v-.103c0-.505-.124-.922-.373-1.252-.248-.33-.631-.495-1.15-.495h.001zm5.966-2.543v1.676h1.317v.938h-1.317v4.22c0 .325.068.554.203.687a.73.73 0 0 0 .536.2c.073 0 .154-.01.244-.03.09-.019.165-.04.225-.06l.173.866c-.094.078-.233.14-.417.19-.184.05-.366.074-.546.074-.514 0-.923-.155-1.227-.466-.304-.31-.456-.797-.456-1.461v-4.22h-1.105v-.938h1.105v-1.676h1.265zm3.867 7.637h4.014v.989h-5.523v-.886l3.757-5.062h-3.712V15.07h5.26v.86l-3.796 5.1v.001zm7.181-7.637v1.676h1.317v.938h-1.317v4.22c0 .325.067.554.202.687s.314.2.537.2c.072 0 .154-.01.244-.03.09-.019.165-.04.225-.06l.173.866a1.11 1.11 0 0 1-.418.19c-.184.05-.366.074-.546.074-.513 0-.922-.155-1.226-.466-.304-.31-.456-.797-.456-1.461v-4.22h-1.105v-.938h1.105v-1.676h1.265zm5.55 8.76c-.998 0-1.777-.318-2.335-.956-.56-.638-.839-1.478-.839-2.518v-.283c0-.997.288-1.823.864-2.476.576-.653 1.28-.98 2.11-.98.93 0 1.626.29 2.091.868.465.578.697 1.347.697 2.306v.668h-4.445l-.02.032c0 .698.155 1.264.463 1.699.309.434.78.652 1.413.652.429 0 .804-.061 1.128-.183a2.5 2.5 0 0 0 .831-.505l.495.823c-.248.24-.576.442-.983.606-.406.165-.897.248-1.47.248v-.001zm-.2-6.217c-.44 0-.806.17-1.095.511-.289.34-.465.776-.53 1.307l.013.032h3.135v-.103c0-.505-.125-.922-.373-1.252-.248-.33-.632-.495-1.15-.495zm12.64 3.726c0-.424-.151-.78-.455-1.067-.304-.286-.84-.53-1.606-.732-.95-.235-1.693-.582-2.226-1.04-.533-.458-.8-1.034-.8-1.728 0-.732.288-1.342.861-1.83.574-.489 1.32-.733 2.236-.733.984 0 1.77.28 2.354.838.584.56.868 1.211.85 1.956l-.019.039h-1.207c0-.531-.185-.97-.556-1.317-.37-.347-.844-.52-1.422-.52-.591 0-1.044.143-1.359.43-.315.287-.472.66-.472 1.118 0 .406.172.746.517 1.018.345.272.905.51 1.68.716.942.244 1.659.604 2.151 1.079.493.475.739 1.062.739 1.76 0 .753-.296 1.36-.89 1.818-.593.458-1.367.687-2.321.687-.904 0-1.701-.253-2.393-.758-.692-.505-1.027-1.182-1.005-2.03l.013-.038h1.207c0 .586.223 1.04.668 1.358.445.32.949.479 1.51.479.599 0 1.073-.135 1.422-.405.35-.27.524-.636.524-1.098h-.001zm4.645-6.27v1.677h1.316v.938h-1.316v4.22c0 .325.067.554.202.687a.73.73 0 0 0 .536.2c.073 0 .154-.01.244-.03.09-.019.165-.04.225-.06l.173.866c-.094.078-.233.14-.417.19-.184.05-.366.074-.546.074-.514 0-.923-.155-1.227-.466-.304-.31-.456-.797-.456-1.461v-4.22h-1.105v-.938h1.105v-1.676h1.266v-.001zm5.549 8.762c-.998 0-1.776-.32-2.335-.957-.559-.638-.838-1.478-.838-2.518v-.283c0-.997.288-1.823.864-2.476.576-.653 1.28-.98 2.11-.98.929 0 1.626.29 2.09.868.465.578.697 1.347.697 2.306v.668h-4.444l-.02.032c0 .698.155 1.264.463 1.699.308.434.78.652 1.413.652.428 0 .804-.061 1.127-.183.323-.122.6-.29.832-.505l.495.823c-.249.24-.576.442-.983.606-.407.165-.897.248-1.471.248zm-.2-6.218c-.44 0-.805.17-1.094.511-.29.34-.466.776-.53 1.307l.013.032h3.134v-.103c0-.505-.124-.922-.372-1.252-.249-.33-.632-.495-1.15-.495h-.001zm5.576 6.083h-1.265V12h1.265v10.02zm3.314 0h-1.265V12h1.265v10.02zm4.824.135c-.998 0-1.776-.32-2.335-.957-.559-.638-.838-1.478-.838-2.518v-.283c0-.997.288-1.823.864-2.476.576-.653 1.28-.98 2.11-.98.929 0 1.626.29 2.09.868.465.578.697 1.347.697 2.306v.668h-4.444l-.02.032c0 .698.155 1.264.463 1.699.308.434.78.652 1.413.652.428 0 .804-.061 1.127-.183.323-.122.6-.29.832-.505l.494.823c-.248.24-.575.442-.982.606-.407.165-.897.248-1.471.248zm-.2-6.218c-.44 0-.805.17-1.094.511-.29.34-.466.776-.53 1.307l.013.032h3.134v-.103c0-.505-.124-.922-.373-1.252-.248-.33-.631-.495-1.15-.495z" fill="#2A3052" fill-rule="nonzero"/><path d="M168.064 158.205h2.057l.103 1.514c.842-1.27 1.935-1.835 3.278-1.694.777.081 2.418.339 2.907 2.572.179.818.14 2.201.127 4.081-.005.73-.005 1.994 0 3.79h-2.257v-6.428c0-.756-.208-1.6-.835-1.92-.862-.438-2.485-.254-3.136.853v7.497h-2.244V158.205zm-10.959 0h2.056l.104 1.514c.842-1.27 1.935-1.835 3.278-1.694.777.081 2.417.339 2.906 2.572.18.818.141 2.201.128 4.081-.005.73-.005 1.994 0 3.79h-2.257v-6.428c0-.756-.209-1.6-.836-1.92-.862-.438-2.484-.254-3.136.853v7.497h-2.243V158.205zm-9.3.096h2.233l-2.743 10.168h-1.835l-2.22-6.728-2.097 6.728h-1.86l-2.842-10.168h2.337l1.51 7.11 2.172-7.11h1.663l2.143 7.11 1.539-7.11zm-13.091 5.451h-6.188c.136 2.89 1.904 3.587 5.304 2.095l.722 1.406a5.03 5.03 0 0 1-2.16 1.057c-1.683.37-3.325.087-4.464-.763-2.47-1.842-1.84-5.71-1.295-7.044.254-.623 1.506-2.38 2.995-2.55 1.349-.153 4.687-.477 5.086 4.06.032.923.032 1.503 0 1.74v-.001zm-2.187-1.881c.001-1.615-.63-2.422-1.895-2.422-1.897 0-2.09 2.422-2.09 2.422h3.985zm-13.221 1.004v-1.7h5.084c.057 2.962.057 4.689 0 5.18-.429 1.297-5.506 3.654-8.784.664-.977-.89-1.437-1.878-1.688-3.373-.011-1.526-.038-2.958-.028-4.312.248-1.66.798-2.603 1.241-3.139 1.612-1.948 4.18-2.367 6.438-1.578 2.259.79 2.552 2.43 2.735 4.033-.523 0-.8-.022-2.211 0 .143-.902-.67-2.647-2.788-2.551-2.12.096-3.12 1.856-3.12 3.323 0 1.466-.076.974 0 3.888.097 3.346 4.064 4.244 5.908 2.456l.067-2.849-2.854-.042zm32.435-4.654h2.171v10.248h-2.171V158.22v.001zm.043-4.473H154v1.945h-2.216v-1.945zM181.216 164.17h-2.535v-8.172h2.535V164.17zm0 4.299h-2.535v-2.196h2.535v2.196z" fill="#FFF" fill-rule="nonzero"/></g></svg>