<svg width="299" height="197" xmlns="http://www.w3.org/2000/svg"><g fill="none" fill-rule="evenodd"><path fill="#F1F2F2" d="M0 0h299v197H0z"/><path d="M1.987 1.98v193.04h295.026V1.98H1.987zM299 0v197H0V0h299z" fill="#C2C2C2" fill-rule="nonzero"/><path d="M2.75 54.055V52.84h293.487v1.215H2.75zm0 22.53V75.37h293.487v1.215H2.75zm0 18.775v-1.215h293.487v1.215H2.75zm0 36.305v-1.215h293.487v1.215H2.75zm0 23.775v-1.215h293.487v1.215H2.75zm0 22.53v-1.215h293.487v1.215H2.75zM37.886 32.795h1.215V194.26h-1.215V32.795zm37.627 0h1.215V194.26h-1.215V32.795zm37.626 0h1.215V194.26h-1.215V32.795zm33.864 0h1.215V194.26h-1.215V32.795zm37.627 0h1.215V194.26h-1.215V32.795zm37.627 0h1.215V194.26h-1.215V32.795zm37.626 0h1.215V194.26h-1.215V32.795z" fill="#DFDEDE" fill-rule="nonzero"/><path fill="#2A3052" fill-rule="nonzero" d="M3.906 131.82v-1.215h291.607v1.215z"/><path fill="#C2C2C2" fill-rule="nonzero" d="M.8 34.78v-2.43h293.563v2.43z"/><path d="M187.24 148.191h-35.181l-5.419-8.223-5.418 8.223h-35.18c-2.635 0-4.742 2.14-4.742 4.807v24.82c0 2.666 2.145 4.807 4.741 4.807h81.236c2.634 0 4.741-2.14 4.741-4.807v-24.82c0-2.666-2.145-4.807-4.778-4.807z" fill="#E88024"/><path d="M247.091 69.578h-4.7v3.763h5.452v1.103H241v-10.53h6.768v1.102h-5.377v3.421h4.7v1.141zm3.647-3.004l.113 1.18a2.536 2.536 0 0 1 2.256-1.293c.827 0 1.467.228 1.918.76.45.494.676 1.254.676 2.28v4.943h-1.39V69.54c0-.684-.151-1.179-.414-1.483-.263-.304-.677-.418-1.203-.418a1.91 1.91 0 0 0-1.053.304c-.301.19-.564.456-.752.799v5.702h-1.391v-7.831l1.24-.038v-.001zm6.367 3.915c0-1.255.263-2.281.79-3.042.526-.76 1.278-1.14 2.218-1.14.451 0 .865.076 1.203.266.339.152.64.418.903.722V63h1.39v11.29h-1.127l-.15-.95a2.68 2.68 0 0 1-.903.836c-.4.19-.837.281-1.278.266-.94 0-1.655-.342-2.181-1.026-.527-.684-.79-1.597-.79-2.737v-.19h-.075zm1.372.153c0 .799.15 1.445.49 1.901.338.456.789.722 1.466.722.413 0 .752-.114 1.052-.304a1.75 1.75 0 0 0 .677-.798v-3.65a1.983 1.983 0 0 0-.714-.76 1.876 1.876 0 0 0-1.015-.304c-.677 0-1.166.266-1.467.836-.3.57-.489 1.293-.489 2.205v.152zm12.951.146h-5.545c.143 1.708.837 2.562 2.082 2.562 1.868 0 2.127-1.601 2.127-1.5l1.226-.006c-.597 1.733-1.715 2.6-3.353 2.6-2.457 0-3.319-1.758-3.423-3.656-.103-1.898.522-4.445 3.443-4.445 2.396.045 3.543 1.527 3.443 4.445zm-1.39-1.01c-.14-1.508-.835-2.262-2.083-2.262-1.249 0-1.943.754-2.083 2.263h4.165l.001-.001z" fill="#2A3052" fill-rule="nonzero"/><path d="M166.295 162.04h1.926l.097 1.417c.789-1.19 1.812-1.718 3.07-1.586.728.076 2.265.317 2.722 2.408.168.767.133 2.062.12 3.822-.005.684-.005 1.867 0 3.55h-2.114v-6.021c0-.708-.195-1.498-.782-1.797-.808-.412-2.327-.24-2.937.797v7.022h-2.102v-9.613.001zm-10.263 0h1.926l.096 1.417c.79-1.19 1.813-1.718 3.07-1.586.729.076 2.265.317 2.723 2.408.168.767.132 2.062.12 3.822-.006.684-.006 1.867 0 3.55h-2.114v-6.021c0-.708-.196-1.498-.783-1.797-.807-.412-2.327-.24-2.937.797v7.022h-2.101v-9.613.001zm-8.71.09h2.091l-2.568 9.522h-1.719l-2.08-6.301-1.963 6.3h-1.742l-2.662-9.522h2.189l1.415 6.659 2.034-6.659h1.557l2.007 6.659 1.441-6.658zm-12.26 5.104h-5.795c.127 2.706 1.783 3.36 4.967 1.962l.676 1.317a4.71 4.71 0 0 1-2.023.99c-1.575.346-3.114.08-4.18-.715-2.314-1.725-1.723-5.348-1.213-6.597.238-.583 1.41-2.228 2.805-2.387 1.263-.144 4.39-.447 4.763 3.802.03.864.03 1.407 0 1.628zm-2.048-1.761c.001-1.513-.59-2.269-1.775-2.269-1.777 0-1.957 2.269-1.957 2.269h3.732zm-12.382.94v-1.592h4.761c.054 2.774.054 4.391 0 4.851-.401 1.215-5.157 3.422-8.227.622-.915-.834-1.345-1.759-1.58-3.159-.01-1.43-.036-2.77-.026-4.039.232-1.555.747-2.438 1.162-2.94 1.51-1.824 3.914-2.216 6.03-1.477 2.115.74 2.39 2.275 2.56 3.777-.49 0-.748-.021-2.07 0 .134-.845-.627-2.48-2.612-2.39-1.984.09-2.92 1.74-2.92 3.113s-.072.912 0 3.641c.09 3.134 3.805 3.975 5.532 2.3l.063-2.668-2.673-.04v.001zm30.376-4.359h2.034v9.598h-2.034v-9.598zm.04-4.19h2.076v1.822h-2.075v-1.821l-.001-.001zm27.564 9.761h-2.374v-7.653h2.374v7.653zm0 4.027h-2.374v-2.056h2.374v2.056z" fill="#FFF" fill-rule="nonzero"/><path d="M44.336 105.996c0-.488-.188-.864-.526-1.202-.34-.3-.979-.6-1.882-.788-1.091-.263-1.956-.638-2.558-1.164a2.454 2.454 0 0 1-.903-1.915c0-.826.338-1.502.978-2.028.64-.563 1.505-.826 2.558-.826 1.13 0 2.032.3 2.71.939.677.638.978 1.352.978 2.178v.037h-1.392c0-.6-.188-1.089-.602-1.464-.414-.376-.979-.563-1.731-.563-.677 0-1.242.15-1.58.488a1.5 1.5 0 0 0-.565 1.239c0 .45.188.826.602 1.126.414.3 1.054.564 1.957.789 1.09.225 1.919.638 2.483 1.164.564.526.865 1.202.865 1.953 0 .826-.338 1.502-1.015 2.027-.678.526-1.58.751-2.672.751a4.68 4.68 0 0 1-2.747-.863c-.79-.564-1.166-1.315-1.166-2.253v-.038h1.317c0 .676.226 1.164.715 1.54.489.375 1.09.525 1.806.525.715 0 1.241-.15 1.655-.45.49-.3.715-.676.715-1.202zm5.005-6.984v1.877h1.467v1.052h-1.467v4.693c0 .376.075.601.225.751.15.15.339.226.602.226.076 0 .15 0 .264-.038.113-.037.188-.037.263-.075l.188.976c-.113.075-.263.15-.451.226a3.3 3.3 0 0 1-.602.075 1.846 1.846 0 0 1-1.355-.526c-.338-.338-.489-.901-.489-1.615v-4.693h-1.28v-1.052h1.205v-1.877h1.43zm7.864 9.613a24.874 24.874 0 0 0-.113-.639c-.038-.188-.038-.338-.038-.525a3.483 3.483 0 0 1-1.016.938 2.46 2.46 0 0 1-1.354.376c-.79 0-1.393-.188-1.806-.639a2.288 2.288 0 0 1-.64-1.69c0-.75.3-1.314.903-1.727.602-.413 1.392-.638 2.408-.638h1.505v-.751a1.5 1.5 0 0 0-.414-1.089 1.631 1.631 0 0 0-1.166-.413c-.452 0-.828.113-1.091.338-.264.225-.414.526-.414.826h-1.317v-.037c-.038-.564.226-1.09.79-1.54a3.353 3.353 0 0 1 2.145-.713c.865 0 1.58.225 2.107.675.527.451.79 1.09.79 1.915v3.718c-.01.52.053 1.038.188 1.54h-1.467v.075zm-2.296-1.052c.49 0 .941-.112 1.355-.375.414-.263.677-.564.79-.902v-1.239h-1.58c-.565 0-1.016.15-1.355.413a1.262 1.262 0 0 0-.489 1.014c0 .338.113.601.301.826.226.188.564.263.978.263zm9.181-5.445l-.715-.037c-.376 0-.677.075-.94.263a1.728 1.728 0 0 0-.602.75v5.52H60.44v-7.735h1.241l.15 1.127a2.85 2.85 0 0 1 .79-.939 1.801 1.801 0 0 1 1.092-.338.83.83 0 0 1 .301.038c.075 0 .188.037.226.037l-.15 1.314zm3.311-3.116v1.877h1.468v1.052H67.4v4.693c0 .376.076.601.226.751.15.15.339.226.602.226.075 0 .15 0 .264-.038.113-.037.188-.037.263-.075l.188.976c-.113.075-.263.15-.451.226a3.3 3.3 0 0 1-.602.075 1.846 1.846 0 0 1-1.355-.526c-.339-.338-.49-.901-.49-1.615v-4.693h-1.203v-1.052h1.204v-1.877H67.4zm63.503-11.185l-37.362 26.79a1 1 0 0 1-.49.182l-34.958 3.291a1 1 0 1 1-.188-1.99l34.69-3.266L129.9 86.085a1 1 0 0 1 .357-.161l36.539-8.486 36.349-23.682a1 1 0 0 1 .424-.154l37.44-4.594a1 1 0 1 1 .243 1.985l-37.21 4.566L167.74 79.21a1 1 0 0 1-.32.136l-36.516 8.48zm36.064-10.429l-.32.136.148-.096.172-.04zm-74.103 35.41l-.489.183.22-.157.27-.026z" fill="#2A3052" fill-rule="nonzero"/><ellipse cx="8.512" cy="9.225" rx="8.137" ry="8.475" opacity=".6" fill="#FFF" transform="translate(231.25 41)"/><path d="M239.762 59.023c-4.675 0-8.46-3.942-8.46-8.798s3.785-8.798 8.46-8.798c4.676 0 8.461 3.942 8.461 8.798s-3.785 8.798-8.46 8.798zm0-.646c4.313 0 7.815-3.647 7.815-8.152 0-4.505-3.502-8.152-7.815-8.152-4.312 0-7.814 3.647-7.814 8.152 0 4.505 3.502 8.152 7.814 8.152z" fill="#E88024" fill-rule="nonzero"/><ellipse cx="8.137" cy="8.475" rx="8.137" ry="8.475" opacity=".6" transform="translate(84 104.25)" fill="#FFF"/><path d="M92.138 122.523c-4.676 0-8.461-3.942-8.461-8.798s3.785-8.798 8.46-8.798c4.676 0 8.461 3.942 8.461 8.798s-3.785 8.798-8.46 8.798zm0-.646c4.312 0 7.814-3.647 7.814-8.152 0-4.505-3.502-8.152-7.814-8.152-4.313 0-7.815 3.647-7.815 8.152 0 4.505 3.502 8.152 7.815 8.152z" fill="#E88024" fill-rule="nonzero"/><path d="M21.482 19.202c0-.415-.147-.733-.44-.956-.292-.222-.82-.456-1.582-.703-.761-.246-1.364-.49-1.809-.729-1.21-.654-1.816-1.535-1.816-2.644 0-.576.162-1.09.487-1.541.325-.452.791-.805 1.399-1.059.608-.254 1.29-.38 2.047-.38.762 0 1.44.137 2.036.413.596.276 1.059.666 1.388 1.168.33.503.495 1.075.495 1.714h-2.198c0-.488-.154-.868-.461-1.139-.308-.27-.74-.406-1.297-.406-.537 0-.954.113-1.252.34a1.074 1.074 0 0 0-.447.898c0 .346.175.637.524.871.349.235.863.454 1.542.66 1.25.375 2.16.842 2.732 1.398.57.557.857 1.25.857 2.08 0 .923-.35 1.647-1.048 2.172-.698.525-1.638.787-2.82.787-.82 0-1.567-.15-2.24-.45-.675-.3-1.189-.712-1.543-1.234-.354-.523-.53-1.128-.53-1.816h2.204c0 1.176.703 1.765 2.11 1.765.522 0 .93-.107 1.222-.319.293-.212.44-.509.44-.89zm6.086-7.075v1.948h1.355v1.553h-1.355v3.955c0 .293.057.503.169.63.112.127.327.19.644.19.235 0 .442-.017.623-.05v1.603c-.415.127-.842.19-1.282.19-1.484 0-2.241-.749-2.27-2.248v-4.27h-1.158v-1.553h1.158v-1.948h2.116zm6.182 10.02c-1.162 0-2.108-.357-2.838-1.07-.73-.713-1.095-1.662-1.095-2.849v-.205c0-.796.154-1.508.461-2.135a3.386 3.386 0 0 1 1.308-1.45c.564-.34 1.207-.51 1.93-.51 1.084 0 1.937.343 2.56 1.026.622.684.933 1.653.933 2.908v.864h-5.046c.068.518.275.933.619 1.245.344.313.78.469 1.307.469.816 0 1.453-.295 1.912-.886l1.04 1.164c-.318.45-.747.8-1.29 1.051a4.23 4.23 0 0 1-1.801.377zm-.242-6.504c-.42 0-.76.141-1.021.424-.262.284-.429.689-.502 1.216h2.944v-.168c-.01-.469-.137-.832-.38-1.088-.245-.256-.591-.384-1.04-.384zm7.237-3.516v1.948H42.1v1.553h-1.355v3.955c0 .293.056.503.168.63.112.127.327.19.645.19.234 0 .442-.017.622-.05v1.603c-.415.127-.842.19-1.282.19-1.484 0-2.24-.749-2.27-2.248v-4.27H37.47v-1.553h1.157v-1.948h2.117zM45.513 22h-2.124v-7.925h2.124V22zm-2.249-9.976c0-.317.106-.578.319-.783.212-.205.501-.308.868-.308.361 0 .65.103.864.308.215.205.322.466.322.783 0 .323-.108.586-.326.791-.217.206-.504.308-.86.308-.357 0-.644-.102-.86-.308a1.04 1.04 0 0 1-.327-.79zm3.684 5.955c0-1.216.29-2.195.868-2.937.579-.742 1.359-1.113 2.34-1.113.87 0 1.546.298 2.03.893l.087-.747h1.919v7.661c0 .694-.158 1.297-.473 1.81a3.034 3.034 0 0 1-1.329 1.171c-.571.269-1.24.403-2.007.403a4.345 4.345 0 0 1-1.699-.348c-.552-.232-.97-.53-1.252-.897l.937-1.29c.527.592 1.167.887 1.92.887.56 0 .998-.15 1.31-.45.313-.3.469-.727.469-1.278v-.425c-.488.552-1.13.827-1.926.827-.953 0-1.723-.372-2.311-1.116-.589-.745-.883-1.733-.883-2.963v-.088zm2.117.154c0 .718.144 1.28.432 1.688.288.408.684.612 1.187.612.644 0 1.106-.242 1.384-.725v-3.333c-.283-.483-.74-.725-1.37-.725-.508 0-.907.207-1.197.622-.29.416-.436 1.036-.436 1.86zm16.157 1.07c0-.416-.146-.734-.44-.957-.292-.222-.82-.456-1.581-.703-.762-.246-1.365-.49-1.81-.729-1.21-.654-1.816-1.535-1.816-2.644 0-.576.163-1.09.487-1.541.325-.452.791-.805 1.4-1.059.607-.254 1.29-.38 2.046-.38.762 0 1.44.137 2.036.413.596.276 1.059.666 1.388 1.168.33.503.495 1.075.495 1.714h-2.198c0-.488-.153-.868-.46-1.139-.309-.27-.74-.406-1.297-.406-.537 0-.955.113-1.253.34a1.074 1.074 0 0 0-.447.898c0 .346.175.637.524.871.35.235.863.454 1.542.66 1.25.375 2.16.842 2.732 1.398.571.557.857 1.25.857 2.08 0 .923-.35 1.647-1.048 2.172-.698.525-1.638.787-2.82.787-.82 0-1.567-.15-2.24-.45-.674-.3-1.188-.712-1.542-1.234-.354-.523-.531-1.128-.531-1.816h2.204c0 1.176.703 1.765 2.11 1.765.522 0 .93-.107 1.223-.319.293-.212.44-.509.44-.89zm6.087-7.076v1.948h1.355v1.553h-1.355v3.955c0 .293.056.503.168.63.112.127.327.19.645.19.234 0 .441-.017.622-.05v1.603c-.415.127-.842.19-1.282.19-1.484 0-2.24-.749-2.27-2.248v-4.27h-1.157v-1.553h1.157v-1.948h2.117zm6.181 10.02c-1.162 0-2.108-.357-2.838-1.07-.73-.713-1.095-1.662-1.095-2.849v-.205c0-.796.154-1.508.462-2.135a3.386 3.386 0 0 1 1.307-1.45c.564-.34 1.207-.51 1.93-.51 1.084 0 1.937.343 2.56 1.026.622.684.934 1.653.934 2.908v.864h-5.047c.068.518.275.933.619 1.245.344.313.78.469 1.307.469.816 0 1.453-.295 1.912-.886l1.04 1.164c-.317.45-.747.8-1.289 1.051a4.23 4.23 0 0 1-1.802.377zm-.241-6.504c-.42 0-.761.141-1.022.424-.261.284-.429.689-.502 1.216h2.944v-.168c-.01-.469-.136-.832-.38-1.088-.245-.256-.591-.384-1.04-.384zM84.185 22H82.06v-7.925h2.124V22zm-2.249-9.976c0-.317.106-.578.319-.783.212-.205.501-.308.868-.308.36 0 .649.103.864.308.215.205.322.466.322.783 0 .323-.109.586-.326.791-.217.206-.504.308-.86.308-.357 0-.644-.102-.861-.308a1.04 1.04 0 0 1-.326-.79zm3.684 5.955c0-1.216.29-2.195.868-2.937.579-.742 1.359-1.113 2.34-1.113.87 0 1.546.298 2.029.893l.088-.747h1.919v7.661c0 .694-.158 1.297-.473 1.81a3.034 3.034 0 0 1-1.329 1.171c-.571.269-1.24.403-2.007.403a4.345 4.345 0 0 1-1.699-.348c-.552-.232-.97-.53-1.252-.897l.937-1.29c.527.592 1.167.887 1.919.887.561 0 .998-.15 1.311-.45.312-.3.469-.727.469-1.278v-.425c-.489.552-1.13.827-1.927.827-.952 0-1.722-.372-2.31-1.116-.589-.745-.883-1.733-.883-2.963v-.088zm2.117.154c0 .718.144 1.28.432 1.688.288.408.684.612 1.186.612.645 0 1.106-.242 1.385-.725v-3.333c-.283-.483-.74-.725-1.37-.725-.508 0-.907.207-1.197.622-.29.416-.436 1.036-.436 1.86zm10.4 4.013c-1.162 0-2.108-.356-2.838-1.069s-1.095-1.662-1.095-2.849v-.205c0-.796.154-1.508.462-2.135a3.386 3.386 0 0 1 1.307-1.45c.564-.34 1.207-.51 1.93-.51 1.084 0 1.937.343 2.56 1.026.622.684.933 1.653.933 2.908v.864H96.35c.068.518.275.933.619 1.245.344.313.78.469 1.307.469.816 0 1.453-.295 1.912-.886l1.04 1.164c-.317.45-.747.8-1.289 1.051a4.23 4.23 0 0 1-1.802.377zm-.241-6.503c-.42 0-.761.141-1.022.424-.261.284-.429.689-.502 1.216h2.944v-.168c-.01-.469-.136-.832-.38-1.088-.245-.256-.591-.384-1.04-.384zm6.65-1.568l.066.916c.566-.708 1.325-1.062 2.278-1.062.84 0 1.464.246 1.875.74.41.493.62 1.23.63 2.211V22h-2.117v-5.068c0-.45-.098-.776-.293-.978-.195-.203-.52-.304-.974-.304-.596 0-1.043.254-1.34.762V22h-2.117v-7.925h1.992zm6.123 3.904c0-1.235.277-2.22.831-2.952.554-.732 1.312-1.098 2.274-1.098.772 0 1.41.288 1.912.864V10.75h2.124V22h-1.912l-.102-.842c-.527.659-1.206.988-2.036.988-.933 0-1.681-.367-2.245-1.102-.564-.735-.846-1.756-.846-3.065zm2.117.154c0 .742.129 1.31.388 1.706.259.396.635.594 1.128.594.654 0 1.115-.276 1.384-.828v-3.127c-.264-.552-.72-.828-1.37-.828-1.02 0-1.53.828-1.53 2.483z" fill="#000" fill-rule="nonzero"/></g></svg>