<?xml version="1.0" encoding="UTF-8"?>
<svg width="299px" height="197px" viewBox="0 0 299 197" version="1.1" xmlns="http://www.w3.org/2000/svg" xmlns:xlink="http://www.w3.org/1999/xlink">
    <!-- Generator: Sketch 52.5 (67469) - http://www.bohemiancoding.com/sketch -->
    <title>stays between</title>
    <desc>Created with Sketch.</desc>
    <g id="Page-1" stroke="none" stroke-width="1" fill="none" fill-rule="evenodd">
        <g id="stays-between">
            <g id="Group">
                <polygon id="Path" fill="#F1F2F2" points="0 0 299 0 299 197 0 197"></polygon>
                <path d="M1.98671096,1.9798995 L1.98671096,195.020101 L297.013289,195.020101 L297.013289,1.9798995 L1.98671096,1.9798995 Z M299,0 L299,197 L0,197 L0,0 L299,0 Z" id="Path" fill="#C2C2C2" fill-rule="nonzero"></path>
                <path d="M4.887,53.4456836 L4.887,52.2388448 L294.54325,52.2388448 L294.54325,53.4456836 L4.887,53.4456836 Z M4.887,93.9796458 L4.887,92.772807 L294.54325,92.772807 L294.54325,93.9796458 L4.887,93.9796458 Z M4.887,134.513608 L4.887,133.30677 L294.54325,133.30677 L294.54325,134.513608 L4.887,134.513608 Z M4.887,175.010211 L4.887,173.803373 L294.54325,173.803373 L294.54325,175.010211 L4.887,175.010211 Z M39.2665806,32.5939623 L40.4734194,32.5939623 L40.4734194,192.264151 L39.2665806,192.264151 L39.2665806,32.5939623 Z M75.9314556,32.5939623 L77.1382944,32.5939623 L77.1382944,192.264151 L75.9314556,192.264151 L75.9314556,32.5939623 Z M112.558956,32.5939623 L113.765794,32.5939623 L113.765794,192.264151 L112.558956,192.264151 L112.558956,32.5939623 Z M149.223831,32.5939623 L150.430669,32.5939623 L150.430669,192.264151 L149.223831,192.264151 L149.223831,32.5939623 Z M185.851331,32.5939623 L187.058169,32.5939623 L187.058169,192.264151 L185.851331,192.264151 L185.851331,32.5939623 Z M222.478831,32.5939623 L223.685669,32.5939623 L223.685669,192.264151 L222.478831,192.264151 L222.478831,32.5939623 Z M4.887,114.227948 L4.887,113.021109 L294.54325,113.021109 L294.54325,114.227948 L4.887,114.227948 Z" id="Shape" fill="#DFDEDE" fill-rule="nonzero"></path>
                <path d="M259.143706,32.5939623 L260.350544,32.5939623 L260.350544,192.264151 L259.143706,192.264151 L259.143706,32.5939623 Z M4.887,73.7313439 L4.887,72.5245051 L294.54325,72.5245051 L294.54325,73.7313439 L4.887,73.7313439 Z M4.887,154.76191 L4.887,153.555072 L294.54325,153.555072 L294.54325,154.76191 L4.887,154.76191 Z" id="Shape" fill="#2A3052" fill-rule="nonzero"></path>
                <polygon id="Path" fill="#C2C2C2" fill-rule="nonzero" points="2.794 32.6055162 2.794 30.1914649 296.63625 30.1914649 296.63625 32.6055162"></polygon>
                <path d="M40.6640937,115.251527 C39.7655269,115.690093 38.6815667,115.317189 38.2430008,114.418622 C37.804435,113.520055 38.1773395,112.436095 39.0759063,111.997529 L80.5621563,91.7492272 C81.1166106,91.4786133 81.7707076,91.5089858 82.2976987,91.8298159 L120.670814,115.191219 L148.443626,87.7912015 C149.111703,87.1320922 150.172684,87.092765 150.887723,87.7006067 L186.536059,118.00462 L222.00967,91.9177058 C222.454127,91.5908567 223.023364,91.4845034 223.555852,91.6288248 L260.220727,101.566183 C261.18579,101.827746 261.75609,102.822124 261.494527,103.787187 C261.232963,104.75225 260.238586,105.32255 259.273523,105.060986 L223.451401,95.3520412 L187.52733,121.770219 C186.85109,122.267519 185.921706,122.234764 185.282152,121.691091 L149.806069,91.5335072 L122.207874,118.761251 C121.616637,119.344552 120.704343,119.450753 119.994926,119.018863 L81.2605355,95.4375166 L40.6640937,115.251527 Z" id="Path" fill="#2A3052" fill-rule="nonzero"></path>
                <path d="M187.987125,144.445283 L153.0415,144.445283 L147.6595,136.263774 L142.2775,144.445283 L107.331875,144.445283 C106.07173,144.451176 104.865994,144.959272 103.98197,145.856931 C103.097947,146.754589 102.608676,147.967645 102.622625,149.22717 L102.622625,173.921132 C102.606032,176.539822 104.712091,178.678366 107.331875,178.703019 L188.0245,178.703019 C189.284645,178.697126 190.490381,178.18903 191.374405,177.291371 C192.258428,176.393713 192.747699,175.180657 192.73375,173.921132 L192.73375,149.22717 C192.73971,147.963586 192.242729,146.749496 191.352348,145.8525 C190.461966,144.955504 189.251275,144.449236 187.987125,144.445283 Z" id="Path" fill="#E88024"></path>
                <g opacity="0.6" transform="translate(251.412500, 96.132075)" fill="#FFFFFF" id="Oval">
                    <ellipse cx="8.334625" cy="8.56377358" rx="8.110375" ry="8.44301887"></ellipse>
                </g>
                <path d="M259.747125,114.345894 C254.590171,114.345894 250.429724,110.014808 250.429724,104.695849 C250.429724,99.37689 254.590171,95.0458046 259.747125,95.0458046 C264.904079,95.0458046 269.064526,99.37689 269.064526,104.695849 C269.064526,110.014808 264.904079,114.345894 259.747125,114.345894 Z M259.747125,111.931842 C263.548644,111.931842 266.650474,108.702791 266.650474,104.695849 C266.650474,100.688907 263.548644,97.4598559 259.747125,97.4598559 C255.945606,97.4598559 252.843776,100.688907 252.843776,104.695849 C252.843776,108.702791 255.945606,111.931842 259.747125,111.931842 Z" id="Oval" fill="#E88024" fill-rule="nonzero"></path>
                <g opacity="0.6" transform="translate(30.900000, 104.603774)" fill="#FFFFFF" id="Oval">
                    <ellipse cx="8.97" cy="9.0207547" rx="8.110375" ry="8.44301887"></ellipse>
                </g>
                <path d="M39.87,123.274573 C34.7130457,123.274573 30.5525994,118.943487 30.5525994,113.624528 C30.5525994,108.305569 34.7130457,103.974484 39.87,103.974484 C45.0269543,103.974484 49.1874006,108.305569 49.1874006,113.624528 C49.1874006,118.943487 45.0269543,123.274573 39.87,123.274573 Z M39.87,120.860522 C43.6715185,120.860522 46.7733494,117.63147 46.7733494,113.624528 C46.7733494,109.617586 43.6715185,106.388535 39.87,106.388535 C36.0684815,106.388535 32.9666506,109.617586 32.9666506,113.624528 C32.9666506,117.63147 36.0684815,120.860522 39.87,120.860522 Z" id="Oval" fill="#E88024" fill-rule="nonzero"></path>
            </g>
            <path d="M31.156,134.441 C31.1579602,133.984675 30.9668982,133.548792 30.63,133.241 C30.0786107,132.829362 29.4349077,132.558835 28.755,132.453 C27.8248029,132.273027 26.9507509,131.874391 26.205,131.29 C25.6317782,130.821186 25.3010206,130.118509 25.305,129.378 C25.295,128.588 25.656,127.838 26.281,127.353 C26.9993416,126.771403 27.9081196,126.477386 28.831,126.528 C29.8193705,126.473165 30.78951,126.810199 31.531,127.466 C32.156,128.014 32.512,128.808 32.505,129.641 L32.505,129.678 L31.118,129.678 C31.1440259,129.125629 30.9243715,128.590038 30.518,128.215 C30.0361517,127.813738 29.4187441,127.612589 28.793,127.653 C28.2246465,127.605866 27.6601364,127.780774 27.218,128.141 C26.8435831,128.439784 26.6343854,128.899424 26.655,129.378 C26.651,129.831 26.877,130.255 27.255,130.503 C27.852,130.883 28.513,131.15 29.205,131.29 C30.1192968,131.471906 30.9717362,131.885043 31.681,132.49 C32.231,132.989 32.545,133.698 32.543,134.44 C32.556,135.24 32.178,135.996 31.531,136.465 C30.7524929,137.006425 29.8146399,137.270559 28.868,137.215 C27.8873373,137.223126 26.9291381,136.921457 26.13,136.353 C25.3814267,135.852807 24.9425215,135.002948 24.968,134.103 L24.968,134.066 L26.281,134.066 C26.245,134.666 26.512,135.243 26.993,135.603 C27.5164739,135.976296 28.150923,136.161344 28.793,136.128 C29.3772624,136.161051 29.9564151,136.0031 30.443,135.678 C30.905,135.444 31.185,134.958 31.156,134.441 Z M36.143,127.503 L36.143,129.378 L37.605,129.378 L37.605,130.428 L36.143,130.428 L36.143,135.116 C36.113,135.386 36.193,135.656 36.368,135.866 C36.528,136.022 36.745,136.103 36.968,136.09 C37.058,136.094 37.146,136.081 37.231,136.053 C37.319,136.033 37.407,136.008 37.493,135.978 L37.681,136.953 C37.538,137.043 37.388,137.118 37.231,137.178 C37.033735,137.221415 36.8328822,137.246522 36.631,137.253 C36.1281073,137.270171 35.6401644,137.080416 35.281,136.728 C34.9153946,136.274308 34.7404118,135.696291 34.793,135.116 L34.793,130.428 L33.555,130.428 L33.555,129.378 L34.755,129.378 L34.755,127.503 L36.143,127.503 Z M43.98,137.066 C43.943,136.84 43.905,136.616 43.868,136.428 C43.8367073,136.254848 43.8239686,136.078853 43.83,135.903 C43.5587998,136.280207 43.2146756,136.599168 42.818,136.841 C42.4140149,137.094455 41.9448167,137.22444 41.468,137.215 C40.8225192,137.284783 40.1790899,137.066552 39.7092472,136.618486 C39.2394046,136.17042 38.990906,135.538064 39.03,134.89 C39.0034824,134.196222 39.3457876,133.540137 39.93,133.165 C40.6458747,132.711865 41.4836397,132.489509 42.33,132.528 L43.83,132.528 L43.83,131.778 C43.8443559,131.375018 43.6958573,130.983226 43.418,130.691 C43.0997856,130.405655 42.68191,130.25726 42.255,130.278 C41.8639215,130.257181 41.4783148,130.377085 41.168,130.616 C40.9167303,130.81771 40.7659184,131.118969 40.755,131.441 L39.443,131.441 L39.443,131.403 C39.4266475,130.789873 39.7236243,130.210618 40.231,129.866 C40.8391873,129.387876 41.5945657,129.135847 42.368,129.153 C43.1266082,129.116543 43.8727086,129.356361 44.468,129.828 C45.008,130.312 45.298,131.016 45.256,131.74 L45.256,135.453 C45.246,135.972 45.309,136.489 45.443,136.99 L43.981,136.99 L43.981,137.066 L43.98,137.066 Z M41.693,136.053 C42.17,136.063 42.639,135.932 43.043,135.678 C43.402,135.478 43.68,135.16 43.831,134.778 L43.831,133.541 L42.256,133.541 C41.7724072,133.522105 41.2966361,133.667303 40.906,133.953 C40.595,134.18 40.413,134.543 40.418,134.928 C40.414,135.23 40.521,135.524 40.718,135.753 C40.998,135.963 41.343,136.069 41.693,136.053 Z M50.843,130.578 L50.131,130.54 C49.7980873,130.52364 49.4688784,130.615945 49.193,130.803 C48.9260304,130.991156 48.7179642,131.251239 48.593,131.553 L48.593,137.066 L47.206,137.066 L47.206,129.34 L48.443,129.34 L48.593,130.465 C48.784,130.099 49.053,129.779 49.381,129.528 C49.6968599,129.300077 50.0786028,129.181727 50.468,129.191 C50.5694253,129.184752 50.6711321,129.197296 50.768,129.228 C50.843,129.228 50.956,129.266 50.993,129.266 L50.843,130.578 Z M54.143,127.503 L54.143,129.378 L55.605,129.378 L55.605,130.428 L54.143,130.428 L54.143,135.116 C54.113,135.386 54.193,135.656 54.368,135.866 C54.528,136.022 54.745,136.103 54.968,136.09 C55.058,136.094 55.146,136.081 55.231,136.053 C55.319,136.033 55.407,136.008 55.493,135.978 L55.681,136.953 C55.538,137.043 55.388,137.118 55.231,137.178 C55.033735,137.221415 54.8328822,137.246522 54.631,137.253 C54.1281073,137.270171 53.6401644,137.080416 53.281,136.728 C52.9153946,136.274308 52.7404118,135.696291 52.793,135.116 L52.793,130.428 L51.593,130.428 L51.593,129.378 L52.793,129.378 L52.793,127.503 L54.143,127.503 Z" id="Shape" fill="#2A3052" fill-rule="nonzero"></path>
            <path d="M15.001,20.724 L15.001,11.649 L17.974,11.649 C19.042,11.649 19.875,11.857 20.474,12.275 C21.072,12.693 21.371,13.313 21.371,14.135 C21.371,14.551 21.263,14.923 21.047,15.251 C20.831,15.58 20.515,15.827 20.1,15.993 C20.665,16.097 21.09,16.343 21.377,16.729 C21.664,17.115 21.807,17.566 21.807,18.081 C21.807,18.95 21.521,19.607 20.947,20.054 C20.374,20.501 19.562,20.724 18.51,20.724 L15,20.724 L15.001,20.724 Z M16.821,16.71 L16.821,19.328 L18.511,19.328 C18.992,19.328 19.36,19.223 19.613,19.013 C19.867,18.803 19.993,18.493 19.993,18.081 C19.993,17.641 19.869,17.302 19.62,17.065 C19.37,16.828 18.994,16.71 18.491,16.71 L16.821,16.71 Z M16.821,15.45 L18.036,15.45 C18.523,15.45 18.896,15.351 19.158,15.152 C19.42,14.952 19.551,14.662 19.551,14.279 C19.551,13.859 19.419,13.549 19.155,13.35 C18.891,13.15 18.498,13.051 17.975,13.051 L16.821,13.051 L16.821,15.451 L16.821,15.45 Z M24.911,20.724 L23.091,20.724 L23.091,11 L24.911,11 L24.911,20.724 Z M29.331,20.855 C28.325,20.855 27.541,20.547 26.975,19.929 C26.41,19.312 26.127,18.518 26.127,17.545 L26.127,17.295 C26.127,16.286 26.401,15.459 26.95,14.815 C27.499,14.171 28.253,13.851 29.213,13.855 C30.119,13.855 30.813,14.133 31.298,14.687 C31.782,15.242 32.024,15.989 32.024,16.928 L32.024,17.869 L28.004,17.869 L27.984,17.907 C28.014,18.368 28.154,18.742 28.405,19.029 C28.657,19.315 29.03,19.459 29.525,19.459 C29.932,19.459 30.277,19.417 30.562,19.334 C30.847,19.251 31.141,19.124 31.444,18.954 L31.937,20.076 C31.667,20.296 31.301,20.481 30.84,20.631 C30.378,20.781 29.875,20.855 29.331,20.855 Z M29.213,15.258 C28.847,15.258 28.565,15.383 28.368,15.635 C28.171,15.886 28.051,16.22 28.01,16.635 L28.022,16.666 L30.242,16.666 L30.242,16.529 C30.242,16.134 30.16,15.824 29.998,15.597 C29.836,15.371 29.574,15.257 29.213,15.257 L29.213,15.258 Z M34.997,20.724 L33.177,20.724 L33.177,13.98 L34.997,13.98 L34.997,20.724 Z M34.997,12.365 L33.177,12.365 L33.177,11 L34.997,11 L34.997,12.365 Z M42.577,17.539 C42.577,18.545 42.352,19.349 41.904,19.951 C41.454,20.554 40.806,20.855 39.959,20.855 C39.564,20.855 39.22,20.772 38.927,20.605 C38.6221753,20.4273831 38.3661919,20.1768974 38.182,19.876 L38.032,20.724 L36.493,20.724 L36.493,11 L38.307,11 L38.307,14.697 C38.502,14.427 38.736,14.219 39.008,14.073 C39.297672,13.9234582 39.6200694,13.84853 39.946,13.855 C40.802,13.855 41.455,14.178 41.904,14.825 C42.352,15.471 42.577,16.332 42.577,17.408 L42.577,17.539 Z M40.763,17.409 C40.763,16.752 40.666,16.231 40.473,15.847 C40.28,15.462 39.95,15.27 39.485,15.27 C39.202,15.27 38.963,15.33 38.768,15.448 C38.573,15.566 38.419,15.736 38.307,15.956 L38.307,18.811 C38.419,19.014 38.574,19.17 38.771,19.278 C38.969,19.386 39.211,19.44 39.497,19.44 C39.967,19.44 40.295,19.275 40.482,18.945 C40.669,18.615 40.762,18.145 40.762,17.539 L40.762,17.409 L40.763,17.409 Z M45.88,12.328 L45.88,13.98 L47.021,13.98 L47.021,15.258 L45.881,15.258 L45.881,18.692 C45.881,18.954 45.935,19.141 46.045,19.253 C46.1598721,19.3671284 46.3172244,19.4280389 46.479,19.421 C46.6454097,19.4220046 46.8111012,19.3991042 46.971,19.353 L47.121,20.668 C46.7691832,20.7943886 46.3978207,20.8576929 46.024,20.855 C45.396,20.855 44.914,20.683 44.574,20.338 C44.236,19.993 44.066,19.446 44.066,18.698 L44.066,15.258 L43.082,15.258 L43.082,13.98 L44.066,13.98 L44.066,12.328 L45.88,12.328 Z M53.404,20.724 L51.584,20.724 L51.584,11.649 L53.404,11.649 L53.404,20.724 Z M56.732,13.98 L56.813,14.946 C57.038,14.601 57.314,14.333 57.643,14.142 C57.9781913,13.948942 58.3592216,13.8497981 58.746,13.855 C59.427,13.855 59.959,14.075 60.341,14.513 C60.724,14.951 60.915,15.644 60.915,16.592 L60.915,20.724 L59.088,20.724 L59.088,16.598 C59.088,16.116 59.003,15.774 58.835,15.572 C58.667,15.371 58.415,15.27 58.078,15.27 C57.808,15.27 57.57,15.321 57.364,15.423 C57.1635055,15.5203447 56.9892955,15.6643765 56.856,15.843 L56.856,20.724 L55.036,20.724 L55.036,13.98 L56.731,13.98 L56.732,13.98 Z M63.938,13.98 L64.019,14.946 C64.243,14.601 64.519,14.333 64.848,14.142 C65.1831913,13.948942 65.5642216,13.8497981 65.951,13.855 C66.633,13.855 67.165,14.075 67.547,14.513 C67.929,14.951 68.12,15.644 68.12,16.592 L68.12,20.724 L66.294,20.724 L66.294,16.598 C66.294,16.116 66.21,15.774 66.042,15.572 C65.873,15.371 65.621,15.27 65.284,15.27 C65.014,15.27 64.776,15.321 64.571,15.423 C64.3705055,15.5203447 64.1962955,15.6643765 64.063,15.843 L64.063,20.724 L62.243,20.724 L62.243,13.98 L63.938,13.98 Z M72.403,20.855 C71.397,20.855 70.612,20.547 70.047,19.929 C69.481,19.312 69.199,18.518 69.199,17.545 L69.199,17.295 C69.199,16.286 69.473,15.459 70.022,14.815 C70.57,14.171 71.324,13.851 72.284,13.855 C73.19,13.855 73.885,14.133 74.369,14.687 C74.853,15.242 75.095,15.989 75.095,16.928 L75.095,17.869 L71.075,17.869 L71.056,17.907 C71.086,18.368 71.226,18.742 71.477,19.029 C71.728,19.315 72.101,19.459 72.596,19.459 C73.003,19.459 73.349,19.417 73.634,19.334 C73.918,19.251 74.212,19.124 74.516,18.954 L75.008,20.076 C74.738,20.296 74.372,20.481 73.911,20.631 C73.45,20.781 72.947,20.855 72.403,20.855 Z M72.284,15.258 C71.919,15.258 71.637,15.383 71.44,15.635 C71.242,15.886 71.123,16.22 71.081,16.635 L71.094,16.666 L73.313,16.666 L73.313,16.529 C73.313,16.134 73.232,15.824 73.07,15.597 C72.908,15.371 72.646,15.257 72.284,15.257 L72.284,15.258 Z M79.702,15.544 L79.035,15.526 C78.765,15.526 78.542,15.582 78.368,15.694 C78.193,15.806 78.06,15.964 77.969,16.168 L77.969,20.724 L76.155,20.724 L76.155,13.98 L77.845,13.98 L77.925,14.977 C78.083,14.624 78.288,14.349 78.539,14.151 C78.791,13.954 79.081,13.855 79.409,13.855 C79.5,13.855 79.584,13.862 79.661,13.877 C79.738,13.892 79.816,13.909 79.895,13.93 L79.702,15.544 Z M82.426,14.834 C82.638,14.526 82.897,14.286 83.205,14.114 C83.5173296,13.9402167 83.8696012,13.8509424 84.227,13.855 C84.929,13.855 85.481,14.089 85.882,14.556 C86.283,15.024 86.484,15.746 86.484,16.722 L86.484,20.724 L84.664,20.724 L84.664,16.71 C84.664,16.186 84.579,15.815 84.411,15.597 C84.243,15.379 83.991,15.27 83.654,15.27 C83.375,15.27 83.134,15.315 82.928,15.404 C82.722,15.494 82.555,15.621 82.426,15.787 L82.426,20.724 L80.606,20.724 L80.606,11 L82.426,11 L82.426,14.834 Z M91.832,20.724 C91.7638107,20.5660491 91.7063471,20.403681 91.66,20.238 C91.6119086,20.0663213 91.5774679,19.8911085 91.557,19.714 C91.37,20.043 91.123,20.314 90.816,20.531 C90.508,20.747 90.142,20.855 89.719,20.855 C89.012,20.855 88.468,20.673 88.086,20.31 C87.703,19.946 87.512,19.45 87.512,18.823 C87.512,18.163 87.767,17.65 88.276,17.287 C88.785,16.923 89.527,16.741 90.504,16.741 L91.526,16.741 L91.526,16.205 C91.526,15.881 91.441,15.63 91.271,15.451 C91.101,15.272 90.847,15.183 90.511,15.183 C90.215,15.183 89.988,15.255 89.828,15.398 C89.668,15.541 89.588,15.738 89.588,15.987 L87.836,15.987 L87.824,15.95 C87.794,15.38 88.043,14.889 88.569,14.475 C89.094,14.062 89.781,13.855 90.629,13.855 C91.439,13.855 92.095,14.059 92.595,14.466 C93.096,14.873 93.346,15.457 93.346,16.218 L93.346,19.004 C93.346,19.32 93.37,19.617 93.418,19.895 C93.466,20.174 93.542,20.45 93.646,20.725 L91.832,20.725 L91.832,20.724 Z M90.167,19.509 C90.483,19.509 90.766,19.429 91.015,19.272 C91.265,19.114 91.435,18.932 91.526,18.723 L91.526,17.77 L90.504,17.77 C90.118,17.77 89.826,17.865 89.628,18.056 C89.434107,18.2385891 89.3265673,18.4947224 89.332,18.761 C89.332,18.989 89.406,19.171 89.553,19.306 C89.701,19.441 89.906,19.509 90.167,19.509 Z M96.625,20.724 L94.805,20.724 L94.805,11 L96.625,11 L96.625,20.724 Z M104.205,17.539 C104.205,18.545 103.98,19.349 103.531,19.951 C103.083,20.554 102.434,20.855 101.587,20.855 C101.192,20.855 100.848,20.772 100.555,20.605 C100.250175,20.4273831 99.9941919,20.1768974 99.81,19.876 L99.66,20.724 L98.121,20.724 L98.121,11 L99.935,11 L99.935,14.697 C100.13,14.427 100.364,14.219 100.636,14.073 C100.925672,13.9234582 101.248069,13.84853 101.574,13.855 C102.43,13.855 103.083,14.178 103.531,14.825 C103.981,15.471 104.205,16.332 104.205,17.408 L104.205,17.539 Z M102.391,17.409 C102.391,16.752 102.294,16.231 102.101,15.847 C101.908,15.462 101.578,15.27 101.113,15.27 C100.83,15.27 100.591,15.33 100.396,15.448 C100.201,15.566 100.047,15.736 99.935,15.956 L99.935,18.811 C100.047,19.014 100.202,19.17 100.399,19.278 C100.597,19.386 100.839,19.44 101.125,19.44 C101.595,19.44 101.923,19.275 102.11,18.945 C102.297,18.615 102.39,18.145 102.39,17.539 L102.39,17.409 L102.391,17.409 Z" id="Shape" fill="#020202" fill-rule="nonzero"></path>
            <path d="M22.749,66.758 L21.605,66.758 L22.162,63.024 L18.058,63.024 L17.5,66.758 L16.356,66.758 L17.622,58.303 L18.766,58.303 L18.191,62.124 L22.297,62.124 L22.872,58.303 L24.016,58.303 L22.75,66.758 L22.749,66.758 Z M24.781,63.558 C24.925,62.594 25.29,61.82 25.876,61.236 C26.463,60.651 27.191,60.359 28.062,60.359 C28.899,60.359 29.532,60.662 29.964,61.267 C30.396,61.873 30.544,62.637 30.408,63.558 L30.385,63.686 C30.238,64.658 29.872,65.433 29.288,66.012 C28.703,66.591 27.973,66.88 27.098,66.88 C26.262,66.88 25.628,66.578 25.197,65.974 C24.765,65.37 24.619,64.607 24.758,63.686 L24.781,63.558 Z M25.902,63.686 C25.798,64.376 25.854,64.931 26.071,65.353 C26.287,65.775 26.675,65.986 27.232,65.986 C27.755,65.986 28.195,65.766 28.553,65.326 C28.911,64.887 29.141,64.34 29.241,63.686 L29.264,63.558 C29.365,62.877 29.306,62.323 29.087,61.898 C28.869,61.472 28.482,61.258 27.929,61.258 C27.402,61.258 26.96,61.48 26.602,61.924 C26.244,62.367 26.018,62.912 25.925,63.558 L25.902,63.686 Z M33.289,61.282 C33.552,60.988 33.852,60.76 34.189,60.6 C34.5281937,60.4387973 34.8994578,60.3564081 35.275,60.359 C35.921,60.359 36.406,60.562 36.729,60.969 C37.053,61.375 37.154,61.992 37.034,62.821 L36.442,66.758 L35.298,66.758 L35.89,62.809 C35.972,62.275 35.92,61.888 35.733,61.648 C35.548,61.408 35.233,61.288 34.787,61.288 C34.457,61.288 34.155,61.358 33.878,61.497 C33.601,61.637 33.366,61.83 33.173,62.077 L32.47,66.758 L31.326,66.758 L32.685,57.699 L33.829,57.699 L33.289,61.282 Z M40.669,66.88 C39.802,66.88 39.151,66.588 38.715,66.003 C38.28,65.419 38.132,64.663 38.271,63.738 L38.311,63.483 C38.447,62.546 38.816,61.791 39.418,61.218 C40.02,60.645 40.702,60.358 41.465,60.358 C42.275,60.358 42.857,60.624 43.213,61.154 C43.569,61.684 43.683,62.376 43.556,63.227 L43.468,63.831 L39.404,63.831 C39.314,64.497 39.38,65.023 39.601,65.408 C39.821,65.793 40.222,65.986 40.803,65.986 C41.175,65.986 41.52,65.93 41.84,65.817 C42.159,65.705 42.435,65.554 42.667,65.364 L43.004,66.108 C42.748,66.324 42.425,66.508 42.034,66.656 C41.644,66.806 41.188,66.88 40.669,66.88 Z M41.331,61.259 C40.948,61.259 40.601,61.414 40.289,61.723 C39.977,62.033 39.754,62.424 39.619,62.896 L39.63,62.931 L42.458,62.931 L42.47,62.838 C42.54,62.37 42.485,61.989 42.307,61.698 C42.129,61.405 41.804,61.258 41.331,61.258 L41.331,61.259 Z M48.231,65.069 C48.265,64.809 48.199,64.602 48.033,64.447 C47.866,64.292 47.522,64.155 46.999,64.035 C46.279,63.875 45.74,63.653 45.382,63.367 C45.024,63.08 44.88,62.697 44.949,62.217 C45.023,61.683 45.301,61.239 45.783,60.887 C46.265,60.535 46.856,60.359 47.557,60.359 C48.237,60.359 48.78,60.554 49.183,60.945 C49.585,61.336 49.742,61.785 49.653,62.292 L49.641,62.327 L48.544,62.327 C48.5842852,62.0536044 48.491361,61.7774339 48.294,61.584 C48.089,61.367 47.802,61.259 47.434,61.259 C47.047,61.259 46.737,61.351 46.503,61.535 C46.268,61.718 46.133,61.935 46.099,62.182 C46.064,62.438 46.122,62.632 46.273,62.762 C46.424,62.894 46.765,63.016 47.295,63.129 C48.042,63.291 48.595,63.522 48.95,63.819 C49.306,64.118 49.452,64.507 49.386,64.987 C49.304,65.564 49.016,66.023 48.521,66.366 C48.025,66.709 47.409,66.88 46.674,66.88 C45.907,66.88 45.314,66.675 44.894,66.264 C44.474,65.854 44.312,65.382 44.409,64.848 L44.421,64.813 L45.518,64.813 C45.483,65.219 45.594,65.516 45.849,65.704 C46.105,65.892 46.422,65.986 46.802,65.986 C47.192,65.986 47.518,65.899 47.777,65.724 C48.037,65.55 48.187,65.331 48.23,65.068 L48.231,65.069 Z M54.681,65.864 L58.979,65.864 L58.845,66.758 L53.358,66.758 L53.369,65.91 L58.108,59.203 L54.24,59.203 L54.374,58.303 L59.566,58.303 L59.444,59.122 L54.682,65.864 L54.681,65.864 Z M61.371,66.758 L60.228,66.758 L61.168,60.475 L62.312,60.475 L61.372,66.758 L61.371,66.758 Z M62.556,58.866 L61.412,58.866 L61.586,57.699 L62.73,57.699 L62.556,58.866 Z M65.716,66.88 C64.848,66.88 64.196,66.588 63.761,66.003 C63.326,65.419 63.177,64.663 63.317,63.738 L63.357,63.483 C63.493,62.546 63.862,61.791 64.464,61.218 C65.066,60.645 65.748,60.358 66.511,60.358 C67.32,60.358 67.902,60.624 68.259,61.154 C68.615,61.684 68.729,62.376 68.601,63.227 L68.514,63.831 L64.449,63.831 C64.36,64.497 64.426,65.023 64.647,65.408 C64.867,65.793 65.268,65.986 65.849,65.986 C66.22,65.986 66.566,65.93 66.885,65.817 C67.205,65.705 67.48,65.554 67.713,65.364 L68.05,66.108 C67.794,66.324 67.47,66.508 67.08,66.656 C66.689,66.806 66.234,66.88 65.715,66.88 L65.716,66.88 Z M66.377,61.259 C65.994,61.259 65.647,61.414 65.335,61.723 C65.023,62.033 64.8,62.424 64.665,62.896 L64.675,62.931 L67.504,62.931 L67.515,62.838 C67.585,62.37 67.531,61.989 67.353,61.698 C67.175,61.405 66.849,61.258 66.377,61.258 L66.377,61.259 Z M70.593,66.758 L69.449,66.758 L70.808,57.699 L71.952,57.699 L70.593,66.758 Z M19.404,168.195 L18.259,168.195 L15.147,161.722 L15.112,161.728 L14.147,168.195 L13.001,168.195 L14.269,159.727 L15.415,159.727 L18.526,166.195 L18.561,166.189 L19.527,159.727 L20.672,159.727 L19.404,168.195 Z M22.47,168.195 L21.324,168.195 L22.266,161.902 L23.412,161.902 L22.47,168.195 Z M23.656,160.291 L22.51,160.291 L22.685,159.122 L23.831,159.122 L23.656,160.292 L23.656,160.291 Z M26.82,168.317 C25.951,168.317 25.3,168.025 24.863,167.439 C24.427,166.854 24.278,166.098 24.418,165.171 L24.458,164.915 C24.594,163.977 24.964,163.221 25.567,162.647 C26.17,162.073 26.853,161.786 27.617,161.786 C28.427,161.786 29.011,162.051 29.367,162.583 C29.724,163.113 29.839,163.806 29.711,164.659 L29.623,165.264 L25.553,165.264 C25.463,165.931 25.529,166.457 25.75,166.843 C25.97,167.229 26.372,167.422 26.954,167.422 C27.307085,167.425 27.6581026,167.36785 27.992,167.253 C28.312,167.141 28.588,166.989 28.821,166.799 L29.158,167.544 C28.902,167.761 28.578,167.944 28.187,168.094 C27.795,168.243 27.34,168.317 26.82,168.317 Z M27.483,162.687 C27.099,162.687 26.751,162.842 26.439,163.153 C26.1170607,163.47989 25.885507,163.884764 25.767,164.328 L25.779,164.362 L28.611,164.362 L28.623,164.269 C28.693,163.8 28.639,163.419 28.46,163.127 C28.282,162.834 27.956,162.687 27.483,162.687 Z M30.659,165.165 C30.814,164.115 31.151,163.288 31.671,162.687 C32.191,162.087 32.844,161.786 33.631,161.786 C33.991,161.786 34.304,161.858 34.57,162.001 C34.836,162.145 35.052,162.352 35.219,162.623 L35.742,159.123 L36.888,159.123 L35.527,168.195 L34.649,168.195 L34.596,167.398 C34.344,167.701 34.056,167.93 33.73,168.085 C33.3893825,168.243132 33.0174949,168.322431 32.642,168.317 C31.902,168.317 31.349,168.037 30.984,167.474 C30.62,166.912 30.506,166.183 30.641,165.287 L30.659,165.165 Z M31.787,165.287 C31.687,165.942 31.737,166.457 31.941,166.828 C32.145,167.201 32.521,167.387 33.072,167.387 C33.402,167.387 33.697,167.307 33.956,167.148 C34.216,166.989 34.443,166.768 34.636,166.485 L35.073,163.571 C34.9752192,163.321526 34.8088008,163.104835 34.593,162.946 C34.382,162.793 34.112,162.716 33.782,162.716 C33.255,162.716 32.819,162.946 32.476,163.406 C32.133,163.866 31.909,164.452 31.804,165.166 L31.787,165.287 Z M41.006,162.914 L40.424,162.879 C40.125,162.879 39.862,162.954 39.633,163.103 C39.404,163.253 39.21,163.463 39.051,163.734 L38.383,168.195 L37.237,168.195 L38.179,161.902 L39.203,161.902 L39.179,162.792 C39.404,162.474 39.66,162.227 39.947,162.051 C40.3024968,161.831893 40.7238633,161.745141 41.137,161.806 C41.216,161.82 41.279,161.834 41.325,161.85 L41.005,162.914 L41.006,162.914 Z M42.646,168.195 L41.5,168.195 L42.442,161.902 L43.588,161.902 L42.646,168.195 Z M43.832,160.291 L42.686,160.291 L42.861,159.122 L44.007,159.122 L43.832,160.292 L43.832,160.291 Z M44.658,165.165 C44.813,164.115 45.151,163.288 45.67,162.687 C46.19,162.087 46.841,161.786 47.624,161.786 C48.016,161.786 48.351,161.869 48.631,162.036 C48.91,162.203 49.131,162.443 49.294,162.757 L49.561,161.902 L50.474,161.902 L49.526,168.23 C49.398,169.068 49.072,169.695 48.546,170.112 C48.021,170.529 47.31,170.737 46.415,170.737 C46.124,170.737 45.805,170.694 45.461,170.609 C45.1522489,170.537817 44.8547829,170.424417 44.577,170.272 L44.885,169.382 C45.09,169.498 45.343,169.592 45.644,169.664 C45.944,169.736 46.246,169.771 46.548,169.771 C47.083,169.771 47.503,169.643 47.808,169.385 C48.112,169.127 48.303,168.742 48.38,168.23 L48.485,167.515 C48.241,167.778 47.965,167.978 47.656,168.114 C47.3339364,168.252249 46.9864547,168.321405 46.636,168.317 C45.899,168.317 45.348,168.037 44.984,167.474 C44.619,166.912 44.505,166.183 44.641,165.287 L44.658,165.165 Z M45.786,165.287 C45.686,165.942 45.737,166.457 45.941,166.828 C46.144,167.201 46.519,167.387 47.066,167.387 C47.399,167.387 47.696,167.307 47.956,167.145 C48.216,166.985 48.444,166.759 48.642,166.468 L49.078,163.588 C48.9770963,163.335886 48.8094288,163.116017 48.593,162.952 C48.381,162.795 48.109,162.716 47.776,162.716 C47.252,162.716 46.819,162.947 46.476,163.409 C46.133,163.87 45.909,164.455 45.804,165.165 L45.786,165.287 Z M53.766,168.317 C52.898,168.317 52.246,168.025 51.809,167.439 C51.373,166.854 51.225,166.098 51.364,165.171 L51.404,164.915 C51.541,163.977 51.91,163.221 52.513,162.647 C53.116,162.073 53.799,161.786 54.563,161.786 C55.373,161.786 55.957,162.051 56.313,162.583 C56.67,163.113 56.785,163.806 56.657,164.659 L56.57,165.264 L52.498,165.264 C52.409,165.931 52.475,166.457 52.696,166.843 C52.917,167.229 53.318,167.422 53.9,167.422 C54.253085,167.425 54.6041026,167.36785 54.938,167.253 C55.258,167.141 55.534,166.989 55.767,166.799 L56.104,167.544 C55.848,167.761 55.524,167.944 55.133,168.094 C54.741,168.243 54.286,168.317 53.766,168.317 Z M54.429,162.687 C54.045,162.687 53.697,162.842 53.385,163.153 C53.0630607,163.47989 52.831507,163.884764 52.713,164.328 L52.725,164.362 L55.558,164.362 L55.569,164.269 C55.639,163.8 55.585,163.419 55.406,163.127 C55.228,162.834 54.902,162.687 54.429,162.687 Z M61.339,166.503 C61.374,166.243 61.308,166.036 61.141,165.88 C60.974,165.725 60.629,165.588 60.106,165.467 C59.385,165.309 58.845,165.086 58.486,164.799 C58.127,164.512 57.983,164.128 58.053,163.647 C58.126,163.112 58.405,162.668 58.887,162.315 C59.37,161.962 59.962,161.785 60.664,161.785 C61.347,161.785 61.889,161.982 62.293,162.373 C62.696,162.765 62.853,163.215 62.763,163.723 L62.753,163.758 L61.653,163.758 C61.693787,163.48396 61.6008357,163.206965 61.403,163.013 C61.197,162.796 60.91,162.687 60.542,162.687 C60.154,162.687 59.843,162.779 59.609,162.964 C59.374,163.148 59.239,163.364 59.204,163.612 C59.169,163.868 59.228,164.062 59.379,164.194 C59.53,164.326 59.871,164.448 60.402,164.56 C61.151,164.723 61.703,164.954 62.06,165.252 C62.417,165.551 62.562,165.941 62.496,166.422 C62.415,166.999 62.126,167.46 61.63,167.802 C61.133,168.146 60.517,168.317 59.78,168.317 C59.012,168.317 58.418,168.112 57.997,167.701 C57.577,167.29 57.415,166.817 57.512,166.281 L57.523,166.247 L58.623,166.247 C58.588,166.654 58.698,166.952 58.954,167.14 C59.21,167.328 59.528,167.422 59.908,167.422 C60.3,167.422 60.625,167.334 60.885,167.16 C61.145,166.986 61.296,166.766 61.339,166.503 Z M67.801,167.3 L72.104,167.3 L71.971,168.195 L66.474,168.195 L66.486,167.346 L71.232,160.628 L67.359,160.628 L67.492,159.727 L72.692,159.727 L72.57,160.547 L67.8,167.3 L67.801,167.3 Z M74.501,168.195 L73.355,168.195 L74.297,161.902 L75.443,161.902 L74.501,168.195 Z M75.687,160.291 L74.541,160.291 L74.716,159.122 L75.862,159.122 L75.687,160.292 L75.687,160.291 Z M78.851,168.317 C77.983,168.317 77.331,168.025 76.894,167.439 C76.458,166.854 76.31,166.098 76.449,165.171 L76.489,164.915 C76.626,163.977 76.995,163.221 77.598,162.647 C78.201,162.073 78.884,161.786 79.648,161.786 C80.458,161.786 81.042,162.051 81.398,162.583 C81.755,163.113 81.87,163.806 81.742,164.659 L81.655,165.264 L77.583,165.264 C77.494,165.931 77.56,166.457 77.781,166.843 C78.002,167.229 78.403,167.422 78.985,167.422 C79.338085,167.425 79.6891026,167.36785 80.023,167.253 C80.343,167.141 80.619,166.989 80.852,166.799 L81.189,167.544 C80.933,167.761 80.609,167.944 80.218,168.094 C79.826,168.243 79.371,168.317 78.851,168.317 Z M79.514,162.687 C79.13,162.687 78.782,162.842 78.47,163.153 C78.1480607,163.47989 77.916507,163.884764 77.798,164.328 L77.81,164.362 L80.643,164.362 L80.654,164.269 C80.724,163.8 80.67,163.419 80.491,163.127 C80.313,162.834 79.987,162.687 79.514,162.687 Z M83.737,168.195 L82.591,168.195 L83.952,159.122 L85.098,159.122 L83.737,168.195 Z" id="Shape" fill="#6D6E71" fill-rule="nonzero"></path>
            <g id="Group" transform="translate(263.918000, 117.954000)" fill="#2A3052" fill-rule="nonzero">
                <path d="M5.66,6.665 L1.411,6.665 L1.411,10.067 L6.34,10.067 L6.34,11.064 L0.154,11.064 L0.154,1.545 L6.272,1.545 L6.272,2.542 L1.412,2.542 L1.412,5.634 L5.66,5.634 L5.66,6.665 Z M8.957,3.95 L9.059,5.016 C9.47210363,4.28114518 10.2551192,3.83222646 11.098,3.847 C11.846,3.847 12.424,4.054 12.831,4.535 C13.239,4.982 13.443,5.669 13.443,6.597 L13.443,11.064 L12.186,11.064 L12.186,6.631 C12.186,6.012 12.05,5.566 11.812,5.291 C11.574,5.016 11.2,4.913 10.724,4.913 C10.35,4.913 10.044,5.016 9.772,5.188 C9.5,5.36 9.262,5.6 9.092,5.909 L9.092,11.064 L7.835,11.064 L7.835,3.984 L8.957,3.951 L8.957,3.95 Z M14.712,7.489 C14.712,6.355 14.95,5.427 15.426,4.739 C15.902,4.052 16.581,3.709 17.431,3.709 C17.839,3.709 18.213,3.777 18.519,3.949 C18.825,4.087 19.096,4.327 19.334,4.602 L19.334,0.719 L20.592,0.719 L20.592,10.925 L19.572,10.925 L19.436,10.066 C19.226,10.378 18.946,10.637 18.621,10.822 C18.26,10.994 17.864,11.076 17.465,11.062 C16.615,11.062 15.97,10.753 15.494,10.135 C15.018,9.516 14.78,8.691 14.78,7.66 L14.78,7.489 L14.712,7.489 Z M15.952,7.628 C15.952,8.349 16.088,8.933 16.394,9.346 C16.7,9.758 17.108,9.999 17.72,9.999 C18.094,9.999 18.4,9.896 18.672,9.724 C18.944,9.552 19.147,9.311 19.283,9.002 L19.283,5.703 C19.1331388,5.42055894 18.9104387,5.18335739 18.638,5.016 C18.3647986,4.83799089 18.0460735,4.74251223 17.72,4.741 C17.108,4.741 16.666,4.981 16.394,5.497 C16.122,6.012 15.953,6.665 15.953,7.49 L15.953,7.628 L15.952,7.628 Z M27.66,7.76 L22.647,7.76 C22.776,9.303 23.403,10.075 24.529,10.075 C26.217,10.075 26.452,8.628 26.452,8.719 L27.561,8.714 C27.021,10.281 26.01,11.064 24.529,11.064 C22.308,11.064 21.529,9.475 21.435,7.76 C21.341,6.044 21.906,3.741 24.547,3.741 C26.713,3.781 27.75,5.121 27.66,7.76 Z M26.402,6.847 C26.276,5.483 25.649,4.801 24.52,4.801 C23.391,4.801 22.764,5.483 22.637,6.847 L26.402,6.847 Z" id="Shape"></path>
            </g>
            <g id="Group" transform="translate(114.918000, 152.954000)" fill="#FFFFFF" fill-rule="nonzero">
                <path d="M53.708,4.659 L55.738,4.659 L55.841,6.154 C56.672,4.9 57.751,4.342 59.078,4.481 C59.845,4.561 61.465,4.816 61.948,7.021 C62.125,7.829 62.088,9.195 62.074,11.051 C62.069,11.772 62.069,13.02 62.074,14.795 L59.845,14.795 L59.845,8.445 C59.845,7.699 59.639,6.865 59.02,6.55 C58.169,6.116 56.566,6.298 55.923,7.391 L55.923,14.795 L53.708,14.795 L53.708,4.659 Z M42.885,4.659 L44.916,4.659 L45.018,6.154 C45.85,4.9 46.929,4.342 48.255,4.481 C49.023,4.561 50.643,4.816 51.125,7.021 C51.303,7.829 51.265,9.195 51.252,11.051 C51.247,11.772 51.247,13.02 51.252,14.795 L49.023,14.795 L49.023,8.445 C49.023,7.699 48.817,6.865 48.198,6.55 C47.347,6.116 45.744,6.298 45.101,7.391 L45.101,14.795 L42.885,14.795 L42.885,4.659 Z M33.702,4.754 L35.907,4.754 L33.199,14.794 L31.386,14.794 L29.193,8.151 L27.123,14.795 L25.286,14.795 L22.48,4.755 L24.787,4.755 L26.28,11.775 L28.424,4.755 L30.066,4.755 L32.182,11.775 L33.702,4.754 Z M20.775,10.137 L14.664,10.137 C14.798,12.99 16.544,13.679 19.901,12.206 L20.615,13.594 C19.985,14.115 19.275,14.464 18.481,14.638 C16.82,15.002 15.198,14.723 14.074,13.884 C11.634,12.065 12.257,8.244 12.794,6.928 C13.045,6.313 14.282,4.578 15.752,4.411 C17.084,4.259 20.381,3.939 20.775,8.42 C20.806,9.331 20.806,9.904 20.775,10.137 Z M18.6150024,8.279 C18.616,6.685 17.992,5.888 16.744,5.888 C14.87,5.888 14.681,8.279 14.681,8.279 L18.6150024,8.279 Z M5.56,9.27 L5.56,7.593 L10.58,7.593 C10.636,10.517 10.636,12.223 10.58,12.708 C10.156,13.988 5.142,16.316 1.905,13.363 C0.94,12.483 0.487,11.509 0.239,10.033 C0.227,8.525 0.201,7.111 0.211,5.773 C0.456,4.134 0.999,3.203 1.437,2.674 C3.028,0.751 5.564,0.337 7.794,1.116 C10.024,1.896 10.314,3.515 10.494,5.099 C9.978,5.099 9.705,5.076 8.311,5.099 C8.452,4.208 7.651,2.485 5.558,2.579 C3.465,2.674 2.478,4.413 2.478,5.861 C2.478,7.309 2.402,6.823 2.478,9.7 C2.573,13.004 6.49,13.891 8.311,12.126 L8.377,9.312 L5.559,9.27 L5.56,9.27 Z M37.588,4.675 L39.733,4.675 L39.733,14.795 L37.588,14.795 L37.588,4.675 Z M37.631,0.257 L39.82,0.257 L39.82,2.178 L37.631,2.178 L37.631,0.258 L37.631,0.257 Z" id="Shape"></path>
                <path d="M66.695,10.549 L64.192,10.549 L64.192,2.479 L66.695,2.479 L66.695,10.549 Z M66.695,14.795 L64.192,14.795 L64.192,12.627 L66.695,12.627 L66.695,14.795 Z" id="Shape"></path>
            </g>
        </g>
    </g>
</svg>