<svg width="300" height="199" viewBox="0 0 300 199" xmlns="http://www.w3.org/2000/svg"><title>Deutsch touch</title><g fill="none" fill-rule="evenodd"><path fill="#F1F2F2" d="M0 0h300v199H0z"/><path d="M39.125 55.375V74.75H75.25V55.375H39.125zm0-1H75.25V34h1v20.375h36.125V34h1v20.375H149.5V34h1v20.375h36.125V34h1v20.375h36.125V34h1v20.375h36.125V34h1v20.375H299.5v1h-37.625V74.75H299.5v1h-37.625v19.375H299.5v1h-37.625V115.5H299.5v1h-37.625v19.375H299.5v1h-37.625v19.375H299.5v1h-37.625v19.375H299.5v1h-37.625V199h-1v-21.375H224.75V199h-1v-21.375h-36.125V199h-1v-21.375H150.5V199h-1v-21.375h-36.125V199h-1v-21.375H76.25V199h-1v-21.375H39.125V199h-1v-21.375H1.5v-1h36.625V157.25H1.5v-1h36.625v-19.375H1.5v-1h36.625V116.5H1.5v-1h36.625V96.125H1.5v-1h36.625V75.75H1.5v-1h36.625V55.375H1.5v-1h36.625V34h1v20.375zm221.75 1H224.75V74.75h36.125V55.375zm-37.125 0h-36.125V74.75h36.125V55.375zm-37.125 0H150.5V74.75h36.125V55.375zm-37.125 0h-36.125V74.75H149.5V55.375zm-37.125 0H76.25V74.75h36.125V55.375zM39.125 75.75v19.375H75.25V75.75H39.125zm221.75 0H224.75v19.375h36.125V75.75zm-37.125 0h-36.125v19.375h36.125V75.75zm-37.125 0H150.5v19.375h36.125V75.75zm-37.125 0h-36.125v19.375H149.5V75.75zm-37.125 0H76.25v19.375h36.125V75.75zm-73.25 20.375V115.5H75.25V96.125H39.125zm221.75 0H224.75V115.5h36.125V96.125zm-37.125 0h-36.125V115.5h36.125V96.125zm-37.125 0H150.5V115.5h36.125V96.125zm-37.125 0h-36.125V115.5H149.5V96.125zm-37.125 0H76.25V115.5h36.125V96.125zM39.125 116.5v19.375H75.25V116.5H39.125zm221.75 0H224.75v19.375h36.125V116.5zm-37.125 0h-36.125v19.375h36.125V116.5zm-37.125 0H150.5v19.375h36.125V116.5zm-37.125 0h-36.125v19.375H149.5V116.5zm-37.125 0H76.25v19.375h36.125V116.5zm-73.25 20.375v19.375H75.25v-19.375H39.125zm221.75 0H224.75v19.375h36.125v-19.375zm-37.125 0h-36.125v19.375h36.125v-19.375zm-37.125 0H150.5v19.375h36.125v-19.375zm-37.125 0h-36.125v19.375H149.5v-19.375zm-37.125 0H76.25v19.375h36.125v-19.375zm-73.25 20.375v19.375H75.25V157.25H39.125zm221.75 0H224.75v19.375h36.125V157.25zm-37.125 0h-36.125v19.375h36.125V157.25zm-37.125 0H150.5v19.375h36.125V157.25zm-37.125 0h-36.125v19.375H149.5V157.25zm-37.125 0H76.25v19.375h36.125V157.25z" fill="#DFDEDE"/><path stroke="#C2C2C2" stroke-width="2" d="M1 1h298v197H1z"/><path fill="#C2C2C2" d="M0 33h300v2H0z"/><path d="M2.248 75.285h295.125M261.92 33.967v162.757" stroke="#2A3052" stroke-width="1.23" stroke-linejoin="round"/><path stroke="#2A3052" stroke-width="3.689" stroke-linecap="round" stroke-linejoin="round" d="M37.891 137.242l37.358-33.93 26.542 26.352 32.026-35.415 46.458 42.993 44.288-61.957"/><path d="M188.805 147.98H153.2l-5.484-8.339-5.483 8.34h-35.606c-2.666 0-4.798 2.17-4.798 4.874v25.171c0 2.704 2.17 4.875 4.798 4.875h82.216c2.666 0 4.799-2.17 4.799-4.875v-25.171c0-2.704-2.171-4.874-4.837-4.874z" fill="#E88024" fill-rule="nonzero"/><ellipse cx="9.216" cy="8.843" rx="8.264" ry="8.606" opacity=".6" transform="translate(215.348 66.441)" fill="#FFF" fill-rule="nonzero"/><ellipse stroke="#E88024" stroke-width="2.46" cx="224.563" cy="75.285" rx="8.264" ry="8.606"/><ellipse cx="9.139" cy="9.063" rx="8.264" ry="8.606" opacity=".6" transform="translate(28.752 128.179)" fill="#FFF" fill-rule="nonzero"/><ellipse stroke="#E88024" stroke-width="2.46" cx="37.891" cy="137.242" rx="8.264" ry="8.606"/><path d="M20.703 21.688H25.6v1.642H18.18v-1.115l4.75-7.91H18.19v-1.648h7.286v1.07l-4.772 7.96zm8.51 1.642h-2.14v-7.932h2.14v7.932zm0-9.83h-2.14v-1.606h2.14V13.5zm5.198 9.984c-1.183 0-2.106-.363-2.771-1.089s-.997-1.66-.997-2.804v-.293c0-1.188.323-2.16.968-2.918.645-.757 1.532-1.133 2.66-1.128 1.066 0 1.883.326 2.453.978.569.653.854 1.531.854 2.635v1.107H32.85l-.022.044c.034.543.199.983.494 1.32.296.337.735.506 1.316.506.48 0 .886-.05 1.22-.147a4.98 4.98 0 0 0 1.038-.447l.579 1.32c-.318.258-.748.476-1.29.652a5.722 5.722 0 0 1-1.774.264zm-.14-6.583c-.43 0-.76.148-.993.443-.232.296-.372.688-.421 1.177l.015.037h2.61v-.162c0-.464-.096-.83-.287-1.096-.19-.266-.498-.4-.923-.4zm6.803 6.429h-2.14V11.894h2.14V23.33z" fill="#020202"/><path d="M28.862 160.087c0-.414-.16-.733-.446-1.02-.287-.287-.829-.51-1.594-.67-.924-.223-1.658-.541-2.168-.988a2.085 2.085 0 0 1-.765-1.625c0-.702.287-1.275.83-1.722.541-.478 1.274-.7 2.167-.7.956 0 1.721.254 2.295.796.574.542.829 1.148.829 1.849v.032h-1.18c0-.51-.16-.925-.51-1.243-.35-.32-.829-.479-1.466-.479-.574 0-1.052.128-1.339.415a1.275 1.275 0 0 0-.478 1.052c0 .382.16.701.51.956s.893.478 1.658.67c.924.223 1.625.573 2.103 1.02.479.446.734 1.02.734 1.657 0 .701-.287 1.275-.861 1.721-.574.447-1.339.638-2.263.638-.861 0-1.626-.255-2.295-.733a2.225 2.225 0 0 1-.989-1.913v-.032h1.116c0 .574.191.989.606 1.307.414.287.924.447 1.53.447.605 0 1.052-.128 1.402-.383.383-.255.574-.606.574-1.052zm4.24-5.897v1.594h1.243v.892h-1.243v3.985c0 .319.064.51.191.637.128.128.287.192.51.192.064 0 .128 0 .223-.032.096-.032.16-.032.223-.064l.16.829a2.122 2.122 0 0 1-.383.191 2.79 2.79 0 0 1-.51.064c-.478 0-.86-.16-1.147-.446-.287-.287-.415-.765-.415-1.371v-3.985H30.87v-.892h1.02v-1.594h1.212zm6.662 8.129c-.032-.192-.064-.383-.095-.51-.032-.128-.032-.32-.032-.447-.224.319-.51.574-.861.797-.35.223-.733.319-1.148.319-.669 0-1.18-.16-1.53-.51a1.945 1.945 0 0 1-.542-1.435c0-.637.255-1.115.765-1.466.51-.35 1.18-.542 2.04-.542h1.276v-.637a1.275 1.275 0 0 0-.351-.925 1.38 1.38 0 0 0-.988-.35c-.383 0-.701.095-.925.286-.223.192-.35.447-.35.702h-1.116v-.032c-.032-.478.191-.925.67-1.307a2.837 2.837 0 0 1 1.816-.606c.734 0 1.34.191 1.786.574.446.383.669.924.669 1.626v3.156c0 .223 0 .446.032.669.032.223.064.446.127.638h-1.243zm-1.944-.861c.414 0 .828-.096 1.147-.319.35-.223.574-.478.67-.765v-1.052h-1.34c-.477 0-.86.128-1.147.35-.26.211-.412.527-.414.861 0 .287.095.51.255.702.191.127.478.223.829.223zm7.778-4.654l-.606-.032c-.319 0-.574.064-.797.223-.227.16-.404.381-.51.638v4.686h-1.18v-6.567h1.053l.127.956c.191-.35.414-.606.67-.797.254-.191.573-.287.924-.287.096 0 .16 0 .255.032a.56.56 0 0 0 .191.032l-.127 1.116zm2.805-2.614v1.594h1.243v.892h-1.243v3.985c0 .319.064.51.191.637.128.128.287.192.51.192.064 0 .128 0 .223-.032.096-.032.16-.032.223-.064l.16.829a2.122 2.122 0 0 1-.383.191 2.79 2.79 0 0 1-.51.064c-.478 0-.86-.16-1.147-.446-.287-.287-.415-.765-.415-1.371v-3.985h-1.02v-.892h1.02v-1.594h1.148z" fill="#293152" fill-rule="nonzero"/><g fill="#2A3052"><path d="M271.489 126.535h-4.277v3.425h4.961v1.004h-6.227v-9.583h6.159v1.003h-4.893v3.114h4.277v1.037zM274.808 123.802l.102 1.073a2.308 2.308 0 0 1 2.053-1.176c.753 0 1.335.207 1.746.692.41.45.615 1.141.615 2.075v4.498h-1.266V126.5c0-.623-.136-1.073-.376-1.35-.24-.276-.616-.38-1.095-.38-.376 0-.684.104-.958.277a1.989 1.989 0 0 0-.684.726v5.19h-1.266v-7.127l1.129-.035zM280.602 127.364c0-1.141.24-2.075.718-2.767.48-.692 1.164-1.038 2.02-1.038.41 0 .786.069 1.094.242.308.138.582.38.821.657v-3.909h1.266v10.275h-1.026l-.137-.865a2.44 2.44 0 0 1-.821.761 2.509 2.509 0 0 1-1.164.242c-.855 0-1.505-.311-1.984-.934-.48-.623-.719-1.453-.719-2.49v-.174h-.068zm1.249.14c0 .727.137 1.315.444 1.73.308.415.72.657 1.335.657.376 0 .684-.104.958-.277.274-.173.48-.415.616-.726v-3.321a1.805 1.805 0 0 0-.65-.692 1.708 1.708 0 0 0-.924-.277c-.616 0-1.06.242-1.335.761-.273.52-.444 1.176-.444 2.007v.138zM294.24 127.637h-5.046c.13 1.554.762 2.33 1.895 2.33 1.7 0 1.936-1.456 1.936-1.364l1.116-.006c-.544 1.578-1.561 2.367-3.052 2.367-2.236 0-3.02-1.6-3.115-3.327-.094-1.727.475-4.045 3.133-4.045 2.18.04 3.225 1.389 3.133 4.045zm-1.265-.919c-.127-1.373-.76-2.059-1.895-2.059-1.137 0-1.768.686-1.896 2.06h3.79z"/></g><g fill="#6D6E71"><path d="M39.512 70.434h1.19l1.023-7.049h-1.219zM42.229 60.216l-.19 1.555h-1.385l.237-1.555z"/><path opacity=".9" d="M26.29 62.15l.166-.978h5.551l-.112.979-5.156 7.55h4.672l-.16 1.017h-5.894V69.7l5.113-7.55zM44.458 60.216h1.236l-1.479 10.23h-1.199zM37.05 69c.072.186.155.383.35.82-1.475 1.179-3.173 1.018-3.966.53-1.195-.734-1.195-2.098-1.189-3.153.008-1.346.95-3.848 3.576-3.848 2.626 0 2.195 2.974 2.067 3.848-.269 0-1.716.028-4.344.083-.243 3.27 2.113 2.54 3.506 1.72zm-.158-2.63c.153-1.291-.225-1.937-1.135-1.937-1.364 0-1.842 1.516-1.995 1.937h3.13z"/></g><g fill="#FFF"><path d="M167.233 162.264h1.968l.1 1.45c.805-1.216 1.851-1.757 3.137-1.622.744.078 2.315.324 2.783 2.462.171.783.135 2.107.122 3.907-.005.698-.005 1.908 0 3.628h-2.16v-6.155c0-.723-.2-1.53-.8-1.837-.826-.42-2.38-.244-3.003.816v7.176h-2.147v-9.825zM156.742 162.264h1.969l.099 1.45c.806-1.216 1.852-1.757 3.138-1.622.744.078 2.314.324 2.782 2.462.171.783.135 2.107.122 3.907-.005.698-.005 1.908 0 3.628h-2.16v-6.155c0-.723-.2-1.53-.8-1.837-.825-.42-2.379-.244-3.002.816v7.176h-2.148v-9.825zM147.84 162.356h2.138l-2.626 9.733h-1.757l-2.125-6.44-2.008 6.44h-1.78l-2.72-9.733h2.237l1.446 6.806 2.079-6.806h1.592l2.05 6.806zM135.31 167.574h-5.925c.13 2.766 1.823 3.434 5.077 2.005l.692 1.346c-.61.506-1.3.843-2.068 1.012-1.61.354-3.183.083-4.273-.73-2.365-1.764-1.76-5.467-1.24-6.743.243-.596 1.442-2.278 2.867-2.44 1.291-.147 4.487-.458 4.87 3.886.03.883.03 1.438 0 1.664zm-2.095-1.8c.002-1.546-.603-2.319-1.814-2.319-1.816 0-2 2.318-2 2.318h3.814zM120.56 166.734v-1.626h4.866c.055 2.835.055 4.488 0 4.958-.41 1.241-5.27 3.498-8.408.636-.936-.853-1.376-1.798-1.616-3.23-.01-1.46-.037-2.831-.027-4.127.238-1.59.764-2.492 1.188-3.005 1.543-1.865 4.001-2.266 6.163-1.51 2.162.755 2.443 2.325 2.618 3.86-.5 0-.765-.021-2.117 0 .137-.863-.64-2.534-2.669-2.442-2.028.092-2.985 1.777-2.985 3.18 0 1.405-.073.933 0 3.723.092 3.203 3.89 4.062 5.654 2.351l.065-2.727-2.732-.04zM151.607 162.28h2.079v9.81h-2.079v-9.81zm.042-4.282h2.121v1.861h-2.121v-1.861z"/><path d="M179.822 167.974h-2.427v-7.823h2.427v7.823zm0 4.115h-2.427v-2.101h2.427v2.101z" fill-rule="nonzero"/></g></g></svg>