<svg xmlns="http://www.w3.org/2000/svg" viewBox="-17353 -11591 65.652 66">
  <defs>
    <style>
      .cls-1, .cls-3 {
        fill: none;
        stroke: #2a3052;
        stroke-miterlimit: 10;
      }

      .cls-1 {
        stroke-width: 2px;
      }

      .cls-2 {
        fill: #2a3052;
      }

      .cls-3 {
        stroke-width: 2px;
      }
    </style>
  </defs>
  <g id="Group_1295" data-name="Group 1295" transform="translate(-17353 -11591)">
    <g id="Group_1294" data-name="Group 1294" transform="translate(6.29 3.612)">
      <circle id="Ellipse_151" data-name="Ellipse 151" class="cls-1" cx="21.224" cy="21.224" r="21.224" transform="translate(5.812 1.306)"/>
      <line id="Line_244" data-name="Line 244" class="cls-1" x1="6.661" y1="6.661" transform="translate(41.861 37.42)"/>
      <path id="Path_5911" data-name="Path 5911" class="cls-2" d="M90.541,82.022l2.416-2.416L82.116,68.7,79.7,71.182Z" transform="translate(-33.594 -27.1)"/>
      <path id="Path_5912" data-name="Path 5912" class="cls-1" d="M27.2,41.284,38.563,29.92l6.008,6.008L56.065,24.5" transform="translate(-15.38 -11.765)"/>
      <line id="Line_245" data-name="Line 245" class="cls-1" y1="6.922" x2="6.922" transform="translate(0 34.416)"/>
      <line id="Line_246" data-name="Line 246" class="cls-1" y1="8.424" x2="8.424" transform="translate(45.518 0.065)"/>
      <path id="Path_5913" data-name="Path 5913" class="cls-1" d="M85,5h4.571V8.918" transform="translate(-35.433 -5)"/>
    </g>
    <path id="Path_5914" data-name="Path 5914" class="cls-3" d="M48.02,10.8V1H1V55.857L10.143,65H48.02V41.686"/>
    <rect id="Rectangle_837" data-name="Rectangle 837" class="cls-2" width="20.898" height="2.612" transform="translate(19.939 53.245)"/>
    <path id="Path_5915" data-name="Path 5915" class="cls-3" d="M1,85h9.143v9.143" transform="translate(0 -29.143)"/>
  </g>
</svg>
