<svg xmlns="http://www.w3.org/2000/svg" viewBox="-17706 -11591.869 104.869 66.869">
  <defs>
    <style>
      .cls-1 {
        fill: none;
        stroke: #2a3052;
        stroke-miterlimit: 10;
        stroke-width: 2px;
      }
    </style>
  </defs>
  <g id="Group_1292" data-name="Group 1292" transform="translate(-17706 -11591.9)">
    <g id="Group_1290" data-name="Group 1290" transform="translate(82.521 7.251)">
      <line id="Line_239" data-name="Line 239" class="cls-1" x2="20.984" transform="translate(1.364 20.879)"/>
      <line id="Line_240" data-name="Line 240" class="cls-1" y1="5.246" x2="21.403"/>
      <line id="Line_241" data-name="Line 241" class="cls-1" x2="21.403" y2="5.351" transform="translate(0 37.246)"/>
    </g>
    <g id="Group_1291" data-name="Group 1291" transform="translate(1 1.9)">
      <path id="Path_5908" data-name="Path 5908" class="cls-1" d="M53.459,12.392H16.738A15.717,15.717,0,0,0,1,28.13H1A15.717,15.717,0,0,0,16.738,43.867H53.459L69.2,54.359V1.9Z" transform="translate(-1 -1.9)"/>
      <path id="Path_5909" data-name="Path 5909" class="cls-1" d="M20,41.9l5.246,22.033h5.246V41.9Z" transform="translate(-0.066 0.067)"/>
      <line id="Line_242" data-name="Line 242" class="cls-1" y2="32.525" transform="translate(52.459 10.492)"/>
      <line id="Line_243" data-name="Line 243" class="cls-1" y2="32.525" transform="translate(39.869 10.492)"/>
    </g>
    <path id="Path_5910" data-name="Path 5910" class="cls-1" d="M65.2,18.8a7.869,7.869,0,0,1,0,15.738" transform="translate(3.157 0.831)"/>
  </g>
</svg>
