<svg xmlns="http://www.w3.org/2000/svg" viewBox="-16994 -10133 52.533 66">
  <defs>
    <style>
      .cls-1 {
        fill: none;
        stroke: #293052;
        stroke-miterlimit: 10;
        stroke-width: 2px;
      }
    </style>
  </defs>
  <g id="Group_1315" data-name="Group 1315" transform="translate(-16994 -10133)">
    <path id="Path_5928" data-name="Path 5928" class="cls-1" d="M51.534,48.618V26.267A25.267,25.267,0,0,0,1,26.267V48.618"/>
    <rect id="Rectangle_844" data-name="Rectangle 844" class="cls-1" width="9.44" height="17.215" transform="translate(1 31.542)"/>
    <path id="Path_5929" data-name="Path 5929" class="cls-1" d="M4.4,34.7A13.924,13.924,0,0,0,18.283,48.583" transform="translate(1.32 13.085)"/>
    <path id="Path_5930" data-name="Path 5930" class="cls-1" d="M26.578,44.382v2.5A2.135,2.135,0,0,1,24.5,48.964H16.582A2.135,2.135,0,0,1,14.5,46.881v-2.5A2.135,2.135,0,0,1,16.582,42.3H24.5A2.135,2.135,0,0,1,26.578,44.382Z" transform="translate(5.242 16.036)"/>
    <rect id="Rectangle_845" data-name="Rectangle 845" class="cls-1" width="9.44" height="17.215" transform="translate(42.093 31.542)"/>
  </g>
</svg>
