<svg width="24" height="16" viewBox="0 0 24 16" xmlns="http://www.w3.org/2000/svg" xmlns:xlink="http://www.w3.org/1999/xlink"><title>23EFD90E-CD9B-4AAA-A6FD-FFEB127BE1D0</title><defs><rect id="a" width="24" height="16" rx="2"/></defs><g fill="none" fill-rule="evenodd"><mask id="b" fill="#fff"><use xlink:href="#a"/></mask><path fill="#128415" mask="url(#b)" d="M0 0h8v16H0z"/><path fill="#FF2936" mask="url(#b)" d="M8 0h16v16H8z"/><circle stroke="#FAF94F" mask="url(#b)" cx="8" cy="8" r="3.5"/><g mask="url(#b)"><path d="M6.5 6.341c0-.188.145-.341.333-.341h2.334c.184 0 .333.152.333.341v2.327C9.5 9.404 8.907 10 8.175 10h-.35C7.093 10 6.5 9.41 6.5 8.668V6.341z" fill="#FFF"/><path d="M8 8.92c.414 0 .75-1.086.75-1.5a.75.75 0 1 0-1.5 0c0 .414.336 1.5.75 1.5z" fill="#1D50B5"/></g><rect stroke-opacity=".04" stroke="#000" mask="url(#b)" x=".5" y=".5" width="23" height="15" rx="2"/></g></svg>