<svg width="16" height="16" viewBox="0 0 16 16" xmlns="http://www.w3.org/2000/svg" xmlns:xlink="http://www.w3.org/1999/xlink"><title>icons/system/google/trade/ic_digit_light</title><defs><circle id="a" cx="8" cy="8" r="8"/></defs><g fill="none" fill-rule="evenodd"><mask id="b" fill="#fff"><use xlink:href="#a"/></mask><use fill="#F44336" xlink:href="#a"/><path fill="#FFF" mask="url(#b)" d="M8 0h8v16H8z"/><circle stroke="#F44336" cx="8" cy="8" r="7.5"/><path fill="#F44336" d="M13.82 6.791l-2.75 6.318H9.582l2.754-5.966H8.8V6h5.02z"/><path d="M7.015 10.207H2.142V9.24l2.3-2.45c.315-.346.549-.647.7-.904.151-.257.227-.502.227-.733 0-.315-.08-.564-.24-.744-.159-.181-.386-.271-.683-.271-.319 0-.57.11-.754.33-.184.219-.276.508-.276.866H2c0-.433.103-.828.31-1.187.207-.358.499-.638.877-.842A2.664 2.664 0 0 1 4.47 3c.732 0 1.301.176 1.706.527.406.352.608.848.608 1.49 0 .351-.091.71-.273 1.074-.183.364-.495.79-.938 1.274L3.958 9.07h3.057v1.138z" fill="#FFF"/></g></svg>