<?xml version="1.0" encoding="UTF-8"?>
<svg width="299px" height="197px" viewBox="0 0 299 197" version="1.1" xmlns="http://www.w3.org/2000/svg" xmlns:xlink="http://www.w3.org/1999/xlink">
    <!-- Generator: Sketch 52.6 (67491) - http://www.bohemiancoding.com/sketch -->
    <title>close low</title>
    <desc>Created with Sketch.</desc>
    <g id="Page-1" stroke="none" stroke-width="1" fill="none" fill-rule="evenodd">
        <g id="close-low">
            <g id="Group">
                <polygon id="Shape" fill="#F1F2F2" points="0 0 299 0 299 197 0 197"></polygon>
                <path d="M1.98671096,1.9798995 L1.98671096,195.020101 L297.013289,195.020101 L297.013289,1.9798995 L1.98671096,1.9798995 Z M299,0 L299,197 L0,197 L0,0 L299,0 Z" id="Shape" fill="#C2C2C2" fill-rule="nonzero"></path>
                <path d="M4.887,56.1681983 L4.887,54.9623677 L294.54325,54.9623677 L294.54325,56.1681983 L4.887,56.1681983 Z M4.887,96.4974436 L4.887,95.291613 L294.54325,95.291613 L294.54325,96.4974436 L4.887,96.4974436 Z M4.887,136.826689 L4.887,135.620859 L294.54325,135.620859 L294.54325,136.826689 L4.887,136.826689 Z M4.887,177.118764 L4.887,175.912934 L294.54325,175.912934 L294.54325,177.118764 L4.887,177.118764 Z M39.2670847,35.4192453 L40.4729153,35.4192453 L40.4729153,194.283019 L39.2670847,194.283019 L39.2670847,35.4192453 Z M75.9319597,35.4192453 L77.1377903,35.4192453 L77.1377903,194.283019 L75.9319597,194.283019 L75.9319597,35.4192453 Z M112.55946,35.4192453 L113.76529,35.4192453 L113.76529,194.283019 L112.55946,194.283019 L112.55946,35.4192453 Z M149.224335,35.4192453 L150.430165,35.4192453 L150.430165,194.283019 L149.224335,194.283019 L149.224335,35.4192453 Z M185.851835,35.4192453 L187.057665,35.4192453 L187.057665,194.283019 L185.851835,194.283019 L185.851835,35.4192453 Z M222.479335,35.4192453 L223.685165,35.4192453 L223.685165,194.283019 L222.479335,194.283019 L222.479335,35.4192453 Z M4.887,116.643481 L4.887,115.437651 L294.54325,115.437651 L294.54325,116.643481 L4.887,116.643481 Z" id="Shape-2" fill="#DFDEDE" fill-rule="nonzero"></path>
                <path d="M4.887,72.5954004 L4.887,71.4676184 L12.3557552,71.4676184 L12.3557552,72.5954004 L4.887,72.5954004 Z M19.8245105,72.5954004 L19.8245105,71.4676184 L27.2932657,71.4676184 L27.2932657,72.5954004 L19.8245105,72.5954004 Z M34.762021,72.5954004 L34.762021,71.4676184 L42.2307762,71.4676184 L42.2307762,72.5954004 L34.762021,72.5954004 Z M49.6995315,72.5954004 L49.6995315,71.4676184 L57.1682867,71.4676184 L57.1682867,72.5954004 L49.6995315,72.5954004 Z M64.637042,72.5954004 L64.637042,71.4676184 L72.1057972,71.4676184 L72.1057972,72.5954004 L64.637042,72.5954004 Z M79.5745525,72.5954004 L79.5745525,71.4676184 L87.0433077,71.4676184 L87.0433077,72.5954004 L79.5745525,72.5954004 Z M94.5120629,72.5954004 L94.5120629,71.4676184 L101.980818,71.4676184 L101.980818,72.5954004 L94.5120629,72.5954004 Z M109.449573,72.5954004 L109.449573,71.4676184 L116.918329,71.4676184 L116.918329,72.5954004 L109.449573,72.5954004 Z M124.387084,72.5954004 L124.387084,71.4676184 L131.855839,71.4676184 L131.855839,72.5954004 L124.387084,72.5954004 Z M139.324594,72.5954004 L139.324594,71.4676184 L146.79335,71.4676184 L146.79335,72.5954004 L139.324594,72.5954004 Z M154.262105,72.5954004 L154.262105,71.4676184 L161.73086,71.4676184 L161.73086,72.5954004 L154.262105,72.5954004 Z M169.199615,72.5954004 L169.199615,71.4676184 L176.668371,71.4676184 L176.668371,72.5954004 L169.199615,72.5954004 Z M184.137126,72.5954004 L184.137126,71.4676184 L191.605881,71.4676184 L191.605881,72.5954004 L184.137126,72.5954004 Z M199.074636,72.5954004 L199.074636,71.4676184 L206.543392,71.4676184 L206.543392,72.5954004 L199.074636,72.5954004 Z M214.012147,72.5954004 L214.012147,71.4676184 L221.480902,71.4676184 L221.480902,72.5954004 L214.012147,72.5954004 Z M228.949657,72.5954004 L228.949657,71.4676184 L236.418413,71.4676184 L236.418413,72.5954004 L228.949657,72.5954004 Z M243.887168,72.5954004 L243.887168,71.4676184 L251.355923,71.4676184 L251.355923,72.5954004 L243.887168,72.5954004 Z M258.824678,72.5954004 L258.824678,71.4676184 L266.293434,71.4676184 L266.293434,72.5954004 L258.824678,72.5954004 Z M273.762189,72.5954004 L273.762189,71.4676184 L281.230944,71.4676184 L281.230944,72.5954004 L273.762189,72.5954004 Z M288.699699,72.5954004 L288.699699,71.4676184 L294.54325,71.4676184 L294.54325,72.5954004 L288.699699,72.5954004 Z" id="Shape-3" fill="#15212D" fill-rule="nonzero"></path>
                <polygon id="Path" fill="#2A3052" fill-rule="nonzero" points="240.45671 35.4192453 241.66254 35.4192453 241.66254 194.283019 240.45671 194.283019"></polygon>
                <path d="M4.887,164.367665 L4.887,163.239883 L12.3557552,163.239883 L12.3557552,164.367665 L4.887,164.367665 Z M19.8245105,164.367665 L19.8245105,163.239883 L27.2932657,163.239883 L27.2932657,164.367665 L19.8245105,164.367665 Z M34.762021,164.367665 L34.762021,163.239883 L42.2307762,163.239883 L42.2307762,164.367665 L34.762021,164.367665 Z M49.6995315,164.367665 L49.6995315,163.239883 L57.1682867,163.239883 L57.1682867,164.367665 L49.6995315,164.367665 Z M64.637042,164.367665 L64.637042,163.239883 L72.1057972,163.239883 L72.1057972,164.367665 L64.637042,164.367665 Z M79.5745525,164.367665 L79.5745525,163.239883 L87.0433077,163.239883 L87.0433077,164.367665 L79.5745525,164.367665 Z M94.5120629,164.367665 L94.5120629,163.239883 L101.980818,163.239883 L101.980818,164.367665 L94.5120629,164.367665 Z M109.449573,164.367665 L109.449573,163.239883 L116.918329,163.239883 L116.918329,164.367665 L109.449573,164.367665 Z M124.387084,164.367665 L124.387084,163.239883 L131.855839,163.239883 L131.855839,164.367665 L124.387084,164.367665 Z M139.324594,164.367665 L139.324594,163.239883 L146.79335,163.239883 L146.79335,164.367665 L139.324594,164.367665 Z M154.262105,164.367665 L154.262105,163.239883 L161.73086,163.239883 L161.73086,164.367665 L154.262105,164.367665 Z M169.199615,164.367665 L169.199615,163.239883 L176.668371,163.239883 L176.668371,164.367665 L169.199615,164.367665 Z M184.137126,164.367665 L184.137126,163.239883 L191.605881,163.239883 L191.605881,164.367665 L184.137126,164.367665 Z M199.074636,164.367665 L199.074636,163.239883 L206.543392,163.239883 L206.543392,164.367665 L199.074636,164.367665 Z M214.012147,164.367665 L214.012147,163.239883 L221.480902,163.239883 L221.480902,164.367665 L214.012147,164.367665 Z M228.949657,164.367665 L228.949657,163.239883 L236.418413,163.239883 L236.418413,164.367665 L228.949657,164.367665 Z M243.887168,164.367665 L243.887168,163.239883 L251.355923,163.239883 L251.355923,164.367665 L243.887168,164.367665 Z M258.824678,164.367665 L258.824678,163.239883 L266.293434,163.239883 L266.293434,164.367665 L258.824678,164.367665 Z M273.762189,164.367665 L273.762189,163.239883 L281.230944,163.239883 L281.230944,164.367665 L273.762189,164.367665 Z M288.699699,164.367665 L288.699699,163.239883 L294.54325,163.239883 L294.54325,164.367665 L288.699699,164.367665 Z" id="Path-2" fill="#15212D" fill-rule="nonzero"></path>
                <polygon id="Shape-4" fill="#C2C2C2" fill-rule="nonzero" points="2.794 33.4358286 2.794 31.023794 296.63625 31.023794 296.63625 33.4358286"></polygon>
                <path d="M56.6412045,102.228668 L21.9184493,117.693023 C21.0058223,118.099477 19.9364962,117.689142 19.5300426,116.776515 C19.123589,115.863888 19.5339236,114.794562 20.4465507,114.388109 L56.1920007,98.4682786 C56.8186454,98.1891919 57.5492377,98.2885757 58.0785624,98.7249108 L82.6943534,119.016303 L119.638733,41.2259873 C120.326397,39.7780365 122.418251,39.873755 122.970809,41.3784555 L166.248555,159.230424 L193.15706,102.18506 C193.295099,101.892421 193.509103,101.642163 193.776767,101.46037 L239.807817,70.196842 C240.634268,69.6355301 241.759272,69.8504679 242.320584,70.676919 C242.881896,71.5033702 242.666958,72.6283744 241.840507,73.1896864 L196.218311,104.175527 L167.676577,164.683298 C166.991747,166.13512 164.895812,166.041977 164.342466,164.535129 L121.059235,46.6682254 L84.9674046,122.663409 C84.4622096,123.72715 83.0914543,124.032248 82.1827751,123.283202 L56.6412045,102.228668 Z" id="Shape-5" fill="#2A3052" fill-rule="nonzero"></path>
                <g opacity="0.6" transform="translate(232.725000, 61.471698)" fill="#FFFFFF" id="Oval">
                    <ellipse cx="8.334625" cy="9.2588679" rx="8.110375" ry="8.40037736"></ellipse>
                </g>
                <path d="M241.059625,80.3369606 C235.904659,80.3369606 231.743233,76.0267348 231.743233,70.730566 C231.743233,65.4343972 235.904659,61.1241714 241.059625,61.1241714 C246.214591,61.1241714 250.376017,65.4343972 250.376017,70.730566 C250.376017,76.0267348 246.214591,80.3369606 241.059625,80.3369606 Z M241.059625,77.9249261 C244.863132,77.9249261 247.963983,74.7131979 247.963983,70.730566 C247.963983,66.7479341 244.863132,63.5362059 241.059625,63.5362059 C237.256118,63.5362059 234.155267,66.7479341 234.155267,70.730566 C234.155267,74.7131979 237.256118,77.9249261 241.059625,77.9249261 Z" id="Oval-2" fill="#E88024" fill-rule="nonzero"></path>
                <g id="Group-2" opacity="0.6" transform="translate(157.975000, 154.396226)" fill="#FFFFFF">
                    <ellipse id="Oval-3" cx="8.110375" cy="9.2588679" rx="8.110375" ry="8.40037736"></ellipse>
                </g>
                <path d="M166.085375,173.261489 C160.930409,173.261489 156.768983,168.951263 156.768983,163.655094 C156.768983,158.358925 160.930409,154.048699 166.085375,154.048699 C171.240341,154.048699 175.401767,158.358925 175.401767,163.655094 C175.401767,168.951263 171.240341,173.261489 166.085375,173.261489 Z M166.085375,170.849454 C169.888882,170.849454 172.989733,167.637726 172.989733,163.655094 C172.989733,159.672462 169.888882,156.460734 166.085375,156.460734 C162.281868,156.460734 159.181017,159.672462 159.181017,163.655094 C159.181017,167.637726 162.281868,170.849454 166.085375,170.849454 Z" id="Oval-4" fill="#E88024" fill-rule="nonzero"></path>
            </g>
            <path d="M249.74,55.66 L249.41,54.716 C249.598,54.645 249.692,54.526 249.692,54.362 L249.692,48.083 L250.79,48.083 L250.79,54.326 C251.279382,54.1728265 251.763639,54.0037367 252.242,53.819 L252.242,47.092 L253.352,47.092 L253.352,56.852 C254.496,56.285 255.428,55.565 256.136,54.68 C255.566936,53.8089564 255.110945,52.8690848 254.779,51.883 L255.688,51.363 C255.983,52.19 256.361,52.969 256.809,53.677 C257.399,52.58 257.741,51.293 257.824,49.83 L255.711,49.83 C255.311,50.845 254.803,51.706 254.201,52.39 L253.504,51.541 C254.401,50.408 255.004,48.897 255.31,46.997 L256.431,47.186 C256.330677,47.7052221 256.212608,48.2208575 256.077,48.732 L259.819,48.732 L259.819,49.83 L258.898,49.83 C258.804,51.706 258.332,53.311 257.494,54.657 C258.202,55.565 259.064,56.38 260.078,57.1 L259.311,57.997 C258.377448,57.3138349 257.536434,56.5124854 256.809,55.613 C256.054,56.521 255.098,57.289 253.941,57.903 L253.351,56.946 L253.351,57.843 L252.241,57.843 L252.241,54.893 C251.439,55.176 250.613,55.436 249.74,55.66 Z M261.447,50.36 L263.17,50.36 L263.17,47.693 L265.495,47.693 C265.637,47.433 265.755,47.163 265.825,46.903 L266.947,47.056 C266.863842,47.2770529 266.761101,47.4902337 266.64,47.693 L270.016,47.693 L270.016,50.361 L271.491,50.361 L271.491,51.388 L270.016,51.388 L270.016,52.627 C270.016,53.323 269.626,53.677 268.859,53.677 L267.997,53.677 L267.726,52.674 C268.021,52.698 268.292,52.721 268.54,52.721 C268.788,52.721 268.918,52.556 268.918,52.237 L268.918,51.387 L264.162,51.387 C263.972,52.367 263.477,53.193 262.675,53.854 L261.813,53.087 C262.463,52.615 262.875,52.048 263.053,51.387 L261.447,51.387 L261.447,50.361 L261.447,50.36 Z M268.917,50.36 L268.917,48.708 L265.956,48.708 C266.593,49.028 267.136,49.381 267.608,49.771 L267.112,50.361 L268.918,50.361 L268.917,50.36 Z M265.92,48.708 L264.256,48.708 L264.256,50.361 L266.817,50.361 C266.37193,49.970593 265.885349,49.6302213 265.366,49.346 L265.92,48.708 Z M265.566,51.423 C266.298,51.813 266.936,52.237 267.466,52.709 L266.806,53.5 C266.333,53.004 265.72,52.556 264.976,52.131 L265.566,51.423 Z M270.57,54.019 L270.57,56.651 L271.798,56.651 L271.798,57.654 L261.117,57.654 L261.117,56.651 L262.273,56.651 L262.273,54.019 L270.57,54.019 Z M263.36,56.651 L264.657,56.651 L264.657,55.034 L263.359,55.034 L263.359,56.651 L263.36,56.651 Z M265.731,56.651 L267.065,56.651 L267.065,55.034 L265.731,55.034 L265.731,56.651 Z M268.151,56.651 L269.484,56.651 L269.484,55.034 L268.151,55.034 L268.151,56.651 Z M279.469,46.974 L280.579,47.127 C280.555,47.446 280.519,47.753 280.496,48.059 L283.316,48.059 L283.316,49.074 L280.378,49.074 C280.33,49.358 280.295,49.617 280.26,49.877 L282.585,49.877 L282.585,56.58 L283.659,56.58 L283.659,57.595 L275.858,57.595 L275.858,56.58 L277.026,56.58 L277.026,49.877 L279.162,49.877 C279.208163,49.6108747 279.243526,49.3429884 279.268,49.074 L276.365,49.074 L276.365,48.059 L279.386,48.059 C279.41,47.693 279.446,47.328 279.469,46.974 Z M278.099,56.58 L281.511,56.58 L281.511,55.79 L278.1,55.79 L278.1,56.58 L278.099,56.58 Z M278.099,54.905 L281.511,54.905 L281.511,54.149 L278.1,54.149 L278.1,54.905 L278.099,54.905 Z M278.099,53.252 L281.511,53.252 L281.511,52.509 L278.1,52.509 L278.1,53.252 L278.099,53.252 Z M278.099,51.624 L281.511,51.624 L281.511,50.88 L278.1,50.88 L278.1,51.624 L278.099,51.624 Z M274.311,51.458 C273.957,51.954 273.58,52.438 273.178,52.898 L272.813,51.706 C273.91,50.361 274.713,48.779 275.22,46.986 L276.235,47.457 C276.014238,48.1983744 275.733995,48.9207199 275.397,49.617 L275.397,57.937 L274.311,57.937 L274.311,51.458 Z" id="Shape" fill="#2A3052" fill-rule="nonzero"></path>
            <path d="M15.844,19.814 L15.49,18.776 C15.691,18.693 15.797,18.563 15.797,18.398 L15.797,12.168 L17.001,12.168 L17.001,18.339 C17.449,18.198 17.897,18.044 18.334,17.879 L18.334,11.177 L19.549,11.177 L19.549,16.003 C20.469,14.764 21.083,13.123 21.402,11.094 L22.641,11.307 C22.546,11.826 22.441,12.321 22.322,12.782 L25.968,12.782 L25.968,13.997 L25.071,13.997 C24.977,15.814 24.529,17.372 23.738,18.693 C24.47,19.59 25.319,20.404 26.287,21.123 L25.437,22.127 C24.5320871,21.4314986 23.7088424,20.6357624 22.983,19.755 C22.228,20.652 21.272,21.419 20.116,22.032 L19.549,21.112 L19.549,21.962 L18.334,21.962 L18.334,19.059 C17.532,19.342 16.706,19.589 15.844,19.814 Z M21.944,13.997 C21.827,14.304 21.709,14.599 21.591,14.882 C21.956,15.873 22.417,16.793 22.959,17.619 C23.502,16.581 23.821,15.366 23.903,13.997 L21.945,13.997 L21.944,13.997 Z M20.871,16.203 C20.682,16.487 20.481,16.746 20.281,16.983 L19.549,16.073 L19.549,20.829 C20.659,20.286 21.555,19.589 22.228,18.74 C21.6908396,17.9425177 21.2361675,17.0924785 20.871,16.203 Z M27.573,14.41 L29.26,14.41 L29.26,11.755 L31.608,11.755 C31.738,11.507 31.844,11.26 31.915,11 L33.154,11.165 C33.084,11.378 32.989,11.566 32.871,11.755 L36.198,11.755 L36.198,14.41 L37.638,14.41 L37.638,15.543 L36.198,15.543 L36.198,16.699 C36.198,17.431 35.785,17.796 34.971,17.796 L34.133,17.796 L33.826,16.699 C34.121,16.723 34.393,16.746 34.629,16.746 C34.865,16.746 34.983,16.581 34.983,16.262 L34.983,15.542 L31.82,15.542 C32.516,15.92 33.117,16.322 33.625,16.758 L32.905,17.631 C32.433,17.136 31.831,16.687 31.088,16.262 L31.702,15.542 L30.345,15.542 C30.145,16.51 29.649,17.324 28.858,17.985 L27.914,17.135 C28.528,16.687 28.941,16.156 29.129,15.543 L27.572,15.543 L27.572,14.41 L27.573,14.41 Z M34.983,14.41 L34.983,12.864 L32.269,12.864 C32.7999421,13.1301957 33.3019436,13.4505651 33.767,13.82 L33.284,14.41 L34.983,14.41 Z M32.009,12.864 L30.452,12.864 L30.452,14.41 L32.824,14.41 C32.4103118,14.0550538 31.9589474,13.7465432 31.478,13.49 L32.009,12.864 Z M36.741,18.08 L36.741,20.687 L37.944,20.687 L37.944,21.785 L27.242,21.785 L27.242,20.686 L28.363,20.686 L28.363,18.079 L36.741,18.079 L36.741,18.08 Z M29.555,20.687 L30.735,20.687 L30.735,19.189 L29.555,19.189 L29.555,20.687 Z M31.927,20.687 L33.142,20.687 L33.142,19.189 L31.927,19.189 L31.927,20.687 Z M34.334,20.687 L35.549,20.687 L35.549,19.189 L34.334,19.189 L34.334,20.687 Z M45.544,11.059 L46.77,11.224 L46.7,12.121 L49.46,12.121 L49.46,13.23 L46.57,13.23 L46.463,13.938 L48.741,13.938 L48.741,20.605 L49.803,20.605 L49.803,21.737 L41.98,21.737 L41.98,20.606 L43.136,20.606 L43.136,13.939 L45.236,13.939 L45.343,13.231 L42.487,13.231 L42.487,12.121 L45.461,12.121 C45.484,11.756 45.52,11.402 45.543,11.06 L45.544,11.059 Z M44.304,20.605 L47.573,20.605 L47.573,19.92 L44.304,19.92 L44.304,20.605 Z M44.304,18.953 L47.573,18.953 L47.573,18.292 L44.304,18.292 L44.304,18.952 L44.304,18.953 Z M44.304,17.324 L47.573,17.324 L47.573,16.664 L44.304,16.664 L44.304,17.324 Z M44.304,15.696 L47.573,15.696 L47.573,15.047 L44.304,15.047 L44.304,15.697 L44.304,15.696 Z M40.387,15.743 C40.057,16.192 39.714,16.64 39.337,17.065 L38.936,15.743 C39.997,14.422 40.788,12.864 41.296,11.071 L42.405,11.59 C42.18,12.321 41.909,13.03 41.59,13.702 L41.59,22.068 L40.387,22.068 L40.387,15.743 Z M50.853,17.206 L56.811,17.206 L56.811,18.316 L50.853,18.316 L50.853,17.206 Z M58.074,15.637 L68.552,15.637 L68.552,16.605 L63.348,16.605 L63.348,20.026 C63.561,19.991 63.761,19.956 63.95,19.932 L63.95,20.864 C63.761,20.9 63.56,20.935 63.348,20.982 L63.348,22.092 L62.168,22.092 L62.168,21.147 C61.13,21.277 59.808,21.395 58.228,21.513 L58.074,20.475 L59.065,20.428 L59.065,16.605 L58.074,16.605 L58.074,15.637 Z M60.186,20.357 C60.8481531,20.3160321 61.5090656,20.2570102 62.168,20.18 L62.168,19.625 L60.186,19.625 L60.186,20.357 Z M60.186,18.752 L62.168,18.752 L62.168,18.103 L60.186,18.103 L60.186,18.753 L60.186,18.752 Z M60.186,17.23 L62.168,17.23 L62.168,16.605 L60.186,16.605 L60.186,17.23 Z M59.431,11.472 L67.254,11.472 L67.254,15.118 L59.43,15.118 L59.43,11.472 L59.431,11.472 Z M66.074,14.268 L66.074,13.714 L60.599,13.714 L60.599,14.268 L66.074,14.268 Z M60.599,12.888 L66.074,12.888 L66.074,12.356 L60.599,12.356 L60.599,12.886 L60.599,12.888 Z M64.162,18.127 L63.797,18.127 L63.797,17.136 L67.95,17.136 L67.95,18.068 C67.7784569,18.8535092 67.426895,19.5884686 66.923,20.215 C67.395,20.545 67.962,20.829 68.611,21.088 L67.985,22.103 C67.277,21.773 66.664,21.407 66.156,21.006 C65.637,21.431 65.012,21.796 64.292,22.103 L63.667,21.159 C64.2612323,20.9300936 64.8211481,20.6205248 65.331,20.239 C64.7750204,19.640801 64.3737053,18.9157561 64.162,18.127 Z M66.074,19.507 C66.416,19.082 66.676,18.622 66.841,18.127 L65.213,18.127 C65.39,18.634 65.673,19.094 66.073,19.507 L66.074,19.507 Z M74.546,16.51 L74.546,20.168 C74.806,20.05 75.065,19.932 75.325,19.802 L75.525,20.864 C74.853,21.124 74.074,21.407 73.177,21.702 L72.858,20.652 C73.188,20.546 73.354,20.333 73.354,20.026 L73.354,12.498 C75.82,12.133 77.779,11.72 79.23,11.248 L79.903,12.228 C79.2374665,12.4409396 78.5643475,12.6293996 77.885,12.793 C77.897,13.773 77.932,14.623 77.979,15.343 L80.316,15.343 L80.316,16.51 L78.074,16.51 C78.109,16.935 78.156,17.289 78.227,17.596 C78.416,18.622 78.617,19.354 78.841,19.79 C79.053,20.239 79.218,20.475 79.313,20.475 C79.395,20.475 79.49,19.885 79.584,18.717 L80.599,19.271 C80.363,21.029 79.997,21.914 79.513,21.914 C79.113,21.914 78.699,21.596 78.263,20.982 C77.826,20.369 77.46,19.389 77.153,18.068 C77.0395132,17.5534999 76.9527304,17.033471 76.893,16.51 L74.546,16.51 Z M76.693,13.053 C76.033,13.183 75.313,13.313 74.546,13.431 L74.546,15.342 L76.788,15.342 C76.7364616,14.5799544 76.7047842,13.8166955 76.693,13.053 Z M76.422,19.271 C77.059,20.074 77.542,20.793 77.885,21.407 L76.965,22.044 C76.5464629,21.2947964 76.0857213,20.569963 75.585,19.873 L76.422,19.271 Z M72.151,11.071 L73.271,11.601 C72.9926029,12.4613325 72.6291394,13.2917713 72.186,14.08 L72.186,22.068 L70.982,22.068 L70.982,15.873 C70.664,16.274 70.322,16.663 69.968,17.041 L69.566,15.743 C70.723,14.422 71.584,12.864 72.151,11.071 Z M88.08,11.059 L89.307,11.224 L89.236,12.121 L91.996,12.121 L91.996,13.23 L89.106,13.23 L89,13.938 L91.277,13.938 L91.277,20.605 L92.339,20.605 L92.339,21.737 L84.516,21.737 L84.516,20.606 L85.673,20.606 L85.673,13.939 L87.773,13.939 L87.879,13.231 L85.024,13.231 L85.024,12.121 L87.997,12.121 C88.021,11.756 88.056,11.402 88.08,11.06 L88.08,11.059 Z M86.84,20.605 L90.109,20.605 L90.109,19.92 L86.841,19.92 L86.841,20.605 L86.84,20.605 Z M86.84,18.953 L90.109,18.953 L90.109,18.292 L86.841,18.292 L86.841,18.952 L86.84,18.953 Z M86.84,17.324 L90.109,17.324 L90.109,16.664 L86.841,16.664 L86.841,17.324 L86.84,17.324 Z M86.84,15.696 L90.109,15.696 L90.109,15.047 L86.841,15.047 L86.841,15.697 L86.84,15.696 Z M82.923,15.743 C82.593,16.192 82.251,16.64 81.873,17.065 L81.472,15.743 C82.534,14.422 83.324,12.864 83.832,11.071 L84.941,11.59 C84.717,12.321 84.445,13.03 84.127,13.702 L84.127,22.068 L82.923,22.068 L82.923,15.743 Z" id="Shape" fill="#020202" fill-rule="nonzero"></path>
            <path d="M154.007,182.622 L161.738,182.622 L161.738,183.386 L157.916,183.386 L157.916,187.382 L157.03,187.382 L157.03,186.678 C156.352,186.783 155.388,186.878 154.129,186.974 L154.016,186.209 L154.728,186.175 L154.728,183.386 L154.007,183.386 L154.007,182.622 Z M155.588,186.114 C156.069728,186.075623 156.55052,186.026277 157.03,185.966 L157.03,185.584 L155.588,185.584 L155.588,186.114 Z M155.588,184.941 L157.03,184.941 L157.03,184.463 L155.588,184.463 L155.588,184.941 Z M155.588,183.821 L157.03,183.821 L157.03,183.386 L155.588,183.386 L155.588,183.82 L155.588,183.821 Z M158.507,184.481 L158.22,184.481 L158.22,183.734 L161.278,183.734 L161.278,184.437 C161.138,185.027 160.878,185.549 160.513,186.001 C160.869,186.244 161.286,186.47 161.773,186.661 L161.313,187.417 C160.822757,187.187634 160.359292,186.904927 159.931,186.574 C159.514,186.904 159.011,187.182 158.437,187.408 L157.977,186.704 C158.497,186.504 158.95,186.27 159.323,185.992 C158.938973,185.557401 158.659808,185.040466 158.507,184.481 Z M159.887,185.462 C160.137917,185.173715 160.332608,184.840976 160.461,184.481 L159.28,184.481 C159.401,184.837 159.61,185.167 159.888,185.462 L159.887,185.462 Z M160.747,179.582 L160.747,182.274 L159.862,182.274 L159.862,180.259 L155.918,180.259 L155.918,182.3 L155.041,182.3 L155.041,179.581 L160.748,179.581 L160.747,179.582 Z M156.196,180.659 L159.592,180.659 L159.592,181.258 L156.196,181.258 L156.196,180.658 L156.196,180.659 Z M156.179,181.605 L159.609,181.605 L159.609,182.196 L156.179,182.196 L156.179,181.606 L156.179,181.605 Z M164.379,179.286 L165.204,179.677 C164.995,180.311 164.734,180.919 164.404,181.501 L164.404,187.381 L163.519,187.381 L163.519,182.821 C163.284,183.117 163.032,183.404 162.772,183.681 L162.476,182.726 C163.328,181.753 163.962,180.606 164.379,179.286 Z M166.142,183.091 L166.142,184.976 C166.612,184.836 167.072,184.68 167.515,184.516 L167.671,185.306 C166.959,185.54 166.116,185.784 165.161,186.044 L164.935,185.28 C165.152,185.176 165.265,184.976 165.265,184.68 L165.265,180.085 C167.106,179.877 168.565,179.642 169.651,179.382 L170.155,180.102 C169.747,180.207 169.269,180.312 168.731,180.415 C168.731,181.093 168.739,181.692 168.757,182.222 L170.312,182.222 L170.312,183.091 L168.792,183.091 C168.844,184.151 168.922,184.881 169.043,185.28 C169.208,185.897 169.4,186.235 169.617,186.287 C169.73,186.261 169.834,185.81 169.921,184.941 L170.641,185.436 C170.468,186.635 170.138,187.234 169.651,187.234 C169.365,187.234 169.104,187.095 168.87,186.826 C168.557,186.452 168.331,185.966 168.192,185.358 C168.079,184.906 168.001,184.151 167.958,183.091 L166.142,183.091 Z M167.922,182.222 C167.904429,181.666177 167.896095,181.1101 167.897,180.554 C167.358,180.633 166.777,180.711 166.142,180.789 L166.142,182.222 L167.922,182.222 Z M165.282,186.366 L168.166,186.366 L168.166,187.208 L165.282,187.208 L165.282,186.366 Z M176.106,179.277 L177.009,179.399 L176.957,180.059 L178.989,180.059 L178.989,180.876 L176.861,180.876 L176.783,181.396 L178.46,181.396 L178.46,186.305 L179.241,186.305 L179.241,187.139 L173.482,187.139 L173.482,186.305 L174.333,186.305 L174.333,181.397 L175.88,181.397 L175.958,180.876 L173.856,180.876 L173.856,180.059 L176.045,180.059 C176.062,179.789 176.088,179.529 176.105,179.277 L176.106,179.277 Z M175.193,186.305 L177.6,186.305 L177.6,185.801 L175.193,185.801 L175.193,186.305 Z M175.193,185.089 L177.6,185.089 L177.6,184.602 L175.193,184.602 L175.193,185.089 Z M175.193,183.889 L177.6,183.889 L177.6,183.404 L175.193,183.404 L175.193,183.89 L175.193,183.889 Z M175.193,182.691 L177.6,182.691 L177.6,182.213 L175.193,182.213 L175.193,182.691 Z M172.31,182.726 C172.066,183.056 171.814,183.386 171.536,183.699 L171.241,182.726 C172.023,181.753 172.605,180.606 172.978,179.286 L173.795,179.668 C173.63,180.207 173.43,180.728 173.195,181.223 L173.195,187.382 L172.31,187.382 L172.31,182.726 Z" id="Shape" fill="#2A3052" fill-rule="nonzero"></path>
            <g id="Group" transform="translate(12.000000, 127.156000)" fill="#2A3052" fill-rule="nonzero">
                <path d="M13.35,0.311 L14.253,0.413 L13.881,2.736 C14.001,2.744 14.619,2.744 15.736,2.736 C15.768,4.441 15.416,6.986 14.698,8.449 C15.469,9.277 15.954,9.84 16.153,10.137 L15.552,10.807 L14.316,9.332 C13.596,10.514 12.969,11.337 12.436,11.802 C12.346,11.674 12.164,11.442 11.886,11.105 C12.584,10.359 13.273,9.597 13.683,8.702 L12.091,7.116 L12.891,3.581 L11.887,3.581 L11.887,2.736 L13.013,2.736 L13.35,0.311 Z M14.918,3.587 L13.778,3.587 C13.5691809,4.67373591 13.3247157,5.7533182 13.045,6.824 C13.468,7.236 13.808,7.57 14.065,7.826 C14.5,6.896 14.918,4.249 14.918,3.586 L14.918,3.587 Z M18.877,0.327 L19.708,0.612 C18.753,2.594 18.012,3.879 17.484,4.469 C19.892,4.259 21.217,4.114 21.46,4.031 C20.87,2.912 20.528,2.286 20.433,2.151 L21.209,1.775 C22.047,3.217 22.685,4.409 23.124,5.352 L22.28,5.777 L21.841,4.808 C18.798,5.158 16.956,5.34 16.316,5.352 C16.268,5.039 16.221,4.763 16.176,4.526 C16.896,4.129 17.796,2.73 18.877,0.327 Z M21.576,11.802 L21.576,11.036 L17.754,11.036 L17.754,11.802 L16.876,11.802 L16.876,6.491 L22.424,6.491 L22.424,11.802 L21.576,11.802 Z M21.57,7.309 L17.775,7.309 L17.775,10.169 L21.57,10.169 L21.57,7.309 Z M0.982,1.825 L0.982,1.185 L10.562,1.185 L10.562,1.825 L8.738,1.825 L8.738,5.218 L11.35,5.218 L11.35,6.204 L8.738,6.204 L8.738,11.55 L7.722,11.55 L7.722,6.204 L4.098,6.196 C3.826,10.76 1.387,11.55 1.082,11.75 C0.890260787,11.5044883 0.713922731,11.2473287 0.554,10.98 C1.744,10.067 3.096,9.05 3.096,6.196 C2.08,6.201 0.946,6.223 0.279,6.204 L0.279,5.218 L3.096,5.218 L3.096,1.825 L0.982,1.825 Z M7.696,2.004 L4.197,2.004 L4.197,5.196 L7.697,5.196 L7.697,2.004 L7.696,2.004 Z" id="Shape"></path>
            </g>
        </g>
    </g>
</svg>