<?xml version="1.0" encoding="UTF-8"?>
<svg width="299px" height="197px" viewBox="0 0 299 197" version="1.1" xmlns="http://www.w3.org/2000/svg" xmlns:xlink="http://www.w3.org/1999/xlink">
    <!-- Generator: Sketch 53.1 (72631) - https://sketchapp.com -->
    <title>differs</title>
    <desc>Created with Sketch.</desc>
    <g id="Page-1" stroke="none" stroke-width="1" fill="none" fill-rule="evenodd">
        <g id="differs" fill-rule="nonzero">
            <polygon id="Path" fill="#F1F1F2" points="0 0 299 0 299 197 0 197"></polygon>
            <path d="M1.98671096,1.9798995 L1.98671096,195.020101 L297.013289,195.020101 L297.013289,1.9798995 L1.98671096,1.9798995 Z M299,0 L299,197 L0,197 L0,0 L299,0 Z" id="Path" fill="#C2C2C2"></path>
            <path d="M5.006734,55.1610127 L5.006734,53.953698 L295.006734,53.953698 L295.006734,55.1610127 L5.006734,55.1610127 Z M5.006734,75.4589619 L5.006734,74.2516472 L295.006734,74.2516472 L295.006734,75.4589619 L5.006734,75.4589619 Z M5.006734,136.386168 L5.006734,135.178853 L295.006734,135.178853 L295.006734,136.386168 L5.006734,136.386168 Z M5.006734,156.683106 L5.006734,155.475791 L295.006734,155.475791 L295.006734,156.683106 L5.006734,156.683106 Z M5.006734,176.982065 L5.006734,175.774751 L295.006734,175.774751 L295.006734,176.982065 L5.006734,176.982065 Z M39.437378,34.260417 L40.6466508,34.260417 L40.6466508,194.260417 L39.437378,194.260417 L39.437378,34.260417 Z M76.1367396,34.260417 L77.3460124,34.260417 L77.3460124,194.260417 L76.1367396,194.260417 L76.1367396,34.260417 Z M112.835106,34.260417 L114.044378,34.260417 L114.044378,194.260417 L112.835106,194.260417 L112.835106,34.260417 Z M149.496648,34.260417 L150.70592,34.260417 L150.70592,194.260417 L149.496648,194.260417 L149.496648,34.260417 Z M186.195014,34.260417 L187.404287,34.260417 L187.404287,194.260417 L186.195014,194.260417 L186.195014,34.260417 Z M222.894375,34.260417 L224.103648,34.260417 L224.103648,194.260417 L222.894375,194.260417 L222.894375,34.260417 Z M259.592742,34.260417 L260.802015,34.260417 L260.802015,194.260417 L259.592742,194.260417 L259.592742,34.260417 Z M5.006734,116.09024 L5.006734,114.882925 L295.006734,114.882925 L295.006734,116.09024 L5.006734,116.09024 Z" id="Shape" fill="#DEDEDD"></path>
            <polygon id="Path" fill="#293052" points="3.60706375 97.1320967 3.60706375 95.9129921 5.4361812 95.9129921 5.4361812 97.1320967"></polygon>
            <path d="M9.09341274,97.1320967 L9.09341274,95.9129921 L12.7517296,95.9129921 L12.7517296,97.1320967 L9.09341274,97.1320967 Z M16.4100464,97.1320967 L16.4100464,95.9129921 L20.0683633,95.9129921 L20.0683633,97.1320967 L16.4100464,97.1320967 Z M23.7266801,97.1320967 L23.7266801,95.9129921 L27.384997,95.9129921 L27.384997,97.1320967 L23.7266801,97.1320967 Z M31.0433138,97.1320967 L31.0433138,95.9129921 L34.7016307,95.9129921 L34.7016307,97.1320967 L31.0433138,97.1320967 Z M38.3599475,97.1320967 L38.3599475,95.9129921 L42.0182644,95.9129921 L42.0182644,97.1320967 L38.3599475,97.1320967 Z M45.6765812,97.1320967 L45.6765812,95.9129921 L49.3348981,95.9129921 L49.3348981,97.1320967 L45.6765812,97.1320967 Z M52.9932149,97.1320967 L52.9932149,95.9129921 L56.6515318,95.9129921 L56.6515318,97.1320967 L52.9932149,97.1320967 Z M60.3098486,97.1320967 L60.3098486,95.9129921 L63.9681655,95.9129921 L63.9681655,97.1320967 L60.3098486,97.1320967 Z M67.6264824,97.1320967 L67.6264824,95.9129921 L71.2847992,95.9129921 L71.2847992,97.1320967 L67.6264824,97.1320967 Z M74.9431161,97.1320967 L74.9431161,95.9129921 L78.6014329,95.9129921 L78.6014329,97.1320967 L74.9431161,97.1320967 Z M82.2597498,97.1320967 L82.2597498,95.9129921 L85.9180666,95.9129921 L85.9180666,97.1320967 L82.2597498,97.1320967 Z M89.5763835,97.1320967 L89.5763835,95.9129921 L93.2347003,95.9129921 L93.2347003,97.1320967 L89.5763835,97.1320967 Z M96.8930172,97.1320967 L96.8930172,95.9129921 L100.551334,95.9129921 L100.551334,97.1320967 L96.8930172,97.1320967 Z M104.209651,97.1320967 L104.209651,95.9129921 L107.867968,95.9129921 L107.867968,97.1320967 L104.209651,97.1320967 Z M111.526285,97.1320967 L111.526285,95.9129921 L115.184601,95.9129921 L115.184601,97.1320967 L111.526285,97.1320967 Z M118.842918,97.1320967 L118.842918,95.9129921 L122.501235,95.9129921 L122.501235,97.1320967 L118.842918,97.1320967 Z M126.159552,97.1320967 L126.159552,95.9129921 L129.817869,95.9129921 L129.817869,97.1320967 L126.159552,97.1320967 Z M133.476186,97.1320967 L133.476186,95.9129921 L137.134503,95.9129921 L137.134503,97.1320967 L133.476186,97.1320967 Z M140.792819,97.1320967 L140.792819,95.9129921 L144.451136,95.9129921 L144.451136,97.1320967 L140.792819,97.1320967 Z M148.109453,97.1320967 L148.109453,95.9129921 L151.76777,95.9129921 L151.76777,97.1320967 L148.109453,97.1320967 Z M155.426087,97.1320967 L155.426087,95.9129921 L159.084404,95.9129921 L159.084404,97.1320967 L155.426087,97.1320967 Z M162.74272,97.1320967 L162.74272,95.9129921 L166.401037,95.9129921 L166.401037,97.1320967 L162.74272,97.1320967 Z M170.059354,97.1320967 L170.059354,95.9129921 L173.717671,95.9129921 L173.717671,97.1320967 L170.059354,97.1320967 Z M177.375988,97.1320967 L177.375988,95.9129921 L181.034305,95.9129921 L181.034305,97.1320967 L177.375988,97.1320967 Z M184.692622,97.1320967 L184.692622,95.9129921 L188.350938,95.9129921 L188.350938,97.1320967 L184.692622,97.1320967 Z M192.009255,97.1320967 L192.009255,95.9129921 L195.667572,95.9129921 L195.667572,97.1320967 L192.009255,97.1320967 Z M199.325889,97.1320967 L199.325889,95.9129921 L202.984206,95.9129921 L202.984206,97.1320967 L199.325889,97.1320967 Z M206.642523,97.1320967 L206.642523,95.9129921 L210.30084,95.9129921 L210.30084,97.1320967 L206.642523,97.1320967 Z M213.959156,97.1320967 L213.959156,95.9129921 L217.617473,95.9129921 L217.617473,97.1320967 L213.959156,97.1320967 Z M221.27579,97.1320967 L221.27579,95.9129921 L224.934107,95.9129921 L224.934107,97.1320967 L221.27579,97.1320967 Z M228.592424,97.1320967 L228.592424,95.9129921 L232.250741,95.9129921 L232.250741,97.1320967 L228.592424,97.1320967 Z M235.909057,97.1320967 L235.909057,95.9129921 L239.567374,95.9129921 L239.567374,97.1320967 L235.909057,97.1320967 Z M243.225691,97.1320967 L243.225691,95.9129921 L246.884008,95.9129921 L246.884008,97.1320967 L243.225691,97.1320967 Z M250.542325,97.1320967 L250.542325,95.9129921 L254.200642,95.9129921 L254.200642,97.1320967 L250.542325,97.1320967 Z M257.858959,97.1320967 L257.858959,95.9129921 L261.517275,95.9129921 L261.517275,97.1320967 L257.858959,97.1320967 Z M265.175592,97.1320967 L265.175592,95.9129921 L268.833909,95.9129921 L268.833909,97.1320967 L265.175592,97.1320967 Z M272.492226,97.1320967 L272.492226,95.9129921 L276.150543,95.9129921 L276.150543,97.1320967 L272.492226,97.1320967 Z M279.80886,97.1320967 L279.80886,95.9129921 L283.467177,95.9129921 L283.467177,97.1320967 L279.80886,97.1320967 Z M287.125493,97.1320967 L287.125493,95.9129921 L290.78381,95.9129921 L290.78381,97.1320967 L287.125493,97.1320967 Z" id="Path" fill="#293052"></path>
            <polygon id="Path" fill="#293052" points="294.173859 97.1320967 294.173859 95.9129921 295.964849 95.9129921 295.964849 97.1320967"></polygon>
            <polygon id="Path" fill="#C2C2C2" points="1.00000031 30 1.00000031 28 297 28 297 30"></polygon>
            <path d="M222.578148,95.2605323 C223.275138,94.5438873 224.421115,94.5279539 225.13776,95.224944 C225.854405,95.9219341 225.870338,97.0679116 225.173348,97.7845565 L193.205432,130.653955 C192.643515,131.231719 191.767293,131.368367 191.056131,130.989143 L149.23658,108.689026 L106.750039,133.583086 C106.221112,133.893 105.571266,133.914138 105.023317,133.639254 L75.113283,118.634591 C74.9850265,118.57025 74.8648756,118.490886 74.7553606,118.398172 L37.7576224,87.0761923 C36.9946395,86.4302573 36.8997534,85.2881036 37.5456885,84.5251206 C38.1916235,83.7621377 39.3337772,83.6672516 40.0967602,84.3131867 L76.9296432,115.495601 L105.767997,129.962646 L148.279904,105.053722 C148.822661,104.735706 149.491606,104.722286 150.046681,105.018277 L191.5589,127.154511 L222.578148,95.2605323 Z" id="Path" fill="#293052"></path>
            <path d="M188.232113,145.497671 L152.950113,145.497671 L147.386506,137.260417 L142.052667,145.497671 L106.769663,145.497671 C105.508052,145.496045 104.297479,146.004336 103.404256,146.910725 C102.511033,147.817114 102.008329,149.047354 102.006734,150.330805 L102.006734,175.350826 C102.008329,176.634278 102.511033,177.864518 103.404256,178.770906 C104.297479,179.677295 105.508052,180.185586 106.769663,180.183961 L188.232113,180.183961 C189.514208,180.215382 190.754709,179.720157 191.673623,178.810064 C192.591325,177.900897 193.108789,176.652945 193.108422,175.349805 L193.108422,150.369593 C193.119006,149.060058 192.606223,147.802328 191.68767,146.884836 C190.767637,145.965927 189.521067,145.465147 188.232113,145.49665 L188.232113,145.497671 Z" id="Path" fill="#E88024"></path>
            <ellipse id="Oval" fill="#FFFFFF" opacity="0.6" cx="223.874745" cy="96.5225444" rx="8.19239933" ry="8.54653368"></ellipse>
            <path d="M223.875748,106.288183 C218.666106,106.288183 214.464244,101.904686 214.464244,96.5225444 C214.464244,91.1404028 218.666106,86.7569062 223.875748,86.7569062 C229.08539,86.7569062 233.287252,91.1404028 233.287252,96.5225444 C233.287252,101.904686 229.08539,106.288183 223.875748,106.288183 Z M223.875748,103.849973 C227.71518,103.849973 230.849043,100.580643 230.849043,96.5225444 C230.849043,92.4644456 227.71518,89.1951153 223.875748,89.1951153 C220.036316,89.1951153 216.902453,92.4644456 216.902453,96.5225444 C216.902453,100.580643 220.036316,103.849973 223.875748,103.849973 Z" id="Oval" fill="#E88024"></path>
            <polygon id="Path" fill="#E88024" points="246.926842 87.5126014 275.694054 87.5126014 275.694054 106.692031 246.927846 106.692031"></polygon>
            <path d="M260.719973,90.721762 C261.137789,90.6751563 261.559362,90.6751563 261.977178,90.721762 C262.368487,90.8156687 262.751768,90.9442801 263.121003,91.1086169 L262.701601,92.8877413 L261.710285,92.617249 L260.719973,92.617249 C260.036783,92.6045789 259.387516,92.9195203 258.967111,93.4675133 C258.493201,94.1396548 258.276647,94.9646118 258.358074,95.7876221 C258.649047,95.4946739 259.000221,95.2701143 259.386513,95.1302749 C259.838023,94.9638967 260.316624,94.8853009 260.796228,94.8985703 C261.769483,94.8556998 262.702604,95.2864459 263.310638,96.0581143 C263.944758,96.9145029 264.267839,97.9668708 264.225698,99.0355703 C264.264567,100.169093 263.852152,101.27061 263.081872,102.090601 C262.320496,102.903268 261.250489,103.34069 260.14806,103.289954 C258.968161,103.336694 257.827129,102.856421 257.024614,101.975259 C256.184462,100.963739 255.760991,99.6610925 255.842661,98.3394356 L255.842661,95.9427724 C255.759685,94.5168736 256.2555,93.1188015 257.214248,92.0752439 C258.144672,91.1441197 259.416568,90.6530694 260.719973,90.721762 Z M260.14806,96.7930366 C259.755221,96.7863085 259.365527,96.8653181 259.005238,97.0247413 C258.717469,97.1491897 258.467686,97.3497261 258.281819,97.605534 L258.281819,98.4170107 C258.230648,99.2029692 258.416268,99.9848449 258.814601,100.660565 C259.107581,101.143368 259.627319,101.436316 260.186188,101.433254 C260.673743,101.431234 261.123652,101.166251 261.368141,100.73712 C261.713295,100.239006 261.899919,99.6449433 261.900923,99.0355703 C261.931023,98.445591 261.770487,97.8617361 261.444396,97.3728086 C261.149623,96.9486337 260.657128,96.7136345 260.14806,96.754249 L260.14806,96.7930366 Z" id="Shape" fill="#FFFFFF"></path>
            <polygon id="Path" fill="#E88024" points="250.432567 97.1023164 247.079352 100.505415 241.859896 97.1023164 247.079352 93.7380055"></polygon>
            <path d="M175,15.174 L186.466,15.174 L186.466,15.928 L180.629,15.928 L180.629,20.036 C180.889,19.997 181.149,19.958 181.383,19.919 L181.383,20.66 C181.149,20.699 180.889,20.738 180.629,20.79 L180.629,22.051 L179.719,22.051 L179.719,20.907 C178.484,21.05 176.963,21.18 175.156,21.284 L175.039,20.478 L176.248,20.426 L176.248,15.928 L175,15.928 L175,15.174 Z M177.093,20.387 C178.055,20.322 178.939,20.244 179.719,20.153 L179.719,19.269 L177.093,19.269 L177.093,20.387 Z M177.093,18.58 L179.719,18.58 L179.719,17.605 L177.093,17.605 L177.093,18.58 Z M177.093,16.903 L179.719,16.903 L179.719,15.928 L177.093,15.928 L177.093,16.903 Z M176.651,10.572 L184.867,10.572 L184.867,14.316 L176.651,14.316 L176.651,10.572 Z M183.97,13.64 L183.97,12.769 L177.548,12.769 L177.548,13.64 L183.97,13.64 Z M177.548,12.106 L183.97,12.106 L183.97,11.274 L177.548,11.274 L177.548,12.106 Z M181.721,17.566 L181.305,17.566 L181.305,16.799 L185.738,16.799 L185.738,17.527 C185.491,18.528 185.049,19.386 184.425,20.114 C184.997,20.543 185.673,20.92 186.479,21.258 L185.998,22.038 C185.14,21.635 184.412,21.193 183.827,20.712 C183.229,21.232 182.501,21.674 181.656,22.038 L181.175,21.31 C181.955,20.972 182.631,20.582 183.19,20.114 C182.462,19.36 181.981,18.515 181.721,17.566 Z M183.762,19.555 C184.282,18.957 184.659,18.294 184.893,17.566 L182.527,17.566 C182.761,18.307 183.164,18.97 183.762,19.555 Z M190.184,14.693 L190.184,15.031 C190.106,17.943 189.508,20.257 188.416,21.986 L187.727,21.271 C188.676,19.763 189.183,17.683 189.261,15.031 L189.261,11.131 C192.615,11.092 195.618,10.793 198.296,10.234 L198.764,11.079 C196.216,11.599 193.356,11.885 190.184,11.963 L190.184,13.783 L199.544,13.783 L199.544,14.693 L190.184,14.693 Z M198.517,16.513 L198.517,22.025 L197.581,22.025 L197.581,21.414 L192.316,21.414 L192.316,22.025 L191.38,22.025 L191.38,16.513 L198.517,16.513 Z M192.316,20.504 L197.581,20.504 L197.581,17.41 L192.316,17.41 L192.316,20.504 Z M208.774,12.99 L208.605,13.666 C208.93,15.187 209.346,16.5 209.866,17.592 C210.373,16.279 210.646,14.745 210.698,12.99 L208.774,12.99 Z M209.437,18.528 C208.93,17.527 208.501,16.383 208.15,15.083 C207.916,15.681 207.656,16.214 207.383,16.682 L206.798,15.967 C207.565,14.511 208.085,12.548 208.345,10.078 L209.255,10.234 C209.177,10.897 209.073,11.521 208.969,12.093 L212.401,12.093 L212.401,12.99 L211.556,12.99 C211.491,15.161 211.088,17.02 210.36,18.554 C211.036,19.724 211.829,20.621 212.765,21.258 L212.258,22.025 C211.348,21.375 210.568,20.491 209.918,19.399 C209.294,20.439 208.488,21.31 207.513,22.012 L207.032,21.232 C208.046,20.53 208.839,19.633 209.437,18.528 Z M203.275,16.149 L204.146,16.253 C204.055,16.5 203.964,16.734 203.886,16.968 L206.603,16.968 L206.603,17.735 C206.317,18.593 205.836,19.334 205.16,19.958 C205.784,20.244 206.382,20.53 206.954,20.842 L206.447,21.57 C205.875,21.232 205.212,20.881 204.445,20.543 C203.587,21.141 202.508,21.622 201.208,21.986 L200.766,21.206 C201.832,20.92 202.755,20.569 203.509,20.14 C202.937,19.893 202.339,19.646 201.702,19.412 C202.04,18.84 202.339,18.307 202.599,17.787 L201.065,17.787 L201.065,16.968 L202.963,16.968 C203.08,16.682 203.184,16.409 203.275,16.149 Z M204.302,19.594 C204.952,19.074 205.446,18.463 205.758,17.787 L203.522,17.787 C203.314,18.229 203.08,18.645 202.82,19.035 C203.34,19.217 203.834,19.399 204.302,19.594 Z M202.092,10.351 C202.404,10.858 202.664,11.404 202.898,11.976 L202.222,12.288 C201.949,11.651 201.663,11.092 201.351,10.598 L202.092,10.351 Z M206.044,10.312 L206.72,10.624 C206.46,11.196 206.135,11.755 205.719,12.301 L205.056,11.963 C205.472,11.404 205.81,10.858 206.044,10.312 Z M201.091,12.6 L203.626,12.6 L203.626,10.117 L204.497,10.117 L204.497,12.6 L206.863,12.6 L206.863,13.419 L204.497,13.419 L204.497,13.562 C205.199,13.913 205.927,14.316 206.655,14.758 L206.174,15.486 C205.524,14.966 204.965,14.55 204.497,14.238 L204.497,15.928 L203.626,15.928 L203.626,13.458 C203.197,14.485 202.417,15.369 201.299,16.123 L200.844,15.369 C201.845,14.784 202.547,14.134 202.937,13.419 L201.091,13.419 L201.091,12.6 Z M225.232,11.443 L225.232,14.342 L224.296,14.342 L224.296,12.34 L215.144,12.34 L215.144,14.342 L214.208,14.342 L214.208,11.443 L219.317,11.443 C219.135,10.975 218.94,10.559 218.732,10.182 L219.798,10 C219.98,10.429 220.162,10.91 220.331,11.443 L225.232,11.443 Z M216.21,13.744 L223.191,13.744 L223.191,14.615 C222.346,15.213 221.397,15.785 220.357,16.357 L220.357,17.228 L225.479,17.228 L225.479,18.138 L220.357,18.138 L220.357,20.894 C220.357,21.609 219.98,21.973 219.226,21.973 L217.627,21.973 L217.406,21.115 C217.861,21.128 218.355,21.141 218.901,21.141 C219.239,21.141 219.408,20.946 219.408,20.569 L219.408,18.138 L213.974,18.138 L213.974,17.228 L219.408,17.228 L219.408,15.954 C220.461,15.408 221.254,14.953 221.787,14.615 L216.21,14.615 L216.21,13.744 Z M231.472,12.353 L231.472,21.219 L230.562,21.219 L230.562,20.478 L228.196,20.478 L228.196,21.596 L227.286,21.596 L227.286,12.353 L228.495,12.353 C228.755,11.625 228.937,10.871 229.054,10.091 L229.99,10.221 C229.834,10.988 229.639,11.703 229.379,12.353 L231.472,12.353 Z M228.196,19.607 L230.562,19.607 L230.562,16.76 L228.196,16.76 L228.196,19.607 Z M228.196,15.915 L230.562,15.915 L230.562,13.237 L228.196,13.237 L228.196,15.915 Z M233.734,15.369 C234.67,16.448 235.372,17.397 235.866,18.203 L235.125,18.723 C234.592,17.865 233.877,16.903 232.98,15.837 L233.734,15.369 Z M238.193,12.366 C238.193,16.682 238.128,19.36 237.998,20.374 C237.868,21.362 237.27,21.869 236.178,21.869 C235.918,21.869 235.476,21.843 234.852,21.817 L234.631,20.959 C235.177,20.985 235.645,20.998 236.048,20.998 C236.659,20.998 237.01,20.66 237.114,19.997 C237.192,19.269 237.244,17.02 237.27,13.276 L233.695,13.276 C233.331,14.095 232.902,14.836 232.395,15.499 L231.836,14.758 C232.746,13.484 233.357,11.924 233.695,10.078 L234.618,10.195 C234.462,10.962 234.28,11.69 234.046,12.366 L238.193,12.366 Z M245.174,10.637 L251.622,10.637 L251.622,11.521 L248.983,11.521 C248.918,12.028 248.827,12.509 248.723,12.977 L251.18,12.977 L251.18,19.1 L250.296,19.1 L250.296,13.809 L246.539,13.809 L246.539,19.1 L245.655,19.1 L245.655,12.977 L247.826,12.977 C247.93,12.509 248.008,12.015 248.06,11.521 L245.174,11.521 L245.174,10.637 Z M249.334,19.1 C250.296,19.854 251.102,20.608 251.752,21.362 L251.102,22.012 C250.53,21.284 249.737,20.504 248.736,19.685 L249.334,19.1 Z M247.93,14.55 L248.84,14.55 L248.84,16.89 C248.801,18.281 248.489,19.386 247.904,20.205 C247.332,20.972 246.409,21.57 245.122,22.012 L244.615,21.219 C245.85,20.816 246.721,20.283 247.215,19.607 C247.657,18.905 247.904,18.008 247.93,16.89 L247.93,14.55 Z M241.183,12.275 C241.534,12.613 241.859,12.938 242.145,13.25 C242.613,12.743 243.042,12.158 243.432,11.508 L240.156,11.508 L240.156,10.637 L244.433,10.637 L244.433,11.378 C243.9,12.34 243.315,13.159 242.691,13.848 C242.938,14.134 243.146,14.394 243.328,14.628 L244.81,14.628 L244.81,15.2 C244.602,16.214 244.342,17.007 244.056,17.579 L243.289,17.28 C243.523,16.786 243.744,16.201 243.926,15.499 L242.548,15.499 L242.548,20.933 C242.548,21.609 242.21,21.96 241.56,21.96 L240.312,21.96 L240.13,21.115 C240.52,21.154 240.897,21.18 241.261,21.18 C241.521,21.18 241.664,21.024 241.664,20.712 L241.664,15.499 L239.792,15.499 L239.792,14.628 L242.314,14.628 C241.807,14.03 241.196,13.38 240.494,12.704 L241.183,12.275 Z M253.624,10.377 C254.352,10.949 254.963,11.534 255.457,12.106 L254.846,12.73 C254.404,12.184 253.78,11.599 252.987,10.988 L253.624,10.377 Z M253.416,13.575 C254.118,14.199 254.716,14.81 255.197,15.434 L254.586,16.045 C254.144,15.46 253.546,14.836 252.779,14.173 L253.416,13.575 Z M254.56,17.072 L255.353,17.384 C254.859,18.97 254.3,20.465 253.702,21.869 L252.844,21.505 C253.494,20.062 254.066,18.58 254.56,17.072 Z M260.332,10.741 L260.332,18.671 L259.5,18.671 L259.5,11.547 L256.809,11.547 L256.809,18.749 L255.977,18.749 L255.977,10.741 L260.332,10.741 Z M258.941,19.282 C259.734,19.984 260.397,20.699 260.93,21.401 L260.306,22.025 C259.838,21.336 259.201,20.608 258.369,19.828 L258.941,19.282 Z M257.771,12.444 L258.551,12.444 L258.551,16.565 C258.525,18.047 258.291,19.23 257.849,20.114 C257.42,20.92 256.718,21.57 255.756,22.038 L255.262,21.258 C256.198,20.816 256.848,20.231 257.212,19.503 C257.55,18.749 257.745,17.774 257.771,16.565 L257.771,12.444 Z M263.14,21.921 L261.71,21.921 L261.515,21.05 C261.97,21.089 262.412,21.115 262.828,21.115 C263.127,21.115 263.283,20.933 263.283,20.595 L263.283,10.182 L264.167,10.182 L264.167,20.816 C264.167,21.544 263.816,21.921 263.14,21.921 Z M261.359,11.248 L262.178,11.248 L262.178,19.36 L261.359,19.36 L261.359,11.248 Z" id="path-1" fill="#2A3052"></path>
            <path d="M268.848,14.182 C269.072,14.182 269.282,14.266 269.45,14.434 C269.618,14.602 269.702,14.798 269.702,15.036 C269.702,15.274 269.618,15.484 269.45,15.652 C269.282,15.806 269.072,15.89 268.848,15.89 C268.596,15.89 268.4,15.806 268.246,15.652 C268.078,15.484 267.994,15.274 267.994,15.036 C267.994,14.798 268.078,14.602 268.246,14.434 C268.4,14.266 268.596,14.182 268.848,14.182 Z M268.848,19.306 C269.072,19.306 269.282,19.39 269.45,19.558 C269.618,19.726 269.702,19.922 269.702,20.16 C269.702,20.398 269.618,20.608 269.45,20.776 C269.282,20.93 269.072,21.014 268.848,21.014 C268.596,21.014 268.4,20.93 268.246,20.776 C268.078,20.608 267.994,20.398 267.994,20.16 C267.994,19.922 268.078,19.726 268.246,19.558 C268.4,19.39 268.596,19.306 268.848,19.306 Z M279.656,10.808 C280.608,10.808 281.392,11.046 281.98,11.536 C282.554,12.026 282.848,12.684 282.848,13.524 C282.848,14.644 282.302,15.4 281.21,15.764 C281.798,15.946 282.246,16.226 282.554,16.618 C282.89,17.01 283.058,17.5 283.058,18.088 C283.058,18.998 282.736,19.74 282.106,20.314 C281.462,20.902 280.622,21.196 279.586,21.196 C278.634,21.196 277.864,20.944 277.262,20.468 C276.548,19.88 276.156,19.026 276.072,17.906 L277.234,17.906 C277.262,18.69 277.528,19.292 278.018,19.698 C278.438,20.034 278.956,20.216 279.586,20.216 C280.3,20.216 280.874,20.006 281.308,19.6 C281.7,19.208 281.91,18.718 281.91,18.13 C281.91,17.528 281.714,17.066 281.322,16.73 C280.93,16.394 280.398,16.24 279.698,16.24 L278.886,16.24 L278.886,15.344 L279.656,15.344 C280.328,15.344 280.832,15.19 281.182,14.896 C281.532,14.588 281.714,14.154 281.714,13.594 C281.714,13.034 281.532,12.6 281.196,12.292 C280.832,11.956 280.314,11.802 279.67,11.802 C278.998,11.802 278.48,11.97 278.102,12.334 C277.71,12.698 277.486,13.216 277.416,13.888 L276.282,13.888 C276.366,12.922 276.73,12.166 277.346,11.62 C277.934,11.074 278.704,10.808 279.656,10.808 Z" id=":3" fill="#2A3052"></path>
            <path d="M15.96,10.59 L19.08,10.59 C18.9,10.14 18.69,9.705 18.48,9.315 L20.115,9.045 C20.295,9.495 20.49,10.02 20.67,10.59 L23.775,10.59 C24,10.08 24.18,9.54 24.3,9 L25.95,9.225 C25.8,9.705 25.62,10.17 25.38,10.59 L28.2,10.59 L28.2,12.045 L22.965,12.045 C22.905,12.345 22.83,12.63 22.755,12.915 L27.375,12.915 L27.375,14.355 L22.35,14.355 C22.26,14.625 22.155,14.91 22.05,15.18 L28.71,15.18 L28.71,16.65 L21.39,16.65 C21.255,16.92 21.12,17.175 20.97,17.43 C20.91,17.52 20.85,17.595 20.79,17.685 L27.705,17.685 L27.705,19.185 L23.715,19.185 L23.715,21.015 L28.635,21.015 L28.635,22.545 L17.28,22.545 L17.28,21.075 C16.89,21.345 16.47,21.615 16.05,21.885 L15,20.55 C16.995,19.515 18.495,18.285 19.515,16.86 C19.56,16.785 19.605,16.71 19.65,16.65 L15.525,16.65 L15.525,15.18 L20.46,15.18 C20.58,14.91 20.685,14.625 20.79,14.355 L16.845,14.355 L16.845,12.915 L21.195,12.915 C21.255,12.615 21.315,12.33 21.36,12.045 L15.96,12.045 L15.96,10.59 Z M17.355,21.015 L22.11,21.015 L22.11,19.185 L19.53,19.185 C18.885,19.83 18.165,20.445 17.355,21.015 Z M41.745,9.585 L41.745,13.455 L33.195,13.455 L33.195,14.115 C33.195,14.565 33.42,14.79 33.87,14.79 L41.64,14.79 C41.85,14.775 42,14.7 42.075,14.55 C42.135,14.445 42.195,14.1 42.255,13.515 L43.665,13.98 C43.575,14.67 43.485,15.15 43.365,15.45 C43.185,15.93 42.78,16.17 42.12,16.2 L33.24,16.2 C32.175,16.2 31.65,15.705 31.65,14.73 L31.65,9.585 L41.745,9.585 Z M33.195,12.075 L40.23,12.075 L40.23,10.995 L33.195,10.995 L33.195,12.075 Z M30.15,18.045 L33.84,18.045 C33.84,17.655 33.855,17.19 33.855,16.635 L35.415,16.635 C35.415,17.22 35.4,17.685 35.385,18.045 L38.85,18.045 L38.85,16.65 L40.41,16.65 L40.41,18.045 L43.98,18.045 L43.98,19.47 L40.41,19.47 L40.41,22.95 L38.85,22.95 L38.85,19.47 L35.16,19.47 C34.725,21.21 33.615,22.395 31.845,23.01 L31.035,21.63 C32.415,21.27 33.285,20.55 33.645,19.47 L30.15,19.47 L30.15,18.045 Z" id="差异" fill="#000000"></path>
            <path d="M149.672,163.362 L149.672,169.72 L148.528,169.72 L148.528,164.55 L145.47,164.55 L145.47,169.676 L144.304,169.676 L144.304,163.362 L149.672,163.362 Z M147.01,170.644 C146.922,170.864 146.834,171.062 146.746,171.238 C146.262,172.118 145.492,172.8 144.392,173.284 L143.732,172.25 C144.744,171.788 145.448,171.194 145.866,170.49 C146.218,169.72 146.416,168.73 146.46,167.498 L146.46,165.584 L147.516,165.584 L147.516,167.498 C147.494,168.246 147.428,168.928 147.318,169.522 C148.154,170.248 148.858,170.974 149.43,171.7 L148.594,172.536 C148.176,171.92 147.648,171.304 147.01,170.644 Z M137.418,154.562 L146.482,154.562 C146.262,154.078 146.042,153.66 145.8,153.264 L147.384,153 C147.604,153.462 147.802,153.99 147.978,154.562 L156.866,154.562 L156.866,155.706 L140.872,155.706 L140.872,156.85 L155.37,156.85 L155.37,157.972 L139.398,157.972 L139.398,155.706 L137.418,155.706 L137.418,154.562 Z M140.014,159.006 L154.204,159.006 L154.204,162.284 L140.014,162.284 L140.014,159.006 Z M152.664,161.25 L152.664,160.04 L141.554,160.04 L141.554,161.25 L152.664,161.25 Z M139.684,167.234 C139.662,167.784 139.618,168.312 139.574,168.796 L141.994,168.796 L141.994,167.234 L139.684,167.234 Z M141.994,166.2 L141.994,164.616 L139.684,164.616 L139.684,166.2 L141.994,166.2 Z M139.42,169.83 C139.156,171.26 138.672,172.47 137.99,173.482 L137,172.58 C137.924,171.172 138.386,169.412 138.408,167.256 L138.408,163.406 L143.248,163.406 L143.248,171.876 C143.248,172.866 142.72,173.372 141.686,173.372 L140.784,173.372 L140.454,172.184 C140.74,172.228 141.026,172.25 141.29,172.25 C141.752,172.25 141.994,171.964 141.994,171.436 L141.994,169.83 L139.42,169.83 Z M156.052,173.13 L155.282,173.13 C154.49,173.13 154.116,172.69 154.116,171.854 L154.116,164.66 L152.026,164.66 L152.026,166.926 C152.026,168.554 151.916,169.808 151.696,170.688 C151.454,171.568 150.948,172.492 150.178,173.46 L149.188,172.602 C149.848,171.81 150.288,171.084 150.508,170.402 C150.728,169.698 150.838,168.532 150.838,166.926 L150.838,163.406 L155.304,163.406 L155.304,171.48 C155.304,171.81 155.436,171.986 155.722,171.986 L155.854,171.986 C155.986,171.986 156.096,171.876 156.162,171.656 C156.228,171.436 156.294,170.71 156.36,169.456 L157.372,169.808 C157.24,171.304 157.108,172.228 156.954,172.602 C156.778,172.954 156.492,173.13 156.052,173.13 Z M152.906,166.618 C153.302,167.498 153.676,168.422 153.984,169.434 L153.148,169.808 C152.818,168.708 152.466,167.74 152.07,166.904 L152.906,166.618 Z M160.782,155.508 L162.828,155.508 L162.498,166.992 L161.134,166.992 L160.782,155.508 Z M161.794,168.598 C162.19,168.598 162.498,168.708 162.762,168.972 C163.004,169.214 163.136,169.522 163.136,169.896 C163.136,170.292 163.004,170.6 162.762,170.842 C162.498,171.084 162.168,171.216 161.794,171.216 C161.42,171.216 161.112,171.084 160.87,170.842 C160.606,170.578 160.474,170.27 160.474,169.896 C160.474,169.522 160.606,169.214 160.87,168.972 C161.112,168.708 161.42,168.598 161.794,168.598 Z" id="赢!" fill="#FFFFFF"></path>
        </g>
    </g>
</svg>