<svg width="299" height="197" xmlns="http://www.w3.org/2000/svg" xmlns:xlink="http://www.w3.org/1999/xlink"><defs><path d="M181.78 16.449h11.466v.754h-5.837v4.108c.26-.039.52-.078.754-.117v.741c-.234.039-.494.078-.754.13v1.261h-.91v-1.144a80.6 80.6 0 0 1-4.563.377l-.117-.806 1.209-.052v-4.498h-1.248v-.754zm2.093 5.213a54.962 54.962 0 0 0 2.626-.234v-.884h-2.626v1.118zm0-1.807h2.626v-.975h-2.626v.975zm0-1.677h2.626v-.975h-2.626v.975zm-.442-6.331h8.216v3.744h-8.216v-3.744zm7.319 3.068v-.871h-6.422v.871h6.422zm-6.422-1.534h6.422v-.832h-6.422v.832zm4.173 5.46h-.416v-.767h4.433v.728a6.187 6.187 0 0 1-1.313 2.587c.572.429 1.248.806 2.054 1.144l-.481.78c-.858-.403-1.586-.845-2.171-1.326-.598.52-1.326.962-2.171 1.326l-.481-.728c.78-.338 1.456-.728 2.015-1.196a5.827 5.827 0 0 1-1.469-2.548zm2.041 1.989a5.636 5.636 0 0 0 1.131-1.989h-2.366a4.738 4.738 0 0 0 1.235 1.989zm6.422-4.862v.338c-.078 2.912-.676 5.226-1.768 6.955l-.689-.715c.949-1.508 1.456-3.588 1.534-6.24v-3.9c3.354-.039 6.357-.338 9.035-.897l.468.845c-2.548.52-5.408.806-8.58.884v1.82h9.36v.91h-9.36zm8.333 1.82V23.3h-.936v-.611h-5.265v.611h-.936v-5.512h7.137zm-6.201 3.991h5.265v-3.094h-5.265v3.094zm16.458-7.514l-.169.676c.325 1.521.741 2.834 1.261 3.926.507-1.313.78-2.847.832-4.602h-1.924zm.663 5.538c-.507-1.001-.936-2.145-1.287-3.445a11.468 11.468 0 0 1-.767 1.599l-.585-.715c.767-1.456 1.287-3.419 1.547-5.889l.91.156a29.8 29.8 0 0 1-.286 1.859h3.432v.897h-.845c-.065 2.171-.468 4.03-1.196 5.564.676 1.17 1.469 2.067 2.405 2.704l-.507.767c-.91-.65-1.69-1.534-2.34-2.626a8.72 8.72 0 0 1-2.405 2.613l-.481-.78a7.652 7.652 0 0 0 2.405-2.704zm-6.162-2.379l.871.104c-.091.247-.182.481-.26.715h2.717v.767a5.236 5.236 0 0 1-1.443 2.223c.624.286 1.222.572 1.794.884l-.507.728a18.914 18.914 0 0 0-2.002-1.027c-.858.598-1.937 1.079-3.237 1.443l-.442-.78c1.066-.286 1.989-.637 2.743-1.066a34.795 34.795 0 0 0-1.807-.728c.338-.572.637-1.105.897-1.625h-1.534v-.819h1.898c.117-.286.221-.559.312-.819zm1.027 3.445c.65-.52 1.144-1.131 1.456-1.807h-2.236a9.663 9.663 0 0 1-.702 1.248c.52.182 1.014.364 1.482.559zm-2.21-9.243c.312.507.572 1.053.806 1.625l-.676.312a12.024 12.024 0 0 0-.871-1.69l.741-.247zm3.952-.039l.676.312a8.656 8.656 0 0 1-1.001 1.677l-.663-.338c.416-.559.754-1.105.988-1.651zm-4.953 2.288h2.535v-2.483h.871v2.483h2.366v.819h-2.366v.143c.702.351 1.43.754 2.158 1.196l-.481.728a24.8 24.8 0 0 0-1.677-1.248v1.69h-.871v-2.47c-.429 1.027-1.209 1.911-2.327 2.665l-.455-.754c1.001-.585 1.703-1.235 2.093-1.95h-1.846v-.819zm24.141-1.157v2.899h-.936v-2.002h-9.152v2.002h-.936v-2.899h5.109a10.405 10.405 0 0 0-.585-1.261l1.066-.182c.182.429.364.91.533 1.443h4.901zm-9.022 2.301h6.981v.871c-.845.598-1.794 1.17-2.834 1.742v.871h5.122v.91h-5.122v2.756c0 .715-.377 1.079-1.131 1.079h-1.599l-.221-.858c.455.013.949.026 1.495.026.338 0 .507-.195.507-.572v-2.431h-5.434v-.91h5.434v-1.274a32.896 32.896 0 0 0 2.379-1.339h-5.577v-.871zm15.262-1.391v8.866h-.91v-.741h-2.366v1.118h-.91v-9.243h1.209c.26-.728.442-1.482.559-2.262l.936.13a12.416 12.416 0 0 1-.611 2.132h2.093zm-3.276 7.254h2.366v-2.847h-2.366v2.847zm0-3.692h2.366v-2.678h-2.366v2.678zm5.538-.546c.936 1.079 1.638 2.028 2.132 2.834l-.741.52c-.533-.858-1.248-1.82-2.145-2.886l.754-.468zm4.459-3.003c0 4.316-.065 6.994-.195 8.008-.13.988-.728 1.495-1.82 1.495-.26 0-.702-.026-1.326-.052l-.221-.858c.546.026 1.014.039 1.417.039.611 0 .962-.338 1.066-1.001.078-.728.13-2.977.156-6.721h-3.575c-.364.819-.793 1.56-1.3 2.223l-.559-.741c.91-1.274 1.521-2.834 1.859-4.68l.923.117a17.048 17.048 0 0 1-.572 2.171h4.147zm6.981-1.729h6.448v.884h-2.639a16.12 16.12 0 0 1-.26 1.456h2.457v6.123h-.884v-5.291h-3.757v5.291h-.884v-6.123h2.171c.104-.468.182-.962.234-1.456h-2.886v-.884zm4.16 8.463c.962.754 1.768 1.508 2.418 2.262l-.65.65c-.572-.728-1.365-1.508-2.366-2.327l.598-.585zm-1.404-4.55h.91v2.34c-.039 1.391-.351 2.496-.936 3.315-.572.767-1.495 1.365-2.782 1.807l-.507-.793c1.235-.403 2.106-.936 2.6-1.612.442-.702.689-1.599.715-2.717v-2.34zm-6.747-2.275c.351.338.676.663.962.975.468-.507.897-1.092 1.287-1.742h-3.276v-.871h4.277v.741a13.162 13.162 0 0 1-1.742 2.47c.247.286.455.546.637.78h1.482v.572c-.208 1.014-.468 1.807-.754 2.379l-.767-.299a9.993 9.993 0 0 0 .637-1.781h-1.378v5.434c0 .676-.338 1.027-.988 1.027h-1.248l-.182-.845c.39.039.767.065 1.131.065.26 0 .403-.156.403-.468v-5.213h-1.872v-.871h2.522a26.49 26.49 0 0 0-1.82-1.924l.689-.429zm12.441-1.898a13.178 13.178 0 0 1 1.833 1.729l-.611.624c-.442-.546-1.066-1.131-1.859-1.742l.637-.611zm-.208 3.198c.702.624 1.3 1.235 1.781 1.859l-.611.611c-.442-.585-1.04-1.209-1.807-1.872l.637-.598zm1.144 3.497l.793.312a47.455 47.455 0 0 1-1.651 4.485l-.858-.364a44.614 44.614 0 0 0 1.716-4.433zm5.772-6.331v7.93h-.832v-7.124h-2.691v7.202h-.832v-8.008h4.355zm-1.391 8.541a14.856 14.856 0 0 1 1.989 2.119l-.624.624c-.468-.689-1.105-1.417-1.937-2.197l.572-.546zm-1.17-6.838h.78v4.121c-.026 1.482-.26 2.665-.702 3.549-.429.806-1.131 1.456-2.093 1.924l-.494-.78c.936-.442 1.586-1.027 1.95-1.755.338-.754.533-1.729.559-2.938v-4.121zm5.369 9.477h-1.43l-.195-.871c.455.039.897.065 1.313.065.299 0 .455-.182.455-.52V11.457h.884v10.634c0 .728-.351 1.105-1.027 1.105zm-1.781-10.673h.819v8.112h-.819v-8.112z" id="a"/><path d="M16.47 12.116h3.052a10.672 10.672 0 0 0-.742-1.442l1.036-.168c.252.476.49 1.008.714 1.61h3.248a6.77 6.77 0 0 0 .658-1.666l1.05.14a5.957 5.957 0 0 1-.672 1.526h2.772v.938h-4.984c-.084.42-.168.826-.266 1.218h4.508v.938H22.07c-.14.42-.28.812-.434 1.19h6.426v.952h-6.86c-.168.308-.322.602-.49.882-.112.168-.224.322-.336.476h6.804v.98h-3.864v2.254h4.732v.98H17.66v-.98h4.634V19.69H19.55c-.91.966-2.03 1.862-3.374 2.674l-.672-.868c1.96-1.064 3.43-2.352 4.41-3.836.056-.112.126-.21.182-.308h-4.032V16.4h4.522c.182-.392.336-.784.476-1.19h-3.78v-.938h4.046c.084-.406.168-.812.238-1.218H16.47v-.938zm23.716-1.008v3.29h-8.022v.938c0 .476.238.714.714.714h7.392c.294-.014.504-.112.616-.28.098-.154.168-.532.224-1.12l.91.294c-.056.644-.154 1.092-.28 1.372-.196.42-.602.63-1.19.644h-8.036c-.896 0-1.344-.434-1.344-1.274v-4.578h9.016zm-8.022 2.38h7.042v-1.47h-7.042v1.47zm-2.548 5.558h3.598c.014-.378.028-.896.028-1.554h1.008c0 .714-.014 1.232-.028 1.554h3.682v-1.54h1.008v1.54h3.5v.91h-3.5v3.36h-1.008v-3.36h-3.808c-.35 1.68-1.386 2.828-3.094 3.416l-.532-.868c1.484-.42 2.366-1.274 2.646-2.548h-3.5v-.91z" id="b"/></defs><g fill="none" fill-rule="evenodd"><path fill="#F1F1F2" d="M0 0h299v197H0z"/><path d="M1.987 1.98v193.04h295.026V1.98H1.987zM299 0v197H0V0h299z" fill="#C2C2C2" fill-rule="nonzero"/><g transform="translate(2.007 32.26)"><path d="M3 22.9v-1.207h290v1.208H3zM3 43.2V41.99h290V43.2H3zm0 60.927v-1.208h290v1.208H3zm0 20.297v-1.208h290v1.208H3zm0 20.299v-1.208h290v1.208H3zM37.43 2h1.21v160h-1.21V2zm36.7 0h1.21v160h-1.21V2zm36.698 0h1.21v160h-1.21V2zm36.662 0h1.21v160h-1.21V2zm36.698 0h1.21v160h-1.21V2zm36.7 0h1.209v160h-1.21V2zm36.698 0h1.21v160h-1.21V2zM3 83.83v-1.207h290v1.207H3z" fill="#DEDEDD" fill-rule="nonzero"/><path fill="#293052" fill-rule="nonzero" d="M1.6 64.872v-1.22h1.83v1.22zM7.087 64.872v-1.22h3.658v1.22H7.087zm7.316 0v-1.22h3.659v1.22h-3.659zm7.317 0v-1.22h3.658v1.22H21.72zm7.317 0v-1.22h3.658v1.22h-3.658zm7.316 0v-1.22h3.659v1.22h-3.659zm7.317 0v-1.22h3.658v1.22H43.67zm7.316 0v-1.22h3.659v1.22h-3.659zm7.317 0v-1.22h3.658v1.22h-3.658zm7.317 0v-1.22h3.658v1.22H65.62zm7.316 0v-1.22h3.659v1.22h-3.659zm7.317 0v-1.22h3.658v1.22h-3.658zm7.317 0v-1.22h3.658v1.22H87.57zm7.316 0v-1.22h3.659v1.22h-3.659zm7.317 0v-1.22h3.658v1.22h-3.658zm7.317 0v-1.22h3.658v1.22h-3.658zm7.316 0v-1.22h3.659v1.22h-3.659zm7.317 0v-1.22h3.658v1.22h-3.658zm7.316 0v-1.22h3.659v1.22h-3.659zm7.317 0v-1.22h3.658v1.22h-3.658zm7.317 0v-1.22h3.658v1.22h-3.658zm7.316 0v-1.22h3.659v1.22h-3.659zm7.317 0v-1.22h3.658v1.22h-3.658zm7.317 0v-1.22h3.658v1.22h-3.658zm7.316 0v-1.22h3.659v1.22h-3.659zm7.317 0v-1.22h3.658v1.22h-3.658zm7.317 0v-1.22h3.658v1.22h-3.658zm7.316 0v-1.22h3.658v1.22h-3.658zm7.317 0v-1.22h3.658v1.22h-3.658zm7.316 0v-1.22h3.659v1.22h-3.659zm7.317 0v-1.22h3.658v1.22h-3.658zm7.317 0v-1.22h3.658v1.22h-3.658zm7.316 0v-1.22h3.659v1.22h-3.659zm7.317 0v-1.22h3.658v1.22h-3.658zm7.317 0v-1.22h3.658v1.22h-3.658zm7.316 0v-1.22h3.659v1.22h-3.659zm7.317 0v-1.22h3.658v1.22h-3.658zm7.316 0v-1.22h3.659v1.22h-3.659zm7.317 0v-1.22h3.658v1.22h-3.658zm7.317 0v-1.22h3.658v1.22h-3.658zM292.167 64.872v-1.22h1.791v1.22z"/><path fill="#C2C2C2" fill-rule="nonzero" d="M.504 2.72V.282h294V2.72z"/><path d="M220.571 63a1.81 1.81 0 1 1 2.596 2.524l-31.968 32.87a1.81 1.81 0 0 1-2.15.335l-41.82-22.3-42.486 24.894a1.81 1.81 0 0 1-1.726.056l-29.91-15.005a1.81 1.81 0 0 1-.358-.236L35.75 54.816a1.81 1.81 0 1 1 2.339-2.763l36.833 31.182 28.838 14.467 42.512-24.909a1.81 1.81 0 0 1 1.767-.035l41.512 22.136L220.572 63z" fill="#293052" fill-rule="nonzero"/><path d="M186.434 115.886h-35.282l-5.564-8.237-5.334 8.237h-35.283a4.716 4.716 0 0 0-3.365 1.413 4.882 4.882 0 0 0-1.398 3.42v25.02a4.882 4.882 0 0 0 1.398 3.42 4.716 4.716 0 0 0 3.365 1.414h81.463a4.725 4.725 0 0 0 3.441-1.374 4.87 4.87 0 0 0 1.435-3.46v-24.98a4.87 4.87 0 0 0-1.42-3.486 4.726 4.726 0 0 0-3.456-1.388v.001z" fill="#E88024"/><ellipse fill="#FFF" opacity=".6" cx="221.868" cy="64.262" rx="8.192" ry="8.547"/><path d="M221.869 74.028c-5.21 0-9.411-4.384-9.411-9.766s4.201-9.766 9.411-9.766 9.412 4.384 9.412 9.766-4.202 9.766-9.412 9.766zm0-2.438c3.84 0 6.973-3.27 6.973-7.328s-3.134-7.327-6.973-7.327c-3.84 0-6.973 3.269-6.973 7.327s3.134 7.328 6.973 7.328z" fill="#E88024" fill-rule="nonzero"/><path fill="#E88024" d="M244.92 55.252h28.767v19.18h-28.766z"/><path d="M258.713 58.461a5.67 5.67 0 0 1 1.257 0 6.6 6.6 0 0 1 1.144.387l-.42 1.78-.99-.271h-.99a2.16 2.16 0 0 0-1.754.85 3.44 3.44 0 0 0-.609 2.32 2.787 2.787 0 0 1 1.029-.657c.451-.167.93-.245 1.41-.232a3.03 3.03 0 0 1 2.514 1.16c.634.856.957 1.908.915 2.977a4.25 4.25 0 0 1-1.144 3.055 3.781 3.781 0 0 1-2.934 1.2 4.01 4.01 0 0 1-3.123-1.315 5.192 5.192 0 0 1-1.182-3.636v-2.397a5.267 5.267 0 0 1 1.372-3.867 4.612 4.612 0 0 1 3.505-1.354zm-.572 6.072a2.709 2.709 0 0 0-1.142.231 1.757 1.757 0 0 0-.724.581v.812a3.917 3.917 0 0 0 .533 2.243c.293.483.813.776 1.371.773a1.369 1.369 0 0 0 1.182-.696 2.998 2.998 0 0 0 .533-1.702c.03-.59-.13-1.174-.456-1.663a1.44 1.44 0 0 0-1.297-.618v.039z" fill="#FFF" fill-rule="nonzero"/><path fill="#E88024" d="M248.426 64.842l-3.353 3.403-5.22-3.403 5.22-3.364z"/></g><path d="M276 21.08c0-.187.056-.344.167-.469.111-.125.278-.187.501-.187.223 0 .392.062.507.187a.665.665 0 0 1 .173.47.63.63 0 0 1-.173.45c-.115.121-.284.182-.507.182-.223 0-.39-.06-.501-.182a.641.641 0 0 1-.167-.45zm.006-5.174c0-.187.056-.343.167-.469.111-.125.278-.187.5-.187.223 0 .392.062.508.188a.665.665 0 0 1 .173.468.63.63 0 0 1-.173.451c-.116.122-.285.182-.507.182-.223 0-.39-.06-.501-.182a.641.641 0 0 1-.167-.45zm7.371.95h.814c.512-.008.914-.143 1.207-.405.293-.262.44-.615.44-1.06 0-1-.498-1.5-1.494-1.5-.469 0-.843.133-1.122.401-.28.268-.42.622-.42 1.063h-1.083c0-.675.247-1.237.741-1.684.494-.447 1.122-.671 1.884-.671.804 0 1.435.213 1.892.639.457.425.686 1.017.686 1.775 0 .371-.12.73-.36 1.078-.24.348-.568.608-.982.78.469.148.831.394 1.087.738s.384.763.384 1.26c0 .765-.25 1.373-.75 1.822-.5.449-1.15.674-1.951.674-.801 0-1.453-.217-1.954-.65-.502-.434-.753-1.007-.753-1.718h1.09c0 .45.146.809.439 1.079.293.27.685.404 1.178.404.523 0 .923-.137 1.2-.41.278-.274.417-.666.417-1.178 0-.496-.153-.877-.457-1.143-.305-.265-.744-.402-1.319-.41h-.814v-.885z" fill="#2A3052" fill-rule="nonzero"/><use fill="#000" xlink:href="#a"/><use fill="#2A3052" xlink:href="#a"/><g fill="#000"><use xlink:href="#b"/><use xlink:href="#b"/></g><path d="M151.375 165.075v7.225h-1.3v-5.875H146.6v5.825h-1.325v-7.175h6.1zm-3.025 8.275c-.1.25-.2.475-.3.675-.55 1-1.425 1.775-2.675 2.325l-.75-1.175c1.15-.525 1.95-1.2 2.425-2 .4-.875.625-2 .675-3.4V167.6h1.2v2.175c-.025.85-.1 1.625-.225 2.3.95.825 1.75 1.65 2.4 2.475l-.95.95c-.475-.7-1.075-1.4-1.8-2.15zm-10.9-18.275h10.3c-.25-.55-.5-1.025-.775-1.475l1.8-.3c.25.525.475 1.125.675 1.775h10.1v1.3h-18.175v1.3h16.475v1.275H139.7v-2.575h-2.25v-1.3zm2.95 5.05h16.125v3.725H140.4v-3.725zm14.375 2.55V161.3H142.15v1.375h12.625zm-14.75 6.8a34.912 34.912 0 0 1-.125 1.775h2.75v-1.775h-2.625zm2.625-1.175v-1.8h-2.625v1.8h2.625zm-2.925 4.125c-.3 1.625-.85 3-1.625 4.15l-1.125-1.025c1.05-1.6 1.575-3.6 1.6-6.05v-4.375h5.5v9.625c0 1.125-.6 1.7-1.775 1.7h-1.025l-.375-1.35c.325.05.65.075.95.075.525 0 .8-.325.8-.925v-1.825h-2.925zm18.9 3.75h-.875c-.9 0-1.325-.5-1.325-1.45v-8.175h-2.375v2.575c0 1.85-.125 3.275-.375 4.275-.275 1-.85 2.05-1.725 3.15l-1.125-.975c.75-.9 1.25-1.725 1.5-2.5.25-.8.375-2.125.375-3.95v-4h5.075v9.175c0 .375.15.575.475.575h.15c.15 0 .275-.125.35-.375.075-.25.15-1.075.225-2.5l1.15.4c-.15 1.7-.3 2.75-.475 3.175-.2.4-.525.6-1.025.6zm-3.575-7.4c.45 1 .875 2.05 1.225 3.2l-.95.425c-.375-1.25-.775-2.35-1.225-3.3l.95-.325zm10.186.208h-2.039l-.158-12.756h2.368l-.171 12.756zm-2.283 3.882c0-.366.112-.674.336-.922.224-.248.555-.372.995-.372.44 0 .773.124 1 .372.229.248.342.556.342.922s-.113.67-.341.91c-.228.24-.562.36-1.001.36-.44 0-.771-.12-.995-.36-.224-.24-.336-.544-.336-.91z" fill="#FFF" fill-rule="nonzero"/></g></svg>