<?xml version="1.0" encoding="UTF-8"?>
<svg width="299px" height="197px" viewBox="0 0 299 197" version="1.1" xmlns="http://www.w3.org/2000/svg" xmlns:xlink="http://www.w3.org/1999/xlink">
    <!-- Generator: Sketch 52.6 (67491) - http://www.bohemiancoding.com/sketch -->
    <title>ends-outside</title>
    <desc>Created with Sketch.</desc>
    <g id="Page-1" stroke="none" stroke-width="1" fill="none" fill-rule="evenodd">
        <g id="ends-outside">
            <polygon id="Path" fill="#F1F2F2" points="0 0 299 0 299 197 0 197"></polygon>
            <path d="M1.99333333,1.9798995 L1.99333333,195.020101 L297.006667,195.020101 L297.006667,1.9798995 L1.99333333,1.9798995 Z M299,0 L299,197 L0,197 L0,0 L299,0 Z" id="Path" fill="#C2C2C2" fill-rule="nonzero"></path>
            <path d="M41.6149329,54.8568182 L41.6149329,73.7621212 L76.7701342,73.7621212 L76.7701342,54.8568182 L41.6149329,54.8568182 Z M41.6149329,53.8810606 L76.7701342,53.8810606 L76.7701342,34 L77.7432886,34 L77.7432886,53.8810606 L112.89849,53.8810606 L112.89849,34 L113.871644,34 L113.871644,53.8810606 L149.026846,53.8810606 L149.026846,34 L150,34 L150,53.8810606 L185.155201,53.8810606 L185.155201,34 L186.128356,34 L186.128356,53.8810606 L221.283557,53.8810606 L221.283557,34 L222.256711,34 L222.256711,53.8810606 L257.411913,53.8810606 L257.411913,34 L258.385067,34 L258.385067,53.8810606 L295,53.8810606 L295,54.8568182 L258.385067,54.8568182 L258.385067,73.7621212 L295,73.7621212 L295,74.7378788 L258.385067,74.7378788 L258.385067,93.6431818 L295,93.6431818 L295,94.6189394 L258.385067,94.6189394 L258.385067,113.524242 L295,113.524242 L295,114.5 L258.385067,114.5 L258.385067,133.405303 L295,133.405303 L295,134.381061 L258.385067,134.381061 L258.385067,153.286364 L295,153.286364 L295,154.262121 L258.385067,154.262121 L258.385067,173.167424 L295,173.167424 L295,174.143182 L258.385067,174.143182 L258.385067,195 L257.411913,195 L257.411913,174.143182 L222.256711,174.143182 L222.256711,195 L221.283557,195 L221.283557,174.143182 L186.128356,174.143182 L186.128356,195 L185.155201,195 L185.155201,174.143182 L150,174.143182 L150,195 L149.026846,195 L149.026846,174.143182 L113.871644,174.143182 L113.871644,195 L112.89849,195 L112.89849,174.143182 L77.7432886,174.143182 L77.7432886,195 L76.7701342,195 L76.7701342,174.143182 L41.6149329,174.143182 L41.6149329,195 L40.6417785,195 L40.6417785,174.143182 L5,174.143182 L5,173.167424 L40.6417785,173.167424 L40.6417785,154.262121 L5,154.262121 L5,153.286364 L40.6417785,153.286364 L40.6417785,134.381061 L5,134.381061 L5,133.405303 L40.6417785,133.405303 L40.6417785,114.5 L5,114.5 L5,113.524242 L40.6417785,113.524242 L40.6417785,94.6189394 L5,94.6189394 L5,93.6431818 L40.6417785,93.6431818 L40.6417785,74.7378788 L5,74.7378788 L5,73.7621212 L40.6417785,73.7621212 L40.6417785,54.8568182 L5,54.8568182 L5,53.8810606 L40.6417785,53.8810606 L40.6417785,34 L41.6149329,34 L41.6149329,53.8810606 Z M257.411913,54.8568182 L222.256711,54.8568182 L222.256711,73.7621212 L257.411913,73.7621212 L257.411913,54.8568182 Z M221.283557,54.8568182 L186.128356,54.8568182 L186.128356,73.7621212 L221.283557,73.7621212 L221.283557,54.8568182 Z M185.155201,54.8568182 L150,54.8568182 L150,73.7621212 L185.155201,73.7621212 L185.155201,54.8568182 Z M149.026846,54.8568182 L113.871644,54.8568182 L113.871644,73.7621212 L149.026846,73.7621212 L149.026846,54.8568182 Z M112.89849,54.8568182 L77.7432886,54.8568182 L77.7432886,73.7621212 L112.89849,73.7621212 L112.89849,54.8568182 Z M41.6149329,74.7378788 L41.6149329,93.6431818 L76.7701342,93.6431818 L76.7701342,74.7378788 L41.6149329,74.7378788 Z M257.411913,74.7378788 L222.256711,74.7378788 L222.256711,93.6431818 L257.411913,93.6431818 L257.411913,74.7378788 Z M221.283557,74.7378788 L186.128356,74.7378788 L186.128356,93.6431818 L221.283557,93.6431818 L221.283557,74.7378788 Z M185.155201,74.7378788 L150,74.7378788 L150,93.6431818 L185.155201,93.6431818 L185.155201,74.7378788 Z M149.026846,74.7378788 L113.871644,74.7378788 L113.871644,93.6431818 L149.026846,93.6431818 L149.026846,74.7378788 Z M112.89849,74.7378788 L77.7432886,74.7378788 L77.7432886,93.6431818 L112.89849,93.6431818 L112.89849,74.7378788 Z M41.6149329,94.6189394 L41.6149329,113.524242 L76.7701342,113.524242 L76.7701342,94.6189394 L41.6149329,94.6189394 Z M257.411913,94.6189394 L222.256711,94.6189394 L222.256711,113.524242 L257.411913,113.524242 L257.411913,94.6189394 Z M221.283557,94.6189394 L186.128356,94.6189394 L186.128356,113.524242 L221.283557,113.524242 L221.283557,94.6189394 Z M185.155201,94.6189394 L150,94.6189394 L150,113.524242 L185.155201,113.524242 L185.155201,94.6189394 Z M149.026846,94.6189394 L113.871644,94.6189394 L113.871644,113.524242 L149.026846,113.524242 L149.026846,94.6189394 Z M112.89849,94.6189394 L77.7432886,94.6189394 L77.7432886,113.524242 L112.89849,113.524242 L112.89849,94.6189394 Z M41.6149329,114.5 L41.6149329,133.405303 L76.7701342,133.405303 L76.7701342,114.5 L41.6149329,114.5 Z M257.411913,114.5 L222.256711,114.5 L222.256711,133.405303 L257.411913,133.405303 L257.411913,114.5 Z M221.283557,114.5 L186.128356,114.5 L186.128356,133.405303 L221.283557,133.405303 L221.283557,114.5 Z M185.155201,114.5 L150,114.5 L150,133.405303 L185.155201,133.405303 L185.155201,114.5 Z M149.026846,114.5 L113.871644,114.5 L113.871644,133.405303 L149.026846,133.405303 L149.026846,114.5 Z M112.89849,114.5 L77.7432886,114.5 L77.7432886,133.405303 L112.89849,133.405303 L112.89849,114.5 Z M41.6149329,134.381061 L41.6149329,153.286364 L76.7701342,153.286364 L76.7701342,134.381061 L41.6149329,134.381061 Z M257.411913,134.381061 L222.256711,134.381061 L222.256711,153.286364 L257.411913,153.286364 L257.411913,134.381061 Z M221.283557,134.381061 L186.128356,134.381061 L186.128356,153.286364 L221.283557,153.286364 L221.283557,134.381061 Z M185.155201,134.381061 L150,134.381061 L150,153.286364 L185.155201,153.286364 L185.155201,134.381061 Z M149.026846,134.381061 L113.871644,134.381061 L113.871644,153.286364 L149.026846,153.286364 L149.026846,134.381061 Z M112.89849,134.381061 L77.7432886,134.381061 L77.7432886,153.286364 L112.89849,153.286364 L112.89849,134.381061 Z M41.6149329,154.262121 L41.6149329,173.167424 L76.7701342,173.167424 L76.7701342,154.262121 L41.6149329,154.262121 Z M257.411913,154.262121 L222.256711,154.262121 L222.256711,173.167424 L257.411913,173.167424 L257.411913,154.262121 Z M221.283557,154.262121 L186.128356,154.262121 L186.128356,173.167424 L221.283557,173.167424 L221.283557,154.262121 Z M185.155201,154.262121 L150,154.262121 L150,173.167424 L185.155201,173.167424 L185.155201,154.262121 Z M149.026846,154.262121 L113.871644,154.262121 L113.871644,173.167424 L149.026846,173.167424 L149.026846,154.262121 Z M112.89849,154.262121 L77.7432886,154.262121 L77.7432886,173.167424 L112.89849,173.167424 L112.89849,154.262121 Z" id="Shape" fill="#DFDEDE" fill-rule="nonzero"></path>
            <polygon id="Path" fill="#C2C2C2" points="4 30 294 30 294 32 4 32"></polygon>
            <g id="Group" transform="translate(3.000000, 32.970000)">
                <path d="M255.0075,0.725 L256.2185,0.725 L256.2185,161 L255.0075,161 L255.0075,0.725 Z M0.9,42.0175 L0.9,40.8065 L291.525,40.8065 L291.525,42.0175 L0.9,42.0175 Z M0.9,121.3555 L0.9,120.1445 L291.525,120.1445 L291.525,121.3555 L0.9,121.3555 Z" id="Shape" fill="#2A3052" fill-rule="nonzero"></path>
                <path d="M72.5987683,63.9341447 L36.9114201,84.6343006 C36.0436148,85.137664 34.9320628,84.8422255 34.4286994,83.9744201 C33.925336,83.1066148 34.2207745,81.9950628 35.0885799,81.4916994 L71.8755799,60.1536994 C72.5358645,59.7707067 73.3651487,59.8413664 73.9511192,60.3305471 L106.501204,87.5040556 L145.306652,61.2327924 C145.988454,60.7712133 146.89545,60.8259354 147.51681,61.3661386 L182.996264,92.2115413 L255.336482,20.7576479 C256.050228,20.0526464 257.200351,20.0597356 257.905352,20.773482 C258.610354,21.4872284 258.603264,22.6373507 257.889518,23.3423521 L184.351518,95.9793521 C183.675793,96.6467976 182.599964,96.6810162 181.88319,96.0578614 L146.187015,65.024044 L107.405348,91.2792076 C106.734729,91.7332159 105.844568,91.6884503 105.222881,91.1694529 L72.5987683,63.9341447 Z" id="Path" fill="#2A3052" fill-rule="nonzero"></path>
                <path d="M184.613,114 L149.55,114 L144.15,105.787 L138.75,114 L103.687,114 C102.422772,114.006047 101.213182,114.516142 100.32639,115.417201 C99.4395975,116.31826 98.9488703,117.535837 98.963,118.8 L98.963,143.588 C98.9463511,146.216609 101.059455,148.363254 103.688,148.388 L184.65,148.388 C185.914402,148.382219 187.124249,147.87224 188.011258,146.971152 C188.898266,146.070064 189.38913,144.852336 189.375,143.588 L189.375,118.8 C189.381113,117.531676 188.882581,116.312986 187.989302,115.412578 C187.096022,114.51217 185.881333,114.003968 184.613,114 Z" id="Path" fill="#E88024"></path>
                <ellipse id="Oval" fill="#FFFFFF" opacity="0.6" cx="256.613" cy="21.262" rx="8.137" ry="8.475"></ellipse>
                <path d="M256.613,30.948 C251.438967,30.948 247.265,26.6006517 247.265,21.262 C247.265,15.9233483 251.438967,11.576 256.613,11.576 C261.787033,11.576 265.961,15.9233483 265.961,21.262 C265.961,26.6006517 261.787033,30.948 256.613,30.948 Z M256.613,28.526 C260.426849,28.526 263.539,25.2845748 263.539,21.262 C263.539,17.2394252 260.426849,13.998 256.613,13.998 C252.799151,13.998 249.687,17.2394252 249.687,21.262 C249.687,25.2845748 252.799151,28.526 256.613,28.526 Z" id="Oval" fill="#E88024" fill-rule="nonzero"></path>
                <ellipse id="Oval" fill="#FFFFFF" opacity="0.6" cx="36" cy="83.063" rx="8.137" ry="8.475"></ellipse>
                <path d="M36,92.749 C30.8259673,92.749 26.652,88.4016517 26.652,83.063 C26.652,77.7243483 30.8259673,73.377 36,73.377 C41.1740327,73.377 45.348,77.7243483 45.348,83.063 C45.348,88.4016517 41.1740327,92.749 36,92.749 Z M36,90.327 C39.8138493,90.327 42.926,87.0855748 42.926,83.063 C42.926,79.0404252 39.8138493,75.799 36,75.799 C32.1861507,75.799 29.074,79.0404252 29.074,83.063 C29.074,87.0855748 32.1861507,90.327 36,90.327 Z" id="Oval" fill="#E88024" fill-rule="nonzero"></path>
            </g>
            <path d="M21.268,13.33 C22.4579622,14.2300143 23.615368,15.1722827 24.738,16.155 C25.454,15.195 26.085,14.105 26.616,12.886 L27.978,13.603 C27.376,14.965 26.688,16.169 25.898,17.202 C26.8606462,18.0881359 27.7886726,19.0111586 28.68,19.969 L27.519,21.145 C26.773,20.227 25.899,19.309 24.909,18.377 C23.7405183,19.6020847 22.3359272,20.5777126 20.78,21.245 L19.906,19.897 C21.3511679,19.3048033 22.658971,18.4214745 23.748,17.302 C22.5975577,16.2796943 21.4066018,15.3039111 20.178,14.377 L21.268,13.331 L21.268,13.33 Z M17.755,11.065 L29.311,11.065 L29.311,12.5 L19.203,12.5 L19.203,21.805 L29.756,21.805 L29.756,23.239 L17.755,23.239 L17.755,11.065 Z M34.831,14.305 L40.653,14.305 L40.653,21.331 L34.83,21.331 L34.83,14.306 L34.831,14.305 Z M39.261,20.012 L39.261,18.464 L36.236,18.464 L36.236,20.012 L39.262,20.012 L39.261,20.012 Z M36.236,17.173 L39.262,17.173 L39.262,15.625 L36.236,15.625 L36.236,17.173 Z M42.043,23.683 L40.896,23.683 L40.495,22.277 L41.742,22.32 C42.101,22.32 42.287,22.062 42.287,21.56 L42.287,12.5 L36.953,12.5 L36.953,11.124 L43.749,11.124 L43.749,21.977 C43.749,23.11 43.176,23.683 42.043,23.683 Z M31.82,12.914 L33.283,12.914 L33.283,23.811 L31.82,23.811 L31.82,12.915 L31.82,12.914 Z M34.358,10.376 C35.018,11.15 35.591,11.996 36.093,12.928 L34.745,13.631 C34.2547086,12.6932885 33.6685792,11.8089001 32.996,10.992 L34.358,10.376 Z M51.836,10.462 C52.238,11.179 52.639,11.982 53.026,12.885 L57.428,12.885 L57.428,14.018 C55.808,17.115 53.471,19.48 50.431,21.115 C51.004,21.631 51.693,21.918 52.496,21.975 C53.169,22.004 54.13,22.018 55.377,22.018 C56.137,22.018 57.184,21.975 58.532,21.918 L58.159,23.395 L55.607,23.395 C54.331,23.395 53.413,23.38 52.868,23.366 C51.291,23.337 50.116,22.907 49.313,22.047 C48.997,21.717 48.753,21.559 48.553,21.559 C48.28,21.559 47.764,22.291 46.99,23.753 L45.8,22.922 C46.775,20.972 47.692,20.011 48.581,20.011 C48.768,20.011 48.94,20.04 49.111,20.126 C49.1534857,20.1359662 49.1931511,20.155457 49.227,20.183 C51.979,18.721 54.101,16.771 55.593,14.348 L46.703,14.348 L46.703,12.885 L51.363,12.885 C51.001863,12.1395786 50.5794095,11.425455 50.1,10.75 L51.835,10.463 L51.836,10.462 Z M68.196,10.548 L69.716,10.548 L69.716,14.778 C70.9300686,15.648831 72.1020577,16.5768782 73.228,17.559 L72.296,18.964 C71.4709663,18.092447 70.6102304,17.255398 69.716,16.455 L69.716,23.796 L68.196,23.796 L68.196,10.55 L68.196,10.548 Z M62.819,16.168 C63.521,16.527 64.181,16.957 64.783,17.445 C65.328,16.355 65.701,15.15 65.916,13.845 L63.478,13.845 C62.79,15.437 61.887,16.756 60.74,17.803 L59.708,16.513 C61.299,15.036 62.374,13.043 62.934,10.533 L64.439,10.792 C64.31,11.351 64.167,11.882 64.009,12.398 L67.379,12.398 L67.379,13.731 C66.891,18.061 64.797,21.331 61.099,23.538 L60.066,22.262 C61.758,21.302 63.106,20.097 64.095,18.635 C63.4574602,18.1243901 62.7648235,17.6866705 62.03,17.33 L62.819,16.168 Z M79.551,20.656 L79.551,22.061 C78.089,22.577 76.44,23.008 74.576,23.337 L74.389,21.875 C76.354,21.574 78.074,21.172 79.551,20.656 Z M76.598,10.45 L78.003,10.994 C77.329,12.672 76.641,14.048 75.938,15.124 C76.454829,15.0687321 76.9708773,15.0063929 77.486,14.937 C77.73,14.464 77.988,13.962 78.276,13.432 L79.58,13.919 C78.404,16.084 77.4,17.676 76.598,18.709 C77.515,18.508 78.433,18.249 79.379,17.934 L79.379,19.267 C77.759,19.812 76.239,20.185 74.805,20.371 L74.404,19.024 C74.662,18.909 74.891,18.766 75.078,18.594 C75.508,18.164 76.053,17.389 76.712,16.285 C76.024,16.371 75.307,16.472 74.562,16.572 L74.203,15.21 C74.433,15.11 74.633,14.923 74.82,14.665 C75.508,13.389 76.096,11.984 76.598,10.45 Z M79.322,12.156 L82.576,12.156 L82.576,10.579 L84.082,10.579 L84.082,12.156 L87.337,12.156 L87.337,13.59 L84.082,13.59 L84.082,15.281 L86.921,15.281 L86.921,16.715 L79.795,16.715 L79.795,15.28 L82.576,15.28 L82.576,13.59 L79.322,13.59 L79.322,12.156 Z M86.648,17.719 L86.648,23.755 L85.2,23.755 L85.2,23.225 L81.558,23.225 L81.558,23.755 L80.096,23.755 L80.096,17.719 L86.648,17.719 Z M81.558,21.819 L85.2,21.819 L85.2,19.124 L81.558,19.124 L81.558,21.82 L81.558,21.819 Z M88.942,11.84 L94.391,11.84 L94.391,10.564 L95.911,10.564 L95.911,11.84 L101.331,11.84 L101.331,13.289 L95.911,13.289 L95.911,14.307 L100.384,14.307 L100.384,18.723 L97.044,18.723 C98.047,20.013 99.667,21.16 101.89,22.163 L100.843,23.468 C98.549,22.092 96.914,20.572 95.911,18.895 L95.911,23.798 L94.391,23.798 L94.391,18.866 C93.33,20.73 91.638,22.264 89.33,23.468 L88.455,22.078 C90.605,21.188 92.197,20.07 93.244,18.723 L89.946,18.723 L89.946,14.307 L94.391,14.307 L94.391,13.289 L88.942,13.289 L88.942,11.84 Z M98.879,17.36 L98.879,15.697 L95.91,15.697 L95.91,17.36 L98.878,17.36 L98.879,17.36 Z M94.391,17.36 L94.391,15.697 L91.451,15.697 L91.451,17.36 L94.391,17.36 Z" id="Shape" fill="#020202" fill-rule="nonzero"></path>
            <path d="M19.265,63.037 L31.225,63.037 L31.225,63.823 L25.137,63.823 L25.137,68.109 C25.407,68.068 25.679,68.027 25.923,67.987 L25.923,68.759 C25.679,68.8 25.408,68.841 25.137,68.895 L25.137,70.21 L24.187,70.21 L24.187,69.017 C22.899,69.167 21.312,69.302 19.427,69.41 L19.305,68.57 L20.567,68.515 L20.567,63.823 L19.265,63.823 L19.265,63.037 Z M21.448,68.475 C22.3631534,68.4155924 23.2767496,68.3342357 24.188,68.231 L24.188,67.308 L21.448,67.308 L21.448,68.475 Z M21.448,66.59 L24.188,66.59 L24.188,65.573 L21.448,65.573 L21.448,66.59 Z M21.448,64.84 L24.188,64.84 L24.188,63.823 L21.448,63.823 L21.448,64.84 Z M20.987,58.236 L29.557,58.236 L29.557,62.142 L20.987,62.142 L20.987,58.236 Z M28.622,61.436 L28.622,60.528 L21.922,60.528 L21.922,61.437 L28.622,61.437 L28.622,61.436 Z M21.922,59.836 L28.622,59.836 L28.622,58.969 L21.922,58.969 L21.922,59.837 L21.922,59.836 Z M26.276,65.532 L25.842,65.532 L25.842,64.732 L30.466,64.732 L30.466,65.492 C30.2296232,66.4872045 29.7600477,67.4119597 29.096,68.19 C29.693,68.637 30.398,69.03 31.239,69.383 L30.737,70.197 C29.842,69.777 29.083,69.315 28.472,68.814 C27.849,69.356 27.089,69.817 26.208,70.197 L25.706,69.437 C26.52,69.085 27.225,68.678 27.808,68.19 C27.0784499,67.4495772 26.5509804,66.5344246 26.276,65.532 Z M28.405,67.607 C28.9360911,67.0033038 29.3377016,66.297082 29.585,65.532 L27.116,65.532 C27.3653017,66.3206142 27.8085015,67.0340662 28.405,67.607 Z M38.968,57.667 C39.118,58.033 39.267,58.44 39.402,58.887 L44.772,58.887 L44.772,59.782 L32.798,59.782 L32.798,58.887 L38.358,58.887 C38.2287803,58.5333975 38.0750746,58.1892304 37.898,57.857 L38.968,57.667 Z M42.603,70.143 L41.463,70.143 L41.233,69.261 L42.318,69.301 C42.874,69.301 43.158,69.085 43.158,68.651 L43.158,64.962 L34.426,64.962 L34.426,70.183 L33.49,70.183 L33.49,64.108 L44.094,64.108 L44.094,68.854 C44.094,69.709 43.593,70.143 42.603,70.143 Z M35.009,60.663 L42.589,60.663 L42.589,63.294 L35.009,63.294 L35.009,60.664 L35.009,60.663 Z M41.64,62.535 L41.64,61.423 L35.958,61.423 L35.958,62.535 L41.64,62.535 Z M36.134,65.83 L41.464,65.83 L41.464,68.543 L36.134,68.543 L36.134,65.83 Z M40.596,67.81 L40.596,66.563 L37.016,66.563 L37.016,67.81 L40.596,67.81 Z M56.909,58.413 L56.909,70.17 L55.933,70.17 L55.933,69.288 L48.8,69.288 L48.8,70.197 L47.81,70.197 L47.81,58.413 L56.91,58.413 L56.909,58.413 Z M48.8,68.339 L55.933,68.339 L55.933,65.789 L48.8,65.789 L48.8,68.339 Z M48.8,64.895 L55.933,64.895 L55.933,62.508 L48.8,62.508 L48.8,64.895 Z M48.8,61.613 L55.933,61.613 L55.933,59.362 L48.8,59.362 L48.8,61.613 Z M61.723,57.789 L62.686,57.789 L62.686,60.352 L64.259,60.352 L64.259,61.288 L62.686,61.288 L62.686,62.332 C63.3872737,63.0536197 64.0527395,63.8091937 64.68,64.596 L64.124,65.424 C63.6750183,64.720518 63.1952184,64.0371869 62.686,63.376 L62.686,70.17 L61.723,70.17 L61.723,63.417 C61.3106269,64.6462128 60.7505283,65.8208081 60.055,66.915 L59.635,65.857 C60.611,64.529 61.303,62.997 61.723,61.287 L60.07,61.287 L60.07,60.352 L61.724,60.352 L61.724,57.789 L61.723,57.789 Z M65.723,63.919 L66.619,64.122 C66.185,66.02 65.548,67.647 64.734,69.031 L63.894,68.488 C64.734,67.118 65.344,65.6 65.724,63.918 L65.723,63.919 Z M70.633,63.85 C71.223185,65.4544453 71.7121451,67.094332 72.097,68.76 L71.216,69.153 C70.768,67.268 70.28,65.6 69.751,64.135 L70.633,63.85 Z M67.595,70.034 L66.212,70.034 L66.022,69.126 C66.456,69.153 66.863,69.18 67.256,69.18 C67.622,69.18 67.812,68.976 67.812,68.583 L67.812,62.793 L64.503,62.793 L64.503,61.857 L72.111,61.857 L72.111,62.793 L68.789,62.793 L68.789,68.827 C68.789,69.627 68.382,70.034 67.595,70.034 Z M65.222,58.562 L71.406,58.562 L71.406,59.484 L65.222,59.484 L65.222,58.562 Z M74.959,62.454 C74.5217514,63.0918158 74.0412917,63.6989057 73.521,64.271 L73.196,63.241 C74.53441,61.6314721 75.5227491,59.7607116 76.098,57.748 L77.02,58.168 C76.7403561,59.0639096 76.3864623,59.9349298 75.962,60.772 L75.962,70.142 L74.96,70.142 L74.96,62.454 L74.959,62.454 Z M82.295,62.494 L83.245,62.494 L83.245,70.061 L82.295,70.061 L82.295,62.494 Z M78.81,62.535 L79.746,62.535 L79.746,64.583 C79.719,67.146 79.054,69.017 77.752,70.21 L77.02,69.573 C78.186,68.543 78.783,66.875 78.81,64.583 L78.81,62.535 Z M80.532,57.816 L81.414,57.816 C82.254,59.633 83.719,61.22 85.78,62.589 L85.224,63.417 C83.326,62.155 81.902,60.596 80.966,58.752 C79.881,60.826 78.526,62.427 76.884,63.566 L76.342,62.739 C78.159,61.477 79.556,59.837 80.532,57.816 Z M19.265,167.904 L31.556,167.904 L31.556,168.713 L25.3,168.713 L25.3,173.116 C25.579,173.075 25.857,173.033 26.108,172.991 L26.108,173.785 C25.858,173.827 25.578,173.869 25.3,173.925 L25.3,175.276 L24.325,175.276 L24.325,174.05 C22.6984885,174.230969 21.0671637,174.36569 19.433,174.454 L19.308,173.59 L20.604,173.534 L20.604,168.713 L19.266,168.713 L19.266,167.904 L19.265,167.904 Z M21.508,173.493 C22.4485392,173.431869 23.3874761,173.348178 24.324,173.242 L24.324,172.294 L21.508,172.294 L21.508,173.493 Z M21.508,171.555 L24.324,171.555 L24.324,170.51 L21.508,170.51 L21.508,171.555 Z M21.508,169.758 L24.324,169.758 L24.324,168.713 L21.508,168.713 L21.508,169.758 Z M21.035,162.971 L29.842,162.971 L29.842,166.984 L21.035,166.984 L21.035,162.971 Z M28.881,166.26 L28.881,165.326 L21.996,165.326 L21.996,166.26 L28.881,166.26 Z M21.996,164.615 L28.881,164.615 L28.881,163.723 L21.996,163.723 L21.996,164.615 Z M26.47,170.468 L26.024,170.468 L26.024,169.646 L30.776,169.646 L30.776,170.426 C30.5332387,171.449221 30.0506294,172.400043 29.368,173.2 C29.982,173.66 30.706,174.064 31.57,174.426 L31.055,175.262 C30.135,174.83 29.355,174.357 28.727,173.841 C28.087,174.398 27.306,174.872 26.4,175.262 L25.884,174.482 C26.721,174.12 27.445,173.702 28.044,173.2 C27.2943679,172.438896 26.7524402,171.498269 26.47,170.468 Z M28.658,172.601 C29.2036149,171.980364 29.6161169,171.254402 29.87,170.468 L27.334,170.468 C27.5899296,171.278572 28.045164,172.011967 28.658,172.601 Z M38.398,168.559 L38.398,173.562 C38.831,173.395 39.249,173.2 39.653,173.005 L39.82,173.883 C39.096,174.175 38.232,174.482 37.256,174.803 L36.991,173.939 C37.284,173.841 37.437,173.659 37.437,173.395 L37.437,164.211 C40.377,163.765 42.663,163.264 44.294,162.706 L44.851,163.514 C44.154,163.751 43.346,163.974 42.399,164.197 C42.412,165.507 42.454,166.637 42.51,167.597 L45.492,167.597 L45.492,168.559 L42.594,168.559 C42.649,169.159 42.733,169.689 42.817,170.134 C43.04,171.374 43.318,172.308 43.639,172.935 C43.945,173.52 44.182,173.813 44.363,173.813 C44.545,173.799 44.712,173.033 44.851,171.5 L45.687,171.96 C45.423,173.966 45.032,174.984 44.531,174.984 C44.099,174.984 43.639,174.607 43.151,173.869 C42.649,173.102 42.245,171.974 41.939,170.482 C41.8037245,169.847297 41.705889,169.205189 41.646,168.559 L38.399,168.559 L38.398,168.559 Z M41.437,164.406 C40.517,164.601 39.5,164.783 38.399,164.964 L38.399,167.598 L41.562,167.598 C41.4740928,166.536314 41.4323867,165.471309 41.437,164.406 Z M40.698,172.141 C41.478,173.088 42.092,173.939 42.524,174.677 L41.757,175.193 C41.231929,174.303275 40.6455093,173.451212 40.002,172.643 L40.698,172.141 Z M36.086,162.455 L36.991,162.873 C36.6471254,163.916436 36.2037533,164.924405 35.667,165.883 L35.667,175.276 L34.692,175.276 L34.692,167.403 C34.218,168.043 33.716,168.643 33.159,169.228 L32.839,168.169 C34.3239994,166.523134 35.4320919,164.573137 36.086,162.455 Z M57.951,163.152 L57.951,175.235 L56.948,175.235 L56.948,174.329 L49.618,174.329 L49.618,175.262 L48.6,175.262 L48.6,163.152 L57.951,163.152 Z M49.617,173.353 L56.947,173.353 L56.947,170.733 L49.617,170.733 L49.617,173.353 Z M49.617,169.813 L56.947,169.813 L56.947,167.361 L49.617,167.361 L49.617,169.813 Z M49.617,166.441 L56.947,166.441 L56.947,164.128 L49.617,164.128 L49.617,166.441 Z M62.898,162.511 L63.888,162.511 L63.888,165.145 L65.504,165.145 L65.504,166.106 L63.888,166.106 L63.888,167.18 C64.6082885,167.921728 65.2917758,168.698327 65.936,169.507 L65.366,170.357 C64.794,169.479 64.306,168.782 63.888,168.253 L63.888,175.235 L62.898,175.235 L62.898,168.295 C62.4742825,169.558291 61.8987371,170.765459 61.184,171.89 L60.752,170.803 C61.756,169.437 62.466,167.863 62.898,166.106 L61.198,166.106 L61.198,165.145 L62.898,165.145 L62.898,162.511 Z M67.01,168.811 L67.93,169.019 C67.483,170.97 66.828,172.642 65.992,174.064 L65.128,173.507 C65.992,172.099 66.619,170.538 67.01,168.81 L67.01,168.811 Z M72.054,168.741 C72.6606053,170.389222 73.1632583,172.073861 73.559,173.785 L72.654,174.189 C72.194,172.252 71.692,170.539 71.149,169.033 L72.054,168.74 L72.054,168.741 Z M68.933,175.095 L67.51,175.095 L67.315,174.162 C67.761,174.189 68.179,174.217 68.583,174.217 C68.96,174.217 69.155,174.008 69.155,173.604 L69.155,167.654 L65.755,167.654 L65.755,166.692 L73.572,166.692 L73.572,167.653 L70.16,167.653 L70.16,173.855 C70.16,174.677 69.742,175.095 68.934,175.095 L68.933,175.095 Z M66.493,163.305 L72.849,163.305 L72.849,164.253 L66.494,164.253 L66.494,163.305 L66.493,163.305 Z M76.5,167.305 C76.0508941,167.960343 75.5574047,168.584138 75.023,169.172 L74.688,168.113 C76.0635714,166.459289 77.0794928,164.53711 77.671,162.469 L78.618,162.901 C78.3307041,163.821673 77.9671102,164.716776 77.531,165.577 L77.531,175.207 L76.5,175.207 L76.5,167.305 Z M84.04,167.347 L85.015,167.347 L85.015,175.123 L84.039,175.123 L84.039,167.347 L84.04,167.347 Z M80.458,167.389 L81.419,167.389 L81.419,169.493 C81.391,172.127 80.709,174.05 79.371,175.276 L78.618,174.621 C79.817,173.562 80.43,171.848 80.458,169.493 L80.458,167.389 Z M82.228,162.539 L83.133,162.539 C83.998,164.406 85.503,166.037 87.621,167.444 L87.05,168.294 C85.098,166.998 83.635,165.396 82.674,163.5 C81.559,165.633 80.165,167.277 78.479,168.448 L77.921,167.598 C79.789,166.302 81.224,164.615 82.228,162.538 L82.228,162.539 Z" id="Shape" fill="#6D6E71" fill-rule="nonzero"></path>
            <g id="Group" transform="translate(22.000000, 130.000000)" fill="#2A3052" fill-rule="nonzero">
                <path d="M17.858,0.81 L19.03,0.942 L18.546,3.958 C18.702,3.97 19.506,3.97 20.956,3.958 C20.996,6.173 20.539,9.478 19.608,11.377 C20.609,12.453 21.238,13.184 21.498,13.569 L20.716,14.439 L19.112,12.524 C18.176,14.058 17.362,15.128 16.67,15.732 C16.442576,15.422078 16.2047745,15.1199066 15.957,14.826 C16.863,13.858 17.757,12.869 18.29,11.706 L16.223,9.646 L17.263,5.056 L15.957,5.056 L15.957,3.958 L17.42,3.958 L17.858,0.81 Z M19.893,5.064 L18.414,5.064 C18.1424448,6.475058 17.8246067,7.87681403 17.461,9.267 C18.011,9.802 18.452,10.237 18.785,10.569 C19.351,9.36 19.893,5.923 19.893,5.064 Z M25.035,0.831 L26.115,1.201 C24.875,3.774 23.911,5.443 23.225,6.209 C26.352,5.937 28.073,5.748 28.389,5.64 C27.623,4.188 27.179,3.374 27.055,3.2 L28.063,2.71 C29.151,4.583 29.98,6.131 30.55,7.356 L29.454,7.908 L28.884,6.649 C24.932,7.105 22.54,7.34 21.708,7.356 C21.6539727,6.99723883 21.5932956,6.63951063 21.526,6.283 C22.463,5.768 23.632,3.951 25.035,0.831 Z M28.54,15.732 L28.54,14.737 L23.576,14.737 L23.576,15.732 L22.436,15.732 L22.436,8.834 L29.64,8.834 L29.64,15.732 L28.54,15.732 Z M28.531,9.896 L23.604,9.896 L23.604,13.611 L28.531,13.611 L28.531,9.896 Z M1.797,2.776 L1.797,1.944 L14.237,1.944 L14.237,2.776 L11.869,2.776 L11.869,7.182 L15.26,7.182 L15.26,8.462 L11.87,8.462 L11.87,15.404 L10.55,15.404 L10.55,8.462 L5.844,8.452 C5.492,14.378 2.324,15.404 1.928,15.664 C1.67885385,15.34484 1.44974717,15.0105313 1.242,14.663 C2.787,13.479 4.544,12.157 4.544,8.451 C3.224,8.458 1.751,8.487 0.886,8.461 L0.886,7.182 L4.544,7.182 L4.544,2.776 L1.798,2.776 L1.797,2.776 Z M10.517,3.008 L5.972,3.008 L5.972,7.154 L10.516,7.154 L10.516,3.008 L10.517,3.008 Z" id="Shape"></path>
            </g>
            <g id="Group" transform="translate(133.000000, 152.000000)" fill="#FFFFFF" fill-rule="nonzero">
                <path d="M26.548,17.042 L27.838,17.042 L28.218,2.302 L26.157,2.302 L26.548,17.042 Z M26.163,20.49 C26.244,21.278 26.829,21.48 27.305,21.48 C27.781,21.48 28.305,21.122 28.305,20.49 C28.305,19.55 27.641,19.328 27.197,19.328 C26.752,19.328 26.082,19.699 26.163,20.489 L26.163,20.49 Z" id="Shape"></path>
                <g id="Shape">
                    <path d="M10.12,20.243 C10.469,20.541 10.765,20.808 11.01,21.045 C10.299,22.09 9.208,23.006 8.618,23.414 C8.36363531,23.087132 8.11030072,22.7594637 7.858,22.431 C8.56,21.916 9.314,21.187 10.12,20.243 Z M14.26,11.939 L14.26,19.904 L8.555,19.904 L8.555,11.939 L14.26,11.939 Z M12.874,17.482 L10.053,17.482 L10.053,18.78 L12.874,18.78 L12.874,17.482 Z M12.874,15.24 L10.053,15.24 L10.053,16.537 L12.874,16.537 L12.874,15.24 Z M12.874,13.03 L10.053,13.03 L10.053,14.327 L12.874,14.327 L12.874,13.029 L12.874,13.03 Z M22.934,3.395 L22.934,2.072 L12.887,2.072 C12.277,0.732 12.045,0.209 12.191,0.499 L10.404,0.792 L11.102,2.072 L0.917,2.072 L0.917,3.395 L2.951,3.395 L2.951,5.927 L21.358,5.927 L21.358,4.76 L4.547,4.76 L4.547,3.395 L22.934,3.395 Z M3.705,7.07 L19.999,7.07 L19.999,10.607 L3.705,10.607 L3.705,7.07 Z M5.355,8.085 L5.355,9.583 L18.378,9.583 L18.378,8.085 L5.354,8.085 L5.355,8.085 Z M2.274,11.71 C4.027,11.694 5.787,11.694 7.554,11.71 L7.554,21.382 C7.554,21.893 7.996,23.581 4.726,23.227 L4.379,21.886 C5.614,22.046 6.231,21.878 6.231,21.382 L6.231,19.224 L3.487,19.224 C3.118,21.272 2.608,22.606 1.957,23.227 C1.757,23.059 1.41,22.748 0.917,22.296 C2.739,19.832 2.257,12.501 2.274,11.711 L2.274,11.71 Z M3.612,16.167 L3.612,18.033 L6.17,18.033 L6.17,16.167 L3.612,16.167 Z M6.204,12.994 L3.656,12.994 L3.656,15.006 L6.204,15.006 L6.204,12.994 Z"></path>
                    <path d="M19.517,18.307 L18.739,18.807 C17.979,17.567 17.415,16.731 17.049,16.299 C17.031,17.772 16.976,18.837 16.885,19.494 C16.59,21.627 15.8,22.528 15.273,23.275 L14.153,22.283 L13.781,22.762 C12.799,21.724 12.156,21.082 11.852,20.834 C12.175,20.529 12.458,20.26 12.699,20.026 C13.3657275,20.5468598 13.9805828,21.1309054 14.535,21.77 C14.779,21.328 15.273,20.661 15.487,19.397 C15.774,17.709 15.578,13.427 15.704,11.641 C17.4219922,11.6336612 19.1400078,11.6336612 20.858,11.641 L20.858,21.206 C20.799,21.861 22.102,21.746 22.102,21.206 L22.365,18.479 C22.586,18.571 22.959,18.706 23.483,18.883 C23.236,20.548 23.311,22.569 22.365,22.762 C21.694,22.794 19.517,23.254 19.517,21.872 L19.517,18.307 Z M19.517,17.877 L19.517,13.018 L17.039,13.018 C17.053,14.021 17.059,14.92 17.054,15.715 L17.827,15.26 C18.674,16.443 19.237,17.3 19.517,17.83 L19.517,17.877 Z"></path>
                </g>
            </g>
            <path d="M270.016,109.796 L270.016,110.816 C268.486,111.371 266.761,111.821 264.811,112.181 L264.676,111.131 C266.716,110.801 268.486,110.351 270.016,109.796 Z M267.241,98.996 L268.246,99.386 C267.481,101.336 266.701,102.896 265.921,104.066 C266.626,103.976 267.331,103.871 268.051,103.751 C268.336,103.211 268.636,102.656 268.936,102.086 L269.881,102.431 C268.516,104.966 267.376,106.766 266.461,107.846 C267.604459,107.620077 268.731877,107.319432 269.836,106.946 L269.836,107.906 C268.216,108.461 266.656,108.836 265.156,109.031 L264.871,108.056 C265.066,107.966 265.231,107.861 265.366,107.741 C265.936,107.156 266.641,106.166 267.481,104.756 C266.626,104.891 265.771,105.011 264.901,105.131 L264.631,104.141 C264.796,104.066 264.946,103.931 265.081,103.736 C265.921,102.356 266.641,100.781 267.241,98.996 Z M269.836,100.901 L273.421,100.901 L273.421,99.086 L274.516,99.086 L274.516,100.901 L278.086,100.901 L278.086,101.951 L274.516,101.951 L274.516,104.171 L277.651,104.171 L277.651,105.221 L270.331,105.221 L270.331,104.171 L273.421,104.171 L273.421,101.951 L269.836,101.951 L269.836,100.901 Z M277.216,106.721 L277.216,112.751 L276.166,112.751 L276.166,112.031 L271.876,112.031 L271.876,112.751 L270.811,112.751 L270.811,106.721 L277.216,106.721 Z M271.876,111.011 L276.166,111.011 L276.166,107.741 L271.876,107.741 L271.876,111.011 Z M279.916,100.586 L285.781,100.586 L285.781,99.086 L286.891,99.086 L286.891,100.586 L292.726,100.586 L292.726,101.621 L286.891,101.621 L286.891,103.091 L291.616,103.091 L291.616,107.336 L287.806,107.336 C288.886,108.866 290.716,110.216 293.266,111.416 L292.531,112.346 C289.876,110.861 288.016,109.196 286.936,107.336 L286.891,107.336 L286.891,112.781 L285.781,112.781 L285.781,107.336 L285.736,107.336 C284.596,109.376 282.706,111.056 280.051,112.376 L279.421,111.386 C281.911,110.336 283.726,108.986 284.851,107.336 L281.086,107.336 L281.086,103.091 L285.781,103.091 L285.781,101.621 L279.916,101.621 L279.916,100.586 Z M290.536,106.346 L290.536,104.111 L286.891,104.111 L286.891,106.346 L290.536,106.346 Z M285.781,106.346 L285.781,104.111 L282.166,104.111 L282.166,106.346 L285.781,106.346 Z" id="Shape" fill="#2A3052" fill-rule="nonzero"></path>
        </g>
    </g>
</svg>