<?xml version="1.0" encoding="UTF-8"?>
<svg width="299px" height="197px" viewBox="0 0 299 197" version="1.1" xmlns="http://www.w3.org/2000/svg" xmlns:xlink="http://www.w3.org/1999/xlink">
    <!-- Generator: Sketch 52.6 (67491) - http://www.bohemiancoding.com/sketch -->
    <title>falls</title>
    <desc>Created with Sketch.</desc>
    <g id="Page-1" stroke="none" stroke-width="1" fill="none" fill-rule="evenodd">
        <g id="falls">
            <polygon id="Path" fill="#F1F2F2" points="1.81469654e-14 0 299 0 299 197 0 197"></polygon>
            <path d="M1.99333333,1.9798995 L1.99333333,195.020101 L297.006667,195.020101 L297.006667,1.9798995 L1.99333333,1.9798995 Z M299,0 L299,197 L0,197 L0,0 L299,0 Z" id="Path" fill="#C2C2C2" fill-rule="nonzero"></path>
            <path d="M41.6149329,54.8568182 L41.6149329,73.7621212 L76.7701342,73.7621212 L76.7701342,54.8568182 L41.6149329,54.8568182 Z M41.6149329,53.8810606 L76.7701342,53.8810606 L76.7701342,34 L77.7432886,34 L77.7432886,53.8810606 L112.89849,53.8810606 L112.89849,34 L113.871644,34 L113.871644,53.8810606 L149.026846,53.8810606 L149.026846,34 L150,34 L150,53.8810606 L185.155201,53.8810606 L185.155201,34 L186.128356,34 L186.128356,53.8810606 L221.283557,53.8810606 L221.283557,34 L222.256711,34 L222.256711,53.8810606 L257.411913,53.8810606 L257.411913,34 L258.385067,34 L258.385067,53.8810606 L295,53.8810606 L295,54.8568182 L258.385067,54.8568182 L258.385067,73.7621212 L295,73.7621212 L295,74.7378788 L258.385067,74.7378788 L258.385067,93.6431818 L295,93.6431818 L295,94.6189394 L258.385067,94.6189394 L258.385067,113.524242 L295,113.524242 L295,114.5 L258.385067,114.5 L258.385067,133.405303 L295,133.405303 L295,134.381061 L258.385067,134.381061 L258.385067,153.286364 L295,153.286364 L295,154.262121 L258.385067,154.262121 L258.385067,173.167424 L295,173.167424 L295,174.143182 L258.385067,174.143182 L258.385067,195 L257.411913,195 L257.411913,174.143182 L222.256711,174.143182 L222.256711,195 L221.283557,195 L221.283557,174.143182 L186.128356,174.143182 L186.128356,195 L185.155201,195 L185.155201,174.143182 L150,174.143182 L150,195 L149.026846,195 L149.026846,174.143182 L113.871644,174.143182 L113.871644,195 L112.89849,195 L112.89849,174.143182 L77.7432886,174.143182 L77.7432886,195 L76.7701342,195 L76.7701342,174.143182 L41.6149329,174.143182 L41.6149329,195 L40.6417785,195 L40.6417785,174.143182 L5,174.143182 L5,173.167424 L40.6417785,173.167424 L40.6417785,154.262121 L5,154.262121 L5,153.286364 L40.6417785,153.286364 L40.6417785,134.381061 L5,134.381061 L5,133.405303 L40.6417785,133.405303 L40.6417785,114.5 L5,114.5 L5,113.524242 L40.6417785,113.524242 L40.6417785,94.6189394 L5,94.6189394 L5,93.6431818 L40.6417785,93.6431818 L40.6417785,74.7378788 L5,74.7378788 L5,73.7621212 L40.6417785,73.7621212 L40.6417785,54.8568182 L5,54.8568182 L5,53.8810606 L40.6417785,53.8810606 L40.6417785,34 L41.6149329,34 L41.6149329,53.8810606 Z M257.411913,54.8568182 L222.256711,54.8568182 L222.256711,73.7621212 L257.411913,73.7621212 L257.411913,54.8568182 Z M221.283557,54.8568182 L186.128356,54.8568182 L186.128356,73.7621212 L221.283557,73.7621212 L221.283557,54.8568182 Z M185.155201,54.8568182 L150,54.8568182 L150,73.7621212 L185.155201,73.7621212 L185.155201,54.8568182 Z M149.026846,54.8568182 L113.871644,54.8568182 L113.871644,73.7621212 L149.026846,73.7621212 L149.026846,54.8568182 Z M112.89849,54.8568182 L77.7432886,54.8568182 L77.7432886,73.7621212 L112.89849,73.7621212 L112.89849,54.8568182 Z M41.6149329,74.7378788 L41.6149329,93.6431818 L76.7701342,93.6431818 L76.7701342,74.7378788 L41.6149329,74.7378788 Z M257.411913,74.7378788 L222.256711,74.7378788 L222.256711,93.6431818 L257.411913,93.6431818 L257.411913,74.7378788 Z M221.283557,74.7378788 L186.128356,74.7378788 L186.128356,93.6431818 L221.283557,93.6431818 L221.283557,74.7378788 Z M185.155201,74.7378788 L150,74.7378788 L150,93.6431818 L185.155201,93.6431818 L185.155201,74.7378788 Z M149.026846,74.7378788 L113.871644,74.7378788 L113.871644,93.6431818 L149.026846,93.6431818 L149.026846,74.7378788 Z M112.89849,74.7378788 L77.7432886,74.7378788 L77.7432886,93.6431818 L112.89849,93.6431818 L112.89849,74.7378788 Z M41.6149329,94.6189394 L41.6149329,113.524242 L76.7701342,113.524242 L76.7701342,94.6189394 L41.6149329,94.6189394 Z M257.411913,94.6189394 L222.256711,94.6189394 L222.256711,113.524242 L257.411913,113.524242 L257.411913,94.6189394 Z M221.283557,94.6189394 L186.128356,94.6189394 L186.128356,113.524242 L221.283557,113.524242 L221.283557,94.6189394 Z M185.155201,94.6189394 L150,94.6189394 L150,113.524242 L185.155201,113.524242 L185.155201,94.6189394 Z M149.026846,94.6189394 L113.871644,94.6189394 L113.871644,113.524242 L149.026846,113.524242 L149.026846,94.6189394 Z M112.89849,94.6189394 L77.7432886,94.6189394 L77.7432886,113.524242 L112.89849,113.524242 L112.89849,94.6189394 Z M41.6149329,114.5 L41.6149329,133.405303 L76.7701342,133.405303 L76.7701342,114.5 L41.6149329,114.5 Z M257.411913,114.5 L222.256711,114.5 L222.256711,133.405303 L257.411913,133.405303 L257.411913,114.5 Z M221.283557,114.5 L186.128356,114.5 L186.128356,133.405303 L221.283557,133.405303 L221.283557,114.5 Z M185.155201,114.5 L150,114.5 L150,133.405303 L185.155201,133.405303 L185.155201,114.5 Z M149.026846,114.5 L113.871644,114.5 L113.871644,133.405303 L149.026846,133.405303 L149.026846,114.5 Z M112.89849,114.5 L77.7432886,114.5 L77.7432886,133.405303 L112.89849,133.405303 L112.89849,114.5 Z M41.6149329,134.381061 L41.6149329,153.286364 L76.7701342,153.286364 L76.7701342,134.381061 L41.6149329,134.381061 Z M257.411913,134.381061 L222.256711,134.381061 L222.256711,153.286364 L257.411913,153.286364 L257.411913,134.381061 Z M221.283557,134.381061 L186.128356,134.381061 L186.128356,153.286364 L221.283557,153.286364 L221.283557,134.381061 Z M185.155201,134.381061 L150,134.381061 L150,153.286364 L185.155201,153.286364 L185.155201,134.381061 Z M149.026846,134.381061 L113.871644,134.381061 L113.871644,153.286364 L149.026846,153.286364 L149.026846,134.381061 Z M112.89849,134.381061 L77.7432886,134.381061 L77.7432886,153.286364 L112.89849,153.286364 L112.89849,134.381061 Z M41.6149329,154.262121 L41.6149329,173.167424 L76.7701342,173.167424 L76.7701342,154.262121 L41.6149329,154.262121 Z M257.411913,154.262121 L222.256711,154.262121 L222.256711,173.167424 L257.411913,173.167424 L257.411913,154.262121 Z M221.283557,154.262121 L186.128356,154.262121 L186.128356,173.167424 L221.283557,173.167424 L221.283557,154.262121 Z M185.155201,154.262121 L150,154.262121 L150,173.167424 L185.155201,173.167424 L185.155201,154.262121 Z M149.026846,154.262121 L113.871644,154.262121 L113.871644,173.167424 L149.026846,173.167424 L149.026846,154.262121 Z M112.89849,154.262121 L77.7432886,154.262121 L77.7432886,173.167424 L112.89849,173.167424 L112.89849,154.262121 Z" id="Shape" fill="#DFDEDE" fill-rule="nonzero"></path>
            <polygon id="Path" fill="#C2C2C2" points="4.395 31 294.395 31 294.395 33 4.395 33"></polygon>
            <g id="Group" transform="translate(4.395000, 88.900000)">
                <polygon id="Path" fill="#2A3052" fill-rule="nonzero" points="0.303 25.2165 0.303 24.0535 290.303 24.0535 290.303 25.2165"></polygon>
                <path d="M103.713523,12.7369427 L69.2817408,50.9573011 C68.6837352,51.621106 67.6807886,51.7256213 66.9587698,51.1993737 L32.4457698,26.0443737 C31.6673942,25.4770501 31.4963028,24.3861454 32.0636263,23.6077698 C32.6309499,22.8293942 33.7218546,22.6583028 34.5002302,23.2256263 L67.7426258,47.454539 L102.398259,8.98569893 C103.083939,8.22457335 104.274853,8.21557533 104.971955,8.96625323 L137.842384,44.3629515 L182.477836,0.585891434 C183.329161,-0.249061709 184.748622,-0.00250221194 185.268514,1.0706305 L228.683945,90.6864375 L257.816578,65.1172499 C258.540486,64.4818895 259.64239,64.553671 260.27775,65.2775783 C260.91311,66.0014855 260.841329,67.1033897 260.117422,67.7387501 L229.263422,94.8187501 C228.397541,95.5787184 227.045786,95.3051901 226.543486,94.2683695 L183.187561,4.77539123 L139.005164,48.1081086 C138.304207,48.7955854 137.174147,48.7691952 136.506045,48.0497468 L103.713523,12.7369427 Z" id="Path" fill="#2A3052" fill-rule="nonzero"></path>
                <path d="M185.317,56.376 L149.417,56.376 L143.87,47.94 L138.323,56.376 L102.423,56.376 C99.726,56.376 97.569,58.571 97.569,61.306 L97.569,86.768 C97.569,89.503 99.726,91.698 102.423,91.698 L185.279,91.698 C187.975,91.698 190.132,89.503 190.132,86.768 L190.132,61.306 C190.132,58.61 187.975,56.376 185.317,56.376 Z" id="Path" fill="#E88024"></path>
                <ellipse id="Oval" fill="#FFFFFF" opacity="0.6" cx="33.473" cy="24.635" rx="8.32" ry="8.705"></ellipse>
                <path d="M33.473,34.503 C28.223621,34.503 23.99,30.0734723 23.99,24.635 C23.99,19.1965277 28.223621,14.767 33.473,14.767 C38.722379,14.767 42.956,19.1965277 42.956,24.635 C42.956,30.0734723 38.722379,34.503 33.473,34.503 Z M33.473,32.177 C37.4136392,32.177 40.63,28.8118052 40.63,24.635 C40.63,20.4581948 37.4136392,17.093 33.473,17.093 C29.5323608,17.093 26.316,20.4581948 26.316,24.635 C26.316,28.8118052 29.5323608,32.177 33.473,32.177 Z" id="Oval" fill="#E88024" fill-rule="nonzero"></path>
                <ellipse id="Oval" fill="#FFFFFF" opacity="0.6" cx="258.967" cy="65.813" rx="8.32" ry="8.705"></ellipse>
                <path d="M258.967,75.681 C253.717621,75.681 249.484,71.2514723 249.484,65.813 C249.484,60.3745277 253.717621,55.945 258.967,55.945 C264.216379,55.945 268.45,60.3745277 268.45,65.813 C268.45,71.2514723 264.216379,75.681 258.967,75.681 Z M258.967,73.355 C262.907639,73.355 266.124,69.9898052 266.124,65.813 C266.124,61.6361948 262.907639,58.271 258.967,58.271 C255.026361,58.271 251.81,61.6361948 251.81,65.813 C251.81,69.9898052 255.026361,73.355 258.967,73.355 Z" id="Oval" fill="#E88024" fill-rule="nonzero"></path>
            </g>
            <g id="Group" opacity="0.9" transform="translate(252.000000, 129.000000)" fill="#6D6E71" fill-rule="nonzero">
                <path d="M14.575,12.93 L15.468,12.93 L15.468,5.725 L16.651,7.835 L17.211,6.968 C16.158,5.598 15.577,4.862 15.468,4.757 L15.478,3.974 L16.903,3.974 L16.903,3.105 L15.478,3.105 L15.468,0.648 L14.575,0.648 L14.575,3.105 L12.871,3.105 L12.871,3.975 L14.466,3.975 C14.369,4.949 13.128,7.741 12.483,8.419 C12.495,8.423 12.64,8.777 12.917,9.482 C13.666,8.141 14.064,7.336 14.575,5.85 L14.575,12.93 Z M0.694,12.982 L0.694,1.417 L9.748,1.417 L9.748,12.982 L8.72,12.982 L8.72,12.122 L1.705,12.122 L1.705,12.982 L0.695,12.982 L0.694,12.982 Z M8.81,2.236 L1.706,2.236 L1.706,4.534 L8.81,4.534 L8.81,2.236 Z M8.787,5.372 L1.729,5.372 L1.729,7.738 L8.787,7.738 L8.787,5.372 Z M8.774,8.669 L1.743,8.669 L1.743,11.163 L8.773,11.163 L8.773,8.669 L8.774,8.669 Z M17.632,1.417 L25.04,1.417 L25.04,2.225 L22.816,2.225 L22.816,3.228 L24.819,3.228 L24.819,6.376 L17.947,6.376 L17.947,3.228 L19.968,3.228 L19.968,2.225 L17.632,2.225 L17.632,1.417 Z M22.022,2.287 L20.72,2.287 L20.72,3.246 L22.022,3.246 L22.022,2.286 L22.022,2.287 Z M22.788,4.009 L22.788,5.645 L23.952,5.645 L23.952,4.009 L22.788,4.009 Z M22.008,3.999 L20.772,3.999 L20.772,5.642 L22.008,5.642 L22.008,4 L22.008,3.999 Z M20.028,3.977 L18.841,3.977 L18.841,5.657 L20.027,5.657 L20.027,3.977 L20.028,3.977 Z M24.446,7.01 L24.446,7.79 L18.236,7.79 L18.236,7.01 L24.446,7.01 Z M25.04,8.814 L25.04,9.56 L21.712,9.56 L21.712,12.924 L20.887,12.924 L20.887,9.56 L17.643,9.56 L17.643,8.814 L25.04,8.814 Z" id="Shape"></path>
                <path d="M22.724,10.7 C23.004,10.418 23.195,10.238 23.295,10.16 C23.645,10.425 24.85,11.602 25.29,12.266 C25.14,12.429 24.922,12.643 24.639,12.908 C24.422,12.48 23.783,11.744 22.724,10.7 Z M19.361,9.886 C19.654,10.136 19.858,10.309 19.974,10.406 C19.246,11.37 18.514,12.122 17.779,12.662 C17.5787009,12.4412506 17.389148,12.2109839 17.211,11.972 C18.371,11.032 19.087,10.338 19.361,9.886 Z" id="Shape"></path>
            </g>
            <g id="Group" transform="translate(134.000000, 154.000000)" fill="#FFFFFF" fill-rule="nonzero">
                <path d="M10.184,19.905 C10.534,20.204 10.832,20.472 11.077,20.709 C10.364,21.758 9.269,22.677 8.677,23.087 C8.312,22.617 8.057,22.288 7.914,22.1 C8.619,21.583 9.375,20.852 10.184,19.905 Z M14.34,11.571 L14.34,19.564 L8.614,19.564 L8.614,11.571 L14.339,11.571 L14.34,11.571 Z M12.948,17.134 L10.117,17.134 L10.117,18.436 L12.948,18.436 L12.948,17.134 Z M12.948,14.884 L10.117,14.884 L10.117,16.186 L12.948,16.186 L12.948,14.884 Z M12.948,12.666 L10.117,12.666 L10.117,13.967 L12.948,13.967 L12.948,12.666 Z M23.043,2.997 L23.043,1.669 L12.961,1.669 C12.349,0.326 12.116,-0.201 12.262,0.092 L10.469,0.385 L11.17,1.669 L0.95,1.669 L0.95,2.997 L2.99,2.997 L2.99,5.538 L21.463,5.538 L21.463,4.367 L4.593,4.367 L4.593,2.997 L23.044,2.997 L23.043,2.997 Z M3.746,6.685 L20.098,6.685 L20.098,10.235 L3.746,10.235 L3.746,6.685 Z M5.402,7.704 L5.402,9.207 L18.472,9.207 L18.472,7.704 L5.402,7.704 Z M2.31,11.342 C4.07,11.326 5.836,11.326 7.61,11.342 L7.61,21.047 C7.61,21.561 8.053,23.254 4.771,22.899 L4.423,21.553 C5.662,21.713 6.282,21.545 6.282,21.047 L6.282,18.882 L3.527,18.882 C3.157,20.937 2.647,22.276 1.993,22.899 C1.791,22.73 1.443,22.419 0.949,21.964 C2.777,19.492 2.293,12.135 2.311,11.342 L2.31,11.342 Z M3.653,15.814 L3.653,17.687 L6.22,17.687 L6.22,15.814 L3.653,15.814 Z M6.254,12.63 L3.697,12.63 L3.697,14.649 L6.254,14.649 L6.254,12.629 L6.254,12.63 Z" id="Shape"></path>
                <path d="M19.615,17.962 L18.834,18.464 C18.07,17.22 17.504,16.38 17.137,15.946 C17.119,17.425 17.065,18.494 16.973,19.153 C16.677,21.293 15.885,22.198 15.355,22.948 L14.232,21.951 L13.858,22.432 C12.873,21.391 12.228,20.746 11.922,20.498 C12.247,20.192 12.53,19.922 12.772,19.688 C13.584,20.32 14.232,20.99 14.614,21.438 C14.86,20.993 15.355,20.324 15.57,19.056 C15.858,17.362 15.662,13.066 15.787,11.272 C18.01,11.265 19.735,11.265 20.96,11.272 L20.96,20.871 C20.901,21.528 22.208,21.413 22.208,20.871 L22.472,18.134 C22.694,18.227 23.068,18.362 23.594,18.54 C23.346,20.211 23.421,22.24 22.472,22.432 C21.799,22.464 19.615,22.926 19.615,21.54 L19.615,17.962 Z M19.615,17.531 L19.615,12.654 L17.128,12.654 C17.142,13.66 17.147,14.562 17.142,15.36 L17.918,14.904 C18.768,16.091 19.333,16.95 19.614,17.482 L19.614,17.531 L19.615,17.531 Z" id="Shape"></path>
            </g>
            <path d="M161.036,159.071 L163.331,159.071 L162.961,171.953 L161.431,171.953 L161.036,159.071 Z M162.171,173.754 C162.615,173.754 162.961,173.877 163.257,174.174 C163.528,174.444 163.677,174.79 163.677,175.21 C163.677,175.654 163.528,176 163.257,176.271 C162.96,176.542 162.59,176.691 162.171,176.691 C161.751,176.691 161.406,176.542 161.134,176.271 C160.844542,175.994708 160.683595,175.610103 160.69,175.21 C160.69,174.79 160.838,174.445 161.134,174.173 C161.406,173.877 161.751,173.754 162.171,173.754 Z" id="Shape" fill="#FFFFFF" fill-rule="nonzero"></path>
            <g id="Group" transform="translate(18.000000, 136.000000)" fill="#2A3052" fill-rule="nonzero">
                <path d="M19.213,0.247 L20.519,0.394 L19.979,3.754 C20.153,3.767 21.049,3.767 22.665,3.754 C22.71,6.221 22.2,9.904 21.163,12.02 C22.278,13.218 22.98,14.032 23.268,14.462 L22.398,15.432 L20.61,13.297 C19.567,15.007 18.66,16.198 17.89,16.871 C17.6364269,16.5254939 17.3712762,16.1886358 17.095,15.861 C18.105,14.783 19.101,13.681 19.695,12.386 L17.391,10.091 L18.549,4.978 L17.095,4.978 L17.095,3.755 L18.725,3.755 L19.213,0.247 Z M21.48,4.986 L19.832,4.986 C19.5297145,6.55819826 19.1758569,8.12004074 18.771,9.669 C19.383,10.265 19.875,10.749 20.246,11.119 C20.876,9.773 21.48,5.944 21.48,4.986 Z M27.208,0.27 L28.411,0.683 C27.029,3.549 25.957,5.409 25.193,6.263 C28.676,5.96 30.593,5.748 30.945,5.629 C30.092,4.01 29.597,3.104 29.459,2.909 L30.582,2.365 C31.794,4.45 32.717,6.175 33.352,7.54 L32.132,8.155 L31.497,6.753 C27.093,7.26 24.429,7.523 23.503,7.54 C23.433,7.086 23.366,6.687 23.3,6.344 C24.343,5.77 25.646,3.746 27.208,0.271 L27.208,0.27 Z M31.113,16.871 L31.113,15.763 L25.583,15.763 L25.583,16.871 L24.313,16.871 L24.313,9.187 L32.34,9.187 L32.34,16.871 L31.113,16.871 Z M31.103,10.371 L25.614,10.371 L25.614,14.509 L31.104,14.509 L31.104,10.37 L31.103,10.371 Z M1.32,2.437 L1.32,1.511 L15.178,1.511 L15.178,2.437 L12.541,2.437 L12.541,7.347 L16.319,7.347 L16.319,8.772 L12.54,8.772 L12.54,16.506 L11.07,16.506 L11.07,8.772 L5.826,8.76 C5.434,15.363 1.904,16.506 1.464,16.796 C1.18649037,16.4401642 0.931333202,16.0674477 0.7,15.68 C2.42,14.361 4.377,12.889 4.377,8.76 C2.907,8.768 1.266,8.8 0.302,8.772 L0.302,7.346 L4.377,7.346 L4.377,2.437 L1.32,2.437 Z M11.033,2.696 L5.972,2.696 L5.972,7.314 L11.033,7.314 L11.033,2.696 Z" id="Shape"></path>
            </g>
            <path d="M22.278,17.292 L22.278,22.577 C22.653,22.407 23.028,22.236 23.403,22.048 L23.693,23.583 C22.721,23.958 21.596,24.367 20.3,24.793 L19.84,23.276 C20.317,23.122 20.556,22.816 20.556,22.372 L20.556,11.495 C24.119,10.967 26.949,10.37 29.046,9.688 L30.018,11.103 C29.182,11.376 28.211,11.649 27.102,11.921 C27.119,13.336 27.171,14.564 27.239,15.604 L30.614,15.604 L30.614,17.292 L27.375,17.292 C27.426,17.905 27.495,18.417 27.597,18.86 C27.87,20.343 28.159,21.4 28.483,22.031 C28.79,22.679 29.029,23.021 29.165,23.021 C29.285,23.021 29.421,22.168 29.557,20.48 L31.024,21.281 C30.683,23.821 30.154,25.101 29.455,25.101 C28.875,25.101 28.279,24.64 27.648,23.753 C27.018,22.867 26.488,21.452 26.045,19.543 C25.8812534,18.7996379 25.7560861,18.0482998 25.67,17.292 L22.278,17.292 Z M25.38,12.296 C24.426,12.484 23.386,12.671 22.278,12.842 L22.278,15.604 L25.517,15.604 C25.4426096,14.5027104 25.3969274,13.3996694 25.38,12.296 Z M24.988,21.281 C25.909,22.441 26.608,23.481 27.102,24.367 L25.772,25.287 C25.262,24.35 24.596,23.31 23.778,22.151 L24.988,21.281 Z M18.817,9.432 L20.437,10.199 C20.0338939,11.4415257 19.5079617,12.6407852 18.867,13.779 L18.867,25.322 L17.13,25.322 L17.13,16.372 C16.67,16.951 16.175,17.513 15.664,18.059 L15.084,16.184 C16.754,14.274 17.999,12.024 18.818,9.432 L18.817,9.432 Z M33.581,10.046 L46.555,10.046 L46.555,11.785 L41.168,11.785 L41.168,15.74 L47.731,15.74 L47.731,17.513 L41.168,17.513 L41.168,23.242 C41.168,24.469 40.52,25.1 39.224,25.1 L36.496,25.1 L36.121,23.378 C36.991,23.446 37.826,23.48 38.611,23.48 C39.121,23.48 39.378,23.242 39.378,22.781 L39.378,17.513 L32.524,17.513 L32.524,15.74 L39.378,15.74 L39.378,11.785 L33.58,11.785 L33.58,10.046 L33.581,10.046 Z" id="Shape" fill="#000000" fill-rule="nonzero"></path>
            <path d="M258.916,186.188 L258.916,187.412 C257.08,188.078 255.01,188.618 252.67,189.05 L252.508,187.79 C254.956,187.394 257.08,186.854 258.916,186.188 Z M255.586,173.228 L256.792,173.696 C255.874,176.036 254.938,177.908 254.002,179.312 C254.856334,179.202325 255.708491,179.076301 256.558,178.934 C256.9,178.286 257.26,177.62 257.62,176.936 L258.754,177.35 C257.116,180.392 255.748,182.552 254.65,183.848 C256.018,183.578 257.368,183.218 258.7,182.768 L258.7,183.92 C256.756,184.586 254.884,185.036 253.084,185.27 L252.742,184.1 C252.976,183.992 253.174,183.866 253.336,183.722 C254.02,183.02 254.866,181.832 255.874,180.14 C254.848,180.302 253.822,180.446 252.778,180.59 L252.454,179.402 C252.652,179.312 252.832,179.15 252.994,178.916 C254.002,177.26 254.866,175.37 255.586,173.228 Z M258.7,175.514 L263.002,175.514 L263.002,173.336 L264.316,173.336 L264.316,175.514 L268.6,175.514 L268.6,176.774 L264.316,176.774 L264.316,179.438 L268.078,179.438 L268.078,180.698 L259.294,180.698 L259.294,179.438 L263.002,179.438 L263.002,176.774 L258.7,176.774 L258.7,175.514 Z M267.556,182.498 L267.556,189.734 L266.296,189.734 L266.296,188.87 L261.148,188.87 L261.148,189.734 L259.87,189.734 L259.87,182.498 L267.556,182.498 Z M261.148,187.646 L266.296,187.646 L266.296,183.722 L261.148,183.722 L261.148,187.646 Z M270.796,175.136 L277.834,175.136 L277.834,173.336 L279.166,173.336 L279.166,175.136 L286.168,175.136 L286.168,176.378 L279.166,176.378 L279.166,178.142 L284.836,178.142 L284.836,183.236 L280.264,183.236 C281.56,185.072 283.756,186.692 286.816,188.132 L285.934,189.248 C282.748,187.466 280.516,185.468 279.22,183.236 L279.166,183.236 L279.166,189.77 L277.834,189.77 L277.834,183.236 L277.78,183.236 C276.412,185.684 274.144,187.7 270.958,189.284 L270.202,188.096 C273.19,186.836 275.368,185.216 276.718,183.236 L272.2,183.236 L272.2,178.142 L277.834,178.142 L277.834,176.378 L270.796,176.378 L270.796,175.136 Z M283.54,182.048 L283.54,179.366 L279.166,179.366 L279.166,182.048 L283.54,182.048 Z M277.834,182.048 L277.834,179.366 L273.496,179.366 L273.496,182.048 L277.834,182.048 Z" id="Shape" fill="#2A3052" fill-rule="nonzero"></path>
        </g>
    </g>
</svg>