<?xml version="1.0" encoding="UTF-8"?>
<svg width="299px" height="197px" viewBox="0 0 299 197" version="1.1" xmlns="http://www.w3.org/2000/svg" xmlns:xlink="http://www.w3.org/1999/xlink">
    <!-- Generator: Sketch 52.6 (67491) - http://www.bohemiancoding.com/sketch -->
    <title>goes outside</title>
    <desc>Created with Sketch.</desc>
    <g id="Page-1" stroke="none" stroke-width="1" fill="none" fill-rule="evenodd">
        <g id="goes-outside">
            <g id="Group">
                <polygon id="Path" fill="#F1F2F2" points="0 0 299 0 299 197 0 197"></polygon>
                <path d="M1.98671096,1.9798995 L1.98671096,195.020101 L297.013289,195.020101 L297.013289,1.9798995 L1.98671096,1.9798995 Z M299,0 L299,197 L0,197 L0,0 L299,0 Z" id="Path" fill="#C2C2C2" fill-rule="nonzero"></path>
                <g id="Group-4" transform="translate(2.000000, 32.000000)">
                    <path d="M2.887,23.4456836 L2.887,22.2388448 L292.54325,22.2388448 L292.54325,23.4456836 L2.887,23.4456836 Z M2.887,63.9796458 L2.887,62.772807 L292.54325,62.772807 L292.54325,63.9796458 L2.887,63.9796458 Z M2.887,104.513608 L2.887,103.30677 L292.54325,103.30677 L292.54325,104.513608 L2.887,104.513608 Z M2.887,145.010211 L2.887,143.803373 L292.54325,143.803373 L292.54325,145.010211 L2.887,145.010211 Z M37.2665806,2.59396226 L38.4734194,2.59396226 L38.4734194,162.264151 L37.2665806,162.264151 L37.2665806,2.59396226 Z M73.9314556,2.59396226 L75.1382944,2.59396226 L75.1382944,162.264151 L73.9314556,162.264151 L73.9314556,2.59396226 Z M110.558956,2.59396226 L111.765794,2.59396226 L111.765794,162.264151 L110.558956,162.264151 L110.558956,2.59396226 Z M147.223831,2.59396226 L148.430669,2.59396226 L148.430669,162.264151 L147.223831,162.264151 L147.223831,2.59396226 Z M183.851331,2.59396226 L185.058169,2.59396226 L185.058169,162.264151 L183.851331,162.264151 L183.851331,2.59396226 Z M220.478831,2.59396226 L221.685669,2.59396226 L221.685669,162.264151 L220.478831,162.264151 L220.478831,2.59396226 Z M2.887,84.2279477 L2.887,83.0211089 L292.54325,83.0211089 L292.54325,84.2279477 L2.887,84.2279477 Z" id="Shape" fill="#DFDEDE" fill-rule="nonzero"></path>
                    <path d="M257.143706,2.59396226 L258.350544,2.59396226 L258.350544,162.264151 L257.143706,162.264151 L257.143706,2.59396226 Z M2.887,43.7313439 L2.887,42.5245051 L292.54325,42.5245051 L292.54325,43.7313439 L2.887,43.7313439 Z M2.887,124.76191 L2.887,123.555072 L292.54325,123.555072 L292.54325,124.76191 L2.887,124.76191 Z" id="Shape" fill="#2A3052" fill-rule="nonzero"></path>
                    <polygon id="Path" fill="#C2C2C2" fill-rule="nonzero" points="0.794 2.60551619 0.794 0.191464945 294.63625 0.191464945 294.63625 2.60551619"></polygon>
                    <path d="M38.7780566,85.19078 C37.9130397,85.6922858 36.8052541,85.3976018 36.3037483,84.5325849 C35.8022425,83.667568 36.0969265,82.5597824 36.9619434,82.0582766 L73.6268184,60.8012955 C74.2847374,60.4198577 75.110905,60.4902479 75.6948117,60.9774903 L108.13667,88.0486852 L146.812609,61.8768219 C147.491995,61.4170836 148.395598,61.4715961 149.014788,62.0096747 L184.128007,92.5231925 L219.601392,42.0864018 C220.176609,41.2685463 221.305917,41.071849 222.123773,41.6470661 C222.941628,42.2222832 223.138325,43.3515916 222.563108,44.1694472 L185.935608,96.2471831 C185.318256,97.1249473 184.077222,97.2761138 183.267212,96.5722121 L147.68976,65.655274 L109.037516,91.8111026 C108.369276,92.2632987 107.482446,92.2187049 106.862938,91.701755 L74.3473092,64.5690015 L38.7780566,85.19078 Z" id="Path" fill="#2A3052" fill-rule="nonzero"></path>
                    <path d="M185.987125,114.445283 L151.0415,114.445283 L145.6595,106.263774 L140.2775,114.445283 L105.331875,114.445283 C104.07173,114.451176 102.865994,114.959272 101.98197,115.856931 C101.097947,116.754589 100.608676,117.967645 100.622625,119.22717 L100.622625,143.921132 C100.606032,146.539822 102.712091,148.678366 105.331875,148.703019 L186.0245,148.703019 C187.284645,148.697126 188.490381,148.18903 189.374405,147.291371 C190.258428,146.393713 190.747699,145.180657 190.73375,143.921132 L190.73375,119.22717 C190.73971,117.963586 190.242729,116.749496 189.352348,115.8525 C188.461966,114.955504 187.251275,114.449236 185.987125,114.445283 Z" id="Path" fill="#E88024"></path>
                    <g id="Group" opacity="0.6" transform="translate(212.037500, 34.509434)" fill="#FFFFFF">
                        <ellipse id="Oval" cx="9.04475" cy="8.6184906" rx="8.110375" ry="8.44301887"></ellipse>
                    </g>
                    <path d="M221.08225,52.777969 C215.925296,52.777969 211.764849,48.4468836 211.764849,43.1279245 C211.764849,37.8089654 215.925296,33.47788 221.08225,33.47788 C226.239204,33.47788 230.399651,37.8089654 230.399651,43.1279245 C230.399651,48.4468836 226.239204,52.777969 221.08225,52.777969 Z M221.08225,50.3639177 C224.883769,50.3639177 227.985599,47.1348665 227.985599,43.1279245 C227.985599,39.1209825 224.883769,35.8919313 221.08225,35.8919313 C217.280731,35.8919313 214.178901,39.1209825 214.178901,43.1279245 C214.178901,47.1348665 217.280731,50.3639177 221.08225,50.3639177 Z" id="Oval" fill="#E88024" fill-rule="nonzero"></path>
                    <g id="Group" opacity="0.6" transform="translate(28.900000, 74.603774)" fill="#FFFFFF">
                        <ellipse id="Oval" cx="8.97" cy="9.0207547" rx="8.110375" ry="8.44301887"></ellipse>
                    </g>
                    <path d="M37.87,93.2745728 C32.7130457,93.2745728 28.5525994,88.9434874 28.5525994,83.6245283 C28.5525994,78.3055692 32.7130457,73.9744838 37.87,73.9744838 C43.0269543,73.9744838 47.1874006,78.3055692 47.1874006,83.6245283 C47.1874006,88.9434874 43.0269543,93.2745728 37.87,93.2745728 Z M37.87,90.8605215 C41.6715185,90.8605215 44.7733494,87.6314703 44.7733494,83.6245283 C44.7733494,79.6175863 41.6715185,76.3885351 37.87,76.3885351 C34.0684815,76.3885351 30.9666506,79.6175863 30.9666506,83.6245283 C30.9666506,87.6314703 34.0684815,90.8605215 37.87,90.8605215 Z" id="Oval" fill="#E88024" fill-rule="nonzero"></path>
                </g>
            </g>
            <path d="M17.586,11.149 L18.96,11.392 C18.8616363,11.9566511 18.7449078,12.5179487 18.61,13.075 L21.547,13.075 L21.547,14.328 C21.237,16.618 20.59,18.545 19.607,20.094 C19.849,20.444 20.119,20.727 20.388,20.916 C21.358,21.63 22.921,22.006 25.049,22.034 C25.844,22.034 26.666,21.994 27.514,21.926 L27.231,23.394 L25.724,23.394 C22.881,23.394 20.834,22.909 19.594,21.966 C19.300919,21.7356692 19.0384616,21.4688431 18.813,21.172 C18.0017083,22.1247973 17.02504,22.9232737 15.93,23.529 L15.176,22.182 C16.2579757,21.5970698 17.2072097,20.7945789 17.964,19.825 C17.5596248,18.9970174 17.2260996,18.1362748 16.967,17.252 C16.657,17.763 16.321,18.222 15.957,18.652 L15.001,17.44 C16.281,15.877 17.142,13.79 17.587,11.15 L17.586,11.149 Z M17.775,15.635 C18.098,16.807 18.435,17.79 18.785,18.585 C19.432,17.4 19.903,15.999 20.172,14.409 L18.232,14.409 C18.084,14.84 17.936,15.244 17.775,15.635 Z M22.935,11.203 L24.349,11.203 L24.349,14.625 C25.4864462,15.426529 26.5790864,16.2898248 27.622,17.211 L26.787,18.477 C26.010648,17.6504826 25.1971424,16.8596672 24.349,16.107 L24.349,21.172 L22.934,21.172 L22.934,11.203 L22.935,11.203 Z M29.575,11.567 L39.827,11.567 L39.827,12.941 L35.57,12.941 L35.57,16.066 L40.757,16.066 L40.757,17.467 L35.57,17.467 L35.57,21.993 C35.57,22.963 35.058,23.462 34.034,23.462 L31.879,23.462 L31.583,22.102 C32.27,22.155 32.93,22.182 33.549,22.182 C33.954,22.182 34.156,21.993 34.156,21.63 L34.156,17.467 L28.74,17.467 L28.74,16.067 L34.156,16.067 L34.156,12.941 L29.576,12.941 L29.576,11.567 L29.575,11.567 Z M46.159,13.776 C47.2769443,14.6215382 48.3643053,15.5067702 49.419,16.43 C50.1233438,15.4773505 50.7152681,14.4465164 51.183,13.358 L52.463,14.032 C51.897,15.312 51.251,16.443 50.51,17.413 C51.4141777,18.2456722 52.2858285,19.1129865 53.123,20.013 L52.032,21.118 C51.2728813,20.1982232 50.4537603,19.3296609 49.58,18.518 C48.4819272,19.6688773 47.1620365,20.5853169 45.7,21.212 L44.879,19.946 C46.2368724,19.3896471 47.4657007,18.5597626 48.489,17.508 C47.40818,16.5472201 46.2892819,15.6301506 45.135,14.759 L46.159,13.776 Z M42.859,11.648 L53.716,11.648 L53.716,12.995 L44.219,12.995 L44.219,21.737 L54.133,21.737 L54.133,23.085 L42.858,23.085 L42.858,11.647 L42.859,11.648 Z M58.902,14.692 L64.372,14.692 L64.372,21.292 L58.902,21.292 L58.902,14.692 Z M63.065,20.054 L63.065,18.599 L60.222,18.599 L60.222,20.054 L63.065,20.054 Z M60.222,17.386 L63.065,17.386 L63.065,15.931 L60.222,15.931 L60.222,17.386 Z M65.678,23.502 L64.601,23.502 L64.223,22.182 L65.395,22.222 C65.732,22.222 65.907,21.98 65.907,21.508 L65.907,12.995 L60.897,12.995 L60.897,11.701 L67.281,11.701 L67.281,21.899 C67.281,22.963 66.743,23.502 65.678,23.502 Z M56.074,13.385 L57.448,13.385 L57.448,23.623 L56.074,23.623 L56.074,13.385 Z M58.459,11.001 C59.0859304,11.7401951 59.6323457,12.5440626 60.089,13.399 L58.822,14.059 C58.3614046,13.1781494 57.8107993,12.3473822 57.179,11.58 L58.459,11 L58.459,11.001 Z M74.88,11.081 C75.257,11.755 75.635,12.51 75.998,13.358 L80.134,13.358 L80.134,14.423 C78.612,17.333 76.416,19.555 73.56,21.091 C74.099,21.576 74.745,21.845 75.5,21.899 C76.133,21.926 77.036,21.939 78.208,21.939 C78.922,21.939 79.905,21.899 81.171,21.845 L80.821,23.233 L78.423,23.233 C77.224,23.233 76.362,23.219 75.85,23.206 C74.368,23.179 73.264,22.775 72.51,21.966 C72.213,21.656 71.984,21.508 71.795,21.508 C71.539,21.508 71.055,22.196 70.327,23.57 L69.209,22.788 C70.125,20.956 70.987,20.054 71.822,20.054 C71.997,20.054 72.159,20.081 72.321,20.161 C72.3602618,20.1707564 72.3968293,20.1892111 72.428,20.215 C75.015,18.841 77.008,17.009 78.41,14.732 L70.058,14.732 L70.058,13.358 L74.436,13.358 C74.086,12.644 73.695,11.971 73.25,11.351 L74.88,11.081 Z M90.25,11.163 L91.679,11.163 L91.679,15.137 C92.8197827,15.955218 93.9210256,16.8272021 94.979,17.75 L94.104,19.07 C93.328519,18.2512254 92.5194938,17.4648862 91.679,16.713 L91.679,23.61 L90.251,23.61 L90.251,11.163 L90.25,11.163 Z M85.2,16.443 C85.86,16.78 86.479,17.184 87.045,17.643 C87.557,16.618 87.907,15.487 88.109,14.261 L85.819,14.261 C85.172,15.756 84.324,16.996 83.246,17.979 L82.276,16.767 C83.771,15.379 84.782,13.507 85.307,11.149 L86.721,11.392 C86.6039809,11.8992293 86.4692316,12.4022043 86.317,12.9 L89.483,12.9 L89.483,14.153 C89.025,18.221 87.058,21.293 83.583,23.368 L82.613,22.168 C84.203,21.266 85.469,20.134 86.398,18.76 C85.7990459,18.2803089 85.1483373,17.869088 84.458,17.534 L85.199,16.444 L85.2,16.443 Z" id="Shape" fill="#020202" fill-rule="nonzero"></path>
            <path d="M20.885,64.177 L30.44,64.177 L30.44,64.806 L25.576,64.806 L25.576,68.229 C25.793,68.197 26.009,68.164 26.204,68.132 L26.204,68.749 C26.009,68.782 25.793,68.814 25.576,68.857 L25.576,69.908 L24.818,69.908 L24.818,68.955 C23.788,69.075 22.521,69.182 21.015,69.269 L20.918,68.597 L21.925,68.554 L21.925,64.807 L20.885,64.807 L20.885,64.179 L20.885,64.177 Z M22.629,68.522 C23.3601213,68.474518 24.0899981,68.4094993 24.818,68.327 L24.818,67.59 L22.629,67.59 L22.629,68.522 Z M22.629,67.016 L24.818,67.016 L24.818,66.203 L22.629,66.203 L22.629,67.016 Z M22.629,65.618 L24.818,65.618 L24.818,64.806 L22.629,64.806 L22.629,65.618 Z M22.261,60.343 L29.108,60.343 L29.108,63.463 L22.261,63.463 L22.261,60.343 Z M28.36,62.899 L28.36,62.174 L23.009,62.174 L23.009,62.899 L28.36,62.899 Z M23.009,61.621 L28.36,61.621 L28.36,60.928 L23.009,60.928 L23.009,61.621 Z M26.486,66.171 L26.139,66.171 L26.139,65.531 L29.833,65.531 L29.833,66.138 C29.6443983,66.9332284 29.2694197,67.6722173 28.739,68.294 C29.2681873,68.6810444 29.8432203,69.0011415 30.451,69.247 L30.05,69.897 C29.335,69.562 28.728,69.193 28.24,68.792 C27.743,69.226 27.136,69.594 26.432,69.897 L26.031,69.291 C26.681,69.009 27.244,68.684 27.711,68.294 C27.1278484,67.7027244 26.7060796,66.9717732 26.486,66.171 Z M28.186,67.828 C28.62,67.33 28.934,66.778 29.129,66.171 L27.158,66.171 C27.353,66.788 27.688,67.341 28.187,67.828 L28.186,67.828 Z M36.626,59.888 C36.745,60.18 36.864,60.505 36.972,60.863 L41.262,60.863 L41.262,61.578 L31.697,61.578 L31.697,60.863 L36.138,60.863 C36.0346525,60.5801065 35.9116871,60.3047709 35.77,60.039 L36.626,59.888 Z M39.529,69.854 L38.619,69.854 L38.435,69.15 L39.301,69.182 C39.745,69.182 39.973,69.009 39.973,68.662 L39.973,65.717 L32.997,65.717 L32.997,69.887 L32.249,69.887 L32.249,65.034 L40.72,65.034 L40.72,68.826 C40.72,69.508 40.32,69.856 39.529,69.856 L39.529,69.854 Z M33.462,62.282 L39.518,62.282 L39.518,64.383 L33.462,64.383 L33.462,62.282 Z M38.76,63.777 L38.76,62.888 L34.22,62.888 L34.22,63.777 L38.76,63.777 Z M34.361,66.409 L38.619,66.409 L38.619,68.576 L34.361,68.576 L34.361,66.409 Z M37.926,67.991 L37.926,66.994 L35.066,66.994 L35.066,67.991 L37.926,67.991 Z M50.958,60.484 L50.958,69.876 L50.178,69.876 L50.178,69.172 L44.479,69.172 L44.479,69.897 L43.689,69.897 L43.689,60.484 L50.958,60.484 Z M44.479,68.414 L50.178,68.414 L50.178,66.377 L44.479,66.377 L44.479,68.413 L44.479,68.414 Z M44.479,65.662 L50.178,65.662 L50.178,63.755 L44.479,63.755 L44.479,65.662 Z M44.479,63.04 L50.178,63.04 L50.178,61.242 L44.479,61.242 L44.479,63.04 Z M54.803,59.985 L55.573,59.985 L55.573,62.033 L56.829,62.033 L56.829,62.78 L55.572,62.78 L55.572,63.614 C56.103,64.156 56.634,64.763 57.165,65.424 L56.721,66.084 C56.3622466,65.522034 55.9788739,64.9761699 55.572,64.448 L55.572,69.876 L54.803,69.876 L54.803,64.481 C54.473776,65.46315 54.0265022,66.4016863 53.471,67.276 L53.135,66.431 C53.915,65.369 54.467,64.145 54.803,62.781 L53.482,62.781 L53.482,62.033 L54.803,62.033 L54.803,59.985 Z M57.999,64.882 L58.714,65.044 C58.367,66.561 57.858,67.861 57.208,68.966 L56.536,68.532 C57.2220223,67.4045418 57.7163907,66.171155 57.999,64.882 Z M61.92,64.828 C62.3915789,66.109258 62.7823458,67.418828 63.09,68.749 L62.386,69.063 C62.0716386,67.7060722 61.6810187,66.3679485 61.216,65.055 L61.92,64.828 Z M59.494,69.768 L58.389,69.768 L58.237,69.042 C58.584,69.063 58.909,69.085 59.223,69.085 C59.516,69.085 59.667,68.922 59.667,68.608 L59.667,63.983 L57.024,63.983 L57.024,63.235 L63.101,63.235 L63.101,63.983 L60.447,63.983 L60.447,68.803 C60.447,69.443 60.122,69.767 59.494,69.767 L59.494,69.768 Z M57.598,60.603 L62.538,60.603 L62.538,61.339 L57.598,61.339 L57.598,60.603 Z M65.376,63.712 C65.029,64.221 64.639,64.708 64.228,65.163 L63.968,64.34 C65.0369696,63.054529 65.8264082,61.5604535 66.286,59.953 L67.023,60.289 C66.795,61.014 66.513,61.708 66.178,62.369 L66.178,69.854 L65.376,69.854 L65.376,63.712 Z M71.236,63.744 L71.995,63.744 L71.995,69.789 L71.237,69.789 L71.237,63.744 L71.236,63.744 Z M68.453,63.777 L69.2,63.777 L69.2,65.413 C69.178,67.46 68.648,68.955 67.608,69.908 L67.023,69.399 C67.954,68.576 68.431,67.243 68.453,65.413 L68.453,63.777 Z M69.828,60.007 L70.533,60.007 C71.204,61.459 72.374,62.726 74.021,63.82 L73.577,64.48 C72.06,63.473 70.923,62.228 70.175,60.754 C69.308,62.412 68.225,63.69 66.915,64.6 L66.481,63.94 C67.9219138,62.9448101 69.0761014,61.5885448 69.828,60.007 Z M18,166.913 L28.073,166.913 L28.073,167.575 L22.945,167.575 L22.945,171.185 C23.173,171.15 23.402,171.115 23.607,171.081 L23.607,171.732 C23.402,171.767 23.173,171.801 22.945,171.847 L22.945,172.954 L22.145,172.954 L22.145,171.949 C21.06,172.075 19.725,172.189 18.137,172.281 L18.034,171.572 L19.096,171.527 L19.096,167.575 L18,167.575 L18,166.913 Z M19.838,171.493 C20.6085365,171.44279 21.3777578,171.374103 22.145,171.287 L22.145,170.51 L19.838,170.51 L19.838,171.493 Z M19.838,169.905 L22.145,169.905 L22.145,169.048 L19.838,169.048 L19.838,169.905 Z M19.838,168.432 L22.145,168.432 L22.145,167.575 L19.838,167.575 L19.838,168.432 Z M19.45,162.869 L26.668,162.869 L26.668,166.159 L19.45,166.159 L19.45,162.869 Z M25.88,165.565 L25.88,164.8 L20.238,164.8 L20.238,165.565 L25.88,165.565 Z M20.238,164.217 L25.88,164.217 L25.88,163.487 L20.238,163.487 L20.238,164.217 Z M23.904,169.014 L23.539,169.014 L23.539,168.34 L27.433,168.34 L27.433,168.98 C27.2342625,169.818346 26.8390635,170.597433 26.28,171.253 C26.782,171.63 27.376,171.961 28.084,172.258 L27.662,172.943 C26.908,172.589 26.269,172.201 25.755,171.778 C25.229,172.235 24.59,172.623 23.847,172.943 L23.425,172.303 C24.11,172.006 24.704,171.663 25.195,171.253 C24.58064,170.629236 24.1364949,169.858352 23.905,169.014 L23.904,169.014 Z M25.697,170.762 C26.1444162,170.253462 26.4827262,169.658526 26.691,169.014 L24.612,169.014 C24.818,169.665 25.172,170.248 25.697,170.762 Z M33.681,167.449 L33.681,171.549 C34.035,171.413 34.378,171.253 34.709,171.093 L34.846,171.813 C34.1536338,172.086594 33.4526008,172.337725 32.744,172.566 L32.527,171.858 C32.767,171.778 32.893,171.63 32.893,171.413 L32.893,163.886 C35.303,163.521 37.176,163.109 38.513,162.652 L38.969,163.315 C38.398,163.509 37.735,163.692 36.959,163.875 C36.97,164.948 37.004,165.873 37.05,166.661 L39.494,166.661 L39.494,167.449 L37.119,167.449 C37.164,167.941 37.233,168.375 37.301,168.74 C37.484,169.757 37.713,170.522 37.975,171.036 C38.227,171.516 38.421,171.756 38.569,171.756 C38.718,171.744 38.855,171.116 38.969,169.859 L39.654,170.236 C39.437,171.881 39.117,172.715 38.706,172.715 C38.352,172.715 37.976,172.406 37.576,171.801 C37.164,171.173 36.833,170.248 36.582,169.026 C36.4711395,168.505495 36.391001,167.978919 36.342,167.449 L33.681,167.449 Z M36.171,164.046 C35.417,164.206 34.583,164.354 33.681,164.503 L33.681,166.661 L36.274,166.661 C36.2017994,165.791237 36.1674336,164.918747 36.171,164.046 Z M35.564,170.385 C36.204,171.161 36.707,171.858 37.061,172.463 L36.432,172.886 C36.0014599,172.156755 35.5206287,171.458397 34.993,170.796 L35.564,170.385 Z M31.784,162.447 L32.526,162.79 C32.241,163.658 31.876,164.48 31.441,165.257 L31.441,172.954 L30.641,172.954 L30.641,166.501 C30.254,167.027 29.842,167.518 29.386,167.998 L29.123,167.13 C30.3400344,165.781111 31.2481476,164.182954 31.784,162.447 Z M49.704,163.018 L49.704,172.92 L48.882,172.92 L48.882,172.178 L42.874,172.178 L42.874,172.943 L42.04,172.943 L42.04,163.018 L49.704,163.018 Z M42.874,171.378 L48.882,171.378 L48.882,169.231 L42.874,169.231 L42.874,171.378 Z M42.874,168.478 L48.882,168.478 L48.882,166.468 L42.874,166.468 L42.874,168.478 Z M42.874,165.713 L48.882,165.713 L48.882,163.817 L42.874,163.817 L42.874,165.713 Z M53.758,162.493 L54.569,162.493 L54.569,164.651 L55.894,164.651 L55.894,165.439 L54.569,165.439 L54.569,166.319 C55.129,166.889 55.689,167.529 56.249,168.226 L55.78,168.923 C55.312,168.203 54.912,167.633 54.57,167.198 L54.57,172.92 L53.758,172.92 L53.758,167.232 C53.4110178,168.267545 52.939567,169.257121 52.354,170.179 L52,169.289 C52.822,168.169 53.404,166.879 53.758,165.439 L52.365,165.439 L52.365,164.651 L53.758,164.651 L53.758,162.493 Z M57.128,167.655 L57.882,167.826 C57.516,169.426 56.979,170.796 56.294,171.961 L55.586,171.504 C56.3091912,170.31504 56.8302561,169.014405 57.128,167.655 Z M61.262,167.598 C61.742,168.888 62.153,170.27 62.496,171.732 L61.753,172.064 C61.4217564,170.633278 61.010103,169.222372 60.52,167.838 L61.262,167.598 Z M58.704,172.806 L57.539,172.806 L57.379,172.041 C57.744,172.064 58.087,172.086 58.419,172.086 C58.727,172.086 58.887,171.916 58.887,171.584 L58.887,166.707 L56.1,166.707 L56.1,165.919 L62.507,165.919 L62.507,166.707 L59.709,166.707 L59.709,171.789 C59.709,172.463 59.366,172.806 58.704,172.806 Z M56.705,163.144 L61.913,163.144 L61.913,163.92 L56.705,163.92 L56.705,163.144 Z M64.905,166.421 C64.5370873,166.958039 64.132807,167.469237 63.695,167.951 L63.421,167.084 C64.5481469,165.728501 65.3805011,164.153022 65.865,162.458 L66.642,162.812 C66.402,163.578 66.105,164.309 65.751,165.005 L65.751,172.897 L64.906,172.897 L64.906,166.421 L64.905,166.421 Z M71.085,166.456 L71.884,166.456 L71.884,172.829 L71.084,172.829 L71.084,166.456 L71.085,166.456 Z M68.149,166.49 L68.937,166.49 L68.937,168.215 C68.914,170.373 68.355,171.949 67.258,172.955 L66.642,172.418 C67.624,171.55 68.126,170.145 68.149,168.215 L68.149,166.49 Z M69.599,162.515 L70.342,162.515 C71.05,164.045 72.284,165.382 74.02,166.535 L73.552,167.232 C71.952,166.17 70.753,164.857 69.965,163.303 C69.052,165.051 67.909,166.399 66.527,167.358 L66.071,166.661 C67.5901678,165.611953 68.807111,164.182243 69.6,162.515 L69.599,162.515 Z" id="Shape" fill="#6D6E71" fill-rule="nonzero"></path>
            <g id="Group" transform="translate(24.564000, 129.097000)" fill="#2A3052" fill-rule="nonzero">
                <path d="M16.211,0.948 L17.268,1.067 L16.832,3.785 C16.972,3.795 17.696,3.795 19.003,3.785 C19.04,5.78 18.628,8.758 17.789,10.47 C18.691,11.439 19.258,12.097 19.491,12.445 L18.787,13.229 L17.342,11.503 C16.498,12.886 15.765,13.849 15.142,14.393 C14.9368929,14.113855 14.7224379,13.8417006 14.499,13.577 C15.315,12.705 16.121,11.814 16.601,10.767 L14.738,8.91 L15.675,4.774 L14.499,4.774 L14.499,3.785 L15.817,3.785 L16.211,0.948 Z M18.045,4.781 L16.713,4.781 C16.4682137,6.05239927 16.1817258,7.31541378 15.854,8.568 C16.35,9.051 16.747,9.442 17.047,9.741 C17.557,8.652 18.045,5.556 18.045,4.781 Z M22.678,0.967 L23.651,1.3 C22.534,3.619 21.666,5.123 21.048,5.813 C23.865,5.568 25.416,5.397 25.7,5.301 C25.01,3.991 24.61,3.259 24.498,3.101 L25.407,2.661 C26.387,4.348 27.134,5.743 27.647,6.846 L26.66,7.344 L26.146,6.21 C22.586,6.62 20.43,6.832 19.681,6.846 C19.625,6.479 19.571,6.157 19.517,5.879 C20.361,5.415 21.414,3.778 22.678,0.967 Z M25.836,14.393 L25.836,13.497 L21.364,13.497 L21.364,14.393 L20.336,14.393 L20.336,8.178 L26.828,8.178 L26.828,14.393 L25.836,14.393 Z M25.829,9.136 L21.389,9.136 L21.389,12.483 L25.829,12.483 L25.829,9.136 Z M1.74,2.72 L1.74,1.97 L12.948,1.97 L12.948,2.72 L10.815,2.72 L10.815,6.69 L13.871,6.69 L13.871,7.843 L10.815,7.843 L10.815,14.098 L9.626,14.098 L9.626,7.843 L5.386,7.833 C5.068,13.173 2.214,14.098 1.857,14.333 C1.63250921,14.0450808 1.42611212,13.7435006 1.239,13.43 C2.631,12.363 4.214,11.173 4.214,7.833 C3.024,7.84 1.697,7.865 0.918,7.843 L0.918,6.69 L4.214,6.69 L4.214,2.72 L1.74,2.72 Z M9.596,2.929 L5.502,2.929 L5.502,6.664 L9.596,6.664 L9.596,2.929 Z" id="Shape"></path>
            </g>
            <path d="M271.376,108.385 L271.376,109.405 C269.846,109.96 268.121,110.41 266.171,110.77 L266.036,109.72 C268.076,109.39 269.846,108.94 271.376,108.385 Z M268.601,97.585 L269.606,97.975 C268.841,99.925 268.061,101.485 267.281,102.655 C267.986,102.565 268.691,102.46 269.411,102.34 C269.696,101.8 269.996,101.245 270.296,100.675 L271.241,101.02 C269.876,103.555 268.736,105.355 267.821,106.435 C268.964459,106.209077 270.091877,105.908432 271.196,105.535 L271.196,106.495 C269.576,107.05 268.016,107.425 266.516,107.62 L266.231,106.645 C266.426,106.555 266.591,106.45 266.726,106.33 C267.296,105.745 268.001,104.755 268.841,103.345 C267.986,103.48 267.131,103.6 266.261,103.72 L265.991,102.73 C266.156,102.655 266.306,102.52 266.441,102.325 C267.281,100.945 268.001,99.37 268.601,97.585 Z M271.196,99.49 L274.781,99.49 L274.781,97.675 L275.876,97.675 L275.876,99.49 L279.446,99.49 L279.446,100.54 L275.876,100.54 L275.876,102.76 L279.011,102.76 L279.011,103.81 L271.691,103.81 L271.691,102.76 L274.781,102.76 L274.781,100.54 L271.196,100.54 L271.196,99.49 Z M278.576,105.31 L278.576,111.34 L277.526,111.34 L277.526,110.62 L273.236,110.62 L273.236,111.34 L272.171,111.34 L272.171,105.31 L278.576,105.31 Z M273.236,109.6 L277.526,109.6 L277.526,106.33 L273.236,106.33 L273.236,109.6 Z M281.276,99.175 L287.141,99.175 L287.141,97.675 L288.251,97.675 L288.251,99.175 L294.086,99.175 L294.086,100.21 L288.251,100.21 L288.251,101.68 L292.976,101.68 L292.976,105.925 L289.166,105.925 C290.246,107.455 292.076,108.805 294.626,110.005 L293.891,110.935 C291.236,109.45 289.376,107.785 288.296,105.925 L288.251,105.925 L288.251,111.37 L287.141,111.37 L287.141,105.925 L287.096,105.925 C285.956,107.965 284.066,109.645 281.411,110.965 L280.781,109.975 C283.271,108.925 285.086,107.575 286.211,105.925 L282.446,105.925 L282.446,101.68 L287.141,101.68 L287.141,100.21 L281.276,100.21 L281.276,99.175 Z M291.896,104.935 L291.896,102.7 L288.251,102.7 L288.251,104.935 L291.896,104.935 Z M287.141,104.935 L287.141,102.7 L283.526,102.7 L283.526,104.935 L287.141,104.935 Z" id="Shape" fill="#2A3052" fill-rule="nonzero"></path>
            <path d="M149.375,164.075 L149.375,171.3 L148.075,171.3 L148.075,165.425 L144.6,165.425 L144.6,171.25 L143.275,171.25 L143.275,164.075 L149.375,164.075 Z M146.35,172.35 C146.25,172.6 146.15,172.825 146.05,173.025 C145.5,174.025 144.625,174.8 143.375,175.35 L142.625,174.175 C143.775,173.65 144.575,172.975 145.05,172.175 C145.45,171.3 145.675,170.175 145.725,168.775 L145.725,166.6 L146.925,166.6 L146.925,168.775 C146.9,169.625 146.825,170.4 146.7,171.075 C147.65,171.9 148.45,172.725 149.1,173.55 L148.15,174.5 C147.675,173.8 147.075,173.1 146.35,172.35 Z M135.45,154.075 L145.75,154.075 C145.5,153.525 145.25,153.05 144.975,152.6 L146.775,152.3 C147.025,152.825 147.25,153.425 147.45,154.075 L157.55,154.075 L157.55,155.375 L139.375,155.375 L139.375,156.675 L155.85,156.675 L155.85,157.95 L137.7,157.95 L137.7,155.375 L135.45,155.375 L135.45,154.075 Z M138.4,159.125 L154.525,159.125 L154.525,162.85 L138.4,162.85 L138.4,159.125 Z M152.775,161.675 L152.775,160.3 L140.15,160.3 L140.15,161.675 L152.775,161.675 Z M138.025,168.475 C138,169.1 137.95,169.7 137.9,170.25 L140.65,170.25 L140.65,168.475 L138.025,168.475 Z M140.65,167.3 L140.65,165.5 L138.025,165.5 L138.025,167.3 L140.65,167.3 Z M137.725,171.425 C137.425,173.05 136.875,174.425 136.1,175.575 L134.975,174.55 C136.025,172.95 136.55,170.95 136.575,168.5 L136.575,164.125 L142.075,164.125 L142.075,173.75 C142.075,174.875 141.475,175.45 140.3,175.45 L139.275,175.45 L138.9,174.1 C139.225,174.15 139.55,174.175 139.85,174.175 C140.375,174.175 140.65,173.85 140.65,173.25 L140.65,171.425 L137.725,171.425 Z M156.625,175.175 L155.75,175.175 C154.85,175.175 154.425,174.675 154.425,173.725 L154.425,165.55 L152.05,165.55 L152.05,168.125 C152.05,169.975 151.925,171.4 151.675,172.4 C151.4,173.4 150.825,174.45 149.95,175.55 L148.825,174.575 C149.575,173.675 150.075,172.85 150.325,172.075 C150.575,171.275 150.7,169.95 150.7,168.125 L150.7,164.125 L155.775,164.125 L155.775,173.3 C155.775,173.675 155.925,173.875 156.25,173.875 L156.4,173.875 C156.55,173.875 156.675,173.75 156.75,173.5 C156.825,173.25 156.9,172.425 156.975,171 L158.125,171.4 C157.975,173.1 157.825,174.15 157.65,174.575 C157.45,174.975 157.125,175.175 156.625,175.175 Z M153.05,167.775 C153.5,168.775 153.925,169.825 154.275,170.975 L153.325,171.4 C152.95,170.15 152.55,169.05 152.1,168.1 L153.05,167.775 Z M163.23584,167.98291 L161.197266,167.98291 L161.038574,155.226562 L163.406738,155.226562 L163.23584,167.98291 Z M160.953125,171.864746 C160.953125,171.498533 161.065022,171.191326 161.288818,170.943115 C161.512615,170.694904 161.844236,170.570801 162.283691,170.570801 C162.723147,170.570801 163.056802,170.694904 163.284668,170.943115 C163.512534,171.191326 163.626465,171.498533 163.626465,171.864746 C163.626465,172.230959 163.512534,172.534097 163.284668,172.77417 C163.056802,173.014243 162.723147,173.134277 162.283691,173.134277 C161.844236,173.134277 161.512615,173.014243 161.288818,172.77417 C161.065022,172.534097 160.953125,172.230959 160.953125,171.864746 Z" id="赢!" fill="#FFFFFF" fill-rule="nonzero"></path>
        </g>
    </g>
</svg>