<svg width="300" height="199" viewBox="0 0 300 199" xmlns="http://www.w3.org/2000/svg"><title>simplified_chinese_high_low</title><g fill="none" fill-rule="evenodd"><path fill="#F1F2F2" fill-rule="nonzero" d="M0 0h300v199H0z"/><path d="M39.125 55.375V74.75H75.25V55.375H39.125zm0-1H75.25V34h1v20.375h36.125V34h1v20.375H149.5V34h1v20.375h36.125V34h1v20.375h36.125V34h1v20.375h36.125V34h1v20.375H299.5v1h-37.625V74.75H299.5v1h-37.625v19.375H299.5v1h-37.625V115.5H299.5v1h-37.625v19.375H299.5v1h-37.625v19.375H299.5v1h-37.625v19.375H299.5v1h-37.625V199h-1v-21.375H224.75V199h-1v-21.375h-36.125V199h-1v-21.375H150.5V199h-1v-21.375h-36.125V199h-1v-21.375H76.25V199h-1v-21.375H39.125V199h-1v-21.375H1.5v-1h36.625V157.25H1.5v-1h36.625v-19.375H1.5v-1h36.625V116.5H1.5v-1h36.625V96.125H1.5v-1h36.625V75.75H1.5v-1h36.625V55.375H1.5v-1h36.625V34h1v20.375zm221.75 1H224.75V74.75h36.125V55.375zm-37.125 0h-36.125V74.75h36.125V55.375zm-37.125 0H150.5V74.75h36.125V55.375zm-37.125 0h-36.125V74.75H149.5V55.375zm-37.125 0H76.25V74.75h36.125V55.375zM39.125 75.75v19.375H75.25V75.75H39.125zm221.75 0H224.75v19.375h36.125V75.75zm-37.125 0h-36.125v19.375h36.125V75.75zm-37.125 0H150.5v19.375h36.125V75.75zm-37.125 0h-36.125v19.375H149.5V75.75zm-37.125 0H76.25v19.375h36.125V75.75zm-73.25 20.375V115.5H75.25V96.125H39.125zm221.75 0H224.75V115.5h36.125V96.125zm-37.125 0h-36.125V115.5h36.125V96.125zm-37.125 0H150.5V115.5h36.125V96.125zm-37.125 0h-36.125V115.5H149.5V96.125zm-37.125 0H76.25V115.5h36.125V96.125zM39.125 116.5v19.375H75.25V116.5H39.125zm221.75 0H224.75v19.375h36.125V116.5zm-37.125 0h-36.125v19.375h36.125V116.5zm-37.125 0H150.5v19.375h36.125V116.5zm-37.125 0h-36.125v19.375H149.5V116.5zm-37.125 0H76.25v19.375h36.125V116.5zm-73.25 20.375v19.375H75.25v-19.375H39.125zm221.75 0H224.75v19.375h36.125v-19.375zm-37.125 0h-36.125v19.375h36.125v-19.375zm-37.125 0H150.5v19.375h36.125v-19.375zm-37.125 0h-36.125v19.375H149.5v-19.375zm-37.125 0H76.25v19.375h36.125v-19.375zm-73.25 20.375v19.375H75.25V157.25H39.125zm221.75 0H224.75v19.375h36.125V157.25zm-37.125 0h-36.125v19.375h36.125V157.25zm-37.125 0H150.5v19.375h36.125V157.25zm-37.125 0h-36.125v19.375H149.5V157.25zm-37.125 0H76.25v19.375h36.125V157.25z" fill="#DFDEDE" fill-rule="nonzero"/><path stroke="#C2C2C2" stroke-width="2" d="M1 1h298v197H1z"/><path fill="#C2C2C2" fill-rule="nonzero" d="M0 33h300v2H0z"/><g transform="translate(4 35.288)"><path d="M.9 28.163h290.625" stroke="#15212D" stroke-width="1.133" fill="#D8D8D8" fill-rule="nonzero" stroke-dasharray="7.5"/><path d="M238.863.725V161" stroke="#2A3052" stroke-width="1.211" stroke-linejoin="round"/><path d="M.9 121.5h290.625" stroke="#15212D" stroke-width="1.133" fill="#D8D8D8" fill-rule="nonzero" stroke-dasharray="7.5"/><path stroke="#2A3052" stroke-width="3.633" stroke-linecap="round" stroke-linejoin="round" d="M17.25 80.063L53.115 64l26.494 21.96 43.594-57.247 31.63 93.487 18.215-49.436 27.446-22.991 37.05 24.963"/><ellipse cx="8.137" cy="8.475" rx="8.137" ry="8.475" opacity=".6" transform="translate(147 113.25)" fill="#FFF" fill-rule="nonzero"/><ellipse stroke="#E88024" stroke-width="2.422" cx="155.137" cy="121.725" rx="8.137" ry="8.475"/><ellipse cx="9.012" cy="8.475" rx="8.137" ry="8.475" opacity=".6" transform="translate(114.25 20.25)" fill="#FFF" fill-rule="nonzero"/><ellipse stroke="#E88024" stroke-width="2.422" cx="123.263" cy="28.725" rx="8.137" ry="8.475"/></g><g fill="#2A3052" fill-rule="nonzero"><path d="M23.237 123.295l.903.101-.373 2.323c.12.009.739.009 1.856 0 .031 1.705-.32 4.25-1.038 5.713.77.829 1.256 1.391 1.455 1.688l-.602.67-1.235-1.475c-.72 1.182-1.348 2.006-1.88 2.47-.09-.127-.272-.36-.55-.697.698-.745 1.387-1.507 1.797-2.402l-1.592-1.587.8-3.534h-1.005v-.846H22.9l.337-2.424zm1.568 3.275h-1.14a50.526 50.526 0 0 1-.733 3.237c.423.412.763.747 1.02 1.003.435-.93.853-3.578.853-4.24zM28.764 123.31l.831.286c-.955 1.98-1.696 3.267-2.224 3.857 2.408-.21 3.733-.356 3.976-.438-.59-1.12-.932-1.746-1.028-1.88l.777-.377c.838 1.442 1.476 2.634 1.915 3.578l-.844.425-.439-.97c-3.043.351-4.885.533-5.526.545-.048-.314-.094-.59-.14-.827.721-.397 1.622-1.796 2.702-4.198zM31.463 134.786v-.766H27.64v.766h-.878v-5.312h5.548v5.312h-.848zm-.006-4.494h-3.795v2.86h3.795v-2.86zM10.87 124.808v-.64h9.578v.64h-1.823v3.394h2.612v.985h-2.612v5.346H17.61v-5.346l-3.625-.008c-.27 4.564-2.71 5.354-3.015 5.555a7.539 7.539 0 0 1-.528-.772c1.19-.911 2.542-1.929 2.542-4.783-1.016.005-2.15.027-2.817.008v-.985h2.817v-3.394H10.87zm6.713.18h-3.499v3.192h3.5v-3.193z"/></g><path d="M114.386 44.637h9.452v.851h-4.715v4.928h-.99v-.894c-.852.138-2.054.266-3.608.372l-.128-.851.905-.043v-3.512h-.916v-.851zm1.874 4.3a28.36 28.36 0 0 0 1.873-.213v-.532h-1.873v.745zm0-1.47h1.873v-.648h-1.873v.649zm0-1.372h1.873v-.607h-1.873v.607zm3.64.734h-.352v-.84h3.715v.787a4.989 4.989 0 0 1-.99 1.969c.447.32.98.607 1.596.862l-.51.84a8.628 8.628 0 0 1-1.735-1.063 7.384 7.384 0 0 1-1.852 1.053l-.522-.787a6.714 6.714 0 0 0 1.693-.926 4.77 4.77 0 0 1-1.043-1.895zm1.67 1.299c.341-.394.597-.83.767-1.299h-1.575c.17.48.436.916.809 1.299zm1.022-7.227v3.267h-.99v-2.5h-4.938V44.2h-.98v-3.299h6.908zm-5.556 1.31h4.215v.69h-4.215v-.69zm-.02 1.16h4.256v.68h-4.257v-.68zm13.027-2.864c.095.266.191.554.287.873h4.14v.937h-9.462v-.937h4.226a5.75 5.75 0 0 0-.32-.681l1.129-.192zm2.703 9.856h-.884l-.234-.905.82.043c.394 0 .596-.15.596-.426v-2.693h-6.599v4.013h-.958v-4.886h8.515v3.779c0 .713-.426 1.075-1.256 1.075zm-6.067-7.546h6.141v2.214h-6.14v-2.214zm5.173 1.447v-.68h-4.204v.68h4.204zm-4.268 2.63h4.332v2.234h-4.332v-2.235zm3.438 1.49v-.746h-2.533v.745h2.533zm10.483-7.866l1 .138c-.02.288-.053.564-.074.841h2.544v.915h-2.65c-.043.256-.075.49-.107.724h2.097v6.045h.969v.916h-7.036v-.916h1.054v-6.045h1.927c.042-.245.074-.49.095-.724h-2.618v-.915h2.725c.021-.33.053-.66.074-.98zm-1.234 8.663h3.076v-.713h-3.076v.713zm0-1.51h3.076v-.682h-3.076v.681zm0-1.491h3.076v-.67h-3.076v.67zm0-1.469h3.076v-.67h-3.076v.67zm-3.417-.149c-.32.447-.66.884-1.022 1.299l-.33-1.075c.99-1.214 1.714-2.64 2.172-4.258l.915.426c-.202.681-.458 1.33-.756 1.948v7.503h-.979v-5.843zM146.139 174.267h7.731v.764h-3.822v3.996h-.886v-.703c-.678.104-1.642.2-2.901.295l-.113-.764.712-.035v-2.789h-.721v-.764zm1.58 3.492a31.819 31.819 0 0 0 1.443-.148v-.382h-1.442v.53zm0-1.173h1.443v-.477h-1.442v.477zm0-1.12h1.443v-.435h-1.442v.435zm2.92.66h-.287v-.747h3.058v.703c-.14.591-.4 1.112-.765 1.564.356.243.773.47 1.26.66l-.46.756a7.365 7.365 0 0 1-1.382-.843 5.86 5.86 0 0 1-1.494.834l-.46-.703c.52-.2.973-.435 1.346-.713a3.79 3.79 0 0 1-.816-1.511zm1.38.981a3.06 3.06 0 0 0 .574-.981h-1.181c.121.356.33.686.608.981zm.86-5.88v2.693h-.885v-2.016h-3.944v2.042h-.877v-2.72h5.707zm-4.551 1.077h3.396v.6h-3.396v-.6zm-.017.947h3.43v.59h-3.43v-.59zm8.2-2.32l.825.391c-.209.634-.47 1.242-.8 1.824v5.881h-.885v-4.56c-.235.295-.487.582-.747.86l-.296-.956c.852-.973 1.486-2.12 1.903-3.44zm1.763 3.805v1.885c.47-.139.93-.295 1.373-.46l.156.79c-.712.235-1.555.478-2.51.738l-.226-.764c.217-.104.33-.304.33-.6v-4.594c1.841-.209 3.3-.443 4.386-.704l.504.72c-.408.105-.886.21-1.424.314 0 .677.008 1.277.026 1.806h1.555v.87h-1.52c.052 1.059.13 1.789.251 2.188.165.617.356.956.574 1.008.113-.026.217-.478.304-1.347l.72.495c-.173 1.2-.503 1.799-.99 1.799-.286 0-.547-.14-.781-.409-.313-.373-.539-.86-.678-1.468-.113-.451-.191-1.207-.234-2.267h-1.816zm1.78-.869a50.204 50.204 0 0 1-.025-1.667c-.539.078-1.12.156-1.755.234v1.433h1.78zm-2.64 4.144h2.884v.842h-2.884v-.842zm10.823-7.088l.904.121-.052.66h2.032v.817h-2.128l-.078.521h1.677v4.908h.781v.834h-5.759v-.834h.851v-4.908h1.547l.078-.521h-2.102v-.817h2.189c.017-.269.043-.53.06-.781zm-.912 7.027h2.407v-.504h-2.407v.504zm0-1.216h2.407v-.486h-2.407v.486zm0-1.199h2.407v-.486h-2.407v.486zm0-1.198h2.407v-.478h-2.407v.477zm-2.884.034c-.243.33-.495.66-.773.973l-.295-.973c.782-.973 1.364-2.12 1.737-3.44l.817.383c-.165.538-.365 1.06-.6 1.554v6.16h-.886v-4.657z" fill="#2A3052" fill-rule="nonzero"/><path d="M16.883 15.744H27.37v.968h-5.208v3.425c.213-.036.413-.071.602-.095v.933c-.189.036-.39.071-.602.118v1.11h-1.18v-.944c-1.04.13-2.363.248-3.945.366l-.154-1.04.992-.047v-3.826h-.992v-.968zm2.114 4.723a36.513 36.513 0 0 0 1.984-.177v-.555h-1.984v.732zm0-1.606h1.984v-.65h-1.984v.65zm0-1.523h1.984v-.626h-1.984v.626zm-.756-5.763h7.83v3.649h-7.83v-3.65zm6.649 2.799v-.555h-5.48v.555h5.48zm-5.48-1.382h5.48v-.531h-5.48v.53zm3.567 5.243h-.366v-.992h4.157v.933a5.198 5.198 0 0 1-1.028 2.15c.473.33 1.04.614 1.69.874l-.627 1.015c-.708-.33-1.322-.697-1.83-1.098-.52.425-1.146.791-1.866 1.098l-.626-.945a6.95 6.95 0 0 0 1.665-.92 5.014 5.014 0 0 1-1.17-2.115zm1.913 1.382c.343-.425.602-.886.768-1.382h-1.63c.177.508.46.969.862 1.382zm9.436-8.467c.094.283.2.602.295.944h4.559v1.134H28.657v-1.134h4.618a6.64 6.64 0 0 0-.33-.708l1.38-.236zm2.929 10.97h-.969l-.295-1.086.91.036c.413 0 .625-.142.625-.426v-2.893h-7.204v4.405h-1.169v-5.468h9.542v4.204c0 .815-.484 1.229-1.44 1.229zm-6.78-8.408h6.91v2.504h-6.91v-2.504zm5.729 1.583v-.662h-4.547v.662h4.547zm-4.7 2.929h4.865v2.55h-4.866v-2.55zm3.778 1.641v-.732H32.59v.732h2.692zm11.633-8.704l1.228.166-.07.897h2.762v1.11h-2.893l-.106.709h2.28v6.672h1.062v1.134h-7.83v-1.134h1.158v-6.672h2.102l.106-.709h-2.858v-1.11h2.976c.024-.366.06-.72.083-1.063zm-1.24 9.554h3.271v-.685h-3.271v.685zm0-1.653h3.271v-.661h-3.271v.661zm0-1.63h3.271v-.661h-3.271v.661zm0-1.63h3.271v-.649h-3.271v.65zm-3.921.048c-.33.449-.673.897-1.051 1.322L40.3 15.85c1.063-1.323 1.854-2.882 2.362-4.677l1.11.52a15.66 15.66 0 0 1-.814 2.114v8.373h-1.205v-6.33zm14.123 2.137H52.48V16.69h3.397v1.297zm1.578-2.243h10.487v.968h-5.208v3.425c.213-.036.413-.071.602-.095v.933c-.189.036-.39.071-.602.118v1.11h-1.18v-.944c-1.04.13-2.363.248-3.945.366l-.154-1.04.992-.047v-3.826h-.992v-.968zm2.114 4.723a36.513 36.513 0 0 0 1.984-.177v-.555H59.57v.732zm0-1.606h1.984v-.65H59.57v.65zm0-1.523h1.984v-.626H59.57v.626zm-.756-5.763h7.83v3.649h-7.83v-3.65zm6.65 2.799v-.555h-5.48v.555h5.48zm-5.48-1.382h5.48v-.531h-5.48v.53zm3.566 5.243h-.366v-.992h4.157v.933a5.198 5.198 0 0 1-1.028 2.15c.473.33 1.04.614 1.69.874l-.627 1.015c-.708-.33-1.322-.697-1.83-1.098-.52.425-1.146.791-1.866 1.098l-.626-.945a6.95 6.95 0 0 0 1.665-.92 5.014 5.014 0 0 1-1.17-2.115zm1.913 1.382c.343-.425.602-.886.768-1.382H64.6c.177.508.46.969.862 1.382zm8.48-3v3.661c.26-.118.519-.236.779-.366l.2 1.063a49.16 49.16 0 0 1-2.35.839l-.318-1.051c.33-.107.496-.32.496-.626v-7.535c2.468-.366 4.428-.78 5.88-1.252l.674.98c-.579.19-1.252.379-2.02.567.012.98.048 1.83.095 2.551h2.338v1.17h-2.244c.036.425.083.779.154 1.086.189 1.027.39 1.76.614 2.196.213.45.378.685.472.685.083 0 .177-.59.272-1.76l1.016.556c-.237 1.76-.603 2.645-1.087 2.645-.401 0-.815-.319-1.252-.933-.437-.614-.803-1.594-1.11-2.917-.106-.46-.189-.98-.26-1.559h-2.35zm2.149-3.46c-.662.13-1.382.26-2.15.378v1.913h2.244a44.016 44.016 0 0 1-.094-2.29zm-.272 6.224c.638.803 1.122 1.523 1.464 2.137l-.92.638a22.69 22.69 0 0 0-1.382-2.173l.838-.602zm-4.275-8.208l1.122.532a13.619 13.619 0 0 1-1.087 2.48v7.995h-1.204v-6.2c-.319.401-.662.791-1.016 1.169l-.401-1.3c1.157-1.322 2.02-2.88 2.586-4.676zm15.943-.012l1.228.166-.07.897h2.763v1.11h-2.894l-.106.709h2.28v6.672h1.062v1.134h-7.83v-1.134h1.158v-6.672h2.102l.106-.709h-2.858v-1.11h2.976c.024-.366.06-.72.083-1.063zm-1.24 9.554h3.271v-.685h-3.271v.685zm0-1.653h3.271v-.661h-3.271v.661zm0-1.63h3.271v-.661h-3.271v.661zm0-1.63h3.271v-.649h-3.271v.65zm-3.921.048c-.33.449-.673.897-1.051 1.322l-.402-1.322c1.063-1.323 1.855-2.882 2.362-4.677l1.11.52a15.66 15.66 0 0 1-.814 2.114v8.373h-1.205v-6.33z" fill="#020202" fill-rule="nonzero"/><path d="M252.469 119.66v.815c-1.224.444-2.604.804-4.164 1.092l-.108-.84c1.632-.264 3.048-.624 4.272-1.068zm-2.22-8.64l.804.311c-.612 1.56-1.236 2.808-1.86 3.744a44.987 44.987 0 0 0 1.704-.252c.228-.432.468-.876.708-1.332l.756.276c-1.092 2.028-2.004 3.468-2.736 4.332.912-.18 1.812-.42 2.7-.72v.768a19.217 19.217 0 0 1-3.744.9l-.228-.78c.156-.072.288-.156.396-.252.456-.468 1.02-1.26 1.692-2.388-.684.108-1.368.204-2.064.3l-.216-.792a.906.906 0 0 0 .36-.324c.672-1.104 1.248-2.364 1.728-3.792zm2.076 1.523h2.868v-1.452h.876v1.452h2.856v.84h-2.856v1.776h2.508v.84h-5.856v-.84h2.472v-1.776h-2.868v-.84zm5.904 4.656v4.824h-.84v-.576h-3.432v.576h-.852V117.2h5.124zm-4.272 3.432h3.432v-2.616h-3.432v2.616zm6.432-8.34h4.692v-1.2h.888v1.2h4.668v.828h-4.668v1.176h3.78v3.396H266.7c.864 1.224 2.328 2.304 4.368 3.264l-.588.744c-2.124-1.188-3.612-2.52-4.476-4.008h-.036v4.356h-.888v-4.356h-.036c-.912 1.632-2.424 2.976-4.548 4.032l-.504-.792c1.992-.84 3.444-1.92 4.344-3.24h-3.012v-3.396h3.756v-1.176h-4.692v-.828zm8.496 4.608v-1.788h-2.916v1.788h2.916zm-3.804 0v-1.788h-2.892v1.788h2.892z" fill="#2A3052"/></g></svg>