<?xml version="1.0" encoding="UTF-8"?>
<svg width="299px" height="197px" viewBox="0 0 299 197" version="1.1" xmlns="http://www.w3.org/2000/svg" xmlns:xlink="http://www.w3.org/1999/xlink">
    <!-- Generator: Sketch 52.6 (67491) - http://www.bohemiancoding.com/sketch -->
    <title>high-close</title>
    <desc>Created with Sketch.</desc>
    <g id="Page-1" stroke="none" stroke-width="1" fill="none" fill-rule="evenodd">
        <g id="high-close">
            <polygon id="Path" fill="#F1F2F2" points="0 0 299 0 299 197 0 197"></polygon>
            <path d="M1.99333333,1.9798995 L1.99333333,195.020101 L297.006667,195.020101 L297.006667,1.9798995 L1.99333333,1.9798995 Z M299,0 L299,197 L0,197 L0,0 L299,0 Z" id="Path" fill="#C2C2C2" fill-rule="nonzero"></path>
            <path d="M41.6149329,54.7272727 L41.6149329,73.5151515 L76.7701342,73.5151515 L76.7701342,54.7272727 L41.6149329,54.7272727 Z M41.6149329,53.7575758 L76.7701342,53.7575758 L76.7701342,34 L77.7432886,34 L77.7432886,53.7575758 L112.89849,53.7575758 L112.89849,34 L113.871644,34 L113.871644,53.7575758 L149.026846,53.7575758 L149.026846,34 L150,34 L150,53.7575758 L185.155201,53.7575758 L185.155201,34 L186.128356,34 L186.128356,53.7575758 L221.283557,53.7575758 L221.283557,34 L222.256711,34 L222.256711,53.7575758 L257.411913,53.7575758 L257.411913,34 L258.385067,34 L258.385067,53.7575758 L295,53.7575758 L295,54.7272727 L258.385067,54.7272727 L258.385067,73.5151515 L295,73.5151515 L295,74.4848485 L258.385067,74.4848485 L258.385067,93.2727273 L295,93.2727273 L295,94.2424242 L258.385067,94.2424242 L258.385067,113.030303 L295,113.030303 L295,114 L258.385067,114 L258.385067,132.787879 L295,132.787879 L295,133.757576 L258.385067,133.757576 L258.385067,152.545455 L295,152.545455 L295,153.515152 L258.385067,153.515152 L258.385067,172.30303 L295,172.30303 L295,173.272727 L258.385067,173.272727 L258.385067,194 L257.411913,194 L257.411913,173.272727 L222.256711,173.272727 L222.256711,194 L221.283557,194 L221.283557,173.272727 L186.128356,173.272727 L186.128356,194 L185.155201,194 L185.155201,173.272727 L150,173.272727 L150,194 L149.026846,194 L149.026846,173.272727 L113.871644,173.272727 L113.871644,194 L112.89849,194 L112.89849,173.272727 L77.7432886,173.272727 L77.7432886,194 L76.7701342,194 L76.7701342,173.272727 L41.6149329,173.272727 L41.6149329,194 L40.6417785,194 L40.6417785,173.272727 L5,173.272727 L5,172.30303 L40.6417785,172.30303 L40.6417785,153.515152 L5,153.515152 L5,152.545455 L40.6417785,152.545455 L40.6417785,133.757576 L5,133.757576 L5,132.787879 L40.6417785,132.787879 L40.6417785,114 L5,114 L5,113.030303 L40.6417785,113.030303 L40.6417785,94.2424242 L5,94.2424242 L5,93.2727273 L40.6417785,93.2727273 L40.6417785,74.4848485 L5,74.4848485 L5,73.5151515 L40.6417785,73.5151515 L40.6417785,54.7272727 L5,54.7272727 L5,53.7575758 L40.6417785,53.7575758 L40.6417785,34 L41.6149329,34 L41.6149329,53.7575758 Z M257.411913,54.7272727 L222.256711,54.7272727 L222.256711,73.5151515 L257.411913,73.5151515 L257.411913,54.7272727 Z M221.283557,54.7272727 L186.128356,54.7272727 L186.128356,73.5151515 L221.283557,73.5151515 L221.283557,54.7272727 Z M185.155201,54.7272727 L150,54.7272727 L150,73.5151515 L185.155201,73.5151515 L185.155201,54.7272727 Z M149.026846,54.7272727 L113.871644,54.7272727 L113.871644,73.5151515 L149.026846,73.5151515 L149.026846,54.7272727 Z M112.89849,54.7272727 L77.7432886,54.7272727 L77.7432886,73.5151515 L112.89849,73.5151515 L112.89849,54.7272727 Z M41.6149329,74.4848485 L41.6149329,93.2727273 L76.7701342,93.2727273 L76.7701342,74.4848485 L41.6149329,74.4848485 Z M257.411913,74.4848485 L222.256711,74.4848485 L222.256711,93.2727273 L257.411913,93.2727273 L257.411913,74.4848485 Z M221.283557,74.4848485 L186.128356,74.4848485 L186.128356,93.2727273 L221.283557,93.2727273 L221.283557,74.4848485 Z M185.155201,74.4848485 L150,74.4848485 L150,93.2727273 L185.155201,93.2727273 L185.155201,74.4848485 Z M149.026846,74.4848485 L113.871644,74.4848485 L113.871644,93.2727273 L149.026846,93.2727273 L149.026846,74.4848485 Z M112.89849,74.4848485 L77.7432886,74.4848485 L77.7432886,93.2727273 L112.89849,93.2727273 L112.89849,74.4848485 Z M41.6149329,94.2424242 L41.6149329,113.030303 L76.7701342,113.030303 L76.7701342,94.2424242 L41.6149329,94.2424242 Z M257.411913,94.2424242 L222.256711,94.2424242 L222.256711,113.030303 L257.411913,113.030303 L257.411913,94.2424242 Z M221.283557,94.2424242 L186.128356,94.2424242 L186.128356,113.030303 L221.283557,113.030303 L221.283557,94.2424242 Z M185.155201,94.2424242 L150,94.2424242 L150,113.030303 L185.155201,113.030303 L185.155201,94.2424242 Z M149.026846,94.2424242 L113.871644,94.2424242 L113.871644,113.030303 L149.026846,113.030303 L149.026846,94.2424242 Z M112.89849,94.2424242 L77.7432886,94.2424242 L77.7432886,113.030303 L112.89849,113.030303 L112.89849,94.2424242 Z M41.6149329,114 L41.6149329,132.787879 L76.7701342,132.787879 L76.7701342,114 L41.6149329,114 Z M257.411913,114 L222.256711,114 L222.256711,132.787879 L257.411913,132.787879 L257.411913,114 Z M221.283557,114 L186.128356,114 L186.128356,132.787879 L221.283557,132.787879 L221.283557,114 Z M185.155201,114 L150,114 L150,132.787879 L185.155201,132.787879 L185.155201,114 Z M149.026846,114 L113.871644,114 L113.871644,132.787879 L149.026846,132.787879 L149.026846,114 Z M112.89849,114 L77.7432886,114 L77.7432886,132.787879 L112.89849,132.787879 L112.89849,114 Z M41.6149329,133.757576 L41.6149329,152.545455 L76.7701342,152.545455 L76.7701342,133.757576 L41.6149329,133.757576 Z M257.411913,133.757576 L222.256711,133.757576 L222.256711,152.545455 L257.411913,152.545455 L257.411913,133.757576 Z M221.283557,133.757576 L186.128356,133.757576 L186.128356,152.545455 L221.283557,152.545455 L221.283557,133.757576 Z M185.155201,133.757576 L150,133.757576 L150,152.545455 L185.155201,152.545455 L185.155201,133.757576 Z M149.026846,133.757576 L113.871644,133.757576 L113.871644,152.545455 L149.026846,152.545455 L149.026846,133.757576 Z M112.89849,133.757576 L77.7432886,133.757576 L77.7432886,152.545455 L112.89849,152.545455 L112.89849,133.757576 Z M41.6149329,153.515152 L41.6149329,172.30303 L76.7701342,172.30303 L76.7701342,153.515152 L41.6149329,153.515152 Z M257.411913,153.515152 L222.256711,153.515152 L222.256711,172.30303 L257.411913,172.30303 L257.411913,153.515152 Z M221.283557,153.515152 L186.128356,153.515152 L186.128356,172.30303 L221.283557,172.30303 L221.283557,153.515152 Z M185.155201,153.515152 L150,153.515152 L150,172.30303 L185.155201,172.30303 L185.155201,153.515152 Z M149.026846,153.515152 L113.871644,153.515152 L113.871644,172.30303 L149.026846,172.30303 L149.026846,153.515152 Z M112.89849,153.515152 L77.7432886,153.515152 L77.7432886,172.30303 L112.89849,172.30303 L112.89849,153.515152 Z" id="Shape" fill="#DFDEDE" fill-rule="nonzero"></path>
            <polygon id="Path" fill="#C2C2C2" points="4 33 294 33 294 35 4 35"></polygon>
            <g id="Group" transform="translate(3.000000, 34.642000)">
                <path d="M0.9,30.7295 L0.9,29.5965 L8.4,29.5965 L8.4,30.7295 L0.9,30.7295 Z M15.9,30.7295 L15.9,29.5965 L23.4,29.5965 L23.4,30.7295 L15.9,30.7295 Z M30.9,30.7295 L30.9,29.5965 L38.4,29.5965 L38.4,30.7295 L30.9,30.7295 Z M45.9,30.7295 L45.9,29.5965 L53.4,29.5965 L53.4,30.7295 L45.9,30.7295 Z M60.9,30.7295 L60.9,29.5965 L68.4,29.5965 L68.4,30.7295 L60.9,30.7295 Z M75.9,30.7295 L75.9,29.5965 L83.4,29.5965 L83.4,30.7295 L75.9,30.7295 Z M90.9,30.7295 L90.9,29.5965 L98.4,29.5965 L98.4,30.7295 L90.9,30.7295 Z M105.9,30.7295 L105.9,29.5965 L113.4,29.5965 L113.4,30.7295 L105.9,30.7295 Z M120.9,30.7295 L120.9,29.5965 L128.4,29.5965 L128.4,30.7295 L120.9,30.7295 Z M135.9,30.7295 L135.9,29.5965 L143.4,29.5965 L143.4,30.7295 L135.9,30.7295 Z M150.9,30.7295 L150.9,29.5965 L158.4,29.5965 L158.4,30.7295 L150.9,30.7295 Z M165.9,30.7295 L165.9,29.5965 L173.4,29.5965 L173.4,30.7295 L165.9,30.7295 Z M180.9,30.7295 L180.9,29.5965 L188.4,29.5965 L188.4,30.7295 L180.9,30.7295 Z M195.9,30.7295 L195.9,29.5965 L203.4,29.5965 L203.4,30.7295 L195.9,30.7295 Z M210.9,30.7295 L210.9,29.5965 L218.4,29.5965 L218.4,30.7295 L210.9,30.7295 Z M225.9,30.7295 L225.9,29.5965 L233.4,29.5965 L233.4,30.7295 L225.9,30.7295 Z M240.9,30.7295 L240.9,29.5965 L248.4,29.5965 L248.4,30.7295 L240.9,30.7295 Z M255.9,30.7295 L255.9,29.5965 L263.4,29.5965 L263.4,30.7295 L255.9,30.7295 Z M270.9,30.7295 L270.9,29.5965 L278.4,29.5965 L278.4,30.7295 L270.9,30.7295 Z M285.9,30.7295 L285.9,29.5965 L291.525,29.5965 L291.525,30.7295 L285.9,30.7295 Z" id="Path" fill="#15212D" fill-rule="nonzero"></path>
                <polygon id="Path" fill="#2A3052" fill-rule="nonzero" points="237.2575 0.725 238.4685 0.725 238.4685 161 237.2575 161"></polygon>
                <path d="M0.9,123.3165 L0.9,122.1835 L8.4,122.1835 L8.4,123.3165 L0.9,123.3165 Z M15.9,123.3165 L15.9,122.1835 L23.4,122.1835 L23.4,123.3165 L15.9,123.3165 Z M30.9,123.3165 L30.9,122.1835 L38.4,122.1835 L38.4,123.3165 L30.9,123.3165 Z M45.9,123.3165 L45.9,122.1835 L53.4,122.1835 L53.4,123.3165 L45.9,123.3165 Z M60.9,123.3165 L60.9,122.1835 L68.4,122.1835 L68.4,123.3165 L60.9,123.3165 Z M75.9,123.3165 L75.9,122.1835 L83.4,122.1835 L83.4,123.3165 L75.9,123.3165 Z M90.9,123.3165 L90.9,122.1835 L98.4,122.1835 L98.4,123.3165 L90.9,123.3165 Z M105.9,123.3165 L105.9,122.1835 L113.4,122.1835 L113.4,123.3165 L105.9,123.3165 Z M120.9,123.3165 L120.9,122.1835 L128.4,122.1835 L128.4,123.3165 L120.9,123.3165 Z M135.9,123.3165 L135.9,122.1835 L143.4,122.1835 L143.4,123.3165 L135.9,123.3165 Z M150.9,123.3165 L150.9,122.1835 L158.4,122.1835 L158.4,123.3165 L150.9,123.3165 Z M165.9,123.3165 L165.9,122.1835 L173.4,122.1835 L173.4,123.3165 L165.9,123.3165 Z M180.9,123.3165 L180.9,122.1835 L188.4,122.1835 L188.4,123.3165 L180.9,123.3165 Z M195.9,123.3165 L195.9,122.1835 L203.4,122.1835 L203.4,123.3165 L195.9,123.3165 Z M210.9,123.3165 L210.9,122.1835 L218.4,122.1835 L218.4,123.3165 L210.9,123.3165 Z M225.9,123.3165 L225.9,122.1835 L233.4,122.1835 L233.4,123.3165 L225.9,123.3165 Z M240.9,123.3165 L240.9,122.1835 L248.4,122.1835 L248.4,123.3165 L240.9,123.3165 Z M255.9,123.3165 L255.9,122.1835 L263.4,122.1835 L263.4,123.3165 L255.9,123.3165 Z M270.9,123.3165 L270.9,122.1835 L278.4,122.1835 L278.4,123.3165 L270.9,123.3165 Z M285.9,123.3165 L285.9,122.1835 L291.525,122.1835 L291.525,123.3165 L285.9,123.3165 Z" id="Path" fill="#15212D" fill-rule="nonzero"></path>
                <path d="M52.8259819,68.1198098 L17.9924952,83.7208218 C17.0769055,84.1308906 16.002247,83.7210849 15.5921782,82.8054952 C15.1821094,81.8899055 15.5919151,80.815247 16.5075048,80.4051782 L52.3725048,64.3421782 C53.0040454,64.0593276 53.7414357,64.1598645 54.2742045,64.6014589 L79.3107188,85.3533972 L121.757821,29.6124861 C122.666063,28.4197961 124.546537,28.7785764 124.95185,30.221883 L154.883848,136.808654 L171.291021,74.3028101 C171.3866,73.9386856 171.592949,73.6132517 171.881536,73.3715082 L199.327536,50.3805082 C200.216003,49.6362561 201.564803,49.9031502 202.102876,50.9296792 L239.602876,122.471679 C240.068629,123.360237 239.725879,124.458123 238.837321,124.923876 C237.948763,125.389629 236.850877,125.046879 236.385124,124.158321 L199.931948,54.6134376 L174.658061,75.784899 L156.699979,144.19919 C156.229811,145.990374 153.694828,146.012014 153.19415,144.229117 L122.439706,34.7136474 L81.0541787,89.0605139 C80.4285673,89.8820575 79.244827,90.0175164 78.4497955,89.3585411 L52.8259819,68.1198098 Z" id="Path" fill="#2A3052" fill-rule="nonzero"></path>
                <ellipse id="Oval" fill="#FFFFFF" opacity="0.6" cx="237.637" cy="122.6" rx="8.137" ry="8.475"></ellipse>
                <path d="M237.637,132.286 C232.462967,132.286 228.289,127.938652 228.289,122.6 C228.289,117.261348 232.462967,112.914 237.637,112.914 C242.811033,112.914 246.985,117.261348 246.985,122.6 C246.985,127.938652 242.811033,132.286 237.637,132.286 Z M237.637,129.864 C241.450849,129.864 244.563,126.622575 244.563,122.6 C244.563,118.577425 241.450849,115.336 237.637,115.336 C233.823151,115.336 230.711,118.577425 230.711,122.6 C230.711,126.622575 233.823151,129.864 237.637,129.864 Z" id="Oval" fill="#E88024" fill-rule="nonzero"></path>
                <ellipse id="Oval" fill="#FFFFFF" opacity="0.6" cx="123.262" cy="30.725" rx="8.137" ry="8.475"></ellipse>
                <path d="M123.263,40.411 C118.088967,40.411 113.915,36.0636517 113.915,30.725 C113.915,25.3863483 118.088967,21.039 123.263,21.039 C128.437033,21.039 132.611,25.3863483 132.611,30.725 C132.611,36.0636517 128.437033,40.411 123.263,40.411 Z M123.263,37.989 C127.076849,37.989 130.189,34.7475748 130.189,30.725 C130.189,26.7024252 127.076849,23.461 123.263,23.461 C119.449151,23.461 116.337,26.7024252 116.337,30.725 C116.337,34.7475748 119.449151,37.989 123.263,37.989 Z" id="Oval" fill="#E88024" fill-rule="nonzero"></path>
            </g>
            <g id="Group" transform="translate(9.000000, 126.000000)" fill="#2A3052" fill-rule="nonzero">
                <path d="M13.408,0.568 L14.311,0.67 L13.938,2.993 C14.058,3.001 14.677,3.001 15.794,2.993 C15.825,4.698 15.473,7.243 14.756,8.706 C15.526,9.534 16.012,10.096 16.211,10.394 L15.609,11.064 L14.374,9.589 C13.654,10.77 13.026,11.594 12.494,12.059 C12.404,11.931 12.221,11.699 11.944,11.361 C12.642,10.616 13.331,9.854 13.741,8.959 L12.149,7.373 L12.949,3.838 L11.944,3.838 L11.944,2.993 L13.071,2.993 L13.408,0.568 Z M14.975,3.844 L13.836,3.844 C13.62685,4.93074736 13.3820513,6.01032973 13.102,7.081 C13.526,7.493 13.866,7.827 14.122,8.083 C14.558,7.153 14.975,4.506 14.975,3.843 L14.975,3.844 Z M18.935,0.584 L19.766,0.869 C18.811,2.85 18.07,4.136 17.542,4.726 C19.949,4.516 21.275,4.371 21.518,4.288 C20.928,3.169 20.586,2.543 20.49,2.408 L21.267,2.032 C22.104,3.473 22.743,4.666 23.182,5.609 L22.338,6.034 L21.899,5.064 C18.855,5.416 17.014,5.597 16.373,5.609 C16.325,5.295 16.279,5.019 16.233,4.782 C16.954,4.386 17.855,2.987 18.935,0.584 Z M21.634,12.06 L21.634,11.293 L17.81,11.293 L17.81,12.059 L16.932,12.059 L16.932,6.747 L22.481,6.747 L22.481,12.059 L21.633,12.059 L21.634,12.06 Z M21.627,7.565 L17.833,7.565 L17.833,10.426 L21.627,10.426 L21.627,7.566 L21.627,7.565 Z M1.04,2.082 L1.04,1.442 L10.62,1.442 L10.62,2.082 L8.796,2.082 L8.796,5.475 L11.407,5.475 L11.407,6.46 L8.796,6.46 L8.796,11.807 L7.78,11.807 L7.78,6.46 L4.155,6.453 C3.884,11.017 1.445,11.807 1.14,12.007 C0.948226325,11.7611654 0.771887671,11.5036709 0.612,11.236 C1.802,10.324 3.154,9.306 3.154,6.453 C2.137,6.458 1.004,6.48 0.337,6.46 L0.337,5.475 L3.154,5.475 L3.154,2.082 L1.04,2.082 Z M7.754,2.261 L4.255,2.261 L4.255,5.453 L7.755,5.453 L7.755,2.261 L7.754,2.261 Z" id="Shape"></path>
            </g>
            <path d="M15.24,16.05 L25.955,16.05 L25.955,17.11 L20.658,17.11 L20.658,22.648 L19.43,22.648 L19.43,21.673 C18.49,21.817 17.154,21.95 15.408,22.083 L15.252,21.023 L16.239,20.975 L16.239,17.11 L15.239,17.11 L15.239,16.05 L15.24,16.05 Z M17.431,20.89 C18.189,20.83 18.851,20.758 19.43,20.686 L19.43,20.156 L17.43,20.156 L17.43,20.89 L17.431,20.89 Z M17.431,19.265 L19.43,19.265 L19.43,18.603 L17.43,18.603 L17.43,19.265 L17.431,19.265 Z M17.431,17.712 L19.43,17.712 L19.43,17.11 L17.43,17.11 L17.43,17.712 L17.431,17.712 Z M21.476,18.627 L21.079,18.627 L21.079,17.59 L25.317,17.59 L25.317,18.566 C25.1325857,19.3593762 24.7701071,20.1004057 24.257,20.733 C24.751,21.07 25.329,21.383 26.004,21.648 L25.365,22.695 C24.619,22.335 23.981,21.949 23.451,21.527 C22.873,21.985 22.175,22.37 21.381,22.683 L20.742,21.708 C21.464,21.431 22.09,21.106 22.608,20.721 C22.0752718,20.118527 21.6879886,19.4017795 21.476,18.626 L21.476,18.627 Z M23.391,19.987 C23.752,19.566 24.017,19.108 24.185,18.627 L22.548,18.627 C22.717,19.12 23.006,19.577 23.391,19.987 Z M24.583,11.837 L24.583,15.569 L23.355,15.569 L23.355,12.775 L17.888,12.775 L17.888,15.605 L16.672,15.605 L16.672,11.836 L24.582,11.836 L24.583,11.837 Z M18.273,13.329 L22.981,13.329 L22.981,14.159 L18.274,14.159 L18.274,13.329 L18.273,13.329 Z M18.25,14.641 L23.006,14.641 L23.006,15.461 L18.25,15.461 L18.25,14.641 Z M33.035,11.403 C33.131,11.692 33.24,12.017 33.336,12.366 L37.984,12.366 L37.984,13.522 L27.256,13.522 L27.256,12.366 L31.963,12.366 C31.8649747,12.1185858 31.7524461,11.8771669 31.626,11.643 L33.035,11.403 Z M36.021,22.588 L35.034,22.588 L34.733,21.48 L35.66,21.516 C36.081,21.516 36.298,21.372 36.298,21.083 L36.298,18.133 L28.953,18.133 L28.953,22.624 L27.761,22.624 L27.761,17.05 L37.49,17.05 L37.49,21.337 C37.49,22.167 36.996,22.589 36.021,22.589 L36.021,22.588 Z M29.11,14.015 L36.153,14.015 L36.153,16.568 L29.11,16.568 L29.11,14.015 Z M34.95,15.629 L34.95,14.955 L30.314,14.955 L30.314,15.629 L34.949,15.629 L34.95,15.629 Z M30.157,18.615 L35.118,18.615 L35.118,21.215 L30.158,21.215 L30.158,18.615 L30.157,18.615 Z M34.01,20.288 L34.01,19.542 L31.265,19.542 L31.265,20.288 L34.01,20.288 Z M45.87,11.415 L47.122,11.583 L47.05,12.498 L49.867,12.498 L49.867,13.63 L46.917,13.63 L46.809,14.352 L49.133,14.352 L49.133,21.155 L50.216,21.155 L50.216,22.311 L42.234,22.311 L42.234,21.155 L43.414,21.155 L43.414,14.352 L45.557,14.352 L45.665,13.63 L42.751,13.63 L42.751,12.498 L45.786,12.498 C45.81,12.125 45.846,11.764 45.87,11.415 Z M44.606,21.155 L47.941,21.155 L47.941,20.457 L44.606,20.457 L44.606,21.155 Z M44.606,19.47 L47.941,19.47 L47.941,18.795 L44.606,18.795 L44.606,19.47 Z M44.606,17.808 L47.941,17.808 L47.941,17.134 L44.606,17.134 L44.606,17.808 Z M44.606,16.146 L47.941,16.146 L47.941,15.484 L44.606,15.484 L44.606,16.146 Z M40.608,16.195 C40.271,16.652 39.922,17.11 39.537,17.543 L39.127,16.195 C40.211,14.846 41.017,13.257 41.535,11.427 L42.667,11.957 C42.4427171,12.6944274 42.1653249,13.4146444 41.837,14.112 L41.837,22.648 L40.608,22.648 L40.608,16.195 Z M51.288,17.688 L57.368,17.688 L57.368,18.819 L51.288,18.819 L51.288,17.688 Z M58.97,20.348 L58.608,19.289 C58.813,19.205 58.921,19.072 58.921,18.904 L58.921,12.546 L60.149,12.546 L60.149,18.843 C60.607,18.699 61.064,18.543 61.51,18.373 L61.51,11.535 L62.75,11.535 L62.75,21.384 C63.858,20.842 64.76,20.144 65.46,19.289 C64.9002653,18.4233035 64.4469918,17.4932535 64.11,16.519 L65.134,15.942 C65.423,16.736 65.772,17.471 66.206,18.157 C66.784,17.097 67.109,15.845 67.193,14.413 L65.146,14.413 C64.736,15.424 64.231,16.279 63.629,16.977 L62.846,16.014 C63.737,14.882 64.327,13.354 64.64,11.451 L65.905,11.668 C65.808,12.198 65.688,12.703 65.568,13.173 L69.3,13.173 L69.3,14.413 L68.385,14.413 C68.277,16.303 67.807,17.916 66.988,19.265 C67.698,20.168 68.566,20.975 69.577,21.685 L68.71,22.708 C67.7744011,22.0311947 66.9324328,21.2336113 66.206,20.336 C65.436,21.239 64.472,21.998 63.328,22.612 L62.75,21.672 L62.75,22.54 L61.51,22.54 L61.51,19.578 C60.691,19.867 59.848,20.12 58.97,20.348 Z M70.937,14.834 L72.659,14.834 L72.659,12.125 L75.055,12.125 C75.188,11.872 75.296,11.619 75.368,11.355 L76.632,11.523 C76.5602954,11.7345867 76.4632572,11.9367218 76.343,12.125 L79.739,12.125 L79.739,14.835 L81.208,14.835 L81.208,15.99 L79.738,15.99 L79.738,17.17 C79.738,17.916 79.318,18.29 78.487,18.29 L77.632,18.29 L77.319,17.17 C77.619,17.194 77.897,17.218 78.137,17.218 C78.378,17.218 78.499,17.049 78.499,16.724 L78.499,15.99 L75.272,15.99 C75.982,16.375 76.596,16.785 77.114,17.23 L76.38,18.121 C75.898,17.615 75.284,17.158 74.525,16.724 L75.151,15.99 L73.767,15.99 C73.562,16.977 73.057,17.808 72.25,18.482 L71.287,17.615 C71.913,17.158 72.334,16.616 72.527,15.99 L70.937,15.99 L70.937,14.834 Z M78.499,14.834 L78.499,13.257 L75.729,13.257 C76.319,13.557 76.825,13.883 77.259,14.232 L76.765,14.834 L78.499,14.834 Z M75.465,13.257 L73.875,13.257 L73.875,14.834 L76.295,14.834 C75.8733422,14.4718197 75.4132624,14.1569401 74.923,13.895 L75.465,13.257 Z M80.293,18.579 L80.293,21.239 L81.521,21.239 L81.521,22.359 L70.6,22.359 L70.6,21.239 L71.743,21.239 L71.743,18.579 L80.292,18.579 L80.293,18.579 Z M72.96,21.239 L74.164,21.239 L74.164,19.71 L72.96,19.71 L72.96,21.24 L72.96,21.239 Z M75.38,21.239 L76.62,21.239 L76.62,19.71 L75.38,19.71 L75.38,21.24 L75.38,21.239 Z M77.836,21.239 L79.076,21.239 L79.076,19.71 L77.836,19.71 L77.836,21.24 L77.836,21.239 Z M89.275,11.415 L90.527,11.583 L90.455,12.498 L93.272,12.498 L93.272,13.63 L90.322,13.63 L90.214,14.352 L92.537,14.352 L92.537,21.155 L93.621,21.155 L93.621,22.311 L85.638,22.311 L85.638,21.155 L86.818,21.155 L86.818,14.352 L88.962,14.352 L89.07,13.63 L86.156,13.63 L86.156,12.498 L89.19,12.498 C89.214,12.125 89.25,11.764 89.275,11.415 Z M88.01,21.155 L91.346,21.155 L91.346,20.457 L88.01,20.457 L88.01,21.155 Z M88.01,19.47 L91.346,19.47 L91.346,18.795 L88.01,18.795 L88.01,19.47 Z M88.01,17.808 L91.346,17.808 L91.346,17.134 L88.01,17.134 L88.01,17.808 Z M88.01,16.146 L91.346,16.146 L91.346,15.484 L88.01,15.484 L88.01,16.146 Z M84.013,16.195 C83.676,16.652 83.327,17.11 82.941,17.543 L82.532,16.195 C83.616,14.846 84.422,13.257 84.94,11.427 L86.072,11.957 C85.8477171,12.6944274 85.5703249,13.4146444 85.242,14.112 L85.242,22.648 L84.013,22.648 L84.013,16.195 Z" id="Shape" fill="#020202" fill-rule="nonzero"></path>
            <path d="M246.362,177.792 L246.082,176.992 C246.242,176.932 246.322,176.832 246.322,176.692 L246.322,171.378 L247.251,171.378 L247.251,176.663 C247.661,176.533 248.071,176.393 248.48,176.233 L248.48,170.538 L249.419,170.538 L249.419,178.801 C250.388,178.321 251.177,177.711 251.777,176.962 C251.294893,176.224931 250.908461,175.429552 250.627,174.595 L251.397,174.155 C251.647,174.855 251.967,175.514 252.347,176.113 C252.846,175.184 253.135,174.095 253.205,172.856 L251.417,172.856 C251.077,173.716 250.647,174.445 250.138,175.024 L249.548,174.305 C250.308,173.345 250.818,172.067 251.078,170.459 L252.026,170.619 C251.936,171.078 251.836,171.518 251.726,171.927 L254.894,171.927 L254.894,172.857 L254.114,172.857 C254.034,174.445 253.635,175.804 252.926,176.942 C253.526,177.712 254.254,178.402 255.114,179.011 L254.464,179.77 C253.645,179.17 252.946,178.491 252.346,177.752 C251.706,178.521 250.898,179.17 249.918,179.69 L249.418,178.88 L249.418,179.64 L248.48,179.64 L248.48,177.142 C247.8,177.382 247.101,177.602 246.362,177.792 Z M256.272,173.306 L257.732,173.306 L257.732,171.048 L259.699,171.048 C259.819,170.828 259.919,170.598 259.979,170.378 L260.929,170.508 C260.859,170.698 260.769,170.878 260.669,171.048 L263.526,171.048 L263.526,173.306 L264.775,173.306 L264.775,174.176 L263.525,174.176 L263.525,175.224 C263.525,175.814 263.196,176.114 262.547,176.114 L261.817,176.114 L261.587,175.264 C261.837,175.284 262.067,175.304 262.277,175.304 C262.487,175.304 262.597,175.164 262.597,174.894 L262.597,174.175 L258.57,174.175 C258.41,175.005 257.99,175.704 257.312,176.263 L256.582,175.613 C257.132,175.214 257.482,174.735 257.632,174.175 L256.272,174.175 L256.272,173.305 L256.272,173.306 Z M262.597,173.306 L262.597,171.907 L260.089,171.907 C260.629,172.177 261.088,172.477 261.488,172.807 L261.068,173.306 L262.597,173.306 Z M260.059,171.907 L258.65,171.907 L258.65,173.306 L260.818,173.306 C260.468,172.996 260.059,172.706 259.589,172.446 L260.059,171.907 Z M259.759,174.205 C260.379,174.535 260.919,174.895 261.368,175.294 L260.808,175.964 C260.408,175.544 259.889,175.164 259.26,174.804 L259.76,174.205 L259.759,174.205 Z M263.995,176.403 L263.995,178.631 L265.035,178.631 L265.035,179.481 L255.993,179.481 L255.993,178.631 L256.972,178.631 L256.972,176.403 L263.995,176.403 Z M257.891,178.631 L258.99,178.631 L258.99,177.262 L257.891,177.262 L257.891,178.631 Z M259.899,178.631 L261.029,178.631 L261.029,177.262 L259.899,177.262 L259.899,178.631 Z M261.947,178.631 L263.077,178.631 L263.077,177.262 L261.947,177.262 L261.947,178.631 Z M271.528,170.439 L272.468,170.569 C272.448,170.839 272.418,171.098 272.398,171.358 L274.785,171.358 L274.785,172.217 L272.298,172.217 C272.258,172.457 272.228,172.677 272.198,172.897 L274.166,172.897 L274.166,178.571 L275.075,178.571 L275.075,179.431 L268.471,179.431 L268.471,178.571 L269.461,178.571 L269.461,172.896 L271.269,172.896 C271.309,172.666 271.339,172.436 271.359,172.216 L268.9,172.216 L268.9,171.358 L271.457,171.358 C271.477,171.048 271.507,170.738 271.527,170.438 L271.528,170.439 Z M270.369,178.571 L273.257,178.571 L273.257,177.901 L270.369,177.901 L270.369,178.571 Z M270.369,177.152 L273.257,177.152 L273.257,176.512 L270.369,176.512 L270.369,177.152 Z M270.369,175.754 L273.257,175.754 L273.257,175.124 L270.369,175.124 L270.369,175.754 Z M270.369,174.374 L273.257,174.374 L273.257,173.745 L270.369,173.745 L270.369,174.375 L270.369,174.374 Z M267.162,174.235 C266.862,174.655 266.543,175.065 266.203,175.454 L265.893,174.444 C266.823,173.306 267.503,171.967 267.932,170.449 L268.791,170.849 C268.601,171.488 268.361,172.097 268.081,172.676 L268.081,179.72 L267.162,179.72 L267.162,174.235 Z M110.097,46.778 L119.549,46.778 L119.549,47.629 L114.834,47.629 L114.834,52.557 L113.844,52.557 L113.844,51.663 C112.992,51.801 111.79,51.929 110.236,52.035 L110.108,51.184 L111.013,51.141 L111.013,47.63 L110.097,47.63 L110.097,46.779 L110.097,46.778 Z M111.971,51.078 C112.597521,51.0277749 113.222199,50.9567356 113.844,50.865 L113.844,50.333 L111.971,50.333 L111.971,51.078 Z M111.971,49.608 L113.844,49.608 L113.844,48.96 L111.971,48.96 L111.971,49.609 L111.971,49.608 Z M111.971,48.236 L113.844,48.236 L113.844,47.629 L111.971,47.629 L111.971,48.236 Z M115.611,48.97 L115.259,48.97 L115.259,48.13 L118.974,48.13 L118.974,48.917 C118.794905,49.6389266 118.456653,50.3116724 117.984,50.886 C118.431,51.206 118.964,51.493 119.581,51.748 L119.07,52.588 C118.451763,52.30334 117.869381,51.9465261 117.335,51.525 C116.771814,51.9636791 116.147989,52.3183699 115.483,52.578 L114.961,51.791 C115.566978,51.5654653 116.1372,51.253578 116.654,50.865 C116.165809,50.3215363 115.808968,49.6732015 115.611,48.97 Z M117.281,50.269 C117.622,49.875 117.878,49.439 118.048,48.97 L116.473,48.97 C116.643,49.45 116.909,49.886 117.282,50.269 L117.281,50.269 Z M118.303,43.042 L118.303,46.309 L117.313,46.309 L117.313,43.809 L112.375,43.809 L112.375,46.341 L111.395,46.341 L111.395,43.041 L118.303,43.041 L118.303,43.042 Z M112.748,44.351 L116.962,44.351 L116.962,45.043 L112.748,45.043 L112.748,44.351 Z M112.726,45.511 L116.984,45.511 L116.984,46.192 L112.726,46.192 L112.726,45.512 L112.726,45.511 Z M125.754,42.648 C125.849,42.914 125.945,43.202 126.041,43.521 L130.181,43.521 L130.181,44.457 L120.719,44.457 L120.719,43.521 L124.945,43.521 C124.853316,43.2872569 124.746421,43.0597699 124.625,42.84 L125.754,42.648 Z M128.457,52.504 L127.574,52.504 L127.339,51.599 L128.159,51.642 C128.553,51.642 128.755,51.492 128.755,51.216 L128.755,48.523 L122.156,48.523 L122.156,52.536 L121.198,52.536 L121.198,47.65 L129.713,47.65 L129.713,51.429 C129.713,52.142 129.287,52.504 128.457,52.504 Z M122.39,44.958 L128.531,44.958 L128.531,47.171 L122.391,47.171 L122.391,44.958 L122.39,44.958 Z M127.563,46.405 L127.563,45.724 L123.359,45.724 L123.359,46.405 L127.563,46.405 Z M123.295,49.035 L127.627,49.035 L127.627,51.269 L123.295,51.269 L123.295,49.034 L123.295,49.035 Z M126.733,50.525 L126.733,49.779 L124.2,49.779 L124.2,50.524 L126.733,50.524 L126.733,50.525 Z M137.216,42.659 L138.216,42.797 C138.196,43.085 138.164,43.361 138.142,43.638 L140.686,43.638 L140.686,44.553 L138.036,44.553 C137.993,44.809 137.961,45.043 137.929,45.277 L140.026,45.277 L140.026,51.322 L140.995,51.322 L140.995,52.238 L133.959,52.238 L133.959,51.322 L135.013,51.322 L135.013,45.277 L136.94,45.277 C136.982,45.032 137.014,44.787 137.035,44.553 L134.417,44.553 L134.417,43.638 L137.142,43.638 C137.163,43.308 137.195,42.978 137.216,42.658 L137.216,42.659 Z M135.982,51.322 L139.058,51.322 L139.058,50.609 L135.982,50.609 L135.982,51.322 Z M135.982,49.811 L139.058,49.811 L139.058,49.13 L135.982,49.13 L135.982,49.811 Z M135.982,48.321 L139.058,48.321 L139.058,47.651 L135.982,47.651 L135.982,48.321 Z M135.982,46.852 L139.058,46.852 L139.058,46.182 L135.982,46.182 L135.982,46.852 Z M132.565,46.703 C132.245,47.15 131.905,47.587 131.543,48.002 L131.213,46.927 C132.203,45.713 132.927,44.287 133.385,42.669 L134.3,43.095 C134.098,43.776 133.842,44.425 133.544,45.043 L133.544,52.546 L132.565,52.546 L132.565,46.703 Z" id="Shape" fill="#2A3052" fill-rule="nonzero"></path>
        </g>
    </g>
</svg>