<?xml version="1.0" encoding="UTF-8"?>
<svg width="299px" height="197px" viewBox="0 0 299 197" version="1.1" xmlns="http://www.w3.org/2000/svg" xmlns:xlink="http://www.w3.org/1999/xlink">
    <!-- Generator: Sketch 53.1 (72631) - https://sketchapp.com -->
    <title>high-tick</title>
    <desc>Created with Sketch.</desc>
    <g id="Page-1" stroke="none" stroke-width="1" fill="none" fill-rule="evenodd">
        <g id="high-tick" fill-rule="nonzero">
            <polygon id="Path" fill="#F1F2F2" points="299 0 299 197 0 197 0 0"></polygon>
            <path d="M2,2 L2,195 L297,195 L297,2 L2,2 Z M0,0 L299,0 L299,197 L0,197 L0,0 Z" id="bg" fill="#C2C2C2"></path>
            <path d="M5,51.2829212 L5,50.0588812 L295,50.0588812 L295,51.2839196 L5,51.2839196 L5,51.2829212 Z M5,92.6636613 L5,91.4386228 L295,91.4386228 L295,92.6636613 L5,92.6636613 Z M5,134.041406 L5,132.816368 L295,132.816368 L295,134.041406 L5,134.041406 Z M5,175.383208 L5,174.157172 L295,174.157172 L295,175.383208 L5,175.383208 Z M39.4196121,30 L40.6286305,30 L40.6286305,193 L39.4205966,193 L39.4205966,30 L39.4196121,30 Z M76.130255,30 L77.3382889,30 L77.3382889,193 L76.130255,193 L76.130255,30 Z M112.801516,30 L114.00955,30 L114.00955,193 L112.801516,193 L112.801516,30 Z M149.509205,30 L150.717239,30 L150.717239,193 L149.509205,193 L149.509205,30 Z M186.179482,30 L187.388501,30 L187.388501,193 L186.179482,193 L186.179482,30 Z M222.850743,30 L224.058777,30 L224.058777,193 L222.850743,193 L222.850743,30 Z M5,113.333564 L5,112.108526 L295,112.108526 L295,113.333564 L5,113.333564 Z" id="Shape" fill="#DFDEDE"></path>
            <polygon id="Path" fill="#C2C2C2" points="2 30 2 28 297 28 297 30"></polygon>
            <polygon id="Path" fill="#15212D" points="1.724 72.034 1.724 70.886 296.276 70.886 296.276 72.034"></polygon>
            <path d="M88.833283,85.662609 L39.2584305,115.890843 C38.3903254,116.42017 37.2574831,116.145536 36.7281565,115.277431 C36.19883,114.409325 36.4734643,113.276483 37.3415695,112.747157 L88.0115695,81.8511565 C88.6696768,81.449876 89.5080978,81.5010575 90.1125079,81.9794084 L135.435954,117.849939 L183.893091,67.9366272 C184.67355,67.1327145 185.985111,67.2065235 186.670446,68.0929249 L261.930446,165.432925 C262.55236,166.237298 262.404448,167.393532 261.600075,168.015446 C260.795702,168.63736 259.639468,168.489448 259.017554,167.685075 L185.056112,72.0246087 L136.918909,121.608373 C136.260791,122.286268 135.196348,122.355931 134.455492,121.769592 L88.833283,85.662609 Z" id="Path" fill="#2A3052"></path>
            <ellipse id="Oval" fill="#FFFFFF" opacity="0.6" cx="185.652" cy="69.653" rx="8.247" ry="8.633"></ellipse>
            <path d="M185.652,79.5135 C180.4065,79.5135 176.1775,75.0865617 176.1775,69.653 C176.1775,64.2194383 180.4065,59.7925 185.652,59.7925 C190.8975,59.7925 195.1265,64.2194383 195.1265,69.653 C195.1265,75.0865617 190.8975,79.5135 185.652,79.5135 Z M185.652,77.0585 C189.515885,77.0585 192.6715,73.7551868 192.6715,69.653 C192.6715,65.5508132 189.515885,62.2475 185.652,62.2475 C181.788115,62.2475 178.6325,65.5508132 178.6325,69.653 C178.6325,73.7551868 181.788115,77.0585 185.652,77.0585 Z" id="Oval" fill="#E88024"></path>
            <path d="M23.68,125.645 L35.365,125.645 L35.365,126.695 L32.86,126.695 L32.86,130.67 L36.145,130.67 L36.145,131.705 L32.86,131.705 L32.86,138.35 L31.765,138.35 L31.765,131.705 L27.43,131.705 C27.295,133.25 27.01,134.525 26.56,135.545 C25.99,136.805 25.045,137.78 23.725,138.47 L23.14,137.54 C24.355,136.85 25.21,135.935 25.69,134.795 C26.005,133.925 26.215,132.905 26.335,131.705 L22.87,131.705 L22.87,130.67 L26.395,130.67 C26.395,130.475 26.41,130.295 26.41,130.145 L26.41,126.695 L23.68,126.695 L23.68,125.645 Z M27.52,126.695 L27.52,130.145 C27.52,130.325 27.505,130.505 27.505,130.67 L31.765,130.67 L31.765,126.695 L27.52,126.695 Z M39.46,124.685 L40.525,124.775 C40.39,125.795 40.255,126.74 40.12,127.61 L42.34,127.61 L42.34,128.24 C42.22,130.67 41.8,132.755 41.08,134.525 C41.785,135.26 42.37,135.92 42.82,136.52 L42.1,137.36 C41.68,136.805 41.185,136.205 40.6,135.575 C40,136.715 39.265,137.705 38.365,138.545 L37.69,137.69 C38.575,136.88 39.295,135.92 39.865,134.78 C39.265,134.165 38.62,133.535 37.93,132.875 C38.29,131.57 38.605,130.16 38.875,128.645 L37.675,128.645 L37.675,127.61 L39.055,127.61 C39.205,126.665 39.34,125.69 39.46,124.685 Z M40.315,133.745 C40.885,132.245 41.215,130.55 41.32,128.645 L39.955,128.645 C39.67,130.22 39.385,131.525 39.085,132.56 C39.52,132.965 39.925,133.355 40.315,133.745 Z M50.26,132.125 L50.26,138.515 L49.225,138.515 L49.225,137.615 L44.635,137.615 L44.635,138.515 L43.6,138.515 L43.6,132.125 L50.26,132.125 Z M44.635,136.595 L49.225,136.595 L49.225,133.115 L44.635,133.115 L44.635,136.595 Z M43.015,130.775 L42.85,129.8 C43.72,129.35 44.8,127.67 46.09,124.73 L47.11,125.075 C46.21,127.025 45.325,128.57 44.425,129.725 C46.105,129.62 47.71,129.44 49.225,129.2 C48.805,128.375 48.385,127.61 47.95,126.92 L48.88,126.47 C49.705,127.79 50.485,129.23 51.205,130.805 L50.2,131.285 C50.02,130.88 49.855,130.49 49.675,130.115 C47.68,130.4 45.46,130.625 43.015,130.775 Z" id="开始" fill="#2A3052"></path>
            <path d="M217.89,173.985 C218.91,174.78 219.765,175.56 220.455,176.34 L219.675,177.12 C219.075,176.37 218.235,175.56 217.155,174.69 L217.89,173.985 Z M226.41,187.23 C225.615,187.23 224.745,187.215 223.815,187.2 C222.87,187.185 222.105,187.095 221.52,186.93 C220.95,186.75 220.425,186.375 219.975,185.835 C219.78,185.58 219.6,185.46 219.42,185.46 C219.06,185.46 218.46,186.15 217.635,187.53 L216.825,186.795 C217.62,185.535 218.325,184.77 218.94,184.5 L218.94,179.94 L216.81,179.94 L216.81,178.95 L219.945,178.95 L219.945,184.575 C220.065,184.665 220.17,184.77 220.29,184.905 C220.65,185.34 221.025,185.655 221.415,185.85 C221.865,186.06 222.525,186.18 223.38,186.21 C224.16,186.225 225.12,186.24 226.26,186.24 C227.01,186.24 227.775,186.225 228.555,186.21 C229.335,186.195 229.935,186.18 230.355,186.15 L230.085,187.23 L226.41,187.23 Z M224.94,180.495 C225.765,180.975 226.53,181.455 227.25,181.965 C227.82,181.47 228.3,180.96 228.72,180.45 L229.5,181.05 C229.02,181.62 228.54,182.115 228.045,182.55 C228.765,183.12 229.44,183.705 230.07,184.305 L229.41,185.1 C228.09,183.72 226.395,182.43 224.325,181.23 L224.94,180.495 Z M222.99,177.57 L222.99,178.905 L228,178.905 L228,177.57 L222.99,177.57 Z M228,176.67 L228,175.335 L222.99,175.335 L222.99,176.67 L228,176.67 Z M222.99,179.88 L222.99,183.93 C223.98,183.75 224.97,183.525 225.945,183.24 L226.185,184.215 C225.015,184.53 223.545,184.845 221.76,185.145 L221.535,184.23 C221.805,184.125 221.94,183.975 221.94,183.78 L221.94,174.36 L229.065,174.36 L229.065,179.88 L222.99,179.88 Z M231.855,175.47 L237.915,175.47 C237.675,174.84 237.405,174.285 237.135,173.775 L238.29,173.595 C238.53,174.15 238.77,174.78 239.01,175.47 L245.145,175.47 L245.145,176.505 L239.055,176.505 L239.055,178.47 L243.93,178.47 L243.93,183.915 C243.93,184.815 243.465,185.28 242.565,185.28 L241.065,185.28 L240.795,184.245 L242.22,184.305 C242.64,184.305 242.85,184.095 242.85,183.675 L242.85,179.505 L239.055,179.505 L239.055,187.47 L237.945,187.47 L237.945,179.505 L234.33,179.505 L234.33,185.385 L233.265,185.385 L233.265,178.47 L237.945,178.47 L237.945,176.505 L231.855,176.505 L231.855,175.47 Z M247.305,174.435 L251.34,174.435 L251.34,178.995 L250.05,178.995 L250.05,181.47 L251.505,181.47 L251.505,182.43 L250.05,182.43 L250.05,185.115 C250.56,184.935 251.055,184.74 251.505,184.545 L251.505,185.52 C250.185,186.105 248.67,186.645 246.93,187.155 L246.63,186.18 C246.84,186.12 247.035,186.075 247.23,186.015 L247.23,180.57 L248.115,180.57 L248.115,185.76 C248.46,185.655 248.79,185.55 249.105,185.445 L249.105,178.995 L247.305,178.995 L247.305,174.435 Z M250.38,178.095 L250.38,175.335 L248.265,175.335 L248.265,178.095 L250.38,178.095 Z M254.235,180.255 L254.235,173.76 L255.255,173.76 L255.255,180.57 C255.225,183.75 254.37,186.075 252.705,187.545 L251.895,186.84 C253.245,185.67 254.01,183.915 254.19,181.56 C253.59,182.28 252.9,182.895 252.135,183.405 L251.565,182.445 C252.555,181.89 253.455,181.155 254.235,180.255 Z M259.23,175.62 L260.145,176.055 C259.65,177.255 259.065,178.305 258.405,179.19 L257.595,178.62 C258.225,177.78 258.78,176.79 259.23,175.62 Z M257.46,180.93 L257.46,185.805 C257.46,186.105 257.595,186.255 257.895,186.255 L258.555,186.255 C258.84,186.255 259.035,186.15 259.14,185.97 C259.29,185.715 259.38,184.995 259.44,183.825 L260.385,184.125 C260.295,185.61 260.115,186.51 259.845,186.825 C259.605,187.095 259.245,187.23 258.75,187.23 L257.58,187.23 C256.8,187.23 256.425,186.825 256.425,186.03 L256.425,173.76 L257.46,173.76 L257.46,179.835 C258.465,180.495 259.395,181.275 260.235,182.175 L259.62,183.105 C258.9,182.235 258.18,181.515 257.46,180.93 Z M252.63,176.04 C253.14,176.925 253.62,177.9 254.07,178.965 L253.275,179.355 C252.795,178.275 252.3,177.315 251.76,176.46 L252.63,176.04 Z M262.35,174.795 L267.78,174.795 L267.78,175.83 L262.35,175.83 L262.35,174.795 Z M261.765,178.845 L268.35,178.845 L268.35,179.895 L264.885,179.895 C264.285,182.175 263.76,183.795 263.31,184.785 C264.495,184.545 265.68,184.2 266.85,183.765 C266.46,182.955 266.085,182.22 265.695,181.53 L266.61,181.08 C267.33,182.37 268.005,183.765 268.635,185.28 L267.705,185.76 C267.555,185.37 267.405,185.01 267.255,184.665 C265.665,185.235 263.925,185.685 262.065,186.015 L261.81,184.995 C261.915,184.965 261.99,184.935 262.05,184.905 C262.5,184.29 263.1,182.625 263.85,179.895 L261.765,179.895 L261.765,178.845 Z M270.6,173.79 L271.68,173.79 L271.68,176.82 L274.95,176.82 C274.95,181.515 274.875,184.41 274.74,185.52 C274.59,186.735 273.855,187.35 272.565,187.35 C272.31,187.35 271.875,187.335 271.245,187.305 L271.005,186.345 C271.545,186.375 272.025,186.405 272.43,186.405 C273.165,186.405 273.6,185.97 273.72,185.115 C273.81,184.32 273.87,181.905 273.9,177.87 L271.68,177.87 L271.68,178.05 C271.635,182.37 270.585,185.535 268.545,187.53 L267.735,186.825 C269.61,185.01 270.57,182.085 270.6,178.05 L270.6,177.87 L268.575,177.87 L268.575,176.82 L270.6,176.82 L270.6,173.79 Z M282.72,173.775 L283.785,173.775 L283.785,175.23 L289.605,175.23 L289.605,176.25 L283.785,176.25 L283.785,178.155 L288.57,178.155 L288.57,182.97 L278.64,182.97 L278.64,178.155 L282.72,178.155 L282.72,173.775 Z M287.49,181.965 L287.49,179.175 L279.72,179.175 L279.72,181.965 L287.49,181.965 Z M278.61,183.63 L279.525,184.065 C278.955,185.37 278.31,186.495 277.56,187.455 L276.675,186.81 C277.425,185.925 278.07,184.86 278.61,183.63 Z M281.88,184.065 C282.18,185.055 282.45,186.135 282.69,187.29 L281.61,187.53 C281.4,186.3 281.16,185.22 280.875,184.275 L281.88,184.065 Z M285.015,183.915 C285.465,184.935 285.855,186.06 286.185,187.26 L285.12,187.5 C284.82,186.225 284.445,185.1 283.995,184.125 L285.015,183.915 Z M288.09,183.615 C289.05,184.875 289.77,185.97 290.28,186.9 L289.38,187.53 C288.855,186.51 288.135,185.4 287.22,184.17 L288.09,183.615 Z" id="退市跳动点" fill="#2A3052"></path>
            <path d="M23.01,7.58 C23.13,7.94 23.265,8.345 23.385,8.78 L29.175,8.78 L29.175,10.22 L15.81,10.22 L15.81,8.78 L21.675,8.78 C21.54,8.45 21.405,8.15 21.255,7.88 L23.01,7.58 Z M26.73,21.515 L25.5,21.515 L25.125,20.135 L26.28,20.18 C26.805,20.18 27.075,20 27.075,19.64 L27.075,15.965 L17.925,15.965 L17.925,21.56 L16.44,21.56 L16.44,14.615 L28.56,14.615 L28.56,19.955 C28.56,20.99 27.945,21.515 26.73,21.515 Z M18.12,10.835 L26.895,10.835 L26.895,14.015 L18.12,14.015 L18.12,10.835 Z M25.395,12.845 L25.395,12.005 L19.62,12.005 L19.62,12.845 L25.395,12.845 Z M19.425,16.565 L25.605,16.565 L25.605,19.805 L19.425,19.805 L19.425,16.565 Z M24.225,18.65 L24.225,17.72 L20.805,17.72 L20.805,18.65 L24.225,18.65 Z M31.14,8.24 L35.505,8.24 L35.505,13.19 L34.305,13.19 L34.305,15.275 L35.565,15.275 L35.565,16.16 C36.48,15.68 37.29,15.08 38.01,14.33 L38.01,12.995 L36.99,13.49 C36.57,12.38 36.12,11.39 35.64,10.505 L36.9,9.905 C37.275,10.715 37.65,11.615 38.01,12.605 L38.01,7.73 L39.48,7.73 L39.48,14.6 C39.45,17.81 38.625,20.165 37.005,21.665 L35.82,20.615 C36.96,19.625 37.65,18.155 37.905,16.235 C37.395,16.775 36.855,17.24 36.27,17.645 L35.565,16.46 L35.565,16.625 L34.305,16.625 L34.305,18.755 C34.74,18.605 35.16,18.44 35.565,18.275 L35.565,19.685 C34.215,20.255 32.67,20.795 30.93,21.305 L30.495,19.91 C30.675,19.85 30.855,19.805 31.035,19.775 L31.035,14.54 L32.295,14.54 L32.295,19.43 C32.52,19.355 32.745,19.28 32.955,19.22 L32.955,13.19 L31.14,13.19 L31.14,8.24 Z M34.155,11.9 L34.155,9.53 L32.49,9.53 L32.49,11.9 L34.155,11.9 Z M43.095,9.425 L44.385,10.055 C43.905,11.285 43.335,12.335 42.675,13.235 L41.715,12.56 L41.715,13.775 C42.675,14.39 43.545,15.11 44.355,15.935 L43.47,17.3 C42.885,16.565 42.3,15.935 41.715,15.425 L41.715,19.505 C41.715,19.775 41.835,19.925 42.09,19.925 L42.495,19.925 C42.69,19.925 42.825,19.82 42.915,19.625 C43.02,19.415 43.095,18.755 43.125,17.675 L44.505,18.095 C44.385,19.67 44.205,20.6 43.935,20.9 C43.665,21.17 43.275,21.32 42.765,21.32 L41.64,21.32 C40.695,21.32 40.23,20.81 40.23,19.82 L40.23,7.73 L41.715,7.73 L41.715,12.095 C42.255,11.33 42.705,10.445 43.095,9.425 Z M46.245,8.57 L51.885,8.57 L51.885,10.055 L46.245,10.055 L46.245,8.57 Z M45.69,12.605 L52.425,12.605 L52.425,14.135 L49.065,14.135 C48.57,16.085 48.135,17.525 47.76,18.485 C48.705,18.275 49.635,17.99 50.55,17.66 C50.22,16.94 49.89,16.28 49.56,15.65 L50.865,15.02 C51.525,16.25 52.185,17.615 52.815,19.115 C53.82,17.375 54.33,15.065 54.36,12.215 L54.36,12.095 L52.515,12.095 L52.515,10.595 L54.36,10.595 L54.36,7.715 L55.92,7.715 L55.92,10.595 L59.145,10.595 C59.145,15.545 59.07,18.605 58.935,19.775 C58.755,20.885 57.975,21.44 56.595,21.44 C56.355,21.44 55.95,21.41 55.35,21.365 L54.99,20 C55.515,20.03 55.965,20.06 56.355,20.06 C56.985,20.06 57.345,19.73 57.465,19.07 C57.555,18.395 57.6,16.07 57.63,12.095 L55.92,12.095 L55.92,12.215 C55.875,16.52 54.84,19.67 52.8,21.665 L51.615,20.63 C52.05,20.21 52.425,19.73 52.755,19.205 L51.465,19.865 C51.345,19.535 51.225,19.235 51.105,18.95 C49.53,19.49 47.835,19.91 46.035,20.24 L45.675,18.77 C45.825,18.725 45.93,18.68 45.99,18.635 C46.38,18.065 46.905,16.565 47.55,14.135 L45.69,14.135 L45.69,12.605 Z M66.495,7.79 L68.04,7.79 L68.04,9.065 L73.71,9.065 L73.71,10.52 L68.04,10.52 L68.04,11.99 L72.795,11.99 L72.795,17.18 L62.445,17.18 L62.445,11.99 L66.495,11.99 L66.495,7.79 Z M71.235,15.74 L71.235,13.445 L64.005,13.445 L64.005,15.74 L71.235,15.74 Z M62.415,17.615 L63.72,18.245 C63.18,19.52 62.565,20.63 61.845,21.56 L60.555,20.615 C61.275,19.775 61.89,18.785 62.415,17.615 Z M66.12,18.11 C66.42,19.07 66.675,20.09 66.915,21.2 L65.34,21.575 C65.16,20.375 64.92,19.325 64.65,18.41 L66.12,18.11 Z M69.225,17.9 C69.645,18.905 70.02,20 70.35,21.17 L68.79,21.545 C68.52,20.285 68.175,19.16 67.755,18.2 L69.225,17.9 Z M72.21,17.54 C73.14,18.77 73.86,19.835 74.37,20.735 L73.05,21.635 C72.525,20.645 71.82,19.55 70.935,18.35 L72.21,17.54 Z" id="高跳动点" fill="#000000"></path>
            <path d="M134.044,43.748 L137.272,43.748 L137.272,47.396 L136.24,47.396 L136.24,49.376 L137.404,49.376 L137.404,50.144 L136.24,50.144 L136.24,52.292 C136.648,52.148 137.044,51.992 137.404,51.836 L137.404,52.616 C136.348,53.084 135.136,53.516 133.744,53.924 L133.504,53.144 C133.672,53.096 133.828,53.06 133.984,53.012 L133.984,48.656 L134.692,48.656 L134.692,52.808 C134.968,52.724 135.232,52.64 135.484,52.556 L135.484,47.396 L134.044,47.396 L134.044,43.748 Z M136.504,46.676 L136.504,44.468 L134.812,44.468 L134.812,46.676 L136.504,46.676 Z M139.588,48.404 L139.588,43.208 L140.404,43.208 L140.404,48.656 C140.38,51.2 139.696,53.06 138.364,54.236 L137.716,53.672 C138.796,52.736 139.408,51.332 139.552,49.448 C139.072,50.024 138.52,50.516 137.908,50.924 L137.452,50.156 C138.244,49.712 138.964,49.124 139.588,48.404 Z M143.584,44.696 L144.316,45.044 C143.92,46.004 143.452,46.844 142.924,47.552 L142.276,47.096 C142.78,46.424 143.224,45.632 143.584,44.696 Z M142.168,48.944 L142.168,52.844 C142.168,53.084 142.276,53.204 142.516,53.204 L143.044,53.204 C143.272,53.204 143.428,53.12 143.512,52.976 C143.632,52.772 143.704,52.196 143.752,51.26 L144.508,51.5 C144.436,52.688 144.292,53.408 144.076,53.66 C143.884,53.876 143.596,53.984 143.2,53.984 L142.264,53.984 C141.64,53.984 141.34,53.66 141.34,53.024 L141.34,43.208 L142.168,43.208 L142.168,48.068 C142.972,48.596 143.716,49.22 144.388,49.94 L143.896,50.684 C143.32,49.988 142.744,49.412 142.168,48.944 Z M138.304,45.032 C138.712,45.74 139.096,46.52 139.456,47.372 L138.82,47.684 C138.436,46.82 138.04,46.052 137.608,45.368 L138.304,45.032 Z M146.08,44.036 L150.424,44.036 L150.424,44.864 L146.08,44.864 L146.08,44.036 Z M145.612,47.276 L150.88,47.276 L150.88,48.116 L148.108,48.116 C147.628,49.94 147.208,51.236 146.848,52.028 C147.796,51.836 148.744,51.56 149.68,51.212 C149.368,50.564 149.068,49.976 148.756,49.424 L149.488,49.064 C150.064,50.096 150.604,51.212 151.108,52.424 L150.364,52.808 C150.244,52.496 150.124,52.208 150.004,51.932 C148.732,52.388 147.34,52.748 145.852,53.012 L145.648,52.196 C145.732,52.172 145.792,52.148 145.84,52.124 C146.2,51.632 146.68,50.3 147.28,48.116 L145.612,48.116 L145.612,47.276 Z M152.68,43.232 L153.544,43.232 L153.544,45.656 L156.16,45.656 C156.16,49.412 156.1,51.728 155.992,52.616 C155.872,53.588 155.284,54.08 154.252,54.08 C154.048,54.08 153.7,54.068 153.196,54.044 L153.004,53.276 C153.436,53.3 153.82,53.324 154.144,53.324 C154.732,53.324 155.08,52.976 155.176,52.292 C155.248,51.656 155.296,49.724 155.32,46.496 L153.544,46.496 L153.544,46.64 C153.508,50.096 152.668,52.628 151.036,54.224 L150.388,53.66 C151.888,52.208 152.656,49.868 152.68,46.64 L152.68,46.496 L151.06,46.496 L151.06,45.656 L152.68,45.656 L152.68,43.232 Z M162.376,43.22 L163.228,43.22 L163.228,44.384 L167.884,44.384 L167.884,45.2 L163.228,45.2 L163.228,46.724 L167.056,46.724 L167.056,50.576 L159.112,50.576 L159.112,46.724 L162.376,46.724 L162.376,43.22 Z M166.192,49.772 L166.192,47.54 L159.976,47.54 L159.976,49.772 L166.192,49.772 Z M159.088,51.104 L159.82,51.452 C159.364,52.496 158.848,53.396 158.248,54.164 L157.54,53.648 C158.14,52.94 158.656,52.088 159.088,51.104 Z M161.704,51.452 C161.944,52.244 162.16,53.108 162.352,54.032 L161.488,54.224 C161.32,53.24 161.128,52.376 160.9,51.62 L161.704,51.452 Z M164.212,51.332 C164.572,52.148 164.884,53.048 165.148,54.008 L164.296,54.2 C164.056,53.18 163.756,52.28 163.396,51.5 L164.212,51.332 Z M166.672,51.092 C167.44,52.1 168.016,52.976 168.424,53.72 L167.704,54.224 C167.284,53.408 166.708,52.52 165.976,51.536 L166.672,51.092 Z M173.608,44.432 L174.532,44.432 L174.532,50.252 L175.924,50.252 L175.924,51.056 L174.532,51.056 L174.532,53 L173.596,53 L173.596,51.056 L169.288,51.056 L169.288,50.12 L173.608,44.432 Z M173.56,45.716 L170.116,50.252 L173.596,50.252 L173.596,45.716 L173.56,45.716 Z M179.2,45.692 C179.404,45.692 179.584,45.764 179.728,45.92 C179.872,46.052 179.944,46.22 179.944,46.436 C179.944,46.64 179.872,46.808 179.728,46.952 C179.584,47.096 179.404,47.168 179.2,47.168 C178.984,47.168 178.816,47.096 178.672,46.952 C178.528,46.808 178.468,46.64 178.468,46.436 C178.468,46.22 178.528,46.052 178.672,45.92 C178.816,45.764 178.984,45.692 179.2,45.692 Z M179.2,50.084 C179.404,50.084 179.584,50.156 179.728,50.312 C179.872,50.444 179.944,50.612 179.944,50.828 C179.944,51.032 179.872,51.2 179.728,51.344 C179.584,51.488 179.404,51.56 179.2,51.56 C178.984,51.56 178.816,51.488 178.672,51.344 C178.528,51.2 178.468,51.032 178.468,50.828 C178.468,50.612 178.528,50.444 178.672,50.312 C178.816,50.156 178.984,50.084 179.2,50.084 Z M188.92,47.876 L199.504,47.876 L199.504,48.572 L194.116,48.572 L194.116,52.364 C194.356,52.328 194.596,52.292 194.812,52.256 L194.812,52.94 C194.596,52.976 194.356,53.012 194.116,53.06 L194.116,54.224 L193.276,54.224 L193.276,53.168 C192.136,53.3 190.732,53.42 189.064,53.516 L188.956,52.772 L190.072,52.724 L190.072,48.572 L188.92,48.572 L188.92,47.876 Z M190.852,52.688 C191.74,52.628 192.556,52.556 193.276,52.472 L193.276,51.656 L190.852,51.656 L190.852,52.688 Z M190.852,51.02 L193.276,51.02 L193.276,50.12 L190.852,50.12 L190.852,51.02 Z M190.852,49.472 L193.276,49.472 L193.276,48.572 L190.852,48.572 L190.852,49.472 Z M190.444,43.628 L198.028,43.628 L198.028,47.084 L190.444,47.084 L190.444,43.628 Z M197.2,46.46 L197.2,45.656 L191.272,45.656 L191.272,46.46 L197.2,46.46 Z M191.272,45.044 L197.2,45.044 L197.2,44.276 L191.272,44.276 L191.272,45.044 Z M195.124,50.084 L194.74,50.084 L194.74,49.376 L198.832,49.376 L198.832,50.048 C198.604,50.972 198.196,51.764 197.62,52.436 C198.148,52.832 198.772,53.18 199.516,53.492 L199.072,54.212 C198.28,53.84 197.608,53.432 197.068,52.988 C196.516,53.468 195.844,53.876 195.064,54.212 L194.62,53.54 C195.34,53.228 195.964,52.868 196.48,52.436 C195.808,51.74 195.364,50.96 195.124,50.084 Z M197.008,51.92 C197.488,51.368 197.836,50.756 198.052,50.084 L195.868,50.084 C196.084,50.768 196.456,51.38 197.008,51.92 Z M206.356,43.124 C206.488,43.448 206.62,43.808 206.74,44.204 L211.492,44.204 L211.492,44.996 L200.896,44.996 L200.896,44.204 L205.816,44.204 C205.696,43.868 205.552,43.568 205.408,43.292 L206.356,43.124 Z M209.572,54.164 L208.564,54.164 L208.36,53.384 L209.32,53.42 C209.812,53.42 210.064,53.228 210.064,52.844 L210.064,49.58 L202.336,49.58 L202.336,54.2 L201.508,54.2 L201.508,48.824 L210.892,48.824 L210.892,53.024 C210.892,53.78 210.448,54.164 209.572,54.164 Z M202.852,45.776 L209.56,45.776 L209.56,48.104 L202.852,48.104 L202.852,45.776 Z M208.72,47.432 L208.72,46.448 L203.692,46.448 L203.692,47.432 L208.72,47.432 Z M203.848,50.348 L208.564,50.348 L208.564,52.748 L203.848,52.748 L203.848,50.348 Z M207.796,52.1 L207.796,50.996 L204.628,50.996 L204.628,52.1 L207.796,52.1 Z M213.244,43.748 L216.472,43.748 L216.472,47.396 L215.44,47.396 L215.44,49.376 L216.604,49.376 L216.604,50.144 L215.44,50.144 L215.44,52.292 C215.848,52.148 216.244,51.992 216.604,51.836 L216.604,52.616 C215.548,53.084 214.336,53.516 212.944,53.924 L212.704,53.144 C212.872,53.096 213.028,53.06 213.184,53.012 L213.184,48.656 L213.892,48.656 L213.892,52.808 C214.168,52.724 214.432,52.64 214.684,52.556 L214.684,47.396 L213.244,47.396 L213.244,43.748 Z M215.704,46.676 L215.704,44.468 L214.012,44.468 L214.012,46.676 L215.704,46.676 Z M218.788,48.404 L218.788,43.208 L219.604,43.208 L219.604,48.656 C219.58,51.2 218.896,53.06 217.564,54.236 L216.916,53.672 C217.996,52.736 218.608,51.332 218.752,49.448 C218.272,50.024 217.72,50.516 217.108,50.924 L216.652,50.156 C217.444,49.712 218.164,49.124 218.788,48.404 Z M222.784,44.696 L223.516,45.044 C223.12,46.004 222.652,46.844 222.124,47.552 L221.476,47.096 C221.98,46.424 222.424,45.632 222.784,44.696 Z M221.368,48.944 L221.368,52.844 C221.368,53.084 221.476,53.204 221.716,53.204 L222.244,53.204 C222.472,53.204 222.628,53.12 222.712,52.976 C222.832,52.772 222.904,52.196 222.952,51.26 L223.708,51.5 C223.636,52.688 223.492,53.408 223.276,53.66 C223.084,53.876 222.796,53.984 222.4,53.984 L221.464,53.984 C220.84,53.984 220.54,53.66 220.54,53.024 L220.54,43.208 L221.368,43.208 L221.368,48.068 C222.172,48.596 222.916,49.22 223.588,49.94 L223.096,50.684 C222.52,49.988 221.944,49.412 221.368,48.944 Z M217.504,45.032 C217.912,45.74 218.296,46.52 218.656,47.372 L218.02,47.684 C217.636,46.82 217.24,46.052 216.808,45.368 L217.504,45.032 Z M225.28,44.036 L229.624,44.036 L229.624,44.864 L225.28,44.864 L225.28,44.036 Z M224.812,47.276 L230.08,47.276 L230.08,48.116 L227.308,48.116 C226.828,49.94 226.408,51.236 226.048,52.028 C226.996,51.836 227.944,51.56 228.88,51.212 C228.568,50.564 228.268,49.976 227.956,49.424 L228.688,49.064 C229.264,50.096 229.804,51.212 230.308,52.424 L229.564,52.808 C229.444,52.496 229.324,52.208 229.204,51.932 C227.932,52.388 226.54,52.748 225.052,53.012 L224.848,52.196 C224.932,52.172 224.992,52.148 225.04,52.124 C225.4,51.632 225.88,50.3 226.48,48.116 L224.812,48.116 L224.812,47.276 Z M231.88,43.232 L232.744,43.232 L232.744,45.656 L235.36,45.656 C235.36,49.412 235.3,51.728 235.192,52.616 C235.072,53.588 234.484,54.08 233.452,54.08 C233.248,54.08 232.9,54.068 232.396,54.044 L232.204,53.276 C232.636,53.3 233.02,53.324 233.344,53.324 C233.932,53.324 234.28,52.976 234.376,52.292 C234.448,51.656 234.496,49.724 234.52,46.496 L232.744,46.496 L232.744,46.64 C232.708,50.096 231.868,52.628 230.236,54.224 L229.588,53.66 C231.088,52.208 231.856,49.868 231.88,46.64 L231.88,46.496 L230.26,46.496 L230.26,45.656 L231.88,45.656 L231.88,43.232 Z M241.576,43.22 L242.428,43.22 L242.428,44.384 L247.084,44.384 L247.084,45.2 L242.428,45.2 L242.428,46.724 L246.256,46.724 L246.256,50.576 L238.312,50.576 L238.312,46.724 L241.576,46.724 L241.576,43.22 Z M245.392,49.772 L245.392,47.54 L239.176,47.54 L239.176,49.772 L245.392,49.772 Z M238.288,51.104 L239.02,51.452 C238.564,52.496 238.048,53.396 237.448,54.164 L236.74,53.648 C237.34,52.94 237.856,52.088 238.288,51.104 Z M240.904,51.452 C241.144,52.244 241.36,53.108 241.552,54.032 L240.688,54.224 C240.52,53.24 240.328,52.376 240.1,51.62 L240.904,51.452 Z M243.412,51.332 C243.772,52.148 244.084,53.048 244.348,54.008 L243.496,54.2 C243.256,53.18 242.956,52.28 242.596,51.5 L243.412,51.332 Z M245.872,51.092 C246.64,52.1 247.216,52.976 247.624,53.72 L246.904,54.224 C246.484,53.408 245.908,52.52 245.176,51.536 L245.872,51.092 Z" id="跳动点4：最高跳动点" fill="#2A3052"></path>
        </g>
    </g>
</svg>