<?xml version="1.0" encoding="UTF-8"?>
<svg width="299px" height="197px" viewBox="0 0 299 197" version="1.1" xmlns="http://www.w3.org/2000/svg" xmlns:xlink="http://www.w3.org/1999/xlink">
    <!-- Generator: Sketch 52.6 (67491) - http://www.bohemiancoding.com/sketch -->
    <title>high-low</title>
    <desc>Created with Sketch.</desc>
    <g id="Page-1" stroke="none" stroke-width="1" fill="none" fill-rule="evenodd">
        <g id="high-low">
            <g id="Group">
                <polygon id="Shape" fill="#F1F2F2" points="0 0 299 0 299 197 0 197"></polygon>
                <path d="M1.98671096,1.9798995 L1.98671096,195.020101 L297.013289,195.020101 L297.013289,1.9798995 L1.98671096,1.9798995 Z M299,0 L299,197 L0,197 L0,0 L299,0 Z" id="Shape" fill="#C2C2C2" fill-rule="nonzero"></path>
                <path d="M4.887,56.1681983 L4.887,54.9623677 L294.54325,54.9623677 L294.54325,56.1681983 L4.887,56.1681983 Z M4.887,96.4974436 L4.887,95.291613 L294.54325,95.291613 L294.54325,96.4974436 L4.887,96.4974436 Z M4.887,136.826689 L4.887,135.620859 L294.54325,135.620859 L294.54325,136.826689 L4.887,136.826689 Z M4.887,177.118764 L4.887,175.912934 L294.54325,175.912934 L294.54325,177.118764 L4.887,177.118764 Z M39.2670847,35.4192453 L40.4729153,35.4192453 L40.4729153,194.283019 L39.2670847,194.283019 L39.2670847,35.4192453 Z M75.9319597,35.4192453 L77.1377903,35.4192453 L77.1377903,194.283019 L75.9319597,194.283019 L75.9319597,35.4192453 Z M112.55946,35.4192453 L113.76529,35.4192453 L113.76529,194.283019 L112.55946,194.283019 L112.55946,35.4192453 Z M149.224335,35.4192453 L150.430165,35.4192453 L150.430165,194.283019 L149.224335,194.283019 L149.224335,35.4192453 Z M185.851835,35.4192453 L187.057665,35.4192453 L187.057665,194.283019 L185.851835,194.283019 L185.851835,35.4192453 Z M222.479335,35.4192453 L223.685165,35.4192453 L223.685165,194.283019 L222.479335,194.283019 L222.479335,35.4192453 Z M4.887,116.643481 L4.887,115.437651 L294.54325,115.437651 L294.54325,116.643481 L4.887,116.643481 Z" id="Shape-2" fill="#DFDEDE" fill-rule="nonzero"></path>
                <path d="M4.887,65.1614382 L4.887,64.0336562 L12.3557552,64.0336562 L12.3557552,65.1614382 L4.887,65.1614382 Z M19.8245105,65.1614382 L19.8245105,64.0336562 L27.2932657,64.0336562 L27.2932657,65.1614382 L19.8245105,65.1614382 Z M34.762021,65.1614382 L34.762021,64.0336562 L42.2307762,64.0336562 L42.2307762,65.1614382 L34.762021,65.1614382 Z M49.6995315,65.1614382 L49.6995315,64.0336562 L57.1682867,64.0336562 L57.1682867,65.1614382 L49.6995315,65.1614382 Z M64.637042,65.1614382 L64.637042,64.0336562 L72.1057972,64.0336562 L72.1057972,65.1614382 L64.637042,65.1614382 Z M79.5745525,65.1614382 L79.5745525,64.0336562 L87.0433077,64.0336562 L87.0433077,65.1614382 L79.5745525,65.1614382 Z M94.5120629,65.1614382 L94.5120629,64.0336562 L101.980818,64.0336562 L101.980818,65.1614382 L94.5120629,65.1614382 Z M109.449573,65.1614382 L109.449573,64.0336562 L116.918329,64.0336562 L116.918329,65.1614382 L109.449573,65.1614382 Z M124.387084,65.1614382 L124.387084,64.0336562 L131.855839,64.0336562 L131.855839,65.1614382 L124.387084,65.1614382 Z M139.324594,65.1614382 L139.324594,64.0336562 L146.79335,64.0336562 L146.79335,65.1614382 L139.324594,65.1614382 Z M154.262105,65.1614382 L154.262105,64.0336562 L161.73086,64.0336562 L161.73086,65.1614382 L154.262105,65.1614382 Z M169.199615,65.1614382 L169.199615,64.0336562 L176.668371,64.0336562 L176.668371,65.1614382 L169.199615,65.1614382 Z M184.137126,65.1614382 L184.137126,64.0336562 L191.605881,64.0336562 L191.605881,65.1614382 L184.137126,65.1614382 Z M199.074636,65.1614382 L199.074636,64.0336562 L206.543392,64.0336562 L206.543392,65.1614382 L199.074636,65.1614382 Z M214.012147,65.1614382 L214.012147,64.0336562 L221.480902,64.0336562 L221.480902,65.1614382 L214.012147,65.1614382 Z M228.949657,65.1614382 L228.949657,64.0336562 L236.418413,64.0336562 L236.418413,65.1614382 L228.949657,65.1614382 Z M243.887168,65.1614382 L243.887168,64.0336562 L251.355923,64.0336562 L251.355923,65.1614382 L243.887168,65.1614382 Z M258.824678,65.1614382 L258.824678,64.0336562 L266.293434,64.0336562 L266.293434,65.1614382 L258.824678,65.1614382 Z M273.762189,65.1614382 L273.762189,64.0336562 L281.230944,64.0336562 L281.230944,65.1614382 L273.762189,65.1614382 Z M288.699699,65.1614382 L288.699699,64.0336562 L294.54325,64.0336562 L294.54325,65.1614382 L288.699699,65.1614382 Z" id="Shape-3" fill="#15212D" fill-rule="nonzero"></path>
                <polygon id="Path" fill="#2A3052" fill-rule="nonzero" points="240.45671 35.4192453 241.66254 35.4192453 241.66254 194.283019 240.45671 194.283019"></polygon>
                <path d="M4.887,157.677099 L4.887,156.549317 L12.3557552,156.549317 L12.3557552,157.677099 L4.887,157.677099 Z M19.8245105,157.677099 L19.8245105,156.549317 L27.2932657,156.549317 L27.2932657,157.677099 L19.8245105,157.677099 Z M34.762021,157.677099 L34.762021,156.549317 L42.2307762,156.549317 L42.2307762,157.677099 L34.762021,157.677099 Z M49.6995315,157.677099 L49.6995315,156.549317 L57.1682867,156.549317 L57.1682867,157.677099 L49.6995315,157.677099 Z M64.637042,157.677099 L64.637042,156.549317 L72.1057972,156.549317 L72.1057972,157.677099 L64.637042,157.677099 Z M79.5745525,157.677099 L79.5745525,156.549317 L87.0433077,156.549317 L87.0433077,157.677099 L79.5745525,157.677099 Z M94.5120629,157.677099 L94.5120629,156.549317 L101.980818,156.549317 L101.980818,157.677099 L94.5120629,157.677099 Z M109.449573,157.677099 L109.449573,156.549317 L116.918329,156.549317 L116.918329,157.677099 L109.449573,157.677099 Z M124.387084,157.677099 L124.387084,156.549317 L131.855839,156.549317 L131.855839,157.677099 L124.387084,157.677099 Z M139.324594,157.677099 L139.324594,156.549317 L146.79335,156.549317 L146.79335,157.677099 L139.324594,157.677099 Z M154.262105,157.677099 L154.262105,156.549317 L161.73086,156.549317 L161.73086,157.677099 L154.262105,157.677099 Z M169.199615,157.677099 L169.199615,156.549317 L176.668371,156.549317 L176.668371,157.677099 L169.199615,157.677099 Z M184.137126,157.677099 L184.137126,156.549317 L191.605881,156.549317 L191.605881,157.677099 L184.137126,157.677099 Z M199.074636,157.677099 L199.074636,156.549317 L206.543392,156.549317 L206.543392,157.677099 L199.074636,157.677099 Z M214.012147,157.677099 L214.012147,156.549317 L221.480902,156.549317 L221.480902,157.677099 L214.012147,157.677099 Z M228.949657,157.677099 L228.949657,156.549317 L236.418413,156.549317 L236.418413,157.677099 L228.949657,157.677099 Z M243.887168,157.677099 L243.887168,156.549317 L251.355923,156.549317 L251.355923,157.677099 L243.887168,157.677099 Z M258.824678,157.677099 L258.824678,156.549317 L266.293434,156.549317 L266.293434,157.677099 L258.824678,157.677099 Z M273.762189,157.677099 L273.762189,156.549317 L281.230944,156.549317 L281.230944,157.677099 L273.762189,157.677099 Z M288.699699,157.677099 L288.699699,156.549317 L294.54325,156.549317 L294.54325,157.677099 L288.699699,157.677099 Z" id="Path-2" fill="#15212D" fill-rule="nonzero"></path>
                <polygon id="Shape-4" fill="#C2C2C2" fill-rule="nonzero" points="2.794 35.4358286 2.794 33.023794 296.63625 33.023794 296.63625 35.4358286"></polygon>
                <path d="M56.6412045,102.228668 L21.9184493,117.693023 C21.0058223,118.099477 19.9364962,117.689142 19.5300426,116.776515 C19.123589,115.863888 19.5339236,114.794562 20.4465507,114.388109 L56.1920007,98.4682786 C56.8186454,98.1891919 57.5492377,98.2885757 58.0785624,98.7249108 L83.037108,119.298844 L125.345574,64.0442066 C126.224621,62.8961762 128.02865,63.1924409 128.494361,64.5613128 L158.380193,152.405232 L174.764402,108.178915 C174.874246,107.882411 175.059891,107.619878 175.302829,107.41749 L202.657591,84.6286785 C203.274241,84.1149571 204.155658,84.0689828 204.822407,84.5157626 L241.748907,109.259706 C242.578851,109.81584 242.800818,110.939479 242.244684,111.769423 C241.68855,112.599367 240.564911,112.821334 239.734967,112.2652 L203.933128,88.2748764 L177.989301,109.888261 L160.00391,158.436689 C159.412399,160.03337 157.143524,160.002902 156.595101,158.390914 L126.159764,68.9318244 L84.7696381,122.987114 C84.1467836,123.800559 82.9733241,123.934871 82.1827751,123.283202 L56.6412045,102.228668 Z" id="Shape-5" fill="#2A3052" fill-rule="nonzero"></path>
                <g opacity="0.6" transform="translate(150.500000, 147.962264)" fill="#FFFFFF" id="Oval">
                    <ellipse cx="8.110375" cy="9.3739623" rx="8.110375" ry="8.40037736"></ellipse>
                </g>
                <path d="M158.610375,166.942621 C153.455409,166.942621 149.293983,162.632395 149.293983,157.336226 C149.293983,152.040057 153.455409,147.729831 158.610375,147.729831 C163.765341,147.729831 167.926767,152.040057 167.926767,157.336226 C167.926767,162.632395 163.765341,166.942621 158.610375,166.942621 Z M158.610375,164.530586 C162.413882,164.530586 165.514733,161.318858 165.514733,157.336226 C165.514733,153.353594 162.413882,150.141866 158.610375,150.141866 C154.806868,150.141866 151.706017,153.353594 151.706017,157.336226 C151.706017,161.318858 154.806868,164.530586 158.610375,164.530586 Z" id="Oval-2" fill="#E88024" fill-rule="nonzero"></path>
                <g id="Group-2" opacity="0.6" transform="translate(117.862500, 56.754717)" fill="#FFFFFF">
                    <ellipse id="Oval-3" cx="8.979125" cy="8.40037736" rx="8.110375" ry="8.40037736"></ellipse>
                </g>
                <path d="M126.841625,74.7614889 C121.686659,74.7614889 117.525233,70.4512631 117.525233,65.1550943 C117.525233,59.8589255 121.686659,55.5486997 126.841625,55.5486997 C131.996591,55.5486997 136.158017,59.8589255 136.158017,65.1550943 C136.158017,70.4512631 131.996591,74.7614889 126.841625,74.7614889 Z M126.841625,72.3494544 C130.645132,72.3494544 133.745983,69.1377262 133.745983,65.1550943 C133.745983,61.1724624 130.645132,57.9607342 126.841625,57.9607342 C123.038118,57.9607342 119.937267,61.1724624 119.937267,65.1550943 C119.937267,69.1377262 123.038118,72.3494544 126.841625,72.3494544 Z" id="Oval-4" fill="#E88024" fill-rule="nonzero"></path>
            </g>
            <g id="Group" transform="translate(8.000000, 123.850000)" fill="#2A3052" fill-rule="nonzero">
                <path d="M13.237,0.295 L14.14,0.396 L13.767,2.719 C13.887,2.728 14.506,2.728 15.623,2.719 C15.654,4.424 15.303,6.969 14.585,8.432 C15.355,9.261 15.841,9.823 16.04,10.12 L15.438,10.79 L14.203,9.315 C13.483,10.497 12.855,11.321 12.323,11.785 C12.233,11.658 12.051,11.425 11.773,11.088 C12.471,10.343 13.16,9.581 13.57,8.686 L11.978,7.099 L12.778,3.565 L11.773,3.565 L11.773,2.719 L12.9,2.719 L13.237,0.295 Z M14.805,3.57 L13.665,3.57 C13.4561809,4.65673591 13.2117157,5.7363182 12.932,6.807 C13.355,7.219 13.695,7.554 13.952,7.81 C14.387,6.88 14.805,4.232 14.805,3.57 Z M18.764,0.31 L19.595,0.596 C18.64,2.576 17.899,3.863 17.371,4.453 C19.779,4.243 21.104,4.097 21.347,4.015 C20.757,2.895 20.415,2.269 20.319,2.135 L21.096,1.758 C21.934,3.2 22.572,4.392 23.011,5.336 L22.167,5.761 L21.728,4.791 C18.685,5.142 16.843,5.324 16.202,5.336 C16.154,5.022 16.108,4.746 16.062,4.509 C16.783,4.112 17.684,2.713 18.764,0.311 L18.764,0.31 Z M21.463,11.786 L21.463,11.02 L17.64,11.02 L17.64,11.786 L16.762,11.786 L16.762,6.474 L22.31,6.474 L22.31,11.786 L21.462,11.786 L21.463,11.786 Z M21.457,7.292 L17.662,7.292 L17.662,10.152 L21.457,10.152 L21.457,7.292 Z M0.87,1.808 L0.87,1.168 L10.448,1.168 L10.448,1.808 L8.625,1.808 L8.625,5.202 L11.237,5.202 L11.237,6.187 L8.625,6.187 L8.625,11.533 L7.61,11.533 L7.61,6.187 L3.985,6.179 C3.715,10.743 1.275,11.533 0.97,11.734 C0.778191822,11.4878425 0.601852568,11.2300131 0.442,10.962 C1.632,10.051 2.984,9.033 2.984,6.179 C1.968,6.184 0.834,6.206 0.167,6.187 L0.167,5.202 L2.984,5.202 L2.984,1.808 L0.87,1.808 Z M7.583,1.988 L4.084,1.988 L4.084,5.18 L7.584,5.18 L7.584,1.987 L7.583,1.988 Z" id="Shape"></path>
            </g>
            <path d="M112.386,45.487 L121.838,45.487 L121.838,46.338 L117.123,46.338 L117.123,51.266 L116.133,51.266 L116.133,50.372 C115.281,50.51 114.079,50.638 112.525,50.744 L112.397,49.893 L113.302,49.85 L113.302,46.338 L112.386,46.338 L112.386,45.487 Z M114.26,49.787 C114.886521,49.7367749 115.511199,49.6657356 116.133,49.574 L116.133,49.042 L114.26,49.042 L114.26,49.787 Z M114.26,48.317 L116.133,48.317 L116.133,47.669 L114.26,47.669 L114.26,48.318 L114.26,48.317 Z M114.26,46.945 L116.133,46.945 L116.133,46.338 L114.26,46.338 L114.26,46.945 Z M117.9,47.679 L117.548,47.679 L117.548,46.839 L121.263,46.839 L121.263,47.626 C121.083905,48.3479266 120.745653,49.0206724 120.273,49.595 C120.72,49.915 121.253,50.202 121.869,50.457 L121.359,51.297 C120.740763,51.01234 120.158381,50.6555261 119.624,50.234 C119.060814,50.6726791 118.436989,51.0273699 117.772,51.287 L117.25,50.5 C117.855978,50.2744653 118.4262,49.962578 118.943,49.574 C118.454809,49.0305363 118.097968,48.3822015 117.9,47.679 Z M119.57,48.978 C119.911,48.584 120.167,48.148 120.337,47.679 L118.762,47.679 C118.932,48.159 119.198,48.595 119.571,48.978 L119.57,48.978 Z M120.592,41.751 L120.592,45.018 L119.602,45.018 L119.602,42.518 L114.664,42.518 L114.664,45.05 L113.684,45.05 L113.684,41.751 L120.592,41.751 Z M115.036,43.061 L119.251,43.061 L119.251,43.751 L115.036,43.751 L115.036,43.061 Z M115.016,44.221 L119.272,44.221 L119.272,44.901 L115.015,44.901 L115.015,44.221 L115.016,44.221 Z M128.043,41.357 C128.138,41.623 128.234,41.911 128.33,42.23 L132.47,42.23 L132.47,43.167 L123.008,43.167 L123.008,42.23 L127.234,42.23 C127.142316,41.9962569 127.035421,41.7687699 126.914,41.549 L128.043,41.357 Z M130.746,51.213 L129.862,51.213 L129.628,50.308 L130.448,50.351 C130.842,50.351 131.044,50.201 131.044,49.925 L131.044,47.232 L124.445,47.232 L124.445,51.245 L123.487,51.245 L123.487,46.359 L132.002,46.359 L132.002,50.138 C132.002,50.851 131.576,51.213 130.746,51.213 Z M124.679,43.667 L130.82,43.667 L130.82,45.881 L124.68,45.881 L124.68,43.667 L124.679,43.667 Z M129.852,45.114 L129.852,44.434 L125.648,44.434 L125.648,45.114 L129.852,45.114 Z M125.584,47.744 L129.916,47.744 L129.916,49.978 L125.584,49.978 L125.584,47.743 L125.584,47.744 Z M129.022,49.234 L129.022,48.488 L126.489,48.488 L126.489,49.233 L129.022,49.233 L129.022,49.234 Z M139.505,41.368 L140.505,41.506 C140.485,41.794 140.452,42.07 140.431,42.347 L142.975,42.347 L142.975,43.262 L140.325,43.262 C140.282,43.518 140.25,43.752 140.218,43.986 L142.315,43.986 L142.315,50.031 L143.284,50.031 L143.284,50.947 L136.248,50.947 L136.248,50.031 L137.302,50.031 L137.302,43.986 L139.229,43.986 C139.271,43.741 139.303,43.496 139.324,43.262 L136.706,43.262 L136.706,42.347 L139.431,42.347 C139.452,42.017 139.484,41.687 139.505,41.367 L139.505,41.368 Z M138.271,50.031 L141.347,50.031 L141.347,49.318 L138.271,49.318 L138.271,50.031 Z M138.271,48.521 L141.347,48.521 L141.347,47.839 L138.271,47.839 L138.271,48.52 L138.271,48.521 Z M138.271,47.03 L141.347,47.03 L141.347,46.36 L138.271,46.36 L138.271,47.03 Z M138.271,45.561 L141.347,45.561 L141.347,44.891 L138.271,44.891 L138.271,45.561 Z M134.854,45.412 C134.534,45.859 134.194,46.296 133.832,46.711 L133.502,45.636 C134.492,44.422 135.216,42.996 135.674,41.378 L136.589,41.804 C136.387,42.485 136.131,43.134 135.833,43.752 L135.833,51.255 L134.854,51.255 L134.854,45.412 Z M144.139,175.117 L151.87,175.117 L151.87,175.881 L148.048,175.881 L148.048,179.877 L147.162,179.877 L147.162,179.174 C146.484,179.278 145.52,179.374 144.261,179.469 L144.148,178.705 L144.86,178.67 L144.86,175.881 L144.139,175.881 L144.139,175.117 Z M145.719,178.609 C146.201062,178.570638 146.682187,178.521292 147.162,178.461 L147.162,178.079 L145.72,178.079 L145.72,178.609 L145.719,178.609 Z M145.719,177.436 L147.162,177.436 L147.162,176.959 L145.72,176.959 L145.72,177.436 L145.719,177.436 Z M145.719,176.316 L147.162,176.316 L147.162,175.881 L145.72,175.881 L145.72,176.316 L145.719,176.316 Z M148.639,176.976 L148.352,176.976 L148.352,176.229 L151.41,176.229 L151.41,176.932 C151.27,177.523 151.01,178.044 150.645,178.496 C151.001,178.739 151.418,178.966 151.905,179.156 L151.445,179.912 C150.954757,179.682634 150.491292,179.399927 150.063,179.069 C149.608486,179.418598 149.105122,179.699593 148.569,179.903 L148.109,179.2 C148.629,179 149.082,178.765 149.455,178.487 C149.070973,178.052401 148.791808,177.535466 148.639,176.976 Z M150.019,177.957 C150.269917,177.668715 150.464608,177.335976 150.593,176.976 L149.412,176.976 C149.533,177.332 149.742,177.662 150.02,177.957 L150.019,177.957 Z M150.879,172.077 L150.879,174.77 L149.994,174.77 L149.994,172.754 L146.05,172.754 L146.05,174.796 L145.173,174.796 L145.173,172.076 L150.88,172.076 L150.879,172.077 Z M146.328,173.154 L149.724,173.154 L149.724,173.754 L146.328,173.754 L146.328,173.154 Z M146.311,174.101 L149.741,174.101 L149.741,174.691 L146.311,174.691 L146.311,174.101 Z M154.511,171.781 L155.336,172.172 C155.127,172.806 154.866,173.414 154.536,173.996 L154.536,179.877 L153.651,179.877 L153.651,175.317 C153.416,175.612 153.164,175.899 152.904,176.177 L152.608,175.221 C153.46,174.248 154.094,173.101 154.511,171.781 Z M156.274,175.586 L156.274,177.471 C156.744,177.332 157.204,177.176 157.647,177.011 L157.803,177.801 C157.091,178.036 156.248,178.279 155.293,178.539 L155.067,177.775 C155.284,177.671 155.397,177.471 155.397,177.175 L155.397,172.581 C157.238,172.372 158.697,172.138 159.783,171.877 L160.287,172.597 C159.879,172.702 159.401,172.807 158.863,172.911 C158.863,173.588 158.871,174.188 158.889,174.717 L160.444,174.717 L160.444,175.587 L158.924,175.587 C158.976,176.646 159.054,177.376 159.175,177.775 C159.34,178.392 159.531,178.731 159.749,178.783 C159.862,178.757 159.966,178.305 160.053,177.436 L160.773,177.931 C160.6,179.131 160.27,179.73 159.783,179.73 C159.497,179.73 159.236,179.59 159.002,179.321 C158.689,178.948 158.463,178.461 158.324,177.853 C158.211,177.402 158.133,176.646 158.09,175.586 L156.274,175.586 Z M158.054,174.717 C158.03644,174.16151 158.028106,173.605767 158.029,173.05 C157.49,173.128 156.909,173.206 156.274,173.284 L156.274,174.717 L158.054,174.717 Z M155.414,178.861 L158.298,178.861 L158.298,179.703 L155.414,179.703 L155.414,178.861 Z M166.237,171.773 L167.141,171.894 L167.089,172.554 L169.121,172.554 L169.121,173.371 L166.993,173.371 L166.915,173.892 L168.592,173.892 L168.592,178.8 L169.373,178.8 L169.373,179.634 L163.614,179.634 L163.614,178.8 L164.465,178.8 L164.465,173.892 L166.012,173.892 L166.09,173.371 L163.988,173.371 L163.988,172.554 L166.177,172.554 C166.194,172.285 166.22,172.024 166.237,171.773 Z M165.325,178.8 L167.732,178.8 L167.732,178.296 L165.325,178.296 L165.325,178.8 Z M165.325,177.584 L167.732,177.584 L167.732,177.098 L165.325,177.098 L165.325,177.584 Z M165.325,176.385 L167.732,176.385 L167.732,175.899 L165.325,175.899 L165.325,176.385 Z M165.325,175.187 L167.732,175.187 L167.732,174.709 L165.325,174.709 L165.325,175.186 L165.325,175.187 Z M162.441,175.221 C162.198,175.551 161.946,175.881 161.668,176.194 L161.373,175.221 C162.155,174.248 162.737,173.101 163.11,171.781 L163.927,172.164 C163.762,172.702 163.562,173.224 163.327,173.718 L163.327,179.878 L162.441,179.878 L162.441,175.221 Z" id="Shape" fill="#2A3052" fill-rule="nonzero"></path>
            <path d="M15.883,15.594 L26.37,15.594 L26.37,16.562 L21.162,16.562 L21.162,19.987 C21.375,19.951 21.575,19.916 21.764,19.892 L21.764,20.825 C21.575,20.861 21.374,20.896 21.162,20.943 L21.162,22.053 L19.982,22.053 L19.982,21.109 C18.942,21.239 17.619,21.357 16.037,21.475 L15.883,20.435 L16.875,20.388 L16.875,16.562 L15.883,16.562 L15.883,15.594 Z M17.997,20.317 C18.6598199,20.2760531 19.3213993,20.2170311 19.981,20.14 L19.981,19.585 L17.997,19.585 L17.997,20.317 Z M17.997,18.711 L19.981,18.711 L19.981,18.061 L17.997,18.061 L17.997,18.711 Z M17.997,17.188 L19.981,17.188 L19.981,16.562 L17.997,16.562 L17.997,17.188 Z M17.241,11.425 L25.071,11.425 L25.071,15.074 L17.241,15.074 L17.241,11.424 L17.241,11.425 Z M23.89,14.224 L23.89,13.669 L18.41,13.669 L18.41,14.224 L23.89,14.224 Z M18.41,12.842 L23.89,12.842 L23.89,12.311 L18.41,12.311 L18.41,12.841 L18.41,12.842 Z M21.977,18.085 L21.611,18.085 L21.611,17.093 L25.768,17.093 L25.768,18.026 C25.5964591,18.812607 25.2445445,19.5486152 24.74,20.176 C25.213,20.506 25.78,20.79 26.43,21.05 L25.803,22.065 C25.095,21.735 24.481,21.368 23.973,20.967 C23.453,21.392 22.827,21.758 22.107,22.065 L21.481,21.12 C22.0755436,20.8910957 22.6357901,20.5815301 23.146,20.2 C22.5893665,19.6009561 22.1876964,18.8748601 21.976,18.085 L21.977,18.085 Z M23.89,19.467 C24.233,19.042 24.492,18.581 24.658,18.085 L23.028,18.085 C23.205,18.593 23.488,19.054 23.89,19.467 Z M33.326,11 C33.42,11.283 33.526,11.602 33.621,11.944 L38.18,11.944 L38.18,13.078 L27.657,13.078 L27.657,11.944 L32.275,11.944 C32.1789889,11.7017287 32.0687982,11.4653197 31.945,11.236 L33.325,11 L33.326,11 Z M36.255,21.97 L35.286,21.97 L34.991,20.884 L35.901,20.92 C36.314,20.92 36.526,20.778 36.526,20.494 L36.526,17.601 L29.322,17.601 L29.322,22.006 L28.153,22.006 L28.153,16.538 L37.695,16.538 L37.695,20.742 C37.695,21.557 37.211,21.971 36.255,21.971 L36.255,21.97 Z M29.475,13.562 L36.385,13.562 L36.385,16.066 L29.475,16.066 L29.475,13.562 Z M35.204,15.145 L35.204,14.483 L30.657,14.483 L30.657,15.145 L35.204,15.145 Z M30.504,18.074 L35.369,18.074 L35.369,20.624 L30.503,20.624 L30.503,18.074 L30.504,18.074 Z M34.282,19.715 L34.282,18.983 L31.59,18.983 L31.59,19.715 L34.282,19.715 Z M45.915,11.011 L47.143,11.177 L47.073,12.074 L49.835,12.074 L49.835,13.184 L46.942,13.184 L46.836,13.893 L49.116,13.893 L49.116,20.565 L50.178,20.565 L50.178,21.699 L42.348,21.699 L42.348,20.565 L43.506,20.565 L43.506,13.893 L45.608,13.893 L45.714,13.184 L42.856,13.184 L42.856,12.074 L45.832,12.074 C45.856,11.708 45.892,11.354 45.915,11.011 Z M44.675,20.565 L47.946,20.565 L47.946,19.88 L44.675,19.88 L44.675,20.565 Z M44.675,18.912 L47.946,18.912 L47.946,18.251 L44.675,18.251 L44.675,18.912 Z M44.675,17.282 L47.946,17.282 L47.946,16.621 L44.675,16.621 L44.675,17.282 Z M44.675,15.652 L47.946,15.652 L47.946,15.003 L44.675,15.003 L44.675,15.653 L44.675,15.652 Z M40.754,15.7 C40.424,16.149 40.081,16.597 39.703,17.022 L39.3,15.7 C40.363,14.377 41.154,12.818 41.662,11.023 L42.772,11.543 C42.5520562,12.2663933 42.2800113,12.972908 41.958,13.657 L41.958,22.03 L40.753,22.03 L40.753,15.7 L40.754,15.7 Z M54.877,17.837 L51.48,17.837 L51.48,16.54 L54.877,16.54 L54.877,17.837 Z M56.455,15.594 L66.942,15.594 L66.942,16.562 L61.734,16.562 L61.734,19.987 C61.947,19.951 62.147,19.916 62.336,19.892 L62.336,20.825 C62.147,20.861 61.946,20.896 61.734,20.943 L61.734,22.053 L60.554,22.053 L60.554,21.109 C59.514,21.239 58.191,21.357 56.609,21.475 L56.455,20.435 L57.447,20.388 L57.447,16.562 L56.455,16.562 L56.455,15.594 Z M58.569,20.317 C59.2318199,20.2760531 59.8933993,20.2170311 60.553,20.14 L60.553,19.585 L58.57,19.585 L58.57,20.317 L58.569,20.317 Z M58.569,18.711 L60.553,18.711 L60.553,18.061 L58.57,18.061 L58.57,18.711 L58.569,18.711 Z M58.569,17.188 L60.553,17.188 L60.553,16.562 L58.57,16.562 L58.57,17.188 L58.569,17.188 Z M57.813,11.425 L65.643,11.425 L65.643,15.074 L57.813,15.074 L57.813,11.424 L57.813,11.425 Z M64.463,14.224 L64.463,13.669 L58.983,13.669 L58.983,14.224 L64.463,14.224 Z M58.983,12.842 L64.463,12.842 L64.463,12.311 L58.983,12.311 L58.983,12.841 L58.983,12.842 Z M62.549,18.085 L62.183,18.085 L62.183,17.093 L66.34,17.093 L66.34,18.026 C66.1684591,18.812607 65.8165445,19.5486152 65.312,20.176 C65.785,20.506 66.352,20.79 67.002,21.05 L66.375,22.065 C65.667,21.735 65.053,21.368 64.545,20.967 C64.025,21.392 63.399,21.758 62.679,22.065 L62.053,21.12 C62.6475436,20.8910957 63.2077901,20.5815301 63.718,20.2 C63.1613665,19.6009561 62.7596964,18.8748601 62.548,18.085 L62.549,18.085 Z M64.462,19.467 C64.805,19.042 65.064,18.581 65.23,18.085 L63.6,18.085 C63.777,18.593 64.06,19.054 64.462,19.467 Z M72.942,16.467 L72.942,20.128 C73.202,20.01 73.461,19.892 73.721,19.762 L73.921,20.825 C73.1448917,21.1245052 72.361306,21.4042619 71.571,21.664 L71.253,20.613 C71.583,20.506 71.749,20.293 71.749,19.987 L71.749,12.452 C74.217,12.086 76.177,11.672 77.629,11.2 L78.303,12.18 C77.724,12.37 77.051,12.559 76.283,12.747 C76.295,13.727 76.331,14.577 76.378,15.298 L78.716,15.298 L78.716,16.468 L76.472,16.468 C76.508,16.893 76.555,17.247 76.626,17.554 C76.815,18.581 77.016,19.314 77.24,19.75 C77.453,20.2 77.618,20.435 77.712,20.435 C77.795,20.435 77.889,19.845 77.984,18.675 L79,19.231 C78.763,20.991 78.397,21.876 77.913,21.876 C77.512,21.876 77.098,21.557 76.661,20.943 C76.224,20.329 75.858,19.349 75.551,18.026 C75.445,17.566 75.362,17.046 75.291,16.467 L72.941,16.467 L72.942,16.467 Z M75.091,13.007 C74.429,13.137 73.709,13.267 72.941,13.385 L72.941,15.298 L75.185,15.298 C75.1337951,14.535612 75.1024511,13.7720198 75.091,13.008 L75.091,13.007 Z M74.819,19.231 C75.457,20.034 75.941,20.754 76.283,21.368 L75.363,22.006 C74.9438427,21.2560876 74.482433,20.5305861 73.981,19.833 L74.819,19.231 Z M70.544,11.023 L71.666,11.555 C71.3869502,12.4157235 71.0228176,13.2464953 70.579,14.035 L70.579,22.03 L69.375,22.03 L69.375,15.83 C69.056,16.231 68.713,16.621 68.359,16.999 L67.958,15.699 C69.115,14.377 69.978,12.819 70.544,11.023 Z M86.487,11.011 L87.715,11.177 L87.645,12.074 L90.408,12.074 L90.408,13.184 L87.514,13.184 L87.408,13.893 L89.688,13.893 L89.688,20.565 L90.75,20.565 L90.75,21.699 L82.92,21.699 L82.92,20.565 L84.078,20.565 L84.078,13.893 L86.18,13.893 L86.286,13.184 L83.428,13.184 L83.428,12.074 L86.404,12.074 C86.428,11.708 86.464,11.354 86.487,11.011 Z M85.247,20.565 L88.518,20.565 L88.518,19.88 L85.247,19.88 L85.247,20.565 Z M85.247,18.912 L88.518,18.912 L88.518,18.251 L85.247,18.251 L85.247,18.912 Z M85.247,17.282 L88.518,17.282 L88.518,16.621 L85.247,16.621 L85.247,17.282 Z M85.247,15.652 L88.518,15.652 L88.518,15.003 L85.247,15.003 L85.247,15.653 L85.247,15.652 Z M81.326,15.7 C80.996,16.149 80.653,16.597 80.275,17.022 L79.873,15.7 C80.936,14.377 81.728,12.818 82.235,11.023 L83.345,11.543 C83.1250562,12.2663933 82.8530113,12.972908 82.531,13.657 L82.531,22.03 L81.326,22.03 L81.326,15.7 Z" id="Shape" fill="#020202" fill-rule="nonzero"></path>
            <path d="M250.469,120.51 L250.469,121.325 C249.245,121.769 247.865,122.129 246.305,122.417 L246.197,121.577 C247.829,121.313 249.245,120.953 250.469,120.509 L250.469,120.51 Z M248.249,111.87 L249.053,112.181 C248.441,113.741 247.817,114.989 247.193,115.925 C247.762556,115.851883 248.33066,115.767868 248.897,115.673 C249.125,115.241 249.365,114.797 249.605,114.341 L250.361,114.617 C249.269,116.645 248.357,118.085 247.625,118.949 C248.537,118.769 249.437,118.529 250.325,118.229 L250.325,118.997 C249.11028,119.421594 247.855985,119.723108 246.581,119.897 L246.353,119.117 C246.509,119.045 246.641,118.961 246.749,118.865 C247.205,118.397 247.769,117.605 248.441,116.477 C247.757,116.585 247.073,116.681 246.377,116.777 L246.161,115.985 C246.308179,115.91167 246.432626,115.799668 246.521,115.661 C247.193,114.557 247.769,113.297 248.249,111.869 L248.249,111.87 Z M250.325,113.393 L253.193,113.393 L253.193,111.941 L254.069,111.941 L254.069,113.393 L256.925,113.393 L256.925,114.233 L254.069,114.233 L254.069,116.009 L256.577,116.009 L256.577,116.849 L250.721,116.849 L250.721,116.009 L253.193,116.009 L253.193,114.233 L250.325,114.233 L250.325,113.393 Z M256.229,118.049 L256.229,122.873 L255.389,122.873 L255.389,122.297 L251.957,122.297 L251.957,122.873 L251.105,122.873 L251.105,118.05 L256.229,118.05 L256.229,118.049 Z M251.957,121.481 L255.389,121.481 L255.389,118.865 L251.957,118.865 L251.957,121.481 Z M258.389,113.141 L263.081,113.141 L263.081,111.941 L263.969,111.941 L263.969,113.141 L268.637,113.141 L268.637,113.969 L263.969,113.969 L263.969,115.145 L267.749,115.145 L267.749,118.541 L264.7,118.541 C265.564,119.765 267.028,120.845 269.068,121.805 L268.48,122.549 C266.356,121.361 264.868,120.029 264.004,118.541 L263.968,118.541 L263.968,122.897 L263.08,122.897 L263.08,118.541 L263.044,118.541 C262.132,120.173 260.62,121.517 258.496,122.573 L257.992,121.781 C259.984,120.941 261.436,119.861 262.336,118.541 L259.324,118.541 L259.324,115.145 L263.08,115.145 L263.08,113.969 L258.388,113.969 L258.388,113.141 L258.389,113.141 Z M266.885,117.749 L266.885,115.961 L263.969,115.961 L263.969,117.749 L266.885,117.749 Z M263.081,117.749 L263.081,115.961 L260.189,115.961 L260.189,117.749 L263.081,117.749 Z" id="Shape" fill="#2A3052" fill-rule="nonzero"></path>
        </g>
    </g>
</svg>