<?xml version="1.0" encoding="UTF-8"?>
<svg width="299px" height="197px" viewBox="0 0 299 197" version="1.1" xmlns="http://www.w3.org/2000/svg" xmlns:xlink="http://www.w3.org/1999/xlink">
    <!-- Generator: Sketch 52.3 (67297) - http://www.bohemiancoding.com/sketch -->
    <title>Simplified Chinese Matches</title>
    <desc>Created with Sketch.</desc>
    <defs>
        <path d="M178.230195,15.449 L189.696195,15.449 L189.696195,16.203 L183.859195,16.203 L183.859195,20.311 C184.119195,20.272 184.379195,20.233 184.613195,20.194 L184.613195,20.935 C184.379195,20.974 184.119195,21.013 183.859195,21.065 L183.859195,22.326 L182.949195,22.326 L182.949195,21.182 C181.714195,21.325 180.193195,21.455 178.386195,21.559 L178.269195,20.753 L179.478195,20.701 L179.478195,16.203 L178.230195,16.203 L178.230195,15.449 Z M180.323195,20.662 C181.285195,20.597 182.169195,20.519 182.949195,20.428 L182.949195,19.544 L180.323195,19.544 L180.323195,20.662 Z M180.323195,18.855 L182.949195,18.855 L182.949195,17.88 L180.323195,17.88 L180.323195,18.855 Z M180.323195,17.178 L182.949195,17.178 L182.949195,16.203 L180.323195,16.203 L180.323195,17.178 Z M179.881195,10.847 L188.097195,10.847 L188.097195,14.591 L179.881195,14.591 L179.881195,10.847 Z M187.200195,13.915 L187.200195,13.044 L180.778195,13.044 L180.778195,13.915 L187.200195,13.915 Z M180.778195,12.381 L187.200195,12.381 L187.200195,11.549 L180.778195,11.549 L180.778195,12.381 Z M184.951195,17.841 L184.535195,17.841 L184.535195,17.074 L188.968195,17.074 L188.968195,17.802 C188.721195,18.803 188.279195,19.661 187.655195,20.389 C188.227195,20.818 188.903195,21.195 189.709195,21.533 L189.228195,22.313 C188.370195,21.91 187.642195,21.468 187.057195,20.987 C186.459195,21.507 185.731195,21.949 184.886195,22.313 L184.405195,21.585 C185.185195,21.247 185.861195,20.857 186.420195,20.389 C185.692195,19.635 185.211195,18.79 184.951195,17.841 Z M186.992195,19.83 C187.512195,19.232 187.889195,18.569 188.123195,17.841 L185.757195,17.841 C185.991195,18.582 186.394195,19.245 186.992195,19.83 Z M193.414195,14.968 L193.414195,15.306 C193.336195,18.218 192.738195,20.532 191.646195,22.261 L190.957195,21.546 C191.906195,20.038 192.413195,17.958 192.491195,15.306 L192.491195,11.406 C195.845195,11.367 198.848195,11.068 201.526195,10.509 L201.994195,11.354 C199.446195,11.874 196.586195,12.16 193.414195,12.238 L193.414195,14.058 L202.774195,14.058 L202.774195,14.968 L193.414195,14.968 Z M201.747195,16.788 L201.747195,22.3 L200.811195,22.3 L200.811195,21.689 L195.546195,21.689 L195.546195,22.3 L194.610195,22.3 L194.610195,16.788 L201.747195,16.788 Z M195.546195,20.779 L200.811195,20.779 L200.811195,17.685 L195.546195,17.685 L195.546195,20.779 Z M212.004195,13.265 L211.835195,13.941 C212.160195,15.462 212.576195,16.775 213.096195,17.867 C213.603195,16.554 213.876195,15.02 213.928195,13.265 L212.004195,13.265 Z M212.667195,18.803 C212.160195,17.802 211.731195,16.658 211.380195,15.358 C211.146195,15.956 210.886195,16.489 210.613195,16.957 L210.028195,16.242 C210.795195,14.786 211.315195,12.823 211.575195,10.353 L212.485195,10.509 C212.407195,11.172 212.303195,11.796 212.199195,12.368 L215.631195,12.368 L215.631195,13.265 L214.786195,13.265 C214.721195,15.436 214.318195,17.295 213.590195,18.829 C214.266195,19.999 215.059195,20.896 215.995195,21.533 L215.488195,22.3 C214.578195,21.65 213.798195,20.766 213.148195,19.674 C212.524195,20.714 211.718195,21.585 210.743195,22.287 L210.262195,21.507 C211.276195,20.805 212.069195,19.908 212.667195,18.803 Z M206.505195,16.424 L207.376195,16.528 C207.285195,16.775 207.194195,17.009 207.116195,17.243 L209.833195,17.243 L209.833195,18.01 C209.547195,18.868 209.066195,19.609 208.390195,20.233 C209.014195,20.519 209.612195,20.805 210.184195,21.117 L209.677195,21.845 C209.105195,21.507 208.442195,21.156 207.675195,20.818 C206.817195,21.416 205.738195,21.897 204.438195,22.261 L203.996195,21.481 C205.062195,21.195 205.985195,20.844 206.739195,20.415 C206.167195,20.168 205.569195,19.921 204.932195,19.687 C205.270195,19.115 205.569195,18.582 205.829195,18.062 L204.295195,18.062 L204.295195,17.243 L206.193195,17.243 C206.310195,16.957 206.414195,16.684 206.505195,16.424 Z M207.532195,19.869 C208.182195,19.349 208.676195,18.738 208.988195,18.062 L206.752195,18.062 C206.544195,18.504 206.310195,18.92 206.050195,19.31 C206.570195,19.492 207.064195,19.674 207.532195,19.869 Z M205.322195,10.626 C205.634195,11.133 205.894195,11.679 206.128195,12.251 L205.452195,12.563 C205.179195,11.926 204.893195,11.367 204.581195,10.873 L205.322195,10.626 Z M209.274195,10.587 L209.950195,10.899 C209.690195,11.471 209.365195,12.03 208.949195,12.576 L208.286195,12.238 C208.702195,11.679 209.040195,11.133 209.274195,10.587 Z M204.321195,12.875 L206.856195,12.875 L206.856195,10.392 L207.727195,10.392 L207.727195,12.875 L210.093195,12.875 L210.093195,13.694 L207.727195,13.694 L207.727195,13.837 C208.429195,14.188 209.157195,14.591 209.885195,15.033 L209.404195,15.761 C208.754195,15.241 208.195195,14.825 207.727195,14.513 L207.727195,16.203 L206.856195,16.203 L206.856195,13.733 C206.427195,14.76 205.647195,15.644 204.529195,16.398 L204.074195,15.644 C205.075195,15.059 205.777195,14.409 206.167195,13.694 L204.321195,13.694 L204.321195,12.875 Z M228.462195,11.718 L228.462195,14.617 L227.526195,14.617 L227.526195,12.615 L218.374195,12.615 L218.374195,14.617 L217.438195,14.617 L217.438195,11.718 L222.547195,11.718 C222.365195,11.25 222.170195,10.834 221.962195,10.457 L223.028195,10.275 C223.210195,10.704 223.392195,11.185 223.561195,11.718 L228.462195,11.718 Z M219.440195,14.019 L226.421195,14.019 L226.421195,14.89 C225.576195,15.488 224.627195,16.06 223.587195,16.632 L223.587195,17.503 L228.709195,17.503 L228.709195,18.413 L223.587195,18.413 L223.587195,21.169 C223.587195,21.884 223.210195,22.248 222.456195,22.248 L220.857195,22.248 L220.636195,21.39 C221.091195,21.403 221.585195,21.416 222.131195,21.416 C222.469195,21.416 222.638195,21.221 222.638195,20.844 L222.638195,18.413 L217.204195,18.413 L217.204195,17.503 L222.638195,17.503 L222.638195,16.229 C223.691195,15.683 224.484195,15.228 225.017195,14.89 L219.440195,14.89 L219.440195,14.019 Z M234.702195,12.628 L234.702195,21.494 L233.792195,21.494 L233.792195,20.753 L231.426195,20.753 L231.426195,21.871 L230.516195,21.871 L230.516195,12.628 L231.725195,12.628 C231.985195,11.9 232.167195,11.146 232.284195,10.366 L233.220195,10.496 C233.064195,11.263 232.869195,11.978 232.609195,12.628 L234.702195,12.628 Z M231.426195,19.882 L233.792195,19.882 L233.792195,17.035 L231.426195,17.035 L231.426195,19.882 Z M231.426195,16.19 L233.792195,16.19 L233.792195,13.512 L231.426195,13.512 L231.426195,16.19 Z M236.964195,15.644 C237.900195,16.723 238.602195,17.672 239.096195,18.478 L238.355195,18.998 C237.822195,18.14 237.107195,17.178 236.210195,16.112 L236.964195,15.644 Z M241.423195,12.641 C241.423195,16.957 241.358195,19.635 241.228195,20.649 C241.098195,21.637 240.500195,22.144 239.408195,22.144 C239.148195,22.144 238.706195,22.118 238.082195,22.092 L237.861195,21.234 C238.407195,21.26 238.875195,21.273 239.278195,21.273 C239.889195,21.273 240.240195,20.935 240.344195,20.272 C240.422195,19.544 240.474195,17.295 240.500195,13.551 L236.925195,13.551 C236.561195,14.37 236.132195,15.111 235.625195,15.774 L235.066195,15.033 C235.976195,13.759 236.587195,12.199 236.925195,10.353 L237.848195,10.47 C237.692195,11.237 237.510195,11.965 237.276195,12.641 L241.423195,12.641 Z M248.404195,10.912 L254.852195,10.912 L254.852195,11.796 L252.213195,11.796 C252.148195,12.303 252.057195,12.784 251.953195,13.252 L254.410195,13.252 L254.410195,19.375 L253.526195,19.375 L253.526195,14.084 L249.769195,14.084 L249.769195,19.375 L248.885195,19.375 L248.885195,13.252 L251.056195,13.252 C251.160195,12.784 251.238195,12.29 251.290195,11.796 L248.404195,11.796 L248.404195,10.912 Z M252.564195,19.375 C253.526195,20.129 254.332195,20.883 254.982195,21.637 L254.332195,22.287 C253.760195,21.559 252.967195,20.779 251.966195,19.96 L252.564195,19.375 Z M251.160195,14.825 L252.070195,14.825 L252.070195,17.165 C252.031195,18.556 251.719195,19.661 251.134195,20.48 C250.562195,21.247 249.639195,21.845 248.352195,22.287 L247.845195,21.494 C249.080195,21.091 249.951195,20.558 250.445195,19.882 C250.887195,19.18 251.134195,18.283 251.160195,17.165 L251.160195,14.825 Z M244.413195,12.55 C244.764195,12.888 245.089195,13.213 245.375195,13.525 C245.843195,13.018 246.272195,12.433 246.662195,11.783 L243.386195,11.783 L243.386195,10.912 L247.663195,10.912 L247.663195,11.653 C247.130195,12.615 246.545195,13.434 245.921195,14.123 C246.168195,14.409 246.376195,14.669 246.558195,14.903 L248.040195,14.903 L248.040195,15.475 C247.832195,16.489 247.572195,17.282 247.286195,17.854 L246.519195,17.555 C246.753195,17.061 246.974195,16.476 247.156195,15.774 L245.778195,15.774 L245.778195,21.208 C245.778195,21.884 245.440195,22.235 244.790195,22.235 L243.542195,22.235 L243.360195,21.39 C243.750195,21.429 244.127195,21.455 244.491195,21.455 C244.751195,21.455 244.894195,21.299 244.894195,20.987 L244.894195,15.774 L243.022195,15.774 L243.022195,14.903 L245.544195,14.903 C245.037195,14.305 244.426195,13.655 243.724195,12.979 L244.413195,12.55 Z M256.854195,10.652 C257.582195,11.224 258.193195,11.809 258.687195,12.381 L258.076195,13.005 C257.634195,12.459 257.010195,11.874 256.217195,11.263 L256.854195,10.652 Z M256.646195,13.85 C257.348195,14.474 257.946195,15.085 258.427195,15.709 L257.816195,16.32 C257.374195,15.735 256.776195,15.111 256.009195,14.448 L256.646195,13.85 Z M257.790195,17.347 L258.583195,17.659 C258.089195,19.245 257.530195,20.74 256.932195,22.144 L256.074195,21.78 C256.724195,20.337 257.296195,18.855 257.790195,17.347 Z M263.562195,11.016 L263.562195,18.946 L262.730195,18.946 L262.730195,11.822 L260.039195,11.822 L260.039195,19.024 L259.207195,19.024 L259.207195,11.016 L263.562195,11.016 Z M262.171195,19.557 C262.964195,20.259 263.627195,20.974 264.160195,21.676 L263.536195,22.3 C263.068195,21.611 262.431195,20.883 261.599195,20.103 L262.171195,19.557 Z M261.001195,12.719 L261.781195,12.719 L261.781195,16.84 C261.755195,18.322 261.521195,19.505 261.079195,20.389 C260.650195,21.195 259.948195,21.845 258.986195,22.313 L258.492195,21.533 C259.428195,21.091 260.078195,20.506 260.442195,19.778 C260.780195,19.024 260.975195,18.049 261.001195,16.84 L261.001195,12.719 Z M266.370195,22.196 L264.940195,22.196 L264.745195,21.325 C265.200195,21.364 265.642195,21.39 266.058195,21.39 C266.357195,21.39 266.513195,21.208 266.513195,20.87 L266.513195,10.457 L267.397195,10.457 L267.397195,21.091 C267.397195,21.819 267.046195,22.196 266.370195,22.196 Z M264.589195,11.523 L265.408195,11.523 L265.408195,19.635 L264.589195,19.635 L264.589195,11.523 Z" id="path-1"></path>
        <path d="M270.925781,15.8076172 L271.808105,15.8076172 C272.36247,15.7991536 272.798338,15.653159 273.115722,15.3696289 C273.433107,15.0860988 273.591797,14.7031274 273.591797,14.2207031 C273.591797,13.1373644 273.052251,12.5957031 271.973144,12.5957031 C271.465329,12.5957031 271.060141,12.7406398 270.757568,13.0305176 C270.454995,13.3203953 270.303711,13.7044247 270.303711,14.1826172 L269.129394,14.1826172 C269.129394,13.4505172 269.397051,12.8422062 269.932373,12.357666 C270.467694,11.8731258 271.147945,11.6308594 271.973144,11.6308594 C272.844893,11.6308594 273.528318,11.8614886 274.023437,12.3227539 C274.518557,12.7840192 274.766113,13.4251261 274.766113,14.2460938 C274.766113,14.648114 274.635987,15.037433 274.375732,15.4140625 C274.115477,15.790692 273.76107,16.0721019 273.3125,16.2583008 C273.820315,16.4191089 274.212808,16.6857078 274.48999,17.0581055 C274.767172,17.4305032 274.905761,17.885414 274.905761,18.4228516 C274.905761,19.2522828 274.634931,19.9103166 274.093261,20.3969727 C273.551592,20.8836287 272.847009,21.1269531 271.979492,21.1269531 C271.111975,21.1269531 270.406334,20.8920922 269.862549,20.4223633 C269.318763,19.9526344 269.046875,19.3326861 269.046875,18.5625 L270.227539,18.5625 C270.227539,19.0491561 270.386229,19.4384751 270.703613,19.7304688 C271.020997,20.0224624 271.446286,20.168457 271.979492,20.168457 C272.546552,20.168457 272.980304,20.0203465 273.280761,19.7241211 C273.581219,19.4278957 273.731445,19.0026069 273.731445,18.4482422 C273.731445,17.9108046 273.566408,17.4982111 273.236328,17.2104492 C272.906248,16.9226874 272.430179,16.7745769 271.808105,16.7661133 L270.925781,16.7661133 L270.925781,15.8076172 Z" id="path-2"></path>
        <path d="M23.912,11.97 C23.548,12.642 23.128,13.272 22.666,13.832 L21.518,13.118 C22.47,11.984 23.156,10.766 23.562,9.464 L24.85,9.744 C24.738,10.108 24.612,10.444 24.486,10.766 L27.846,10.766 L27.846,11.97 L26.166,11.97 C26.418,12.362 26.628,12.74 26.796,13.09 L25.564,13.552 C25.34,13.006 25.074,12.474 24.766,11.97 L23.912,11.97 Z M29.736,11.97 C29.428,12.628 29.092,13.23 28.7,13.79 L27.58,13.076 C28.364,11.942 28.91,10.724 29.246,9.436 L30.548,9.716 C30.436,10.08 30.324,10.43 30.212,10.766 L34.132,10.766 L34.132,11.97 L32.186,11.97 C32.438,12.362 32.634,12.726 32.802,13.062 L31.584,13.524 C31.36,12.992 31.094,12.474 30.8,11.97 L29.736,11.97 Z M24.346,13.272 L25.466,13.804 C25.27,14.336 25.018,14.868 24.738,15.372 L24.738,22.344 L23.422,22.344 L23.422,17.234 C22.988,17.738 22.526,18.214 22.022,18.662 L21.602,17.262 C22.834,16.128 23.758,14.798 24.346,13.272 Z M25.648,15.246 L31.262,15.246 L31.262,13.902 L32.578,13.902 L32.578,15.246 L34.244,15.246 L34.244,16.534 L32.578,16.534 L32.578,20.888 C32.578,21.854 32.102,22.344 31.15,22.344 L29.064,22.344 L28.77,21.07 C29.442,21.126 30.072,21.154 30.674,21.154 C31.066,21.154 31.262,20.944 31.262,20.552 L31.262,16.534 L25.648,16.534 L25.648,15.246 Z M27.608,17.108 C28.476,18.074 29.148,18.914 29.61,19.628 L28.574,20.342 C28.084,19.558 27.412,18.704 26.572,17.752 L27.608,17.108 Z M41.51,9.492 L42.49,9.492 C44.254,11.48 46.27,13.048 48.566,14.196 L47.852,15.47 C47.082,15.05 46.354,14.602 45.682,14.126 L45.682,15.12 L38.318,15.12 L38.318,14.098 C37.618,14.602 36.876,15.064 36.092,15.498 L35.392,14.21 C37.842,12.95 39.886,11.368 41.51,9.492 Z M38.668,13.846 L45.304,13.846 C44.072,12.922 42.966,11.872 42,10.696 C41.062,11.844 39.956,12.894 38.668,13.846 Z M46.564,16.618 L46.564,22.428 L45.276,22.428 L45.276,21.672 L38.724,21.672 L38.724,22.428 L37.436,22.428 L37.436,16.618 L46.564,16.618 Z M38.724,20.412 L45.276,20.412 L45.276,17.864 L38.724,17.864 L38.724,20.412 Z" id="path-3"></path>
        <path d="M149.684,160.992 L149.684,167.57 L148.232,167.57 L148.232,162.532 L145.482,162.532 L145.482,167.526 L144.008,167.526 L144.008,160.992 L149.684,160.992 Z M146.89,168.714 C146.846,168.846 146.78,168.956 146.736,169.066 C146.274,169.946 145.504,170.606 144.448,171.09 L143.612,169.77 C144.58,169.33 145.24,168.758 145.614,168.098 C145.944,167.394 146.12,166.448 146.164,165.304 L146.164,163.412 L147.528,163.412 L147.528,165.304 C147.484,166.03 147.418,166.69 147.308,167.306 C148.1,167.966 148.782,168.648 149.332,169.33 L148.254,170.408 C147.902,169.858 147.44,169.286 146.89,168.714 Z M137.21,152.192 L146.054,152.192 C145.856,151.796 145.658,151.422 145.438,151.092 L147.528,150.74 C147.704,151.18 147.858,151.664 148.034,152.192 L156.79,152.192 L156.79,153.644 L140.928,153.644 L140.928,154.48 L155.382,154.48 L155.382,155.91 L139.014,155.91 L139.014,153.644 L137.21,153.644 L137.21,152.192 Z M139.63,156.68 L154.304,156.68 L154.304,160.156 L139.63,160.156 L139.63,156.68 Z M152.28,158.836 L152.28,157.978 L141.654,157.978 L141.654,158.836 L152.28,158.836 Z M139.696,165.15 C139.674,165.59 139.652,166.03 139.608,166.426 L141.654,166.426 L141.654,165.15 L139.696,165.15 Z M141.654,163.852 L141.654,162.576 L139.718,162.576 L139.718,163.852 L141.654,163.852 Z M139.432,167.724 C139.146,169.132 138.684,170.32 138.046,171.332 L136.77,170.166 C137.628,168.758 138.068,166.998 138.09,164.842 L138.09,161.036 L143.26,161.036 L143.26,169.638 C143.26,170.672 142.666,171.2 141.5,171.2 L140.664,171.2 L140.224,169.682 C140.488,169.726 140.752,169.748 140.994,169.748 C141.434,169.748 141.654,169.506 141.654,169.066 L141.654,167.724 L139.432,167.724 Z M155.932,170.98 L155.074,170.98 C154.194,170.98 153.776,170.518 153.776,169.638 L153.776,167.174 L152.808,167.614 C152.566,166.69 152.302,165.854 152.016,165.128 C151.994,166.602 151.884,167.746 151.708,168.538 C151.466,169.418 150.96,170.364 150.19,171.354 L148.914,170.232 C149.574,169.484 149.992,168.78 150.19,168.12 C150.388,167.416 150.498,166.294 150.498,164.732 L150.498,161.014 L155.316,161.014 L155.316,169.154 C155.316,169.374 155.404,169.506 155.624,169.506 L155.69,169.506 C155.778,169.506 155.844,169.396 155.91,169.198 C155.954,169.022 155.998,168.34 156.042,167.174 L157.34,167.636 C157.208,169.132 157.076,170.078 156.9,170.452 C156.724,170.804 156.394,170.98 155.932,170.98 Z M152.016,164.71 L152.896,164.424 C153.226,165.194 153.512,166.008 153.776,166.866 L153.776,162.62 L152.016,162.62 L152.016,164.71 Z" id="path-4"></path>
    </defs>
    <g id="Simplified-Chinese-Matches" stroke="none" stroke-width="1" fill="none" fill-rule="evenodd">
        <g transform="translate(1.000000, 2.000000)">
            <polygon id="Path" stroke="#C2C2C2" stroke-width="2.43037975" fill="#F1F1F2" points="0.898734177 0.197307692 296.493671 0.197307692 296.493671 192.802692 0.898734177 192.802692"></polygon>
            <path d="M3.59493671,53.3873077 L294.974684,53.3873077 M3.59493671,73.4661538 L294.974684,73.4661538 M3.59493671,133.740577 L294.974684,133.740577" id="Shape" stroke="#DEDEDD" stroke-width="1.21518987"></path>
            <path d="M3.59493671,153.819423 L294.974684,153.819423" id="Path" stroke="#293052" stroke-width="1.21518987" stroke-linejoin="round" stroke-dasharray="3.60759489143951"></path>
            <path d="M3.59493671,173.898269 L294.974684,173.898269 M38.7974684,33.3084615 L38.7974684,191.590385 M75.6708861,33.3084615 L75.6708861,191.590385 M112.544304,33.3084615 L112.544304,191.590385 M149.379747,33.3084615 L149.379747,191.590385 M186.253165,33.3084615 L186.253165,191.590385 M223.126582,33.3084615 L223.126582,191.590385 M260,33.3084615 L260,191.590385 M3.59493671,113.661731 L294.974684,113.661731 M3.59493671,93.5828846 L294.974684,93.5828846" id="Shape" stroke="#DEDEDD" stroke-width="1.21518987"></path>
            <path d="M1.50632911,32.0961538 L297.101266,32.0961538" id="Path" stroke="#C2C2C2" stroke-width="2.43037975" fill="#F1F1F2"></path>
            <polyline id="Path" stroke="#293052" stroke-width="3.60759494" stroke-linecap="round" stroke-linejoin="round" points="223.43038 153.819423 191.265823 85.2103846 148.696203 116.578846 105.481013 86.6878846 75.6708861 113.661731 38.7974684 82.9751923"></polyline>
            <path d="M186.936709,144.069423 L151.772152,144.069423 L146.227848,136 L140.911392,144.069423 L105.746835,144.069423 C103.12523,144.069423 101,146.189613 101,148.805 L101,173.316346 C101,175.931733 103.12523,178.051923 105.746835,178.051923 L186.936709,178.051923 C188.215269,178.082545 189.45212,177.59717 190.367119,176.705737 C191.282117,175.814303 191.797836,174.592241 191.797468,173.316346 L191.797468,148.842885 C191.808124,147.560431 191.296931,146.328506 190.380783,145.428812 C189.464635,144.529117 188.221884,144.038599 186.936709,144.069423 Z" id="Path" fill="#E88024"></path>
            <g id="Group" opacity="0.6" transform="translate(214.658228, 144.961538)" fill="#FFFFFF">
                <ellipse id="Oval" cx="8.4683544" cy="8.8578846" rx="8.16455696" ry="8.3725"></ellipse>
            </g>
            <ellipse id="Oval" stroke="#E88024" stroke-width="2.43037975" cx="223.126582" cy="153.819423" rx="8.16455696" ry="8.3725"></ellipse>
            <polygon id="Path" fill="#E88024" points="246.101266 144.424038 274.772152 144.424038 274.772152 163.214808 246.101266 163.214808"></polygon>
            <polygon id="Path" fill="#E88024" points="249.594937 153.819423 246.253165 157.153269 241.050633 153.819423 246.253165 150.485577"></polygon>
            <path d="M257.455696,152.682885 L258.822785,152.682885 C259.286321,152.716156 259.742107,152.550808 260.075949,152.228269 C260.370334,151.880171 260.519823,151.432768 260.493671,150.978077 C260.515955,150.546843 260.365708,150.124425 260.075949,149.803654 C259.723559,149.554821 259.285105,149.459137 258.860759,149.538462 C258.447075,149.519538 258.041086,149.654547 257.721519,149.917308 C257.421295,150.171164 257.253519,150.547764 257.265823,150.940192 L254.911392,150.940192 C254.862229,150.042095 255.260014,149.177548 255.974684,148.629231 C256.773998,148.003895 257.769755,147.681712 258.78481,147.72 C259.842983,147.66396 260.888435,147.971503 261.746835,148.591346 C262.496986,149.215072 262.905698,150.157097 262.848101,151.129615 C262.842804,151.661556 262.670116,152.178392 262.35443,152.607115 C262.005019,153.088331 261.533037,153.467637 260.987342,153.705769 C261.597182,153.902929 262.128875,154.287492 262.506329,154.804423 C262.860139,155.302137 263.046308,155.899117 263.037975,156.509231 C263.074415,157.513484 262.621667,158.473292 261.822785,159.085385 C260.936461,159.743226 259.850622,160.077567 258.746835,160.0325 C257.71508,160.065498 256.701042,159.759346 255.860759,159.161154 C255.069748,158.583063 254.637985,157.635438 254.721519,156.660769 L257.227848,156.660769 C257.217598,157.093465 257.398042,157.508884 257.721519,157.797308 C258.066694,158.101306 258.5144,158.263723 258.974684,158.251923 C259.460817,158.283668 259.939458,158.119951 260.303797,157.797308 C260.636885,157.468131 260.816018,157.014487 260.797468,156.547115 C260.850645,156.036654 260.685135,155.527543 260.341772,155.145385 C259.950005,154.818217 259.446379,154.655266 258.936709,154.690769 L257.455696,154.690769 L257.455696,152.682885 Z" id="Path" fill="#FFFFFF"></path>
            <g id="最后数字的预测">
                <use fill="#000000" xlink:href="#path-1"></use>
                <use fill="#2A3052" xlink:href="#path-1"></use>
            </g>
            <g id="3">
                <use fill="#000000" xlink:href="#path-2"></use>
                <use fill="#2A3052" xlink:href="#path-2"></use>
            </g>
            <g id="符合" fill="#000000">
                <use xlink:href="#path-3"></use>
                <use xlink:href="#path-3"></use>
            </g>
            <g id="赢">
                <use fill="#000000" xlink:href="#path-4"></use>
                <use fill="#FFFFFF" xlink:href="#path-4"></use>
            </g>
        </g>
    </g>
</svg>