<svg width="300" height="199" viewBox="0 0 300 199" xmlns="http://www.w3.org/2000/svg"><title>simplified_chinese_odd</title><g fill="none" fill-rule="evenodd"><path fill="#F1F2F2" fill-rule="nonzero" d="M0 0h300v199H0z"/><path d="M39.125 55.375V74.75H75.25V55.375H39.125zm0-1H75.25V34h1v20.375h36.125V34h1v20.375H149.5V34h1v20.375h36.125V34h1v20.375h36.125V34h1v20.375h36.125V34h1v20.375H299.5v1h-37.625V74.75H299.5v1h-37.625v19.375H299.5v1h-37.625V115.5H299.5v1h-37.625v19.375H299.5v1h-37.625v19.375H299.5v1h-37.625v19.375H299.5v1h-37.625V199h-1v-21.375H224.75V199h-1v-21.375h-36.125V199h-1v-21.375H150.5V199h-1v-21.375h-36.125V199h-1v-21.375H76.25V199h-1v-21.375H39.125V199h-1v-21.375H1.5v-1h36.625V157.25H1.5v-1h36.625v-19.375H1.5v-1h36.625V116.5H1.5v-1h36.625V96.125H1.5v-1h36.625V75.75H1.5v-1h36.625V55.375H1.5v-1h36.625V34h1v20.375zm221.75 1H224.75V74.75h36.125V55.375zm-37.125 0h-36.125V74.75h36.125V55.375zm-37.125 0H150.5V74.75h36.125V55.375zm-37.125 0h-36.125V74.75H149.5V55.375zm-37.125 0H76.25V74.75h36.125V55.375zM39.125 75.75v19.375H75.25V75.75H39.125zm221.75 0H224.75v19.375h36.125V75.75zm-37.125 0h-36.125v19.375h36.125V75.75zm-37.125 0H150.5v19.375h36.125V75.75zm-37.125 0h-36.125v19.375H149.5V75.75zm-37.125 0H76.25v19.375h36.125V75.75zm-73.25 20.375V115.5H75.25V96.125H39.125zm221.75 0H224.75V115.5h36.125V96.125zm-37.125 0h-36.125V115.5h36.125V96.125zm-37.125 0H150.5V115.5h36.125V96.125zm-37.125 0h-36.125V115.5H149.5V96.125zm-37.125 0H76.25V115.5h36.125V96.125zM39.125 116.5v19.375H75.25V116.5H39.125zm221.75 0H224.75v19.375h36.125V116.5zm-37.125 0h-36.125v19.375h36.125V116.5zm-37.125 0H150.5v19.375h36.125V116.5zm-37.125 0h-36.125v19.375H149.5V116.5zm-37.125 0H76.25v19.375h36.125V116.5zm-73.25 20.375v19.375H75.25v-19.375H39.125zm221.75 0H224.75v19.375h36.125v-19.375zm-37.125 0h-36.125v19.375h36.125v-19.375zm-37.125 0H150.5v19.375h36.125v-19.375zm-37.125 0h-36.125v19.375H149.5v-19.375zm-37.125 0H76.25v19.375h36.125v-19.375zm-73.25 20.375v19.375H75.25V157.25H39.125zm221.75 0H224.75v19.375h36.125V157.25zm-37.125 0h-36.125v19.375h36.125V157.25zm-37.125 0H150.5v19.375h36.125V157.25zm-37.125 0h-36.125v19.375H149.5V157.25zm-37.125 0H76.25v19.375h36.125V157.25z" fill="#DFDEDE" fill-rule="nonzero"/><path stroke="#C2C2C2" stroke-width="2" d="M1 1h298v197H1z"/><path fill="#C2C2C2" fill-rule="nonzero" d="M0 33h300v2H0z"/><g transform="translate(2 43.9)"><path d="M.62 31.544h1.834" stroke="#293052" stroke-width="1.215" stroke-linejoin="round"/><path d="M6.124 31.544h284.199" stroke="#293052" stroke-width="1.215" stroke-linejoin="round" stroke-dasharray="3.646"/><path d="M292.158 31.544h1.796" stroke="#293052" stroke-width="1.215" stroke-linejoin="round"/><path stroke="#293052" stroke-width="3.608" stroke-linecap="round" stroke-linejoin="round" d="M36.058 72.873l37.12-36.46L110.3 87.676l37.006-22.71 37.197 28.553 74.242-62.56"/><path d="M186.07 104.23h-35.4l-5.581-8.296-5.353 8.297h-35.4c-2.64 0-4.779 2.18-4.779 4.869v25.203c0 2.689 2.14 4.869 4.779 4.869h81.735a4.731 4.731 0 0 0 3.453-1.384 4.915 4.915 0 0 0 1.44-3.485v-25.164a4.916 4.916 0 0 0-1.426-3.51 4.731 4.731 0 0 0-3.467-1.398z" fill="#E88024" fill-rule="nonzero"/><ellipse cx="8.437" cy="9.374" rx="8.219" ry="8.609" opacity=".6" transform="translate(250.308 22.17)" fill="#FFF" fill-rule="nonzero"/><ellipse stroke="#E88024" stroke-width="2.43" cx="258.745" cy="31.544" rx="8.219" ry="8.609"/><ellipse cx="8.481" cy="8.855" rx="8.219" ry="8.609" opacity=".6" transform="translate(27.577 64.018)" fill="#FFF" fill-rule="nonzero"/><ellipse stroke="#E88024" stroke-width="2.43" cx="36.058" cy="72.873" rx="8.219" ry="8.609"/><path fill="#E88024" fill-rule="nonzero" d="M246.053.81h25.346v16.983h-25.346z"/><path fill="#E88024" fill-rule="nonzero" d="M256.31 17.796l2.407-2.406 2.451 2.452-2.406 2.406z"/><path d="M255.954 9.963l.612-5.804h5.2v1.286h-3.824l-.612 3.038c.223-.174.468-.318.727-.428.303-.053.614-.053.917 0a2.765 2.765 0 0 1 2.256.935c.568.742.853 1.67.803 2.61a3.944 3.944 0 0 1-.841 2.57 3.028 3.028 0 0 1-2.447.974 3.286 3.286 0 0 1-2.18-.74 2.556 2.556 0 0 1-.84-2.142h1.261c-.024.493.156.974.497 1.324.344.32.797.488 1.262.468a1.63 1.63 0 0 0 1.376-.624c.356-.51.53-1.128.497-1.753a2.645 2.645 0 0 0-.497-1.675 1.632 1.632 0 0 0-1.376-.662 2.184 2.184 0 0 0-1.185.273c-.26.19-.449.465-.535.779l-1.07-.429z" fill="#FFF" fill-rule="nonzero"/><path fill="#D5D3DA" fill-rule="nonzero" d="M134.728 33.608h25.347v16.984h-25.347z"/><path fill="#D5D3DA" fill-rule="nonzero" d="M144.959 50.574l2.406-2.406 2.451 2.452-2.406 2.406z"/><path d="M150.861 47.437h-6.728v-.896l3.402-3.896a9.646 9.646 0 0 0 1.376-1.597 2.618 2.618 0 0 0 0-1.402 2.01 2.01 0 0 0-.458-1.324 1.48 1.48 0 0 0-1.185-.546 2.04 2.04 0 0 0-1.568.546 2.248 2.248 0 0 0-.497 1.558h-1.223a3.03 3.03 0 0 1 .88-2.299 3.478 3.478 0 0 1 2.56-.934 2.987 2.987 0 0 1 2.218.818c.555.551.86 1.313.84 2.103a3.436 3.436 0 0 1-.496 1.714 11.04 11.04 0 0 1-1.415 1.87l-2.714 3h5.008v1.285z" fill="#293052" fill-rule="nonzero"/><path fill="#D5D3DA" fill-rule="nonzero" d="M23.366 41.788h25.346v16.984H23.366z"/><path fill="#D5D3DA" fill-rule="nonzero" d="M33.623 58.766l2.406-2.406 2.451 2.451-2.406 2.406z"/><path fill="#293052" fill-rule="nonzero" d="M36.822 55.695h-1.414V46.54h-2.14v-1.013l3.516-.39v10.557z"/></g><g fill="#FFF" fill-rule="nonzero"><path d="M160.217 170.124h1.306l.386-14.926h-2.088zM159.828 173.615c.082.8.673 1.003 1.156 1.003.482 0 1.013-.362 1.013-1.003 0-.95-.673-1.176-1.123-1.176-.45 0-1.129.376-1.046 1.176z"/><g><path d="M143.58 173.366c.354.302.654.572.902.812-.72 1.058-1.825 1.986-2.422 2.399a199.75 199.75 0 0 1-.77-.996c.711-.521 1.475-1.26 2.29-2.215zM147.774 164.957v8.066h-5.778v-8.066h5.778zm-1.404 5.613h-2.857v1.314h2.857v-1.314zm0-2.27h-2.857v1.313h2.857V168.3zm0-2.24h-2.857v1.314h2.857v-1.313zM156.557 156.304v-1.34h-10.174c-.618-1.355-.853-1.886-.705-1.592l-1.81.297.708 1.296h-10.314v1.34h2.059v2.564h18.64v-1.182h-17.023v-1.383h18.62zM137.084 160.026h16.502v3.582h-16.502v-3.582zm1.671 1.028v1.517h13.189v-1.517h-13.189zM135.636 164.726c1.775-.017 3.557-.017 5.347 0v9.793c0 .518.447 2.227-2.864 1.869l-.352-1.359c1.25.162 1.876-.008 1.876-.51v-2.185h-2.78c-.372 2.073-.889 3.425-1.548 4.054-.203-.17-.554-.485-1.053-.944 1.845-2.494 1.356-9.918 1.374-10.718zm1.355 4.512v1.89h2.59v-1.89h-2.59zm2.624-3.213h-2.58v2.037h2.58v-2.037z"/><path d="M153.097 171.405l-.788.508c-.77-1.256-1.34-2.103-1.712-2.541-.018 1.492-.073 2.57-.165 3.235-.299 2.16-1.099 3.073-1.633 3.83l-1.133-1.006-.378.486c-.994-1.051-1.645-1.702-1.953-1.953.327-.308.613-.581.857-.818.82.64 1.474 1.315 1.86 1.766.247-.447.747-1.123.964-2.402.29-1.71.093-6.046.22-7.855 2.243-.008 3.983-.008 5.22 0v9.686c-.06.663 1.258.547 1.258 0l.267-2.762c.224.094.601.23 1.132.41-.25 1.686-.174 3.733-1.132 3.928-.68.032-2.884.498-2.884-.901v-3.61zm0-.435v-4.92h-2.51c.015 1.015.02 1.925.016 2.73l.782-.46c.858 1.197 1.428 2.065 1.711 2.602l.001.048z"/></g></g><g fill="#2A3052" fill-rule="nonzero"><path d="M38.967 131.622l1.068.12-.44 2.75c.141.01.873.01 2.196 0 .037 2.018-.38 5.03-1.229 6.762.913.98 1.487 1.647 1.723 1.998l-.713.794-1.462-1.746c-.853 1.398-1.595 2.373-2.226 2.924a15.6 15.6 0 0 0-.65-.826c.826-.882 1.642-1.784 2.127-2.844l-1.885-1.877.948-4.184h-1.19v-1.001h1.333l.4-2.87zm1.855 3.877h-1.348a59.806 59.806 0 0 1-.869 3.832c.501.488.904.883 1.207 1.186.516-1.101 1.01-4.234 1.01-5.018zM45.509 131.641l.984.337c-1.13 2.345-2.008 3.867-2.633 4.566 2.85-.248 4.418-.421 4.706-.519-.697-1.324-1.103-2.066-1.216-2.224l.92-.446c.99 1.706 1.746 3.117 2.266 4.234l-.999.503-.52-1.147c-3.602.415-5.782.63-6.54.644a26.745 26.745 0 0 0-.166-.979c.853-.469 1.92-2.125 3.198-4.969zM48.703 145.224v-.907H44.18v.907h-1.04v-6.288h6.568v6.288h-1.004zm-.007-5.32h-4.492v3.387h4.492v-3.386zM24.327 133.414v-.758h11.339v.758h-2.158v4.016h3.09v1.167h-3.09v6.328h-1.203v-6.328l-4.29-.01c-.322 5.403-3.21 6.338-3.57 6.575a8.923 8.923 0 0 1-.625-.913c1.408-1.079 3.01-2.284 3.01-5.662-1.204.007-2.547.032-3.335.01v-1.167h3.334v-4.016h-2.502zm7.947.211h-4.141v3.78h4.141v-3.78z"/></g><path d="M25.663 14.231a15.62 15.62 0 0 1-.884 2.304l.97-.55c.29.985.638 1.912 1.073 2.753.464-1.304.739-2.797.797-4.507h-1.956zm.406 6.1a17.451 17.451 0 0 1-1.435-3.506c-.203.348-.391.681-.594.97l-.68-.84-.421.464a13.015 13.015 0 0 0-1.739-1.898l.797-.884c.522.435 1 .913 1.45 1.42.695-1.405 1.187-3.188 1.448-5.346l1.449.26a30.721 30.721 0 0 1-.319 1.797h3.782v1.463h-.826c-.087 2.333-.522 4.333-1.304 6.013a13.423 13.423 0 0 0 2.405 2.797l-.97 1.13a14.216 14.216 0 0 1-2.232-2.536 9.646 9.646 0 0 1-2.536 2.55l-.782-1.275a7.898 7.898 0 0 0 2.507-2.579zm-6.81-2.897l1.405.159c-.087.217-.16.435-.246.652h2.927v1.217a5.004 5.004 0 0 1-1.304 2.231 19.03 19.03 0 0 1 1.637.797l-.812 1.188a20.697 20.697 0 0 0-1.999-1.043c-.97.609-2.173 1.087-3.593 1.464l-.681-1.246c1.043-.247 1.956-.551 2.724-.899a48.524 48.524 0 0 0-1.84-.739 21.9 21.9 0 0 0 .912-1.68H16.94v-1.29h2.029c.101-.29.203-.55.29-.811zm1.405 3.694c.609-.478 1.058-1.014 1.348-1.594h-2.16c-.188.363-.39.725-.608 1.073.493.16.956.333 1.42.521zm-3.84-7.91h2.826v-2.406h1.39v2.405h2.74v1.275h-2.74v2.855h-1.39v-2.855h-2.826v-1.275zm5.564-2.392l1.13.566a8.113 8.113 0 0 1-1.086 1.695l-1-.71c.377-.435.696-.942.956-1.55zm-4.303 0c.493.594.898 1.116 1.188 1.55l-1.029.71c-.29-.492-.695-1.028-1.188-1.608l1.029-.652zm.478 3.855l.884.782a8.773 8.773 0 0 1-2.028 2.115l-.812-1.043a7.718 7.718 0 0 0 1.956-1.854zm25.487-2.594v3.463h-1.522V13.52h-9.476v2.029h-1.52v-3.463h5.462a12.244 12.244 0 0 0-.638-1.232l1.753-.29c.203.45.406.957.58 1.522h5.36zM33.82 14.71h7.926v1.39a31.86 31.86 0 0 1-3.014 1.87v.623h5.535v1.449h-5.535v2.579c0 .97-.507 1.463-1.507 1.463h-1.782l-.362-1.376a28.19 28.19 0 0 0 1.637.043c.319 0 .493-.217.493-.637v-2.072h-5.883v-1.45h5.883v-1.23A36.35 36.35 0 0 0 39.5 16.1h-5.68V14.71zm14.084-3.666c.84.84 1.478 1.594 1.942 2.246l-1.189.811c-.478-.666-1.115-1.42-1.898-2.231l1.145-.826zm5.245 6.085c.985 1.087 1.739 2.029 2.275 2.84l-1.333.927c-.536-.898-1.26-1.898-2.159-2.999l1.217-.768zm-2.39-6.418h1.492v2.187c-.015.435-.03.855-.058 1.261h5.897c0 4.26-.188 6.984-.565 8.143-.391 1.16-1.087 1.753-2.072 1.753-.754 0-1.391-.029-1.913-.087l-.405-1.463c.811.087 1.564.145 2.245.145.594-.058.942-.812 1.03-2.26a79.99 79.99 0 0 0 .13-4.753h-4.492c-.246 1.811-.667 3.332-1.275 4.55-.855 1.68-2.26 2.984-4.217 3.897l-.854-1.347c1.941-.986 3.245-2.217 3.926-3.695.406-.97.71-2.101.899-3.405h-4.333v-1.478h4.492c.029-.42.058-.84.072-1.26V10.71zm10.229.985h5.143c0-.261.015-.565.015-.913h1.521c0 .377-.014.681-.014.913h4.912v1.42h-5.318c-.058.101-.116.188-.16.275 1.884.406 3.623.87 5.217 1.42l-.826 1.275a34.378 34.378 0 0 0-5.274-1.695c-.97.782-2.362 1.362-4.187 1.724l-.812-1.347c2.246-.29 3.724-.84 4.434-1.652h-4.651v-1.42zm-.696 4.506h12.954v1.449h-1.71v4.926c0 1.014-.594 1.522-1.753 1.522h-1.377l-.304-1.42a8.38 8.38 0 0 0 1.174.101c.492 0 .739-.188.739-.565v-4.564h-9.723v-1.449zm1.768 2.376h5.854v3.941H62.06v-3.94zm4.434 2.652v-1.377h-3.029v1.377h3.029zM83.62 14.23a15.62 15.62 0 0 1-.884 2.304l.971-.55c.29.985.638 1.912 1.072 2.753.464-1.304.74-2.797.797-4.507H83.62zm.406 6.1a17.451 17.451 0 0 1-1.435-3.506c-.203.348-.39.681-.594.97l-.68-.84-.42.464a13.015 13.015 0 0 0-1.74-1.898l.797-.884c.522.435 1 .913 1.45 1.42.695-1.405 1.187-3.188 1.448-5.346l1.449.26a30.722 30.722 0 0 1-.319 1.797h3.782v1.463h-.826c-.087 2.333-.522 4.333-1.304 6.013a13.423 13.423 0 0 0 2.405 2.797l-.97 1.13a14.215 14.215 0 0 1-2.232-2.536 9.646 9.646 0 0 1-2.535 2.55l-.783-1.275a7.898 7.898 0 0 0 2.507-2.579zm-6.81-2.897l1.405.159c-.087.217-.16.435-.246.652h2.927v1.217a5.004 5.004 0 0 1-1.304 2.231 19.03 19.03 0 0 1 1.637.797l-.811 1.188a20.697 20.697 0 0 0-2-1.043c-.97.609-2.173 1.087-3.593 1.464l-.681-1.246c1.043-.247 1.956-.551 2.724-.899a48.524 48.524 0 0 0-1.84-.739 21.9 21.9 0 0 0 .912-1.68h-1.449v-1.29h2.029c.101-.29.203-.55.29-.811zm1.405 3.694c.609-.478 1.058-1.014 1.348-1.594h-2.16c-.188.363-.39.725-.608 1.073.493.16.957.333 1.42.521zm-3.84-7.91h2.826v-2.406h1.391v2.405h2.738v1.275h-2.738v2.855h-1.391v-2.855h-2.825v-1.275zm5.564-2.392l1.13.566a8.113 8.113 0 0 1-1.086 1.695l-1-.71c.377-.435.696-.942.956-1.55zm-4.303 0c.493.594.898 1.116 1.188 1.55l-1.028.71c-.29-.492-.696-1.028-1.189-1.608l1.03-.652zm.478 3.855l.884.782a8.773 8.773 0 0 1-2.028 2.115l-.812-1.043a7.718 7.718 0 0 0 1.956-1.854z" fill="#020202" fill-rule="nonzero"/><path d="M253.486 103.83v1.02c-1.53.555-3.255 1.005-5.205 1.365l-.135-1.05c2.04-.33 3.81-.78 5.34-1.335zm-2.775-10.8l1.005.39c-.765 1.95-1.545 3.51-2.325 4.68.705-.09 1.41-.195 2.13-.315.285-.54.585-1.095.885-1.665l.945.345c-1.365 2.535-2.505 4.335-3.42 5.415a26.668 26.668 0 0 0 3.375-.9v.96c-1.62.555-3.18.93-4.68 1.125l-.285-.975c.195-.09.36-.195.495-.315.57-.585 1.275-1.575 2.115-2.985-.855.135-1.71.255-2.58.375l-.27-.99c.165-.075.315-.21.45-.405.84-1.38 1.56-2.955 2.16-4.74zm2.595 1.905h3.585V93.12h1.095v1.815h3.57v1.05h-3.57v2.22h3.135v1.05h-7.32v-1.05h3.09v-2.22h-3.585v-1.05zm7.38 5.82v6.03h-1.05v-.72h-4.29v.72h-1.065v-6.03h6.405zm-5.34 4.29h4.29v-3.27h-4.29v3.27zm8.04-10.425h5.865v-1.5h1.11v1.5h5.835v1.035h-5.835v1.47h4.725v4.245h-3.81c1.08 1.53 2.91 2.88 5.46 4.08l-.735.93c-2.655-1.485-4.515-3.15-5.595-5.01h-.045v5.445h-1.11v-5.445h-.045c-1.14 2.04-3.03 3.72-5.685 5.04l-.63-.99c2.49-1.05 4.305-2.4 5.43-4.05h-3.765v-4.245h4.695v-1.47h-5.865V94.62zm10.62 5.76v-2.235h-3.645v2.235h3.645zm-4.755 0v-2.235h-3.615v2.235h3.615z" fill="#2A3052"/></g></svg>