<svg width="299" height="197" xmlns="http://www.w3.org/2000/svg" xmlns:xlink="http://www.w3.org/1999/xlink"><defs><path d="M22.92 9.61c.135.375.27.78.405 1.23h5.835v1.32H15.825v-1.32h5.955a8.105 8.105 0 0 0-.45-.96l1.59-.27zm3.81 13.89h-1.245l-.33-1.275 1.155.06c.555 0 .84-.21.84-.6V17.89h-9.3v5.655H16.5V16.66h12v5.325c0 1.005-.6 1.515-1.77 1.515zm-8.55-10.635h8.655v3.12H18.18v-3.12zm7.29 2.04v-.96h-5.925v.96h5.925zm-6.015 3.705h6.105v3.15h-6.105v-3.15zm4.845 2.1v-1.05h-3.57v1.05h3.57zm17.01-3.87h-1.065v4.98c.51-.195 1.02-.45 1.53-.765l.24 1.29c-.87.48-1.86.87-3 1.17l-.585-1.23c.33-.135.51-.33.51-.57V16.84h-.9v-1.305h.9V9.76h1.305v5.775h4.095v1.305h-1.83c.12 2.31.81 4.26 2.055 5.85l-.96.96c-1.41-1.92-2.175-4.185-2.295-6.81zm-5.85-1.98l-.165 2.13h2.445c0 2.52-.075 4.2-.21 5.025-.15.87-.795 1.335-1.92 1.41-.3 0-.6-.03-.915-.06l-.315-1.245c.3.03.6.06.93.06.54 0 .855-.255.945-.75.075-.495.12-1.545.12-3.135H33.9l.345-4.77h2.07v-2.01H34.11v-1.32h3.585v4.665H35.46zm-3.585-4.965c.825.72 1.53 1.425 2.1 2.13l-.99.99c-.51-.69-1.2-1.425-2.07-2.205l.96-.915zm-.33 3.585c.81.72 1.5 1.455 2.07 2.175l-.975.975c-.48-.69-1.17-1.425-2.055-2.235l.96-.915zm.855 4.02l1.23.48a69.345 69.345 0 0 1-1.68 5.385l-1.275-.54A55.08 55.08 0 0 0 32.4 17.5zm11.07-6.99l1.005.81c-.945 1.59-2.04 2.745-3.3 3.495l-.72-.99c1.17-.735 2.175-1.845 3.015-3.315z" id="a"/></defs><g fill="none" fill-rule="evenodd"><path fill="#F1F2F2" d="M0 0h299v197H0z"/><path d="M1.987 1.98v193.04h295.026V1.98H1.987zM299 0v197H0V0h299z" fill="#C2C2C2" fill-rule="nonzero"/><path d="M4 55.067v-1.204h290v1.204H4zm0 22.326v-1.204h290v1.204H4zm0 18.604v-1.204h290v1.204H4zm0 36.94v-1.204h290v1.204H4zm0 22.595v-1.204h290v1.204H4zm0 22.326v-1.204h290v1.204H4zM38.72 34h1.2v160h-1.2V34zm37.18 0h1.2v160h-1.2V34zm37.18 0h1.2v160h-1.2V34zm33.46 0h1.201v160h-1.2V34zm37.18 0h1.2v160h-1.2V34zm37.18 0h1.2v160h-1.2V34zm37.18 0h1.2v160h-1.2V34z" fill="#DFDEDE" fill-rule="nonzero"/><path fill="#2A3052" fill-rule="nonzero" d="M3.906 132.82v-1.215h291.607v1.215z"/><path fill="#C2C2C2" fill-rule="nonzero" d="M2.8 34.78v-2.43h293.563v2.43z"/><path d="M187.24 148.191h-35.181l-5.419-8.223-5.418 8.223h-35.18c-2.635 0-4.742 2.14-4.742 4.807v24.82c0 2.666 2.145 4.807 4.741 4.807h81.236c2.634 0 4.741-2.14 4.741-4.807v-24.82c0-2.666-2.145-4.807-4.778-4.807z" fill="#E88024"/><g fill="#000"><use xlink:href="#a"/><use xlink:href="#a"/></g><path d="M130.904 87.827l-37.362 26.79a1 1 0 0 1-.49.182l-34.958 3.291a1 1 0 1 1-.188-1.99l34.69-3.266L129.9 86.085a1 1 0 0 1 .357-.161l36.539-8.486 36.349-23.682a1 1 0 0 1 .424-.154l37.44-4.594a1 1 0 1 1 .243 1.985l-37.21 4.566L167.74 79.21a1 1 0 0 1-.32.136l-36.516 8.48zm36.064-10.429l-.32.136.148-.096.172-.04zm-74.103 35.41l-.489.183.22-.157.27-.026z" fill="#2A3052" fill-rule="nonzero"/><ellipse cx="8.512" cy="9.225" rx="8.137" ry="8.475" opacity=".6" fill="#FFF" transform="translate(231.25 41)"/><path d="M239.762 59.023c-4.675 0-8.46-3.942-8.46-8.798s3.785-8.798 8.46-8.798c4.676 0 8.461 3.942 8.461 8.798s-3.785 8.798-8.46 8.798zm0-.646c4.313 0 7.815-3.647 7.815-8.152 0-4.505-3.502-8.152-7.815-8.152-4.312 0-7.814 3.647-7.814 8.152 0 4.505 3.502 8.152 7.814 8.152z" fill="#E88024" fill-rule="nonzero"/><ellipse cx="8.137" cy="8.475" rx="8.137" ry="8.475" opacity=".6" transform="translate(84 104.25)" fill="#FFF"/><path d="M92.138 122.523c-4.676 0-8.461-3.942-8.461-8.798s3.785-8.798 8.46-8.798c4.676 0 8.461 3.942 8.461 8.798s-3.785 8.798-8.46 8.798zm0-.646c4.312 0 7.814-3.647 7.814-8.152 0-4.505-3.502-8.152-7.814-8.152-4.313 0-7.815 3.647-7.815 8.152 0 4.505 3.502 8.152 7.815 8.152z" fill="#E88024" fill-rule="nonzero"/><path d="M51.775 90.314l1.293.145-.533 3.327c.172.013 1.058.013 2.658 0 .045 2.442-.46 6.088-1.487 8.182 1.104 1.187 1.799 1.993 2.084 2.418l-.862.96-1.77-2.113c-1.031 1.693-1.93 2.872-2.693 3.538a19.044 19.044 0 0 0-.786-.999c1-1.067 1.986-2.158 2.573-3.44l-2.28-2.272 1.147-5.063h-1.44v-1.21h1.613l.483-3.473zm2.245 4.691h-1.63c-.35 1.777-.7 3.322-1.051 4.636.607.59 1.093 1.07 1.46 1.436.625-1.333 1.222-5.124 1.222-6.072h-.001zm5.671-4.668l1.19.408c-1.367 2.837-2.429 4.679-3.185 5.524 3.448-.3 5.346-.51 5.695-.628-.845-1.602-1.335-2.5-1.472-2.691l1.112-.54c1.2 2.065 2.114 3.772 2.743 5.123l-1.209.61-.629-1.389c-4.359.502-6.997.762-7.913.78a32.36 32.36 0 0 0-.201-1.184c1.032-.568 2.322-2.573 3.87-6.013h-.001zm3.866 16.434v-1.097h-5.475v1.097h-1.257v-7.607h7.946v7.607h-1.214zm-.01-6.436h-5.434v4.098h5.435v-4.098h-.001zm-29.485-7.853v-.917h13.72v.917H45.17v4.86h3.74v1.411h-3.74v7.657h-1.455v-7.657l-5.191-.011c-.389 6.537-3.883 7.668-4.32 7.955-.308-.403-.56-.77-.755-1.105 1.704-1.306 3.64-2.763 3.64-6.85-1.455.007-3.08.038-4.034.011v-1.411h4.035v-4.86h-3.028zm9.616.256h-5.011v4.572h5.011v-4.572zm197.85-12.124v1.224c-1.836.666-3.906 1.206-6.246 1.638l-.162-1.26c2.448-.396 4.572-.936 6.408-1.602zm-3.33-12.96l1.206.468c-.918 2.34-1.854 4.212-2.79 5.616a67.48 67.48 0 0 0 2.556-.378c.342-.648.702-1.314 1.062-1.998l1.134.414c-1.638 3.042-3.006 5.202-4.104 6.498 1.368-.27 2.718-.63 4.05-1.08v1.152c-1.944.666-3.816 1.116-5.616 1.35l-.342-1.17c.234-.108.432-.234.594-.378.684-.702 1.53-1.89 2.538-3.582-1.026.162-2.052.306-3.096.45l-.324-1.188c.198-.09.378-.252.54-.486 1.008-1.656 1.872-3.546 2.592-5.688zm3.114 2.286h4.302v-2.178h1.314v2.178h4.284v1.26h-4.284v2.664h3.762v1.26h-8.784v-1.26h3.708V71.2h-4.302v-1.26zm8.856 6.984v7.236h-1.26v-.864h-5.148v.864h-1.278v-7.236h7.686zm-6.408 5.148h5.148v-3.924h-5.148v3.924zm9.648-12.51h7.038v-1.8h1.332v1.8h7.002v1.242h-7.002v1.764h5.67v5.094h-4.572c1.296 1.836 3.492 3.456 6.552 4.896l-.882 1.116c-3.186-1.782-5.418-3.78-6.714-6.012h-.054v6.534h-1.332v-6.534h-.054c-1.368 2.448-3.636 4.464-6.822 6.048l-.756-1.188c2.988-1.26 5.166-2.88 6.516-4.86h-4.518v-5.094h5.634v-1.764h-7.038v-1.242zm12.744 6.912v-2.682h-4.374v2.682h4.374zm-5.706 0v-2.682h-4.338v2.682h4.338z" fill="#2A3052" fill-rule="nonzero"/><path d="M150.375 165.075v7.225h-1.3v-5.875H145.6v5.825h-1.325v-7.175h6.1zm-3.025 8.275c-.1.25-.2.475-.3.675-.55 1-1.425 1.775-2.675 2.325l-.75-1.175c1.15-.525 1.95-1.2 2.425-2 .4-.875.625-2 .675-3.4V167.6h1.2v2.175c-.025.85-.1 1.625-.225 2.3.95.825 1.75 1.65 2.4 2.475l-.95.95c-.475-.7-1.075-1.4-1.8-2.15zm-10.9-18.275h10.3c-.25-.55-.5-1.025-.775-1.475l1.8-.3c.25.525.475 1.125.675 1.775h10.1v1.3h-18.175v1.3h16.475v1.275H138.7v-2.575h-2.25v-1.3zm2.95 5.05h16.125v3.725H139.4v-3.725zm14.375 2.55V161.3H141.15v1.375h12.625zm-14.75 6.8a34.912 34.912 0 0 1-.125 1.775h2.75v-1.775h-2.625zm2.625-1.175v-1.8h-2.625v1.8h2.625zm-2.925 4.125c-.3 1.625-.85 3-1.625 4.15l-1.125-1.025c1.05-1.6 1.575-3.6 1.6-6.05v-4.375h5.5v9.625c0 1.125-.6 1.7-1.775 1.7h-1.025l-.375-1.35c.325.05.65.075.95.075.525 0 .8-.325.8-.925v-1.825h-2.925zm18.9 3.75h-.875c-.9 0-1.325-.5-1.325-1.45v-8.175h-2.375v2.575c0 1.85-.125 3.275-.375 4.275-.275 1-.85 2.05-1.725 3.15l-1.125-.975c.75-.9 1.25-1.725 1.5-2.5.25-.8.375-2.125.375-3.95v-4h5.075v9.175c0 .375.15.575.475.575h.15c.15 0 .275-.125.35-.375.075-.25.15-1.075.225-2.5l1.15.4c-.15 1.7-.3 2.75-.475 3.175-.2.4-.525.6-1.025.6zm-3.575-7.4c.45 1 .875 2.05 1.225 3.2l-.95.425c-.375-1.25-.775-2.35-1.225-3.3l.95-.325zm10.186.208h-2.039l-.158-12.756h2.368l-.171 12.756zm-2.283 3.882c0-.366.112-.674.336-.922.224-.248.555-.372.995-.372.44 0 .773.124 1 .372.229.248.342.556.342.922s-.113.67-.341.91c-.228.24-.562.36-1.001.36-.44 0-.771-.12-.995-.36-.224-.24-.336-.544-.336-.91z" fill="#FFF" fill-rule="nonzero"/></g></svg>