<svg width="300" height="199" viewBox="0 0 300 199" xmlns="http://www.w3.org/2000/svg"><title>simplified_chinese_touch</title><g fill="none" fill-rule="evenodd"><path fill="#F1F2F2" fill-rule="nonzero" d="M0 0h300v199H0z"/><path d="M39.125 55.375V74.75H75.25V55.375H39.125zm0-1H75.25V34h1v20.375h36.125V34h1v20.375H149.5V34h1v20.375h36.125V34h1v20.375h36.125V34h1v20.375h36.125V34h1v20.375H299.5v1h-37.625V74.75H299.5v1h-37.625v19.375H299.5v1h-37.625V115.5H299.5v1h-37.625v19.375H299.5v1h-37.625v19.375H299.5v1h-37.625v19.375H299.5v1h-37.625V199h-1v-21.375H224.75V199h-1v-21.375h-36.125V199h-1v-21.375H150.5V199h-1v-21.375h-36.125V199h-1v-21.375H76.25V199h-1v-21.375H39.125V199h-1v-21.375H1.5v-1h36.625V157.25H1.5v-1h36.625v-19.375H1.5v-1h36.625V116.5H1.5v-1h36.625V96.125H1.5v-1h36.625V75.75H1.5v-1h36.625V55.375H1.5v-1h36.625V34h1v20.375zm221.75 1H224.75V74.75h36.125V55.375zm-37.125 0h-36.125V74.75h36.125V55.375zm-37.125 0H150.5V74.75h36.125V55.375zm-37.125 0h-36.125V74.75H149.5V55.375zm-37.125 0H76.25V74.75h36.125V55.375zM39.125 75.75v19.375H75.25V75.75H39.125zm221.75 0H224.75v19.375h36.125V75.75zm-37.125 0h-36.125v19.375h36.125V75.75zm-37.125 0H150.5v19.375h36.125V75.75zm-37.125 0h-36.125v19.375H149.5V75.75zm-37.125 0H76.25v19.375h36.125V75.75zm-73.25 20.375V115.5H75.25V96.125H39.125zm221.75 0H224.75V115.5h36.125V96.125zm-37.125 0h-36.125V115.5h36.125V96.125zm-37.125 0H150.5V115.5h36.125V96.125zm-37.125 0h-36.125V115.5H149.5V96.125zm-37.125 0H76.25V115.5h36.125V96.125zM39.125 116.5v19.375H75.25V116.5H39.125zm221.75 0H224.75v19.375h36.125V116.5zm-37.125 0h-36.125v19.375h36.125V116.5zm-37.125 0H150.5v19.375h36.125V116.5zm-37.125 0h-36.125v19.375H149.5V116.5zm-37.125 0H76.25v19.375h36.125V116.5zm-73.25 20.375v19.375H75.25v-19.375H39.125zm221.75 0H224.75v19.375h36.125v-19.375zm-37.125 0h-36.125v19.375h36.125v-19.375zm-37.125 0H150.5v19.375h36.125v-19.375zm-37.125 0h-36.125v19.375H149.5v-19.375zm-37.125 0H76.25v19.375h36.125v-19.375zm-73.25 20.375v19.375H75.25V157.25H39.125zm221.75 0H224.75v19.375h36.125V157.25zm-37.125 0h-36.125v19.375h36.125V157.25zm-37.125 0H150.5v19.375h36.125V157.25zm-37.125 0h-36.125v19.375H149.5V157.25zm-37.125 0H76.25v19.375h36.125V157.25z" fill="#DFDEDE" fill-rule="nonzero"/><path stroke="#C2C2C2" stroke-width="2" d="M1 1h298v197H1z"/><path fill="#C2C2C2" fill-rule="nonzero" d="M0 33h300v2H0z"/><path d="M2.248 75.285h295.125M261.92 33.967v162.757" stroke="#2A3052" stroke-width="1.23" stroke-linejoin="round"/><path stroke="#2A3052" stroke-width="3.689" stroke-linecap="round" stroke-linejoin="round" d="M37.891 137.242l37.358-33.93 26.542 26.352 32.026-35.415 46.458 42.993 44.288-61.957"/><path d="M188.805 147.98H153.2l-5.484-8.339-5.483 8.34h-35.606c-2.666 0-4.798 2.17-4.798 4.874v25.171c0 2.704 2.17 4.875 4.798 4.875h82.216c2.666 0 4.799-2.17 4.799-4.875v-25.171c0-2.704-2.171-4.874-4.837-4.874z" fill="#E88024" fill-rule="nonzero"/><ellipse cx="9.216" cy="8.843" rx="8.264" ry="8.606" opacity=".6" transform="translate(215.348 66.441)" fill="#FFF" fill-rule="nonzero"/><ellipse stroke="#E88024" stroke-width="2.46" cx="224.563" cy="75.285" rx="8.264" ry="8.606"/><ellipse cx="9.139" cy="9.063" rx="8.264" ry="8.606" opacity=".6" transform="translate(28.752 128.179)" fill="#FFF" fill-rule="nonzero"/><ellipse stroke="#E88024" stroke-width="2.46" cx="37.891" cy="137.242" rx="8.264" ry="8.606"/><path d="M27.082 12.516h2.461V9.911h1.583v2.605h2.494v6.81h-2.494v2.941c.368-.08.735-.16 1.087-.224a33.59 33.59 0 0 0-.512-1.646l1.36-.448c.43 1.215.814 2.606 1.166 4.188l-1.423.352c-.08-.384-.16-.735-.24-1.055-1.678.384-3.468.72-5.354.991l-.384-1.55a70.106 70.106 0 0 0 2.717-.336v-3.213h-2.461v-6.81zm5.003 5.307V14.02h-1.023v3.804h1.023zm-2.478 0V14.02h-.99v3.804h.99zm-8.136.064v1.663h1.055v-1.663h-1.055zm-.08 3.053c-.16 1.471-.495 2.702-1.039 3.709l-1.215-1.087c.608-1.071.911-2.43.927-4.076v-4.764l-.879-1.039c.927-.927 1.727-2.222 2.43-3.9l1.519.352-.336.767h2.813v1.135c-.288.56-.56 1.055-.831 1.47h1.63v9.64c0 .926-.447 1.39-1.342 1.39h-.736l-.367-1.343c.256.032.48.064.687.064.24 0 .368-.208.368-.607v-1.71H23.9v3.404h-1.374V20.94h-1.135zm3.629-1.39v-1.663H23.9v1.663h1.12zm0-3.07v-1.55H23.9v1.55h1.12zm-3.693-2.973h1.775c.24-.367.495-.783.75-1.246h-1.726c-.255.447-.527.863-.799 1.246zm1.2 1.423H21.47v1.55h1.055v-1.55zm16.687-2.925h-2.573v-1.63h9.91v1.086a45.488 45.488 0 0 1-.879 3.261h3.165v.975c-.463 2.11-1.406 3.885-2.83 5.355 1.152.8 2.463 1.503 3.933 2.126l-1.119 1.487c-1.598-.735-2.973-1.55-4.124-2.446-1.375 1.055-3.053 1.902-5.035 2.542l-.975-1.55c1.822-.608 3.373-1.328 4.62-2.19A13.241 13.241 0 0 1 40.54 17.2c-.591 3.197-1.902 5.675-3.916 7.417l-1.295-1.135c2.542-2.142 3.836-5.563 3.884-10.262v-1.215zm5.403 7.976c1.167-1.087 1.982-2.334 2.446-3.74h-3.469c.352-.975.72-2.382 1.12-4.236h-3.805v1.215c0 .32-.016.623-.032.927.575 2.238 1.822 4.172 3.74 5.834z" fill="#000" fill-rule="nonzero"/><g opacity=".9" fill="#6D6E71" fill-rule="nonzero"><path d="M37.253 71.006h.74V65.05l.977 1.745.463-.718c-.87-1.132-1.35-1.74-1.44-1.828l.007-.646h1.179v-.72H38l-.008-2.03h-.739v2.03h-1.408v.72h1.318c-.08.805-1.106 3.113-1.64 3.674.011.003.13.296.36.88.619-1.11.948-1.775 1.37-3.004v5.853zM25.778 71.05v-9.562h7.485v9.562h-.85v-.711h-5.8v.71h-.835zm6.71-8.885h-5.874v1.9h5.874v-1.9zm-.02 2.593h-5.835v1.956h5.836v-1.956zm-.01 2.726h-5.813v2.062h5.812v-2.062zM39.78 61.488h6.125v.668h-1.838v.83h1.655v2.602h-5.68v-2.602h1.67v-.83h-1.931v-.668zm3.63.72h-1.076V63h1.077v-.793zm.633 1.423v1.353h.963V63.63h-.963zm-.645-.008h-1.021v1.358h1.021v-1.358zm-1.637-.018h-.98v1.389h.98v-1.389zM45.414 66.112v.646h-5.133v-.646zM45.905 67.603v.618h-2.75V71h-.683v-2.78H39.79v-.618z"/><path d="M43.99 69.163c.233-.233.39-.382.473-.447.289.22 1.286 1.193 1.65 1.742-.125.134-.305.311-.54.53-.179-.353-.707-.962-1.583-1.825zM41.21 68.49c.243.206.411.35.507.43-.602.797-1.207 1.419-1.814 1.865a7.677 7.677 0 0 1-.47-.571c.959-.776 1.551-1.35 1.778-1.724z"/></g><g fill="#2A3052" fill-rule="nonzero"><path d="M39.067 153.491l.966.109-.398 2.486c.128.01.79.01 1.986 0 .034 1.825-.343 4.55-1.11 6.115.824.886 1.343 1.489 1.556 1.807l-.644.717-1.322-1.58c-.771 1.266-1.442 2.147-2.013 2.645-.095-.137-.29-.386-.587-.747.746-.797 1.484-1.613 1.923-2.571l-1.704-1.698.857-3.783H37.5v-.905h1.205l.361-2.595zm1.678 3.506h-1.22a54.078 54.078 0 0 1-.785 3.465c.454.44.817.798 1.092 1.072.466-.995.913-3.828.913-4.537zM44.983 153.508l.89.305c-1.023 2.12-1.816 3.497-2.381 4.128 2.577-.224 3.995-.38 4.255-.468-.63-1.198-.997-1.868-1.1-2.012l.832-.403c.896 1.543 1.58 2.819 2.05 3.828l-.904.455-.47-1.037c-3.257.375-5.229.57-5.914.582-.051-.335-.101-.63-.15-.884.772-.425 1.736-1.922 2.892-4.494zM47.871 165.79v-.82h-4.09v.82h-.94v-5.685h5.938v5.685h-.908zm-.006-4.81h-4.062v3.062h4.062v-3.062zM25.83 155.111v-.685h10.252v.685h-1.95v3.632h2.794v1.055h-2.795v5.722h-1.087v-5.722l-3.88-.009c-.29 4.885-2.901 5.73-3.227 5.945-.231-.3-.42-.576-.565-.825 1.273-.976 2.72-2.065 2.72-5.12-1.087.006-2.302.03-3.014.009v-1.055h3.015v-3.632H25.83zm7.186.192h-3.745v3.417h3.745v-3.417z"/></g><g fill="#FFF" fill-rule="nonzero"><path d="M158.49 170.558h1.365l.402-15.59h-2.18zM158.084 174.204c.085.835.703 1.048 1.207 1.048.504 0 1.058-.378 1.058-1.048 0-.993-.702-1.228-1.173-1.228-.47 0-1.178.392-1.092 1.228z"/><g><path d="M141.114 173.944c.37.315.683.598.941.848-.752 1.105-1.906 2.074-2.53 2.506-.384-.495-.652-.842-.804-1.04.743-.545 1.54-1.316 2.393-2.314zM145.494 165.16v8.425h-6.035v-8.424h6.035zm-1.467 5.864h-2.984v1.372h2.984v-1.372zm0-2.372h-2.984v1.372h2.984v-1.372zm0-2.338h-2.984v1.372h2.984v-1.372zM154.668 156.123v-1.4h-10.627c-.645-1.415-.89-1.97-.736-1.662l-1.89.31.739 1.353H131.38v1.4h2.151v2.678h19.47v-1.235H135.22v-1.444h19.448zM134.329 160.01h17.235v3.742h-17.235v-3.741zm1.745 1.074v1.584h13.775v-1.584h-13.775zM132.816 164.92a299.12 299.12 0 0 1 5.585 0v10.228c0 .541.467 2.326-2.992 1.952l-.367-1.419c1.306.17 1.959-.008 1.959-.533v-2.282h-2.903c-.39 2.166-.929 3.577-1.618 4.234a38.446 38.446 0 0 1-1.1-.985c1.928-2.606 1.417-10.36 1.436-11.196zm1.415 4.712v1.974h2.705v-1.974h-2.705zm2.741-3.356h-2.695v2.128h2.695v-2.128z"/><path d="M151.054 171.896l-.823.53c-.805-1.312-1.4-2.197-1.788-2.654-.02 1.558-.077 2.685-.173 3.38-.312 2.255-1.147 3.209-1.705 3.999l-1.184-1.05-.394.507c-1.039-1.098-1.719-1.777-2.04-2.04.341-.322.64-.606.895-.854a13.896 13.896 0 0 1 1.942 1.845c.258-.468.78-1.173 1.007-2.51.303-1.786.097-6.314.23-8.204 2.342-.008 4.16-.008 5.451 0v10.117c-.062.693 1.315.572 1.315 0l.279-2.884c.234.098.628.24 1.182.427-.26 1.762-.182 3.9-1.182 4.103-.71.034-3.012.52-3.012-.94v-3.772zm0-.454v-5.14h-2.621c.015 1.06.02 2.011.015 2.852l.818-.48c.896 1.25 1.491 2.156 1.787 2.717l.001.05z"/></g></g><path d="M270.724 110.9v1.088c-1.632.592-3.472 1.072-5.552 1.456l-.144-1.12c2.176-.352 4.064-.832 5.696-1.424zm-2.96-11.52l1.072.416c-.816 2.08-1.648 3.744-2.48 4.992a59.982 59.982 0 0 0 2.272-.336c.304-.576.624-1.168.944-1.776l1.008.368c-1.456 2.704-2.672 4.624-3.648 5.776 1.216-.24 2.416-.56 3.6-.96v1.024c-1.728.592-3.392.992-4.992 1.2l-.304-1.04c.208-.096.384-.208.528-.336.608-.624 1.36-1.68 2.256-3.184-.912.144-1.824.272-2.752.4l-.288-1.056c.176-.08.336-.224.48-.432.896-1.472 1.664-3.152 2.304-5.056zm2.768 2.032h3.824v-1.936h1.168v1.936h3.808v1.12h-3.808v2.368h3.344v1.12h-7.808v-1.12h3.296v-2.368h-3.824v-1.12zm7.872 6.208v6.432h-1.12v-.768h-4.576v.768h-1.136v-6.432h6.832zm-5.696 4.576h4.576v-3.488h-4.576v3.488zm8.576-11.12h6.256v-1.6h1.184v1.6h6.224v1.104h-6.224v1.568h5.04v4.528H289.7c1.152 1.632 3.104 3.072 5.824 4.352l-.784.992c-2.832-1.584-4.816-3.36-5.968-5.344h-.048v5.808h-1.184v-5.808h-.048c-1.216 2.176-3.232 3.968-6.064 5.376l-.672-1.056c2.656-1.12 4.592-2.56 5.792-4.32h-4.016v-4.528h5.008v-1.568h-6.256v-1.104zm11.328 6.144v-2.384h-3.888v2.384h3.888zm-5.072 0v-2.384h-3.856v2.384h3.856z" fill="#2A3052"/></g></svg>