<svg width="80" height="80" xmlns="http://www.w3.org/2000/svg" xmlns:xlink="http://www.w3.org/1999/xlink"><defs><circle id="a" cx="40" cy="40" r="40"/><path d="M8 0h48v42.84H0V8a8 8 0 018-8z" id="c"/></defs><g fill="none" fill-rule="evenodd"><mask id="b" fill="#fff"><use xlink:href="#a"/></mask><use fill="#F4F4F6" xlink:href="#a"/><g mask="url(#b)"><path d="M-10.438 0H93.88A6.12 6.12 0 01100 6.12H-16.558A6.12 6.12 0 01-10.438 0z" fill="#D02F44"/><path fill="#FFF" d="M-20 6.12h120v6.12H-20z"/><path fill="#D02F44" d="M-20 12.24h120v6.12H-20z"/><path fill="#FFF" d="M-20 18.36h120v6.12H-20z"/><path fill="#D02F44" d="M-20 24.48h120v6.12H-20z"/><path fill="#FFF" d="M-20 30.6h120v6.12H-20z"/><path fill="#D02F44" d="M-20 36.72h120v6.12H-20z"/><path fill="#FFF" d="M-20 42.84h120v6.12H-20z"/><path fill="#D02F44" d="M-20 48.96h120v6.12H-20z"/><path fill="#FFF" d="M-20 55.08h120v6.12H-20z"/><path fill="#D02F44" d="M-20 61.2h120v6.12H-20z"/><path fill="#FFF" d="M-20 67.32h120v6.12H-20z"/><path d="M-20 73.44h120A6.56 6.56 0 0193.44 80H-13.44A6.56 6.56 0 01-20 73.44z" fill="#D02F44"/><g transform="translate(-20)"><mask id="d" fill="#fff"><use xlink:href="#c"/></mask><use fill="#41479B" xlink:href="#c"/><g mask="url(#d)" fill="#F5F5F5" fill-rule="nonzero"><path d="M5.468 4.844l.476 1.408H7.42a.2.2 0 01.12.356l-1.2.884.452 1.408a.196.196 0 01-.308.216l-1.2-.86-1.2.86a.2.2 0 01-.308-.216l.492-1.4-1.2-.884a.2.2 0 01.12-.356h1.48l.476-1.408c.028-.2.268-.2.324-.008zm0 7.296l.476 1.408H7.42a.2.2 0 01.12.356l-1.2.884.452 1.408a.196.196 0 01-.308.216l-1.2-.86-1.2.86a.2.2 0 01-.308-.216l.452-1.408-1.2-.884a.2.2 0 01.12-.356h1.52l.476-1.408c.028-.164.268-.164.324 0zm0 7.324l.476 1.408H7.42a.2.2 0 01.12.356l-1.2.884.452 1.408a.196.196 0 01-.308.216l-1.2-.86-1.2.86a.2.2 0 01-.308-.216l.492-1.4-1.2-.884a.2.2 0 01.12-.356h1.48l.476-1.408c.028-.2.268-.2.324-.008zm0 7.296l.476 1.408H7.42a.2.2 0 01.12.356l-1.2.884.452 1.408a.196.196 0 01-.308.216l-1.2-.86-1.2.86a.2.2 0 01-.308-.216l.452-1.408-1.2-.884a.2.2 0 01.12-.356h1.52l.476-1.408c.028-.164.268-.164.324 0zm0 7.324l.476 1.408H7.42a.2.2 0 01.12.356l-1.2.884.452 1.408a.196.196 0 01-.308.216l-1.2-.86-1.2.86a.2.2 0 01-.308-.216l.492-1.4-1.2-.884a.2.2 0 01.12-.356h1.48l.476-1.408c.028-.2.268-.2.324-.008zM11.14 8.42l.476 1.408h1.476a.2.2 0 01.12.356l-1.2.884.452 1.408a.196.196 0 01-.308.216l-1.2-.86-1.2.86a.2.2 0 01-.308-.216l.492-1.4-1.2-.884a.2.2 0 01.12-.356h1.48l.476-1.408c.028-.2.268-.2.324-.008zm0 7.296l.476 1.408h1.476a.2.2 0 01.12.356l-1.2.884.452 1.408a.196.196 0 01-.308.216l-1.2-.86-1.2.86a.2.2 0 01-.308-.216l.452-1.408-1.2-.884a.2.2 0 01.12-.356h1.52l.476-1.408c.028-.164.268-.164.324 0zm0 7.328l.476 1.408h1.476a.2.2 0 01.12.356l-1.2.884.452 1.408a.196.196 0 01-.308.216l-1.2-.86-1.2.86a.2.2 0 01-.308-.216l.492-1.4-1.2-.884a.2.2 0 01.12-.356h1.48l.476-1.408c.028-.2.268-.2.324-.008zm0 7.32l.476 1.408h1.476a.2.2 0 01.12.356l-1.2.884.452 1.408a.196.196 0 01-.308.216l-1.2-.86-1.2.86a.2.2 0 01-.308-.216l.452-1.408-1.2-.884a.2.2 0 01.12-.356h1.52l.476-1.408c.028-.192.268-.192.324 0zm5.668-25.52l.476 1.408h1.476a.2.2 0 01.12.356l-1.2.884.452 1.408a.196.196 0 01-.308.216l-1.2-.86-1.2.86a.2.2 0 01-.308-.216l.492-1.4-1.2-.884a.2.2 0 01.12-.356h1.48l.476-1.408c.004-.2.268-.2.324-.008zm.016 7.296l.476 1.408h1.484a.2.2 0 01.12.356l-1.2.884.452 1.408a.196.196 0 01-.308.216l-1.2-.86-1.2.86a.2.2 0 01-.308-.216l.452-1.408-1.2-.884a.2.2 0 01.12-.356h1.472l.476-1.408c.028-.164.292-.164.364 0zm-.016 7.324l.476 1.408h1.476a.2.2 0 01.12.356l-1.2.884.452 1.408a.196.196 0 01-.308.216l-1.2-.86-1.2.86a.2.2 0 01-.308-.216l.492-1.4-1.2-.884a.2.2 0 01.12-.356h1.48l.476-1.408c.004-.2.268-.2.324-.008zm0 7.296l.476 1.408h1.476a.2.2 0 01.12.356l-1.2.884.452 1.408a.196.196 0 01-.308.216l-1.2-.86-1.2.86a.2.2 0 01-.308-.216l.452-1.408-1.2-.884a.2.2 0 01.12-.356h1.52l.476-1.408c.004-.164.268-.164.324 0zm0 7.324l.476 1.408h1.476a.2.2 0 01.12.356l-1.2.884.452 1.408a.196.196 0 01-.308.216l-1.2-.86-1.2.86a.2.2 0 01-.308-.216l.492-1.4-1.2-.884a.2.2 0 01.12-.356h1.48l.476-1.408c.004-.2.268-.2.324-.008zM22.48 8.42l.476 1.408h1.476a.2.2 0 01.12.356l-1.2.884.452 1.408a.196.196 0 01-.308.216l-1.2-.86-1.2.86a.2.2 0 01-.308-.216l.492-1.4-1.2-.884a.2.2 0 01.12-.356h1.48l.476-1.408c.004-.2.268-.2.324-.008zm0 7.296l.476 1.408h1.476a.2.2 0 01.12.356l-1.2.884.452 1.408a.196.196 0 01-.308.216l-1.2-.86-1.2.86a.2.2 0 01-.308-.216l.452-1.408-1.2-.884a.2.2 0 01.12-.356h1.52l.476-1.408c.004-.164.268-.164.324 0zm0 7.328l.476 1.408h1.476a.2.2 0 01.12.356l-1.2.884.452 1.408a.196.196 0 01-.308.216l-1.2-.86-1.2.86a.2.2 0 01-.308-.216l.492-1.4-1.2-.884a.2.2 0 01.12-.356h1.48l.476-1.408c.004-.2.268-.2.324-.008zm0 7.32l.476 1.408h1.476a.2.2 0 01.12.356l-1.2.884.452 1.408a.196.196 0 01-.308.216l-1.2-.86-1.2.86a.2.2 0 01-.308-.216l.452-1.408-1.2-.884a.2.2 0 01.12-.356h1.52l.476-1.408c.004-.192.268-.192.324 0zm5.672-25.52l.476 1.408h1.476a.2.2 0 01.12.356l-1.2.884.452 1.408a.196.196 0 01-.308.216l-1.2-.86-1.2.86a.2.2 0 01-.308-.216l.452-1.408-1.2-.884a.2.2 0 01.12-.356h1.52l.476-1.408c.004-.192.268-.192.324 0zm0 7.296l.476 1.408h1.476a.2.2 0 01.12.356l-1.2.884.452 1.408a.196.196 0 01-.308.216l-1.2-.86-1.2.86a.2.2 0 01-.308-.216l.452-1.408-1.2-.884a.2.2 0 01.12-.356h1.52l.476-1.408c.004-.164.268-.164.324 0zm0 7.324l.476 1.408h1.476a.2.2 0 01.12.356l-1.2.884.452 1.408a.196.196 0 01-.308.216l-1.2-.86-1.2.86a.2.2 0 01-.308-.216l.452-1.408-1.2-.884a.2.2 0 01.12-.356h1.52l.476-1.408c.004-.192.268-.192.324 0zm0 7.296l.476 1.408h1.476a.2.2 0 01.12.356l-1.2.884.452 1.408a.196.196 0 01-.308.216l-1.2-.86-1.2.86a.2.2 0 01-.308-.216l.452-1.408-1.2-.884a.2.2 0 01.12-.356h1.52l.476-1.408c.004-.164.268-.164.324 0zm0 7.324l.476 1.408h1.476a.2.2 0 01.12.356l-1.2.884.452 1.408a.196.196 0 01-.308.216l-1.2-.86-1.2.86a.2.2 0 01-.308-.216l.492-1.4-1.2-.884a.2.2 0 01.12-.356h1.48l.476-1.408c.004-.2.268-.2.324-.008zM33.824 8.42l.476 1.408h1.476a.2.2 0 01.12.356l-1.2.884.452 1.408a.196.196 0 01-.308.216l-1.2-.86-1.2.86a.2.2 0 01-.308-.216l.452-1.408-1.2-.884a.2.2 0 01.12-.356h1.476l.476-1.408c.048-.192.312-.192.368 0zm0 7.296l.476 1.408h1.476a.2.2 0 01.12.356l-1.2.884.452 1.408a.196.196 0 01-.308.216l-1.2-.86-1.2.86a.2.2 0 01-.308-.216l.452-1.408-1.2-.884a.2.2 0 01.12-.356h1.476l.476-1.408c.048-.164.312-.164.368 0zm0 7.328l.476 1.408h1.476a.2.2 0 01.12.356l-1.2.884.452 1.408a.196.196 0 01-.308.216l-1.2-.86-1.2.86a.2.2 0 01-.308-.216l.452-1.408-1.2-.884a.2.2 0 01.12-.356h1.476l.476-1.408c.048-.192.312-.192.368 0zm0 7.32l.476 1.408h1.476a.2.2 0 01.12.356l-1.2.884.452 1.408a.196.196 0 01-.308.216l-1.2-.86-1.2.86a.2.2 0 01-.308-.216l.452-1.408-1.2-.884a.2.2 0 01.12-.356h1.476l.476-1.408c.048-.192.312-.192.368 0zm5.644-25.52l.476 1.408h1.476a.2.2 0 01.12.356l-1.2.884.452 1.408a.196.196 0 01-.308.216l-1.2-.86-1.2.86a.2.2 0 01-.308-.216l.452-1.408-1.2-.884a.2.2 0 01.12-.356h1.476l.476-1.408a.184.184 0 11.368 0zm0 7.296l.476 1.408h1.476a.2.2 0 01.12.356l-1.2.884.452 1.408a.196.196 0 01-.308.216l-1.2-.86-1.2.86a.2.2 0 01-.308-.216l.452-1.408-1.2-.884a.2.2 0 01.12-.356h1.476l.476-1.408c.072-.164.336-.164.368 0zm0 7.324l.476 1.408h1.476a.2.2 0 01.12.356l-1.2.884.452 1.408a.196.196 0 01-.308.216l-1.2-.86-1.2.86a.2.2 0 01-.308-.216l.452-1.408-1.2-.884a.2.2 0 01.12-.356h1.476l.476-1.408a.184.184 0 11.368 0zm0 7.296l.476 1.408h1.476a.2.2 0 01.12.356l-1.2.884.452 1.408a.196.196 0 01-.308.216l-1.2-.86-1.2.86a.2.2 0 01-.308-.216l.452-1.408-1.2-.884a.2.2 0 01.12-.356h1.476l.476-1.408c.072-.164.336-.164.368 0zm0 7.324l.476 1.408h1.476a.2.2 0 01.12.356l-1.2.884.452 1.408a.196.196 0 01-.308.216l-1.2-.86-1.2.86a.2.2 0 01-.308-.216l.492-1.4-1.2-.884a.2.2 0 01.12-.356h1.476l.476-1.408a.168.168 0 01.328-.008zM45.14 8.42l.476 1.408h1.476a.2.2 0 01.12.356l-1.2.884.452 1.408a.196.196 0 01-.308.216l-1.2-.86-1.2.86a.2.2 0 01-.308-.216l.452-1.408-1.2-.884a.2.2 0 01.12-.356h1.476l.476-1.408a.184.184 0 11.368 0zm0 7.296l.476 1.408h1.476a.2.2 0 01.12.356l-1.2.884.452 1.408a.196.196 0 01-.308.216l-1.2-.86-1.2.86a.2.2 0 01-.308-.216l.452-1.408-1.2-.884a.2.2 0 01.12-.356h1.476l.476-1.408c.072-.164.336-.164.368 0zm0 7.328l.476 1.408h1.476a.2.2 0 01.12.356l-1.2.884.452 1.408a.196.196 0 01-.308.216l-1.2-.86-1.2.86a.2.2 0 01-.308-.216l.452-1.408-1.2-.884a.2.2 0 01.12-.356h1.476l.476-1.408a.184.184 0 11.368 0zm0 7.32l.476 1.408h1.476a.2.2 0 01.12.356l-1.2.884.452 1.408a.196.196 0 01-.308.216l-1.2-.86-1.2.86a.2.2 0 01-.308-.216l.452-1.408-1.2-.884a.2.2 0 01.12-.356h1.476l.476-1.408a.184.184 0 01.368 0zm5.672-25.52l.476 1.408h1.476a.2.2 0 01.12.356l-1.2.884.452 1.408a.196.196 0 01-.308.216l-1.2-.86-1.2.86a.2.2 0 01-.308-.216l.492-1.4-1.2-.884a.2.2 0 01.12-.356h1.476l.476-1.408a.168.168 0 01.328-.008zm0 7.296l.476 1.408h1.476a.2.2 0 01.12.356l-1.2.884.452 1.408a.196.196 0 01-.308.216l-1.2-.86-1.2.86a.2.2 0 01-.308-.216l.452-1.408-1.2-.884a.2.2 0 01.12-.356h1.476l.476-1.408c.072-.164.336-.164.368 0zm0 7.324l.476 1.408h1.476a.2.2 0 01.12.356l-1.2.884.452 1.408a.196.196 0 01-.308.216l-1.2-.86-1.2.86a.2.2 0 01-.308-.216l.492-1.4-1.2-.884a.2.2 0 01.12-.356h1.476l.476-1.408a.168.168 0 01.328-.008zm0 7.296l.476 1.408h1.476a.2.2 0 01.12.356l-1.2.884.452 1.408a.196.196 0 01-.308.216l-1.2-.86-1.2.86a.2.2 0 01-.308-.216l.452-1.408-1.2-.884a.2.2 0 01.12-.356h1.476l.476-1.408c.072-.164.336-.164.368 0zm0 7.324l.476 1.408h1.476a.2.2 0 01.12.356l-1.2.884.452 1.408a.196.196 0 01-.308.216l-1.2-.86-1.2.86a.2.2 0 01-.308-.216l.492-1.4-1.2-.884a.2.2 0 01.12-.356h1.476l.476-1.408a.168.168 0 01.328-.008z"/></g></g></g></g></svg>