<?xml version="1.0" encoding="utf-8"?>
<!-- Generator: Adobe Illustrator 19.2.1, SVG Export Plug-In . SVG Version: 6.00 Build 0)  -->
<svg version="1.1" id="Layer_1" xmlns="http://www.w3.org/2000/svg" xmlns:xlink="http://www.w3.org/1999/xlink" x="0" y="0"
	 viewBox="0 0 50 50" style="enable-background:new 0 0 50 50;" xml:space="preserve">
<style type="text/css">
	.st0{fill:#D5D3DA;}
	.st1{fill:none;stroke:#293052;stroke-width:1.8116;stroke-miterlimit:10;}
	.st2{fill:none;stroke:#293052;stroke-width:1.9896;stroke-miterlimit:10;}
	.st3{fill:#FCF0E5;}
	.st4{fill:none;stroke:#293052;stroke-width:1.4922;stroke-miterlimit:10;}
	.st5{fill:#FCEBDB;}
	.st6{fill:#F5C69A;}
	.st7{fill:none;stroke:#E88024;stroke-width:0.9948;stroke-miterlimit:10;}
	.st8{fill:#FFFFFF;stroke:#293052;stroke-width:1.9896;stroke-miterlimit:10;}
	.st9{fill:none;stroke:#E88024;stroke-width:1.9896;stroke-miterlimit:10;}
	.st10{fill:none;stroke:#F5C69A;stroke-width:0.7224;stroke-miterlimit:10;}
	.st11{fill:#E88024;}
	.st12{fill:none;stroke:#293052;stroke-width:2.0316;stroke-miterlimit:10;}
	.st13{fill:#FFFFFF;stroke:#293052;stroke-width:2.0316;stroke-miterlimit:10;}
	.st14{fill:none;stroke:#EC954A;stroke-width:2.0316;stroke-miterlimit:10;}
	.st15{fill:none;stroke:#F0AD73;stroke-width:2.0316;stroke-miterlimit:10;}
	.st16{fill:#F0AD73;}
	.st17{fill:#928EA1;}
	.st18{fill:#293052;}
	.st19{fill:none;stroke:#293052;stroke-width:2.3302;stroke-miterlimit:10;}
	.st20{opacity:0.7;fill:#D5D3DA;}
	.st21{fill:none;stroke:#FFFFFF;stroke-width:2.3302;stroke-miterlimit:10;}
	.st22{fill:#FAE0C8;}
	.st23{fill:none;stroke:#293052;stroke-width:2;stroke-miterlimit:10;}
	.st24{fill:none;stroke:#293052;stroke-width:1.5912;stroke-miterlimit:10;}
	.st25{fill:none;stroke:#F5C69A;stroke-width:2;stroke-miterlimit:10;}
	.st26{fill:none;stroke:#E88024;stroke-width:2;stroke-miterlimit:10;}
	.st27{fill:#E0DEE3;}
	.st28{fill:none;stroke:#293052;stroke-width:2.0002;stroke-miterlimit:10;}
	.st29{fill:none;stroke:#FFFFFF;stroke-width:1.3602;stroke-miterlimit:10;}
	.st30{fill:#EDECEF;}
	.st31{fill:none;stroke:#293052;stroke-width:1.8692;stroke-miterlimit:10;}
	.st32{fill:#EC954A;stroke:#293052;stroke-width:1.9154;stroke-miterlimit:10;}
</style>
<g>
	<path class="st22" d="M30.5,9.1c2.6-1.8,4.3-4.7,4.3-8.1H15.2c0,3.4,1.7,6.3,4.3,8.1C10.9,11.5,4.7,19.4,4.7,28.7
		C4.7,39.9,13.8,49,25,49c11.2,0,20.3-9.1,20.3-20.3C45.3,19.4,39.1,11.5,30.5,9.1z"/>
	<circle class="st3" cx="25" cy="28.7" r="12.6"/>
	<path class="st23" d="M30.5,9.1c2.6-1.8,4.3-4.7,4.3-8.1H15.2c0,3.4,1.7,6.3,4.3,8.1C10.9,11.5,4.7,19.4,4.7,28.7
		C4.7,39.9,13.8,49,25,49c11.2,0,20.3-9.1,20.3-20.3C45.3,19.4,39.1,11.5,30.5,9.1z"/>
	<path class="st24" d="M29.3,6.9c1.3-0.9,2.2-2.4,2.2-4.2"/>
	<line class="st23" x1="16.4" y1="9" x2="33.7" y2="9"/>
	<g>
		<path class="st18" d="M26.6,31.7c0-0.5-0.1-0.9-0.4-1.2s-0.7-0.5-1.3-0.8c-1.5-0.6-2.6-1.2-3.2-1.8s-1-1.5-1-2.7
			c0-1.1,0.4-1.9,1.1-2.6c0.7-0.7,1.7-1.1,2.9-1.2v-2h1.5v2c1.1,0.2,2,0.6,2.7,1.4s1,1.7,1,2.9l0,0h-3.1c0-0.7-0.1-1.2-0.4-1.5
			c-0.3-0.3-0.6-0.5-1.1-0.5c-0.4,0-0.8,0.1-1,0.4s-0.3,0.6-0.3,1.1c0,0.4,0.1,0.8,0.3,1.1s0.7,0.5,1.3,0.8c1.5,0.6,2.5,1.2,3.2,1.9
			c0.7,0.6,1,1.5,1,2.7c0,1.1-0.3,2-1,2.6c-0.7,0.7-1.6,1.1-2.8,1.2v1.9h-1.5v-1.9c-1.2-0.1-2.2-0.5-3-1.3c-0.8-0.7-1.2-1.8-1.2-3.2
			l0-0.1h3.1c0,0.8,0.2,1.3,0.5,1.7s0.8,0.5,1.3,0.5c0.5,0,0.8-0.1,1-0.4C26.5,32.4,26.6,32.1,26.6,31.7z"/>
	</g>
	<circle class="st25" cx="25" cy="28.7" r="12.6"/>
</g>
</svg>
