<svg id="Layer_1" data-name="Layer 1" xmlns="http://www.w3.org/2000/svg" viewBox="0 0 16 16"><defs><style>.cls-1{fill:#2a3052;}</style></defs><title>blog</title><path class="cls-1" d="M8,0a8,8,0,1,0,8,8A8,8,0,0,0,8,0ZM8,15.06A7.06,7.06,0,1,1,15.06,8,7.07,7.07,0,0,1,8,15.06Z"/><path class="cls-1" d="M3.53,9.46H7.61v1.25H3.53v.63h9.1v-.63H8.55V9.46h4.08V3.82H3.53Zm.63-5H12V8.84H4.16Z"/><rect class="cls-1" x="4.78" y="5.39" width="0.94" height="0.63"/><rect class="cls-1" x="6.35" y="5.39" width="5.02" height="0.63"/><rect class="cls-1" x="4.78" y="6.95" width="0.94" height="0.63"/><rect class="cls-1" x="6.35" y="6.95" width="5.02" height="0.63"/></svg>