<svg id="Layer_1" data-name="Layer 1" xmlns="http://www.w3.org/2000/svg" viewBox="0 0 16 16"><defs><style>.cls-1{fill:#2a3052}</style></defs><title>blog</title><path class="cls-1" d="M8 0a8 8 0 1 0 8 8 8 8 0 0 0-8-8zm0 15.06A7.06 7.06 0 1 1 15.06 8 7.07 7.07 0 0 1 8 15.06z"/><path class="cls-1" d="M3.53 9.46h4.08v1.25H3.53v.63h9.1v-.63H8.55V9.46h4.08V3.82h-9.1zm.63-5H12v4.38H4.16z"/><path class="cls-1" d="M4.78 5.39h.94v.63h-.94zM6.35 5.39h5.02v.63H6.35zM4.78 6.95h.94v.63h-.94zM6.35 6.95h5.02v.63H6.35z"/></svg>