<?xml version="1.0" encoding="utf-8"?>
<!-- Generator: Adobe Illustrator 19.2.1, SVG Export Plug-In . SVG Version: 6.00 Build 0)  -->
<svg version="1.1" id="Layer_1" xmlns="http://www.w3.org/2000/svg" xmlns:xlink="http://www.w3.org/1999/xlink" x="0" y="0"
	 viewBox="0 0 50 50" style="enable-background:new 0 0 50 50;" xml:space="preserve">
<style type="text/css">
	.st0{fill:#D5D3DA;}
	.st1{fill:none;stroke:#293052;stroke-width:1.8116;stroke-miterlimit:10;}
	.st2{fill:none;stroke:#293052;stroke-width:1.9896;stroke-miterlimit:10;}
	.st3{fill:#FCF0E5;}
	.st4{fill:none;stroke:#293052;stroke-width:1.4922;stroke-miterlimit:10;}
	.st5{fill:#FCEBDB;}
	.st6{fill:#F5C69A;}
	.st7{fill:none;stroke:#E88024;stroke-width:0.9948;stroke-miterlimit:10;}
	.st8{fill:#FFFFFF;stroke:#293052;stroke-width:1.9896;stroke-miterlimit:10;}
	.st9{fill:none;stroke:#E88024;stroke-width:1.9896;stroke-miterlimit:10;}
	.st10{fill:none;stroke:#F5C69A;stroke-width:0.7224;stroke-miterlimit:10;}
	.st11{fill:#E88024;}
	.st12{fill:none;stroke:#293052;stroke-width:2.0316;stroke-miterlimit:10;}
	.st13{fill:#FFFFFF;stroke:#293052;stroke-width:2.0316;stroke-miterlimit:10;}
	.st14{fill:none;stroke:#EC954A;stroke-width:2.0316;stroke-miterlimit:10;}
	.st15{fill:none;stroke:#F0AD73;stroke-width:2.0316;stroke-miterlimit:10;}
	.st16{fill:#F0AD73;}
	.st17{fill:#928EA1;}
	.st18{fill:#293052;}
	.st19{fill:none;stroke:#293052;stroke-width:2.3302;stroke-miterlimit:10;}
	.st20{opacity:0.7;fill:#D5D3DA;}
	.st21{fill:none;stroke:#FFFFFF;stroke-width:2.3302;stroke-miterlimit:10;}
	.st22{fill:#FAE0C8;}
	.st23{fill:none;stroke:#293052;stroke-width:2;stroke-miterlimit:10;}
	.st24{fill:none;stroke:#293052;stroke-width:1.5912;stroke-miterlimit:10;}
	.st25{fill:none;stroke:#F5C69A;stroke-width:2;stroke-miterlimit:10;}
	.st26{fill:none;stroke:#E88024;stroke-width:2;stroke-miterlimit:10;}
	.st27{fill:#E0DEE3;}
	.st28{fill:none;stroke:#293052;stroke-width:2.0002;stroke-miterlimit:10;}
	.st29{fill:none;stroke:#FFFFFF;stroke-width:1.3602;stroke-miterlimit:10;}
	.st30{fill:#EDECEF;}
	.st31{fill:none;stroke:#293052;stroke-width:1.8692;stroke-miterlimit:10;}
	.st32{fill:#EC954A;stroke:#293052;stroke-width:1.9154;stroke-miterlimit:10;}
</style>
<g>
	<path class="st23" d="M43.9,36.7V19.9C43.9,9.5,35.5,1,25,1C14.5,1,6.1,9.5,6.1,19.9v16.8"/>
	<rect x="6.1" y="23.9" class="st22" width="7.1" height="12.8"/>
	<rect x="36.8" y="23.9" class="st22" width="7.1" height="12.8"/>
	<rect x="6.1" y="31.9" class="st16" width="7.1" height="4.8"/>
	<rect x="36.8" y="31.9" class="st16" width="7.1" height="4.8"/>
	<rect x="6.1" y="23.9" class="st23" width="7.1" height="12.8"/>
	<path class="st23" d="M9.6,36.1c0,5.7,4.7,10.4,10.4,10.4"/>
	<path class="st22" d="M29.1,45.5v1.9c0,0.9-0.7,1.6-1.6,1.6h-5.9c-0.9,0-1.6-0.7-1.6-1.6v-1.9c0-0.9,0.7-1.6,1.6-1.6h5.9
		C28.4,44,29.1,44.7,29.1,45.5z"/>
	<path class="st16" d="M29.2,47l-0.1,0.5c0,0.9-0.7,1.6-1.6,1.6h-5.9c-0.9,0-1.6-0.7-1.6-1.6l0.1-0.5"/>
	<path class="st23" d="M29.1,45.5v1.9c0,0.9-0.7,1.6-1.6,1.6h-5.9c-0.9,0-1.6-0.7-1.6-1.6v-1.9c0-0.9,0.7-1.6,1.6-1.6h5.9
		C28.4,44,29.1,44.7,29.1,45.5z"/>
	<rect x="36.8" y="23.9" class="st23" width="7.1" height="12.8"/>
</g>
</svg>
