<?xml version="1.0" encoding="utf-8"?>
<!-- Generator: Adobe Illustrator 19.2.1, SVG Export Plug-In . SVG Version: 6.00 Build 0)  -->
<svg version="1.1" id="Layer_1" xmlns="http://www.w3.org/2000/svg" xmlns:xlink="http://www.w3.org/1999/xlink" x="0" y="0"
	 viewBox="0 0 50 50" style="enable-background:new 0 0 50 50;" xml:space="preserve">
<style type="text/css">
	.st0{fill:#D5D3DA;}
	.st1{fill:none;stroke:#293052;stroke-width:1.8116;stroke-miterlimit:10;}
	.st2{fill:none;stroke:#293052;stroke-width:1.9896;stroke-miterlimit:10;}
	.st3{fill:#FCF0E5;}
	.st4{fill:none;stroke:#293052;stroke-width:1.4922;stroke-miterlimit:10;}
	.st5{fill:#FCEBDB;}
	.st6{fill:#F5C69A;}
	.st7{fill:none;stroke:#E88024;stroke-width:0.9948;stroke-miterlimit:10;}
	.st8{fill:#FFFFFF;stroke:#293052;stroke-width:1.9896;stroke-miterlimit:10;}
	.st9{fill:none;stroke:#E88024;stroke-width:1.9896;stroke-miterlimit:10;}
	.st10{fill:none;stroke:#F5C69A;stroke-width:0.7224;stroke-miterlimit:10;}
	.st11{fill:#E88024;}
	.st12{fill:none;stroke:#293052;stroke-width:2.0316;stroke-miterlimit:10;}
	.st13{fill:#FFFFFF;stroke:#293052;stroke-width:2.0316;stroke-miterlimit:10;}
	.st14{fill:none;stroke:#EC954A;stroke-width:2.0316;stroke-miterlimit:10;}
	.st15{fill:none;stroke:#F0AD73;stroke-width:2.0316;stroke-miterlimit:10;}
	.st16{fill:#F0AD73;}
	.st17{fill:#928EA1;}
	.st18{fill:#293052;}
	.st19{fill:none;stroke:#293052;stroke-width:2.3302;stroke-miterlimit:10;}
	.st20{opacity:0.7;fill:#D5D3DA;}
	.st21{fill:none;stroke:#FFFFFF;stroke-width:2.3302;stroke-miterlimit:10;}
	.st22{fill:#FAE0C8;}
	.st23{fill:none;stroke:#293052;stroke-width:2;stroke-miterlimit:10;}
	.st24{fill:none;stroke:#293052;stroke-width:1.5912;stroke-miterlimit:10;}
	.st25{fill:none;stroke:#F5C69A;stroke-width:2;stroke-miterlimit:10;}
	.st26{fill:none;stroke:#E88024;stroke-width:2;stroke-miterlimit:10;}
	.st27{fill:#E0DEE3;}
	.st28{fill:none;stroke:#293052;stroke-width:2.0002;stroke-miterlimit:10;}
	.st29{fill:none;stroke:#FFFFFF;stroke-width:1.3602;stroke-miterlimit:10;}
	.st30{fill:#EDECEF;}
	.st31{fill:none;stroke:#293052;stroke-width:1.8692;stroke-miterlimit:10;}
	.st32{fill:#EC954A;stroke:#293052;stroke-width:1.9154;stroke-miterlimit:10;}
</style>
<g>
	<polygon class="st0" points="29.2,49 20.8,49 22.1,36 27.9,36 	"/>
	<line class="st1" x1="44.9" y1="49" x2="5.1" y2="49"/>
	<rect x="1" y="1" class="st0" width="48" height="35"/>
	<rect x="1" y="1" class="st2" width="48" height="35"/>
	<rect x="5.6" y="4.9" class="st3" width="38.8" height="24"/>
	<rect x="5.6" y="4.9" class="st4" width="38.8" height="24"/>
	<g>
		<path class="st5" d="M32.9,18l-0.7,0.3c-0.7,0.3-0.9,1.1-0.6,1.7l0.4,0.7l-1.3,1.8L30,22.2c-0.7-0.2-1.4,0.3-1.4,1.1L28.5,24
			l-2.1,0.7l-0.5-0.6c-0.5-0.5-1.3-0.5-1.8,0l-0.5,0.6L21.5,24l-0.1-0.8c-0.1-0.7-0.7-1.2-1.4-1.1l-0.7,0.2L18,20.6l0.4-0.7
			c0.4-0.6,0.1-1.4-0.6-1.7L17.1,18v-2.2l0.7-0.3c0.7-0.3,0.9-1.1,0.6-1.7L18,13.1l1.3-1.8l0.7,0.2c0.7,0.2,1.4-0.3,1.4-1.1l0.1-0.8
			l2.1-0.7l0.5,0.6c0.5,0.5,1.3,0.5,1.8,0l0.5-0.6l2.1,0.7l0.1,0.8c0.1,0.7,0.7,1.2,1.4,1.1l0.7-0.2l1.3,1.8l-0.4,0.7
			c-0.4,0.6-0.1,1.4,0.6,1.7l0.7,0.3V18z"/>
		<path class="st6" d="M32.9,18l-0.7,0.3c-0.7,0.3-0.9,1.1-0.6,1.7l0.4,0.7l-1.3,1.8L30,22.2c-0.7-0.2-1.4,0.3-1.4,1.1L28.5,24
			l-2.1,0.7l-0.5-0.6c-0.5-0.5-1.3-0.5-1.8,0l-0.5,0.6L21.5,24l-0.1-0.8c-0.1-0.7-0.7-1.2-1.4-1.1l-0.7,0.2L18,20.6l0.4-0.7
			c0.4-0.6,0.1-1.4-0.6-1.7L17.1,18v-2.2l0.7-0.3c0.7-0.3,0.9-1.1,0.6-1.7L18,13.1l1.3-1.8l0.7,0.2c0.7,0.2,1.4-0.3,1.4-1.1l0.1-0.8
			l2.1-0.7l0.5,0.6c0.5,0.5,1.3,0.5,1.8,0l0.5-0.6l2.1,0.7l0.1,0.8c0.1,0.7,0.7,1.2,1.4,1.1l0.7-0.2l1.3,1.8l-0.4,0.7
			c-0.4,0.6-0.1,1.4,0.6,1.7l0.7,0.3V18z"/>
		<path class="st7" d="M32.9,18l-0.7,0.3c-0.7,0.3-0.9,1.1-0.6,1.7l0.4,0.7l-1.3,1.8L30,22.2c-0.7-0.2-1.4,0.3-1.4,1.1L28.5,24
			l-2.1,0.7l-0.5-0.6c-0.5-0.5-1.3-0.5-1.8,0l-0.5,0.6L21.5,24l-0.1-0.8c-0.1-0.7-0.7-1.2-1.4-1.1l-0.7,0.2L18,20.6l0.4-0.7
			c0.4-0.6,0.1-1.4-0.6-1.7L17.1,18v-2.2l0.7-0.3c0.7-0.3,0.9-1.1,0.6-1.7L18,13.1l1.3-1.8l0.7,0.2c0.7,0.2,1.4-0.3,1.4-1.1l0.1-0.8
			l2.1-0.7l0.5,0.6c0.5,0.5,1.3,0.5,1.8,0l0.5-0.6l2.1,0.7l0.1,0.8c0.1,0.7,0.7,1.2,1.4,1.1l0.7-0.2l1.3,1.8l-0.4,0.7
			c-0.4,0.6-0.1,1.4,0.6,1.7l0.7,0.3V18z"/>
		<ellipse class="st3" cx="25" cy="16.9" rx="3.2" ry="3.2"/>
		<ellipse class="st7" cx="25" cy="16.9" rx="3.2" ry="3.2"/>
	</g>
	<polygon class="st2" points="29.2,49 20.8,49 22.1,36 27.9,36 	"/>
</g>
</svg>
