<svg id="Layer_1" data-name="Layer 1" xmlns="http://www.w3.org/2000/svg" viewBox="0 0 49.29 49.29">
    <defs>
        <style>
        .cls-1 {
            fill: none;
            stroke: #fff;
            stroke-miterlimit: 10;
            stroke-width: 3.86px;
        }
        
        .cls-2 {
            fill: #fff;
        }
        </style>
    </defs>
    <title>view-positions-icon</title>
    <line class="cls-1" x1="11.59" y1="37.71" x2="1.36" y2="47.93" />
    <circle class="cls-1" cx="26.92" cy="22.37" r="20.44" />
    <path class="cls-2" d="M34.36,15.36a3.56,3.56,0,0,1,3.23,3.13,3.57,3.57,0,0,1-2-1.74l-0.45-.92-0.41.94a2.8,2.8,0,0,1-1,1.2,2.31,2.31,0,0,1,.06.86,2.28,2.28,0,0,1-.05.28,3.89,3.89,0,0,0,1.44-1.2,3.91,3.91,0,0,0,2.54,1.61v0.36l0.06,0L37.91,20a0.43,0.43,0,0,1,.18.41,0.39,0.39,0,0,1-.3.35l-0.27.06-0.09.27,0,0.12a3.48,3.48,0,0,1-3,2.58,3.17,3.17,0,0,1-2.59-1.65,6.11,6.11,0,0,1-.68.72,4,4,0,0,0,3.27,1.91,3.89,3.89,0,0,0,2.91-1.45,5.2,5.2,0,0,0,.51-0.69c0.09-.14.17-0.29,0.24-0.44a5.85,5.85,0,0,0,.24-0.56,1.34,1.34,0,0,0,.58-0.53A1.44,1.44,0,0,0,39,20.55a1.47,1.47,0,0,0-.22-1,1.39,1.39,0,0,0-.17-0.22,6.08,6.08,0,0,0-.06-0.73c-0.34-2.42-2.1-4.28-4.22-4.28a3.66,3.66,0,0,0-1.59.37,7.18,7.18,0,0,1,.31.94A2.76,2.76,0,0,1,34.36,15.36Z" transform="translate(-0.64 -0.07)" />
    <path class="cls-2" d="M33.52,26.31V25h-1v0.47A7.43,7.43,0,0,1,33.52,26.31Z" transform="translate(-0.64 -0.07)" />
    <path class="cls-2" d="M38.8,27.32a6.38,6.38,0,0,0-2.47-1.47V25h-1V26.6l0.35,0.1a5.58,5.58,0,0,1,2.17,1.14,4.94,4.94,0,0,1,.58.59,5.08,5.08,0,0,1,1.15,3.3v1.14h1V31.72A6.12,6.12,0,0,0,39.37,28,5.82,5.82,0,0,0,38.8,27.32Z" transform="translate(-0.64 -0.07)" />
    <path class="cls-2" d="M16.58,20.52v0a1.38,1.38,0,0,0,.86,1.14l0.06,0.14L17.57,22l0.1,0.2c0.07,0.14.15,0.28,0.23,0.42a5.23,5.23,0,0,0,.51.7,3.9,3.9,0,0,0,2.92,1.46,4,4,0,0,0,3.26-1.9,6.1,6.1,0,0,1-.68-0.72,3.16,3.16,0,0,1-2.58,1.63,3.44,3.44,0,0,1-3-2.45l-0.09-.24-0.1-.3-0.3,0a0.39,0.39,0,0,1-.33-0.35A0.42,0.42,0,0,1,17.73,20L18,19.89l0,0V19.69a5.31,5.31,0,0,0,3.83-1.44,2.24,2.24,0,0,1,.53-1.18c0-.19,0-0.37.06-0.55l-0.34-.69-0.41.94C20.92,18.44,19,18.68,18,18.69a3.62,3.62,0,0,1,3.27-3.34,2.75,2.75,0,0,1,1.25.31,7.21,7.21,0,0,1,.3-0.94,3.65,3.65,0,0,0-1.55-.35c-2.11,0-3.86,1.84-4.22,4.24a6.06,6.06,0,0,0-.07.7,1.37,1.37,0,0,0-.2.22A1.46,1.46,0,0,0,16.58,20.52Z" transform="translate(-0.64 -0.07)" />
    <path class="cls-2" d="M19.53,25.85a6.38,6.38,0,0,0-2.47,1.47,5.8,5.8,0,0,0-.57.64,6.12,6.12,0,0,0-1.23,3.76v1.14h1V31.72a5.08,5.08,0,0,1,1.15-3.3A5,5,0,0,1,18,27.84a5.58,5.58,0,0,1,2.17-1.14l0.35-.1V25h-1v0.85Z" transform="translate(-0.64 -0.07)" />
    <path class="cls-2" d="M23.3,25.47V25h-1v1.31A7.43,7.43,0,0,1,23.3,25.47Z" transform="translate(-0.64 -0.07)" />
    <path class="cls-2" d="M30.77,22.35a5.67,5.67,0,0,0,.69-0.78A6.19,6.19,0,0,0,31.84,21a6.6,6.6,0,0,0,.39-0.81L32.31,20A1.54,1.54,0,0,0,33,19.4a1.65,1.65,0,0,0,.25-0.69,1.73,1.73,0,0,0-.22-1,1.61,1.61,0,0,0-.23-0.31,7,7,0,0,0-.06-0.72c0-.22-0.07-0.43-0.11-0.65a6.63,6.63,0,0,0-.3-1c-0.08-.19-0.16-0.38-0.25-0.56a4.83,4.83,0,0,0-4.21-2.84,4.83,4.83,0,0,0-4.21,2.84c-0.09.18-.17,0.36-0.25,0.54a6.62,6.62,0,0,0-.3,1,6.93,6.93,0,0,0-.17,1.31l0,0a1.64,1.64,0,0,0-.49.92,1.62,1.62,0,0,0,.08.87,1.55,1.55,0,0,0,.89.93,6.6,6.6,0,0,0,.47,1,6.17,6.17,0,0,0,.39.59,5.65,5.65,0,0,0,.69.77,5.1,5.1,0,0,0,.44.36,4,4,0,0,0,5,0A5.12,5.12,0,0,0,30.77,22.35Zm-2.94-9.6a3.78,3.78,0,0,1,3.33,2.43,5.39,5.39,0,0,1,.24.62c0.05,0.18.1,0.36,0.14,0.54a2.7,2.7,0,0,1-.45-0.15,3.12,3.12,0,0,1-.52-0.29,4.67,4.67,0,0,1-1.37-1.56l-0.51-1.06-0.47,1.08a3.74,3.74,0,0,1-2.8,2.06c-0.21,0-.41.08-0.6,0.1a7.25,7.25,0,0,1-.75.05,5.6,5.6,0,0,1,.19-0.81,5.3,5.3,0,0,1,.23-0.6A3.79,3.79,0,0,1,27.83,12.75Zm0,9.7A3.13,3.13,0,0,1,26,21.8a4.05,4.05,0,0,1-.43-0.37,4.65,4.65,0,0,1-.62-0.75,5.44,5.44,0,0,1-.6-1.24l0-.08L24.18,19l-0.34,0a0.44,0.44,0,0,1-.37-0.4,0.48,0.48,0,0,1,.24-0.48h0l0.3-.16V17.72h0.32a7.93,7.93,0,0,0,1-.1l0.57-.12a4.91,4.91,0,0,0,2.87-1.83A5.35,5.35,0,0,0,30,16.9a4.17,4.17,0,0,0,.51.29,3.72,3.72,0,0,0,.91.3l0.21,0v0.42l0.26,0.17a0.49,0.49,0,0,1,.21.47h0a0.45,0.45,0,0,1-.34.39L31.47,19l-0.1.31c0,0.11-.08.22-0.12,0.33a5.37,5.37,0,0,1-.53,1,4.63,4.63,0,0,1-.62.75,4,4,0,0,1-.44.37A3.11,3.11,0,0,1,27.83,22.45Z" transform="translate(-0.64 -0.07)" />
    <path class="cls-2" d="M25.77,24.8a7.73,7.73,0,0,0-1.6.73,7.11,7.11,0,0,0-.6.41,6.8,6.8,0,0,0-.84.76q-0.22.23-.41,0.48a7,7,0,0,0-1.45,4.37v1.31H22V31.55a5.82,5.82,0,0,1,1.48-4,5.69,5.69,0,0,1,.43-0.42,6,6,0,0,1,.87-0.64,6.35,6.35,0,0,1,.6-0.32,6.91,6.91,0,0,1,1.12-.42l0.41-.11V23.82H25.77v1Z" transform="translate(-0.64 -0.07)" />
    <path class="cls-2" d="M33.14,26.71a6.81,6.81,0,0,0-.84-0.76,7.1,7.1,0,0,0-.6-0.41,7.74,7.74,0,0,0-1.6-.73v-1H29v1.85l0.41,0.11a6.91,6.91,0,0,1,1.12.42,6.36,6.36,0,0,1,.6.32,6,6,0,0,1,.87.64,5.68,5.68,0,0,1,.43.42,5.82,5.82,0,0,1,1.48,4v1.31H35V31.55a7,7,0,0,0-1.45-4.37Q33.35,26.94,33.14,26.71Z" transform="translate(-0.64 -0.07)" />
    <path class="cls-2" d="M23.63,17.08s4.3-.28,5.09-2.58c0,0,1.28,2.32,3.56,2.4,0,0-.14-4.4-4.42-5C27.86,11.91,23.84,11.83,23.63,17.08Z" transform="translate(-0.64 -0.07)" />
    <path class="cls-2" d="M26.18,24.22a2.7,2.7,0,0,0,3.47,0v1.29s4.78,1,5.1,7.34H21.12s0-6.13,5.06-7.34V24.22Z" transform="translate(-0.64 -0.07)" />
</svg>
