<?xml version="1.0" encoding="UTF-8"?>
<svg width="204px" height="80px" viewBox="0 0 204 80" version="1.1" xmlns="http://www.w3.org/2000/svg" xmlns:xlink="http://www.w3.org/1999/xlink">
    <title>logo/regulator/financial commission</title>
    <g id="Regulatory-information" stroke="none" stroke-width="1" fill="none" fill-rule="evenodd">
        <g id="Regulatory-information----main" transform="translate(-869.000000, -3656.000000)">
            <g id="The-Financial-Commission" transform="translate(222.000000, 3411.000000)">
                <g id="logo/regulator/financial-commission" transform="translate(647.000000, 234.000000)">
                    <g>
                        <rect id="bg" x="0" y="0" width="203.726708" height="102"></rect>
                        <g id="FC-logo" transform="translate(0.000000, 11.475000)" fill="#454D54" fill-rule="nonzero">
                            <g id="XMLID_1_">
                                <g id="XMLID_3_">
                                    <polygon id="Path" points="57.8003256 14.378626 61.3253679 10.2259542 61.7400787 10.5374046 58.1631976 14.6900763"></polygon>
                                    <path d="M55.104705,6.90381679 C55.1565439,6.8519084 55.2083827,6.8 55.3120604,6.7480916 C55.4157382,6.69618321 55.467577,6.7480916 55.5194159,6.7480916 C55.5712547,6.8 55.6749324,6.8519084 55.6749324,6.90381679 C55.6749324,7.00763359 55.6749324,7.05954198 55.6230936,7.16335878 C55.5712547,7.26717557 55.5194159,7.26717557 55.4157382,7.31908397 C55.3120604,7.31908397 55.2602216,7.31908397 55.2083827,7.26717557 C55.1565439,7.21526718 55.104705,7.16335878 55.0528662,7.11145038 C55.0010273,7.05954198 55.0528662,6.95572519 55.104705,6.90381679 Z" id="Path"></path>
                                    <path d="M54.8455107,11.1603053 C55.4157382,10.329771 56.6080319,10.9007634 57.281937,11.2641221 L57.4892924,10.9526718 C57.9040033,10.3816794 57.8003256,10.070229 57.3856147,9.75877863 C57.0227427,9.49923664 56.4525153,9.49923664 56.4525153,9.49923664 L56.556193,9.23969466 C56.556193,9.23969466 57.1264204,9.23969466 57.5929701,9.55114504 C58.2668753,10.0183206 58.4223919,10.4854962 57.9040033,11.2122137 L56.8672261,12.6656489 C56.6080319,13.0290076 56.6598707,13.1328244 56.7635484,13.1847328 C56.8672261,13.2366412 57.0227427,13.2885496 57.0227427,13.2885496 L56.919065,13.4961832 C56.919065,13.4961832 56.556193,13.3923664 56.4006764,13.2885496 C56.193321,13.1328244 56.1414821,12.9770992 56.3488376,12.6137405 L56.3488376,12.6137405 C56.3488376,12.6137405 55.830449,12.9251908 55.2083827,12.4580153 C54.6899942,12.1465649 54.5344776,11.6793893 54.8455107,11.1603053 Z M55.3638993,11.4198473 C55.104705,11.7832061 55.2083827,12.0946565 55.5712547,12.3541985 C56.0378044,12.6656489 56.556193,12.4061069 56.556193,12.4061069 L57.1782593,11.5236641 C56.5043541,11.1603053 55.7267713,10.9007634 55.3638993,11.4198473 Z" id="Shape"></path>
                                    <path d="M54.9491884,66.7541985 L55.2083827,67.0137405 C55.2083827,66.9618321 55.2602216,66.4946565 55.8822879,66.0793893 C56.4525153,65.7160305 57.0227427,65.7679389 57.4374536,66.4427481 L58.8371027,68.5709924 L58.370553,68.8824427 L57.0227427,66.8580153 C56.6598707,66.3389313 56.2969987,66.2351145 55.8822879,66.4946565 C55.3638993,66.8061069 55.3638993,67.2732824 55.3638993,67.2732824 L56.9709039,69.7648855 L56.5043541,70.0244275 L54.4826387,66.9618321 L54.9491884,66.7541985 Z" id="Path"></path>
                                    <polygon id="Rectangle" transform="translate(53.966101, 9.563774) rotate(-61.464077) translate(-53.966101, -9.563774) " points="52.150045 9.30552739 55.7824484 9.30348454 55.7821566 9.82202131 52.1497532 9.82406417"></polygon>
                                    <path d="M52.2535679,27.6671756 C52.5127622,27.6671756 52.7201176,27.978626 52.7201176,28.3938931 C52.7201176,28.8091603 52.5127622,29.1206107 52.2535679,29.1206107 C51.9943736,29.1206107 51.7870182,28.8091603 51.7870182,28.3938931 C51.7351793,27.978626 51.9943736,27.6671756 52.2535679,27.6671756 Z" id="Path"></path>
                                    <path d="M51.9943736,70.3877863 C52.4609233,71.3221374 52.927473,71.6854962 53.5495393,71.3740458 C54.1716056,71.0625954 54.2234444,70.4916031 53.7568947,69.5053435 C53.290345,68.5709924 52.8237953,68.2076336 52.201729,68.519084 C51.5796627,68.8305344 51.5278239,69.4015267 51.9943736,70.3877863 Z M51.475985,70.5954198 C50.9575964,69.5053435 51.1649519,68.6748092 52.0462124,68.2076336 C52.9793119,67.7923664 53.7568947,68.1557252 54.2752833,69.2458015 C54.7936719,70.3358779 54.5863164,71.2183206 53.7050559,71.6335878 C52.7719564,72.1007634 51.9943736,71.6854962 51.475985,70.5954198 Z" id="Shape"></path>
                                    <path d="M50.8539187,10.1221374 C49.9208193,9.75877863 49.6097862,8.98015267 50.1281747,7.78625954 C50.5947244,6.64427481 51.3723073,6.22900763 52.3572456,6.64427481 C52.8756342,6.8519084 53.1866673,7.31908397 53.1866673,7.31908397 L53.0311507,7.57862595 C53.0311507,7.57862595 52.7719564,7.16335878 52.3054067,6.95572519 C51.6315016,6.64427481 51.113113,6.95572519 50.6984022,7.99389313 C50.2318524,9.08396947 50.4910467,9.60305344 51.0612742,9.81068702 C51.6315016,10.070229 52.0462124,9.75877863 52.0462124,9.75877863 L52.201729,10.0183206 C52.201729,10.0183206 51.6833404,10.4854962 50.8539187,10.1221374 Z" id="Path"></path>
                                    <polygon id="Path" points="50.1800136 73.0351145 48.935881 69.5572519 49.4542696 69.4015267 50.6984022 72.8274809"></polygon>
                                    <path d="M49.1432365,68.4152672 C49.1950753,68.519084 49.1950753,68.5709924 49.1432365,68.6748092 C49.0913976,68.7267176 49.0395587,68.778626 48.9877199,68.8305344 C48.935881,68.8305344 48.8322033,68.8305344 48.7803645,68.8305344 C48.6766867,68.778626 48.6248479,68.7267176 48.6248479,68.6229008 C48.6248479,68.519084 48.6248479,68.4671756 48.6248479,68.3633588 C48.6766867,68.259542 48.7285256,68.259542 48.7803645,68.2076336 C48.8322033,68.2076336 48.935881,68.1557252 48.9877199,68.2076336 C49.0395587,68.259542 49.0913976,68.3114504 49.1432365,68.4152672 Z" id="Path"></path>
                                    <path d="M45.7737107,8.35725191 L46.7068102,4.82748092 L47.121521,4.93129771 L47.0696822,5.29465649 C47.121521,5.24274809 47.5362319,4.98320611 48.210137,5.19083969 C48.8840422,5.39847328 49.1950753,5.86564885 48.9877199,6.59236641 L48.3138147,9.03206107 L47.7954262,8.87633588 L48.4174925,6.54045802 C48.573009,5.91755725 48.3656536,5.60610687 47.9509427,5.45038168 C47.3807153,5.29465649 47.0178433,5.55419847 47.0178433,5.55419847 L46.2402605,8.40916031 L45.7737107,8.35725191 Z" id="Path"></path>
                                    <path d="M46.1365827,73.7099237 L46.2402605,73.3984733 C46.2402605,73.3984733 46.6549713,73.7618321 47.2770376,73.6061069 C47.847265,73.4503817 48.0027816,73.0870229 47.8991039,72.7236641 C47.6399096,71.789313 46.0847439,72.6717557 45.7737107,71.4778626 C45.6181942,70.8549618 46.032905,70.3877863 46.7068102,70.1801527 C47.2251987,70.0244275 47.6917485,70.2320611 47.6917485,70.2320611 L47.6917485,70.5435115 C47.6917485,70.5435115 47.2251987,70.3358779 46.8104879,70.4916031 C46.3439382,70.5954198 46.1365827,70.9068702 46.2402605,71.270229 C46.4994547,72.2045802 48.1582982,71.3221374 48.4693313,72.5679389 C48.6248479,73.1389313 48.3656536,73.7618321 47.484393,73.9694656 C46.6031325,74.1251908 46.1365827,73.7099237 46.1365827,73.7099237 Z" id="Path"></path>
                                    <path d="M43.6483176,27.6671756 C43.9075119,27.6671756 44.1148673,27.978626 44.1148673,28.3938931 C44.1148673,28.8091603 43.9075119,29.1206107 43.6483176,29.1206107 C43.3891233,29.1206107 43.1817679,28.8091603 43.1817679,28.3938931 C43.1817679,27.978626 43.3891233,27.6671756 43.6483176,27.6671756 Z" id="Path"></path>
                                    <path d="M42.6633793,7.99389313 C42.041313,7.94198473 41.6266022,7.52671756 41.7302799,6.95572519 C41.8339576,5.96946565 43.1817679,5.91755725 43.9075119,5.91755725 L43.9593507,5.55419847 C44.0630285,4.87938931 43.855673,4.61984733 43.3372845,4.56793893 C42.9225736,4.51603053 42.404185,4.77557252 42.404185,4.77557252 L42.404185,4.46412214 C42.404185,4.46412214 42.9225736,4.20458015 43.4409622,4.25648855 C44.218545,4.36030534 44.581417,4.67175573 44.4777393,5.60610687 L44.2703839,7.37099237 C44.218545,7.78625954 44.3222227,7.89007634 44.3740616,7.89007634 C44.4777393,7.89007634 44.6850947,7.83816794 44.6850947,7.83816794 L44.6850947,8.09770992 C44.6850947,8.09770992 44.3222227,8.20152672 44.1148673,8.14961832 C43.855673,8.09770992 43.7519953,7.99389313 43.7519953,7.57862595 L43.7519953,7.57862595 C43.7519953,7.57862595 43.4409622,8.09770992 42.6633793,7.99389313 Z M42.3005073,6.95572519 C42.2486685,7.37099237 42.5078628,7.63053435 42.8707348,7.68244275 C43.4409622,7.73435115 43.7519953,7.26717557 43.7519953,7.26717557 L43.855673,6.22900763 C43.1817679,6.17709924 42.3523462,6.28091603 42.3005073,6.95572519 Z" id="Shape"></path>
                                    <path d="M44.218545,73.5541985 C44.0630285,72.5679389 42.404185,73.2946565 42.1968296,72.048855 C42.0931519,71.4259542 42.5597016,70.9587786 43.2336068,70.9068702 C43.7519953,70.8030534 44.218545,71.0625954 44.218545,71.0625954 L44.1667062,71.3740458 C44.1667062,71.3740458 43.7519953,71.1145038 43.2854456,71.2183206 C42.8188959,71.270229 42.5597016,71.5816794 42.6115405,71.8931298 C42.767057,72.8793893 44.4777393,72.1526718 44.6850947,73.3984733 C44.7369336,73.9694656 44.4259005,74.540458 43.5446399,74.6961832 C42.6633793,74.8 42.3005073,74.3328244 42.3005073,74.3328244 L42.4560239,74.0732824 C42.4560239,74.0732824 42.8188959,74.4885496 43.4409622,74.4366412 C44.0630285,74.280916 44.2703839,73.9175573 44.218545,73.5541985 Z" id="Path"></path>
                                    <polygon id="Path" points="40.1751142 72.048855 40.1232753 71.270229 40.3824696 71.2183206 40.6416639 71.2183206 40.8490193 74.8519084 40.2787919 74.9038168"></polygon>
                                    <path d="M40.1232753,70.4396947 C40.0714365,70.3877863 40.0195976,70.2839695 40.0195976,70.2320611 C40.0195976,70.1282443 40.0195976,70.0763359 40.1232753,69.9725191 C40.1751142,69.9206107 40.226953,69.8687023 40.3306308,69.8687023 C40.4343085,69.8687023 40.4861473,69.8687023 40.5379862,69.9206107 C40.589825,69.9725191 40.6416639,70.0763359 40.6416639,70.1801527 C40.6416639,70.2839695 40.6416639,70.3358779 40.589825,70.4396947 C40.5379862,70.4916031 40.4343085,70.5435115 40.3824696,70.5435115 C40.2787919,70.4916031 40.1751142,70.4916031 40.1232753,70.4396947 Z" id="Path"></path>
                                    <path d="M38.3607542,7.78625954 L37.8423656,7.78625954 L37.7905268,4.15267176 L38.2052376,4.15267176 L38.2570765,4.51603053 C38.3089153,4.46412214 38.5681096,4.10076336 39.3456925,4.04885496 C40.0195976,4.04885496 40.4343085,4.41221374 40.4861473,5.19083969 L40.5379862,7.73435115 L40.0195976,7.73435115 L39.9159199,5.29465649 C39.9159199,4.67175573 39.6048868,4.41221374 39.138337,4.41221374 C38.5681096,4.41221374 38.2570765,4.77557252 38.2570765,4.77557252 L38.3607542,7.78625954 Z" id="Path"></path>
                                    <path d="M35.1985839,3.16641221 C35.2504228,3.11450382 35.3022616,3.06259542 35.3541005,3.06259542 C35.3541005,3.06259542 35.4059393,3.06259542 35.4059393,3.06259542 C35.5096171,3.06259542 35.5614559,3.06259542 35.6132948,3.11450382 C35.6651336,3.16641221 35.7169725,3.27022901 35.7169725,3.3221374 C35.7169725,3.4259542 35.7169725,3.4778626 35.6651336,3.58167939 C35.6132948,3.63358779 35.5614559,3.68549618 35.4577782,3.68549618 C35.4059393,3.68549618 35.3022616,3.68549618 35.2504228,3.63358779 C35.1985839,3.58167939 35.1467451,3.4778626 35.1467451,3.4259542 C35.1467451,3.3221374 35.1467451,3.21832061 35.1985839,3.16641221 Z" id="Path"></path>
                                    <polygon id="Path" points="35.8206502 8.04580153 35.3022616 4.41221374 35.6132948 4.41221374 35.8724891 4.36030534 36.3390388 7.99389313"></polygon>
                                    <path d="M35.0949062,27.6671756 C35.3541005,27.6671756 35.5614559,27.978626 35.5614559,28.3938931 C35.5614559,28.8091603 35.3541005,29.1206107 35.0949062,29.1206107 C34.8357119,29.1206107 34.6283565,28.8091603 34.6283565,28.3938931 C34.5765176,27.978626 34.7838731,27.6671756 35.0949062,27.6671756 Z" id="Path"></path>
                                    <path d="M34.1099679,74.6442748 L34.4210011,71.010687 L34.8357119,71.0625954 L34.8875508,71.4778626 C34.9393896,71.4259542 35.3022616,71.0625954 35.9761668,71.1145038 C36.3908776,71.1664122 36.5982331,71.270229 36.7019108,71.6335878 C36.8055885,71.529771 37.1684605,71.2183206 37.7905268,71.270229 C38.3089153,71.3221374 38.5681096,71.5816794 38.5681096,72.1526718 C38.5681096,72.2045802 38.5681096,72.3083969 38.5681096,72.3603053 L38.3607542,75.0076336 L37.8423656,74.9557252 L38.0497211,72.3603053 C38.1015599,71.789313 37.9460433,71.6335878 37.5831713,71.5816794 C37.1166216,71.529771 36.8055885,71.8412214 36.7537496,71.9450382 C36.7537496,72.048855 36.7537496,72.1007634 36.7537496,72.2045802 L36.5463942,74.8519084 L36.0280056,74.8 L36.2353611,72.2045802 C36.2871999,71.6335878 36.1316833,71.4778626 35.7688113,71.4259542 C35.3022616,71.3740458 34.9912285,71.6854962 34.9393896,71.7374046 L34.7320342,74.6961832 L34.1099679,74.6442748 Z" id="Path"></path>
                                    <polygon id="Path" points="32.2437691 8.77251908 31.1033142 4.15267176 33.6434182 3.58167939 33.7470959 3.89312977 31.7253805 4.36030534 32.1919302 6.22900763 33.9026125 5.81374046 33.9544513 6.12519084 32.2437691 6.54045802 32.7621576 8.66870229"></polygon>
                                    <path d="M27.8893051,73.1389313 L28.8742434,69.6091603 L29.2889542,69.7129771 L29.2371154,70.1282443 C29.2889542,70.0763359 29.7555039,69.7648855 30.3257314,69.9725191 C30.6886034,70.0763359 30.8959588,70.2839695 30.9477976,70.5954198 C31.0514754,70.5435115 31.4661862,70.2839695 32.0882525,70.4396947 C32.6584799,70.5954198 32.8658353,70.9587786 32.6584799,71.6854962 L31.9327359,74.280916 L31.4143474,74.1251908 L32.0882525,71.5816794 C32.2437691,71.010687 32.0882525,70.8549618 31.7772194,70.751145 C31.3106696,70.6473282 30.9996365,70.8549618 30.8959588,70.9068702 C30.8959588,70.9587786 30.8441199,71.0625954 30.8441199,71.1664122 L30.1183759,73.7618321 L29.5999874,73.6061069 L30.2738925,71.0625954 C30.4294091,70.4916031 30.2738925,70.3358779 29.9628594,70.2320611 C29.4963096,70.1282443 29.1334376,70.3358779 29.0815988,70.3877863 L28.3040159,73.2427481 L27.8893051,73.1389313 Z" id="Path"></path>
                                    <path d="M26.4896559,27.6671756 C26.7488502,27.6671756 27.0080445,27.978626 27.0080445,28.3938931 C27.0080445,28.7572519 26.8525279,29.0167939 26.5933336,29.1206107 C26.5414948,29.1206107 26.5414948,29.1206107 26.4896559,29.1206107 C26.2304617,29.1206107 26.0231062,28.8091603 26.0231062,28.3938931 C25.9712674,27.978626 26.2304617,27.6671756 26.4896559,27.6671756 Z" id="Path"></path>
                                    <path d="M26.2823005,7.37099237 C25.7639119,7.63053435 25.6602342,8.14961832 26.0231062,9.03206107 L27.5782719,8.25343511 C27.5782719,8.25343511 27.5264331,8.20152672 27.5264331,8.14961832 C27.2153999,7.42290076 26.8006891,7.16335878 26.2823005,7.37099237 Z M25.6602342,9.55114504 C25.1418457,8.4610687 25.3492011,7.52671756 26.1786228,7.11145038 C26.9043668,6.7480916 27.6301108,7.05954198 28.0966605,8.04580153 C28.2003382,8.25343511 28.2003382,8.35725191 28.2003382,8.35725191 L26.1786228,9.34351145 C26.6451725,10.2778626 27.1635611,10.4854962 27.7856274,10.2259542 C28.3558548,9.96641221 28.4076936,9.39541985 28.4076936,9.39541985 L28.6668879,9.44732824 C28.6668879,9.44732824 28.6150491,10.1740458 27.8374662,10.5374046 C27.0080445,10.9007634 26.2304617,10.6412214 25.6602342,9.55114504 Z" id="Shape"></path>
                                    <path d="M24.0532297,69.5053435 C24.5716182,68.4152672 25.3492011,68 26.2304617,68.4152672 C27.1635611,68.8305344 27.3709165,69.7129771 26.8525279,70.8030534 C26.3341394,71.8931298 25.5565565,72.3083969 24.6752959,71.8931298 C23.7421965,71.4778626 23.5866799,70.5954198 24.0532297,69.5053435 Z M24.5716182,69.7648855 C24.1569074,70.6992366 24.2087462,71.3221374 24.8308125,71.5816794 C25.4528788,71.8931298 25.9712674,71.529771 26.3859782,70.5435115 C26.8006891,69.6091603 26.7488502,68.9862595 26.1267839,68.6748092 C25.5047177,68.4671756 24.9863291,68.8305344 24.5716182,69.7648855 Z" id="Shape"></path>
                                    <path d="M21.8241588,10.1221374 C21.8241588,10.1221374 21.8759977,9.60305344 22.4462251,9.18778626 C23.0164525,8.82442748 23.5866799,8.87633588 24.0013908,9.55114504 L25.4010399,11.6793893 L24.9863291,11.9908397 L23.6385188,9.91450382 C23.3274857,9.39541985 22.9127748,9.34351145 22.5499028,9.60305344 C22.0315142,9.91450382 22.0315142,10.3816794 22.0315142,10.3816794 L23.6903577,12.8732824 L23.2238079,13.1847328 L20.2171542,8.66870229 L20.6318651,8.35725191 L21.8241588,10.1221374 L21.8241588,10.1221374 Z" id="Path"></path>
                                    <path d="M20.6837039,69.7648855 C19.595088,69.0381679 19.4395714,67.8961832 20.2171542,66.6503817 C21.0465759,65.3526718 22.2388697,64.989313 23.2756468,65.6641221 C23.8977131,66.0793893 24.2087462,66.7541985 24.2087462,66.7541985 L23.9495519,67.0137405 C23.9495519,67.0137405 23.6385188,66.3389313 23.1201302,65.9755725 C22.3425474,65.4564885 21.4612868,65.7679389 20.7355428,66.9099237 C20.0097988,68.0519084 20.1134765,68.9343511 20.9428982,69.4534351 C21.6686422,69.9206107 22.4462251,69.5572519 22.4462251,69.5572519 L22.4980639,69.8687023 C22.4980639,69.8687023 21.6168034,70.3358779 20.6837039,69.7648855 Z" id="Path"></path>
                                    <path d="M49.1432365,29.8992366 L49.1432365,30.9374046 L49.6097862,30.9374046 L49.6097862,31.7160305 L50.2836913,31.7160305 L49.9208193,47.8076336 C49.9208193,47.9633588 50.0763359,48.119084 50.2836913,48.119084 C50.4910467,48.119084 50.6984022,47.9633588 50.6984022,47.8076336 L50.8020799,31.7160305 L51.2686296,31.7160305 L51.0612742,47.8076336 C51.0612742,47.9633588 51.2167907,48.119084 51.4241462,48.119084 C51.6315016,48.119084 51.838857,47.9633588 51.838857,47.8076336 L51.838857,31.7160305 L52.3054067,31.7160305 L52.3054067,47.8076336 C52.3054067,47.9633588 52.4609233,48.119084 52.7201176,48.119084 C52.927473,48.119084 53.1348284,47.9633588 53.0829896,47.8076336 L52.8756342,31.7160305 L53.3421839,31.7160305 L53.4458616,47.8076336 C53.4458616,47.9633588 53.653217,48.119084 53.8605724,48.119084 C54.0679279,48.119084 54.2752833,47.9633588 54.2234444,47.8076336 L53.9124113,31.7160305 L54.5863164,31.7160305 L54.5863164,30.9374046 L55.0528662,30.9374046 L55.0528662,29.8992366 L49.1432365,29.8992366 Z M54.7936719,48.1709924 L49.4024307,48.1709924 L49.4024307,48.6381679 L49.0913976,48.6381679 L49.0913976,49.3648855 L55.0528662,49.3648855 L55.0528662,48.6381679 L54.741833,48.6381679 L54.741833,48.1709924 L54.7936719,48.1709924 Z M40.5379862,48.6381679 L40.5379862,49.3648855 L46.4994547,49.3648855 L46.4994547,48.6381679 L46.1884216,48.6381679 L46.1884216,48.1709924 L40.8490193,48.1709924 L40.8490193,48.6381679 L40.5379862,48.6381679 Z M40.589825,29.8992366 L40.589825,30.9374046 L41.0563748,30.9374046 L41.0563748,31.7160305 L41.678441,31.7160305 L41.3674079,47.8076336 C41.3674079,47.9633588 41.5229245,48.119084 41.7302799,48.119084 C41.9376353,48.119084 42.1449908,47.9633588 42.1449908,47.8076336 L42.2486685,31.7160305 L42.7152182,31.7160305 L42.5078628,47.7557252 C42.5078628,47.9114504 42.6633793,48.0671756 42.8707348,48.0671756 C43.0780902,48.0671756 43.2854456,47.9114504 43.2854456,47.7557252 L43.2854456,31.6641221 L43.7519953,31.6641221 L43.7519953,47.7557252 C43.7519953,47.9114504 43.9075119,48.0671756 44.1667062,48.0671756 C44.3740616,48.0671756 44.581417,47.9114504 44.5295782,47.7557252 L44.3222227,31.6641221 L44.7887725,31.6641221 L44.8924502,47.7557252 C44.8924502,47.9114504 45.0998056,48.0671756 45.307161,48.0671756 C45.5145165,48.0671756 45.7218719,47.9114504 45.670033,47.7557252 L45.3589999,31.6641221 L46.032905,31.6641221 L46.032905,30.8854962 L46.4994547,30.8854962 L46.4994547,29.8473282 L40.589825,29.8473282 L40.589825,29.8992366 Z M37.7386879,48.1709924 L32.3474468,48.1709924 L32.3474468,48.6381679 L32.0364136,48.6381679 L32.0364136,49.3648855 L37.9978822,49.3648855 L37.9978822,48.6381679 L37.6868491,48.6381679 L37.6868491,48.1709924 L37.7386879,48.1709924 Z M32.5548022,31.7160305 L33.1768685,31.7160305 L32.8658353,47.8076336 C32.8658353,47.9633588 33.0213519,48.119084 33.2805462,48.119084 C33.4879016,48.119084 33.6952571,47.9633588 33.6952571,47.8076336 L33.8507736,31.7160305 L34.3173233,31.7160305 L34.1099679,47.8076336 C34.1099679,47.9633588 34.2654845,48.119084 34.4728399,48.119084 C34.6801953,48.119084 34.8875508,47.9633588 34.8875508,47.8076336 L34.8875508,31.7160305 L35.3541005,31.7160305 L35.3541005,47.8076336 C35.3541005,47.9633588 35.5096171,48.119084 35.7688113,48.119084 C35.9761668,48.119084 36.1316833,47.9633588 36.1316833,47.8076336 L35.9243279,31.7160305 L36.3908776,31.7160305 L36.5463942,47.8076336 C36.5463942,47.9633588 36.7537496,48.119084 36.9611051,48.119084 C37.1684605,48.119084 37.3758159,47.9633588 37.3239771,47.8076336 L37.0129439,31.7160305 L37.6350102,31.7160305 L37.6350102,30.9374046 L38.1015599,30.9374046 L38.1015599,29.8992366 L32.0882525,29.8992366 L32.0882525,30.9374046 L32.5548022,30.9374046 L32.5548022,31.7160305 L32.5548022,31.7160305 Z M22.1870308,26.9923664 L56.4006764,26.9923664 L56.4006764,26.4732824 L22.1870308,26.4732824 L22.1870308,26.9923664 Z M23.5866799,49.4167939 L29.5481485,49.4167939 L29.5481485,48.6900763 L29.2371154,48.6900763 L29.2371154,48.2229008 L23.8458742,48.2229008 L23.8458742,48.6900763 L23.5348411,48.6900763 L23.5348411,49.4167939 L23.5866799,49.4167939 Z M22.9646137,29.3801527 L26.4896559,29.3801527 L26.5933336,29.3801527 L35.0949062,29.3801527 L43.7001565,29.3801527 L52.3054067,29.3801527 L55.6749324,29.3801527 L55.6749324,27.3038168 L52.3054067,27.3038168 L43.7001565,27.3038168 L35.0949062,27.3038168 L26.4896559,27.3038168 L22.9646137,27.3038168 L22.9646137,29.3801527 Z M23.5866799,30.9374046 L24.0532297,30.9374046 L24.0532297,31.7160305 L24.7271348,31.7160305 L24.3642628,47.7557252 C24.3642628,47.9114504 24.5197794,48.0671756 24.7271348,48.0671756 C24.9344902,48.0671756 25.1418457,47.9114504 25.1418457,47.7557252 L25.2455234,31.6641221 L25.7120731,31.6641221 L25.5047177,47.7557252 C25.5047177,47.9114504 25.6602342,48.0671756 25.8675897,48.0671756 C26.0749451,48.0671756 26.2823005,47.9114504 26.2823005,47.7557252 L26.2823005,31.6641221 L26.7488502,31.6641221 L26.7488502,47.7557252 C26.7488502,47.9114504 26.9043668,48.0671756 27.1635611,48.0671756 C27.3709165,48.0671756 27.5782719,47.9114504 27.5264331,47.7557252 L27.3190776,31.6641221 L27.7856274,31.6641221 L27.8893051,47.7557252 C27.8893051,47.9114504 28.0966605,48.0671756 28.3040159,48.0671756 C28.5113714,48.0671756 28.7187268,47.9114504 28.6668879,47.7557252 L28.3558548,31.6641221 L29.0297599,31.6641221 L29.0297599,30.8854962 L29.4963096,30.8854962 L29.4963096,29.8473282 L23.5866799,29.8473282 L23.5866799,30.9374046 Z M19.8024434,26.1618321 L58.7852639,26.1618321 L39.501209,17.129771 L19.8024434,26.1618321 Z M21.3576091,50.7145038 L57.2300981,50.7145038 L57.2300981,49.6763359 L21.3576091,49.6763359 L21.3576091,50.7145038 Z M11.5600651,38.4641221 C11.5600651,24.189313 22.2907085,12.4580153 36.1316833,10.9007634 C37.1684605,10.7969466 38.2052376,10.6931298 39.2938536,10.6931298 C54.5863164,10.6931298 67.0276421,23.0992366 67.0276421,38.4641221 C67.0276421,53.4656489 55.104705,65.7160305 40.226953,66.1832061 C39.9159199,66.1832061 39.6048868,66.1832061 39.2938536,66.1832061 C24.0013908,66.1832061 11.5600651,53.7770992 11.5600651,38.4641221 Z M19.6469268,52.3236641 L58.8889416,52.3236641 L58.8889416,50.9740458 L19.6469268,50.9740458 L19.6469268,52.3236641 Z" id="Shape"></path>
                                    <polygon id="Path" points="20.9947371 15.0534351 18.0399222 11.7312977 17.054984 12.6656489 16.8476285 12.4061069 19.232216 10.2259542 19.4914102 10.4854962 18.4546331 11.3679389 21.4094479 14.6381679"></polygon>
                                    <path d="M1.19229371,39.0351145 C1.19229371,58.189313 15.3961405,74.1251908 33.7989348,76.7725191 C35.6132948,77.0320611 37.4276548,77.1877863 39.2938536,77.1877863 C60.2885907,77.1877863 77.3954135,60.0580153 77.3954135,39.0351145 C77.3954135,18.0122137 60.2885907,0.882442748 39.2938536,0.882442748 C37.8942045,0.882442748 36.4945553,0.934351145 35.1467451,1.09007634 C16.0700457,3.21832061 1.19229371,19.4137405 1.19229371,39.0351145 Z M39.2938536,78.0183206 C17.8325668,78.0183206 0.414710856,60.5251908 0.414710856,39.0870229 C0.414710856,17.5969466 17.8844057,0.155725191 39.2938536,0.155725191 C60.7551404,0.155725191 78.1729964,17.648855 78.1729964,39.0870229 C78.1729964,60.5251908 60.7551404,78.0183206 39.2938536,78.0183206 Z" id="Shape"></path>
                                </g>
                            </g>
                            <rect id="Rectangle" x="86.8300855" y="0.207633588" width="1" height="78.7969466"></rect>
                            <g id="Group" transform="translate(94.346720, 4.671756)">
                                <polygon id="Path" points="10.88616 3.94503817 7.05008455 3.94503817 7.05008455 16.6625954 3.99159199 16.6625954 3.99159199 3.94503817 0.155516571 3.94503817 0.155516571 2.33587786 10.88616 2.33587786"></polygon>
                                <path d="M12.4931645,0.259541985 L15.3961405,0.103816794 L15.3961405,6.43664122 L15.4998182,6.43664122 C15.4998182,6.43664122 16.4329177,5.45038168 18.3509554,5.45038168 C20.6318651,5.45038168 21.7204811,6.59236641 21.7204811,9.23969466 L21.7204811,16.7145038 L18.8175051,16.7145038 L18.8175051,9.44732824 C18.8175051,7.68244275 18.4027942,7.26717557 17.3141782,7.26717557 C16.0700457,7.26717557 15.3961405,8.04580153 15.3961405,8.04580153 L15.3961405,16.6625954 L12.4931645,16.6625954 L12.4931645,0.259541985 Z" id="Path"></path>
                                <path d="M32.6584799,14.7938931 C32.6584799,14.7938931 31.6217028,16.9740458 28.7705656,16.9740458 C25.6602342,16.9740458 23.6385188,15.3648855 23.6385188,11.4198473 C23.6385188,7.52671756 25.6083954,5.50229008 28.5113714,5.50229008 C31.2588308,5.50229008 32.8139965,7.26717557 32.8139965,10.4854962 C32.8139965,11.3679389 32.6584799,11.8870229 32.6584799,11.8870229 L26.7488502,11.8870229 C26.8006891,14.5343511 27.4745942,15.5206107 29.1334376,15.5206107 C30.8441199,15.5206107 31.6735416,14.0671756 31.6735416,14.0671756 L32.6584799,14.7938931 Z M26.7488502,10.3816794 L30.1183759,10.3816794 L30.1183759,9.86259542 C30.1183759,7.63053435 29.7036651,6.8519084 28.5113714,6.8519084 C27.3709165,6.8519084 26.8525279,7.63053435 26.7488502,10.3816794 Z" id="Shape"></path>
                                <polygon id="Path" points="9.48651083 37.2183206 4.56181942 37.2183206 4.56181942 43.0839695 1.55516571 43.0839695 1.55516571 28.8091603 10.2640937 28.8091603 10.2640937 30.4183206 4.61365827 30.4183206 4.61365827 35.7129771 9.53834969 35.7129771 9.53834969 37.2183206"></polygon>
                                <path d="M13.3744251,27.0961832 C13.789136,27.0961832 14.2038468,27.2519084 14.51488,27.5114504 C14.8259131,27.8748092 14.9814297,28.2900763 14.9814297,28.7572519 C14.9814297,29.2244275 14.8259131,29.6916031 14.51488,30.0549618 C14.2038468,30.3145038 13.789136,30.470229 13.3744251,30.470229 C12.9597143,30.470229 12.5450034,30.3145038 12.2339703,30.0549618 C11.9229371,29.7435115 11.7155817,29.2763359 11.7155817,28.8091603 C11.7155817,28.3419847 11.8710983,27.9267176 12.2339703,27.5633588 C12.5450034,27.2 12.9597143,27.0961832 13.3744251,27.0961832 Z M14.8259131,43.0839695 L11.9229371,43.0839695 L11.9229371,32.0793893 L14.8259131,32.0793893 L14.8259131,43.0839695 Z" id="Shape"></path>
                                <path d="M17.4696948,32.0793893 L19.8024434,32.0793893 L20.1653154,32.9618321 L20.2689931,32.9618321 C20.2689931,32.9618321 21.0984148,31.8198473 23.3793245,31.8198473 C25.6083954,31.8198473 26.7488502,32.9618321 26.7488502,35.6091603 L26.7488502,43.0839695 L23.8458742,43.0839695 L23.8458742,36.2320611 C23.8458742,34.2076336 23.4311634,33.6885496 22.3943862,33.6885496 C21.0984148,33.6885496 20.4245097,34.4671756 20.4245097,34.4671756 L20.4245097,43.0839695 L17.5215337,43.0839695 L17.5215337,32.0793893 L17.4696948,32.0793893 Z" id="Path"></path>
                                <path d="M29.8591816,32.7541985 C29.8591816,32.7541985 31.5698639,31.8717557 33.2805462,31.8717557 C35.8724891,31.8717557 37.5313325,32.7541985 37.5313325,35.7129771 L37.5313325,40.6961832 C37.5313325,41.6305344 37.7905268,41.8381679 37.9978822,41.8381679 C38.2570765,41.8381679 38.7236262,41.6824427 38.7236262,41.6824427 L38.8273039,42.8244275 C38.8273039,42.8244275 37.3239771,43.2916031 36.3908776,43.2916031 C35.5096171,43.2916031 35.0949062,42.8763359 34.9393896,41.9419847 L34.8357119,41.9419847 C34.8357119,41.9419847 34.2136456,43.2916031 31.9327359,43.2916031 C29.9110205,43.2916031 28.5632102,42.2015267 28.5632102,40.3847328 C28.5632102,37.4778626 32.2437691,36.6992366 34.6283565,36.4916031 L34.6283565,35.8687023 C34.6283565,33.8442748 34.0581291,33.2732824 32.8139965,33.2732824 C31.7772194,33.2732824 30.2220536,34.1038168 30.2220536,34.1038168 L29.8591816,32.7541985 Z M34.6283565,37.7374046 C32.8139965,37.9450382 31.6217028,38.5160305 31.6217028,40.0732824 C31.6217028,41.2671756 32.1400914,41.8381679 32.9176742,41.8381679 C34.1099679,41.8381679 34.6283565,40.6442748 34.6283565,40.6442748 L34.6283565,37.7374046 Z" id="Shape"></path>
                                <path d="M40.589825,32.0793893 L42.9225736,32.0793893 L43.2854456,32.9618321 L43.3891233,32.9618321 C43.3891233,32.9618321 44.218545,31.8198473 46.4994547,31.8198473 C48.7285256,31.8198473 49.8689804,32.9618321 49.8689804,35.6091603 L49.8689804,43.0839695 L46.9660045,43.0839695 L46.9660045,36.2320611 C46.9660045,34.2076336 46.5512936,33.6885496 45.5145165,33.6885496 C44.218545,33.6885496 43.5446399,34.4671756 43.5446399,34.4671756 L43.5446399,43.0839695 L40.6416639,43.0839695 L40.6416639,32.0793893 L40.589825,32.0793893 Z" id="Path"></path>
                                <path d="M57.3337759,33.3251908 C55.7786101,33.3251908 54.8973496,34.0519084 54.8973496,37.6335878 C54.8973496,41.1633588 55.9341267,41.8900763 57.281937,41.8900763 C59.0444581,41.8900763 59.7702021,40.3847328 59.7702021,40.3847328 L60.8069793,41.059542 C60.8069793,41.059542 59.9775576,43.3954198 56.9709039,43.3954198 C53.6013782,43.3954198 51.7351793,41.4229008 51.7351793,37.7374046 C51.7351793,34.1557252 53.7050559,31.9236641 57.0227427,31.9236641 C58.5260696,31.9236641 60.2367519,32.8061069 60.2367519,32.8061069 L59.9257187,34.2076336 C59.9257187,34.1038168 58.370553,33.3251908 57.3337759,33.3251908 Z" id="Path"></path>
                                <path d="M63.6581164,27.0961832 C64.0728273,27.0961832 64.4875381,27.2519084 64.7985713,27.5114504 C65.1096044,27.8748092 65.265121,28.2900763 65.265121,28.7572519 C65.265121,29.2244275 65.1096044,29.6916031 64.7985713,30.0549618 C64.4875381,30.3145038 64.0728273,30.470229 63.6581164,30.470229 C63.2434056,30.470229 62.8286947,30.3145038 62.5176616,30.0549618 C62.2066284,29.7435115 61.999273,29.2763359 61.999273,28.8091603 C61.999273,28.3419847 62.1547896,27.9267176 62.5176616,27.5633588 C62.8286947,27.2 63.2434056,27.0961832 63.6581164,27.0961832 Z M65.1096044,43.0839695 L62.2066284,43.0839695 L62.2066284,32.0793893 L65.1096044,32.0793893 L65.1096044,43.0839695 Z" id="Shape"></path>
                                <path d="M68.3754524,32.7541985 C68.3754524,32.7541985 70.0861347,31.8717557 71.796817,31.8717557 C74.3887598,31.8717557 76.0476032,32.7541985 76.0476032,35.7129771 L76.0476032,40.6961832 C76.0476032,41.6305344 76.3067975,41.8381679 76.514153,41.8381679 C76.7733472,41.8381679 77.239897,41.6824427 77.239897,41.6824427 L77.3435747,42.8244275 C77.3435747,42.8244275 75.8402478,43.2916031 74.9071484,43.2916031 C74.0258878,43.2916031 73.611177,42.8763359 73.4556604,41.9419847 L73.3519827,41.9419847 C73.3519827,41.9419847 72.7299164,43.2916031 70.4490067,43.2916031 C68.4272913,43.2916031 67.079481,42.2015267 67.079481,40.3847328 C67.079481,37.4778626 70.7600398,36.6992366 73.1446273,36.4916031 L73.1446273,35.8687023 C73.1446273,33.8442748 72.5743998,33.2732824 71.3302673,33.2732824 C70.2934901,33.2732824 68.7383244,34.1038168 68.7383244,34.1038168 L68.3754524,32.7541985 Z M73.0927884,37.7374046 C71.2784284,37.9450382 70.0861347,38.5160305 70.0861347,40.0732824 C70.0861347,41.2671756 70.6045233,41.8381679 71.3821061,41.8381679 C72.5743998,41.8381679 73.0927884,40.6442748 73.0927884,40.6442748 L73.0927884,37.7374046 Z" id="Shape"></path>
                                <polygon id="Path" points="81.9572329 43.0839695 79.054257 43.0839695 79.054257 26.680916 81.9572329 26.5251908"></polygon>
                                <path d="M7.51663427,56.6320611 C5.13204684,56.6320611 3.99159199,58.0854962 3.99159199,62.3419847 C3.99159199,66.5984733 5.23572456,68.1038168 7.67215084,68.1038168 C10.0048994,68.1038168 11.3008708,66.0793893 11.3008708,66.0793893 L12.2858091,67.1175573 C12.2858091,67.1175573 10.9379988,69.7648855 7.25743998,69.7648855 C2.85113714,69.7648855 0.622066284,66.9099237 0.622066284,62.4977099 C0.622066284,57.9816794 3.00665371,55.0229008 7.15376227,55.0229008 C9.43467198,55.0229008 11.5600651,56.1648855 11.5600651,56.1648855 L11.249032,57.7740458 C11.249032,57.7221374 9.17547769,56.6320611 7.51663427,56.6320611 Z" id="Path"></path>
                                <path d="M18.2991165,69.7648855 C14.9814297,69.7648855 13.1670697,67.6885496 13.1670697,64.0030534 C13.1670697,60.3175573 14.9814297,58.2412214 18.2991165,58.2412214 C21.6168034,58.2412214 23.4311634,60.3175573 23.4311634,64.0030534 C23.4311634,67.6885496 21.4612868,69.7648855 18.2991165,69.7648855 Z M16.2774011,64.0030534 C16.2774011,67.221374 16.7957897,68.3114504 18.2472777,68.3114504 C19.6987657,68.3114504 20.2171542,67.1694656 20.2171542,64.0030534 C20.2171542,60.8366412 19.6987657,59.7465649 18.2472777,59.7465649 C16.8476285,59.7465649 16.2774011,60.8366412 16.2774011,64.0030534 Z" id="Shape"></path>
                                <path d="M25.3492011,58.5007634 L27.6819496,58.5007634 L28.0448216,59.4870229 L28.0966605,59.4870229 C28.0966605,59.4870229 29.1334376,58.2931298 30.9996365,58.2931298 C32.1919302,58.2931298 32.9695131,58.6564885 33.4360628,59.4351145 C33.5397405,59.3312977 34.6283565,58.2931298 36.5463942,58.2931298 C38.6199485,58.2931298 39.4493702,59.3312977 39.4493702,61.8229008 L39.4493702,69.5053435 L36.5463942,69.5053435 L36.5463942,62.0305344 C36.5463942,60.3694656 36.1316833,60.0580153 35.4059393,60.0580153 C34.5765176,60.0580153 34.0062902,60.6290076 33.8507736,60.8885496 C33.8507736,61.1480916 33.9026125,61.459542 33.9026125,61.7709924 L33.9026125,69.5053435 L30.9996365,69.5053435 L30.9996365,62.0305344 C30.9996365,60.3694656 30.5849256,60.0580153 29.8591816,60.0580153 C28.9779211,60.0580153 28.4076936,60.7328244 28.3040159,60.8366412 L28.3040159,69.4534351 L25.4010399,69.4534351 L25.4010399,58.5007634 L25.3492011,58.5007634 Z" id="Path"></path>
                                <path d="M42.0931519,58.5007634 L44.4259005,58.5007634 L44.7887725,59.4870229 L44.8406113,59.4870229 C44.8406113,59.4870229 45.8773885,58.2931298 47.7435873,58.2931298 C48.935881,58.2931298 49.7134639,58.6564885 50.1800136,59.4351145 C50.2836913,59.3312977 51.3723073,58.2931298 53.290345,58.2931298 C55.3638993,58.2931298 56.193321,59.3312977 56.193321,61.8229008 L56.193321,69.5053435 L53.290345,69.5053435 L53.290345,62.0305344 C53.290345,60.3694656 52.8756342,60.0580153 52.1498902,60.0580153 C51.3204684,60.0580153 50.750241,60.6290076 50.5947244,60.8885496 C50.5947244,61.1480916 50.6465633,61.459542 50.6465633,61.7709924 L50.6465633,69.5053435 L47.6917485,69.5053435 L47.6917485,62.0305344 C47.6917485,60.3694656 47.2770376,60.0580153 46.5512936,60.0580153 C45.670033,60.0580153 45.0998056,60.7328244 44.9961279,60.8366412 L44.9961279,69.4534351 L42.0931519,69.4534351 L42.0931519,58.5007634 Z" id="Path"></path>
                                <path d="M60.2885907,53.5175573 C60.7033016,53.5175573 61.1180124,53.6732824 61.4290456,53.9328244 C61.7400787,54.2961832 61.8955953,54.7114504 61.8955953,55.178626 C61.8955953,55.6458015 61.7400787,56.1129771 61.4290456,56.4763359 C61.1180124,56.7358779 60.7033016,56.8916031 60.2885907,56.8916031 C59.8738799,56.8916031 59.459169,56.7358779 59.1481359,56.4763359 C58.8371027,56.1648855 58.6297473,55.6977099 58.6297473,55.2305344 C58.6297473,54.7633588 58.7852639,54.3480916 59.1481359,53.9847328 C59.4073301,53.621374 59.822041,53.5175573 60.2885907,53.5175573 Z M61.7400787,69.5053435 L58.8371027,69.5053435 L58.8371027,58.5007634 L61.7400787,58.5007634 L61.7400787,69.5053435 Z" id="Shape"></path>
                                <path d="M64.3838604,66.9618321 C64.3838604,66.9618321 65.3687987,68.3114504 66.8202867,68.3114504 C67.9607415,68.3114504 68.530969,67.6366412 68.530969,66.8061069 C68.530969,64.5740458 64.0209884,65.3007634 64.0209884,61.719084 C64.0209884,59.4351145 65.8871873,58.2931298 67.9089027,58.2931298 C69.4640684,58.2931298 71.071073,59.0717557 71.071073,59.0717557 L70.6563621,60.5251908 C70.6563621,60.5251908 69.2048741,59.6946565 68.168097,59.6946565 C67.2349976,59.6946565 66.716609,60.1618321 66.716609,60.8885496 C66.716609,63.1206107 71.4857838,62.6015267 71.4857838,66.1312977 C71.4857838,68.2076336 70.0861347,69.7129771 67.3386753,69.7129771 C64.4356993,69.7129771 63.450761,68.0519084 63.450761,68.0519084 L64.3838604,66.9618321 Z" id="Path"></path>
                                <path d="M73.5593381,66.9618321 C73.5593381,66.9618321 74.5442764,68.3114504 75.9957644,68.3114504 C77.1362192,68.3114504 77.7064467,67.6366412 77.7064467,66.8061069 C77.7064467,64.5740458 73.1964661,65.3007634 73.1964661,61.719084 C73.1964661,59.4351145 75.062665,58.2931298 77.0843804,58.2931298 C78.6395461,58.2931298 80.2465507,59.0717557 80.2465507,59.0717557 L79.8318398,60.5251908 C79.8318398,60.5251908 78.3803518,59.6946565 77.3435747,59.6946565 C76.4104752,59.6946565 75.8920867,60.1618321 75.8920867,60.8885496 C75.8920867,63.1206107 80.6612615,62.6015267 80.6612615,66.1312977 C80.6612615,68.2076336 79.2616124,69.7129771 76.514153,69.7129771 C73.611177,69.7129771 72.6262387,68.0519084 72.6262387,68.0519084 L73.5593381,66.9618321 Z" id="Path"></path>
                                <path d="M84.1863038,53.5175573 C84.6010147,53.5175573 85.0157255,53.6732824 85.3267586,53.9328244 C85.6377918,54.2961832 85.7933084,54.7114504 85.7933084,55.178626 C85.7933084,55.6458015 85.6377918,56.1129771 85.3267586,56.4763359 C85.0157255,56.7358779 84.6010147,56.8916031 84.1863038,56.8916031 C83.7715929,56.8916031 83.3568821,56.7358779 83.0458489,56.4763359 C82.7348158,56.1648855 82.5274604,55.6977099 82.5274604,55.2305344 C82.5274604,54.7633588 82.6829769,54.3480916 83.0458489,53.9847328 C83.3050432,53.621374 83.7197541,53.5175573 84.1863038,53.5175573 Z M85.6377918,69.5053435 L82.7348158,69.5053435 L82.7348158,58.5007634 L85.6377918,58.5007634 L85.6377918,69.5053435 Z" id="Shape"></path>
                                <path d="M92.6878763,69.7648855 C89.3701895,69.7648855 87.5558295,67.6885496 87.5558295,64.0030534 C87.5558295,60.3175573 89.3701895,58.2412214 92.6878763,58.2412214 C96.0055632,58.2412214 97.8199232,60.3175573 97.8199232,64.0030534 C97.8199232,67.6885496 95.8500466,69.7648855 92.6878763,69.7648855 Z M90.7179998,64.0030534 C90.7179998,67.221374 91.2363883,68.3114504 92.6878763,68.3114504 C94.1393643,68.3114504 94.6577529,67.1694656 94.6577529,64.0030534 C94.6577529,60.8366412 94.1393643,59.7465649 92.6878763,59.7465649 C91.2363883,59.7465649 90.7179998,60.8366412 90.7179998,64.0030534 Z" id="Shape"></path>
                                <path d="M99.7897998,58.5007634 L102.122548,58.5007634 L102.48542,59.3832061 L102.589098,59.3832061 C102.589098,59.3832061 103.41852,58.2412214 105.699429,58.2412214 C107.9285,58.2412214 109.068955,59.3832061 109.068955,62.0305344 L109.068955,69.5053435 L106.165979,69.5053435 L106.165979,62.6534351 C106.165979,60.6290076 105.751268,60.1099237 104.714491,60.1099237 C103.41852,60.1099237 102.744615,60.8885496 102.744615,60.8885496 L102.744615,69.5053435 L99.8416386,69.5053435 L99.8416386,58.5007634 L99.7897998,58.5007634 Z" id="Path"></path>
                            </g>
                        </g>
                    </g>
                </g>
            </g>
        </g>
    </g>
</svg>