<svg id="Layer_1" data-name="Layer 1" xmlns="http://www.w3.org/2000/svg" viewBox="0 0 27 27"><defs><style>.cls-1{fill:#2a3152;}</style></defs><title>icons</title><path class="cls-1" d="M22.59,27H4.41A4.42,4.42,0,0,1,0,22.59V4.41A4.42,4.42,0,0,1,4.41,0H22.59A4.42,4.42,0,0,1,27,4.41V22.59A4.42,4.42,0,0,1,22.59,27ZM4.41,2.94A1.47,1.47,0,0,0,2.94,4.41V22.59a1.47,1.47,0,0,0,1.47,1.47H22.59a1.47,1.47,0,0,0,1.47-1.47V4.41a1.47,1.47,0,0,0-1.47-1.47Z"/><path class="cls-1" d="M13.78,17.64l-1.85,1.85a2.44,2.44,0,0,1-3.45,0l-.59-.59a2.44,2.44,0,0,1,0-3.45L10.35,13a2.45,2.45,0,0,1,3.45,0l.88.88a.85.85,0,1,0,1.2-1.2L15,11.79a4.14,4.14,0,0,0-5.83,0L6.69,14.25a4.09,4.09,0,0,0-1.2,2.93,4,4,0,0,0,1.2,2.91l.59.59a4.12,4.12,0,0,0,5.81,0l1.85-1.85a.84.84,0,0,0,0-1.2A.81.81,0,0,0,13.78,17.64Z"/><path class="cls-1" d="M19.74,7a4.12,4.12,0,0,0-5.81,0L12.37,8.59a.85.85,0,0,0,1.2,1.2l1.56-1.56a2.44,2.44,0,0,1,3.45,0l.59.59a2.44,2.44,0,0,1,0,3.45L17,14.42a2.44,2.44,0,0,1-3.45,0l-.88-.88a.85.85,0,0,0-1.2,1.2l.88.88a4.12,4.12,0,0,0,5.81,0l2.15-2.15a4.12,4.12,0,0,0,0-5.81Z"/></svg>