<svg id="Layer_1" data-name="Layer 1" xmlns="http://www.w3.org/2000/svg" viewBox="0 0 27 27"><defs><style>.cls-1,.cls-2{fill:#2a3152;}.cls-2{font-size:9px;font-family:Roboto-Black, Roboto;}</style></defs><title>icons</title><path class="cls-1" d="M22.59,27H4.41A4.42,4.42,0,0,1,0,22.59V4.41A4.42,4.42,0,0,1,4.41,0H22.59A4.42,4.42,0,0,1,27,4.41V22.59A4.42,4.42,0,0,1,22.59,27M4.41,2.94A1.47,1.47,0,0,0,2.94,4.41V22.59a1.47,1.47,0,0,0,1.47,1.47H22.59a1.47,1.47,0,0,0,1.47-1.47V4.41a1.47,1.47,0,0,0-1.47-1.47Z"/><text class="cls-2" transform="translate(5.12 16.46)">PDF</text></svg>