<?xml version="1.0" encoding="utf-8"?>
<!-- Generator: Adobe Illustrator 17.0.0, SVG Export Plug-In . SVG Version: 6.00 Build 0)  -->
<!DOCTYPE svg PUBLIC "-//W3C//DTD SVG 1.1//EN" "http://www.w3.org/Graphics/SVG/1.1/DTD/svg11.dtd">
<svg version="1.1" id="UI" xmlns="http://www.w3.org/2000/svg" xmlns:xlink="http://www.w3.org/1999/xlink" x="0" y="0"
	 width="43.004px" height="56.004px" viewBox="0 0 43.004 56.004" enable-background="new 0 0 43.004 56.004" xml:space="preserve">
<g>
	<path fill="#F2F2F2" d="M30.489,0H1.467C0.659,0,0.004,0.655,0.004,1.926V55c0,0.345,0.655,1,1.463,1h40.074
		c0.808,0,1.463-0.655,1.463-1V12.978c0-0.696-0.093-0.92-0.257-1.085L31.11,0.257C30.946,0.093,30.722,0,30.489,0z"/>
</g>
<polygon fill="#2A3152" points="31.004,0.151 31.004,12 42.853,12 "/>
<g>
	<path fill="#2A3152" d="M12.004,13h-6c-0.552,0-1-0.448-1-1s0.448-1,1-1h6c0.552,0,1,0.448,1,1S12.556,13,12.004,13z"/>
	<path fill="#2A3152" d="M15.004,18h-9c-0.552,0-1-0.448-1-1s0.448-1,1-1h9c0.552,0,1,0.448,1,1S15.556,18,15.004,18z"/>
	<path fill="#2A3152" d="M19.004,18c-0.26,0-0.52-0.11-0.71-0.29c-0.18-0.19-0.29-0.45-0.29-0.71c0-0.26,0.11-0.52,0.29-0.71
		c0.37-0.37,1.05-0.37,1.42,0c0.18,0.19,0.29,0.45,0.29,0.71c0,0.26-0.11,0.52-0.29,0.71C19.524,17.89,19.263,18,19.004,18z"/>
	<path fill="#2A3152" d="M31.004,18h-8c-0.552,0-1-0.448-1-1s0.448-1,1-1h8c0.552,0,1,0.448,1,1S31.556,18,31.004,18z"/>
	<path fill="#2A3152" d="M6.004,33c-0.26,0-0.52-0.11-0.71-0.29c-0.18-0.19-0.29-0.45-0.29-0.71c0-0.26,0.11-0.52,0.29-0.71
		c0.37-0.37,1.05-0.37,1.42,0c0.18,0.19,0.29,0.44,0.29,0.71c0,0.26-0.11,0.52-0.29,0.71C6.524,32.89,6.263,33,6.004,33z"/>
	<path fill="#2A3152" d="M18.004,33h-8c-0.552,0-1-0.448-1-1s0.448-1,1-1h8c0.552,0,1,0.448,1,1S18.556,33,18.004,33z"/>
	<path fill="#2A3152" d="M37.004,18h-2c-0.552,0-1-0.448-1-1s0.448-1,1-1h2c0.552,0,1,0.448,1,1S37.556,18,37.004,18z"/>
	<path fill="#2A3152" d="M28.004,23h-22c-0.552,0-1-0.448-1-1s0.448-1,1-1h22c0.552,0,1,0.448,1,1S28.556,23,28.004,23z"/>
	<path fill="#2A3152" d="M37.004,23h-6c-0.552,0-1-0.448-1-1s0.448-1,1-1h6c0.552,0,1,0.448,1,1S37.556,23,37.004,23z"/>
	<path fill="#2A3152" d="M10.004,28h-4c-0.552,0-1-0.448-1-1s0.448-1,1-1h4c0.552,0,1,0.448,1,1S10.556,28,10.004,28z"/>
	<path fill="#2A3152" d="M24.004,28h-10c-0.552,0-1-0.448-1-1s0.448-1,1-1h10c0.552,0,1,0.448,1,1S24.556,28,24.004,28z"/>
	<path fill="#2A3152" d="M37.004,28h-9c-0.552,0-1-0.448-1-1s0.448-1,1-1h9c0.552,0,1,0.448,1,1S37.556,28,37.004,28z"/>
</g>
<path fill="#E98024" d="M41.537,56.004H1.463C0.655,56.004,0,55.349,0,54.541V39.004h43v15.537
	C43,55.349,42.345,56.004,41.537,56.004z"/>
<g>
	<path fill="#2A3152" d="M42.746,11.893L31.11,0.257C30.946,0.093,30.722,0,30.489,0H1.467C0.659,0,0.004,0.655,0.004,1.926V39h2V2
		h28.021l10.979,10.979V39h2V12.978C43.004,12.282,42.911,12.058,42.746,11.893z"/>
</g>
<g>
	<path fill="#FFFFFF" d="M8.161,48.89v3.661H6.136V42.457h3.861c1.16,0,2.073,0.296,2.739,0.887
		c0.665,0.592,0.998,1.371,0.998,2.336s-0.333,1.742-0.998,2.329c-0.666,0.587-1.579,0.88-2.739,0.88H8.161z M8.161,47.33h1.837
		c0.564,0,0.992-0.154,1.283-0.461c0.291-0.308,0.437-0.699,0.437-1.175c0-0.485-0.145-0.886-0.434-1.203s-0.717-0.475-1.286-0.475
		H8.161V47.33z"/>
	<path fill="#FFFFFF" d="M18.023,52.551V42.457h3.522c1.233,0,2.25,0.394,3.05,1.182c0.8,0.788,1.199,1.799,1.199,3.033v1.671
		c0,1.239-0.399,2.25-1.199,3.033c-0.8,0.784-1.816,1.175-3.05,1.175H18.023z M20.047,44.016v6.981h1.498
		c0.665,0,1.201-0.249,1.608-0.746c0.406-0.497,0.609-1.133,0.609-1.91v-1.685c0-0.772-0.203-1.405-0.609-1.9
		c-0.407-0.494-0.943-0.742-1.608-0.742H20.047z"/>
	<path fill="#FFFFFF" d="M36.157,48.356h-3.876v4.194h-2.024V42.457h6.607v1.56h-4.583v2.78h3.876V48.356z"/>
</g>
</svg>
