<?xml version="1.0" encoding="utf-8"?>
<!-- Generator: Adobe Illustrator 17.0.0, SVG Export Plug-In . SVG Version: 6.00 Build 0)  -->
<!DOCTYPE svg PUBLIC "-//W3C//DTD SVG 1.1//EN" "http://www.w3.org/Graphics/SVG/1.1/DTD/svg11.dtd">
<svg version="1.1" id="UI" xmlns="http://www.w3.org/2000/svg" xmlns:xlink="http://www.w3.org/1999/xlink" x="0" y="0"
	 width="43px" height="56px" viewBox="0 0 43 56" enable-background="new 0 0 43 56" xml:space="preserve">
<g>
	<g>
		<g>
			<path fill="#F2F2F2" d="M30.485,0H1.463C0.655,0,0,0.655,0,1.926V55c0,0.345,0.655,1,1.463,1h40.074C42.345,56,43,55.345,43,55
				V12.978c0-0.696-0.093-0.92-0.257-1.085L31.107,0.257C30.942,0.093,30.718,0,30.485,0z"/>
		</g>
	</g>
	<polygon fill="#2A3152" points="31,0.151 31,12 42.849,12 	"/>
	<g>
		<path fill="#2A3152" d="M15,11H7c-0.553,0-1,0.448-1,1s0.447,1,1,1h8c0.553,0,1-0.448,1-1S15.553,11,15,11z"/>
		<path fill="#2A3152" d="M19.29,11.29C19.109,11.48,19,11.74,19,12c0,0.26,0.109,0.52,0.29,0.71C19.479,12.89,19.729,13,20,13
			c0.26,0,0.52-0.11,0.7-0.29C20.89,12.52,21,12.27,21,12s-0.101-0.52-0.29-0.71C20.33,10.92,19.66,10.92,19.29,11.29z"/>
		<path fill="#2A3152" d="M21,7c0-0.552-0.447-1-1-1h-3c-0.553,0-1,0.448-1,1s0.447,1,1,1h3C20.553,8,21,7.552,21,7z"/>
		<path fill="#2A3152" d="M7,8h2c0.553,0,1-0.448,1-1S9.553,6,9,6H7C6.447,6,6,6.448,6,7S6.447,8,7,8z"/>
		<path fill="#2A3152" d="M13,8c0.26,0,0.52-0.11,0.71-0.29C13.89,7.52,14,7.27,14,7c0-0.26-0.11-0.52-0.29-0.71
			c-0.37-0.37-1.05-0.37-1.42,0C12.109,6.48,12,6.73,12,7s0.109,0.52,0.29,0.71C12.479,7.89,12.74,8,13,8z"/>
	</g>
	<path fill="#2A3152" d="M30.021,2L41,12.979V54H2V2H30.021 M30.485,0H1.463C0.655,0,0,0.655,0,1.926V55c0,0.345,0.655,1,1.463,1
		h40.074C42.345,56,43,55.345,43,55V12.978c0-0.696-0.093-0.92-0.257-1.085L31.107,0.257C30.942,0.093,30.718,0,30.485,0L30.485,0z"
		/>
</g>
<g>
	<path fill="#2A3152" d="M20.517,34.46H7.538c0.474-6.952,6.027-12.505,12.979-12.979V34.46z"/>
	<g>
		<path fill="#E98024" d="M10.904,44.556c-1.92-2.223-3.153-5.054-3.365-8.168h12.181h2.727V21.481
			c7.65,0.522,13.611,7.193,12.969,15.111c-0.55,6.776-6.048,12.247-12.826,12.77c-3.631,0.28-6.993-0.831-9.619-2.853
			c-0.242-0.186-0.47-0.39-0.692-0.6l-0.735-0.695C11.32,45.004,11.103,44.788,10.904,44.556z"/>
	</g>
</g>
</svg>
