<?xml version="1.0" encoding="utf-8"?>
<!-- Generator: Adobe Illustrator 17.0.0, SVG Export Plug-In . SVG Version: 6.00 Build 0)  -->
<!DOCTYPE svg PUBLIC "-//W3C//DTD SVG 1.1//EN" "http://www.w3.org/Graphics/SVG/1.1/DTD/svg11.dtd">
<svg version="1.1" id="icons" xmlns="http://www.w3.org/2000/svg" xmlns:xlink="http://www.w3.org/1999/xlink" x="0" y="0"
	 width="64px" height="68px" viewBox="0 0 64 68" enable-background="new 0 0 64 68" xml:space="preserve">
<g>
	<path fill="#D9D9D9" d="M64,36C64,18.327,49.673,4,32,4S0,18.327,0,36l0,0c0,0,0,0,0,0c0,17.673,14.327,32,32,32S64,53.673,64,36
		C64,36,64,36,64,36L64,36z"/>
	<g>
		<circle fill="#F2F2F2" cx="32" cy="32" r="32"/>
	</g>
	<g>
		<g>
			<ellipse fill="#2A3050" cx="40.865" cy="29.466" rx="0.609" ry="0.618"/>
			<ellipse fill="#2A3050" cx="42.693" cy="31.319" rx="0.609" ry="0.618"/>
			<ellipse fill="#2A3050" cx="22.58" cy="29.466" rx="0.609" ry="0.618"/>
			<ellipse fill="#2A3050" cx="39.036" cy="31.319" rx="0.609" ry="0.618"/>
			<ellipse fill="#2A3050" cx="20.751" cy="31.319" rx="0.609" ry="0.618"/>
			<ellipse fill="#2A3050" cx="24.408" cy="31.319" rx="0.609" ry="0.618"/>
			<ellipse fill="#2A3050" cx="22.58" cy="33.173" rx="0.609" ry="0.618"/>
			<ellipse fill="#2A3050" cx="26.237" cy="33.173" rx="0.609" ry="0.618"/>
			<ellipse fill="#2A3050" cx="26.237" cy="36.879" rx="0.609" ry="0.618"/>
			<ellipse fill="#2A3050" cx="24.408" cy="35.026" rx="0.609" ry="0.618"/>
			<ellipse fill="#2A3050" cx="28.065" cy="35.026" rx="0.609" ry="0.618"/>
			<ellipse fill="#2A3050" cx="29.894" cy="36.879" rx="0.609" ry="0.618"/>
			<ellipse fill="#2A3050" cx="33.551" cy="36.879" rx="0.609" ry="0.618"/>
			<ellipse fill="#2A3050" cx="31.722" cy="35.026" rx="0.609" ry="0.618"/>
			<ellipse fill="#2A3050" cx="35.379" cy="35.026" rx="0.609" ry="0.618"/>
			<ellipse fill="#2A3050" cx="31.722" cy="38.733" rx="0.609" ry="0.618"/>
			<ellipse fill="#2A3050" cx="37.208" cy="33.173" rx="0.609" ry="0.618"/>
			<ellipse fill="#2A3050" cx="40.865" cy="33.173" rx="0.609" ry="0.618"/>
			<ellipse fill="#2A3050" cx="37.208" cy="36.879" rx="0.609" ry="0.618"/>
			<ellipse fill="#2A3050" cx="39.036" cy="35.026" rx="0.609" ry="0.618"/>
			<ellipse fill="#2A3050" cx="44.521" cy="33.173" rx="0.609" ry="0.618"/>
		</g>
		<g>
			<polygon fill="#EB7D37" points="47.515,25.423 32,34.408 16.485,25.423 32,16.492 			"/>
		</g>
		<path fill="#2A3050" d="M32,34.901c-0.083,0-0.166-0.022-0.24-0.065l-15.515-8.985C16.093,25.763,16,25.599,16,25.422
			c0-0.177,0.094-0.34,0.246-0.428l15.515-8.931c0.148-0.085,0.33-0.085,0.478,0l15.515,8.931C47.906,25.082,48,25.245,48,25.422
			c0,0.177-0.093,0.341-0.245,0.428L32.24,34.836C32.166,34.879,32.083,34.901,32,34.901z M17.466,25.424L32,33.841l14.534-8.417
			L32,17.058L17.466,25.424z"/>
		<path fill="#2A3050" d="M32,41.696c-0.083,0-0.166-0.022-0.24-0.065l-15.515-8.985C16.093,32.559,16,32.395,16,32.218
			c0-0.177,0.094-0.34,0.246-0.428l5.885-3.387c0.148-0.085,0.33-0.085,0.479,0.001L32,33.842l9.39-5.438
			c0.149-0.086,0.331-0.086,0.479-0.001l5.885,3.387C47.906,31.878,48,32.041,48,32.218c0,0.177-0.093,0.341-0.245,0.428
			L32.24,41.632C32.166,41.675,32.083,41.696,32,41.696z M17.466,32.22L32,40.637l14.534-8.417l-4.903-2.822l-9.391,5.438
			c-0.149,0.086-0.331,0.086-0.481,0l-9.39-5.438L17.466,32.22z"/>
		<path fill="#2A3050" d="M32.24,41.632c-0.075,0.043-0.157,0.065-0.24,0.065s-0.166-0.022-0.24-0.065l-9.881-5.722l-5.394,3.105
			L32,48l15.515-8.986l-5.394-3.105L32.24,41.632z"/>
	</g>
	<path fill="#B7B7B7" d="M32,1c17.094,0,31,13.907,31,31S49.094,63,32,63S1,49.093,1,32S14.906,1,32,1 M32,0C14.327,0,0,14.327,0,32
		c0,17.673,14.327,32,32,32s32-14.327,32-32C64,14.327,49.673,0,32,0L32,0z"/>
</g>
</svg>
