<svg xmlns="http://www.w3.org/2000/svg" width="246.813" height="159.662" viewBox="0 0 246.813 159.662"><g fill="#1868B1"><path d="M7.576 112.987L1.569 92.509h3.674l4.253 15.156 4.114-15.156h3.604l-6.022 20.479H7.576zM32.356 112.987h-3.675l-1.471-4.638h-6.722l-1.388 4.638h-3.604l6.539-20.479h3.591l6.73 20.479zm-6.237-8.102l-2.318-7.599-2.275 7.599h4.593zM34.172 112.987V92.509h3.297l6.873 13.676V92.509h3.157v20.479H44.09l-6.761-13.354v13.354h-3.157zM51.033 92.509h3.38V103.6c0 1.723.042 2.845.126 3.367.149.903.506 1.602 1.071 2.095.565.494 1.309.74 2.233.74.784 0 1.423-.174 1.918-.524.494-.349.833-.833 1.015-1.453.182-.619.273-1.949.273-3.988V92.509h3.381v10.756c0 2.748-.147 4.733-.44 5.958-.293 1.225-.955 2.216-1.983 2.976-1.029.759-2.387 1.138-4.072 1.138-1.751 0-3.118-.314-4.1-.943-.982-.628-1.695-1.513-2.137-2.654-.442-1.141-.664-3.243-.664-6.307V92.509zM83.147 112.987h-3.675l-1.471-4.638h-6.723l-1.388 4.638h-3.604l6.539-20.479h3.591l6.731 20.479zm-6.237-8.102l-2.318-7.599-2.275 7.599h4.593zM86.989 112.987V95.973h-4.987v-3.464h13.341v3.464h-4.974v17.014h-3.38zM97.509 92.509h3.38V103.6c0 1.723.042 2.845.126 3.367.149.903.506 1.602 1.071 2.095.564.494 1.309.74 2.232.74.784 0 1.423-.174 1.918-.524.494-.349.833-.833 1.015-1.453.182-.619.273-1.949.273-3.988V92.509h3.38v10.756c0 2.748-.146 4.733-.439 5.958-.294 1.225-.955 2.216-1.983 2.976-1.029.759-2.387 1.138-4.072 1.138-1.751 0-3.117-.314-4.1-.943-.983-.628-1.695-1.513-2.138-2.654-.442-1.141-.663-3.243-.663-6.307V92.509zM121.018 112.987V92.509h11.51v3.464h-8.13v4.847h7.041v3.464h-7.041v8.703h-3.38zM135.224 112.987V92.509h3.381v20.479h-3.381zM141.888 112.987V92.509h3.297l6.873 13.676V92.509h3.156v20.479h-3.408l-6.761-13.354v13.354h-3.157zM173.932 112.987h-3.675l-1.471-4.638h-6.723l-1.388 4.638h-3.604l6.539-20.479h3.591l6.731 20.479zm-6.237-8.102l-2.318-7.599-2.275 7.599h4.593zM175.748 112.987V92.509h3.297l6.873 13.676V92.509h3.156v20.479h-3.408l-6.761-13.354v13.354h-3.157zM203.392 105.458l3.283 1.271c-.513 2.291-1.364 3.965-2.557 5.022-1.192 1.057-2.659 1.585-4.4 1.585-2.188 0-3.962-.843-5.322-2.528-1.564-1.946-2.347-4.572-2.347-7.878 0-3.492.788-6.226 2.363-8.2 1.37-1.713 3.211-2.57 5.523-2.57 1.883 0 3.458.643 4.726 1.928.904.913 1.566 2.268 1.985 4.065l-3.353.978c-.215-1.108-.642-1.958-1.28-2.549a3.22 3.22 0 0 0-2.26-.887c-1.241 0-2.254.54-3.037 1.62-.783 1.081-1.176 2.864-1.176 5.35 0 2.58.382 4.415 1.146 5.504.764 1.09 1.756 1.634 2.976 1.634.895 0 1.667-.347 2.319-1.041.653-.694 1.123-1.795 1.411-3.304zM209.47 112.987V92.509h3.381v20.479h-3.381zM231.247 112.987h-3.675l-1.471-4.638h-6.723l-1.388 4.638h-3.604l6.539-20.479h3.591l6.731 20.479zm-6.237-8.102l-2.318-7.599-2.275 7.599h4.593zM233.119 112.987V92.676h3.381v16.847h8.438v3.464h-11.819z"/></g><g fill="#F37225"><path d="M24.924 129.056l2.355-.278c.265 1.862 1.133 2.793 2.604 2.793.729 0 1.302-.19 1.72-.571.417-.381.626-.853.626-1.416 0-.332-.073-.613-.219-.845-.146-.231-.368-.422-.666-.571-.298-.149-1.021-.398-2.167-.749-1.027-.311-1.779-.648-2.256-1.013a3.842 3.842 0 0 1-1.138-1.435 4.387 4.387 0 0 1-.422-1.912c0-.794.181-1.509.542-2.145a3.531 3.531 0 0 1 1.496-1.44c.636-.325 1.421-.487 2.355-.487 1.405 0 2.501.381 3.29 1.143.789.762 1.206 1.852 1.252 3.27l-2.416.129c-.106-.782-.334-1.328-.686-1.64s-.852-.467-1.501-.467-1.149.135-1.5.406c-.352.271-.527.608-.527 1.011 0 .396.159.73.478 1.001.319.271 1.051.568 2.197.893 1.212.352 2.088.721 2.628 1.109.54.387.952.888 1.237 1.5s.427 1.356.427 2.23c0 1.266-.389 2.329-1.168 3.19s-1.996 1.292-3.652 1.292c-2.928.001-4.558-1.665-4.889-4.998zM36.672 133.807v-14.571h8.866v2.465h-6.46v3.23h6.003v2.455h-6.003v3.956h6.679v2.465h-9.085zM47.804 133.807v-14.571h5.079c1.299 0 2.227.131 2.783.393s1.014.716 1.372 1.362.537 1.419.537 2.321c0 1.14-.273 2.057-.82 2.753-.547.696-1.324 1.133-2.331 1.312.517.371.944.777 1.282 1.218.338.44.798 1.23 1.382 2.37l1.451 2.843H55.66l-1.746-3.17c-.628-1.146-1.055-1.864-1.28-2.152-.225-.289-.464-.487-.715-.597-.252-.109-.656-.164-1.212-.164h-.497v6.083h-2.406zm2.405-8.409h1.789c1.093 0 1.789-.048 2.087-.144.298-.096.54-.29.726-.582.186-.292.278-.679.278-1.163 0-.464-.093-.836-.278-1.118s-.437-.476-.755-.582c-.225-.073-.878-.109-1.958-.109H50.21v3.698zM62.615 133.807l-4.275-14.571h2.614l3.026 10.784 2.927-10.784h2.564l-4.285 14.571h-2.571zM70.615 133.807v-14.571h2.406v14.571h-2.406zM82.979 128.449l2.335.905c-.364 1.63-.971 2.821-1.818 3.573-.849.752-1.893 1.128-3.131 1.128-1.558 0-2.819-.6-3.787-1.799-1.113-1.385-1.67-3.253-1.67-5.606 0-2.485.561-4.429 1.682-5.834.975-1.219 2.285-1.829 3.93-1.829 1.34 0 2.461.457 3.362 1.372.644.649 1.114 1.614 1.413 2.893l-2.386.695c-.152-.788-.456-1.393-.911-1.813a2.285 2.285 0 0 0-1.607-.631c-.884 0-1.604.384-2.161 1.153-.558.769-.836 2.038-.836 3.807 0 1.835.271 3.141.814 3.916.543.775 1.249 1.163 2.117 1.163.636 0 1.187-.247 1.65-.741.463-.494.798-1.278 1.004-2.352zM87.383 133.807v-14.571h8.865v2.465h-6.46v3.23h6.003v2.455h-6.003v3.956h6.679v2.465h-9.084zM97.898 129.056l2.355-.278c.265 1.862 1.133 2.793 2.604 2.793.729 0 1.302-.19 1.719-.571.418-.381.626-.853.626-1.416 0-.332-.072-.613-.218-.845-.146-.231-.368-.422-.666-.571-.299-.149-1.021-.398-2.167-.749-1.027-.311-1.779-.648-2.256-1.013a3.845 3.845 0 0 1-1.139-1.435 4.401 4.401 0 0 1-.422-1.912c0-.794.18-1.509.541-2.145s.86-1.116 1.496-1.44c.636-.325 1.422-.487 2.355-.487 1.405 0 2.501.381 3.29 1.143.788.762 1.206 1.852 1.252 3.27l-2.415.129c-.105-.782-.334-1.328-.686-1.64s-.852-.467-1.501-.467-1.149.135-1.501.406c-.351.271-.526.608-.526 1.011 0 .396.159.73.479 1.001.318.271 1.051.568 2.197.893 1.212.352 2.088.721 2.628 1.109.539.387.951.888 1.236 1.5s.427 1.356.427 2.23c0 1.266-.389 2.329-1.167 3.19-.779.861-1.997 1.292-3.653 1.292-2.927.001-4.557-1.665-4.888-4.998zM121.931 128.449l2.335.905c-.364 1.63-.971 2.821-1.818 3.573-.849.752-1.893 1.128-3.131 1.128-1.558 0-2.819-.6-3.787-1.799-1.113-1.385-1.67-3.253-1.67-5.606 0-2.485.561-4.429 1.682-5.834.975-1.219 2.285-1.829 3.93-1.829 1.34 0 2.461.457 3.362 1.372.644.649 1.114 1.614 1.413 2.893l-2.386.695c-.152-.788-.456-1.393-.911-1.813a2.285 2.285 0 0 0-1.607-.631c-.884 0-1.604.384-2.161 1.153-.558.769-.836 2.038-.836 3.807 0 1.835.271 3.141.814 3.916.543.775 1.249 1.163 2.117 1.163.636 0 1.187-.247 1.65-.741.463-.494.798-1.278 1.004-2.352zM125.837 126.611c0-1.736.257-3.166.771-4.289.513-1.123 1.184-1.959 2.013-2.509.828-.55 1.832-.825 3.012-.825 1.709 0 3.103.653 4.179 1.958 1.077 1.306 1.615 3.164 1.615 5.576 0 2.439-.569 4.344-1.709 5.715-1.001 1.212-2.359 1.819-4.075 1.819-1.729 0-3.095-.6-4.095-1.799-1.142-1.372-1.711-3.254-1.711-5.646zm2.484-.1c0 1.677.319 2.934.956 3.772s1.427 1.257 2.369 1.257c.948 0 1.735-.416 2.359-1.248.623-.831.936-2.108.936-3.832 0-1.689-.304-2.938-.911-3.747-.607-.808-1.401-1.212-2.384-1.212s-1.782.408-2.399 1.223-.926 2.078-.926 3.787zM139.284 133.807v-14.571h3.607l2.172 9.949 2.155-9.949h3.625v14.571h-2.246v-11.48l-2.382 11.48h-2.321l-2.364-11.48v11.48h-2.246zM153.189 133.807v-14.571h3.607l2.172 9.949 2.155-9.949h3.625v14.571h-2.246v-11.48l-2.382 11.48h-2.32l-2.364-11.48v11.48h-2.247zM167.055 133.807v-14.571h2.405v14.571h-2.405zM171.16 129.056l2.355-.278c.265 1.862 1.133 2.793 2.604 2.793.729 0 1.302-.19 1.719-.571.418-.381.626-.853.626-1.416 0-.332-.072-.613-.218-.845-.146-.231-.368-.422-.666-.571-.299-.149-1.021-.398-2.167-.749-1.027-.311-1.779-.648-2.256-1.013a3.845 3.845 0 0 1-1.139-1.435 4.401 4.401 0 0 1-.422-1.912c0-.794.18-1.509.541-2.145s.86-1.116 1.496-1.44c.636-.325 1.422-.487 2.355-.487 1.405 0 2.501.381 3.29 1.143.788.762 1.206 1.852 1.252 3.27l-2.415.129c-.105-.782-.334-1.328-.686-1.64s-.852-.467-1.501-.467-1.149.135-1.501.406c-.351.271-.526.608-.526 1.011 0 .396.159.73.479 1.001.318.271 1.051.568 2.197.893 1.212.352 2.088.721 2.628 1.109.539.387.951.888 1.236 1.5s.427 1.356.427 2.23c0 1.266-.389 2.329-1.167 3.19-.779.861-1.997 1.292-3.653 1.292-2.927.001-4.557-1.665-4.888-4.998zM182.292 129.056l2.355-.278c.265 1.862 1.133 2.793 2.604 2.793.729 0 1.302-.19 1.719-.571.418-.381.626-.853.626-1.416 0-.332-.072-.613-.218-.845-.146-.231-.368-.422-.666-.571-.299-.149-1.021-.398-2.167-.749-1.027-.311-1.779-.648-2.256-1.013a3.845 3.845 0 0 1-1.139-1.435 4.401 4.401 0 0 1-.422-1.912c0-.794.18-1.509.541-2.145s.86-1.116 1.496-1.44c.636-.325 1.422-.487 2.355-.487 1.405 0 2.501.381 3.29 1.143.788.762 1.206 1.852 1.252 3.27l-2.415.129c-.105-.782-.334-1.328-.686-1.64s-.852-.467-1.501-.467-1.149.135-1.501.406c-.351.271-.526.608-.526 1.011 0 .396.159.73.479 1.001.318.271 1.051.568 2.197.893 1.212.352 2.088.721 2.628 1.109.539.387.951.888 1.236 1.5s.427 1.356.427 2.23c0 1.266-.389 2.329-1.167 3.19-.779.861-1.997 1.292-3.653 1.292-2.927.001-4.557-1.665-4.888-4.998zM193.96 133.807v-14.571h2.405v14.571h-2.405zM198.184 126.611c0-1.736.257-3.166.771-4.289.513-1.123 1.184-1.959 2.013-2.509.828-.55 1.832-.825 3.012-.825 1.709 0 3.103.653 4.179 1.958 1.077 1.306 1.615 3.164 1.615 5.576 0 2.439-.569 4.344-1.709 5.715-1.001 1.212-2.359 1.819-4.075 1.819-1.729 0-3.095-.6-4.095-1.799-1.141-1.372-1.711-3.254-1.711-5.646zm2.485-.1c0 1.677.319 2.934.956 3.772s1.427 1.257 2.369 1.257c.948 0 1.735-.416 2.359-1.248.623-.831.936-2.108.936-3.832 0-1.689-.304-2.938-.911-3.747-.607-.808-1.401-1.212-2.384-1.212s-1.782.408-2.399 1.223-.926 2.078-.926 3.787zM211.691 133.807v-14.571h2.346l4.891 9.73v-9.73h2.246v14.571h-2.426l-4.811-9.502v9.502h-2.246z"/></g><g fill="#1968B2"><path d="M14.377 146.028h6.038c1.524 0 2.683.288 3.474.862.792.575 1.188 1.418 1.188 2.529 0 .911-.288 1.652-.863 2.224-.575.572-1.424.961-2.548 1.168.491.116.906.273 1.245.47.339.197.619.451.838.761.277.401.555 1.06.833 1.977.135.433.242.752.319.959.2.523.467.887.8 1.09.333.204.848.305 1.545.305h.252v.95c-.368.052-.719.09-1.051.116a12.06 12.06 0 0 1-.935.039c-.407 0-.79-.053-1.148-.16a2.8 2.8 0 0 1-.916-.45c-.601-.465-1.072-1.231-1.415-2.297l-.106-.349c-.375-1.13-.779-1.868-1.211-2.214-.433-.346-1.076-.519-1.929-.519h-.339v4.467l.32.31 1.211.106v.969h-5.601v-.969l1.173-.106.32-.31v-10.582l-.32-.281-1.173-.097v-.968zm4.071 1.133l.01 5.175a8.705 8.705 0 0 0 .707.02c1.073 0 1.864-.216 2.375-.649.51-.433.766-1.102.766-2.006 0-.827-.252-1.457-.756-1.89s-1.231-.649-2.181-.649h-.921zM27.654 159.342v-.969l1.211-.106.32-.31v-10.582l-.32-.281-1.211-.097v-.969h10.01v3.111h-1.376l-.339-1.745-.213-.261h-3.973v4.729h2.587l.271-.281.204-1.424h1.173v4.603h-1.173l-.204-1.435-.271-.271h-2.587v5.155h4.632l.233-.32.32-2.103h1.366v3.557h-10.66zM39.486 159.342v-.969l1.172-.106.359-.31v-10.582l-.301-.281-1.308-.097v-.969h5.359c1.893 0 3.269.32 4.128.959.859.64 1.289 1.654 1.289 3.043 0 1.396-.455 2.479-1.366 3.251s-2.187 1.158-3.828 1.158a13.3 13.3 0 0 1-.572-.015c-.227-.01-.488-.024-.785-.043v3.576l.3.31 1.415.106v.969h-5.862zm4.147-6.095c.013 0 .036.003.068.01.297.019.514.029.649.029 1.027 0 1.801-.265 2.321-.794s.78-1.321.78-2.375c0-.95-.239-1.676-.717-2.18s-1.166-.756-2.064-.756h-1.037v6.066zM50.611 146.028h5.698v.969l-1.23.097-.281.281v6.948c0 1.324.252 2.271.756 2.839.504.568 1.331.853 2.481.853 1.06 0 1.827-.302 2.301-.906.475-.604.712-1.594.712-2.97v-6.687l-.3-.339-1.27-.116v-.969h4.506v.969l-1.211.116-.271.339v6.89c0 1.841-.414 3.175-1.24 4.002-.827.827-2.161 1.24-4.002 1.24-.962 0-1.807-.141-2.534-.421-.727-.281-1.297-.683-1.71-1.207a3.815 3.815 0 0 1-.674-1.42c-.132-.533-.199-1.297-.199-2.292v-6.871l-.281-.281-1.25-.097v-.967zM64.778 146.028h5.959c1.46 0 2.559.26 3.295.78s1.104 1.297 1.104 2.331c0 .782-.238 1.436-.717 1.962s-1.183.913-2.112 1.158c1.137.02 2.021.31 2.655.873.633.562.949 1.337.949 2.326 0 1.253-.43 2.214-1.289 2.883s-2.096 1.003-3.711 1.003h-6.134v-.959l1.172-.106.32-.311v-10.591l-.32-.281-1.172-.097v-.971zm4.08 5.911c.052.007.116.012.194.015.078.003.19.005.339.005 1.034 0 1.794-.208 2.283-.625.487-.417.731-1.067.731-1.953 0-.775-.227-1.35-.679-1.725-.453-.375-1.147-.562-2.083-.562-.155 0-.401.013-.737.039h-.058l.01 4.806zm-.01 6.279l.068.01c.401.019.698.029.892.029 1.164 0 2.01-.212 2.539-.636.53-.424.795-1.105.795-2.044 0-.848-.249-1.48-.746-1.898s-1.245-.626-2.239-.626a18.89 18.89 0 0 0-1.309.039v5.126zM77.202 159.342v-.969l1.211-.106.339-.31v-10.582l-.28-.281-1.27-.097v-.969h5.717v.969l-1.211.097-.319.281v10.814h3.817l.252-.32.301-2.413h1.473v3.886h-10.03zM88.036 159.342v-.969l1.318-.106.329-.31v-10.582l-.329-.281-1.318-.097v-.969h5.94v.969l-1.327.097-.32.281v10.582l.32.31 1.327.106v.969h-5.94zM106.399 158.868a12.127 12.127 0 0 1-4.167.717 8.32 8.32 0 0 1-1.986-.228 5.897 5.897 0 0 1-1.667-.674 6.513 6.513 0 0 1-2.422-2.505c-.582-1.056-.872-2.217-.872-3.484 0-1.014.176-1.954.527-2.82a6.433 6.433 0 0 1 1.536-2.258 6.173 6.173 0 0 1 2.195-1.371c.836-.307 1.771-.46 2.806-.46.665 0 1.335.062 2.011.184.675.123 1.354.307 2.039.552v3.314h-1.453l-.397-2.123-.271-.339a5.61 5.61 0 0 0-.799-.223 4.03 4.03 0 0 0-.771-.077c-1.383 0-2.479.502-3.29 1.507-.812 1.004-1.217 2.369-1.217 4.094 0 1.77.424 3.156 1.27 4.157.847 1.001 2.013 1.502 3.499 1.502.161 0 .344-.016.547-.048.204-.032.422-.078.654-.136l.301-.3.475-2.394h1.453v3.413zM113.726 152.617c0-1.085.171-2.061.513-2.927a6.038 6.038 0 0 1 1.531-2.238 6.375 6.375 0 0 1 2.099-1.294c.771-.288 1.619-.431 2.544-.431.853 0 1.643.129 2.369.388s1.394.646 2.001 1.163a6.575 6.575 0 0 1 1.749 2.384c.403.93.605 1.954.605 3.072 0 1.053-.179 2.019-.538 2.897a6.345 6.345 0 0 1-1.584 2.287 6.361 6.361 0 0 1-2.055 1.293 6.58 6.58 0 0 1-2.413.451c-2.048 0-3.696-.646-4.946-1.938s-1.875-2.994-1.875-5.107zm6.725-5.62c-1.137 0-2.05.512-2.737 1.536-.688 1.024-1.032 2.398-1.032 4.124 0 1.751.344 3.154 1.032 4.21.688 1.057 1.588 1.584 2.699 1.584 1.124 0 2.029-.515 2.718-1.545.688-1.031 1.032-2.402 1.032-4.114 0-1.77-.338-3.179-1.013-4.225-.676-1.047-1.575-1.57-2.699-1.57zM128.427 159.342v-.969l1.192-.106.319-.31v-10.582l-.319-.281-1.27-.097v-.969h9.962v3.333h-1.366l-.301-1.928-.252-.252h-3.837v4.942h2.664l.281-.261.194-1.454h1.172v4.632h-1.172l-.194-1.454-.281-.262h-2.664v4.632l.339.31 1.396.106v.969h-5.863zM144.144 146.028h5.456v.969l-1.153.097-.213.3 3.295 9.051 3.197-9.051-.223-.3-1.191-.097v-.969h4.351v.969l-1.289.262-4.409 12.084h-2.006l-4.506-12.104-1.309-.242v-.969zM161.074 145.882h2.083l4.564 12.288 1.173.203v.969h-5.359v-.969l1.25-.126.146-.252-1.191-3.372h-4.332l-1.192 3.353.204.252 1.25.145v.969h-4.273v-.969l1.191-.184 4.486-12.307zm.436 2.723l-1.725 4.904h3.498l-1.773-4.904zM169.05 159.342v-.95l1.173-.165.358-.359v-10.495l-.281-.281-1.25-.097v-.969h4.545v.533l6.076 9.429v-8.499l-.358-.378-1.212-.116v-.969h4.525v.969l-1.172.116-.34.378v11.852h-2.219l-6.871-10.66v9.187l.32.359 1.23.165v.95h-4.524zM183.362 146.028h5.698v.969l-1.231.097-.28.281v6.948c0 1.324.252 2.271.756 2.839.504.568 1.33.853 2.48.853 1.06 0 1.827-.302 2.302-.906.475-.604.712-1.594.712-2.97v-6.687l-.301-.339-1.269-.116v-.969h4.506v.969l-1.212.116-.271.339v6.89c0 1.841-.414 3.175-1.241 4.002-.826.827-2.16 1.24-4.002 1.24-.963 0-1.808-.141-2.534-.421-.727-.281-1.297-.683-1.71-1.207a3.846 3.846 0 0 1-.674-1.42c-.133-.533-.198-1.297-.198-2.292v-6.871l-.281-.281-1.25-.097v-.967zM201.804 145.882h2.083l4.564 12.288 1.173.203v.969h-5.359v-.969l1.25-.126.146-.252-1.191-3.372h-4.332l-1.192 3.353.204.252 1.25.145v.969h-4.273v-.969l1.191-.184 4.486-12.307zm.435 2.723l-1.725 4.904h3.498l-1.773-4.904zM207.404 146.028h11.445v3.508h-1.366l-.34-2.123-.29-.252h-2.385v10.795l.34.31 1.289.106v.969h-5.94v-.969l1.298-.106.33-.31v-10.795h-2.374l-.301.252-.339 2.123h-1.367v-3.508zM219.45 146.028h5.698v.969l-1.231.097-.28.281v6.948c0 1.324.252 2.271.756 2.839.504.568 1.33.853 2.48.853 1.06 0 1.827-.302 2.302-.906.475-.604.712-1.594.712-2.97v-6.687l-.301-.339-1.269-.116v-.969h4.506v.969l-1.212.116-.271.339v6.89c0 1.841-.414 3.175-1.241 4.002-.826.827-2.16 1.24-4.002 1.24-.963 0-1.808-.141-2.534-.421-.727-.281-1.297-.683-1.71-1.207a3.846 3.846 0 0 1-.674-1.42c-.133-.533-.198-1.297-.198-2.292v-6.871l-.281-.281-1.25-.097v-.967z"/></g><g fill="#1868B1"><path d="M0 123.688h21.833v5.667H0zM224.98 123.688h21.833v5.667H224.98z"/></g><g><ellipse fill="#C6C4A0" cx="123.327" cy="83.699" rx="16.333" ry="2.756"/><path fill="#F37224" d="M132.799 17.954l-5.305 12h-14v5h12.5l-2.667 12.333h-5l5 15.5 16.275-44.833h18.335C150.674 7.128 138.324 0 124.307 0S97.94 7.128 90.677 17.954h42.122z"/><path fill="#1868B1" d="M159.599 20.668l-25.233 59.013c17.485-4.472 30.412-20.331 30.412-39.21a40.274 40.274 0 0 0-5.179-19.803zM88.937 20.795a40.183 40.183 0 0 0-4.285 11.548L57.731 66.454l26.354-21.52c.228 2.074.613 4.1 1.142 6.068L69.16 71.788l17.99-15.265a40.366 40.366 0 0 0 4.301 7.567L78.993 80.943l15.802-12.792a40.614 40.614 0 0 0 3.312 3.155l-5.114 13.482 9.623-10.156a40.414 40.414 0 0 0 8.137 3.959L88.937 20.795z"/></g></svg>