<?xml version="1.0" encoding="utf-8"?>
<!-- Generator: Adobe Illustrator 17.0.0, SVG Export Plug-In . SVG Version: 6.00 Build 0)  -->
<!DOCTYPE svg PUBLIC "-//W3C//DTD SVG 1.1//EN" "http://www.w3.org/Graphics/SVG/1.1/DTD/svg11.dtd">
<svg version="1.1" id="logo" xmlns="http://www.w3.org/2000/svg" xmlns:xlink="http://www.w3.org/1999/xlink" x="0" y="0"
	 width="246.813px" height="159.662px" viewBox="0 0 246.813 159.662" enable-background="new 0 0 246.813 159.662"
	 xml:space="preserve">
<g>
	<g>
		<g>
			<path fill="#1868B1" d="M7.576,112.987L1.569,92.509h3.674l4.253,15.156l4.114-15.156h3.604l-6.022,20.479H7.576z"/>
			<path fill="#1868B1" d="M32.356,112.987h-3.675l-1.471-4.638h-6.722l-1.388,4.638h-3.604l6.539-20.479h3.591L32.356,112.987z
				 M26.119,104.885l-2.318-7.599l-2.275,7.599H26.119z"/>
			<path fill="#1868B1" d="M34.172,112.987V92.509h3.297l6.873,13.676V92.509h3.157v20.479H44.09l-6.761-13.354v13.354H34.172z"/>
			<path fill="#1868B1" d="M51.033,92.509h3.38V103.6c0,1.723,0.042,2.845,0.126,3.367c0.149,0.903,0.506,1.602,1.071,2.095
				c0.565,0.494,1.309,0.74,2.233,0.74c0.784,0,1.423-0.174,1.918-0.524c0.494-0.349,0.833-0.833,1.015-1.453
				c0.182-0.619,0.273-1.949,0.273-3.988V92.509h3.381v10.756c0,2.748-0.147,4.733-0.44,5.958c-0.293,1.225-0.955,2.216-1.983,2.976
				c-1.029,0.759-2.387,1.138-4.072,1.138c-1.751,0-3.118-0.314-4.1-0.943c-0.982-0.628-1.695-1.513-2.137-2.654
				c-0.442-1.141-0.664-3.243-0.664-6.307V92.509z"/>
			<path fill="#1868B1" d="M83.147,112.987h-3.675l-1.471-4.638h-6.723l-1.388,4.638h-3.604l6.539-20.479h3.591L83.147,112.987z
				 M76.91,104.885l-2.318-7.599l-2.275,7.599H76.91z"/>
			<path fill="#1868B1" d="M86.989,112.987V95.973h-4.987v-3.464h13.341v3.464h-4.974v17.014H86.989z"/>
			<path fill="#1868B1" d="M97.509,92.509h3.38V103.6c0,1.723,0.042,2.845,0.126,3.367c0.149,0.903,0.506,1.602,1.071,2.095
				c0.564,0.494,1.309,0.74,2.232,0.74c0.784,0,1.423-0.174,1.918-0.524c0.494-0.349,0.833-0.833,1.015-1.453
				c0.182-0.619,0.273-1.949,0.273-3.988V92.509h3.38v10.756c0,2.748-0.146,4.733-0.439,5.958c-0.294,1.225-0.955,2.216-1.983,2.976
				c-1.029,0.759-2.387,1.138-4.072,1.138c-1.751,0-3.117-0.314-4.1-0.943c-0.983-0.628-1.695-1.513-2.138-2.654
				c-0.442-1.141-0.663-3.243-0.663-6.307V92.509z"/>
			<path fill="#1868B1" d="M121.018,112.987V92.509h11.51v3.464h-8.13v4.847h7.041v3.464h-7.041v8.703H121.018z"/>
			<path fill="#1868B1" d="M135.224,112.987V92.509h3.381v20.479H135.224z"/>
			<path fill="#1868B1" d="M141.888,112.987V92.509h3.297l6.873,13.676V92.509h3.156v20.479h-3.408l-6.761-13.354v13.354H141.888z"
				/>
			<path fill="#1868B1" d="M173.932,112.987h-3.675l-1.471-4.638h-6.723l-1.388,4.638h-3.604l6.539-20.479h3.591L173.932,112.987z
				 M167.695,104.885l-2.318-7.599l-2.275,7.599H167.695z"/>
			<path fill="#1868B1" d="M175.748,112.987V92.509h3.297l6.873,13.676V92.509h3.156v20.479h-3.408l-6.761-13.354v13.354H175.748z"
				/>
			<path fill="#1868B1" d="M203.392,105.458l3.283,1.271c-0.513,2.291-1.364,3.965-2.557,5.022c-1.192,1.057-2.659,1.585-4.4,1.585
				c-2.188,0-3.962-0.843-5.322-2.528c-1.564-1.946-2.347-4.572-2.347-7.878c0-3.492,0.788-6.226,2.363-8.2
				c1.37-1.713,3.211-2.57,5.523-2.57c1.883,0,3.458,0.643,4.726,1.928c0.904,0.913,1.566,2.268,1.985,4.065l-3.353,0.978
				c-0.215-1.108-0.642-1.958-1.28-2.549c-0.639-0.591-1.393-0.887-2.26-0.887c-1.241,0-2.254,0.54-3.037,1.62
				c-0.783,1.081-1.176,2.864-1.176,5.35c0,2.58,0.382,4.415,1.146,5.504c0.764,1.09,1.756,1.634,2.976,1.634
				c0.895,0,1.667-0.347,2.319-1.041C202.634,108.068,203.104,106.967,203.392,105.458z"/>
			<path fill="#1868B1" d="M209.47,112.987V92.509h3.381v20.479H209.47z"/>
			<path fill="#1868B1" d="M231.247,112.987h-3.675l-1.471-4.638h-6.723l-1.388,4.638h-3.604l6.539-20.479h3.591L231.247,112.987z
				 M225.01,104.885l-2.318-7.599l-2.275,7.599H225.01z"/>
			<path fill="#1868B1" d="M233.119,112.987V92.676h3.381v16.847h8.438v3.464H233.119z"/>
		</g>
		<g>
			<path fill="#F37225" d="M24.924,129.056l2.355-0.278c0.265,1.862,1.133,2.793,2.604,2.793c0.729,0,1.302-0.19,1.72-0.571
				c0.417-0.381,0.626-0.853,0.626-1.416c0-0.332-0.073-0.613-0.219-0.845c-0.146-0.231-0.368-0.422-0.666-0.571
				c-0.298-0.149-1.021-0.398-2.167-0.749c-1.027-0.311-1.779-0.648-2.256-1.013c-0.477-0.364-0.856-0.842-1.138-1.435
				c-0.282-0.592-0.422-1.229-0.422-1.912c0-0.794,0.181-1.509,0.542-2.145c0.361-0.636,0.859-1.116,1.496-1.44
				c0.636-0.325,1.421-0.487,2.355-0.487c1.405,0,2.501,0.381,3.29,1.143c0.789,0.762,1.206,1.852,1.252,3.27l-2.416,0.129
				c-0.106-0.782-0.334-1.328-0.686-1.64s-0.852-0.467-1.501-0.467s-1.149,0.135-1.5,0.406c-0.352,0.271-0.527,0.608-0.527,1.011
				c0,0.396,0.159,0.73,0.478,1.001c0.319,0.271,1.051,0.568,2.197,0.893c1.212,0.352,2.088,0.721,2.628,1.109
				c0.54,0.387,0.952,0.888,1.237,1.5s0.427,1.356,0.427,2.23c0,1.266-0.389,2.329-1.168,3.19s-1.996,1.292-3.652,1.292
				C26.885,134.055,25.255,132.389,24.924,129.056z"/>
			<path fill="#F37225" d="M36.672,133.807v-14.571h8.866v2.465h-6.46v3.23h6.003v2.455h-6.003v3.956h6.679v2.465H36.672z"/>
			<path fill="#F37225" d="M47.804,133.807v-14.571h5.079c1.299,0,2.227,0.131,2.783,0.393s1.014,0.716,1.372,1.362
				s0.537,1.419,0.537,2.321c0,1.14-0.273,2.057-0.82,2.753c-0.547,0.696-1.324,1.133-2.331,1.312
				c0.517,0.371,0.944,0.777,1.282,1.218c0.338,0.44,0.798,1.23,1.382,2.37l1.451,2.843H55.66l-1.746-3.17
				c-0.628-1.146-1.055-1.864-1.28-2.152c-0.225-0.289-0.464-0.487-0.715-0.597c-0.252-0.109-0.656-0.164-1.212-0.164h-0.497v6.083
				H47.804z M50.209,125.398h1.789c1.093,0,1.789-0.048,2.087-0.144c0.298-0.096,0.54-0.29,0.726-0.582
				c0.186-0.292,0.278-0.679,0.278-1.163c0-0.464-0.093-0.836-0.278-1.118s-0.437-0.476-0.755-0.582
				c-0.225-0.073-0.878-0.109-1.958-0.109h-1.888V125.398z"/>
			<path fill="#F37225" d="M62.615,133.807l-4.275-14.571h2.614l3.026,10.784l2.927-10.784h2.564l-4.285,14.571H62.615z"/>
			<path fill="#F37225" d="M70.615,133.807v-14.571h2.406v14.571H70.615z"/>
			<path fill="#F37225" d="M82.979,128.449l2.335,0.905c-0.364,1.63-0.971,2.821-1.818,3.573c-0.849,0.752-1.893,1.128-3.131,1.128
				c-1.558,0-2.819-0.6-3.787-1.799c-1.113-1.385-1.67-3.253-1.67-5.606c0-2.485,0.561-4.429,1.682-5.834
				c0.975-1.219,2.285-1.829,3.93-1.829c1.34,0,2.461,0.457,3.362,1.372c0.644,0.649,1.114,1.614,1.413,2.893l-2.386,0.695
				c-0.152-0.788-0.456-1.393-0.911-1.813c-0.454-0.421-0.99-0.631-1.607-0.631c-0.884,0-1.604,0.384-2.161,1.153
				c-0.558,0.769-0.836,2.038-0.836,3.807c0,1.835,0.271,3.141,0.814,3.916c0.543,0.775,1.249,1.163,2.117,1.163
				c0.636,0,1.187-0.247,1.65-0.741C82.438,130.307,82.773,129.523,82.979,128.449z"/>
			<path fill="#F37225" d="M87.383,133.807v-14.571h8.865v2.465h-6.46v3.23h6.003v2.455h-6.003v3.956h6.679v2.465H87.383z"/>
			<path fill="#F37225" d="M97.898,129.056l2.355-0.278c0.265,1.862,1.133,2.793,2.604,2.793c0.729,0,1.302-0.19,1.719-0.571
				c0.418-0.381,0.626-0.853,0.626-1.416c0-0.332-0.072-0.613-0.218-0.845c-0.146-0.231-0.368-0.422-0.666-0.571
				c-0.299-0.149-1.021-0.398-2.167-0.749c-1.027-0.311-1.779-0.648-2.256-1.013c-0.478-0.364-0.856-0.842-1.139-1.435
				c-0.281-0.592-0.422-1.229-0.422-1.912c0-0.794,0.18-1.509,0.541-2.145s0.86-1.116,1.496-1.44
				c0.636-0.325,1.422-0.487,2.355-0.487c1.405,0,2.501,0.381,3.29,1.143c0.788,0.762,1.206,1.852,1.252,3.27l-2.415,0.129
				c-0.105-0.782-0.334-1.328-0.686-1.64s-0.852-0.467-1.501-0.467s-1.149,0.135-1.501,0.406c-0.351,0.271-0.526,0.608-0.526,1.011
				c0,0.396,0.159,0.73,0.479,1.001c0.318,0.271,1.051,0.568,2.197,0.893c1.212,0.352,2.088,0.721,2.628,1.109
				c0.539,0.387,0.951,0.888,1.236,1.5s0.427,1.356,0.427,2.23c0,1.266-0.389,2.329-1.167,3.19
				c-0.779,0.861-1.997,1.292-3.653,1.292C99.859,134.055,98.229,132.389,97.898,129.056z"/>
			<path fill="#F37225" d="M121.931,128.449l2.335,0.905c-0.364,1.63-0.971,2.821-1.818,3.573c-0.849,0.752-1.893,1.128-3.131,1.128
				c-1.558,0-2.819-0.6-3.787-1.799c-1.113-1.385-1.67-3.253-1.67-5.606c0-2.485,0.561-4.429,1.682-5.834
				c0.975-1.219,2.285-1.829,3.93-1.829c1.34,0,2.461,0.457,3.362,1.372c0.644,0.649,1.114,1.614,1.413,2.893l-2.386,0.695
				c-0.152-0.788-0.456-1.393-0.911-1.813c-0.454-0.421-0.99-0.631-1.607-0.631c-0.884,0-1.604,0.384-2.161,1.153
				c-0.558,0.769-0.836,2.038-0.836,3.807c0,1.835,0.271,3.141,0.814,3.916c0.543,0.775,1.249,1.163,2.117,1.163
				c0.636,0,1.187-0.247,1.65-0.741C121.39,130.307,121.725,129.523,121.931,128.449z"/>
			<path fill="#F37225" d="M125.837,126.611c0-1.736,0.257-3.166,0.771-4.289c0.513-1.123,1.184-1.959,2.013-2.509
				c0.828-0.55,1.832-0.825,3.012-0.825c1.709,0,3.103,0.653,4.179,1.958c1.077,1.306,1.615,3.164,1.615,5.576
				c0,2.439-0.569,4.344-1.709,5.715c-1.001,1.212-2.359,1.819-4.075,1.819c-1.729,0-3.095-0.6-4.095-1.799
				C126.406,130.885,125.837,129.003,125.837,126.611z M128.321,126.511c0,1.677,0.319,2.934,0.956,3.772s1.427,1.257,2.369,1.257
				c0.948,0,1.735-0.416,2.359-1.248c0.623-0.831,0.936-2.108,0.936-3.832c0-1.689-0.304-2.938-0.911-3.747
				c-0.607-0.808-1.401-1.212-2.384-1.212s-1.782,0.408-2.399,1.223S128.321,124.802,128.321,126.511z"/>
			<path fill="#F37225" d="M139.284,133.807v-14.571h3.607l2.172,9.949l2.155-9.949h3.625v14.571h-2.246v-11.48l-2.382,11.48h-2.321
				l-2.364-11.48v11.48H139.284z"/>
			<path fill="#F37225" d="M153.189,133.807v-14.571h3.607l2.172,9.949l2.155-9.949h3.625v14.571h-2.246v-11.48l-2.382,11.48H157.8
				l-2.364-11.48v11.48H153.189z"/>
			<path fill="#F37225" d="M167.055,133.807v-14.571h2.405v14.571H167.055z"/>
			<path fill="#F37225" d="M171.16,129.056l2.355-0.278c0.265,1.862,1.133,2.793,2.604,2.793c0.729,0,1.302-0.19,1.719-0.571
				c0.418-0.381,0.626-0.853,0.626-1.416c0-0.332-0.072-0.613-0.218-0.845c-0.146-0.231-0.368-0.422-0.666-0.571
				c-0.299-0.149-1.021-0.398-2.167-0.749c-1.027-0.311-1.779-0.648-2.256-1.013c-0.478-0.364-0.856-0.842-1.139-1.435
				c-0.281-0.592-0.422-1.229-0.422-1.912c0-0.794,0.18-1.509,0.541-2.145s0.86-1.116,1.496-1.44
				c0.636-0.325,1.422-0.487,2.355-0.487c1.405,0,2.501,0.381,3.29,1.143c0.788,0.762,1.206,1.852,1.252,3.27l-2.415,0.129
				c-0.105-0.782-0.334-1.328-0.686-1.64s-0.852-0.467-1.501-0.467s-1.149,0.135-1.501,0.406c-0.351,0.271-0.526,0.608-0.526,1.011
				c0,0.396,0.159,0.73,0.479,1.001c0.318,0.271,1.051,0.568,2.197,0.893c1.212,0.352,2.088,0.721,2.628,1.109
				c0.539,0.387,0.951,0.888,1.236,1.5s0.427,1.356,0.427,2.23c0,1.266-0.389,2.329-1.167,3.19
				c-0.779,0.861-1.997,1.292-3.653,1.292C173.121,134.055,171.491,132.389,171.16,129.056z"/>
			<path fill="#F37225" d="M182.292,129.056l2.355-0.278c0.265,1.862,1.133,2.793,2.604,2.793c0.729,0,1.302-0.19,1.719-0.571
				c0.418-0.381,0.626-0.853,0.626-1.416c0-0.332-0.072-0.613-0.218-0.845c-0.146-0.231-0.368-0.422-0.666-0.571
				c-0.299-0.149-1.021-0.398-2.167-0.749c-1.027-0.311-1.779-0.648-2.256-1.013c-0.478-0.364-0.856-0.842-1.139-1.435
				c-0.281-0.592-0.422-1.229-0.422-1.912c0-0.794,0.18-1.509,0.541-2.145s0.86-1.116,1.496-1.44
				c0.636-0.325,1.422-0.487,2.355-0.487c1.405,0,2.501,0.381,3.29,1.143c0.788,0.762,1.206,1.852,1.252,3.27l-2.415,0.129
				c-0.105-0.782-0.334-1.328-0.686-1.64s-0.852-0.467-1.501-0.467s-1.149,0.135-1.501,0.406c-0.351,0.271-0.526,0.608-0.526,1.011
				c0,0.396,0.159,0.73,0.479,1.001c0.318,0.271,1.051,0.568,2.197,0.893c1.212,0.352,2.088,0.721,2.628,1.109
				c0.539,0.387,0.951,0.888,1.236,1.5s0.427,1.356,0.427,2.23c0,1.266-0.389,2.329-1.167,3.19
				c-0.779,0.861-1.997,1.292-3.653,1.292C184.253,134.055,182.623,132.389,182.292,129.056z"/>
			<path fill="#F37225" d="M193.96,133.807v-14.571h2.405v14.571H193.96z"/>
			<path fill="#F37225" d="M198.184,126.611c0-1.736,0.257-3.166,0.771-4.289c0.513-1.123,1.184-1.959,2.013-2.509
				c0.828-0.55,1.832-0.825,3.012-0.825c1.709,0,3.103,0.653,4.179,1.958c1.077,1.306,1.615,3.164,1.615,5.576
				c0,2.439-0.569,4.344-1.709,5.715c-1.001,1.212-2.359,1.819-4.075,1.819c-1.729,0-3.095-0.6-4.095-1.799
				C198.754,130.885,198.184,129.003,198.184,126.611z M200.669,126.511c0,1.677,0.319,2.934,0.956,3.772s1.427,1.257,2.369,1.257
				c0.948,0,1.735-0.416,2.359-1.248c0.623-0.831,0.936-2.108,0.936-3.832c0-1.689-0.304-2.938-0.911-3.747
				c-0.607-0.808-1.401-1.212-2.384-1.212s-1.782,0.408-2.399,1.223S200.669,124.802,200.669,126.511z"/>
			<path fill="#F37225" d="M211.691,133.807v-14.571h2.346l4.891,9.73v-9.73h2.246v14.571h-2.426l-4.811-9.502v9.502H211.691z"/>
		</g>
		<g>
			<path fill="#1968B2" d="M14.377,146.028h6.038c1.524,0,2.683,0.288,3.474,0.862c0.792,0.575,1.188,1.418,1.188,2.529
				c0,0.911-0.288,1.652-0.863,2.224c-0.575,0.572-1.424,0.961-2.548,1.168c0.491,0.116,0.906,0.273,1.245,0.47
				c0.339,0.197,0.619,0.451,0.838,0.761c0.277,0.401,0.555,1.06,0.833,1.977c0.135,0.433,0.242,0.752,0.319,0.959
				c0.2,0.523,0.467,0.887,0.8,1.09c0.333,0.204,0.848,0.305,1.545,0.305h0.252v0.95c-0.368,0.052-0.719,0.09-1.051,0.116
				c-0.333,0.026-0.645,0.039-0.935,0.039c-0.407,0-0.79-0.053-1.148-0.16c-0.358-0.106-0.664-0.257-0.916-0.45
				c-0.601-0.465-1.072-1.231-1.415-2.297c-0.045-0.148-0.081-0.265-0.106-0.349c-0.375-1.13-0.779-1.868-1.211-2.214
				c-0.433-0.346-1.076-0.519-1.929-0.519h-0.339v4.467l0.32,0.31l1.211,0.106v0.969h-5.601v-0.969l1.173-0.106l0.32-0.31v-10.582
				l-0.32-0.281l-1.173-0.097V146.028z M18.448,147.161l0.01,5.175c0.083,0.006,0.176,0.011,0.276,0.015s0.244,0.005,0.431,0.005
				c1.073,0,1.864-0.216,2.375-0.649c0.51-0.433,0.766-1.102,0.766-2.006c0-0.827-0.252-1.457-0.756-1.89s-1.231-0.649-2.181-0.649
				H18.448z"/>
			<path fill="#1968B2" d="M27.654,159.342v-0.969l1.211-0.106l0.32-0.31v-10.582l-0.32-0.281l-1.211-0.097v-0.969h10.01v3.111
				h-1.376l-0.339-1.745l-0.213-0.261h-3.973v4.729h2.587l0.271-0.281l0.204-1.424h1.173v4.603h-1.173l-0.204-1.435l-0.271-0.271
				h-2.587v5.155h4.632l0.233-0.32l0.32-2.103h1.366v3.557H27.654z"/>
			<path fill="#1968B2" d="M39.486,159.342v-0.969l1.172-0.106l0.359-0.31v-10.582l-0.301-0.281l-1.308-0.097v-0.969h5.359
				c1.893,0,3.269,0.32,4.128,0.959c0.859,0.64,1.289,1.654,1.289,3.043c0,1.396-0.455,2.479-1.366,3.251s-2.187,1.158-3.828,1.158
				c-0.155,0-0.346-0.005-0.572-0.015c-0.227-0.01-0.488-0.024-0.785-0.043v3.576l0.3,0.31l1.415,0.106v0.969H39.486z
				 M43.633,153.247c0.013,0,0.036,0.003,0.068,0.01c0.297,0.019,0.514,0.029,0.649,0.029c1.027,0,1.801-0.265,2.321-0.794
				s0.78-1.321,0.78-2.375c0-0.95-0.239-1.676-0.717-2.18s-1.166-0.756-2.064-0.756h-1.037V153.247z"/>
			<path fill="#1968B2" d="M50.611,146.028h5.698v0.969l-1.23,0.097l-0.281,0.281v6.948c0,1.324,0.252,2.271,0.756,2.839
				c0.504,0.568,1.331,0.853,2.481,0.853c1.06,0,1.827-0.302,2.301-0.906c0.475-0.604,0.712-1.594,0.712-2.97v-6.687l-0.3-0.339
				l-1.27-0.116v-0.969h4.506v0.969l-1.211,0.116l-0.271,0.339v6.89c0,1.841-0.414,3.175-1.24,4.002
				c-0.827,0.827-2.161,1.24-4.002,1.24c-0.962,0-1.807-0.141-2.534-0.421c-0.727-0.281-1.297-0.683-1.71-1.207
				c-0.317-0.414-0.542-0.887-0.674-1.42c-0.132-0.533-0.199-1.297-0.199-2.292v-6.871l-0.281-0.281l-1.25-0.097V146.028z"/>
			<path fill="#1968B2" d="M64.778,146.028h5.959c1.46,0,2.559,0.26,3.295,0.78s1.104,1.297,1.104,2.331
				c0,0.782-0.238,1.436-0.717,1.962c-0.479,0.526-1.183,0.913-2.112,1.158c1.137,0.02,2.021,0.31,2.655,0.873
				c0.633,0.562,0.949,1.337,0.949,2.326c0,1.253-0.43,2.214-1.289,2.883s-2.096,1.003-3.711,1.003h-6.134v-0.959l1.172-0.106
				l0.32-0.311v-10.591l-0.32-0.281l-1.172-0.097V146.028z M68.858,151.939c0.052,0.007,0.116,0.012,0.194,0.015
				c0.078,0.003,0.19,0.005,0.339,0.005c1.034,0,1.794-0.208,2.283-0.625c0.487-0.417,0.731-1.067,0.731-1.953
				c0-0.775-0.227-1.35-0.679-1.725c-0.453-0.375-1.147-0.562-2.083-0.562c-0.155,0-0.401,0.013-0.737,0.039h-0.058L68.858,151.939z
				 M68.848,158.218l0.068,0.01c0.401,0.019,0.698,0.029,0.892,0.029c1.164,0,2.01-0.212,2.539-0.636
				c0.53-0.424,0.795-1.105,0.795-2.044c0-0.848-0.249-1.48-0.746-1.898s-1.245-0.626-2.239-0.626c-0.291,0-0.533,0.003-0.727,0.01
				s-0.388,0.016-0.582,0.029V158.218z"/>
			<path fill="#1968B2" d="M77.202,159.342v-0.969l1.211-0.106l0.339-0.31v-10.582l-0.28-0.281l-1.27-0.097v-0.969h5.717v0.969
				l-1.211,0.097l-0.319,0.281v10.814h3.817l0.252-0.32l0.301-2.413h1.473v3.886H77.202z"/>
			<path fill="#1968B2" d="M88.036,159.342v-0.969l1.318-0.106l0.329-0.31v-10.582l-0.329-0.281l-1.318-0.097v-0.969h5.94v0.969
				l-1.327,0.097l-0.32,0.281v10.582l0.32,0.31l1.327,0.106v0.969H88.036z"/>
			<path fill="#1968B2" d="M106.399,158.868c-0.665,0.239-1.345,0.418-2.039,0.538c-0.695,0.12-1.404,0.179-2.128,0.179
				c-0.704,0-1.366-0.076-1.986-0.228c-0.62-0.152-1.176-0.376-1.667-0.674c-1.033-0.613-1.841-1.449-2.422-2.505
				c-0.582-1.056-0.872-2.217-0.872-3.484c0-1.014,0.176-1.954,0.527-2.82c0.353-0.866,0.864-1.618,1.536-2.258
				c0.627-0.607,1.358-1.064,2.195-1.371c0.836-0.307,1.771-0.46,2.806-0.46c0.665,0,1.335,0.062,2.011,0.184
				c0.675,0.123,1.354,0.307,2.039,0.552v3.314h-1.453l-0.397-2.123l-0.271-0.339c-0.271-0.097-0.537-0.171-0.799-0.223
				c-0.262-0.051-0.519-0.077-0.771-0.077c-1.383,0-2.479,0.502-3.29,1.507c-0.812,1.004-1.217,2.369-1.217,4.094
				c0,1.77,0.424,3.156,1.27,4.157c0.847,1.001,2.013,1.502,3.499,1.502c0.161,0,0.344-0.016,0.547-0.048
				c0.204-0.032,0.422-0.078,0.654-0.136l0.301-0.3l0.475-2.394h1.453V158.868z"/>
			<path fill="#1968B2" d="M113.726,152.617c0-1.085,0.171-2.061,0.513-2.927c0.343-0.866,0.854-1.612,1.531-2.238
				c0.627-0.575,1.326-1.006,2.099-1.294c0.771-0.288,1.619-0.431,2.544-0.431c0.853,0,1.643,0.129,2.369,0.388
				s1.394,0.646,2.001,1.163c0.762,0.659,1.345,1.454,1.749,2.384c0.403,0.93,0.605,1.954,0.605,3.072
				c0,1.053-0.179,2.019-0.538,2.897c-0.358,0.878-0.886,1.641-1.584,2.287c-0.601,0.562-1.285,0.993-2.055,1.293
				c-0.769,0.3-1.573,0.451-2.413,0.451c-2.048,0-3.696-0.646-4.946-1.938S113.726,154.73,113.726,152.617z M120.451,146.997
				c-1.137,0-2.05,0.512-2.737,1.536c-0.688,1.024-1.032,2.398-1.032,4.124c0,1.751,0.344,3.154,1.032,4.21
				c0.688,1.057,1.588,1.584,2.699,1.584c1.124,0,2.029-0.515,2.718-1.545c0.688-1.031,1.032-2.402,1.032-4.114
				c0-1.77-0.338-3.179-1.013-4.225C122.474,147.52,121.575,146.997,120.451,146.997z"/>
			<path fill="#1968B2" d="M128.427,159.342v-0.969l1.192-0.106l0.319-0.31v-10.582l-0.319-0.281l-1.27-0.097v-0.969h9.962v3.333
				h-1.366l-0.301-1.928l-0.252-0.252h-3.837v4.942h2.664l0.281-0.261l0.194-1.454h1.172v4.632h-1.172l-0.194-1.454l-0.281-0.262
				h-2.664v4.632l0.339,0.31l1.396,0.106v0.969H128.427z"/>
			<path fill="#1968B2" d="M144.144,146.028h5.456v0.969l-1.153,0.097l-0.213,0.3l3.295,9.051l3.197-9.051l-0.223-0.3l-1.191-0.097
				v-0.969h4.351v0.969l-1.289,0.262l-4.409,12.084h-2.006l-4.506-12.104l-1.309-0.242V146.028z"/>
			<path fill="#1968B2" d="M161.074,145.882h2.083l4.564,12.288l1.173,0.203v0.969h-5.359v-0.969l1.25-0.126l0.146-0.252
				l-1.191-3.372h-4.332l-1.192,3.353l0.204,0.252l1.25,0.145v0.969h-4.273v-0.969l1.191-0.184L161.074,145.882z M161.51,148.605
				l-1.725,4.904h3.498L161.51,148.605z"/>
			<path fill="#1968B2" d="M169.05,159.342v-0.95l1.173-0.165l0.358-0.359v-10.495l-0.281-0.281l-1.25-0.097v-0.969h4.545v0.533
				l6.076,9.429v-8.499l-0.358-0.378l-1.212-0.116v-0.969h4.525v0.969l-1.172,0.116l-0.34,0.378v11.852h-2.219l-6.871-10.66v9.187
				l0.32,0.359l1.23,0.165v0.95H169.05z"/>
			<path fill="#1968B2" d="M183.362,146.028h5.698v0.969l-1.231,0.097l-0.28,0.281v6.948c0,1.324,0.252,2.271,0.756,2.839
				c0.504,0.568,1.33,0.853,2.48,0.853c1.06,0,1.827-0.302,2.302-0.906c0.475-0.604,0.712-1.594,0.712-2.97v-6.687l-0.301-0.339
				l-1.269-0.116v-0.969h4.506v0.969l-1.212,0.116l-0.271,0.339v6.89c0,1.841-0.414,3.175-1.241,4.002
				c-0.826,0.827-2.16,1.24-4.002,1.24c-0.963,0-1.808-0.141-2.534-0.421c-0.727-0.281-1.297-0.683-1.71-1.207
				c-0.316-0.414-0.541-0.887-0.674-1.42c-0.133-0.533-0.198-1.297-0.198-2.292v-6.871l-0.281-0.281l-1.25-0.097V146.028z"/>
			<path fill="#1968B2" d="M201.804,145.882h2.083l4.564,12.288l1.173,0.203v0.969h-5.359v-0.969l1.25-0.126l0.146-0.252
				l-1.191-3.372h-4.332l-1.192,3.353l0.204,0.252l1.25,0.145v0.969h-4.273v-0.969l1.191-0.184L201.804,145.882z M202.239,148.605
				l-1.725,4.904h3.498L202.239,148.605z"/>
			<path fill="#1968B2" d="M207.404,146.028h11.445v3.508h-1.366l-0.34-2.123l-0.29-0.252h-2.385v10.795l0.34,0.31l1.289,0.106
				v0.969h-5.94v-0.969l1.298-0.106l0.33-0.31v-10.795h-2.374l-0.301,0.252l-0.339,2.123h-1.367V146.028z"/>
			<path fill="#1968B2" d="M219.45,146.028h5.698v0.969l-1.231,0.097l-0.28,0.281v6.948c0,1.324,0.252,2.271,0.756,2.839
				c0.504,0.568,1.33,0.853,2.48,0.853c1.06,0,1.827-0.302,2.302-0.906c0.475-0.604,0.712-1.594,0.712-2.97v-6.687l-0.301-0.339
				l-1.269-0.116v-0.969h4.506v0.969l-1.212,0.116l-0.271,0.339v6.89c0,1.841-0.414,3.175-1.241,4.002
				c-0.826,0.827-2.16,1.24-4.002,1.24c-0.963,0-1.808-0.141-2.534-0.421c-0.727-0.281-1.297-0.683-1.71-1.207
				c-0.316-0.414-0.541-0.887-0.674-1.42c-0.133-0.533-0.198-1.297-0.198-2.292v-6.871l-0.281-0.281l-1.25-0.097V146.028z"/>
		</g>
		<g>
			<rect x="0" y="123.688" fill="#1868B1" width="21.833" height="5.667"/>
			<rect x="224.98" y="123.688" fill="#1868B1" width="21.833" height="5.667"/>
		</g>
	</g>
	<g>
		<ellipse fill="#C6C4A0" cx="123.327" cy="83.699" rx="16.333" ry="2.756"/>
		<path fill="none" stroke="#000000" stroke-miterlimit="10" d="M88.672,17.954"/>
		<path fill="#F37224" d="M132.799,17.954l-5.305,12h-14v5h12.5l-2.667,12.333h-5l5,15.5l16.275-44.833h18.335
			C150.674,7.128,138.324,0,124.307,0s-26.367,7.128-33.63,17.954H132.799z"/>
		<path fill="#1868B1" d="M159.599,20.668l-25.233,59.013c17.485-4.472,30.412-20.331,30.412-39.21
			C164.778,33.276,162.892,26.524,159.599,20.668z"/>
		<path fill="#1868B1" d="M88.937,20.795c-1.982,3.555-3.447,7.437-4.285,11.548L57.731,66.454l26.354-21.52
			c0.228,2.074,0.613,4.1,1.142,6.068L69.16,71.788l17.99-15.265c1.162,2.687,2.61,5.219,4.301,7.567L78.993,80.943l15.802-12.792
			c1.044,1.113,2.149,2.166,3.312,3.155l-5.114,13.482l9.623-10.156c2.533,1.612,5.264,2.935,8.137,3.959L88.937,20.795z"/>
	</g>
</g>
</svg>
