<?xml version="1.0" encoding="utf-8"?>
<!-- Generator: Adobe Illustrator 20.1.0, SVG Export Plug-In . SVG Version: 6.00 Build 0)  -->
<svg version="1.1" id="Layer_1" xmlns="http://www.w3.org/2000/svg" xmlns:xlink="http://www.w3.org/1999/xlink" x="0" y="0"
	 viewBox="0 0 200 66.6" style="enable-background:new 0 0 200 66.6;" xml:space="preserve">
<style type="text/css">
	.st0{fill:#F2F2F2;}
	.st1{fill:#2A3052;}
	.st2{fill:#293052;}
	.st3{fill:#E98024;}
	.st4{fill:#E88024;}
	.st5{fill:none;stroke:#DEDEDE;stroke-width:0.19;stroke-miterlimit:10;}
</style>
<title>fund_small</title>
<circle class="st0" cx="156.9" cy="49.9" r="8.6"/>
<path class="st1" d="M159.2,51.5h-4.7V44h4.7V51.5z M154.9,51.1h4v-6.7h-4V51.1z"/>
<rect x="155.6" y="48" class="st1" width="1" height="1"/>
<rect x="157.2" y="48" class="st1" width="1" height="1"/>
<rect x="155.6" y="49.5" class="st1" width="1" height="1"/>
<rect x="157.2" y="49.5" class="st1" width="1" height="1"/>
<rect x="155.6" y="45" class="st1" width="1" height="1"/>
<rect x="157.2" y="45" class="st1" width="1" height="1"/>
<rect x="155.6" y="46.5" class="st1" width="1" height="1"/>
<rect x="157.2" y="46.5" class="st1" width="1" height="1"/>
<rect x="157.3" y="41.8" transform="matrix(0.7071 -0.7071 0.7071 0.7071 10.9227 126.0083)" class="st0" width="0.6" height="16"/>
<rect x="156.6" y="40.5" transform="matrix(0.7071 -0.7071 0.7071 0.7071 10.7057 125.4908)" class="st1" width="0.6" height="18.6"/>
<circle class="st0" cx="120.5" cy="25.1" r="8.6"/>
<path class="st2" d="M121.5,23.1c0.1-0.1,0.2-0.2,0.2-0.3l0.1-0.2c0.1-0.1,0.1-0.2,0.1-0.3v-0.1c0.1,0,0.2-0.1,0.2-0.2
	c0.1-0.1,0.1-0.3,0.1-0.4c0-0.1,0-0.1-0.1-0.2l-0.1-0.1c0-0.1,0-0.2,0-0.2c0-0.2-0.1-0.4-0.2-0.6l-0.1-0.2c-0.4-0.8-1.4-1.2-2.2-0.8
	c-0.3,0.2-0.6,0.4-0.8,0.8l-0.1,0.2c0,0.1-0.1,0.2-0.1,0.3c0,0.1-0.1,0.3-0.1,0.5l0,0c-0.1,0.1-0.2,0.3-0.2,0.5c0,0,0,0.1,0,0.1
	c0.1,0.1,0.2,0.3,0.3,0.3c0,0.1,0.1,0.2,0.2,0.3l0.1,0.2c0.1,0.1,0.2,0.2,0.2,0.3l0.2,0.1c0.5,0.4,1.3,0.4,1.8,0L121.5,23.1z
	 M119.2,20.8c0-0.1,0-0.1,0.1-0.2c0.2-0.7,1-1,1.6-0.8c0.3,0.1,0.6,0.4,0.8,0.8c0,0.1,0.1,0.1,0.1,0.2c0,0.1,0,0.1,0.1,0.2l-0.2,0
	l-0.2-0.1c-0.2-0.1-0.4-0.3-0.5-0.5l-0.2-0.4l-0.2,0.4c-0.2,0.4-0.6,0.6-1,0.7h-0.2h-0.3C119.1,20.9,119.1,20.9,119.2,20.8z
	 M121.1,22.9c-0.4,0.3-0.9,0.3-1.3,0l-0.2-0.1c-0.1-0.1-0.2-0.2-0.2-0.3c-0.1-0.1-0.2-0.3-0.2-0.4l0,0v-0.1H119
	c-0.1,0-0.1-0.1-0.1-0.1c0-0.1,0-0.1,0.1-0.2l0,0l0.1-0.1v-0.1h0.1h0.3h0.2c0.4-0.1,0.7-0.3,1-0.6c0.1,0.2,0.3,0.3,0.5,0.4l0.2,0.1
	c0.1,0,0.2,0.1,0.3,0.1h0.1v0.1l0.1,0.1c0.1,0,0.1,0.1,0.1,0.2l0,0c0,0.1-0.1,0.1-0.1,0.1h-0.1v0.1v0.1c-0.1,0.1-0.1,0.2-0.2,0.4
	c-0.1,0.1-0.1,0.2-0.2,0.3L121.1,22.9z"/>
<path class="st2" d="M119.7,23.9c-0.2,0.1-0.4,0.1-0.6,0.2l-0.2,0.1c-0.1,0.1-0.2,0.2-0.3,0.3l-0.2,0.2c-0.3,0.4-0.5,1-0.5,1.5v0.5
	h0.4v-0.5c0-0.5,0.2-1,0.5-1.4l0.2-0.1c0.1-0.1,0.2-0.2,0.3-0.2l0.2-0.1c0.1-0.1,0.3-0.1,0.4-0.1h0.2v-0.6h-0.4L119.7,23.9z"/>
<path class="st2" d="M122.5,24.7l-0.2-0.2c-0.1-0.1-0.2-0.2-0.3-0.3l-0.2-0.1c-0.2-0.1-0.4-0.2-0.6-0.2v-0.3h-0.4v0.6h0.2
	c0.1,0,0.3,0.1,0.4,0.1l0.2,0.1c0.1,0.1,0.2,0.1,0.3,0.2l0.2,0.1c0.3,0.4,0.5,0.9,0.5,1.4v0.5h0.4v-0.5
	C123,25.7,122.8,25.2,122.5,24.7z"/>
<circle class="st0" cx="156.9" cy="25.1" r="8.6"/>
<path class="st2" d="M157.9,23.1c0.1-0.1,0.2-0.2,0.2-0.3l0.1-0.2c0.1-0.1,0.1-0.2,0.1-0.3v-0.1c0.1,0,0.2-0.1,0.2-0.2
	c0.1-0.1,0.1-0.3,0.1-0.4c0-0.1,0-0.1-0.1-0.2l-0.1-0.1c0-0.1,0-0.2,0-0.2c0-0.2-0.1-0.4-0.1-0.6l-0.1-0.2c-0.4-0.8-1.4-1.2-2.2-0.8
	c-0.3,0.2-0.6,0.4-0.8,0.8l-0.1,0.2c0,0.1-0.1,0.2-0.1,0.3c0,0.1-0.1,0.3-0.1,0.5l0,0c-0.1,0.1-0.2,0.3-0.2,0.5c0,0,0,0.1,0,0.1
	c0.1,0.1,0.2,0.3,0.3,0.3c0,0.1,0.1,0.2,0.2,0.3l0.1,0.2c0.1,0.1,0.2,0.2,0.2,0.3l0.2,0.1c0.5,0.4,1.3,0.4,1.8,0L157.9,23.1z
	 M155.6,20.8c0-0.1,0-0.1,0.1-0.2c0.2-0.7,1-1,1.6-0.8c0.3,0.1,0.6,0.4,0.8,0.8c0,0.1,0.1,0.1,0.1,0.2c0,0.1,0,0.1,0.1,0.2l-0.2,0
	l-0.2-0.1c-0.2-0.1-0.4-0.3-0.5-0.5l-0.2-0.4l-0.2,0.4c-0.2,0.4-0.6,0.6-1,0.7h-0.2h-0.3C155.5,20.9,155.5,20.9,155.6,20.8
	L155.6,20.8z M157.5,22.9c-0.4,0.3-0.9,0.3-1.3,0l-0.1-0.1c-0.1-0.1-0.2-0.2-0.2-0.3c-0.1-0.1-0.2-0.3-0.2-0.4l0,0v-0.1h-0.1
	c-0.1,0-0.1-0.1-0.1-0.1c0-0.1,0-0.1,0.1-0.2l0,0l0.1-0.1v-0.1h0.1h0.4h0.2c0.4-0.1,0.7-0.3,1-0.6c0.1,0.2,0.3,0.3,0.5,0.4l0.2,0.1
	c0.1,0,0.2,0.1,0.3,0.1h0.1v0.1l0.1,0.1c0.1,0,0.1,0.1,0.1,0.2l0,0c0,0.1-0.1,0.1-0.1,0.1h-0.1v0.1v0.1c-0.1,0.1-0.1,0.2-0.2,0.4
	c-0.1,0.1-0.1,0.2-0.2,0.3L157.5,22.9z"/>
<path class="st2" d="M156.1,23.9c-0.2,0.1-0.4,0.1-0.6,0.2l-0.2,0.1c-0.1,0.1-0.2,0.2-0.3,0.3l-0.1,0.2c-0.3,0.4-0.5,1-0.5,1.5v0.5
	h0.4v-0.5c0-0.5,0.2-1,0.5-1.4l0.1-0.1c0.1-0.1,0.2-0.2,0.3-0.2l0.2-0.1c0.1-0.1,0.3-0.1,0.4-0.1h0.1v-0.6h-0.4L156.1,23.9z"/>
<path class="st2" d="M158.9,24.7l-0.1-0.2c-0.1-0.1-0.2-0.2-0.3-0.3l-0.2-0.1c-0.2-0.1-0.4-0.2-0.6-0.2v-0.3h-0.4v0.6h0.1
	c0.1,0,0.3,0.1,0.4,0.1l0.2,0.1c0.1,0.1,0.2,0.1,0.3,0.2l0.1,0.1c0.3,0.4,0.5,0.9,0.5,1.4v0.5h0.4v-0.5
	C159.4,25.7,159.3,25.2,158.9,24.7z"/>
<polyline class="st2" points="157.3,24.5 156.9,24.9 156.5,24.5 "/>
<polygon class="st2" points="157.3,26.2 156.9,26.6 156.5,26.2 156.9,24.6 "/>
<path d="M117.7,28.9c0.1,0,0.3-0.1,0.4-0.1c0.3,0,0.5,0.1,0.5,0.4s-0.1,0.4-0.4,0.4h-0.2l-0.1-0.1c0.1,0,0.1,0,0.2,0
	c0.2,0,0.3-0.1,0.3-0.3s-0.1-0.2-0.3-0.2c-0.1,0-0.3,0-0.4,0.1c0,0.2,0,0.3,0,0.4s-0.1,0.2-0.2,0.2s-0.4-0.1-0.4-0.3
	s0.2-0.3,0.4-0.4v-0.1c0-0.1,0-0.2,0-0.2h-0.4v-0.1h0.4c0-0.1,0-0.2,0-0.2c0,0,0-0.1,0-0.1h0.2c0,0,0,0.1,0,0.1s0,0.1,0,0.2
	c0.1,0,0.3,0,0.4-0.1v0.1l-0.4,0.1C117.7,28.7,117.7,28.8,117.7,28.9L117.7,28.9z M117.6,29.5c0-0.1,0-0.2,0-0.3
	c-0.2,0.1-0.3,0.2-0.3,0.3S117.4,29.5,117.6,29.5C117.6,29.5,117.6,29.5,117.6,29.5L117.6,29.5z M118.3,28.4
	c0.1,0.1,0.3,0.2,0.4,0.3l-0.1,0.1c-0.1-0.1-0.3-0.2-0.4-0.3L118.3,28.4z"/>
<path d="M120.2,28.6c-0.1,0.1-0.2,0.3-0.4,0.4c0.2,0.1,0.5,0.2,0.7,0.2c0,0-0.1,0.1-0.1,0.1l-0.2,0v0.5h-0.1v-0.1h-0.8v0.1h-0.1
	v-0.5l-0.3,0.1c0,0,0-0.1-0.1-0.1c0.3,0,0.5-0.1,0.7-0.2c-0.1-0.1-0.2-0.1-0.2-0.2c-0.1,0.1-0.2,0.1-0.3,0.2c0,0-0.1-0.1-0.1-0.1
	c0.2-0.1,0.4-0.2,0.5-0.4h0.2l-0.1,0.1L120.2,28.6L120.2,28.6z M119,28.6h-0.1v-0.4h0.7v-0.2h0.1v0.2h0.7v0.4h-0.1v-0.2H119
	L119,28.6z M120.1,29.2c-0.2,0-0.3-0.1-0.4-0.2c-0.1,0.1-0.3,0.1-0.4,0.2H120.1z M120.1,29.6v-0.3h-0.8v0.3H120.1z M119.4,28.7
	c0.1,0.1,0.2,0.2,0.3,0.2c0.1-0.1,0.2-0.1,0.3-0.2L119.4,28.7L119.4,28.7z"/>
<path d="M122.1,28.5l-0.3,0.1c0.1,0.1,0.2,0.4,0.2,0.5l-0.1,0.1l-0.4,0V29h0.3l-0.2-0.4c-0.3,0-0.5,0-0.8,0v-0.1c0.2,0,0.5,0,0.7,0
	l-0.1-0.1l-0.1-0.1h0.2l0.1,0.3l0.4-0.1L122.1,28.5z M121.1,29.1c0,0.1,0,0.2-0.1,0.2c0,0.2,0.1,0.3,0.4,0.3c0.2,0,0.3,0,0.5,0v0.1
	c-0.2,0-0.3,0-0.5,0c-0.3,0-0.5-0.1-0.5-0.4c0-0.1,0-0.2,0.1-0.3L121.1,29.1z"/>
<path d="M123.8,29.6c-0.1-0.1-0.3-0.2-0.4-0.3c0,0,0,0.1,0,0.1s-0.1,0.3-0.3,0.3s-0.4-0.1-0.4-0.3s0.2-0.3,0.4-0.3h0.2
	c0-0.1,0-0.2,0-0.2H123h-0.5v-0.1c0.2,0,0.3,0,0.5,0h0.1v-0.3H123h-0.4v-0.1c0.1,0,0.3,0,0.4,0h0.1v-0.1c0,0,0-0.1,0-0.1h0.2
	c0,0,0,0.1,0,0.1c0,0,0,0.1,0,0.1h0.5v0.1h-0.5v0.3h0.5v0.1h-0.5c0,0.1,0,0.2,0,0.3c0.2,0.1,0.4,0.2,0.5,0.3L123.8,29.6z
	 M123.2,29.3H123c-0.2,0-0.3,0.1-0.3,0.1s0.1,0.1,0.2,0.1s0.2,0,0.2-0.2S123.2,29.4,123.2,29.3z"/>
<path d="M113.7,1.5h1.1v1.9h-0.3V3.3h-2.2V3h2.2V2.5h-2.1V2.3h2.1V1.8h-2.2V1.5h1.1V0.4h0.3L113.7,1.5z M112.7,1.4
	c-0.1-0.3-0.2-0.5-0.4-0.8l0.2-0.1c0.2,0.2,0.3,0.5,0.4,0.8L112.7,1.4z M114.7,0.6c-0.1,0.3-0.3,0.6-0.5,0.8L114,1.3
	c0.2-0.3,0.3-0.5,0.4-0.8L114.7,0.6z"/>
<path d="M116.6,2.5c-0.1-0.1-0.3-0.3-0.4-0.4v1.4h-0.2V2.1c-0.2,0.2-0.3,0.3-0.5,0.4c0-0.1-0.1-0.2-0.1-0.2c0.4-0.3,0.8-0.7,1-1.1
	h-0.9V1h0.5V0.4h0.2V1h0.3l0.1,0.1c-0.1,0.3-0.3,0.5-0.4,0.7l0.5,0.4L116.6,2.5z M118.4,3.1v0.2h-1.9V3.1h0.8V1.7h-0.7V1.5h0.7V0.4
	h0.2v1.1h0.7v0.2h-0.7v1.4L118.4,3.1z"/>
<path d="M119.2,3v0.3h-0.2V2c-0.1,0.1-0.1,0.2-0.2,0.3c0-0.1-0.1-0.2-0.1-0.3c0.3-0.4,0.4-0.8,0.5-1.3h-0.4V0.5h1.1v0.2h-0.5
	c-0.1,0.3-0.1,0.5-0.2,0.8h0.6V3H119.2z M119.2,1.8v1h0.4v-1H119.2z M121.6,1.7c-0.1,0.4-0.3,0.8-0.6,1.1c0.2,0.2,0.4,0.3,0.7,0.4
	c-0.1,0.1-0.1,0.1-0.2,0.2c-0.3-0.1-0.5-0.3-0.7-0.5c-0.2,0.2-0.4,0.3-0.7,0.5c0-0.1-0.1-0.1-0.1-0.2c0.2-0.1,0.5-0.2,0.7-0.4
	c-0.2-0.3-0.4-0.6-0.5-0.9c0,0.5-0.1,1-0.4,1.5c-0.1,0-0.1-0.1-0.2-0.1c0.3-0.5,0.4-1,0.3-1.6V0.9h0.7V0.4h0.2v0.5h0.6h0.2
	c-0.1,0.2-0.1,0.4-0.2,0.7l-0.2,0c0-0.1,0.1-0.3,0.1-0.4h-0.5v0.6h0.5L121.6,1.7z M120.2,1.1v0.6h0.5V1.1L120.2,1.1z M120.4,1.9
	c0.1,0.3,0.2,0.5,0.4,0.8c0.2-0.2,0.3-0.5,0.4-0.8H120.4z"/>
<path d="M122.4,2.3c0,0.3-0.1,0.6-0.2,0.8L122,3c0.1-0.3,0.2-0.5,0.2-0.8L122.4,2.3z M122.7,2v1.4h-0.2V2H122V1.8h0.2l0.2-0.3
	c-0.1-0.2-0.3-0.4-0.4-0.5l0.1-0.1l0.1,0.1c0.1-0.2,0.2-0.4,0.3-0.6l0.2,0.1c-0.1,0.2-0.3,0.5-0.4,0.7l0.2,0.2
	c0.1-0.2,0.2-0.4,0.3-0.6l0.2,0.1c-0.2,0.3-0.4,0.7-0.6,1h0.4c0-0.1-0.1-0.2-0.1-0.3l0.2-0.1c0.1,0.2,0.2,0.5,0.3,0.7L123,2.2
	c0-0.1,0-0.1,0-0.2H122.7z M123,2.9c0-0.2-0.1-0.4-0.2-0.6l0.2,0c0.1,0.2,0.1,0.4,0.2,0.6L123,2.9z M124.2,3.1c0.1,0,0.2,0,0.3,0
	h0.5c0,0.1-0.1,0.1-0.1,0.2h-0.4c-0.4,0.1-0.9-0.2-1.1-0.6c-0.1,0.2-0.2,0.4-0.3,0.6c-0.1-0.1-0.1-0.1-0.2-0.1
	c0.3-0.4,0.5-0.9,0.5-1.4h0.2c0,0.2,0,0.4-0.1,0.6c0.1,0.2,0.2,0.4,0.4,0.5V1.7h-0.7V1.4h1.6v0.2h-0.7v0.5h0.6v0.2h-0.6L124.2,3.1z
	 M123.4,1.3h-0.2V0.8h0.8V0.4h0.2v0.4h0.8v0.6h-0.2V1h-1.3L123.4,1.3z"/>
<path d="M126.4,2.8h-0.7V3h-0.2V0.6h0.9L126.4,2.8z M125.7,0.8v0.7h0.5V0.8L125.7,0.8z M126.2,2.5V1.8h-0.5v0.8L126.2,2.5z M128,1.6
	V2h0.4v0.2H128v0.9c0,0.1,0,0.2-0.1,0.2c-0.2,0-0.4,0-0.5,0c0-0.1,0-0.2-0.1-0.2h0.4c0.1,0,0.1,0,0.1-0.1V2.2h-1.3V2h1.3V1.6h-1.3
	V1.4h0.8V1h-0.7V0.8h0.7V0.4h0.2v0.4h0.7V1h-0.7v0.4h0.9v0.2H128z M126.9,2.3c0.2,0.2,0.3,0.4,0.4,0.6L127.1,3
	c-0.1-0.2-0.3-0.4-0.4-0.6L126.9,2.3z"/>
<path d="M134.5,31.6c0.1-0.1,0.1-0.3,0.1-0.4h-0.3v1c0,0.1,0,0.2-0.1,0.2c-0.1,0-0.2,0-0.4,0c0-0.1,0-0.1-0.1-0.2h0.3l0,0v-1h-0.4
	V31h0.7c-0.2-0.1-0.3-0.3-0.5-0.4l0.1-0.1l0.3,0.1c0.1-0.1,0.2-0.2,0.3-0.3h-0.7v-0.2h0.9l0.1,0.1c-0.1,0.2-0.2,0.4-0.4,0.5
	c0.1,0.1,0.1,0.1,0.2,0.2l-0.1,0.1h0.2h0.1C134.8,31.2,134.7,31.4,134.5,31.6L134.5,31.6z M135.4,32.1c-0.2,0.2-0.4,0.3-0.6,0.3
	l-0.1-0.1c0.2-0.1,0.4-0.2,0.6-0.3L135.4,32.1z M135.4,30.6c0-0.1,0-0.2,0-0.2h-0.5v-0.2h1.3v0.2h-0.6l-0.1,0.2h0.5V32h-1.1v-1.4
	L135.4,30.6z M135.9,30.8h-0.8V31h0.8V30.8z M135.9,31.2h-0.8v0.2h0.8V31.2z M135.9,31.6h-0.8v0.2h0.8V31.6z M135.8,32
	c0.2,0.1,0.3,0.2,0.5,0.3l-0.1,0.1c-0.1-0.1-0.3-0.2-0.5-0.3L135.8,32z"/>
<path d="M137.4,30.7h-1v-0.2h1V30.7z M137.3,32.3h-0.6v0.1h-0.2v-0.9h0.8V32.3z M136.5,30.9h0.8V31h-0.8V30.9z M136.5,31.2h0.8v0.2
	h-0.8V31.2z M137.3,30.4h-0.8v-0.2h0.8V30.4z M136.7,31.7v0.4h0.5v-0.4L136.7,31.7z M138.5,32.3c0.1,0,0.1-0.1,0.1-0.4
	c0.1,0,0.1,0.1,0.2,0.1c0,0.4-0.1,0.5-0.3,0.5h-0.3c-0.2,0-0.3-0.1-0.3-0.3v-0.8l-0.5,0.1v-0.2l0.5-0.1v-0.7l-0.4,0.1
	c0-0.1,0-0.1-0.1-0.2c0.4-0.1,0.7-0.1,1.1-0.3l0.2,0.1c-0.2,0.1-0.4,0.1-0.6,0.2v0.7l0.6-0.1v0.2l-0.7,0.1v0.8c0,0.1,0,0.1,0.1,0.1
	L138.5,32.3z"/>
<path d="M140.3,32.2h1v0.2h-2.2v-0.2h1v-0.6h-0.9v-0.2h0.9V31h-0.5v-0.1c-0.1,0.1-0.3,0.2-0.4,0.3c0-0.1-0.1-0.1-0.1-0.2
	c0.4-0.2,0.8-0.5,1.1-0.9h0.2c0.3,0.4,0.7,0.7,1.1,0.9c0,0.1-0.1,0.1-0.1,0.2c-0.2-0.1-0.3-0.2-0.4-0.3V31h-0.6v0.4h0.9v0.2h-0.9
	L140.3,32.2z M139.6,31.7c0.1,0.1,0.2,0.3,0.2,0.5l-0.2,0.1c-0.1-0.2-0.1-0.3-0.2-0.5L139.6,31.7z M140.8,30.9
	c-0.2-0.2-0.5-0.4-0.6-0.6c-0.2,0.2-0.4,0.4-0.6,0.6H140.8z M140.5,32.1c0.1-0.2,0.2-0.3,0.3-0.5l0.2,0.1c-0.1,0.2-0.2,0.3-0.3,0.5
	L140.5,32.1z"/>
<path d="M142.7,32.2h0.2c0.4-0.1,0.6-0.4,0.6-0.8c0-0.4-0.3-0.7-0.7-0.7c0,0,0,0,0,0c0,0.2-0.1,0.5-0.1,0.7
	c-0.2,0.5-0.4,0.8-0.6,0.8s-0.5-0.3-0.5-0.7c0.1-0.6,0.5-1,1.1-1c0.5,0,1,0.4,1,0.9c0,0,0,0,0,0.1c0,0.6-0.4,1-1,1l0,0L142.7,32.2z
	 M142.5,31.3c0.1-0.2,0.1-0.5,0.1-0.7c-0.4,0-0.8,0.4-0.8,0.8c0,0.3,0.1,0.5,0.3,0.5S142.4,31.7,142.5,31.3L142.5,31.3z"/>
<path d="M136.9,35.1c0.2,0.2,0.4,0.3,0.7,0.3c0.3,0,0.9,0,1.2,0c0,0.1-0.1,0.1-0.1,0.2c-0.3,0-0.8,0-1.1,0c-0.3,0-0.6-0.1-0.8-0.3
	l-0.4,0.3l-0.1-0.2c0.1-0.1,0.3-0.2,0.4-0.3v-0.7h-0.3v-0.2h0.5L136.9,35.1z M136.8,33.8c-0.1-0.2-0.3-0.3-0.4-0.4l0.1-0.1
	c0.2,0.1,0.3,0.3,0.4,0.4L136.8,33.8z M137.4,34.1c0,0.4-0.1,0.8-0.3,1.1c0,0-0.1-0.1-0.2-0.1c0.2-0.3,0.3-0.7,0.3-1.1v-0.6h1.4v0.2
	h-1.2v0.4h1h0.1c-0.1,0.3-0.2,0.6-0.4,0.8c0.2,0.2,0.4,0.3,0.6,0.3c0,0-0.1,0.1-0.1,0.2c-0.2-0.1-0.4-0.2-0.6-0.4
	c-0.2,0.1-0.4,0.3-0.6,0.3c0-0.1-0.1-0.1-0.1-0.2c0.2-0.1,0.4-0.2,0.5-0.3C137.7,34.5,137.6,34.3,137.4,34.1L137.4,34.1z
	 M137.7,34.1c0.1,0.2,0.2,0.4,0.3,0.6c0.1-0.2,0.3-0.4,0.3-0.6H137.7z"/>
<path d="M139.5,35.1c0.2,0.2,0.4,0.3,0.7,0.3c0.3,0,0.9,0,1.2,0c0,0.1,0,0.1-0.1,0.2c-0.3,0-0.8,0-1.1,0c-0.3,0-0.6-0.1-0.7-0.3
	l-0.4,0.3l-0.1-0.2c0.1-0.1,0.2-0.2,0.4-0.3v-0.7H139v-0.2h0.5L139.5,35.1z M139.4,33.8c-0.1-0.2-0.3-0.3-0.4-0.4l0.1-0.1
	c0.2,0.1,0.3,0.3,0.4,0.4L139.4,33.8z M141.3,34h-1.7v-0.2h1.7V34z M140.3,35.3v-0.5c-0.2,0.1-0.4,0.3-0.6,0.3c0,0-0.1-0.1-0.1-0.1
	c0.2-0.1,0.5-0.2,0.7-0.4h-0.5v-0.5h1.3v0.4l0,0l0.1,0.1c-0.1,0.1-0.2,0.2-0.4,0.3c0.1,0.1,0.3,0.1,0.4,0.1c0,0-0.1,0.1-0.1,0.2
	c-0.3-0.1-0.5-0.2-0.7-0.4v0.4L140.3,35.3z M141.1,33.8h-1.4v-0.5h1.4V33.8z M140.1,33.4h-0.3v0.2h0.3V33.4z M140,34.5h0.9v-0.2H140
	L140,34.5z M140.6,33.4h-0.3v0.2h0.3V33.4z M140.5,34.6c0.1,0.1,0.2,0.2,0.3,0.2l0.3-0.2L140.5,34.6L140.5,34.6z M141,33.4h-0.3v0.2
	h0.3L141,33.4z"/>
<path d="M168.6,30.2c-0.1,0.2-0.2,0.4-0.3,0.5v1.8h-0.2V31c-0.1,0.1-0.2,0.2-0.3,0.3c0-0.1-0.1-0.1-0.1-0.2c0.3-0.3,0.5-0.6,0.7-1
	L168.6,30.2z M170.2,30.6v0.2h-1.7v-0.2H170.2z M168.7,31.6h1.3v0.8h-0.2v-0.1h-0.9v0.1h-0.2V31.6z M170,31.1h-1.3v-0.2h1.3
	L170,31.1z M168.7,31.3h1.3v0.2h-1.3L168.7,31.3z M169.9,30.4h-1.2v-0.2h1.2V30.4z M168.9,31.8v0.4h0.9v-0.4H168.9z"/>
<path d="M171.4,30.7h-1v-0.2h1V30.7z M171.3,32.3h-0.6v0.1h-0.2v-0.9h0.8V32.3z M170.5,30.9h0.8V31h-0.8V30.9z M170.5,31.2h0.8v0.2
	h-0.8V31.2z M171.3,30.4h-0.8v-0.2h0.8V30.4z M170.7,31.7v0.4h0.5v-0.4L170.7,31.7z M172.5,32.3c0.1,0,0.1-0.1,0.1-0.4
	c0.1,0,0.1,0.1,0.2,0.1c0,0.4-0.1,0.5-0.3,0.5h-0.3c-0.2,0-0.3-0.1-0.3-0.3v-0.8l-0.5,0.1v-0.2l0.5-0.1v-0.7l-0.4,0.1
	c0-0.1,0-0.1-0.1-0.2c0.4-0.1,0.7-0.1,1.1-0.3l0.2,0.1c-0.2,0.1-0.4,0.1-0.6,0.2v0.7l0.6-0.1v0.2l-0.7,0.1v0.8c0,0.1,0,0.1,0.1,0.1
	L172.5,32.3z"/>
<path d="M173.5,31.9c-0.1,0.2-0.2,0.4-0.4,0.6l-0.2-0.1c0.1-0.1,0.3-0.3,0.3-0.5L173.5,31.9z M174,31.8h-0.9v-1.6h0.9L174,31.8z
	 M173.8,30.4h-0.5v0.3h0.5V30.4z M173.8,30.8h-0.5v0.3h0.5V30.8z M173.8,31.3h-0.5v0.3h0.5V31.3z M173.8,31.9
	c0.1,0.1,0.2,0.3,0.3,0.4l-0.2,0.1c-0.1-0.2-0.2-0.3-0.3-0.4L173.8,31.9z M175.4,30.9H175v1.3c0,0.1,0,0.2-0.1,0.2
	c-0.1,0-0.3,0-0.4,0c0-0.1,0-0.1-0.1-0.2h0.3c0,0,0.1,0,0.1-0.1v-1c-0.2,0.4-0.4,0.7-0.7,0.9c0-0.1-0.1-0.1-0.1-0.1
	c0.3-0.3,0.6-0.6,0.7-1h-0.7v-0.2h0.8v-0.6h0.2v0.6h0.3L175.4,30.9z"/>
<path d="M177.9,30.9V31H176v0.2c0,0.4-0.1,0.8-0.3,1.2c0,0-0.1-0.1-0.1-0.1c0.2-0.3,0.3-0.7,0.2-1.1v-0.4h0.5c0-0.1-0.1-0.2-0.1-0.3
	h0.1h-0.5v-0.2h0.9v-0.2h0.2v0.2h0.9v0.2h-0.4h0.1c-0.1,0.1-0.1,0.2-0.2,0.4L177.9,30.9z M177.1,32.2h0.9v0.2h-1.9v-0.2h0.8v-0.3
	h-0.6v-0.2h0.6v-0.3h-0.5c-0.1,0.1-0.1,0.2-0.2,0.2l-0.1-0.1c0.2-0.2,0.3-0.3,0.3-0.5h0.2c0,0.1-0.1,0.1-0.1,0.2h0.4v-0.2h0.2v0.2
	h0.7v0.2h-0.7v0.3h0.6v0.2h-0.6L177.1,32.2z M176.4,30.5c0.1,0.1,0.1,0.2,0.1,0.3h-0.1h0.8h-0.1c0.1-0.1,0.1-0.2,0.1-0.3H176.4z"/>
<path d="M179.3,32.2h0.2c0.4-0.1,0.6-0.4,0.6-0.8c0-0.4-0.3-0.7-0.7-0.7c0,0,0,0,0,0c0,0.2-0.1,0.5-0.1,0.7
	c-0.2,0.5-0.4,0.8-0.6,0.8s-0.5-0.3-0.5-0.7c0.1-0.6,0.5-1,1.1-1c0.5,0,1,0.4,1,0.9c0,0,0,0,0,0.1c0,0.6-0.4,1-1,1l0,0L179.3,32.2z
	 M179.1,31.3c0.1-0.2,0.1-0.5,0.1-0.7c-0.4,0-0.8,0.4-0.8,0.8c0,0.3,0.1,0.5,0.3,0.5S179,31.7,179.1,31.3L179.1,31.3z"/>
<path d="M172.2,35.1c0.2,0.2,0.4,0.3,0.7,0.3c0.3,0,0.9,0,1.2,0c0,0.1-0.1,0.1-0.1,0.2c-0.3,0-0.8,0-1.1,0c-0.3,0-0.6-0.1-0.8-0.3
	l-0.4,0.3l-0.1-0.2c0.1-0.1,0.3-0.2,0.4-0.3v-0.7h-0.3v-0.2h0.5L172.2,35.1z M172.1,33.8c-0.1-0.2-0.3-0.3-0.4-0.4l0.1-0.1
	c0.2,0.1,0.3,0.3,0.4,0.4L172.1,33.8z M172.7,34.1c0,0.4-0.1,0.8-0.3,1.1c0,0-0.1-0.1-0.2-0.1c0.2-0.3,0.3-0.7,0.3-1.1v-0.6h1.4v0.2
	h-1.2v0.4h1h0.1c-0.1,0.3-0.2,0.6-0.4,0.8c0.2,0.2,0.4,0.3,0.6,0.3c0,0-0.1,0.1-0.1,0.2c-0.2-0.1-0.4-0.2-0.6-0.4
	c-0.2,0.1-0.4,0.3-0.6,0.3c0-0.1-0.1-0.1-0.1-0.2c0.2-0.1,0.4-0.2,0.5-0.3C173,34.5,172.9,34.3,172.7,34.1L172.7,34.1z M173,34.1
	c0.1,0.2,0.2,0.4,0.3,0.6c0.1-0.2,0.3-0.4,0.3-0.6H173z"/>
<path d="M174.8,35.1c0.2,0.2,0.4,0.3,0.7,0.3c0.3,0,0.9,0,1.2,0c0,0.1,0,0.1-0.1,0.2c-0.3,0-0.8,0-1.1,0c-0.3,0-0.6-0.1-0.7-0.3
	l-0.4,0.3l-0.1-0.2c0.1-0.1,0.2-0.2,0.4-0.3v-0.7h-0.3v-0.2h0.5L174.8,35.1z M174.7,33.8c-0.1-0.2-0.3-0.3-0.4-0.4l0.1-0.1
	c0.2,0.1,0.3,0.3,0.4,0.4L174.7,33.8z M176.6,34h-1.7v-0.2h1.7V34z M175.6,35.3v-0.5c-0.2,0.1-0.4,0.3-0.6,0.3c0,0-0.1-0.1-0.1-0.1
	c0.2-0.1,0.5-0.2,0.7-0.4h-0.5v-0.5h1.3v0.4l0,0l0.1,0.1c-0.1,0.1-0.2,0.2-0.4,0.3c0.1,0.1,0.3,0.1,0.4,0.1c0,0-0.1,0.1-0.1,0.2
	c-0.3-0.1-0.5-0.2-0.7-0.4v0.4L175.6,35.3z M176.4,33.8H175v-0.5h1.4L176.4,33.8z M175.4,33.4h-0.3v0.2h0.3V33.4z M175.3,34.5h0.9
	v-0.2h-0.9V34.5z M175.9,33.4h-0.3v0.2h0.3V33.4z M175.8,34.6c0.1,0.1,0.2,0.2,0.3,0.2l0.3-0.2L175.8,34.6L175.8,34.6z M176.3,33.4
	H176v0.2h0.3L176.3,33.4z"/>
<path d="M152.8,29c-0.1,0.2-0.2,0.4-0.4,0.5c0.2,0.1,0.5,0.2,0.7,0.2c0,0-0.1,0.1-0.1,0.1c-0.3,0-0.5-0.1-0.7-0.2
	c-0.2,0.1-0.5,0.2-0.8,0.2c0,0,0-0.1-0.1-0.1c0.2,0,0.5-0.1,0.7-0.2c-0.2-0.1-0.3-0.2-0.4-0.4h-0.1V29h1H152.8z M151.5,29h-0.1v-0.4
	h0.3c0-0.1-0.1-0.2-0.1-0.2h0.1c0.1,0.1,0.1,0.2,0.1,0.2h-0.1h0.8c0.1-0.1,0.1-0.2,0.2-0.3h0.1c-0.1,0.1-0.1,0.2-0.2,0.3h0.3V29
	h-0.1v-0.2h-1.3V29z M152.9,28.2c-0.5,0.1-1,0.1-1.4,0.1c0,0,0-0.1,0-0.1c0.5,0,0.9-0.1,1.4-0.1L152.9,28.2z M151.9,29.1
	c0.1,0.1,0.2,0.2,0.4,0.3c0.1-0.1,0.3-0.2,0.4-0.3H151.9z M152.2,28.6c0-0.1,0-0.2-0.1-0.3h0.1c0,0.1,0.1,0.2,0.1,0.3H152.2z"/>
<path d="M154.4,28.6c0.1,0.2,0.3,0.4,0.6,0.5c0,0-0.1,0.1-0.1,0.1l-0.2-0.1v0.5h0.2v0.1h-1.7v-0.1h0.3v-0.5l-0.2,0.1l-0.1-0.1
	c0.2-0.1,0.4-0.3,0.6-0.5h-0.5v-0.1h0.5c-0.1-0.1-0.1-0.2-0.2-0.3l0.1,0c0.1,0.1,0.2,0.2,0.2,0.3h-0.1h0.6h-0.1
	c0.1-0.1,0.2-0.2,0.2-0.4h0.1c-0.1,0.1-0.2,0.2-0.2,0.4h0.5v0.1L154.4,28.6z M154.6,29.1c-0.2-0.1-0.3-0.3-0.4-0.5h-0.3
	c-0.1,0.2-0.2,0.3-0.4,0.5H154.6z M153.8,29.2h-0.2v0.4h0.2V29.2z M154.2,29.2H154v0.4h0.2V29.2z M154.5,29.6v-0.4h-0.2v0.4H154.5z"
	/>
<path d="M156,28.8l-0.3,0.2h0.8v0.8h-0.1v0h-0.8v0.1h-0.1v-0.6l-0.3,0.1l-0.1-0.1c0.3-0.1,0.5-0.2,0.8-0.4h-0.7v-0.1h0.6v-0.2h-0.5
	v-0.1h0.5v-0.2h0.1v0.2h0.5v0.1c0.1-0.1,0.1-0.2,0.2-0.2l0.1,0.1c-0.1,0.2-0.3,0.3-0.4,0.5h0.5v0.1L156,28.8z M156.3,29.1h-0.8v0.2
	h0.8V29.1z M156.3,29.6v-0.2h-0.8v0.2H156.3z M156,28.7c0.1-0.1,0.2-0.2,0.3-0.2h-0.4v0.2H156z"/>
<path d="M157.6,28.2c-0.1,0.1-0.1,0.3-0.2,0.4v1.3h-0.1v-1.1c-0.1,0.1-0.1,0.2-0.2,0.3l-0.1-0.1c0.2-0.2,0.4-0.5,0.5-0.8L157.6,28.2
	z M158.1,28.8c0.1,0.5,0.2,0.8,0.4,0.8s0.1-0.1,0.1-0.3l0.1,0.1c0,0.3-0.1,0.4-0.2,0.4c-0.3,0-0.4-0.4-0.5-1l-0.4,0.1v-0.1l0.4-0.1
	c0-0.2,0-0.4,0-0.5h0.1c0,0.2,0,0.4,0,0.5l0.6-0.1v0.1L158.1,28.8z M158.5,28.5c-0.1-0.1-0.2-0.2-0.3-0.3l0.1-0.1
	c0.1,0.1,0.2,0.2,0.3,0.3L158.5,28.5z"/>
<path d="M159.4,29.4l-0.6,0.2v-0.1l0.2-0.1v-0.5h-0.2v-0.1h0.2v-0.4h-0.2v-0.1h0.6v0.1h-0.2v0.4h0.2v0.1h-0.2v0.5l0.2-0.1
	L159.4,29.4z M160.5,29.6v0.1h-1.2v-0.1h0.6v-0.2h-0.4v-0.1h0.4V29h-0.4v-0.8h0.9V29H160v0.2h0.4v0.1H160v0.2L160.5,29.6z
	 M159.6,28.5h0.3v-0.2h-0.3V28.5z M159.6,28.9h0.3v-0.2h-0.3V28.9z M160.3,28.3H160v0.2h0.3L160.3,28.3z M160.3,28.7H160v0.2h0.3
	L160.3,28.7z"/>
<path d="M161.5,28.1C161.5,28.1,161.5,28.2,161.5,28.1c0,0.7,0.3,1.2,0.8,1.5c0,0-0.1,0.1-0.1,0.1c-0.4-0.2-0.7-0.6-0.8-1.1
	c-0.1,0.4-0.3,0.8-0.7,1.1c0,0-0.1-0.1-0.1-0.1c0.5-0.3,0.8-0.9,0.8-1.5L161.5,28.1z"/>
<path d="M155.4,31.2c0-0.3,0.1-0.6,0.4-0.9l0.1,0.1c-0.5,0.5-0.5,1.2,0,1.6c0,0,0,0,0,0l-0.1,0.1C155.5,31.8,155.4,31.5,155.4,31.2z
	"/>
<path d="M157.3,31.8c0.1,0,0.2-0.1,0.2-0.4l0.1,0c0,0.4-0.1,0.5-0.3,0.5h-0.8c-0.3,0-0.4-0.1-0.4-0.3s0-0.3,1-1.1h-1v-0.1h1.2
	l0.1,0.1l0,0c-1.1,0.9-1.1,1-1.1,1.1s0.1,0.1,0.2,0.1L157.3,31.8z"/>
<path d="M158.3,31.2c0,0.3-0.1,0.6-0.4,0.9l-0.1-0.1c0.5-0.5,0.5-1.2,0-1.6c0,0,0,0,0,0l0.1-0.1C158.1,30.5,158.3,30.8,158.3,31.2z"
	/>
<path d="M154.3,54.4v-1.3h0.4c0.1,0,0.2,0,0.3,0.1c0.1,0.1,0.1,0.2,0.1,0.3c0,0.1,0,0.1-0.1,0.2c0,0-0.1,0.1-0.1,0.1
	c0.1,0,0.1,0.1,0.2,0.1c0,0.1,0.1,0.1,0.1,0.2c0,0.1,0,0.2-0.1,0.3c-0.1,0.1-0.2,0.1-0.3,0.1L154.3,54.4z M154.5,53.7h0.3
	c0.1,0,0.1,0,0.2,0c0,0,0.1-0.1,0.1-0.2c0-0.1,0-0.1-0.1-0.2c-0.1,0-0.1-0.1-0.2,0h-0.2L154.5,53.7z M154.5,53.8v0.5h0.3
	c0.1,0,0.1,0,0.2-0.1c0,0,0.1-0.1,0.1-0.2c0-0.1,0-0.1-0.1-0.2c0,0-0.1-0.1-0.2-0.1H154.5z"/>
<path d="M155.7,53.2h-0.2V53h0.2V53.2z M155.7,54.4h-0.2v-1h0.2V54.4z"/>
<path d="M156.1,53.5v0.2c0,0,0.1-0.1,0.1-0.1c0.1,0,0.1,0,0.2,0c0.1,0,0.2,0,0.2,0.1c0.1,0.1,0.1,0.2,0.1,0.3v0.6h-0.2v-0.6
	c0-0.1,0-0.1-0.1-0.2c0,0-0.1-0.1-0.2,0c0,0-0.1,0-0.1,0c0,0-0.1,0.1-0.1,0.1v0.7H156v-1L156.1,53.5z"/>
<path d="M157.6,54.4L157.6,54.4c0-0.1,0-0.1,0-0.2c0,0-0.1,0.1-0.1,0.1c-0.1,0-0.1,0-0.2,0c-0.1,0-0.2,0-0.2-0.1
	c-0.1-0.1-0.1-0.1-0.1-0.2c0-0.1,0-0.2,0.1-0.2c0.1-0.1,0.2-0.1,0.3-0.1h0.2v-0.1c0-0.1,0-0.1-0.1-0.1c0,0-0.1-0.1-0.1,0
	c0,0-0.1,0-0.1,0c0,0-0.1,0.1-0.1,0.1H157c0-0.1,0-0.2,0.1-0.2c0.1-0.1,0.2-0.1,0.3-0.1c0.1,0,0.2,0,0.3,0.1
	c0.1,0.1,0.1,0.1,0.1,0.2v0.5c0,0,0,0.1,0,0.1c0,0,0,0.1,0,0.1L157.6,54.4z M157.3,54.3c0.1,0,0.1,0,0.2,0c0,0,0.1-0.1,0.1-0.1V54
	h-0.2c-0.1,0-0.1,0-0.2,0c0,0-0.1,0.1-0.1,0.1c0,0,0,0.1,0,0.1C157.2,54.3,157.3,54.3,157.3,54.3z"/>
<path d="M158.5,53.6L158.5,53.6c-0.1,0-0.2,0-0.2,0c0,0-0.1,0.1-0.1,0.1v0.7H158v-1h0.2v0.1c0,0,0.1-0.1,0.1-0.1c0,0,0.1,0,0.1,0
	h0.1L158.5,53.6z"/>
<path d="M159,54.1v0.1l0,0l0.2-0.7h0.2l-0.4,1.1c0,0.1-0.1,0.1-0.1,0.2c-0.1,0-0.1,0.1-0.2,0.1h-0.1v-0.1h0.1c0,0,0.1,0,0.1,0
	c0,0,0-0.1,0.1-0.1v-0.1l-0.4-1h0.2L159,54.1z"/>
<path d="M153.8,56.1c0-0.1-0.1-0.2-0.1-0.3v1h-0.1v-0.9c-0.1,0.2-0.1,0.4-0.2,0.5c0,0,0-0.1-0.1-0.1c0.1-0.2,0.2-0.5,0.3-0.7h-0.2
	v-0.1h0.3v-0.4h0.1v0.4h0.2v0.1h-0.2v0.1L153.8,56.1L153.8,56.1z M154.5,56c0.1,0.2,0.2,0.4,0.4,0.6c0,0-0.1,0.1-0.1,0.1
	C154.7,56.5,154.5,56.3,154.5,56l-0.1,0.8h-0.1v-0.7c-0.1,0.2-0.3,0.4-0.4,0.6c0,0-0.1-0.1-0.1-0.1c0.2-0.1,0.4-0.3,0.5-0.6h-0.4
	v-0.1h0.4v-0.3h-0.2c0,0.1-0.1,0.2-0.1,0.3l-0.1-0.1c0.1-0.2,0.2-0.4,0.2-0.6h0.1c0,0.1,0,0.2,0,0.2h0.2v-0.3h0.1v0.3h0.4v0.1h-0.4
	v0.3h0.4V56L154.5,56z"/>
<path d="M156.2,55.6c0,0.6,0.2,1.1,0.4,1.1s0.1-0.1,0.1-0.3c0,0,0.1,0.1,0.1,0.1c0,0.3-0.1,0.4-0.2,0.4c-0.3,0-0.4-0.5-0.5-1.2h-1
	v-0.1h1c0-0.1,0-0.2,0-0.3h0.1c0,0.1,0,0.2,0,0.3h0.6v0.1L156.2,55.6z M155.6,56.5l0.4-0.1v0.1l-0.9,0.2v-0.1l0.4-0.1V56h-0.3v-0.1
	h0.8V56h-0.4L155.6,56.5z M156.6,55.4c-0.1-0.1-0.2-0.2-0.3-0.2l0.1-0.1c0.1,0.1,0.2,0.1,0.3,0.2L156.6,55.4z"/>
<path d="M157.8,55.1c0.2,0.3,0.5,0.5,0.8,0.6l-0.1,0.1c-0.3-0.1-0.6-0.4-0.8-0.6c-0.2,0.3-0.5,0.5-0.8,0.6c0,0,0-0.1-0.1-0.1
	c0.3-0.2,0.6-0.4,0.8-0.7L157.8,55.1z M157,56h1.5v0.1h-0.9c-0.1,0.1-0.1,0.3-0.2,0.4h0.8c-0.1-0.1-0.2-0.2-0.2-0.2l0.1-0.1
	c0.2,0.1,0.3,0.3,0.4,0.5l-0.1,0.1l-0.1-0.1l-1.2,0v-0.1h0.3c0.1-0.1,0.1-0.3,0.2-0.4H157V56z M158.2,55.7v0.1h-0.9v-0.1H158.2z"/>
<path d="M159.5,56.3l-0.2-0.2v0.8h-0.1v-0.7c-0.1,0.1-0.2,0.2-0.3,0.2c0,0,0-0.1-0.1-0.1c0.2-0.1,0.4-0.4,0.6-0.6h-0.5v-0.1h0.3
	v-0.3h0.1v0.3h0.2l0.1,0c-0.1,0.1-0.1,0.3-0.2,0.4l0.3,0.2L159.5,56.3z M160.5,56.6v0.1h-1v-0.1h0.5v-0.8h-0.4v-0.1h0.4v-0.6h0.1
	v0.6h0.4v0.1h-0.4v0.8H160.5z"/>
<polygon class="st3" points="135.9,25 135.9,23.8 134.5,25.3 135.9,26.8 135.9,25.6 142.9,25.6 142.9,25 "/>
<polygon class="st3" points="171.3,25 171.3,23.8 169.8,25.3 171.3,26.8 171.3,25.6 178.3,25.6 178.3,25 "/>
<circle class="st0" cx="191.4" cy="25.1" r="8.6"/>
<path d="M190.1,28.2v1.5H190v-0.1h-1v0.1h-0.1v-1.6H190.1z M189,28.4v0.5h1v-0.5H189z M190,29.5V29h-1v0.5L190,29.5z"/>
<path d="M191.2,28.5h-0.7v-0.1h0.7V28.5z M191.1,29.7h-0.4v0.1h-0.1v-0.6h0.5V29.7z M191.1,28.8h-0.5v-0.1h0.5V28.8z M190.6,28.9
	h0.5V29L190.6,28.9L190.6,28.9z M191.1,28.3h-0.5v-0.1h0.5V28.3z M190.7,29.3v0.3h0.3v-0.3H190.7z M192.2,29.6v0.1h-1v-0.1h0.1v-0.9
	h0.1v0.9h0.2v-1.3h-0.4v-0.1h0.9v0.1h-0.4v0.5h0.4V29h-0.4v0.6L192.2,29.6z"/>
<path d="M193.3,29.6h0.7v0.1h-1.6v-0.1h0.7v-0.5h-0.6V29h0.6v-0.2h-0.4v-0.1c-0.1,0.1-0.2,0.1-0.3,0.2c0,0,0-0.1-0.1-0.1
	c0.3-0.2,0.6-0.4,0.8-0.7h0.1c0.2,0.3,0.5,0.5,0.8,0.6c0,0-0.1,0.1-0.1,0.1c-0.1-0.1-0.2-0.1-0.3-0.2v0.1h-0.4V29h0.6v0.1h-0.6
	L193.3,29.6z M192.8,29.2c0.1,0.1,0.1,0.2,0.2,0.3l-0.1,0c0-0.1-0.1-0.2-0.2-0.3L192.8,29.2z M193.7,28.7c-0.2-0.1-0.3-0.3-0.5-0.4
	c-0.1,0.2-0.3,0.3-0.4,0.4H193.7z M193.4,29.5c0.1-0.1,0.1-0.2,0.2-0.3l0.1,0c-0.1,0.1-0.1,0.2-0.2,0.3L193.4,29.5z"/>
<path d="M188.3,30.4c-0.1,0.1-0.1,0.3-0.2,0.4V32H188v-1c-0.1,0.1-0.1,0.2-0.2,0.2c0,0,0-0.1-0.1-0.1c0.2-0.2,0.4-0.5,0.5-0.7
	L188.3,30.4z M189.4,30.7v0.1h-1.2v-0.1H189.4z M188.3,31.4h0.9V32h-0.1v-0.1h-0.7V32h-0.1V31.4z M189.3,31h-0.9v-0.1h0.9V31z
	 M188.4,31.2h0.9v0.1h-0.9V31.2z M189.2,30.5h-0.9v-0.1h0.9V30.5z M188.5,31.5v0.3h0.7v-0.3H188.5z"/>
<path d="M190.3,30.8h-0.7v-0.1h0.7V30.8z M190.2,31.9h-0.4V32h-0.1v-0.6h0.6L190.2,31.9z M189.7,30.9h0.6V31L189.7,30.9L189.7,30.9z
	 M189.7,31.2h0.6v0.1h-0.6V31.2z M190.2,30.5h-0.6v-0.1h0.6V30.5z M189.8,31.5v0.3h0.3v-0.3H189.8z M191.1,31.9
	c0.1,0,0.1-0.1,0.1-0.3c0,0,0.1,0,0.1,0.1c0,0.3-0.1,0.4-0.2,0.4h-0.2c-0.1,0-0.2,0-0.2-0.2v-0.5l-0.4,0.1v-0.1l0.4-0.1v-0.5
	l-0.3,0.1c0,0,0-0.1,0-0.1c0.3,0,0.5-0.1,0.8-0.2l0.1,0.1c-0.1,0.1-0.3,0.1-0.4,0.1v0.5l0.5-0.1v0.1l-0.5,0.1v0.6
	c0,0.1,0,0.1,0.1,0.1H191.1z"/>
<path d="M192.2,31.8l-0.7,0.1v-0.1l0.3-0.1v-0.6h-0.3v-0.1h0.3v-0.2h-0.2v-0.1l-0.1,0.1l-0.1-0.1c0.2-0.1,0.3-0.3,0.4-0.5h0.1
	c0.1,0.1,0.2,0.2,0.3,0.3l-0.1,0.1c-0.1-0.1-0.2-0.2-0.3-0.3c-0.1,0.1-0.1,0.2-0.2,0.3h0.5v0.1h-0.2v0.2h0.3v0.1h-0.3v0.5l0.3-0.1
	L192.2,31.8z M191.6,31.3c0,0.1,0.1,0.2,0.1,0.3h-0.1c0-0.1,0-0.2-0.1-0.4L191.6,31.3z M192,31.6c0-0.1,0.1-0.2,0.1-0.3h0.1
	C192.2,31.4,192.1,31.5,192,31.6L192,31.6z M193.1,31.4c-0.1,0.1-0.2,0.2-0.3,0.2c0.1,0.1,0.2,0.3,0.3,0.3c0,0-0.1,0.1-0.1,0.1
	c-0.3-0.2-0.5-0.5-0.5-0.8h-0.2v0.6l0.3-0.1v0.1l-0.6,0.1v-0.1h0.2v-1.5h0.7v0.8h-0.4c0,0.1,0.1,0.2,0.1,0.3
	c0.1-0.1,0.2-0.1,0.2-0.2L193.1,31.4z M192.4,30.5v0.2h0.5v-0.2H192.4z M192.4,31.1h0.5v-0.2h-0.5V31.1z"/>
<path d="M193.9,30.8c-0.1,0.1-0.1,0.2-0.2,0.3v1h-0.1v-0.9l-0.2,0.2l-0.1-0.1c0.2-0.2,0.4-0.3,0.5-0.6L193.9,30.8z M193.8,30.4
	c-0.1,0.2-0.3,0.3-0.5,0.5l-0.1-0.1c0.2-0.1,0.3-0.2,0.4-0.4L193.8,30.4z M195,31.1h-0.3v0.8c0,0.1,0,0.1-0.1,0.2
	c-0.1,0-0.2,0-0.4,0c0,0,0-0.1,0-0.1h0.3l0,0v-0.8h-0.6V31h1L195,31.1z M194.9,30.6H194v-0.1h0.9L194.9,30.6z"/>
<path class="st2" d="M190,22h0.8v0.9c0.1-0.1,0.2-0.1,0.3-0.2v-1h-1.3v4h0.3v-0.3l0,0V22z"/>
<path class="st2" d="M190.9,23.6v0.2h0.1v-0.5C190.9,23.4,190.9,23.5,190.9,23.6z"/>
<path class="st2" d="M192.1,21.8h-0.3v1c0.1,0,0.2,0.1,0.3,0.2V22h0.8v3.5h-0.1v0.3h0.4v-4L192.1,21.8L192.1,21.8z"/>
<path class="st2" d="M191.8,23.9h0.1v-0.2c0-0.1-0.1-0.2-0.1-0.3V23.9z"/>
<path class="st2" d="M195.1,22v-1.2l-3.7-1.5l-3.7,1.5V22h0.9v3.5h-0.9v1.2h7.4v-1.2h-0.9V22H195.1z M194.1,25.7h0.6v0.7H188v-0.7
	h0.9v-4H188V21l3.4-1.4l3.4,1.4v0.8h-0.9v4L194.1,25.7z"/>
<path class="st4" d="M192.4,24.1h-0.2v-0.5c0-0.4-0.4-0.8-0.8-0.8h-0.1c-0.4,0-0.8,0.4-0.8,0.8v0.5h-0.2c-0.1,0-0.1,0.1-0.1,0.1v1.6
	c0,0.1,0.1,0.1,0.1,0.1h2.1c0.1,0,0.1-0.1,0.1-0.1v-1.6C192.6,24.2,192.5,24.1,192.4,24.1z M191.4,25.1v0.4h-0.1v-0.4
	c-0.1,0-0.2-0.1-0.1-0.3c0-0.1,0.1-0.2,0.3-0.1s0.2,0.1,0.1,0.3C191.6,25.1,191.5,25.1,191.4,25.1z M192.1,24.1h-1.4v-0.5
	c0-0.4,0.3-0.6,0.6-0.6h0.1c0.4,0,0.6,0.3,0.6,0.6L192.1,24.1z"/>
<circle class="st0" cx="45" cy="58" r="8.6"/>
<circle class="st0" cx="8.6" cy="25.1" r="8.6"/>
<path class="st2" d="M9.7,23.1c0.1-0.1,0.2-0.2,0.2-0.3l0.1-0.2c0.1-0.1,0.1-0.2,0.1-0.3v-0.1c0.1,0,0.2-0.1,0.2-0.2
	c0.1-0.1,0.1-0.3,0.1-0.4c0-0.1,0-0.1-0.1-0.2l-0.1-0.1c0-0.1,0-0.2,0-0.2c0-0.2-0.1-0.4-0.1-0.6l-0.1-0.2c-0.3-0.6-0.9-1-1.5-1
	c-0.7,0-1.2,0.4-1.5,1L7,20.5c0,0.1-0.1,0.2-0.1,0.3c0,0.1-0.1,0.3-0.1,0.5l0,0c-0.1,0.1-0.2,0.3-0.2,0.5c0,0,0,0.1,0,0.1
	c0.1,0.1,0.2,0.3,0.3,0.3c0,0.1,0.1,0.2,0.2,0.3l0.1,0.2c0.1,0.1,0.2,0.2,0.2,0.3l0.2,0.1c0.5,0.4,1.3,0.4,1.8,0L9.7,23.1z
	 M7.3,20.8c0-0.1,0-0.1,0.1-0.2c0.2-0.5,0.7-0.8,1.2-0.8c0.5,0,1,0.4,1.2,0.8c0,0.1,0.1,0.1,0.1,0.2c0,0.1,0,0.1,0.1,0.2l-0.2,0
	l-0.2-0.1c-0.2-0.1-0.4-0.3-0.5-0.5l-0.2-0.4l-0.2,0.4c-0.2,0.4-0.6,0.6-1,0.7H7.5H7.3C7.3,20.9,7.3,20.9,7.3,20.8z M9.3,22.9
	c-0.4,0.3-0.9,0.3-1.3,0l-0.2-0.1c-0.1-0.1-0.2-0.2-0.2-0.3c-0.1-0.1-0.2-0.3-0.2-0.4l0,0v-0.1H7.2C7.1,22,7,21.9,7,21.8
	c0,0,0,0,0,0c0-0.1,0-0.1,0.1-0.2l0,0l0.1-0.1v-0.1h0.1h0.3h0.2c0.4-0.1,0.7-0.3,1-0.6C9,21,9.2,21.2,9.3,21.3l0.2,0.1
	c0.1,0,0.2,0.1,0.3,0.1H10v0.1l0.1,0.1c0.1,0,0.1,0.1,0.1,0.2l0,0c0,0.1-0.1,0.1-0.1,0.1H9.9v0.1v0.1c-0.1,0.1-0.1,0.2-0.2,0.4
	c-0.1,0.1-0.1,0.2-0.2,0.3L9.3,22.9z"/>
<path class="st2" d="M7.9,23.9c-0.2,0.1-0.4,0.1-0.6,0.2l-0.2,0.1c-0.1,0.1-0.2,0.2-0.3,0.3l-0.2,0.2c-0.3,0.4-0.5,1-0.5,1.5v0.5
	h0.4v-0.5c0-0.5,0.2-1,0.5-1.4l0.2-0.1c0.1-0.1,0.2-0.2,0.3-0.2l0.2-0.1c0.1-0.1,0.3-0.1,0.4-0.1h0.1v-0.6H7.9V23.9z"/>
<path class="st2" d="M10.7,24.7l-0.1-0.2c-0.1-0.1-0.2-0.2-0.3-0.3L10,24.2c-0.2-0.1-0.4-0.2-0.6-0.2v-0.3H9v0.6h0.1
	c0.1,0,0.3,0.1,0.4,0.1l0.2,0.1c0.1,0.1,0.2,0.1,0.3,0.2l0.1,0.1c0.3,0.4,0.5,0.9,0.5,1.4v0.5h0.4v-0.5C11.2,25.7,11,25.2,10.7,24.7
	z"/>
<circle class="st0" cx="45" cy="25.1" r="8.6"/>
<path class="st1" d="M47.4,26.7h-4.7v-7.4h4.7V26.7z M43.1,26.3h4v-6.7h-4V26.3z"/>
<rect x="43.7" y="23.2" class="st1" width="1" height="1"/>
<rect x="45.4" y="23.2" class="st1" width="1" height="1"/>
<rect x="43.7" y="24.8" class="st1" width="1" height="1"/>
<rect x="45.4" y="24.8" class="st1" width="1" height="1"/>
<rect x="43.7" y="20.2" class="st1" width="1" height="1"/>
<rect x="45.4" y="20.2" class="st1" width="1" height="1"/>
<rect x="43.7" y="21.7" class="st1" width="1" height="1"/>
<rect x="45.4" y="21.7" class="st1" width="1" height="1"/>
<path d="M5.8,28.9c0.1,0,0.3-0.1,0.4-0.1c0.3,0,0.5,0.1,0.5,0.4s-0.1,0.4-0.4,0.4H6.1L6,29.5c0.1,0,0.1,0,0.2,0
	c0.2,0,0.3-0.1,0.3-0.3S6.4,29,6.2,29c-0.1,0-0.3,0-0.4,0.1c0,0.2,0,0.3,0,0.4s-0.1,0.2-0.2,0.2s-0.4-0.1-0.4-0.3s0.2-0.3,0.4-0.4
	v-0.1c0-0.1,0-0.2,0-0.2H5.3v-0.1h0.4c0-0.1,0-0.2,0-0.2c0,0,0-0.1,0-0.1h0.2c0,0,0,0.1,0,0.1s0,0.1,0,0.2c0.1,0,0.3,0,0.4-0.1v0.1
	l-0.4,0.1C5.9,28.7,5.9,28.8,5.8,28.9L5.8,28.9z M5.7,29.5c0-0.1,0-0.2,0-0.3c-0.2,0.1-0.3,0.2-0.3,0.3S5.6,29.5,5.7,29.5
	C5.7,29.5,5.7,29.5,5.7,29.5L5.7,29.5z M6.4,28.4c0.1,0.1,0.3,0.2,0.4,0.3l-0.1,0.1c-0.1-0.1-0.3-0.2-0.4-0.3L6.4,28.4z"/>
<path d="M8.4,28.6C8.3,28.8,8.1,28.9,8,29c0.2,0.1,0.5,0.2,0.7,0.2c0,0-0.1,0.1-0.1,0.1l-0.2,0v0.5H8.2v-0.1H7.5v0.1H7.3v-0.5
	l-0.3,0.1c0,0,0-0.1-0.1-0.1c0.2,0,0.5-0.1,0.7-0.2c-0.1-0.1-0.2-0.1-0.2-0.2c-0.1,0.1-0.2,0.1-0.3,0.2c0,0-0.1-0.1-0.1-0.1
	c0.2-0.1,0.4-0.2,0.5-0.4h0.2l-0.1,0.1h0.6L8.4,28.6z M7.2,28.6H7.1v-0.4h0.7v-0.2h0.1v0.2h0.7v0.4H8.5v-0.2H7.2L7.2,28.6z
	 M8.3,29.2c-0.2,0-0.3-0.1-0.4-0.2c-0.1,0.1-0.3,0.1-0.4,0.2H8.3z M8.2,29.6v-0.3H7.5v0.3H8.2z M7.6,28.7c0.1,0.1,0.2,0.2,0.3,0.2
	c0.1-0.1,0.2-0.1,0.3-0.2L7.6,28.7L7.6,28.7z"/>
<path d="M10.3,28.5l-0.4,0.1c0.1,0.1,0.2,0.4,0.2,0.5l-0.1,0.1l-0.4,0V29H10l-0.2-0.4c-0.3,0-0.5,0-0.8,0v-0.1c0.2,0,0.5,0,0.7,0
	l-0.1-0.1l-0.1-0.1h0.2l0.1,0.3l0.4-0.1L10.3,28.5z M9.3,29.1c0,0.1,0,0.2-0.1,0.2c0,0.2,0.1,0.3,0.4,0.3c0.2,0,0.3,0,0.5,0v0.1
	c-0.2,0-0.3,0-0.5,0c-0.3,0-0.5-0.1-0.5-0.4c0-0.1,0-0.2,0.1-0.3L9.3,29.1z"/>
<path d="M11.9,29.6c-0.1-0.1-0.3-0.2-0.4-0.3c0,0,0,0.1,0,0.1s-0.1,0.3-0.3,0.3s-0.4-0.1-0.4-0.3s0.2-0.3,0.4-0.3h0.1
	c0-0.1,0-0.2,0-0.2h-0.1h-0.5v-0.1c0.2,0,0.3,0,0.5,0h0.1v-0.3h-0.1h-0.4v-0.1c0.1,0,0.3,0,0.4,0h0.1v-0.1c0,0,0-0.1,0-0.1h0.2
	c0,0,0,0.1,0,0.1c0,0,0,0.1,0,0.1h0.5v0.1h-0.5v0.3H12v0.1h-0.5c0,0.1,0,0.2,0,0.3c0.2,0.1,0.4,0.2,0.5,0.3L11.9,29.6z M11.3,29.3
	h-0.2c-0.2,0-0.3,0.1-0.3,0.1s0.1,0.1,0.2,0.1s0.2,0,0.2-0.2S11.3,29.4,11.3,29.3z"/>
<path d="M0.9,2.7C1.1,3,1.4,3.1,1.7,3.1c0.4,0,1.1,0,1.5,0c0,0.1-0.1,0.2-0.1,0.2c-0.4,0-1.1,0-1.5,0C1.4,3.4,1,3.3,0.8,3
	C0.6,3.2,0.4,3.3,0.2,3.4L0.1,3.1C0.3,3,0.5,2.9,0.6,2.8V1.9H0.2V1.7h0.7V2.7z M0.8,1.1C0.6,0.9,0.4,0.7,0.2,0.6l0.2-0.1
	C0.6,0.6,0.8,0.8,0.9,1L0.8,1.1z M1.5,2.9H1.2V1.2h1C2,1.1,1.7,1,1.5,0.9l0.2-0.1L2.2,1c0.2-0.1,0.3-0.2,0.4-0.3H1.2V0.5h1.7L3,0.6
	C2.8,0.8,2.6,0.9,2.4,1.1l0.3,0.1H3v1.5c0,0.1,0,0.2-0.1,0.2c-0.1,0-0.3,0-0.5,0c0-0.1,0-0.1-0.1-0.2h0.3c0,0,0.1,0,0.1-0.1V2.3H2.2
	v0.6H2V2.4H1.5V2.9z M1.5,1.4v0.3H2V1.4L1.5,1.4z M2,2.2V1.9H1.5v0.3H2z M2.8,1.4H2.2v0.3h0.6L2.8,1.4z M2.8,2.2V1.9H2.2v0.3H2.8z"
	/>
<path d="M6.4,1.6H6.2V1.1H3.9v0.5H3.6V0.9h0.5C4.1,0.7,4,0.6,3.9,0.5l0.2-0.1c0.1,0.1,0.2,0.2,0.3,0.4L4.2,0.9h0.7V0.4h0.2v0.5h1.2
	V1.6z M6.2,3c0,0.1,0,0.2-0.1,0.2c-0.2,0-0.4,0-0.5,0c0-0.1-0.1-0.2-0.1-0.2h0.4C5.9,3.1,6,3,6,3V2.5H5.2v0.9H4.9V2.5H4.1v0.7H3.9
	v-1h1.1V2H4.2V1.3h1.7V2H5.2v0.3h1L6.2,3z M4.4,1.9h1.3V1.5H4.4V1.9z M6.1,0.5C6,0.6,5.9,0.8,5.8,0.9L5.6,0.8
	c0.1-0.1,0.2-0.3,0.3-0.4L6.1,0.5z"/>
<path d="M7.9,2.8H7.2V3H7V0.6h0.9V2.8z M7.2,0.8v0.7h0.5V0.8H7.2z M7.7,2.5V1.8H7.2v0.8H7.7z M9.5,1.6V2h0.4v0.2H9.5v0.9
	c0,0.1,0,0.2-0.1,0.2c-0.2,0-0.4,0-0.5,0c0-0.1,0-0.2-0.1-0.2h0.4c0.1,0,0.1,0,0.1-0.1V2.2H8V2h1.2V1.6H8V1.4h0.8V1H8.1V0.8h0.7V0.4
	H9v0.4h0.7V1H9v0.4h0.9v0.2L9.5,1.6z M8.4,2.3c0.2,0.2,0.3,0.4,0.4,0.6L8.6,3C8.5,2.8,8.3,2.6,8.2,2.4L8.4,2.3z"/>
<path d="M23.8,18.6c0,0.1,0,0.2,0,0.3c0,0.2,0.2,0.3,0.6,0.3c0.3,0,0.6,0,0.9-0.1v0.2c-0.3,0.1-0.6,0.1-0.9,0.1
	c-0.5,0-0.8-0.2-0.8-0.5c0-0.1,0-0.2,0-0.4L23.8,18.6z M23.7,17.6c0.2,0,0.5,0,0.7,0c0.2,0,0.5,0,0.7,0v0.2c-0.2,0-0.5,0-0.7,0
	s-0.5,0-0.7,0V17.6z M25.3,17.7l-0.1,0.1c-0.1-0.1-0.1-0.2-0.2-0.4l0.1-0.1C25.2,17.4,25.3,17.5,25.3,17.7L25.3,17.7z M25.6,17.6
	l-0.1,0.1c-0.1-0.1-0.1-0.2-0.2-0.4l0.1-0.1C25.5,17.3,25.6,17.4,25.6,17.6L25.6,17.6z"/>
<path d="M27,17.3c0,0.8,0.4,1.6,1.1,2c-0.1,0-0.1,0.1-0.2,0.2c-0.5-0.3-0.9-0.9-1-1.5c-0.1,0.6-0.5,1.1-1,1.5
	c-0.1-0.1-0.1-0.1-0.2-0.1c0.6-0.3,1-0.9,1-1.5h0.1c0-0.1,0-0.2,0-0.3h-0.6v-0.2L27,17.3z"/>
<path d="M29.5,19.3h1v0.2h-2.2v-0.2h1v-0.6h-0.9v-0.2h0.9v-0.4h-0.5V18c-0.1,0.1-0.3,0.2-0.4,0.3c0-0.1-0.1-0.1-0.1-0.1
	c0.4-0.2,0.8-0.5,1.1-0.9h0.2c0.3,0.4,0.7,0.7,1.1,0.9c0,0.1-0.1,0.1-0.1,0.2c-0.2-0.1-0.3-0.2-0.4-0.3v0.2h-0.6v0.4h0.9v0.2h-0.9
	L29.5,19.3z M28.8,18.7c0.1,0.1,0.2,0.3,0.2,0.5l-0.2,0.1c-0.1-0.2-0.1-0.3-0.2-0.5L28.8,18.7z M30.1,18c-0.2-0.2-0.5-0.4-0.6-0.6
	c-0.2,0.2-0.4,0.4-0.6,0.6H30.1z M29.7,19.2c0.1-0.2,0.2-0.3,0.3-0.5l0.2,0.1c-0.1,0.2-0.2,0.3-0.3,0.5L29.7,19.2z"/>
<path d="M36.6,45.4c-0.1,0.2-0.2,0.4-0.3,0.5v1.8h-0.2v-1.5c-0.1,0.1-0.2,0.2-0.3,0.3c0-0.1-0.1-0.1-0.1-0.2c0.3-0.3,0.5-0.6,0.7-1
	L36.6,45.4z M38.2,45.8v0.2h-1.7v-0.2H38.2z M36.7,46.9H38v0.8h-0.2v-0.1h-0.9v0.1h-0.2V46.9z M38,46.3h-1.3v-0.2H38V46.3z
	 M36.7,46.5H38v0.2h-1.3L36.7,46.5z M38,45.6h-1.2v-0.2h1.2L38,45.6z M36.9,47v0.4h0.9V47H36.9z"/>
<path d="M39.4,45.9h-1v-0.2h1V45.9z M39.3,47.5h-0.6v0.1h-0.2v-0.9h0.8V47.5z M38.5,46.1h0.8v0.2h-0.8V46.1z M38.5,46.4h0.8v0.2
	h-0.8V46.4z M39.3,45.6h-0.8v-0.2h0.8V45.6z M38.7,47v0.4h0.5V47H38.7z M40.5,47.5c0.1,0,0.1-0.1,0.1-0.4c0.1,0,0.1,0.1,0.2,0.1
	c0,0.4-0.1,0.5-0.3,0.5h-0.3c-0.2,0-0.3-0.1-0.3-0.3v-0.8l-0.5,0.1v-0.2l0.5-0.1v-0.7l-0.4,0.1c0-0.1,0-0.1-0.1-0.2
	c0.4-0.1,0.7-0.1,1.1-0.3l0.2,0.2c-0.2,0.1-0.4,0.1-0.6,0.2v0.7l0.7-0.1v0.2l-0.7,0.1v0.8c0,0.1,0,0.1,0.1,0.1L40.5,47.5z"/>
<path d="M41.5,45.3h0.2v2.4h-0.2v-1l-0.4,0.4L41,47c0.1-0.1,0.3-0.3,0.5-0.5L41.5,45.3z M41.3,46.2c-0.1-0.2-0.2-0.3-0.3-0.5
	l0.2-0.1c0.1,0.1,0.2,0.3,0.3,0.5L41.3,46.2z M42.6,46.2c0.1,0.5,0.3,1,0.8,1.3c-0.1,0-0.1,0.1-0.1,0.2c-0.4-0.3-0.6-0.7-0.7-1.1
	c-0.1,0.4-0.3,0.8-0.7,1.1c0,0-0.1-0.1-0.2-0.1c0.4-0.3,0.6-0.8,0.7-1.3h-0.6V46h0.6c0,0,0-0.1,0-0.2v-0.6h0.2v0.6c0,0,0,0.1,0,0.2
	h0.8v0.2H42.6z M43.1,45.9c-0.1-0.2-0.2-0.3-0.3-0.5l0.2-0.1c0.1,0.1,0.2,0.3,0.3,0.5L43.1,45.9z"/>
<path d="M44.1,46.4c-0.2-0.1-0.3-0.2-0.5-0.2l0.1-0.2c0.2,0.1,0.4,0.1,0.5,0.2L44.1,46.4z M44.4,46.8c-0.2,0.3-0.3,0.6-0.5,0.9
	l-0.2-0.1c0.2-0.3,0.4-0.6,0.5-0.9L44.4,46.8z M44.2,45.8c-0.1-0.1-0.3-0.2-0.5-0.3l0.1-0.1c0.2,0.1,0.3,0.1,0.5,0.2L44.2,45.8z
	 M45.7,47.5c0.1,0,0.1-0.1,0.1-0.4c0.1,0,0.1,0.1,0.2,0.1c0,0.4-0.1,0.5-0.2,0.5h-0.2c-0.2,0-0.2-0.1-0.2-0.3v-0.9H45
	c0,0.6-0.1,1-0.7,1.2c0-0.1-0.1-0.1-0.1-0.2c0.5-0.2,0.5-0.5,0.6-1h-0.3v-1.2h1.3v1.1h-0.4v0.9c0,0.1,0,0.1,0.1,0.1L45.7,47.5z
	 M44.7,46.3h1v-0.7h-1V46.3z"/>
<path d="M47.3,47.3h0.2c0.4-0.1,0.6-0.4,0.7-0.8c0-0.4-0.3-0.7-0.7-0.7c0,0,0,0,0,0c0,0.2-0.1,0.5-0.2,0.7c-0.2,0.5-0.4,0.8-0.6,0.8
	s-0.5-0.3-0.5-0.7c0.1-0.6,0.5-1,1.1-1c0.5,0,1,0.3,1,0.9c0,0,0,0.1,0,0.1c0,0.6-0.4,1-1,1L47.3,47.3z M47.1,46.5
	c0.1-0.2,0.1-0.5,0.1-0.7c-0.4,0-0.8,0.4-0.8,0.8c0,0.3,0.2,0.5,0.3,0.5S47,47,47.1,46.5z"/>
<path d="M51.1,47.6H50v0.1h-0.2v-1.2l-0.1,0.1l-0.1-0.1v0.9h-0.5v0.2h-0.2v-0.8c0,0.1-0.1,0.2-0.2,0.2c0-0.1-0.1-0.1-0.1-0.2
	c0.2-0.4,0.3-0.7,0.4-1.1h-0.3v-0.2h0.9v0.2h-0.4c0,0.2-0.1,0.4-0.1,0.6h0.5v0.2c0.2-0.2,0.4-0.4,0.5-0.7h-0.3V46h-0.2v-0.4h0.5
	c0-0.1,0.1-0.2,0.1-0.3h0.2l-0.1,0.2H51V46h-0.2v-0.3h-0.6c-0.1,0.1-0.1,0.3-0.2,0.4h0.3c0-0.1,0.1-0.2,0.1-0.3h0.2l-0.1,0.3H51v0.2
	h-0.5v0.3H51v0.2h-0.4V47H51v0.2h-0.4v0.3h0.5L51.1,47.6z M49.4,46.4h-0.3v0.8h0.3V46.4z M50.4,46.3H50v0.3h0.3L50.4,46.3z
	 M50.4,46.7H50V47h0.3L50.4,46.7z M50.1,47.4h0.3v-0.3H50L50.1,47.4z"/>
<path d="M52.2,45.9h-0.9v-0.2h0.9L52.2,45.9z M52.2,47.5h-0.6v0.1h-0.2v-0.9h0.7L52.2,47.5z M52.2,46.2h-0.7v-0.2h0.7V46.2z
	 M51.4,46.4h0.7v0.2h-0.7V46.4z M52.2,45.6h-0.7v-0.2h0.7V45.6z M51.6,46.9v0.4H52v-0.4H51.6z M52.2,47.5c0.1-0.2,0.2-0.4,0.2-0.6
	h0.2c0,0.2-0.1,0.4-0.2,0.6L52.2,47.5z M53.1,46.2l-0.3-0.2c-0.1,0.2-0.3,0.4-0.5,0.5c0-0.1-0.1-0.1-0.1-0.1
	c0.2-0.1,0.3-0.2,0.4-0.4l-0.3-0.1l0.1-0.1l0.3,0.1c0-0.1,0-0.2,0.1-0.3h-0.4v-0.2h1.2c0,0,0,0.1,0,0.1c0,0.6,0,0.8-0.1,0.9
	c0,0-0.1,0.1-0.2,0.1H53C53,46.4,53,46.4,53.1,46.2l0.2,0.1c0,0,0.1,0,0.1,0s0.1-0.2,0.1-0.7H53c0,0.1,0,0.2-0.1,0.3l0.3,0.2
	L53.1,46.2z M53.1,47.5c0.1,0,0.1,0,0.1-0.3c0,0,0.1,0.1,0.2,0.1c0,0.3-0.1,0.4-0.2,0.4h-0.3c-0.2,0-0.2,0-0.2-0.2v-0.6h0.2v0.6
	c0,0.1,0,0.1,0.1,0.1L53.1,47.5z M52.8,46.5c0.2,0.1,0.3,0.2,0.5,0.3L53.1,47c-0.1-0.1-0.3-0.3-0.5-0.3L52.8,46.5z M53.4,46.9
	c0.1,0.2,0.2,0.4,0.3,0.6l-0.2,0.1c-0.1-0.2-0.1-0.4-0.3-0.6L53.4,46.9z"/>
<path d="M65.8,45.4c-0.1,0.2-0.2,0.4-0.3,0.5v1.8h-0.2v-1.5c-0.1,0.1-0.2,0.2-0.3,0.3c0-0.1-0.1-0.1-0.1-0.2c0.3-0.3,0.5-0.6,0.7-1
	L65.8,45.4z M67.4,45.8v0.2h-1.7v-0.2H67.4z M65.9,46.9h1.3v0.8H67v-0.1h-0.9v0.1h-0.2V46.9z M67.2,46.3h-1.3v-0.2h1.3V46.3z
	 M65.9,46.5h1.3v0.2h-1.3V46.5z M67.2,45.6H66v-0.2h1.2L67.2,45.6z M66.1,47v0.4H67V47H66.1z"/>
<path d="M68.7,45.9h-1v-0.2h1V45.9z M68.6,47.5h-0.6v0.1h-0.2v-0.9h0.8L68.6,47.5z M67.8,46.1h0.8v0.2h-0.8V46.1z M67.8,46.4h0.8
	v0.2h-0.8V46.4z M68.6,45.6h-0.8v-0.2h0.8V45.6z M67.9,47v0.4h0.5V47H67.9z M69.8,47.5c0.1,0,0.1-0.1,0.1-0.4c0.1,0,0.1,0.1,0.2,0.1
	c0,0.4-0.1,0.5-0.3,0.5h-0.3c-0.2,0-0.3-0.1-0.3-0.3v-0.8l-0.5,0.1v-0.2l0.5-0.1v-0.7l-0.4,0.1c0-0.1,0-0.1-0.1-0.2
	c0.4-0.1,0.7-0.1,1.1-0.3l0.2,0.2c-0.2,0.1-0.4,0.1-0.6,0.2v0.7l0.7-0.1v0.2l-0.7,0.1v0.8c0,0.1,0,0.1,0.1,0.1L69.8,47.5z"/>
<path d="M70.8,45.3H71v2.4h-0.2v-1l-0.4,0.4L70.2,47c0.1-0.1,0.3-0.3,0.6-0.5V45.3z M70.6,46.2c-0.1-0.2-0.2-0.3-0.3-0.5l0.2-0.1
	c0.1,0.1,0.2,0.3,0.3,0.5L70.6,46.2z M71.9,46.2c0.1,0.5,0.3,1,0.8,1.3c-0.1,0-0.1,0.1-0.1,0.2c-0.4-0.3-0.6-0.7-0.7-1.1
	c-0.1,0.4-0.3,0.8-0.7,1.1c0,0-0.1-0.1-0.2-0.1c0.4-0.3,0.6-0.8,0.7-1.3H71V46h0.6c0,0,0-0.1,0-0.2v-0.6h0.2v0.6c0,0,0,0.1,0,0.2
	h0.8v0.2H71.9z M72.4,45.9c-0.1-0.2-0.2-0.3-0.3-0.5l0.2-0.1c0.1,0.1,0.2,0.3,0.3,0.5L72.4,45.9z"/>
<path d="M73.3,46.4c-0.2-0.1-0.3-0.2-0.5-0.2l0.1-0.2c0.2,0.1,0.4,0.1,0.5,0.2L73.3,46.4z M73.6,46.8c-0.2,0.3-0.3,0.6-0.5,0.9
	l-0.2-0.1c0.2-0.3,0.4-0.6,0.5-0.9L73.6,46.8z M73.5,45.8c-0.1-0.1-0.3-0.2-0.5-0.3l0.1-0.1c0.2,0.1,0.3,0.1,0.5,0.2L73.5,45.8z
	 M75,47.5c0.1,0,0.1-0.1,0.1-0.4c0.1,0,0.1,0.1,0.2,0.1c0,0.4-0.1,0.5-0.2,0.5h-0.2c-0.2,0-0.2-0.1-0.2-0.3v-0.9h-0.3
	c0,0.6-0.1,1-0.7,1.2c0-0.1-0.1-0.1-0.1-0.2c0.5-0.2,0.6-0.5,0.6-1h-0.3v-1.1h1.3v1.1h-0.4v0.9c0,0.1,0,0.1,0.1,0.1L75,47.5z
	 M73.9,46.3h1v-0.7h-1V46.3z"/>
<path d="M76.5,47.3h0.2c0.4-0.1,0.6-0.4,0.7-0.8c0-0.4-0.3-0.7-0.7-0.7c0,0,0,0,0,0c0,0.2-0.1,0.5-0.2,0.7c-0.2,0.5-0.4,0.8-0.6,0.8
	s-0.5-0.3-0.5-0.7c0.1-0.6,0.5-1,1.1-1c0.5,0,1,0.3,1,0.9c0,0,0,0.1,0,0.1c0,0.6-0.4,1-1,1L76.5,47.3z M76.4,46.5
	c0.1-0.2,0.1-0.5,0.1-0.7c-0.4,0-0.8,0.4-0.8,0.8c0,0.3,0.2,0.5,0.3,0.5S76.2,47,76.4,46.5z"/>
<path d="M78.6,46h0.5v0.2h-0.3H79c0,0.1-0.1,0.2-0.1,0.3h0.3v0.2h-0.4V47H79v0.2h-0.4v0.5h-0.2v-0.5H78V47h0.4v-0.3H78v-0.2h0.2
	c0-0.1-0.1-0.2-0.1-0.3h0.1H78V46h0.5v-0.3H78v-0.2h0.4v-0.3h0.2v0.3H79v0.2h-0.4V46z M78.6,46.5c0.1-0.1,0.1-0.2,0.1-0.3h-0.5
	c0.1,0.1,0.1,0.2,0.1,0.3h-0.1H78.6L78.6,46.5z M80.2,46.3c0,0.3-0.2,0.6-0.3,0.9c0.1,0.1,0.3,0.2,0.4,0.3c0,0-0.1,0.1-0.1,0.2
	c-0.1-0.1-0.3-0.2-0.4-0.3c-0.1,0.1-0.2,0.2-0.3,0.3c0,0-0.1-0.1-0.1-0.1v0.1h-0.2v-2.3h1v0.5c0,0.1,0,0.2-0.1,0.2
	c-0.1,0-0.3,0-0.4,0c0-0.1,0-0.1-0.1-0.2H80h0.1v-0.3h-0.7v0.7L80.2,46.3L80.2,46.3z M79.3,47.5c0.1-0.1,0.3-0.2,0.4-0.3
	c-0.2-0.2-0.3-0.5-0.3-0.7l0,0L79.3,47.5z M79.5,46.5c0.1,0.2,0.2,0.4,0.3,0.6c0.1-0.2,0.2-0.4,0.2-0.6H79.5z"/>
<path d="M82.9,46.3v0.2h-2.3v-0.2h1.1v-0.4H81c-0.1,0.1-0.2,0.2-0.2,0.3l-0.2-0.1c0.2-0.2,0.4-0.5,0.4-0.8h0.2
	c0,0.1-0.1,0.2-0.1,0.3h0.5v-0.3h0.2v0.4h0.8v0.2h-0.8v0.4H82.9z M80.9,46.7h1.7v1h-0.2v-0.1h-1.2v0.2h-0.2L80.9,46.7z M81.1,46.9
	v0.5h1.3v-0.5H81.1z"/>
<path d="M60.6,17.2c-0.1,0.2-0.2,0.4-0.3,0.5v1.8h-0.2v-1.5c-0.1,0.1-0.2,0.2-0.3,0.3c0-0.1-0.1-0.1-0.1-0.2c0.3-0.3,0.5-0.6,0.7-1
	L60.6,17.2z M62.2,17.7v0.2h-1.7v-0.2H62.2z M60.7,18.7H62v0.8h-0.2v-0.1h-0.9v0.1h-0.2L60.7,18.7z M62,18.2h-1.3V18H62L62,18.2z
	 M60.7,18.4H62v0.2h-1.3L60.7,18.4z M61.9,17.5h-1.2v-0.2h1.2V17.5z M60.9,18.9v0.4h0.9v-0.4H60.9z"/>
<path d="M63.4,17.8h-1v-0.2h1V17.8z M63.3,19.4h-0.6v0.1h-0.2v-0.9h0.8V19.4z M62.5,18h0.8v0.1h-0.8V18z M62.5,18.3h0.8v0.2h-0.8
	V18.3z M63.3,17.5h-0.8v-0.2h0.8V17.5z M62.7,18.9v0.4h0.5v-0.4H62.7z M64.5,19.4c0.1,0,0.1-0.1,0.1-0.4c0.1,0,0.1,0.1,0.2,0.1
	c0,0.4-0.1,0.5-0.3,0.5h-0.3c-0.2,0-0.3-0.1-0.3-0.3v-0.8l-0.5,0.1v-0.2l0.5-0.1v-0.7l-0.4,0.1c0-0.1,0-0.1-0.1-0.2
	c0.4-0.1,0.7-0.1,1.1-0.3l0.2,0.1c-0.2,0.1-0.4,0.1-0.6,0.2v0.7l0.7-0.1v0.2l-0.7,0.1v0.8c0,0.1,0,0.1,0.1,0.1L64.5,19.4z"/>
<path d="M23.8,31.5c0,0.1,0,0.2,0,0.3c0,0.2,0.2,0.3,0.6,0.3c0.3,0,0.6,0,0.9-0.1v0.2c-0.3,0.1-0.6,0.1-0.9,0.1
	c-0.5,0-0.8-0.2-0.8-0.5c0-0.1,0-0.2,0-0.4L23.8,31.5z M23.7,30.5c0.2,0,0.5,0,0.7,0c0.2,0,0.5,0,0.7,0v0.2c-0.2,0-0.5,0-0.7,0
	s-0.5,0-0.7,0V30.5z M25.3,30.6l-0.1,0.1c-0.1-0.1-0.1-0.2-0.2-0.4l0.1-0.1C25.2,30.3,25.3,30.4,25.3,30.6L25.3,30.6z M25.6,30.5
	l-0.1,0.1c-0.1-0.1-0.1-0.2-0.2-0.4l0.1-0.1C25.5,30.2,25.6,30.3,25.6,30.5L25.6,30.5z"/>
<path d="M27.9,31.4v1.1h-0.2v-0.2H26v0.2h-0.2v-1.1H26v0.7h0.7v-0.9h-0.8v-0.9h0.2V31h0.6v-0.9h0.2V31h0.6v-0.7h0.2v0.9h-0.8v0.9
	h0.7v-0.7H27.9z"/>
<path d="M29.5,32.2h1v0.2h-2.2v-0.2h1v-0.6h-0.9v-0.2h0.9V31h-0.5v-0.1c-0.1,0.1-0.3,0.2-0.4,0.3c0-0.1-0.1-0.1-0.1-0.1
	c0.4-0.2,0.8-0.5,1.1-0.9h0.2c0.3,0.4,0.7,0.7,1.1,0.9c0,0.1-0.1,0.1-0.1,0.2c-0.2-0.1-0.3-0.2-0.4-0.3V31h-0.6v0.4h0.9v0.2h-0.9
	L29.5,32.2z M28.8,31.7c0.1,0.1,0.2,0.3,0.2,0.5l-0.2,0.1c-0.1-0.2-0.1-0.3-0.2-0.5L28.8,31.7z M30.1,30.9c-0.2-0.2-0.5-0.4-0.6-0.6
	c-0.2,0.2-0.4,0.4-0.6,0.6H30.1z M29.7,32.1c0.1-0.2,0.2-0.3,0.3-0.5l0.2,0.1c-0.1,0.2-0.2,0.3-0.3,0.5L29.7,32.1z"/>
<path d="M60.3,31.9c0.2,0.2,0.4,0.3,0.7,0.3c0.3,0,0.9,0,1.2,0c0,0.1,0,0.1-0.1,0.2c-0.3,0-0.8,0-1.1,0c-0.3,0-0.6-0.1-0.8-0.3
	l-0.4,0.3l-0.1-0.2c0.1-0.1,0.3-0.2,0.4-0.3v-0.7h-0.3v-0.2h0.5L60.3,31.9z M60.3,30.7c-0.1-0.2-0.3-0.3-0.4-0.4l0.1-0.1
	c0.2,0.1,0.3,0.3,0.4,0.4L60.3,30.7z M60.9,30.9c0,0.4-0.1,0.8-0.3,1.1c0,0-0.1-0.1-0.2-0.1c0.2-0.3,0.3-0.7,0.3-1.1v-0.6h1.4v0.2
	h-1.2v0.4h1H62c-0.1,0.3-0.2,0.6-0.4,0.8c0.2,0.2,0.4,0.3,0.6,0.3c0,0-0.1,0.1-0.1,0.2c-0.2-0.1-0.4-0.2-0.6-0.4
	c-0.2,0.1-0.4,0.3-0.6,0.3c0-0.1-0.1-0.1-0.1-0.2c0.2-0.1,0.4-0.2,0.5-0.3C61.1,31.4,61,31.1,60.9,30.9L60.9,30.9z M61.1,30.9
	c0.1,0.2,0.2,0.4,0.3,0.6c0.1-0.2,0.3-0.4,0.3-0.6H61.1z"/>
<path d="M62.9,32c0.2,0.2,0.4,0.3,0.7,0.3c0.3,0,0.9,0,1.2,0c0,0.1,0,0.1-0.1,0.2c-0.3,0-0.8,0-1.1,0c-0.3,0-0.6-0.1-0.7-0.3
	l-0.4,0.3l-0.1-0.2c0.1-0.1,0.2-0.2,0.4-0.3v-0.7h-0.3v-0.2h0.5L62.9,32z M62.8,30.7c-0.1-0.2-0.3-0.3-0.4-0.4l0.2-0.1
	c0.2,0.1,0.3,0.3,0.4,0.4L62.8,30.7z M64.7,30.9H63v-0.1h1.7L64.7,30.9z M63.7,32.2v-0.5c-0.2,0.1-0.4,0.3-0.6,0.4
	c0,0-0.1-0.1-0.1-0.1c0.2-0.1,0.5-0.2,0.7-0.4h-0.5v-0.5h1.3v0.4l0,0l0.1,0.1c-0.1,0.1-0.2,0.2-0.3,0.3c0.1,0.1,0.3,0.1,0.4,0.1
	c0,0-0.1,0.1-0.1,0.2c-0.3-0.1-0.5-0.2-0.7-0.4v0.4L63.7,32.2z M64.6,30.7h-1.4v-0.5h1.5L64.6,30.7z M63.6,30.3h-0.3v0.2h0.3V30.3z
	 M63.4,31.4h0.9v-0.2h-0.9L63.4,31.4z M64,30.3h-0.3v0.2H64V30.3z M63.9,31.5c0.1,0.1,0.2,0.2,0.3,0.2l0.3-0.2L63.9,31.5L63.9,31.5z
	 M64.4,30.3h-0.3v0.2h0.3V30.3z"/>
<path d="M42.5,29.6v-1.3h0.4c0.1,0,0.2,0,0.3,0.1c0.1,0.1,0.1,0.2,0.1,0.3c0,0.1,0,0.1-0.1,0.2c0,0-0.1,0.1-0.2,0.1
	c0.1,0,0.1,0.1,0.2,0.1c0,0.1,0.1,0.1,0.1,0.2c0,0.1,0,0.2-0.1,0.3c-0.1,0.1-0.2,0.1-0.3,0.1L42.5,29.6z M42.7,28.9H43
	c0.1,0,0.1,0,0.2,0c0.1-0.1,0.1-0.2,0-0.3c-0.1,0-0.1-0.1-0.2,0h-0.2L42.7,28.9z M42.7,29v0.5H43c0.1,0,0.1,0,0.2-0.1
	c0,0,0.1-0.1,0.1-0.2c0-0.1,0-0.1-0.1-0.2c0-0.1-0.1-0.1-0.2-0.1L42.7,29z"/>
<path d="M43.8,28.4h-0.2v-0.2h0.2V28.4z M43.8,29.6h-0.2v-1h0.2V29.6z"/>
<path d="M44.3,28.7v0.1c0,0,0.1-0.1,0.1-0.1c0.1,0,0.1,0,0.2,0c0.1,0,0.2,0,0.2,0.1c0.1,0.1,0.1,0.2,0.1,0.3v0.6h-0.2V29
	c0-0.1,0-0.1,0-0.2c0,0-0.1-0.1-0.2,0c0,0-0.1,0-0.1,0c0,0-0.1,0.1-0.1,0.1v0.7h-0.2v-1L44.3,28.7z"/>
<path d="M45.8,29.6L45.8,29.6c0-0.1,0-0.1,0-0.1c0,0-0.1,0.1-0.1,0.1c-0.1,0-0.1,0-0.2,0c-0.1,0-0.2,0-0.2-0.1
	c-0.1-0.1-0.1-0.1-0.1-0.2c0-0.1,0-0.2,0.1-0.2c0.1-0.1,0.2-0.1,0.3-0.1h0.2v0c0-0.1,0-0.1,0-0.1c0,0-0.1-0.1-0.2,0c0,0-0.1,0-0.1,0
	c0,0-0.1,0.1,0,0.1h-0.2c0-0.1,0-0.2,0.1-0.2c0.1-0.1,0.2-0.1,0.3-0.1c0.1,0,0.2,0,0.3,0.1c0.1,0.1,0.1,0.1,0.1,0.2v0.5
	c0,0,0,0.1,0,0.1c0,0,0,0.1,0,0.1L45.8,29.6z M45.5,29.5c0.1,0,0.1,0,0.2,0c0,0,0.1-0.1,0.1-0.1v-0.2h-0.2c-0.1,0-0.1,0-0.2,0
	c0,0-0.1,0.1-0.1,0.1c0,0,0,0.1,0,0.1C45.4,29.5,45.4,29.5,45.5,29.5z"/>
<path d="M46.7,28.8L46.7,28.8c-0.1,0-0.2,0-0.2,0c0,0-0.1,0.1-0.1,0.1v0.7h-0.2v-1h0.2v0.1c0,0,0.1-0.1,0.1-0.1c0,0,0.1,0,0.1,0h0.1
	L46.7,28.8z"/>
<path d="M47.2,29.3v0.1l0,0l0.2-0.7h0.2l-0.4,1.1c0,0.1-0.1,0.1-0.1,0.2C47,30,47,30,46.9,30h-0.1v-0.1h0.1c0,0,0.1,0,0.1,0
	c0,0,0-0.1,0.1-0.1v-0.1l-0.4-1h0.2L47.2,29.3z"/>
<path d="M41.9,31.3c0-0.1-0.1-0.2-0.1-0.3v1h-0.1v-0.9c-0.1,0.2-0.1,0.4-0.2,0.5c0,0,0-0.1-0.1-0.1c0.1-0.2,0.2-0.5,0.3-0.7h-0.2
	v-0.1h0.3v-0.4h0.1v0.4H42v0.1h-0.2v0.1L41.9,31.3L41.9,31.3z M42.7,31.3c0.1,0.2,0.2,0.4,0.4,0.6c0,0-0.1,0.1-0.1,0.1
	C42.8,31.8,42.7,31.6,42.7,31.3L42.6,32h-0.1v-0.7c-0.1,0.2-0.3,0.4-0.5,0.6c0,0-0.1-0.1-0.1-0.1c0.2-0.1,0.4-0.3,0.5-0.6H42v-0.1
	h0.4v-0.3h-0.2c0,0.1-0.1,0.2-0.1,0.3L42,31c0.1-0.2,0.2-0.4,0.2-0.6h0.1c0,0.1,0,0.2,0,0.2h0.2v-0.4h0.1v0.4H43v0.1h-0.4v0.3H43
	v0.1L42.7,31.3z"/>
<path d="M44.3,30.8c0,0.6,0.2,1.1,0.4,1.1s0.1-0.1,0.1-0.4c0,0,0.1,0.1,0.1,0.1c0,0.3-0.1,0.4-0.2,0.4c-0.3,0-0.5-0.5-0.5-1.2h-1
	v-0.1h1c0-0.1,0-0.2,0-0.3h0.1c0,0.1,0,0.2,0,0.3h0.5v0.1L44.3,30.8z M43.8,31.7l0.4-0.1v0.1L43.3,32v-0.1L43.8,31.7l-0.1-0.5h-0.3
	v-0.1h0.8v0.1h-0.3L43.8,31.7z M44.7,30.6c-0.1-0.1-0.2-0.2-0.3-0.2l0.1-0.1c0.1,0.1,0.2,0.1,0.3,0.2L44.7,30.6z"/>
<path d="M46,30.3c0.2,0.3,0.5,0.5,0.8,0.6l-0.1,0.1c-0.3-0.1-0.6-0.4-0.8-0.6c-0.2,0.3-0.5,0.5-0.8,0.6c0,0,0-0.1-0.1-0.1
	c0.3-0.2,0.6-0.4,0.8-0.7L46,30.3z M45.2,31.2h1.5v0.1h-0.9c-0.1,0.1-0.1,0.3-0.2,0.4h0.8c-0.1-0.1-0.2-0.2-0.2-0.2l0.1-0.1
	c0.2,0.1,0.3,0.3,0.4,0.5l-0.1,0.1l-0.1-0.1L45.2,32v-0.1h0.3c0.1-0.1,0.1-0.3,0.2-0.4h-0.5L45.2,31.2z M46.4,30.9V31h-0.9v-0.1
	H46.4z"/>
<path d="M47.6,31.5l-0.2-0.2V32h-0.1v-0.7c-0.1,0.1-0.2,0.2-0.3,0.2c0,0,0-0.1-0.1-0.1c0.2-0.1,0.4-0.4,0.6-0.6H47v-0.1h0.3v-0.4
	h0.1v0.4h0.2l0.1,0c-0.1,0.1-0.1,0.3-0.2,0.4l0.3,0.2L47.6,31.5z M48.6,31.8V32h-1v-0.1h0.5v-0.8h-0.4V31h0.4v-0.6h0.1V31h0.4v0.1
	h-0.4v0.8L48.6,31.8z"/>
<path d="M40.9,61.9c-0.1,0.2-0.2,0.4-0.4,0.5c0.2,0.1,0.5,0.2,0.7,0.2c0,0-0.1,0.1-0.1,0.1c-0.3,0-0.5-0.1-0.7-0.2
	c-0.2,0.1-0.5,0.2-0.8,0.2c0,0,0-0.1-0.1-0.1c0.2,0,0.5-0.1,0.7-0.2c-0.2-0.1-0.3-0.2-0.4-0.4h-0.1v-0.1h1L40.9,61.9z M39.7,61.9
	h-0.1v-0.4h0.3c0-0.1-0.1-0.2-0.1-0.2h0.1c0.1,0.1,0.1,0.2,0.1,0.2h-0.1h0.8c0.1-0.1,0.1-0.2,0.2-0.3H41c0,0.1-0.1,0.2-0.2,0.3h0.3
	v0.4H41v-0.2h-1.3V61.9z M41,61.1c-0.5,0.1-1,0.1-1.4,0.1c0,0,0-0.1,0-0.1C40.1,61.1,40.5,61.1,41,61.1L41,61.1z M40,62
	c0.1,0.1,0.2,0.2,0.4,0.3c0.1-0.1,0.3-0.2,0.3-0.3H40z M40.3,61.5c0-0.1,0-0.2-0.1-0.3h0.1c0,0.1,0.1,0.2,0.1,0.3H40.3z"/>
<path d="M42.5,61.5c0.1,0.2,0.3,0.4,0.6,0.5c0,0-0.1,0.1-0.1,0.1L42.8,62v0.5H43v0.1h-1.6v-0.1h0.3V62l-0.2,0.1L41.3,62
	c0.2-0.1,0.4-0.3,0.5-0.5h-0.5v-0.1h0.5c-0.1-0.1-0.1-0.2-0.2-0.3l0.1,0c0.1,0.1,0.2,0.2,0.2,0.3h-0.1h0.6h-0.1
	c0.1-0.1,0.2-0.2,0.2-0.3h0.1c-0.1,0.1-0.2,0.2-0.2,0.3H43v0.1L42.5,61.5z M42.8,62c-0.2-0.1-0.3-0.3-0.4-0.5H42
	c-0.1,0.2-0.2,0.3-0.4,0.5H42.8z M42,62.1h-0.2v0.4H42L42,62.1z M42.3,62.1h-0.2v0.4h0.2L42.3,62.1z M42.7,62.5v-0.4h-0.2v0.4H42.7z
	"/>
<path d="M44.2,61.7l-0.3,0.2h0.8v0.8h-0.1v0h-0.8v0.1h-0.1V62l-0.3,0.2L43.2,62c0.3-0.1,0.5-0.2,0.8-0.4h-0.7v-0.1h0.6v-0.2h-0.5
	v-0.1h0.5V61H44v0.2h0.5v0.1c0.1-0.1,0.1-0.2,0.2-0.2l0.1,0.1c-0.1,0.2-0.3,0.3-0.5,0.5h0.5v0.1L44.2,61.7z M44.5,62h-0.8v0.2h0.8
	V62z M44.5,62.5v-0.2h-0.8v0.2H44.5z M44.2,61.6c0.1-0.1,0.2-0.2,0.3-0.2H44v0.2H44.2z"/>
<path d="M45.7,61c-0.1,0.1-0.1,0.3-0.2,0.4v1.3h-0.1v-1c-0.1,0.1-0.2,0.2-0.2,0.3L45,61.7c0.2-0.2,0.4-0.5,0.5-0.8L45.7,61z
	 M46.2,61.6c0.1,0.5,0.2,0.8,0.4,0.8s0.1-0.1,0.1-0.3l0.1,0.1c0,0.3-0.1,0.4-0.2,0.4c-0.3,0-0.5-0.4-0.5-1l-0.5,0.1v-0.1l0.5-0.1
	c0-0.2,0-0.4,0-0.5h0.1c0,0.2,0,0.4,0,0.5l0.6-0.1v0.1L46.2,61.6z M46.6,61.4c-0.1-0.1-0.2-0.2-0.3-0.3l0.1-0.1
	c0.1,0.1,0.2,0.2,0.3,0.3L46.6,61.4z"/>
<path d="M47.5,62.3l-0.6,0.2v-0.1l0.2-0.1v-0.5H47v-0.1h0.2v-0.4H47v-0.1h0.6v0.1h-0.3v0.4h0.2v0.1h-0.2v0.5l0.2-0.1L47.5,62.3z
	 M48.6,62.5v0.1h-1.2v-0.1H48v-0.2h-0.4v-0.1H48v-0.2h-0.4V61h0.9v0.8h-0.4v0.2h0.4v0.1h-0.4v0.2L48.6,62.5z M47.7,61.4H48v-0.2
	h-0.3L47.7,61.4z M47.7,61.8H48v-0.2h-0.3L47.7,61.8z M48.4,61.2h-0.3v0.2h0.3V61.2z M48.4,61.5h-0.3v0.2h0.3V61.5z"/>
<path d="M49.7,61C49.7,61,49.7,61,49.7,61c0,0.7,0.3,1.2,0.8,1.5c0,0-0.1,0.1-0.1,0.1c-0.4-0.2-0.7-0.6-0.8-1.1
	c-0.1,0.4-0.3,0.8-0.7,1.1c0,0-0.1-0.1-0.1-0.1c0.5-0.3,0.8-0.9,0.8-1.5H49.7z"/>
<path d="M43.6,64c0-0.3,0.1-0.6,0.4-0.9l0.1,0.1c-0.5,0.5-0.5,1.2,0,1.6c0,0,0,0,0,0l-0.1,0.1C43.7,64.7,43.6,64.3,43.6,64z"/>
<path d="M45.7,63.3v1.1h-0.2v-0.1h-0.5v0.6h-0.2v-0.6h-0.5v0.1h-0.2v-1.1H45.7z M44.4,63.4v0.3h0.5v-0.3H44.4z M44.9,64.2v-0.3h-0.5
	v0.3H44.9z M45.5,63.4h-0.5v0.3h0.5V63.4z M45.5,64.2v-0.3h-0.5v0.3H45.5z"/>
<path d="M46.4,64c0,0.3-0.1,0.6-0.4,0.9l-0.1-0.1c0.5-0.5,0.5-1.2,0-1.6c0,0,0,0,0,0l0.1-0.1C46.3,63.3,46.4,63.7,46.4,64z"/>
<polygon class="st3" points="58,22.8 58,23.4 64.9,23.4 64.9,24.5 66.4,23.1 64.9,21.6 64.9,22.8 "/>
<polygon class="st3" points="66.4,26.9 66.4,27.5 59.4,27.5 59.4,28.6 58,27.2 59.4,25.7 59.4,26.9 "/>
<polygon class="st3" points="22.6,22.8 22.6,23.4 29.5,23.4 29.5,24.5 31,23.1 29.5,21.6 29.5,22.8 "/>
<polygon class="st3" points="31,26.9 31,27.5 24.1,27.5 24.1,28.6 22.6,27.2 24.1,25.7 24.1,26.9 "/>
<polygon class="st3" points="45.3,42 45.3,37 46.5,37 45,35.6 43.5,37 44.7,37 44.7,42 44.5,42 43.5,42 45,43.5 46.5,42 45.5,42 "/>
<polygon class="st3" points="55.3,52.3 73.1,34.5 73.9,35.4 73.9,33.3 71.9,33.3 72.7,34.1 54.9,51.9 54.8,51.8 54.1,51.1 
	54.1,53.2 56.2,53.2 55.5,52.5 "/>
<path class="st2" d="M46.1,55.9c0.1-0.1,0.2-0.2,0.2-0.3l0.1-0.2c0.1-0.1,0.1-0.2,0.1-0.3v-0.1c0.1,0,0.2-0.1,0.2-0.2
	c0.1-0.1,0.1-0.3,0.1-0.4c0-0.1,0-0.1-0.1-0.2l-0.1-0.1c0-0.1,0-0.2,0-0.2c0-0.2-0.1-0.4-0.2-0.6l-0.1-0.2c-0.4-0.8-1.4-1.2-2.2-0.8
	c-0.3,0.2-0.6,0.4-0.8,0.8l-0.1,0.2c0,0.1-0.1,0.2-0.1,0.3c0,0.1-0.1,0.3-0.1,0.5l0,0c-0.1,0.1-0.2,0.3-0.2,0.5c0,0,0,0.1,0,0.1
	c0.1,0.1,0.2,0.3,0.3,0.3c0,0.1,0.1,0.2,0.2,0.3l0.1,0.2c0.1,0.1,0.2,0.2,0.2,0.3l0.2,0.1c0.5,0.4,1.3,0.4,1.8,0L46.1,55.9z
	 M43.7,53.7c0-0.1,0-0.1,0.1-0.2c0.2-0.7,1-1,1.6-0.8c0.3,0.1,0.6,0.4,0.8,0.8c0,0.1,0.1,0.1,0.1,0.2c0,0.1,0,0.1,0,0.2l-0.2,0
	L46,53.7c-0.2-0.1-0.4-0.3-0.5-0.5l-0.2-0.4l-0.2,0.4c-0.2,0.4-0.6,0.6-1,0.7h-0.2h-0.3C43.7,53.8,43.7,53.7,43.7,53.7L43.7,53.7z
	 M45.7,55.8c-0.4,0.3-0.9,0.3-1.3,0l-0.2-0.1c-0.1-0.1-0.2-0.2-0.2-0.3c-0.1-0.1-0.2-0.3-0.2-0.4l0,0v-0.1h-0.1
	c-0.1,0-0.1-0.1-0.1-0.1c0-0.1,0-0.1,0.1-0.2l0,0l0.1-0.1v-0.1h0.1h0.3h0.2c0.4-0.1,0.7-0.3,1-0.6c0.1,0.2,0.3,0.3,0.5,0.4l0.2,0.1
	c0.1,0,0.2,0.1,0.3,0.1h0.1v0.1l0.1,0.1c0.1,0,0.1,0.1,0.1,0.2l0,0c0,0.1-0.1,0.1-0.1,0.1h-0.1V55v0.1c-0.1,0.1-0.1,0.2-0.2,0.3
	c-0.1,0.1-0.1,0.2-0.2,0.3L45.7,55.8z"/>
<path class="st2" d="M44.3,56.8c-0.2,0.1-0.4,0.1-0.6,0.2l-0.2,0.1c-0.1,0.1-0.2,0.2-0.3,0.3L43,57.6c-0.3,0.4-0.5,1-0.5,1.5v0.5
	h0.4v-0.5c0-0.5,0.2-1,0.5-1.4l0.2-0.2c0.1-0.1,0.2-0.2,0.3-0.2l0.2-0.1c0.1-0.1,0.3-0.1,0.4-0.1h0.2v-0.6h-0.4L44.3,56.8z"/>
<path class="st2" d="M47.1,57.6l-0.2-0.2c-0.1-0.1-0.2-0.2-0.3-0.3L46.4,57c-0.2-0.1-0.4-0.2-0.6-0.2v-0.3h-0.4V57h0.2
	c0.1,0,0.3,0.1,0.4,0.1l0.2,0.1c0.1,0.1,0.2,0.1,0.3,0.2l0.2,0.2c0.3,0.4,0.5,0.9,0.5,1.4v0.5h0.4V59C47.6,58.5,47.4,58,47.1,57.6z"
	/>
<polyline class="st2" points="45.5,57.3 45,57.7 44.6,57.3 "/>
<polygon class="st2" points="45.5,59 45,59.5 44.6,59 45,57.4 "/>
<circle class="st0" cx="79.5" cy="25.1" r="8.6"/>
<path d="M78.3,28.2v1.5h-0.1v-0.1h-0.9v0.1h-0.1v-1.6H78.3z M77.2,28.4v0.5h0.9v-0.5H77.2z M78.1,29.5V29h-0.9v0.5L78.1,29.5z"/>
<path d="M79.3,28.5h-0.7v-0.1h0.7V28.5z M79.3,29.7h-0.4v0.1h-0.1v-0.6h0.5L79.3,29.7z M79.3,28.8h-0.5v-0.1h0.5V28.8z M78.8,28.9
	h0.5V29L78.8,28.9L78.8,28.9z M79.3,28.3h-0.5v-0.1h0.5V28.3z M78.9,29.3v0.3h0.3v-0.3H78.9z M80.4,29.6v0.1h-1v-0.1h0.1v-0.9h0.1
	v0.9h0.2v-1.3h-0.4v-0.1h0.9v0.1H80v0.5h0.4V29H80v0.6L80.4,29.6z"/>
<path d="M81.4,29.6h0.7v0.1h-1.6v-0.1h0.7v-0.5h-0.6V29h0.6v-0.2h-0.4v-0.1c-0.1,0.1-0.2,0.1-0.3,0.2c0,0,0-0.1-0.1-0.1
	c0.3-0.2,0.6-0.4,0.8-0.7h0.1c0.2,0.3,0.5,0.5,0.8,0.6c0,0-0.1,0.1-0.1,0.1c-0.1-0.1-0.2-0.1-0.3-0.2v0.1h-0.4V29h0.6v0.1h-0.6
	L81.4,29.6z M80.9,29.2c0.1,0.1,0.1,0.2,0.2,0.3l-0.1,0c0-0.1-0.1-0.2-0.2-0.3L80.9,29.2z M81.8,28.7c-0.2-0.1-0.3-0.3-0.5-0.4
	c-0.1,0.2-0.3,0.3-0.4,0.4H81.8z M81.6,29.5c0.1-0.1,0.1-0.2,0.2-0.3l0.1,0C81.9,29.4,81.8,29.5,81.6,29.5L81.6,29.5z"/>
<path d="M76.4,30.4c-0.1,0.1-0.1,0.3-0.2,0.4V32h-0.1v-1c-0.1,0.1-0.1,0.2-0.2,0.2c0,0,0-0.1-0.1-0.1c0.2-0.2,0.4-0.5,0.5-0.7
	L76.4,30.4z M77.6,30.7v0.1h-1.2v-0.1H77.6z M76.5,31.4h0.9V32h-0.1v-0.1h-0.7V32h-0.1L76.5,31.4z M77.4,31h-0.9v-0.1h0.9V31z
	 M76.5,31.2h0.9v0.1h-0.9V31.2z M77.4,30.5h-0.8v-0.1h0.8V30.5z M76.6,31.5v0.3h0.7v-0.3H76.6z"/>
<path d="M78.5,30.8h-0.7v-0.1h0.7V30.8z M78.4,31.9h-0.4V32h-0.1v-0.6h0.6V31.9z M77.8,30.9h0.6V31L77.8,30.9L77.8,30.9z M77.8,31.2
	h0.6v0.1h-0.6V31.2z M78.4,30.5h-0.6v-0.1h0.6V30.5z M77.9,31.5v0.3h0.3v-0.3H77.9z M79.2,31.9c0.1,0,0.1-0.1,0.1-0.3
	c0,0,0.1,0,0.1,0.1c0,0.3-0.1,0.4-0.2,0.4H79c-0.2,0-0.2,0-0.2-0.2v-0.5l-0.4,0.1v-0.1l0.4-0.1v-0.5l-0.3,0.1c0,0,0-0.1,0-0.1
	c0.3,0,0.5-0.1,0.8-0.2l0.1,0.1c-0.1,0.1-0.3,0.1-0.4,0.1v0.5l0.5-0.1v0.1L79,31.3v0.6c0,0.1,0,0.1,0.1,0.1H79.2z"/>
<path d="M80.3,31.8L79.6,32v-0.1l0.3-0.1v-0.6h-0.3v-0.1H80v-0.2h-0.2v-0.1l-0.1,0.1l-0.1-0.1c0.2-0.1,0.3-0.3,0.4-0.5H80
	c0.1,0.1,0.2,0.2,0.3,0.3l-0.1,0.1c-0.1-0.1-0.2-0.2-0.3-0.3c-0.1,0.1-0.1,0.2-0.2,0.3h0.5v0.1H80v0.2h0.3v0.1H80v0.5l0.3-0.1
	L80.3,31.8z M79.8,31.3c0,0.1,0.1,0.2,0.1,0.3h-0.1C79.7,31.5,79.7,31.4,79.8,31.3L79.8,31.3z M80.1,31.6c0-0.1,0.1-0.2,0.1-0.3h0.1
	C80.3,31.4,80.2,31.5,80.1,31.6L80.1,31.6z M81.3,31.4c-0.1,0.1-0.2,0.2-0.3,0.2c0.1,0.1,0.2,0.3,0.3,0.3c0,0-0.1,0.1-0.1,0.1
	c-0.3-0.2-0.5-0.5-0.5-0.8h-0.2v0.6l0.3-0.1v0.1L80.3,32v-0.1h0.2v-1.5h0.8v0.8h-0.3c0,0.1,0.1,0.2,0.1,0.3c0.1-0.1,0.2-0.1,0.2-0.2
	L81.3,31.4z M80.6,30.5v0.2h0.5v-0.2H80.6z M80.6,31.1h0.5v-0.2h-0.5V31.1z"/>
<path d="M82.1,30.8c-0.1,0.1-0.1,0.2-0.2,0.3v1h-0.1v-0.9l-0.2,0.2l-0.1-0.1c0.2-0.2,0.4-0.3,0.5-0.6L82.1,30.8z M82,30.4
	c-0.1,0.2-0.3,0.3-0.5,0.5l-0.1-0.1c0.2-0.1,0.3-0.2,0.4-0.4L82,30.4z M83.1,31.1h-0.3v0.8c0,0.1,0,0.1-0.1,0.1c-0.1,0-0.2,0-0.3,0
	c0,0,0-0.1,0-0.1h0.3l0,0v-0.8h-0.6V31h1L83.1,31.1z M83.1,30.6h-0.9v-0.1h0.9V30.6z"/>
<path class="st2" d="M78.1,22h0.8v0.9c0.1-0.1,0.2-0.1,0.3-0.2v-1h-1.3v4h0.3v-0.3h-0.1L78.1,22z"/>
<path class="st2" d="M79,23.6v0.2h0.1v-0.5C79.1,23.4,79,23.5,79,23.6z"/>
<path class="st2" d="M80.2,21.8h-0.3v1c0.1,0,0.2,0.1,0.3,0.2V22H81v3.5h-0.1v0.3h0.4v-4L80.2,21.8L80.2,21.8z"/>
<path class="st2" d="M79.9,23.9h0.1v-0.2c0-0.1-0.1-0.2-0.1-0.3V23.9z"/>
<path class="st2" d="M83.2,22v-1.2l-3.7-1.5l-3.7,1.5V22h0.9v3.5h-0.9v1.2h7.3v-1.2h-0.9V22H83.2z M82.3,25.7h0.7v0.7h-6.8v-0.7h0.9
	v-4h-0.9V21l3.4-1.4l3.4,1.4v0.8H82v4L82.3,25.7z"/>
<path class="st4" d="M80.6,24.1h-0.2v-0.5c0-0.4-0.4-0.8-0.8-0.8h-0.1c-0.4,0-0.8,0.4-0.8,0.8v0.5h-0.2c-0.1,0-0.1,0.1-0.1,0.1
	c0,0,0,0,0,0v1.6c0,0.1,0.1,0.1,0.1,0.1l0,0h2.1c0.1,0,0.1-0.1,0.1-0.1c0,0,0,0,0,0v-1.6C80.7,24.2,80.7,24.1,80.6,24.1L80.6,24.1z
	 M79.6,25.1v0.4h-0.1v-0.4c-0.1,0-0.2-0.1-0.1-0.3c0-0.1,0.1-0.2,0.3-0.1s0.2,0.1,0.1,0.3C79.7,25.1,79.7,25.1,79.6,25.1z
	 M80.2,24.1h-1.3v-0.5c0-0.4,0.3-0.6,0.7-0.6l0,0h0.1c0.4,0,0.7,0.3,0.7,0.6c0,0,0,0,0,0L80.2,24.1z"/>
<line class="st5" x1="99.2" y1="0" x2="99.2" y2="66.6"/>
</svg>
