<svg width="16" height="16" viewBox="0 0 16 16" xmlns="http://www.w3.org/2000/svg"><title>icons/system/binary/header/cashier/ic-cashier-active-light</title><g fill="none" fill-rule="evenodd"><path d="M13.5 4.5v7H2a.5.5 0 0 0-.5.5v1a.5.5 0 0 0 .5.5h13a.5.5 0 0 0 .5-.5V5a.5.5 0 0 0-.5-.5h-1.5z" stroke="#2A3052"/><path fill="#2A3052" d="M14 6h1v2h-1z"/><g transform="translate(0 2)"><rect fill="#2A3052" width="14" height="10" rx="1"/><path fill="#FFF" d="M1 2h12v2H1z"/><rect fill="#FFF" x="2" y="5" width="5" height="1" rx=".5"/><rect fill="#FFF" x="2" y="7" width="5" height="1" rx=".5"/><circle fill="#FFF" cx="10.5" cy="6.5" r="1.5"/></g></g></svg>