<svg xmlns="http://www.w3.org/2000/svg" width="140" height="140" viewBox="0 0 140 140"><path fill="#F8F8F9" d="M1 1h138v138H1z"/><path fill="#CDCCCC" d="M138 2v136H2V2h136m2-2H0v140h140V0z"/><g><path fill="#E88024" d="M91.371 84.094c-.297 0-.674-.102-1.07-.455l-8.219-7.334c-.408-.363-.643-.879-.643-1.412s.234-1.047.643-1.412l8.219-7.334c.713-.637 1.355-.453 1.602-.342.244.107.811.465.811 1.422v1.846h13.912a1 1 0 1 1 0 2H92.713c-1.104 0-2-.898-2-2v-.611l-7.209 6.432 7.209 6.432v-.607c0-1.102.896-2 2-2h23.33a1 1 0 1 1 0 2h-23.33v1.842c0 .957-.566 1.314-.811 1.422a1.36 1.36 0 0 1-.531.111z"/><path fill="#E88024" d="M111.885 73.893h-11.059a1 1 0 1 0 0 2h11.059a1 1 0 1 0 0-2zM119.201 73.893h-3.492a1 1 0 1 0 0 2h3.492a1 1 0 1 0 0-2zM96.602 102.26c.297 0 .674-.1 1.07-.455l8.219-7.332c.408-.365.643-.879.643-1.412s-.234-1.049-.643-1.412l-8.219-7.334c-.713-.639-1.355-.453-1.602-.344-.244.109-.811.467-.811 1.424v1.844H81.348a1 1 0 1 0 0 2H95.26a2 2 0 0 0 2-2v-.611l7.209 6.434-7.209 6.432v-.607a2 2 0 0 0-2-2H71.93a1 1 0 1 0 0 2h23.33v1.84c0 .957.566 1.314.811 1.424.109.046.294.109.531.109z"/><path fill="#E88024" d="M76.088 92.061h11.059a1 1 0 1 1 0 2H76.088a1 1 0 1 1 0-2z"/><path fill="#2A3052" d="M100.867 85.824l2 1.785v-5.892h-2z"/><path fill="#E88024" d="M68.771 92.061h3.492a1 1 0 1 1 0 2h-3.492a1 1 0 1 1 0-2z"/><path fill="#2A3052" d="M72.915 95.164H22.799a1 1 0 0 1-1-1V61.371l37.32 12.354c.619.205 1.416.309 2.213.309.795 0 1.592-.104 2.213-.309l37.322-12.354v6.701h2V49.523c0-1.654-1.346-3-3-3H76.113V40.74c0-1.654-1.346-3-3-3H49.551c-1.654 0-3 1.346-3 3v5.783H22.799c-1.654 0-3 1.346-3 3v44.641c0 1.654 1.346 3 3 3H70.07s.185-1.277 2.845-2zM48.551 40.74a1 1 0 0 1 1-1h23.563c.551 0 1 .449 1 1v5.783H48.551V40.74zm-26.752 8.783a1 1 0 0 1 1-1h77.068a1 1 0 0 1 1 1v9.74L62.916 71.826c-.844.279-2.324.279-3.168 0L21.799 59.264v-9.741z"/></g></svg>