<svg width="140" height="140" viewBox="0 0 140 140" xmlns="http://www.w3.org/2000/svg"><title>payment-methods</title><g fill="none" fill-rule="evenodd"><g fill-rule="nonzero"><path fill="#F8F8F9" d="M1 1h138v138H1z"/><path d="M138 2v136H2V2h136zm2-2H0v140h140V0z" fill="#CDCCCC"/></g><g transform="translate(26 31)"><path d="M7.568 34.03a5.835 5.835 0 0 1 5.828-5.83h67.893L73.301 2.882a4.01 4.01 0 0 0-5.018-2.61l-65.4 20.637a4.012 4.012 0 0 0-2.61 5.019l7.295 23.118V34.03z" fill="#2A3052" fill-rule="nonzero"/><g fill="#2A3052" fill-rule="nonzero"><path d="M82.912 29.967H14.333c-2.757 0-5 2.243-5 5v37.947c0 2.757 2.243 5 5 5h68.579c2.756 0 5-2.243 5-5V34.967c0-2.757-2.244-5-5-5zm-68.579 2h68.579c1.654 0 3 1.346 3 3v8.07H11.333v-8.07c0-1.654 1.346-3 3-3zm68.579 43.947H14.333c-1.654 0-3-1.346-3-3V50.037h74.579v22.877c0 1.654-1.346 3-3 3z"/><path d="M17.098 55.769h33.439v4H17.098zM17.098 63.683h21.697v4H17.098z"/></g><circle fill="#F8F8F9" cx="78" cy="71" r="20"/><path d="M80.292 69.842c.36-.067.645-.176.847-.324a1.1 1.1 0 0 0 .392-.538c.094-.265.142-.613.142-1.034 0-.32-.033-.596-.096-.824a.884.884 0 0 0-.271-.44c-.143-.127-.36-.226-.642-.295-.324-.079-.76-.119-1.299-.119h-3.998v3.687h.46c.905 0 4.117-.048 4.465-.113zm1.286 2.227c-.194-.156-.48-.275-.852-.355-.35-.073-3.503-.134-4.584-.134h-.775v4.13h4.176c.525 0 .966-.04 1.313-.12.302-.07.543-.182.715-.332.165-.144.282-.333.357-.577.087-.282.132-.646.132-1.084 0-.391-.041-.725-.12-.992a1.056 1.056 0 0 0-.362-.536zM78 56.596c-7.955 0-14.404 6.45-14.404 14.404 0 7.955 6.45 14.404 14.404 14.404 7.955 0 14.404-6.45 14.404-14.404 0-7.955-6.45-14.404-14.404-14.404zm6.54 18.355c-.18.472-.485.893-.907 1.251-.409.348-.946.627-1.597.832-.636.2-1.431.3-2.364.3h-.896v2.408H77.55v-2.408h-1.552v2.408h-1.226v-2.408h-3.57V75.71h1.613v-9.44h-1.612v-1.626h3.57v-2.385h1.225v2.385h1.552v-2.385h1.226v2.385h.694c.853 0 1.59.076 2.19.224.62.155 1.137.375 1.535.656.419.297.727.655.916 1.066.182.396.275.829.275 1.285 0 .363-.058.718-.17 1.055a2.986 2.986 0 0 1-.545.96c-.225.269-.511.51-.85.716l.078.033c.434.194.797.44 1.08.732.287.298.5.64.63 1.019.125.363.188.755.188 1.168 0 .475-.086.945-.258 1.394zM78 53c-9.925 0-18 8.075-18 18s8.075 18 18 18 18-8.075 18-18-8.075-18-18-18zm0 33.821c-8.724 0-15.821-7.097-15.821-15.821S69.276 55.179 78 55.179 93.821 62.276 93.821 71 86.724 86.821 78 86.821z" fill="#E98024" fill-rule="nonzero"/></g></g></svg>