<svg xmlns="http://www.w3.org/2000/svg" viewBox="0 0 140 140"><defs><style>.cls-1{fill:#f8f8f9;}.cls-2{fill:#cdcccc;}.cls-3{fill:#2a3052;}</style></defs><title>p2p-biinary cashier section</title><g id="Layer_1" data-name="Layer 1"><path class="cls-1" d="M1,1H139V139H1Z"/><path class="cls-2" d="M138,2V138H2V2H138m2-2H0V140H140Z"/><path class="cls-3" d="M70,22A48,48,0,1,1,22,70,48.05,48.05,0,0,1,70,22m0-2a50,50,0,1,0,50,50A50,50,0,0,0,70,20Z"/><g id="Layer_1-2" data-name="Layer 1"><rect class="cls-3" x="36.89" y="99.92" width="11.29" height="5.09" transform="translate(-60 60.1) rotate(-45.01)"/><path class="cls-3" d="M44.73,98.08l2.18,2.19-6.57,6.57-2.18-2.18,6.57-6.58m0-2.83-9.4,9.41,5,5,9.4-9.4-5-5Z"/><path class="cls-3" d="M64.24,102.65a23.46,23.46,0,0,1-13.16-4,1,1,0,0,0-.56-.17,1,1,0,0,0-.7.3l-.07.07-3.6-3.6,3.41-3.41a.89.89,0,0,1,1.28,0,19.3,19.3,0,0,0,13.55,5.58,18.1,18.1,0,0,0,13.14-5.48A18.57,18.57,0,0,0,77.31,66l-6.16-6.16L71,59.72a2.55,2.55,0,0,1,0-3.5,2.45,2.45,0,0,1,1.79-.74,2.72,2.72,0,0,1,1.85.73l.08.07,6.14,6.14a23.56,23.56,0,0,1-16.65,40.23Z"/><path class="cls-3" d="M72.83,56.48a1.65,1.65,0,0,1,1.16.46l.11.09,6.1,6.1A22.57,22.57,0,0,1,51.64,97.82a2.07,2.07,0,0,0-1.12-.34,2.17,2.17,0,0,0-.62.1l-2.34-2.33,2.64-2.64a20.31,20.31,0,0,0,14.19,5.81,19.12,19.12,0,0,0,13.86-5.78A19.57,19.57,0,0,0,78,65.32l-6.1-6.11A2.13,2.13,0,0,0,71.7,59a1.55,1.55,0,0,1,.06-2.08,1.48,1.48,0,0,1,1.07-.43M50.27,92.54h0M72.83,54.48a3.47,3.47,0,0,0-2.51,1,3.55,3.55,0,0,0,0,5h0v0l6.23,6.23a17.49,17.49,0,0,1,.21,24.51,17.13,17.13,0,0,1-12.42,5.18,18.2,18.2,0,0,1-12.85-5.29,1.89,1.89,0,0,0-1.34-.56,1.93,1.93,0,0,0-1.35.56L45.19,94.8l-.46.45,5,5,.77-.78A24.57,24.57,0,0,0,81.61,61.71l-6.23-6.22h0a3.67,3.67,0,0,0-2.54-1Z"/><rect class="cls-3" x="91.82" y="34.89" width="11.5" height="5.09" transform="translate(2.11 79.97) rotate(-45.01)"/><path class="cls-3" d="M99.83,33,102,35.17,95.3,41.89,93.12,39.7,99.83,33m0-2.83-9.54,9.55,5,5,9.54-9.55-5-5Z"/><path class="cls-3" d="M67.19,84.49a2.69,2.69,0,0,1-1.85-.74l-.08-.07-6.14-6.14A23.57,23.57,0,0,1,88.94,41.31a1,1,0,0,0,.56.17,1,1,0,0,0,.7-.29l.07-.07,3.6,3.6-3.41,3.41a.92.92,0,0,1-1.28,0,19.26,19.26,0,0,0-13.55-5.58A18.09,18.09,0,0,0,62.49,48a18.57,18.57,0,0,0,.22,25.92l6.16,6.16.14.15a2.55,2.55,0,0,1,0,3.5A2.49,2.49,0,0,1,67.19,84.49Z"/><path class="cls-3" d="M75.78,38.31a22.44,22.44,0,0,1,12.6,3.83,2,2,0,0,0,1.12.34,1.87,1.87,0,0,0,.62-.1l2.34,2.34-2.64,2.63a20.29,20.29,0,0,0-14.19-5.8,19.08,19.08,0,0,0-13.86,5.78A19.57,19.57,0,0,0,62,74.65l6.1,6.1a1.45,1.45,0,0,0,.21.22,1.55,1.55,0,0,1-.06,2.08,1.48,1.48,0,0,1-1.07.44A1.69,1.69,0,0,1,66,83l-.11-.1-6.1-6.09a22.61,22.61,0,0,1,0-31.93,22.38,22.38,0,0,1,16-6.6m0-2A24.56,24.56,0,0,0,58.41,78.25l6.23,6.23h0a3.69,3.69,0,0,0,2.54,1,3.48,3.48,0,0,0,2.51-1,3.55,3.55,0,0,0,0-5h0v0l-6.23-6.23a17.49,17.49,0,0,1-.21-24.51,17.16,17.16,0,0,1,12.42-5.17,18.16,18.16,0,0,1,12.85,5.29,1.88,1.88,0,0,0,1.34.55,1.9,1.9,0,0,0,1.35-.55l3.66-3.67.46-.45-5-5-.77.78a24.57,24.57,0,0,0-13.72-4.17Z"/></g></g></svg>