<svg id="Layer_1" data-name="Layer 1" xmlns="http://www.w3.org/2000/svg" viewBox="0 0 50 50"><defs><style>.cls-1{fill:#d4d6dc;}.cls-2{fill:#aaacba;}.cls-3{fill:none;stroke:#2a3052;stroke-miterlimit:10;stroke-width:0.89px;}.cls-4{fill:#2a3052;}.cls-5{fill:#fff;}</style></defs><title>icon</title><path class="cls-1" d="M36.58,41H12.9a3.84,3.84,0,0,1-3.84-3.84V10.42a1,1,0,0,1,1.37-.86l0.75,0.36a1.77,1.77,0,0,0,1.56,0l1.7-.83a1,1,0,0,1,.84,0L17,9.93a1.77,1.77,0,0,0,1.56,0l1.7-.83a1,1,0,0,1,.84,0l1.7,0.83a1.77,1.77,0,0,0,1.56,0L26,9.1a1,1,0,0,1,.84,0l1.7,0.83a1.77,1.77,0,0,0,1.56,0l0.75-.36a1,1,0,0,1,1.37.86V27.67"/><path class="cls-2" d="M32.23,27.67h8.72a0,0,0,0,1,0,0v9A4.36,4.36,0,0,1,36.58,41h0a4.36,4.36,0,0,1-4.36-4.36v-9a0,0,0,0,1,0,0Z"/><path class="cls-3" d="M36.58,41H12.9a3.84,3.84,0,0,1-3.84-3.84V10.42a1,1,0,0,1,1.37-.86l0.75,0.36a1.77,1.77,0,0,0,1.56,0l1.7-.83a1,1,0,0,1,.84,0L17,9.93a1.77,1.77,0,0,0,1.56,0l1.7-.83a1,1,0,0,1,.84,0l1.7,0.83a1.77,1.77,0,0,0,1.56,0L26,9.1a1,1,0,0,1,.84,0l1.7,0.83a1.77,1.77,0,0,0,1.56,0l0.75-.36a1,1,0,0,1,1.37.86V27.67"/><path class="cls-3" d="M32.23,27.67h8.72a0,0,0,0,1,0,0v9A4.36,4.36,0,0,1,36.58,41h0a4.36,4.36,0,0,1-4.36-4.36v-9a0,0,0,0,1,0,0Z"/><line class="cls-3" x1="13.6" y1="28.76" x2="28.58" y2="28.76"/><line class="cls-3" x1="13.6" y1="31.93" x2="28.58" y2="31.93"/><line class="cls-3" x1="13.6" y1="35.1" x2="28.58" y2="35.1"/><circle class="cls-4" cx="20.71" cy="19.8" r="6.26"/><path class="cls-5" d="M20.2,23.28V21.4H18.54V20.87H20.2V20.1H18.54V19.56h1.39l-1.8-3.25h1l1.11,2.21c0.17,0.36.3,0.65,0.43,1h0a9,9,0,0,1,.43-1l1.16-2.19h1l-1.92,3.25h1.39V20.1H21.09v0.77h1.67V21.4H21.09v1.88H20.2Z"/></svg>