<svg id="Layer_1" data-name="Layer 1" xmlns="http://www.w3.org/2000/svg" viewBox="0 0 50 50"><defs><style>.cls-1{fill:#d4d6dc}.cls-2{fill:#aaacba}.cls-3{fill:none;stroke:#2a3052;stroke-miterlimit:10;stroke-width:.89px}.cls-4{fill:#2a3052}.cls-5{fill:#fff}</style></defs><title>icon</title><path class="cls-1" d="M36.58 41H12.9a3.84 3.84 0 0 1-3.84-3.84V10.42a1 1 0 0 1 1.37-.86l.75.36a1.77 1.77 0 0 0 1.56 0l1.7-.83a1 1 0 0 1 .84 0l1.72.84a1.77 1.77 0 0 0 1.56 0l1.7-.83a1 1 0 0 1 .84 0l1.7.83a1.77 1.77 0 0 0 1.56 0L26 9.1a1 1 0 0 1 .84 0l1.7.83a1.77 1.77 0 0 0 1.56 0l.75-.36a1 1 0 0 1 1.37.86v17.24"/><path class="cls-2" d="M32.23 27.67h8.72v9A4.36 4.36 0 0 1 36.58 41a4.36 4.36 0 0 1-4.36-4.36v-9z"/><path class="cls-3" d="M36.58 41H12.9a3.84 3.84 0 0 1-3.84-3.84V10.42a1 1 0 0 1 1.37-.86l.75.36a1.77 1.77 0 0 0 1.56 0l1.7-.83a1 1 0 0 1 .84 0l1.72.84a1.77 1.77 0 0 0 1.56 0l1.7-.83a1 1 0 0 1 .84 0l1.7.83a1.77 1.77 0 0 0 1.56 0L26 9.1a1 1 0 0 1 .84 0l1.7.83a1.77 1.77 0 0 0 1.56 0l.75-.36a1 1 0 0 1 1.37.86v17.24"/><path class="cls-3" d="M32.23 27.67h8.72v9A4.36 4.36 0 0 1 36.58 41a4.36 4.36 0 0 1-4.36-4.36v-9zM13.6 28.76h14.98M13.6 31.93h14.98M13.6 35.1h14.98"/><circle class="cls-4" cx="20.71" cy="19.8" r="6.26"/><path class="cls-5" d="M20.2 23.28V21.4h-1.66v-.53h1.66v-.77h-1.66v-.54h1.39l-1.8-3.25h1l1.11 2.21c.17.36.3.65.43 1a9 9 0 0 1 .43-1l1.16-2.19h1l-1.92 3.25h1.39v.52h-1.64v.77h1.67v.53h-1.67v1.88h-.89z"/></svg>