<svg id="Layer_1" data-name="Layer 1" xmlns="http://www.w3.org/2000/svg" viewBox="0 0 140 140"><defs><style>.cls-1{fill:#f3f2f2;}.cls-2{fill:#c2c2c2;}.cls-3,.cls-4{fill:none;stroke:#293052;stroke-miterlimit:10;}.cls-3{stroke-width:2px;}.cls-4{stroke-width:3px;}.cls-5{fill:#293052;}</style></defs><title>Artboard 1</title><rect class="cls-1" x="1" y="1" width="138" height="138"/><path class="cls-2" d="M138,2V138H2V2H138m2-2H0V140H140V0Z"/><path class="cls-3" d="M81.516,36.867A20.4,20.4,0,0,0,90.424,20H49.576a20.4,20.4,0,0,0,8.908,16.867,42.365,42.365,0,1,0,23.033,0Z"/><line class="cls-4" x1="52.066" y1="36.764" x2="88.129" y2="36.764"/><path class="cls-5" d="M73.285,83.872a3.548,3.548,0,0,0-.747-2.41,7.564,7.564,0,0,0-2.656-1.682,23.186,23.186,0,0,1-6.756-3.746,7.107,7.107,0,0,1-2.114-5.576,7.268,7.268,0,0,1,2.242-5.478,9.648,9.648,0,0,1,5.979-2.508v-4.15H72.36v4.229a8.44,8.44,0,0,1,7.612,9.028l-.04.1h-6.51a5.133,5.133,0,0,0-.826-3.2,2.66,2.66,0,0,0-2.2-1.052,2.447,2.447,0,0,0-2.065.865,3.5,3.5,0,0,0-.668,2.2,3.283,3.283,0,0,0,.718,2.2,7.619,7.619,0,0,0,2.685,1.711A24.637,24.637,0,0,1,77.77,78.3a7.079,7.079,0,0,1,2.144,5.536A7.317,7.317,0,0,1,77.76,89.34,9.429,9.429,0,0,1,71.968,91.8v3.953H68.84V91.778a10.667,10.667,0,0,1-6.333-2.665Q59.99,86.822,60.068,82.4l.059-.118H66.6a4.856,4.856,0,0,0,1.062,3.511,3.706,3.706,0,0,0,2.753,1.072,2.707,2.707,0,0,0,2.144-.826A3.156,3.156,0,0,0,73.285,83.872Z"/><circle class="cls-3" cx="70.097" cy="77.635" r="26.251"/></svg>