<svg width="299" height="197" xmlns="http://www.w3.org/2000/svg" xmlns:xlink="http://www.w3.org/1999/xlink"><defs><path d="M22.25 22v-9.953h3.063c.875 0 1.657.197 2.348.591.69.394 1.229.955 1.616 1.682.388.727.581 1.553.581 2.478v.458c0 .925-.19 1.748-.57 2.468a4.088 4.088 0 0 1-1.61 1.674c-.693.397-1.475.597-2.345.602H22.25zm2.05-8.292v6.645h.992c.802 0 1.415-.263 1.839-.787.424-.524.64-1.273.65-2.249v-.526c0-1.012-.21-1.778-.63-2.3-.419-.522-1.032-.783-1.838-.783H24.3zM33.305 22H31.32v-7.396h1.983V22zm-2.099-9.31c0-.297.1-.54.297-.732.199-.191.469-.287.81-.287.338 0 .607.096.807.287.2.191.3.435.3.731a.97.97 0 0 1-.303.739c-.203.191-.47.287-.803.287-.333 0-.6-.096-.804-.287a.97.97 0 0 1-.304-.739zM35.471 22v-5.947h-1.1v-1.45h1.1v-.628c0-.83.238-1.474.714-1.932.476-.458 1.143-.687 2-.687.273 0 .608.046 1.004.137l-.02 1.531a2.519 2.519 0 0 0-.602-.061c-.742 0-1.114.349-1.114 1.046v.595h1.47v1.449h-1.47V22h-1.982zm7.717.137c-1.084 0-1.967-.333-2.648-.998-.682-.666-1.022-1.552-1.022-2.66v-.19c0-.744.143-1.408.43-1.994a3.16 3.16 0 0 1 1.22-1.353c.527-.317 1.127-.475 1.802-.475 1.011 0 1.808.319 2.389.957.58.638.871 1.542.871 2.714v.806h-4.71c.064.483.257.87.578 1.162.321.292.728.438 1.22.438.761 0 1.356-.276 1.785-.827l.97 1.087c-.296.419-.697.746-1.203.98a3.947 3.947 0 0 1-1.682.353zm-.225-6.07c-.392 0-.71.132-.954.396s-.4.642-.468 1.135h2.748v-.158c-.01-.437-.128-.775-.355-1.015-.228-.239-.552-.359-.971-.359zm8.545.39a5.367 5.367 0 0 0-.711-.056c-.748 0-1.237.253-1.47.76V22h-1.975v-7.396h1.866l.054.881c.397-.679.946-1.018 1.648-1.018.219 0 .424.03.615.089l-.027 1.9zm4.224 5.68c-1.084 0-1.967-.333-2.649-.998-.68-.666-1.021-1.552-1.021-2.66v-.19c0-.744.143-1.408.43-1.994a3.16 3.16 0 0 1 1.22-1.353c.527-.317 1.127-.475 1.802-.475 1.011 0 1.808.319 2.389.957.58.638.871 1.542.871 2.714v.806h-4.71c.064.483.257.87.578 1.162.321.292.728.438 1.22.438.761 0 1.356-.276 1.784-.827l.971 1.087c-.296.419-.697.746-1.203.98a3.947 3.947 0 0 1-1.682.353zm-.225-6.07c-.392 0-.71.132-.954.396s-.4.642-.468 1.135h2.748v-.158c-.01-.437-.128-.775-.355-1.015-.228-.239-.552-.359-.971-.359z" id="a"/><path d="M109.701 17.104V21h-1.312v-9.953h3.67c1.09 0 1.943.278 2.56.834.618.556.927 1.292.927 2.208 0 .966-.302 1.71-.906 2.232-.604.522-1.468.783-2.594.783H109.7zm0-1.074h2.359c.701 0 1.24-.165 1.613-.495.374-.33.56-.808.56-1.432 0-.593-.186-1.067-.56-1.422-.374-.356-.887-.54-1.538-.554H109.7v3.903zm10.897-1.292a3.79 3.79 0 0 0-.622-.048c-.83 0-1.393.354-1.689 1.06V21h-1.265v-7.396h1.23l.021.854c.415-.66 1.003-.991 1.764-.991.246 0 .433.032.56.095v1.176zm4.101 6.399c-1.002 0-1.818-.33-2.447-.988-.629-.659-.943-1.54-.943-2.642v-.233c0-.733.14-1.388.42-1.965a3.28 3.28 0 0 1 1.176-1.353 2.956 2.956 0 0 1 1.637-.49c.962 0 1.709.318 2.242.951.533.633.8 1.54.8 2.72v.527h-5.01c.017.73.23 1.318.638 1.767.408.449.927.673 1.556.673.446 0 .824-.09 1.134-.273.31-.182.581-.424.814-.725l.772.602c-.62.952-1.55 1.429-2.789 1.429zm-.157-6.631c-.51 0-.939.186-1.285.557-.347.371-.56.892-.643 1.562h3.705v-.096c-.036-.642-.21-1.14-.52-1.493-.31-.354-.728-.53-1.257-.53zm6.856 4.778l1.832-5.68h1.292L131.87 21h-.964l-2.68-7.396h1.293l1.88 5.68zM137.113 21h-1.264v-7.396h1.264V21zm-1.367-9.358c0-.205.063-.379.188-.52.125-.141.311-.212.557-.212.246 0 .433.07.56.212a.747.747 0 0 1 .192.52.722.722 0 0 1-.191.512c-.128.137-.315.205-.56.205-.247 0-.433-.068-.558-.205a.73.73 0 0 1-.188-.512zm7.697 7.396c0-.342-.128-.607-.386-.796-.257-.19-.706-.352-1.347-.49-.64-.136-1.148-.3-1.524-.491-.376-.192-.654-.42-.834-.684a1.635 1.635 0 0 1-.27-.943c0-.606.256-1.119.77-1.538.512-.42 1.167-.63 1.964-.63.839 0 1.52.217 2.04.65.523.433.784.987.784 1.661h-1.272c0-.346-.147-.645-.44-.895-.295-.25-.665-.376-1.112-.376-.46 0-.82.1-1.08.3-.26.201-.39.463-.39.787 0 .305.121.535.363.69.242.155.678.303 1.31.445.63.14 1.142.31 1.534.505.392.196.682.432.871.708.19.276.284.612.284 1.008 0 .661-.264 1.19-.793 1.59-.529.398-1.214.598-2.058.598-.592 0-1.116-.105-1.572-.315a2.557 2.557 0 0 1-1.07-.878 2.117 2.117 0 0 1-.386-1.22h1.265c.023.423.192.76.509 1.008s.735.372 1.254.372c.479 0 .863-.096 1.152-.29.29-.194.434-.452.434-.776zM150.922 21c-.073-.146-.132-.406-.178-.78-.588.611-1.29.917-2.105.917-.73 0-1.328-.206-1.795-.619a2.002 2.002 0 0 1-.7-1.569c0-.77.292-1.368.878-1.794.586-.426 1.41-.64 2.471-.64h1.23v-.58c0-.442-.132-.795-.396-1.057-.264-.262-.654-.393-1.169-.393-.451 0-.83.114-1.135.342-.305.228-.458.504-.458.827h-1.271c0-.369.131-.725.393-1.07a2.683 2.683 0 0 1 1.066-.816c.45-.2.943-.301 1.48-.301.853 0 1.52.213 2.003.639.483.426.734 1.013.752 1.76v3.405c0 .679.087 1.219.26 1.62V21h-1.326zm-2.099-.964c.397 0 .773-.102 1.128-.307a1.86 1.86 0 0 0 .773-.8V17.41h-.992c-1.55 0-2.324.454-2.324 1.36 0 .397.132.707.397.93.264.223.604.335 1.018.335zm2.974-9.317c0 .492-.14.89-.42 1.196-.28.305-.63.458-1.05.458a1.54 1.54 0 0 1-.485-.068 2.619 2.619 0 0 1-.537-.28c-.22-.142-.38-.227-.478-.257a1.171 1.171 0 0 0-.339-.044.627.627 0 0 0-.478.215.78.78 0 0 0-.198.55l-.848-.048c0-.487.138-.89.413-1.21a1.326 1.326 0 0 1 1.05-.478c.16 0 .303.023.43.068.128.046.301.135.52.267.219.132.386.219.502.26.117.04.245.061.387.061a.612.612 0 0 0 .488-.232.815.815 0 0 0 .195-.54l.848.082zm1.839 6.514c0-.724.142-1.376.427-1.955a3.187 3.187 0 0 1 1.19-1.34c.508-.314 1.087-.471 1.74-.471 1.006 0 1.821.348 2.443 1.046.622.697.933 1.624.933 2.782v.089c0 .72-.138 1.366-.413 1.938a3.14 3.14 0 0 1-1.183 1.336c-.513.32-1.102.479-1.767.479-1.003 0-1.815-.349-2.437-1.046-.622-.697-.933-1.62-.933-2.769v-.089zm1.271.15c0 .821.19 1.48.571 1.976.38.497.89.745 1.528.745.642 0 1.153-.251 1.531-.755.378-.503.567-1.209.567-2.116 0-.81-.192-1.468-.577-1.972-.385-.503-.897-.755-1.535-.755-.624 0-1.128.248-1.51.745-.383.497-.575 1.208-.575 2.133zm10.206-.143c0-1.135.27-2.047.807-2.738.538-.69 1.242-1.035 2.112-1.035.866 0 1.552.296 2.058.888V10.5h1.264V21h-1.162l-.061-.793c-.506.62-1.21.93-2.112.93-.857 0-1.556-.351-2.096-1.053s-.81-1.618-.81-2.748v-.096zm1.265.144c0 .838.173 1.495.52 1.969.346.473.824.71 1.435.71.802 0 1.388-.36 1.757-1.08v-3.397c-.378-.697-.96-1.046-1.743-1.046-.62 0-1.103.24-1.45.718-.346.478-.52 1.187-.52 2.126zm6.603-.15c0-.725.143-1.377.428-1.956a3.187 3.187 0 0 1 1.19-1.34c.507-.314 1.087-.471 1.739-.471 1.007 0 1.822.348 2.444 1.046.622.697.933 1.624.933 2.782v.089c0 .72-.138 1.366-.414 1.938a3.14 3.14 0 0 1-1.182 1.336c-.513.32-1.102.479-1.767.479-1.003 0-1.815-.349-2.437-1.046-.623-.697-.934-1.62-.934-2.769v-.089zm1.272.15c0 .82.19 1.479.57 1.975.381.497.89.745 1.529.745.642 0 1.153-.251 1.53-.755.38-.503.568-1.209.568-2.116 0-.81-.192-1.468-.577-1.972-.386-.503-.897-.755-1.535-.755-.624 0-1.128.248-1.51.745-.384.497-.575 1.208-.575 2.133zm15.08 2.885c-.492.578-1.215.868-2.167.868-.788 0-1.389-.23-1.801-.687-.413-.458-.621-1.136-.626-2.034v-4.812h1.265v4.778c0 1.12.456 1.681 1.367 1.681.966 0 1.609-.36 1.928-1.08v-5.38h1.264V21h-1.203l-.027-.731zm-1.025-9.769h1.53l-1.831 2.01h-1.019l1.32-2.01zm5.55 10.5h-1.264V10.5h1.264V21zm3.74-9.188v1.792h1.38v.977h-1.38v4.587c0 .296.061.518.184.666.123.149.333.223.63.223.145 0 .345-.028.6-.082V21a3.666 3.666 0 0 1-.97.137c-.565 0-.991-.171-1.278-.513-.287-.342-.431-.827-.431-1.456v-4.587h-1.347v-.977h1.347v-1.791h1.265zM201.829 21h-1.265v-7.396h1.265V21zm-1.367-9.358c0-.205.063-.379.188-.52.125-.141.31-.212.557-.212.246 0 .433.07.56.212a.747.747 0 0 1 .192.52.722.722 0 0 1-.191.512c-.128.137-.315.205-.561.205-.246 0-.432-.068-.557-.205a.73.73 0 0 1-.188-.512zm4.58 1.962l.034.82c.542-.638 1.274-.957 2.195-.957 1.034 0 1.738.396 2.112 1.19.246-.356.566-.643.96-.862.394-.219.86-.328 1.398-.328 1.623 0 2.447.859 2.475 2.577V21h-1.265v-4.88c0-.53-.12-.925-.362-1.187s-.647-.393-1.217-.393c-.47 0-.859.14-1.169.42-.31.28-.49.658-.54 1.132V21h-1.271v-4.847c0-1.075-.527-1.613-1.58-1.613-.829 0-1.396.353-1.702 1.06V21h-1.264v-7.396h1.196zm10.746 3.63c0-.725.142-1.377.427-1.956a3.187 3.187 0 0 1 1.19-1.34c.508-.314 1.088-.471 1.74-.471 1.007 0 1.821.348 2.443 1.046.622.697.933 1.624.933 2.782v.089c0 .72-.137 1.366-.413 1.938a3.14 3.14 0 0 1-1.183 1.336c-.512.32-1.101.479-1.767.479-1.002 0-1.815-.349-2.437-1.046-.622-.697-.933-1.62-.933-2.769v-.089zm1.272.15c0 .82.19 1.479.57 1.975.38.497.89.745 1.528.745.643 0 1.153-.251 1.531-.755.379-.503.568-1.209.568-2.116 0-.81-.193-1.468-.578-1.972-.385-.503-.896-.755-1.534-.755-.625 0-1.128.248-1.511.745s-.574 1.208-.574 2.133zm10.206-.144c0-1.135.269-2.047.806-2.738.538-.69 1.242-1.035 2.113-1.035.865 0 1.551.296 2.057.888V10.5h1.265V21h-1.162l-.062-.793c-.506.62-1.21.93-2.112.93-.857 0-1.555-.351-2.095-1.053-.54-.702-.81-1.618-.81-2.748v-.096zm1.264.144c0 .838.173 1.495.52 1.969.346.473.825.71 1.435.71.802 0 1.388-.36 1.757-1.08v-3.397c-.378-.697-.96-1.046-1.743-1.046-.62 0-1.103.24-1.45.718-.346.478-.519 1.187-.519 2.126zM236.843 21h-1.272v-7.396h1.272V21zm.013-10.493h1.532l-1.832 2.01h-1.019l1.32-2.01zm1.771 6.733c0-1.153.267-2.07.8-2.751.533-.682 1.24-1.022 2.119-1.022.902 0 1.606.319 2.112.957l.062-.82h1.155v7.218c0 .957-.284 1.712-.851 2.263-.567.551-1.33.827-2.287.827a3.804 3.804 0 0 1-1.565-.342c-.51-.228-.9-.54-1.17-.936l.657-.759c.543.67 1.206 1.005 1.99 1.005.615 0 1.094-.173 1.438-.52.344-.346.517-.834.517-1.463v-.635c-.506.583-1.197.875-2.072.875-.866 0-1.566-.349-2.102-1.046-.535-.697-.803-1.648-.803-2.85zm1.271.144c0 .834.171 1.489.513 1.965.342.476.82.714 1.436.714.797 0 1.383-.362 1.757-1.086V15.6c-.388-.707-.969-1.06-1.744-1.06-.615 0-1.096.24-1.442.718-.346.478-.52 1.187-.52 2.126zM248.156 21h-1.264v-7.396h1.264V21zm-1.367-9.358c0-.205.063-.379.188-.52.125-.141.311-.212.557-.212.246 0 .433.07.56.212a.747.747 0 0 1 .192.52.722.722 0 0 1-.191.512c-.128.137-.315.205-.56.205-.247 0-.433-.068-.558-.205a.73.73 0 0 1-.188-.512zm5.107.17v1.792h1.38v.977h-1.38v4.587c0 .296.061.518.184.666.123.149.333.223.629.223.146 0 .346-.028.602-.082V21a3.666 3.666 0 0 1-.971.137c-.565 0-.991-.171-1.278-.513-.288-.342-.431-.827-.431-1.456v-4.587h-1.347v-.977h1.347v-1.791h1.265zm2.385 5.421c0-.724.143-1.376.427-1.955a3.187 3.187 0 0 1 1.19-1.34c.508-.314 1.088-.471 1.74-.471 1.007 0 1.821.348 2.444 1.046.622.697.933 1.624.933 2.782v.089c0 .72-.138 1.366-.414 1.938a3.14 3.14 0 0 1-1.183 1.336c-.512.32-1.101.479-1.767.479-1.002 0-1.815-.349-2.437-1.046-.622-.697-.933-1.62-.933-2.769v-.089zm1.272.15c0 .821.19 1.48.57 1.976.381.497.89.745 1.528.745.643 0 1.153-.251 1.532-.755.378-.503.567-1.209.567-2.116 0-.81-.193-1.468-.578-1.972-.385-.503-.896-.755-1.534-.755-.625 0-1.128.248-1.511.745s-.574 1.208-.574 2.133zm7.007 2.954c0-.219.065-.401.194-.547.13-.146.325-.219.585-.219.26 0 .457.073.591.219a.776.776 0 0 1 .202.547c0 .21-.067.385-.202.526-.134.142-.331.212-.591.212-.26 0-.455-.07-.585-.212a.748.748 0 0 1-.194-.526zm.006-6.036c0-.219.065-.401.195-.547.13-.146.325-.219.585-.219.26 0 .457.073.591.219a.776.776 0 0 1 .202.547c0 .21-.068.385-.202.526-.134.141-.332.212-.591.212-.26 0-.455-.07-.585-.212a.748.748 0 0 1-.195-.526zm8.6 1.107h.95c.597-.009 1.067-.166 1.408-.471.342-.306.513-.718.513-1.238 0-1.166-.58-1.75-1.743-1.75-.547 0-.983.156-1.31.468-.325.313-.488.726-.488 1.241h-1.265c0-.788.289-1.443.865-1.965.577-.522 1.31-.783 2.198-.783.939 0 1.675.249 2.208.745.533.497.8 1.187.8 2.072 0 .433-.14.852-.42 1.257-.28.406-.663.709-1.146.91.547.173.97.46 1.268.86.299.402.448.892.448 1.47 0 .894-.292 1.602-.875 2.127-.583.524-1.342.786-2.276.786-.934 0-1.694-.253-2.28-.76-.586-.505-.878-1.173-.878-2.002h1.271c0 .524.171.943.513 1.258.342.314.8.471 1.374.471.61 0 1.078-.159 1.401-.478.324-.319.486-.777.486-1.374 0-.579-.178-1.023-.534-1.333-.355-.31-.868-.47-1.538-.479h-.95v-1.032z" id="b"/><path d="M128.995 168.023c-.58.695-1.4 1.234-2.46 1.617s-2.234.575-3.523.575c-1.354 0-2.54-.296-3.561-.886-1.02-.591-1.809-1.449-2.364-2.573-.555-1.124-.84-2.446-.854-3.964v-1.063c0-1.562.264-2.913.79-4.056.526-1.142 1.285-2.016 2.277-2.62.992-.606 2.154-.908 3.486-.908 1.855 0 3.305.442 4.35 1.326 1.046.885 1.666 2.172 1.86 3.862h-3.138c-.143-.895-.46-1.55-.95-1.966-.49-.415-1.166-.623-2.025-.623-1.096 0-1.93.412-2.503 1.235-.573.824-.863 2.049-.87 3.674v1c0 1.64.311 2.878.934 3.716.623.838 1.536 1.257 2.74 1.257 1.21 0 2.073-.258 2.588-.773v-2.697h-2.932v-2.374h6.155v6.241zm9.142 1.977a3.447 3.447 0 0 1-.312-1.042c-.752.838-1.73 1.257-2.932 1.257-1.14 0-2.083-.33-2.831-.988-.748-.66-1.123-1.49-1.123-2.493 0-1.231.457-2.177 1.37-2.836.913-.658 2.233-.991 3.959-.999h1.428v-.666c0-.537-.138-.966-.413-1.289-.276-.322-.711-.483-1.305-.483-.523 0-.933.125-1.23.376-.298.25-.446.594-.446 1.031h-3.105c0-.673.208-1.296.623-1.869.416-.573 1.003-1.022 1.762-1.348.76-.326 1.611-.489 2.557-.489 1.432 0 2.569.36 3.41 1.08.842.72 1.263 1.731 1.263 3.034v5.038c.007 1.103.16 1.938.461 2.503V170h-3.136zm-2.568-2.16c.459 0 .881-.101 1.268-.305a2.01 2.01 0 0 0 .86-.822v-1.998h-1.16c-1.555 0-2.382.537-2.482 1.611l-.011.183c0 .387.136.705.408.956.272.25.645.376 1.117.376zm10.485-9.463l.096 1.343c.831-1.039 1.945-1.558 3.341-1.558 1.232 0 2.149.362 2.75 1.085.602.723.91 1.805.924 3.244V170h-3.104v-7.434c0-.658-.144-1.136-.43-1.434-.287-.297-.763-.445-1.429-.445-.874 0-1.529.372-1.966 1.117V170h-3.104v-11.623h2.922zm12.493 1.268c.823-.989 1.858-1.483 3.104-1.483 2.521 0 3.8 1.465 3.835 4.394V170h-3.104v-7.358c0-.666-.143-1.159-.43-1.477-.286-.32-.763-.478-1.429-.478-.91 0-1.568.35-1.976 1.052V170h-3.105v-16.5h3.105v6.145zm8.798 4.436c0-1.153.222-2.18.666-3.083a4.876 4.876 0 0 1 1.917-2.095c.835-.494 1.803-.74 2.906-.74 1.568 0 2.848.479 3.84 1.439.992.96 1.545 2.263 1.66 3.91l.021.795c0 1.783-.497 3.213-1.493 4.291-.995 1.078-2.33 1.617-4.007 1.617-1.675 0-3.013-.537-4.012-1.611-.999-1.075-1.498-2.536-1.498-4.383v-.14zm3.104.226c0 1.103.208 1.946.623 2.53.416.583 1.01.875 1.783.875.752 0 1.34-.288 1.762-.865.423-.576.634-1.498.634-2.766 0-1.081-.211-1.92-.634-2.514-.422-.594-1.017-.891-1.783-.891-.76 0-1.346.295-1.762.886-.415.59-.623 1.506-.623 2.745z" id="c"/></defs><g transform="translate(1 2)" fill="none" fill-rule="evenodd"><path stroke="#C2C2C2" stroke-width="2.43" fill="#F1F1F2" d="M.899.197h295.595v192.606H.899z"/><path d="M3.595 53.387h291.38M3.595 73.467h291.38M3.595 133.74h291.38M3.595 153.819h291.38M3.595 173.9h291.38M38.797 33.308V191.59M75.671 33.308V191.59m36.873-158.282V191.59M149.38 33.308V191.59m36.873-158.282V191.59m36.874-158.282V191.59M260 33.308V191.59M3.595 113.662h291.38" stroke="#DEDEDD" stroke-width="1.215"/><path d="M3.595 93.583h1.823" stroke="#293052" stroke-width="1.215" stroke-linejoin="round"/><path d="M9.063 93.583h282.304" stroke="#293052" stroke-width="1.215" stroke-linejoin="round" stroke-dasharray="3.646"/><path d="M293.19 93.583h1.785" stroke="#293052" stroke-width="1.215" stroke-linejoin="round"/><path d="M1.506 32.096h295.595" stroke="#C2C2C2" stroke-width="2.43" fill="#F1F1F2"/><path stroke="#293052" stroke-width="3.608" stroke-linecap="round" stroke-linejoin="round" d="M223.127 93.583l-31.861 32.202-42.57-22.314-43.215 24.89-29.81-14.7-36.874-30.686"/><path d="M187.81 144.159h-35.164l-5.545-8.07-5.316 8.07H106.62a4.741 4.741 0 0 0-4.747 4.735v24.512a4.741 4.741 0 0 0 4.747 4.735h81.19a4.753 4.753 0 0 0 3.43-1.346 4.73 4.73 0 0 0 1.43-3.39v-24.473a4.73 4.73 0 0 0-1.416-3.414 4.753 4.753 0 0 0-3.444-1.36z" fill="#E88024"/><ellipse cx="8.468" cy="8.448" rx="8.165" ry="8.373" opacity=".6" transform="translate(214.658 85.135)" fill="#FFF"/><ellipse stroke="#E88024" stroke-width="2.43" cx="223.127" cy="93.583" rx="8.165" ry="8.373"/><path fill="#E88024" d="M246.101 84.756h28.671v18.79h-28.67z"/><path d="M259.848 87.9a5.748 5.748 0 0 1 1.253 0c.39.092.772.218 1.14.379l-.418 1.743-.988-.265h-.987a2.166 2.166 0 0 0-1.747.833 3.328 3.328 0 0 0-.607 2.273c.29-.287.64-.507 1.025-.644.45-.163.927-.24 1.405-.227.97-.042 1.9.38 2.506 1.136.632.839.954 1.87.912 2.917a4.124 4.124 0 0 1-1.14 2.993 3.802 3.802 0 0 1-2.924 1.175 4.03 4.03 0 0 1-3.113-1.288 5.03 5.03 0 0 1-1.178-3.562v-2.348a5.107 5.107 0 0 1 1.367-3.789 4.64 4.64 0 0 1 3.494-1.326zm-.57 5.948a2.74 2.74 0 0 0-1.139.227 1.746 1.746 0 0 0-.721.569v.795c-.051.77.134 1.536.531 2.198.292.473.81.76 1.367.757a1.368 1.368 0 0 0 1.178-.682c.344-.488.53-1.07.531-1.667.03-.578-.13-1.15-.455-1.629a1.444 1.444 0 0 0-1.292-.606v.038z" fill="#FFF" fill-rule="nonzero"/><path fill="#E88024" d="M249.595 94.151l-3.342 3.334-5.202-3.334 5.202-3.296z"/><g fill="#000"><use xlink:href="#a"/><use xlink:href="#a"/></g><use fill="#000" xlink:href="#b"/><use fill="#2A3052" xlink:href="#b"/><g><use fill="#000" xlink:href="#c"/><use fill="#FFF" xlink:href="#c"/></g></g></svg>