<?xml version="1.0" encoding="UTF-8"?>
<svg width="299px" height="197px" viewBox="0 0 299 197" version="1.1" xmlns="http://www.w3.org/2000/svg" xmlns:xlink="http://www.w3.org/1999/xlink">
    <!-- Generator: Sketch 53.1 (72631) - https://sketchapp.com -->
    <title>differs</title>
    <desc>Created with Sketch.</desc>
    <g id="Page-1" stroke="none" stroke-width="1" fill="none" fill-rule="evenodd">
        <g id="differs" fill-rule="nonzero">
            <polygon id="Path" fill="#F1F1F2" points="0 0 299 0 299 197 0 197"></polygon>
            <path d="M1.98671096,1.9798995 L1.98671096,195.020101 L297.013289,195.020101 L297.013289,1.9798995 L1.98671096,1.9798995 Z M299,0 L299,197 L0,197 L0,0 L299,0 Z" id="Path" fill="#C2C2C2"></path>
            <path d="M5.006734,55.1610127 L5.006734,53.953698 L295.006734,53.953698 L295.006734,55.1610127 L5.006734,55.1610127 Z M5.006734,75.4589619 L5.006734,74.2516472 L295.006734,74.2516472 L295.006734,75.4589619 L5.006734,75.4589619 Z M5.006734,136.386168 L5.006734,135.178853 L295.006734,135.178853 L295.006734,136.386168 L5.006734,136.386168 Z M5.006734,156.683106 L5.006734,155.475791 L295.006734,155.475791 L295.006734,156.683106 L5.006734,156.683106 Z M5.006734,176.982065 L5.006734,175.774751 L295.006734,175.774751 L295.006734,176.982065 L5.006734,176.982065 Z M39.437378,34.260417 L40.6466508,34.260417 L40.6466508,194.260417 L39.437378,194.260417 L39.437378,34.260417 Z M76.1367396,34.260417 L77.3460124,34.260417 L77.3460124,194.260417 L76.1367396,194.260417 L76.1367396,34.260417 Z M112.835106,34.260417 L114.044378,34.260417 L114.044378,194.260417 L112.835106,194.260417 L112.835106,34.260417 Z M149.496648,34.260417 L150.70592,34.260417 L150.70592,194.260417 L149.496648,194.260417 L149.496648,34.260417 Z M186.195014,34.260417 L187.404287,34.260417 L187.404287,194.260417 L186.195014,194.260417 L186.195014,34.260417 Z M222.894375,34.260417 L224.103648,34.260417 L224.103648,194.260417 L222.894375,194.260417 L222.894375,34.260417 Z M259.592742,34.260417 L260.802015,34.260417 L260.802015,194.260417 L259.592742,194.260417 L259.592742,34.260417 Z M5.006734,116.09024 L5.006734,114.882925 L295.006734,114.882925 L295.006734,116.09024 L5.006734,116.09024 Z" id="Shape" fill="#DEDEDD"></path>
            <polygon id="Path" fill="#293052" points="3.60706375 97.1320967 3.60706375 95.9129921 5.4361812 95.9129921 5.4361812 97.1320967"></polygon>
            <path d="M9.09341274,97.1320967 L9.09341274,95.9129921 L12.7517296,95.9129921 L12.7517296,97.1320967 L9.09341274,97.1320967 Z M16.4100464,97.1320967 L16.4100464,95.9129921 L20.0683633,95.9129921 L20.0683633,97.1320967 L16.4100464,97.1320967 Z M23.7266801,97.1320967 L23.7266801,95.9129921 L27.384997,95.9129921 L27.384997,97.1320967 L23.7266801,97.1320967 Z M31.0433138,97.1320967 L31.0433138,95.9129921 L34.7016307,95.9129921 L34.7016307,97.1320967 L31.0433138,97.1320967 Z M38.3599475,97.1320967 L38.3599475,95.9129921 L42.0182644,95.9129921 L42.0182644,97.1320967 L38.3599475,97.1320967 Z M45.6765812,97.1320967 L45.6765812,95.9129921 L49.3348981,95.9129921 L49.3348981,97.1320967 L45.6765812,97.1320967 Z M52.9932149,97.1320967 L52.9932149,95.9129921 L56.6515318,95.9129921 L56.6515318,97.1320967 L52.9932149,97.1320967 Z M60.3098486,97.1320967 L60.3098486,95.9129921 L63.9681655,95.9129921 L63.9681655,97.1320967 L60.3098486,97.1320967 Z M67.6264824,97.1320967 L67.6264824,95.9129921 L71.2847992,95.9129921 L71.2847992,97.1320967 L67.6264824,97.1320967 Z M74.9431161,97.1320967 L74.9431161,95.9129921 L78.6014329,95.9129921 L78.6014329,97.1320967 L74.9431161,97.1320967 Z M82.2597498,97.1320967 L82.2597498,95.9129921 L85.9180666,95.9129921 L85.9180666,97.1320967 L82.2597498,97.1320967 Z M89.5763835,97.1320967 L89.5763835,95.9129921 L93.2347003,95.9129921 L93.2347003,97.1320967 L89.5763835,97.1320967 Z M96.8930172,97.1320967 L96.8930172,95.9129921 L100.551334,95.9129921 L100.551334,97.1320967 L96.8930172,97.1320967 Z M104.209651,97.1320967 L104.209651,95.9129921 L107.867968,95.9129921 L107.867968,97.1320967 L104.209651,97.1320967 Z M111.526285,97.1320967 L111.526285,95.9129921 L115.184601,95.9129921 L115.184601,97.1320967 L111.526285,97.1320967 Z M118.842918,97.1320967 L118.842918,95.9129921 L122.501235,95.9129921 L122.501235,97.1320967 L118.842918,97.1320967 Z M126.159552,97.1320967 L126.159552,95.9129921 L129.817869,95.9129921 L129.817869,97.1320967 L126.159552,97.1320967 Z M133.476186,97.1320967 L133.476186,95.9129921 L137.134503,95.9129921 L137.134503,97.1320967 L133.476186,97.1320967 Z M140.792819,97.1320967 L140.792819,95.9129921 L144.451136,95.9129921 L144.451136,97.1320967 L140.792819,97.1320967 Z M148.109453,97.1320967 L148.109453,95.9129921 L151.76777,95.9129921 L151.76777,97.1320967 L148.109453,97.1320967 Z M155.426087,97.1320967 L155.426087,95.9129921 L159.084404,95.9129921 L159.084404,97.1320967 L155.426087,97.1320967 Z M162.74272,97.1320967 L162.74272,95.9129921 L166.401037,95.9129921 L166.401037,97.1320967 L162.74272,97.1320967 Z M170.059354,97.1320967 L170.059354,95.9129921 L173.717671,95.9129921 L173.717671,97.1320967 L170.059354,97.1320967 Z M177.375988,97.1320967 L177.375988,95.9129921 L181.034305,95.9129921 L181.034305,97.1320967 L177.375988,97.1320967 Z M184.692622,97.1320967 L184.692622,95.9129921 L188.350938,95.9129921 L188.350938,97.1320967 L184.692622,97.1320967 Z M192.009255,97.1320967 L192.009255,95.9129921 L195.667572,95.9129921 L195.667572,97.1320967 L192.009255,97.1320967 Z M199.325889,97.1320967 L199.325889,95.9129921 L202.984206,95.9129921 L202.984206,97.1320967 L199.325889,97.1320967 Z M206.642523,97.1320967 L206.642523,95.9129921 L210.30084,95.9129921 L210.30084,97.1320967 L206.642523,97.1320967 Z M213.959156,97.1320967 L213.959156,95.9129921 L217.617473,95.9129921 L217.617473,97.1320967 L213.959156,97.1320967 Z M221.27579,97.1320967 L221.27579,95.9129921 L224.934107,95.9129921 L224.934107,97.1320967 L221.27579,97.1320967 Z M228.592424,97.1320967 L228.592424,95.9129921 L232.250741,95.9129921 L232.250741,97.1320967 L228.592424,97.1320967 Z M235.909057,97.1320967 L235.909057,95.9129921 L239.567374,95.9129921 L239.567374,97.1320967 L235.909057,97.1320967 Z M243.225691,97.1320967 L243.225691,95.9129921 L246.884008,95.9129921 L246.884008,97.1320967 L243.225691,97.1320967 Z M250.542325,97.1320967 L250.542325,95.9129921 L254.200642,95.9129921 L254.200642,97.1320967 L250.542325,97.1320967 Z M257.858959,97.1320967 L257.858959,95.9129921 L261.517275,95.9129921 L261.517275,97.1320967 L257.858959,97.1320967 Z M265.175592,97.1320967 L265.175592,95.9129921 L268.833909,95.9129921 L268.833909,97.1320967 L265.175592,97.1320967 Z M272.492226,97.1320967 L272.492226,95.9129921 L276.150543,95.9129921 L276.150543,97.1320967 L272.492226,97.1320967 Z M279.80886,97.1320967 L279.80886,95.9129921 L283.467177,95.9129921 L283.467177,97.1320967 L279.80886,97.1320967 Z M287.125493,97.1320967 L287.125493,95.9129921 L290.78381,95.9129921 L290.78381,97.1320967 L287.125493,97.1320967 Z" id="Path" fill="#293052"></path>
            <polygon id="Path" fill="#293052" points="294.173859 97.1320967 294.173859 95.9129921 295.964849 95.9129921 295.964849 97.1320967"></polygon>
            <polygon id="Path" fill="#C2C2C2" points="2 30 2 28 298 28 298 30"></polygon>
            <path d="M222.578148,95.2605323 C223.275138,94.5438873 224.421115,94.5279539 225.13776,95.224944 C225.854405,95.9219341 225.870338,97.0679116 225.173348,97.7845565 L193.205432,130.653955 C192.643515,131.231719 191.767293,131.368367 191.056131,130.989143 L149.23658,108.689026 L106.750039,133.583086 C106.221112,133.893 105.571266,133.914138 105.023317,133.639254 L75.113283,118.634591 C74.9850265,118.570249 74.8648756,118.490886 74.7553606,118.398171 L37.7576224,87.0761923 C36.9946395,86.4302573 36.8997534,85.2881036 37.5456885,84.5251206 C38.1916235,83.7621377 39.3337772,83.6672516 40.0967602,84.3131867 L76.9296432,115.495601 L105.767997,129.962645 L148.279904,105.053722 C148.822661,104.735706 149.491606,104.722286 150.046681,105.018277 L191.5589,127.154511 L222.578148,95.2605323 Z" id="Path" fill="#293052"></path>
            <path d="M188.225379,146.237254 L152.943379,146.237254 L147.379772,138 L142.045933,146.237254 L106.762929,146.237254 C105.501318,146.235628 104.290745,146.743919 103.397522,147.650308 C102.504299,148.556697 102.001595,149.786937 102,151.070388 L102,176.090409 C102.001595,177.373861 102.504299,178.604101 103.397522,179.510489 C104.290745,180.416878 105.501318,180.925169 106.762929,180.923544 L188.225379,180.923544 C189.507474,180.954965 190.747975,180.45974 191.666889,179.549647 C192.584591,178.64048 193.102055,177.392528 193.101688,176.089388 L193.101688,151.109176 C193.112272,149.799641 192.599489,148.541911 191.680936,147.624419 C190.760903,146.70551 189.514333,146.20473 188.225379,146.236233 L188.225379,146.237254 Z" id="Path" fill="#E88024"></path>
            <path d="M128.046875,167.523438 C127.635415,168.059899 127.065108,168.466144 126.335938,168.742188 C125.606767,169.018231 124.77865,169.15625 123.851563,169.15625 C122.898433,169.15625 122.054691,168.940106 121.320313,168.507813 C120.585934,168.075519 120.019533,167.457035 119.621094,166.652344 C119.222654,165.847652 119.015625,164.90886 119,163.835938 L119,162.945313 C119,161.226554 119.411454,159.884119 120.234375,158.917969 C121.057296,157.951818 122.205722,157.46875 123.679688,157.46875 C124.945319,157.46875 125.950517,157.781247 126.695313,158.40625 C127.440108,159.031253 127.88802,159.932286 128.039063,161.109375 L126.101563,161.109375 C125.882811,159.739576 125.088549,159.054688 123.71875,159.054688 C122.833329,159.054688 122.160159,159.373695 121.699219,160.011719 C121.238279,160.649743 121,161.585931 120.984375,162.820313 L120.984375,163.695313 C120.984375,164.924485 121.243487,165.878903 121.761719,166.558594 C122.279951,167.238285 122.999995,167.578125 123.921875,167.578125 C124.932297,167.578125 125.65104,167.348961 126.078125,166.890625 L126.078125,164.664063 L123.734375,164.664063 L123.734375,163.164063 L128.046875,163.164063 L128.046875,167.523438 Z M135.085938,169 C135.002604,168.838541 134.929688,168.575523 134.867188,168.210938 C134.263018,168.841149 133.523442,169.15625 132.648438,169.15625 C131.799475,169.15625 131.106774,168.914065 130.570313,168.429688 C130.033851,167.94531 129.765625,167.346358 129.765625,166.632813 C129.765625,165.731766 130.100257,165.040367 130.769531,164.558594 C131.438805,164.076821 132.395827,163.835938 133.640625,163.835938 L134.804688,163.835938 L134.804688,163.28125 C134.804688,162.843748 134.682293,162.493491 134.4375,162.230469 C134.192707,161.967447 133.820315,161.835938 133.320313,161.835938 C132.888019,161.835938 132.533856,161.944009 132.257813,162.160156 C131.981769,162.376303 131.84375,162.65104 131.84375,162.984375 L129.945313,162.984375 C129.945313,162.520831 130.098957,162.087242 130.40625,161.683594 C130.713543,161.279946 131.131508,160.963543 131.660156,160.734375 C132.188805,160.505207 132.778643,160.390625 133.429688,160.390625 C134.419276,160.390625 135.20833,160.63932 135.796875,161.136719 C136.38542,161.634117 136.6875,162.333329 136.703125,163.234375 L136.703125,167.046875 C136.703125,167.807295 136.809895,168.41406 137.023438,168.867188 L137.023438,169 L135.085938,169 Z M133,167.632813 C133.375002,167.632813 133.727863,167.541668 134.058594,167.359375 C134.389325,167.177082 134.63802,166.932293 134.804688,166.625 L134.804688,165.03125 L133.78125,165.03125 C133.078121,165.03125 132.549481,165.153645 132.195313,165.398438 C131.841144,165.64323 131.664063,165.989581 131.664063,166.4375 C131.664063,166.802085 131.785155,167.092447 132.027344,167.308594 C132.269532,167.524741 132.593748,167.632813 133,167.632813 Z M140.453125,160.546875 L140.507813,161.523438 C141.132816,160.768225 141.95312,160.390625 142.96875,160.390625 C144.729175,160.390625 145.625,161.398427 145.65625,163.414063 L145.65625,169 L143.757813,169 L143.757813,163.523438 C143.757813,162.986976 143.641928,162.589845 143.410156,162.332031 C143.178384,162.074217 142.799482,161.945313 142.273438,161.945313 C141.507809,161.945313 140.937502,162.291663 140.5625,162.984375 L140.5625,169 L138.664063,169 L138.664063,160.546875 L140.453125,160.546875 Z M149.460938,161.46875 C150.080732,160.749996 150.864579,160.390625 151.8125,160.390625 C153.614592,160.390625 154.528646,161.419261 154.554688,163.476563 L154.554688,169 L152.65625,169 L152.65625,163.546875 C152.65625,162.963539 152.529949,162.550782 152.277344,162.308594 C152.024738,162.066405 151.653648,161.945313 151.164063,161.945313 C150.403642,161.945313 149.835939,162.283851 149.460938,162.960938 L149.460938,169 L147.5625,169 L147.5625,157 L149.460938,157 L149.460938,161.46875 Z M156.117188,164.695313 C156.117188,163.867183 156.281248,163.121097 156.609375,162.457031 C156.937502,161.792965 157.398435,161.282554 157.992188,160.925781 C158.58594,160.569009 159.268225,160.390625 160.039063,160.390625 C161.179693,160.390625 162.105465,160.757809 162.816406,161.492188 C163.527347,162.226566 163.911458,163.200515 163.96875,164.414063 L163.976563,164.859375 C163.976563,165.692713 163.816408,166.437497 163.496094,167.09375 C163.17578,167.750003 162.717451,168.257811 162.121094,168.617188 C161.524737,168.976564 160.835941,169.15625 160.054688,169.15625 C158.861973,169.15625 157.907556,168.759119 157.191406,167.964844 C156.475257,167.170569 156.117188,166.111986 156.117188,164.789063 L156.117188,164.695313 Z M158.015625,164.859375 C158.015625,165.729171 158.195311,166.410154 158.554688,166.902344 C158.914064,167.394534 159.414059,167.640625 160.054688,167.640625 C160.695316,167.640625 161.194009,167.390628 161.550781,166.890625 C161.907554,166.390623 162.085938,165.658859 162.085938,164.695313 C162.085938,163.841142 161.902346,163.164065 161.535156,162.664063 C161.167967,162.16406 160.669274,161.914063 160.039063,161.914063 C159.419268,161.914063 158.927085,162.160154 158.5625,162.652344 C158.197915,163.144534 158.015625,163.880203 158.015625,164.859375 Z M170.703125,168.171875 C170.145831,168.828128 169.354172,169.15625 168.328125,169.15625 C167.411454,169.15625 166.71745,168.888024 166.246094,168.351563 C165.774737,167.815101 165.539063,167.039068 165.539063,166.023438 L165.539063,160.546875 L167.4375,160.546875 L167.4375,166 C167.4375,167.072922 167.882808,167.609375 168.773438,167.609375 C169.695317,167.609375 170.317707,167.278649 170.640625,166.617188 L170.640625,160.546875 L172.539063,160.546875 L172.539063,169 L170.75,169 L170.703125,168.171875 Z M176.484375,165.648438 L174.851563,165.648438 L174.671875,157.625 L176.671875,157.625 L176.484375,165.648438 Z M174.617188,168.101563 C174.617188,167.804686 174.713541,167.558595 174.90625,167.363281 C175.098959,167.167968 175.361978,167.070313 175.695313,167.070313 C176.028648,167.070313 176.291666,167.167968 176.484375,167.363281 C176.677084,167.558595 176.773438,167.804686 176.773438,168.101563 C176.773438,168.388022 176.679688,168.627603 176.492188,168.820313 C176.304687,169.013022 176.039064,169.109375 175.695313,169.109375 C175.351561,169.109375 175.085938,169.013022 174.898438,168.820313 C174.710937,168.627603 174.617188,168.388022 174.617188,168.101563 Z" id="Ganhou!" fill="#FFFFFF"></path>
            <ellipse id="Oval" fill="#FFFFFF" opacity="0.6" cx="223.874745" cy="96.5225444" rx="8.19239933" ry="8.54653368"></ellipse>
            <path d="M223.875748,106.288183 C218.666106,106.288183 214.464244,101.904686 214.464244,96.5225444 C214.464244,91.1404028 218.666106,86.7569062 223.875748,86.7569062 C229.08539,86.7569062 233.287252,91.1404028 233.287252,96.5225444 C233.287252,101.904686 229.08539,106.288183 223.875748,106.288183 Z M223.875748,103.849974 C227.71518,103.849974 230.849043,100.580643 230.849043,96.5225444 C230.849043,92.4644456 227.71518,89.1951153 223.875748,89.1951153 C220.036316,89.1951153 216.902453,92.4644456 216.902453,96.5225444 C216.902453,100.580643 220.036316,103.849974 223.875748,103.849974 Z" id="Oval" fill="#E88024"></path>
            <polygon id="Path" fill="#E88024" points="246.926842 87.5126014 275.694054 87.5126014 275.694054 106.692031 246.927846 106.692031"></polygon>
            <path d="M260.719973,90.721762 C261.137789,90.6751563 261.559362,90.6751563 261.977178,90.721762 C262.368487,90.8156687 262.751768,90.9442801 263.121003,91.1086169 L262.701601,92.8877413 L261.710285,92.617249 L260.719973,92.617249 C260.036783,92.6045789 259.387516,92.9195203 258.967111,93.4675133 C258.493201,94.1396548 258.276647,94.9646118 258.358074,95.7876221 C258.649047,95.4946739 259.000221,95.2701143 259.386513,95.1302749 C259.838023,94.9638967 260.316624,94.8853009 260.796228,94.8985703 C261.769483,94.8556998 262.702604,95.2864459 263.310638,96.0581143 C263.944758,96.9145029 264.267839,97.9668708 264.225698,99.0355703 C264.264567,100.169093 263.852152,101.270609 263.081872,102.090601 C262.320496,102.903268 261.250489,103.34069 260.14806,103.289954 C258.968161,103.336694 257.827129,102.856421 257.024614,101.975259 C256.184462,100.963739 255.760991,99.6610925 255.842661,98.3394356 L255.842661,95.9427724 C255.759685,94.5168736 256.2555,93.1188015 257.214248,92.0752439 C258.144672,91.1441197 259.416568,90.6530694 260.719973,90.721762 Z M260.14806,96.7930366 C259.755221,96.7863085 259.365527,96.8653181 259.005238,97.0247413 C258.717469,97.1491897 258.467686,97.3497261 258.281819,97.605534 L258.281819,98.4170107 C258.230648,99.2029692 258.416268,99.9848449 258.814601,100.660565 C259.107581,101.143368 259.627319,101.436316 260.186188,101.433254 C260.673743,101.431234 261.123652,101.166251 261.368141,100.737119 C261.713295,100.239005 261.899919,99.6449433 261.900923,99.0355703 C261.931023,98.445591 261.770487,97.8617361 261.444396,97.3728086 C261.149623,96.9486337 260.657128,96.7136345 260.14806,96.754249 L260.14806,96.7930366 Z" id="Shape" fill="#FFFFFF"></path>
            <polygon id="Path" fill="#E88024" points="250.432567 97.1023164 247.079352 100.505415 241.859896 97.1023164 247.079352 93.7380055"></polygon>
            <path d="M15.9521484,21 L15.9521484,10.3359375 L19.2333984,10.3359375 C20.1709031,10.3359375 21.0095178,10.547117 21.7492676,10.9694824 C22.4890174,11.3918478 23.0664042,11.9924277 23.4814453,12.7712402 C23.8964865,13.5500527 24.1040039,14.4350536 24.1040039,15.4262695 L24.1040039,15.9169922 C24.1040039,16.9082081 23.9001485,17.7895469 23.4924316,18.5610352 C23.0847148,19.3325234 22.5097693,19.9306619 21.7675781,20.3554688 C21.0253869,20.7802756 20.1879929,20.9951172 19.2553711,21 L15.9521484,21 Z M18.1494141,12.1157227 L18.1494141,19.2348633 L19.2114258,19.2348633 C20.0708051,19.2348633 20.7275368,18.9541044 21.1816406,18.3925781 C21.6357445,17.8310519 21.8676757,17.0278373 21.8774414,15.9829102 L21.8774414,15.4189453 C21.8774414,14.3349555 21.6528343,13.5134305 21.2036133,12.9543457 C20.7543923,12.3952609 20.0976606,12.1157227 19.2333984,12.1157227 L18.1494141,12.1157227 Z M27.7954102,21 L25.6713867,21 L25.6713867,13.0751953 L27.7954102,13.0751953 L27.7954102,21 Z M25.546875,11.0244141 C25.546875,10.7070297 25.6530751,10.4458018 25.8654785,10.2407227 C26.0778819,10.0356435 26.3671857,9.93310547 26.7333984,9.93310547 C27.0947284,9.93310547 27.3828114,10.0356435 27.5976562,10.2407227 C27.8125011,10.4458018 27.9199219,10.7070297 27.9199219,11.0244141 C27.9199219,11.3466813 27.8112804,11.6103505 27.5939941,11.8154297 C27.3767079,12.0205088 27.0898455,12.1230469 26.7333984,12.1230469 C26.3769513,12.1230469 26.090089,12.0205088 25.8728027,11.8154297 C25.6555165,11.6103505 25.546875,11.3466813 25.546875,11.0244141 Z M30.1171875,21 L30.1171875,14.6279297 L28.9379883,14.6279297 L28.9379883,13.0751953 L30.1171875,13.0751953 L30.1171875,12.4013672 C30.1171875,11.5126909 30.3723119,10.8230005 30.8825684,10.3322754 C31.3928248,9.84155028 32.106929,9.59619141 33.0249023,9.59619141 C33.3178726,9.59619141 33.6767557,9.64501904 34.1015625,9.74267578 L34.0795898,11.3833008 C33.9038077,11.3393552 33.6889661,11.3173828 33.4350586,11.3173828 C32.6391562,11.3173828 32.2412109,11.6909142 32.2412109,12.4379883 L32.2412109,13.0751953 L33.815918,13.0751953 L33.815918,14.6279297 L32.2412109,14.6279297 L32.2412109,21 L30.1171875,21 Z M38.5620117,21.1464844 C37.3998965,21.1464844 36.4538611,20.7900426 35.723877,20.0771484 C34.9938928,19.3642542 34.6289062,18.4145567 34.6289062,17.2280273 L34.6289062,17.0229492 C34.6289062,16.2270468 34.7827133,15.515384 35.090332,14.8879395 C35.3979508,14.2604949 35.8337374,13.7771013 36.3977051,13.4377441 C36.9616727,13.098387 37.6049769,12.9287109 38.3276367,12.9287109 C39.4116265,12.9287109 40.2648895,13.2705044 40.8874512,13.9541016 C41.5100129,14.6376987 41.8212891,15.6069273 41.8212891,16.8618164 L41.8212891,17.7260742 L36.7749023,17.7260742 C36.8432621,18.2436549 37.0495588,18.6586898 37.3937988,18.9711914 C37.7380388,19.283693 38.1738255,19.4399414 38.7011719,19.4399414 C39.5166056,19.4399414 40.1538063,19.1445342 40.612793,18.5537109 L41.652832,19.7182617 C41.3354476,20.1674827 40.9057644,20.517821 40.3637695,20.7692871 C39.8217746,21.0207532 39.2211947,21.1464844 38.5620117,21.1464844 Z M38.3203125,14.6425781 C37.9003885,14.6425781 37.5598158,14.7841783 37.298584,15.0673828 C37.0373522,15.3505874 36.8701176,15.7558567 36.796875,16.2832031 L39.7412109,16.2832031 L39.7412109,16.1147461 C39.7314453,15.6459938 39.6044934,15.2834485 39.3603516,15.0270996 C39.1162097,14.7707507 38.7695335,14.6425781 38.3203125,14.6425781 Z M47.4755859,15.0600586 C47.1874986,15.0209959 46.9335948,15.0014648 46.7138672,15.0014648 C45.9130819,15.0014648 45.3881848,15.2724582 45.1391602,15.8144531 L45.1391602,21 L43.0224609,21 L43.0224609,13.0751953 L45.0219727,13.0751953 L45.0805664,14.0200195 C45.5053732,13.2924768 46.0937462,12.9287109 46.8457031,12.9287109 C47.0800793,12.9287109 47.2998037,12.9604489 47.5048828,13.0239258 L47.4755859,15.0600586 Z M52.1411133,21.1464844 C50.9789981,21.1464844 50.0329626,20.7900426 49.3029785,20.0771484 C48.5729944,19.3642542 48.2080078,18.4145567 48.2080078,17.2280273 L48.2080078,17.0229492 C48.2080078,16.2270468 48.3618149,15.515384 48.6694336,14.8879395 C48.9770523,14.2604949 49.412839,13.7771013 49.9768066,13.4377441 C50.5407743,13.098387 51.1840784,12.9287109 51.9067383,12.9287109 C52.9907281,12.9287109 53.843991,13.2705044 54.4665527,13.9541016 C55.0891144,14.6376987 55.4003906,15.6069273 55.4003906,16.8618164 L55.4003906,17.7260742 L50.3540039,17.7260742 C50.4223636,18.2436549 50.6286604,18.6586898 50.9729004,18.9711914 C51.3171404,19.283693 51.7529271,19.4399414 52.2802734,19.4399414 C53.0957072,19.4399414 53.7329079,19.1445342 54.1918945,18.5537109 L55.2319336,19.7182617 C54.9145492,20.1674827 54.484866,20.517821 53.9428711,20.7692871 C53.4008762,21.0207532 52.8002963,21.1464844 52.1411133,21.1464844 Z M51.8994141,14.6425781 C51.4794901,14.6425781 51.1389173,14.7841783 50.8776855,15.0673828 C50.6164538,15.3505874 50.4492191,15.7558567 50.3759766,16.2832031 L53.3203125,16.2832031 L53.3203125,16.1147461 C53.3105468,15.6459938 53.183595,15.2834485 52.9394531,15.0270996 C52.6953113,14.7707507 52.3486351,14.6425781 51.8994141,14.6425781 Z" id="Difere" fill="#000000"></path>
            <g id="Previsão-do-último-dígito:-3" transform="translate(116.000000, 10.000000)" fill="#2A3052">
                <g id="path-2-link">
                    <path d="M1.3125,6.6035156 L1.3125,10.5 L0,10.5 L0,0.546875 L3.670899,0.546875 C4.760097,0.546875 5.613441,0.824867 6.230957,1.3808594 C6.848474,1.9368517 7.157227,2.672847 7.157227,3.5888672 C7.157227,4.5550179 6.855309,5.2989883 6.251465,5.8208008 C5.647621,6.3426133 4.782884,6.6035156 3.657227,6.6035156 L1.3125,6.6035156 Z M1.3125,5.5302734 L3.670899,5.5302734 C4.372725,5.5302734 4.91048,5.3650733 5.28418,5.034668 C5.65788,4.7042627 5.844727,4.2268911 5.844727,3.6025391 C5.844727,3.0100882 5.65788,2.5361346 5.28418,2.1806641 C4.91048,1.8251935 4.39779,1.6406251 3.746094,1.6269531 L1.3125,1.6269531 L1.3125,5.5302734 Z M12.208985,4.2382812 C12.017578,4.20638 11.810223,4.1904297 11.586915,4.1904297 C10.757483,4.1904297 10.194663,4.5436163 9.898438,5.25 L9.898438,10.5 L8.633789,10.5 L8.633789,3.1035156 L9.864258,3.1035156 L9.884766,3.9580078 C10.299482,3.2971972 10.887366,2.9667969 11.648438,2.9667969 C11.894533,2.9667969 12.08138,2.9986976 12.208985,3.0625 L12.208985,4.2382812 Z M16.310547,10.6367188 C15.307938,10.6367188 14.492191,10.3074577 13.863282,9.6489258 C13.234372,8.9903938 12.919922,8.109706 12.919922,7.0068359 L12.919922,6.7744141 C12.919922,6.0406864 13.060058,5.3855823 13.340332,4.809082 C13.620607,4.2325818 14.01253,3.7814144 14.516114,3.4555664 C15.019697,3.1297184 15.565427,2.9667969 16.153321,2.9667969 C17.114914,2.9667969 17.862302,3.2835255 18.395508,3.9169922 C18.928714,4.5504589 19.195313,5.4573509 19.195313,6.6376953 L19.195313,7.1640625 L14.184571,7.1640625 C14.2028,7.8932328 14.415851,8.4822569 14.823731,8.9311523 C15.231611,9.3800478 15.749997,9.6044922 16.378907,9.6044922 C16.825524,9.6044922 17.203775,9.5133473 17.513672,9.3310547 C17.82357,9.1487621 18.094726,8.9072281 18.327149,8.6064453 L19.09961,9.2080078 C18.479815,10.1604865 17.550137,10.6367188 16.310547,10.6367188 Z M16.153321,4.0058594 C15.642902,4.0058594 15.21452,4.1915672 14.868165,4.5629883 C14.521809,4.9344094 14.307618,5.4550748 14.225586,6.125 L17.930665,6.125 L17.930665,6.0292969 C17.894206,5.3867155 17.721031,4.8888364 17.411133,4.5356445 C17.101236,4.1824527 16.681969,4.0058594 16.153321,4.0058594 Z M23.009766,8.7841797 L24.841797,3.1035156 L26.133789,3.1035156 L23.481446,10.5 L22.517579,10.5 L19.837891,3.1035156 L21.129883,3.1035156 L23.009766,8.7841797 Z M28.72461,10.5 L27.459961,10.5 L27.459961,3.1035156 L28.72461,3.1035156 L28.72461,10.5 Z M27.357422,1.1416016 C27.357422,0.9365224 27.420084,0.7633471 27.545411,0.6220703 C27.670737,0.4807936 27.856445,0.4101562 28.102539,0.4101562 C28.348634,0.4101562 28.535482,0.4807936 28.663086,0.6220703 C28.790691,0.7633471 28.854493,0.9365224 28.854493,1.1416016 C28.854493,1.3466807 28.790691,1.5175774 28.663086,1.6542969 C28.535482,1.7910163 28.348634,1.859375 28.102539,1.859375 C27.856445,1.859375 27.670737,1.7910163 27.545411,1.6542969 C27.420084,1.5175774 27.357422,1.3466807 27.357422,1.1416016 Z M35.054688,8.5380859 C35.054688,8.1962874 34.925946,7.9308278 34.668457,7.7416992 C34.410969,7.5525707 33.96208,7.3896491 33.321778,7.2529297 C32.681475,7.1162103 32.173342,6.9521494 31.797364,6.7607422 C31.421385,6.569335 31.143393,6.3414727 30.963379,6.0771484 C30.783365,5.8128242 30.69336,5.4983742 30.69336,5.1337891 C30.69336,4.5276662 30.949705,4.0149761 31.462403,3.5957031 C31.975101,3.1764302 32.630205,2.9667969 33.427735,2.9667969 C34.266281,2.9667969 34.94645,3.1832661 35.468262,3.6162109 C35.990075,4.0491558 36.250977,4.6028612 36.250977,5.2773438 L34.979493,5.2773438 C34.979493,4.9309879 34.832521,4.6324882 34.538575,4.3818359 C34.244628,4.1311836 33.874352,4.0058594 33.427735,4.0058594 C32.967446,4.0058594 32.607424,4.1061188 32.347657,4.3066406 C32.08789,4.5071625 31.958008,4.7692041 31.958008,5.0927734 C31.958008,5.3981135 32.078775,5.6282544 32.320313,5.7832031 C32.561851,5.9381518 32.998207,6.0862623 33.629395,6.2275391 C34.260583,6.3688158 34.772134,6.5374339 35.164063,6.7333984 C35.555992,6.929363 35.846516,7.1652004 36.035645,7.440918 C36.224774,7.7166355 36.319336,8.0527324 36.319336,8.4492188 C36.319336,9.1100293 36.055016,9.6398092 35.526368,10.0385742 C34.997719,10.4373392 34.311854,10.6367188 33.46875,10.6367188 C32.8763,10.6367188 32.352216,10.5319021 31.896485,10.3222656 C31.440753,10.1126292 31.084149,9.8198261 30.826661,9.4438477 C30.569172,9.0678692 30.44043,8.661135 30.44043,8.2236328 L31.705079,8.2236328 C31.727865,8.6474631 31.897623,8.98356 32.214356,9.2319336 C32.531089,9.4803072 32.949217,9.6044922 33.46875,9.6044922 C33.947268,9.6044922 34.331216,9.5076507 34.620606,9.3139648 C34.909995,9.120279 35.054688,8.8616553 35.054688,8.5380859 Z M42.533204,10.5 C42.460287,10.3541659 42.401042,10.0944029 42.355469,9.7207031 C41.767576,10.3313833 41.06576,10.6367188 40.25,10.6367188 C39.52083,10.6367188 38.922692,10.4305034 38.455567,10.0180664 C37.988442,9.6056294 37.754883,9.0826855 37.754883,8.4492188 C37.754883,7.6790326 38.047686,7.0808941 38.633301,6.6547852 C39.218916,6.2286763 40.042638,6.015625 41.104493,6.015625 L42.334961,6.015625 L42.334961,5.4345703 C42.334961,4.9925108 42.202801,4.6404635 41.938477,4.378418 C41.674153,4.1163724 41.284508,3.9853516 40.769532,3.9853516 C40.318358,3.9853516 39.940106,4.0992827 39.634766,4.3271484 C39.329426,4.5550142 39.176758,4.8307275 39.176758,5.1542969 L37.905274,5.1542969 C37.905274,4.7851544 38.036295,4.4285499 38.29834,4.0844727 C38.560386,3.7403954 38.915851,3.4681 39.364747,3.2675781 C39.813642,3.0670563 40.306964,2.9667969 40.844727,2.9667969 C41.696945,2.9667969 42.364581,3.1798481 42.847657,3.605957 C43.330732,4.0320659 43.581381,4.6188114 43.59961,5.3662109 L43.59961,8.7705078 C43.59961,9.4495477 43.686197,9.9895813 43.859375,10.390625 L43.859375,10.5 L42.533204,10.5 Z M40.434571,9.5361328 C40.831057,9.5361328 41.20703,9.4335948 41.5625,9.2285156 C41.917971,9.0234365 42.175455,8.7568376 42.334961,8.4287109 L42.334961,6.9111328 L41.34375,6.9111328 C39.794264,6.9111328 39.019532,7.3645788 39.019532,8.2714844 C39.019532,8.6679707 39.151692,8.9778635 39.416016,9.2011719 C39.68034,9.4244803 40.019855,9.5361328 40.434571,9.5361328 Z M43.408204,0.21875 C43.408204,0.71094 43.268068,1.109699 42.987793,1.4150391 C42.707519,1.7203791 42.35775,1.8730469 41.938477,1.8730469 C41.751627,1.8730469 41.589845,1.8502606 41.453125,1.8046875 C41.316406,1.7591144 41.137534,1.6656908 40.916504,1.5244141 C40.695475,1.3831373 40.535971,1.297689 40.437989,1.2680664 C40.340006,1.2384439 40.227215,1.2236328 40.09961,1.2236328 C39.91276,1.2236328 39.753256,1.2954094 39.621094,1.4389648 C39.488932,1.5825202 39.422852,1.7659494 39.422852,1.9892578 L38.575196,1.9414062 C38.575196,1.4537736 38.713052,1.0504573 38.98877,0.7314453 C39.264487,0.4124333 39.614256,0.2529297 40.038086,0.2529297 C40.197592,0.2529297 40.341146,0.2757159 40.46875,0.3212891 C40.596355,0.3668622 40.769531,0.4557285 40.988282,0.5878906 C41.207033,0.7200527 41.374512,0.8066404 41.490723,0.8476562 C41.606935,0.8886721 41.735677,0.9091797 41.876954,0.9091797 C42.072918,0.9091797 42.23584,0.8317065 42.365723,0.6767578 C42.495607,0.5218091 42.560547,0.3417979 42.560547,0.1367188 L43.408204,0.21875 Z M45.247071,6.7333984 C45.247071,6.0087854 45.389485,5.3570992 45.674317,4.7783203 C45.959149,4.1995414 46.355629,3.7529313 46.86377,3.4384766 C47.371911,3.1240219 47.95182,2.9667969 48.603516,2.9667969 C49.610683,2.9667969 50.42529,3.3154262 51.047364,4.0126953 C51.669437,4.7099644 51.980469,5.637364 51.980469,6.7949219 L51.980469,6.8837891 C51.980469,7.6038447 51.842612,8.2498344 51.566895,8.8217773 C51.291177,9.3937203 50.896976,9.8391911 50.384278,10.1582031 C49.87158,10.4772151 49.282556,10.6367188 48.617188,10.6367188 C47.614579,10.6367188 46.80225,10.2880894 46.180176,9.5908203 C45.558103,8.8935512 45.247071,7.9707089 45.247071,6.8222656 L45.247071,6.7333984 Z M46.518555,6.8837891 C46.518555,7.7041057 46.70882,8.3626277 47.089356,8.859375 C47.469892,9.3561223 47.979164,9.6044922 48.617188,9.6044922 C49.259769,9.6044922 49.770181,9.3527043 50.148438,8.8491211 C50.526695,8.3455378 50.715821,7.640304 50.715821,6.7333984 C50.715821,5.9221965 50.523277,5.2648137 50.138184,4.7612305 C49.753091,4.2576472 49.24154,4.0058594 48.603516,4.0058594 C47.979164,4.0058594 47.475588,4.2542293 47.092774,4.7509766 C46.709959,5.2477238 46.518555,5.9586542 46.518555,6.8837891 Z M56.72461,6.7402344 C56.72461,5.6054631 56.993487,4.6928745 57.53125,4.0024414 C58.069014,3.3120083 58.773108,2.9667969 59.643555,2.9667969 C60.509445,2.9667969 61.19531,3.2630179 61.701172,3.8554688 L61.701172,0 L62.965821,0 L62.965821,10.5 L61.803711,10.5 L61.742188,9.7070312 C61.236326,10.326826 60.532232,10.6367188 59.629883,10.6367188 C58.773108,10.6367188 58.07471,10.2858108 57.534668,9.5839844 C56.994627,8.8821579 56.72461,7.9661515 56.72461,6.8359375 L56.72461,6.7402344 Z M57.989258,6.8837891 C57.989258,7.7223349 58.162434,8.3785784 58.508789,8.8525391 C58.855145,9.3264998 59.333656,9.5634766 59.944336,9.5634766 C60.746424,9.5634766 61.33203,9.2034541 61.701172,8.4833984 L61.701172,5.0859375 C61.322915,4.3886684 60.741866,4.0400391 59.958008,4.0400391 C59.338213,4.0400391 58.855145,4.2792945 58.508789,4.7578125 C58.162434,5.2363305 57.989258,5.9449823 57.989258,6.8837891 Z M64.592774,6.7333984 C64.592774,6.0087854 64.735188,5.3570992 65.02002,4.7783203 C65.304852,4.1995414 65.701333,3.7529313 66.209473,3.4384766 C66.717614,3.1240219 67.297523,2.9667969 67.949219,2.9667969 C68.956386,2.9667969 69.770993,3.3154262 70.393067,4.0126953 C71.01514,4.7099644 71.326172,5.637364 71.326172,6.7949219 L71.326172,6.8837891 C71.326172,7.6038447 71.188316,8.2498344 70.912598,8.8217773 C70.636881,9.3937203 70.242679,9.8391911 69.729981,10.1582031 C69.217283,10.4772151 68.628259,10.6367188 67.962891,10.6367188 C66.960282,10.6367188 66.147953,10.2880894 65.525879,9.5908203 C64.903806,8.8935512 64.592774,7.9707089 64.592774,6.8222656 L64.592774,6.7333984 Z M65.864258,6.8837891 C65.864258,7.7041057 66.054523,8.3626277 66.435059,8.859375 C66.815595,9.3561223 67.324867,9.6044922 67.962891,9.6044922 C68.605472,9.6044922 69.115884,9.3527043 69.494141,8.8491211 C69.872398,8.3455378 70.061524,7.640304 70.061524,6.7333984 C70.061524,5.9221965 69.86898,5.2648137 69.483887,4.7612305 C69.098794,4.2576472 68.587243,4.0058594 67.949219,4.0058594 C67.324867,4.0058594 66.821291,4.2542293 66.438477,4.7509766 C66.055663,5.2477238 65.864258,5.9586542 65.864258,6.8837891 Z M80.944336,9.7685547 C80.452146,10.3473336 79.729823,10.6367188 78.777344,10.6367188 C77.988929,10.6367188 77.388512,10.4077171 76.976075,9.949707 C76.563638,9.4916969 76.355144,8.8138066 76.350586,7.9160156 L76.350586,3.1035156 L77.615235,3.1035156 L77.615235,7.8818359 C77.615235,9.0029353 78.070959,9.5634766 78.982422,9.5634766 C79.948573,9.5634766 80.591145,9.2034541 80.910157,8.4833984 L80.910157,3.1035156 L82.174805,3.1035156 L82.174805,10.5 L80.97168,10.5 L80.944336,9.7685547 Z M79.918946,0 L81.450196,0 L79.618165,2.0097656 L78.59961,2.0097656 L79.918946,0 Z M85.469727,10.5 L84.205079,10.5 L84.205079,0 L85.469727,0 L85.469727,10.5 Z M89.208985,1.3125 L89.208985,3.1035156 L90.589844,3.1035156 L90.589844,4.0810547 L89.208985,4.0810547 L89.208985,8.6679688 C89.208985,8.9641942 89.270508,9.1863599 89.393555,9.3344727 C89.516603,9.4825854 89.726236,9.5566406 90.022461,9.5566406 C90.168295,9.5566406 90.368814,9.5292971 90.624024,9.4746094 L90.624024,10.5 C90.29134,10.5911463 89.967775,10.6367188 89.653321,10.6367188 C89.088214,10.6367188 88.662111,10.465822 88.375,10.1240234 C88.08789,9.7822249 87.944336,9.2968781 87.944336,8.6679688 L87.944336,4.0810547 L86.597657,4.0810547 L86.597657,3.1035156 L87.944336,3.1035156 L87.944336,1.3125 L89.208985,1.3125 Z M93.44043,10.5 L92.175782,10.5 L92.175782,3.1035156 L93.44043,3.1035156 L93.44043,10.5 Z M92.073243,1.1416016 C92.073243,0.9365224 92.135905,0.7633471 92.261231,0.6220703 C92.386557,0.4807936 92.572265,0.4101562 92.81836,0.4101562 C93.064455,0.4101562 93.251302,0.4807936 93.378907,0.6220703 C93.506511,0.7633471 93.570313,0.9365224 93.570313,1.1416016 C93.570313,1.3466807 93.506511,1.5175774 93.378907,1.6542969 C93.251302,1.7910163 93.064455,1.859375 92.81836,1.859375 C92.572265,1.859375 92.386557,1.7910163 92.261231,1.6542969 C92.135905,1.5175774 92.073243,1.3466807 92.073243,1.1416016 Z M96.653321,3.1035156 L96.6875,3.9238281 C97.229821,3.2858041 97.961259,2.9667969 98.881836,2.9667969 C99.916347,2.9667969 100.620441,3.3632773 100.994141,4.15625 C101.240236,3.8007795 101.560383,3.513673 101.95459,3.2949219 C102.348798,3.0761708 102.814776,2.9667969 103.352539,2.9667969 C104.974943,2.9667969 105.799805,3.8258378 105.827149,5.5439453 L105.827149,10.5 L104.5625,10.5 L104.5625,5.6191406 C104.5625,5.0904921 104.441733,4.695151 104.200196,4.4331055 C103.958658,4.1710599 103.553063,4.0400391 102.983399,4.0400391 C102.513995,4.0400391 102.124351,4.1801744 101.814454,4.4604492 C101.504556,4.7407241 101.324545,5.1178362 101.274415,5.5917969 L101.274415,10.5 L100.00293,10.5 L100.00293,5.6533203 C100.00293,4.5777941 99.476568,4.0400391 98.423829,4.0400391 C97.594397,4.0400391 97.02702,4.3932256 96.72168,5.0996094 L96.72168,10.5 L95.457032,10.5 L95.457032,3.1035156 L96.653321,3.1035156 Z M107.399415,6.7333984 C107.399415,6.0087854 107.541828,5.3570992 107.826661,4.7783203 C108.111493,4.1995414 108.507973,3.7529313 109.016114,3.4384766 C109.524254,3.1240219 110.104164,2.9667969 110.75586,2.9667969 C111.763026,2.9667969 112.577634,3.3154262 113.199707,4.0126953 C113.821781,4.7099644 114.132813,5.637364 114.132813,6.7949219 L114.132813,6.8837891 C114.132813,7.6038447 113.994956,8.2498344 113.719239,8.8217773 C113.443521,9.3937203 113.049319,9.8391911 112.536622,10.1582031 C112.023924,10.4772151 111.4349,10.6367188 110.769532,10.6367188 C109.766923,10.6367188 108.954593,10.2880894 108.33252,9.5908203 C107.710447,8.8935512 107.399415,7.9707089 107.399415,6.8222656 L107.399415,6.7333984 Z M108.670899,6.8837891 C108.670899,7.7041057 108.861164,8.3626277 109.2417,8.859375 C109.622235,9.3561223 110.131508,9.6044922 110.769532,9.6044922 C111.412113,9.6044922 111.922525,9.3527043 112.300782,8.8491211 C112.679039,8.3455378 112.868165,7.640304 112.868165,6.7333984 C112.868165,5.9221965 112.675621,5.2648137 112.290528,4.7612305 C111.905435,4.2576472 111.393884,4.0058594 110.75586,4.0058594 C110.131508,4.0058594 109.627932,4.2542293 109.245118,4.7509766 C108.862303,5.2477238 108.670899,5.9586542 108.670899,6.8837891 Z M118.876954,6.7402344 C118.876954,5.6054631 119.145831,4.6928745 119.683594,4.0024414 C120.221357,3.3120083 120.925452,2.9667969 121.795899,2.9667969 C122.661789,2.9667969 123.347654,3.2630179 123.853516,3.8554688 L123.853516,0 L125.118165,0 L125.118165,10.5 L123.956055,10.5 L123.894532,9.7070312 C123.38867,10.326826 122.684575,10.6367188 121.782227,10.6367188 C120.925452,10.6367188 120.227054,10.2858108 119.687012,9.5839844 C119.14697,8.8821579 118.876954,7.9661515 118.876954,6.8359375 L118.876954,6.7402344 Z M120.141602,6.8837891 C120.141602,7.7223349 120.314777,8.3785784 120.661133,8.8525391 C121.007489,9.3264998 121.486,9.5634766 122.09668,9.5634766 C122.898767,9.5634766 123.484374,9.2034541 123.853516,8.4833984 L123.853516,5.0859375 C123.475259,4.3886684 122.89421,4.0400391 122.110352,4.0400391 C121.490557,4.0400391 121.007489,4.2792945 120.661133,4.7578125 C120.314777,5.2363305 120.141602,5.9449823 120.141602,6.8837891 Z M128.454102,10.5 L127.182618,10.5 L127.182618,3.1035156 L128.454102,3.1035156 L128.454102,10.5 Z M128.467774,0.0068359 L129.999024,0.0068359 L128.166993,2.0166016 L127.148438,2.0166016 L128.467774,0.0068359 Z M130.238282,6.7402344 C130.238282,5.5872338 130.504881,4.670088 131.038086,3.9887695 C131.571292,3.307451 132.277665,2.9667969 133.157227,2.9667969 C134.059575,2.9667969 134.76367,3.2858041 135.269532,3.9238281 L135.331055,3.1035156 L136.486329,3.1035156 L136.486329,10.3222656 C136.486329,11.2793017 136.20264,12.0335259 135.635254,12.5849609 C135.067869,13.136396 134.305669,13.4121094 133.348633,13.4121094 C132.815427,13.4121094 132.293623,13.2981782 131.783204,13.0703125 C131.272784,12.8424468 130.88314,12.5302754 130.614258,12.1337891 L131.270508,11.375 C131.812829,12.0449252 132.475908,12.3798828 133.259766,12.3798828 C133.875004,12.3798828 134.354654,12.2067075 134.698731,11.8603516 C135.042808,11.5139957 135.214844,11.0263703 135.214844,10.3974609 L135.214844,9.7617188 C134.708982,10.345055 134.01856,10.6367188 133.143555,10.6367188 C132.277665,10.6367188 131.576989,10.2880894 131.041504,9.5908203 C130.50602,8.8935512 130.238282,7.9433654 130.238282,6.7402344 Z M131.509766,6.8837891 C131.509766,7.7177776 131.680663,8.3728817 132.022461,8.8491211 C132.36426,9.3253605 132.842771,9.5634766 133.458008,9.5634766 C134.255538,9.5634766 134.841144,9.2011755 135.214844,8.4765625 L135.214844,5.0996094 C134.827472,4.3932256 134.246424,4.0400391 133.47168,4.0400391 C132.856443,4.0400391 132.375653,4.2792945 132.029297,4.7578125 C131.682941,5.2363305 131.509766,5.9449823 131.509766,6.8837891 Z M139.767579,10.5 L138.50293,10.5 L138.50293,3.1035156 L139.767579,3.1035156 L139.767579,10.5 Z M138.400391,1.1416016 C138.400391,0.9365224 138.463053,0.7633471 138.588379,0.6220703 C138.713705,0.4807936 138.899413,0.4101562 139.145508,0.4101562 C139.391603,0.4101562 139.57845,0.4807936 139.706055,0.6220703 C139.83366,0.7633471 139.897461,0.9365224 139.897461,1.1416016 C139.897461,1.3466807 139.83366,1.5175774 139.706055,1.6542969 C139.57845,1.7910163 139.391603,1.859375 139.145508,1.859375 C138.899413,1.859375 138.713705,1.7910163 138.588379,1.6542969 C138.463053,1.5175774 138.400391,1.3466807 138.400391,1.1416016 Z M143.506836,1.3125 L143.506836,3.1035156 L144.887696,3.1035156 L144.887696,4.0810547 L143.506836,4.0810547 L143.506836,8.6679688 C143.506836,8.9641942 143.568359,9.1863599 143.691407,9.3344727 C143.814454,9.4825854 144.024087,9.5566406 144.320313,9.5566406 C144.466147,9.5566406 144.666666,9.5292971 144.921875,9.4746094 L144.921875,10.5 C144.589191,10.5911463 144.265627,10.6367188 143.951172,10.6367188 C143.386065,10.6367188 142.959963,10.465822 142.672852,10.1240234 C142.385741,9.7822249 142.242188,9.2968781 142.242188,8.6679688 L142.242188,4.0810547 L140.895508,4.0810547 L140.895508,3.1035156 L142.242188,3.1035156 L142.242188,1.3125 L143.506836,1.3125 Z M145.892579,6.7333984 C145.892579,6.0087854 146.034993,5.3570992 146.319825,4.7783203 C146.604657,4.1995414 147.001137,3.7529313 147.509278,3.4384766 C148.017418,3.1240219 148.597328,2.9667969 149.249024,2.9667969 C150.25619,2.9667969 151.070798,3.3154262 151.692872,4.0126953 C152.314945,4.7099644 152.625977,5.637364 152.625977,6.7949219 L152.625977,6.8837891 C152.625977,7.6038447 152.48812,8.2498344 152.212403,8.8217773 C151.936685,9.3937203 151.542483,9.8391911 151.029786,10.1582031 C150.517088,10.4772151 149.928064,10.6367188 149.262696,10.6367188 C148.260087,10.6367188 147.447757,10.2880894 146.825684,9.5908203 C146.203611,8.8935512 145.892579,7.9707089 145.892579,6.8222656 L145.892579,6.7333984 Z M147.164063,6.8837891 C147.164063,7.7041057 147.354328,8.3626277 147.734864,8.859375 C148.115399,9.3561223 148.624672,9.6044922 149.262696,9.6044922 C149.905277,9.6044922 150.415689,9.3527043 150.793946,8.8491211 C151.172203,8.3455378 151.361329,7.640304 151.361329,6.7333984 C151.361329,5.9221965 151.168785,5.2648137 150.783692,4.7612305 C150.398599,4.2576472 149.887048,4.0058594 149.249024,4.0058594 C148.624672,4.0058594 148.121096,4.2542293 147.738282,4.7509766 C147.355467,5.2477238 147.164063,5.9586542 147.164063,6.8837891 Z M154.170899,9.8369141 C154.170899,9.618163 154.23584,9.4358731 154.365723,9.2900391 C154.495607,9.144205 154.690429,9.0712891 154.950196,9.0712891 C155.209963,9.0712891 155.407064,9.144205 155.541504,9.2900391 C155.675945,9.4358731 155.743165,9.618163 155.743165,9.8369141 C155.743165,10.0465505 155.675945,10.2220045 155.541504,10.3632812 C155.407064,10.504558 155.209963,10.5751953 154.950196,10.5751953 C154.690429,10.5751953 154.495607,10.504558 154.365723,10.3632812 C154.23584,10.2220045 154.170899,10.0465505 154.170899,9.8369141 Z M154.177735,3.8007812 C154.177735,3.5820302 154.242676,3.3997403 154.372559,3.2539062 C154.502442,3.1080722 154.697265,3.0351562 154.957032,3.0351562 C155.216799,3.0351562 155.4139,3.1080722 155.54834,3.2539062 C155.682781,3.3997403 155.75,3.5820302 155.75,3.8007812 C155.75,4.0104177 155.682781,4.1858717 155.54834,4.3271484 C155.4139,4.4684252 155.216799,4.5390625 154.957032,4.5390625 C154.697265,4.5390625 154.502442,4.4684252 154.372559,4.3271484 C154.242676,4.1858717 154.177735,4.0104177 154.177735,3.8007812 Z M162.777344,4.9082031 L163.727539,4.9082031 C164.324548,4.8990885 164.793944,4.7418635 165.135743,4.4365234 C165.477541,4.1311834 165.648438,3.7187526 165.648438,3.1992188 C165.648438,2.0325462 165.067389,1.4492188 163.905274,1.4492188 C163.358396,1.4492188 162.92204,1.6053044 162.596192,1.9174805 C162.270344,2.2296565 162.107422,2.6432266 162.107422,3.1582031 L160.842774,3.1582031 C160.842774,2.3697877 161.13102,1.7146836 161.70752,1.1928711 C162.28402,0.6710586 163.016598,0.4101562 163.905274,0.4101562 C164.844081,0.4101562 165.580076,0.6585262 166.113282,1.1552734 C166.646487,1.6520207 166.913086,2.3424435 166.913086,3.2265625 C166.913086,3.6595074 166.772951,4.078774 166.492676,4.484375 C166.212401,4.889976 165.830732,5.1930329 165.347657,5.3935547 C165.894534,5.5667326 166.317219,5.8538391 166.615723,6.2548828 C166.914227,6.6559265 167.063477,7.1458304 167.063477,7.7246094 C167.063477,8.617843 166.771813,9.3264948 166.188477,9.8505859 C165.605141,10.3746771 164.846359,10.6367188 163.91211,10.6367188 C162.97786,10.6367188 162.21794,10.3837916 161.632325,9.8779297 C161.04671,9.3720678 160.753907,8.7044312 160.753907,7.875 L162.025391,7.875 C162.025391,8.3990912 162.196288,8.8183578 162.538086,9.1328125 C162.879885,9.4472672 163.337888,9.6044922 163.91211,9.6044922 C164.52279,9.6044922 164.989908,9.4449886 165.313477,9.1259766 C165.637046,8.8069646 165.798829,8.3489613 165.798829,7.7519531 C165.798829,7.1731742 165.621096,6.7288427 165.265625,6.4189453 C164.910155,6.1090479 164.397465,5.9495443 163.727539,5.9404297 L162.777344,5.9404297 L162.777344,4.9082031 Z" id="path-2"></path>
                </g>
            </g>
        </g>
    </g>
</svg>