<svg width="299" height="197" xmlns="http://www.w3.org/2000/svg"><g fill="none" fill-rule="evenodd"><path fill="#F1F2F2" d="M0 0h299v197H0z"/><path d="M1.987 1.98v193.04h295.026V1.98H1.987zM299 0v197H0V0h299z" fill="#C2C2C2" fill-rule="nonzero"/><path d="M2.926 53.113V51.89H296.51v1.223H2.926zm0 20.598v-1.223H296.51v1.223H2.926zm0 20.56v-1.224H296.51v1.224H2.926zm0 41.157v-1.223H296.51v1.223H2.926zm0 20.56v-1.223H296.51v1.223H2.926zm0 20.56v-1.223H296.51v1.223H2.926zM37.772 31.942h1.223v162.126h-1.223V31.942zm37.162 0h1.223v162.126h-1.223V31.942zm37.124 0h1.223v162.126h-1.223V31.942zm37.162 0h1.223v162.126h-1.223V31.942zm37.124 0h1.223v162.126h-1.223V31.942zm37.124 0h1.224v162.126h-1.224V31.942zm37.162 0h1.224v162.126h-1.224V31.942z" fill="#DFDEDE" fill-rule="nonzero"/><path fill="#C2C2C2" fill-rule="nonzero" d="M.805 33.951v-2.447H298.63v2.447z"/><path d="M188.509 147.514h-35.42l-5.454-8.308-5.455 8.308h-35.42c-2.652 0-4.773 2.162-4.773 4.855v25.074c0 2.693 2.16 4.855 4.773 4.855h81.787c2.652 0 4.773-2.162 4.773-4.855v-25.074c0-2.693-2.16-4.855-4.811-4.855z" fill="#E88024"/><path fill="#2A3052" fill-rule="nonzero" d="M5.262 116.411v-1.485h288.35v1.485z"/><path d="M108.433 104.236L75.147 141.43a1.818 1.818 0 0 1-2.43.253l-33.463-24.547a1.818 1.818 0 1 1 2.15-2.932l32.134 23.572 33.52-37.454a1.818 1.818 0 0 1 2.69-.02l31.776 34.444 43.18-42.625a1.818 1.818 0 0 1 2.914.506l42.02 87.307 28.114-24.84a1.818 1.818 0 0 1 2.407 2.725l-29.915 26.43a1.818 1.818 0 0 1-2.841-.574l-41.957-87.179-42.706 42.158a1.818 1.818 0 0 1-2.613-.06l-31.694-34.357z" fill="#2A3052" fill-rule="nonzero"/><ellipse fill="#FFF" opacity=".6" cx="40.33" cy="115.669" rx="8.067" ry="8.496"/><path d="M40.33 125.376c-5.14 0-9.28-4.36-9.28-9.707 0-5.348 4.14-9.708 9.28-9.708 5.139 0 9.279 4.36 9.279 9.708s-4.14 9.707-9.28 9.707zm0-2.423c3.771 0 6.855-3.248 6.855-7.284 0-4.037-3.084-7.284-6.855-7.284-3.772 0-6.856 3.247-6.856 7.284 0 4.036 3.084 7.284 6.856 7.284z" fill="#E88024" fill-rule="nonzero"/><ellipse fill="#FFF" opacity=".6" cx="258.956" cy="155.855" rx="8.067" ry="8.496"/><path d="M258.956 165.563c-5.14 0-9.28-4.36-9.28-9.707 0-5.348 4.14-9.708 9.28-9.708 5.139 0 9.279 4.36 9.279 9.708s-4.14 9.707-9.28 9.707zm0-2.423c3.771 0 6.855-3.248 6.855-7.284 0-4.037-3.084-7.284-6.855-7.284-3.772 0-6.856 3.247-6.856 7.284 0 4.036 3.084 7.284 6.856 7.284z" fill="#E88024" fill-rule="nonzero"/><path d="M259.572 123.604h1.404l-1.68 11.08h-1.362l1.638-11.08zm2.369 3.411h1.39l1.11 5.982 2.824-5.982h1.392l-3.993 7.668h-.982l-1.741-7.668zm11.578-.103c1.87.29 2.907 2.063 2.204 4.764-.702 2.701-3.082 3.519-4.87 3.012-1.79-.508-2.235-2.83-1.6-4.843.634-2.012 2.396-3.224 4.266-2.933zm-.227 1.102c-1.402-.332-2.319.981-2.66 1.927-.34.947-.618 3.457.87 3.759 1.49.3 2.47-.806 2.884-2.21.414-1.403.308-3.143-1.094-3.476zm-25.364 6.643l5.273-10.313h1.224l2.065 10.313h-1.434l-.476-2.683h-3.896l-1.329 2.683h-1.427zm3.374-3.804h3.05l-.827-4.546-2.223 4.546z" fill="#6D6E71" fill-rule="nonzero"/><path d="M178.206 166.659h-2.492v-8.244h2.492v8.244zm0 4.337h-2.492v-2.215h2.492v2.215zM143.582 161.184h2.011l.101 1.464c.824-1.228 1.893-1.775 3.207-1.639.76.079 2.365.328 2.843 2.488.176.792.138 2.13.125 3.949-.005.706-.005 1.929 0 3.667h-2.207v-6.22c0-.731-.205-1.548-.818-1.857-.843-.425-2.43-.247-3.067.824v7.253h-2.195v-9.93.001zm-17.72 4.647v-1.669h5.049c.057 2.909.057 4.605 0 5.088-.426 1.273-5.468 3.588-8.724.652-.97-.876-1.426-1.845-1.676-3.313-.011-1.5-.038-2.906-.028-4.237.247-1.63.793-2.556 1.233-3.082 1.6-1.914 4.15-2.325 6.394-1.55 2.243.775 2.534 2.386 2.715 3.961-.519 0-.793-.022-2.196 0 .142-.886-.664-2.6-2.769-2.506-2.104.095-3.097 1.824-3.097 3.264 0 1.44-.076.957 0 3.819.095 3.287 4.035 4.169 5.866 2.413l.067-2.799-2.834-.041zm9.887-1.835a151.15 151.15 0 0 0-2.13 0c0-1.069.764-3.007 3.824-3.007 3.06 0 3.794 2.102 3.877 2.554.083.453-.213 6.799.427 7.52l-2.273.002c-.187-.642-.281-1.117-.281-1.424-.355.433-.965 1.224-1.902 1.514-.937.29-3.066.447-3.938-1.596-.575-1.346-.208-2.86.872-3.554 1.784-1.147 4.236-.763 4.968-.763.094-2.045-.516-2.52-1.902-2.52-.924 0-1.438.424-1.542 1.274zm3.443 2.643a36.881 36.881 0 0 0-2.245.02c-.892.078-1.687.737-1.619 1.677.08 1.12 1.355 1.327 2.352 1.003.837-.271 1.421-.971 1.512-1.27v-1.43zm29.596-5.644c1.097-.061 2.486.328 3.263 1.132.86.89 1.474 1.996 1.474 3.823 0 1.617-.317 2.787-1.067 3.732-.847 1.067-2.167 1.556-3.238 1.556-1.11 0-2.316-.178-3.328-1.133-.829-.78-1.595-2.12-1.519-3.989.085-2.064.736-3.242 1.519-3.989.791-.754 1.72-1.067 2.896-1.132zm.218 1.763c-1 0-2.355.447-2.355 3.252 0 2.805 1.093 3.485 2.355 3.485s2.318-1.117 2.228-3.62c-.09-2.501-1.227-3.117-2.228-3.117zm-14.82-6.007h2.112c.039 3.462.058 5.348.058 5.659.515-.8 2.008-1.89 3.601-1.396 2.528.782 2.413 2.431 2.528 3.538.077.738.077 2.892 0 6.464h-2.19c.06-2.948.06-5.043 0-6.284.08-2.15-2.594-2.797-3.997-.876l.058 7.16h-2.17v-14.265z" fill="#FFF" fill-rule="nonzero"/><path d="M29.236 135.042l.114 1.176a2.565 2.565 0 0 1 2.277-1.29c.835 0 1.48.228 1.935.759.456.493.683 1.252.683 2.277v4.933h-1.403v-4.895c0-.683-.152-1.177-.417-1.48-.266-.304-.683-.418-1.215-.418a1.94 1.94 0 0 0-1.062.304 2.18 2.18 0 0 0-.759.797v5.692h-1.404v-7.817l1.252-.038h-.001zm-5.115-2.628h1.426v10.545h-1.425l-.001-10.545zm12.355 2.53h1.426v7.953h-1.426v-7.953zm11.598.077h1.403v7.725h-1.403v-7.725zm.018-3.508v1.393h1.43v-1.393h-1.43zm-3.362 6.253c.499-.014.967 0 1.268 0 0-2.232-1.769-2.821-3.191-2.821-1.423 0-3.192 1.29-3.192 4.058 0 2.769 1.552 4.115 3.48 4.046 1.926-.07 2.903-1.535 2.903-2.613-.562.013-.705.013-1.268 0 0 1.019-.917 1.554-1.636 1.554-1.72 0-2.11-1.67-2.11-2.996 0-1.328.44-2.966 1.976-2.966 1.304 0 1.77 1.01 1.77 1.738zm9.955-2.835c.887-.049 2.01.26 2.639.897.694.705 1.191 1.582 1.191 3.03 0 1.281-.256 2.208-.863 2.957-.685.846-1.752 1.233-2.618 1.233-.897 0-1.871-.141-2.69-.898-.67-.619-1.29-1.68-1.228-3.16.069-1.637.595-2.57 1.228-3.162.64-.598 1.391-.846 2.341-.897zm.32 1.07c-1.018 0-2.249.664-2.249 2.722 0 2.059.76 3.283 2.123 3.283 1.365 0 2.26-1.385 2.122-3.283-.139-1.898-.979-2.722-1.997-2.722h.001zm-18.453-2.2h1.032l1.98-1.871h-1.68l-1.332 1.871zM260.22 171.959v1.006h-4.825v3.416h4.11v1.036h-4.11v4.374h-1.417v-9.832h6.242zm1.242 2.542h1.304v7.174h-1.303l-.001-7.174zm.018-3.259v1.294h1.328v-1.294h-1.328zm3.439 3.326h1.142c.006.228.038.53.096.905 1.134-1.346 3.432-1.589 4.221.289.772-1.194 1.533-1.512 2.775-1.305 1.572.261 1.807 2.036 1.883 2.707-.033 1.922-.012 3.612 0 4.627h-1.323v-4.627c-.04-.684-.27-1.691-1.43-1.691-1.162 0-1.682 1.064-1.682 1.691v4.627h-1.315v-4.627c0-.808-.495-1.854-1.662-1.691-1.167.162-1.265.686-1.467.96.014 1.786.014 3.572 0 5.358h-1.238v-7.223z" fill="#2A3052" fill-rule="nonzero"/><path d="M22.284 19.803h-3.852L17.699 22h-2.336l3.97-10.664h2.036L25.36 22h-2.336l-.74-2.197zm-3.26-1.78h2.667l-1.34-3.992-1.326 3.992zm14.334.088c0 1.27-.27 2.26-.813 2.97-.542.71-1.298 1.065-2.27 1.065-.86 0-1.546-.33-2.058-.988l-.095.842h-1.905V10.75h2.117v4.036c.488-.572 1.13-.857 1.926-.857.967 0 1.725.355 2.274 1.065.55.71.824 1.71.824 3v.117zm-2.116-.154c0-.8-.127-1.385-.381-1.754s-.632-.553-1.135-.553c-.674 0-1.138.276-1.392.828v3.127c.259.557.728.835 1.406.835.684 0 1.133-.337 1.348-1.01.102-.323.154-.814.154-1.473zM39.254 22a2.35 2.35 0 0 1-.212-.71c-.513.57-1.18.856-2 .856-.776 0-1.42-.224-1.93-.673a2.167 2.167 0 0 1-.765-1.7c0-.84.311-1.484.934-1.933.623-.45 1.522-.676 2.699-.681h.974v-.454c0-.367-.094-.66-.282-.88-.188-.219-.484-.329-.89-.329-.356 0-.636.086-.838.256-.203.171-.304.406-.304.704h-2.117c0-.46.142-.884.425-1.275.283-.39.683-.697 1.2-.919.519-.222 1.1-.333 1.744-.333.977 0 1.752.245 2.326.736.573.49.86 1.18.86 2.069v3.435c.005.752.11 1.32.315 1.706V22h-2.139zm-1.75-1.472c.312 0 .6-.07.864-.209.264-.14.46-.326.586-.56v-1.363h-.79c-1.06 0-1.624.367-1.693 1.1l-.007.124c0 .263.093.48.278.651.186.171.44.257.762.257zM44.938 22h-2.124v-7.925h2.124V22zm-2.249-9.976c0-.317.107-.578.32-.783.211-.205.5-.308.867-.308.361 0 .65.103.864.308.215.205.322.466.322.783 0 .323-.108.586-.325.791-.218.206-.505.308-.861.308s-.643-.102-.86-.308a1.04 1.04 0 0 1-.327-.79zm7.01 4.417l1.333-2.366h2.263l-2.256 3.882L53.39 22h-2.27l-1.414-2.49L48.3 22h-2.278l2.351-4.043-2.248-3.882h2.27l1.304 2.366zm3.991 1.523c0-.786.152-1.486.455-2.102a3.324 3.324 0 0 1 1.307-1.428c.569-.337 1.23-.505 1.981-.505 1.07 0 1.942.327 2.619.981.676.654 1.053 1.543 1.131 2.666l.015.542c0 1.216-.34 2.191-1.018 2.926-.679.735-1.59 1.102-2.732 1.102-1.143 0-2.055-.366-2.736-1.098-.681-.733-1.022-1.729-1.022-2.988v-.096zm2.117.154c0 .752.142 1.327.425 1.725.283.398.688.597 1.216.597.512 0 .913-.197 1.2-.59.289-.393.433-1.021.433-1.886 0-.737-.144-1.308-.432-1.714-.288-.405-.693-.607-1.216-.607-.517 0-.918.201-1.201.604-.283.403-.425 1.026-.425 1.871z" fill="#000" fill-rule="nonzero"/></g></svg>