<?xml version="1.0" encoding="UTF-8"?>
<svg width="299px" height="197px" viewBox="0 0 299 197" version="1.1" xmlns="http://www.w3.org/2000/svg" xmlns:xlink="http://www.w3.org/1999/xlink">
    <!-- Generator: Sketch 53.1 (72631) - https://sketchapp.com -->
    <title>Down</title>
    <desc>Created with Sketch.</desc>
    <g id="Page-1" stroke="none" stroke-width="1" fill="none" fill-rule="evenodd">
        <g id="Down" fill-rule="nonzero">
            <polygon id="Path" fill="#F1F2F2" points="0 0 299 0 299 197 0 197"></polygon>
            <path d="M1.98671096,1.9798995 L1.98671096,195.020101 L297.013289,195.020101 L297.013289,1.9798995 L1.98671096,1.9798995 Z M299,0 L299,197 L0,197 L0,0 L299,0 Z" id="Path" fill="#C2C2C2"></path>
            <path d="M2.92614576,53.1129772 L2.92614576,51.8897746 L296.509938,51.8897746 L296.509938,53.1129772 L2.92614576,53.1129772 Z M2.92614576,73.7107247 L2.92614576,72.4875221 L296.509938,72.4875221 L296.509938,73.7107247 L2.92614576,73.7107247 Z M2.92614576,94.2705389 L2.92614576,93.0473363 L296.509938,93.0473363 L296.509938,94.2705389 L2.92614576,94.2705389 Z M2.92614576,135.4281 L2.92614576,134.204898 L296.509938,134.204898 L296.509938,135.4281 L2.92614576,135.4281 Z M2.92614576,155.987914 L2.92614576,154.764712 L296.509938,154.764712 L296.509938,155.987914 L2.92614576,155.987914 Z M2.92614576,176.547729 L2.92614576,175.324527 L296.509938,175.324527 L296.509938,176.547729 L2.92614576,176.547729 Z M37.7718902,31.9415617 L38.9950928,31.9415617 L38.9950928,194.068215 L37.7718902,194.068215 L37.7718902,31.9415617 Z M74.9339161,31.9415617 L76.1571187,31.9415617 L76.1571187,194.068215 L74.9339161,194.068215 L74.9339161,31.9415617 Z M112.05806,31.9415617 L113.281262,31.9415617 L113.281262,194.068215 L112.05806,194.068215 L112.05806,31.9415617 Z M149.220086,31.9415617 L150.443288,31.9415617 L150.443288,194.068215 L149.220086,194.068215 L149.220086,31.9415617 Z M186.34423,31.9415617 L187.567432,31.9415617 L187.567432,194.068215 L186.34423,194.068215 L186.34423,31.9415617 Z M223.468374,31.9415617 L224.691576,31.9415617 L224.691576,194.068215 L223.468374,194.068215 L223.468374,31.9415617 Z M260.6304,31.9415617 L261.853602,31.9415617 L261.853602,194.068215 L260.6304,194.068215 L260.6304,31.9415617 Z" id="Shape" fill="#DFDEDE"></path>
            <polygon id="Path" fill="#C2C2C2" points="1 30 1 28 298 28 298 30"></polygon>
            <path d="M188.521984,146.307379 L153.10252,146.307379 L147.647544,138 L142.192568,146.307379 L106.773104,146.307379 C104.121379,146.307379 102,148.469573 102,151.162833 L102,176.236703 C102,178.929962 104.159261,181.092157 106.773104,181.092157 L188.559866,181.092157 C191.211591,181.092157 193.33297,178.929962 193.33297,176.236703 L193.33297,151.162833 C193.33297,148.469573 191.173709,146.307379 188.521984,146.307379 Z" id="Path" fill="#E88024"></path>
            <polygon id="Path" fill="#2A3052" points="5.26159903 116.411393 5.26159903 114.926326 293.612573 114.926326 293.612573 116.411393"></polygon>
            <path d="M108.432679,104.236249 L75.1471752,141.42885 C74.523214,142.126053 73.471924,142.235714 72.7175089,141.682291 L39.254469,117.134507 C38.4450141,116.540708 38.2701905,115.403146 38.8639897,114.593691 C39.4577888,113.784236 40.595351,113.609412 41.404806,114.203211 L73.5380371,137.775476 L107.057762,100.32116 C107.772989,99.5219785 109.02107,99.5125499 109.748289,100.300834 L141.524331,134.745128 L184.70331,92.1202033 C185.590968,91.2439358 187.077293,91.5015982 187.618208,92.6255161 L229.637241,179.933043 L257.752096,155.093558 C258.504429,154.428871 259.653152,154.499923 260.317839,155.252257 C260.982526,156.00459 260.911474,157.153312 260.15914,157.817999 L230.244406,184.247678 C229.341207,185.045655 227.925641,184.759725 227.402983,183.67374 L185.446103,96.4953548 L142.74023,138.653244 C142.008654,139.375433 140.824247,139.347755 140.127204,138.592181 L108.432679,104.236249 Z" id="Path" fill="#2A3052"></path>
            <ellipse id="Oval" fill="#FFFFFF" opacity="0.6" cx="40.3296375" cy="115.668859" rx="8.06728138" ry="8.49574874"></ellipse>
            <path d="M40.3296375,125.376422 C35.1905082,125.376422 31.0505419,121.016575 31.0505419,115.668859 C31.0505419,110.321143 35.1905082,105.961296 40.3296375,105.961296 C45.4687668,105.961296 49.6087331,110.321143 49.6087331,115.668859 C49.6087331,121.016575 45.4687668,125.376422 40.3296375,125.376422 Z M40.3296375,122.952794 C44.1013811,122.952794 47.1851047,119.705288 47.1851047,115.668859 C47.1851047,111.63243 44.1013811,108.384925 40.3296375,108.384925 C36.5578939,108.384925 33.4741703,111.63243 33.4741703,115.668859 C33.4741703,119.705288 36.5578939,122.952794 40.3296375,122.952794 Z" id="Oval" fill="#E88024"></path>
            <ellipse id="Oval" fill="#FFFFFF" opacity="0.6" cx="258.955618" cy="155.854879" rx="8.06728138" ry="8.49574874"></ellipse>
            <path d="M258.955618,165.563432 C253.816489,165.563432 249.676522,161.203585 249.676522,155.855869 C249.676522,150.508153 253.816489,146.148306 258.955618,146.148306 C264.094747,146.148306 268.234714,150.508153 268.234714,155.855869 C268.234714,161.203585 264.094747,165.563432 258.955618,165.563432 Z M258.955618,163.139804 C262.727362,163.139804 265.811085,159.892298 265.811085,155.855869 C265.811085,151.81944 262.727362,148.571935 258.955618,148.571935 C255.183874,148.571935 252.100151,151.81944 252.100151,155.855869 C252.100151,159.892298 255.183874,163.139804 258.955618,163.139804 Z" id="Oval" fill="#E88024"></path>
            <path d="M259.572,123.604 L260.976,123.604 L259.296,134.684 L257.934,134.684 L259.572,123.604 Z M261.941,127.015 L263.331,127.015 L264.441,132.997 L267.265,127.015 L268.657,127.015 L264.664,134.683 L263.682,134.683 L261.941,127.015 Z M273.519,126.912 C275.389,127.202 276.426,128.975 275.723,131.676 C275.021,134.377 272.641,135.195 270.853,134.688 C269.063,134.18 268.618,131.858 269.253,129.845 C269.887,127.833 271.649,126.621 273.519,126.912 Z M273.292,128.014 C271.89,127.682 270.973,128.995 270.632,129.941 C270.292,130.888 270.014,133.398 271.502,133.7 C272.992,134 273.972,132.894 274.386,131.49 C274.8,130.087 274.694,128.347 273.292,128.014 Z M247.928,134.657 L253.201,124.344 L254.425,124.344 L256.49,134.657 L255.056,134.657 L254.58,131.974 L250.684,131.974 L249.355,134.657 L247.928,134.657 Z M251.302,130.853 L254.352,130.853 L253.525,126.307 L251.302,130.853 Z" id="Shape" fill="#6D6E71"></path>
            <path d="M127.875,168.523438 C127.46354,169.059899 126.893233,169.466144 126.164062,169.742188 C125.434892,170.018231 124.606775,170.15625 123.679688,170.15625 C122.726558,170.15625 121.882816,169.940106 121.148438,169.507812 C120.414059,169.075519 119.847658,168.457035 119.449219,167.652344 C119.050779,166.847652 118.84375,165.90886 118.828125,164.835938 L118.828125,163.945312 C118.828125,162.226554 119.239579,160.884119 120.0625,159.917969 C120.885421,158.951818 122.033847,158.46875 123.507812,158.46875 C124.773444,158.46875 125.778642,158.781247 126.523438,159.40625 C127.268233,160.031253 127.716145,160.932286 127.867188,162.109375 L125.929688,162.109375 C125.710936,160.739576 124.916674,160.054688 123.546875,160.054688 C122.661454,160.054688 121.988284,160.373695 121.527344,161.011719 C121.066404,161.649743 120.828125,162.585931 120.8125,163.820312 L120.8125,164.695312 C120.8125,165.924485 121.071612,166.878903 121.589844,167.558594 C122.108076,168.238285 122.82812,168.578125 123.75,168.578125 C124.760422,168.578125 125.479165,168.348961 125.90625,167.890625 L125.90625,165.664062 L123.5625,165.664062 L123.5625,164.164062 L127.875,164.164062 L127.875,168.523438 Z M134.914062,170 C134.830729,169.838541 134.757813,169.575523 134.695312,169.210938 C134.091143,169.841149 133.351567,170.15625 132.476562,170.15625 C131.6276,170.15625 130.934899,169.914065 130.398438,169.429688 C129.861976,168.94531 129.59375,168.346358 129.59375,167.632812 C129.59375,166.731766 129.928382,166.040367 130.597656,165.558594 C131.26693,165.076821 132.223952,164.835938 133.46875,164.835938 L134.632812,164.835938 L134.632812,164.28125 C134.632812,163.843748 134.510418,163.493491 134.265625,163.230469 C134.020832,162.967447 133.64844,162.835938 133.148438,162.835938 C132.716144,162.835938 132.361981,162.944009 132.085938,163.160156 C131.809894,163.376303 131.671875,163.65104 131.671875,163.984375 L129.773438,163.984375 C129.773438,163.520831 129.927082,163.087242 130.234375,162.683594 C130.541668,162.279946 130.959633,161.963543 131.488281,161.734375 C132.01693,161.505207 132.606768,161.390625 133.257812,161.390625 C134.247401,161.390625 135.036455,161.63932 135.625,162.136719 C136.213545,162.634117 136.515625,163.333329 136.53125,164.234375 L136.53125,168.046875 C136.53125,168.807295 136.63802,169.41406 136.851562,169.867188 L136.851562,170 L134.914062,170 Z M132.828125,168.632812 C133.203127,168.632812 133.555988,168.541668 133.886719,168.359375 C134.21745,168.177082 134.466145,167.932293 134.632812,167.625 L134.632812,166.03125 L133.609375,166.03125 C132.906246,166.03125 132.377606,166.153645 132.023438,166.398438 C131.669269,166.64323 131.492188,166.989581 131.492188,167.4375 C131.492188,167.802085 131.61328,168.092447 131.855469,168.308594 C132.097657,168.524741 132.421873,168.632812 132.828125,168.632812 Z M140.28125,161.546875 L140.335938,162.523438 C140.960941,161.768225 141.781245,161.390625 142.796875,161.390625 C144.5573,161.390625 145.453125,162.398427 145.484375,164.414062 L145.484375,170 L143.585938,170 L143.585938,164.523438 C143.585938,163.986976 143.470053,163.589845 143.238281,163.332031 C143.006509,163.074217 142.627607,162.945312 142.101562,162.945312 C141.335934,162.945312 140.765627,163.291663 140.390625,163.984375 L140.390625,170 L138.492188,170 L138.492188,161.546875 L140.28125,161.546875 Z M149.289062,162.46875 C149.908857,161.749996 150.692704,161.390625 151.640625,161.390625 C153.442717,161.390625 154.356771,162.419261 154.382812,164.476562 L154.382812,170 L152.484375,170 L152.484375,164.546875 C152.484375,163.963539 152.358074,163.550782 152.105469,163.308594 C151.852863,163.066405 151.481773,162.945312 150.992188,162.945312 C150.231767,162.945312 149.664064,163.283851 149.289062,163.960938 L149.289062,170 L147.390625,170 L147.390625,158 L149.289062,158 L149.289062,162.46875 Z M155.945312,165.695312 C155.945312,164.867183 156.109373,164.121097 156.4375,163.457031 C156.765627,162.792965 157.22656,162.282554 157.820312,161.925781 C158.414065,161.569009 159.09635,161.390625 159.867188,161.390625 C161.007818,161.390625 161.93359,161.757809 162.644531,162.492188 C163.355472,163.226566 163.739583,164.200515 163.796875,165.414062 L163.804688,165.859375 C163.804688,166.692712 163.644533,167.437497 163.324219,168.09375 C163.003905,168.750003 162.545576,169.257811 161.949219,169.617188 C161.352862,169.976564 160.664066,170.15625 159.882812,170.15625 C158.690098,170.15625 157.735681,169.759119 157.019531,168.964844 C156.303382,168.170569 155.945312,167.111986 155.945312,165.789062 L155.945312,165.695312 Z M157.84375,165.859375 C157.84375,166.729171 158.023436,167.410154 158.382812,167.902344 C158.742189,168.394534 159.242184,168.640625 159.882812,168.640625 C160.523441,168.640625 161.022134,168.390627 161.378906,167.890625 C161.735679,167.390623 161.914062,166.658859 161.914062,165.695312 C161.914062,164.841142 161.730471,164.164065 161.363281,163.664062 C160.996092,163.16406 160.497399,162.914062 159.867188,162.914062 C159.247393,162.914062 158.75521,163.160154 158.390625,163.652344 C158.02604,164.144534 157.84375,164.880203 157.84375,165.859375 Z M170.53125,169.171875 C169.973956,169.828128 169.182297,170.15625 168.15625,170.15625 C167.239579,170.15625 166.545575,169.888024 166.074219,169.351562 C165.602862,168.815101 165.367188,168.039068 165.367188,167.023438 L165.367188,161.546875 L167.265625,161.546875 L167.265625,167 C167.265625,168.072922 167.710933,168.609375 168.601562,168.609375 C169.523442,168.609375 170.145832,168.278649 170.46875,167.617188 L170.46875,161.546875 L172.367188,161.546875 L172.367188,170 L170.578125,170 L170.53125,169.171875 Z M176.3125,166.648438 L174.679688,166.648438 L174.5,158.625 L176.5,158.625 L176.3125,166.648438 Z M174.445312,169.101562 C174.445312,168.804686 174.541666,168.558595 174.734375,168.363281 C174.927084,168.167968 175.190102,168.070312 175.523438,168.070312 C175.856773,168.070312 176.119791,168.167968 176.3125,168.363281 C176.505209,168.558595 176.601562,168.804686 176.601562,169.101562 C176.601562,169.388022 176.507813,169.627603 176.320312,169.820312 C176.132812,170.013022 175.867189,170.109375 175.523438,170.109375 C175.179686,170.109375 174.914063,170.013022 174.726562,169.820312 C174.539062,169.627603 174.445312,169.388022 174.445312,169.101562 Z" id="Ganhou!" fill="#FFFFFF"></path>
            <path d="M21.9726562,17.8027344 L18.1201172,17.8027344 L17.3876953,20 L15.0512695,20 L19.0209961,9.3359375 L21.0571289,9.3359375 L25.0488281,20 L22.7124023,20 L21.9726562,17.8027344 Z M18.7133789,16.0229492 L21.3793945,16.0229492 L20.0390625,12.03125 L18.7133789,16.0229492 Z M33.046875,16.1108398 C33.046875,17.3803774 32.7758816,18.3703578 32.2338867,19.0808105 C31.6918918,19.7912633 30.9350635,20.1464844 29.9633789,20.1464844 C29.1039996,20.1464844 28.4179713,19.8168978 27.9052734,19.1577148 L27.8100586,20 L25.9057617,20 L25.9057617,8.75 L28.0224609,8.75 L28.0224609,12.7856445 C28.5107446,12.2143526 29.1528281,11.9287109 29.9487305,11.9287109 C30.9155322,11.9287109 31.6735812,12.283932 32.2229004,12.9943848 C32.7722195,13.7048375 33.046875,14.7045834 33.046875,15.9936523 L33.046875,16.1108398 Z M30.9301758,15.9570312 C30.9301758,15.156246 30.8032239,14.571535 30.5493164,14.2028809 C30.2954089,13.8342267 29.9169947,13.6499023 29.4140625,13.6499023 C28.740231,13.6499023 28.2763685,13.9257785 28.0224609,14.4775391 L28.0224609,17.6049805 C28.2812513,18.1616239 28.7499966,18.4399414 29.4287109,18.4399414 C30.1123081,18.4399414 30.5615224,18.1030307 30.7763672,17.4291992 C30.8789068,17.106932 30.9301758,16.6162142 30.9301758,15.9570312 Z M38.9428711,20 C38.8452144,19.8095694 38.7744143,19.5727553 38.7304688,19.2895508 C38.2177709,19.8608427 37.5512736,20.1464844 36.730957,20.1464844 C35.954586,20.1464844 35.3112818,19.9218772 34.8010254,19.4726562 C34.2907689,19.0234353 34.0356445,18.4570347 34.0356445,17.7734375 C34.0356445,16.9335896 34.3469207,16.2890647 34.9694824,15.8398438 C35.5920441,15.3906228 36.4916933,15.1635742 37.668457,15.1586914 L38.6425781,15.1586914 L38.6425781,14.7045898 C38.6425781,14.3383771 38.5485849,14.0454113 38.3605957,13.8256836 C38.1726065,13.6059559 37.8759786,13.4960938 37.4707031,13.4960938 C37.114256,13.4960938 36.8347178,13.5815421 36.6320801,13.7524414 C36.4294423,13.9233407 36.328125,14.1577134 36.328125,14.4555664 L34.2114258,14.4555664 C34.2114258,13.9965797 34.3530259,13.5717793 34.6362305,13.1811523 C34.919435,12.7905254 35.3198216,12.484132 35.8374023,12.2619629 C36.3549831,12.0397938 36.9360319,11.9287109 37.5805664,11.9287109 C38.5571338,11.9287109 39.3322725,12.1740698 39.9060059,12.6647949 C40.4797392,13.15552 40.7666016,13.8452104 40.7666016,14.7338867 L40.7666016,18.1689453 C40.7714844,18.9209022 40.8764638,19.4897442 41.081543,19.8754883 L41.081543,20 L38.9428711,20 Z M37.1923828,18.527832 C37.5048844,18.527832 37.7929674,18.4582526 38.0566406,18.3190918 C38.3203138,18.1799309 38.5156244,17.9931652 38.6425781,17.7587891 L38.6425781,16.3964844 L37.8515625,16.3964844 C36.7919869,16.3964844 36.2280277,16.7626917 36.159668,17.4951172 L36.1523438,17.6196289 C36.1523438,17.8833021 36.2451163,18.1005851 36.4306641,18.2714844 C36.6162119,18.4423837 36.8701156,18.527832 37.1923828,18.527832 Z M44.6264648,20 L42.5024414,20 L42.5024414,12.0751953 L44.6264648,12.0751953 L44.6264648,20 Z M42.3779297,10.0244141 C42.3779297,9.70702966 42.4841298,9.44580181 42.6965332,9.24072266 C42.9089366,9.03564351 43.1982404,8.93310547 43.5644531,8.93310547 C43.9257831,8.93310547 44.2138661,9.03564351 44.4287109,9.24072266 C44.6435558,9.44580181 44.7509766,9.70702966 44.7509766,10.0244141 C44.7509766,10.3466813 44.6423351,10.6103505 44.4250488,10.8154297 C44.2077626,11.0205088 43.9209002,11.1230469 43.5644531,11.1230469 C43.208006,11.1230469 42.9211437,11.0205088 42.7038574,10.8154297 C42.4865712,10.6103505 42.3779297,10.3466813 42.3779297,10.0244141 Z M49.387207,14.440918 L50.7202148,12.0751953 L52.9833984,12.0751953 L50.7275391,15.9570312 L53.0786133,20 L50.8081055,20 L49.3945312,17.5097656 L47.9882812,20 L45.7104492,20 L48.0615234,15.9570312 L45.8129883,12.0751953 L48.0834961,12.0751953 L49.387207,14.440918 Z M53.671875,15.9643555 C53.671875,15.1782187 53.8232407,14.4775421 54.1259766,13.8623047 C54.4287125,13.2470672 54.8644991,12.7709978 55.4333496,12.434082 C56.0022001,12.0971663 56.6625939,11.9287109 57.4145508,11.9287109 C58.4838921,11.9287109 59.3566861,12.2558561 60.032959,12.9101562 C60.7092319,13.5644564 61.0864254,14.4531194 61.1645508,15.5761719 L61.1791992,16.1181641 C61.1791992,17.3339905 60.8398471,18.3093225 60.1611328,19.0441895 C59.4824185,19.7790564 58.5717831,20.1464844 57.4291992,20.1464844 C56.2866154,20.1464844 55.3747593,19.7802771 54.6936035,19.0478516 C54.0124478,18.315426 53.671875,17.3193422 53.671875,16.0595703 L53.671875,15.9643555 Z M55.7885742,16.1181641 C55.7885742,16.8701209 55.9301744,17.4450664 56.2133789,17.8430176 C56.4965834,18.2409688 56.9018528,18.4399414 57.4291992,18.4399414 C57.9418971,18.4399414 58.3422837,18.2434102 58.6303711,17.8503418 C58.9184585,17.4572734 59.0625,16.8286176 59.0625,15.9643555 C59.0625,15.2270471 58.9184585,14.6557637 58.6303711,14.2504883 C58.3422837,13.8452128 57.9370143,13.6425781 57.4145508,13.6425781 C56.8969701,13.6425781 56.4965834,13.8439921 56.2133789,14.2468262 C55.9301744,14.6496602 55.7885742,15.2734333 55.7885742,16.1181641 Z" id="Abaixo" fill="#000000"></path>
            <path d="M24.746582,145 L23.340332,145 L23.340332,134.335938 L24.746582,134.335938 L24.746582,145 Z M28.3867188,137.075195 L28.4306641,138.071289 C29.0361358,137.309567 29.8271436,136.928711 30.8037109,136.928711 C32.478524,136.928711 33.3232421,137.873526 33.3378906,139.763184 L33.3378906,145 L31.9829102,145 L31.9829102,139.755859 C31.9780273,139.184567 31.8474134,138.762208 31.5910645,138.48877 C31.3347155,138.215331 30.9355496,138.078613 30.3935547,138.078613 C29.9540994,138.078613 29.568361,138.1958 29.2363281,138.430176 C28.9042952,138.664552 28.6455087,138.972166 28.4599609,139.353027 L28.4599609,145 L27.1049805,145 L27.1049805,137.075195 L28.3867188,137.075195 Z M36.8535156,145 L35.4912109,145 L35.4912109,137.075195 L36.8535156,137.075195 L36.8535156,145 Z M36.8681641,133.757324 L38.5087891,133.757324 L36.5458984,135.910645 L35.4545898,135.910645 L36.8681641,133.757324 Z M42.2661133,144.040527 C42.7495141,144.040527 43.1718732,143.894044 43.5332031,143.601074 C43.8945331,143.308104 44.0947264,142.941897 44.1337891,142.502441 L45.4155273,142.502441 C45.3911132,142.956545 45.2348647,143.38867 44.9467773,143.798828 C44.65869,144.208986 44.2741723,144.536132 43.7932129,144.780273 C43.3122535,145.024415 42.8032253,145.146484 42.2661133,145.146484 C41.1870063,145.146484 40.3288606,144.786381 39.6916504,144.066162 C39.0544402,143.345944 38.7358398,142.360846 38.7358398,141.11084 L38.7358398,140.883789 C38.7358398,140.112301 38.87744,139.426273 39.1606445,138.825684 C39.4438491,138.225095 39.8503391,137.758791 40.380127,137.426758 C40.9099148,137.094725 41.5361292,136.928711 42.2587891,136.928711 C43.1474654,136.928711 43.8859834,137.194822 44.4743652,137.727051 C45.0627471,138.25928 45.3764646,138.950191 45.4155273,139.799805 L44.1337891,139.799805 C44.0947264,139.287107 43.9006365,138.865968 43.5515137,138.536377 C43.2023908,138.206785 42.7714869,138.041992 42.2587891,138.041992 C41.5703091,138.041992 41.0368671,138.289792 40.6584473,138.7854 C40.2800274,139.281008 40.0908203,139.997554 40.0908203,140.935059 L40.0908203,141.191406 C40.0908203,142.104497 40.2788067,142.807615 40.6547852,143.300781 C41.0307636,143.793948 41.5678676,144.040527 42.2661133,144.040527 Z M48.4111328,145 L47.0561523,145 L47.0561523,137.075195 L48.4111328,137.075195 L48.4111328,145 Z M46.9462891,134.973145 C46.9462891,134.753417 47.0134271,134.567872 47.1477051,134.416504 C47.2819831,134.265136 47.4809557,134.189453 47.7446289,134.189453 C48.0083021,134.189453 48.2084954,134.265136 48.3452148,134.416504 C48.4819343,134.567872 48.550293,134.753417 48.550293,134.973145 C48.550293,135.192872 48.4819343,135.375976 48.3452148,135.522461 C48.2084954,135.668946 48.0083021,135.742188 47.7446289,135.742188 C47.4809557,135.742188 47.2819831,135.668946 47.1477051,135.522461 C47.0134271,135.375976 46.9462891,135.192872 46.9462891,134.973145 Z M50.2202148,140.964355 C50.2202148,140.187984 50.3728012,139.489749 50.6779785,138.869629 C50.9831558,138.249509 51.4079563,137.770998 51.9523926,137.434082 C52.4968289,137.097166 53.1181606,136.928711 53.8164062,136.928711 C54.8955132,136.928711 55.7683072,137.302242 56.4348145,138.049316 C57.1013217,138.79639 57.4345703,139.790033 57.4345703,141.030273 L57.4345703,141.125488 C57.4345703,141.896977 57.2868667,142.589108 56.9914551,143.201904 C56.6960434,143.8147 56.2736844,144.29199 55.7243652,144.633789 C55.1750461,144.975588 54.5439489,145.146484 53.8310547,145.146484 C52.7568306,145.146484 51.8864779,144.772953 51.2199707,144.025879 C50.5534635,143.278805 50.2202148,142.290045 50.2202148,141.05957 L50.2202148,140.964355 Z M51.5825195,141.125488 C51.5825195,142.004399 51.7863749,142.709958 52.1940918,143.242188 C52.6018087,143.774417 53.1474575,144.040527 53.8310547,144.040527 C54.5195347,144.040527 55.0664042,143.770755 55.4716797,143.231201 C55.8769552,142.691648 56.0795898,141.93604 56.0795898,140.964355 C56.0795898,140.09521 55.8732931,139.390872 55.4606934,138.851318 C55.0480936,138.311765 54.5000034,138.041992 53.8164062,138.041992 C53.1474576,138.041992 52.6079122,138.308103 52.1977539,138.840332 C51.7875956,139.372561 51.5825195,140.134272 51.5825195,141.125488 Z" id="Início" fill="#2A3052"></path>
            <path d="M257.119141,180.290527 L252.644043,180.290527 L252.644043,185 L251.237793,185 L251.237793,174.335938 L257.844238,174.335938 L257.844238,175.493164 L252.644043,175.493164 L252.644043,179.140625 L257.119141,179.140625 L257.119141,180.290527 Z M260.788574,185 L259.433594,185 L259.433594,177.075195 L260.788574,177.075195 L260.788574,185 Z M259.32373,174.973145 C259.32373,174.753417 259.390868,174.567872 259.525146,174.416504 C259.659424,174.265136 259.858397,174.189453 260.12207,174.189453 C260.385744,174.189453 260.585937,174.265136 260.722656,174.416504 C260.859376,174.567872 260.927734,174.753417 260.927734,174.973145 C260.927734,175.192872 260.859376,175.375976 260.722656,175.522461 C260.585937,175.668946 260.385744,175.742188 260.12207,175.742188 C259.858397,175.742188 259.659424,175.668946 259.525146,175.522461 C259.390868,175.375976 259.32373,175.192872 259.32373,174.973145 Z M264.230957,177.075195 L264.267578,177.954102 C264.848636,177.270504 265.632319,176.928711 266.618652,176.928711 C267.727056,176.928711 268.481443,177.353511 268.881836,178.203125 C269.145509,177.822264 269.488523,177.51465 269.910889,177.280273 C270.333254,177.045897 270.832517,176.928711 271.408691,176.928711 C273.146981,176.928711 274.030762,177.849112 274.060059,179.689941 L274.060059,185 L272.705078,185 L272.705078,179.770508 C272.705078,179.204099 272.575685,178.780519 272.316895,178.499756 C272.058104,178.218993 271.623538,178.078613 271.013184,178.078613 C270.510251,178.078613 270.092775,178.228758 269.760742,178.529053 C269.428709,178.829347 269.23584,179.233396 269.182129,179.741211 L269.182129,185 L267.819824,185 L267.819824,179.807129 C267.819824,178.654779 267.255865,178.078613 266.12793,178.078613 C265.239253,178.078613 264.631349,178.457027 264.304199,179.213867 L264.304199,185 L262.949219,185 L262.949219,177.075195 L264.230957,177.075195 Z" id="Fim" fill="#2A3052"></path>
        </g>
    </g>
</svg>