<?xml version="1.0" encoding="UTF-8"?>
<svg width="299px" height="197px" viewBox="0 0 299 197" version="1.1" xmlns="http://www.w3.org/2000/svg" xmlns:xlink="http://www.w3.org/1999/xlink">
    <!-- Generator: Sketch 52.6 (67491) - http://www.bohemiancoding.com/sketch -->
    <title>end outside</title>
    <desc>Created with Sketch.</desc>
    <g id="Page-1" stroke="none" stroke-width="1" fill="none" fill-rule="evenodd">
        <g id="end-outside">
            <g id="ends-outside">
                <polygon id="Path" fill="#F1F2F2" points="0 0 299 0 299 197 0 197"></polygon>
                <path d="M1.98671096,1.9798995 L1.98671096,195.020101 L297.013289,195.020101 L297.013289,1.9798995 L1.98671096,1.9798995 Z M299,0 L299,197 L0,197 L0,0 L299,0 Z" id="Path" fill="#C2C2C2" fill-rule="nonzero"></path>
                <g id="Group-6" transform="translate(2.000000, 33.000000)">
                    <path d="M2.887,23.4456836 L2.887,22.2388448 L292.54325,22.2388448 L292.54325,23.4456836 L2.887,23.4456836 Z M2.887,63.9796458 L2.887,62.772807 L292.54325,62.772807 L292.54325,63.9796458 L2.887,63.9796458 Z M2.887,104.513608 L2.887,103.30677 L292.54325,103.30677 L292.54325,104.513608 L2.887,104.513608 Z M2.887,145.010211 L2.887,143.803373 L292.54325,143.803373 L292.54325,145.010211 L2.887,145.010211 Z M37.2665806,2.59396226 L38.4734194,2.59396226 L38.4734194,162.264151 L37.2665806,162.264151 L37.2665806,2.59396226 Z M73.9314556,2.59396226 L75.1382944,2.59396226 L75.1382944,162.264151 L73.9314556,162.264151 L73.9314556,2.59396226 Z M110.558956,2.59396226 L111.765794,2.59396226 L111.765794,162.264151 L110.558956,162.264151 L110.558956,2.59396226 Z M147.223831,2.59396226 L148.430669,2.59396226 L148.430669,162.264151 L147.223831,162.264151 L147.223831,2.59396226 Z M183.851331,2.59396226 L185.058169,2.59396226 L185.058169,162.264151 L183.851331,162.264151 L183.851331,2.59396226 Z M220.478831,2.59396226 L221.685669,2.59396226 L221.685669,162.264151 L220.478831,162.264151 L220.478831,2.59396226 Z M2.887,84.2279477 L2.887,83.0211089 L292.54325,83.0211089 L292.54325,84.2279477 L2.887,84.2279477 Z" id="Shape" fill="#DFDEDE" fill-rule="nonzero"></path>
                    <path d="M257.143706,2.59396226 L258.350544,2.59396226 L258.350544,162.264151 L257.143706,162.264151 L257.143706,2.59396226 Z M2.887,43.7313439 L2.887,42.5245051 L292.54325,42.5245051 L292.54325,43.7313439 L2.887,43.7313439 Z M2.887,124.76191 L2.887,123.555072 L292.54325,123.555072 L292.54325,124.76191 L2.887,124.76191 Z" id="Shape" fill="#2A3052" fill-rule="nonzero"></path>
                    <polygon id="Path" fill="#C2C2C2" fill-rule="nonzero" points="0.794 2.60551619 0.794 0.191464945 294.63625 0.191464945 294.63625 2.60551619"></polygon>
                    <path d="M38.7780566,85.19078 C37.9130397,85.6922858 36.8052541,85.3976018 36.3037483,84.5325849 C35.8022425,83.667568 36.0969265,82.5597824 36.9619434,82.0582766 L73.6268184,60.8012955 C74.2847374,60.4198577 75.110905,60.4902479 75.6948117,60.9774903 L108.13667,88.0486852 L146.812609,61.8768219 C147.491995,61.4170836 148.395598,61.4715961 149.014788,62.0096747 L184.376286,92.7389481 L256.475138,21.5539476 C257.186655,20.8514485 258.332942,20.8587594 259.035442,21.570277 C259.737941,22.2817946 259.73063,23.4280816 259.019112,24.1305808 L185.726737,96.493977 C185.053337,97.1588418 183.981505,97.1929357 183.267212,96.5722121 L147.68976,65.655274 L109.037516,91.8111026 C108.369276,92.2632987 107.482446,92.2187049 106.862938,91.701755 L74.3473092,64.5690015 L38.7780566,85.19078 Z" id="Path" fill="#2A3052" fill-rule="nonzero"></path>
                    <path d="M185.987125,114.445283 L151.0415,114.445283 L145.6595,106.263774 L140.2775,114.445283 L105.331875,114.445283 C104.07173,114.451176 102.865994,114.959272 101.98197,115.856931 C101.097947,116.754589 100.608676,117.967645 100.622625,119.22717 L100.622625,143.921132 C100.606032,146.539822 102.712091,148.678366 105.331875,148.703019 L186.0245,148.703019 C187.284645,148.697126 188.490381,148.18903 189.374405,147.291371 C190.258428,146.393713 190.747699,145.180657 190.73375,143.921132 L190.73375,119.22717 C190.73971,117.963586 190.242729,116.749496 189.352348,115.8525 C188.461966,114.955504 187.251275,114.449236 185.987125,114.445283 Z" id="Path" fill="#E88024"></path>
                    <g id="Group" opacity="0.6" transform="translate(249.412500, 12.830189)" fill="#FFFFFF">
                        <ellipse id="Oval" cx="8.334625" cy="9.22754717" rx="8.110375" ry="8.44301887"></ellipse>
                    </g>
                    <path d="M257.747125,31.7077803 C252.590171,31.7077803 248.429724,27.3766949 248.429724,22.0577358 C248.429724,16.7387767 252.590171,12.4076913 257.747125,12.4076913 C262.904079,12.4076913 267.064526,16.7387767 267.064526,22.0577358 C267.064526,27.3766949 262.904079,31.7077803 257.747125,31.7077803 Z M257.747125,29.293729 C261.548644,29.293729 264.650474,26.0646778 264.650474,22.0577358 C264.650474,18.0507938 261.548644,14.8217426 257.747125,14.8217426 C253.945606,14.8217426 250.843776,18.0507938 250.843776,22.0577358 C250.843776,26.0646778 253.945606,29.293729 257.747125,29.293729 Z" id="Oval" fill="#E88024" fill-rule="nonzero"></path>
                    <g id="Group" opacity="0.6" transform="translate(28.900000, 74.603774)" fill="#FFFFFF">
                        <ellipse id="Oval" cx="8.97" cy="9.0207547" rx="8.110375" ry="8.44301887"></ellipse>
                    </g>
                    <path d="M37.87,93.2745728 C32.7130457,93.2745728 28.5525994,88.9434874 28.5525994,83.6245283 C28.5525994,78.3055692 32.7130457,73.9744838 37.87,73.9744838 C43.0269543,73.9744838 47.1874006,78.3055692 47.1874006,83.6245283 C47.1874006,88.9434874 43.0269543,93.2745728 37.87,93.2745728 Z M37.87,90.8605215 C41.6715185,90.8605215 44.7733494,87.6314703 44.7733494,83.6245283 C44.7733494,79.6175863 41.6715185,76.3885351 37.87,76.3885351 C34.0684815,76.3885351 30.9666506,79.6175863 30.9666506,83.6245283 C30.9666506,87.6314703 34.0684815,90.8605215 37.87,90.8605215 Z" id="Oval" fill="#E88024" fill-rule="nonzero"></path>
                </g>
            </g>
            <path d="M21.77,170.613 L18.101,170.613 L16.859,173.119 L15.515,173.119 L20.48,163.389 L21.61,163.389 L23.588,173.119 L22.245,173.119 L21.77,170.613 Z M18.65,169.51 L21.556,169.51 L20.768,165.334 L20.728,165.327 L18.649,169.51 L18.65,169.51 Z M26.26,173.119 L24.944,173.119 L26.508,162.694 L27.824,162.694 L26.261,173.119 L26.26,173.119 Z M31.019,170.987 L31.059,171.495 L31.099,171.502 L31.299,170.987 L33.725,165.888 L35.068,165.888 L31.326,173.118 L30.33,173.118 L28.72,165.888 L30.07,165.888 L31.019,170.987 Z M35.315,169.437 C35.48,168.327 35.9,167.437 36.575,166.764 C37.25,166.091 38.089,165.754 39.091,165.754 C40.053,165.754 40.783,166.104 41.28,166.8 C41.776,167.498 41.947,168.376 41.79,169.437 L41.764,169.584 C41.594,170.702 41.174,171.594 40.501,172.26 C39.828,172.926 38.989,173.259 37.981,173.259 C37.019,173.259 36.29,172.912 35.793,172.217 C35.297,171.522 35.128,170.644 35.289,169.584 L35.315,169.437 Z M36.605,169.584 C36.485,170.377 36.549,171.016 36.799,171.502 C37.049,171.987 37.494,172.23 38.135,172.23 C38.737,172.23 39.244,171.977 39.655,171.471 C40.068,170.966 40.332,170.337 40.448,169.584 L40.474,169.437 C40.59,168.653 40.522,168.016 40.27,167.525 C40.019,167.035 39.574,166.79 38.937,166.79 C38.331,166.79 37.822,167.045 37.41,167.556 C36.998,168.066 36.739,168.693 36.632,169.436 L36.605,169.584 Z M47.671,173.119 L46.355,173.119 L47.437,165.889 L48.754,165.889 L47.671,173.119 Z M49.034,164.037 L47.718,164.037 L47.918,162.694 L49.235,162.694 L49.035,164.037 L49.034,164.037 Z M51.894,166.924 C52.1713406,166.563984 52.5238664,166.268791 52.927,166.059 C53.3248923,165.855479 53.7660947,165.751183 54.213,165.755 C54.966,165.755 55.529,165.985 55.901,166.446 C56.273,166.907 56.387,167.61 56.245,168.555 L55.563,173.119 L54.247,173.119 L54.928,168.581 C55.026,167.922 54.971,167.464 54.761,167.208 C54.551,166.952 54.184,166.824 53.659,166.824 C53.267,166.824 52.915,166.91 52.603,167.081 C52.2887468,167.254502 52.0187481,167.498151 51.814,167.793 L51.012,173.119 L49.696,173.119 L50.779,165.889 L51.955,165.889 L51.895,166.924 L51.894,166.924 Z M58.022,173.119 L58.958,166.864 L57.828,166.864 L57.976,165.888 L59.105,165.888 L59.245,164.973 C59.365,164.171 59.655,163.567 60.114,163.162 C60.573,162.756 61.168,162.554 61.898,162.554 C62.045,162.554 62.197,162.567 62.353,162.594 C62.509,162.621 62.673,162.654 62.847,162.694 L62.54,163.696 C62.3290465,163.650658 62.1137663,163.628527 61.898,163.63 C61.528,163.63 61.228,163.747 60.999,163.98 C60.77,164.214 60.624,164.545 60.562,164.973 L60.422,165.888 L61.732,165.888 L61.584,166.864 L60.274,166.864 L59.339,173.119 L58.022,173.119 Z M64.792,173.259 C63.794,173.259 63.044,172.923 62.543,172.25 C62.042,171.577 61.871,170.709 62.032,169.644 L62.079,169.35 C62.235,168.272 62.659,167.403 63.352,166.744 C64.044,166.084 64.83,165.754 65.707,165.754 C66.638,165.754 67.309,166.06 67.719,166.67 C68.129,167.28 68.259,168.076 68.113,169.056 L68.013,169.751 L63.335,169.751 C63.232,170.517 63.308,171.121 63.562,171.565 C63.816,172.008 64.277,172.23 64.945,172.23 C65.373,172.23 65.771,172.165 66.138,172.036 C66.506,171.906 66.823,171.733 67.09,171.515 L67.478,172.37 C67.184,172.62 66.812,172.83 66.362,173.002 C65.912,173.173 65.389,173.259 64.792,173.259 Z M65.553,166.79 C65.113,166.79 64.713,166.969 64.354,167.325 C63.995,167.681 63.738,168.131 63.582,168.675 L63.596,168.715 L66.85,168.715 L66.863,168.608 C66.943,168.069 66.881,167.631 66.676,167.295 C66.471,166.959 66.097,166.79 65.553,166.79 Z M73.312,167.051 L72.644,167.011 C72.3,167.011 71.998,167.097 71.734,167.268 C71.4577025,167.454104 71.2289084,167.702421 71.066,167.993 L70.298,173.119 L68.982,173.119 L70.064,165.889 L71.24,165.889 L71.213,166.911 C71.472,166.545 71.766,166.261 72.096,166.059 C72.5041838,165.807769 72.9877946,165.708286 73.462,165.778 C73.553,165.794 73.626,165.81 73.679,165.828 L73.312,167.051 Z M75.196,173.119 L73.88,173.119 L74.962,165.889 L76.279,165.889 L75.196,173.119 Z M76.559,164.037 L75.243,164.037 L75.443,162.694 L76.76,162.694 L76.56,164.037 L76.559,164.037 Z M77.469,169.437 C77.633,168.327 78.053,167.437 78.728,166.764 C79.403,166.091 80.241,165.754 81.244,165.754 C82.206,165.754 82.936,166.104 83.432,166.8 C83.929,167.498 84.099,168.376 83.944,169.437 L83.917,169.584 C83.747,170.702 83.327,171.594 82.654,172.26 C81.981,172.926 81.141,173.259 80.134,173.259 C79.172,173.259 78.443,172.912 77.946,172.217 C77.449,171.522 77.281,170.644 77.442,169.584 L77.468,169.437 L77.469,169.437 Z M78.758,169.584 C78.638,170.377 78.702,171.016 78.952,171.502 C79.202,171.987 79.647,172.23 80.288,172.23 C80.89,172.23 81.396,171.977 81.808,171.471 C82.221,170.966 82.485,170.337 82.6,169.584 L82.627,169.437 C82.743,168.653 82.675,168.016 82.423,167.525 C82.172,167.035 81.727,166.79 81.09,166.79 C80.484,166.79 79.975,167.045 79.563,167.556 C79.151,168.066 78.892,168.693 78.785,169.436 L78.758,169.584 Z M89.33,167.051 L88.661,167.011 C88.318,167.011 88.015,167.097 87.753,167.268 C87.476338,167.453984 87.2471928,167.702311 87.084,167.993 L86.316,173.119 L84.999,173.119 L86.082,165.889 L87.258,165.889 L87.231,166.911 C87.49,166.545 87.784,166.261 88.113,166.059 C88.521461,165.807536 89.0054681,165.708044 89.48,165.778 C89.571,165.794 89.644,165.81 89.697,165.828 L89.33,167.051 Z" id="Shape" fill="#6D6E71" fill-rule="nonzero"></path>
            <g id="Group-18" transform="translate(15.150000, 10.000000)">
                <path d="M8.723,3.018 L5.613,3.018 L5.613,12.22 L3.43,12.22 L3.43,3.018 L0.365,3.018 L0.365,1.336 L8.723,1.336 L8.723,3.018 Z M12.596,12.378 C11.389,12.378 10.448,12.008 9.77,11.268 C9.092,10.528 8.753,9.574 8.753,8.408 L8.753,8.108 C8.753,6.898 9.082,5.906 9.74,5.133 C10.398,4.361 11.302,3.977 12.454,3.983 C13.54,3.983 14.374,4.315 14.954,4.98 C15.534,5.646 15.825,6.541 15.825,7.668 L15.825,8.797 L11.003,8.797 L10.981,8.841 C11.016,9.395 11.184,9.843 11.485,10.187 C11.787,10.531 12.235,10.703 12.827,10.703 C13.316,10.703 13.731,10.653 14.072,10.553 C14.413,10.453 14.766,10.302 15.13,10.097 L15.72,11.443 C15.396,11.707 14.958,11.929 14.405,12.108 C13.851,12.288 13.248,12.378 12.595,12.378 L12.596,12.378 Z M12.454,5.664 C12.015,5.664 11.677,5.815 11.441,6.116 C11.204,6.418 11.061,6.818 11.011,7.316 L11.026,7.354 L13.687,7.354 L13.687,7.189 C13.687,6.716 13.59,6.343 13.395,6.072 C13.201,5.8 12.887,5.664 12.454,5.664 Z M21.35,6.008 L20.55,5.986 C20.226,5.986 19.96,6.053 19.75,6.188 C19.5376848,6.32580794 19.370994,6.52347053 19.271,6.756 L19.271,12.22 L17.096,12.22 L17.096,4.132 L19.122,4.132 L19.219,5.328 C19.409,4.904 19.654,4.574 19.955,4.338 C20.257,4.101 20.605,3.982 20.998,3.982 C21.108,3.982 21.208,3.991 21.301,4.008 C21.393,4.026 21.487,4.047 21.581,4.072 L21.35,6.008 Z M24.512,4.132 L24.602,5.201 C24.861,4.812 25.186,4.511 25.577,4.3 C25.968,4.088 26.421,3.982 26.934,3.982 C27.452,3.982 27.896,4.097 28.264,4.326 C28.634,4.556 28.912,4.902 29.102,5.366 C29.351,4.932 29.675,4.593 30.074,4.348 C30.472,4.104 30.941,3.982 31.479,3.982 C32.277,3.982 32.906,4.265 33.367,4.831 C33.827,5.396 34.058,6.26 34.058,7.421 L34.058,12.221 L31.875,12.221 L31.875,7.414 C31.875,6.766 31.775,6.314 31.576,6.06 C31.376,5.806 31.08,5.68 30.686,5.68 C30.378,5.68 30.11,5.748 29.883,5.885 C29.6545234,6.02387975 29.4673816,6.22137993 29.341,6.457 C29.341,6.551 29.344,6.632 29.349,6.7 C29.354,6.767 29.356,6.835 29.356,6.905 L29.356,12.22 L27.181,12.22 L27.181,7.414 C27.181,6.781 27.081,6.334 26.881,6.072 C26.682,5.81 26.383,5.679 25.984,5.679 C25.69,5.679 25.433,5.735 25.211,5.847 C24.989,5.959 24.806,6.117 24.661,6.322 L24.661,12.22 L22.486,12.22 L22.486,4.132 L24.512,4.132 Z M38.028,12.22 L35.845,12.22 L35.845,4.132 L38.028,4.132 L38.028,12.22 Z M38.028,2.195 L35.845,2.195 L35.845,0.558 L38.028,0.558 L38.028,2.195 Z M41.818,4.132 L41.915,5.29 C42.185,4.877 42.515,4.555 42.909,4.326 C43.3113409,4.09428966 43.7687534,3.97544532 44.233,3.982 C45.05,3.982 45.688,4.245 46.146,4.771 C46.605,5.297 46.834,6.128 46.834,7.264 L46.834,12.22 L44.644,12.22 L44.644,7.271 C44.644,6.693 44.543,6.283 44.341,6.041 C44.139,5.8 43.836,5.679 43.433,5.679 C43.109,5.679 42.823,5.74 42.577,5.862 C42.3361186,5.97899112 42.1269034,6.15219384 41.967,6.367 L41.967,12.22 L39.785,12.22 L39.785,4.132 L41.818,4.132 Z M53.233,12.22 C53.1516498,12.0304916 53.0831614,11.8357171 53.028,11.637 C52.9701867,11.4312603 52.9287243,11.2212732 52.904,11.009 C52.68,11.403 52.384,11.729 52.014,11.989 C51.646,12.248 51.207,12.377 50.699,12.377 C49.852,12.377 49.199,12.159 48.74,11.723 C48.282,11.287 48.053,10.693 48.053,9.94 C48.053,9.148 48.358,8.534 48.968,8.098 C49.578,7.661 50.47,7.443 51.641,7.443 L52.867,7.443 L52.867,6.801 C52.867,6.411 52.765,6.111 52.56,5.896 C52.356,5.682 52.052,5.574 51.648,5.574 C51.295,5.574 51.022,5.66 50.83,5.832 C50.638,6.004 50.542,6.24 50.542,6.539 L48.442,6.539 L48.426,6.494 C48.392,5.811 48.689,5.222 49.32,4.726 C49.95,4.23 50.774,3.982 51.79,3.982 C52.762,3.982 53.549,4.226 54.15,4.715 C54.75,5.203 55.05,5.903 55.05,6.815 L55.05,10.157 C55.05,10.536 55.079,10.892 55.136,11.227 C55.193,11.56 55.284,11.891 55.409,12.22 L53.233,12.22 Z M51.237,10.763 C51.5963171,10.7685655 51.949553,10.6699234 52.254,10.479 C52.553,10.289 52.757,10.069 52.867,9.821 L52.867,8.677 L51.641,8.677 C51.177,8.677 50.827,8.792 50.591,9.021 C50.358621,9.23987759 50.2296632,9.54683355 50.236,9.866 C50.236,10.14 50.324,10.358 50.501,10.52 C50.678,10.682 50.923,10.763 51.237,10.763 Z M69.501,8.1 C69.501,6.894 69.837,5.906 70.511,5.136 C71.183,4.366 72.115,3.981 73.306,3.981 C74.502,3.981 75.439,4.365 76.116,5.132 C76.795,5.9 77.134,6.889 77.134,8.1 L77.134,8.257 C77.134,9.473 76.796,10.464 76.121,11.229 C75.445,11.994 74.512,12.376 73.321,12.376 C72.125,12.376 71.189,11.994 70.514,11.229 C69.838,10.464 69.501,9.473 69.501,8.257 L69.501,8.1 Z M71.676,8.257 C71.676,8.995 71.806,9.587 72.065,10.033 C72.325,10.479 72.743,10.702 73.321,10.702 C73.884,10.702 74.296,10.478 74.558,10.029 C74.82,9.58 74.951,8.989 74.951,8.257 L74.951,8.1 C74.951,7.383 74.819,6.797 74.554,6.343 C74.29,5.89 73.874,5.663 73.306,5.663 C72.743,5.663 72.33,5.891 72.069,6.347 C71.807,6.803 71.676,7.387 71.676,8.1 L71.676,8.257 Z M82.733,6.007 L81.933,5.985 C81.609,5.985 81.343,6.052 81.133,6.187 C80.9210554,6.32495718 80.7547253,6.52260468 80.655,6.755 L80.655,12.219 L78.479,12.219 L78.479,4.131 L80.505,4.131 L80.602,5.327 C80.792,4.903 81.037,4.573 81.339,4.337 C81.64,4.1 81.988,3.981 82.381,3.981 C82.491,3.981 82.592,3.99 82.684,4.007 C82.776,4.025 82.87,4.046 82.964,4.071 L82.733,6.007 Z M88.639,12.219 C88.5573099,12.0295168 88.4884872,11.8347418 88.433,11.636 C88.3755245,11.4302328 88.3343965,11.2202461 88.31,11.008 C88.085,11.402 87.789,11.728 87.42,11.988 C87.051,12.247 86.613,12.376 86.104,12.376 C85.257,12.376 84.604,12.158 84.146,11.722 C83.687,11.286 83.458,10.692 83.458,9.939 C83.458,9.147 83.763,8.533 84.374,8.097 C84.984,7.66 85.875,7.442 87.046,7.442 L88.272,7.442 L88.272,6.8 C88.272,6.41 88.17,6.11 87.966,5.895 C87.761,5.681 87.457,5.573 87.054,5.573 C86.7,5.573 86.427,5.659 86.235,5.831 C86.043,6.003 85.947,6.239 85.947,6.538 L83.847,6.538 L83.832,6.493 C83.797,5.81 84.095,5.221 84.725,4.725 C85.355,4.229 86.179,3.981 87.195,3.981 C88.168,3.981 88.954,4.225 89.555,4.714 C90.155,5.202 90.455,5.902 90.455,6.814 L90.455,10.156 C90.455,10.535 90.484,10.891 90.541,11.226 C90.598,11.559 90.689,11.89 90.814,12.219 L88.639,12.219 Z M86.643,10.762 C87.0019781,10.7673717 87.3548397,10.6687372 87.659,10.478 C87.959,10.288 88.163,10.068 88.272,9.82 L88.272,8.676 L87.046,8.676 C86.583,8.676 86.233,8.791 85.996,9.02 C85.763621,9.23887759 85.6346632,9.54583355 85.641,9.865 C85.641,10.139 85.729,10.357 85.906,10.519 C86.083,10.681 86.329,10.762 86.643,10.762 Z" id="Shape" fill="#020202" fill-rule="nonzero"></path>
                <polygon id="Path" fill="#000000" points="68.442 7.702 64.348 7.702 64.348 12.133 62.209 12.133 62.209 1.47 69.189 1.47 69.189 3.118 64.348 3.118 64.348 6.055 68.442 6.055"></polygon>
            </g>
            <path d="M19.093,66.075 L15.519,66.075 L14.309,68.515 L13,68.515 L17.836,59.039 L18.936,59.039 L20.863,68.516 L19.555,68.516 L19.093,66.075 Z M16.053,65.001 L18.884,65.001 L18.116,60.933 L18.077,60.927 L16.053,65 L16.053,65.001 Z M23.466,68.516 L22.184,68.516 L23.707,58.362 L24.99,58.362 L23.466,68.516 Z M28.101,66.44 L28.14,66.934 L28.179,66.941 L28.374,66.44 L30.737,61.473 L32.045,61.473 L28.4,68.516 L27.43,68.516 L25.862,61.473 L27.176,61.473 L28.101,66.44 Z M32.286,64.93 C32.446,63.849 32.856,62.981 33.513,62.326 C34.17,61.671 34.987,61.343 35.963,61.343 C36.901,61.343 37.611,61.683 38.095,62.362 C38.579,63.041 38.745,63.897 38.593,64.93 L38.567,65.073 C38.402,66.162 37.992,67.031 37.337,67.679 C36.681,68.329 35.864,68.653 34.883,68.653 C33.946,68.653 33.235,68.314 32.751,67.637 C32.267,66.96 32.104,66.105 32.26,65.073 L32.286,64.93 Z M33.542,65.073 C33.425,65.845 33.488,66.468 33.731,66.941 C33.974,67.414 34.408,67.651 35.033,67.651 C35.618,67.651 36.112,67.404 36.513,66.911 C36.915,66.419 37.172,65.806 37.285,65.073 L37.311,64.93 C37.423,64.166 37.357,63.545 37.112,63.068 C36.867,62.591 36.434,62.352 35.814,62.352 C35.224,62.352 34.728,62.6 34.326,63.097 C33.925,63.594 33.672,64.205 33.568,64.93 L33.542,65.073 Z M47.328,66.622 C47.367,66.332 47.293,66.099 47.106,65.925 C46.92,65.752 46.534,65.598 45.948,65.463 C45.141,65.285 44.536,65.036 44.135,64.715 C43.734,64.394 43.572,63.964 43.65,63.426 C43.733,62.827 44.044,62.33 44.584,61.936 C45.124,61.541 45.787,61.343 46.573,61.343 C47.336,61.343 47.943,61.563 48.395,62.001 C48.846,62.439 49.022,62.942 48.922,63.511 L48.909,63.55 L47.679,63.55 C47.7243468,63.2435248 47.6202578,62.9338602 47.399,62.717 C47.169,62.474 46.849,62.352 46.436,62.352 C46.002,62.352 45.654,62.455 45.391,62.662 C45.129,62.867 44.978,63.109 44.939,63.387 C44.899,63.673 44.965,63.89 45.134,64.037 C45.304,64.185 45.685,64.322 46.28,64.447 C47.117,64.63 47.736,64.888 48.135,65.222 C48.534,65.557 48.697,65.992 48.623,66.531 C48.532,67.177 48.208,67.692 47.653,68.076 C47.098,68.461 46.408,68.653 45.583,68.653 C44.724,68.653 44.059,68.423 43.588,67.963 C43.118,67.503 42.936,66.973 43.045,66.374 L43.058,66.335 L44.288,66.335 C44.249,66.791 44.373,67.124 44.659,67.335 C44.945,67.545 45.301,67.65 45.726,67.65 C46.165,67.65 46.529,67.553 46.82,67.357 C47.11,67.162 47.28,66.917 47.328,66.622 Z M54.461,68.516 L54.533,67.507 C54.2758324,67.8625074 53.9405761,68.1543171 53.553,68.36 C53.1654104,68.5582051 52.7352902,68.6587839 52.3,68.653 C51.558,68.653 51.003,68.404 50.634,67.907 C50.265,67.41 50.159,66.65 50.315,65.626 L50.933,61.473 L52.216,61.473 L51.591,65.639 C51.474,66.416 51.504,66.939 51.682,67.208 C51.86,67.477 52.188,67.611 52.665,67.611 C53.112,67.611 53.5,67.515 53.83,67.321 C54.1647316,67.1229694 54.4426938,66.8419072 54.637,66.505 L55.385,61.473 L56.668,61.473 L55.613,68.516 L54.461,68.516 Z M63.971,65.261 C63.81,66.316 63.444,67.145 62.874,67.748 C62.304,68.351 61.586,68.653 60.723,68.653 C60.302,68.653 59.937,68.575 59.629,68.421 C59.3217898,68.2675611 59.0629365,68.0322399 58.881,67.741 L58.36,71.223 L57.078,71.223 L58.536,61.473 L59.519,61.473 L59.584,62.385 C59.866,62.046 60.191,61.788 60.56,61.61 C60.9466684,61.4281025 61.369729,61.3367871 61.797,61.343 C62.634,61.343 63.25,61.693 63.645,62.394 C64.04,63.095 64.155,64.005 63.99,65.124 L63.97,65.261 L63.971,65.261 Z M62.708,65.125 C62.834,64.296 62.778,63.632 62.538,63.133 C62.3,62.634 61.873,62.385 61.256,62.385 C60.901,62.385 60.578,62.47 60.29,62.642 C60.001,62.813 59.75,63.046 59.538,63.342 L59.03,66.726 C59.152,67.016 59.33,67.243 59.564,67.406 C59.798,67.569 60.104,67.65 60.482,67.65 C61.063,67.65 61.55,67.426 61.943,66.977 C62.336,66.527 62.584,65.956 62.688,65.261 L62.708,65.125 Z M67.954,68.653 C66.982,68.653 66.252,68.325 65.764,67.67 C65.276,67.014 65.11,66.168 65.266,65.131 L65.311,64.845 C65.463,63.795 65.877,62.949 66.551,62.306 C67.226,61.664 67.991,61.343 68.846,61.343 C69.753,61.343 70.406,61.64 70.805,62.235 C71.204,62.829 71.332,63.604 71.189,64.559 L71.091,65.235 L66.535,65.235 C66.435,65.982 66.509,66.571 66.756,67.003 C67.004,67.434 67.453,67.65 68.104,67.65 C68.4989209,67.6533356 68.8915282,67.5894228 69.265,67.461 C69.6014942,67.3473227 69.9155467,67.1757444 70.193,66.954 L70.57,67.787 C70.2450777,68.0520325 69.8775235,68.2599863 69.483,68.402 C69.045,68.569 68.535,68.652 67.953,68.652 L67.954,68.653 Z M68.696,62.352 C68.266,62.352 67.876,62.526 67.528,62.872 C67.178,63.22 66.928,63.658 66.776,64.188 L66.789,64.227 L69.959,64.227 L69.972,64.122 C70.05,63.597 69.989,63.171 69.789,62.843 C69.589,62.516 69.225,62.352 68.696,62.352 Z M76.253,62.606 L75.602,62.566 C75.268,62.566 74.972,62.65 74.717,62.817 C74.4476374,62.9984449 74.2246511,63.2406128 74.066,63.524 L73.317,68.516 L72.035,68.516 L73.089,61.473 L74.235,61.473 L74.209,62.469 C74.4359551,62.1368342 74.7282387,61.8544182 75.068,61.639 C75.4657714,61.3943443 75.9370352,61.2976839 76.399,61.366 C76.488,61.381 76.559,61.397 76.611,61.415 L76.253,62.605 L76.253,62.606 Z M78.088,68.516 L76.806,68.516 L77.86,61.473 L79.142,61.473 L78.088,68.516 Z M79.416,59.67 L78.134,59.67 L78.329,58.362 L79.611,58.362 L79.416,59.67 Z M80.301,64.93 C80.461,63.849 80.871,62.981 81.528,62.326 C82.185,61.671 83.002,61.343 83.978,61.343 C84.916,61.343 85.626,61.683 86.11,62.362 C86.594,63.041 86.76,63.897 86.608,64.93 L86.582,65.073 C86.417,66.162 86.007,67.031 85.352,67.679 C84.697,68.329 83.879,68.653 82.898,68.653 C81.961,68.653 81.25,68.314 80.766,67.637 C80.283,66.96 80.119,66.105 80.275,65.073 L80.301,64.93 Z M81.557,65.073 C81.44,65.845 81.503,66.468 81.746,66.941 C81.989,67.414 82.423,67.651 83.048,67.651 C83.634,67.651 84.128,67.404 84.528,66.911 C84.93,66.419 85.187,65.806 85.3,65.073 L85.326,64.93 C85.439,64.166 85.372,63.545 85.127,63.068 C84.882,62.591 84.449,62.352 83.829,62.352 C83.239,62.352 82.743,62.6 82.342,63.097 C81.94,63.594 81.687,64.205 81.583,64.93 L81.557,65.073 Z M91.854,62.606 L91.204,62.566 C90.869,62.566 90.574,62.65 90.318,62.817 C90.0490019,62.9985648 89.8263668,63.2407233 89.668,63.524 L88.918,68.516 L87.636,68.516 L88.691,61.473 L89.836,61.473 L89.81,62.469 C90.0372466,62.1367338 90.3298778,61.8543107 90.67,61.639 C91.0674943,61.3945775 91.5383617,61.2979257 92,61.366 C92.09,61.381 92.16,61.397 92.212,61.415 L91.854,62.605 L91.854,62.606 Z" id="Shape" fill="#6D6E71" fill-rule="nonzero"></path>
            <g id="Group" transform="translate(269.150000, 61.000000)" fill="#2A3052" fill-rule="nonzero">
                <path d="M5.658,1.218 L5.658,2.075 L1.55,2.075 L1.55,4.985 L5.05,4.985 L5.05,5.865 L1.55,5.865 L1.55,9.59 L0.343,9.59 L0.343,1.218 L5.658,1.218 Z M6.716,3.383 L7.826,3.383 L7.826,9.492 L6.716,9.492 L6.716,3.383 Z M6.731,0.608 L6.731,1.71 L7.862,1.71 L7.862,0.608 L6.731,0.608 Z M9.66,3.44 L10.632,3.44 C10.637,3.634 10.664,3.89 10.714,4.21 C11.68,3.065 13.636,2.858 14.308,4.457 C14.965,3.44 15.614,3.169 16.671,3.345 C18.01,3.568 18.209,5.079 18.274,5.651 C18.246,7.287 18.264,8.726 18.274,9.591 L17.147,9.591 L17.147,5.651 C17.114,5.068 16.918,4.211 15.929,4.211 C14.941,4.211 14.498,5.116 14.498,5.651 L14.498,9.591 L13.378,9.591 L13.378,5.651 C13.378,4.962 12.957,4.072 11.963,4.211 C10.969,4.349 10.886,4.794 10.714,5.028 C10.726,6.418 10.726,7.938 10.714,9.59 L9.66,9.59 L9.66,3.44 Z" id="Shape"></path>
            </g>
            <g id="Group" transform="translate(118.150000, 156.000000)" fill="#FFFFFF" fill-rule="nonzero">
                <path d="M58.677,10.214 L56.185,10.214 L56.185,1.971 L58.677,1.971 L58.677,10.214 Z M58.677,14.551 L56.185,14.551 L56.185,12.336 L58.677,12.336 L58.677,14.551 Z" id="Shape"></path>
                <path d="M24.052,4.739 L26.064,4.739 L26.165,6.204 C26.989,4.975 28.058,4.429 29.372,4.564 C30.132,4.644 31.737,4.893 32.215,7.053 C32.39,7.845 32.353,9.183 32.34,11.001 C32.335,11.708 32.335,12.93 32.34,14.669 L30.132,14.669 L30.132,8.449 C30.132,7.717 29.928,6.901 29.315,6.591 C28.472,6.166 26.885,6.345 26.247,7.415 L26.247,14.669 L24.052,14.669 L24.052,4.739 Z M6.333,9.386 L6.333,7.717 L11.381,7.717 C11.439,10.627 11.439,12.322 11.381,12.805 C10.956,14.079 5.913,16.394 2.658,13.457 C1.688,12.582 1.231,11.612 0.982,10.144 C0.971,8.644 0.944,7.238 0.954,5.908 C1.201,4.278 1.747,3.351 2.187,2.825 C3.787,0.912 6.337,0.5 8.58,1.275 C10.823,2.051 11.115,3.661 11.296,5.237 C10.776,5.237 10.502,5.215 9.1,5.237 C9.242,4.35 8.436,2.637 6.331,2.731 C4.227,2.825 3.234,4.554 3.234,5.995 C3.234,7.435 3.158,6.951 3.234,9.814 C3.329,13.1 7.269,13.982 9.1,12.227 L9.167,9.427 L6.333,9.387 L6.333,9.386 Z M16.22,7.551 C15.543,7.546 14.833,7.546 14.09,7.551 C14.09,6.483 14.854,4.544 17.914,4.544 C20.974,4.544 21.708,6.647 21.791,7.099 C21.874,7.551 21.578,13.897 22.218,14.619 L19.945,14.621 C19.757,13.978 19.663,13.504 19.663,13.196 C19.309,13.629 18.699,14.42 17.762,14.711 C16.824,15.001 14.696,15.157 13.824,13.115 C13.249,11.768 13.616,10.254 14.696,9.56 C16.48,8.414 18.932,8.797 19.663,8.797 C19.758,6.753 19.147,6.277 17.762,6.277 C16.838,6.277 16.324,6.702 16.22,7.551 Z M19.663,10.195 C18.9146472,10.1785503 18.1659671,10.1848866 17.418,10.214 C16.526,10.292 15.731,10.952 15.798,11.892 C15.88,13.012 17.154,13.218 18.151,12.895 C18.988,12.624 19.571,11.923 19.663,11.625 L19.663,10.195 Z M49.258,4.55 C50.356,4.49 51.745,4.878 52.522,5.683 C53.382,6.573 53.996,7.679 53.996,9.505 C53.996,11.123 53.679,12.292 52.929,13.237 C52.081,14.305 50.762,14.793 49.69,14.793 C48.58,14.793 47.375,14.615 46.363,13.661 C45.533,12.88 44.767,11.541 44.843,9.671 C44.928,7.607 45.58,6.429 46.363,5.683 C47.154,4.928 48.083,4.616 49.258,4.551 L49.258,4.55 Z M49.477,6.313 C48.477,6.313 47.122,6.761 47.122,9.566 C47.122,12.37 48.215,13.05 49.477,13.05 C50.739,13.05 51.794,11.933 51.704,9.431 C51.614,6.929 50.477,6.313 49.477,6.313 Z M34.657,0.306 L36.769,0.306 C36.808,3.768 36.827,5.654 36.827,5.966 C37.342,5.165 38.835,4.076 40.428,4.569 C42.956,5.352 42.841,7.001 42.956,8.107 C43.033,8.845 43.033,11 42.956,14.572 L40.766,14.572 C40.825,11.623 40.825,9.528 40.766,8.287 C40.845,6.137 38.171,5.49 36.769,7.412 L36.827,14.572 L34.657,14.572 L34.657,0.306 Z" id="Shape"></path>
            </g>
            <g id="Group" transform="translate(26.150000, 131.000000)" fill="#2A3052" fill-rule="nonzero">
                <path d="M4.383,3.314 L4.477,4.283 C4.86081106,3.61280109 5.57983507,3.20554589 6.352,3.221 C7.039,3.221 7.571,3.408 7.946,3.845 C8.32,4.252 8.508,4.877 8.508,5.72 L8.508,9.782 L7.352,9.782 L7.352,5.752 C7.352,5.189 7.227,4.782 7.008,4.532 C6.789,4.282 6.446,4.189 6.008,4.189 C5.664,4.189 5.383,4.283 5.133,4.439 C4.883,4.595 4.665,4.814 4.508,5.095 L4.508,9.782 L3.352,9.782 L3.352,3.346 L4.383,3.314 Z M0.171,1.15 L1.346,1.15 L1.346,9.833 L0.17,9.833 L0.171,1.15 Z M10.345,3.234 L11.519,3.234 L11.519,9.782 L10.345,9.782 L10.345,3.234 Z M19.895,3.297 L21.05,3.297 L21.05,9.657 L19.895,9.657 L19.895,3.297 Z M19.91,0.408 L19.91,1.555 L21.087,1.555 L21.087,0.408 L19.91,0.408 Z M17.14,5.557 C17.552,5.546 17.937,5.557 18.186,5.557 C18.186,3.72 16.729,3.234 15.557,3.234 C14.387,3.234 12.929,4.297 12.929,6.576 C12.929,8.856 14.207,9.965 15.794,9.908 C17.381,9.85 18.186,8.644 18.186,7.756 C17.722,7.766 17.605,7.766 17.141,7.756 C17.141,8.595 16.386,9.036 15.794,9.036 C14.378,9.036 14.056,7.661 14.056,6.568 C14.056,5.476 14.419,4.126 15.684,4.126 C16.757,4.126 17.141,4.959 17.141,5.557 L17.14,5.557 Z M25.338,3.223 C26.069,3.183 26.994,3.436 27.511,3.961 C28.083,4.541 28.492,5.264 28.492,6.456 C28.492,7.512 28.282,8.275 27.782,8.891 C27.218,9.588 26.339,9.907 25.626,9.907 C24.886,9.907 24.085,9.791 23.411,9.167 C22.859,8.658 22.349,7.784 22.4,6.565 C22.456,5.217 22.89,4.449 23.41,3.961 C23.938,3.469 24.556,3.265 25.338,3.223 Z M25.601,4.104 C24.763,4.104 23.751,4.651 23.751,6.346 C23.751,8.041 24.375,9.049 25.498,9.049 C26.622,9.049 27.358,7.909 27.245,6.346 C27.131,4.783 26.439,4.104 25.601,4.104 Z M10.408,2.292 L11.257,2.292 L12.887,0.752 L11.505,0.752 L10.408,2.292 Z" id="Shape"></path>
            </g>
        </g>
    </g>
</svg>