<svg width="300" height="199" viewBox="0 0 300 199" xmlns="http://www.w3.org/2000/svg"><title>portuguese end out</title><g fill="none" fill-rule="evenodd"><path fill="#F1F2F2" fill-rule="nonzero" d="M0 0h300v199H0z"/><path d="M39.125 55.375V74.75H75.25V55.375H39.125zm0-1H75.25V34h1v20.375h36.125V34h1v20.375H149.5V34h1v20.375h36.125V34h1v20.375h36.125V34h1v20.375h36.125V34h1v20.375H299.5v1h-37.625V74.75H299.5v1h-37.625v19.375H299.5v1h-37.625V115.5H299.5v1h-37.625v19.375H299.5v1h-37.625v19.375H299.5v1h-37.625v19.375H299.5v1h-37.625V199h-1v-21.375H224.75V199h-1v-21.375h-36.125V199h-1v-21.375H150.5V199h-1v-21.375h-36.125V199h-1v-21.375H76.25V199h-1v-21.375H39.125V199h-1v-21.375H1.5v-1h36.625V157.25H1.5v-1h36.625v-19.375H1.5v-1h36.625V116.5H1.5v-1h36.625V96.125H1.5v-1h36.625V75.75H1.5v-1h36.625V55.375H1.5v-1h36.625V34h1v20.375zm221.75 1H224.75V74.75h36.125V55.375zm-37.125 0h-36.125V74.75h36.125V55.375zm-37.125 0H150.5V74.75h36.125V55.375zm-37.125 0h-36.125V74.75H149.5V55.375zm-37.125 0H76.25V74.75h36.125V55.375zM39.125 75.75v19.375H75.25V75.75H39.125zm221.75 0H224.75v19.375h36.125V75.75zm-37.125 0h-36.125v19.375h36.125V75.75zm-37.125 0H150.5v19.375h36.125V75.75zm-37.125 0h-36.125v19.375H149.5V75.75zm-37.125 0H76.25v19.375h36.125V75.75zm-73.25 20.375V115.5H75.25V96.125H39.125zm221.75 0H224.75V115.5h36.125V96.125zm-37.125 0h-36.125V115.5h36.125V96.125zm-37.125 0H150.5V115.5h36.125V96.125zm-37.125 0h-36.125V115.5H149.5V96.125zm-37.125 0H76.25V115.5h36.125V96.125zM39.125 116.5v19.375H75.25V116.5H39.125zm221.75 0H224.75v19.375h36.125V116.5zm-37.125 0h-36.125v19.375h36.125V116.5zm-37.125 0H150.5v19.375h36.125V116.5zm-37.125 0h-36.125v19.375H149.5V116.5zm-37.125 0H76.25v19.375h36.125V116.5zm-73.25 20.375v19.375H75.25v-19.375H39.125zm221.75 0H224.75v19.375h36.125v-19.375zm-37.125 0h-36.125v19.375h36.125v-19.375zm-37.125 0H150.5v19.375h36.125v-19.375zm-37.125 0h-36.125v19.375H149.5v-19.375zm-37.125 0H76.25v19.375h36.125v-19.375zm-73.25 20.375v19.375H75.25V157.25H39.125zm221.75 0H224.75v19.375h36.125V157.25zm-37.125 0h-36.125v19.375h36.125V157.25zm-37.125 0H150.5v19.375h36.125V157.25zm-37.125 0h-36.125v19.375H149.5V157.25zm-37.125 0H76.25v19.375h36.125V157.25z" fill="#DFDEDE" fill-rule="nonzero"/><path stroke="#C2C2C2" stroke-width="2" d="M1 1h298v197H1z"/><path fill="#C2C2C2" fill-rule="nonzero" d="M0 33h300v2H0z"/><g transform="translate(4 34.007)"><path d="M256.613.725V161M.9 41.412h290.625M.9 122.75h290.625" stroke="#2A3052" stroke-width="1.211" stroke-linejoin="round"/><path stroke="#2A3052" stroke-width="3.633" stroke-linecap="round" stroke-linejoin="round" d="M36 82.063l36.787-21.338 33.6 28.05 39.938-27.038 36.75 31.95 73.538-72.637"/><path d="M184.613 113H149.55l-5.4-8.213-5.4 8.213h-35.063a4.747 4.747 0 0 0-4.724 4.8v24.788a4.77 4.77 0 0 0 4.725 4.8h80.962a4.747 4.747 0 0 0 4.725-4.8V117.8a4.777 4.777 0 0 0-4.762-4.8z" fill="#E88024" fill-rule="nonzero"/><ellipse cx="8.363" cy="9.262" rx="8.137" ry="8.475" opacity=".6" transform="translate(248.25 11)" fill="#FFF" fill-rule="nonzero"/><ellipse stroke="#E88024" stroke-width="2.422" cx="256.613" cy="20.262" rx="8.137" ry="8.475"/><ellipse cx="9" cy="9.063" rx="8.137" ry="8.475" opacity=".6" transform="translate(27 73)" fill="#FFF" fill-rule="nonzero"/><ellipse stroke="#E88024" stroke-width="2.422" cx="36" cy="82.063" rx="8.137" ry="8.475"/></g><path d="M22.62 170.613h-3.669l-1.242 2.506h-1.344l4.965-9.73h1.13l1.978 9.73h-1.343l-.475-2.506zm-3.12-1.103h2.906l-.788-4.176-.04-.007-2.079 4.183zm7.61 3.609h-1.316l1.564-10.425h1.316l-1.563 10.425zm4.759-2.132l.04.508.04.007.2-.515 2.426-5.099h1.343l-3.742 7.23h-.996l-1.61-7.23h1.35l.949 5.099zm4.296-1.55c.165-1.11.585-2 1.26-2.673s1.514-1.01 2.516-1.01c.962 0 1.692.35 2.189 1.046.496.698.667 1.576.51 2.637l-.026.147c-.17 1.118-.59 2.01-1.263 2.676-.673.666-1.512.999-2.52.999-.962 0-1.691-.347-2.188-1.042-.496-.695-.665-1.573-.504-2.633l.026-.147zm1.29.147c-.12.793-.056 1.432.194 1.918.25.485.695.728 1.336.728.602 0 1.109-.253 1.52-.759.413-.505.677-1.134.793-1.887l.026-.147c.116-.784.048-1.421-.204-1.912-.251-.49-.696-.735-1.333-.735-.606 0-1.115.255-1.527.766-.412.51-.671 1.137-.778 1.88l-.027.148zm11.066 3.535h-1.316l1.082-7.23h1.317l-1.083 7.23zm1.363-9.082h-1.316l.2-1.343h1.317l-.2 1.343zm2.86 2.887a3.125 3.125 0 0 1 1.033-.865 2.772 2.772 0 0 1 1.286-.304c.753 0 1.316.23 1.688.691.372.461.486 1.164.344 2.109l-.682 4.564h-1.316l.681-4.538c.098-.659.043-1.117-.167-1.373-.21-.256-.577-.384-1.102-.384-.392 0-.744.086-1.056.257a2.334 2.334 0 0 0-.789.712l-.802 5.326h-1.316l1.083-7.23h1.176l-.06 1.035zm6.128 6.195l.936-6.255h-1.13l.148-.976h1.129l.14-.915c.12-.802.41-1.406.869-1.811.459-.406 1.054-.608 1.784-.608.147 0 .299.013.455.04.156.027.32.06.494.1l-.307 1.002a2.959 2.959 0 0 0-.642-.066c-.37 0-.67.117-.899.35-.229.234-.375.565-.437.993l-.14.915h1.31l-.148.976h-1.31l-.935 6.255h-1.317zm6.77.14c-.998 0-1.748-.336-2.249-1.009-.501-.673-.672-1.541-.511-2.606l.047-.294c.156-1.078.58-1.947 1.273-2.606.692-.66 1.478-.99 2.355-.99.931 0 1.602.306 2.012.916.41.61.54 1.406.394 2.386l-.1.695h-4.678c-.103.766-.027 1.37.227 1.814.254.443.715.665 1.383.665.428 0 .826-.065 1.193-.194.368-.13.685-.303.952-.521l.388.855c-.294.25-.666.46-1.116.632-.45.171-.973.257-1.57.257zm.761-6.469c-.44 0-.84.179-1.199.535-.359.356-.616.806-.772 1.35l.014.04H67.7l.013-.107c.08-.539.018-.977-.187-1.313-.205-.336-.579-.505-1.123-.505zm7.759.261l-.668-.04c-.344 0-.646.086-.91.257a2.13 2.13 0 0 0-.668.725l-.768 5.126h-1.316l1.082-7.23h1.176l-.027 1.022c.259-.366.553-.65.883-.852a2.04 2.04 0 0 1 1.366-.281c.091.016.164.032.217.05l-.367 1.223zm1.884 6.068H74.73l1.082-7.23h1.317l-1.083 7.23zm1.363-9.082h-1.316l.2-1.343h1.317l-.2 1.343zm.91 5.4c.164-1.11.584-2 1.259-2.673.675-.673 1.513-1.01 2.516-1.01.962 0 1.692.35 2.188 1.046.497.698.667 1.576.512 2.637l-.027.147c-.17 1.118-.59 2.01-1.263 2.676-.673.666-1.513.999-2.52.999-.962 0-1.691-.347-2.188-1.042-.497-.695-.665-1.573-.504-2.633l.026-.147zm1.289.147c-.12.793-.056 1.432.194 1.918.25.485.695.728 1.336.728.602 0 1.108-.253 1.52-.759.413-.505.677-1.134.792-1.887l.027-.147c.116-.784.048-1.421-.204-1.912-.251-.49-.696-.735-1.333-.735-.606 0-1.115.255-1.527.766-.412.51-.671 1.137-.778 1.88l-.027.148zm10.572-2.533l-.669-.04c-.343 0-.646.086-.908.257a2.13 2.13 0 0 0-.669.725l-.768 5.126h-1.317l1.083-7.23h1.176l-.027 1.022c.259-.366.553-.65.882-.852a2.04 2.04 0 0 1 1.367-.281c.091.016.164.032.217.05l-.367 1.223z" fill="#6D6E71" fill-rule="nonzero"/><path d="M24.723 13.018h-3.11v9.202H19.43v-9.202h-3.065v-1.682h8.358v1.682zm3.873 9.36c-1.207 0-2.148-.37-2.826-1.11-.678-.74-1.017-1.694-1.017-2.86v-.3c0-1.21.329-2.202.987-2.975.658-.772 1.562-1.156 2.714-1.15 1.086 0 1.92.332 2.5.997.58.666.871 1.561.871 2.688v1.129h-4.822l-.022.044c.035.554.203 1.002.504 1.346.302.344.75.516 1.342.516.489 0 .904-.05 1.245-.15.341-.1.694-.251 1.058-.456l.59 1.346c-.324.264-.762.486-1.315.665-.554.18-1.157.27-1.81.27zm-.142-6.714c-.439 0-.777.151-1.013.452-.237.302-.38.702-.43 1.2l.015.038h2.661v-.165c0-.473-.097-.846-.292-1.117-.194-.272-.508-.408-.941-.408zm8.896.344l-.8-.022c-.324 0-.59.067-.8.202a1.28 1.28 0 0 0-.479.568v5.464h-2.175v-8.088h2.026l.097 1.196c.19-.424.435-.754.736-.99.302-.237.65-.356 1.043-.356.11 0 .21.009.303.026.092.018.186.039.28.064l-.231 1.936zm3.162-1.876l.09 1.069c.259-.389.584-.69.975-.901.391-.212.844-.318 1.357-.318.518 0 .962.115 1.33.344.37.23.648.576.838 1.04.249-.434.573-.773.972-1.018.398-.244.867-.366 1.405-.366.798 0 1.427.283 1.888.849.46.565.691 1.429.691 2.59v4.8h-2.183v-4.807c0-.648-.1-1.1-.299-1.354-.2-.254-.496-.38-.89-.38-.308 0-.576.068-.803.205a1.498 1.498 0 0 0-.542.572c0 .094.003.175.008.243.005.067.007.135.007.205v5.315h-2.175v-4.806c0-.633-.1-1.08-.3-1.342-.199-.262-.498-.393-.897-.393-.294 0-.551.056-.773.168-.222.112-.405.27-.55.475v5.898h-2.175v-8.088h2.026zm13.516 8.088h-2.183v-8.088h2.183v8.088zm0-10.025h-2.183v-1.637h2.183v1.637zm3.79 1.937l.097 1.158c.27-.413.6-.735.994-.964a2.58 2.58 0 0 1 1.324-.344c.817 0 1.455.263 1.913.789.459.526.688 1.357.688 2.493v4.956h-2.19v-4.949c0-.578-.101-.988-.303-1.23-.202-.241-.505-.362-.908-.362-.324 0-.61.061-.856.183a1.67 1.67 0 0 0-.61.505v5.853h-2.182v-8.088h2.033zm11.415 8.088a4.591 4.591 0 0 1-.205-.583 4.056 4.056 0 0 1-.124-.628c-.224.394-.52.72-.89.98-.368.259-.807.388-1.315.388-.847 0-1.5-.218-1.959-.654-.458-.436-.687-1.03-.687-1.783 0-.792.305-1.406.915-1.842.61-.437 1.502-.655 2.673-.655h1.226v-.642c0-.39-.102-.69-.307-.905-.204-.214-.508-.322-.912-.322-.353 0-.626.086-.818.258-.192.172-.288.408-.288.707h-2.1l-.016-.045c-.034-.683.263-1.272.894-1.768.63-.496 1.454-.744 2.47-.744.972 0 1.759.244 2.36.733.6.488.9 1.188.9 2.1v3.342c0 .379.029.735.086 1.07.057.333.148.664.273.993h-2.176zm-1.996-1.457a1.86 1.86 0 0 0 1.017-.284c.299-.19.503-.41.613-.658v-1.144h-1.226c-.464 0-.814.115-1.05.344a1.13 1.13 0 0 0-.355.845c0 .274.088.492.265.654.177.162.422.243.736.243zM85.501 18.1c0-1.206.336-2.194 1.01-2.964.672-.77 1.604-1.155 2.795-1.155 1.196 0 2.133.384 2.81 1.151.679.768 1.018 1.757 1.018 2.968v.157c0 1.216-.338 2.207-1.013 2.972-.676.765-1.609 1.147-2.8 1.147-1.196 0-2.132-.382-2.807-1.147-.676-.765-1.013-1.756-1.013-2.972v-.157zm2.175.157c0 .738.13 1.33.389 1.776.26.446.678.669 1.256.669.563 0 .975-.224 1.237-.673.262-.449.393-1.04.393-1.772v-.157c0-.717-.132-1.303-.397-1.757-.264-.453-.68-.68-1.248-.68-.563 0-.976.228-1.237.684-.262.456-.393 1.04-.393 1.753v.157zm11.057-2.25l-.8-.022c-.324 0-.59.067-.8.202a1.28 1.28 0 0 0-.478.568v5.464h-2.176v-8.088h2.026l.097 1.196c.19-.424.435-.754.737-.99.301-.237.649-.356 1.042-.356.11 0 .211.009.303.026.092.018.186.039.28.064l-.231 1.936zm5.906 6.212a4.591 4.591 0 0 1-.206-.583 4.056 4.056 0 0 1-.123-.628c-.225.394-.521.72-.89.98-.369.259-.807.388-1.316.388-.847 0-1.5-.218-1.958-.654-.459-.436-.688-1.03-.688-1.783 0-.792.305-1.406.916-1.842.61-.437 1.501-.655 2.672-.655h1.226v-.642c0-.39-.102-.69-.306-.905-.205-.214-.509-.322-.912-.322-.354 0-.627.086-.819.258-.192.172-.288.408-.288.707h-2.1l-.015-.045c-.035-.683.263-1.272.893-1.768s1.454-.744 2.47-.744c.973 0 1.759.244 2.36.733.6.488.9 1.188.9 2.1v3.342c0 .379.029.735.086 1.07.057.333.148.664.273.993h-2.175zm-1.996-1.457a1.86 1.86 0 0 0 1.016-.284c.3-.19.504-.41.613-.658v-1.144h-1.226c-.463 0-.813.115-1.05.344a1.13 1.13 0 0 0-.355.845c0 .274.088.492.265.654.177.162.423.243.737.243z" fill="#020202" fill-rule="nonzero"/><path d="M19.943 66.075h-3.574l-1.21 2.44H13.85l4.836-9.476h1.1l1.927 9.477h-1.308l-.462-2.441zm-3.04-1.074h2.831l-.768-4.068-.039-.006L16.903 65zm7.413 3.515h-1.282l1.523-10.154h1.283l-1.524 10.154zm4.635-2.076l.039.494.039.007.195-.501 2.363-4.967h1.308l-3.645 7.043h-.97l-1.568-7.043h1.314l.925 4.967zm4.185-1.51c.16-1.081.57-1.949 1.227-2.604.657-.655 1.474-.983 2.45-.983.938 0 1.648.34 2.132 1.019.484.679.65 1.535.498 2.568l-.026.143c-.165 1.089-.575 1.958-1.23 2.606-.656.65-1.473.974-2.454.974-.937 0-1.648-.339-2.132-1.016-.484-.677-.647-1.532-.491-2.564l.026-.143zm1.256.143c-.117.772-.054 1.395.189 1.868.243.473.677.71 1.302.71.585 0 1.079-.247 1.48-.74.402-.492.659-1.105.772-1.838l.026-.143c.112-.764.046-1.385-.199-1.862-.245-.477-.678-.716-1.298-.716-.59 0-1.086.248-1.488.745-.401.497-.654 1.108-.758 1.833l-.026.143zm13.786 1.549c.039-.29-.035-.523-.222-.697-.186-.173-.572-.327-1.158-.462-.807-.178-1.412-.427-1.813-.748s-.563-.751-.485-1.289c.083-.599.394-1.096.934-1.49.54-.395 1.203-.593 1.989-.593.763 0 1.37.22 1.822.658.451.438.627.941.527 1.51l-.013.039h-1.23a.968.968 0 0 0-.28-.833c-.23-.243-.55-.365-.963-.365-.434 0-.782.103-1.045.31-.262.205-.413.447-.452.725-.04.286.026.503.195.65.17.148.551.285 1.146.41.837.183 1.456.441 1.855.775.399.335.562.77.488 1.309-.091.646-.415 1.161-.97 1.545-.555.385-1.245.577-2.07.577-.859 0-1.524-.23-1.995-.69-.47-.46-.652-.99-.543-1.589l.013-.039h1.23c-.039.456.085.789.371 1 .286.21.642.315 1.067.315.439 0 .803-.097 1.094-.293.29-.195.46-.44.508-.735zm7.133 1.894l.072-1.009a2.87 2.87 0 0 1-.98.853 2.674 2.674 0 0 1-1.253.293c-.742 0-1.297-.249-1.666-.746s-.475-1.257-.319-2.281l.618-4.153h1.283l-.625 4.166c-.117.777-.087 1.3.091 1.569.178.269.506.403.983.403.447 0 .835-.096 1.165-.29a2.26 2.26 0 0 0 .807-.816l.748-5.032h1.283l-1.055 7.043h-1.152zm9.51-3.255c-.161 1.055-.527 1.884-1.097 2.487-.57.603-1.288.905-2.151.905-.421 0-.786-.078-1.094-.232a1.864 1.864 0 0 1-.748-.68l-.521 3.482h-1.282l1.458-9.75h.983l.065.912c.282-.339.607-.597.976-.775a2.81 2.81 0 0 1 1.237-.267c.837 0 1.453.35 1.848 1.051s.51 1.611.345 2.73l-.02.137zm-1.263-.136c.126-.829.07-1.493-.17-1.992-.238-.499-.665-.748-1.282-.748-.355 0-.678.085-.966.257-.289.171-.54.404-.752.7l-.508 3.384c.122.29.3.517.534.68.234.163.54.244.918.244.581 0 1.068-.224 1.461-.673.393-.45.641-1.021.745-1.716l.02-.136zm5.246 3.528c-.972 0-1.702-.328-2.19-.983-.488-.656-.654-1.502-.498-2.539l.045-.286c.152-1.05.566-1.896 1.24-2.539.675-.642 1.44-.963 2.295-.963.907 0 1.56.297 1.959.892.399.594.527 1.369.384 2.324l-.098.676h-4.556c-.1.747-.026 1.336.221 1.768.248.431.697.647 1.348.647a3.48 3.48 0 0 0 1.161-.189 3.05 3.05 0 0 0 .928-.507l.377.833a3.705 3.705 0 0 1-1.087.615c-.438.167-.948.25-1.53.25zm.742-6.301c-.43 0-.82.174-1.168.52-.35.348-.6.786-.752 1.316l.013.039h3.17l.013-.105c.078-.525.017-.951-.183-1.279-.2-.327-.564-.491-1.093-.491zm7.557.254l-.651-.04c-.334 0-.63.084-.885.251a2.074 2.074 0 0 0-.651.707l-.749 4.992h-1.282l1.054-7.043h1.146l-.026.996a2.96 2.96 0 0 1 .859-.83 1.986 1.986 0 0 1 1.331-.273c.089.015.16.031.212.049l-.358 1.19zm1.835 5.91h-1.282l1.054-7.043h1.282l-1.054 7.043zm1.328-8.846h-1.282l.195-1.308h1.282l-.195 1.308zm.885 5.26c.16-1.081.57-1.949 1.227-2.604.657-.655 1.474-.983 2.45-.983.938 0 1.648.34 2.132 1.019.484.679.65 1.535.498 2.568l-.026.143c-.165 1.089-.575 1.958-1.23 2.606-.655.65-1.473.974-2.454.974-.937 0-1.648-.339-2.132-1.016-.483-.677-.647-1.532-.491-2.564l.026-.143zm1.256.143c-.117.772-.054 1.395.189 1.868.243.473.677.71 1.302.71.586 0 1.08-.247 1.48-.74.402-.492.659-1.105.772-1.838l.026-.143c.113-.764.046-1.385-.199-1.862-.245-.477-.678-.716-1.298-.716-.59 0-1.086.248-1.487.745-.402.497-.655 1.108-.759 1.833l-.026.143zm10.297-2.467l-.65-.04c-.335 0-.63.084-.886.251a2.074 2.074 0 0 0-.65.707l-.75 4.992h-1.282l1.055-7.043h1.145l-.026.996a2.96 2.96 0 0 1 .86-.83 1.986 1.986 0 0 1 1.33-.273c.09.015.16.031.212.049l-.358 1.19z" fill="#6D6E71" fill-rule="nonzero"/><g fill="#2A3052" fill-rule="nonzero"><path d="M275.658 62.218v.857h-4.108v2.91h3.5v.88h-3.5v3.725h-1.207v-8.372zM276.716 64.383h1.11v6.109h-1.11zM276.731 61.608v1.102h1.131v-1.102zM279.66 64.44h.972c.005.194.032.45.082.77.966-1.145 2.922-1.352 3.594.247.657-1.017 1.306-1.288 2.363-1.112 1.339.223 1.538 1.734 1.603 2.306-.028 1.636-.01 3.075 0 3.94h-1.127v-3.94c-.033-.583-.229-1.44-1.218-1.44-.988 0-1.431.905-1.431 1.44v3.94h-1.12v-3.94c0-.689-.421-1.579-1.415-1.44-.994.138-1.077.583-1.249.817.012 1.39.012 2.91 0 4.562h-1.054v-6.15z"/></g><g fill="#FFF" fill-rule="nonzero"><path d="M177.677 166.214h-2.492v-8.243h2.492zM177.677 170.551h-2.492v-2.215h2.492z"/><g><path d="M143.052 160.739h2.012l.101 1.465c.824-1.229 1.893-1.775 3.207-1.64.76.08 2.365.329 2.843 2.489.175.792.138 2.13.125 3.948-.005.707-.005 1.929 0 3.668h-2.208v-6.22c0-.732-.204-1.548-.817-1.858-.843-.425-2.43-.246-3.068.824v7.254h-2.195v-9.93zM125.333 165.386v-1.669h5.048c.058 2.91.058 4.605 0 5.088-.425 1.274-5.468 3.589-8.723.652-.97-.875-1.427-1.845-1.676-3.313-.011-1.5-.038-2.906-.028-4.236.247-1.63.793-2.557 1.233-3.083 1.6-1.913 4.15-2.325 6.393-1.55 2.243.776 2.535 2.386 2.716 3.962-.52 0-.794-.022-2.196 0 .142-.887-.664-2.6-2.769-2.506-2.104.094-3.097 1.823-3.097 3.264 0 1.44-.076.956 0 3.819.095 3.286 4.035 4.168 5.866 2.413l.067-2.8-2.834-.04zM135.22 163.551c-.677-.005-1.387-.005-2.13 0 0-1.068.764-3.007 3.824-3.007 3.06 0 3.794 2.103 3.877 2.555.083.452-.213 6.798.427 7.52l-2.273.002c-.188-.643-.282-1.117-.282-1.425-.354.433-.964 1.224-1.901 1.515-.938.29-3.066.446-3.938-1.596-.575-1.347-.208-2.861.872-3.555 1.784-1.146 4.236-.763 4.967-.763.095-2.044-.516-2.52-1.901-2.52-.924 0-1.438.425-1.542 1.274zm3.443 2.644a36.882 36.882 0 0 0-2.245.019c-.892.078-1.687.738-1.62 1.678.082 1.12 1.356 1.326 2.353 1.003.837-.271 1.42-.972 1.512-1.27v-1.43zM168.258 160.55c1.098-.06 2.487.328 3.264 1.133.86.89 1.474 1.996 1.474 3.822 0 1.618-.317 2.787-1.067 3.732-.848 1.068-2.167 1.556-3.239 1.556-1.11 0-2.315-.178-3.327-1.132-.83-.781-1.596-2.12-1.52-3.99.085-2.064.737-3.242 1.52-3.988.791-.755 1.72-1.067 2.895-1.132zm.219 1.763c-1 0-2.355.448-2.355 3.253 0 2.804 1.093 3.484 2.355 3.484s2.317-1.117 2.227-3.619c-.09-2.502-1.227-3.118-2.227-3.118zM153.657 156.306h2.112c.039 3.462.058 5.348.058 5.66.515-.801 2.008-1.89 3.601-1.397 2.528.783 2.413 2.432 2.528 3.538.077.738.077 2.893 0 6.465h-2.19c.059-2.949.059-5.044 0-6.285.079-2.15-2.595-2.797-3.997-.875l.058 7.16h-2.17v-14.266z"/></g></g><g fill="#2A3052" fill-rule="nonzero"><path d="M31.383 134.314l.094.969a2.112 2.112 0 0 1 1.875-1.062c.687 0 1.219.187 1.594.624.374.407.562 1.032.562 1.875v4.062h-1.156v-4.03c0-.563-.125-.97-.344-1.22-.219-.25-.562-.343-1-.343-.344 0-.625.094-.875.25s-.468.375-.625.656v4.687h-1.156v-6.436l1.031-.032zM27.171 132.15h1.175v8.683H27.17zM37.345 134.234h1.174v6.548h-1.174zM46.895 134.297h1.155v6.36h-1.155zM46.91 131.408v1.147h1.177v-1.147zM44.14 136.557c.412-.011.797 0 1.046 0 0-1.837-1.457-2.323-2.629-2.323-1.17 0-2.628 1.063-2.628 3.342 0 2.28 1.278 3.389 2.865 3.332 1.587-.058 2.392-1.264 2.392-2.152-.464.01-.581.01-1.045 0 0 .839-.755 1.28-1.347 1.28-1.416 0-1.738-1.375-1.738-2.468 0-1.092.363-2.442 1.628-2.442 1.073 0 1.457.833 1.457 1.431zM52.338 134.223c.731-.04 1.656.213 2.173.738.572.58.981 1.303.981 2.495 0 1.056-.21 1.819-.71 2.435-.564.697-1.443 1.016-2.156 1.016-.74 0-1.541-.116-2.215-.74-.552-.509-1.062-1.383-1.011-2.602.056-1.348.49-2.116 1.01-2.604.528-.492 1.146-.696 1.928-.738zm.263.881c-.838 0-1.85.547-1.85 2.242 0 1.695.624 2.703 1.747 2.703 1.124 0 1.86-1.14 1.747-2.703-.114-1.563-.806-2.242-1.644-2.242zM37.408 133.292h.849l1.63-1.54h-1.382z"/></g><path fill="#000" d="M84.442 17.702h-4.094v4.431h-2.139V11.47h6.98v1.648h-4.841v2.937h4.094z"/></g></svg>