<?xml version="1.0" encoding="UTF-8"?>
<svg width="299px" height="197px" viewBox="0 0 299 197" version="1.1" xmlns="http://www.w3.org/2000/svg" xmlns:xlink="http://www.w3.org/1999/xlink">
    <!-- Generator: Sketch 52.6 (67491) - http://www.bohemiancoding.com/sketch -->
    <title>goes outside</title>
    <desc>Created with Sketch.</desc>
    <g id="Page-1" stroke="none" stroke-width="1" fill="none" fill-rule="evenodd">
        <g id="goes-outside">
            <g id="Group">
                <polygon id="Path" fill="#F1F2F2" points="0 0 299 0 299 197 0 197"></polygon>
                <path d="M1.98671096,1.9798995 L1.98671096,195.020101 L297.013289,195.020101 L297.013289,1.9798995 L1.98671096,1.9798995 Z M299,0 L299,197 L0,197 L0,0 L299,0 Z" id="Path" fill="#C2C2C2" fill-rule="nonzero"></path>
                <g id="Group-4" transform="translate(2.000000, 32.000000)">
                    <path d="M2.887,23.4456836 L2.887,22.2388448 L292.54325,22.2388448 L292.54325,23.4456836 L2.887,23.4456836 Z M2.887,63.9796458 L2.887,62.772807 L292.54325,62.772807 L292.54325,63.9796458 L2.887,63.9796458 Z M2.887,104.513608 L2.887,103.30677 L292.54325,103.30677 L292.54325,104.513608 L2.887,104.513608 Z M2.887,145.010211 L2.887,143.803373 L292.54325,143.803373 L292.54325,145.010211 L2.887,145.010211 Z M37.2665806,2.59396226 L38.4734194,2.59396226 L38.4734194,162.264151 L37.2665806,162.264151 L37.2665806,2.59396226 Z M73.9314556,2.59396226 L75.1382944,2.59396226 L75.1382944,162.264151 L73.9314556,162.264151 L73.9314556,2.59396226 Z M110.558956,2.59396226 L111.765794,2.59396226 L111.765794,162.264151 L110.558956,162.264151 L110.558956,2.59396226 Z M147.223831,2.59396226 L148.430669,2.59396226 L148.430669,162.264151 L147.223831,162.264151 L147.223831,2.59396226 Z M183.851331,2.59396226 L185.058169,2.59396226 L185.058169,162.264151 L183.851331,162.264151 L183.851331,2.59396226 Z M220.478831,2.59396226 L221.685669,2.59396226 L221.685669,162.264151 L220.478831,162.264151 L220.478831,2.59396226 Z M2.887,84.2279477 L2.887,83.0211089 L292.54325,83.0211089 L292.54325,84.2279477 L2.887,84.2279477 Z" id="Shape" fill="#DFDEDE" fill-rule="nonzero"></path>
                    <path d="M257.143706,2.59396226 L258.350544,2.59396226 L258.350544,162.264151 L257.143706,162.264151 L257.143706,2.59396226 Z M2.887,43.7313439 L2.887,42.5245051 L292.54325,42.5245051 L292.54325,43.7313439 L2.887,43.7313439 Z M2.887,124.76191 L2.887,123.555072 L292.54325,123.555072 L292.54325,124.76191 L2.887,124.76191 Z" id="Shape" fill="#2A3052" fill-rule="nonzero"></path>
                    <polygon id="Path" fill="#C2C2C2" fill-rule="nonzero" points="0.794 2.60551619 0.794 0.191464945 294.63625 0.191464945 294.63625 2.60551619"></polygon>
                    <path d="M38.7780566,85.19078 C37.9130397,85.6922858 36.8052541,85.3976018 36.3037483,84.5325849 C35.8022425,83.667568 36.0969265,82.5597824 36.9619434,82.0582766 L73.6268184,60.8012955 C74.2847374,60.4198577 75.110905,60.4902479 75.6948117,60.9774903 L108.13667,88.0486852 L146.812609,61.8768219 C147.491995,61.4170836 148.395598,61.4715961 149.014788,62.0096747 L184.128007,92.5231925 L219.601392,42.0864018 C220.176609,41.2685463 221.305917,41.071849 222.123773,41.6470661 C222.941628,42.2222832 223.138325,43.3515916 222.563108,44.1694472 L185.935608,96.2471831 C185.318256,97.1249473 184.077222,97.2761138 183.267212,96.5722121 L147.68976,65.655274 L109.037516,91.8111026 C108.369276,92.2632987 107.482446,92.2187049 106.862938,91.701755 L74.3473092,64.5690015 L38.7780566,85.19078 Z" id="Path" fill="#2A3052" fill-rule="nonzero"></path>
                    <path d="M185.987125,114.445283 L151.0415,114.445283 L145.6595,106.263774 L140.2775,114.445283 L105.331875,114.445283 C104.07173,114.451176 102.865994,114.959272 101.98197,115.856931 C101.097947,116.754589 100.608676,117.967645 100.622625,119.22717 L100.622625,143.921132 C100.606032,146.539822 102.712091,148.678366 105.331875,148.703019 L186.0245,148.703019 C187.284645,148.697126 188.490381,148.18903 189.374405,147.291371 C190.258428,146.393713 190.747699,145.180657 190.73375,143.921132 L190.73375,119.22717 C190.73971,117.963586 190.242729,116.749496 189.352348,115.8525 C188.461966,114.955504 187.251275,114.449236 185.987125,114.445283 Z" id="Path" fill="#E88024"></path>
                    <g id="Group" opacity="0.6" transform="translate(212.037500, 34.509434)" fill="#FFFFFF">
                        <ellipse id="Oval" cx="9.04475" cy="8.6184906" rx="8.110375" ry="8.44301887"></ellipse>
                    </g>
                    <path d="M221.08225,52.777969 C215.925296,52.777969 211.764849,48.4468836 211.764849,43.1279245 C211.764849,37.8089654 215.925296,33.47788 221.08225,33.47788 C226.239204,33.47788 230.399651,37.8089654 230.399651,43.1279245 C230.399651,48.4468836 226.239204,52.777969 221.08225,52.777969 Z M221.08225,50.3639177 C224.883769,50.3639177 227.985599,47.1348665 227.985599,43.1279245 C227.985599,39.1209825 224.883769,35.8919313 221.08225,35.8919313 C217.280731,35.8919313 214.178901,39.1209825 214.178901,43.1279245 C214.178901,47.1348665 217.280731,50.3639177 221.08225,50.3639177 Z" id="Oval" fill="#E88024" fill-rule="nonzero"></path>
                    <g id="Group" opacity="0.6" transform="translate(28.900000, 74.603774)" fill="#FFFFFF">
                        <ellipse id="Oval" cx="8.97" cy="9.0207547" rx="8.110375" ry="8.44301887"></ellipse>
                    </g>
                    <path d="M37.87,93.2745728 C32.7130457,93.2745728 28.5525994,88.9434874 28.5525994,83.6245283 C28.5525994,78.3055692 32.7130457,73.9744838 37.87,73.9744838 C43.0269543,73.9744838 47.1874006,78.3055692 47.1874006,83.6245283 C47.1874006,88.9434874 43.0269543,93.2745728 37.87,93.2745728 Z M37.87,90.8605215 C41.6715185,90.8605215 44.7733494,87.6314703 44.7733494,83.6245283 C44.7733494,79.6175863 41.6715185,76.3885351 37.87,76.3885351 C34.0684815,76.3885351 30.9666506,79.6175863 30.9666506,83.6245283 C30.9666506,87.6314703 34.0684815,90.8605215 37.87,90.8605215 Z" id="Oval" fill="#E88024" fill-rule="nonzero"></path>
                </g>
            </g>
            <path d="M20.958,19.02 C20.958,18.628 20.822,18.313 20.548,18.075 C20.276,17.837 19.796,17.613 19.11,17.403 C17.934,17.048 17.042,16.631 16.433,16.15 C15.824,15.67 15.52,15.014 15.52,14.183 C15.52,13.348 15.862,12.665 16.548,12.136 C17.234,11.606 18.109,11.341 19.173,11.341 C20.303,11.341 21.211,11.626 21.9,12.195 C22.588,12.765 22.92,13.511 22.897,14.435 L22.883,14.477 L20.903,14.477 C20.903,13.968 20.748,13.577 20.44,13.305 C20.132,13.032 19.7,12.895 19.145,12.895 C18.641,12.895 18.252,13.016 17.976,13.259 C17.7051888,13.4913278 17.5534803,13.8333148 17.563,14.19 C17.563,14.535 17.713,14.819 18.011,15.04 C18.31,15.262 18.826,15.497 19.558,15.744 C20.678,16.061 21.532,16.475 22.12,16.986 C22.708,17.497 23.002,18.171 23.002,19.006 C23.002,19.878 22.662,20.566 21.98,21.071 C21.299,21.575 20.398,21.827 19.278,21.827 C18.182,21.827 17.24,21.554 16.454,21.007 C15.668,20.462 15.286,19.647 15.31,18.565 L15.324,18.523 L17.304,18.523 C17.304,19.125 17.482,19.568 17.836,19.853 C18.191,20.137 18.672,20.28 19.278,20.28 C19.824,20.28 20.241,20.165 20.528,19.937 C20.815,19.708 20.958,19.402 20.958,19.02 Z M28.818,21.68 C28.7418074,21.5025197 28.6776621,21.3201064 28.626,21.134 C28.5722427,20.9413341 28.5337898,20.7447225 28.511,20.546 C28.301,20.914 28.023,21.22 27.678,21.463 C27.333,21.705 26.922,21.827 26.446,21.827 C25.653,21.827 25.041,21.623 24.612,21.214 C24.182,20.806 23.968,20.249 23.968,19.544 C23.968,18.803 24.254,18.228 24.825,17.819 C25.397,17.411 26.231,17.207 27.328,17.207 L28.476,17.207 L28.476,16.605 C28.476,16.241 28.38,15.959 28.189,15.758 C27.997,15.558 27.713,15.457 27.335,15.457 C27.004,15.457 26.748,15.537 26.568,15.698 C26.388,15.859 26.298,16.08 26.298,16.36 L24.332,16.36 L24.318,16.318 C24.285,15.678 24.564,15.127 25.154,14.663 C25.744,14.198 26.516,13.966 27.468,13.966 C28.378,13.966 29.114,14.195 29.676,14.652 C30.239,15.109 30.52,15.765 30.52,16.619 L30.52,19.748 C30.52,20.102 30.547,20.436 30.6,20.748 C30.654,21.061 30.739,21.372 30.856,21.68 L28.819,21.68 L28.818,21.68 Z M26.95,20.315 C27.305,20.315 27.622,20.226 27.902,20.049 C28.182,19.871 28.373,19.666 28.476,19.433 L28.476,18.362 L27.328,18.362 C26.894,18.362 26.566,18.469 26.344,18.684 C26.12687,18.8887254 26.0062979,19.1756287 26.012,19.474 C26.012,19.731 26.095,19.936 26.26,20.087 C26.426,20.239 26.656,20.315 26.95,20.315 Z M34.2,21.68 L32.157,21.68 L32.157,14.106 L34.2,14.106 L34.2,21.68 Z M34.2,12.293 L32.157,12.293 L32.157,10.76 L34.2,10.76 L34.2,12.293 Z M46.133,17.823 C46.133,16.693 46.448,15.768 47.078,15.048 C47.708,14.327 48.58,13.966 49.696,13.966 C50.816,13.966 51.693,14.326 52.328,15.044 C52.962,15.763 53.28,16.689 53.28,17.823 L53.28,17.97 C53.28,19.108 52.963,20.036 52.331,20.752 C51.699,21.469 50.825,21.827 49.71,21.827 C48.59,21.827 47.714,21.469 47.081,20.752 C46.449,20.036 46.133,19.108 46.133,17.97 L46.133,17.823 Z M48.17,17.97 C48.17,18.66 48.291,19.215 48.534,19.632 C48.776,20.05 49.168,20.259 49.71,20.259 C50.237,20.259 50.623,20.049 50.868,19.629 C51.113,19.209 51.236,18.656 51.236,17.969 L51.236,17.823 C51.236,17.151 51.112,16.603 50.865,16.178 C50.617,15.753 50.228,15.541 49.695,15.541 C49.168,15.541 48.782,15.754 48.537,16.181 C48.292,16.608 48.17,17.156 48.17,17.823 L48.17,17.97 Z M58.522,15.863 L57.773,15.842 C57.47,15.842 57.22,15.905 57.024,16.031 C56.8253438,16.1601296 56.6694391,16.3452665 56.576,16.563 L56.576,21.68 L54.54,21.68 L54.54,14.106 L56.437,14.106 L56.528,15.226 C56.706,14.829 56.935,14.52 57.218,14.299 C57.5,14.077 57.826,13.966 58.194,13.966 C58.297,13.966 58.391,13.974 58.478,13.991 C58.564,14.007 58.652,14.027 58.74,14.051 L58.523,15.863 L58.522,15.863 Z M64.052,21.68 C63.9754675,21.5025449 63.9109879,21.3201311 63.859,21.134 C63.8052427,20.9413341 63.7667898,20.7447225 63.744,20.546 C63.534,20.914 63.256,21.22 62.911,21.463 C62.566,21.705 62.155,21.827 61.679,21.827 C60.886,21.827 60.274,21.623 59.845,21.214 C59.415,20.806 59.201,20.249 59.201,19.544 C59.201,18.803 59.487,18.228 60.059,17.819 C60.63,17.411 61.464,17.207 62.561,17.207 L63.709,17.207 L63.709,16.605 C63.709,16.241 63.613,15.959 63.422,15.758 C63.231,15.558 62.946,15.457 62.568,15.457 C62.237,15.457 61.981,15.537 61.802,15.698 C61.622,15.859 61.532,16.08 61.532,16.36 L59.565,16.36 L59.551,16.318 C59.519,15.678 59.797,15.127 60.388,14.663 C60.978,14.198 61.749,13.966 62.701,13.966 C63.611,13.966 64.347,14.195 64.909,14.652 C65.472,15.109 65.753,15.765 65.753,16.619 L65.753,19.748 C65.753,20.102 65.78,20.436 65.833,20.748 C65.887,21.061 65.973,21.372 66.089,21.68 L64.052,21.68 Z M62.183,20.315 C62.538,20.315 62.855,20.226 63.135,20.049 C63.415,19.871 63.606,19.666 63.709,19.433 L63.709,18.362 L62.561,18.362 C62.127,18.362 61.799,18.469 61.578,18.684 C61.3605013,18.8885494 61.2395563,19.1754761 61.245,19.474 C61.245,19.731 61.328,19.936 61.494,20.087 C61.659,20.239 61.889,20.315 62.183,20.315 Z" id="Shape" fill="#020202" fill-rule="nonzero"></path>
            <path d="M177.677,164.484 L175.185,164.484 L175.185,156.241 L177.677,156.241 L177.677,164.484 Z M177.677,168.821 L175.185,168.821 L175.185,166.607 L177.677,166.607 L177.677,168.821 Z" id="Shape" fill="#FFFFFF" fill-rule="nonzero"></path>
            <path d="M143.052,159.009 L145.064,159.009 L145.165,160.474 C145.989,159.245 147.058,158.699 148.372,158.834 C149.132,158.914 150.737,159.163 151.215,161.323 C151.39,162.115 151.353,163.453 151.34,165.272 C151.335,165.978 151.335,167.2 151.34,168.939 L149.132,168.939 L149.132,162.719 C149.132,161.987 148.928,161.171 148.315,160.862 C147.472,160.437 145.885,160.615 145.247,161.686 L145.247,168.939 L143.052,168.939 L143.052,159.009 Z M125.333,163.656 L125.333,161.988 L130.381,161.988 C130.439,164.897 130.439,166.592 130.381,167.075 C129.956,168.349 124.913,170.665 121.658,167.727 C120.688,166.852 120.231,165.883 119.982,164.414 C119.971,162.915 119.944,161.508 119.954,160.178 C120.201,158.548 120.747,157.621 121.187,157.095 C122.787,155.182 125.337,154.771 127.58,155.545 C129.823,156.321 130.115,157.932 130.296,159.507 C129.776,159.507 129.502,159.485 128.1,159.507 C128.242,158.621 127.436,156.907 125.331,157.001 C123.227,157.095 122.234,158.824 122.234,160.265 C122.234,161.705 122.158,161.222 122.234,164.084 C122.329,167.37 126.269,168.252 128.1,166.497 L128.167,163.698 L125.333,163.656 Z M135.22,161.821 C134.543,161.817 133.833,161.817 133.09,161.821 C133.09,160.753 133.854,158.815 136.914,158.815 C139.974,158.815 140.708,160.917 140.791,161.369 C140.874,161.821 140.578,168.167 141.218,168.889 L138.945,168.891 C138.757,168.249 138.663,167.774 138.663,167.466 C138.309,167.9 137.699,168.69 136.762,168.981 C135.824,169.271 133.696,169.427 132.824,167.385 C132.249,166.038 132.616,164.524 133.696,163.83 C135.48,162.684 137.932,163.067 138.663,163.067 C138.758,161.023 138.147,160.547 136.762,160.547 C135.838,160.547 135.324,160.972 135.22,161.821 Z M138.663,164.465 C137.914647,164.44855 137.165967,164.454887 136.418,164.484 C135.526,164.562 134.731,165.222 134.798,166.162 C134.88,167.282 136.154,167.488 137.151,167.165 C137.988,166.894 138.571,166.193 138.663,165.895 L138.663,164.465 Z M168.258,158.82 C169.356,158.76 170.745,159.148 171.522,159.953 C172.382,160.843 172.996,161.949 172.996,163.776 C172.996,165.393 172.679,166.562 171.929,167.507 C171.081,168.575 169.762,169.063 168.69,169.063 C167.58,169.063 166.375,168.885 165.363,167.931 C164.533,167.15 163.767,165.811 163.843,163.942 C163.928,161.877 164.58,160.699 165.363,159.952 C166.154,159.198 167.083,158.886 168.258,158.821 L168.258,158.82 Z M168.477,160.583 C167.477,160.583 166.122,161.031 166.122,163.836 C166.122,166.641 167.215,167.32 168.477,167.32 C169.739,167.32 170.794,166.204 170.704,163.702 C170.614,161.2 169.477,160.583 168.477,160.583 Z M153.657,154.576 L155.769,154.576 C155.808,158.038 155.827,159.925 155.827,160.236 C156.342,159.435 157.835,158.346 159.428,158.84 C161.956,159.622 161.841,161.271 161.956,162.378 C162.033,163.115 162.033,165.27 161.956,168.842 L159.766,168.842 C159.825,165.893 159.825,163.798 159.766,162.557 C159.845,160.407 157.171,159.76 155.769,161.682 L155.827,168.842 L153.657,168.842 L153.657,154.576 Z" id="Shape" fill="#FFFFFF" fill-rule="nonzero"></path>
            <path d="M27.492,66.164 L24.459,66.164 L23.432,68.234 L22.322,68.234 L26.426,60.193 L27.359,60.193 L28.994,68.235 L27.884,68.235 L27.492,66.164 Z M24.912,65.252 L27.315,65.252 L26.663,61.8 L26.63,61.794 L24.912,65.252 Z M31.204,68.235 L30.116,68.235 L31.408,59.618 L32.496,59.618 L31.204,68.235 Z M35.137,66.473 L35.17,66.893 L35.203,66.898 L35.369,66.473 L37.374,62.258 L38.484,62.258 L35.391,68.235 L34.568,68.235 L33.236,62.258 L34.352,62.258 L35.137,66.473 Z M38.688,65.191 C38.824,64.274 39.172,63.538 39.729,62.982 C40.287,62.426 40.981,62.148 41.809,62.148 C42.604,62.148 43.207,62.436 43.619,63.012 C44.029,63.589 44.169,64.315 44.041,65.192 L44.019,65.312 C43.879,66.237 43.531,66.975 42.975,67.525 C42.419,68.075 41.725,68.351 40.892,68.351 C40.097,68.351 39.494,68.064 39.083,67.489 C38.673,66.915 38.533,66.189 38.666,65.313 L38.688,65.191 Z M39.754,65.313 C39.654,65.968 39.708,66.497 39.914,66.898 C40.121,67.3 40.489,67.5 41.019,67.5 C41.516,67.5 41.935,67.291 42.276,66.873 C42.616,66.455 42.835,65.935 42.93,65.313 L42.952,65.191 C43.048,64.543 42.992,64.017 42.784,63.611 C42.576,63.207 42.209,63.004 41.682,63.004 C41.182,63.004 40.761,63.214 40.42,63.637 C40.08,64.058 39.865,64.577 39.776,65.191 L39.754,65.313 Z M51.454,66.628 C51.486,66.381 51.424,66.184 51.266,66.037 C51.107,65.889 50.779,65.759 50.282,65.644 C49.597,65.494 49.085,65.282 48.744,65.009 C48.404,64.737 48.266,64.372 48.332,63.915 C48.402,63.407 48.667,62.985 49.125,62.651 C49.584,62.315 50.146,62.148 50.813,62.148 C51.461,62.148 51.976,62.334 52.359,62.706 C52.742,63.078 52.891,63.505 52.807,63.987 L52.796,64.02 L51.752,64.02 C51.7904944,63.7598154 51.7020012,63.4969386 51.514,63.313 C51.319,63.107 51.046,63.004 50.697,63.004 C50.328,63.004 50.033,63.092 49.81,63.266 C49.587,63.441 49.46,63.646 49.426,63.882 C49.393,64.125 49.448,64.309 49.592,64.435 C49.735,64.56 50.06,64.675 50.564,64.783 C51.274,64.937 51.799,65.156 52.138,65.44 C52.477,65.724 52.615,66.094 52.553,66.55 C52.475,67.099 52.201,67.536 51.73,67.862 C51.258,68.188 50.673,68.351 49.973,68.351 C49.243,68.351 48.68,68.156 48.28,67.765 C47.88,67.375 47.727,66.925 47.819,66.418 L47.829,66.385 L48.874,66.385 C48.841,66.771 48.946,67.054 49.189,67.232 C49.432,67.411 49.734,67.5 50.095,67.5 C50.466,67.5 50.775,67.417 51.022,67.252 C51.269,67.086 51.412,66.878 51.453,66.628 L51.454,66.628 Z M57.507,68.235 L57.568,67.379 C57.3498348,67.6802864 57.0655684,67.9276084 56.737,68.102 C56.4079141,68.2704394 56.0426555,68.3559181 55.673,68.351 C55.043,68.351 54.573,68.141 54.259,67.718 C53.946,67.297 53.856,66.652 53.989,65.782 L54.513,62.258 L55.602,62.258 L55.072,65.794 C54.972,66.453 54.998,66.896 55.149,67.124 C55.299,67.353 55.578,67.467 55.983,67.467 C56.362,67.467 56.692,67.385 56.971,67.221 C57.251,67.057 57.48,66.826 57.656,66.528 L58.292,62.258 L59.38,62.258 L58.485,68.235 L57.507,68.235 Z M65.577,65.473 C65.441,66.368 65.131,67.071 64.647,67.583 C64.162,68.095 63.554,68.351 62.821,68.351 C62.464,68.351 62.154,68.286 61.893,68.155 C61.632223,68.0248331 61.4124739,67.8251556 61.258,67.578 L60.816,70.533 L59.728,70.533 L60.965,62.258 L61.799,62.258 L61.854,63.032 C62.094,62.744 62.37,62.525 62.683,62.374 C63.0112531,62.2197795 63.3703657,62.1424848 63.733,62.148 C64.443,62.148 64.966,62.445 65.301,63.04 C65.636,63.635 65.734,64.407 65.594,65.357 L65.577,65.473 Z M64.506,65.357 C64.612,64.654 64.565,64.09 64.362,63.667 C64.16,63.243 63.797,63.032 63.274,63.032 C62.972,63.032 62.699,63.104 62.454,63.25 C62.202465,63.4016443 61.9852018,63.6039238 61.816,63.844 L61.385,66.716 C61.488,66.963 61.639,67.156 61.838,67.293 C62.037,67.431 62.296,67.5 62.617,67.5 C63.11,67.5 63.523,67.31 63.857,66.929 C64.19,66.547 64.401,66.062 64.489,65.473 L64.506,65.357 Z M68.958,68.351 C68.133,68.351 67.513,68.073 67.099,67.517 C66.685,66.961 66.544,66.243 66.676,65.363 L66.716,65.12 C66.844,64.228 67.195,63.51 67.767,62.965 C68.34,62.42 68.989,62.148 69.714,62.148 C70.484,62.148 71.038,62.4 71.377,62.905 C71.716,63.409 71.824,64.066 71.703,64.877 L71.62,65.451 L67.754,65.451 C67.669,66.084 67.731,66.584 67.941,66.951 C68.151,67.317 68.532,67.501 69.085,67.501 C69.438,67.501 69.767,67.447 70.071,67.341 C70.375,67.233 70.637,67.09 70.858,66.909 L71.178,67.616 C70.935,67.823 70.628,67.996 70.256,68.138 C69.884,68.28 69.451,68.351 68.958,68.351 Z M69.588,63.004 C69.223,63.004 68.892,63.151 68.596,63.446 C68.299,63.741 68.086,64.112 67.958,64.562 L67.969,64.595 L70.659,64.595 L70.67,64.506 C70.736,64.061 70.685,63.699 70.515,63.421 C70.346,63.143 70.037,63.004 69.587,63.004 L69.588,63.004 Z M76,63.22 L75.448,63.187 C75.164,63.187 74.914,63.258 74.697,63.4 C74.4682097,63.5539182 74.278786,63.7594412 74.144,64 L73.509,68.236 L72.421,68.236 L73.316,62.259 L74.288,62.259 L74.266,63.104 C74.48,62.803 74.723,62.568 74.996,62.4 C75.3333936,62.1924384 75.7330979,62.1103025 76.125,62.168 C76.2,62.181 76.26,62.195 76.305,62.21 L76,63.219 L76,63.22 Z M77.558,68.236 L76.47,68.236 L77.365,62.259 L78.453,62.259 L77.558,68.236 Z M78.685,60.729 L77.597,60.729 L77.762,59.619 L78.851,59.619 L78.685,60.729 Z M79.436,65.192 C79.572,64.275 79.919,63.539 80.477,62.983 C81.035,62.427 81.728,62.149 82.557,62.149 C83.352,62.149 83.955,62.437 84.366,63.013 C84.776,63.59 84.917,64.316 84.788,65.193 L84.766,65.313 C84.626,66.238 84.278,66.976 83.722,67.526 C83.166,68.076 82.472,68.352 81.64,68.352 C80.845,68.352 80.242,68.065 79.831,67.49 C79.421,66.916 79.281,66.19 79.414,65.314 L79.436,65.192 Z M80.502,65.314 C80.402,65.969 80.456,66.498 80.662,66.899 C80.869,67.301 81.237,67.501 81.767,67.501 C82.264,67.501 82.683,67.292 83.024,66.874 C83.364,66.456 83.582,65.936 83.678,65.314 L83.7,65.192 C83.796,64.544 83.74,64.018 83.532,63.612 C83.324,63.208 82.956,63.005 82.43,63.005 C81.929,63.005 81.508,63.215 81.168,63.638 C80.828,64.059 80.613,64.578 80.524,65.192 L80.502,65.314 Z M89.24,63.22 L88.688,63.187 C88.405,63.187 88.154,63.258 87.937,63.4 C87.7085742,63.5540381 87.5195017,63.7595517 87.385,64 L86.749,68.236 L85.661,68.236 L86.556,62.259 L87.528,62.259 L87.506,63.104 C87.72,62.803 87.963,62.568 88.236,62.4 C88.5733936,62.1924384 88.9730979,62.1103025 89.365,62.168 C89.44,62.181 89.5,62.195 89.545,62.21 L89.24,63.22 Z M24.406,168.383 L21.453,168.383 L20.452,170.401 L19.37,170.401 L23.368,162.568 L24.277,162.568 L25.87,170.401 L24.788,170.401 L24.406,168.383 Z M21.894,167.496 L24.234,167.496 L23.599,164.133 L23.567,164.128 L21.894,167.496 Z M28.022,170.401 L26.962,170.401 L28.221,162.008 L29.281,162.008 L28.021,170.401 L28.022,170.401 Z M31.852,168.685 L31.884,169.094 L31.917,169.099 L32.078,168.685 L34.031,164.58 L35.112,164.58 L32.1,170.4 L31.298,170.4 L30.001,164.58 L31.088,164.58 L31.852,168.685 Z M35.312,167.436 C35.444,166.543 35.782,165.826 36.326,165.284 C36.869,164.743 37.544,164.472 38.351,164.472 C39.126,164.472 39.713,164.752 40.113,165.314 C40.513,165.875 40.65,166.583 40.525,167.436 L40.503,167.555 C40.367,168.455 40.028,169.173 39.486,169.71 C38.945,170.246 38.269,170.514 37.458,170.514 C36.683,170.514 36.096,170.234 35.696,169.674 C35.296,169.115 35.161,168.408 35.29,167.554 L35.311,167.436 L35.312,167.436 Z M36.35,167.555 C36.253,168.193 36.305,168.708 36.506,169.099 C36.706,169.489 37.066,169.685 37.582,169.685 C38.066,169.685 38.474,169.482 38.806,169.075 C39.138,168.668 39.35,168.161 39.443,167.555 L39.465,167.436 C39.558,166.806 39.503,166.292 39.301,165.898 C39.098,165.503 38.741,165.306 38.227,165.306 C37.74,165.306 37.33,165.511 36.998,165.922 C36.666,166.332 36.458,166.838 36.371,167.436 L36.35,167.555 Z M45.26,170.401 L44.2,170.401 L45.07,164.58 L46.13,164.58 L45.26,170.4 L45.26,170.401 Z M46.357,163.089 L45.297,163.089 L45.458,162.009 L46.518,162.009 L46.357,163.089 Z M48.659,165.414 C48.896,165.112 49.173,164.88 49.49,164.717 C49.8105176,164.552968 50.1659605,164.468911 50.526,164.472 C51.132,164.472 51.586,164.658 51.885,165.029 C52.184,165.4 52.276,165.966 52.162,166.726 L51.612,170.401 L50.553,170.401 L51.102,166.748 C51.181,166.217 51.136,165.848 50.967,165.642 C50.799,165.436 50.503,165.332 50.08,165.332 C49.764,165.332 49.48,165.402 49.23,165.54 C48.9771198,165.679675 48.7598303,165.875748 48.595,166.113 L47.949,170.401 L46.889,170.401 L47.761,164.58 L48.708,164.58 L48.659,165.414 Z M53.593,170.401 L54.346,165.365 L53.436,165.365 L53.556,164.58 L54.464,164.58 L54.577,163.843 C54.674,163.197 54.907,162.711 55.277,162.385 C55.647,162.058 56.125,161.895 56.713,161.895 C56.831,161.895 56.953,161.905 57.079,161.927 C57.204,161.949 57.337,161.976 57.477,162.008 L57.23,162.815 C57.0601526,162.778194 56.8867872,162.760086 56.713,162.761 C56.415,162.761 56.174,162.855 55.99,163.044 C55.805,163.232 55.687,163.498 55.637,163.843 L55.524,164.58 L56.579,164.58 L56.46,165.365 L55.406,165.365 L54.653,170.401 L53.593,170.401 Z M59.043,170.514 C58.239,170.514 57.636,170.244 57.233,169.701 C56.829,169.16 56.692,168.461 56.821,167.603 L56.858,167.367 C56.984,166.499 57.326,165.799 57.883,165.268 C58.441,164.738 59.073,164.472 59.78,164.472 C60.53,164.472 61.07,164.718 61.4,165.209 C61.73,165.701 61.835,166.341 61.717,167.129 L61.636,167.689 L57.87,167.689 C57.787,168.306 57.848,168.793 58.053,169.15 C58.257,169.507 58.628,169.685 59.166,169.685 C59.511,169.685 59.831,169.633 60.126,169.529 C60.423,169.425 60.678,169.285 60.893,169.109 L61.205,169.799 C60.969,169.999 60.669,170.169 60.307,170.307 C59.945,170.445 59.523,170.514 59.043,170.514 Z M59.656,165.306 C59.301,165.306 58.979,165.449 58.69,165.736 C58.402,166.023 58.194,166.386 58.069,166.823 L58.079,166.855 L60.699,166.855 L60.71,166.769 C60.775,166.335 60.725,165.983 60.56,165.712 C60.395,165.442 60.094,165.306 59.656,165.306 Z M65.902,165.516 L65.364,165.484 C65.088,165.484 64.844,165.553 64.632,165.691 C64.421,165.829 64.242,166.023 64.094,166.274 L63.476,170.401 L62.416,170.401 L63.287,164.58 L64.234,164.58 L64.213,165.403 C64.421,165.109 64.658,164.88 64.923,164.717 C65.2517101,164.514728 65.6411676,164.434712 66.023,164.491 C66.097,164.503 66.155,164.517 66.198,164.531 L65.902,165.516 Z M67.419,170.401 L66.359,170.401 L67.231,164.58 L68.291,164.58 L67.419,170.4 L67.419,170.401 Z M68.517,163.089 L67.457,163.089 L67.618,162.009 L68.678,162.009 L68.517,163.089 Z M69.249,167.436 C69.381,166.543 69.719,165.826 70.263,165.284 C70.806,164.743 71.481,164.472 72.288,164.472 C73.063,164.472 73.65,164.752 74.05,165.314 C74.45,165.875 74.587,166.583 74.462,167.436 L74.44,167.555 C74.304,168.455 73.965,169.173 73.423,169.71 C72.882,170.246 72.206,170.514 71.395,170.514 C70.62,170.514 70.033,170.234 69.633,169.674 C69.233,169.115 69.098,168.408 69.227,167.554 L69.249,167.436 Z M70.287,167.555 C70.19,168.193 70.242,168.708 70.443,169.099 C70.643,169.489 71.003,169.685 71.519,169.685 C72.003,169.685 72.411,169.482 72.743,169.075 C73.075,168.668 73.287,168.161 73.38,167.555 L73.402,167.436 C73.495,166.806 73.44,166.292 73.238,165.898 C73.035,165.503 72.678,165.306 72.165,165.306 C71.677,165.306 71.267,165.511 70.935,165.922 C70.603,166.332 70.395,166.838 70.308,167.436 L70.287,167.555 Z M78.798,165.515 L78.26,165.484 C77.984,165.484 77.74,165.553 77.528,165.691 C77.317,165.829 77.138,166.023 76.99,166.274 L76.372,170.401 L75.312,170.401 L76.183,164.58 L77.13,164.58 L77.109,165.403 C77.317,165.109 77.553,164.88 77.819,164.717 C78.1477101,164.514728 78.5371676,164.434712 78.919,164.491 C78.993,164.503 79.051,164.517 79.094,164.531 L78.798,165.516 L78.798,165.515 Z" id="Shape" fill="#6D6E71" fill-rule="nonzero"></path>
            <path d="M276.256,120.586 L276.256,121.543 L271.663,121.543 L271.663,124.796 L275.576,124.796 L275.576,125.782 L271.663,125.782 L271.663,129.945 L270.314,129.945 L270.314,120.585 L276.256,120.586 Z M277.44,123.006 L278.68,123.006 L278.68,129.836 L277.44,129.836 L277.44,123.006 Z M277.456,119.904 L277.456,121.135 L278.72,121.135 L278.72,119.904 L277.456,119.904 Z M280.73,123.07 L281.817,123.07 C281.82991,123.358289 281.860636,123.645504 281.909,123.93 C282.988,122.65 285.176,122.419 285.926,124.206 C286.661,123.07 287.386,122.767 288.568,122.964 C290.065,123.213 290.288,124.902 290.36,125.541 C290.329,127.371 290.349,128.979 290.36,129.945 L289.1,129.945 L289.1,125.541 C289.063,124.89 288.844,123.931 287.74,123.931 C286.634,123.931 286.138,124.944 286.138,125.541 L286.138,129.945 L284.887,129.945 L284.887,125.541 C284.887,124.771 284.416,123.776 283.305,123.931 C282.193,124.085 282.101,124.584 281.909,124.845 C281.922,126.399 281.922,128.099 281.909,129.945 L280.729,129.945 L280.729,123.07 L280.73,123.07 Z" id="Shape" fill="#2A3052" fill-rule="nonzero"></path>
            <polygon id="Path" fill="#000000" points="44.733 17.864 40.913 17.864 40.913 22 38.916 22 38.916 12.047 45.431 12.047 45.431 13.585 40.912 13.585 40.912 16.326 44.733 16.326"></polygon>
        </g>
    </g>
</svg>