<svg width="300" height="199" viewBox="0 0 300 199" xmlns="http://www.w3.org/2000/svg"><title>Group 2</title><g fill="none" fill-rule="evenodd"><path fill="#F1F2F2" fill-rule="nonzero" d="M0 0h300v199H0z"/><path d="M39.125 55.375V74.75H75.25V55.375H39.125zm0-1H75.25V34h1v20.375h36.125V34h1v20.375H149.5V34h1v20.375h36.125V34h1v20.375h36.125V34h1v20.375h36.125V34h1v20.375H299.5v1h-37.625V74.75H299.5v1h-37.625v19.375H299.5v1h-37.625V115.5H299.5v1h-37.625v19.375H299.5v1h-37.625v19.375H299.5v1h-37.625v19.375H299.5v1h-37.625V199h-1v-21.375H224.75V199h-1v-21.375h-36.125V199h-1v-21.375H150.5V199h-1v-21.375h-36.125V199h-1v-21.375H76.25V199h-1v-21.375H39.125V199h-1v-21.375H1.5v-1h36.625V157.25H1.5v-1h36.625v-19.375H1.5v-1h36.625V116.5H1.5v-1h36.625V96.125H1.5v-1h36.625V75.75H1.5v-1h36.625V55.375H1.5v-1h36.625V34h1v20.375zm221.75 1H224.75V74.75h36.125V55.375zm-37.125 0h-36.125V74.75h36.125V55.375zm-37.125 0H150.5V74.75h36.125V55.375zm-37.125 0h-36.125V74.75H149.5V55.375zm-37.125 0H76.25V74.75h36.125V55.375zM39.125 75.75v19.375H75.25V75.75H39.125zm221.75 0H224.75v19.375h36.125V75.75zm-37.125 0h-36.125v19.375h36.125V75.75zm-37.125 0H150.5v19.375h36.125V75.75zm-37.125 0h-36.125v19.375H149.5V75.75zm-37.125 0H76.25v19.375h36.125V75.75zm-73.25 20.375V115.5H75.25V96.125H39.125zm221.75 0H224.75V115.5h36.125V96.125zm-37.125 0h-36.125V115.5h36.125V96.125zm-37.125 0H150.5V115.5h36.125V96.125zm-37.125 0h-36.125V115.5H149.5V96.125zm-37.125 0H76.25V115.5h36.125V96.125zM39.125 116.5v19.375H75.25V116.5H39.125zm221.75 0H224.75v19.375h36.125V116.5zm-37.125 0h-36.125v19.375h36.125V116.5zm-37.125 0H150.5v19.375h36.125V116.5zm-37.125 0h-36.125v19.375H149.5V116.5zm-37.125 0H76.25v19.375h36.125V116.5zm-73.25 20.375v19.375H75.25v-19.375H39.125zm221.75 0H224.75v19.375h36.125v-19.375zm-37.125 0h-36.125v19.375h36.125v-19.375zm-37.125 0H150.5v19.375h36.125v-19.375zm-37.125 0h-36.125v19.375H149.5v-19.375zm-37.125 0H76.25v19.375h36.125v-19.375zm-73.25 20.375v19.375H75.25V157.25H39.125zm221.75 0H224.75v19.375h36.125V157.25zm-37.125 0h-36.125v19.375h36.125V157.25zm-37.125 0H150.5v19.375h36.125V157.25zm-37.125 0h-36.125v19.375H149.5V157.25zm-37.125 0H76.25v19.375h36.125V157.25z" fill="#DFDEDE" fill-rule="nonzero"/><path stroke="#C2C2C2" stroke-width="2" d="M1 1h298v197H1z"/><path fill="#C2C2C2" fill-rule="nonzero" d="M0 33h300v2H0z"/><path d="M252.229 173.032h-3.203v3.389H247.7v-7.946h5.086v1.064h-3.76v2.429h3.203v1.064zm3.913 3.503c-.863 0-1.537-.272-2.022-.816-.486-.544-.729-1.248-.729-2.114v-.219c0-.865.243-1.58.729-2.141.485-.562 1.112-.842 1.88-.838.793 0 1.393.245 1.8.734.408.49.612 1.143.612 1.962v.715h-3.651l-.011.027c.015.484.142.877.382 1.179.24.302.602.453 1.086.453.36 0 .672-.044.936-.131.264-.088.508-.213.734-.377l.43.868c-.225.196-.523.362-.894.496a3.75 3.75 0 0 1-1.282.202zm-.142-5.064c-.346 0-.622.125-.83.374-.207.25-.336.574-.387.974l.01.027h2.309v-.103c0-.379-.088-.685-.265-.92-.176-.235-.455-.352-.837-.352zm5.893 4.006c.302 0 .558-.095.767-.284.21-.19.314-.43.314-.72h1.2l.011.032c.015.553-.204 1.03-.657 1.43-.453.4-.998.6-1.635.6-.851 0-1.508-.28-1.97-.843-.462-.562-.693-1.27-.693-2.125v-.191c0-.852.231-1.56.693-2.123.462-.564 1.117-.846 1.965-.846.687 0 1.246.206 1.675.62.43.412.637.937.622 1.574l-.01.032h-1.201c0-.323-.1-.598-.3-.824a1 1 0 0 0-.786-.338c-.473 0-.813.183-1.02.549-.208.365-.312.817-.312 1.356v.19c0 .55.103 1.006.309 1.368.205.362.548.543 1.028.543zm4.715-4.197c.196-.276.436-.491.718-.644.282-.153.594-.229.936-.229.625 0 1.114.197 1.465.592.35.395.526 1.003.526 1.825v3.597h-1.326v-3.607c0-.463-.09-.798-.27-1.007-.18-.21-.448-.314-.805-.314-.284 0-.53.05-.736.15-.208.1-.377.24-.508.417v4.36h-1.326v-8.512h1.326v3.372zm4.775 2.134c0-.88.24-1.602.723-2.164.482-.562 1.141-.843 1.978-.843.848 0 1.513.281 1.995.843.482.562.723 1.283.723 2.164v.114c0 .888-.241 1.611-.723 2.17-.482.558-1.144.837-1.984.837-.844 0-1.507-.28-1.99-.84-.481-.56-.722-1.283-.722-2.167v-.114zm1.326.114c0 .579.113 1.048.338 1.408.226.36.575.54 1.048.54.462 0 .809-.18 1.04-.542.23-.362.346-.83.346-1.406v-.114c0-.564-.115-1.029-.346-1.394-.231-.366-.582-.549-1.05-.549-.463 0-.808.183-1.035.549-.227.365-.341.83-.341 1.394v.114z" fill="#2A3052" fill-rule="nonzero"/><g transform="translate(4 34.021)"><path d="M.9 30.163h290.625" stroke="#15212D" stroke-width="1.133" fill="#D8D8D8" fill-rule="nonzero" stroke-dasharray="7.5"/><path d="M237.863.725V161" stroke="#2A3052" stroke-width="1.211" stroke-linejoin="round"/><path d="M.9 122.75h290.625" stroke="#15212D" stroke-width="1.133" fill="#D8D8D8" fill-rule="nonzero" stroke-dasharray="7.5"/><path stroke="#2A3052" stroke-width="3.633" stroke-linecap="round" stroke-linejoin="round" d="M17.25 82.063L53.115 66l26.494 21.96 43.594-57.247 31.74 113.025 18.105-68.974 27.446-22.991 37.5 71.542"/><ellipse cx="8.137" cy="9.35" rx="8.137" ry="8.475" opacity=".6" transform="translate(229.5 113.25)" fill="#FFF" fill-rule="nonzero"/><ellipse stroke="#E88024" stroke-width="2.422" cx="237.637" cy="122.6" rx="8.137" ry="8.475"/><ellipse cx="9.012" cy="8.475" rx="8.137" ry="8.475" opacity=".6" transform="translate(114.25 22.25)" fill="#FFF" fill-rule="nonzero"/><ellipse stroke="#E88024" stroke-width="2.422" cx="123.263" cy="30.725" rx="8.137" ry="8.475"/></g><path d="M22.216 18.003h-3.75v4.059h-1.959v-9.768H22.9v1.51h-4.434v2.69h3.75v1.509zm4.79 4.2c-1.082 0-1.928-.333-2.536-.997-.608-.664-.912-1.52-.912-2.566v-.268c0-1.087.295-1.977.885-2.67.59-.693 1.402-1.037 2.435-1.033.975 0 1.723.298 2.244.896.521.597.782 1.4.782 2.411v1.013h-4.327l-.02.04c.031.497.182.9.453 1.208.27.308.672.463 1.204.463.438 0 .81-.045 1.117-.134.306-.09.623-.226.949-.41l.53 1.208c-.29.237-.684.436-1.18.597a5.236 5.236 0 0 1-1.624.241zm-.128-6.025c-.393 0-.696.136-.909.406-.212.27-.34.63-.385 1.077l.013.033h2.388v-.147c0-.425-.087-.76-.261-1.003-.175-.244-.456-.366-.846-.366zm7.198 4.522c.34 0 .611-.102.812-.305.201-.204.302-.476.302-.816h1.784l.014.04c.018.734-.255 1.348-.819 1.842-.563.494-1.26.741-2.093.741-1.073 0-1.902-.343-2.488-1.03-.586-.686-.88-1.563-.88-2.632v-.202c0-1.064.293-1.942.876-2.633.584-.69 1.41-1.036 2.48-1.036.885 0 1.598.255 2.139.765.541.51.803 1.18.785 2.012l-.014.04H35.19c0-.375-.1-.687-.298-.935-.2-.249-.476-.373-.829-.373-.505 0-.864.203-1.077.607-.212.405-.318.923-.318 1.553v.202c0 .644.106 1.165.318 1.563.213.398.576.597 1.09.597zm5.964-4.978c.228-.33.508-.589.839-.775a2.21 2.21 0 0 1 1.1-.278c.756 0 1.35.252 1.781.755.432.503.647 1.28.647 2.33v4.308H42.45v-4.32c0-.564-.091-.963-.272-1.198-.181-.235-.453-.352-.815-.352-.3 0-.56.048-.782.144a1.349 1.349 0 0 0-.54.413v5.313h-1.959V11.597h1.96v4.125zm10.123 6.34a4.12 4.12 0 0 1-.184-.524 3.64 3.64 0 0 1-.111-.563 2.685 2.685 0 0 1-.798.879c-.331.232-.725.348-1.181.348-.76 0-1.346-.195-1.758-.587-.411-.39-.617-.924-.617-1.6 0-.71.274-1.262.822-1.653.548-.391 1.347-.587 2.398-.587h1.1v-.577c0-.349-.091-.62-.275-.812-.183-.192-.456-.288-.818-.288-.318 0-.562.077-.735.231-.172.155-.258.366-.258.634h-1.885l-.013-.04c-.032-.613.236-1.142.801-1.587.566-.445 1.305-.667 2.217-.667.872 0 1.578.22 2.117.657.539.439.808 1.067.808 1.885v3c0 .339.026.659.077.958.052.3.133.597.245.893h-1.952zm-1.791-1.309c.34 0 .644-.085.912-.254.269-.17.452-.367.55-.59v-1.027h-1.1c-.416 0-.73.103-.942.308a1.014 1.014 0 0 0-.319.758c0 .246.08.442.238.587.159.146.38.218.661.218zm8.707-4.266l-.717-.02c-.291 0-.53.06-.718.18-.188.122-.331.292-.43.51v4.905h-1.952v-7.259h1.818l.088 1.073c.17-.38.39-.676.66-.888.27-.213.583-.319.936-.319.099 0 .19.008.272.023.083.016.166.035.251.057l-.208 1.738zm.839 1.127h3.368v1.241h-3.368v-1.241zm9.995 2.341h-3.166l-.657 2.107h-2.046l3.293-9.768h2.006l3.28 9.768h-2.045l-.665-2.107zM65.23 18.42h2.207l-1.08-3.441h-.04l-1.087 3.44zm8.245 3.643h-1.96V11.597h1.96v10.465zm3.958-9.037v1.778h1.227v1.375h-1.227v3.697c0 .281.059.483.177.603.119.121.274.182.467.182.102 0 .192-.006.268-.017a2.26 2.26 0 0 0 .262-.057l.16 1.415a3.42 3.42 0 0 1-1.18.201c-.675 0-1.195-.185-1.56-.556-.364-.372-.547-.96-.547-1.765v-3.703h-1.06v-1.375h1.06v-1.778h1.953zm2.133 5.34c0-1.082.302-1.969.905-2.66.604-.69 1.44-1.036 2.51-1.036 1.073 0 1.913.344 2.522 1.033.608.689.912 1.577.912 2.663v.141c0 1.091-.303 1.98-.909 2.667-.606.686-1.443 1.03-2.512 1.03-1.074 0-1.913-.344-2.52-1.03-.605-.687-.908-1.576-.908-2.667v-.14zm1.952.141c0 .662.116 1.193.349 1.593.232.4.608.6 1.127.6.505 0 .875-.2 1.11-.603.235-.402.352-.932.352-1.59v-.14c0-.645-.118-1.17-.355-1.577-.237-.407-.61-.61-1.12-.61-.506 0-.876.204-1.11.613-.236.41-.353.934-.353 1.573v.141z" fill="#000" fill-rule="nonzero"/><path d="M122.038 47.556h-3.113l-.675 2.051h-1.515l3.065-8.783h1.394l3.028 8.783h-1.514l-.67-2.05zm-2.709-1.224h2.311l-1.128-3.463h-.036l-1.147 3.463zm7.39 3.275h-1.465v-9.41h1.466v9.41zm3.518-8.114v1.587h1.17v1.086h-1.17v3.607c0 .27.058.462.175.577a.634.634 0 0 0 .464.172 1.296 1.296 0 0 0 .453-.079l.157 1.074a1.684 1.684 0 0 1-.444.16 2.44 2.44 0 0 1-.534.057c-.539 0-.962-.158-1.27-.473-.307-.316-.461-.812-.461-1.488v-3.607h-.996V43.08h.996v-1.587h1.46zm2.081 4.79c0-.973.267-1.77.8-2.392.532-.621 1.261-.932 2.186-.932.938 0 1.673.31 2.205.932.533.622.8 1.42.8 2.392v.127c0 .981-.267 1.78-.8 2.398-.532.617-1.263.926-2.192.926-.934 0-1.667-.31-2.2-.929-.532-.62-.799-1.418-.799-2.395v-.127zm1.466.127c0 .64.125 1.158.374 1.557.25.398.636.597 1.159.597.51 0 .893-.2 1.149-.6.255-.4.383-.918.383-1.554v-.127c0-.623-.128-1.137-.383-1.541-.256-.404-.643-.606-1.162-.606-.51 0-.891.202-1.143.606-.251.404-.377.918-.377 1.541v.127z" fill="#2A3052" fill-rule="nonzero"/><path d="M11.74 137.048h-1.353v-9.954h1.354v9.954zm3.487-7.397l.096 1.1c.246-.391.554-.695.926-.912a2.471 2.471 0 0 1 1.268-.325c.798 0 1.415.234 1.853.701.437.467.656 1.188.656 2.164v4.669h-1.347v-4.642c0-.652-.129-1.114-.386-1.388-.258-.273-.65-.41-1.18-.41-.414 0-.766.083-1.055.25-.29.166-.519.4-.687.7v5.49h-1.347v-7.397h1.203zm8.169 7.397h-1.347v-7.397h1.347v7.397zm-.02-10.391h1.572l.013.04-1.839 1.778h-1.011l1.264-1.818zm5.065 9.481c.415 0 .777-.137 1.087-.413.31-.276.465-.614.465-1.015h1.216l.02.04c.02.639-.254 1.205-.82 1.7a2.898 2.898 0 0 1-1.968.741c-1.04 0-1.841-.353-2.406-1.06-.566-.706-.848-1.585-.848-2.638v-.287c0-1.044.284-1.92.851-2.629.567-.708 1.368-1.063 2.403-1.063.825 0 1.5.256 2.027.766.526.51.78 1.137.762 1.88l-.014.04h-1.223c0-.45-.147-.834-.441-1.151a1.451 1.451 0 0 0-1.111-.475c-.661 0-1.143.256-1.446.769-.303.513-.455 1.134-.455 1.863v.287c0 .743.15 1.37.448 1.88.299.51.783.765 1.453.765zm5.845.91h-1.347v-7.397h1.347v7.397zm0-9.29h-1.347v-1.375h1.347v1.375zm1.756 5.523c0-1.094.297-1.995.889-2.704.593-.708 1.397-1.063 2.413-1.063 1.026 0 1.836.354 2.43 1.06.595.706.892 1.609.892 2.707v.15c0 1.103-.296 2.006-.888 2.707-.593.702-1.4 1.053-2.42 1.053-1.021 0-1.829-.352-2.424-1.056-.594-.704-.892-1.605-.892-2.704v-.15zm1.347.15c0 .784.165 1.431.496 1.942.33.51.821.765 1.473.765.642 0 1.13-.255 1.463-.765.332-.51.499-1.158.499-1.942v-.15c0-.775-.168-1.42-.503-1.935-.335-.515-.826-.772-1.473-.772-.642 0-1.129.257-1.46.772-.33.515-.495 1.16-.495 1.935v.15z" fill="#2A3052"/></g></svg>