<?xml version="1.0" encoding="UTF-8"?>
<svg width="299px" height="197px" viewBox="0 0 299 197" version="1.1" xmlns="http://www.w3.org/2000/svg" xmlns:xlink="http://www.w3.org/1999/xlink">
    <!-- Generator: Sketch 52.6 (67491) - http://www.bohemiancoding.com/sketch -->
    <title>higher</title>
    <desc>Created with Sketch.</desc>
    <g id="Page-1" stroke="none" stroke-width="1" fill="none" fill-rule="evenodd">
        <g id="higher">
            <g id="higher-">
                <polygon id="Path" fill="#F1F2F2" points="0 0 299 0 299 197 0 197"></polygon>
                <path d="M1.98671096,1.9798995 L1.98671096,195.020101 L297.013289,195.020101 L297.013289,1.9798995 L1.98671096,1.9798995 Z M299,0 L299,197 L0,197 L0,0 L299,0 Z" id="Path" fill="#C2C2C2" fill-rule="nonzero"></path>
                <g id="content" transform="translate(0.000000, 32.000000)">
                    <path d="M1.74920034,22.055088 L1.74920034,20.8401224 L295.237332,20.8401224 L295.237332,22.055088 L1.74920034,22.055088 Z M1.74920034,44.5851316 L1.74920034,43.370166 L295.237332,43.370166 L295.237332,44.5851316 L1.74920034,44.5851316 Z M1.74920034,63.3601679 L1.74920034,62.1452023 L295.237332,62.1452023 L295.237332,63.3601679 L1.74920034,63.3601679 Z M1.74920034,104.665248 L1.74920034,103.450282 L295.237332,103.450282 L295.237332,104.665248 L1.74920034,104.665248 Z M1.74920034,123.440284 L1.74920034,122.225318 L295.237332,122.225318 L295.237332,123.440284 L1.74920034,123.440284 Z M1.74920034,145.970328 L1.74920034,144.755362 L295.237332,144.755362 L295.237332,145.970328 L1.74920034,145.970328 Z M36.8870669,0.79506531 L38.1020325,0.79506531 L38.1020325,162.260377 L36.8870669,162.260377 L36.8870669,0.79506531 Z M74.5137504,0.79506531 L75.728716,0.79506531 L75.728716,162.260377 L74.5137504,162.260377 L74.5137504,0.79506531 Z M112.140434,0.79506531 L113.3554,0.79506531 L113.3554,162.260377 L112.140434,162.260377 L112.140434,0.79506531 Z M146.004449,0.79506531 L147.219415,0.79506531 L147.219415,162.260377 L146.004449,162.260377 L146.004449,0.79506531 Z M183.631132,0.79506531 L184.846098,0.79506531 L184.846098,162.260377 L183.631132,162.260377 L183.631132,0.79506531 Z M221.257816,0.79506531 L222.472782,0.79506531 L222.472782,162.260377 L221.257816,162.260377 L221.257816,0.79506531 Z M258.884499,0.79506531 L260.099465,0.79506531 L260.099465,162.260377 L258.884499,162.260377 L258.884499,0.79506531 Z" id="Shape" fill="#DFDEDE" fill-rule="nonzero"></path>
                    <polygon id="Path" fill="#2A3052" fill-rule="nonzero" points="2.90644108 84.8198292 2.90644108 83.6048636 294.513238 83.6048636 294.513238 84.8198292"></polygon>
                    <polygon id="Path" fill="#C2C2C2" fill-rule="nonzero" points="0.799346801 2.77979041 0.799346801 0.349482925 294.362731 0.349482925 294.362731 2.77979041"></polygon>
                    <path d="M69.8331577,69.9227061 L39.7297268,125.818414 C39.2524205,126.704671 38.1470342,127.036191 37.2607773,126.558885 C36.3745205,126.081579 36.0430005,124.976192 36.5203068,124.089936 L67.8257075,65.9624233 C68.4164344,64.8655684 69.9089383,64.6714201 70.7606203,65.5806434 L101.146835,98.0198075 L145.211513,42.3765347 C145.964194,41.4260774 147.417767,41.4617155 148.122965,42.4479164 L191.533154,103.155915 L223.466424,20.2478218 C223.884498,19.1623808 225.198559,18.7409823 226.169914,19.3808559 L260.485449,41.9859996 C261.326064,42.5397495 261.558614,43.6701055 261.004864,44.5107205 C260.451114,45.3513355 259.320758,45.5838857 258.480143,45.0301358 L226.054628,23.6700308 L193.718989,107.622792 C193.197429,108.976913 191.379598,109.208208 190.535559,108.027841 L146.566093,46.5377088 L102.691451,101.941011 C101.999949,102.814214 100.693856,102.86841 99.9323892,102.055497 L69.8331577,69.9227061 Z" id="Path" fill="#2A3052" fill-rule="nonzero"></path>
                    <path d="M187.239564,115.191156 L152.058614,115.191156 L146.640372,106.96769 L141.22213,115.191156 L106.041181,115.191156 C103.407313,115.191156 101.300218,117.33151 101.300218,119.997566 L101.300218,144.818164 C101.300218,147.484219 103.444939,149.624573 106.041181,149.624573 L187.27719,149.624573 C189.911058,149.624573 192.018152,147.484219 192.018152,144.818164 L192.018152,119.997566 C192.018152,117.33151 189.873431,115.191156 187.239564,115.191156 Z" id="Path" fill="#E88024"></path>
                    <g id="Group" opacity="0.6" transform="translate(251.092045, 34.829995)" fill="#FFFFFF">
                        <ellipse id="Oval" cx="8.39075042" cy="8.6780726" rx="8.16499032" ry="8.4863164"></ellipse>
                    </g>
                    <path d="M259.482796,53.2095378 C254.291567,53.2095378 250.102652,48.8557715 250.102652,43.5080677 C250.102652,38.1603639 254.291567,33.8065976 259.482796,33.8065976 C264.674025,33.8065976 268.86294,38.1603639 268.86294,43.5080677 C268.86294,48.8557715 264.674025,53.2095378 259.482796,53.2095378 Z M259.482796,50.7792304 C263.310366,50.7792304 266.432633,47.5340901 266.432633,43.5080677 C266.432633,39.4820453 263.310366,36.236905 259.482796,36.236905 C255.655226,36.236905 252.532959,39.4820453 252.532959,43.5080677 C252.532959,47.5340901 255.655226,50.7792304 259.482796,50.7792304 Z" id="Oval" fill="#E88024" fill-rule="nonzero"></path>
                    <g id="Group" opacity="0.6" transform="translate(29.094613, 116.440155)" fill="#FFFFFF">
                        <ellipse id="Oval" cx="9.03040404" cy="8.5140203" rx="8.16499032" ry="8.4863164"></ellipse>
                    </g>
                    <path d="M38.1250168,134.655645 C32.9337879,134.655645 28.7448727,130.301879 28.7448727,124.954175 C28.7448727,119.606471 32.9337879,115.252705 38.1250168,115.252705 C43.3162457,115.252705 47.5051609,119.606471 47.5051609,124.954175 C47.5051609,130.301879 43.3162457,134.655645 38.1250168,134.655645 Z M38.1250168,132.225338 C41.9525872,132.225338 45.0748534,128.980197 45.0748534,124.954175 C45.0748534,120.928153 41.9525872,117.683012 38.1250168,117.683012 C34.2974464,117.683012 31.1751802,120.928153 31.1751802,124.954175 C31.1751802,128.980197 34.2974464,132.225338 38.1250168,132.225338 Z" id="Oval" fill="#E88024" fill-rule="nonzero"></path>
                </g>
            </g>
            <g id="Group" transform="translate(251.000000, 91.000000)" fill="#2A3052" fill-rule="nonzero">
                <path d="M6.96,1.286 L6.96,2.343 L1.892,2.343 L1.892,5.932 L6.209,5.932 L6.209,7.02 L1.892,7.02 L1.892,11.614 L0.403,11.614 L0.403,1.286 L6.96,1.286 Z M8.266,3.956 L9.635,3.956 L9.635,11.493 L8.265,11.493 L8.266,3.956 Z M8.284,0.534 L8.284,1.893 L9.679,1.893 L9.679,0.533 L8.284,0.534 Z M11.897,4.027 L13.097,4.027 C13.102,4.267 13.137,4.583 13.197,4.977 C14.388,3.564 16.803,3.309 17.631,5.281 C18.441,4.027 19.241,3.693 20.546,3.911 C22.197,4.185 22.444,6.049 22.524,6.754 C22.489,8.773 22.511,10.548 22.524,11.614 L21.134,11.614 L21.134,6.754 C21.093,6.036 20.851,4.977 19.631,4.977 C18.411,4.977 17.865,6.095 17.865,6.754 L17.865,11.614 L16.484,11.614 L16.484,6.754 C16.484,5.905 15.964,4.807 14.738,4.977 C13.512,5.147 13.409,5.697 13.198,5.987 C13.212,7.701 13.212,9.577 13.198,11.614 L11.897,11.614 L11.897,4.027 Z" id="Shape"></path>
            </g>
            <g id="Group" transform="translate(24.000000, 170.000000)" fill="#2A3052" fill-rule="nonzero">
                <path d="M5.628,3.655 L5.739,4.808 C6.19525875,4.01057297 7.05045115,3.52583611 7.969,3.544 C8.787,3.544 9.419,3.767 9.865,4.287 C10.311,4.77 10.534,5.514 10.534,6.517 L10.534,11.349 L9.158,11.349 L9.158,6.554 C9.158,5.885 9.01,5.402 8.75,5.104 C8.49,4.808 8.08,4.696 7.56,4.696 C7.151,4.696 6.817,4.808 6.52,4.993 C6.20967689,5.18546607 5.95359864,5.4539352 5.776,5.773 L5.776,11.349 L4.401,11.349 L4.401,3.693 L5.628,3.655 Z M0.618,1.082 L2.015,1.082 L2.015,11.41 L0.618,11.41 L0.618,1.082 Z M12.718,3.56 L14.115,3.56 L14.115,11.349 L12.718,11.349 L12.718,3.56 Z M24.077,3.635 L25.452,3.635 L25.452,11.201 L24.077,11.201 L24.077,3.635 Z M24.096,0.199 L24.096,1.563 L25.496,1.563 L25.496,0.2 L24.096,0.199 Z M20.802,6.323 C21.292,6.309 21.749,6.323 22.045,6.323 C22.045,4.137 20.312,3.56 18.919,3.56 C17.525,3.56 15.792,4.824 15.792,7.536 C15.792,10.247 17.312,11.566 19.2,11.498 C21.088,11.43 22.045,9.995 22.045,8.938 C21.6307587,8.95035326 21.2162413,8.95035326 20.802,8.938 C20.802,9.936 19.904,10.46 19.2,10.46 C17.515,10.46 17.133,8.826 17.133,7.526 C17.133,6.226 17.564,4.621 19.069,4.621 C20.346,4.621 20.802,5.611 20.802,6.323 Z M30.553,3.546 C31.422,3.499 32.521,3.801 33.137,4.426 C33.817,5.116 34.304,5.975 34.304,7.392 C34.304,8.648 34.053,9.555 33.459,10.289 C32.788,11.118 31.743,11.497 30.895,11.497 C30.015,11.497 29.061,11.359 28.26,10.617 C27.604,10.012 26.997,8.972 27.057,7.522 C27.124,5.919 27.64,5.005 28.26,4.425 C28.887,3.839 29.622,3.597 30.553,3.546 Z M30.865,4.596 C29.869,4.596 28.664,5.246 28.664,7.261 C28.664,9.277 29.407,10.477 30.743,10.477 C32.079,10.477 32.956,9.12 32.82,7.261 C32.685,5.402 31.862,4.595 30.865,4.595 L30.865,4.596 Z M12.793,2.44 L13.803,2.44 L15.743,0.607 L14.098,0.607 L12.793,2.44 Z" id="Shape"></path>
            </g>
            <g id="Group" transform="translate(248.000000, 130.000000)" fill="#6D6E71" fill-rule="nonzero">
                <path d="M12.251,0.379 L13.656,0.379 L11.976,11.458 L10.614,11.458 L12.251,0.379 Z M14.62,3.79 L16.012,3.79 L17.121,9.771 L19.945,3.789 L21.337,3.789 L17.344,11.458 L16.362,11.458 L14.62,3.79 Z M26.199,3.686 C28.069,3.976 29.106,5.75 28.403,8.45 C27.701,11.151 25.321,11.969 23.533,11.462 C21.743,10.955 21.298,8.632 21.933,6.619 C22.567,4.607 24.329,3.395 26.199,3.686 Z M25.972,4.788 C24.57,4.456 23.653,5.769 23.312,6.716 C22.972,7.662 22.694,10.173 24.182,10.474 C25.672,10.775 26.652,9.669 27.066,8.264 C27.48,6.861 27.374,5.121 25.972,4.788 Z M0.607,11.431 L5.881,1.118 L7.105,1.118 L9.169,11.431 L7.735,11.431 L7.259,8.748 L3.364,8.748 L2.035,11.431 L0.607,11.431 Z M3.981,7.627 L7.032,7.627 L6.205,3.081 L3.981,7.627 Z" id="Shape"></path>
            </g>
            <g id="Group" transform="translate(118.000000, 156.000000)" fill="#FFFFFF" fill-rule="nonzero">
                <path d="M58.636,10.25 L56.145,10.25 L56.145,2.007 L58.636,2.007 L58.636,10.25 Z M58.636,14.588 L56.145,14.588 L56.145,12.373 L58.636,12.373 L58.636,14.588 Z" id="Shape"></path>
                <path d="M24.012,4.776 L26.024,4.776 L26.124,6.241 C26.949,5.011 28.018,4.465 29.331,4.601 C30.091,4.681 31.696,4.93 32.175,7.09 C32.35,7.882 32.313,9.22 32.3,11.038 C32.294,11.744 32.294,12.967 32.3,14.706 L30.092,14.706 L30.092,8.486 C30.092,7.754 29.888,6.937 29.274,6.628 C28.431,6.203 26.844,6.381 26.207,7.452 L26.207,14.706 L24.012,14.706 L24.012,4.776 Z M6.292,9.423 L6.292,7.754 L11.342,7.754 C11.398,10.664 11.398,12.359 11.342,12.842 C10.915,14.116 5.873,16.431 2.618,13.494 C1.648,12.619 1.191,11.649 0.942,10.181 C0.93,8.681 0.904,7.275 0.914,5.945 C1.16,4.315 1.706,3.388 2.146,2.862 C3.747,0.949 6.297,0.537 8.54,1.312 C10.783,2.087 11.074,3.698 11.255,5.273 C10.736,5.273 10.462,5.251 9.06,5.273 C9.202,4.387 8.395,2.673 6.29,2.768 C4.187,2.862 3.193,4.591 3.193,6.031 C3.193,7.471 3.118,6.988 3.193,9.851 C3.289,13.137 7.229,14.019 9.06,12.263 L9.126,9.465 L6.292,9.423 Z M16.18,7.588 C15.502,7.583 14.792,7.583 14.05,7.588 C14.05,6.52 14.814,4.581 17.874,4.581 C20.934,4.581 21.668,6.683 21.751,7.136 C21.834,7.588 21.538,13.934 22.178,14.656 L19.905,14.658 C19.717,14.015 19.623,13.54 19.623,13.233 C19.268,13.666 18.659,14.457 17.721,14.748 C16.784,15.038 14.655,15.194 13.783,13.151 C13.209,11.805 13.575,10.291 14.655,9.597 C16.439,8.451 18.891,8.834 19.623,8.834 C19.717,6.79 19.107,6.314 17.721,6.314 C16.798,6.314 16.284,6.738 16.18,7.588 Z M19.622,10.232 C18.8739906,10.2152374 18.1256443,10.2212402 17.378,10.25 C16.485,10.33 15.691,10.989 15.758,11.929 C15.839,13.049 17.113,13.255 18.111,12.932 C18.948,12.66 19.531,11.96 19.622,11.662 L19.622,10.232 Z M49.218,4.587 C50.316,4.527 51.704,4.915 52.482,5.719 C53.342,6.609 53.956,7.716 53.956,9.542 C53.956,11.16 53.639,12.329 52.889,13.274 C52.041,14.341 50.721,14.83 49.65,14.83 C48.54,14.83 47.335,14.652 46.322,13.698 C45.494,12.917 44.727,11.578 44.804,9.708 C44.888,7.644 45.539,6.466 46.322,5.719 C47.114,4.965 48.043,4.653 49.218,4.587 Z M49.437,6.35 C48.437,6.35 47.082,6.797 47.082,9.602 C47.082,12.407 48.175,13.087 49.437,13.087 C50.698,13.087 51.754,11.97 51.664,9.468 C51.574,6.966 50.437,6.35 49.437,6.35 Z M34.616,0.343 L36.728,0.343 C36.768,3.805 36.787,5.691 36.787,6.002 C37.302,5.202 38.795,4.113 40.387,4.606 C42.916,5.389 42.8,7.038 42.915,8.144 C42.992,8.882 42.992,11.037 42.915,14.609 L40.725,14.609 C40.785,11.659 40.785,9.565 40.725,8.324 C40.805,6.174 38.131,5.527 36.728,7.449 L36.787,14.609 L34.617,14.609 L34.617,0.343 L34.616,0.343 Z" id="Shape"></path>
            </g>
            <g id="Group" transform="translate(15.000000, 10.000000)" fill-rule="nonzero">
                <g id="Shape" fill="#020202">
                    <path d="M11.955,3.64 L9.918,3.64 L9.918,8.614 C9.918,9.129 10.048,10.281 10.898,10.948 C11.659,11.546 13.495,11.972 14.642,10.231 L14.872,11.281 L16.619,11.281 L16.619,3.641 L14.51,3.641 L14.51,9.246 C14.235,9.832 12.504,10.318 12.086,9.246 C11.921,8.396 11.878,6.526 11.956,3.64 L11.955,3.64 Z M34.719,3.845 L36.604,3.845 L36.726,4.989 C37.226,3.901 37.962,3.492 38.934,3.761 C38.897,4.223 38.834,4.823 38.744,5.561 C38.042,5.548 37.18,5.355 36.726,6.273 L36.774,11.47 L34.72,11.47 L34.72,3.845 L34.719,3.845 Z M53.126,3.845 L55.011,3.845 L55.133,4.989 C55.633,3.901 56.37,3.492 57.341,3.761 C57.304,4.223 57.241,4.823 57.151,5.561 C56.449,5.548 55.587,5.355 55.133,6.273 L55.181,11.47 L53.126,11.47 L53.126,3.845 Z M6.43,4.062 C7.51,4.081 8.015,4.081 8.494,4.062 C8.518,2.96 7.708,0.756 4.492,0.927 C1.276,1.098 1.052,3.057 1.052,4.141 C1.052,5.1 1.857,5.965 3.198,6.514 C4.855,7.192 6.429,7.208 6.556,8.622 C6.723,10.474 2.711,10.488 2.818,8.16 C2.062,8.176 1.408,8.176 0.854,8.16 C0.854,8.622 0.523,11.651 5.475,11.462 C7.517,11.384 8.597,9.984 8.597,8.622 C8.597,7.347 7.742,6.638 7.097,6.178 C6.175,5.519 4.073,5.296 3.35,4.446 C2.675,3.654 3.415,2.576 4.41,2.494 C6.07,2.357 6.541,3.434 6.43,4.062 Z M20.197,14.11 L18.095,14.11 L18.095,3.499 L19.975,3.499 C19.997,3.79 20.04,4.093 20.103,4.407 C21.024,3.038 22.847,3.051 23.943,4.127 C25.039,5.203 25.039,7.091 25.039,8.072 C25.039,8.526 24.712,10.031 23.943,10.659 C22.765,11.622 20.823,11.529 20.197,10.462 C20.185,11.536 20.185,12.752 20.197,14.112 L20.197,14.11 Z M20.202,9.085 C20.848,10.145 22.46,9.886 22.78,8.805 C23.0920961,7.76451108 23.0348633,6.64811822 22.618,5.645 C22.213,4.673 20.486,4.822 20.202,5.729 L20.202,9.085 Z M28.108,8.147 C28.277,10.009 29.558,10.429 31.952,9.408 C32.172,9.905 32.358,10.342 32.511,10.718 C27.68,12.925 26.041,9.726 26.003,8.148 C25.965,6.568 26.042,3.602 29.507,3.602 C31.817,3.602 32.871,5.117 32.668,8.147 L28.108,8.147 Z M30.669,6.76 C30.663,6.51 30.829,5.183 29.519,5.183 C28.209,5.183 28.194,6.42 28.123,6.76 L30.669,6.76 Z"></path>
                </g>
                <path d="M47.918,3.181 C48.824,3.131 49.97,3.446 50.612,4.097 C51.322,4.817 51.829,5.713 51.829,7.191 C51.829,8.5 51.567,9.446 50.948,10.211 C50.248,11.075 49.158,11.471 48.274,11.471 C47.358,11.471 46.363,11.326 45.527,10.554 C44.843,9.922 44.21,8.838 44.273,7.326 C44.343,5.655 44.881,4.701 45.527,4.097 C46.181,3.487 46.947,3.234 47.917,3.181 L47.918,3.181 Z M48.128,4.833 C47.423,4.833 46.468,5.163 46.468,7.24 C46.468,9.316 47.238,9.819 48.128,9.819 C49.017,9.819 49.761,8.992 49.698,7.141 C49.634,5.289 48.833,4.833 48.128,4.833 Z" id="Shape" fill="#000000"></path>
                <g id="Shape" transform="translate(40.000000, 0.000000)" fill="#020202">
                    <path d="M0.346,4.033 L2.446,4.033 L2.446,11.367 L0.346,11.367 L0.346,4.033 Z M0.389,0.525 L0.389,2.173 L2.4,2.173 L2.4,0.525 L0.389,0.525 Z"></path>
                </g>
            </g>
        </g>
    </g>
</svg>