<svg width="300" height="199" viewBox="0 0 300 199" xmlns="http://www.w3.org/2000/svg"><title>portuguese high low</title><g fill="none" fill-rule="evenodd"><path fill="#F1F2F2" d="M0 0h300v199H0z"/><path d="M39.125 55.375V74.75H75.25V55.375H39.125zm0-1H75.25V34h1v20.375h36.125V34h1v20.375H149.5V34h1v20.375h36.125V34h1v20.375h36.125V34h1v20.375h36.125V34h1v20.375H299.5v1h-37.625V74.75H299.5v1h-37.625v19.375H299.5v1h-37.625V115.5H299.5v1h-37.625v19.375H299.5v1h-37.625v19.375H299.5v1h-37.625v19.375H299.5v1h-37.625V199h-1v-21.375H224.75V199h-1v-21.375h-36.125V199h-1v-21.375H150.5V199h-1v-21.375h-36.125V199h-1v-21.375H76.25V199h-1v-21.375H39.125V199h-1v-21.375H1.5v-1h36.625V157.25H1.5v-1h36.625v-19.375H1.5v-1h36.625V116.5H1.5v-1h36.625V96.125H1.5v-1h36.625V75.75H1.5v-1h36.625V55.375H1.5v-1h36.625V34h1v20.375zm221.75 1H224.75V74.75h36.125V55.375zm-37.125 0h-36.125V74.75h36.125V55.375zm-37.125 0H150.5V74.75h36.125V55.375zm-37.125 0h-36.125V74.75H149.5V55.375zm-37.125 0H76.25V74.75h36.125V55.375zM39.125 75.75v19.375H75.25V75.75H39.125zm221.75 0H224.75v19.375h36.125V75.75zm-37.125 0h-36.125v19.375h36.125V75.75zm-37.125 0H150.5v19.375h36.125V75.75zm-37.125 0h-36.125v19.375H149.5V75.75zm-37.125 0H76.25v19.375h36.125V75.75zm-73.25 20.375V115.5H75.25V96.125H39.125zm221.75 0H224.75V115.5h36.125V96.125zm-37.125 0h-36.125V115.5h36.125V96.125zm-37.125 0H150.5V115.5h36.125V96.125zm-37.125 0h-36.125V115.5H149.5V96.125zm-37.125 0H76.25V115.5h36.125V96.125zM39.125 116.5v19.375H75.25V116.5H39.125zm221.75 0H224.75v19.375h36.125V116.5zm-37.125 0h-36.125v19.375h36.125V116.5zm-37.125 0H150.5v19.375h36.125V116.5zm-37.125 0h-36.125v19.375H149.5V116.5zm-37.125 0H76.25v19.375h36.125V116.5zm-73.25 20.375v19.375H75.25v-19.375H39.125zm221.75 0H224.75v19.375h36.125v-19.375zm-37.125 0h-36.125v19.375h36.125v-19.375zm-37.125 0H150.5v19.375h36.125v-19.375zm-37.125 0h-36.125v19.375H149.5v-19.375zm-37.125 0H76.25v19.375h36.125v-19.375zm-73.25 20.375v19.375H75.25V157.25H39.125zm221.75 0H224.75v19.375h36.125V157.25zm-37.125 0h-36.125v19.375h36.125V157.25zm-37.125 0H150.5v19.375h36.125V157.25zm-37.125 0h-36.125v19.375H149.5V157.25zm-37.125 0H76.25v19.375h36.125V157.25z" fill="#DFDEDE"/><path stroke="#C2C2C2" stroke-width="2" d="M1 1h298v197H1z"/><path fill="#C2C2C2" d="M0 33h300v2H0z"/><g transform="translate(4 33.36)"><path d="M.9 30.163h290.625" stroke="#15212D" stroke-width="1.133" fill="#D8D8D8" fill-rule="nonzero" stroke-dasharray="7.5"/><path d="M237.863.725V161" stroke="#2A3052" stroke-width="1.211" stroke-linejoin="round"/><path d="M.9 123.5h290.625" stroke="#15212D" stroke-width="1.133" fill="#D8D8D8" fill-rule="nonzero" stroke-dasharray="7.5"/><path stroke="#2A3052" stroke-width="3.633" stroke-linecap="round" stroke-linejoin="round" d="M17.25 82.063L53.115 66l26.494 21.96 43.594-57.247 31.63 93.487 18.215-49.436 27.446-22.991 37.05 24.963"/><ellipse cx="8.137" cy="11.475" rx="8.137" ry="8.475" opacity=".6" transform="translate(147 112.25)" fill="#FFF" fill-rule="nonzero"/><ellipse stroke="#E88024" stroke-width="2.422" cx="155.137" cy="123.725" rx="8.137" ry="8.475"/><ellipse cx="10.012" cy="8.475" rx="8.137" ry="8.475" opacity=".6" transform="translate(113.25 22.25)" fill="#FFF" fill-rule="nonzero"/><ellipse stroke="#E88024" stroke-width="2.422" cx="123.263" cy="30.725" rx="8.137" ry="8.475"/></g><g fill="#2A3052"><path d="M17.29 122.756v.83h-3.982v2.82H16.7v.855h-3.392v3.609h-1.17v-8.114zM18.315 124.854h1.076v5.92h-1.076zM18.33 122.165v1.068h1.096v-1.068zM21.168 124.91h.942c.005.188.031.436.08.746.935-1.11 2.832-1.31 3.483.239.636-.985 1.265-1.248 2.29-1.077 1.297.215 1.49 1.68 1.553 2.234-.027 1.586-.01 2.98 0 3.818h-1.092v-3.818c-.032-.564-.222-1.396-1.18-1.396s-1.388.878-1.388 1.396v3.818h-1.085v-3.818c0-.667-.408-1.53-1.371-1.396-.963.134-1.044.566-1.21.793.01 1.347.01 2.82 0 4.421h-1.022v-5.96z"/></g><path d="M121.34 49.79h-3.085l-.67 2.033h-1.5l3.037-8.705h1.381l3.002 8.705h-1.501l-.664-2.033zm-2.684-1.213h2.29l-1.118-3.432h-.036l-1.136 3.432zm7.324 3.246h-1.453v-9.327h1.453v9.327zm3.486-8.041v1.572h1.16v1.076h-1.16v3.576c0 .267.057.457.173.57.116.114.269.171.46.171a1.285 1.285 0 0 0 .449-.078l.155 1.064a1.67 1.67 0 0 1-.44.159c-.169.038-.345.057-.528.057-.534 0-.954-.157-1.259-.47-.305-.313-.457-.804-.457-1.473V46.43h-.987v-1.076h.987v-1.572h1.447zm2.062 4.747c0-.965.264-1.755.793-2.37.528-.617 1.25-.925 2.167-.925.929 0 1.657.308 2.185.924.528.616.792 1.406.792 2.37v.126c0 .973-.264 1.765-.792 2.377-.528.612-1.252.918-2.173.918-.925 0-1.651-.307-2.18-.921-.528-.614-.792-1.405-.792-2.374v-.125zm1.453.125c0 .634.124 1.148.37 1.543.248.395.63.592 1.149.592.506 0 .886-.198 1.139-.595.253-.397.38-.91.38-1.54v-.125c0-.618-.127-1.127-.38-1.528-.253-.4-.637-.6-1.151-.6-.506 0-.884.2-1.133.6-.25.4-.374.91-.374 1.528v.125zM145.285 179.845v-8.602h2.818c.95 0 1.692.196 2.227.588.536.392.804.978.804 1.758 0 .378-.107.718-.322 1.022a1.998 1.998 0 0 1-.895.69c.551.092.976.33 1.273.716.297.386.446.839.446 1.359 0 .807-.264 1.42-.792 1.84-.527.42-1.256.63-2.185.63h-3.374zm1.436-3.91v2.764h1.938c.496 0 .878-.113 1.146-.34.267-.226.401-.554.401-.983 0-.434-.132-.778-.395-1.034-.264-.256-.635-.392-1.111-.408h-1.98zm0-1.07h1.536c.445 0 .796-.106 1.054-.316.258-.211.387-.51.387-.895 0-.426-.136-.742-.407-.949-.272-.206-.668-.31-1.188-.31h-1.382v2.47zm9.972 4.98a5.298 5.298 0 0 1-.127-.473 3.379 3.379 0 0 1-.068-.46c-.193.299-.45.55-.774.753a1.991 1.991 0 0 1-1.08.304c-.666 0-1.177-.171-1.534-.514-.356-.343-.535-.813-.535-1.412 0-.618.245-1.1.733-1.444.488-.345 1.176-.517 2.062-.517h1.116v-.561c0-.335-.097-.597-.292-.786-.195-.19-.478-.284-.848-.284-.327 0-.587.078-.78.234a.742.742 0 0 0-.29.605l-1.382.006-.005-.035c-.028-.505.197-.952.676-1.341.478-.39 1.102-.585 1.87-.585.744 0 1.345.189 1.802.567.457.378.685.921.685 1.63v2.842c0 .264.018.517.053.76.036.241.093.479.171.711h-1.453zm-1.754-1.028c.358 0 .682-.09.971-.272.29-.18.482-.388.576-.62v-.945h-1.14c-.417 0-.744.103-.98.31-.237.207-.355.45-.355.73 0 .244.08.438.24.581.159.144.388.216.688.216zm6.014 1.028h-1.436v-6.392h1.436v6.392zm0-7.958h-1.436v-1.258h1.436v1.258zm3.899 3.758l1.181-2.192h1.649l-2.009 3.16 2.068 3.232h-1.63l-1.236-2.245-1.234 2.245h-1.643l2.068-3.232-2.009-3.16h1.631l1.164 2.192zm3.456.945c0-.953.26-1.734.783-2.343.522-.608 1.235-.912 2.141-.912.918 0 1.638.304 2.16.912.521.609.782 1.39.782 2.343v.124c0 .96-.26 1.744-.782 2.348-.522.605-1.238.907-2.148.907-.914 0-1.631-.303-2.153-.91-.522-.606-.783-1.388-.783-2.345v-.124zm1.436.124c0 .626.122 1.134.366 1.524.244.39.622.585 1.134.585.5 0 .875-.196 1.126-.588.25-.392.375-.899.375-1.521v-.124c0-.61-.125-1.114-.375-1.51-.25-.395-.63-.593-1.138-.593-.5 0-.873.198-1.12.593-.245.396-.368.9-.368 1.51v.124z" fill="#2A3052"/><path d="M22.09 21.354h-3.334l-.692 2.218H15.91l3.468-10.284h2.112l3.454 10.284h-2.155l-.699-2.218zm-2.825-1.617h2.324l-1.137-3.624h-.043l-1.144 3.624zm8.68 3.835h-2.062V12.554h2.062v11.018zm4.167-9.514v1.872h1.293v1.448h-1.293v3.891c0 .297.063.509.188.636.124.127.288.19.49.19.109 0 .203-.005.283-.017a2.38 2.38 0 0 0 .275-.06l.17 1.49a3.6 3.6 0 0 1-1.243.212c-.711 0-1.258-.195-1.642-.586-.384-.39-.576-1.01-.576-1.858v-3.898h-1.116V15.93h1.116v-1.872h2.055zm2.246 5.622c0-1.14.318-2.073.954-2.8.636-.728 1.516-1.092 2.641-1.092 1.13 0 2.016.363 2.656 1.088.64.725.96 1.66.96 2.804v.148c0 1.15-.318 2.085-.956 2.808-.638.723-1.52 1.084-2.645 1.084-1.13 0-2.015-.361-2.653-1.084-.638-.723-.957-1.659-.957-2.808v-.148zm2.056.148c0 .697.122 1.256.367 1.678.245.421.64.632 1.187.632.532 0 .921-.212 1.169-.636.247-.423.37-.981.37-1.674v-.148c0-.678-.124-1.231-.374-1.66-.25-.428-.643-.642-1.18-.642-.532 0-.921.215-1.168.646-.248.43-.371.983-.371 1.656v.148zm10.827.142h-4.16v-1.59h4.16v1.59zm2.056 3.602V13.288h3.369c1.21 0 2.154.237 2.832.71.678.473 1.017 1.176 1.017 2.108 0 .471-.123.893-.367 1.265-.245.372-.603.652-1.074.84.64.118 1.123.396 1.448.833.325.438.487.95.487 1.533 0 .984-.325 1.73-.974 2.236-.65.506-1.57.759-2.762.759h-3.976zm2.062-4.549v2.967h1.914c.546 0 .963-.12 1.25-.357.287-.238.43-.59.43-1.056 0-.499-.14-.883-.423-1.151-.282-.269-.708-.403-1.278-.403h-1.893zm0-1.426h1.377c.551 0 .975-.113 1.271-.34.297-.225.445-.555.445-.988 0-.476-.149-.827-.448-1.053-.299-.226-.745-.339-1.338-.339h-1.307v2.72zm11.505 5.975a4.338 4.338 0 0 1-.194-.551 3.832 3.832 0 0 1-.116-.593c-.212.372-.492.68-.84.925-.35.245-.764.367-1.244.367-.8 0-1.417-.206-1.85-.618-.434-.412-.65-.973-.65-1.684 0-.75.288-1.33.865-1.741.577-.412 1.418-.618 2.525-.618h1.158v-.608c0-.367-.096-.652-.29-.854-.192-.203-.48-.304-.86-.304-.335 0-.593.081-.774.244-.182.162-.272.384-.272.667h-1.985l-.014-.042c-.033-.645.248-1.202.844-1.67.596-.47 1.374-.704 2.334-.704.918 0 1.661.231 2.229.693.567.461.85 1.123.85 1.984v3.157c0 .358.028.695.082 1.01.054.316.14.629.258.94h-2.056zm-1.885-1.377c.357 0 .678-.09.96-.269.283-.179.476-.386.58-.621v-1.081H61.36c-.438 0-.769.108-.992.325a1.068 1.068 0 0 0-.336.798c0 .259.084.465.25.618.168.153.4.23.697.23zm7.317 1.377h-2.063V15.93h2.063v7.642zm0-9.472h-2.063v-1.546h2.063V14.1zm4.57 4.26h.042l1.172-2.43h2.331l-2.302 3.778 2.38 3.864h-2.324l-1.25-2.536-1.25 2.536h-2.331l2.38-3.864-2.31-3.778h2.317l1.144 2.43zm4.054 1.32c0-1.14.317-2.073.953-2.8.636-.728 1.516-1.092 2.642-1.092 1.13 0 2.015.363 2.655 1.088.64.725.96 1.66.96 2.804v.148c0 1.15-.318 2.085-.956 2.808-.638.723-1.52 1.084-2.645 1.084-1.13 0-2.014-.361-2.652-1.084-.638-.723-.957-1.659-.957-2.808v-.148zm2.055.148c0 .697.122 1.256.367 1.678.245.421.64.632 1.187.632.532 0 .921-.212 1.169-.636.247-.423.37-.981.37-1.674v-.148c0-.678-.124-1.231-.374-1.66-.25-.428-.643-.642-1.18-.642-.531 0-.921.215-1.168.646-.247.43-.371.983-.371 1.656v.148z" fill="#020202"/><g fill="#2A3052"><path d="M250.284 113.923l.084.864a1.884 1.884 0 0 1 1.672-.948c.614 0 1.087.168 1.422.558.334.362.502.92.502 1.672v3.624h-1.032v-3.596c0-.501-.111-.864-.306-1.087-.195-.223-.502-.306-.892-.306-.307 0-.558.083-.78.223a1.61 1.61 0 0 0-.558.585v4.181h-1.032v-5.742l.92-.028zM246.527 111.993h1.048v7.746h-1.048zM255.602 113.852h1.048v5.841h-1.048zM264.121 113.908h1.031v5.674h-1.03zM264.135 111.33v1.024h1.05v-1.023zM261.665 115.924c.366-.01.71 0 .932 0 0-1.64-1.3-2.072-2.345-2.072-1.045 0-2.344.948-2.344 2.981 0 2.034 1.14 3.023 2.555 2.972 1.416-.051 2.134-1.127 2.134-1.92-.414.01-.518.01-.932 0 0 .749-.673 1.142-1.202 1.142-1.263 0-1.55-1.226-1.55-2.201 0-.975.323-2.178 1.452-2.178.957 0 1.3.742 1.3 1.276zM268.977 113.841c.652-.035 1.477.191 1.938.66.51.517.876 1.161.876 2.225 0 .941-.188 1.622-.634 2.172-.503.622-1.287.906-1.923.906-.66 0-1.375-.104-1.976-.66-.492-.454-.947-1.233-.902-2.321.05-1.202.437-1.888.902-2.323.47-.439 1.022-.62 1.72-.659zm.235.787c-.748 0-1.651.487-1.651 2 0 1.511.557 2.411 1.56 2.411 1.001 0 1.659-1.017 1.557-2.412-.101-1.394-.719-2-1.466-2zM255.658 113.011h.758l1.454-1.374h-1.233z"/></g></g></svg>