<?xml version="1.0" encoding="UTF-8"?>
<svg width="299px" height="197px" viewBox="0 0 299 197" version="1.1" xmlns="http://www.w3.org/2000/svg" xmlns:xlink="http://www.w3.org/1999/xlink">
    <!-- Generator: Sketch 53.1 (72631) - https://sketchapp.com -->
    <title>low tick</title>
    <desc>Created with Sketch.</desc>
    <g id="Page-1" stroke="none" stroke-width="1" fill="none" fill-rule="evenodd">
        <g id="low-tick" fill-rule="nonzero">
            <polygon id="Path" fill="#F1F2F2" points="0.00101428135 0 299 0 299 197 0 197"></polygon>
            <path d="M1.98671096,1.9798995 L1.98671096,195.020101 L297.013289,195.020101 L297.013289,1.9798995 L1.98671096,1.9798995 Z M299,0 L299,197 L0,197 L0,0 L299,0 Z" id="Path" fill="#C2C2C2"></path>
            <path d="M2.94050338,54.9484859 L2.94050338,53.7251569 L296.511027,53.7251569 L296.511027,54.9484859 L2.94050338,54.9484859 Z M2.94050338,95.8450829 L2.94050338,94.6217539 L296.511027,94.6217539 L296.511027,95.8450829 L2.94050338,95.8450829 Z M2.94050338,136.738664 L2.94050338,135.515336 L296.511027,135.515336 L296.511027,136.738664 L2.94050338,136.738664 Z M2.94050338,177.596062 L2.94050338,176.372734 L296.511027,176.372734 L296.511027,177.596062 L2.94050338,177.596062 Z M37.7845821,33.9081225 L39.0079111,33.9081225 L39.0079111,195.000852 L37.7845821,195.000852 L37.7845821,33.9081225 Z M74.9464436,33.9081225 L76.1697726,33.9081225 L76.1697726,195.000852 L74.9464436,195.000852 L74.9464436,33.9081225 Z M112.06891,33.9081225 L113.292238,33.9081225 L113.292238,195.000852 L112.06891,195.000852 L112.06891,33.9081225 Z M149.228752,33.9081225 L150.45208,33.9081225 L150.45208,195.000852 L149.228752,195.000852 L149.228752,33.9081225 Z M186.351218,33.9081225 L187.574546,33.9081225 L187.574546,195.000852 L186.351218,195.000852 L186.351218,33.9081225 Z M223.473684,33.9081225 L224.697012,33.9081225 L224.697012,195.000852 L223.473684,195.000852 L223.473684,33.9081225 Z M2.94050338,116.272777 L2.94050338,115.049448 L296.511027,115.049448 L296.511027,116.272777 L2.94050338,116.272777 Z" id="Shape" fill="#DFDEDE"></path>
            <polygon id="Path" fill="#15212D" points="2.94050338 161.639869 2.94050338 160.495335 296.511027 160.495335 296.511027 161.639869"></polygon>
            <polygon id="Path" fill="#C2C2C2" points="1 30 1 28 297 28 297 30"></polygon>
            <path d="M136.207603,107.216837 L91.0267149,142.618028 C90.4268878,143.088018 89.5990087,143.138382 88.9466331,142.744567 L38.4469473,112.259822 C37.5793355,111.736078 37.3005758,110.608161 37.8243202,109.740549 C38.3480645,108.872938 39.4759815,108.594178 40.3435933,109.117922 L89.759593,138.948487 L135.236484,103.315365 C135.972308,102.738814 137.023939,102.807569 137.678432,103.475017 L185.584163,152.328981 L245.172535,67.3437236 C245.754351,66.5139351 246.898682,66.3129133 247.72847,66.8947289 C248.558259,67.4765445 248.759281,68.6208757 248.177465,69.4506642 L187.321874,156.243235 C186.662965,157.182974 185.312791,157.294001 184.50922,156.474524 L136.207603,107.216837 Z" id="Path" fill="#2A3052"></path>
            <ellipse id="Oval" fill="#FFFFFF" opacity="0.6" cx="186.255787" cy="155.514413" rx="8.21946959" ry="8.5182398"></ellipse>
            <path d="M186.255787,165.255982 C181.030707,165.255982 176.812988,160.884953 176.812988,155.514413 C176.812988,150.143873 181.030707,145.772844 186.255787,145.772844 C191.480867,145.772844 195.698586,150.143873 195.698586,155.514413 C195.698586,160.884953 191.480867,165.255982 186.255787,165.255982 Z M186.255787,162.809324 C190.109683,162.809324 193.251928,159.552861 193.251928,155.514413 C193.251928,151.475965 190.109683,148.219502 186.255787,148.219502 C182.401891,148.219502 179.259646,151.475965 179.259646,155.514413 C179.259646,159.552861 182.401891,162.809324 186.255787,162.809324 Z" id="Oval" fill="#E88024"></path>
            <path d="M80.8847656,174.394531 L78.1425781,174.394531 L78.1425781,182 L77.0234375,182 L77.0234375,174.394531 L74.2871094,174.394531 L74.2871094,173.46875 L80.8847656,173.46875 L80.8847656,174.394531 Z M83.1582031,182 L82.0742188,182 L82.0742188,175.660156 L83.1582031,175.660156 L83.1582031,182 Z M81.9863281,173.978516 C81.9863281,173.802733 82.0400385,173.654297 82.1474609,173.533203 C82.2548833,173.412109 82.4140614,173.351562 82.625,173.351562 C82.8359386,173.351562 82.9960932,173.412109 83.1054688,173.533203 C83.2148443,173.654297 83.2695312,173.802733 83.2695312,173.978516 C83.2695312,174.154298 83.2148443,174.300781 83.1054688,174.417969 C82.9960932,174.535157 82.8359386,174.59375 82.625,174.59375 C82.4140614,174.59375 82.2548833,174.535157 82.1474609,174.417969 C82.0400385,174.300781 81.9863281,174.154298 81.9863281,173.978516 Z M84.6289062,178.777344 C84.6289062,177.781245 84.8574196,176.993167 85.3144531,176.413086 C85.7714867,175.833005 86.3847618,175.542969 87.1542969,175.542969 C87.9043006,175.542969 88.4960916,175.794919 88.9296875,176.298828 L88.9765625,175.660156 L89.9726562,175.660156 L89.9726562,184.4375 L88.8886719,184.4375 L88.8886719,181.414062 C88.4511697,181.882815 87.8691443,182.117188 87.1425781,182.117188 C86.3769493,182.117188 85.7666038,181.819339 85.3115234,181.223633 C84.856443,180.627927 84.6289062,179.837896 84.6289062,178.853516 L84.6289062,178.777344 Z M85.7128906,178.900391 C85.7128906,179.626957 85.8662094,180.197264 86.1728516,180.611328 C86.4794937,181.025393 86.8925755,181.232422 87.4121094,181.232422 C88.0566438,181.232422 88.5488264,180.947268 88.8886719,180.376953 L88.8886719,177.271484 C88.5449202,176.712888 88.0566438,176.433594 87.4238281,176.433594 C86.900388,176.433594 86.4843765,176.641599 86.1757812,177.057617 C85.867186,177.473635 85.7128906,178.087887 85.7128906,178.900391 Z M95.6269531,181.373047 C95.205076,181.869143 94.5859416,182.117188 93.7695312,182.117188 C93.0937466,182.117188 92.5791033,181.9209 92.2255859,181.52832 C91.8720685,181.13574 91.6933594,180.554691 91.6894531,179.785156 L91.6894531,175.660156 L92.7734375,175.660156 L92.7734375,179.755859 C92.7734375,180.716802 93.1640586,181.197266 93.9453125,181.197266 C94.7734416,181.197266 95.3242174,180.888675 95.5976562,180.271484 L95.5976562,175.660156 L96.6816406,175.660156 L96.6816406,182 L95.6503906,182 L95.6269531,181.373047 Z M100.958984,182.117188 C100.099605,182.117188 99.4003933,181.834964 98.8613281,181.270508 C98.3222629,180.706052 98.0527344,179.951177 98.0527344,179.005859 L98.0527344,178.806641 C98.0527344,178.177731 98.1728504,177.616213 98.4130859,177.12207 C98.6533215,176.627927 98.9892557,176.241212 99.4208984,175.961914 C99.8525412,175.682616 100.32031,175.542969 100.824219,175.542969 C101.648442,175.542969 102.28906,175.81445 102.746094,176.357422 C103.203127,176.900393 103.431641,177.677729 103.431641,178.689453 L103.431641,179.140625 L99.1367188,179.140625 C99.1523438,179.765628 99.3349592,180.270506 99.6845703,180.655273 C100.034181,181.040041 100.478513,181.232422 101.017578,181.232422 C101.400393,181.232422 101.724608,181.154298 101.990234,180.998047 C102.255861,180.841796 102.48828,180.634767 102.6875,180.376953 L103.349609,180.892578 C102.818357,181.708988 102.02149,182.117188 100.958984,182.117188 Z M100.824219,176.433594 C100.386717,176.433594 100.019533,176.592772 99.7226562,176.911133 C99.4257798,177.229494 99.2421879,177.675778 99.171875,178.25 L102.347656,178.25 L102.347656,178.167969 C102.316406,177.617185 102.16797,177.190431 101.902344,176.887695 C101.636717,176.584959 101.277346,176.433594 100.824219,176.433594 Z M106.941406,178.818359 L104.082031,178.818359 L104.082031,177.933594 L106.941406,177.933594 L106.941406,178.818359 Z M109.466797,174.125 L109.466797,175.660156 L110.650391,175.660156 L110.650391,176.498047 L109.466797,176.498047 L109.466797,180.429688 C109.466797,180.683595 109.519531,180.874023 109.625,181.000977 C109.730469,181.12793 109.910155,181.191406 110.164062,181.191406 C110.289063,181.191406 110.460936,181.167969 110.679688,181.121094 L110.679688,182 C110.39453,182.078125 110.117189,182.117188 109.847656,182.117188 C109.363279,182.117188 108.998048,181.970705 108.751953,181.677734 C108.505858,181.384764 108.382812,180.968753 108.382812,180.429688 L108.382812,176.498047 L107.228516,176.498047 L107.228516,175.660156 L108.382812,175.660156 L108.382812,174.125 L109.466797,174.125 Z M115.830078,182 C115.767578,181.874999 115.716797,181.652345 115.677734,181.332031 C115.173826,181.855471 114.572269,182.117188 113.873047,182.117188 C113.248044,182.117188 112.735354,181.940431 112.334961,181.586914 C111.934568,181.233397 111.734375,180.785159 111.734375,180.242188 C111.734375,179.582028 111.985349,179.069338 112.487305,178.704102 C112.98926,178.338865 113.695308,178.15625 114.605469,178.15625 L115.660156,178.15625 L115.660156,177.658203 C115.660156,177.279295 115.546876,176.97754 115.320312,176.75293 C115.093749,176.528319 114.759768,176.416016 114.318359,176.416016 C113.931639,176.416016 113.607423,176.513671 113.345703,176.708984 C113.083983,176.904298 112.953125,177.140624 112.953125,177.417969 L111.863281,177.417969 C111.863281,177.101561 111.975585,176.7959 112.200195,176.500977 C112.424806,176.206053 112.72949,175.972657 113.114258,175.800781 C113.499025,175.628905 113.921873,175.542969 114.382812,175.542969 C115.113285,175.542969 115.685545,175.725584 116.099609,176.09082 C116.513674,176.456057 116.728516,176.958981 116.744141,177.599609 L116.744141,180.517578 C116.744141,181.099612 116.818359,181.562498 116.966797,181.90625 L116.966797,182 L115.830078,182 Z M114.03125,181.173828 C114.371095,181.173828 114.693358,181.085938 114.998047,180.910156 C115.302736,180.734374 115.523437,180.505861 115.660156,180.224609 L115.660156,178.923828 L114.810547,178.923828 C113.482415,178.923828 112.818359,179.312496 112.818359,180.089844 C112.818359,180.429689 112.931639,180.695312 113.158203,180.886719 C113.384767,181.078126 113.675779,181.173828 114.03125,181.173828 Z M118.179688,178.777344 C118.179688,177.781245 118.408201,176.993167 118.865234,176.413086 C119.322268,175.833005 119.935543,175.542969 120.705078,175.542969 C121.455082,175.542969 122.046873,175.794919 122.480469,176.298828 L122.527344,175.660156 L123.523438,175.660156 L123.523438,184.4375 L122.439453,184.4375 L122.439453,181.414062 C122.001951,181.882815 121.419926,182.117188 120.693359,182.117188 C119.927731,182.117188 119.317385,181.819339 118.862305,181.223633 C118.407224,180.627927 118.179688,179.837896 118.179688,178.853516 L118.179688,178.777344 Z M119.263672,178.900391 C119.263672,179.626957 119.416991,180.197264 119.723633,180.611328 C120.030275,181.025393 120.443357,181.232422 120.962891,181.232422 C121.607425,181.232422 122.099608,180.947268 122.439453,180.376953 L122.439453,177.271484 C122.095701,176.712888 121.607425,176.433594 120.974609,176.433594 C120.451169,176.433594 120.035158,176.641599 119.726562,177.057617 C119.417967,177.473635 119.263672,178.087887 119.263672,178.900391 Z M129.177734,181.373047 C128.755857,181.869143 128.136723,182.117188 127.320312,182.117188 C126.644528,182.117188 126.129885,181.9209 125.776367,181.52832 C125.42285,181.13574 125.244141,180.554691 125.240234,179.785156 L125.240234,175.660156 L126.324219,175.660156 L126.324219,179.755859 C126.324219,180.716802 126.71484,181.197266 127.496094,181.197266 C128.324223,181.197266 128.874999,180.888675 129.148438,180.271484 L129.148438,175.660156 L130.232422,175.660156 L130.232422,182 L129.201172,182 L129.177734,181.373047 Z M134.509766,182.117188 C133.650386,182.117188 132.951175,181.834964 132.412109,181.270508 C131.873044,180.706052 131.603516,179.951177 131.603516,179.005859 L131.603516,178.806641 C131.603516,178.177731 131.723632,177.616213 131.963867,177.12207 C132.204103,176.627927 132.540037,176.241212 132.97168,175.961914 C133.403322,175.682616 133.871091,175.542969 134.375,175.542969 C135.199223,175.542969 135.839841,175.81445 136.296875,176.357422 C136.753909,176.900393 136.982422,177.677729 136.982422,178.689453 L136.982422,179.140625 L132.6875,179.140625 C132.703125,179.765628 132.88574,180.270506 133.235352,180.655273 C133.584963,181.040041 134.029294,181.232422 134.568359,181.232422 C134.951174,181.232422 135.275389,181.154298 135.541016,180.998047 C135.806642,180.841796 136.039062,180.634767 136.238281,180.376953 L136.900391,180.892578 C136.369138,181.708988 135.572271,182.117188 134.509766,182.117188 Z M134.375,176.433594 C133.937498,176.433594 133.570314,176.592772 133.273438,176.911133 C132.976561,177.229494 132.792969,177.675778 132.722656,178.25 L135.898438,178.25 L135.898438,178.167969 C135.867187,177.617185 135.718751,177.190431 135.453125,176.887695 C135.187499,176.584959 134.828127,176.433594 134.375,176.433594 Z M145.671875,179.134766 L146.855469,179.134766 L146.855469,180.019531 L145.671875,180.019531 L145.671875,182 L144.582031,182 L144.582031,180.019531 L140.697266,180.019531 L140.697266,179.380859 L144.517578,173.46875 L145.671875,173.46875 L145.671875,179.134766 Z M141.927734,179.134766 L144.582031,179.134766 L144.582031,174.951172 L144.453125,175.185547 L141.927734,179.134766 Z M147.910156,181.431641 C147.910156,181.24414 147.96582,181.087891 148.077148,180.962891 C148.188477,180.83789 148.355468,180.775391 148.578125,180.775391 C148.800782,180.775391 148.969726,180.83789 149.084961,180.962891 C149.200196,181.087891 149.257812,181.24414 149.257812,181.431641 C149.257812,181.611329 149.200196,181.761718 149.084961,181.882812 C148.969726,182.003907 148.800782,182.064453 148.578125,182.064453 C148.355468,182.064453 148.188477,182.003907 148.077148,181.882812 C147.96582,181.761718 147.910156,181.611329 147.910156,181.431641 Z M147.916016,176.257812 C147.916016,176.070312 147.971679,175.914063 148.083008,175.789062 C148.194336,175.664062 148.361327,175.601562 148.583984,175.601562 C148.806642,175.601562 148.975585,175.664062 149.09082,175.789062 C149.206055,175.914063 149.263672,176.070312 149.263672,176.257812 C149.263672,176.437501 149.206055,176.58789 149.09082,176.708984 C148.975585,176.830079 148.806642,176.890625 148.583984,176.890625 C148.361327,176.890625 148.194336,176.830079 148.083008,176.708984 C147.971679,176.58789 147.916016,176.437501 147.916016,176.257812 Z M159.886719,174.394531 L157.144531,174.394531 L157.144531,182 L156.025391,182 L156.025391,174.394531 L153.289062,174.394531 L153.289062,173.46875 L159.886719,173.46875 L159.886719,174.394531 Z M162.160156,182 L161.076172,182 L161.076172,175.660156 L162.160156,175.660156 L162.160156,182 Z M160.988281,173.978516 C160.988281,173.802733 161.041992,173.654297 161.149414,173.533203 C161.256836,173.412109 161.416015,173.351562 161.626953,173.351562 C161.837892,173.351562 161.998046,173.412109 162.107422,173.533203 C162.216797,173.654297 162.271484,173.802733 162.271484,173.978516 C162.271484,174.154298 162.216797,174.300781 162.107422,174.417969 C161.998046,174.535157 161.837892,174.59375 161.626953,174.59375 C161.416015,174.59375 161.256836,174.535157 161.149414,174.417969 C161.041992,174.300781 160.988281,174.154298 160.988281,173.978516 Z M163.630859,178.777344 C163.630859,177.781245 163.859373,176.993167 164.316406,176.413086 C164.77344,175.833005 165.386715,175.542969 166.15625,175.542969 C166.906254,175.542969 167.498045,175.794919 167.931641,176.298828 L167.978516,175.660156 L168.974609,175.660156 L168.974609,184.4375 L167.890625,184.4375 L167.890625,181.414062 C167.453123,181.882815 166.871097,182.117188 166.144531,182.117188 C165.378902,182.117188 164.768557,181.819339 164.313477,181.223633 C163.858396,180.627927 163.630859,179.837896 163.630859,178.853516 L163.630859,178.777344 Z M164.714844,178.900391 C164.714844,179.626957 164.868163,180.197264 165.174805,180.611328 C165.481447,181.025393 165.894529,181.232422 166.414062,181.232422 C167.058597,181.232422 167.55078,180.947268 167.890625,180.376953 L167.890625,177.271484 C167.546873,176.712888 167.058597,176.433594 166.425781,176.433594 C165.902341,176.433594 165.48633,176.641599 165.177734,177.057617 C164.869139,177.473635 164.714844,178.087887 164.714844,178.900391 Z M174.628906,181.373047 C174.207029,181.869143 173.587895,182.117188 172.771484,182.117188 C172.0957,182.117188 171.581056,181.9209 171.227539,181.52832 C170.874022,181.13574 170.695313,180.554691 170.691406,179.785156 L170.691406,175.660156 L171.775391,175.660156 L171.775391,179.755859 C171.775391,180.716802 172.166012,181.197266 172.947266,181.197266 C173.775395,181.197266 174.326171,180.888675 174.599609,180.271484 L174.599609,175.660156 L175.683594,175.660156 L175.683594,182 L174.652344,182 L174.628906,181.373047 Z M179.960938,182.117188 C179.101558,182.117188 178.402346,181.834964 177.863281,181.270508 C177.324216,180.706052 177.054688,179.951177 177.054688,179.005859 L177.054688,178.806641 C177.054688,178.177731 177.174803,177.616213 177.415039,177.12207 C177.655275,176.627927 177.991209,176.241212 178.422852,175.961914 C178.854494,175.682616 179.322263,175.542969 179.826172,175.542969 C180.650395,175.542969 181.291013,175.81445 181.748047,176.357422 C182.20508,176.900393 182.433594,177.677729 182.433594,178.689453 L182.433594,179.140625 L178.138672,179.140625 C178.154297,179.765628 178.336912,180.270506 178.686523,180.655273 C179.036135,181.040041 179.480466,181.232422 180.019531,181.232422 C180.402346,181.232422 180.726561,181.154298 180.992188,180.998047 C181.257814,180.841796 181.490233,180.634767 181.689453,180.376953 L182.351562,180.892578 C181.82031,181.708988 181.023443,182.117188 179.960938,182.117188 Z M179.826172,176.433594 C179.38867,176.433594 179.021486,176.592772 178.724609,176.911133 C178.427733,177.229494 178.244141,177.675778 178.173828,178.25 L181.349609,178.25 L181.349609,178.167969 C181.318359,177.617185 181.169923,177.190431 180.904297,176.887695 C180.638671,176.584959 180.279299,176.433594 179.826172,176.433594 Z M185.943359,178.818359 L183.083984,178.818359 L183.083984,177.933594 L185.943359,177.933594 L185.943359,178.818359 Z M188.46875,174.125 L188.46875,175.660156 L189.652344,175.660156 L189.652344,176.498047 L188.46875,176.498047 L188.46875,180.429688 C188.46875,180.683595 188.521484,180.874023 188.626953,181.000977 C188.732422,181.12793 188.912108,181.191406 189.166016,181.191406 C189.291016,181.191406 189.46289,181.167969 189.681641,181.121094 L189.681641,182 C189.396483,182.078125 189.119142,182.117188 188.849609,182.117188 C188.365232,182.117188 188.000001,181.970705 187.753906,181.677734 C187.507811,181.384764 187.384766,180.968753 187.384766,180.429688 L187.384766,176.498047 L186.230469,176.498047 L186.230469,175.660156 L187.384766,175.660156 L187.384766,174.125 L188.46875,174.125 Z M194.832031,182 C194.769531,181.874999 194.71875,181.652345 194.679688,181.332031 C194.175779,181.855471 193.574222,182.117188 192.875,182.117188 C192.249997,182.117188 191.737307,181.940431 191.336914,181.586914 C190.936521,181.233397 190.736328,180.785159 190.736328,180.242188 C190.736328,179.582028 190.987302,179.069338 191.489258,178.704102 C191.991213,178.338865 192.697261,178.15625 193.607422,178.15625 L194.662109,178.15625 L194.662109,177.658203 C194.662109,177.279295 194.548829,176.97754 194.322266,176.75293 C194.095702,176.528319 193.761721,176.416016 193.320312,176.416016 C192.933592,176.416016 192.609376,176.513671 192.347656,176.708984 C192.085936,176.904298 191.955078,177.140624 191.955078,177.417969 L190.865234,177.417969 C190.865234,177.101561 190.977538,176.7959 191.202148,176.500977 C191.426759,176.206053 191.731443,175.972657 192.116211,175.800781 C192.500978,175.628905 192.923826,175.542969 193.384766,175.542969 C194.115238,175.542969 194.687498,175.725584 195.101562,176.09082 C195.515627,176.456057 195.730469,176.958981 195.746094,177.599609 L195.746094,180.517578 C195.746094,181.099612 195.820312,181.562498 195.96875,181.90625 L195.96875,182 L194.832031,182 Z M193.033203,181.173828 C193.373049,181.173828 193.695311,181.085938 194,180.910156 C194.304689,180.734374 194.52539,180.505861 194.662109,180.224609 L194.662109,178.923828 L193.8125,178.923828 C192.484368,178.923828 191.820312,179.312496 191.820312,180.089844 C191.820312,180.429689 191.933593,180.695312 192.160156,180.886719 C192.38672,181.078126 192.677733,181.173828 193.033203,181.173828 Z M197.181641,178.777344 C197.181641,177.781245 197.410154,176.993167 197.867188,176.413086 C198.324221,175.833005 198.937496,175.542969 199.707031,175.542969 C200.457035,175.542969 201.048826,175.794919 201.482422,176.298828 L201.529297,175.660156 L202.525391,175.660156 L202.525391,184.4375 L201.441406,184.4375 L201.441406,181.414062 C201.003904,181.882815 200.421879,182.117188 199.695312,182.117188 C198.929684,182.117188 198.319338,181.819339 197.864258,181.223633 C197.409177,180.627927 197.181641,179.837896 197.181641,178.853516 L197.181641,178.777344 Z M198.265625,178.900391 C198.265625,179.626957 198.418944,180.197264 198.725586,180.611328 C199.032228,181.025393 199.44531,181.232422 199.964844,181.232422 C200.609378,181.232422 201.101561,180.947268 201.441406,180.376953 L201.441406,177.271484 C201.097655,176.712888 200.609378,176.433594 199.976562,176.433594 C199.453122,176.433594 199.037111,176.641599 198.728516,177.057617 C198.41992,177.473635 198.265625,178.087887 198.265625,178.900391 Z M208.179688,181.373047 C207.75781,181.869143 207.138676,182.117188 206.322266,182.117188 C205.646481,182.117188 205.131838,181.9209 204.77832,181.52832 C204.424803,181.13574 204.246094,180.554691 204.242188,179.785156 L204.242188,175.660156 L205.326172,175.660156 L205.326172,179.755859 C205.326172,180.716802 205.716793,181.197266 206.498047,181.197266 C207.326176,181.197266 207.876952,180.888675 208.150391,180.271484 L208.150391,175.660156 L209.234375,175.660156 L209.234375,182 L208.203125,182 L208.179688,181.373047 Z M213.511719,182.117188 C212.652339,182.117188 211.953128,181.834964 211.414062,181.270508 C210.874997,180.706052 210.605469,179.951177 210.605469,179.005859 L210.605469,178.806641 C210.605469,178.177731 210.725585,177.616213 210.96582,177.12207 C211.206056,176.627927 211.54199,176.241212 211.973633,175.961914 C212.405276,175.682616 212.873044,175.542969 213.376953,175.542969 C214.201176,175.542969 214.841795,175.81445 215.298828,176.357422 C215.755862,176.900393 215.984375,177.677729 215.984375,178.689453 L215.984375,179.140625 L211.689453,179.140625 C211.705078,179.765628 211.887694,180.270506 212.237305,180.655273 C212.586916,181.040041 213.031247,181.232422 213.570312,181.232422 C213.953127,181.232422 214.277342,181.154298 214.542969,180.998047 C214.808595,180.841796 215.041015,180.634767 215.240234,180.376953 L215.902344,180.892578 C215.371091,181.708988 214.574224,182.117188 213.511719,182.117188 Z M213.376953,176.433594 C212.939451,176.433594 212.572267,176.592772 212.275391,176.911133 C211.978514,177.229494 211.794922,177.675778 211.724609,178.25 L214.900391,178.25 L214.900391,178.167969 C214.86914,177.617185 214.720704,177.190431 214.455078,176.887695 C214.189452,176.584959 213.83008,176.433594 213.376953,176.433594 Z M221.228516,175.660156 L221.257812,176.363281 C221.722659,175.816404 222.349605,175.542969 223.138672,175.542969 C224.025395,175.542969 224.628905,175.882809 224.949219,176.5625 C225.160157,176.257811 225.434569,176.01172 225.772461,175.824219 C226.110353,175.636718 226.509763,175.542969 226.970703,175.542969 C228.361335,175.542969 229.068359,176.27929 229.091797,177.751953 L229.091797,182 L228.007812,182 L228.007812,177.816406 C228.007812,177.363279 227.904298,177.024415 227.697266,176.799805 C227.490233,176.575194 227.142581,176.462891 226.654297,176.462891 C226.251951,176.462891 225.91797,176.583007 225.652344,176.823242 C225.386717,177.063478 225.232422,177.386717 225.189453,177.792969 L225.189453,182 L224.099609,182 L224.099609,177.845703 C224.099609,176.923824 223.648442,176.462891 222.746094,176.462891 C222.035153,176.462891 221.548829,176.765622 221.287109,177.371094 L221.287109,182 L220.203125,182 L220.203125,175.660156 L221.228516,175.660156 Z M234.640625,182 C234.578125,181.874999 234.527344,181.652345 234.488281,181.332031 C233.984372,181.855471 233.382816,182.117188 232.683594,182.117188 C232.058591,182.117188 231.5459,181.940431 231.145508,181.586914 C230.745115,181.233397 230.544922,180.785159 230.544922,180.242188 C230.544922,179.582028 230.795896,179.069338 231.297852,178.704102 C231.799807,178.338865 232.505855,178.15625 233.416016,178.15625 L234.470703,178.15625 L234.470703,177.658203 C234.470703,177.279295 234.357423,176.97754 234.130859,176.75293 C233.904296,176.528319 233.570315,176.416016 233.128906,176.416016 C232.742186,176.416016 232.41797,176.513671 232.15625,176.708984 C231.89453,176.904298 231.763672,177.140624 231.763672,177.417969 L230.673828,177.417969 C230.673828,177.101561 230.786132,176.7959 231.010742,176.500977 C231.235353,176.206053 231.540037,175.972657 231.924805,175.800781 C232.309572,175.628905 232.73242,175.542969 233.193359,175.542969 C233.923832,175.542969 234.496092,175.725584 234.910156,176.09082 C235.324221,176.456057 235.539062,176.958981 235.554688,177.599609 L235.554688,180.517578 C235.554688,181.099612 235.628906,181.562498 235.777344,181.90625 L235.777344,182 L234.640625,182 Z M232.841797,181.173828 C233.181642,181.173828 233.503905,181.085938 233.808594,180.910156 C234.113283,180.734374 234.333984,180.505861 234.470703,180.224609 L234.470703,178.923828 L233.621094,178.923828 C232.292962,178.923828 231.628906,179.312496 231.628906,180.089844 C231.628906,180.429689 231.742186,180.695312 231.96875,180.886719 C232.195314,181.078126 232.486326,181.173828 232.841797,181.173828 Z M238.431641,182 L237.347656,182 L237.347656,175.660156 L238.431641,175.660156 L238.431641,182 Z M237.259766,173.978516 C237.259766,173.802733 237.313476,173.654297 237.420898,173.533203 C237.528321,173.412109 237.687499,173.351562 237.898438,173.351562 C238.109376,173.351562 238.269531,173.412109 238.378906,173.533203 C238.488282,173.654297 238.542969,173.802733 238.542969,173.978516 C238.542969,174.154298 238.488282,174.300781 238.378906,174.417969 C238.269531,174.535157 238.109376,174.59375 237.898438,174.59375 C237.687499,174.59375 237.528321,174.535157 237.420898,174.417969 C237.313476,174.300781 237.259766,174.154298 237.259766,173.978516 Z M243.857422,180.318359 C243.857422,180.025389 243.747071,179.797852 243.526367,179.635742 C243.305663,179.473632 242.920901,179.333985 242.37207,179.216797 C241.823239,179.099609 241.387697,178.958985 241.06543,178.794922 C240.743162,178.630859 240.504884,178.435548 240.350586,178.208984 C240.196288,177.982421 240.119141,177.712892 240.119141,177.400391 C240.119141,176.880857 240.338865,176.441408 240.77832,176.082031 C241.217776,175.722654 241.779293,175.542969 242.462891,175.542969 C243.181644,175.542969 243.764646,175.728514 244.211914,176.099609 C244.659182,176.470705 244.882812,176.94531 244.882812,177.523438 L243.792969,177.523438 C243.792969,177.226561 243.666993,176.970704 243.415039,176.755859 C243.163085,176.541015 242.845705,176.433594 242.462891,176.433594 C242.068357,176.433594 241.759767,176.51953 241.537109,176.691406 C241.314452,176.863282 241.203125,177.087889 241.203125,177.365234 C241.203125,177.626954 241.30664,177.824218 241.513672,177.957031 C241.720704,178.089844 242.094724,178.216796 242.635742,178.337891 C243.176761,178.458985 243.615233,178.603515 243.951172,178.771484 C244.287111,178.939454 244.536132,179.1416 244.698242,179.37793 C244.860352,179.614259 244.941406,179.902342 244.941406,180.242188 C244.941406,180.808597 244.714846,181.262694 244.261719,181.604492 C243.808591,181.946291 243.220707,182.117188 242.498047,182.117188 C241.990232,182.117188 241.541018,182.027345 241.150391,181.847656 C240.759764,181.667968 240.454103,181.416994 240.233398,181.094727 C240.012694,180.772459 239.902344,180.42383 239.902344,180.048828 L240.986328,180.048828 C241.005859,180.412111 241.151366,180.700194 241.422852,180.913086 C241.694337,181.125978 242.052732,181.232422 242.498047,181.232422 C242.908205,181.232422 243.237303,181.149415 243.485352,180.983398 C243.7334,180.817382 243.857422,180.595705 243.857422,180.318359 Z M254.691406,178.900391 C254.691406,179.869145 254.468752,180.647458 254.023438,181.235352 C253.578123,181.823245 252.980473,182.117188 252.230469,182.117188 C251.429683,182.117188 250.810549,181.833987 250.373047,181.267578 L250.320312,182 L249.324219,182 L249.324219,173 L250.408203,173 L250.408203,176.357422 C250.845705,175.81445 251.449215,175.542969 252.21875,175.542969 C252.988285,175.542969 253.592771,175.833981 254.032227,176.416016 C254.471682,176.99805 254.691406,177.794917 254.691406,178.806641 L254.691406,178.900391 Z M253.607422,178.777344 C253.607422,178.039059 253.464845,177.468752 253.179688,177.066406 C252.89453,176.66406 252.484378,176.462891 251.949219,176.462891 C251.234371,176.462891 250.720705,176.794919 250.408203,177.458984 L250.408203,180.201172 C250.740236,180.865238 251.257809,181.197266 251.960938,181.197266 C252.480471,181.197266 252.884764,180.996096 253.173828,180.59375 C253.462892,180.191404 253.607422,179.585942 253.607422,178.777344 Z M259.970703,182 C259.908203,181.874999 259.857422,181.652345 259.818359,181.332031 C259.314451,181.855471 258.712894,182.117188 258.013672,182.117188 C257.388669,182.117188 256.875979,181.940431 256.475586,181.586914 C256.075193,181.233397 255.875,180.785159 255.875,180.242188 C255.875,179.582028 256.125974,179.069338 256.62793,178.704102 C257.129885,178.338865 257.835933,178.15625 258.746094,178.15625 L259.800781,178.15625 L259.800781,177.658203 C259.800781,177.279295 259.687501,176.97754 259.460938,176.75293 C259.234374,176.528319 258.900393,176.416016 258.458984,176.416016 C258.072264,176.416016 257.748048,176.513671 257.486328,176.708984 C257.224608,176.904298 257.09375,177.140624 257.09375,177.417969 L256.003906,177.417969 C256.003906,177.101561 256.11621,176.7959 256.34082,176.500977 C256.565431,176.206053 256.870115,175.972657 257.254883,175.800781 C257.63965,175.628905 258.062498,175.542969 258.523438,175.542969 C259.25391,175.542969 259.82617,175.725584 260.240234,176.09082 C260.654299,176.456057 260.869141,176.958981 260.884766,177.599609 L260.884766,180.517578 C260.884766,181.099612 260.958984,181.562498 261.107422,181.90625 L261.107422,182 L259.970703,182 Z M258.171875,181.173828 C258.51172,181.173828 258.833983,181.085938 259.138672,180.910156 C259.443361,180.734374 259.664062,180.505861 259.800781,180.224609 L259.800781,178.923828 L258.951172,178.923828 C257.62304,178.923828 256.958984,179.312496 256.958984,180.089844 C256.958984,180.429689 257.072264,180.695312 257.298828,180.886719 C257.525392,181.078126 257.816404,181.173828 258.171875,181.173828 Z M263.761719,182 L262.677734,182 L262.677734,175.660156 L263.761719,175.660156 L263.761719,182 Z M262.589844,173.978516 C262.589844,173.802733 262.643554,173.654297 262.750977,173.533203 C262.858399,173.412109 263.017577,173.351562 263.228516,173.351562 C263.439454,173.351562 263.599609,173.412109 263.708984,173.533203 C263.81836,173.654297 263.873047,173.802733 263.873047,173.978516 C263.873047,174.154298 263.81836,174.300781 263.708984,174.417969 C263.599609,174.535157 263.439454,174.59375 263.228516,174.59375 C263.017577,174.59375 262.858399,174.535157 262.750977,174.417969 C262.643554,174.300781 262.589844,174.154298 262.589844,173.978516 Z M267.623047,177.974609 L269.029297,175.660156 L270.294922,175.660156 L268.220703,178.794922 L270.359375,182 L269.105469,182 L267.640625,179.626953 L266.175781,182 L264.916016,182 L267.054688,178.794922 L264.980469,175.660156 L266.234375,175.660156 L267.623047,177.974609 Z M271.15625,178.771484 C271.15625,178.150388 271.278319,177.591799 271.522461,177.095703 C271.766603,176.599607 272.106443,176.216798 272.541992,175.947266 C272.977541,175.677733 273.474607,175.542969 274.033203,175.542969 C274.896489,175.542969 275.594724,175.841794 276.12793,176.439453 C276.661135,177.037112 276.927734,177.832026 276.927734,178.824219 L276.927734,178.900391 C276.927734,179.517581 276.809571,180.071287 276.573242,180.561523 C276.336913,181.05176 275.999026,181.433592 275.55957,181.707031 C275.120115,181.98047 274.615237,182.117188 274.044922,182.117188 C273.185543,182.117188 272.48926,181.818362 271.956055,181.220703 C271.422849,180.623044 271.15625,179.832036 271.15625,178.847656 L271.15625,178.771484 Z M272.246094,178.900391 C272.246094,179.603519 272.409178,180.167967 272.735352,180.59375 C273.061525,181.019533 273.498044,181.232422 274.044922,181.232422 C274.595706,181.232422 275.033202,181.016604 275.357422,180.584961 C275.681642,180.153318 275.84375,179.548832 275.84375,178.771484 C275.84375,178.076168 275.678713,177.512697 275.348633,177.081055 C275.018553,176.649412 274.580081,176.433594 274.033203,176.433594 C273.498044,176.433594 273.066408,176.646482 272.738281,177.072266 C272.410155,177.498049 272.246094,178.107418 272.246094,178.900391 Z" id="Tique-taque4:Tique-taquemaisbaixo" fill="#2A3052"></path>
            <path d="M169.032227,51.1269531 L165.833008,51.1269531 L165.833008,60 L164.527344,60 L164.527344,51.1269531 L161.334961,51.1269531 L161.334961,50.046875 L169.032227,50.046875 L169.032227,51.1269531 Z M171.68457,60 L170.419922,60 L170.419922,52.6035156 L171.68457,52.6035156 L171.68457,60 Z M170.317383,50.6416016 C170.317383,50.4365224 170.380045,50.2633471 170.505371,50.1220703 C170.630697,49.9807936 170.816405,49.9101562 171.0625,49.9101562 C171.308595,49.9101562 171.495442,49.9807936 171.623047,50.1220703 C171.750652,50.2633471 171.814453,50.4365224 171.814453,50.6416016 C171.814453,50.8466807 171.750652,51.0175774 171.623047,51.1542969 C171.495442,51.2910163 171.308595,51.359375 171.0625,51.359375 C170.816405,51.359375 170.630697,51.2910163 170.505371,51.1542969 C170.380045,51.0175774 170.317383,50.8466807 170.317383,50.6416016 Z M173.400391,56.2402344 C173.400391,55.0781192 173.66699,54.1586948 174.200195,53.4819336 C174.733401,52.8051724 175.448889,52.4667969 176.34668,52.4667969 C177.221684,52.4667969 177.912107,52.7607392 178.417969,53.3486328 L178.472656,52.6035156 L179.634766,52.6035156 L179.634766,62.84375 L178.370117,62.84375 L178.370117,59.3164062 C177.859698,59.863284 177.180668,60.1367188 176.333008,60.1367188 C175.439774,60.1367188 174.727704,59.7892287 174.196777,59.0942383 C173.66585,58.3992478 173.400391,57.4775448 173.400391,56.3291016 L173.400391,56.2402344 Z M174.665039,56.3837891 C174.665039,57.2314496 174.843911,57.8968075 175.20166,58.3798828 C175.559409,58.8629581 176.041338,59.1044922 176.647461,59.1044922 C177.399418,59.1044922 177.973631,58.7718132 178.370117,58.1064453 L178.370117,54.4833984 C177.969074,53.8317025 177.399418,53.5058594 176.661133,53.5058594 C176.050453,53.5058594 175.565106,53.7485327 175.205078,54.2338867 C174.84505,54.7192407 174.665039,55.4358677 174.665039,56.3837891 Z M186.231445,59.2685547 C185.739255,59.8473336 185.016932,60.1367188 184.064453,60.1367188 C183.276038,60.1367188 182.675621,59.9077171 182.263184,59.449707 C181.850747,58.9916969 181.642253,58.3138066 181.637695,57.4160156 L181.637695,52.6035156 L182.902344,52.6035156 L182.902344,57.3818359 C182.902344,58.5029353 183.358068,59.0634766 184.269531,59.0634766 C185.235682,59.0634766 185.878254,58.7034541 186.197266,57.9833984 L186.197266,52.6035156 L187.461914,52.6035156 L187.461914,60 L186.258789,60 L186.231445,59.2685547 Z M192.452148,60.1367188 C191.449539,60.1367188 190.633792,59.8074577 190.004883,59.1489258 C189.375973,58.4903938 189.061523,57.609706 189.061523,56.5068359 L189.061523,56.2744141 C189.061523,55.5406864 189.201659,54.8855823 189.481934,54.309082 C189.762208,53.7325818 190.154132,53.2814144 190.657715,52.9555664 C191.161298,52.6297184 191.707028,52.4667969 192.294922,52.4667969 C193.256515,52.4667969 194.003904,52.7835255 194.537109,53.4169922 C195.070315,54.0504589 195.336914,54.9573509 195.336914,56.1376953 L195.336914,56.6640625 L190.326172,56.6640625 C190.344401,57.3932328 190.557452,57.9822569 190.965332,58.4311523 C191.373212,58.8800478 191.891598,59.1044922 192.520508,59.1044922 C192.967125,59.1044922 193.345376,59.0133473 193.655273,58.8310547 C193.965171,58.6487621 194.236327,58.4072281 194.46875,58.1064453 L195.241211,58.7080078 C194.621416,59.6604865 193.691738,60.1367188 192.452148,60.1367188 Z M192.294922,53.5058594 C191.784503,53.5058594 191.356122,53.6915672 191.009766,54.0629883 C190.66341,54.4344094 190.449219,54.9550748 190.367188,55.625 L194.072266,55.625 L194.072266,55.5292969 C194.035807,54.8867155 193.862632,54.3888364 193.552734,54.0356445 C193.242837,53.6824527 192.82357,53.5058594 192.294922,53.5058594 Z M199.431641,56.2880859 L196.095703,56.2880859 L196.095703,55.2558594 L199.431641,55.2558594 L199.431641,56.2880859 Z M202.37793,50.8125 L202.37793,52.6035156 L203.758789,52.6035156 L203.758789,53.5810547 L202.37793,53.5810547 L202.37793,58.1679688 C202.37793,58.4641942 202.439453,58.6863599 202.5625,58.8344727 C202.685547,58.9825854 202.895181,59.0566406 203.191406,59.0566406 C203.33724,59.0566406 203.537759,59.0292971 203.792969,58.9746094 L203.792969,60 C203.460285,60.0911463 203.13672,60.1367188 202.822266,60.1367188 C202.257159,60.1367188 201.831056,59.965822 201.543945,59.6240234 C201.256835,59.2822249 201.113281,58.7968781 201.113281,58.1679688 L201.113281,53.5810547 L199.766602,53.5810547 L199.766602,52.6035156 L201.113281,52.6035156 L201.113281,50.8125 L202.37793,50.8125 Z M209.801758,60 C209.728841,59.8541659 209.669597,59.5944029 209.624023,59.2207031 C209.03613,59.8313833 208.334314,60.1367188 207.518555,60.1367188 C206.789384,60.1367188 206.191246,59.9305034 205.724121,59.5180664 C205.256996,59.1056294 205.023438,58.5826855 205.023438,57.9492188 C205.023438,57.1790326 205.316241,56.5808941 205.901855,56.1547852 C206.48747,55.7286763 207.311193,55.515625 208.373047,55.515625 L209.603516,55.515625 L209.603516,54.9345703 C209.603516,54.4925108 209.471355,54.1404635 209.207031,53.878418 C208.942707,53.6163724 208.553062,53.4853516 208.038086,53.4853516 C207.586912,53.4853516 207.20866,53.5992827 206.90332,53.8271484 C206.59798,54.0550142 206.445312,54.3307275 206.445312,54.6542969 L205.173828,54.6542969 C205.173828,54.2851544 205.304849,53.9285499 205.566895,53.5844727 C205.82894,53.2403954 206.184405,52.9681 206.633301,52.7675781 C207.082196,52.5670563 207.575518,52.4667969 208.113281,52.4667969 C208.965499,52.4667969 209.633136,52.6798481 210.116211,53.105957 C210.599286,53.5320659 210.849935,54.1188114 210.868164,54.8662109 L210.868164,58.2705078 C210.868164,58.9495477 210.954752,59.4895813 211.12793,59.890625 L211.12793,60 L209.801758,60 Z M207.703125,59.0361328 C208.099611,59.0361328 208.475584,58.9335948 208.831055,58.7285156 C209.186525,58.5234365 209.44401,58.2568376 209.603516,57.9287109 L209.603516,56.4111328 L208.612305,56.4111328 C207.062818,56.4111328 206.288086,56.8645788 206.288086,57.7714844 C206.288086,58.1679707 206.420246,58.4778635 206.68457,58.7011719 C206.948895,58.9244803 207.288409,59.0361328 207.703125,59.0361328 Z M212.542969,56.2402344 C212.542969,55.0781192 212.809568,54.1586948 213.342773,53.4819336 C213.875979,52.8051724 214.591467,52.4667969 215.489258,52.4667969 C216.364262,52.4667969 217.054685,52.7607392 217.560547,53.3486328 L217.615234,52.6035156 L218.777344,52.6035156 L218.777344,62.84375 L217.512695,62.84375 L217.512695,59.3164062 C217.002276,59.863284 216.323246,60.1367188 215.475586,60.1367188 C214.582352,60.1367188 213.870283,59.7892287 213.339355,59.0942383 C212.808428,58.3992478 212.542969,57.4775448 212.542969,56.3291016 L212.542969,56.2402344 Z M213.807617,56.3837891 C213.807617,57.2314496 213.986489,57.8968075 214.344238,58.3798828 C214.701987,58.8629581 215.183916,59.1044922 215.790039,59.1044922 C216.541996,59.1044922 217.116209,58.7718132 217.512695,58.1064453 L217.512695,54.4833984 C217.111652,53.8317025 216.541996,53.5058594 215.803711,53.5058594 C215.193031,53.5058594 214.707684,53.7485327 214.347656,54.2338867 C213.987628,54.7192407 213.807617,55.4358677 213.807617,56.3837891 Z M225.374023,59.2685547 C224.881833,59.8473336 224.15951,60.1367188 223.207031,60.1367188 C222.418616,60.1367188 221.818199,59.9077171 221.405762,59.449707 C220.993325,58.9916969 220.784831,58.3138066 220.780273,57.4160156 L220.780273,52.6035156 L222.044922,52.6035156 L222.044922,57.3818359 C222.044922,58.5029353 222.500646,59.0634766 223.412109,59.0634766 C224.37826,59.0634766 225.020832,58.7034541 225.339844,57.9833984 L225.339844,52.6035156 L226.604492,52.6035156 L226.604492,60 L225.401367,60 L225.374023,59.2685547 Z M231.594727,60.1367188 C230.592117,60.1367188 229.77637,59.8074577 229.147461,59.1489258 C228.518552,58.4903938 228.204102,57.609706 228.204102,56.5068359 L228.204102,56.2744141 C228.204102,55.5406864 228.344237,54.8855823 228.624512,54.309082 C228.904787,53.7325818 229.29671,53.2814144 229.800293,52.9555664 C230.303876,52.6297184 230.849606,52.4667969 231.4375,52.4667969 C232.399093,52.4667969 233.146482,52.7835255 233.679688,53.4169922 C234.212893,54.0504589 234.479492,54.9573509 234.479492,56.1376953 L234.479492,56.6640625 L229.46875,56.6640625 C229.486979,57.3932328 229.700031,57.9822569 230.10791,58.4311523 C230.51579,58.8800478 231.034177,59.1044922 231.663086,59.1044922 C232.109703,59.1044922 232.487954,59.0133473 232.797852,58.8310547 C233.107749,58.6487621 233.378905,58.4072281 233.611328,58.1064453 L234.383789,58.7080078 C233.763994,59.6604865 232.834316,60.1367188 231.594727,60.1367188 Z M231.4375,53.5058594 C230.927081,53.5058594 230.4987,53.6915672 230.152344,54.0629883 C229.805988,54.4344094 229.591797,54.9550748 229.509766,55.625 L233.214844,55.625 L233.214844,55.5292969 C233.178385,54.8867155 233.00521,54.3888364 232.695312,54.0356445 C232.385415,53.6824527 231.966148,53.5058594 231.4375,53.5058594 Z M239.100586,56.2402344 C239.100586,55.1054631 239.369463,54.1928745 239.907227,53.5024414 C240.44499,52.8120083 241.149084,52.4667969 242.019531,52.4667969 C242.885421,52.4667969 243.571287,52.7630179 244.077148,53.3554688 L244.077148,49.5 L245.341797,49.5 L245.341797,60 L244.179688,60 L244.118164,59.2070312 C243.612302,59.826826 242.908208,60.1367188 242.005859,60.1367188 C241.149084,60.1367188 240.450686,59.7858108 239.910645,59.0839844 C239.370603,58.3821579 239.100586,57.4661515 239.100586,56.3359375 L239.100586,56.2402344 Z M240.365234,56.3837891 C240.365234,57.2223349 240.53841,57.8785784 240.884766,58.3525391 C241.231122,58.8264998 241.709632,59.0634766 242.320312,59.0634766 C243.1224,59.0634766 243.708006,58.7034541 244.077148,57.9833984 L244.077148,54.5859375 C243.698891,53.8886684 243.117842,53.5400391 242.333984,53.5400391 C241.71419,53.5400391 241.231122,53.7792945 240.884766,54.2578125 C240.53841,54.7363305 240.365234,55.4449823 240.365234,56.3837891 Z M250.373047,60.1367188 C249.370438,60.1367188 248.554691,59.8074577 247.925781,59.1489258 C247.296872,58.4903938 246.982422,57.609706 246.982422,56.5068359 L246.982422,56.2744141 C246.982422,55.5406864 247.122557,54.8855823 247.402832,54.309082 C247.683107,53.7325818 248.07503,53.2814144 248.578613,52.9555664 C249.082197,52.6297184 249.627927,52.4667969 250.21582,52.4667969 C251.177414,52.4667969 251.924802,52.7835255 252.458008,53.4169922 C252.991214,54.0504589 253.257812,54.9573509 253.257812,56.1376953 L253.257812,56.6640625 L248.24707,56.6640625 C248.2653,57.3932328 248.478351,57.9822569 248.88623,58.4311523 C249.29411,58.8800478 249.812497,59.1044922 250.441406,59.1044922 C250.888023,59.1044922 251.266274,59.0133473 251.576172,58.8310547 C251.886069,58.6487621 252.157225,58.4072281 252.389648,58.1064453 L253.162109,58.7080078 C252.542315,59.6604865 251.612636,60.1367188 250.373047,60.1367188 Z M250.21582,53.5058594 C249.705401,53.5058594 249.27702,53.6915672 248.930664,54.0629883 C248.584308,54.4344094 248.370118,54.9550748 248.288086,55.625 L251.993164,55.625 L251.993164,55.5292969 C251.956706,54.8867155 251.78353,54.3888364 251.473633,54.0356445 C251.163735,53.6824527 250.744469,53.5058594 250.21582,53.5058594 Z M262.493164,58.0380859 C262.493164,57.6962874 262.364422,57.4308278 262.106934,57.2416992 C261.849445,57.0525707 261.400557,56.8896491 260.760254,56.7529297 C260.119951,56.6162103 259.611818,56.4521494 259.23584,56.2607422 C258.859861,56.069335 258.581869,55.8414727 258.401855,55.5771484 C258.221842,55.3128242 258.131836,54.9983742 258.131836,54.6337891 C258.131836,54.0276662 258.388181,53.5149761 258.900879,53.0957031 C259.413577,52.6764302 260.068681,52.4667969 260.866211,52.4667969 C261.704757,52.4667969 262.384926,52.6832661 262.906738,53.1162109 C263.428551,53.5491558 263.689453,54.1028612 263.689453,54.7773438 L262.417969,54.7773438 C262.417969,54.4309879 262.270998,54.1324882 261.977051,53.8818359 C261.683104,53.6311836 261.312828,53.5058594 260.866211,53.5058594 C260.405922,53.5058594 260.0459,53.6061188 259.786133,53.8066406 C259.526366,54.0071625 259.396484,54.2692041 259.396484,54.5927734 C259.396484,54.8981135 259.517251,55.1282544 259.758789,55.2832031 C260.000327,55.4381518 260.436683,55.5862623 261.067871,55.7275391 C261.699059,55.8688158 262.21061,56.0374339 262.602539,56.2333984 C262.994468,56.429363 263.284993,56.6652004 263.474121,56.940918 C263.66325,57.2166355 263.757812,57.5527324 263.757812,57.9492188 C263.757812,58.6100293 263.493492,59.1398092 262.964844,59.5385742 C262.436195,59.9373392 261.75033,60.1367188 260.907227,60.1367188 C260.314776,60.1367188 259.790692,60.0319021 259.334961,59.8222656 C258.879229,59.6126292 258.522625,59.3198261 258.265137,58.9438477 C258.007648,58.5678692 257.878906,58.161135 257.878906,57.7236328 L259.143555,57.7236328 C259.166341,58.1474631 259.336099,58.48356 259.652832,58.7319336 C259.969565,58.9803072 260.387693,59.1044922 260.907227,59.1044922 C261.385745,59.1044922 261.769693,59.0076507 262.059082,58.8139648 C262.348471,58.620279 262.493164,58.3616553 262.493164,58.0380859 Z M269.97168,60 C269.898763,59.8541659 269.839518,59.5944029 269.793945,59.2207031 C269.206052,59.8313833 268.504236,60.1367188 267.688477,60.1367188 C266.959306,60.1367188 266.361168,59.9305034 265.894043,59.5180664 C265.426918,59.1056294 265.193359,58.5826855 265.193359,57.9492188 C265.193359,57.1790326 265.486162,56.5808941 266.071777,56.1547852 C266.657392,55.7286763 267.481114,55.515625 268.542969,55.515625 L269.773438,55.515625 L269.773438,54.9345703 C269.773438,54.4925108 269.641277,54.1404635 269.376953,53.878418 C269.112629,53.6163724 268.722984,53.4853516 268.208008,53.4853516 C267.756834,53.4853516 267.378582,53.5992827 267.073242,53.8271484 C266.767902,54.0550142 266.615234,54.3307275 266.615234,54.6542969 L265.34375,54.6542969 C265.34375,54.2851544 265.474771,53.9285499 265.736816,53.5844727 C265.998862,53.2403954 266.354327,52.9681 266.803223,52.7675781 C267.252118,52.5670563 267.74544,52.4667969 268.283203,52.4667969 C269.135421,52.4667969 269.803057,52.6798481 270.286133,53.105957 C270.769208,53.5320659 271.019857,54.1188114 271.038086,54.8662109 L271.038086,58.2705078 C271.038086,58.9495477 271.124674,59.4895813 271.297852,59.890625 L271.297852,60 L269.97168,60 Z M267.873047,59.0361328 C268.269533,59.0361328 268.645506,58.9335948 269.000977,58.7285156 C269.356447,58.5234365 269.613931,58.2568376 269.773438,57.9287109 L269.773438,56.4111328 L268.782227,56.4111328 C267.23274,56.4111328 266.458008,56.8645788 266.458008,57.7714844 C266.458008,58.1679707 266.590168,58.4778635 266.854492,58.7011719 C267.118816,58.9244803 267.458331,59.0361328 267.873047,59.0361328 Z M274.394531,60 L273.123047,60 L273.123047,52.6035156 L274.394531,52.6035156 L274.394531,60 Z M274.408203,49.5068359 L275.939453,49.5068359 L274.107422,51.5166016 L273.088867,51.5166016 L274.408203,49.5068359 Z M276.171875,56.2402344 C276.171875,55.1054631 276.440753,54.1928745 276.978516,53.5024414 C277.516279,52.8120083 278.220373,52.4667969 279.09082,52.4667969 C279.95671,52.4667969 280.642576,52.7630179 281.148438,53.3554688 L281.148438,49.5 L282.413086,49.5 L282.413086,60 L281.250977,60 L281.189453,59.2070312 C280.683591,59.826826 279.979497,60.1367188 279.077148,60.1367188 C278.220373,60.1367188 277.521975,59.7858108 276.981934,59.0839844 C276.441892,58.3821579 276.171875,57.4661515 276.171875,56.3359375 L276.171875,56.2402344 Z M277.436523,56.3837891 C277.436523,57.2223349 277.609699,57.8785784 277.956055,58.3525391 C278.302411,58.8264998 278.780921,59.0634766 279.391602,59.0634766 C280.193689,59.0634766 280.779295,58.7034541 281.148438,57.9833984 L281.148438,54.5859375 C280.77018,53.8886684 280.189132,53.5400391 279.405273,53.5400391 C278.785479,53.5400391 278.302411,53.7792945 277.956055,54.2578125 C277.609699,54.7363305 277.436523,55.4449823 277.436523,56.3837891 Z M288.941406,60 C288.868489,59.8541659 288.809245,59.5944029 288.763672,59.2207031 C288.175778,59.8313833 287.473962,60.1367188 286.658203,60.1367188 C285.929033,60.1367188 285.330894,59.9305034 284.86377,59.5180664 C284.396645,59.1056294 284.163086,58.5826855 284.163086,57.9492188 C284.163086,57.1790326 284.455889,56.5808941 285.041504,56.1547852 C285.627119,55.7286763 286.450841,55.515625 287.512695,55.515625 L288.743164,55.515625 L288.743164,54.9345703 C288.743164,54.4925108 288.611004,54.1404635 288.34668,53.878418 C288.082355,53.6163724 287.692711,53.4853516 287.177734,53.4853516 C286.72656,53.4853516 286.348309,53.5992827 286.042969,53.8271484 C285.737629,54.0550142 285.584961,54.3307275 285.584961,54.6542969 L284.313477,54.6542969 C284.313477,54.2851544 284.444497,53.9285499 284.706543,53.5844727 C284.968589,53.2403954 285.324054,52.9681 285.772949,52.7675781 C286.221845,52.5670563 286.715167,52.4667969 287.25293,52.4667969 C288.105147,52.4667969 288.772784,52.6798481 289.255859,53.105957 C289.738935,53.5320659 289.989583,54.1188114 290.007812,54.8662109 L290.007812,58.2705078 C290.007812,58.9495477 290.0944,59.4895813 290.267578,59.890625 L290.267578,60 L288.941406,60 Z M286.842773,59.0361328 C287.23926,59.0361328 287.615233,58.9335948 287.970703,58.7285156 C288.326174,58.5234365 288.583658,58.2568376 288.743164,57.9287109 L288.743164,56.4111328 L287.751953,56.4111328 C286.202466,56.4111328 285.427734,56.8645788 285.427734,57.7714844 C285.427734,58.1679707 285.559895,58.4778635 285.824219,58.7011719 C286.088543,58.9244803 286.428058,59.0361328 286.842773,59.0361328 Z" id="Tique-taquedesada" fill="#2A3052"></path>
            <path d="M22.746582,102 L21.340332,102 L21.340332,91.3359375 L22.746582,91.3359375 L22.746582,102 Z M26.3867188,94.0751953 L26.4306641,95.0712891 C27.0361358,94.3095665 27.8271436,93.9287109 28.8037109,93.9287109 C30.478524,93.9287109 31.3232421,94.8735257 31.3378906,96.7631836 L31.3378906,102 L29.9829102,102 L29.9829102,96.7558594 C29.9780273,96.1845675 29.8474134,95.7622084 29.5910645,95.4887695 C29.3347155,95.2153307 28.9355496,95.0786133 28.3935547,95.0786133 C27.9540994,95.0786133 27.568361,95.1957996 27.2363281,95.4301758 C26.9042952,95.664552 26.6455087,95.9721661 26.4599609,96.3530273 L26.4599609,102 L25.1049805,102 L25.1049805,94.0751953 L26.3867188,94.0751953 Z M34.8535156,102 L33.4912109,102 L33.4912109,94.0751953 L34.8535156,94.0751953 L34.8535156,102 Z M34.8681641,90.7573242 L36.5087891,90.7573242 L34.5458984,92.9106445 L33.4545898,92.9106445 L34.8681641,90.7573242 Z M40.2661133,101.040527 C40.7495141,101.040527 41.1718732,100.894044 41.5332031,100.601074 C41.8945331,100.308104 42.0947264,99.9418967 42.1337891,99.5024414 L43.4155273,99.5024414 C43.3911132,99.9565452 43.2348647,100.38867 42.9467773,100.798828 C42.65869,101.208986 42.2741723,101.536132 41.7932129,101.780273 C41.3122535,102.024415 40.8032253,102.146484 40.2661133,102.146484 C39.1870063,102.146484 38.3288606,101.786381 37.6916504,101.066162 C37.0544402,100.345944 36.7358398,99.3608461 36.7358398,98.1108398 L36.7358398,97.8837891 C36.7358398,97.1123008 36.87744,96.4262725 37.1606445,95.8256836 C37.4438491,95.2250947 37.8503391,94.7587907 38.380127,94.4267578 C38.9099148,94.0947249 39.5361292,93.9287109 40.2587891,93.9287109 C41.1474654,93.9287109 41.8859834,94.1948216 42.4743652,94.7270508 C43.0627471,95.25928 43.3764646,95.9501911 43.4155273,96.7998047 L42.1337891,96.7998047 C42.0947264,96.2871068 41.9006365,95.8659684 41.5515137,95.536377 C41.2023908,95.2067855 40.7714869,95.0419922 40.2587891,95.0419922 C39.5703091,95.0419922 39.0368671,95.2897924 38.6584473,95.7854004 C38.2800274,96.2810083 38.0908203,96.9975539 38.0908203,97.9350586 L38.0908203,98.1914062 C38.0908203,99.1044968 38.2788067,99.8076147 38.6547852,100.300781 C39.0307636,100.793948 39.5678676,101.040527 40.2661133,101.040527 Z M46.4111328,102 L45.0561523,102 L45.0561523,94.0751953 L46.4111328,94.0751953 L46.4111328,102 Z M44.9462891,91.9731445 C44.9462891,91.7534169 45.0134271,91.5678719 45.1477051,91.4165039 C45.2819831,91.265136 45.4809557,91.1894531 45.7446289,91.1894531 C46.0083021,91.1894531 46.2084954,91.265136 46.3452148,91.4165039 C46.4819343,91.5678719 46.550293,91.7534169 46.550293,91.9731445 C46.550293,92.1928722 46.4819343,92.3759758 46.3452148,92.5224609 C46.2084954,92.668946 46.0083021,92.7421875 45.7446289,92.7421875 C45.4809557,92.7421875 45.2819831,92.668946 45.1477051,92.5224609 C45.0134271,92.3759758 44.9462891,92.1928722 44.9462891,91.9731445 Z M48.2202148,97.9643555 C48.2202148,97.1879844 48.3728012,96.4897492 48.6779785,95.8696289 C48.9831558,95.2495086 49.4079563,94.7709978 49.9523926,94.434082 C50.4968289,94.0971663 51.1181606,93.9287109 51.8164062,93.9287109 C52.8955132,93.9287109 53.7683072,94.3022424 54.4348145,95.0493164 C55.1013217,95.7963905 55.4345703,96.7900329 55.4345703,98.0302734 L55.4345703,98.1254883 C55.4345703,98.8969765 55.2868667,99.5891083 54.9914551,100.201904 C54.6960434,100.8147 54.2736844,101.29199 53.7243652,101.633789 C53.1750461,101.975588 52.5439489,102.146484 51.8310547,102.146484 C50.7568306,102.146484 49.8864779,101.772953 49.2199707,101.025879 C48.5534635,100.278805 48.2202148,99.2900452 48.2202148,98.0595703 L48.2202148,97.9643555 Z M49.5825195,98.1254883 C49.5825195,99.0043989 49.7863749,99.7099583 50.1940918,100.242188 C50.6018087,100.774417 51.1474575,101.040527 51.8310547,101.040527 C52.5195347,101.040527 53.0664042,100.770755 53.4716797,100.231201 C53.8769552,99.6916477 54.0795898,98.93604 54.0795898,97.9643555 C54.0795898,97.0952105 53.8732931,96.3908718 53.4606934,95.8513184 C53.0480936,95.3117649 52.5000034,95.0419922 51.8164062,95.0419922 C51.1474576,95.0419922 50.6079122,95.3081028 50.1977539,95.840332 C49.7875956,96.3725613 49.5825195,97.1342724 49.5825195,98.1254883 Z" id="Incio" fill="#2A3052"></path>
            <path d="M23.9794922,11.1157227 L20.7128906,11.1157227 L20.7128906,20 L18.515625,20 L18.515625,11.1157227 L15.2929688,11.1157227 L15.2929688,9.3359375 L23.9794922,9.3359375 L23.9794922,11.1157227 Z M27.3266602,20 L25.2026367,20 L25.2026367,12.0751953 L27.3266602,12.0751953 L27.3266602,20 Z M25.078125,10.0244141 C25.078125,9.70702966 25.1843251,9.44580181 25.3967285,9.24072266 C25.6091319,9.03564351 25.8984357,8.93310547 26.2646484,8.93310547 C26.6259784,8.93310547 26.9140614,9.03564351 27.1289062,9.24072266 C27.3437511,9.44580181 27.4511719,9.70702966 27.4511719,10.0244141 C27.4511719,10.3466813 27.3425304,10.6103505 27.1252441,10.8154297 C26.9079579,11.0205088 26.6210955,11.1230469 26.2646484,11.1230469 C25.9082013,11.1230469 25.621339,11.0205088 25.4040527,10.8154297 C25.1867665,10.6103505 25.078125,10.3466813 25.078125,10.0244141 Z M28.7402344,15.9643555 C28.7402344,14.7192321 29.0173312,13.7353552 29.5715332,13.0126953 C30.1257352,12.2900354 30.8862256,11.9287109 31.8530273,11.9287109 C32.702641,11.9287109 33.3789037,12.2534147 33.8818359,12.902832 L34.0209961,12.0751953 L35.8813477,12.0751953 L35.8813477,23.046875 L33.7573242,23.046875 L33.7573242,19.3188477 C33.2690405,19.8706082 32.6293985,20.1464844 31.8383789,20.1464844 C30.8959914,20.1464844 30.1440458,19.7802771 29.5825195,19.0478516 C29.0209933,18.315426 28.7402344,17.2876043 28.7402344,15.9643555 Z M30.8569336,16.1181641 C30.8569336,16.8750038 30.9899889,17.4511699 31.2561035,17.8466797 C31.5222181,18.2421895 31.8969702,18.4399414 32.3803711,18.4399414 C33.0297884,18.4399414 33.4887682,18.1811549 33.7573242,17.6635742 L33.7573242,14.3896484 C33.493651,13.8915991 33.039554,13.6425781 32.3950195,13.6425781 C31.9067358,13.6425781 31.5283217,13.8403301 31.2597656,14.2358398 C30.9912096,14.6313496 30.8569336,15.2587848 30.8569336,16.1181641 Z M42.2900391,19.1943359 C41.7675755,19.8291047 41.0449265,20.1464844 40.1220703,20.1464844 C39.2724567,20.1464844 38.6242698,19.9023462 38.1774902,19.4140625 C37.7307107,18.9257788 37.5024415,18.2104539 37.4926758,17.2680664 L37.4926758,12.0751953 L39.609375,12.0751953 L39.609375,17.1948242 C39.609375,18.0200237 39.9853478,18.4326172 40.7373047,18.4326172 C41.4550817,18.4326172 41.9482408,18.1835962 42.2167969,17.6855469 L42.2167969,12.0751953 L44.3408203,12.0751953 L44.3408203,20 L42.3486328,20 L42.2900391,19.1943359 Z M49.5849609,20.1464844 C48.4228458,20.1464844 47.4768103,19.7900426 46.7468262,19.0771484 C46.0168421,18.3642542 45.6518555,17.4145567 45.6518555,16.2280273 L45.6518555,16.0229492 C45.6518555,15.2270468 45.8056625,14.515384 46.1132812,13.8879395 C46.4209,13.2604949 46.8566866,12.7771013 47.4206543,12.4377441 C47.984622,12.098387 48.6279261,11.9287109 49.3505859,11.9287109 C50.4345757,11.9287109 51.2878387,12.2705044 51.9104004,12.9541016 C52.5329621,13.6376987 52.8442383,14.6069273 52.8442383,15.8618164 L52.8442383,16.7260742 L47.7978516,16.7260742 C47.8662113,17.2436549 48.072508,17.6586898 48.416748,17.9711914 C48.760988,18.283693 49.1967747,18.4399414 49.7241211,18.4399414 C50.5395549,18.4399414 51.1767555,18.1445342 51.6357422,17.5537109 L52.6757812,18.7182617 C52.3583969,19.1674827 51.9287136,19.517821 51.3867188,19.7692871 C50.8447239,20.0207532 50.2441439,20.1464844 49.5849609,20.1464844 Z M49.3432617,13.6425781 C48.9233377,13.6425781 48.582765,13.7841783 48.3215332,14.0673828 C48.0603014,14.3505874 47.8930668,14.7558567 47.8198242,15.2832031 L50.7641602,15.2832031 L50.7641602,15.1147461 C50.7543945,14.6459938 50.6274426,14.2834485 50.3833008,14.0270996 C50.1391589,13.7707507 49.7924827,13.6425781 49.3432617,13.6425781 Z M58.1616211,16.2866211 L54.0380859,16.2866211 L54.0380859,14.5800781 L58.1616211,14.5800781 L58.1616211,16.2866211 Z M68.0273438,11.1157227 L64.7607422,11.1157227 L64.7607422,20 L62.5634766,20 L62.5634766,11.1157227 L59.3408203,11.1157227 L59.3408203,9.3359375 L68.0273438,9.3359375 L68.0273438,11.1157227 Z M73.7329102,20 C73.6352534,19.8095694 73.5644533,19.5727553 73.5205078,19.2895508 C73.0078099,19.8608427 72.3413127,20.1464844 71.5209961,20.1464844 C70.744625,20.1464844 70.1013209,19.9218772 69.5910645,19.4726562 C69.080808,19.0234353 68.8256836,18.4570347 68.8256836,17.7734375 C68.8256836,16.9335896 69.1369598,16.2890647 69.7595215,15.8398438 C70.3820832,15.3906228 71.2817324,15.1635742 72.4584961,15.1586914 L73.4326172,15.1586914 L73.4326172,14.7045898 C73.4326172,14.3383771 73.338624,14.0454113 73.1506348,13.8256836 C72.9626455,13.6059559 72.6660177,13.4960938 72.2607422,13.4960938 C71.9042951,13.4960938 71.6247569,13.5815421 71.4221191,13.7524414 C71.2194814,13.9233407 71.1181641,14.1577134 71.1181641,14.4555664 L69.0014648,14.4555664 C69.0014648,13.9965797 69.143065,13.5717793 69.4262695,13.1811523 C69.7094741,12.7905254 70.1098607,12.484132 70.6274414,12.2619629 C71.1450221,12.0397938 71.726071,11.9287109 72.3706055,11.9287109 C73.3471729,11.9287109 74.1223116,12.1740698 74.6960449,12.6647949 C75.2697783,13.15552 75.5566406,13.8452104 75.5566406,14.7338867 L75.5566406,18.1689453 C75.5615235,18.9209022 75.6665029,19.4897442 75.871582,19.8754883 L75.871582,20 L73.7329102,20 Z M71.9824219,18.527832 C72.2949234,18.527832 72.5830065,18.4582526 72.8466797,18.3190918 C73.1103529,18.1799309 73.3056634,17.9931652 73.4326172,17.7587891 L73.4326172,16.3964844 L72.6416016,16.3964844 C71.582026,16.3964844 71.0180667,16.7626917 70.949707,17.4951172 L70.9423828,17.6196289 C70.9423828,17.8833021 71.0351553,18.1005851 71.2207031,18.2714844 C71.4062509,18.4423837 71.6601546,18.527832 71.9824219,18.527832 Z M76.8530273,15.9643555 C76.8530273,14.7192321 77.1301242,13.7353552 77.6843262,13.0126953 C78.2385282,12.2900354 78.9990186,11.9287109 79.9658203,11.9287109 C80.8154339,11.9287109 81.4916967,12.2534147 81.9946289,12.902832 L82.1337891,12.0751953 L83.9941406,12.0751953 L83.9941406,23.046875 L81.8701172,23.046875 L81.8701172,19.3188477 C81.3818335,19.8706082 80.7421915,20.1464844 79.9511719,20.1464844 C79.0087844,20.1464844 78.2568387,19.7802771 77.6953125,19.0478516 C77.1337863,18.315426 76.8530273,17.2876043 76.8530273,15.9643555 Z M78.9697266,16.1181641 C78.9697266,16.8750038 79.1027819,17.4511699 79.3688965,17.8466797 C79.6350111,18.2421895 80.0097632,18.4399414 80.4931641,18.4399414 C81.1425814,18.4399414 81.6015612,18.1811549 81.8701172,17.6635742 L81.8701172,14.3896484 C81.606444,13.8915991 81.152347,13.6425781 80.5078125,13.6425781 C80.0195288,13.6425781 79.6411146,13.8403301 79.3725586,14.2358398 C79.1040026,14.6313496 78.9697266,15.2587848 78.9697266,16.1181641 Z M90.402832,19.1943359 C89.8803685,19.8291047 89.1577195,20.1464844 88.2348633,20.1464844 C87.3852497,20.1464844 86.7370628,19.9023462 86.2902832,19.4140625 C85.8435036,18.9257788 85.6152344,18.2104539 85.6054688,17.2680664 L85.6054688,12.0751953 L87.722168,12.0751953 L87.722168,17.1948242 C87.722168,18.0200237 88.0981408,18.4326172 88.8500977,18.4326172 C89.5678747,18.4326172 90.0610338,18.1835962 90.3295898,17.6855469 L90.3295898,12.0751953 L92.4536133,12.0751953 L92.4536133,20 L90.4614258,20 L90.402832,19.1943359 Z M97.6977539,20.1464844 C96.5356387,20.1464844 95.5896033,19.7900426 94.8596191,19.0771484 C94.129635,18.3642542 93.7646484,17.4145567 93.7646484,16.2280273 L93.7646484,16.0229492 C93.7646484,15.2270468 93.9184555,14.515384 94.2260742,13.8879395 C94.5336929,13.2604949 94.9694796,12.7771013 95.5334473,12.4377441 C96.0974149,12.098387 96.740719,11.9287109 97.4633789,11.9287109 C98.5473687,11.9287109 99.4006317,12.2705044 100.023193,12.9541016 C100.645755,13.6376987 100.957031,14.6069273 100.957031,15.8618164 L100.957031,16.7260742 L95.9106445,16.7260742 C95.9790042,17.2436549 96.185301,17.6586898 96.529541,17.9711914 C96.873781,18.283693 97.3095677,18.4399414 97.8369141,18.4399414 C98.6523478,18.4399414 99.2895485,18.1445342 99.7485352,17.5537109 L100.788574,18.7182617 C100.47119,19.1674827 100.041507,19.517821 99.4995117,19.7692871 C98.9575168,20.0207532 98.3569369,20.1464844 97.6977539,20.1464844 Z M97.4560547,13.6425781 C97.0361307,13.6425781 96.6955579,13.7841783 96.4343262,14.0673828 C96.1730944,14.3505874 96.0058597,14.7558567 95.9326172,15.2832031 L98.8769531,15.2832031 L98.8769531,15.1147461 C98.8671875,14.6459938 98.7402356,14.2834485 98.4960938,14.0270996 C98.2519519,13.7707507 97.9052757,13.6425781 97.4560547,13.6425781 Z M106.032715,20 L106.032715,9.3359375 L109.768066,9.3359375 C111.062018,9.3359375 112.043454,9.58373776 112.712402,10.0793457 C113.381351,10.5749536 113.71582,11.3012647 113.71582,12.2583008 C113.71582,12.7807643 113.581544,13.2409648 113.312988,13.638916 C113.044432,14.0368672 112.670901,14.3286124 112.192383,14.5141602 C112.739261,14.6508796 113.170164,14.9267557 113.485107,15.3417969 C113.80005,15.756838 113.95752,16.2646454 113.95752,16.8652344 C113.95752,17.8906301 113.630374,18.6669896 112.976074,19.1943359 C112.321774,19.7216823 111.389166,19.9902343 110.178223,20 L106.032715,20 Z M108.22998,15.3564453 L108.22998,18.2348633 L110.112305,18.2348633 C110.629885,18.2348633 111.033934,18.1115735 111.324463,17.8649902 C111.614992,17.618407 111.760254,17.2778342 111.760254,16.8432617 C111.760254,15.8666943 111.254888,15.3710938 110.244141,15.3564453 L108.22998,15.3564453 Z M108.22998,13.8037109 L109.855957,13.8037109 C110.964361,13.7841796 111.518555,13.3422895 111.518555,12.4780273 C111.518555,11.9946265 111.378175,11.6467296 111.097412,11.4343262 C110.816649,11.2219228 110.373538,11.1157227 109.768066,11.1157227 L108.22998,11.1157227 L108.22998,13.8037109 Z M120.058594,20 C119.960937,19.8095694 119.890137,19.5727553 119.846191,19.2895508 C119.333494,19.8608427 118.666996,20.1464844 117.84668,20.1464844 C117.070309,20.1464844 116.427005,19.9218772 115.916748,19.4726562 C115.406492,19.0234353 115.151367,18.4570347 115.151367,17.7734375 C115.151367,16.9335896 115.462643,16.2890647 116.085205,15.8398438 C116.707767,15.3906228 117.607416,15.1635742 118.78418,15.1586914 L119.758301,15.1586914 L119.758301,14.7045898 C119.758301,14.3383771 119.664308,14.0454113 119.476318,13.8256836 C119.288329,13.6059559 118.991701,13.4960938 118.586426,13.4960938 C118.229979,13.4960938 117.95044,13.5815421 117.747803,13.7524414 C117.545165,13.9233407 117.443848,14.1577134 117.443848,14.4555664 L115.327148,14.4555664 C115.327148,13.9965797 115.468749,13.5717793 115.751953,13.1811523 C116.035158,12.7905254 116.435544,12.484132 116.953125,12.2619629 C117.470706,12.0397938 118.051755,11.9287109 118.696289,11.9287109 C119.672856,11.9287109 120.447995,12.1740698 121.021729,12.6647949 C121.595462,13.15552 121.882324,13.8452104 121.882324,14.7338867 L121.882324,18.1689453 C121.887207,18.9209022 121.992186,19.4897442 122.197266,19.8754883 L122.197266,20 L120.058594,20 Z M118.308105,18.527832 C118.620607,18.527832 118.90869,18.4582526 119.172363,18.3190918 C119.436036,18.1799309 119.631347,17.9931652 119.758301,17.7587891 L119.758301,16.3964844 L118.967285,16.3964844 C117.90771,16.3964844 117.34375,16.7626917 117.275391,17.4951172 L117.268066,17.6196289 C117.268066,17.8833021 117.360839,18.1005851 117.546387,18.2714844 C117.731935,18.4423837 117.985838,18.527832 118.308105,18.527832 Z M125.742188,20 L123.618164,20 L123.618164,12.0751953 L125.742188,12.0751953 L125.742188,20 Z M123.493652,10.0244141 C123.493652,9.70702966 123.599852,9.44580181 123.812256,9.24072266 C124.024659,9.03564351 124.313963,8.93310547 124.680176,8.93310547 C125.041506,8.93310547 125.329589,9.03564351 125.544434,9.24072266 C125.759278,9.44580181 125.866699,9.70702966 125.866699,10.0244141 C125.866699,10.3466813 125.758058,10.6103505 125.540771,10.8154297 C125.323485,11.0205088 125.036623,11.1230469 124.680176,11.1230469 C124.323729,11.1230469 124.036866,11.0205088 123.81958,10.8154297 C123.602294,10.6103505 123.493652,10.3466813 123.493652,10.0244141 Z M130.50293,14.440918 L131.835938,12.0751953 L134.099121,12.0751953 L131.843262,15.9570312 L134.194336,20 L131.923828,20 L130.510254,17.5097656 L129.104004,20 L126.826172,20 L129.177246,15.9570312 L126.928711,12.0751953 L129.199219,12.0751953 L130.50293,14.440918 Z M134.787598,15.9643555 C134.787598,15.1782187 134.938963,14.4775421 135.241699,13.8623047 C135.544435,13.2470672 135.980222,12.7709978 136.549072,12.434082 C137.117923,12.0971663 137.778317,11.9287109 138.530273,11.9287109 C139.599615,11.9287109 140.472409,12.2558561 141.148682,12.9101562 C141.824955,13.5644564 142.202148,14.4531194 142.280273,15.5761719 L142.294922,16.1181641 C142.294922,17.3339905 141.95557,18.3093225 141.276855,19.0441895 C140.598141,19.7790564 139.687506,20.1464844 138.544922,20.1464844 C137.402338,20.1464844 136.490482,19.7802771 135.809326,19.0478516 C135.12817,18.315426 134.787598,17.3193422 134.787598,16.0595703 L134.787598,15.9643555 Z M136.904297,16.1181641 C136.904297,16.8701209 137.045897,17.4450664 137.329102,17.8430176 C137.612306,18.2409688 138.017575,18.4399414 138.544922,18.4399414 C139.05762,18.4399414 139.458006,18.2434102 139.746094,17.8503418 C140.034181,17.4572734 140.178223,16.8286176 140.178223,15.9643555 C140.178223,15.2270471 140.034181,14.6557637 139.746094,14.2504883 C139.458006,13.8452128 139.052737,13.6425781 138.530273,13.6425781 C138.012693,13.6425781 137.612306,13.8439921 137.329102,14.2468262 C137.045897,14.6496602 136.904297,15.2734333 136.904297,16.1181641 Z" id="Tique-TaqueBaixo" fill="#000000"></path>
        </g>
    </g>
</svg>