<?xml version="1.0" encoding="UTF-8"?>
<svg width="299px" height="197px" viewBox="0 0 299 197" version="1.1" xmlns="http://www.w3.org/2000/svg" xmlns:xlink="http://www.w3.org/1999/xlink">
    <!-- Generator: Sketch 52.6 (67491) - http://www.bohemiancoding.com/sketch -->
    <title>lower</title>
    <desc>Created with Sketch.</desc>
    <g id="Page-1" stroke="none" stroke-width="1" fill="none" fill-rule="evenodd">
        <g id="lower">
            <g id="Group">
                <polygon id="Path" fill="#F1F2F2" points="0 0 299 0 299 197 0 197"></polygon>
                <path d="M1.98671096,1.9798995 L1.98671096,195.020101 L297.013289,195.020101 L297.013289,1.9798995 L1.98671096,1.9798995 Z M299,0 L299,197 L0,197 L0,0 L299,0 Z" id="Path" fill="#C2C2C2" fill-rule="nonzero"></path>
                <path d="M2.92614576,55.1129772 L2.92614576,53.8897746 L296.509938,53.8897746 L296.509938,55.1129772 L2.92614576,55.1129772 Z M2.92614576,75.7107247 L2.92614576,74.4875221 L296.509938,74.4875221 L296.509938,75.7107247 L2.92614576,75.7107247 Z M2.92614576,96.2705389 L2.92614576,95.0473363 L296.509938,95.0473363 L296.509938,96.2705389 L2.92614576,96.2705389 Z M2.92614576,137.4281 L2.92614576,136.204898 L296.509938,136.204898 L296.509938,137.4281 L2.92614576,137.4281 Z M2.92614576,157.987914 L2.92614576,156.764712 L296.509938,156.764712 L296.509938,157.987914 L2.92614576,157.987914 Z M2.92614576,178.547729 L2.92614576,177.324527 L296.509938,177.324527 L296.509938,178.547729 L2.92614576,178.547729 Z M37.7718902,33.9415617 L38.9950928,33.9415617 L38.9950928,196.068215 L37.7718902,196.068215 L37.7718902,33.9415617 Z M74.9339161,33.9415617 L76.1571187,33.9415617 L76.1571187,196.068215 L74.9339161,196.068215 L74.9339161,33.9415617 Z M112.05806,33.9415617 L113.281262,33.9415617 L113.281262,196.068215 L112.05806,196.068215 L112.05806,33.9415617 Z M149.220086,33.9415617 L150.443288,33.9415617 L150.443288,196.068215 L149.220086,196.068215 L149.220086,33.9415617 Z M186.34423,33.9415617 L187.567432,33.9415617 L187.567432,196.068215 L186.34423,196.068215 L186.34423,33.9415617 Z M223.468374,33.9415617 L224.691576,33.9415617 L224.691576,196.068215 L223.468374,196.068215 L223.468374,33.9415617 Z M260.6304,33.9415617 L261.853602,33.9415617 L261.853602,196.068215 L260.6304,196.068215 L260.6304,33.9415617 Z" id="Shape" fill="#DFDEDE" fill-rule="nonzero"></path>
                <polygon id="Path" fill="#2A3052" fill-rule="nonzero" points="2.92614576 116.830353 2.92614576 115.60715 296.509938 115.60715 296.509938 116.830353"></polygon>
                <polygon id="Path" fill="#C2C2C2" fill-rule="nonzero" points="0.804766102 33.9510902 0.804766102 31.504306 298.631318 31.504306 298.631318 33.9510902"></polygon>
                <path d="M112.36199,90.1384298 L76.4751351,134.144934 C75.6605692,135.143802 74.0970891,135.013686 73.4588403,133.893913 L36.7892776,69.5591439 C36.2874325,68.6786839 36.5943606,67.5581042 37.4748207,67.0562592 C38.3552807,66.5544141 39.4758604,66.8613422 39.9777054,67.7418023 L75.3221532,129.751728 L110.906644,86.1159998 C111.629933,85.2290616 112.979771,85.2133764 113.723474,86.0832681 L156.669285,136.315926 L189.644357,94.5223167 C190.421799,93.5369628 191.936866,93.6054601 192.622221,94.6569482 L234.42558,158.792666 L261.020228,155.55477 C262.026239,155.432289 262.941062,156.14853 263.063544,157.15454 C263.186025,158.160551 262.469784,159.075374 261.463774,159.197856 L233.734312,162.573915 C233.039658,162.658489 232.357376,162.340608 231.975263,161.754361 L190.942868,98.8014757 L158.166759,140.342914 C157.450402,141.250846 156.082949,141.27776 155.331422,140.398717 L112.36199,90.1384298 Z" id="Path" fill="#2A3052" fill-rule="nonzero"></path>
                <path d="M188.508984,147.513672 L153.08952,147.513672 L147.634544,139.206293 L142.179568,147.513672 L106.760104,147.513672 C104.108379,147.513672 101.987,149.675866 101.987,152.369126 L101.987,177.442996 C101.987,180.136255 104.146261,182.29845 106.760104,182.29845 L188.546866,182.29845 C191.198591,182.29845 193.31997,180.136255 193.31997,177.442996 L193.31997,152.369126 C193.31997,149.675866 191.160709,147.513672 188.508984,147.513672 Z" id="Path" fill="#E88024"></path>
                <g opacity="0.6" transform="translate(252.794364, 148.755007)" fill="#FFFFFF" id="Oval">
                    <ellipse cx="8.44763686" cy="8.6213062" rx="8.22034619" ry="8.57291147"></ellipse>
                </g>
                <path d="M261.242001,167.172617 C256.014608,167.172617 251.798263,162.775435 251.798263,157.376313 C251.798263,151.977191 256.014608,147.580009 261.242001,147.580009 C266.469394,147.580009 270.685739,151.977191 270.685739,157.376313 C270.685739,162.775435 266.469394,167.172617 261.242001,167.172617 Z M261.242001,164.725832 C265.094551,164.725832 268.238955,161.446567 268.238955,157.376313 C268.238955,153.306059 265.094551,150.026794 261.242001,150.026794 C257.389451,150.026794 254.245047,153.306059 254.245047,157.376313 C254.245047,161.446567 257.389451,164.725832 261.242001,164.725832 Z" id="Oval" fill="#E88024" fill-rule="nonzero"></path>
                <g opacity="0.6" transform="translate(29.291864, 59.508563)" fill="#FFFFFF" id="Oval">
                    <ellipse cx="9.09162712" cy="9.14191001" rx="8.22034619" ry="8.57291147"></ellipse>
                </g>
                <path d="M38.3834915,78.4467766 C33.1560981,78.4467766 28.9397532,74.0495955 28.9397532,68.6504731 C28.9397532,63.2513507 33.1560981,58.8541696 38.3834915,58.8541696 C43.6108849,58.8541696 47.8272298,63.2513507 47.8272298,68.6504731 C47.8272298,74.0495955 43.6108849,78.4467766 38.3834915,78.4467766 Z M38.3834915,75.9999925 C42.2360418,75.9999925 45.3804456,72.7207273 45.3804456,68.6504731 C45.3804456,64.5802189 42.2360418,61.3009537 38.3834915,61.3009537 C34.5309412,61.3009537 31.3865374,64.5802189 31.3865374,68.6504731 C31.3865374,72.7207273 34.5309412,75.9999925 38.3834915,75.9999925 Z" id="Oval" fill="#E88024" fill-rule="nonzero"></path>
            </g>
            <g id="Group" transform="translate(22.000000, 44.000000)" fill="#2A3052" fill-rule="nonzero">
                <path d="M5.188,4.387 L5.299,5.539 C5.75551827,4.74195824 6.61066065,4.25763321 7.529,4.276 C8.347,4.276 8.979,4.499 9.425,5.019 C9.871,5.502 10.094,6.245 10.094,7.249 L10.094,12.081 L8.719,12.081 L8.719,7.286 C8.719,6.617 8.57,6.134 8.309,5.836 C8.049,5.539 7.641,5.428 7.12,5.428 C6.712,5.428 6.377,5.539 6.08,5.725 C5.76967689,5.91746607 5.51359864,6.1859352 5.336,6.505 L5.336,12.081 L3.961,12.081 L3.961,4.424 L5.188,4.387 Z M0.178,1.814 L1.575,1.814 L1.575,12.14 L0.178,12.14 L0.178,1.814 Z M12.278,4.292 L13.675,4.292 L13.675,12.081 L12.278,12.081 L12.278,4.292 Z M23.638,4.367 L25.012,4.367 L25.012,11.932 L23.638,11.932 L23.638,4.367 Z M23.656,0.93 L23.656,2.295 L25.056,2.295 L25.056,0.931 L23.656,0.93 Z M20.362,7.055 C20.852,7.041 21.31,7.055 21.605,7.055 C21.605,4.869 19.872,4.292 18.479,4.292 C17.086,4.292 15.353,5.556 15.353,8.267 C15.353,10.979 16.873,12.297 18.761,12.229 C20.648,12.161 21.605,10.726 21.605,9.67 C21.1907587,9.68235326 20.7762413,9.68235326 20.362,9.67 C20.362,10.668 19.465,11.192 18.761,11.192 C17.075,11.192 16.693,9.557 16.693,8.258 C16.693,6.958 17.124,5.353 18.629,5.353 C19.906,5.353 20.362,6.343 20.362,7.055 Z M30.113,4.278 C30.982,4.231 32.082,4.532 32.697,5.157 C33.377,5.847 33.864,6.707 33.864,8.124 C33.864,9.38 33.614,10.287 33.019,11.021 C32.349,11.849 31.303,12.229 30.455,12.229 C29.575,12.229 28.622,12.09 27.82,11.349 C27.164,10.743 26.557,9.704 26.618,8.253 C26.684,6.651 27.2,5.736 27.82,5.157 C28.447,4.571 29.183,4.329 30.113,4.278 Z M30.426,5.327 C29.429,5.327 28.224,5.977 28.224,7.993 C28.224,10.009 28.967,11.208 30.304,11.208 C31.639,11.208 32.516,9.852 32.381,7.993 C32.245,6.133 31.422,5.327 30.426,5.327 Z M12.354,3.172 L13.364,3.172 L15.302,1.339 L13.658,1.339 L12.354,3.172 Z" id="Shape"></path>
            </g>
            <g id="Group" transform="translate(250.000000, 171.000000)" fill="#2A3052" fill-rule="nonzero">
                <path d="M7.553,0.986 L7.553,2.043 L2.485,2.043 L2.485,5.633 L6.802,5.633 L6.802,6.72 L2.485,6.72 L2.485,11.315 L0.996,11.315 L0.996,0.986 L7.553,0.986 Z M8.859,3.657 L10.228,3.657 L10.228,11.193 L8.858,11.193 L8.859,3.657 Z M8.877,0.234 L8.877,1.593 L10.272,1.593 L10.272,0.233 L8.877,0.234 Z M12.49,3.727 L13.69,3.727 C13.695,3.967 13.729,4.283 13.79,4.677 C14.981,3.264 17.395,3.009 18.224,4.981 C19.034,3.727 19.834,3.393 21.139,3.611 C22.79,3.885 23.037,5.749 23.117,6.454 C23.082,8.474 23.104,10.249 23.117,11.314 L21.727,11.314 L21.727,6.454 C21.686,5.736 21.444,4.678 20.224,4.678 C19.004,4.678 18.458,5.795 18.458,6.454 L18.458,11.314 L17.077,11.314 L17.077,6.454 C17.077,5.605 16.557,4.507 15.331,4.678 C14.105,4.848 14.002,5.398 13.791,5.686 C13.805,7.401 13.805,9.277 13.791,11.315 L12.49,11.315 L12.49,3.727 Z" id="Shape"></path>
            </g>
            <g id="Group" transform="translate(249.000000, 123.000000)" fill="#6D6E71" fill-rule="nonzero">
                <path d="M12.015,0.898 L13.42,0.898 L11.74,11.977 L10.378,11.977 L12.015,0.898 Z M14.385,4.308 L15.775,4.308 L16.885,10.29 L19.709,4.308 L21.101,4.308 L17.107,11.977 L16.126,11.977 L14.385,4.308 Z M25.962,4.205 C27.832,4.495 28.869,6.269 28.167,8.969 C27.464,11.67 25.085,12.488 23.297,11.981 C21.507,11.474 21.062,9.151 21.697,7.138 C22.331,5.126 24.092,3.914 25.962,4.205 Z M25.736,5.307 C24.334,4.975 23.416,6.288 23.076,7.235 C22.736,8.181 22.457,10.692 23.946,10.993 C25.435,11.294 26.416,10.188 26.829,8.783 C27.244,7.38 27.137,5.64 25.736,5.307 Z M0.371,11.95 L5.645,1.637 L6.869,1.637 L8.933,11.95 L7.5,11.95 L7.024,9.267 L3.129,9.267 L1.799,11.95 L0.372,11.95 L0.371,11.95 Z M3.745,8.146 L6.796,8.146 L5.969,3.6 L3.745,8.146 Z" id="Shape"></path>
            </g>
            <g id="Group" transform="translate(119.000000, 157.000000)" fill="#FFFFFF" fill-rule="nonzero">
                <path d="M57.858,10.229 L55.366,10.229 L55.366,1.985 L57.858,1.985 L57.858,10.229 Z M57.858,14.566 L55.366,14.566 L55.366,12.351 L57.858,12.351 L57.858,14.566 Z" id="Shape"></path>
                <path d="M23.233,4.753 L25.245,4.753 L25.346,6.218 C26.17,4.99 27.239,4.443 28.553,4.579 C29.313,4.658 30.918,4.907 31.396,7.067 C31.571,7.859 31.534,9.197 31.521,11.016 C31.516,11.722 31.516,12.944 31.521,14.683 L29.313,14.683 L29.313,8.463 C29.313,7.732 29.109,6.915 28.496,6.606 C27.652,6.181 26.066,6.359 25.428,7.43 L25.428,14.683 L23.233,14.683 L23.233,4.753 Z M5.514,9.4 L5.514,7.732 L10.562,7.732 C10.619,10.641 10.619,12.337 10.562,12.82 C10.137,14.093 5.094,16.408 1.839,13.472 C0.869,12.596 0.412,11.627 0.163,10.159 C0.152,8.659 0.125,7.253 0.135,5.922 C0.382,4.292 0.928,3.366 1.368,2.84 C2.968,0.926 5.518,0.515 7.761,1.29 C10.004,2.065 10.295,3.676 10.477,5.251 C9.957,5.251 9.683,5.229 8.281,5.251 C8.423,4.365 7.616,2.651 5.512,2.745 C3.408,2.84 2.415,4.569 2.415,6.009 C2.415,7.449 2.339,6.966 2.415,9.828 C2.51,13.115 6.45,13.997 8.281,12.241 L8.348,9.442 L5.514,9.401 L5.514,9.4 Z M15.4,7.566 C14.724,7.561 14.013,7.561 13.27,7.566 C13.27,6.497 14.035,4.559 17.095,4.559 C20.155,4.559 20.889,6.661 20.972,7.113 C21.055,7.566 20.759,13.912 21.399,14.633 L19.126,14.635 C18.938,13.993 18.844,13.518 18.844,13.211 C18.49,13.644 17.88,14.435 16.943,14.725 C16.005,15.015 13.877,15.172 13.005,13.129 C12.43,11.783 12.797,10.269 13.877,9.575 C15.661,8.428 18.113,8.812 18.844,8.812 C18.939,6.767 18.328,6.292 16.943,6.292 C16.019,6.292 15.505,6.716 15.401,7.566 L15.4,7.566 Z M18.844,10.209 C18.0956371,10.1928835 17.346957,10.1995532 16.599,10.229 C15.707,10.307 14.912,10.966 14.979,11.906 C15.061,13.026 16.335,13.233 17.332,12.909 C18.169,12.638 18.752,11.938 18.844,11.639 L18.844,10.209 Z M48.44,4.565 C49.537,4.504 50.926,4.893 51.703,5.697 C52.563,6.587 53.177,7.693 53.177,9.52 C53.177,11.137 52.86,12.307 52.11,13.252 C51.262,14.319 49.943,14.808 48.871,14.808 C47.761,14.808 46.556,14.63 45.544,13.675 C44.714,12.895 43.948,11.555 44.024,9.686 C44.109,7.622 44.761,6.444 45.544,5.697 C46.335,4.942 47.264,4.63 48.439,4.565 L48.44,4.565 Z M48.658,6.328 C47.658,6.328 46.303,6.775 46.303,9.58 C46.303,12.385 47.396,13.065 48.658,13.065 C49.92,13.065 50.975,11.948 50.885,9.445 C50.795,6.944 49.658,6.328 48.658,6.328 Z M33.837,0.32 L35.949,0.32 C35.989,3.783 36.008,5.669 36.008,5.98 C36.523,5.18 38.016,4.09 39.608,4.584 C42.137,5.366 42.022,7.015 42.137,8.122 C42.213,8.86 42.213,11.014 42.137,14.586 L39.947,14.586 C40.006,11.638 40.006,9.543 39.947,8.302 C40.026,6.152 37.352,5.505 35.949,7.426 L36.008,14.586 L33.838,14.586 L33.838,0.321 L33.837,0.32 Z" id="Shape"></path>
            </g>
            <g id="Group" transform="translate(15.000000, 11.000000)" fill="#020202" fill-rule="nonzero">
                <path d="M20.624,8.618 C20.802,10.581 22.154,11.024 24.677,9.948 C24.909,10.471 25.105,10.932 25.267,11.329 C20.173,13.655 18.446,10.283 18.405,8.618 C18.365,6.953 18.445,3.826 22.1,3.826 C24.536,3.826 25.647,5.423 25.432,8.618 L20.624,8.618 Z M23.325,7.155 C23.319,6.891 23.494,5.492 22.112,5.492 C20.73,5.492 20.715,6.797 20.64,7.155 L23.325,7.155 Z M44.701,4.044 L46.67,4.044 L46.797,5.238 C47.32,4.102 48.087,3.675 49.102,3.956 C49.0482192,4.58393187 48.9818726,5.21072412 48.903,5.836 C48.171,5.822 47.271,5.62 46.797,6.579 L46.847,12.006 L44.701,12.006 L44.701,4.044 Z M26.715,3.997 L28.685,3.997 L28.811,5.192 C29.334,4.056 30.102,3.628 31.116,3.909 C31.0625518,4.53692513 30.9965386,5.16371737 30.918,5.789 C30.185,5.775 29.285,5.573 28.811,6.532 L28.861,11.959 L26.715,11.959 L26.715,3.997 Z M7.087,11.996 L4.875,11.996 L4.875,4.013 L6.872,4.013 C6.944,4.546 6.994,4.923 7.02,5.147 C7.566,4.147 9.017,3.418 10.495,4.079 C10.967,4.29 11.875,4.916 11.875,7.012 L11.875,11.996 L9.725,12.006 L9.725,7.012 C9.725,5.793 9.222,5.454 8.422,5.522 C7.615,5.59 7.234,5.908 7.087,6.169 C7.039,6.383 7.039,8.325 7.087,11.996 Z M39.557,3.684 C40.512,3.632 41.72,3.964 42.397,4.65 C43.144,5.409 43.679,6.352 43.679,7.91 C43.679,9.29 43.403,10.287 42.75,11.093 C42.013,12.004 40.865,12.421 39.933,12.421 C38.966,12.421 37.918,12.269 37.037,11.455 C36.317,10.789 35.649,9.647 35.716,8.053 C35.789,6.291 36.356,5.287 37.037,4.65 C37.726,4.006 38.534,3.74 39.557,3.684 Z M39.778,5.424 C39.035,5.424 38.03,5.774 38.03,7.962 C38.03,10.15 38.841,10.68 39.778,10.68 C40.715,10.68 41.499,9.81 41.432,7.857 C41.365,5.905 40.522,5.425 39.778,5.425 L39.778,5.424 Z M18.242,0.394 C18.169,0.892 18.133,1.263 18.042,2.008 C17.539,1.933 16.804,1.812 16.442,2.331 C16.236,2.624 16.246,3.104 16.246,3.955 L17.796,3.984 L17.796,5.531 L16.246,5.531 L16.246,12.006 L14.071,12.006 L14.071,5.53 L12.847,5.53 L12.847,3.954 L14.071,3.954 C14.097,2.849 13.978,1.549 15.111,0.754 C16.246,-0.042 17.649,0.241 18.242,0.394 Z M0.965,1.385 L2.815,1.385 L2.815,12.076 L0.965,12.076 L0.965,1.385 Z" id="Shape"></path>
                <path d="M32.598,4.496 L34.568,4.496 L34.568,12.116 L32.598,12.116 L32.598,4.496 Z M32.554,0.71 L32.554,2.415 L34.649,2.415 L34.649,0.71 L32.554,0.71 Z" id="Shape"></path>
            </g>
        </g>
    </g>
</svg>