<?xml version="1.0" encoding="UTF-8"?>
<svg width="301px" height="199px" viewBox="0 0 301 199" version="1.1" xmlns="http://www.w3.org/2000/svg" xmlns:xlink="http://www.w3.org/1999/xlink">
    <!-- Generator: Sketch 52.6 (67491) - http://www.bohemiancoding.com/sketch -->
    <title>reset put</title>
    <desc>Created with Sketch.</desc>
    <g id="Page-1" stroke="none" stroke-width="1" fill="none" fill-rule="evenodd">
        <g id="reset-put" transform="translate(1.000000, 1.000000)">
            <g id="Group">
                <polygon id="Path" stroke="#C2C2C2" stroke-width="2" fill="#F1F2F2" points="0 0 299 0 299 197 0 197"></polygon>
                <path d="M1.98671096,1.9798995 L1.98671096,195.020101 L297.013289,195.020101 L297.013289,1.9798995 L1.98671096,1.9798995 Z M299,0 L299,197 L0,197 L0,0 L299,0 Z" id="Path" fill="#C2C2C2" fill-rule="nonzero"></path>
                <g id="Group-13" transform="translate(2.000000, 35.000000)">
                    <path d="M7.76533333,22.5970952 L7.76533333,21.4295714 L287.587556,21.4295714 L287.587556,22.5970952 L7.76533333,22.5970952 Z M7.76533333,61.7722063 L7.76533333,60.6046825 L287.587556,60.6046825 L287.587556,61.7722063 L7.76533333,61.7722063 Z M7.76533333,100.947318 L7.76533333,99.7797941 L287.587556,99.7797941 L287.587556,100.947318 L7.76533333,100.947318 Z M7.76533333,140.086873 L7.76533333,138.919349 L287.587556,138.919349 L287.587556,140.086873 L7.76533333,140.086873 Z M40.977127,2.44355556 L42.1446508,2.44355556 L42.1446508,156.761778 L40.977127,156.761778 L40.977127,2.44355556 Z M76.3975714,2.44355556 L77.5650952,2.44355556 L77.5650952,156.761778 L76.3975714,156.761778 L76.3975714,2.44355556 Z M111.78246,2.44355556 L112.949984,2.44355556 L112.949984,156.761778 L111.78246,156.761778 L111.78246,2.44355556 Z" id="Shape" fill="#DFDEDE" fill-rule="nonzero"></path>
                    <path d="M147.202905,2.44355556 L148.370429,2.44355556 L148.370429,8.3167698 L147.202905,8.3167698 L147.202905,2.44355556 Z M147.202905,14.189984 L148.370429,14.189984 L148.370429,20.0631983 L147.202905,20.0631983 L147.202905,14.189984 Z M147.202905,25.9364125 L148.370429,25.9364125 L148.370429,31.8096268 L147.202905,31.8096268 L147.202905,25.9364125 Z M147.202905,37.682841 L148.370429,37.682841 L148.370429,43.5560553 L147.202905,43.5560553 L147.202905,37.682841 Z M147.202905,49.4292695 L148.370429,49.4292695 L148.370429,55.3024838 L147.202905,55.3024838 L147.202905,49.4292695 Z M147.202905,61.175698 L148.370429,61.175698 L148.370429,67.0489123 L147.202905,67.0489123 L147.202905,61.175698 Z M147.202905,72.9221265 L148.370429,72.9221265 L148.370429,78.7953407 L147.202905,78.7953407 L147.202905,72.9221265 Z M147.202905,84.668555 L148.370429,84.668555 L148.370429,90.5417692 L147.202905,90.5417692 L147.202905,84.668555 Z M147.202905,96.4149835 L148.370429,96.4149835 L148.370429,102.288198 L147.202905,102.288198 L147.202905,96.4149835 Z M147.202905,108.161412 L148.370429,108.161412 L148.370429,114.034626 L147.202905,114.034626 L147.202905,108.161412 Z M147.202905,119.90784 L148.370429,119.90784 L148.370429,125.781055 L147.202905,125.781055 L147.202905,119.90784 Z M147.202905,131.654269 L148.370429,131.654269 L148.370429,137.527483 L147.202905,137.527483 L147.202905,131.654269 Z M147.202905,143.400697 L148.370429,143.400697 L148.370429,149.273912 L147.202905,149.273912 L147.202905,143.400697 Z M147.202905,155.147126 L148.370429,155.147126 L148.370429,156.761778 L147.202905,156.761778 L147.202905,155.147126 Z" id="Path" fill="#E98024" fill-rule="nonzero"></path>
                    <path d="M182.584238,2.44355556 L183.751762,2.44355556 L183.751762,156.761778 L182.584238,156.761778 L182.584238,2.44355556 Z M217.969127,2.44355556 L219.136651,2.44355556 L219.136651,156.761778 L217.969127,156.761778 L217.969127,2.44355556 Z M7.76533333,81.3419841 L7.76533333,80.1744603 L287.587556,80.1744603 L287.587556,81.3419841 L7.76533333,81.3419841 Z" id="Shape" fill="#DFDEDE" fill-rule="nonzero"></path>
                    <path d="M253.389571,2.44355556 L254.557095,2.44355556 L254.557095,156.761778 L253.389571,156.761778 L253.389571,2.44355556 Z M7.76533333,42.2024286 L7.76533333,41.0349048 L287.587556,41.0349048 L287.587556,42.2024286 L7.76533333,42.2024286 Z" id="Shape" fill="#2A3052" fill-rule="nonzero"></path>
                    <path d="M7.76533333,120.517095 L7.76533333,119.349571 L13.6385476,119.349571 L13.6385476,120.517095 L7.76533333,120.517095 Z M19.5117618,120.517095 L19.5117618,119.349571 L25.3849761,119.349571 L25.3849761,120.517095 L19.5117618,120.517095 Z M31.2581903,120.517095 L31.2581903,119.349571 L37.1314046,119.349571 L37.1314046,120.517095 L31.2581903,120.517095 Z M43.0046188,120.517095 L43.0046188,119.349571 L48.877833,119.349571 L48.877833,120.517095 L43.0046188,120.517095 Z M54.7510473,120.517095 L54.7510473,119.349571 L60.6242615,119.349571 L60.6242615,120.517095 L54.7510473,120.517095 Z M66.4974758,120.517095 L66.4974758,119.349571 L72.37069,119.349571 L72.37069,120.517095 L66.4974758,120.517095 Z M78.2439043,120.517095 L78.2439043,119.349571 L84.1171185,119.349571 L84.1171185,120.517095 L78.2439043,120.517095 Z M89.9903328,120.517095 L89.9903328,119.349571 L95.863547,119.349571 L95.863547,120.517095 L89.9903328,120.517095 Z M101.736761,120.517095 L101.736761,119.349571 L107.609975,119.349571 L107.609975,120.517095 L101.736761,120.517095 Z M113.48319,120.517095 L113.48319,119.349571 L119.356404,119.349571 L119.356404,120.517095 L113.48319,120.517095 Z M125.229618,120.517095 L125.229618,119.349571 L131.102832,119.349571 L131.102832,120.517095 L125.229618,120.517095 Z M136.976047,120.517095 L136.976047,119.349571 L142.849261,119.349571 L142.849261,120.517095 L136.976047,120.517095 Z M148.722475,120.517095 L148.722475,119.349571 L154.595689,119.349571 L154.595689,120.517095 L148.722475,120.517095 Z M160.468904,120.517095 L160.468904,119.349571 L166.342118,119.349571 L166.342118,120.517095 L160.468904,120.517095 Z M172.215332,120.517095 L172.215332,119.349571 L178.088546,119.349571 L178.088546,120.517095 L172.215332,120.517095 Z M183.961761,120.517095 L183.961761,119.349571 L189.834975,119.349571 L189.834975,120.517095 L183.961761,120.517095 Z M195.708189,120.517095 L195.708189,119.349571 L201.581403,119.349571 L201.581403,120.517095 L195.708189,120.517095 Z M207.454618,120.517095 L207.454618,119.349571 L213.327832,119.349571 L213.327832,120.517095 L207.454618,120.517095 Z M219.201046,120.517095 L219.201046,119.349571 L225.07426,119.349571 L225.07426,120.517095 L219.201046,120.517095 Z M230.947475,120.517095 L230.947475,119.349571 L236.820689,119.349571 L236.820689,120.517095 L230.947475,120.517095 Z M242.693903,120.517095 L242.693903,119.349571 L248.567117,119.349571 L248.567117,120.517095 L242.693903,120.517095 Z M254.440332,120.517095 L254.440332,119.349571 L260.313546,119.349571 L260.313546,120.517095 L254.440332,120.517095 Z M266.18676,120.517095 L266.18676,119.349571 L272.059974,119.349571 L272.059974,120.517095 L266.18676,120.517095 Z M277.933189,120.517095 L277.933189,119.349571 L283.806403,119.349571 L283.806403,120.517095 L277.933189,120.517095 Z" id="Path" fill="#E98024" fill-rule="nonzero"></path>
                    <polygon id="Path" fill="#C2C2C2" fill-rule="nonzero" points="0 2.45552381 0 0.12047619 295 0.12047619 295 2.45552381"></polygon>
                    <path d="M81.5568342,83.0216617 L42.1697382,120.022191 C41.4647949,120.68442 40.3564829,120.649793 39.694254,119.944849 C39.0320252,119.239906 39.066652,118.131594 39.7715952,117.469365 L79.8498174,79.8195873 C80.2809938,79.4145371 80.8875204,79.2545493 81.462384,79.3942293 L118.404328,88.3703593 L145.556564,39.6637142 C146.092205,38.702862 147.370683,38.4679738 148.212881,39.1756828 L183.173538,68.5535615 L217.866029,66.6362715 C218.217147,66.6168669 218.565974,66.7036149 218.867103,66.8852232 L254.287547,88.247001 C255.115789,88.7465072 255.382283,89.8228602 254.882777,90.6511027 C254.38327,91.4793452 253.306917,91.7458386 252.478675,91.2463324 L217.520406,70.1632887 L182.674416,72.0890618 C182.229618,72.1136437 181.79217,71.9677954 181.451119,71.681206 L147.583224,43.2215887 L120.814991,91.2393969 C120.4317,91.9269574 119.636761,92.2742979 118.871838,92.0884374 L81.5568342,83.0216617 Z" id="Path" fill="#2A3052" fill-rule="nonzero"></path>
                    <g id="Group" opacity="0.6" transform="translate(245.222222, 80.222222)" fill="#FFFFFF">
                        <circle id="Oval" cx="8.1608889" cy="8.18755556" r="7.83644444"></circle>
                    </g>
                    <path d="M253.383111,97.3906091 C248.423135,97.3906091 244.40228,93.369754 244.40228,88.4097778 C244.40228,83.4498016 248.423135,79.4289465 253.383111,79.4289465 C258.343087,79.4289465 262.363942,83.4498016 262.363942,88.4097778 C262.363942,93.369754 258.343087,97.3906091 253.383111,97.3906091 Z M253.383111,95.1018353 C257.079032,95.1018353 260.075169,92.1056991 260.075169,88.4097778 C260.075169,84.7138565 257.079032,81.7177203 253.383111,81.7177203 C249.68719,81.7177203 246.691053,84.7138565 246.691053,88.4097778 C246.691053,92.1056991 249.68719,95.1018353 253.383111,95.1018353 Z" id="Oval" fill="#E88024" fill-rule="nonzero"></path>
                    <g id="Group" opacity="0.6" transform="translate(32.444444, 110.666667)" fill="#FFFFFF">
                        <circle id="Oval" cx="8.52622222" cy="8.2284444" r="7.83644444"></circle>
                    </g>
                    <path d="M40.9706667,127.875942 C36.0106905,127.875942 31.9898354,123.855087 31.9898354,118.895111 C31.9898354,113.935135 36.0106905,109.91428 40.9706667,109.91428 C45.9306429,109.91428 49.951498,113.935135 49.951498,118.895111 C49.951498,123.855087 45.9306429,127.875942 40.9706667,127.875942 Z M40.9706667,125.587169 C44.666588,125.587169 47.6627242,122.591032 47.6627242,118.895111 C47.6627242,115.19919 44.666588,112.203053 40.9706667,112.203053 C37.2747454,112.203053 34.2786092,115.19919 34.2786092,118.895111 C34.2786092,122.591032 37.2747454,125.587169 40.9706667,125.587169 Z" id="Oval" fill="#E88024" fill-rule="nonzero"></path>
                    <g id="Group" opacity="0.6" transform="translate(138.555556, 33.000000)" fill="#FFFFFF">
                        <circle id="Oval" cx="8.0257778" cy="8.64355556" r="7.83644444"></circle>
                    </g>
                    <path d="M146.581333,50.6243869 C141.621357,50.6243869 137.600502,46.6035318 137.600502,41.6435556 C137.600502,36.6835794 141.621357,32.6627243 146.581333,32.6627243 C151.541309,32.6627243 155.562164,36.6835794 155.562164,41.6435556 C155.562164,46.6035318 151.541309,50.6243869 146.581333,50.6243869 Z M146.581333,48.3356131 C150.277254,48.3356131 153.273391,45.3394769 153.273391,41.6435556 C153.273391,37.9476343 150.277254,34.9514981 146.581333,34.9514981 C142.885412,34.9514981 139.889275,37.9476343 139.889275,41.6435556 C139.889275,45.3394769 142.885412,48.3356131 146.581333,48.3356131 Z" id="Oval" fill="#E88024" fill-rule="nonzero"></path>
                    <path d="M256.650667,115.919111 L219.523556,115.919111 L214.243556,108.022222 L208.963556,115.922667 L171.822222,115.922667 C169.269439,115.922667 167.2,117.992106 167.2,120.544889 L167.2,144.420444 C167.2,146.973227 169.269439,149.042667 171.822222,149.042667 L256.650667,149.042667 C259.20345,149.042667 261.272889,146.973227 261.272889,144.420444 L261.272889,120.541333 C261.272889,117.98855 259.20345,115.919111 256.650667,115.919111 Z" id="Path" fill="#E88024"></path>
                </g>
            </g>
            <path d="M16.78,18.594 L16.78,23.018 L15,23.018 L15,12.354 L18.94,12.354 C20.132,12.354 21.052,12.622 21.702,13.16 C22.352,13.697 22.676,14.463 22.676,15.46 C22.676,16.011 22.533,16.486 22.248,16.884 C21.962,17.282 21.546,17.601 20.998,17.84 C21.599,18.03 22.031,18.341 22.295,18.774 C22.559,19.206 22.691,19.737 22.691,20.367 L22.691,21.253 C22.691,21.565 22.73,21.871 22.808,22.168 C22.886,22.466 23.018,22.693 23.203,22.85 L23.203,23.018 L21.373,23.018 C21.177,22.857 21.051,22.603 20.995,22.256 C20.9397602,21.9194666 20.9116696,21.5790363 20.911,21.238 L20.911,20.381 C20.911,19.834 20.755,19.4 20.442,19.078 C20.13,18.755 19.7,18.594 19.153,18.594 L16.78,18.594 Z M16.78,17.166 L18.845,17.166 C19.558,17.166 20.078,17.029 20.405,16.756 C20.733,16.482 20.896,16.065 20.896,15.503 C20.896,14.966 20.736,14.545 20.413,14.24 C20.091,13.935 19.6,13.782 18.941,13.782 L16.779,13.782 L16.779,17.166 L16.78,17.166 Z M28.103,23.172 C26.98,23.172 26.085,22.804 25.419,22.07 C24.752,21.335 24.419,20.391 24.419,19.239 L24.419,18.946 C24.419,17.793 24.75,16.838 25.412,16.078 C26.073,15.319 26.902,14.942 27.898,14.947 C28.968,14.947 29.787,15.27 30.355,15.917 C30.925,16.564 31.209,17.432 31.209,18.521 L31.209,19.568 L26.265,19.568 L26.25,19.605 C26.28,20.235 26.464,20.75 26.803,21.15 C27.143,21.55 27.613,21.75 28.213,21.75 C28.692,21.75 29.102,21.692 29.443,21.575 C29.785,21.458 30.115,21.289 30.433,21.07 L31.003,22.234 C30.706,22.498 30.31,22.72 29.817,22.901 C29.324,23.081 28.753,23.171 28.103,23.171 L28.103,23.172 Z M27.898,16.375 C27.458,16.375 27.098,16.549 26.814,16.899 C26.531,17.248 26.355,17.691 26.287,18.228 L26.301,18.265 L29.444,18.265 L29.444,18.081 C29.444,17.579 29.315,17.168 29.059,16.851 C28.803,16.534 28.416,16.375 27.899,16.375 L27.898,16.375 Z M32.315,19.165 C32.315,17.901 32.585,16.882 33.128,16.108 C33.67,15.334 34.431,14.947 35.413,14.947 C35.8125903,14.9402622 36.207973,15.0294205 36.566,15.207 C36.906,15.38 37.2,15.627 37.449,15.95 L37.449,11.592 L39.229,11.592 L39.229,23.018 L37.735,23.018 L37.559,22.037 C37.3261981,22.3886063 37.0119664,22.6788247 36.643,22.883 C36.287,23.075 35.872,23.172 35.398,23.172 C34.426,23.172 33.67,22.818 33.128,22.11 C32.586,21.402 32.315,20.472 32.315,19.32 L32.315,19.165 Z M34.095,19.319 C34.095,20.052 34.235,20.635 34.515,21.069 C34.796,21.504 35.242,21.722 35.852,21.722 C36.228,21.722 36.547,21.641 36.808,21.48 C37.0774116,21.3096455 37.2979474,21.0722249 37.448,20.791 L37.448,17.334 C37.2948923,17.0550178 37.0732615,16.819621 36.804,16.65 C36.5212085,16.4810557 36.1963103,16.3957569 35.867,16.404 C35.261,16.404 34.815,16.659 34.527,17.17 C34.238,17.68 34.094,18.345 34.094,19.165 L34.094,19.319 L34.095,19.319 Z M44.539,23.172 C43.416,23.172 42.521,22.804 41.854,22.07 C41.188,21.335 40.854,20.391 40.854,19.239 L40.854,18.946 C40.854,17.793 41.186,16.838 41.847,16.078 C42.509,15.319 43.337,14.942 44.334,14.947 C45.404,14.947 46.222,15.27 46.791,15.917 C47.36,16.564 47.644,17.432 47.644,18.521 L47.644,19.568 L42.7,19.568 L42.686,19.605 C42.716,20.235 42.899,20.75 43.239,21.15 C43.579,21.55 44.049,21.75 44.649,21.75 C45.127,21.75 45.537,21.692 45.879,21.575 C46.221,21.458 46.551,21.289 46.868,21.07 L47.439,22.234 C47.141,22.498 46.746,22.72 46.253,22.901 C45.759,23.081 45.188,23.171 44.539,23.171 L44.539,23.172 Z M44.334,16.375 C43.894,16.375 43.533,16.549 43.25,16.899 C42.967,17.248 42.79,17.691 42.722,18.228 L42.737,18.265 L45.879,18.265 L45.879,18.081 C45.879,17.579 45.751,17.168 45.495,16.851 C45.238,16.534 44.851,16.375 44.334,16.375 Z M49.527,23.018 L49.527,16.412 L48.318,16.412 L48.318,15.093 L49.527,15.093 L49.527,14.419 C49.527,13.467 49.807,12.732 50.369,12.215 C50.93,11.697 51.717,11.438 52.727,11.438 C53.079,11.438 53.428,11.476 53.775,11.552 C54.121,11.628 54.519,11.736 54.968,11.878 L54.698,13.35 C54.4046486,13.2500291 54.1062353,13.1655788 53.804,13.097 C53.4912937,13.0289614 53.1720148,12.9957591 52.852,12.998 C52.32,12.998 51.929,13.117 51.68,13.354 C51.43,13.591 51.306,13.946 51.306,14.419 L51.306,15.093 L52.866,15.093 L52.866,16.412 L51.306,16.412 L51.306,23.018 L49.526,23.018 L49.527,23.018 Z M55.811,23.018 L54.031,23.018 L54.031,15.093 L55.811,15.093 L55.811,23.018 Z M59.421,15.093 L59.524,16.236 C59.783,15.83 60.109,15.514 60.502,15.287 C60.895,15.06 61.338,14.947 61.832,14.947 C62.656,14.947 63.3,15.197 63.762,15.697 C64.222,16.197 64.453,16.978 64.453,18.037 L64.453,23.018 L62.673,23.018 L62.673,18.052 C62.673,17.456 62.55,17.032 62.303,16.782 C62.057,16.53 61.683,16.404 61.179,16.404 C60.5304198,16.3932868 59.9229098,16.7205241 59.575,17.268 L59.575,23.018 L57.795,23.018 L57.795,15.093 L59.422,15.093 L59.421,15.093 Z M68.204,23.018 L66.424,23.018 L66.424,15.093 L68.204,15.093 L68.204,23.018 Z M68.204,13.152 L66.424,13.152 L66.424,11.592 L68.204,11.592 L68.204,13.152 Z M73.47,21.751 C73.905,21.751 74.271,21.623 74.57,21.366 C74.867,21.11 75.016,20.789 75.016,20.403 L76.627,20.403 L76.642,20.447 C76.666,21.189 76.365,21.829 75.737,22.367 C75.11,22.903 74.354,23.172 73.47,23.172 C72.303,23.172 71.409,22.796 70.786,22.044 C70.164,21.292 69.852,20.34 69.852,19.187 L69.852,18.931 C69.852,17.784 70.164,16.833 70.786,16.078 C71.409,15.324 72.303,14.947 73.47,14.947 C74.423,14.947 75.195,15.224 75.789,15.778 C76.382,16.332 76.669,17.037 76.649,17.891 L76.635,17.935 L75.015,17.935 C75.015,17.5 74.873,17.132 74.587,16.829 C74.302,16.526 73.929,16.375 73.47,16.375 C72.802,16.375 72.328,16.618 72.05,17.104 C71.771,17.59 71.632,18.199 71.632,18.931 L71.632,19.187 C71.632,19.935 71.772,20.549 72.05,21.029 C72.328,21.51 72.802,21.751 73.47,21.751 Z M73.917,23.025 L73.837,23.421 C74.149,23.475 74.41,23.601 74.62,23.801 C74.83,24.001 74.935,24.297 74.935,24.688 C74.935,25.186 74.728,25.583 74.313,25.878 C73.898,26.174 73.307,26.321 72.54,26.321 L72.489,25.318 C72.792,25.318 73.035,25.264 73.218,25.157 C73.3956031,25.059087 73.5019246,24.8685619 73.492,24.666 C73.492,24.451 73.408,24.3 73.24,24.212 C73.071,24.124 72.787,24.068 72.386,24.043 L72.621,23.025 L73.917,23.025 Z M82.837,23.018 C82.7756686,22.8251892 82.7232794,22.6296473 82.68,22.432 C82.638,22.242 82.61,22.052 82.595,21.861 C82.3449346,22.2379901 82.0164578,22.5565751 81.632,22.795 C81.2323258,23.0468403 80.7683661,23.177763 80.296,23.172 C79.47,23.172 78.836,22.959 78.395,22.535 C77.953,22.11 77.732,21.526 77.732,20.785 C77.732,20.018 78.035,19.421 78.64,18.993 C79.246,18.566 80.098,18.353 81.197,18.353 L82.581,18.353 L82.581,17.657 C82.581,17.242 82.459,16.917 82.215,16.683 C81.97,16.448 81.621,16.331 81.167,16.331 C80.762,16.331 80.44,16.429 80.2,16.624 C79.9682487,16.8046612 79.8355126,17.0842228 79.842,17.378 L78.128,17.378 L78.12,17.334 C78.086,16.709 78.366,16.155 78.959,15.672 C79.552,15.188 80.325,14.947 81.277,14.947 C82.2,14.947 82.945,15.181 83.511,15.65 C84.077,16.119 84.361,16.792 84.361,17.671 L84.361,21.194 C84.361,21.521 84.383,21.835 84.426,22.135 C84.47,22.435 84.541,22.73 84.639,23.018 L82.837,23.018 Z M80.655,21.744 C81.104,21.744 81.508,21.631 81.867,21.407 C82.226,21.182 82.464,20.926 82.581,20.637 L82.581,19.466 L81.167,19.466 C80.65,19.466 80.244,19.594 79.951,19.85 C79.658,20.107 79.511,20.408 79.511,20.755 C79.511,21.058 79.611,21.298 79.809,21.476 C80.006,21.654 80.289,21.744 80.655,21.744 Z M83.804,11.812 C83.804,12.276 83.657,12.672 83.364,12.998 C83.072,13.326 82.705,13.489 82.266,13.489 C81.919,13.489 81.544,13.381 81.142,13.163 C80.739,12.946 80.412,12.837 80.164,12.837 C79.974,12.837 79.812,12.917 79.68,13.075 C79.5481389,13.2344678 79.4781954,13.4361323 79.483,13.643 L78.523,13.387 C78.523,12.927 78.668,12.528 78.959,12.189 C79.249,11.849 79.614,11.68 80.054,11.68 C80.327,11.68 80.683,11.789 81.12,12.006 C81.557,12.223 81.902,12.332 82.156,12.332 C82.3440333,12.3307582 82.5214807,12.2447899 82.639,12.098 C82.7765721,11.9397441 82.8497304,11.7356144 82.844,11.526 L83.804,11.812 Z M85.899,18.982 C85.899,17.806 86.221,16.839 86.865,16.082 C87.52,15.325 88.406,14.947 89.525,14.947 C90.662,14.947 91.553,15.325 92.197,16.082 C92.847,16.834 93.172,17.801 93.172,18.982 L93.172,19.136 C93.172,20.328 92.847,21.299 92.197,22.051 C91.553,22.798 90.667,23.171 89.539,23.171 C88.406,23.171 87.515,22.796 86.865,22.044 C86.221,21.292 85.899,20.323 85.899,19.136 L85.899,18.982 Z M87.679,19.136 C87.679,19.908 87.829,20.538 88.133,21.026 C88.43,21.509 88.899,21.751 89.539,21.751 C90.159,21.751 90.623,21.509 90.93,21.026 C91.243,20.538 91.4,19.908 91.4,19.136 L91.4,18.982 C91.4,18.226 91.243,17.603 90.93,17.115 C90.623,16.622 90.154,16.375 89.524,16.375 C88.904,16.375 88.44,16.622 88.133,17.115 C87.83,17.608 87.678,18.23 87.678,18.982 L87.678,19.136 L87.679,19.136 Z M101.887,19.202 L98.042,19.202 L98.042,17.768 L101.887,17.768 L101.887,19.203 L101.887,19.202 Z" id="Shape" fill="#000000" fill-rule="nonzero"></path>
            <path d="M108.802,19.636 L108.992,20.376 L109.036,20.376 L109.22,19.65 L111.768,11.762 L113.665,11.762 L109.857,22.426 L108.165,22.426 L104.364,11.762 L106.261,11.762 L108.802,19.636 Z M117.767,22.58 C116.644,22.58 115.749,22.213 115.083,21.478 C114.416,20.743 114.083,19.799 114.083,18.647 L114.083,18.354 C114.083,17.202 114.413,16.246 115.075,15.487 C115.737,14.727 116.565,14.35 117.562,14.355 C118.632,14.355 119.45,14.678 120.019,15.325 C120.588,15.972 120.872,16.84 120.872,17.929 L120.872,18.976 L115.929,18.976 L115.914,19.013 C115.944,19.643 116.128,20.158 116.467,20.559 C116.807,20.959 117.277,21.159 117.877,21.159 C118.355,21.159 118.765,21.101 119.107,20.983 C119.449,20.866 119.779,20.698 120.097,20.478 L120.667,21.643 C120.369,21.906 119.974,22.128 119.481,22.309 C118.988,22.489 118.416,22.58 117.767,22.58 Z M117.562,15.783 C117.122,15.783 116.762,15.958 116.478,16.307 C116.195,16.656 116.018,17.099 115.951,17.637 L115.965,17.673 L119.107,17.673 L119.107,17.49 C119.107,16.987 118.979,16.577 118.723,16.26 C118.466,15.942 118.079,15.783 117.562,15.783 Z M123.919,14.501 L124.022,15.644 C124.281,15.239 124.607,14.923 125,14.695 C125.393,14.468 125.836,14.355 126.329,14.355 C127.154,14.355 127.797,14.605 128.259,15.105 C128.72,15.606 128.951,16.386 128.951,17.445 L128.951,22.426 L127.171,22.426 L127.171,17.46 C127.171,16.865 127.048,16.441 126.801,16.19 C126.555,15.938 126.18,15.812 125.677,15.812 C125.028223,15.8015023 124.420669,16.1291419 124.073,16.677 L124.073,22.427 L122.293,22.427 L122.293,14.501 L123.919,14.501 Z M130.474,18.574 C130.474,17.309 130.745,16.29 131.287,15.516 C131.829,14.742 132.591,14.355 133.573,14.355 C133.97259,14.3482622 134.367973,14.4374205 134.726,14.615 C135.066,14.788 135.36,15.036 135.609,15.358 L135.609,11 L137.389,11 L137.389,22.426 L135.894,22.426 L135.719,21.445 C135.486198,21.7966063 135.171966,22.0868247 134.803,22.291 C134.447,22.484 134.032,22.58 133.558,22.58 C132.586,22.58 131.829,22.226 131.288,21.518 C130.745,20.81 130.474,19.88 130.474,18.728 L130.474,18.574 Z M132.254,18.727 C132.254,19.46 132.394,20.043 132.675,20.478 C132.956,20.913 133.402,21.13 134.012,21.13 C134.388,21.13 134.707,21.05 134.968,20.888 C135.237283,20.7179224 135.457807,20.4808588 135.608,20.2 L135.608,16.743 C135.455029,16.463652 135.233387,16.2278992 134.964,16.058 C134.681208,15.8890557 134.35631,15.8037569 134.027,15.812 C133.421,15.812 132.974,16.068 132.687,16.578 C132.398,17.088 132.254,17.753 132.254,18.574 L132.254,18.727 Z M144.068,22.427 C144.006639,22.2338602 143.954249,22.037984 143.911,21.84 C143.869,21.65 143.841,21.46 143.827,21.269 C143.576646,21.6460961 143.24782,21.964689 142.863,22.203 C142.463326,22.4548403 141.999366,22.585763 141.527,22.58 C140.702,22.58 140.068,22.368 139.627,21.943 C139.184,21.518 138.963,20.935 138.963,20.193 C138.963,19.426 139.266,18.829 139.871,18.402 C140.477,17.974 141.329,17.761 142.428,17.761 L143.812,17.761 L143.812,17.065 C143.812,16.65 143.69,16.325 143.446,16.091 C143.202,15.856 142.852,15.739 142.398,15.739 C141.993,15.739 141.671,15.837 141.432,16.032 C141.199211,16.2124585 141.06567,16.4925247 141.072,16.787 L139.359,16.787 L139.351,16.743 C139.317,16.118 139.597,15.563 140.19,15.08 C140.783,14.597 141.556,14.355 142.508,14.355 C143.431,14.355 144.176,14.589 144.742,15.058 C145.308,15.527 145.592,16.201 145.592,17.08 L145.592,20.602 C145.592,20.93 145.614,21.243 145.658,21.544 C145.702,21.844 145.772,22.138 145.87,22.426 L144.068,22.426 L144.068,22.427 Z M141.886,21.152 C142.335,21.152 142.739,21.039 143.098,20.815 C143.457,20.59 143.695,20.334 143.812,20.045 L143.812,18.874 L142.398,18.874 C141.881,18.874 141.475,19.002 141.182,19.258 C140.89,19.515 140.743,19.816 140.743,20.163 C140.743,20.466 140.842,20.706 141.04,20.884 C141.237,21.063 141.52,21.152 141.886,21.152 Z" id="Shape" fill="#000000" fill-rule="nonzero"></path>
            <path d="M50.397,66.37 L49.267,66.37 L50.017,62.603 L46.255,62.603 L45.505,66.37 L44.374,66.37 L46.079,57.84 L47.209,57.84 L46.436,61.695 L50.198,61.695 L50.972,57.839 L52.102,57.839 L50.397,66.37 Z M52.565,63.142 C52.722,62.165 53.08,61.383 53.641,60.795 C54.201,60.207 54.894,59.913 55.718,59.913 C56.507,59.913 57.098,60.219 57.49,60.83 C57.883,61.442 58.005,62.212 57.856,63.142 L57.839,63.271 C57.679,64.251 57.319,65.033 56.758,65.617 C56.198,66.201 55.505,66.493 54.681,66.493 C53.891,66.493 53.301,66.189 52.908,65.579 C52.516,64.97 52.395,64.2 52.548,63.271 L52.565,63.141 L52.565,63.142 Z M53.679,63.271 C53.565,63.97 53.599,64.531 53.781,64.955 C53.963,65.379 54.31,65.591 54.821,65.591 C55.298,65.591 55.704,65.369 56.04,64.926 C56.376,64.483 56.597,63.931 56.702,63.271 L56.72,63.141 C56.83,62.454 56.792,61.896 56.608,61.466 C56.425,61.036 56.081,60.822 55.578,60.822 C55.097,60.822 54.689,61.044 54.355,61.49 C54.021,61.935 53.802,62.486 53.696,63.142 L53.679,63.271 Z M62.549,61.05 L61.929,61.015 C61.671,61.015 61.434,61.088 61.217,61.235 C60.9854335,61.3971573 60.7922318,61.608109 60.651,61.853 L59.749,66.37 L58.619,66.37 L59.884,60.03 L60.897,60.03 L60.827,60.88 C61.046,60.572 61.293,60.333 61.568,60.165 C61.9698276,59.9155782 62.458372,59.8476542 62.913,59.978 L62.55,61.05 L62.549,61.05 Z M66.206,66.37 C66.206,66.179 66.21,66.022 66.218,65.899 C66.226,65.776 66.239,65.649 66.258,65.521 C65.9965796,65.7980442 65.6932048,66.03224 65.359,66.215 C65.0495365,66.3926831 64.6998159,66.4883744 64.343,66.493 C63.765,66.493 63.338,66.321 63.063,65.975 C62.787,65.629 62.71,65.167 62.831,64.589 C62.956,63.945 63.273,63.461 63.783,63.139 C64.293,62.817 64.946,62.656 65.743,62.656 L66.827,62.656 L66.95,62.029 C67.028,61.634 66.985,61.334 66.821,61.129 C66.657,60.924 66.384,60.822 66.001,60.822 C65.673,60.822 65.376,60.918 65.111,61.112 C64.845,61.305 64.686,61.531 64.636,61.788 L63.563,61.788 L63.552,61.753 C63.63,61.265 63.922,60.836 64.431,60.467 C64.938,60.097 65.544,59.913 66.247,59.913 C66.876,59.913 67.373,60.1 67.738,60.473 C68.103,60.846 68.22,61.368 68.087,62.04 L67.477,65.093 C67.427,65.331 67.392,65.552 67.372,65.755 C67.352,65.958 67.352,66.163 67.372,66.37 L66.206,66.37 Z M64.706,65.527 C65.022,65.527 65.345,65.435 65.673,65.251 C66.001,65.068 66.255,64.851 66.435,64.601 L66.669,63.435 L65.549,63.435 C65.163,63.435 64.815,63.554 64.507,63.792 C64.198,64.031 64.015,64.304 63.956,64.612 C63.894,64.913 63.923,65.141 64.044,65.295 C64.165,65.449 64.386,65.527 64.706,65.527 Z M72.036,63.2 C72.251,62.11 72.596,61.29 73.07,60.74 C73.545,60.189 74.155,59.913 74.901,59.913 C75.226,59.913 75.519,59.981 75.783,60.115 C76.047,60.25 76.263,60.441 76.431,60.687 L77.122,57.23 L78.252,57.23 L76.425,66.37 L75.452,66.37 L75.493,65.761 C75.057252,66.2329809 74.4423458,66.4988471 73.8,66.493 C73.12,66.493 72.607,66.189 72.262,65.579 C71.916,64.97 71.833,64.218 72.012,63.323 L72.036,63.2 Z M73.149,63.323 C73.013,63.995 73.038,64.535 73.226,64.943 C73.413,65.352 73.765,65.556 74.28,65.556 C74.558,65.556 74.807,65.479 75.027,65.324 C75.2702304,65.1458603 75.4764077,64.9220203 75.634,64.665 L76.231,61.671 C76.1379564,61.4318078 75.9783233,61.2242848 75.771,61.073 C75.566,60.925 75.311,60.851 75.007,60.851 C74.538,60.851 74.15,61.063 73.844,61.487 C73.537,61.91 73.314,62.482 73.173,63.2 L73.149,63.323 Z M80.62,66.493 C79.823,66.493 79.22,66.198 78.812,65.606 C78.404,65.014 78.274,64.253 78.422,63.323 L78.464,63.066 C78.612,62.128 78.982,61.368 79.574,60.786 C80.166,60.204 80.806,59.913 81.494,59.913 C82.27,59.913 82.827,60.173 83.163,60.693 C83.499,61.213 83.601,61.898 83.468,62.749 L83.351,63.47 L79.531,63.47 C79.444,64.118 79.504,64.634 79.709,65.017 C79.914,65.4 80.265,65.591 80.761,65.591 C81.4006401,65.5949916 82.0211352,65.3729308 82.513,64.964 L82.835,65.714 C82.5675326,65.9547694 82.2575878,66.1436527 81.921,66.271 C81.55,66.419 81.116,66.493 80.621,66.493 L80.62,66.493 Z M81.352,60.822 C81.024,60.822 80.707,60.986 80.4,61.314 C80.08377,61.6598121 79.8574552,62.0780996 79.741,62.532 L79.759,62.568 L82.366,62.568 L82.39,62.415 C82.464,61.943 82.419,61.559 82.255,61.264 C82.091,60.969 81.79,60.822 81.352,60.822 Z M90.827,61.05 L90.206,61.015 C89.948,61.015 89.711,61.088 89.494,61.235 C89.2627964,61.3972686 89.0699435,61.6082121 88.929,61.853 L88.026,66.37 L86.896,66.37 L88.161,60.03 L89.175,60.03 L89.105,60.88 C89.323,60.572 89.57,60.333 89.845,60.165 C90.2468276,59.9155782 90.735372,59.8476542 91.19,59.978 L90.827,61.05 Z M93.311,66.493 C92.515,66.493 91.912,66.198 91.504,65.606 C91.096,65.014 90.966,64.253 91.114,63.323 L91.155,63.066 C91.304,62.128 91.674,61.368 92.265,60.786 C92.857,60.204 93.497,59.913 94.185,59.913 C94.962,59.913 95.519,60.173 95.855,60.693 C96.19,61.213 96.292,61.898 96.159,62.749 L96.042,63.47 L92.222,63.47 C92.136,64.118 92.195,64.634 92.4,65.017 C92.605,65.4 92.956,65.591 93.452,65.591 C94.0916401,65.5949916 94.7121352,65.3729308 95.204,64.964 L95.526,65.714 C95.2585326,65.9547694 94.9485878,66.1436527 94.612,66.271 C94.242,66.419 93.808,66.493 93.312,66.493 L93.311,66.493 Z M94.044,60.822 C93.716,60.822 93.398,60.986 93.092,61.314 C92.7754087,61.6597065 92.5487457,62.0780028 92.432,62.532 L92.45,62.568 L95.058,62.568 L95.081,62.415 C95.155,61.943 95.111,61.559 94.946,61.264 C94.782,60.969 94.481,60.822 94.044,60.822 Z M97.132,63.2 C97.347,62.11 97.692,61.29 98.166,60.74 C98.641,60.189 99.251,59.913 99.997,59.913 C100.321,59.913 100.615,59.981 100.879,60.115 C101.143,60.25 101.359,60.441 101.526,60.687 L102.218,57.23 L103.348,57.23 L101.52,66.37 L100.548,66.37 L100.588,65.761 C100.152252,66.2329809 99.5373458,66.4988471 98.895,66.493 C98.215,66.493 97.703,66.189 97.357,65.579 C97.012,64.97 96.929,64.218 97.108,63.323 L97.132,63.2 Z M98.245,63.323 C98.108,63.995 98.134,64.535 98.321,64.943 C98.509,65.352 98.861,65.556 99.376,65.556 C99.653,65.556 99.902,65.479 100.123,65.324 C100.36587,65.1457618 100.571702,64.9219282 100.729,64.665 L101.327,61.671 C101.233956,61.4318078 101.074323,61.2242848 100.867,61.073 C100.662,60.925 100.407,60.851 100.102,60.851 C99.634,60.851 99.246,61.063 98.939,61.487 C98.633,61.91 98.409,62.482 98.269,63.2 L98.245,63.323 Z M105.715,66.493 C104.919,66.493 104.316,66.198 103.908,65.606 C103.5,65.014 103.37,64.253 103.518,63.323 L103.56,63.066 C103.708,62.128 104.078,61.368 104.67,60.786 C105.262,60.204 105.901,59.913 106.589,59.913 C107.366,59.913 107.923,60.173 108.259,60.693 C108.595,61.213 108.696,61.898 108.563,62.749 L108.446,63.47 L104.626,63.47 C104.54,64.118 104.6,64.634 104.805,65.017 C105.01,65.4 105.36,65.591 105.856,65.591 C106.49564,65.5949916 107.116135,65.3729308 107.608,64.964 L107.931,65.714 C107.663533,65.9547694 107.353588,66.1436527 107.017,66.271 C106.645,66.419 106.212,66.493 105.716,66.493 L105.715,66.493 Z M106.448,60.822 C106.12,60.822 105.803,60.986 105.496,61.314 C105.179409,61.6597065 104.952746,62.0780028 104.836,62.532 L104.854,62.568 L107.462,62.568 L107.485,62.415 C107.56,61.943 107.515,61.559 107.351,61.264 C107.186,60.969 106.886,60.822 106.448,60.822 Z M109.436,66.37 L110.532,60.886 L109.612,60.886 L109.782,60.031 L110.702,60.031 L110.842,59.345 C110.992,58.587 111.295,58.025 111.754,57.657 C112.213,57.29 112.8,57.107 113.514,57.107 C113.741,57.107 113.974,57.137 114.214,57.2 C114.455,57.263 114.718,57.35 115.003,57.464 L114.616,58.402 C114.435852,58.3138403 114.247655,58.2431827 114.054,58.191 C113.842334,58.1322911 113.623657,58.1026856 113.404,58.103 C113.004,58.103 112.686,58.206 112.448,58.413 C112.21,58.62 112.052,58.931 111.974,59.345 L111.833,60.031 L112.976,60.031 L112.806,60.886 L111.663,60.886 L110.567,66.37 L109.437,66.37 L109.436,66.37 Z M113.766,66.37 L112.63,66.37 L113.895,60.03 L115.032,60.03 L113.767,66.37 L113.766,66.37 Z M117.628,60.904 C117.886,60.584 118.178,60.338 118.504,60.168 C118.83,59.998 119.181,59.913 119.556,59.913 C120.153,59.913 120.596,60.116 120.886,60.523 C121.175,60.929 121.237,61.544 121.073,62.368 L120.27,66.37 L119.14,66.37 L119.936,62.392 C120.054,61.798 120.038,61.392 119.89,61.176 C119.741,60.959 119.452,60.851 119.022,60.851 C118.732661,60.8558725 118.45055,60.9421696 118.208,61.1 C117.930591,61.2733486 117.689742,61.4992508 117.499,61.765 L116.579,66.37 L115.449,66.37 L116.714,60.03 L117.727,60.03 L117.627,60.904 L117.628,60.904 Z M123.088,66.37 L121.958,66.37 L123.224,60.03 L124.354,60.03 L123.089,66.37 L123.088,66.37 Z M124.683,58.407 L123.552,58.407 L123.786,57.23 L124.916,57.23 L124.683,58.407 Z M127.413,65.591 C127.749,65.591 128.07,65.471 128.377,65.234 C128.684,64.995 128.864,64.706 128.919,64.366 L129.933,64.366 L129.944,64.402 C129.866,64.972 129.561,65.463 129.03,65.875 C128.531667,66.2755324 127.911344,66.4935982 127.272,66.493 C126.444,66.493 125.841,66.189 125.462,65.579 C125.083,64.97 124.966,64.218 125.11,63.323 L125.151,63.077 C125.296,62.144 125.643,61.383 126.191,60.795 C126.741,60.207 127.451,59.913 128.321,59.913 C128.993,59.913 129.519,60.133 129.901,60.573 C130.281,61.012 130.413,61.55 130.296,62.187 L130.284,62.217 L129.259,62.217 C129.325,61.81 129.259,61.476 129.059,61.214 C128.86,60.952 128.567,60.822 128.181,60.822 C127.649,60.822 127.226,61.042 126.909,61.484 C126.593,61.925 126.386,62.456 126.288,63.077 L126.247,63.323 C126.142,63.995 126.169,64.541 126.329,64.961 C126.489,65.381 126.851,65.591 127.413,65.591 Z M127.448,66.417 L127.319,66.722 C127.520911,66.7547481 127.702466,66.8639674 127.826,67.027 C127.946,67.187 127.976,67.423 127.916,67.736 C127.835,68.134 127.635,68.436 127.316,68.644 C126.998,68.851 126.576,68.95 126.048,68.943 L126.018,68.925 L126.101,68.327 C126.339,68.327 126.546,68.28 126.721,68.184 C126.88945,68.0984246 127.008738,67.9396212 127.044,67.754 C127.083,67.554 127.049,67.42 126.941,67.352 C126.834,67.283 126.624,67.236 126.311,67.208 L126.645,66.418 L127.448,66.418 L127.448,66.417 Z M134.386,66.37 C134.386,66.179 134.39,66.022 134.397,65.899 C134.405,65.776 134.419,65.649 134.438,65.521 C134.17658,65.7980442 133.873205,66.03224 133.539,66.215 C133.229241,66.3928473 132.879156,66.4885443 132.522,66.493 C131.944,66.493 131.518,66.321 131.242,65.975 C130.967,65.629 130.89,65.167 131.011,64.589 C131.136,63.945 131.453,63.461 131.963,63.139 C132.473,62.817 133.126,62.656 133.923,62.656 L135.007,62.656 L135.13,62.029 C135.208,61.634 135.165,61.334 135,61.129 C134.837,60.924 134.563,60.822 134.18,60.822 C133.852,60.822 133.556,60.918 133.29,61.112 C133.024,61.305 132.866,61.531 132.815,61.788 L131.743,61.788 L131.731,61.753 C131.81,61.265 132.102,60.836 132.611,60.467 C133.118,60.097 133.724,59.913 134.427,59.913 C135.056,59.913 135.553,60.1 135.917,60.473 C136.283,60.846 136.399,61.368 136.267,62.04 L135.657,65.093 C135.607,65.331 135.571,65.552 135.552,65.755 C135.532,65.958 135.532,66.163 135.552,66.37 L134.386,66.37 Z M132.886,65.527 C133.202,65.527 133.524,65.435 133.852,65.251 C134.181,65.068 134.435,64.851 134.614,64.601 L134.849,63.435 L133.729,63.435 C133.343,63.435 132.995,63.554 132.686,63.792 C132.378,64.031 132.194,64.304 132.136,64.612 C132.073,64.913 132.102,65.141 132.224,65.295 C132.344,65.449 132.565,65.527 132.886,65.527 Z M136.688,57.452 C136.636243,57.8097578 136.467455,58.1403006 136.208,58.392 C135.97508,58.6301638 135.656127,58.7645924 135.323,58.765 C135.081,58.765 134.832,58.675 134.576,58.492 C134.32,58.311 134.099,58.22 133.911,58.22 C133.767,58.22 133.63,58.284 133.501,58.413 C133.375389,58.5358412 133.29324,58.6962773 133.267,58.87 L132.681,58.718 C132.739,58.343 132.896,58.025 133.152,57.763 C133.408,57.501 133.706,57.37 134.046,57.37 C134.233,57.37 134.468,57.462 134.749,57.646 C135.03,57.829 135.267,57.921 135.458,57.921 C135.598,57.921 135.734,57.858 135.865,57.731 C135.994633,57.6063096 136.079965,57.4426697 136.108,57.265 L136.688,57.452 Z M137.356,63.142 C137.513,62.165 137.871,61.383 138.432,60.795 C138.992,60.207 139.685,59.913 140.509,59.913 C141.298,59.913 141.889,60.219 142.281,60.83 C142.674,61.442 142.796,62.212 142.647,63.142 L142.63,63.271 C142.47,64.251 142.11,65.033 141.549,65.617 C140.989,66.201 140.296,66.493 139.472,66.493 C138.682,66.493 138.092,66.189 137.699,65.579 C137.307,64.97 137.186,64.2 137.339,63.271 L137.356,63.141 L137.356,63.142 Z M138.47,63.271 C138.356,63.97 138.39,64.531 138.572,64.955 C138.754,65.379 139.101,65.591 139.612,65.591 C140.089,65.591 140.495,65.369 140.831,64.926 C141.167,64.483 141.388,63.931 141.493,63.271 L141.511,63.141 C141.621,62.454 141.583,61.896 141.399,61.466 C141.216,61.036 140.872,60.822 140.369,60.822 C139.888,60.822 139.48,61.044 139.146,61.49 C138.812,61.935 138.593,62.486 138.487,63.142 L138.47,63.271 Z" id="Shape" fill="#6D6E70" fill-rule="nonzero"></path>
            <path d="M271.275,138.758 L266.411,138.758 L266.411,143.475 L264.969,143.475 L264.969,132.811 L272.022,132.811 L272.022,133.946 L266.412,133.946 L266.412,137.623 L271.275,137.623 L271.275,138.758 Z M274.995,143.475 L273.553,143.475 L273.553,135.55 L274.995,135.55 L274.995,143.475 Z M274.995,133.521 L273.553,133.521 L273.553,132.049 L274.995,132.049 L274.995,133.521 Z M278.504,135.55 L278.606,136.59 C278.866,136.214 279.193,135.922 279.591,135.715 C279.989,135.507 280.452,135.404 280.979,135.404 C281.507,135.404 281.959,135.526 282.338,135.77 C282.716,136.014 283.001,136.38 283.191,136.868 C283.425799,136.434364 283.765899,136.066752 284.18,135.799 C284.59,135.535 285.069,135.404 285.616,135.404 C286.421,135.404 287.058,135.681 287.527,136.234 C287.996,136.789 288.23,137.623 288.23,138.736 L288.23,143.475 L286.787,143.475 L286.787,138.721 C286.787,137.941 286.653,137.387 286.385,137.062 C286.116,136.738 285.715,136.575 285.183,136.575 C284.69,136.575 284.291,136.746 283.986,137.088 C283.681,137.43 283.501,137.862 283.448,138.385 L283.448,143.475 L281.998,143.475 L281.998,138.721 C281.998,137.979 281.859,137.436 281.584,137.091 C281.308,136.748 280.911,136.575 280.394,136.575 C279.954,136.575 279.593,136.665 279.309,136.846 C279.026,137.027 278.809,137.281 278.658,137.608 L278.658,143.475 L277.215,143.475 L277.215,135.55 L278.504,135.55 Z M19.732,179.67 L18.282,179.67 L18.282,169.006 L19.732,169.006 L19.732,179.67 Z M23.468,171.745 L23.57,172.925 C23.834,172.505 24.165,172.178 24.563,171.946 C24.961,171.715 25.413,171.599 25.921,171.599 C26.776,171.599 27.437,171.849 27.906,172.349 C28.375,172.849 28.609,173.622 28.609,174.667 L28.609,179.67 L27.166,179.67 L27.166,174.697 C27.166,173.998 27.028,173.503 26.753,173.21 C26.477,172.917 26.056,172.77 25.489,172.77 C25.074,172.77 24.707,172.87 24.387,173.07 C24.067,173.27 23.812,173.544 23.621,173.891 L23.621,179.67 L22.179,179.67 L22.179,171.745 L23.468,171.745 Z M32.22,179.67 L30.777,179.67 L30.777,171.745 L32.22,171.745 L32.22,179.67 Z M32.198,168.837 L33.883,168.837 L33.897,168.881 L31.92,170.786 L30.843,170.786 L32.198,168.837 Z M37.698,178.696 C38.178,178.696 38.598,178.548 38.962,178.253 C39.326,177.957 39.508,177.595 39.508,177.165 L40.804,177.165 L40.819,177.209 C40.843,177.893 40.539,178.499 39.907,179.029 C39.291623,179.552753 38.5070096,179.835257 37.699,179.824 C36.546,179.824 35.665,179.448 35.055,178.696 C34.445,177.944 34.139,176.999 34.139,175.861 L34.139,175.554 C34.139,174.426 34.445,173.484 35.059,172.73 C35.671,171.976 36.551,171.599 37.699,171.599 C38.626,171.599 39.384,171.872 39.973,172.419 C40.561,172.966 40.846,173.637 40.826,174.433 L40.811,174.477 L39.509,174.477 C39.509,173.994 39.338,173.582 38.996,173.243 C38.654,172.903 38.222,172.733 37.7,172.733 C36.943,172.733 36.402,173.006 36.077,173.55 C35.753,174.095 35.59,174.763 35.59,175.554 L35.59,175.861 C35.59,176.671 35.751,177.347 36.074,177.886 C36.396,178.426 36.938,178.696 37.7,178.696 L37.698,178.696 Z M43.998,179.67 L42.555,179.67 L42.555,171.745 L43.997,171.745 L43.997,179.67 L43.998,179.67 Z M43.998,169.716 L42.555,169.716 L42.555,168.244 L43.997,168.244 L43.997,169.716 L43.998,169.716 Z M45.88,175.634 C45.88,174.462 46.197,173.497 46.832,172.737 C47.467,171.978 48.328,171.599 49.417,171.599 C50.516,171.599 51.384,171.977 52.021,172.734 C52.658,173.491 52.977,174.457 52.977,175.634 L52.977,175.795 C52.977,176.977 52.66,177.944 52.025,178.695 C51.39,179.448 50.525,179.824 49.432,179.824 C48.338,179.824 47.472,179.446 46.836,178.692 C46.198,177.938 45.88,176.972 45.88,175.795 L45.88,175.635 L45.88,175.634 Z M47.323,175.795 C47.323,176.635 47.5,177.329 47.853,177.875 C48.208,178.422 48.733,178.695 49.432,178.695 C50.12,178.695 50.642,178.422 50.999,177.875 C51.356,177.329 51.534,176.635 51.534,175.795 L51.534,175.635 C51.534,174.805 51.354,174.113 50.996,173.561 C50.636,173.01 50.111,172.734 49.417,172.734 C48.729,172.734 48.207,173.01 47.854,173.561 C47.5,174.113 47.323,174.804 47.323,175.634 L47.323,175.795 Z" id="Shape" fill="#2A3052" fill-rule="nonzero"></path>
            <path d="M267.501,89.101 L264.231,89.101 L263.042,91.298 L261.894,91.298 L266.675,82.767 L267.636,82.767 L268.954,91.297 L267.8,91.297 L267.501,89.101 Z M264.759,88.134 L267.367,88.134 L266.851,84.343 L266.816,84.331 L264.759,88.134 Z M271.158,91.298 L270.027,91.298 L271.855,82.158 L272.985,82.158 L271.158,91.298 Z M275.242,89.428 L275.259,89.804 L275.294,89.81 L275.441,89.429 L277.48,84.958 L278.634,84.958 L275.458,91.298 L274.608,91.298 L273.431,84.958 L274.591,84.958 L275.241,89.428 L275.242,89.428 Z M278.822,88.069 C278.978,87.093 279.336,86.311 279.897,85.723 C280.457,85.135 281.15,84.841 281.974,84.841 C282.764,84.841 283.354,85.147 283.746,85.758 C284.139,86.369 284.261,87.14 284.113,88.069 L284.095,88.199 C283.935,89.179 283.575,89.961 283.015,90.545 C282.454,91.129 281.761,91.421 280.937,91.421 C280.147,91.421 279.557,91.116 279.164,90.507 C278.772,89.897 278.652,89.128 278.804,88.198 L278.822,88.069 Z M279.935,88.199 C279.822,88.898 279.855,89.459 280.037,89.883 C280.219,90.307 280.566,90.519 281.077,90.519 C281.554,90.519 281.96,90.297 282.297,89.854 C282.632,89.41 282.853,88.858 282.958,88.198 L282.976,88.069 C283.086,87.382 283.048,86.823 282.865,86.394 C282.681,85.964 282.337,85.749 281.833,85.749 C281.353,85.749 280.946,85.972 280.612,86.417 C280.278,86.862 280.058,87.413 279.952,88.069 L279.935,88.199 Z" id="Shape" fill="#6D6E70" fill-rule="nonzero"></path>
            <path d="M196.715,171.265 C196.292,171.825 195.632,172.323 194.737,172.76 C193.842,173.196 192.711,173.414 191.344,173.414 C189.605,173.414 188.186,172.874 187.086,171.793 C185.986,170.712 185.436,169.309 185.436,167.583 L185.436,164.615 C185.436,162.896 185.964,161.495 187.022,160.411 C188.08,159.327 189.442,158.785 191.109,158.785 C192.841,158.785 194.168,159.206 195.089,160.05 C196.01,160.893 196.48,162.001 196.499,163.375 L196.48,163.433 L193.795,163.433 C193.743,162.678 193.502,162.081 193.072,161.641 C192.642,161.201 192.014,160.982 191.187,160.982 C190.315,160.982 189.612,161.319 189.078,161.992 C188.544,162.667 188.278,163.534 188.278,164.595 L188.278,167.584 C188.278,168.664 188.554,169.542 189.108,170.216 C189.661,170.889 190.406,171.226 191.344,171.226 C192.008,171.226 192.542,171.158 192.945,171.021 C193.349,170.885 193.655,170.715 193.863,170.513 L193.863,167.877 L191.343,167.877 L191.343,165.904 L196.715,165.904 L196.715,171.265 Z M205.133,173.209 C205.026306,172.961336 204.936435,172.706758 204.864,172.447 C204.788827,172.178332 204.734993,171.904146 204.703,171.627 C204.416792,172.133743 204.021611,172.570594 203.546,172.906 C203.067,173.245 202.496,173.414 201.832,173.414 C200.725,173.414 199.872,173.129 199.273,172.559 C198.674,171.989 198.375,171.213 198.375,170.23 C198.375,169.195 198.774,168.393 199.571,167.823 C200.369,167.253 201.532,166.969 203.062,166.969 L204.654,166.969 L204.654,166.129 C204.654,165.621 204.521,165.227 204.254,164.947 C203.987,164.667 203.593,164.527 203.072,164.527 C202.61,164.527 202.253,164.639 202.002,164.864 C201.752,165.089 201.627,165.399 201.627,165.797 L198.873,165.787 L198.863,165.728 C198.818,164.836 199.205,164.066 200.025,163.418 C200.845,162.771 201.923,162.447 203.258,162.447 C204.521,162.447 205.546,162.767 206.334,163.409 C207.122,164.05 207.515,164.963 207.515,166.149 L207.515,170.513 C207.515,171.008 207.553,171.473 207.628,171.91 C207.703,172.346 207.821,172.78 207.984,173.209 L205.133,173.209 Z M202.525,171.304 C203.027,171.304 203.473,171.181 203.863,170.934 C204.253,170.686 204.517,170.399 204.654,170.074 L204.654,168.58 L203.062,168.58 C202.457,168.58 201.998,168.731 201.685,169.034 C201.3808,169.317805 201.2108,169.717014 201.217,170.133 C201.217,170.484 201.334,170.767 201.568,170.983 C201.803,171.197 202.122,171.304 202.525,171.304 Z M212.281,162.642 L212.408,164.156 C212.76,163.616 213.193,163.196 213.707,162.896 C214.221,162.596 214.797,162.447 215.435,162.447 C216.503,162.447 217.336,162.782 217.935,163.453 C218.535,164.123 218.834,165.175 218.834,166.607 L218.834,173.209 L215.973,173.209 L215.973,166.617 C215.973,165.907 215.829,165.404 215.543,165.108 C215.256,164.812 214.823,164.664 214.244,164.664 C213.891804,164.658225 213.54337,164.737103 213.228,164.894 C212.928,165.046 212.678,165.263 212.476,165.543 L212.476,173.209 L209.625,173.209 L209.625,162.642 L212.281,162.642 Z M223.746,163.98 C224.059987,163.514733 224.477592,163.128619 224.966,162.852 C225.455646,162.579863 226.007851,162.440261 226.568,162.447 C227.668,162.447 228.533,162.813 229.161,163.546 C229.789,164.278 230.103,165.409 230.103,166.939 L230.103,173.209 L227.252,173.209 L227.252,166.919 C227.252,166.099 227.107,165.519 226.817,165.177 C226.527,164.835 226.097,164.664 225.523,164.664 C225.133,164.664 224.788,164.734 224.488,164.874 C224.188,165.014 223.941,165.211 223.746,165.464 L223.746,173.209 L220.894,173.209 L220.894,157.974 L223.746,157.974 L223.746,163.98 Z M231.812,167.828 C231.812,166.252 232.252,164.962 233.131,163.956 C234.01,162.95 235.227,162.447 236.783,162.447 C238.346,162.447 239.57,162.948 240.455,163.951 C241.34,164.954 241.783,166.246 241.783,167.828 L241.783,168.033 C241.783,169.622 241.342,170.915 240.46,171.915 C239.578,172.915 238.359,173.414 236.803,173.414 C235.24,173.414 234.018,172.914 233.136,171.914 C232.253,170.915 231.812,169.622 231.812,168.033 L231.812,167.828 Z M234.654,168.033 C234.654,168.997 234.824,169.77 235.162,170.353 C235.501,170.935 236.047,171.226 236.802,171.226 C237.538,171.226 238.077,170.933 238.419,170.347 C238.761,169.761 238.932,168.99 238.932,168.033 L238.932,167.828 C238.932,166.89 238.759,166.125 238.414,165.533 C238.069,164.941 237.525,164.644 236.784,164.644 C236.047,164.644 235.509,164.942 235.167,165.538 C234.825,166.134 234.654,166.897 234.654,167.828 L234.654,168.033 Z M246.607,168.306 L243.756,168.306 L243.756,158.99 L246.607,158.99 L246.607,168.306 Z M246.607,173.209 L243.756,173.209 L243.756,170.709 L246.607,170.709 L246.607,173.209 Z" id="Shape" fill="#FFFFFF" fill-rule="nonzero"></path>
        </g>
    </g>
</svg>