<svg width="301" height="199" viewBox="0 0 301 199" xmlns="http://www.w3.org/2000/svg"><title>Portuguese rises</title><g fill="none" fill-rule="evenodd"><path fill="#F1F2F2" fill-rule="nonzero" d="M.879 0h300v199h-300z"/><path d="M40.004 55.375V74.75h36.125V55.375H40.004zm0-1h36.125V34h1v20.375h36.125V34h1v20.375h36.125V34h1v20.375h36.125V34h1v20.375h36.125V34h1v20.375h36.125V34h1v20.375h37.625v1h-37.625V74.75h37.625v1h-37.625v19.375h37.625v1h-37.625V115.5h37.625v1h-37.625v19.375h37.625v1h-37.625v19.375h37.625v1h-37.625v19.375h37.625v1h-37.625V199h-1v-21.375h-36.125V199h-1v-21.375h-36.125V199h-1v-21.375h-36.125V199h-1v-21.375h-36.125V199h-1v-21.375H77.129V199h-1v-21.375H40.004V199h-1v-21.375H2.379v-1h36.625V157.25H2.379v-1h36.625v-19.375H2.379v-1h36.625V116.5H2.379v-1h36.625V96.125H2.379v-1h36.625V75.75H2.379v-1h36.625V55.375H2.379v-1h36.625V34h1v20.375zm221.75 1h-36.125V74.75h36.125V55.375zm-37.125 0h-36.125V74.75h36.125V55.375zm-37.125 0h-36.125V74.75h36.125V55.375zm-37.125 0h-36.125V74.75h36.125V55.375zm-37.125 0H77.129V74.75h36.125V55.375zM40.004 75.75v19.375h36.125V75.75H40.004zm221.75 0h-36.125v19.375h36.125V75.75zm-37.125 0h-36.125v19.375h36.125V75.75zm-37.125 0h-36.125v19.375h36.125V75.75zm-37.125 0h-36.125v19.375h36.125V75.75zm-37.125 0H77.129v19.375h36.125V75.75zm-73.25 20.375V115.5h36.125V96.125H40.004zm221.75 0h-36.125V115.5h36.125V96.125zm-37.125 0h-36.125V115.5h36.125V96.125zm-37.125 0h-36.125V115.5h36.125V96.125zm-37.125 0h-36.125V115.5h36.125V96.125zm-37.125 0H77.129V115.5h36.125V96.125zM40.004 116.5v19.375h36.125V116.5H40.004zm221.75 0h-36.125v19.375h36.125V116.5zm-37.125 0h-36.125v19.375h36.125V116.5zm-37.125 0h-36.125v19.375h36.125V116.5zm-37.125 0h-36.125v19.375h36.125V116.5zm-37.125 0H77.129v19.375h36.125V116.5zm-73.25 20.375v19.375h36.125v-19.375H40.004zm221.75 0h-36.125v19.375h36.125v-19.375zm-37.125 0h-36.125v19.375h36.125v-19.375zm-37.125 0h-36.125v19.375h36.125v-19.375zm-37.125 0h-36.125v19.375h36.125v-19.375zm-37.125 0H77.129v19.375h36.125v-19.375zm-73.25 20.375v19.375h36.125V157.25H40.004zm221.75 0h-36.125v19.375h36.125V157.25zm-37.125 0h-36.125v19.375h36.125V157.25zm-37.125 0h-36.125v19.375h36.125V157.25zm-37.125 0h-36.125v19.375h36.125V157.25zm-37.125 0H77.129v19.375h36.125V157.25z" fill="#DFDEDE" fill-rule="nonzero"/><path stroke="#C2C2C2" stroke-width="2" d="M1.879 1h298v197h-298z"/><path fill="#C2C2C2" fill-rule="nonzero" d="M.879 33h300v2h-300z"/><g transform="translate(4.879 58.295)"><path d="M.938 57.523h290.774" stroke="#2A3052" stroke-width="1.211" stroke-linejoin="round"/><path stroke="#2A3052" stroke-width="3.634" stroke-linecap="round" stroke-linejoin="round" d="M36.038 57.523l28.35-26.358 38.587 39.086L138.3 19l50.175 55.12L230.588.788l26.174 16.033"/><path d="M184.762 88.5h-35.1l-5.4-8.224-5.4 8.223h-35.1c-2.624 0-4.725 2.14-4.725 4.806v24.819c0 2.666 2.138 4.806 4.725 4.806h81c2.625 0 4.726-2.14 4.726-4.806V93.305c0-2.666-2.138-4.806-4.726-4.806z" fill="#E88024" fill-rule="nonzero"/><ellipse cx="8.512" cy="9.237" rx="8.137" ry="8.486" opacity=".6" transform="translate(248.25 7.585)" fill="#FFF" fill-rule="nonzero"/><ellipse stroke="#E88024" stroke-width="2.423" cx="256.762" cy="16.822" rx="8.137" ry="8.486"/><ellipse cx="9.037" cy="8.636" rx="8.137" ry="8.486" opacity=".6" transform="translate(27 48.887)" fill="#FFF" fill-rule="nonzero"/><ellipse stroke="#E88024" stroke-width="2.423" cx="36.038" cy="57.523" rx="8.137" ry="8.486"/></g><g fill="#2A3052" fill-rule="nonzero"><path d="M257.628 90.296v1.006h-4.825v3.416h4.11v1.036h-4.11v4.374h-1.417v-9.832zM258.87 92.838h1.304v7.174h-1.304zM258.888 89.58v1.293h1.328V89.58zM262.327 92.905h1.142c.006.228.038.53.096.905 1.134-1.346 3.432-1.589 4.22.289.772-1.194 1.534-1.512 2.776-1.305 1.572.261 1.807 2.036 1.882 2.707-.033 1.922-.012 3.612 0 4.627h-1.323V95.5c-.039-.684-.269-1.691-1.43-1.691s-1.681 1.064-1.681 1.691v4.627h-1.315V95.5c0-.808-.495-1.854-1.662-1.691-1.168.162-1.265.686-1.467.96a349.94 349.94 0 0 1 0 5.358h-1.238v-7.223z"/></g><g fill="#2A3052" fill-rule="nonzero"><path d="M28.233 132.708l.114 1.176a2.565 2.565 0 0 1 2.277-1.29c.835 0 1.48.228 1.935.759.456.493.683 1.252.683 2.277v4.933h-1.404v-4.895c0-.683-.151-1.177-.417-1.48-.266-.304-.683-.418-1.214-.418-.418 0-.76.114-1.063.304-.304.19-.57.455-.759.797v5.692h-1.404v-7.817l1.252-.038zM23.118 130.08h1.426v10.545h-1.426zM35.473 132.61h1.426v7.953h-1.426zM47.07 132.687h1.404v7.725h-1.403zM47.09 129.179v1.393h1.43v-1.393zM43.727 135.432c.499-.014.967 0 1.269 0 0-2.232-1.77-2.821-3.192-2.821-1.423 0-3.192 1.29-3.192 4.059 0 2.768 1.552 4.115 3.48 4.045 1.926-.07 2.904-1.534 2.904-2.613-.563.013-.706.013-1.27 0 0 1.019-.916 1.554-1.635 1.554-1.72 0-2.11-1.67-2.11-2.996 0-1.327.44-2.966 1.976-2.966 1.304 0 1.77 1.01 1.77 1.738zM53.682 132.597c.888-.049 2.01.26 2.639.897.694.705 1.191 1.582 1.191 3.03 0 1.281-.256 2.208-.862 2.957-.686.846-1.752 1.233-2.619 1.233-.897 0-1.871-.141-2.69-.897-.67-.62-1.29-1.68-1.228-3.162.069-1.636.595-2.57 1.228-3.161.64-.598 1.391-.846 2.341-.897zm.32 1.07c-1.018 0-2.249.664-2.249 2.722 0 2.059.76 3.284 2.124 3.284s2.259-1.385 2.12-3.284c-.138-1.898-.978-2.722-1.996-2.722zM35.55 131.467h1.03l1.98-1.871h-1.678z"/></g><g fill="#6D6E71" fill-rule="nonzero"><path d="M258.466 123.332h1.404l-1.68 11.08h-1.362zM260.835 126.743h1.39l1.11 5.982 2.824-5.982h1.392l-3.993 7.668h-.982zM272.413 126.64c1.87.29 2.907 2.063 2.204 4.764-.702 2.7-3.082 3.518-4.87 3.011-1.79-.507-2.235-2.83-1.6-4.842.634-2.012 2.396-3.224 4.266-2.934zm-.227 1.102c-1.402-.333-2.319.98-2.66 1.927-.34.946-.618 3.457.87 3.758 1.49.302 2.47-.805 2.884-2.209.414-1.403.308-3.143-1.094-3.476zM246.822 134.385l5.273-10.313h1.224l2.065 10.313h-1.434l-.476-2.683h-3.896l-1.329 2.683h-1.427zm3.373-3.804h3.051l-.827-4.547-2.224 4.547z"/></g><g fill="#FFF" fill-rule="nonzero"><path d="M178.556 165.62h-2.492v-8.244h2.492zM178.556 169.957h-2.492v-2.215h2.492z"/><g><path d="M143.931 160.144h2.012l.101 1.465c.824-1.229 1.893-1.775 3.207-1.639.76.079 2.365.328 2.843 2.488.175.792.138 2.13.125 3.949-.005.706-.005 1.928 0 3.667h-2.208v-6.22c0-.732-.204-1.548-.817-1.857-.844-.425-2.43-.247-3.068.824v7.253h-2.195v-9.93zM126.212 164.792v-1.67h5.048c.057 2.91.057 4.606 0 5.089-.425 1.273-5.468 3.588-8.723.652-.97-.876-1.427-1.845-1.676-3.313-.011-1.5-.038-2.906-.028-4.237.247-1.63.793-2.556 1.233-3.082 1.6-1.914 4.15-2.325 6.393-1.55 2.243.775 2.534 2.386 2.716 3.961-.52 0-.794-.022-2.196 0 .142-.886-.665-2.6-2.769-2.506-2.104.095-3.097 1.824-3.097 3.264 0 1.44-.076.957 0 3.819.095 3.287 4.035 4.169 5.866 2.413l.067-2.799-2.834-.041zM136.099 162.957c-.677-.005-1.387-.005-2.13 0 0-1.069.764-3.007 3.824-3.007 3.06 0 3.794 2.102 3.877 2.554.083.453-.213 6.799.427 7.52l-2.273.002c-.188-.642-.282-1.117-.282-1.424-.354.433-.964 1.224-1.901 1.514-.938.29-3.066.447-3.938-1.596-.575-1.346-.208-2.86.872-3.554 1.784-1.147 4.236-.763 4.967-.763.095-2.045-.516-2.52-1.901-2.52-.924 0-1.438.424-1.542 1.274zm3.443 2.643a36.882 36.882 0 0 0-2.245.02c-.892.078-1.687.737-1.62 1.677.082 1.12 1.356 1.327 2.353 1.003.837-.271 1.42-.971 1.512-1.27v-1.43zM169.137 159.956c1.098-.061 2.487.328 3.264 1.132.86.89 1.474 1.996 1.474 3.823 0 1.617-.317 2.787-1.067 3.731-.848 1.068-2.167 1.557-3.239 1.557-1.11 0-2.315-.179-3.327-1.133-.83-.78-1.596-2.12-1.52-3.989.085-2.064.737-3.243 1.52-3.989.791-.755 1.72-1.067 2.895-1.132zm.219 1.763c-1 0-2.355.447-2.355 3.252 0 2.805 1.093 3.485 2.355 3.485s2.317-1.117 2.227-3.62c-.09-2.501-1.227-3.117-2.227-3.117zM154.536 155.712h2.112c.038 3.462.058 5.348.058 5.658.515-.8 2.008-1.888 3.6-1.395 2.529.782 2.414 2.431 2.529 3.538.077.738.077 2.892 0 6.464h-2.19c.059-2.949.059-5.043 0-6.284.079-2.15-2.595-2.797-3.997-.876l.058 7.16h-2.17v-14.265z"/></g></g><path d="M26.322 20.253c0-.465-.165-.838-.494-1.12-.33-.283-.906-.549-1.73-.798-1.44-.415-2.527-.907-3.263-1.477-.736-.57-1.104-1.35-1.104-2.34 0-.991.422-1.8 1.266-2.429.844-.628 1.921-.942 3.233-.942 1.328 0 2.41.353 3.246 1.058.835.706 1.24 1.576 1.211 2.61l-.016.05h-2.35c0-.558-.186-1.01-.56-1.356-.373-.346-.897-.52-1.573-.52-.647 0-1.148.145-1.502.432a1.36 1.36 0 0 0-.531 1.104c0 .41.19.746.568 1.009.38.263 1.034.54 1.964.834 1.333.37 2.343.86 3.03 1.47.686.608 1.029 1.408 1.029 2.398 0 1.035-.409 1.851-1.225 2.45-.816.597-1.894.896-3.233.896-1.317 0-2.465-.34-3.445-1.017-.98-.678-1.455-1.629-1.427-2.852l.016-.05h2.358c0 .72.22 1.247.66 1.582.44.335 1.052.502 1.838.502.659 0 1.162-.136 1.51-.407.35-.27.524-.633.524-1.087zm9.546 1.86c-.277.47-.628.832-1.055 1.087-.426.254-.915.382-1.469.382-.946 0-1.686-.303-2.22-.91-.534-.605-.801-1.547-.801-2.826v-5.42h2.415v5.437c0 .653.111 1.122.332 1.407.222.285.548.427.98.427.387 0 .72-.062.996-.187a1.68 1.68 0 0 0 .68-.552v-6.532h2.424v8.981h-2.067l-.215-1.295zm12.21-2.947c0 1.328-.307 2.396-.921 3.204-.615.808-1.472 1.212-2.574 1.212-.47 0-.888-.088-1.253-.262a2.574 2.574 0 0 1-.938-.768v4.308h-2.415V14.426h2.183l.14 1.062c.266-.393.586-.696.96-.909.373-.213.809-.32 1.307-.32 1.112 0 1.975.435 2.59 1.304.614.869.921 2.012.921 3.428v.175zm-2.424-.175c0-.846-.14-1.533-.423-2.058-.282-.526-.714-.789-1.295-.789-.365 0-.676.075-.934.224a1.6 1.6 0 0 0-.61.64v3.934c.15.254.353.448.61.58.258.134.574.2.95.2.587 0 1.017-.23 1.291-.689.274-.46.411-1.082.411-1.867v-.175zm7.894 4.59c-1.295 0-2.33-.414-3.104-1.245-.775-.83-1.162-1.884-1.162-3.162v-.332c0-1.334.366-2.432 1.1-3.296.733-.863 1.716-1.292 2.95-1.286 1.212 0 2.153.365 2.823 1.095.67.73 1.004 1.719 1.004 2.964v1.32h-5.362l-.017.05c.045.592.242 1.079.594 1.46.351.382.828.573 1.432.573.536 0 .982-.054 1.336-.162a6.142 6.142 0 0 0 1.162-.51l.656 1.494c-.365.299-.844.546-1.436.743a6.249 6.249 0 0 1-1.976.295zm-.215-7.454c-.449 0-.803.172-1.063.515-.26.343-.42.794-.481 1.353l.024.042h2.972v-.216c0-.515-.12-.926-.36-1.233-.242-.307-.605-.46-1.092-.46zm9.96.382l-.888-.025c-.36 0-.655.075-.888.224-.232.15-.41.36-.531.631v6.068H58.57v-8.981h2.25l.108 1.328c.21-.47.483-.837.817-1.1.335-.263.721-.394 1.158-.394.122 0 .234.01.337.029.102.02.206.043.31.07l-.257 2.15zm3.777 6.898h-2.424v-8.981h2.424v8.981zm0-11.131h-2.424v-1.818h2.424v1.818zm1.619 6.557c0-1.339.373-2.436 1.12-3.29.748-.856 1.782-1.283 3.105-1.283 1.328 0 2.369.426 3.121 1.278.753.852 1.13 1.95 1.13 3.295v.175c0 1.35-.376 2.45-1.126 3.3-.75.849-1.786 1.274-3.108 1.274-1.328 0-2.367-.425-3.117-1.275-.75-.85-1.125-1.949-1.125-3.3v-.174zm2.415.175c0 .819.144 1.476.432 1.971.288.496.753.743 1.395.743.625 0 1.083-.249 1.373-.747.291-.498.436-1.154.436-1.967v-.175c0-.796-.146-1.447-.44-1.95-.293-.504-.755-.756-1.386-.756-.625 0-1.083.254-1.374.76-.29.506-.436 1.155-.436 1.946v.175zm12.277-2.499l-.888-.025c-.36 0-.656.075-.888.224-.232.15-.41.36-.531.631v6.068h-2.416v-8.981h2.25l.108 1.328c.21-.47.482-.837.817-1.1.335-.263.721-.394 1.158-.394.122 0 .234.01.336.029.103.02.207.043.312.07l-.258 2.15z" fill="#000"/></g></svg>