<?xml version="1.0" encoding="UTF-8"?>
<svg width="299px" height="197px" viewBox="0 0 299 197" version="1.1" xmlns="http://www.w3.org/2000/svg" xmlns:xlink="http://www.w3.org/1999/xlink">
    <!-- Generator: Sketch 52.6 (67491) - http://www.bohemiancoding.com/sketch -->
    <title>Rise</title>
    <desc>Created with Sketch.</desc>
    <g id="Page-1" stroke="none" stroke-width="1" fill="none" fill-rule="evenodd">
        <g id="Rise">
            <g id="rise">
                <polygon id="Path" fill="#F1F2F2" points="0 0 299 0 299 197 0 197"></polygon>
                <path d="M1.98671096,1.9798995 L1.98671096,195.020101 L297.013289,195.020101 L297.013289,1.9798995 L1.98671096,1.9798995 Z M299,0 L299,197 L0,197 L0,0 L299,0 Z" id="Path" fill="#C2C2C2" fill-rule="nonzero"></path>
                <path d="M1.74920034,54.055088 L1.74920034,52.8401224 L295.237332,52.8401224 L295.237332,54.055088 L1.74920034,54.055088 Z M1.74920034,76.5851316 L1.74920034,75.370166 L295.237332,75.370166 L295.237332,76.5851316 L1.74920034,76.5851316 Z M1.74920034,95.3601679 L1.74920034,94.1452023 L295.237332,94.1452023 L295.237332,95.3601679 L1.74920034,95.3601679 Z M1.74920034,136.665248 L1.74920034,135.450282 L295.237332,135.450282 L295.237332,136.665248 L1.74920034,136.665248 Z M1.74920034,155.440284 L1.74920034,154.225318 L295.237332,154.225318 L295.237332,155.440284 L1.74920034,155.440284 Z M1.74920034,177.970328 L1.74920034,176.755362 L295.237332,176.755362 L295.237332,177.970328 L1.74920034,177.970328 Z M36.8870669,32.7950653 L38.1020325,32.7950653 L38.1020325,194.260377 L36.8870669,194.260377 L36.8870669,32.7950653 Z M74.5137504,32.7950653 L75.728716,32.7950653 L75.728716,194.260377 L74.5137504,194.260377 L74.5137504,32.7950653 Z M112.140434,32.7950653 L113.3554,32.7950653 L113.3554,194.260377 L112.140434,194.260377 L112.140434,32.7950653 Z M146.004449,32.7950653 L147.219415,32.7950653 L147.219415,194.260377 L146.004449,194.260377 L146.004449,32.7950653 Z M183.631132,32.7950653 L184.846098,32.7950653 L184.846098,194.260377 L183.631132,194.260377 L183.631132,32.7950653 Z M221.257816,32.7950653 L222.472782,32.7950653 L222.472782,194.260377 L221.257816,194.260377 L221.257816,32.7950653 Z M258.884499,32.7950653 L260.099465,32.7950653 L260.099465,194.260377 L258.884499,194.260377 L258.884499,32.7950653 Z" id="Shape" fill="#DFDEDE" fill-rule="nonzero"></path>
                <polygon id="Path" fill="#2A3052" fill-rule="nonzero" points="2.90644108 116.819829 2.90644108 115.604864 294.513238 115.604864 294.513238 116.819829"></polygon>
                <polygon id="Path" fill="#C2C2C2" fill-rule="nonzero" points="0.799346801 34.7797904 0.799346801 32.3494829 294.362731 32.3494829 294.362731 34.7797904"></polygon>
                <path d="M187.239564,147.191156 L152.058614,147.191156 L146.640372,138.96769 L141.22213,147.191156 L106.041181,147.191156 C103.407313,147.191156 101.300218,149.33151 101.300218,151.997566 L101.300218,176.818164 C101.300218,179.484219 103.444939,181.624573 106.041181,181.624573 L187.27719,181.624573 C189.911058,181.624573 192.018152,179.484219 192.018152,176.818164 L192.018152,151.997566 C192.018152,149.33151 189.873431,147.191156 187.239564,147.191156 Z" id="Path" fill="#E88024"></path>
            </g>
            <g id="Group" transform="translate(38.000000, 63.000000)">
                <path d="M34.1447863,31.2805909 L8.91547623,54.504784 C8.18206709,55.1799049 7.04022786,55.132653 6.36510693,54.3992439 C5.68998599,53.6658348 5.73723791,52.5239955 6.47064705,51.8488746 L32.9759553,27.4500941 C33.6887565,26.7939432 34.7924433,26.817575 35.4765055,27.503635 L70.0274339,62.1554679 L101.819689,16.4858607 C102.479643,15.5378361 103.847911,15.4451251 104.629718,16.2954589 L149.880274,65.5123068 L188.022702,-0.244794021 C188.529784,-1.11899793 189.655787,-1.40652911 190.519923,-0.882473481 L214.990821,13.9579168 C215.843163,14.4748204 216.11509,15.5848138 215.598187,16.4371563 C215.081283,17.2894989 213.97129,17.5614259 213.118947,17.0445222 L190.221787,3.15852628 L151.7725,69.4446477 C151.161965,70.497203 149.706089,70.6563891 148.882525,69.7606387 L103.496098,20.3960097 L71.7559098,65.9908223 C71.1130035,66.9143579 69.7909656,67.0308733 68.9964363,66.2340236 L34.1447863,31.2805909 Z" id="Path" fill="#2A3052" fill-rule="nonzero"></path>
                <ellipse id="Oval" fill="#FFFFFF" opacity="0.6" cx="214.054884" cy="15.5012195" rx="7.60753767" ry="7.85487805"></ellipse>
                <path d="M214.054884,24.5595477 C209.179941,24.5595477 205.243896,20.4955321 205.243896,15.5012195 C205.243896,10.5069069 209.179941,6.44289128 214.054884,6.44289128 C218.929827,6.44289128 222.865872,10.5069069 222.865872,15.5012195 C222.865872,20.4955321 218.929827,24.5595477 214.054884,24.5595477 Z M214.054884,22.1526474 C217.582995,22.1526474 220.458972,19.1831656 220.458972,15.5012195 C220.458972,11.8192734 217.582995,8.84979161 214.054884,8.84979161 C210.526773,8.84979161 207.650796,11.8192734 207.650796,15.5012195 C207.650796,19.1831656 210.526773,22.1526474 214.054884,22.1526474 Z" id="Oval" fill="#E88024" fill-rule="nonzero"></path>
                <ellipse id="Oval" fill="#FFFFFF" opacity="0.6" cx="7.69212671" cy="53.1768293" rx="7.60753767" ry="7.85487805"></ellipse>
                <path d="M7.69306164,62.2351575 C2.81811857,62.2351575 -1.1179262,58.1711419 -1.1179262,53.1768293 C-1.1179262,48.1825167 2.81811857,44.1185011 7.69306164,44.1185011 C12.5680047,44.1185011 16.5040495,48.1825167 16.5040495,53.1768293 C16.5040495,58.1711419 12.5680047,62.2351575 7.69306164,62.2351575 Z M7.69306164,59.8282572 C11.2211726,59.8282572 14.0971491,56.8587754 14.0971491,53.1768293 C14.0971491,49.4948832 11.2211726,46.5254014 7.69306164,46.5254014 C4.16495063,46.5254014 1.28897413,49.4948832 1.28897413,53.1768293 C1.28897413,56.8587754 4.16495063,59.8282572 7.69306164,59.8282572 Z" id="Oval" fill="#E88024" fill-rule="nonzero"></path>
            </g>
            <g id="Group" transform="translate(240.585169, 92.542000)" fill="#2A3052" fill-rule="nonzero">
                <path d="M6.628,1.296 L6.628,2.302 L1.803,2.302 L1.803,5.718 L5.913,5.718 L5.913,6.754 L1.803,6.754 L1.803,11.128 L0.386,11.128 L0.386,1.296 L6.628,1.296 Z M7.87,3.838 L9.174,3.838 L9.174,11.012 L7.87,11.012 L7.87,3.838 Z M7.888,0.58 L7.888,1.873 L9.216,1.873 L9.216,0.58 L7.888,0.58 Z M11.327,3.905 L12.469,3.905 C12.475,4.133 12.507,4.435 12.565,4.81 C13.699,3.464 15.997,3.221 16.785,5.099 C17.557,3.905 18.319,3.587 19.561,3.794 C21.133,4.055 21.368,5.83 21.443,6.501 C21.41,8.423 21.431,10.113 21.443,11.128 L20.12,11.128 L20.12,6.5 C20.081,5.816 19.851,4.809 18.69,4.809 C17.529,4.809 17.009,5.873 17.009,6.5 L17.009,11.127 L15.694,11.127 L15.694,6.5 C15.694,5.692 15.199,4.646 14.032,4.809 C12.864,4.971 12.767,5.495 12.565,5.769 C12.5786731,7.55497383 12.5786731,9.34102617 12.565,11.127 L11.327,11.127 L11.327,3.904 L11.327,3.905 Z" id="Shape"></path>
            </g>
            <g id="Group" transform="translate(28.585169, 129.542000)" fill="#2A3052" fill-rule="nonzero">
                <path d="M5.233,3.708 L5.347,4.884 C5.81305014,4.07002193 6.68622888,3.57533568 7.624,3.594 C8.459,3.594 9.104,3.822 9.559,4.353 C10.015,4.846 10.242,5.605 10.242,6.63 L10.242,11.563 L8.838,11.563 L8.838,6.668 C8.838,5.985 8.687,5.491 8.421,5.188 C8.155,4.884 7.738,4.77 7.207,4.77 C6.789,4.77 6.447,4.884 6.144,5.074 C5.84,5.264 5.574,5.529 5.385,5.871 L5.385,11.563 L3.981,11.563 L3.981,3.746 L5.233,3.708 Z M0.118,1.08 L1.544,1.08 L1.544,11.625 L0.118,11.625 L0.118,1.08 Z M12.473,3.61 L13.899,3.61 L13.899,11.563 L12.473,11.563 L12.473,3.61 Z M24.07,3.687 L25.474,3.687 L25.474,11.412 L24.071,11.412 L24.07,3.687 Z M24.09,0.179 L24.09,1.572 L25.52,1.572 L25.52,0.179 L24.09,0.179 Z M20.727,6.432 C21.226,6.418 21.694,6.432 21.996,6.432 C21.996,4.2 20.226,3.611 18.804,3.611 C17.381,3.611 15.612,4.901 15.612,7.67 C15.612,10.438 17.164,11.785 19.092,11.715 C21.018,11.645 21.996,10.181 21.996,9.102 C21.433,9.115 21.29,9.115 20.726,9.102 C20.726,10.121 19.81,10.656 19.091,10.656 C17.371,10.656 16.981,8.986 16.981,7.66 C16.981,6.333 17.421,4.694 18.957,4.694 C20.261,4.694 20.727,5.704 20.727,6.432 Z M30.682,3.597 C31.57,3.548 32.692,3.857 33.321,4.494 C34.015,5.199 34.512,6.076 34.512,7.524 C34.512,8.805 34.256,9.732 33.65,10.481 C32.964,11.327 31.898,11.714 31.031,11.714 C30.134,11.714 29.16,11.573 28.341,10.817 C27.671,10.197 27.051,9.137 27.113,7.655 C27.182,6.019 27.708,5.085 28.341,4.494 C28.981,3.896 29.732,3.648 30.682,3.597 Z M31.002,4.667 C29.984,4.667 28.753,5.331 28.753,7.389 C28.753,9.448 29.513,10.673 30.877,10.673 C32.241,10.673 33.136,9.288 32.997,7.389 C32.859,5.491 32.019,4.667 31.001,4.667 L31.002,4.667 Z M12.55,2.467 L13.58,2.467 L15.56,0.596 L13.882,0.596 L12.55,2.467 Z" id="Shape"></path>
            </g>
            <g id="Group" transform="translate(235.585169, 123.542000)" fill="#6D6E71" fill-rule="nonzero">
                <path d="M12.466,0.332 L13.87,0.332 L12.19,11.412 L10.828,11.412 L12.466,0.332 Z M14.835,3.743 L16.225,3.743 L17.335,9.725 L20.159,3.743 L21.551,3.743 L17.558,11.411 L16.576,11.411 L14.835,3.743 Z M26.413,3.64 C28.283,3.93 29.32,5.703 28.617,8.404 C27.915,11.104 25.535,11.922 23.747,11.415 C21.957,10.908 21.512,8.585 22.147,6.573 C22.781,4.561 24.543,3.349 26.413,3.639 L26.413,3.64 Z M26.186,4.742 C24.784,4.409 23.867,5.722 23.526,6.669 C23.186,7.615 22.908,10.126 24.396,10.427 C25.886,10.729 26.866,9.622 27.28,8.218 C27.694,6.815 27.588,5.075 26.186,4.742 Z M0.822,11.385 L6.095,1.072 L7.319,1.072 L9.384,11.385 L7.95,11.385 L7.474,8.702 L3.578,8.702 L2.249,11.385 L0.822,11.385 Z M4.195,7.581 L7.246,7.581 L6.419,3.034 L4.195,7.581 Z" id="Shape"></path>
            </g>
            <g id="Group" transform="translate(119.585169, 155.542000)" fill="#FFFFFF" fill-rule="nonzero">
                <path d="M58.556,10.62 L56.064,10.62 L56.064,2.376 L58.556,2.376 L58.556,10.62 Z M58.556,14.957 L56.064,14.957 L56.064,12.742 L58.556,12.742 L58.556,14.957 Z" id="Shape"></path>
                <path d="M23.931,5.144 L25.943,5.144 L26.044,6.609 C26.868,5.38 27.937,4.834 29.251,4.97 C30.011,5.049 31.616,5.298 32.094,7.458 C32.269,8.25 32.232,9.588 32.219,11.407 C32.214,12.113 32.214,13.335 32.219,15.074 L30.011,15.074 L30.011,8.854 C30.011,8.122 29.807,7.306 29.194,6.997 C28.35,6.572 26.764,6.75 26.126,7.821 L26.126,15.074 L23.931,15.074 L23.931,5.144 Z M6.212,9.792 L6.212,8.122 L11.26,8.122 C11.317,11.032 11.317,12.728 11.26,13.211 C10.835,14.484 5.792,16.799 2.537,13.863 C1.567,12.987 1.11,12.018 0.861,10.55 C0.85,9.05 0.823,7.644 0.833,6.313 C1.08,4.683 1.626,3.757 2.066,3.231 C3.666,1.317 6.216,0.906 8.459,1.681 C10.702,2.456 10.993,4.067 11.175,5.642 C10.655,5.642 10.381,5.62 8.979,5.642 C9.121,4.756 8.314,3.042 6.21,3.136 C4.106,3.231 3.113,4.96 3.113,6.4 C3.113,7.84 3.037,7.357 3.113,10.219 C3.208,13.506 7.148,14.388 8.979,12.632 L9.046,9.833 L6.212,9.792 Z M16.099,7.957 C15.422,7.952 14.712,7.952 13.969,7.957 C13.969,6.888 14.733,4.95 17.793,4.95 C20.853,4.95 21.587,7.052 21.67,7.504 C21.753,7.957 21.457,14.303 22.097,15.024 L19.824,15.026 C19.636,14.384 19.542,13.909 19.542,13.602 C19.188,14.035 18.578,14.826 17.641,15.116 C16.703,15.406 14.575,15.563 13.703,13.52 C13.128,12.174 13.495,10.66 14.575,9.966 C16.359,8.819 18.811,9.203 19.542,9.203 C19.637,7.158 19.026,6.683 17.641,6.683 C16.717,6.683 16.203,7.107 16.099,7.957 Z M19.542,10.6 C18.7936371,10.5838835 18.044957,10.5905532 17.297,10.62 C16.405,10.698 15.61,11.357 15.677,12.297 C15.759,13.417 17.033,13.624 18.03,13.3 C18.867,13.029 19.45,12.329 19.542,12.03 L19.542,10.6 Z M49.137,4.956 C50.235,4.895 51.624,5.284 52.401,6.088 C53.261,6.978 53.875,8.084 53.875,9.911 C53.875,11.528 53.558,12.698 52.808,13.642 C51.96,14.71 50.641,15.199 49.569,15.199 C48.459,15.199 47.254,15.02 46.242,14.066 C45.412,13.286 44.646,11.946 44.722,10.077 C44.807,8.013 45.459,6.834 46.242,6.088 C47.033,5.333 47.962,5.021 49.137,4.956 Z M49.356,6.719 C48.356,6.719 47.001,7.166 47.001,9.971 C47.001,12.776 48.094,13.456 49.356,13.456 C50.618,13.456 51.673,12.339 51.583,9.836 C51.493,7.335 50.356,6.719 49.356,6.719 Z M34.536,0.712 L36.648,0.712 C36.686,4.174 36.706,6.06 36.706,6.37 C37.221,5.57 38.714,4.482 40.306,4.975 C42.835,5.757 42.72,7.406 42.835,8.513 C42.912,9.251 42.912,11.405 42.835,14.977 L40.645,14.977 C40.704,12.028 40.704,9.934 40.645,8.693 C40.724,6.543 38.05,5.896 36.648,7.817 L36.706,14.977 L34.536,14.977 L34.536,0.712 Z" id="Shape"></path>
            </g>
            <path d="M21.9071689,18.795 C21.9071689,18.33 21.7421689,17.957 21.4131689,17.675 C21.0831689,17.392 20.5071689,17.126 19.6831689,16.877 C18.2431689,16.462 17.1561689,15.97 16.4201689,15.4 C15.6841689,14.83 15.3161689,14.05 15.3161689,13.06 C15.3161689,12.069 15.7381689,11.26 16.5821689,10.631 C17.4261689,10.003 18.5031689,9.689 19.8151689,9.689 C21.1431689,9.689 22.2251689,10.042 23.0611689,10.747 C23.8961689,11.453 24.3011689,12.323 24.2721689,13.357 L24.2561689,13.407 L21.9061689,13.407 C21.9061689,12.849 21.7201689,12.397 21.3461689,12.051 C20.9731689,11.705 20.4491689,11.531 19.7731689,11.531 C19.1261689,11.531 18.6251689,11.676 18.2711689,11.963 C17.9290626,12.2259319 17.7320198,12.6356028 17.7401689,13.067 C17.7401689,13.477 17.9301689,13.813 18.3081689,14.076 C18.6881689,14.339 19.3421689,14.616 20.2721689,14.91 C21.6051689,15.28 22.6151689,15.77 23.3021689,16.38 C23.9881689,16.988 24.3311689,17.788 24.3311689,18.778 C24.3311689,19.813 23.9221689,20.629 23.1061689,21.228 C22.2901689,21.825 21.2121689,22.124 19.8731689,22.124 C18.5561689,22.124 17.4081689,21.784 16.4281689,21.107 C15.4481689,20.429 14.9731689,19.478 15.0011689,18.255 L15.0171689,18.205 L17.3751689,18.205 C17.3751689,18.925 17.5951689,19.452 18.0351689,19.787 C18.4751689,20.122 19.0871689,20.289 19.8731689,20.289 C20.5321689,20.289 21.0351689,20.153 21.3831689,19.882 C21.7331689,19.612 21.9071689,19.249 21.9071689,18.795 Z M31.4531689,20.655 C31.1761689,21.125 30.8251689,21.487 30.3981689,21.742 C29.9721689,21.996 29.4831689,22.124 28.9291689,22.124 C27.9831689,22.124 27.2431689,21.821 26.7091689,21.214 C26.1751689,20.609 25.9081689,19.667 25.9081689,18.388 L25.9081689,12.968 L28.3231689,12.968 L28.3231689,18.405 C28.3231689,19.058 28.4341689,19.527 28.6551689,19.812 C28.8771689,20.097 29.2031689,20.239 29.6351689,20.239 C30.0221689,20.239 30.3551689,20.177 30.6311689,20.052 C30.9026552,19.9313606 31.1372959,19.7408875 31.3111689,19.5 L31.3111689,12.968 L33.7351689,12.968 L33.7351689,21.949 L31.6681689,21.949 L31.4531689,20.654 L31.4531689,20.655 Z M43.6631689,17.708 C43.6631689,19.036 43.3561689,20.104 42.7421689,20.912 C42.1271689,21.72 41.2701689,22.124 40.1681689,22.124 C39.6981689,22.124 39.2801689,22.036 38.9151689,21.862 C38.5458165,21.6843308 38.2242313,21.4210287 37.9771689,21.094 L37.9771689,25.402 L35.5621689,25.402 L35.5621689,12.968 L37.7451689,12.968 L37.8851689,14.03 C38.1511689,13.637 38.4711689,13.334 38.8451689,13.121 C39.2181689,12.908 39.6541689,12.801 40.1521689,12.801 C41.2641689,12.801 42.1271689,13.236 42.7421689,14.105 C43.3561689,14.974 43.6631689,16.117 43.6631689,17.533 L43.6631689,17.708 Z M41.2391689,17.533 C41.2391689,16.687 41.0991689,16 40.8161689,15.475 C40.5341689,14.949 40.1021689,14.686 39.5211689,14.686 C39.1561689,14.686 38.8451689,14.761 38.5871689,14.91 C38.3277592,15.061804 38.1163537,15.2836065 37.9771689,15.55 L37.9771689,19.484 C38.1271689,19.738 38.3301689,19.932 38.5871689,20.064 C38.8451689,20.198 39.1611689,20.264 39.5371689,20.264 C40.1241689,20.264 40.5541689,20.034 40.8281689,19.575 C41.1021689,19.115 41.2391689,18.493 41.2391689,17.708 L41.2391689,17.533 Z M49.1331689,22.123 C47.8381689,22.123 46.8031689,21.709 46.0291689,20.878 C45.2541689,20.048 44.8671689,18.994 44.8671689,17.716 L44.8671689,17.384 C44.8671689,16.05 45.2331689,14.952 45.9671689,14.088 C46.7001689,13.225 47.6831689,12.796 48.9171689,12.802 C50.1291689,12.802 51.0701689,13.167 51.7401689,13.897 C52.4101689,14.627 52.7441689,15.616 52.7441689,16.861 L52.7441689,18.181 L47.3821689,18.181 L47.3651689,18.231 C47.4101689,18.823 47.6071689,19.31 47.9591689,19.691 C48.3101689,20.073 48.7871689,20.264 49.3911689,20.264 C49.9271689,20.264 50.3731689,20.21 50.7271689,20.102 C51.1310722,19.9725766 51.5204834,19.8016646 51.8891689,19.592 L52.5451689,21.086 C52.1801689,21.385 51.7011689,21.632 51.1091689,21.829 C50.4705859,22.0326712 49.8033941,22.1322773 49.1331689,22.124 L49.1331689,22.123 Z M48.9181689,14.669 C48.4691689,14.669 48.1151689,14.841 47.8551689,15.184 C47.5951689,15.527 47.4351689,15.978 47.3741689,16.537 L47.3981689,16.579 L50.3701689,16.579 L50.3701689,16.363 C50.3701689,15.848 50.2501689,15.437 50.0101689,15.13 C49.7681689,14.823 49.4051689,14.67 48.9181689,14.67 L48.9181689,14.669 Z M58.8781689,15.051 L57.9901689,15.026 C57.6301689,15.026 57.3351689,15.101 57.1021689,15.25 C56.8701689,15.4 56.6921689,15.61 56.5711689,15.881 L56.5711689,21.949 L54.1551689,21.949 L54.1551689,12.968 L56.4051689,12.968 L56.5131689,14.296 C56.7231689,13.826 56.9961689,13.459 57.3301689,13.196 C57.6651689,12.933 58.0511689,12.802 58.4881689,12.802 C58.6101689,12.802 58.7221689,12.812 58.8251689,12.831 C58.9271689,12.851 59.0311689,12.874 59.1351689,12.901 L58.8781689,15.051 Z M62.6551689,21.949 L60.2311689,21.949 L60.2311689,12.968 L62.6551689,12.968 L62.6551689,21.949 Z M62.6551689,10.818 L60.2311689,10.818 L60.2311689,9 L62.6551689,9 L62.6551689,10.818 Z M64.2741689,17.375 C64.2741689,16.036 64.6471689,14.939 65.3941689,14.085 C66.1421689,13.229 67.1761689,12.802 68.4991689,12.802 C69.8271689,12.802 70.8681689,13.228 71.6201689,14.08 C72.3731689,14.932 72.7501689,16.03 72.7501689,17.375 L72.7501689,17.55 C72.7501689,18.9 72.3741689,20 71.6241689,20.85 C70.8741689,21.699 69.8381689,22.124 68.5161689,22.124 C67.1881689,22.124 66.1491689,21.699 65.3991689,20.849 C64.6491689,19.999 64.2741689,18.9 64.2741689,17.549 L64.2741689,17.375 Z M66.6891689,17.55 C66.6891689,18.369 66.8331689,19.026 67.1211689,19.521 C67.4091689,20.017 67.8741689,20.264 68.5161689,20.264 C69.1411689,20.264 69.5991689,20.015 69.8891689,19.517 C70.1801689,19.019 70.3251689,18.363 70.3251689,17.55 L70.3251689,17.375 C70.3251689,16.579 70.1791689,15.928 69.8851689,15.425 C69.5921689,14.921 69.1301689,14.669 68.4991689,14.669 C67.8741689,14.669 67.4161689,14.923 67.1251689,15.429 C66.8351689,15.935 66.6891689,16.584 66.6891689,17.375 L66.6891689,17.55 Z M78.9661689,15.051 L78.0781689,15.026 C77.7181689,15.026 77.4221689,15.101 77.1901689,15.25 C76.9581689,15.4 76.7801689,15.61 76.6591689,15.881 L76.6591689,21.949 L74.2431689,21.949 L74.2431689,12.968 L76.4931689,12.968 L76.6011689,14.296 C76.8111689,13.826 77.0831689,13.459 77.4181689,13.196 C77.7531689,12.933 78.1391689,12.802 78.5761689,12.802 C78.6981689,12.802 78.8101689,12.812 78.9121689,12.831 C79.0151689,12.851 79.1191689,12.874 79.2241689,12.901 L78.9661689,15.051 Z" id="Shape" fill="#000000" fill-rule="nonzero"></path>
        </g>
    </g>
</svg>