<svg width="299" height="197" xmlns="http://www.w3.org/2000/svg" xmlns:xlink="http://www.w3.org/1999/xlink"><defs><path d="M24.532 18.448c-.083 1.147-.506 2.05-1.27 2.71-.764.659-1.772.988-3.022.988-1.367 0-2.442-.46-3.226-1.38-.784-.92-1.175-2.184-1.175-3.79v-.652c0-1.026.18-1.929.542-2.71.36-.781.877-1.38 1.549-1.798.671-.418 1.451-.627 2.34-.627 1.23 0 2.221.33 2.973.99.752.658 1.187 1.584 1.304 2.775H22.35c-.054-.688-.246-1.188-.575-1.498-.33-.31-.831-.465-1.505-.465-.733 0-1.28.263-1.645.788-.363.524-.55 1.339-.56 2.442v.806c0 1.152.175 1.994.524 2.527.349.532.9.798 1.651.798.68 0 1.186-.155 1.52-.465.335-.31.526-.79.575-1.44h2.197zm.975-.484c0-.786.151-1.486.454-2.102a3.324 3.324 0 0 1 1.307-1.428c.569-.337 1.23-.505 1.981-.505 1.07 0 1.942.327 2.619.981.676.654 1.053 1.543 1.131 2.666l.015.542c0 1.216-.34 2.191-1.018 2.926-.679.735-1.59 1.102-2.732 1.102-1.143 0-2.055-.366-2.736-1.098-.68-.733-1.021-1.729-1.021-2.988v-.096zm2.116.154c0 .752.142 1.327.425 1.725.283.398.689.597 1.216.597.513 0 .913-.197 1.201-.59.288-.393.432-1.021.432-1.886 0-.737-.144-1.308-.432-1.714-.288-.405-.693-.607-1.216-.607-.517 0-.918.201-1.2.604-.284.403-.426 1.026-.426 1.871zm11.148-2.058a5.75 5.75 0 0 0-.762-.059c-.8 0-1.326.271-1.575.813V22h-2.116v-7.925h2l.058.945c.425-.728 1.013-1.091 1.765-1.091.234 0 .454.031.659.095l-.03 2.036zm5.47 0a5.75 5.75 0 0 0-.76-.059c-.802 0-1.326.271-1.575.813V22h-2.117v-7.925h2l.058.945c.425-.728 1.013-1.091 1.765-1.091.234 0 .454.031.66.095l-.03 2.036zM47.495 22H45.37v-7.925h2.124V22zm-2.249-9.976c0-.317.107-.578.319-.783.212-.205.502-.308.868-.308.361 0 .65.103.864.308.215.205.322.466.322.783 0 .323-.108.586-.326.791-.217.206-.504.308-.86.308-.357 0-.643-.102-.86-.308a1.04 1.04 0 0 1-.327-.79zm3.662 5.955c0-1.235.278-2.22.832-2.952.554-.732 1.312-1.098 2.274-1.098.771 0 1.409.288 1.912.864V10.75h2.124V22h-1.912l-.103-.842c-.527.659-1.206.988-2.036.988-.932 0-1.68-.367-2.245-1.102-.564-.735-.846-1.756-.846-3.065zm2.117.154c0 .742.13 1.31.388 1.706.26.396.635.594 1.128.594.655 0 1.116-.276 1.385-.828v-3.127c-.264-.552-.72-.828-1.37-.828-1.02 0-1.53.828-1.53 2.483zM62.281 22a2.35 2.35 0 0 1-.212-.71c-.513.57-1.18.856-2 .856-.776 0-1.42-.224-1.93-.673a2.167 2.167 0 0 1-.765-1.7c0-.84.312-1.484.934-1.933.623-.45 1.522-.676 2.7-.681h.973v-.454c0-.367-.094-.66-.282-.88-.188-.219-.484-.329-.89-.329-.356 0-.636.086-.838.256-.203.171-.304.406-.304.704H57.55c0-.46.142-.884.425-1.275.283-.39.683-.697 1.201-.919.518-.222 1.099-.333 1.743-.333.977 0 1.752.245 2.326.736.573.49.86 1.18.86 2.069v3.435c.005.752.11 1.32.315 1.706V22h-2.139zm-1.75-1.472c.313 0 .6-.07.864-.209.264-.14.46-.326.586-.56v-1.363h-.79c-1.06 0-1.624.367-1.693 1.1l-.007.124c0 .263.093.48.278.651.186.171.44.257.762.257zm16.077-2.417c0 1.27-.271 2.26-.813 2.97-.542.71-1.3 1.065-2.27 1.065-.86 0-1.546-.33-2.059-.988l-.095.842h-1.904V10.75h2.116v4.036c.489-.572 1.13-.857 1.927-.857.966 0 1.724.355 2.274 1.065.549.71.824 1.71.824 3v.117zm-2.117-.154c0-.8-.127-1.385-.38-1.754-.255-.369-.633-.553-1.136-.553-.674 0-1.138.276-1.392.828v3.127c.259.557.728.835 1.407.835.683 0 1.132-.337 1.347-1.01.103-.323.154-.814.154-1.473zM82.504 22a2.35 2.35 0 0 1-.213-.71c-.512.57-1.179.856-2 .856-.776 0-1.419-.224-1.93-.673a2.167 2.167 0 0 1-.765-1.7c0-.84.312-1.484.934-1.933.623-.45 1.522-.676 2.7-.681h.973v-.454c0-.367-.094-.66-.282-.88-.188-.219-.484-.329-.89-.329-.356 0-.635.086-.838.256-.203.171-.304.406-.304.704h-2.117c0-.46.142-.884.425-1.275.283-.39.684-.697 1.201-.919.518-.222 1.099-.333 1.743-.333.977 0 1.752.245 2.326.736.574.49.86 1.18.86 2.069v3.435c.005.752.11 1.32.315 1.706V22h-2.138zm-1.75-1.472c.312 0 .6-.07.863-.209.264-.14.46-.326.586-.56v-1.363h-.79c-1.06 0-1.624.367-1.693 1.1l-.007.124c0 .263.093.48.278.651.186.171.44.257.762.257zM88.186 22h-2.124v-7.925h2.124V22zm-2.248-9.976c0-.317.106-.578.318-.783.213-.205.502-.308.868-.308.362 0 .65.103.865.308.214.205.322.466.322.783 0 .323-.109.586-.326.791-.217.206-.504.308-.86.308-.357 0-.644-.102-.861-.308a1.04 1.04 0 0 1-.326-.79zm7.009 4.417l1.333-2.366h2.263l-2.256 3.882L96.64 22h-2.27l-1.414-2.49L91.55 22h-2.278l2.351-4.043-2.248-3.882h2.27l1.304 2.366zM102.155 22a2.35 2.35 0 0 1-.213-.71c-.513.57-1.18.856-2 .856-.776 0-1.419-.224-1.93-.673a2.167 2.167 0 0 1-.765-1.7c0-.84.312-1.484.934-1.933.623-.45 1.522-.676 2.7-.681h.973v-.454c0-.367-.094-.66-.282-.88-.188-.219-.484-.329-.89-.329-.356 0-.636.086-.838.256-.203.171-.304.406-.304.704h-2.117c0-.46.142-.884.425-1.275.283-.39.683-.697 1.201-.919.518-.222 1.099-.333 1.743-.333.977 0 1.752.245 2.326.736.573.49.86 1.18.86 2.069v3.435c.005.752.11 1.32.315 1.706V22h-2.138zm-1.75-1.472c.312 0 .6-.07.863-.209.264-.14.46-.326.586-.56v-1.363h-.79c-1.06 0-1.624.367-1.693 1.1l-.007.124c0 .263.093.48.278.651.186.171.44.257.762.257z" id="a"/></defs><g fill="none" fill-rule="evenodd"><path fill="#F1F2F2" d="M0 0h299v197H0z"/><path d="M1.987 1.98v193.04h295.026V1.98H1.987zM299 0v197H0V0h299z" fill="#C2C2C2" fill-rule="nonzero"/><path d="M5 52.894v-1.207h290v1.207H5zM5 73.22v-1.207h290v1.207H5zm0 20.29v-1.207h290v1.207H5zm0 40.618v-1.207h290v1.207H5zm0 20.29v-1.207h290v1.207H5zm0 20.29v-1.207h290v1.207H5zM39.42 32h1.209v160H39.42V32zm36.709 0h1.208v160h-1.208V32zm36.67 0h1.209v160H112.8V32zm36.71 0h1.207v160h-1.208V32zm36.67 0h1.208v160h-1.208V32zm36.671 0h1.208v160h-1.208V32zm36.708 0h1.209v160h-1.209V32z" fill="#DFDEDE" fill-rule="nonzero"/><path fill="#C2C2C2" fill-rule="nonzero" d="M.805 33.951v-2.447H298.63v2.447z"/><g fill="#000"><use xlink:href="#a"/><use xlink:href="#a"/></g><path d="M125.444 80.798l-37.362-26.79a1 1 0 0 0-.49-.182l-34.958-3.291a1 1 0 1 0-.188 1.99l34.69 3.266L124.44 82.54a1 1 0 0 0 .357.161l36.539 8.486 36.349 23.682a1 1 0 0 0 .424.154l37.44 4.595a1 1 0 1 0 .243-1.986l-37.21-4.565-36.302-23.652a1 1 0 0 0-.32-.136l-36.516-8.48zm36.064 10.429l-.32-.136.148.096.172.04zm-74.103-35.41l-.489-.183.22.157.27.026z" fill="#2A3052" fill-rule="nonzero"/><path d="M190.262 150.563h-35.1l-5.4-8.213-5.4 8.213h-35.1c-2.624 0-4.725 2.137-4.725 4.8v24.787c0 2.662 2.138 4.8 4.725 4.8h81c2.625 0 4.726-2.137 4.726-4.8v-24.787c0-2.663-2.138-4.8-4.726-4.8z" fill="#E88024"/><ellipse cx="8.512" cy="9.225" rx="8.137" ry="8.475" opacity=".6" fill="#FFF" transform="translate(226.75 109.75)"/><path d="M235.262 127.773c-4.675 0-8.46-3.942-8.46-8.798s3.785-8.798 8.46-8.798c4.676 0 8.461 3.942 8.461 8.798s-3.785 8.798-8.46 8.798zm0-.646c4.313 0 7.815-3.647 7.815-8.152 0-4.505-3.502-8.152-7.815-8.152-4.312 0-7.814 3.647-7.814 8.152 0 4.505 3.502 8.152 7.814 8.152z" fill="#E88024" fill-rule="nonzero"/><ellipse cx="8.137" cy="8.475" rx="8.137" ry="8.475" opacity=".6" fill="#FFF" transform="translate(79.5 47)"/><path d="M87.638 64.273c-4.676 0-8.461-3.942-8.461-8.798s3.785-8.798 8.46-8.798c4.676 0 8.461 3.942 8.461 8.798s-3.785 8.798-8.46 8.798zm0-.646c4.312 0 7.814-3.647 7.814-8.152 0-4.505-3.502-8.152-7.814-8.152-4.313 0-7.815 3.647-7.815 8.152 0 4.505 3.502 8.152 7.815 8.152z" fill="#E88024" fill-rule="nonzero"/><path fill="#2A3052" fill-rule="nonzero" d="M5 134v-1h289.284v1zm232.306-37.858h-4.864v4.717H231V90.195h7.053v1.135h-5.61v3.677h4.863v1.135zm3.136 4.978H239v-7.925h1.442v7.925zm0-10.453H239v-1.472h1.442v1.472zm3.847 2.674l.102 1.04c.26-.376.587-.668.985-.875.398-.208.861-.311 1.388-.311.528 0 .98.122 1.359.366.378.244.663.61.853 1.098a2.94 2.94 0 0 1 .989-1.069c.41-.264.889-.395 1.436-.395.805 0 1.442.277 1.911.83.469.555.703 1.389.703 2.502v4.739h-1.443v-4.754c0-.78-.134-1.334-.402-1.659-.269-.324-.67-.487-1.202-.487-.493 0-.892.171-1.197.513-.305.342-.485.774-.538 1.297v5.09h-1.45v-4.754c0-.742-.139-1.285-.414-1.63-.276-.343-.673-.516-1.19-.516-.44 0-.801.09-1.085.271-.283.181-.5.435-.651.762v5.867H243v-7.925h1.289zM34.45 74.621H33V63.957h1.45v10.664zm3.736-7.925l.102 1.18c.264-.42.595-.747.993-.979.398-.231.85-.347 1.358-.347.855 0 1.516.25 1.985.75.469.5.703 1.273.703 2.318v5.003h-1.443v-4.973c0-.699-.138-1.194-.413-1.487-.276-.293-.697-.44-1.264-.44-.415 0-.782.1-1.102.3-.32.2-.575.474-.766.821v5.779h-1.442v-7.925h1.289zm8.752 7.925h-1.443v-7.925h1.443v7.925zm-.022-10.833h1.685l.014.044-1.977 1.905h-1.077l1.355-1.949zm5.5 9.859c.48 0 .9-.148 1.264-.443.364-.296.546-.658.546-1.088h1.296l.015.044c.024.684-.28 1.29-.912 1.82-.615.524-1.4.806-2.208.795-1.153 0-2.034-.376-2.644-1.128-.61-.752-.916-1.697-.916-2.835v-.307c0-1.128.306-2.07.92-2.824.612-.754 1.492-1.131 2.64-1.131.927 0 1.685.273 2.274.82.588.547.873 1.218.853 2.014l-.015.044h-1.302c0-.483-.171-.895-.513-1.234-.342-.34-.774-.51-1.296-.51-.757 0-1.298.273-1.623.817-.324.545-.487 1.213-.487 2.004v.307c0 .81.161 1.486.484 2.025.322.54.864.81 1.626.81h-.002zm6.3.974h-1.443v-7.925h1.442v7.925h.001zm0-9.954h-1.443v-1.472h1.442v1.472h.001zm1.882 5.918c0-1.172.317-2.137.952-2.897.635-.759 1.496-1.138 2.585-1.138 1.099 0 1.967.378 2.604 1.135s.956 1.723.956 2.9v.161c0 1.182-.317 2.149-.952 2.9-.635.753-1.5 1.129-2.593 1.129-1.094 0-1.96-.378-2.596-1.132-.638-.754-.956-1.72-.956-2.897v-.161zm1.443.161c0 .84.177 1.534.53 2.08.355.547.88.82 1.579.82.688 0 1.21-.273 1.567-.82.357-.546.535-1.24.535-2.08v-.16c0-.83-.18-1.522-.538-2.074-.36-.551-.885-.827-1.579-.827-.688 0-1.21.276-1.563.827-.354.552-.531 1.243-.531 2.073v.161z"/><path d="M131.715 173.265c-.423.56-1.083 1.058-1.978 1.495-.895.436-2.026.654-3.393.654-1.739 0-3.158-.54-4.258-1.621s-1.65-2.484-1.65-4.21v-2.968c0-1.719.528-3.12 1.586-4.204 1.058-1.084 2.42-1.626 4.087-1.626 1.732 0 3.059.421 3.98 1.265.921.843 1.391 1.951 1.41 3.325l-.019.058h-2.685c-.052-.755-.293-1.352-.723-1.792-.43-.44-1.058-.659-1.885-.659-.872 0-1.575.337-2.109 1.01-.534.675-.8 1.542-.8 2.603v2.989c0 1.08.276 1.958.83 2.632.553.673 1.298 1.01 2.236 1.01.664 0 1.198-.068 1.601-.205.404-.136.71-.306.918-.508v-2.636h-2.52v-1.973h5.372v5.361zm8.418 1.944a5.998 5.998 0 0 1-.269-.762 5.298 5.298 0 0 1-.161-.82 3.93 3.93 0 0 1-1.157 1.279c-.479.339-1.05.508-1.714.508-1.107 0-1.96-.285-2.559-.855-.599-.57-.898-1.346-.898-2.329 0-1.035.399-1.837 1.196-2.407.798-.57 1.961-.854 3.491-.854h1.592v-.84c0-.508-.133-.902-.4-1.182-.267-.28-.661-.42-1.182-.42-.462 0-.819.112-1.07.337-.25.225-.375.535-.375.933l-2.754-.01-.01-.059c-.045-.892.342-1.662 1.162-2.31.82-.647 1.898-.971 3.233-.971 1.263 0 2.288.32 3.076.962.788.641 1.181 1.554 1.181 2.74v4.364c0 .495.038.96.113 1.397.075.436.193.87.356 1.299h-2.851zm-2.608-1.905c.502 0 .948-.123 1.338-.37.39-.248.654-.535.791-.86v-1.494h-1.592c-.605 0-1.064.151-1.377.454a1.473 1.473 0 0 0-.468 1.099c0 .351.117.634.351.85.235.214.554.321.957.321zm9.756-8.662l.127 1.514c.352-.54.785-.96 1.299-1.26.514-.3 1.09-.449 1.728-.449 1.068 0 1.901.335 2.5 1.006.6.67.899 1.722.899 3.154v6.602h-2.861v-6.592c0-.71-.144-1.213-.43-1.509-.287-.296-.72-.444-1.299-.444a2.2 2.2 0 0 0-1.016.23c-.3.152-.55.369-.752.649v7.666h-2.851v-10.567h2.656zm11.465 1.338a3.63 3.63 0 0 1 1.22-1.128 3.218 3.218 0 0 1 1.602-.405c1.1 0 1.965.366 2.593 1.099.628.732.942 1.863.942 3.393v6.27h-2.851v-6.29c0-.82-.145-1.4-.435-1.742-.29-.342-.72-.513-1.294-.513-.39 0-.735.07-1.035.21-.3.14-.547.337-.742.59v7.745h-2.852v-15.235h2.852v6.006zm8.066 3.848c0-1.576.44-2.866 1.319-3.872.879-1.006 2.096-1.509 3.652-1.509 1.563 0 2.787.501 3.672 1.504.885 1.003 1.328 2.295 1.328 3.877v.205c0 1.589-.441 2.882-1.323 3.882-.882 1-2.101 1.499-3.657 1.499-1.563 0-2.785-.5-3.667-1.5-.883-.999-1.324-2.292-1.324-3.881v-.205zm2.842.205c0 .964.17 1.737.508 2.32.339.582.885.873 1.64.873.736 0 1.275-.293 1.617-.879.342-.586.513-1.357.513-2.314v-.205c0-.938-.173-1.703-.518-2.295-.345-.592-.889-.889-1.63-.889-.737 0-1.275.298-1.617.894-.342.596-.513 1.359-.513 2.29v.205zm11.953.273h-2.851v-9.316h2.851v9.316zm0 4.903h-2.851v-2.5h2.851v2.5z" fill="#FFF" fill-rule="nonzero"/></g></svg>