<svg width="301" height="200" viewBox="0 0 301 200" xmlns="http://www.w3.org/2000/svg"><title>portuguese touch</title><g transform="translate(.052 .551)" fill="none" fill-rule="evenodd"><path fill="#F1F2F2" fill-rule="nonzero" d="M0 0h300v199H0z"/><path d="M39.125 55.375V74.75H75.25V55.375H39.125zm0-1H75.25V34h1v20.375h36.125V34h1v20.375H149.5V34h1v20.375h36.125V34h1v20.375h36.125V34h1v20.375h36.125V34h1v20.375H299.5v1h-37.625V74.75H299.5v1h-37.625v19.375H299.5v1h-37.625V115.5H299.5v1h-37.625v19.375H299.5v1h-37.625v19.375H299.5v1h-37.625v19.375H299.5v1h-37.625V199h-1v-21.375H224.75V199h-1v-21.375h-36.125V199h-1v-21.375H150.5V199h-1v-21.375h-36.125V199h-1v-21.375H76.25V199h-1v-21.375H39.125V199h-1v-21.375H1.5v-1h36.625V157.25H1.5v-1h36.625v-19.375H1.5v-1h36.625V116.5H1.5v-1h36.625V96.125H1.5v-1h36.625V75.75H1.5v-1h36.625V55.375H1.5v-1h36.625V34h1v20.375zm221.75 1H224.75V74.75h36.125V55.375zm-37.125 0h-36.125V74.75h36.125V55.375zm-37.125 0H150.5V74.75h36.125V55.375zm-37.125 0h-36.125V74.75H149.5V55.375zm-37.125 0H76.25V74.75h36.125V55.375zM39.125 75.75v19.375H75.25V75.75H39.125zm221.75 0H224.75v19.375h36.125V75.75zm-37.125 0h-36.125v19.375h36.125V75.75zm-37.125 0H150.5v19.375h36.125V75.75zm-37.125 0h-36.125v19.375H149.5V75.75zm-37.125 0H76.25v19.375h36.125V75.75zm-73.25 20.375V115.5H75.25V96.125H39.125zm221.75 0H224.75V115.5h36.125V96.125zm-37.125 0h-36.125V115.5h36.125V96.125zm-37.125 0H150.5V115.5h36.125V96.125zm-37.125 0h-36.125V115.5H149.5V96.125zm-37.125 0H76.25V115.5h36.125V96.125zM39.125 116.5v19.375H75.25V116.5H39.125zm221.75 0H224.75v19.375h36.125V116.5zm-37.125 0h-36.125v19.375h36.125V116.5zm-37.125 0H150.5v19.375h36.125V116.5zm-37.125 0h-36.125v19.375H149.5V116.5zm-37.125 0H76.25v19.375h36.125V116.5zm-73.25 20.375v19.375H75.25v-19.375H39.125zm221.75 0H224.75v19.375h36.125v-19.375zm-37.125 0h-36.125v19.375h36.125v-19.375zm-37.125 0H150.5v19.375h36.125v-19.375zm-37.125 0h-36.125v19.375H149.5v-19.375zm-37.125 0H76.25v19.375h36.125v-19.375zm-73.25 20.375v19.375H75.25V157.25H39.125zm221.75 0H224.75v19.375h36.125V157.25zm-37.125 0h-36.125v19.375h36.125V157.25zm-37.125 0H150.5v19.375h36.125V157.25zm-37.125 0h-36.125v19.375H149.5V157.25zm-37.125 0H76.25v19.375h36.125V157.25z" fill="#DFDEDE" fill-rule="nonzero"/><path stroke="#C2C2C2" stroke-width="2" d="M1 1h298v197H1z"/><path fill="#C2C2C2" fill-rule="nonzero" d="M0 33h300v2H0z"/><path d="M2.248 75.285h295.125M261.92 33.967v162.757" stroke="#2A3052" stroke-width="1.23" stroke-linejoin="round"/><path stroke="#2A3052" stroke-width="3.689" stroke-linecap="round" stroke-linejoin="round" d="M37.891 137.242l37.358-33.93 26.542 26.352 32.026-35.415 46.458 42.993 44.288-61.957"/><path d="M188.805 147.98H153.2l-5.484-8.339-5.483 8.34h-35.606c-2.666 0-4.798 2.17-4.798 4.874v25.171c0 2.704 2.17 4.875 4.798 4.875h82.216c2.666 0 4.799-2.17 4.799-4.875v-25.171c0-2.704-2.171-4.874-4.837-4.874z" fill="#E88024" fill-rule="nonzero"/><ellipse cx="9.216" cy="8.843" rx="8.264" ry="8.606" opacity=".6" transform="translate(215.348 66.441)" fill="#FFF" fill-rule="nonzero"/><ellipse stroke="#E88024" stroke-width="2.46" cx="224.563" cy="75.285" rx="8.264" ry="8.606"/><ellipse cx="9.139" cy="9.063" rx="8.264" ry="8.606" opacity=".6" transform="translate(28.752 128.179)" fill="#FFF" fill-rule="nonzero"/><ellipse stroke="#E88024" stroke-width="2.46" cx="37.891" cy="137.242" rx="8.264" ry="8.606"/><path d="M27.318 13.934h-3.422v10.128h-2.403V13.934H18.12v-1.851h9.198v1.85zm.116 5.595c0-1.328.37-2.415 1.11-3.263.74-.847 1.766-1.27 3.077-1.27 1.317 0 2.348.422 3.094 1.266.746.845 1.119 1.934 1.119 3.267v.172c0 1.339-.372 2.429-1.115 3.27-.743.843-1.77 1.264-3.081 1.264-1.317 0-2.346-.421-3.09-1.263-.743-.842-1.114-1.932-1.114-3.27v-.173zm2.394.172c0 .812.142 1.463.428 1.954.285.491.746.737 1.382.737.62 0 1.074-.247 1.362-.74.287-.494.431-1.144.431-1.95v-.173c0-.79-.145-1.435-.436-1.934-.29-.5-.748-.749-1.374-.749-.62 0-1.073.251-1.361.753-.288.502-.432 1.145-.432 1.93v.172zm11.206 2.69c.417 0 .748-.124.995-.374s.37-.582.37-1h2.189l.016.05c.022.9-.312 1.652-1.003 2.259-.691.606-1.547.909-2.567.909-1.317 0-2.334-.421-3.053-1.263-.718-.842-1.078-1.919-1.078-3.23v-.246c0-1.306.358-2.382 1.074-3.23.716-.847 1.73-1.27 3.04-1.27 1.086 0 1.961.312 2.625.937.664.625.984 1.448.962 2.468l-.016.05h-2.189c0-.461-.122-.844-.366-1.148-.244-.304-.582-.457-1.016-.457-.62 0-1.06.249-1.32.745s-.391 1.131-.391 1.905v.246c0 .79.13 1.43.39 1.917.261.489.707.733 1.338.733zm10.218 1.67a5.053 5.053 0 0 1-.226-.64 4.464 4.464 0 0 1-.136-.692 3.293 3.293 0 0 1-.979 1.078c-.406.285-.888.428-1.448.428-.932 0-1.65-.24-2.155-.72-.505-.48-.757-1.134-.757-1.962 0-.873.336-1.549 1.007-2.029.672-.48 1.653-.72 2.942-.72h1.35v-.707c0-.428-.113-.76-.338-.996-.225-.235-.56-.353-1.004-.353-.39 0-.69.094-.9.283-.212.19-.318.449-.318.778h-2.312l-.016-.05c-.038-.75.29-1.4.983-1.945.694-.546 1.6-.819 2.72-.819 1.069 0 1.934.269 2.595.806.661.538.992 1.309.992 2.312v3.678c0 .417.031.81.094 1.177s.163.732.3 1.094h-2.394zm-2.196-1.603c.416 0 .79-.105 1.118-.313.33-.209.554-.45.675-.724v-1.259H49.5c-.51 0-.895.126-1.155.379-.26.252-.391.562-.391.93 0 .3.097.54.292.72.195.177.465.267.81.267z" fill="#000" fill-rule="nonzero"/><g fill="#2A3052" fill-rule="nonzero"><path d="M275.786 121.891v1.022h-4.9v3.47h4.174v1.052h-4.175v4.443h-1.44v-9.987zM277.048 124.473h1.324v7.287h-1.324zM277.066 121.163v1.315h1.349v-1.315zM280.56 124.541h1.16c.005.232.037.538.097.92 1.151-1.367 3.486-1.614 4.287.293.783-1.213 1.557-1.535 2.819-1.326 1.596.266 1.834 2.068 1.911 2.75-.033 1.952-.012 3.669 0 4.7h-1.343v-4.7c-.04-.694-.274-1.718-1.453-1.718-1.18 0-1.708 1.081-1.708 1.718v4.7h-1.335v-4.7c0-.82-.503-1.883-1.689-1.718-1.185.165-1.284.697-1.49.976.015 1.658.015 3.472 0 5.442h-1.257v-7.337z"/></g><g fill="#2A3052" fill-rule="nonzero"><path d="M27.05 158.332l.114 1.181a2.577 2.577 0 0 1 2.288-1.296c.839 0 1.487.229 1.944.763.458.495.687 1.258.687 2.287v4.957h-1.411v-4.919c0-.686-.153-1.181-.42-1.487-.266-.305-.686-.419-1.22-.419-.419 0-.762.114-1.067.305-.305.19-.572.458-.763.8v5.72h-1.41v-7.854l1.258-.038zM21.91 155.692h1.433v10.594H21.91zM34.324 158.234h1.433v7.99h-1.433zM45.976 158.31h1.41v7.762h-1.41zM45.995 154.786v1.4h1.437v-1.4zM42.616 161.069c.502-.015.972 0 1.275 0 0-2.243-1.777-2.835-3.207-2.835-1.429 0-3.207 1.296-3.207 4.078 0 2.781 1.56 4.134 3.496 4.065 1.936-.07 2.918-1.542 2.918-2.626a21.39 21.39 0 0 1-1.275 0c0 1.024-.92 1.561-1.643 1.561-1.728 0-2.12-1.677-2.12-3.01 0-1.333.442-2.98 1.986-2.98 1.31 0 1.777 1.016 1.777 1.747zM52.619 158.22c.891-.049 2.02.26 2.65.901.699.708 1.198 1.59 1.198 3.044 0 1.288-.257 2.219-.867 2.971-.688.85-1.76 1.24-2.63 1.24-.902 0-1.88-.142-2.703-.902-.673-.622-1.296-1.688-1.234-3.176.069-1.644.598-2.582 1.234-3.177.643-.6 1.397-.85 2.352-.901zm.32 1.076c-1.022 0-2.258.666-2.258 2.735 0 2.068.763 3.298 2.133 3.298s2.27-1.391 2.131-3.298c-.139-1.908-.983-2.735-2.005-2.735zM34.4 157.085h1.037l1.989-1.88h-1.687z"/></g><g fill="#6D6E71" fill-rule="nonzero"><path d="M34.572 61.401h1.13l-1.351 8.912h-1.096zM36.478 64.144h1.118l.893 4.812 2.272-4.812h1.119l-3.212 6.169h-.79zM45.79 64.061c1.505.234 2.34 1.66 1.774 3.833-.565 2.172-2.48 2.83-3.918 2.422-1.439-.408-1.797-2.277-1.287-3.895.51-1.618 1.928-2.593 3.432-2.36zm-.182.887c-1.127-.267-1.865.79-2.139 1.55-.274.762-.498 2.781.7 3.023 1.197.243 1.986-.647 2.32-1.777.332-1.129.247-2.528-.88-2.796zM25.206 70.291l4.242-8.295h.984l1.66 8.295H30.94l-.383-2.158h-3.133l-1.07 2.158h-1.147zm2.713-3.06h2.455l-.666-3.657-1.789 3.658z"/></g><g fill="#FFF" fill-rule="nonzero"><path d="M176.73 167.968h-2.498v-8.267h2.499zM176.73 172.318h-2.498v-2.221h2.499z"/><g><path d="M142.008 162.477h2.017l.102 1.47c.826-1.233 1.898-1.78 3.216-1.644.762.079 2.371.329 2.85 2.495.177.794.14 2.136.126 3.96a425.27 425.27 0 0 0 0 3.678h-2.214v-6.238c0-.734-.205-1.553-.82-1.863-.845-.426-2.437-.247-3.076.827v7.274h-2.201v-9.959zM124.238 167.138v-1.673h5.063c.057 2.917.057 4.618 0 5.102-.427 1.277-5.484 3.599-8.748.654-.973-.878-1.431-1.85-1.681-3.323-.011-1.503-.038-2.914-.028-4.248.247-1.635.795-2.564 1.236-3.091 1.605-1.92 4.163-2.332 6.412-1.555 2.25.778 2.541 2.393 2.723 3.973-.52 0-.796-.022-2.202 0 .143-.889-.666-2.608-2.777-2.513-2.11.095-3.106 1.828-3.106 3.273 0 1.444-.076.96 0 3.83.096 3.296 4.047 4.18 5.883 2.42l.067-2.807-2.842-.042zM134.153 165.298c-.679-.005-1.391-.005-2.136 0 0-1.072.767-3.015 3.835-3.015 3.069 0 3.805 2.108 3.888 2.561.083.454-.213 6.818.429 7.541l-2.28.003c-.188-.645-.282-1.12-.282-1.429-.356.434-.968 1.228-1.908 1.519-.94.291-3.074.448-3.949-1.6-.576-1.351-.208-2.87.875-3.565 1.789-1.15 4.248-.766 4.982-.766.094-2.05-.518-2.527-1.908-2.527-.926 0-1.441.426-1.546 1.278zm3.453 2.651a36.987 36.987 0 0 0-2.251.019c-.895.079-1.692.74-1.624 1.683.081 1.123 1.359 1.33 2.359 1.006.84-.272 1.425-.975 1.516-1.274v-1.434zM167.286 162.289c1.1-.061 2.493.328 3.273 1.135.862.892 1.478 2.002 1.478 3.834 0 1.622-.318 2.794-1.07 3.742-.85 1.07-2.174 1.56-3.248 1.56-1.114 0-2.322-.178-3.337-1.135-.831-.783-1.6-2.126-1.523-4 .084-2.071.737-3.252 1.523-4.001.793-.757 1.725-1.07 2.904-1.135zm.219 1.767c-1.003 0-2.362.449-2.362 3.262s1.096 3.494 2.362 3.494c1.265 0 2.324-1.12 2.233-3.629-.09-2.509-1.23-3.127-2.233-3.127zM152.642 158.032h2.118c.04 3.472.059 5.364.059 5.675.516-.802 2.014-1.894 3.611-1.4 2.535.785 2.42 2.439 2.535 3.549.077.74.077 2.9 0 6.483h-2.197c.06-2.958.06-5.059 0-6.303.08-2.156-2.6-2.805-4.008-.878l.059 7.18h-2.177v-14.306z"/></g></g></g></svg>