<?xml version="1.0" encoding="utf-8"?>
<!-- Generator: Adobe Illustrator 21.1.0, SVG Export Plug-In . SVG Version: 6.00 Build 0)  -->
<svg version="1.1" id="Layer_1" xmlns="http://www.w3.org/2000/svg" xmlns:xlink="http://www.w3.org/1999/xlink" x="0px" y="0px"
	 viewBox="0 0 509.3 99.5" style="enable-background:new 0 0 509.3 99.5;" xml:space="preserve">
<style type="text/css">
	.st0{fill:#F2F2F2;}
	.st1{enable-background:new    ;}
	.st2{fill:#2A3052;}
	.st3{fill:none;stroke:#2A3052;stroke-width:2;stroke-miterlimit:10;}
	.st4{fill:none;stroke:#E98024;stroke-width:2;stroke-miterlimit:10;}
</style>
<g id="Group_19" transform="translate(-15387 -20709)">
	<rect id="Rectangle_11" x="15778.3" y="20709" class="st0" width="118" height="29"/>
	<g class="st1">
		<path class="st2" d="M15795.6,20724.1c0,1.2-0.4,2.2-1.1,3c-0.8,0.8-1.7,1.2-2.9,1.2c-1.2,0-2.1-0.4-2.8-1.2
			c-0.7-0.8-1.1-1.8-1.1-3v-1.8c0-1.2,0.4-2.2,1.1-3c0.7-0.8,1.7-1.2,2.8-1.2c1.2,0,2.2,0.4,2.9,1.2c0.8,0.8,1.1,1.8,1.1,3V20724.1z
			 M15794.2,20722.4c0-0.9-0.2-1.7-0.7-2.2c-0.5-0.6-1.2-0.9-2-0.9c-0.8,0-1.4,0.3-1.9,0.9c-0.5,0.6-0.7,1.3-0.7,2.2v1.8
			c0,0.9,0.2,1.7,0.7,2.3c0.5,0.6,1.1,0.9,1.9,0.9c0.8,0,1.5-0.3,2-0.9c0.5-0.6,0.7-1.3,0.7-2.3V20722.4z"/>
		<path class="st2" d="M15798.5,20720.8l0.1,1.1c0.2-0.4,0.6-0.7,0.9-0.9c0.4-0.2,0.8-0.3,1.3-0.3c0.8,0,1.4,0.2,1.9,0.7
			s0.7,1.2,0.7,2.2v4.7h-1.3v-4.6c0-0.7-0.1-1.1-0.4-1.4c-0.3-0.3-0.7-0.4-1.2-0.4c-0.4,0-0.7,0.1-1,0.3c-0.3,0.2-0.5,0.4-0.7,0.8
			v5.4h-1.3v-7.4H15798.5z"/>
		<path class="st2" d="M15808.3,20728.4c-1,0-1.8-0.3-2.5-1c-0.6-0.7-0.9-1.6-0.9-2.7v-0.3c0-1.1,0.3-1.9,0.9-2.6
			c0.6-0.7,1.4-1,2.2-1c1,0,1.8,0.3,2.3,0.9s0.8,1.4,0.8,2.4v0.8h-4.8l0,0c0,0.7,0.2,1.3,0.5,1.7c0.3,0.5,0.8,0.7,1.5,0.7
			c0.5,0,0.9-0.1,1.2-0.2c0.3-0.1,0.6-0.3,0.9-0.5l0.5,0.9c-0.3,0.3-0.6,0.5-1,0.7C15809.5,20728.3,15809,20728.4,15808.3,20728.4z
			 M15808.1,20721.8c-0.5,0-0.8,0.2-1.2,0.6s-0.5,0.9-0.6,1.4l0,0h3.4v-0.2c0-0.5-0.1-1-0.4-1.3
			C15809.1,20721.9,15808.7,20721.8,15808.1,20721.8z"/>
		<path class="st2" d="M15817.4,20727.2h5.6v1.1h-7.1v-1l5.3-7.9h-5.2v-1.1h6.8v1L15817.4,20727.2z"/>
		<path class="st2" d="M15827.5,20728.4c-1,0-1.8-0.3-2.5-1c-0.6-0.7-0.9-1.6-0.9-2.7v-0.3c0-1.1,0.3-1.9,0.9-2.6
			c0.6-0.7,1.4-1,2.2-1c1,0,1.8,0.3,2.3,0.9s0.8,1.4,0.8,2.4v0.8h-4.8l0,0c0,0.7,0.2,1.3,0.5,1.7c0.3,0.5,0.8,0.7,1.5,0.7
			c0.5,0,0.9-0.1,1.2-0.2c0.3-0.1,0.6-0.3,0.9-0.5l0.5,0.9c-0.3,0.3-0.6,0.5-1,0.7C15828.6,20728.3,15828.1,20728.4,15827.5,20728.4
			z M15827.3,20721.8c-0.5,0-0.8,0.2-1.2,0.6s-0.5,0.9-0.6,1.4l0,0h3.4v-0.2c0-0.5-0.1-1-0.4-1.3
			C15828.2,20721.9,15827.8,20721.8,15827.3,20721.8z"/>
		<path class="st2" d="M15835.3,20722l-0.7,0c-0.4,0-0.7,0.1-0.9,0.3c-0.2,0.2-0.4,0.4-0.6,0.7v5.3h-1.3v-7.4h1.2l0.1,1.1
			c0.2-0.4,0.5-0.7,0.8-0.9c0.3-0.2,0.7-0.3,1.1-0.3c0.1,0,0.2,0,0.3,0s0.2,0,0.2,0.1L15835.3,20722z"/>
		<path class="st2" d="M15836.1,20724.5c0-1.1,0.3-2,0.9-2.7c0.6-0.7,1.4-1.1,2.4-1.1c1,0,1.8,0.4,2.4,1.1c0.6,0.7,0.9,1.6,0.9,2.7
			v0.2c0,1.1-0.3,2-0.9,2.7c-0.6,0.7-1.4,1.1-2.4,1.1s-1.8-0.4-2.4-1.1c-0.6-0.7-0.9-1.6-0.9-2.7V20724.5z M15837.5,20724.6
			c0,0.8,0.2,1.4,0.5,1.9c0.3,0.5,0.8,0.8,1.5,0.8c0.6,0,1.1-0.3,1.5-0.8c0.3-0.5,0.5-1.2,0.5-1.9v-0.2c0-0.8-0.2-1.4-0.5-1.9
			c-0.3-0.5-0.8-0.8-1.5-0.8c-0.6,0-1.1,0.3-1.5,0.8c-0.3,0.5-0.5,1.2-0.5,1.9V20724.6z"/>
		<path class="st2" d="M15848.1,20728.2v-10h3.2c1,0,1.9,0.2,2.4,0.7s0.9,1.1,0.9,2c0,0.4-0.1,0.8-0.4,1.2c-0.3,0.3-0.7,0.6-1.1,0.8
			c0.6,0.1,1.1,0.4,1.4,0.9c0.3,0.5,0.5,1,0.5,1.6c0,0.9-0.3,1.6-0.9,2.1c-0.6,0.5-1.4,0.7-2.4,0.7H15848.1z M15849.5,20722.5h2.2
			c0.5,0,0.9-0.1,1.2-0.4c0.3-0.3,0.5-0.7,0.5-1.2c0-0.5-0.2-0.9-0.5-1.2c-0.3-0.3-0.8-0.4-1.5-0.4h-1.9V20722.5z M15849.5,20723.6
			v3.6h2.3c0.6,0,1.1-0.2,1.4-0.5c0.3-0.3,0.5-0.7,0.5-1.3c0-0.6-0.1-1-0.4-1.4c-0.3-0.3-0.7-0.5-1.3-0.5H15849.5z"/>
		<path class="st2" d="M15860.3,20722l-0.7,0c-0.4,0-0.7,0.1-0.9,0.3c-0.2,0.2-0.4,0.4-0.6,0.7v5.3h-1.3v-7.4h1.2l0.1,1.1
			c0.2-0.4,0.5-0.7,0.8-0.9c0.3-0.2,0.7-0.3,1.1-0.3c0.1,0,0.2,0,0.3,0s0.2,0,0.2,0.1L15860.3,20722z"/>
		<path class="st2" d="M15863.1,20718.9h-1.3v-1.4h1.3V20718.9z M15863.1,20728.2h-1.3v-7.4h1.3V20728.2z"/>
		<path class="st2" d="M15864.9,20724.7c0-1.2,0.3-2.1,0.8-2.9c0.5-0.7,1.2-1.1,2.1-1.1c0.4,0,0.8,0.1,1.2,0.2
			c0.3,0.2,0.6,0.4,0.9,0.7v-4.1h1.3v10.7h-1.1l-0.2-0.9c-0.2,0.3-0.5,0.6-0.9,0.8s-0.8,0.3-1.2,0.3c-0.9,0-1.6-0.3-2.1-1
			c-0.5-0.7-0.8-1.5-0.8-2.6V20724.7z M15866.2,20724.8c0,0.7,0.2,1.3,0.5,1.8s0.8,0.7,1.4,0.7c0.4,0,0.7-0.1,1-0.3
			c0.3-0.2,0.5-0.4,0.7-0.8v-3.5c-0.2-0.3-0.4-0.5-0.7-0.7c-0.3-0.2-0.6-0.3-1-0.3c-0.6,0-1.1,0.3-1.4,0.8c-0.3,0.5-0.5,1.2-0.5,2.1
			V20724.8z"/>
		<path class="st2" d="M15872.8,20724.7c0-1.2,0.3-2.1,0.8-2.9s1.2-1.1,2.2-1.1c0.5,0,0.9,0.1,1.2,0.3s0.7,0.5,0.9,0.8l0.2-1h1.1
			v7.4c0,0.9-0.3,1.7-0.8,2.2s-1.3,0.8-2.4,0.8c-0.4,0-0.7,0-1.2-0.1c-0.4-0.1-0.8-0.2-1.1-0.4l0.3-1c0.2,0.1,0.5,0.2,0.9,0.3
			s0.7,0.1,1,0.1c0.7,0,1.1-0.2,1.4-0.4c0.3-0.3,0.4-0.8,0.4-1.4v-0.8c-0.2,0.3-0.5,0.5-0.9,0.7c-0.3,0.2-0.7,0.2-1.2,0.2
			c-0.9,0-1.6-0.3-2.1-1s-0.8-1.5-0.8-2.6V20724.7z M15874.2,20724.8c0,0.7,0.2,1.3,0.5,1.8s0.8,0.7,1.4,0.7c0.4,0,0.7-0.1,1-0.3
			c0.3-0.2,0.5-0.4,0.7-0.8v-3.4c-0.2-0.3-0.4-0.6-0.7-0.7c-0.3-0.2-0.6-0.3-1-0.3c-0.6,0-1.1,0.3-1.4,0.8s-0.5,1.2-0.5,2.1V20724.8
			z"/>
		<path class="st2" d="M15884.2,20728.4c-1,0-1.8-0.3-2.5-1c-0.6-0.7-0.9-1.6-0.9-2.7v-0.3c0-1.1,0.3-1.9,0.9-2.6
			c0.6-0.7,1.4-1,2.2-1c1,0,1.8,0.3,2.3,0.9s0.8,1.4,0.8,2.4v0.8h-4.8l0,0c0,0.7,0.2,1.3,0.5,1.7c0.3,0.5,0.8,0.7,1.5,0.7
			c0.5,0,0.9-0.1,1.2-0.2c0.3-0.1,0.6-0.3,0.9-0.5l0.5,0.9c-0.3,0.3-0.6,0.5-1,0.7C15885.3,20728.3,15884.8,20728.4,15884.2,20728.4
			z M15883.9,20721.8c-0.5,0-0.8,0.2-1.2,0.6s-0.5,0.9-0.6,1.4l0,0h3.4v-0.2c0-0.5-0.1-1-0.4-1.3
			C15884.9,20721.9,15884.5,20721.8,15883.9,20721.8z"/>
	</g>
	<g id="Group_14">
		<line id="Line_55" class="st3" x1="15497.6" y1="20765.5" x2="15550.6" y2="20765.5"/>
		<path id="Path_2624" class="st3" d="M15545.6,20755.5l10.1,10l-10.1,10"/>
		<line id="Line_56" class="st4" x1="15555.6" y1="20791.5" x2="15502.6" y2="20791.5"/>
		<path id="Path_2625" class="st4" d="M15507.6,20801.5l-10-10l10-10"/>
	</g>
	<g id="Group_15">
		<line id="Line_57" class="st3" x1="15708.6" y1="20765.5" x2="15761.6" y2="20765.5"/>
		<path id="Path_2626" class="st3" d="M15756.6,20755.5l10.1,10l-10.1,10"/>
		<line id="Line_58" class="st4" x1="15766.6" y1="20791.5" x2="15713.6" y2="20791.5"/>
		<path id="Path_2627" class="st4" d="M15718.6,20801.5l-10-10l10-10"/>
	</g>
	<g id="Group_17">
		<g id="Group_16">
			<path id="Path_2628" class="st2" d="M15402.2,20766c-5.2,0-9.5,4.3-9.5,9.5s4.3,9.5,9.5,9.5c5.2,0,9.5-4.3,9.5-9.5
				S15407.4,20766,15402.2,20766L15402.2,20766z M15402.2,20781.7c-3.5,0-6.3-2.8-6.3-6.3c0-3.5,2.8-6.3,6.3-6.3s6.3,2.8,6.3,6.3
				C15408.5,20778.9,15405.7,20781.7,15402.2,20781.7z"/>
			<path id="Path_2629" class="st2" d="M15406.9,20788.7c-0.4,0-0.7-0.1-1.1-0.1h-7.4c-6.3,0.1-11.4,5.2-11.4,11.5v0.4h3.2v-0.4
				c0-4.6,3.7-8.3,8.3-8.3c0,0,0,0,0,0h8.1c0.9,0.1,1.7-0.5,1.8-1.3c0-0.1,0-0.2,0-0.3
				C15408.3,20789.4,15407.7,20788.8,15406.9,20788.7z"/>
			<path id="Path_2630" class="st2" d="M15437.5,20785.4c-2-1.3-4.4-2-6.8-2h-8.1c-6.9,0-12.4,5.6-12.5,12.5v4.7h3.2v-4.7
				c0-5.1,4.2-9.3,9.3-9.3h8.1c5.1,0,9.3,4.2,9.3,9.3v4.7h3.2v-4.7C15443.2,20791.7,15441.1,20787.7,15437.5,20785.4z"/>
			<path id="Path_2631" class="st2" d="M15454.8,20788.7h-8c-0.8,0-1.5,0.7-1.5,1.5c0,0,0,0.1,0,0.1c0,0.9,0.8,1.6,1.7,1.6h7.9
				c4.6,0,8.3,3.7,8.3,8.3c0,0,0,0,0,0v0.4h3.2v-0.4C15466.3,20793.8,15461.2,20788.7,15454.8,20788.7z"/>
			<path id="Path_2632" class="st2" d="M15460.6,20775.4c0-5.2-4.3-9.5-9.5-9.5c-5.2,0-9.5,4.3-9.5,9.5c0,5.2,4.3,9.5,9.5,9.5l0,0
				C15456.3,20784.9,15460.6,20780.6,15460.6,20775.4z M15444.8,20775.4c0-3.5,2.8-6.3,6.3-6.3c3.5,0,6.3,2.8,6.3,6.3
				c0,3.5-2.8,6.3-6.3,6.3C15447.6,20781.7,15444.8,20778.9,15444.8,20775.4C15444.8,20775.4,15444.8,20775.4,15444.8,20775.4z"/>
			<path id="Path_2633" class="st2" d="M15426.6,20780.7c6.7,0.1,12.1-5.3,12.2-12c0.1-6.7-5.3-12.1-12-12.2
				c-6.7-0.1-12.1,5.3-12.2,12c0,0,0,0.1,0,0.1C15414.6,20775.2,15420,20780.7,15426.6,20780.7z M15426.6,20759.7
				c4.9,0,8.9,4,8.9,8.9c0,4.9-4,8.9-8.9,8.9c-4.9,0-8.9-4-8.9-8.9C15417.7,20763.7,15421.7,20759.7,15426.6,20759.7z"/>
		</g>
	</g>
	<g id="Group_18">
		<path id="Path_2634" class="st2" d="M15596.6,20764.8v43.7h76.1v-60h-76.1V20764.8z M15599.9,20751.9h69.4v9.6h-69.4V20751.9z
			 M15599.9,20764.8h69.4v40.4h-69.4V20764.8z"/>
		<circle id="Ellipse_116" class="st2" cx="15604.5" cy="20756.7" r="2.8"/>
		<circle id="Ellipse_117" class="st2" cx="15613.2" cy="20756.7" r="2.8"/>
		<circle id="Ellipse_118" class="st2" cx="15621.8" cy="20756.7" r="2.8"/>
		<g class="st1">
			<path class="st2" d="M15628.4,20796.1h-6l-1.3,3.7h-2l5.5-14.2h1.7l5.4,14.2h-2L15628.4,20796.1z M15623,20794.5h4.8l-2.3-6.5
				h-0.1L15623,20794.5z"/>
			<path class="st2" d="M15635.6,20794.1v5.7h-1.9v-14.2h5.4c1.5,0,2.7,0.4,3.5,1.2s1.3,1.8,1.3,3.1c0,1.3-0.4,2.3-1.3,3.1
				c-0.8,0.8-2,1.2-3.5,1.2H15635.6z M15635.6,20792.5h3.5c1,0,1.7-0.3,2.2-0.8s0.7-1.2,0.7-2c0-0.8-0.2-1.4-0.7-2
				c-0.5-0.5-1.2-0.8-2.2-0.8h-3.5V20792.5z"/>
			<path class="st2" d="M15648.5,20799.8h-1.9v-14.2h1.9V20799.8z"/>
		</g>
		<g class="st1">
			<path class="st2" d="M15630.8,20775.7h-5.2v5h-1.5v-11.4h7.5v1.2h-6v3.9h5.2V20775.7z"/>
			<path class="st2" d="M15635,20780.8h-1.5v-11.4h1.5V20780.8z"/>
			<path class="st2" d="M15641.7,20773.8l2.7-4.4h1.9l-3.6,5.6l3.7,5.7h-1.8l-2.7-4.5l-2.7,4.5h-1.9l3.7-5.7l-3.6-5.6h1.8
				L15641.7,20773.8z"/>
		</g>
		<path id="Path_2635" class="st3" d="M15654.6,20773.5l9,10.5l-9,10.6"/>
		<path id="Path_2636" class="st3" d="M15614.6,20773.5l-9,10.5l9,10.6"/>
	</g>
	<path id="Path_2637" class="st2" d="M15816.3,20751h4v2h-4V20751z M15822.3,20753h4v-2h-4V20753z M15830.3,20753h8v-2h-8V20753z
		 M15816.3,20769h4v-2h-4V20769z M15822.3,20769h4v-2h-4V20769z M15830.3,20769h8v-2h-8V20769z M15816.3,20785h4v-2h-4V20785z
		 M15822.3,20785h4v-2h-4V20785z M15830.3,20785h8v-2h-8V20785z M15837.3,20799c-1.1,0-2,0.9-2,2s0.9,2,2,2s2-0.9,2-2
		C15839.3,20799.9,15838.4,20799,15837.3,20799z M15868.3,20801c0,0.5-0.4,1-0.9,1c0,0-0.1,0-0.1,0h-24.1c-0.5,3.3-3.6,5.5-6.9,4.9
		c-2.5-0.4-4.5-2.4-4.9-4.9h-24.1c-0.6,0-1-0.4-1-1s0.4-1,1-1h24.1c0.4-2.5,2.4-4.5,4.9-4.9v-4.1h-25c-0.5,0-1-0.4-1-0.9
		c0,0,0-0.1,0-0.1v-12c0-0.5,0.4-1,0.9-1c0,0,0.1,0,0.1,0h25v-2h-25c-0.5,0-1-0.4-1-0.9c0,0,0-0.1,0-0.1v-12c0-0.5,0.4-1,0.9-1
		c0,0,0.1,0,0.1,0h25v-2h-25c-0.5,0-1-0.4-1-0.9c0,0,0-0.1,0-0.1v-12c0-0.5,0.4-1,0.9-1c0,0,0.1,0,0.1,0h52c0.5,0,1,0.4,1,0.9
		c0,0,0,0.1,0,0.1v12c0,0.5-0.4,1-0.9,1c0,0-0.1,0-0.1,0h-25v2h25c0.5,0,1,0.4,1,0.9c0,0,0,0.1,0,0.1v12c0,0.5-0.4,1-0.9,1
		c0,0-0.1,0-0.1,0h-25v2h25c0.5,0,1,0.4,1,0.9c0,0,0,0.1,0,0.1v12c0,0.5-0.4,1-0.9,1c0,0-0.1,0-0.1,0h-25v4.1
		c2.5,0.4,4.5,2.4,4.9,4.9h24.1C15867.9,20800,15868.3,20800.4,15868.3,20801z M15812.3,20757h50v-10h-50V20757z M15812.3,20773h50
		v-10h-50V20773z M15812.3,20789h50v-10h-50V20789z M15841.3,20801c0-2.2-1.8-4-4-4s-4,1.8-4,4s1.8,4,4,4
		C15839.5,20805,15841.3,20803.2,15841.3,20801z"/>
</g>
</svg>
