<svg xmlns="http://www.w3.org/2000/svg" viewBox="-15413 -21447 110.725 48">
  <defs>
    <style>
      .cls-1 {
        fill: #2a3052;
      }
    </style>
  </defs>
  <g id="Group_2" data-name="Group 2" transform="translate(-16240.125 -21976)">
    <g id="noun_603839_cc_1_" data-name="noun_603839_cc (1)" transform="translate(827.125 529)">
      <path id="Path_2608" data-name="Path 2608" class="cls-1" d="M8.912,55.5H54.088A1.412,1.412,0,0,0,55.5,54.088V48.44a1.412,1.412,0,0,0-1.412-1.412H49.853V27.264h4.235A1.412,1.412,0,0,0,55.5,25.852V20.205a1.411,1.411,0,0,0-.78-1.263L32.131,7.649a1.408,1.408,0,0,0-1.263,0L8.28,18.943a1.412,1.412,0,0,0-.78,1.263v5.647a1.412,1.412,0,0,0,1.412,1.412h4.235V47.029H8.912A1.412,1.412,0,0,0,7.5,48.44v5.647A1.412,1.412,0,0,0,8.912,55.5Zm1.412-31.059V21.078L31.5,10.49,52.676,21.078v3.363H10.324Zm36.706,2.824V47.029H44.206V27.264Zm-5.647,0V47.029H35.735V27.264Zm-8.471,0V47.029H30.088V27.264Zm-5.647,0V47.029H21.618V27.264Zm-8.471,0V47.029H15.971V27.264ZM10.324,49.852H52.676v2.824H10.324Z" transform="translate(-7.5 -7.499)"/>
    </g>
    <g id="noun_1100084_cc" transform="translate(883 529)">
      <path id="Path_2609" data-name="Path 2609" class="cls-1" d="M37.7,19.953V7.351A1.157,1.157,0,0,1,38.849,6.2H48a1.157,1.157,0,0,1,1.151,1.151V14.2A1.157,1.157,0,0,1,48,15.351H39.945V19.9h5.7a1.157,1.157,0,0,1,1.151,1.151v5.7h3.452A1.157,1.157,0,0,1,51.4,27.9v24h2.3a1.151,1.151,0,0,1,0,2.3H1.151a1.151,1.151,0,1,1,0-2.3h2.3v-24A1.157,1.157,0,0,1,4.6,26.748H8.055v-5.7A1.157,1.157,0,0,1,9.205,19.9H22.9V7.351A1.157,1.157,0,0,1,24.055,6.2h9.151a1.157,1.157,0,0,1,1.151,1.151V14.2a1.157,1.157,0,0,1-1.151,1.151H25.1V19.9H37.7ZM43.4,35.9a1.157,1.157,0,0,0-1.151,1.151A1.124,1.124,0,0,0,43.4,38.2h2.3a1.157,1.157,0,0,0,1.151-1.151A1.124,1.124,0,0,0,45.7,35.9Zm-6.849,0A1.157,1.157,0,0,0,35.4,37.049,1.124,1.124,0,0,0,36.548,38.2h2.3A1.157,1.157,0,0,0,40,37.049,1.124,1.124,0,0,0,38.849,35.9Zm-8,0A1.157,1.157,0,0,0,27.4,37.049,1.124,1.124,0,0,0,28.548,38.2h2.3A1.157,1.157,0,0,0,32,37.049,1.124,1.124,0,0,0,30.849,35.9ZM24,35.9h0a1.157,1.157,0,0,1,1.151,1.151V51.9h24V29.049H5.7V51.9H9.151V37.049a1.147,1.147,0,0,1,1.1-1.151H24ZM11.4,38.2V51.9h11.4V38.2ZM10.3,26.8H44.548V22.255H10.3V26.8ZM31.945,13.1V8.556H25.1V13.1h6.849Zm14.849,0V8.556H39.945V13.1h6.849Z" transform="translate(0 -6.2)"/>
    </g>
  </g>
</svg>
