<svg xmlns="http://www.w3.org/2000/svg" viewBox="-15758 -21432 149.649 48">
  <defs>
    <style>
      .cls-1 {
        fill: #2a3052;
      }
    </style>
  </defs>
  <g id="Group_1049" data-name="Group 1049" transform="translate(-16311.9 -21983)">
    <g id="Group_1047" data-name="Group 1047" transform="translate(1 0.261)">
      <g id="noun_594069_cc" transform="translate(593.234 564.837)">
        <g id="Group_1042" data-name="Group 1042" transform="translate(0 0)">
          <path id="Path_5659" data-name="Path 5659" class="cls-1" d="M61,215.51H53.683l-3.14-10.455H43.216L40.075,194.6h-16.2l-3.128,10.455H13.421l-3.14,10.455H2.966L-.8,228.059H64.764Zm-12.012-8.361L51.5,215.51H33.386l2.515-8.361Zm-17,5.77-1.736-5.77h3.459Zm-6.549-16.238H38.518l2.515,8.361h-18.1ZM14.978,207.149H28.063l2.515,8.361H12.463ZM2.008,225.978l2.515-8.361H17.608l2.515,8.361ZM19.791,217.6H23.25l-1.723,5.77Zm3.14,8.374,2.515-8.361H38.531l2.515,8.361ZM40.714,217.6h3.459l-1.736,5.77Zm5.642,0H59.441l2.515,8.361H43.841Z" transform="translate(0.8 -194.6)"/>
        </g>
      </g>
      <g id="Group_1046" data-name="Group 1046" transform="translate(654.562 550.739)">
        <path id="Path_5692" data-name="Path 5692" class="cls-1" d="M80.276,71.583a6.89,6.89,0,0,0-1.248-2.336,10.05,10.05,0,0,0-1.44-1.408,8.308,8.308,0,0,0,1.5-.288,4.953,4.953,0,0,0,1.984-1.056,4.827,4.827,0,0,0,1.28-1.92,3.909,3.909,0,0,0,.1-2.624A4.946,4.946,0,0,0,81.2,59.837a8.58,8.58,0,0,0-1.984-1.568c-.416-.256-.9-.448-1.344-.672l1.472-3.969-2.3-.832L75.6,56.765,73.266,55.9l1.44-3.969L72.4,51.1l-1.44,3.969L66.1,53.308l-.864,2.4.7.32c.192.1.48.256.832.448a5.252,5.252,0,0,1,.8.608c.192.16.256.256.224.288a.767.767,0,0,1-.064.448l-4.8,13.218a1.735,1.735,0,0,1-.192.352c-.032.032-.128.064-.352.064a3.519,3.519,0,0,1-.9-.16,7.225,7.225,0,0,1-1.088-.288l-.736-.192-.864,2.4,4.993,1.824-1.44,3.969,2.3.832,1.44-3.969,2.336.864-1.44,3.969,2.3.832,1.44-4a12.507,12.507,0,0,0,2.176.448,9.773,9.773,0,0,0,2.912-.064,6.145,6.145,0,0,0,2.624-1.056A4.843,4.843,0,0,0,80.244,74.5,5.992,5.992,0,0,0,80.276,71.583Zm-3.425-8.289a2.943,2.943,0,0,1-3.777,1.76l-2.752-.992,2.016-5.569,2.752.992A3.031,3.031,0,0,1,76.851,63.294ZM70.29,74.5,66.929,73.28l2.4-6.625,3.361,1.216a3.523,3.523,0,0,1-2.4,6.625Z" transform="translate(-48.009 -42.728)"/>
        <path id="Path_5693" data-name="Path 5693" class="cls-1" d="M57.286,26.4A24,24,0,1,0,71.624,57.159,23.982,23.982,0,0,0,57.286,26.4ZM41.6,69.449A21.8,21.8,0,1,1,69.544,56.423,21.838,21.838,0,0,1,41.6,69.449Z" transform="translate(-25.083 -24.943)"/>
      </g>
    </g>
    <g id="Group_1048" data-name="Group 1048" transform="translate(806 32.1)">
      <path id="Path_5695" data-name="Path 5695" class="cls-1" d="M64.893,70.8H31v-48H64.982v48ZM33.662,68.138H62.32V25.462H33.662Z" transform="translate(-281.237 496.1)"/>
      <rect id="Rectangle_674" data-name="Rectangle 674" class="cls-1" width="37.619" height="2.662" transform="translate(-252.1 518.9)"/>
      <rect id="Rectangle_675" data-name="Rectangle 675" class="cls-1" width="37.619" height="2.662" transform="translate(-252.1 564.238)"/>
      <rect id="Rectangle_676" data-name="Rectangle 676" class="cls-1" width="37.619" height="2.662" transform="translate(-252.1 529.015)"/>
      <rect id="Rectangle_677" data-name="Rectangle 677" class="cls-1" width="37.619" height="2.662" transform="translate(-252.1 553.325)"/>
      <path id="Path_5696" data-name="Path 5696" class="cls-1" d="M49.549,44.8s-3.105,2.662-3.46,5.146c0,.266-.089.532-.089.71A3.559,3.559,0,0,0,49.549,54.2h.089a3.559,3.559,0,0,0,3.549-3.549,1.73,1.73,0,0,0-.089-.71C52.743,47.462,49.549,44.8,49.549,44.8Z" transform="translate(-282.928 493.619)"/>
    </g>
  </g>
</svg>
