<svg xmlns="http://www.w3.org/2000/svg" viewBox="-22082 -19461 900 400">
  <defs>
    <style>
      .cls-1 {
        fill: #fff;
      }

      .cls-1, .cls-2 {
        stroke: #95989a;
      }

      .cls-2, .cls-8 {
        fill: none;
      }

      .cls-3, .cls-5 {
        fill: #95989a;
      }

      .cls-3, .cls-4 {
        font-size: 11px;
      }

      .cls-3, .cls-4, .cls-5 {
        font-family: Roboto-Regular, Roboto;
      }

      .cls-4, .cls-6 {
        fill: #2a3052;
      }

      .cls-5 {
        font-size: 12px;
      }

      .cls-7 {
        stroke: none;
      }
    </style>
  </defs>
  <g id="Group_307" data-name="Group 307" transform="translate(-22110 -22430)">
    <g id="Rectangle_487" data-name="Rectangle 487" class="cls-1" transform="translate(28 2969)">
      <rect class="cls-7" width="900" height="400"/>
      <rect class="cls-8" x="0.5" y="0.5" width="899" height="399"/>
    </g>
    <g id="Group_306" data-name="Group 306" transform="translate(0.999)">
      <line id="Line_143" data-name="Line 143" class="cls-2" x2="730.166" transform="translate(152.5 3084.5)"/>
      <line id="Line_144" data-name="Line 144" class="cls-2" x2="730.166" transform="translate(152.5 3139.5)"/>
      <line id="Line_145" data-name="Line 145" class="cls-2" x2="730.166" transform="translate(152.5 3194.5)"/>
      <line id="Line_146" data-name="Line 146" class="cls-2" x2="730.166" transform="translate(152.5 3249.5)"/>
      <line id="Line_147" data-name="Line 147" class="cls-2" x2="730.166" transform="translate(152.5 3304.5)"/>
      <text id="_16_000_000" data-name="$16,000,000" class="cls-3" transform="translate(133 3087)"><tspan x="-60.108" y="0">$16,000,000</tspan></text>
      <text id="Dividend_payments_USD_" data-name="Dividend payments (USD)" class="cls-4" transform="translate(188 3056)"><tspan x="0" y="0">Dividend payments (USD)</tspan></text>
      <text id="_1999" data-name="1999" class="cls-3" transform="translate(158 3323)"><tspan x="0" y="0">1999</tspan></text>
      <text id="_2007" data-name="2007" class="cls-3" transform="translate(486 3323)"><tspan x="0" y="0">2007</tspan></text>
      <text id="_2003" data-name="2003" class="cls-3" transform="translate(322 3323)"><tspan x="0" y="0">2003</tspan></text>
      <text id="_2011" data-name="2011" class="cls-3" transform="translate(650 3323)"><tspan x="0" y="0">2011</tspan></text>
      <text id="_2001" data-name="2001" class="cls-3" transform="translate(240 3323)"><tspan x="0" y="0">2001</tspan></text>
      <text id="_2009" data-name="2009" class="cls-3" transform="translate(568 3323)"><tspan x="0" y="0">2009</tspan></text>
      <text id="_2005" data-name="2005" class="cls-3" transform="translate(404 3323)"><tspan x="0" y="0">2005</tspan></text>
      <text id="_2013" data-name="2013" class="cls-3" transform="translate(732 3323)"><tspan x="0" y="0">2013</tspan></text>
      <text id="_2000" data-name="2000" class="cls-3" transform="translate(199 3323)"><tspan x="0" y="0">2000</tspan></text>
      <text id="_2008" data-name="2008" class="cls-3" transform="translate(527 3323)"><tspan x="0" y="0">2008</tspan></text>
      <text id="_2004" data-name="2004" class="cls-3" transform="translate(363 3323)"><tspan x="0" y="0">2004</tspan></text>
      <text id="_2012" data-name="2012" class="cls-3" transform="translate(691 3323)"><tspan x="0" y="0">2012</tspan></text>
      <text id="_2002" data-name="2002" class="cls-3" transform="translate(281 3323)"><tspan x="0" y="0">2002</tspan></text>
      <text id="_2010" data-name="2010" class="cls-3" transform="translate(609 3323)"><tspan x="0" y="0">2010</tspan></text>
      <text id="_2006" data-name="2006" class="cls-3" transform="translate(445 3323)"><tspan x="0" y="0">2006</tspan></text>
      <text id="_2014" data-name="2014" class="cls-3" transform="translate(773 3323)"><tspan x="0" y="0">2014</tspan></text>
      <text id="_2015" data-name="2015" class="cls-3" transform="translate(814 3323)"><tspan x="0" y="0">2015</tspan></text>
      <text id="_2016" data-name="2016" class="cls-3" transform="translate(855 3323)"><tspan x="0" y="0">2016</tspan></text>
      <text id="_12_000_000" data-name="$12,000,000" class="cls-3" transform="translate(133 3142)"><tspan x="-60.108" y="0">$12,000,000</tspan></text>
      <text id="_8_000_000" data-name="$8,000,000" class="cls-3" transform="translate(134 3197)"><tspan x="-53.915" y="0">$8,000,000</tspan></text>
      <text id="_4_000_000" data-name="$4,000,000" class="cls-3" transform="translate(134 3252)"><tspan x="-53.915" y="0">$4,000,000</tspan></text>
      <text id="_0" data-name="0" class="cls-5" transform="translate(141 3308)"><tspan x="-6.762" y="0">0</tspan></text>
      <rect id="Rectangle_488" data-name="Rectangle 488" class="cls-6" width="26" height="13" transform="translate(153 3047)"/>
      <rect id="Rectangle_489" data-name="Rectangle 489" class="cls-6" width="23" height="188" transform="translate(816 3116)"/>
      <rect id="Rectangle_490" data-name="Rectangle 490" class="cls-6" width="23" height="162" transform="translate(855 3142)"/>
      <rect id="Rectangle_491" data-name="Rectangle 491" class="cls-6" width="23" height="83" transform="translate(777 3221)"/>
      <rect id="Rectangle_492" data-name="Rectangle 492" class="cls-6" width="23" height="46" transform="translate(736 3258)"/>
      <rect id="Rectangle_493" data-name="Rectangle 493" class="cls-6" width="23" height="34" transform="translate(695 3270)"/>
      <rect id="Rectangle_494" data-name="Rectangle 494" class="cls-6" width="23" height="32" transform="translate(572 3272)"/>
      <rect id="Rectangle_495" data-name="Rectangle 495" class="cls-6" width="23" height="31" transform="translate(490 3273)"/>
      <rect id="Rectangle_496" data-name="Rectangle 496" class="cls-6" width="23" height="7" transform="translate(367 3297)"/>
      <rect id="Rectangle_497" data-name="Rectangle 497" class="cls-6" width="23" height="10" transform="translate(326 3294)"/>
      <rect id="Rectangle_498" data-name="Rectangle 498" class="cls-6" width="23" height="1" transform="translate(283 3303)"/>
      <rect id="Rectangle_499" data-name="Rectangle 499" class="cls-6" width="23" height="27" transform="translate(531 3277)"/>
      <rect id="Rectangle_500" data-name="Rectangle 500" class="cls-6" width="23" height="27" transform="translate(449 3277)"/>
      <rect id="Rectangle_501" data-name="Rectangle 501" class="cls-6" width="23" height="17" transform="translate(654 3287)"/>
      <rect id="Rectangle_502" data-name="Rectangle 502" class="cls-6" width="23" height="19" transform="translate(613 3285)"/>
    </g>
  </g>
</svg>
