<svg xmlns="http://www.w3.org/2000/svg" viewBox="-21117 -19461 900 400">
  <defs>
    <style>
      .cls-1 {
        fill: #fff;
      }

      .cls-1, .cls-2 {
        stroke: #95989a;
      }

      .cls-2, .cls-8 {
        fill: none;
      }

      .cls-3 {
        fill: #95989a;
      }

      .cls-3, .cls-4 {
        font-size: 11px;
        font-family: Roboto-Regular, Roboto;
      }

      .cls-4, .cls-6 {
        fill: #2a3052;
      }

      .cls-5 {
        fill: #e98024;
      }

      .cls-7 {
        stroke: none;
      }
    </style>
  </defs>
  <g id="Group_225" data-name="Group 225" transform="translate(-22110 -22430)">
    <g id="Rectangle_276" data-name="Rectangle 276" class="cls-1" transform="translate(993 2969)">
      <rect class="cls-7" width="900" height="400"/>
      <rect class="cls-8" x="0.5" y="0.5" width="899" height="399"/>
    </g>
    <g id="Group_224" data-name="Group 224" transform="translate(-0.001)">
      <line id="Line_87" data-name="Line 87" class="cls-2" x2="733.025" transform="translate(1116.5 3084.5)"/>
      <line id="Line_88" data-name="Line 88" class="cls-2" x2="733.025" transform="translate(1116.5 3157.499)"/>
      <line id="Line_89" data-name="Line 89" class="cls-2" x2="733.025" transform="translate(1116.5 3231.501)"/>
      <text id="_30_000_000" data-name="$30,000,000" class="cls-3" transform="translate(1097 3087)"><tspan x="-60.113" y="0">$30,000,000</tspan></text>
      <text id="Gross_profit_USD_" data-name="Gross profit (USD)" class="cls-4" transform="translate(1152 3056)"><tspan x="0" y="0">Gross profit (USD)</tspan></text>
      <text id="Net_profit_USD_" data-name="Net profit (USD)" class="cls-4" transform="translate(1308 3056)"><tspan x="0" y="0">Net profit (USD)</tspan></text>
      <text id="_1999" data-name="1999" class="cls-3" transform="translate(1122 3322)"><tspan x="0" y="0">1999</tspan></text>
      <text id="_2007" data-name="2007" class="cls-3" transform="translate(1450 3322)"><tspan x="0" y="0">2007</tspan></text>
      <text id="_2003" data-name="2003" class="cls-3" transform="translate(1286 3322)"><tspan x="0" y="0">2003</tspan></text>
      <text id="_2011" data-name="2011" class="cls-3" transform="translate(1614 3322)"><tspan x="0" y="0">2011</tspan></text>
      <text id="_2001" data-name="2001" class="cls-3" transform="translate(1204 3322)"><tspan x="0" y="0">2001</tspan></text>
      <text id="_2009" data-name="2009" class="cls-3" transform="translate(1532 3322)"><tspan x="0" y="0">2009</tspan></text>
      <text id="_2005" data-name="2005" class="cls-3" transform="translate(1368 3322)"><tspan x="0" y="0">2005</tspan></text>
      <text id="_2013" data-name="2013" class="cls-3" transform="translate(1696 3322)"><tspan x="0" y="0">2013</tspan></text>
      <text id="_2000" data-name="2000" class="cls-3" transform="translate(1163 3322)"><tspan x="0" y="0">2000</tspan></text>
      <text id="_2008" data-name="2008" class="cls-3" transform="translate(1491 3322)"><tspan x="0" y="0">2008</tspan></text>
      <text id="_2004" data-name="2004" class="cls-3" transform="translate(1327 3322)"><tspan x="0" y="0">2004</tspan></text>
      <text id="_2012" data-name="2012" class="cls-3" transform="translate(1655 3322)"><tspan x="0" y="0">2012</tspan></text>
      <text id="_2002" data-name="2002" class="cls-3" transform="translate(1245 3322)"><tspan x="0" y="0">2002</tspan></text>
      <text id="_2010" data-name="2010" class="cls-3" transform="translate(1573 3322)"><tspan x="0" y="0">2010</tspan></text>
      <text id="_2006" data-name="2006" class="cls-3" transform="translate(1409 3322)"><tspan x="0" y="0">2006</tspan></text>
      <text id="_2014" data-name="2014" class="cls-3" transform="translate(1737 3322)"><tspan x="0" y="0">2014</tspan></text>
      <text id="_2015" data-name="2015" class="cls-3" transform="translate(1778 3322)"><tspan x="0" y="0">2015</tspan></text>
      <text id="_2016" data-name="2016" class="cls-3" transform="translate(1819 3322)"><tspan x="0" y="0">2016</tspan></text>
      <text id="_20_000_000" data-name="$20,000,000" class="cls-3" transform="translate(1097 3161)"><tspan x="-60.113" y="0">$20,000,000</tspan></text>
      <text id="_10_000_000" data-name="$10,000,000" class="cls-3" transform="translate(1098 3235)"><tspan x="-60.113" y="0">$10,000,000</tspan></text>
      <text id="_0" data-name="0" class="cls-3" transform="translate(1098 3309)"><tspan x="-6.198" y="0">0</tspan></text>
      <path id="Path_256" data-name="Path 256" class="cls-5" d="M0,0H26V13H0Z" transform="translate(1117 3047)"/>
      <rect id="Rectangle_277" data-name="Rectangle 277" class="cls-6" width="26" height="13" transform="translate(1273 3047)"/>
      <g id="Group_197" data-name="Group 197" transform="translate(1047 3064)">
        <rect id="Rectangle_278" data-name="Rectangle 278" class="cls-6" width="10" height="2.5" transform="translate(129 240)"/>
      </g>
      <g id="Group_213" data-name="Group 213" transform="translate(1008 3064)">
        <rect id="Rectangle_309" data-name="Rectangle 309" class="cls-6" width="10" height="0.5" transform="translate(129 240)"/>
      </g>
      <g id="Group_198" data-name="Group 198" transform="translate(1130 3054)">
        <rect id="Rectangle_280" data-name="Rectangle 280" class="cls-5" width="10" height="3" transform="translate(116 247)"/>
        <rect id="Rectangle_279" data-name="Rectangle 279" class="cls-6" width="10" height="1" transform="translate(129 249)"/>
      </g>
      <g id="Group_222" data-name="Group 222" transform="translate(1089 3054)">
        <rect id="Rectangle_333" data-name="Rectangle 333" class="cls-5" width="10" height="1" transform="translate(116 249)"/>
        <rect id="Rectangle_334" data-name="Rectangle 334" class="cls-6" width="10" height="1.8" transform="translate(129 250.5)"/>
      </g>
      <g id="Group_221" data-name="Group 221" transform="translate(1007 3058.5)">
        <rect id="Rectangle_332" data-name="Rectangle 332" class="cls-6" width="10" height="0.8" transform="translate(129 246)"/>
      </g>
      <g id="Group_199" data-name="Group 199" transform="translate(1170 3054)">
        <rect id="Rectangle_281" data-name="Rectangle 281" class="cls-6" width="10" height="4" transform="translate(129 246)"/>
        <rect id="Rectangle_282" data-name="Rectangle 282" class="cls-5" width="10" height="10" transform="translate(116 240)"/>
      </g>
      <g id="Group_200" data-name="Group 200" transform="translate(1210 3054)">
        <rect id="Rectangle_283" data-name="Rectangle 283" class="cls-6" width="10" height="5" transform="translate(129 245)"/>
        <rect id="Rectangle_284" data-name="Rectangle 284" class="cls-5" width="10" height="14" transform="translate(116 236)"/>
      </g>
      <g id="Group_223" data-name="Group 223" transform="translate(1253 3054)">
        <rect id="Rectangle_335" data-name="Rectangle 335" class="cls-6" width="10" height="2" transform="translate(129 250)"/>
        <rect id="Rectangle_336" data-name="Rectangle 336" class="cls-5" width="10" height="7" transform="translate(116 243)"/>
      </g>
      <g id="Group_201" data-name="Group 201" transform="translate(1293 3046.135)">
        <rect id="Rectangle_285" data-name="Rectangle 285" class="cls-6" width="10" height="17.09" transform="translate(129 240.775)"/>
        <rect id="Rectangle_286" data-name="Rectangle 286" class="cls-5" width="10" height="32.865" transform="translate(116 225)"/>
      </g>
      <rect id="Rectangle_287" data-name="Rectangle 287" class="cls-6" width="10" height="10" transform="translate(1505 3294)"/>
      <rect id="Rectangle_288" data-name="Rectangle 288" class="cls-5" width="10" height="22" transform="translate(1492 3282)"/>
      <g id="Group_203" data-name="Group 203" transform="translate(1336 3054)">
        <rect id="Rectangle_289" data-name="Rectangle 289" class="cls-6" width="10" height="11" transform="translate(129 239)"/>
        <rect id="Rectangle_290" data-name="Rectangle 290" class="cls-5" width="10" height="21" transform="translate(116 229)"/>
      </g>
      <rect id="Rectangle_291" data-name="Rectangle 291" class="cls-6" width="10" height="19" transform="translate(1545 3285)"/>
      <rect id="Rectangle_292" data-name="Rectangle 292" class="cls-5" width="10" height="41" transform="translate(1532 3263)"/>
      <g id="Group_205" data-name="Group 205" transform="translate(1456 3054)">
        <rect id="Rectangle_293" data-name="Rectangle 293" class="cls-6" width="10" height="8" transform="translate(129 242)"/>
        <rect id="Rectangle_294" data-name="Rectangle 294" class="cls-5" width="10" height="25" transform="translate(116 225)"/>
      </g>
      <rect id="Rectangle_295" data-name="Rectangle 295" class="cls-6" width="10" height="7" transform="translate(1628 3297)"/>
      <rect id="Rectangle_296" data-name="Rectangle 296" class="cls-5" width="10" height="23" transform="translate(1615 3281)"/>
      <rect id="Rectangle_297" data-name="Rectangle 297" class="cls-6" width="10" height="21" transform="translate(1668 3283)"/>
      <rect id="Rectangle_298" data-name="Rectangle 298" class="cls-5" width="10" height="38" transform="translate(1655 3266)"/>
      <rect id="Rectangle_299" data-name="Rectangle 299" class="cls-6" width="10" height="55" transform="translate(1748 3249)"/>
      <rect id="Rectangle_300" data-name="Rectangle 300" class="cls-5" width="10" height="92" transform="translate(1735 3212)"/>
      <rect id="Rectangle_301" data-name="Rectangle 301" class="cls-6" width="10" height="76" transform="translate(1791 3228)"/>
      <rect id="Rectangle_310" data-name="Rectangle 310" class="cls-6" width="10" height="100" transform="translate(1834 3204)"/>
      <rect id="Rectangle_302" data-name="Rectangle 302" class="cls-5" width="10" height="122" transform="translate(1778 3182)"/>
      <rect id="Rectangle_311" data-name="Rectangle 311" class="cls-5" width="10" height="164" transform="translate(1821 3140)"/>
      <rect id="Rectangle_303" data-name="Rectangle 303" class="cls-6" width="10" height="41" transform="translate(1708 3263)"/>
      <rect id="Rectangle_304" data-name="Rectangle 304" class="cls-5" width="10" height="81" transform="translate(1695 3223)"/>
      <rect id="Rectangle_305" data-name="Rectangle 305" class="cls-6" width="10" height="1" transform="translate(1219 3304)"/>
      <rect id="Rectangle_306" data-name="Rectangle 306" class="cls-6" width="10" height="1" transform="translate(1379 3304)"/>
      <line id="Line_90" data-name="Line 90" class="cls-2" x2="733.025" transform="translate(1116.5 3304.5)"/>
    </g>
  </g>
</svg>
