<svg xmlns="http://www.w3.org/2000/svg" viewBox="-12091 -18877 900 400"><defs><style>.cls-1,.cls-8{fill:#fff}.cls-1,.cls-2{stroke:#95989a}.cls-10,.cls-2{fill:none}.cls-3{fill:#95989a}.cls-3,.cls-4{font-size:11px}.cls-3,.cls-4,.cls-8{font-family:Roboto-Regular,Roboto}.cls-4,.cls-6{fill:#2a3052}.cls-5{fill:#e98024}.cls-7{opacity:.6}.cls-8{font-size:9px;letter-spacing:.3em}.cls-9{stroke:none}</style></defs><g id="Group_455" data-name="Group 455" transform="translate(11756 226)"><g id="Rectangle_276" data-name="Rectangle 276" class="cls-1"><path class="cls-9" d="M0 0h900v400H0z" transform="translate(-23847 -19103)"/><path class="cls-10" d="M.5.5h899v399H.5z" transform="translate(-23847 -19103)"/></g><g id="Group_431" data-name="Group 431" transform="translate(-.001)"><path id="Line_87" data-name="Line 87" class="cls-2" transform="translate(-23723.5 -18987.5)" d="M0 0h733.025"/><path id="Line_156" data-name="Line 156" class="cls-2" transform="translate(-23723.5 -18950.5)" d="M0 0h733.025"/><path id="Line_157" data-name="Line 157" class="cls-2" transform="translate(-23723.5 -18914.5)" d="M0 0h733.025"/><path id="Line_158" data-name="Line 158" class="cls-2" transform="translate(-23723.5 -18877.5)" d="M0 0h733.025"/><path id="Line_88" data-name="Line 88" class="cls-2" transform="translate(-23723.5 -18840.5)" d="M0 0h733.025"/><path id="Line_89" data-name="Line 89" class="cls-2" transform="translate(-23723.5 -18804.5)" d="M0 0h733.025"/><text id="_30_000_000" data-name="$30,000,000" class="cls-3" transform="translate(-23743 -18985)"><tspan x="-60.113" y="0">$30,000,000</tspan></text><text id="Gross_profit_USD_" data-name="Gross profit (USD)" class="cls-4" transform="translate(-23688 -19016)"><tspan x="0" y="0">Gross profit (USD)</tspan></text><text id="Net_profit_USD_" data-name="Net profit (USD)" class="cls-4" transform="translate(-23532 -19016)"><tspan x="0" y="0">Net profit (USD)</tspan></text><text id="_1999" data-name="1999" class="cls-3" transform="translate(-23723 -18750)"><tspan x="0" y="0">1999</tspan></text><text id="_2007" data-name="2007" class="cls-3" transform="translate(-23410 -18750)"><tspan x="0" y="0">2007</tspan></text><text id="_2003" data-name="2003" class="cls-3" transform="translate(-23567 -18750)"><tspan x="0" y="0">2003</tspan></text><text id="_2011" data-name="2011" class="cls-3" transform="translate(-23254 -18750)"><tspan x="0" y="0">2011</tspan></text><text id="_2001" data-name="2001" class="cls-3" transform="translate(-23645 -18750)"><tspan x="0" y="0">2001</tspan></text><text id="_2009" data-name="2009" class="cls-3" transform="translate(-23332 -18750)"><tspan x="0" y="0">2009</tspan></text><text id="_2005" data-name="2005" class="cls-3" transform="translate(-23488 -18750)"><tspan x="0" y="0">2005</tspan></text><text id="_2013" data-name="2013" class="cls-3" transform="translate(-23175 -18750)"><tspan x="0" y="0">2013</tspan></text><text id="_2000" data-name="2000" class="cls-3" transform="translate(-23684 -18750)"><tspan x="0" y="0">2000</tspan></text><text id="_2008" data-name="2008" class="cls-3" transform="translate(-23371 -18750)"><tspan x="0" y="0">2008</tspan></text><text id="_2004" data-name="2004" class="cls-3" transform="translate(-23527 -18750)"><tspan x="0" y="0">2004</tspan></text><text id="_2012" data-name="2012" class="cls-3" transform="translate(-23215 -18750)"><tspan x="0" y="0">2012</tspan></text><text id="_2002" data-name="2002" class="cls-3" transform="translate(-23606 -18750)"><tspan x="0" y="0">2002</tspan></text><text id="_2010" data-name="2010" class="cls-3" transform="translate(-23293 -18750)"><tspan x="0" y="0">2010</tspan></text><text id="_2006" data-name="2006" class="cls-3" transform="translate(-23449 -18750)"><tspan x="0" y="0">2006</tspan></text><text id="_2014" data-name="2014" class="cls-3" transform="translate(-23136 -18750)"><tspan x="0" y="0">2014</tspan></text><text id="_2015" data-name="2015" class="cls-3" transform="translate(-23097 -18750)"><tspan x="0" y="0">2015</tspan></text><text id="_2016" data-name="2016" class="cls-3" transform="translate(-23058 -18750)"><tspan x="0" y="0">2016</tspan></text><text id="_2017" data-name="2017" class="cls-3" transform="translate(-23019 -18750)"><tspan x="0" y="0">2017</tspan></text><text id="_20_000_000" data-name="$20,000,000" class="cls-3" transform="translate(-23743 -18911)"><tspan x="-60.113" y="0">$20,000,000</tspan></text><text id="_25_000_000" data-name="$25,000,000" class="cls-3" transform="translate(-23743 -18946)"><tspan x="-60.108" y="0">$25,000,000</tspan></text><text id="_10_000_000" data-name="$10,000,000" class="cls-3" transform="translate(-23742 -18837)"><tspan x="-60.113" y="0">$10,000,000</tspan></text><text id="_15_000_000" data-name="$15,000,000" class="cls-3" transform="translate(-23742 -18874)"><tspan x="-60.108" y="0">$15,000,000</tspan></text><text id="_5_000_000" data-name="$5,000,000" class="cls-3" transform="translate(-23742 -18800)"><tspan x="-53.915" y="0">$5,000,000</tspan></text><text id="_0" data-name="0" class="cls-3" transform="translate(-23742 -18763)"><tspan x="-6.198" y="0">0</tspan></text><path id="Path_256" data-name="Path 256" class="cls-5" d="M0 0h26v13H0z" transform="translate(-23723 -19025)"/><path id="Rectangle_277" data-name="Rectangle 277" class="cls-6" transform="translate(-23567 -19025)" d="M0 0h26v13H0z"/><g id="Group_197" data-name="Group 197" transform="translate(-23799 -19008)"><path id="Rectangle_278" data-name="Rectangle 278" class="cls-6" transform="translate(129 240)" d="M0 0h10v2.5H0z"/></g><g id="Group_213" data-name="Group 213" transform="translate(-23832 -19008)"><path id="Rectangle_309" data-name="Rectangle 309" class="cls-6" transform="translate(129 240)" d="M0 0h10v.5H0z"/></g><g id="Group_198" data-name="Group 198" transform="translate(-23721 -19018)"><path id="Rectangle_280" data-name="Rectangle 280" class="cls-5" transform="translate(116 247)" d="M0 0h10v3H0z"/><path id="Rectangle_279" data-name="Rectangle 279" class="cls-6" transform="translate(129 249)" d="M0 0h10v1H0z"/></g><g id="Group_222" data-name="Group 222" transform="translate(-23760 -19018)"><path id="Rectangle_333" data-name="Rectangle 333" class="cls-5" transform="translate(116 249)" d="M0 0h10v1H0z"/><path id="Rectangle_334" data-name="Rectangle 334" class="cls-6" transform="translate(129 250.5)" d="M0 0h10v1.8H0z"/></g><g id="Group_221" data-name="Group 221" transform="translate(-23837 -19013.5)"><path id="Rectangle_332" data-name="Rectangle 332" class="cls-6" transform="translate(129 246)" d="M0 0h10v.8H0z"/></g><g id="Group_199" data-name="Group 199" transform="translate(-23682 -19018)"><path id="Rectangle_281" data-name="Rectangle 281" class="cls-6" transform="translate(129 246)" d="M0 0h10v4H0z"/><path id="Rectangle_282" data-name="Rectangle 282" class="cls-5" transform="translate(116 240)" d="M0 0h10v10H0z"/></g><g id="Group_200" data-name="Group 200" transform="translate(-23642 -19018)"><path id="Rectangle_283" data-name="Rectangle 283" class="cls-6" transform="translate(129 245)" d="M0 0h10v5H0z"/><path id="Rectangle_284" data-name="Rectangle 284" class="cls-5" transform="translate(116 236)" d="M0 0h10v14H0z"/></g><g id="Group_223" data-name="Group 223" transform="translate(-23603 -19018)"><path id="Rectangle_335" data-name="Rectangle 335" class="cls-6" transform="translate(129 250)" d="M0 0h10v2H0z"/><path id="Rectangle_336" data-name="Rectangle 336" class="cls-5" transform="translate(116 243)" d="M0 0h10v7H0z"/></g><g id="Group_201" data-name="Group 201" transform="translate(-23564 -19025.865)"><path id="Rectangle_285" data-name="Rectangle 285" class="cls-6" transform="translate(129 237.775)" d="M0 0h10v20.09H0z"/><path id="Rectangle_286" data-name="Rectangle 286" class="cls-5" transform="translate(116 218)" d="M0 0h10v39.865H0z"/></g><g id="Group_422" data-name="Group 422" transform="translate(-2)"><path id="Rectangle_287" data-name="Rectangle 287" class="cls-6" transform="translate(-23355 -18781)" d="M0 0h10v13H0z"/><path id="Rectangle_288" data-name="Rectangle 288" class="cls-5" transform="translate(-23368 -18802)" d="M0 0h10v34H0z"/></g><g id="Group_203" data-name="Group 203" transform="translate(-23525 -19018)"><path id="Rectangle_289" data-name="Rectangle 289" class="cls-6" transform="translate(129 234)" d="M0 0h10v16H0z"/><path id="Rectangle_290" data-name="Rectangle 290" class="cls-5" transform="translate(116 220)" d="M0 0h10v30H0z"/></g><g id="Group_423" data-name="Group 423" transform="translate(-2)"><path id="Rectangle_291" data-name="Rectangle 291" class="cls-6" transform="translate(-23316 -18788)" d="M0 0h10v20H0z"/><path id="Rectangle_292" data-name="Rectangle 292" class="cls-5" transform="translate(-23329 -18813)" d="M0 0h10v45H0z"/></g><g id="Group_205" data-name="Group 205" transform="translate(-23408 -19018)"><path id="Rectangle_293" data-name="Rectangle 293" class="cls-6" transform="translate(129 239)" d="M0 0h10v11H0z"/><path id="Rectangle_294" data-name="Rectangle 294" class="cls-5" transform="translate(116 212)" d="M0 0h10v38H0z"/></g><g id="Group_428" data-name="Group 428" transform="translate(-3)"><path id="Rectangle_295" data-name="Rectangle 295" class="cls-6" transform="translate(-23237 -18776)" d="M0 0h10v8H0z"/><path id="Rectangle_296" data-name="Rectangle 296" class="cls-5" transform="translate(-23250 -18799)" d="M0 0h10v31H0z"/></g><g id="Group_427" data-name="Group 427" transform="translate(-3)"><path id="Rectangle_297" data-name="Rectangle 297" class="cls-6" transform="translate(-23198 -18789)" d="M0 0h10v21H0z"/><path id="Rectangle_298" data-name="Rectangle 298" class="cls-5" transform="translate(-23211 -18813)" d="M0 0h10v45H0z"/></g><g id="Group_425" data-name="Group 425" transform="translate(-3)"><path id="Rectangle_299" data-name="Rectangle 299" class="cls-6" transform="translate(-23119 -18823)" d="M0 0h10v55H0z"/><path id="Rectangle_300" data-name="Rectangle 300" class="cls-5" transform="translate(-23132 -18860)" d="M0 0h10v92H0z"/></g><g id="Group_424" data-name="Group 424" transform="translate(-3)"><path id="Rectangle_301" data-name="Rectangle 301" class="cls-6" transform="translate(-23080 -18844)" d="M0 0h10v76H0z"/><path id="Rectangle_302" data-name="Rectangle 302" class="cls-5" transform="translate(-23093 -18890)" d="M0 0h10v122H0z"/></g><g id="Group_430" data-name="Group 430" class="cls-7"><path id="Rectangle_310" data-name="Rectangle 310" class="cls-6" transform="translate(-23006 -18919)" d="M0 0h10v151H0z"/><path id="Rectangle_311" data-name="Rectangle 311" class="cls-5" transform="translate(-23019 -18958)" d="M0 0h10v190H0z"/></g><g id="Group_429" data-name="Group 429"><path id="Rectangle_667" data-name="Rectangle 667" class="cls-6" transform="translate(-23044 -18868)" d="M0 0h10v100H0z"/><path id="Rectangle_668" data-name="Rectangle 668" class="cls-5" transform="translate(-23057 -18929)" d="M0 0h10v161H0z"/></g><g id="Group_426" data-name="Group 426" transform="translate(-3)"><path id="Rectangle_303" data-name="Rectangle 303" class="cls-6" transform="translate(-23158 -18809)" d="M0 0h10v41H0z"/><path id="Rectangle_304" data-name="Rectangle 304" class="cls-5" transform="translate(-23171 -18849)" d="M0 0h10v81H0z"/></g><path id="Rectangle_305" data-name="Rectangle 305" class="cls-6" transform="translate(-23621 -18768)" d="M0 0h10v1H0z"/><path id="Rectangle_306" data-name="Rectangle 306" class="cls-6" transform="translate(-23461 -18768)" d="M0 0h10v1H0z"/><path id="Line_90" data-name="Line 90" class="cls-2" transform="translate(-23723.5 -18767.5)" d="M0 0h733.025"/><text id="projected" class="cls-8" transform="rotate(-90 -20911.5 2096)"><tspan x="9.661" y="9">projected</tspan></text><text id="projected-2" data-name="projected" class="cls-8" transform="rotate(-90 -20918 2102.5)"><tspan x="9.661" y="9">projected</tspan></text></g></g></svg>
