<svg xmlns="http://www.w3.org/2000/svg" viewBox="-22082 -18259 900 400"><defs><style>.cls-1{fill:#fff}.cls-1,.cls-2{stroke:#95989a}.cls-2,.cls-8{fill:none}.cls-3,.cls-5{fill:#95989a}.cls-3{font-size:10px}.cls-3,.cls-4,.cls-5{font-family:Roboto-Regular,Roboto}.cls-4,.cls-6{fill:#2a3052}.cls-4,.cls-5{font-size:11px}.cls-7{stroke:none}</style></defs><g id="Group_178" data-name="Group 178" transform="translate(-2149 1643)"><g id="Rectangle_202" data-name="Rectangle 202" class="cls-1"><path class="cls-7" d="M0 0h900v400H0z" transform="translate(-19933 -19902)"/><path class="cls-8" d="M.5.5h899v399H.5z" transform="translate(-19933 -19902)"/></g><g id="Group_177" data-name="Group 177" transform="translate(-19898.313 -19861)"><path id="Line_63" data-name="Line 63" class="cls-2" transform="translate(106.717 74.5)" d="M0 0h694.322"/><path id="Line_64" data-name="Line 64" class="cls-2" transform="translate(106.717 129.5)" d="M0 0h694.322"/><path id="Line_65" data-name="Line 65" class="cls-2" transform="translate(106.717 184.5)" d="M0 0h694.322"/><path id="Line_66" data-name="Line 66" class="cls-2" transform="translate(106.717 239.5)" d="M0 0h694.322"/><path id="Line_67" data-name="Line 67" class="cls-2" transform="translate(106.717 294.5)" d="M0 0h694.322"/><text id="_160_000_000" data-name="160,000,000" class="cls-3" transform="translate(85.313 75)"><tspan x="-54.648" y="0">160,000,000</tspan></text><text id="Number_of_transactions_on_binary.com" data-name="Number of transactions on binary.com" class="cls-4" transform="translate(142 46)"><tspan x="0" y="0">Number of transactions on binary.com</tspan></text><text id="_2007" data-name="2007" class="cls-5" transform="translate(403 313)"><tspan x="0" y="0">2007</tspan></text><text id="_2003" data-name="2003" class="cls-5" transform="translate(239 313)"><tspan x="0" y="0">2003</tspan></text><text id="_2011" data-name="2011" class="cls-5" transform="translate(567 313)"><tspan x="0" y="0">2011</tspan></text><text id="_2001" data-name="2001" class="cls-5" transform="translate(157 313)"><tspan x="0" y="0">2001</tspan></text><text id="_2009" data-name="2009" class="cls-5" transform="translate(485 313)"><tspan x="0" y="0">2009</tspan></text><text id="_2005" data-name="2005" class="cls-5" transform="translate(321 313)"><tspan x="0" y="0">2005</tspan></text><text id="_2013" data-name="2013" class="cls-5" transform="translate(649 313)"><tspan x="0" y="0">2013</tspan></text><text id="_2000" data-name="2000" class="cls-5" transform="translate(116 313)"><tspan x="0" y="0">2000</tspan></text><text id="_2008" data-name="2008" class="cls-5" transform="translate(444 313)"><tspan x="0" y="0">2008</tspan></text><text id="_2004" data-name="2004" class="cls-5" transform="translate(280 313)"><tspan x="0" y="0">2004</tspan></text><text id="_2012" data-name="2012" class="cls-5" transform="translate(608 313)"><tspan x="0" y="0">2012</tspan></text><text id="_2002" data-name="2002" class="cls-5" transform="translate(198 313)"><tspan x="0" y="0">2002</tspan></text><text id="_2010" data-name="2010" class="cls-5" transform="translate(526 313)"><tspan x="0" y="0">2010</tspan></text><text id="_2006" data-name="2006" class="cls-5" transform="translate(362 313)"><tspan x="0" y="0">2006</tspan></text><text id="_2014" data-name="2014" class="cls-5" transform="translate(690 313)"><tspan x="0" y="0">2014</tspan></text><text id="_2015" data-name="2015" class="cls-5" transform="translate(731 313)"><tspan x="0" y="0">2015</tspan></text><text id="_2016" data-name="2016" class="cls-5" transform="translate(772 313)"><tspan x="0" y="0">2016</tspan></text><text id="_120_000_000" data-name="120,000,000" class="cls-3" transform="translate(85.313 130)"><tspan x="-54.648" y="0">120,000,000</tspan></text><text id="_80_000_000" data-name="80,000,000" class="cls-3" transform="translate(87.906 185)"><tspan x="-49.019" y="0">80,000,000</tspan></text><text id="_40_000_000" data-name="40,000,000" class="cls-3" transform="translate(87.906 240)"><tspan x="-49.019" y="0">40,000,000</tspan></text><text id="_0" data-name="0" class="cls-3" transform="translate(95.158 295)"><tspan x="-5.635" y="0">0</tspan></text><path id="Rectangle_203" data-name="Rectangle 203" class="cls-6" transform="translate(107 37)" d="M0 0h26v13H0z"/><path id="Rectangle_204" data-name="Rectangle 204" class="cls-6" transform="translate(735 105)" d="M0 0h23v189H0z"/><path id="Rectangle_228" data-name="Rectangle 228" class="cls-6" transform="translate(773 110)" d="M0 0h23v184H0z"/><path id="Rectangle_205" data-name="Rectangle 205" class="cls-6" transform="translate(694 218)" d="M0 0h23v76H0z"/><path id="Rectangle_206" data-name="Rectangle 206" class="cls-6" transform="translate(653 248)" d="M0 0h23v46H0z"/><path id="Rectangle_207" data-name="Rectangle 207" class="cls-6" transform="translate(612 279)" d="M0 0h23v15H0z"/><path id="Rectangle_208" data-name="Rectangle 208" class="cls-6" transform="translate(489 288)" d="M0 0h23v6H0z"/><path id="Rectangle_209" data-name="Rectangle 209" class="cls-6" transform="translate(407 292)" d="M0 0h23v2H0z"/><path id="Rectangle_210" data-name="Rectangle 210" class="cls-6" transform="translate(284 292)" d="M0 0h23v2H0z"/><path id="Path_225" data-name="Path 225" class="cls-6" d="M0 8.809h23v.465H0z" transform="translate(243 284.727)"/><path id="Rectangle_212" data-name="Rectangle 212" class="cls-6" transform="translate(322 292)" d="M0 0h23v2H0z"/><path id="Rectangle_214" data-name="Rectangle 214" class="cls-6" transform="translate(448 288)" d="M0 0h23v6H0z"/><path id="Rectangle_215" data-name="Rectangle 215" class="cls-6" transform="translate(366 290)" d="M0 0h23v4H0z"/><path id="Rectangle_216" data-name="Rectangle 216" class="cls-6" transform="translate(571 284)" d="M0 0h23v10H0z"/><path id="Rectangle_217" data-name="Rectangle 217" class="cls-6" transform="translate(530 286)" d="M0 0h23v8H0z"/></g></g></svg>