<svg xmlns="http://www.w3.org/2000/svg" viewBox="-13056 -17675 900 400"><defs><style>.cls-1,.cls-8{fill:#fff}.cls-1,.cls-2{stroke:#95989a}.cls-10,.cls-2{fill:none}.cls-3,.cls-5{fill:#95989a}.cls-3{font-size:10px}.cls-3,.cls-4,.cls-5,.cls-8{font-family:Roboto-Regular,Roboto}.cls-4,.cls-6,.cls-7{fill:#2a3052}.cls-4,.cls-5{font-size:11px}.cls-7{opacity:.6}.cls-8{font-size:12px;letter-spacing:.3em}.cls-9{stroke:none}</style></defs><g id="Group_459" data-name="Group 459" transform="translate(10717 194)"><g id="Rectangle_202" data-name="Rectangle 202" class="cls-1"><path class="cls-9" d="M0 0h900v400H0z" transform="translate(-23773 -17869)"/><path class="cls-10" d="M.5.5h899v399H.5z" transform="translate(-23773 -17869)"/></g><g id="Group_452" data-name="Group 452"><path id="Line_63" data-name="Line 63" class="cls-2" transform="translate(-23631.596 -17753.5)" d="M0 0h694.322"/><path id="Line_169" data-name="Line 169" class="cls-2" transform="translate(-23631.596 -17725.5)" d="M0 0h694.322"/><path id="Line_170" data-name="Line 170" class="cls-2" transform="translate(-23631.596 -17698.5)" d="M0 0h694.322"/><path id="Line_171" data-name="Line 171" class="cls-2" transform="translate(-23631.596 -17670.5)" d="M0 0h694.322"/><path id="Line_172" data-name="Line 172" class="cls-2" transform="translate(-23631.596 -17643.5)" d="M0 0h694.322"/><path id="Line_64" data-name="Line 64" class="cls-2" transform="translate(-23631.596 -17615.5)" d="M0 0h694.322"/><path id="Line_65" data-name="Line 65" class="cls-2" transform="translate(-23631.596 -17588.5)" d="M0 0h694.322"/><path id="Line_66" data-name="Line 66" class="cls-2" transform="translate(-23631.596 -17560.5)" d="M0 0h694.322"/><path id="Line_67" data-name="Line 67" class="cls-2" transform="translate(-23631.596 -17533.5)" d="M0 0h694.322"/><text id="_160_000_000" data-name="160,000,000" class="cls-3" transform="translate(-23653 -17750)"><tspan x="-54.648" y="0">160,000,000</tspan></text><text id="Number_of_transactions_on_binary.com" data-name="Number of transactions on binary.com" class="cls-4" transform="translate(-23596.313 -17782)"><tspan x="0" y="0">Number of transactions on binary.com</tspan></text><text id="_2007" data-name="2007" class="cls-5" transform="translate(-23352 -17515)"><tspan x="0" y="0">2007</tspan></text><text id="_2003" data-name="2003" class="cls-5" transform="translate(-23507 -17515)"><tspan x="0" y="0">2003</tspan></text><text id="_2011" data-name="2011" class="cls-5" transform="translate(-23198 -17515)"><tspan x="0" y="0">2011</tspan></text><text id="_2001" data-name="2001" class="cls-5" transform="translate(-23584 -17515)"><tspan x="0" y="0">2001</tspan></text><text id="_2009" data-name="2009" class="cls-5" transform="translate(-23275 -17515)"><tspan x="0" y="0">2009</tspan></text><text id="_2005" data-name="2005" class="cls-5" transform="translate(-23429 -17515)"><tspan x="0" y="0">2005</tspan></text><text id="_2013" data-name="2013" class="cls-5" transform="translate(-23121 -17515)"><tspan x="0" y="0">2013</tspan></text><text id="_2000" data-name="2000" class="cls-5" transform="translate(-23622 -17515)"><tspan x="0" y="0">2000</tspan></text><text id="_2008" data-name="2008" class="cls-5" transform="translate(-23314 -17515)"><tspan x="0" y="0">2008</tspan></text><text id="_2004" data-name="2004" class="cls-5" transform="translate(-23468 -17515)"><tspan x="0" y="0">2004</tspan></text><text id="_2012" data-name="2012" class="cls-5" transform="translate(-23159 -17515)"><tspan x="0" y="0">2012</tspan></text><text id="_2002" data-name="2002" class="cls-5" transform="translate(-23545 -17515)"><tspan x="0" y="0">2002</tspan></text><text id="_2010" data-name="2010" class="cls-5" transform="translate(-23236 -17515)"><tspan x="0" y="0">2010</tspan></text><text id="_2006" data-name="2006" class="cls-5" transform="translate(-23391 -17515)"><tspan x="0" y="0">2006</tspan></text><text id="_2014" data-name="2014" class="cls-5" transform="translate(-23082 -17515)"><tspan x="0" y="0">2014</tspan></text><text id="_2015" data-name="2015" class="cls-5" transform="translate(-23043 -17515)"><tspan x="0" y="0">2015</tspan></text><text id="_2017" data-name="2017" class="cls-5" transform="translate(-22966 -17515)"><tspan x="0" y="0">2017</tspan></text><text id="_2016" data-name="2016" class="cls-5" transform="translate(-23005 -17515)"><tspan x="0" y="0">2016</tspan></text><text id="_120_000_000" data-name="120,000,000" class="cls-3" transform="translate(-23653 -17695)"><tspan x="-54.648" y="0">120,000,000</tspan></text><text id="_140_000_000" data-name="140,000,000" class="cls-3" transform="translate(-23653 -17722)"><tspan x="-54.648" y="0">140,000,000</tspan></text><text id="_80_000_000" data-name="80,000,000" class="cls-3" transform="translate(-23650.406 -17640)"><tspan x="-49.019" y="0">80,000,000</tspan></text><text id="_100_000_000" data-name="100,000,000" class="cls-3" transform="translate(-23650.406 -17667)"><tspan x="-54.653" y="0">100,000,000</tspan></text><text id="_40_000_000" data-name="40,000,000" class="cls-3" transform="translate(-23650.406 -17585)"><tspan x="-49.019" y="0">40,000,000</tspan></text><text id="_60_000_000" data-name="60,000,000" class="cls-3" transform="translate(-23650.406 -17612)"><tspan x="-49.019" y="0">60,000,000</tspan></text><text id="_20_000_000" data-name="20,000,000" class="cls-3" transform="translate(-23650.406 -17557)"><tspan x="-49.019" y="0">20,000,000</tspan></text><text id="_0" data-name="0" class="cls-3" transform="translate(-23643.154 -17533)"><tspan x="-5.635" y="0">0</tspan></text><path id="Rectangle_203" data-name="Rectangle 203" class="cls-6" transform="translate(-23631.313 -17791)" d="M0 0h26v13H0z"/><path id="Rectangle_204" data-name="Rectangle 204" class="cls-6" transform="translate(-23004 -17718)" d="M0 0h23v184H0z"/><path id="Rectangle_228" data-name="Rectangle 228" class="cls-7" transform="translate(-22965.313 -17723)" d="M0 0h23v189H0z"/><path id="Rectangle_205" data-name="Rectangle 205" class="cls-6" transform="translate(-23042.313 -17723)" d="M0 0h23v189H0z"/><path id="Rectangle_680" data-name="Rectangle 680" class="cls-6" transform="translate(-23081.313 -17610)" d="M0 0h23v76H0z"/><path id="Rectangle_206" data-name="Rectangle 206" class="cls-6" transform="translate(-23120 -17580)" d="M0 0h23v46H0z"/><path id="Rectangle_207" data-name="Rectangle 207" class="cls-6" transform="translate(-23158.313 -17554)" d="M0 0h23v20H0z"/><path id="Rectangle_210" data-name="Rectangle 210" class="cls-6" transform="translate(-23467.313 -17537)" d="M0 0h23v3H0z"/><path id="Rectangle_677" data-name="Rectangle 677" class="cls-6" transform="translate(-23506 -17536)" d="M0 0h23v2H0z"/><path id="Path_540" data-name="Path 540" class="cls-6" d="M0 8.613h23v.66H0z" transform="translate(-23621.313 -17543.273)"/><path id="Path_541" data-name="Path 541" class="cls-6" d="M0 8.613h23v.66H0z" transform="translate(-23583 -17543.273)"/><path id="Path_542" data-name="Path 542" class="cls-6" d="M0 8.613h23v.66H0z" transform="translate(-23544 -17543.273)"/><path id="Rectangle_212" data-name="Rectangle 212" class="cls-6" transform="translate(-23428 -17538)" d="M0 0h23v4H0z"/><path id="Rectangle_678" data-name="Rectangle 678" class="cls-6" transform="translate(-23351 -17538)" d="M0 0h23v4H0z"/><path id="Rectangle_214" data-name="Rectangle 214" class="cls-6" transform="translate(-23313 -17541)" d="M0 0h23v7H0z"/><path id="Rectangle_679" data-name="Rectangle 679" class="cls-6" transform="translate(-23274 -17542)" d="M0 0h23v8H0z"/><path id="Rectangle_215" data-name="Rectangle 215" class="cls-6" transform="translate(-23390.313 -17539)" d="M0 0h23v5H0z"/><path id="Rectangle_216" data-name="Rectangle 216" class="cls-6" transform="translate(-23197.313 -17548)" d="M0 0h23v14H0z"/><path id="Rectangle_217" data-name="Rectangle 217" class="cls-6" transform="translate(-23235.313 -17544)" d="M0 0h23v10H0z"/><text id="projected" class="cls-8" transform="rotate(-90 -20273.5 2689)"><tspan x="18.714" y="13">projected</tspan></text></g></g></svg>