<svg xmlns="http://www.w3.org/2000/svg" viewBox="-22082 -18849 900 400"><defs><style>.cls-1{fill:#fff}.cls-1,.cls-2{stroke:#95989a}.cls-2,.cls-8{fill:none}.cls-3,.cls-5{fill:#95989a}.cls-3,.cls-4{font-size:11px}.cls-3,.cls-4,.cls-5{font-family:Roboto-Regular,Roboto}.cls-4,.cls-6{fill:#2a3052}.cls-5{font-size:12px}.cls-7{stroke:none}</style></defs><g id="Group_215" data-name="Group 215" transform="translate(-2149 1053)"><g id="Rectangle_312" data-name="Rectangle 312" class="cls-1"><path class="cls-7" d="M0 0h900v400H0z" transform="translate(-19933 -19902)"/><path class="cls-8" d="M.5.5h899v399H.5z" transform="translate(-19933 -19902)"/></g><g id="Group_214" data-name="Group 214" transform="translate(-19871 -19861)"><path id="Line_91" data-name="Line 91" class="cls-2" transform="translate(69.5 74.5)" d="M0 0h731.949"/><path id="Line_92" data-name="Line 92" class="cls-2" transform="translate(69.5 129.5)" d="M0 0h731.949"/><path id="Line_93" data-name="Line 93" class="cls-2" transform="translate(69.5 184.5)" d="M0 0h731.949"/><path id="Line_94" data-name="Line 94" class="cls-2" transform="translate(69.5 239.5)" d="M0 0h731.949"/><path id="Line_95" data-name="Line 95" class="cls-2" transform="translate(69.5 294.5)" d="M0 0h731.949"/><text id="_1_000_000_000" data-name="$1,000,000,000" class="cls-3" transform="translate(50 77)"><tspan x="-74.68" y="0">$1,000,000,000</tspan></text><text id="Turnover_USD_" data-name="Turnover (USD)" class="cls-4" transform="translate(105 46)"><tspan x="0" y="0">Turnover (USD)</tspan></text><text id="_2007" data-name="2007" class="cls-3" transform="translate(403 313)"><tspan x="0" y="0">2007</tspan></text><text id="_2003" data-name="2003" class="cls-3" transform="translate(239 313)"><tspan x="0" y="0">2003</tspan></text><text id="_2011" data-name="2011" class="cls-3" transform="translate(567 313)"><tspan x="0" y="0">2011</tspan></text><text id="_2001" data-name="2001" class="cls-3" transform="translate(157 313)"><tspan x="0" y="0">2001</tspan></text><text id="_2009" data-name="2009" class="cls-3" transform="translate(485 313)"><tspan x="0" y="0">2009</tspan></text><text id="_2005" data-name="2005" class="cls-3" transform="translate(321 313)"><tspan x="0" y="0">2005</tspan></text><text id="_2013" data-name="2013" class="cls-3" transform="translate(649 313)"><tspan x="0" y="0">2013</tspan></text><text id="_2000" data-name="2000" class="cls-3" transform="translate(116 313)"><tspan x="0" y="0">2000</tspan></text><text id="_1999" data-name="1999" class="cls-3" transform="translate(75 313)"><tspan x="0" y="0">1999</tspan></text><text id="_2008" data-name="2008" class="cls-3" transform="translate(444 313)"><tspan x="0" y="0">2008</tspan></text><text id="_2004" data-name="2004" class="cls-3" transform="translate(280 313)"><tspan x="0" y="0">2004</tspan></text><text id="_2012" data-name="2012" class="cls-3" transform="translate(608 313)"><tspan x="0" y="0">2012</tspan></text><text id="_2002" data-name="2002" class="cls-3" transform="translate(198 313)"><tspan x="0" y="0">2002</tspan></text><text id="_2010" data-name="2010" class="cls-3" transform="translate(526 313)"><tspan x="0" y="0">2010</tspan></text><text id="_2006" data-name="2006" class="cls-3" transform="translate(362 313)"><tspan x="0" y="0">2006</tspan></text><text id="_2014" data-name="2014" class="cls-3" transform="translate(690 313)"><tspan x="0" y="0">2014</tspan></text><text id="_2015" data-name="2015" class="cls-3" transform="translate(731 313)"><tspan x="0" y="0">2015</tspan></text><text id="_2016" data-name="2016" class="cls-3" transform="translate(772 313)"><tspan x="0" y="0">2016</tspan></text><text id="_750_000_000" data-name="$750,000,000" class="cls-3" transform="translate(50 132)"><tspan x="-66.306" y="0">$750,000,000</tspan></text><text id="_500_000_000" data-name="$500,000,000" class="cls-3" transform="translate(51 187)"><tspan x="-66.312" y="0">$500,000,000</tspan></text><text id="_250_000_000" data-name="$250,000,000" class="cls-3" transform="translate(51 242)"><tspan x="-66.306" y="0">$250,000,000</tspan></text><text id="_0" data-name="0" class="cls-5" transform="translate(58 298)"><tspan x="-6.762" y="0">0</tspan></text><path id="Rectangle_313" data-name="Rectangle 313" class="cls-6" transform="translate(70 37)" d="M0 0h26v13H0z"/><path id="Rectangle_314" data-name="Rectangle 314" class="cls-6" transform="translate(732 127)" d="M0 0h23v167H0z"/><path id="Rectangle_329" data-name="Rectangle 329" class="cls-6" transform="translate(773 108)" d="M0 0h23v186H0z"/><path id="Rectangle_315" data-name="Rectangle 315" class="cls-6" transform="translate(691 199)" d="M0 0h23v95H0z"/><path id="Rectangle_316" data-name="Rectangle 316" class="cls-6" transform="translate(650 196)" d="M0 0h23v98H0z"/><path id="Rectangle_317" data-name="Rectangle 317" class="cls-6" transform="translate(609 252)" d="M0 0h23v42H0z"/><path id="Rectangle_318" data-name="Rectangle 318" class="cls-6" transform="translate(487 263)" d="M0 0h23v31H0z"/><path id="Rectangle_319" data-name="Rectangle 319" class="cls-6" transform="translate(405 271)" d="M0 0h23v23H0z"/><path id="Rectangle_320" data-name="Rectangle 320" class="cls-6" transform="translate(284 275)" d="M0 0h23v19H0z"/><path id="Rectangle_321" data-name="Rectangle 321" class="cls-6" transform="translate(243 284)" d="M0 0h23v10H0z"/><path id="Rectangle_322" data-name="Rectangle 322" class="cls-6" transform="translate(322 278)" d="M0 0h23v16H0z"/><path id="Rectangle_323" data-name="Rectangle 323" class="cls-6" transform="translate(200 292)" d="M0 0h23v2H0z"/><path id="Rectangle_328" data-name="Rectangle 328" class="cls-6" transform="translate(158 293)" d="M0 0h23v1H0z"/><path id="Rectangle_324" data-name="Rectangle 324" class="cls-6" transform="translate(446 260)" d="M0 0h23v34H0z"/><path id="Rectangle_325" data-name="Rectangle 325" class="cls-6" transform="translate(363 267)" d="M0 0h23v27H0z"/><path id="Rectangle_326" data-name="Rectangle 326" class="cls-6" transform="translate(566 258)" d="M0 0h23v36H0z"/><path id="Rectangle_327" data-name="Rectangle 327" class="cls-6" transform="translate(528 271)" d="M0 0h23v23H0z"/></g></g></svg>