<svg xmlns="http://www.w3.org/2000/svg" viewBox="-13056 -18265 900 400"><defs><style>.cls-1,.cls-8{fill:#fff}.cls-1,.cls-2{stroke:#95989a}.cls-10,.cls-2{fill:none}.cls-3,.cls-5{fill:#95989a}.cls-3,.cls-4{font-size:11px}.cls-3,.cls-4,.cls-5,.cls-8{font-family:Roboto-Regular,Roboto}.cls-4,.cls-6,.cls-7{fill:#2a3052}.cls-5,.cls-8{font-size:12px}.cls-7{opacity:.6}.cls-8{letter-spacing:.3em}.cls-9{stroke:none}</style></defs><g id="Group_457" data-name="Group 457" transform="translate(10643 189)"><g id="Rectangle_312" data-name="Rectangle 312" class="cls-1"><path class="cls-9" d="M0 0h900v400H0z" transform="translate(-23699 -18454)"/><path class="cls-10" d="M.5.5h899v399H.5z" transform="translate(-23699 -18454)"/></g><g id="Group_434" data-name="Group 434"><path id="Line_91" data-name="Line 91" class="cls-2" transform="translate(-23567.5 -18338.5)" d="M0 0h731.949"/><path id="Line_164" data-name="Line 164" class="cls-2" transform="translate(-23567.5 -18316.5)" d="M0 0h731.949"/><path id="Line_159" data-name="Line 159" class="cls-2" transform="translate(-23567.5 -18294.5)" d="M0 0h731.949"/><path id="Line_160" data-name="Line 160" class="cls-2" transform="translate(-23567.5 -18272.5)" d="M0 0h731.949"/><path id="Line_161" data-name="Line 161" class="cls-2" transform="translate(-23567.5 -18250.5)" d="M0 0h731.949"/><path id="Line_162" data-name="Line 162" class="cls-2" transform="translate(-23567.5 -18228.5)" d="M0 0h731.949"/><path id="Line_163" data-name="Line 163" class="cls-2" transform="translate(-23567.5 -18206.5)" d="M0 0h731.949"/><path id="Line_92" data-name="Line 92" class="cls-2" transform="translate(-23567.5 -18184.5)" d="M0 0h731.949"/><path id="Line_93" data-name="Line 93" class="cls-2" transform="translate(-23567.5 -18162.5)" d="M0 0h731.949"/><path id="Line_94" data-name="Line 94" class="cls-2" transform="translate(-23567.5 -18140.5)" d="M0 0h731.949"/><path id="Line_95" data-name="Line 95" class="cls-2" transform="translate(-23567.5 -18118.5)" d="M0 0h731.949"/><text id="_1_000_000_000" data-name="$1,000,000,000" class="cls-3" transform="translate(-23587 -18336)"><tspan x="-74.68" y="0">$1,000,000,000</tspan></text><text id="Turnover_USD_" data-name="Turnover (USD)" class="cls-4" transform="translate(-23532 -18367)"><tspan x="0" y="0">Turnover (USD)</tspan></text><text id="_2007" data-name="2007" class="cls-3" transform="translate(-23252 -18100)"><tspan x="0" y="0">2007</tspan></text><text id="_2003" data-name="2003" class="cls-3" transform="translate(-23407 -18100)"><tspan x="0" y="0">2003</tspan></text><text id="_2011" data-name="2011" class="cls-3" transform="translate(-23097 -18100)"><tspan x="0" y="0">2011</tspan></text><text id="_2001" data-name="2001" class="cls-3" transform="translate(-23485 -18100)"><tspan x="0" y="0">2001</tspan></text><text id="_2009" data-name="2009" class="cls-3" transform="translate(-23175 -18100)"><tspan x="0" y="0">2009</tspan></text><text id="_2005" data-name="2005" class="cls-3" transform="translate(-23330 -18100)"><tspan x="0" y="0">2005</tspan></text><text id="_2013" data-name="2013" class="cls-3" transform="translate(-23020 -18100)"><tspan x="0" y="0">2013</tspan></text><text id="_2000" data-name="2000" class="cls-3" transform="translate(-23523 -18100)"><tspan x="0" y="0">2000</tspan></text><text id="_1999" data-name="1999" class="cls-3" transform="translate(-23562 -18100)"><tspan x="0" y="0">1999</tspan></text><text id="_2008" data-name="2008" class="cls-3" transform="translate(-23213 -18100)"><tspan x="0" y="0">2008</tspan></text><text id="_2004" data-name="2004" class="cls-3" transform="translate(-23368 -18100)"><tspan x="0" y="0">2004</tspan></text><text id="_2012" data-name="2012" class="cls-3" transform="translate(-23059 -18100)"><tspan x="0" y="0">2012</tspan></text><text id="_2002" data-name="2002" class="cls-3" transform="translate(-23446 -18100)"><tspan x="0" y="0">2002</tspan></text><text id="_2010" data-name="2010" class="cls-3" transform="translate(-23136 -18100)"><tspan x="0" y="0">2010</tspan></text><text id="_2006" data-name="2006" class="cls-3" transform="translate(-23291 -18100)"><tspan x="0" y="0">2006</tspan></text><text id="_2014" data-name="2014" class="cls-3" transform="translate(-22981 -18100)"><tspan x="0" y="0">2014</tspan></text><text id="_2015" data-name="2015" class="cls-3" transform="translate(-22942 -18100)"><tspan x="0" y="0">2015</tspan></text><text id="_2017" data-name="2017" class="cls-3" transform="translate(-22865 -18100)"><tspan x="0" y="0">2017</tspan></text><text id="_2016" data-name="2016" class="cls-3" transform="translate(-22904 -18100)"><tspan x="0" y="0">2016</tspan></text><text id="_700_000_000" data-name="$700,000,000" class="cls-3" transform="translate(-23587 -18268)"><tspan x="-66.312" y="0">$700,000,000</tspan></text><text id="_800_000_000" data-name="$800,000,000" class="cls-3" transform="translate(-23587 -18290)"><tspan x="-66.312" y="0">$800,000,000</tspan></text><text id="_900_000_000" data-name="$900,000,000" class="cls-3" transform="translate(-23587 -18312)"><tspan x="-66.312" y="0">$900,000,000</tspan></text><text id="_500_000_000" data-name="$500,000,000" class="cls-3" transform="translate(-23586 -18224)"><tspan x="-66.312" y="0">$500,000,000</tspan></text><text id="_600_000_000" data-name="$600,000,000" class="cls-3" transform="translate(-23586 -18246)"><tspan x="-66.312" y="0">$600,000,000</tspan></text><text id="_300_000_000" data-name="$300,000,000" class="cls-3" transform="translate(-23586 -18180)"><tspan x="-66.312" y="0">$300,000,000</tspan></text><text id="_400_000_000" data-name="$400,000,000" class="cls-3" transform="translate(-23586 -18202)"><tspan x="-66.312" y="0">$400,000,000</tspan></text><text id="_200_000_000" data-name="$200,000,000" class="cls-3" transform="translate(-23586 -18158)"><tspan x="-66.312" y="0">$200,000,000</tspan></text><text id="_100_000_000" data-name="$100,000,000" class="cls-3" transform="translate(-23586 -18136)"><tspan x="-66.312" y="0">$100,000,000</tspan></text><text id="_0" data-name="0" class="cls-5" transform="translate(-23579 -18115)"><tspan x="-6.762" y="0">0</tspan></text><path id="Rectangle_313" data-name="Rectangle 313" class="cls-6" transform="translate(-23567 -18376)" d="M0 0h26v13H0z"/><path id="Rectangle_314" data-name="Rectangle 314" class="cls-6" transform="translate(-22941 -18286)" d="M0 0h23v167H0z"/><path id="Rectangle_329" data-name="Rectangle 329" class="cls-7" transform="translate(-22864 -18320)" d="M0 0h23v201H0z"/><path id="Rectangle_671" data-name="Rectangle 671" class="cls-6" transform="translate(-22903 -18305)" d="M0 0h23v186H0z"/><path id="Rectangle_315" data-name="Rectangle 315" class="cls-6" transform="translate(-22980 -18217)" d="M0 0h23v98H0z"/><path id="Rectangle_316" data-name="Rectangle 316" class="cls-6" transform="translate(-23019 -18220)" d="M0 0h23v101H0z"/><path id="Rectangle_317" data-name="Rectangle 317" class="cls-6" transform="translate(-23058 -18163)" d="M0 0h23v44H0z"/><path id="Rectangle_318" data-name="Rectangle 318" class="cls-6" transform="translate(-23174 -18150)" d="M0 0h23v31H0z"/><path id="Rectangle_319" data-name="Rectangle 319" class="cls-6" transform="translate(-23251 -18138)" d="M0 0h23v19H0z"/><path id="Rectangle_320" data-name="Rectangle 320" class="cls-6" transform="translate(-23367 -18135)" d="M0 0h23v16H0z"/><path id="Rectangle_321" data-name="Rectangle 321" class="cls-6" transform="translate(-23406 -18130)" d="M0 0h23v11H0z"/><path id="Rectangle_322" data-name="Rectangle 322" class="cls-6" transform="translate(-23329 -18133)" d="M0 0h23v14H0z"/><path id="Path_539" data-name="Path 539" class="cls-6" d="M0-2.373h23V2H0z" transform="translate(-23445 -18121)"/><path id="Rectangle_328" data-name="Rectangle 328" class="cls-6" transform="translate(-23484 -18120)" d="M0 0h23v1H0z"/><path id="Rectangle_670" data-name="Rectangle 670" class="cls-6" transform="translate(-23522 -18120)" d="M0 0h23v1H0z"/><path id="Rectangle_669" data-name="Rectangle 669" class="cls-6" transform="translate(-23561 -18120)" d="M0 0h23v1H0z"/><path id="Rectangle_324" data-name="Rectangle 324" class="cls-6" transform="translate(-23212 -18153)" d="M0 0h23v34H0z"/><path id="Rectangle_325" data-name="Rectangle 325" class="cls-6" transform="translate(-23290 -18141)" d="M0 0h23v22H0z"/><path id="Rectangle_326" data-name="Rectangle 326" class="cls-6" transform="translate(-23096 -18155)" d="M0 0h23v36H0z"/><path id="Rectangle_327" data-name="Rectangle 327" class="cls-6" transform="translate(-23135 -18138)" d="M0 0h23v19H0z"/><text id="projected" class="cls-8" transform="rotate(-90 -20523 2338.5)"><tspan x="18.714" y="13">projected</tspan></text></g></g></svg>