<svg xmlns="http://www.w3.org/2000/svg" viewBox="0 0 50 50"><path d="M25 0C14.628-.214 4.55 6.81 1.345 16.714-2.142 26.696 1.25 38.78 9.88 45.057c9.088 6.888 22.89 6.553 31.488-1.008 7.484-6.342 10.51-17.24 7.53-26.563-2.53-8.44-9.84-15.22-18.506-16.925A25.843 25.843 0 0 0 25 0zm6.5 25h-4.3v15h-6.3V25h-3v-5.4h3c.004-2.988-.415-6.707 2.323-8.713 2.476-1.77 5.636-1.025 8.46-1.17.738.975.13 2.57.317 3.82.73 2.907-3.606.162-4.5 2.125-.47 1.858-.75 4.932 2.063 3.956 1.77-.322 3.087.138 2.316 2.13-.106 1.086-.205 2.174-.38 3.252z" fill="#dcdcdc"/></svg>