<?xml version="1.0" encoding="utf-8"?>
<!-- Generator: Adobe Illustrator 19.1.0, SVG Export Plug-In . SVG Version: 6.00 Build 0)  -->
<svg version="1.1" id="Layer_1" xmlns="http://www.w3.org/2000/svg" xmlns:xlink="http://www.w3.org/1999/xlink" x="0px" y="0px"
	 viewBox="0 0 82 82" style="enable-background:new 0 0 82 82;" xml:space="preserve">
<style type="text/css">
	.st0{fill:#FFFFFF;}
</style>
<g>
	<path class="st0" d="M73,28.5c-0.4-0.5-1-0.7-1.6-0.7h-5.1c-1.2,0-2.2,1-2.2,2.2v0.2h-4.3c-0.1,0-0.1,0-0.2,0l-7.5-3.5
		c-0.3-0.1-0.6-0.2-0.9-0.2h-4.8c-0.2-0.3-0.5-0.6-1.1-0.9c-0.2-0.1-0.4-0.2-0.7-0.2l-7-1.1c0,0,0,0-0.1,0c-1.6-0.5-3.2-0.1-3.7,0
		c-0.1,0-0.1,0-0.2,0.1L18,30.6v-0.7c0-1.2-1-2.2-2.2-2.2h-5.1c-0.6,0-1.2,0.3-1.6,0.7c-0.4,0.5-0.6,1.1-0.5,1.7L11,49.4
		c0.1,1.1,1.1,1.9,2.2,1.9h2.7c1.2,0,2.2-1,2.2-2.2V48h2.3c-0.1,0.6,0,1.2,0.2,1.8c0.1,0.4,0.4,0.8,0.8,1c0.7,0.5,1.9,1.3,3.1,1.6
		c0,0,0.1,0.1,0.1,0.1c0.8,0.6,2.3,1.6,3.7,1.8c0.1,0,0.4,0.1,0.7,0.1c0.2,0,0.5,0,0.8-0.1c0.6,0.6,1.5,1.3,2.3,1.6
		c0.2,0.1,0.5,0.2,1,0.2c0.4,0,0.9-0.1,1.5-0.3c0.4-0.1,0.7-0.3,0.9-0.6l1.1,1.4c0,0,0,0,0,0c0.2,0.3,0.5,0.5,0.9,0.6
		c1.6,0.6,3.4,0.4,4.8-0.7l0.3-0.2l1,0.9c0.1,0.2,0.3,0.3,0.5,0.4c0.8,0.3,1.5,0.5,2.1,0.5c1.7,0,2.9-1.1,3.4-1.7
		c0.1-0.1,0.2-0.2,0.3-0.2c3.2,0.1,4.5-0.8,5.1-1.6c0.1-0.1,0.2-0.1,0.3-0.1c1.5,0.1,2.7-0.3,3.5-1.2c1-1,1.2-2.3,1.2-3.1
		c0.2,0,0.4-0.1,0.5-0.1L64,49v0.1c0,1.2,1,2.2,2.2,2.2h2.7c1.1,0,2-0.8,2.2-1.9l2.4-19.2C73.6,29.6,73.4,29,73,28.5z M16.2,49.1
		c0,0.2-0.2,0.4-0.4,0.4h-2.7c-0.2,0-0.4-0.1-0.4-0.3L10.3,30c0-0.2,0.1-0.3,0.1-0.3c0,0,0.1-0.1,0.3-0.1h5.1c0.2,0,0.4,0.2,0.4,0.4
		V49.1z M23.4,50.1c-0.4-0.2-0.7-0.5-1.1-0.7c-0.1,0-0.1-0.1-0.1-0.2c-0.3-0.8-0.1-1.4,0.5-2c0.1-0.1,0.3-0.1,0.4-0.1
		c0.6,0.3,0.9,0.4,1.3,0.6C23.8,48.5,23.4,49.3,23.4,50.1z M28.3,52.6C28.3,52.6,28.3,52.6,28.3,52.6c-0.7-0.1-1.8-0.7-2.8-1.4
		c-0.1,0-0.1-0.1-0.1-0.2c-0.3-0.9-0.1-1.6,0.6-2.3c0.2-0.2,0.5-0.3,0.6-0.4c1,0.4,1.8,0.9,2.4,1.5C28.4,50.6,28.1,51.6,28.3,52.6z
		 M34.1,54c0,0.1-0.1,0.2-0.2,0.2c-0.7,0.2-1,0.2-1.1,0.2c0,0,0,0-0.1,0c-0.6-0.3-1.6-1-2.5-1.9c-0.1-0.1-0.1-0.1-0.1-0.2
		c-0.1-0.8,0.1-1.4,0.8-1.9c0,0,0,0,0,0c0.1,0,0.3,0,0.5,0.1c1,0.7,2.2,2.6,2.6,3.2C34.1,53.8,34.1,54,34.1,54z M57.4,52.2
		c-0.5,0.5-1.2,0.7-2.1,0.6c-0.1,0-0.2,0-0.4,0l-5.7-7.7C49,44.8,48.4,44.7,48,45c-0.4,0.3-0.5,0.9-0.2,1.3l5.5,7.5
		c-0.2,0.3-1.1,0.9-3.5,0.8c-0.1,0-0.2,0-0.2,0l-5.7-7.5c-0.3-0.4-0.9-0.5-1.3-0.2c-0.4,0.3-0.5,0.9-0.2,1.3l5.5,7.2
		c-0.9,1-1.9,1.2-3.2,0.7c0,0,0,0-0.1,0l-1.1-0.9c0,0,0,0,0,0c0,0-0.1-0.1-0.1-0.1l-4.5-5.6c-0.3-0.4-0.9-0.5-1.3-0.1
		c-0.4,0.3-0.5,0.9-0.1,1.3l3.7,4.6l-0.2,0.1c-1,0.7-2.1,0.9-3.2,0.5c-0.1,0-0.1-0.1-0.2-0.1l-2.2-2.7c0-0.1-0.1-0.1-0.1-0.2
		c-0.8-1.2-2-2.9-3.1-3.7c-0.5-0.4-1.4-0.6-2.1-0.3c-0.9-0.8-1.9-1.5-3.2-2c-0.4-0.2-0.8-0.2-1.2,0c-0.8-0.5-1.2-0.7-2.2-1.1
		c-0.8-0.4-1.8-0.2-2.4,0.4c-0.1,0.1-0.2,0.2-0.3,0.3H18V32.5l16.4-6.7c0,0,0,0,0,0c0.2-0.1,1.4-0.4,2.6,0c0.1,0,0.2,0.1,0.3,0.1
		l2.8,0.4h-1.7c-0.5,0-1,0.2-1.4,0.5l-7.8,6.6c-0.6,0.5-0.9,1.3-0.7,2.1c0.2,0.9,1,2.4,4.3,1.9c0.1,0,0.2,0,0.3-0.1l7.1-2
		c0,0,0,0,0.1,0c0.6-0.1,3.6-0.4,6,1.3c0,0,0,0,0.1,0.1L57,48.1c0,0,0,0,0,0c0.1,0.1,0.4,0.6,0.7,1c0.1,0.3,0.3,0.5,0.3,0.8
		c0,0,0,0,0,0.1C58.1,50.4,58.1,51.5,57.4,52.2z M64,46.8c0,0.2-0.1,0.3-0.3,0.4l-4,1.4c-0.2,0.1-0.4,0-0.5-0.2c0,0,0-0.1-0.1-0.1
		c-0.4-0.8-0.8-1.3-0.9-1.3c0,0,0,0,0,0l-0.1-0.1c0,0,0,0,0,0L47.5,35.4c0,0,0,0,0,0l-0.1-0.1l0,0c-0.1-0.1-0.2-0.1-0.3-0.2
		c-2.9-2-6.5-1.7-7.2-1.6c-0.1,0-0.2,0-0.3,0.1l-7.1,2c0,0,0,0-0.1,0c-0.6,0.1-2.1,0.2-2.3-0.5c0-0.1,0-0.3,0.1-0.3l7.8-6.6
		c0.1-0.1,0.2-0.1,0.2-0.1h12.7c0.1,0,0.1,0,0.2,0l7.5,3.5c0.3,0.1,0.6,0.2,0.9,0.2H64V46.8z M69.3,49.1c0,0.2-0.2,0.3-0.4,0.3h-2.7
		c-0.2,0-0.4-0.2-0.4-0.4V29.9c0-0.2,0.2-0.4,0.4-0.4h5.1c0.2,0,0.2,0.1,0.3,0.1c0,0,0.1,0.2,0.1,0.3L69.3,49.1z"/>
	<path class="st0" d="M41,0.5C18.7,0.5,0.5,18.7,0.5,41S18.7,81.5,41,81.5c22.3,0,40.5-18.1,40.5-40.5S63.3,0.5,41,0.5z M41,79.5
		C19.8,79.5,2.5,62.2,2.5,41S19.8,2.5,41,2.5c21.2,0,38.5,17.3,38.5,38.5S62.2,79.5,41,79.5z"/>
</g>
</svg>
