<svg xmlns="http://www.w3.org/2000/svg" viewBox="0 0 49.248 49.248"><path d="M24.625 0C11.025 0 0 11.027 0 24.625c0 13.6 11.025 24.623 24.625 24.623s24.623-11.023 24.623-24.623C49.248 11.027 38.224 0 24.625 0zM37.03 19.66c.012.266.017.533.017.803 0 8.2-6.242 17.656-17.656 17.656-3.503 0-6.766-1.028-9.512-2.788.486.057.98.086 1.48.086 2.908 0 5.584-.992 7.707-2.656-2.715-.05-5.006-1.846-5.796-4.31.377.073.766.11 1.166.11.566 0 1.114-.074 1.635-.217-2.84-.57-4.978-3.08-4.978-6.084v-.08c.837.466 1.794.745 2.812.778-1.666-1.115-2.76-3.012-2.76-5.166 0-1.137.305-2.204.84-3.12 3.06 3.754 7.633 6.225 12.79 6.483-.105-.453-.16-.928-.16-1.414 0-3.425 2.778-6.204 6.206-6.204 1.785 0 3.397.754 4.53 1.96 1.413-.278 2.74-.796 3.94-1.507-.465 1.45-1.448 2.665-2.73 3.432 1.257-.15 2.453-.484 3.565-.977-.83 1.247-1.883 2.34-3.096 3.215z" fill="#dcdcdc"/></svg>