<svg width="96" height="96" id="Layer_1" data-name="Layer 1" xmlns="http://www.w3.org/2000/svg" xmlns:xlink="http://www.w3.org/1999/xlink" viewBox="0 0 96 96"><defs><style>.cls-1{fill:#fff;}.cls-1,.cls-3,.cls-4{fill-rule:evenodd;}.cls-2{mask:url(#mask);}.cls-3{fill:#2d3540;}.cls-4{fill:#ff8c00;}.cls-5{mask:url(#mask-2-2);}</style><mask id="mask" x="46.95" y="51.47" width="43.08" height="7.69" maskUnits="userSpaceOnUse"><g id="mask-2"><polygon id="path-1" class="cls-1" points="46.95 51.47 90.04 51.47 90.04 59.16 46.95 59.16 46.95 51.47"/></g></mask><mask id="mask-2-2" x="5.71" y="28.67" width="36.73" height="37.93" maskUnits="userSpaceOnUse"><g id="mask-4"><polygon id="path-3" class="cls-1" points="5.71 28.67 42.45 28.67 42.45 66.61 5.71 66.61 5.71 28.67"/></g></mask></defs><g id="images_payment-methods_brand-color_light_qiwi" data-name="images/payment-methods/brand-color/light/qiwi"><g id="Group-19"><g id="Group-3"><g class="cls-2"><path id="Fill-1" class="cls-3" d="M89,54.78a.85.85,0,0,0-.86-.91,1,1,0,0,0-1,.91Zm-.84-1.72a1.87,1.87,0,0,1,1.92,2,3,3,0,0,1,0,.42H87a1.23,1.23,0,0,0,1.3,1.14,2,2,0,0,0,1.23-.48L90,57a2.74,2.74,0,0,1-1.74.62,2.22,2.22,0,0,1-2.33-2.26,2.13,2.13,0,0,1,2.2-2.25Zm-9,.1h1v3.4h1.35v-3.4h1v3.4h1.35v-3.4h1v3.4h.61v1.92h-1v-1H79.09Zm-3.23,3.5a1.35,1.35,0,1,0-1.28-1.35,1.28,1.28,0,0,0,1.28,1.35Zm0-3.6a2.26,2.26,0,1,1-2.36,2.25,2.27,2.27,0,0,1,2.36-2.25Zm-5.16,3.61c.59,0,1.08-.49,1.08-1.34S71.33,54,70.7,54s-1.09.4-1.09,1.36a1.19,1.19,0,0,0,1.08,1.33Zm-2.12-3.51h1v.32a2.39,2.39,0,0,1,0,.3h0a1.6,1.6,0,0,1,1.39-.72c1.17,0,1.91.92,1.91,2.25a2,2,0,0,1-2,2.26A1.55,1.55,0,0,1,69.64,57h0a3.1,3.1,0,0,1,0,.37v1.83H68.57Zm-5.08,0h3.93v4.31H66.35v-3.4H64.56v3.4H63.49Zm-4.6-.71h.82v-1h-.82Zm.51,2.33a.85.85,0,0,0-.86-.91,1,1,0,0,0-1,.91Zm-2.07-2.33h.83v-1h-.83Zm1.23.61a1.87,1.87,0,0,1,1.92,2,3,3,0,0,1,0,.42h-3a1.23,1.23,0,0,0,1.3,1.14A2,2,0,0,0,60,56.18l.43.77a2.74,2.74,0,0,1-1.74.62,2.22,2.22,0,0,1-2.33-2.26,2.13,2.13,0,0,1,2.2-2.25Zm-4.36,0a2.3,2.3,0,0,1,1.66.64l-.49.73A1.63,1.63,0,0,0,54.26,54a1.29,1.29,0,0,0-1.32,1.34,1.31,1.31,0,0,0,1.35,1.35,1.94,1.94,0,0,0,1.27-.55l.41.76a2.47,2.47,0,0,1-1.77.7,2.26,2.26,0,1,1,0-4.51Zm-5,3.47a.87.87,0,1,0,0-1.73H48.05v1.73Zm-.11-2.61a.72.72,0,0,0,.75-.77.69.69,0,0,0-.76-.74h-1v1.51ZM47,51.47h2.14C50.19,51.47,51,52,51,53a1.43,1.43,0,0,1-.73,1.29v0a1.4,1.4,0,0,1,1,1.41c0,1.2-1,1.74-2.07,1.74H47Z"/></g></g><path id="Fill-4" class="cls-4" d="M65.69,34.26V46.64a.34.34,0,0,1-.34.34H62.82a.34.34,0,0,1-.34-.34V34.26a.34.34,0,0,1,.34-.34h2.53a.34.34,0,0,1,.34.34"/><path id="Fill-6" class="cls-4" d="M85.42,33.92H82.59a.33.33,0,0,0-.32.24L80,41.48l-2.47-7.33a.35.35,0,0,0-.32-.23h-2a.36.36,0,0,0-.32.23l-2.46,7.33-2.24-7.32a.35.35,0,0,0-.33-.24H67.08a.32.32,0,0,0-.27.14.33.33,0,0,0,0,.3l4.16,12.39a.34.34,0,0,0,.32.23h2.25a.32.32,0,0,0,.32-.23l2.44-7.24,2.44,7.24A.34.34,0,0,0,79,47h2.25a.33.33,0,0,0,.32-.23l4.16-12.39a.32.32,0,0,0,0-.3.35.35,0,0,0-.28-.14"/><path id="Fill-8" class="cls-4" d="M89.7,33.92H87.17a.34.34,0,0,0-.34.34V46.64a.34.34,0,0,0,.34.34H89.7a.34.34,0,0,0,.34-.34V34.26a.34.34,0,0,0-.34-.34"/><path id="Fill-10" class="cls-4" d="M54.87,43.8l-1.36-1.64a.26.26,0,0,1,.2-.43h2.84a3.86,3.86,0,0,0,.21-1.28,3.62,3.62,0,1,0-3.61,3.79,3.55,3.55,0,0,0,1.72-.44ZM61,46.56a.26.26,0,0,1-.2.42h-3.1a.41.41,0,0,1-.33-.15l-.53-.63a6.85,6.85,0,1,1,2-2.05Z"/><path id="Fill-12" class="cls-4" d="M35.86,54.2c.11.74-.13,1-.36,1s-.58-.3-1-.89a1.85,1.85,0,0,1-.33-1.59.54.54,0,0,1,.71-.2c.62.24.87,1.19.94,1.64"/><path id="Fill-14" class="cls-4" d="M32.39,55.81c.75.63,1,1.39.58,1.92a1.23,1.23,0,0,1-1,.45,1.8,1.8,0,0,1-1.15-.41,1.62,1.62,0,0,1-.43-2.12,1,1,0,0,1,.79-.33,1.9,1.9,0,0,1,1.22.49"/><g id="Group-18"><g class="cls-5"><path id="Fill-16" class="cls-4" d="M31.13,61.93c3.24,0,6.75,1.11,10.64,4.55.39.35.9-.08.57-.51-3.82-4.82-7.36-5.73-10.88-6.51a11.66,11.66,0,0,1-8.07-6c-.31-.53-.45-.44-.48.24a15.81,15.81,0,0,0,.21,3c-.17,0-.34,0-.52,0a11.1,11.1,0,1,1,11.09-9.85,17,17,0,0,0-3.54-.07c-.43,0-.37.24,0,.29a7.81,7.81,0,0,1,6.81,7.1.1.1,0,0,0,.19,0,16.9,16.9,0,1,0-14.5,8.21c2.47,0,4.93-.48,8.53-.48"/></g></g></g></g></svg>