<svg xmlns="http://www.w3.org/2000/svg" width="95" height="95"><rect width="100%" height="100%" fill="none"/><g class="currentLayer"><g fill-rule="nonzero" fill="none"><path d="M31.603 42.683h.621c.159 0 .287.13.287.287v5.568c0 1.758.953 2.87 2.727 2.87 1.773 0 2.726-1.112 2.726-2.87V42.97c0-.158.13-.287.287-.287h.622c.159 0 .287.13.287.287v5.582c0 2.396-1.313 3.923-3.922 3.923s-3.922-1.542-3.922-3.908V42.97a.283.283 0 01.287-.287zm9.39 7.584a.255.255 0 01.375-.026c.644.626 1.608 1.167 2.83 1.167 1.714 0 2.263-.924 2.263-1.66 0-1.155-1.167-1.472-2.436-1.817-1.542-.405-3.26-.836-3.26-2.727 0-1.586 1.413-2.668 3.304-2.668 1.358 0 2.432.416 3.223 1.148.114.103.125.28.026.398l-.375.46a.252.252 0 01-.368.022c-.703-.659-1.63-.96-2.594-.96-1.156 0-1.976.621-1.976 1.526 0 .968 1.11 1.255 2.336 1.586 1.571.42 3.36.91 3.36 2.93 0 1.397-.953 2.825-3.548 2.825-1.552 0-2.722-.548-3.517-1.343a.287.287 0 01-.022-.383l.379-.478zm8.132-7.297c0-.158.128-.287.287-.287h2.998c2.984 0 4.935 2.09 4.935 4.817 0 2.741-1.947 4.802-4.935 4.802h-2.998a.287.287 0 01-.287-.287V42.97zm3.289 8.265c2.337 0 3.69-1.674 3.69-3.735 0-2.079-1.313-3.75-3.69-3.75h-2.09v7.485h2.09zm16.9-2.421c0-2.02 1.328-3.65 3.448-3.65s3.448 1.63 3.448 3.65-1.329 3.664-3.448 3.664c-2.12 0-3.448-1.648-3.448-3.664zm5.755 0c0-1.413-.82-2.683-2.307-2.683s-2.322 1.27-2.322 2.683c0 1.427.835 2.697 2.322 2.697 1.486 0 2.307-1.27 2.307-2.697zm2.178-5.38c0-.405.331-.721.721-.721.405 0 .736.316.736.721a.738.738 0 01-.736.736.738.738 0 01-.72-.736zm.475 1.902h.504c.158 0 .287.13.287.287v6.392a.287.287 0 01-.287.287h-.504a.287.287 0 01-.287-.287v-6.392c0-.158.129-.287.287-.287zm7.024 2.41c0-1.225-.622-1.615-1.556-1.615-.85 0-1.66.519-2.065 1.082v4.802a.287.287 0 01-.287.287h-.504a.287.287 0 01-.287-.287v-6.392c0-.158.13-.287.287-.287h.504c.159 0 .287.13.287.287v.722c.49-.578 1.443-1.182 2.48-1.182 1.458 0 2.223.736 2.223 2.249v4.6a.287.287 0 01-.287.286h-.504a.287.287 0 01-.287-.287v-4.264h-.004zM60.078 47.5c0-2.958 2.179-4.975 4.905-4.975 1.616 0 2.749.703 3.514 1.667a.255.255 0 01-.073.38l-.538.297a.289.289 0 01-.364-.07 3.28 3.28 0 00-2.539-1.203c-2.064 0-3.665 1.615-3.665 3.908 0 2.277 1.601 3.907 3.665 3.907a3.235 3.235 0 002.54-1.203c.087-.11.238-.14.363-.073l.545.298c.14.077.173.26.074.382-.795.972-1.906 1.663-3.522 1.663-2.726-.003-4.905-2.02-4.905-4.978z" fill="#4D4E50"/><circle fill="#2775CA" cx="18.555" cy="47.5" r="9.383"/><path d="M16.796 54.024c0 .22-.173.346-.386.28a7.04 7.04 0 010-13.409c.213-.066.386.06.386.28v.544a.42.42 0 01-.254.368 5.876 5.876 0 00-3.852 5.509 5.876 5.876 0 003.852 5.508c.14.051.254.22.254.368v.552z" fill="#FFF"/><path d="M19.14 51.996a.295.295 0 01-.294.295h-.585a.295.295 0 01-.295-.295v-.927c-1.28-.173-1.906-.89-2.075-1.865a.273.273 0 01.272-.317h.67c.14 0 .258.1.287.24.125.58.46 1.026 1.486 1.026.758 0 1.296-.423 1.296-1.056s-.317-.872-1.428-1.056c-1.641-.22-2.417-.718-2.417-2.005 0-.994.75-1.767 1.913-1.932v-.91c0-.161.132-.293.294-.293h.585c.162 0 .295.132.295.294v.935c.945.169 1.545.706 1.74 1.596a.272.272 0 01-.269.328h-.618a.298.298 0 01-.283-.217c-.166-.567-.57-.81-1.273-.81-.776 0-1.178.376-1.178.902 0 .555.229.835 1.42 1.008 1.612.22 2.444.68 2.444 2.053 0 1.042-.773 1.884-1.983 2.08v.926h-.004z" fill="#FFF"/><path d="M20.7 54.303c-.213.067-.386-.058-.386-.28v-.544c0-.162.1-.313.254-.368a5.876 5.876 0 003.852-5.508 5.876 5.876 0 00-3.852-5.508.425.425 0 01-.254-.368v-.545c0-.22.173-.35.386-.28a7.04 7.04 0 014.894 6.705 7.046 7.046 0 01-4.894 6.696z" fill="#FFF"/></g></g></svg>