<svg width="42" height="24" viewBox="0 0 42 24" xmlns="http://www.w3.org/2000/svg" xmlns:xlink="http://www.w3.org/1999/xlink"><title>even_odd_off</title><defs><circle id="a" cx="12" cy="12" r="12"/><circle id="b" cx="12" cy="12" r="12"/></defs><g fill="none" fill-rule="evenodd"><g transform="translate(18)"><use fill="#FFF" xlink:href="#a"/><circle stroke="#2A3052" cx="12" cy="12" r="11.5"/></g><path d="M22 4h16v16H22z"/><path d="M26.5 15.5h7v-7h-7v7zm8-8v9h-9v-9h9z" fill="#2A3052" fill-rule="nonzero"/><path fill="#2A3052" d="M24.041 13.5h-.825v-2.627l-.81.237v-.625l1.56-.54h.075zM29.26 11.242h.505c.4 0 .6-.196.6-.587a.508.508 0 0 0-.143-.373c-.096-.096-.23-.145-.403-.145a.58.58 0 0 0-.37.124.378.378 0 0 0-.157.308h-1.07c0-.243.068-.46.203-.65.136-.191.323-.34.564-.446.24-.107.504-.16.792-.16.514 0 .918.117 1.212.352.294.234.441.557.441.968 0 .198-.06.386-.182.563a1.3 1.3 0 0 1-.532.43c.245.089.438.224.578.405.14.18.21.404.21.67 0 .414-.16.744-.477.991-.317.248-.734.371-1.25.371a2.05 2.05 0 0 1-.843-.172 1.32 1.32 0 0 1-.589-.48 1.246 1.246 0 0 1-.2-.696h1.076c0 .141.057.264.171.368a.605.605 0 0 0 .423.155.634.634 0 0 0 .45-.157.525.525 0 0 0 .169-.401c0-.233-.059-.398-.175-.495-.116-.098-.277-.146-.482-.146h-.521v-.797zM35.266 11.762l.217-1.817h2.078v.64h-1.409l-.08.706a.973.973 0 0 1 .23-.09c.096-.027.189-.04.28-.04.353 0 .625.105.814.314.19.209.285.502.285.88 0 .228-.051.434-.153.619a1.049 1.049 0 0 1-.428.426c-.184.1-.402.149-.652.149-.223 0-.432-.046-.628-.138a1.126 1.126 0 0 1-.459-.379.92.92 0 0 1-.163-.543h.825c.008.13.05.234.124.31a.395.395 0 0 0 .296.115c.277 0 .415-.205.415-.615 0-.38-.17-.569-.508-.569-.192 0-.335.062-.43.186l-.654-.154z"/><g><g><use fill="#FFF" xlink:href="#b"/><circle stroke="#2A3052" cx="12" cy="12" r="11.5"/></g><path d="M4 4h16v16H4z"/><path d="M8.5 15.5h7v-7h-7v7zm8-8v9h-9v-9h9z" fill="#2A3052" fill-rule="nonzero"/><path d="M6.698 13.5h-2.48v-.537l1.142-1.201c.281-.32.422-.576.422-.764 0-.153-.033-.27-.1-.35-.067-.08-.163-.12-.29-.12a.362.362 0 0 0-.306.16.657.657 0 0 0-.117.4h-.825a1.167 1.167 0 0 1 .618-1.038c.193-.104.41-.156.65-.156.383 0 .68.089.887.266.207.178.31.432.31.764 0 .14-.025.277-.077.41a1.793 1.793 0 0 1-.243.417 6.12 6.12 0 0 1-.531.584l-.46.53h1.4v.635zM13.107 12.194h.47v.825h-.47V14h-1.07v-.98h-1.786l-.064-.655 1.85-2.977v-.01h1.07v2.816zm-1.9 0h.83v-1.422l-.066.108-.765 1.314zM19.205 9.894v.647h-.037c-.308 0-.56.074-.758.221a.933.933 0 0 0-.365.614.962.962 0 0 1 .703-.273c.308 0 .553.112.735.336.182.225.273.52.273.884 0 .226-.053.434-.16.623a1.141 1.141 0 0 1-.446.443c-.192.107-.404.16-.636.16-.253 0-.478-.058-.677-.172a1.183 1.183 0 0 1-.463-.492 1.62 1.62 0 0 1-.171-.738v-.33c0-.365.078-.695.235-.987.157-.292.381-.52.673-.687.291-.166.614-.249.97-.249h.124zm-.743 1.838a.47.47 0 0 0-.437.262v.246c0 .45.156.674.467.674.125 0 .23-.056.313-.168a.687.687 0 0 0 .126-.423.674.674 0 0 0-.128-.426.41.41 0 0 0-.34-.165z" fill="#2A3052"/></g></g></svg>