<svg width="42" height="24" viewBox="0 0 42 24" xmlns="http://www.w3.org/2000/svg" xmlns:xlink="http://www.w3.org/1999/xlink"><title>matches_differ_off</title><defs><circle id="a" cx="12" cy="12" r="12"/><circle id="b" cx="12" cy="12" r="12"/></defs><g fill="none" fill-rule="evenodd"><g transform="translate(18)"><use fill="#FFF" xlink:href="#a"/><circle stroke="#2A3052" cx="12" cy="12" r="11.5"/></g><path d="M22 4h16v16H22z"/><path d="M27.5 10.75h-4v-1.5h4L26.5 8H28l1.5 2-1.5 2h-1.5l1-1.25zM32.5 15.75h4v-1.5h-4l1-1.25H32l-1.5 2 1.5 2h1.5l-1-1.25zM29.5 4h1v16h-1z" fill="#2A3052"/><g><g><use fill="#FFF" xlink:href="#b"/><circle stroke="#2A3052" cx="12" cy="12" r="11.5"/></g><path d="M4 4h16v16H4z"/><path d="M9.5 12.75H6v-1.5h3.5L8.5 10H10l1.5 2-1.5 2H8.5l1-1.25zM14.5 12.75H18v-1.5h-3.5l1-1.25H14l-1.5 2 1.5 2h1.5l-1-1.25zM11.5 4h1v16h-1z" fill="#2A3052"/></g></g></svg>