<svg width="42" height="24" viewBox="0 0 42 24" xmlns="http://www.w3.org/2000/svg" xmlns:xlink="http://www.w3.org/1999/xlink"><title>over_under_off</title><defs><circle id="a" cx="12" cy="12" r="12"/><circle id="b" cx="12" cy="12" r="12"/></defs><g fill="none" fill-rule="evenodd"><g transform="translate(18)"><use fill="#FFF" xlink:href="#a"/><circle stroke="#2A3052" cx="12" cy="12" r="11.5"/></g><g transform="matrix(1 0 0 -1 22 20)"><path d="M0 0h16v16H0z"/><rect fill="#2A3052" transform="rotate(180 8 8)" y="7.5" width="16" height="1" rx=".5"/><path d="M12.866 5.834a.5.5 0 0 0 1 0V3.713a.5.5 0 0 0-.5-.5h-2.121a.5.5 0 0 0 0 1h1.62v1.621z" fill="#2A3052" fill-rule="nonzero"/><path d="M.5 11a.5.5 0 1 0 0 1h5a.5.5 0 0 0 .354-.146l7.5-7.5a.5.5 0 0 0-.708-.708L5.293 11H.5z" fill="#2A3052" fill-rule="nonzero"/></g><g><g><use fill="#FFF" xlink:href="#b"/><circle stroke="#2A3052" cx="12" cy="12" r="11.5"/></g><g transform="translate(4 4)"><path d="M0 0h16v16H0z"/><rect fill="#2A3052" transform="rotate(180 8 8)" y="7.5" width="16" height="1" rx=".5"/><path d="M12.866 5.834a.5.5 0 0 0 1 0V3.713a.5.5 0 0 0-.5-.5h-2.121a.5.5 0 0 0 0 1h1.62v1.621z" fill="#2A3052" fill-rule="nonzero"/><path d="M.5 11a.5.5 0 1 0 0 1h5a.5.5 0 0 0 .354-.146l7.5-7.5a.5.5 0 0 0-.708-.708L5.293 11H.5z" fill="#2A3052" fill-rule="nonzero"/></g></g></g></svg>