<svg xmlns="http://www.w3.org/2000/svg" viewBox="-15391 -20284 66 66"><defs><style>.cls-1 {fill: none;stroke: #2a3052;stroke-miterlimit: 10;stroke-width: 2px;}</style></defs><g transform="translate(-15391 -20284)"><rect class="cls-1" width="64" height="48.696" transform="translate(1 1)"/><line class="cls-1" x2="48.696" transform="translate(8.652 65)"/><path class="cls-1" d="M38.261,51.3H16L20.174,36H34.087Z" transform="translate(5.87 13.696)"/><line class="cls-1" x2="64" transform="translate(1 39.957)"/><path class="cls-1" d="M7,28.87V8H9.783l4.174,12.522L18.13,8h2.783V28.87" transform="translate(2.348 2.739)"/><line class="cls-1" x2="13.913" transform="translate(27.435 10.739)"/><line class="cls-1" y2="21.109" transform="translate(34.391 10.5)"/><path class="cls-1" d="M33,23.3h0a4.1,4.1,0,0,0,4.174,4.174h2.783A4.1,4.1,0,0,0,44.13,23.3V20.522a4.1,4.1,0,0,0-4.174-4.174H33V8H44.13" transform="translate(12.522 2.739)"/></g></svg>
