<svg xmlns="http://www.w3.org/2000/svg" viewBox="-15391 -20804 66 66"><defs><style>.cls-1 {fill: none;stroke: #2a3052;stroke-miterlimit: 10;stroke-width: 2px;}.cls-2 {fill: #2a3052;}</style></defs><g transform="translate(-15391 -20804)"><g transform="translate(20.478 6.565)"><path class="cls-1" d="M25.761,17.522A6.261,6.261,0,1,0,19.5,11.261,6.235,6.235,0,0,0,25.761,17.522Z" transform="translate(-13.239 -5)"/><path class="cls-1" d="M27.522,16.2C23.348,16.2,15,18.287,15,22.461v3.2H40.043V22.6C40.043,18.287,31.7,16.2,27.522,16.2Z" transform="translate(-15 -0.617)"/></g><rect class="cls-1" width="64" height="64" transform="translate(1 1)"/><rect class="cls-1" width="47.304" height="20.87" transform="translate(9.348 38.565)"/><rect class="cls-1" width="8.348" height="12.522" transform="translate(14.913 42.739)"/><rect class="cls-1" width="8.348" height="12.522" transform="translate(34.391 42.739)"/><rect class="cls-2" width="2.783" height="2.783" transform="translate(27.435 53.87)"/><path class="cls-1" d="M34,31h4.174V44.913" transform="translate(12.913 11.739)"/></g></svg>
