<svg xmlns="http://www.w3.org/2000/svg" width="66" height="66"><g fill="none" fill-rule="evenodd" stroke-width="2" transform="translate(1 1)"><circle cx="32" cy="32" r="27.826" stroke="#FFF"/><path d="M51.478 12.522L64 0m-8.348 0H64v8.348M12.522 12.522L0 0m8.348 0H0v8.348M12.522 51.478L0 64m8.348 0H0v-8.348M51.478 51.478L64 64m-8.348 0H64v-8.348M23.652 44.522h-8.348V32h8.348m-8.348 4.174h6.957m-6.957 4.174h6.957m19.478-4.174h6.957m-6.957 4.174h6.957" stroke="#FFF"/><g stroke="#FFF"><path d="M29.079 22.679h5.983l6.678 10.435a10.791 10.791 0 0 1-5.7 14.887 11.509 11.509 0 0 1-8.07 0 10.894 10.894 0 0 1-5.7-14.887l6.809-10.435z"/><path d="M29.078 22.679l-4.591-5.983h15.026l-4.591 5.983z"/></g><path d="M32 29.218v2.783m0 9.739v2.783m2.921-10.852a1.607 1.607 0 0 0-1.669-1.67h-2.365a1.842 1.842 0 0 0-1.809 1.809c.038.68.4 1.302.974 1.67l3.9 2.226a2.171 2.171 0 0 1 1.113 1.809 2.049 2.049 0 0 1-2.087 2.086h-2.091a1.607 1.607 0 0 1-1.67-1.67" stroke="#2A3052"/><path stroke="#FFF" d="M40.348 32h8.348v12.522h-8.348"/></g></svg>