<?xml version="1.0" encoding="UTF-8"?>
<svg width="299px" height="197px" viewBox="0 0 299 197" version="1.1" xmlns="http://www.w3.org/2000/svg" xmlns:xlink="http://www.w3.org/1999/xlink">
    <!-- Generator: Sketch 52.6 (67491) - http://www.bohemiancoding.com/sketch -->
    <title>call spread</title>
    <desc>Created with Sketch.</desc>
    <g id="Page-1" stroke="none" stroke-width="1" fill="none" fill-rule="evenodd">
        <g id="call-spread">
            <g id="Group">
                <polygon id="Path" fill="#F1F2F2" points="299 0 299 197 0 197 0 1.28704739e-14"></polygon>
                <path d="M297.013289,1.9798995 L1.98671096,1.9798995 L1.98671096,195.020101 L297.013289,195.020101 L297.013289,1.9798995 Z M299,197 L0,197 L0,0 L299,0 L299,197 Z" id="Path" fill="#C2C2C2" fill-rule="nonzero"></path>
                <g id="Group-12" transform="translate(0.000000, 28.000000)">
                    <polygon id="Path" fill="#2A3052" fill-rule="nonzero" points="247.483108 13.2066671 248.493244 13.2066671 248.493244 149.275379 247.483108 149.275379"></polygon>
                    <path d="M2.94050338,26.9484582 L2.94050338,25.7251846 L296.511027,25.7251846 L296.511027,26.9484582 L2.94050338,26.9484582 Z M2.94050338,67.8450552 L2.94050338,66.6217816 L296.511027,66.6217816 L296.511027,67.8450552 L2.94050338,67.8450552 Z M2.94050338,108.738637 L2.94050338,107.515363 L296.511027,107.515363 L296.511027,108.738637 L2.94050338,108.738637 Z M2.94050338,149.596035 L2.94050338,148.372761 L296.511027,148.372761 L296.511027,149.596035 L2.94050338,149.596035 Z M37.7846098,5.90812245 L39.0078834,5.90812245 L39.0078834,167.000852 L37.7846098,167.000852 L37.7846098,5.90812245 Z M74.9464713,5.90812245 L76.1697449,5.90812245 L76.1697449,167.000852 L74.9464713,167.000852 L74.9464713,5.90812245 Z M112.068937,5.90812245 L113.292211,5.90812245 L113.292211,167.000852 L112.068937,167.000852 L112.068937,5.90812245 Z M149.228779,5.90812245 L150.452053,5.90812245 L150.452053,167.000852 L149.228779,167.000852 L149.228779,5.90812245 Z M186.351245,5.90812245 L187.574519,5.90812245 L187.574519,167.000852 L186.351245,167.000852 L186.351245,5.90812245 Z M223.473711,5.90812245 L224.696985,5.90812245 L224.696985,167.000852 L223.473711,167.000852 L223.473711,5.90812245 Z M2.94050338,88.272749 L2.94050338,87.0494754 L296.511027,87.0494754 L296.511027,88.272749 L2.94050338,88.272749 Z" id="Shape" fill="#DFDEDE" fill-rule="nonzero"></path>
                    <path d="M2.94050338,41.1704559 L2.94050338,40.0259727 L296.511027,40.0259727 L296.511027,41.1704559 L2.94050338,41.1704559 Z M2.94050338,121.57862 L2.94050338,120.434136 L296.511027,120.434136 L296.511027,121.57862 L2.94050338,121.57862 Z" id="Shape" fill="#15212D" fill-rule="nonzero"></path>
                    <polygon id="Path" fill="#C2C2C2" fill-rule="nonzero" points="0.819219595 2.37123283 0.819219595 -0.07531447 298.632311 -0.07531447 298.632311 2.37123283"></polygon>
                    <path d="M21.477725,83.1404287 C21.1023291,83.3252157 20.6482111,83.1706967 20.4634241,82.7953008 C20.2786371,82.4199049 20.4331561,81.9657869 20.808552,81.7809999 L29.8714109,77.319846 C30.2468068,77.135059 30.7009248,77.289578 30.8857119,77.6649739 C31.0704989,78.0403698 30.9159799,78.4944877 30.540584,78.6792748 L21.477725,83.1404287 Z M39.603443,74.2181209 C39.2280471,74.4029079 38.7739291,74.2483889 38.589142,73.872993 C38.404355,73.4975971 38.558874,73.0434791 38.9342699,72.8586921 L47.9971289,68.3975382 C48.3725248,68.2127511 48.8266428,68.3672701 49.0114298,68.742666 C49.1962168,69.1180619 49.0416978,69.5721799 48.6663019,69.756967 L39.603443,74.2181209 Z M57.7291609,65.295813 C57.353765,65.4806001 56.899647,65.3260811 56.71486,64.9506852 C56.5300729,64.5752893 56.684592,64.1211713 57.0599878,63.9363843 L66.1228468,59.4752303 C66.4982427,59.2904433 66.9523607,59.4449623 67.1371477,59.8203582 C67.3219348,60.1957541 67.1674158,60.6498721 66.7920199,60.8346591 L57.7291609,65.295813 Z M75.8548788,56.3735052 C75.479483,56.5582923 75.025365,56.4037732 74.8405779,56.0283773 C74.6557909,55.6529815 74.8103099,55.1988635 75.1857058,55.0140764 L84.2485648,50.5529225 C84.6239606,50.3681355 85.0780786,50.5226545 85.2628657,50.8980504 C85.4476527,51.2734463 85.2931337,51.7275643 84.9177378,51.9123513 L75.8548788,56.3735052 Z M93.9774912,49.7954703 C93.5612352,49.7530526 93.2581794,49.3812241 93.3005971,48.9649681 C93.3430148,48.5487121 93.7148432,48.2456562 94.1310993,48.2880739 L104.180409,49.3121274 C104.596665,49.3545451 104.899721,49.7263736 104.857303,50.1426296 C104.814885,50.5588856 104.443057,50.8619415 104.026801,50.8195238 L93.9774912,49.7954703 Z M114.07611,51.8435773 C113.659854,51.8011596 113.356798,51.4293311 113.399216,51.0130751 C113.441634,50.5968191 113.813462,50.2937633 114.229718,50.336181 L124.279028,51.3602345 C124.695284,51.4026522 124.99834,51.7744807 124.955922,52.1907367 C124.913504,52.6069927 124.541676,52.9100485 124.12542,52.8676308 L114.07611,51.8435773 Z M134.174729,53.8916844 C133.758473,53.8492667 133.455417,53.4774382 133.497835,53.0611822 C133.540253,52.6449262 133.912081,52.3418703 134.328337,52.384288 L144.377647,53.4083415 C144.793903,53.4507592 145.096959,53.8225877 145.054541,54.2388437 C145.012123,54.6550997 144.640295,54.9581556 144.224039,54.9157379 L134.174729,53.8916844 Z M154.273348,55.9397914 C153.857092,55.8973737 153.554036,55.5255452 153.596454,55.1092892 C153.638872,54.6930332 154.0107,54.3899773 154.426956,54.432395 L164.476266,55.4564485 C164.892522,55.4988662 165.195578,55.8706947 165.15316,56.2869507 C165.110742,56.7032067 164.738914,57.0062626 164.322658,56.9638449 L154.273348,55.9397914 Z M183.728656,54.4017038 C184.114073,54.2388468 184.558536,54.419267 184.721393,54.8046836 C184.88425,55.1901002 184.70383,55.6345637 184.318413,55.7974207 L178.209071,58.3789104 L174.371967,57.9878984 C173.955711,57.9454807 173.652655,57.5736522 173.695073,57.1573962 C173.737491,56.7411402 174.109319,56.4380844 174.525575,56.4805021 L177.976699,56.8321814 L183.728656,54.4017038 Z M193.623193,51.8657055 C193.237776,52.0285624 192.793313,51.8481422 192.630456,51.4627257 C192.467599,51.0773091 192.648019,50.6328456 193.033436,50.4699886 L202.338215,46.5382734 C202.723632,46.3754164 203.168095,46.5558366 203.330952,46.9412532 C203.493809,47.3266698 203.313389,47.7711333 202.927972,47.9339903 L193.623193,51.8657055 Z M212.232752,44.0022751 C211.847335,44.165132 211.402872,43.9847118 211.240015,43.5992953 C211.077158,43.2138787 211.257578,42.7694152 211.642995,42.6065582 L220.947774,38.674843 C221.333191,38.511986 221.777654,38.6924062 221.940511,39.0778228 C222.103368,39.4632394 221.922948,39.9077029 221.537532,40.0705599 L212.232752,44.0022751 Z M230.842311,36.1388447 C230.456894,36.3017016 230.012431,36.1212814 229.849574,35.7358649 C229.686717,35.3504483 229.867137,34.9059848 230.252554,34.7431278 L239.557333,30.8114126 C239.94275,30.6485556 240.387213,30.8289758 240.55007,31.2143924 C240.712927,31.599809 240.532507,32.0442725 240.147091,32.2071295 L230.842311,36.1388447 Z" id="Path" fill="#6E7287" fill-rule="nonzero"></path>
                    <path d="M20.6438964,83.2773809 C20.237272,83.3759961 19.8276944,83.1263053 19.7290793,82.719681 C19.6304641,82.3130566 19.8801549,81.903479 20.2867792,81.8048639 L30.1035602,79.4240828 C30.5101846,79.3254677 30.9197621,79.5751585 31.0183773,79.9817828 C31.1169925,80.3884072 30.8673017,80.7979848 30.4606773,80.8965999 L20.6438964,83.2773809 Z M40.2774583,78.5158189 C39.870834,78.6144341 39.4612564,78.3647433 39.3626412,77.9581189 C39.264026,77.5514946 39.5137168,77.141917 39.9203412,77.0433018 L49.7371222,74.6625208 C50.1437465,74.5639056 50.5533241,74.8135964 50.6519393,75.2202208 C50.7505544,75.6268452 50.5008637,76.0364227 50.0942393,76.1350379 L40.2774583,78.5158189 Z M59.9110203,73.7542569 C59.5043959,73.8528721 59.0948183,73.6031813 58.9962032,73.1965569 C58.897588,72.7899325 59.1472788,72.380355 59.5539031,72.2817398 L69.3706841,69.9009588 C69.7773085,69.8023436 70.186886,70.0520344 70.2855012,70.4586588 C70.3841164,70.8652831 70.1344256,71.2748607 69.7278012,71.3734759 L59.9110203,73.7542569 Z M79.5445822,68.9926949 C79.1379578,69.09131 78.7283803,68.8416192 78.6297651,68.4349949 C78.5311499,68.0283705 78.7808407,67.6187929 79.1874651,67.5201778 L89.0042461,65.1393968 C89.4108704,65.0407816 89.820448,65.2904724 89.9190632,65.6970967 C90.0176783,66.1037211 89.7679876,66.5132987 89.3613632,66.6119138 L79.5445822,68.9926949 Z M98.8670343,68.7207264 C98.4589365,68.6283981 98.2029547,68.2227226 98.295283,67.8146248 C98.3876113,67.406527 98.7932868,67.1505453 99.2013846,67.2428735 L109.053737,69.4718755 C109.461835,69.5642038 109.717817,69.9698793 109.625489,70.3779771 C109.53316,70.7860749 109.127485,71.0420567 108.719387,70.9497284 L98.8670343,68.7207264 Z M118.57174,73.1787303 C118.163642,73.0864021 117.90766,72.6807266 117.999989,72.2726288 C118.092317,71.864531 118.497993,71.6085492 118.90609,71.7008775 L128.758443,73.9298794 C129.166541,74.0222077 129.422523,74.4278832 129.330195,74.835981 C129.237866,75.2440788 128.832191,75.5000606 128.424093,75.4077323 L118.57174,73.1787303 Z M138.276446,77.6367343 C137.868348,77.544406 137.612366,77.1387305 137.704695,76.7306327 C137.797023,76.3225349 138.202698,76.0665531 138.610796,76.1588814 L148.463149,78.3878833 C148.871247,78.4802116 149.127229,78.8858871 149.0349,79.2939849 C148.942572,79.7020827 148.536896,79.9580645 148.128799,79.8657362 L138.276446,77.6367343 Z M157.981152,82.0947382 C157.573054,82.0024099 157.317072,81.5967344 157.4094,81.1886366 C157.501729,80.7805388 157.907404,80.524557 158.315502,80.6168853 L168.167855,82.8458873 C168.575953,82.9382155 168.831934,83.343891 168.739606,83.7519888 C168.647278,84.1600866 168.241602,84.4160684 167.833504,84.3237401 L157.981152,82.0947382 Z M186.678526,87.0337522 L186.418125,87.020835 L186.549454,87.0045508 L186.678526,87.0337522 Z M187.633033,86.8701914 C188.048264,86.8187043 188.426615,87.1135777 188.478102,87.5288094 C188.529589,87.9440412 188.234716,88.3223915 187.819484,88.3738786 L186.473248,88.5408064 L177.685857,86.5527421 C177.27776,86.4604138 177.021778,86.0547383 177.114106,85.6466405 C177.206434,85.2385427 177.61211,84.9825609 178.020208,85.0748892 L186.549454,87.0045508 L187.633033,86.8701914 Z M197.844066,87.1308708 C197.428834,87.1823579 197.050483,86.8874846 196.998996,86.4722528 C196.947509,86.0570211 197.242383,85.6786707 197.657614,85.6271836 L207.682196,84.3841759 C208.097428,84.3326888 208.475778,84.6275621 208.527265,85.0427939 C208.578752,85.4580257 208.283879,85.836376 207.868647,85.8878631 L197.844066,87.1308708 Z M217.893229,84.6448553 C217.477997,84.6963424 217.099647,84.4014691 217.04816,83.9862373 C216.996673,83.5710055 217.291546,83.1926552 217.706778,83.1411681 L227.73136,81.8981604 C228.146591,81.8466733 228.524942,82.1415466 228.576429,82.5567784 C228.627916,82.9720101 228.333042,83.3503605 227.917811,83.4018476 L217.893229,84.6448553 Z M237.942392,82.1588398 C237.527161,82.2103269 237.14881,81.9154535 237.097323,81.5002218 C237.045836,81.08499 237.34071,80.7066397 237.755941,80.6551526 L247.780523,79.4121449 C248.195755,79.3606578 248.574105,79.6555311 248.625592,80.0707629 C248.677079,80.4859946 248.382206,80.864345 247.966974,80.915832 L237.942392,82.1588398 Z M21.0345405,83.333972 C20.6421801,83.188639 20.4419249,82.7527524 20.587258,82.3603921 C20.732591,81.9680317 21.1684776,81.7677765 21.5608379,81.9131096 L31.0332549,85.4217594 C31.4256152,85.5670924 31.6258705,86.002979 31.4805374,86.3953393 C31.3352044,86.7876997 30.8993178,86.9879549 30.5069575,86.8426219 L21.0345405,83.333972 Z M39.9793744,90.3512717 C39.5870141,90.2059386 39.3867589,89.770052 39.5320919,89.3776917 C39.6774249,88.9853313 40.1133115,88.7850761 40.5056719,88.9304092 L49.9780889,92.439059 C50.3704492,92.584392 50.5707044,93.0202786 50.4253714,93.4126389 C50.2800384,93.8049993 49.8441518,94.0052545 49.4517914,93.8599215 L39.9793744,90.3512717 Z M58.9242084,97.3685713 C58.5318481,97.2232382 58.3315929,96.7873516 58.4769259,96.3949913 C58.6222589,96.002631 59.0581455,95.8023758 59.4505059,95.9477088 L68.9229228,99.4563586 C69.3152832,99.6016916 69.5155384,100.037578 69.3702054,100.429939 C69.2248723,100.822299 68.7889857,101.022554 68.3966254,100.877221 L58.9242084,97.3685713 Z M77.8690424,104.385871 C77.476682,104.240538 77.2764268,103.804651 77.4217598,103.412291 C77.5670929,103.019931 78.0029795,102.819675 78.3953398,102.965008 L87.8677568,106.473658 C88.2601171,106.618991 88.4603723,107.054878 88.3150393,107.447238 C88.1697063,107.839599 87.7338197,108.039854 87.3414593,107.894521 L77.8690424,104.385871 Z M106.813689,111.33975 C107.231308,111.314006 107.590724,111.631683 107.616469,112.049302 C107.642213,112.466921 107.324536,112.826338 106.906917,112.852082 L101.607511,113.178766 L96.8138763,111.40317 C96.421516,111.257837 96.2212608,110.821951 96.3665938,110.429591 C96.5119268,110.03723 96.9478134,109.836975 97.3401738,109.982308 L101.833705,111.646744 L106.813689,111.33975 Z M116.98913,112.23056 C116.571511,112.256304 116.212094,111.938627 116.18635,111.521008 C116.160606,111.103389 116.478283,110.743972 116.895902,110.718228 L126.978114,110.096706 C127.395733,110.070961 127.75515,110.388638 127.780895,110.806257 C127.806639,111.223876 127.488962,111.583293 127.071343,111.609038 L116.98913,112.23056 Z M137.153556,110.987515 C136.735937,111.013259 136.37652,110.695582 136.350776,110.277963 C136.325031,109.860344 136.642708,109.500928 137.060327,109.475183 L147.14254,108.853661 C147.560159,108.827917 147.919576,109.145594 147.94532,109.563213 C147.971065,109.980832 147.653388,110.340249 147.235769,110.365993 L137.153556,110.987515 Z M157.317982,109.74447 C156.900363,109.770215 156.540946,109.452538 156.515201,109.034919 C156.489457,108.6173 156.807134,108.257883 157.224753,108.232139 L167.306966,107.610616 C167.724585,107.584872 168.084002,107.902549 168.109746,108.320168 C168.13549,108.737787 167.817813,109.097204 167.400194,109.122948 L157.317982,109.74447 Z M177.482407,108.501426 C177.064788,108.52717 176.705371,108.209493 176.679627,107.791874 C176.653883,107.374255 176.97156,107.014838 177.389179,106.989094 L186.047138,106.45537 L187.689226,107.143254 C188.075144,107.304918 188.256938,107.748822 188.095274,108.13474 C187.93361,108.520658 187.489706,108.702452 187.103788,108.540788 L185.787646,107.989446 L177.482407,108.501426 Z M196.420682,112.443709 C196.034764,112.282044 195.85297,111.838141 196.014634,111.452223 C196.176298,111.066304 196.620202,110.88451 197.00612,111.046175 L206.323014,114.949095 C206.708933,115.11076 206.890727,115.554663 206.729062,115.940581 C206.567398,116.3265 206.123495,116.508294 205.737576,116.346629 L196.420682,112.443709 Z M215.05447,120.24955 C214.668552,120.087886 214.486758,119.643982 214.648422,119.258064 C214.810087,118.872146 215.25399,118.690352 215.639908,118.852016 L224.956803,122.754937 C225.342721,122.916601 225.524515,123.360504 225.362851,123.746423 C225.201186,124.132341 224.757283,124.314135 224.371365,124.152471 L215.05447,120.24955 Z M233.688259,128.055391 C233.30234,127.893727 233.120546,127.449824 233.282211,127.063905 C233.443875,126.677987 233.887778,126.496193 234.273697,126.657857 L243.590591,130.560778 C243.976509,130.722442 244.158303,131.166346 243.996639,131.552264 C243.834975,131.938183 243.391071,132.119976 243.005153,131.958312 L233.688259,128.055391 Z" id="Shape" fill="#6E7287" fill-rule="nonzero"></path>
                    <polygon id="Path" fill="#2A3052" fill-rule="nonzero" points="259.352196 79.8009686 259.352196 78.2857659 294.201858 78.2857659 294.201858 79.8009686"></polygon>
                    <ellipse id="Oval" fill="#FFFFFF" opacity="0.6" cx="247.621497" cy="27.7580357" rx="8.21946959" ry="8.5182398"></ellipse>
                    <ellipse id="Oval" fill="#FFFFFF" opacity="0.6" cx="247.621497" cy="80.0233418" rx="8.21946959" ry="8.5182398"></ellipse>
                    <ellipse id="Oval" fill="#FFFFFF" opacity="0.6" cx="248.631632" cy="133.29375" rx="8.21946959" ry="8.5182398"></ellipse>
                    <path d="M247.621497,37.4995491 C242.396448,37.4995491 238.178754,33.1285453 238.178754,27.7580357 C238.178754,22.3875261 242.396448,18.0165222 247.621497,18.0165222 C252.846546,18.0165222 257.06424,22.3875261 257.06424,27.7580357 C257.06424,33.1285453 252.846546,37.4995491 247.621497,37.4995491 Z M247.621497,35.0530018 C251.475424,35.0530018 254.617693,31.7965139 254.617693,27.7580357 C254.617693,23.7195575 251.475424,20.4630695 247.621497,20.4630695 C243.76757,20.4630695 240.625301,23.7195575 240.625301,27.7580357 C240.625301,31.7965139 243.76757,35.0530018 247.621497,35.0530018 Z" id="Oval" fill="#E88024" fill-rule="nonzero"></path>
                    <path d="M247.621497,89.7648552 C242.396448,89.7648552 238.178754,85.3938514 238.178754,80.0233418 C238.178754,74.6528322 242.396448,70.2818283 247.621497,70.2818283 C252.846546,70.2818283 257.06424,74.6528322 257.06424,80.0233418 C257.06424,85.3938514 252.846546,89.7648552 247.621497,89.7648552 Z M247.621497,87.318308 C251.475424,87.318308 254.617693,84.06182 254.617693,80.0233418 C254.617693,75.9848636 251.475424,72.7283756 247.621497,72.7283756 C243.76757,72.7283756 240.625301,75.9848636 240.625301,80.0233418 C240.625301,84.06182 243.76757,87.318308 247.621497,87.318308 Z" id="Oval" fill="#E88024" fill-rule="nonzero"></path>
                    <path d="M248.631632,143.035263 C243.406583,143.035263 239.188889,138.66426 239.188889,133.29375 C239.188889,127.92324 243.406583,123.552237 248.631632,123.552237 C253.856681,123.552237 258.074375,127.92324 258.074375,133.29375 C258.074375,138.66426 253.856681,143.035263 248.631632,143.035263 Z M248.631632,140.588716 C252.485559,140.588716 255.627828,137.332228 255.627828,133.29375 C255.627828,129.255272 252.485559,125.998784 248.631632,125.998784 C244.777705,125.998784 241.635436,129.255272 241.635436,133.29375 C241.635436,137.332228 244.777705,140.588716 248.631632,140.588716 Z" id="Oval" fill="#E88024" fill-rule="nonzero"></path>
                    <ellipse id="Oval" fill="#FFFFFF" opacity="0.916" cx="24.3816318" cy="81.0284439" rx="8.21946959" ry="8.5182398"></ellipse>
                    <path d="M24.3816318,90.7699573 C19.156583,90.7699573 14.9388886,86.3989535 14.9388886,81.0284439 C14.9388886,75.6579343 19.156583,71.2869304 24.3816318,71.2869304 C29.6066806,71.2869304 33.824375,75.6579343 33.824375,81.0284439 C33.824375,86.3989535 29.6066806,90.7699573 24.3816318,90.7699573 Z M24.3816318,88.32341 C28.2355584,88.32341 31.3778277,85.0669221 31.3778277,81.0284439 C31.3778277,76.9899657 28.2355584,73.7334777 24.3816318,73.7334777 C20.5277052,73.7334777 17.3854359,76.9899657 17.3854359,81.0284439 C17.3854359,85.0669221 20.5277052,88.32341 24.3816318,88.32341 Z" id="Oval" fill="#E88024" fill-rule="nonzero"></path>
                </g>
            </g>
            <path d="M23.907,16.924 C23.797,18.083 23.372,18.986 22.629,19.636 C21.887,20.285 20.9,20.609 19.668,20.609 C18.806,20.609 18.048,20.405 17.393,19.994 C16.737,19.584 16.231,19 15.874,18.244 C15.519,17.489 15.334,16.611 15.318,15.61 L15.318,14.596 C15.318,13.571 15.498,12.669 15.86,11.887 C16.22,11.107 16.74,10.505 17.415,10.082 C18.091,9.66 18.871,9.448 19.757,9.448 C20.95,9.448 21.91,9.774 22.637,10.426 C23.365,11.077 23.787,11.997 23.907,13.186 L22.035,13.186 C21.947,12.405 21.721,11.841 21.356,11.496 C20.993,11.15 20.459,10.976 19.757,10.976 C18.94,10.976 18.313,11.277 17.875,11.876 C17.437,12.476 17.213,13.356 17.203,14.514 L17.203,15.476 C17.203,16.65 17.413,17.546 17.831,18.162 C18.249,18.779 18.861,19.087 19.668,19.087 C20.406,19.087 20.959,18.921 21.33,18.587 C21.702,18.254 21.937,17.7 22.035,16.923 L23.906,16.923 L23.907,16.924 Z M30.209,20.46 C30.13,20.306 30.061,20.055 30.002,19.706 C29.4604722,20.2941428 28.6933592,20.6227495 27.894,20.609 C27.087,20.609 26.429,20.378 25.919,19.916 C25.4236474,19.4847216 25.1440388,18.8567002 25.155,18.2 C25.155,17.339 25.472,16.679 26.108,16.219 C26.744,15.759 27.653,15.529 28.836,15.529 L29.943,15.529 L29.943,14.999 C29.943,14.582 29.826,14.246 29.594,13.996 C29.361,13.744 29.006,13.619 28.532,13.619 C28.122,13.619 27.785,13.722 27.522,13.929 C27.2717345,14.112143 27.1253551,14.4049018 27.129,14.715 L25.325,14.715 C25.325,14.273 25.471,13.859 25.763,13.472 C26.055,13.087 26.453,12.786 26.955,12.567 C27.4865776,12.3424511 28.059,12.2307589 28.636,12.239 C29.576,12.239 30.326,12.476 30.886,12.952 C31.445,13.425 31.732,14.094 31.746,14.954 L31.746,18.595 C31.746,19.321 31.848,19.901 32.051,20.333 L32.051,20.46 L30.209,20.46 Z M28.228,19.154 C28.584,19.154 28.919,19.068 29.233,18.894 C29.548,18.719 29.785,18.486 29.943,18.192 L29.943,16.671 L28.97,16.671 C28.302,16.671 27.8,16.788 27.463,17.022 C27.126,17.255 26.958,17.587 26.958,18.014 C26.958,18.362 27.074,18.64 27.304,18.846 C27.534,19.052 27.842,19.156 28.228,19.156 L28.228,19.154 Z M35.555,20.46 L33.751,20.46 L33.751,9 L35.555,9 L35.555,20.46 Z M39.436,20.46 L37.632,20.46 L37.632,9 L39.436,9 L39.436,20.46 Z M51.01,17.662 C51.01,17.185 50.843,16.816 50.51,16.558 C50.175,16.3 49.572,16.038 48.701,15.774 C47.829,15.512 47.137,15.218 46.623,14.894 C45.638,14.273 45.146,13.462 45.146,12.462 C45.146,11.587 45.5,10.866 46.21,10.298 C46.92,9.732 47.842,9.448 48.977,9.448 C49.727,9.448 50.399,9.588 50.987,9.865 C51.552,10.123 52.034,10.535 52.376,11.056 C52.7105383,11.563516 52.8863444,12.1591679 52.881,12.767 L51.01,12.767 C51.01,12.201 50.832,11.757 50.479,11.436 C50.125,11.116 49.619,10.956 48.96,10.956 C48.347,10.956 47.87,11.088 47.531,11.35 C47.193,11.614 47.024,11.982 47.024,12.455 C47.024,12.852 47.206,13.185 47.573,13.451 C47.939,13.717 48.543,13.975 49.384,14.227 C50.225,14.477 50.9,14.764 51.411,15.085 C51.92,15.405 52.294,15.773 52.531,16.189 C52.769,16.605 52.888,17.09 52.888,17.648 C52.888,18.552 52.543,19.272 51.852,19.808 C51.162,20.342 50.225,20.608 49.042,20.608 C48.3007033,20.616613 47.5659642,20.4683702 46.886,20.173 C46.23,19.882 45.72,19.48 45.357,18.968 C44.993,18.455 44.811,17.858 44.811,17.177 L46.689,17.177 C46.689,17.794 46.892,18.272 47.297,18.61 C47.704,18.948 48.285,19.118 49.043,19.118 C49.696,19.118 50.188,18.984 50.516,18.718 C50.846,18.452 51.01,18.1 51.01,17.662 Z M61.394,16.506 C61.394,17.755 61.112,18.751 60.549,19.494 C59.984,20.238 59.227,20.609 58.277,20.609 C57.396,20.609 56.691,20.319 56.161,19.737 L56.161,23.564 L54.357,23.564 L54.357,12.387 L56.02,12.387 L56.095,13.208 C56.624,12.562 57.345,12.238 58.255,12.238 C59.235,12.238 60.003,12.605 60.56,13.338 C61.117,14.072 61.394,15.091 61.394,16.395 L61.394,16.507 L61.394,16.506 Z M59.598,16.349 C59.598,15.544 59.439,14.904 59.12,14.432 C58.8,13.959 58.344,13.722 57.75,13.722 C57.013,13.722 56.483,14.028 56.161,14.641 L56.161,18.222 C56.488,18.849 57.023,19.162 57.765,19.162 C58.338,19.162 58.788,18.929 59.113,18.465 C59.437,17.999 59.598,17.295 59.598,16.349 Z M67.126,14.044 C66.8830865,14.0036624 66.6372395,13.9835933 66.391,13.984 C65.564,13.984 65.007,14.302 64.721,14.939 L64.721,20.46 L62.917,20.46 L62.917,12.387 L64.639,12.387 L64.683,13.29 C65.119,12.59 65.723,12.239 66.494,12.239 C66.752,12.239 66.964,12.273 67.133,12.343 L67.126,14.043 L67.126,14.044 Z M71.802,20.609 C70.659,20.609 69.732,20.247 69.022,19.524 C68.312,18.801 67.958,17.836 67.958,16.634 L67.958,16.409 C67.958,15.603 68.112,14.883 68.421,14.249 C68.7062631,13.6424376 69.1577386,13.1292396 69.723,12.769 C70.2825023,12.4155912 70.9322713,12.2315305 71.594,12.239 C72.689,12.239 73.534,12.589 74.129,13.289 C74.726,13.992 75.024,14.984 75.024,16.267 L75.024,16.999 L69.776,16.999 C69.83,17.665 70.052,18.192 70.44,18.579 C70.828,18.968 71.318,19.162 71.906,19.162 C72.732,19.162 73.406,18.826 73.926,18.154 L74.898,19.087 C74.5763124,19.569961 74.1312546,19.9580486 73.609,20.211 C73.045687,20.4820186 72.4270493,20.6182763 71.802,20.609 Z M71.587,13.692 C71.092,13.692 70.692,13.868 70.388,14.216 C70.084,14.563 69.889,15.048 69.805,15.67 L73.241,15.67 L73.241,15.536 C73.203,14.929 73.041,14.471 72.76,14.16 C72.478,13.85 72.087,13.693 71.587,13.693 L71.587,13.692 Z M81.22,20.46 C81.14,20.306 81.072,20.055 81.012,19.706 C80.4704722,20.2941428 79.7033592,20.6227495 78.904,20.609 C78.097,20.609 77.439,20.378 76.929,19.916 C76.4336474,19.4847216 76.1540388,18.8567002 76.165,18.2 C76.165,17.339 76.482,16.679 77.118,16.219 C77.754,15.759 78.664,15.529 79.848,15.529 L80.952,15.529 L80.952,14.999 C80.952,14.582 80.836,14.246 80.604,13.996 C80.371,13.744 80.018,13.619 79.542,13.619 C79.132,13.619 78.795,13.722 78.532,13.929 C78.2817345,14.112143 78.1353551,14.4049018 78.139,14.715 L76.335,14.715 C76.335,14.273 76.481,13.859 76.773,13.472 C77.065,13.087 77.463,12.786 77.965,12.567 C78.4968869,12.342315 79.069664,12.2306201 79.647,12.239 C80.587,12.239 81.337,12.476 81.896,12.952 C82.455,13.425 82.742,14.094 82.757,14.954 L82.757,18.595 C82.757,19.321 82.858,19.901 83.061,20.333 L83.061,20.46 L81.22,20.46 Z M79.237,19.154 C79.593,19.154 79.928,19.068 80.243,18.894 C80.557,18.719 80.793,18.486 80.952,18.192 L80.952,16.671 L79.979,16.671 C79.311,16.671 78.809,16.788 78.473,17.022 C78.135,17.255 77.967,17.587 77.967,18.014 C77.967,18.362 78.083,18.64 78.313,18.846 C78.543,19.052 78.851,19.156 79.237,19.156 L79.237,19.154 Z M84.307,16.364 C84.307,15.121 84.595,14.124 85.168,13.369 C85.742,12.616 86.512,12.239 87.477,12.239 C88.328,12.239 89.016,12.537 89.541,13.134 L89.541,9 L91.345,9 L91.345,20.46 L89.712,20.46 L89.622,19.625 C89.083,20.281 88.364,20.609 87.464,20.609 C86.522,20.609 85.761,20.229 85.18,19.468 C84.599,18.707 84.309,17.672 84.309,16.364 L84.307,16.364 Z M86.111,16.521 C86.111,17.341 86.268,17.981 86.582,18.442 C86.896,18.902 87.343,19.132 87.922,19.132 C88.66,19.132 89.199,18.802 89.541,18.14 L89.541,14.693 C89.209,14.047 88.674,13.723 87.937,13.723 C87.353,13.723 86.903,13.955 86.587,14.421 C86.269,14.886 86.111,15.586 86.111,16.521 Z" id="Shape" fill="#000000" fill-rule="nonzero"></path>
            <path d="M275.975,119.465 L270.801,119.465 L270.931,118.675 L274.024,115.569 C274.574,115.014 274.957,114.572 275.17,114.242 C275.383,113.912 275.518,113.575 275.577,113.231 C275.647,112.793 275.594,112.432 275.419,112.147 C275.243,111.862 274.971,111.719 274.604,111.719 C274.084,111.719 273.668,111.872 273.354,112.179 C273.039,112.486 272.839,112.909 272.753,113.448 L271.675,113.448 L271.663,113.413 C271.768,112.651 272.094,112.027 272.641,111.54 C273.188,111.054 273.889,110.811 274.745,110.811 C275.432,110.811 275.96,111.037 276.327,111.488 C276.694,111.938 276.823,112.506 276.714,113.19 C276.626156,113.697188 276.422548,114.177291 276.119,114.593 C275.8,115.044 275.362,115.543 274.803,116.09 L272.343,118.528 L272.354,118.563 L276.122,118.563 L275.975,119.465 Z M268.729,165.786 C268.782,165.456 268.724,165.18 268.554,164.956 C268.384,164.732 268.075,164.531 267.628,164.352 C266.99,164.133 266.528,163.842 266.242,163.476 C265.955,163.111 265.861,162.624 265.957,162.016 C266.054,161.403 266.287,160.915 266.658,160.552 C267.028,160.188 267.497,159.971 268.063,159.899 L268.251,158.712 L269.078,158.712 L268.884,159.91 C269.411,160.003 269.796,160.264 270.039,160.694 C270.283,161.124 270.349,161.691 270.238,162.397 L269.207,162.397 C269.286,161.892 269.25,161.493 269.099,161.201 C268.949,160.91 268.691,160.764 268.326,160.764 C267.964,160.764 267.667,160.876 267.434,161.099 C267.202,161.323 267.057,161.623 266.999,161.999 C266.942,162.357 266.995,162.641 267.158,162.85 C267.321,163.06 267.644,163.261 268.128,163.455 C268.772,163.691 269.23,163.985 269.502,164.338 C269.774,164.691 269.862,165.17 269.765,165.775 C269.661,166.412 269.412,166.908 269.016,167.263 C268.62,167.617 268.115,167.827 267.499,167.891 L267.338,168.922 L266.51,168.922 L266.672,167.892 C266.131,167.82 265.707,167.589 265.399,167.201 C265.091,166.812 264.998,166.246 265.119,165.501 L266.156,165.501 C266.063,166.074 266.119,166.472 266.326,166.696 C266.531,166.92 266.82,167.032 267.193,167.032 C267.597,167.032 267.938,166.92 268.216,166.696 C268.493,166.472 268.664,166.169 268.729,165.786 Z M275.749,164.824 C275.534,165.888 275.175,166.669 274.672,167.169 C274.169,167.669 273.55,167.918 272.816,167.918 C272.146,167.918 271.644,167.647 271.31,167.104 C270.975,166.562 270.906,165.802 271.103,164.824 L271.473,162.971 C271.685,161.911 272.044,161.13 272.553,160.627 C273.042753,160.131429 273.714389,159.858509 274.411,159.872 C275.085,159.872 275.586,160.144 275.915,160.689 C276.245,161.233 276.313,161.994 276.119,162.971 L275.749,164.824 Z M275.126,162.746 C275.269,162.026 275.264,161.506 275.112,161.186 C274.96,160.865 274.671,160.705 274.245,160.705 C273.855,160.705 273.508,160.879 273.205,161.228 C272.903,161.578 272.685,162.083 272.553,162.746 L272.096,165.039 C271.953,165.759 271.959,166.281 272.113,166.605 C272.266,166.929 272.557,167.091 272.983,167.091 C273.373,167.091 273.718,166.915 274.017,166.564 C274.316,166.214 274.533,165.705 274.669,165.039 L275.126,162.746 Z M41.361,60.496 L42.924,52.676 L45.33,52.676 C46.043,52.676 46.59,52.855 46.974,53.213 C47.357,53.571 47.479,54.097 47.339,54.792 C47.2693542,55.1496663 47.0978018,55.4795748 46.845,55.742 C46.5849188,56.0107388 46.2643343,56.2133757 45.91,56.333 C46.33,56.433 46.627,56.665 46.805,57.029 C46.982,57.392 47.022,57.812 46.925,58.289 C46.771,59.051 46.447,59.609 45.953,59.964 C45.459,60.319 44.833,60.496 44.073,60.496 L41.361,60.496 Z M43.128,56.827 L42.564,59.669 L44.24,59.669 C44.644,59.669 44.998,59.548 45.3,59.306 C45.603,59.064 45.8,58.729 45.889,58.299 C45.982,57.812 45.956,57.445 45.811,57.198 C45.666,56.951 45.382,56.828 44.96,56.828 L43.127,56.828 L43.128,56.827 Z M43.295,56 L44.879,56 C45.201,56 45.501,55.89 45.779,55.67 C46.056,55.45 46.233,55.15 46.308,54.77 C46.398,54.323 46.344,54 46.149,53.803 C45.954,53.606 45.626,53.508 45.164,53.508 L43.794,53.508 L43.294,56 L43.295,56 Z M51.105,60.496 C51.105,60.32 51.108,60.176 51.115,60.063 C51.122,59.951 51.135,59.835 51.152,59.717 C50.91237,59.9708827 50.6343071,60.1855041 50.328,60.353 C50.018,60.523 49.708,60.609 49.396,60.609 C48.866,60.609 48.475,60.45 48.223,60.133 C47.97,59.816 47.899,59.393 48.01,58.863 C48.125,58.273 48.416,57.829 48.883,57.533 C49.35,57.238 49.949,57.091 50.68,57.091 L51.673,57.091 L51.786,56.516 C51.858,56.154 51.818,55.879 51.668,55.691 C51.518,55.503 51.267,55.409 50.916,55.409 C50.616,55.409 50.343,55.498 50.1,55.675 C49.856,55.852 49.711,56.059 49.665,56.295 L48.682,56.295 L48.671,56.263 C48.743,55.816 49.011,55.423 49.477,55.084 C49.942,54.746 50.497,54.577 51.142,54.577 C51.718,54.577 52.174,54.747 52.509,55.09 C52.843,55.432 52.95,55.91 52.829,56.527 L52.269,59.325 C52.223,59.543 52.191,59.745 52.173,59.932 C52.1550909,60.1195735 52.1550909,60.3084265 52.173,60.496 L51.104,60.496 L51.105,60.496 Z M49.729,59.722 C50.019,59.722 50.315,59.638 50.615,59.47 C50.916,59.302 51.149,59.103 51.314,58.874 L51.528,57.804 L50.503,57.804 C50.148,57.804 49.829,57.914 49.546,58.133 C49.264,58.351 49.096,58.602 49.042,58.884 C48.984,59.16 49.012,59.369 49.122,59.51 C49.233,59.652 49.435,59.722 49.729,59.722 Z M57.093,55.619 L56.523,55.587 C56.287,55.587 56.07,55.654 55.871,55.788 C55.6589603,55.9368603 55.4821413,56.1304054 55.353,56.355 L54.525,60.495 L53.489,60.495 L54.649,54.685 L55.579,54.685 L55.514,55.463 C55.714,55.18 55.941,54.962 56.194,54.808 C56.5619941,54.5793797 57.0094617,54.5169086 57.426,54.636 L57.093,55.619 Z M60.74,55.619 L60.17,55.587 C59.934,55.587 59.717,55.654 59.518,55.788 C59.3059603,55.9368603 59.1291413,56.1304054 59,56.355 L58.172,60.495 L57.137,60.495 L58.297,54.685 L59.227,54.685 L59.162,55.463 C59.362,55.18 59.589,54.962 59.842,54.808 C60.2099941,54.5793797 60.6574617,54.5169086 61.074,54.636 L60.741,55.619 L60.74,55.619 Z M63.017,60.609 C62.287,60.609 61.734,60.337 61.36,59.795 C60.986,59.252 60.867,58.555 61.003,57.703 L61.041,57.466 C61.177,56.607 61.516,55.911 62.058,55.377 C62.601,54.844 63.188,54.577 63.818,54.577 C64.53,54.577 65.04,54.815 65.348,55.291 C65.656,55.767 65.749,56.396 65.628,57.176 L65.52,57.837 L62.018,57.837 C61.939,58.431 61.994,58.904 62.182,59.255 C62.37,59.606 62.692,59.781 63.146,59.781 C63.7323656,59.7845744 64.3011515,59.5809307 64.752,59.206 L65.047,59.894 C64.802027,60.1144155 64.5182025,60.2873552 64.21,60.404 C63.87,60.541 63.472,60.609 63.017,60.609 Z M63.689,55.409 C63.388,55.409 63.097,55.559 62.816,55.861 C62.535,56.161 62.333,56.534 62.212,56.978 L62.228,57.01 L64.618,57.01 L64.639,56.87 C64.707,56.437 64.666,56.085 64.516,55.815 C64.366,55.545 64.09,55.409 63.689,55.409 Z M69.769,55.619 L69.199,55.587 C68.963,55.587 68.745,55.654 68.547,55.788 C68.3345974,55.936749 68.1574296,56.1303022 68.028,56.355 L67.201,60.495 L66.165,60.495 L67.325,54.685 L68.254,54.685 L68.19,55.463 C68.39,55.18 68.617,54.962 68.869,54.808 C69.2372593,54.5790915 69.6851543,54.5166114 70.102,54.636 L69.769,55.619 Z M73.12,60.496 C73.12,60.32 73.124,60.176 73.131,60.063 C73.138,59.951 73.151,59.835 73.169,59.717 C72.9290671,59.9709664 72.6506615,60.1855918 72.344,60.353 C72.034,60.523 71.724,60.609 71.412,60.609 C70.882,60.609 70.492,60.45 70.239,60.133 C69.986,59.816 69.915,59.393 70.026,58.863 C70.141,58.273 70.432,57.829 70.899,57.533 C71.367,57.238 71.965,57.091 72.696,57.091 L73.69,57.091 L73.802,56.516 C73.874,56.154 73.835,55.879 73.684,55.691 C73.534,55.503 73.284,55.409 72.932,55.409 C72.632,55.409 72.359,55.498 72.116,55.675 C71.872,55.852 71.727,56.059 71.681,56.295 L70.698,56.295 L70.688,56.263 C70.758,55.816 71.028,55.423 71.493,55.084 C71.958,54.746 72.513,54.577 73.158,54.577 C73.734,54.577 74.19,54.747 74.525,55.09 C74.86,55.432 74.966,55.91 74.845,56.527 L74.285,59.325 C74.239,59.543 74.207,59.745 74.189,59.932 C74.1710909,60.1195735 74.1710909,60.3084265 74.189,60.496 L73.12,60.496 Z M71.745,59.722 C72.035,59.722 72.331,59.638 72.631,59.47 C72.932,59.302 73.165,59.103 73.33,58.874 L73.545,57.804 L72.519,57.804 C72.164,57.804 71.845,57.914 71.563,58.133 C71.28,58.351 71.111,58.602 71.058,58.884 C71,59.16 71.028,59.369 71.138,59.51 C71.249,59.652 71.452,59.722 71.745,59.722 Z M82.697,58.482 L79.7,58.482 L78.61,60.496 L77.557,60.496 L81.94,52.676 L82.82,52.676 L84.029,60.496 L82.971,60.496 L82.697,58.482 Z M80.183,57.595 L82.573,57.595 L82.101,54.12 L82.068,54.11 L80.183,57.595 Z M86.048,60.495 L85.012,60.495 L86.688,52.117 L87.724,52.117 L86.048,60.496 L86.048,60.495 Z M90.415,53.282 L90.13,54.684 L91.135,54.684 L90.979,55.468 L89.975,55.468 L89.271,58.998 C89.211,59.288 89.219,59.483 89.298,59.585 C89.377,59.687 89.504,59.738 89.679,59.738 C89.762,59.738 89.861,59.73 89.977,59.714 C90.094,59.698 90.186,59.681 90.254,59.664 L90.249,60.388 C90.1111752,60.4652059 89.961464,60.5189397 89.806,60.547 C89.6197313,60.5877024 89.4296631,60.6084859 89.239,60.609 C88.863,60.609 88.574,60.476 88.371,60.211 C88.169,59.946 88.123,59.541 88.234,58.997 L88.938,55.468 L88.089,55.468 L88.245,54.684 L89.094,54.684 L89.379,53.282 L90.415,53.282 Z M94.578,60.496 C94.578,60.32 94.581,60.176 94.588,60.063 C94.596,59.951 94.608,59.835 94.626,59.717 C94.38637,59.9708827 94.1083071,60.1855041 93.802,60.353 C93.492,60.523 93.182,60.609 92.87,60.609 C92.34,60.609 91.949,60.45 91.696,60.133 C91.444,59.816 91.373,59.393 91.484,58.863 C91.599,58.273 91.89,57.829 92.357,57.533 C92.824,57.238 93.423,57.091 94.153,57.091 L95.147,57.091 L95.26,56.516 C95.331,56.154 95.292,55.879 95.142,55.691 C94.992,55.503 94.741,55.409 94.39,55.409 C94.089,55.409 93.817,55.498 93.573,55.675 C93.33,55.852 93.185,56.059 93.138,56.295 L92.155,56.295 L92.145,56.263 C92.216,55.816 92.485,55.423 92.95,55.084 C93.416,54.746 93.97,54.577 94.615,54.577 C95.192,54.577 95.647,54.747 95.982,55.09 C96.317,55.432 96.424,55.91 96.302,56.527 L95.743,59.325 C95.697,59.543 95.664,59.745 95.647,59.932 C95.6290909,60.1195735 95.6290909,60.3084265 95.647,60.496 L94.577,60.496 L94.578,60.496 Z M93.203,59.722 C93.493,59.722 93.788,59.638 94.089,59.47 C94.389,59.302 94.623,59.103 94.787,58.874 L95.002,57.804 L93.977,57.804 C93.623,57.804 93.304,57.914 93.021,58.133 C92.738,58.351 92.57,58.602 92.516,58.884 C92.459,59.16 92.486,59.369 92.596,59.51 C92.708,59.652 92.91,59.722 93.204,59.722 L93.203,59.722 Z M40.361,164.651 L41.924,156.831 L44.33,156.831 C45.043,156.831 45.59,157.01 45.974,157.368 C46.357,157.726 46.479,158.252 46.339,158.947 C46.2693542,159.304666 46.0978018,159.634575 45.845,159.897 C45.5849188,160.165739 45.2643343,160.368376 44.91,160.488 C45.33,160.588 45.627,160.82 45.805,161.184 C45.982,161.547 46.022,161.967 45.925,162.444 C45.771,163.206 45.447,163.764 44.953,164.119 C44.459,164.474 43.833,164.651 43.073,164.651 L40.361,164.651 Z M42.128,160.982 L41.564,163.824 L43.24,163.824 C43.644,163.824 43.998,163.703 44.3,163.461 C44.603,163.22 44.8,162.884 44.889,162.454 C44.982,161.967 44.956,161.6 44.811,161.354 C44.666,161.106 44.382,160.982 43.96,160.982 L42.127,160.982 L42.128,160.982 Z M42.295,160.155 L43.879,160.155 C44.201,160.155 44.501,160.045 44.779,159.825 C45.056,159.605 45.233,159.305 45.308,158.925 C45.398,158.478 45.344,158.155 45.149,157.959 C44.954,157.762 44.626,157.663 44.164,157.663 L42.794,157.663 L42.294,160.155 L42.295,160.155 Z M50.105,164.651 C50.105,164.475 50.108,164.331 50.115,164.219 C50.122,164.106 50.135,163.99 50.152,163.872 C49.9124443,164.126238 49.6343774,164.3412 49.328,164.509 C49.018,164.679 48.708,164.764 48.396,164.764 C47.866,164.764 47.475,164.605 47.223,164.288 C46.97,163.971 46.899,163.548 47.01,163.018 C47.125,162.428 47.416,161.984 47.883,161.688 C48.35,161.393 48.949,161.246 49.68,161.246 L50.673,161.246 L50.786,160.671 C50.858,160.309 50.818,160.034 50.668,159.846 C50.518,159.658 50.267,159.565 49.916,159.565 C49.616,159.565 49.343,159.653 49.1,159.83 C48.856,160.008 48.711,160.214 48.665,160.45 L47.682,160.45 L47.671,160.419 C47.743,159.971 48.011,159.578 48.477,159.239 C48.942,158.901 49.497,158.732 50.142,158.732 C50.718,158.732 51.174,158.903 51.509,159.245 C51.843,159.587 51.95,160.065 51.829,160.682 L51.269,163.48 C51.223,163.698 51.191,163.9 51.173,164.087 C51.1550909,164.274573 51.1550909,164.463427 51.173,164.651 L50.104,164.651 L50.105,164.651 Z M48.729,163.877 C49.019,163.877 49.315,163.793 49.615,163.625 C49.916,163.457 50.149,163.258 50.314,163.029 L50.528,161.96 L49.503,161.96 C49.148,161.96 48.829,162.07 48.546,162.288 C48.264,162.506 48.096,162.757 48.042,163.04 C47.984,163.315 48.012,163.524 48.122,163.665 C48.233,163.807 48.435,163.877 48.729,163.877 Z M56.093,159.774 L55.523,159.742 C55.287,159.742 55.07,159.809 54.871,159.943 C54.6589603,160.09186 54.4821413,160.285405 54.353,160.51 L53.525,164.65 L52.489,164.65 L53.649,158.84 L54.579,158.84 L54.514,159.618 C54.714,159.335 54.941,159.117 55.194,158.963 C55.5619941,158.73438 56.0094617,158.671909 56.426,158.791 L56.093,159.774 Z M59.74,159.774 L59.17,159.742 C58.934,159.742 58.717,159.809 58.518,159.943 C58.3059603,160.09186 58.1291413,160.285405 58,160.51 L57.172,164.65 L56.137,164.65 L57.297,158.84 L58.227,158.84 L58.162,159.618 C58.362,159.335 58.589,159.117 58.842,158.963 C59.2099941,158.73438 59.6574617,158.671909 60.074,158.791 L59.741,159.774 L59.74,159.774 Z M62.017,164.764 C61.287,164.764 60.734,164.492 60.36,163.95 C59.986,163.408 59.867,162.71 60.003,161.858 L60.041,161.622 C60.177,160.762 60.516,160.066 61.058,159.532 C61.601,158.999 62.188,158.732 62.818,158.732 C63.53,158.732 64.04,158.97 64.348,159.446 C64.656,159.923 64.749,160.551 64.628,161.332 L64.52,161.992 L61.018,161.992 C60.939,162.587 60.994,163.059 61.182,163.41 C61.37,163.761 61.692,163.937 62.146,163.937 C62.461,163.937 62.756,163.884 63.032,163.778 C63.308,163.672 63.548,163.534 63.752,163.362 L64.047,164.049 C63.802027,164.269416 63.5182025,164.442355 63.21,164.559 C62.87,164.696 62.472,164.764 62.017,164.764 Z M62.689,159.564 C62.388,159.564 62.097,159.714 61.816,160.016 C61.535,160.316 61.333,160.689 61.212,161.133 L61.228,161.165 L63.618,161.165 L63.639,161.025 C63.707,160.592 63.666,160.24 63.516,159.97 C63.366,159.7 63.09,159.565 62.689,159.565 L62.689,159.564 Z M68.769,159.774 L68.199,159.742 C67.963,159.742 67.745,159.809 67.547,159.943 C67.3345974,160.091749 67.1574296,160.285302 67.028,160.51 L66.201,164.65 L65.165,164.65 L66.325,158.84 L67.254,158.84 L67.19,159.618 C67.39,159.335 67.617,159.117 67.869,158.963 C68.2372593,158.734092 68.6851543,158.671611 69.102,158.791 L68.769,159.774 Z M72.12,164.651 C72.12,164.475 72.124,164.331 72.131,164.219 C72.138,164.106 72.151,163.99 72.169,163.872 C71.9291414,164.126322 71.6507317,164.341288 71.344,164.509 C71.034,164.679 70.724,164.764 70.412,164.764 C69.882,164.764 69.492,164.605 69.239,164.288 C68.986,163.971 68.915,163.548 69.026,163.018 C69.141,162.428 69.432,161.984 69.899,161.688 C70.367,161.393 70.965,161.246 71.696,161.246 L72.69,161.246 L72.802,160.671 C72.874,160.309 72.835,160.034 72.684,159.846 C72.534,159.658 72.284,159.565 71.932,159.565 C71.632,159.565 71.359,159.653 71.116,159.83 C70.872,160.008 70.727,160.214 70.681,160.45 L69.698,160.45 L69.688,160.419 C69.758,159.971 70.028,159.578 70.493,159.239 C70.958,158.901 71.513,158.732 72.158,158.732 C72.734,158.732 73.19,158.903 73.525,159.245 C73.86,159.587 73.966,160.065 73.845,160.682 L73.285,163.48 C73.239,163.698 73.207,163.9 73.189,164.087 C73.1710909,164.274573 73.1710909,164.463427 73.189,164.651 L72.12,164.651 Z M70.745,163.877 C71.035,163.877 71.331,163.793 71.631,163.625 C71.932,163.457 72.165,163.258 72.33,163.029 L72.545,161.96 L71.519,161.96 C71.164,161.96 70.845,162.07 70.563,162.288 C70.28,162.506 70.111,162.757 70.058,163.04 C70,163.315 70.028,163.524 70.138,163.665 C70.249,163.807 70.452,163.877 70.745,163.877 Z M77.298,164.651 L78.861,156.831 L81.267,156.831 C81.98,156.831 82.527,157.01 82.911,157.368 C83.294,157.726 83.416,158.252 83.276,158.947 C83.2063542,159.304666 83.0348018,159.634575 82.782,159.897 C82.5219188,160.165739 82.2013343,160.368376 81.847,160.488 C82.267,160.588 82.564,160.82 82.742,161.184 C82.919,161.547 82.959,161.967 82.862,162.444 C82.708,163.206 82.384,163.764 81.89,164.119 C81.396,164.474 80.77,164.651 80.01,164.651 L77.298,164.651 Z M79.065,160.982 L78.501,163.824 L80.177,163.824 C80.581,163.824 80.935,163.703 81.237,163.461 C81.54,163.22 81.737,162.884 81.826,162.454 C81.919,161.967 81.893,161.6 81.748,161.354 C81.603,161.106 81.319,160.982 80.897,160.982 L79.065,160.982 Z M79.232,160.155 L80.816,160.155 C81.138,160.155 81.438,160.045 81.716,159.825 C81.993,159.605 82.17,159.305 82.245,158.925 C82.335,158.478 82.281,158.155 82.086,157.959 C81.891,157.762 81.563,157.663 81.101,157.663 L79.731,157.663 L79.231,160.155 L79.232,160.155 Z M87.042,164.651 C87.042,164.475 87.045,164.331 87.052,164.219 C87.059,164.106 87.072,163.99 87.089,163.872 C86.8494443,164.126238 86.5713774,164.3412 86.265,164.509 C85.955,164.679 85.645,164.764 85.333,164.764 C84.803,164.764 84.412,164.605 84.16,164.288 C83.907,163.971 83.836,163.548 83.947,163.018 C84.062,162.428 84.353,161.984 84.82,161.688 C85.287,161.393 85.886,161.246 86.617,161.246 L87.61,161.246 L87.723,160.671 C87.795,160.309 87.755,160.034 87.605,159.846 C87.455,159.658 87.204,159.565 86.853,159.565 C86.553,159.565 86.28,159.653 86.037,159.83 C85.793,160.008 85.648,160.214 85.602,160.45 L84.619,160.45 L84.608,160.419 C84.68,159.971 84.948,159.578 85.414,159.239 C85.879,158.901 86.434,158.732 87.079,158.732 C87.655,158.732 88.111,158.903 88.446,159.245 C88.78,159.587 88.887,160.065 88.766,160.682 L88.206,163.48 C88.16,163.698 88.128,163.9 88.11,164.087 C88.0920909,164.274573 88.0920909,164.463427 88.11,164.651 L87.041,164.651 L87.042,164.651 Z M85.666,163.877 C85.956,163.877 86.252,163.793 86.552,163.625 C86.853,163.457 87.086,163.258 87.251,163.029 L87.465,161.96 L86.44,161.96 C86.085,161.96 85.766,162.07 85.484,162.288 C85.201,162.506 85.032,162.757 84.979,163.04 C84.921,163.315 84.949,163.524 85.059,163.665 C85.17,163.807 85.372,163.877 85.666,163.877 Z M91.778,158.839 L90.522,165.129 C90.392,165.766 90.157,166.237 89.815,166.542 C89.473,166.846 89.039,166.998 88.513,166.998 C88.329545,166.999115 88.1474715,166.966227 87.976,166.901 L88.212,166.069 C88.340811,166.108271 88.4743735,166.129803 88.609,166.133 C88.8118374,166.130709 89.0045753,166.044122 89.141,165.894 C89.299,165.735 89.413,165.48 89.485,165.129 L90.742,158.839 L91.778,158.839 Z M92.058,157.33 L91.016,157.33 L91.226,156.272 L92.267,156.272 L92.057,157.33 L92.058,157.33 Z M95.468,164.65 C95.468,164.475 95.472,164.331 95.479,164.219 C95.486,164.106 95.499,163.99 95.517,163.872 C95.2771414,164.126322 94.9987317,164.341288 94.692,164.509 C94.382,164.679 94.072,164.764 93.76,164.764 C93.23,164.764 92.84,164.605 92.587,164.288 C92.334,163.971 92.264,163.548 92.375,163.018 C92.489,162.428 92.78,161.984 93.247,161.688 C93.715,161.393 94.314,161.246 95.044,161.246 L96.038,161.246 L96.15,160.671 C96.222,160.309 96.183,160.034 96.032,159.846 C95.882,159.658 95.632,159.565 95.28,159.565 C94.98,159.565 94.707,159.653 94.464,159.83 C94.22,160.008 94.075,160.214 94.029,160.45 L93.046,160.45 L93.036,160.419 C93.106,159.971 93.376,159.578 93.841,159.239 C94.306,158.901 94.861,158.732 95.506,158.732 C96.082,158.732 96.538,158.903 96.873,159.245 C97.208,159.587 97.314,160.065 97.193,160.682 L96.633,163.48 C96.587,163.698 96.555,163.9 96.537,164.087 C96.5190909,164.274573 96.5190909,164.463427 96.537,164.651 L95.468,164.651 L95.468,164.65 Z M94.093,163.877 C94.383,163.877 94.679,163.793 94.98,163.625 C95.28,163.457 95.513,163.258 95.678,163.029 L95.893,161.96 L94.867,161.96 C94.512,161.96 94.194,162.07 93.911,162.288 C93.628,162.506 93.46,162.757 93.406,163.04 C93.349,163.315 93.376,163.524 93.486,163.665 C93.597,163.807 93.8,163.877 94.093,163.877 Z M267.174,46.638 L266.664,49.204 L265.817,49.204 L267.095,42.806 L269.403,42.806 C269.994,42.806 270.442,42.984 270.745,43.342 C271.048,43.699 271.145,44.159 271.033,44.722 C270.907,45.34 270.638,45.814 270.226,46.143 C269.815,46.473 269.286,46.638 268.638,46.638 L267.174,46.638 Z M267.311,45.961 L268.774,45.961 C269.137,45.961 269.446,45.842 269.699,45.605 C269.953,45.368 270.114,45.076 270.185,44.73 C270.258,44.355 270.222,44.054 270.077,43.827 C269.932,43.6 269.662,43.487 269.267,43.487 L267.807,43.487 L267.311,45.961 Z M273.753,49.204 C273.753,49.06 273.756,48.943 273.762,48.85 C273.767901,48.7552771 273.77791,48.6608549 273.792,48.567 C273.595973,48.7745845 273.36853,48.9500601 273.118,49.087 C272.865,49.227 272.611,49.297 272.356,49.297 C271.922,49.297 271.602,49.167 271.396,48.907 C271.189,48.648 271.131,48.302 271.222,47.868 C271.316,47.385 271.554,47.022 271.936,46.78 C272.318,46.539 272.808,46.418 273.406,46.418 L274.219,46.418 L274.311,45.948 C274.37,45.652 274.338,45.427 274.215,45.273 C274.091,45.119 273.886,45.043 273.599,45.043 C273.353,45.043 273.131,45.115 272.931,45.26 C272.732,45.405 272.613,45.574 272.575,45.767 L271.771,45.767 L271.762,45.741 C271.821,45.375 272.041,45.053 272.422,44.777 C272.802,44.5 273.257,44.361 273.784,44.361 C274.256,44.361 274.628,44.501 274.902,44.781 C275.176,45.061 275.263,45.453 275.164,45.956 L274.707,48.246 C274.670937,48.4100168 274.644227,48.5759512 274.627,48.743 C274.612379,48.8963189 274.612379,49.0506811 274.627,49.204 L273.753,49.204 Z M272.628,48.571 C272.865,48.571 273.108,48.502 273.353,48.365 C273.599,48.227 273.79,48.065 273.924,47.877 L274.1,47.002 L273.26,47.002 C272.97,47.002 272.71,47.092 272.479,47.27 C272.247,47.45 272.109,47.654 272.066,47.886 C272.019,48.111 272.041,48.282 272.132,48.398 C272.222,48.513 272.388,48.571 272.628,48.571 Z M276.008,46.827 C276.168,46.012 276.43,45.397 276.792,44.983 C277.134613,44.5769602 277.64288,44.3482032 278.174,44.361 C278.434,44.361 278.668,44.418 278.873,44.533 C279.078,44.647 279.243,44.809 279.369,45.02 L279.554,44.45 L280.274,44.45 L279.339,49.142 C279.207,49.799 278.942,50.293 278.545,50.626 C278.148,50.958 277.633,51.124 277.001,51.124 C276.801,51.124 276.58,51.092 276.335,51.028 C276.119686,50.9760638 275.914082,50.8899732 275.726,50.773 L276.073,50.1 C276.193,50.188 276.352,50.26 276.548,50.314 C276.744,50.368 276.941,50.394 277.137,50.394 C277.491,50.394 277.785,50.284 278.018,50.064 C278.251,49.842 278.407,49.535 278.486,49.142 L278.552,48.817 C278.391925,48.9706613 278.20386,49.0921905 277.998,49.175 C277.791058,49.2565055 277.570409,49.2975803 277.348,49.296 C276.838,49.296 276.451,49.067 276.185,48.609 C275.92,48.15 275.855,47.587 275.99,46.919 L276.008,46.827 Z M276.838,46.919 C276.736,47.419 276.758,47.824 276.904,48.132 C277.05,48.439 277.317,48.593 277.704,48.593 C277.912,48.593 278.1,48.533 278.268,48.415 C278.437,48.297 278.591,48.127 278.732,47.908 L279.176,45.693 C279.103307,45.510977 278.981435,45.352751 278.824,45.236 C278.656115,45.1177086 278.454265,45.0573289 278.249,45.064 C277.897,45.064 277.603,45.224 277.368,45.546 C277.132,45.866 276.961,46.293 276.856,46.826 L276.838,46.919 Z M280.793,46.783 C280.91,46.05 281.179,45.463 281.6,45.023 C282.02,44.582 282.54,44.361 283.157,44.361 C283.749,44.361 284.192,44.591 284.487,45.049 C284.781,45.507 284.873,46.085 284.761,46.783 L284.748,46.879 C284.628,47.615 284.358,48.201 283.938,48.639 C283.517,49.077 282.998,49.296 282.38,49.296 C281.788,49.296 281.345,49.068 281.05,48.611 C280.756,48.154 280.666,47.577 280.78,46.879 L280.793,46.783 Z M281.628,46.879 C281.543,47.404 281.568,47.825 281.705,48.143 C281.841,48.461 282.101,48.62 282.485,48.62 C282.842,48.62 283.147,48.453 283.399,48.12 C283.651,47.788 283.817,47.374 283.896,46.88 L283.909,46.783 C283.991,46.267 283.963,45.848 283.825,45.526 C283.688,45.204 283.43,45.042 283.052,45.042 C282.692,45.042 282.386,45.209 282.136,45.543 C281.886,45.877 281.72,46.29 281.641,46.783 L281.628,46.879 Z M259.537,59.619 C259.789,59.619 260.03,59.53 260.26,59.351 C260.49,59.173 260.625,58.956 260.666,58.701 L261.426,58.701 L261.436,58.727 C261.376,59.155 261.148,59.524 260.75,59.833 C260.351,60.142 259.912,60.296 259.431,60.296 C258.811,60.296 258.358,60.068 258.073,59.611 C257.789,59.154 257.701,58.59 257.81,57.919 L257.84,57.734 C257.949,57.034 258.209,56.464 258.62,56.023 C259.032,55.582 259.565,55.361 260.218,55.361 C260.722,55.361 261.117,55.526 261.402,55.856 C261.688,56.186 261.787,56.589 261.699,57.066 L261.69,57.088 L260.921,57.088 C260.971,56.784 260.921,56.533 260.771,56.337 C260.622,56.141 260.403,56.042 260.112,56.042 C259.714,56.042 259.396,56.208 259.159,56.539 C258.922,56.87 258.766,57.269 258.693,57.734 L258.663,57.919 C258.583,58.423 258.603,58.832 258.723,59.147 C258.843,59.462 259.115,59.62 259.537,59.62 L259.537,59.619 Z M262.337,57.783 C262.453,57.05 262.722,56.463 263.143,56.023 C263.563,55.582 264.083,55.361 264.7,55.361 C265.292,55.361 265.735,55.591 266.03,56.049 C266.324,56.507 266.416,57.085 266.304,57.783 L266.291,57.879 C266.171,58.615 265.901,59.201 265.481,59.639 C265.06,60.077 264.541,60.296 263.923,60.296 C263.331,60.296 262.888,60.068 262.593,59.611 C262.299,59.154 262.209,58.577 262.323,57.879 L262.336,57.783 L262.337,57.783 Z M263.171,57.879 C263.086,58.404 263.111,58.825 263.248,59.143 C263.384,59.461 263.644,59.62 264.028,59.62 C264.385,59.62 264.69,59.453 264.942,59.12 C265.194,58.788 265.36,58.374 265.439,57.88 L265.452,57.783 C265.534,57.267 265.506,56.848 265.368,56.526 C265.231,56.204 264.973,56.042 264.595,56.042 C264.235,56.042 263.929,56.209 263.679,56.543 C263.429,56.877 263.263,57.29 263.184,57.783 L263.171,57.879 Z M268.528,56.016 C268.705243,55.810443 268.924054,55.644801 269.17,55.53 C269.413,55.418 269.68,55.361 269.974,55.361 C270.24,55.361 270.465,55.433 270.648,55.577 C270.831,55.72 270.952,55.934 271.011,56.218 C271.198,55.948 271.421,55.738 271.679,55.588 C271.937,55.437 272.221,55.361 272.531,55.361 C272.951,55.361 273.264,55.531 273.471,55.869 C273.68,56.207 273.719,56.704 273.591,57.361 L273.024,60.204 L272.171,60.204 L272.742,57.352 C272.839,56.848 272.836,56.507 272.734,56.33 C272.631,56.153 272.43,56.064 272.132,56.064 C271.892,56.064 271.664,56.171 271.45,56.383 C271.229582,56.6039463 271.068,56.8765715 270.98,57.176 L270.98,57.185 L270.378,60.204 L269.526,60.204 L270.096,57.352 C270.191,56.874 270.185,56.54 270.079,56.35 C269.974,56.16 269.775,56.064 269.482,56.064 C269.259,56.064 269.06,56.121 268.884,56.234 C268.700334,56.3546834 268.545638,56.5145014 268.431,56.702 L267.728,60.204 L266.88,60.204 L267.83,55.449 L268.585,55.449 L268.528,56.016 Z M278.438,58.095 C278.291,58.827 278.044,59.377 277.698,59.745 C277.35,60.112 276.903,60.296 276.355,60.296 C276.1,60.296 275.871,60.248 275.667,60.151 C275.465693,60.0561481 275.292396,59.9107575 275.164,59.729 L274.702,62.032 L273.854,62.032 L275.168,55.449 L275.898,55.449 L275.867,55.919 C276.201183,55.5588464 276.67171,55.3562585 277.163,55.361 C277.676,55.361 278.056,55.615 278.303,56.121 C278.551,56.628 278.602,57.255 278.455,58.002 L278.438,58.095 Z M277.608,58.002 C277.718,57.434 277.702,56.969 277.557,56.607 C277.412,56.245 277.147,56.064 276.763,56.064 C276.567935,56.0637104 276.377561,56.1237919 276.218,56.236 C276.039061,56.3627829 275.885702,56.5222493 275.766,56.706 L275.3,59.031 C275.376,59.215 275.49,59.36 275.643,59.464 C275.795,59.568 275.99,59.62 276.227,59.62 C276.576,59.62 276.866,59.483 277.097,59.209 C277.329,58.935 277.493,58.563 277.59,58.095 L277.607,58.002 L277.608,58.002 Z M279.948,60.204 L279.1,60.204 L280.471,53.349 L281.319,53.349 L279.95,60.204 L279.948,60.204 Z M283.126,60.296 C282.528,60.296 282.076,60.074 281.77,59.631 C281.464,59.187 281.366,58.616 281.478,57.919 L281.508,57.725 C281.62,57.022 281.898,56.453 282.341,56.016 C282.785,55.579 283.265,55.361 283.781,55.361 C284.363,55.361 284.781,55.556 285.033,55.946 C285.285,56.336 285.361,56.85 285.261,57.488 L285.173,58.028 L282.308,58.028 C282.244,58.515 282.288,58.902 282.442,59.188 C282.596,59.476 282.859,59.62 283.232,59.62 C283.711692,59.6230208 284.177045,59.4565702 284.546,59.15 L284.786,59.712 C284.585501,59.8922754 284.353217,60.0336808 284.101,60.129 C283.789572,60.2461423 283.458661,60.3028213 283.126,60.296 Z M283.675,56.042 C283.429,56.042 283.191,56.165 282.961,56.412 C282.731,56.658 282.566,56.962 282.466,57.326 L282.48,57.352 L284.435,57.352 L284.453,57.238 C284.508,56.883 284.475,56.595 284.352,56.374 C284.229,56.153 284.003,56.042 283.675,56.042 Z M288.008,54.302 L287.775,55.449 L288.597,55.449 L288.469,56.091 L287.648,56.091 L287.072,58.978 C287.022,59.215 287.029,59.376 287.094,59.459 C287.158,59.543 287.262,59.584 287.406,59.584 C287.473,59.584 287.555,59.578 287.65,59.564 C287.745,59.551 287.82,59.537 287.876,59.523 L287.872,60.116 C287.759061,60.179195 287.636381,60.2231299 287.509,60.246 C287.352,60.279 287.198,60.296 287.046,60.296 C286.738,60.296 286.501,60.188 286.336,59.971 C286.17,59.754 286.133,59.423 286.224,58.978 L286.799,56.091 L286.105,56.091 L286.233,55.449 L286.927,55.449 L287.16,54.302 L288.008,54.302 Z M288.896,57.782 C289.013,57.05 289.282,56.464 289.702,56.022 C290.122,55.582 290.642,55.362 291.26,55.362 C291.852,55.362 292.295,55.59 292.59,56.049 C292.884,56.507 292.975,57.085 292.864,57.783 L292.851,57.879 C292.731,58.615 292.461,59.201 292.04,59.639 C291.62,60.077 291.1,60.296 290.482,60.296 C289.89,60.296 289.447,60.068 289.152,59.611 C288.858,59.154 288.768,58.577 288.882,57.879 L288.896,57.783 L288.896,57.782 Z M289.731,57.879 C289.646,58.404 289.671,58.825 289.808,59.143 C289.944,59.461 290.204,59.62 290.588,59.62 C290.945,59.62 291.25,59.453 291.502,59.12 C291.754,58.788 291.919,58.374 291.998,57.88 L292.011,57.783 C292.093,57.267 292.066,56.848 291.928,56.526 C291.79,56.204 291.532,56.042 291.154,56.042 C290.794,56.042 290.489,56.209 290.238,56.543 C289.988,56.877 289.823,57.29 289.744,57.783 L289.731,57.879 Z M263.677,97.473 L263.054,100.61 L262.017,100.61 L263.58,92.79 L266.4,92.79 C267.123,92.79 267.67,93.008 268.041,93.445 C268.411,93.882 268.529,94.444 268.393,95.131 C268.239,95.887 267.91,96.466 267.407,96.869 C266.904,97.272 266.257,97.473 265.466,97.473 L263.677,97.473 Z M263.843,96.646 L265.632,96.646 C266.076,96.646 266.452,96.501 266.762,96.211 C267.072,95.921 267.27,95.565 267.356,95.142 C267.446,94.684 267.402,94.316 267.225,94.038 C267.047,93.761 266.717,93.622 266.234,93.622 L264.45,93.622 L263.843,96.646 Z M271.717,100.61 C271.717,100.434 271.721,100.29 271.728,100.177 C271.735,100.065 271.748,99.949 271.766,99.831 C271.526067,100.084966 271.247661,100.299592 270.941,100.467 C270.631,100.637 270.321,100.723 270.009,100.723 C269.479,100.723 269.089,100.564 268.836,100.247 C268.583,99.93 268.513,99.507 268.624,98.977 C268.738,98.387 269.029,97.943 269.497,97.647 C269.964,97.352 270.563,97.204 271.293,97.204 L272.287,97.204 L272.4,96.63 C272.471,96.268 272.432,95.993 272.281,95.805 C272.131,95.617 271.881,95.523 271.529,95.523 C271.229,95.523 270.957,95.612 270.713,95.789 C270.47,95.966 270.325,96.173 270.278,96.409 L269.295,96.409 L269.285,96.377 C269.356,95.93 269.625,95.537 270.09,95.198 C270.556,94.86 271.11,94.691 271.755,94.691 C272.332,94.691 272.787,94.861 273.122,95.204 C273.457,95.546 273.563,96.024 273.442,96.641 L272.883,99.439 C272.836,99.657 272.804,99.859 272.786,100.046 C272.768097,100.233574 272.768097,100.422426 272.786,100.61 L271.717,100.61 Z M270.342,99.836 C270.632,99.836 270.928,99.752 271.229,99.584 C271.529,99.416 271.762,99.217 271.927,98.988 L272.142,97.918 L271.116,97.918 C270.761,97.918 270.443,98.028 270.16,98.246 C269.877,98.465 269.709,98.716 269.655,98.998 C269.598,99.274 269.625,99.483 269.735,99.624 C269.847,99.766 270.049,99.836 270.342,99.836 Z M274.472,97.704 C274.67,96.709 274.989,95.958 275.432,95.451 C275.874,94.944 276.437,94.691 277.121,94.691 C277.439,94.691 277.724,94.761 277.975,94.901 C278.225,95.04 278.428,95.239 278.582,95.496 L278.807,94.798 L279.688,94.798 L278.544,100.535 C278.383,101.337 278.06,101.941 277.574,102.347 C277.089,102.754 276.46,102.957 275.687,102.957 C275.443,102.957 275.172,102.917 274.873,102.839 C274.609935,102.775383 274.358755,102.67005 274.129,102.527 L274.553,101.705 C274.7,101.813 274.893,101.9 275.133,101.966 C275.373,102.032 275.613,102.066 275.853,102.066 C276.286,102.066 276.645,101.93 276.93,101.66 C277.215,101.39 277.405,101.014 277.502,100.535 L277.582,100.137 C277.379,100.33 277.153,100.477 276.906,100.575 C276.652902,100.674718 276.383026,100.724959 276.111,100.723 C275.488,100.723 275.014,100.443 274.691,99.882 C274.366,99.322 274.287,98.633 274.451,97.817 L274.473,97.704 L274.472,97.704 Z M275.488,97.817 C275.363,98.429 275.39,98.923 275.568,99.299 C275.748,99.675 276.073,99.863 276.546,99.863 C276.8,99.863 277.03,99.791 277.236,99.646 C277.442,99.501 277.631,99.294 277.803,99.026 L278.345,96.318 C278.256121,96.0957603 278.107253,95.9025788 277.915,95.76 C277.725,95.62 277.491,95.55 277.212,95.55 C276.782,95.55 276.423,95.746 276.135,96.138 C275.847,96.53 275.638,97.052 275.509,97.704 L275.488,97.817 Z M280.322,97.65 C280.465,96.755 280.794,96.038 281.308,95.5 C281.821,94.96 282.456,94.69 283.212,94.69 C283.935,94.69 284.477,94.971 284.836,95.531 C285.196,96.091 285.308,96.798 285.172,97.651 L285.156,97.768 C285.009,98.668 284.679,99.384 284.165,99.92 C283.651,100.455 283.016,100.723 282.261,100.723 C281.538,100.723 280.996,100.443 280.636,99.885 C280.276,99.326 280.166,98.621 280.306,97.768 L280.322,97.65 Z M281.342,97.768 C281.239,98.409 281.27,98.924 281.436,99.313 C281.603,99.701 281.921,99.895 282.39,99.895 C282.827,99.895 283.2,99.692 283.507,99.285 C283.815,98.879 284.017,98.374 284.114,97.768 L284.13,97.65 C284.23,97.02 284.196,96.508 284.028,96.114 C283.86,95.72 283.545,95.524 283.083,95.524 C282.643,95.524 282.269,95.727 281.963,96.136 C281.657,96.544 281.455,97.049 281.359,97.65 L281.342,97.768 Z M224.607,180.221 L221.18,180.221 L221.18,183.557 L219.875,183.557 L219.875,175.737 L225.155,175.737 L225.155,176.784 L221.18,176.784 L221.18,179.174 L224.607,179.174 L224.607,180.221 Z M227.48,183.557 L226.175,183.557 L226.175,177.745 L227.48,177.745 L227.48,183.557 Z M227.48,176.322 L226.175,176.322 L226.175,175.178 L227.48,175.178 L227.48,176.322 Z M230.123,177.745 L230.198,178.583 C230.388,178.286 230.627,178.054 230.915,177.888 C231.203,177.721 231.528,177.638 231.89,177.638 C232.495,177.638 232.967,177.821 233.305,178.188 C233.643,178.555 233.813,179.128 233.813,179.904 L233.813,183.557 L232.507,183.557 L232.507,179.915 C232.507,179.478 232.417,179.168 232.237,178.983 C232.055,178.799 231.781,178.707 231.412,178.707 C230.936237,178.69877 230.490424,178.938532 230.235,179.34 L230.235,183.557 L228.93,183.557 L228.93,177.745 L230.123,177.745 Z M238.668,183.557 C238.623061,183.415515 238.584687,183.272029 238.553,183.127 C238.523,182.987 238.502,182.847 238.491,182.708 C238.311,182.98 238.076,183.208 237.784,183.393 C237.490771,183.577551 237.150443,183.673398 236.804,183.669 C236.199,183.669 235.734,183.514 235.41,183.202 C235.086,182.891 234.924,182.462 234.924,181.919 C234.924,181.356 235.146,180.919 235.59,180.605 C236.034,180.292 236.66,180.135 237.465,180.135 L238.48,180.135 L238.48,179.625 C238.48,179.321 238.39,179.083 238.211,178.911 C238.032,178.739 237.776,178.653 237.443,178.653 C237.146,178.653 236.91,178.724 236.734,178.868 C236.563855,179.000402 236.466333,179.205459 236.471,179.421 L235.214,179.421 L235.209,179.389 C235.184,178.93 235.389,178.524 235.824,178.169 C236.259,177.815 236.826,177.638 237.524,177.638 C238.201,177.638 238.747,177.81 239.162,178.153 C239.578,178.497 239.785,178.991 239.785,179.636 L239.785,182.219 C239.785,182.459 239.801,182.689 239.834,182.909 C239.866,183.129 239.918,183.345 239.989,183.557 L238.668,183.557 Z M237.068,182.622 C237.397,182.622 237.693,182.54 237.956,182.375 C238.22,182.21 238.394,182.022 238.48,181.811 L238.48,180.951 L237.443,180.951 C237.063,180.951 236.767,181.046 236.552,181.234 C236.337,181.422 236.23,181.643 236.23,181.897 C236.23,182.119 236.302,182.295 236.447,182.427 C236.592,182.557 236.799,182.622 237.067,182.622 L237.068,182.622 Z M242.546,183.557 L241.241,183.557 L241.241,175.177 L242.546,175.177 L242.546,183.557 Z M8.305,134.465 L7,134.465 L7,126.645 L8.305,126.645 L8.305,134.465 Z M11.104,128.654 L11.179,129.492 C11.369,129.194 11.608,128.962 11.896,128.796 C12.184,128.63 12.509,128.546 12.871,128.546 C13.476,128.546 13.948,128.73 14.286,129.096 C14.624,129.464 14.794,130.036 14.794,130.813 L14.794,134.465 L13.487,134.465 L13.487,130.824 C13.487,130.387 13.397,130.076 13.217,129.892 C13.035,129.707 12.761,129.615 12.392,129.615 C11.9160395,129.606986 11.4701838,129.84715 11.215,130.249 L11.215,134.465 L9.91,134.465 L9.91,128.654 L11.103,128.654 L11.104,128.654 Z M17.544,134.465 L16.237,134.465 L16.237,128.654 L17.543,128.654 L17.543,134.465 L17.544,134.465 Z M17.544,127.23 L16.237,127.23 L16.237,126.086 L17.543,126.086 L17.543,127.23 L17.544,127.23 Z M21.405,133.536 C21.725,133.536 21.993,133.442 22.211,133.254 C22.4225536,133.081215 22.5433949,132.821112 22.539,132.548 L23.72,132.548 L23.731,132.58 C23.749,133.124 23.528,133.593 23.068,133.987 C22.608,134.381 22.053,134.578 21.405,134.578 C20.55,134.578 19.893,134.302 19.437,133.751 C18.98,133.199 18.752,132.501 18.752,131.656 L18.752,131.468 C18.752,130.627 18.98,129.929 19.437,129.376 C19.893,128.823 20.55,128.546 21.405,128.546 C22.104,128.546 22.67,128.75 23.105,129.156 C23.54,129.562 23.751,130.079 23.736,130.706 L23.726,130.738 L22.539,130.738 C22.539,130.419 22.434,130.148 22.224,129.927 C22.015,129.705 21.742,129.594 21.405,129.594 C20.915,129.594 20.567,129.772 20.363,130.128 C20.159,130.484 20.057,130.931 20.057,131.468 L20.057,131.656 C20.057,132.204 20.159,132.654 20.363,133.007 C20.567,133.36 20.915,133.537 21.405,133.537 L21.405,133.536 Z M26.17,134.466 L24.864,134.466 L24.864,128.654 L26.17,128.654 L26.17,134.465 L26.17,134.466 Z M26.17,127.23 L24.864,127.23 L24.864,126.086 L26.17,126.086 L26.17,127.23 Z M27.389,131.506 C27.389,130.643 27.625,129.934 28.098,129.379 C28.578,128.824 29.228,128.546 30.048,128.546 C30.882,128.546 31.535,128.824 32.008,129.379 C32.484,129.93 32.722,130.639 32.722,131.506 L32.722,131.619 C32.722,132.492 32.484,133.205 32.008,133.756 C31.535,134.304 30.885,134.578 30.058,134.578 C29.228,134.578 28.574,134.302 28.098,133.751 C27.625,133.199 27.388,132.489 27.388,131.619 L27.388,131.506 L27.389,131.506 Z M28.694,131.619 C28.694,132.184 28.805,132.646 29.027,133.004 C29.245,133.359 29.589,133.536 30.058,133.536 C30.513,133.536 30.853,133.359 31.078,133.004 C31.308,132.646 31.422,132.184 31.422,131.619 L31.422,131.506 C31.422,130.951 31.308,130.494 31.079,130.136 C30.853,129.775 30.509,129.594 30.047,129.594 C29.593,129.594 29.253,129.774 29.027,130.136 C28.805,130.498 28.694,130.954 28.694,131.506 L28.694,131.619 Z" id="Shape" fill="#2A3052" fill-rule="nonzero"></path>
        </g>
    </g>
</svg>