<svg width="300" height="199" viewBox="0 0 300 199" xmlns="http://www.w3.org/2000/svg"><title>Group 2</title><g fill="none" fill-rule="evenodd"><path fill="#F1F2F2" fill-rule="nonzero" d="M0 0h300v199H0z"/><path d="M39.125 55.375V74.75H75.25V55.375H39.125zm0-1H75.25V34h1v20.375h36.125V34h1v20.375H149.5V34h1v20.375h36.125V34h1v20.375h36.125V34h1v20.375h36.125V34h1v20.375H299.5v1h-37.625V74.75H299.5v1h-37.625v19.375H299.5v1h-37.625V115.5H299.5v1h-37.625v19.375H299.5v1h-37.625v19.375H299.5v1h-37.625v19.375H299.5v1h-37.625V199h-1v-21.375H224.75V199h-1v-21.375h-36.125V199h-1v-21.375H150.5V199h-1v-21.375h-36.125V199h-1v-21.375H76.25V199h-1v-21.375H39.125V199h-1v-21.375H1.5v-1h36.625V157.25H1.5v-1h36.625v-19.375H1.5v-1h36.625V116.5H1.5v-1h36.625V96.125H1.5v-1h36.625V75.75H1.5v-1h36.625V55.375H1.5v-1h36.625V34h1v20.375zm221.75 1H224.75V74.75h36.125V55.375zm-37.125 0h-36.125V74.75h36.125V55.375zm-37.125 0H150.5V74.75h36.125V55.375zm-37.125 0h-36.125V74.75H149.5V55.375zm-37.125 0H76.25V74.75h36.125V55.375zM39.125 75.75v19.375H75.25V75.75H39.125zm221.75 0H224.75v19.375h36.125V75.75zm-37.125 0h-36.125v19.375h36.125V75.75zm-37.125 0H150.5v19.375h36.125V75.75zm-37.125 0h-36.125v19.375H149.5V75.75zm-37.125 0H76.25v19.375h36.125V75.75zm-73.25 20.375V115.5H75.25V96.125H39.125zm221.75 0H224.75V115.5h36.125V96.125zm-37.125 0h-36.125V115.5h36.125V96.125zm-37.125 0H150.5V115.5h36.125V96.125zm-37.125 0h-36.125V115.5H149.5V96.125zm-37.125 0H76.25V115.5h36.125V96.125zM39.125 116.5v19.375H75.25V116.5H39.125zm221.75 0H224.75v19.375h36.125V116.5zm-37.125 0h-36.125v19.375h36.125V116.5zm-37.125 0H150.5v19.375h36.125V116.5zm-37.125 0h-36.125v19.375H149.5V116.5zm-37.125 0H76.25v19.375h36.125V116.5zm-73.25 20.375v19.375H75.25v-19.375H39.125zm221.75 0H224.75v19.375h36.125v-19.375zm-37.125 0h-36.125v19.375h36.125v-19.375zm-37.125 0H150.5v19.375h36.125v-19.375zm-37.125 0h-36.125v19.375H149.5v-19.375zm-37.125 0H76.25v19.375h36.125v-19.375zm-73.25 20.375v19.375H75.25V157.25H39.125zm221.75 0H224.75v19.375h36.125V157.25zm-37.125 0h-36.125v19.375h36.125V157.25zm-37.125 0H150.5v19.375h36.125V157.25zm-37.125 0h-36.125v19.375H149.5V157.25zm-37.125 0H76.25v19.375h36.125V157.25z" fill="#DFDEDE" fill-rule="nonzero"/><path stroke="#C2C2C2" stroke-width="2" d="M1 1h298v197H1z"/><path fill="#C2C2C2" fill-rule="nonzero" d="M0 33h300v2H0z"/><g transform="translate(4 35.255)"><path d="M.9 37.663h290.625" stroke="#15212D" stroke-width="1.133" fill="#D8D8D8" fill-rule="nonzero" stroke-dasharray="7.5"/><path d="M237.863.725V161" stroke="#2A3052" stroke-width="1.211" stroke-linejoin="round"/><path d="M.9 130.25h290.625" stroke="#15212D" stroke-width="1.133" fill="#D8D8D8" fill-rule="nonzero" stroke-dasharray="7.5"/><path stroke="#2A3052" stroke-width="3.633" stroke-linecap="round" stroke-linejoin="round" d="M17.25 82.063L53.115 66l26.494 21.96 38.066-80.595 44.918 122.993 28.848-61.497 46.185-31.54"/><ellipse cx="8.363" cy="9.35" rx="8.137" ry="8.475" opacity=".6" transform="translate(229.5 27)" fill="#FFF" fill-rule="nonzero"/><ellipse stroke="#E88024" stroke-width="2.422" cx="237.863" cy="36.35" rx="8.137" ry="8.475"/><ellipse cx="8.137" cy="9.35" rx="8.137" ry="8.475" opacity=".6" transform="translate(154.5 120.75)" fill="#FFF" fill-rule="nonzero"/><ellipse stroke="#E88024" stroke-width="2.422" cx="162.637" cy="130.1" rx="8.137" ry="8.475"/></g><g fill="#2A3052" fill-rule="nonzero"><path d="M13.825 125.05l.092.944a2.058 2.058 0 0 1 1.826-1.036c.67 0 1.187.183 1.553.61.365.395.548 1.004.548 1.826v3.957h-1.127v-3.927c0-.548-.122-.943-.335-1.187-.213-.243-.548-.335-.974-.335-.335 0-.609.092-.852.244a1.758 1.758 0 0 0-.609.639v4.566h-1.126v-6.27l1.004-.031zM9.887 122.869h1.073v8.482H9.887zM28.535 125.05h1.096v6.034h-1.096zM28.55 122.309v1.088h1.116v-1.088zM19.542 125.05h1.097v6.034h-1.097zM19.557 122.309v1.088h1.117v-1.088zM26.124 127.204c.615-.022.926 0 1.055 0 0-.687-.452-2.27-2.523-2.207-2.072.062-2.624 2.325-2.533 3.595.092 1.27.923 2.825 2.77 2.77 1.846-.054 2.286-1.546 2.286-2.064a90.302 90.302 0 0 0-1.055 0c0 .508-.353 1.131-1.232 1.19-.878.06-1.538-.624-1.623-1.896-.084-1.272.263-2.73 1.412-2.73 1.148 0 1.443.858 1.443 1.342zM33.808 124.995c1.07 0 2.652.474 2.81 2.914.16 2.44-1.359 3.442-2.714 3.442-1.356 0-2.754-.946-2.754-3.306 0-2.36 1.587-3.05 2.658-3.05zm.086.884c-1.08 0-1.629.918-1.629 2.188s.384 2.437 1.629 2.437 1.712-1.174 1.613-2.53c-.099-1.358-.533-2.095-1.613-2.095z"/></g><path d="M252.035 52.974c.954 0 1.747.241 2.368.747.597.483.965 1.15 1.092 1.977h-1.219c-.138-.552-.402-.966-.793-1.23-.39-.264-.874-.39-1.471-.39-.886 0-1.552.298-2 .907-.426.552-.633 1.31-.633 2.265 0 .989.207 1.747.62 2.288.438.575 1.116.862 2.036.862.597 0 1.103-.15 1.494-.448.414-.322.701-.805.862-1.449h1.219c-.184.954-.61 1.702-1.288 2.242-.632.506-1.39.759-2.276.759-1.345 0-2.357-.437-3.035-1.288-.598-.736-.885-1.724-.885-2.966 0-1.218.299-2.207.92-2.977.69-.874 1.678-1.3 2.989-1.3zm5.587.046c.24 0 .448.069.609.23.16.149.241.344.241.586a.816.816 0 0 1-.253.598.863.863 0 0 1-.597.23.843.843 0 0 1-.598-.23.824.824 0 0 1-.242-.598c0-.242.08-.437.242-.586.16-.161.356-.23.598-.23zm-.61 2.38h1.219v5.943h-1.219v-5.944zm5.38-.162c.966 0 1.713.322 2.219.989.46.598.701 1.425.713 2.483h-4.507c.046.575.196 1.023.472 1.334.276.298.655.46 1.138.46.425 0 .77-.104 1.034-.3.207-.16.38-.425.54-.77h1.22c-.139.552-.403 1.023-.817 1.391-.517.449-1.173.679-1.966.679-.873 0-1.575-.276-2.08-.817-.552-.574-.828-1.345-.828-2.322 0-.885.253-1.62.782-2.219.505-.609 1.207-.908 2.08-.908zm.035 1c-.46 0-.816.127-1.092.403-.253.264-.426.644-.495 1.15h3.208c-.115-1.035-.656-1.553-1.621-1.553zm6.69-1c.3 0 .564.046.77.15v1.218a2.901 2.901 0 0 0-.862-.126c-.367 0-.7.15-.988.448-.31.322-.46.747-.46 1.265v3.15h-1.219v-5.944h1.219v.897c.15-.322.345-.563.575-.724.276-.23.598-.334.965-.334zm4.277 0c.299 0 .563.046.77.15v1.218a2.901 2.901 0 0 0-.862-.126c-.368 0-.701.15-.989.448-.31.322-.46.747-.46 1.265v3.15h-1.218v-5.944h1.218v.897c.15-.322.345-.563.575-.724.276-.23.598-.334.966-.334zm4.035 0c.966 0 1.713.322 2.219.989.46.598.7 1.425.712 2.483h-4.506c.046.575.195 1.023.471 1.334.276.298.656.46 1.138.46.426 0 .77-.104 1.035-.3.207-.16.38-.425.54-.77h1.219c-.138.552-.402 1.023-.816 1.391-.518.449-1.173.679-1.966.679-.874 0-1.575-.276-2.08-.817-.553-.574-.829-1.345-.829-2.322 0-.885.253-1.62.782-2.219.506-.609 1.207-.908 2.08-.908zm.034 1c-.46 0-.816.127-1.092.403-.253.264-.425.644-.494 1.15h3.207c-.115-1.035-.655-1.553-1.62-1.553z" fill="#2A3052" fill-rule="nonzero"/><path d="M24.662 18.758l.014.042c.019 1.09-.313 1.942-.996 2.56-.682.617-1.624.925-2.826.925-1.225 0-2.214-.394-2.967-1.181-.753-.788-1.129-1.806-1.129-3.055v-2.027c0-1.243.367-2.262 1.101-3.054.734-.793 1.697-1.189 2.89-1.189 1.243 0 2.216.304 2.917.912.702.608 1.043 1.463 1.024 2.567l-.014.042h-1.992c0-.655-.157-1.142-.473-1.462-.316-.32-.803-.48-1.462-.48-.613 0-1.09.246-1.435.74-.343.492-.515 1.13-.515 1.91v2.041c0 .786.181 1.426.544 1.922.362.496.866.743 1.51.743.613 0 1.07-.16 1.372-.48.302-.32.452-.812.452-1.476h1.985zm4.615 3.527c-1.131 0-2.015-.347-2.651-1.041-.636-.694-.954-1.589-.954-2.683v-.28c0-1.137.309-2.067.926-2.792.617-.724 1.466-1.084 2.546-1.08 1.02 0 1.801.312 2.346.937.545.624.817 1.464.817 2.52v1.06h-4.524l-.02.042c.032.519.19.94.473 1.262.282.323.702.484 1.259.484.458 0 .847-.046 1.167-.14.32-.093.651-.236.993-.428l.554 1.263c-.304.248-.716.456-1.235.624a5.474 5.474 0 0 1-1.697.252zm-.133-6.298c-.412 0-.728.142-.95.425-.223.282-.357.658-.404 1.125l.014.035h2.497v-.154c0-.444-.091-.794-.273-1.048-.183-.255-.477-.383-.884-.383zm8.346.323l-.75-.021c-.304 0-.555.063-.751.19a1.2 1.2 0 0 0-.449.532v5.127H33.5V14.55h1.9l.091 1.122c.178-.398.408-.708.69-.93a1.54 1.54 0 0 1 .98-.333c.102 0 .197.008.283.025.087.016.174.036.263.06l-.217 1.816zm5.057 0l-.75-.021c-.305 0-.555.063-.751.19a1.2 1.2 0 0 0-.45.532v5.127h-2.04V14.55h1.9l.092 1.122c.177-.398.408-.708.69-.93a1.54 1.54 0 0 1 .979-.333c.103 0 .198.008.284.025.087.016.174.036.263.06l-.217 1.816zm5.54 5.828a4.307 4.307 0 0 1-.193-.547 3.805 3.805 0 0 1-.115-.59c-.21.37-.489.677-.835.92s-.757.364-1.234.364c-.795 0-1.408-.204-1.838-.613-.43-.41-.645-.967-.645-1.673 0-.743.286-1.32.86-1.729.572-.409 1.408-.614 2.506-.614h1.15v-.603c0-.364-.095-.647-.287-.848-.192-.201-.477-.302-.856-.302-.332 0-.588.08-.768.242-.18.161-.27.382-.27.663h-1.97l-.014-.042c-.033-.64.246-1.194.838-1.659.591-.465 1.364-.698 2.318-.698.911 0 1.649.23 2.212.688.564.458.846 1.115.846 1.97v3.135c0 .356.026.69.08 1.003.054.314.14.624.256.933h-2.04zm-1.872-1.368c.355 0 .673-.088.953-.266.281-.178.473-.383.576-.617v-1.073h-1.15c-.435 0-.764.107-.986.322a1.06 1.06 0 0 0-.333.793c0 .257.083.462.249.614.166.151.396.227.69.227zm9.103-4.46l-.75-.021c-.304 0-.554.063-.75.19a1.2 1.2 0 0 0-.45.532v5.127h-2.04V14.55h1.9l.091 1.122c.178-.398.408-.708.691-.93a1.54 1.54 0 0 1 .979-.333c.102 0 .197.008.284.025.086.016.174.036.263.06l-.218 1.816zm5.436 2.251h-4.131v-1.578h4.13v1.578zm2.04 3.577V11.926h3.346c1.202 0 2.139.235 2.812.705.674.47 1.01 1.168 1.01 2.094 0 .467-.121.886-.364 1.255-.244.37-.599.648-1.066.835.635.117 1.115.393 1.437.827.323.435.484.943.484 1.522 0 .978-.322 1.718-.968 2.22-.645.503-1.559.754-2.742.754h-3.948zm2.048-4.517v2.946h1.901c.542 0 .956-.118 1.241-.354.286-.236.428-.586.428-1.049 0-.495-.14-.876-.42-1.143-.281-.266-.704-.4-1.27-.4h-1.88zm0-1.416h1.368c.547 0 .968-.113 1.263-.337.294-.224.441-.552.441-.982 0-.472-.148-.82-.445-1.045-.297-.224-.74-.336-1.33-.336h-1.297v2.7zm11.425 5.933a4.307 4.307 0 0 1-.192-.547 3.805 3.805 0 0 1-.116-.59c-.21.37-.489.677-.835.92s-.757.364-1.234.364c-.795 0-1.408-.204-1.838-.613-.43-.41-.645-.967-.645-1.673 0-.743.286-1.32.86-1.729.572-.409 1.408-.614 2.507-.614h1.15v-.603c0-.364-.096-.647-.288-.848-.192-.201-.477-.302-.855-.302-.332 0-.588.08-.768.242-.18.161-.27.382-.27.663h-1.971l-.014-.042c-.033-.64.246-1.194.838-1.659.591-.465 1.364-.698 2.318-.698.912 0 1.65.23 2.213.688.563.458.845 1.115.845 1.97v3.135c0 .356.027.69.08 1.003.054.314.14.624.256.933h-2.04zm-1.872-1.368c.355 0 .673-.088.954-.266.28-.178.472-.383.575-.617v-1.073h-1.15c-.435 0-.764.107-.986.322a1.06 1.06 0 0 0-.333.793c0 .257.083.462.249.614.166.151.396.227.69.227zm7.322-6.22v7.869c0 .888-.236 1.574-.708 2.058-.473.484-1.13.726-1.971.726-.187 0-.358-.01-.512-.028a4.246 4.246 0 0 1-.491-.091l.098-1.564a2.62 2.62 0 0 0 .666.084c.276 0 .489-.097.638-.291.15-.194.225-.492.225-.894v-7.87h2.055zm-.042-1.831H79.62v-1.522h2.055v1.522zM83 18.274c0-1.132.316-2.059.947-2.781.631-.723 1.506-1.084 2.623-1.084 1.122 0 2.001.36 2.637 1.08.636.72.954 1.648.954 2.785v.147c0 1.14-.317 2.07-.95 2.788-.634.718-1.51 1.076-2.627 1.076-1.122 0-2-.358-2.633-1.076-.634-.718-.95-1.647-.95-2.788v-.147zm2.041.147c0 .692.122 1.247.365 1.666.243.418.636.627 1.178.627.529 0 .915-.21 1.161-.63.245-.422.368-.976.368-1.663v-.147c0-.674-.124-1.223-.372-1.648-.247-.426-.638-.639-1.17-.639-.53 0-.916.214-1.162.642-.245.428-.368.976-.368 1.645v.147z" fill="#020202" fill-rule="nonzero"/><path d="M137.422 187.157h3.672v.797h-4.691v-7.53h1.019v6.733zm5.735.797h-1.019v-5.596h1.02v5.596zm-.015-7.861h1.19l.01.03-1.392 1.345h-.765l.957-1.375zm2.518 2.265l.073.734a1.9 1.9 0 0 1 .695-.618 2.09 2.09 0 0 1 .98-.22c.373 0 .692.087.96.259.267.172.468.43.602.776.18-.321.413-.574.701-.758a1.833 1.833 0 0 1 1.011-.277c.569 0 1.019.196 1.35.587.33.392.496.98.496 1.766v3.347h-1.018v-3.357c0-.552-.095-.942-.285-1.171-.19-.23-.472-.344-.848-.344-.348 0-.63.12-.846.362-.215.241-.342.546-.38.915v3.595h-1.024v-3.357c0-.524-.097-.908-.292-1.15-.195-.244-.475-.365-.84-.365-.31 0-.566.064-.766.191-.2.128-.353.307-.46.538v4.143h-1.019v-5.596h.91zm9.45 5.596h-1.02v-5.596h1.02v5.596zm0-7.029h-1.02v-1.04h1.02v1.04zm2.983.083v1.35h1.06v.755h-1.06v3.398c0 .262.054.446.163.553.109.107.253.16.432.16a.946.946 0 0 0 .196-.023c.073-.015.133-.032.181-.049l.14.698a.9.9 0 0 1-.336.153c-.148.04-.295.06-.44.06-.413 0-.743-.126-.987-.376-.245-.25-.368-.642-.368-1.176v-3.398h-.89v-.755h.89v-1.35h1.02zm4.469 7.054c-.804 0-1.43-.257-1.88-.77-.45-.514-.675-1.19-.675-2.028v-.227c0-.804.232-1.468.695-1.994.464-.526 1.03-.789 1.7-.789.747 0 1.309.233 1.683.699.374.465.56 1.084.56 1.856v.538h-3.578l-.016.026c0 .562.125 1.018.373 1.368.248.35.627.525 1.138.525.344 0 .647-.05.907-.148.26-.098.484-.233.67-.406l.398.662c-.2.193-.464.356-.791.49-.328.132-.722.198-1.184.198zm-.16-5.006c-.356 0-.65.137-.883.411-.232.274-.374.625-.426 1.053l.01.025h2.524v-.082c0-.407-.1-.743-.3-1.009-.2-.265-.509-.398-.926-.398zm7.12 4.898h-1.018v-5.596h1.019v5.596zm0-7.029h-1.018v-1.04h1.019v1.04zm2.478 1.433l.072.832c.187-.296.42-.526.701-.69.281-.164.601-.246.96-.246.603 0 1.07.177 1.401.53.331.354.497.9.497 1.637v3.533h-1.02v-3.512c0-.493-.097-.843-.291-1.05-.195-.207-.493-.31-.893-.31-.313 0-.58.063-.799.189a1.372 1.372 0 0 0-.52.53v4.153h-1.018v-5.596h.91zm5.534 5.596v-4.841h-.874v-.755h.874v-.709c0-.596.156-1.057.468-1.383.312-.326.747-.489 1.306-.489.117 0 .235.01.354.028.119.02.25.046.396.08l-.124.776a2.29 2.29 0 0 0-.502-.051c-.297 0-.517.088-.662.266-.145.178-.217.435-.217.773v.709h1.013v.755h-1.013v4.84h-1.02zm5.254.108c-.803 0-1.43-.257-1.88-.77-.45-.514-.675-1.19-.675-2.028v-.227c0-.804.232-1.468.696-1.994.464-.526 1.03-.789 1.699-.789.748 0 1.31.233 1.683.699.374.465.562 1.084.562 1.856v.538h-3.58l-.015.026c0 .562.124 1.018.373 1.368.248.35.627.525 1.137.525.345 0 .648-.05.908-.148.26-.098.484-.233.67-.406l.398.662c-.2.193-.464.356-.791.49-.328.132-.723.198-1.185.198zm-.16-5.006c-.355 0-.65.137-.882.411-.233.274-.375.625-.426 1.053l.01.025h2.524v-.082c0-.407-.1-.743-.3-1.009-.2-.265-.509-.398-.926-.398zm6.035.202l-.522-.031c-.269 0-.496.063-.68.191a1.228 1.228 0 0 0-.427.538v3.998h-1.019v-5.596h.91l.099.817c.159-.29.354-.516.587-.678.233-.162.5-.243.804-.243a1.44 1.44 0 0 1 .388.057l-.14.947zm2.162 4.696h-1.019v-5.596h1.02v5.596zm0-7.029h-1.019v-1.04h1.02v1.04zm1.33 4.179c0-.828.223-1.51.672-2.045.448-.537 1.056-.805 1.825-.805.776 0 1.389.268 1.839.802.45.534.675 1.217.675 2.048v.114c0 .834-.224 1.517-.673 2.048-.448.53-1.058.796-1.83.796-.773 0-1.384-.266-1.834-.799-.45-.533-.675-1.214-.675-2.045v-.114zm1.018.114c0 .593.125 1.082.375 1.469.25.386.622.579 1.115.579.486 0 .855-.193 1.106-.58.252-.386.378-.875.378-1.468v-.114c0-.586-.127-1.074-.38-1.464-.254-.39-.625-.584-1.115-.584-.486 0-.854.195-1.104.584-.25.39-.375.878-.375 1.464v.114zm7.887-1.96l-.522-.031c-.27 0-.496.063-.68.191a1.228 1.228 0 0 0-.427.538v3.998h-1.019v-5.596h.91l.099.817c.158-.29.354-.516.587-.678.232-.162.5-.243.804-.243a1.44 1.44 0 0 1 .388.057l-.14.947z" fill="#2A3052"/></g></svg>