<?xml version="1.0" encoding="UTF-8"?>
<svg width="299px" height="197px" viewBox="0 0 299 197" version="1.1" xmlns="http://www.w3.org/2000/svg" xmlns:xlink="http://www.w3.org/1999/xlink">
    <!-- Generator: Sketch 52.6 (67491) - http://www.bohemiancoding.com/sketch -->
    <title>ends between</title>
    <desc>Created with Sketch.</desc>
    <g id="Page-1" stroke="none" stroke-width="1" fill="none" fill-rule="evenodd">
        <g id="ends-between">
            <g id="Group">
                <polygon id="Path" fill="#F1F2F2" points="0 0 299 0 299 197 0 197"></polygon>
                <path d="M1.98671096,1.9798995 L1.98671096,195.020101 L297.013289,195.020101 L297.013289,1.9798995 L1.98671096,1.9798995 Z M299,0 L299,197 L0,197 L0,0 L299,0 Z" id="Path" fill="#C2C2C2" fill-rule="nonzero"></path>
                <g id="Group-9" transform="translate(2.000000, 33.000000)">
                    <path d="M2.887,22.4456836 L2.887,21.2388448 L292.54325,21.2388448 L292.54325,22.4456836 L2.887,22.4456836 Z M2.887,62.9796458 L2.887,61.772807 L292.54325,61.772807 L292.54325,62.9796458 L2.887,62.9796458 Z M2.887,103.513608 L2.887,102.30677 L292.54325,102.30677 L292.54325,103.513608 L2.887,103.513608 Z M2.887,144.010211 L2.887,142.803373 L292.54325,142.803373 L292.54325,144.010211 L2.887,144.010211 Z M37.2665806,1.59396226 L38.4734194,1.59396226 L38.4734194,161.264151 L37.2665806,161.264151 L37.2665806,1.59396226 Z M73.9314556,1.59396226 L75.1382944,1.59396226 L75.1382944,161.264151 L73.9314556,161.264151 L73.9314556,1.59396226 Z M110.558956,1.59396226 L111.765794,1.59396226 L111.765794,161.264151 L110.558956,161.264151 L110.558956,1.59396226 Z M147.223831,1.59396226 L148.430669,1.59396226 L148.430669,161.264151 L147.223831,161.264151 L147.223831,1.59396226 Z M183.851331,1.59396226 L185.058169,1.59396226 L185.058169,161.264151 L183.851331,161.264151 L183.851331,1.59396226 Z M220.478831,1.59396226 L221.685669,1.59396226 L221.685669,161.264151 L220.478831,161.264151 L220.478831,1.59396226 Z M2.887,83.2279477 L2.887,82.0211089 L292.54325,82.0211089 L292.54325,83.2279477 L2.887,83.2279477 Z" id="Shape" fill="#DFDEDE" fill-rule="nonzero"></path>
                    <path d="M257.143706,2.59396226 L258.350544,2.59396226 L258.350544,162.264151 L257.143706,162.264151 L257.143706,2.59396226 Z M2.887,43.7313439 L2.887,42.5245051 L292.54325,42.5245051 L292.54325,43.7313439 L2.887,43.7313439 Z M2.887,124.76191 L2.887,123.555072 L292.54325,123.555072 L292.54325,124.76191 L2.887,124.76191 Z" id="Shape" fill="#2A3052" fill-rule="nonzero"></path>
                    <polygon id="Path" fill="#C2C2C2" fill-rule="nonzero" points="0.794 2.60551619 0.794 0.191464945 294.63625 0.191464945 294.63625 2.60551619"></polygon>
                    <path d="M38.6640937,85.2515275 C37.7655269,85.6900933 36.6815667,85.3171888 36.2430008,84.418622 C35.804435,83.5200552 36.1773395,82.436095 37.0759063,81.9975291 L78.5621563,61.7492272 C79.1166106,61.4786133 79.7707076,61.5089858 80.2976987,61.8298159 L118.670814,85.1912193 L146.443626,57.7912015 C147.111703,57.1320922 148.172684,57.092765 148.887723,57.7006067 L184.536059,88.0046197 L220.00967,61.9177058 C220.454127,61.5908567 221.023364,61.4845034 221.555852,61.6288248 L258.220727,71.5661833 C259.18579,71.8277464 259.75609,72.8221236 259.494527,73.7871868 C259.232963,74.7522501 258.238586,75.3225496 257.273523,75.0609865 L221.451401,65.3520412 L185.52733,91.7702187 C184.85109,92.2675186 183.921706,92.2347641 183.282152,91.6910914 L147.806069,61.5335072 L120.207874,88.7612513 C119.616637,89.3445521 118.704343,89.4507534 117.994926,89.0188633 L79.2605355,65.4375166 L38.6640937,85.2515275 Z" id="Path" fill="#2A3052" fill-rule="nonzero"></path>
                    <path d="M185.987125,114.445283 L151.0415,114.445283 L145.6595,106.263774 L140.2775,114.445283 L105.331875,114.445283 C104.07173,114.451176 102.865994,114.959272 101.98197,115.856931 C101.097947,116.754589 100.608676,117.967645 100.622625,119.22717 L100.622625,143.921132 C100.606032,146.539822 102.712091,148.678366 105.331875,148.703019 L186.0245,148.703019 C187.284645,148.697126 188.490381,148.18903 189.374405,147.291371 C190.258428,146.393713 190.747699,145.180657 190.73375,143.921132 L190.73375,119.22717 C190.73971,117.963586 190.242729,116.749496 189.352348,115.8525 C188.461966,114.955504 187.251275,114.449236 185.987125,114.445283 Z" id="Path" fill="#E88024"></path>
                    <g id="Group" opacity="0.6" transform="translate(249.412500, 66.132075)" fill="#FFFFFF">
                        <ellipse id="Oval" cx="8.334625" cy="8.56377358" rx="8.110375" ry="8.44301887"></ellipse>
                    </g>
                    <path d="M257.747125,84.3458936 C252.590171,84.3458936 248.429724,80.0148082 248.429724,74.6958491 C248.429724,69.37689 252.590171,65.0458046 257.747125,65.0458046 C262.904079,65.0458046 267.064526,69.37689 267.064526,74.6958491 C267.064526,80.0148082 262.904079,84.3458936 257.747125,84.3458936 Z M257.747125,81.9318423 C261.548644,81.9318423 264.650474,78.7027911 264.650474,74.6958491 C264.650474,70.6889071 261.548644,67.4598559 257.747125,67.4598559 C253.945606,67.4598559 250.843776,70.6889071 250.843776,74.6958491 C250.843776,78.7027911 253.945606,81.9318423 257.747125,81.9318423 Z" id="Oval" fill="#E88024" fill-rule="nonzero"></path>
                    <g id="Group" opacity="0.6" transform="translate(28.900000, 74.603774)" fill="#FFFFFF">
                        <ellipse id="Oval" cx="8.97" cy="9.0207547" rx="8.110375" ry="8.44301887"></ellipse>
                    </g>
                    <path d="M37.87,93.2745728 C32.7130457,93.2745728 28.5525994,88.9434874 28.5525994,83.6245283 C28.5525994,78.3055692 32.7130457,73.9744838 37.87,73.9744838 C43.0269543,73.9744838 47.1874006,78.3055692 47.1874006,83.6245283 C47.1874006,88.9434874 43.0269543,93.2745728 37.87,93.2745728 Z M37.87,90.8605215 C41.6715185,90.8605215 44.7733494,87.6314703 44.7733494,83.6245283 C44.7733494,79.6175863 41.6715185,76.3885351 37.87,76.3885351 C34.0684815,76.3885351 30.9666506,79.6175863 30.9666506,83.6245283 C30.9666506,87.6314703 34.0684815,90.8605215 37.87,90.8605215 Z" id="Oval" fill="#E88024" fill-rule="nonzero"></path>
                </g>
            </g>
            <g id="Group-24" transform="translate(14.566000, 11.000000)" fill-rule="nonzero">
                <path d="M7.02,7.75 L2.713,7.75 L2.713,12.412 L0.463,12.412 L0.463,1.193 L7.806,1.193 L7.806,2.927 L2.713,2.927 L2.713,6.017 L7.02,6.017 L7.02,7.75 Z M11.435,12.412 L9.185,12.412 L9.185,4.075 L11.435,4.075 L11.435,12.412 Z M11.435,2.079 L9.185,2.079 L9.185,0.392 L11.435,0.392 L11.435,2.079 Z M15.342,4.075 L15.442,5.269 C15.7002071,4.86123387 16.0514989,4.52056649 16.467,4.275 C16.881281,4.03669546 17.3521147,3.91440996 17.83,3.921 C18.673,3.921 19.33,4.191 19.803,4.734 C20.276,5.276 20.512,6.132 20.512,7.304 L20.512,12.412 L18.254,12.412 L18.254,7.312 C18.254,6.715 18.15,6.292 17.942,6.044 C17.734,5.794 17.422,5.67 17.006,5.67 C16.672,5.67 16.378,5.733 16.124,5.859 C15.869,5.985 15.66,6.158 15.496,6.379 L15.496,12.412 L13.246,12.412 L13.246,4.075 L15.342,4.075 Z M27.108,12.412 C27.0239503,12.2169835 26.9531235,12.0165304 26.896,11.812 C26.8366451,11.599687 26.7941793,11.383011 26.769,11.164 C26.54256,11.5648978 26.2292287,11.9100065 25.852,12.174 C25.472,12.44 25.019,12.574 24.495,12.574 C23.622,12.574 22.949,12.349 22.477,11.9 C22.004,11.45 21.767,10.838 21.767,10.062 C21.767,9.245 22.082,8.612 22.712,8.162 C23.341,7.713 24.259,7.488 25.466,7.488 L26.73,7.488 L26.73,6.826 C26.73,6.426 26.625,6.114 26.414,5.893 C26.204,5.673 25.89,5.563 25.474,5.563 C25.109,5.563 24.828,5.651 24.63,5.828 C24.433,6.005 24.334,6.248 24.334,6.556 L22.168,6.556 L22.153,6.51 C22.117,5.806 22.424,5.199 23.073,4.688 C23.723,4.176 24.573,3.921 25.62,3.921 C26.622,3.921 27.432,4.173 28.051,4.676 C28.671,5.179 28.98,5.901 28.98,6.841 L28.98,10.285 C28.98,10.675 29.01,11.043 29.069,11.387 C29.128,11.731 29.221,12.073 29.349,12.412 L27.108,12.412 Z M25.05,10.91 C25.44,10.91 25.79,10.812 26.098,10.617 C26.406,10.422 26.617,10.196 26.73,9.939 L26.73,8.759 L25.466,8.759 C24.989,8.759 24.628,8.878 24.384,9.114 C24.1447275,9.33938014 24.0118012,9.65535262 24.018,9.984 C24.018,10.267 24.108,10.492 24.291,10.659 C24.474,10.826 24.727,10.909 25.051,10.909 L25.05,10.91 Z M33.033,12.412 L30.783,12.412 L30.783,0.392 L33.033,0.392 L33.033,12.412 Z M37.248,12.412 L34.998,12.412 L34.998,4.075 L37.248,4.075 L37.248,12.412 Z M37.248,2.079 L34.998,2.079 L34.998,0.392 L37.248,0.392 L37.248,2.079 Z M41.608,10.686 L45.738,10.686 L45.738,12.412 L38.812,12.412 L38.812,11.087 L42.78,5.817 L38.935,5.817 L38.935,4.075 L45.608,4.075 L45.608,5.362 L41.608,10.686 Z M52.073,12.412 C51.9889503,12.2169835 51.9181235,12.0165304 51.861,11.812 C51.8016451,11.599687 51.7591793,11.383011 51.734,11.164 C51.50756,11.5648978 51.1942287,11.9100065 50.817,12.174 C50.437,12.44 49.984,12.574 49.46,12.574 C48.587,12.574 47.914,12.349 47.442,11.9 C46.969,11.45 46.732,10.838 46.732,10.062 C46.732,9.245 47.047,8.612 47.677,8.162 C48.306,7.713 49.224,7.488 50.431,7.488 L51.695,7.488 L51.695,6.826 C51.695,6.426 51.59,6.114 51.379,5.893 C51.169,5.673 50.855,5.563 50.439,5.563 C50.074,5.563 49.793,5.651 49.595,5.828 C49.398,6.005 49.299,6.248 49.299,6.556 L47.133,6.556 L47.118,6.51 C47.082,5.806 47.389,5.199 48.038,4.688 C48.688,4.176 49.538,3.921 50.585,3.921 C51.587,3.921 52.397,4.173 53.016,4.676 C53.636,5.179 53.945,5.901 53.945,6.841 L53.945,10.285 C53.945,10.675 53.975,11.043 54.034,11.387 C54.093,11.731 54.186,12.073 54.314,12.412 L52.073,12.412 Z M50.015,10.91 C50.405,10.91 50.755,10.812 51.063,10.617 C51.371,10.422 51.582,10.196 51.695,9.939 L51.695,8.759 L50.431,8.759 C49.954,8.759 49.593,8.878 49.349,9.114 C49.1097275,9.33938014 48.9768012,9.65535262 48.983,9.984 C48.983,10.267 49.073,10.492 49.256,10.659 C49.439,10.826 49.692,10.909 50.016,10.909 L50.015,10.91 Z M72.083,12.574 C70.84,12.574 69.869,12.193 69.171,11.43 C68.471,10.667 68.123,9.684 68.123,8.482 L68.123,8.174 C68.123,6.926 68.462,5.904 69.14,5.108 C69.818,4.311 70.75,3.916 71.937,3.921 C73.057,3.921 73.916,4.264 74.514,4.95 C75.113,5.635 75.412,6.559 75.412,7.72 L75.412,8.883 L70.442,8.883 L70.419,8.929 C70.455,9.499 70.629,9.962 70.939,10.316 C71.249,10.671 71.711,10.848 72.322,10.848 C72.825,10.848 73.253,10.797 73.605,10.694 C73.957,10.591 74.32,10.434 74.695,10.224 L75.304,11.611 C74.97,11.883 74.518,12.111 73.948,12.297 C73.3447638,12.486815 72.7153639,12.5802969 72.083,12.574 Z M71.937,5.654 C71.485,5.654 71.137,5.81 70.893,6.121 C70.649,6.431 70.501,6.844 70.45,7.357 L70.465,7.396 L73.208,7.396 L73.208,7.226 C73.208,6.738 73.108,6.354 72.908,6.075 C72.708,5.795 72.384,5.655 71.937,5.655 L71.937,5.654 Z M78.779,4.075 L78.879,5.269 C79.1372071,4.86123387 79.4884989,4.52056649 79.904,4.275 C80.3185738,4.03652133 80.7897765,3.91422972 81.268,3.921 C82.11,3.921 82.768,4.191 83.24,4.734 C83.713,5.276 83.95,6.132 83.95,7.304 L83.95,12.412 L81.692,12.412 L81.692,7.312 C81.692,6.715 81.588,6.292 81.379,6.044 C81.171,5.794 80.859,5.67 80.443,5.67 C80.109,5.67 79.815,5.733 79.561,5.859 C79.307,5.985 79.097,6.158 78.933,6.379 L78.933,12.412 L76.683,12.412 L76.683,4.075 L78.779,4.075 Z M88.326,2.033 L88.326,4.075 L89.736,4.075 L89.736,5.655 L88.326,5.655 L88.326,9.9 C88.326,10.224 88.394,10.455 88.53,10.594 C88.6715888,10.7348073 88.8654831,10.8101905 89.065,10.802 C89.184,10.802 89.286,10.795 89.374,10.782 C89.461,10.77 89.561,10.748 89.674,10.717 L89.859,12.343 C89.4241056,12.499159 88.9650687,12.5773577 88.503,12.574 C87.727,12.574 87.13,12.361 86.712,11.934 C86.292,11.508 86.084,10.833 86.084,9.908 L86.084,5.655 L84.866,5.655 L84.866,4.075 L86.084,4.075 L86.084,2.033 L88.326,2.033 Z M95.507,6.009 L94.683,5.986 C94.349,5.986 94.073,6.056 93.858,6.194 C93.642,6.333 93.478,6.528 93.365,6.78 L93.365,12.412 L91.123,12.412 L91.123,4.075 L93.211,4.075 L93.311,5.308 C93.506,4.871 93.759,4.531 94.07,4.287 C94.38,4.043 94.74,3.921 95.145,3.921 C95.258,3.921 95.362,3.93 95.457,3.948 C95.552,3.966 95.648,3.988 95.746,4.013 L95.507,6.009 Z M96.177,8.167 C96.177,6.923 96.524,5.905 97.217,5.111 C97.911,4.318 98.872,3.921 100.099,3.921 C101.332,3.921 102.298,4.316 102.997,5.108 C103.695,5.898 104.044,6.918 104.044,8.167 L104.044,8.328 C104.044,9.582 103.696,10.603 103,11.391 C102.304,12.18 101.343,12.574 100.115,12.574 C98.882,12.574 97.918,12.18 97.221,11.391 C96.525,10.603 96.177,9.581 96.177,8.328 L96.177,8.167 Z M98.42,8.328 C98.42,9.088 98.553,9.698 98.82,10.158 C99.087,10.618 99.519,10.848 100.115,10.848 C100.695,10.848 101.12,10.617 101.39,10.154 C101.66,9.692 101.795,9.084 101.795,8.328 L101.795,8.167 C101.795,7.427 101.658,6.823 101.386,6.356 C101.114,5.888 100.685,5.655 100.099,5.655 C99.519,5.655 99.094,5.89 98.824,6.36 C98.554,6.83 98.42,7.432 98.42,8.167 L98.42,8.328 Z" id="Shape" fill="#020202"></path>
                <path d="M59.042,12.587 L59.042,1.923 L62.762,1.923 C64.066,1.923 65.14,2.339 65.985,3.171 C66.83,4.004 67.252,5.071 67.252,6.376 L67.252,8.141 C67.252,9.449 66.83,10.517 65.985,11.345 C65.14,12.173 64.066,12.587 62.762,12.587 L59.042,12.587 Z M61.18,3.57 L61.18,10.946 L62.762,10.946 C63.466,10.946 64.032,10.684 64.462,10.159 C64.892,9.634 65.106,8.961 65.106,8.141 L65.106,6.361 C65.106,5.546 64.891,4.877 64.462,4.354 C64.032,3.832 63.466,3.57 62.762,3.57 L61.18,3.57 Z" id="Shape" fill="#000000"></path>
            </g>
            <path d="M12.386,66.438 L16.86,66.438 L16.715,67.408 L11.001,67.408 L12.374,58.235 L13.615,58.235 L12.387,66.438 L12.386,66.438 Z M19.229,67.408 L17.988,67.408 L19.008,60.591 L20.249,60.591 L19.229,67.408 Z M20.583,57.832 L22.026,57.832 L22.039,57.87 L20.111,59.508 L19.223,59.508 L19.21,59.476 L20.583,57.832 Z M23.255,61.454 C23.5140328,61.1422377 23.8387804,60.8915913 24.206,60.72 C24.571,60.55 24.986,60.465 25.447,60.465 C25.88,60.465 26.245,60.57 26.543,60.78 C26.842,60.99 27.043,61.303 27.148,61.72 C27.418,61.328 27.746,61.022 28.134,60.8 C28.5302935,60.5749565 28.9793015,60.4593395 29.435,60.465 C30.103,60.465 30.608,60.705 30.951,61.187 C31.293,61.667 31.395,62.383 31.256,63.332 L30.645,67.408 L29.404,67.408 L30.014,63.319 C30.12,62.622 30.079,62.14 29.892,61.873 C29.705,61.607 29.379,61.473 28.912,61.473 C28.505,61.473 28.145,61.623 27.832,61.921 C27.510171,62.2296661 27.2838513,62.624337 27.18,63.058 L27.18,63.08 L26.53,67.408 L25.283,67.408 L25.895,63.319 C25.995,62.656 25.95,62.182 25.759,61.899 C25.568,61.615 25.246,61.473 24.792,61.473 C24.422,61.473 24.102,61.556 23.832,61.723 C23.56,61.888 23.337,62.118 23.16,62.413 L22.41,67.408 L21.17,67.408 L22.19,60.591 L23.299,60.591 L23.255,61.454 Z M33.789,67.408 L32.548,67.408 L33.568,60.591 L34.809,60.591 L33.789,67.408 Z M35.074,58.846 L33.833,58.846 L34.022,57.58 L35.263,57.58 L35.074,58.846 Z M38.69,58.946 L38.445,60.591 L39.736,60.591 L39.598,61.511 L38.306,61.511 L37.689,65.651 C37.639,65.982 37.669,66.211 37.78,66.334 C37.891,66.458 38.058,66.52 38.28,66.52 C38.4410566,66.5133742 38.6003369,66.4837407 38.753,66.432 L38.797,67.282 C38.6638085,67.3699699 38.5157346,67.4329945 38.36,67.468 C38.1821553,67.5153022 37.9990241,67.5398317 37.815,67.541 C37.327,67.541 36.953,67.387 36.69,67.081 C36.428,66.774 36.347,66.297 36.447,65.651 L37.065,61.511 L35.981,61.511 L36.12,60.591 L37.204,60.591 L37.449,58.947 L38.69,58.947 L38.69,58.946 Z M42.849,67.541 C41.908,67.541 41.201,67.223 40.729,66.589 C40.256,65.955 40.095,65.136 40.247,64.132 L40.291,63.855 C40.438,62.838 40.838,62.019 41.491,61.398 C42.144,60.776 42.884,60.465 43.711,60.465 C44.59,60.465 45.221,60.753 45.608,61.328 C45.995,61.904 46.118,62.654 45.98,63.578 L45.885,64.233 L41.475,64.233 C41.379,64.955 41.45,65.525 41.689,65.943 C41.929,66.361 42.363,66.57 42.993,66.57 C43.397,66.57 43.772,66.51 44.118,66.388 C44.465,66.266 44.764,66.102 45.016,65.896 L45.381,66.703 C45.0665222,66.9594239 44.7108044,67.1606141 44.329,67.298 C43.905,67.46 43.411,67.541 42.849,67.541 Z M43.567,61.441 C43.151,61.441 42.774,61.61 42.436,61.946 C42.098,62.282 41.856,62.706 41.708,63.219 L41.721,63.256 L44.789,63.256 L44.802,63.156 C44.877,62.647 44.818,62.235 44.625,61.918 C44.432,61.6 44.079,61.442 43.567,61.442 L43.567,61.441 Z M54.258,65.575 C54.296,65.293 54.225,65.069 54.044,64.901 C53.864,64.733 53.49,64.584 52.923,64.453 C52.141,64.281 51.557,64.04 51.168,63.729 C50.78,63.418 50.623,63.002 50.698,62.481 C50.778,61.901 51.08,61.421 51.603,61.039 C52.126,60.656 52.767,60.465 53.528,60.465 C54.267,60.465 54.855,60.677 55.292,61.102 C55.728,61.526 55.899,62.013 55.802,62.563 L55.789,62.601 L54.599,62.601 C54.6427949,62.3044516 54.5420604,62.0048501 54.328,61.795 C54.105,61.559 53.794,61.442 53.395,61.442 C52.975,61.442 52.638,61.542 52.384,61.742 C52.13,61.941 51.984,62.175 51.946,62.444 C51.908,62.721 51.971,62.931 52.136,63.074 C52.299,63.216 52.669,63.349 53.244,63.471 C54.054,63.647 54.654,63.897 55.04,64.221 C55.426,64.544 55.584,64.966 55.512,65.487 C55.424,66.112 55.111,66.611 54.573,66.983 C54.036,67.355 53.368,67.541 52.57,67.541 C51.738,67.541 51.095,67.318 50.639,66.873 C50.183,66.427 50.008,65.915 50.113,65.335 L50.125,65.298 L51.316,65.298 C51.278,65.738 51.398,66.061 51.676,66.265 C51.952,66.468 52.296,66.57 52.709,66.57 C53.133,66.57 53.486,66.476 53.767,66.287 C54.048,66.097 54.212,65.86 54.258,65.575 Z M61.163,67.408 L61.233,66.432 C60.9841413,66.7757801 60.6598501,67.0579955 60.285,67.257 C59.9098236,67.4490246 59.4934265,67.5465157 59.072,67.541 C58.354,67.541 57.816,67.3 57.459,66.819 C57.102,66.339 56.999,65.602 57.15,64.611 L57.749,60.591 L58.989,60.591 L58.385,64.623 C58.272,65.375 58.301,65.881 58.473,66.142 C58.645,66.402 58.963,66.532 59.425,66.532 C59.857,66.532 60.233,66.439 60.552,66.252 C60.872,66.065 61.132,65.802 61.334,65.462 L62.058,60.592 L63.299,60.592 L62.279,67.408 L61.163,67.408 Z M70.368,64.258 C70.213,65.278 69.858,66.081 69.307,66.665 C68.754,67.249 68.06,67.541 67.224,67.541 C66.817,67.541 66.464,67.466 66.166,67.317 C65.8681979,67.1683769 65.6172873,66.9403078 65.441,66.658 L64.937,70.029 L63.697,70.029 L65.107,60.591 L66.059,60.591 L66.122,61.473 C66.3792081,61.1577566 66.7015847,60.9019022 67.067,60.723 C67.4412046,60.5471396 67.8505768,60.458904 68.264,60.465 C69.074,60.465 69.671,60.805 70.054,61.483 C70.435,62.161 70.547,63.043 70.387,64.126 L70.368,64.258 Z M69.146,64.126 C69.268,63.324 69.213,62.681 68.982,62.198 C68.752,61.715 68.337,61.473 67.741,61.473 C67.397,61.473 67.085,61.556 66.805,61.723 C66.526,61.888 66.283,62.113 66.078,62.399 L65.586,65.676 C65.704,65.957 65.876,66.176 66.103,66.334 C66.33,66.492 66.626,66.57 66.991,66.57 C67.554,66.57 68.026,66.353 68.406,65.918 C68.786,65.483 69.026,64.93 69.127,64.258 L69.146,64.126 Z M74.224,67.541 C73.284,67.541 72.576,67.223 72.104,66.589 C71.631,65.955 71.471,65.136 71.622,64.132 L71.666,63.855 C71.813,62.838 72.213,62.019 72.866,61.398 C73.519,60.776 74.26,60.465 75.087,60.465 C75.965,60.465 76.597,60.753 76.983,61.328 C77.37,61.904 77.493,62.654 77.355,63.578 L77.261,64.233 L72.851,64.233 C72.754,64.955 72.825,65.525 73.065,65.943 C73.305,66.361 73.739,66.57 74.369,66.57 C74.772,66.57 75.147,66.51 75.493,66.388 C75.84,66.266 76.139,66.102 76.391,65.896 L76.757,66.703 C76.4425222,66.9594239 76.0868044,67.1606141 75.705,67.298 C75.28,67.46 74.787,67.541 74.224,67.541 Z M74.942,61.441 C74.526,61.441 74.149,61.61 73.812,61.946 C73.473,62.282 73.231,62.706 73.084,63.219 L73.096,63.256 L76.164,63.256 L76.177,63.156 C76.253,62.647 76.194,62.235 76.001,61.918 C75.807,61.6 75.455,61.442 74.942,61.442 L74.942,61.441 Z M82.257,61.688 L81.627,61.65 C81.303,61.65 81.017,61.73 80.77,61.892 C80.522,62.054 80.312,62.282 80.14,62.576 L79.415,67.408 L78.175,67.408 L79.195,60.591 L80.304,60.591 L80.279,61.555 C80.522,61.211 80.799,60.943 81.11,60.752 C81.495131,60.5148246 81.9515391,60.4209936 82.399,60.487 C82.485,60.502 82.553,60.517 82.603,60.535 L82.257,61.688 Z M84.033,67.408 L82.793,67.408 L83.813,60.591 L85.054,60.591 L84.034,67.408 L84.033,67.408 Z M85.319,58.846 L84.078,58.846 L84.267,57.58 L85.507,57.58 L85.319,58.846 Z M86.176,63.936 C86.331,62.891 86.726,62.051 87.363,61.416 C87.999,60.782 88.79,60.466 89.735,60.466 C90.642,60.466 91.33,60.794 91.799,61.451 C92.267,62.109 92.428,62.937 92.281,63.937 L92.255,64.075 C92.095,65.13 91.699,65.971 91.065,66.599 C90.43,67.227 89.639,67.541 88.689,67.541 C87.782,67.541 87.094,67.213 86.626,66.558 C86.158,65.902 85.999,65.075 86.15,64.075 L86.176,63.937 L86.176,63.936 Z M87.392,64.076 C87.278,64.823 87.339,65.426 87.574,65.884 C87.809,66.341 88.229,66.57 88.834,66.57 C89.401,66.57 89.879,66.332 90.268,65.855 C90.656,65.378 90.905,64.785 91.014,64.075 L91.039,63.937 C91.149,63.197 91.085,62.597 90.847,62.135 C90.61,61.673 90.191,61.442 89.59,61.442 C89.02,61.442 88.54,61.682 88.15,62.163 C87.762,62.644 87.518,63.235 87.417,63.937 L87.392,64.075 L87.392,64.076 Z M97.359,61.688 L96.729,61.65 C96.405,61.65 96.119,61.73 95.872,61.892 C95.624,62.054 95.414,62.282 95.242,62.576 L94.517,67.408 L93.276,67.408 L94.296,60.591 L95.406,60.591 L95.38,61.555 C95.624,61.211 95.901,60.943 96.212,60.752 C96.5968539,60.5150578 97.0528656,60.4212355 97.5,60.487 C97.586,60.502 97.655,60.517 97.705,60.535 L97.359,61.688 Z M12.466,171.692 L17.193,171.692 L17.04,172.717 L11,172.717 L12.452,163.022 L13.764,163.022 L12.466,171.692 Z M19.696,172.717 L18.386,172.717 L19.464,165.512 L20.776,165.512 L19.696,172.717 Z M21.128,162.596 L22.653,162.596 L22.667,162.636 L20.629,164.367 L19.69,164.367 L19.677,164.334 L21.128,162.596 Z M23.952,166.425 C24.236,166.087 24.571,165.829 24.957,165.649 C25.343,165.469 25.781,165.379 26.269,165.379 C26.726,165.379 27.112,165.49 27.427,165.712 C27.743,165.934 27.956,166.265 28.067,166.704 C28.3361203,166.305166 28.6924439,165.97278 29.109,165.732 C29.519,165.497 29.978,165.379 30.484,165.379 C31.19,165.379 31.724,165.633 32.085,166.142 C32.447,166.65 32.555,167.406 32.408,168.409 L31.762,172.717 L30.451,172.717 L31.096,168.396 C31.207,167.659 31.164,167.149 30.966,166.867 C30.769,166.586 30.424,166.445 29.931,166.445 C29.501,166.445 29.12,166.602 28.789,166.917 C28.4488292,167.243313 28.2096603,167.660556 28.1,168.119 L28.1,168.143 L27.414,172.717 L26.096,172.717 L26.742,168.396 C26.848,167.694 26.8,167.194 26.599,166.894 C26.397,166.594 26.056,166.444 25.576,166.444 C25.186,166.444 24.847,166.532 24.561,166.708 C24.2683516,166.889372 24.0245825,167.139665 23.851,167.437 L23.059,172.717 L21.748,172.717 L22.826,165.512 L23.998,165.512 L23.952,166.425 Z M35.085,172.717 L33.773,172.717 L34.852,165.512 L36.164,165.512 L35.084,172.717 L35.085,172.717 Z M36.443,163.668 L35.132,163.668 L35.332,162.33 L36.643,162.33 L36.443,163.668 Z M40.265,163.775 L40.005,165.512 L41.371,165.512 L41.224,166.485 L39.859,166.485 L39.207,170.859 C39.153,171.21 39.186,171.451 39.303,171.582 C39.421,171.712 39.597,171.778 39.833,171.778 C40.0032497,171.77101 40.171623,171.739693 40.333,171.685 L40.379,172.584 C40.268,172.664 40.113,172.729 39.916,172.78 C39.718,172.831 39.526,172.857 39.34,172.857 C38.825,172.857 38.429,172.695 38.151,172.371 C37.874,172.047 37.788,171.543 37.895,170.859 L38.547,166.485 L37.402,166.485 L37.549,165.512 L38.694,165.512 L38.954,163.775 L40.265,163.775 Z M44.66,172.857 C43.666,172.857 42.919,172.522 42.42,171.851 C41.92,171.181 41.75,170.315 41.91,169.255 L41.957,168.962 C42.112,167.887 42.535,167.022 43.225,166.365 C43.915,165.708 44.698,165.379 45.572,165.379 C46.5,165.379 47.168,165.683 47.576,166.291 C47.985,166.9 48.116,167.692 47.969,168.669 L47.869,169.361 L43.209,169.361 C43.106,170.125 43.182,170.727 43.435,171.169 C43.688,171.611 44.147,171.831 44.813,171.831 C45.217419,171.834672 45.6195069,171.769405 46.002,171.638 C46.3461374,171.521571 46.667296,171.345932 46.951,171.119 L47.337,171.971 C47.0046693,172.242435 46.6286575,172.455463 46.225,172.601 C45.776,172.771 45.255,172.857 44.66,172.857 Z M45.42,166.411 C44.98,166.411 44.581,166.589 44.224,166.944 C43.867,167.299 43.61,167.747 43.454,168.289 L43.468,168.329 L46.711,168.329 L46.724,168.222 C46.804,167.685 46.742,167.249 46.538,166.914 C46.334,166.579 45.961,166.411 45.419,166.411 L45.42,166.411 Z M53.642,172.717 L52.331,172.717 L53.409,165.512 L54.721,165.512 L53.642,172.717 Z M55.001,163.668 L53.689,163.668 L53.889,162.33 L55.201,162.33 L55.001,163.668 Z M57.851,166.544 C58.144,166.172 58.487,165.884 58.879,165.682 C59.272,165.48 59.699,165.379 60.161,165.379 C60.911,165.379 61.471,165.609 61.843,166.069 C62.213,166.528 62.328,167.229 62.185,168.169 L61.506,172.717 L60.196,172.717 L60.875,168.196 C60.972,167.539 60.917,167.083 60.708,166.827 C60.5,166.572 60.133,166.445 59.61,166.445 C59.219,166.445 58.868,166.53 58.558,166.701 C58.247,166.871 57.985,167.108 57.772,167.411 L56.972,172.717 L55.661,172.717 L56.74,165.512 L57.912,165.512 L57.852,166.544 L57.851,166.544 Z M63.957,172.717 L64.889,166.485 L63.764,166.485 L63.91,165.512 L65.035,165.512 L65.175,164.6 C65.295,163.801 65.584,163.2 66.041,162.796 C66.498,162.392 67.091,162.19 67.819,162.19 C67.965,162.19 68.116,162.203 68.271,162.23 C68.427,162.256 68.591,162.29 68.764,162.33 L68.458,163.328 C68.2477135,163.282716 68.0331023,163.260585 67.818,163.262 C67.45,163.262 67.152,163.378 66.923,163.612 C66.694,163.844 66.549,164.174 66.487,164.6 L66.347,165.512 L67.652,165.512 L67.506,166.485 L66.201,166.485 L65.268,172.717 L63.957,172.717 Z M70.702,172.857 C69.707,172.857 68.961,172.522 68.462,171.851 C67.962,171.181 67.792,170.315 67.952,169.255 L67.998,168.962 C68.154,167.887 68.577,167.022 69.267,166.365 C69.957,165.708 70.74,165.379 71.614,165.379 C72.542,165.379 73.21,165.683 73.618,166.291 C74.027,166.9 74.158,167.692 74.011,168.669 L73.911,169.361 L69.251,169.361 C69.148,170.125 69.224,170.727 69.477,171.169 C69.73,171.611 70.189,171.831 70.855,171.831 C71.259419,171.834672 71.6615069,171.769405 72.044,171.638 C72.3877857,171.521465 72.7085979,171.345831 72.992,171.119 L73.379,171.971 C73.0466693,172.242435 72.6706575,172.455463 72.267,172.601 C71.818,172.771 71.297,172.857 70.702,172.857 Z M71.461,166.411 C71.021,166.411 70.623,166.589 70.266,166.944 C69.908,167.299 69.652,167.747 69.496,168.289 L69.51,168.329 L72.753,168.329 L72.766,168.222 C72.846,167.685 72.784,167.249 72.58,166.914 C72.375,166.579 72.003,166.411 71.46,166.411 L71.461,166.411 Z M79.191,166.671 L78.526,166.631 C78.2053164,166.624762 77.8899981,166.713859 77.62,166.887 C77.358,167.058 77.136,167.299 76.954,167.61 L76.189,172.717 L74.876,172.717 L75.954,165.512 L77.126,165.512 L77.1,166.532 C77.357,166.167 77.65,165.884 77.979,165.682 C78.3856691,165.431636 78.8675257,165.332503 79.34,165.402 C79.431,165.418 79.504,165.435 79.557,165.452 L79.191,166.671 Z M81.069,172.717 L79.758,172.717 L80.836,165.512 L82.148,165.512 L81.069,172.717 Z M82.428,163.668 L81.116,163.668 L81.316,162.33 L82.627,162.33 L82.427,163.668 L82.428,163.668 Z M83.333,169.048 C83.497,167.943 83.916,167.055 84.588,166.385 C85.261,165.715 86.097,165.379 87.095,165.379 C88.055,165.379 88.781,165.727 89.276,166.421 C89.771,167.116 89.941,167.991 89.786,169.048 L89.759,169.195 C89.59,170.309 89.171,171.198 88.5,171.861 C87.83,172.525 86.993,172.857 85.99,172.857 C85.031,172.857 84.304,172.511 83.81,171.818 C83.314,171.126 83.147,170.251 83.307,169.195 L83.333,169.048 Z M84.618,169.195 C84.498,169.985 84.563,170.622 84.811,171.105 C85.06,171.59 85.504,171.831 86.143,171.831 C86.743,171.831 87.247,171.58 87.658,171.076 C88.068,170.572 88.332,169.945 88.448,169.195 L88.474,169.048 C88.589,168.267 88.521,167.632 88.271,167.144 C88.02,166.655 87.577,166.411 86.942,166.411 C86.338,166.411 85.832,166.665 85.421,167.174 C85.011,167.682 84.751,168.307 84.645,169.048 L84.618,169.195 Z M95.152,166.671 L94.486,166.631 C94.1656552,166.624961 93.8507134,166.714049 93.581,166.887 C93.319,167.058 93.097,167.299 92.915,167.61 L92.149,172.717 L90.838,172.717 L91.916,165.512 L93.088,165.512 L93.061,166.532 C93.319,166.167 93.611,165.884 93.941,165.682 C94.3476691,165.431636 94.8295257,165.332503 95.302,165.402 C95.393,165.418 95.465,165.435 95.519,165.452 L95.152,166.671 Z" id="Shape" fill="#6D6E71" fill-rule="nonzero"></path>
            <g id="Group" transform="translate(263.566000, 120.000000)" fill="#2A3052" fill-rule="nonzero">
                <path d="M11.965,4.013 L12.065,5.055 C12.4784015,4.33351403 13.2526393,3.89520107 14.084,3.912 C14.824,3.912 15.395,4.114 15.799,4.584 C16.203,5.022 16.405,5.694 16.405,6.602 L16.405,10.975 L15.16,10.975 L15.16,6.636 C15.16,6.031 15.026,5.593 14.79,5.324 C14.555,5.055 14.185,4.954 13.714,4.954 C13.344,4.954 13.041,5.055 12.772,5.224 C12.502,5.392 12.267,5.627 12.099,5.93 L12.099,10.975 L10.855,10.975 L10.855,4.046 L11.965,4.013 Z M22.359,10.41 C22.325,10.243 22.325,10.11 22.325,9.942 C22.0823251,10.2786983 21.7745909,10.56331 21.42,10.779 C21.052,11.014 20.65,11.114 20.214,11.114 C19.511,11.114 18.974,10.947 18.606,10.544 C18.2176797,10.1408976 18.0116515,9.59618814 18.036,9.037 C18.036,8.367 18.305,7.865 18.841,7.496 C19.377,7.127 20.081,6.926 20.985,6.926 L22.325,6.926 L22.325,6.256 C22.325,5.854 22.191,5.519 21.957,5.285 C21.722,5.05 21.353,4.916 20.917,4.916 C20.516,4.916 20.181,5.016 19.947,5.218 C19.712,5.418 19.577,5.687 19.577,5.955 L18.405,5.955 L18.405,5.921 C18.372,5.419 18.606,4.95 19.109,4.548 C19.611,4.146 20.248,3.911 21.019,3.911 C21.789,3.911 22.426,4.112 22.895,4.514 C23.364,4.916 23.598,5.486 23.598,6.223 L23.598,9.54 C23.598,9.774 23.598,10.009 23.632,10.243 C23.665,10.478 23.699,10.713 23.766,10.913 L22.459,10.913 L22.459,10.98 C22.426,10.78 22.392,10.578 22.359,10.41 Z M20.331,10.009 C20.766,10.009 21.201,9.909 21.537,9.674 C21.905,9.439 22.14,9.171 22.24,8.87 L22.24,7.764 L20.867,7.764 C20.364,7.764 19.962,7.898 19.661,8.133 C19.359,8.367 19.225,8.702 19.225,9.037 C19.225,9.339 19.325,9.573 19.493,9.774 C19.694,9.908 19.963,10.009 20.331,10.009 Z M6.31,1.744 L6.31,2.689 L1.78,2.689 L1.78,5.897 L5.64,5.897 L5.64,6.869 L1.78,6.869 L1.78,10.975 L0.45,10.975 L0.45,1.745 L6.31,1.744 Z M7.64,4.113 L8.87,4.113 L8.87,10.885 L7.64,10.885 L7.64,4.113 Z M7.656,1.038 L7.656,2.258 L8.91,2.258 L8.91,1.038 L7.656,1.038 Z M25.513,0.992 L26.759,0.992 L26.759,10.842 L25.513,10.842 L25.513,0.992 Z" id="Shape"></path>
            </g>
            <g id="Group" transform="translate(23.566000, 132.000000)" fill="#2A3052" fill-rule="nonzero">
                <path d="M5.068,4.292 L5.182,5.465 C5.64643511,4.6538379 6.51646797,4.16072981 7.451,4.179 C8.283,4.179 8.926,4.406 9.38,4.935 C9.834,5.427 10.06,6.183 10.06,7.205 L10.06,12.121 L8.661,12.121 L8.661,7.242 C8.661,6.562 8.51,6.07 8.245,5.767 C7.98,5.465 7.565,5.351 7.035,5.351 C6.619,5.351 6.279,5.465 5.976,5.654 C5.674,5.843 5.409,6.108 5.22,6.448 L5.22,12.121 L3.82,12.121 L3.82,4.331 L5.068,4.292 Z M0.175,1.583 L1.509,1.583 L1.509,12.121 L0.175,12.121 L0.175,1.583 Z M23.343,4.292 L24.705,4.292 L24.705,11.789 L23.343,11.789 L23.343,4.292 Z M23.361,0.887 L23.361,2.239 L24.749,2.239 L24.749,0.887 L23.361,0.887 Z M12.17,4.292 L13.533,4.292 L13.533,11.789 L12.17,11.789 L12.17,4.292 Z M12.19,0.887 L12.19,2.239 L13.577,2.239 L13.577,0.887 L12.19,0.887 Z M20.348,6.969 C21.111,6.941 21.498,6.969 21.658,6.969 C21.658,6.115 21.097,4.149 18.524,4.226 C15.95,4.303 15.264,7.115 15.377,8.693 C15.491,10.271 16.524,12.203 18.817,12.135 C21.111,12.067 21.659,10.214 21.659,9.571 C21.247,9.568 20.809,9.568 20.348,9.571 C20.348,10.201 19.908,10.975 18.818,11.049 C17.726,11.122 16.906,10.273 16.801,8.693 C16.696,7.113 17.127,5.301 18.554,5.301 C19.982,5.301 20.348,6.367 20.348,6.969 Z M29.894,4.224 C31.224,4.224 33.188,4.814 33.385,7.844 C33.583,10.876 31.696,12.121 30.013,12.121 C28.329,12.121 26.591,10.945 26.591,8.013 C26.591,5.081 28.563,4.224 29.894,4.224 Z M30.001,5.323 C28.659,5.323 27.977,6.463 27.977,8.04 C27.977,9.617 28.454,11.068 30.001,11.068 C31.547,11.068 32.127,9.61 32.004,7.924 C31.882,6.238 31.342,5.323 30.001,5.323 Z" id="Shape"></path>
            </g>
            <g id="Group" transform="translate(122.566000, 156.000000)" fill="#FFFFFF" fill-rule="nonzero">
                <path d="M51.25,9.594 L48.76,9.594 L48.76,1.351 L51.25,1.351 L51.25,9.594 Z M51.25,13.932 L48.76,13.932 L48.76,11.717 L51.25,11.717 L51.25,13.932 Z" id="Shape"></path>
                <path d="M27.565,4.078 L29.636,4.078 L29.74,5.586 C30.588,4.321 31.688,3.759 33.04,3.899 C33.823,3.979 35.474,4.236 35.967,6.459 C36.147,7.275 36.109,8.652 36.095,10.524 C36.09,11.251 36.09,12.509 36.095,14.298 L33.823,14.298 L33.823,7.896 C33.823,7.143 33.613,6.303 32.982,5.985 C32.114,5.547 30.48,5.731 29.824,6.833 L29.824,14.298 L27.565,14.298 L27.565,4.078 Z M10.076,8.814 L10.076,7.121 L15.199,7.121 C15.257,10.072 15.257,11.793 15.199,12.283 C14.767,13.575 9.651,15.924 6.348,12.945 C5.363,12.057 4.9,11.073 4.648,9.583 C4.636,8.062 4.608,6.635 4.618,5.285 C4.869,3.63 5.423,2.691 5.87,2.157 C7.494,0.216 10.081,-0.202 12.357,0.585 C14.632,1.371 14.928,3.005 15.112,4.604 C14.585,4.604 14.307,4.581 12.884,4.604 C13.028,3.704 12.21,1.966 10.074,2.061 C7.94,2.157 6.932,3.911 6.932,5.373 C6.932,6.834 6.855,6.343 6.932,9.248 C7.029,12.583 11.026,13.478 12.884,11.696 L12.952,8.856 L10.076,8.814 Z M0.011,8.055 L2.133,8.055 L2.133,17.457 L0.011,17.457 L0.011,8.055 Z M0.053,3.9 L0.053,5.699 L2.164,5.699 L2.164,3.9 L0.053,3.9 Z M40.676,6.653 C39.998,6.648 39.288,6.648 38.546,6.653 C38.546,5.584 39.31,3.646 42.37,3.646 C45.43,3.646 46.164,5.748 46.247,6.201 C46.33,6.653 46.034,12.999 46.674,13.721 L44.401,13.723 C44.213,13.08 44.119,12.605 44.119,12.298 C43.764,12.731 43.155,13.522 42.217,13.813 C41.28,14.103 39.151,14.259 38.28,12.216 C37.705,10.87 38.072,9.356 39.151,8.662 C40.935,7.516 43.388,7.899 44.119,7.899 C44.214,5.855 43.603,5.379 42.217,5.379 C41.294,5.379 40.78,5.803 40.676,6.653 Z M44.118,9.297 C43.3699906,9.28023745 42.6216443,9.28624022 41.874,9.315 C40.982,9.394 40.187,10.054 40.254,10.994 C40.335,12.114 41.609,12.32 42.607,11.997 C43.444,11.725 44.027,11.025 44.118,10.727 L44.118,9.297 Z M19.881,6.653 C19.204,6.648 18.494,6.648 17.751,6.653 C17.751,5.584 18.516,3.646 21.575,3.646 C24.635,3.646 25.37,5.748 25.452,6.201 C25.535,6.653 25.239,12.999 25.88,13.721 L23.606,13.723 C23.419,13.08 23.325,12.605 23.325,12.298 C22.97,12.731 22.36,13.522 21.423,13.813 C20.486,14.103 18.357,14.259 17.485,12.216 C16.911,10.87 17.277,9.356 18.357,8.662 C20.141,7.516 22.593,7.899 23.325,7.899 C23.419,5.855 22.809,5.379 21.423,5.379 C20.499,5.379 19.985,5.803 19.881,6.653 Z M23.324,9.297 C22.5756574,9.28021715 21.8269773,9.28621993 21.079,9.315 C20.187,9.394 19.392,10.054 19.46,10.994 C19.541,12.114 20.815,12.32 21.813,11.997 C22.649,11.725 23.233,11.025 23.324,10.727 L23.324,9.297 Z" id="Shape"></path>
            </g>
        </g>
    </g>
</svg>