<svg width="299" height="197" xmlns="http://www.w3.org/2000/svg"><g fill="none" fill-rule="evenodd"><path fill="#F1F1F2" d="M0 0h299v197H0z"/><path d="M1.987 1.98v193.04h295.026V1.98H1.987zM299 0v197H0V0h299z" fill="#C2C2C2" fill-rule="nonzero"/><path d="M4.58 54.993v-1.211h290.408v1.21H4.58zm0 80.353v-1.211h290.408v1.211H4.58zm0 20.079v-1.211h290.408v1.211H4.58zm0 20.079v-1.211h290.408v1.21H4.58zM39.06 34.308h1.21V192.59h-1.21V34.308zm36.75 0h1.21V192.59h-1.21V34.308zm36.75 0h1.211V192.59h-1.21V34.308zm36.713 0h1.211V192.59h-1.211V34.308zm36.75 0h1.212V192.59h-1.212V34.308zm36.75 0h1.212V192.59h-1.211V34.308zm36.751 0h1.212V192.59h-1.212V34.308zM4.58 115.268v-1.212h290.408v1.211H4.58zm0-40.196V73.86h290.408v1.21H4.58z" fill="#DEDEDD" fill-rule="nonzero"/><path d="M4.58 95.188v-1.21h3.595v1.21H4.58zm7.19 0v-1.21h3.596v1.21h-3.595zm7.192 0v-1.21h3.595v1.21h-3.595zm7.191 0v-1.21h3.596v1.21h-3.596zm7.191 0v-1.21h3.596v1.21h-3.596zm7.191 0v-1.21h3.596v1.21h-3.596zm7.191 0v-1.21h3.596v1.21h-3.596zm7.192 0v-1.21h3.595v1.21h-3.595zm7.19 0v-1.21h3.596v1.21H62.11zm7.192 0v-1.21h3.595v1.21H69.3zm7.191 0v-1.21h3.596v1.21H76.49zm7.191 0v-1.21h3.596v1.21h-3.596zm7.191 0v-1.21h3.596v1.21h-3.596zm7.191 0v-1.21h3.596v1.21h-3.596zm7.192 0v-1.21h3.595v1.21h-3.595zm7.19 0v-1.21h3.596v1.21h-3.595zm7.192 0v-1.21h3.595v1.21h-3.595zm7.191 0v-1.21h3.596v1.21h-3.596zm7.191 0v-1.21h3.596v1.21h-3.596zm7.191 0v-1.21h3.596v1.21h-3.596zm7.191 0v-1.21h3.596v1.21h-3.596zm7.192 0v-1.21h3.595v1.21h-3.595zm7.19 0v-1.21h3.596v1.21h-3.595zm7.192 0v-1.21h3.595v1.21h-3.595zm7.191 0v-1.21h3.596v1.21h-3.596zm7.191 0v-1.21h3.596v1.21h-3.596zm7.191 0v-1.21h3.596v1.21h-3.596zm7.191 0v-1.21h3.596v1.21h-3.596zm7.192 0v-1.21h3.595v1.21h-3.595zm7.19 0v-1.21h3.596v1.21h-3.595zm7.192 0v-1.21h3.595v1.21h-3.595zm7.19 0v-1.21h3.597v1.21h-3.596zm7.192 0v-1.21h3.596v1.21h-3.596zm7.191 0v-1.21h3.596v1.21h-3.596zm7.191 0v-1.21h3.596v1.21h-3.596zm7.191 0v-1.21h3.596v1.21h-3.596zm7.192 0v-1.21h3.595v1.21h-3.595zm7.19 0v-1.21h3.596v1.21h-3.595zm7.192 0v-1.21h3.595v1.21h-3.595zm7.191 0v-1.21h3.596v1.21h-3.596zm7.191 0v-1.21h2.763v1.21h-2.763z" fill="#293052" fill-rule="nonzero"/><path fill="#C2C2C2" fill-rule="nonzero" d="M2.498 34.307v-2.422h294.61v2.422z"/><path d="M76.186 81.92l-35.273 34.035a1.798 1.798 0 0 1-2.496-2.587l36.75-35.46a1.798 1.798 0 0 1 2.695.227l35.663 48.38 35.183-26.994a1.798 1.798 0 0 1 2.31.102l35.878 32.923 72.372-39.54a1.798 1.798 0 0 1 1.724 3.155l-73.501 40.157a1.798 1.798 0 0 1-2.078-.253L149.7 103.293l-35.44 27.191a1.798 1.798 0 0 1-2.541-.36L76.186 81.922z" fill="#293052" fill-rule="nonzero"/><path d="M188.18 145.159h-35.047l-5.525-8.07-5.3 8.07h-35.046a4.733 4.733 0 0 0-4.731 4.735v24.512a4.733 4.733 0 0 0 4.73 4.735h80.92a4.729 4.729 0 0 0 3.419-1.346 4.738 4.738 0 0 0 1.425-3.39v-24.473a4.738 4.738 0 0 0-1.412-3.414 4.729 4.729 0 0 0-3.432-1.36z" fill="#E88024"/><ellipse cx="8.333" cy="8.585" rx="8.137" ry="8.373" opacity=".6" transform="translate(251.797 87.135)" fill="#FFF"/><path d="M260.13 105.303c-5.17 0-9.348-4.298-9.348-9.584 0-5.285 4.177-9.583 9.348-9.583 5.17 0 9.348 4.298 9.348 9.583 0 5.286-4.177 9.584-9.348 9.584zm0-2.422c3.817 0 6.926-3.199 6.926-7.162 0-3.962-3.109-7.16-6.926-7.16s-6.926 3.198-6.926 7.16c0 3.963 3.109 7.162 6.926 7.162z" fill="#E88024" fill-rule="nonzero"/><ellipse cx="8.386" cy="8.585" rx="8.137" ry="8.373" opacity=".6" transform="translate(31.278 106.077)" fill="#FFF"/><path d="M39.665 124.245c-5.171 0-9.349-4.298-9.349-9.583 0-5.286 4.178-9.584 9.349-9.584 5.17 0 9.348 4.298 9.348 9.584 0 5.285-4.177 9.583-9.348 9.583zm0-2.422c3.817 0 6.926-3.199 6.926-7.161 0-3.963-3.109-7.162-6.926-7.162-3.818 0-6.926 3.199-6.926 7.162 0 3.962 3.108 7.161 6.926 7.161z" fill="#E88024" fill-rule="nonzero"/><path fill="#E88024" d="M247.564 65.98h25.094v16.518h-25.094z"/><path fill="#E88024" d="M257.698 82.48l2.382-2.385 2.382 2.384-2.382 2.384z"/><path d="M262.439 76.057h1.4v1.099h-1.4v2.349h-1.287v-2.349h-4.693v-.796l4.693-7.122h1.476v6.82h-.19zm-4.504 0h3.217v-4.811.34l-3.217 4.471z" fill="#FFF" fill-rule="nonzero"/><path fill="#D5D3DA" d="M137.35 79.202h25.094v16.517h-25.093z"/><path fill="#D5D3DA" d="M147.51 95.696l2.383-2.384 2.381 2.384-2.381 2.384z"/><path d="M148.554 86.93h1.21c.476.045.946-.122 1.288-.454.273-.372.407-.828.378-1.289a1.857 1.857 0 0 0-.454-1.325 1.702 1.702 0 0 0-1.287-.455 1.778 1.778 0 0 0-1.287.492 1.706 1.706 0 0 0-.492 1.25h-1.286c-.019-.8.347-1.56.984-2.045a3.782 3.782 0 0 1 4.58 0c.579.563.883 1.352.832 2.16a2.462 2.462 0 0 1-1.552 2.234 2.271 2.271 0 0 1 1.325.948c.253.437.384.934.378 1.44.044.831-.29 1.638-.908 2.197a3.442 3.442 0 0 1-2.347.795 3.518 3.518 0 0 1-2.308-.758 2.425 2.425 0 0 1-1.06-2.197h1.362c-.024.48.154.947.492 1.288.371.339.861.516 1.363.493a1.93 1.93 0 0 0 1.4-.493c.31-.356.472-.816.454-1.288a1.592 1.592 0 0 0-1.854-1.856h-1.211V86.93z" fill="#293052"/><path fill="#D5D3DA" d="M27.1 84.43h25.093v16.517H27.099z"/><path fill="#D5D3DA" d="M37.28 100.966l2.381-2.384 2.382 2.384-2.382 2.384z"/><path fill="#293052" d="M40.384 97.955H39.02v-8.903h-2.12v-.985l3.483-.38z"/><g fill="#2A3052" fill-rule="nonzero"><path d="M259.546 117.976l.11 1.13a2.466 2.466 0 0 1 2.188-1.24c.803 0 1.423.22 1.861.73.438.474.657 1.204.657 2.189v4.743h-1.35v-4.706c0-.657-.146-1.131-.401-1.423-.256-.292-.657-.402-1.168-.402-.401 0-.73.11-1.021.292-.305.19-.556.453-.73.766v5.473h-1.35v-7.516l1.204-.036zm11.274 6.94c-.037-.182-.037-.328-.037-.51a3.367 3.367 0 0 1-.98.91 2.38 2.38 0 0 1-1.309.363c-.763 0-1.344-.182-1.744-.618a2.217 2.217 0 0 1-.618-1.635c0-.727.29-1.272.872-1.672.582-.4 1.345-.618 2.326-.618h1.453v-.726c0-.436-.145-.8-.4-1.054-.254-.254-.653-.4-1.126-.4-.436 0-.8.11-1.054.327-.254.218-.4.509-.4.8h-1.271v-.037c-.036-.545.218-1.053.763-1.49.545-.436 1.235-.69 2.071-.69.836 0 1.526.218 2.035.654.509.436.763 1.054.763 1.853v3.598c0 .254 0 .508.037.763.036.254.072.509.145.727h-1.417v.072c-.037-.218-.073-.436-.11-.617h.001zm-2.2-.437c.473 0 .945-.109 1.308-.363.4-.254.654-.545.763-.872v-1.2h-1.49c-.544 0-.98.146-1.308.4a1.219 1.219 0 0 0-.472.982c0 .327.11.581.29.8.219.144.51.253.91.253h-.001zm-15.207-8.963v1.024H248.5v3.48h4.185v1.054H248.5v4.454h-1.443v-10.012h6.356zm1.442 2.569h1.335v7.345h-1.335v-7.345zm.018-3.335v1.324h1.36v-1.325l-1.36.001zm19.367-.05h1.353v10.682h-1.352l-.001-10.682z"/></g><g fill="#2A3052" fill-rule="nonzero"><path d="M28.826 134.06l.115 1.187a2.589 2.589 0 0 1 2.298-1.302c.842 0 1.493.23 1.953.766.46.497.69 1.263.69 2.297v4.98h-1.418v-4.941c0-.69-.153-1.188-.42-1.494-.269-.306-.69-.421-1.226-.421a1.96 1.96 0 0 0-1.073.306c-.306.192-.574.46-.766.804v5.745h-1.417v-7.89l1.264-.038v.001zm-4.956-2.744h1.352v10.671H23.87v-10.671zm23.462 2.743h1.379v7.592h-1.38l.001-7.592zm.018-3.448v1.369h1.405v-1.369H47.35zm-11.332 3.448h1.38v7.592h-1.38v-7.592zm.019-3.448v1.369h1.405v-1.369h-1.405zm8.262 6.159c.773-.028 1.164 0 1.328 0 0-.864-.57-2.855-3.175-2.777-2.606.078-3.302 2.925-3.186 4.523.115 1.598 1.16 3.554 3.483 3.485 2.323-.069 2.878-1.945 2.878-2.596a97.9 97.9 0 0 0-1.328 0c0 .639-.445 1.422-1.55 1.496-1.105.074-1.935-.785-2.042-2.385-.106-1.6.33-3.435 1.776-3.435 1.445 0 1.816 1.08 1.816 1.689zm9.666-2.78c1.348 0 3.337.597 3.537 3.667.2 3.07-1.71 4.33-3.416 4.33-1.705 0-3.465-1.19-3.465-4.16 0-2.969 1.997-3.837 3.344-3.837zm.109 1.113c-1.358 0-2.05 1.155-2.05 2.752 0 1.597.484 3.066 2.05 3.066 1.566 0 2.153-1.477 2.029-3.184-.124-1.707-.671-2.634-2.03-2.634h.001z"/></g><g fill-rule="nonzero"><path d="M15.242 21.747v-9.932h3.466c1.214 0 2.214.387 3.001 1.163.787.775 1.18 1.77 1.18 2.984v1.644c0 1.219-.393 2.213-1.18 2.984-.787.771-1.787 1.157-3.001 1.157h-3.466zm1.992-8.398v6.87h1.474c.655 0 1.182-.245 1.582-.734.4-.489.6-1.115.6-1.88v-1.657c0-.76-.2-1.382-.6-1.869-.4-.486-.927-.73-1.582-.73h-1.474zm9.237 8.398h-1.992v-7.381h1.992v7.381zm-.594-10.39h2.217l.014.041-1.89 1.774H24.52l1.357-1.815zm1.999 6.76c0-1.164.252-2.103.757-2.817s1.214-1.07 2.128-1.07c.414 0 .778.093 1.092.279.313.186.582.452.805.798l.156-.941h1.713v7.346c0 .96-.314 1.702-.942 2.228-.627.525-1.503.788-2.626.788-.373 0-.768-.052-1.187-.154a5.512 5.512 0 0 1-1.16-.42l.335-1.487c.304.146.62.256.944.331.326.075.677.113 1.054.113.546 0 .947-.114 1.204-.341.257-.228.386-.582.386-1.064v-.669c-.206.267-.47.484-.771.635-.317.15-.665.225-1.016.218-.905 0-1.61-.332-2.115-.996-.505-.664-.757-1.542-.757-2.633v-.144zm1.992.144c0 .646.108 1.154.324 1.524.216.371.57.556 1.06.556.305 0 .563-.055.775-.167a1.28 1.28 0 0 0 .508-.488v-3.199a1.361 1.361 0 0 0-.508-.525 1.49 1.49 0 0 0-.761-.184c-.487 0-.841.216-1.064.648-.223.432-.334.996-.334 1.692v.143zm8.28 3.486h-1.991v-7.381h1.992v7.38l-.001.001zm0-9.148h-1.991v-1.494h1.992V12.6l-.001-.001zm4.026-.04v1.807h1.248v1.398h-1.248v3.759c0 .286.06.49.18.614.12.122.279.184.474.184.105 0 .196-.006.273-.017.078-.012.166-.03.266-.058l.164 1.44a3.477 3.477 0 0 1-1.2.205c-.687-.001-1.216-.19-1.587-.567-.37-.378-.556-.976-.556-1.794v-3.766h-1.077v-1.398h1.077v-1.808h1.986v.001zm2.169 5.429c0-1.1.307-2.002.92-2.705.615-.702 1.465-1.054 2.552-1.054 1.091 0 1.946.35 2.565 1.05.618.701.927 1.604.927 2.709v.143c0 1.11-.308 2.014-.924 2.712-.616.698-1.468 1.047-2.554 1.047-1.092 0-1.946-.35-2.562-1.047-.616-.698-.924-1.602-.924-2.712v-.143zm1.985.143c0 .673.118 1.213.355 1.62.236.407.618.61 1.146.61.513 0 .89-.204 1.128-.613.24-.41.359-.948.359-1.617v-.143c0-.655-.12-1.19-.362-1.603-.241-.414-.62-.62-1.14-.62-.513 0-.89.207-1.128.623-.239.416-.358.95-.358 1.6v.143zm23.097 3.616a4.19 4.19 0 0 1-.187-.533 3.701 3.701 0 0 1-.113-.573c-.2.355-.478.66-.812.894-.336.237-.736.355-1.2.355-.773 0-1.37-.2-1.788-.597-.418-.398-.627-.94-.627-1.627 0-.723.278-1.284.835-1.681.558-.398 1.37-.597 2.44-.597h1.118V16.8c0-.355-.093-.63-.28-.825-.186-.196-.464-.294-.832-.294-.323 0-.572.079-.747.236-.175.157-.263.371-.263.644h-1.916l-.014-.04c-.032-.624.24-1.161.815-1.614.575-.452 1.327-.679 2.255-.679.886 0 1.604.223 2.152.669.548.445.822 1.084.822 1.917v3.049c0 .345.026.67.078.975.052.305.135.607.25.908h-1.986v.001zm-1.821-1.33c.345 0 .655-.087.928-.26.272-.173.459-.373.559-.6v-1.044h-1.119c-.423 0-.742.105-.958.314-.216.21-.324.466-.324.77 0 .25.08.45.242.598.161.147.385.221.672.221v.001zm8.854-4.34l-.73-.02c-.295 0-.539.062-.73.185a1.167 1.167 0 0 0-.436.518v4.987h-1.985v-7.381h1.848l.089 1.091c.173-.386.397-.688.672-.904.275-.216.592-.324.951-.324.1 0 .193.008.277.024.084.016.17.035.256.058l-.212 1.767v-.001z" fill="#020202"/><path d="M58.381 18.374v3.609h-1.996V12.03h3.808c1.144 0 2.044.292 2.7.875.656.583.985 1.351.985 2.304 0 .952-.329 1.718-.985 2.296-.656.58-1.556.869-2.7.869h-1.812zm0-1.538h1.812c.556 0 .978-.152 1.265-.455.287-.303.43-.69.43-1.159 0-.478-.142-.874-.427-1.186-.285-.312-.707-.468-1.268-.468h-1.812v3.268z" fill="#000"/></g><g fill="#FFF" fill-rule="nonzero"><path d="M174.925 163.662h-2.523v-8.348h2.523v8.348zm0 4.392h-2.523v-2.243h2.523v2.243zM150.94 158.076h2.096l.106 1.527c.858-1.28 1.972-1.85 3.342-1.709.793.082 2.465.342 2.963 2.594.183.825.144 2.22.13 4.115-.005.736-.005 2.01 0 3.823h-2.3v-6.484c0-.762-.213-1.613-.853-1.935-.878-.443-2.533-.257-3.197.859v7.56h-2.287v-10.35zm-17.711 4.796v-1.715h5.187c.06 2.99.06 4.732 0 5.228-.437 1.308-5.618 3.687-8.963.67-.997-.9-1.466-1.896-1.722-3.404-.011-1.54-.039-2.986-.028-4.353.253-1.675.814-2.627 1.266-3.167 1.645-1.966 4.265-2.39 6.57-1.593 2.304.797 2.603 2.452 2.79 4.07-.534 0-.816-.022-2.257 0 .146-.91-.682-2.671-2.845-2.574-2.162.097-3.182 1.873-3.182 3.353 0 1.48-.078.983 0 3.924.098 3.377 4.146 4.283 6.027 2.48l.07-2.876-2.913-.043zm-10.193-.769h2.15v9.52h-2.15v-9.52zm.043-4.207v1.821h2.138v-1.82l-2.138-.001zm41.137 2.787a193.76 193.76 0 0 0-2.157 0c0-1.082.774-3.044 3.872-3.044 3.1 0 3.843 2.128 3.927 2.586.084.458-.216 6.885.432 7.615l-2.302.003c-.19-.65-.285-1.132-.285-1.443-.36.439-.977 1.24-1.926 1.534-.949.294-3.105.452-3.988-1.617-.582-1.363-.21-2.897.883-3.6 1.807-1.16 4.29-.772 5.031-.772.096-2.07-.523-2.552-1.926-2.552-.935 0-1.456.43-1.561 1.29zm3.486 2.678a37.349 37.349 0 0 0-2.273.019c-.903.08-1.708.747-1.64 1.699.082 1.135 1.373 1.343 2.383 1.016.847-.275 1.438-.984 1.53-1.286v-1.448zm-24.544-2.678a193.76 193.76 0 0 0-2.157 0c0-1.082.774-3.044 3.873-3.044 3.098 0 3.842 2.128 3.926 2.586.084.458-.216 6.885.432 7.615l-2.302.003c-.19-.65-.285-1.132-.285-1.443-.359.439-.976 1.24-1.925 1.534-.95.294-3.105.452-3.988-1.617-.582-1.363-.21-2.897.883-3.6 1.806-1.16 4.29-.772 5.03-.772.096-2.07-.522-2.552-1.925-2.552-.936 0-1.456.43-1.562 1.29zm3.487 2.678a37.349 37.349 0 0 0-2.274.019c-.903.08-1.708.747-1.64 1.699.083 1.135 1.373 1.343 2.383 1.016.847-.275 1.438-.984 1.53-1.286v-1.448h.001z"/></g></g></svg>