<?xml version="1.0" encoding="UTF-8"?>
<svg width="299px" height="197px" viewBox="0 0 299 197" version="1.1" xmlns="http://www.w3.org/2000/svg" xmlns:xlink="http://www.w3.org/1999/xlink">
    <!-- Generator: Sketch 52.6 (67491) - http://www.bohemiancoding.com/sketch -->
    <title>Even</title>
    <desc>Created with Sketch.</desc>
    <g id="Page-1" stroke="none" stroke-width="1" fill="none" fill-rule="evenodd">
        <g id="Even">
            <g id="even">
                <polygon id="Path" fill="#F1F1F2" points="0 0 299 0 299 197 0 197"></polygon>
                <path d="M1.98671096,1.9798995 L1.98671096,195.020101 L297.013289,195.020101 L297.013289,1.9798995 L1.98671096,1.9798995 Z M299,0 L299,197 L0,197 L0,0 L299,0 Z" id="Path" fill="#C2C2C2" fill-rule="nonzero"></path>
                <g id="Group-7" transform="translate(2.000000, 32.000000)">
                    <path d="M2.57962025,22.9928773 L2.57962025,21.7817381 L292.988101,21.7817381 L292.988101,22.9928773 L2.57962025,22.9928773 Z M2.57962025,103.346147 L2.57962025,102.135007 L292.988101,102.135007 L292.988101,103.346147 L2.57962025,103.346147 Z M2.57962025,123.424993 L2.57962025,122.213853 L292.988101,122.213853 L292.988101,123.424993 L2.57962025,123.424993 Z M2.57962025,143.503839 L2.57962025,142.292699 L292.988101,142.292699 L292.988101,143.503839 L2.57962025,143.503839 Z M37.0592405,2.30846154 L38.2703797,2.30846154 L38.2703797,160.590385 L37.0592405,160.590385 L37.0592405,2.30846154 Z M73.8097469,2.30846154 L75.0208861,2.30846154 L75.0208861,160.590385 L73.8097469,160.590385 L73.8097469,2.30846154 Z M110.560253,2.30846154 L111.771393,2.30846154 L111.771393,160.590385 L110.560253,160.590385 L110.560253,2.30846154 Z M147.272911,2.30846154 L148.484051,2.30846154 L148.484051,160.590385 L147.272911,160.590385 L147.272911,2.30846154 Z M184.023417,2.30846154 L185.234557,2.30846154 L185.234557,160.590385 L184.023417,160.590385 L184.023417,2.30846154 Z M220.773924,2.30846154 L221.985064,2.30846154 L221.985064,160.590385 L220.773924,160.590385 L220.773924,2.30846154 Z M257.52443,2.30846154 L258.73557,2.30846154 L258.73557,160.590385 L257.52443,160.590385 L257.52443,2.30846154 Z M2.57962025,83.2673004 L2.57962025,82.0561612 L292.988101,82.0561612 L292.988101,83.2673004 L2.57962025,83.2673004 Z M2.57962025,43.0717234 L2.57962025,41.8605842 L292.988101,41.8605842 L292.988101,43.0717234 L2.57962025,43.0717234 Z" id="Shape" fill="#DEDEDD" fill-rule="nonzero"></path>
                    <path d="M2.57962025,63.1884542 L2.57962025,61.977315 L6.17518986,61.977315 L6.17518986,63.1884542 L2.57962025,63.1884542 Z M9.77075947,63.1884542 L9.77075947,61.977315 L13.3663291,61.977315 L13.3663291,63.1884542 L9.77075947,63.1884542 Z M16.9618987,63.1884542 L16.9618987,61.977315 L20.5574683,61.977315 L20.5574683,63.1884542 L16.9618987,63.1884542 Z M24.1530379,63.1884542 L24.1530379,61.977315 L27.7486075,61.977315 L27.7486075,63.1884542 L24.1530379,63.1884542 Z M31.3441771,63.1884542 L31.3441771,61.977315 L34.9397467,61.977315 L34.9397467,63.1884542 L31.3441771,63.1884542 Z M38.5353164,63.1884542 L38.5353164,61.977315 L42.130886,61.977315 L42.130886,63.1884542 L38.5353164,63.1884542 Z M45.7264556,63.1884542 L45.7264556,61.977315 L49.3220252,61.977315 L49.3220252,63.1884542 L45.7264556,63.1884542 Z M52.9175948,63.1884542 L52.9175948,61.977315 L56.5131644,61.977315 L56.5131644,63.1884542 L52.9175948,63.1884542 Z M60.108734,63.1884542 L60.108734,61.977315 L63.7043036,61.977315 L63.7043036,63.1884542 L60.108734,63.1884542 Z M67.2998732,63.1884542 L67.2998732,61.977315 L70.8954429,61.977315 L70.8954429,63.1884542 L67.2998732,63.1884542 Z M74.4910125,63.1884542 L74.4910125,61.977315 L78.0865821,61.977315 L78.0865821,63.1884542 L74.4910125,63.1884542 Z M81.6821517,63.1884542 L81.6821517,61.977315 L85.2777213,61.977315 L85.2777213,63.1884542 L81.6821517,63.1884542 Z M88.8732909,63.1884542 L88.8732909,61.977315 L92.4688605,61.977315 L92.4688605,63.1884542 L88.8732909,63.1884542 Z M96.0644301,63.1884542 L96.0644301,61.977315 L99.6599997,61.977315 L99.6599997,63.1884542 L96.0644301,63.1884542 Z M103.255569,63.1884542 L103.255569,61.977315 L106.851139,61.977315 L106.851139,63.1884542 L103.255569,63.1884542 Z M110.446709,63.1884542 L110.446709,61.977315 L114.042278,61.977315 L114.042278,63.1884542 L110.446709,63.1884542 Z M117.637848,63.1884542 L117.637848,61.977315 L121.233417,61.977315 L121.233417,63.1884542 L117.637848,63.1884542 Z M124.828987,63.1884542 L124.828987,61.977315 L128.424557,61.977315 L128.424557,63.1884542 L124.828987,63.1884542 Z M132.020126,63.1884542 L132.020126,61.977315 L135.615696,61.977315 L135.615696,63.1884542 L132.020126,63.1884542 Z M139.211265,63.1884542 L139.211265,61.977315 L142.806835,61.977315 L142.806835,63.1884542 L139.211265,63.1884542 Z M146.402405,63.1884542 L146.402405,61.977315 L149.997974,61.977315 L149.997974,63.1884542 L146.402405,63.1884542 Z M153.593544,63.1884542 L153.593544,61.977315 L157.189114,61.977315 L157.189114,63.1884542 L153.593544,63.1884542 Z M160.784683,63.1884542 L160.784683,61.977315 L164.380253,61.977315 L164.380253,63.1884542 L160.784683,63.1884542 Z M167.975822,63.1884542 L167.975822,61.977315 L171.571392,61.977315 L171.571392,63.1884542 L167.975822,63.1884542 Z M175.166962,63.1884542 L175.166962,61.977315 L178.762531,61.977315 L178.762531,63.1884542 L175.166962,63.1884542 Z M182.358101,63.1884542 L182.358101,61.977315 L185.95367,61.977315 L185.95367,63.1884542 L182.358101,63.1884542 Z M189.54924,63.1884542 L189.54924,61.977315 L193.14481,61.977315 L193.14481,63.1884542 L189.54924,63.1884542 Z M196.740379,63.1884542 L196.740379,61.977315 L200.335949,61.977315 L200.335949,63.1884542 L196.740379,63.1884542 Z M203.931518,63.1884542 L203.931518,61.977315 L207.527088,61.977315 L207.527088,63.1884542 L203.931518,63.1884542 Z M211.122658,63.1884542 L211.122658,61.977315 L214.718227,61.977315 L214.718227,63.1884542 L211.122658,63.1884542 Z M218.313797,63.1884542 L218.313797,61.977315 L221.909366,61.977315 L221.909366,63.1884542 L218.313797,63.1884542 Z M225.504936,63.1884542 L225.504936,61.977315 L229.100506,61.977315 L229.100506,63.1884542 L225.504936,63.1884542 Z M232.696075,63.1884542 L232.696075,61.977315 L236.291645,61.977315 L236.291645,63.1884542 L232.696075,63.1884542 Z M239.887215,63.1884542 L239.887215,61.977315 L243.482784,61.977315 L243.482784,63.1884542 L239.887215,63.1884542 Z M247.078354,63.1884542 L247.078354,61.977315 L250.673923,61.977315 L250.673923,63.1884542 L247.078354,63.1884542 Z M254.269493,63.1884542 L254.269493,61.977315 L257.865063,61.977315 L257.865063,63.1884542 L254.269493,63.1884542 Z M261.460632,63.1884542 L261.460632,61.977315 L265.056202,61.977315 L265.056202,63.1884542 L261.460632,63.1884542 Z M268.651771,63.1884542 L268.651771,61.977315 L272.247341,61.977315 L272.247341,63.1884542 L268.651771,63.1884542 Z M275.842911,63.1884542 L275.842911,61.977315 L279.43848,61.977315 L279.43848,63.1884542 L275.842911,63.1884542 Z M283.03405,63.1884542 L283.03405,61.977315 L286.629619,61.977315 L286.629619,63.1884542 L283.03405,63.1884542 Z M290.225189,63.1884542 L290.225189,61.977315 L292.988101,61.977315 L292.988101,63.1884542 L290.225189,63.1884542 Z" id="Path" fill="#293052" fill-rule="nonzero"></path>
                    <polygon id="Path" fill="#C2C2C2" fill-rule="nonzero" points="0.497974684 2.30729309 0.497974684 -0.11498539 295.107595 -0.11498539 295.107595 2.30729309"></polygon>
                    <path d="M74.1862917,49.9209243 L38.913118,83.9554687 C38.1986062,84.6448901 37.0604936,84.6245504 36.3710722,83.9100387 C35.6816508,83.1955269 35.7019905,82.0574143 36.4165022,81.3679929 L73.1670086,45.9079929 C73.9493243,45.1531485 75.2173979,45.2599523 75.8624341,46.1350158 L111.525494,94.5159266 L146.708416,67.5211811 C147.400961,66.9898127 148.375132,67.0327101 149.018291,67.6228957 L184.896329,100.545903 L257.268031,61.0052153 C258.139354,60.5291632 259.231617,60.8495934 259.707669,61.7209161 C260.183721,62.5922388 259.863291,63.6845019 258.991969,64.1605539 L185.490956,104.318246 C184.815669,104.687193 183.980449,104.585452 183.413481,104.065181 L147.699513,71.2927311 L112.260192,98.4842035 C111.461716,99.0968497 110.31587,98.93472 109.718705,98.1245996 L74.1862917,49.9209243 Z" id="Path" fill="#293052" fill-rule="nonzero"></path>
                    <path d="M186.180759,113.158846 L151.133418,113.158846 L145.607595,105.089423 L140.308861,113.158846 L105.261519,113.158846 C102.648653,113.158846 100.530506,115.279036 100.530506,117.894423 L100.530506,142.405769 C100.530506,145.021156 102.648653,147.141346 105.261519,147.141346 L186.180759,147.141346 C187.455058,147.171968 188.687787,146.686593 189.599735,145.79516 C190.511683,144.903726 191.025684,143.681664 191.025316,142.405769 L191.025316,117.932308 C191.035937,116.649854 190.526447,115.417929 189.613353,114.518235 C188.700259,113.61854 187.461651,113.128022 186.180759,113.158846 Z" id="Path" fill="#E88024"></path>
                    <g id="Group" opacity="0.6" transform="translate(249.797468, 55.134615)" fill="#FFFFFF">
                        <ellipse id="Oval" cx="8.3325316" cy="8.58480769" rx="8.13734177" ry="8.3725"></ellipse>
                    </g>
                    <path d="M258.13,73.3030623 C252.959133,73.3030623 248.781519,69.0047208 248.781519,63.7194231 C248.781519,58.4341254 252.959133,54.1357839 258.13,54.1357839 C263.300867,54.1357839 267.478481,58.4341254 267.478481,63.7194231 C267.478481,69.0047208 263.300867,73.3030623 258.13,73.3030623 Z M258.13,70.8807839 C261.947393,70.8807839 265.056203,67.6821335 265.056203,63.7194231 C265.056203,59.7567127 261.947393,56.5580623 258.13,56.5580623 C254.312607,56.5580623 251.203797,59.7567127 251.203797,63.7194231 C251.203797,67.6821335 254.312607,70.8807839 258.13,70.8807839 Z" id="Oval" fill="#E88024" fill-rule="nonzero"></path>
                    <g id="Group" opacity="0.6" transform="translate(29.278481, 74.076923)" fill="#FFFFFF">
                        <ellipse id="Oval" cx="8.38632911" cy="8.58480769" rx="8.13734177" ry="8.3725"></ellipse>
                    </g>
                    <path d="M37.6648101,92.24537 C32.4939432,92.24537 28.3163291,87.9470285 28.3163291,82.6617308 C28.3163291,77.3764331 32.4939432,73.0780916 37.6648101,73.0780916 C42.835677,73.0780916 47.0132911,77.3764331 47.0132911,82.6617308 C47.0132911,87.9470285 42.835677,92.24537 37.6648101,92.24537 Z M37.6648101,89.8230916 C41.4822027,89.8230916 44.5910126,86.6244412 44.5910126,82.6617308 C44.5910126,78.6990204 41.4822027,75.50037 37.6648101,75.50037 C33.8474175,75.50037 30.7386076,78.6990204 30.7386076,82.6617308 C30.7386076,86.6244412 33.8474175,89.8230916 37.6648101,89.8230916 Z" id="Oval" fill="#E88024" fill-rule="nonzero"></path>
                    <polygon id="Path" fill="#E88024" points="245.56443 33.98 270.657722 33.98 270.657722 50.4976923 245.56443 50.4976923"></polygon>
                    <polygon id="Path" fill="#E88024" transform="translate(258.079879, 50.479130) rotate(-45.000000) translate(-258.079879, -50.479130) " points="256.395639 48.79489 259.765745 48.7932651 259.76412 52.163371 256.394014 52.1649958"></polygon>
                    <path d="M260.438734,44.0573077 L261.839114,44.0573077 L261.839114,45.1559615 L260.438734,45.1559615 L260.438734,47.5048077 L259.151899,47.5048077 L259.151899,45.1559615 L254.458734,45.1559615 L254.458734,44.3603846 L259.151899,37.2380769 L260.627975,37.2380769 L260.627975,44.0573077 L260.438734,44.0573077 Z M255.93481,44.0573077 L259.151899,44.0573077 L259.151899,39.2459615 L259.151899,39.5869231 L255.93481,44.0573077 Z" id="Shape" fill="#FFFFFF" fill-rule="nonzero"></path>
                    <polygon id="Path" fill="#D5D3DA" points="135.350759 47.2017308 160.444051 47.2017308 160.444051 63.7194231 135.350759 63.7194231"></polygon>
                    <polygon id="Path" fill="#D5D3DA" transform="translate(147.892511, 63.696233) rotate(-45.000000) translate(-147.892511, -63.696233) " points="146.208271 62.0119926 149.578377 62.0103677 149.576752 65.3804736 146.206646 65.3820985"></polygon>
                    <path d="M146.553797,54.9301923 L147.764937,54.9301923 C148.239705,54.9746728 148.710077,54.808499 149.051772,54.4755769 C149.324722,54.1038243 149.458666,53.647974 149.430253,53.1875 C149.457797,52.7030853 149.294769,52.227129 148.976076,51.8615385 C148.62918,51.5370969 148.162739,51.3723117 147.689241,51.4069231 C147.211619,51.3914113 146.747849,51.5689063 146.402405,51.8994231 C146.074322,52.2311548 145.896481,52.6830334 145.91038,53.1496154 L144.623544,53.1496154 C144.605495,52.3493354 144.971334,51.588784 145.607595,51.1038462 C146.960955,50.0745235 148.833855,50.0745235 150.187215,51.1038462 C150.766828,51.667181 151.071078,52.4562259 151.019873,53.2632692 C150.998378,54.2527803 150.387115,55.1332511 149.468101,55.4984615 C150.011423,55.6394525 150.483331,55.976855 150.792785,56.4455769 C151.046248,56.8825401 151.177019,57.3799485 151.171266,57.8851923 C151.214587,58.7171918 150.88089,59.5244059 150.262911,60.0825 C149.606384,60.6298635 148.770033,60.9134169 147.916329,60.8780769 C147.0813,60.9078097 146.262935,60.6392345 145.607595,60.1203846 C144.885078,59.6321825 144.48036,58.7930287 144.547848,57.9230769 L145.91038,57.9230769 C145.88584,58.4026355 146.064487,58.870316 146.402405,59.2111538 C146.773346,59.5497154 147.263477,59.7268781 147.764937,59.7036538 C148.278651,59.7328771 148.78276,59.5555869 149.165316,59.2111538 C149.474757,58.8551791 149.637154,58.3946104 149.619494,57.9230769 C149.71581,57.4071344 149.551734,56.876838 149.180951,56.505697 C148.810167,56.1345559 148.280382,55.9703218 147.764937,56.0667308 L146.553797,56.0667308 L146.553797,54.9301923 Z" id="Path" fill="#293052"></path>
                    <polygon id="Path" fill="#D5D3DA" points="25.0992405 52.4298077 50.1925316 52.4298077 50.1925316 68.9475 25.0992405 68.9475"></polygon>
                    <polygon id="Path" fill="#D5D3DA" transform="translate(37.661484, 68.966252) rotate(-45.000000) translate(-37.661484, -68.966252) " points="35.9772438 67.2820111 39.3473497 67.2803862 39.3457248 70.6504921 35.9756189 70.652117"></polygon>
                    <polygon id="Path" fill="#293052" points="38.3839241 65.9546154 37.0213924 65.9546154 37.0213924 57.0517308 34.9018987 57.0517308 34.9018987 56.0667308 38.3839241 55.6878846"></polygon>
                </g>
            </g>
            <g id="Group" transform="translate(247.000000, 114.000000)" fill="#2A3052" fill-rule="nonzero">
                <path d="M12.546,3.976 L12.656,5.106 C13.1039238,4.3238753 13.9428641,3.84842467 14.844,3.866 C15.647,3.866 16.267,4.086 16.705,4.596 C17.143,5.07 17.362,5.8 17.362,6.785 L17.362,11.528 L16.012,11.528 L16.012,6.822 C16.012,6.165 15.866,5.691 15.611,5.399 C15.355,5.107 14.954,4.997 14.443,4.997 C14.042,4.997 13.713,5.107 13.422,5.289 C13.11747,5.47808053 12.8662136,5.74172768 12.692,6.055 L12.692,11.528 L11.342,11.528 L11.342,4.012 L12.546,3.976 Z M23.82,10.916 C23.783,10.734 23.783,10.588 23.783,10.406 C23.5204663,10.7718094 23.1872275,11.0812455 22.803,11.316 C22.403,11.57 21.966,11.679 21.494,11.679 C20.731,11.679 20.15,11.497 19.75,11.061 C19.328786,10.6236299 19.1054009,10.0326353 19.132,9.426 C19.132,8.699 19.422,8.154 20.004,7.754 C20.586,7.354 21.349,7.136 22.33,7.136 L23.783,7.136 L23.783,6.41 C23.783,5.974 23.638,5.61 23.383,5.356 C23.129,5.102 22.73,4.956 22.257,4.956 C21.821,4.956 21.457,5.066 21.203,5.283 C20.949,5.501 20.803,5.792 20.803,6.083 L19.532,6.083 L19.532,6.046 C19.496,5.501 19.75,4.993 20.295,4.556 C20.84,4.12 21.53,3.866 22.366,3.866 C23.202,3.866 23.892,4.084 24.401,4.52 C24.91,4.956 25.164,5.574 25.164,6.373 L25.164,9.971 C25.164,10.225 25.164,10.479 25.201,10.734 C25.237,10.988 25.273,11.243 25.346,11.461 L23.929,11.461 L23.929,11.533 C23.892,11.315 23.856,11.097 23.819,10.916 L23.82,10.916 Z M21.62,10.479 C22.093,10.479 22.565,10.37 22.928,10.116 C23.328,9.862 23.582,9.571 23.691,9.244 L23.691,8.044 L22.201,8.044 C21.657,8.044 21.221,8.19 20.893,8.444 C20.5899957,8.67889546 20.415154,9.04265514 20.421,9.426 C20.421,9.753 20.531,10.007 20.711,10.226 C20.93,10.37 21.221,10.479 21.621,10.479 L21.62,10.479 Z M6.413,1.516 L6.413,2.54 L1.5,2.54 L1.5,6.02 L5.685,6.02 L5.685,7.074 L1.5,7.074 L1.5,11.528 L0.057,11.528 L0.057,1.516 L6.413,1.516 Z M7.855,4.085 L9.19,4.085 L9.19,11.43 L7.855,11.43 L7.855,4.085 Z M7.873,0.75 L7.873,2.074 L9.233,2.074 L9.233,0.749 L7.873,0.75 Z M27.24,0.7 L28.593,0.7 L28.593,11.382 L27.241,11.382 L27.24,0.7 Z" id="Shape"></path>
            </g>
            <g id="Group" transform="translate(23.000000, 130.000000)" fill="#2A3052" fill-rule="nonzero">
                <path d="M5.826,4.06 L5.941,5.247 C6.41137625,4.4255301 7.29257758,3.92625937 8.239,3.945 C9.081,3.945 9.732,4.175 10.192,4.711 C10.652,5.208 10.882,5.974 10.882,7.008 L10.882,11.988 L9.464,11.988 L9.464,7.047 C9.464,6.357 9.311,5.859 9.044,5.553 C8.775,5.247 8.354,5.132 7.818,5.132 C7.43824077,5.12789035 7.06546682,5.23419867 6.745,5.438 C6.439,5.63 6.171,5.898 5.979,6.242 L5.979,11.987 L4.562,11.987 L4.562,4.097 L5.826,4.059 L5.826,4.06 Z M0.87,1.316 L2.222,1.316 L2.222,11.987 L0.87,11.987 L0.87,1.316 Z M24.332,4.059 L25.711,4.059 L25.711,11.651 L24.331,11.651 L24.332,4.059 Z M24.35,0.611 L24.35,1.98 L25.755,1.98 L25.755,0.611 L24.35,0.611 Z M13.018,4.059 L14.398,4.059 L14.398,11.651 L13.018,11.651 L13.018,4.059 Z M13.037,0.611 L13.037,1.98 L14.442,1.98 L14.442,0.611 L13.037,0.611 Z M21.299,6.77 C22.072,6.742 22.463,6.77 22.627,6.77 C22.627,5.906 22.057,3.915 19.452,3.993 C16.846,4.071 16.15,6.918 16.266,8.516 C16.381,10.114 17.426,12.07 19.749,12.001 C22.072,11.932 22.627,10.056 22.627,9.405 C22.209,9.402 21.767,9.402 21.299,9.405 C21.299,10.044 20.854,10.827 19.749,10.901 C18.644,10.975 17.814,10.116 17.707,8.516 C17.601,6.916 18.037,5.081 19.483,5.081 C20.928,5.081 21.299,6.161 21.299,6.77 Z M30.965,3.99 C32.313,3.99 34.302,4.587 34.502,7.657 C34.702,10.727 32.792,11.987 31.086,11.987 C29.381,11.987 27.621,10.797 27.621,7.827 C27.621,4.858 29.618,3.99 30.965,3.99 Z M31.074,5.103 C29.716,5.103 29.024,6.258 29.024,7.855 C29.024,9.452 29.508,10.921 31.074,10.921 C32.64,10.921 33.227,9.444 33.103,7.737 C32.979,6.03 32.432,5.103 31.073,5.103 L31.074,5.103 Z" id="Shape"></path>
            </g>
            <g id="Group-18" transform="translate(15.000000, 11.000000)" fill-rule="nonzero">
                <path d="M0.242,10.747 L0.242,0.815 L3.708,0.815 C4.922,0.815 5.922,1.202 6.709,1.978 C7.496,2.753 7.889,3.748 7.889,4.962 L7.889,6.606 C7.889,7.825 7.496,8.819 6.709,9.59 C5.922,10.361 4.922,10.747 3.708,10.747 L0.242,10.747 Z M2.234,2.349 L2.234,9.219 L3.708,9.219 C4.363,9.219 4.89,8.974 5.29,8.485 C5.69,7.996 5.89,7.37 5.89,6.605 L5.89,4.948 C5.89,4.188 5.69,3.566 5.29,3.079 C4.89,2.593 4.363,2.349 3.708,2.349 L2.234,2.349 Z M11.471,10.747 L9.479,10.747 L9.479,3.366 L11.471,3.366 L11.471,10.746 L11.471,10.747 Z M10.877,0.357 L13.094,0.357 L13.108,0.398 L11.218,2.172 L9.52,2.172 L10.877,0.357 Z M12.876,7.117 C12.876,5.953 13.128,5.014 13.633,4.3 C14.138,3.586 14.847,3.23 15.761,3.23 C16.175,3.23 16.539,3.323 16.853,3.509 C17.166,3.695 17.435,3.961 17.658,4.307 L17.814,3.366 L19.527,3.366 L19.527,10.712 C19.527,11.672 19.213,12.414 18.585,12.94 C17.958,13.465 17.082,13.728 15.959,13.728 C15.586,13.728 15.191,13.676 14.772,13.574 C14.3708349,13.4778492 13.9817317,13.336967 13.612,13.154 L13.947,11.667 C14.251,11.813 14.567,11.923 14.891,11.998 C15.217,12.073 15.568,12.111 15.945,12.111 C16.491,12.111 16.892,11.997 17.149,11.77 C17.406,11.542 17.535,11.188 17.535,10.706 L17.535,10.037 C17.3293695,10.304289 17.0657455,10.5214112 16.764,10.672 C16.4467212,10.8221773 16.0989599,10.8967954 15.748,10.89 C14.843,10.89 14.138,10.558 13.633,9.894 C13.128,9.23 12.876,8.352 12.876,7.261 L12.876,7.118 L12.876,7.117 Z M14.868,7.261 C14.868,7.907 14.976,8.415 15.192,8.785 C15.408,9.156 15.762,9.341 16.252,9.341 C16.557,9.341 16.815,9.286 17.027,9.174 C17.238,9.063 17.407,8.9 17.535,8.686 L17.535,5.487 C17.4166757,5.26897464 17.2410138,5.08743429 17.027,4.962 C16.7942707,4.83392644 16.5315334,4.77039995 16.266,4.778 C15.779,4.778 15.425,4.994 15.202,5.426 C14.979,5.858 14.868,6.422 14.868,7.118 L14.868,7.261 Z M23.148,10.747 L21.157,10.747 L21.157,3.366 L23.149,3.366 L23.149,10.746 L23.148,10.747 Z M23.148,1.599 L21.157,1.599 L21.157,0.105 L23.149,0.105 L23.149,1.6 L23.148,1.599 Z M27.174,1.559 L27.174,3.366 L28.422,3.366 L28.422,4.764 L27.174,4.764 L27.174,8.523 C27.174,8.809 27.234,9.013 27.354,9.137 C27.474,9.259 27.633,9.321 27.828,9.321 C27.933,9.321 28.024,9.315 28.101,9.304 C28.179,9.292 28.267,9.274 28.367,9.246 L28.531,10.686 C28.1461683,10.8243715 27.7399431,10.8937683 27.331,10.891 C26.644,10.89 26.115,10.701 25.744,10.324 C25.374,9.946 25.188,9.348 25.188,8.53 L25.188,4.764 L24.111,4.764 L24.111,3.366 L25.188,3.366 L25.188,1.558 L27.174,1.558 L27.174,1.559 Z M29.343,6.988 C29.343,5.888 29.65,4.986 30.263,4.283 C30.878,3.581 31.728,3.229 32.815,3.229 C33.906,3.229 34.761,3.579 35.38,4.279 C35.998,4.98 36.307,5.883 36.307,6.988 L36.307,7.131 C36.307,8.241 35.999,9.145 35.383,9.843 C34.767,10.541 33.915,10.89 32.829,10.89 C31.737,10.89 30.883,10.54 30.267,9.843 C29.651,9.145 29.343,8.241 29.343,7.131 L29.343,6.988 Z M31.328,7.131 C31.328,7.804 31.446,8.344 31.683,8.751 C31.919,9.158 32.301,9.361 32.829,9.361 C33.342,9.361 33.719,9.157 33.957,8.748 C34.197,8.338 34.316,7.8 34.316,7.131 L34.316,6.988 C34.316,6.333 34.196,5.798 33.954,5.385 C33.713,4.971 33.334,4.765 32.814,4.765 C32.301,4.765 31.924,4.972 31.686,5.388 C31.447,5.804 31.328,6.338 31.328,6.988 L31.328,7.131 Z M54.425,10.747 C54.3507484,10.5737419 54.2882732,10.3956708 54.238,10.214 C54.1852982,10.0262748 54.147514,9.83467843 54.125,9.641 C53.9244699,9.99588349 53.6470147,10.3013575 53.313,10.535 C52.977,10.772 52.577,10.89 52.113,10.89 C51.34,10.89 50.743,10.69 50.325,10.293 C49.907,9.895 49.698,9.353 49.698,8.666 C49.698,7.943 49.976,7.382 50.533,6.985 C51.091,6.587 51.903,6.388 52.973,6.388 L54.091,6.388 L54.091,5.8 C54.091,5.445 53.998,5.17 53.811,4.975 C53.625,4.779 53.347,4.681 52.979,4.681 C52.656,4.681 52.407,4.76 52.232,4.917 C52.057,5.074 51.969,5.288 51.969,5.561 L50.053,5.561 L50.039,5.521 C50.007,4.897 50.279,4.36 50.854,3.907 C51.429,3.455 52.181,3.228 53.109,3.228 C53.995,3.228 54.713,3.451 55.261,3.897 C55.809,4.342 56.083,4.981 56.083,5.814 L56.083,8.863 C56.083,9.208 56.109,9.533 56.161,9.838 C56.213,10.143 56.296,10.445 56.411,10.746 L54.425,10.746 L54.425,10.747 Z M52.604,9.417 C52.949,9.417 53.259,9.33 53.532,9.157 C53.804,8.984 53.991,8.784 54.091,8.557 L54.091,7.513 L52.972,7.513 C52.549,7.513 52.23,7.618 52.014,7.827 C51.798,8.037 51.69,8.293 51.69,8.597 C51.69,8.847 51.77,9.047 51.932,9.195 C52.093,9.342 52.317,9.416 52.604,9.416 L52.604,9.417 Z M61.458,5.077 L60.728,5.057 C60.433,5.057 60.189,5.119 59.998,5.242 C59.8046708,5.36778682 59.6529508,5.54804134 59.562,5.76 L59.562,10.747 L57.577,10.747 L57.577,3.366 L59.425,3.366 L59.514,4.457 C59.687,4.071 59.911,3.769 60.186,3.553 C60.461,3.337 60.778,3.229 61.137,3.229 C61.237,3.229 61.33,3.237 61.414,3.253 C61.498,3.269 61.584,3.288 61.67,3.311 L61.458,5.078 L61.458,5.077 Z" id="Shape" fill="#020202"></path>
                <path d="M43.381,7.374 L43.381,10.983 L41.385,10.983 L41.385,1.03 L45.193,1.03 C46.337,1.03 47.237,1.322 47.893,1.905 C48.549,2.488 48.878,3.256 48.878,4.209 C48.878,5.161 48.549,5.927 47.893,6.505 C47.237,7.085 46.337,7.374 45.193,7.374 L43.381,7.374 Z M43.381,5.836 L45.193,5.836 C45.749,5.836 46.171,5.684 46.458,5.381 C46.745,5.078 46.888,4.691 46.888,4.222 C46.888,3.744 46.746,3.348 46.461,3.036 C46.176,2.724 45.754,2.568 45.193,2.568 L43.381,2.568 L43.381,5.836 Z" id="Shape" fill="#000000"></path>
            </g>
            <g id="Group" transform="translate(123.000000, 154.000000)" fill="#FFFFFF" fill-rule="nonzero">
                <path d="M51.925,9.662 L49.402,9.662 L49.402,1.314 L51.925,1.314 L51.925,9.662 Z M51.925,14.054 L49.402,14.054 L49.402,11.811 L51.925,11.811 L51.925,14.054 Z" id="Shape"></path>
                <path d="M27.94,4.076 L30.036,4.076 L30.142,5.603 C31,4.323 32.114,3.753 33.484,3.894 C34.277,3.976 35.949,4.236 36.447,6.488 C36.63,7.313 36.591,8.708 36.577,10.603 C36.572,11.339 36.572,12.613 36.577,14.426 L34.277,14.426 L34.277,7.942 C34.277,7.18 34.064,6.329 33.424,6.007 C32.546,5.564 30.891,5.75 30.227,6.866 L30.227,14.426 L27.94,14.426 L27.94,4.076 Z M10.229,8.872 L10.229,7.157 L15.416,7.157 C15.476,10.147 15.476,11.889 15.416,12.385 C14.979,13.693 9.798,16.072 6.453,13.055 C5.456,12.155 4.987,11.159 4.731,9.651 C4.72,8.111 4.692,6.665 4.703,5.298 C4.956,3.623 5.517,2.671 5.969,2.131 C7.614,0.165 10.234,-0.259 12.539,0.538 C14.843,1.335 15.142,2.99 15.329,4.608 C14.795,4.608 14.513,4.586 13.072,4.608 C13.218,3.698 12.39,1.937 10.227,2.034 C8.065,2.131 7.045,3.907 7.045,5.387 C7.045,6.867 6.967,6.37 7.045,9.311 C7.143,12.688 11.191,13.594 13.072,11.791 L13.142,8.915 L10.229,8.872 Z M0.036,8.103 L2.186,8.103 L2.186,17.623 L0.036,17.623 L0.036,8.103 Z M0.079,3.896 L0.079,5.717 L2.217,5.717 L2.217,3.897 L0.079,3.896 Z M41.216,6.683 C40.53,6.679 39.811,6.679 39.059,6.683 C39.059,5.601 39.833,3.639 42.931,3.639 C46.031,3.639 46.774,5.767 46.858,6.225 C46.942,6.683 46.642,13.11 47.29,13.84 L44.988,13.843 C44.798,13.193 44.703,12.711 44.703,12.4 C44.343,12.839 43.726,13.64 42.777,13.934 C41.828,14.228 39.672,14.386 38.789,12.317 C38.207,10.954 38.579,9.42 39.672,8.717 C41.479,7.557 43.962,7.945 44.703,7.945 C44.799,5.875 44.18,5.393 42.777,5.393 C41.842,5.393 41.321,5.823 41.216,6.683 Z M44.702,9.361 C43.944316,9.34427053 43.1862984,9.3506068 42.429,9.38 C41.526,9.46 40.721,10.127 40.789,11.079 C40.871,12.214 42.162,12.422 43.172,12.095 C44.019,11.82 44.61,11.111 44.702,10.809 L44.702,9.361 Z M20.158,6.683 C19.472,6.679 18.753,6.679 18.001,6.683 C18.001,5.601 18.775,3.639 21.874,3.639 C24.972,3.639 25.716,5.767 25.8,6.225 C25.884,6.683 25.584,13.11 26.232,13.84 L23.93,13.843 C23.74,13.193 23.645,12.711 23.645,12.4 C23.286,12.839 22.669,13.64 21.72,13.934 C20.77,14.228 18.615,14.386 17.732,12.317 C17.15,10.954 17.522,9.42 18.615,8.717 C20.421,7.557 22.905,7.945 23.645,7.945 C23.741,5.875 23.123,5.393 21.72,5.393 C20.784,5.393 20.264,5.823 20.158,6.683 Z M23.645,9.361 C22.8869829,9.34425023 22.1286314,9.3505865 21.371,9.38 C20.468,9.46 19.663,10.127 19.731,11.079 C19.814,12.214 21.104,12.422 22.114,12.095 C22.961,11.82 23.552,11.111 23.644,10.809 L23.644,9.361 L23.645,9.361 Z" id="Shape"></path>
            </g>
        </g>
    </g>
</svg>