<svg width="300" height="199" viewBox="0 0 300 199" xmlns="http://www.w3.org/2000/svg"><title>spanish even</title><g fill="none" fill-rule="evenodd"><path fill="#F1F2F2" d="M0 0h300v199H0z"/><path d="M39.125 55.375V74.75H75.25V55.375H39.125zm0-1H75.25V34h1v20.375h36.125V34h1v20.375H149.5V34h1v20.375h36.125V34h1v20.375h36.125V34h1v20.375h36.125V34h1v20.375H299.5v1h-37.625V74.75H299.5v1h-37.625v19.375H299.5v1h-37.625V115.5H299.5v1h-37.625v19.375H299.5v1h-37.625v19.375H299.5v1h-37.625v19.375H299.5v1h-37.625V199h-1v-21.375H224.75V199h-1v-21.375h-36.125V199h-1v-21.375H150.5V199h-1v-21.375h-36.125V199h-1v-21.375H76.25V199h-1v-21.375H39.125V199h-1v-21.375H1.5v-1h36.625V157.25H1.5v-1h36.625v-19.375H1.5v-1h36.625V116.5H1.5v-1h36.625V96.125H1.5v-1h36.625V75.75H1.5v-1h36.625V55.375H1.5v-1h36.625V34h1v20.375zm221.75 1H224.75V74.75h36.125V55.375zm-37.125 0h-36.125V74.75h36.125V55.375zm-37.125 0H150.5V74.75h36.125V55.375zm-37.125 0h-36.125V74.75H149.5V55.375zm-37.125 0H76.25V74.75h36.125V55.375zM39.125 75.75v19.375H75.25V75.75H39.125zm221.75 0H224.75v19.375h36.125V75.75zm-37.125 0h-36.125v19.375h36.125V75.75zm-37.125 0H150.5v19.375h36.125V75.75zm-37.125 0h-36.125v19.375H149.5V75.75zm-37.125 0H76.25v19.375h36.125V75.75zm-73.25 20.375V115.5H75.25V96.125H39.125zm221.75 0H224.75V115.5h36.125V96.125zm-37.125 0h-36.125V115.5h36.125V96.125zm-37.125 0H150.5V115.5h36.125V96.125zm-37.125 0h-36.125V115.5H149.5V96.125zm-37.125 0H76.25V115.5h36.125V96.125zM39.125 116.5v19.375H75.25V116.5H39.125zm221.75 0H224.75v19.375h36.125V116.5zm-37.125 0h-36.125v19.375h36.125V116.5zm-37.125 0H150.5v19.375h36.125V116.5zm-37.125 0h-36.125v19.375H149.5V116.5zm-37.125 0H76.25v19.375h36.125V116.5zm-73.25 20.375v19.375H75.25v-19.375H39.125zm221.75 0H224.75v19.375h36.125v-19.375zm-37.125 0h-36.125v19.375h36.125v-19.375zm-37.125 0H150.5v19.375h36.125v-19.375zm-37.125 0h-36.125v19.375H149.5v-19.375zm-37.125 0H76.25v19.375h36.125v-19.375zm-73.25 20.375v19.375H75.25V157.25H39.125zm221.75 0H224.75v19.375h36.125V157.25zm-37.125 0h-36.125v19.375h36.125V157.25zm-37.125 0H150.5v19.375h36.125V157.25zm-37.125 0h-36.125v19.375H149.5V157.25zm-37.125 0H76.25v19.375h36.125V157.25z" fill="#DFDEDE"/><path stroke="#C2C2C2" stroke-width="2" d="M1 1h298v197H1z"/><path fill="#C2C2C2" d="M0 33h300v2H0z"/><g transform="translate(3 65.42)"><path d="M.62 30.228h293.334" stroke="#293052" stroke-width="1.215" stroke-linejoin="round" stroke-dasharray="3.608"/><path stroke="#293052" stroke-width="3.608" stroke-linecap="round" stroke-linejoin="round" d="M36.058 50.873l37.12-36.46L110.3 65.676l37.006-28.904 37.197 34.747 74.242-41.291"/><path d="M184.82 80.297h-35.4L143.84 72l-5.353 8.297h-35.4c-2.64 0-4.779 2.18-4.779 4.87v25.202c0 2.69 2.14 4.87 4.779 4.87h81.735a4.731 4.731 0 0 0 3.453-1.385 4.915 4.915 0 0 0 1.44-3.485V85.205a4.916 4.916 0 0 0-1.426-3.51 4.731 4.731 0 0 0-3.467-1.398z" fill="#E88024" fill-rule="nonzero"/><ellipse cx="10.437" cy="9.855" rx="8.219" ry="8.609" opacity=".6" transform="translate(248.308 21.541)" fill="#FFF" fill-rule="nonzero"/><ellipse stroke="#E88024" stroke-width="2.43" cx="258.745" cy="31.397" rx="8.219" ry="8.609"/><ellipse cx="9.481" cy="9.855" rx="8.219" ry="8.609" opacity=".6" transform="translate(26.577 41.018)" fill="#FFF" fill-rule="nonzero"/><ellipse stroke="#E88024" stroke-width="2.43" cx="36.058" cy="50.873" rx="8.219" ry="8.609"/><path fill="#E88024" fill-rule="nonzero" d="M246.053.818h25.346v16.984h-25.346z"/><path fill="#E88024" fill-rule="nonzero" d="M256.263 17.757l2.406-2.406 2.451 2.452-2.406 2.406z"/><path d="M261.077 11.18h1.414v1.13h-1.414v2.414h-1.3V12.31h-4.74v-.818l4.74-7.323h1.491v7.012h-.191zm-4.55 0h3.25V6.233v.35l-3.25 4.597z" fill="#FFF" fill-rule="nonzero"/><path fill="#D5D3DA" fill-rule="nonzero" d="M134.728 14.413h25.347v16.984h-25.347z"/><path fill="#D5D3DA" fill-rule="nonzero" d="M144.965 31.347l2.406-2.406 2.451 2.452-2.406 2.406z"/><path d="M146.044 22.36h1.224c.48.045.954-.126 1.3-.468.275-.382.41-.851.382-1.325a1.931 1.931 0 0 0-.459-1.363 1.701 1.701 0 0 0-1.3-.467 1.778 1.778 0 0 0-1.3.506 1.77 1.77 0 0 0-.497 1.286h-1.3a2.59 2.59 0 0 1 .995-2.104 3.767 3.767 0 0 1 4.625 0c.586.58.893 1.39.841 2.22a2.53 2.53 0 0 1-1.567 2.299 2.296 2.296 0 0 1 1.338.973c.256.45.388.961.382 1.48a2.87 2.87 0 0 1-.917 2.26 3.438 3.438 0 0 1-2.37.818 3.512 3.512 0 0 1-2.332-.78 2.51 2.51 0 0 1-1.07-2.258h1.375c-.024.493.156.974.497 1.324.375.348.87.53 1.377.506a1.928 1.928 0 0 0 1.414-.506c.313-.366.477-.84.459-1.324a1.656 1.656 0 0 0-.443-1.458 1.587 1.587 0 0 0-1.43-.451h-1.224v-1.169z" fill="#293052" fill-rule="nonzero"/><path fill="#D5D3DA" fill-rule="nonzero" d="M23.366 19.788h25.346v16.984H23.366z"/><path fill="#D5D3DA" fill-rule="nonzero" d="M33.623 36.766l2.406-2.406 2.451 2.451-2.406 2.406z"/><path fill="#293052" fill-rule="nonzero" d="M36.784 33.695h-1.376V24.54h-2.14v-1.013l3.516-.39v10.557z"/></g><g fill="#2A3052"><path d="M259.546 116.976l.11 1.13a2.466 2.466 0 0 1 2.188-1.24c.803 0 1.423.22 1.861.73.438.474.657 1.204.657 2.189v4.743h-1.35v-4.706c0-.657-.146-1.131-.401-1.423-.256-.292-.657-.402-1.168-.402-.401 0-.73.11-1.021.292a2.107 2.107 0 0 0-.73.766v5.473h-1.35v-7.516l1.204-.036zM270.82 123.916c-.037-.182-.037-.328-.037-.51a3.367 3.367 0 0 1-.98.91c-.4.254-.837.363-1.309.363-.763 0-1.344-.182-1.744-.618a2.217 2.217 0 0 1-.618-1.635c0-.727.29-1.272.872-1.672.582-.4 1.345-.618 2.326-.618h1.453v-.726c0-.436-.145-.8-.4-1.054-.254-.254-.653-.4-1.126-.4-.436 0-.8.11-1.054.327-.254.218-.4.509-.4.8h-1.271v-.037c-.036-.545.218-1.053.763-1.49.545-.436 1.235-.69 2.071-.69.836 0 1.526.218 2.035.654.509.436.763 1.054.763 1.853v3.598c0 .254 0 .508.037.763.036.254.072.509.145.727h-1.417v.072c-.037-.218-.073-.436-.11-.617zm-2.2-.437c.473 0 .945-.109 1.308-.363.4-.254.654-.545.763-.872v-1.2h-1.49c-.544 0-.98.146-1.308.4a1.219 1.219 0 0 0-.472.982c0 .327.11.581.29.8.219.144.51.253.91.253zM253.413 114.516v1.024H248.5v3.48h4.185v1.054H248.5v4.454h-1.443v-10.012zM254.855 117.085h1.335v7.345h-1.335zM254.873 113.75v1.324h1.36v-1.325zM274.24 113.7h1.353v10.682h-1.352z"/></g><g fill="#2A3052"><path d="M27.826 134.06l.115 1.187a2.589 2.589 0 0 1 2.298-1.302c.842 0 1.493.23 1.953.766.46.497.69 1.263.69 2.297v4.98h-1.418v-4.941c0-.69-.153-1.188-.42-1.494-.269-.306-.69-.421-1.226-.421a1.96 1.96 0 0 0-1.073.306c-.306.192-.574.46-.766.804v5.745h-1.417v-7.89l1.264-.038zM22.87 131.316h1.352v10.671H22.87zM46.332 134.059h1.379v7.592h-1.38zM46.35 130.611v1.369h1.405v-1.369zM35.018 134.059h1.38v7.592h-1.38zM35.037 130.611v1.369h1.405v-1.369zM43.299 136.77c.773-.028 1.164 0 1.328 0 0-.864-.57-2.855-3.175-2.777-2.606.078-3.302 2.925-3.186 4.523.115 1.598 1.16 3.554 3.483 3.485 2.323-.069 2.878-1.945 2.878-2.596-.418-.003-.86-.003-1.328 0 0 .639-.445 1.422-1.55 1.496-1.105.074-1.935-.785-2.042-2.385-.106-1.6.33-3.435 1.776-3.435 1.445 0 1.816 1.08 1.816 1.689zM52.965 133.99c1.348 0 3.337.597 3.537 3.667.2 3.07-1.71 4.33-3.416 4.33-1.705 0-3.465-1.19-3.465-4.16 0-2.969 1.997-3.837 3.344-3.837zm.109 1.113c-1.358 0-2.05 1.155-2.05 2.752 0 1.597.484 3.066 2.05 3.066 1.566 0 2.153-1.477 2.029-3.184-.124-1.707-.671-2.634-2.03-2.634z"/></g><g fill="#FFF"><path d="M173.925 164.662h-2.523v-8.348h2.523zM173.925 169.054h-2.523v-2.243h2.523z"/><g><path d="M149.94 159.076h2.096l.106 1.527c.858-1.28 1.972-1.85 3.342-1.709.793.082 2.465.342 2.963 2.594.183.825.144 2.22.13 4.115-.005.736-.005 2.01 0 3.823h-2.3v-6.484c0-.762-.213-1.613-.853-1.935-.878-.443-2.533-.257-3.197.859v7.56h-2.287v-10.35zM132.229 163.872v-1.715h5.187c.06 2.99.06 4.732 0 5.228-.437 1.308-5.618 3.687-8.963.67-.997-.9-1.466-1.896-1.722-3.404-.011-1.54-.039-2.986-.028-4.353.253-1.675.814-2.627 1.266-3.167 1.645-1.966 4.265-2.39 6.57-1.593 2.304.797 2.603 2.452 2.79 4.07-.534 0-.816-.022-2.257 0 .146-.91-.682-2.671-2.845-2.574-2.162.097-3.182 1.873-3.182 3.353 0 1.48-.078.983 0 3.924.098 3.377 4.146 4.283 6.027 2.48l.07-2.876-2.913-.043zM122.036 163.103h2.15v9.52h-2.15zM122.079 158.896v1.821h2.138v-1.82zM163.216 161.683c-.686-.004-1.405-.004-2.157 0 0-1.082.774-3.044 3.872-3.044 3.1 0 3.843 2.128 3.927 2.586.084.458-.216 6.885.432 7.615l-2.302.003c-.19-.65-.285-1.132-.285-1.443-.36.439-.977 1.24-1.926 1.534-.949.294-3.105.452-3.988-1.617-.582-1.363-.21-2.897.883-3.6 1.807-1.16 4.29-.772 5.031-.772.096-2.07-.523-2.552-1.926-2.552-.935 0-1.456.43-1.561 1.29zm3.486 2.678a37.349 37.349 0 0 0-2.273.019c-.903.08-1.708.747-1.64 1.699.082 1.135 1.373 1.343 2.383 1.016.847-.275 1.438-.984 1.53-1.286v-1.448zM142.158 161.683c-.686-.004-1.405-.004-2.157 0 0-1.082.774-3.044 3.873-3.044 3.098 0 3.842 2.128 3.926 2.586.084.458-.216 6.885.432 7.615l-2.302.003c-.19-.65-.285-1.132-.285-1.443-.359.439-.976 1.24-1.925 1.534-.95.294-3.105.452-3.988-1.617-.582-1.363-.21-2.897.883-3.6 1.806-1.16 4.29-.772 5.03-.772.096-2.07-.522-2.552-1.925-2.552-.936 0-1.456.43-1.562 1.29zm3.487 2.678a37.349 37.349 0 0 0-2.274.019c-.903.08-1.708.747-1.64 1.699.083 1.135 1.373 1.343 2.383 1.016.847-.275 1.438-.984 1.53-1.286v-1.448z"/></g></g><path d="M15.242 21.747v-9.932h3.466c1.214 0 2.214.387 3.001 1.163.787.775 1.18 1.77 1.18 2.984v1.644c0 1.219-.393 2.213-1.18 2.984-.787.771-1.787 1.157-3.001 1.157h-3.466zm1.992-8.398v6.87h1.474c.655 0 1.182-.245 1.582-.734.4-.489.6-1.115.6-1.88v-1.657c0-.76-.2-1.382-.6-1.869-.4-.486-.927-.73-1.582-.73h-1.474zm9.237 8.398h-1.992v-7.381h1.992v7.38zm-.594-10.39h2.217l.014.041-1.89 1.774H24.52l1.357-1.815zm1.999 6.76c0-1.164.252-2.103.757-2.817s1.214-1.07 2.128-1.07c.414 0 .778.093 1.092.279.313.186.582.452.805.798l.156-.941h1.713v7.346c0 .96-.314 1.702-.942 2.228-.627.525-1.503.788-2.626.788-.373 0-.768-.052-1.187-.154a5.512 5.512 0 0 1-1.16-.42l.335-1.487c.304.146.62.256.944.331.326.075.677.113 1.054.113.546 0 .947-.114 1.204-.341.257-.228.386-.582.386-1.064v-.669a2.228 2.228 0 0 1-.771.635 2.272 2.272 0 0 1-1.016.218c-.905 0-1.61-.332-2.115-.996-.505-.664-.757-1.542-.757-2.633v-.143zm1.992.144c0 .646.108 1.154.324 1.524.216.371.57.556 1.06.556.305 0 .563-.055.775-.167.211-.111.38-.274.508-.488v-3.199a1.361 1.361 0 0 0-.508-.525 1.49 1.49 0 0 0-.761-.184c-.487 0-.841.216-1.064.648-.223.432-.334.996-.334 1.692v.143zm8.28 3.486h-1.991v-7.381h1.992v7.38zm0-9.148h-1.991v-1.494h1.992V12.6zm4.026-.04v1.807h1.248v1.398h-1.248v3.759c0 .286.06.49.18.614.12.122.279.184.474.184.105 0 .196-.006.273-.017.078-.012.166-.03.266-.058l.164 1.44a3.477 3.477 0 0 1-1.2.205c-.687-.001-1.216-.19-1.587-.567-.37-.378-.556-.976-.556-1.794v-3.766h-1.077v-1.398h1.077v-1.808h1.986zm2.169 5.429c0-1.1.307-2.002.92-2.705.615-.702 1.465-1.054 2.552-1.054 1.091 0 1.946.35 2.565 1.05.618.701.927 1.604.927 2.709v.143c0 1.11-.308 2.014-.924 2.712-.616.698-1.468 1.047-2.554 1.047-1.092 0-1.946-.35-2.562-1.047-.616-.698-.924-1.602-.924-2.712v-.143zm1.985.143c0 .673.118 1.213.355 1.62.236.407.618.61 1.146.61.513 0 .89-.204 1.128-.613.24-.41.359-.948.359-1.617v-.143c0-.655-.12-1.19-.362-1.603-.241-.414-.62-.62-1.14-.62-.513 0-.89.207-1.128.623-.239.416-.358.95-.358 1.6v.143zm23.097 3.616a4.19 4.19 0 0 1-.187-.533 3.701 3.701 0 0 1-.113-.573 2.73 2.73 0 0 1-.812.894c-.336.237-.736.355-1.2.355-.773 0-1.37-.2-1.788-.597-.418-.398-.627-.94-.627-1.627 0-.723.278-1.284.835-1.681.558-.398 1.37-.597 2.44-.597h1.118V16.8c0-.355-.093-.63-.28-.825-.186-.196-.464-.294-.832-.294-.323 0-.572.079-.747.236-.175.157-.263.371-.263.644h-1.916l-.014-.04c-.032-.624.24-1.161.815-1.614.575-.452 1.327-.679 2.255-.679.886 0 1.604.223 2.152.669.548.445.822 1.084.822 1.917v3.049c0 .345.026.67.078.975.052.305.135.607.25.908h-1.986zm-1.821-1.33c.345 0 .655-.087.928-.26.272-.173.459-.373.559-.6v-1.044h-1.119c-.423 0-.742.105-.958.314-.216.21-.324.466-.324.77 0 .25.08.45.242.598.161.147.385.221.672.221zm8.854-4.34l-.73-.02c-.295 0-.539.062-.73.185a1.167 1.167 0 0 0-.436.518v4.987h-1.985v-7.381h1.848l.089 1.091c.173-.386.397-.688.672-.904.275-.216.592-.324.951-.324.1 0 .193.008.277.024.084.016.17.035.256.058l-.212 1.767z" fill="#020202"/><path d="M58.381 18.374v3.609h-1.996V12.03h3.808c1.144 0 2.044.292 2.7.875.656.583.985 1.351.985 2.304 0 .952-.329 1.718-.985 2.296-.656.58-1.556.869-2.7.869h-1.812zm0-1.538h1.812c.556 0 .978-.152 1.265-.455.287-.303.43-.69.43-1.159 0-.478-.142-.874-.427-1.186-.285-.312-.707-.468-1.268-.468h-1.812v3.268z" fill="#000"/></g></svg>