<?xml version="1.0" encoding="UTF-8"?>
<svg width="299px" height="197px" viewBox="0 0 299 197" version="1.1" xmlns="http://www.w3.org/2000/svg" xmlns:xlink="http://www.w3.org/1999/xlink">
    <!-- Generator: Sketch 53.1 (72631) - https://sketchapp.com -->
    <title>Even</title>
    <desc>Created with Sketch.</desc>
    <g id="Page-1" stroke="none" stroke-width="1" fill="none" fill-rule="evenodd">
        <g id="Even" fill-rule="nonzero">
            <polygon id="Path" fill="#F1F1F2" points="0 0 299 0 299 197 0 197"></polygon>
            <path d="M1.98671096,1.9798995 L1.98671096,195.020101 L297.013289,195.020101 L297.013289,1.9798995 L1.98671096,1.9798995 Z M299,0 L299,197 L0,197 L0,0 L299,0 Z" id="Path" fill="#C2C2C2"></path>
            <path d="M4.57962025,54.9928773 L4.57962025,53.7817381 L294.988101,53.7817381 L294.988101,54.9928773 L4.57962025,54.9928773 Z M4.57962025,135.346147 L4.57962025,134.135007 L294.988101,134.135007 L294.988101,135.346147 L4.57962025,135.346147 Z M4.57962025,155.424993 L4.57962025,154.213853 L294.988101,154.213853 L294.988101,155.424993 L4.57962025,155.424993 Z M4.57962025,175.503839 L4.57962025,174.292699 L294.988101,174.292699 L294.988101,175.503839 L4.57962025,175.503839 Z M39.0592405,34.3084615 L40.2703797,34.3084615 L40.2703797,192.590385 L39.0592405,192.590385 L39.0592405,34.3084615 Z M75.8097469,34.3084615 L77.0208861,34.3084615 L77.0208861,192.590385 L75.8097469,192.590385 L75.8097469,34.3084615 Z M112.560253,34.3084615 L113.771393,34.3084615 L113.771393,192.590385 L112.560253,192.590385 L112.560253,34.3084615 Z M149.272911,34.3084615 L150.484051,34.3084615 L150.484051,192.590385 L149.272911,192.590385 L149.272911,34.3084615 Z M186.023417,34.3084615 L187.234557,34.3084615 L187.234557,192.590385 L186.023417,192.590385 L186.023417,34.3084615 Z M222.773924,34.3084615 L223.985064,34.3084615 L223.985064,192.590385 L222.773924,192.590385 L222.773924,34.3084615 Z M259.52443,34.3084615 L260.73557,34.3084615 L260.73557,192.590385 L259.52443,192.590385 L259.52443,34.3084615 Z M4.57962025,115.2673 L4.57962025,114.056161 L294.988101,114.056161 L294.988101,115.2673 L4.57962025,115.2673 Z M4.57962025,75.0717234 L4.57962025,73.8605842 L294.988101,73.8605842 L294.988101,75.0717234 L4.57962025,75.0717234 Z" id="Shape" fill="#DEDEDD"></path>
            <path d="M4.57962025,95.1884542 L4.57962025,93.977315 L8.17518986,93.977315 L8.17518986,95.1884542 L4.57962025,95.1884542 Z M11.7707595,95.1884542 L11.7707595,93.977315 L15.3663291,93.977315 L15.3663291,95.1884542 L11.7707595,95.1884542 Z M18.9618987,95.1884542 L18.9618987,93.977315 L22.5574683,93.977315 L22.5574683,95.1884542 L18.9618987,95.1884542 Z M26.1530379,95.1884542 L26.1530379,93.977315 L29.7486075,93.977315 L29.7486075,95.1884542 L26.1530379,95.1884542 Z M33.3441771,95.1884542 L33.3441771,93.977315 L36.9397467,93.977315 L36.9397467,95.1884542 L33.3441771,95.1884542 Z M40.5353164,95.1884542 L40.5353164,93.977315 L44.130886,93.977315 L44.130886,95.1884542 L40.5353164,95.1884542 Z M47.7264556,95.1884542 L47.7264556,93.977315 L51.3220252,93.977315 L51.3220252,95.1884542 L47.7264556,95.1884542 Z M54.9175948,95.1884542 L54.9175948,93.977315 L58.5131644,93.977315 L58.5131644,95.1884542 L54.9175948,95.1884542 Z M62.108734,95.1884542 L62.108734,93.977315 L65.7043036,93.977315 L65.7043036,95.1884542 L62.108734,95.1884542 Z M69.2998732,95.1884542 L69.2998732,93.977315 L72.8954429,93.977315 L72.8954429,95.1884542 L69.2998732,95.1884542 Z M76.4910125,95.1884542 L76.4910125,93.977315 L80.0865821,93.977315 L80.0865821,95.1884542 L76.4910125,95.1884542 Z M83.6821517,95.1884542 L83.6821517,93.977315 L87.2777213,93.977315 L87.2777213,95.1884542 L83.6821517,95.1884542 Z M90.8732909,95.1884542 L90.8732909,93.977315 L94.4688605,93.977315 L94.4688605,95.1884542 L90.8732909,95.1884542 Z M98.0644301,95.1884542 L98.0644301,93.977315 L101.66,93.977315 L101.66,95.1884542 L98.0644301,95.1884542 Z M105.255569,95.1884542 L105.255569,93.977315 L108.851139,93.977315 L108.851139,95.1884542 L105.255569,95.1884542 Z M112.446709,95.1884542 L112.446709,93.977315 L116.042278,93.977315 L116.042278,95.1884542 L112.446709,95.1884542 Z M119.637848,95.1884542 L119.637848,93.977315 L123.233417,93.977315 L123.233417,95.1884542 L119.637848,95.1884542 Z M126.828987,95.1884542 L126.828987,93.977315 L130.424557,93.977315 L130.424557,95.1884542 L126.828987,95.1884542 Z M134.020126,95.1884542 L134.020126,93.977315 L137.615696,93.977315 L137.615696,95.1884542 L134.020126,95.1884542 Z M141.211265,95.1884542 L141.211265,93.977315 L144.806835,93.977315 L144.806835,95.1884542 L141.211265,95.1884542 Z M148.402405,95.1884542 L148.402405,93.977315 L151.997974,93.977315 L151.997974,95.1884542 L148.402405,95.1884542 Z M155.593544,95.1884542 L155.593544,93.977315 L159.189114,93.977315 L159.189114,95.1884542 L155.593544,95.1884542 Z M162.784683,95.1884542 L162.784683,93.977315 L166.380253,93.977315 L166.380253,95.1884542 L162.784683,95.1884542 Z M169.975822,95.1884542 L169.975822,93.977315 L173.571392,93.977315 L173.571392,95.1884542 L169.975822,95.1884542 Z M177.166962,95.1884542 L177.166962,93.977315 L180.762531,93.977315 L180.762531,95.1884542 L177.166962,95.1884542 Z M184.358101,95.1884542 L184.358101,93.977315 L187.95367,93.977315 L187.95367,95.1884542 L184.358101,95.1884542 Z M191.54924,95.1884542 L191.54924,93.977315 L195.14481,93.977315 L195.14481,95.1884542 L191.54924,95.1884542 Z M198.740379,95.1884542 L198.740379,93.977315 L202.335949,93.977315 L202.335949,95.1884542 L198.740379,95.1884542 Z M205.931518,95.1884542 L205.931518,93.977315 L209.527088,93.977315 L209.527088,95.1884542 L205.931518,95.1884542 Z M213.122658,95.1884542 L213.122658,93.977315 L216.718227,93.977315 L216.718227,95.1884542 L213.122658,95.1884542 Z M220.313797,95.1884542 L220.313797,93.977315 L223.909366,93.977315 L223.909366,95.1884542 L220.313797,95.1884542 Z M227.504936,95.1884542 L227.504936,93.977315 L231.100506,93.977315 L231.100506,95.1884542 L227.504936,95.1884542 Z M234.696075,95.1884542 L234.696075,93.977315 L238.291645,93.977315 L238.291645,95.1884542 L234.696075,95.1884542 Z M241.887215,95.1884542 L241.887215,93.977315 L245.482784,93.977315 L245.482784,95.1884542 L241.887215,95.1884542 Z M249.078354,95.1884542 L249.078354,93.977315 L252.673923,93.977315 L252.673923,95.1884542 L249.078354,95.1884542 Z M256.269493,95.1884542 L256.269493,93.977315 L259.865063,93.977315 L259.865063,95.1884542 L256.269493,95.1884542 Z M263.460632,95.1884542 L263.460632,93.977315 L267.056202,93.977315 L267.056202,95.1884542 L263.460632,95.1884542 Z M270.651771,95.1884542 L270.651771,93.977315 L274.247341,93.977315 L274.247341,95.1884542 L270.651771,95.1884542 Z M277.842911,95.1884542 L277.842911,93.977315 L281.43848,93.977315 L281.43848,95.1884542 L277.842911,95.1884542 Z M285.03405,95.1884542 L285.03405,93.977315 L288.629619,93.977315 L288.629619,95.1884542 L285.03405,95.1884542 Z M292.225189,95.1884542 L292.225189,93.977315 L294.988101,93.977315 L294.988101,95.1884542 L292.225189,95.1884542 Z" id="Path" fill="#293052"></path>
            <polygon id="Path" fill="#C2C2C2" points="2 30 2 28 297 28 297 30"></polygon>
            <path d="M76.1862917,81.9209243 L40.913118,115.955469 C40.1986062,116.64489 39.0604936,116.62455 38.3710722,115.910039 C37.6816508,115.195527 37.7019905,114.057414 38.4165022,113.367993 L75.1670086,77.9079929 C75.9493243,77.1531485 77.2173979,77.2599523 77.8624341,78.1350158 L113.525494,126.515927 L148.708416,99.5211811 C149.400961,98.9898127 150.375132,99.0327101 151.018291,99.6228957 L186.896329,132.545903 L259.268031,93.0052153 C260.139354,92.5291632 261.231617,92.8495934 261.707669,93.7209161 C262.183721,94.5922388 261.863291,95.6845019 260.991969,96.1605539 L187.490956,136.318246 C186.815669,136.687193 185.980449,136.585452 185.413481,136.065181 L149.699513,103.292731 L114.260192,130.484204 C113.461716,131.09685 112.31587,130.93472 111.718705,130.1246 L76.1862917,81.9209243 Z" id="Path" fill="#293052"></path>
            <path d="M188.650253,147.069423 L153.602912,147.069423 L148.077089,139 L142.778355,147.069423 L107.731013,147.069423 C105.118147,147.069423 103,149.189613 103,151.805 L103,176.316346 C103,178.931733 105.118147,181.051923 107.731013,181.051923 L188.650253,181.051923 C189.924552,181.082545 191.157281,180.59717 192.069229,179.705737 C192.981177,178.814303 193.495178,177.592241 193.49481,176.316346 L193.49481,151.842885 C193.505431,150.560431 192.995941,149.328506 192.082847,148.428812 C191.169753,147.529117 189.931145,147.038599 188.650253,147.069423 Z" id="Path" fill="#E88024"></path>
            <g id="Group" opacity="0.6" transform="translate(251.797468, 87.134615)" fill="#FFFFFF">
                <ellipse id="Oval" cx="8.3325316" cy="8.58480769" rx="8.13734177" ry="8.3725"></ellipse>
            </g>
            <path d="M260.13,105.303062 C254.959133,105.303062 250.781519,101.004721 250.781519,95.7194231 C250.781519,90.4341254 254.959133,86.1357839 260.13,86.1357839 C265.300867,86.1357839 269.478481,90.4341254 269.478481,95.7194231 C269.478481,101.004721 265.300867,105.303062 260.13,105.303062 Z M260.13,102.880784 C263.947393,102.880784 267.056203,99.6821335 267.056203,95.7194231 C267.056203,91.7567127 263.947393,88.5580623 260.13,88.5580623 C256.312607,88.5580623 253.203797,91.7567127 253.203797,95.7194231 C253.203797,99.6821335 256.312607,102.880784 260.13,102.880784 Z" id="Oval" fill="#E88024"></path>
            <g id="Group" opacity="0.6" transform="translate(31.278481, 106.076923)" fill="#FFFFFF">
                <ellipse id="Oval" cx="8.38632911" cy="8.58480769" rx="8.13734177" ry="8.3725"></ellipse>
            </g>
            <path d="M39.6648101,124.24537 C34.4939432,124.24537 30.3163291,119.947028 30.3163291,114.661731 C30.3163291,109.376433 34.4939432,105.078092 39.6648101,105.078092 C44.835677,105.078092 49.0132911,109.376433 49.0132911,114.661731 C49.0132911,119.947028 44.835677,124.24537 39.6648101,124.24537 Z M39.6648101,121.823092 C43.4822027,121.823092 46.5910126,118.624441 46.5910126,114.661731 C46.5910126,110.69902 43.4822027,107.50037 39.6648101,107.50037 C35.8474175,107.50037 32.7386076,110.69902 32.7386076,114.661731 C32.7386076,118.624441 35.8474175,121.823092 39.6648101,121.823092 Z" id="Oval" fill="#E88024"></path>
            <polygon id="Path" fill="#E88024" points="247.56443 65.98 272.657722 65.98 272.657722 82.4976923 247.56443 82.4976923"></polygon>
            <polygon id="Path" fill="#E88024" transform="translate(260.079880, 82.479130) rotate(-45.000000) translate(-260.079880, -82.479130) " points="258.395639 80.7948895 261.765745 80.7932646 261.76412 84.1633705 258.394014 84.1649953"></polygon>
            <path d="M262.438734,76.0573077 L263.839114,76.0573077 L263.839114,77.1559615 L262.438734,77.1559615 L262.438734,79.5048077 L261.151899,79.5048077 L261.151899,77.1559615 L256.458734,77.1559615 L256.458734,76.3603846 L261.151899,69.2380769 L262.627975,69.2380769 L262.627975,76.0573077 L262.438734,76.0573077 Z M257.93481,76.0573077 L261.151899,76.0573077 L261.151899,71.2459615 L261.151899,71.5869231 L257.93481,76.0573077 Z" id="Shape" fill="#FFFFFF"></path>
            <polygon id="Path" fill="#D5D3DA" points="137.350759 79.2017308 162.444051 79.2017308 162.444051 95.7194231 137.350759 95.7194231"></polygon>
            <polygon id="Path" fill="#D5D3DA" transform="translate(149.892511, 95.696233) rotate(-45.000000) translate(-149.892511, -95.696233) " points="148.208271 94.0119922 151.578377 94.0103673 151.576752 97.3804732 148.206646 97.3820981"></polygon>
            <path d="M148.553797,86.9301923 L149.764937,86.9301923 C150.239705,86.9746728 150.710077,86.808499 151.051772,86.4755769 C151.324722,86.1038243 151.458666,85.647974 151.430253,85.1875 C151.457797,84.7030853 151.294769,84.227129 150.976076,83.8615385 C150.62918,83.5370969 150.162739,83.3723117 149.689241,83.4069231 C149.211619,83.3914113 148.747849,83.5689063 148.402405,83.8994231 C148.074322,84.2311548 147.896481,84.6830334 147.91038,85.1496154 L146.623544,85.1496154 C146.605495,84.3493354 146.971334,83.588784 147.607595,83.1038462 C148.960955,82.0745235 150.833855,82.0745235 152.187215,83.1038462 C152.766828,83.667181 153.071078,84.4562259 153.019873,85.2632692 C152.998378,86.2527803 152.387115,87.1332511 151.468101,87.4984615 C152.011423,87.6394525 152.483331,87.976855 152.792785,88.4455769 C153.046248,88.8825401 153.177019,89.3799485 153.171266,89.8851923 C153.214587,90.7171918 152.88089,91.5244059 152.262911,92.0825 C151.606384,92.6298635 150.770033,92.9134169 149.916329,92.8780769 C149.0813,92.9078097 148.262935,92.6392345 147.607595,92.1203846 C146.885078,91.6321825 146.48036,90.7930287 146.547848,89.9230769 L147.91038,89.9230769 C147.88584,90.4026355 148.064487,90.870316 148.402405,91.2111538 C148.773346,91.5497154 149.263477,91.7268781 149.764937,91.7036538 C150.278651,91.7328771 150.78276,91.5555869 151.165316,91.2111538 C151.474757,90.8551791 151.637154,90.3946104 151.619494,89.9230769 C151.71581,89.4071344 151.551734,88.876838 151.180951,88.505697 C150.810167,88.1345559 150.280382,87.9703218 149.764937,88.0667308 L148.553797,88.0667308 L148.553797,86.9301923 Z" id="Path" fill="#293052"></path>
            <polygon id="Path" fill="#D5D3DA" points="27.0992405 84.4298077 52.1925316 84.4298077 52.1925316 100.9475 27.0992405 100.9475"></polygon>
            <polygon id="Path" fill="#D5D3DA" transform="translate(39.661484, 100.966252) rotate(-45.000000) translate(-39.661484, -100.966252) " points="37.9772434 99.282011 41.3473493 99.2803861 41.3457244 102.650492 37.9756185 102.652117"></polygon>
            <polygon id="Path" fill="#293052" points="40.3839241 97.9546154 39.0213924 97.9546154 39.0213924 89.0517308 36.9018987 89.0517308 36.9018987 88.0667308 40.3839241 87.6878846"></polygon>
            <path d="M15.9521484,21 L15.9521484,10.3359375 L19.2333984,10.3359375 C20.1709031,10.3359375 21.0095178,10.547117 21.7492676,10.9694824 C22.4890174,11.3918478 23.0664042,11.9924277 23.4814453,12.7712402 C23.8964865,13.5500527 24.1040039,14.4350536 24.1040039,15.4262695 L24.1040039,15.9169922 C24.1040039,16.9082081 23.9001485,17.7895469 23.4924316,18.5610352 C23.0847148,19.3325234 22.5097693,19.9306619 21.7675781,20.3554688 C21.0253869,20.7802756 20.1879929,20.9951172 19.2553711,21 L15.9521484,21 Z M18.1494141,12.1157227 L18.1494141,19.2348633 L19.2114258,19.2348633 C20.0708051,19.2348633 20.7275368,18.9541044 21.1816406,18.3925781 C21.6357445,17.8310519 21.8676757,17.0278373 21.8774414,15.9829102 L21.8774414,15.4189453 C21.8774414,14.3349555 21.6528343,13.5134305 21.2036133,12.9543457 C20.7543923,12.3952609 20.0976606,12.1157227 19.2333984,12.1157227 L18.1494141,12.1157227 Z M27.8466797,21 L25.7299805,21 L25.7299805,13.0751953 L27.8466797,13.0751953 L27.8466797,21 Z M27.2241211,9.85986328 L29.53125,9.85986328 L27.5024414,12.1303711 L25.78125,12.1303711 L27.2241211,9.85986328 Z M29.362793,16.9790039 C29.362793,15.7631775 29.6520967,14.7841834 30.2307129,14.0419922 C30.8093291,13.299801 31.5893506,12.9287109 32.5708008,12.9287109 C33.4399458,12.9287109 34.1162085,13.2265595 34.5996094,13.8222656 L34.6875,13.0751953 L36.6064453,13.0751953 L36.6064453,20.7363281 C36.6064453,21.429691 36.4489762,22.0327123 36.1340332,22.5454102 C35.8190902,23.058108 35.3759794,23.4487291 34.8046875,23.7172852 C34.2333956,23.9858412 33.564457,24.1201172 32.7978516,24.1201172 C32.216794,24.1201172 31.6503934,24.0041516 31.0986328,23.7722168 C30.5468722,23.540282 30.1293959,23.2412128 29.8461914,22.875 L30.7836914,21.5859375 C31.3110378,22.1767608 31.9506798,22.472168 32.7026367,22.472168 C33.264163,22.472168 33.7011703,22.322023 34.0136719,22.0217285 C34.3261734,21.721434 34.4824219,21.2954129 34.4824219,20.7436523 L34.4824219,20.3188477 C33.9941382,20.8706082 33.3520548,21.1464844 32.5561523,21.1464844 C31.6039991,21.1464844 30.8337432,20.7741736 30.2453613,20.029541 C29.6569795,19.2849084 29.362793,18.2973694 29.362793,17.0668945 L29.362793,16.9790039 Z M31.4794922,17.1328125 C31.4794922,17.8505895 31.6235337,18.413328 31.9116211,18.8210449 C32.1997085,19.2287618 32.5952123,19.4326172 33.0981445,19.4326172 C33.742679,19.4326172 34.2041002,19.1909204 34.4824219,18.7075195 L34.4824219,15.375 C34.1992173,14.8915991 33.7426789,14.6499023 33.112793,14.6499023 C32.6049779,14.6499023 32.205812,14.8574198 31.9152832,15.2724609 C31.6247544,15.6875021 31.4794922,16.3076131 31.4794922,17.1328125 Z M40.4663086,21 L38.3422852,21 L38.3422852,13.0751953 L40.4663086,13.0751953 L40.4663086,21 Z M38.2177734,11.0244141 C38.2177734,10.7070297 38.3239735,10.4458018 38.536377,10.2407227 C38.7487804,10.0356435 39.0380841,9.93310547 39.4042969,9.93310547 C39.7656268,9.93310547 40.0537099,10.0356435 40.2685547,10.2407227 C40.4833995,10.4458018 40.5908203,10.7070297 40.5908203,11.0244141 C40.5908203,11.3466813 40.4821788,11.6103505 40.2648926,11.8154297 C40.0476063,12.0205088 39.760744,12.1230469 39.4042969,12.1230469 C39.0478498,12.1230469 38.7609874,12.0205088 38.5437012,11.8154297 C38.3264149,11.6103505 38.2177734,11.3466813 38.2177734,11.0244141 Z M44.7436523,11.1269531 L44.7436523,13.0751953 L46.0986328,13.0751953 L46.0986328,14.6279297 L44.7436523,14.6279297 L44.7436523,18.5830078 C44.7436523,18.875978 44.7998041,19.0859369 44.9121094,19.2128906 C45.0244146,19.3398444 45.2392562,19.4033203 45.5566406,19.4033203 C45.7910168,19.4033203 45.9985343,19.3862306 46.1791992,19.3520508 L46.1791992,20.9560547 C45.7641581,21.0830084 45.3369163,21.1464844 44.8974609,21.1464844 C43.4130785,21.1464844 42.6562501,20.3969802 42.6269531,18.8979492 L42.6269531,14.6279297 L41.4697266,14.6279297 L41.4697266,13.0751953 L42.6269531,13.0751953 L42.6269531,11.1269531 L44.7436523,11.1269531 Z M46.7285156,16.9643555 C46.7285156,16.1782187 46.8798813,15.4775421 47.1826172,14.8623047 C47.4853531,14.2470672 47.9211397,13.7709978 48.4899902,13.434082 C49.0588407,13.0971663 49.7192345,12.9287109 50.4711914,12.9287109 C51.5405327,12.9287109 52.4133267,13.2558561 53.0895996,13.9101562 C53.7658725,14.5644564 54.143066,15.4531194 54.2211914,16.5761719 L54.2358398,17.1181641 C54.2358398,18.3339905 53.8964878,19.3093225 53.2177734,20.0441895 C52.5390591,20.7790564 51.6284237,21.1464844 50.4858398,21.1464844 C49.343256,21.1464844 48.4313999,20.7802771 47.7502441,20.0478516 C47.0690884,19.315426 46.7285156,18.3193422 46.7285156,17.0595703 L46.7285156,16.9643555 Z M48.8452148,17.1181641 C48.8452148,17.8701209 48.986815,18.4450664 49.2700195,18.8430176 C49.5532241,19.2409688 49.9584935,19.4399414 50.4858398,19.4399414 C50.9985377,19.4399414 51.3989243,19.2434102 51.6870117,18.8503418 C51.9750991,18.4572734 52.1191406,17.8286176 52.1191406,16.9643555 C52.1191406,16.2270471 51.9750991,15.6557637 51.6870117,15.2504883 C51.3989243,14.8452128 50.993655,14.6425781 50.4711914,14.6425781 C49.9536107,14.6425781 49.5532241,14.8439921 49.2700195,15.2468262 C48.986815,15.6496602 48.8452148,16.2734333 48.8452148,17.1181641 Z M66.4086914,17.1108398 C66.4086914,18.3315491 66.1315946,19.3093225 65.5773926,20.0441895 C65.0231906,20.7790564 64.2749071,21.1464844 63.3325195,21.1464844 C62.5317343,21.1464844 61.8847681,20.8681668 61.3916016,20.3115234 L61.3916016,24.046875 L59.2749023,24.046875 L59.2749023,13.0751953 L61.237793,13.0751953 L61.3110352,13.8515625 C61.823733,13.236325 62.4926717,12.9287109 63.3178711,12.9287109 C64.2944385,12.9287109 65.0537082,13.2900354 65.5957031,14.0126953 C66.137698,14.7353552 66.4086914,15.731439 66.4086914,17.0009766 L66.4086914,17.1108398 Z M64.2919922,16.9570312 C64.2919922,16.2197229 64.1613783,15.6508809 63.9001465,15.2504883 C63.6389147,14.8500957 63.2592798,14.6499023 62.7612305,14.6499023 C62.0971646,14.6499023 61.6406262,14.9038061 61.3916016,15.4116211 L61.3916016,18.65625 C61.6503919,19.1787135 62.1118131,19.4399414 62.7758789,19.4399414 C63.7866261,19.4399414 64.2919922,18.612313 64.2919922,16.9570312 Z M72.3120117,21 C72.214355,20.8095694 72.1435549,20.5727553 72.0996094,20.2895508 C71.5869115,20.8608427 70.9204143,21.1464844 70.1000977,21.1464844 C69.3237266,21.1464844 68.6804225,20.9218772 68.170166,20.4726562 C67.6599096,20.0234353 67.4047852,19.4570347 67.4047852,18.7734375 C67.4047852,17.9335896 67.7160613,17.2890647 68.338623,16.8398438 C68.9611848,16.3906228 69.860834,16.1635742 71.0375977,16.1586914 L72.0117188,16.1586914 L72.0117188,15.7045898 C72.0117188,15.3383771 71.9177255,15.0454113 71.7297363,14.8256836 C71.5417471,14.6059559 71.2451192,14.4960938 70.8398438,14.4960938 C70.4833967,14.4960938 70.2038584,14.5815421 70.0012207,14.7524414 C69.798583,14.9233407 69.6972656,15.1577134 69.6972656,15.4555664 L67.5805664,15.4555664 C67.5805664,14.9965797 67.7221666,14.5717793 68.0053711,14.1811523 C68.2885756,13.7905254 68.6889623,13.484132 69.206543,13.2619629 C69.7241237,13.0397938 70.3051726,12.9287109 70.949707,12.9287109 C71.9262744,12.9287109 72.7014131,13.1740698 73.2751465,13.6647949 C73.8488798,14.15552 74.1357422,14.8452104 74.1357422,15.7338867 L74.1357422,19.1689453 C74.140625,19.9209022 74.2456044,20.4897442 74.4506836,20.8754883 L74.4506836,21 L72.3120117,21 Z M70.5615234,19.527832 C70.874025,19.527832 71.1621081,19.4582526 71.4257812,19.3190918 C71.6894544,19.1799309 71.884765,18.9931652 72.0117188,18.7587891 L72.0117188,17.3964844 L71.2207031,17.3964844 C70.1611275,17.3964844 69.5971683,17.7626917 69.5288086,18.4951172 L69.5214844,18.6196289 C69.5214844,18.8833021 69.6142569,19.1005851 69.7998047,19.2714844 C69.9853525,19.4423837 70.2392562,19.527832 70.5615234,19.527832 Z M80.2148438,15.0600586 C79.9267564,15.0209959 79.6728527,15.0014648 79.453125,15.0014648 C78.6523397,15.0014648 78.1274427,15.2724582 77.878418,15.8144531 L77.878418,21 L75.7617188,21 L75.7617188,13.0751953 L77.7612305,13.0751953 L77.8198242,14.0200195 C78.244631,13.2924768 78.8330041,12.9287109 79.5849609,12.9287109 C79.8193371,12.9287109 80.0390615,12.9604489 80.2441406,13.0239258 L80.2148438,15.0600586 Z" id="Dígitopar" fill="#000000"></path>
            <path d="M252.778809,121.101074 L248.303711,121.101074 L248.303711,125.810547 L246.897461,125.810547 L246.897461,115.146484 L253.503906,115.146484 L253.503906,116.303711 L248.303711,116.303711 L248.303711,119.951172 L252.778809,119.951172 L252.778809,121.101074 Z M256.448242,125.810547 L255.093262,125.810547 L255.093262,117.885742 L256.448242,117.885742 L256.448242,125.810547 Z M254.983398,115.783691 C254.983398,115.563964 255.050536,115.378419 255.184814,115.227051 C255.319092,115.075683 255.518065,115 255.781738,115 C256.045411,115 256.245605,115.075683 256.382324,115.227051 C256.519044,115.378419 256.587402,115.563964 256.587402,115.783691 C256.587402,116.003419 256.519044,116.186523 256.382324,116.333008 C256.245605,116.479493 256.045411,116.552734 255.781738,116.552734 C255.518065,116.552734 255.319092,116.479493 255.184814,116.333008 C255.050536,116.186523 254.983398,116.003419 254.983398,115.783691 Z M259.897949,117.885742 L259.941895,118.881836 C260.547366,118.120113 261.338374,117.739258 262.314941,117.739258 C263.989754,117.739258 264.834473,118.684073 264.849121,120.57373 L264.849121,125.810547 L263.494141,125.810547 L263.494141,120.566406 C263.489258,119.995114 263.358644,119.572755 263.102295,119.299316 C262.845946,119.025878 262.44678,118.88916 261.904785,118.88916 C261.46533,118.88916 261.079592,119.006346 260.747559,119.240723 C260.415526,119.475099 260.156739,119.782713 259.971191,120.163574 L259.971191,125.810547 L258.616211,125.810547 L258.616211,117.885742 L259.897949,117.885742 Z M271.785156,125.810547 C271.707031,125.654296 271.643555,125.375979 271.594727,124.975586 C270.964841,125.629886 270.212895,125.957031 269.338867,125.957031 C268.557613,125.957031 267.916751,125.736086 267.41626,125.294189 C266.915769,124.852293 266.665527,124.291996 266.665527,123.613281 C266.665527,122.788082 266.979245,122.147219 267.606689,121.690674 C268.234134,121.234129 269.116694,121.005859 270.254395,121.005859 L271.572754,121.005859 L271.572754,120.383301 C271.572754,119.909666 271.431154,119.532472 271.147949,119.251709 C270.864745,118.970946 270.447268,118.830566 269.895508,118.830566 C269.412107,118.830566 269.006838,118.952635 268.679688,119.196777 C268.352537,119.440919 268.188965,119.736326 268.188965,120.083008 L266.82666,120.083008 C266.82666,119.687498 266.96704,119.305422 267.247803,118.936768 C267.528566,118.568113 267.909421,118.276368 268.390381,118.061523 C268.87134,117.846679 269.399899,117.739258 269.976074,117.739258 C270.889165,117.739258 271.60449,117.967527 272.12207,118.424072 C272.639651,118.880618 272.908203,119.509273 272.927734,120.310059 L272.927734,123.95752 C272.927734,124.685062 273.020507,125.26367 273.206055,125.693359 L273.206055,125.810547 L271.785156,125.810547 Z M269.536621,124.777832 C269.961428,124.777832 270.364256,124.66797 270.745117,124.448242 C271.125978,124.228515 271.401855,123.942873 271.572754,123.591309 L271.572754,121.965332 L270.510742,121.965332 C268.850578,121.965332 268.020508,122.451167 268.020508,123.422852 C268.020508,123.847658 268.162108,124.179686 268.445312,124.418945 C268.728517,124.658204 269.092283,124.777832 269.536621,124.777832 Z M276.523926,125.810547 L275.168945,125.810547 L275.168945,114.560547 L276.523926,114.560547 L276.523926,125.810547 Z" id="Final" fill="#2A3052"></path>
            <path d="M24.40625,141.810547 L23,141.810547 L23,131.146484 L24.40625,131.146484 L24.40625,141.810547 Z M28.0463867,133.885742 L28.090332,134.881836 C28.6958038,134.120113 29.4868115,133.739258 30.4633789,133.739258 C32.138192,133.739258 32.9829101,134.684073 32.9975586,136.57373 L32.9975586,141.810547 L31.6425781,141.810547 L31.6425781,136.566406 C31.6376953,135.995114 31.5070814,135.572755 31.2507324,135.299316 C30.9943835,135.025878 30.5952176,134.88916 30.0532227,134.88916 C29.6137673,134.88916 29.228029,135.006346 28.8959961,135.240723 C28.5639632,135.475099 28.3051767,135.782713 28.1196289,136.163574 L28.1196289,141.810547 L26.7646484,141.810547 L26.7646484,133.885742 L28.0463867,133.885742 Z M36.5131836,141.810547 L35.1582031,141.810547 L35.1582031,133.885742 L36.5131836,133.885742 L36.5131836,141.810547 Z M35.0483398,131.783691 C35.0483398,131.563964 35.1154778,131.378419 35.2497559,131.227051 C35.3840339,131.075683 35.5830065,131 35.8466797,131 C36.1103529,131 36.3105462,131.075683 36.4472656,131.227051 C36.5839851,131.378419 36.6523438,131.563964 36.6523438,131.783691 C36.6523438,132.003419 36.5839851,132.186523 36.4472656,132.333008 C36.3105462,132.479493 36.1103529,132.552734 35.8466797,132.552734 C35.5830065,132.552734 35.3840339,132.479493 35.2497559,132.333008 C35.1154778,132.186523 35.0483398,132.003419 35.0483398,131.783691 Z M41.8598633,140.851074 C42.3432641,140.851074 42.7656232,140.704591 43.1269531,140.411621 C43.4882831,140.118651 43.6884764,139.752444 43.7275391,139.312988 L45.0092773,139.312988 C44.9848632,139.767092 44.8286147,140.199217 44.5405273,140.609375 C44.25244,141.019533 43.8679223,141.346678 43.3869629,141.59082 C42.9060035,141.834962 42.3969753,141.957031 41.8598633,141.957031 C40.7807563,141.957031 39.9226106,141.596927 39.2854004,140.876709 C38.6481902,140.156491 38.3295898,139.171393 38.3295898,137.921387 L38.3295898,137.694336 C38.3295898,136.922848 38.47119,136.236819 38.7543945,135.63623 C39.0375991,135.035642 39.4440891,134.569338 39.973877,134.237305 C40.5036648,133.905272 41.1298792,133.739258 41.8525391,133.739258 C42.7412154,133.739258 43.4797334,134.005368 44.0681152,134.537598 C44.6564971,135.069827 44.9702146,135.760738 45.0092773,136.610352 L43.7275391,136.610352 C43.6884764,136.097654 43.4943865,135.676515 43.1452637,135.346924 C42.7961408,135.017332 42.3652369,134.852539 41.8525391,134.852539 C41.1640591,134.852539 40.6306171,135.100339 40.2521973,135.595947 C39.8737774,136.091555 39.6845703,136.808101 39.6845703,137.745605 L39.6845703,138.001953 C39.6845703,138.915044 39.8725567,139.618162 40.2485352,140.111328 C40.6245136,140.604495 41.1616176,140.851074 41.8598633,140.851074 Z M48.0048828,141.810547 L46.6499023,141.810547 L46.6499023,133.885742 L48.0048828,133.885742 L48.0048828,141.810547 Z M46.5400391,131.783691 C46.5400391,131.563964 46.6071771,131.378419 46.7414551,131.227051 C46.8757331,131.075683 47.0747057,131 47.3383789,131 C47.6020521,131 47.8022454,131.075683 47.9389648,131.227051 C48.0756843,131.378419 48.144043,131.563964 48.144043,131.783691 C48.144043,132.003419 48.0756843,132.186523 47.9389648,132.333008 C47.8022454,132.479493 47.6020521,132.552734 47.3383789,132.552734 C47.0747057,132.552734 46.8757331,132.479493 46.7414551,132.333008 C46.6071771,132.186523 46.5400391,132.003419 46.5400391,131.783691 Z M49.8139648,137.774902 C49.8139648,136.998531 49.9665512,136.300296 50.2717285,135.680176 C50.5769058,135.060055 51.0017063,134.581545 51.5461426,134.244629 C52.0905789,133.907713 52.7119106,133.739258 53.4101562,133.739258 C54.4892632,133.739258 55.3620572,134.112789 56.0285645,134.859863 C56.6950717,135.606937 57.0283203,136.60058 57.0283203,137.84082 L57.0283203,137.936035 C57.0283203,138.707523 56.8806167,139.399655 56.5852051,140.012451 C56.2897934,140.625247 55.8674344,141.102537 55.3181152,141.444336 C54.7687961,141.786135 54.1376989,141.957031 53.4248047,141.957031 C52.3505806,141.957031 51.4802279,141.5835 50.8137207,140.836426 C50.1472135,140.089352 49.8139648,139.100592 49.8139648,137.870117 L49.8139648,137.774902 Z M51.1762695,137.936035 C51.1762695,138.814946 51.3801249,139.520505 51.7878418,140.052734 C52.1955587,140.584964 52.7412075,140.851074 53.4248047,140.851074 C54.1132847,140.851074 54.6601542,140.581302 55.0654297,140.041748 C55.4707052,139.502195 55.6733398,138.746587 55.6733398,137.774902 C55.6733398,136.905757 55.4670431,136.201419 55.0544434,135.661865 C54.6418436,135.122312 54.0937534,134.852539 53.4101562,134.852539 C52.7412076,134.852539 52.2016622,135.11865 51.7915039,135.650879 C51.3813456,136.183108 51.1762695,136.944819 51.1762695,137.936035 Z" id="Inicio" fill="#2A3052"></path>
            <path d="M125.298828,163.756836 L127.033691,163.756836 L127.23291,172.273438 L125.099609,172.273438 L125.298828,163.756836 Z M127.282715,161.191895 C127.282715,161.501792 127.183106,161.760497 126.983887,161.968018 C126.784667,162.175538 126.50521,162.279297 126.145508,162.279297 C125.780272,162.279297 125.498048,162.175538 125.298828,161.968018 C125.099608,161.760497 125,161.501792 125,161.191895 C125,160.887531 125.099608,160.631593 125.298828,160.424072 C125.498048,160.216552 125.780272,160.112793 126.145508,160.112793 C126.50521,160.112793 126.784667,160.216552 126.983887,160.424072 C127.183106,160.631593 127.282715,160.887531 127.282715,161.191895 Z M138.878906,167.683105 C138.44173,168.253095 137.835779,168.684732 137.061035,168.978027 C136.286292,169.271323 135.406418,169.417969 134.421387,169.417969 C133.408686,169.417969 132.512211,169.188316 131.731934,168.729004 C130.951656,168.269692 130.349856,167.612553 129.926514,166.757568 C129.503172,165.902584 129.283203,164.905116 129.266602,163.765137 L129.266602,162.818848 C129.266602,160.992667 129.703772,159.56633 130.578125,158.539795 C131.452478,157.51326 132.672681,157 134.23877,157 C135.583503,157 136.651526,157.332028 137.442871,157.996094 C138.234216,158.66016 138.710123,159.617507 138.870605,160.868164 L136.812012,160.868164 C136.579589,159.412753 135.735684,158.685059 134.280273,158.685059 C133.339514,158.685059 132.62427,159.024004 132.134521,159.701904 C131.644773,160.379805 131.391602,161.374505 131.375,162.686035 L131.375,163.615723 C131.375,164.921719 131.650306,165.935787 132.200928,166.657959 C132.751549,167.380131 133.516597,167.741211 134.496094,167.741211 C135.569667,167.741211 136.333331,167.497724 136.787109,167.010742 L136.787109,164.64502 L134.296875,164.64502 L134.296875,163.05127 L138.878906,163.05127 L138.878906,167.683105 Z M146.35791,169.251953 C146.269368,169.080403 146.191895,168.800946 146.125488,168.413574 C145.483558,169.083174 144.697759,169.417969 143.768066,169.417969 C142.866044,169.417969 142.130048,169.160647 141.560059,168.645996 C140.990069,168.131345 140.705078,167.494958 140.705078,166.736816 C140.705078,165.779455 141.060625,165.044843 141.771729,164.532959 C142.482832,164.021075 143.499668,163.765137 144.822266,163.765137 L146.059082,163.765137 L146.059082,163.175781 C146.059082,162.710935 145.929038,162.338787 145.668945,162.059326 C145.408853,161.779865 145.013186,161.640137 144.481934,161.640137 C144.022621,161.640137 143.646323,161.754963 143.353027,161.984619 C143.059732,162.214275 142.913086,162.506183 142.913086,162.860352 L140.895996,162.860352 C140.895996,162.367836 141.059243,161.907147 141.385742,161.478271 C141.712241,161.049396 142.156329,160.713217 142.718018,160.469727 C143.279707,160.226236 143.906409,160.104492 144.598145,160.104492 C145.649582,160.104492 146.487953,160.368731 147.113281,160.897217 C147.73861,161.425703 148.05957,162.168615 148.076172,163.125977 L148.076172,167.176758 C148.076172,167.984705 148.189615,168.629392 148.416504,169.11084 L148.416504,169.251953 L146.35791,169.251953 Z M144.141602,167.799316 C144.540041,167.799316 144.914956,167.702475 145.266357,167.508789 C145.617759,167.315103 145.881998,167.055015 146.059082,166.728516 L146.059082,165.035156 L144.97168,165.035156 C144.224606,165.035156 143.662925,165.165201 143.286621,165.425293 C142.910317,165.685385 142.722168,166.053383 142.722168,166.529297 C142.722168,166.916669 142.850829,167.225178 143.108154,167.454834 C143.36548,167.68449 143.709959,167.799316 144.141602,167.799316 Z M152.060547,160.270508 L152.118652,161.308105 C152.782718,160.505693 153.654291,160.104492 154.733398,160.104492 C156.60385,160.104492 157.555664,161.175282 157.588867,163.316895 L157.588867,169.251953 L155.571777,169.251953 L155.571777,163.433105 C155.571777,162.863116 155.44865,162.441163 155.202393,162.167236 C154.956135,161.893309 154.553551,161.756348 153.994629,161.756348 C153.181148,161.756348 152.575197,162.124345 152.176758,162.860352 L152.176758,169.251953 L150.159668,169.251953 L150.159668,160.270508 L152.060547,160.270508 Z M163.598633,169.417969 C162.320306,169.417969 161.284102,169.015385 160.48999,168.210205 C159.695878,167.405025 159.298828,166.332852 159.298828,164.993652 L159.298828,164.744629 C159.298828,163.84814 159.471759,163.047123 159.817627,162.341553 C160.163495,161.635983 160.649085,161.086753 161.274414,160.693848 C161.899743,160.300942 162.597001,160.104492 163.366211,160.104492 C164.589199,160.104492 165.534095,160.494625 166.200928,161.274902 C166.86776,162.05518 167.201172,163.159173 167.201172,164.586914 L167.201172,165.400391 L161.33252,165.400391 C161.393392,166.141931 161.64103,166.728513 162.075439,167.160156 C162.509849,167.591799 163.056312,167.807617 163.714844,167.807617 C164.639002,167.807617 165.391599,167.434086 165.972656,166.687012 L167.060059,167.724609 C166.700356,168.261396 166.220299,168.677814 165.619873,168.973877 C165.019447,169.26994 164.345707,169.417969 163.598633,169.417969 Z M163.35791,161.723145 C162.804522,161.723145 162.357668,161.916827 162.017334,162.304199 C161.677,162.691571 161.459799,163.231116 161.365723,163.922852 L165.208984,163.922852 L165.208984,163.773438 C165.164713,163.098304 164.984865,162.587811 164.669434,162.241943 C164.354002,161.896076 163.916832,161.723145 163.35791,161.723145 Z M170.90332,165.690918 L169.168457,165.690918 L168.977539,157.166016 L171.102539,157.166016 L170.90332,165.690918 Z M168.919434,168.297363 C168.919434,167.981932 169.021809,167.72046 169.226562,167.512939 C169.431316,167.305419 169.710773,167.20166 170.064941,167.20166 C170.41911,167.20166 170.698567,167.305419 170.90332,167.512939 C171.108074,167.72046 171.210449,167.981932 171.210449,168.297363 C171.210449,168.601727 171.110841,168.856282 170.911621,169.061035 C170.712401,169.265789 170.430178,169.368164 170.064941,169.368164 C169.699705,169.368164 169.417481,169.265789 169.218262,169.061035 C169.019042,168.856282 168.919434,168.601727 168.919434,168.297363 Z" id="¡Gane!" fill="#FFFFFF"></path>
        </g>
    </g>
</svg>