<?xml version="1.0" encoding="UTF-8"?>
<svg width="299px" height="197px" viewBox="0 0 299 197" version="1.1" xmlns="http://www.w3.org/2000/svg" xmlns:xlink="http://www.w3.org/1999/xlink">
    <!-- Generator: Sketch 53.1 (72631) - https://sketchapp.com -->
    <title>matches</title>
    <desc>Created with Sketch.</desc>
    <g id="Page-1" stroke="none" stroke-width="1" fill="none" fill-rule="evenodd">
        <g id="matches" fill-rule="nonzero">
            <polygon id="Path" fill="#F1F1F2" points="0 0 299 0 299 197 0 197"></polygon>
            <path d="M1.98671096,1.9798995 L1.98671096,195.020101 L297.013289,195.020101 L297.013289,1.9798995 L1.98671096,1.9798995 Z M299,0 L299,197 L0,197 L0,0 L299,0 Z" id="Path" fill="#C2C2C2"></path>
            <path d="M3.60706376,54.9965523 L3.60706376,53.7774477 L295.964849,53.7774477 L295.964849,54.9965523 L3.60706376,54.9965523 Z M3.60706376,75.0765523 L3.60706376,73.8574477 L295.964849,73.8574477 L295.964849,75.0765523 L3.60706376,75.0765523 Z M3.60706376,135.349552 L3.60706376,134.130448 L295.964849,134.130448 L295.964849,135.349552 L3.60706376,135.349552 Z" id="Shape" fill="#DEDEDD"></path>
            <path d="M3.60706376,155.429552 L3.60706376,154.210448 L7.22725247,154.210448 L7.22725247,155.429552 L3.60706376,155.429552 Z M10.8474412,155.429552 L10.8474412,154.210448 L14.4676299,154.210448 L14.4676299,155.429552 L10.8474412,155.429552 Z M18.0878186,155.429552 L18.0878186,154.210448 L21.7080073,154.210448 L21.7080073,155.429552 L18.0878186,155.429552 Z M25.328196,155.429552 L25.328196,154.210448 L28.9483848,154.210448 L28.9483848,155.429552 L25.328196,155.429552 Z M32.5685735,155.429552 L32.5685735,154.210448 L36.1887622,154.210448 L36.1887622,155.429552 L32.5685735,155.429552 Z M39.8089509,155.429552 L39.8089509,154.210448 L43.4291396,154.210448 L43.4291396,155.429552 L39.8089509,155.429552 Z M47.0493283,155.429552 L47.0493283,154.210448 L50.669517,154.210448 L50.669517,155.429552 L47.0493283,155.429552 Z M54.2897057,155.429552 L54.2897057,154.210448 L57.9098945,154.210448 L57.9098945,155.429552 L54.2897057,155.429552 Z M61.5300832,155.429552 L61.5300832,154.210448 L65.1502719,154.210448 L65.1502719,155.429552 L61.5300832,155.429552 Z M68.7704606,155.429552 L68.7704606,154.210448 L72.3906493,154.210448 L72.3906493,155.429552 L68.7704606,155.429552 Z M76.010838,155.429552 L76.010838,154.210448 L79.6310267,154.210448 L79.6310267,155.429552 L76.010838,155.429552 Z M83.2512154,155.429552 L83.2512154,154.210448 L86.8714042,154.210448 L86.8714042,155.429552 L83.2512154,155.429552 Z M90.4915929,155.429552 L90.4915929,154.210448 L94.1117816,154.210448 L94.1117816,155.429552 L90.4915929,155.429552 Z M97.7319703,155.429552 L97.7319703,154.210448 L101.352159,154.210448 L101.352159,155.429552 L97.7319703,155.429552 Z M104.972348,155.429552 L104.972348,154.210448 L108.592536,154.210448 L108.592536,155.429552 L104.972348,155.429552 Z M112.212725,155.429552 L112.212725,154.210448 L115.832914,154.210448 L115.832914,155.429552 L112.212725,155.429552 Z M119.453103,155.429552 L119.453103,154.210448 L123.073291,154.210448 L123.073291,155.429552 L119.453103,155.429552 Z M126.69348,155.429552 L126.69348,154.210448 L130.313669,154.210448 L130.313669,155.429552 L126.69348,155.429552 Z M133.933857,155.429552 L133.933857,154.210448 L137.554046,154.210448 L137.554046,155.429552 L133.933857,155.429552 Z M141.174235,155.429552 L141.174235,154.210448 L144.794424,154.210448 L144.794424,155.429552 L141.174235,155.429552 Z M148.414612,155.429552 L148.414612,154.210448 L152.034801,154.210448 L152.034801,155.429552 L148.414612,155.429552 Z M155.65499,155.429552 L155.65499,154.210448 L159.275178,154.210448 L159.275178,155.429552 L155.65499,155.429552 Z M162.895367,155.429552 L162.895367,154.210448 L166.515556,154.210448 L166.515556,155.429552 L162.895367,155.429552 Z M170.135745,155.429552 L170.135745,154.210448 L173.755933,154.210448 L173.755933,155.429552 L170.135745,155.429552 Z M177.376122,155.429552 L177.376122,154.210448 L180.996311,154.210448 L180.996311,155.429552 L177.376122,155.429552 Z M184.616499,155.429552 L184.616499,154.210448 L188.236688,154.210448 L188.236688,155.429552 L184.616499,155.429552 Z M191.856877,155.429552 L191.856877,154.210448 L195.477066,154.210448 L195.477066,155.429552 L191.856877,155.429552 Z M199.097254,155.429552 L199.097254,154.210448 L202.717443,154.210448 L202.717443,155.429552 L199.097254,155.429552 Z M206.337632,155.429552 L206.337632,154.210448 L209.95782,154.210448 L209.95782,155.429552 L206.337632,155.429552 Z M213.578009,155.429552 L213.578009,154.210448 L217.198198,154.210448 L217.198198,155.429552 L213.578009,155.429552 Z M220.818387,155.429552 L220.818387,154.210448 L224.438575,154.210448 L224.438575,155.429552 L220.818387,155.429552 Z M228.058764,155.429552 L228.058764,154.210448 L231.678953,154.210448 L231.678953,155.429552 L228.058764,155.429552 Z M235.299141,155.429552 L235.299141,154.210448 L238.91933,154.210448 L238.91933,155.429552 L235.299141,155.429552 Z M242.539519,155.429552 L242.539519,154.210448 L246.159708,154.210448 L246.159708,155.429552 L242.539519,155.429552 Z M249.779896,155.429552 L249.779896,154.210448 L253.400085,154.210448 L253.400085,155.429552 L249.779896,155.429552 Z M257.020274,155.429552 L257.020274,154.210448 L260.640462,154.210448 L260.640462,155.429552 L257.020274,155.429552 Z M264.260651,155.429552 L264.260651,154.210448 L267.88084,154.210448 L267.88084,155.429552 L264.260651,155.429552 Z M271.501029,155.429552 L271.501029,154.210448 L275.121217,154.210448 L275.121217,155.429552 L271.501029,155.429552 Z M278.741406,155.429552 L278.741406,154.210448 L282.361595,154.210448 L282.361595,155.429552 L278.741406,155.429552 Z M285.981783,155.429552 L285.981783,154.210448 L289.601972,154.210448 L289.601972,155.429552 L285.981783,155.429552 Z M293.222161,155.429552 L293.222161,154.210448 L295.964849,154.210448 L295.964849,155.429552 L293.222161,155.429552 Z" id="Path" fill="#293052"></path>
            <path d="M3.60706376,175.507552 L3.60706376,174.288448 L295.964849,174.288448 L295.964849,175.507552 L3.60706376,175.507552 Z M38.317639,34.308 L39.5367436,34.308 L39.5367436,192.59 L38.317639,192.59 L38.317639,34.308 Z M75.3153772,34.308 L76.5344818,34.308 L76.5344818,192.59 L75.3153772,192.59 L75.3153772,34.308 Z M112.312112,34.308 L113.531216,34.308 L113.531216,192.59 L112.312112,192.59 L112.312112,34.308 Z M149.271723,34.308 L150.490827,34.308 L150.490827,192.59 L149.271723,192.59 L149.271723,34.308 Z M186.268458,34.308 L187.487562,34.308 L187.487562,192.59 L186.268458,192.59 L186.268458,34.308 Z M223.266196,34.308 L224.4853,34.308 L224.4853,192.59 L223.266196,192.59 L223.266196,34.308 Z M260.262931,34.308 L261.482035,34.308 L261.482035,192.59 L260.262931,192.59 L260.262931,34.308 Z M3.60706376,115.271552 L3.60706376,114.052448 L295.964849,114.052448 L295.964849,115.271552 L3.60706376,115.271552 Z M3.60706376,95.1915523 L3.60706376,93.9724477 L295.964849,93.9724477 L295.964849,95.1915523 L3.60706376,95.1915523 Z" id="Shape" fill="#DEDEDD"></path>
            <polygon id="Path" fill="#C2C2C2" points="1 30 1 28 297 28 297 30"></polygon>
            <path d="M149.16177,115.357584 L190.836381,84.7510845 C191.75488,84.0765246 193.060729,84.4083509 193.545778,85.4395628 L225.817711,154.049563 C226.243212,154.954176 225.854815,156.032446 224.950202,156.457946 C224.045589,156.883447 222.967319,156.49505 222.541819,155.590437 L191.20622,88.9710809 L150.266431,119.037916 C149.644928,119.494357 148.80249,119.506952 148.16762,119.069293 L105.985124,89.9900383 L77.137183,116.006203 C76.469587,116.608267 75.4612908,116.629141 74.7693486,116.055224 L37.7716104,85.3682244 C37.0021538,84.7300147 36.8957572,83.5888757 37.5339669,82.8194191 C38.1721766,82.0499625 39.3133156,81.9435659 40.0827722,82.5817756 L75.875392,112.269215 L104.622709,86.3437966 C105.245323,85.7823 106.172043,85.7218503 106.862323,86.1977071 L149.16177,115.357584 Z" id="Path" fill="#293052"></path>
            <path d="M188.225379,147.07 L152.943379,147.07 L147.379772,139 L142.045933,147.07 L106.762929,147.07 C105.501318,147.068408 104.290745,147.566378 103.397522,148.454363 C102.504299,149.342348 102.001595,150.547608 102,151.805 L102,176.317 C102.001595,177.574392 102.504299,178.779652 103.397522,179.667637 C104.290745,180.555622 105.501318,181.053592 106.762929,181.052 L188.225379,181.052 C189.507474,181.082783 190.747975,180.597614 191.666889,179.706 C192.584591,178.815293 193.102055,177.59268 193.101688,176.316 L193.101688,151.843 C193.112272,150.560055 192.599489,149.327862 191.680936,148.429 C190.760903,147.528748 189.514333,147.038137 188.225379,147.069 L188.225379,147.07 Z" id="Path" fill="#E88024"></path>
            <ellipse id="Oval" fill="#FFFFFF" opacity="0.6" cx="223.874745" cy="154.82" rx="8.19239933" ry="8.373"></ellipse>
            <path d="M223.875748,164.411105 C218.671896,164.411105 214.464244,160.110695 214.464244,154.819 C214.464244,149.527305 218.671896,145.226895 223.875748,145.226895 C229.0796,145.226895 233.287252,149.527305 233.287252,154.819 C233.287252,160.110695 229.0796,164.411105 223.875748,164.411105 Z M223.875748,161.972895 C227.720971,161.972895 230.849043,158.775865 230.849043,154.819 C230.849043,150.862135 227.720971,147.665105 223.875748,147.665105 C220.030525,147.665105 216.902453,150.862135 216.902453,154.819 C216.902453,158.775865 220.030525,161.972895 223.875748,161.972895 Z" id="Oval" fill="#E88024"></path>
            <polygon id="Path" fill="#E88024" points="246.926842 145.424 275.694054 145.424 275.694054 164.214 246.927846 164.214"></polygon>
            <polygon id="Path" fill="#E88024" points="250.432567 154.82 247.079352 158.153 241.859896 154.819 247.079352 151.486"></polygon>
            <path d="M258.319946,153.683 L259.691534,153.683 C260.156087,153.716 260.614621,153.551 260.948738,153.228 C261.243725,152.88 261.394228,152.433 261.368141,151.978 C261.390213,151.5467 261.239331,151.124349 260.948738,150.804 C260.595096,150.554892 260.155388,150.458948 259.729661,150.538 C259.314325,150.519115 258.906735,150.654524 258.585836,150.918 C258.284829,151.171 258.117268,151.548 258.129309,151.94 L255.766406,151.94 C255.717802,151.041563 256.117304,150.177125 256.833977,149.63 C257.636415,149.004237 258.635244,148.681854 259.653406,148.72 C260.714767,148.66371 261.763501,148.971068 262.625346,149.591 C263.377805,150.214045 263.787955,151.156723 263.73004,152.13 C263.724486,152.661984 263.551073,153.178731 263.234383,153.607 C262.883587,154.088574 262.410063,154.467991 261.862795,154.706 C262.474842,154.903 263.008628,155.287 263.387896,155.804 C263.742081,156.302 263.929708,156.899 263.920678,157.509 C263.956896,158.513767 263.502573,159.473783 262.701601,160.085 C261.811709,160.743046 260.722427,161.077278 259.615279,161.032 C258.580557,161.065449 257.563372,160.759839 256.719594,160.162 C255.925756,159.585027 255.49202,158.636654 255.575768,157.661 L258.091181,157.661 C258.081148,158.093 258.261752,158.509 258.586839,158.797 C258.932997,159.101 259.381497,159.264 259.844044,159.252 C260.331674,159.284 260.811279,159.12 261.177503,158.797 C261.511621,158.468 261.691221,158.014 261.672158,157.547 C261.725675,157.03636 261.559816,156.527003 261.215631,156.145 C260.822139,155.817987 260.317003,155.655308 259.805916,155.691 L258.319946,155.691 L258.319946,153.683 Z" id="Path" fill="#FFFFFF"></path>
            <path d="M121.21875,16.1318359 L121.21875,19.75 L120,19.75 L120,10.5078125 L123.408691,10.5078125 C124.42009,10.5078125 125.212481,10.7659479 125.785889,11.2822266 C126.359296,11.7985052 126.645996,12.4819293 126.645996,13.3325195 C126.645996,14.2296594 126.365644,14.9204891 125.804932,15.4050293 C125.244219,15.8895695 124.441249,16.1318359 123.395996,16.1318359 L121.21875,16.1318359 Z M121.21875,15.1352539 L123.408691,15.1352539 C124.060387,15.1352539 124.559731,14.9818537 124.906738,14.6750488 C125.253745,14.3682439 125.427246,13.9249703 125.427246,13.3452148 C125.427246,12.7950819 125.253745,12.3549821 124.906738,12.0249023 C124.559731,11.6948226 124.083662,11.5234376 123.478516,11.5107422 L121.21875,11.5107422 L121.21875,15.1352539 Z M131.336914,13.9355469 C131.159179,13.9059243 130.966635,13.8911133 130.759277,13.8911133 C129.989091,13.8911133 129.466473,14.2190722 129.191406,14.875 L129.191406,19.75 L128.01709,19.75 L128.01709,12.8818359 L129.159668,12.8818359 L129.178711,13.675293 C129.563804,13.0616831 130.109697,12.7548828 130.816406,12.7548828 C131.044923,12.7548828 131.218424,12.7845049 131.336914,12.84375 L131.336914,13.9355469 Z M135.145508,19.8769531 C134.214513,19.8769531 133.457034,19.5712107 132.873047,18.9597168 C132.289059,18.3482229 131.99707,17.5304413 131.99707,16.5063477 L131.99707,16.2905273 C131.99707,15.6092088 132.127196,15.0008979 132.387451,14.4655762 C132.647706,13.9302545 133.011635,13.5113134 133.479248,13.2087402 C133.946861,12.9061671 134.45361,12.7548828 134.999512,12.7548828 C135.89242,12.7548828 136.586423,13.0489879 137.081543,13.637207 C137.576663,14.2254261 137.824219,15.0675401 137.824219,16.1635742 L137.824219,16.6523438 L133.171387,16.6523438 C133.188314,17.3294305 133.386147,17.8763814 133.764892,18.2932129 C134.143638,18.7100444 134.624997,18.918457 135.208984,18.918457 C135.6237,18.918457 135.974933,18.8338225 136.262695,18.6645508 C136.550457,18.4952791 136.802245,18.2709975 137.018066,17.9916992 L137.735351,18.550293 C137.159828,19.4347375 136.296555,19.8769531 135.145508,19.8769531 Z M134.999512,13.7197266 C134.525551,13.7197266 134.127768,13.8921695 133.806152,14.2370605 C133.484536,14.5819516 133.285645,15.0654266 133.209473,15.6875 L136.649902,15.6875 L136.649902,15.5986328 C136.616048,15.0019501 136.455242,14.5396338 136.16748,14.2116699 C135.879719,13.883706 135.490399,13.7197266 134.999512,13.7197266 Z M138.896973,16.2587891 C138.896973,15.2050729 139.146645,14.3576692 139.645996,13.7165527 C140.145347,13.0754362 140.79915,12.7548828 141.607422,12.7548828 C142.411462,12.7548828 143.048337,13.0299452 143.518066,13.5800781 L143.518066,10 L144.692383,10 L144.692383,19.75 L143.613281,19.75 L143.556152,19.0136719 C143.086423,19.5891956 142.432621,19.8769531 141.594726,19.8769531 C140.79915,19.8769531 140.150637,19.55111 139.64917,18.8994141 C139.147702,18.2477181 138.896973,17.3971407 138.896973,16.3476562 L138.896973,16.2587891 Z M140.071289,16.3920898 C140.071289,17.1707396 140.232095,17.7801085 140.553711,18.2202148 C140.875327,18.6603212 141.319659,18.8803711 141.886719,18.8803711 C142.631514,18.8803711 143.175291,18.5460645 143.518066,17.8774414 L143.518066,14.7226562 C143.166828,14.0751921 142.627282,13.7514648 141.899414,13.7514648 C141.32389,13.7514648 140.875327,13.9736306 140.553711,14.4179688 C140.232095,14.8623069 140.071289,15.5203407 140.071289,16.3920898 Z M147.790039,19.75 L146.615723,19.75 L146.615723,12.8818359 L147.790039,12.8818359 L147.790039,19.75 Z M146.520508,11.0600586 C146.520508,10.869628 146.578694,10.7088223 146.695068,10.5776367 C146.811443,10.4464512 146.983885,10.3808594 147.212402,10.3808594 C147.440919,10.3808594 147.61442,10.4464512 147.73291,10.5776367 C147.8514,10.7088223 147.910644,10.869628 147.910644,11.0600586 C147.910644,11.2504892 147.8514,11.4091791 147.73291,11.5361328 C147.61442,11.6630866 147.440919,11.7265625 147.212402,11.7265625 C146.983885,11.7265625 146.811443,11.6630866 146.695068,11.5361328 C146.578694,11.4091791 146.520508,11.2504892 146.520508,11.0600586 Z M152.423828,18.918457 C152.842775,18.918457 153.20882,18.7915052 153.521973,18.5375977 C153.835125,18.2836901 154.008626,17.9663105 154.04248,17.5854492 L155.15332,17.5854492 C155.132161,17.9790059 154.996746,18.3535138 154.74707,18.7089844 C154.497394,19.0644549 154.164146,19.3479807 153.747314,19.5595703 C153.330483,19.7711599 152.889325,19.8769531 152.423828,19.8769531 C151.488602,19.8769531 150.744876,19.5648631 150.192627,18.9406738 C149.640378,18.3164845 149.364258,17.4627333 149.364258,16.3793945 L149.364258,16.1826172 C149.364258,15.5139941 149.486978,14.9194362 149.732422,14.3989258 C149.977866,13.8784154 150.330157,13.4742853 150.789307,13.1865234 C151.248456,12.8987616 151.791175,12.7548828 152.41748,12.7548828 C153.187667,12.7548828 153.827715,12.985512 154.337646,13.4467773 C154.847577,13.9080427 155.119466,14.5068323 155.15332,15.2431641 L154.04248,15.2431641 C154.008626,14.7988259 153.840415,14.4338393 153.537842,14.1481934 C153.235269,13.8625474 152.861819,13.7197266 152.41748,13.7197266 C151.820798,13.7197266 151.358481,13.9344868 151.030517,14.3640137 C150.702554,14.7935406 150.538574,15.4145467 150.538574,16.2270508 L150.538574,16.4492188 C150.538574,17.2405639 150.701496,17.8499328 151.027344,18.2773438 C151.353192,18.7047547 151.818682,18.918457 152.423828,18.918457 Z M159.228516,18.918457 C159.647463,18.918457 160.013507,18.7915052 160.32666,18.5375977 C160.639813,18.2836901 160.813314,17.9663105 160.847168,17.5854492 L161.958008,17.5854492 C161.936849,17.9790059 161.801433,18.3535138 161.551758,18.7089844 C161.302082,19.0644549 160.968833,19.3479807 160.552002,19.5595703 C160.13517,19.7711599 159.694013,19.8769531 159.228516,19.8769531 C158.29329,19.8769531 157.549563,19.5648631 156.997314,18.9406738 C156.445066,18.3164845 156.168945,17.4627333 156.168945,16.3793945 L156.168945,16.1826172 C156.168945,15.5139941 156.291665,14.9194362 156.537109,14.3989258 C156.782553,13.8784154 157.134845,13.4742853 157.593994,13.1865234 C158.053143,12.8987616 158.595863,12.7548828 159.222168,12.7548828 C159.992354,12.7548828 160.632403,12.985512 161.142334,13.4467773 C161.652265,13.9080427 161.924153,14.5068323 161.958008,15.2431641 L160.847168,15.2431641 C160.813314,14.7988259 160.645102,14.4338393 160.342529,14.1481934 C160.039956,13.8625474 159.666506,13.7197266 159.222168,13.7197266 C158.625485,13.7197266 158.163169,13.9344868 157.835205,14.3640137 C157.507241,14.7935406 157.343262,15.4145467 157.343262,16.2270508 L157.343262,16.4492188 C157.343262,17.2405639 157.506183,17.8499328 157.832031,18.2773438 C158.157879,18.7047547 158.623369,18.918457 159.228516,18.918457 Z M164.554199,19.75 L163.379883,19.75 L163.379883,12.8818359 L164.554199,12.8818359 L164.554199,19.75 Z M163.284668,11.0600586 C163.284668,10.869628 163.342854,10.7088223 163.459228,10.5776367 C163.575603,10.4464512 163.748046,10.3808594 163.976562,10.3808594 C164.205079,10.3808594 164.37858,10.4464512 164.49707,10.5776367 C164.61556,10.7088223 164.674805,10.869628 164.674805,11.0600586 C164.674805,11.2504892 164.61556,11.4091791 164.49707,11.5361328 C164.37858,11.6630866 164.205079,11.7265625 163.976562,11.7265625 C163.748046,11.7265625 163.575603,11.6630866 163.459228,11.5361328 C163.342854,11.4091791 163.284668,11.2504892 163.284668,11.0600586 Z M166.12207,16.2524414 C166.12207,15.5795865 166.254312,14.9744493 166.518799,14.4370117 C166.783286,13.8995741 167.151446,13.4848647 167.623291,13.1928711 C168.095136,12.9008774 168.633623,12.7548828 169.238769,12.7548828 C170.173995,12.7548828 170.930417,13.07861 171.508057,13.7260742 C172.085696,14.3735384 172.374512,15.2346951 172.374512,16.3095703 L172.374512,16.3920898 C172.374512,17.060713 172.246502,17.6605605 171.990478,18.1916504 C171.734455,18.7227403 171.36841,19.1363917 170.892334,19.4326172 C170.416257,19.7288426 169.869306,19.8769531 169.251465,19.8769531 C168.320471,19.8769531 167.566165,19.5532259 166.988525,18.9057617 C166.410886,18.2582975 166.12207,17.4013725 166.12207,16.3349609 L166.12207,16.2524414 Z M167.302734,16.3920898 C167.302734,17.1538124 167.479409,17.7652972 167.832764,18.2265625 C168.186118,18.6878278 168.659014,18.918457 169.251465,18.918457 C169.848147,18.918457 170.322101,18.684654 170.67334,18.217041 C171.024578,17.749428 171.200195,17.094568 171.200195,16.2524414 C171.200195,15.4991824 171.021405,14.8887556 170.663818,14.4211426 C170.306232,13.9535296 169.83122,13.7197266 169.238769,13.7197266 C168.659014,13.7197266 168.191408,13.9503558 167.835937,14.4116211 C167.480467,14.8728864 167.302734,15.5330361 167.302734,16.3920898 Z M169.771973,10 L171.193848,10 L169.492676,11.8662109 L168.546875,11.8662109 L169.771973,10 Z M174.958008,12.8818359 L174.996094,13.7451172 C175.520836,13.0849576 176.206376,12.7548828 177.052734,12.7548828 C178.504239,12.7548828 179.236328,13.5737223 179.249023,15.2114258 L179.249023,19.75 L178.074707,19.75 L178.074707,15.2050781 C178.070475,14.7099585 177.957276,14.3439139 177.735107,14.1069336 C177.512938,13.8699532 177.166994,13.7514648 176.697266,13.7514648 C176.316404,13.7514648 175.982098,13.8530263 175.694336,14.0561523 C175.406574,14.2592784 175.182292,14.5258773 175.021484,14.855957 L175.021484,19.75 L173.847168,19.75 L173.847168,12.8818359 L174.958008,12.8818359 Z M183.952637,16.2587891 C183.952637,15.2050729 184.202309,14.3576692 184.70166,13.7165527 C185.201012,13.0754362 185.854814,12.7548828 186.663086,12.7548828 C187.467126,12.7548828 188.104001,13.0299452 188.57373,13.5800781 L188.57373,10 L189.748047,10 L189.748047,19.75 L188.668945,19.75 L188.611816,19.0136719 C188.142087,19.5891956 187.488285,19.8769531 186.650391,19.8769531 C185.854814,19.8769531 185.206301,19.55111 184.704834,18.8994141 C184.203367,18.2477181 183.952637,17.3971407 183.952637,16.3476562 L183.952637,16.2587891 Z M185.126953,16.3920898 C185.126953,17.1707396 185.287759,17.7801085 185.609375,18.2202148 C185.930991,18.6603212 186.375323,18.8803711 186.942383,18.8803711 C187.687178,18.8803711 188.230955,18.5460645 188.57373,17.8774414 L188.57373,14.7226562 C188.222492,14.0751921 187.682946,13.7514648 186.955078,13.7514648 C186.379554,13.7514648 185.930991,13.9736306 185.609375,14.4179688 C185.287759,14.8623069 185.126953,15.5203407 185.126953,16.3920898 Z M194.419922,19.8769531 C193.488928,19.8769531 192.731448,19.5712107 192.147461,18.9597168 C191.563474,18.3482229 191.271484,17.5304413 191.271484,16.5063477 L191.271484,16.2905273 C191.271484,15.6092088 191.40161,15.0008979 191.661865,14.4655762 C191.92212,13.9302545 192.286049,13.5113134 192.753662,13.2087402 C193.221275,12.9061671 193.728025,12.7548828 194.273926,12.7548828 C195.166834,12.7548828 195.860837,13.0489879 196.355957,13.637207 C196.851077,14.2254261 197.098633,15.0675401 197.098633,16.1635742 L197.098633,16.6523438 L192.445801,16.6523438 C192.462728,17.3294305 192.660561,17.8763814 193.039307,18.2932129 C193.418052,18.7100444 193.899411,18.918457 194.483398,18.918457 C194.898114,18.918457 195.249347,18.8338225 195.537109,18.6645508 C195.824871,18.4952791 196.076659,18.2709975 196.29248,17.9916992 L197.009766,18.550293 C196.434242,19.4347375 195.570969,19.8769531 194.419922,19.8769531 Z M194.273926,13.7197266 C193.799965,13.7197266 193.402183,13.8921695 193.080566,14.2370605 C192.75895,14.5819516 192.560059,15.0654266 192.483887,15.6875 L195.924316,15.6875 L195.924316,15.5986328 C195.890462,15.0019501 195.729656,14.5396338 195.441894,14.2116699 C195.154133,13.883706 194.764814,13.7197266 194.273926,13.7197266 Z M199.73291,19.75 L198.558594,19.75 L198.558594,10 L199.73291,10 L199.73291,19.75 Z M209.070312,19.0708008 C208.613279,19.6082384 207.94255,19.8769531 207.058105,19.8769531 C206.326005,19.8769531 205.768475,19.6643088 205.385498,19.2390137 C205.002521,18.8137186 204.808919,18.184249 204.804687,17.3505859 L204.804687,12.8818359 L205.979004,12.8818359 L205.979004,17.3188477 C205.979004,18.3598685 206.402177,18.8803711 207.248535,18.8803711 C208.145675,18.8803711 208.742349,18.5460645 209.038574,17.8774414 L209.038574,12.8818359 L210.212891,12.8818359 L210.212891,19.75 L209.095703,19.75 L209.070312,19.0708008 Z M208.118164,10 L209.540039,10 L207.838867,11.8662109 L206.893066,11.8662109 L208.118164,10 Z M213.272461,19.75 L212.098144,19.75 L212.098144,10 L213.272461,10 L213.272461,19.75 Z M216.744629,11.21875 L216.744629,12.8818359 L218.026855,12.8818359 L218.026855,13.7895508 L216.744629,13.7895508 L216.744629,18.0488281 C216.744629,18.3238946 216.801757,18.5301914 216.916016,18.6677246 C217.030274,18.8052578 217.224933,18.8740234 217.5,18.8740234 C217.635417,18.8740234 217.821613,18.8486331 218.058594,18.7978516 L218.058594,19.75 C217.749673,19.8346358 217.44922,19.8769531 217.157226,19.8769531 C216.632484,19.8769531 216.236818,19.7182633 215.970215,19.4008789 C215.703612,19.0834945 215.570312,18.6328154 215.570312,18.0488281 L215.570312,13.7895508 L214.319824,13.7895508 L214.319824,12.8818359 L215.570312,12.8818359 L215.570312,11.21875 L216.744629,11.21875 Z M220.673828,19.75 L219.499512,19.75 L219.499512,12.8818359 L220.673828,12.8818359 L220.673828,19.75 Z M219.404297,11.0600586 C219.404297,10.869628 219.462483,10.7088223 219.578857,10.5776367 C219.695232,10.4464512 219.867675,10.3808594 220.096191,10.3808594 C220.324708,10.3808594 220.498209,10.4464512 220.616699,10.5776367 C220.735189,10.7088223 220.794434,10.869628 220.794434,11.0600586 C220.794434,11.2504892 220.735189,11.4091791 220.616699,11.5361328 C220.498209,11.6630866 220.324708,11.7265625 220.096191,11.7265625 C219.867675,11.7265625 219.695232,11.6630866 219.578857,11.5361328 C219.462483,11.4091791 219.404297,11.2504892 219.404297,11.0600586 Z M223.657226,12.8818359 L223.688965,13.6435547 C224.192548,13.0511038 224.87174,12.7548828 225.726562,12.7548828 C226.687179,12.7548828 227.340981,13.1230432 227.687988,13.859375 C227.916505,13.5292952 228.213784,13.2626963 228.579834,13.0595703 C228.945884,12.8564443 229.378578,12.7548828 229.87793,12.7548828 C231.384448,12.7548828 232.15039,13.5525636 232.175781,15.1479492 L232.175781,19.75 L231.001465,19.75 L231.001465,15.2177734 C231.001465,14.7268856 230.889324,14.3597831 230.665039,14.1164551 C230.440754,13.873127 230.06413,13.7514648 229.535156,13.7514648 C229.099282,13.7514648 228.737469,13.8815905 228.449707,14.1418457 C228.161945,14.4021009 227.994792,14.7522764 227.948242,15.1923828 L227.948242,19.75 L226.767578,19.75 L226.767578,15.2495117 C226.767578,14.2508088 226.278813,13.7514648 225.301269,13.7514648 C224.531083,13.7514648 224.004233,14.0794238 223.720703,14.7353516 L223.720703,19.75 L222.546387,19.75 L222.546387,12.8818359 L223.657226,12.8818359 Z M233.635742,16.2524414 C233.635742,15.5795865 233.767984,14.9744493 234.032471,14.4370117 C234.296958,13.8995741 234.665118,13.4848647 235.136963,13.1928711 C235.608808,12.9008774 236.147295,12.7548828 236.752441,12.7548828 C237.687667,12.7548828 238.444089,13.07861 239.021728,13.7260742 C239.599368,14.3735384 239.888184,15.2346951 239.888184,16.3095703 L239.888184,16.3920898 C239.888184,17.060713 239.760174,17.6605605 239.50415,18.1916504 C239.248127,18.7227403 238.882082,19.1363917 238.406006,19.4326172 C237.929929,19.7288426 237.382978,19.8769531 236.765137,19.8769531 C235.834142,19.8769531 235.079837,19.5532259 234.502197,18.9057617 C233.924558,18.2582975 233.635742,17.4013725 233.635742,16.3349609 L233.635742,16.2524414 Z M234.816406,16.3920898 C234.816406,17.1538124 234.993081,17.7652972 235.346435,18.2265625 C235.69979,18.6878278 236.172686,18.918457 236.765137,18.918457 C237.361819,18.918457 237.835773,18.684654 238.187012,18.217041 C238.53825,17.749428 238.713867,17.094568 238.713867,16.2524414 C238.713867,15.4991824 238.535077,14.8887556 238.17749,14.4211426 C237.819904,13.9535296 237.344892,13.7197266 236.752441,13.7197266 C236.172686,13.7197266 235.70508,13.9503558 235.349609,14.4116211 C234.994139,14.8728864 234.816406,15.5330361 234.816406,16.3920898 Z M244.293457,16.2587891 C244.293457,15.2050729 244.543129,14.3576692 245.04248,13.7165527 C245.541832,13.0754362 246.195634,12.7548828 247.003906,12.7548828 C247.807947,12.7548828 248.444822,13.0299452 248.914551,13.5800781 L248.914551,10 L250.088867,10 L250.088867,19.75 L249.009766,19.75 L248.952637,19.0136719 C248.482908,19.5891956 247.829106,19.8769531 246.991211,19.8769531 C246.195634,19.8769531 245.547122,19.55111 245.045654,18.8994141 C244.544187,18.2477181 244.293457,17.3971407 244.293457,16.3476562 L244.293457,16.2587891 Z M245.467773,16.3920898 C245.467773,17.1707396 245.628579,17.7801085 245.950195,18.2202148 C246.271811,18.6603212 246.716143,18.8803711 247.283203,18.8803711 C248.027998,18.8803711 248.571776,18.5460645 248.914551,17.8774414 L248.914551,14.7226562 C248.563312,14.0751921 248.023767,13.7514648 247.295898,13.7514648 C246.720375,13.7514648 246.271811,13.9736306 245.950195,14.4179688 C245.628579,14.8623069 245.467773,15.5203407 245.467773,16.3920898 Z M253.186523,19.75 L252.005859,19.75 L252.005859,12.8818359 L253.186523,12.8818359 L253.186523,19.75 Z M253.199219,10.0063477 L254.621094,10.0063477 L252.919922,11.8725586 L251.974121,11.8725586 L253.199219,10.0063477 Z M254.843262,16.2587891 C254.843262,15.1881457 255.090818,14.3365103 255.585937,13.7038574 C256.081057,13.0712045 256.736975,12.7548828 257.553711,12.7548828 C258.391606,12.7548828 259.045408,13.0511038 259.515137,13.6435547 L259.572266,12.8818359 L260.645019,12.8818359 L260.645019,19.5849609 C260.645019,20.4736373 260.381594,21.1739883 259.854736,21.6860352 C259.327878,22.198082 258.620122,22.4541016 257.731445,22.4541016 C257.236326,22.4541016 256.751793,22.3483083 256.277832,22.1367188 C255.803871,21.9251292 255.442058,21.6352557 255.192383,21.2670898 L255.801758,20.5625 C256.305341,21.1845734 256.921057,21.4956055 257.648926,21.4956055 C258.220218,21.4956055 258.665607,21.3347998 258.985107,21.0131836 C259.304608,20.6915674 259.464355,20.2387725 259.464355,19.6547852 L259.464355,19.0644531 C258.994626,19.6061225 258.35352,19.8769531 257.541016,19.8769531 C256.736975,19.8769531 256.086347,19.5532259 255.589111,18.9057617 C255.091876,18.2582975 254.843262,17.3759821 254.843262,16.2587891 Z M256.023926,16.3920898 C256.023926,17.1665078 256.182616,17.7748188 256.5,18.217041 C256.817384,18.6592633 257.261716,18.8803711 257.833008,18.8803711 C258.573571,18.8803711 259.117348,18.5439487 259.464355,17.8710938 L259.464355,14.7353516 C259.104653,14.0794238 258.565108,13.7514648 257.845703,13.7514648 C257.274411,13.7514648 256.827964,13.9736306 256.506348,14.4179688 C256.184731,14.8623069 256.023926,15.5203407 256.023926,16.3920898 Z M263.691894,19.75 L262.517578,19.75 L262.517578,12.8818359 L263.691894,12.8818359 L263.691894,19.75 Z M262.422363,11.0600586 C262.422363,10.869628 262.480549,10.7088223 262.596924,10.5776367 C262.713298,10.4464512 262.885741,10.3808594 263.114258,10.3808594 C263.342774,10.3808594 263.516275,10.4464512 263.634766,10.5776367 C263.753256,10.7088223 263.8125,10.869628 263.8125,11.0600586 C263.8125,11.2504892 263.753256,11.4091791 263.634766,11.5361328 C263.516275,11.6630866 263.342774,11.7265625 263.114258,11.7265625 C262.885741,11.7265625 262.713298,11.6630866 262.596924,11.5361328 C262.480549,11.4091791 262.422363,11.2504892 262.422363,11.0600586 Z M267.164062,11.21875 L267.164062,12.8818359 L268.446289,12.8818359 L268.446289,13.7895508 L267.164062,13.7895508 L267.164062,18.0488281 C267.164062,18.3238946 267.221191,18.5301914 267.335449,18.6677246 C267.449708,18.8052578 267.644367,18.8740234 267.919434,18.8740234 C268.054851,18.8740234 268.241047,18.8486331 268.478027,18.7978516 L268.478027,19.75 C268.169106,19.8346358 267.868654,19.8769531 267.57666,19.8769531 C267.051918,19.8769531 266.656251,19.7182633 266.389648,19.4008789 C266.123045,19.0834945 265.989746,18.6328154 265.989746,18.0488281 L265.989746,13.7895508 L264.739258,13.7895508 L264.739258,12.8818359 L265.989746,12.8818359 L265.989746,11.21875 L267.164062,11.21875 Z M269.379394,16.2524414 C269.379394,15.5795865 269.511636,14.9744493 269.776123,14.4370117 C270.04061,13.8995741 270.40877,13.4848647 270.880615,13.1928711 C271.35246,12.9008774 271.890947,12.7548828 272.496094,12.7548828 C273.43132,12.7548828 274.187741,13.07861 274.765381,13.7260742 C275.34302,14.3735384 275.631836,15.2346951 275.631836,16.3095703 L275.631836,16.3920898 C275.631836,17.060713 275.503826,17.6605605 275.247803,18.1916504 C274.991779,18.7227403 274.625735,19.1363917 274.149658,19.4326172 C273.673582,19.7288426 273.126631,19.8769531 272.508789,19.8769531 C271.577795,19.8769531 270.823489,19.5532259 270.24585,18.9057617 C269.66821,18.2582975 269.379394,17.4013725 269.379394,16.3349609 L269.379394,16.2524414 Z M270.560058,16.3920898 C270.560058,17.1538124 270.736733,17.7652972 271.090088,18.2265625 C271.443442,18.6878278 271.916338,18.918457 272.508789,18.918457 C273.105472,18.918457 273.579425,18.684654 273.930664,18.217041 C274.281903,17.749428 274.457519,17.094568 274.457519,16.2524414 C274.457519,15.4991824 274.278729,14.8887556 273.921142,14.4211426 C273.563556,13.9535296 273.088545,13.7197266 272.496094,13.7197266 C271.916338,13.7197266 271.448732,13.9503558 271.093262,14.4116211 C270.737791,14.8728864 270.560058,15.5330361 270.560058,16.3920898 Z M277.066406,19.1342773 C277.066406,18.9311513 277.126708,18.7618822 277.247314,18.6264648 C277.36792,18.4910475 277.548827,18.4233398 277.790039,18.4233398 C278.031251,18.4233398 278.214273,18.4910475 278.339111,18.6264648 C278.463949,18.7618822 278.526367,18.9311513 278.526367,19.1342773 C278.526367,19.3289398 278.463949,19.4918613 278.339111,19.6230469 C278.214273,19.7542324 278.031251,19.8198242 277.790039,19.8198242 C277.548827,19.8198242 277.36792,19.7542324 277.247314,19.6230469 C277.126708,19.4918613 277.066406,19.3289398 277.066406,19.1342773 Z M277.072754,13.5292969 C277.072754,13.3261709 277.133056,13.1569017 277.253662,13.0214844 C277.374268,12.886067 277.555174,12.8183594 277.796387,12.8183594 C278.037599,12.8183594 278.220621,12.886067 278.345459,13.0214844 C278.470297,13.1569017 278.532715,13.3261709 278.532715,13.5292969 C278.532715,13.7239593 278.470297,13.8868809 278.345459,14.0180664 C278.220621,14.149252 278.037599,14.2148438 277.796387,14.2148438 C277.555174,14.2148438 277.374268,14.149252 277.253662,14.0180664 C277.133056,13.8868809 277.072754,13.7239593 277.072754,13.5292969 Z M285.058105,14.5576172 L285.94043,14.5576172 C286.494794,14.5491536 286.930662,14.403159 287.248047,14.1196289 C287.565431,13.8360988 287.724121,13.4531274 287.724121,12.9707031 C287.724121,11.8873644 287.184576,11.3457031 286.105469,11.3457031 C285.597654,11.3457031 285.192466,11.4906398 284.889892,11.7805176 C284.587319,12.0703953 284.436035,12.4544247 284.436035,12.9326172 L283.261719,12.9326172 C283.261719,12.2005172 283.529375,11.5922062 284.064697,11.107666 C284.600019,10.6231258 285.280269,10.3808594 286.105469,10.3808594 C286.977218,10.3808594 287.660642,10.6114886 288.155762,11.0727539 C288.650881,11.5340192 288.898437,12.1751261 288.898437,12.9960938 C288.898437,13.398114 288.768312,13.787433 288.508057,14.1640625 C288.247801,14.540692 287.893394,14.8221019 287.444824,15.0083008 C287.952639,15.1691089 288.345132,15.4357078 288.622314,15.8081055 C288.899497,16.1805032 289.038086,16.635414 289.038086,17.1728516 C289.038086,18.0022828 288.767255,18.6603166 288.225586,19.1469727 C287.683916,19.6336287 286.979334,19.8769531 286.111816,19.8769531 C285.244299,19.8769531 284.538658,19.6420922 283.994873,19.1723633 C283.451088,18.7026344 283.179199,18.0826861 283.179199,17.3125 L284.359863,17.3125 C284.359863,17.7991561 284.518553,18.1884751 284.835937,18.4804688 C285.153322,18.7724624 285.578611,18.918457 286.111816,18.918457 C286.678876,18.918457 287.112629,18.7703465 287.413086,18.4741211 C287.713543,18.1778957 287.863769,17.7526069 287.863769,17.1982422 C287.863769,16.6608046 287.698732,16.2482111 287.368652,15.9604492 C287.038572,15.6726874 286.562503,15.5245769 285.94043,15.5161133 L285.058105,15.5161133 L285.058105,14.5576172 Z" id="path-1" fill="#2A3052"></path>
            <path d="M18.1972656,20.25 L16,20.25 L16,9.5859375 L18.1972656,9.5859375 L18.1972656,20.25 Z M19.7866211,16.2290039 C19.7866211,15.0131775 20.0759248,14.0341834 20.654541,13.2919922 C21.2331572,12.549801 22.0131787,12.1787109 22.9946289,12.1787109 C23.8637739,12.1787109 24.5400366,12.4765595 25.0234375,13.0722656 L25.1113281,12.3251953 L27.0302734,12.3251953 L27.0302734,19.9863281 C27.0302734,20.679691 26.8728043,21.2827123 26.5578613,21.7954102 C26.2429183,22.308108 25.7998075,22.6987291 25.2285156,22.9672852 C24.6572237,23.2358412 23.9882851,23.3701172 23.2216797,23.3701172 C22.6406221,23.3701172 22.0742215,23.2541516 21.5224609,23.0222168 C20.9707004,22.790282 20.5532241,22.4912128 20.2700195,22.125 L21.2075195,20.8359375 C21.7348659,21.4267608 22.374508,21.722168 23.1264648,21.722168 C23.6879911,21.722168 24.1249984,21.572023 24.4375,21.2717285 C24.7500016,20.971434 24.90625,20.5454129 24.90625,19.9936523 L24.90625,19.5688477 C24.4179663,20.1206082 23.7758829,20.3964844 22.9799805,20.3964844 C22.0278273,20.3964844 21.2575713,20.0241736 20.6691895,19.279541 C20.0808076,18.5349084 19.7866211,17.5473694 19.7866211,16.3168945 L19.7866211,16.2290039 Z M21.9033203,16.3828125 C21.9033203,17.1005895 22.0473618,17.663328 22.3354492,18.0710449 C22.6235366,18.4787618 23.0190405,18.6826172 23.5219727,18.6826172 C24.1665071,18.6826172 24.6279283,18.4409204 24.90625,17.9575195 L24.90625,14.625 C24.6230455,14.1415991 24.1665071,13.8999023 23.5366211,13.8999023 C23.0288061,13.8999023 22.6296401,14.1074198 22.3391113,14.5224609 C22.0485825,14.9375021 21.9033203,15.5576131 21.9033203,16.3828125 Z M33.4023438,19.4443359 C32.8798802,20.0791047 32.1572312,20.3964844 31.234375,20.3964844 C30.3847614,20.3964844 29.7365745,20.1523462 29.2897949,19.6640625 C28.8430153,19.1757788 28.6147461,18.4604539 28.6049805,17.5180664 L28.6049805,12.3251953 L30.7216797,12.3251953 L30.7216797,17.4448242 C30.7216797,18.2700237 31.0976525,18.6826172 31.8496094,18.6826172 C32.5673864,18.6826172 33.0605455,18.4335962 33.3291016,17.9355469 L33.3291016,12.3251953 L35.453125,12.3251953 L35.453125,20.25 L33.4609375,20.25 L33.4023438,19.4443359 Z M41.6420898,20.25 C41.5444331,20.0595694 41.473633,19.8227553 41.4296875,19.5395508 C40.9169896,20.1108427 40.2504924,20.3964844 39.4301758,20.3964844 C38.6538047,20.3964844 38.0105006,20.1718772 37.5002441,19.7226562 C36.9899877,19.2734353 36.7348633,18.7070347 36.7348633,18.0234375 C36.7348633,17.1835896 37.0461395,16.5390647 37.6687012,16.0898438 C38.2912629,15.6406228 39.1909121,15.4135742 40.3676758,15.4086914 L41.3417969,15.4086914 L41.3417969,14.9545898 C41.3417969,14.5883771 41.2478037,14.2954113 41.0598145,14.0756836 C40.8718252,13.8559559 40.5751973,13.7460938 40.1699219,13.7460938 C39.8134748,13.7460938 39.5339366,13.8315421 39.3312988,14.0024414 C39.1286611,14.1733407 39.0273438,14.4077134 39.0273438,14.7055664 L36.9106445,14.7055664 C36.9106445,14.2465797 37.0522447,13.8217793 37.3354492,13.4311523 C37.6186538,13.0405254 38.0190404,12.734132 38.5366211,12.5119629 C39.0542018,12.2897938 39.6352507,12.1787109 40.2797852,12.1787109 C41.2563525,12.1787109 42.0314913,12.4240698 42.6052246,12.9147949 C43.1789579,13.40552 43.4658203,14.0952104 43.4658203,14.9838867 L43.4658203,18.4189453 C43.4707031,19.1709022 43.5756826,19.7397442 43.7807617,20.1254883 L43.7807617,20.25 L41.6420898,20.25 Z M39.8916016,18.777832 C40.2041031,18.777832 40.4921862,18.7082526 40.7558594,18.5690918 C41.0195326,18.4299309 41.2148431,18.2431652 41.3417969,18.0087891 L41.3417969,16.6464844 L40.5507812,16.6464844 C39.4912056,16.6464844 38.9272464,17.0126917 38.8588867,17.7451172 L38.8515625,17.8696289 C38.8515625,18.1333021 38.944335,18.3505851 39.1298828,18.5214844 C39.3154306,18.6923837 39.5693343,18.777832 39.8916016,18.777832 Z M47.3256836,20.25 L45.2016602,20.25 L45.2016602,9 L47.3256836,9 L47.3256836,20.25 Z M52.7163086,20.3964844 C51.5541934,20.3964844 50.6081579,20.0400426 49.8781738,19.3271484 C49.1481897,18.6142542 48.7832031,17.6645567 48.7832031,16.4780273 L48.7832031,16.2729492 C48.7832031,15.4770468 48.9370102,14.765384 49.2446289,14.1379395 C49.5522476,13.5104949 49.9880343,13.0271013 50.552002,12.6877441 C51.1159696,12.348387 51.7592737,12.1787109 52.4819336,12.1787109 C53.5659234,12.1787109 54.4191863,12.5205044 55.041748,13.2041016 C55.6643098,13.8876987 55.9755859,14.8569273 55.9755859,16.1118164 L55.9755859,16.9760742 L50.9291992,16.9760742 C50.9975589,17.4936549 51.2038557,17.9086898 51.5480957,18.2211914 C51.8923357,18.533693 52.3281224,18.6899414 52.8554688,18.6899414 C53.6709025,18.6899414 54.3081032,18.3945342 54.7670898,17.8037109 L55.8071289,18.9682617 C55.4897445,19.4174827 55.0600613,19.767821 54.5180664,20.0192871 C53.9760715,20.2707532 53.3754916,20.3964844 52.7163086,20.3964844 Z M52.4746094,13.8925781 C52.0546854,13.8925781 51.7141126,14.0341783 51.4528809,14.3173828 C51.1916491,14.6005874 51.0244144,15.0058567 50.9511719,15.5332031 L53.8955078,15.5332031 L53.8955078,15.3647461 C53.8857421,14.8959937 53.7587903,14.5334485 53.5146484,14.2770996 C53.2705066,14.0207507 52.9238304,13.8925781 52.4746094,13.8925781 Z M61.46875,18.0600586 C61.46875,17.8012682 61.3405775,17.5974129 61.0842285,17.4484863 C60.8278796,17.2995598 60.4165067,17.1665045 59.8500977,17.0493164 C57.9653226,16.6538066 57.0229492,15.8530334 57.0229492,14.6469727 C57.0229492,13.9438441 57.3146943,13.3566918 57.8981934,12.885498 C58.4816924,12.4143043 59.2446242,12.1787109 60.1870117,12.1787109 C61.1928761,12.1787109 61.9973114,12.415525 62.6003418,12.8891602 C63.2033722,13.3627953 63.5048828,13.9780236 63.5048828,14.7348633 L61.3881836,14.7348633 C61.3881836,14.4321274 61.2905283,14.1818858 61.0952148,13.9841309 C60.8999014,13.786376 60.5947286,13.6875 60.1796875,13.6875 C59.8232404,13.6875 59.5473643,13.7680656 59.3520508,13.9291992 C59.1567373,14.0903328 59.059082,14.2954089 59.059082,14.5444336 C59.059082,14.7788098 59.1701649,14.9680169 59.392334,15.1120605 C59.6145031,15.2561042 59.9892552,15.3806147 60.5166016,15.4855957 C61.0439479,15.5905767 61.4882794,15.7089837 61.8496094,15.8408203 C62.967779,16.2509786 63.5268555,16.9614207 63.5268555,17.972168 C63.5268555,18.6948278 63.2168,19.2795388 62.5966797,19.7263184 C61.9765594,20.1730979 61.1757862,20.3964844 60.1943359,20.3964844 C59.5302701,20.3964844 58.9406764,20.2780774 58.4255371,20.0412598 C57.9103978,19.8044422 57.5063491,19.4797384 57.2133789,19.0671387 C56.9204087,18.654539 56.7739258,18.2089868 56.7739258,17.7304688 L58.7807617,17.7304688 C58.8002931,18.1064472 58.9394518,18.3945302 59.1982422,18.5947266 C59.4570325,18.7949229 59.8037088,18.8950195 60.2382812,18.8950195 C60.6435567,18.8950195 60.9499501,18.818116 61.1574707,18.6643066 C61.3649913,18.5104973 61.46875,18.3090833 61.46875,18.0600586 Z" id="Iguales" fill="#000000"></path>
            <path d="M125.298828,163.756836 L127.033691,163.756836 L127.23291,172.273438 L125.099609,172.273438 L125.298828,163.756836 Z M127.282715,161.191895 C127.282715,161.501792 127.183106,161.760497 126.983887,161.968018 C126.784667,162.175538 126.50521,162.279297 126.145508,162.279297 C125.780272,162.279297 125.498048,162.175538 125.298828,161.968018 C125.099608,161.760497 125,161.501792 125,161.191895 C125,160.887531 125.099608,160.631593 125.298828,160.424072 C125.498048,160.216552 125.780272,160.112793 126.145508,160.112793 C126.50521,160.112793 126.784667,160.216552 126.983887,160.424072 C127.183106,160.631593 127.282715,160.887531 127.282715,161.191895 Z M138.878906,167.683105 C138.44173,168.253095 137.835779,168.684732 137.061035,168.978027 C136.286292,169.271323 135.406418,169.417969 134.421387,169.417969 C133.408686,169.417969 132.512211,169.188316 131.731934,168.729004 C130.951656,168.269692 130.349856,167.612553 129.926514,166.757568 C129.503172,165.902584 129.283203,164.905116 129.266602,163.765137 L129.266602,162.818848 C129.266602,160.992667 129.703772,159.56633 130.578125,158.539795 C131.452478,157.51326 132.672681,157 134.23877,157 C135.583503,157 136.651526,157.332028 137.442871,157.996094 C138.234216,158.66016 138.710123,159.617507 138.870605,160.868164 L136.812012,160.868164 C136.579589,159.412753 135.735684,158.685059 134.280273,158.685059 C133.339514,158.685059 132.62427,159.024004 132.134521,159.701904 C131.644773,160.379805 131.391602,161.374505 131.375,162.686035 L131.375,163.615723 C131.375,164.921719 131.650306,165.935787 132.200928,166.657959 C132.751549,167.380131 133.516597,167.741211 134.496094,167.741211 C135.569667,167.741211 136.333331,167.497724 136.787109,167.010742 L136.787109,164.64502 L134.296875,164.64502 L134.296875,163.05127 L138.878906,163.05127 L138.878906,167.683105 Z M146.35791,169.251953 C146.269368,169.080403 146.191895,168.800946 146.125488,168.413574 C145.483558,169.083174 144.697759,169.417969 143.768066,169.417969 C142.866044,169.417969 142.130048,169.160647 141.560059,168.645996 C140.990069,168.131345 140.705078,167.494958 140.705078,166.736816 C140.705078,165.779455 141.060625,165.044843 141.771729,164.532959 C142.482832,164.021075 143.499668,163.765137 144.822266,163.765137 L146.059082,163.765137 L146.059082,163.175781 C146.059082,162.710935 145.929038,162.338787 145.668945,162.059326 C145.408853,161.779865 145.013186,161.640137 144.481934,161.640137 C144.022621,161.640137 143.646323,161.754963 143.353027,161.984619 C143.059732,162.214275 142.913086,162.506183 142.913086,162.860352 L140.895996,162.860352 C140.895996,162.367836 141.059243,161.907147 141.385742,161.478271 C141.712241,161.049396 142.156329,160.713217 142.718018,160.469727 C143.279707,160.226236 143.906409,160.104492 144.598145,160.104492 C145.649582,160.104492 146.487953,160.368731 147.113281,160.897217 C147.73861,161.425703 148.05957,162.168615 148.076172,163.125977 L148.076172,167.176758 C148.076172,167.984705 148.189615,168.629392 148.416504,169.11084 L148.416504,169.251953 L146.35791,169.251953 Z M144.141602,167.799316 C144.540041,167.799316 144.914956,167.702475 145.266357,167.508789 C145.617759,167.315103 145.881998,167.055015 146.059082,166.728516 L146.059082,165.035156 L144.97168,165.035156 C144.224606,165.035156 143.662925,165.165201 143.286621,165.425293 C142.910317,165.685385 142.722168,166.053383 142.722168,166.529297 C142.722168,166.916669 142.850829,167.225178 143.108154,167.454834 C143.36548,167.68449 143.709959,167.799316 144.141602,167.799316 Z M152.060547,160.270508 L152.118652,161.308105 C152.782718,160.505693 153.654291,160.104492 154.733398,160.104492 C156.60385,160.104492 157.555664,161.175282 157.588867,163.316895 L157.588867,169.251953 L155.571777,169.251953 L155.571777,163.433105 C155.571777,162.863116 155.44865,162.441163 155.202393,162.167236 C154.956135,161.893309 154.553551,161.756348 153.994629,161.756348 C153.181148,161.756348 152.575197,162.124345 152.176758,162.860352 L152.176758,169.251953 L150.159668,169.251953 L150.159668,160.270508 L152.060547,160.270508 Z M163.598633,169.417969 C162.320306,169.417969 161.284102,169.015385 160.48999,168.210205 C159.695878,167.405025 159.298828,166.332852 159.298828,164.993652 L159.298828,164.744629 C159.298828,163.84814 159.471759,163.047123 159.817627,162.341553 C160.163495,161.635983 160.649085,161.086753 161.274414,160.693848 C161.899743,160.300942 162.597001,160.104492 163.366211,160.104492 C164.589199,160.104492 165.534095,160.494625 166.200928,161.274902 C166.86776,162.05518 167.201172,163.159173 167.201172,164.586914 L167.201172,165.400391 L161.33252,165.400391 C161.393392,166.141931 161.64103,166.728513 162.075439,167.160156 C162.509849,167.591799 163.056312,167.807617 163.714844,167.807617 C164.639002,167.807617 165.391599,167.434086 165.972656,166.687012 L167.060059,167.724609 C166.700356,168.261396 166.220299,168.677814 165.619873,168.973877 C165.019447,169.26994 164.345707,169.417969 163.598633,169.417969 Z M163.35791,161.723145 C162.804522,161.723145 162.357668,161.916827 162.017334,162.304199 C161.677,162.691571 161.459799,163.231116 161.365723,163.922852 L165.208984,163.922852 L165.208984,163.773438 C165.164713,163.098304 164.984865,162.587811 164.669434,162.241943 C164.354002,161.896076 163.916832,161.723145 163.35791,161.723145 Z M170.90332,165.690918 L169.168457,165.690918 L168.977539,157.166016 L171.102539,157.166016 L170.90332,165.690918 Z M168.919434,168.297363 C168.919434,167.981932 169.021809,167.72046 169.226562,167.512939 C169.431316,167.305419 169.710773,167.20166 170.064941,167.20166 C170.41911,167.20166 170.698567,167.305419 170.90332,167.512939 C171.108074,167.72046 171.210449,167.981932 171.210449,168.297363 C171.210449,168.601727 171.110841,168.856282 170.911621,169.061035 C170.712401,169.265789 170.430178,169.368164 170.064941,169.368164 C169.699705,169.368164 169.417481,169.265789 169.218262,169.061035 C169.019042,168.856282 168.919434,168.601727 168.919434,168.297363 Z" id="¡Gane!" fill="#FFFFFF"></path>
        </g>
    </g>
</svg>