<svg width="300" height="199" viewBox="0 0 300 199" xmlns="http://www.w3.org/2000/svg"><title>spanish no touch</title><g fill="none" fill-rule="evenodd"><path fill="#F1F2F2" d="M0 0h300v199H0z"/><path d="M39.125 55.375V74.75H75.25V55.375H39.125zm0-1H75.25V34h1v20.375h36.125V34h1v20.375H149.5V34h1v20.375h36.125V34h1v20.375h36.125V34h1v20.375h36.125V34h1v20.375H299.5v1h-37.625V74.75H299.5v1h-37.625v19.375H299.5v1h-37.625V115.5H299.5v1h-37.625v19.375H299.5v1h-37.625v19.375H299.5v1h-37.625v19.375H299.5v1h-37.625V199h-1v-21.375H224.75V199h-1v-21.375h-36.125V199h-1v-21.375H150.5V199h-1v-21.375h-36.125V199h-1v-21.375H76.25V199h-1v-21.375H39.125V199h-1v-21.375H1.5v-1h36.625V157.25H1.5v-1h36.625v-19.375H1.5v-1h36.625V116.5H1.5v-1h36.625V96.125H1.5v-1h36.625V75.75H1.5v-1h36.625V55.375H1.5v-1h36.625V34h1v20.375zm221.75 1H224.75V74.75h36.125V55.375zm-37.125 0h-36.125V74.75h36.125V55.375zm-37.125 0H150.5V74.75h36.125V55.375zm-37.125 0h-36.125V74.75H149.5V55.375zm-37.125 0H76.25V74.75h36.125V55.375zM39.125 75.75v19.375H75.25V75.75H39.125zm221.75 0H224.75v19.375h36.125V75.75zm-37.125 0h-36.125v19.375h36.125V75.75zm-37.125 0H150.5v19.375h36.125V75.75zm-37.125 0h-36.125v19.375H149.5V75.75zm-37.125 0H76.25v19.375h36.125V75.75zm-73.25 20.375V115.5H75.25V96.125H39.125zm221.75 0H224.75V115.5h36.125V96.125zm-37.125 0h-36.125V115.5h36.125V96.125zm-37.125 0H150.5V115.5h36.125V96.125zm-37.125 0h-36.125V115.5H149.5V96.125zm-37.125 0H76.25V115.5h36.125V96.125zM39.125 116.5v19.375H75.25V116.5H39.125zm221.75 0H224.75v19.375h36.125V116.5zm-37.125 0h-36.125v19.375h36.125V116.5zm-37.125 0H150.5v19.375h36.125V116.5zm-37.125 0h-36.125v19.375H149.5V116.5zm-37.125 0H76.25v19.375h36.125V116.5zm-73.25 20.375v19.375H75.25v-19.375H39.125zm221.75 0H224.75v19.375h36.125v-19.375zm-37.125 0h-36.125v19.375h36.125v-19.375zm-37.125 0H150.5v19.375h36.125v-19.375zm-37.125 0h-36.125v19.375H149.5v-19.375zm-37.125 0H76.25v19.375h36.125v-19.375zm-73.25 20.375v19.375H75.25V157.25H39.125zm221.75 0H224.75v19.375h36.125V157.25zm-37.125 0h-36.125v19.375h36.125V157.25zm-37.125 0H150.5v19.375h36.125V157.25zm-37.125 0h-36.125v19.375H149.5V157.25zm-37.125 0H76.25v19.375h36.125V157.25z" fill="#DFDEDE"/><path stroke="#C2C2C2" stroke-width="2" d="M1 1h298v197H1z"/><path fill="#C2C2C2" d="M0 33h300v2H0z"/><g transform="translate(2 33.7)"><path d="M.94 41.551h294.552M260.107.241V162.97" stroke="#293152" stroke-width="1.211" stroke-linejoin="round"/><path stroke="#293152" stroke-width="3.633" stroke-linecap="round" stroke-linejoin="round" d="M36.514 103.498l37.284-33.924 33.636 26.347 34.168-26.347 35.346 28.86 37.21-33.239 45.95 12.641"/><path d="M187.134 114.235h-35.536l-5.473-8.339-5.473 8.339h-35.536c-2.66 0-4.79 2.17-4.79 4.873v25.167c0 2.703 2.167 4.874 4.79 4.874h82.056c2.66 0 4.79-2.17 4.79-4.874v-25.167c0-2.703-2.167-4.873-4.828-4.873z" fill="#E88124" fill-rule="nonzero"/><ellipse cx="8.476" cy="10.052" rx="8.247" ry="8.605" opacity=".6" transform="translate(251.632 67.784)" fill="#FFF" fill-rule="nonzero"/><ellipse stroke="#E88124" stroke-width="2.422" cx="260.107" cy="77.836" rx="8.247" ry="8.605"/><ellipse cx="9.122" cy="9.062" rx="8.247" ry="8.605" opacity=".6" transform="translate(27.392 94.436)" fill="#FFF" fill-rule="nonzero"/><ellipse stroke="#E88124" stroke-width="2.422" cx="36.514" cy="103.498" rx="8.247" ry="8.605"/></g><g fill="#2A3052"><path d="M278.646 125.602l.11 1.148a2.502 2.502 0 0 1 2.221-1.259c.814 0 1.443.222 1.887.74.444.482.666 1.222.666 2.221v4.81h-1.369v-4.773c0-.666-.148-1.147-.407-1.443-.259-.296-.666-.407-1.184-.407-.407 0-.74.11-1.036.296a2.137 2.137 0 0 0-.74.777v5.55h-1.37v-7.623l1.222-.037zM290.082 132.642c-.037-.184-.037-.332-.037-.516-.258.369-.59.663-.996.922a2.407 2.407 0 0 1-1.327.368c-.774 0-1.363-.184-1.769-.627a2.249 2.249 0 0 1-.627-1.658c0-.738.295-1.29.885-1.696.59-.405 1.364-.627 2.36-.627h1.474v-.737c0-.442-.148-.81-.406-1.069-.258-.258-.663-.405-1.142-.405-.443 0-.811.11-1.07.332-.257.22-.405.516-.405.81h-1.29v-.036c-.037-.553.221-1.07.774-1.512.553-.442 1.253-.7 2.101-.7.848 0 1.548.221 2.064.663.516.443.774 1.07.774 1.88v3.65c0 .258 0 .516.037.774s.074.516.148.737h-1.438v.074a21.032 21.032 0 0 0-.11-.627zm-2.232-.442c.48 0 .959-.11 1.327-.369.406-.258.664-.553.774-.885v-1.216h-1.51c-.554 0-.996.147-1.328.405-.332.258-.48.627-.48.996 0 .331.112.59.296.81.221.148.516.259.921.259zM272.424 123.107v1.039h-4.984v3.53h4.246v1.069h-4.246v4.518h-1.464v-10.156zM273.887 125.713h1.353v7.451h-1.353zM273.905 122.33v1.343h1.38v-1.344zM293.552 122.28h1.371v10.836h-1.371z"/></g><g fill="#2A3052"><path d="M27.479 155.882l.12 1.244a2.712 2.712 0 0 1 2.407-1.364c.882 0 1.564.24 2.045.802.482.522.722 1.324.722 2.407v5.214H31.29v-5.174c0-.722-.16-1.243-.441-1.564-.28-.321-.722-.442-1.284-.442-.44 0-.802.12-1.123.321-.32.2-.601.482-.802.843v6.016h-1.484v-8.263l1.324-.04zM22.289 153.009h1.414v11.176H22.29zM46.86 155.882h1.445v7.951h-1.444zM46.88 152.27v1.434h1.472v-1.433zM35.012 155.882h1.444v7.951h-1.444zM35.031 152.27v1.434h1.472v-1.433zM43.684 158.721c.81-.03 1.22 0 1.39 0 0-.905-.595-2.99-3.324-2.909-2.73.082-3.458 3.064-3.337 4.738.12 1.673 1.215 3.722 3.648 3.65 2.433-.072 3.014-2.037 3.014-2.72-.437-.002-.9-.002-1.391 0 0 .67-.466 1.49-1.623 1.568-1.157.078-2.027-.822-2.138-2.498-.112-1.677.345-3.598 1.86-3.598 1.513 0 1.901 1.13 1.901 1.77zM53.809 155.81c1.41 0 3.494.625 3.703 3.84.21 3.215-1.791 4.535-3.577 4.535s-3.629-1.247-3.629-4.356c0-3.11 2.092-4.019 3.503-4.019zm.113 1.165c-1.422 0-2.146 1.21-2.146 2.882 0 1.673.506 3.212 2.146 3.212s2.256-1.547 2.125-3.335c-.13-1.788-.702-2.759-2.125-2.759z"/></g><g fill="#6D6E71" opacity=".9"><path d="M43.877 69.426h.932l.802-5.264h-.955zM45.956 61.787l-.133.983h-.973l.166-.983zM39.035 68.24c.057.137.122.285.275.611-1.158.882-2.49.762-3.112.397-.937-.549-.937-1.569-.932-2.358.006-1.006.746-2.877 2.805-2.877 2.06 0 1.721 2.223 1.621 2.877-.21 0-1.346.02-3.407.062-.19 2.446 1.657 1.9 2.75 1.287zm-.124-1.968c.12-.965-.177-1.448-.89-1.448-1.07 0-1.445 1.133-1.565 1.448h2.455zM28.626 64.821c.044-.198 1.208-1.22 2.442-.522.775.44.999 1.691.717 2.912-.323 1.402-.908 2.102-1.838 2.266-1.36.24-1.842-.522-1.952-.773-.054.168-.149.407-.285.718h-.716l1.124-7.546h.958c-.329 2.095-.479 3.077-.45 2.945zm-.454 3.14c.15.489.5.757 1.054.804.797.068 1.492-.69 1.647-1.738.154-1.037 0-2.073-.784-2.15-.718-.072-1.247.204-1.586.826l-.331 2.257zM23.993 62.274c1.492 0 2.547 1.043 2.494 2.674-.124.894-.149 1.109-.288 1.923-.474 1.61-1.508 2.652-3.475 2.652-1.289 0-2.332-1.238-2.165-2.926.033-.334.203-1.282.287-1.65.387-1.7 1.656-2.673 3.147-2.673zm.002.784c-1.271-.085-2.015 1.145-2.16 1.734-.145.589-.204 1.027-.332 1.943-.08.915.207 2.088 1.606 2.018 1.399-.07 1.983-1.262 2.157-2.018.091-.613.135-.829.26-1.701.124-.872-.26-1.89-1.531-1.976zM33.656 64.148h.914a351.518 351.518 0 0 0-.758 5.173c-.131 1.162-.521 2.538-2.42 2.104.1-.338.161-.582.183-.733.617.111 1.111.166 1.325-1.497.148-1.157.4-2.84.756-5.047zM33.99 61.804l-.154.968h.975l.13-.968zM46.648 64.153h.951l.76 4.093 1.932-4.093h.952L48.511 69.4h-.672zM54.349 63.983c1.28.198 1.989 1.411 1.508 3.26-.48 1.847-2.109 2.407-3.333 2.06-1.223-.347-1.528-1.937-1.094-3.313.434-1.377 1.64-2.206 2.919-2.007zm-.155.754c-.96-.228-1.587.671-1.82 1.318-.233.648-.423 2.366.595 2.572 1.019.206 1.69-.551 1.973-1.512.283-.96.21-2.15-.748-2.378zM41.835 62.886h.937l-.176 1.267h.99l-.101.668h-1c-.26 1.764-.416 2.83-.469 3.197-.12.565.138.78.775.642.01.136.02.354.034.655-1.196.422-1.936-.114-1.762-1.297l.47-3.197h-.837l.1-.668h.833l.206-1.267z"/></g><g fill="#FFF"><path d="M176.56 166.419h-2.752v-9.105h2.752zM176.56 171.209h-2.752v-2.446h2.752z"/><g><path d="M150.4 160.326h2.288l.115 1.665c.936-1.396 2.151-2.017 3.645-1.863.864.09 2.688.373 3.232 2.829.199.9.156 2.42.142 4.488a482.05 482.05 0 0 0 0 4.169h-2.51v-7.071c0-.831-.232-1.76-.93-2.111-.958-.483-2.762-.28-3.486.937v8.245H150.4v-11.288zM131.085 165.557v-1.87h5.658c.064 3.26.064 5.16 0 5.701-.477 1.427-6.128 4.022-9.776.73-1.087-.98-1.598-2.067-1.878-3.712-.012-1.68-.042-3.256-.031-4.747.276-1.827.888-2.865 1.381-3.454 1.794-2.145 4.652-2.606 7.165-1.737 2.513.868 2.84 2.674 3.043 4.439-.582 0-.89-.025-2.46 0 .158-.993-.745-2.914-3.103-2.808-2.358.106-3.471 2.043-3.471 3.657 0 1.614-.085 1.072 0 4.28.107 3.683 4.522 4.671 6.573 2.704l.075-3.137-3.176-.046zM119.969 164.718h2.344v10.384h-2.344zM120.015 160.13v1.986h2.332v-1.986zM164.88 163.17c-.748-.005-1.532-.005-2.352 0 0-1.18.844-3.32 4.223-3.32 3.38 0 4.19 2.32 4.282 2.82.092.5-.235 7.509.472 8.305l-2.51.003c-.208-.71-.311-1.234-.311-1.573-.392.478-1.066 1.351-2.1 1.672-1.036.321-3.387.493-4.35-1.763-.635-1.487-.23-3.16.963-3.925 1.97-1.266 4.678-.843 5.487-.843.104-2.258-.57-2.783-2.1-2.783-1.021 0-1.589.469-1.704 1.407zm3.803 2.92a40.734 40.734 0 0 0-2.48.02c-.985.087-1.862.816-1.788 1.854.09 1.237 1.497 1.465 2.598 1.108.925-.3 1.57-1.073 1.67-1.403v-1.58zM141.914 163.17c-.748-.005-1.532-.005-2.352 0 0-1.18.844-3.32 4.224-3.32 3.379 0 4.19 2.32 4.281 2.82.092.5-.235 7.509.472 8.305l-2.51.003c-.208-.71-.311-1.234-.311-1.573-.392.478-1.066 1.351-2.1 1.672-1.036.321-3.387.493-4.35-1.763-.635-1.487-.23-3.16.963-3.925 1.97-1.266 4.678-.843 5.487-.843.104-2.258-.57-2.783-2.1-2.783-1.021 0-1.589.469-1.704 1.407zm3.803 2.92a40.734 40.734 0 0 0-2.48.02c-.985.087-1.862.816-1.788 1.854.09 1.237 1.497 1.465 2.598 1.108.925-.3 1.57-1.073 1.67-1.403v-1.58z"/></g></g><path d="M25.814 21.714h-2.05l-4.123-6.896-.042.007v6.889h-2.05V11.49h2.05l4.122 6.888.042-.007V11.49h2.05v10.224zm1.411-3.87c0-1.132.316-2.06.948-2.784.632-.723 1.508-1.084 2.626-1.084 1.124 0 2.004.36 2.64 1.081.637.72.956 1.65.956 2.788v.147c0 1.142-.317 2.073-.952 2.791-.634.719-1.51 1.078-2.63 1.078-1.123 0-2.002-.359-2.636-1.078-.635-.718-.952-1.649-.952-2.79v-.148zm2.044.148c0 .693.121 1.249.365 1.668.243.419.636.628 1.18.628.528 0 .916-.21 1.162-.632.245-.42.368-.976.368-1.664v-.147c0-.674-.124-1.224-.372-1.65-.248-.426-.639-.64-1.173-.64-.529 0-.916.215-1.162.643-.246.428-.368.977-.368 1.647v.147zm17.253-4.922H43.6v8.644h-2.05V13.07h-2.88v-1.58h7.85v1.58zm.098 4.775c0-1.133.316-2.061.948-2.785.632-.723 1.507-1.084 2.626-1.084 1.124 0 2.004.36 2.64 1.081.637.72.956 1.65.956 2.788v.147c0 1.142-.318 2.073-.952 2.791-.634.719-1.51 1.078-2.63 1.078-1.123 0-2.002-.359-2.637-1.078-.634-.718-.951-1.649-.951-2.79v-.148zm2.043.147c0 .693.122 1.249.366 1.668.243.419.636.628 1.18.628.528 0 .916-.21 1.161-.632.246-.42.37-.976.37-1.664v-.147c0-.674-.125-1.224-.373-1.65-.248-.426-.64-.64-1.173-.64-.529 0-.916.215-1.162.643-.246.428-.369.977-.369 1.647v.147zm9.564 2.296c.356 0 .64-.106.85-.32.21-.212.316-.496.316-.852h1.868l.014.042c.019.768-.267 1.41-.857 1.927-.59.518-1.32.776-2.19.776-1.124 0-1.992-.359-2.606-1.078-.613-.718-.92-1.637-.92-2.756v-.21c0-1.115.306-2.033.917-2.757.61-.723 1.476-1.084 2.594-1.084.927 0 1.674.266 2.24.8.567.534.84 1.236.822 2.107l-.014.042h-1.868c0-.393-.104-.72-.312-.98-.209-.26-.498-.39-.868-.39-.529 0-.904.212-1.127.636-.222.424-.333.966-.333 1.626v.21c0 .674.111 1.22.333 1.636.223.417.603.625 1.141.625zm8.722 1.426a4.313 4.313 0 0 1-.193-.548 3.81 3.81 0 0 1-.116-.59c-.21.37-.49.677-.836.92-.346.244-.758.365-1.236.365-.796 0-1.409-.204-1.84-.614-.43-.41-.645-.968-.645-1.675 0-.744.286-1.321.86-1.73.573-.41 1.41-.615 2.51-.615h1.152v-.604c0-.365-.096-.648-.288-.85-.192-.201-.478-.302-.857-.302-.332 0-.589.081-.769.243-.18.161-.27.382-.27.663h-1.973l-.014-.042c-.033-.641.247-1.195.839-1.66.592-.467 1.366-.7 2.32-.7.913 0 1.652.23 2.216.689.564.459.846 1.116.846 1.973v3.139c0 .356.027.69.08 1.004.055.314.14.625.257.934H66.95zm-1.875-1.37c.356 0 .674-.088.955-.266.28-.178.473-.384.576-.618v-1.075h-1.152c-.435 0-.764.108-.987.323-.222.216-.333.48-.333.794 0 .257.083.462.25.614.165.152.396.229.69.229z" fill="#000"/></g></svg>