<svg width="299" height="197" xmlns="http://www.w3.org/2000/svg"><g fill="none" fill-rule="evenodd"><path fill="#F1F1F2" d="M0 0h299v197H0z"/><path d="M1.987 1.98v193.04h295.026V1.98H1.987zM299 0v197H0V0h299z" fill="#C2C2C2" fill-rule="nonzero"/><path d="M4.58 54.993v-1.211h290.408v1.21H4.58zm0 40.195v-1.21h290.408v1.21H4.58zm0 40.158v-1.211h290.408v1.211H4.58zm0 20.079v-1.211h290.408v1.211H4.58zm0 20.079v-1.211h290.408v1.21H4.58zM39.06 34.308h1.21V192.59h-1.21V34.308zm36.75 0h1.21V192.59h-1.21V34.308zm36.75 0h1.211V192.59h-1.21V34.308zm36.713 0h1.211V192.59h-1.211V34.308zm36.75 0h1.212V192.59h-1.212V34.308zm36.75 0h1.212V192.59h-1.211V34.308zm36.751 0h1.212V192.59h-1.212V34.308zM4.58 115.268v-1.212h290.408v1.211H4.58z" fill="#DEDEDD" fill-rule="nonzero"/><path fill="#293052" fill-rule="nonzero" d="M4.58 75.072V73.86h1.816v1.21zM10.03 75.072V73.86h3.633v1.21H10.03zm7.267 0V73.86h3.633v1.21h-3.633zm7.266 0V73.86h3.634v1.21h-3.634zm7.267 0V73.86h3.634v1.21H31.83zm7.267 0V73.86h3.634v1.21h-3.634zm7.267 0V73.86h3.633v1.21h-3.633zm7.267 0V73.86h3.633v1.21h-3.633zm7.267 0V73.86h3.633v1.21h-3.633zm7.266 0V73.86h3.634v1.21h-3.634zm7.267 0V73.86h3.634v1.21H75.43zm7.267 0V73.86h3.634v1.21h-3.634zm7.267 0V73.86h3.633v1.21h-3.633zm7.267 0V73.86h3.633v1.21h-3.633zm7.267 0V73.86h3.633v1.21h-3.633zm7.266 0V73.86h3.634v1.21h-3.634zm7.267 0V73.86h3.634v1.21h-3.634zm7.267 0V73.86h3.634v1.21h-3.634zm7.267 0V73.86h3.633v1.21h-3.633zm7.267 0V73.86h3.633v1.21h-3.633zm7.267 0V73.86h3.633v1.21H148.1zm7.266 0V73.86H159v1.21h-3.634zm7.267 0V73.86h3.634v1.21h-3.634zm7.267 0V73.86h3.634v1.21H169.9zm7.267 0V73.86h3.633v1.21h-3.633zm7.267 0V73.86h3.633v1.21h-3.633zm7.267 0V73.86h3.633v1.21h-3.633zm7.266 0V73.86h3.634v1.21h-3.634zm7.267 0V73.86h3.634v1.21h-3.634zm7.267 0V73.86h3.634v1.21H213.5zm7.267 0V73.86h3.633v1.21h-3.633zm7.267 0V73.86h3.633v1.21h-3.633zm7.267 0V73.86h3.633v1.21h-3.633zm7.266 0V73.86h3.634v1.21h-3.634zm7.267 0V73.86h3.634v1.21h-3.634zm7.267 0V73.86h3.634v1.21h-3.634zm7.267 0V73.86h3.633v1.21h-3.633zm7.267 0V73.86h3.633v1.21h-3.633zm7.267 0V73.86h3.633v1.21h-3.633zm7.266 0V73.86h3.634v1.21h-3.634zM293.21 75.072V73.86h1.778v1.21z"/><path fill="#C2C2C2" fill-rule="nonzero" d="M2.498 34.307v-2.422h294.61v2.422z"/><path d="M76.186 81.92l-35.273 34.035a1.798 1.798 0 0 1-2.496-2.587l36.75-35.46a1.798 1.798 0 0 1 2.695.227l35.779 48.537 35.234-21.24a1.798 1.798 0 0 1 2.01.104l35.692 26.914 72.407-59.937a1.798 1.798 0 1 1 2.292 2.77l-73.5 60.842a1.798 1.798 0 0 1-2.23.051l-35.856-27.038-35.596 21.46a1.798 1.798 0 0 1-2.375-.473L76.186 81.92z" fill="#293052" fill-rule="nonzero"/><path d="M188.18 145.159h-35.047l-5.525-8.07-5.3 8.07h-35.046a4.733 4.733 0 0 0-4.731 4.735v24.512a4.733 4.733 0 0 0 4.73 4.735h80.92a4.729 4.729 0 0 0 3.419-1.346 4.738 4.738 0 0 0 1.425-3.39v-24.473a4.738 4.738 0 0 0-1.412-3.414 4.729 4.729 0 0 0-3.432-1.36z" fill="#E88024"/><ellipse cx="8.333" cy="9.062" rx="8.137" ry="8.373" opacity=".6" transform="translate(251.797 65.404)" fill="#FFF"/><path d="M260.13 84.05c-5.17 0-9.348-4.299-9.348-9.584 0-5.285 4.177-9.583 9.348-9.583 5.17 0 9.348 4.298 9.348 9.583s-4.177 9.584-9.348 9.584zm0-2.422c3.817 0 6.926-3.2 6.926-7.162 0-3.963-3.109-7.161-6.926-7.161s-6.926 3.198-6.926 7.161c0 3.963 3.109 7.162 6.926 7.162z" fill="#E88024" fill-rule="nonzero"/><ellipse cx="8.386" cy="8.585" rx="8.137" ry="8.373" opacity=".6" transform="translate(31.278 106.077)" fill="#FFF"/><path d="M39.665 124.245c-5.171 0-9.349-4.298-9.349-9.583 0-5.286 4.178-9.584 9.349-9.584 5.17 0 9.348 4.298 9.348 9.584 0 5.285-4.177 9.583-9.348 9.583zm0-2.422c3.817 0 6.926-3.199 6.926-7.161 0-3.963-3.109-7.162-6.926-7.162-3.818 0-6.926 3.199-6.926 7.162 0 3.962 3.108 7.161 6.926 7.161z" fill="#E88024" fill-rule="nonzero"/><path fill="#E88024" d="M247.564 44.575h25.094v16.518h-25.094z"/><path fill="#E88024" d="M257.745 61.12l2.382-2.383 2.382 2.384-2.382 2.384z"/><path d="M257.367 53.478l.606-5.645h5.147v1.25h-3.785l-.605 2.955c.22-.169.462-.31.719-.416.3-.052.607-.052.908 0a2.762 2.762 0 0 1 2.233.909 3.79 3.79 0 0 1 .795 2.538 3.79 3.79 0 0 1-.833 2.5 3.026 3.026 0 0 1-2.422.948 3.29 3.29 0 0 1-2.157-.72 2.464 2.464 0 0 1-.833-2.084h1.249c-.025.48.154.948.492 1.288.34.311.789.475 1.249.455a1.627 1.627 0 0 0 1.363-.606 2.692 2.692 0 0 0 .492-1.705 2.54 2.54 0 0 0-.492-1.629 1.627 1.627 0 0 0-1.363-.644 2.193 2.193 0 0 0-1.173.265 1.402 1.402 0 0 0-.53.758l-1.06-.417z" fill="#FFF"/><path fill="#D5D3DA" d="M137.35 76.474h25.094v16.518h-25.093z"/><path fill="#D5D3DA" d="M147.505 93l2.382-2.385L152.268 93l-2.381 2.385z"/><path d="M153.323 89.923h-6.662v-.871l3.369-3.789a9.43 9.43 0 0 0 1.362-1.553 2.503 2.503 0 0 0 0-1.364c.01-.47-.15-.928-.454-1.288a1.475 1.475 0 0 0-1.173-.53 2.043 2.043 0 0 0-1.552.53 2.16 2.16 0 0 0-.492 1.515h-1.211a2.919 2.919 0 0 1 .87-2.235 3.48 3.48 0 0 1 2.536-.909 2.988 2.988 0 0 1 2.196.796c.549.536.85 1.277.832 2.045a3.298 3.298 0 0 1-.492 1.667c-.4.655-.87 1.264-1.4 1.819l-2.687 2.917h4.958v1.25z" fill="#293052"/><path fill="#D5D3DA" d="M27.1 84.43h25.093v16.517H27.099z"/><path fill="#D5D3DA" d="M37.28 100.966l2.381-2.384 2.382 2.384-2.382 2.384z"/><path fill="#293052" d="M40.422 97.955h-1.4v-8.903h-2.12v-.985l3.482-.38v10.268z"/><g fill-rule="nonzero"><path d="M15 21.175v-10.17h3.549c1.243 0 2.268.396 3.074 1.19.805.794 1.208 1.813 1.208 3.057v1.683c0 1.248-.403 2.267-1.208 3.056-.806.79-1.83 1.184-3.074 1.184H15zm2.04-8.599v7.035h1.509c.67 0 1.21-.25 1.62-.751.41-.5.615-1.142.615-1.925v-1.696c0-.778-.205-1.416-.614-1.914-.41-.499-.95-.748-1.621-.748H17.04v-.001zm9.459 8.6h-2.04v-7.559h2.04v7.559zm-.608-10.64h2.27l.014.042-1.935 1.817H24.5l1.39-1.859h.001zm2.047 6.923c0-1.192.258-2.154.775-2.885.517-.731 1.243-1.097 2.18-1.097.423 0 .796.096 1.117.287.322.19.596.463.825.817l.16-.964h1.754v7.524c0 .982-.322 1.742-.964 2.28-.643.538-1.54.807-2.69.807-.382 0-.787-.052-1.215-.157a5.645 5.645 0 0 1-1.188-.43l.342-1.522c.312.149.635.261.968.338.333.077.693.116 1.08.116.558 0 .969-.117 1.232-.35.263-.233.395-.596.395-1.09v-.684c-.224.284-.487.5-.79.65-.302.149-.65.223-1.04.223-.927 0-1.649-.34-2.166-1.02-.517-.68-.775-1.578-.775-2.696v-.147zm2.04.147c0 .661.11 1.182.331 1.561.221.38.584.57 1.087.57.312 0 .576-.058.792-.172.217-.114.39-.28.52-.5V15.79c-.121-.223-.3-.41-.52-.538a1.525 1.525 0 0 0-.779-.189c-.498 0-.861.221-1.09.664-.227.442-.342 1.02-.342 1.732v.147h.001zm8.48 3.57h-2.04v-7.559h2.04v7.559zm0-9.368h-2.04v-1.53h2.04v1.53zm4.122-.042v1.851h1.278v1.432H42.58v3.85c0 .293.061.502.185.628a.65.65 0 0 0 .485.188c.107 0 .2-.005.28-.017.079-.012.17-.031.272-.06l.168 1.475a3.56 3.56 0 0 1-1.23.21c-.703 0-1.244-.194-1.624-.58-.38-.387-.57-1-.57-1.838v-3.856h-1.103v-1.432h1.104v-1.851h2.033zm2.22 5.56c0-1.127.315-2.05.944-2.77.629-.719 1.5-1.079 2.613-1.079 1.117 0 1.993.359 2.626 1.076.634.717.95 1.642.95 2.773v.147c0 1.136-.315 2.062-.946 2.777-.631.715-1.503 1.072-2.616 1.072-1.118 0-1.992-.357-2.623-1.072-.632-.715-.947-1.64-.947-2.777v-.147H44.8zm2.034.147c0 .69.12 1.242.363 1.66.242.416.633.624 1.174.624.526 0 .911-.21 1.156-.628.244-.42.366-.971.366-1.656v-.147c0-.67-.123-1.217-.37-1.641-.247-.424-.635-.636-1.166-.636-.527 0-.912.213-1.156.64-.245.425-.367.971-.367 1.637v.147z" fill="#020202"/><path d="M57.907 20.788H56v-9.51h1.907v9.51zm3.514-7.067l.078.934c.227-.34.51-.602.853-.787.365-.19.773-.286 1.185-.277.453 0 .84.1 1.163.3.322.2.566.503.731.908.218-.379.501-.675.85-.888.348-.214.757-.32 1.227-.32.697 0 1.247.247 1.65.74.402.495.604 1.25.604 2.264v4.193h-1.908v-4.2c0-.566-.087-.96-.26-1.182-.175-.222-.434-.333-.778-.333-.27 0-.504.06-.702.18-.198.12-.356.286-.474.5 0 .082.002.153.007.212.004.059.006.118.006.18v4.643h-1.9v-4.2c0-.552-.087-.943-.262-1.172-.174-.228-.435-.343-.783-.343a1.48 1.48 0 0 0-.676.147 1.296 1.296 0 0 0-.48.415v5.153H59.65v-7.067h1.771zm16.178 3.73c0 1.045-.241 1.885-.725 2.52-.483.637-1.158.954-2.024.954-.37 0-.7-.068-.987-.205a2.026 2.026 0 0 1-.738-.604v3.39h-1.9v-9.785h1.718l.11.836a2.28 2.28 0 0 1 .755-.715 2.04 2.04 0 0 1 1.029-.251c.875 0 1.554.341 2.037 1.025.484.684.725 1.583.725 2.698v.137zm-1.907-.137c0-.667-.11-1.207-.333-1.62-.222-.414-.562-.62-1.019-.62a1.44 1.44 0 0 0-.735.176c-.204.12-.37.294-.48.503v3.095c.118.2.278.353.48.458.203.104.452.156.748.156.462 0 .8-.18 1.016-.542.216-.361.323-.851.323-1.47v-.136zm7.25 3.474a3.825 3.825 0 0 1-.287-1.058c-.196.344-.455.63-.777.856-.323.226-.706.34-1.15.34-.74 0-1.31-.191-1.711-.572-.4-.381-.601-.9-.601-1.558 0-.692.267-1.229.8-1.61.533-.38 1.312-.571 2.335-.571h1.071v-.562c0-.34-.09-.603-.268-.79-.178-.188-.444-.281-.796-.281-.31 0-.548.075-.716.225-.167.15-.251.356-.251.617h-1.835l-.014-.039c-.03-.596.23-1.111.781-1.545.55-.433 1.27-.65 2.159-.65.849 0 1.536.214 2.06.64.525.427.787 1.04.787 1.836v2.92c0 .33.025.642.076.934.05.291.13.58.238.868H82.942zm-1.744-1.273c.331 0 .627-.083.889-.249.26-.165.44-.357.535-.574v-1h-1.071c-.405 0-.71.1-.918.3a.987.987 0 0 0-.31.739c0 .24.077.43.232.571.155.142.369.213.643.213zm8.478-4.154l-.699-.02c-.283 0-.516.059-.699.176-.185.12-.33.294-.418.497v4.774h-1.9v-7.067h1.77l.085 1.045c.165-.37.38-.658.643-.865.264-.207.567-.31.911-.31.096 0 .184.007.265.022.08.016.162.034.245.056l-.203 1.692z" fill="#000"/></g><g fill="#2A3052" fill-rule="nonzero"><path d="M259.886 99.024l.102 1.056a2.302 2.302 0 0 1 2.043-1.158c.75 0 1.329.204 1.738.681.408.443.613 1.124.613 2.044v4.428h-1.26v-4.394c0-.613-.137-1.056-.375-1.328-.239-.273-.613-.375-1.09-.375-.375 0-.681.102-.954.272-.272.17-.51.41-.681.716v5.109h-1.26v-7.017l1.124-.034zm10.525 6.479c-.034-.17-.034-.305-.034-.475-.237.34-.543.61-.916.848a2.21 2.21 0 0 1-1.221.34c-.713 0-1.255-.17-1.629-.577a2.07 2.07 0 0 1-.576-1.527c0-.678.271-1.187.814-1.56.543-.374 1.255-.577 2.171-.577h1.357v-.679c0-.407-.136-.746-.373-.983-.238-.238-.61-.374-1.052-.374-.407 0-.746.102-.984.306-.237.203-.373.475-.373.746h-1.187v-.034c-.034-.509.203-.984.712-1.39.51-.408 1.154-.645 1.934-.645s1.425.203 1.9.61c.475.407.712.984.712 1.73v3.36a5 5 0 0 0 .034.712c.034.237.068.475.136.678h-1.323v.068a19.302 19.302 0 0 0-.102-.577zm-2.053-.407c.44 0 .882-.102 1.22-.34.374-.237.611-.508.713-.813v-1.12h-1.39c-.51 0-.917.136-1.222.373-.283.22-.446.558-.441.916 0 .306.102.543.271.747.204.135.475.237.849.237zm-14.198-8.369v.957h-4.587v3.248h3.907v.984h-3.907v4.159h-1.348v-9.348h5.935zm1.346 2.399h1.246v6.858h-1.246v-6.858zm.016-3.115v1.237h1.27v-1.236l-1.27-.001zm18.083-.045h1.262v9.973h-1.262v-9.973z"/></g><g fill="#2A3052" fill-rule="nonzero"><path d="M28.542 137.455l.115 1.187a2.589 2.589 0 0 1 2.298-1.302c.843 0 1.494.23 1.954.766.46.498.689 1.264.689 2.298v4.978h-1.417v-4.94c0-.69-.153-1.187-.421-1.494-.268-.306-.69-.42-1.226-.42a1.96 1.96 0 0 0-1.072.305c-.307.192-.575.46-.766.805v5.744h-1.417v-7.889l1.264-.038h-.001zm-4.955-2.744h1.351v10.671h-1.35l-.001-10.671zm23.461 2.743h1.38v7.592h-1.38v-7.592zm.019-3.448v1.37h1.405v-1.37h-1.405zm-11.332 3.448h1.38v7.592h-1.38v-7.592zm.019-3.448v1.37h1.405v-1.37h-1.405zm8.261 6.159c.774-.028 1.165 0 1.328 0 0-.864-.569-2.855-3.175-2.777-2.606.078-3.301 2.925-3.186 4.523.116 1.598 1.16 3.554 3.484 3.485 2.323-.069 2.877-1.945 2.877-2.596-.417-.003-.86-.003-1.328 0 0 .639-.444 1.423-1.55 1.497-1.104.074-1.935-.786-2.041-2.386-.106-1.6.33-3.435 1.775-3.435 1.446 0 1.816 1.08 1.816 1.69v-.001zm9.667-2.779c1.347 0 3.336.596 3.536 3.666.2 3.07-1.71 4.33-3.415 4.33s-3.465-1.19-3.465-4.16c0-2.969 1.997-3.836 3.344-3.836zm.108 1.112c-1.358 0-2.049 1.155-2.049 2.752 0 1.597.483 3.066 2.05 3.066 1.566 0 2.153-1.476 2.028-3.183-.124-1.708-.67-2.635-2.029-2.635z"/></g><g fill="#FFF" fill-rule="nonzero"><path d="M175.777 163.649h-2.524v-8.348h2.524v8.348zm0 4.392h-2.524v-2.243h2.524v2.243zM151.792 158.063h2.096l.106 1.527c.858-1.281 1.972-1.85 3.342-1.709.792.082 2.465.342 2.963 2.594.183.825.144 2.22.13 4.115-.005.736-.005 2.01 0 3.823h-2.3v-6.484c0-.762-.214-1.613-.853-1.935-.879-.443-2.533-.258-3.197.859v7.56h-2.288v-10.35h.001zm-17.711 4.796v-1.715h5.187c.059 2.989.059 4.732 0 5.228-.437 1.308-5.618 3.687-8.963.67-.997-.9-1.466-1.896-1.722-3.404-.012-1.54-.04-2.986-.029-4.353.254-1.675.815-2.627 1.267-3.167 1.644-1.966 4.265-2.39 6.57-1.593 2.304.797 2.603 2.452 2.79 4.07-.534 0-.816-.023-2.257 0 .146-.91-.683-2.671-2.845-2.574-2.162.097-3.182 1.873-3.182 3.353 0 1.48-.078.983 0 3.924.098 3.377 4.146 4.283 6.027 2.48l.069-2.876-2.912-.043zm-10.193-.769h2.15v9.52h-2.15v-9.52zm.042-4.207v1.821h2.139v-1.82l-2.139-.001zm41.138 2.788a155.15 155.15 0 0 0-2.158 0c0-1.083.775-3.046 3.873-3.046 3.099 0 3.842 2.13 3.926 2.587.084.458-.216 6.885.433 7.615l-2.302.002c-.19-.65-.285-1.13-.285-1.442-.36.438-.977 1.24-1.926 1.534-.95.294-3.105.452-3.988-1.617-.582-1.363-.21-2.897.883-3.6 1.807-1.16 4.29-.772 5.03-.772.096-2.07-.522-2.552-1.925-2.552-.936 0-1.456.43-1.561 1.29v.001zm3.486 2.677a37.349 37.349 0 0 0-2.273.018c-.904.08-1.708.748-1.64 1.7.082 1.134 1.372 1.343 2.382 1.016.848-.275 1.439-.984 1.53-1.286v-1.448h.001zm-24.544-2.677c-.686-.005-1.405-.005-2.157 0 0-1.083.774-3.046 3.873-3.046 3.098 0 3.842 2.13 3.926 2.587.084.458-.216 6.885.432 7.615l-2.302.002c-.19-.65-.285-1.13-.285-1.442-.36.438-.977 1.24-1.926 1.534-.949.294-3.104.452-3.987-1.617-.582-1.363-.211-2.897.883-3.6 1.806-1.16 4.29-.772 5.03-.772.096-2.07-.523-2.552-1.926-2.552-.935 0-1.456.43-1.561 1.29v.001zm3.486 2.677a37.349 37.349 0 0 0-2.273.018c-.903.08-1.708.748-1.64 1.7.082 1.134 1.373 1.343 2.383 1.016.847-.275 1.438-.984 1.53-1.286v-1.448z"/></g></g></svg>