<?xml version="1.0" encoding="UTF-8"?>
<svg width="299px" height="197px" viewBox="0 0 299 197" version="1.1" xmlns="http://www.w3.org/2000/svg" xmlns:xlink="http://www.w3.org/1999/xlink">
    <!-- Generator: Sketch 53.1 (72631) - https://sketchapp.com -->
    <title>Odd</title>
    <desc>Created with Sketch.</desc>
    <g id="Page-1" stroke="none" stroke-width="1" fill="none" fill-rule="evenodd">
        <g id="Odd" fill-rule="nonzero">
            <polygon id="Path" fill="#F1F1F2" points="0 0 299 0 299 197 0 197"></polygon>
            <path d="M1.98671096,1.9798995 L1.98671096,195.020101 L297.013289,195.020101 L297.013289,1.9798995 L1.98671096,1.9798995 Z M299,0 L299,197 L0,197 L0,0 L299,0 Z" id="Path" fill="#C2C2C2"></path>
            <path d="M4.57962025,54.9928773 L4.57962025,53.7817381 L294.988101,53.7817381 L294.988101,54.9928773 L4.57962025,54.9928773 Z M4.57962025,95.1884542 L4.57962025,93.977315 L294.988101,93.977315 L294.988101,95.1884542 L4.57962025,95.1884542 Z M4.57962025,135.346147 L4.57962025,134.135007 L294.988101,134.135007 L294.988101,135.346147 L4.57962025,135.346147 Z M4.57962025,155.424993 L4.57962025,154.213853 L294.988101,154.213853 L294.988101,155.424993 L4.57962025,155.424993 Z M4.57962025,175.503839 L4.57962025,174.292699 L294.988101,174.292699 L294.988101,175.503839 L4.57962025,175.503839 Z M39.0592405,34.3084615 L40.2703797,34.3084615 L40.2703797,192.590385 L39.0592405,192.590385 L39.0592405,34.3084615 Z M75.8097469,34.3084615 L77.0208861,34.3084615 L77.0208861,192.590385 L75.8097469,192.590385 L75.8097469,34.3084615 Z M112.560253,34.3084615 L113.771393,34.3084615 L113.771393,192.590385 L112.560253,192.590385 L112.560253,34.3084615 Z M149.272911,34.3084615 L150.484051,34.3084615 L150.484051,192.590385 L149.272911,192.590385 L149.272911,34.3084615 Z M186.023417,34.3084615 L187.234557,34.3084615 L187.234557,192.590385 L186.023417,192.590385 L186.023417,34.3084615 Z M222.773924,34.3084615 L223.985064,34.3084615 L223.985064,192.590385 L222.773924,192.590385 L222.773924,34.3084615 Z M259.52443,34.3084615 L260.73557,34.3084615 L260.73557,192.590385 L259.52443,192.590385 L259.52443,34.3084615 Z M4.57962025,115.2673 L4.57962025,114.056161 L294.988101,114.056161 L294.988101,115.2673 L4.57962025,115.2673 Z" id="Shape" fill="#DEDEDD"></path>
            <polygon id="Path" fill="#293052" points="4.57962025 75.0717234 4.57962025 73.8605842 6.39632911 73.8605842 6.39632911 75.0717234"></polygon>
            <path d="M10.0297468,75.0717234 L10.0297468,73.8605842 L13.6631644,73.8605842 L13.6631644,75.0717234 L10.0297468,75.0717234 Z M17.2965821,75.0717234 L17.2965821,73.8605842 L20.9299997,73.8605842 L20.9299997,75.0717234 L17.2965821,75.0717234 Z M24.5634173,75.0717234 L24.5634173,73.8605842 L28.1968349,73.8605842 L28.1968349,75.0717234 L24.5634173,75.0717234 Z M31.8302525,75.0717234 L31.8302525,73.8605842 L35.4636701,73.8605842 L35.4636701,75.0717234 L31.8302525,75.0717234 Z M39.0970877,75.0717234 L39.0970877,73.8605842 L42.7305053,73.8605842 L42.7305053,75.0717234 L39.0970877,75.0717234 Z M46.3639229,75.0717234 L46.3639229,73.8605842 L49.9973405,73.8605842 L49.9973405,75.0717234 L46.3639229,75.0717234 Z M53.6307581,75.0717234 L53.6307581,73.8605842 L57.2641757,73.8605842 L57.2641757,75.0717234 L53.6307581,75.0717234 Z M60.8975933,75.0717234 L60.8975933,73.8605842 L64.5310109,73.8605842 L64.5310109,75.0717234 L60.8975933,75.0717234 Z M68.1644285,75.0717234 L68.1644285,73.8605842 L71.7978461,73.8605842 L71.7978461,75.0717234 L68.1644285,75.0717234 Z M75.4312638,75.0717234 L75.4312638,73.8605842 L79.0646814,73.8605842 L79.0646814,75.0717234 L75.4312638,75.0717234 Z M82.698099,75.0717234 L82.698099,73.8605842 L86.3315166,73.8605842 L86.3315166,75.0717234 L82.698099,75.0717234 Z M89.9649342,75.0717234 L89.9649342,73.8605842 L93.5983518,73.8605842 L93.5983518,75.0717234 L89.9649342,75.0717234 Z M97.2317694,75.0717234 L97.2317694,73.8605842 L100.865187,73.8605842 L100.865187,75.0717234 L97.2317694,75.0717234 Z M104.498605,75.0717234 L104.498605,73.8605842 L108.132022,73.8605842 L108.132022,75.0717234 L104.498605,75.0717234 Z M111.76544,75.0717234 L111.76544,73.8605842 L115.398857,73.8605842 L115.398857,75.0717234 L111.76544,75.0717234 Z M119.032275,75.0717234 L119.032275,73.8605842 L122.665693,73.8605842 L122.665693,75.0717234 L119.032275,75.0717234 Z M126.29911,75.0717234 L126.29911,73.8605842 L129.932528,73.8605842 L129.932528,75.0717234 L126.29911,75.0717234 Z M133.565945,75.0717234 L133.565945,73.8605842 L137.199363,73.8605842 L137.199363,75.0717234 L133.565945,75.0717234 Z M140.832781,75.0717234 L140.832781,73.8605842 L144.466198,73.8605842 L144.466198,75.0717234 L140.832781,75.0717234 Z M148.099616,75.0717234 L148.099616,73.8605842 L151.733033,73.8605842 L151.733033,75.0717234 L148.099616,75.0717234 Z M155.366451,75.0717234 L155.366451,73.8605842 L158.999869,73.8605842 L158.999869,75.0717234 L155.366451,75.0717234 Z M162.633286,75.0717234 L162.633286,73.8605842 L166.266704,73.8605842 L166.266704,75.0717234 L162.633286,75.0717234 Z M169.900122,75.0717234 L169.900122,73.8605842 L173.533539,73.8605842 L173.533539,75.0717234 L169.900122,75.0717234 Z M177.166957,75.0717234 L177.166957,73.8605842 L180.800374,73.8605842 L180.800374,75.0717234 L177.166957,75.0717234 Z M184.433792,75.0717234 L184.433792,73.8605842 L188.06721,73.8605842 L188.06721,75.0717234 L184.433792,75.0717234 Z M191.700627,75.0717234 L191.700627,73.8605842 L195.334045,73.8605842 L195.334045,75.0717234 L191.700627,75.0717234 Z M198.967462,75.0717234 L198.967462,73.8605842 L202.60088,73.8605842 L202.60088,75.0717234 L198.967462,75.0717234 Z M206.234298,75.0717234 L206.234298,73.8605842 L209.867715,73.8605842 L209.867715,75.0717234 L206.234298,75.0717234 Z M213.501133,75.0717234 L213.501133,73.8605842 L217.13455,73.8605842 L217.13455,75.0717234 L213.501133,75.0717234 Z M220.767968,75.0717234 L220.767968,73.8605842 L224.401386,73.8605842 L224.401386,75.0717234 L220.767968,75.0717234 Z M228.034803,75.0717234 L228.034803,73.8605842 L231.668221,73.8605842 L231.668221,75.0717234 L228.034803,75.0717234 Z M235.301638,75.0717234 L235.301638,73.8605842 L238.935056,73.8605842 L238.935056,75.0717234 L235.301638,75.0717234 Z M242.568474,75.0717234 L242.568474,73.8605842 L246.201891,73.8605842 L246.201891,75.0717234 L242.568474,75.0717234 Z M249.835309,75.0717234 L249.835309,73.8605842 L253.468726,73.8605842 L253.468726,75.0717234 L249.835309,75.0717234 Z M257.102144,75.0717234 L257.102144,73.8605842 L260.735562,73.8605842 L260.735562,75.0717234 L257.102144,75.0717234 Z M264.368979,75.0717234 L264.368979,73.8605842 L268.002397,73.8605842 L268.002397,75.0717234 L264.368979,75.0717234 Z M271.635814,75.0717234 L271.635814,73.8605842 L275.269232,73.8605842 L275.269232,75.0717234 L271.635814,75.0717234 Z M278.90265,75.0717234 L278.90265,73.8605842 L282.536067,73.8605842 L282.536067,75.0717234 L278.90265,75.0717234 Z M286.169485,75.0717234 L286.169485,73.8605842 L289.802903,73.8605842 L289.802903,75.0717234 L286.169485,75.0717234 Z" id="Path" fill="#293052"></path>
            <polygon id="Path" fill="#293052" points="293.209241 75.0717234 293.209241 73.8605842 294.988101 73.8605842 294.988101 75.0717234"></polygon>
            <polygon id="Path" fill="#C2C2C2" points="2 30 2 28 297 28 297 30"></polygon>
            <path d="M76.1862917,81.9209243 L40.913118,115.955469 C40.1986062,116.64489 39.0604936,116.62455 38.3710722,115.910039 C37.6816508,115.195527 37.7019905,114.057414 38.4165022,113.367993 L75.1670086,77.9079929 C75.9493243,77.1531485 77.2173979,77.2599523 77.8624341,78.1350158 L113.640793,126.672343 L148.874604,105.431508 C149.503231,105.052537 150.299115,105.093795 150.885188,105.535733 L186.57703,132.449773 L258.983631,72.5130134 C259.748474,71.8798913 260.881749,71.9866723 261.514871,72.7515155 C262.147993,73.5163587 262.041212,74.6496336 261.276369,75.2827558 L187.775356,136.125448 C187.133819,136.6565 186.211537,136.677417 185.546584,136.175998 L149.690456,109.138075 L114.094004,130.59753 C113.298898,131.076863 112.26958,130.871922 111.718705,130.1246 L76.1862917,81.9209243 Z" id="Path" fill="#293052"></path>
            <path d="M188.650253,147.069423 L153.602912,147.069423 L148.077089,139 L142.778355,147.069423 L107.731013,147.069423 C105.118147,147.069423 103,149.189613 103,151.805 L103,176.316346 C103,178.931733 105.118147,181.051923 107.731013,181.051923 L188.650253,181.051923 C189.924552,181.082545 191.157281,180.59717 192.069229,179.705737 C192.981177,178.814303 193.495178,177.592241 193.49481,176.316346 L193.49481,151.842885 C193.505431,150.560431 192.995941,149.328506 192.082847,148.428812 C191.169753,147.529117 189.931145,147.038599 188.650253,147.069423 Z" id="Path" fill="#E88024"></path>
            <g id="Group" opacity="0.6" transform="translate(251.797468, 65.403846)" fill="#FFFFFF">
                <ellipse id="Oval" cx="8.3325316" cy="9.0623077" rx="8.13734177" ry="8.3725"></ellipse>
            </g>
            <path d="M260.13,84.049793 C254.959133,84.049793 250.781519,79.7514515 250.781519,74.4661538 C250.781519,69.1808561 254.959133,64.8825146 260.13,64.8825146 C265.300867,64.8825146 269.478481,69.1808561 269.478481,74.4661538 C269.478481,79.7514515 265.300867,84.049793 260.13,84.049793 Z M260.13,81.6275146 C263.947393,81.6275146 267.056203,78.4288642 267.056203,74.4661538 C267.056203,70.5034434 263.947393,67.304793 260.13,67.304793 C256.312607,67.304793 253.203797,70.5034434 253.203797,74.4661538 C253.203797,78.4288642 256.312607,81.6275146 260.13,81.6275146 Z" id="Oval" fill="#E88024"></path>
            <g id="Group" opacity="0.6" transform="translate(31.278481, 106.076923)" fill="#FFFFFF">
                <ellipse id="Oval" cx="8.38632911" cy="8.58480769" rx="8.13734177" ry="8.3725"></ellipse>
            </g>
            <path d="M39.6648101,124.24537 C34.4939432,124.24537 30.3163291,119.947028 30.3163291,114.661731 C30.3163291,109.376433 34.4939432,105.078092 39.6648101,105.078092 C44.835677,105.078092 49.0132911,109.376433 49.0132911,114.661731 C49.0132911,119.947028 44.835677,124.24537 39.6648101,124.24537 Z M39.6648101,121.823092 C43.4822027,121.823092 46.5910126,118.624441 46.5910126,114.661731 C46.5910126,110.69902 43.4822027,107.50037 39.6648101,107.50037 C35.8474175,107.50037 32.7386076,110.69902 32.7386076,114.661731 C32.7386076,118.624441 35.8474175,121.823092 39.6648101,121.823092 Z" id="Oval" fill="#E88024"></path>
            <polygon id="Path" fill="#E88024" points="247.56443 44.5751923 272.657722 44.5751923 272.657722 61.0928846 247.56443 61.0928846"></polygon>
            <polygon id="Path" fill="#E88024" transform="translate(260.127323, 61.120783) rotate(-45.000000) translate(-260.127323, -61.120783) " points="258.443083 59.4365422 261.813189 59.4349173 261.811564 62.8050232 258.441458 62.8066481"></polygon>
            <path d="M257.367089,53.4780769 L257.972658,47.8332692 L263.12,47.8332692 L263.12,49.0834615 L259.33519,49.0834615 L258.72962,52.0384615 C258.95032,51.8690188 259.19204,51.7289404 259.448734,51.6217308 C259.749325,51.5701354 260.056498,51.5701354 260.357089,51.6217308 C261.201243,51.5666407 262.024091,51.9016814 262.590127,52.5309615 C263.152859,53.2530777 263.435214,54.1547919 263.384937,55.0692308 C263.415306,55.9755835 263.119861,56.8627724 262.552278,57.5696154 C261.928305,58.2339888 261.038654,58.5818442 260.13,58.5167308 C259.348306,58.5408491 258.583556,58.2856865 257.972658,57.7969231 C257.376681,57.2766883 257.066867,56.5014063 257.14,55.7132692 L258.388987,55.7132692 C258.364447,56.1928278 258.543094,56.6605084 258.881013,57.0013462 C259.220907,57.3122361 259.669994,57.4756978 260.13,57.4559615 C260.655372,57.4862946 261.162972,57.2604769 261.492532,56.8498077 C261.844479,56.3536105 262.017931,55.7526194 261.984557,55.145 C262.012718,54.5614916 261.838936,53.9861199 261.492532,53.5159615 C261.170972,53.0910809 260.66209,52.8505438 260.13,52.8719231 C259.721864,52.8492524 259.315511,52.9410981 258.956709,53.1371154 C258.699531,53.3224002 258.512734,53.5895117 258.426835,53.8948077 L257.367089,53.4780769 Z" id="Path" fill="#FFFFFF"></path>
            <polygon id="Path" fill="#D5D3DA" points="137.350759 76.4740385 162.444051 76.4740385 162.444051 92.9917308 137.350759 92.9917308"></polygon>
            <polygon id="Path" fill="#D5D3DA" transform="translate(149.886510, 92.999499) rotate(-45.000000) translate(-149.886510, -92.999499) " points="148.202269 91.3152581 151.572375 91.3136332 151.57075 94.6837391 148.200644 94.685364"></polygon>
            <path d="M153.322658,89.9230769 L146.661392,89.9230769 L146.661392,89.0517308 L150.029873,85.2632692 C150.539522,84.7970349 150.996442,84.2761522 151.392405,83.71 C151.518665,83.264168 151.518665,82.7919858 151.392405,82.3461538 C151.402746,81.8757634 151.241254,81.4177604 150.938228,81.0580769 C150.648817,80.7108858 150.21651,80.5154624 149.764937,80.5276923 C149.196394,80.4799342 148.633789,80.6722286 148.213165,81.0580769 C147.862162,81.4819531 147.68616,82.02402 147.721139,82.5734615 L146.51,82.5734615 C146.466505,81.7379156 146.783528,80.9238979 147.380506,80.3382692 C148.069699,79.7069567 148.983426,79.3793359 149.916329,79.4290385 C150.725532,79.3855084 151.517731,79.6726156 152.111519,80.2246154 C152.660918,80.7611607 152.96257,81.5022933 152.944177,82.2703846 C152.93213,82.8600837 152.762213,83.435743 152.452152,83.9373077 C152.051494,84.5917238 151.582028,85.2013478 151.051772,85.7557692 L148.364557,88.6728846 L153.322658,88.6728846 L153.322658,89.9230769 Z" id="Path" fill="#293052"></path>
            <polygon id="Path" fill="#D5D3DA" points="27.0992405 84.4298077 52.1925316 84.4298077 52.1925316 100.9475 27.0992405 100.9475"></polygon>
            <polygon id="Path" fill="#D5D3DA" transform="translate(39.661484, 100.966252) rotate(-45.000000) translate(-39.661484, -100.966252) " points="37.9772434 99.282011 41.3473493 99.2803861 41.3457244 102.650492 37.9756185 102.652117"></polygon>
            <polygon id="Path" fill="#293052" points="40.4217722 97.9546154 39.0213924 97.9546154 39.0213924 89.0517308 36.9018987 89.0517308 36.9018987 88.0667308 40.3839241 87.6878846 40.3839241 97.9546154"></polygon>
            <path d="M253.778809,103.101074 L249.303711,103.101074 L249.303711,107.810547 L247.897461,107.810547 L247.897461,97.1464844 L254.503906,97.1464844 L254.503906,98.3037109 L249.303711,98.3037109 L249.303711,101.951172 L253.778809,101.951172 L253.778809,103.101074 Z M257.448242,107.810547 L256.093262,107.810547 L256.093262,99.8857422 L257.448242,99.8857422 L257.448242,107.810547 Z M255.983398,97.7836914 C255.983398,97.5639637 256.050536,97.3784187 256.184814,97.2270508 C256.319092,97.0756828 256.518065,97 256.781738,97 C257.045411,97 257.245605,97.0756828 257.382324,97.2270508 C257.519044,97.3784187 257.587402,97.5639637 257.587402,97.7836914 C257.587402,98.0034191 257.519044,98.1865227 257.382324,98.3330078 C257.245605,98.4794929 257.045411,98.5527344 256.781738,98.5527344 C256.518065,98.5527344 256.319092,98.4794929 256.184814,98.3330078 C256.050536,98.1865227 255.983398,98.0034191 255.983398,97.7836914 Z M260.897949,99.8857422 L260.941895,100.881836 C261.547366,100.120113 262.338374,99.7392578 263.314941,99.7392578 C264.989754,99.7392578 265.834473,100.684073 265.849121,102.57373 L265.849121,107.810547 L264.494141,107.810547 L264.494141,102.566406 C264.489258,101.995114 264.358644,101.572755 264.102295,101.299316 C263.845946,101.025878 263.44678,100.88916 262.904785,100.88916 C262.46533,100.88916 262.079592,101.006346 261.747559,101.240723 C261.415526,101.475099 261.156739,101.782713 260.971191,102.163574 L260.971191,107.810547 L259.616211,107.810547 L259.616211,99.8857422 L260.897949,99.8857422 Z M272.785156,107.810547 C272.707031,107.654296 272.643555,107.375979 272.594727,106.975586 C271.964841,107.629886 271.212895,107.957031 270.338867,107.957031 C269.557613,107.957031 268.916751,107.736086 268.41626,107.294189 C267.915769,106.852293 267.665527,106.291996 267.665527,105.613281 C267.665527,104.788082 267.979245,104.147219 268.606689,103.690674 C269.234134,103.234129 270.116694,103.005859 271.254395,103.005859 L272.572754,103.005859 L272.572754,102.383301 C272.572754,101.909666 272.431154,101.532472 272.147949,101.251709 C271.864745,100.970946 271.447268,100.830566 270.895508,100.830566 C270.412107,100.830566 270.006838,100.952635 269.679688,101.196777 C269.352537,101.440919 269.188965,101.736326 269.188965,102.083008 L267.82666,102.083008 C267.82666,101.687498 267.96704,101.305422 268.247803,100.936768 C268.528566,100.568113 268.909421,100.276368 269.390381,100.061523 C269.87134,99.8466786 270.399899,99.7392578 270.976074,99.7392578 C271.889165,99.7392578 272.60449,99.967527 273.12207,100.424072 C273.639651,100.880618 273.908203,101.509273 273.927734,102.310059 L273.927734,105.95752 C273.927734,106.685062 274.020507,107.26367 274.206055,107.693359 L274.206055,107.810547 L272.785156,107.810547 Z M270.536621,106.777832 C270.961428,106.777832 271.364256,106.66797 271.745117,106.448242 C272.125978,106.228515 272.401855,105.942873 272.572754,105.591309 L272.572754,103.965332 L271.510742,103.965332 C269.850578,103.965332 269.020508,104.451167 269.020508,105.422852 C269.020508,105.847658 269.162108,106.179686 269.445312,106.418945 C269.728517,106.658204 270.092283,106.777832 270.536621,106.777832 Z M277.523926,107.810547 L276.168945,107.810547 L276.168945,96.5605469 L277.523926,96.5605469 L277.523926,107.810547 Z" id="Final" fill="#2A3052"></path>
            <path d="M24.40625,142.810547 L23,142.810547 L23,132.146484 L24.40625,132.146484 L24.40625,142.810547 Z M28.0463867,134.885742 L28.090332,135.881836 C28.6958038,135.120113 29.4868115,134.739258 30.4633789,134.739258 C32.138192,134.739258 32.9829101,135.684073 32.9975586,137.57373 L32.9975586,142.810547 L31.6425781,142.810547 L31.6425781,137.566406 C31.6376953,136.995114 31.5070814,136.572755 31.2507324,136.299316 C30.9943835,136.025878 30.5952176,135.88916 30.0532227,135.88916 C29.6137673,135.88916 29.228029,136.006346 28.8959961,136.240723 C28.5639632,136.475099 28.3051767,136.782713 28.1196289,137.163574 L28.1196289,142.810547 L26.7646484,142.810547 L26.7646484,134.885742 L28.0463867,134.885742 Z M36.5131836,142.810547 L35.1582031,142.810547 L35.1582031,134.885742 L36.5131836,134.885742 L36.5131836,142.810547 Z M35.0483398,132.783691 C35.0483398,132.563964 35.1154778,132.378419 35.2497559,132.227051 C35.3840339,132.075683 35.5830065,132 35.8466797,132 C36.1103529,132 36.3105462,132.075683 36.4472656,132.227051 C36.5839851,132.378419 36.6523438,132.563964 36.6523438,132.783691 C36.6523438,133.003419 36.5839851,133.186523 36.4472656,133.333008 C36.3105462,133.479493 36.1103529,133.552734 35.8466797,133.552734 C35.5830065,133.552734 35.3840339,133.479493 35.2497559,133.333008 C35.1154778,133.186523 35.0483398,133.003419 35.0483398,132.783691 Z M41.8598633,141.851074 C42.3432641,141.851074 42.7656232,141.704591 43.1269531,141.411621 C43.4882831,141.118651 43.6884764,140.752444 43.7275391,140.312988 L45.0092773,140.312988 C44.9848632,140.767092 44.8286147,141.199217 44.5405273,141.609375 C44.25244,142.019533 43.8679223,142.346678 43.3869629,142.59082 C42.9060035,142.834962 42.3969753,142.957031 41.8598633,142.957031 C40.7807563,142.957031 39.9226106,142.596927 39.2854004,141.876709 C38.6481902,141.156491 38.3295898,140.171393 38.3295898,138.921387 L38.3295898,138.694336 C38.3295898,137.922848 38.47119,137.236819 38.7543945,136.63623 C39.0375991,136.035642 39.4440891,135.569338 39.973877,135.237305 C40.5036648,134.905272 41.1298792,134.739258 41.8525391,134.739258 C42.7412154,134.739258 43.4797334,135.005368 44.0681152,135.537598 C44.6564971,136.069827 44.9702146,136.760738 45.0092773,137.610352 L43.7275391,137.610352 C43.6884764,137.097654 43.4943865,136.676515 43.1452637,136.346924 C42.7961408,136.017332 42.3652369,135.852539 41.8525391,135.852539 C41.1640591,135.852539 40.6306171,136.100339 40.2521973,136.595947 C39.8737774,137.091555 39.6845703,137.808101 39.6845703,138.745605 L39.6845703,139.001953 C39.6845703,139.915044 39.8725567,140.618162 40.2485352,141.111328 C40.6245136,141.604495 41.1616176,141.851074 41.8598633,141.851074 Z M48.0048828,142.810547 L46.6499023,142.810547 L46.6499023,134.885742 L48.0048828,134.885742 L48.0048828,142.810547 Z M46.5400391,132.783691 C46.5400391,132.563964 46.6071771,132.378419 46.7414551,132.227051 C46.8757331,132.075683 47.0747057,132 47.3383789,132 C47.6020521,132 47.8022454,132.075683 47.9389648,132.227051 C48.0756843,132.378419 48.144043,132.563964 48.144043,132.783691 C48.144043,133.003419 48.0756843,133.186523 47.9389648,133.333008 C47.8022454,133.479493 47.6020521,133.552734 47.3383789,133.552734 C47.0747057,133.552734 46.8757331,133.479493 46.7414551,133.333008 C46.6071771,133.186523 46.5400391,133.003419 46.5400391,132.783691 Z M49.8139648,138.774902 C49.8139648,137.998531 49.9665512,137.300296 50.2717285,136.680176 C50.5769058,136.060055 51.0017063,135.581545 51.5461426,135.244629 C52.0905789,134.907713 52.7119106,134.739258 53.4101562,134.739258 C54.4892632,134.739258 55.3620572,135.112789 56.0285645,135.859863 C56.6950717,136.606937 57.0283203,137.60058 57.0283203,138.84082 L57.0283203,138.936035 C57.0283203,139.707523 56.8806167,140.399655 56.5852051,141.012451 C56.2897934,141.625247 55.8674344,142.102537 55.3181152,142.444336 C54.7687961,142.786135 54.1376989,142.957031 53.4248047,142.957031 C52.3505806,142.957031 51.4802279,142.5835 50.8137207,141.836426 C50.1472135,141.089352 49.8139648,140.100592 49.8139648,138.870117 L49.8139648,138.774902 Z M51.1762695,138.936035 C51.1762695,139.814946 51.3801249,140.520505 51.7878418,141.052734 C52.1955587,141.584964 52.7412075,141.851074 53.4248047,141.851074 C54.1132847,141.851074 54.6601542,141.581302 55.0654297,141.041748 C55.4707052,140.502195 55.6733398,139.746587 55.6733398,138.774902 C55.6733398,137.905757 55.4670431,137.201419 55.0544434,136.661865 C54.6418436,136.122312 54.0937534,135.852539 53.4101562,135.852539 C52.7412076,135.852539 52.2016622,136.11865 51.7915039,136.650879 C51.3813456,137.183108 51.1762695,137.944819 51.1762695,138.936035 Z" id="Inicio" fill="#2A3052"></path>
            <path d="M14.9521484,20 L14.9521484,9.3359375 L18.2333984,9.3359375 C19.1709031,9.3359375 20.0095178,9.54711703 20.7492676,9.96948242 C21.4890174,10.3918478 22.0664042,10.9924277 22.4814453,11.7712402 C22.8964865,12.5500527 23.1040039,13.4350536 23.1040039,14.4262695 L23.1040039,14.9169922 C23.1040039,15.9082081 22.9001485,16.7895469 22.4924316,17.5610352 C22.0847148,18.3325234 21.5097693,18.9306619 20.7675781,19.3554688 C20.0253869,19.7802756 19.1879929,19.9951172 18.2553711,20 L14.9521484,20 Z M17.1494141,11.1157227 L17.1494141,18.2348633 L18.2114258,18.2348633 C19.0708051,18.2348633 19.7275368,17.9541044 20.1816406,17.3925781 C20.6357445,16.8310519 20.8676757,16.0278373 20.8774414,14.9829102 L20.8774414,14.4189453 C20.8774414,13.3349555 20.6528343,12.5134305 20.2036133,11.9543457 C19.7543923,11.3952609 19.0976606,11.1157227 18.2333984,11.1157227 L17.1494141,11.1157227 Z M26.8466797,20 L24.7299805,20 L24.7299805,12.0751953 L26.8466797,12.0751953 L26.8466797,20 Z M26.2241211,8.85986328 L28.53125,8.85986328 L26.5024414,11.1303711 L24.78125,11.1303711 L26.2241211,8.85986328 Z M28.362793,15.9790039 C28.362793,14.7631775 28.6520967,13.7841834 29.2307129,13.0419922 C29.8093291,12.299801 30.5893506,11.9287109 31.5708008,11.9287109 C32.4399458,11.9287109 33.1162085,12.2265595 33.5996094,12.8222656 L33.6875,12.0751953 L35.6064453,12.0751953 L35.6064453,19.7363281 C35.6064453,20.429691 35.4489762,21.0327123 35.1340332,21.5454102 C34.8190902,22.058108 34.3759794,22.4487291 33.8046875,22.7172852 C33.2333956,22.9858412 32.564457,23.1201172 31.7978516,23.1201172 C31.216794,23.1201172 30.6503934,23.0041516 30.0986328,22.7722168 C29.5468722,22.540282 29.1293959,22.2412128 28.8461914,21.875 L29.7836914,20.5859375 C30.3110378,21.1767608 30.9506798,21.472168 31.7026367,21.472168 C32.264163,21.472168 32.7011703,21.322023 33.0136719,21.0217285 C33.3261734,20.721434 33.4824219,20.2954129 33.4824219,19.7436523 L33.4824219,19.3188477 C32.9941382,19.8706082 32.3520548,20.1464844 31.5561523,20.1464844 C30.6039991,20.1464844 29.8337432,19.7741736 29.2453613,19.029541 C28.6569795,18.2849084 28.362793,17.2973694 28.362793,16.0668945 L28.362793,15.9790039 Z M30.4794922,16.1328125 C30.4794922,16.8505895 30.6235337,17.413328 30.9116211,17.8210449 C31.1997085,18.2287618 31.5952123,18.4326172 32.0981445,18.4326172 C32.742679,18.4326172 33.2041002,18.1909204 33.4824219,17.7075195 L33.4824219,14.375 C33.1992173,13.8915991 32.7426789,13.6499023 32.112793,13.6499023 C31.6049779,13.6499023 31.205812,13.8574198 30.9152832,14.2724609 C30.6247544,14.6875021 30.4794922,15.3076131 30.4794922,16.1328125 Z M39.4663086,20 L37.3422852,20 L37.3422852,12.0751953 L39.4663086,12.0751953 L39.4663086,20 Z M37.2177734,10.0244141 C37.2177734,9.70702966 37.3239735,9.44580181 37.536377,9.24072266 C37.7487804,9.03564351 38.0380841,8.93310547 38.4042969,8.93310547 C38.7656268,8.93310547 39.0537099,9.03564351 39.2685547,9.24072266 C39.4833995,9.44580181 39.5908203,9.70702966 39.5908203,10.0244141 C39.5908203,10.3466813 39.4821788,10.6103505 39.2648926,10.8154297 C39.0476063,11.0205088 38.760744,11.1230469 38.4042969,11.1230469 C38.0478498,11.1230469 37.7609874,11.0205088 37.5437012,10.8154297 C37.3264149,10.6103505 37.2177734,10.3466813 37.2177734,10.0244141 Z M43.7436523,10.1269531 L43.7436523,12.0751953 L45.0986328,12.0751953 L45.0986328,13.6279297 L43.7436523,13.6279297 L43.7436523,17.5830078 C43.7436523,17.875978 43.7998041,18.0859369 43.9121094,18.2128906 C44.0244146,18.3398444 44.2392562,18.4033203 44.5566406,18.4033203 C44.7910168,18.4033203 44.9985343,18.3862306 45.1791992,18.3520508 L45.1791992,19.9560547 C44.7641581,20.0830084 44.3369163,20.1464844 43.8974609,20.1464844 C42.4130785,20.1464844 41.6562501,19.3969802 41.6269531,17.8979492 L41.6269531,13.6279297 L40.4697266,13.6279297 L40.4697266,12.0751953 L41.6269531,12.0751953 L41.6269531,10.1269531 L43.7436523,10.1269531 Z M45.7285156,15.9643555 C45.7285156,15.1782187 45.8798813,14.4775421 46.1826172,13.8623047 C46.4853531,13.2470672 46.9211397,12.7709978 47.4899902,12.434082 C48.0588407,12.0971663 48.7192345,11.9287109 49.4711914,11.9287109 C50.5405327,11.9287109 51.4133267,12.2558561 52.0895996,12.9101562 C52.7658725,13.5644564 53.143066,14.4531194 53.2211914,15.5761719 L53.2358398,16.1181641 C53.2358398,17.3339905 52.8964878,18.3093225 52.2177734,19.0441895 C51.5390591,19.7790564 50.6284237,20.1464844 49.4858398,20.1464844 C48.343256,20.1464844 47.4313999,19.7802771 46.7502441,19.0478516 C46.0690884,18.315426 45.7285156,17.3193422 45.7285156,16.0595703 L45.7285156,15.9643555 Z M47.8452148,16.1181641 C47.8452148,16.8701209 47.986815,17.4450664 48.2700195,17.8430176 C48.5532241,18.2409688 48.9584935,18.4399414 49.4858398,18.4399414 C49.9985377,18.4399414 50.3989243,18.2434102 50.6870117,17.8503418 C50.9750991,17.4572734 51.1191406,16.8286176 51.1191406,15.9643555 C51.1191406,15.2270471 50.9750991,14.6557637 50.6870117,14.2504883 C50.3989243,13.8452128 49.993655,13.6425781 49.4711914,13.6425781 C48.9536107,13.6425781 48.5532241,13.8439921 48.2700195,14.2468262 C47.986815,14.6496602 47.8452148,15.2734333 47.8452148,16.1181641 Z M60.5087891,20 L58.3847656,20 L58.3847656,12.0751953 L60.5087891,12.0751953 L60.5087891,20 Z M58.2602539,10.0244141 C58.2602539,9.70702966 58.366454,9.44580181 58.5788574,9.24072266 C58.7912608,9.03564351 59.0805646,8.93310547 59.4467773,8.93310547 C59.8081073,8.93310547 60.0961903,9.03564351 60.3110352,9.24072266 C60.52588,9.44580181 60.6333008,9.70702966 60.6333008,10.0244141 C60.6333008,10.3466813 60.5246593,10.6103505 60.307373,10.8154297 C60.0900868,11.0205088 59.8032244,11.1230469 59.4467773,11.1230469 C59.0903302,11.1230469 58.8034679,11.0205088 58.5861816,10.8154297 C58.3688954,10.6103505 58.2602539,10.3466813 58.2602539,10.0244141 Z M64.2368164,12.0751953 L64.3027344,12.9614258 C64.8642606,12.2729458 65.6235304,11.9287109 66.5805664,11.9287109 C67.6010793,11.9287109 68.3017559,12.3315389 68.6826172,13.137207 C69.2392606,12.3315389 70.0327097,11.9287109 71.0629883,11.9287109 C71.9223676,11.9287109 72.5620096,12.1789526 72.9819336,12.6794434 C73.4018576,13.1799341 73.6118164,13.9331004 73.6118164,14.9389648 L73.6118164,20 L71.487793,20 L71.487793,14.9462891 C71.487793,14.4970681 71.3999032,14.1687022 71.2241211,13.9611816 C71.048339,13.7536611 70.7382835,13.6499023 70.2939453,13.6499023 C69.6591765,13.6499023 69.2197278,13.9526337 68.9755859,14.5581055 L68.9829102,20 L66.8662109,20 L66.8662109,14.9536133 C66.8662109,14.4946266 66.7758798,14.1625987 66.5952148,13.9575195 C66.4145499,13.7524404 66.1069358,13.6499023 65.6723633,13.6499023 C65.0717743,13.6499023 64.6372084,13.8989233 64.3686523,14.3969727 L64.3686523,20 L62.2519531,20 L62.2519531,12.0751953 L64.2368164,12.0751953 Z M82.371582,16.1108398 C82.371582,17.3315491 82.0944852,18.3093225 81.5402832,19.0441895 C80.9860812,19.7790564 80.2377977,20.1464844 79.2954102,20.1464844 C78.4946249,20.1464844 77.8476587,19.8681668 77.3544922,19.3115234 L77.3544922,23.046875 L75.237793,23.046875 L75.237793,12.0751953 L77.2006836,12.0751953 L77.2739258,12.8515625 C77.7866237,12.236325 78.4555623,11.9287109 79.2807617,11.9287109 C80.2573291,11.9287109 81.0165989,12.2900354 81.5585938,13.0126953 C82.1005886,13.7353552 82.371582,14.731439 82.371582,16.0009766 L82.371582,16.1108398 Z M80.2548828,15.9570312 C80.2548828,15.2197229 80.1242689,14.6508809 79.8630371,14.2504883 C79.6018053,13.8500957 79.2221705,13.6499023 78.7241211,13.6499023 C78.0600553,13.6499023 77.6035169,13.9038061 77.3544922,14.4116211 L77.3544922,17.65625 C77.6132825,18.1787135 78.0747037,18.4399414 78.7387695,18.4399414 C79.7495168,18.4399414 80.2548828,17.612313 80.2548828,15.9570312 Z M88.2749023,20 C88.1772456,19.8095694 88.1064455,19.5727553 88.0625,19.2895508 C87.5498021,19.8608427 86.8833049,20.1464844 86.0629883,20.1464844 C85.2866172,20.1464844 84.6433131,19.9218772 84.1330566,19.4726562 C83.6228002,19.0234353 83.3676758,18.4570347 83.3676758,17.7734375 C83.3676758,16.9335896 83.678952,16.2890647 84.3015137,15.8398438 C84.9240754,15.3906228 85.8237246,15.1635742 87.0004883,15.1586914 L87.9746094,15.1586914 L87.9746094,14.7045898 C87.9746094,14.3383771 87.8806162,14.0454113 87.692627,13.8256836 C87.5046377,13.6059559 87.2080098,13.4960938 86.8027344,13.4960938 C86.4462873,13.4960938 86.1667491,13.5815421 85.9641113,13.7524414 C85.7614736,13.9233407 85.6601562,14.1577134 85.6601562,14.4555664 L83.543457,14.4555664 C83.543457,13.9965797 83.6850572,13.5717793 83.9682617,13.1811523 C84.2514663,12.7905254 84.6518529,12.484132 85.1694336,12.2619629 C85.6870143,12.0397938 86.2680632,11.9287109 86.9125977,11.9287109 C87.889165,11.9287109 88.6643038,12.1740698 89.2380371,12.6647949 C89.8117704,13.15552 90.0986328,13.8452104 90.0986328,14.7338867 L90.0986328,18.1689453 C90.1035156,18.9209022 90.2084951,19.4897442 90.4135742,19.8754883 L90.4135742,20 L88.2749023,20 Z M86.5244141,18.527832 C86.8369156,18.527832 87.1249987,18.4582526 87.3886719,18.3190918 C87.6523451,18.1799309 87.8476556,17.9931652 87.9746094,17.7587891 L87.9746094,16.3964844 L87.1835938,16.3964844 C86.1240181,16.3964844 85.5600589,16.7626917 85.4916992,17.4951172 L85.484375,17.6196289 C85.484375,17.8833021 85.5771475,18.1005851 85.7626953,18.2714844 C85.9482431,18.4423837 86.2021468,18.527832 86.5244141,18.527832 Z M96.1777344,14.0600586 C95.889647,14.0209959 95.6357433,14.0014648 95.4160156,14.0014648 C94.6152304,14.0014648 94.0903333,14.2724582 93.8413086,14.8144531 L93.8413086,20 L91.7246094,20 L91.7246094,12.0751953 L93.7241211,12.0751953 L93.7827148,13.0200195 C94.2075217,12.2924768 94.7958947,11.9287109 95.5478516,11.9287109 C95.7822277,11.9287109 96.0019521,11.9604489 96.2070312,12.0239258 L96.1777344,14.0600586 Z" id="Dígitoimpar" fill="#000000"></path>
            <path d="M125.298828,163.756836 L127.033691,163.756836 L127.23291,172.273438 L125.099609,172.273438 L125.298828,163.756836 Z M127.282715,161.191895 C127.282715,161.501792 127.183106,161.760497 126.983887,161.968018 C126.784667,162.175538 126.50521,162.279297 126.145508,162.279297 C125.780272,162.279297 125.498048,162.175538 125.298828,161.968018 C125.099608,161.760497 125,161.501792 125,161.191895 C125,160.887531 125.099608,160.631593 125.298828,160.424072 C125.498048,160.216552 125.780272,160.112793 126.145508,160.112793 C126.50521,160.112793 126.784667,160.216552 126.983887,160.424072 C127.183106,160.631593 127.282715,160.887531 127.282715,161.191895 Z M138.878906,167.683105 C138.44173,168.253095 137.835779,168.684732 137.061035,168.978027 C136.286292,169.271323 135.406418,169.417969 134.421387,169.417969 C133.408686,169.417969 132.512211,169.188316 131.731934,168.729004 C130.951656,168.269692 130.349856,167.612553 129.926514,166.757568 C129.503172,165.902584 129.283203,164.905116 129.266602,163.765137 L129.266602,162.818848 C129.266602,160.992667 129.703772,159.56633 130.578125,158.539795 C131.452478,157.51326 132.672681,157 134.23877,157 C135.583503,157 136.651526,157.332028 137.442871,157.996094 C138.234216,158.66016 138.710123,159.617507 138.870605,160.868164 L136.812012,160.868164 C136.579589,159.412753 135.735684,158.685059 134.280273,158.685059 C133.339514,158.685059 132.62427,159.024004 132.134521,159.701904 C131.644773,160.379805 131.391602,161.374505 131.375,162.686035 L131.375,163.615723 C131.375,164.921719 131.650306,165.935787 132.200928,166.657959 C132.751549,167.380131 133.516597,167.741211 134.496094,167.741211 C135.569667,167.741211 136.333331,167.497724 136.787109,167.010742 L136.787109,164.64502 L134.296875,164.64502 L134.296875,163.05127 L138.878906,163.05127 L138.878906,167.683105 Z M146.35791,169.251953 C146.269368,169.080403 146.191895,168.800946 146.125488,168.413574 C145.483558,169.083174 144.697759,169.417969 143.768066,169.417969 C142.866044,169.417969 142.130048,169.160647 141.560059,168.645996 C140.990069,168.131345 140.705078,167.494958 140.705078,166.736816 C140.705078,165.779455 141.060625,165.044843 141.771729,164.532959 C142.482832,164.021075 143.499668,163.765137 144.822266,163.765137 L146.059082,163.765137 L146.059082,163.175781 C146.059082,162.710935 145.929038,162.338787 145.668945,162.059326 C145.408853,161.779865 145.013186,161.640137 144.481934,161.640137 C144.022621,161.640137 143.646323,161.754963 143.353027,161.984619 C143.059732,162.214275 142.913086,162.506183 142.913086,162.860352 L140.895996,162.860352 C140.895996,162.367836 141.059243,161.907147 141.385742,161.478271 C141.712241,161.049396 142.156329,160.713217 142.718018,160.469727 C143.279707,160.226236 143.906409,160.104492 144.598145,160.104492 C145.649582,160.104492 146.487953,160.368731 147.113281,160.897217 C147.73861,161.425703 148.05957,162.168615 148.076172,163.125977 L148.076172,167.176758 C148.076172,167.984705 148.189615,168.629392 148.416504,169.11084 L148.416504,169.251953 L146.35791,169.251953 Z M144.141602,167.799316 C144.540041,167.799316 144.914956,167.702475 145.266357,167.508789 C145.617759,167.315103 145.881998,167.055015 146.059082,166.728516 L146.059082,165.035156 L144.97168,165.035156 C144.224606,165.035156 143.662925,165.165201 143.286621,165.425293 C142.910317,165.685385 142.722168,166.053383 142.722168,166.529297 C142.722168,166.916669 142.850829,167.225178 143.108154,167.454834 C143.36548,167.68449 143.709959,167.799316 144.141602,167.799316 Z M152.060547,160.270508 L152.118652,161.308105 C152.782718,160.505693 153.654291,160.104492 154.733398,160.104492 C156.60385,160.104492 157.555664,161.175282 157.588867,163.316895 L157.588867,169.251953 L155.571777,169.251953 L155.571777,163.433105 C155.571777,162.863116 155.44865,162.441163 155.202393,162.167236 C154.956135,161.893309 154.553551,161.756348 153.994629,161.756348 C153.181148,161.756348 152.575197,162.124345 152.176758,162.860352 L152.176758,169.251953 L150.159668,169.251953 L150.159668,160.270508 L152.060547,160.270508 Z M163.598633,169.417969 C162.320306,169.417969 161.284102,169.015385 160.48999,168.210205 C159.695878,167.405025 159.298828,166.332852 159.298828,164.993652 L159.298828,164.744629 C159.298828,163.84814 159.471759,163.047123 159.817627,162.341553 C160.163495,161.635983 160.649085,161.086753 161.274414,160.693848 C161.899743,160.300942 162.597001,160.104492 163.366211,160.104492 C164.589199,160.104492 165.534095,160.494625 166.200928,161.274902 C166.86776,162.05518 167.201172,163.159173 167.201172,164.586914 L167.201172,165.400391 L161.33252,165.400391 C161.393392,166.141931 161.64103,166.728513 162.075439,167.160156 C162.509849,167.591799 163.056312,167.807617 163.714844,167.807617 C164.639002,167.807617 165.391599,167.434086 165.972656,166.687012 L167.060059,167.724609 C166.700356,168.261396 166.220299,168.677814 165.619873,168.973877 C165.019447,169.26994 164.345707,169.417969 163.598633,169.417969 Z M163.35791,161.723145 C162.804522,161.723145 162.357668,161.916827 162.017334,162.304199 C161.677,162.691571 161.459799,163.231116 161.365723,163.922852 L165.208984,163.922852 L165.208984,163.773438 C165.164713,163.098304 164.984865,162.587811 164.669434,162.241943 C164.354002,161.896076 163.916832,161.723145 163.35791,161.723145 Z M170.90332,165.690918 L169.168457,165.690918 L168.977539,157.166016 L171.102539,157.166016 L170.90332,165.690918 Z M168.919434,168.297363 C168.919434,167.981932 169.021809,167.72046 169.226562,167.512939 C169.431316,167.305419 169.710773,167.20166 170.064941,167.20166 C170.41911,167.20166 170.698567,167.305419 170.90332,167.512939 C171.108074,167.72046 171.210449,167.981932 171.210449,168.297363 C171.210449,168.601727 171.110841,168.856282 170.911621,169.061035 C170.712401,169.265789 170.430178,169.368164 170.064941,169.368164 C169.699705,169.368164 169.417481,169.265789 169.218262,169.061035 C169.019042,168.856282 168.919434,168.601727 168.919434,168.297363 Z" id="¡Gane!" fill="#FFFFFF"></path>
        </g>
    </g>
</svg>