<?xml version="1.0" encoding="UTF-8"?>
<svg width="299px" height="197px" viewBox="0 0 299 197" version="1.1" xmlns="http://www.w3.org/2000/svg" xmlns:xlink="http://www.w3.org/1999/xlink">
    <!-- Generator: Sketch 52.6 (67491) - http://www.bohemiancoding.com/sketch -->
    <title>reset put</title>
    <desc>Created with Sketch.</desc>
    <g id="Page-1" stroke="none" stroke-width="1" fill="none" fill-rule="evenodd">
        <g id="reset-put">
            <g id="Group">
                <polygon id="Path" fill="#F1F2F2" points="0 0 299 0 299 197 0 197"></polygon>
                <path d="M1.98671096,1.9798995 L1.98671096,195.020101 L297.013289,195.020101 L297.013289,1.9798995 L1.98671096,1.9798995 Z M299,0 L299,197 L0,197 L0,0 L299,0 Z" id="Path" fill="#C2C2C2" fill-rule="nonzero"></path>
                <g id="Group-13" transform="translate(2.000000, 35.000000)">
                    <path d="M7.76533333,22.5970952 L7.76533333,21.4295714 L287.587556,21.4295714 L287.587556,22.5970952 L7.76533333,22.5970952 Z M7.76533333,61.7722063 L7.76533333,60.6046825 L287.587556,60.6046825 L287.587556,61.7722063 L7.76533333,61.7722063 Z M7.76533333,100.947318 L7.76533333,99.7797941 L287.587556,99.7797941 L287.587556,100.947318 L7.76533333,100.947318 Z M7.76533333,140.086873 L7.76533333,138.919349 L287.587556,138.919349 L287.587556,140.086873 L7.76533333,140.086873 Z M40.977127,2.44355556 L42.1446508,2.44355556 L42.1446508,156.761778 L40.977127,156.761778 L40.977127,2.44355556 Z M76.3975714,2.44355556 L77.5650952,2.44355556 L77.5650952,156.761778 L76.3975714,156.761778 L76.3975714,2.44355556 Z M111.78246,2.44355556 L112.949984,2.44355556 L112.949984,156.761778 L111.78246,156.761778 L111.78246,2.44355556 Z" id="Shape" fill="#DFDEDE" fill-rule="nonzero"></path>
                    <path d="M147.202905,2.44355556 L148.370429,2.44355556 L148.370429,8.3167698 L147.202905,8.3167698 L147.202905,2.44355556 Z M147.202905,14.189984 L148.370429,14.189984 L148.370429,20.0631983 L147.202905,20.0631983 L147.202905,14.189984 Z M147.202905,25.9364125 L148.370429,25.9364125 L148.370429,31.8096268 L147.202905,31.8096268 L147.202905,25.9364125 Z M147.202905,37.682841 L148.370429,37.682841 L148.370429,43.5560553 L147.202905,43.5560553 L147.202905,37.682841 Z M147.202905,49.4292695 L148.370429,49.4292695 L148.370429,55.3024838 L147.202905,55.3024838 L147.202905,49.4292695 Z M147.202905,61.175698 L148.370429,61.175698 L148.370429,67.0489123 L147.202905,67.0489123 L147.202905,61.175698 Z M147.202905,72.9221265 L148.370429,72.9221265 L148.370429,78.7953407 L147.202905,78.7953407 L147.202905,72.9221265 Z M147.202905,84.668555 L148.370429,84.668555 L148.370429,90.5417692 L147.202905,90.5417692 L147.202905,84.668555 Z M147.202905,96.4149835 L148.370429,96.4149835 L148.370429,102.288198 L147.202905,102.288198 L147.202905,96.4149835 Z M147.202905,108.161412 L148.370429,108.161412 L148.370429,114.034626 L147.202905,114.034626 L147.202905,108.161412 Z M147.202905,119.90784 L148.370429,119.90784 L148.370429,125.781055 L147.202905,125.781055 L147.202905,119.90784 Z M147.202905,131.654269 L148.370429,131.654269 L148.370429,137.527483 L147.202905,137.527483 L147.202905,131.654269 Z M147.202905,143.400697 L148.370429,143.400697 L148.370429,149.273912 L147.202905,149.273912 L147.202905,143.400697 Z M147.202905,155.147126 L148.370429,155.147126 L148.370429,156.761778 L147.202905,156.761778 L147.202905,155.147126 Z" id="Path" fill="#E98024" fill-rule="nonzero"></path>
                    <path d="M182.584238,2.44355556 L183.751762,2.44355556 L183.751762,156.761778 L182.584238,156.761778 L182.584238,2.44355556 Z M217.969127,2.44355556 L219.136651,2.44355556 L219.136651,156.761778 L217.969127,156.761778 L217.969127,2.44355556 Z M7.76533333,81.3419841 L7.76533333,80.1744603 L287.587556,80.1744603 L287.587556,81.3419841 L7.76533333,81.3419841 Z" id="Shape" fill="#DFDEDE" fill-rule="nonzero"></path>
                    <path d="M253.389571,2.44355556 L254.557095,2.44355556 L254.557095,156.761778 L253.389571,156.761778 L253.389571,2.44355556 Z M7.76533333,42.2024286 L7.76533333,41.0349048 L287.587556,41.0349048 L287.587556,42.2024286 L7.76533333,42.2024286 Z" id="Shape" fill="#2A3052" fill-rule="nonzero"></path>
                    <path d="M7.76533333,120.517095 L7.76533333,119.349571 L13.6385476,119.349571 L13.6385476,120.517095 L7.76533333,120.517095 Z M19.5117618,120.517095 L19.5117618,119.349571 L25.3849761,119.349571 L25.3849761,120.517095 L19.5117618,120.517095 Z M31.2581903,120.517095 L31.2581903,119.349571 L37.1314046,119.349571 L37.1314046,120.517095 L31.2581903,120.517095 Z M43.0046188,120.517095 L43.0046188,119.349571 L48.877833,119.349571 L48.877833,120.517095 L43.0046188,120.517095 Z M54.7510473,120.517095 L54.7510473,119.349571 L60.6242615,119.349571 L60.6242615,120.517095 L54.7510473,120.517095 Z M66.4974758,120.517095 L66.4974758,119.349571 L72.37069,119.349571 L72.37069,120.517095 L66.4974758,120.517095 Z M78.2439043,120.517095 L78.2439043,119.349571 L84.1171185,119.349571 L84.1171185,120.517095 L78.2439043,120.517095 Z M89.9903328,120.517095 L89.9903328,119.349571 L95.863547,119.349571 L95.863547,120.517095 L89.9903328,120.517095 Z M101.736761,120.517095 L101.736761,119.349571 L107.609975,119.349571 L107.609975,120.517095 L101.736761,120.517095 Z M113.48319,120.517095 L113.48319,119.349571 L119.356404,119.349571 L119.356404,120.517095 L113.48319,120.517095 Z M125.229618,120.517095 L125.229618,119.349571 L131.102832,119.349571 L131.102832,120.517095 L125.229618,120.517095 Z M136.976047,120.517095 L136.976047,119.349571 L142.849261,119.349571 L142.849261,120.517095 L136.976047,120.517095 Z M148.722475,120.517095 L148.722475,119.349571 L154.595689,119.349571 L154.595689,120.517095 L148.722475,120.517095 Z M160.468904,120.517095 L160.468904,119.349571 L166.342118,119.349571 L166.342118,120.517095 L160.468904,120.517095 Z M172.215332,120.517095 L172.215332,119.349571 L178.088546,119.349571 L178.088546,120.517095 L172.215332,120.517095 Z M183.961761,120.517095 L183.961761,119.349571 L189.834975,119.349571 L189.834975,120.517095 L183.961761,120.517095 Z M195.708189,120.517095 L195.708189,119.349571 L201.581403,119.349571 L201.581403,120.517095 L195.708189,120.517095 Z M207.454618,120.517095 L207.454618,119.349571 L213.327832,119.349571 L213.327832,120.517095 L207.454618,120.517095 Z M219.201046,120.517095 L219.201046,119.349571 L225.07426,119.349571 L225.07426,120.517095 L219.201046,120.517095 Z M230.947475,120.517095 L230.947475,119.349571 L236.820689,119.349571 L236.820689,120.517095 L230.947475,120.517095 Z M242.693903,120.517095 L242.693903,119.349571 L248.567117,119.349571 L248.567117,120.517095 L242.693903,120.517095 Z M254.440332,120.517095 L254.440332,119.349571 L260.313546,119.349571 L260.313546,120.517095 L254.440332,120.517095 Z M266.18676,120.517095 L266.18676,119.349571 L272.059974,119.349571 L272.059974,120.517095 L266.18676,120.517095 Z M277.933189,120.517095 L277.933189,119.349571 L283.806403,119.349571 L283.806403,120.517095 L277.933189,120.517095 Z" id="Path" fill="#E98024" fill-rule="nonzero"></path>
                    <polygon id="Path" fill="#C2C2C2" fill-rule="nonzero" points="0 2.45552381 0 0.12047619 295 0.12047619 295 2.45552381"></polygon>
                    <path d="M81.5568342,83.0216617 L42.1697382,120.022191 C41.4647949,120.68442 40.3564829,120.649793 39.694254,119.944849 C39.0320252,119.239906 39.066652,118.131594 39.7715952,117.469365 L79.8498174,79.8195873 C80.2809938,79.4145371 80.8875204,79.2545493 81.462384,79.3942293 L118.404328,88.3703593 L145.556564,39.6637142 C146.092205,38.702862 147.370683,38.4679738 148.212881,39.1756828 L183.173538,68.5535615 L217.866029,66.6362715 C218.217147,66.6168669 218.565974,66.7036149 218.867103,66.8852232 L254.287547,88.247001 C255.115789,88.7465072 255.382283,89.8228602 254.882777,90.6511027 C254.38327,91.4793452 253.306917,91.7458386 252.478675,91.2463324 L217.520406,70.1632887 L182.674416,72.0890618 C182.229618,72.1136437 181.79217,71.9677954 181.451119,71.681206 L147.583224,43.2215887 L120.814991,91.2393969 C120.4317,91.9269574 119.636761,92.2742979 118.871838,92.0884374 L81.5568342,83.0216617 Z" id="Path" fill="#2A3052" fill-rule="nonzero"></path>
                    <g id="Group" opacity="0.6" transform="translate(245.222222, 80.222222)" fill="#FFFFFF">
                        <circle id="Oval" cx="8.1608889" cy="8.18755556" r="7.83644444"></circle>
                    </g>
                    <path d="M253.383111,97.3906091 C248.423135,97.3906091 244.40228,93.369754 244.40228,88.4097778 C244.40228,83.4498016 248.423135,79.4289465 253.383111,79.4289465 C258.343087,79.4289465 262.363942,83.4498016 262.363942,88.4097778 C262.363942,93.369754 258.343087,97.3906091 253.383111,97.3906091 Z M253.383111,95.1018353 C257.079032,95.1018353 260.075169,92.1056991 260.075169,88.4097778 C260.075169,84.7138565 257.079032,81.7177203 253.383111,81.7177203 C249.68719,81.7177203 246.691053,84.7138565 246.691053,88.4097778 C246.691053,92.1056991 249.68719,95.1018353 253.383111,95.1018353 Z" id="Oval" fill="#E88024" fill-rule="nonzero"></path>
                    <g id="Group" opacity="0.6" transform="translate(32.444444, 110.666667)" fill="#FFFFFF">
                        <circle id="Oval" cx="8.52622222" cy="8.2284444" r="7.83644444"></circle>
                    </g>
                    <path d="M40.9706667,127.875942 C36.0106905,127.875942 31.9898354,123.855087 31.9898354,118.895111 C31.9898354,113.935135 36.0106905,109.91428 40.9706667,109.91428 C45.9306429,109.91428 49.951498,113.935135 49.951498,118.895111 C49.951498,123.855087 45.9306429,127.875942 40.9706667,127.875942 Z M40.9706667,125.587169 C44.666588,125.587169 47.6627242,122.591032 47.6627242,118.895111 C47.6627242,115.19919 44.666588,112.203053 40.9706667,112.203053 C37.2747454,112.203053 34.2786092,115.19919 34.2786092,118.895111 C34.2786092,122.591032 37.2747454,125.587169 40.9706667,125.587169 Z" id="Oval" fill="#E88024" fill-rule="nonzero"></path>
                    <g id="Group" opacity="0.6" transform="translate(138.555556, 33.000000)" fill="#FFFFFF">
                        <circle id="Oval" cx="8.0257778" cy="8.64355556" r="7.83644444"></circle>
                    </g>
                    <path d="M146.581333,50.6243869 C141.621357,50.6243869 137.600502,46.6035318 137.600502,41.6435556 C137.600502,36.6835794 141.621357,32.6627243 146.581333,32.6627243 C151.541309,32.6627243 155.562164,36.6835794 155.562164,41.6435556 C155.562164,46.6035318 151.541309,50.6243869 146.581333,50.6243869 Z M146.581333,48.3356131 C150.277254,48.3356131 153.273391,45.3394769 153.273391,41.6435556 C153.273391,37.9476343 150.277254,34.9514981 146.581333,34.9514981 C142.885412,34.9514981 139.889275,37.9476343 139.889275,41.6435556 C139.889275,45.3394769 142.885412,48.3356131 146.581333,48.3356131 Z" id="Oval" fill="#E88024" fill-rule="nonzero"></path>
                    <path d="M256.650667,115.919111 L219.523556,115.919111 L214.243556,108.022222 L208.963556,115.922667 L171.822222,115.922667 C169.269439,115.922667 167.2,117.992106 167.2,120.544889 L167.2,144.420444 C167.2,146.973227 169.269439,149.042667 171.822222,149.042667 L256.650667,149.042667 C259.20345,149.042667 261.272889,146.973227 261.272889,144.420444 L261.272889,120.541333 C261.272889,117.98855 259.20345,115.919111 256.650667,115.919111 Z" id="Path" fill="#E88024"></path>
                </g>
            </g>
            <path d="M19.893,15.54 L19.893,19.589 L17.856,19.589 L17.856,9.452 L21.681,9.452 C22.6489768,9.39403581 23.6071903,9.67280808 24.393,10.241 C25.057,10.781 25.422,11.608 25.374,12.463 C25.384,12.945 25.24,13.417 24.963,13.811 C24.6514632,14.2179877 24.2353519,14.532836 23.759,14.722 C24.2829051,14.8489895 24.7419504,15.1639159 25.049,15.607 C25.325,16.069 25.462,16.6 25.444,17.137 L25.444,17.877 C25.446,18.177 25.484,18.476 25.556,18.767 C25.609,19.032 25.748,19.273 25.952,19.452 L25.952,19.596 L23.856,19.596 C23.644667,19.4041305 23.5126958,19.1401881 23.486,18.856 C23.4344242,18.5262018 23.409344,18.1928026 23.411,17.859 L23.411,17.137 C23.4375028,16.7043915 23.2878066,16.2794707 22.996,15.959 C22.6831741,15.6642526 22.2618856,15.5128351 21.833,15.541 L19.893,15.541 L19.893,15.54 Z M19.893,13.97 L21.648,13.97 C22.105,14.004 22.558,13.873 22.926,13.6 C23.223,13.326 23.378,12.932 23.348,12.53 C23.3686076,12.1169923 23.2156033,11.7141778 22.926,11.419 C22.5819677,11.1221563 22.134193,10.9739771 21.681,11.007 L19.893,11.007 L19.893,13.97 Z M30.448,19.733 C29.4746788,19.7750055 28.5303551,19.3961102 27.856,18.693 C27.1939994,17.9703666 26.8427224,17.0163872 26.878,16.037 L26.878,15.759 C26.8379135,14.7556811 27.167408,13.7725348 27.804,12.996 C28.4178336,12.273422 29.3307553,11.8745261 30.278,11.915 C31.1634699,11.8620527 32.0278293,12.1988825 32.644,12.837 C33.235,13.526 33.538,14.416 33.489,15.322 L33.489,16.433 L28.985,16.433 L28.985,16.474 C29.005,16.927 29.182,17.359 29.485,17.696 C29.7967841,18.0106088 30.227608,18.1778485 30.67,18.156 C31.045,18.164 31.42,18.118 31.781,18.019 C32.121,17.911 32.447,17.767 32.756,17.589 L33.307,18.849 C32.945032,19.127448 32.536297,19.3390962 32.1,19.474 C31.5670295,19.6494849 31.0091076,19.7372934 30.448,19.734 L30.448,19.733 Z M30.274,13.485 C29.9244739,13.4709831 29.5909984,13.6322817 29.385,13.915 C29.1430493,14.2479708 28.9983375,14.6416007 28.967,15.052 L28.989,15.085 L31.481,15.085 L31.481,14.904 C31.4997051,14.5340697 31.3929372,14.1686626 31.178,13.867 C30.9522862,13.6062639 30.6182893,13.465128 30.274,13.485 Z M38.741,17.515 C38.7359151,17.2819929 38.6151962,17.0667983 38.419,16.941 C38.0493687,16.7195456 37.6406232,16.5711886 37.215,16.504 C36.4915181,16.3929956 35.8025987,16.1194792 35.2,15.704 C34.752,15.357 34.5,14.814 34.522,14.248 C34.5236139,13.6011353 34.8263753,12.9919158 35.341,12.6 C35.9671905,12.1213095 36.7427642,11.8800278 37.53,11.919 C38.3488395,11.8767666 39.1575241,12.115632 39.822,12.596 C40.3655268,12.9910967 40.6743223,13.6327301 40.644,14.304 L40.644,14.341 L38.678,14.341 C38.6901684,14.0651162 38.5869028,13.7966257 38.393,13.6 C38.159164,13.3958718 37.8536404,13.2933109 37.544,13.315 C37.2648419,13.3011882 36.989741,13.3861615 36.767,13.555 C36.5862081,13.703104 36.4824659,13.9253034 36.485,14.159 C36.4829584,14.3863488 36.5938532,14.5998964 36.781,14.729 C37.151,14.939 37.559,15.074 37.981,15.126 C38.7189928,15.2343689 39.4223317,15.5104363 40.037,15.933 C40.485,16.291 40.736,16.842 40.711,17.415 C40.719194,18.0803852 40.3922699,18.7052988 39.841,19.078 C39.1650489,19.5348962 38.3588247,19.7595298 37.544,19.718 C36.6852426,19.7662843 35.8388618,19.4960264 35.167,18.959 C34.6284195,18.5457119 34.3187385,17.9007287 34.333,17.222 L34.333,17.182 L36.185,17.182 C36.17,17.52 36.317,17.845 36.581,18.056 C36.871,18.248 37.215,18.342 37.563,18.326 C37.865,18.347 38.167,18.27 38.423,18.107 C38.6209067,17.9748773 38.7401149,17.7529552 38.741,17.515 Z M45.359,19.733 C44.3858354,19.7740901 43.4418746,19.3953404 42.767,18.693 C42.1074776,17.9691152 41.7578232,17.0156427 41.793,16.037 L41.793,15.759 C41.7531912,14.7563929 42.0810819,13.7737876 42.715,12.996 C44.0101844,11.6176791 46.1762166,11.546581 47.559,12.837 C48.147,13.527 48.448,14.417 48.4,15.322 L48.4,16.433 L43.889,16.433 L43.889,16.474 C43.909,16.926 44.084,17.358 44.385,17.696 C44.698,18.022 45.137,18.196 45.589,18.174 C45.964,18.184 46.339,18.137 46.7,18.037 C47.04,17.928 47.368,17.784 47.678,17.607 L48.226,18.867 C47.8647827,19.145129 47.4571514,19.3570702 47.022,19.493 C46.485,19.663 45.923,19.744 45.359,19.733 Z M45.174,13.485 C44.8246234,13.4716994 44.4914671,13.6328436 44.285,13.915 C44.0497759,14.2503812 43.9101316,14.6433898 43.881,15.052 L43.9,15.085 L46.393,15.085 L46.393,14.904 C46.4107905,14.5346264 46.3052542,14.1698226 46.093,13.867 C45.8640182,13.6019082 45.5234251,13.4603341 45.174,13.485 Z M51.985,10.211 L51.985,12.063 L53.252,12.063 L53.252,13.493 L51.985,13.493 L51.985,17.319 C51.965,17.544 52.03,17.769 52.167,17.949 C52.297,18.086 52.481,18.162 52.67,18.156 C52.762,18.162 52.853,18.162 52.944,18.156 C53.034,18.141 53.124,18.119 53.211,18.093 L53.389,19.574 C53.1923278,19.6380483 52.991962,19.6901434 52.789,19.73 C52.579,19.765 52.368,19.781 52.156,19.778 C51.560188,19.8187058 50.9741114,19.6109183 50.537,19.204 C50.1097356,18.6862428 49.9048057,18.0204005 49.967,17.352 L49.967,13.485 L48.856,13.485 L48.856,12.055 L49.966,12.055 L49.966,10.204 L51.986,10.211 L51.985,10.211 Z M60.3,15.911 L60.3,19.589 L58.267,19.589 L58.267,9.452 L62.3,9.452 C63.2948006,9.39535922 64.2748736,9.71242066 65.048,10.341 C65.7169851,10.9341218 66.0853372,11.7955666 66.052,12.689 C66.0866345,13.5803648 65.7178432,14.4398983 65.048,15.029 C64.2731657,15.6537807 63.2937067,15.9681486 62.3,15.911 L60.3,15.911 Z M60.3,14.344 L62.3,14.344 C62.775,14.38 63.242,14.212 63.585,13.881 C63.8821121,13.5626417 64.0404119,13.1391897 64.025,12.704 C64.0457875,12.2585711 63.8918608,11.8226247 63.596,11.489 C63.2531349,11.1509546 62.7798503,10.9793159 62.3,11.019 L60.3,11.019 L60.3,14.344 Z M71.989,18.504 C71.778,18.879 71.474,19.194 71.107,19.419 C70.0893411,19.9671315 68.8330808,19.7865644 68.011,18.974 C67.5088201,18.2908174 67.2708338,17.4489851 67.341,16.604 L67.341,12.056 L69.367,12.056 L69.367,16.63 C69.3321245,17.0430536 69.429104,17.4565295 69.644,17.811 C69.842,18.061 70.149,18.199 70.467,18.181 C70.752,18.189 71.037,18.136 71.3,18.026 C71.527,17.922 71.725,17.763 71.874,17.563 L71.874,12.056 L73.907,12.056 L73.907,19.589 L72.17,19.589 L71.989,18.504 Z M77.856,10.211 L77.856,12.063 L79.126,12.063 L79.126,13.493 L77.856,13.493 L77.856,17.319 C77.836,17.544 77.9,17.769 78.037,17.949 C78.167,18.076 78.344,18.144 78.526,18.137 C78.617,18.144 78.709,18.144 78.8,18.137 C78.891,18.122 78.982,18.101 79.07,18.074 L79.244,19.556 C79.0475648,19.6205957 78.8471434,19.6723712 78.644,19.711 C78.435,19.747 78.224,19.763 78.011,19.759 C77.4156431,19.7985797 76.8303093,19.5909273 76.393,19.185 C75.9668093,18.6667857 75.7629726,18.0009911 75.826,17.333 L75.826,13.485 L74.715,13.485 L74.715,12.055 L75.825,12.055 L75.825,10.204 L77.855,10.211 L77.856,10.211 Z" id="Shape" fill="#000000" fill-rule="nonzero"></path>
            <path d="M66.854,55.73 L64.328,55.73 L62.805,63.352 L61.674,63.352 L63.197,55.729 L60.677,55.729 L60.859,54.821 L67.035,54.821 L66.854,55.729 L66.854,55.73 Z M67.551,63.352 L66.42,63.352 L67.686,57.012 L68.816,57.012 L67.551,63.352 Z M69.145,55.389 L68.014,55.389 L68.248,54.212 L69.378,54.212 L69.145,55.389 Z M71.787,63.475 C70.99,63.475 70.387,63.18 69.979,62.588 C69.571,61.996 69.441,61.235 69.589,60.305 L69.631,60.048 C69.779,59.11 70.149,58.35 70.741,57.768 C71.333,57.186 71.973,56.895 72.661,56.895 C73.438,56.895 73.994,57.155 74.331,57.675 C74.666,58.195 74.768,58.88 74.635,59.731 L74.518,60.452 L70.698,60.452 C70.611,61.1 70.671,61.616 70.876,61.999 C71.081,62.382 71.432,62.573 71.928,62.573 C72.5676401,62.5769916 73.1881352,62.3549308 73.68,61.946 L74.002,62.696 C73.7345326,62.9367694 73.4245878,63.1256527 73.088,63.253 C72.717,63.401 72.283,63.475 71.788,63.475 L71.787,63.475 Z M72.52,57.804 C72.191,57.804 71.874,57.968 71.567,58.296 C71.25077,58.6418121 71.0244552,59.0600996 70.908,59.514 L70.926,59.55 L73.533,59.55 L73.557,59.397 C73.631,58.925 73.586,58.541 73.422,58.246 C73.258,57.951 72.957,57.804 72.52,57.804 Z M77.424,57.768 C77.6601345,57.4943985 77.9515247,57.2738962 78.279,57.121 C78.604,56.971 78.961,56.895 79.352,56.895 C79.707,56.895 80.007,56.991 80.251,57.182 C80.495,57.374 80.656,57.659 80.734,58.038 C80.984,57.678 81.281,57.398 81.625,57.198 C81.9696538,56.9961055 82.3625821,56.8913937 82.762,56.895 C83.32,56.895 83.738,57.121 84.016,57.572 C84.293,58.023 84.346,58.686 84.174,59.562 L83.418,63.352 L82.281,63.352 L83.043,59.55 C83.172,58.878 83.168,58.424 83.031,58.187 C82.895,57.951 82.627,57.833 82.229,57.833 C81.909,57.833 81.605,57.974 81.32,58.258 C81.0260353,58.5524641 80.8104805,58.9158475 80.693,59.315 L80.693,59.327 L79.891,63.352 L78.754,63.352 L79.516,59.55 C79.641,58.913 79.633,58.468 79.492,58.214 C79.352,57.96 79.086,57.833 78.695,57.833 C78.398,57.833 78.133,57.908 77.898,58.058 C77.664,58.208 77.463,58.417 77.295,58.682 L76.357,63.352 L75.227,63.352 L76.492,57.012 L77.5,57.012 L77.424,57.768 Z M90.637,60.54 C90.441,61.516 90.112,62.25 89.649,62.74 C89.187,63.23 88.589,63.475 87.859,63.475 C87.519,63.475 87.214,63.411 86.942,63.282 C86.6739043,63.1556334 86.4430845,62.9620204 86.272,62.72 L85.656,65.79 L84.526,65.79 L86.277,57.013 L87.25,57.013 L87.209,57.639 C87.4326834,57.4045689 87.7004768,57.2166377 87.997,57.086 C88.288,56.959 88.602,56.896 88.937,56.896 C89.621,56.896 90.127,57.233 90.458,57.909 C90.788,58.585 90.855,59.421 90.66,60.417 L90.637,60.54 Z M89.529,60.417 C89.678,59.659 89.655,59.039 89.462,58.557 C89.269,58.074 88.916,57.833 88.404,57.833 C88.1442855,57.8323609 87.8907184,57.9119936 87.678,58.061 C87.4389046,58.2300129 87.2339636,58.4427581 87.074,58.688 L86.454,61.788 C86.554,62.034 86.707,62.226 86.91,62.365 C87.113,62.504 87.373,62.573 87.69,62.573 C88.154,62.573 88.541,62.39 88.85,62.025 C89.158,61.66 89.377,61.165 89.506,60.54 L89.529,60.417 Z M91.803,60.124 C91.959,59.147 92.317,58.365 92.878,57.777 C93.438,57.189 94.131,56.895 94.955,56.895 C95.745,56.895 96.335,57.201 96.728,57.812 C97.12,58.424 97.242,59.194 97.094,60.124 L97.076,60.253 C96.916,61.233 96.556,62.015 95.996,62.599 C95.435,63.183 94.742,63.475 93.918,63.475 C93.128,63.475 92.538,63.171 92.146,62.561 C91.753,61.952 91.633,61.182 91.786,60.253 L91.803,60.123 L91.803,60.124 Z M92.916,60.253 C92.803,60.952 92.836,61.513 93.019,61.937 C93.2,62.361 93.547,62.573 94.059,62.573 C94.535,62.573 94.941,62.351 95.277,61.908 C95.613,61.465 95.834,60.913 95.939,60.253 L95.957,60.123 C96.067,59.436 96.029,58.878 95.846,58.448 C95.662,58.018 95.318,57.804 94.814,57.804 C94.334,57.804 93.927,58.026 93.593,58.472 C93.259,58.917 93.039,59.468 92.933,60.124 L92.916,60.253 Z M101.084,60.183 C101.299,59.093 101.644,58.273 102.118,57.722 C102.593,57.171 103.203,56.895 103.949,56.895 C104.273,56.895 104.567,56.963 104.831,57.097 C105.095,57.232 105.311,57.423 105.479,57.669 L106.169,54.212 L107.301,54.212 L105.473,63.352 L104.5,63.352 L104.541,62.743 C104.105252,63.2149809 103.490346,63.4808471 102.848,63.475 C102.168,63.475 101.655,63.171 101.31,62.561 C100.964,61.952 100.88,61.2 101.06,60.305 L101.084,60.182 L101.084,60.183 Z M102.197,60.305 C102.061,60.977 102.086,61.517 102.273,61.925 C102.461,62.334 102.813,62.538 103.328,62.538 C103.605,62.538 103.854,62.461 104.075,62.306 C104.31823,62.1278603 104.524408,61.9040203 104.682,61.647 L105.279,58.653 C105.185956,58.4138078 105.026323,58.2062848 104.819,58.055 C104.614,57.907 104.359,57.833 104.055,57.833 C103.585,57.833 103.198,58.045 102.892,58.469 C102.585,58.892 102.362,59.464 102.221,60.182 L102.197,60.305 Z M109.668,63.475 C108.871,63.475 108.268,63.18 107.86,62.588 C107.452,61.996 107.322,61.235 107.47,60.305 L107.512,60.048 C107.66,59.11 108.03,58.35 108.622,57.768 C109.214,57.186 109.854,56.895 110.541,56.895 C111.318,56.895 111.875,57.155 112.211,57.675 C112.547,58.195 112.648,58.88 112.516,59.731 L112.398,60.452 L108.578,60.452 C108.492,61.1 108.552,61.616 108.757,61.999 C108.962,62.382 109.312,62.573 109.809,62.573 C110.44864,62.5769916 111.069135,62.3549308 111.561,61.946 L111.883,62.696 C111.615533,62.9367694 111.305588,63.1256527 110.969,63.253 C110.598,63.401 110.164,63.475 109.668,63.475 Z M110.4,57.804 C110.072,57.804 109.755,57.968 109.448,58.296 C109.13177,58.6418121 108.905455,59.0600996 108.789,59.514 L108.807,59.55 L111.414,59.55 L111.437,59.397 C111.512,58.925 111.467,58.541 111.303,58.246 C111.139,57.951 110.838,57.804 110.4,57.804 Z M118.023,59.655 L117.285,63.352 L116.148,63.352 L117.854,54.827 L120.754,54.827 C121.566,54.827 122.173,55.037 122.574,55.46 C122.974,55.882 123.098,56.48 122.945,57.253 C122.848,57.725 122.661,58.12 122.385,58.436 C122.11,58.753 121.746,59.003 121.293,59.186 C121.676,59.346 121.936,59.598 122.073,59.942 C122.209,60.286 122.23,60.698 122.137,61.179 L121.979,61.981 C121.919,62.263 121.899,62.504 121.914,62.705 C121.93,62.906 121.99,63.075 122.096,63.212 L122.066,63.352 L120.9,63.352 C120.783,63.22 120.73,63.026 120.742,62.772 C120.754,62.518 120.789,62.251 120.848,61.97 L121.006,61.19 C121.104,60.702 121.061,60.324 120.877,60.056 C120.693,59.789 120.397,59.656 119.987,59.656 L118.023,59.656 L118.023,59.655 Z M118.205,58.747 L119.857,58.747 C120.404,58.747 120.843,58.619 121.173,58.363 C121.503,58.107 121.719,57.733 121.82,57.241 C121.922,56.733 121.875,56.354 121.68,56.104 C121.484,55.854 121.115,55.729 120.572,55.729 L118.809,55.729 L118.205,58.747 Z M125.951,63.475 C125.154,63.475 124.551,63.18 124.144,62.588 C123.735,61.996 123.605,61.235 123.754,60.305 L123.794,60.048 C123.944,59.11 124.314,58.35 124.905,57.768 C125.497,57.186 126.137,56.895 126.825,56.895 C127.602,56.895 128.158,57.155 128.495,57.675 C128.83,58.195 128.932,58.88 128.799,59.731 L128.682,60.452 L124.862,60.452 C124.775,61.1 124.835,61.616 125.04,61.999 C125.245,62.382 125.596,62.573 126.092,62.573 C126.73164,62.5769916 127.352135,62.3549308 127.844,61.946 L128.166,62.696 C127.898533,62.9367694 127.588588,63.1256527 127.252,63.253 C126.881,63.401 126.447,63.475 125.952,63.475 L125.951,63.475 Z M126.684,57.804 C126.355,57.804 126.038,57.968 125.731,58.296 C125.41477,58.6418121 125.188455,59.0600996 125.072,59.514 L125.09,59.55 L127.697,59.55 L127.721,59.397 C127.795,58.925 127.75,58.541 127.586,58.246 C127.422,57.951 127.121,57.804 126.684,57.804 Z M133.158,61.671 C133.201,61.409 133.148,61.198 133,61.038 C132.852,60.878 132.543,60.738 132.074,60.616 C131.383,60.448 130.876,60.22 130.554,59.93 C130.231,59.641 130.111,59.25 130.194,58.759 C130.279,58.223 130.554,57.779 131.02,57.426 C131.484,57.072 132.049,56.896 132.713,56.896 C133.377,56.896 133.889,57.086 134.248,57.47 C134.608,57.852 134.736,58.311 134.635,58.847 L134.617,58.882 L133.533,58.882 C133.58473,58.6157058 133.5163,58.3401552 133.346,58.129 C133.174,57.912 132.916,57.804 132.572,57.804 C132.221,57.804 131.936,57.894 131.717,58.076 C131.511322,58.2354099 131.373166,58.4663839 131.33,58.723 C131.287,58.985 131.333,59.184 131.468,59.321 C131.603,59.458 131.908,59.585 132.385,59.702 C133.107,59.874 133.627,60.107 133.943,60.402 C134.26,60.697 134.379,61.092 134.301,61.589 C134.221273,62.1484898 133.910814,62.648996 133.445,62.969 C132.969,63.306 132.383,63.475 131.688,63.475 C130.961,63.475 130.406,63.268 130.023,62.855 C129.641,62.44 129.503,61.964 129.613,61.425 L129.625,61.389 L130.709,61.389 C130.659,61.799 130.746,62.099 130.973,62.289 C131.199,62.479 131.484,62.573 131.828,62.573 C132.184,62.573 132.483,62.489 132.728,62.321 C132.957152,62.1752456 133.113499,61.9389082 133.158,61.671 Z M137.852,63.475 C137.055,63.475 136.452,63.18 136.044,62.588 C135.636,61.996 135.506,61.235 135.654,60.305 L135.695,60.048 C135.844,59.11 136.214,58.35 136.805,57.768 C137.397,57.186 138.037,56.895 138.725,56.895 C139.502,56.895 140.059,57.155 140.395,57.675 C140.73,58.195 140.832,58.88 140.699,59.731 L140.582,60.452 L136.762,60.452 C136.676,61.1 136.735,61.616 136.94,61.999 C137.146,62.382 137.496,62.573 137.992,62.573 C138.63164,62.5769916 139.252135,62.3549308 139.744,61.946 L140.066,62.696 C139.798533,62.9367694 139.488588,63.1256527 139.152,63.253 C138.782,63.401 138.348,63.475 137.852,63.475 Z M138.584,57.804 C138.256,57.804 137.938,57.968 137.632,58.296 C137.315409,58.6417065 137.088746,59.0600028 136.972,59.514 L136.99,59.55 L139.598,59.55 L139.621,59.397 C139.695,58.925 139.651,58.541 139.486,58.246 C139.322,57.951 139.021,57.804 138.584,57.804 Z M144.361,55.484 L144.051,57.013 L145.146,57.013 L144.976,57.868 L143.881,57.868 L143.113,61.718 C143.047,62.034 143.057,62.248 143.143,62.359 C143.229,62.471 143.367,62.526 143.559,62.526 C143.649,62.526 143.757,62.517 143.884,62.5 C144.011,62.482 144.111,62.464 144.186,62.444 L144.18,63.235 C144.066,63.305 143.905,63.363 143.696,63.408 C143.492951,63.4521394 143.285791,63.4745986 143.078,63.475 C142.668,63.475 142.353,63.331 142.132,63.042 C141.912,62.752 141.862,62.312 141.982,61.718 L142.75,57.868 L141.824,57.868 L141.994,57.013 L142.92,57.013 L143.23,55.483 L144.361,55.483 L144.361,55.484 Z" id="Shape" fill="#6D6E70" fill-rule="nonzero"></path>
            <path d="M23.042,179.652 L21.592,179.652 L21.592,168.988 L23.042,168.988 L23.042,179.652 Z M26.777,171.727 L26.879,172.907 C27.143,172.487 27.474,172.16 27.872,171.928 C28.27,171.697 28.722,171.581 29.231,171.581 C30.085,171.581 30.747,171.831 31.215,172.331 C31.685,172.831 31.919,173.604 31.919,174.649 L31.919,179.652 L30.476,179.652 L30.476,174.679 C30.476,173.98 30.338,173.485 30.062,173.192 C29.786,172.899 29.365,172.752 28.798,172.752 C28.383,172.752 28.016,172.852 27.696,173.052 C27.376,173.252 27.121,173.526 26.931,173.873 L26.931,179.652 L25.488,179.652 L25.488,171.727 L26.777,171.727 Z M35.573,179.652 L34.13,179.652 L34.13,171.727 L35.573,171.727 L35.573,179.652 Z M35.573,169.698 L34.13,169.698 L34.13,168.226 L35.573,168.226 L35.573,169.698 Z M41.015,178.678 C41.494,178.678 41.915,178.53 42.279,178.235 C42.642,177.939 42.824,177.577 42.824,177.147 L44.121,177.147 L44.135,177.191 C44.16,177.875 43.855,178.481 43.223,179.011 C42.607623,179.534753 41.8230096,179.817257 41.015,179.806 C39.863,179.806 38.982,179.43 38.371,178.678 C37.761,177.926 37.456,176.981 37.456,175.843 L37.456,175.536 C37.456,174.408 37.762,173.466 38.375,172.712 C38.988,171.958 39.868,171.581 41.015,171.581 C41.943,171.581 42.701,171.854 43.289,172.401 C43.878,172.948 44.162,173.619 44.143,174.415 L44.128,174.459 L42.824,174.459 C42.824,173.976 42.654,173.564 42.312,173.225 C41.97,172.885 41.538,172.715 41.015,172.715 C40.258,172.715 39.718,172.988 39.393,173.532 C39.068,174.077 38.906,174.745 38.906,175.536 L38.906,175.843 C38.906,176.653 39.067,177.329 39.389,177.868 C39.712,178.408 40.254,178.678 41.015,178.678 Z M47.315,179.652 L45.87,179.652 L45.87,171.727 L47.313,171.727 L47.313,179.652 L47.315,179.652 Z M47.315,169.698 L45.87,169.698 L45.87,168.226 L47.313,168.226 L47.313,169.698 L47.315,169.698 Z M49.196,175.616 C49.196,174.444 49.514,173.479 50.149,172.719 C50.783,171.96 51.645,171.581 52.734,171.581 C53.833,171.581 54.701,171.959 55.338,172.716 C55.975,173.473 56.294,174.439 56.294,175.616 L56.294,175.777 C56.294,176.959 55.976,177.926 55.341,178.677 C54.707,179.43 53.842,179.806 52.749,179.806 C51.655,179.806 50.789,179.428 50.152,178.674 C49.515,177.92 49.196,176.954 49.196,175.777 L49.196,175.617 L49.196,175.616 Z M50.639,175.777 C50.639,176.617 50.816,177.311 51.17,177.857 C51.524,178.404 52.05,178.677 52.749,178.677 C53.437,178.677 53.959,178.404 54.316,177.857 C54.672,177.311 54.851,176.617 54.851,175.777 L54.851,175.617 C54.851,174.787 54.671,174.095 54.312,173.543 C53.953,172.992 53.427,172.716 52.734,172.716 C52.045,172.716 51.524,172.992 51.17,173.543 C50.816,174.095 50.64,174.786 50.64,175.616 L50.64,175.777 L50.639,175.777 Z M269.18,139.74 L264.316,139.74 L264.316,144.457 L262.873,144.457 L262.873,133.793 L269.926,133.793 L269.926,134.928 L264.316,134.928 L264.316,138.605 L269.179,138.605 L269.179,139.74 L269.18,139.74 Z M272.9,144.457 L271.457,144.457 L271.457,136.532 L272.9,136.532 L272.9,144.457 Z M272.9,134.503 L271.457,134.503 L271.457,133.031 L272.9,133.031 L272.9,134.503 Z M276.408,136.532 L276.511,137.712 C276.775,137.292 277.105,136.965 277.503,136.733 C277.901,136.502 278.354,136.386 278.862,136.386 C279.716,136.386 280.378,136.636 280.847,137.136 C281.316,137.636 281.55,138.409 281.55,139.454 L281.55,144.457 L280.107,144.457 L280.107,139.484 C280.107,138.785 279.969,138.29 279.693,137.997 C279.417,137.704 278.996,137.557 278.43,137.557 C278.015,137.557 277.647,137.657 277.328,137.857 C277.008,138.057 276.753,138.331 276.562,138.678 L276.562,144.457 L275.119,144.457 L275.119,136.532 L276.409,136.532 L276.408,136.532 Z M288.515,144.457 C288.466,144.217 288.429,144.007 288.402,143.823 C288.375002,143.639787 288.358974,143.455125 288.354,143.27 C288.086,143.651 287.735,143.97 287.304,144.226 C286.882648,144.479622 286.399791,144.612789 285.908,144.611 C285.083,144.611 284.454,144.399 284.022,143.977 C283.59,143.555 283.374,142.972 283.374,142.23 C283.374,141.473 283.68,140.881 284.293,140.454 C284.906,140.027 285.737,139.814 286.787,139.814 L288.354,139.814 L288.354,139.03 C288.354,138.566 288.213,138.198 287.929,137.927 C287.646,137.657 287.246,137.521 286.729,137.521 C286.264,137.521 285.887,137.639 285.597,137.876 C285.307,138.113 285.161,138.397 285.161,138.729 L283.784,138.729 L283.769,138.685 C283.739,138.109 284.012,137.582 284.586,137.103 C285.16,136.625 285.901,136.386 286.809,136.386 C287.707,136.386 288.429,136.614 288.977,137.07 C289.524,137.527 289.797,138.185 289.797,139.044 L289.797,142.86 C289.797,143.143 289.812,143.417 289.841,143.68 C289.871,143.944 289.924,144.203 290.002,144.457 L288.515,144.457 Z M286.12,143.402 C286.643,143.402 287.114,143.268 287.534,142.999 C287.954,142.731 288.227,142.423 288.354,142.076 L288.354,140.787 L286.736,140.787 C286.154,140.787 285.689,140.934 285.34,141.227 C284.991,141.52 284.817,141.864 284.817,142.26 C284.817,142.611 284.927,142.89 285.147,143.095 C285.366,143.3 285.691,143.402 286.12,143.402 Z M293.452,144.457 L292.009,144.457 L292.009,133.03 L293.452,133.03 L293.452,144.456 L293.452,144.457 Z" id="Shape" fill="#2A3052" fill-rule="nonzero"></path>
            <path d="M192.684,177.02 L189.832,177.02 L189.832,167.714 L192.684,167.714 L192.684,177.021 L192.684,177.02 Z M192.684,165.312 L189.832,165.312 L189.832,162.802 L192.684,162.802 L192.684,165.312 Z M206.355,171.425 C205.932,171.985 205.273,172.483 204.378,172.919 C203.483,173.355 202.352,173.574 200.984,173.574 C199.246,173.574 197.827,173.034 196.727,171.953 C195.627,170.872 195.077,169.469 195.077,167.743 L195.077,164.775 C195.077,163.056 195.605,161.655 196.663,160.571 C197.721,159.487 199.083,158.945 200.75,158.945 C202.482,158.945 203.808,159.366 204.73,160.209 C205.65,161.052 206.121,162.161 206.14,163.535 L206.121,163.593 L203.436,163.593 C203.383,162.838 203.143,162.241 202.713,161.801 C202.283,161.361 201.655,161.142 200.828,161.142 C199.956,161.142 199.253,161.479 198.718,162.152 C198.185,162.827 197.918,163.694 197.918,164.755 L197.918,167.744 C197.918,168.824 198.195,169.702 198.748,170.375 C199.301,171.049 200.047,171.386 200.984,171.386 C201.648,171.386 202.182,171.318 202.586,171.181 C202.99,171.044 203.296,170.875 203.504,170.673 L203.504,168.036 L200.984,168.036 L200.984,166.064 L206.355,166.064 L206.355,171.425 Z M214.773,173.369 C214.666646,173.121311 214.577109,172.866734 214.505,172.607 C214.429831,172.338331 214.375997,172.064145 214.344,171.787 C214.057792,172.293743 213.662611,172.730594 213.187,173.066 C212.708,173.404 212.137,173.574 211.473,173.574 C210.366,173.574 209.513,173.289 208.914,172.719 C208.315,172.149 208.016,171.373 208.016,170.39 C208.016,169.355 208.414,168.552 209.212,167.983 C210.009,167.413 211.173,167.128 212.703,167.128 L214.295,167.128 L214.295,166.288 C214.295,165.781 214.161,165.387 213.895,165.107 C213.628,164.827 213.234,164.687 212.713,164.687 C212.251,164.687 211.894,164.799 211.643,165.024 C211.393,165.248 211.268,165.559 211.268,165.956 L208.514,165.946 L208.504,165.888 C208.458,164.996 208.846,164.226 209.666,163.578 C210.486,162.931 211.564,162.607 212.898,162.607 C214.161,162.607 215.187,162.927 215.975,163.569 C216.762,164.21 217.156,165.123 217.156,166.308 L217.156,170.673 C217.156,171.168 217.194,171.633 217.269,172.07 C217.343,172.506 217.462,172.939 217.625,173.369 L214.773,173.369 Z M212.166,171.464 C212.667,171.464 213.113,171.341 213.504,171.094 C213.894,170.846 214.158,170.559 214.294,170.234 L214.294,168.74 L212.704,168.74 C212.098,168.74 211.639,168.891 211.326,169.194 C211.021691,169.477393 210.851341,169.876207 210.857,170.292 C210.857,170.644 210.975,170.927 211.209,171.142 C211.443,171.357 211.762,171.464 212.166,171.464 Z M221.922,162.802 L222.049,164.316 C222.4,163.776 222.833,163.356 223.348,163.056 C223.862,162.756 224.438,162.606 225.076,162.606 C226.144,162.606 226.977,162.942 227.576,163.613 C228.176,164.283 228.475,165.335 228.475,166.767 L228.475,173.369 L225.613,173.369 L225.613,166.777 C225.613,166.067 225.47,165.564 225.183,165.267 C224.897,164.972 224.464,164.824 223.885,164.824 C223.532804,164.818225 223.18437,164.897103 222.869,165.054 C222.569,165.206 222.319,165.423 222.117,165.703 L222.117,173.369 L219.266,173.369 L219.266,162.802 L221.922,162.802 Z M236.805,173.369 C236.698306,173.121336 236.608435,172.866758 236.536,172.607 C236.460831,172.338331 236.406997,172.064145 236.375,171.787 C236.088792,172.293743 235.693611,172.730594 235.218,173.066 C234.739,173.404 234.168,173.574 233.504,173.574 C232.397,173.574 231.544,173.289 230.945,172.719 C230.346,172.149 230.047,171.373 230.047,170.39 C230.047,169.355 230.446,168.552 231.243,167.983 C232.041,167.413 233.204,167.128 234.734,167.128 L236.326,167.128 L236.326,166.288 C236.326,165.781 236.193,165.387 235.926,165.107 C235.659,164.827 235.265,164.687 234.744,164.687 C234.282,164.687 233.925,164.799 233.674,165.024 C233.424,165.248 233.299,165.559 233.299,165.956 L230.545,165.946 L230.535,165.888 C230.49,164.996 230.877,164.226 231.697,163.578 C232.517,162.931 233.595,162.607 234.93,162.607 C236.193,162.607 237.218,162.927 238.006,163.569 C238.794,164.21 239.188,165.123 239.188,166.308 L239.188,170.673 C239.188,171.168 239.225,171.633 239.3,172.07 C239.375,172.506 239.494,172.939 239.656,173.369 L236.805,173.369 Z M234.197,171.464 C234.699,171.464 235.145,171.341 235.535,171.094 C235.925,170.846 236.189,170.559 236.326,170.234 L236.326,168.74 L234.734,168.74 C234.129,168.74 233.67,168.891 233.357,169.194 C233.05306,169.47757 232.883084,169.87636 232.889,170.292 C232.889,170.644 233.006,170.927 233.24,171.142 C233.475,171.357 233.794,171.464 234.197,171.464 Z M244.412,168.466 L241.561,168.466 L241.561,159.15 L244.412,159.15 L244.412,168.466 Z M244.412,173.369 L241.561,173.369 L241.561,170.869 L244.412,170.869 L244.412,173.369 Z" id="Shape" fill="#FFFFFF" fill-rule="nonzero"></path>
            <path d="M264.58,87.521 C264.391,88.456 264.016,89.185 263.455,89.709 C262.893,90.233 262.209,90.495 261.402,90.495 C260.672,90.495 260.092,90.195 259.658,89.597 C259.225,88.997 259.094,88.275 259.263,87.429 L259.517,86.159 C259.702,85.229 260.067,84.499 260.608,83.972 C261.15,83.444 261.812,83.181 262.593,83.181 C263.348,83.181 263.952,83.481 264.404,84.084 C264.857,84.686 265,85.409 264.834,86.252 L264.58,87.522 L264.58,87.521 Z M263.892,86.242 C264.028,85.559 263.959,85.009 263.684,84.594 C263.409,84.179 262.994,83.972 262.437,83.972 C261.967,83.972 261.554,84.174 261.194,84.577 C260.834,84.981 260.591,85.505 260.464,86.149 L260.205,87.429 C260.065,88.119 260.124,88.671 260.381,89.086 C260.638,89.501 261.031,89.709 261.558,89.709 C262.059,89.709 262.498,89.508 262.874,89.106 C263.25,88.704 263.504,88.176 263.638,87.521 L263.892,86.242 Z M269.902,88.049 C269.74,88.859 269.465,89.469 269.077,89.879 C268.69,90.29 268.192,90.495 267.583,90.495 C267.306,90.495 267.053,90.417 266.821,90.261 C266.585139,90.098837 266.395307,89.8783423 266.27,89.621 L266.02,90.393 L265.205,90.393 L266.729,82.775 L267.671,82.775 L267.11,85.588 C267.470193,85.2147105 267.968298,85.0063529 268.487,85.012 C269.057,85.012 269.479,85.293 269.754,85.856 C270.029,86.42 270.084,87.116 269.922,87.946 L269.902,88.049 Z M268.98,87.946 C269.107,87.308 269.096,86.79 268.948,86.391 C268.8,85.992 268.513,85.793 268.086,85.793 C267.852,85.793 267.634,85.868 267.434,86.018 C267.234,86.168 267.056,86.368 266.9,86.618 L266.436,88.952 C266.514,89.183 266.641,89.368 266.816,89.506 C266.992,89.645 267.219,89.714 267.496,89.714 C267.879,89.714 268.194,89.567 268.438,89.272 C268.682,88.977 268.856,88.57 268.96,88.049 L268.98,87.946 Z M272.695,85.109 L271.553,90.827 C271.436,91.407 271.222,91.835 270.911,92.111 C270.6,92.388 270.205,92.526 269.727,92.526 C269.559959,92.527173 269.394152,92.4973344 269.238,92.438 L269.453,91.682 C269.570091,91.71799 269.691544,91.7378396 269.814,91.741 C269.994,91.741 270.154,91.668 270.298,91.523 C270.441,91.378 270.545,91.146 270.611,90.827 L271.753,85.109 L272.695,85.109 Z M272.949,83.737 L272.002,83.737 L272.192,82.775 L273.14,82.775 L272.95,83.737 L272.949,83.737 Z M275.166,90.495 C274.502,90.495 274,90.249 273.66,89.755 C273.32,89.262 273.211,88.628 273.335,87.854 L273.369,87.639 C273.493,86.857 273.801,86.224 274.295,85.739 C274.788,85.254 275.321,85.012 275.894,85.012 C276.542,85.012 277.005,85.228 277.285,85.662 C277.565,86.094 277.65,86.665 277.539,87.375 L277.442,87.975 L274.258,87.975 C274.186,88.516 274.236,88.945 274.407,89.265 C274.577,89.584 274.87,89.743 275.283,89.743 C275.815966,89.7464379 276.333029,89.5615703 276.743,89.221 L277.012,89.846 C276.813,90.031 276.559,90.186 276.25,90.31 C275.94,90.433 275.58,90.495 275.166,90.495 Z M275.776,85.769 C275.503,85.769 275.239,85.905 274.983,86.179 C274.719146,86.4670688 274.530256,86.8156564 274.433,87.194 L274.448,87.224 L276.621,87.224 L276.641,87.097 C276.703,86.703 276.665,86.383 276.528,86.137 C276.392,85.891 276.141,85.769 275.777,85.769 L275.776,85.769 Z M280.591,83.835 L280.332,85.109 L281.245,85.109 L281.104,85.822 L280.191,85.822 L279.551,89.03 C279.496,89.294 279.504,89.472 279.575,89.565 C279.647,89.658 279.763,89.705 279.922,89.705 C279.997,89.705 280.087,89.697 280.193,89.682 C280.299,89.667 280.383,89.652 280.444,89.636 L280.44,90.295 C280.314582,90.3650178 280.17839,90.4136821 280.037,90.439 C279.8678,90.4758438 279.695165,90.4946158 279.522,90.495 C279.18,90.495 278.917,90.375 278.733,90.134 C278.549,89.893 278.508,89.525 278.609,89.03 L279.249,85.822 L278.477,85.822 L278.618,85.109 L279.39,85.109 L279.649,83.835 L280.591,83.835 Z M282.383,90.393 L281.441,90.393 L282.495,85.109 L283.438,85.109 L282.383,90.393 Z M283.711,83.757 L282.769,83.757 L282.964,82.775 L283.906,82.775 L283.711,83.757 Z M285.786,88.835 L285.801,89.147 L285.831,89.152 L285.952,88.835 L287.652,85.109 L288.613,85.109 L285.967,90.393 L285.259,90.393 L284.278,85.109 L285.244,85.109 L285.786,88.835 Z M288.77,87.702 C288.9,86.888 289.199,86.236 289.666,85.747 C290.111365,85.2663609 290.740872,84.9989117 291.396,85.012 C292.054,85.012 292.546,85.266 292.874,85.776 C293.201,86.286 293.303,86.927 293.179,87.702 L293.164,87.81 C293.031,88.627 292.73,89.278 292.264,89.765 C291.816678,90.2434648 291.186852,90.5089226 290.532,90.495 C289.875,90.495 289.382,90.241 289.055,89.733 C288.728,89.226 288.628,88.584 288.755,87.81 L288.77,87.702 Z M289.697,87.81 C289.603,88.392 289.632,88.86 289.783,89.213 C289.934,89.567 290.223,89.743 290.65,89.743 C291.047,89.743 291.385,89.558 291.665,89.189 C291.945,88.819 292.129,88.359 292.217,87.809 L292.232,87.702 C292.322,87.129 292.292,86.664 292.139,86.306 C291.986,85.948 291.699,85.769 291.279,85.769 C290.879,85.769 290.539,85.954 290.261,86.325 C289.983,86.696 289.8,87.155 289.712,87.702 L289.697,87.81 Z" id="Shape" fill="#6D6E70" fill-rule="nonzero"></path>
        </g>
    </g>
</svg>