<svg width="299" height="197" xmlns="http://www.w3.org/2000/svg"><g fill="none" fill-rule="evenodd"><path fill="#F1F2F2" d="M0 0h299v197H0z"/><path d="M1.987 1.98v193.04h295.026V1.98H1.987zM299 0v197H0V0h299z" fill="#C2C2C2" fill-rule="nonzero"/><g fill-rule="nonzero"><path d="M4 54.894v-1.207h290v1.207H4zM4 75.22v-1.207h290v1.207H4zm0 20.29v-1.207h290v1.207H4zm0 40.618v-1.207h290v1.207H4zm0 20.29v-1.207h290v1.207H4zm0 20.29v-1.207h290v1.207H4zM38.42 34h1.209v160H38.42V34zm36.709 0h1.208v160h-1.208V34zm36.67 0h1.209v160H111.8V34zm36.71 0h1.207v160h-1.208V34zm36.67 0h1.208v160h-1.208V34zm36.671 0h1.208v160h-1.208V34zm36.708 0h1.209v160h-1.209V34z" fill="#DFDEDE"/><path fill="#C2C2C2" d="M.805 33.951v-2.447H298.63v2.447z"/></g><path d="M24.941 12.523h-3.484V22h-2.344v-9.477h-3.437v-1.898h9.265v1.898zm4.383 9.633c-1.24 0-2.248-.38-3.027-1.14-.779-.76-1.168-1.774-1.168-3.04v-.218c0-.85.164-1.608.492-2.278a3.612 3.612 0 0 1 1.395-1.546c.601-.362 1.287-.543 2.058-.543 1.156 0 2.067.364 2.73 1.093.665.73.997 1.763.997 3.102v.922h-5.383c.073.552.293.995.66 1.328.367.333.832.5 1.395.5.87 0 1.55-.315 2.039-.945l1.11 1.242a3.39 3.39 0 0 1-1.376 1.12 4.511 4.511 0 0 1-1.922.403zm-.258-6.937c-.448 0-.81.15-1.09.453-.278.302-.456.734-.535 1.297h3.141v-.18c-.01-.5-.146-.887-.406-1.16-.26-.274-.63-.41-1.11-.41zm7.094-1.672l.07.976c.605-.755 1.415-1.132 2.43-1.132.896 0 1.563.263 2 .789.438.526.662 1.312.672 2.36V22h-2.258v-5.406c0-.48-.104-.827-.312-1.043-.209-.216-.555-.324-1.04-.324-.635 0-1.111.27-1.429.812V22h-2.258v-8.453h2.125zm6.531 4.164c0-1.318.296-2.367.887-3.148.591-.782 1.4-1.172 2.426-1.172.823 0 1.503.307 2.039.921V10h2.266v12h-2.04l-.109-.898c-.562.703-1.286 1.054-2.172 1.054-.995 0-1.793-.392-2.394-1.176-.602-.783-.903-1.873-.903-3.27zm2.258.164c0 .792.138 1.398.414 1.82.276.422.677.633 1.203.633.698 0 1.19-.294 1.477-.883V16.11c-.281-.588-.768-.882-1.461-.882-1.089 0-1.633.882-1.633 2.648zm11 4.281c-1.24 0-2.248-.38-3.027-1.14-.779-.76-1.168-1.774-1.168-3.04v-.218c0-.85.164-1.608.492-2.278a3.612 3.612 0 0 1 1.395-1.546c.601-.362 1.287-.543 2.058-.543 1.156 0 2.067.364 2.73 1.093.665.73.997 1.763.997 3.102v.922h-5.383c.073.552.293.995.66 1.328.367.333.832.5 1.395.5.87 0 1.55-.315 2.039-.945l1.11 1.242a3.39 3.39 0 0 1-1.376 1.12 4.511 4.511 0 0 1-1.922.403zm-.258-6.937c-.448 0-.81.15-1.09.453-.278.302-.456.734-.535 1.297h3.141v-.18c-.01-.5-.146-.887-.406-1.16-.26-.274-.63-.41-1.11-.41zm7.094-1.672l.07.976c.605-.755 1.415-1.132 2.43-1.132.896 0 1.563.263 2 .789.438.526.662 1.312.672 2.36V22h-2.258v-5.406c0-.48-.104-.827-.312-1.043-.209-.216-.555-.324-1.04-.324-.635 0-1.111.27-1.429.812V22H60.66v-8.453h2.125zm10.399 6.789c.416 0 .755-.115 1.015-.344.26-.229.396-.534.406-.914h2.118a2.896 2.896 0 0 1-.47 1.574 3.093 3.093 0 0 1-1.26 1.11 3.949 3.949 0 0 1-1.77.394c-1.209 0-2.162-.384-2.86-1.152-.698-.768-1.047-1.83-1.047-3.184v-.148c0-1.302.347-2.341 1.04-3.117.692-.776 1.643-1.164 2.851-1.164 1.057 0 1.905.3 2.543.902.638.602.962 1.402.973 2.402h-2.118c-.01-.437-.145-.793-.406-1.066-.26-.274-.604-.41-1.031-.41-.526 0-.923.191-1.191.574-.269.383-.403 1.004-.403 1.863v.235c0 .87.133 1.494.399 1.875.265.38.669.57 1.21.57zM80.394 22H78.13v-8.453h2.266V22zm-2.398-10.64c0-.34.113-.618.34-.837.227-.218.535-.328.926-.328.385 0 .692.11.922.328.229.22.343.498.343.836 0 .344-.116.625-.347.844-.232.219-.538.328-.918.328s-.686-.11-.918-.328a1.108 1.108 0 0 1-.348-.844zM87.152 22a2.507 2.507 0 0 1-.226-.758c-.547.61-1.258.914-2.133.914-.828 0-1.514-.24-2.059-.718a2.312 2.312 0 0 1-.816-1.813c0-.896.332-1.583.996-2.063.664-.479 1.624-.72 2.879-.726h1.039v-.484c0-.391-.1-.704-.3-.938-.201-.234-.518-.351-.95-.351-.38 0-.678.09-.894.273-.217.182-.325.432-.325.75h-2.258c0-.49.152-.943.454-1.36.302-.416.729-.743 1.28-.98.553-.237 1.173-.355 1.86-.355 1.042 0 1.869.261 2.48.785.613.523.919 1.259.919 2.207v3.664c.005.802.117 1.409.336 1.82V22h-2.282zm-1.867-1.57c.333 0 .64-.075.922-.223a1.46 1.46 0 0 0 .625-.598v-1.453h-.844c-1.13 0-1.731.39-1.804 1.172l-.008.133c0 .281.099.513.297.695.198.183.468.274.812.274zM99.715 22a2.507 2.507 0 0 1-.227-.758c-.547.61-1.258.914-2.133.914-.828 0-1.514-.24-2.058-.718a2.312 2.312 0 0 1-.817-1.813c0-.896.332-1.583.997-2.063.664-.479 1.623-.72 2.878-.726h1.04v-.484c0-.391-.1-.704-.301-.938-.2-.234-.517-.351-.95-.351-.38 0-.678.09-.894.273-.216.182-.324.432-.324.75h-2.258c0-.49.151-.943.453-1.36.302-.416.73-.743 1.281-.98.552-.237 1.172-.355 1.86-.355 1.041 0 1.868.261 2.48.785.612.523.918 1.259.918 2.207v3.664c.005.802.117 1.409.336 1.82V22h-2.281zm-1.867-1.57c.333 0 .64-.075.922-.223.28-.148.49-.348.625-.598v-1.453h-.844c-1.13 0-1.732.39-1.805 1.172l-.008.133c0 .281.1.513.297.695.198.183.469.274.813.274zM109.762 22h-2.266V10h2.266v12zm6.758 0a2.507 2.507 0 0 1-.227-.758c-.547.61-1.258.914-2.133.914-.828 0-1.514-.24-2.058-.718a2.312 2.312 0 0 1-.817-1.813c0-.896.332-1.583.996-2.063.664-.479 1.624-.72 2.88-.726h1.038v-.484c0-.391-.1-.704-.3-.938-.201-.234-.517-.351-.95-.351-.38 0-.678.09-.894.273-.216.182-.325.432-.325.75h-2.257c0-.49.15-.943.453-1.36.302-.416.729-.743 1.281-.98.552-.237 1.172-.355 1.86-.355 1.041 0 1.868.261 2.48.785.612.523.918 1.259.918 2.207v3.664c.005.802.117 1.409.336 1.82V22h-2.281zm-1.868-1.57c.334 0 .641-.075.922-.223a1.46 1.46 0 0 0 .625-.598v-1.453h-.844c-1.13 0-1.731.39-1.804 1.172l-.008.133c0 .281.099.513.297.695.198.183.469.274.812.274zm17.149-2.578c0 1.354-.29 2.41-.867 3.168-.579.757-1.386 1.136-2.422 1.136-.917 0-1.649-.351-2.196-1.054l-.101.898h-2.031V10h2.257v4.305c.521-.61 1.206-.914 2.055-.914 1.031 0 1.84.379 2.426 1.136.586.758.879 1.825.879 3.2v.125zm-2.258-.165c0-.854-.135-1.477-.406-1.87-.271-.394-.675-.59-1.211-.59-.719 0-1.214.294-1.485.882v3.336c.276.594.776.89 1.5.89.73 0 1.209-.358 1.438-1.077.11-.344.164-.867.164-1.57zM138.09 22a2.507 2.507 0 0 1-.227-.758c-.547.61-1.258.914-2.133.914-.828 0-1.514-.24-2.058-.718a2.312 2.312 0 0 1-.817-1.813c0-.896.332-1.583.997-2.063.664-.479 1.623-.72 2.878-.726h1.04v-.484c0-.391-.1-.704-.301-.938-.2-.234-.517-.351-.95-.351-.38 0-.678.09-.894.273-.216.182-.324.432-.324.75h-2.258c0-.49.151-.943.453-1.36.302-.416.73-.743 1.281-.98.552-.237 1.172-.355 1.86-.355 1.041 0 1.868.261 2.48.785.612.523.918 1.259.918 2.207v3.664c.005.802.117 1.409.336 1.82V22h-2.281zm-1.867-1.57c.333 0 .64-.075.922-.223.28-.148.49-.348.625-.598v-1.453h-.844c-1.13 0-1.732.39-1.805 1.172l-.008.133c0 .281.1.513.297.695.198.183.469.274.813.274zm7.937-6.883v8.914c0 .932-.247 1.657-.742 2.176-.495.518-1.208.777-2.14.777a4.59 4.59 0 0 1-1.118-.133v-1.789c.271.047.508.07.711.07.682 0 1.024-.361 1.024-1.085v-8.93h2.265zm-2.445-2.188c0-.338.113-.617.34-.836.226-.218.535-.328.925-.328.391 0 .7.11.926.328.227.22.34.498.34.836 0 .344-.116.625-.348.844-.231.219-.537.328-.918.328-.38 0-.686-.11-.917-.328a1.108 1.108 0 0 1-.348-.844zM150.825 22a2.507 2.507 0 0 1-.227-.758c-.547.61-1.258.914-2.133.914-.828 0-1.514-.24-2.059-.718a2.312 2.312 0 0 1-.816-1.813c0-.896.332-1.583.996-2.063.664-.479 1.624-.72 2.879-.726h1.039v-.484c0-.391-.1-.704-.3-.938-.201-.234-.518-.351-.95-.351-.38 0-.678.09-.895.273-.216.182-.324.432-.324.75h-2.258c0-.49.151-.943.453-1.36.303-.416.73-.743 1.282-.98s1.172-.355 1.86-.355c1.04 0 1.868.261 2.48.785.612.523.918 1.259.918 2.207v3.664c.005.802.117 1.409.335 1.82V22h-2.28zm-1.868-1.57c.333 0 .64-.075.922-.223a1.46 1.46 0 0 0 .625-.598v-1.453h-.844c-1.13 0-1.732.39-1.805 1.172l-.007.133c0 .281.099.513.297.695.197.183.468.274.812.274z" fill="#000"/><path d="M125.444 80.798l-37.362-26.79a1 1 0 0 0-.49-.182l-34.958-3.291a1 1 0 1 0-.188 1.99l34.69 3.266L124.44 82.54a1 1 0 0 0 .357.161l36.539 8.486 36.349 23.682a1 1 0 0 0 .424.154l37.44 4.595a1 1 0 1 0 .243-1.986l-37.21-4.565-36.302-23.652a1 1 0 0 0-.32-.136l-36.516-8.48zm36.064 10.429l-.32-.136.148.096.172.04zm-74.103-35.41l-.489-.183.22.157.27.026z" fill="#2A3052" fill-rule="nonzero"/><path d="M190.262 150.563h-35.1l-5.4-8.213-5.4 8.213h-35.1c-2.624 0-4.725 2.137-4.725 4.8v24.787c0 2.662 2.138 4.8 4.725 4.8h81c2.625 0 4.726-2.137 4.726-4.8v-24.787c0-2.663-2.138-4.8-4.726-4.8z" fill="#E88024"/><text fill="#FFF" font-family="Roboto-Bold, Roboto" font-size="22" font-weight="bold"><tspan x="119.029" y="174">¡Gana!</tspan></text><ellipse cx="8.512" cy="9.225" rx="8.137" ry="8.475" opacity=".6" transform="translate(226.75 109.75)" fill="#FFF"/><path d="M235.262 127.773c-4.675 0-8.46-3.942-8.46-8.798s3.785-8.798 8.46-8.798c4.676 0 8.461 3.942 8.461 8.798s-3.785 8.798-8.46 8.798zm0-.646c4.313 0 7.815-3.647 7.815-8.152 0-4.505-3.502-8.152-7.815-8.152-4.312 0-7.814 3.647-7.814 8.152 0 4.505 3.502 8.152 7.814 8.152z" fill="#E88024" fill-rule="nonzero"/><ellipse cx="8.137" cy="8.475" rx="8.137" ry="8.475" opacity=".6" transform="translate(79.5 47)" fill="#FFF"/><path d="M87.638 64.273c-4.676 0-8.461-3.942-8.461-8.798s3.785-8.798 8.46-8.798c4.676 0 8.461 3.942 8.461 8.798s-3.785 8.798-8.46 8.798zm0-.646c4.312 0 7.814-3.647 7.814-8.152 0-4.505-3.502-8.152-7.814-8.152-4.313 0-7.815 3.647-7.815 8.152 0 4.505 3.502 8.152 7.815 8.152z" fill="#E88024" fill-rule="nonzero"/><path d="M4 135.5h289.284" stroke="#2A3052" stroke-linejoin="round"/><path d="M243.965 98.463l.1 1.042a2.274 2.274 0 0 1 2.019-1.143c.74 0 1.311.202 1.715.672.404.438.606 1.11.606 2.018v4.373h-1.245v-4.339c0-.605-.134-1.043-.37-1.312-.235-.269-.605-.37-1.076-.37-.37 0-.673.101-.942.27a1.93 1.93 0 0 0-.673.706v5.045h-1.244v-6.929l1.11-.033zm10.394 6.397c-.034-.167-.034-.3-.034-.468-.243.337-.55.621-.905.837a2.18 2.18 0 0 1-1.206.335c-.703 0-1.24-.167-1.608-.57a2.044 2.044 0 0 1-.57-1.507c0-.67.269-1.172.805-1.541s1.24-.57 2.144-.57h1.34v-.67c0-.402-.134-.737-.368-.971-.235-.235-.604-.369-1.04-.369-.401 0-.736.1-.97.302-.235.2-.37.469-.37.737h-1.172v-.034c-.033-.502.201-.971.704-1.373.502-.402 1.139-.637 1.91-.637.77 0 1.407.201 1.876.603.469.402.703.972.703 1.709v3.317c0 .234 0 .469.034.703.033.235.067.47.134.67h-1.307v.067c-.033-.2-.067-.402-.1-.57zm-2.028-.401c.435 0 .87-.1 1.206-.335.368-.235.603-.503.703-.804v-1.106h-1.373c-.503 0-.905.134-1.206.369a1.121 1.121 0 0 0-.436.904c0 .302.1.536.268.737.201.134.47.235.838.235zm-14.021-8.265v.945h-4.53v3.208h3.86v.972h-3.86v4.106h-1.33v-9.23l5.86-.001zm1.33 2.369h1.23v6.772h-1.23v-6.772zm.016-3.075v1.22h1.254v-1.22h-1.254zm17.857-.046h1.246v9.85h-1.246v-9.85zM38.068 65.292l.114 1.173a2.557 2.557 0 0 1 2.269-1.286c.832 0 1.475.227 1.929.756.454.492.68 1.248.68 2.27v4.916h-1.399v-4.879c0-.68-.151-1.172-.416-1.475-.265-.302-.68-.416-1.21-.416-.416 0-.756.114-1.059.303a2.188 2.188 0 0 0-.756.794v5.673h-1.4v-7.79l1.248-.039zm-4.893-2.709h1.334v10.538h-1.334V62.583zm23.168 2.709h1.362v7.497h-1.362v-7.497zm.018-3.405v1.352h1.388v-1.352h-1.388zM45.17 65.292h1.363v7.497H45.17v-7.497zm.02-3.405v1.352h1.387v-1.352H45.19zm8.158 6.082c.763-.028 1.15 0 1.31 0 0-.854-.561-2.82-3.134-2.743-2.574.077-3.26 2.889-3.147 4.467.114 1.578 1.147 3.51 3.44 3.442 2.294-.068 2.842-1.921 2.842-2.564a95.41 95.41 0 0 0-1.311 0c0 .63-.44 1.404-1.53 1.478-1.092.073-1.912-.776-2.017-2.356-.105-1.58.326-3.392 1.753-3.392 1.428 0 1.794 1.066 1.794 1.668zm9.546-2.745c1.33 0 3.294.59 3.491 3.62.198 3.032-1.689 4.277-3.372 4.277-1.684 0-3.422-1.176-3.422-4.108 0-2.932 1.972-3.789 3.303-3.789zm.107 1.099c-1.342 0-2.024 1.14-2.024 2.717 0 1.577.477 3.028 2.024 3.028 1.546 0 2.126-1.458 2.003-3.144-.122-1.686-.662-2.601-2.003-2.601z" fill="#2A3052" fill-rule="nonzero"/></g></svg>