<?xml version="1.0" encoding="UTF-8"?>
<svg width="299px" height="197px" viewBox="0 0 299 197" version="1.1" xmlns="http://www.w3.org/2000/svg" xmlns:xlink="http://www.w3.org/1999/xlink">
    <!-- Generator: Sketch 52.6 (67491) - http://www.bohemiancoding.com/sketch -->
    <title>Run low</title>
    <desc>Created with Sketch.</desc>
    <g id="Run-low" stroke="none" stroke-width="1" fill="none" fill-rule="evenodd">
        <g id="fall">
            <polygon id="Path" fill="#F1F2F2" points="0 0 299 0 299 197 0 197"></polygon>
            <path d="M1.98671096,1.9798995 L1.98671096,195.020101 L297.013289,195.020101 L297.013289,1.9798995 L1.98671096,1.9798995 Z M299,0 L299,197 L0,197 L0,0 L299,0 Z" id="Path" fill="#C2C2C2" fill-rule="nonzero"></path>
            <g id="Group-3" transform="translate(0.000000, 31.000000)" fill-rule="nonzero">
                <path d="M4,23.8937052 L4,22.6865475 L294,22.6865475 L294,23.8937052 L4,23.8937052 Z M4,44.2212672 L4,43.0141095 L294,43.0141095 L294,44.2212672 L4,44.2212672 Z M4,64.5113935 L4,63.3042359 L294,63.3042359 L294,64.5113935 L4,64.5113935 Z M4,105.129082 L4,103.921924 L294,103.921924 L294,105.129082 L4,105.129082 Z M4,125.419208 L4,124.212051 L294,124.212051 L294,125.419208 L4,125.419208 Z M4,145.709335 L4,144.502177 L294,144.502177 L294,145.709335 L4,145.709335 Z M38.4203806,3 L39.6286516,3 L39.6286516,163 L38.4203806,163 L38.4203806,3 Z M75.1287677,3 L76.3370387,3 L76.3370387,163 L75.1287677,163 L75.1287677,3 Z M111.799735,3 L113.008006,3 L113.008006,163 L111.799735,163 L111.799735,3 Z M148.508123,3 L149.716394,3 L149.716394,163 L148.508123,163 L148.508123,3 Z M185.17909,3 L186.387361,3 L186.387361,163 L185.17909,163 L185.17909,3 Z M221.850058,3 L223.058329,3 L223.058329,163 L221.850058,163 L221.850058,3 Z M258.558445,3 L259.766716,3 L259.766716,163 L258.558445,163 L258.558445,3 Z" id="Shape" fill="#DFDEDE"></path>
                <polygon id="Path" fill="#C2C2C2" points="0.804766102 2.95109019 0.804766102 0.504306039 298.631318 0.504306039 298.631318 2.95109019"></polygon>
            </g>
        </g>
        <path d="M24.9414062,12.5234375 L21.4570312,12.5234375 L21.4570312,22 L19.1132812,22 L19.1132812,12.5234375 L15.6757812,12.5234375 L15.6757812,10.625 L24.9414062,10.625 L24.9414062,12.5234375 Z M29.3242188,22.15625 C28.0846292,22.15625 27.0755247,21.7760455 26.296875,21.015625 C25.5182253,20.2552045 25.1289062,19.2421938 25.1289062,17.9765625 L25.1289062,17.7578125 C25.1289062,16.9088499 25.2929671,16.1497429 25.6210938,15.4804688 C25.9492204,14.8111946 26.4140595,14.2955747 27.015625,13.9335938 C27.6171905,13.5716128 28.3033816,13.390625 29.0742188,13.390625 C30.2304745,13.390625 31.1406217,13.7552047 31.8046875,14.484375 C32.4687533,15.2135453 32.8007812,16.2473891 32.8007812,17.5859375 L32.8007812,18.5078125 L27.4179688,18.5078125 C27.4908858,19.0598986 27.7109357,19.5026025 28.078125,19.8359375 C28.4453143,20.1692725 28.9101534,20.3359375 29.4726562,20.3359375 C30.3424523,20.3359375 31.022133,20.0208365 31.5117188,19.390625 L32.6210938,20.6328125 C32.2825504,21.1119816 31.8242216,21.4856757 31.2460938,21.7539062 C30.6679659,22.0221368 30.0273473,22.15625 29.3242188,22.15625 Z M29.0664062,15.21875 C28.6184873,15.21875 28.2552097,15.3697902 27.9765625,15.671875 C27.6979153,15.9739598 27.5195316,16.4062472 27.4414062,16.96875 L30.5820312,16.96875 L30.5820312,16.7890625 C30.5716145,16.28906 30.4361992,15.9023451 30.1757812,15.6289062 C29.9153633,15.3554674 29.5455753,15.21875 29.0664062,15.21875 Z M36.1601562,13.546875 L36.2304688,14.5234375 C36.8346384,13.7682254 37.6445262,13.390625 38.6601562,13.390625 C39.5559941,13.390625 40.2226541,13.6536432 40.6601562,14.1796875 C41.0976584,14.7057318 41.3216145,15.4921823 41.3320312,16.5390625 L41.3320312,22 L39.0742188,22 L39.0742188,16.59375 C39.0742188,16.1145809 38.9700531,15.7669282 38.7617188,15.5507812 C38.5533844,15.3346343 38.2070337,15.2265625 37.7226562,15.2265625 C37.0872364,15.2265625 36.6106787,15.4973931 36.2929688,16.0390625 L36.2929688,22 L34.0351562,22 L34.0351562,13.546875 L36.1601562,13.546875 Z M42.6914062,17.7109375 C42.6914062,16.3932226 42.9869762,15.3437539 43.578125,14.5625 C44.1692738,13.7812461 44.9778595,13.390625 46.0039062,13.390625 C46.826827,13.390625 47.5065077,13.6979136 48.0429688,14.3125 L48.0429688,10 L50.3085938,10 L50.3085938,22 L48.2695312,22 L48.1601562,21.1015625 C47.5976534,21.804691 46.8737023,22.15625 45.9882812,22.15625 C44.9934846,22.15625 44.1953155,21.7643268 43.59375,20.9804688 C42.9921845,20.1966107 42.6914062,19.1067778 42.6914062,17.7109375 Z M44.9492188,17.875 C44.9492188,18.6666706 45.0872382,19.2734354 45.3632812,19.6953125 C45.6393243,20.1171896 46.040362,20.328125 46.5664062,20.328125 C47.2643264,20.328125 47.756509,20.0338571 48.0429688,19.4453125 L48.0429688,16.109375 C47.7617173,15.5208304 47.274743,15.2265625 46.5820312,15.2265625 C45.4934841,15.2265625 44.9492188,16.1093662 44.9492188,17.875 Z M55.9492188,22.15625 C54.7096292,22.15625 53.7005247,21.7760455 52.921875,21.015625 C52.1432253,20.2552045 51.7539062,19.2421938 51.7539062,17.9765625 L51.7539062,17.7578125 C51.7539062,16.9088499 51.9179671,16.1497429 52.2460938,15.4804688 C52.5742204,14.8111946 53.0390595,14.2955747 53.640625,13.9335938 C54.2421905,13.5716128 54.9283816,13.390625 55.6992188,13.390625 C56.8554745,13.390625 57.7656217,13.7552047 58.4296875,14.484375 C59.0937533,15.2135453 59.4257812,16.2473891 59.4257812,17.5859375 L59.4257812,18.5078125 L54.0429688,18.5078125 C54.1158858,19.0598986 54.3359357,19.5026025 54.703125,19.8359375 C55.0703143,20.1692725 55.5351534,20.3359375 56.0976562,20.3359375 C56.9674523,20.3359375 57.647133,20.0208365 58.1367188,19.390625 L59.2460938,20.6328125 C58.9075504,21.1119816 58.4492216,21.4856757 57.8710938,21.7539062 C57.2929659,22.0221368 56.6523473,22.15625 55.9492188,22.15625 Z M55.6914062,15.21875 C55.2434873,15.21875 54.8802097,15.3697902 54.6015625,15.671875 C54.3229153,15.9739598 54.1445316,16.4062472 54.0664062,16.96875 L57.2070312,16.96875 L57.2070312,16.7890625 C57.1966145,16.28906 57.0611992,15.9023451 56.8007812,15.6289062 C56.5403633,15.3554674 56.1705753,15.21875 55.6914062,15.21875 Z M62.7851562,13.546875 L62.8554688,14.5234375 C63.4596384,13.7682254 64.2695262,13.390625 65.2851562,13.390625 C66.1809941,13.390625 66.8476541,13.6536432 67.2851562,14.1796875 C67.7226584,14.7057318 67.9466145,15.4921823 67.9570312,16.5390625 L67.9570312,22 L65.6992188,22 L65.6992188,16.59375 C65.6992188,16.1145809 65.5950531,15.7669282 65.3867188,15.5507812 C65.1783844,15.3346343 64.8320337,15.2265625 64.3476562,15.2265625 C63.7122364,15.2265625 63.2356787,15.4973931 62.9179688,16.0390625 L62.9179688,22 L60.6601562,22 L60.6601562,13.546875 L62.7851562,13.546875 Z M73.1835938,20.3359375 C73.6002625,20.3359375 73.9388008,20.2213553 74.1992188,19.9921875 C74.4596367,19.7630197 74.595052,19.4583352 74.6054688,19.078125 L76.7226562,19.078125 C76.7174479,19.6510445 76.5611995,20.1757789 76.2539062,20.6523438 C75.946613,21.1289086 75.5260443,21.4986966 74.9921875,21.7617188 C74.4583307,22.0247409 73.8684928,22.15625 73.2226562,22.15625 C72.0143169,22.15625 71.0612014,21.7721393 70.3632812,21.0039062 C69.6653611,20.2356732 69.3164062,19.1744859 69.3164062,17.8203125 L69.3164062,17.671875 C69.3164062,16.3697852 69.662757,15.330733 70.3554688,14.5546875 C71.0481805,13.778642 71.9986919,13.390625 73.2070312,13.390625 C74.2643282,13.390625 75.111976,13.6914032 75.75,14.2929688 C76.388024,14.8945343 76.7122395,15.6953075 76.7226562,16.6953125 L74.6054688,16.6953125 C74.595052,16.2578103 74.4596367,15.9023451 74.1992188,15.6289062 C73.9388008,15.3554674 73.5950542,15.21875 73.1679688,15.21875 C72.6419245,15.21875 72.244793,15.4101543 71.9765625,15.7929688 C71.708332,16.1757832 71.5742188,16.7968707 71.5742188,17.65625 L71.5742188,17.890625 C71.5742188,18.760421 71.7070299,19.3854148 71.9726562,19.765625 C72.2382826,20.1458352 72.6419244,20.3359375 73.1835938,20.3359375 Z M80.3945312,22 L78.1289062,22 L78.1289062,13.546875 L80.3945312,13.546875 L80.3945312,22 Z M77.9960938,11.359375 C77.9960938,11.0208316 78.1093739,10.7421886 78.3359375,10.5234375 C78.5625011,10.3046864 78.8710918,10.1953125 79.2617188,10.1953125 C79.6471373,10.1953125 79.9544259,10.3046864 80.1835938,10.5234375 C80.4127616,10.7421886 80.5273438,11.0208316 80.5273438,11.359375 C80.5273438,11.7031267 80.4114595,11.9843739 80.1796875,12.203125 C79.9479155,12.4218761 79.641929,12.53125 79.2617188,12.53125 C78.8815085,12.53125 78.575522,12.4218761 78.34375,12.203125 C78.111978,11.9843739 77.9960938,11.7031267 77.9960938,11.359375 Z M87.1523438,22 C87.0481766,21.796874 86.9726565,21.5442723 86.9257812,21.2421875 C86.3789035,21.8515655 85.6679731,22.15625 84.7929688,22.15625 C83.9648396,22.15625 83.2786486,21.9166691 82.734375,21.4375 C82.1901014,20.9583309 81.9179688,20.3541703 81.9179688,19.625 C81.9179688,18.7291622 82.2499967,18.0416691 82.9140625,17.5625 C83.5781283,17.0833309 84.5377541,16.8411459 85.7929688,16.8359375 L86.8320312,16.8359375 L86.8320312,16.3515625 C86.8320312,15.9609355 86.7317718,15.6484387 86.53125,15.4140625 C86.3307282,15.1796863 86.0143251,15.0625 85.5820312,15.0625 C85.201821,15.0625 84.9036469,15.1536449 84.6875,15.3359375 C84.4713531,15.5182301 84.3632812,15.7682276 84.3632812,16.0859375 L82.1054688,16.0859375 C82.1054688,15.5963517 82.2565089,15.1432312 82.5585938,14.7265625 C82.8606786,14.3098938 83.2877577,13.9830741 83.8398438,13.7460938 C84.3919298,13.5091134 85.0117153,13.390625 85.6992188,13.390625 C86.7408906,13.390625 87.5677053,13.6523411 88.1796875,14.1757812 C88.7916697,14.6992214 89.0976562,15.4348911 89.0976562,16.3828125 L89.0976562,20.046875 C89.1028646,20.8489623 89.2148427,21.4557271 89.4335938,21.8671875 L89.4335938,22 L87.1523438,22 Z M85.2851562,20.4296875 C85.6184913,20.4296875 85.9257798,20.3554695 86.2070312,20.2070312 C86.4882827,20.058593 86.6966139,19.8593763 86.8320312,19.609375 L86.8320312,18.15625 L85.9882812,18.15625 C84.8580673,18.15625 84.2565108,18.5468711 84.1835938,19.328125 L84.1757812,19.4609375 C84.1757812,19.7421889 84.2747386,19.9739574 84.4726562,20.15625 C84.6705739,20.3385426 84.9414045,20.4296875 85.2851562,20.4296875 Z M99.7148438,22 C99.6106766,21.796874 99.5351565,21.5442723 99.4882812,21.2421875 C98.9414035,21.8515655 98.2304731,22.15625 97.3554688,22.15625 C96.5273396,22.15625 95.8411486,21.9166691 95.296875,21.4375 C94.7526014,20.9583309 94.4804688,20.3541703 94.4804688,19.625 C94.4804688,18.7291622 94.8124967,18.0416691 95.4765625,17.5625 C96.1406283,17.0833309 97.1002541,16.8411459 98.3554688,16.8359375 L99.3945312,16.8359375 L99.3945312,16.3515625 C99.3945312,15.9609355 99.2942718,15.6484387 99.09375,15.4140625 C98.8932282,15.1796863 98.5768251,15.0625 98.1445312,15.0625 C97.764321,15.0625 97.4661469,15.1536449 97.25,15.3359375 C97.0338531,15.5182301 96.9257812,15.7682276 96.9257812,16.0859375 L94.6679688,16.0859375 C94.6679688,15.5963517 94.8190089,15.1432312 95.1210938,14.7265625 C95.4231786,14.3098938 95.8502577,13.9830741 96.4023438,13.7460938 C96.9544298,13.5091134 97.5742153,13.390625 98.2617188,13.390625 C99.3033906,13.390625 100.130205,13.6523411 100.742188,14.1757812 C101.35417,14.6992214 101.660156,15.4348911 101.660156,16.3828125 L101.660156,20.046875 C101.665365,20.8489623 101.777343,21.4557271 101.996094,21.8671875 L101.996094,22 L99.7148438,22 Z M97.8476562,20.4296875 C98.1809913,20.4296875 98.4882798,20.3554695 98.7695312,20.2070312 C99.0507827,20.058593 99.2591139,19.8593763 99.3945312,19.609375 L99.3945312,18.15625 L98.5507812,18.15625 C97.4205673,18.15625 96.8190108,18.5468711 96.7460938,19.328125 L96.7382812,19.4609375 C96.7382812,19.7421889 96.8372386,19.9739574 97.0351562,20.15625 C97.2330739,20.3385426 97.5039045,20.4296875 97.8476562,20.4296875 Z M109.761719,22 L107.496094,22 L107.496094,10 L109.761719,10 L109.761719,22 Z M116.519531,22 C116.415364,21.796874 116.339844,21.5442723 116.292969,21.2421875 C115.746091,21.8515655 115.035161,22.15625 114.160156,22.15625 C113.332027,22.15625 112.645836,21.9166691 112.101562,21.4375 C111.557289,20.9583309 111.285156,20.3541703 111.285156,19.625 C111.285156,18.7291622 111.617184,18.0416691 112.28125,17.5625 C112.945316,17.0833309 113.904942,16.8411459 115.160156,16.8359375 L116.199219,16.8359375 L116.199219,16.3515625 C116.199219,15.9609355 116.098959,15.6484387 115.898438,15.4140625 C115.697916,15.1796863 115.381513,15.0625 114.949219,15.0625 C114.569009,15.0625 114.270834,15.1536449 114.054688,15.3359375 C113.838541,15.5182301 113.730469,15.7682276 113.730469,16.0859375 L111.472656,16.0859375 C111.472656,15.5963517 111.623696,15.1432312 111.925781,14.7265625 C112.227866,14.3098938 112.654945,13.9830741 113.207031,13.7460938 C113.759117,13.5091134 114.378903,13.390625 115.066406,13.390625 C116.108078,13.390625 116.934893,13.6523411 117.546875,14.1757812 C118.158857,14.6992214 118.464844,15.4348911 118.464844,16.3828125 L118.464844,20.046875 C118.470052,20.8489623 118.58203,21.4557271 118.800781,21.8671875 L118.800781,22 L116.519531,22 Z M114.652344,20.4296875 C114.985679,20.4296875 115.292967,20.3554695 115.574219,20.2070312 C115.85547,20.058593 116.063801,19.8593763 116.199219,19.609375 L116.199219,18.15625 L115.355469,18.15625 C114.225255,18.15625 113.623698,18.5468711 113.550781,19.328125 L113.542969,19.4609375 C113.542969,19.7421889 113.641926,19.9739574 113.839844,20.15625 C114.037761,20.3385426 114.308592,20.4296875 114.652344,20.4296875 Z M131.800781,17.8515625 C131.800781,19.2057359 131.511722,20.261715 130.933594,21.0195312 C130.355466,21.7773475 129.548182,22.15625 128.511719,22.15625 C127.595047,22.15625 126.863284,21.804691 126.316406,21.1015625 L126.214844,22 L124.183594,22 L124.183594,10 L126.441406,10 L126.441406,14.3046875 C126.962242,13.6953095 127.647131,13.390625 128.496094,13.390625 C129.527349,13.390625 130.335935,13.7695275 130.921875,14.5273438 C131.507815,15.28516 131.800781,16.3515556 131.800781,17.7265625 L131.800781,17.8515625 Z M129.542969,17.6875 C129.542969,16.8333291 129.407553,16.2096374 129.136719,15.8164062 C128.865884,15.4231751 128.462242,15.2265625 127.925781,15.2265625 C127.207028,15.2265625 126.712241,15.5208304 126.441406,16.109375 L126.441406,19.4453125 C126.717449,20.0390655 127.217444,20.3359375 127.941406,20.3359375 C128.670577,20.3359375 129.149738,19.9765661 129.378906,19.2578125 C129.488282,18.9140608 129.542969,18.3906285 129.542969,17.6875 Z M138.089844,22 C137.985677,21.796874 137.910156,21.5442723 137.863281,21.2421875 C137.316404,21.8515655 136.605473,22.15625 135.730469,22.15625 C134.90234,22.15625 134.216149,21.9166691 133.671875,21.4375 C133.127601,20.9583309 132.855469,20.3541703 132.855469,19.625 C132.855469,18.7291622 133.187497,18.0416691 133.851562,17.5625 C134.515628,17.0833309 135.475254,16.8411459 136.730469,16.8359375 L137.769531,16.8359375 L137.769531,16.3515625 C137.769531,15.9609355 137.669272,15.6484387 137.46875,15.4140625 C137.268228,15.1796863 136.951825,15.0625 136.519531,15.0625 C136.139321,15.0625 135.841147,15.1536449 135.625,15.3359375 C135.408853,15.5182301 135.300781,15.7682276 135.300781,16.0859375 L133.042969,16.0859375 C133.042969,15.5963517 133.194009,15.1432312 133.496094,14.7265625 C133.798179,14.3098938 134.225258,13.9830741 134.777344,13.7460938 C135.32943,13.5091134 135.949215,13.390625 136.636719,13.390625 C137.678391,13.390625 138.505205,13.6523411 139.117188,14.1757812 C139.72917,14.6992214 140.035156,15.4348911 140.035156,16.3828125 L140.035156,20.046875 C140.040365,20.8489623 140.152343,21.4557271 140.371094,21.8671875 L140.371094,22 L138.089844,22 Z M136.222656,20.4296875 C136.555991,20.4296875 136.86328,20.3554695 137.144531,20.2070312 C137.425783,20.058593 137.634114,19.8593763 137.769531,19.609375 L137.769531,18.15625 L136.925781,18.15625 C135.795567,18.15625 135.194011,18.5468711 135.121094,19.328125 L135.113281,19.4609375 C135.113281,19.7421889 135.212239,19.9739574 135.410156,20.15625 C135.608074,20.3385426 135.878905,20.4296875 136.222656,20.4296875 Z M144.160156,13.546875 L144.160156,22.4609375 C144.160156,23.3932338 143.912763,24.118487 143.417969,24.6367188 C142.923175,25.1549505 142.20964,25.4140625 141.277344,25.4140625 C140.886717,25.4140625 140.514325,25.3697921 140.160156,25.28125 L140.160156,23.4921875 C140.430991,23.5390627 140.667968,23.5625 140.871094,23.5625 C141.553389,23.5625 141.894531,23.2005245 141.894531,22.4765625 L141.894531,13.546875 L144.160156,13.546875 Z M141.714844,11.359375 C141.714844,11.0208316 141.828124,10.7421886 142.054688,10.5234375 C142.281251,10.3046864 142.589842,10.1953125 142.980469,10.1953125 C143.371096,10.1953125 143.679686,10.3046864 143.90625,10.5234375 C144.132814,10.7421886 144.246094,11.0208316 144.246094,11.359375 C144.246094,11.7031267 144.130209,11.9843739 143.898438,12.203125 C143.666666,12.4218761 143.360679,12.53125 142.980469,12.53125 C142.600259,12.53125 142.294272,12.4218761 142.0625,12.203125 C141.830728,11.9843739 141.714844,11.7031267 141.714844,11.359375 Z M150.824219,22 C150.720052,21.796874 150.644531,21.5442723 150.597656,21.2421875 C150.050779,21.8515655 149.339848,22.15625 148.464844,22.15625 C147.636715,22.15625 146.950524,21.9166691 146.40625,21.4375 C145.861976,20.9583309 145.589844,20.3541703 145.589844,19.625 C145.589844,18.7291622 145.921872,18.0416691 146.585938,17.5625 C147.250003,17.0833309 148.209629,16.8411459 149.464844,16.8359375 L150.503906,16.8359375 L150.503906,16.3515625 C150.503906,15.9609355 150.403647,15.6484387 150.203125,15.4140625 C150.002603,15.1796863 149.6862,15.0625 149.253906,15.0625 C148.873696,15.0625 148.575522,15.1536449 148.359375,15.3359375 C148.143228,15.5182301 148.035156,15.7682276 148.035156,16.0859375 L145.777344,16.0859375 C145.777344,15.5963517 145.928384,15.1432312 146.230469,14.7265625 C146.532554,14.3098938 146.959633,13.9830741 147.511719,13.7460938 C148.063805,13.5091134 148.68359,13.390625 149.371094,13.390625 C150.412766,13.390625 151.23958,13.6523411 151.851562,14.1757812 C152.463545,14.6992214 152.769531,15.4348911 152.769531,16.3828125 L152.769531,20.046875 C152.77474,20.8489623 152.886718,21.4557271 153.105469,21.8671875 L153.105469,22 L150.824219,22 Z M148.957031,20.4296875 C149.290366,20.4296875 149.597655,20.3554695 149.878906,20.2070312 C150.160158,20.058593 150.368489,19.8593763 150.503906,19.609375 L150.503906,18.15625 L149.660156,18.15625 C148.529942,18.15625 147.928386,18.5468711 147.855469,19.328125 L147.847656,19.4609375 C147.847656,19.7421889 147.946614,19.9739574 148.144531,20.15625 C148.342449,20.3385426 148.61328,20.4296875 148.957031,20.4296875 Z" id="Tendencia-a-la-baja" fill="#000000"></path>
        <path d="M125.443646,89.3568667 L88.0816107,116.146678 C87.9376869,116.249877 87.7689387,116.313002 87.5926197,116.3296 L52.6337332,119.620597 C52.0838795,119.67236 51.5961731,119.268577 51.5444104,118.718724 C51.4926477,118.16887 51.8964302,117.681164 52.4462839,117.629401 L87.1359422,114.363749 L124.440364,87.6152484 C124.547408,87.5384942 124.668561,87.4836436 124.796865,87.4538471 L161.335859,78.9682258 L197.684572,55.2864593 C197.812297,55.2032448 197.957355,55.1503325 198.108661,55.1317664 L235.548618,50.5376731 C236.096791,50.4704091 236.595702,50.8602632 236.662966,51.4084366 C236.73023,51.9566099 236.340376,52.4555204 235.792202,52.5227843 L198.58221,57.0886597 L162.279803,80.7402568 C162.182013,80.8039685 162.073825,80.8500692 161.960137,80.8764715 L125.443646,89.3568667 Z M161.507708,78.9283165 L161.188041,79.0645313 L161.335859,78.9682258 L161.507708,78.9283165 Z M87.4051704,114.338404 L86.9161794,114.521326 L87.1359422,114.363749 L87.4051704,114.338404 Z" id="Shape" fill="#2A3052" fill-rule="nonzero" transform="translate(144.105227, 85.077597) scale(-1, 1) rotate(-180.000000) translate(-144.105227, -85.077597) "></path>
        <path d="M190.2625,150.5625 L155.1625,150.5625 L149.7625,142.35 L144.3625,150.5625 L109.2625,150.5625 C106.6375,150.5625 104.5375,152.7 104.5375,155.3625 L104.5375,180.15 C104.5375,182.8125 106.675,184.95 109.2625,184.95 L190.2625,184.95 C192.8875,184.95 194.9875,182.8125 194.9875,180.15 L194.9875,155.3625 C194.9875,152.7 192.85,150.5625 190.2625,150.5625 Z" id="Shape" fill="#E88024"></path>
        <text id="¡Gana!" fill="#FFFFFF" font-family="Roboto-Bold, Roboto" font-size="22" font-weight="bold">
            <tspan x="119.029" y="174">¡Gana!</tspan>
        </text>
        <g id="Oval" opacity="0.6" transform="translate(226.750000, 109.750000)" fill="#FFFFFF">
            <ellipse cx="8.5125" cy="9.225" rx="8.1375" ry="8.475"></ellipse>
        </g>
        <path d="M235.2625,127.77305 C230.586864,127.77305 226.80195,123.831158 226.80195,118.975 C226.80195,114.118842 230.586864,110.17695 235.2625,110.17695 C239.938136,110.17695 243.72305,114.118842 243.72305,118.975 C243.72305,123.831158 239.938136,127.77305 235.2625,127.77305 Z M235.2625,127.12695 C239.575299,127.12695 243.07695,123.480069 243.07695,118.975 C243.07695,114.469931 239.575299,110.82305 235.2625,110.82305 C230.949702,110.82305 227.44805,114.469931 227.44805,118.975 C227.44805,123.480069 230.949702,127.12695 235.2625,127.12695 Z" id="Oval" fill="#E88024" fill-rule="nonzero"></path>
        <g id="Oval" opacity="0.6" transform="translate(79.500000, 47.000000)" fill="#FFFFFF">
            <ellipse cx="8.1375" cy="8.475" rx="8.1375" ry="8.475"></ellipse>
        </g>
        <path d="M87.6375,64.27305 C82.9618642,64.27305 79.17695,60.3311578 79.17695,55.475 C79.17695,50.6188422 82.9618642,46.67695 87.6375,46.67695 C92.3131358,46.67695 96.09805,50.6188422 96.09805,55.475 C96.09805,60.3311578 92.3131358,64.27305 87.6375,64.27305 Z M87.6375,63.62695 C91.9502985,63.62695 95.45195,59.9800687 95.45195,55.475 C95.45195,50.9699313 91.9502985,47.32305 87.6375,47.32305 C83.3247015,47.32305 79.82305,50.9699313 79.82305,55.475 C79.82305,59.9800687 83.3247015,63.62695 87.6375,63.62695 Z" id="Oval" fill="#E88024" fill-rule="nonzero"></path>
        <path d="M4,135.5 L293.283847,135.5" id="Shape" stroke="#2A3052" stroke-linejoin="round"></path>
        <g id="Group" transform="translate(232.000000, 94.450000)" fill="#2A3052" fill-rule="nonzero">
            <path d="M11.965,4.013 L12.065,5.055 C12.4784015,4.33351403 13.2526393,3.89520107 14.084,3.912 C14.824,3.912 15.395,4.114 15.799,4.584 C16.203,5.022 16.405,5.694 16.405,6.602 L16.405,10.975 L15.16,10.975 L15.16,6.636 C15.16,6.031 15.026,5.593 14.79,5.324 C14.555,5.055 14.185,4.954 13.714,4.954 C13.344,4.954 13.041,5.055 12.772,5.224 C12.502,5.392 12.267,5.627 12.099,5.93 L12.099,10.975 L10.855,10.975 L10.855,4.046 L11.965,4.013 Z M22.359,10.41 C22.325,10.243 22.325,10.11 22.325,9.942 C22.0823251,10.2786983 21.7745909,10.56331 21.42,10.779 C21.052,11.014 20.65,11.114 20.214,11.114 C19.511,11.114 18.974,10.947 18.606,10.544 C18.2176797,10.1408976 18.0116515,9.59618814 18.036,9.037 C18.036,8.367 18.305,7.865 18.841,7.496 C19.377,7.127 20.081,6.926 20.985,6.926 L22.325,6.926 L22.325,6.256 C22.325,5.854 22.191,5.519 21.957,5.285 C21.722,5.05 21.353,4.916 20.917,4.916 C20.516,4.916 20.181,5.016 19.947,5.218 C19.712,5.418 19.577,5.687 19.577,5.955 L18.405,5.955 L18.405,5.921 C18.372,5.419 18.606,4.95 19.109,4.548 C19.611,4.146 20.248,3.911 21.019,3.911 C21.789,3.911 22.426,4.112 22.895,4.514 C23.364,4.916 23.598,5.486 23.598,6.223 L23.598,9.54 C23.598,9.774 23.598,10.009 23.632,10.243 C23.665,10.478 23.699,10.713 23.766,10.913 L22.459,10.913 L22.459,10.98 C22.426,10.78 22.392,10.578 22.359,10.41 Z M20.331,10.009 C20.766,10.009 21.201,9.909 21.537,9.674 C21.905,9.439 22.14,9.171 22.24,8.87 L22.24,7.764 L20.867,7.764 C20.364,7.764 19.962,7.898 19.661,8.133 C19.359,8.367 19.225,8.702 19.225,9.037 C19.225,9.339 19.325,9.573 19.493,9.774 C19.694,9.908 19.963,10.009 20.331,10.009 Z M6.31,1.744 L6.31,2.689 L1.78,2.689 L1.78,5.897 L5.64,5.897 L5.64,6.869 L1.78,6.869 L1.78,10.975 L0.45,10.975 L0.45,1.745 L6.31,1.744 Z M7.64,4.113 L8.87,4.113 L8.87,10.885 L7.64,10.885 L7.64,4.113 Z M7.656,1.038 L7.656,2.258 L8.91,2.258 L8.91,1.038 L7.656,1.038 Z M25.513,0.992 L26.759,0.992 L26.759,10.842 L25.513,10.842 L25.513,0.992 Z" id="Shape"></path>
        </g>
        <g id="Group" transform="translate(33.000000, 61.000000)" fill="#2A3052" fill-rule="nonzero">
            <path d="M5.068,4.292 L5.182,5.465 C5.64643511,4.6538379 6.51646797,4.16072981 7.451,4.179 C8.283,4.179 8.926,4.406 9.38,4.935 C9.834,5.427 10.06,6.183 10.06,7.205 L10.06,12.121 L8.661,12.121 L8.661,7.242 C8.661,6.562 8.51,6.07 8.245,5.767 C7.98,5.465 7.565,5.351 7.035,5.351 C6.619,5.351 6.279,5.465 5.976,5.654 C5.674,5.843 5.409,6.108 5.22,6.448 L5.22,12.121 L3.82,12.121 L3.82,4.331 L5.068,4.292 Z M0.175,1.583 L1.509,1.583 L1.509,12.121 L0.175,12.121 L0.175,1.583 Z M23.343,4.292 L24.705,4.292 L24.705,11.789 L23.343,11.789 L23.343,4.292 Z M23.361,0.887 L23.361,2.239 L24.749,2.239 L24.749,0.887 L23.361,0.887 Z M12.17,4.292 L13.533,4.292 L13.533,11.789 L12.17,11.789 L12.17,4.292 Z M12.19,0.887 L12.19,2.239 L13.577,2.239 L13.577,0.887 L12.19,0.887 Z M20.348,6.969 C21.111,6.941 21.498,6.969 21.658,6.969 C21.658,6.115 21.097,4.149 18.524,4.226 C15.95,4.303 15.264,7.115 15.377,8.693 C15.491,10.271 16.524,12.203 18.817,12.135 C21.111,12.067 21.659,10.214 21.659,9.571 C21.247,9.568 20.809,9.568 20.348,9.571 C20.348,10.201 19.908,10.975 18.818,11.049 C17.726,11.122 16.906,10.273 16.801,8.693 C16.696,7.113 17.127,5.301 18.554,5.301 C19.982,5.301 20.348,6.367 20.348,6.969 Z M29.894,4.224 C31.224,4.224 33.188,4.814 33.385,7.844 C33.583,10.876 31.696,12.121 30.013,12.121 C28.329,12.121 26.591,10.945 26.591,8.013 C26.591,5.081 28.563,4.224 29.894,4.224 Z M30.001,5.323 C28.659,5.323 27.977,6.463 27.977,8.04 C27.977,9.617 28.454,11.068 30.001,11.068 C31.547,11.068 32.127,9.61 32.004,7.924 C31.882,6.238 31.342,5.323 30.001,5.323 Z" id="Shape"></path>
        </g>
    </g>
</svg>