<?xml version="1.0" encoding="UTF-8"?>
<svg width="299px" height="197px" viewBox="0 0 299 197" version="1.1" xmlns="http://www.w3.org/2000/svg" xmlns:xlink="http://www.w3.org/1999/xlink">
    <!-- Generator: Sketch 52.6 (67491) - http://www.bohemiancoding.com/sketch -->
    <title>stays between</title>
    <desc>Created with Sketch.</desc>
    <g id="Page-1" stroke="none" stroke-width="1" fill="none" fill-rule="evenodd">
        <g id="stays-between">
            <g id="Group">
                <polygon id="Path" fill="#F1F2F2" points="0 0 299 0 299 197 0 197"></polygon>
                <path d="M1.98671096,1.9798995 L1.98671096,195.020101 L297.013289,195.020101 L297.013289,1.9798995 L1.98671096,1.9798995 Z M299,0 L299,197 L0,197 L0,0 L299,0 Z" id="Path" fill="#C2C2C2" fill-rule="nonzero"></path>
                <g id="Group-5" transform="translate(2.000000, 33.000000)">
                    <path d="M2.887,23.4456836 L2.887,22.2388448 L292.54325,22.2388448 L292.54325,23.4456836 L2.887,23.4456836 Z M2.887,63.9796458 L2.887,62.772807 L292.54325,62.772807 L292.54325,63.9796458 L2.887,63.9796458 Z M2.887,104.513608 L2.887,103.30677 L292.54325,103.30677 L292.54325,104.513608 L2.887,104.513608 Z M2.887,145.010211 L2.887,143.803373 L292.54325,143.803373 L292.54325,145.010211 L2.887,145.010211 Z M37.2665806,2.59396226 L38.4734194,2.59396226 L38.4734194,162.264151 L37.2665806,162.264151 L37.2665806,2.59396226 Z M73.9314556,2.59396226 L75.1382944,2.59396226 L75.1382944,162.264151 L73.9314556,162.264151 L73.9314556,2.59396226 Z M110.558956,2.59396226 L111.765794,2.59396226 L111.765794,162.264151 L110.558956,162.264151 L110.558956,2.59396226 Z M147.223831,2.59396226 L148.430669,2.59396226 L148.430669,162.264151 L147.223831,162.264151 L147.223831,2.59396226 Z M183.851331,2.59396226 L185.058169,2.59396226 L185.058169,162.264151 L183.851331,162.264151 L183.851331,2.59396226 Z M220.478831,2.59396226 L221.685669,2.59396226 L221.685669,162.264151 L220.478831,162.264151 L220.478831,2.59396226 Z M2.887,84.2279477 L2.887,83.0211089 L292.54325,83.0211089 L292.54325,84.2279477 L2.887,84.2279477 Z" id="Shape" fill="#DFDEDE" fill-rule="nonzero"></path>
                    <path d="M257.143706,2.59396226 L258.350544,2.59396226 L258.350544,162.264151 L257.143706,162.264151 L257.143706,2.59396226 Z M2.887,43.7313439 L2.887,42.5245051 L292.54325,42.5245051 L292.54325,43.7313439 L2.887,43.7313439 Z M2.887,124.76191 L2.887,123.555072 L292.54325,123.555072 L292.54325,124.76191 L2.887,124.76191 Z" id="Shape" fill="#2A3052" fill-rule="nonzero"></path>
                    <polygon id="Path" fill="#C2C2C2" fill-rule="nonzero" points="0.794 2.60551619 0.794 0.191464945 294.63625 0.191464945 294.63625 2.60551619"></polygon>
                    <path d="M38.6640937,85.2515275 C37.7655269,85.6900933 36.6815667,85.3171888 36.2430008,84.418622 C35.804435,83.5200552 36.1773395,82.436095 37.0759063,81.9975291 L78.5621563,61.7492272 C79.1166106,61.4786133 79.7707076,61.5089858 80.2976987,61.8298159 L118.670814,85.1912193 L146.443626,57.7912015 C147.111703,57.1320922 148.172684,57.092765 148.887723,57.7006067 L184.536059,88.0046197 L220.00967,61.9177058 C220.454127,61.5908567 221.023364,61.4845034 221.555852,61.6288248 L258.220727,71.5661833 C259.18579,71.8277464 259.75609,72.8221236 259.494527,73.7871868 C259.232963,74.7522501 258.238586,75.3225496 257.273523,75.0609865 L221.451401,65.3520412 L185.52733,91.7702187 C184.85109,92.2675186 183.921706,92.2347641 183.282152,91.6910914 L147.806069,61.5335072 L120.207874,88.7612513 C119.616637,89.3445521 118.704343,89.4507534 117.994926,89.0188633 L79.2605355,65.4375166 L38.6640937,85.2515275 Z" id="Path" fill="#2A3052" fill-rule="nonzero"></path>
                    <path d="M185.987125,114.445283 L151.0415,114.445283 L145.6595,106.263774 L140.2775,114.445283 L105.331875,114.445283 C104.07173,114.451176 102.865994,114.959272 101.98197,115.856931 C101.097947,116.754589 100.608676,117.967645 100.622625,119.22717 L100.622625,143.921132 C100.606032,146.539822 102.712091,148.678366 105.331875,148.703019 L186.0245,148.703019 C187.284645,148.697126 188.490381,148.18903 189.374405,147.291371 C190.258428,146.393713 190.747699,145.180657 190.73375,143.921132 L190.73375,119.22717 C190.73971,117.963586 190.242729,116.749496 189.352348,115.8525 C188.461966,114.955504 187.251275,114.449236 185.987125,114.445283 Z" id="Path" fill="#E88024"></path>
                    <g id="Group" opacity="0.6" transform="translate(249.412500, 66.132075)" fill="#FFFFFF">
                        <ellipse id="Oval" cx="8.334625" cy="8.56377358" rx="8.110375" ry="8.44301887"></ellipse>
                    </g>
                    <path d="M257.747125,84.3458936 C252.590171,84.3458936 248.429724,80.0148082 248.429724,74.6958491 C248.429724,69.37689 252.590171,65.0458046 257.747125,65.0458046 C262.904079,65.0458046 267.064526,69.37689 267.064526,74.6958491 C267.064526,80.0148082 262.904079,84.3458936 257.747125,84.3458936 Z M257.747125,81.9318423 C261.548644,81.9318423 264.650474,78.7027911 264.650474,74.6958491 C264.650474,70.6889071 261.548644,67.4598559 257.747125,67.4598559 C253.945606,67.4598559 250.843776,70.6889071 250.843776,74.6958491 C250.843776,78.7027911 253.945606,81.9318423 257.747125,81.9318423 Z" id="Oval" fill="#E88024" fill-rule="nonzero"></path>
                    <g id="Group" opacity="0.6" transform="translate(28.900000, 74.603774)" fill="#FFFFFF">
                        <ellipse id="Oval" cx="8.97" cy="9.0207547" rx="8.110375" ry="8.44301887"></ellipse>
                    </g>
                    <path d="M37.87,93.2745728 C32.7130457,93.2745728 28.5525994,88.9434874 28.5525994,83.6245283 C28.5525994,78.3055692 32.7130457,73.9744838 37.87,73.9744838 C43.0269543,73.9744838 47.1874006,78.3055692 47.1874006,83.6245283 C47.1874006,88.9434874 43.0269543,93.2745728 37.87,93.2745728 Z M37.87,90.8605215 C41.6715185,90.8605215 44.7733494,87.6314703 44.7733494,83.6245283 C44.7733494,79.6175863 41.6715185,76.3885351 37.87,76.3885351 C34.0684815,76.3885351 30.9666506,79.6175863 30.9666506,83.6245283 C30.9666506,87.6314703 34.0684815,90.8605215 37.87,90.8605215 Z" id="Oval" fill="#E88024" fill-rule="nonzero"></path>
                </g>
            </g>
            <path d="M18.132,17.771 L18.132,21.624 L16,21.624 L16,11 L20.064,11 C21.285,11 22.246,11.312 22.946,11.934 C23.646,12.557 23.996,13.376 23.996,14.394 C23.996,15.41 23.646,16.227 22.946,16.844 C22.246,17.462 21.285,17.771 20.064,17.771 L18.131,17.771 L18.132,17.771 Z M18.132,16.13 L20.065,16.13 C20.659,16.13 21.108,15.968 21.415,15.644 C21.721,15.321 21.875,14.909 21.875,14.408 C21.875,13.897 21.723,13.475 21.419,13.142 C21.115,12.809 20.663,12.642 20.065,12.642 L18.132,12.642 L18.132,16.13 Z M28.689,21.777 C27.512,21.777 26.593,21.416 25.931,20.694 C25.27,19.971 24.939,19.041 24.939,17.903 L24.939,17.611 C24.939,16.429 25.26,15.461 25.902,14.707 C26.544,13.953 27.427,13.578 28.551,13.583 C29.611,13.583 30.425,13.908 30.991,14.557 C31.558,15.207 31.841,16.081 31.841,17.18 L31.841,18.282 L27.135,18.282 L27.113,18.326 C27.148,18.866 27.312,19.304 27.606,19.639 C27.9,19.975 28.336,20.143 28.916,20.143 C29.392,20.143 29.797,20.094 30.131,19.997 C30.4907572,19.8882683 30.8369818,19.7389758 31.163,19.552 L31.739,20.865 C31.423,21.123 30.995,21.339 30.455,21.515 C29.8837684,21.6946348 29.28778,21.7830543 28.689,21.777 Z M28.551,15.225 C28.123,15.225 27.793,15.372 27.562,15.666 C27.332,15.961 27.192,16.351 27.142,16.837 L27.157,16.874 L29.755,16.874 L29.755,16.714 C29.755,16.251 29.66,15.888 29.47,15.623 C29.28,15.357 28.974,15.225 28.55,15.225 L28.551,15.225 Z M37.234,15.561 L36.453,15.539 C36.137,15.539 35.876,15.604 35.673,15.736 C35.468,15.867 35.313,16.052 35.205,16.29 L35.205,21.624 L33.082,21.624 L33.082,13.729 L35.059,13.729 L35.154,14.897 C35.339,14.483 35.579,14.161 35.873,13.93 C36.1622076,13.7004789 36.5218185,13.5779003 36.891,13.583 C36.998,13.583 37.096,13.592 37.186,13.609 C37.276,13.626 37.367,13.646 37.46,13.671 L37.234,15.561 Z M40.32,13.729 L40.408,14.773 C40.66,14.393 40.978,14.1 41.36,13.893 C41.742,13.687 42.183,13.583 42.684,13.583 C43.19,13.583 43.623,13.695 43.983,13.919 C44.343,14.143 44.615,14.481 44.8,14.933 C45.043,14.51 45.36,14.179 45.749,13.941 C46.138,13.702 46.595,13.583 47.12,13.583 C47.899,13.583 48.513,13.859 48.963,14.411 C49.413,14.963 49.638,15.806 49.638,16.94 L49.638,21.624 L47.507,21.624 L47.507,16.932 C47.507,16.3 47.41,15.86 47.215,15.612 C47.021,15.364 46.731,15.239 46.347,15.239 C46.045,15.239 45.784,15.306 45.562,15.44 C45.342,15.574 45.165,15.76 45.033,15.998 C45.033,16.091 45.036,16.17 45.041,16.235 C45.046,16.301 45.048,16.368 45.048,16.436 L45.048,21.624 L42.925,21.624 L42.925,16.932 C42.925,16.314 42.828,15.878 42.633,15.622 C42.438,15.367 42.147,15.239 41.757,15.239 C41.47,15.239 41.219,15.294 41.002,15.404 C40.786,15.514 40.607,15.668 40.466,15.867 L40.466,21.624 L38.343,21.624 L38.343,13.729 L40.32,13.729 Z M55.927,21.624 C55.847588,21.438715 55.7807695,21.2482824 55.727,21.054 C55.6706316,20.8535003 55.6301727,20.6488652 55.606,20.442 C55.3916343,20.8214488 55.0950501,21.1481014 54.738,21.398 C54.378,21.651 53.95,21.778 53.454,21.778 C52.627,21.778 51.989,21.564 51.542,21.138 C51.094,20.713 50.871,20.133 50.871,19.398 C50.871,18.625 51.169,18.026 51.764,17.6 C52.36,17.174 53.23,16.961 54.373,16.961 L55.57,16.961 L55.57,16.334 C55.57,15.954 55.47,15.66 55.27,15.451 C55.07,15.241 54.774,15.137 54.38,15.137 C54.035,15.137 53.769,15.221 53.581,15.389 C53.394,15.557 53.301,15.787 53.301,16.079 L51.25,16.079 L51.235,16.035 C51.201,15.368 51.492,14.793 52.107,14.309 C52.723,13.825 53.527,13.583 54.519,13.583 C55.467,13.583 56.235,13.822 56.821,14.298 C57.407,14.775 57.701,15.458 57.701,16.348 L57.701,19.61 C57.701,19.98 57.728,20.328 57.784,20.653 C57.84,20.979 57.929,21.303 58.05,21.623 L55.927,21.623 L55.927,21.624 Z M53.979,20.201 C54.349,20.201 54.679,20.109 54.971,19.924 C55.263,19.739 55.462,19.524 55.57,19.282 L55.57,18.164 L54.373,18.164 C53.921,18.164 53.579,18.276 53.348,18.5 C53.1212068,18.7133722 52.9951693,19.012666 53.001,19.324 C53.001,19.592 53.088,19.804 53.261,19.963 C53.433,20.121 53.672,20.2 53.979,20.2 L53.979,20.201 Z M61.246,13.729 L61.341,14.86 C61.604,14.456 61.927,14.143 62.311,13.919 C62.7036301,13.692889 63.1499588,13.5768159 63.603,13.583 C64.401,13.583 65.023,13.84 65.471,14.353 C65.918,14.866 66.142,15.677 66.142,16.786 L66.142,21.624 L64.004,21.624 L64.004,16.794 C64.004,16.229 63.906,15.829 63.709,15.594 C63.512,15.357 63.216,15.239 62.822,15.239 C62.506,15.239 62.227,15.299 61.987,15.419 C61.7521279,15.5329843 61.5480707,15.7017173 61.392,15.911 L61.392,21.624 L59.262,21.624 L59.262,13.729 L61.246,13.729 Z M71.155,21.777 C69.977,21.777 69.058,21.416 68.397,20.694 C67.735,19.971 67.404,19.041 67.404,17.903 L67.404,17.611 C67.404,16.429 67.725,15.461 68.367,14.707 C69.01,13.953 69.892,13.578 71.016,13.583 C72.076,13.583 72.89,13.908 73.456,14.557 C74.023,15.207 74.306,16.081 74.306,17.18 L74.306,18.282 L69.601,18.282 L69.579,18.326 C69.613,18.866 69.777,19.304 70.071,19.639 C70.365,19.975 70.802,20.143 71.381,20.143 C71.858,20.143 72.262,20.094 72.596,19.997 C72.9557572,19.8882683 73.3019818,19.7389758 73.628,19.552 L74.205,20.865 C73.888,21.123 73.46,21.339 72.92,21.515 C72.3490878,21.6945308 71.7534451,21.7829491 71.155,21.777 Z M71.016,15.225 C70.588,15.225 70.258,15.372 70.027,15.666 C69.797,15.961 69.657,16.351 69.607,16.837 L69.622,16.874 L72.22,16.874 L72.22,16.714 C72.22,16.251 72.125,15.888 71.935,15.623 C71.745,15.357 71.439,15.225 71.016,15.225 Z M78.846,20.143 C79.215,20.143 79.509,20.032 79.728,19.811 C79.947,19.589 80.056,19.294 80.056,18.924 L81.997,18.924 L82.012,18.968 C82.032,19.766 81.734,20.433 81.122,20.971 C80.509,21.508 79.75,21.777 78.845,21.777 C77.678,21.777 76.775,21.404 76.138,20.657 C75.501,19.91 75.182,18.956 75.182,17.793 L75.182,17.574 C75.182,16.417 75.5,15.462 76.134,14.71 C76.769,13.959 77.668,13.583 78.83,13.583 C79.794,13.583 80.57,13.86 81.158,14.415 C81.747,14.97 82.031,15.699 82.012,16.604 L81.997,16.648 L80.057,16.648 C80.057,16.239 79.948,15.9 79.732,15.63 C79.515,15.36 79.215,15.225 78.83,15.225 C78.28,15.225 77.89,15.445 77.66,15.885 C77.428,16.325 77.313,16.888 77.313,17.575 L77.313,17.793 C77.313,18.493 77.428,19.06 77.659,19.493 C77.89,19.926 78.286,20.143 78.845,20.143 L78.846,20.143 Z M86.674,21.777 C85.497,21.777 84.578,21.416 83.916,20.694 C83.255,19.971 82.924,19.041 82.924,17.903 L82.924,17.611 C82.924,16.429 83.244,15.461 83.887,14.707 C84.529,13.953 85.412,13.578 86.536,13.583 C87.596,13.583 88.409,13.908 88.976,14.557 C89.543,15.207 89.826,16.081 89.826,17.18 L89.826,18.282 L85.12,18.282 L85.098,18.326 C85.132,18.866 85.296,19.304 85.591,19.639 C85.885,19.975 86.321,20.143 86.901,20.143 C87.377,20.143 87.782,20.094 88.115,19.997 C88.4751015,19.8883393 88.8216652,19.7390451 89.148,19.552 L89.724,20.865 C89.408,21.123 88.98,21.339 88.44,21.515 C87.8687684,21.6946348 87.27278,21.7830543 86.674,21.777 Z M86.536,15.225 C86.107,15.225 85.778,15.372 85.546,15.666 C85.316,15.961 85.176,16.351 85.127,16.837 L85.142,16.874 L87.739,16.874 L87.739,16.714 C87.739,16.251 87.645,15.888 87.455,15.623 C87.265,15.357 86.959,15.225 86.535,15.225 L86.536,15.225 Z M106.644,21.777 C105.467,21.777 104.548,21.416 103.886,20.694 C103.225,19.971 102.894,19.041 102.894,17.903 L102.894,17.611 C102.894,16.429 103.215,15.461 103.857,14.707 C104.499,13.953 105.382,13.578 106.506,13.583 C107.566,13.583 108.38,13.908 108.946,14.557 C109.513,15.207 109.796,16.081 109.796,17.18 L109.796,18.282 L105.09,18.282 L105.068,18.326 C105.102,18.866 105.267,19.304 105.561,19.639 C105.855,19.975 106.291,20.143 106.871,20.143 C107.347,20.143 107.752,20.094 108.086,19.997 C108.445757,19.8882683 108.791982,19.7389758 109.118,19.552 L109.694,20.865 C109.378,21.123 108.95,21.339 108.41,21.515 C107.838768,21.6946348 107.24278,21.7830543 106.644,21.777 Z M106.506,15.225 C106.078,15.225 105.748,15.372 105.517,15.666 C105.287,15.961 105.147,16.351 105.097,16.837 L105.112,16.874 L107.71,16.874 L107.71,16.714 C107.71,16.251 107.615,15.888 107.425,15.623 C107.235,15.357 106.929,15.225 106.505,15.225 L106.506,15.225 Z M112.986,13.729 L113.08,14.86 C113.343,14.456 113.666,14.143 114.05,13.919 C114.44263,13.692889 114.888959,13.5768159 115.342,13.583 C116.14,13.583 116.762,13.84 117.21,14.353 C117.657,14.866 117.881,15.677 117.881,16.786 L117.881,21.624 L115.743,21.624 L115.743,16.794 C115.743,16.229 115.645,15.829 115.448,15.594 C115.251,15.357 114.955,15.239 114.561,15.239 C114.245,15.239 113.966,15.299 113.726,15.419 C113.491128,15.5329843 113.287071,15.7017173 113.131,15.911 L113.131,21.624 L111.001,21.624 L111.001,13.729 L112.985,13.729 L112.986,13.729 Z M122.026,11.796 L122.026,13.729 L123.361,13.729 L123.361,15.225 L122.025,15.225 L122.025,19.245 C122.025,19.552 122.09,19.771 122.219,19.902 C122.353166,20.0354457 122.536932,20.1068501 122.726,20.099 C122.838,20.099 122.935,20.093 123.018,20.081 C123.1,20.069 123.195,20.048 123.302,20.019 L123.477,21.559 C123.065211,21.7069462 122.630549,21.7810825 122.193,21.778 C121.459,21.778 120.893,21.575 120.497,21.171 C120.1,20.768 119.902,20.128 119.902,19.253 L119.902,15.224 L118.749,15.224 L118.749,13.728 L119.902,13.728 L119.902,11.795 L122.025,11.795 L122.026,11.796 Z M128.826,15.561 L128.045,15.539 C127.729,15.539 127.468,15.604 127.265,15.736 C127.06,15.867 126.905,16.052 126.797,16.29 L126.797,21.624 L124.674,21.624 L124.674,13.729 L126.651,13.729 L126.746,14.897 C126.931,14.483 127.171,14.161 127.465,13.93 C127.754208,13.7004789 128.113819,13.5779003 128.483,13.583 C128.59,13.583 128.688,13.592 128.778,13.609 C128.868,13.626 128.959,13.646 129.052,13.671 L128.826,15.561 Z M129.46,17.604 C129.46,16.426 129.789,15.462 130.445,14.71 C131.102,13.959 132.012,13.583 133.175,13.583 C134.342,13.583 135.256,13.958 135.918,14.707 C136.579,15.456 136.91,16.422 136.91,17.604 L136.91,17.757 C136.91,18.944 136.58,19.91 135.921,20.657 C135.262,21.404 134.351,21.777 133.189,21.777 C132.021,21.777 131.109,21.404 130.449,20.657 C129.789,19.91 129.46,18.944 129.46,17.757 L129.46,17.604 Z M131.584,17.757 C131.584,18.477 131.71,19.054 131.963,19.49 C132.216,19.925 132.625,20.143 133.189,20.143 C133.739,20.143 134.141,19.923 134.396,19.486 C134.652,19.048 134.779,18.472 134.779,17.756 L134.779,17.604 C134.779,16.904 134.651,16.332 134.393,15.889 C134.135,15.446 133.729,15.225 133.174,15.225 C132.624,15.225 132.222,15.447 131.967,15.893 C131.711,16.338 131.584,16.908 131.584,17.603 L131.584,17.757 Z" id="Shape" fill="#020202" fill-rule="nonzero"></path>
            <path d="M20.615,69.928 L24.634,69.928 L24.504,70.8 L19.37,70.8 L20.604,62.559 L21.719,62.559 L20.615,69.928 Z M26.762,70.8 L25.647,70.8 L26.564,64.676 L27.679,64.676 L26.762,70.8 Z M27.979,62.197 L29.275,62.197 L29.287,62.23 L27.555,63.702 L26.757,63.702 L26.745,63.674 L27.979,62.197 Z M30.379,65.451 C30.62,65.164 30.905,64.944 31.234,64.791 C31.562,64.639 31.934,64.562 32.349,64.562 C32.737,64.562 33.065,64.657 33.333,64.845 C33.601,65.035 33.783,65.315 33.877,65.689 C34.118,65.338 34.414,65.062 34.763,64.862 C35.112,64.662 35.501,64.562 35.931,64.562 C36.531,64.562 36.985,64.778 37.293,65.21 C37.6,65.643 37.692,66.285 37.567,67.138 L37.018,70.8 L35.903,70.8 L36.452,67.126 C36.546,66.5 36.51,66.067 36.342,65.827 C36.174,65.587 35.88,65.468 35.462,65.468 C35.096,65.468 34.772,65.602 34.491,65.87 C34.2018734,66.147155 33.9984702,66.5015486 33.905,66.891 L33.905,66.911 L33.322,70.8 L32.202,70.8 L32.75,67.126 C32.841,66.53 32.8,66.105 32.629,65.85 C32.457,65.595 32.167,65.468 31.759,65.468 C31.428,65.468 31.14,65.543 30.897,65.692 C30.6483948,65.8463351 30.4413655,66.0592011 30.294,66.312 L29.62,70.8 L28.505,70.8 L29.422,64.676 L30.419,64.676 L30.379,65.451 Z M39.842,70.8 L38.727,70.8 L39.644,64.676 L40.759,64.676 L39.842,70.8 Z M40.997,63.108 L39.882,63.108 L40.052,61.97 L41.167,61.97 L40.997,63.108 Z M44.246,63.198 L44.026,64.676 L45.186,64.676 L45.061,65.502 L43.9,65.502 L43.345,69.221 C43.3,69.519 43.327,69.723 43.427,69.835 C43.527,69.946 43.677,70.002 43.877,70.002 C44.0214216,69.9956584 44.1641969,69.9687196 44.301,69.922 L44.341,70.686 C44.2212142,70.7650442 44.0880453,70.8216325 43.948,70.853 C43.7881222,70.8956695 43.6234698,70.9178472 43.458,70.919 C43.02,70.919 42.684,70.781 42.448,70.505 C42.212,70.23 42.139,69.802 42.23,69.221 L42.785,65.502 L41.811,65.502 L41.936,64.676 L42.909,64.676 L43.129,63.198 L44.245,63.198 L44.246,63.198 Z M47.981,70.918 C47.136,70.918 46.501,70.634 46.077,70.064 C45.652,69.494 45.508,68.758 45.644,67.856 L45.684,67.607 C45.815,66.694 46.174,65.959 46.762,65.4 C47.348,64.842 48.013,64.562 48.757,64.562 C49.545,64.562 50.113,64.821 50.46,65.338 C50.808,65.855 50.919,66.528 50.794,67.358 L50.709,67.948 L46.748,67.948 C46.661,68.596 46.725,69.108 46.94,69.484 C47.155,69.859 47.546,70.047 48.112,70.047 C48.474,70.047 48.811,69.992 49.122,69.883 C49.433,69.773 49.702,69.626 49.928,69.441 L50.257,70.166 C50.007,70.377 49.693,70.556 49.311,70.701 C48.931,70.846 48.487,70.919 47.981,70.919 L47.981,70.918 Z M48.627,65.44 C48.253,65.44 47.914,65.59 47.611,65.892 C47.2976497,66.2102938 47.0722993,66.6044847 46.957,67.036 L46.968,67.07 L49.725,67.07 L49.736,66.98 C49.804,66.523 49.751,66.152 49.577,65.867 C49.404,65.582 49.087,65.44 48.627,65.44 Z M58.232,69.153 C58.266,68.9 58.202,68.698 58.039,68.547 C57.877,68.397 57.541,68.262 57.032,68.145 C56.33,67.99 55.804,67.773 55.455,67.495 C55.106,67.215 54.965,66.841 55.034,66.374 C55.105,65.853 55.376,65.421 55.846,65.077 C56.316,64.734 56.892,64.562 57.575,64.562 C58.239,64.562 58.767,64.752 59.16,65.134 C59.552,65.515 59.705,65.953 59.618,66.447 L59.607,66.481 L58.537,66.481 C58.5763945,66.2146973 58.4860798,65.9456117 58.294,65.757 C58.094,65.545 57.814,65.44 57.456,65.44 C57.079,65.44 56.776,65.53 56.548,65.709 C56.319,65.888 56.188,66.099 56.154,66.339 C56.12,66.589 56.177,66.777 56.324,66.906 C56.471,67.034 56.804,67.153 57.32,67.262 C58.049,67.421 58.586,67.645 58.933,67.936 C59.281,68.226 59.422,68.606 59.358,69.073 C59.278,69.636 58.998,70.083 58.515,70.418 C58.032,70.752 57.432,70.918 56.715,70.918 C55.968,70.918 55.389,70.718 54.98,70.318 C54.57,69.918 54.413,69.458 54.507,68.938 L54.519,68.904 L55.589,68.904 C55.554,69.3 55.662,69.589 55.911,69.772 C56.16,69.955 56.469,70.047 56.839,70.047 C57.22,70.047 57.537,69.962 57.79,69.792 C58.043,69.622 58.19,69.409 58.232,69.152 L58.232,69.153 Z M64.435,70.8 L64.497,69.922 C64.2734463,70.2312031 63.9819802,70.4850386 63.645,70.664 C63.319,70.834 62.955,70.919 62.555,70.919 C61.911,70.919 61.428,70.703 61.107,70.27 C60.787,69.838 60.694,69.177 60.829,68.287 L61.367,64.676 L62.482,64.676 L61.939,68.298 C61.837,68.973 61.863,69.428 62.019,69.662 C62.173,69.896 62.458,70.012 62.873,70.012 C63.2269989,70.0212277 63.5769401,69.9348651 63.886,69.762 C64.173,69.593 64.406,69.356 64.588,69.051 L65.238,64.676 L66.354,64.676 L65.437,70.8 L64.435,70.8 Z M72.705,67.97 C72.565,68.887 72.247,69.607 71.75,70.132 C71.254,70.656 70.63,70.919 69.88,70.919 C69.514,70.919 69.197,70.852 68.929,70.718 C68.6615673,70.5844645 68.4362659,70.3795822 68.278,70.126 L67.825,73.154 L66.71,73.154 L67.978,64.676 L68.833,64.676 L68.889,65.468 C69.135,65.174 69.418,64.949 69.739,64.794 C70.059,64.64 70.417,64.562 70.814,64.562 C71.542,64.562 72.078,64.867 72.421,65.476 C72.764,66.086 72.864,66.877 72.721,67.851 L72.704,67.97 L72.705,67.97 Z M71.606,67.85 C71.716,67.13 71.666,66.553 71.459,66.119 C71.251,65.685 70.879,65.468 70.344,65.468 C70.034,65.468 69.754,65.543 69.504,65.692 C69.252,65.841 69.034,66.043 68.85,66.3 L68.408,69.243 C68.514,69.496 68.668,69.693 68.872,69.835 C69.076,69.976 69.342,70.047 69.67,70.047 C70.176,70.047 70.6,69.852 70.941,69.461 C71.282,69.071 71.499,68.573 71.589,67.97 L71.606,67.85 Z M76.168,70.919 C75.323,70.919 74.688,70.634 74.263,70.064 C73.839,69.494 73.695,68.758 73.83,67.856 L73.87,67.607 C74.002,66.694 74.362,65.959 74.948,65.4 C75.535,64.842 76.2,64.562 76.943,64.562 C77.732,64.562 78.3,64.821 78.647,65.338 C78.994,65.855 79.105,66.528 78.981,67.358 L78.896,67.948 L74.934,67.948 C74.847,68.596 74.911,69.108 75.127,69.484 C75.342,69.859 75.732,70.047 76.298,70.047 C76.66,70.047 76.998,69.992 77.308,69.883 C77.62,69.773 77.888,69.626 78.115,69.441 L78.443,70.166 C78.194,70.377 77.879,70.556 77.498,70.701 C77.117,70.846 76.674,70.919 76.168,70.919 Z M76.813,65.439 C76.44,65.439 76.101,65.591 75.797,65.892 C75.4840131,66.2104074 75.259013,66.6045883 75.144,67.036 L75.154,67.07 L77.911,67.07 L77.923,66.98 C77.99,66.523 77.938,66.152 77.764,65.867 C77.591,65.582 77.274,65.44 76.814,65.44 L76.813,65.439 Z M83.384,65.66 L82.818,65.626 C82.528,65.626 82.271,65.699 82.048,65.844 C81.826,65.99 81.638,66.194 81.483,66.458 L80.832,70.8 L79.717,70.8 L80.634,64.676 L81.63,64.676 L81.607,65.542 C81.827,65.232 82.075,64.992 82.354,64.82 C82.699981,64.6069063 83.1100209,64.5226321 83.512,64.582 C83.589,64.595 83.65,64.61 83.696,64.625 L83.384,65.66 Z M84.981,70.8 L83.866,70.8 L84.782,64.676 L85.897,64.676 L84.981,70.8 Z M86.135,63.108 L85.02,63.108 L85.19,61.97 L86.305,61.97 L86.135,63.108 Z M86.905,67.681 C87.045,66.741 87.4,65.987 87.972,65.417 C88.543,64.847 89.254,64.562 90.102,64.562 C90.918,64.562 91.536,64.858 91.956,65.448 C92.377,66.038 92.521,66.783 92.389,67.681 L92.367,67.806 C92.223,68.753 91.867,69.508 91.297,70.072 C90.727,70.636 90.016,70.919 89.163,70.919 C88.348,70.919 87.73,70.624 87.31,70.036 C86.889,69.446 86.746,68.704 86.882,67.806 L86.905,67.681 Z M87.997,67.806 C87.895,68.477 87.95,69.019 88.161,69.43 C88.373,69.841 88.751,70.047 89.293,70.047 C89.803,70.047 90.232,69.833 90.581,69.404 C90.931,68.976 91.154,68.444 91.251,67.806 L91.274,67.681 C91.373,67.017 91.315,66.477 91.102,66.062 C90.889,65.647 90.512,65.44 89.972,65.44 C89.459,65.44 89.028,65.656 88.679,66.088 C88.33,66.52 88.11,67.051 88.019,67.681 L87.997,67.806 Z M96.951,65.66 L96.385,65.626 C96.095,65.626 95.838,65.699 95.615,65.844 C95.393,65.99 95.205,66.194 95.05,66.458 L94.399,70.8 L93.284,70.8 L94.201,64.676 L95.197,64.676 L95.174,65.542 C95.393,65.232 95.642,64.992 95.921,64.82 C96.266981,64.6069063 96.6770209,64.5226321 97.079,64.582 C97.156,64.595 97.217,64.61 97.263,64.625 L96.951,65.66 Z M20.647,171.088 L24.767,171.088 L24.634,171.982 L19.37,171.982 L20.635,163.532 L21.778,163.532 L20.647,171.088 Z M26.949,171.982 L25.806,171.982 L26.746,165.702 L27.889,165.702 L26.949,171.982 Z M28.197,163.162 L29.525,163.162 L29.537,163.196 L27.761,164.705 L26.943,164.705 L26.931,164.675 L28.197,163.161 L28.197,163.162 Z M30.657,166.498 C30.905,166.204 31.197,165.978 31.533,165.822 C31.8920943,165.660602 32.2823579,165.580364 32.676,165.587 C33.075,165.587 33.411,165.684 33.686,165.877 C33.961,166.07 34.146,166.359 34.243,166.742 C34.491,166.382 34.793,166.099 35.151,165.894 C35.5163651,165.687138 35.9301788,165.581182 36.35,165.587 C36.965,165.587 37.43,165.808 37.745,166.251 C38.06,166.694 38.155,167.353 38.027,168.227 L37.464,171.982 L36.32,171.982 L36.882,168.216 C36.979,167.573 36.942,167.129 36.769,166.884 C36.597,166.638 36.296,166.515 35.867,166.515 C35.4936666,166.514173 35.1354665,166.662493 34.872,166.927 C34.5756288,167.211559 34.3673505,167.575352 34.272,167.975 L34.272,167.995 L33.673,171.982 L32.524,171.982 L33.087,168.216 C33.18,167.604 33.139,167.168 32.963,166.907 C32.787,166.646 32.49,166.515 32.072,166.515 C31.732,166.515 31.436,166.592 31.187,166.745 C30.937,166.897 30.731,167.109 30.569,167.38 L29.879,171.982 L28.735,171.982 L29.675,165.702 L30.697,165.702 L30.656,166.498 L30.657,166.498 Z M40.359,171.982 L39.216,171.982 L40.156,165.702 L41.3,165.702 L40.36,171.982 L40.359,171.982 Z M41.543,164.095 L40.4,164.095 L40.574,162.929 L41.717,162.929 L41.543,164.095 Z M44.874,164.188 L44.648,165.703 L45.838,165.703 L45.71,166.55 L44.52,166.55 L43.951,170.363 C43.905,170.668 43.933,170.878 44.036,170.993 C44.138,171.106 44.292,171.163 44.496,171.163 C44.6441182,171.15686 44.7905989,171.129584 44.931,171.082 L44.973,171.866 C44.876,171.936 44.742,171.992 44.569,172.036 C44.397,172.081 44.229,172.103 44.067,172.103 C43.619,172.103 43.273,171.963 43.032,171.68 C42.79,171.397 42.715,170.958 42.808,170.363 L43.377,166.55 L42.379,166.55 L42.506,165.703 L43.505,165.703 L43.731,164.188 L44.874,164.188 Z M48.704,172.103 C47.837,172.103 47.187,171.811 46.751,171.227 C46.316,170.643 46.168,169.889 46.307,168.964 L46.348,168.709 C46.483,167.773 46.852,167.019 47.453,166.446 C48.055,165.873 48.737,165.586 49.499,165.586 C50.308,165.586 50.889,165.852 51.246,166.382 C51.602,166.912 51.716,167.602 51.588,168.453 L51.501,169.057 L47.439,169.057 C47.35,169.722 47.416,170.247 47.636,170.632 C47.856,171.017 48.257,171.21 48.837,171.21 C49.209,171.21 49.554,171.154 49.873,171.042 C50.1729375,170.940299 50.4528088,170.786995 50.7,170.589 L51.037,171.332 C50.781,171.548 50.458,171.732 50.067,171.88 C49.677,172.029 49.222,172.103 48.704,172.103 Z M49.366,166.486 C48.983,166.486 48.636,166.641 48.324,166.951 C48.012,167.26 47.789,167.651 47.654,168.123 L47.665,168.158 L50.491,168.158 L50.503,168.065 C50.573,167.597 50.518,167.216 50.34,166.925 C50.162,166.632 49.837,166.486 49.366,166.486 Z M56.532,171.982 L55.39,171.982 L56.33,165.702 L57.473,165.702 L56.533,171.982 L56.532,171.982 Z M57.716,164.095 L56.573,164.095 L56.747,162.929 L57.89,162.929 L57.716,164.095 Z M60.2,166.602 C60.455,166.277 60.754,166.027 61.096,165.851 C61.4415977,165.674215 61.8248258,165.58364 62.213,165.587 C62.867,165.587 63.355,165.787 63.678,166.187 C64.001,166.587 64.101,167.198 63.978,168.018 L63.385,171.982 L62.242,171.982 L62.834,168.042 C62.919,167.469 62.871,167.072 62.689,166.849 C62.507,166.627 62.188,166.515 61.732,166.515 C61.392,166.515 61.085,166.59 60.815,166.739 C60.544,166.888 60.315,167.094 60.13,167.357 L59.434,171.982 L58.29,171.982 L59.23,165.702 L60.252,165.702 L60.2,166.602 Z M65.52,171.982 L66.333,166.55 L65.353,166.55 L65.48,165.703 L66.46,165.703 L66.583,164.908 C66.687,164.212 66.939,163.688 67.337,163.335 C67.736,162.983 68.252,162.807 68.887,162.807 C69.014,162.807 69.146,162.819 69.281,162.842 C69.417,162.865 69.56,162.894 69.711,162.929 L69.444,163.799 C69.2609633,163.759771 69.0741885,163.740658 68.887,163.742 C68.565,163.742 68.305,163.843 68.106,164.046 C67.906,164.249 67.78,164.536 67.726,164.908 L67.604,165.703 L68.741,165.703 L68.614,166.55 L67.476,166.55 L66.664,171.982 L65.521,171.982 L65.52,171.982 Z M71.4,172.103 C70.533,172.103 69.882,171.811 69.447,171.227 C69.011,170.643 68.863,169.889 69.003,168.964 L69.043,168.709 C69.179,167.773 69.547,167.019 70.149,166.446 C70.75,165.873 71.432,165.586 72.194,165.586 C73.003,165.586 73.584,165.852 73.941,166.382 C74.297,166.912 74.411,167.602 74.283,168.453 L74.196,169.057 L70.134,169.057 C70.045,169.722 70.111,170.247 70.331,170.632 C70.552,171.017 70.952,171.21 71.533,171.21 C71.904,171.21 72.249,171.154 72.568,171.042 C72.8679375,170.940299 73.1478088,170.786995 73.395,170.589 L73.732,171.332 C73.477,171.548 73.154,171.732 72.762,171.88 C72.372,172.029 71.918,172.103 71.399,172.103 L71.4,172.103 Z M72.06,166.486 C71.678,166.486 71.33,166.641 71.02,166.951 C70.708,167.26 70.484,167.651 70.349,168.123 L70.36,168.158 L73.186,168.158 L73.198,168.065 C73.268,167.597 73.214,167.216 73.036,166.925 C72.858,166.632 72.533,166.486 72.061,166.486 L72.06,166.486 Z M78.798,166.713 L78.218,166.678 C77.92,166.678 77.657,166.752 77.428,166.901 C77.188056,167.062749 76.9894013,167.278529 76.848,167.531 L76.181,171.981 L75.038,171.981 L75.978,165.703 L76.999,165.703 L76.976,166.591 C77.2,166.274 77.456,166.027 77.742,165.851 C78.0963553,165.632769 78.5162752,165.546378 78.928,165.607 C79.008,165.621 79.071,165.635 79.118,165.651 L78.798,166.713 Z M80.434,171.982 L79.291,171.982 L80.231,165.702 L81.374,165.702 L80.434,171.982 Z M81.618,164.095 L80.475,164.095 L80.649,162.929 L81.792,162.929 L81.618,164.095 Z M82.408,168.785 C82.55,167.821 82.915,167.047 83.501,166.463 C84.087,165.879 84.816,165.587 85.686,165.587 C86.522,165.587 87.156,165.89 87.586,166.495 C88.018,167.1 88.166,167.863 88.03,168.785 L88.007,168.912 C87.86,169.882 87.495,170.658 86.91,171.236 C86.326,171.814 85.597,172.103 84.723,172.103 C83.887,172.103 83.253,171.802 82.823,171.198 C82.391,170.595 82.245,169.833 82.384,168.912 L82.407,168.784 L82.408,168.785 Z M83.528,168.912 C83.423,169.601 83.478,170.156 83.696,170.577 C83.912,170.999 84.299,171.21 84.856,171.21 C85.378,171.21 85.818,170.99 86.176,170.551 C86.534,170.112 86.763,169.566 86.864,168.911 L86.887,168.784 C86.987,168.104 86.929,167.55 86.71,167.124 C86.492,166.699 86.106,166.486 85.552,166.486 C85.026,166.486 84.584,166.708 84.227,167.151 C83.869,167.594 83.643,168.138 83.55,168.784 L83.527,168.912 L83.528,168.912 Z M92.708,166.712 L92.128,166.678 C91.829,166.678 91.566,166.752 91.338,166.901 C91.098056,167.062749 90.8994013,167.278529 90.758,167.531 L90.09,171.981 L88.947,171.981 L89.887,165.703 L90.909,165.703 L90.885,166.591 C91.11,166.274 91.365,166.027 91.651,165.851 C92.0056324,165.632536 92.4259487,165.546135 92.838,165.607 C92.918,165.621 92.98,165.635 93.027,165.651 L92.707,166.713 L92.708,166.712 Z" id="Shape" fill="#6D6E71" fill-rule="nonzero"></path>
            <g id="Group" transform="translate(264.600000, 120.994000)" fill="#2A3052" fill-rule="nonzero">
                <path d="M11.538,3.387 L11.638,4.43 C12.051142,3.70812877 12.8254298,3.269404 13.657,3.286 C14.397,3.286 14.969,3.488 15.372,3.959 C15.776,4.396 15.978,5.069 15.978,5.977 L15.978,10.35 L14.733,10.35 L14.733,6.01 C14.733,5.405 14.599,4.968 14.363,4.699 C14.128,4.429 13.758,4.329 13.287,4.329 C12.917,4.329 12.614,4.429 12.345,4.599 C12.076,4.766 11.841,5.002 11.672,5.304 L11.672,10.35 L10.428,10.35 L10.428,3.42 L11.538,3.387 Z M21.932,9.785 C21.898,9.618 21.898,9.484 21.898,9.316 C21.6557191,9.65295899 21.3483255,9.93791016 20.994,10.154 C20.625,10.388 20.224,10.489 19.788,10.489 C19.084,10.489 18.548,10.321 18.179,9.919 C17.7906797,9.5158976 17.5846515,8.97118814 17.609,8.412 C17.609,7.742 17.878,7.239 18.414,6.871 C18.95,6.502 19.654,6.301 20.558,6.301 L21.898,6.301 L21.898,5.631 C21.898,5.229 21.764,4.894 21.53,4.659 C21.295,4.425 20.927,4.291 20.491,4.291 C20.089,4.291 19.754,4.391 19.52,4.592 C19.285,4.794 19.151,5.062 19.151,5.33 L17.978,5.33 L17.978,5.296 C17.945,4.794 18.179,4.324 18.682,3.922 C19.184,3.52 19.821,3.286 20.592,3.286 C21.362,3.286 21.999,3.486 22.468,3.889 C22.937,4.291 23.171,4.861 23.171,5.598 L23.171,8.914 C23.171,9.149 23.171,9.384 23.205,9.618 C23.238,9.852 23.272,10.087 23.339,10.288 L22.032,10.288 L22.032,10.355 C21.999,10.154 21.965,9.953 21.932,9.785 Z M19.904,9.383 C20.339,9.383 20.774,9.283 21.11,9.048 C21.478,8.814 21.713,8.546 21.813,8.244 L21.813,7.139 L20.44,7.139 C19.937,7.139 19.535,7.273 19.234,7.507 C18.932,7.742 18.798,8.077 18.798,8.412 C18.798,8.713 18.898,8.948 19.066,9.149 C19.267,9.283 19.536,9.383 19.904,9.383 Z M5.884,1.12 L5.884,2.064 L1.354,2.064 L1.354,5.271 L5.212,5.271 L5.212,6.243 L1.354,6.243 L1.354,10.35 L0.024,10.35 L0.024,1.12 L5.884,1.12 Z M7.213,3.488 L8.443,3.488 L8.443,10.26 L7.213,10.26 L7.213,3.488 Z M7.23,0.412 L7.23,1.633 L8.483,1.633 L8.483,0.413 L7.23,0.412 Z M25.086,0.367 L26.332,0.367 L26.332,10.216 L25.086,10.216 L25.086,0.367 Z" id="Shape"></path>
            </g>
            <g id="Group" transform="translate(20.600000, 128.994000)" fill="#2A3052" fill-rule="nonzero">
                <path d="M5.386,3.77 L5.5,4.942 C5.96443511,4.1308379 6.83446797,3.63772981 7.769,3.656 C8.601,3.656 9.244,3.883 9.697,4.412 C10.151,4.904 10.378,5.661 10.378,6.682 L10.378,11.598 L8.978,11.598 L8.978,6.719 C8.978,6.039 8.828,5.547 8.563,5.244 C8.298,4.942 7.883,4.828 7.353,4.828 C6.937,4.828 6.596,4.942 6.293,5.131 C5.991,5.321 5.726,5.585 5.537,5.925 L5.537,11.598 L4.138,11.598 L4.138,3.808 L5.386,3.77 Z M0.493,1.06 L1.827,1.06 L1.827,11.598 L0.493,11.598 L0.493,1.06 Z M23.66,3.769 L25.022,3.769 L25.022,11.266 L23.66,11.266 L23.66,3.769 Z M23.679,0.364 L23.679,1.716 L25.066,1.716 L25.066,0.364 L23.679,0.364 Z M12.489,3.769 L13.851,3.769 L13.851,11.266 L12.489,11.266 L12.489,3.769 Z M12.507,0.364 L12.507,1.716 L13.895,1.716 L13.895,0.364 L12.507,0.364 Z M20.665,6.446 C21.429,6.418 21.815,6.446 21.977,6.446 C21.977,5.593 21.415,3.626 18.841,3.704 C16.268,3.781 15.581,6.592 15.695,8.17 C15.809,9.748 16.841,11.68 19.135,11.612 C21.429,11.544 21.977,9.691 21.977,9.048 C21.565,9.045 21.127,9.045 20.665,9.048 C20.665,9.678 20.226,10.453 19.135,10.526 C18.044,10.599 17.224,9.751 17.119,8.17 C17.014,6.59 17.445,4.778 18.872,4.778 C20.299,4.778 20.665,5.844 20.665,6.446 Z M30.211,3.701 C31.541,3.701 33.506,4.291 33.703,7.322 C33.901,10.354 32.014,11.598 30.33,11.598 C28.647,11.598 26.909,10.422 26.909,7.49 C26.909,4.558 28.881,3.701 30.211,3.701 Z M30.318,4.801 C28.978,4.801 28.295,5.941 28.295,7.517 C28.295,9.095 28.772,10.545 30.318,10.545 C31.865,10.545 32.445,9.087 32.322,7.401 C32.199,5.716 31.659,4.801 30.318,4.801 Z" id="Shape"></path>
            </g>
            <g id="Group" transform="translate(121.600000, 154.994000)" fill="#FFFFFF" fill-rule="nonzero">
                <path d="M51.511,10.213 L49.02,10.213 L49.02,1.969 L51.511,1.969 L51.511,10.213 Z M51.511,14.55 L49.02,14.55 L49.02,12.335 L51.511,12.335 L51.511,14.55 Z" id="Shape"></path>
                <path d="M27.826,4.696 L29.896,4.696 L30.001,6.204 C30.849,4.94 31.949,4.377 33.301,4.517 C34.084,4.598 35.735,4.855 36.227,7.078 C36.407,7.893 36.369,9.271 36.356,11.142 C36.351,11.869 36.351,13.127 36.356,14.917 L34.084,14.917 L34.084,8.514 C34.084,7.762 33.874,6.922 33.242,6.604 C32.374,6.166 30.741,6.349 30.085,7.452 L30.085,14.917 L27.826,14.917 L27.826,4.697 L27.826,4.696 Z M10.337,9.433 L10.337,7.739 L15.459,7.739 C15.517,10.691 15.517,12.412 15.459,12.902 C15.028,14.194 9.911,16.543 6.609,13.563 C5.624,12.675 5.161,11.691 4.908,10.202 C4.896,8.68 4.869,7.253 4.88,5.903 C5.13,4.249 5.684,3.309 6.13,2.776 C7.754,0.834 10.342,0.416 12.617,1.203 C14.893,1.99 15.189,3.624 15.373,5.223 C14.846,5.223 14.568,5.2 13.145,5.223 C13.289,4.323 12.47,2.584 10.335,2.68 C8.2,2.776 7.192,4.53 7.192,5.991 C7.192,7.453 7.116,6.962 7.192,9.866 C7.289,13.201 11.287,14.096 13.145,12.315 L13.212,9.475 L10.337,9.433 Z M0.272,8.673 L2.394,8.673 L2.394,18.075 L0.272,18.075 L0.272,8.673 Z M0.313,4.52 L0.313,6.317 L2.425,6.317 L2.425,4.519 L0.313,4.52 Z M40.936,7.271 C40.259,7.267 39.549,7.267 38.806,7.271 C38.806,6.203 39.571,4.265 42.631,4.265 C45.691,4.265 46.425,6.367 46.508,6.819 C46.591,7.271 46.294,13.618 46.935,14.339 L44.661,14.341 C44.474,13.699 44.38,13.224 44.38,12.917 C44.025,13.35 43.415,14.141 42.478,14.431 C41.541,14.721 39.412,14.878 38.54,12.835 C37.966,11.489 38.332,9.975 39.412,9.28 C41.196,8.134 43.648,8.518 44.38,8.518 C44.474,6.473 43.864,5.998 42.478,5.998 C41.554,5.998 41.04,6.422 40.936,7.271 Z M44.379,9.915 C43.6306472,9.89855032 42.8819671,9.90488659 42.134,9.934 C41.242,10.013 40.448,10.672 40.515,11.612 C40.596,12.732 41.87,12.939 42.868,12.615 C43.705,12.344 44.288,11.643 44.379,11.345 L44.379,9.915 Z M20.142,7.271 C19.465,7.267 18.755,7.267 18.012,7.271 C18.012,6.203 18.776,4.265 21.836,4.265 C24.896,4.265 25.63,6.367 25.713,6.819 C25.796,7.271 25.5,13.618 26.14,14.339 L23.867,14.341 C23.679,13.699 23.586,13.224 23.586,12.917 C23.231,13.35 22.621,14.141 21.684,14.431 C20.746,14.721 18.618,14.878 17.746,12.835 C17.171,11.489 17.538,9.975 18.618,9.28 C20.402,8.134 22.854,8.518 23.586,8.518 C23.68,6.473 23.069,5.998 21.684,5.998 C20.76,5.998 20.246,6.422 20.142,7.271 Z M23.585,9.915 C22.8366472,9.89855032 22.0879671,9.90488659 21.34,9.934 C20.448,10.013 19.653,10.672 19.721,11.612 C19.801,12.732 21.076,12.939 22.073,12.615 C22.91,12.344 23.493,11.643 23.585,11.345 L23.585,9.915 Z" id="Shape"></path>
            </g>
        </g>
    </g>
</svg>