<svg width="300" height="199" viewBox="0 0 300 199" xmlns="http://www.w3.org/2000/svg"><title>spanish touch</title><g fill="none" fill-rule="evenodd"><path fill="#F1F2F2" d="M0 0h300v199H0z"/><path d="M39.125 55.375V74.75H75.25V55.375H39.125zm0-1H75.25V34h1v20.375h36.125V34h1v20.375H149.5V34h1v20.375h36.125V34h1v20.375h36.125V34h1v20.375h36.125V34h1v20.375H299.5v1h-37.625V74.75H299.5v1h-37.625v19.375H299.5v1h-37.625V115.5H299.5v1h-37.625v19.375H299.5v1h-37.625v19.375H299.5v1h-37.625v19.375H299.5v1h-37.625V199h-1v-21.375H224.75V199h-1v-21.375h-36.125V199h-1v-21.375H150.5V199h-1v-21.375h-36.125V199h-1v-21.375H76.25V199h-1v-21.375H39.125V199h-1v-21.375H1.5v-1h36.625V157.25H1.5v-1h36.625v-19.375H1.5v-1h36.625V116.5H1.5v-1h36.625V96.125H1.5v-1h36.625V75.75H1.5v-1h36.625V55.375H1.5v-1h36.625V34h1v20.375zm221.75 1H224.75V74.75h36.125V55.375zm-37.125 0h-36.125V74.75h36.125V55.375zm-37.125 0H150.5V74.75h36.125V55.375zm-37.125 0h-36.125V74.75H149.5V55.375zm-37.125 0H76.25V74.75h36.125V55.375zM39.125 75.75v19.375H75.25V75.75H39.125zm221.75 0H224.75v19.375h36.125V75.75zm-37.125 0h-36.125v19.375h36.125V75.75zm-37.125 0H150.5v19.375h36.125V75.75zm-37.125 0h-36.125v19.375H149.5V75.75zm-37.125 0H76.25v19.375h36.125V75.75zm-73.25 20.375V115.5H75.25V96.125H39.125zm221.75 0H224.75V115.5h36.125V96.125zm-37.125 0h-36.125V115.5h36.125V96.125zm-37.125 0H150.5V115.5h36.125V96.125zm-37.125 0h-36.125V115.5H149.5V96.125zm-37.125 0H76.25V115.5h36.125V96.125zM39.125 116.5v19.375H75.25V116.5H39.125zm221.75 0H224.75v19.375h36.125V116.5zm-37.125 0h-36.125v19.375h36.125V116.5zm-37.125 0H150.5v19.375h36.125V116.5zm-37.125 0h-36.125v19.375H149.5V116.5zm-37.125 0H76.25v19.375h36.125V116.5zm-73.25 20.375v19.375H75.25v-19.375H39.125zm221.75 0H224.75v19.375h36.125v-19.375zm-37.125 0h-36.125v19.375h36.125v-19.375zm-37.125 0H150.5v19.375h36.125v-19.375zm-37.125 0h-36.125v19.375H149.5v-19.375zm-37.125 0H76.25v19.375h36.125v-19.375zm-73.25 20.375v19.375H75.25V157.25H39.125zm221.75 0H224.75v19.375h36.125V157.25zm-37.125 0h-36.125v19.375h36.125V157.25zm-37.125 0H150.5v19.375h36.125V157.25zm-37.125 0h-36.125v19.375H149.5V157.25zm-37.125 0H76.25v19.375h36.125V157.25z" fill="#DFDEDE"/><path stroke="#C2C2C2" stroke-width="2" d="M1 1h298v197H1z"/><path fill="#C2C2C2" d="M0 33h300v2H0z"/><path d="M2.248 75.285h295.125M261.92 33.967v162.757" stroke="#2A3052" stroke-width="1.23" stroke-linejoin="round"/><path stroke="#2A3052" stroke-width="3.689" stroke-linecap="round" stroke-linejoin="round" d="M37.891 137.242l37.358-33.93 26.542 26.352 32.026-35.415 46.458 42.993 44.288-61.957"/><path d="M188.805 147.98H153.2l-5.484-8.339-5.483 8.34h-35.606c-2.666 0-4.798 2.17-4.798 4.874v25.171c0 2.704 2.17 4.875 4.798 4.875h82.216c2.666 0 4.799-2.17 4.799-4.875v-25.171c0-2.704-2.171-4.874-4.837-4.874z" fill="#E88024" fill-rule="nonzero"/><ellipse cx="9.216" cy="8.843" rx="8.264" ry="8.606" opacity=".6" transform="translate(215.348 66.441)" fill="#FFF" fill-rule="nonzero"/><ellipse stroke="#E88024" stroke-width="2.46" cx="224.563" cy="75.285" rx="8.264" ry="8.606"/><ellipse cx="9.139" cy="9.063" rx="8.264" ry="8.606" opacity=".6" transform="translate(28.752 128.179)" fill="#FFF" fill-rule="nonzero"/><ellipse stroke="#E88024" stroke-width="2.46" cx="37.891" cy="137.242" rx="8.264" ry="8.606"/><path d="M24.89 13.887h-3.244v9.598h-2.277v-9.598h-3.197v-1.755h8.717v1.755zm.109 5.301c0-1.257.35-2.288 1.052-3.091.702-.803 1.674-1.205 2.916-1.205 1.248 0 2.225.4 2.932 1.201.707.8 1.06 1.832 1.06 3.095v.164c0 1.269-.352 2.302-1.056 3.1-.704.797-1.678 1.196-2.92 1.196-1.248 0-2.224-.399-2.928-1.196-.704-.798-1.056-1.831-1.056-3.1v-.164zm2.269.164c0 .77.135 1.387.405 1.852.27.465.707.698 1.31.698.587 0 1.017-.234 1.29-.702.273-.468.41-1.084.41-1.848v-.164c0-.748-.138-1.359-.414-1.832-.275-.473-.71-.71-1.302-.71-.587 0-1.017.238-1.29.714-.273.476-.41 1.085-.41 1.828v.164zm10.62 2.55c.394 0 .709-.118.943-.355.233-.236.35-.552.35-.947h2.074l.016.047c.02.852-.296 1.565-.951 2.14-.655.574-1.466.861-2.433.861-1.247 0-2.212-.399-2.893-1.196-.68-.798-1.021-1.818-1.021-3.06v-.235c0-1.237.34-2.257 1.018-3.06.678-.803 1.638-1.205 2.88-1.205 1.03 0 1.859.297 2.488.89.629.592.933 1.371.912 2.338l-.016.047h-2.074c0-.437-.115-.8-.347-1.088-.23-.288-.552-.432-.962-.432-.588 0-1.005.235-1.252.705-.247.47-.37 1.072-.37 1.805v.234c0 .749.123 1.354.37 1.817.247.463.67.694 1.267.694zm9.683 1.583a4.789 4.789 0 0 1-.214-.609 4.23 4.23 0 0 1-.13-.655 3.12 3.12 0 0 1-.927 1.022c-.385.27-.842.405-1.372.405-.884 0-1.565-.227-2.043-.682-.478-.455-.717-1.075-.717-1.86 0-.826.318-1.467.955-1.921.637-.455 1.566-.683 2.787-.683h1.279v-.67c0-.406-.107-.72-.32-.944-.213-.223-.53-.335-.951-.335-.369 0-.654.09-.854.27-.2.178-.3.424-.3.736h-2.19l-.016-.047c-.037-.712.274-1.327.931-1.844.658-.517 1.517-.776 2.577-.776 1.014 0 1.834.255 2.46.764.626.51.94 1.24.94 2.191v3.486c0 .395.03.766.09 1.115.06.348.154.694.284 1.037H47.57zm-2.082-1.52a1.94 1.94 0 0 0 1.06-.297c.312-.198.526-.426.64-.686v-1.193H45.91c-.483 0-.848.12-1.095.358-.247.24-.37.533-.37.882 0 .285.092.513.276.682.185.169.44.253.768.253z" fill="#000"/><g fill="#2A3052"><path d="M278.174 103.688l.108 1.12a2.445 2.445 0 0 1 2.17-1.229c.796 0 1.41.217 1.844.724.434.47.651 1.193.651 2.17v4.7h-1.338v-4.664c0-.651-.144-1.121-.398-1.41-.253-.29-.65-.399-1.157-.399a1.85 1.85 0 0 0-1.012.29c-.29.18-.543.434-.723.76v5.423h-1.338v-7.449l1.193-.036zM289.349 110.567c-.036-.18-.036-.325-.036-.505-.253.36-.577.649-.973.9-.396.253-.828.361-1.297.361-.756 0-1.332-.18-1.729-.612a2.197 2.197 0 0 1-.612-1.621c0-.72.288-1.26.865-1.657.576-.396 1.332-.612 2.305-.612h1.44v-.72c0-.433-.143-.793-.396-1.045-.252-.252-.648-.396-1.116-.396-.432 0-.793.108-1.045.324-.252.216-.396.504-.396.792h-1.26v-.036c-.037-.54.215-1.044.756-1.477.54-.432 1.224-.684 2.053-.684.828 0 1.513.216 2.017.648.504.433.756 1.045.756 1.837v3.566c0 .252 0 .504.036.757.036.252.072.504.144.72h-1.404v.072a20.551 20.551 0 0 0-.108-.612zm-2.18-.433c.468 0 .936-.108 1.296-.36.396-.252.648-.54.756-.864v-1.189h-1.476c-.54 0-.973.144-1.297.396a1.208 1.208 0 0 0-.468.973c0 .324.108.576.288.792.216.144.504.252.9.252zM272.095 101.25v1.015h-4.87v3.448h4.148v1.046h-4.148v4.414h-1.43v-9.924zM273.524 103.796h1.323v7.28h-1.323zM273.542 100.49v1.312h1.347v-1.313zM292.74 100.44h1.34v10.59h-1.34z"/></g><g fill="#2A3052"><path d="M25.394 153.67l.118 1.216a2.65 2.65 0 0 1 2.351-1.333c.863 0 1.529.235 2 .784.47.51.705 1.294.705 2.352v5.095h-1.45v-5.056c0-.706-.157-1.215-.432-1.529-.274-.313-.705-.43-1.254-.43-.43 0-.784.117-1.097.313-.314.196-.588.47-.784.823v5.88H24.1v-8.075l1.293-.04zM20.323 150.863h1.382v10.921h-1.382zM44.333 153.67h1.412v7.77h-1.412zM44.352 150.142v1.4h1.438v-1.4zM32.755 153.67h1.412v7.77h-1.412zM32.774 150.142v1.4h1.438v-1.4zM41.23 156.445c.79-.03 1.191 0 1.358 0 0-.885-.582-2.922-3.25-2.843-2.666.08-3.378 2.994-3.26 4.63.118 1.635 1.188 3.637 3.565 3.566 2.378-.07 2.945-1.99 2.945-2.657-.427-.003-.88-.003-1.359 0 0 .654-.455 1.456-1.586 1.532-1.13.076-1.98-.804-2.09-2.442-.108-1.638.339-3.515 1.818-3.515s1.858 1.105 1.858 1.729zM51.122 153.6c1.38 0 3.415.61 3.62 3.753.204 3.141-1.751 4.431-3.496 4.431s-3.546-1.218-3.546-4.257c0-3.039 2.044-3.927 3.422-3.927zm.111 1.139c-1.39 0-2.097 1.181-2.097 2.816 0 1.635.494 3.138 2.097 3.138s2.204-1.511 2.077-3.258c-.127-1.747-.687-2.696-2.077-2.696z"/></g><g fill="#6D6E71" opacity=".9"><path d="M43.194 69.068h.91l.784-5.143h-.933zM45.225 61.604l-.13.96h-.951l.163-.96zM38.462 67.908c.055.136.12.28.269.598-1.131.862-2.433.745-3.04.388-.916-.536-.916-1.533-.911-2.304.005-.983.728-2.811 2.74-2.811 2.013 0 1.682 2.172 1.584 2.811-.205 0-1.315.02-3.329.06-.186 2.39 1.62 1.856 2.687 1.258zm-.121-1.922c.117-.943-.173-1.415-.87-1.415-1.045 0-1.412 1.108-1.529 1.415h2.399zM28.292 64.568c.042-.193 1.18-1.192 2.385-.51.758.43.977 1.653.701 2.846-.316 1.37-.887 2.054-1.796 2.214-1.328.234-1.8-.51-1.907-.756a7.919 7.919 0 0 1-.279.702h-.7l1.099-7.374h.936c-.321 2.048-.468 3.008-.44 2.878zm-.445 3.068c.146.478.49.74 1.03.786.779.066 1.459-.675 1.61-1.698.15-1.014 0-2.026-.766-2.102-.702-.069-1.218.2-1.55.808l-.324 2.206zM23.764 62.08c1.458 0 2.489 1.018 2.437 2.612-.12.874-.145 1.084-.282 1.88-.463 1.572-1.473 2.59-3.395 2.59-1.26 0-2.279-1.208-2.116-2.858.033-.326.199-1.253.28-1.612.38-1.661 1.62-2.613 3.076-2.613zm.002.766c-1.242-.083-1.969 1.118-2.11 1.694-.142.575-.2 1.004-.325 1.899-.077.894.202 2.04 1.57 1.971 1.366-.069 1.937-1.232 2.107-1.971.089-.599.132-.81.253-1.663.122-.852-.253-1.846-1.495-1.93zM33.206 63.911h.893a343.483 343.483 0 0 0-.74 5.055c-.128 1.135-.51 2.48-2.365 2.055.098-.33.157-.568.179-.716.603.109 1.085.162 1.294-1.463.145-1.13.39-2.774.739-4.93zM33.533 61.62l-.15.946h.952l.128-.946zM45.901 63.916h.93l.741 3.999 1.889-4h.93l-2.67 5.128h-.656zM53.426 63.75c1.25.194 1.943 1.379 1.474 3.184-.47 1.806-2.06 2.353-3.257 2.014-1.196-.34-1.493-1.893-1.07-3.238.425-1.345 1.603-2.155 2.853-1.96zm-.152.736c-.937-.222-1.55.656-1.778 1.289-.227.632-.413 2.31.582 2.512.995.202 1.65-.538 1.927-1.477.277-.938.206-2.101-.73-2.324zM41.198 62.678h.916l-.172 1.237h.966l-.098.654h-.977c-.254 1.724-.407 2.765-.458 3.123-.118.553.135.762.758.628.008.132.02.346.033.64-1.169.413-1.892-.112-1.722-1.268l.46-3.123h-.819l.097-.654h.815l.201-1.237z"/></g><g fill="#FFF"><path d="M175.203 166.1h-2.69v-8.897h2.69zM175.203 170.78h-2.69v-2.39h2.69z"/><g><path d="M149.642 160.146h2.234l.113 1.627c.915-1.365 2.102-1.972 3.561-1.82.845.087 2.627.364 3.158 2.763.195.88.154 2.366.14 4.386a471.03 471.03 0 0 0 0 4.074h-2.453v-6.91c0-.812-.227-1.719-.908-2.062-.937-.472-2.7-.274-3.407.915v8.057h-2.438v-11.03zM130.768 165.257v-1.827h5.528c.062 3.185.062 5.042 0 5.57-.466 1.395-5.987 3.93-9.552.715-1.063-.959-1.562-2.02-1.835-3.628-.013-1.642-.042-3.182-.03-4.638.27-1.786.867-2.8 1.349-3.376 1.752-2.095 4.545-2.546 7-1.697 2.457.849 2.776 2.613 2.974 4.337-.568 0-.869-.024-2.404 0 .155-.97-.728-2.847-3.032-2.743-2.304.103-3.392 1.996-3.392 3.573s-.083 1.048 0 4.182c.105 3.599 4.419 4.565 6.424 2.642l.073-3.064-3.103-.046zM119.905 164.438h2.29v10.146h-2.29zM119.95 159.955v1.94h2.28v-1.94zM163.79 162.925c-.73-.005-1.497-.005-2.299 0 0-1.153.825-3.245 4.128-3.245 3.302 0 4.094 2.269 4.184 2.757.09.488-.23 7.336.46 8.115l-2.453.002c-.202-.693-.304-1.205-.304-1.537-.382.467-1.04 1.321-2.052 1.635-1.011.313-3.309.481-4.25-1.723-.62-1.453-.224-3.087.941-3.836 1.926-1.237 4.572-.823 5.361-.823.102-2.207-.557-2.72-2.052-2.72-.997 0-1.551.458-1.664 1.375zm3.716 2.853a39.803 39.803 0 0 0-2.423.02c-.963.085-1.82.797-1.747 1.811.087 1.21 1.462 1.432 2.538 1.083.904-.293 1.533-1.049 1.632-1.37v-1.544zM141.35 162.925c-.732-.005-1.498-.005-2.3 0 0-1.153.825-3.245 4.128-3.245 3.302 0 4.094 2.269 4.184 2.757.09.488-.23 7.336.46 8.115l-2.453.002c-.202-.693-.304-1.205-.304-1.537-.382.467-1.04 1.321-2.052 1.635-1.011.313-3.309.481-4.25-1.723-.62-1.453-.224-3.087.941-3.836 1.926-1.237 4.572-.823 5.361-.823.102-2.207-.557-2.72-2.052-2.72-.997 0-1.551.458-1.664 1.375zm3.715 2.853a39.803 39.803 0 0 0-2.423.02c-.963.085-1.82.797-1.747 1.811.087 1.21 1.462 1.432 2.538 1.083.904-.293 1.533-1.049 1.632-1.37v-1.544z"/></g></g></g></svg>