<svg width="160" height="120" xmlns="http://www.w3.org/2000/svg" xmlns:xlink="http://www.w3.org/1999/xlink"><defs><linearGradient x1="50%" y1="126.023%" x2="50%" y2="32.907%" id="a"><stop stop-color="#FFF" stop-opacity="0" offset="0%"/><stop stop-color="#999CAC" stop-opacity=".161" offset="100%"/></linearGradient><path id="b" d="M0 0h151v24H0z"/><filter x="-.3%" y="-2.1%" width="100.7%" height="104.2%" filterUnits="objectBoundingBox" id="c"><feOffset dy="1" in="SourceAlpha" result="shadowOffsetInner1"/><feComposite in="shadowOffsetInner1" in2="SourceAlpha" operator="arithmetic" k2="-1" k3="1" result="shadowInnerInner1"/><feColorMatrix values="0 0 0 0 0 0 0 0 0 0 0 0 0 0 0 0 0 0 0.04 0" in="shadowInnerInner1"/></filter></defs><g fill="none" fill-rule="evenodd"><path fill="#FFF" fill-rule="nonzero" d="M0 0h160v120H0z"/><g opacity=".8"><path fill="url(#a)" d="M0 15.06l1.348 3.764 4.045 7.53 2.697 3.764 4.045-3.765h2.696l2.697-3.764 1.348 3.764 1.349-3.764 1.348 3.764h2.697l1.348 15.06 2.697-3.765 4.045-3.765 1.348 3.765H39.1l3.045 25.765 2.348-25.765 1.349 3.765 1.348-3.765 6.742-7.53 1.348-11.294 4.045-3.765 8.09 3.765 2.696 3.765h2.697l1.348-3.765 1.349 3.765 1.348-3.765 1.348-3.765 4.045-7.53 2.697-3.764h2.696L88.99 0l2.696 3.765h2.697L97.08 7.53l1.348 18.823 1.348-3.764 6.742-3.765h2.696l1.349 11.294 1.348-11.294 1.348 3.765H130V83H0z" transform="translate(0 13)"/><path stroke="#999CAC" stroke-linecap="round" stroke-linejoin="round" d="M0 27.91l1.348 3.726 4.045 7.455 2.697 3.727 4.045-3.727h2.696l2.697-3.727 1.348 3.727 1.349-3.727 1.348 3.727h2.697L25.618 54l2.697-3.727 4.045-3.728 1.348 3.728H39.1L42.146 76l2.348-25.727L45.843 54l1.348-3.727 6.742-7.455 1.348-11.182 4.045-3.727 8.09 3.727 2.696 3.728h2.697l1.348-3.728 1.349 3.728 1.348-3.728 1.348-3.727 4.045-7.454 2.697-3.728h2.696L88.99 13l2.696 3.727h2.697l2.697 3.728 1.348 18.636 1.348-3.727 6.742-3.728h2.696l1.349 11.182 1.348-11.182 1.348 3.728H130"/></g><g transform="translate(130 29)"><path d="M1.5 6h18.75" stroke="#F93" stroke-width=".5" stroke-dasharray="2"/><circle fill="#F93" cx="1.5" cy="6.3" r="1.5"/><path fill="#F93" d="M19.415 0H30v12H19.415L14.4 6z"/></g><g transform="translate(5 96)"><use fill="#FFF" xlink:href="#b"/><use fill="#000" filter="url(#c)" xlink:href="#b"/></g><path d="M34.29 109.937l.637.636a.25.25 0 0 1-.354.354l-5.5-5.5a.25.25 0 1 1 .354-.354l.636.636a2.987 2.987 0 0 1 1.687-.699v-.76a.25.25 0 0 1 .5 0v.76a3 3 0 0 1 2.74 2.74h.76a.25.25 0 1 1 0 .5h-.76a2.987 2.987 0 0 1-.7 1.687zm-.354-.355a2.5 2.5 0 0 0-3.518-3.518l.356.356a2 2 0 0 1 2.806 2.806l.356.356zm-.713-.713a1.5 1.5 0 0 0-2.092-2.092l2.092 2.092zm-1.473 2.12a3 3 0 0 1-2.74-2.739h-.76a.25.25 0 1 1 0-.5h.76c.024-.288.089-.569.192-.835a.25.25 0 1 1 .467.18 2.5 2.5 0 0 0 3.27 3.222.25.25 0 1 1 .187.464 2.984 2.984 0 0 1-.876.209v.76a.25.25 0 1 1-.5 0v-.76zm-1.688-3.484a.25.25 0 1 1 .484.123 1.503 1.503 0 0 0 1.763 1.84.25.25 0 0 1 .102.49 2 2 0 0 1-2.35-2.453zm15.972.469a.75.75 0 1 1 1.43.006l.858.654a.747.747 0 0 1 .765-.054l1.488-1.503a.75.75 0 1 1 .355.352l-1.497 1.511a.75.75 0 1 1-1.404.1l-.868-.662a.746.746 0 0 1-.827-.004l-.868.652a.75.75 0 1 1-.3-.4l.868-.652zM51.25 107a.25.25 0 1 0 0-.5.25.25 0 0 0 0 .5zm-2.5 2.5a.25.25 0 1 0 0-.5.25.25 0 0 0 0 .5zm-2-1.5a.25.25 0 1 0 0-.5.25.25 0 0 0 0 .5zm-2 1.5a.25.25 0 1 0 0-.5.25.25 0 0 0 0 .5zm36.647-.5h-2.794l-1.127 2.358a.25.25 0 1 1-.451-.216L78.049 109h-.799a.25.25 0 1 1 0-.5h1.038l1.069-2.234a1 1 0 1 1 1.287 0l1.068 2.234h1.038a.25.25 0 0 1 0 .5h-.799l1.025 2.142a.25.25 0 1 1-.451.216L81.397 109zm-.24-.5l-.965-2.018a1.005 1.005 0 0 1-.384 0l-.966 2.018h2.316zM80 106a.5.5 0 1 0 0-1 .5.5 0 0 0 0 1zm-15.146 3h2.896a.25.25 0 1 1 0 .5h-2.896l1.073 1.073a.25.25 0 0 1-.354.354l-1.5-1.5a.25.25 0 0 1 0-.354l1.5-1.5a.25.25 0 0 1 .354.354L64.854 109zm-1.708-2H60.25a.25.25 0 1 1 0-.5h2.896l-1.073-1.073a.25.25 0 0 1 .354-.354l1.5 1.5a.25.25 0 0 1 0 .354l-1.5 1.5a.25.25 0 0 1-.354-.354L63.146 107zm65.104.75h2.25v.5h-2.25v2.25h-.5v-2.25h-2.25v-.5h2.25v-2.25h.5v2.25zm-18.75 0h5v1h-5zm-13.75 1.396v-2.396a.25.25 0 1 1 .5 0v2.396l.573-.573a.25.25 0 0 1 .354.354l-1 1a.25.25 0 0 1-.354 0l-1-1a.25.25 0 0 1 .354-.354l.573.573zM93.5 104h3.25l2.25 2.25v5.25a.5.5 0 0 1-.5.5h-5a.5.5 0 0 1-.5-.5v-7a.5.5 0 0 1 .5-.5zm5 2.5h-1.25a.75.75 0 0 1-.75-.75v-1.25h-3v7h5v-5zm-1.5-1.543v.793c0 .138.112.25.25.25h.793L97 104.957z" fill="#000" fill-opacity=".8"/></g></svg>