<svg width="160" height="120" xmlns="http://www.w3.org/2000/svg"><defs><linearGradient x1="50%" y1="126.023%" x2="50%" y2="32.907%" id="a"><stop stop-color="#FFF" stop-opacity="0" offset="0%"/><stop stop-color="#999CAC" stop-opacity=".161" offset="100%"/></linearGradient></defs><g fill="none" fill-rule="evenodd"><path fill="#FFF" fill-rule="nonzero" d="M0 0h160v120H0z"/><g opacity=".8"><path fill="url(#a)" d="M95.998 19.453l-9.498-.065-5 26.268-2-19.701-25-6.567L52.5 1l-23 18.388-4 19.701L22.5 1l-9 57.79H0v45.313L96 105z" transform="translate(0 15)"/><path d="M96 34.077c-.026.335-.24.59-.498.59h-8.576l-4.93 25.674c-.095.743-.914.725-.99-.02l-1.981-19.487-24.914-6.413a.771.771 0 0 1-.104-.317l-1.893-17.37-22.182 17.7-3.948 19.413c-.143.703-.923.623-.98-.102L22.337 19.97 13.99 73.476c-.047.305-.252.524-.49.524H0v-1.311h13.092l8.919-57.164c.114-.735.928-.682.987.064l2.72 34.475 3.3-16.221a.667.667 0 0 1 .223-.391l23-18.356c.307-.244.705.002.756.467l1.98 18.179 24.915 6.416a.773.773 0 0 1 .106.322l1.559 15.334 4.452-21.91c.04-.316.249-.548.493-.548 5.256-.034 8.105-.034 8.548 0 .443.034.76.274.95.72z" fill="#999CAC" fill-rule="nonzero"/></g><g transform="translate(95 26)"><path d="M2 8h57" stroke="#F93" stroke-width=".667" stroke-dasharray="2.667"/><circle fill="#F93" cx="2" cy="8.4" r="2"/><path fill="#F93" d="M26.716 0H65v16H26.716L20 8z"/></g></g></svg>