<svg width="160" height="120" xmlns="http://www.w3.org/2000/svg" xmlns:xlink="http://www.w3.org/1999/xlink"><defs><path d="M0 0h160v120H0V0z" id="a"/><rect id="c" x="0" y="0" width="140.734" height="31.351" rx="2.162"/><linearGradient x1="50%" y1="126.023%" x2="50%" y2="32.907%" id="e"><stop stop-color="#FFF" stop-opacity="0" offset="0%"/><stop stop-color="#999CAC" stop-opacity=".161" offset="100%"/></linearGradient></defs><g fill="none" fill-rule="evenodd"><mask id="b" fill="#fff"><use xlink:href="#a"/></mask><use fill="#FFF" fill-rule="nonzero" xlink:href="#a"/><g opacity=".8" mask="url(#b)"><g transform="translate(5 5)"><rect fill-opacity=".16" fill="#000" width="150" height="40" rx="2.162"/><g transform="translate(4.633 4.324)"><mask id="d" fill="#fff"><use xlink:href="#c"/></mask><use fill="#FFF" fill-rule="nonzero" xlink:href="#c"/><g mask="url(#d)" fill="#000" fill-opacity=".16"><path d="M102.046 20l3.244 4.324h-6.487z"/><g transform="translate(32.432 9.73)"><rect width="79.344" height="4.324" rx="1.081"/><rect y="10.27" width="59.653" height="4.324" rx="1.081"/></g></g><g mask="url(#d)" fill="#000" fill-opacity=".16"><circle cx="8.354" cy="8.354" r="8.354" transform="translate(4 7)"/></g></g></g></g><g opacity=".8" mask="url(#b)"><path fill="url(#e)" d="M0 50l5.63-8.466 1.567-3.503 3.132 3.503h6.265l1.566-3.503 6.264-10.51h3.132l3.132-3.503h20.359l9.397-10.509h6.264l3.132 3.503 7.83-3.503h23.492l4.698 3.503h12.529l1.566 3.503h6.264l4.699-13.509 1.566-3.503L138.748 0l6.264 13.509 1.567 3.503 3.132-3.503 4.698 7.006 1.566-3.503 1.566 7.006L160 20.515V50z" transform="translate(0 70)"/><path stroke="#999CAC" stroke-linecap="round" stroke-linejoin="round" d="M1 119l6.681-11.358 3.133 3.467h6.266l1.566-3.467 6.265-10.402h3.133l3.133-3.467H51.54l9.398-10.402h6.265l3.133 3.467 7.832-3.467h23.495l4.699 3.467h12.531l1.566 3.467h6.266l4.699-13.37 1.566-3.468L139.255 70l6.266 13.37 1.566 3.468 3.133-3.467 4.699 6.934 1.566-3.467 1.567 6.935L160 90.209"/></g></g></svg>