<svg width="160" height="120" xmlns="http://www.w3.org/2000/svg" xmlns:xlink="http://www.w3.org/1999/xlink"><defs><path d="M0 0h160v120H0V0z" id="a"/><rect id="c" x="0" y="0" width="140.734" height="31.351" rx="2.162"/><linearGradient x1="50%" y1="126.023%" x2="50%" y2="32.907%" id="e"><stop stop-color="#FFF" stop-opacity="0" offset="0%"/><stop stop-color="#999CAC" stop-opacity=".161" offset="100%"/></linearGradient></defs><g fill="none" fill-rule="evenodd"><mask id="b" fill="#fff"><use xlink:href="#a"/></mask><use fill="#FFF" fill-rule="nonzero" xlink:href="#a"/><g opacity=".8" mask="url(#b)"><g transform="translate(5 5)"><rect fill-opacity=".16" fill="#000" width="150" height="40" rx="2.162"/><g transform="translate(4.633 4.324)"><mask id="d" fill="#fff"><use xlink:href="#c"/></mask><use fill="#FFF" fill-rule="nonzero" xlink:href="#c"/><g mask="url(#d)" fill="#000" fill-opacity=".16"><path d="M102.046 20l3.244 4.324h-6.487z"/><g transform="translate(32.432 9.73)"><rect width="79.344" height="4.324" rx="1.081"/><rect y="10.27" width="59.653" height="4.324" rx="1.081"/></g></g><g mask="url(#d)" fill="#000" fill-opacity=".16"><circle cx="8.354" cy="8.354" r="8.354" transform="translate(4 7)"/></g></g></g></g><g opacity=".8" mask="url(#b)"><path fill="url(#e)" d="M0 50l5.63-8.466 1.567-3.503 3.132 3.503h6.265l1.566-3.503 6.264-10.51h3.132l3.132-3.503h20.359l9.397-10.509h6.264l3.132 3.503 7.83-3.503h23.492l4.698 3.503h12.529l1.566 3.503h6.264l4.699-13.509 1.566-3.503L138.748 0l6.264 13.509 1.567 3.503 3.132-3.503 4.698 7.006 1.566-3.503 1.566 7.006L160 20.515V50z" transform="translate(0 70)"/><path stroke="#999CAC" stroke-linecap="round" stroke-linejoin="round" d="M1 119l6.681-11.358 3.133 3.467h6.266l1.566-3.467 6.265-10.402h3.133l3.133-3.467H51.54l9.398-10.402h6.265l3.133 3.467 7.832-3.467h23.495l4.699 3.467h12.531l1.566 3.467h6.266l4.699-13.37 1.566-3.468L139.255 70l6.266 13.37 1.566 3.468 3.133-3.467 4.699 6.934 1.566-3.467 1.567 6.935L160 90.209"/></g><g fill-rule="nonzero" mask="url(#b)"><g fill="#000"><path d="M59.326 73.425h2.527V74h-3.234v-5.332h.707v4.757zm7.43-1.919c0 .523-.088.978-.264 1.368-.175.39-.424.687-.747.892a2.055 2.055 0 0 1-1.128.307c-.42 0-.792-.103-1.117-.31a2.045 2.045 0 0 1-.756-.882c-.18-.382-.271-.824-.276-1.327v-.385c0-.513.089-.965.267-1.358.178-.394.43-.694.756-.903a2.03 2.03 0 0 1 1.12-.313c.426 0 .803.103 1.129.31.326.205.577.505.752.896.176.392.264.848.264 1.368v.337zm-.7-.344c0-.632-.126-1.118-.38-1.456-.254-.338-.61-.507-1.066-.507-.444 0-.794.169-1.05.507-.254.338-.385.808-.393 1.408v.392c0 .613.129 1.094.387 1.445.257.35.612.525 1.063.525.455 0 .806-.165 1.055-.496.25-.33.377-.805.385-1.423v-.395zm2.905 1.157l.102.703.15-.633 1.055-3.721h.593l1.03 3.72.146.645.113-.718.828-3.647h.707L72.392 74h-.64l-1.1-3.885-.084-.407-.084.407L69.345 74h-.64l-1.29-5.332h.703l.843 3.651zm5.376 1.326c0-.117.034-.215.104-.293.07-.078.174-.117.313-.117.14 0 .245.039.317.117a.416.416 0 0 1 .108.293.393.393 0 0 1-.108.282c-.072.075-.178.113-.317.113s-.243-.038-.313-.113a.4.4 0 0 1-.104-.282zm.003-3.234c0-.117.035-.215.105-.293.07-.078.174-.117.313-.117s.245.039.317.117a.416.416 0 0 1 .108.293.393.393 0 0 1-.108.282c-.072.076-.178.114-.317.114-.14 0-.244-.038-.313-.114a.4.4 0 0 1-.105-.282z" fill-opacity=".4"/><path d="M81.47 71.795c0 .738-.152 1.302-.457 1.692-.305.39-.752.586-1.34.586-.582 0-1.026-.191-1.334-.575-.307-.383-.465-.932-.472-1.648v-.981c0-.745.154-1.31.463-1.696.309-.385.754-.578 1.335-.578s1.025.19 1.333.573c.308.382.465.93.472 1.646v.981zm-1.058-1.076c0-.442-.06-.764-.181-.965-.121-.202-.31-.302-.566-.302-.249 0-.433.095-.551.287-.119.192-.181.491-.189.9v1.296c0 .434.06.757.178.968.118.211.308.317.57.317.258 0 .445-.101.56-.304.114-.203.174-.513.18-.93v-1.267zm5.361 1.076c0 .738-.152 1.302-.457 1.692-.306.39-.752.586-1.34.586-.582 0-1.026-.191-1.334-.575-.307-.383-.465-.932-.472-1.648v-.981c0-.745.154-1.31.463-1.696.309-.385.754-.578 1.335-.578s1.025.19 1.333.573c.308.382.465.93.472 1.646v.981zm-1.058-1.076c0-.442-.06-.764-.181-.965-.121-.202-.31-.302-.566-.302-.249 0-.433.095-.551.287-.119.192-.181.491-.189.9v1.296c0 .434.06.757.178.968.118.211.308.317.57.317.258 0 .445-.101.56-.304.114-.203.174-.513.18-.93v-1.267zm1.871 2.761c0-.168.057-.305.17-.41a.604.604 0 0 1 .427-.158.61.61 0 0 1 .43.158c.114.105.17.242.17.41 0 .166-.055.3-.168.405a.612.612 0 0 1-.432.155.607.607 0 0 1-.428-.155.526.526 0 0 1-.169-.405zm5.67-1.685c0 .738-.153 1.302-.458 1.692-.306.39-.752.586-1.34.586-.582 0-1.026-.191-1.334-.575-.307-.383-.465-.932-.472-1.648v-.981c0-.745.154-1.31.463-1.696.309-.385.754-.578 1.335-.578s1.025.19 1.333.573c.308.382.465.93.472 1.646v.981zm-1.059-1.076c0-.442-.06-.764-.181-.965-.121-.202-.31-.302-.566-.302-.25 0-.433.095-.551.287-.119.192-.181.491-.189.9v1.296c0 .434.06.757.178.968.118.211.308.317.57.317.258 0 .445-.101.56-.304.114-.203.174-.513.179-.93v-1.267zm5.361 1.076c0 .738-.152 1.302-.457 1.692-.306.39-.752.586-1.34.586-.582 0-1.026-.191-1.334-.575-.307-.383-.465-.932-.472-1.648v-.981c0-.745.154-1.31.463-1.696.309-.385.754-.578 1.335-.578s1.025.19 1.333.573c.308.382.465.93.472 1.646v.981zM95.5 70.72c0-.442-.06-.764-.181-.965-.121-.202-.31-.302-.566-.302-.25 0-.433.095-.551.287-.119.192-.181.491-.189.9v1.296c0 .434.06.757.178.968.118.211.308.317.57.317.258 0 .445-.101.56-.304.114-.203.174-.513.179-.93V70.72z"/></g><g fill="#000"><path d="M13.717 74h-.707v-2.465h-2.688V74h-.703v-5.332h.703v2.292h2.688v-2.292h.707V74zm2.003 0h-.703v-5.332h.703V74zm5.222-.7c-.18.26-.433.453-.756.581a3.06 3.06 0 0 1-1.13.192 2.19 2.19 0 0 1-1.157-.306 2.037 2.037 0 0 1-.782-.87c-.184-.375-.279-.811-.284-1.307v-.465c0-.803.188-1.426.562-1.867.375-.442.902-.663 1.58-.663.557 0 1.005.142 1.345.426.339.285.546.688.622 1.21h-.703c-.132-.705-.552-1.058-1.26-1.058-.47 0-.828.166-1.07.497-.244.33-.367.81-.369 1.437v.436c0 .598.137 1.073.41 1.426.274.353.644.53 1.11.53.263 0 .494-.03.692-.089a1.07 1.07 0 0 0 .49-.296v-1.198H19.01v-.571h1.933v1.956zm5.27.7h-.707v-2.465h-2.688V74h-.703v-5.332h.703v2.292h2.688v-2.292h.707V74zm1.12-.355c0-.117.035-.215.105-.293.07-.078.174-.117.313-.117.14 0 .245.039.317.117a.416.416 0 0 1 .108.293.393.393 0 0 1-.108.282c-.072.075-.178.113-.317.113-.14 0-.244-.038-.313-.113a.4.4 0 0 1-.104-.282zm.004-3.234c0-.117.035-.215.105-.293.07-.078.174-.117.313-.117s.244.039.316.117a.416.416 0 0 1 .108.293.393.393 0 0 1-.108.282c-.072.076-.177.114-.316.114-.14 0-.244-.038-.313-.114a.4.4 0 0 1-.105-.282z" fill-opacity=".4"/><path d="M34.466 71.795c0 .738-.152 1.302-.457 1.692-.306.39-.752.586-1.34.586-.582 0-1.026-.191-1.334-.575-.307-.383-.465-.932-.472-1.648v-.981c0-.745.154-1.31.463-1.696.309-.385.754-.578 1.335-.578.58 0 1.025.19 1.333.573.308.382.465.93.472 1.646v.981zm-1.058-1.076c0-.442-.06-.764-.181-.965-.121-.202-.31-.302-.566-.302-.25 0-.433.095-.551.287-.119.192-.182.491-.189.9v1.296c0 .434.06.757.178.968.118.211.308.317.57.317.258 0 .445-.101.56-.304.114-.203.174-.513.179-.93v-1.267zm5.361 1.076c0 .738-.152 1.302-.457 1.692-.306.39-.752.586-1.34.586-.582 0-1.026-.191-1.334-.575-.307-.383-.465-.932-.472-1.648v-.981c0-.745.154-1.31.463-1.696.309-.385.754-.578 1.335-.578.58 0 1.025.19 1.333.573.307.382.465.93.472 1.646v.981zm-1.058-1.076c0-.442-.06-.764-.181-.965-.121-.202-.31-.302-.566-.302-.25 0-.433.095-.551.287-.119.192-.182.491-.189.9v1.296c0 .434.06.757.178.968.118.211.308.317.57.317.258 0 .445-.101.56-.304.114-.203.174-.513.179-.93v-1.267zm1.871 2.761c0-.168.057-.305.17-.41a.604.604 0 0 1 .427-.158.61.61 0 0 1 .43.158c.114.105.17.242.17.41 0 .166-.055.3-.168.405a.612.612 0 0 1-.432.155.607.607 0 0 1-.428-.155.526.526 0 0 1-.169-.405zm5.67-1.685c0 .738-.153 1.302-.459 1.692-.305.39-.751.586-1.34.586-.58 0-1.025-.191-1.333-.575-.308-.383-.465-.932-.472-1.648v-.981c0-.745.154-1.31.463-1.696.309-.385.754-.578 1.335-.578.58 0 1.025.19 1.333.573.307.382.465.93.472 1.646v.981zm-1.06-1.076c0-.442-.06-.764-.18-.965-.121-.202-.31-.302-.566-.302-.25 0-.433.095-.551.287-.119.192-.182.491-.189.9v1.296c0 .434.06.757.178.968.118.211.308.317.57.317.258 0 .445-.101.56-.304.114-.203.174-.513.179-.93v-1.267zm5.362 1.076c0 .738-.152 1.302-.458 1.692-.305.39-.752.586-1.34.586-.581 0-1.025-.191-1.333-.575-.308-.383-.465-.932-.472-1.648v-.981c0-.745.154-1.31.463-1.696.309-.385.754-.578 1.335-.578.58 0 1.025.19 1.333.573.307.382.465.93.472 1.646v.981zm-1.058-1.076c0-.442-.06-.764-.181-.965-.121-.202-.31-.302-.566-.302-.25 0-.433.095-.551.287-.119.192-.182.491-.189.9v1.296c0 .434.06.757.178.968.118.211.308.317.57.317.258 0 .445-.101.56-.304.114-.203.174-.513.179-.93v-1.267z"/></g><path d="M109.541 58.308c-.066.564-.274 1-.624 1.306-.35.306-.816.46-1.397.46-.63 0-1.135-.227-1.515-.678-.38-.452-.57-1.056-.57-1.813v-.513c0-.495.09-.931.266-1.307a1.98 1.98 0 0 1 .753-.866 2.09 2.09 0 0 1 1.128-.302c.566 0 1.02.158 1.362.474.342.316.54.754.597 1.313h-.707c-.06-.425-.193-.733-.397-.923-.204-.19-.489-.286-.855-.286-.45 0-.802.166-1.057.498-.255.332-.382.805-.382 1.418v.516c0 .579.12 1.039.362 1.38.242.342.58.513 1.015.513.39 0 .69-.088.899-.265.208-.177.347-.485.415-.925h.707zm1.666 1.117h2.527V60H110.5v-5.332h.707v4.757zm7.43-1.919c0 .523-.087.978-.263 1.368-.176.39-.425.687-.747.892a2.055 2.055 0 0 1-1.128.307c-.42 0-.792-.103-1.117-.31a2.045 2.045 0 0 1-.756-.882c-.18-.382-.272-.824-.277-1.327v-.385c0-.513.09-.965.268-1.358.178-.394.43-.694.756-.903a2.03 2.03 0 0 1 1.119-.313c.427 0 .804.103 1.13.31.325.205.576.505.752.896.176.392.264.848.264 1.368v.337zm-.699-.344c0-.632-.127-1.118-.38-1.456-.255-.338-.61-.507-1.066-.507-.445 0-.794.169-1.05.507-.255.338-.386.808-.393 1.408v.392c0 .613.129 1.094.386 1.445.258.35.612.525 1.064.525.454 0 .806-.165 1.055-.496.249-.33.377-.805.384-1.423v-.395zm3.325.461c-.603-.173-1.041-.386-1.316-.639a1.221 1.221 0 0 1-.412-.935c0-.42.168-.768.503-1.042.336-.275.773-.412 1.31-.412.366 0 .692.07.98.212.286.142.508.337.666.586.157.25.236.521.236.817h-.707c0-.323-.102-.576-.307-.76-.206-.184-.495-.277-.868-.277-.347 0-.617.077-.812.23-.194.152-.29.364-.29.635 0 .217.092.4.276.55.184.15.498.288.941.413.443.124.79.262 1.04.412.25.15.436.325.557.525.12.2.181.436.181.707 0 .432-.168.778-.505 1.038-.337.26-.788.39-1.352.39a2.51 2.51 0 0 1-1.025-.21 1.726 1.726 0 0 1-.734-.577 1.408 1.408 0 0 1-.259-.831h.707c0 .322.12.576.357.763.238.187.556.28.954.28.371 0 .656-.075.854-.227a.737.737 0 0 0 .296-.619c0-.26-.091-.463-.274-.606-.184-.143-.516-.284-.997-.423zm5.893-.088h-2.311v1.89h2.684V60h-3.387v-5.332h3.35v.579h-2.647v1.713h2.31v.575z" fill-opacity=".4" fill="#000"/><path d="M128.276 59.645c0-.117.035-.215.105-.293.07-.078.174-.117.313-.117s.245.039.317.117a.416.416 0 0 1 .108.293.393.393 0 0 1-.108.282c-.072.075-.178.113-.317.113-.14 0-.244-.038-.313-.113a.4.4 0 0 1-.105-.282zm.004-3.234c0-.117.035-.215.104-.293.07-.078.174-.117.314-.117.139 0 .244.039.316.117a.416.416 0 0 1 .108.293.393.393 0 0 1-.108.282c-.072.076-.177.114-.316.114-.14 0-.244-.038-.314-.114a.4.4 0 0 1-.104-.282z" fill="#AAACBA"/><path d="M135.41 57.795c0 .738-.152 1.302-.458 1.692-.305.39-.752.586-1.34.586-.581 0-1.025-.191-1.333-.575-.308-.383-.465-.932-.472-1.648v-.981c0-.745.154-1.31.463-1.696.309-.385.754-.578 1.335-.578.58 0 1.025.19 1.333.573.307.382.465.93.472 1.646v.981zm-1.058-1.076c0-.442-.06-.764-.181-.965-.121-.202-.31-.302-.566-.302-.25 0-.433.095-.551.287-.119.192-.182.491-.189.9v1.296c0 .434.06.757.178.968.118.211.308.317.57.317.258 0 .445-.101.56-.304.114-.203.174-.513.179-.93v-1.267zm5.361 1.076c0 .738-.152 1.302-.458 1.692-.305.39-.752.586-1.34.586-.581 0-1.025-.191-1.333-.575-.308-.383-.465-.932-.472-1.648v-.981c0-.745.154-1.31.463-1.696.309-.385.754-.578 1.335-.578.58 0 1.025.19 1.333.573.307.382.465.93.472 1.646v.981zm-1.058-1.076c0-.442-.06-.764-.181-.965-.121-.202-.31-.302-.566-.302-.25 0-.433.095-.551.287-.119.192-.182.491-.189.9v1.296c0 .434.06.757.178.968.118.211.308.317.569.317.259 0 .446-.101.56-.304.115-.203.175-.513.18-.93v-1.267zm1.871 2.761c0-.168.057-.305.17-.41a.604.604 0 0 1 .427-.158.61.61 0 0 1 .43.158c.114.105.17.242.17.41 0 .166-.056.3-.168.405a.612.612 0 0 1-.432.155.607.607 0 0 1-.428-.155.526.526 0 0 1-.169-.405zm5.67-1.685c0 .738-.154 1.302-.459 1.692-.305.39-.752.586-1.34.586-.581 0-1.025-.191-1.333-.575-.308-.383-.465-.932-.472-1.648v-.981c0-.745.154-1.31.463-1.696.309-.385.754-.578 1.335-.578.58 0 1.025.19 1.333.573.307.382.465.93.472 1.646v.981zm-1.06-1.076c0-.442-.06-.764-.18-.965-.121-.202-.31-.302-.566-.302-.25 0-.433.095-.551.287-.119.192-.182.491-.19.9v1.296c0 .434.06.757.179.968.118.211.308.317.569.317.259 0 .446-.101.56-.304.115-.203.175-.513.18-.93v-1.267zm5.362 1.076c0 .738-.153 1.302-.458 1.692-.305.39-.752.586-1.34.586-.581 0-1.025-.191-1.333-.575-.308-.383-.465-.932-.472-1.648v-.981c0-.745.154-1.31.463-1.696.309-.385.754-.578 1.335-.578.58 0 1.025.19 1.333.573.307.382.465.93.472 1.646v.981zm-1.058-1.076c0-.442-.06-.764-.182-.965-.12-.202-.309-.302-.565-.302-.25 0-.433.095-.552.287-.118.192-.18.491-.188.9v1.296c0 .434.06.757.177.968.119.211.309.317.57.317.259 0 .446-.101.56-.304.115-.203.175-.513.18-.93v-1.267z" fill="#000"/><g fill="#000"><path d="M62.72 57.506c0 .523-.087.978-.263 1.368-.176.39-.425.687-.747.892a2.055 2.055 0 0 1-1.128.307c-.42 0-.792-.103-1.117-.31a2.045 2.045 0 0 1-.756-.882c-.18-.382-.272-.824-.277-1.327v-.385c0-.513.09-.965.267-1.358.179-.394.43-.694.757-.903a2.03 2.03 0 0 1 1.118-.313c.428 0 .804.103 1.13.31.326.205.577.505.753.896.176.392.263.848.263 1.368v.337zm-.699-.344c0-.632-.127-1.118-.38-1.456-.255-.338-.61-.507-1.067-.507-.444 0-.794.169-1.049.507-.255.338-.386.808-.393 1.408v.392c0 .613.128 1.094.386 1.445.258.35.612.525 1.064.525.454 0 .805-.165 1.054-.496.25-.33.378-.805.385-1.423v-.395zm2.457.75V60h-.703v-5.332h1.967c.583 0 1.04.149 1.371.447.331.298.496.692.496 1.183 0 .517-.161.916-.485 1.195-.323.28-.787.42-1.39.42h-1.256zm0-.574h1.264c.376 0 .664-.089.864-.266.2-.177.3-.433.3-.767 0-.317-.1-.571-.3-.762-.2-.19-.475-.29-.824-.296h-1.304v2.09zm7.043.197H69.21v1.89h2.684V60h-3.387v-5.332h3.35v.579H69.21v1.713h2.31v.575zM76.867 60h-.707l-2.684-4.109V60h-.707v-5.332h.707l2.692 4.127v-4.127h.7V60zm1.12-.355c0-.117.036-.215.105-.293.07-.078.174-.117.313-.117.14 0 .245.039.317.117a.416.416 0 0 1 .108.293.393.393 0 0 1-.108.282c-.072.075-.178.113-.317.113s-.243-.038-.313-.113a.4.4 0 0 1-.104-.282zm.004-3.234c0-.117.035-.215.105-.293.07-.078.174-.117.313-.117.14 0 .245.039.317.117a.416.416 0 0 1 .108.293.393.393 0 0 1-.108.282c-.072.076-.178.114-.317.114-.14 0-.244-.038-.313-.114a.4.4 0 0 1-.105-.282z" fill-opacity=".4"/><path d="M85.122 57.795c0 .738-.153 1.302-.458 1.692-.305.39-.752.586-1.34.586-.582 0-1.026-.191-1.334-.575-.307-.383-.465-.932-.472-1.648v-.981c0-.745.154-1.31.463-1.696.31-.385.754-.578 1.335-.578s1.026.19 1.333.573c.308.382.465.93.473 1.646v.981zm-1.059-1.076c0-.442-.06-.764-.181-.965-.12-.202-.31-.302-.566-.302-.249 0-.433.095-.551.287-.118.192-.181.491-.189.9v1.296c0 .434.06.757.178.968.118.211.308.317.57.317.258 0 .445-.101.56-.304.115-.203.174-.513.18-.93v-1.267zm5.362 1.076c0 .738-.153 1.302-.458 1.692-.305.39-.752.586-1.34.586-.582 0-1.026-.191-1.334-.575-.307-.383-.465-.932-.472-1.648v-.981c0-.745.154-1.31.463-1.696.31-.385.754-.578 1.335-.578s1.026.19 1.333.573c.308.382.465.93.473 1.646v.981zm-1.059-1.076c0-.442-.06-.764-.181-.965-.12-.202-.31-.302-.566-.302-.249 0-.433.095-.551.287-.118.192-.181.491-.189.9v1.296c0 .434.06.757.178.968.118.211.308.317.57.317.258 0 .445-.101.56-.304.115-.203.174-.513.18-.93v-1.267zm1.872 2.761c0-.168.056-.305.17-.41a.604.604 0 0 1 .426-.158.61.61 0 0 1 .43.158.532.532 0 0 1 .171.41c0 .166-.056.3-.168.405a.612.612 0 0 1-.433.155.607.607 0 0 1-.428-.155.526.526 0 0 1-.168-.405zm5.668-1.685c0 .738-.152 1.302-.457 1.692-.305.39-.752.586-1.34.586-.582 0-1.026-.191-1.334-.575-.307-.383-.465-.932-.472-1.648v-.981c0-.745.154-1.31.463-1.696.31-.385.754-.578 1.335-.578s1.025.19 1.333.573c.308.382.465.93.472 1.646v.981zm-1.058-1.076c0-.442-.06-.764-.181-.965-.121-.202-.31-.302-.566-.302-.249 0-.433.095-.551.287-.118.192-.181.491-.189.9v1.296c0 .434.06.757.178.968.118.211.308.317.57.317.258 0 .445-.101.56-.304.114-.203.174-.513.18-.93v-1.267zm5.361 1.076c0 .738-.152 1.302-.457 1.692-.305.39-.752.586-1.34.586-.582 0-1.026-.191-1.334-.575-.307-.383-.465-.932-.472-1.648v-.981c0-.745.154-1.31.463-1.696.31-.385.754-.578 1.335-.578s1.025.19 1.333.573c.308.382.465.93.472 1.646v.981zm-1.058-1.076c0-.442-.06-.764-.181-.965-.121-.202-.31-.302-.566-.302-.249 0-.433.095-.551.287-.119.192-.181.491-.189.9v1.296c0 .434.06.757.178.968.118.211.308.317.57.317.258 0 .445-.101.56-.304.114-.203.174-.513.18-.93v-1.267z"/></g><g fill="#000"><path d="M10.322 57.913V60h-.703v-5.332h1.966c.584 0 1.041.149 1.372.447.33.298.496.692.496 1.183 0 .517-.162.916-.485 1.195-.324.28-.787.42-1.39.42h-1.256zm0-.575h1.263c.376 0 .665-.089.865-.266.2-.177.3-.433.3-.767 0-.317-.1-.571-.3-.762-.2-.19-.475-.29-.824-.296h-1.304v2.09zm5.984.505h-1.253V60h-.706v-5.332h1.765c.6 0 1.062.137 1.386.41.323.274.485.672.485 1.194 0 .332-.09.621-.269.868-.18.246-.43.43-.749.553l1.253 2.263V60h-.755l-1.157-2.157zm-1.253-.575h1.08c.35 0 .628-.09.834-.27.206-.182.31-.423.31-.726 0-.33-.099-.582-.295-.758-.197-.176-.48-.265-.852-.267h-1.077v2.021zM19.723 60h-.703v-5.332h.703V60zm5.207-1.692c-.066.564-.274 1-.624 1.306-.35.306-.816.46-1.397.46-.63 0-1.135-.227-1.515-.678-.38-.452-.569-1.056-.569-1.813v-.513c0-.495.088-.931.265-1.307a1.98 1.98 0 0 1 .753-.866 2.09 2.09 0 0 1 1.128-.302c.566 0 1.02.158 1.362.474.342.316.541.754.597 1.313h-.707c-.06-.425-.193-.733-.397-.923-.204-.19-.489-.286-.855-.286-.45 0-.801.166-1.057.498-.255.332-.382.805-.382 1.418v.516c0 .579.12 1.039.362 1.38.242.342.58.513 1.015.513.39 0 .69-.088.899-.265.208-.177.347-.485.415-.925h.707zm3.974-.773h-2.311v1.89h2.684V60H25.89v-5.332h3.35v.579h-2.647v1.713h2.31v.575zm1.12 2.11c0-.117.035-.215.105-.293.07-.078.173-.117.313-.117.139 0 .244.039.316.117a.416.416 0 0 1 .108.293.393.393 0 0 1-.108.282c-.072.075-.177.113-.316.113-.14 0-.244-.038-.313-.113a.4.4 0 0 1-.105-.282zm.004-3.234c0-.117.035-.215.104-.293.07-.078.174-.117.313-.117.14 0 .245.039.317.117a.416.416 0 0 1 .108.293.393.393 0 0 1-.108.282c-.072.076-.178.114-.317.114s-.243-.038-.313-.114a.4.4 0 0 1-.104-.282z" fill-opacity=".4"/><path d="M37.158 57.795c0 .738-.153 1.302-.458 1.692-.305.39-.752.586-1.34.586-.581 0-1.026-.191-1.333-.575-.308-.383-.465-.932-.473-1.648v-.981c0-.745.155-1.31.464-1.696.309-.385.753-.578 1.335-.578.58 0 1.025.19 1.333.573.307.382.465.93.472 1.646v.981zM36.1 56.72c0-.442-.06-.764-.182-.965-.12-.202-.31-.302-.565-.302-.25 0-.433.095-.552.287-.118.192-.18.491-.188.9v1.296c0 .434.059.757.177.968.119.211.309.317.57.317.259 0 .445-.101.56-.304.115-.203.175-.513.18-.93V56.72zm5.36 1.076c0 .738-.152 1.302-.457 1.692-.305.39-.752.586-1.34.586-.581 0-1.026-.191-1.333-.575-.308-.383-.465-.932-.473-1.648v-.981c0-.745.155-1.31.464-1.696.309-.385.753-.578 1.335-.578.58 0 1.025.19 1.333.573.307.382.465.93.472 1.646v.981zm-1.057-1.076c0-.442-.06-.764-.182-.965-.12-.202-.31-.302-.565-.302-.25 0-.433.095-.552.287-.118.192-.18.491-.188.9v1.296c0 .434.059.757.177.968.119.211.309.317.57.317.259 0 .445-.101.56-.304.115-.203.175-.513.18-.93V56.72zm1.87 2.761c0-.168.058-.305.171-.41a.604.604 0 0 1 .427-.158.61.61 0 0 1 .43.158c.114.105.17.242.17.41 0 .166-.056.3-.168.405a.612.612 0 0 1-.432.155.607.607 0 0 1-.429-.155.526.526 0 0 1-.168-.405zm5.67-1.685c0 .738-.153 1.302-.458 1.692-.305.39-.752.586-1.34.586-.581 0-1.026-.191-1.333-.575-.308-.383-.465-.932-.473-1.648v-.981c0-.745.155-1.31.464-1.696.308-.385.753-.578 1.334-.578.582 0 1.026.19 1.333.573.308.382.466.93.473 1.646v.981zm-1.058-1.076c0-.442-.06-.764-.182-.965-.12-.202-.31-.302-.566-.302-.249 0-.432.095-.55.287-.12.192-.182.491-.19.9v1.296c0 .434.06.757.178.968.119.211.309.317.57.317.259 0 .445-.101.56-.304.115-.203.175-.513.18-.93V56.72zm5.36 1.076c0 .738-.152 1.302-.457 1.692-.305.39-.752.586-1.34.586-.581 0-1.026-.191-1.333-.575-.308-.383-.465-.932-.473-1.648v-.981c0-.745.155-1.31.464-1.696.308-.385.753-.578 1.334-.578.581 0 1.026.19 1.333.573.308.382.466.93.473 1.646v.981zm-1.058-1.076c0-.442-.06-.764-.18-.965-.122-.202-.31-.302-.567-.302-.249 0-.432.095-.55.287-.12.192-.182.491-.19.9v1.296c0 .434.06.757.178.968.119.211.309.317.57.317.259 0 .445-.101.56-.304.115-.203.175-.513.18-.93V56.72z"/></g></g></g></svg>