<?xml version="1.0" encoding="UTF-8"?>
<svg width="299px" height="197px" viewBox="0 0 299 197" version="1.1" xmlns="http://www.w3.org/2000/svg" xmlns:xlink="http://www.w3.org/1999/xlink">
    <!-- Generator: Sketch 52.6 (67491) - http://www.bohemiancoding.com/sketch -->
    <title>close low</title>
    <desc>Created with Sketch.</desc>
    <g id="Page-1" stroke="none" stroke-width="1" fill="none" fill-rule="evenodd">
        <g id="close-low">
            <g id="Group">
                <polygon id="Shape" fill="#F1F2F2" points="0 0 299 0 299 197 0 197"></polygon>
                <path d="M1.98671096,1.9798995 L1.98671096,195.020101 L297.013289,195.020101 L297.013289,1.9798995 L1.98671096,1.9798995 Z M299,0 L299,197 L0,197 L0,0 L299,0 Z" id="Path" fill="#C2C2C2" fill-rule="nonzero"></path>
                <path d="M4.887,56.1681983 L4.887,54.9623677 L294.54325,54.9623677 L294.54325,56.1681983 L4.887,56.1681983 Z M4.887,96.4974436 L4.887,95.291613 L294.54325,95.291613 L294.54325,96.4974436 L4.887,96.4974436 Z M4.887,136.826689 L4.887,135.620859 L294.54325,135.620859 L294.54325,136.826689 L4.887,136.826689 Z M4.887,177.118764 L4.887,175.912934 L294.54325,175.912934 L294.54325,177.118764 L4.887,177.118764 Z M39.2670847,35.4192453 L40.4729153,35.4192453 L40.4729153,194.283019 L39.2670847,194.283019 L39.2670847,35.4192453 Z M75.9319597,35.4192453 L77.1377903,35.4192453 L77.1377903,194.283019 L75.9319597,194.283019 L75.9319597,35.4192453 Z M112.55946,35.4192453 L113.76529,35.4192453 L113.76529,194.283019 L112.55946,194.283019 L112.55946,35.4192453 Z M149.224335,35.4192453 L150.430165,35.4192453 L150.430165,194.283019 L149.224335,194.283019 L149.224335,35.4192453 Z M185.851835,35.4192453 L187.057665,35.4192453 L187.057665,194.283019 L185.851835,194.283019 L185.851835,35.4192453 Z M222.479335,35.4192453 L223.685165,35.4192453 L223.685165,194.283019 L222.479335,194.283019 L222.479335,35.4192453 Z M4.887,116.643481 L4.887,115.437651 L294.54325,115.437651 L294.54325,116.643481 L4.887,116.643481 Z" id="Shape-2" fill="#DFDEDE" fill-rule="nonzero"></path>
                <path d="M4.887,72.5954004 L4.887,71.4676184 L12.3557552,71.4676184 L12.3557552,72.5954004 L4.887,72.5954004 Z M19.8245105,72.5954004 L19.8245105,71.4676184 L27.2932657,71.4676184 L27.2932657,72.5954004 L19.8245105,72.5954004 Z M34.762021,72.5954004 L34.762021,71.4676184 L42.2307762,71.4676184 L42.2307762,72.5954004 L34.762021,72.5954004 Z M49.6995315,72.5954004 L49.6995315,71.4676184 L57.1682867,71.4676184 L57.1682867,72.5954004 L49.6995315,72.5954004 Z M64.637042,72.5954004 L64.637042,71.4676184 L72.1057972,71.4676184 L72.1057972,72.5954004 L64.637042,72.5954004 Z M79.5745525,72.5954004 L79.5745525,71.4676184 L87.0433077,71.4676184 L87.0433077,72.5954004 L79.5745525,72.5954004 Z M94.5120629,72.5954004 L94.5120629,71.4676184 L101.980818,71.4676184 L101.980818,72.5954004 L94.5120629,72.5954004 Z M109.449573,72.5954004 L109.449573,71.4676184 L116.918329,71.4676184 L116.918329,72.5954004 L109.449573,72.5954004 Z M124.387084,72.5954004 L124.387084,71.4676184 L131.855839,71.4676184 L131.855839,72.5954004 L124.387084,72.5954004 Z M139.324594,72.5954004 L139.324594,71.4676184 L146.79335,71.4676184 L146.79335,72.5954004 L139.324594,72.5954004 Z M154.262105,72.5954004 L154.262105,71.4676184 L161.73086,71.4676184 L161.73086,72.5954004 L154.262105,72.5954004 Z M169.199615,72.5954004 L169.199615,71.4676184 L176.668371,71.4676184 L176.668371,72.5954004 L169.199615,72.5954004 Z M184.137126,72.5954004 L184.137126,71.4676184 L191.605881,71.4676184 L191.605881,72.5954004 L184.137126,72.5954004 Z M199.074636,72.5954004 L199.074636,71.4676184 L206.543392,71.4676184 L206.543392,72.5954004 L199.074636,72.5954004 Z M214.012147,72.5954004 L214.012147,71.4676184 L221.480902,71.4676184 L221.480902,72.5954004 L214.012147,72.5954004 Z M228.949657,72.5954004 L228.949657,71.4676184 L236.418413,71.4676184 L236.418413,72.5954004 L228.949657,72.5954004 Z M243.887168,72.5954004 L243.887168,71.4676184 L251.355923,71.4676184 L251.355923,72.5954004 L243.887168,72.5954004 Z M258.824678,72.5954004 L258.824678,71.4676184 L266.293434,71.4676184 L266.293434,72.5954004 L258.824678,72.5954004 Z M273.762189,72.5954004 L273.762189,71.4676184 L281.230944,71.4676184 L281.230944,72.5954004 L273.762189,72.5954004 Z M288.699699,72.5954004 L288.699699,71.4676184 L294.54325,71.4676184 L294.54325,72.5954004 L288.699699,72.5954004 Z" id="Shape-3" fill="#15212D" fill-rule="nonzero"></path>
                <polygon id="Path" fill="#2A3052" fill-rule="nonzero" points="240.45671 35.4192453 241.66254 35.4192453 241.66254 194.283019 240.45671 194.283019"></polygon>
                <path d="M4.887,164.367665 L4.887,163.239883 L12.3557552,163.239883 L12.3557552,164.367665 L4.887,164.367665 Z M19.8245105,164.367665 L19.8245105,163.239883 L27.2932657,163.239883 L27.2932657,164.367665 L19.8245105,164.367665 Z M34.762021,164.367665 L34.762021,163.239883 L42.2307762,163.239883 L42.2307762,164.367665 L34.762021,164.367665 Z M49.6995315,164.367665 L49.6995315,163.239883 L57.1682867,163.239883 L57.1682867,164.367665 L49.6995315,164.367665 Z M64.637042,164.367665 L64.637042,163.239883 L72.1057972,163.239883 L72.1057972,164.367665 L64.637042,164.367665 Z M79.5745525,164.367665 L79.5745525,163.239883 L87.0433077,163.239883 L87.0433077,164.367665 L79.5745525,164.367665 Z M94.5120629,164.367665 L94.5120629,163.239883 L101.980818,163.239883 L101.980818,164.367665 L94.5120629,164.367665 Z M109.449573,164.367665 L109.449573,163.239883 L116.918329,163.239883 L116.918329,164.367665 L109.449573,164.367665 Z M124.387084,164.367665 L124.387084,163.239883 L131.855839,163.239883 L131.855839,164.367665 L124.387084,164.367665 Z M139.324594,164.367665 L139.324594,163.239883 L146.79335,163.239883 L146.79335,164.367665 L139.324594,164.367665 Z M154.262105,164.367665 L154.262105,163.239883 L161.73086,163.239883 L161.73086,164.367665 L154.262105,164.367665 Z M169.199615,164.367665 L169.199615,163.239883 L176.668371,163.239883 L176.668371,164.367665 L169.199615,164.367665 Z M184.137126,164.367665 L184.137126,163.239883 L191.605881,163.239883 L191.605881,164.367665 L184.137126,164.367665 Z M199.074636,164.367665 L199.074636,163.239883 L206.543392,163.239883 L206.543392,164.367665 L199.074636,164.367665 Z M214.012147,164.367665 L214.012147,163.239883 L221.480902,163.239883 L221.480902,164.367665 L214.012147,164.367665 Z M228.949657,164.367665 L228.949657,163.239883 L236.418413,163.239883 L236.418413,164.367665 L228.949657,164.367665 Z M243.887168,164.367665 L243.887168,163.239883 L251.355923,163.239883 L251.355923,164.367665 L243.887168,164.367665 Z M258.824678,164.367665 L258.824678,163.239883 L266.293434,163.239883 L266.293434,164.367665 L258.824678,164.367665 Z M273.762189,164.367665 L273.762189,163.239883 L281.230944,163.239883 L281.230944,164.367665 L273.762189,164.367665 Z M288.699699,164.367665 L288.699699,163.239883 L294.54325,163.239883 L294.54325,164.367665 L288.699699,164.367665 Z" id="Path-2" fill="#15212D" fill-rule="nonzero"></path>
                <polygon id="Shape-4" fill="#C2C2C2" fill-rule="nonzero" points="2.794 35.4358286 2.794 33.023794 296.63625 33.023794 296.63625 35.4358286"></polygon>
                <path d="M56.6412045,102.228668 L21.9184493,117.693023 C21.0058223,118.099477 19.9364962,117.689142 19.5300426,116.776515 C19.123589,115.863888 19.5339236,114.794562 20.4465507,114.388109 L56.1920007,98.4682786 C56.8186454,98.1891919 57.5492377,98.2885757 58.0785624,98.7249108 L82.6943534,119.016303 L119.638733,41.2259873 C120.326397,39.7780365 122.418251,39.873755 122.970809,41.3784555 L166.248555,159.230425 L193.157061,102.18506 C193.2951,101.892421 193.509104,101.642163 193.776768,101.46037 L239.807817,70.196842 C240.634268,69.6355301 241.759272,69.8504679 242.320584,70.676919 C242.881896,71.5033701 242.666958,72.6283744 241.840507,73.1896864 L196.218312,104.175527 L167.676577,164.683298 C166.991747,166.13512 164.895812,166.041977 164.342466,164.535129 L121.059235,46.6682254 L84.9674046,122.663409 C84.4622096,123.72715 83.0914543,124.032248 82.1827751,123.283202 L56.6412045,102.228668 Z" id="Shape-5" fill="#2A3052" fill-rule="nonzero"></path>
                <g opacity="0.6" transform="translate(232.725000, 61.471698)" fill="#FFFFFF" id="Oval">
                    <ellipse cx="8.334625" cy="9.2588679" rx="8.110375" ry="8.40037736"></ellipse>
                </g>
                <path d="M241.059625,80.3369606 C235.904659,80.3369606 231.743233,76.0267348 231.743233,70.730566 C231.743233,65.4343972 235.904659,61.1241714 241.059625,61.1241714 C246.214591,61.1241714 250.376017,65.4343972 250.376017,70.730566 C250.376017,76.0267348 246.214591,80.3369606 241.059625,80.3369606 Z M241.059625,77.9249261 C244.863132,77.9249261 247.963983,74.7131979 247.963983,70.730566 C247.963983,66.7479341 244.863132,63.5362059 241.059625,63.5362059 C237.256118,63.5362059 234.155267,66.7479341 234.155267,70.730566 C234.155267,74.7131979 237.256118,77.9249261 241.059625,77.9249261 Z" id="Oval-2" fill="#E88024" fill-rule="nonzero"></path>
                <g id="Group-2" opacity="0.6" transform="translate(157.975000, 154.396226)" fill="#FFFFFF">
                    <ellipse id="Oval-3" cx="8.110375" cy="9.2588679" rx="8.110375" ry="8.40037736"></ellipse>
                </g>
                <path d="M166.085375,173.261489 C160.930409,173.261489 156.768983,168.951263 156.768983,163.655094 C156.768983,158.358925 160.930409,154.048699 166.085375,154.048699 C171.240341,154.048699 175.401767,158.358925 175.401767,163.655094 C175.401767,168.951263 171.240341,173.261489 166.085375,173.261489 Z M166.085375,170.849454 C169.888882,170.849454 172.989733,167.637726 172.989733,163.655094 C172.989733,159.672462 169.888882,156.460734 166.085375,156.460734 C162.281868,156.460734 159.181017,159.672462 159.181017,163.655094 C159.181017,167.637726 162.281868,170.849454 166.085375,170.849454 Z" id="Oval-4" fill="#E88024" fill-rule="nonzero"></path>
            </g>
            <g id="Group" transform="translate(9.186000, 123.194000)" fill="#2A3052" fill-rule="nonzero">
                <path d="M1.474,13.548 L0.369,13.548 L0.369,0.685 L5.782,0.685 L5.782,5.289 L1.474,5.289 L1.474,13.548 Z M1.488,1.538 L1.488,2.598 L4.802,2.598 L4.802,1.538 L1.488,1.538 Z M4.776,3.426 L1.488,3.426 L1.488,4.459 L4.776,4.459 L4.776,3.426 Z M7.072,5.23 L7.072,0.71 L12.524,0.71 C12.565,6.968 12.565,10.549 12.524,11.453 C12.462,12.809 12.78,13.795 9.628,13.454 C9.57,13.198 9.488,12.896 9.381,12.548 C10.146,12.365 11.496,13.18 11.496,11.624 L11.496,5.23 L7.072,5.23 Z M8.117,3.42 L8.117,4.394 L11.469,4.394 L11.469,3.42 L8.117,3.42 Z M8.108,1.553 L8.108,2.594 L11.44,2.594 L11.44,1.554 L8.108,1.554 L8.108,1.553 Z" id="Shape"></path>
                <path d="M9.953,6.373 L9.953,7.269 L8.503,7.269 L8.503,8.963 L10.408,8.963 L10.408,9.893 L8.502,9.893 L8.502,13.27 L7.562,13.27 L7.562,9.893 C6.552,9.897 5.781,9.897 5.251,9.893 C5.121,10.495 5.121,12.488 2.976,13.476 C2.78992104,13.2038858 2.61282566,12.9257359 2.445,12.642 C3.171,12.258 4.085,11.779 4.319,9.925 L2.436,9.895 L2.445,8.963 L4.385,8.963 L4.385,7.269 L2.825,7.269 L2.825,6.373 L9.953,6.373 Z M7.565,7.275 L5.35,7.275 L5.35,8.965 L7.566,8.965 L7.566,7.275 L7.565,7.275 Z M16.2,0.218 L17.262,0.338 L16.824,3.07 C16.964,3.08 17.692,3.08 19.007,3.07 C19.043,5.076 18.629,8.07 17.786,9.79 C18.692,10.766 19.263,11.427 19.497,11.777 L18.789,12.566 L17.336,10.83 C16.488,12.22 15.751,13.189 15.124,13.736 C15.019,13.586 14.804,13.312 14.478,12.915 C15.298,12.038 16.109,11.142 16.591,10.089 L14.719,8.223 L15.66,4.065 L14.478,4.065 L14.478,3.07 L15.803,3.07 L16.2,0.218 Z M18.044,4.072 L16.704,4.072 C16.4577849,5.3504537 16.1696294,6.62047223 15.84,7.88 C16.339,8.364 16.738,8.757 17.04,9.059 C17.553,7.964 18.044,4.85 18.044,4.072 Z M22.701,0.237 L23.679,0.572 C22.556,2.903 21.684,4.415 21.063,5.11 C23.895,4.863 25.453,4.691 25.74,4.594 C25.047,3.278 24.644,2.541 24.531,2.384 L25.445,1.94 C26.43,3.636 27.181,5.039 27.698,6.148 L26.705,6.648 L26.188,5.508 C22.608,5.921 20.441,6.134 19.688,6.148 C19.6390141,5.82300775 19.5840047,5.49895202 19.523,5.176 C20.371,4.709 21.431,3.063 22.701,0.237 Z M25.876,13.736 L25.876,12.835 L21.38,12.835 L21.38,13.735 L20.347,13.735 L20.347,7.487 L26.874,7.487 L26.874,13.736 L25.876,13.736 Z M25.869,8.45 L21.405,8.45 L21.405,11.815 L25.869,11.815 L25.869,8.45 Z" id="Shape"></path>
            </g>
            <path d="M248.011,57.23 L247.663,56.235 C247.862,56.161 247.961,56.037 247.961,55.863 L247.961,49.25 L249.117,49.25 L249.117,55.825 C249.627,55.664 250.137,55.49 250.647,55.291 L250.647,48.206 L251.814,48.206 L251.814,58.486 C253.02,57.889 254.002,57.13 254.748,56.198 C254.148366,55.2805956 253.667844,54.2906533 253.318,53.252 L254.276,52.705 C254.586,53.575 254.984,54.395 255.456,55.142 C256.078,53.986 256.438,52.631 256.526,51.09 L254.3,51.09 C253.878,52.159 253.343,53.066 252.71,53.787 L251.976,52.892 C252.921,51.699 253.555,50.108 253.878,48.106 L255.058,48.306 C254.952611,48.8527521 254.828539,49.3957367 254.686,49.934 L258.626,49.934 L258.626,51.09 L257.656,51.09 C257.557,53.066 257.06,54.756 256.177,56.173 C256.953505,57.1592744 257.87062,58.0261873 258.899,58.746 L258.091,59.691 C257.107866,58.9717463 256.222148,58.1280454 255.456,57.181 C254.661,58.137 253.654,58.945 252.436,59.591 L251.814,58.585 L251.814,59.529 L250.646,59.529 L250.646,56.422 C249.801,56.72 248.931,56.994 248.011,57.23 Z M265.686,51.363 L265.686,52.333 L265.214,52.37 L265.214,54.21 C265.214,54.806 264.866,55.104 264.182,55.104 L263.585,55.104 L263.325,54.184 C263.523,54.209 263.697,54.222 263.871,54.222 C264.058,54.222 264.157,54.085 264.157,53.837 L264.157,52.457 C263.437,52.507 262.678,52.557 261.907,52.606 C261.771,53.662 261.447,54.557 260.925,55.278 L260.068,54.508 C260.466,53.986 260.714,53.364 260.838,52.656 L260.055,52.693 L259.906,51.686 L260.926,51.649 L260.926,48.952 L262.218,48.952 C262.342,48.653 262.442,48.342 262.516,48.032 L263.697,48.193 C263.625902,48.456196 263.525963,48.710738 263.399,48.952 L265.214,48.952 L265.214,51.4 L265.686,51.363 Z M264.157,51.475 L264.157,49.871 L261.97,49.871 L261.97,51.599 L263.213,51.525 C262.915257,51.1500116 262.591098,50.7967787 262.243,50.468 L262.877,50.058 C263.3,50.456 263.61,50.816 263.834,51.127 L263.262,51.525 L264.157,51.475 Z M266.457,48.467 L269.875,48.467 L269.875,49.884 C269.875,50.033 269.962,50.12 270.148,50.12 L271.093,50.12 L271.093,51.065 L269.863,51.065 C269.153,51.065 268.806,50.742 268.806,50.095 L268.806,49.387 L267.476,49.387 C267.448962,49.7099808 267.364647,50.0255701 267.227,50.319 C267.066,50.629 266.767,50.965 266.32,51.313 L265.5,50.567 C265.798,50.344 266.034,50.12 266.208,49.871 C266.37,49.611 266.457,49.138 266.457,48.467 Z M269.962,55.49 L269.962,58.237 L271.242,58.237 L271.242,59.293 L259.932,59.293 L259.932,58.238 L261.212,58.238 L261.212,55.491 L269.962,55.491 L269.962,55.49 Z M262.355,58.237 L263.722,58.237 L263.722,56.558 L262.355,56.558 L262.355,58.236 L262.355,58.237 Z M264.865,58.237 L266.258,58.237 L266.258,56.558 L264.866,56.558 L264.866,58.236 L264.865,58.237 Z M267.401,58.237 L268.818,58.237 L268.818,56.558 L267.401,56.558 L267.401,58.236 L267.401,58.237 Z M270.608,51.512 L270.608,52.258 C270.332836,52.8282614 269.938651,53.3329276 269.452,53.738 C270.024,54.023 270.558,54.321 271.056,54.644 L270.372,55.464 C269.796088,55.0460525 269.189354,54.6723173 268.557,54.346 C267.849,54.719 267.004,55.03 266.022,55.254 L265.524,54.309 C266.174286,54.1822608 266.814351,54.0077887 267.439,53.787 C266.965045,53.5607183 266.484145,53.3492821 265.997,53.153 L266.569,52.482 C267.252,52.73 267.886,52.992 268.483,53.265 C268.843,53.016 269.129,52.755 269.353,52.469 L265.984,52.469 L265.984,51.512 L270.608,51.512 Z M262.74,52.582 C263.213,53.016 263.573,53.402 263.822,53.737 L263.188,54.172 C262.914,53.812 262.554,53.414 262.118,52.979 L262.74,52.581 L262.74,52.582 Z M279.321,48.082 L280.49,48.243 C280.465,48.579 280.428,48.902 280.403,49.225 L283.373,49.225 L283.373,50.294 L280.279,50.294 C280.229,50.592 280.192,50.866 280.154,51.139 L282.603,51.139 L282.603,58.199 L283.734,58.199 L283.734,59.269 L275.518,59.269 L275.518,58.199 L276.748,58.199 L276.748,51.139 L278.998,51.139 C279.048,50.853 279.085,50.567 279.11,50.294 L276.052,50.294 L276.052,49.225 L279.234,49.225 C279.259,48.84 279.297,48.455 279.321,48.082 Z M277.88,58.199 L281.472,58.199 L281.472,57.367 L277.88,57.367 L277.88,58.199 Z M277.88,56.434 L281.472,56.434 L281.472,55.639 L277.88,55.639 L277.88,56.434 Z M277.88,54.694 L281.472,54.694 L281.472,53.911 L277.88,53.911 L277.88,54.694 Z M277.88,52.979 L281.472,52.979 L281.472,52.196 L277.88,52.196 L277.88,52.979 Z M273.89,52.805 C273.517,53.327 273.119,53.837 272.696,54.321 L272.311,53.066 C273.467,51.649 274.312,49.983 274.847,48.094 L275.916,48.591 C275.683362,49.3718577 275.38807,50.1326619 275.033,50.866 L275.033,59.629 L273.89,59.629 L273.89,52.805 Z" id="Shape" fill="#2A3052" fill-rule="nonzero"></path>
            <path d="M15.38,20.432 L15,19.316 C15.216,19.228 15.33,19.088 15.33,18.911 L15.33,12.217 L16.623,12.217 L16.623,18.847 C17.105,18.695 17.586,18.53 18.055,18.353 L18.055,11.153 L19.361,11.153 L19.361,16.337 C20.35,15.007 21.009,13.244 21.351,11.063 L22.683,11.292 C22.581,11.849 22.467,12.382 22.34,12.876 L26.258,12.876 L26.258,14.182 L25.294,14.182 C25.193,16.134 24.711,17.808 23.862,19.228 C24.6633186,20.2080829 25.5829919,21.0850978 26.6,21.839 L25.687,22.917 C24.7146412,22.1699254 23.8300055,21.3151467 23.05,20.369 C22.239,21.332 21.212,22.156 19.97,22.815 L19.361,21.827 L19.361,22.739 L18.055,22.739 L18.055,19.621 C17.193,19.925 16.305,20.191 15.38,20.432 Z M21.935,14.182 C21.808,14.512 21.681,14.829 21.555,15.132 C21.931768,16.1652733 22.4249434,17.1522951 23.025,18.074 C23.608,16.958 23.95,15.653 24.039,14.182 L21.935,14.182 Z M20.781,16.552 C20.586097,16.843073 20.3744052,17.1225463 20.147,17.389 L19.361,16.413 L19.361,21.523 C20.553,20.939 21.516,20.191 22.239,19.278 C21.6619109,18.4214224 21.1733994,17.508395 20.781,16.553 L20.781,16.552 Z M27.678,14.524 L28.54,14.524 L28.54,11.9 L29.87,11.9 C29.985,11.596 30.074,11.304 30.15,11 L31.48,11.178 C31.4082792,11.426217 31.3152673,11.6677802 31.202,11.9 L33.015,11.9 L33.015,17.263 C33.015,17.897 32.647,18.226 31.912,18.226 L31.303,18.226 L31.012,17.199 C31.215,17.225 31.392,17.237 31.557,17.237 C31.734,17.237 31.836,17.111 31.836,16.857 L31.836,15.513 L29.656,15.513 C29.528,16.667 29.199,17.63 28.666,18.403 L27.716,17.542 C28.121,16.984 28.387,16.299 28.489,15.513 L27.678,15.513 L27.678,14.524 Z M31.836,14.524 L31.836,12.914 L29.706,12.914 L29.706,14.524 L30.846,14.524 C30.5588381,14.1635801 30.2456673,13.8246737 29.909,13.51 L30.619,13.054 C31.037,13.459 31.354,13.814 31.582,14.131 L31.024,14.524 L31.836,14.524 Z M33.94,15.577 L33.433,15.577 L33.433,14.55 L38.491,14.55 L38.491,15.348 C38.212,15.957 37.781,16.477 37.224,16.933 C37.731,17.111 38.314,17.275 38.974,17.427 L38.377,18.391 C37.527,18.137 36.805,17.871 36.209,17.567 C35.525,17.909 34.726,18.188 33.813,18.404 L33.268,17.364 C33.8828938,17.2517791 34.4888221,17.0950331 35.081,16.895 C34.549,16.489 34.168,16.045 33.941,15.577 L33.94,15.577 Z M36.095,16.426 C36.526,16.16 36.869,15.881 37.122,15.576 L35.068,15.576 C35.297,15.881 35.638,16.172 36.095,16.426 Z M37.845,18.568 L37.845,21.332 L39.125,21.332 L39.125,22.512 L27.563,22.512 L27.563,21.332 L28.843,21.332 L28.843,18.568 L37.845,18.568 Z M30.125,21.332 L31.392,21.332 L31.392,19.76 L30.124,19.76 L30.124,21.332 L30.125,21.332 Z M32.672,21.332 L33.966,21.332 L33.966,19.76 L32.672,19.76 L32.672,21.332 Z M35.246,21.332 L36.564,21.332 L36.564,19.76 L35.247,19.76 L35.247,21.332 L35.246,21.332 Z M34.181,11.406 L37.769,11.406 L37.769,12.838 C37.769,12.978 37.857,13.054 38.035,13.054 L38.973,13.054 L38.973,14.106 L37.705,14.106 C36.945,14.106 36.577,13.764 36.577,13.079 L36.577,12.419 L35.322,12.419 C35.2916765,12.7426386 35.2106889,13.0595027 35.082,13.358 C34.929,13.662 34.612,14.005 34.156,14.372 L33.23,13.536 C33.522,13.32 33.763,13.092 33.94,12.851 C34.092,12.585 34.181,12.103 34.181,11.406 Z M30.479,15.627 C30.949,16.058 31.303,16.451 31.557,16.794 L30.86,17.275 C30.5313415,16.8472233 30.170993,16.4447562 29.782,16.071 L30.479,15.627 Z M47.289,11.025 L48.608,11.203 L48.532,12.166 L51.498,12.166 L51.498,13.358 L48.392,13.358 L48.278,14.118 L50.725,14.118 L50.725,21.281 L51.866,21.281 L51.866,22.498 L43.461,22.498 L43.461,21.281 L44.703,21.281 L44.703,14.119 L46.96,14.119 L47.074,13.358 L44.006,13.358 L44.006,12.166 L47.201,12.166 C47.226,11.773 47.264,11.393 47.289,11.026 L47.289,11.025 Z M45.959,21.281 L49.469,21.281 L49.469,20.546 L45.959,20.546 L45.959,21.281 Z M45.959,19.507 L49.469,19.507 L49.469,18.797 L45.959,18.797 L45.959,19.507 Z M45.959,17.757 L49.469,17.757 L49.469,17.047 L45.959,17.047 L45.959,17.757 Z M45.959,16.007 L49.469,16.007 L49.469,15.31 L45.959,15.31 L45.959,16.008 L45.959,16.007 Z M41.749,16.058 C41.394,16.54 41.027,17.022 40.621,17.478 L40.191,16.058 C41.331,14.638 42.181,12.965 42.726,11.038 L43.917,11.596 C43.6808664,12.3727798 43.3887685,13.1314321 43.043,13.866 L43.043,22.853 L41.749,22.853 L41.749,16.058 Z M52.994,17.63 L59.396,17.63 L59.396,18.822 L52.994,18.822 L52.994,17.63 Z M60.753,15.944 L72.01,15.944 L72.01,16.984 L66.42,16.984 L66.42,20.66 C66.648,20.622 66.863,20.584 67.066,20.559 L67.066,21.56 C66.863,21.598 66.648,21.636 66.42,21.687 L66.42,22.879 L65.152,22.879 L65.152,21.865 C64.036,22.004 62.616,22.131 60.918,22.258 L60.753,21.142 L61.818,21.092 L61.818,16.984 L60.753,16.984 L60.753,15.944 Z M63.023,21.015 C63.808,20.965 64.518,20.901 65.152,20.825 L65.152,20.229 L63.022,20.229 L63.022,21.015 L63.023,21.015 Z M63.023,19.291 L65.152,19.291 L65.152,18.594 L63.022,18.594 L63.022,19.291 L63.023,19.291 Z M63.023,17.656 L65.152,17.656 L65.152,16.984 L63.022,16.984 L63.022,17.656 L63.023,17.656 Z M62.211,11.469 L70.616,11.469 L70.616,15.386 L62.211,15.386 L62.211,11.469 Z M69.348,14.474 L69.348,13.878 L63.467,13.878 L63.467,14.474 L69.349,14.474 L69.348,14.474 Z M63.466,12.99 L69.348,12.99 L69.348,12.42 L63.467,12.42 L63.467,12.99 L63.466,12.99 Z M67.294,18.62 L66.901,18.62 L66.901,17.554 L71.364,17.554 L71.364,18.556 C71.1798686,19.4000127 70.8022883,20.1897476 70.261,20.863 C70.768,21.218 71.376,21.523 72.074,21.801 L71.402,22.891 C70.642,22.536 69.982,22.143 69.437,21.712 C68.879,22.169 68.207,22.562 67.434,22.892 L66.762,21.877 C67.459,21.598 68.055,21.269 68.549,20.888 C67.929,20.204 67.509,19.443 67.294,18.619 L67.294,18.62 Z M69.348,20.102 C69.716,19.646 69.995,19.152 70.172,18.619 L68.422,18.619 C68.612,19.164 68.917,19.659 69.348,20.102 Z M78.45,16.882 L78.45,20.812 C78.73,20.686 79.008,20.559 79.287,20.419 L79.503,21.56 C78.78,21.84 77.943,22.143 76.98,22.46 L76.638,21.332 C76.993,21.218 77.17,20.99 77.17,20.66 L77.17,12.572 C79.82,12.179 81.924,11.735 83.483,11.228 L84.206,12.28 C83.585,12.483 82.862,12.686 82.038,12.889 C82.0477119,13.8024097 82.0817239,14.7153994 82.14,15.627 L84.65,15.627 L84.65,16.882 L82.241,16.882 C82.279,17.339 82.33,17.719 82.406,18.049 C82.609,19.152 82.824,19.938 83.065,20.407 C83.293,20.888 83.471,21.142 83.572,21.142 C83.661,21.142 83.762,20.508 83.864,19.253 L84.954,19.849 C84.7,21.738 84.307,22.689 83.788,22.689 C83.357,22.689 82.913,22.346 82.444,21.687 C81.974,21.027 81.582,19.976 81.252,18.556 C81.1301823,18.003187 81.0370577,17.4444397 80.973,16.882 L78.45,16.882 Z M80.758,13.168 C80.048,13.308 79.274,13.447 78.45,13.574 L78.45,15.627 L80.86,15.627 C80.8046378,14.8080252 80.7706262,13.9877468 80.758,13.167 L80.758,13.168 Z M80.466,19.848 C81.151,20.711 81.671,21.484 82.038,22.143 L81.049,22.828 C80.669,22.131 80.175,21.358 79.566,20.495 L80.466,19.849 L80.466,19.848 Z M75.876,11.038 L77.081,11.608 C76.7817708,12.5321999 76.3911737,13.4242756 75.915,14.271 L75.915,22.853 L74.622,22.853 L74.622,16.198 C74.28,16.628 73.912,17.048 73.532,17.453 L73.101,16.058 C74.343,14.638 75.268,12.965 75.877,11.038 L75.876,11.038 Z M92.991,11.025 L94.31,11.203 L94.234,12.166 L97.2,12.166 L97.2,13.358 L94.094,13.358 L93.98,14.118 L96.427,14.118 L96.427,21.281 L97.567,21.281 L97.567,22.498 L89.163,22.498 L89.163,21.281 L90.405,21.281 L90.405,14.119 L92.662,14.119 L92.776,13.358 L89.707,13.358 L89.707,12.166 L92.902,12.166 C92.927,11.773 92.965,11.393 92.99,11.026 L92.991,11.025 Z M91.661,21.281 L95.171,21.281 L95.171,20.546 L91.661,20.546 L91.661,21.281 Z M91.661,19.507 L95.171,19.507 L95.171,18.797 L91.661,18.797 L91.661,19.507 Z M91.661,17.757 L95.171,17.757 L95.171,17.047 L91.661,17.047 L91.661,17.757 Z M91.661,16.007 L95.171,16.007 L95.171,15.31 L91.661,15.31 L91.661,16.008 L91.661,16.007 Z M87.451,16.058 C87.096,16.54 86.729,17.022 86.323,17.478 L85.893,16.058 C87.033,14.638 87.883,12.965 88.428,11.038 L89.619,11.596 C89.3825417,12.3728068 89.0901094,13.1314597 88.744,13.866 L88.744,22.853 L87.451,22.853 L87.451,16.058 Z" id="Shape" fill="#020202" fill-rule="nonzero"></path>
            <path d="M153.795,181.403 L162.25,181.403 L162.25,182.239 L158.07,182.239 L158.07,186.609 L157.101,186.609 L157.101,185.839 C156.361,185.953 155.306,186.057 153.928,186.162 L153.805,185.326 L154.584,185.288 L154.584,182.238 L153.795,182.238 L153.795,181.403 Z M155.525,185.221 C156.051487,185.1793 156.576956,185.125619 157.101,185.06 L157.101,184.642 L155.524,184.642 L155.524,185.222 L155.525,185.221 Z M155.525,183.939 L157.101,183.939 L157.101,183.417 L155.524,183.417 L155.524,183.939 L155.525,183.939 Z M155.525,182.714 L157.101,182.714 L157.101,182.239 L155.524,182.239 L155.524,182.714 L155.525,182.714 Z M158.716,183.436 L158.403,183.436 L158.403,182.619 L161.747,182.619 L161.747,183.388 C161.601629,184.014027 161.31575,184.598781 160.911,185.098 C161.301,185.364 161.756,185.611 162.288,185.82 L161.785,186.646 C161.249385,186.395359 160.743,186.086498 160.275,185.725 C159.777587,186.107403 159.226709,186.414682 158.64,186.637 L158.137,185.867 C158.707,185.649 159.201,185.392 159.609,185.088 C159.18884,184.612923 158.88333,184.047746 158.716,183.436 Z M160.226,184.509 C160.512,184.176 160.721,183.815 160.854,183.436 L159.562,183.436 C159.695,183.825 159.922,184.186 160.227,184.509 L160.226,184.509 Z M161.167,178.078 L161.167,181.023 L160.198,181.023 L160.198,178.819 L155.885,178.819 L155.885,181.051 L154.925,181.051 L154.925,178.078 L161.167,178.078 Z M156.189,179.256 L159.904,179.256 L159.904,179.911 L156.189,179.911 L156.189,179.256 Z M156.17,180.291 L159.923,180.291 L159.923,180.937 L156.17,180.937 L156.17,180.291 Z M165.138,177.755 L166.04,178.182 C165.815661,178.874382 165.522881,179.542684 165.166,180.177 L165.166,186.608 L164.197,186.608 L164.197,181.621 C163.941,181.944 163.666,182.258 163.381,182.561 L163.058,181.517 C163.988,180.453 164.682,179.199 165.138,177.755 Z M167.066,181.915 L167.066,183.977 C167.571919,183.826488 168.072545,183.658723 168.567,183.474 L168.738,184.338 C167.959,184.594 167.038,184.86 165.993,185.145 L165.746,184.309 C165.983,184.195 166.106,183.977 166.106,183.654 L166.106,178.629 C168.121,178.401 169.716,178.144 170.904,177.859 L171.455,178.648 C171.009,178.762 170.486,178.876 169.897,178.99 C169.897,179.73 169.907,180.386 169.926,180.966 L171.626,180.966 L171.626,181.916 L169.964,181.916 C170.021,183.075 170.106,183.872 170.239,184.309 C170.419,184.984 170.629,185.354 170.866,185.411 C170.99,185.383 171.104,184.889 171.199,183.939 L171.987,184.48 C171.797,185.791 171.437,186.447 170.904,186.447 C170.591,186.447 170.306,186.295 170.049,186 C169.707,185.592 169.46,185.06 169.309,184.395 C169.185,183.901 169.099,183.075 169.052,181.915 L167.066,181.915 Z M169.014,180.965 C168.994244,180.357536 168.984576,179.749785 168.985,179.142 C168.396,179.227 167.76,179.312 167.066,179.398 L167.066,180.966 L169.014,180.966 L169.014,180.965 Z M166.126,185.497 L169.28,185.497 L169.28,186.418 L166.126,186.418 L166.126,185.497 Z M177.962,177.745 L178.95,177.878 L178.893,178.6 L181.116,178.6 L181.116,179.493 L178.789,179.493 L178.703,180.063 L180.537,180.063 L180.537,185.43 L181.392,185.43 L181.392,186.342 L175.094,186.342 L175.094,185.43 L176.024,185.43 L176.024,180.063 L177.716,180.063 L177.801,179.493 L175.502,179.493 L175.502,178.6 L177.896,178.6 C177.915,178.306 177.943,178.02 177.962,177.745 Z M176.965,185.43 L179.596,185.43 L179.596,184.88 L176.965,184.88 L176.965,185.43 Z M176.965,184.1 L179.596,184.1 L179.596,183.569 L176.965,183.569 L176.965,184.1 Z M176.965,182.79 L179.596,182.79 L179.596,182.258 L176.965,182.258 L176.965,182.79 Z M176.965,181.479 L179.596,181.479 L179.596,180.956 L176.965,180.956 L176.965,181.479 Z M173.811,181.517 C173.545,181.877 173.27,182.239 172.966,182.581 L172.643,181.517 C173.498,180.453 174.134,179.199 174.543,177.755 L175.436,178.173 C175.256,178.762 175.036,179.332 174.78,179.873 L174.78,186.608 L173.811,186.608 L173.811,181.517 Z" id="Shape" fill="#2A3052" fill-rule="nonzero"></path>
        </g>
    </g>
</svg>