<svg width="300" height="199" viewBox="0 0 300 199" xmlns="http://www.w3.org/2000/svg"><title>traditional chinese end bet</title><g fill="none" fill-rule="evenodd"><path fill="#F1F2F2" d="M0 0h300v199H0z"/><path d="M39.125 55.375V74.75H75.25V55.375H39.125zm0-1H75.25V34h1v20.375h36.125V34h1v20.375H149.5V34h1v20.375h36.125V34h1v20.375h36.125V34h1v20.375h36.125V34h1v20.375H299.5v1h-37.625V74.75H299.5v1h-37.625v19.375H299.5v1h-37.625V115.5H299.5v1h-37.625v19.375H299.5v1h-37.625v19.375H299.5v1h-37.625v19.375H299.5v1h-37.625V199h-1v-21.375H224.75V199h-1v-21.375h-36.125V199h-1v-21.375H150.5V199h-1v-21.375h-36.125V199h-1v-21.375H76.25V199h-1v-21.375H39.125V199h-1v-21.375H1.5v-1h36.625V157.25H1.5v-1h36.625v-19.375H1.5v-1h36.625V116.5H1.5v-1h36.625V96.125H1.5v-1h36.625V75.75H1.5v-1h36.625V55.375H1.5v-1h36.625V34h1v20.375zm221.75 1H224.75V74.75h36.125V55.375zm-37.125 0h-36.125V74.75h36.125V55.375zm-37.125 0H150.5V74.75h36.125V55.375zm-37.125 0h-36.125V74.75H149.5V55.375zm-37.125 0H76.25V74.75h36.125V55.375zM39.125 75.75v19.375H75.25V75.75H39.125zm221.75 0H224.75v19.375h36.125V75.75zm-37.125 0h-36.125v19.375h36.125V75.75zm-37.125 0H150.5v19.375h36.125V75.75zm-37.125 0h-36.125v19.375H149.5V75.75zm-37.125 0H76.25v19.375h36.125V75.75zm-73.25 20.375V115.5H75.25V96.125H39.125zm221.75 0H224.75V115.5h36.125V96.125zm-37.125 0h-36.125V115.5h36.125V96.125zm-37.125 0H150.5V115.5h36.125V96.125zm-37.125 0h-36.125V115.5H149.5V96.125zm-37.125 0H76.25V115.5h36.125V96.125zM39.125 116.5v19.375H75.25V116.5H39.125zm221.75 0H224.75v19.375h36.125V116.5zm-37.125 0h-36.125v19.375h36.125V116.5zm-37.125 0H150.5v19.375h36.125V116.5zm-37.125 0h-36.125v19.375H149.5V116.5zm-37.125 0H76.25v19.375h36.125V116.5zm-73.25 20.375v19.375H75.25v-19.375H39.125zm221.75 0H224.75v19.375h36.125v-19.375zm-37.125 0h-36.125v19.375h36.125v-19.375zm-37.125 0H150.5v19.375h36.125v-19.375zm-37.125 0h-36.125v19.375H149.5v-19.375zm-37.125 0H76.25v19.375h36.125v-19.375zm-73.25 20.375v19.375H75.25V157.25H39.125zm221.75 0H224.75v19.375h36.125V157.25zm-37.125 0h-36.125v19.375h36.125V157.25zm-37.125 0H150.5v19.375h36.125V157.25zm-37.125 0h-36.125v19.375H149.5V157.25zm-37.125 0H76.25v19.375h36.125V157.25z" fill="#DFDEDE"/><path stroke="#C2C2C2" stroke-width="2" d="M1 1h298v197H1z"/><path fill="#C2C2C2" d="M0 33h300v2H0z"/><g transform="translate(4 33.996)"><path d="M256.613.725V161M.9 41.412h290.625M.9 122.75h290.625" stroke="#2A3052" stroke-width="1.211" stroke-linejoin="round"/><path stroke="#2A3052" stroke-width="3.633" stroke-linecap="round" stroke-linejoin="round" d="M36 82.063l41.625-20.326 39.713 24.188 28.875-28.5 36.862 31.35 36.75-27.038 36.788 9.976"/><path d="M184.613 113H149.55l-5.4-8.213-5.4 8.213h-35.063a4.747 4.747 0 0 0-4.724 4.8v24.788a4.77 4.77 0 0 0 4.725 4.8h80.962a4.747 4.747 0 0 0 4.725-4.8V117.8a4.777 4.777 0 0 0-4.762-4.8z" fill="#E88024" fill-rule="nonzero"/><ellipse cx="8.363" cy="9.6" rx="8.137" ry="8.475" opacity=".6" transform="translate(248.25 63.5)" fill="#FFF" fill-rule="nonzero"/><ellipse stroke="#E88024" stroke-width="2.422" cx="256.613" cy="73.1" rx="8.137" ry="8.475"/><ellipse cx="9" cy="11.063" rx="8.137" ry="8.475" opacity=".6" transform="translate(27 71)" fill="#FFF" fill-rule="nonzero"/><ellipse stroke="#E88024" stroke-width="2.422" cx="36" cy="82.063" rx="8.137" ry="8.475"/></g><path d="M21.17 12.152h7.47v4.102h-7.47v-4.102zm5.906 2.634v-1.165h-4.341v1.165h4.341zm-7.102 2.282h4.676v4.549h-4.676v-4.549zm3.208 3.145v-1.74h-1.724v1.74h1.724zm2.426-3.145h4.644v4.549h-4.644v-4.549zm3.176 3.145v-1.74H27.06v1.74h1.724zM17.659 9.982h13.024v1.596h-11.38V22.16h11.7v1.596H17.658V9.982zm19.233 6.528h6.224v6.496h-6.224V16.51zm4.644 5.123v-1.229h-3.048v1.229h3.048zm-3.048-2.554h3.048v-1.197h-3.048v1.197zm-3.448-5.714v.767h2.714v-.767H35.04zm2.714-1.244v-.735H35.04v.735h2.714zm4.42 1.276v.735h2.81v-.735h-2.81zm2.81-1.245v-.75h-2.81v.75h2.81zm-5.57-2.234V15.6H35.04v8.65h-1.644V9.919h6.018zm5.57 5.682h-4.47V9.902h6.114v12.816c0 1.006-.495 1.517-1.469 1.517-.51 0-1.005-.032-1.484-.064l-.447-1.596c.479.064.926.095 1.34.095.272 0 .416-.175.416-.494V15.6zm10.661-6.177c.447.798.894 1.692 1.325 2.698h4.9v1.26c-1.804 3.448-4.405 6.081-7.789 7.9.639.575 1.405.895 2.299.958.75.032 1.82.048 3.208.048.846 0 2.01-.048 3.51-.111l-.414 1.644h-2.841c-1.42 0-2.442-.016-3.048-.032-1.756-.032-3.065-.511-3.959-1.469-.35-.367-.622-.542-.846-.542-.303 0-.877.814-1.74 2.442l-1.324-.926c1.085-2.17 2.107-3.24 3.096-3.24.208 0 .4.032.59.128a.32.32 0 0 1 .129.063c3.064-1.628 5.426-3.798 7.086-6.495h-9.895V12.12h5.187a16.644 16.644 0 0 0-1.405-2.379l1.931-.319zm15.386 4.549h-3.575v5.235c1.724-1.277 2.905-3.017 3.575-5.235zm-3.575 5.41v4.757H65.78V12.376h4.804c-.462-.894-1.005-1.58-1.628-2.075l1.389-.91c.702.575 1.34 1.58 1.947 2.985h5.906v9.832c0 1.197-.575 1.803-1.708 1.803h-2.458l-.415-1.564 2.346.08c.367 0 .559-.224.559-.67v-2.49l-.942 1.197c-1.42-.926-2.65-2.586-3.687-5.012-.686 2.17-1.867 3.878-3.543 5.123l-.894-1.292zm9.066-.175v-5.235h-3.607c.957 2.426 2.17 4.182 3.607 5.235zm4.532.926l1.485.191c-.08 1.389-.256 2.618-.543 3.687l-1.468-.463c.287-.99.463-2.138.526-3.415zm3.177-.272c.239.99.462 2.075.654 3.256l-1.548.367a42.85 42.85 0 0 0-.463-3.32l1.357-.303zm1.596-4.085c.335.925.638 1.979.91 3.16l-1.373.35-.128-.622c-1.484.447-2.889.75-4.213.91l-.431-1.5c.287-.128.542-.272.75-.463.447-.431.99-1.165 1.628-2.203-.639.096-1.325.208-2.027.32l-.4-1.517c.256-.111.48-.319.687-.606.702-1.277 1.309-2.697 1.82-4.23l1.596.623c-.719 1.644-1.453 3.016-2.203 4.102.479-.064.958-.128 1.42-.208.32-.574.67-1.197 1.022-1.867l1.405.526v-1.165h3.686V9.52h1.644v1.867h3.623v1.596H91.62v1.9h3.272v1.596H86.72v-1.596h3.256v-1.9H86.29v-.16c-1.31 2.267-2.426 3.927-3.32 5.012a38.305 38.305 0 0 0 1.947-.43c-.112-.416-.24-.815-.367-1.214l1.277-.414zm.223 3.67c.383.814.702 1.692.99 2.634l-1.357.622a25.262 25.262 0 0 0-.878-2.84l1.245-.416zm8.395-1.803v6.623h-1.612v-.59H88.86v.59h-1.628v-6.623h7.214zm-5.586 4.469h3.974V19.19H88.86v2.92zm8.092-11.157h6.065v-1.42h1.692v1.42h6.033v1.612h-6.033v1.134h4.98v4.915h-3.72c1.118 1.437 2.922 2.714 5.395 3.831l-1.165 1.452c-2.553-1.532-4.373-3.224-5.49-5.091v5.458h-1.692v-5.49c-1.181 2.075-3.064 3.783-5.634 5.123l-.974-1.548c2.395-.99 4.166-2.234 5.331-3.735h-3.67v-4.915h4.947v-1.134h-6.065v-1.612zm11.06 6.145V15.25h-3.303V17.1h3.304zm-4.995 0V15.25h-3.272V17.1h3.272z" fill="#020202"/><path d="M17.66 63.395h10.979v.722h-5.59v3.933c.25-.037.498-.074.723-.112v.71c-.225.037-.474.074-.722.124v1.208h-.872v-1.096a77.179 77.179 0 0 1-4.37.361l-.111-.772 1.157-.05v-4.306H17.66v-.722zm2.004 4.991a52.629 52.629 0 0 0 2.514-.224v-.846h-2.514v1.07zm0-1.73h2.514v-.934h-2.514v.934zm0-1.606h2.514v-.933h-2.514v.933zm-.424-6.062h7.868v3.585H19.24v-3.585zm7.009 2.938v-.834h-6.15v.834h6.15zm-6.15-1.47h6.15v-.796h-6.15v.797zm3.996 5.23h-.398v-.735h4.245v.697a5.924 5.924 0 0 1-1.258 2.477c.548.41 1.195.772 1.967 1.095l-.46.747c-.822-.386-1.519-.809-2.08-1.27-.572.498-1.269.922-2.078 1.27l-.46-.697c.746-.323 1.394-.697 1.929-1.145a5.58 5.58 0 0 1-1.407-2.44zm1.955 1.904a5.397 5.397 0 0 0 1.083-1.905h-2.266c.224.71.61 1.344 1.183 1.905zm9.697-9.125c.137.336.274.71.398 1.12h4.93v.822H30.083v-.822h5.104a7.438 7.438 0 0 0-.424-.946l.984-.174zm3.336 11.452h-1.046l-.211-.809.995.038c.51 0 .772-.2.772-.598v-3.386h-8.016v4.793h-.86v-5.577h9.735v4.357c0 .784-.46 1.182-1.37 1.182zm-6.971-8.7h6.958v2.414h-6.958v-2.415zm6.087 1.717v-1.02h-5.216v1.02H38.2zm-5.054 3.025h4.892v2.49h-4.892v-2.49zm4.096 1.817v-1.145h-3.287v1.145h3.287zm14.975-8.626v10.792h-.896v-.809h-6.548v.834h-.909V59.15h8.353zm-7.444 9.112h6.548v-2.34h-6.548v2.34zm0-3.162h6.548v-2.19h-6.548v2.19zm0-3.012h6.548V60.02h-6.548v2.067zm12.734 1.232v6.61h-.834v-6.498a15.077 15.077 0 0 1-1.518 3.398l-.386-.983c.871-1.232 1.481-2.64 1.854-4.233h-1.48v-.821h1.53V58.54h.834v2.253h1.357v.821h-1.357v.735a26.42 26.42 0 0 1 1.656 2.129l-.523.784a31.002 31.002 0 0 0-1.133-1.942zm1.917-2.614h1.83v-.934h-2.178V59h6.896v.772h-2.066v.934h1.817v2.875h-6.299v-2.875zm3.735-.934H62v.934h1.158v-.934zm1.78 3.112v-1.481h-1.096v1.481h1.096zm-1.793 0v-1.481h-1.132v1.481h1.132zm-1.83 0v-1.481h-1.107v1.481h1.107zm.635 7.033h-1.033l-.174-.796c.323.025.622.05.921.05.274 0 .423-.137.423-.386v-2.017H59.15v-.772h6.847v.772h-3.087v2.216c0 .622-.324.933-.959.933zm-2.228-5.539h5.776v.772h-5.776v-.772zm.672 2.9l.573.498a9.029 9.029 0 0 1-2.03 2.104l-.51-.66a8.828 8.828 0 0 0 1.967-1.942zm4.021.013a13.923 13.923 0 0 1 1.842 1.942l-.597.585c-.423-.623-1.02-1.295-1.793-2.004l.548-.523zm5.502-8.726l.784.348a14.24 14.24 0 0 1-.933 2.29v8.777h-.872v-7.283a15.816 15.816 0 0 1-1.444 1.83l-.261-.896a13.603 13.603 0 0 0 2.726-5.066zm1.133.46h7.494v.772h-2.452v.81h1.979v2.39h-6.909v-2.39h2.042v-.81H71.05v-.772zm4.27 1.581v-.809h-1.332v.81h1.332zm1.967 1.743v-1.083h-1.295v1.083h1.295zm-1.967 0v-1.083h-1.332v1.083h1.332zm-2.017 0v-1.083h-1.357v1.083h1.357zm-1.755 1.27h6.174v4.693h-6.174v-4.693zm5.365 4.033v-.772H72.37v.772h4.543zM72.37 66.32h4.543v-.735H72.37v.735zm0-1.295h4.543v-.784H72.37v.784zm3.323 3.312c1.033.211 2.03.522 2.988.933l-.274.685a16.215 16.215 0 0 0-3-1.058l.286-.56zm-2.19 0l.41.56c-.697.423-1.705.772-3.025 1.033l-.386-.66c1.32-.249 2.316-.56 3-.933zM17.66 167.725h11.31v.744h-5.758v4.052c.256-.039.513-.077.744-.116v.731c-.231.039-.488.077-.744.128v1.244h-.898v-1.128c-1.218.14-2.718.269-4.5.372l-.116-.795 1.192-.052v-4.436h-1.23v-.744zm2.064 5.142c.949-.064 1.82-.141 2.59-.231v-.872h-2.59v1.103zm0-1.783h2.59v-.961h-2.59v.961zm0-1.654h2.59v-.961h-2.59v.961zm-.436-6.245h8.104v3.693h-8.104v-3.693zm7.22 3.027v-.86h-6.335v.86h6.334zm-6.335-1.513h6.334v-.821h-6.334v.82zm4.116 5.385h-.41v-.756h4.372v.718a6.102 6.102 0 0 1-1.295 2.552c.564.423 1.231.795 2.026 1.128l-.474.77c-.847-.398-1.565-.834-2.142-1.309-.59.513-1.308.95-2.141 1.308l-.475-.718c.77-.333 1.437-.718 1.988-1.18a5.748 5.748 0 0 1-1.45-2.513zm2.013 1.962a5.56 5.56 0 0 0 1.116-1.962h-2.334c.23.731.628 1.385 1.218 1.962zm8.963-3.719v4.604a15.71 15.71 0 0 0 1.155-.513l.153.808c-.666.27-1.461.551-2.359.846l-.244-.795c.27-.09.41-.256.41-.5v-8.45c2.706-.41 4.81-.872 6.31-1.385l.513.744c-.642.218-1.385.423-2.257.628a66.35 66.35 0 0 0 .102 3.129h2.744v.884h-2.667c.051.552.128 1.04.205 1.45.206 1.14.462 2 .757 2.577.282.538.5.808.667.808.166-.013.32-.718.449-2.129l.769.423c-.244 1.847-.603 2.783-1.064 2.783-.398 0-.821-.346-1.27-1.026-.462-.705-.833-1.744-1.115-3.116a15.232 15.232 0 0 1-.27-1.77h-2.988zm2.796-3.82c-.846.179-1.783.345-2.796.512v2.424h2.911a33.819 33.819 0 0 1-.115-2.937zm-.68 7.116c.718.872 1.283 1.654 1.68 2.334l-.705.474a20.467 20.467 0 0 0-1.616-2.346l.641-.462zm-4.244-8.912l.833.385c-.32.974-.73 1.897-1.218 2.77v8.642h-.897v-7.245c-.436.59-.898 1.141-1.411 1.68l-.295-.975a14.024 14.024 0 0 0 2.988-5.257zm20.12.641v11.118h-.924v-.834h-6.745v.86h-.936v-11.144h8.604zm-7.669 9.387h6.745v-2.411h-6.745v2.41zm0-3.257h6.745v-2.257h-6.745v2.257zm0-3.104h6.745v-2.128h-6.745v2.128zm13.118 1.27v6.809h-.86v-6.694a15.53 15.53 0 0 1-1.564 3.5l-.397-1.012c.898-1.27 1.526-2.719 1.91-4.36H56.27v-.846h1.577v-2.321h.859v2.32h1.398v.847h-1.398v.757a27.216 27.216 0 0 1 1.705 2.192l-.538.808a31.936 31.936 0 0 0-1.167-2zm1.975-2.693h1.885v-.962h-2.244v-.795h7.104v.795h-2.129v.962h1.872v2.962h-6.488v-2.962zm3.847-.962h-1.193v.962h1.193v-.962zm1.833 3.206v-1.526h-1.128v1.526h1.128zm-1.846 0v-1.526h-1.167v1.526h1.167zm-1.885 0v-1.526h-1.141v1.526h1.14zm.654 7.245H62.22l-.18-.82c.333.025.641.05.949.05.282 0 .436-.14.436-.397V171.2h-3.026v-.795h7.052v.795h-3.18v2.282c0 .641-.333.962-.987.962zm-2.295-5.706h5.95v.795h-5.95v-.795zm.692 2.988l.59.512a9.3 9.3 0 0 1-2.09 2.168l-.526-.68a9.094 9.094 0 0 0 2.026-2zm4.142.012a14.342 14.342 0 0 1 1.898 2l-.616.603c-.436-.64-1.051-1.333-1.846-2.064l.564-.539zm5.668-8.989l.807.36a14.67 14.67 0 0 1-.961 2.359v9.04h-.898v-7.501a16.292 16.292 0 0 1-1.487 1.885l-.27-.924c1.295-1.513 2.232-3.257 2.809-5.219zm1.166.475h7.72v.795h-2.526v.833h2.039v2.462h-7.117v-2.462h2.103v-.833h-2.219v-.795zm4.399 1.628v-.833h-1.372v.833h1.372zm2.026 1.796v-1.116h-1.334v1.116h1.334zm-2.026 0v-1.116h-1.372v1.116h1.372zm-2.078 0v-1.116h-1.397v1.116h1.397zm-1.808 1.308h6.36v4.834h-6.36v-4.834zm5.527 4.154v-.795h-4.68v.795h4.68zm-4.68-1.372h4.68v-.756h-4.68v.756zm0-1.333h4.68v-.808h-4.68v.808zm3.423 3.41a15.88 15.88 0 0 1 3.078.962l-.282.706c-1-.462-2.026-.834-3.09-1.09l.294-.577zm-2.256 0l.423.578c-.718.436-1.757.795-3.116 1.064l-.398-.68c1.36-.256 2.385-.577 3.09-.961z" fill="#6D6E71"/><g fill="#FFF"><path d="M160.433 169.491h1.345l.398-15.375h-2.151zM160.032 173.087c.084.824.694 1.033 1.19 1.033.497 0 1.044-.373 1.044-1.033 0-.979-.693-1.211-1.156-1.211-.464 0-1.163.387-1.078 1.211z"/><g><path d="M143.296 172.83c.364.311.673.59.928.837-.741 1.09-1.88 2.046-2.495 2.471-.38-.488-.643-.83-.793-1.025.733-.537 1.52-1.298 2.36-2.283zM147.615 164.168v8.309h-5.951v-8.309h5.951zm-1.446 5.783h-2.943v1.353h2.943v-1.353zm0-2.34h-2.943v1.354h2.943v-1.353zm0-2.306h-2.943v1.354h2.943v-1.354zM156.663 155.255v-1.38h-10.48c-.637-1.397-.879-1.943-.727-1.64l-1.864.305.729 1.335h-10.625v1.38h2.121v2.642h19.202v-1.218h-17.536v-1.424h19.18zM136.604 159.09h16.998v3.69h-16.998v-3.69zm1.72 1.058v1.562h13.587v-1.562h-13.586zM135.111 163.93c1.83-.017 3.665-.017 5.509 0v10.088c0 .534.46 2.294-2.95 1.925l-.363-1.399c1.288.167 1.932-.008 1.932-.526v-2.25h-2.863c-.384 2.135-.916 3.527-1.595 4.175-.21-.175-.571-.5-1.085-.971 1.9-2.57 1.397-10.218 1.415-11.042zm1.396 4.648v1.947h2.668v-1.947h-2.668zm2.704-3.31h-2.658v2.099h2.658v-2.099z"/><path d="M153.099 170.811l-.812.522c-.793-1.293-1.381-2.166-1.763-2.617-.019 1.537-.076 2.648-.17 3.333-.308 2.225-1.132 3.165-1.683 3.945l-1.167-1.036-.389.5c-1.024-1.083-1.695-1.753-2.012-2.011.337-.318.632-.599.883-.843a13.705 13.705 0 0 1 1.915 1.82c.255-.462.77-1.158.994-2.476.299-1.761.095-6.227.226-8.091 2.31-.008 4.103-.008 5.377 0v9.978c-.062.683 1.297.563 1.297 0l.275-2.845c.23.097.619.237 1.166.422-.258 1.737-.18 3.845-1.166 4.046-.7.033-2.971.513-2.971-.928v-3.719zm0-.448v-5.07h-2.585c.015 1.047.02 1.984.015 2.814l.806-.474c.884 1.233 1.471 2.126 1.763 2.68l.001.05z"/></g></g><g fill="#2A3052"><path d="M27.691 142.673h-1.03v-11.99h5.046v4.29h-4.016v7.7zm.013-11.196v.989h3.09v-.989h-3.09zm3.065 1.76h-3.064v.964h3.064v-.964zM32.91 134.92v-4.214h5.081c.039 5.833.039 9.171 0 10.014-.057 1.265.24 2.183-2.699 1.865-.054-.239-.13-.52-.23-.844.713-.171 1.971.59 1.971-.862v-5.96H32.91zm.974-1.688v.908h3.125v-.908h-3.125zm-.009-1.74v.97h3.106v-.97h-3.106z"/><path d="M35.595 135.985v.835h-1.352v1.58h1.777v.866h-1.777v3.148h-.876v-3.148c-.943.003-1.661.003-2.155 0-.12.561-.12 2.419-2.12 3.34-.235-.35-.4-.609-.496-.778.678-.358 1.53-.804 1.747-2.532l-1.755-.028.008-.869h1.81v-1.58H28.95v-.834h6.644zm-2.226.84h-2.066v1.577h2.066v-1.576zM41.418 130.247l.99.112-.408 2.547c.131.01.81.01 2.035 0 .034 1.87-.352 4.66-1.138 6.265.845.908 1.376 1.525 1.595 1.85l-.66.736-1.355-1.618c-.79 1.296-1.477 2.199-2.062 2.71-.097-.141-.298-.396-.602-.766.765-.817 1.52-1.653 1.97-2.634l-1.746-1.74.878-3.876h-1.102v-.927h1.235l.37-2.659zm1.719 3.592h-1.25a55.405 55.405 0 0 1-.804 3.55c.465.452.837.818 1.118 1.1.479-1.021.936-3.924.936-4.65zM47.479 130.265l.911.313c-1.047 2.172-1.86 3.582-2.439 4.229 2.64-.23 4.094-.39 4.36-.48-.646-1.227-1.022-1.914-1.126-2.061l.851-.413c.919 1.58 1.619 2.888 2.1 3.922l-.925.466-.482-1.063c-3.337.385-5.357.584-6.059.597a24.777 24.777 0 0 0-.154-.906c.79-.435 1.778-1.97 2.963-4.604zM50.438 142.848v-.84h-4.191v.84h-.963v-5.825h6.084v5.825h-.93zm-.007-4.928h-4.16v3.138h4.16v-3.138z"/></g><g fill="#2A3052"><path d="M266.88 120.037l.925.371c-1.008 2.207-1.7 3.496-2.078 3.866l1.768-.247.977-1.695.916.338c-1.456 2.506-2.69 4.461-3.312 4.933l2.396-.5-.374-1.257.752-.264c.555 1.49.833 2.392.833 2.704-.469.125-.746.203-.833.232l-.168-.665c-2.056.524-3.299.785-3.728.785a12.965 12.965 0 0 1-.262-.904c.597-.144 1.936-2.152 2.272-2.785l-2.14.32c-.088-.323-.17-.623-.247-.899.435-.136 1.203-1.58 2.303-4.333zM268.335 129.017a7.04 7.04 0 0 1 .77-.254c.563 1.401.845 2.183.845 2.345-.047.05-.312.174-.795.371a43.943 43.943 0 0 0-.82-2.462zM267.478 129.144c.065.256.55 2.72.55 2.82l-.927.223c-.194-1.53-.337-2.477-.428-2.84.357-.11.424-.11.805-.203zM265.104 129.339l.892.108c-.117 1.561-.282 2.613-.495 3.155a35.64 35.64 0 0 0-.89-.262c.266-.927.43-1.928.493-3.001zM269.536 121.872v.96h3.387v2.108h-2.972v.957h6.982v-.957h-3.022v-2.107h3.306v-.96h-3.306v-1.753h-.988v1.752zM275.513 132.855v-.64h-4.136v.64h-.965v-5.565h6.07v5.565h-.969zm.027-4.621h-4.152v3.025h4.152v-3.025zM284.335 121.522v-1.419h1.023v1.42h5.44v.943h-5.44v1.302h4.352v3.987h-3.478c.699 1.212 2.379 2.49 5.04 3.837-.054.033-.278.315-.673.847-1.49-.714-4.367-2.974-5.24-4.684l.008 5.084h-1.032c-.008-3.495-.026-5.187-.056-5.075-.91 1.614-2.911 3.67-5.279 4.675l-.57-.877c2.51-1.171 4.189-2.44 5.035-3.807l-3.5.009v-3.996h4.37v-1.302h-5.436v-.944h5.436zm-.038 3.252h-3.373v2.134h3.373v-2.134zm1.067 2.112h3.405v-2.083h-3.405v2.083z"/></g></g></svg>