<svg width="299" height="197" xmlns="http://www.w3.org/2000/svg"><g fill="none" fill-rule="evenodd"><path fill="#F1F1F2" d="M0 0h299v197H0z"/><path d="M1.987 1.98v193.04h295.026V1.98H1.987zM299 0v197H0V0h299z" fill="#C2C2C2" fill-rule="nonzero"/><path d="M4.58 54.993v-1.211h290.408v1.21H4.58zm0 80.353v-1.211h290.408v1.211H4.58zm0 20.079v-1.211h290.408v1.211H4.58zm0 20.079v-1.211h290.408v1.21H4.58zM39.06 34.308h1.21V192.59h-1.21V34.308zm36.75 0h1.21V192.59h-1.21V34.308zm36.75 0h1.211V192.59h-1.21V34.308zm36.713 0h1.211V192.59h-1.211V34.308zm36.75 0h1.212V192.59h-1.212V34.308zm36.75 0h1.212V192.59h-1.211V34.308zm36.751 0h1.212V192.59h-1.212V34.308zM4.58 115.268v-1.212h290.408v1.211H4.58zm0-40.196V73.86h290.408v1.21H4.58z" fill="#DEDEDD" fill-rule="nonzero"/><path d="M4.58 95.188v-1.21h3.595v1.21H4.58zm7.19 0v-1.21h3.596v1.21h-3.595zm7.192 0v-1.21h3.595v1.21h-3.595zm7.191 0v-1.21h3.596v1.21h-3.596zm7.191 0v-1.21h3.596v1.21h-3.596zm7.191 0v-1.21h3.596v1.21h-3.596zm7.191 0v-1.21h3.596v1.21h-3.596zm7.192 0v-1.21h3.595v1.21h-3.595zm7.19 0v-1.21h3.596v1.21H62.11zm7.192 0v-1.21h3.595v1.21H69.3zm7.191 0v-1.21h3.596v1.21H76.49zm7.191 0v-1.21h3.596v1.21h-3.596zm7.191 0v-1.21h3.596v1.21h-3.596zm7.191 0v-1.21h3.596v1.21h-3.596zm7.192 0v-1.21h3.595v1.21h-3.595zm7.19 0v-1.21h3.596v1.21h-3.595zm7.192 0v-1.21h3.595v1.21h-3.595zm7.191 0v-1.21h3.596v1.21h-3.596zm7.191 0v-1.21h3.596v1.21h-3.596zm7.191 0v-1.21h3.596v1.21h-3.596zm7.191 0v-1.21h3.596v1.21h-3.596zm7.192 0v-1.21h3.595v1.21h-3.595zm7.19 0v-1.21h3.596v1.21h-3.595zm7.192 0v-1.21h3.595v1.21h-3.595zm7.191 0v-1.21h3.596v1.21h-3.596zm7.191 0v-1.21h3.596v1.21h-3.596zm7.191 0v-1.21h3.596v1.21h-3.596zm7.191 0v-1.21h3.596v1.21h-3.596zm7.192 0v-1.21h3.595v1.21h-3.595zm7.19 0v-1.21h3.596v1.21h-3.595zm7.192 0v-1.21h3.595v1.21h-3.595zm7.19 0v-1.21h3.597v1.21h-3.596zm7.192 0v-1.21h3.596v1.21h-3.596zm7.191 0v-1.21h3.596v1.21h-3.596zm7.191 0v-1.21h3.596v1.21h-3.596zm7.191 0v-1.21h3.596v1.21h-3.596zm7.192 0v-1.21h3.595v1.21h-3.595zm7.19 0v-1.21h3.596v1.21h-3.595zm7.192 0v-1.21h3.595v1.21h-3.595zm7.191 0v-1.21h3.596v1.21h-3.596zm7.191 0v-1.21h2.763v1.21h-2.763z" fill="#293052" fill-rule="nonzero"/><path fill="#C2C2C2" fill-rule="nonzero" d="M2.498 34.307v-2.422h294.61v2.422z"/><path d="M40.913 115.955a1.798 1.798 0 0 1-2.496-2.587l36.75-35.46a1.798 1.798 0 0 1 2.695.227l35.663 48.38 35.183-26.994a1.798 1.798 0 0 1 2.31.102l35.878 32.923 72.372-39.54a1.798 1.798 0 0 1 1.724 3.155l-73.501 40.157a1.798 1.798 0 0 1-2.078-.253L149.7 103.293l-35.44 27.191a1.798 1.798 0 0 1-2.541-.36L76.186 81.922l-35.273 34.034z" fill="#293052" fill-rule="nonzero"/><path d="M188.18 145.159h-35.047l-5.525-8.07-5.3 8.07h-35.046a4.733 4.733 0 0 0-4.731 4.735v24.512a4.733 4.733 0 0 0 4.73 4.735h80.92a4.729 4.729 0 0 0 3.419-1.346 4.738 4.738 0 0 0 1.425-3.39v-24.473a4.738 4.738 0 0 0-1.412-3.414 4.729 4.729 0 0 0-3.432-1.36z" fill="#E88024"/><ellipse cx="8.333" cy="8.585" rx="8.137" ry="8.373" opacity=".6" transform="translate(251.797 87.135)" fill="#FFF"/><path d="M260.13 105.303c-5.17 0-9.348-4.298-9.348-9.584 0-5.285 4.177-9.583 9.348-9.583 5.17 0 9.348 4.298 9.348 9.583 0 5.286-4.177 9.584-9.348 9.584zm0-2.422c3.817 0 6.926-3.199 6.926-7.162 0-3.962-3.109-7.16-6.926-7.16s-6.926 3.198-6.926 7.16c0 3.963 3.109 7.162 6.926 7.162z" fill="#E88024" fill-rule="nonzero"/><ellipse cx="8.386" cy="8.585" rx="8.137" ry="8.373" opacity=".6" transform="translate(31.278 106.077)" fill="#FFF"/><path d="M39.665 124.245c-5.171 0-9.349-4.298-9.349-9.583 0-5.286 4.178-9.584 9.349-9.584 5.17 0 9.348 4.298 9.348 9.584 0 5.285-4.177 9.583-9.348 9.583zm0-2.422c3.817 0 6.926-3.199 6.926-7.161 0-3.963-3.109-7.162-6.926-7.162-3.818 0-6.926 3.199-6.926 7.162 0 3.962 3.108 7.161 6.926 7.161z" fill="#E88024" fill-rule="nonzero"/><path fill="#E88024" d="M247.564 65.98h25.094v16.518h-25.094z"/><path fill="#E88024" d="M257.698 82.48l2.382-2.385 2.382 2.384-2.382 2.384z"/><path d="M262.439 76.057h1.4v1.099h-1.4v2.349h-1.287v-2.349h-4.693v-.796l4.693-7.122h1.476v6.82h-.19zm-4.504 0h3.217v-4.811.34l-3.217 4.471z" fill="#FFF" fill-rule="nonzero"/><path fill="#D5D3DA" d="M137.35 79.202h25.094v16.517h-25.093z"/><path fill="#D5D3DA" d="M147.51 95.696l2.383-2.384 2.381 2.384-2.381 2.384z"/><path d="M148.554 86.93h1.21c.476.045.946-.122 1.288-.454.273-.372.407-.828.378-1.288a1.857 1.857 0 0 0-.454-1.326 1.702 1.702 0 0 0-1.287-.455 1.778 1.778 0 0 0-1.287.492 1.706 1.706 0 0 0-.492 1.25h-1.286c-.019-.8.347-1.56.984-2.045a3.782 3.782 0 0 1 4.58 0c.579.563.883 1.352.832 2.16a2.462 2.462 0 0 1-1.552 2.234 2.271 2.271 0 0 1 1.325.948c.253.437.384.934.378 1.44.044.831-.29 1.638-.908 2.197a3.442 3.442 0 0 1-2.347.795 3.518 3.518 0 0 1-2.308-.758 2.425 2.425 0 0 1-1.06-2.197h1.362c-.024.48.154.947.492 1.288.371.339.861.516 1.363.493a1.93 1.93 0 0 0 1.4-.493c.31-.356.472-.816.454-1.288a1.592 1.592 0 0 0-1.854-1.856h-1.211V86.93z" fill="#293052"/><path fill="#D5D3DA" d="M27.1 84.43h25.093v16.517H27.099z"/><path fill="#D5D3DA" d="M37.28 100.966l2.381-2.384 2.382 2.384-2.382 2.384z"/><path fill="#293052" d="M40.384 97.955H39.02v-8.903h-2.12v-.985l3.483-.38z"/><path d="M15.656 10.836h2.145v-.669h1.31v.67h2.16v1.519h.53v1.17h-.53v1.533h-2.16v.474h2.356v.349c.739-1.45 1.24-3.401 1.505-5.854l1.436.25c-.079.621-.176 1.24-.293 1.855h3.47v1.38h-.808c-.084 2.397-.544 4.417-1.366 6.09.613.92 1.422 1.7 2.411 2.355l-.878 1.171a9.437 9.437 0 0 1-2.313-2.202 9.626 9.626 0 0 1-2.147 2.174l-.683-1.1-.724.96c-.722-.4-1.467-.757-2.23-1.072-.85.46-1.868.864-3.053 1.198L15 22.042a17.428 17.428 0 0 0 2.355-.753 18.555 18.555 0 0 0-1.56-.515c.264-.39.515-.78.766-1.157h-1.533V18.53h2.202c.098-.181.195-.349.293-.516H15.46v-2.48h2.341v-.475h-2.145v-1.533h-.516v-1.17h.516v-1.52zm6.062 11.025l-.028-.042a7.305 7.305 0 0 0 2.132-2.202 10.932 10.932 0 0 1-1.059-3.261c-.125.236-.25.46-.39.682l-.906-1.115v2.091h-2.579c-.097.181-.195.348-.278.516h2.899v.906c-.349.613-.837 1.17-1.478 1.672.558.223 1.13.474 1.687.753zm1.421-6.3l.753-.237c.1.944.334 1.869.697 2.746.502-1.296.794-2.815.85-4.558h-1.63a16.078 16.078 0 0 1-.67 2.05v-.001zm-4.432 5.045a5.669 5.669 0 0 0 1.227-.99h-1.938c-.154.238-.293.447-.405.642a12.9 12.9 0 0 1 1.115.348h.001zm1.338-6.536v-.67h-.934v.67h.934zm-.934-1.589h.934v-.669h-.934v.669zm-1.31 1.589v-.67h-.92v.67h.92zm-.92-1.589h.92v-.669h-.92v.669zm3.36 4.6v-.614h-1.13v.613h1.13v.001zm-2.44 0v-.614h-1.115v.613h1.115v.001zm23.512-5.617v3.33H39.85v-1.95h-9.115v1.95h-1.463v-3.33h5.254c-.195-.419-.39-.823-.613-1.185L35.599 10c.195.432.39.92.558 1.464h5.156zm-9.84 2.522h7.624v1.338c-.932.653-1.9 1.253-2.899 1.798v.6h5.324v1.393h-5.324v2.48c0 .935-.487 1.409-1.449 1.409h-1.714l-.349-1.324c.474.027 1.004.041 1.575.041.307 0 .474-.209.474-.613v-1.993h-5.658v-1.393h5.658v-1.184c.92-.474 1.659-.878 2.202-1.213h-5.463v-1.338l-.001-.001zm20.377-.46h-3.038a19.54 19.54 0 0 1-.488 1.185h3.22l.306-1.185zm-4.195 2.467c-.279.46-.572.906-.878 1.324h5.993l.278-1.324H47.655zm6.536 1.324h1.24c-.027 2.746-.208 4.39-.557 4.92-.362.544-.99.822-1.867.822-.39 0-.85-.028-1.38-.07l-.376-1.365c.571.042 1.045.07 1.421.097.558-.014.906-.195 1.045-.53.14-.32.223-1.184.251-2.578h-8.32c-.64.635-1.346 1.2-2.105 1.687l-.724-1.296c2.007-1.338 3.498-3.164 4.46-5.478H43.78v-1.282h2.049a18.71 18.71 0 0 0-.948-1.296l1.143-.725c.502.586.878 1.115 1.157 1.561l-.655.46h1.212c.2-.684.367-1.377.502-2.077l1.436.182a29.13 29.13 0 0 1-.46 1.895h4.25l-.501 2.467h1.672l-.446 2.606zm-8.835 2.035l1.324.293c-.362 1.157-.864 2.16-1.519 3.01l-1.268-.808c.683-.78 1.17-1.617 1.463-2.495zm2.997.223c.292.6.487 1.422.585 2.48l-1.38.168c-.07-1.087-.209-1.91-.432-2.495l1.227-.153zm1.937-.279c.39.753.697 1.45.92 2.09l-1.31.489a19.408 19.408 0 0 0-.725-2.258l1.115-.32v-.001zm2.118-.39c.335.571.641 1.24.92 2.007l-1.324.334a11.92 11.92 0 0 0-.752-1.965l1.156-.376zm8.948-8.32h7.233v5.7h-2.996v.766h3.596v4.432c0 1.004-.488 1.506-1.436 1.506h-1.24l-.349-1.31 1.157.055c.349 0 .53-.195.53-.557v-2.9h-2.44v1.38c.28-.041.544-.083.781-.125-.083-.25-.153-.488-.223-.71l.976-.321c.265.739.502 1.589.71 2.536l-1.045.28a9.85 9.85 0 0 0-.139-.684c-.92.251-2.174.446-3.777.586l-.404-1.338c.71-.028 1.352-.056 1.923-.098v-1.505h-2.147v4.766H60.7v-5.993h3.526v-.766h-2.87v-5.7zm5.84 4.515v-1.059h-1.603v1.06h1.603v-.001zm-2.969 0v-1.059h-1.505v1.06h1.505v-.001zm-1.505-2.258h1.505v-1.031h-1.505v1.031zm2.871-1.031v1.031h1.603v-1.031h-1.603zm-7.303 3.944c-.39.488-.795.962-1.213 1.408l-.487-1.561c1.365-1.575 2.383-3.429 3.038-5.561l1.366.641a16.33 16.33 0 0 1-1.283 2.955v9.435H58.29v-7.317zm13.115-4.92h2.146v-.669h1.31v.67h2.16v1.519h.53v1.17h-.53v1.533h-2.16v.474h2.356v.349c.738-1.45 1.24-3.401 1.505-5.854l1.435.25c-.078.621-.176 1.24-.292 1.855h3.47v1.38h-.808c-.084 2.397-.544 4.417-1.366 6.09.613.92 1.421 1.7 2.41 2.355l-.877 1.171a9.437 9.437 0 0 1-2.314-2.202 9.626 9.626 0 0 1-2.146 2.174l-.683-1.1-.725.96c-.722-.4-1.467-.757-2.23-1.072-.85.46-1.867.864-3.052 1.198l-.794-1.045a17.428 17.428 0 0 0 2.355-.753 18.555 18.555 0 0 0-1.56-.515c.264-.39.515-.78.766-1.157h-1.535V18.53h2.202c.097-.181.195-.349.292-.516h-2.062v-2.48h2.341v-.475h-2.146v-1.533h-.516v-1.17h.516v-1.52h.002zm6.061 11.026l-.027-.042a7.305 7.305 0 0 0 2.132-2.202 10.932 10.932 0 0 1-1.06-3.261c-.125.236-.25.46-.39.682l-.905-1.115v2.091h-2.58c-.097.181-.195.348-.279.516h2.9v.906c-.35.613-.837 1.17-1.478 1.672a22.06 22.06 0 0 1 1.686.753h.001zm1.422-6.3l.753-.237c.1.944.334 1.869.696 2.746.502-1.296.795-2.815.85-4.558h-1.63c-.177.698-.4 1.382-.669 2.05v-.001zm-4.432 5.044a5.669 5.669 0 0 0 1.226-.99h-1.936c-.153.238-.292.447-.404.642.362.098.739.209 1.115.348h-.001zm1.338-6.536v-.67h-.934v.67h.934zm-.934-1.589h.934v-.669h-.934v.669zm-1.31 1.589v-.67h-.92v.67h.92zm-.92-1.589h.92v-.669h-.92v.669zm3.36 4.6v-.614h-1.13v.613h1.13v.001zm-2.44 0v-.614h-1.114v.613h1.115l-.001.001z" fill="#020202" fill-rule="nonzero"/><g fill="#2A3052" fill-rule="nonzero"><path d="M28.608 139.282h-1.042V127.14h5.11v4.346h-4.067v7.796h-.001zm.013-11.337v1h3.129v-1h-3.13.001zm3.104 1.782h-3.103v.976h3.103v-.976zm2.167 1.703v-4.266h5.147c.039 5.907.039 9.287 0 10.14-.059 1.281.242 2.211-2.734 1.89a11.524 11.524 0 0 0-.233-.855c.722-.174 1.996.596 1.996-.873v-6.036h-4.176zm.987-1.708v.919h3.164v-.92h-3.164v.001zm-.009-1.762v.982h3.145v-.982H34.87z"/><path d="M36.612 132.509v.846h-1.37v1.6h1.8v.877h-1.8v3.188h-.886v-3.188c-.954.003-1.682.003-2.182 0-.122.568-.122 2.45-2.147 3.383-.176-.257-.343-.52-.501-.788.685-.363 1.548-.815 1.768-2.565l-1.777-.028.009-.88h1.83v-1.6h-1.472v-.845h6.728zm-2.254.852h-2.092v1.596h2.092v-1.596zm8.151-6.662l1.002.113-.413 2.58c.133.01.82.01 2.06 0 .035 1.893-.356 4.72-1.152 6.344.856.92 1.394 1.544 1.615 1.874l-.668.745-1.372-1.639c-.8 1.312-1.496 2.227-2.088 2.744a14.338 14.338 0 0 0-.61-.775c.775-.828 1.54-1.674 1.995-2.668l-1.767-1.761.889-3.925h-1.116v-.94h1.25l.375-2.692zm1.74 3.638h-1.265a56.106 56.106 0 0 1-.814 3.594c.47.458.847.829 1.132 1.113.484-1.033.947-3.972.947-4.707zm4.397-3.62l.923.317c-1.06 2.2-1.884 3.627-2.47 4.283 2.674-.233 4.145-.395 4.415-.487-.654-1.242-1.034-1.938-1.14-2.087l.862-.418c.93 1.6 1.639 2.925 2.126 3.972l-.937.472-.487-1.076c-3.38.39-5.425.59-6.136.604a25.09 25.09 0 0 0-.156-.918c.8-.44 1.8-1.994 3-4.662zm2.997 12.743v-.851h-4.244v.85h-.975v-5.898h6.16v5.899h-.941zm-.007-4.99h-4.214v3.176h4.214v-3.177.001z"/></g><g fill="#2A3052" fill-rule="nonzero"><path d="M251.543 107.465l.936.376c-1.02 2.235-1.722 3.54-2.104 3.914l1.79-.25.99-1.716c-.03-.01.28.104.927.342-1.474 2.538-2.723 4.518-3.354 4.995l2.426-.506-.378-1.273.761-.267c.563 1.51.844 2.422.844 2.738-.475.127-.756.205-.844.235l-.17-.673c-2.082.53-3.34.795-3.775.795-.099-.3-.187-.605-.265-.916.604-.146 1.96-2.18 2.3-2.82l-2.168.325a68.898 68.898 0 0 0-.25-.91c.441-.139 1.219-1.602 2.334-4.39v.001zm1.473 9.094c.35-.132.61-.218.78-.258.57 1.42.855 2.21.855 2.375-.047.052-.315.177-.805.376a44.5 44.5 0 0 0-.83-2.493zm-.868.129c.066.258.558 2.755.558 2.855l-.94.226c-.197-1.55-.34-2.509-.433-2.877.36-.11.43-.11.815-.204zm-2.404.196l.903.11c-.119 1.581-.286 2.646-.501 3.195-.426-.13-.727-.218-.901-.265.27-.94.435-1.952.499-3.04zm4.488-7.561v.973h3.43v2.134h-3.01v.969h7.07v-.97h-3.06v-2.133h3.349v-.973h-3.348v-1.774h-1.001v1.774h-3.43zm6.053 11.122v-.648h-4.189v.648h-.976v-5.635h6.147v5.635h-.982zm.027-4.68h-4.205v3.064h4.205v-3.064zm8.906-6.796v-1.437h1.036v1.437h5.51v.956h-5.51v1.318h4.407v4.037h-3.522c.708 1.228 2.409 2.523 5.103 3.887-.053.033-.28.318-.68.857-1.51-.723-4.423-3.011-5.308-4.744l.01 5.149h-1.046c-.007-3.54-.026-5.252-.057-5.14-.92 1.635-2.947 3.717-5.345 4.735l-.577-.888c2.542-1.186 4.241-2.472 5.098-3.856l-3.544.01v-4.047h4.425v-1.318h-5.505v-.956h5.505zm-.038 3.293h-3.416v2.16h3.416v-2.16zm1.08 2.138h3.449v-2.108h-3.449v2.11-.002z"/></g><g fill="#FFF" fill-rule="nonzero"><path d="M163.178 167.614h1.362l.402-15.57h-2.178l.414 15.57zm-.406 3.642c.085.833.702 1.046 1.205 1.046.504 0 1.057-.378 1.057-1.046 0-.992-.701-1.227-1.171-1.227-.47 0-1.177.392-1.091 1.227zM145.824 170.996c.368.314.681.597.94.847-.751 1.104-1.904 2.071-2.527 2.502-.384-.494-.652-.84-.803-1.038.742-.544 1.538-1.315 2.39-2.311zm4.374-8.772v8.413h-6.027v-8.413h6.027zm-1.465 5.855h-2.98v1.37h2.98v-1.37zm0-2.368h-2.98v1.37h2.98v-1.37zm0-2.336h-2.98v1.37h2.98v-1.37zm10.627-10.177V151.8h-10.613c-.644-1.414-.89-1.968-.736-1.66l-1.887.308.738 1.352h-10.76v1.398h2.149v2.675h19.445v-1.233h-17.76v-1.442h19.424zm-20.313 3.882h17.213v3.737h-17.213v-3.737zm1.743 1.073v1.582h13.758v-1.582H140.79zm-3.254 3.829a298.74 298.74 0 0 1 5.578 0v10.216c0 .54.466 2.323-2.988 1.95l-.367-1.417c1.305.169 1.957-.008 1.957-.533v-2.28h-2.9c-.389 2.164-.927 3.574-1.615 4.23-.373-.32-.739-.649-1.099-.984 1.925-2.603 1.415-10.347 1.434-11.182zm1.413 4.708v1.971h2.702v-1.971h-2.702zm2.738-3.352h-2.692v2.125h2.692v-2.125z"/><path d="M155.751 168.951l-.822.529c-.804-1.31-1.399-2.194-1.786-2.651-.019 1.556-.076 2.681-.172 3.375-.312 2.253-1.146 3.206-1.704 3.995l-1.182-1.049-.394.506c-1.037-1.096-1.716-1.775-2.037-2.036.341-.322.64-.607.894-.853.704.55 1.354 1.167 1.94 1.842.258-.467.78-1.172 1.006-2.507.302-1.783.096-6.306.228-8.194 2.34-.007 4.155-.007 5.445 0v10.105c-.062.692 1.314.57 1.314 0l.278-2.881c.234.098.627.24 1.181.427-.26 1.76-.182 3.894-1.18 4.097-.71.034-3.01.52-3.01-.94v-3.765h.001zm0-.454v-5.133h-2.618c.015 1.059.02 2.008.015 2.848l.817-.48c.895 1.25 1.49 2.154 1.785 2.714v.05l.001.001z"/></g></g></svg>