<?xml version="1.0" encoding="UTF-8"?>
<svg width="299px" height="197px" viewBox="0 0 299 197" version="1.1" xmlns="http://www.w3.org/2000/svg" xmlns:xlink="http://www.w3.org/1999/xlink">
    <!-- Generator: Sketch 52.6 (67491) - http://www.bohemiancoding.com/sketch -->
    <title>higher</title>
    <desc>Created with Sketch.</desc>
    <g id="Page-1" stroke="none" stroke-width="1" fill="none" fill-rule="evenodd">
        <g id="higher">
            <g id="higher-">
                <polygon id="Path" fill="#F1F2F2" points="0 0 299 0 299 197 0 197"></polygon>
                <path d="M1.98671096,1.9798995 L1.98671096,195.020101 L297.013289,195.020101 L297.013289,1.9798995 L1.98671096,1.9798995 Z M299,0 L299,197 L0,197 L0,0 L299,0 Z" id="Path" fill="#C2C2C2" fill-rule="nonzero"></path>
                <path d="M1.74920034,54.055088 L1.74920034,52.8401224 L295.237332,52.8401224 L295.237332,54.055088 L1.74920034,54.055088 Z M1.74920034,76.5851316 L1.74920034,75.370166 L295.237332,75.370166 L295.237332,76.5851316 L1.74920034,76.5851316 Z M1.74920034,95.3601679 L1.74920034,94.1452023 L295.237332,94.1452023 L295.237332,95.3601679 L1.74920034,95.3601679 Z M1.74920034,136.665248 L1.74920034,135.450282 L295.237332,135.450282 L295.237332,136.665248 L1.74920034,136.665248 Z M1.74920034,155.440284 L1.74920034,154.225318 L295.237332,154.225318 L295.237332,155.440284 L1.74920034,155.440284 Z M1.74920034,177.970328 L1.74920034,176.755362 L295.237332,176.755362 L295.237332,177.970328 L1.74920034,177.970328 Z M36.8870669,32.7950653 L38.1020325,32.7950653 L38.1020325,194.260377 L36.8870669,194.260377 L36.8870669,32.7950653 Z M74.5137504,32.7950653 L75.728716,32.7950653 L75.728716,194.260377 L74.5137504,194.260377 L74.5137504,32.7950653 Z M112.140434,32.7950653 L113.3554,32.7950653 L113.3554,194.260377 L112.140434,194.260377 L112.140434,32.7950653 Z M146.004449,32.7950653 L147.219415,32.7950653 L147.219415,194.260377 L146.004449,194.260377 L146.004449,32.7950653 Z M183.631132,32.7950653 L184.846098,32.7950653 L184.846098,194.260377 L183.631132,194.260377 L183.631132,32.7950653 Z M221.257816,32.7950653 L222.472782,32.7950653 L222.472782,194.260377 L221.257816,194.260377 L221.257816,32.7950653 Z M258.884499,32.7950653 L260.099465,32.7950653 L260.099465,194.260377 L258.884499,194.260377 L258.884499,32.7950653 Z" id="Shape" fill="#DFDEDE" fill-rule="nonzero"></path>
                <polygon id="Path" fill="#2A3052" fill-rule="nonzero" points="2.90644108 116.819829 2.90644108 115.604864 294.513238 115.604864 294.513238 116.819829"></polygon>
                <polygon id="Path" fill="#C2C2C2" fill-rule="nonzero" points="2.7993468 34.7797904 2.7993468 32.3494829 296.362731 32.3494829 296.362731 34.7797904"></polygon>
                <path d="M69.8331577,101.922706 L39.7297268,157.818414 C39.2524205,158.704671 38.1470342,159.036191 37.2607773,158.558885 C36.3745205,158.081579 36.0430005,156.976192 36.5203068,156.089936 L67.8257075,97.9624233 C68.4164344,96.8655684 69.9089383,96.6714201 70.7606203,97.5806434 L101.146835,130.019807 L145.211513,74.3765347 C145.964194,73.4260774 147.417767,73.4617155 148.122965,74.4479164 L191.533154,135.155915 L223.466424,52.2478218 C223.884498,51.1623808 225.198559,50.7409823 226.169914,51.3808559 L260.485449,73.9859996 C261.326064,74.5397495 261.558614,75.6701055 261.004864,76.5107205 C260.451114,77.3513355 259.320758,77.5838857 258.480143,77.0301358 L226.054628,55.6700308 L193.718989,139.622792 C193.197429,140.976913 191.379598,141.208208 190.535559,140.027841 L146.566093,78.5377088 L102.691451,133.941011 C101.999949,134.814214 100.693856,134.86841 99.9323892,134.055497 L69.8331577,101.922706 Z" id="Path" fill="#2A3052" fill-rule="nonzero"></path>
                <path d="M187.239564,147.191156 L152.058614,147.191156 L146.640372,138.96769 L141.22213,147.191156 L106.041181,147.191156 C103.407313,147.191156 101.300218,149.33151 101.300218,151.997566 L101.300218,176.818164 C101.300218,179.484219 103.444939,181.624573 106.041181,181.624573 L187.27719,181.624573 C189.911058,181.624573 192.018152,179.484219 192.018152,176.818164 L192.018152,151.997566 C192.018152,149.33151 189.873431,147.191156 187.239564,147.191156 Z" id="Path" fill="#E88024"></path>
                <g id="Group" opacity="0.6" transform="translate(251.092045, 66.829995)" fill="#FFFFFF">
                    <ellipse id="Oval" cx="8.39075042" cy="8.6780726" rx="8.16499032" ry="8.4863164"></ellipse>
                </g>
                <path d="M259.482796,85.2095378 C254.291567,85.2095378 250.102652,80.8557715 250.102652,75.5080677 C250.102652,70.1603639 254.291567,65.8065976 259.482796,65.8065976 C264.674025,65.8065976 268.86294,70.1603639 268.86294,75.5080677 C268.86294,80.8557715 264.674025,85.2095378 259.482796,85.2095378 Z M259.482796,82.7792304 C263.310366,82.7792304 266.432633,79.5340901 266.432633,75.5080677 C266.432633,71.4820453 263.310366,68.236905 259.482796,68.236905 C255.655226,68.236905 252.532959,71.4820453 252.532959,75.5080677 C252.532959,79.5340901 255.655226,82.7792304 259.482796,82.7792304 Z" id="Oval" fill="#E88024" fill-rule="nonzero"></path>
                <g id="Group" opacity="0.6" transform="translate(29.094613, 148.440155)" fill="#FFFFFF">
                    <ellipse id="Oval" cx="9.03040404" cy="8.5140203" rx="8.16499032" ry="8.4863164"></ellipse>
                </g>
                <path d="M38.1250168,166.655645 C32.9337879,166.655645 28.7448727,162.301879 28.7448727,156.954175 C28.7448727,151.606471 32.9337879,147.252705 38.1250168,147.252705 C43.3162457,147.252705 47.5051609,151.606471 47.5051609,156.954175 C47.5051609,162.301879 43.3162457,166.655645 38.1250168,166.655645 Z M38.1250168,164.225338 C41.9525872,164.225338 45.0748534,160.980197 45.0748534,156.954175 C45.0748534,152.928153 41.9525872,149.683012 38.1250168,149.683012 C34.2974464,149.683012 31.1751802,152.928153 31.1751802,156.954175 C31.1751802,160.980197 34.2974464,164.225338 38.1250168,164.225338 Z" id="Oval" fill="#E88024" fill-rule="nonzero"></path>
            </g>
            <g id="Group" transform="translate(135.000000, 151.000000)" fill="#FFFFFF" fill-rule="nonzero">
                <path d="M27.574,18.296 L28.919,18.296 L29.316,2.92 L27.166,2.92 L27.574,18.296 Z M27.173,21.892 C27.257,22.715 27.867,22.925 28.363,22.925 C28.86,22.925 29.407,22.552 29.407,21.892 C29.407,20.912 28.714,20.68 28.25,20.68 C27.786,20.68 27.088,21.068 27.173,21.892 Z" id="Shape"></path>
                <g id="Shape">
                    <path d="M10.437,21.635 C10.801,21.946 11.11,22.225 11.365,22.472 C10.623,23.562 9.485,24.517 8.87,24.942 C8.49,24.455 8.226,24.112 8.077,23.917 C8.809,23.38 9.596,22.62 10.437,21.635 Z M14.756,12.973 L14.756,21.281 L8.804,21.281 L8.804,12.973 L14.756,12.973 Z M13.31,18.755 L10.367,18.755 L10.367,20.109 L13.31,20.109 L13.31,18.755 Z M13.31,16.416 L10.367,16.416 L10.367,17.769 L13.31,17.769 L13.31,16.416 Z M13.31,14.11 L10.367,14.11 L10.367,15.463 L13.31,15.463 L13.31,14.11 Z M23.804,4.06 L23.804,2.68 L13.324,2.68 C12.687,1.283 12.444,0.736 12.597,1.04 L10.733,1.345 L11.462,2.68 L0.837,2.68 L0.837,4.06 L2.958,4.06 L2.958,6.701 L22.16,6.701 L22.16,5.484 L4.623,5.484 L4.623,4.06 L23.804,4.06 Z M3.745,7.894 L20.743,7.894 L20.743,11.584 L3.745,11.584 L3.745,7.894 Z M5.465,8.953 L5.465,10.515 L19.052,10.515 L19.052,8.953 L5.466,8.953 L5.465,8.953 Z M2.252,12.735 C4.081,12.717 5.917,12.717 7.76,12.735 L7.76,22.823 C7.76,23.356 8.221,25.117 4.81,24.748 L4.448,23.348 C5.736,23.516 6.38,23.34 6.38,22.823 L6.38,20.572 L3.517,20.572 C3.133,22.708 2.601,24.1 1.922,24.748 C1.712,24.572 1.351,24.248 0.837,23.776 C2.737,21.206 2.234,13.559 2.252,12.735 Z M3.648,17.383 L3.648,19.33 L6.316,19.33 L6.316,17.383 L3.648,17.383 Z M6.352,14.073 L3.694,14.073 L3.694,16.172 L6.352,16.172 L6.352,14.072 L6.352,14.073 Z"></path>
                    <path d="M20.24,19.616 L19.428,20.138 C18.635,18.844 18.047,17.972 17.665,17.52 C17.645,19.057 17.589,20.168 17.495,20.853 C17.186,23.078 16.363,24.019 15.812,24.798 L14.644,23.763 L14.256,24.263 C13.232,23.18 12.561,22.51 12.244,22.252 C12.581,21.934 12.875,21.652 13.127,21.409 C13.8224068,21.9522665 14.4637175,22.5614279 15.042,23.228 C15.297,22.767 15.812,22.071 16.036,20.753 C16.334,18.992 16.131,14.525 16.262,12.662 C18.572,12.654 20.365,12.654 21.638,12.662 L21.638,22.64 C21.578,23.323 22.935,23.203 22.935,22.64 L23.21,19.795 C23.441,19.891 23.83,20.032 24.376,20.216 C24.119,21.954 24.197,24.062 23.21,24.263 C22.51,24.296 20.24,24.776 20.24,23.335 L20.24,19.615 L20.24,19.616 Z M20.24,19.167 L20.24,14.098 L17.655,14.098 C17.669,15.144 17.675,16.082 17.67,16.911 L18.476,16.437 C19.36,17.671 19.947,18.564 20.239,19.117 L20.239,19.167 L20.24,19.167 Z"></path>
                </g>
            </g>
            <g id="Group" transform="translate(23.000000, 171.000000)" fill="#2A3052" fill-rule="nonzero">
                <path d="M2.074,14.15 L0.902,14.15 L0.902,0.504 L6.645,0.504 L6.645,5.388 L2.075,5.388 L2.075,14.149 L2.074,14.15 Z M2.089,1.408 L2.089,2.533 L5.605,2.533 L5.605,1.408 L2.09,1.408 L2.089,1.408 Z M5.577,3.412 L2.09,3.412 L2.09,4.508 L5.577,4.508 L5.577,3.412 Z M8.013,5.326 L8.013,0.531 L13.796,0.531 C13.84,7.169 13.84,10.968 13.796,11.927 C13.731,13.367 14.068,14.412 10.725,14.05 C10.6496683,13.7267478 10.5619369,13.4065114 10.462,13.09 C11.274,12.894 12.706,13.76 12.706,12.108 L12.706,5.326 L8.013,5.326 Z M9.122,3.406 L9.122,4.438 L12.678,4.438 L12.678,3.406 L9.122,3.406 Z M9.112,1.426 L9.112,2.53 L12.647,2.53 L12.647,1.425 L9.112,1.425 L9.112,1.426 Z" id="Shape"></path>
                <path d="M11.07,6.538 L11.07,7.488 L9.53,7.488 L9.53,9.286 L11.552,9.286 L11.552,10.272 L9.53,10.272 L9.53,13.854 L8.533,13.854 L8.533,10.272 C7.461,10.276 6.643,10.276 6.081,10.272 C5.944,10.911 5.944,13.025 3.668,14.074 C3.4703422,13.7849266 3.28224062,13.4894337 3.104,13.188 C3.875,12.781 4.844,12.273 5.092,10.306 L3.095,10.274 L3.105,9.286 L5.163,9.286 L5.163,7.488 L3.508,7.488 L3.508,6.538 L11.069,6.538 L11.07,6.538 Z M8.536,7.495 L6.186,7.495 L6.186,9.288 L8.536,9.288 L8.536,7.495 Z M17.696,0.009 L18.823,0.135 L18.358,3.035 C18.508,3.045 19.279,3.045 20.674,3.035 C20.713,5.162 20.274,8.339 19.379,10.164 C20.34,11.198 20.946,11.9 21.194,12.27 L20.444,13.107 L18.902,11.266 C18.002,12.741 17.22,13.768 16.555,14.349 C16.444,14.189 16.215,13.899 15.87,13.478 C16.74,12.548 17.6,11.598 18.112,10.48 L16.125,8.5 L17.124,4.09 L15.87,4.09 L15.87,3.034 L17.275,3.034 L17.696,0.009 Z M19.652,4.097 L18.231,4.097 C17.9699993,5.45333613 17.6645011,6.80072981 17.315,8.137 C17.843,8.65 18.268,9.067 18.587,9.387 C19.132,8.226 19.652,4.923 19.652,4.097 Z M24.593,0.029 L25.631,0.384 C24.439,2.857 23.514,4.461 22.855,5.198 C25.859,4.936 27.513,4.754 27.817,4.651 C27.081,3.255 26.654,2.473 26.534,2.306 L27.504,1.836 C28.549,3.634 29.345,5.122 29.894,6.3 L28.84,6.83 L28.292,5.62 C24.494,6.058 22.196,6.284 21.397,6.3 C21.337,5.908 21.279,5.564 21.222,5.268 C22.122,4.773 23.245,3.027 24.593,0.028 L24.593,0.029 Z M27.961,14.349 L27.961,13.393 L23.191,13.393 L23.191,14.349 L22.096,14.349 L22.096,7.72 L29.02,7.72 L29.02,14.349 L27.96,14.349 L27.961,14.349 Z M27.954,8.741 L23.218,8.741 L23.218,12.311 L27.954,12.311 L27.954,8.741 Z" id="Shape"></path>
            </g>
            <g id="Group" transform="translate(246.000000, 89.000000)" fill="#2A3052" fill-rule="nonzero">
                <path d="M2.77,0.16 L3.837,0.59 C2.674,3.138 1.874,4.626 1.437,5.054 L3.479,4.769 L4.608,2.811 L5.666,3.201 C3.984,6.096 2.56,8.354 1.84,8.898 L4.608,8.32 L4.176,6.869 L5.044,6.564 C5.686,8.286 6.007,9.327 6.007,9.687 C5.68420642,9.77011722 5.3631398,9.8598025 5.044,9.956 L4.851,9.188 C2.476,9.792 1.041,10.094 0.545,10.094 C0.432,9.752 0.331,9.404 0.242,9.05 C0.932,8.883 2.479,6.564 2.866,5.834 L0.394,6.204 C0.293,5.83 0.198,5.484 0.109,5.165 C0.611,5.008 1.499,3.339 2.769,0.16 L2.77,0.16 Z M4.45,10.532 C4.85,10.382 5.145,10.284 5.34,10.239 C5.99,11.857 6.314,12.759 6.314,12.947 C6.261,13.006 5.955,13.148 5.397,13.376 C5.1094032,12.4188829 4.79359884,11.4704694 4.45,10.532 Z M3.46,10.68 C3.535,10.974 4.096,13.821 4.096,13.936 L3.024,14.194 C2.8,12.426 2.635,11.332 2.53,10.913 C2.942,10.786 3.02,10.786 3.46,10.679 L3.46,10.68 Z M0.718,10.903 L1.748,11.029 C1.612,12.832 1.422,14.046 1.176,14.673 C0.834994815,14.5675517 0.492632525,14.4665431 0.149,14.37 C0.456,13.3 0.645,12.143 0.718,10.903 Z M5.836,2.28 L5.836,3.39 L9.749,3.39 L9.749,5.823 L6.316,5.823 L6.316,6.928 L14.38,6.928 L14.38,5.823 L10.89,5.823 L10.89,3.389 L14.708,3.389 L14.708,2.279 L10.89,2.279 L10.89,0.256 L9.749,0.256 L9.749,2.28 L5.836,2.28 Z M12.74,14.965 L12.74,14.225 L7.963,14.225 L7.963,14.965 L6.849,14.965 L6.849,8.537 L13.86,8.537 L13.86,14.965 L12.74,14.965 Z M12.771,9.627 L7.975,9.627 L7.975,13.121 L12.771,13.121 L12.771,9.627 Z M22.929,1.876 L22.929,0.236 L24.111,0.236 L24.111,1.876 L30.395,1.876 L30.395,2.966 L24.111,2.966 L24.111,4.469 L29.137,4.469 L29.137,9.074 L25.12,9.074 C25.927,10.474 27.867,11.951 30.94,13.506 C30.88,13.544 30.62,13.87 30.164,14.484 C28.443,13.66 25.12,11.05 24.111,9.074 L24.121,14.946 L22.929,14.946 C22.921,10.91 22.899,8.956 22.864,9.084 C21.814,10.948 19.502,13.324 16.767,14.484 L16.109,13.472 C19.009,12.119 20.947,10.652 21.924,9.074 L17.882,9.084 L17.882,4.47 L22.929,4.47 L22.929,2.967 L16.65,2.967 L16.65,1.877 L22.929,1.877 L22.929,1.876 Z M22.885,5.632 L18.99,5.632 L18.99,8.096 L22.885,8.096 L22.885,5.632 Z M24.117,8.07 L28.051,8.07 L28.051,5.665 L24.117,5.665 L24.117,8.07 Z" id="Shape"></path>
            </g>
            <g id="Group" opacity="0.9" transform="translate(248.000000, 121.000000)" fill="#6D6E71" fill-rule="nonzero">
                <path d="M14.515,13.366 L15.443,13.366 L15.443,5.878 L16.673,8.071 L17.255,7.169 C16.16,5.746 15.557,4.98 15.443,4.871 L15.453,4.058 L16.935,4.058 L16.935,3.154 L15.454,3.154 L15.444,0.6 L14.514,0.6 L14.514,3.154 L12.744,3.154 L12.744,4.058 L14.401,4.058 C14.301,5.071 13.011,7.973 12.34,8.678 C12.353,8.682 12.503,9.05 12.791,9.783 C13.57,8.389 13.984,7.553 14.515,6.007 L14.515,13.367 L14.515,13.366 Z M0.086,13.421 L0.086,1.4 L9.497,1.4 L9.497,13.422 L8.428,13.422 L8.428,12.529 L1.136,12.529 L1.136,13.422 L0.086,13.422 L0.086,13.421 Z M8.522,2.251 L1.137,2.251 L1.137,4.64 L8.522,4.64 L8.522,2.25 L8.522,2.251 Z M8.498,5.511 L1.161,5.511 L1.161,7.97 L8.498,7.97 L8.498,5.51 L8.498,5.511 Z M8.484,8.938 L1.175,8.938 L1.175,11.53 L8.485,11.53 L8.485,8.938 L8.484,8.938 Z M17.692,1.4 L25.393,1.4 L25.393,2.239 L23.082,2.239 L23.082,3.282 L25.163,3.282 L25.163,6.554 L18.02,6.554 L18.02,3.282 L20.121,3.282 L20.121,2.239 L17.692,2.239 L17.692,1.399 L17.692,1.4 Z M22.256,2.304 L20.902,2.304 L20.902,3.3 L22.256,3.3 L22.256,2.304 Z M23.052,4.094 L23.052,5.794 L24.262,5.794 L24.262,4.094 L23.052,4.094 Z M22.241,4.084 L20.957,4.084 L20.957,5.791 L22.241,5.791 L22.241,4.083 L22.241,4.084 Z M20.183,4.061 L18.95,4.061 L18.95,5.807 L20.183,5.807 L20.183,4.061 Z M24.775,7.213 L24.775,8.025 L18.321,8.025 L18.321,7.213 L24.775,7.213 Z M25.393,9.088 L25.393,9.864 L21.933,9.864 L21.933,13.361 L21.076,13.361 L21.076,9.864 L17.704,9.864 L17.704,9.088 L25.393,9.088 Z" id="Shape"></path>
                <path d="M22.985,11.05 C23.277,10.756 23.475,10.569 23.58,10.487 C23.942,10.763 25.196,11.987 25.653,12.677 C25.496,12.847 25.271,13.069 24.976,13.345 C24.75,12.9 24.086,12.135 22.986,11.05 L22.985,11.05 Z M19.49,10.203 C19.794,10.463 20.007,10.643 20.127,10.743 C19.37,11.746 18.61,12.528 17.846,13.088 C17.6376036,12.8586265 17.4403751,12.6193493 17.255,12.371 C18.46,11.395 19.205,10.673 19.49,10.203 Z" id="Shape"></path>
            </g>
            <g id="Group-14" transform="translate(15.000000, 8.000000)" fill="#020202">
                <path d="M0.924,3.924 L0.924,2.284 L7.594,2.312 L7.118,1.264 L9.096,0.928 L9.521,2.312 L16.074,2.312 L16.074,3.924 L0.924,3.924 Z M3.563,4.656 L13.493,4.656 L13.493,8.264 L3.563,8.264 L3.563,4.656 Z M11.823,6.041 L5.268,6.041 L5.268,6.885 L11.823,6.885 L11.823,6.041 Z M3.339,16.794 L1.656,16.794 L1.656,8.977 L15.397,8.929 L15.397,14.522 C15.397,15.03 15.617,16.295 14.063,16.673 C13.567,16.794 12.839,16.733 11.933,16.749 C11.736,16.03 11.595,15.514 11.511,15.199 C12.513,15.101 13.717,15.595 13.717,14.414 L13.717,10.463 L3.339,10.463 L3.339,16.793 L3.339,16.794 Z" id="Shape" fill-rule="nonzero"></path>
                <path d="M12.05,11.107 L12.05,14.8 L5.054,14.8 L5.054,11.107 L12.049,11.107 L12.05,11.107 Z M10.487,12.444 L6.612,12.444 L6.612,13.509 L10.487,13.509 L10.487,12.444 Z M20.529,3.05 L19.691,1.225 L21.395,0.768 C21.889,1.925 22.17,2.686 22.237,3.051 L24.79,3.051 L24.79,4.76 L20.784,4.76 L20.784,6.664 L23.92,6.664 C23.923,8.81 23.892,10.715 23.826,12.38 C23.728,14.878 23.766,16.942 20.566,16.316 C20.3994823,15.82257 20.2651995,15.3188424 20.164,14.808 C21.097,14.731 22.194,15.477 22.194,13.13 C22.194,11.566 22.231,9.958 22.307,8.307 L20.74,8.307 C20.597,10.483 20.43,11.997 20.238,12.852 C19.885,14.419 19.244,15.591 18.747,16.55 C18.3336229,16.1604647 17.9066931,15.7855669 17.467,15.426 C18.939,13.19 19.291,7.746 19.107,4.76 C18.6650082,4.75618224 18.2229918,4.75618224 17.781,4.76 L17.781,3.05 L20.528,3.05 L20.529,3.05 Z" id="Shape" fill-rule="nonzero"></path>
                <path d="M24.045,7.25 C24.48,7.896 24.567,8.046 24.984,8.66 C26.79,6.887 28.212,3.707 28.522,2.83 C29.115,4.462 30.488,6.887 32.402,8.521 C32.749,8.016 33.072,7.535 33.37,7.077 C31.095,5.146 29.505,1.94 29.309,1.03 L27.724,1.032 C26.376,4.244 25.149,6.317 24.044,7.249 L24.045,7.25 Z" id="Path"></path>
                <path d="M26.487,8.536 C26.643,8.388 27.372,7.474 27.534,7.344 C28.488,7.884 30.659,9.64 31.231,10.355 C30.684,11.029 30.337,11.455 30.189,11.631 C29.407,10.726 28.076,9.384 26.487,8.536 Z M26.269,11.576 C25.668,12.292 25.32,12.703 25.227,12.808 C26.442,13.456 30.34,15.844 31.105,16.759 C31.4792016,16.299667 31.8602441,15.8459498 32.248,15.398 C30.746,14.076 28.753,12.802 26.268,11.576 L26.269,11.576 Z" id="Shape" fill-rule="nonzero"></path>
            </g>
        </g>
    </g>
</svg>