<svg width="300" height="199" viewBox="0 0 300 199" xmlns="http://www.w3.org/2000/svg"><title>traditional chinese high low</title><g fill="none" fill-rule="evenodd"><path fill="#F1F2F2" d="M0 0h300v199H0z"/><path d="M39.125 55.375V74.75H75.25V55.375H39.125zm0-1H75.25V34h1v20.375h36.125V34h1v20.375H149.5V34h1v20.375h36.125V34h1v20.375h36.125V34h1v20.375h36.125V34h1v20.375H299.5v1h-37.625V74.75H299.5v1h-37.625v19.375H299.5v1h-37.625V115.5H299.5v1h-37.625v19.375H299.5v1h-37.625v19.375H299.5v1h-37.625v19.375H299.5v1h-37.625V199h-1v-21.375H224.75V199h-1v-21.375h-36.125V199h-1v-21.375H150.5V199h-1v-21.375h-36.125V199h-1v-21.375H76.25V199h-1v-21.375H39.125V199h-1v-21.375H1.5v-1h36.625V157.25H1.5v-1h36.625v-19.375H1.5v-1h36.625V116.5H1.5v-1h36.625V96.125H1.5v-1h36.625V75.75H1.5v-1h36.625V55.375H1.5v-1h36.625V34h1v20.375zm221.75 1H224.75V74.75h36.125V55.375zm-37.125 0h-36.125V74.75h36.125V55.375zm-37.125 0H150.5V74.75h36.125V55.375zm-37.125 0h-36.125V74.75H149.5V55.375zm-37.125 0H76.25V74.75h36.125V55.375zM39.125 75.75v19.375H75.25V75.75H39.125zm221.75 0H224.75v19.375h36.125V75.75zm-37.125 0h-36.125v19.375h36.125V75.75zm-37.125 0H150.5v19.375h36.125V75.75zm-37.125 0h-36.125v19.375H149.5V75.75zm-37.125 0H76.25v19.375h36.125V75.75zm-73.25 20.375V115.5H75.25V96.125H39.125zm221.75 0H224.75V115.5h36.125V96.125zm-37.125 0h-36.125V115.5h36.125V96.125zm-37.125 0H150.5V115.5h36.125V96.125zm-37.125 0h-36.125V115.5H149.5V96.125zm-37.125 0H76.25V115.5h36.125V96.125zM39.125 116.5v19.375H75.25V116.5H39.125zm221.75 0H224.75v19.375h36.125V116.5zm-37.125 0h-36.125v19.375h36.125V116.5zm-37.125 0H150.5v19.375h36.125V116.5zm-37.125 0h-36.125v19.375H149.5V116.5zm-37.125 0H76.25v19.375h36.125V116.5zm-73.25 20.375v19.375H75.25v-19.375H39.125zm221.75 0H224.75v19.375h36.125v-19.375zm-37.125 0h-36.125v19.375h36.125v-19.375zm-37.125 0H150.5v19.375h36.125v-19.375zm-37.125 0h-36.125v19.375H149.5v-19.375zm-37.125 0H76.25v19.375h36.125v-19.375zm-73.25 20.375v19.375H75.25V157.25H39.125zm221.75 0H224.75v19.375h36.125V157.25zm-37.125 0h-36.125v19.375h36.125V157.25zm-37.125 0H150.5v19.375h36.125V157.25zm-37.125 0h-36.125v19.375H149.5V157.25zm-37.125 0H76.25v19.375h36.125V157.25z" fill="#DFDEDE"/><path stroke="#C2C2C2" stroke-width="2" d="M1 1h298v197H1z"/><path fill="#C2C2C2" d="M0 33h300v2H0z"/><g transform="translate(4 32.952)"><path d="M.9 30.163h290.625" stroke="#15212D" stroke-width="1.133" fill="#D8D8D8" fill-rule="nonzero" stroke-dasharray="7.5"/><path d="M237.863.725V161" stroke="#2A3052" stroke-width="1.211" stroke-linejoin="round"/><path d="M.9 123.5h290.625" stroke="#15212D" stroke-width="1.133" fill="#D8D8D8" fill-rule="nonzero" stroke-dasharray="7.5"/><path stroke="#2A3052" stroke-width="3.633" stroke-linecap="round" stroke-linejoin="round" d="M17.25 82.063L53.115 66l26.494 21.96 43.594-57.247 31.63 93.487 18.215-49.436 27.446-22.991 37.05 24.963"/><ellipse cx="8.137" cy="11.475" rx="8.137" ry="8.475" opacity=".6" transform="translate(147 112.25)" fill="#FFF" fill-rule="nonzero"/><ellipse stroke="#E88024" stroke-width="2.422" cx="155.137" cy="123.725" rx="8.137" ry="8.475"/><ellipse cx="10.012" cy="8.475" rx="8.137" ry="8.475" opacity=".6" transform="translate(113.25 22.25)" fill="#FFF" fill-rule="nonzero"/><ellipse stroke="#E88024" stroke-width="2.422" cx="123.263" cy="30.725" rx="8.137" ry="8.475"/></g><path d="M112.99 43.936h9.726v.876h-4.852v5.07h-1.018v-.92c-.877.143-2.114.274-3.713.384L113 48.47l.931-.044v-3.614h-.942v-.876zm1.928 4.424c.734-.065 1.38-.131 1.928-.219v-.547h-1.928v.766zm0-1.511h1.928v-.668h-1.928v.668zm0-1.413h1.928v-.624h-1.928v.624zm3.746.756h-.362v-.866h3.822v.81a5.134 5.134 0 0 1-1.018 2.027c.46.329 1.008.624 1.643.887l-.526.865c-.7-.328-1.292-.7-1.785-1.095a7.598 7.598 0 0 1-1.906 1.084l-.536-.81c.679-.263 1.259-.58 1.74-.953a4.908 4.908 0 0 1-1.072-1.95zm1.72 1.336a4.26 4.26 0 0 0 .788-1.336h-1.621c.175.493.449.942.832 1.336zm1.05-7.437v3.363h-1.018V40.88h-5.082v2.607h-1.007V40.09h7.107zm-5.717 1.347h4.338v.712h-4.338v-.712zm-.021 1.194h4.38v.701h-4.38v-.7zm13.405-2.946c.099.274.197.57.296.898h4.26v.964h-9.736v-.964h4.348a5.918 5.918 0 0 0-.329-.7l1.161-.198zm2.782 10.142h-.91l-.24-.931.843.044c.405 0 .613-.154.613-.438v-2.771h-6.79v4.129h-.986v-5.027h8.762v3.888c0 .733-.438 1.106-1.292 1.106zm-6.243-7.765h6.32v2.278h-6.32v-2.278zm5.323 1.49v-.702h-4.326v.701h4.326zm-4.392 2.704h4.458v2.3h-4.458v-2.3zm3.538 1.534v-.767h-2.607v.767h2.607zm10.787-8.094l1.03.142c-.022.296-.055.58-.077.866h2.618v.942h-2.727c-.044.262-.077.503-.11.744h2.158v6.221h.996v.942h-7.239v-.942h1.084v-6.22h1.983a9.28 9.28 0 0 0 .098-.745h-2.694v-.942h2.804c.022-.34.054-.68.076-1.008zm-1.27 8.915h3.165v-.734h-3.165v.734zm0-1.555h3.165v-.701h-3.165v.7zm0-1.533h3.165v-.69h-3.165v.69zm0-1.512h3.165v-.69h-3.165v.69zm-3.516-.153c-.328.46-.679.909-1.051 1.336l-.34-1.106c1.019-1.249 1.764-2.716 2.235-4.381l.942.438c-.209.701-.471 1.37-.778 2.004v7.722h-1.008v-6.013zM145.794 173.805h8.455v.836h-4.18v4.37h-.97v-.77c-.74.114-1.795.219-3.172.323l-.124-.836.78-.038v-3.05h-.789v-.835zm1.729 3.819a34.797 34.797 0 0 0 1.577-.162v-.418h-1.577v.58zm0-1.283h1.577v-.522h-1.577v.522zm0-1.225h1.577v-.475h-1.577v.475zm3.192.722h-.314v-.817h3.344v.77a4.237 4.237 0 0 1-.836 1.71c.39.265.846.512 1.378.721l-.504.827a8.055 8.055 0 0 1-1.51-.922 6.407 6.407 0 0 1-1.634.912l-.504-.77c.57-.218 1.064-.474 1.473-.778a4.144 4.144 0 0 1-.893-1.653zm1.51 1.073c.285-.332.494-.693.627-1.073h-1.292c.133.39.361.75.665 1.073zm.94-6.431v2.945h-.968v-2.204h-4.313v2.232h-.96v-2.973h6.242zm-4.977 1.178h3.714v.655h-3.714v-.655zm-.02 1.035h3.753v.646h-3.752v-.646zm8.969-2.536l.902.428a10.955 10.955 0 0 1-.874 1.994v6.432h-.969v-4.988c-.256.323-.532.637-.817.94l-.323-1.044c.931-1.064 1.625-2.318 2.08-3.762zm1.928 4.16v2.062a23.158 23.158 0 0 0 1.501-.503l.171.864c-.779.257-1.7.523-2.745.808l-.247-.836c.237-.114.36-.333.36-.656v-5.025c2.014-.228 3.61-.484 4.798-.77l.55.789c-.446.114-.968.228-1.557.342 0 .741.01 1.396.028 1.976h1.7v.95h-1.662c.057 1.159.143 1.957.276 2.394.18.674.39 1.045.627 1.102.123-.029.237-.523.332-1.473l.789.542c-.19 1.31-.551 1.966-1.083 1.966-.314 0-.599-.152-.855-.446-.342-.409-.59-.94-.741-1.606-.124-.494-.21-1.32-.257-2.48h-1.985zm1.947-.95a54.904 54.904 0 0 1-.028-1.823 90.1 90.1 0 0 1-1.919.256v1.568h1.947zm-2.887 4.532h3.153v.922h-3.153v-.922zm11.836-7.751l.988.133-.057.722h2.223v.892h-2.327l-.086.57h1.834v5.368h.854v.912h-6.298v-.912h.931v-5.368h1.691l.086-.57h-2.3v-.892h2.395c.019-.295.047-.58.066-.855zm-.997 7.685h2.631v-.551h-2.631v.55zm0-1.33h2.631v-.532h-2.631v.532zm0-1.311h2.631v-.532h-2.631v.532zm0-1.311h2.631v-.523h-2.631v.523zm-3.154.038c-.266.36-.542.722-.846 1.064l-.323-1.064c.855-1.064 1.492-2.318 1.9-3.762l.893.418c-.18.589-.399 1.159-.655 1.7v6.736h-.97v-5.092z" fill="#2A3052"/><g fill="#2A3052"><path d="M249.445 110.19l.81.326c-.883 1.935-1.49 3.066-1.822 3.39l1.55-.216.858-1.487.804.296c-1.278 2.198-2.36 3.913-2.906 4.327l2.102-.439-.328-1.102.66-.232c.487 1.308.73 2.099.73 2.372-.411.11-.655.178-.73.204l-.148-.583c-1.803.459-2.893.688-3.27.688-.086-.26-.162-.524-.23-.793.524-.126 1.699-1.888 1.993-2.442l-1.878.28c-.076-.283-.148-.546-.216-.788.382-.12 1.055-1.387 2.02-3.801zM250.72 118.067c.304-.114.53-.189.676-.223.494 1.229.74 1.914.74 2.057-.04.044-.272.153-.696.325a38.544 38.544 0 0 0-.72-2.16zM249.969 118.178c.057.224.483 2.387.483 2.473l-.814.196c-.17-1.342-.295-2.173-.375-2.491.312-.096.372-.096.706-.178zM247.886 118.349l.783.095c-.103 1.37-.248 2.292-.434 2.767-.37-.112-.63-.188-.78-.23.233-.813.377-1.69.431-2.632zM251.774 111.8v.842h2.971v1.848h-2.607v.84h6.125v-.84h-2.651v-1.848h2.9v-.842h-2.9v-1.537h-.867v1.537zM257.017 121.433v-.562h-3.628v.562h-.846v-4.881h5.324v4.88h-.85zm.023-4.053h-3.642v2.653h3.642v-2.653zM264.755 111.493v-1.245h.897v1.245h4.772v.828h-4.772v1.141h3.818v3.497h-3.051c.613 1.063 2.086 2.185 4.42 3.366-.047.03-.243.277-.59.743-1.307-.626-3.83-2.608-4.597-4.109l.008 4.46h-.905c-.007-3.066-.023-4.55-.05-4.452-.797 1.416-2.553 3.22-4.63 4.1l-.5-.768c2.203-1.027 3.675-2.14 4.417-3.34l-3.07.008v-3.505h3.833v-1.141h-4.769v-.828h4.769zm-.033 2.852h-2.959v1.871h2.959v-1.871zm.935 1.852h2.987v-1.827h-2.987v1.827z"/></g><g fill="#2A3052"><path d="M12.538 135.363h-1.03v-11.991h5.046v4.292h-4.016v7.699zm.012-11.196v.988h3.09v-.988h-3.09zm3.065 1.76h-3.064v.964h3.064v-.964zM17.756 127.61v-4.214h5.082c.038 5.833.038 9.17 0 10.014-.058 1.264.239 2.183-2.7 1.865-.053-.239-.13-.52-.23-.844.713-.171 1.971.589 1.971-.862v-5.96h-4.123zm.974-1.688v.907h3.125v-.907H18.73zm-.008-1.74v.97h3.105v-.97h-3.105z"/><path d="M20.442 128.675v.834h-1.353v1.58h1.777v.866h-1.777v3.148h-.876v-3.148c-.943.004-1.66.004-2.155 0-.12.562-.12 2.42-2.12 3.341-.235-.35-.4-.609-.495-.778.677-.358 1.528-.805 1.746-2.533l-1.755-.027.009-.869h1.809v-1.58h-1.455v-.834h6.645zm-2.227.84H16.15v1.576h2.065v-1.576zM26.264 122.937l.99.111-.408 2.548c.131.01.81.01 2.035 0 .034 1.87-.352 4.66-1.138 6.264.845.909 1.377 1.526 1.595 1.852l-.66.735-1.354-1.618c-.79 1.296-1.478 2.199-2.063 2.709-.097-.14-.298-.396-.601-.765.764-.818 1.52-1.653 1.97-2.635l-1.746-1.74.878-3.875H24.66v-.927h1.235l.37-2.659zm1.72 3.592h-1.25a55.405 55.405 0 0 1-.804 3.55c.464.452.837.818 1.117 1.099.479-1.02.936-3.923.936-4.649zM32.325 122.955l.912.312c-1.048 2.173-1.86 3.583-2.44 4.23 2.64-.23 4.094-.39 4.36-.48-.646-1.228-1.021-1.915-1.126-2.062l.851-.413c.919 1.58 1.619 2.888 2.1 3.923l-.925.466-.482-1.063c-3.337.385-5.357.584-6.059.597a24.777 24.777 0 0 0-.154-.907c.791-.434 1.779-1.969 2.963-4.603zM35.285 135.538v-.84h-4.192v.84h-.963v-5.825h6.084v5.825h-.93zm-.007-4.928h-4.161v3.137h4.16v-3.137z"/></g><path d="M16.423 15.824h10.75v.992h-5.339v3.511c.218-.036.424-.072.618-.097v.957c-.194.036-.4.072-.618.12v1.139h-1.21v-.969c-1.066.134-2.421.255-4.044.376l-.157-1.066 1.017-.048v-3.923h-1.017v-.992zm2.167 4.842c.75-.048 1.429-.109 2.034-.181v-.57H18.59v.751zm0-1.646h2.034v-.666H18.59v.666zm0-1.562h2.034v-.642H18.59v.642zm-.775-5.908h8.027v3.741h-8.027v-3.74zm6.816 2.87v-.57h-5.617v.57h5.617zm-5.617-1.417h5.617v-.545h-5.617v.545zm3.656 5.375h-.375v-1.017h4.261v.957a5.329 5.329 0 0 1-1.053 2.203c.484.339 1.065.63 1.731.896l-.642 1.041c-.726-.339-1.356-.714-1.876-1.126-.533.436-1.174.811-1.913 1.126l-.642-.969a7.124 7.124 0 0 0 1.707-.944c-.593-.654-.992-1.38-1.198-2.167zm1.961 1.417c.351-.436.618-.908.787-1.417h-1.67c.18.52.471.993.883 1.417zm9.673-8.68c.097.29.206.617.303.968h4.673v1.162H28.493v-1.162h4.734a6.807 6.807 0 0 0-.34-.727l1.417-.242zm3.003 11.246h-.993l-.303-1.114.932.037c.424 0 .642-.146.642-.436v-2.966H30.2v4.515h-1.198v-5.605h9.782v4.31c0 .835-.497 1.26-1.477 1.26zm-6.95-8.62h7.083v2.567h-7.083V13.74zm5.872 1.623v-.678h-4.66v.678h4.66zm-4.818 3.002h4.988v2.615H31.41v-2.615zm3.874 1.683v-.75h-2.76v.75h2.76zm11.925-8.923l1.259.17-.073.92h2.833v1.138h-2.966l-.109.726h2.337v6.84h1.09v1.163h-8.027V20.92h1.186v-6.84h2.155l.109-.726h-2.93v-1.138h3.05c.025-.375.061-.739.086-1.09zm-1.272 9.794h3.354v-.702h-3.354v.702zm0-1.694h3.354v-.678h-3.354v.678zm0-1.671h3.354v-.678h-3.354v.678zm0-1.67h3.354v-.667h-3.354v.666zm-4.019.048c-.339.46-.69.92-1.077 1.356l-.412-1.356c1.09-1.356 1.9-2.954 2.421-4.795l1.138.533c-.23.75-.508 1.477-.835 2.167v8.584h-1.235v-6.49zm14.478 2.19h-3.482v-1.33h3.482v1.33zm1.618-2.3h10.75v.993h-5.338v3.511c.218-.036.424-.072.617-.097v.957c-.193.036-.4.072-.617.12v1.139h-1.21v-.969c-1.066.134-2.422.255-4.044.376l-.158-1.066 1.017-.048v-3.923h-1.017v-.992zm2.167 4.843c.75-.048 1.429-.109 2.034-.181v-.57h-2.034v.751zm0-1.646h2.034v-.666h-2.034v.666zm0-1.562h2.034v-.642h-2.034v.642zm-.774-5.908h8.026v3.741h-8.026v-3.74zm6.815 2.87v-.57h-5.617v.57h5.617zm-5.617-1.417h5.617v-.545h-5.617v.545zm3.656 5.375h-.375v-1.017h4.261v.957a5.329 5.329 0 0 1-1.053 2.203c.484.339 1.065.63 1.731.896l-.641 1.041c-.727-.339-1.356-.714-1.877-1.126-.532.436-1.174.811-1.913 1.126l-.641-.969a7.124 7.124 0 0 0 1.707-.944c-.593-.654-.993-1.38-1.199-2.167zm1.961 1.417c.352-.436.618-.908.787-1.417h-1.67c.181.52.472.993.883 1.417zm8.693-3.075v3.753c.266-.122.533-.243.799-.376l.206 1.09c-.69.266-1.49.557-2.41.86l-.326-1.078c.339-.109.508-.327.508-.642v-7.724c2.53-.375 4.54-.799 6.03-1.283l.69 1.005c-.594.194-1.284.387-2.071.581a49.18 49.18 0 0 0 .097 2.615h2.397v1.199h-2.3c.036.435.084.799.157 1.113.194 1.054.4 1.804.63 2.252.218.46.387.702.484.702.085 0 .182-.605.278-1.804l1.042.57c-.243 1.803-.618 2.711-1.114 2.711-.412 0-.836-.327-1.284-.956-.447-.63-.823-1.634-1.138-2.99a15.667 15.667 0 0 1-.266-1.598h-2.41zm2.203-3.548a54.12 54.12 0 0 1-2.203.388v1.961h2.3a45.123 45.123 0 0 1-.097-2.349zm-.278 6.38c.654.824 1.15 1.562 1.501 2.192l-.944.653a23.26 23.26 0 0 0-1.417-2.227l.86-.618zm-4.383-8.414l1.15.545c-.29.884-.653 1.731-1.113 2.543v8.196H71.26v-6.356c-.327.411-.678.81-1.041 1.198l-.412-1.331c1.186-1.356 2.07-2.954 2.651-4.795zm16.344-.012l1.26.17-.074.92h2.833v1.138h-2.966l-.109.726h2.337v6.84h1.09v1.163h-8.027V20.92h1.186v-6.84h2.155l.11-.726h-2.93v-1.138h3.05c.024-.375.06-.739.085-1.09zm-1.271 9.794h3.353v-.702h-3.353v.702zm0-1.694h3.353v-.678h-3.353v.678zm0-1.671h3.353v-.678h-3.353v.678zm0-1.67h3.353v-.667h-3.353v.666zm-4.02.048c-.338.46-.69.92-1.077 1.356l-.412-1.356c1.09-1.356 1.901-2.954 2.422-4.795l1.138.533c-.23.75-.509 1.477-.836 2.167v8.584h-1.235v-6.49z" fill="#020202"/></g></svg>