<?xml version="1.0" encoding="UTF-8"?>
<svg width="299px" height="197px" viewBox="0 0 299 197" version="1.1" xmlns="http://www.w3.org/2000/svg" xmlns:xlink="http://www.w3.org/1999/xlink">
    <!-- Generator: Sketch 52.6 (67491) - http://www.bohemiancoding.com/sketch -->
    <title>high close</title>
    <desc>Created with Sketch.</desc>
    <g id="Page-1" stroke="none" stroke-width="1" fill="none" fill-rule="evenodd">
        <g id="high-close">
            <g id="Group">
                <polygon id="Shape" fill="#F1F2F2" points="0 0 299 0 299 197 0 197"></polygon>
                <path d="M1.98671096,1.9798995 L1.98671096,195.020101 L297.013289,195.020101 L297.013289,1.9798995 L1.98671096,1.9798995 Z M299,0 L299,197 L0,197 L0,0 L299,0 Z" id="Shape" fill="#C2C2C2" fill-rule="nonzero"></path>
                <path d="M4.887,56.1681983 L4.887,54.9623677 L294.54325,54.9623677 L294.54325,56.1681983 L4.887,56.1681983 Z M4.887,96.4974436 L4.887,95.291613 L294.54325,95.291613 L294.54325,96.4974436 L4.887,96.4974436 Z M4.887,136.826689 L4.887,135.620859 L294.54325,135.620859 L294.54325,136.826689 L4.887,136.826689 Z M4.887,177.118764 L4.887,175.912934 L294.54325,175.912934 L294.54325,177.118764 L4.887,177.118764 Z M39.2670847,35.4192453 L40.4729153,35.4192453 L40.4729153,194.283019 L39.2670847,194.283019 L39.2670847,35.4192453 Z M75.9319597,35.4192453 L77.1377903,35.4192453 L77.1377903,194.283019 L75.9319597,194.283019 L75.9319597,35.4192453 Z M112.55946,35.4192453 L113.76529,35.4192453 L113.76529,194.283019 L112.55946,194.283019 L112.55946,35.4192453 Z M149.224335,35.4192453 L150.430165,35.4192453 L150.430165,194.283019 L149.224335,194.283019 L149.224335,35.4192453 Z M185.851835,35.4192453 L187.057665,35.4192453 L187.057665,194.283019 L185.851835,194.283019 L185.851835,35.4192453 Z M222.479335,35.4192453 L223.685165,35.4192453 L223.685165,194.283019 L222.479335,194.283019 L222.479335,35.4192453 Z M4.887,116.643481 L4.887,115.437651 L294.54325,115.437651 L294.54325,116.643481 L4.887,116.643481 Z" id="Shape-2" fill="#DFDEDE" fill-rule="nonzero"></path>
                <path d="M4.887,65.1614382 L4.887,64.0336562 L12.3557552,64.0336562 L12.3557552,65.1614382 L4.887,65.1614382 Z M19.8245105,65.1614382 L19.8245105,64.0336562 L27.2932657,64.0336562 L27.2932657,65.1614382 L19.8245105,65.1614382 Z M34.762021,65.1614382 L34.762021,64.0336562 L42.2307762,64.0336562 L42.2307762,65.1614382 L34.762021,65.1614382 Z M49.6995315,65.1614382 L49.6995315,64.0336562 L57.1682867,64.0336562 L57.1682867,65.1614382 L49.6995315,65.1614382 Z M64.637042,65.1614382 L64.637042,64.0336562 L72.1057972,64.0336562 L72.1057972,65.1614382 L64.637042,65.1614382 Z M79.5745525,65.1614382 L79.5745525,64.0336562 L87.0433077,64.0336562 L87.0433077,65.1614382 L79.5745525,65.1614382 Z M94.5120629,65.1614382 L94.5120629,64.0336562 L101.980818,64.0336562 L101.980818,65.1614382 L94.5120629,65.1614382 Z M109.449573,65.1614382 L109.449573,64.0336562 L116.918329,64.0336562 L116.918329,65.1614382 L109.449573,65.1614382 Z M124.387084,65.1614382 L124.387084,64.0336562 L131.855839,64.0336562 L131.855839,65.1614382 L124.387084,65.1614382 Z M139.324594,65.1614382 L139.324594,64.0336562 L146.79335,64.0336562 L146.79335,65.1614382 L139.324594,65.1614382 Z M154.262105,65.1614382 L154.262105,64.0336562 L161.73086,64.0336562 L161.73086,65.1614382 L154.262105,65.1614382 Z M169.199615,65.1614382 L169.199615,64.0336562 L176.668371,64.0336562 L176.668371,65.1614382 L169.199615,65.1614382 Z M184.137126,65.1614382 L184.137126,64.0336562 L191.605881,64.0336562 L191.605881,65.1614382 L184.137126,65.1614382 Z M199.074636,65.1614382 L199.074636,64.0336562 L206.543392,64.0336562 L206.543392,65.1614382 L199.074636,65.1614382 Z M214.012147,65.1614382 L214.012147,64.0336562 L221.480902,64.0336562 L221.480902,65.1614382 L214.012147,65.1614382 Z M228.949657,65.1614382 L228.949657,64.0336562 L236.418413,64.0336562 L236.418413,65.1614382 L228.949657,65.1614382 Z M243.887168,65.1614382 L243.887168,64.0336562 L251.355923,64.0336562 L251.355923,65.1614382 L243.887168,65.1614382 Z M258.824678,65.1614382 L258.824678,64.0336562 L266.293434,64.0336562 L266.293434,65.1614382 L258.824678,65.1614382 Z M273.762189,65.1614382 L273.762189,64.0336562 L281.230944,64.0336562 L281.230944,65.1614382 L273.762189,65.1614382 Z M288.699699,65.1614382 L288.699699,64.0336562 L294.54325,64.0336562 L294.54325,65.1614382 L288.699699,65.1614382 Z" id="Shape-3" fill="#15212D" fill-rule="nonzero"></path>
                <polygon id="Path" fill="#2A3052" fill-rule="nonzero" points="240.45671 35.4192453 241.66254 35.4192453 241.66254 194.283019 240.45671 194.283019"></polygon>
                <path d="M4.887,156.933702 L4.887,155.80592 L12.3557552,155.80592 L12.3557552,156.933702 L4.887,156.933702 Z M19.8245105,156.933702 L19.8245105,155.80592 L27.2932657,155.80592 L27.2932657,156.933702 L19.8245105,156.933702 Z M34.762021,156.933702 L34.762021,155.80592 L42.2307762,155.80592 L42.2307762,156.933702 L34.762021,156.933702 Z M49.6995315,156.933702 L49.6995315,155.80592 L57.1682867,155.80592 L57.1682867,156.933702 L49.6995315,156.933702 Z M64.637042,156.933702 L64.637042,155.80592 L72.1057972,155.80592 L72.1057972,156.933702 L64.637042,156.933702 Z M79.5745525,156.933702 L79.5745525,155.80592 L87.0433077,155.80592 L87.0433077,156.933702 L79.5745525,156.933702 Z M94.5120629,156.933702 L94.5120629,155.80592 L101.980818,155.80592 L101.980818,156.933702 L94.5120629,156.933702 Z M109.449573,156.933702 L109.449573,155.80592 L116.918329,155.80592 L116.918329,156.933702 L109.449573,156.933702 Z M124.387084,156.933702 L124.387084,155.80592 L131.855839,155.80592 L131.855839,156.933702 L124.387084,156.933702 Z M139.324594,156.933702 L139.324594,155.80592 L146.79335,155.80592 L146.79335,156.933702 L139.324594,156.933702 Z M154.262105,156.933702 L154.262105,155.80592 L161.73086,155.80592 L161.73086,156.933702 L154.262105,156.933702 Z M169.199615,156.933702 L169.199615,155.80592 L176.668371,155.80592 L176.668371,156.933702 L169.199615,156.933702 Z M184.137126,156.933702 L184.137126,155.80592 L191.605881,155.80592 L191.605881,156.933702 L184.137126,156.933702 Z M199.074636,156.933702 L199.074636,155.80592 L206.543392,155.80592 L206.543392,156.933702 L199.074636,156.933702 Z M214.012147,156.933702 L214.012147,155.80592 L221.480902,155.80592 L221.480902,156.933702 L214.012147,156.933702 Z M228.949657,156.933702 L228.949657,155.80592 L236.418413,155.80592 L236.418413,156.933702 L228.949657,156.933702 Z M243.887168,156.933702 L243.887168,155.80592 L251.355923,155.80592 L251.355923,156.933702 L243.887168,156.933702 Z M258.824678,156.933702 L258.824678,155.80592 L266.293434,155.80592 L266.293434,156.933702 L258.824678,156.933702 Z M273.762189,156.933702 L273.762189,155.80592 L281.230944,155.80592 L281.230944,156.933702 L273.762189,156.933702 Z M288.699699,156.933702 L288.699699,155.80592 L294.54325,155.80592 L294.54325,156.933702 L288.699699,156.933702 Z" id="Path-2" fill="#15212D" fill-rule="nonzero"></path>
                <polygon id="Shape-4" fill="#C2C2C2" fill-rule="nonzero" points="2.794 35.4358286 2.794 33.023794 296.63625 33.023794 296.63625 35.4358286"></polygon>
                <path d="M21.9184493,117.693023 C21.0058223,118.099477 19.9364962,117.689142 19.5300426,116.776515 C19.123589,115.863888 19.5339236,114.794562 20.4465507,114.388109 L56.1920007,98.4682786 C56.8186454,98.1891919 57.5492377,98.2885757 58.0785624,98.7249108 L83.037108,119.298844 L125.345574,64.0442066 C126.251105,62.8615879 128.117921,63.2189352 128.522685,64.6523714 L158.357145,170.308559 L174.71164,108.34568 C174.807525,107.982395 175.014153,107.657982 175.302829,107.41749 L202.657592,84.6286784 C203.541532,83.8922823 204.879278,84.1572972 205.415706,85.1750762 L242.790706,156.087642 C243.256521,156.971445 242.917675,158.065528 242.033871,158.531343 C241.150068,158.997158 240.055985,158.658312 239.59017,157.774508 L203.256822,88.8382966 L178.062305,109.827443 L160.16506,177.635396 C159.695113,179.415903 157.175582,179.437512 156.675165,177.665327 L126.022408,69.1112111 L84.7696381,122.987114 C84.1467836,123.800559 82.9733241,123.934871 82.1827751,123.283202 L56.6412045,102.228668 L21.9184493,117.693023 Z" id="Shape-5" fill="#2A3052" fill-rule="nonzero"></path>
                <g opacity="0.6" transform="translate(232.725000, 146.962264)" fill="#FFFFFF" id="Oval">
                    <ellipse cx="8.110375" cy="9.2588679" rx="8.110375" ry="8.40037736"></ellipse>
                </g>
                <path d="M240.835375,165.827527 C235.680409,165.827527 231.518983,161.517301 231.518983,156.221132 C231.518983,150.924963 235.680409,146.614737 240.835375,146.614737 C245.990341,146.614737 250.151767,150.924963 250.151767,156.221132 C250.151767,161.517301 245.990341,165.827527 240.835375,165.827527 Z M240.835375,163.415492 C244.638882,163.415492 247.739733,160.203764 247.739733,156.221132 C247.739733,152.2385 244.638882,149.026772 240.835375,149.026772 C237.031868,149.026772 233.931017,152.2385 233.931017,156.221132 C233.931017,160.203764 237.031868,163.415492 240.835375,163.415492 Z" id="Oval-2" fill="#E88024" fill-rule="nonzero"></path>
                <g id="Group-2" opacity="0.6" transform="translate(117.862500, 56.754717)" fill="#FFFFFF">
                    <ellipse id="Oval-3" cx="8.979125" cy="8.40037736" rx="8.110375" ry="8.40037736"></ellipse>
                </g>
                <path d="M126.841625,74.7614889 C121.686659,74.7614889 117.525233,70.4512631 117.525233,65.1550943 C117.525233,59.8589255 121.686659,55.5486997 126.841625,55.5486997 C131.996591,55.5486997 136.158017,59.8589255 136.158017,65.1550943 C136.158017,70.4512631 131.996591,74.7614889 126.841625,74.7614889 Z M126.841625,72.3494544 C130.645132,72.3494544 133.745983,69.1377262 133.745983,65.1550943 C133.745983,61.1724624 130.645132,57.9607342 126.841625,57.9607342 C123.038118,57.9607342 119.937267,61.1724624 119.937267,65.1550943 C119.937267,69.1377262 123.038118,72.3494544 126.841625,72.3494544 Z" id="Oval-4" fill="#E88024" fill-rule="nonzero"></path>
            </g>
            <path d="M15.001,16.021 L26.548,16.021 L26.548,17.162 L20.84,17.162 L20.84,23.13 L19.515,23.13 L19.515,22.08 C18.503,22.235 17.063,22.378 15.182,22.52 L15.012,21.379 L16.077,21.327 L16.077,17.162 L15,17.162 L15,16.021 L15.001,16.021 Z M17.362,21.236 C18.0815775,21.1790334 18.7997638,21.105681 19.516,21.016 L19.516,20.445 L17.362,20.445 L17.362,21.236 Z M17.362,19.485 L19.516,19.485 L19.516,18.771 L17.362,18.771 L17.362,19.485 Z M17.362,17.811 L19.516,17.811 L19.516,17.162 L17.362,17.162 L17.362,17.811 Z M21.722,18.797 L21.294,18.797 L21.294,17.681 L25.861,17.681 L25.861,18.732 C25.6623189,19.5868603 25.2718025,20.3853331 24.719,21.067 C25.251,21.431 25.874,21.768 26.6,22.054 L25.913,23.182 C25.108,22.793 24.421,22.378 23.85,21.924 C23.227,22.417 22.474,22.832 21.618,23.169 L20.93,22.119 C21.709,21.82 22.384,21.469 22.941,21.054 C22.3669335,20.4049689 21.9495447,19.6327997 21.721,18.797 L21.722,18.797 Z M23.785,20.263 C24.174,19.809 24.459,19.316 24.641,18.797 L22.877,18.797 C23.0714826,19.3449119 23.3810976,19.844797 23.785,20.263 Z M25.069,11.479 L25.069,15.501 L23.746,15.501 L23.746,12.491 L17.856,12.491 L17.856,15.541 L16.545,15.541 L16.545,11.479 L25.069,11.479 Z M18.271,13.088 L23.344,13.088 L23.344,13.983 L18.271,13.983 L18.271,13.088 Z M18.245,14.502 L23.37,14.502 L23.37,15.385 L18.245,15.385 L18.245,14.502 Z M34.178,11.012 C34.281,11.323 34.398,11.674 34.502,12.05 L39.51,12.05 L39.51,13.296 L27.95,13.296 L27.95,12.05 L33.023,12.05 C32.917376,11.7837663 32.7961662,11.5239833 32.66,11.272 L34.178,11.012 Z M37.395,23.066 L36.331,23.066 L36.007,21.872 L37.007,21.911 C37.46,21.911 37.694,21.755 37.694,21.444 L37.694,18.264 L29.779,18.264 L29.779,23.104 L28.495,23.104 L28.495,17.097 L38.978,17.097 L38.978,21.717 C38.978,22.611 38.446,23.066 37.395,23.066 Z M29.948,13.828 L37.538,13.828 L37.538,16.578 L29.948,16.578 L29.948,13.828 Z M36.241,15.566 L36.241,14.84 L31.245,14.84 L31.245,15.566 L36.241,15.566 Z M31.077,18.784 L36.422,18.784 L36.422,21.586 L31.077,21.586 L31.077,18.784 Z M35.229,20.587 L35.229,19.783 L32.27,19.783 L32.27,20.587 L35.229,20.587 Z M48.009,11.025 L49.359,11.207 L49.28,12.193 L52.316,12.193 L52.316,13.413 L49.138,13.413 L49.021,14.191 L51.525,14.191 L51.525,21.521 L52.693,21.521 L52.693,22.767 L44.09,22.767 L44.09,21.522 L45.362,21.522 L45.362,14.191 L47.672,14.191 L47.788,13.412 L44.648,13.412 L44.648,12.192 L47.918,12.192 C47.944,11.791 47.983,11.402 48.008,11.025 L48.009,11.025 Z M46.645,21.522 L50.239,21.522 L50.239,20.769 L46.645,20.769 L46.645,21.522 Z M46.645,19.705 L50.239,19.705 L50.239,18.979 L46.645,18.979 L46.645,19.705 Z M46.645,17.915 L50.239,17.915 L50.239,17.188 L46.645,17.188 L46.645,17.915 Z M46.645,16.125 L50.239,16.125 L50.239,15.41 L46.645,15.41 L46.645,16.124 L46.645,16.125 Z M42.338,16.176 C41.974,16.669 41.598,17.162 41.183,17.629 L40.742,16.176 C41.91,14.723 42.779,13.01 43.337,11.038 L44.557,11.608 C44.3148273,12.4029562 44.0153768,13.1793219 43.661,13.931 L43.661,23.131 L42.338,23.131 L42.338,16.176 Z M53.846,17.785 L60.399,17.785 L60.399,19.005 L53.846,19.005 L53.846,17.785 Z M62.125,20.651 L61.736,19.509 C61.956,19.419 62.073,19.276 62.073,19.094 L62.073,12.244 L63.397,12.244 L63.397,19.029 C63.89,18.874 64.383,18.705 64.863,18.523 L64.863,11.153 L66.199,11.153 L66.199,21.767 C67.393,21.183 68.366,20.431 69.119,19.509 C68.5161725,18.5763818 68.0279833,17.574486 67.665,16.525 L68.768,15.903 C69.08,16.759 69.456,17.55 69.923,18.29 C70.546,17.148 70.896,15.799 70.987,14.255 L68.781,14.255 C68.341,15.345 67.795,16.265 67.147,17.018 L66.303,15.98 C67.263,14.76 67.899,13.113 68.236,11.063 L69.599,11.296 C69.495,11.867 69.365,12.412 69.235,12.918 L73.258,12.918 L73.258,14.255 L72.272,14.255 C72.155,16.292 71.649,18.03 70.766,19.484 C71.532,20.457 72.466,21.326 73.556,22.091 L72.622,23.194 C71.6135585,22.4647444 70.7060195,21.6052892 69.923,20.638 C69.093,21.611 68.055,22.428 66.823,23.091 L66.199,22.079 L66.199,23.013 L64.863,23.013 L64.863,19.821 C63.981,20.132 63.073,20.405 62.125,20.651 Z M80.627,14.436 L80.627,15.526 L80.173,15.566 L80.173,17.408 C80.173,18.056 79.797,18.394 79.044,18.394 L78.422,18.394 L78.123,17.343 C78.331,17.369 78.513,17.382 78.681,17.382 C78.863,17.382 78.967,17.252 78.967,16.992 L78.967,15.671 C78.499,15.697 78.045,15.736 77.604,15.761 C78.071,16.203 78.434,16.592 78.681,16.93 L77.967,17.423 C77.6310752,16.9849725 77.2627044,16.5728116 76.865,16.19 L77.539,15.762 L76.722,15.801 C76.579,16.904 76.242,17.825 75.722,18.577 L74.737,17.695 C75.126,17.176 75.373,16.566 75.502,15.865 L74.724,15.905 L74.555,14.763 L75.593,14.723 L75.593,11.921 L76.955,11.921 C77.072,11.61 77.163,11.311 77.241,11 L78.603,11.182 C78.525,11.442 78.435,11.688 78.318,11.922 L80.173,11.922 L80.173,14.477 C80.329,14.451 80.472,14.438 80.627,14.438 L80.627,14.436 Z M78.967,14.553 L78.967,12.957 L76.787,12.957 L76.787,14.67 L77.967,14.618 C77.6717129,14.2421628 77.3463037,13.8910018 76.994,13.568 L77.721,13.1 C78.149,13.515 78.473,13.878 78.707,14.19 L78.123,14.605 L78.967,14.553 Z M81.367,11.413 L85.039,11.413 L85.039,12.879 C85.039,13.022 85.129,13.1 85.311,13.1 L86.271,13.1 L86.271,14.177 L84.975,14.177 C84.196,14.177 83.82,13.827 83.82,13.126 L83.82,12.451 L82.535,12.451 C82.5034198,12.7819554 82.4200715,13.1059002 82.288,13.411 C82.132,13.723 81.808,14.073 81.341,14.449 L80.394,13.593 C80.692,13.373 80.939,13.139 81.12,12.893 C81.276,12.62 81.367,12.127 81.367,11.413 Z M85.117,18.744 L85.117,21.572 L86.427,21.572 L86.427,22.779 L74.594,22.779 L74.594,21.572 L75.904,21.572 L75.904,18.744 L85.117,18.744 Z M77.215,21.573 L78.512,21.573 L78.512,19.965 L77.215,19.965 L77.215,21.573 Z M79.823,21.573 L81.146,21.573 L81.146,19.965 L79.823,19.965 L79.823,21.573 Z M82.457,21.573 L83.807,21.573 L83.807,19.965 L82.457,19.965 L82.457,21.573 Z M85.804,14.606 L85.804,15.449 C85.5299382,16.0264014 85.1313944,16.5359365 84.637,16.941 C85.233,17.227 85.778,17.538 86.271,17.85 L85.48,18.797 C84.8783185,18.3722109 84.2500308,17.9864202 83.599,17.642 C82.872,18.032 82.003,18.342 80.991,18.576 L80.433,17.486 C81.146,17.356 81.769,17.188 82.301,16.993 C81.8441383,16.7810778 81.3812806,16.5823291 80.913,16.397 L81.51,15.696 L80.9,15.696 L80.9,14.606 L85.804,14.606 Z M81.73,15.696 C82.3310364,15.9126032 82.9240866,16.1507572 83.508,16.41 C83.845,16.189 84.13,15.955 84.338,15.696 L81.73,15.696 Z M94.783,11.025 L96.133,11.207 L96.054,12.193 L99.09,12.193 L99.09,13.413 L95.912,13.413 L95.795,14.191 L98.299,14.191 L98.299,21.521 L99.467,21.521 L99.467,22.767 L90.864,22.767 L90.864,21.522 L92.136,21.522 L92.136,14.191 L94.446,14.191 L94.562,13.412 L91.422,13.412 L91.422,12.192 L94.692,12.192 C94.718,11.791 94.757,11.402 94.782,11.025 L94.783,11.025 Z M93.42,21.522 L97.015,21.522 L97.015,20.769 L93.421,20.769 L93.421,21.522 L93.42,21.522 Z M93.42,19.705 L97.015,19.705 L97.015,18.979 L93.421,18.979 L93.421,19.705 L93.42,19.705 Z M93.42,17.915 L97.015,17.915 L97.015,17.188 L93.421,17.188 L93.421,17.915 L93.42,17.915 Z M93.42,16.125 L97.015,16.125 L97.015,15.41 L93.421,15.41 L93.421,16.124 L93.42,16.125 Z M89.113,16.176 C88.75,16.669 88.373,17.162 87.958,17.629 L87.517,16.176 C88.685,14.723 89.554,13.01 90.112,11.038 L91.332,11.608 C91.0898273,12.4029562 90.7903768,13.1793219 90.436,13.931 L90.436,23.131 L89.113,23.131 L89.113,16.176 Z" id="Shape" fill="#020202" fill-rule="nonzero"></path>
            <path d="M245.099,178.225 L244.751,177.231 C244.95,177.156 245.049,177.031 245.049,176.858 L245.049,170.245 L246.205,170.245 L246.205,176.82 C246.715,176.659 247.225,176.485 247.734,176.286 L247.734,169.201 L248.902,169.201 L248.902,179.481 C250.108,178.884 251.09,178.125 251.836,177.193 C251.236366,176.275596 250.755844,175.285653 250.406,174.247 L251.363,173.7 C251.674,174.57 252.072,175.39 252.544,176.137 C253.166,174.981 253.526,173.626 253.614,172.085 L251.388,172.085 C250.966,173.154 250.431,174.061 249.798,174.782 L249.064,173.887 C250.009,172.694 250.643,171.103 250.966,169.101 L252.146,169.301 C252.040611,169.847752 251.916539,170.390737 251.774,170.929 L255.714,170.929 L255.714,172.085 L254.744,172.085 C254.644,174.061 254.148,175.751 253.265,177.168 C254.041505,178.154274 254.95862,179.021187 255.987,179.741 L255.179,180.686 C254.195866,179.966746 253.310148,179.123045 252.544,178.176 C251.749,179.132 250.742,179.94 249.524,180.586 L248.902,179.58 L248.902,180.524 L247.734,180.524 L247.734,177.417 C246.889,177.715 246.019,177.989 245.099,178.225 Z M262.774,172.358 L262.774,173.328 L262.302,173.365 L262.302,175.205 C262.302,175.801 261.954,176.099 261.27,176.099 L260.673,176.099 L260.413,175.179 C260.611,175.204 260.785,175.217 260.959,175.217 C261.146,175.217 261.245,175.08 261.245,174.832 L261.245,173.452 C260.525,173.502 259.766,173.552 258.995,173.601 C258.859,174.658 258.535,175.552 258.013,176.273 L257.156,175.503 C257.553,174.981 257.802,174.359 257.926,173.651 L257.143,173.688 L256.994,172.681 L258.014,172.644 L258.014,169.947 L259.306,169.947 C259.43,169.648 259.53,169.337 259.604,169.027 L260.785,169.188 C260.713902,169.451196 260.613963,169.705738 260.487,169.947 L262.302,169.947 L262.302,172.395 L262.774,172.358 Z M261.245,172.47 L261.245,170.866 L259.057,170.866 L259.057,172.594 L260.3,172.52 C260.002259,172.145009 259.6781,171.791776 259.33,171.463 L259.965,171.053 C260.387,171.451 260.698,171.811 260.922,172.122 L260.35,172.52 L261.245,172.47 Z M263.545,169.462 L266.963,169.462 L266.963,170.879 C266.963,171.029 267.05,171.115 267.236,171.115 L268.181,171.115 L268.181,172.06 L266.951,172.06 C266.241,172.06 265.894,171.737 265.894,171.09 L265.894,170.382 L264.564,170.382 C264.536962,170.704981 264.452647,171.02057 264.315,171.314 C264.154,171.624 263.855,171.96 263.408,172.308 L262.588,171.563 C262.886,171.339 263.122,171.115 263.296,170.866 C263.458,170.606 263.545,170.133 263.545,169.462 Z M267.05,176.485 L267.05,179.232 L268.33,179.232 L268.33,180.288 L257.019,180.288 L257.019,179.232 L258.299,179.232 L258.299,176.485 L267.049,176.485 L267.05,176.485 Z M259.443,179.232 L260.81,179.232 L260.81,177.554 L259.443,177.554 L259.443,179.232 Z M261.953,179.232 L263.346,179.232 L263.346,177.554 L261.954,177.554 L261.954,179.232 L261.953,179.232 Z M264.489,179.232 L265.906,179.232 L265.906,177.554 L264.489,177.554 L264.489,179.232 Z M267.696,172.507 L267.696,173.253 C267.420836,173.823261 267.026651,174.327928 266.54,174.733 C267.112,175.018 267.646,175.316 268.144,175.639 L267.46,176.459 C266.884088,176.041052 266.277354,175.667317 265.645,175.341 C264.937,175.714 264.092,176.025 263.11,176.249 L262.612,175.304 C263.262286,175.177261 263.902351,175.002789 264.527,174.782 C264.053045,174.555718 263.572145,174.344282 263.085,174.148 L263.656,173.477 C264.34,173.725 264.974,173.987 265.571,174.26 C265.931,174.011 266.217,173.75 266.441,173.464 L263.072,173.464 L263.072,172.507 L267.696,172.507 Z M259.828,173.577 C260.3,174.011 260.661,174.397 260.91,174.732 L260.276,175.167 C260.002,174.807 259.642,174.409 259.206,173.974 L259.828,173.576 L259.828,173.577 Z M276.409,169.077 L277.578,169.238 C277.553,169.574 277.516,169.897 277.491,170.22 L280.461,170.22 L280.461,171.29 L277.366,171.29 C277.316,171.587 277.279,171.86 277.242,172.134 L279.691,172.134 L279.691,179.194 L280.822,179.194 L280.822,180.264 L272.606,180.264 L272.606,179.194 L273.836,179.194 L273.836,172.134 L276.086,172.134 C276.136,171.848 276.173,171.563 276.198,171.289 L273.14,171.289 L273.14,170.22 L276.322,170.22 C276.347,169.835 276.385,169.45 276.409,169.077 Z M274.968,179.194 L278.56,179.194 L278.56,178.362 L274.968,178.362 L274.968,179.194 Z M274.968,177.429 L278.56,177.429 L278.56,176.634 L274.968,176.634 L274.968,177.429 Z M274.968,175.689 L278.56,175.689 L278.56,174.906 L274.968,174.906 L274.968,175.689 Z M274.968,173.974 L278.56,173.974 L278.56,173.191 L274.968,173.191 L274.968,173.974 Z M270.978,173.8 C270.605,174.322 270.207,174.832 269.784,175.316 L269.399,174.061 C270.555,172.644 271.4,170.978 271.935,169.089 L273.004,169.586 C272.771362,170.366858 272.47607,171.127662 272.121,171.861 L272.121,180.624 L270.978,180.624 L270.978,173.8 Z M109.51,45.746 L119.236,45.746 L119.236,46.623 L114.384,46.623 L114.384,51.693 L113.366,51.693 L113.366,50.773 C112.489,50.916 111.252,51.047 109.653,51.157 L109.521,50.281 L110.452,50.237 L110.452,46.623 L109.51,46.623 L109.51,45.746 Z M111.438,50.171 C112.172,50.105 112.818,50.04 113.366,49.952 L113.366,49.404 L111.438,49.404 L111.438,50.171 Z M111.438,48.66 L113.366,48.66 L113.366,47.992 L111.438,47.992 L111.438,48.66 Z M111.438,47.247 L113.366,47.247 L113.366,46.623 L111.438,46.623 L111.438,47.247 Z M115.184,48.003 L114.822,48.003 L114.822,47.137 L118.644,47.137 L118.644,47.947 C118.460037,48.6901147 118.112215,49.3826825 117.626,49.974 C118.086,50.303 118.633,50.598 119.269,50.861 L118.743,51.726 C118.043,51.398 117.451,51.026 116.958,50.631 C116.378421,51.0825896 115.736404,51.4477243 115.052,51.715 L114.515,50.905 C115.195,50.642 115.775,50.325 116.257,49.952 C115.754724,49.3927454 115.387619,48.7255924 115.184,48.002 L115.184,48.003 Z M116.903,49.339 C117.245566,48.9457205 117.513001,48.4928775 117.692,48.003 L116.071,48.003 C116.246,48.495 116.52,48.944 116.903,49.339 Z M117.954,41.902 L117.954,45.265 L116.936,45.265 L116.936,42.691 L111.854,42.691 L111.854,45.297 L110.847,45.297 L110.847,41.902 L117.954,41.902 Z M112.237,43.249 L116.574,43.249 L116.574,43.961 L112.237,43.961 L112.237,43.249 Z M112.216,44.443 L116.596,44.443 L116.596,45.144 L112.216,45.144 L112.216,44.444 L112.216,44.443 Z M125.621,41.497 C125.719,41.771 125.818,42.067 125.917,42.395 L130.177,42.395 L130.177,43.359 L120.441,43.359 L120.441,42.395 L124.789,42.395 C124.694715,42.1547421 124.584814,41.9209095 124.46,41.695 L125.62,41.497 L125.621,41.497 Z M128.403,51.639 L127.493,51.639 L127.253,50.708 L128.096,50.752 C128.501,50.752 128.709,50.598 128.709,50.313 L128.709,47.543 L121.919,47.543 L121.919,51.672 L120.933,51.672 L120.933,46.645 L129.695,46.645 L129.695,50.533 C129.695,51.266 129.257,51.639 128.403,51.639 Z M122.16,43.874 L128.48,43.874 L128.48,46.151 L122.16,46.151 L122.16,43.873 L122.16,43.874 Z M127.483,45.364 L127.483,44.662 L123.157,44.662 L123.157,45.363 L127.483,45.363 L127.483,45.364 Z M123.091,48.068 L127.548,48.068 L127.548,50.368 L123.091,50.368 L123.091,48.068 Z M126.629,49.602 L126.629,48.835 L124.022,48.835 L124.022,49.602 L126.629,49.602 Z M137.416,41.508 L138.446,41.65 C138.424,41.946 138.391,42.23 138.369,42.516 L140.987,42.516 L140.987,43.457 L138.26,43.457 C138.216,43.72 138.183,43.961 138.15,44.202 L140.308,44.202 L140.308,50.423 L141.304,50.423 L141.304,51.365 L134.065,51.365 L134.065,50.423 L135.149,50.423 L135.149,44.203 L137.132,44.203 C137.175,43.95 137.208,43.698 137.23,43.457 L134.536,43.457 L134.536,42.516 L137.34,42.516 C137.362,42.176 137.394,41.836 137.416,41.508 Z M136.146,50.423 L139.311,50.423 L139.311,49.689 L136.146,49.689 L136.146,50.423 Z M136.146,48.868 L139.311,48.868 L139.311,48.167 L136.146,48.167 L136.146,48.867 L136.146,48.868 Z M136.146,47.335 L139.311,47.335 L139.311,46.645 L136.146,46.645 L136.146,47.335 Z M136.146,45.823 L139.311,45.823 L139.311,45.133 L136.146,45.133 L136.146,45.823 Z M132.63,45.67 C132.302,46.13 131.951,46.579 131.579,47.006 L131.239,45.9 C132.258,44.651 133.003,43.184 133.474,41.519 L134.415,41.957 C134.207,42.658 133.945,43.326 133.638,43.961 L133.638,51.683 L132.63,51.683 L132.63,45.67 Z" id="Shape" fill="#2A3052" fill-rule="nonzero"></path>
            <g id="Group" transform="translate(10.000000, 123.886000)" fill="#2A3052" fill-rule="nonzero">
                <path d="M1.538,13.363 L0.508,13.363 L0.508,1.372 L5.554,1.372 L5.554,5.664 L1.538,5.664 L1.538,13.363 Z M1.55,2.167 L1.55,3.155 L4.64,3.155 L4.64,2.167 L1.55,2.167 Z M4.615,3.927 L1.551,3.927 L1.551,4.891 L4.615,4.891 L4.615,3.927 Z M6.756,5.61 L6.756,1.396 L11.838,1.396 C11.876,7.229 11.876,10.566 11.838,11.41 C11.78,12.674 12.077,13.593 9.138,13.275 C9.085,13.036 9.008,12.755 8.908,12.431 C9.621,12.26 10.879,13.02 10.879,11.569 L10.879,5.609 L6.756,5.609 L6.756,5.61 Z M7.73,3.922 L7.73,4.829 L10.855,4.829 L10.855,3.922 L7.73,3.922 Z M7.722,2.182 L7.722,3.152 L10.827,3.152 L10.827,2.182 L7.722,2.182 Z" id="Shape"></path>
                <path d="M9.442,6.675 L9.442,7.509 L8.089,7.509 L8.089,9.089 L9.866,9.089 L9.866,9.955 L8.089,9.955 L8.089,13.103 L7.213,13.103 L7.213,9.955 C6.27,9.959 5.553,9.959 5.058,9.955 C4.938,10.517 4.938,12.375 2.938,13.296 C2.703,12.946 2.538,12.687 2.443,12.518 C3.12,12.16 3.971,11.713 4.189,9.985 L2.434,9.958 L2.443,9.089 L4.252,9.089 L4.252,7.509 L2.797,7.509 L2.797,6.675 L9.442,6.675 Z M7.215,7.515 L5.15,7.515 L5.15,9.091 L7.215,9.091 L7.215,7.515 Z M15.264,0.937 L16.254,1.048 L15.846,3.596 C15.977,3.606 16.656,3.606 17.881,3.596 C17.915,5.466 17.529,8.256 16.743,9.86 C17.588,10.769 18.12,11.386 18.338,11.712 L17.678,12.447 L16.324,10.829 C15.534,12.125 14.846,13.028 14.261,13.538 C14.164,13.398 13.963,13.142 13.66,12.773 C14.424,11.955 15.18,11.12 15.63,10.138 L13.884,8.398 L14.762,4.523 L13.66,4.523 L13.66,3.596 L14.895,3.596 L15.265,0.937 L15.264,0.937 Z M16.984,4.529 L15.734,4.529 C15.5049532,5.72081964 15.2368085,6.90479173 14.93,8.079 C15.394,8.531 15.767,8.897 16.047,9.178 C16.526,8.158 16.983,5.255 16.983,4.529 L16.984,4.529 Z M21.325,0.955 L22.237,1.267 C21.189,3.44 20.377,4.85 19.797,5.497 C22.437,5.267 23.891,5.107 24.157,5.017 C23.511,3.789 23.136,3.102 23.031,2.955 L23.882,2.542 C24.801,4.122 25.501,5.43 25.982,6.465 L25.057,6.931 L24.575,5.868 C21.238,6.253 19.218,6.452 18.516,6.465 C18.4702845,6.16173963 18.4189423,5.85935418 18.362,5.558 C19.153,5.124 20.141,3.589 21.325,0.955 Z M24.285,13.538 L24.285,12.698 L20.093,12.698 L20.093,13.538 L19.13,13.538 L19.13,7.713 L25.214,7.713 L25.214,13.538 L24.284,13.538 L24.285,13.538 Z M24.278,8.61 L20.117,8.61 L20.117,11.747 L24.277,11.747 L24.277,8.61 L24.278,8.61 Z" id="Shape"></path>
            </g>
        </g>
    </g>
</svg>