<svg width="300" height="199" viewBox="0 0 300 199" xmlns="http://www.w3.org/2000/svg"><title>traditional chinese high close</title><g fill="none" fill-rule="evenodd"><path fill="#F1F2F2" d="M0 0h300v199H0z"/><path d="M39.125 55.375V74.75H75.25V55.375H39.125zm0-1H75.25V34h1v20.375h36.125V34h1v20.375H149.5V34h1v20.375h36.125V34h1v20.375h36.125V34h1v20.375h36.125V34h1v20.375H299.5v1h-37.625V74.75H299.5v1h-37.625v19.375H299.5v1h-37.625V115.5H299.5v1h-37.625v19.375H299.5v1h-37.625v19.375H299.5v1h-37.625v19.375H299.5v1h-37.625V199h-1v-21.375H224.75V199h-1v-21.375h-36.125V199h-1v-21.375H150.5V199h-1v-21.375h-36.125V199h-1v-21.375H76.25V199h-1v-21.375H39.125V199h-1v-21.375H1.5v-1h36.625V157.25H1.5v-1h36.625v-19.375H1.5v-1h36.625V116.5H1.5v-1h36.625V96.125H1.5v-1h36.625V75.75H1.5v-1h36.625V55.375H1.5v-1h36.625V34h1v20.375zm221.75 1H224.75V74.75h36.125V55.375zm-37.125 0h-36.125V74.75h36.125V55.375zm-37.125 0H150.5V74.75h36.125V55.375zm-37.125 0h-36.125V74.75H149.5V55.375zm-37.125 0H76.25V74.75h36.125V55.375zM39.125 75.75v19.375H75.25V75.75H39.125zm221.75 0H224.75v19.375h36.125V75.75zm-37.125 0h-36.125v19.375h36.125V75.75zm-37.125 0H150.5v19.375h36.125V75.75zm-37.125 0h-36.125v19.375H149.5V75.75zm-37.125 0H76.25v19.375h36.125V75.75zm-73.25 20.375V115.5H75.25V96.125H39.125zm221.75 0H224.75V115.5h36.125V96.125zm-37.125 0h-36.125V115.5h36.125V96.125zm-37.125 0H150.5V115.5h36.125V96.125zm-37.125 0h-36.125V115.5H149.5V96.125zm-37.125 0H76.25V115.5h36.125V96.125zM39.125 116.5v19.375H75.25V116.5H39.125zm221.75 0H224.75v19.375h36.125V116.5zm-37.125 0h-36.125v19.375h36.125V116.5zm-37.125 0H150.5v19.375h36.125V116.5zm-37.125 0h-36.125v19.375H149.5V116.5zm-37.125 0H76.25v19.375h36.125V116.5zm-73.25 20.375v19.375H75.25v-19.375H39.125zm221.75 0H224.75v19.375h36.125v-19.375zm-37.125 0h-36.125v19.375h36.125v-19.375zm-37.125 0H150.5v19.375h36.125v-19.375zm-37.125 0h-36.125v19.375H149.5v-19.375zm-37.125 0H76.25v19.375h36.125v-19.375zm-73.25 20.375v19.375H75.25V157.25H39.125zm221.75 0H224.75v19.375h36.125V157.25zm-37.125 0h-36.125v19.375h36.125V157.25zm-37.125 0H150.5v19.375h36.125V157.25zm-37.125 0h-36.125v19.375H149.5V157.25zm-37.125 0H76.25v19.375h36.125V157.25z" fill="#DFDEDE"/><path stroke="#C2C2C2" stroke-width="2" d="M1 1h298v197H1z"/><path fill="#C2C2C2" d="M0 33h300v2H0z"/><g transform="translate(4 33.87)"><path d="M.9 30.163h290.625" stroke="#15212D" stroke-width="1.133" fill="#D8D8D8" fill-rule="nonzero" stroke-dasharray="7.5"/><path d="M237.863.725V161" stroke="#2A3052" stroke-width="1.211" stroke-linejoin="round"/><path d="M.9 122.75h290.625" stroke="#15212D" stroke-width="1.133" fill="#D8D8D8" fill-rule="nonzero" stroke-dasharray="7.5"/><path stroke="#2A3052" stroke-width="3.633" stroke-linecap="round" stroke-linejoin="round" d="M17.25 82.063L53.115 66l26.494 21.96 43.594-57.247 31.74 113.025 18.105-68.974 27.446-22.991 37.5 71.542"/><ellipse cx="8.137" cy="10.35" rx="8.137" ry="8.475" opacity=".6" transform="translate(229.5 112.25)" fill="#FFF" fill-rule="nonzero"/><ellipse stroke="#E88024" stroke-width="2.422" cx="237.637" cy="122.6" rx="8.137" ry="8.475"/><ellipse cx="10.012" cy="8.475" rx="8.137" ry="8.475" opacity=".6" transform="translate(113.25 22.25)" fill="#FFF" fill-rule="nonzero"/><ellipse stroke="#E88024" stroke-width="2.422" cx="123.263" cy="30.725" rx="8.137" ry="8.475"/></g><g fill="#2A3052"><path d="M11.212 137.846h-1.03v-11.99h5.046v4.29h-4.016v7.7zm.012-11.196v.989h3.09v-.989h-3.09zm3.065 1.76h-3.064v.964h3.064v-.964zM16.43 130.092v-4.213h5.082c.038 5.833.038 9.171 0 10.014-.058 1.265.239 2.183-2.7 1.865-.053-.239-.13-.52-.23-.844.713-.171 1.971.59 1.971-.862v-5.96H16.43zm.974-1.687v.908h3.125v-.908h-3.125zm-.008-1.74v.97H20.5v-.97h-3.105z"/><path d="M19.115 131.158v.835h-1.352v1.58h1.777v.866h-1.777v3.148h-.876v-3.148c-.943.003-1.661.003-2.155 0-.12.561-.12 2.419-2.12 3.34-.235-.35-.4-.609-.496-.778.678-.358 1.53-.804 1.747-2.532l-1.755-.028.008-.869h1.81v-1.58H12.47v-.834h6.644zm-2.226.84h-2.065v1.577h2.065v-1.576zM24.938 125.42l.99.112-.408 2.547c.131.01.81.01 2.035 0 .034 1.87-.352 4.66-1.138 6.265.845.908 1.377 1.525 1.595 1.85l-.66.736-1.354-1.618c-.79 1.296-1.478 2.199-2.063 2.71-.097-.141-.298-.396-.601-.766.764-.817 1.52-1.653 1.97-2.634l-1.746-1.74.878-3.876h-1.102v-.927h1.235l.37-2.659zm1.72 3.592h-1.25a55.405 55.405 0 0 1-.805 3.55c.465.452.838.818 1.118 1.1.479-1.021.936-3.924.936-4.65zM30.999 125.438l.912.312c-1.048 2.173-1.86 3.583-2.44 4.23 2.64-.23 4.094-.39 4.36-.48-.646-1.227-1.021-1.914-1.126-2.061l.851-.414c.919 1.581 1.619 2.889 2.1 3.923l-.925.466-.482-1.063c-3.337.385-5.357.584-6.059.597a24.777 24.777 0 0 0-.154-.906c.791-.435 1.778-1.97 2.963-4.604zM33.959 138.021v-.84h-4.192v.84h-.963v-5.825h6.084v5.825h-.93zm-.007-4.928H29.79v3.138h4.16v-3.138z"/></g><path d="M16.686 15.77h11.547v1.141h-5.708v5.968H21.2v-1.05c-1.012.155-2.452.298-4.333.44l-.17-1.141 1.065-.052v-4.165h-1.077V15.77zm2.361 5.215a47.527 47.527 0 0 0 2.154-.22v-.571h-2.154v.791zm0-1.751h2.154v-.714h-2.154v.714zm0-1.674h2.154v-.649h-2.154v.649zm4.36.986h-.428V17.43h4.567v1.051a5.787 5.787 0 0 1-1.142 2.335c.532.364 1.155.701 1.881.987l-.687 1.128c-.805-.389-1.492-.804-2.063-1.258-.623.493-1.376.908-2.232 1.245l-.688-1.05c.779-.299 1.454-.65 2.011-1.065a5.66 5.66 0 0 1-1.22-2.257zm2.063 1.466c.389-.454.674-.947.856-1.466h-1.764a4.07 4.07 0 0 0 .908 1.466zm1.284-8.784v4.022h-1.323v-3.01h-5.89v3.05H18.23v-4.062h8.524zm-6.798 1.609h5.073v.895h-5.073v-.895zm-.026 1.414h5.125v.883H19.93v-.883zm15.933-3.49c.103.311.22.662.324 1.038h5.008v1.246h-11.56v-1.246h5.073a7.296 7.296 0 0 0-.363-.778l1.518-.26zm3.217 12.054h-1.064l-.324-1.194 1 .039c.453 0 .687-.156.687-.467v-3.18h-7.915v4.84H30.18v-6.007h10.483v4.62c0 .894-.532 1.349-1.583 1.349zm-7.447-9.238h7.59v2.75h-7.59v-2.75zm6.293 1.738v-.726H32.93v.726h4.996zm-5.164 3.218h5.345v2.802h-5.345v-2.802zm4.152 1.803v-.804h-2.959v.804h2.959zm12.78-9.562l1.35.182-.079.986h3.036v1.22h-3.178l-.117.778h2.504v7.33h1.168v1.246h-8.603v-1.245h1.272V13.94h2.31l.116-.779h-3.14v-1.22h3.27c.026-.401.065-.79.09-1.167zM48.33 21.271h3.594v-.753h-3.594v.753zm0-1.817h3.594v-.726h-3.594v.726zm0-1.79h3.594v-.727h-3.594v.727zm0-1.79h3.594v-.715h-3.594v.714zm-4.307.051c-.364.493-.74.986-1.155 1.453l-.441-1.453c1.168-1.453 2.037-3.166 2.595-5.138l1.22.57a17.205 17.205 0 0 1-.896 2.323v9.2h-1.323v-6.955zm11.508 1.609h6.553v1.22h-6.553v-1.22zM63.81 20.4l-.389-1.142c.22-.09.337-.233.337-.415v-6.85h1.324v6.785c.493-.155.986-.324 1.466-.506v-7.37h1.336v10.614c1.194-.584 2.167-1.336 2.92-2.258a13.816 13.816 0 0 1-1.454-2.984l1.103-.622c.312.856.688 1.647 1.155 2.387.623-1.142.973-2.491 1.064-4.035h-2.206c-.44 1.09-.986 2.01-1.634 2.763l-.844-1.038c.96-1.22 1.596-2.867 1.933-4.917l1.363.233c-.104.571-.234 1.116-.364 1.622h4.023v1.337h-.986c-.117 2.037-.623 3.775-1.506 5.229.766.973 1.7 1.842 2.79 2.607l-.934 1.103a14.111 14.111 0 0 1-2.699-2.556c-.83.973-1.868 1.79-3.1 2.453l-.624-1.012v.934h-1.336V19.57c-.882.311-1.79.584-2.738.83zm18.502-6.215v1.09l-.454.04v1.842c0 .648-.376.986-1.129.986h-.622l-.299-1.051c.208.026.39.039.558.039.182 0 .286-.13.286-.39V15.42c-.468.026-.922.065-1.363.09.467.442.83.831 1.077 1.169l-.714.493a11.017 11.017 0 0 0-1.102-1.233l.674-.428-.817.039c-.143 1.103-.48 2.024-1 2.776l-.985-.882c.389-.519.636-1.129.765-1.83l-.778.04-.169-1.142 1.038-.04V11.67h1.362c.117-.311.208-.61.286-.921l1.362.182c-.078.26-.168.506-.285.74h1.855v2.555c.156-.026.299-.039.454-.039zm-1.66.117v-1.596h-2.18v1.713l1.18-.052a8.802 8.802 0 0 0-.973-1.05l.727-.468c.428.415.752.778.986 1.09l-.584.415.844-.052zm2.4-3.14h3.672v1.466c0 .143.09.221.272.221h.96v1.077H86.66c-.779 0-1.155-.35-1.155-1.051V12.2H84.22a3.176 3.176 0 0 1-.247.96c-.156.312-.48.662-.947 1.038l-.947-.856c.298-.22.545-.454.726-.7.156-.273.247-.766.247-1.48zm3.75 7.331v2.828h1.31v1.207H76.279v-1.207h1.31v-2.828h9.213zM78.9 21.322h1.297v-1.608H78.9v1.608zm2.608 0h1.323v-1.608h-1.323v1.608zm2.634 0h1.35v-1.608h-1.35v1.608zm3.347-6.967v.843a4.328 4.328 0 0 1-1.167 1.492c.596.286 1.141.597 1.634.909l-.791.947a17.238 17.238 0 0 0-1.881-1.155c-.727.39-1.596.7-2.608.934l-.558-1.09c.713-.13 1.336-.298 1.868-.493a26.286 26.286 0 0 0-1.388-.596l.597-.701h-.61v-1.09h4.904zm-4.074 1.09a26.64 26.64 0 0 1 1.778.714c.337-.221.622-.455.83-.714h-2.608zm13.053-4.671l1.35.182-.079.986h3.036v1.22h-3.178l-.117.778h2.504v7.33h1.168v1.246h-8.603v-1.245h1.272V13.94h2.31l.116-.779h-3.14v-1.22h3.27c.026-.401.065-.79.09-1.167zm-1.363 10.497H98.7v-.753h-3.594v.753zm0-1.817H98.7v-.726h-3.594v.726zm0-1.79H98.7v-.727h-3.594v.727zm0-1.79H98.7v-.715h-3.594v.714zm-4.307.051c-.363.493-.74.986-1.155 1.453l-.441-1.453c1.168-1.453 2.037-3.166 2.595-5.138l1.22.57a17.205 17.205 0 0 1-.896 2.323v9.2h-1.323v-6.955z" fill="#020202"/><path d="M247.784 177.974l-.348-.994c.199-.075.298-.2.298-.373v-6.613h1.156v6.575c.51-.161 1.02-.335 1.529-.534v-7.085h1.168v10.28c1.206-.597 2.188-1.356 2.934-2.288a12.926 12.926 0 0 1-1.43-2.946l.957-.547c.311.87.709 1.69 1.181 2.437.622-1.156.982-2.511 1.07-4.052h-2.226c-.422 1.069-.957 1.976-1.59 2.697l-.734-.895c.945-1.193 1.579-2.784 1.902-4.786l1.18.2a24.401 24.401 0 0 1-.372 1.628h3.94v1.156h-.97c-.1 1.976-.596 3.666-1.479 5.083a12.823 12.823 0 0 0 2.722 2.573l-.808.945a14.091 14.091 0 0 1-2.635-2.51c-.795.956-1.802 1.764-3.02 2.41l-.622-1.006v.944h-1.168v-3.107c-.845.298-1.715.572-2.635.808zm17.675-5.867v.97l-.472.037v1.84c0 .596-.348.894-1.032.894h-.597l-.26-.92c.198.025.372.038.546.038.187 0 .286-.137.286-.385v-1.38c-.72.05-1.479.1-2.25.149-.136 1.057-.46 1.951-.982 2.672l-.857-.77c.397-.522.646-1.144.77-1.852l-.783.037-.149-1.007 1.02-.037v-2.697h1.292c.124-.299.224-.61.298-.92l1.181.161a3.704 3.704 0 0 1-.298.759h1.815v2.448l.472-.037zm-1.529.112v-1.604h-2.188v1.728l1.243-.074a10.05 10.05 0 0 0-.97-1.057l.635-.41c.422.398.733.758.957 1.069l-.572.398.895-.05zm2.3-3.008h3.418v1.417c0 .15.087.236.273.236h.945v.945h-1.23c-.71 0-1.057-.323-1.057-.97v-.708h-1.33a2.731 2.731 0 0 1-.249.932c-.161.31-.46.646-.907.994l-.82-.745c.298-.224.534-.448.708-.697.162-.26.249-.733.249-1.404zm3.505 7.023v2.747h1.28v1.056h-11.311v-1.056h1.28v-2.747h8.75zm-7.607 2.747h1.367v-1.678h-1.367v1.678zm2.51 0h1.393v-1.678h-1.392v1.678zm2.536 0h1.417v-1.678h-1.417v1.678zm3.207-6.725v.746a4.431 4.431 0 0 1-1.156 1.48c.572.285 1.106.583 1.604.906l-.684.82a14.095 14.095 0 0 0-1.815-1.118c-.708.373-1.553.684-2.535.908l-.498-.945a13.49 13.49 0 0 0 1.915-.522 25.245 25.245 0 0 0-1.442-.634l.571-.671c.684.248 1.318.51 1.915.783.36-.249.646-.51.87-.796h-3.369v-.957h4.624zm-7.868 1.07c.472.434.833.82 1.082 1.155l-.634.435c-.274-.36-.634-.758-1.07-1.193l.622-.398zm16.581-4.5l1.169.161c-.025.336-.062.659-.087.982h2.97v1.07h-3.095c-.05.297-.087.57-.124.844h2.449v7.06h1.131v1.07h-8.216v-1.07h1.23v-7.06h2.25c.05-.286.087-.571.112-.845h-3.058v-1.069h3.182c.025-.385.063-.77.087-1.143zm-1.441 10.117h3.592v-.832h-3.592v.832zm0-1.765h3.592v-.795h-3.592v.795zm0-1.74h3.592v-.783h-3.592v.783zm0-1.715h3.592v-.783h-3.592v.783zm-3.99-.174c-.373.522-.771 1.032-1.194 1.516l-.385-1.255c1.156-1.417 2.001-3.083 2.536-4.972l1.069.497a15.14 15.14 0 0 1-.883 2.275v8.763h-1.143v-6.824zM112.195 45.495h9.726v.877h-4.852v5.07h-1.018v-.92c-.877.143-2.114.274-3.713.384l-.132-.876.931-.044v-3.614h-.942v-.877zm1.928 4.425c.734-.066 1.38-.131 1.928-.219v-.548h-1.928v.767zm0-1.511h1.928v-.668h-1.928v.668zm0-1.413h1.928v-.624h-1.928v.624zm3.746.756h-.362v-.866h3.822v.81a5.134 5.134 0 0 1-1.018 2.027c.46.329 1.007.624 1.643.887l-.526.865c-.7-.328-1.292-.7-1.785-1.095a7.598 7.598 0 0 1-1.906 1.084l-.537-.81c.68-.263 1.26-.58 1.742-.953a4.908 4.908 0 0 1-1.073-1.95zm1.719 1.336a4.26 4.26 0 0 0 .789-1.336h-1.621c.175.492.449.941.832 1.336zm1.051-7.437v3.363h-1.018V42.44h-5.082v2.606h-1.007v-3.395h7.107zm-5.717 1.347h4.337v.712h-4.337v-.712zm-.021 1.194h4.38v.701h-4.38v-.7zm13.405-2.946c.098.274.197.57.296.898h4.26v.964h-9.736v-.964h4.348a5.918 5.918 0 0 0-.329-.7l1.16-.198zm2.782 10.142h-.91l-.24-.931.843.044c.405 0 .613-.154.613-.439v-2.77h-6.79v4.129h-.986v-5.027h8.762v3.888c0 .733-.438 1.106-1.292 1.106zm-6.243-7.765h6.32V45.9h-6.32v-2.278zm5.323 1.49v-.702h-4.326v.701h4.326zm-4.392 2.704h4.457v2.3h-4.457v-2.3zm3.538 1.534v-.767h-2.607v.767h2.607zm10.787-8.094l1.03.142c-.022.296-.055.58-.077.866h2.618v.941h-2.727c-.044.263-.077.504-.11.745h2.158v6.221h.996v.942h-7.239v-.942h1.084v-6.22h1.983c.043-.253.076-.505.098-.746h-2.694v-.941h2.804c.022-.34.054-.68.076-1.008zm-1.27 8.915h3.165v-.734h-3.165v.734zm0-1.555h3.165v-.701h-3.165v.7zm0-1.533h3.165v-.69h-3.165v.69zm0-1.512h3.165v-.69h-3.165v.69zm-3.516-.153c-.328.46-.679.909-1.051 1.336l-.34-1.106c1.019-1.249 1.764-2.716 2.235-4.381l.941.438c-.208.701-.47 1.369-.777 2.004v7.722h-1.008v-6.013z" fill="#2A3052"/></g></svg>