<?xml version="1.0" encoding="UTF-8"?>
<svg width="299px" height="197px" viewBox="0 0 299 197" version="1.1" xmlns="http://www.w3.org/2000/svg" xmlns:xlink="http://www.w3.org/1999/xlink">
    <!-- Generator: Sketch 52.6 (67491) - http://www.bohemiancoding.com/sketch -->
    <title>high tick</title>
    <desc>Created with Sketch.</desc>
    <g id="Page-1" stroke="none" stroke-width="1" fill="none" fill-rule="evenodd">
        <g id="high-tick">
            <g id="Group">
                <polygon id="Path" fill="#F1F2F2" points="0.00101428135 0 299 0 299 197 0 197"></polygon>
                <path d="M1.98671096,1.9798995 L1.98671096,195.020101 L297.013289,195.020101 L297.013289,1.9798995 L1.98671096,1.9798995 Z M299,0 L299,197 L0,197 L0,0 L299,0 Z" id="Path" fill="#C2C2C2" fill-rule="nonzero"></path>
                <path d="M2.94050338,54.9484582 L2.94050338,53.7251846 L296.511027,53.7251846 L296.511027,54.9484582 L2.94050338,54.9484582 Z M2.94050338,95.8450552 L2.94050338,94.6217816 L296.511027,94.6217816 L296.511027,95.8450552 L2.94050338,95.8450552 Z M2.94050338,136.738637 L2.94050338,135.515363 L296.511027,135.515363 L296.511027,136.738637 L2.94050338,136.738637 Z M2.94050338,177.596035 L2.94050338,176.372761 L296.511027,176.372761 L296.511027,177.596035 L2.94050338,177.596035 Z M37.7846098,33.9081224 L39.0078834,33.9081224 L39.0078834,195.000852 L37.7846098,195.000852 L37.7846098,33.9081224 Z M74.9464713,33.9081224 L76.1697449,33.9081224 L76.1697449,195.000852 L74.9464713,195.000852 L74.9464713,33.9081224 Z M112.068937,33.9081224 L113.292211,33.9081224 L113.292211,195.000852 L112.068937,195.000852 L112.068937,33.9081224 Z M149.228779,33.9081224 L150.452053,33.9081224 L150.452053,195.000852 L149.228779,195.000852 L149.228779,33.9081224 Z M186.351245,33.9081224 L187.574519,33.9081224 L187.574519,195.000852 L186.351245,195.000852 L186.351245,33.9081224 Z M223.473711,33.9081224 L224.696985,33.9081224 L224.696985,195.000852 L223.473711,195.000852 L223.473711,33.9081224 Z M2.94050338,116.272749 L2.94050338,115.049475 L296.511027,115.049475 L296.511027,116.272749 L2.94050338,116.272749 Z" id="Shape" fill="#DFDEDE" fill-rule="nonzero"></path>
                <polygon id="Path" fill="#15212D" fill-rule="nonzero" points="2.94050338 71.18066 2.94050338 70.0361768 296.511027 70.0361768 296.511027 71.18066"></polygon>
                <polygon id="Path" fill="#C2C2C2" fill-rule="nonzero" points="0.819219595 30.3712328 0.819219595 27.9246855 298.632311 27.9246855 298.632311 30.3712328"></polygon>
                <path d="M89.7596147,84.6373571 L40.3435504,114.467961 C39.4759779,114.991681 38.3481118,114.712934 37.8243912,113.845362 C37.3006705,112.977789 37.5794176,111.849923 38.4469902,111.326202 L88.946676,80.8414576 C89.5990143,80.4476656 90.4268452,80.4980201 91.0266444,80.9679759 L136.207608,116.368249 L184.509292,67.1114749 C185.286076,66.3193314 186.582705,66.3924025 187.265572,67.2668041 L262.274166,163.314355 C262.897908,164.113049 262.756081,165.266161 261.957388,165.889903 C261.158694,166.513645 260.005582,166.371818 259.38184,165.573125 L185.662713,71.1767195 L137.67836,120.109887 C137.023902,120.777287 135.972341,120.846039 135.236555,120.269534 L89.7596147,84.6373571 Z" id="Path" fill="#2A3052" fill-rule="nonzero"></path>
                <ellipse id="Oval" fill="#FFFFFF" opacity="0.6" cx="186.255787" cy="68.8243622" rx="8.21946959" ry="8.5182398"></ellipse>
                <path d="M186.255787,78.5658756 C181.030738,78.5658756 176.813044,74.1948718 176.813044,68.8243622 C176.813044,63.4538526 181.030738,59.0828488 186.255787,59.0828488 C191.480836,59.0828488 195.69853,63.4538526 195.69853,68.8243622 C195.69853,74.1948718 191.480836,78.5658756 186.255787,78.5658756 Z M186.255787,76.1193284 C190.109714,76.1193284 193.251983,72.8628404 193.251983,68.8243622 C193.251983,64.785884 190.109714,61.5293961 186.255787,61.5293961 C182.40186,61.5293961 179.259591,64.785884 179.259591,68.8243622 C179.259591,72.8628404 182.40186,76.1193284 186.255787,76.1193284 Z" id="Oval" fill="#E88024" fill-rule="nonzero"></path>
            </g>
            <path d="M23.753,7 C23.888,7.375 24.023,7.78 24.158,8.23 L29.993,8.23 L29.993,9.55 L16.658,9.55 L16.658,8.23 L22.613,8.23 C22.4841132,7.90052152 22.3337917,7.57983557 22.163,7.27 L23.753,7 Z M27.563,20.89 L26.318,20.89 L25.988,19.615 L27.143,19.675 C27.698,19.675 27.983,19.465 27.983,19.075 L27.983,15.28 L18.683,15.28 L18.683,20.935 L17.333,20.935 L17.333,14.05 L29.333,14.05 L29.333,19.375 C29.333,20.38 28.733,20.89 27.563,20.89 Z M19.013,10.255 L27.668,10.255 L27.668,13.375 L19.013,13.375 L19.013,10.255 Z M26.303,12.295 L26.303,11.335 L20.378,11.335 L20.378,12.295 L26.303,12.295 Z M20.288,16 L26.393,16 L26.393,19.15 L20.288,19.15 L20.288,16 Z M25.133,18.1 L25.133,17.05 L21.563,17.05 L21.563,18.1 L25.133,18.1 Z M32.018,7.69 L36.293,7.69 L36.293,12.52 L35.063,12.52 L35.063,14.725 L36.383,14.725 L36.383,15.64 C37.313,15.13 38.153,14.5 38.903,13.72 L38.903,12.355 L37.913,12.85 C37.478,11.74 37.013,10.75 36.518,9.88 L37.658,9.325 C38.093,10.195 38.513,11.17 38.903,12.22 L38.903,7.135 L40.253,7.135 L40.253,13.975 C40.223,17.185 39.383,19.525 37.748,21.01 L36.683,20.065 C37.883,19.015 38.588,17.47 38.813,15.43 C38.2916236,16.00304 37.7080235,16.5162056 37.073,16.96 L36.383,15.835 L36.383,15.955 L35.063,15.955 L35.063,18.25 C35.528,18.085 35.963,17.92 36.383,17.74 L36.383,19.03 C35.033,19.6 33.503,20.14 31.763,20.65 L31.358,19.375 L31.928,19.225 L31.928,13.945 L33.083,13.945 L33.083,18.91 C33.338,18.82 33.593,18.745 33.833,18.67 L33.833,12.52 L32.018,12.52 L32.018,7.69 Z M35.048,11.35 L35.048,8.86 L33.263,8.86 L33.263,11.35 L35.048,11.35 Z M43.958,8.875 L45.143,9.445 C44.663,10.66 44.093,11.71 43.433,12.61 L42.473,11.935 L42.473,13.18 C43.433,13.81 44.333,14.545 45.158,15.4 L44.348,16.63 C43.718,15.865 43.103,15.205 42.473,14.665 L42.473,18.985 C42.473,19.27 42.593,19.42 42.863,19.42 L43.343,19.42 C43.5462609,19.4299344 43.7332676,19.3092849 43.808,19.12 C43.928,18.895 44.018,18.22 44.048,17.11 L45.293,17.5 C45.188,19.045 45.008,19.96 44.738,20.26 C44.483,20.53 44.108,20.68 43.598,20.68 L42.458,20.68 C41.558,20.68 41.123,20.2 41.123,19.27 L41.123,7.135 L42.473,7.135 L42.473,11.68 C43.0776967,10.8073271 43.5762135,9.86568419 43.958,8.875 Z M55.448,7.135 L56.783,7.135 L56.783,9.865 L59.753,9.865 C59.753,14.905 59.678,18.01 59.543,19.18 C59.408,20.26 58.748,20.8 57.563,20.8 C57.293,20.8 56.813,20.77 56.123,20.74 L55.778,19.48 C56.378,19.525 56.918,19.555 57.368,19.555 C57.863,19.555 58.148,19.225 58.238,18.565 C58.328,17.815 58.388,15.355 58.418,11.17 L56.783,11.17 L56.783,11.725 C56.738,15.895 55.838,18.955 54.068,20.875 L53.213,20.125 C51.263,20.365 49.043,20.575 46.568,20.725 L46.388,19.465 C47.468,19.405 48.488,19.33 49.463,19.27 L49.463,18.22 L46.883,18.22 L46.883,17.05 L49.463,17.05 L49.463,16.255 L46.838,16.255 L46.838,11.47 L49.463,11.47 L49.463,10.75 L46.523,10.75 L46.523,9.58 L49.463,9.58 L49.463,8.8 C48.683,8.845 47.843,8.875 46.958,8.875 L46.583,7.75 C49.103,7.75 51.218,7.54 52.943,7.15 L53.573,8.23 C52.763,8.44 51.848,8.59 50.813,8.695 L50.813,9.58 L53.678,9.58 L53.678,10.75 L50.813,10.75 L50.813,11.47 L53.453,11.47 L53.453,16.255 L50.813,16.255 L50.813,17.05 L53.408,17.05 L53.408,18.22 L50.813,18.22 L50.813,19.15 C51.743,19.06 52.598,18.97 53.393,18.88 L53.393,19.585 C54.743,17.845 55.418,15.22 55.448,11.725 L55.448,11.17 L54.098,11.17 L54.098,9.865 L55.448,9.865 L55.448,7.135 Z M52.163,15.205 L52.163,14.335 L50.723,14.335 L50.723,15.205 L52.163,15.205 Z M49.553,15.205 L49.553,14.335 L48.128,14.335 L48.128,15.205 L49.553,15.205 Z M48.128,13.375 L49.553,13.375 L49.553,12.505 L48.128,12.505 L48.128,13.375 Z M50.723,12.505 L50.723,13.375 L52.163,13.375 L52.163,12.505 L50.723,12.505 Z M62.063,14.02 L64.283,14.02 L64.283,13.15 L61.838,13.15 L61.838,7.57 L68.078,7.57 L68.078,13.15 L65.528,13.15 L65.528,14.02 L67.898,14.02 L67.898,15.16 L65.528,15.16 L65.528,16.12 C66.533,16.06 67.403,15.97 68.138,15.88 L68.138,17.005 C66.878,17.2 64.793,17.365 61.883,17.515 L61.718,16.285 C62.648,16.255 63.503,16.225 64.283,16.195 L64.283,15.16 L62.063,15.16 L62.063,14.02 Z M61.898,17.935 L63.038,18.07 C62.989902,18.9950099 62.8338431,19.911227 62.573,20.8 L61.418,20.455 C61.673,19.705 61.838,18.865 61.898,17.935 Z M64.523,17.995 C64.718,18.625 64.838,19.48 64.898,20.56 L63.713,20.695 C63.668,19.585 63.578,18.715 63.443,18.115 L64.523,17.995 Z M67.643,17.44 C67.988,18.28 68.258,19.03 68.468,19.72 L67.388,20.125 C67.163,19.285 66.908,18.49 66.608,17.71 L67.643,17.44 Z M66.083,17.755 C66.323,18.46 66.533,19.27 66.728,20.185 L65.588,20.485 C65.468,19.645 65.288,18.85 65.063,18.07 L66.083,17.755 Z M66.938,12.07 L66.938,8.65 L65.423,8.65 L65.423,12.07 L66.938,12.07 Z M64.448,12.07 L64.448,8.65 L62.978,8.65 L62.978,12.07 L64.448,12.07 Z M65.993,9.295 L66.743,9.46 C66.6524403,10.1838838 66.4916834,10.8972426 66.263,11.59 L65.588,11.35 C65.783,10.705 65.918,10.015 65.993,9.295 Z M63.878,9.355 C64.028,9.955 64.178,10.63 64.298,11.41 L63.638,11.59 C63.5182054,10.9172825 63.3629895,10.2513563 63.173,9.595 L63.878,9.355 Z M70.628,7.165 L71.993,7.165 L71.993,9.82 L75.098,9.82 L75.098,11.125 L71.993,11.125 L71.993,13.525 L74.618,13.525 L74.618,20.83 L73.268,20.83 L73.268,20.2 L69.983,20.2 L69.983,20.83 L68.648,20.83 L68.648,13.525 L70.628,13.525 L70.628,7.165 Z M69.983,18.91 L73.268,18.91 L73.268,14.815 L69.983,14.815 L69.983,18.91 Z" id="Shape" fill="#000000" fill-rule="nonzero"></path>
            <path d="M126.784,42.05 L130.204,42.05 L130.204,45.914 L129.22,45.914 L129.22,47.678 L130.276,47.678 L130.276,48.41 C131.022558,48.0040516 131.702458,47.4860325 132.292,46.874 L132.292,45.782 L131.5,46.178 C131.152,45.29 130.78,44.498 130.384,43.802 L131.296,43.358 C131.644,44.054 131.98,44.834 132.292,45.674 L132.292,41.606 L133.372,41.606 L133.372,47.078 C133.348,49.646 132.676,51.518 131.368,52.706 L130.516,51.95 C131.476,51.11 132.04,49.874 132.22,48.242 C131.802893,48.7004261 131.336014,49.110958 130.828,49.466 L130.276,48.566 L130.276,48.662 L129.22,48.662 L129.22,50.498 C129.592,50.366 129.94,50.234 130.276,50.09 L130.276,51.122 C129.196,51.578 127.972,52.01 126.58,52.418 L126.256,51.398 L126.712,51.278 L126.712,47.054 L127.636,47.054 L127.636,51.026 C127.84,50.954 128.044,50.894 128.236,50.834 L128.236,45.914 L126.784,45.914 L126.784,42.05 Z M129.208,44.978 L129.208,42.986 L127.78,42.986 L127.78,44.978 L129.208,44.978 Z M136.336,42.998 L137.284,43.454 C136.9,44.426 136.444,45.266 135.916,45.986 L135.148,45.446 L135.148,46.442 C135.927897,46.9521704 136.648365,47.5478641 137.296,48.218 L136.648,49.202 C136.144,48.59 135.652,48.062 135.148,47.63 L135.148,51.086 C135.148,51.314 135.244,51.434 135.46,51.434 L135.844,51.434 C136.024,51.434 136.144,51.35 136.216,51.194 C136.312,51.014 136.384,50.474 136.408,49.586 L137.404,49.898 C137.32,51.134 137.176,51.866 136.96,52.106 C136.756,52.322 136.456,52.442 136.048,52.442 L135.136,52.442 C134.416,52.442 134.068,52.058 134.068,51.314 L134.068,41.606 L135.148,41.606 L135.148,45.242 C135.604,44.594 136,43.85 136.336,42.998 Z M145.528,41.606 L146.596,41.606 L146.596,43.79 L148.972,43.79 C148.972,47.822 148.912,50.306 148.804,51.242 C148.696,52.106 148.168,52.538 147.22,52.538 C147.004,52.538 146.62,52.514 146.068,52.49 L145.792,51.482 C146.272,51.518 146.704,51.542 147.064,51.542 C147.46,51.542 147.688,51.278 147.76,50.75 C147.832,50.15 147.88,48.182 147.904,44.834 L146.596,44.834 L146.596,45.278 C146.56,48.614 145.84,51.062 144.424,52.598 L143.74,51.998 C142.18,52.19 140.404,52.358 138.424,52.478 L138.28,51.47 C139.144,51.422 139.96,51.362 140.74,51.314 L140.74,50.474 L138.676,50.474 L138.676,49.538 L140.74,49.538 L140.74,48.902 L138.64,48.902 L138.64,45.074 L140.74,45.074 L140.74,44.498 L138.388,44.498 L138.388,43.562 L140.74,43.562 L140.74,42.938 C140.116,42.974 139.444,42.998 138.736,42.998 L138.436,42.098 C140.452,42.098 142.144,41.93 143.524,41.618 L144.028,42.482 C143.302449,42.6615773 142.564338,42.7859331 141.82,42.854 L141.82,43.562 L144.112,43.562 L144.112,44.498 L141.82,44.498 L141.82,45.074 L143.932,45.074 L143.932,48.902 L141.82,48.902 L141.82,49.538 L143.896,49.538 L143.896,50.474 L141.82,50.474 L141.82,51.218 C142.508574,51.1515996 143.196597,51.0795972 143.884,51.002 L143.884,51.566 C144.964,50.174 145.504,48.074 145.528,45.278 L145.528,44.834 L144.448,44.834 L144.448,43.79 L145.528,43.79 L145.528,41.606 Z M142.9,48.062 L142.9,47.366 L141.748,47.366 L141.748,48.062 L142.9,48.062 Z M140.812,48.062 L140.812,47.366 L139.672,47.366 L139.672,48.062 L140.812,48.062 Z M139.672,46.598 L140.812,46.598 L140.812,45.902 L139.672,45.902 L139.672,46.598 Z M141.748,45.902 L141.748,46.598 L142.9,46.598 L142.9,45.902 L141.748,45.902 Z M150.82,47.114 L152.596,47.114 L152.596,46.418 L150.64,46.418 L150.64,41.954 L155.632,41.954 L155.632,46.418 L153.592,46.418 L153.592,47.114 L155.488,47.114 L155.488,48.026 L153.592,48.026 L153.592,48.794 C154.396,48.746 155.092,48.674 155.68,48.602 L155.68,49.502 C154.672,49.658 153.004,49.79 150.676,49.91 L150.544,48.926 C151.288,48.902 151.972,48.878 152.596,48.854 L152.596,48.026 L150.82,48.026 L150.82,47.114 Z M150.688,50.246 L151.6,50.354 C151.561511,51.0940067 151.436664,51.8269791 151.228,52.538 L150.304,52.262 C150.508,51.662 150.64,50.99 150.688,50.246 Z M152.788,50.294 C152.944,50.798 153.04,51.482 153.088,52.346 L152.14,52.454 C152.104,51.566 152.032,50.87 151.924,50.39 L152.788,50.294 Z M155.284,49.85 C155.56,50.522 155.776,51.122 155.944,51.674 L155.08,51.998 C154.906336,51.3434113 154.698043,50.6985038 154.456,50.066 L155.284,49.85 Z M154.036,50.102 C154.228,50.666 154.396,51.314 154.552,52.046 L153.64,52.286 C153.545263,51.6329868 153.40492,50.9874082 153.22,50.354 L154.036,50.102 Z M154.72,45.554 L154.72,42.818 L153.508,42.818 L153.508,45.554 L154.72,45.554 Z M152.728,45.554 L152.728,42.818 L151.552,42.818 L151.552,45.554 L152.728,45.554 Z M153.964,43.334 L154.564,43.466 C154.491552,44.0451071 154.362947,44.6157941 154.18,45.17 L153.64,44.978 C153.79967,44.4414603 153.908155,43.8910015 153.964,43.334 Z M152.272,43.382 C152.392,43.862 152.512,44.402 152.608,45.026 L152.08,45.17 C151.984162,44.6318264 151.85999,44.0990855 151.708,43.574 L152.272,43.382 Z M157.672,41.63 L158.764,41.63 L158.764,43.754 L161.248,43.754 L161.248,44.798 L158.764,44.798 L158.764,46.718 L160.864,46.718 L160.864,52.562 L159.784,52.562 L159.784,52.058 L157.156,52.058 L157.156,52.562 L156.088,52.562 L156.088,46.718 L157.672,46.718 L157.672,41.63 Z M157.156,51.026 L159.784,51.026 L159.784,47.75 L157.156,47.75 L157.156,51.026 Z M167.28,48.369 L168.358,48.369 L168.358,49.517 L167.28,49.517 L167.28,51.41 L165.862,51.41 L165.862,49.517 L162.2,49.517 L162.164,48.644 L165.814,42.878 L167.28,42.878 L167.28,48.368 L167.28,48.369 Z M163.57,48.369 L165.862,48.369 L165.862,44.906 L165.826,44.894 L165.709,45.146 L163.571,48.369 L163.57,48.369 Z M170.971,51.409 L169.553,51.409 L169.553,50.044 L170.971,50.044 L170.971,51.41 L170.971,51.409 Z M170.971,46.277 L169.553,46.277 L169.553,44.912 L170.971,44.912 L170.971,46.277 Z M172.569,46.177 L183.201,46.177 L183.201,47.09 L177.885,47.09 L177.885,50.666 L178.521,50.558 L178.521,51.434 C178.329,51.47 178.113,51.506 177.885,51.554 L177.885,52.682 L176.793,52.682 L176.793,51.698 C175.440365,51.8533951 174.083903,51.973436 172.725,52.058 L172.581,51.098 L173.613,51.05 L173.613,47.09 L172.569,47.09 L172.569,46.178 L172.569,46.177 Z M174.657,50.99 C175.437,50.942 176.145,50.882 176.793,50.81 L176.793,50.162 L174.657,50.162 L174.657,50.99 Z M174.657,49.346 L176.793,49.346 L176.793,48.614 L174.657,48.614 L174.657,49.346 Z M174.657,47.798 L176.793,47.798 L176.793,47.09 L174.657,47.09 L174.657,47.798 Z M173.985,41.942 L181.833,41.942 L181.833,45.578 L173.985,45.578 L173.985,41.942 Z M180.741,44.786 L180.741,44.15 L175.077,44.15 L175.077,44.786 L180.741,44.786 Z M175.077,43.37 L180.741,43.37 L180.741,42.77 L175.077,42.77 L175.077,43.37 Z M178.761,48.626 L178.389,48.626 L178.389,47.702 L182.565,47.702 L182.565,48.566 C182.381004,49.3866309 182.011565,50.1542421 181.485,50.81 C182.03494,51.1889777 182.626874,51.5030653 183.249,51.746 L182.661,52.694 C181.985982,52.3857343 181.349603,51.9990732 180.765,51.542 C180.183984,52.0166958 179.537269,52.4047248 178.845,52.694 L178.257,51.818 C178.941,51.53 179.517,51.206 179.997,50.822 C179.385,50.15 178.977,49.418 178.761,48.626 Z M180.693,50.15 C181.070086,49.6999434 181.359114,49.1829479 181.545,48.626 L179.745,48.626 C179.937,49.178 180.249,49.694 180.693,50.15 Z M190.209,41.498 C190.317,41.798 190.425,42.122 190.533,42.482 L195.201,42.482 L195.201,43.538 L184.533,43.538 L184.533,42.482 L189.297,42.482 C189.193891,42.2184172 189.073633,41.9618685 188.937,41.714 L190.209,41.498 Z M193.257,52.61 L192.261,52.61 L191.997,51.59 L192.921,51.638 C193.365,51.638 193.593,51.47 193.593,51.158 L193.593,48.122 L186.153,48.122 L186.153,52.646 L185.073,52.646 L185.073,47.138 L194.673,47.138 L194.673,51.398 C194.673,52.202 194.193,52.61 193.257,52.61 Z M186.417,44.102 L193.341,44.102 L193.341,46.598 L186.417,46.598 L186.417,44.102 Z M192.249,45.734 L192.249,44.966 L187.509,44.966 L187.509,45.734 L192.249,45.734 Z M187.437,48.698 L192.321,48.698 L192.321,51.218 L187.437,51.218 L187.437,48.698 Z M191.313,50.378 L191.313,49.538 L188.457,49.538 L188.457,50.378 L191.313,50.378 Z M196.821,42.05 L200.241,42.05 L200.241,45.914 L199.257,45.914 L199.257,47.678 L200.313,47.678 L200.313,48.41 C201.059558,48.0040516 201.739458,47.4860325 202.329,46.874 L202.329,45.782 L201.537,46.178 C201.189,45.29 200.817,44.498 200.421,43.802 L201.333,43.358 C201.681,44.054 202.017,44.834 202.329,45.674 L202.329,41.606 L203.409,41.606 L203.409,47.078 C203.385,49.646 202.713,51.518 201.405,52.706 L200.553,51.95 C201.513,51.11 202.077,49.874 202.257,48.242 C201.839893,48.7004261 201.373014,49.110958 200.865,49.466 L200.313,48.566 L200.313,48.662 L199.257,48.662 L199.257,50.498 C199.629,50.366 199.977,50.234 200.313,50.09 L200.313,51.122 C199.233,51.578 198.009,52.01 196.617,52.418 L196.293,51.398 L196.749,51.278 L196.749,47.054 L197.673,47.054 L197.673,51.026 C197.877,50.954 198.081,50.894 198.273,50.834 L198.273,45.914 L196.821,45.914 L196.821,42.05 Z M199.245,44.978 L199.245,42.986 L197.817,42.986 L197.817,44.978 L199.245,44.978 Z M206.373,42.998 L207.321,43.454 C206.937,44.426 206.481,45.266 205.953,45.986 L205.185,45.446 L205.185,46.442 C205.964897,46.9521704 206.685365,47.5478641 207.333,48.218 L206.685,49.202 C206.181,48.59 205.689,48.062 205.185,47.63 L205.185,51.086 C205.185,51.314 205.281,51.434 205.497,51.434 L205.881,51.434 C206.061,51.434 206.181,51.35 206.253,51.194 C206.349,51.014 206.421,50.474 206.445,49.586 L207.441,49.898 C207.357,51.134 207.213,51.866 206.997,52.106 C206.793,52.322 206.493,52.442 206.085,52.442 L205.173,52.442 C204.453,52.442 204.105,52.058 204.105,51.314 L204.105,41.606 L205.185,41.606 L205.185,45.242 C205.641,44.594 206.037,43.85 206.373,42.998 Z M215.565,41.606 L216.633,41.606 L216.633,43.79 L219.009,43.79 C219.009,47.822 218.949,50.306 218.841,51.242 C218.733,52.106 218.205,52.538 217.257,52.538 C217.041,52.538 216.657,52.514 216.105,52.49 L215.829,51.482 C216.309,51.518 216.741,51.542 217.101,51.542 C217.497,51.542 217.725,51.278 217.797,50.75 C217.869,50.15 217.917,48.182 217.941,44.834 L216.633,44.834 L216.633,45.278 C216.597,48.614 215.877,51.062 214.461,52.598 L213.777,51.998 C212.217,52.19 210.441,52.358 208.461,52.478 L208.317,51.47 C209.181,51.422 209.997,51.362 210.777,51.314 L210.777,50.474 L208.713,50.474 L208.713,49.538 L210.777,49.538 L210.777,48.902 L208.677,48.902 L208.677,45.074 L210.777,45.074 L210.777,44.498 L208.425,44.498 L208.425,43.562 L210.777,43.562 L210.777,42.938 C210.153,42.974 209.481,42.998 208.773,42.998 L208.473,42.098 C210.489,42.098 212.181,41.93 213.561,41.618 L214.065,42.482 C213.339449,42.6615773 212.601338,42.7859331 211.857,42.854 L211.857,43.562 L214.149,43.562 L214.149,44.498 L211.857,44.498 L211.857,45.074 L213.969,45.074 L213.969,48.902 L211.857,48.902 L211.857,49.538 L213.933,49.538 L213.933,50.474 L211.857,50.474 L211.857,51.218 C212.545574,51.1515996 213.233597,51.0795972 213.921,51.002 L213.921,51.566 C215.001,50.174 215.541,48.074 215.565,45.278 L215.565,44.834 L214.485,44.834 L214.485,43.79 L215.565,43.79 L215.565,41.606 Z M212.937,48.062 L212.937,47.366 L211.785,47.366 L211.785,48.062 L212.937,48.062 Z M210.849,48.062 L210.849,47.366 L209.709,47.366 L209.709,48.062 L210.849,48.062 Z M209.709,46.598 L210.849,46.598 L210.849,45.902 L209.709,45.902 L209.709,46.598 Z M211.785,45.902 L211.785,46.598 L212.937,46.598 L212.937,45.902 L211.785,45.902 Z M220.857,47.114 L222.633,47.114 L222.633,46.418 L220.677,46.418 L220.677,41.954 L225.669,41.954 L225.669,46.418 L223.629,46.418 L223.629,47.114 L225.525,47.114 L225.525,48.026 L223.629,48.026 L223.629,48.794 C224.433,48.746 225.129,48.674 225.717,48.602 L225.717,49.502 C224.709,49.658 223.041,49.79 220.713,49.91 L220.581,48.926 C221.325,48.902 222.009,48.878 222.633,48.854 L222.633,48.026 L220.857,48.026 L220.857,47.114 Z M220.725,50.246 L221.637,50.354 C221.598511,51.0940067 221.473664,51.8269791 221.265,52.538 L220.341,52.262 C220.545,51.662 220.677,50.99 220.725,50.246 Z M222.825,50.294 C222.981,50.798 223.077,51.482 223.125,52.346 L222.177,52.454 C222.141,51.566 222.069,50.87 221.961,50.39 L222.825,50.294 Z M225.321,49.85 C225.597,50.522 225.813,51.122 225.981,51.674 L225.117,51.998 C224.943336,51.3434113 224.735043,50.6985038 224.493,50.066 L225.321,49.85 Z M224.073,50.102 C224.265,50.666 224.433,51.314 224.589,52.046 L223.677,52.286 C223.582263,51.6329868 223.44192,50.9874082 223.257,50.354 L224.073,50.102 Z M224.757,45.554 L224.757,42.818 L223.545,42.818 L223.545,45.554 L224.757,45.554 Z M222.765,45.554 L222.765,42.818 L221.589,42.818 L221.589,45.554 L222.765,45.554 Z M224.001,43.334 L224.601,43.466 C224.528552,44.0451071 224.399947,44.6157941 224.217,45.17 L223.677,44.978 C223.83667,44.4414603 223.945155,43.8910015 224.001,43.334 Z M222.309,43.382 C222.429,43.862 222.549,44.402 222.645,45.026 L222.117,45.17 C222.021162,44.6318264 221.89699,44.0990855 221.745,43.574 L222.309,43.382 Z M227.709,41.63 L228.801,41.63 L228.801,43.754 L231.285,43.754 L231.285,44.798 L228.801,44.798 L228.801,46.718 L230.901,46.718 L230.901,52.562 L229.821,52.562 L229.821,52.058 L227.193,52.058 L227.193,52.562 L226.125,52.562 L226.125,46.718 L227.709,46.718 L227.709,41.63 Z M227.193,51.026 L229.821,51.026 L229.821,47.75 L227.193,47.75 L227.193,51.026 Z M224.344,172.647 C225.136,173.283 225.82,173.907 226.372,174.531 L225.544,175.347 C225.076,174.747 224.416,174.099 223.552,173.403 L224.344,172.647 Z M231.16,183.399 C230.512,183.399 229.804,183.387 229.036,183.375 C228.268,183.363 227.632,183.291 227.14,183.171 C226.66,183.027 226.252,182.739 225.892,182.331 C225.724,182.127 225.58,182.031 225.448,182.031 C225.196,182.031 224.764,182.571 224.152,183.651 L223.312,182.871 C223.912,181.899 224.452,181.287 224.932,181.047 L224.932,177.651 L223.324,177.651 L223.324,176.595 L226,176.595 L226,181.143 C226.048,181.191 226.108,181.239 226.168,181.311 C226.444,181.635 226.732,181.875 227.02,182.031 C227.38,182.199 227.908,182.307 228.604,182.331 C229.276,182.343 230.068,182.355 231.004,182.355 C231.604,182.355 232.204,182.343 232.828,182.331 C233.304429,182.323031 233.780581,182.303025 234.256,182.271 L233.968,183.399 L231.16,183.399 Z M229.996,177.867 C230.62,178.215 231.196,178.575 231.736,178.947 C232.12,178.587 232.468,178.227 232.756,177.867 L233.572,178.491 C233.236,178.887 232.9,179.235 232.564,179.547 C233.116,179.955 233.62,180.387 234.076,180.831 L233.38,181.671 C232.324,180.591 230.992,179.583 229.36,178.647 L229.996,177.867 Z M228.496,175.731 L228.496,176.583 L232.18,176.583 L232.18,175.731 L228.496,175.731 Z M232.18,174.795 L232.18,173.943 L228.496,173.943 L228.496,174.795 L232.18,174.795 Z M228.496,177.591 L228.496,180.435 C229.204,180.303 229.912,180.135 230.608,179.931 L230.86,180.951 C229.9,181.203 228.7,181.455 227.236,181.695 L226.996,180.735 C227.26,180.639 227.392,180.483 227.392,180.291 L227.392,172.935 L233.296,172.935 L233.296,177.591 L228.496,177.591 Z M235.36,173.811 L240.088,173.811 C239.908,173.379 239.716,172.971 239.512,172.611 L240.736,172.419 C240.916,172.839 241.084,173.307 241.252,173.811 L246.064,173.811 L246.064,174.903 L241.288,174.903 L241.288,176.211 L245.188,176.211 L245.188,180.663 C245.188,181.431 244.78,181.827 243.988,181.827 L242.776,181.827 L242.488,180.747 L243.628,180.807 C243.916,180.807 244.06,180.663 244.06,180.399 L244.06,177.303 L241.288,177.303 L241.288,183.591 L240.136,183.591 L240.136,177.303 L237.508,177.303 L237.508,181.911 L236.392,181.911 L236.392,176.211 L240.136,176.211 L240.136,174.903 L235.36,174.903 L235.36,173.811 Z M247.66,173.007 L251.08,173.007 L251.08,176.871 L250.096,176.871 L250.096,178.635 L251.152,178.635 L251.152,179.367 C251.898558,178.961052 252.578458,178.443032 253.168,177.831 L253.168,176.739 L252.376,177.135 C252.028,176.247 251.656,175.455 251.26,174.759 L252.172,174.315 C252.52,175.011 252.856,175.791 253.168,176.631 L253.168,172.563 L254.248,172.563 L254.248,178.035 C254.224,180.603 253.552,182.475 252.244,183.663 L251.392,182.907 C252.352,182.067 252.916,180.831 253.096,179.199 C252.678893,179.657426 252.212014,180.067958 251.704,180.423 L251.152,179.523 L251.152,179.619 L250.096,179.619 L250.096,181.455 C250.468,181.323 250.816,181.191 251.152,181.047 L251.152,182.079 C250.072,182.535 248.848,182.967 247.456,183.375 L247.132,182.355 L247.588,182.235 L247.588,178.011 L248.512,178.011 L248.512,181.983 C248.716,181.911 248.92,181.851 249.112,181.791 L249.112,176.871 L247.66,176.871 L247.66,173.007 Z M250.084,175.935 L250.084,173.943 L248.656,173.943 L248.656,175.935 L250.084,175.935 Z M257.212,173.955 L258.16,174.411 C257.776,175.383 257.32,176.223 256.792,176.943 L256.024,176.403 L256.024,177.399 C256.803897,177.90917 257.524365,178.504864 258.172,179.175 L257.524,180.159 C257.02,179.547 256.528,179.019 256.024,178.587 L256.024,182.043 C256.024,182.271 256.12,182.391 256.336,182.391 L256.72,182.391 C256.9,182.391 257.02,182.307 257.092,182.151 C257.188,181.971 257.26,181.431 257.284,180.543 L258.28,180.855 C258.196,182.091 258.052,182.823 257.836,183.063 C257.632,183.279 257.332,183.399 256.924,183.399 L256.012,183.399 C255.292,183.399 254.944,183.015 254.944,182.271 L254.944,172.563 L256.024,172.563 L256.024,176.199 C256.48,175.551 256.876,174.807 257.212,173.955 Z M266.404,172.563 L267.472,172.563 L267.472,174.747 L269.848,174.747 C269.848,178.779 269.788,181.263 269.68,182.199 C269.572,183.063 269.044,183.495 268.096,183.495 C267.88,183.495 267.496,183.471 266.944,183.447 L266.668,182.439 C267.148,182.475 267.58,182.499 267.94,182.499 C268.336,182.499 268.564,182.235 268.636,181.707 C268.708,181.107 268.756,179.139 268.78,175.791 L267.472,175.791 L267.472,176.235 C267.436,179.571 266.716,182.019 265.3,183.555 L264.616,182.955 C263.056,183.147 261.28,183.315 259.3,183.435 L259.156,182.427 C260.02,182.379 260.836,182.319 261.616,182.271 L261.616,181.431 L259.552,181.431 L259.552,180.495 L261.616,180.495 L261.616,179.859 L259.516,179.859 L259.516,176.031 L261.616,176.031 L261.616,175.455 L259.264,175.455 L259.264,174.519 L261.616,174.519 L261.616,173.895 C260.992,173.931 260.32,173.955 259.612,173.955 L259.312,173.055 C261.328,173.055 263.02,172.887 264.4,172.575 L264.904,173.439 C264.178449,173.618577 263.440338,173.742933 262.696,173.811 L262.696,174.519 L264.988,174.519 L264.988,175.455 L262.696,175.455 L262.696,176.031 L264.808,176.031 L264.808,179.859 L262.696,179.859 L262.696,180.495 L264.772,180.495 L264.772,181.431 L262.696,181.431 L262.696,182.175 C263.384574,182.1086 264.072597,182.036597 264.76,181.959 L264.76,182.523 C265.84,181.131 266.38,179.031 266.404,176.235 L266.404,175.791 L265.324,175.791 L265.324,174.747 L266.404,174.747 L266.404,172.563 Z M263.776,179.019 L263.776,178.323 L262.624,178.323 L262.624,179.019 L263.776,179.019 Z M261.688,179.019 L261.688,178.323 L260.548,178.323 L260.548,179.019 L261.688,179.019 Z M260.548,177.555 L261.688,177.555 L261.688,176.859 L260.548,176.859 L260.548,177.555 Z M262.624,176.859 L262.624,177.555 L263.776,177.555 L263.776,176.859 L262.624,176.859 Z M271.696,178.071 L273.472,178.071 L273.472,177.375 L271.516,177.375 L271.516,172.911 L276.508,172.911 L276.508,177.375 L274.468,177.375 L274.468,178.071 L276.364,178.071 L276.364,178.983 L274.468,178.983 L274.468,179.751 C275.272,179.703 275.968,179.631 276.556,179.559 L276.556,180.459 C275.548,180.615 273.88,180.747 271.552,180.867 L271.42,179.883 C272.164,179.859 272.848,179.835 273.472,179.811 L273.472,178.983 L271.696,178.983 L271.696,178.071 Z M271.564,181.203 L272.476,181.311 C272.437511,182.051007 272.312664,182.783979 272.104,183.495 L271.18,183.219 C271.384,182.619 271.516,181.947 271.564,181.203 Z M273.664,181.251 C273.82,181.755 273.916,182.439 273.964,183.303 L273.016,183.411 C272.98,182.523 272.908,181.827 272.8,181.347 L273.664,181.251 Z M276.16,180.807 C276.436,181.479 276.652,182.079 276.82,182.631 L275.956,182.955 C275.782336,182.300411 275.574043,181.655504 275.332,181.023 L276.16,180.807 Z M274.912,181.059 C275.104,181.623 275.272,182.271 275.428,183.003 L274.516,183.243 C274.421263,182.589987 274.28092,181.944408 274.096,181.311 L274.912,181.059 Z M275.596,176.511 L275.596,173.775 L274.384,173.775 L274.384,176.511 L275.596,176.511 Z M273.604,176.511 L273.604,173.775 L272.428,173.775 L272.428,176.511 L273.604,176.511 Z M274.84,174.291 L275.44,174.423 C275.367552,175.002107 275.238947,175.572794 275.056,176.127 L274.516,175.935 C274.67567,175.39846 274.784155,174.848001 274.84,174.291 Z M273.148,174.339 C273.268,174.819 273.388,175.359 273.484,175.983 L272.956,176.127 C272.860162,175.588826 272.73599,175.056086 272.584,174.531 L273.148,174.339 Z M278.548,172.587 L279.64,172.587 L279.64,174.711 L282.124,174.711 L282.124,175.755 L279.64,175.755 L279.64,177.675 L281.74,177.675 L281.74,183.519 L280.66,183.519 L280.66,183.015 L278.032,183.015 L278.032,183.519 L276.964,183.519 L276.964,177.675 L278.548,177.675 L278.548,172.587 Z M278.032,181.983 L280.66,181.983 L280.66,178.707 L278.032,178.707 L278.032,181.983 Z M22.617,128.404 L23.981,128.404 L23.981,127.359 L22.903,127.359 L22.903,126.479 L28.26,126.479 L28.26,127.359 L27.28,127.359 L27.28,128.404 L28.6,128.404 L28.6,129.317 L27.28,129.317 L27.28,131.792 L26.335,131.792 L26.335,129.317 L24.861,129.317 C24.784,129.889 24.651,130.362 24.454,130.747 C24.179,131.275 23.728,131.682 23.112,131.968 L22.595,131.154 C23.123,130.89 23.475,130.549 23.673,130.142 C23.7784683,129.875854 23.8555617,129.599324 23.903,129.317 L22.617,129.317 L22.617,128.404 Z M26.335,128.404 L26.335,127.359 L24.915,127.359 L24.915,128.404 L26.335,128.404 Z M22.034,124.4 L22.034,125.016 L24.234,125.016 L24.234,124.4 L22.034,124.4 Z M24.234,123.685 L24.234,123.025 L22.034,123.025 L22.034,123.685 L24.234,123.685 Z M26.973,124.4 L26.973,124.994 L29.228,124.994 L29.228,124.4 L26.973,124.4 Z M29.228,123.685 L29.228,123.047 L26.973,123.047 L26.973,123.685 L29.228,123.685 Z M25.257,122.222 L25.257,125.83 L22.034,125.83 L22.034,132.001 L21,132.001 L21,122.222 L25.257,122.222 Z M29.227,125.808 L25.951,125.808 L25.951,122.222 L30.274,122.222 L30.274,130.78 C30.274,131.561 29.9,131.957 29.152,131.957 C28.767,131.957 28.382,131.947 27.986,131.924 L27.744,131 C28.118,131.033 28.459,131.055 28.778,131.055 C29.075,131.055 29.228,130.857 29.228,130.461 L29.228,125.808 L29.227,125.808 Z M32.825,121.881 L33.848,121.969 C33.7657412,122.633415 33.6777379,123.297107 33.584,123.96 L35.146,123.96 L35.146,124.543 C35.08,126.303 34.794,127.821 34.288,129.119 C34.772,129.625 35.178,130.087 35.487,130.494 L34.783,131.319 C34.4792949,130.911449 34.1562587,130.518666 33.815,130.142 C33.4114702,130.893244 32.8875235,131.57326 32.264,132.155 L31.604,131.33 C32.2190874,130.775119 32.7262789,130.111295 33.1,129.372 C32.67,128.932 32.209,128.47 31.703,127.986 C31.945,127.062 32.176,126.05 32.373,124.961 L31.603,124.961 L31.603,123.961 L32.539,123.961 C32.6427078,123.268844 32.7380481,122.57546 32.825,121.881 Z M33.54,128.361 C33.892,127.359 34.112,126.226 34.178,124.961 L33.418,124.961 C33.232,126.039 33.034,126.952 32.825,127.678 C33.078,127.92 33.32,128.14 33.54,128.36 L33.54,128.361 Z M40.931,127.281 L40.931,132.111 L39.931,132.111 L39.931,131.494 L36.917,131.494 L36.917,132.11 L35.927,132.11 L35.927,127.281 L40.931,127.281 Z M36.916,130.515 L39.931,130.515 L39.931,128.238 L36.917,128.238 L36.917,130.515 L36.916,130.515 Z M35.552,126.478 L35.387,125.532 C35.926,125.356 36.685,124.157 37.664,121.924 L38.654,122.254 C38.06,123.53 37.466,124.608 36.85,125.466 C37.8775151,125.403072 38.9015954,125.292956 39.919,125.136 C39.6672605,124.618126 39.3994642,124.108213 39.116,123.607 L40.006,123.178 C40.579,124.135 41.106,125.191 41.613,126.346 L40.656,126.808 C40.546,126.522 40.436,126.258 40.326,126.016 C38.7409258,126.228969 37.1484979,126.383075 35.552,126.478 Z" id="Shape" fill="#2A3052" fill-rule="nonzero"></path>
        </g>
    </g>
</svg>