<?xml version="1.0" encoding="UTF-8"?>
<svg width="299px" height="197px" viewBox="0 0 299 197" version="1.1" xmlns="http://www.w3.org/2000/svg" xmlns:xlink="http://www.w3.org/1999/xlink">
    <!-- Generator: Sketch 52.6 (67491) - http://www.bohemiancoding.com/sketch -->
    <title>high-low</title>
    <desc>Created with Sketch.</desc>
    <g id="Page-1" stroke="none" stroke-width="1" fill="none" fill-rule="evenodd">
        <g id="high-low">
            <g id="Group">
                <polygon id="Shape" fill="#F1F2F2" points="0 0 299 0 299 197 0 197"></polygon>
                <path d="M1.98671096,1.9798995 L1.98671096,195.020101 L297.013289,195.020101 L297.013289,1.9798995 L1.98671096,1.9798995 Z M299,0 L299,197 L0,197 L0,0 L299,0 Z" id="Shape" fill="#C2C2C2" fill-rule="nonzero"></path>
                <path d="M4.887,56.1681983 L4.887,54.9623677 L294.54325,54.9623677 L294.54325,56.1681983 L4.887,56.1681983 Z M4.887,96.4974436 L4.887,95.291613 L294.54325,95.291613 L294.54325,96.4974436 L4.887,96.4974436 Z M4.887,136.826689 L4.887,135.620859 L294.54325,135.620859 L294.54325,136.826689 L4.887,136.826689 Z M4.887,177.118764 L4.887,175.912934 L294.54325,175.912934 L294.54325,177.118764 L4.887,177.118764 Z M39.2670847,35.4192453 L40.4729153,35.4192453 L40.4729153,194.283019 L39.2670847,194.283019 L39.2670847,35.4192453 Z M75.9319597,35.4192453 L77.1377903,35.4192453 L77.1377903,194.283019 L75.9319597,194.283019 L75.9319597,35.4192453 Z M112.55946,35.4192453 L113.76529,35.4192453 L113.76529,194.283019 L112.55946,194.283019 L112.55946,35.4192453 Z M149.224335,35.4192453 L150.430165,35.4192453 L150.430165,194.283019 L149.224335,194.283019 L149.224335,35.4192453 Z M185.851835,35.4192453 L187.057665,35.4192453 L187.057665,194.283019 L185.851835,194.283019 L185.851835,35.4192453 Z M222.479335,35.4192453 L223.685165,35.4192453 L223.685165,194.283019 L222.479335,194.283019 L222.479335,35.4192453 Z M4.887,116.643481 L4.887,115.437651 L294.54325,115.437651 L294.54325,116.643481 L4.887,116.643481 Z" id="Shape-2" fill="#DFDEDE" fill-rule="nonzero"></path>
                <path d="M4.887,65.1614382 L4.887,64.0336562 L12.3557552,64.0336562 L12.3557552,65.1614382 L4.887,65.1614382 Z M19.8245105,65.1614382 L19.8245105,64.0336562 L27.2932657,64.0336562 L27.2932657,65.1614382 L19.8245105,65.1614382 Z M34.762021,65.1614382 L34.762021,64.0336562 L42.2307762,64.0336562 L42.2307762,65.1614382 L34.762021,65.1614382 Z M49.6995315,65.1614382 L49.6995315,64.0336562 L57.1682867,64.0336562 L57.1682867,65.1614382 L49.6995315,65.1614382 Z M64.637042,65.1614382 L64.637042,64.0336562 L72.1057972,64.0336562 L72.1057972,65.1614382 L64.637042,65.1614382 Z M79.5745525,65.1614382 L79.5745525,64.0336562 L87.0433077,64.0336562 L87.0433077,65.1614382 L79.5745525,65.1614382 Z M94.5120629,65.1614382 L94.5120629,64.0336562 L101.980818,64.0336562 L101.980818,65.1614382 L94.5120629,65.1614382 Z M109.449573,65.1614382 L109.449573,64.0336562 L116.918329,64.0336562 L116.918329,65.1614382 L109.449573,65.1614382 Z M124.387084,65.1614382 L124.387084,64.0336562 L131.855839,64.0336562 L131.855839,65.1614382 L124.387084,65.1614382 Z M139.324594,65.1614382 L139.324594,64.0336562 L146.79335,64.0336562 L146.79335,65.1614382 L139.324594,65.1614382 Z M154.262105,65.1614382 L154.262105,64.0336562 L161.73086,64.0336562 L161.73086,65.1614382 L154.262105,65.1614382 Z M169.199615,65.1614382 L169.199615,64.0336562 L176.668371,64.0336562 L176.668371,65.1614382 L169.199615,65.1614382 Z M184.137126,65.1614382 L184.137126,64.0336562 L191.605881,64.0336562 L191.605881,65.1614382 L184.137126,65.1614382 Z M199.074636,65.1614382 L199.074636,64.0336562 L206.543392,64.0336562 L206.543392,65.1614382 L199.074636,65.1614382 Z M214.012147,65.1614382 L214.012147,64.0336562 L221.480902,64.0336562 L221.480902,65.1614382 L214.012147,65.1614382 Z M228.949657,65.1614382 L228.949657,64.0336562 L236.418413,64.0336562 L236.418413,65.1614382 L228.949657,65.1614382 Z M243.887168,65.1614382 L243.887168,64.0336562 L251.355923,64.0336562 L251.355923,65.1614382 L243.887168,65.1614382 Z M258.824678,65.1614382 L258.824678,64.0336562 L266.293434,64.0336562 L266.293434,65.1614382 L258.824678,65.1614382 Z M273.762189,65.1614382 L273.762189,64.0336562 L281.230944,64.0336562 L281.230944,65.1614382 L273.762189,65.1614382 Z M288.699699,65.1614382 L288.699699,64.0336562 L294.54325,64.0336562 L294.54325,65.1614382 L288.699699,65.1614382 Z" id="Shape-3" fill="#15212D" fill-rule="nonzero"></path>
                <polygon id="Path" fill="#2A3052" fill-rule="nonzero" points="240.45671 35.4192453 241.66254 35.4192453 241.66254 194.283019 240.45671 194.283019"></polygon>
                <path d="M4.887,157.677099 L4.887,156.549317 L12.3557552,156.549317 L12.3557552,157.677099 L4.887,157.677099 Z M19.8245105,157.677099 L19.8245105,156.549317 L27.2932657,156.549317 L27.2932657,157.677099 L19.8245105,157.677099 Z M34.762021,157.677099 L34.762021,156.549317 L42.2307762,156.549317 L42.2307762,157.677099 L34.762021,157.677099 Z M49.6995315,157.677099 L49.6995315,156.549317 L57.1682867,156.549317 L57.1682867,157.677099 L49.6995315,157.677099 Z M64.637042,157.677099 L64.637042,156.549317 L72.1057972,156.549317 L72.1057972,157.677099 L64.637042,157.677099 Z M79.5745525,157.677099 L79.5745525,156.549317 L87.0433077,156.549317 L87.0433077,157.677099 L79.5745525,157.677099 Z M94.5120629,157.677099 L94.5120629,156.549317 L101.980818,156.549317 L101.980818,157.677099 L94.5120629,157.677099 Z M109.449573,157.677099 L109.449573,156.549317 L116.918329,156.549317 L116.918329,157.677099 L109.449573,157.677099 Z M124.387084,157.677099 L124.387084,156.549317 L131.855839,156.549317 L131.855839,157.677099 L124.387084,157.677099 Z M139.324594,157.677099 L139.324594,156.549317 L146.79335,156.549317 L146.79335,157.677099 L139.324594,157.677099 Z M154.262105,157.677099 L154.262105,156.549317 L161.73086,156.549317 L161.73086,157.677099 L154.262105,157.677099 Z M169.199615,157.677099 L169.199615,156.549317 L176.668371,156.549317 L176.668371,157.677099 L169.199615,157.677099 Z M184.137126,157.677099 L184.137126,156.549317 L191.605881,156.549317 L191.605881,157.677099 L184.137126,157.677099 Z M199.074636,157.677099 L199.074636,156.549317 L206.543392,156.549317 L206.543392,157.677099 L199.074636,157.677099 Z M214.012147,157.677099 L214.012147,156.549317 L221.480902,156.549317 L221.480902,157.677099 L214.012147,157.677099 Z M228.949657,157.677099 L228.949657,156.549317 L236.418413,156.549317 L236.418413,157.677099 L228.949657,157.677099 Z M243.887168,157.677099 L243.887168,156.549317 L251.355923,156.549317 L251.355923,157.677099 L243.887168,157.677099 Z M258.824678,157.677099 L258.824678,156.549317 L266.293434,156.549317 L266.293434,157.677099 L258.824678,157.677099 Z M273.762189,157.677099 L273.762189,156.549317 L281.230944,156.549317 L281.230944,157.677099 L273.762189,157.677099 Z M288.699699,157.677099 L288.699699,156.549317 L294.54325,156.549317 L294.54325,157.677099 L288.699699,157.677099 Z" id="Path-2" fill="#15212D" fill-rule="nonzero"></path>
                <polygon id="Shape-4" fill="#C2C2C2" fill-rule="nonzero" points="2.794 33.4358286 2.794 31.023794 296.63625 31.023794 296.63625 33.4358286"></polygon>
                <path d="M56.6412045,102.228668 L21.9184493,117.693023 C21.0058223,118.099477 19.9364962,117.689142 19.5300426,116.776515 C19.123589,115.863888 19.5339236,114.794562 20.4465507,114.388109 L56.1920007,98.4682786 C56.8186454,98.1891919 57.5492377,98.2885757 58.0785624,98.7249108 L83.037108,119.298844 L125.345574,64.0442066 C126.224621,62.8961762 128.02865,63.1924409 128.494361,64.5613128 L158.380193,152.405232 L174.764402,108.178915 C174.874246,107.882411 175.059891,107.619878 175.302829,107.41749 L202.657592,84.6286784 C203.274242,84.1149571 204.155659,84.0689828 204.822408,84.5157626 L241.748908,109.259706 C242.578852,109.81584 242.800819,110.939479 242.244685,111.769423 C241.688551,112.599367 240.564912,112.821334 239.734968,112.2652 L203.933129,88.2748764 L177.989301,109.888261 L160.00391,158.436689 C159.412399,160.03337 157.143524,160.002902 156.595101,158.390914 L126.159764,68.9318244 L84.7696381,122.987114 C84.1467836,123.800559 82.9733241,123.934871 82.1827751,123.283202 L56.6412045,102.228668 Z" id="Shape-5" fill="#2A3052" fill-rule="nonzero"></path>
                <g opacity="0.6" transform="translate(150.500000, 147.962264)" fill="#FFFFFF" id="Oval">
                    <ellipse cx="8.110375" cy="9.3739623" rx="8.110375" ry="8.40037736"></ellipse>
                </g>
                <path d="M158.610375,166.942621 C153.455409,166.942621 149.293983,162.632395 149.293983,157.336226 C149.293983,152.040057 153.455409,147.729831 158.610375,147.729831 C163.765341,147.729831 167.926767,152.040057 167.926767,157.336226 C167.926767,162.632395 163.765341,166.942621 158.610375,166.942621 Z M158.610375,164.530586 C162.413882,164.530586 165.514733,161.318858 165.514733,157.336226 C165.514733,153.353594 162.413882,150.141866 158.610375,150.141866 C154.806868,150.141866 151.706017,153.353594 151.706017,157.336226 C151.706017,161.318858 154.806868,164.530586 158.610375,164.530586 Z" id="Oval-2" fill="#E88024" fill-rule="nonzero"></path>
                <g id="Group-2" opacity="0.6" transform="translate(117.862500, 56.754717)" fill="#FFFFFF">
                    <ellipse id="Oval-3" cx="8.979125" cy="8.40037736" rx="8.110375" ry="8.40037736"></ellipse>
                </g>
                <path d="M126.841625,74.7614889 C121.686659,74.7614889 117.525233,70.4512631 117.525233,65.1550943 C117.525233,59.8589255 121.686659,55.5486997 126.841625,55.5486997 C131.996591,55.5486997 136.158017,59.8589255 136.158017,65.1550943 C136.158017,70.4512631 131.996591,74.7614889 126.841625,74.7614889 Z M126.841625,72.3494544 C130.645132,72.3494544 133.745983,69.1377262 133.745983,65.1550943 C133.745983,61.1724624 130.645132,57.9607342 126.841625,57.9607342 C123.038118,57.9607342 119.937267,61.1724624 119.937267,65.1550943 C119.937267,69.1377262 123.038118,72.3494544 126.841625,72.3494544 Z" id="Oval-4" fill="#E88024" fill-rule="nonzero"></path>
            </g>
            <path d="M111.99,45.822 L121.716,45.822 L121.716,46.698 L116.864,46.698 L116.864,51.768 L115.846,51.768 L115.846,50.848 C114.969,50.991 113.732,51.122 112.133,51.232 L112,50.356 L112.931,50.312 L112.931,46.698 L111.989,46.698 L111.989,45.822 L111.99,45.822 Z M113.918,50.246 C114.652,50.181 115.298,50.115 115.846,50.027 L115.846,49.48 L113.918,49.48 L113.918,50.246 Z M113.918,48.735 L115.846,48.735 L115.846,48.067 L113.918,48.067 L113.918,48.735 Z M113.918,47.322 L115.846,47.322 L115.846,46.698 L113.918,46.698 L113.918,47.322 Z M117.664,48.078 L117.302,48.078 L117.302,47.212 L121.124,47.212 L121.124,48.022 C120.940037,48.7651147 120.592215,49.4576825 120.106,50.049 C120.566,50.378 121.114,50.673 121.749,50.936 L121.223,51.801 C120.523,51.473 119.931,51.101 119.438,50.706 C118.858421,51.1575896 118.216404,51.5227243 117.532,51.79 L116.996,50.98 C117.675,50.717 118.255,50.4 118.736,50.027 C118.234084,49.4676467 117.867325,48.8005013 117.664,48.077 L117.664,48.078 Z M119.384,49.414 C119.72621,49.0206407 119.993303,48.5678027 120.172,48.078 L118.551,48.078 C118.726,48.571 119,49.02 119.383,49.414 L119.384,49.414 Z M120.434,41.977 L120.434,45.34 L119.416,45.34 L119.416,42.766 L114.334,42.766 L114.334,45.373 L113.327,45.373 L113.327,41.976 L120.434,41.976 L120.434,41.977 Z M114.717,43.324 L119.055,43.324 L119.055,44.036 L114.717,44.036 L114.717,43.324 Z M114.696,44.518 L119.076,44.518 L119.076,45.219 L114.696,45.219 L114.696,44.519 L114.696,44.518 Z M128.101,41.572 C128.2,41.846 128.298,42.142 128.397,42.47 L132.657,42.47 L132.657,43.434 L122.921,43.434 L122.921,42.47 L127.269,42.47 C127.174715,42.2297421 127.064814,41.9959095 126.94,41.77 L128.101,41.572 Z M130.883,51.714 L129.973,51.714 L129.733,50.783 L130.576,50.827 C130.981,50.827 131.189,50.673 131.189,50.389 L131.189,47.618 L124.399,47.618 L124.399,51.747 L123.413,51.747 L123.413,46.72 L132.175,46.72 L132.175,50.608 C132.175,51.341 131.737,51.714 130.883,51.714 Z M124.64,43.949 L130.96,43.949 L130.96,46.227 L124.64,46.227 L124.64,43.949 Z M129.963,45.439 L129.963,44.737 L125.637,44.737 L125.637,45.438 L129.963,45.438 L129.963,45.439 Z M125.571,48.143 L130.029,48.143 L130.029,50.443 L125.571,50.443 L125.571,48.143 Z M129.109,49.677 L129.109,48.91 L126.502,48.91 L126.502,49.677 L129.109,49.677 Z M139.896,41.583 L140.926,41.725 C140.904,42.021 140.871,42.305 140.849,42.591 L143.467,42.591 L143.467,43.533 L140.74,43.533 C140.696,43.795 140.663,44.036 140.63,44.277 L142.788,44.277 L142.788,50.498 L143.784,50.498 L143.784,51.44 L136.545,51.44 L136.545,50.498 L137.629,50.498 L137.629,44.278 L139.612,44.278 C139.654711,44.0310916 139.687405,43.7825546 139.71,43.533 L137.016,43.533 L137.016,42.591 L139.82,42.591 C139.842,42.251 139.874,41.911 139.896,41.583 Z M138.626,50.498 L141.791,50.498 L141.791,49.764 L138.626,49.764 L138.626,50.498 Z M138.626,48.943 L141.791,48.943 L141.791,48.242 L138.626,48.242 L138.626,48.942 L138.626,48.943 Z M138.626,47.41 L141.791,47.41 L141.791,46.72 L138.626,46.72 L138.626,47.41 Z M138.626,45.898 L141.791,45.898 L141.791,45.208 L138.626,45.208 L138.626,45.898 Z M135.11,45.745 C134.782,46.205 134.431,46.654 134.059,47.081 L133.719,45.975 C134.738,44.726 135.483,43.259 135.954,41.594 L136.896,42.032 C136.687,42.733 136.425,43.402 136.118,44.036 L136.118,51.758 L135.11,51.758 L135.11,45.745 Z M144.794,175.691 L153.249,175.691 L153.249,176.527 L149.069,176.527 L149.069,180.897 L148.099,180.897 L148.099,180.127 C147.359,180.241 146.304,180.346 144.927,180.45 L144.803,179.614 L145.583,179.576 L145.583,176.526 L144.794,176.526 L144.794,175.691 Z M146.523,179.51 C147.049829,179.467983 147.575632,179.413969 148.1,179.348 L148.1,178.93 L146.523,178.93 L146.523,179.51 Z M146.523,178.227 L148.1,178.227 L148.1,177.705 L146.523,177.705 L146.523,178.227 Z M146.523,177.002 L148.1,177.002 L148.1,176.527 L146.523,176.527 L146.523,177.002 Z M149.715,177.724 L149.401,177.724 L149.401,176.907 L152.745,176.907 L152.745,177.677 C152.599629,178.303027 152.31375,178.887781 151.909,179.387 C152.299,179.652 152.755,179.899 153.287,180.108 L152.783,180.935 C152.247339,180.684044 151.740952,180.374846 151.273,180.013 C150.775902,180.39533 150.225365,180.702607 149.639,180.925 L149.135,180.155 C149.705,179.937 150.199,179.681 150.608,179.377 C150.187707,178.901634 149.882189,178.336101 149.715,177.724 Z M151.225,178.797 C151.51,178.465 151.719,178.104 151.852,177.724 L150.56,177.724 C150.693,178.114 150.921,178.474 151.225,178.797 Z M152.165,172.366 L152.165,175.311 L151.197,175.311 L151.197,173.107 L146.884,173.107 L146.884,175.339 L145.924,175.339 L145.924,172.366 L152.166,172.366 L152.165,172.366 Z M147.188,173.544 L150.902,173.544 L150.902,174.199 L147.188,174.199 L147.188,173.544 Z M147.168,174.579 L150.921,174.579 L150.921,175.225 L147.169,175.225 L147.169,174.579 L147.168,174.579 Z M156.137,172.043 L157.039,172.471 C156.814599,173.163039 156.52182,173.831003 156.165,174.465 L156.165,180.897 L155.196,180.897 L155.196,175.909 C154.94,176.232 154.664,176.546 154.379,176.849 L154.056,175.805 C154.987,174.741 155.681,173.487 156.136,172.043 L156.137,172.043 Z M158.065,176.203 L158.065,178.265 C158.570919,178.114488 159.071545,177.946724 159.566,177.762 L159.737,178.626 C158.958,178.883 158.037,179.149 156.992,179.434 L156.745,178.598 C156.982,178.484 157.105,178.265 157.105,177.942 L157.105,172.917 C159.119,172.689 160.715,172.433 161.903,172.147 L162.453,172.936 C162.007,173.05 161.485,173.164 160.896,173.278 C160.896,174.019 160.906,174.674 160.924,175.254 L162.624,175.254 L162.624,176.204 L160.962,176.204 C161.019,177.363 161.105,178.161 161.238,178.598 C161.418,179.272 161.628,179.643 161.865,179.7 C161.988,179.671 162.102,179.177 162.197,178.227 L162.986,178.769 C162.796,180.079 162.435,180.735 161.903,180.735 C161.589,180.735 161.304,180.583 161.048,180.289 C160.706,179.88 160.458,179.349 160.307,178.683 C160.183,178.189 160.097,177.363 160.05,176.203 L158.065,176.203 Z M160.012,175.253 C159.992577,174.64553 159.983243,174.03778 159.984,173.43 C159.345269,173.522203 158.705565,173.607542 158.065,173.686 L158.065,175.254 L160.012,175.254 L160.012,175.253 Z M157.125,179.785 L160.278,179.785 L160.278,180.707 L157.125,180.707 L157.125,179.785 Z M168.961,172.034 L169.949,172.167 L169.892,172.889 L172.115,172.889 L172.115,173.781 L169.788,173.781 L169.702,174.351 L171.536,174.351 L171.536,179.719 L172.39,179.719 L172.39,180.631 L166.092,180.631 L166.092,179.719 L167.023,179.719 L167.023,174.351 L168.714,174.351 L168.8,173.781 L166.5,173.781 L166.5,172.889 L168.895,172.889 C168.914,172.594 168.942,172.309 168.961,172.034 Z M167.964,179.719 L170.595,179.719 L170.595,179.168 L167.964,179.168 L167.964,179.718 L167.964,179.719 Z M167.964,178.389 L170.595,178.389 L170.595,177.857 L167.964,177.857 L167.964,178.389 Z M167.964,177.078 L170.595,177.078 L170.595,176.546 L167.964,176.546 L167.964,177.078 Z M167.964,175.767 L170.595,175.767 L170.595,175.244 L167.964,175.244 L167.964,175.767 Z M164.81,175.805 C164.544,176.165 164.268,176.527 163.964,176.869 L163.641,175.805 C164.496,174.741 165.133,173.487 165.541,172.043 L166.434,172.461 C166.254,173.05 166.035,173.62 165.779,174.161 L165.779,180.897 L164.809,180.897 L164.809,175.805 L164.81,175.805 Z" id="Shape" fill="#2A3052" fill-rule="nonzero"></path>
            <g id="Group" transform="translate(246.000000, 111.886000)" fill="#2A3052" fill-rule="nonzero">
                <path d="M2.445,0.19 L3.255,0.516 C2.372,2.451 1.765,3.582 1.433,3.906 L2.983,3.69 L3.841,2.203 L4.645,2.499 C3.367,4.697 2.285,6.412 1.739,6.826 L3.841,6.387 L3.513,5.285 L4.173,5.053 C4.66,6.361 4.903,7.152 4.903,7.425 C4.492,7.535 4.248,7.603 4.173,7.629 L4.025,7.046 C2.222,7.505 1.132,7.734 0.755,7.734 C0.669,7.474 0.593,7.21 0.525,6.941 C1.049,6.815 2.224,5.053 2.518,4.499 L0.64,4.779 C0.564,4.496 0.492,4.233 0.424,3.991 C0.806,3.871 1.479,2.604 2.444,0.19 L2.445,0.19 Z M3.72,8.067 C4.024,7.953 4.25,7.878 4.396,7.844 C4.89,9.073 5.136,9.758 5.136,9.901 C5.096,9.945 4.864,10.054 4.44,10.226 C4.22132263,9.499067 3.9812179,8.77875282 3.72,8.066 L3.72,8.067 Z M2.969,8.178 C3.026,8.402 3.452,10.565 3.452,10.651 L2.638,10.847 C2.468,9.505 2.343,8.674 2.263,8.356 C2.575,8.26 2.635,8.26 2.969,8.178 Z M0.886,8.349 L1.669,8.444 C1.566,9.814 1.421,10.736 1.235,11.211 C0.865,11.099 0.605,11.023 0.455,10.981 C0.688,10.168 0.832,9.291 0.886,8.349 Z M4.774,1.8 L4.774,2.642 L7.745,2.642 L7.745,4.49 L5.138,4.49 L5.138,5.33 L11.263,5.33 L11.263,4.49 L8.612,4.49 L8.612,2.642 L11.512,2.642 L11.512,1.8 L8.612,1.8 L8.612,0.263 L7.745,0.263 L7.745,1.8 L4.774,1.8 Z M10.017,11.433 L10.017,10.871 L6.389,10.871 L6.389,11.433 L5.543,11.433 L5.543,6.552 L10.867,6.552 L10.867,11.432 L10.017,11.432 L10.017,11.433 Z M10.04,7.38 L6.398,7.38 L6.398,10.033 L10.04,10.033 L10.04,7.38 Z M17.755,1.493 L17.755,0.248 L18.652,0.248 L18.652,1.493 L23.424,1.493 L23.424,2.321 L18.652,2.321 L18.652,3.462 L22.47,3.462 L22.47,6.959 L19.419,6.959 C20.032,8.022 21.505,9.144 23.839,10.325 C23.792,10.355 23.596,10.602 23.249,11.068 C21.942,10.442 19.419,8.46 18.652,6.959 L18.66,11.419 L17.755,11.419 C17.748,8.353 17.732,6.869 17.705,6.967 C16.908,8.383 15.152,10.187 13.075,11.067 L12.575,10.299 C14.778,9.272 16.25,8.159 16.992,6.959 L13.922,6.967 L13.922,3.462 L17.755,3.462 L17.755,2.321 L12.986,2.321 L12.986,1.493 L17.755,1.493 Z M17.722,4.345 L14.763,4.345 L14.763,6.216 L17.722,6.216 L17.722,4.345 Z M18.657,6.197 L21.644,6.197 L21.644,4.37 L18.657,4.37 L18.657,6.197 Z" id="Shape"></path>
            </g>
            <g id="Group" transform="translate(10.000000, 123.886000)" fill="#2A3052" fill-rule="nonzero">
                <path d="M1.538,13.363 L0.508,13.363 L0.508,1.372 L5.554,1.372 L5.554,5.664 L1.538,5.664 L1.538,13.363 Z M1.55,2.167 L1.55,3.155 L4.64,3.155 L4.64,2.167 L1.55,2.167 Z M4.615,3.927 L1.551,3.927 L1.551,4.891 L4.615,4.891 L4.615,3.927 Z M6.756,5.61 L6.756,1.396 L11.838,1.396 C11.876,7.229 11.876,10.566 11.838,11.41 C11.78,12.674 12.077,13.593 9.138,13.275 C9.085,13.036 9.008,12.755 8.908,12.431 C9.621,12.26 10.879,13.02 10.879,11.569 L10.879,5.609 L6.756,5.609 L6.756,5.61 Z M7.73,3.922 L7.73,4.829 L10.855,4.829 L10.855,3.922 L7.73,3.922 Z M7.722,2.182 L7.722,3.152 L10.827,3.152 L10.827,2.182 L7.722,2.182 Z" id="Shape"></path>
                <path d="M9.442,6.675 L9.442,7.509 L8.089,7.509 L8.089,9.089 L9.866,9.089 L9.866,9.955 L8.089,9.955 L8.089,13.103 L7.213,13.103 L7.213,9.955 C6.27,9.959 5.553,9.959 5.058,9.955 C4.938,10.517 4.938,12.375 2.938,13.296 C2.703,12.946 2.538,12.687 2.443,12.518 C3.12,12.16 3.971,11.713 4.189,9.985 L2.434,9.958 L2.443,9.089 L4.252,9.089 L4.252,7.509 L2.797,7.509 L2.797,6.675 L9.442,6.675 Z M7.215,7.515 L5.15,7.515 L5.15,9.091 L7.215,9.091 L7.215,7.515 Z M15.264,0.937 L16.254,1.048 L15.846,3.596 C15.977,3.606 16.656,3.606 17.881,3.596 C17.915,5.466 17.529,8.256 16.743,9.86 C17.588,10.769 18.12,11.386 18.338,11.712 L17.678,12.447 L16.324,10.829 C15.534,12.125 14.846,13.028 14.261,13.538 C14.164,13.398 13.963,13.142 13.66,12.773 C14.424,11.955 15.18,11.12 15.63,10.138 L13.884,8.398 L14.762,4.523 L13.66,4.523 L13.66,3.596 L14.895,3.596 L15.265,0.937 L15.264,0.937 Z M16.984,4.529 L15.734,4.529 C15.5049532,5.72081964 15.2368085,6.90479173 14.93,8.079 C15.394,8.531 15.767,8.897 16.047,9.178 C16.526,8.158 16.983,5.255 16.983,4.529 L16.984,4.529 Z M21.325,0.955 L22.237,1.267 C21.189,3.44 20.377,4.85 19.797,5.497 C22.437,5.267 23.891,5.107 24.157,5.017 C23.511,3.789 23.136,3.102 23.031,2.955 L23.882,2.542 C24.801,4.122 25.501,5.43 25.982,6.465 L25.057,6.931 L24.575,5.868 C21.238,6.253 19.218,6.452 18.516,6.465 C18.4702845,6.16173963 18.4189423,5.85935418 18.362,5.558 C19.153,5.124 20.141,3.589 21.325,0.955 Z M24.285,13.538 L24.285,12.698 L20.093,12.698 L20.093,13.538 L19.13,13.538 L19.13,7.713 L25.214,7.713 L25.214,13.538 L24.284,13.538 L24.285,13.538 Z M24.278,8.61 L20.117,8.61 L20.117,11.747 L24.277,11.747 L24.277,8.61 L24.278,8.61 Z" id="Shape"></path>
            </g>
            <path d="M15.423,16.71 L26.173,16.71 L26.173,17.702 L20.834,17.702 L20.834,21.213 C21.052,21.177 21.258,21.141 21.452,21.116 L21.452,22.073 C21.258,22.109 21.052,22.145 20.834,22.193 L20.834,23.332 L19.624,23.332 L19.624,22.363 C18.558,22.497 17.203,22.618 15.58,22.739 L15.423,21.673 L16.44,21.625 L16.44,17.702 L15.423,17.702 L15.423,16.71 Z M17.59,21.552 C18.34,21.504 19.019,21.443 19.624,21.371 L19.624,20.801 L17.59,20.801 L17.59,21.552 Z M17.59,19.906 L19.624,19.906 L19.624,19.24 L17.59,19.24 L17.59,19.906 Z M17.59,18.344 L19.624,18.344 L19.624,17.702 L17.59,17.702 L17.59,18.344 Z M16.815,12.436 L24.842,12.436 L24.842,16.177 L16.815,16.177 L16.815,12.437 L16.815,12.436 Z M23.631,15.306 L23.631,14.736 L18.014,14.736 L18.014,15.306 L23.631,15.306 Z M18.014,13.889 L23.631,13.889 L23.631,13.344 L18.014,13.344 L18.014,13.889 Z M21.67,19.264 L21.295,19.264 L21.295,18.247 L25.556,18.247 L25.556,19.204 C25.3802321,20.0099334 25.0197709,20.7640608 24.503,21.407 C24.987,21.746 25.568,22.037 26.234,22.303 L25.592,23.344 C24.866,23.005 24.236,22.63 23.716,22.218 C23.183,22.654 22.542,23.029 21.803,23.344 L21.161,22.375 C21.770592,22.1400898 22.3449751,21.8224462 22.868,21.431 C22.275,20.777 21.876,20.051 21.67,19.264 Z M23.631,20.681 C23.982,20.245 24.249,19.773 24.418,19.264 L22.748,19.264 C22.928,19.784 23.219,20.257 23.631,20.681 Z M33.304,12.001 C33.401,12.291 33.51,12.618 33.607,12.969 L38.28,12.969 L38.28,14.131 L27.493,14.131 L27.493,12.969 L32.227,12.969 C32.1280638,12.7201905 32.0145332,12.4774353 31.887,12.242 L33.304,12 L33.304,12.001 Z M36.307,23.247 L35.314,23.247 L35.011,22.133 L35.943,22.17 C36.367,22.17 36.585,22.024 36.585,21.734 L36.585,18.768 L29.2,18.768 L29.2,23.283 L28.002,23.283 L28.002,17.678 L37.784,17.678 L37.784,21.988 C37.784,22.823 37.287,23.248 36.307,23.248 L36.307,23.247 Z M29.357,14.627 L36.44,14.627 L36.44,17.194 L29.357,17.194 L29.357,14.626 L29.357,14.627 Z M35.229,16.25 L35.229,15.572 L30.569,15.572 L30.569,16.25 L35.229,16.25 Z M30.411,19.252 L35.399,19.252 L35.399,21.867 L30.41,21.867 L30.41,19.252 L30.411,19.252 Z M34.285,20.935 L34.285,20.185 L31.525,20.185 L31.525,20.935 L34.285,20.935 Z M46.21,12.012 L47.469,12.182 L47.396,13.102 L50.229,13.102 L50.229,14.24 L47.263,14.24 L47.154,14.966 L49.491,14.966 L49.491,21.806 L50.581,21.806 L50.581,22.969 L42.554,22.969 L42.554,21.806 L43.74,21.806 L43.74,14.966 L45.895,14.966 L46.004,14.24 L43.074,14.24 L43.074,13.102 L46.124,13.102 C46.149,12.727 46.185,12.363 46.21,12.012 Z M44.938,21.806 L48.292,21.806 L48.292,21.104 L44.938,21.104 L44.938,21.806 Z M44.938,20.112 L48.292,20.112 L48.292,19.434 L44.938,19.434 L44.938,20.112 Z M44.938,18.441 L48.292,18.441 L48.292,17.763 L44.938,17.763 L44.938,18.441 Z M44.938,16.771 L48.292,16.771 L48.292,16.104 L44.938,16.104 L44.938,16.77 L44.938,16.771 Z M40.919,16.819 C40.58,17.279 40.229,17.739 39.842,18.175 L39.43,16.819 C40.52,15.463 41.33,13.865 41.851,12.024 L42.989,12.557 C42.759,13.307 42.481,14.034 42.154,14.724 L42.154,23.308 L40.919,23.308 L40.919,16.818 L40.919,16.819 Z M55.397,19.009 L51.915,19.009 L51.915,17.679 L55.397,17.679 L55.397,19.009 Z M57.015,16.709 L67.765,16.709 L67.765,17.702 L62.427,17.702 L62.427,21.213 C62.645,21.177 62.851,21.141 63.044,21.116 L63.044,22.073 C62.851,22.109 62.644,22.145 62.427,22.193 L62.427,23.332 L61.217,23.332 L61.217,22.363 C60.151,22.497 58.795,22.618 57.173,22.739 L57.015,21.673 L58.032,21.625 L58.032,17.702 L57.015,17.702 L57.015,16.71 L57.015,16.709 Z M59.182,21.552 C59.932,21.504 60.611,21.443 61.216,21.371 L61.216,20.801 L59.182,20.801 L59.182,21.552 Z M59.182,19.906 L61.216,19.906 L61.216,19.24 L59.182,19.24 L59.182,19.906 Z M59.182,18.344 L61.216,18.344 L61.216,17.702 L59.182,17.702 L59.182,18.344 Z M58.408,12.436 L66.434,12.436 L66.434,16.177 L58.408,16.177 L58.408,12.437 L58.408,12.436 Z M65.223,15.306 L65.223,14.736 L59.606,14.736 L59.606,15.306 L65.223,15.306 Z M59.606,13.889 L65.223,13.889 L65.223,13.344 L59.606,13.344 L59.606,13.889 Z M63.262,19.264 L62.887,19.264 L62.887,18.247 L67.148,18.247 L67.148,19.204 C66.9722321,20.0099334 66.6117709,20.7640608 66.095,21.407 C66.579,21.746 67.16,22.037 67.826,22.303 L67.185,23.344 C66.458,23.005 65.829,22.63 65.308,22.218 C64.776,22.654 64.134,23.029 63.395,23.344 L62.754,22.375 C63.363592,22.1400898 63.9379751,21.8224462 64.461,21.431 C63.868,20.777 63.468,20.051 63.262,19.264 Z M65.223,20.681 C65.575,20.245 65.841,19.773 66.01,19.264 L64.34,19.264 C64.521,19.784 64.812,20.257 65.223,20.681 Z M73.916,17.606 L73.916,21.359 C74.182,21.237 74.449,21.116 74.715,20.983 L74.921,22.073 C74.231,22.339 73.431,22.63 72.511,22.933 L72.185,21.855 C72.524,21.746 72.693,21.528 72.693,21.213 L72.693,13.489 C75.223,13.114 77.233,12.69 78.723,12.206 L79.413,13.211 C78.819,13.405 78.129,13.598 77.342,13.792 C77.3511334,14.6643727 77.3834782,15.536348 77.439,16.407 L79.836,16.407 L79.836,17.606 L77.536,17.606 C77.572,18.041 77.62,18.405 77.693,18.719 C77.887,19.773 78.093,20.523 78.323,20.971 C78.541,21.431 78.71,21.673 78.807,21.673 C78.892,21.673 78.989,21.068 79.085,19.869 L80.127,20.439 C79.884,22.242 79.509,23.15 79.013,23.15 C78.601,23.15 78.177,22.823 77.729,22.194 C77.282,21.564 76.906,20.56 76.591,19.204 C76.474835,18.6762769 76.3860497,18.1428974 76.325,17.606 L73.915,17.606 L73.916,17.606 Z M76.119,14.058 C75.3874182,14.202497 74.652928,14.331858 73.916,14.446 L73.916,16.407 L76.216,16.407 C76.1632707,15.6249754 76.1309264,14.8417096 76.119,14.058 Z M75.841,20.438 C76.495,21.262 76.991,22 77.342,22.63 L76.398,23.283 C75.9682021,22.5144429 75.4951072,21.7709127 74.981,21.056 L75.841,20.438 Z M71.458,12.024 L72.608,12.569 C72.318,13.453 71.955,14.3 71.495,15.112 L71.495,23.308 L70.26,23.308 L70.26,16.952 C69.933,17.363 69.582,17.762 69.219,18.15 L68.807,16.819 C69.993,15.463 70.877,13.865 71.458,12.024 Z M87.802,12.012 L89.062,12.182 L88.988,13.102 L91.821,13.102 L91.821,14.24 L88.855,14.24 L88.746,14.966 L91.083,14.966 L91.083,21.806 L92.173,21.806 L92.173,22.969 L84.146,22.969 L84.146,21.806 L85.332,21.806 L85.332,14.966 L87.487,14.966 L87.597,14.24 L84.667,14.24 L84.667,13.102 L87.717,13.102 C87.741,12.727 87.777,12.363 87.802,12.012 Z M86.531,21.806 L89.884,21.806 L89.884,21.104 L86.531,21.104 L86.531,21.806 Z M86.531,20.112 L89.884,20.112 L89.884,19.434 L86.531,19.434 L86.531,20.112 Z M86.531,18.441 L89.884,18.441 L89.884,17.763 L86.531,17.763 L86.531,18.441 Z M86.531,16.771 L89.884,16.771 L89.884,16.104 L86.531,16.104 L86.531,16.77 L86.531,16.771 Z M82.511,16.819 C82.173,17.279 81.821,17.739 81.434,18.175 L81.022,16.819 C82.112,15.463 82.923,13.865 83.444,12.024 L84.582,12.557 C84.352,13.307 84.073,14.034 83.746,14.724 L83.746,23.308 L82.511,23.308 L82.511,16.818 L82.511,16.819 Z" id="Shape" fill="#020202" fill-rule="nonzero"></path>
        </g>
    </g>
</svg>