<svg width="300" height="199" viewBox="0 0 300 199" xmlns="http://www.w3.org/2000/svg"><title>traditional chinese higher</title><g fill="none" fill-rule="evenodd"><path fill="#F1F2F2" d="M0 0h300v199H0z"/><path d="M39.125 55.375V74.75H75.25V55.375H39.125zm0-1H75.25V34h1v20.375h36.125V34h1v20.375H149.5V34h1v20.375h36.125V34h1v20.375h36.125V34h1v20.375h36.125V34h1v20.375H299.5v1h-37.625V74.75H299.5v1h-37.625v19.375H299.5v1h-37.625V115.5H299.5v1h-37.625v19.375H299.5v1h-37.625v19.375H299.5v1h-37.625v19.375H299.5v1h-37.625V199h-1v-21.375H224.75V199h-1v-21.375h-36.125V199h-1v-21.375H150.5V199h-1v-21.375h-36.125V199h-1v-21.375H76.25V199h-1v-21.375H39.125V199h-1v-21.375H1.5v-1h36.625V157.25H1.5v-1h36.625v-19.375H1.5v-1h36.625V116.5H1.5v-1h36.625V96.125H1.5v-1h36.625V75.75H1.5v-1h36.625V55.375H1.5v-1h36.625V34h1v20.375zm221.75 1H224.75V74.75h36.125V55.375zm-37.125 0h-36.125V74.75h36.125V55.375zm-37.125 0H150.5V74.75h36.125V55.375zm-37.125 0h-36.125V74.75H149.5V55.375zm-37.125 0H76.25V74.75h36.125V55.375zM39.125 75.75v19.375H75.25V75.75H39.125zm221.75 0H224.75v19.375h36.125V75.75zm-37.125 0h-36.125v19.375h36.125V75.75zm-37.125 0H150.5v19.375h36.125V75.75zm-37.125 0h-36.125v19.375H149.5V75.75zm-37.125 0H76.25v19.375h36.125V75.75zm-73.25 20.375V115.5H75.25V96.125H39.125zm221.75 0H224.75V115.5h36.125V96.125zm-37.125 0h-36.125V115.5h36.125V96.125zm-37.125 0H150.5V115.5h36.125V96.125zm-37.125 0h-36.125V115.5H149.5V96.125zm-37.125 0H76.25V115.5h36.125V96.125zM39.125 116.5v19.375H75.25V116.5H39.125zm221.75 0H224.75v19.375h36.125V116.5zm-37.125 0h-36.125v19.375h36.125V116.5zm-37.125 0H150.5v19.375h36.125V116.5zm-37.125 0h-36.125v19.375H149.5V116.5zm-37.125 0H76.25v19.375h36.125V116.5zm-73.25 20.375v19.375H75.25v-19.375H39.125zm221.75 0H224.75v19.375h36.125v-19.375zm-37.125 0h-36.125v19.375h36.125v-19.375zm-37.125 0H150.5v19.375h36.125v-19.375zm-37.125 0h-36.125v19.375H149.5v-19.375zm-37.125 0H76.25v19.375h36.125v-19.375zm-73.25 20.375v19.375H75.25V157.25H39.125zm221.75 0H224.75v19.375h36.125V157.25zm-37.125 0h-36.125v19.375h36.125V157.25zm-37.125 0H150.5v19.375h36.125V157.25zm-37.125 0h-36.125v19.375H149.5V157.25zm-37.125 0H76.25v19.375h36.125V157.25z" fill="#DFDEDE"/><path stroke="#C2C2C2" stroke-width="2" d="M1 1h298v197H1z"/><path fill="#C2C2C2" d="M0 33h300v2H0z"/><g transform="translate(4 54.738)"><path d="M.9 64.063h290.625" stroke="#2A3052" stroke-width="1.211" stroke-linejoin="round"/><path stroke="#2A3052" stroke-width="3.633" stroke-linecap="round" stroke-linejoin="round" d="M36 104.75L67.2 46.7l31.725 33.938 45.225-57.226 45.225 63.375L222.412.837l34.2 22.576"/><path d="M184.613 95H149.55l-5.4-8.213-5.4 8.213h-35.063c-2.624 0-4.724 2.138-4.724 4.8v24.788c0 2.662 2.137 4.8 4.725 4.8h80.962c2.625 0 4.725-2.138 4.725-4.8V99.8c0-2.662-2.137-4.8-4.762-4.8z" fill="#E88024" fill-rule="nonzero"/><ellipse cx="8.363" cy="11.662" rx="8.137" ry="8.475" opacity=".6" transform="translate(248.25 11.75)" fill="#FFF" fill-rule="nonzero"/><ellipse stroke="#E88024" stroke-width="2.422" cx="256.613" cy="23.413" rx="8.137" ry="8.475"/><ellipse cx="9" cy="10.5" rx="8.137" ry="8.475" opacity=".6" transform="translate(27 94.25)" fill="#FFF" fill-rule="nonzero"/><ellipse stroke="#E88024" stroke-width="2.422" cx="36" cy="104.75" rx="8.137" ry="8.475"/></g><g fill="#FFF"><path d="M162.574 172.296h1.345l.397-15.376h-2.15zM162.173 175.892c.084.823.694 1.033 1.19 1.033.497 0 1.044-.373 1.044-1.033 0-.98-.693-1.212-1.157-1.212-.464 0-1.162.388-1.077 1.212z"/><g><path d="M145.437 175.635c.364.311.673.59.928.837-.742 1.09-1.88 2.045-2.495 2.47-.38-.487-.644-.83-.793-1.025.732-.537 1.519-1.297 2.36-2.282zM149.756 166.973v8.308h-5.952v-8.308h5.952zm-1.446 5.782h-2.943v1.354h2.943v-1.354zm0-2.339h-2.943v1.353h2.943v-1.353zm0-2.306h-2.943v1.353h2.943v-1.353zM158.804 158.06v-1.38h-10.48c-.637-1.397-.88-1.944-.727-1.64l-1.864.305.729 1.335h-10.625v1.38h2.121v2.641h19.202v-1.217h-17.537v-1.424h19.181zM138.745 161.894h16.998v3.69h-16.998v-3.69zm1.72 1.059v1.562h13.587v-1.562h-13.586zM137.252 166.735c1.829-.018 3.665-.018 5.508 0v10.088c0 .533.461 2.294-2.95 1.925l-.362-1.4c1.288.168 1.932-.008 1.932-.525v-2.251h-2.863c-.384 2.136-.916 3.528-1.595 4.176-.21-.176-.571-.5-1.085-.972 1.9-2.57 1.397-10.217 1.415-11.041zm1.396 4.648v1.947h2.668v-1.947h-2.668zm2.704-3.31h-2.658v2.099h2.658v-2.1z"/><path d="M155.24 173.616l-.812.522c-.793-1.294-1.381-2.166-1.763-2.618-.02 1.537-.076 2.648-.17 3.333-.309 2.225-1.132 3.166-1.683 3.945l-1.168-1.035-.388.5c-1.024-1.083-1.695-1.753-2.012-2.011.337-.318.631-.6.883-.843a13.705 13.705 0 0 1 1.915 1.819c.255-.461.77-1.157.994-2.475.298-1.761.095-6.228.226-8.091 2.31-.008 4.103-.008 5.376 0v9.978c-.06.683 1.297.563 1.297 0l.275-2.845c.231.096.62.237 1.166.421-.257 1.738-.179 3.846-1.166 4.047-.7.033-2.97.513-2.97-.928v-3.72zm0-.449v-5.069h-2.585c.014 1.046.02 1.984.015 2.813l.806-.474c.884 1.234 1.471 2.127 1.763 2.68v.05z"/></g></g><g fill="#2A3052"><path d="M25.074 188.15h-1.172v-13.646h5.743v4.884h-4.57v8.761zm.015-12.742v1.125h3.516v-1.125H25.09zm3.488 2.004H25.09v1.096h3.487v-1.096zM31.013 179.326v-4.795h5.783c.044 6.638.044 10.437 0 11.396-.065 1.44.272 2.485-3.071 2.123a12.95 12.95 0 0 0-.263-.96c.812-.196 2.244.67 2.244-.982v-6.782h-4.693zm1.109-1.92v1.032h3.556v-1.032h-3.556zm-.01-1.98v1.104h3.535v-1.105h-3.535z"/><path d="M34.07 180.538v.95h-1.54v1.798h2.022v.986H32.53v3.582h-.997v-3.582c-1.072.004-1.89.004-2.452 0-.137.639-.137 2.753-2.413 3.802a15.979 15.979 0 0 1-.564-.886c.771-.407 1.74-.915 1.988-2.882l-1.997-.032.01-.988h2.058v-1.798h-1.655v-.95h7.561zm-2.534.957h-2.35v1.793h2.35v-1.793zM40.696 174.009l1.127.126-.465 2.9c.15.01.921.01 2.316 0 .039 2.127-.4 5.304-1.295 7.129.961 1.034 1.567 1.736 1.815 2.106l-.75.837-1.542-1.841c-.9 1.475-1.682 2.502-2.347 3.083-.111-.16-.34-.45-.685-.871.87-.93 1.73-1.88 2.242-2.998l-1.987-1.98.999-4.41H38.87v-1.056h1.405l.421-3.025zm1.956 4.088h-1.421a63.052 63.052 0 0 1-.916 4.04c.528.513.953.93 1.272 1.25.545-1.161 1.065-4.464 1.065-5.29zM47.593 174.029l1.038.355c-1.192 2.473-2.117 4.077-2.776 4.814 3.004-.262 4.658-.444 4.962-.547-.736-1.396-1.163-2.178-1.283-2.345l.97-.47c1.045 1.798 1.841 3.286 2.39 4.464l-1.054.53-.548-1.21c-3.798.438-6.096.664-6.895.68-.06-.392-.118-.736-.175-1.032.9-.495 2.023-2.241 3.371-5.24zM50.961 188.349v-.956h-4.77v.956h-1.095v-6.629h6.924v6.629H50.96zm-.007-5.608h-4.736v3.57h4.736v-3.57z"/></g><g fill="#2A3052"><path d="M248.77 92.16l1.067.43c-1.163 2.548-1.963 4.036-2.4 4.464l2.042-.285 1.129-1.958 1.058.39c-1.682 2.895-3.106 5.153-3.826 5.697l2.768-.578-.432-1.451.868-.305c.642 1.722.963 2.763.963 3.123a24.54 24.54 0 0 0-.963.269l-.193-.768c-2.375.604-3.81.906-4.306.906-.113-.342-.214-.69-.303-1.044.69-.167 2.237-2.486 2.624-3.216l-2.472.37c-.101-.374-.196-.72-.285-1.039.502-.157 1.39-1.826 2.66-5.005zM250.45 102.532c.4-.15.695-.248.89-.293.65 1.618.974 2.52.974 2.708-.053.059-.359.201-.917.429a50.753 50.753 0 0 0-.947-2.844zM249.46 102.68c.075.294.636 3.141.636 3.256l-1.072.258c-.224-1.768-.389-2.862-.494-3.281.412-.127.49-.127.93-.234zM246.718 102.903l1.03.126c-.136 1.803-.326 3.017-.572 3.644a41.164 41.164 0 0 0-1.027-.303c.307-1.07.496-2.227.569-3.467zM251.836 94.28v1.11h3.913v2.433h-3.433v1.105h8.064v-1.105h-3.49v-2.434h3.818v-1.11h-3.818v-2.023h-1.141v2.024zM258.74 106.965v-.74h-4.777v.74h-1.114v-6.428h7.011v6.428h-1.12zm.031-5.338h-4.796v3.494h4.796v-3.494zM268.929 93.876v-1.64h1.182v1.64h6.284v1.09h-6.284v1.503h5.026v4.605h-4.017c.807 1.4 2.747 2.877 5.82 4.432-.06.038-.32.364-.776.978-1.721-.824-5.044-3.434-6.053-5.41l.01 5.872h-1.192c-.008-4.036-.03-5.99-.065-5.862-1.05 1.864-3.362 4.24-6.097 5.4l-.658-1.012c2.9-1.353 4.838-2.82 5.815-4.398l-4.042.01V96.47h5.047v-1.503h-6.279v-1.09h6.279zm-.044 3.756h-3.895v2.464h3.895v-2.464zm1.232 2.438h3.934v-2.405h-3.934v2.405z"/></g><g opacity=".9" fill="#6D6E71"><path d="M262.515 137.366h.928v-7.488l1.23 2.193.582-.902c-1.095-1.423-1.698-2.189-1.812-2.298l.01-.813h1.482v-.904h-1.481l-.01-2.554h-.93v2.554h-1.77v.904h1.657c-.1 1.013-1.39 3.915-2.061 4.62.013.004.163.372.451 1.105.779-1.394 1.193-2.23 1.724-3.776v7.36zM248.086 137.421V125.4h9.411v12.022h-1.069v-.893h-7.292v.893h-1.05zm8.436-11.17h-7.385v2.389h7.385v-2.39zm-.024 3.26h-7.337v2.459h7.337v-2.46zm-.014 3.427h-7.309v2.592h7.31v-2.592zM265.692 125.4h7.701v.839h-2.311v1.043h2.081v3.272h-7.143v-3.272h2.101v-1.043h-2.429v-.84zm4.564.904h-1.354v.996h1.354v-.996zm.796 1.79v1.7h1.21v-1.7h-1.21zm-.811-.01h-1.284v1.707h1.284v-1.708zm-2.058-.023h-1.233v1.746h1.233v-1.746zM272.775 131.213v.812h-6.454v-.812zM273.393 133.088v.776h-3.46v3.497h-.857v-3.497h-3.372v-.776z"/><path d="M270.985 135.05c.292-.294.49-.481.595-.563.362.276 1.616 1.5 2.073 2.19-.157.17-.382.392-.677.668-.226-.445-.89-1.21-1.99-2.295zM267.49 134.203c.304.26.517.44.637.54-.757 1.003-1.517 1.785-2.281 2.345a9.652 9.652 0 0 1-.591-.717c1.205-.976 1.95-1.698 2.235-2.168z"/></g><path fill="#D8D8D8" d="M19.924 11.924v-1.64l6.67.028-.476-1.048 1.978-.336.425 1.384h6.553v1.612zM22.563 12.656h9.93v3.608h-9.93v-3.608zm8.26 1.385h-6.555v.844h6.555v-.844zM22.339 24.794h-1.683v-7.817l13.741-.048v5.593c0 .508.22 1.773-1.334 2.151-.496.121-1.224.06-2.13.076-.197-.719-.338-1.235-.422-1.55 1.002-.098 2.206.396 2.206-.785v-3.951H22.339v6.33z"/><path d="M31.05 19.107V22.8h-6.996v-3.693h6.995zm-1.563 1.337h-3.875v1.065h3.875v-1.065z" fill="#D8D8D8"/><path fill="#020202" d="M19.924 11.924v-1.64l6.67.028-.476-1.048 1.978-.336.425 1.384h6.553v1.612zM22.563 12.656h9.93v3.608h-9.93v-3.608zm8.26 1.385h-6.555v.844h6.555v-.844zM22.339 24.794h-1.683v-7.817l13.741-.048v5.593c0 .508.22 1.773-1.334 2.151-.496.121-1.224.06-2.13.076-.197-.719-.338-1.235-.422-1.55 1.002-.098 2.206.396 2.206-.785v-3.951H22.339v6.33z"/><path d="M31.05 19.107V22.8h-6.996v-3.693h6.995zm-1.563 1.337h-3.875v1.065h3.875v-1.065zM39.529 11.05l-.838-1.825 1.704-.457c.494 1.157.775 1.918.842 2.283h2.553v1.709h-4.006v1.904h3.136c.003 2.146-.028 4.051-.094 5.716-.098 2.498-.06 4.562-3.26 3.936a12.023 12.023 0 0 1-.402-1.508c.933-.077 2.03.669 2.03-1.678 0-1.564.037-3.172.113-4.823H39.74c-.143 2.176-.31 3.69-.502 4.545-.353 1.567-.994 2.739-1.491 3.698a24.26 24.26 0 0 0-1.28-1.124c1.472-2.236 1.824-7.68 1.64-10.666a76.76 76.76 0 0 0-1.326 0v-1.71h2.747z" fill="#020202"/><path d="M43.045 15.25c.435.646.522.796.939 1.41 1.806-1.773 3.228-4.953 3.538-5.83.593 1.632 1.966 4.057 3.88 5.691.347-.505.67-.986.968-1.444-2.275-1.931-3.865-5.137-4.061-6.047l-1.585.002c-1.348 3.212-2.575 5.285-3.68 6.217z" fill="#020202"/><path d="M45.487 16.536c.156-.148.885-1.062 1.047-1.192.954.54 3.125 2.296 3.697 3.011-.547.674-.894 1.1-1.042 1.276-.782-.905-2.113-2.247-3.702-3.095zM45.269 19.576c-.601.716-.949 1.127-1.042 1.232 1.215.648 5.113 3.036 5.878 3.951a59.49 59.49 0 0 1 1.143-1.361c-1.502-1.322-3.495-2.596-5.98-3.822z" fill="#020202"/></g></svg>