<?xml version="1.0" encoding="UTF-8"?>
<svg width="299px" height="197px" viewBox="0 0 299 197" version="1.1" xmlns="http://www.w3.org/2000/svg" xmlns:xlink="http://www.w3.org/1999/xlink">
    <!-- Generator: Sketch 52.3 (67297) - http://www.bohemiancoding.com/sketch -->
    <title>Traditional Chinese Matches</title>
    <desc>Created with Sketch.</desc>
    <defs>
        <path d="M178.230195,15.449 L189.696195,15.449 L189.696195,16.203 L183.859195,16.203 L183.859195,20.311 C184.119195,20.272 184.379195,20.233 184.613195,20.194 L184.613195,20.935 C184.379195,20.974 184.119195,21.013 183.859195,21.065 L183.859195,22.326 L182.949195,22.326 L182.949195,21.182 C181.714195,21.325 180.193195,21.455 178.386195,21.559 L178.269195,20.753 L179.478195,20.701 L179.478195,16.203 L178.230195,16.203 L178.230195,15.449 Z M180.323195,20.662 C181.285195,20.597 182.169195,20.519 182.949195,20.428 L182.949195,19.544 L180.323195,19.544 L180.323195,20.662 Z M180.323195,18.855 L182.949195,18.855 L182.949195,17.88 L180.323195,17.88 L180.323195,18.855 Z M180.323195,17.178 L182.949195,17.178 L182.949195,16.203 L180.323195,16.203 L180.323195,17.178 Z M179.881195,10.847 L188.097195,10.847 L188.097195,14.591 L179.881195,14.591 L179.881195,10.847 Z M187.200195,13.915 L187.200195,13.044 L180.778195,13.044 L180.778195,13.915 L187.200195,13.915 Z M180.778195,12.381 L187.200195,12.381 L187.200195,11.549 L180.778195,11.549 L180.778195,12.381 Z M184.951195,17.841 L184.535195,17.841 L184.535195,17.074 L188.968195,17.074 L188.968195,17.802 C188.721195,18.803 188.279195,19.661 187.655195,20.389 C188.227195,20.818 188.903195,21.195 189.709195,21.533 L189.228195,22.313 C188.370195,21.91 187.642195,21.468 187.057195,20.987 C186.459195,21.507 185.731195,21.949 184.886195,22.313 L184.405195,21.585 C185.185195,21.247 185.861195,20.857 186.420195,20.389 C185.692195,19.635 185.211195,18.79 184.951195,17.841 Z M186.992195,19.83 C187.512195,19.232 187.889195,18.569 188.123195,17.841 L185.757195,17.841 C185.991195,18.582 186.394195,19.245 186.992195,19.83 Z M200.681195,13.486 C201.513195,14.578 202.137195,15.527 202.579195,16.346 L201.916195,16.814 C201.734195,16.476 201.526195,16.125 201.318195,15.787 C200.226195,15.969 198.913195,16.138 197.379195,16.268 L197.925195,16.489 C197.795195,16.749 197.678195,17.009 197.548195,17.256 L201.318195,17.256 L201.318195,18.023 C200.980195,18.907 200.395195,19.687 199.563195,20.337 C200.499195,20.844 201.604195,21.234 202.878195,21.507 L202.358195,22.287 C200.954195,21.949 199.758195,21.468 198.796195,20.857 C197.782195,21.468 196.495195,21.962 194.961195,22.326 L194.532195,21.559 C195.923195,21.247 197.080195,20.831 198.016195,20.324 C197.418195,19.869 196.924195,19.362 196.508195,18.803 C196.092195,19.284 195.650195,19.7 195.169195,20.051 L194.506195,19.466 C195.650195,18.66 196.521195,17.607 197.093195,16.294 L195.403195,16.411 L195.156195,15.67 C196.131195,15.332 197.236195,14.578 198.471195,13.421 C197.717195,13.512 196.755195,13.603 195.611195,13.681 L195.494195,12.914 C195.832195,12.862 196.157195,12.654 196.482195,12.316 C196.950195,11.809 197.418195,11.133 197.912195,10.301 L198.757195,10.626 C198.120195,11.562 197.522195,12.303 196.950195,12.849 C197.795195,12.771 198.588195,12.68 199.316195,12.589 C199.654195,12.225 199.992195,11.861 200.330195,11.471 L201.149195,11.861 C199.628195,13.551 198.263195,14.799 197.041195,15.592 C198.497195,15.436 199.771195,15.267 200.837195,15.059 C200.577195,14.669 200.304195,14.292 200.018195,13.902 L200.681195,13.486 Z M198.770195,19.856 C199.485195,19.336 200.018195,18.738 200.369195,18.075 L197.054195,18.075 C197.041195,18.088 197.028195,18.101 197.028195,18.114 C197.470195,18.777 198.055195,19.362 198.770195,19.856 Z M193.882195,10.366 L194.701195,10.756 C193.999195,12.186 192.868195,13.447 191.308195,14.552 L191.035195,13.642 C192.335195,12.68 193.284195,11.588 193.882195,10.366 Z M194.103195,13.668 L194.909195,14.045 C194.597195,14.708 194.194195,15.332 193.726195,15.93 L193.726195,22.222 L192.816195,22.222 L192.816195,16.905 C192.361195,17.347 191.867195,17.75 191.347195,18.127 L191.074195,17.23 C192.452195,16.19 193.453195,14.994 194.103195,13.668 Z M212.082195,13.265 C211.978195,13.629 211.887195,13.98 211.783195,14.318 C211.965195,15.8 212.355195,17.126 212.966195,18.27 C213.577195,16.879 213.915195,15.215 213.967195,13.265 L212.082195,13.265 Z M212.472195,19.219 C211.874195,18.205 211.458195,17.061 211.198195,15.8 C211.042195,16.125 210.873195,16.424 210.704195,16.697 L210.119195,15.969 C210.886195,14.565 211.406195,12.654 211.679195,10.249 L212.602195,10.405 C212.511195,11.094 212.407195,11.744 212.277195,12.368 L215.735195,12.368 L215.735195,13.265 L214.838195,13.265 C214.773195,15.605 214.331195,17.568 213.499195,19.167 C214.136195,20.103 214.942195,20.922 215.904195,21.611 L215.345195,22.352 C214.409195,21.689 213.629195,20.922 213.005195,20.038 C212.407195,20.935 211.692195,21.702 210.834195,22.339 L210.327195,21.52 C211.198195,20.909 211.913195,20.142 212.472195,19.219 Z M204.724195,11.055 L206.817195,11.055 L206.817195,10.392 L207.675195,10.392 L207.675195,11.055 L209.781195,11.055 L209.781195,12.537 L210.314195,12.537 L210.314195,13.317 L209.781195,13.317 L209.781195,14.799 L207.675195,14.799 L207.675195,15.449 L209.963195,15.449 L209.963195,17.568 L207.506195,17.568 C207.363195,17.828 207.233195,18.062 207.103195,18.283 L209.963195,18.283 L209.963195,18.881 C209.573195,19.531 209.040195,20.116 208.338195,20.636 C208.975195,20.896 209.625195,21.208 210.301195,21.546 L209.794195,22.209 C209.040195,21.793 208.299195,21.442 207.558195,21.13 C206.752195,21.598 205.790195,21.988 204.672195,22.326 L204.165195,21.65 C205.101195,21.39 205.920195,21.091 206.622195,20.753 C206.063195,20.545 205.517195,20.35 204.971195,20.194 C205.244195,19.804 205.504195,19.401 205.751195,19.011 L204.087195,19.011 L204.087195,18.283 L206.193195,18.283 C206.336195,18.036 206.479195,17.802 206.609195,17.568 L204.542195,17.568 L204.542195,15.449 L206.817195,15.449 L206.817195,14.799 L204.724195,14.799 L204.724195,13.317 L204.191195,13.317 L204.191195,12.537 L204.724195,12.537 L204.724195,11.055 Z M207.467195,20.285 C208.078195,19.895 208.572195,19.479 208.962195,19.011 L206.674195,19.011 C206.466195,19.323 206.284195,19.609 206.128195,19.856 C206.570195,19.973 207.012195,20.116 207.467195,20.285 Z M208.975195,14.136 L208.975195,13.239 L207.675195,13.239 L207.675195,14.136 L208.975195,14.136 Z M207.675195,12.615 L208.975195,12.615 L208.975195,11.731 L207.675195,11.731 L207.675195,12.615 Z M206.817195,14.136 L206.817195,13.239 L205.530195,13.239 L205.530195,14.136 L206.817195,14.136 Z M205.530195,12.615 L206.817195,12.615 L206.817195,11.731 L205.530195,11.731 L205.530195,12.615 Z M209.157195,16.918 L209.157195,16.086 L207.675195,16.086 L207.675195,16.918 L209.157195,16.918 Z M206.817195,16.918 L206.817195,16.086 L205.348195,16.086 L205.348195,16.918 L206.817195,16.918 Z M228.462195,11.718 L228.462195,14.617 L227.526195,14.617 L227.526195,12.615 L218.374195,12.615 L218.374195,14.617 L217.438195,14.617 L217.438195,11.718 L222.547195,11.718 C222.365195,11.25 222.170195,10.834 221.962195,10.457 L223.028195,10.275 C223.210195,10.704 223.392195,11.185 223.561195,11.718 L228.462195,11.718 Z M219.440195,14.019 L226.421195,14.019 L226.421195,14.89 C225.576195,15.488 224.627195,16.06 223.587195,16.632 L223.587195,17.503 L228.709195,17.503 L228.709195,18.413 L223.587195,18.413 L223.587195,21.169 C223.587195,21.884 223.210195,22.248 222.456195,22.248 L220.857195,22.248 L220.636195,21.39 C221.091195,21.403 221.585195,21.416 222.131195,21.416 C222.469195,21.416 222.638195,21.221 222.638195,20.844 L222.638195,18.413 L217.204195,18.413 L217.204195,17.503 L222.638195,17.503 L222.638195,16.229 C223.691195,15.683 224.484195,15.228 225.017195,14.89 L219.440195,14.89 L219.440195,14.019 Z M234.702195,12.628 L234.702195,21.494 L233.792195,21.494 L233.792195,20.753 L231.426195,20.753 L231.426195,21.871 L230.516195,21.871 L230.516195,12.628 L231.725195,12.628 C231.985195,11.9 232.167195,11.146 232.284195,10.366 L233.220195,10.496 C233.064195,11.263 232.869195,11.978 232.609195,12.628 L234.702195,12.628 Z M231.426195,19.882 L233.792195,19.882 L233.792195,17.035 L231.426195,17.035 L231.426195,19.882 Z M231.426195,16.19 L233.792195,16.19 L233.792195,13.512 L231.426195,13.512 L231.426195,16.19 Z M236.964195,15.644 C237.900195,16.723 238.602195,17.672 239.096195,18.478 L238.355195,18.998 C237.822195,18.14 237.107195,17.178 236.210195,16.112 L236.964195,15.644 Z M241.423195,12.641 C241.423195,16.957 241.358195,19.635 241.228195,20.649 C241.098195,21.637 240.500195,22.144 239.408195,22.144 C239.148195,22.144 238.706195,22.118 238.082195,22.092 L237.861195,21.234 C238.407195,21.26 238.875195,21.273 239.278195,21.273 C239.889195,21.273 240.240195,20.935 240.344195,20.272 C240.422195,19.544 240.474195,17.295 240.500195,13.551 L236.925195,13.551 C236.561195,14.37 236.132195,15.111 235.625195,15.774 L235.066195,15.033 C235.976195,13.759 236.587195,12.199 236.925195,10.353 L237.848195,10.47 C237.692195,11.237 237.510195,11.965 237.276195,12.641 L241.423195,12.641 Z M248.846195,12.836 L250.731195,12.836 C250.874195,12.485 250.978195,12.121 251.056195,11.757 L248.339195,11.757 L248.339195,10.912 L254.748195,10.912 L254.748195,11.757 L251.979195,11.757 C251.901195,12.121 251.784195,12.485 251.641195,12.836 L254.254195,12.836 L254.254195,19.752 L248.846195,19.752 L248.846195,12.836 Z M253.370195,18.985 L253.370195,17.633 L249.730195,17.633 L249.730195,18.985 L253.370195,18.985 Z M249.730195,16.892 L253.370195,16.892 L253.370195,15.605 L249.730195,15.605 L249.730195,16.892 Z M249.730195,14.864 L253.370195,14.864 L253.370195,13.616 L249.730195,13.616 L249.730195,14.864 Z M250.432195,19.895 L251.043195,20.428 C250.354195,21.13 249.509195,21.754 248.508195,22.287 L247.975195,21.624 C248.950195,21.13 249.769195,20.545 250.432195,19.895 Z M252.707195,19.882 C253.591195,20.454 254.345195,21.039 254.956195,21.611 L254.358195,22.209 C253.825195,21.65 253.084195,21.052 252.148195,20.428 L252.707195,19.882 Z M244.244195,12.55 C244.621195,12.914 244.959195,13.252 245.258195,13.577 C245.765195,13.031 246.220195,12.42 246.636195,11.744 L243.386195,11.744 L243.386195,10.912 L247.598195,10.912 L247.598195,11.627 C247.052195,12.602 246.441195,13.447 245.791195,14.162 C246.025195,14.422 246.220195,14.669 246.402195,14.903 L248.079195,14.903 L248.079195,15.475 C247.871195,16.502 247.637195,17.295 247.364195,17.867 L246.623195,17.594 C246.857195,17.087 247.052195,16.476 247.208195,15.774 L245.791195,15.774 L245.791195,21.208 C245.791195,21.884 245.453195,22.235 244.803195,22.235 L243.581195,22.235 L243.386195,21.39 C243.776195,21.429 244.140195,21.455 244.491195,21.455 C244.751195,21.455 244.894195,21.299 244.894195,20.987 L244.894195,15.774 L242.957195,15.774 L242.957195,14.903 L245.388195,14.903 C244.881195,14.305 244.270195,13.655 243.555195,12.979 L244.244195,12.55 Z M256.867195,10.678 C257.608195,11.25 258.232195,11.835 258.726195,12.407 L258.089195,13.044 C257.647195,12.498 257.023195,11.9 256.243195,11.276 L256.867195,10.678 Z M256.698195,13.876 C257.400195,14.461 257.985195,15.059 258.453195,15.657 L257.816195,16.281 C257.387195,15.709 256.802195,15.111 256.074195,14.474 L256.698195,13.876 Z M257.803195,17.399 L258.596195,17.698 C258.115195,19.271 257.582195,20.74 257.010195,22.118 L256.165195,21.767 C256.789195,20.337 257.335195,18.881 257.803195,17.399 Z M259.168195,10.873 L263.276195,10.873 L263.276195,18.816 L259.168195,18.816 L259.168195,10.873 Z M262.366195,17.958 L262.366195,16.307 L260.078195,16.307 L260.078195,17.958 L262.366195,17.958 Z M260.078195,15.488 L262.366195,15.488 L262.366195,13.967 L260.078195,13.967 L260.078195,15.488 Z M260.078195,13.135 L262.366195,13.135 L262.366195,11.731 L260.078195,11.731 L260.078195,13.135 Z M262.327195,19.245 C262.938195,20.129 263.406195,20.909 263.744195,21.585 L263.016195,22.092 C262.678195,21.364 262.210195,20.558 261.638195,19.674 L262.327195,19.245 Z M259.987195,19.284 L260.767195,19.648 C260.377195,20.558 259.870195,21.429 259.246195,22.287 L258.453195,21.871 C259.103195,21 259.610195,20.142 259.987195,19.284 Z M264.381195,11.536 L265.265195,11.536 L265.265195,19.622 L264.381195,19.622 L264.381195,11.536 Z M266.435195,22.118 L265.031195,22.118 L264.823195,21.234 C265.265195,21.26 265.694195,21.286 266.110195,21.286 C266.435195,21.286 266.604195,21.091 266.604195,20.727 L266.604195,10.418 L267.488195,10.418 L267.488195,20.961 C267.488195,21.728 267.137195,22.118 266.435195,22.118 Z" id="path-1"></path>
        <path d="M270.925781,15.8076172 L271.808105,15.8076172 C272.36247,15.7991536 272.798338,15.653159 273.115722,15.3696289 C273.433107,15.0860988 273.591797,14.7031274 273.591797,14.2207031 C273.591797,13.1373644 273.052251,12.5957031 271.973144,12.5957031 C271.465329,12.5957031 271.060141,12.7406398 270.757568,13.0305176 C270.454995,13.3203953 270.303711,13.7044247 270.303711,14.1826172 L269.129394,14.1826172 C269.129394,13.4505172 269.397051,12.8422062 269.932373,12.357666 C270.467694,11.8731258 271.147945,11.6308594 271.973144,11.6308594 C272.844893,11.6308594 273.528318,11.8614886 274.023437,12.3227539 C274.518557,12.7840192 274.766113,13.4251261 274.766113,14.2460938 C274.766113,14.648114 274.635987,15.037433 274.375732,15.4140625 C274.115477,15.790692 273.76107,16.0721019 273.3125,16.2583008 C273.820315,16.4191089 274.212808,16.6857078 274.48999,17.0581055 C274.767172,17.4305032 274.905761,17.885414 274.905761,18.4228516 C274.905761,19.2522828 274.634931,19.9103166 274.093261,20.3969727 C273.551592,20.8836287 272.847009,21.1269531 271.979492,21.1269531 C271.111975,21.1269531 270.406334,20.8920922 269.862549,20.4223633 C269.318763,19.9526344 269.046875,19.3326861 269.046875,18.5625 L270.227539,18.5625 C270.227539,19.0491561 270.386229,19.4384751 270.703613,19.7304688 C271.020997,20.0224624 271.446286,20.168457 271.979492,20.168457 C272.546552,20.168457 272.980304,20.0203465 273.280761,19.7241211 C273.581219,19.4278957 273.731445,19.0026069 273.731445,18.4482422 C273.731445,17.9108046 273.566408,17.4982111 273.236328,17.2104492 C272.906248,16.9226874 272.430179,16.7745769 271.808105,16.7661133 L270.925781,16.7661133 L270.925781,15.8076172 Z" id="path-2"></path>
        <path d="M23.912,11.97 C23.548,12.642 23.128,13.272 22.666,13.832 L21.518,13.118 C22.47,11.984 23.156,10.766 23.562,9.464 L24.85,9.744 C24.738,10.108 24.612,10.444 24.486,10.766 L27.846,10.766 L27.846,11.97 L26.166,11.97 C26.418,12.362 26.628,12.74 26.796,13.09 L25.564,13.552 C25.34,13.006 25.074,12.474 24.766,11.97 L23.912,11.97 Z M29.736,11.97 C29.428,12.628 29.092,13.23 28.7,13.79 L27.58,13.076 C28.364,11.942 28.91,10.724 29.246,9.436 L30.548,9.716 C30.436,10.08 30.324,10.43 30.212,10.766 L34.132,10.766 L34.132,11.97 L32.186,11.97 C32.438,12.362 32.634,12.726 32.802,13.062 L31.584,13.524 C31.36,12.992 31.094,12.474 30.8,11.97 L29.736,11.97 Z M24.346,13.272 L25.466,13.804 C25.27,14.336 25.018,14.868 24.738,15.372 L24.738,22.344 L23.422,22.344 L23.422,17.234 C22.988,17.738 22.526,18.214 22.022,18.662 L21.602,17.262 C22.834,16.128 23.758,14.798 24.346,13.272 Z M25.648,15.246 L31.262,15.246 L31.262,13.902 L32.578,13.902 L32.578,15.246 L34.244,15.246 L34.244,16.534 L32.578,16.534 L32.578,20.888 C32.578,21.854 32.102,22.344 31.15,22.344 L29.064,22.344 L28.77,21.07 C29.442,21.126 30.072,21.154 30.674,21.154 C31.066,21.154 31.262,20.944 31.262,20.552 L31.262,16.534 L25.648,16.534 L25.648,15.246 Z M27.608,17.108 C28.476,18.074 29.148,18.914 29.61,19.628 L28.574,20.342 C28.084,19.558 27.412,18.704 26.572,17.752 L27.608,17.108 Z M41.51,9.492 L42.49,9.492 C44.254,11.48 46.27,13.048 48.566,14.196 L47.852,15.47 C47.082,15.05 46.354,14.602 45.682,14.126 L45.682,15.12 L38.318,15.12 L38.318,14.098 C37.618,14.602 36.876,15.064 36.092,15.498 L35.392,14.21 C37.842,12.95 39.886,11.368 41.51,9.492 Z M38.668,13.846 L45.304,13.846 C44.072,12.922 42.966,11.872 42,10.696 C41.062,11.844 39.956,12.894 38.668,13.846 Z M46.564,16.618 L46.564,22.428 L45.276,22.428 L45.276,21.672 L38.724,21.672 L38.724,22.428 L37.436,22.428 L37.436,16.618 L46.564,16.618 Z M38.724,20.412 L45.276,20.412 L45.276,17.864 L38.724,17.864 L38.724,20.412 Z" id="path-3"></path>
        <path d="M139.652,164.996 L139.652,165.964 C139.652,166.096 139.63,166.228 139.63,166.36 L141.544,166.36 L141.544,164.996 L139.652,164.996 Z M141.544,163.654 L141.544,162.224 L139.652,162.224 L139.652,163.654 L141.544,163.654 Z M139.52,167.702 C139.3,169.11 138.86,170.32 138.178,171.288 L136.924,170.144 C137.672,169.066 138.046,167.702 138.068,166.074 L138.068,160.75 L143.106,160.75 L143.106,169.704 C143.106,170.672 142.578,171.178 141.522,171.178 L140.488,171.178 L140.07,169.616 C140.4,169.66 140.708,169.682 141.016,169.682 C141.368,169.682 141.544,169.484 141.544,169.11 L141.544,167.702 L139.52,167.702 Z M138.926,153.622 L137.188,153.622 L137.188,152.126 L145.944,152.126 C145.768,151.774 145.57,151.444 145.372,151.158 L147.44,150.806 C147.66,151.202 147.858,151.642 148.078,152.126 L156.812,152.126 L156.812,153.622 L140.774,153.622 L140.774,154.502 L155.492,154.502 L155.492,155.888 L138.926,155.888 L138.926,153.622 Z M155.888,170.87 L154.766,170.87 C153.974,170.87 153.578,170.474 153.578,169.726 L153.578,166.844 L152.962,167.262 C152.654,166.646 152.258,166.008 151.774,165.326 C151.752,166.778 151.664,167.9 151.488,168.692 C151.268,169.484 150.828,170.342 150.146,171.266 L149.046,170.298 L148.562,170.848 C148.034,170.188 147.462,169.594 146.868,169.11 L147.814,168.23 C148.342,168.626 148.826,169.066 149.266,169.572 C149.574,169.066 149.772,168.604 149.904,168.186 C150.08,167.57 150.19,166.558 150.19,165.128 L150.19,160.772 L155.162,160.772 L155.162,169.264 C155.162,169.396 155.206,169.484 155.338,169.484 L155.646,169.484 C155.734,169.484 155.822,169.352 155.888,169.132 C155.932,168.912 155.998,168.12 156.042,166.8 L157.318,167.24 C157.186,168.868 157.032,169.88 156.878,170.276 C156.702,170.672 156.372,170.87 155.888,170.87 Z M151.774,164.446 L152.368,164.072 C152.852,164.732 153.27,165.304 153.578,165.832 L153.578,162.334 L151.774,162.334 L151.774,164.446 Z M144.052,160.772 L149.2,160.772 L149.2,168.054 L144.052,168.054 L144.052,160.772 Z M147.638,166.844 L147.638,165.876 L145.592,165.876 L145.592,166.844 L147.638,166.844 Z M145.592,164.886 L147.638,164.886 L147.638,163.962 L145.592,163.962 L145.592,164.886 Z M145.592,162.972 L147.638,162.972 L147.638,161.982 L145.592,161.982 L145.592,162.972 Z M145.394,168.274 L146.384,169.154 C145.812,169.946 145.13,170.628 144.316,171.244 L143.436,170.078 C144.206,169.55 144.866,168.956 145.394,168.274 Z M139.63,156.636 L154.304,156.636 L154.304,159.958 L139.63,159.958 L139.63,156.636 Z M152.39,158.814 L152.39,157.78 L141.544,157.78 L141.544,158.814 L152.39,158.814 Z" id="path-4"></path>
    </defs>
    <g id="Traditional-Chinese-Matches" stroke="none" stroke-width="1" fill="none" fill-rule="evenodd">
        <g transform="translate(1.000000, 2.000000)">
            <polygon id="Path" stroke="#C2C2C2" stroke-width="2.43037975" fill="#F1F1F2" points="0.898734177 0.197307692 296.493671 0.197307692 296.493671 192.802692 0.898734177 192.802692"></polygon>
            <path d="M3.59493671,53.3873077 L294.974684,53.3873077 M3.59493671,73.4661538 L294.974684,73.4661538 M3.59493671,133.740577 L294.974684,133.740577" id="Shape" stroke="#DEDEDD" stroke-width="1.21518987"></path>
            <path d="M3.59493671,153.819423 L294.974684,153.819423" id="Path" stroke="#293052" stroke-width="1.21518987" stroke-linejoin="round" stroke-dasharray="3.60759489143951"></path>
            <path d="M3.59493671,173.898269 L294.974684,173.898269 M38.7974684,33.3084615 L38.7974684,191.590385 M75.6708861,33.3084615 L75.6708861,191.590385 M112.544304,33.3084615 L112.544304,191.590385 M149.379747,33.3084615 L149.379747,191.590385 M186.253165,33.3084615 L186.253165,191.590385 M223.126582,33.3084615 L223.126582,191.590385 M260,33.3084615 L260,191.590385 M3.59493671,113.661731 L294.974684,113.661731 M3.59493671,93.5828846 L294.974684,93.5828846" id="Shape" stroke="#DEDEDD" stroke-width="1.21518987"></path>
            <path d="M1.50632911,32.0961538 L297.101266,32.0961538" id="Path" stroke="#C2C2C2" stroke-width="2.43037975" fill="#F1F1F2"></path>
            <polyline id="Path" stroke="#293052" stroke-width="3.60759494" stroke-linecap="round" stroke-linejoin="round" points="223.43038 153.819423 191.265823 85.2103846 148.696203 116.578846 105.481013 86.6878846 75.6708861 113.661731 38.7974684 82.9751923"></polyline>
            <path d="M186.936709,144.069423 L151.772152,144.069423 L146.227848,136 L140.911392,144.069423 L105.746835,144.069423 C103.12523,144.069423 101,146.189613 101,148.805 L101,173.316346 C101,175.931733 103.12523,178.051923 105.746835,178.051923 L186.936709,178.051923 C188.215269,178.082545 189.45212,177.59717 190.367119,176.705737 C191.282117,175.814303 191.797836,174.592241 191.797468,173.316346 L191.797468,148.842885 C191.808124,147.560431 191.296931,146.328506 190.380783,145.428812 C189.464635,144.529117 188.221884,144.038599 186.936709,144.069423 Z" id="Path" fill="#E88024"></path>
            <g id="Group" opacity="0.6" transform="translate(214.658228, 144.961538)" fill="#FFFFFF">
                <ellipse id="Oval" cx="8.4683544" cy="8.8578846" rx="8.16455696" ry="8.3725"></ellipse>
            </g>
            <ellipse id="Oval" stroke="#E88024" stroke-width="2.43037975" cx="223.126582" cy="153.819423" rx="8.16455696" ry="8.3725"></ellipse>
            <polygon id="Path" fill="#E88024" points="246.101266 144.424038 274.772152 144.424038 274.772152 163.214808 246.101266 163.214808"></polygon>
            <polygon id="Path" fill="#E88024" points="249.594937 153.819423 246.253165 157.153269 241.050633 153.819423 246.253165 150.485577"></polygon>
            <path d="M257.455696,152.682885 L258.822785,152.682885 C259.286321,152.716156 259.742107,152.550808 260.075949,152.228269 C260.370334,151.880171 260.519823,151.432768 260.493671,150.978077 C260.515955,150.546843 260.365708,150.124425 260.075949,149.803654 C259.723559,149.554821 259.285105,149.459137 258.860759,149.538462 C258.447075,149.519538 258.041086,149.654547 257.721519,149.917308 C257.421295,150.171164 257.253519,150.547764 257.265823,150.940192 L254.911392,150.940192 C254.862229,150.042095 255.260014,149.177548 255.974684,148.629231 C256.773998,148.003895 257.769755,147.681712 258.78481,147.72 C259.842983,147.66396 260.888435,147.971503 261.746835,148.591346 C262.496986,149.215072 262.905698,150.157097 262.848101,151.129615 C262.842804,151.661556 262.670116,152.178392 262.35443,152.607115 C262.005019,153.088331 261.533037,153.467637 260.987342,153.705769 C261.597182,153.902929 262.128875,154.287492 262.506329,154.804423 C262.860139,155.302137 263.046308,155.899117 263.037975,156.509231 C263.074415,157.513484 262.621667,158.473292 261.822785,159.085385 C260.936461,159.743226 259.850622,160.077567 258.746835,160.0325 C257.71508,160.065498 256.701042,159.759346 255.860759,159.161154 C255.069748,158.583063 254.637985,157.635438 254.721519,156.660769 L257.227848,156.660769 C257.217598,157.093465 257.398042,157.508884 257.721519,157.797308 C258.066694,158.101306 258.5144,158.263723 258.974684,158.251923 C259.460817,158.283668 259.939458,158.119951 260.303797,157.797308 C260.636885,157.468131 260.816018,157.014487 260.797468,156.547115 C260.850645,156.036654 260.685135,155.527543 260.341772,155.145385 C259.950005,154.818217 259.446379,154.655266 258.936709,154.690769 L257.455696,154.690769 L257.455696,152.682885 Z" id="Path" fill="#FFFFFF"></path>
            <g id="最後數字的預測">
                <use fill="#000000" xlink:href="#path-1"></use>
                <use fill="#2A3052" xlink:href="#path-1"></use>
            </g>
            <g id="3">
                <use fill="#000000" xlink:href="#path-2"></use>
                <use fill="#2A3052" xlink:href="#path-2"></use>
            </g>
            <g id="符合" fill="#000000">
                <use xlink:href="#path-3"></use>
                <use xlink:href="#path-3"></use>
            </g>
            <g id="贏">
                <use fill="#000000" xlink:href="#path-4"></use>
                <use fill="#FFFFFF" xlink:href="#path-4"></use>
            </g>
        </g>
    </g>
</svg>