<svg width="300" height="199" viewBox="0 0 300 199" xmlns="http://www.w3.org/2000/svg"><title>traditional chinese no touch</title><g fill="none" fill-rule="evenodd"><path fill="#F1F2F2" d="M0 0h300v199H0z"/><path d="M39.125 55.375V74.75H75.25V55.375H39.125zm0-1H75.25V34h1v20.375h36.125V34h1v20.375H149.5V34h1v20.375h36.125V34h1v20.375h36.125V34h1v20.375h36.125V34h1v20.375H299.5v1h-37.625V74.75H299.5v1h-37.625v19.375H299.5v1h-37.625V115.5H299.5v1h-37.625v19.375H299.5v1h-37.625v19.375H299.5v1h-37.625v19.375H299.5v1h-37.625V199h-1v-21.375H224.75V199h-1v-21.375h-36.125V199h-1v-21.375H150.5V199h-1v-21.375h-36.125V199h-1v-21.375H76.25V199h-1v-21.375H39.125V199h-1v-21.375H1.5v-1h36.625V157.25H1.5v-1h36.625v-19.375H1.5v-1h36.625V116.5H1.5v-1h36.625V96.125H1.5v-1h36.625V75.75H1.5v-1h36.625V55.375H1.5v-1h36.625V34h1v20.375zm221.75 1H224.75V74.75h36.125V55.375zm-37.125 0h-36.125V74.75h36.125V55.375zm-37.125 0H150.5V74.75h36.125V55.375zm-37.125 0h-36.125V74.75H149.5V55.375zm-37.125 0H76.25V74.75h36.125V55.375zM39.125 75.75v19.375H75.25V75.75H39.125zm221.75 0H224.75v19.375h36.125V75.75zm-37.125 0h-36.125v19.375h36.125V75.75zm-37.125 0H150.5v19.375h36.125V75.75zm-37.125 0h-36.125v19.375H149.5V75.75zm-37.125 0H76.25v19.375h36.125V75.75zm-73.25 20.375V115.5H75.25V96.125H39.125zm221.75 0H224.75V115.5h36.125V96.125zm-37.125 0h-36.125V115.5h36.125V96.125zm-37.125 0H150.5V115.5h36.125V96.125zm-37.125 0h-36.125V115.5H149.5V96.125zm-37.125 0H76.25V115.5h36.125V96.125zM39.125 116.5v19.375H75.25V116.5H39.125zm221.75 0H224.75v19.375h36.125V116.5zm-37.125 0h-36.125v19.375h36.125V116.5zm-37.125 0H150.5v19.375h36.125V116.5zm-37.125 0h-36.125v19.375H149.5V116.5zm-37.125 0H76.25v19.375h36.125V116.5zm-73.25 20.375v19.375H75.25v-19.375H39.125zm221.75 0H224.75v19.375h36.125v-19.375zm-37.125 0h-36.125v19.375h36.125v-19.375zm-37.125 0H150.5v19.375h36.125v-19.375zm-37.125 0h-36.125v19.375H149.5v-19.375zm-37.125 0H76.25v19.375h36.125v-19.375zm-73.25 20.375v19.375H75.25V157.25H39.125zm221.75 0H224.75v19.375h36.125V157.25zm-37.125 0h-36.125v19.375h36.125V157.25zm-37.125 0H150.5v19.375h36.125V157.25zm-37.125 0h-36.125v19.375H149.5V157.25zm-37.125 0H76.25v19.375h36.125V157.25z" fill="#DFDEDE"/><path stroke="#C2C2C2" stroke-width="2" d="M1 1h298v197H1z"/><path fill="#C2C2C2" d="M0 33h300v2H0z"/><g transform="translate(2 33.7)"><path d="M.94 41.551h294.552M260.107.241V162.97" stroke="#293152" stroke-width="1.211" stroke-linejoin="round"/><path stroke="#293152" stroke-width="3.633" stroke-linecap="round" stroke-linejoin="round" d="M36.514 103.498l37.284-33.924 33.636 26.347 34.168-26.347 35.346 28.86 37.21-33.239 45.95 12.641"/><path d="M187.134 114.235h-35.536l-5.473-8.339-5.473 8.339h-35.536c-2.66 0-4.79 2.17-4.79 4.873v25.167c0 2.703 2.167 4.874 4.79 4.874h82.056c2.66 0 4.79-2.17 4.79-4.874v-25.167c0-2.703-2.167-4.873-4.828-4.873z" fill="#E88124" fill-rule="nonzero"/><ellipse cx="8.476" cy="10.052" rx="8.247" ry="8.605" opacity=".6" transform="translate(251.632 67.784)" fill="#FFF" fill-rule="nonzero"/><ellipse stroke="#E88124" stroke-width="2.422" cx="260.107" cy="77.836" rx="8.247" ry="8.605"/><ellipse cx="9.122" cy="9.062" rx="8.247" ry="8.605" opacity=".6" transform="translate(27.392 94.436)" fill="#FFF" fill-rule="nonzero"/><ellipse stroke="#E88124" stroke-width="2.422" cx="36.514" cy="103.498" rx="8.247" ry="8.605"/></g><g fill="#FFF"><path d="M163.719 171.128h1.424l.42-16.275h-2.277zM163.294 174.935c.09.872.734 1.093 1.26 1.093s1.105-.394 1.105-1.093c0-1.036-.733-1.283-1.224-1.283s-1.23.41-1.141 1.283z"/><g><path d="M145.578 174.663c.385.33.713.624.983.886-.785 1.154-1.99 2.165-2.641 2.615-.402-.516-.681-.878-.84-1.085.776-.569 1.608-1.374 2.498-2.416zM150.15 165.494v8.795h-6.3v-8.795h6.3zm-1.53 6.12h-3.116v1.433h3.116v-1.432zm0-2.475h-3.116v1.432h3.116v-1.432zm0-2.441h-3.116v1.432h3.116v-1.432zM159.728 156.059v-1.46h-11.094c-.674-1.48-.93-2.058-.77-1.737l-1.972.323.771 1.413h-11.247v1.461h2.246v2.796h20.326v-1.289h-18.563v-1.507h20.303zM138.495 160.117h17.992v3.906h-17.992v-3.906zm1.821 1.121v1.654h14.382v-1.654h-14.382zM136.915 165.242c1.935-.018 3.879-.018 5.83 0v10.678c0 .565.488 2.428-3.123 2.038l-.383-1.481c1.363.177 2.045-.009 2.045-.557v-2.382h-3.03c-.407 2.26-.97 3.734-1.69 4.42a40.136 40.136 0 0 1-1.148-1.028c2.012-2.72 1.48-10.816 1.499-11.688zm1.477 4.92v2.061h2.825v-2.06h-2.825zm2.862-3.504h-2.814v2.222h2.814v-2.222z"/><path d="M155.955 172.525l-.859.553c-.84-1.37-1.462-2.293-1.867-2.77-.02 1.627-.08 2.803-.18 3.528-.326 2.355-1.198 3.35-1.78 4.175l-1.237-1.096-.41.53c-1.085-1.146-1.795-1.856-2.131-2.13.357-.336.669-.633.935-.891a14.507 14.507 0 0 1 2.027 1.925c.27-.488.815-1.224 1.052-2.62.316-1.864.1-6.592.24-8.565 2.445-.008 4.342-.008 5.69 0v10.563c-.064.723 1.374.596 1.374 0l.29-3.012c.245.102.656.251 1.235.446-.273 1.84-.19 4.07-1.234 4.283-.742.036-3.145.544-3.145-.982v-3.937zm0-.474v-5.366h-2.736c.015 1.107.02 2.1.016 2.978l.853-.502c.936 1.306 1.557 2.251 1.866 2.837l.001.053z"/></g></g><g fill="#2A3052"><path d="M26.159 163.546h-1.132v-13.164h5.54v4.712H26.16v8.452zm.013-12.291v1.085h3.393v-1.085h-3.393zm3.365 1.932h-3.364v1.058h3.364v-1.058zM31.887 155.034v-4.625h5.58c.042 6.403.042 10.068 0 10.993-.064 1.388.262 2.397-2.964 2.048-.059-.262-.143-.571-.253-.927.783-.188 2.165.647 2.165-.946v-6.543h-4.528zm1.07-1.852v.996h3.43v-.996h-3.43zm-.01-1.911v1.065h3.41v-1.065h-3.41z"/><path d="M34.836 156.204v.916H33.35v1.734h1.95v.952h-1.95v3.455h-.962v-3.455c-1.035.003-1.823.003-2.365 0-.132.616-.132 2.655-2.329 3.667a15.415 15.415 0 0 1-.543-.854c.744-.393 1.679-.884 1.918-2.78l-1.927-.031.009-.954h1.986v-1.734h-1.596v-.916h7.294zm-2.444.923h-2.268v1.73h2.268v-1.73zM41.229 149.905l1.086.122-.448 2.796c.144.011.89.011 2.234 0 .038 2.053-.386 5.117-1.25 6.878.929.998 1.512 1.675 1.752 2.032l-.724.808-1.487-1.777c-.868 1.423-1.623 2.414-2.264 2.974a15.866 15.866 0 0 0-.661-.84c.84-.897 1.67-1.814 2.162-2.892l-1.916-1.91.964-4.254h-1.21v-1.019h1.356l.406-2.918zm1.887 3.943h-1.372a60.826 60.826 0 0 1-.883 3.897c.51.496.919.898 1.227 1.207.525-1.12 1.028-4.307 1.028-5.104zM47.882 149.924l1.001.343c-1.15 2.385-2.042 3.933-2.678 4.643 2.899-.252 4.494-.428 4.787-.527-.71-1.347-1.122-2.101-1.237-2.263l.935-.453c1.008 1.735 1.777 3.17 2.305 4.306l-1.015.512-.53-1.167c-3.663.422-5.88.64-6.651.655-.058-.377-.114-.709-.17-.995.869-.477 1.953-2.162 3.253-5.054zM51.131 163.738v-.922H46.53v.922h-1.057v-6.394h6.68v6.394H51.13zm-.007-5.41h-4.568v3.445h4.568v-3.444z"/></g><g fill="#2A3052"><path d="M269.058 119.755l1.024.412c-1.116 2.445-1.883 3.873-2.302 4.283l1.959-.273 1.082-1.879 1.016.375c-1.613 2.776-2.98 4.943-3.67 5.465l2.654-.554-.414-1.393.833-.292c.616 1.652.924 2.65.924 2.996-.52.139-.827.225-.924.257l-.185-.736c-2.279.58-3.656.87-4.131.87a14.365 14.365 0 0 1-.29-1.003c.66-.16 2.145-2.384 2.517-3.085l-2.372.355c-.097-.358-.188-.69-.274-.997.482-.15 1.333-1.751 2.553-4.801zM270.67 129.705c.383-.144.667-.237.853-.281.624 1.552.936 2.418.936 2.598-.051.056-.345.193-.88.411a48.69 48.69 0 0 0-.909-2.728zM269.72 129.846c.073.284.61 3.015.61 3.125l-1.028.247c-.215-1.696-.373-2.745-.474-3.148.395-.12.47-.12.892-.224zM267.09 130.062l.988.12c-.13 1.73-.313 2.895-.548 3.496a39.49 39.49 0 0 0-.986-.29c.294-1.028.476-2.137.545-3.326zM272 121.789v1.064h3.754v2.334h-3.294v1.061h7.737v-1.06h-3.348v-2.335h3.663v-1.064h-3.663v-1.942h-1.095v1.942zM278.623 133.958v-.71h-4.583v.71h-1.068v-6.167h6.726v6.167h-1.075zm.03-5.12h-4.6v3.351h4.6v-3.352zM288.398 121.4v-1.572h1.134v1.573h6.028v1.046h-6.028v1.442h4.822v4.417H290.5c.775 1.343 2.636 2.76 5.584 4.253-.059.036-.307.349-.745.938-1.651-.79-4.839-3.295-5.807-5.19l.01 5.633h-1.144c-.008-3.872-.029-5.747-.062-5.623-1.007 1.788-3.225 4.066-5.849 5.18l-.631-.971c2.781-1.299 4.64-2.705 5.578-4.22l-3.878.01v-4.427h4.842v-1.442h-6.023V121.4h6.023zm-.042 3.604h-3.737v2.364h3.737v-2.364zm1.182 2.34h3.774v-2.308h-3.774v2.308z"/></g><g opacity=".9" fill="#6D6E71"><path d="M41.952 71.385h.983v-7.927l1.302 2.322.616-.955c-1.158-1.506-1.798-2.317-1.918-2.432l.011-.861h1.569v-.957h-1.569l-.01-2.704h-.984v2.704h-1.875v.957h1.755c-.106 1.072-1.472 4.144-2.182 4.89.014.004.173.394.478 1.17.824-1.476 1.262-2.361 1.824-3.997v7.79zM26.679 71.443V58.717h9.962v12.726h-1.13v-.946h-7.72v.946H26.68zm8.93-11.824h-7.817v2.529h7.818v-2.53zm-.025 3.45h-7.766v2.604h7.766V63.07zm-.015 3.628h-7.736v2.744h7.736v-2.744zM45.316 58.717h8.152v.89H51.02v1.104h2.203v3.463h-7.561v-3.463h2.224v-1.105h-2.57v-.889zm4.831.958h-1.433v1.055h1.433v-1.055zm.842 1.895v1.8h1.282v-1.8h-1.282zm-.858-.012h-1.36v1.809h1.36v-1.809zm-2.179-.023h-1.305v1.848h1.305v-1.848zM52.814 64.872v.859h-6.832v-.86zM53.468 66.856v.822h-3.662v3.701h-.908v-3.701h-3.57v-.822z"/><path d="M50.919 68.933c.309-.31.519-.51.63-.596.383.292 1.71 1.588 2.194 2.318-.166.18-.405.415-.717.707-.239-.471-.941-1.281-2.107-2.43zM47.22 68.036c.321.275.546.466.673.572-.8 1.062-1.606 1.89-2.414 2.483-.106-.105-.314-.358-.626-.76 1.276-1.033 2.065-1.798 2.366-2.295z"/></g><path d="M21.698 10.596h1.651v1.963h5.171v1.588h-5.17v2.259h5.996v1.588h-4.688c1.028 1.776 2.725 3.365 5.077 4.766l-1.152 1.464c-2.461-1.869-4.19-3.956-5.202-6.23h-.032v6.931H21.7v-6.93h-.016c-1.106 2.523-2.897 4.61-5.373 6.245l-.935-1.542c2.243-1.246 3.925-2.803 5.015-4.704h-4.688v-1.588h5.996v-2.259h-5.061V12.56h5.061v-1.963zm11.386 7.679v1.557h.747v-1.557h-.747zm-.063 2.928c-.124 1.464-.436 2.694-.918 3.691l-1.075-.981c.467-1.075.7-2.445.716-4.112v-4.423l-.03.031-.935-1.121c.887-.904 1.666-2.165 2.336-3.8l1.448.326c-.109.265-.218.514-.327.764h2.414v1.105c-.28.546-.56 1.013-.84 1.418h1.308v3.006c.794-.592 1.417-1.293 1.853-2.103h-1.355v-4.003h7.133v4.003h-4.314c-.124.28-.265.56-.42.841h4.968c0 4.127-.062 6.682-.187 7.647-.124.95-.716 1.433-1.775 1.433-.312 0-.826-.03-1.573-.062l-.328-1.23c.468.03.904.046 1.278.062-.063-.203-.11-.39-.172-.56-1.028.248-2.57.498-4.625.716l-.203-1.246a71.088 71.088 0 0 0 2.383-.172v-1.215h-2.04v-2.834l-.187.14-.436-.7v5.949c0 .67-.39 1.012-1.153 1.012h-.592l-.327-1.2v.826h-1.215v-3.208h-.81zm10.327 2.134a2.05 2.05 0 0 0 .124-.468c.078-.53.125-2.43.156-5.684h-4.563c-.327.342-.67.67-1.044.98h1.76v-.669h1.277v.67h2.025v3.052h-2.025v1.075c.28-.047.56-.093.81-.124l-.25-.592.951-.312c.28.623.545 1.309.779 2.072zM34.205 14.1c.25-.359.499-.763.763-1.215h-1.386c-.249.436-.514.84-.779 1.215h1.402zm.841 9.423c.187.03.358.062.514.062.156 0 .25-.11.25-.296v-2.087h-.764v2.32zm.763-3.692v-1.557h-.763v1.557h.763zm0-2.897v-1.448h-.763v1.448h.763zm-1.978-1.448h-.747v1.448h.747v-1.448zm9.641-1.729v-1.51h-.747v1.51h.747zm-1.869 0v-1.51h-.81v1.51h.81zm-1.947 0v-1.51h-.747v1.51h.747zm2.321 6.401v-.934h-.919v.934h.92zm-2.196 0v-.934h-.934v.934h.934zm10.482-7.507h-2.508v-1.588h9.657v1.059a44.322 44.322 0 0 1-.857 3.177h3.084v.95c-.451 2.056-1.37 3.785-2.757 5.218 1.122.778 2.399 1.464 3.832 2.071l-1.09 1.449c-1.558-.717-2.897-1.511-4.019-2.383-1.34 1.028-2.975 1.853-4.906 2.476l-.95-1.51c1.776-.593 3.286-1.293 4.501-2.134a12.902 12.902 0 0 1-2.694-3.723c-.577 3.115-1.854 5.53-3.816 7.227l-1.262-1.106c2.477-2.087 3.738-5.42 3.785-10v-1.183zm5.264 7.772c1.137-1.059 1.932-2.274 2.383-3.644h-3.38c.343-.95.701-2.321 1.09-4.128h-3.706v1.184c0 .311-.016.607-.031.903.56 2.18 1.775 4.065 3.644 5.685z" fill="#000"/></g></svg>