<?xml version="1.0" encoding="UTF-8"?>
<svg width="299px" height="197px" viewBox="0 0 299 197" version="1.1" xmlns="http://www.w3.org/2000/svg" xmlns:xlink="http://www.w3.org/1999/xlink">
    <!-- Generator: Sketch 52.6 (67491) - http://www.bohemiancoding.com/sketch -->
    <title>put spread</title>
    <desc>Created with Sketch.</desc>
    <g id="Page-1" stroke="none" stroke-width="1" fill="none" fill-rule="evenodd">
        <g id="put-spread">
            <g id="Group">
                <g id="Call-Spread">
                    <polygon id="Shape" fill="#F1F2F2" points="299 0 299 197 0 197 0 1.27863532e-14"></polygon>
                    <path d="M297.013289,1.9798995 L1.98671096,1.9798995 L1.98671096,195.020101 L297.013289,195.020101 L297.013289,1.9798995 Z M299,197 L0,197 L0,0 L299,0 L299,197 Z" id="Shape" fill="#C2C2C2" fill-rule="nonzero"></path>
                    <polygon id="Line-3" fill="#2A3052" fill-rule="nonzero" points="247.483086 40.1964405 248.493266 40.1964405 248.493266 176.265197 247.483086 176.265197"></polygon>
                    <path d="M2.94050338,53.9484862 L2.94050338,52.7251572 L296.511027,52.7251572 L296.511027,53.9484862 L2.94050338,53.9484862 Z M2.94050338,94.8450832 L2.94050338,93.6217542 L296.511027,93.6217542 L296.511027,94.8450832 L2.94050338,94.8450832 Z M2.94050338,135.738664 L2.94050338,134.515336 L296.511027,134.515336 L296.511027,135.738664 L2.94050338,135.738664 Z M2.94050338,176.596062 L2.94050338,175.372734 L296.511027,175.372734 L296.511027,176.596062 L2.94050338,176.596062 Z M37.7845821,32.9081228 L39.0079111,32.9081228 L39.0079111,194.000852 L37.7845821,194.000852 L37.7845821,32.9081228 Z M74.9464436,32.9081228 L76.1697726,32.9081228 L76.1697726,194.000852 L74.9464436,194.000852 L74.9464436,32.9081228 Z M112.06891,32.9081228 L113.292238,32.9081228 L113.292238,194.000852 L112.06891,194.000852 L112.06891,32.9081228 Z M149.228752,32.9081228 L150.45208,32.9081228 L150.45208,194.000852 L149.228752,194.000852 L149.228752,32.9081228 Z M186.351218,32.9081228 L187.574546,32.9081228 L187.574546,194.000852 L186.351218,194.000852 L186.351218,32.9081228 Z M223.473684,32.9081228 L224.697012,32.9081228 L224.697012,194.000852 L223.473684,194.000852 L223.473684,32.9081228 Z M2.94050338,115.272777 L2.94050338,114.049448 L296.511027,114.049448 L296.511027,115.272777 L2.94050338,115.272777 Z" id="Shape-2" fill="#DFDEDE" fill-rule="nonzero"></path>
                    <polygon id="Shape-3" fill="#15212D" fill-rule="nonzero" points="2.94050338 70.1702295 2.94050338 69.0261997 296.511027 69.0261997 296.511027 70.1702295"></polygon>
                    <polygon id="Path-2" fill="#15212D" fill-rule="nonzero" points="2.94050338 150.578393 2.94050338 149.434363 296.511027 149.434363 296.511027 150.578393"></polygon>
                    <polygon id="Shape-4" fill="#C2C2C2" fill-rule="nonzero" points="0.819219595 31.3713541 0.819219595 28.9245649 298.632311 28.9245649 298.632311 31.3713541"></polygon>
                    <path d="M33.4618685,111.904797 L32.4393477,110.162295 L41.151856,105.049692 L42.1743767,106.792193 L33.4618685,111.904797 Z M50.886885,101.67959 L49.8643642,99.9370879 L58.5768724,94.8244842 L59.5993932,96.5669859 L50.886885,101.67959 Z M68.3119015,91.4543822 L67.2893807,89.7118805 L76.0018889,84.5992767 L77.0244097,86.3417784 L68.3119015,91.4543822 Z M85.7369179,81.2291747 L84.7143972,79.486673 L89.6686616,76.5794515 L94.661155,77.088201 L94.456335,79.0981536 L90.1212506,78.6563961 L85.7369179,81.2291747 Z M104.506098,80.1222533 L104.710918,78.1123007 L114.760681,79.1364004 L114.555861,81.1463531 L104.506098,80.1222533 Z M124.605624,82.1704528 L124.810444,80.1605001 L134.860207,81.1845999 L134.655387,83.1945525 L124.605624,82.1704528 Z M144.70515,84.2186523 L144.90997,82.2086996 L154.959733,83.2327993 L154.754913,85.242752 L144.70515,84.2186523 Z M164.804676,86.2668517 L165.009496,84.2568991 L175.059259,85.2809988 L174.854439,87.2909515 L164.804676,86.2668517 Z M184.887579,84.8311235 L184.101201,82.9700836 L193.4064,79.038191 L194.192779,80.8992309 L184.887579,84.8311235 Z M203.497978,76.9673383 L202.7116,75.1062983 L212.016799,71.1744057 L212.803178,73.0354456 L203.497978,76.9673383 Z M222.108377,69.103553 L221.321999,67.2425131 L230.627198,63.3106204 L231.413577,65.1716604 L222.108377,69.103553 Z M240.718776,61.2397677 L239.932398,59.3787278 L247.865703,56.0265262 L248.652081,57.8875662 L240.718776,61.2397677 Z" id="Shape-5" fill="#6E7287" fill-rule="nonzero"></path>
                    <path d="M33.229401,112.004494 L32.6718152,110.062598 L42.3812936,107.27467 L42.9388793,109.216565 L33.229401,112.004494 Z M52.6483577,106.428637 L52.0907719,104.486741 L61.8002503,101.698812 L62.357836,103.640708 L52.6483577,106.428637 Z M72.0673144,100.852779 L71.5097286,98.9108833 L81.219207,96.1229545 L81.7767928,98.0648503 L72.0673144,100.852779 Z M91.0105918,96.2022436 L91.4564123,94.231684 L101.30921,96.4607865 L100.863389,98.4313461 L91.0105918,96.2022436 Z M110.716187,100.660449 L111.162007,98.6898891 L121.014805,100.918992 L120.568984,102.889551 L110.716187,100.660449 Z M130.421782,105.118654 L130.867602,103.148094 L140.7204,105.377197 L140.274579,107.347756 L130.421782,105.118654 Z M150.127377,109.576859 L150.573197,107.606299 L160.425995,109.835402 L159.980174,111.805961 L150.127377,109.576859 Z M169.832972,114.035064 L170.278792,112.064504 L180.13159,114.293607 L179.685769,116.264166 L169.832972,114.035064 Z M189.942599,117.365135 L189.693986,115.360128 L199.71902,114.117064 L199.967633,116.122071 L189.942599,117.365135 Z M209.992667,114.879007 L209.744054,112.874 L219.769088,111.630936 L220.017701,113.635943 L209.992667,114.879007 Z M230.042735,112.39288 L229.794122,110.387873 L239.819157,109.144809 L240.067769,111.149816 L230.042735,112.39288 Z" id="Shape-5-2" fill="#6E7287" fill-rule="nonzero"></path>
                    <path d="M32.5496197,111.960732 L33.3515965,110.10636 L42.6234544,114.116244 L41.8214777,115.970616 L32.5496197,111.960732 Z M51.0933357,119.980499 L51.8953124,118.126128 L61.1671704,122.136011 L60.3651936,123.990383 L51.0933357,119.980499 Z M69.6370516,128.000266 L70.4390283,126.145895 L79.7108863,130.155778 L78.9089095,132.01015 L69.6370516,128.000266 Z M88.1807675,136.020034 L88.9827443,134.165662 L98.2546022,138.175546 L97.4526255,140.029917 L88.1807675,136.020034 Z M107.634851,141.563308 L107.507257,139.546979 L117.5889,138.909011 L117.716493,140.92534 L107.634851,141.563308 Z M127.798136,140.287372 L127.670542,138.271044 L137.752185,137.633076 L137.879778,139.649404 L127.798136,140.287372 Z M147.961421,139.011437 L147.833827,136.995108 L157.91547,136.35714 L158.043063,138.373469 L147.961421,139.011437 Z M168.124705,137.735501 L167.997112,135.719172 L178.078754,135.081205 L178.206348,137.097533 L168.124705,137.735501 Z M187.65206,137.3791 L188.450145,135.52305 L197.730393,139.513479 L196.932308,141.369528 L187.65206,137.3791 Z M206.212555,145.359957 L207.010641,143.503907 L216.290889,147.494335 L215.492803,149.350385 L206.212555,145.359957 Z M224.773051,153.340813 L225.571136,151.484764 L234.851384,155.475192 L234.053299,157.331242 L224.773051,153.340813 Z M243.333546,161.32167 L244.131632,159.46562 L248.515506,161.350649 L247.71742,163.206699 L243.333546,161.32167 Z" id="Shape-5-3" fill="#6E7287" fill-rule="nonzero"></path>
                    <g id="Group-2" opacity="0.6" transform="translate(239.402027, 48.239796)" fill="#FFFFFF">
                        <ellipse id="Oval-3" cx="8.21946959" cy="8.5182398" rx="8.21946959" ry="8.5182398"></ellipse>
                    </g>
                    <g id="Group-2-Copy" opacity="0.6" transform="translate(239.402027, 100.505102)" fill="#FFFFFF">
                        <ellipse id="Oval-3-2" cx="8.21946959" cy="8.5182398" rx="8.21946959" ry="8.5182398"></ellipse>
                    </g>
                    <g id="Group-2-Copy-2" opacity="0.6" transform="translate(240.412162, 153.775511)" fill="#FFFFFF">
                        <ellipse id="Oval-3-3" cx="8.21946959" cy="8.5182398" rx="8.21946959" ry="8.5182398"></ellipse>
                    </g>
                    <path d="M247.621497,66.4996704 C242.39638,66.4996704 238.178633,62.1286115 238.178633,56.758036 C238.178633,51.3874605 242.39638,47.0164016 247.621497,47.0164016 C252.846614,47.0164016 257.064361,51.3874605 257.064361,56.758036 C257.064361,62.1286115 252.846614,66.4996704 247.621497,66.4996704 Z M247.621497,64.0528812 C251.475356,64.0528812 254.617572,60.7964484 254.617572,56.758036 C254.617572,52.7196236 251.475356,49.4631908 247.621497,49.4631908 C243.767638,49.4631908 240.625422,52.7196236 240.625422,56.758036 C240.625422,60.7964484 243.767638,64.0528812 247.621497,64.0528812 Z" id="Oval-4" fill="#E88024" fill-rule="nonzero"></path>
                    <path d="M247.621497,118.764977 C242.39638,118.764977 238.178633,114.393918 238.178633,109.023342 C238.178633,103.652767 242.39638,99.2817077 247.621497,99.2817077 C252.846614,99.2817077 257.064361,103.652767 257.064361,109.023342 C257.064361,114.393918 252.846614,118.764977 247.621497,118.764977 Z M247.621497,116.318187 C251.475356,116.318187 254.617572,113.061754 254.617572,109.023342 C254.617572,104.98493 251.475356,101.728497 247.621497,101.728497 C243.767638,101.728497 240.625422,104.98493 240.625422,109.023342 C240.625422,113.061754 243.767638,116.318187 247.621497,116.318187 Z" id="Oval-4-Copy" fill="#E88024" fill-rule="nonzero"></path>
                    <path d="M248.631632,172.035384 C243.406515,172.035384 239.188768,167.664325 239.188768,162.29375 C239.188768,156.923175 243.406515,152.552116 248.631632,152.552116 C253.856749,152.552116 258.074496,156.923175 258.074496,162.29375 C258.074496,167.664325 253.856749,172.035384 248.631632,172.035384 Z M248.631632,169.588595 C252.485491,169.588595 255.627707,166.332162 255.627707,162.29375 C255.627707,158.255338 252.485491,154.998905 248.631632,154.998905 C244.777773,154.998905 241.635557,158.255338 241.635557,162.29375 C241.635557,166.332162 244.777773,169.588595 248.631632,169.588595 Z" id="Oval-4-Copy-2" fill="#E88024" fill-rule="nonzero"></path>
                </g>
                <ellipse id="Oval-3-4" fill="#FFFFFF" opacity="0.916" cx="35.0260473" cy="110.916454" rx="8.10951014" ry="8.4317602"></ellipse>
                <path d="M35.0260473,120.555242 C29.8699149,120.555242 25.709509,116.229513 25.709509,110.916454 C25.709509,105.603395 29.8699149,101.277666 35.0260473,101.277666 C40.1821797,101.277666 44.3425856,105.603395 44.3425856,110.916454 C44.3425856,116.229513 40.1821797,120.555242 35.0260473,120.555242 Z M35.0260473,118.141186 C38.8274325,118.141186 41.9285293,114.91686 41.9285293,110.916454 C41.9285293,106.916048 38.8274325,103.691722 35.0260473,103.691722 C31.2246621,103.691722 28.1235653,106.916048 28.1235653,110.916454 C28.1235653,114.91686 31.2246621,118.141186 35.0260473,118.141186 Z" id="Oval-4-Copy-2-2" fill="#E88024" fill-rule="nonzero"></path>
            </g>
            <path d="M15.739,8.825 L21.589,8.825 L21.589,8.12 L22.969,8.12 L22.969,8.825 L28.729,8.825 L28.729,9.845 L22.969,9.845 L22.969,10.4 L27.979,10.4 L27.979,11.345 L16.519,11.345 L16.519,10.4 L21.589,10.4 L21.589,9.845 L15.739,9.845 L15.739,8.825 Z M16.354,11.885 L28.144,11.885 L28.144,14.48 L16.354,14.48 L16.354,11.885 Z M26.854,13.565 L26.854,12.785 L24.559,12.785 L24.559,13.565 L26.854,13.565 Z M23.299,13.565 L23.299,12.785 L21.154,12.785 L21.154,13.565 L23.299,13.565 Z M19.894,13.565 L19.894,12.785 L17.644,12.785 L17.644,13.565 L19.894,13.565 Z M17.029,15.035 L27.499,15.035 L27.499,20.27 L24.649,20.27 C26.149,20.45 27.589,20.705 28.984,21.05 L28.579,22.055 C26.959,21.605 25.264,21.245 23.494,21.005 L23.869,20.27 L20.494,20.27 L20.959,20.885 C19.819,21.365 18.154,21.755 15.994,22.055 L15.424,21.05 C17.179,20.84 18.589,20.585 19.654,20.27 L17.029,20.27 L17.029,15.035 Z M26.134,19.295 L26.134,18.71 L18.394,18.71 L18.394,19.295 L26.134,19.295 Z M18.394,17.915 L26.134,17.915 L26.134,17.33 L18.394,17.33 L18.394,17.915 Z M18.394,16.55 L26.134,16.55 L26.134,15.935 L18.394,15.935 L18.394,16.55 Z M33.694,14.6 L33.694,21.92 L32.314,21.92 L32.314,15.02 C31.909,16.25 31.414,17.39 30.814,18.41 L30.229,16.94 C31.159,15.59 31.819,14.045 32.239,12.305 L30.619,12.305 L30.619,10.94 L32.314,10.94 L32.314,8.12 L33.694,8.12 L33.694,10.94 L34.999,10.94 L34.999,12.305 L33.694,12.305 L33.694,13.07 C34.279,13.73 34.864,14.465 35.464,15.29 L34.699,16.43 C34.309,15.71 33.979,15.095 33.694,14.6 Z M35.614,11.015 L39.229,11.015 L39.229,13.76 L35.614,13.76 L35.614,11.015 Z M38.179,12.815 L38.179,11.975 L36.664,11.975 L36.664,12.815 L38.179,12.815 Z M39.934,11.015 L43.624,11.015 L43.624,13.76 L39.934,13.76 L39.934,11.015 Z M42.574,12.8 L42.574,11.99 L40.984,11.99 L40.984,12.8 L42.574,12.8 Z M35.944,17.555 C35.584,17.945 35.209,18.335 34.804,18.71 L34.399,17.435 C35.464,16.37 36.214,15.215 36.649,13.955 L37.954,14.195 C37.879,14.39 37.804,14.585 37.729,14.765 L39.484,14.765 C39.364,14.525 39.244,14.315 39.124,14.135 L40.519,13.925 C40.639,14.18 40.744,14.465 40.849,14.765 L43.804,14.765 L43.804,15.905 L40.984,15.905 L40.984,16.685 L43.354,16.685 L43.354,17.72 L40.984,17.72 L40.984,18.485 L43.444,18.485 L43.444,19.505 L40.984,19.505 L40.984,20.315 L44.089,20.315 L44.089,21.47 L37.174,21.47 L37.174,21.875 L35.944,21.875 L35.944,17.555 Z M37.174,20.315 L39.724,20.315 L39.724,19.505 L37.174,19.505 L37.174,20.315 Z M39.724,18.485 L39.724,17.72 L37.174,17.72 L37.174,18.485 L39.724,18.485 Z M39.724,16.685 L39.724,15.905 L37.174,15.905 L37.174,16.685 L39.724,16.685 Z M35.149,8.855 L37.144,8.855 L37.144,8.09 L38.374,8.09 L38.374,8.855 L40.654,8.855 L40.654,8.105 L41.869,8.105 L41.869,8.855 L43.984,8.855 L43.984,10.01 L41.869,10.01 L41.869,10.715 L40.654,10.715 L40.654,10.01 L38.374,10.01 L38.374,10.715 L37.144,10.715 L37.144,10.01 L35.149,10.01 L35.149,8.855 Z M48.454,8.12 L49.699,8.69 C49.399,9.635 49.039,10.535 48.604,11.39 L48.604,21.995 L47.224,21.995 L47.224,13.655 C46.759,14.3 46.249,14.915 45.709,15.515 L45.289,14.105 C46.729,12.395 47.779,10.4 48.454,8.12 Z M49.939,8.615 L59.059,8.615 L59.059,9.815 L56.224,9.815 L56.224,10.61 L58.549,10.61 L58.549,13.67 L50.014,13.67 L50.014,10.61 L52.414,10.61 L52.414,9.815 L49.939,9.815 L49.939,8.615 Z M54.994,10.61 L54.994,9.815 L53.659,9.815 L53.659,10.61 L54.994,10.61 Z M57.319,12.68 L57.319,11.645 L56.044,11.645 L56.044,12.68 L57.319,12.68 Z M54.994,12.68 L54.994,11.645 L53.644,11.645 L53.644,12.68 L54.994,12.68 Z M52.594,12.68 L52.594,11.645 L51.244,11.645 L51.244,12.68 L52.594,12.68 Z M50.494,14.225 L58.129,14.225 L58.129,20.06 L56.374,20.06 C57.364,20.27 58.324,20.555 59.239,20.9 L58.804,21.98 C57.6492857,21.468435 56.4489949,21.066664 55.219,20.78 L55.579,20.06 L52.954,20.06 L53.494,20.78 C52.654,21.26 51.454,21.665 49.879,21.965 L49.279,20.93 C50.644,20.69 51.709,20.39 52.489,20.06 L50.494,20.06 L50.494,14.225 Z M56.839,19.04 L56.839,18.32 L51.784,18.32 L51.784,19.04 L56.839,19.04 Z M51.784,17.465 L56.839,17.465 L56.839,16.76 L51.784,16.76 L51.784,17.465 Z M51.784,15.92 L56.839,15.92 L56.839,15.185 L51.784,15.185 L51.784,15.92 Z M61.204,9.65 L64.369,9.65 C64.174,9.17 63.964,8.72 63.724,8.3 L65.194,8.06 C65.404,8.54 65.599,9.065 65.809,9.65 L69.034,9.65 C69.289,9.125 69.484,8.57 69.604,8 L71.104,8.21 C70.954,8.72 70.759,9.2 70.489,9.65 L73.354,9.65 L73.354,10.97 L68.089,10.97 C68.014,11.315 67.939,11.645 67.849,11.975 L72.544,11.975 L72.544,13.28 L67.474,13.28 C67.354,13.61 67.249,13.925 67.129,14.24 L73.864,14.24 L73.864,15.575 L66.529,15.575 C66.379,15.86 66.229,16.13 66.079,16.4 L65.839,16.73 L72.874,16.73 L72.874,18.11 L68.839,18.11 L68.839,20.105 L73.804,20.105 L73.804,21.5 L62.524,21.5 L62.524,20.105 L67.384,20.105 L67.384,18.11 L64.684,18.11 C63.724,19.085 62.554,20 61.174,20.855 L60.229,19.625 C62.254,18.56 63.784,17.285 64.804,15.815 C64.864,15.725 64.909,15.65 64.954,15.575 L60.769,15.575 L60.769,14.24 L65.689,14.24 C65.824,13.925 65.944,13.61 66.064,13.28 L62.089,13.28 L62.089,11.975 L66.439,11.975 C66.514,11.645 66.574,11.3 66.634,10.97 L61.204,10.97 L61.204,9.65 Z" id="Shape" fill="#000000" fill-rule="nonzero"></path>
            <path d="M276.443,122.681 L271.269,122.681 L271.399,121.891 L274.492,118.785 C275.042,118.23 275.425,117.788 275.638,117.458 C275.851,117.128 275.986,116.791 276.045,116.447 C276.115,116.009 276.062,115.648 275.887,115.363 C275.711,115.078 275.439,114.935 275.072,114.935 C274.552,114.935 274.136,115.088 273.822,115.395 C273.507,115.702 273.307,116.125 273.221,116.664 L272.143,116.664 L272.131,116.629 C272.236,115.867 272.562,115.243 273.109,114.756 C273.656,114.27 274.357,114.027 275.213,114.027 C275.9,114.027 276.428,114.253 276.795,114.704 C277.162,115.154 277.291,115.722 277.182,116.406 C277.094156,116.913188 276.890548,117.393291 276.587,117.809 C276.268,118.26 275.83,118.759 275.271,119.306 L272.811,121.744 L272.822,121.779 L276.59,121.779 L276.443,122.681 Z M267.915,59.189 C267.969,58.859 267.91,58.583 267.74,58.359 C267.57,58.135 267.261,57.934 266.814,57.755 C266.177,57.536 265.714,57.245 265.428,56.879 C265.142,56.514 265.047,56.027 265.143,55.419 C265.24,54.806 265.473,54.319 265.844,53.955 C266.215,53.591 266.684,53.374 267.249,53.302 L267.437,52.115 L268.264,52.115 L268.071,53.313 C268.597,53.406 268.982,53.668 269.226,54.097 C269.469,54.527 269.536,55.094 269.424,55.8 L268.393,55.8 C268.472,55.295 268.436,54.897 268.286,54.605 C268.136,54.313 267.877,54.167 267.512,54.167 C267.15,54.167 266.853,54.279 266.621,54.503 C266.388,54.727 266.243,55.026 266.185,55.403 C266.128,55.76 266.181,56.044 266.344,56.253 C266.507,56.463 266.83,56.665 267.314,56.858 C267.958,57.094 268.416,57.388 268.688,57.741 C268.961,58.094 269.048,58.573 268.952,59.178 C268.848,59.816 268.598,60.312 268.202,60.666 C267.807,61.021 267.301,61.23 266.685,61.294 L266.524,62.326 L265.697,62.326 L265.857,61.294 C265.317,61.223 264.893,60.993 264.585,60.604 C264.277,60.216 264.184,59.649 264.305,58.904 L265.342,58.904 C265.249,59.477 265.305,59.876 265.512,60.099 C265.717,60.323 266.006,60.435 266.379,60.435 C266.783,60.435 267.125,60.323 267.402,60.099 C267.68,59.876 267.851,59.572 267.915,59.189 Z M274.935,58.228 C274.72,59.291 274.361,60.073 273.858,60.572 C273.355,61.072 272.736,61.322 272.002,61.322 C271.332,61.322 270.831,61.05 270.496,60.508 C270.161,59.965 270.092,59.205 270.289,58.228 L270.659,56.375 C270.871,55.315 271.231,54.533 271.739,54.03 C272.228994,53.5341745 272.901044,53.2612331 273.598,53.275 C274.271,53.275 274.772,53.548 275.101,54.092 C275.431,54.636 275.499,55.397 275.306,56.375 L274.935,58.228 Z M274.312,56.149 C274.455,55.429 274.451,54.909 274.299,54.589 C274.146,54.269 273.857,54.108 273.431,54.108 C273.041,54.108 272.694,54.282 272.391,54.632 C272.089,54.981 271.871,55.487 271.739,56.149 L271.283,58.442 C271.139,59.162 271.145,59.684 271.299,60.008 C271.453,60.332 271.743,60.494 272.169,60.494 C272.559,60.494 272.904,60.319 273.203,59.968 C273.502,59.617 273.719,59.108 273.855,58.442 L274.312,56.149 Z M48.899,53.328 C49.016,53.653 49.133,54.004 49.25,54.394 L54.307,54.394 L54.307,55.538 L42.75,55.538 L42.75,54.394 L47.911,54.394 C47.799299,54.1084516 47.6690203,53.8305237 47.521,53.562 L48.899,53.328 Z M52.201,65.366 L51.122,65.366 L50.836,64.261 L51.837,64.313 C52.318,64.313 52.565,64.131 52.565,63.793 L52.565,60.504 L44.505,60.504 L44.505,65.405 L43.335,65.405 L43.335,59.438 L53.735,59.438 L53.735,64.053 C53.735,64.924 53.215,65.366 52.201,65.366 Z M44.791,56.149 L52.292,56.149 L52.292,58.853 L44.791,58.853 L44.791,56.15 L44.791,56.149 Z M51.109,57.917 L51.109,57.085 L45.974,57.085 L45.974,57.917 L51.109,57.917 Z M45.896,61.128 L51.187,61.128 L51.187,63.858 L45.896,63.858 L45.896,61.128 Z M50.095,62.948 L50.095,62.038 L47.001,62.038 L47.001,62.948 L50.095,62.948 Z M60.261,54.329 L62.9,54.329 C62.814878,54.0678991 62.7150518,53.8118232 62.601,53.562 L63.849,53.354 C63.953,53.64 64.044,53.965 64.148,54.329 L67.073,54.329 L67.073,55.382 L65.929,55.382 C65.8394259,55.7288792 65.7220461,56.0679765 65.578,56.396 L67.346,56.396 L67.346,57.436 L59.728,57.436 L59.728,56.396 L61.704,56.396 C61.6091744,56.0538185 61.5007552,55.7155503 61.379,55.382 L60.261,55.382 L60.261,54.33 L60.261,54.329 Z M64.382,56.396 C64.525,56.058 64.642,55.72 64.746,55.382 L62.627,55.382 C62.731,55.694 62.822,56.032 62.926,56.396 L64.382,56.396 Z M60.456,58.073 L66.722,58.073 L66.722,62.194 L64.252,62.194 L64.252,62.884 L67.45,62.884 L67.45,63.924 L64.252,63.924 L64.252,65.405 L63.004,65.405 L63.004,63.923 L59.741,63.923 L59.741,62.883 L63.004,62.883 L63.004,62.194 L60.456,62.194 L60.456,58.074 L60.456,58.073 Z M65.565,61.206 L65.565,60.608 L61.652,60.608 L61.652,61.206 L65.565,61.206 Z M61.652,59.698 L65.565,59.698 L65.565,59.048 L61.652,59.048 L61.652,59.698 Z M55.971,53.835 L59.923,53.835 L59.923,54.81 C59.555148,56.0081241 59.143201,57.1922634 58.688,58.36 C59.416,59.555 59.819,60.595 59.884,61.492 C59.884,62.09 59.754,62.532 59.52,62.805 C59.169,63.13 58.558,63.299 57.687,63.312 L57.284,62.064 C57.544,62.104 57.778,62.129 57.96,62.129 C58.246,62.103 58.441,62.051 58.545,61.973 C58.623,61.869 58.675,61.713 58.675,61.493 C58.675,60.608 58.272,59.633 57.492,58.541 C58.012,57.228 58.428,56.045 58.714,54.992 L57.18,54.992 L57.18,65.418 L55.971,65.418 L55.971,53.835 Z M73.599,59.49 C73.4311277,59.8305255 73.2354649,60.1566301 73.014,60.465 L72.364,59.698 L72.364,64.053 L70.518,64.053 L70.518,64.963 L69.452,64.963 L69.452,60.283 C69.309,60.556 69.166,60.816 69.01,61.076 L68.425,60.127 C69.153,58.671 69.634,57.02 69.894,55.174 L68.75,55.174 L68.75,54.082 L72.507,54.082 L72.507,55.174 L71.025,55.174 C70.8917517,56.116532 70.683082,57.0468512 70.401,57.956 L72.364,57.956 L72.364,59.672 C72.728,59.139 73.053,58.424 73.326,57.527 L74.275,57.735 C74.197,57.995 74.106,58.255 74.015,58.502 L76.03,58.502 L76.03,59.49 L75.094,59.49 L75.094,59.75 C75.094,60.062 75.081,60.361 75.055,60.647 L76.069,60.647 L76.069,61.661 L74.925,61.661 C74.8891525,61.8877087 74.8457954,62.1131659 74.795,62.337 C75.211,62.623 75.601,62.948 75.965,63.312 L75.419,64.144 C75.1391457,63.83806 74.8348034,63.5554563 74.509,63.299 C74.225596,64.0807879 73.8363014,64.8200101 73.352,65.496 L72.533,64.781 C73.2287593,63.8608211 73.7045847,62.793549 73.924,61.661 L72.78,61.661 L72.78,60.647 L74.067,60.647 C74.093,60.348 74.106,60.049 74.106,59.75 L74.106,59.49 L73.599,59.49 Z M77.863,58.372 L76.264,58.372 L76.264,57.41 L78.071,57.41 C77.681,56.994 77.252,56.578 76.771,56.15 L77.447,55.473 C77.694,55.681 77.928,55.889 78.136,56.097 C78.448,55.733 78.76,55.304 79.085,54.81 L76.433,54.81 L76.433,53.848 L80.307,53.848 L80.307,54.719 C79.891,55.499 79.41,56.214 78.864,56.839 C79.046,57.033 79.202,57.229 79.358,57.41 L80.554,57.41 L80.554,58.216 C80.307,58.931 80.034,59.529 79.735,60.01 L78.968,59.386 C79.15,59.1 79.319,58.762 79.488,58.372 L78.812,58.372 L78.812,60.582 L80.034,60.582 L80.034,61.492 L78.812,61.492 L78.812,64.092 C79.046,64.144 79.332,64.183 79.657,64.183 C79.956,64.183 80.242,64.157 80.502,64.118 L80.281,65.236 C79.085,65.236 78.266,65.08 77.85,64.781 C77.538,64.573 77.252,64.209 77.018,63.715 C76.836,64.456 76.615,65.041 76.329,65.483 L75.497,64.833 C76.147,63.923 76.485,62.143 76.498,59.49 L77.434,59.49 C77.421,60.582 77.369,61.531 77.265,62.363 C77.447,62.831 77.642,63.208 77.863,63.468 L77.863,58.372 Z M73.924,55.447 L73.924,56.11 C73.924,56.357 74.041,56.487 74.275,56.487 L74.873,56.487 C74.9752953,56.4869628 75.0751178,56.4555501 75.159,56.397 C75.263,56.344 75.328,55.993 75.367,55.369 L76.381,55.707 C76.277,56.539 76.147,57.02 75.978,57.163 C75.822,57.293 75.523,57.371 75.107,57.384 L73.95,57.384 C73.586,57.384 73.326,57.28 73.157,57.085 C72.949,56.89 72.858,56.643 72.858,56.345 L72.858,53.51 L73.924,53.51 L73.924,54.433 C74.5595689,54.2869581 75.1750676,54.0643309 75.757,53.77 L76.108,54.732 C75.4151927,55.0667858 74.6806608,55.3072575 73.924,55.447 Z M70.518,63.027 L71.311,63.027 L71.311,58.97 L70.518,58.97 L70.518,63.026 L70.518,63.027 Z M47.846,168.62 L47.846,172.832 C48.171,172.689 48.483,172.546 48.795,172.39 L49.003,173.456 C48.275,173.742 47.43,174.054 46.468,174.366 L46.156,173.313 C46.481,173.196 46.65,172.988 46.65,172.676 L46.65,164.304 C49.38,163.888 51.525,163.434 53.111,162.914 L53.787,163.901 C53.15,164.122 52.396,164.331 51.538,164.538 C51.5476644,165.505401 51.5823427,166.472391 51.642,167.438 L54.281,167.438 L54.281,168.62 L51.746,168.62 C51.798,169.114 51.85,169.543 51.928,169.894 C52.136,171.025 52.357,171.844 52.617,172.364 C52.877,172.871 53.059,173.131 53.189,173.131 C53.306,173.131 53.423,172.455 53.54,171.129 L54.554,171.689 C54.294,173.612 53.904,174.587 53.397,174.587 C52.968,174.587 52.513,174.237 52.045,173.547 C51.564,172.858 51.161,171.792 50.849,170.362 C50.7242701,169.786543 50.6288141,169.205129 50.563,168.62 L47.846,168.62 Z M50.355,164.798 C49.588,164.954 48.756,165.098 47.846,165.24 L47.846,167.437 L50.459,167.437 C50.4020196,166.558354 50.3673418,165.678405 50.355,164.798 Z M49.939,171.753 C50.641,172.637 51.187,173.417 51.577,174.093 L50.654,174.743 C50.251,174.015 49.731,173.223 49.094,172.351 L49.939,171.753 Z M45.35,162.718 L46.468,163.238 C46.1566413,164.194201 45.7516789,165.117341 45.259,165.994 L45.259,174.782 L44.063,174.782 L44.063,167.802 C43.686,168.282 43.283,168.75 42.841,169.218 L42.451,167.918 C43.764,166.436 44.726,164.694 45.35,162.718 Z M60.261,163.68 L62.9,163.68 C62.814878,163.418899 62.7150518,163.162823 62.601,162.913 L63.849,162.705 C63.953,162.991 64.044,163.316 64.148,163.68 L67.073,163.68 L67.073,164.733 L65.929,164.733 C65.8394259,165.079879 65.7220461,165.418977 65.578,165.747 L67.346,165.747 L67.346,166.787 L59.728,166.787 L59.728,165.747 L61.704,165.747 C61.6091744,165.404818 61.5007552,165.06655 61.379,164.733 L60.261,164.733 L60.261,163.68 Z M64.382,165.747 C64.525,165.409 64.642,165.071 64.746,164.733 L62.627,164.733 C62.731,165.045 62.822,165.383 62.926,165.747 L64.382,165.747 Z M60.456,167.424 L66.722,167.424 L66.722,171.545 L64.252,171.545 L64.252,172.235 L67.45,172.235 L67.45,173.275 L64.252,173.275 L64.252,174.756 L63.004,174.756 L63.004,173.274 L59.741,173.274 L59.741,172.234 L63.004,172.234 L63.004,171.545 L60.456,171.545 L60.456,167.425 L60.456,167.424 Z M65.565,170.557 L65.565,169.959 L61.652,169.959 L61.652,170.557 L65.565,170.557 Z M61.652,169.049 L65.565,169.049 L65.565,168.399 L61.652,168.399 L61.652,169.049 Z M55.971,163.186 L59.923,163.186 L59.923,164.161 C59.555148,165.359124 59.143201,166.543263 58.688,167.711 C59.416,168.906 59.819,169.946 59.884,170.843 C59.884,171.441 59.754,171.883 59.52,172.156 C59.169,172.481 58.558,172.65 57.687,172.663 L57.284,171.415 C57.544,171.455 57.778,171.48 57.96,171.48 C58.246,171.454 58.441,171.402 58.545,171.324 C58.623,171.22 58.675,171.064 58.675,170.844 C58.675,169.959 58.272,168.984 57.492,167.892 C58.012,166.579 58.428,165.396 58.714,164.343 L57.18,164.343 L57.18,174.769 L55.971,174.769 L55.971,163.186 Z M73.599,168.841 C73.4311277,169.181525 73.2354649,169.50763 73.014,169.816 L72.364,169.049 L72.364,173.404 L70.518,173.404 L70.518,174.314 L69.452,174.314 L69.452,169.634 C69.309,169.907 69.166,170.167 69.01,170.427 L68.425,169.478 C69.153,168.022 69.634,166.371 69.894,164.525 L68.75,164.525 L68.75,163.433 L72.507,163.433 L72.507,164.525 L71.025,164.525 C70.8917517,165.467532 70.683082,166.397851 70.401,167.307 L72.364,167.307 L72.364,169.023 C72.728,168.49 73.053,167.775 73.326,166.878 L74.275,167.086 C74.197,167.346 74.106,167.606 74.015,167.853 L76.03,167.853 L76.03,168.841 L75.094,168.841 L75.094,169.101 C75.094,169.413 75.081,169.712 75.055,169.998 L76.069,169.998 L76.069,171.012 L74.925,171.012 C74.8891525,171.238709 74.8457954,171.464166 74.795,171.688 C75.211,171.974 75.601,172.299 75.965,172.663 L75.419,173.495 C75.1391457,173.18906 74.8348034,172.906456 74.509,172.65 C74.225596,173.431788 73.8363014,174.17101 73.352,174.847 L72.533,174.132 C73.2287593,173.211821 73.7045847,172.144549 73.924,171.012 L72.78,171.012 L72.78,169.998 L74.067,169.998 C74.093,169.699 74.106,169.4 74.106,169.101 L74.106,168.841 L73.599,168.841 Z M77.863,167.723 L76.264,167.723 L76.264,166.761 L78.071,166.761 C77.681,166.345 77.252,165.929 76.771,165.501 L77.447,164.824 C77.694,165.032 77.928,165.24 78.136,165.448 C78.448,165.084 78.76,164.655 79.085,164.161 L76.433,164.161 L76.433,163.199 L80.307,163.199 L80.307,164.07 C79.891,164.85 79.41,165.565 78.864,166.19 C79.046,166.384 79.202,166.58 79.358,166.761 L80.554,166.761 L80.554,167.567 C80.307,168.282 80.034,168.88 79.735,169.361 L78.968,168.737 C79.15,168.451 79.319,168.113 79.488,167.723 L78.812,167.723 L78.812,169.933 L80.034,169.933 L80.034,170.843 L78.812,170.843 L78.812,173.443 C79.046,173.495 79.332,173.534 79.657,173.534 C79.956,173.534 80.242,173.508 80.502,173.469 L80.281,174.587 C79.085,174.587 78.266,174.431 77.85,174.132 C77.538,173.924 77.252,173.56 77.018,173.066 C76.836,173.807 76.615,174.392 76.329,174.834 L75.497,174.184 C76.147,173.274 76.485,171.494 76.498,168.841 L77.434,168.841 C77.421,169.933 77.369,170.882 77.265,171.714 C77.447,172.182 77.642,172.559 77.863,172.819 L77.863,167.723 Z M73.924,164.798 L73.924,165.461 C73.924,165.708 74.041,165.838 74.275,165.838 L74.873,165.838 C74.9752953,165.837963 75.0751178,165.80655 75.159,165.748 C75.263,165.695 75.328,165.344 75.367,164.72 L76.381,165.058 C76.277,165.89 76.147,166.371 75.978,166.514 C75.822,166.644 75.523,166.722 75.107,166.735 L73.95,166.735 C73.586,166.735 73.326,166.631 73.157,166.436 C72.949,166.241 72.858,165.994 72.858,165.696 L72.858,162.861 L73.924,162.861 L73.924,163.784 C74.5595689,163.637958 75.1750676,163.415331 75.757,163.121 L76.108,164.083 C75.4151927,164.417786 74.6806608,164.658258 73.924,164.798 Z M70.518,172.378 L71.311,172.378 L71.311,168.32 L70.518,168.32 L70.518,172.376 L70.518,172.378 Z M263.025,162.807 L263.667,162.807 C264.8321,164.016103 266.215867,164.993358 267.745,165.687 L267.302,166.489 C266.847174,166.273357 266.405712,166.030586 265.98,165.762 L265.98,166.612 L263.799,166.612 L263.799,168.028 L266.452,168.028 L266.452,168.896 L263.799,168.896 L263.799,170.388 L267.311,170.388 L267.311,171.266 L259.39,171.266 L259.39,170.388 L262.893,170.388 L262.893,168.896 L260.23,168.896 L260.23,168.028 L262.893,168.028 L262.893,166.612 L260.712,166.612 L260.712,165.762 C260.277,166.026 259.824,166.272 259.352,166.508 L258.918,165.724 C260.561,164.94 261.93,163.968 263.025,162.807 Z M260.731,165.752 L265.961,165.752 C264.99721,165.162069 264.117581,164.444574 263.346,163.619 C262.628,164.412 261.75,165.119 260.731,165.752 Z M269.492,166.697 C269.312,166.885 269.114,167.065 268.907,167.235 L268.454,166.64 C269.134,166.092 269.605,165.431 269.86,164.657 L270.616,164.771 C270.568,164.921 270.521,165.073 270.465,165.205 L272.098,165.205 L272.098,165.809 C271.899573,166.255537 271.649177,166.677115 271.352,167.065 C271.881,167.415 272.343,167.763 272.759,168.113 L272.164,168.708 C272.117,168.66 272.07,168.623 272.032,168.585 L272.032,171.436 L271.239,171.436 L271.239,170.974 L269.832,170.974 L269.832,171.484 L269.048,171.484 L269.048,168.726 C268.954,168.755 268.869,168.783 268.784,168.811 L268.425,168.094 C269.083974,167.929034 269.695245,167.612269 270.21,167.169 C269.974,167.009 269.738,166.848 269.492,166.697 Z M270.852,167.622 C270.502,167.942 270.125,168.217 269.719,168.434 L271.871,168.434 C271.54831,168.142276 271.207641,167.871077 270.851,167.622 L270.852,167.622 Z M270.72,166.64 C270.908,166.413 271.078,166.168 271.23,165.904 L270.115,165.904 C270.059,165.998 270.002,166.083 269.945,166.158 C270.219,166.318 270.475,166.479 270.72,166.64 Z M269.832,170.218 L271.239,170.218 L271.239,169.17 L269.832,169.17 L269.832,170.218 Z M272.542,163.609 L272.542,165.195 L271.768,165.195 L271.768,164.355 L269.369,164.355 L269.369,165.195 L268.595,165.195 L268.595,163.609 L270.153,163.609 C270.08102,163.384188 269.995873,163.163808 269.898,162.949 L270.776,162.807 C270.852,163.052 270.927,163.317 271.003,163.609 L272.542,163.609 Z M272.985,164.629 L274.298,164.629 C274.326,164.402 274.345,164.166 274.364,163.93 L272.702,163.93 L272.702,163.137 L277.007,163.137 L277.007,163.93 L275.242,163.93 C275.223,164.176 275.204,164.402 275.176,164.629 L276.696,164.629 L276.696,169.633 L272.986,169.633 L272.986,164.629 L272.985,164.629 Z M275.875,168.859 L275.875,168.141 L273.797,168.141 L273.797,168.859 L275.875,168.859 Z M273.797,167.433 L275.875,167.433 L275.875,166.773 L273.797,166.773 L273.797,167.433 Z M273.797,166.055 L275.875,166.055 L275.875,165.365 L273.797,165.365 L273.797,166.055 Z M273.911,169.652 L274.524,170.19 C274.109,170.719 273.59,171.19 272.985,171.597 L272.457,170.917 C273.007479,170.577542 273.498646,170.15022 273.911,169.652 Z M275.771,169.642 C276.328,170.077 276.8,170.511 277.177,170.945 L276.573,171.54 C276.253,171.115 275.799,170.662 275.213,170.18 L275.771,169.642 Z M278.178,163.128 L281.218,163.128 L281.218,169.028 L280.699,169.028 C281.124,169.765 281.454,170.398 281.69,170.945 L281.02,171.408 C280.724607,170.702113 280.380788,170.017482 279.991,169.359 L280.529,169.029 L278.981,169.029 L279.651,169.359 C279.38471,170.118248 279.043003,170.848898 278.631,171.54 L277.904,171.162 C278.339,170.445 278.697,169.727 278.962,169.029 L278.178,169.029 L278.178,163.128 Z M280.35,168.236 L280.35,167.32 L279.056,167.32 L279.056,168.236 L280.35,168.236 Z M279.056,166.555 L280.35,166.555 L280.35,165.62 L279.056,165.62 L279.056,166.555 Z M279.056,164.865 L280.35,164.865 L280.35,163.921 L279.056,163.921 L279.056,164.865 Z M281.7,163.704 L283.57,163.704 C283.474084,163.443001 283.363577,163.187598 283.239,162.939 L284.117,162.788 C284.23,163.062 284.334,163.364 284.447,163.704 L286.297,163.704 L286.297,164.554 L281.7,164.554 L281.7,163.704 Z M281.568,166.291 L282.729,166.291 C282.592519,165.873129 282.418475,165.468476 282.209,165.082 L283.041,164.771 C283.248,165.186 283.437,165.696 283.607,166.291 L284.523,166.291 C284.749,165.8 284.938,165.29 285.108,164.751 L285.948,165.044 C285.778,165.498 285.599,165.913 285.401,166.291 L286.515,166.291 L286.515,167.141 L281.568,167.141 L281.568,166.291 Z M286.015,167.877 L286.015,171.559 L285.175,171.559 L285.175,171.077 L282.918,171.077 L282.918,171.559 L282.078,171.559 L282.078,167.877 L286.015,167.877 Z M282.918,170.247 L285.174,170.247 L285.174,168.698 L282.918,168.698 L282.918,170.247 Z M289.366,162.731 L290.206,163.128 C289.995559,163.771013 289.727122,164.393573 289.404,164.988 L289.404,171.549 L288.507,171.549 L288.507,166.376 C288.19792,166.78033 287.867099,167.167567 287.516,167.536 L287.232,166.602 C288.208625,165.47716 288.935919,164.158216 289.366,162.732 L289.366,162.731 Z M290.31,164.789 L293.766,164.789 L293.766,162.854 L294.663,162.854 L294.663,164.789 L295.966,164.789 L295.966,165.658 L294.663,165.658 L294.663,170.454 C294.663,171.134 294.333,171.484 293.672,171.484 L292.265,171.484 L292.066,170.605 C292.51,170.643 292.945,170.662 293.36,170.662 C293.624,170.662 293.766,170.511 293.766,170.228 L293.766,165.658 L290.31,165.658 L290.31,164.789 Z M291.283,166.546 C291.982,167.366 292.52,168.084 292.897,168.708 L292.133,169.236 C291.736,168.566 291.207,167.82 290.546,166.999 L291.283,166.546 Z M264.121,95.076 L267.985,95.076 L267.985,102.576 L267.325,102.576 C267.865,103.512 268.285,104.316 268.585,105.012 L267.733,105.6 C267.357499,104.702909 266.920458,103.832836 266.425,102.996 L267.109,102.576 L265.141,102.576 L265.993,102.996 C265.657,103.956 265.225,104.88 264.697,105.768 L263.773,105.288 C264.30208,104.426498 264.751924,103.518779 265.117,102.576 L264.121,102.576 L264.121,95.076 Z M266.881,101.568 L266.881,100.404 L265.237,100.404 L265.237,101.568 L266.881,101.568 Z M265.237,99.432 L266.881,99.432 L266.881,98.244 L265.237,98.244 L265.237,99.432 Z M265.237,97.284 L266.881,97.284 L266.881,96.084 L265.237,96.084 L265.237,97.284 Z M268.597,95.808 L270.973,95.808 C270.851309,95.4763918 270.711089,95.1518807 270.553,94.836 L271.669,94.644 C271.813,94.992 271.945,95.376 272.089,95.808 L274.441,95.808 L274.441,96.888 L268.597,96.888 L268.597,95.808 Z M268.429,99.096 L269.905,99.096 C269.731788,98.5651377 269.510887,98.0510408 269.245,97.56 L270.301,97.164 C270.565,97.692 270.805,98.34 271.021,99.096 L272.185,99.096 C272.473,98.472 272.713,97.824 272.929,97.14 L273.997,97.512 C273.798022,98.0539019 273.565574,98.5829206 273.301,99.096 L274.717,99.096 L274.717,100.176 L268.429,100.176 L268.429,99.096 Z M274.081,101.112 L274.081,105.792 L273.013,105.792 L273.013,105.18 L270.145,105.18 L270.145,105.792 L269.077,105.792 L269.077,101.112 L274.081,101.112 Z M270.145,104.124 L273.013,104.124 L273.013,102.156 L270.145,102.156 L270.145,104.124 Z M278.341,94.572 L279.409,95.076 C279.141313,95.893271 278.799909,96.6845249 278.389,97.44 L278.389,105.78 L277.249,105.78 L277.249,99.204 C276.865,99.708 276.445,100.2 275.989,100.68 L275.629,99.492 C276.853,98.088 277.765,96.444 278.341,94.572 Z M279.541,97.188 L283.933,97.188 L283.933,94.728 L285.073,94.728 L285.073,97.188 L286.729,97.188 L286.729,98.292 L285.073,98.292 L285.073,104.388 C285.073,105.252 284.653,105.696 283.813,105.696 L282.025,105.696 L281.773,104.58 C282.337,104.628 282.889,104.652 283.417,104.652 C283.753,104.652 283.933,104.46 283.933,104.1 L283.933,98.292 L279.541,98.292 L279.541,97.188 Z M280.777,99.42 C281.665,100.464 282.349,101.376 282.829,102.168 L281.857,102.84 C281.353,101.988 280.681,101.04 279.841,99.996 L280.777,99.42 Z M11.617,135.118 L12.981,135.118 L12.981,134.073 L11.903,134.073 L11.903,133.193 L17.26,133.193 L17.26,134.073 L16.28,134.073 L16.28,135.118 L17.6,135.118 L17.6,136.031 L16.28,136.031 L16.28,138.506 L15.335,138.506 L15.335,136.031 L13.861,136.031 C13.784,136.603 13.651,137.076 13.454,137.461 C13.179,137.989 12.728,138.396 12.112,138.682 L11.595,137.868 C12.123,137.604 12.475,137.263 12.673,136.856 C12.7784683,136.589854 12.8555617,136.313324 12.903,136.031 L11.617,136.031 L11.617,135.118 Z M15.335,135.118 L15.335,134.073 L13.915,134.073 L13.915,135.118 L15.335,135.118 Z M11.034,131.114 L11.034,131.73 L13.234,131.73 L13.234,131.114 L11.034,131.114 Z M13.234,130.399 L13.234,129.739 L11.034,129.739 L11.034,130.399 L13.234,130.399 Z M15.973,131.114 L15.973,131.708 L18.228,131.708 L18.228,131.114 L15.973,131.114 Z M18.228,130.399 L18.228,129.761 L15.973,129.761 L15.973,130.399 L18.228,130.399 Z M14.257,128.936 L14.257,132.544 L11.034,132.544 L11.034,138.715 L10,138.715 L10,128.936 L14.257,128.936 Z M18.227,132.522 L14.95,132.522 L14.95,128.936 L19.273,128.936 L19.273,137.494 C19.273,138.275 18.899,138.671 18.151,138.671 C17.766,138.671 17.381,138.661 16.985,138.638 L16.743,137.714 C17.117,137.747 17.458,137.769 17.777,137.769 C18.074,137.769 18.227,137.571 18.227,137.175 L18.227,132.522 Z M21.825,128.595 L22.848,128.683 C22.7657412,129.347415 22.6777379,130.011107 22.584,130.674 L24.146,130.674 L24.146,131.257 C24.08,133.017 23.794,134.535 23.288,135.833 C23.772,136.339 24.178,136.801 24.487,137.208 L23.783,138.033 C23.4792949,137.625449 23.1562587,137.232666 22.815,136.856 C22.4114702,137.607244 21.8875235,138.28726 21.264,138.869 L20.604,138.044 C21.2190874,137.489119 21.7262789,136.825295 22.1,136.086 C21.67,135.646 21.209,135.184 20.703,134.7 C20.945,133.776 21.176,132.764 21.373,131.675 L20.603,131.675 L20.603,130.675 L21.539,130.675 C21.6427078,129.982844 21.7380481,129.28946 21.825,128.595 Z M22.54,135.075 C22.892,134.073 23.112,132.94 23.178,131.675 L22.418,131.675 C22.232,132.753 22.034,133.666 21.825,134.392 C22.078,134.634 22.32,134.854 22.54,135.074 L22.54,135.075 Z M29.932,133.996 L29.932,138.826 L28.931,138.826 L28.931,138.209 L25.917,138.209 L25.917,138.825 L24.927,138.825 L24.927,133.996 L29.932,133.996 Z M25.917,137.23 L28.931,137.23 L28.931,134.953 L25.917,134.953 L25.917,137.23 Z M24.553,133.193 L24.388,132.247 C24.927,132.071 25.686,130.872 26.665,128.639 L27.655,128.969 C27.061,130.245 26.467,131.323 25.851,132.181 C26.8785151,132.118072 27.9025954,132.007956 28.92,131.851 C28.6682605,131.333126 28.4004642,130.823213 28.117,130.322 L29.007,129.893 C29.58,130.85 30.107,131.906 30.614,133.061 L29.657,133.523 C29.547,133.237 29.437,132.973 29.327,132.731 C27.7419258,132.943969 26.1494979,133.098075 24.553,133.193 Z M223.342,182.327 L224.277,182.437 C224.222,183.394 224.101,184.241 223.903,184.978 L222.968,184.692 C223.166,183.999 223.298,183.207 223.342,182.327 Z M225.442,182.14 C225.608,182.822 225.762,183.57 225.894,184.384 L224.914,184.615 C224.837879,183.848478 224.731798,183.085228 224.596,182.327 L225.443,182.14 L225.442,182.14 Z M226.542,179.335 C226.774,179.973 226.982,180.688 227.181,181.502 L226.311,181.722 L226.213,181.26 C225.179,181.568 224.211,181.788 223.287,181.898 L223.012,180.952 C223.199,180.875 223.352,180.776 223.485,180.655 C223.815,180.325 224.233,179.775 224.717,179.005 C224.233,179.082 223.737,179.159 223.232,179.236 L222.968,178.29 C223.133,178.224 223.276,178.092 223.408,177.905 C223.914,177.015 224.354,176.025 224.728,174.925 L225.728,175.32 C225.223,176.486 224.706,177.454 224.178,178.213 C224.552,178.169 224.915,178.114 225.288,178.048 C225.508,177.652 225.751,177.223 225.993,176.761 L226.928,177.102 L226.928,176.332 L229.502,176.332 L229.502,175.012 L230.525,175.012 L230.525,176.332 L233.065,176.332 L233.065,177.333 L230.525,177.333 L230.525,178.753 L232.824,178.753 L232.824,179.753 L227.224,179.753 L227.224,178.753 L229.502,178.753 L229.502,177.333 L226.928,177.333 L226.928,177.146 C225.96,178.829 225.157,180.05 224.508,180.798 C225.01457,180.71277 225.517345,180.606343 226.015,180.479 C225.927856,180.179764 225.832487,179.882985 225.729,179.589 L226.543,179.335 L226.542,179.335 Z M226.708,181.855 C226.972,182.426 227.192,183.031 227.39,183.691 L226.532,184.065 C226.364074,183.404753 226.158403,182.754684 225.916,182.118 L226.708,181.854 L226.708,181.855 Z M232.505,180.633 L232.505,185.154 L231.493,185.154 L231.493,184.714 L228.6,184.714 L228.6,185.154 L227.577,185.154 L227.577,180.634 L232.505,180.634 L232.505,180.633 Z M228.6,183.735 L231.493,183.735 L231.493,181.601 L228.6,181.601 L228.6,183.735 Z M234.276,176.046 L238.489,176.046 L238.489,175.034 L239.545,175.034 L239.545,176.046 L243.735,176.046 L243.735,177.047 L239.545,177.047 L239.545,177.917 L242.988,177.917 L242.988,181.227 L240.358,181.227 C241.128,182.25 242.394,183.163 244.154,183.967 L243.439,184.879 C241.591,183.801 240.293,182.602 239.545,181.282 L239.545,185.143 L238.489,185.143 L238.489,181.283 C237.664,182.745 236.333,183.944 234.507,184.89 L233.902,183.922 C235.596,183.207 236.85,182.305 237.664,181.227 L235.068,181.227 L235.068,177.917 L238.488,177.917 L238.488,177.047 L234.276,177.047 L234.276,176.047 L234.276,176.046 Z M241.943,180.27 L241.943,178.895 L239.545,178.895 L239.545,180.27 L241.943,180.27 Z M238.489,180.27 L238.489,178.895 L236.113,178.895 L236.113,180.27 L238.489,180.27 Z" id="Shape" fill="#2A3052" fill-rule="nonzero"></path>
            <polygon id="Path" fill="#2A3052" points="258 110.52 258 109 292.966 109 292.966 110.52"></polygon>
        </g>
    </g>
</svg>