<svg width="304" height="203" viewBox="0 0 304 203" xmlns="http://www.w3.org/2000/svg"><title>traditional chinese put spread</title><g transform="translate(2 2)" fill="none" fill-rule="evenodd"><path stroke="#C2C2C2" stroke-width="2.455" fill="#F1F2F2" fill-rule="nonzero" d="M300 0v199H0V0z"/><path d="M29.704 9.405h5.85V8.7h1.38v.705h5.76v1.02h-5.76v.555h5.01v.945h-11.46v-.945h5.07v-.555h-5.85v-1.02zm.615 3.06h11.79v2.595h-11.79v-2.595zm10.5 1.68v-.78h-2.295v.78h2.295zm-3.555 0v-.78h-2.145v.78h2.145zm-3.405 0v-.78h-2.25v.78h2.25zm-2.865 1.47h10.47v5.235h-2.85c1.5.18 2.94.435 4.335.78l-.405 1.005c-1.62-.45-3.315-.81-5.085-1.05l.375-.735h-3.375l.465.615c-1.14.48-2.805.87-4.965 1.17l-.57-1.005c1.755-.21 3.165-.465 4.23-.78h-2.625v-5.235zm9.105 4.26v-.585h-7.74v.585h7.74zm-7.74-1.38h7.74v-.585h-7.74v.585zm0-1.365h7.74v-.615h-7.74v.615zm15.3-1.95v7.32h-1.38v-6.9c-.405 1.23-.9 2.37-1.5 3.39l-.585-1.47c.93-1.35 1.59-2.895 2.01-4.635h-1.62V11.52h1.695V8.7h1.38v2.82h1.305v1.365h-1.305v.765c.585.66 1.17 1.395 1.77 2.22l-.765 1.14c-.39-.72-.72-1.335-1.005-1.83zm1.92-3.585h3.615v2.745h-3.615v-2.745zm2.565 1.8v-.84h-1.515v.84h1.515zm1.755-1.8h3.69v2.745h-3.69v-2.745zm2.64 1.785v-.81h-1.59v.81h1.59zm-6.63 4.755c-.36.39-.735.78-1.14 1.155l-.405-1.275c1.065-1.065 1.815-2.22 2.25-3.48l1.305.24c-.075.195-.15.39-.225.57h1.755c-.12-.24-.24-.45-.36-.63l1.395-.21c.12.255.225.54.33.84h2.955v1.14h-2.82v.78h2.37V18.3h-2.37v.765h2.46v1.02h-2.46v.81h3.105v1.155h-6.915v.405h-1.23v-4.32zm1.23 2.76h2.55v-.81h-2.55v.81zm2.55-1.83V18.3h-2.55v.765h2.55zm0-1.8v-.78h-2.55v.78h2.55zm-4.575-7.83h1.995V8.67h1.23v.765h2.28v-.75h1.215v.75h2.115v1.155h-2.115v.705h-1.215v-.705h-2.28v.705h-1.23v-.705h-1.995V9.435zM62.419 8.7l1.245.57c-.3.945-.66 1.845-1.095 2.7v10.605h-1.38v-8.34c-.465.645-.975 1.26-1.515 1.86l-.42-1.41c1.44-1.71 2.49-3.705 3.165-5.985zm1.485.495h9.12v1.2h-2.835v.795h2.325v3.06h-8.535v-3.06h2.4v-.795h-2.475v-1.2zm5.055 1.995v-.795h-1.335v.795h1.335zm2.325 2.07v-1.035h-1.275v1.035h1.275zm-2.325 0v-1.035h-1.35v1.035h1.35zm-2.4 0v-1.035h-1.35v1.035h1.35zm-2.1 1.545h7.635v5.835h-1.755c.99.21 1.95.495 2.865.84l-.435 1.08a20.132 20.132 0 0 0-3.585-1.2l.36-.72h-2.625l.54.72c-.84.48-2.04.885-3.615 1.185l-.6-1.035c1.365-.24 2.43-.54 3.21-.87h-1.995v-5.835zm6.345 4.815v-.72h-5.055v.72h5.055zm-5.055-1.575h5.055v-.705h-5.055v.705zm0-1.545h5.055v-.735h-5.055v.735zm9.42-6.27h3.165c-.195-.48-.405-.93-.645-1.35l1.47-.24c.21.48.405 1.005.615 1.59h3.225c.255-.525.45-1.08.57-1.65l1.5.21c-.15.51-.345.99-.615 1.44h2.865v1.32h-5.265c-.075.345-.15.675-.24 1.005h4.695v1.305h-5.07c-.12.33-.225.645-.345.96h6.735v1.335h-7.335c-.15.285-.3.555-.45.825l-.24.33h7.035v1.38h-4.035v1.995h4.965v1.395h-11.28v-1.395h4.86V18.69h-2.7c-.96.975-2.13 1.89-3.51 2.745l-.945-1.23c2.025-1.065 3.555-2.34 4.575-3.81.06-.09.105-.165.15-.24h-4.185V14.82h4.92c.135-.315.255-.63.375-.96h-3.975v-1.305h4.35c.075-.33.135-.675.195-1.005h-5.43v-1.32z" fill="#000" fill-rule="nonzero"/><path d="M2.954 55.442h294.553M2.954 96.89h294.553M2.954 138.334h294.553M2.954 179.74h294.553M38.529 34.739V198M75.815 34.739V198M113.06 34.739V198m37.284-163.261V198m37.247-163.261V198M224.84 34.739V198M2.954 117.592h294.553" stroke="#DFDEDE" stroke-width="1.227"/><path d="M248.821 42.647v136.877" stroke="#2A3052" stroke-width="1.014" stroke-linecap="square"/><path d="M2.954 69.896h294.553M2.954 151.386h294.553" stroke="#15212D" stroke-width="1.148" fill="#D8D8D8" fill-rule="nonzero"/><path d="M.826 29.914h298.809" stroke="#C2C2C2" stroke-width="2.455" fill="#F1F2F2" fill-rule="nonzero"/><path d="M21.218 112.322L90.2 78.023l88.492 9.11 70.401-30.049" stroke="#6E7287" stroke-width="1.52" stroke-linecap="round" stroke-dasharray="10.135"/><path d="M20.538 112.403l69.21-16.954 97.391 22.256 62.169-7.786m-227.935 2.568l80.692 30.19 84.478-5.26 62.406 26.406" stroke="#6E7287" stroke-width="1.52" stroke-linecap="round" stroke-dasharray="10.135"/><path fill="#2A3052" fill-rule="nonzero" d="M260.224 109.619v-1.52h34.966v1.52z"/><ellipse fill="#FFF" fill-rule="nonzero" opacity=".6" cx="248.454" cy="56.883" rx="8.247" ry="8.633"/><ellipse fill="#FFF" fill-rule="nonzero" opacity=".6" cx="248.454" cy="109.852" rx="8.247" ry="8.633"/><ellipse fill="#FFF" fill-rule="nonzero" opacity=".6" cx="249.467" cy="163.839" rx="8.247" ry="8.633"/><ellipse stroke="#E88024" stroke-width="2.455" cx="248.454" cy="56.883" rx="8.247" ry="8.633"/><ellipse stroke="#E88024" stroke-width="2.455" cx="248.454" cy="109.852" rx="8.247" ry="8.633"/><ellipse stroke="#E88024" stroke-width="2.455" cx="249.467" cy="163.839" rx="8.247" ry="8.633"/><ellipse fill="#FFF" fill-rule="nonzero" opacity=".916" cx="21.467" cy="109.87" rx="8.247" ry="8.633"/><ellipse stroke="#E88024" stroke-width="2.455" cx="21.467" cy="109.87" rx="8.247" ry="8.633"/><path d="M278.408 121.261h-5.174l.13-.79 3.093-3.106c.55-.555.933-.997 1.146-1.327.213-.33.348-.667.407-1.011.07-.438.017-.799-.158-1.084-.176-.285-.448-.428-.815-.428-.52 0-.936.153-1.25.46-.315.307-.515.73-.601 1.269h-1.078l-.012-.035c.105-.762.431-1.386.978-1.873.547-.486 1.248-.729 2.104-.729.687 0 1.215.226 1.582.677.367.45.496 1.018.387 1.702a3.348 3.348 0 0 1-.595 1.403c-.319.451-.757.95-1.316 1.497l-2.46 2.438.011.035h3.768l-.147.902zM269.88 57.769c.054-.33-.005-.606-.175-.83-.17-.224-.479-.425-.926-.604-.637-.219-1.1-.51-1.386-.876-.286-.365-.381-.852-.285-1.46.097-.613.33-1.1.701-1.464.371-.364.84-.581 1.405-.653l.188-1.187h.827l-.193 1.198c.526.093.911.355 1.155.784.243.43.31.997.198 1.703h-1.031c.079-.505.043-.903-.107-1.195-.15-.292-.409-.438-.774-.438-.362 0-.659.112-.891.336-.233.224-.378.523-.436.9-.057.357-.004.641.159.85.163.21.486.412.97.605.644.236 1.102.53 1.374.883.273.353.36.832.264 1.437-.104.638-.354 1.134-.75 1.488-.395.355-.901.564-1.517.628l-.161 1.032h-.827l.16-1.032c-.54-.071-.964-.301-1.272-.69-.308-.388-.401-.955-.28-1.7h1.037c-.093.573-.037.972.17 1.195.205.224.494.336.867.336.404 0 .746-.112 1.023-.336.278-.223.449-.527.513-.91zm7.02-.961c-.215 1.063-.574 1.845-1.077 2.344-.503.5-1.122.75-1.856.75-.67 0-1.171-.272-1.506-.814-.335-.543-.404-1.303-.207-2.28l.37-1.853c.212-1.06.572-1.842 1.08-2.345a2.543 2.543 0 0 1 1.859-.755c.673 0 1.174.273 1.503.817.33.544.398 1.305.205 2.283l-.371 1.853zm-.623-2.079c.143-.72.139-1.24-.013-1.56-.153-.32-.442-.481-.868-.481-.39 0-.737.174-1.04.524-.302.349-.52.855-.652 1.517l-.456 2.293c-.144.72-.138 1.242.016 1.566.154.324.444.486.87.486.39 0 .735-.175 1.034-.526.299-.351.516-.86.652-1.526l.457-2.293zM50.864 51.908c.117.325.234.676.351 1.066h5.057v1.144H44.715v-1.144h5.161a7.024 7.024 0 0 0-.39-.832l1.378-.234zm3.302 12.038h-1.079l-.286-1.105 1.001.052c.481 0 .728-.182.728-.52v-3.289h-8.06v4.901H45.3v-5.967h10.4v4.615c0 .871-.52 1.313-1.534 1.313zm-7.41-9.217h7.501v2.704h-7.501V54.73zm6.318 1.768v-.832h-5.135v.832h5.135zm-5.213 3.211h5.291v2.73h-5.291v-2.73zm4.199 1.82v-.91h-3.094v.91h3.094zm10.166-8.619h2.639a7.281 7.281 0 0 0-.299-.767l1.248-.208c.104.286.195.611.299.975h2.925v1.053h-1.144a6.669 6.669 0 0 1-.351 1.014h1.768v1.04h-7.618v-1.04h1.976a13.37 13.37 0 0 0-.325-1.014h-1.118V52.91zm4.121 2.067c.143-.338.26-.676.364-1.014h-2.119c.104.312.195.65.299 1.014h1.456zm-3.926 1.677h6.266v4.121h-2.47v.69h3.198v1.04h-3.198v1.481h-1.248v-1.482h-3.263v-1.04h3.263v-.689h-2.548v-4.12zm5.109 3.133v-.598h-3.913v.598h3.913zm-3.913-1.508h3.913v-.65h-3.913v.65zm-5.681-5.863h3.952v.975a50.937 50.937 0 0 1-1.235 3.55c.728 1.195 1.131 2.235 1.196 3.132 0 .598-.13 1.04-.364 1.313-.351.325-.962.494-1.833.507l-.403-1.248c.26.04.494.065.676.065.286-.026.481-.078.585-.156.078-.104.13-.26.13-.48 0-.885-.403-1.86-1.183-2.952.52-1.313.936-2.496 1.222-3.549h-1.534v10.426h-1.209V52.415zm17.628 5.655a6.907 6.907 0 0 1-.585.975l-.65-.767v4.355h-1.846v.91h-1.066v-4.68c-.143.273-.286.533-.442.793l-.585-.949c.728-1.456 1.209-3.107 1.469-4.953h-1.144v-1.092h3.757v1.092H72.99a17.793 17.793 0 0 1-.624 2.782h1.963v1.716c.364-.533.689-1.248.962-2.145l.949.208c-.078.26-.169.52-.26.767h2.015v.988h-.936v.26c0 .312-.013.611-.039.897h1.014v1.014H76.89a10.38 10.38 0 0 1-.13.676c.416.286.806.611 1.17.975l-.546.832a7.625 7.625 0 0 0-.91-.845 9.094 9.094 0 0 1-1.157 2.197l-.819-.715a7.556 7.556 0 0 0 1.391-3.12h-1.144v-1.014h1.287c.026-.299.039-.598.039-.897v-.26h-.507zm4.264-1.118h-1.599v-.962h1.807c-.39-.416-.819-.832-1.3-1.26l.676-.677c.247.208.481.416.689.624.312-.364.624-.793.949-1.287h-2.652v-.962h3.874v.871c-.416.78-.897 1.495-1.443 2.12.182.194.338.39.494.571h1.196v.806c-.247.715-.52 1.313-.819 1.794l-.767-.624c.182-.286.351-.624.52-1.014h-.676v2.21h1.222v.91h-1.222v2.6c.234.052.52.091.845.091.299 0 .585-.026.845-.065l-.221 1.118c-1.196 0-2.015-.156-2.431-.455-.312-.208-.598-.572-.832-1.066-.182.741-.403 1.326-.689 1.768l-.832-.65c.65-.91.988-2.69 1.001-5.343h.936c-.013 1.092-.065 2.041-.169 2.873.182.468.377.845.598 1.105v-5.096zm-3.939-2.925v.663c0 .247.117.377.351.377h.598a.5.5 0 0 0 .286-.09c.104-.053.169-.404.208-1.028l1.014.338c-.104.832-.234 1.313-.403 1.456-.156.13-.455.208-.871.221h-1.157c-.364 0-.624-.104-.793-.299-.208-.195-.299-.442-.299-.74V52.09h1.066v.923a8.061 8.061 0 0 0 1.833-.663l.351.962a8.616 8.616 0 0 1-2.184.715zm-3.406 7.58h.793V57.55h-.793v4.056zM49.811 167.2v4.212c.325-.143.637-.286.949-.442l.208 1.066c-.728.286-1.573.598-2.535.91l-.312-1.053c.325-.117.494-.325.494-.637v-8.372c2.73-.416 4.875-.87 6.461-1.39l.676.987c-.637.221-1.391.43-2.249.637a56.12 56.12 0 0 0 .104 2.9h2.639v1.182h-2.535c.052.494.104.923.182 1.274.208 1.131.429 1.95.689 2.47.26.507.442.767.572.767.117 0 .234-.676.351-2.002l1.014.56c-.26 1.923-.65 2.898-1.157 2.898-.429 0-.884-.35-1.352-1.04-.481-.689-.884-1.755-1.196-3.185a17.41 17.41 0 0 1-.286-1.742h-2.717zm2.509-3.822c-.767.156-1.599.3-2.509.442v2.197h2.613a52.054 52.054 0 0 1-.104-2.639zm-.416 6.955c.702.884 1.248 1.664 1.638 2.34l-.923.65c-.403-.728-.923-1.52-1.56-2.392l.845-.598zm-4.589-9.035l1.118.52a15.285 15.285 0 0 1-1.209 2.756v8.788h-1.196v-6.98c-.377.48-.78.948-1.222 1.416l-.39-1.3c1.313-1.482 2.275-3.224 2.899-5.2zm14.911.962h2.639a7.281 7.281 0 0 0-.299-.767l1.248-.208c.104.286.195.611.299.975h2.925v1.053h-1.144a6.669 6.669 0 0 1-.351 1.014h1.768v1.04h-7.618v-1.04h1.976a13.37 13.37 0 0 0-.325-1.014h-1.118v-1.053zm4.121 2.067c.143-.338.26-.676.364-1.014h-2.119c.104.312.195.65.299 1.014h1.456zm-3.926 1.677h6.266v4.121h-2.47v.69h3.198v1.04h-3.198v1.481h-1.248v-1.482h-3.263v-1.04h3.263v-.689h-2.548v-4.12zm5.109 3.133v-.598h-3.913v.598h3.913zm-3.913-1.508h3.913v-.65h-3.913v.65zm-5.681-5.863h3.952v.975a50.937 50.937 0 0 1-1.235 3.55c.728 1.195 1.131 2.235 1.196 3.132 0 .598-.13 1.04-.364 1.313-.351.325-.962.494-1.833.507l-.403-1.248c.26.04.494.065.676.065.286-.026.481-.078.585-.156.078-.104.13-.26.13-.48 0-.885-.403-1.86-1.183-2.952.52-1.313.936-2.496 1.222-3.549h-1.534v10.426h-1.209v-11.583zm17.628 5.655a6.907 6.907 0 0 1-.585.975l-.65-.767v4.355h-1.846v.91h-1.066v-4.68c-.143.273-.286.533-.442.793l-.585-.949c.728-1.456 1.209-3.107 1.469-4.953h-1.144v-1.092h3.757v1.092H72.99a17.793 17.793 0 0 1-.624 2.782h1.963v1.716c.364-.533.689-1.248.962-2.145l.949.208c-.078.26-.169.52-.26.767h2.015v.988h-.936v.26c0 .312-.013.611-.039.897h1.014v1.014H76.89a10.38 10.38 0 0 1-.13.676c.416.286.806.611 1.17.975l-.546.832a7.625 7.625 0 0 0-.91-.845 9.094 9.094 0 0 1-1.157 2.197l-.819-.715a7.556 7.556 0 0 0 1.391-3.12h-1.144v-1.014h1.287c.026-.299.039-.598.039-.897v-.26h-.507zm4.264-1.118h-1.599v-.962h1.807c-.39-.416-.819-.832-1.3-1.26l.676-.677c.247.208.481.416.689.624.312-.364.624-.793.949-1.287h-2.652v-.962h3.874v.871c-.416.78-.897 1.495-1.443 2.12.182.194.338.39.494.571h1.196v.806c-.247.715-.52 1.313-.819 1.794l-.767-.624c.182-.286.351-.624.52-1.014h-.676v2.21h1.222v.91h-1.222v2.6c.234.052.52.091.845.091.299 0 .585-.026.845-.065l-.221 1.118c-1.196 0-2.015-.156-2.431-.455-.312-.208-.598-.572-.832-1.066-.182.741-.403 1.326-.689 1.768l-.832-.65c.65-.91.988-2.69 1.001-5.343h.936c-.013 1.092-.065 2.041-.169 2.873.182.468.377.845.598 1.105v-5.096zm-3.939-2.925v.663c0 .247.117.377.351.377h.598a.5.5 0 0 0 .286-.09c.104-.053.169-.404.208-1.028l1.014.338c-.104.832-.234 1.313-.403 1.456-.156.13-.455.208-.871.221h-1.157c-.364 0-.624-.104-.793-.299-.208-.195-.299-.442-.299-.74v-2.835h1.066v.923a8.061 8.061 0 0 0 1.833-.663l.351.962a8.616 8.616 0 0 1-2.184.715zm-3.406 7.58h.793V166.9h-.793v4.056zM264.99 161.387h.642a13.284 13.284 0 0 0 4.078 2.88l-.443.802a12.569 12.569 0 0 1-1.322-.727v.85h-2.181v1.416h2.653v.868h-2.653v1.492h3.512v.878h-7.921v-.878h3.503v-1.492h-2.663v-.868h2.663v-1.416h-2.181v-.85c-.435.264-.888.51-1.36.746l-.434-.784c1.643-.784 3.012-1.756 4.107-2.917zm-2.294 2.945h5.23a12.54 12.54 0 0 1-2.615-2.133c-.718.793-1.596 1.5-2.615 2.133zm8.761.945c-.18.188-.378.368-.585.538l-.453-.595c.68-.548 1.151-1.209 1.406-1.983l.756.114c-.048.15-.095.302-.151.434h1.633v.604a6.215 6.215 0 0 1-.746 1.256c.529.35.991.698 1.407 1.048l-.595.595c-.047-.048-.094-.085-.132-.123v2.851h-.793v-.462h-1.407v.51h-.784v-2.758c-.094.029-.179.057-.264.085l-.359-.717a4.357 4.357 0 0 0 1.785-.925c-.236-.16-.472-.321-.718-.472zm1.36.925c-.35.32-.727.595-1.133.812h2.152a10.404 10.404 0 0 0-1.02-.812zm-.132-.982c.188-.227.358-.472.51-.736h-1.115c-.056.094-.113.179-.17.254.274.16.53.321.775.482zm-.888 3.578h1.407v-1.048h-1.407v1.048zm2.71-6.609v1.586h-.774v-.84h-2.399v.84h-.774v-1.586h1.558a6.017 6.017 0 0 0-.255-.66l.878-.142c.076.245.151.51.227.802h1.539zm.443 1.02h1.313c.028-.227.047-.463.066-.699h-1.662v-.793h4.305v.793h-1.765c-.019.246-.038.472-.066.699h1.52v5.004h-3.71v-5.004zm2.89 4.23v-.718h-2.078v.718h2.078zm-2.078-1.426h2.078v-.66h-2.078v.66zm0-1.378h2.078v-.69h-2.078v.69zm.114 3.597l.613.538c-.415.529-.934 1-1.539 1.407l-.528-.68a5.923 5.923 0 0 0 1.454-1.265zm1.86-.01c.557.435 1.029.869 1.406 1.303l-.604.595c-.32-.425-.774-.878-1.36-1.36l.558-.538zm2.407-6.514h3.04v5.9h-.519c.425.737.755 1.37.991 1.917l-.67.463a16.61 16.61 0 0 0-1.029-2.049l.538-.33h-1.548l.67.33a12.043 12.043 0 0 1-1.02 2.181l-.727-.378c.435-.717.793-1.435 1.058-2.133h-.784v-5.901zm2.172 5.108v-.916h-1.294v.916h1.294zm-1.294-1.681h1.294v-.935h-1.294v.935zm0-1.69h1.294v-.944h-1.294v.944zm2.644-1.161h1.87a7.422 7.422 0 0 0-.331-.765l.878-.151c.113.274.217.576.33.916h1.85v.85h-4.597v-.85zm-.132 2.587h1.161a7.281 7.281 0 0 0-.52-1.209l.832-.311c.207.415.396.925.566 1.52h.916c.226-.491.415-1.001.585-1.54l.84.293c-.17.454-.349.869-.547 1.247h1.114v.85h-4.947v-.85zm4.447 1.586v3.682h-.84v-.482h-2.257v.482h-.84v-3.682h3.937zm-3.097 2.37h2.256v-1.549h-2.256v1.549zm6.448-7.516l.84.397a11.168 11.168 0 0 1-.802 1.86v6.561h-.897v-5.173a14.05 14.05 0 0 1-.991 1.16l-.284-.934a10.548 10.548 0 0 0 2.134-3.87zm.944 2.058h3.456v-1.935h.897v1.935h1.303v.869h-1.303v4.796c0 .68-.33 1.03-.991 1.03h-1.407l-.199-.879c.444.038.879.057 1.294.057.264 0 .406-.151.406-.434v-4.57h-3.456v-.869zm.973 1.757c.699.82 1.237 1.538 1.614 2.162l-.764.528c-.397-.67-.926-1.416-1.587-2.237l.737-.453zM266.086 93.656h3.864v7.5h-.66c.54.936.96 1.74 1.26 2.436l-.852.588a21.111 21.111 0 0 0-1.308-2.604l.684-.42h-1.968l.852.42c-.336.96-.768 1.884-1.296 2.772l-.924-.48a16.718 16.718 0 0 0 1.344-2.712h-.996v-7.5zm2.76 6.492v-1.164h-1.644v1.164h1.644zm-1.644-2.136h1.644v-1.188h-1.644v1.188zm0-2.148h1.644v-1.2h-1.644v1.2zm3.36-1.476h2.376a9.433 9.433 0 0 0-.42-.972l1.116-.192c.144.348.276.732.42 1.164h2.352v1.08h-5.844v-1.08zm-.168 3.288h1.476a9.255 9.255 0 0 0-.66-1.536l1.056-.396c.264.528.504 1.176.72 1.932h1.164c.288-.624.528-1.272.744-1.956l1.068.372a13.94 13.94 0 0 1-.696 1.584h1.416v1.08h-6.288v-1.08zm5.652 2.016v4.68h-1.068v-.612h-2.868v.612h-1.068v-4.68h5.004zm-3.936 3.012h2.868v-1.968h-2.868v1.968zm8.196-9.552l1.068.504a14.195 14.195 0 0 1-1.02 2.364v8.34h-1.14v-6.576c-.384.504-.804.996-1.26 1.476l-.36-1.188c1.224-1.404 2.136-3.048 2.712-4.92zm1.2 2.616h4.392v-2.46h1.14v2.46h1.656v1.104h-1.656v6.096c0 .864-.42 1.308-1.26 1.308h-1.788l-.252-1.116c.564.048 1.116.072 1.644.072.336 0 .516-.192.516-.552v-5.808h-4.392v-1.104zM282.742 98c.888 1.044 1.572 1.956 2.052 2.748l-.972.672c-.504-.852-1.176-1.8-2.016-2.844l.936-.576zM13.582 133.698h1.364v-1.045h-1.078v-.88h5.357v.88h-.98v1.045h1.32v.913h-1.32v2.475H17.3v-2.475h-1.474c-.077.572-.21 1.045-.407 1.43-.275.528-.726.935-1.342 1.221l-.517-.814c.528-.264.88-.605 1.078-1.012a4.07 4.07 0 0 0 .23-.825h-1.286v-.913zm3.718 0v-1.045h-1.42v1.045h1.42zm-4.301-4.004v.616h2.2v-.616h-2.2zm2.2-.715v-.66h-2.2v.66h2.2zm2.739.715v.594h2.255v-.594h-2.255zm2.255-.715v-.638h-2.255v.638h2.255zm-3.971-1.463v3.608h-3.223v6.171h-1.034v-9.779h4.257zm3.97 3.586h-3.277v-3.586h4.323v8.558c0 .781-.374 1.177-1.122 1.177-.385 0-.77-.01-1.166-.033l-.242-.924c.374.033.715.055 1.034.055.297 0 .45-.198.45-.594v-4.653zm3.598-3.927l1.023.088a116.12 116.12 0 0 1-.264 1.991h1.562v.583c-.066 1.76-.352 3.278-.858 4.576.484.506.89.968 1.199 1.375l-.704.825a15.93 15.93 0 0 0-.968-1.177 7.803 7.803 0 0 1-1.551 2.013l-.66-.825a6.72 6.72 0 0 0 1.496-1.958c-.43-.44-.891-.902-1.397-1.386.242-.924.473-1.936.67-3.025h-.77v-1h.936a86.88 86.88 0 0 0 .286-2.08zm.715 6.48c.352-1.002.572-2.135.638-3.4h-.76c-.186 1.078-.384 1.991-.593 2.717.253.242.495.462.715.682zm7.392-1.079v4.83h-1.001v-.617h-3.014v.616h-.99v-4.829h5.005zm-4.015 3.234h3.014v-2.277h-3.014v2.277zm-1.364-4.037l-.165-.946c.539-.176 1.298-1.375 2.277-3.608l.99.33c-.594 1.276-1.188 2.354-1.804 3.212a33.6 33.6 0 0 0 3.069-.33 27.752 27.752 0 0 0-.803-1.529l.89-.429c.573.957 1.1 2.013 1.607 3.168l-.957.462c-.11-.286-.22-.55-.33-.792a64.68 64.68 0 0 1-4.774.462zM225.307 180.907l.935.11c-.055.957-.176 1.804-.374 2.541l-.935-.286c.198-.693.33-1.485.374-2.365zm2.1-.187c.166.682.32 1.43.452 2.244l-.98.231a29.533 29.533 0 0 0-.318-2.288l.847-.187zm1.1-2.805c.232.638.44 1.353.639 2.167l-.87.22-.098-.462c-1.034.308-2.002.528-2.926.638l-.275-.946c.187-.077.34-.176.473-.297.33-.33.748-.88 1.232-1.65-.484.077-.98.154-1.485.231l-.264-.946c.165-.066.308-.198.44-.385.506-.89.946-1.88 1.32-2.98l1 .395c-.505 1.166-1.022 2.134-1.55 2.893.374-.044.737-.099 1.11-.165.22-.396.463-.825.705-1.287l.935.341v-.77h2.574v-1.32h1.023v1.32h2.54v1.001h-2.54v1.42h2.299v1h-5.6v-1h2.278v-1.42h-2.574v-.187c-.968 1.683-1.771 2.904-2.42 3.652a18.382 18.382 0 0 0 1.507-.319 16.973 16.973 0 0 0-.286-.89l.814-.254zm.166 2.52c.264.571.484 1.176.682 1.836l-.858.374a17.81 17.81 0 0 0-.616-1.947l.792-.264zm5.797-1.222v4.521h-1.012v-.44h-2.893v.44h-1.023v-4.52h4.928zm-3.905 3.102h2.893v-2.134h-2.893v2.134zm5.676-7.689h4.213v-1.012h1.056v1.012h4.19v1.001h-4.19v.87h3.443v3.31h-2.63c.77 1.023 2.036 1.936 3.796 2.74l-.715.912c-1.848-1.078-3.146-2.277-3.894-3.597v3.861h-1.056v-3.86c-.825 1.462-2.156 2.661-3.982 3.607l-.605-.968c1.694-.715 2.948-1.617 3.762-2.695h-2.596v-3.31h3.42v-.87h-4.212v-1zm7.667 4.224v-1.375h-2.398v1.375h2.398zm-3.454 0v-1.375h-2.376v1.375h2.376z" fill="#2A3052" fill-rule="nonzero"/></g></svg>