<svg width="299" height="197" xmlns="http://www.w3.org/2000/svg" xmlns:xlink="http://www.w3.org/1999/xlink"><defs><path d="M22.92 10.61c.135.375.27.78.405 1.23h5.835v1.32H15.825v-1.32h5.955a8.105 8.105 0 0 0-.45-.96l1.59-.27zm3.81 13.89h-1.245l-.33-1.275 1.155.06c.555 0 .84-.21.84-.6V18.89h-9.3v5.655H16.5V17.66h12v5.325c0 1.005-.6 1.515-1.77 1.515zm-8.55-10.635h8.655v3.12H18.18v-3.12zm7.29 2.04v-.96h-5.925v.96h5.925zm-6.015 3.705h6.105v3.15h-6.105v-3.15zm4.845 2.1v-1.05h-3.57v1.05h3.57zm7.545-10.755c.81.72 1.5 1.425 2.07 2.145l-1.005 1.005c-.495-.69-1.185-1.41-2.055-2.175l.99-.975zm-.36 3.6c.825.72 1.515 1.455 2.055 2.175l-.99.99c-.495-.69-1.185-1.41-2.07-2.19l1.005-.975zm.855 4.035l1.26.495a63.651 63.651 0 0 1-1.635 5.385l-1.32-.585a53.065 53.065 0 0 0 1.695-5.295zm11.415-7.41v1.26H39.96v.93h3.36v1.215h-3.36v.975h3.36v1.2h-3.36v.945h4.17v1.29h-2.25c.075.45.18.885.33 1.275.375-.21.75-.48 1.11-.81l.855.855a6.11 6.11 0 0 1-1.485.99 6.28 6.28 0 0 0 1.77 2.01l-.735 1.185c-1.65-1.35-2.64-3.195-3-5.505h-.93v3.93a10.15 10.15 0 0 0 1.65-.645l.225 1.185c-.96.42-2.055.78-3.285 1.05l-.51-1.095c.435-.15.66-.39.66-.72v-3.705h-.795v-1.29h.885V11.18h5.13zM35.4 15.86l-.21 2.235h2.265c0 2.49-.075 4.155-.21 4.98-.135.855-.75 1.32-1.83 1.395-.33 0-.66-.015-.99-.045l-.315-1.2c.33.03.675.06 1.02.06.54 0 .855-.255.945-.75.06-.51.105-1.575.105-3.195H33.9l.405-4.725h1.815V12.44h-2.01v-1.245h3.27v4.665H35.4z" id="a"/></defs><g fill="none" fill-rule="evenodd"><path fill="#F1F2F2" d="M0 0h299v197H0z"/><path d="M1.987 1.98v193.04h295.026V1.98H1.987zM299 0v197H0V0h299z" fill="#C2C2C2" fill-rule="nonzero"/><path d="M4 55.067v-1.204h290v1.204H4zm0 22.326v-1.204h290v1.204H4zm0 18.604v-1.204h290v1.204H4zm0 39.94v-1.204h290v1.204H4zm0 19.595v-1.204h290v1.204H4zm0 22.326v-1.204h290v1.204H4zM38.72 34h1.2v160h-1.2V34zm37.18 0h1.2v160h-1.2V34zm37.18 0h1.2v160h-1.2V34zm33.46 0h1.201v160h-1.2V34zm37.18 0h1.2v160h-1.2V34zm37.18 0h1.2v160h-1.2V34zm37.18 0h1.2v160h-1.2V34z" fill="#DFDEDE" fill-rule="nonzero"/><path fill="#2A3052" fill-rule="nonzero" d="M3.906 135.82v-1.215h291.607v1.215z"/><path fill="#C2C2C2" fill-rule="nonzero" d="M.8 34.78v-2.43h293.563v2.43z"/><path d="M187.24 148.191h-35.181l-5.419-8.223-5.418 8.223h-35.18c-2.635 0-4.742 2.14-4.742 4.807v24.82c0 2.666 2.145 4.807 4.741 4.807h81.236c2.634 0 4.741-2.14 4.741-4.807v-24.82c0-2.666-2.145-4.807-4.778-4.807z" fill="#E88024"/><path d="M130.904 87.827l-37.362 26.79a1 1 0 0 1-.49.182l-34.958 3.291a1 1 0 1 1-.188-1.99l34.69-3.266L129.9 86.085a1 1 0 0 1 .357-.161l36.539-8.486 36.349-23.682a1 1 0 0 1 .424-.154l37.44-4.594a1 1 0 1 1 .243 1.985l-37.21 4.566L167.74 79.21a1 1 0 0 1-.32.136l-36.516 8.48zm36.064-10.429l-.32.136.148-.096.172-.04zm-74.103 35.41l-.489.183.22-.157.27-.026z" fill="#2A3052" fill-rule="nonzero"/><ellipse cx="8.512" cy="9.225" rx="8.137" ry="8.475" opacity=".6" fill="#FFF" transform="translate(231.25 41)"/><path d="M239.762 59.023c-4.675 0-8.46-3.942-8.46-8.798s3.785-8.798 8.46-8.798c4.676 0 8.461 3.942 8.461 8.798s-3.785 8.798-8.46 8.798zm0-.646c4.313 0 7.815-3.647 7.815-8.152 0-4.505-3.502-8.152-7.815-8.152-4.312 0-7.814 3.647-7.814 8.152 0 4.505 3.502 8.152 7.814 8.152z" fill="#E88024" fill-rule="nonzero"/><ellipse cx="8.137" cy="8.475" rx="8.137" ry="8.475" opacity=".6" transform="translate(84 104.25)" fill="#FFF"/><path d="M92.138 122.523c-4.676 0-8.461-3.942-8.461-8.798s3.785-8.798 8.46-8.798c4.676 0 8.461 3.942 8.461 8.798s-3.785 8.798-8.46 8.798zm0-.646c4.312 0 7.814-3.647 7.814-8.152 0-4.505-3.502-8.152-7.814-8.152-4.313 0-7.815 3.647-7.815 8.152 0 4.505 3.502 8.152 7.815 8.152z" fill="#E88024" fill-rule="nonzero"/><g fill="#000"><use xlink:href="#a"/><use xlink:href="#a"/></g><path d="M236.948 67l1.183.476c-1.289 2.824-2.175 4.473-2.659 4.946l2.262-.315 1.25-2.17 1.173.433c-1.863 3.206-3.441 5.708-4.238 6.312l3.066-.64-.479-1.609.962-.338c.711 1.909 1.067 3.062 1.067 3.46-.6.161-.956.26-1.067.298l-.214-.85c-2.631.67-4.221 1.004-4.77 1.004a16.59 16.59 0 0 1-.336-1.158c.763-.184 2.478-2.754 2.908-3.562l-2.74.41c-.112-.414-.217-.798-.316-1.152.557-.174 1.54-2.022 2.948-5.545zm1.862 11.492a9.01 9.01 0 0 1 .985-.325c.72 1.792 1.08 2.793 1.08 3-.059.065-.397.224-1.016.475a56.23 56.23 0 0 0-1.05-3.15h.001zm-1.098.163c.085.327.706 3.48.706 3.608l-1.188.286c-.248-1.96-.43-3.171-.547-3.636.456-.14.543-.14 1.03-.258h-.001zm-3.037.248l1.141.14c-.15 1.997-.361 3.342-.633 4.037a45.604 45.604 0 0 0-1.139-.336c.34-1.186.55-2.467.63-3.84l.001-.001zm5.671-9.554v1.229h4.335v2.696h-3.804v1.225h8.935v-1.225h-3.867v-2.696h4.23v-1.229h-4.23v-2.242h-1.264v2.242h-4.335zm7.649 14.053v-.819h-5.293v.82h-1.234v-7.122h7.768v7.122h-1.241v-.001zm.034-5.913h-5.313v3.871h5.313v-3.871zm11.254-8.587v-1.817h1.31v1.816h6.962v1.208h-6.962v1.666h5.569v5.101h-4.45c.893 1.551 3.043 3.188 6.448 4.911-.068.042-.355.403-.861 1.083-1.907-.913-5.588-3.805-6.706-5.994l.011 6.506h-1.32c-.01-4.472-.034-6.636-.072-6.494-1.164 2.065-3.725 4.697-6.755 5.982l-.73-1.121c3.213-1.5 5.36-3.124 6.444-4.873l-4.48.012v-5.113h5.592v-1.666h-6.956v-1.207h6.956zm-.048 4.16h-4.316v2.73h4.316v-2.73zm1.365 2.702h4.358v-2.665H260.6v2.665z" fill="#2A3052" fill-rule="nonzero"/><path d="M136.924 169.118v1.502c0 .156-.026.311-.026.466h2.746v-1.968h-2.72zm2.72-1.217v-2.099h-2.72v2.099h2.72zm-2.824 4.403c-.233 1.71-.777 3.16-1.632 4.325l-1.14-1.036c.933-1.295 1.4-2.927 1.425-4.895v-6.242h5.595v10.516c0 1.036-.57 1.554-1.683 1.554h-1.296l-.362-1.425c.414.026.829.052 1.191.052.467 0 .726-.259.726-.725v-2.124h-2.824zm-.362-16.577h-2.176v-1.399h10.646a8.842 8.842 0 0 0-.726-1.295l1.84-.31c.284.491.543 1.035.776 1.605h10.465v1.399h-19.168v1.398h17.614v1.27h-19.271v-2.668zm19.763 20.41h-1.218c-.854 0-1.269-.414-1.269-1.191v-3.549l-.803.544c-.44-.88-1.036-1.813-1.761-2.823v.44c0 1.762-.13 3.134-.337 4.067-.259.932-.751 1.942-1.528 2.978l-1.166-1.036-.414.493a13.404 13.404 0 0 0-1.995-2.02l.881-.83c.7.518 1.347 1.14 1.917 1.813.414-.647.7-1.243.855-1.787.207-.725.336-1.968.336-3.678v-5.102h5.466v10.075c0 .208.103.337.336.337h.467c.18 0 .336-.155.44-.414.078-.285.155-1.244.233-2.875l1.166.414c-.156 1.865-.311 3.03-.493 3.47-.207.441-.595.674-1.113.674zm-5.051-7.434l.777-.466c.777 1.036 1.373 1.917 1.787 2.694v-5.025h-2.564v2.797zm-8.78-4.247h5.905v8.366h-5.906v-8.366h.001zm4.454 7.226v-1.373h-3.03v1.373h3.03zm-3.03-2.357h3.03v-1.32h-3.03v1.32zm0-2.28h3.03v-1.424h-3.03v1.425-.001zm.155 6.191l.933.83c-.674.957-1.529 1.786-2.513 2.512l-.803-1.062c.91-.63 1.714-1.4 2.383-2.28zm-6.734-13.702h17.017v3.756h-17.017v-3.756zm15.282 2.668v-1.58h-13.548v1.58h13.548zm9.324-6.682h2.41l-.39 13.52h-1.605l-.415-13.52zm1.192 15.411c.466 0 .829.13 1.14.44.284.285.44.648.44 1.088 0 .466-.156.83-.44 1.114-.311.285-.7.44-1.14.44-.44 0-.803-.155-1.088-.44a1.506 1.506 0 0 1-.466-1.114c0-.44.155-.803.466-1.088.285-.31.647-.44 1.088-.44z" fill="#FFF" fill-rule="nonzero"/><path d="M35.622 100.381h2.527v-2.185h-2.014v-1.178h9.215v1.178h-1.843v2.185h2.451v1.216h-2.451v4.37h-1.254v-4.37h-2.964c-.114 1.007-.342 1.862-.684 2.546-.456.893-1.235 1.596-2.299 2.09l-.684-1.083c.931-.456 1.596-1.064 1.976-1.824.209-.494.361-1.083.456-1.729h-2.432v-1.216zm6.631 0v-2.185h-2.869v2.185h2.869zm-7.885-7.239v1.387h4.275v-1.387h-4.275zm4.275-.969V90.71h-4.275v1.463h4.275zm4.256.969v1.349h4.389v-1.349h-4.389zm4.389-.969v-1.425h-4.389v1.425h4.389zm-7.315-2.546v6.004h-5.605v10.697H33V89.627h6.973zm7.315 5.947h-5.719v-5.928h7.068v14.725c0 1.254-.57 1.881-1.71 1.881-.684 0-1.368-.019-2.052-.057l-.323-1.216c.684.038 1.311.076 1.881.076.57 0 .855-.38.855-1.102v-8.379zM53.463 89l1.349.114a162.994 162.994 0 0 1-.513 3.591h2.812v.798c-.152 3.078-.684 5.719-1.596 7.961.893.931 1.634 1.767 2.204 2.527l-.912 1.064a29.338 29.338 0 0 0-1.9-2.261c-.76 1.444-1.691 2.698-2.831 3.762l-.855-1.083c1.121-1.026 2.033-2.242 2.755-3.686-.76-.779-1.577-1.577-2.451-2.413a59.331 59.331 0 0 0 1.197-5.358h-1.52v-1.311h1.748c.19-1.197.361-2.432.513-3.705zm1.083 11.476c.722-1.9 1.14-4.047 1.273-6.46H54.09c-.361 1.995-.722 3.648-1.102 4.959a60.303 60.303 0 0 1 1.558 1.501zm12.597-2.052v8.094h-1.311v-1.14h-5.814v1.14h-1.311v-8.094h8.436zm-7.125 5.662h5.814v-4.408h-5.814v4.408zm-2.052-7.372l-.209-1.235c1.102-.57 2.47-2.698 4.104-6.422l1.292.437c-1.14 2.47-2.261 4.427-3.401 5.89a64.708 64.708 0 0 0 6.08-.665 36.462 36.462 0 0 0-1.615-2.888l1.178-.57a47.97 47.97 0 0 1 2.945 5.491l-1.273.608c-.228-.513-.437-1.007-.665-1.482a105.61 105.61 0 0 1-8.436.836z" fill="#2A3052" fill-rule="nonzero"/></g></svg>