<?xml version="1.0" encoding="UTF-8"?>
<svg width="299px" height="197px" viewBox="0 0 299 197" version="1.1" xmlns="http://www.w3.org/2000/svg" xmlns:xlink="http://www.w3.org/1999/xlink">
    <!-- Generator: Sketch 52.6 (67491) - http://www.bohemiancoding.com/sketch -->
    <title>touch</title>
    <desc>Created with Sketch.</desc>
    <g id="Page-1" stroke="none" stroke-width="1" fill="none" fill-rule="evenodd">
        <g id="touch">
            <g id="Group">
                <polygon id="Path" fill="#F1F2F2" points="0 0 299 0 299 197 0 197"></polygon>
                <path d="M1.98671096,1.9798995 L1.98671096,195.020101 L297.013289,195.020101 L297.013289,1.9798995 L1.98671096,1.9798995 Z M299,0 L299,197 L0,197 L0,0 L299,0 Z" id="Path" fill="#C2C2C2" fill-rule="nonzero"></path>
                <path d="M4.887,56.4456836 L4.887,55.2388448 L294.54325,55.2388448 L294.54325,56.4456836 L4.887,56.4456836 Z M4.887,96.9796458 L4.887,95.772807 L294.54325,95.772807 L294.54325,96.9796458 L4.887,96.9796458 Z M4.887,137.513608 L4.887,136.30677 L294.54325,136.30677 L294.54325,137.513608 L4.887,137.513608 Z M4.887,178.010211 L4.887,176.803373 L294.54325,176.803373 L294.54325,178.010211 L4.887,178.010211 Z M39.2665806,35.5939623 L40.4734194,35.5939623 L40.4734194,195.264151 L39.2665806,195.264151 L39.2665806,35.5939623 Z M75.9314556,35.5939623 L77.1382944,35.5939623 L77.1382944,195.264151 L75.9314556,195.264151 L75.9314556,35.5939623 Z M112.558956,35.5939623 L113.765794,35.5939623 L113.765794,195.264151 L112.558956,195.264151 L112.558956,35.5939623 Z M149.223831,35.5939623 L150.430669,35.5939623 L150.430669,195.264151 L149.223831,195.264151 L149.223831,35.5939623 Z M185.851331,35.5939623 L187.058169,35.5939623 L187.058169,195.264151 L185.851331,195.264151 L185.851331,35.5939623 Z M222.478831,35.5939623 L223.685669,35.5939623 L223.685669,195.264151 L222.478831,195.264151 L222.478831,35.5939623 Z M4.887,117.227948 L4.887,116.021109 L294.54325,116.021109 L294.54325,117.227948 L4.887,117.227948 Z" id="Shape" fill="#DFDEDE" fill-rule="nonzero"></path>
                <polygon id="Path" fill="#2A3052" fill-rule="nonzero" points="4.887 76.7313439 4.887 75.5245051 294.54325 75.5245051 294.54325 76.7313439"></polygon>
                <polygon id="Path" fill="#DFDEDE" fill-rule="nonzero" points="4.887 157.76191 4.887 156.555072 294.54325 156.555072 294.54325 157.76191"></polygon>
                <polygon id="Path" fill="#2A3052" fill-rule="nonzero" points="259.143706 35.5939623 260.350544 35.5939623 260.350544 195.264151 259.143706 195.264151"></polygon>
                <polygon id="Path" fill="#C2C2C2" fill-rule="nonzero" points="2.794 33.6055162 2.794 31.1914649 296.63625 31.1914649 296.63625 33.6055162"></polygon>
                <path d="M41.0869303,138.250634 C40.3466232,138.922726 39.2016474,138.867426 38.5295554,138.127119 C37.8574633,137.386812 37.9127626,136.241836 38.6530697,135.569744 L75.3179447,102.283329 C76.0311337,101.635856 77.1264314,101.660197 77.8101526,102.338714 L102.514722,126.855228 L132.675074,93.5178463 C133.351131,92.7705752 134.50724,92.7191333 135.246994,93.4034068 L179.337008,134.186717 L221.609617,75.0748031 C222.19124,74.2614907 223.322059,74.0736691 224.135371,74.655292 C224.948684,75.2369149 225.136505,76.3677334 224.554883,77.1810459 L181.087758,137.96331 C180.45376,138.849861 179.185865,138.979337 178.385756,138.239235 L134.132071,97.3045294 L103.927801,130.690456 C103.234985,131.456251 102.042975,131.488331 101.309972,130.760909 L76.4794148,106.119365 L41.0869303,138.250634 Z" id="Path" fill="#2A3052" fill-rule="nonzero"></path>
                <path d="M187.987125,147.445283 L153.0415,147.445283 L147.6595,139.263774 L142.2775,147.445283 L107.331875,147.445283 C104.715625,147.445283 102.622625,149.574717 102.622625,152.22717 L102.622625,176.921132 C102.622625,179.573585 104.753,181.703019 107.331875,181.703019 L188.0245,181.703019 C190.64075,181.703019 192.73375,179.573585 192.73375,176.921132 L192.73375,152.22717 C192.73375,149.574717 190.603375,147.445283 187.987125,147.445283 Z" id="Path" fill="#E88024"></path>
                <g opacity="0.6" transform="translate(214.037500, 67.509434)" fill="#FFFFFF" id="Oval">
                    <ellipse cx="9.04475" cy="8.6184906" rx="8.110375" ry="8.44301887"></ellipse>
                </g>
                <path d="M223.08225,85.777969 C217.925296,85.777969 213.764849,81.4468836 213.764849,76.1279245 C213.764849,70.8089654 217.925296,66.47788 223.08225,66.47788 C228.239204,66.47788 232.399651,70.8089654 232.399651,76.1279245 C232.399651,81.4468836 228.239204,85.777969 223.08225,85.777969 Z M223.08225,83.3639177 C226.883769,83.3639177 229.985599,80.1348665 229.985599,76.1279245 C229.985599,72.1209825 226.883769,68.8919313 223.08225,68.8919313 C219.280731,68.8919313 216.178901,72.1209825 216.178901,76.1279245 C216.178901,80.1348665 219.280731,83.3639177 223.08225,83.3639177 Z" id="Oval" fill="#E88024" fill-rule="nonzero"></path>
                <g opacity="0.6" transform="translate(30.900000, 128.018868)" fill="#FFFFFF" id="Oval">
                    <ellipse cx="8.97" cy="8.89132075" rx="8.110375" ry="8.44301887"></ellipse>
                </g>
                <path d="M39.87,146.560233 C34.7130457,146.560233 30.5525994,142.229148 30.5525994,136.910189 C30.5525994,131.59123 34.7130457,127.260145 39.87,127.260145 C45.0269543,127.260145 49.1874006,131.59123 49.1874006,136.910189 C49.1874006,142.229148 45.0269543,146.560233 39.87,146.560233 Z M39.87,144.146182 C43.6715185,144.146182 46.7733494,140.917131 46.7733494,136.910189 C46.7733494,132.903247 43.6715185,129.674196 39.87,129.674196 C36.0684815,129.674196 32.9666506,132.903247 32.9666506,136.910189 C32.9666506,140.917131 36.0684815,144.146182 39.87,144.146182 Z" id="Oval" fill="#E88024" fill-rule="nonzero"></path>
            </g>
            <path d="M17.182,17.373 L17.182,18.848 L17.89,18.848 L17.89,17.373 L17.182,17.373 Z M17.123,20.145 C17.005,21.531 16.711,22.696 16.253,23.64 L15.236,22.71 C15.678,21.693 15.9,20.396 15.914,18.818 L15.914,14.63 L15.884,14.66 L15,13.598 C15.84,12.743 16.578,11.548 17.212,10 L18.583,10.31 C18.48,10.56 18.377,10.797 18.273,11.032 L20.559,11.032 L20.559,12.079 C20.294,12.596 20.029,13.038 19.763,13.421 L21.001,13.421 L21.001,16.267 C21.754,15.707 22.343,15.043 22.756,14.277 L21.473,14.277 L21.473,10.487 L28.227,10.487 L28.227,14.277 L24.142,14.277 C24.024,14.542 23.892,14.807 23.744,15.073 L28.448,15.073 C28.448,18.98 28.389,21.399 28.271,22.313 C28.153,23.213 27.593,23.669 26.59,23.669 C26.295,23.669 25.809,23.639 25.1,23.61 L24.791,22.445 C25.233,22.475 25.646,22.49 26.001,22.505 C25.941,22.313 25.897,22.135 25.838,21.974 C24.865,22.21 23.405,22.445 21.458,22.652 L21.267,21.472 C22.0198544,21.4306409 22.7719605,21.3766333 23.523,21.31 L23.523,20.16 L21.591,20.16 L21.591,17.476 L21.414,17.609 L21.001,16.945 L21.001,22.578 C21.001,23.212 20.633,23.537 19.911,23.537 L19.35,23.537 L19.04,22.401 L19.04,23.183 L17.89,23.183 L17.89,20.144 L17.123,20.144 L17.123,20.145 Z M26.9,22.165 C26.9566281,22.0228362 26.9962368,21.8744716 27.018,21.723 C27.091,21.222 27.136,19.423 27.165,16.341 L22.845,16.341 C22.535,16.665 22.211,16.975 21.857,17.27 L23.523,17.27 L23.523,16.636 L24.733,16.636 L24.733,17.27 L26.649,17.27 L26.649,20.16 L24.732,20.16 L24.732,21.177 C24.998,21.133 25.262,21.089 25.499,21.059 L25.263,20.499 L26.163,20.204 C26.428,20.794 26.678,21.443 26.9,22.165 Z M18.244,13.421 C18.48,13.082 18.716,12.699 18.967,12.271 L17.654,12.271 C17.418,12.684 17.168,13.067 16.917,13.421 L18.244,13.421 Z M19.04,22.342 C19.217,22.372 19.38,22.402 19.527,22.402 C19.674,22.402 19.763,22.298 19.763,22.122 L19.763,20.144 L19.04,20.144 L19.04,22.341 L19.04,22.342 Z M19.763,18.848 L19.763,17.373 L19.04,17.373 L19.04,18.848 L19.763,18.848 Z M19.763,16.105 L19.763,14.734 L19.04,14.734 L19.04,16.104 L19.763,16.104 L19.763,16.105 Z M17.89,14.734 L17.182,14.734 L17.182,16.104 L17.89,16.104 L17.89,14.734 Z M27.018,13.097 L27.018,11.667 L26.31,11.667 L26.31,13.097 L27.018,13.097 Z M25.248,13.097 L25.248,11.667 L24.481,11.667 L24.481,13.097 L25.248,13.097 Z M23.405,13.097 L23.405,11.667 L22.697,11.667 L22.697,13.097 L23.405,13.097 Z M25.602,19.157 L25.602,18.273 L24.732,18.273 L24.732,19.157 L25.602,19.157 Z M23.523,19.157 L23.523,18.273 L22.638,18.273 L22.638,19.157 L23.523,19.157 Z M33.447,12.05 L31.073,12.05 L31.073,10.546 L40.215,10.546 L40.215,11.549 C39.9819944,12.5613599 39.7114747,13.564718 39.404,14.557 L42.324,14.557 L42.324,15.457 C41.896,17.403 41.026,19.039 39.714,20.396 C40.775,21.133 41.984,21.782 43.341,22.357 L42.309,23.728 C40.834,23.05 39.566,22.298 38.504,21.472 C37.236,22.445 35.688,23.227 33.86,23.817 L32.96,22.387 C34.641,21.827 36.071,21.163 37.221,20.367 C36.1669112,19.3540598 35.3032143,18.160126 34.671,16.842 C34.125,19.792 32.916,22.077 31.058,23.684 L29.864,22.637 C32.208,20.661 33.402,17.506 33.447,13.171 L33.447,12.05 Z M38.431,19.408 C39.507,18.405 40.259,17.255 40.687,15.958 L37.487,15.958 C37.811,15.058 38.15,13.76 38.519,12.05 L35.009,12.05 L35.009,13.17 C35.009,13.465 34.995,13.746 34.98,14.026 C35.511,16.09 36.661,17.874 38.43,19.408 L38.431,19.408 Z" id="Shape" fill="#000000" fill-rule="nonzero"></path>
            <g id="Group" transform="translate(135.186000, 151.194000)" fill="#FFFFFF" fill-rule="nonzero">
                <path d="M28.286,18.246 L29.676,18.246 L30.087,2.342 L27.863,2.342 L28.286,18.246 Z M27.87,21.965 C27.957,22.817 28.588,23.034 29.102,23.034 C29.616,23.034 30.182,22.648 30.182,21.965 C30.182,20.953 29.465,20.712 28.985,20.712 C28.505,20.712 27.783,21.112 27.87,21.965 Z" id="Shape"></path>
                <g id="Shape">
                    <path d="M10.56,21.7 C10.936,22.021 11.256,22.31 11.52,22.565 C10.752,23.692 9.575,24.681 8.939,25.121 C8.547,24.616 8.273,24.262 8.119,24.061 C8.876,23.505 9.689,22.718 10.559,21.7 L10.56,21.7 Z M15.027,12.74 L15.027,21.334 L8.871,21.334 L8.871,12.74 L15.027,12.74 Z M13.531,18.721 L10.487,18.721 L10.487,20.121 L13.531,20.121 L13.531,18.721 Z M13.531,16.301 L10.487,16.301 L10.487,17.701 L13.531,17.701 L13.531,16.301 Z M13.531,13.916 L10.487,13.916 L10.487,15.316 L13.531,15.316 L13.531,13.916 Z M24.386,3.52 L24.386,2.093 L13.546,2.093 C12.887,0.649 12.636,0.083 12.794,0.397 L10.866,0.713 L11.62,2.093 L0.63,2.093 L0.63,3.521 L2.824,3.521 L2.824,6.253 L22.685,6.253 L22.685,4.993 L4.546,4.993 L4.546,3.521 L24.386,3.521 L24.386,3.52 Z M3.638,7.486 L21.219,7.486 L21.219,11.303 L3.638,11.303 L3.638,7.486 Z M5.418,8.582 L5.418,10.198 L19.47,10.198 L19.47,8.582 L5.418,8.582 Z M2.094,12.494 C3.985,12.476 5.884,12.476 7.791,12.494 L7.791,22.928 C7.791,23.48 8.268,25.301 4.74,24.919 L4.365,23.472 C5.697,23.645 6.364,23.464 6.364,22.928 L6.364,20.6 L3.402,20.6 C3.005,22.81 2.455,24.25 1.752,24.92 C1.535,24.738 1.162,24.403 0.63,23.914 C2.596,21.256 2.075,13.346 2.094,12.494 Z M3.538,17.302 L3.538,19.315 L6.298,19.315 L6.298,17.302 L3.538,17.302 Z M6.334,13.878 L3.584,13.878 L3.584,16.048 L6.334,16.048 L6.334,13.878 Z"></path>
                    <path d="M20.7,19.61 L19.86,20.151 C19.039,18.813 18.43,17.911 18.035,17.444 C18.016,19.034 17.957,20.183 17.859,20.891 C17.541,23.193 16.689,24.165 16.119,24.971 L14.912,23.901 L14.51,24.417 C13.45,23.297 12.757,22.604 12.428,22.337 C12.778,22.008 13.082,21.717 13.342,21.466 C14.215,22.146 14.912,22.866 15.323,23.347 C15.587,22.87 16.119,22.151 16.351,20.787 C16.66,18.965 16.449,14.346 16.584,12.418 C18.974,12.41 20.828,12.41 22.146,12.418 L22.146,22.738 C22.083,23.445 23.487,23.321 23.487,22.738 L23.772,19.796 C24.01,19.896 24.412,20.041 24.978,20.232 C24.711,22.029 24.792,24.21 23.772,24.417 C23.048,24.452 20.699,24.948 20.699,23.457 L20.699,19.611 L20.7,19.61 Z M20.7,19.147 L20.7,13.904 L18.025,13.904 C18.04,14.986 18.045,15.956 18.041,16.814 L18.875,16.324 C19.789,17.599 20.397,18.524 20.698,19.095 L20.699,19.147 L20.7,19.147 Z"></path>
                </g>
            </g>
            <g id="Group" transform="translate(24.186000, 151.194000)" fill="#2A3052" fill-rule="nonzero">
                <path d="M1.474,13.548 L0.369,13.548 L0.369,0.685 L5.782,0.685 L5.782,5.289 L1.474,5.289 L1.474,13.548 Z M1.488,1.538 L1.488,2.598 L4.802,2.598 L4.802,1.538 L1.488,1.538 Z M4.776,3.426 L1.488,3.426 L1.488,4.459 L4.776,4.459 L4.776,3.426 Z M7.072,5.23 L7.072,0.71 L12.524,0.71 C12.565,6.968 12.565,10.549 12.524,11.453 C12.462,12.809 12.78,13.795 9.628,13.454 C9.57,13.198 9.488,12.896 9.381,12.548 C10.146,12.365 11.496,13.18 11.496,11.624 L11.496,5.23 L7.072,5.23 Z M8.117,3.42 L8.117,4.394 L11.469,4.394 L11.469,3.42 L8.117,3.42 Z M8.108,1.553 L8.108,2.594 L11.44,2.594 L11.44,1.554 L8.108,1.554 L8.108,1.553 Z" id="Shape"></path>
                <path d="M9.953,6.373 L9.953,7.269 L8.503,7.269 L8.503,8.963 L10.408,8.963 L10.408,9.893 L8.502,9.893 L8.502,13.27 L7.562,13.27 L7.562,9.893 C6.552,9.897 5.781,9.897 5.251,9.893 C5.121,10.495 5.121,12.488 2.976,13.476 C2.78992104,13.2038858 2.61282566,12.9257359 2.445,12.642 C3.171,12.258 4.085,11.779 4.319,9.925 L2.436,9.895 L2.445,8.963 L4.385,8.963 L4.385,7.269 L2.825,7.269 L2.825,6.373 L9.953,6.373 Z M7.565,7.275 L5.35,7.275 L5.35,8.965 L7.566,8.965 L7.566,7.275 L7.565,7.275 Z M16.2,0.218 L17.262,0.338 L16.824,3.07 C16.964,3.08 17.692,3.08 19.007,3.07 C19.043,5.076 18.629,8.07 17.786,9.79 C18.692,10.766 19.263,11.427 19.497,11.777 L18.789,12.566 L17.336,10.83 C16.488,12.22 15.751,13.189 15.124,13.736 C15.019,13.586 14.804,13.312 14.478,12.915 C15.298,12.038 16.109,11.142 16.591,10.089 L14.719,8.223 L15.66,4.065 L14.478,4.065 L14.478,3.07 L15.803,3.07 L16.2,0.218 Z M18.044,4.072 L16.704,4.072 C16.4577849,5.3504537 16.1696294,6.62047223 15.84,7.88 C16.339,8.364 16.738,8.757 17.04,9.059 C17.553,7.964 18.044,4.85 18.044,4.072 Z M22.701,0.237 L23.679,0.572 C22.556,2.903 21.684,4.415 21.063,5.11 C23.895,4.863 25.453,4.691 25.74,4.594 C25.047,3.278 24.644,2.541 24.531,2.384 L25.445,1.94 C26.43,3.636 27.181,5.039 27.698,6.148 L26.705,6.648 L26.188,5.508 C22.608,5.921 20.441,6.134 19.688,6.148 C19.6390141,5.82300775 19.5840047,5.49895202 19.523,5.176 C20.371,4.709 21.431,3.063 22.701,0.237 Z M25.876,13.736 L25.876,12.835 L21.38,12.835 L21.38,13.735 L20.347,13.735 L20.347,7.487 L26.874,7.487 L26.874,13.736 L25.876,13.736 Z M25.869,8.45 L21.405,8.45 L21.405,11.815 L25.869,11.815 L25.869,8.45 Z" id="Shape"></path>
            </g>
            <g id="Group" transform="translate(262.186000, 98.194000)" fill="#2A3052" fill-rule="nonzero">
                <path d="M3.332,0.825 L4.332,1.227 C3.242,3.617 2.492,5.012 2.083,5.412 L3.997,5.145 L5.055,3.31 L6.048,3.676 C4.471,6.389 3.136,8.506 2.461,9.016 L5.055,8.474 L4.65,7.114 L5.465,6.828 C6.066,8.442 6.367,9.418 6.367,9.756 C5.859,9.892 5.559,9.976 5.465,10.008 L5.283,9.288 C3.057,9.854 1.712,10.138 1.247,10.138 C1.141,9.817 1.047,9.49 0.963,9.158 C1.609,9.002 3.059,6.828 3.423,6.144 L1.105,6.491 L0.838,5.517 C1.309,5.369 2.14,3.805 3.332,0.825 Z M4.907,10.548 C5.282,10.408 5.56,10.315 5.741,10.273 C6.351,11.789 6.655,12.636 6.655,12.812 C6.605,12.867 6.318,13 5.795,13.213 C5.52529482,12.3161201 5.22916578,11.4273996 4.907,10.548 Z M3.979,10.686 C4.05,10.962 4.576,13.631 4.576,13.738 L3.571,13.98 C3.361,12.323 3.206,11.298 3.108,10.905 C3.494,10.786 3.567,10.786 3.979,10.685 L3.979,10.686 Z M1.409,10.896 L2.375,11.014 C2.248,12.704 2.069,13.842 1.839,14.43 C1.5189131,14.3311528 1.19755252,14.2364781 0.875,14.146 C1.17247364,13.085711 1.35156602,11.9957293 1.409,10.896 Z M6.207,2.812 L6.207,3.852 L9.875,3.852 L9.875,6.133 L6.656,6.133 L6.656,7.169 L14.216,7.169 L14.216,6.133 L10.945,6.133 L10.945,3.852 L14.525,3.852 L14.525,2.812 L10.945,2.812 L10.945,0.915 L9.875,0.915 L9.875,2.812 L6.207,2.812 Z M12.679,14.703 L12.679,14.01 L8.2,14.01 L8.2,14.703 L7.156,14.703 L7.156,8.678 L13.729,8.678 L13.729,14.703 L12.679,14.703 Z M12.709,9.7 L8.212,9.7 L8.212,12.975 L12.708,12.975 L12.708,9.7 L12.709,9.7 Z M22.23,2.433 L22.23,0.897 L23.338,0.897 L23.338,2.433 L29.228,2.433 L29.228,3.455 L23.338,3.455 L23.338,4.865 L28.05,4.865 L28.05,9.181 L24.284,9.181 C25.041,10.493 26.86,11.878 29.74,13.336 C29.683,13.371 29.44,13.676 29.012,14.252 C27.399,13.48 24.284,11.033 23.338,9.181 L23.348,14.686 L22.23,14.686 C22.222,10.902 22.202,9.07 22.17,9.191 C21.185,10.938 19.018,13.165 16.454,14.252 L15.838,13.304 C18.555,12.035 20.372,10.661 21.288,9.181 L17.498,9.191 L17.498,4.864 L22.23,4.864 L22.23,3.455 L16.345,3.455 L16.345,2.433 L22.23,2.433 Z M22.19,5.954 L18.538,5.954 L18.538,8.264 L22.189,8.264 L22.189,5.954 L22.19,5.954 Z M23.344,8.24 L27.032,8.24 L27.032,5.985 L23.344,5.985 L23.344,8.24 Z" id="Shape"></path>
            </g>
            <g id="Group" opacity="0.9" transform="translate(29.186000, 58.194000)" fill="#6D6E71" fill-rule="nonzero">
                <path d="M13.434,11.745 L14.278,11.745 L14.278,4.939 L15.396,6.932 L15.924,6.112 C14.93,4.819 14.381,4.123 14.278,4.024 L14.288,3.284 L15.634,3.284 L15.634,2.464 L14.287,2.464 L14.277,0.142 L13.434,0.142 L13.434,2.463 L11.824,2.463 L11.824,3.285 L13.331,3.285 C13.239,4.205 12.067,6.843 11.457,7.484 C11.469,7.487 11.606,7.822 11.867,8.488 C12.575,7.221 12.951,6.461 13.434,5.057 L13.434,11.745 Z M0.32,11.795 L0.32,0.868 L8.874,0.868 L8.874,11.795 L7.902,11.795 L7.902,10.983 L1.275,10.983 L1.275,11.795 L0.32,11.795 Z M7.988,1.642 L1.276,1.642 L1.276,3.814 L7.988,3.814 L7.988,1.642 Z M7.966,4.605 L1.298,4.605 L1.298,6.84 L7.966,6.84 L7.966,4.605 Z M7.953,7.72 L1.31,7.72 L1.31,10.076 L7.953,10.076 L7.953,7.72 Z M16.322,0.868 L23.321,0.868 L23.321,1.632 L21.221,1.632 L21.221,2.58 L23.111,2.58 L23.111,5.554 L16.62,5.554 L16.62,2.58 L18.53,2.58 L18.53,1.632 L16.322,1.632 L16.322,0.868 Z M20.47,1.69 L19.24,1.69 L19.24,2.596 L20.47,2.596 L20.47,1.69 Z M21.193,3.318 L21.193,4.863 L22.293,4.863 L22.293,3.318 L21.193,3.318 Z M20.456,3.308 L19.289,3.308 L19.289,4.86 L20.456,4.86 L20.456,3.308 Z M18.586,3.288 L17.465,3.288 L17.465,4.874 L18.585,4.874 L18.585,3.287 L18.586,3.288 Z M22.76,6.152 L22.76,6.89 L16.893,6.89 L16.893,6.152 L22.76,6.152 Z M23.32,7.857 L23.32,8.562 L20.177,8.562 L20.177,11.74 L19.397,11.74 L19.397,8.562 L16.332,8.562 L16.332,7.857 L23.32,7.857 Z" id="Shape"></path>
                <path d="M21.132,9.64 C21.398,9.373 21.578,9.202 21.672,9.128 C22.002,9.378 23.142,10.491 23.557,11.118 C23.415,11.272 23.21,11.474 22.942,11.725 C22.737,11.321 22.133,10.625 21.132,9.639 L21.132,9.64 Z M17.956,8.87 C18.232,9.106 18.426,9.27 18.535,9.36 C17.847,10.272 17.155,10.983 16.461,11.492 C16.371,11.402 16.192,11.185 15.924,10.84 C17.02,9.953 17.697,9.296 17.956,8.87 Z" id="Shape"></path>
            </g>
        </g>
    </g>
</svg>