<svg xmlns="http://www.w3.org/2000/svg" viewBox="0 0 200 200"><path fill="#F3F2F2" d="M1 1h198v198H1z"/><path fill="#CDCCCB" d="M198 2v196H2V2h196m2-2H0v200h200V0z"/><path d="M25.96 200V0m29.616 200V0m29.616 200V0m29.616 200V0m29.615 200V0m29.616 200V0M0 25.96h200M0 55.577h200M0 85.192h200M0 114.808h200M0 144.423h200M0 174.04h200" stroke="#CDCCCB" stroke-width="2" fill="none"/><path d="M61.653 123.828L90.536 100 61.653 76.172v13.506h-23.59v20.64h23.59zm76.694 0L109.467 100l28.88-23.828v13.506h23.59v20.64h-23.59zM76.172 61.653L100 90.536l23.828-28.883H110.32v-23.59H89.683v23.59zm0 76.694L100 109.463l23.828 28.884H110.32v23.59H89.683v-23.59z" fill="#232D61"/><path fill="#E78026" d="M93.084 59.69L200 146.687v-9.917L93.25 49.906 71.176 66.663 0 41.998v8.142l72.552 25.14zm8.032 33.288l-14.81 16.456H8.856L0 117.344v10.312l11.794-10.53H89.73l12.883-14.313L200 160.66v-8.947z"/></svg>