<svg xmlns="http://www.w3.org/2000/svg" width="200" height="200" viewBox="0 0 200 200"><path fill="#F3F2F2" d="M1.43 1.43H198.57V198.57H1.43z"/><path fill="#CDCCCB" d="M197.143 2.857v194.286H2.857V2.857h194.286M200 0H0v200h200V0z"/><g fill="none" stroke="#CDCCCB" stroke-width="2"><path d="M26.922 200V0M56.54 200V0M86.154 200V0M115.77 200V0M145.385 200V0M175 200V0"/></g><g fill="none" stroke="#CDCCCB" stroke-width="2"><path d="M0 25.96h200M0 55.576h200M0 85.192h200M0 114.808h200M0 144.423h200M0 174.04h200"/></g><path fill="#293052" d="M93.516 30.7h15.436v8.1H93.516zM90.23 26.65h22.006v8.1H90.23zM147.41 46.38l10.914 10.913-5.728 5.727-10.913-10.913z"/><path fill="#F1F1F1" d="M101.23 171.62C64.16 171.62 34 141.463 34 104.39c0-37.075 30.163-67.236 67.233-67.236 37.076 0 67.236 30.16 67.236 67.235 0 37.072-30.16 67.23-67.235 67.23z"/><path fill="#293052" d="M101.23 38c36.607 0 66.39 29.782 66.39 66.39 0 36.605-29.782 66.386-66.39 66.386-36.604 0-66.385-29.78-66.385-66.387C34.845 67.78 64.625 38 101.23 38m0-1.693c-37.598 0-68.08 30.482-68.08 68.082 0 37.597 30.482 68.08 68.08 68.08 37.602 0 68.082-30.483 68.082-68.08 0-37.6-30.48-68.083-68.08-68.083z"/><path fill="#fff" d="M101.23 161.236c-31.343 0-56.846-25.503-56.846-56.848 0-31.347 25.502-56.848 56.847-56.848 31.35 0 56.852 25.5 56.852 56.848 0 31.345-25.503 56.848-56.85 56.848z"/><path fill="#293052" d="M101.23 48.458c30.844 0 55.934 25.09 55.934 55.93s-25.09 55.934-55.933 55.934c-30.838 0-55.93-25.093-55.93-55.933 0-30.842 25.092-55.932 55.93-55.932m0-1.834c-31.896 0-57.762 25.865-57.762 57.765 0 31.896 25.866 57.765 57.763 57.765 31.9 0 57.768-25.868 57.768-57.766 0-31.9-25.866-57.766-57.767-57.766zM101.23 106.083c-.932 0-1.692-.76-1.692-1.694V63.022c0-.935.76-1.693 1.693-1.693.938 0 1.695.758 1.695 1.693v41.366c0 .933-.757 1.693-1.694 1.693zM101.234 106.083c-.603 0-1.186-.324-1.493-.894-.442-.824-.133-1.85.69-2.294l27.732-14.932c.82-.444 1.847-.134 2.29.688.446.824.137 1.85-.687 2.293l-27.73 14.933c-.255.138-.53.205-.8.205z"/><path fill="#E78024" d="M51.547 104.39c0 .758-.615 1.375-1.376 1.375-.755 0-1.374-.617-1.374-1.376s.62-1.378 1.375-1.378c.762 0 1.377.618 1.377 1.377z"/><circle fill="#E78024" cx="152.294" cy="104.389" r="1.375"/><path fill="#E78024" d="M74.248 146.106c.638.41.822 1.264.407 1.902-.413.635-1.265.82-1.903.406-.635-.413-.82-1.264-.407-1.9s1.267-.82 1.903-.408zM129.713 60.36c.638.413.82 1.265.405 1.9-.41.64-1.264.82-1.9.41-.637-.412-.822-1.265-.408-1.903.413-.637 1.263-.818 1.903-.406zM57.44 127.86c.357.666.107 1.504-.562 1.86-.668.357-1.505.106-1.863-.562-.355-.67-.104-1.504.564-1.863.67-.358 1.503-.105 1.86.565zM147.448 79.618c.358.67.106 1.503-.56 1.864-.674.357-1.505.104-1.863-.564-.357-.67-.107-1.502.562-1.862.67-.36 1.504-.107 1.86.562zM128.217 146.106c-.638.41-.82 1.264-.407 1.902.413.635 1.264.82 1.903.406.635-.413.82-1.264.405-1.9-.41-.636-1.264-.82-1.9-.408zM72.752 60.36c-.635.413-.82 1.265-.407 1.9.412.64 1.267.82 1.903.41.638-.412.822-1.265.407-1.903-.412-.637-1.265-.818-1.903-.406zM145.025 127.86c-.357.666-.107 1.504.562 1.86.67.357 1.504.106 1.86-.562.36-.67.107-1.504-.56-1.863-.672-.358-1.503-.105-1.862.565z"/><circle fill="#E78024" cx="56.228" cy="80.268" r="1.376"/><circle fill="#E78024" cx="101.231" cy="53.328" r="1.375"/><circle fill="#E78024" cx="101.231" cy="155.448" r="1.375"/><path fill="none" stroke="#E78024" stroke-width="3" d="M29.355 142.885l42.675-44.2 24.526 21.666 32.857-24.286 14.045 10.954 28.572-49.763"/><circle fill="#293052" cx="29.114" cy="142.851" r="2.678"/><circle fill="#293052" cx="172.15" cy="57.314" r="2.678"/></svg>