<?xml version="1.0" encoding="UTF-8"?>
<svg width="20px" height="18px" viewBox="0 0 20 18" version="1.1" xmlns="http://www.w3.org/2000/svg" xmlns:xlink="http://www.w3.org/1999/xlink">
    <!-- Generator: Sketch 47.1 (45422) - http://www.bohemiancoding.com/sketch -->
    <title>Shape</title>
    <desc>Created with Sketch.</desc>
    <defs></defs>
    <g id="Page-1" stroke="none" stroke-width="1" fill="none" fill-rule="evenodd">
        <g id="Histogram_Chart" transform="translate(-780.000000, -738.000000)" fill-rule="nonzero" fill="#FFFFFF">
            <g id="Group-4" transform="translate(756.000000, 727.000000)">
                <g id="Group-5">
                    <g id="noun_563198_cc" transform="translate(24.000000, 10.000000)">
                        <g id="Group" transform="translate(0.000000, 0.155756)">
                            <path d="M14.5454545,0.8442442 L14.5454545,16.9495074 L18.6363636,16.9495074 L18.6363636,0.8442442 L14.5454545,0.8442442 Z M7.95454545,5.58108631 L7.95454545,16.9495074 L12.0454545,16.9495074 L12.0454545,5.58108631 L7.95454545,5.58108631 Z M1.36363636,10.3179284 L1.36363636,16.9495074 L5.45454545,16.9495074 L5.45454545,10.3179284 L1.36363636,10.3179284 Z M0.454545455,17.8968758 C0.202727273,17.8968758 0,18.1081389 0,18.37056 C0,18.632981 0.202727273,18.8442442 0.454545455,18.8442442 L19.5454545,18.8442442 C19.7972727,18.8442442 20,18.632981 20,18.37056 C20,18.1081389 19.7972727,17.8968758 19.5454545,17.8968758 L0.454545455,17.8968758 Z" id="Shape"></path>
                        </g>
                    </g>
                </g>
            </g>
        </g>
    </g>
</svg>