<svg width="34" height="34" viewBox="0 0 34 34" xmlns="http://www.w3.org/2000/svg"><title>bitcoin_talk</title><g fill="none" fill-rule="evenodd"><path d="M22.561 1.73C14.137-1.333 4.78 3.02 1.727 11.44c-3.057 8.43 1.3 17.775 9.712 20.83 8.424 3.062 17.782-1.291 20.834-9.71 3.057-8.43-1.3-17.775-9.712-20.83z" stroke="#F5A623" stroke-width="1.5"/><path d="M21.278 5.253c-6.47-2.35-13.675.984-16.027 7.47-2.35 6.486 1.001 13.673 7.471 16.024 6.47 2.35 13.675-.984 16.027-7.47 2.35-6.486-1.001-13.673-7.471-16.024z" fill="#F5A623" fill-rule="nonzero"/><path d="M24 22.15a4.284 4.284 0 0 1-1.399 1.271c-.544.337-1.153.558-1.833.713-.469.102-.965.19-1.484.218l.013 2.878-1.655.003-.013-2.879-1.682-.01.013 2.878-1.655.003-.013-2.878-3.59-.009-.007-1.727.511-.047c.185.002.423-.039.757-.068.423-.039.558-.111.606-.105.162-.06.208-.122.208-.122a.575.575 0 0 0 .04-.269l-.016-9.52c-.003-.137-.033-.218-.063-.3-.007-.02-.07-.066-.209-.131-.194-.091-.413-.126-.62-.19-.268-.04-.48-.055-.632-.092l-.52-.041-.009-1.728 3.494-.003.002-2.837 1.655-.003.053 2.864 1.683.01-.013-2.878 1.654-.003v2.906c.35.012.693.071 1.009.118.57.115 1.095.293 1.622.54a3.69 3.69 0 0 1 1.281 1.056c.355.47.542 1.048.547 1.692a3.198 3.198 0 0 1-.367 1.517c-.234.431-.58.81-.994 1.123a6.505 6.505 0 0 1-.888.53c.449.16.857.335 1.24.564.521.295.963.688 1.333 1.199.37.511.56 1.157.566 1.87-.05.687-.23 1.329-.624 1.888z" fill="#FFF"/><path d="M20.745 20.153c-.004 1.316-1.061 2.393-2.374 2.386l-2.414.002-.011-4.77 2.413-.002a2.408 2.408 0 0 1 2.386 2.384zM19.931 13.875c.011 1.104-.887 1.984-1.988 1.993l-1.976.004-.01-4.01 1.976-.004c1.087.02 1.995.935 1.998 2.017z" fill="#F5A623" fill-rule="nonzero"/></g></svg>