<svg xmlns="http://www.w3.org/2000/svg" viewBox="-20708.334 -21211 77.512 29.166">
  <defs>
    <style>
      .cls-1 {
        fill: #e98024;
      }

      .cls-2 {
        fill: none;
        stroke: #2a3052;
        stroke-miterlimit: 10;
        stroke-width: 2px;
      }

      .cls-3 {
        fill: #2a3052;
      }
    </style>
  </defs>
  <g id="Group_88" data-name="Group 88" transform="translate(-20708.333 -21211)">
    <g id="Group_84" data-name="Group 84" transform="translate(0 0.635)">
      <path id="Path_123" data-name="Path 123" class="cls-1" d="M14.266,993.4a14.266,14.266,0,1,0,14.266,14.266A14.28,14.28,0,0,0,14.266,993.4Zm0,2.449a11.756,11.756,0,1,1-11.817,11.817A11.758,11.758,0,0,1,14.266,995.849Zm0,2.51a1.228,1.228,0,0,0-1.225,1.224v.735a5.536,5.536,0,0,0-2.2.98,4.224,4.224,0,0,0-1.531,3.245,3.824,3.824,0,0,0,1.776,3.123,20.515,20.515,0,0,0,2.755,1.163c1.163.429,2.939.857,2.939,1.959a1.538,1.538,0,0,1-.612,1.286,2.743,2.743,0,0,1-1.837.551,3.084,3.084,0,0,1-2.633-1.469,1.335,1.335,0,0,0-1.714-.429,1.335,1.335,0,0,0-.429,1.714,5.607,5.607,0,0,0,3.551,2.51v.8a1.225,1.225,0,0,0,2.449,0v-.735a5.541,5.541,0,0,0,2.2-.98,4.131,4.131,0,0,0,1.531-3.245,3.737,3.737,0,0,0-1.776-3.123,20.522,20.522,0,0,0-2.755-1.163c-1.1-.429-2.939-.857-2.939-1.959a1.465,1.465,0,0,1,.612-1.286,3.117,3.117,0,0,1,1.837-.551,3.084,3.084,0,0,1,2.633,1.469,1.25,1.25,0,1,0,2.143-1.286,5.607,5.607,0,0,0-3.551-2.51v-.8A1.228,1.228,0,0,0,14.266,998.359Z" transform="translate(0 -993.4)"/>
    </g>
    <g id="Group_85" data-name="Group 85" transform="translate(30.184 12.123)">
      <line id="Line_31" data-name="Line 31" class="cls-2" x2="10.837" transform="translate(0 4.041)"/>
      <path id="Path_124" data-name="Path 124" class="cls-2" d="M60.4,19.8l4.041,4.041L60.4,27.882" transform="translate(-53.604 -19.8)"/>
    </g>
    <g id="Group_86" data-name="Group 86" transform="translate(54.858 11.105)">
      <path id="Path_125" data-name="Path 125" class="cls-3" d="M95.539,1010.5a5.939,5.939,0,1,0,5.939,5.939A5.945,5.945,0,0,0,95.539,1010.5Zm0,1.041a4.9,4.9,0,1,1-4.9,4.9A4.912,4.912,0,0,1,95.539,1011.541Zm0,1.041a.483.483,0,0,0-.49.49v.306a1.609,1.609,0,0,0-.918.429,1.754,1.754,0,0,0-.612,1.347,1.546,1.546,0,0,0,.735,1.286,4.727,4.727,0,0,0,1.163.49c.49.184,1.225.367,1.225.8a.665.665,0,0,1-.245.551,1.039,1.039,0,0,1-.8.245,1.26,1.26,0,0,1-1.1-.612.536.536,0,0,0-.918.551,2.2,2.2,0,0,0,1.469,1.041v.306a.483.483,0,0,0,.49.49.527.527,0,0,0,.49-.49v-.306a1.61,1.61,0,0,0,.918-.429,1.754,1.754,0,0,0,.612-1.347,1.547,1.547,0,0,0-.735-1.286,4.74,4.74,0,0,0-1.163-.49c-.49-.184-1.225-.367-1.225-.8a.6.6,0,0,1,.245-.551,1.363,1.363,0,0,1,.8-.245,1.261,1.261,0,0,1,1.1.612.536.536,0,1,0,.918-.551,2.2,2.2,0,0,0-1.469-1.041v-.306C96.09,1012.826,95.845,1012.582,95.539,1012.582Z" transform="translate(-89.6 -1010.5)"/>
    </g>
    <g id="Group_87" data-name="Group 87" transform="translate(44.021)">
      <path id="Path_126" data-name="Path 126" class="cls-3" d="M101.778,4.469H96.452V2.2a2.195,2.195,0,0,0-2.2-2.2H83.1a2.195,2.195,0,0,0-2.2,2.2V4.469H75.206A3.292,3.292,0,0,0,71.9,7.776V25.715a3.292,3.292,0,0,0,3.306,3.306h26.511a3.684,3.684,0,0,0,3.674-3.674V8.082A3.619,3.619,0,0,0,101.778,4.469ZM83.1,2.143H94.247V4.408H83.1Zm20.143,23.143a1.49,1.49,0,0,1-1.469,1.469H75.267a1.1,1.1,0,0,1-1.1-1.1V7.714a1.1,1.1,0,0,1,1.1-1.1h26.511a1.49,1.49,0,0,1,1.469,1.469Z" transform="translate(-71.9)"/>
    </g>
  </g>
</svg>
