<svg width="150" height="48" viewBox="0 0 150 28" xmlns="http://www.w3.org/2000/svg"><title>coinist_logo</title><g fill="none" fill-rule="evenodd"><path d="M0-10h150v48H0z"/><path d="M0 13.786c0-1.657.291-3.307.874-4.951a13.727 13.727 0 0 1 2.543-4.408c1.113-1.294 2.485-2.35 4.116-3.165C9.163.447 11.015.04 13.086.04c2.459 0 4.556.556 6.29 1.67 1.735 1.113 3.029 2.563 3.883 4.35l-2.174 1.32c-.44-.907-.971-1.67-1.592-2.292a8.589 8.589 0 0 0-4.272-2.35 10.797 10.797 0 0 0-2.29-.252c-1.657 0-3.12.337-4.388 1.01a10.101 10.101 0 0 0-3.204 2.64 11.526 11.526 0 0 0-1.96 3.67 13.35 13.35 0 0 0-.66 4.137c0 1.527.264 2.99.795 4.388A12.446 12.446 0 0 0 5.69 22.04a10.458 10.458 0 0 0 3.261 2.563c1.256.634 2.621.951 4.097.951.776 0 1.572-.097 2.388-.29a9.203 9.203 0 0 0 2.369-.933 9.969 9.969 0 0 0 2.116-1.592c.647-.634 1.19-1.405 1.63-2.31l2.253 1.164a8.43 8.43 0 0 1-1.864 2.738 12.254 12.254 0 0 1-2.68 2c-.983.544-2.025.958-3.125 1.243-1.1.285-2.181.427-3.242.427-1.89 0-3.625-.414-5.204-1.243a13.646 13.646 0 0 1-4.077-3.242 15.048 15.048 0 0 1-2.66-4.544A14.692 14.692 0 0 1 0 13.786zm39.412 14.175c-1.915 0-3.669-.395-5.261-1.184a13.08 13.08 0 0 1-4.097-3.146 14.303 14.303 0 0 1-2.64-4.485 14.803 14.803 0 0 1-.932-5.165c0-1.839.33-3.6.99-5.282a14.56 14.56 0 0 1 2.738-4.466 13.236 13.236 0 0 1 4.116-3.087C35.905.382 37.613 0 39.45 0c1.916 0 3.67.408 5.262 1.223a13.214 13.214 0 0 1 4.077 3.204 14.81 14.81 0 0 1 2.62 4.486 14.539 14.539 0 0 1-.057 10.388c-.66 1.683-1.567 3.165-2.719 4.447a13.148 13.148 0 0 1-4.096 3.068c-1.58.763-3.288 1.145-5.126 1.145zM29.2 13.981c0 1.501.246 2.945.738 4.33A11.782 11.782 0 0 0 32.035 22a10.307 10.307 0 0 0 3.223 2.563c1.242.634 2.627.952 4.154.952 1.554 0 2.964-.337 4.233-1.01a10.32 10.32 0 0 0 3.223-2.64 12.203 12.203 0 0 0 2.038-3.69c.48-1.372.719-2.77.719-4.194 0-1.502-.253-2.945-.758-4.33a11.84 11.84 0 0 0-2.116-3.67 10.435 10.435 0 0 0-3.223-2.544c-1.242-.634-2.614-.952-4.116-.952-1.553 0-2.964.33-4.232.99a10.088 10.088 0 0 0-3.223 2.622 12.203 12.203 0 0 0-2.039 3.69 12.644 12.644 0 0 0-.718 4.194zm28.385 13.786V.233h2.679v27.534h-2.68zM69.933 5.243v22.524h-2.68V.194h2.097L87.6 23.146V.233h2.68v27.534h-2.33L69.933 5.243zm27.336 22.524V.233h2.68v27.534h-2.68zm25.86-22.408c-.776-.88-1.818-1.592-3.125-2.136-1.307-.543-2.776-.815-4.407-.815-2.46 0-4.246.46-5.359 1.378-1.113.92-1.67 2.169-1.67 3.748 0 .828.15 1.508.447 2.039.298.53.764.99 1.398 1.378.634.389 1.437.725 2.407 1.01.971.285 2.117.57 3.437.855 1.475.31 2.796.653 3.96 1.029 1.165.375 2.162.854 2.99 1.437.829.582 1.463 1.294 1.903 2.135.44.842.66 1.884.66 3.127 0 1.268-.246 2.369-.738 3.3a6.579 6.579 0 0 1-2.058 2.33c-.88.622-1.928 1.082-3.145 1.38-1.217.297-2.537.446-3.96.446-4.324 0-8.012-1.333-11.067-4l1.32-2.214c1.01 1.062 2.369 1.962 4.077 2.7 1.709.737 3.611 1.106 5.708 1.106 2.2 0 3.922-.395 5.165-1.184 1.242-.79 1.864-1.987 1.864-3.592 0-.855-.175-1.573-.525-2.156-.35-.582-.873-1.087-1.572-1.514-.7-.428-1.573-.796-2.621-1.107a57.992 57.992 0 0 0-3.63-.932 42.679 42.679 0 0 1-3.806-1.049c-1.087-.362-2-.815-2.738-1.359s-1.294-1.197-1.67-1.961c-.375-.764-.562-1.702-.562-2.816 0-1.268.239-2.401.718-3.398a6.751 6.751 0 0 1 2.02-2.485c.866-.66 1.902-1.165 3.105-1.515 1.204-.35 2.53-.524 3.98-.524 1.813 0 3.437.278 4.874.835a13.19 13.19 0 0 1 3.902 2.35l-1.281 2.174zM150 2.602h-9.824v25.165h-2.718V2.602h-9.824V.194H150v2.408z" fill="#2A3052"/></g></svg>