<svg xmlns="http://www.w3.org/2000/svg" viewBox="-21654 -21362 48.094 42.932">
  <defs>
    <style>
      .cls-1 {
        fill: #2a3052;
      }

      .cls-2 {
        fill: #e98024;
      }

      .cls-3, .cls-5 {
        fill: none;
      }

      .cls-3 {
        stroke: #e98024;
        stroke-width: 2px;
      }

      .cls-4 {
        stroke: none;
      }
    </style>
  </defs>
  <g id="Group_76" data-name="Group 76" transform="translate(-21871 -22343)">
    <path id="Path_39" data-name="Path 39" class="cls-1" d="M16.174,952.4a25.063,25.063,0,0,0-11.009,2.3c-2.713,1.2-4.852,3.5-5.165,6.1v25.565c0,2.87,2.243,5.113,5.165,6.574a25.064,25.064,0,0,0,11.009,2.3,27.147,27.147,0,0,0,9.339-1.565,15.654,15.654,0,1,0,6.835-29.739V960.8c-.417-2.974-3.026-5.009-5.165-6.1A25.063,25.063,0,0,0,16.174,952.4Zm0,3.13a22.126,22.126,0,0,1,9.652,1.983c2.087,1.043,3.13,2.243,3.391,3.287.209,1.878-1.826,3.391-3.391,4.174a22.126,22.126,0,0,1-9.652,1.983,22.126,22.126,0,0,1-9.652-1.983c-1.617-.991-3.391-1.93-3.391-4.017.157-1.1,1.2-2.348,3.391-3.443A22.9,22.9,0,0,1,16.174,955.53ZM3.13,966.643A13.278,13.278,0,0,0,5.165,967.9a25.065,25.065,0,0,0,11.009,2.3,30.611,30.611,0,0,0,3.861-.261,16.2,16.2,0,0,0-1.983,3.287c-.626.052-1.252.052-1.878.052a22.3,22.3,0,0,1-9.652-1.983c-2.4-1.2-3.391-2.609-3.391-3.757v-.887Zm29.217.365A12.522,12.522,0,1,1,19.826,979.53a12.492,12.492,0,0,1,12.522-12.522ZM3.13,972.852a11.155,11.155,0,0,0,1.983,1.2,25.139,25.139,0,0,0,11.061,2.3h.835a15.926,15.926,0,0,0-.313,3.13h-.522A22.3,22.3,0,0,1,6.522,977.5c-2.348-1.2-3.391-2.609-3.391-3.757v-.887Zm0,6.261a13.046,13.046,0,0,0,2.035,1.2,25.065,25.065,0,0,0,11.009,2.3h.835a15.048,15.048,0,0,0,.939,3.078c-.574.052-1.2.052-1.826.052a22.3,22.3,0,0,1-9.652-1.983c-2.4-1.2-3.391-2.609-3.391-3.757v-.887Zm0,6.261a11.155,11.155,0,0,0,1.983,1.2,25.14,25.14,0,0,0,11.061,2.3,25.176,25.176,0,0,0,3.5-.209,17.061,17.061,0,0,0,2.452,2.661,26.235,26.235,0,0,1-5.948.678,22.644,22.644,0,0,1-9.6-1.983c-2.348-1.2-3.443-2.557-3.443-3.757v-.887Z" transform="translate(217 28.6)"/>
    <path id="Path_46" data-name="Path 46" class="cls-2" d="M15.74,992.4a15.74,15.74,0,1,0,15.74,15.74A15.743,15.743,0,0,0,15.74,992.4Zm0,2.737a13,13,0,1,1-13,13A13,13,0,0,1,15.74,995.138Zm0,2.737a1.373,1.373,0,0,0-1.369,1.369v.821a5.9,5.9,0,0,0-2.4,1.095,4.581,4.581,0,0,0-1.711,3.559,4,4,0,0,0,1.916,3.422,17.486,17.486,0,0,0,3.011,1.232c1.232.479,3.217.958,3.285,2.19a1.719,1.719,0,0,1-.684,1.437,3.065,3.065,0,0,1-2.053.616,3.546,3.546,0,0,1-2.943-1.642,1.492,1.492,0,0,0-1.916-.479,1.473,1.473,0,0,0-.479,1.916,6.3,6.3,0,0,0,3.9,2.806v.821a1.369,1.369,0,1,0,2.737,0v-.821a5.9,5.9,0,0,0,2.4-1.095,4.582,4.582,0,0,0,1.711-3.559,4,4,0,0,0-1.916-3.422,17.486,17.486,0,0,0-3.011-1.232c-1.232-.479-3.217-.958-3.285-2.121a1.638,1.638,0,0,1,.684-1.437,3.485,3.485,0,0,1,2.053-.616,3.672,3.672,0,0,1,2.943,1.574,1.473,1.473,0,0,0,1.916.479,1.492,1.492,0,0,0,.479-1.916,6.217,6.217,0,0,0-3.9-2.737v-.821A1.389,1.389,0,0,0,15.74,997.875Z" transform="translate(233.613 0.051)"/>
    <g id="Ellipse_8" data-name="Ellipse 8" class="cls-3" transform="translate(236 995)">
      <circle class="cls-4" cx="13.5" cy="13.5" r="13.5"/>
      <circle class="cls-5" cx="13.5" cy="13.5" r="12.5"/>
    </g>
  </g>
</svg>
