<svg width="139" height="48" viewBox="0 0 139 39" xmlns="http://www.w3.org/2000/svg"><title>Coin Idol</title><g fill-rule="nonzero" fill="none"><path d="M56.982 0c-.234 0-2.287.038-2.287 1.344s2.053 1.344 2.287 1.344c.234 0 2.288-.038 2.288-1.344S57.216 0 56.982 0m0 1.854c-.917 0-1.522-.306-1.665-.51.143-.205.748-.51 1.665-.51.918 0 1.523.306 1.666.51-.143.204-.748.51-1.666.51" fill="#4A4A4A"/><path d="M12.908 14.209c.086.086.129.205.129.36 0 .17-.13.39-.388.655a5.069 5.069 0 0 1-1.032.784c-.43.256-.925.475-1.485.655-.215.07-.439.113-.662.155V6.783c.12.023.248.036.366.064a9.442 9.442 0 0 1 1.575.514c.447.198.8.403 1.058.617.258.214.387.39.387.526a.452.452 0 0 1-.129.335l.335.154 1.601-2.75-.31-.205a5.868 5.868 0 0 1-.129.167c-.035.043-.12.064-.258.064-.12 0-.34-.073-.658-.218a14.06 14.06 0 0 0-1.226-.476c-.5-.17-1.085-.33-1.756-.475a9.187 9.187 0 0 0-.856-.13V2.75H8.137v2.137c-.038 0-.07-.005-.108-.005-.349 0-.684.018-1.012.046V2.75H5.684v2.387c-.344.079-.68.169-.998.284-.99.36-1.833.844-2.53 1.452a6.347 6.347 0 0 0-1.6 2.094A5.789 5.789 0 0 0 0 11.46c0 1.045.198 2.008.594 2.89.396.883.95 1.645 1.665 2.287.714.642 1.57 1.135 2.568 1.478.277.094.564.173.857.242v2.74h1.333V18.57c.362.035.731.058 1.115.058h.005v2.469h1.332v-2.534a8.58 8.58 0 0 0 1.425-.248c.757-.209 1.381-.448 1.872-.717.49-.27.868-.517 1.135-.74.267-.225.443-.337.53-.337.154 0 .284.06.387.18l.335-.231-1.91-2.467-.335.206zm-8.855 1.263a5.414 5.414 0 0 1-1.407-1.654 4.308 4.308 0 0 1-.53-2.114c0-.889.173-1.654.517-2.294a4.789 4.789 0 0 1 1.33-1.576 5.504 5.504 0 0 1 1.721-.865v9.418c-.595-.24-1.148-.535-1.631-.915zm2.964 1.327V6.692c.295-.036.59-.063.883-.063.08 0 .156.01.237.013v10.281a7.086 7.086 0 0 1-1.12-.124zM26.196 7.095a6.396 6.396 0 0 0-2.053-1.246c-.8-.308-1.7-.462-2.698-.462-.997 0-1.896.154-2.697.462-.8.308-1.484.724-2.052 1.246a5.315 5.315 0 0 0-1.304 1.837 5.677 5.677 0 0 0-.452 2.262c0 .805.15 1.558.452 2.26a5.31 5.31 0 0 0 1.304 1.838c.568.523 1.252.925 2.052 1.208.8.282 1.7.423 2.697.423.999 0 1.898-.141 2.698-.423.8-.283 1.484-.685 2.053-1.208a5.3 5.3 0 0 0 1.303-1.838c.301-.702.451-1.455.451-2.26 0-.805-.15-1.56-.45-2.262a5.308 5.308 0 0 0-1.304-1.837m-.284 5.794a4.095 4.095 0 0 1-.955 1.388 4.56 4.56 0 0 1-1.51.937c-.595.232-1.261.348-2.002.348-.74 0-1.407-.116-2-.348a4.562 4.562 0 0 1-1.51-.937 4.093 4.093 0 0 1-.955-1.388 4.385 4.385 0 0 1-.336-1.721c0-.6.112-1.165.336-1.696.223-.53.542-.993.955-1.387a4.411 4.411 0 0 1 1.51-.926c.593-.222 1.26-.333 2-.333s1.407.11 2.001.333a4.412 4.412 0 0 1 1.511.926c.413.394.731.856.955 1.387.223.531.335 1.097.335 1.696 0 .616-.112 1.19-.335 1.721M29.876 5.849c.275 0 .452.047.53.141.077.095.116.287.116.578v9.25c0 .292-.039.485-.116.579-.078.094-.255.141-.53.141v.308h2.891v-.308c-.275 0-.451-.047-.529-.141-.077-.094-.115-.287-.115-.578v-9.25c0-.292.038-.484.115-.579.078-.094.254-.141.53-.141V5.54h-2.892v.308zM44.232 5.849c.276 0 .46.047.556.141.094.095.142.287.142.578v7.94l-6.997-7.991c-.19-.24-.283-.385-.283-.437 0-.068.047-.124.141-.167.095-.043.28-.064.556-.064V5.54h-3.77v.308c.275 0 .461.047.556.141.094.095.141.287.141.578v9.25c0 .292-.047.485-.141.578-.095.095-.28.142-.556.142v.308h2.84v-.308c-.275 0-.46-.047-.555-.142-.094-.093-.142-.286-.142-.578V7.545l7.306 8.299c.086.103.159.185.22.245.06.06.09.132.09.218s-.035.145-.103.18c-.07.034-.276.051-.62.051v.308h3.46v-.308c-.276 0-.461-.047-.556-.141-.095-.094-.142-.287-.142-.578v-9.25c0-.292.047-.484.142-.579.094-.094.28-.141.555-.141V5.54h-2.84v.308zM55.632 4.041c.24 0 .404.056.49.168.086.11.13.26.13.45v11.665c0 .188-.044.338-.13.45-.086.11-.25.166-.49.166v.308h2.701v-.308c-.241 0-.404-.055-.49-.167-.087-.111-.13-.261-.13-.45V4.659c0-.189.043-.338.13-.45.086-.11.249-.167.49-.167v-.308h-2.701v.308zM71.322 7.005c-.473-.505-1.08-.903-1.82-1.195-.74-.29-1.618-.437-2.633-.437h-6.247v.308c.275 0 .452.048.529.142.077.095.116.287.116.578v9.25c0 .292-.04.484-.116.578-.077.094-.254.142-.53.142v.308h6.248c1.015 0 1.893-.146 2.633-.437.74-.29 1.347-.689 1.82-1.195a4.706 4.706 0 0 0 1.046-1.798 7.205 7.205 0 0 0 .335-2.222c0-.806-.112-1.55-.335-2.236a4.734 4.734 0 0 0-1.046-1.786m-.568 5.653c-.164.506-.422.95-.774 1.336-.353.385-.81.69-1.369.912-.56.223-1.243.334-2.052.334h-3.692V6.812h3.692c.809 0 1.493.112 2.052.334.56.223 1.016.527 1.369.913.352.385.61.83.774 1.336.164.505.245 1.05.245 1.632 0 .582-.081 1.126-.245 1.63M85.207 6.928c-.568-.522-1.251-.938-2.052-1.246-.8-.308-1.7-.462-2.698-.462s-1.898.154-2.697.462c-.8.308-1.485.724-2.053 1.246a5.31 5.31 0 0 0-1.303 1.837 5.668 5.668 0 0 0-.452 2.262c0 .805.15 1.558.452 2.26.3.703.735 1.315 1.303 1.838.568.522 1.252.925 2.053 1.207.8.283 1.7.424 2.697.424.998 0 1.897-.141 2.698-.424.8-.282 1.484-.685 2.052-1.207a5.297 5.297 0 0 0 1.304-1.838 5.667 5.667 0 0 0 .451-2.26c0-.806-.15-1.56-.451-2.262a5.307 5.307 0 0 0-1.304-1.837m-.283 5.794a4.098 4.098 0 0 1-.956 1.388 4.547 4.547 0 0 1-1.51.937c-.594.232-1.26.348-2 .348-.741 0-1.408-.116-2.001-.348a4.546 4.546 0 0 1-1.51-.937 4.086 4.086 0 0 1-.956-1.388 4.38 4.38 0 0 1-.336-1.721c0-.6.112-1.165.336-1.696.224-.53.543-.993.955-1.388a4.396 4.396 0 0 1 1.51-.925c.594-.223 1.261-.334 2.001-.334s1.407.111 2 .334a4.4 4.4 0 0 1 1.511.925c.413.395.731.857.956 1.388.223.531.335 1.096.335 1.696a4.39 4.39 0 0 1-.335 1.721M99.606 14.47c0 .291-.043.492-.129.604-.086.11-.258.166-.517.166h-8.105V6.401c0-.291.039-.483.116-.578.077-.094.253-.141.529-.141v-.308h-2.892v.308c.276 0 .452.047.53.141.078.095.116.287.116.578v9.25c0 .291-.038.485-.116.578-.078.095-.254.142-.53.142v.308H98.96c.259 0 .43.034.517.103.086.068.129.196.129.385h.31V14.47h-.31z" fill="#FC3"/><path d="M102.771 14.574c.387 0 .714.128.98.383.266.256.4.567.4.935 0 .357-.136.663-.408.918a1.37 1.37 0 0 1-.972.384c-.38 0-.706-.13-.975-.388a1.244 1.244 0 0 1-.403-.93c0-.357.133-.662.399-.915s.593-.382.98-.387z" fill="#4A4A4A"/><path d="M113.542 13.712l1.254 2.173-.17.149c-.12-.1-.214-.15-.283-.15-.084 0-.28.11-.586.326-.678.47-1.277.795-1.796.976-.52.182-1.118.273-1.796.273-1.356 0-2.462-.384-3.317-1.152a4.731 4.731 0 0 1-1.158-1.654 5.847 5.847 0 0 1-.46-2.331c0-1.155.282-2.176.846-3.061.885-1.384 2.244-2.076 4.074-2.076.678 0 1.28.09 1.807.272.527.182 1.127.508 1.8.977.307.217.502.325.586.325.07 0 .163-.05.282-.15l.171.16-1.254 2.154-.163-.14a.863.863 0 0 1 .014-.131c.005-.053.008-.09.008-.114 0-.286-.334-.61-1.002-.972-.633-.344-1.272-.517-1.915-.517-.9 0-1.642.281-2.226.843-.668.631-1.002 1.442-1.002 2.43 0 .994.334 1.807 1.002 2.439.588.555 1.33.833 2.226.833.703 0 1.403-.208 2.1-.624.545-.329.817-.616.817-.863l-.022-.246.163-.15zM120.95 7.185c1.431 0 2.624.399 3.577 1.196 1.141.962 1.712 2.302 1.712 4.02 0 1.613-.57 2.9-1.712 3.862-.943.797-2.13 1.196-3.56 1.196-1.43 0-2.618-.399-3.56-1.196-1.147-.962-1.72-2.276-1.72-3.941 0-1.683.573-2.997 1.72-3.94.948-.78 2.13-1.18 3.544-1.197zm.009 1.865c-.928 0-1.684.325-2.268.976-.542.61-.812 1.375-.812 2.296 0 .915.27 1.677.812 2.287.584.657 1.343.985 2.276.985.927 0 1.683-.328 2.267-.985.542-.604.813-1.352.813-2.243 0-.968-.271-1.748-.813-2.34-.59-.64-1.348-.965-2.275-.976zM132.767 17.248l-3.28-6.48v5.574c0 .182.037.321.112.418.075.097.208.177.401.242v.246h-2.987v-.246c.187-.053.32-.13.397-.229.078-.1.117-.24.117-.422V8.293c0-.182-.038-.321-.113-.418-.075-.096-.208-.174-.401-.233v-.246h3.8v.246c-.252.088-.378.255-.378.501 0 .241.091.534.274.88l2.243 4.457 2.26-4.395c.256-.463.385-.792.385-.986 0-.24-.131-.392-.394-.457v-.246h3.704v.246c-.193.059-.327.136-.402.233-.075.097-.112.236-.112.417v8.05c0 .182.037.323.112.423.075.1.21.178.402.237v.246h-3.18v-.246c.187-.053.32-.13.397-.23.078-.1.117-.24.117-.422v-5.583l-3.474 6.481z" fill="#FC3"/><path d="M31.73 25.284c.957.32 1.435.981 1.435 1.982 0 .484-.128.91-.386 1.278a2.03 2.03 0 0 1-1.025.772c-.43.15-1.044.225-1.84.225H25.12v-.192c.153-.04.255-.094.307-.162.053-.068.079-.186.079-.354v-6.779c0-.168-.026-.287-.079-.357-.052-.07-.154-.123-.307-.159v-.192h4.91c.482 0 .881.038 1.197.114.316.076.594.202.835.378.555.397.833.965.833 1.705 0 .789-.388 1.37-1.164 1.741zm-5.278-.402h3.173c.45 0 .787-.014 1.01-.042.223-.028.43-.08.618-.156.233-.096.414-.244.543-.444.129-.2.193-.433.193-.697a1.28 1.28 0 0 0-.344-.9 1.45 1.45 0 0 0-.72-.406c-.296-.074-.75-.11-1.36-.11h-3.113v2.755zm0 3.879h3.305c.475 0 .827-.016 1.056-.045.23-.03.442-.09.64-.178.24-.112.429-.28.563-.504.135-.224.202-.484.202-.78 0-.393-.118-.727-.355-1.003a1.477 1.477 0 0 0-.754-.465c-.306-.082-.777-.123-1.412-.123h-3.245v3.098zM36.067 28.76h5.26c.169 0 .288-.025.359-.078.07-.052.123-.154.16-.306h.192v1.55h-.193c-.036-.153-.09-.255-.16-.307-.07-.052-.19-.078-.358-.078h-6.593v-.192c.157-.04.26-.094.31-.162.05-.068.076-.186.076-.355v-6.778c0-.168-.027-.286-.079-.354-.052-.068-.155-.122-.307-.162v-.192h1.719v.192c-.153.04-.256.094-.308.162-.052.068-.078.186-.078.354v6.707zM47.45 21.202c1.45 0 2.62.378 3.51 1.134.498.42.872.935 1.122 1.544.205.5.307 1.038.307 1.615 0 .78-.223 1.51-.67 2.19-.49.753-1.171 1.296-2.044 1.628-.651.248-1.39.372-2.214.372-1.444 0-2.608-.378-3.492-1.135a4.061 4.061 0 0 1-1.43-3.11c0-.812.221-1.56.664-2.245.482-.74 1.166-1.28 2.05-1.621.62-.236 1.352-.36 2.196-.372zm0 .822c-1.235 0-2.213.344-2.932 1.033-.66.632-.99 1.427-.99 2.383 0 .96.33 1.758.99 2.39.715.688 1.697 1.033 2.943 1.033 1.25 0 2.236-.345 2.956-1.033.655-.632.983-1.413.983-2.342 0-1.004-.328-1.815-.983-2.431a3.424 3.424 0 0 0-1.267-.775c-.499-.168-1.066-.254-1.7-.258zM62.674 22.054l-.893 1.483-.163-.096c.036-.12.055-.214.055-.282 0-.164-.258-.37-.773-.618a5.227 5.227 0 0 0-2.316-.517c-1.126 0-2.039.31-2.738.93-.712.632-1.068 1.45-1.068 2.453 0 1 .37 1.83 1.11 2.49.716.644 1.598.966 2.648.966 1.025 0 1.93-.298 2.714-.892.354-.268.531-.458.531-.57 0-.056-.034-.148-.102-.276l.144-.115 1.074 1.297-.15.12c-.114-.1-.206-.15-.278-.15-.045 0-.121.043-.23.127-.37.276-.676.484-.92.622-.243.139-.51.256-.799.352-.599.205-1.258.307-1.978.307-1.387 0-2.515-.384-3.384-1.153-.913-.804-1.37-1.83-1.37-3.08 0-.984.286-1.837.857-2.557.893-1.129 2.23-1.693 4.012-1.693 1.178 0 2.318.31 3.42.93a.4.4 0 0 0 .15.06c.053 0 .147-.075.284-.228l.163.09zM65.575 26.395v2.438c0 .164.026.28.079.35.052.07.154.126.307.166v.192h-1.719v-.192c.153-.04.256-.094.308-.162.052-.068.078-.186.078-.354v-6.779c0-.168-.026-.287-.078-.357-.053-.07-.155-.123-.308-.159v-.192h1.72v.192c-.154.04-.256.094-.308.162-.053.068-.079.187-.079.355v3.406L70.02 22c.156-.12.234-.219.234-.295 0-.088-.076-.144-.228-.168v-.192h2.173v.192c-.241.016-.478.114-.711.294l-3.346 2.583 3.683 4.64c.089.112.171.187.248.225a.924.924 0 0 0 .35.069v.192h-2.01v-.192c.174-.04.26-.098.26-.174 0-.048-.088-.186-.265-.414l-2.981-3.794-1.85 1.428zM81.554 22.054l-.893 1.483-.163-.096c.036-.12.055-.214.055-.282 0-.164-.258-.37-.772-.618a5.227 5.227 0 0 0-2.317-.517c-1.126 0-2.039.31-2.738.93-.712.632-1.068 1.45-1.068 2.453 0 1 .37 1.83 1.11 2.49.716.644 1.598.966 2.648.966 1.026 0 1.93-.298 2.714-.892.354-.268.531-.458.531-.57 0-.056-.034-.148-.102-.276l.144-.115 1.074 1.297-.15.12c-.113-.1-.206-.15-.278-.15-.045 0-.12.043-.23.127-.37.276-.676.484-.92.622-.243.139-.509.256-.799.352-.599.205-1.258.307-1.978.307-1.387 0-2.515-.384-3.384-1.153-.913-.804-1.37-1.83-1.37-3.08 0-.984.286-1.837.857-2.557.893-1.129 2.23-1.693 4.012-1.693 1.178 0 2.318.31 3.42.93a.4.4 0 0 0 .15.06c.053 0 .147-.075.284-.228l.163.09zM90.095 25.717h-5.64v3.116c0 .168.025.286.076.354.05.068.153.122.31.162v.192h-1.719v-.192c.157-.04.26-.094.31-.162.051-.068.076-.186.076-.355v-6.778c0-.168-.026-.287-.078-.357-.052-.07-.155-.123-.308-.159v-.192h1.72v.192c-.154.04-.256.094-.308.162-.053.068-.079.186-.079.354v2.882h5.64v-2.882c0-.168-.026-.287-.078-.357-.053-.07-.155-.123-.308-.159v-.192h1.72v.192c-.154.04-.256.094-.309.162-.052.068-.078.186-.078.354v6.779c0 .164.026.28.078.35.053.07.155.126.308.166v.192H89.71v-.192c.153-.04.255-.094.308-.162.052-.068.078-.186.078-.354v-3.116zM99.08 27.242h-4.405l-.724 1.555c-.068.148-.102.252-.102.312 0 .12.119.2.357.24v.192h-1.837v-.192a.65.65 0 0 0 .377-.18c.086-.092.2-.292.34-.6l3.017-6.479c.072-.156.108-.262.108-.318 0-.104-.098-.182-.295-.234v-.192h2.002v.192c-.197.064-.295.148-.295.252 0 .044.036.144.108.3l2.89 6.244c.213.46.354.73.422.81.068.08.217.149.446.205v.192h-1.954v-.192c.234-.032.35-.12.35-.264 0-.064-.043-.188-.132-.373l-.674-1.47zm-.349-.781l-1.854-4.05-1.852 4.05h3.706zM102.732 28.832v-6.778c0-.168-.026-.287-.078-.357-.053-.07-.155-.123-.308-.159v-.192h1.72v.192c-.154.04-.256.094-.308.162-.053.068-.079.186-.079.354v6.779c0 .168.025.286.076.354.05.068.153.122.31.162v.192h-1.719v-.192c.157-.04.26-.094.31-.162.051-.068.076-.186.076-.355zM107.13 22.385v6.447c0 .165.025.282.078.352.052.07.155.125.307.165v.192h-1.634v-.192c.157-.04.26-.094.31-.162.05-.068.076-.186.076-.354v-6.779c0-.168-.026-.287-.078-.357-.053-.07-.155-.123-.308-.159v-.192h2.365v.192c-.189.064-.283.154-.283.27 0 .08.094.23.283.45l4.964 5.776v-5.98c0-.168-.027-.287-.079-.357-.052-.07-.155-.123-.308-.159v-.192h1.635v.192c-.153.036-.255.09-.308.16-.052.07-.078.188-.078.357v6.778c0 .168.026.286.078.354.053.068.155.122.308.162v.192h-1.9v-.192c.184-.048.277-.13.277-.246 0-.088-.085-.232-.254-.432l-5.452-6.286zM40.113 33.006v4.257c0 .108.017.186.052.232.034.046.102.082.203.109v.127h-1.08v-.127c.104-.027.172-.062.206-.107.033-.045.05-.123.05-.234v-4.475c0-.111-.018-.19-.052-.236-.035-.046-.102-.081-.203-.105v-.127h1.562v.127c-.125.042-.188.102-.188.179 0 .052.063.152.188.297l3.276 3.813v-3.948c0-.11-.017-.19-.052-.236-.034-.046-.102-.081-.203-.105v-.127h1.08v.127c-.102.024-.17.06-.204.105-.034.047-.051.125-.051.236v4.475c0 .111.017.189.051.234.035.045.102.08.203.107v.127h-1.254v-.127c.122-.032.183-.086.183-.163 0-.058-.056-.153-.168-.285l-3.599-4.15zM47.026 35.206v2.01h3.485c.111 0 .19-.018.237-.052.046-.035.081-.102.105-.202h.128v1.022h-.128c-.026-.1-.063-.168-.11-.202-.046-.034-.125-.052-.236-.052h-4.36v-.126c.103-.027.17-.062.204-.107.033-.045.05-.123.05-.234v-4.475c0-.111-.017-.189-.052-.234-.034-.045-.102-.08-.203-.107v-.127h4.313c.112 0 .19-.017.235-.05.045-.035.081-.102.108-.204h.127v1.023h-.127c-.024-.1-.06-.166-.106-.201s-.125-.053-.237-.053h-3.433v1.855h2.25c.112 0 .19-.017.237-.051.047-.034.082-.102.106-.202h.127v1.022h-.127c-.024-.1-.06-.168-.106-.202s-.125-.052-.237-.052h-2.25zM55.763 33.13l-1.377 3.955c-.053.156-.08.264-.08.325 0 .087.076.152.228.194v.127h-1.322v-.127c.152-.03.228-.094.228-.194 0-.056-.03-.164-.088-.325L51.897 33.1c-.101-.272-.179-.443-.233-.513-.055-.07-.146-.117-.273-.14v-.128h1.276v.127c-.159.019-.239.086-.239.202 0 .043.036.166.108.369l1.354 3.823 1.343-3.823c.077-.225.116-.354.116-.389 0-.095-.076-.155-.227-.182v-.127h1.389v.127c-.152.037-.228.105-.228.202 0 .04.036.163.108.369l1.318 3.823 1.303-3.823c.064-.19.096-.316.096-.377 0-.1-.074-.165-.223-.194v-.127h1.203v.127a.468.468 0 0 0-.285.153c-.06.075-.134.242-.221.501l-1.391 3.984c-.053.153-.08.255-.08.305 0 .106.076.177.227.214v.127h-1.3v-.127c.152-.034.228-.107.228-.218 0-.034-.027-.124-.08-.27l-1.423-3.986zM65.6 32.656l-.57 1.024-.111-.06a.956.956 0 0 0 .067-.222c0-.079-.098-.165-.294-.257a3.973 3.973 0 0 0-1.697-.373c-.491 0-.918.091-1.282.273-.175.09-.314.206-.416.348a.76.76 0 0 0-.153.451c0 .132.04.257.119.374.08.117.185.205.315.263.143.066.312.111.507.136.196.025.513.045.954.058.61.018 1.047.047 1.31.085.263.038.48.105.65.2.45.251.676.633.676 1.146 0 .489-.204.889-.613 1.2-.454.35-1.079.524-1.875.524-.46 0-.86-.047-1.203-.14-.343-.092-.751-.262-1.227-.51a1.061 1.061 0 0 0-.235-.092c-.04 0-.102.048-.187.143l-.107-.067.597-.995.112.063a.65.65 0 0 0-.076.214c0 .085.17.216.51.393.305.158.599.273.882.343.283.07.59.105.922.105.671 0 1.181-.147 1.529-.44.23-.196.346-.428.346-.698 0-.354-.197-.598-.593-.733a1.604 1.604 0 0 0-.396-.085c-.137-.012-.525-.03-1.165-.054a7.538 7.538 0 0 1-1.073-.103 2.285 2.285 0 0 1-.691-.245 1.22 1.22 0 0 1-.613-1.066c0-.384.143-.713.43-.988.212-.2.505-.358.88-.473a4.175 4.175 0 0 1 1.23-.173c.364 0 .702.036 1.014.108.312.072.664.196 1.057.371a.65.65 0 0 0 .163.056c.048 0 .113-.053.195-.16l.112.056zM71.744 32.225c.958 0 1.731.25 2.318.75.329.277.576.616.74 1.018.136.33.204.685.204 1.066 0 .515-.148.998-.442 1.447a2.722 2.722 0 0 1-1.35 1.074c-.43.164-.918.246-1.462.246-.953 0-1.722-.25-2.306-.75a2.696 2.696 0 0 1-.943-2.053c0-.536.146-1.03.438-1.482.318-.489.77-.845 1.354-1.07.408-.156.892-.238 1.45-.246zm0 .543c-.815 0-1.46.227-1.935.682-.436.417-.653.942-.653 1.573 0 .635.217 1.16.653 1.578.472.454 1.12.682 1.943.682.826 0 1.476-.228 1.951-.682.433-.417.65-.933.65-1.546 0-.663-.217-1.198-.65-1.605a2.262 2.262 0 0 0-.836-.512 3.583 3.583 0 0 0-1.123-.17zM76.837 32.788v2.992c0 .355.02.604.056.748a.75.75 0 0 0 .231.374c.284.254.814.38 1.59.38.843 0 1.397-.148 1.66-.447a.78.78 0 0 0 .175-.359c.03-.139.044-.37.044-.696v-2.992c0-.108-.018-.186-.052-.232-.035-.046-.102-.082-.203-.109v-.127h1.079v.127c-.1.024-.169.059-.203.105-.035.046-.052.125-.052.236v3.115c0 .384-.037.676-.112.876-.138.36-.397.624-.778.793-.381.17-.909.254-1.583.254-1.009 0-1.7-.194-2.07-.583a1.289 1.289 0 0 1-.317-.533c-.06-.2-.09-.468-.09-.807v-3.115c0-.111-.017-.19-.052-.236-.034-.046-.102-.081-.203-.105v-.127h1.135v.127c-.1.026-.169.063-.203.11-.034.045-.052.123-.052.231zM84.922 32.835v4.428c0 .108.017.186.051.232.035.046.103.082.204.109v.127H84.04v-.127c.101-.027.169-.062.204-.107.034-.045.051-.123.051-.234v-4.428h-1.84c-.111 0-.19.017-.236.05-.047.034-.082.102-.106.204h-.127v-1.022h.127c.024.101.06.169.106.202.046.034.125.051.237.051h4.304c.112 0 .19-.017.237-.05.047-.034.082-.102.106-.203h.127v1.022h-.127c-.024-.102-.06-.17-.106-.203-.046-.034-.125-.05-.237-.05h-1.84zM88.792 37.215h3.473c.111 0 .19-.017.237-.051.046-.035.081-.102.105-.202h.128v1.022h-.128c-.024-.1-.059-.168-.105-.202-.047-.034-.126-.052-.237-.052h-4.353v-.126c.104-.027.172-.062.205-.107s.05-.123.05-.234v-4.475c0-.111-.017-.189-.052-.234-.034-.045-.102-.08-.203-.107v-.127h1.135v.127c-.1.026-.169.062-.203.107-.035.045-.052.123-.052.234v4.427zM94.324 35.206v2.01h3.484c.112 0 .19-.018.237-.052.047-.035.082-.102.106-.202h.127v1.022h-.127c-.027-.1-.063-.168-.11-.202-.046-.034-.125-.052-.236-.052h-4.361v-.126c.103-.027.171-.062.205-.107.033-.045.05-.123.05-.234v-4.475c0-.111-.018-.189-.052-.234-.035-.045-.103-.08-.204-.107v-.127h4.313c.112 0 .19-.017.235-.05.045-.035.081-.102.108-.204h.127v1.023H98.1c-.024-.1-.06-.166-.106-.201s-.125-.053-.237-.053h-3.432v1.855h2.25c.111 0 .19-.017.237-.051.046-.034.081-.102.105-.202h.128v1.022h-.128c-.024-.1-.06-.168-.106-.202s-.125-.052-.236-.052h-2.25zM101.73 32.835v4.428c0 .108.018.186.052.232.035.046.103.082.204.109v.127h-1.135v-.127c.1-.027.168-.062.203-.107.034-.045.052-.123.052-.234v-4.428h-1.84c-.112 0-.19.017-.237.05-.047.034-.082.102-.106.204h-.127v-1.022h.127c.024.101.06.169.106.202.046.034.125.051.237.051h4.304c.112 0 .19-.017.237-.05.047-.034.082-.102.106-.203h.127v1.022h-.127c-.024-.102-.06-.17-.106-.203-.046-.034-.125-.05-.237-.05h-1.84z" stroke="#4A4A4A" stroke-width=".5" fill="#4A4A4A"/><path fill="#4A4A4A" d="M9.041 25.521h13.433v1H9.041zM116.744 25.521h13.433v1h-13.433z"/></g></svg>