<svg xmlns="http://www.w3.org/2000/svg" viewBox="-20729.486 -16873 46.199 65.025"><defs><style>.cls-1,.cls-2{fill:none;stroke:#2a3052;stroke-width:4px}.cls-2{fill:#41479b}.cls-3{fill:#ffe15a}.cls-4{fill:#2a3052}</style></defs><g id="Group_82" data-name="Group 82" transform="translate(-21372 -21585)"><path id="Path_107" data-name="Path 107" class="cls-1" d="M-21207.561-17961.016v62.068" transform="translate(21856.213 22674.947)"/><g id="Group_81" data-name="Group 81" transform="translate(648.706 4720.908)"><path id="Path_108" data-name="Path 108" class="cls-2" d="M-21320.322-17958l34.672 14.586-34.672 13.451z" transform="translate(21320.322 17958)"/><g id="Group_83" data-name="Group 83" transform="translate(4.464 8.752)"><path id="Path_111" data-name="Path 111" class="cls-3" d="M241.351 37.394l.145.44h.465a.063.063 0 0 1 .037.112l-.373.274.141.444a.063.063 0 0 1-.1.071l-.378-.27-.378.27a.062.062 0 0 1-.1-.071l.141-.444-.373-.274a.061.061 0 0 1 .037-.112h.465l.145-.44a.06.06 0 0 1 .126 0z" transform="translate(-235.836 -37.35)"/><path id="Path_112" data-name="Path 112" class="cls-3" d="M241.351 265.294l.145.44h.465a.063.063 0 0 1 .037.112l-.373.274.141.444a.063.063 0 0 1-.1.071l-.378-.27-.378.27a.062.062 0 0 1-.1-.071l.141-.444-.373-.274a.061.061 0 0 1 .037-.112h.465l.145-.44a.06.06 0 0 1 .126 0z" transform="translate(-235.836 -255.796)"/><path id="Path_113" data-name="Path 113" class="cls-3" d="M355.251 151.365l.145.44h.465a.063.063 0 0 1 .037.112l-.373.274.141.444a.063.063 0 0 1-.1.071l-.378-.27-.378.27a.062.062 0 0 1-.1-.071l.141-.444-.373-.274a.062.062 0 0 1 .037-.112h.465l.145-.44a.062.062 0 0 1 .126 0z" transform="translate(-345.011 -146.597)"/><path id="Path_114" data-name="Path 114" class="cls-3" d="M127.451 151.365l.145.44h.465a.063.063 0 0 1 .037.112l-.373.274.141.444a.063.063 0 0 1-.1.071l-.378-.27-.378.27a.062.062 0 0 1-.1-.071l.141-.444-.373-.274a.061.061 0 0 1 .037-.112h.465l.145-.44a.062.062 0 0 1 .126 0z" transform="translate(-126.662 -146.597)"/><path id="Path_115" data-name="Path 115" class="cls-3" d="M144.551 91.865l.145.44h.465a.063.063 0 0 1 .037.112l-.373.274.141.444a.063.063 0 0 1-.1.071l-.378-.27-.378.27a.062.062 0 0 1-.1-.071l.141-.444-.373-.274a.061.061 0 0 1 .037-.112h.465l.145-.44a.062.062 0 0 1 .126 0z" transform="translate(-143.052 -89.565)"/><path id="Path_116" data-name="Path 116" class="cls-3" d="M341.851 205.794l.145.44h.465a.063.063 0 0 1 .037.112l-.373.274.141.444a.063.063 0 0 1-.1.071l-.378-.27-.378.27a.062.062 0 0 1-.1-.071l.141-.444-.373-.274a.062.062 0 0 1 .037-.112h.465l.145-.44a.06.06 0 0 1 .126 0z" transform="translate(-332.167 -198.764)"/><path id="Path_117" data-name="Path 117" class="cls-3" d="M300.151 50.165l.145.44h.465a.063.063 0 0 1 .037.112l-.373.274.141.444a.063.063 0 0 1-.1.071l-.378-.27-.378.27a.062.062 0 0 1-.1-.071l.141-.444-.373-.274a.061.061 0 0 1 .037-.112h.465l.145-.44a.062.062 0 0 1 .126 0z" transform="translate(-292.197 -49.595)"/><path id="Path_118" data-name="Path 118" class="cls-3" d="M186.251 247.494l.145.44h.465a.063.063 0 0 1 .037.112l-.373.274.141.444a.063.063 0 0 1-.1.071l-.378-.27-.378.27a.062.062 0 0 1-.1-.071l.141-.444-.373-.274a.061.061 0 0 1 .037-.112h.465l.145-.44a.06.06 0 0 1 .126 0z" transform="translate(-183.022 -238.734)"/><path id="Path_119" data-name="Path 119" class="cls-3" d="M341.7 91.865l-.145.44h-.465a.063.063 0 0 0-.037.112l.373.274-.141.444a.063.063 0 0 0 .1.071l.378-.27.378.27a.062.062 0 0 0 .1-.071l-.141-.444.373-.274a.061.061 0 0 0-.037-.112h-.465l-.145-.44a.062.062 0 0 0-.126 0z" transform="translate(-332.138 -89.565)"/><path id="Path_120" data-name="Path 120" class="cls-3" d="M144.4 205.794l-.145.44h-.465a.063.063 0 0 0-.037.112l.373.274-.141.444a.063.063 0 0 0 .1.071l.378-.27.378.27a.062.062 0 0 0 .1-.071l-.141-.444.373-.274a.061.061 0 0 0-.037-.112h-.465l-.145-.44a.06.06 0 0 0-.126 0z" transform="translate(-143.023 -198.764)"/><path id="Path_121" data-name="Path 121" class="cls-3" d="M186.1 50.177l-.145.44h-.465a.063.063 0 0 0-.037.112l.373.274-.141.444a.063.063 0 0 0 .1.071l.378-.27.378.27a.062.062 0 0 0 .1-.071l-.141-.444.373-.274a.061.061 0 0 0-.037-.112h-.46l-.145-.44a.064.064 0 0 0-.131 0z" transform="translate(-182.993 -49.607)"/><path id="Path_122" data-name="Path 122" class="cls-3" d="M300 247.494l-.145.44h-.465a.063.063 0 0 0-.037.112l.373.274-.141.444a.063.063 0 0 0 .1.071l.378-.27.378.27a.062.062 0 0 0 .1-.071l-.141-.444.373-.274a.061.061 0 0 0-.037-.112h-.465l-.145-.44a.06.06 0 0 0-.126 0z" transform="translate(-292.168 -238.734)"/></g></g><circle id="Ellipse_13" data-name="Ellipse 13" class="cls-4" cx="3.897" cy="3.897" r="3.897" transform="translate(644.936 4712)"/><path id="Path_109" data-name="Path 109" class="cls-1" d="M642.514 4777.691h13" transform="translate(0 -2.666)"/></g></svg>