<svg xmlns="http://www.w3.org/2000/svg" viewBox="-21181 -20720 64 60.898">
  <defs>
    <style>
      .cls-1 {
        fill: #2a3052;
      }

      .cls-2 {
        fill: #e98024;
      }

      .cls-3 {
        fill: none;
        stroke: #2a3052;
        stroke-miterlimit: 10;
        stroke-width: 1.129px;
      }
    </style>
  </defs>
  <g id="Group_94" data-name="Group 94" transform="translate(-21181 -20720)">
    <g id="Group_93" data-name="Group 93">
      <path id="Path_131" data-name="Path 131" class="cls-1" d="M6.8,30Z" transform="translate(1.244 5.49)"/>
      <path id="Path_132" data-name="Path 132" class="cls-1" d="M37.145,16.089a2.062,2.062,0,0,1,.71,1.42v2.6H19.4v-2.6a1.686,1.686,0,0,1,.71-1.42,28.093,28.093,0,0,1,5.442-3.431.116.116,0,0,0,.118-.118V8.754a1.686,1.686,0,0,1-.71-1.42v-3.9A3.433,3.433,0,0,1,28.391,0h.355a3.433,3.433,0,0,1,3.431,3.431V7.216a1.844,1.844,0,0,1-.71,1.42V12.3a.116.116,0,0,0,.118.118A40.1,40.1,0,0,1,37.145,16.089Z" transform="translate(3.55)"/>
      <path id="Path_133" data-name="Path 133" class="cls-1" d="M56.263,49.67a2.062,2.062,0,0,1,.71,1.42v2.6H38.4v-2.6a1.686,1.686,0,0,1,.71-1.42,28.094,28.094,0,0,1,5.442-3.431.116.116,0,0,0,.118-.118V42.336a1.686,1.686,0,0,1-.71-1.42V37.131A3.433,3.433,0,0,1,47.391,33.7h.71a3.433,3.433,0,0,1,3.431,3.431v3.786a1.844,1.844,0,0,1-.71,1.42V46a.116.116,0,0,0,.118.118A29.207,29.207,0,0,1,56.263,49.67Z" transform="translate(7.027 6.167)"/>
      <path id="Path_134" data-name="Path 134" class="cls-1" d="M8.044,53.693H0v-2.6a1.686,1.686,0,0,1,.71-1.42A28.093,28.093,0,0,1,6.152,46.24a.116.116,0,0,0,.118-.118V42.336a1.686,1.686,0,0,1-.71-1.42V37.131A3.433,3.433,0,0,1,8.991,33.7H9.7a3.433,3.433,0,0,1,3.431,3.431v3.786a1.844,1.844,0,0,1-.71,1.42V46a.116.116,0,0,0,.118.118,28.093,28.093,0,0,1,5.442,3.431,2.062,2.062,0,0,1,.71,1.42v2.6H8.044Z" transform="translate(0 6.167)"/>
      <g id="Group_92" data-name="Group 92" transform="translate(20.821 27.254)">
        <path id="Path_135" data-name="Path 135" class="cls-2" d="M29.193,1015.4a11.593,11.593,0,1,0,11.593,11.593A11.612,11.612,0,0,0,29.193,1015.4Zm0,2.011a9.582,9.582,0,1,1-9.582,9.582A9.542,9.542,0,0,1,29.193,1017.411Zm0,2.011a.933.933,0,0,0-.946.946v.592a3.108,3.108,0,0,0-1.774.828,3.39,3.39,0,0,0-1.183,2.6,2.988,2.988,0,0,0,1.42,2.484,9.127,9.127,0,0,0,2.248.946c.946.355,2.366.71,2.366,1.538a1.284,1.284,0,0,1-.473,1.065,2.007,2.007,0,0,1-1.538.473,2.436,2.436,0,0,1-2.129-1.183,1.035,1.035,0,1,0-1.774,1.065,4.258,4.258,0,0,0,2.839,2.011v.592a.933.933,0,0,0,.946.946,1.018,1.018,0,0,0,.946-.946v-.592a3.108,3.108,0,0,0,1.774-.828,3.39,3.39,0,0,0,1.183-2.6,2.828,2.828,0,0,0-1.42-2.484,9.127,9.127,0,0,0-2.248-.946c-.946-.355-2.366-.71-2.366-1.538a1.153,1.153,0,0,1,.473-1.065,2.634,2.634,0,0,1,1.538-.473,2.436,2.436,0,0,1,2.129,1.183,1.035,1.035,0,0,0,1.774-1.065,4.259,4.259,0,0,0-2.839-2.011v-.592A.933.933,0,0,0,29.193,1019.422Z" transform="translate(-17.6 -1015.4)"/>
      </g>
    </g>
    <path id="Path_136" data-name="Path 136" class="cls-3" d="M7.9,31.979A23.207,23.207,0,0,1,17.719,16.6" transform="translate(1.446 3.038)"/>
    <path id="Path_137" data-name="Path 137" class="cls-3" d="M48.119,31.979A23.207,23.207,0,0,0,38.3,16.6" transform="translate(7.009 3.038)"/>
    <path id="Path_138" data-name="Path 138" class="cls-3" d="M19.3,49.573A22.67,22.67,0,0,0,37.518,49.1" transform="translate(3.532 8.985)"/>
  </g>
</svg>
