<svg width="34" height="34" viewBox="0 0 34 34" xmlns="http://www.w3.org/2000/svg"><title>reddit</title><g fill="none" fill-rule="evenodd"><circle fill="#FFF" cx="17.567" cy="17.567" r="14.167"/><path d="M17 34C7.611 34 0 26.389 0 17S7.611 0 17 0s17 7.611 17 17-7.611 17-17 17zm10.232-13.78a3.623 3.623 0 0 0 1.615-3.03c0-1.99-1.564-3.608-3.49-3.608-.675 0-1.3.205-1.836.55-1.658-.965-3.747-1.561-6.023-1.644l1.312-3.776 2.723.654c-.009.09-.025.178-.025.268a2.725 2.725 0 0 0 2.723 2.724 2.725 2.725 0 0 0 2.72-2.725 2.725 2.725 0 0 0-2.72-2.72 2.709 2.709 0 0 0-2.308 1.301l-3.896-.931-1.816 5.213c-2.269.118-4.337.752-5.961 1.738.03-.023.06-.051.093-.073a3.402 3.402 0 0 0-1.895-.578c-1.925 0-3.49 1.618-3.49 3.607 0 1.33.709 2.482 1.75 3.107.427 3.72 4.861 6.656 10.258 6.656 5.43 0 9.89-2.973 10.268-6.73l-.002-.002z" fill="#FF1A00"/><path d="M14.955 18.49a1.612 1.612 0 1 1-3.222.084 1.612 1.612 0 0 1 3.222-.085zm6.92.003a1.608 1.608 0 1 1-3.216 0 1.608 1.608 0 0 1 3.217 0zM20.01 22.07c-3.41 2.247-6.16.125-6.285.034a.605.605 0 0 0-.756.944c.021.015 1.593 1.253 3.876 1.253 1.133 0 2.448-.306 3.833-1.22a.603.603 0 0 0 .17-.84.603.603 0 0 0-.838-.171z" fill="#FF1A00"/></g></svg>