<svg width="34" height="34" viewBox="0 0 34 34" xmlns="http://www.w3.org/2000/svg"><title>telegram</title><g fill="none" fill-rule="evenodd"><circle fill="#FFF" cx="16.433" cy="17.567" r="14.167"/><path d="M14.46 20.324c.458.34.917.683 1.377 1.027l-1.44 1.42c-.044.045-.085.094-.13.14l.023-.313c.057-.758.111-1.517.17-2.274zm3.773-6.68c-2.335 1.47-4.666 2.946-7 4.417-.047.03-.1.052-.151.076l.915 2.933c.218.688.444 1.375.65 2.065.085.286.232.44.544.385.085-1.168.168-2.337.256-3.506.01-.136.026-.276.043-.412-.133-.076-.075-.22-.028-.268l.241-.252.086-.08c.041-.042.08-.086.12-.126l.578-.544c.41-.386.821-.769 1.236-1.148.775-.705 1.566-1.393 2.342-2.095.99-.895 1.977-1.794 2.957-2.698.073-.101.12-.23.182-.34-.176.024-.381-.005-.522.077-.825.492-1.636 1.003-2.45 1.515h.001zm15.676 3.31c0 9.364-7.59 16.955-16.954 16.955S0 26.32 0 16.955 7.59 0 16.955 0c9.363 0 16.954 7.59 16.954 16.955zM24.525 10.2c-.009-.065-.014-.131-.028-.195-.148-.72-.544-.937-1.249-.696-.104.035-.21.058-.315.086-.394.164-.783.337-1.183.488-.662.249-1.33.482-2 .723-.406.17-.81.347-1.221.507-1.03.403-2.06.797-3.092 1.196L9.07 14.763c-.476.183-.958.358-1.43.555-.415.17-.839.337-1.22.567-.17.102-.356.368-.336.538.019.17.28.317.442.47.028.029.078.038.12.05l3.375 1.043c-.006.12.01.242.045.357l.408 1.312.539 1.723.189.592c.153.48.312.974.455 1.46.316 1.052 1.166 1.134 1.417 1.134.039 0 .08-.004.118-.005l.117.003c.65 0 1.066-.357 1.314-.572.046-.04.091-.077.122-.102a.938.938 0 0 0 .141-.125l.093-.102c.054-.058.102-.114.145-.156l1.134-1.12.447-.443.19.13c1.02.762 2.04 1.529 3.064 2.286.764.565 1.298.419 1.668-.445l.47-2.185.427-2.176.272-1.195.714-3.368.23-1.074c.018-.085.04-.17.057-.256.244-1.154.487-2.306.728-3.459z" fill="#00AAE4" fill-rule="nonzero"/></g></svg>