<svg width="42" height="24" viewBox="0 0 42 24" xmlns="http://www.w3.org/2000/svg" xmlns:xlink="http://www.w3.org/1999/xlink"><title>rise_fall_off</title><defs><circle id="a" cx="12" cy="12" r="12"/><circle id="b" cx="12" cy="12" r="12"/></defs><g fill="none" fill-rule="evenodd"><g transform="translate(18)"><use fill="#FFF" xlink:href="#a"/><circle stroke="#2A3052" cx="12" cy="12" r="11.5"/></g><g><use fill="#FFF" xlink:href="#b"/><circle stroke="#2A3052" cx="12" cy="12" r="11.5"/></g><g fill-rule="nonzero" fill="#2A3052"><path d="M33.62 16.325a.5.5 0 0 0 .76-.65l-6-7a.5.5 0 0 0-.692-.065l-2.5 2a.5.5 0 0 0 .624.78l2.123-1.698 5.685 6.633z"/><path d="M34 16h-1.5a.5.5 0 1 0 0 1h2a.5.5 0 0 0 .5-.5v-2a.5.5 0 1 0-1 0V16z"/></g><g fill="#2A3052"><g fill-rule="nonzero"><path d="M7.812 12.11a.5.5 0 0 0-.624.78l2.5 2a.5.5 0 0 0 .68-.05l6-6.5a.5.5 0 0 0-.735-.68L9.949 13.82l-2.137-1.71z"/><path d="M16 8v1.5a.5.5 0 1 0 1 0v-2a.5.5 0 0 0-.5-.5h-2a.5.5 0 1 0 0 1H16z"/></g></g></g></svg>