<?xml version="1.0" encoding="UTF-8"?>
<svg width="299px" height="197px" viewBox="0 0 299 197" version="1.1" xmlns="http://www.w3.org/2000/svg" xmlns:xlink="http://www.w3.org/1999/xlink">
    <!-- Generator: Sketch 52.6 (67491) - http://www.bohemiancoding.com/sketch -->
    <title>close low</title>
    <desc>Created with Sketch.</desc>
    <g id="Page-1" stroke="none" stroke-width="1" fill="none" fill-rule="evenodd">
        <g id="close-low">
            <g id="Group">
                <polygon id="Shape" fill="#F1F2F2" points="0 0 299 0 299 197 0 197"></polygon>
                <path d="M1.98671096,1.9798995 L1.98671096,195.020101 L297.013289,195.020101 L297.013289,1.9798995 L1.98671096,1.9798995 Z M299,0 L299,197 L0,197 L0,0 L299,0 Z" id="Shape" fill="#C2C2C2" fill-rule="nonzero"></path>
                <path d="M4.887,56.1681983 L4.887,54.9623677 L294.54325,54.9623677 L294.54325,56.1681983 L4.887,56.1681983 Z M4.887,96.4974436 L4.887,95.291613 L294.54325,95.291613 L294.54325,96.4974436 L4.887,96.4974436 Z M4.887,136.826689 L4.887,135.620859 L294.54325,135.620859 L294.54325,136.826689 L4.887,136.826689 Z M4.887,177.118764 L4.887,175.912934 L294.54325,175.912934 L294.54325,177.118764 L4.887,177.118764 Z M39.2670847,35.4192453 L40.4729153,35.4192453 L40.4729153,194.283019 L39.2670847,194.283019 L39.2670847,35.4192453 Z M75.9319597,35.4192453 L77.1377903,35.4192453 L77.1377903,194.283019 L75.9319597,194.283019 L75.9319597,35.4192453 Z M112.55946,35.4192453 L113.76529,35.4192453 L113.76529,194.283019 L112.55946,194.283019 L112.55946,35.4192453 Z M149.224335,35.4192453 L150.430165,35.4192453 L150.430165,194.283019 L149.224335,194.283019 L149.224335,35.4192453 Z M185.851835,35.4192453 L187.057665,35.4192453 L187.057665,194.283019 L185.851835,194.283019 L185.851835,35.4192453 Z M222.479335,35.4192453 L223.685165,35.4192453 L223.685165,194.283019 L222.479335,194.283019 L222.479335,35.4192453 Z M4.887,116.643481 L4.887,115.437651 L294.54325,115.437651 L294.54325,116.643481 L4.887,116.643481 Z" id="Shape-2" fill="#DFDEDE" fill-rule="nonzero"></path>
                <path d="M4.887,72.5954004 L4.887,71.4676184 L12.3557552,71.4676184 L12.3557552,72.5954004 L4.887,72.5954004 Z M19.8245105,72.5954004 L19.8245105,71.4676184 L27.2932657,71.4676184 L27.2932657,72.5954004 L19.8245105,72.5954004 Z M34.762021,72.5954004 L34.762021,71.4676184 L42.2307762,71.4676184 L42.2307762,72.5954004 L34.762021,72.5954004 Z M49.6995315,72.5954004 L49.6995315,71.4676184 L57.1682867,71.4676184 L57.1682867,72.5954004 L49.6995315,72.5954004 Z M64.637042,72.5954004 L64.637042,71.4676184 L72.1057972,71.4676184 L72.1057972,72.5954004 L64.637042,72.5954004 Z M79.5745525,72.5954004 L79.5745525,71.4676184 L87.0433077,71.4676184 L87.0433077,72.5954004 L79.5745525,72.5954004 Z M94.5120629,72.5954004 L94.5120629,71.4676184 L101.980818,71.4676184 L101.980818,72.5954004 L94.5120629,72.5954004 Z M109.449573,72.5954004 L109.449573,71.4676184 L116.918329,71.4676184 L116.918329,72.5954004 L109.449573,72.5954004 Z M124.387084,72.5954004 L124.387084,71.4676184 L131.855839,71.4676184 L131.855839,72.5954004 L124.387084,72.5954004 Z M139.324594,72.5954004 L139.324594,71.4676184 L146.79335,71.4676184 L146.79335,72.5954004 L139.324594,72.5954004 Z M154.262105,72.5954004 L154.262105,71.4676184 L161.73086,71.4676184 L161.73086,72.5954004 L154.262105,72.5954004 Z M169.199615,72.5954004 L169.199615,71.4676184 L176.668371,71.4676184 L176.668371,72.5954004 L169.199615,72.5954004 Z M184.137126,72.5954004 L184.137126,71.4676184 L191.605881,71.4676184 L191.605881,72.5954004 L184.137126,72.5954004 Z M199.074636,72.5954004 L199.074636,71.4676184 L206.543392,71.4676184 L206.543392,72.5954004 L199.074636,72.5954004 Z M214.012147,72.5954004 L214.012147,71.4676184 L221.480902,71.4676184 L221.480902,72.5954004 L214.012147,72.5954004 Z M228.949657,72.5954004 L228.949657,71.4676184 L236.418413,71.4676184 L236.418413,72.5954004 L228.949657,72.5954004 Z M243.887168,72.5954004 L243.887168,71.4676184 L251.355923,71.4676184 L251.355923,72.5954004 L243.887168,72.5954004 Z M258.824678,72.5954004 L258.824678,71.4676184 L266.293434,71.4676184 L266.293434,72.5954004 L258.824678,72.5954004 Z M273.762189,72.5954004 L273.762189,71.4676184 L281.230944,71.4676184 L281.230944,72.5954004 L273.762189,72.5954004 Z M288.699699,72.5954004 L288.699699,71.4676184 L294.54325,71.4676184 L294.54325,72.5954004 L288.699699,72.5954004 Z" id="Shape-3" fill="#15212D" fill-rule="nonzero"></path>
                <polygon id="Path" fill="#2A3052" fill-rule="nonzero" points="240.45671 35.4192453 241.66254 35.4192453 241.66254 194.283019 240.45671 194.283019"></polygon>
                <path d="M4.887,164.367665 L4.887,163.239883 L12.3557552,163.239883 L12.3557552,164.367665 L4.887,164.367665 Z M19.8245105,164.367665 L19.8245105,163.239883 L27.2932657,163.239883 L27.2932657,164.367665 L19.8245105,164.367665 Z M34.762021,164.367665 L34.762021,163.239883 L42.2307762,163.239883 L42.2307762,164.367665 L34.762021,164.367665 Z M49.6995315,164.367665 L49.6995315,163.239883 L57.1682867,163.239883 L57.1682867,164.367665 L49.6995315,164.367665 Z M64.637042,164.367665 L64.637042,163.239883 L72.1057972,163.239883 L72.1057972,164.367665 L64.637042,164.367665 Z M79.5745525,164.367665 L79.5745525,163.239883 L87.0433077,163.239883 L87.0433077,164.367665 L79.5745525,164.367665 Z M94.5120629,164.367665 L94.5120629,163.239883 L101.980818,163.239883 L101.980818,164.367665 L94.5120629,164.367665 Z M109.449573,164.367665 L109.449573,163.239883 L116.918329,163.239883 L116.918329,164.367665 L109.449573,164.367665 Z M124.387084,164.367665 L124.387084,163.239883 L131.855839,163.239883 L131.855839,164.367665 L124.387084,164.367665 Z M139.324594,164.367665 L139.324594,163.239883 L146.79335,163.239883 L146.79335,164.367665 L139.324594,164.367665 Z M154.262105,164.367665 L154.262105,163.239883 L161.73086,163.239883 L161.73086,164.367665 L154.262105,164.367665 Z M169.199615,164.367665 L169.199615,163.239883 L176.668371,163.239883 L176.668371,164.367665 L169.199615,164.367665 Z M184.137126,164.367665 L184.137126,163.239883 L191.605881,163.239883 L191.605881,164.367665 L184.137126,164.367665 Z M199.074636,164.367665 L199.074636,163.239883 L206.543392,163.239883 L206.543392,164.367665 L199.074636,164.367665 Z M214.012147,164.367665 L214.012147,163.239883 L221.480902,163.239883 L221.480902,164.367665 L214.012147,164.367665 Z M228.949657,164.367665 L228.949657,163.239883 L236.418413,163.239883 L236.418413,164.367665 L228.949657,164.367665 Z M243.887168,164.367665 L243.887168,163.239883 L251.355923,163.239883 L251.355923,164.367665 L243.887168,164.367665 Z M258.824678,164.367665 L258.824678,163.239883 L266.293434,163.239883 L266.293434,164.367665 L258.824678,164.367665 Z M273.762189,164.367665 L273.762189,163.239883 L281.230944,163.239883 L281.230944,164.367665 L273.762189,164.367665 Z M288.699699,164.367665 L288.699699,163.239883 L294.54325,163.239883 L294.54325,164.367665 L288.699699,164.367665 Z" id="Path-2" fill="#15212D" fill-rule="nonzero"></path>
                <polygon id="Shape-4" fill="#C2C2C2" fill-rule="nonzero" points="2.794 35.4358286 2.794 33.023794 296.63625 33.023794 296.63625 35.4358286"></polygon>
                <path d="M56.6412045,102.228668 L21.9184493,117.693023 C21.0058223,118.099477 19.9364962,117.689142 19.5300426,116.776515 C19.123589,115.863888 19.5339236,114.794562 20.4465507,114.388109 L56.1920007,98.4682786 C56.8186454,98.1891919 57.5492377,98.2885757 58.0785624,98.7249108 L82.6943534,119.016303 L119.638733,41.2259873 C120.326397,39.7780365 122.418251,39.873755 122.970809,41.3784555 L166.248555,159.230425 L193.157061,102.18506 C193.2951,101.892421 193.509104,101.642163 193.776768,101.46037 L239.807817,70.196842 C240.634268,69.6355301 241.759272,69.8504679 242.320584,70.676919 C242.881896,71.5033701 242.666958,72.6283744 241.840507,73.1896864 L196.218312,104.175527 L167.676577,164.683298 C166.991747,166.13512 164.895812,166.041977 164.342466,164.535129 L121.059235,46.6682254 L84.9674046,122.663409 C84.4622096,123.72715 83.0914543,124.032248 82.1827751,123.283202 L56.6412045,102.228668 Z" id="Shape-5" fill="#2A3052" fill-rule="nonzero"></path>
                <g opacity="0.6" transform="translate(232.725000, 61.471698)" fill="#FFFFFF" id="Oval">
                    <ellipse cx="8.334625" cy="9.2588679" rx="8.110375" ry="8.40037736"></ellipse>
                </g>
                <path d="M241.059625,80.3369606 C235.904659,80.3369606 231.743233,76.0267348 231.743233,70.730566 C231.743233,65.4343972 235.904659,61.1241714 241.059625,61.1241714 C246.214591,61.1241714 250.376017,65.4343972 250.376017,70.730566 C250.376017,76.0267348 246.214591,80.3369606 241.059625,80.3369606 Z M241.059625,77.9249261 C244.863132,77.9249261 247.963983,74.7131979 247.963983,70.730566 C247.963983,66.7479341 244.863132,63.5362059 241.059625,63.5362059 C237.256118,63.5362059 234.155267,66.7479341 234.155267,70.730566 C234.155267,74.7131979 237.256118,77.9249261 241.059625,77.9249261 Z" id="Oval-2" fill="#E88024" fill-rule="nonzero"></path>
                <g id="Group-2" opacity="0.6" transform="translate(157.975000, 154.396226)" fill="#FFFFFF">
                    <ellipse id="Oval-3" cx="8.110375" cy="9.2588679" rx="8.110375" ry="8.40037736"></ellipse>
                </g>
                <path d="M166.085375,173.261489 C160.930409,173.261489 156.768983,168.951263 156.768983,163.655094 C156.768983,158.358925 160.930409,154.048699 166.085375,154.048699 C171.240341,154.048699 175.401767,158.358925 175.401767,163.655094 C175.401767,168.951263 171.240341,173.261489 166.085375,173.261489 Z M166.085375,170.849454 C169.888882,170.849454 172.989733,167.637726 172.989733,163.655094 C172.989733,159.672462 169.888882,156.460734 166.085375,156.460734 C162.281868,156.460734 159.181017,159.672462 159.181017,163.655094 C159.181017,167.637726 162.281868,170.849454 166.085375,170.849454 Z" id="Oval-4" fill="#E88024" fill-rule="nonzero"></path>
            </g>
            <path d="M18.652,133.673 C18.621,133.521 18.621,133.4 18.621,133.248 C18.4011896,133.553304 18.1223526,133.811399 17.801,134.007 C17.4742717,134.212182 17.0947394,134.317492 16.709,134.31 C16.072,134.31 15.586,134.158 15.252,133.794 C14.9007001,133.428693 14.7145549,132.935317 14.737,132.429 C14.737,131.822 14.979,131.367 15.465,131.033 C15.95,130.699 16.588,130.517 17.407,130.517 L18.621,130.517 L18.621,129.91 C18.621,129.546 18.5,129.242 18.287,129.03 C18.075,128.817 17.741,128.696 17.347,128.696 C16.982,128.696 16.679,128.787 16.467,128.969 C16.2636434,129.132357 16.1416713,129.376301 16.133,129.637 L15.07,129.637 L15.07,129.607 C15.04,129.151 15.252,128.727 15.708,128.362 C16.163,127.998 16.739,127.786 17.438,127.786 C18.135,127.786 18.712,127.968 19.137,128.332 C19.562,128.696 19.774,129.212 19.774,129.88 L19.774,132.884 C19.774,133.096 19.774,133.309 19.804,133.521 C19.834,133.734 19.865,133.946 19.926,134.128 L18.742,134.128 L18.742,134.188 C18.712,134.007 18.682,133.825 18.652,133.673 Z M16.814,133.309 C17.209,133.309 17.604,133.218 17.907,133.005 C18.241,132.793 18.453,132.55 18.544,132.277 L18.544,131.276 L17.3,131.276 C16.845,131.276 16.48,131.396 16.207,131.609 C15.954045,131.805183 15.8081018,132.108922 15.813,132.429 C15.8097029,132.673569 15.8961545,132.910866 16.056,133.096 C16.238,133.218 16.481,133.309 16.814,133.309 Z M31.432,133.643 C31.402,133.491 31.402,133.37 31.402,133.218 C31.1821896,133.523304 30.9033526,133.781399 30.582,133.977 C30.2552717,134.182182 29.8757394,134.287492 29.49,134.28 C28.853,134.28 28.368,134.128 28.034,133.764 C27.6823354,133.398858 27.4958211,132.905463 27.518,132.399 C27.518,131.792 27.761,131.337 28.246,131.003 C28.732,130.669 29.369,130.487 30.188,130.487 L31.402,130.487 L31.402,129.88 C31.402,129.516 31.281,129.212 31.068,129 C30.856,128.787 30.522,128.666 30.128,128.666 C29.763,128.666 29.46,128.757 29.248,128.939 C29.0446434,129.102357 28.9226713,129.346301 28.914,129.607 L27.852,129.607 L27.852,129.577 C27.822,129.121 28.034,128.697 28.489,128.332 C28.944,127.968 29.521,127.756 30.219,127.756 C30.917,127.756 31.493,127.938 31.919,128.302 C32.343,128.666 32.555,129.182 32.555,129.85 L32.555,132.854 C32.555,133.066 32.555,133.279 32.585,133.491 C32.616,133.704 32.646,133.916 32.707,134.098 L31.524,134.098 L31.524,134.158 C31.494,133.977 31.463,133.795 31.433,133.643 L31.432,133.643 Z M29.596,133.279 C29.99,133.279 30.385,133.188 30.688,132.975 C31.022,132.763 31.234,132.52 31.325,132.247 L31.325,131.246 L30.082,131.246 C29.627,131.246 29.262,131.366 28.99,131.579 C28.7366693,131.774976 28.5903401,132.078748 28.595,132.399 C28.5917029,132.643569 28.6781545,132.880866 28.838,133.066 C29.02,133.188 29.263,133.279 29.597,133.279 L29.596,133.279 Z M42.839,127.918 C43.524,127.881 44.389,128.118 44.875,128.61 C45.411,129.154 45.794,129.831 45.794,130.948 C45.794,131.938 45.596,132.652 45.129,133.23 C44.599,133.883 43.777,134.182 43.109,134.182 C42.416,134.182 41.664,134.072 41.033,133.489 C40.516,133.011 40.038,132.193 40.085,131.049 C40.138,129.787 40.545,129.067 41.033,128.61 C41.526,128.149 42.106,127.958 42.839,127.918 Z M43.085,128.744 C42.3,128.744 41.351,129.256 41.351,130.844 C41.351,132.433 41.936,133.378 42.989,133.378 C44.041,133.378 44.732,132.309 44.625,130.845 C44.519,129.38 43.87,128.745 43.085,128.745 L43.085,128.744 Z M12.1,125.889 L13.203,125.889 L13.203,134.062 L12.1,134.062 L12.1,130.441 L8.102,130.441 L8.102,134.061 L7,134.061 L7,125.889 L8.102,125.889 L8.102,129.603 L12.099,129.603 L12.1,125.889 Z M21.242,127.962 C21.516,127.964 21.873,127.964 22.312,127.962 L22.312,129.809 C22.31,131.062 23.192,131.466 24.956,131.021 L24.976,128.018 L26.063,128.018 L26.063,134.03 L24.976,134.03 C24.983,133.154 24.983,132.432 24.976,131.864 C23.828,132.175 22.116,132.196 21.512,131.024 C21.265,130.545 21.246,130.092 21.242,129.656 C21.2353144,129.091353 21.2353144,128.526647 21.242,127.962 Z M33.418,133.121 C33.426,133.38 33.388,133.597 33.388,134.062 C35.89,134.22 35.922,132.042 35.816,128.869 L37.846,128.865 L37.846,134.106 L38.939,134.106 L38.939,128.005 C37.223,127.98 35.809,127.98 34.696,128.005 C34.62,130.373 35.18,133.251 33.418,133.121 Z" id="Shape" fill="#2A3052" fill-rule="nonzero"></path>
            <path d="M248.268,53.931 C248.769,53.931 249.14,53.837 249.38,53.649 C249.62,53.46 249.739,53.2 249.739,52.868 C249.739,52.564 249.608,52.312 249.346,52.111 C249.084,51.91 248.699,51.809 248.191,51.809 C247.789,51.809 247.453,51.906 247.183,52.099 C246.913,52.292 246.778,52.536 246.778,52.829 L245.657,52.829 L245.647,52.801 C245.628,52.229 245.866,51.765 246.361,51.409 C246.856,51.053 247.466,50.875 248.191,50.875 C249.028,50.875 249.689,51.047 250.172,51.392 C250.656,51.737 250.898,52.229 250.898,52.868 C250.898,53.188 250.793,53.479 250.582,53.745 C250.372,54.01 250.081,54.217 249.71,54.367 C250.129,54.505 250.45,54.712 250.673,54.987 C250.897,55.264 251.009,55.6 251.009,55.997 C251.009,56.638 250.749,57.142 250.228,57.506 C249.707,57.87 249.028,58.052 248.191,58.052 C247.466,58.052 246.841,57.881 246.313,57.539 C245.786,57.197 245.531,56.699 245.547,56.044 L245.557,56.016 L246.677,56.016 C246.677,56.329 246.819,56.591 247.101,56.804 C247.384,57.016 247.747,57.122 248.191,57.122 C248.702,57.122 249.106,57.018 249.401,56.809 C249.697,56.599 249.844,56.33 249.844,56.001 C249.844,55.611 249.712,55.323 249.447,55.136 C249.182,54.95 248.789,54.856 248.268,54.856 L247.362,54.856 L247.362,53.931 L248.268,53.931 Z M255.311,57.951 C255.270789,57.8249871 255.236419,57.6971843 255.208,57.568 C255.181078,57.4447482 255.162701,57.3197842 255.153,57.194 C254.991478,57.4416444 254.776983,57.6503335 254.525,57.805 C254.262431,57.9697974 253.957981,58.0555436 253.648,58.052 C253.108,58.052 252.694,57.912 252.405,57.635 C252.116,57.357 251.972,56.975 251.972,56.49 C251.972,55.988 252.17,55.598 252.566,55.318 C252.962,55.039 253.519,54.899 254.238,54.899 L255.143,54.899 L255.143,54.444 C255.143,54.173 255.064,53.96 254.906,53.807 C254.748,53.654 254.519,53.577 254.219,53.577 C253.954,53.577 253.743,53.64 253.586,53.767 C253.434207,53.883673 253.34696,54.0655909 253.351,54.257 L252.231,54.262 L252.225,54.233 C252.203,53.824 252.386,53.462 252.775,53.146 C253.162,52.829 253.668,52.671 254.29,52.671 C254.894,52.671 255.381,52.825 255.752,53.131 C256.122,53.438 256.308,53.879 256.308,54.454 L256.308,56.758 C256.308,56.972 256.322,57.178 256.351,57.374 C256.379,57.57 256.426,57.763 256.49,57.951 L255.311,57.951 Z M253.888,57.118 C254.178,57.118 254.441,57.044 254.676,56.898 C254.911,56.75 255.066,56.583 255.143,56.394 L255.143,55.628 L254.219,55.628 C253.88,55.628 253.615,55.711 253.423,55.879 C253.232,56.047 253.136,56.244 253.136,56.471 C253.136,56.669 253.2,56.826 253.33,56.943 C253.46,57.059 253.645,57.118 253.888,57.118 Z M259.278,55.901 L258.751,55.901 L258.751,57.951 L257.591,57.951 L257.591,52.767 L258.751,52.767 L258.751,54.837 L259.158,54.837 L260.696,52.767 L262.138,52.767 L260.184,55.239 L262.297,57.951 L260.783,57.951 L259.278,55.901 Z M267.543,55.531 C267.543,56.286 267.366,56.894 267.011,57.357 C266.656,57.82 266.163,58.052 265.531,58.052 C265.237,58.052 264.976,57.999 264.75,57.894 C264.521169,57.7871234 264.320751,57.6278164 264.165,57.429 L264.165,59.944 L263.001,59.944 L263.001,52.767 L263.983,52.767 L264.098,53.419 C264.264,53.176 264.465,52.991 264.699,52.863 C264.934,52.735 265.206,52.671 265.516,52.671 C266.155,52.671 266.652,52.925 267.009,53.431 C267.365,53.937 267.543,54.604 267.543,55.431 L267.543,55.531 Z M266.383,55.431 C266.383,54.901 266.283,54.467 266.083,54.131 C265.90556,53.8064533 265.559598,53.6104214 265.19,53.625 C264.973475,53.6182742 264.759392,53.6723144 264.572,53.781 C264.403,53.884 264.267,54.029 264.165,54.214 L264.165,56.557 C264.267,56.739 264.403,56.879 264.572,56.977 C264.742,57.074 264.951,57.122 265.2,57.122 C265.596,57.122 265.892,56.976 266.089,56.684 C266.285,56.392 266.383,56.008 266.383,55.532 L266.383,55.432 L266.383,55.431 Z M269.886,54.573 L271.021,54.573 C271.673,54.573 272.183,54.728 272.552,55.038 C272.921,55.348 273.105,55.752 273.105,56.25 C273.105,56.752 272.92,57.16 272.55,57.477 C272.18,57.793 271.67,57.951 271.021,57.951 L268.721,57.951 L268.721,52.767 L269.886,52.767 L269.886,54.573 Z M274.979,57.951 L273.814,57.951 L273.814,52.767 L274.979,52.767 L274.979,57.951 Z M269.886,55.508 L269.886,57.022 L271.021,57.022 C271.334,57.022 271.566,56.951 271.716,56.809 C271.865116,56.6696972 271.947085,56.4729699 271.941,56.269 C271.94304,56.0665645 271.860809,55.8723968 271.714,55.733 C271.562,55.583 271.331,55.508 271.021,55.508 L269.886,55.508 Z M280.685,53.692 L278.999,53.692 L278.999,57.952 L277.834,57.952 L277.834,53.692 L276.177,53.692 L276.177,52.767 L280.685,52.767 L280.685,53.692 Z M284.753,52.767 L285.913,52.767 L285.913,57.951 L284.753,57.951 L284.753,54.511 L284.724,54.501 L282.721,57.951 L281.561,57.951 L281.561,52.767 L282.721,52.767 L282.721,56.202 L282.75,56.212 L284.753,52.767 Z M289.328,58.052 C288.571,58.052 287.98,57.813 287.553,57.336 C287.127,56.858 286.913,56.239 286.913,55.479 L286.913,55.287 C286.913,54.527 287.127,53.9 287.553,53.407 C287.98,52.913 288.53,52.668 289.203,52.671 C289.9,52.671 290.427,52.886 290.785,53.316 C291.143,53.746 291.321,54.32 291.321,55.038 L291.321,55.666 L288.116,55.666 L288.106,55.69 C288.119,56.115 288.231,56.46 288.442,56.725 C288.652,56.99 288.971,57.122 289.395,57.122 C289.712,57.122 289.985,57.084 290.217,57.007 C290.449,56.931 290.663,56.821 290.861,56.677 L291.24,57.439 C291.042,57.611 290.78,57.756 290.454,57.875 C290.091809,57.9990035 289.710769,58.0589006 289.328,58.052 Z M289.204,53.606 C288.923113,53.5954958 288.653448,53.7168266 288.475,53.934 C288.293,54.153 288.18,54.438 288.135,54.789 L288.145,54.813 L290.172,54.813 L290.172,54.722 C290.172,54.39 290.094,54.121 289.939,53.915 C289.784,53.709 289.539,53.605 289.204,53.605 L289.204,53.606 Z" id="Shape" fill="#2A3052" fill-rule="nonzero"></path>
            <path d="M17.712,15.999 C18.295,15.999 18.728,15.883 19.01,15.653 C19.291,15.423 19.432,15.101 19.432,14.687 C19.432,14.329 19.276,14.031 18.965,13.795 C18.654,13.558 18.202,13.44 17.609,13.44 C17.144,13.44 16.758,13.552 16.451,13.776 C16.144,14 15.991,14.286 15.991,14.636 L14.18,14.636 L14.174,14.598 C14.148,13.826 14.47,13.2 15.139,12.72 C15.809,12.24 16.632,12 17.609,12 C18.743,12 19.641,12.23 20.302,12.691 C20.963,13.151 21.294,13.809 21.294,14.661 C21.294,15.088 21.154,15.478 20.878,15.832 C20.601,16.186 20.218,16.463 19.733,16.664 C20.283,16.847 20.705,17.122 20.999,17.489 C21.294,17.856 21.441,18.306 21.441,18.839 C21.441,19.696 21.087,20.368 20.379,20.854 C19.671,21.34 18.747,21.584 17.609,21.584 C16.628,21.584 15.781,21.355 15.069,20.899 C14.357,20.443 14.014,19.777 14.039,18.903 L14.046,18.865 L15.862,18.865 C15.862,19.227 16.025,19.532 16.352,19.779 C16.678,20.027 17.097,20.15 17.609,20.15 C18.214,20.15 18.693,20.026 19.045,19.776 C19.397,19.526 19.573,19.208 19.573,18.82 C19.573,18.33 19.416,17.97 19.103,17.742 C18.789,17.514 18.325,17.4 17.711,17.4 L16.451,17.4 L16.451,15.999 L17.711,15.999 L17.712,15.999 Z M26.846,21.449 C26.776187,21.2868105 26.717387,21.1200992 26.67,20.95 C26.6209197,20.7740428 26.5858106,20.5944848 26.565,20.413 C26.3770424,20.7456192 26.1170198,21.0319516 25.804,21.251 C25.488,21.472 25.113,21.583 24.678,21.583 C23.953,21.583 23.394,21.397 23.002,21.023 C22.609,20.65 22.413,20.142 22.413,19.498 C22.413,18.82 22.674,18.294 23.197,17.921 C23.719,17.548 24.481,17.361 25.484,17.361 L26.533,17.361 L26.533,16.811 C26.533,16.478 26.445,16.221 26.271,16.037 C26.096,15.854 25.836,15.762 25.491,15.762 C25.187,15.762 24.954,15.835 24.79,15.982 C24.625,16.13 24.543,16.332 24.543,16.587 L22.746,16.587 L22.733,16.549 C22.703,15.964 22.958,15.46 23.497,15.036 C24.037,14.611 24.742,14.399 25.612,14.399 C26.443,14.399 27.116,14.609 27.63,15.026 C28.144,15.444 28.4,16.043 28.4,16.824 L28.4,19.684 C28.4,20.008 28.425,20.312 28.474,20.598 C28.524,20.884 28.601,21.168 28.708,21.449 L26.846,21.449 Z M25.138,20.202 C25.462,20.202 25.752,20.121 26.008,19.958 C26.264,19.796 26.439,19.608 26.533,19.396 L26.533,18.416 L25.483,18.416 C25.087,18.416 24.787,18.515 24.585,18.711 C24.3860934,18.8982423 24.2756624,19.1608791 24.281,19.434 C24.281,19.668 24.357,19.855 24.508,19.994 C24.66,20.132 24.87,20.202 25.138,20.202 Z M32.495,18.858 L31.779,18.858 L31.779,21.449 L29.911,21.449 L29.911,14.527 L31.779,14.527 L31.779,17.163 L32.335,17.163 L33.922,14.527 L36.282,14.527 L33.992,17.739 L36.487,21.449 L33.998,21.449 L32.495,18.859 L32.495,18.858 Z M43.511,18.18 C43.511,19.204 43.274,20.027 42.801,20.65 C42.327,21.272 41.666,21.583 40.818,21.583 C40.455,21.583 40.133,21.516 39.852,21.382 C39.5673033,21.2450452 39.3194286,21.0420828 39.129,20.79 L39.129,24.11 L37.267,24.11 L37.267,14.527 L38.95,14.527 L39.058,15.347 C39.263,15.043 39.509,14.81 39.798,14.646 C40.1061002,14.476532 40.4534515,14.3913326 40.805,14.399 C41.662,14.399 42.327,14.734 42.801,15.404 C43.274,16.074 43.511,16.954 43.511,18.046 L43.511,18.18 Z M41.642,18.046 C41.642,17.393 41.533,16.864 41.316,16.459 C41.098,16.054 40.766,15.851 40.318,15.851 C40.0668733,15.8434907 39.8183009,15.9032171 39.598,16.024 C39.4,16.139 39.243,16.304 39.128,16.517 L39.128,19.549 C39.243,19.745 39.4,19.894 39.598,19.997 C39.796,20.099 40.041,20.15 40.331,20.15 C40.783,20.15 41.114,19.973 41.325,19.62 C41.536,19.265 41.642,18.786 41.642,18.18 L41.642,18.046 Z M46.772,16.766 L48.072,16.766 C49.001,16.766 49.732,16.981 50.265,17.409 C50.798,17.838 51.065,18.399 51.065,19.095 C51.065,19.799 50.798,20.367 50.265,20.8 C49.732,21.233 49.001,21.449 48.071,21.449 L44.898,21.449 L44.898,14.527 L46.772,14.527 L46.772,16.767 L46.772,16.766 Z M53.585,21.449 L51.717,21.449 L51.717,14.527 L53.585,14.527 L53.585,21.449 Z M46.772,18.199 L46.772,20.022 L48.072,20.022 C48.451,20.022 48.734,19.937 48.922,19.767 C49.1084565,19.5992347 49.2112987,19.3576838 49.203,19.107 C49.2087217,18.8599885 49.1060457,18.6228472 48.922,18.458 C48.734,18.286 48.451,18.199 48.072,18.199 L46.772,18.199 Z M61.416,15.954 L59.202,15.954 L59.202,21.449 L57.328,21.449 L57.328,15.954 L55.146,15.954 L55.146,14.526 L61.416,14.526 L61.416,15.953 L61.416,15.954 Z M66.533,14.527 L68.395,14.527 L68.395,21.449 L66.533,21.449 L66.533,17.227 L66.495,17.22 L64.237,21.449 L62.369,21.449 L62.369,14.527 L64.237,14.527 L64.237,18.737 L64.275,18.743 L66.533,14.527 Z M72.796,21.583 C71.764,21.583 70.958,21.267 70.378,20.633 C69.798,20 69.508,19.184 69.508,18.186 L69.508,17.931 C69.508,16.894 69.789,16.046 70.352,15.384 C70.915,14.724 71.689,14.395 72.675,14.399 C73.605,14.399 74.318,14.684 74.815,15.253 C75.311,15.823 75.56,16.589 75.56,17.553 L75.56,18.519 L71.434,18.519 L71.414,18.557 C71.444,19.031 71.588,19.415 71.846,19.709 C72.104,20.003 72.486,20.15 72.994,20.15 C73.412,20.15 73.767,20.108 74.06,20.022 C74.352,19.937 74.653,19.807 74.965,19.632 L75.47,20.784 C75.193,21.01 74.818,21.2 74.344,21.353 C73.871,21.507 73.354,21.583 72.796,21.583 Z M72.675,15.839 C72.299,15.839 72.01,15.968 71.808,16.226 C71.605,16.484 71.483,16.826 71.44,17.252 L71.453,17.284 L73.73,17.284 L73.73,17.144 C73.73,16.739 73.647,16.42 73.48,16.187 C73.314,15.955 73.046,15.839 72.675,15.839 Z M80.633,18.186 L76.865,18.186 L76.865,16.747 L80.633,16.747 L80.633,18.187 L80.633,18.186 Z M87.311,18.999 L87.35,18.999 L89.742,12.135 L92.18,12.135 L92.18,21.449 L90.312,21.449 L90.312,15.09 L90.273,15.084 L87.97,21.449 L86.704,21.449 L84.401,15.071 L84.362,15.077 L84.362,21.449 L82.494,21.449 L82.494,12.135 L84.944,12.135 L87.311,18.999 Z M97.886,14.527 L99.747,14.527 L99.747,21.449 L97.886,21.449 L97.886,17.227 L97.847,17.22 L95.589,21.449 L93.722,21.449 L93.722,14.527 L95.59,14.527 L95.59,18.737 L95.629,18.743 L97.887,14.527 L97.886,14.527 Z M107.13,21.449 L105.262,21.449 L105.262,18.762 L102.984,18.762 L102.984,21.449 L101.116,21.449 L101.116,14.527 L102.984,14.527 L102.984,17.329 L105.262,17.329 L105.262,14.527 L107.13,14.527 L107.13,21.449 Z M110.616,21.449 L108.748,21.449 L108.748,19.811 L110.616,19.811 L110.616,21.449 Z" id="Shape" fill="#020202" fill-rule="nonzero"></path>
            <path d="M158.36,183.472 L158.39,183.472 L160.492,177.881 L162.04,177.881 L162.04,185.15 L160.826,185.15 L160.826,179.927 L160.796,179.922 L158.794,185.15 L157.961,185.15 L155.924,179.823 L155.894,179.833 L155.894,185.15 L154.681,185.15 L154.681,177.88 L156.273,177.88 L158.36,183.472 Z M166.762,179.748 L167.971,179.748 L167.971,185.15 L166.762,185.15 L166.762,181.565 L166.732,181.555 L164.646,185.15 L163.437,185.15 L163.437,179.748 L164.646,179.748 L164.646,183.328 L164.676,183.338 L166.762,179.748 Z M173.757,185.15 L172.544,185.15 L172.544,182.968 L170.442,182.968 L170.442,185.15 L169.229,185.15 L169.229,179.748 L170.442,179.748 L170.442,181.999 L172.544,181.999 L172.544,179.748 L173.757,179.748 L173.757,185.15 Z M175.781,183.687 C175.986,183.687 176.17,183.759 176.323,183.902 C176.470537,184.047351 176.551886,184.246928 176.548,184.454 C176.545995,184.656982 176.465339,184.851274 176.323,184.996 C176.173694,185.128667 175.98073,185.201651 175.781,185.201 C175.583276,185.20898 175.391067,185.134775 175.25,184.996 C175.103707,184.853928 175.022333,184.657909 175.025,184.454 C175.025,184.229 175.096,184.045 175.25,183.902 C175.387173,183.75632 175.581115,183.677794 175.781,183.687 Z" id="Shape" fill="#2A3052" fill-rule="nonzero"></path>
        </g>
    </g>
</svg>