<?xml version="1.0" encoding="UTF-8"?>
<svg width="299px" height="197px" viewBox="0 0 299 197" version="1.1" xmlns="http://www.w3.org/2000/svg" xmlns:xlink="http://www.w3.org/1999/xlink">
    <!-- Generator: Sketch 53.1 (72631) - https://sketchapp.com -->
    <title>Down</title>
    <desc>Created with Sketch.</desc>
    <g id="Page-1" stroke="none" stroke-width="1" fill="none" fill-rule="evenodd">
        <g id="Down" fill-rule="nonzero">
            <polygon id="Path" fill="#F1F2F2" points="0 0 299 0 299 197 0 197"></polygon>
            <path d="M1.98671096,1.9798995 L1.98671096,195.020101 L297.013289,195.020101 L297.013289,1.9798995 L1.98671096,1.9798995 Z M299,0 L299,197 L0,197 L0,0 L299,0 Z" id="Path" fill="#C2C2C2"></path>
            <path d="M2.92614576,53.1129772 L2.92614576,51.8897746 L296.509938,51.8897746 L296.509938,53.1129772 L2.92614576,53.1129772 Z M2.92614576,73.7107247 L2.92614576,72.4875221 L296.509938,72.4875221 L296.509938,73.7107247 L2.92614576,73.7107247 Z M2.92614576,94.2705389 L2.92614576,93.0473363 L296.509938,93.0473363 L296.509938,94.2705389 L2.92614576,94.2705389 Z M2.92614576,135.4281 L2.92614576,134.204898 L296.509938,134.204898 L296.509938,135.4281 L2.92614576,135.4281 Z M2.92614576,155.987914 L2.92614576,154.764712 L296.509938,154.764712 L296.509938,155.987914 L2.92614576,155.987914 Z M2.92614576,176.547729 L2.92614576,175.324527 L296.509938,175.324527 L296.509938,176.547729 L2.92614576,176.547729 Z M37.7718902,31.9415617 L38.9950928,31.9415617 L38.9950928,194.068215 L37.7718902,194.068215 L37.7718902,31.9415617 Z M74.9339161,31.9415617 L76.1571187,31.9415617 L76.1571187,194.068215 L74.9339161,194.068215 L74.9339161,31.9415617 Z M112.05806,31.9415617 L113.281262,31.9415617 L113.281262,194.068215 L112.05806,194.068215 L112.05806,31.9415617 Z M149.220086,31.9415617 L150.443288,31.9415617 L150.443288,194.068215 L149.220086,194.068215 L149.220086,31.9415617 Z M186.34423,31.9415617 L187.567432,31.9415617 L187.567432,194.068215 L186.34423,194.068215 L186.34423,31.9415617 Z M223.468374,31.9415617 L224.691576,31.9415617 L224.691576,194.068215 L223.468374,194.068215 L223.468374,31.9415617 Z M260.6304,31.9415617 L261.853602,31.9415617 L261.853602,194.068215 L260.6304,194.068215 L260.6304,31.9415617 Z" id="Shape" fill="#DFDEDE"></path>
            <polygon id="Path" fill="#C2C2C2" points="1 30 1 28 298 28 298 30"></polygon>
            <path d="M188.521984,146.307379 L153.10252,146.307379 L147.647544,138 L142.192568,146.307379 L106.773104,146.307379 C104.121379,146.307379 102,148.469573 102,151.162833 L102,176.236703 C102,178.929962 104.159261,181.092157 106.773104,181.092157 L188.559866,181.092157 C191.211591,181.092157 193.33297,178.929962 193.33297,176.236703 L193.33297,151.162833 C193.33297,148.469573 191.173709,146.307379 188.521984,146.307379 Z" id="Path" fill="#E88024"></path>
            <g id="Group" transform="translate(5.000000, 91.000000)">
                <polygon id="Path" fill="#2A3052" points="0.261599031 25.4113925 0.261599031 23.9263261 288.612573 23.9263261 288.612573 25.4113925"></polygon>
                <path d="M70.1471752,50.4288505 C69.523214,51.1260532 68.471924,51.2357141 67.7175089,50.682291 L34.254469,26.1345071 C33.4450141,25.540708 33.2701905,24.4031458 33.8639897,23.5936908 C34.4577888,22.7842359 35.595351,22.6094123 36.404806,23.2032115 L68.5380371,46.7754756 L102.057762,9.32115955 C102.772989,8.52197849 104.02107,8.51254993 104.748289,9.30083411 L136.524331,43.7451276 L179.70331,1.12020327 C180.590968,0.24393585 182.077293,0.5015982 182.618208,1.6255161 L224.637241,88.9330431 L252.752096,64.0935584 C253.504429,63.4288713 254.653152,63.4999229 255.317839,64.2522566 C255.982526,65.0045902 255.911474,66.1533124 255.15914,66.8179994 L225.244406,93.2476778 C224.341207,94.0456547 222.925641,93.7597254 222.402983,92.6737402 L180.446103,5.49535477 L137.74023,47.6532439 C137.008654,48.3754328 135.824247,48.3477547 135.127204,47.5921809 L103.432679,13.2362492 L70.1471752,50.4288505 Z" id="Path" fill="#2A3052"></path>
                <ellipse id="Oval" fill="#FFFFFF" opacity="0.6" cx="35.3296375" cy="24.6688593" rx="8.06728138" ry="8.49574874"></ellipse>
                <path d="M35.3296375,34.3764223 C30.1905082,34.3764223 26.0505419,30.0165752 26.0505419,24.6688593 C26.0505419,19.3211434 30.1905082,14.9612963 35.3296375,14.9612963 C40.4687668,14.9612963 44.6087331,19.3211434 44.6087331,24.6688593 C44.6087331,30.0165752 40.4687668,34.3764223 35.3296375,34.3764223 Z M35.3296375,31.9527938 C39.1013811,31.9527938 42.1851047,28.7052883 42.1851047,24.6688593 C42.1851047,20.6324303 39.1013811,17.3849248 35.3296375,17.3849248 C31.5578939,17.3849248 28.4741703,20.6324303 28.4741703,24.6688593 C28.4741703,28.7052883 31.5578939,31.9527938 35.3296375,31.9527938 Z" id="Oval" fill="#E88024"></path>
                <ellipse id="Oval" fill="#FFFFFF" opacity="0.6" cx="253.955618" cy="64.8548794" rx="8.06728138" ry="8.49574874"></ellipse>
                <path d="M253.955618,74.5634323 C248.816489,74.5634323 244.676522,70.2035852 244.676522,64.8558693 C244.676522,59.5081534 248.816489,55.1483063 253.955618,55.1483063 C259.094747,55.1483063 263.234714,59.5081534 263.234714,64.8558693 C263.234714,70.2035852 259.094747,74.5634323 253.955618,74.5634323 Z M253.955618,72.1398038 C257.727362,72.1398038 260.811085,68.8922983 260.811085,64.8558693 C260.811085,60.8194403 257.727362,57.5719348 253.955618,57.5719348 C250.183874,57.5719348 247.100151,60.8194403 247.100151,64.8558693 C247.100151,68.8922983 250.183874,72.1398038 253.955618,72.1398038 Z" id="Oval" fill="#E88024"></path>
            </g>
            <path d="M259.346,132.301 C259.415,132.469 259.494,132.647 259.68,133.043 C258.276,134.113 256.66,133.967 255.906,133.525 C254.77,132.859 254.77,131.622 254.776,130.665 C254.783,129.445 255.68,127.175 258.177,127.175 C260.675,127.175 260.265,129.872 260.143,130.665 C259.888,130.665 258.511,130.69 256.012,130.74 C255.78,133.706 258.021,133.043 259.346,132.301 Z M259.196,129.916 C259.341,128.745 258.982,128.159 258.116,128.159 C256.819,128.159 256.364,129.534 256.219,129.916 L259.196,129.916 Z M246.86,124.998 L248.032,124.998 L246.86,132.857 L251.127,132.857 L252.297,124.998 L253.623,124.998 L252.297,132.857 L253.418,132.857 L252.997,135.956 L251.803,135.956 L252.087,133.827 L245.549,133.827 L246.86,124.998 Z M265.251,133.76 L266.428,133.76 L267.366,127.304 C265.879,127.324 264.364,127.324 262.821,127.304 C262.316,130.39 262.126,133.022 260.595,132.755 L260.427,133.76 C261.429,133.76 262.099,133.555 262.437,133.146 C263.673,131.646 263.614,129.52 263.827,128.198 L266.058,128.198 L265.251,133.76 Z M269.022,127.258 L270.136,127.258 C269.943,128.729 269.824,129.561 269.778,129.753 L271.82,129.753 C272.68,129.753 273.667,130.481 273.613,131.507 C273.533,133.009 272.179,133.787 271.112,133.787 L268.025,133.787 C268.231,132.083 268.563,129.907 269.022,127.258 Z M269.33,132.86 L271.06,132.86 C271.323,132.86 272.235,132.681 272.379,131.76 C272.522,130.84 271.615,130.661 271.384,130.661 L269.66,130.661 L269.33,132.861 L269.33,132.86 Z" id="Shape" fill="#6D6E71"></path>
            <path d="M113.083984,169 L113.083984,158.335938 L116.73877,158.335938 C117.94483,158.335938 118.86279,158.577634 119.492676,159.061035 C120.122562,159.544436 120.4375,160.264644 120.4375,161.22168 C120.4375,161.709963 120.305665,162.149412 120.041992,162.540039 C119.778319,162.930666 119.392581,163.233397 118.884766,163.448242 C119.46094,163.604493 119.906493,163.898679 120.221436,164.330811 C120.536379,164.762942 120.693848,165.281735 120.693848,165.887207 C120.693848,166.888189 120.372806,167.657224 119.730713,168.194336 C119.08862,168.731448 118.16944,169 116.973145,169 L113.083984,169 Z M114.937012,164.187988 L114.937012,167.520508 L116.995117,167.520508 C117.576175,167.520508 118.030272,167.376466 118.357422,167.088379 C118.684572,166.800292 118.848145,166.399905 118.848145,165.887207 C118.848145,164.778803 118.281744,164.212402 117.148926,164.187988 L114.937012,164.187988 Z M114.937012,162.825684 L116.753418,162.825684 C117.329593,162.825684 117.780028,162.69507 118.104736,162.433838 C118.429445,162.172606 118.591797,161.802737 118.591797,161.324219 C118.591797,160.796872 118.441652,160.416017 118.141357,160.181641 C117.841063,159.947264 117.373538,159.830078 116.73877,159.830078 L114.937012,159.830078 L114.937012,162.825684 Z M124.290039,163.594727 L126.033203,163.594727 C126.68262,163.594727 127.249021,163.70703 127.732422,163.931641 C128.215823,164.156251 128.583251,164.471189 128.834717,164.876465 C129.086183,165.28174 129.211914,165.752927 129.211914,166.290039 C129.211914,167.105473 128.923831,167.759763 128.347656,168.25293 C127.771481,168.746096 127.004888,168.995117 126.047852,169 L122.510254,169 L122.510254,161.075195 L124.290039,161.075195 L124.290039,163.594727 Z M132.310059,169 L130.530273,169 L130.530273,161.075195 L132.310059,161.075195 L132.310059,169 Z M124.290039,165.022949 L124.290039,167.579102 L126.025879,167.579102 C126.460451,167.579102 126.803466,167.47046 127.054932,167.253174 C127.306398,167.035888 127.432129,166.727053 127.432129,166.32666 C127.432129,165.926268 127.308839,165.610109 127.062256,165.378174 C126.815673,165.146239 126.482424,165.027832 126.0625,165.022949 L124.290039,165.022949 Z M139.385254,161.075195 L141.157715,161.075195 L141.157715,169 L139.385254,169 L139.385254,163.711914 L136.279785,169 L134.507324,169 L134.507324,161.075195 L136.279785,161.075195 L136.279785,166.363281 L139.385254,161.075195 Z M148.328125,162.510742 L144.885742,162.510742 L144.885742,169 L143.113281,169 L143.113281,161.075195 L148.328125,161.075195 L148.328125,162.510742 Z M156.274902,165.118164 C156.274902,166.343756 155.996585,167.32153 155.439941,168.051514 C154.883298,168.781498 154.136235,169.146484 153.19873,169.146484 C152.329585,169.146484 151.633792,168.860843 151.111328,168.289551 L151.111328,172.046875 L149.331543,172.046875 L149.331543,161.075195 L150.972168,161.075195 L151.04541,161.880859 C151.567874,161.246091 152.278316,160.928711 153.176758,160.928711 C154.14356,160.928711 154.901609,161.288815 155.450928,162.009033 C156.000247,162.729252 156.274902,163.728998 156.274902,165.008301 L156.274902,165.118164 Z M154.502441,164.964355 C154.502441,164.173336 154.344972,163.545901 154.030029,163.082031 C153.715086,162.618162 153.264651,162.38623 152.678711,162.38623 C151.951168,162.38623 151.428713,162.68652 151.111328,163.287109 L151.111328,166.802734 C151.433595,167.417972 151.960934,167.725586 152.693359,167.725586 C153.259768,167.725586 153.702879,167.497317 154.022705,167.040771 C154.342531,166.584226 154.502441,165.892094 154.502441,164.964355 Z M159.695312,163.594727 L161.438477,163.594727 C162.087894,163.594727 162.654294,163.70703 163.137695,163.931641 C163.621096,164.156251 163.988524,164.471189 164.23999,164.876465 C164.491456,165.28174 164.617188,165.752927 164.617188,166.290039 C164.617188,167.105473 164.329104,167.759763 163.75293,168.25293 C163.176755,168.746096 162.410161,168.995117 161.453125,169 L157.915527,169 L157.915527,161.075195 L159.695312,161.075195 L159.695312,163.594727 Z M167.715332,169 L165.935547,169 L165.935547,161.075195 L167.715332,161.075195 L167.715332,169 Z M159.695312,165.022949 L159.695312,167.579102 L161.431152,167.579102 C161.865725,167.579102 162.208739,167.47046 162.460205,167.253174 C162.711671,167.035888 162.837402,166.727053 162.837402,166.32666 C162.837402,165.926268 162.714113,165.610109 162.467529,165.378174 C162.220946,165.146239 161.887697,165.027832 161.467773,165.022949 L159.695312,165.022949 Z M171.692383,161.075195 L171.692383,167.579102 L174.167969,167.579102 L174.167969,161.075195 L175.947754,161.075195 L175.947754,167.579102 L178.430664,167.579102 L178.430664,161.075195 L180.203125,161.075195 L180.203125,169 L169.912598,169 L169.912598,161.075195 L171.692383,161.075195 Z M184.019043,165.85791 L182.488281,165.85791 L182.319824,158.335938 L184.194824,158.335938 L184.019043,165.85791 Z M182.268555,168.157715 C182.268555,167.879393 182.358886,167.648683 182.539551,167.465576 C182.720216,167.28247 182.966795,167.190918 183.279297,167.190918 C183.591798,167.190918 183.838378,167.28247 184.019043,167.465576 C184.199708,167.648683 184.290039,167.879393 184.290039,168.157715 C184.290039,168.426271 184.202149,168.650878 184.026367,168.831543 C183.850585,169.012208 183.601564,169.102539 183.279297,169.102539 C182.95703,169.102539 182.708009,169.012208 182.532227,168.831543 C182.356444,168.650878 182.268555,168.426271 182.268555,168.157715 Z" id="Выигрыш!" fill="#FFFFFF"></path>
            <path d="M15.9521484,20 L15.9521484,9.3359375 L19.6875,9.3359375 C20.9814518,9.3359375 21.9628873,9.58373776 22.6318359,10.0793457 C23.3007846,10.5749536 23.6352539,11.3012647 23.6352539,12.2583008 C23.6352539,12.7807643 23.5009779,13.2409648 23.2324219,13.638916 C22.9638658,14.0368672 22.5903344,14.3286124 22.1118164,14.5141602 C22.6586941,14.6508796 23.089598,14.9267557 23.404541,15.3417969 C23.719484,15.756838 23.8769531,16.2646454 23.8769531,16.8652344 C23.8769531,17.8906301 23.549808,18.6669896 22.8955078,19.1943359 C22.2412077,19.7216823 21.3085998,19.9902343 20.0976562,20 L15.9521484,20 Z M18.1494141,15.3564453 L18.1494141,18.2348633 L20.0317383,18.2348633 C20.549319,18.2348633 20.9533677,18.1115735 21.2438965,17.8649902 C21.5344253,17.618407 21.6796875,17.2778342 21.6796875,16.8432617 C21.6796875,15.8666943 21.1743215,15.3710938 20.1635742,15.3564453 L18.1494141,15.3564453 Z M18.1494141,13.8037109 L19.7753906,13.8037109 C20.8837946,13.7841796 21.4379883,13.3422895 21.4379883,12.4780273 C21.4379883,11.9946265 21.2976088,11.6467296 21.0168457,11.4343262 C20.7360826,11.2219228 20.2929718,11.1157227 19.6875,11.1157227 L18.1494141,11.1157227 L18.1494141,13.8037109 Z M32.2558594,20 L30.1318359,20 L30.1318359,16.953125 L27.5024414,16.953125 L27.5024414,20 L25.3857422,20 L25.3857422,12.0751953 L27.5024414,12.0751953 L27.5024414,15.2539062 L30.1318359,15.2539062 L30.1318359,12.0751953 L32.2558594,12.0751953 L32.2558594,20 Z M38.671875,12.0751953 L40.7885742,12.0751953 L40.7885742,20 L38.671875,20 L38.671875,15.1074219 L36.0205078,20 L33.8964844,20 L33.8964844,12.0751953 L36.0205078,12.0751953 L36.0205078,16.9604492 L38.671875,12.0751953 Z M46.5673828,14.4116211 C46.5673828,14.1332994 46.475831,13.9172371 46.2927246,13.7634277 C46.1096182,13.6096184 45.8496111,13.5327148 45.5126953,13.5327148 C45.1660139,13.5327148 44.8840343,13.6047356 44.666748,13.7487793 C44.4494618,13.892823 44.3408203,14.0966784 44.3408203,14.3603516 L42.2241211,14.3603516 C42.2241211,13.6425745 42.5219697,13.0590843 43.1176758,12.6098633 C43.7133819,12.1606423 44.475093,11.9360352 45.402832,11.9360352 C46.4233449,11.9360352 47.2253389,12.1362285 47.8088379,12.5366211 C48.3923369,12.9370137 48.684082,13.5058557 48.684082,14.2431641 C48.684082,14.5947283 48.5778819,14.9182114 48.3654785,15.213623 C48.1530751,15.5090347 47.8540058,15.744628 47.4682617,15.9204102 C48.3715865,16.2377946 48.8232422,16.8505814 48.8232422,17.7587891 C48.8232422,18.4863318 48.511966,19.0661599 47.8894043,19.498291 C47.2668426,19.9304221 46.4379935,20.1464844 45.402832,20.1464844 C44.4409132,20.1464844 43.6499054,19.9218772 43.0297852,19.4726562 C42.4096649,19.0234353 42.0996094,18.4179726 42.0996094,17.65625 L44.2163086,17.65625 C44.2163086,17.924806 44.3359363,18.142089 44.5751953,18.3081055 C44.8144543,18.4741219 45.1269512,18.5571289 45.5126953,18.5571289 C45.8886738,18.5571289 46.1816396,18.4692392 46.3916016,18.293457 C46.6015635,18.1176749 46.706543,17.888185 46.706543,17.6049805 C46.706543,17.258299 46.6064463,17.0104988 46.40625,16.8615723 C46.2060537,16.7126457 45.9057637,16.6381836 45.5053711,16.6381836 L44.3554688,16.6381836 L44.3554688,15.2612305 L45.5786133,15.2612305 C46.2377963,15.2416991 46.5673828,14.9584988 46.5673828,14.4116211 Z" id="Вниз" fill="#000000"></path>
            <path d="M16.1958008,142.664062 L14.7822266,142.664062 L14.7822266,137.734863 L9.40625,137.734863 L9.40625,142.664062 L8,142.664062 L8,132 L9.40625,132 L9.40625,136.584961 L14.7822266,136.584961 L14.7822266,132 L16.1958008,132 L16.1958008,142.664062 Z M23.3735352,142.664062 C23.2954098,142.507812 23.2319338,142.229494 23.1831055,141.829102 C22.5532195,142.483402 21.8012739,142.810547 20.9272461,142.810547 C20.1459922,142.810547 19.5051295,142.589602 19.0046387,142.147705 C18.5041479,141.705808 18.2539062,141.145511 18.2539062,140.466797 C18.2539062,139.641597 18.5676238,139.000735 19.1950684,138.544189 C19.8225129,138.087644 20.7050724,137.859375 21.8427734,137.859375 L23.1611328,137.859375 L23.1611328,137.236816 C23.1611328,136.763181 23.0195327,136.385988 22.7363281,136.105225 C22.4531236,135.824461 22.0356473,135.684082 21.4838867,135.684082 C21.0004859,135.684082 20.5952165,135.806151 20.2680664,136.050293 C19.9409163,136.294435 19.7773438,136.589842 19.7773438,136.936523 L18.4150391,136.936523 C18.4150391,136.541014 18.5554185,136.158937 18.8361816,135.790283 C19.1169448,135.421629 19.4978003,135.129884 19.9787598,134.915039 C20.4597192,134.700194 20.9882784,134.592773 21.5644531,134.592773 C22.4775436,134.592773 23.1928685,134.821043 23.7104492,135.277588 C24.2280299,135.734133 24.4965819,136.362789 24.5161133,137.163574 L24.5161133,140.811035 C24.5161133,141.538578 24.6088858,142.117185 24.7944336,142.546875 L24.7944336,142.664062 L23.3735352,142.664062 Z M21.125,141.631348 C21.5498068,141.631348 21.9526348,141.521485 22.3334961,141.301758 C22.7143574,141.08203 22.9902335,140.796388 23.1611328,140.444824 L23.1611328,138.818848 L22.0991211,138.818848 C20.4389565,138.818848 19.6088867,139.304683 19.6088867,140.276367 C19.6088867,140.701174 19.7504869,141.033202 20.0336914,141.272461 C20.3168959,141.51172 20.6806618,141.631348 21.125,141.631348 Z M32.6240234,142.664062 L31.2617188,142.664062 L31.2617188,139.792969 C30.6660126,139.94922 30.0556672,140.027344 29.4306641,140.027344 C28.4394482,140.027344 27.6838405,139.77344 27.1638184,139.265625 C26.6437962,138.75781 26.3789063,138.035161 26.3691406,137.097656 L26.3691406,134.731934 L27.7241211,134.731934 L27.7241211,137.141602 C27.7485353,138.323248 28.3173772,138.914062 29.4306641,138.914062 C30.0556672,138.914062 30.6660126,138.835938 31.2617188,138.679688 L31.2617188,134.739258 L32.6240234,134.739258 L32.6240234,142.664062 Z M39.6845703,142.664062 C39.6064449,142.507812 39.542969,142.229494 39.4941406,141.829102 C38.8642547,142.483402 38.1123091,142.810547 37.2382812,142.810547 C36.4570273,142.810547 35.8161646,142.589602 35.3156738,142.147705 C34.815183,141.705808 34.5649414,141.145511 34.5649414,140.466797 C34.5649414,139.641597 34.878659,139.000735 35.5061035,138.544189 C36.1335481,138.087644 37.0161076,137.859375 38.1538086,137.859375 L39.472168,137.859375 L39.472168,137.236816 C39.472168,136.763181 39.3305678,136.385988 39.0473633,136.105225 C38.7641587,135.824461 38.3466824,135.684082 37.7949219,135.684082 C37.311521,135.684082 36.9062516,135.806151 36.5791016,136.050293 C36.2519515,136.294435 36.0883789,136.589842 36.0883789,136.936523 L34.7260742,136.936523 C34.7260742,136.541014 34.8664537,136.158937 35.1472168,135.790283 C35.4279799,135.421629 35.8088355,135.129884 36.2897949,134.915039 C36.7707544,134.700194 37.2993135,134.592773 37.8754883,134.592773 C38.7885788,134.592773 39.5039037,134.821043 40.0214844,135.277588 C40.5390651,135.734133 40.8076171,136.362789 40.8271484,137.163574 L40.8271484,140.811035 C40.8271484,141.538578 40.9199209,142.117185 41.1054688,142.546875 L41.1054688,142.664062 L39.6845703,142.664062 Z M37.4360352,141.631348 C37.860842,141.631348 38.26367,141.521485 38.6445312,141.301758 C39.0253925,141.08203 39.3012687,140.796388 39.472168,140.444824 L39.472168,138.818848 L38.4101562,138.818848 C36.7499917,138.818848 35.9199219,139.304683 35.9199219,140.276367 C35.9199219,140.701174 36.061522,141.033202 36.3447266,141.272461 C36.6279311,141.51172 36.991697,141.631348 37.4360352,141.631348 Z M49.4477539,134.739258 L49.4477539,142.664062 L48.0854492,142.664062 L48.0854492,135.859863 L45.3901367,135.859863 L45.2290039,138.826172 C45.1411128,140.188483 44.9128436,141.162595 44.5441895,141.748535 C44.1755353,142.334476 43.5908243,142.639648 42.7900391,142.664062 L42.2480469,142.664062 L42.2480469,141.470215 L42.6362305,141.440918 C43.0756858,141.39209 43.390624,141.138186 43.5810547,140.679199 C43.7714853,140.220213 43.8935544,139.370612 43.9472656,138.130371 L44.09375,134.739258 L49.4477539,134.739258 Z M51.2641602,138.628418 C51.2641602,137.852047 51.4167465,137.153812 51.7219238,136.533691 C52.0271011,135.913571 52.4519016,135.43506 52.9963379,135.098145 C53.5407742,134.761229 54.1621059,134.592773 54.8603516,134.592773 C55.9394585,134.592773 56.8122525,134.966305 57.4787598,135.713379 C58.145267,136.460453 58.4785156,137.454095 58.4785156,138.694336 L58.4785156,138.789551 C58.4785156,139.561039 58.330812,140.253171 58.0354004,140.865967 C57.7399888,141.478763 57.3176297,141.956053 56.7683105,142.297852 C56.2189914,142.63965 55.5878942,142.810547 54.875,142.810547 C53.8007759,142.810547 52.9304233,142.437015 52.263916,141.689941 C51.5974088,140.942867 51.2641602,139.954108 51.2641602,138.723633 L51.2641602,138.628418 Z M52.6264648,138.789551 C52.6264648,139.668461 52.8303202,140.374021 53.2380371,140.90625 C53.645754,141.438479 54.1914028,141.70459 54.875,141.70459 C55.56348,141.70459 56.1103495,141.434817 56.515625,140.895264 C56.9209005,140.35571 57.1235352,139.600103 57.1235352,138.628418 C57.1235352,137.759273 56.9172384,137.054934 56.5046387,136.515381 C56.092039,135.975827 55.5439487,135.706055 54.8603516,135.706055 C54.1914029,135.706055 53.6518575,135.972165 53.2416992,136.504395 C52.8315409,137.036624 52.6264648,137.798335 52.6264648,138.789551 Z" id="Начало" fill="#2A3052"></path>
            <path d="M251.702637,178.874023 L250.40625,178.874023 L250.40625,183.664062 L249,183.664062 L249,173 L250.40625,173 L250.40625,177.702148 L251.504883,177.702148 L255.23291,173 L256.983398,173 L252.911133,178.170898 L257.283691,183.664062 L255.5625,183.664062 L251.702637,178.874023 Z M258.001465,179.628418 C258.001465,178.852047 258.154051,178.153812 258.459229,177.533691 C258.764406,176.913571 259.189206,176.43506 259.733643,176.098145 C260.278079,175.761229 260.899411,175.592773 261.597656,175.592773 C262.676763,175.592773 263.549557,175.966305 264.216064,176.713379 C264.882572,177.460453 265.21582,178.454095 265.21582,179.694336 L265.21582,179.789551 C265.21582,180.561039 265.068117,181.253171 264.772705,181.865967 C264.477293,182.478763 264.054934,182.956053 263.505615,183.297852 C262.956296,183.63965 262.325199,183.810547 261.612305,183.810547 C260.538081,183.810547 259.667728,183.437015 259.001221,182.689941 C258.334713,181.942867 258.001465,180.954108 258.001465,179.723633 L258.001465,179.628418 Z M259.36377,179.789551 C259.36377,180.668461 259.567625,181.374021 259.975342,181.90625 C260.383059,182.438479 260.928708,182.70459 261.612305,182.70459 C262.300785,182.70459 262.847654,182.434817 263.25293,181.895264 C263.658205,181.35571 263.86084,180.600103 263.86084,179.628418 C263.86084,178.759273 263.654543,178.054934 263.241943,177.515381 C262.829344,176.975827 262.281253,176.706055 261.597656,176.706055 C260.928708,176.706055 260.389162,176.972165 259.979004,177.504395 C259.568846,178.036624 259.36377,178.798335 259.36377,179.789551 Z M273.389648,183.664062 L272.034668,183.664062 L272.034668,180.280273 L268.394531,180.280273 L268.394531,183.664062 L267.032227,183.664062 L267.032227,175.739258 L268.394531,175.739258 L268.394531,179.174316 L272.034668,179.174316 L272.034668,175.739258 L273.389648,175.739258 L273.389648,183.664062 Z M278.853516,183.810547 C277.779292,183.810547 276.905277,183.457767 276.231445,182.752197 C275.557614,182.046627 275.220703,181.103033 275.220703,179.921387 L275.220703,179.672363 C275.220703,178.886227 275.370848,178.184329 275.671143,177.56665 C275.971437,176.948972 276.391355,176.465578 276.930908,176.116455 C277.470462,175.767332 278.055173,175.592773 278.685059,175.592773 C279.715337,175.592773 280.51611,175.932126 281.087402,176.61084 C281.658694,177.289554 281.944336,178.261224 281.944336,179.525879 L281.944336,180.089844 L276.575684,180.089844 C276.595215,180.871098 276.823484,181.502195 277.260498,181.983154 C277.697512,182.464114 278.252926,182.70459 278.926758,182.70459 C279.405276,182.70459 279.810545,182.606935 280.142578,182.411621 C280.474611,182.216308 280.765135,181.957521 281.01416,181.635254 L281.841797,182.279785 C281.177731,183.300298 280.181647,183.810547 278.853516,183.810547 Z M278.685059,176.706055 C278.138181,176.706055 277.679201,176.905027 277.308105,177.302979 C276.93701,177.70093 276.70752,178.258785 276.619629,178.976562 L280.589355,178.976562 L280.589355,178.874023 C280.550293,178.185543 280.364748,177.652102 280.032715,177.273682 C279.700682,176.895262 279.251468,176.706055 278.685059,176.706055 Z M283.628906,175.739258 L284.991211,175.739258 L284.991211,182.558105 L288.638672,182.558105 L288.638672,175.739258 L289.993652,175.739258 L289.993652,182.558105 L290.938477,182.558105 L290.806641,186.015137 L289.59082,186.015137 L289.59082,183.664062 L283.628906,183.664062 L283.628906,175.739258 Z" id="Конец" fill="#2A3052"></path>
        </g>
    </g>
</svg>