<?xml version="1.0" encoding="UTF-8"?>
<svg width="299px" height="197px" viewBox="0 0 299 197" version="1.1" xmlns="http://www.w3.org/2000/svg" xmlns:xlink="http://www.w3.org/1999/xlink">
    <!-- Generator: Sketch 52.6 (67491) - http://www.bohemiancoding.com/sketch -->
    <title>goes outside</title>
    <desc>Created with Sketch.</desc>
    <g id="Page-1" stroke="none" stroke-width="1" fill="none" fill-rule="evenodd">
        <g id="goes-outside">
            <g id="Group">
                <polygon id="Path" fill="#F1F2F2" points="0 0 299 0 299 197 0 197"></polygon>
                <path d="M1.98671096,1.9798995 L1.98671096,195.020101 L297.013289,195.020101 L297.013289,1.9798995 L1.98671096,1.9798995 Z M299,0 L299,197 L0,197 L0,0 L299,0 Z" id="Path" fill="#C2C2C2" fill-rule="nonzero"></path>
                <g id="Group-4" transform="translate(2.000000, 32.000000)">
                    <path d="M2.887,23.4456836 L2.887,22.2388448 L292.54325,22.2388448 L292.54325,23.4456836 L2.887,23.4456836 Z M2.887,63.9796458 L2.887,62.772807 L292.54325,62.772807 L292.54325,63.9796458 L2.887,63.9796458 Z M2.887,104.513608 L2.887,103.30677 L292.54325,103.30677 L292.54325,104.513608 L2.887,104.513608 Z M2.887,145.010211 L2.887,143.803373 L292.54325,143.803373 L292.54325,145.010211 L2.887,145.010211 Z M37.2665806,2.59396226 L38.4734194,2.59396226 L38.4734194,162.264151 L37.2665806,162.264151 L37.2665806,2.59396226 Z M73.9314556,2.59396226 L75.1382944,2.59396226 L75.1382944,162.264151 L73.9314556,162.264151 L73.9314556,2.59396226 Z M110.558956,2.59396226 L111.765794,2.59396226 L111.765794,162.264151 L110.558956,162.264151 L110.558956,2.59396226 Z M147.223831,2.59396226 L148.430669,2.59396226 L148.430669,162.264151 L147.223831,162.264151 L147.223831,2.59396226 Z M183.851331,2.59396226 L185.058169,2.59396226 L185.058169,162.264151 L183.851331,162.264151 L183.851331,2.59396226 Z M220.478831,2.59396226 L221.685669,2.59396226 L221.685669,162.264151 L220.478831,162.264151 L220.478831,2.59396226 Z M2.887,84.2279477 L2.887,83.0211089 L292.54325,83.0211089 L292.54325,84.2279477 L2.887,84.2279477 Z" id="Shape" fill="#DFDEDE" fill-rule="nonzero"></path>
                    <path d="M257.143706,2.59396226 L258.350544,2.59396226 L258.350544,162.264151 L257.143706,162.264151 L257.143706,2.59396226 Z M2.887,43.7313439 L2.887,42.5245051 L292.54325,42.5245051 L292.54325,43.7313439 L2.887,43.7313439 Z M2.887,124.76191 L2.887,123.555072 L292.54325,123.555072 L292.54325,124.76191 L2.887,124.76191 Z" id="Shape" fill="#2A3052" fill-rule="nonzero"></path>
                    <polygon id="Path" fill="#C2C2C2" fill-rule="nonzero" points="0.794 2.60551619 0.794 0.191464945 294.63625 0.191464945 294.63625 2.60551619"></polygon>
                    <path d="M38.7780566,85.19078 C37.9130397,85.6922858 36.8052541,85.3976018 36.3037483,84.5325849 C35.8022425,83.667568 36.0969265,82.5597824 36.9619434,82.0582766 L73.6268184,60.8012955 C74.2847374,60.4198577 75.110905,60.4902479 75.6948117,60.9774903 L108.13667,88.0486852 L146.812609,61.8768219 C147.491995,61.4170836 148.395598,61.4715961 149.014788,62.0096747 L184.128007,92.5231925 L219.601392,42.0864018 C220.176609,41.2685463 221.305917,41.071849 222.123773,41.6470661 C222.941628,42.2222832 223.138325,43.3515916 222.563108,44.1694472 L185.935608,96.2471831 C185.318256,97.1249473 184.077222,97.2761138 183.267212,96.5722121 L147.68976,65.655274 L109.037516,91.8111026 C108.369276,92.2632987 107.482446,92.2187049 106.862938,91.701755 L74.3473092,64.5690015 L38.7780566,85.19078 Z" id="Path" fill="#2A3052" fill-rule="nonzero"></path>
                    <path d="M185.987125,114.445283 L151.0415,114.445283 L145.6595,106.263774 L140.2775,114.445283 L105.331875,114.445283 C104.07173,114.451176 102.865994,114.959272 101.98197,115.856931 C101.097947,116.754589 100.608676,117.967645 100.622625,119.22717 L100.622625,143.921132 C100.606032,146.539822 102.712091,148.678366 105.331875,148.703019 L186.0245,148.703019 C187.284645,148.697126 188.490381,148.18903 189.374405,147.291371 C190.258428,146.393713 190.747699,145.180657 190.73375,143.921132 L190.73375,119.22717 C190.73971,117.963586 190.242729,116.749496 189.352348,115.8525 C188.461966,114.955504 187.251275,114.449236 185.987125,114.445283 Z" id="Path" fill="#E88024"></path>
                    <g id="Group" opacity="0.6" transform="translate(212.037500, 34.509434)" fill="#FFFFFF">
                        <ellipse id="Oval" cx="9.04475" cy="8.6184906" rx="8.110375" ry="8.44301887"></ellipse>
                    </g>
                    <path d="M221.08225,52.777969 C215.925296,52.777969 211.764849,48.4468836 211.764849,43.1279245 C211.764849,37.8089654 215.925296,33.47788 221.08225,33.47788 C226.239204,33.47788 230.399651,37.8089654 230.399651,43.1279245 C230.399651,48.4468836 226.239204,52.777969 221.08225,52.777969 Z M221.08225,50.3639177 C224.883769,50.3639177 227.985599,47.1348665 227.985599,43.1279245 C227.985599,39.1209825 224.883769,35.8919313 221.08225,35.8919313 C217.280731,35.8919313 214.178901,39.1209825 214.178901,43.1279245 C214.178901,47.1348665 217.280731,50.3639177 221.08225,50.3639177 Z" id="Oval" fill="#E88024" fill-rule="nonzero"></path>
                    <g id="Group" opacity="0.6" transform="translate(28.900000, 74.603774)" fill="#FFFFFF">
                        <ellipse id="Oval" cx="8.97" cy="9.0207547" rx="8.110375" ry="8.44301887"></ellipse>
                    </g>
                    <path d="M37.87,93.2745728 C32.7130457,93.2745728 28.5525994,88.9434874 28.5525994,83.6245283 C28.5525994,78.3055692 32.7130457,73.9744838 37.87,73.9744838 C43.0269543,73.9744838 47.1874006,78.3055692 47.1874006,83.6245283 C47.1874006,88.9434874 43.0269543,93.2745728 37.87,93.2745728 Z M37.87,90.8605215 C41.6715185,90.8605215 44.7733494,87.6314703 44.7733494,83.6245283 C44.7733494,79.6175863 41.6715185,76.3885351 37.87,76.3885351 C34.0684815,76.3885351 30.9666506,79.6175863 30.9666506,83.6245283 C30.9666506,87.6314703 34.0684815,90.8605215 37.87,90.8605215 Z" id="Oval" fill="#E88024" fill-rule="nonzero"></path>
                </g>
            </g>
            <path d="M114.378,156.354 L118.551,156.354 C119.306,156.354 121.261,156.924 121.393,158.695 C121.481,159.875 121.001,160.71 119.953,161.197 C121.293,161.522 121.986,162.36 122.035,163.709 C122.107,165.733 120.183,166.717 118.965,166.717 L114.378,166.717 L114.378,156.354 Z M116.022,165.312 L118.38,165.312 C118.944,165.312 120.292,165.209 120.292,163.642 C120.292,162.074 118.63,161.971 118.38,161.971 L116.022,161.971 L116.022,165.312 Z M116.062,157.68 L116.062,160.653 L117.999,160.653 C119.01,160.653 119.739,160.133 119.677,159.027 C119.615,157.922 118.664,157.705 117.999,157.68 L116.062,157.68 Z M123.742,158.968 L125.442,158.968 L125.442,161.652 L127.478,161.652 C127.969,161.652 130.398,162.032 130.282,164.227 C130.166,166.423 128.239,166.688 127.356,166.688 L123.741,166.688 L123.741,158.968 L123.742,158.968 Z M125.462,163.058 L125.462,165.345 L127.133,165.345 C127.55,165.345 128.579,165.186 128.579,164.202 C128.579,163.217 127.529,163.059 127.133,163.059 L125.461,163.059 L125.462,163.058 Z M158.359,158.819 L160.059,158.819 L160.059,161.502 L162.096,161.502 C162.586,161.502 165.016,161.882 164.9,164.077 C164.783,166.273 162.856,166.538 161.973,166.538 L158.359,166.538 L158.359,158.818 L158.359,158.819 Z M160.079,162.909 L160.079,165.195 L161.751,165.195 C162.168,165.195 163.196,165.037 163.196,164.052 C163.196,163.067 162.146,162.909 161.751,162.909 L160.079,162.909 Z M131.408,158.961 L133.052,158.961 L133.052,166.713 L131.408,166.713 L131.408,158.961 Z M166.084,158.802 L167.729,158.802 L167.729,166.554 L166.084,166.554 L166.084,158.802 Z M135.421,158.964 L137.081,158.964 L137.081,164.154 L140.195,158.964 L141.856,158.964 L141.856,166.678 L140.196,166.678 L140.196,161.518 L137.144,166.678 L135.422,166.678 L135.421,158.964 Z M148.819,158.999 L148.819,160.346 L145.532,160.346 L145.532,166.683 L143.738,166.683 L143.738,158.999 L148.819,158.999 Z M149.876,158.954 L151.353,158.969 L151.493,159.946 C152.267,158.832 153.676,158.542 154.908,159.082 C155.915,159.523 156.56,161.118 156.617,162.102 C156.72,163.885 156.689,165.272 155.417,166.289 C154.145,167.306 152.524,166.947 151.565,165.928 L151.565,169.653 L149.876,169.653 L149.876,158.953 L149.876,158.954 Z M151.624,161.119 C151.645,162.107 151.631,163.327 151.624,164.642 C152.497,165.869 153.646,165.497 154.193,165.16 C154.763,164.808 154.974,163.613 154.906,162.538 C154.858,161.783 154.48,160.568 153.705,160.316 C152.924,160.062 152.249,160.203 151.625,161.119 L151.624,161.119 Z M170.158,158.956 L170.158,166.675 L180.21,166.675 L180.21,158.956 L178.458,158.956 L178.458,165.282 L176.104,165.282 L176.104,158.956 L174.379,158.956 L174.379,165.282 L171.889,165.282 C171.868,161.588 171.868,159.479 171.889,158.956 L170.159,158.956 L170.158,158.956 Z" id="Shape" fill="#FFFFFF" fill-rule="nonzero"></path>
            <path d="M287.932,121.902 L284.367,121.902 C284.367,122.564 284.502,123.042 284.772,123.337 C285.127,123.725 285.502,123.866 286.014,123.815 C286.909,123.725 287.082,123.485 287.452,123.274 L287.83,123.921 C287.389,124.377 286.683,124.605 285.713,124.605 C284.258,124.605 283.371,123.399 283.313,121.964 C283.255,120.528 283.828,118.863 285.713,118.793 C287.311,118.836 288.05,119.872 287.933,121.902 L287.932,121.902 Z M286.932,121.112 C286.922,120.102 286.516,119.598 285.714,119.598 C284.913,119.598 284.475,120.103 284.4,121.113 L286.931,121.113 L286.932,121.112 Z M273.853,118.796 C274.467,118.763 275.243,118.976 275.679,119.417 C276.159,119.905 276.503,120.512 276.503,121.513 C276.503,122.4 276.326,123.041 275.906,123.56 C275.432,124.145 274.694,124.413 274.095,124.413 C273.473,124.413 272.8,124.315 272.233,123.792 C271.77,123.364 271.341,122.629 271.383,121.605 C271.431,120.472 271.795,119.826 272.233,119.417 C272.676,119.003 273.196,118.832 273.853,118.797 L273.853,118.796 Z M274.073,119.537 C273.37,119.537 272.518,119.997 272.518,121.421 C272.518,122.845 273.044,123.692 273.988,123.692 C274.931,123.692 275.551,122.734 275.455,121.421 C275.359,120.107 274.778,119.537 274.074,119.537 L274.073,119.537 Z M289.017,118.903 L289.98,118.903 L289.98,123.627 L292.405,123.627 L292.405,118.903 L293.405,118.903 L293.405,123.627 L294.068,123.627 L294.068,126.191 L293.104,126.191 L293.104,124.421 L289.017,124.421 L289.017,118.903 Z M265.479,117.013 L266.445,117.013 L266.445,120.192 L267.055,120.192 L269.731,117.012 L270.837,117.012 L267.889,120.497 L271.101,124.395 L269.885,124.395 L267.055,121.044 L266.445,121.044 L266.445,124.395 L265.479,124.395 L265.479,117.013 Z M277.661,118.927 L278.671,118.927 L278.671,121.265 L281.075,121.265 L281.075,118.927 L282.025,118.927 L282.025,124.334 L281.075,124.334 L281.075,122.059 L278.671,122.059 L278.671,124.334 L277.661,124.334 L277.661,118.927 Z" id="Shape" fill="#2A3052" fill-rule="nonzero"></path>
            <path d="M14,68.992 L15.246,60.669 L17.961,60.669 C18.796,60.669 19.439,60.859 19.891,61.239 C20.342,61.617 20.513,62.179 20.402,62.922 C20.3464891,63.2881236 20.1812108,63.6287922 19.928,63.899 C19.668,64.181 19.345,64.395 18.956,64.539 C19.486,64.619 19.879,64.857 20.136,65.251 C20.393,65.646 20.484,66.109 20.408,66.643 C20.286,67.436 19.952,68.025 19.408,68.413 C18.862,68.799 18.159,68.993 17.298,68.993 L14,68.993 L14,68.992 Z M15.709,65.088 L15.257,68.112 L17.43,68.112 C17.925,68.112 18.338,67.984 18.67,67.729 C19.002,67.474 19.202,67.116 19.27,66.654 C19.339,66.178 19.25,65.802 19.004,65.525 C18.759,65.249 18.39,65.103 17.898,65.088 L15.708,65.088 L15.709,65.088 Z M15.84,64.208 L17.67,64.208 C18.074,64.208 18.428,64.092 18.733,63.859 C19.038,63.627 19.221,63.307 19.282,62.899 C19.35,62.434 19.261,62.094 19.013,61.879 C18.765,61.663 18.371,61.555 17.83,61.555 L16.24,61.555 L15.84,64.208 Z M23.832,69.112 C22.978,69.112 22.337,68.825 21.908,68.249 C21.48,67.674 21.334,66.931 21.471,66.019 L21.511,65.769 C21.644,64.846 22.007,64.103 22.6,63.539 C23.193,62.975 23.864,62.693 24.615,62.693 C25.411,62.693 25.985,62.954 26.335,63.476 C26.686,63.998 26.799,64.679 26.673,65.516 L26.587,66.111 L22.586,66.111 C22.498,66.767 22.563,67.284 22.78,67.663 C22.997,68.043 23.392,68.233 23.963,68.233 C24.329,68.233 24.669,68.177 24.983,68.066 C25.298,67.956 25.57,67.807 25.798,67.621 L26.13,68.352 C25.878,68.566 25.56,68.746 25.175,68.892 C24.79,69.039 24.343,69.112 23.832,69.112 Z M24.484,63.579 C24.106,63.579 23.764,63.731 23.457,64.036 C23.151,64.341 22.931,64.726 22.797,65.191 L22.809,65.225 L25.592,65.225 L25.604,65.134 C25.673,64.673 25.619,64.298 25.444,64.011 C25.269,63.723 24.948,63.579 24.484,63.579 Z M33.115,66.134 C32.975,67.06 32.653,67.788 32.152,68.318 C31.651,68.848 31.022,69.112 30.262,69.112 C29.893,69.112 29.573,69.045 29.302,68.91 C29.0320638,68.7750393 28.80469,68.5680841 28.645,68.312 L28.188,71.37 L27.062,71.37 L28.342,62.807 L29.205,62.807 L29.262,63.607 C29.51,63.31 29.796,63.084 30.12,62.927 C30.4595126,62.7674811 30.8309209,62.6874539 31.206,62.693 C31.941,62.693 32.483,63.001 32.829,63.616 C33.176,64.232 33.277,65.031 33.132,66.014 L33.115,66.134 Z M32.006,66.014 C32.116,65.286 32.067,64.704 31.858,64.265 C31.648,63.827 31.273,63.608 30.731,63.608 C30.4330821,63.6040886 30.1397907,63.6819077 29.883,63.833 C29.629,63.984 29.409,64.189 29.223,64.448 L28.777,67.42 C28.883,67.676 29.039,67.875 29.245,68.018 C29.451,68.161 29.72,68.232 30.051,68.232 C30.561,68.232 30.99,68.035 31.335,67.641 C31.679,67.246 31.898,66.744 31.989,66.134 L32.006,66.014 Z M36.666,65.088 L38.323,62.808 L39.598,62.808 L39.615,62.836 L37.174,65.866 L38.769,68.992 L37.477,68.992 L36.454,66.654 L34.733,68.992 L33.47,68.992 L33.452,68.964 L35.962,65.866 L34.412,62.807 L35.71,62.807 L36.665,65.088 L36.666,65.088 Z M44.879,68.992 L43.753,68.992 L44.148,66.362 L41.392,66.362 L40.998,68.992 L39.872,68.992 L40.798,62.807 L41.924,62.807 L41.524,65.483 L44.279,65.483 L44.679,62.807 L45.806,62.807 L44.879,68.992 Z M47.755,68.992 L46.629,68.992 L46.8,67.838 L47.926,67.838 L47.755,68.992 Z M56.232,62.693 C56.991,62.693 57.562,62.993 57.944,63.59 C58.327,64.189 58.452,64.94 58.319,65.843 L58.296,65.968 C58.151,66.925 57.791,67.688 57.216,68.258 C56.64,68.828 55.922,69.112 55.06,69.112 C54.237,69.112 53.613,68.815 53.188,68.221 C52.763,67.626 52.619,66.875 52.757,65.968 L52.779,65.843 C52.779,65.823 52.781,65.807 52.785,65.791 C52.789,65.776 52.797,65.74 52.808,65.683 L53.008,64.351 C53.191,63.131 53.554,62.256 54.098,61.724 C54.64,61.192 55.38,60.902 56.318,60.852 C56.848,60.826 57.263,60.76 57.564,60.655 C57.865,60.55 58.034,60.37 58.073,60.115 L58.93,60.115 L58.942,60.149 C58.869,60.779 58.61,61.206 58.164,61.433 C57.718,61.659 57.088,61.783 56.272,61.801 C55.692,61.821 55.206,61.978 54.812,62.276 C54.417,62.573 54.18,63.017 54.1,63.608 L54.117,63.636 C54.38,63.358 54.699,63.131 55.075,62.956 C55.4364829,62.7838821 55.8316335,62.6940597 56.232,62.693 Z M55.878,63.579 C55.363,63.579 54.93,63.797 54.578,64.234 C54.225,64.67 54.003,65.206 53.911,65.843 L53.888,65.968 C53.786,66.651 53.84,67.198 54.051,67.612 C54.263,68.025 54.643,68.232 55.191,68.232 C55.706,68.232 56.14,68.016 56.492,67.583 C56.845,67.151 57.071,66.613 57.17,65.968 L57.192,65.843 C57.292,65.172 57.233,64.627 57.018,64.208 C56.803,63.788 56.423,63.579 55.878,63.579 Z M62.846,68.992 C62.8393917,68.8197418 62.8357245,68.6473834 62.835,68.475 C62.835,68.344 62.842,68.209 62.857,68.072 C62.5925413,68.372659 62.276174,68.6233141 61.923,68.812 C61.555,69.012 61.179,69.112 60.793,69.112 C60.173,69.112 59.713,68.946 59.413,68.612 C59.114,68.279 59.008,67.826 59.096,67.255 C59.184,66.645 59.489,66.178 60.011,65.855 C60.533,65.53 61.209,65.368 62.04,65.368 L63.263,65.368 L63.355,64.757 C63.412,64.379 63.346,64.089 63.157,63.885 C62.969,63.681 62.671,63.579 62.263,63.579 C61.916,63.579 61.611,63.671 61.348,63.853 C61.085,64.036 60.937,64.255 60.902,64.511 L59.828,64.522 L59.822,64.488 C59.868,64.019 60.14,63.603 60.639,63.238 C61.139,62.875 61.745,62.693 62.457,62.693 C63.132,62.693 63.661,62.873 64.047,63.233 C64.431,63.593 64.577,64.105 64.481,64.768 L64.035,67.746 C63.997,67.979 63.975,68.195 63.969,68.396 C63.963,68.596 63.976,68.794 64.006,68.992 L62.846,68.992 Z M61.102,68.169 C61.492,68.169 61.868,68.063 62.234,67.849 C62.6,67.636 62.854,67.396 62.994,67.129 L63.149,66.129 L61.886,66.129 C61.447,66.129 61.07,66.245 60.754,66.477 C60.437,66.71 60.258,66.977 60.216,67.277 C60.171,67.563 60.221,67.783 60.368,67.937 C60.515,68.092 60.759,68.169 61.102,68.169 Z M71.18,66.134 C71.04,67.06 70.718,67.788 70.217,68.318 C69.716,68.848 69.087,69.112 68.327,69.112 C67.958,69.112 67.638,69.045 67.367,68.91 C67.0970638,68.7750393 66.86969,68.5680841 66.71,68.312 L66.253,71.37 L65.127,71.37 L66.407,62.807 L67.27,62.807 L67.328,63.607 C67.575,63.31 67.861,63.084 68.185,62.927 C68.5245126,62.7674811 68.8959209,62.6874539 69.271,62.693 C70.007,62.693 70.548,63.001 70.895,63.616 C71.241,64.232 71.342,65.031 71.198,66.014 L71.18,66.134 Z M70.071,66.014 C70.181,65.286 70.132,64.704 69.923,64.265 C69.713,63.827 69.338,63.608 68.797,63.608 C68.4984053,63.6037216 68.2043734,63.6815536 67.947,63.833 C67.694,63.984 67.474,64.189 67.287,64.448 L66.842,67.42 C66.948,67.676 67.105,67.875 67.31,68.018 C67.516,68.161 67.785,68.232 68.116,68.232 C68.627,68.232 69.055,68.035 69.4,67.641 C69.745,67.246 69.963,66.744 70.054,66.134 L70.071,66.014 Z M73.89,65.162 L75.433,65.162 C76.135,65.162 76.669,65.34 77.037,65.694 C77.405,66.049 77.547,66.502 77.463,67.054 C77.3857551,67.6134605 77.0897852,68.1194504 76.64,68.461 C76.182,68.815 75.588,68.992 74.856,68.992 L72.192,68.992 L73.118,62.807 L74.244,62.807 L73.89,65.162 Z M73.758,66.042 L73.45,68.112 L74.987,68.112 C75.372,68.112 75.68,68.014 75.911,67.818 C76.141,67.621 76.279,67.38 76.325,67.095 C76.367,66.805 76.307,66.557 76.145,66.351 C75.983,66.146 75.7,66.043 75.296,66.043 L73.758,66.043 L73.758,66.042 Z M81.041,69.112 C80.187,69.112 79.546,68.825 79.118,68.249 C78.688,67.674 78.543,66.931 78.68,66.019 L78.72,65.769 C78.854,64.846 79.217,64.103 79.81,63.539 C80.402,62.975 81.073,62.693 81.824,62.693 C82.621,62.693 83.194,62.954 83.544,63.476 C83.895,63.998 84.008,64.679 83.882,65.516 L83.796,66.111 L79.795,66.111 C79.707,66.767 79.772,67.284 79.989,67.663 C80.207,68.043 80.601,68.233 81.173,68.233 C81.538,68.233 81.879,68.177 82.193,68.066 C82.507,67.956 82.779,67.807 83.008,67.621 L83.339,68.352 C83.088,68.566 82.769,68.746 82.384,68.892 C82,69.039 81.552,69.112 81.041,69.112 Z M81.693,63.579 C81.315,63.579 80.973,63.731 80.667,64.036 C80.36,64.341 80.14,64.726 80.007,65.191 L80.017,65.225 L82.802,65.225 L82.813,65.134 C82.882,64.673 82.828,64.298 82.653,64.011 C82.478,63.723 82.158,63.579 81.693,63.579 Z M90.324,66.134 C90.184,67.06 89.862,67.788 89.361,68.318 C88.861,68.848 88.231,69.112 87.472,69.112 C87.102,69.112 86.782,69.045 86.512,68.91 C86.2416964,68.7751905 86.013962,68.5682222 85.854,68.312 L85.397,71.37 L84.271,71.37 L85.551,62.807 L86.414,62.807 L86.472,63.607 C86.719,63.31 87.005,63.084 87.329,62.927 C87.6685126,62.7674811 88.0399209,62.6874539 88.415,62.693 C89.151,62.693 89.692,63.001 90.039,63.616 C90.385,64.232 90.486,65.031 90.342,66.014 L90.324,66.134 Z M89.215,66.014 C89.326,65.286 89.276,64.704 89.067,64.265 C88.857,63.827 88.482,63.608 87.941,63.608 C87.6424053,63.6037216 87.3483734,63.6815536 87.091,63.833 C86.838,63.984 86.618,64.189 86.431,64.448 L85.986,67.42 C86.092,67.676 86.249,67.875 86.454,68.018 C86.66,68.161 86.929,68.232 87.26,68.232 C87.771,68.232 88.199,68.035 88.544,67.641 C88.889,67.246 89.107,66.744 89.198,66.134 L89.215,66.014 Z" id="Shape" fill="#6D6E71" fill-rule="nonzero"></path>
            <path d="M17.067,20.068 L17.067,11.566 L19.852,11.566 C20.852,11.566 21.633,11.762 22.194,12.153 C22.754,12.544 23.034,13.125 23.034,13.896 C23.034,14.286 22.934,14.634 22.731,14.941 C22.529,15.249 22.233,15.481 21.844,15.636 C22.373,15.733 22.772,15.963 23.041,16.325 C23.309,16.687 23.443,17.109 23.443,17.592 C23.443,18.406 23.175,19.022 22.638,19.44 C22.1,19.859 21.339,20.068 20.355,20.068 L17.067,20.068 Z M18.772,16.308 L18.772,18.76 L20.355,18.76 C20.806,18.76 21.151,18.662 21.388,18.465 C21.626,18.268 21.744,17.977 21.744,17.592 C21.744,17.179 21.627,16.862 21.394,16.64 C21.16,16.418 20.808,16.307 20.337,16.307 L18.772,16.307 L18.772,16.308 Z M18.772,15.128 L19.911,15.128 C20.366,15.128 20.717,15.034 20.961,14.848 C21.207,14.661 21.33,14.388 21.33,14.03 C21.33,13.637 21.206,13.347 20.959,13.16 C20.712,12.973 20.343,12.88 19.852,12.88 L18.772,12.88 L18.772,15.128 Z M26.486,15.794 L27.671,15.794 C28.52,15.794 29.187,15.989 29.674,16.38 C30.16,16.772 30.404,17.284 30.404,17.919 C30.404,18.561 30.16,19.08 29.674,19.475 C29.187,19.87 28.52,20.068 27.671,20.068 L24.775,20.068 L24.775,13.749 L26.485,13.749 L26.485,15.793 L26.486,15.794 Z M32.704,20.068 L30.999,20.068 L30.999,13.749 L32.704,13.749 L32.704,20.067 L32.704,20.068 Z M26.486,17.102 L26.486,18.766 L27.671,18.766 C28.017,18.766 28.276,18.688 28.448,18.532 C28.6176062,18.3790923 28.7112529,18.159242 28.704,17.931 C28.7094306,17.7054195 28.6158958,17.4887549 28.448,17.338 C28.276,17.18 28.018,17.102 27.671,17.102 L26.486,17.102 Z M38.275,13.75 L39.974,13.75 L39.974,20.068 L38.274,20.068 L38.274,16.214 L38.24,16.208 L36.179,20.068 L34.474,20.068 L34.474,13.749 L36.179,13.749 L36.179,17.591 L36.214,17.597 L38.274,13.749 L38.275,13.75 Z M39.203,11 L39.215,11.035 C39.235,11.529 39.062,11.933 38.698,12.246 C38.334,12.56 37.845,12.716 37.23,12.716 C36.61,12.716 36.118,12.56 35.752,12.246 C35.386,11.933 35.215,11.529 35.238,11.035 L35.25,11 L36.494,11 C36.494,11.206 36.554,11.375 36.672,11.508 C36.791,11.64 36.977,11.706 37.23,11.706 C37.475,11.706 37.657,11.64 37.776,11.508 C37.8976999,11.36742 37.9613402,11.1857948 37.954,11 L39.204,11 L39.203,11 Z M41.428,18.76 L41.428,18.754 L41.608,18.754 C41.916,18.754 42.133,18.569 42.26,18.199 C42.386,17.829 42.471,17.209 42.514,16.337 L42.642,13.75 L47.32,13.75 L47.32,18.76 L48.19,18.76 L48.19,22.158 L46.485,22.158 L46.485,20.068 L42.73,20.068 L42.73,22.158 L41.025,22.158 L41.025,18.76 L41.428,18.76 Z M44.213,16.337 C44.186,16.854 44.136,17.315 44.064,17.717 C43.992,18.12 43.892,18.467 43.764,18.76 L45.62,18.76 L45.62,15.11 L44.277,15.11 L44.213,16.337 Z M51.962,20.19 C51.02,20.19 50.284,19.901 49.754,19.323 C49.225,18.745 48.96,18.001 48.96,17.09 L48.96,16.856 C48.96,15.91 49.217,15.136 49.731,14.532 C50.245,13.929 50.951,13.629 51.851,13.633 C52.699,13.633 53.351,13.893 53.804,14.413 C54.257,14.933 54.484,15.632 54.484,16.512 L54.484,17.393 L50.718,17.393 L50.7,17.429 C50.728,17.861 50.859,18.211 51.095,18.479 C51.33,18.749 51.679,18.882 52.143,18.882 C52.524,18.882 52.848,18.844 53.115,18.766 C53.382,18.688 53.657,18.569 53.941,18.409 L54.402,19.461 C54.149,19.667 53.807,19.841 53.375,19.981 C52.943,20.121 52.472,20.191 51.962,20.191 L51.962,20.19 Z M51.851,14.947 C51.508,14.947 51.244,15.065 51.059,15.3 C50.875,15.536 50.763,15.848 50.724,16.237 L50.735,16.267 L52.815,16.267 L52.815,16.138 C52.815,15.768 52.738,15.478 52.586,15.265 C52.435,15.053 52.189,14.947 51.851,14.947 Z M60.761,15.052 L58.741,15.052 L58.741,20.068 L57.03,20.068 L57.03,15.052 L55.039,15.052 L55.039,13.75 L60.761,13.75 L60.761,15.052 Z M67.301,16.296 C67.631,16.296 67.884,16.234 68.057,16.112 C68.2260179,15.9979262 68.3242913,15.804781 68.317,15.601 C68.3163452,15.4011361 68.2237794,15.2126853 68.066,15.09 C67.898,14.948 67.646,14.877 67.306,14.877 C66.996,14.877 66.744,14.939 66.554,15.064 C66.3748783,15.1674059 66.2652382,15.3591806 66.267,15.566 L64.627,15.566 L64.615,15.531 C64.592,14.966 64.831,14.51 65.333,14.161 C65.835,13.813 66.464,13.639 67.219,13.639 C68.072,13.639 68.751,13.799 69.257,14.121 C69.763,14.441 70.017,14.894 70.017,15.478 C70.017,15.758 69.922,16.016 69.733,16.252 C69.5241829,16.5019532 69.2559977,16.6955279 68.953,16.815 C69.335,16.944 69.627,17.133 69.829,17.382 C70.032,17.631 70.133,17.931 70.133,18.281 C70.133,18.869 69.86,19.333 69.315,19.674 C68.77,20.014 68.072,20.184 67.219,20.184 C66.468,20.184 65.824,20.017 65.286,19.682 C64.749,19.348 64.492,18.865 64.516,18.234 L64.527,18.199 L66.168,18.199 C66.168,18.413 66.268,18.593 66.466,18.739 C66.664,18.885 66.946,18.959 67.313,18.959 C67.667,18.959 67.943,18.881 68.139,18.728 C68.335,18.574 68.434,18.388 68.434,18.17 C68.434,17.901 68.336,17.703 68.142,17.574 C67.947,17.446 67.667,17.382 67.301,17.382 L66.273,17.382 L66.273,16.296 L67.301,16.296 Z M75.021,20.068 C74.9571339,19.9197959 74.9033449,19.7674496 74.86,19.612 C74.8148203,19.4514743 74.7823862,19.2876318 74.763,19.122 C74.5913317,19.4256746 74.3538581,19.6870664 74.068,19.887 C73.78,20.089 73.438,20.19 73.041,20.19 C72.379,20.19 71.869,20.02 71.511,19.68 C71.153,19.339 70.974,18.875 70.974,18.287 C70.974,17.667 71.212,17.188 71.689,16.847 C72.166,16.507 72.862,16.337 73.777,16.337 L74.734,16.337 L74.734,15.834 C74.734,15.531 74.654,15.295 74.494,15.128 C74.335,14.961 74.098,14.877 73.782,14.877 C73.506,14.877 73.292,14.944 73.143,15.078 C72.993,15.213 72.918,15.397 72.918,15.63 L71.278,15.63 L71.266,15.595 C71.238,15.062 71.471,14.601 71.963,14.215 C72.456,13.827 73.099,13.633 73.893,13.633 C74.653,13.633 75.266,13.823 75.736,14.205 C76.205,14.587 76.439,15.134 76.439,15.846 L76.439,18.456 C76.439,18.752 76.462,19.03 76.506,19.291 C76.551,19.552 76.622,19.811 76.719,20.068 L75.02,20.068 L75.021,20.068 Z M73.461,18.929 C73.757,18.929 74.021,18.855 74.255,18.707 C74.489,18.559 74.648,18.388 74.735,18.193 L74.735,17.3 L73.777,17.3 C73.414,17.3 73.141,17.39 72.957,17.569 C72.7752725,17.7398594 72.6742868,17.9796095 72.679,18.229 C72.679,18.443 72.748,18.613 72.886,18.739 C73.024,18.866 73.216,18.929 73.461,18.929 Z M86.167,20.068 L84.462,20.068 L84.462,15.069 L82.372,15.069 L82.372,20.067 L80.667,20.067 L80.667,13.749 L86.167,13.749 L86.167,20.067 L86.167,20.068 Z M93.145,17.084 C93.145,18.018 92.929,18.77 92.497,19.338 C92.065,19.906 91.461,20.19 90.687,20.19 C90.356,20.19 90.062,20.13 89.805,20.006 C89.5451531,19.881101 89.3188805,19.6959689 89.145,19.466 L89.145,22.496 L87.445,22.496 L87.445,13.75 L88.982,13.75 L89.081,14.497 C89.268,14.221 89.492,14.007 89.755,13.857 C90.018,13.708 90.325,13.633 90.675,13.633 C91.457,13.633 92.065,13.939 92.497,14.55 C92.929,15.161 93.145,15.965 93.145,16.961 L93.145,17.084 Z M91.44,16.961 C91.44,16.366 91.34,15.883 91.142,15.513 C90.943,15.143 90.64,14.959 90.232,14.959 C89.974,14.959 89.755,15.011 89.574,15.116 C89.3915679,15.2227234 89.2428897,15.3786796 89.145,15.566 L89.145,18.334 C89.25,18.513 89.393,18.649 89.575,18.742 C89.755,18.836 89.978,18.882 90.243,18.882 C90.655,18.882 90.958,18.721 91.151,18.398 C91.343,18.075 91.44,17.637 91.44,17.084 L91.44,16.961 Z M96.934,20.191 C95.992,20.191 95.257,19.901 94.727,19.323 C94.197,18.745 93.933,18.001 93.933,17.09 L93.933,16.856 C93.933,15.91 94.19,15.136 94.703,14.532 C95.218,13.929 95.924,13.629 96.823,13.633 C97.673,13.633 98.323,13.893 98.777,14.413 C99.23,14.933 99.457,15.632 99.457,16.512 L99.457,17.393 L95.691,17.393 L95.673,17.429 C95.7,17.861 95.832,18.211 96.067,18.479 C96.303,18.749 96.652,18.882 97.115,18.882 C97.497,18.882 97.821,18.844 98.088,18.766 C98.354,18.688 98.63,18.569 98.914,18.409 L99.375,19.461 C99.122,19.667 98.78,19.841 98.347,19.981 C97.915,20.121 97.444,20.191 96.934,20.191 Z M96.824,14.947 C96.481,14.947 96.217,15.065 96.032,15.3 C95.847,15.536 95.735,15.848 95.697,16.237 L95.708,16.267 L97.787,16.267 L97.787,16.138 C97.787,15.768 97.711,15.478 97.559,15.265 C97.407,15.053 97.162,14.947 96.823,14.947 L96.824,14.947 Z M100.624,18.76 L100.624,18.754 L100.806,18.754 C101.113,18.754 101.33,18.569 101.456,18.199 C101.583,17.829 101.668,17.209 101.711,16.337 L101.839,13.75 L106.516,13.75 L106.516,18.76 L107.386,18.76 L107.386,22.158 L105.681,22.158 L105.681,20.068 L101.927,20.068 L101.927,22.158 L100.222,22.158 L100.222,18.76 L100.625,18.76 L100.624,18.76 Z M103.41,16.337 C103.383,16.854 103.333,17.315 103.261,17.717 C103.189,18.12 103.089,18.467 102.961,18.76 L104.817,18.76 L104.817,15.11 L103.474,15.11 L103.41,16.337 Z M111.158,20.19 C110.216,20.19 109.481,19.901 108.951,19.323 C108.421,18.745 108.157,18.001 108.157,17.09 L108.157,16.856 C108.157,15.91 108.414,15.136 108.927,14.532 C109.442,13.929 110.148,13.629 111.047,13.633 C111.897,13.633 112.547,13.893 113.001,14.413 C113.454,14.933 113.681,15.632 113.681,16.512 L113.681,17.393 L109.915,17.393 L109.897,17.429 C109.924,17.861 110.056,18.211 110.291,18.479 C110.527,18.749 110.876,18.882 111.339,18.882 C111.721,18.882 112.045,18.844 112.312,18.766 C112.578,18.688 112.854,18.569 113.138,18.409 L113.599,19.461 C113.346,19.667 113.004,19.841 112.572,19.981 C112.139,20.121 111.668,20.191 111.158,20.191 L111.158,20.19 Z M111.048,14.947 C110.705,14.947 110.441,15.065 110.256,15.3 C110.071,15.536 109.959,15.848 109.921,16.237 L109.932,16.267 L112.011,16.267 L112.011,16.138 C112.011,15.768 111.935,15.478 111.783,15.265 C111.631,15.053 111.386,14.947 111.048,14.947 Z M120.145,13.75 L120.145,20.068 L118.445,20.068 L118.445,15.069 L116.927,15.069 L116.927,16.441 C116.927,17.686 116.737,18.602 116.355,19.188 C115.974,19.774 115.322,20.067 114.399,20.067 L114.125,20.067 L114.107,18.724 L114.288,18.718 C114.678,18.718 114.931,18.558 115.048,18.239 C115.164,17.919 115.222,17.32 115.222,16.441 L115.222,13.749 L120.145,13.749 L120.145,13.75 Z M123.31,15.794 L124.495,15.794 C125.344,15.794 126.011,15.989 126.498,16.38 C126.984,16.772 127.228,17.284 127.228,17.919 C127.228,18.561 126.984,19.08 126.498,19.475 C126.011,19.87 125.344,20.068 124.495,20.068 L121.599,20.068 L121.599,13.749 L123.309,13.749 L123.309,15.793 L123.31,15.794 Z M129.528,20.068 L127.823,20.068 L127.823,13.749 L129.528,13.749 L129.528,20.067 L129.528,20.068 Z M123.31,17.102 L123.31,18.766 L124.495,18.766 C124.841,18.766 125.1,18.688 125.272,18.532 C125.441606,18.3790923 125.535253,18.159242 125.528,17.931 C125.533431,17.7054195 125.439896,17.4887549 125.272,17.338 C125.1,17.18 124.842,17.102 124.495,17.102 L123.31,17.102 Z" id="Shape" fill="#020202" fill-rule="nonzero"></path>
            <path d="M23.331,171.382 L22.21,171.382 L22.756,167.724 L18.734,167.724 L18.188,171.382 L17.068,171.382 L18.308,163.099 L19.428,163.099 L18.865,166.842 L22.887,166.842 L23.45,163.099 L24.571,163.099 L23.331,171.382 Z M29.901,165.226 L31.022,165.226 L30.101,171.382 L28.98,171.382 L29.629,167.024 L29.6,167.007 L26.226,171.382 L25.112,171.382 L26.034,165.226 L27.149,165.226 L26.495,169.59 L26.523,169.607 L29.903,165.227 L29.901,165.226 Z M36.393,168.714 L36.063,168.714 L35.665,171.382 L34.544,171.382 L34.942,168.714 L34.618,168.714 L32.478,171.382 L31.108,171.382 L31.096,171.353 L33.856,168.133 L32.183,165.226 L33.537,165.226 L34.783,167.764 L35.084,167.764 L35.465,165.226 L36.586,165.226 L36.206,167.764 L36.512,167.764 L38.526,165.226 L39.835,165.226 L39.846,165.255 L37.337,168.128 L39.147,171.382 L37.735,171.382 L36.393,168.714 Z M45.097,171.382 L43.977,171.382 L44.369,168.765 L41.627,168.765 L41.234,171.382 L40.114,171.382 L41.035,165.226 L42.155,165.226 L41.758,167.889 L44.5,167.889 L44.898,165.226 L46.018,165.226 L45.097,171.382 Z M47.959,171.382 L46.838,171.382 L47.008,170.232 L48.129,170.232 L47.959,171.382 Z M56.395,165.112 C57.15,165.112 57.718,165.41 58.099,166.006 C58.48,166.601 58.605,167.348 58.472,168.247 L58.449,168.372 C58.305,169.324 57.947,170.084 57.374,170.651 C56.801,171.218 56.086,171.501 55.229,171.501 C54.41,171.501 53.789,171.205 53.366,170.614 C52.943,170.022 52.8,169.274 52.936,168.372 L52.959,168.247 C52.959,168.228 52.961,168.211 52.965,168.196 L52.988,168.088 L53.187,166.762 C53.369,165.549 53.73,164.677 54.271,164.148 C54.811,163.619 55.548,163.33 56.481,163.281 C57.008,163.254 57.421,163.189 57.721,163.084 C58.021,162.98 58.189,162.801 58.227,162.547 L59.081,162.547 L59.092,162.581 C59.02,163.207 58.762,163.632 58.318,163.858 C57.875,164.084 57.247,164.206 56.435,164.225 C55.859,164.244 55.375,164.401 54.982,164.697 C54.589,164.993 54.353,165.435 54.273,166.023 L54.29,166.051 C54.552,165.774 54.87,165.549 55.243,165.374 C55.6028957,165.202538 55.9963484,165.113055 56.395,165.112 Z M56.043,165.994 C55.531,165.994 55.099,166.211 54.748,166.646 C54.398,167.08 54.177,167.614 54.086,168.247 L54.063,168.372 C53.961,169.052 54.015,169.596 54.225,170.008 C54.435,170.419 54.814,170.625 55.36,170.625 C55.872,170.625 56.303,170.41 56.654,169.979 C57.005,169.549 57.23,169.013 57.328,168.372 L57.351,168.247 C57.45,167.58 57.392,167.037 57.178,166.62 C56.963,166.203 56.585,165.994 56.043,165.994 Z M62.978,171.382 C62.9710668,171.210414 62.9670662,171.038722 62.966,170.867 C62.966,170.736 62.974,170.602 62.989,170.466 C62.725729,170.765475 62.4107074,171.015121 62.059,171.203 C61.693,171.402 61.319,171.501 60.935,171.501 C60.317,171.501 59.859,171.335 59.561,171.003 C59.264,170.672 59.158,170.221 59.246,169.653 C59.333,169.045 59.636,168.581 60.156,168.258 C60.676,167.936 61.349,167.775 62.176,167.775 L63.393,167.775 L63.484,167.166 C63.541,166.791 63.475,166.501 63.288,166.299 C63.1,166.096 62.803,165.994 62.398,165.994 C62.052,165.994 61.748,166.085 61.488,166.267 C61.225,166.449 61.078,166.667 61.043,166.922 L59.973,166.932 L59.968,166.899 C60.014,166.432 60.285,166.018 60.782,165.656 C61.279,165.294 61.882,165.112 62.591,165.112 C63.262,165.112 63.789,165.292 64.172,165.65 C64.555,166.008 64.7,166.518 64.605,167.178 L64.161,170.142 C64.123,170.372 64.101,170.588 64.096,170.787 C64.09,170.987 64.102,171.185 64.133,171.382 L62.978,171.382 Z M61.242,170.562 C61.629,170.562 62.005,170.456 62.369,170.244 C62.733,170.032 62.985,169.793 63.126,169.527 L63.279,168.532 L62.022,168.532 C61.586,168.532 61.21,168.647 60.895,168.879 C60.581,169.109 60.402,169.375 60.361,169.675 C60.315,169.959 60.365,170.179 60.511,170.332 C60.657,170.486 60.901,170.562 61.242,170.562 Z M71.272,168.537 C71.132,169.459 70.812,170.183 70.314,170.71 C69.814,171.238 69.188,171.501 68.434,171.501 C68.066,171.501 67.747,171.434 67.478,171.299 C67.2091066,171.165133 66.9824323,170.959569 66.823,170.705 L66.368,173.748 L65.248,173.748 L66.522,165.226 L67.381,165.226 L67.438,166.023 C67.684,165.727 67.968,165.501 68.291,165.346 C68.6288546,165.186823 68.9985619,165.106794 69.372,165.112 C70.104,165.112 70.642,165.419 70.988,166.032 C71.333,166.644 71.433,167.439 71.289,168.418 L71.272,168.538 L71.272,168.537 Z M70.169,168.417 C70.279,167.693 70.229,167.113 70.021,166.677 C69.812,166.241 69.438,166.023 68.9,166.023 C68.589,166.023 68.307,166.098 68.055,166.247 C67.803,166.397 67.584,166.601 67.398,166.859 L66.954,169.817 C67.06,170.071 67.216,170.27 67.421,170.412 C67.626,170.554 67.893,170.625 68.223,170.625 C68.731,170.625 69.157,170.429 69.5,170.036 C69.843,169.644 70.06,169.144 70.152,168.537 L70.169,168.417 Z M73.969,167.57 L75.505,167.57 C76.203,167.57 76.735,167.746 77.101,168.1 C77.467,168.452 77.608,168.903 77.525,169.453 C77.4478007,170.009826 77.1529072,170.513303 76.705,170.853 C76.25,171.205 75.659,171.382 74.93,171.382 L72.28,171.382 L73.2,165.226 L74.322,165.226 L73.969,167.57 Z M73.838,168.446 L73.531,170.506 L75.061,170.506 C75.444,170.506 75.751,170.408 75.98,170.213 C76.21,170.017 76.347,169.777 76.392,169.493 C76.434,169.205 76.374,168.958 76.213,168.753 C76.052,168.549 75.77,168.446 75.368,168.446 L73.838,168.446 Z M81.086,171.501 C80.236,171.501 79.598,171.215 79.171,170.642 C78.745,170.069 78.6,169.33 78.736,168.423 L78.776,168.173 C78.909,167.255 79.27,166.516 79.86,165.954 C80.45,165.394 81.118,165.112 81.865,165.112 C82.658,165.112 83.229,165.372 83.578,165.892 C83.927,166.412 84.038,167.088 83.913,167.922 L83.828,168.514 L79.846,168.514 C79.758,169.167 79.823,169.682 80.039,170.059 C80.255,170.436 80.648,170.625 81.217,170.625 C81.581,170.625 81.919,170.57 82.232,170.46 C82.545,170.35 82.815,170.202 83.042,170.016 L83.372,170.745 C83.122,170.957 82.806,171.136 82.422,171.282 C82.04,171.428 81.594,171.502 81.086,171.502 L81.086,171.501 Z M81.734,165.994 C81.359,165.994 81.019,166.146 80.714,166.449 C80.3987796,166.768884 80.1720445,167.165153 80.056,167.599 L80.068,167.633 L82.838,167.633 L82.849,167.542 C82.918,167.082 82.865,166.71 82.69,166.424 C82.516,166.137 82.197,165.994 81.734,165.994 Z M90.324,168.537 C90.184,169.459 89.865,170.183 89.366,170.71 C88.867,171.238 88.241,171.501 87.486,171.501 C87.118,171.501 86.8,171.434 86.53,171.299 C86.261474,171.164982 86.0351602,170.959431 85.876,170.705 L85.421,173.748 L84.301,173.748 L85.574,165.226 L86.434,165.226 L86.49,166.023 C86.737,165.727 87.021,165.501 87.344,165.346 C87.6815503,165.186971 88.0508985,165.106946 88.424,165.112 C89.157,165.112 89.695,165.419 90.04,166.032 C90.386,166.644 90.486,167.439 90.342,168.418 L90.325,168.538 L90.324,168.537 Z M89.221,168.417 C89.331,167.693 89.281,167.113 89.073,166.677 C88.865,166.241 88.491,166.023 87.953,166.023 C87.642,166.023 87.36,166.098 87.108,166.247 C86.855,166.397 86.636,166.601 86.451,166.859 L86.007,169.817 C86.113,170.071 86.269,170.27 86.473,170.412 C86.678,170.554 86.946,170.625 87.276,170.625 C87.784,170.625 88.209,170.429 88.553,170.036 C88.896,169.644 89.113,169.144 89.204,168.537 L89.221,168.417 Z" id="Shape" fill="#6D6E71" fill-rule="nonzero"></path>
            <path d="M32.182,139.406 C32.152,139.254 32.152,139.133 32.152,138.981 C31.9320879,139.285944 31.6532577,139.543691 31.332,139.739 C31.0053803,139.944533 30.6258403,140.050193 30.24,140.043 C29.603,140.043 29.117,139.891 28.783,139.527 C28.4310781,139.161615 28.2445435,138.667805 28.267,138.161 C28.267,137.554 28.51,137.099 28.996,136.765 C29.481,136.432 30.118,136.25 30.938,136.25 L32.152,136.25 L32.152,135.643 C32.152,135.278 32.03,134.975 31.818,134.763 C31.605,134.55 31.272,134.429 30.878,134.429 C30.513,134.429 30.209,134.519 29.997,134.702 C29.7936434,134.865357 29.6716713,135.109301 29.663,135.37 L28.602,135.37 L28.602,135.34 C28.572,134.884 28.784,134.46 29.239,134.095 C29.695,133.731 30.271,133.518 30.969,133.518 C31.667,133.518 32.244,133.7 32.669,134.065 C33.093,134.429 33.306,134.945 33.306,135.612 L33.306,138.617 C33.306,138.829 33.306,139.041 33.336,139.254 C33.366,139.466 33.396,139.679 33.458,139.861 L32.272,139.861 L32.272,139.921 C32.242,139.739 32.212,139.557 32.181,139.406 L32.182,139.406 Z M30.345,139.041 C30.74,139.041 31.135,138.951 31.438,138.738 C31.771,138.526 31.984,138.283 32.075,138.01 L32.075,137.008 L30.831,137.008 C30.375,137.008 30.011,137.13 29.738,137.342 C29.485045,137.538183 29.3391018,137.841922 29.344,138.162 C29.3404256,138.40644 29.4265158,138.643721 29.586,138.829 C29.769,138.95 30.011,139.041 30.346,139.041 L30.345,139.041 Z M44.963,139.376 C44.933,139.224 44.933,139.102 44.933,138.951 C44.7130879,139.255944 44.4342577,139.513691 44.113,139.709 C43.7863803,139.914533 43.4068403,140.020193 43.021,140.013 C42.384,140.013 41.898,139.861 41.564,139.497 C41.2124428,139.131449 41.0262774,138.637659 41.049,138.131 C41.049,137.524 41.291,137.069 41.777,136.735 C42.262,136.402 42.9,136.22 43.719,136.22 L44.933,136.22 L44.933,135.613 C44.933,135.248 44.812,134.945 44.599,134.733 C44.387,134.52 44.053,134.399 43.659,134.399 C43.294,134.399 42.991,134.489 42.779,134.672 C42.5752688,134.835165 42.4529174,135.079137 42.444,135.34 L41.382,135.34 L41.382,135.31 C41.352,134.854 41.564,134.43 42.02,134.065 C42.475,133.701 43.051,133.488 43.75,133.488 C44.447,133.488 45.024,133.67 45.449,134.035 C45.874,134.399 46.086,134.915 46.086,135.582 L46.086,138.587 C46.086,138.799 46.086,139.011 46.116,139.224 C46.146,139.436 46.177,139.649 46.238,139.831 L45.054,139.831 L45.054,139.891 C45.024,139.709 44.994,139.527 44.964,139.376 L44.963,139.376 Z M43.126,139.011 C43.521,139.011 43.916,138.921 44.219,138.708 C44.553,138.496 44.765,138.253 44.856,137.98 L44.856,136.978 L43.612,136.978 C43.157,136.978 42.792,137.1 42.519,137.312 C42.266045,137.508183 42.1201018,137.811922 42.125,138.132 C42.1217029,138.376569 42.2081545,138.613866 42.368,138.799 C42.55,138.92 42.793,139.011 43.126,139.011 Z M56.37,133.651 C57.054,133.614 57.92,133.851 58.405,134.343 C58.942,134.887 59.325,135.563 59.325,136.681 C59.325,137.67 59.127,138.385 58.659,138.963 C58.131,139.615 57.307,139.914 56.639,139.914 C55.946,139.914 55.195,139.805 54.563,139.222 C54.046,138.744 53.568,137.925 53.616,136.782 C53.669,135.52 54.075,134.8 54.563,134.343 C55.057,133.882 55.637,133.691 56.37,133.651 Z M56.616,134.477 C55.831,134.477 54.881,134.989 54.881,136.577 C54.881,138.166 55.467,139.111 56.52,139.111 C57.572,139.111 58.263,138.041 58.156,136.577 C58.05,135.113 57.401,134.477 56.616,134.477 Z M25.63,131.621 L26.734,131.621 L26.734,139.794 L25.63,139.794 L25.63,136.174 L21.634,136.174 L21.634,139.794 L20.53,139.794 L20.53,131.621 L21.634,131.621 L21.634,135.336 L25.63,135.336 L25.63,131.621 Z M34.772,133.695 L35.842,133.695 L35.842,135.542 C35.841,136.794 36.722,137.199 38.487,136.754 L38.507,133.75 L39.594,133.75 L39.594,139.763 L38.507,139.763 C38.513,138.887 38.513,138.165 38.507,137.597 C37.359,137.908 35.647,137.929 35.043,136.757 C34.796,136.278 34.776,135.824 34.772,135.389 C34.7653144,134.824353 34.7653144,134.259647 34.772,133.695 Z M46.948,138.854 C46.957,139.113 46.919,139.329 46.919,139.794 C49.421,139.954 49.452,137.774 49.347,134.601 L51.377,134.598 L51.377,139.839 L52.47,139.839 L52.47,133.737 C50.754,133.713 49.34,133.713 48.227,133.737 C48.15,136.106 48.71,138.984 46.948,138.854 Z" id="Shape" fill="#2A3052" fill-rule="nonzero"></path>
        </g>
    </g>
</svg>