<?xml version="1.0" encoding="UTF-8"?>
<svg width="299px" height="197px" viewBox="0 0 299 197" version="1.1" xmlns="http://www.w3.org/2000/svg" xmlns:xlink="http://www.w3.org/1999/xlink">
    <!-- Generator: Sketch 52.6 (67491) - http://www.bohemiancoding.com/sketch -->
    <title>higher</title>
    <desc>Created with Sketch.</desc>
    <g id="Page-1" stroke="none" stroke-width="1" fill="none" fill-rule="evenodd">
        <g id="higher">
            <g id="higher-">
                <polygon id="Path" fill="#F1F2F2" points="0 0 299 0 299 197 0 197"></polygon>
                <path d="M1.98671096,1.9798995 L1.98671096,195.020101 L297.013289,195.020101 L297.013289,1.9798995 L1.98671096,1.9798995 Z M299,0 L299,197 L0,197 L0,0 L299,0 Z" id="Path" fill="#C2C2C2" fill-rule="nonzero"></path>
                <g id="content" transform="translate(0.000000, 32.000000)">
                    <path d="M3,23.0670861 L3,21.8631465 L293,21.8631465 L293,23.0670861 L3,23.0670861 Z M3,45.3926677 L3,44.188728 L293,44.188728 L293,45.3926677 L3,45.3926677 Z M3,63.9973189 L3,62.7933792 L293,62.7933792 L293,63.9973189 L3,63.9973189 Z M3,104.927552 L3,103.723612 L293,103.723612 L293,104.927552 L3,104.927552 Z M3,123.532203 L3,122.328263 L293,122.328263 L293,123.532203 L3,123.532203 Z M3,145.857784 L3,144.653845 L293,144.653845 L293,145.857784 L3,145.857784 Z M37.72025,2 L38.9207756,2 L38.9207756,162 L37.72025,162 L37.72025,2 Z M74.8997371,2 L76.1002628,2 L76.1002628,162 L74.8997371,162 L74.8997371,2 Z M112.079225,2 L113.27975,2 L113.27975,162 L112.079225,162 L112.079225,2 Z M145.540763,2 L146.741288,2 L146.741288,162 L145.540763,162 L145.540763,2 Z M182.720249,2 L183.920775,2 L183.920775,162 L182.720249,162 L182.720249,2 Z M219.899737,2 L221.100263,2 L221.100263,162 L219.899737,162 L219.899737,2 Z M257.079224,2 L258.279749,2 L258.279749,162 L257.079224,162 L257.079224,2 Z" id="Shape" fill="#DFDEDE" fill-rule="nonzero"></path>
                    <polygon id="Path" fill="#2A3052" fill-rule="nonzero" points="2.90644108 84.8198292 2.90644108 83.6048636 294.513238 83.6048636 294.513238 84.8198292"></polygon>
                    <polygon id="Path" fill="#C2C2C2" fill-rule="nonzero" points="0.799346801 2.77979041 0.799346801 0.349482925 294.362731 0.349482925 294.362731 2.77979041"></polygon>
                    <path d="M69.8331577,69.9227061 L39.7297268,125.818414 C39.2524205,126.704671 38.1470342,127.036191 37.2607773,126.558885 C36.3745205,126.081579 36.0430005,124.976192 36.5203068,124.089936 L67.8257075,65.9624233 C68.4164344,64.8655684 69.9089383,64.6714201 70.7606203,65.5806434 L101.146835,98.0198075 L145.211513,42.3765347 C145.964194,41.4260774 147.417767,41.4617155 148.122965,42.4479164 L191.533154,103.155915 L223.466424,20.2478218 C223.884498,19.1623808 225.198559,18.7409823 226.169914,19.3808559 L260.485449,41.9859996 C261.326064,42.5397495 261.558614,43.6701055 261.004864,44.5107205 C260.451114,45.3513355 259.320758,45.5838857 258.480143,45.0301358 L226.054628,23.6700308 L193.718989,107.622792 C193.197429,108.976913 191.379598,109.208208 190.535559,108.027841 L146.566093,46.5377088 L102.691451,101.941011 C101.999949,102.814214 100.693856,102.86841 99.9323892,102.055497 L69.8331577,69.9227061 Z" id="Path" fill="#2A3052" fill-rule="nonzero"></path>
                    <path d="M187.239564,115.191156 L152.058614,115.191156 L146.640372,106.96769 L141.22213,115.191156 L106.041181,115.191156 C103.407313,115.191156 101.300218,117.33151 101.300218,119.997566 L101.300218,144.818164 C101.300218,147.484219 103.444939,149.624573 106.041181,149.624573 L187.27719,149.624573 C189.911058,149.624573 192.018152,147.484219 192.018152,144.818164 L192.018152,119.997566 C192.018152,117.33151 189.873431,115.191156 187.239564,115.191156 Z" id="Path" fill="#E88024"></path>
                    <g id="Group" opacity="0.6" transform="translate(251.092045, 34.829995)" fill="#FFFFFF">
                        <ellipse id="Oval" cx="8.39075042" cy="8.6780726" rx="8.16499032" ry="8.4863164"></ellipse>
                    </g>
                    <path d="M259.482796,53.2095378 C254.291567,53.2095378 250.102652,48.8557715 250.102652,43.5080677 C250.102652,38.1603639 254.291567,33.8065976 259.482796,33.8065976 C264.674025,33.8065976 268.86294,38.1603639 268.86294,43.5080677 C268.86294,48.8557715 264.674025,53.2095378 259.482796,53.2095378 Z M259.482796,50.7792304 C263.310366,50.7792304 266.432633,47.5340901 266.432633,43.5080677 C266.432633,39.4820453 263.310366,36.236905 259.482796,36.236905 C255.655226,36.236905 252.532959,39.4820453 252.532959,43.5080677 C252.532959,47.5340901 255.655226,50.7792304 259.482796,50.7792304 Z" id="Oval" fill="#E88024" fill-rule="nonzero"></path>
                    <g id="Group" opacity="0.6" transform="translate(29.094613, 116.440155)" fill="#FFFFFF">
                        <ellipse id="Oval" cx="9.03040404" cy="8.5140203" rx="8.16499032" ry="8.4863164"></ellipse>
                    </g>
                    <path d="M38.1250168,134.655645 C32.9337879,134.655645 28.7448727,130.301879 28.7448727,124.954175 C28.7448727,119.606471 32.9337879,115.252705 38.1250168,115.252705 C43.3162457,115.252705 47.5051609,119.606471 47.5051609,124.954175 C47.5051609,130.301879 43.3162457,134.655645 38.1250168,134.655645 Z M38.1250168,132.225338 C41.9525872,132.225338 45.0748534,128.980197 45.0748534,124.954175 C45.0748534,120.928153 41.9525872,117.683012 38.1250168,117.683012 C34.2974464,117.683012 31.1751802,120.928153 31.1751802,124.954175 C31.1751802,128.980197 34.2974464,132.225338 38.1250168,132.225338 Z" id="Oval" fill="#E88024" fill-rule="nonzero"></path>
                </g>
            </g>
            <g id="Group" transform="translate(20.000000, 174.000000)" fill="#2A3052" fill-rule="nonzero">
                <path d="M12.707,8.555 C12.674,8.391 12.674,8.26 12.674,8.095 C12.444,8.424 12.148,8.687 11.787,8.917 C11.426,9.147 11.031,9.245 10.604,9.245 C9.914,9.245 9.389,9.081 9.028,8.687 C8.64683886,8.29144914 8.44475531,7.75677727 8.469,7.208 C8.469,6.552 8.732,6.058 9.258,5.698 C9.783,5.336 10.473,5.139 11.36,5.139 L12.674,5.139 L12.674,4.482 C12.674,4.088 12.543,3.759 12.313,3.529 C12.083,3.299 11.721,3.169 11.294,3.169 C10.9,3.169 10.572,3.267 10.342,3.464 C10.112,3.661 9.98,3.924 9.98,4.186 L8.83,4.186 L8.83,4.154 C8.798,3.661 9.028,3.201 9.52,2.807 C10.013,2.413 10.637,2.183 11.393,2.183 C12.148,2.183 12.773,2.38 13.233,2.773 C13.693,3.168 13.923,3.727 13.923,4.449 L13.923,7.701 C13.923,7.931 13.923,8.161 13.955,8.391 C13.988,8.621 14.021,8.851 14.086,9.048 L12.806,9.048 L12.806,9.114 C12.772,8.917 12.74,8.72 12.706,8.555 L12.707,8.555 Z M10.718,8.161 C11.145,8.161 11.573,8.063 11.901,7.833 C12.262,7.603 12.492,7.34 12.591,7.044 L12.591,5.96 L11.244,5.96 C10.751,5.96 10.357,6.092 10.061,6.322 C9.766,6.552 9.634,6.88 9.634,7.208 C9.634,7.504 9.733,7.734 9.897,7.931 C10.094,8.063 10.357,8.161 10.718,8.161 Z M26.542,8.523 C26.509,8.359 26.509,8.227 26.509,8.063 C26.279,8.391 25.983,8.654 25.622,8.884 C25.261,9.114 24.867,9.213 24.44,9.213 C23.75,9.213 23.224,9.048 22.863,8.654 C22.4820962,8.25869227 22.2800329,7.7244355 22.304,7.176 C22.304,6.519 22.567,6.026 23.093,5.665 C23.618,5.304 24.308,5.107 25.195,5.107 L26.509,5.107 L26.509,4.45 C26.509,4.055 26.378,3.727 26.148,3.497 C25.918,3.267 25.556,3.136 25.129,3.136 C24.735,3.136 24.407,3.234 24.177,3.431 C23.947,3.628 23.815,3.891 23.815,4.154 L22.665,4.154 L22.665,4.121 C22.633,3.628 22.863,3.168 23.355,2.774 C23.848,2.38 24.472,2.15 25.228,2.15 C25.983,2.15 26.608,2.347 27.068,2.741 C27.528,3.136 27.758,3.694 27.758,4.417 L27.758,7.669 C27.758,7.899 27.758,8.129 27.79,8.359 C27.823,8.589 27.856,8.819 27.922,9.016 L26.64,9.016 L26.64,9.081 C26.6101466,8.89451687 26.5774762,8.70849562 26.542,8.523 Z M24.554,8.129 C24.981,8.129 25.408,8.03 25.736,7.8 C26.097,7.57 26.327,7.307 26.426,7.012 L26.426,5.928 L25.079,5.928 C24.586,5.928 24.192,6.059 23.897,6.289 C23.601,6.519 23.47,6.848 23.47,7.176 C23.47,7.472 23.568,7.702 23.732,7.899 C23.929,8.03 24.192,8.129 24.554,8.129 Z M38.889,2.326 C39.629,2.286 40.568,2.543 41.092,3.076 C41.672,3.664 42.088,4.396 42.088,5.606 C42.088,6.676 41.874,7.45 41.368,8.076 C40.795,8.782 39.904,9.106 39.18,9.106 C38.43,9.106 37.617,8.988 36.933,8.356 C36.373,7.839 35.856,6.953 35.908,5.716 C35.965,4.349 36.405,3.569 36.933,3.076 C37.468,2.576 38.095,2.369 38.889,2.326 Z M39.155,3.22 C38.305,3.22 37.278,3.775 37.278,5.494 C37.278,7.213 37.912,8.236 39.051,8.236 C40.191,8.236 40.938,7.079 40.823,5.494 C40.707,3.909 40.005,3.22 39.155,3.22 Z M5.615,0.13 L6.81,0.13 L6.81,8.976 L5.615,8.976 L5.615,5.056 L1.29,5.056 L1.29,8.976 L0.095,8.976 L0.095,0.129 L1.29,0.129 L1.29,4.15 L5.616,4.15 L5.615,0.13 Z M15.51,2.374 L16.669,2.374 L16.669,4.373 C16.667,5.729 17.621,6.166 19.532,5.685 L19.553,2.434 L20.73,2.434 L20.73,8.942 L19.553,8.942 C19.56,7.994 19.56,7.212 19.553,6.597 C18.31,6.934 16.458,6.957 15.803,5.688 C15.536,5.17 15.515,4.678 15.51,4.208 C15.5027606,3.5966881 15.5027606,2.9853119 15.51,2.374 Z M28.69,7.958 C28.7,8.238 28.66,8.473 28.66,8.976 C31.367,9.148 31.401,6.789 31.287,3.355 L33.484,3.351 L33.484,9.024 L34.668,9.024 L34.668,2.42 C33.1371144,2.39352734 31.6058856,2.39352734 30.075,2.42 C29.992,4.983 30.598,8.099 28.691,7.958 L28.69,7.958 Z" id="Shape"></path>
            </g>
            <g id="Group" transform="translate(243.000000, 92.000000)" fill="#2A3052" fill-rule="nonzero">
                <path d="M28.456,6.521 L23.982,6.521 C23.982,7.351 24.152,7.951 24.49,8.322 C24.936,8.809 25.405,8.985 26.048,8.922 C27.172,8.809 27.388,8.508 27.853,8.242 L28.327,9.055 C27.774,9.627 26.888,9.913 25.671,9.913 C23.845,9.913 22.732,8.4 22.66,6.599 C22.587,4.798 23.306,2.709 25.671,2.62 C27.676,2.674 28.604,3.974 28.456,6.521 Z M27.2,5.531 C27.187,4.264 26.678,3.631 25.672,3.631 C24.667,3.631 24.117,4.264 24.024,5.531 L27.2,5.531 Z M10.79,2.625 C11.56,2.583 12.534,2.85 13.08,3.403 C13.683,4.015 14.114,4.777 14.114,6.033 C14.114,7.147 13.892,7.951 13.366,8.601 C12.771,9.336 11.844,9.672 11.093,9.672 C10.313,9.672 9.467,9.549 8.757,8.892 C8.175,8.355 7.637,7.434 7.691,6.148 C7.751,4.728 8.207,3.918 8.757,3.403 C9.312,2.884 9.965,2.67 10.789,2.625 L10.79,2.625 Z M11.066,3.555 C10.183,3.555 9.115,4.13 9.115,5.917 C9.115,7.705 9.774,8.767 10.958,8.767 C12.142,8.767 12.92,7.565 12.8,5.917 C12.68,4.27 11.95,3.554 11.066,3.554 L11.066,3.555 Z M29.817,2.759 L31.025,2.759 L31.025,8.686 L34.068,8.686 L34.068,2.759 L35.322,2.759 L35.322,8.686 L36.154,8.686 L36.154,11.903 L34.944,11.903 L34.944,9.681 L29.817,9.681 L29.817,2.759 Z M0.281,0.386 L1.494,0.386 L1.494,4.376 L2.258,4.376 L5.616,0.386 L7.004,0.386 L3.305,4.759 L7.336,9.649 L5.81,9.649 L2.258,5.444 L1.494,5.444 L1.494,9.649 L0.281,9.649 L0.281,0.386 Z M15.567,2.788 L16.835,2.788 L16.835,5.722 L19.852,5.722 L19.852,2.788 L21.044,2.788 L21.044,9.573 L19.852,9.573 L19.852,6.719 L16.835,6.719 L16.835,9.573 L15.567,9.573 L15.567,2.788 Z" id="Shape"></path>
            </g>
            <g id="Group" transform="translate(247.000000, 124.000000)" fill="#6D6E71" fill-rule="nonzero">
                <path d="M14.698,7.688 C14.766,7.856 14.846,8.034 15.031,8.43 C13.627,9.5 12.012,9.354 11.258,8.912 C10.121,8.246 10.121,7.009 10.128,6.052 C10.135,4.832 11.032,2.562 13.528,2.562 C16.026,2.562 15.616,5.259 15.495,6.052 C15.239,6.052 13.862,6.077 11.363,6.127 C11.131,9.093 13.373,8.43 14.698,7.688 Z M14.548,5.303 C14.693,4.132 14.333,3.546 13.468,3.546 C12.17,3.546 11.716,4.921 11.57,5.303 L14.547,5.303 L14.548,5.303 Z" id="Shape"></path>
                <path d="M2.211,0.385 L3.384,0.385 L2.211,8.244 L6.479,8.244 L7.649,0.385 L8.974,0.385 L7.648,8.244 L8.77,8.244 L8.348,11.343 L7.155,11.343 L7.438,9.214 L0.9,9.214 L2.211,0.385 Z M20.603,9.147 L21.779,9.147 L22.717,2.691 C21.23,2.711 19.716,2.711 18.173,2.691 C17.668,5.777 17.478,8.409 15.946,8.142 L15.778,9.147 C16.78,9.147 17.45,8.942 17.788,8.533 C19.025,7.033 18.965,4.908 19.178,3.585 L21.41,3.585 L20.603,9.147 Z M24.373,2.645 L25.487,2.645 C25.295,4.116 25.176,4.948 25.129,5.14 L27.171,5.14 C28.031,5.14 29.019,5.868 28.964,6.894 C28.884,8.396 27.53,9.174 26.464,9.174 L23.376,9.174 C23.582,7.47 23.915,5.294 24.373,2.645 Z M24.681,8.247 L26.411,8.247 C26.674,8.247 27.587,8.068 27.731,7.147 C27.874,6.227 26.966,6.048 26.736,6.048 L25.012,6.048 L24.682,8.248 L24.681,8.247 Z" id="Shape" stroke="#979797" stroke-width="0.5"></path>
            </g>
            <g id="Group" transform="translate(115.000000, 158.000000)" fill="#FFFFFF" fill-rule="nonzero">
                <path d="M70.394,7.304 L68.429,7.304 L68.429,0.802 L70.394,0.802 L70.394,7.304 Z M70.394,10.725 L68.429,10.725 L68.429,8.978 L70.394,8.978 L70.394,10.725 Z" id="Shape"></path>
                <path d="M0.021,0.345 L4.194,0.345 C4.95,0.345 6.905,0.915 7.037,2.686 C7.125,3.866 6.645,4.701 5.597,5.188 C6.936,5.513 7.63,6.351 7.678,7.7 C7.751,9.724 5.826,10.708 4.609,10.708 L0.021,10.708 L0.021,0.345 Z M1.666,9.303 L4.024,9.303 C4.587,9.303 5.936,9.199 5.936,7.633 C5.936,6.065 4.273,5.962 4.024,5.962 L1.666,5.962 L1.666,9.302 L1.666,9.303 Z M1.706,1.671 L1.706,4.644 L3.642,4.644 C4.654,4.644 5.383,4.124 5.321,3.018 C5.258,1.913 4.308,1.696 3.642,1.671 L1.706,1.671 Z M9.385,2.959 L11.085,2.959 L11.085,5.643 L13.122,5.643 C13.612,5.643 16.042,6.023 15.926,8.218 C15.809,10.414 13.882,10.679 12.999,10.679 L9.385,10.679 L9.385,2.959 Z M11.105,7.049 L11.105,9.336 L12.777,9.336 C13.194,9.336 14.222,9.177 14.222,8.193 C14.222,7.208 13.172,7.05 12.777,7.05 L11.105,7.05 L11.105,7.049 Z M44.002,2.809 L45.703,2.809 L45.703,5.493 L47.739,5.493 C48.23,5.493 50.659,5.873 50.543,8.068 C50.427,10.264 48.5,10.529 47.617,10.529 L44.002,10.529 L44.002,2.809 Z M45.722,6.899 L45.722,9.186 L47.394,9.186 C47.812,9.186 48.84,9.027 48.84,8.043 C48.84,7.058 47.79,6.9 47.394,6.9 L45.722,6.9 L45.722,6.899 Z M17.051,2.952 L18.696,2.952 L18.696,10.704 L17.051,10.704 L17.051,2.952 Z M51.728,2.793 L53.372,2.793 L53.372,10.545 L51.728,10.545 L51.728,2.793 Z M21.065,2.955 L22.724,2.955 L22.724,8.145 L25.839,2.955 L27.499,2.955 L27.499,10.669 L25.839,10.669 L25.839,5.509 L22.788,10.669 L21.065,10.669 L21.065,2.955 Z M34.463,2.989 L34.463,4.336 L31.175,4.336 L31.175,10.674 L29.382,10.674 L29.382,2.989 L34.463,2.989 Z M35.52,2.945 L36.997,2.96 L37.137,3.936 C37.911,2.823 39.32,2.533 40.552,3.073 C41.558,3.514 42.204,5.109 42.261,6.093 C42.363,7.876 42.332,9.263 41.061,10.28 C39.788,11.297 38.167,10.938 37.209,9.918 L37.209,13.643 L35.519,13.643 L35.519,2.945 L35.52,2.945 Z M37.268,5.11 C37.288,6.098 37.274,7.318 37.268,8.633 C38.14,9.86 39.29,9.488 39.836,9.151 C40.407,8.799 40.618,7.604 40.55,6.529 C40.502,5.774 40.123,4.559 39.348,4.307 C38.568,4.053 37.892,4.194 37.268,5.11 Z M55.802,2.947 L55.802,10.666 L65.854,10.666 L65.854,2.947 L64.102,2.947 L64.102,9.273 L61.748,9.273 L61.748,2.947 L60.022,2.947 L60.022,9.273 L57.532,9.273 C57.512,5.579 57.512,3.47 57.532,2.947 L55.802,2.947 Z" id="Shape"></path>
            </g>
            <g id="Group" transform="translate(15.000000, 10.000000)" fill="#020202" fill-rule="nonzero">
                <path d="M38.342,8.558 C38.532,10.639 39.964,11.109 42.64,9.968 C42.885,10.523 43.094,11.012 43.265,11.433 C37.865,13.899 36.033,10.323 35.99,8.558 C35.947,6.793 36.033,3.477 39.907,3.477 C42.49,3.477 43.668,5.171 43.441,8.557 L38.342,8.557 L38.342,8.558 Z M41.206,7.007 C41.199,6.727 41.386,5.244 39.92,5.244 C38.455,5.244 38.438,6.627 38.36,7.007 L41.206,7.007 Z M0.271,0.883 L4.471,0.883 C5.34,0.883 7.704,1.062 8.065,3.183 C8.305,4.596 7.814,5.603 6.591,6.203 C7.49,6.45 8.401,6.691 8.679,8.621 C8.809,9.517 8.354,10.661 7.566,11.258 C6.659,11.945 5.379,12.017 5.184,12.017 L0.271,12.017 L0.271,0.883 Z M2.48,2.596 C2.479,3.316 2.503,4.162 2.48,5.521 C3.988,5.506 5.863,5.882 5.863,4.036 C5.863,2.189 3.267,2.616 2.48,2.596 Z M2.497,7.083 L2.497,10.308 C4.096,10.379 5.112,10.333 5.545,10.168 C6.248,9.903 6.405,9.324 6.405,8.695 C6.405,8.102 6.171,7.545 5.545,7.275 C5.111,7.087 4.095,7.023 2.497,7.083 Z M10.57,3.716 L12.863,3.716 L12.863,6.391 C15.708,6.285 18.013,6.805 18.013,9.128 C18.013,11.452 15.816,11.982 14.843,12.038 C13.983,12.038 12.558,12.048 10.569,12.067 L10.569,3.716 L10.57,3.716 Z M12.851,10.328 L14.619,10.328 C15.164,10.32 15.773,10.018 15.773,9.15 C15.773,8.284 14.8,8.133 14.567,8.126 C13.9950255,8.11937433 13.4230068,8.11737426 12.851,8.12 L12.851,10.328 Z M18.816,3.695 L21.071,3.695 L21.071,12.02 L18.816,12.02 L18.816,3.695 Z M23.415,3.702 L25.632,3.702 L25.632,10.362 L27.945,10.362 L27.945,3.702 L30.165,3.702 L30.165,10.362 L32.48,10.362 L32.48,3.702 L34.716,3.702 L34.716,12.017 L23.416,12.017 L23.415,3.702 Z" id="Shape"></path>
            </g>
        </g>
    </g>
</svg>