<?xml version="1.0" encoding="UTF-8"?>
<svg width="299px" height="197px" viewBox="0 0 299 197" version="1.1" xmlns="http://www.w3.org/2000/svg" xmlns:xlink="http://www.w3.org/1999/xlink">
    <!-- Generator: Sketch 52.6 (67491) - http://www.bohemiancoding.com/sketch -->
    <title>high close</title>
    <desc>Created with Sketch.</desc>
    <g id="Page-1" stroke="none" stroke-width="1" fill="none" fill-rule="evenodd">
        <g id="high-close">
            <g id="Group">
                <polygon id="Shape" fill="#F1F2F2" points="0 0 299 0 299 197 0 197"></polygon>
                <path d="M1.98671096,1.9798995 L1.98671096,195.020101 L297.013289,195.020101 L297.013289,1.9798995 L1.98671096,1.9798995 Z M299,0 L299,197 L0,197 L0,0 L299,0 Z" id="Shape" fill="#C2C2C2" fill-rule="nonzero"></path>
                <path d="M4.887,56.1681983 L4.887,54.9623677 L294.54325,54.9623677 L294.54325,56.1681983 L4.887,56.1681983 Z M4.887,96.4974436 L4.887,95.291613 L294.54325,95.291613 L294.54325,96.4974436 L4.887,96.4974436 Z M4.887,136.826689 L4.887,135.620859 L294.54325,135.620859 L294.54325,136.826689 L4.887,136.826689 Z M4.887,177.118764 L4.887,175.912934 L294.54325,175.912934 L294.54325,177.118764 L4.887,177.118764 Z M39.2670847,35.4192453 L40.4729153,35.4192453 L40.4729153,194.283019 L39.2670847,194.283019 L39.2670847,35.4192453 Z M75.9319597,35.4192453 L77.1377903,35.4192453 L77.1377903,194.283019 L75.9319597,194.283019 L75.9319597,35.4192453 Z M112.55946,35.4192453 L113.76529,35.4192453 L113.76529,194.283019 L112.55946,194.283019 L112.55946,35.4192453 Z M149.224335,35.4192453 L150.430165,35.4192453 L150.430165,194.283019 L149.224335,194.283019 L149.224335,35.4192453 Z M185.851835,35.4192453 L187.057665,35.4192453 L187.057665,194.283019 L185.851835,194.283019 L185.851835,35.4192453 Z M222.479335,35.4192453 L223.685165,35.4192453 L223.685165,194.283019 L222.479335,194.283019 L222.479335,35.4192453 Z M4.887,116.643481 L4.887,115.437651 L294.54325,115.437651 L294.54325,116.643481 L4.887,116.643481 Z" id="Shape-2" fill="#DFDEDE" fill-rule="nonzero"></path>
                <path d="M4.887,65.1614382 L4.887,64.0336562 L12.3557552,64.0336562 L12.3557552,65.1614382 L4.887,65.1614382 Z M19.8245105,65.1614382 L19.8245105,64.0336562 L27.2932657,64.0336562 L27.2932657,65.1614382 L19.8245105,65.1614382 Z M34.762021,65.1614382 L34.762021,64.0336562 L42.2307762,64.0336562 L42.2307762,65.1614382 L34.762021,65.1614382 Z M49.6995315,65.1614382 L49.6995315,64.0336562 L57.1682867,64.0336562 L57.1682867,65.1614382 L49.6995315,65.1614382 Z M64.637042,65.1614382 L64.637042,64.0336562 L72.1057972,64.0336562 L72.1057972,65.1614382 L64.637042,65.1614382 Z M79.5745525,65.1614382 L79.5745525,64.0336562 L87.0433077,64.0336562 L87.0433077,65.1614382 L79.5745525,65.1614382 Z M94.5120629,65.1614382 L94.5120629,64.0336562 L101.980818,64.0336562 L101.980818,65.1614382 L94.5120629,65.1614382 Z M109.449573,65.1614382 L109.449573,64.0336562 L116.918329,64.0336562 L116.918329,65.1614382 L109.449573,65.1614382 Z M124.387084,65.1614382 L124.387084,64.0336562 L131.855839,64.0336562 L131.855839,65.1614382 L124.387084,65.1614382 Z M139.324594,65.1614382 L139.324594,64.0336562 L146.79335,64.0336562 L146.79335,65.1614382 L139.324594,65.1614382 Z M154.262105,65.1614382 L154.262105,64.0336562 L161.73086,64.0336562 L161.73086,65.1614382 L154.262105,65.1614382 Z M169.199615,65.1614382 L169.199615,64.0336562 L176.668371,64.0336562 L176.668371,65.1614382 L169.199615,65.1614382 Z M184.137126,65.1614382 L184.137126,64.0336562 L191.605881,64.0336562 L191.605881,65.1614382 L184.137126,65.1614382 Z M199.074636,65.1614382 L199.074636,64.0336562 L206.543392,64.0336562 L206.543392,65.1614382 L199.074636,65.1614382 Z M214.012147,65.1614382 L214.012147,64.0336562 L221.480902,64.0336562 L221.480902,65.1614382 L214.012147,65.1614382 Z M228.949657,65.1614382 L228.949657,64.0336562 L236.418413,64.0336562 L236.418413,65.1614382 L228.949657,65.1614382 Z M243.887168,65.1614382 L243.887168,64.0336562 L251.355923,64.0336562 L251.355923,65.1614382 L243.887168,65.1614382 Z M258.824678,65.1614382 L258.824678,64.0336562 L266.293434,64.0336562 L266.293434,65.1614382 L258.824678,65.1614382 Z M273.762189,65.1614382 L273.762189,64.0336562 L281.230944,64.0336562 L281.230944,65.1614382 L273.762189,65.1614382 Z M288.699699,65.1614382 L288.699699,64.0336562 L294.54325,64.0336562 L294.54325,65.1614382 L288.699699,65.1614382 Z" id="Shape-3" fill="#15212D" fill-rule="nonzero"></path>
                <polygon id="Path" fill="#2A3052" fill-rule="nonzero" points="240.45671 35.4192453 241.66254 35.4192453 241.66254 194.283019 240.45671 194.283019"></polygon>
                <path d="M4.887,156.933702 L4.887,155.80592 L12.3557552,155.80592 L12.3557552,156.933702 L4.887,156.933702 Z M19.8245105,156.933702 L19.8245105,155.80592 L27.2932657,155.80592 L27.2932657,156.933702 L19.8245105,156.933702 Z M34.762021,156.933702 L34.762021,155.80592 L42.2307762,155.80592 L42.2307762,156.933702 L34.762021,156.933702 Z M49.6995315,156.933702 L49.6995315,155.80592 L57.1682867,155.80592 L57.1682867,156.933702 L49.6995315,156.933702 Z M64.637042,156.933702 L64.637042,155.80592 L72.1057972,155.80592 L72.1057972,156.933702 L64.637042,156.933702 Z M79.5745525,156.933702 L79.5745525,155.80592 L87.0433077,155.80592 L87.0433077,156.933702 L79.5745525,156.933702 Z M94.5120629,156.933702 L94.5120629,155.80592 L101.980818,155.80592 L101.980818,156.933702 L94.5120629,156.933702 Z M109.449573,156.933702 L109.449573,155.80592 L116.918329,155.80592 L116.918329,156.933702 L109.449573,156.933702 Z M124.387084,156.933702 L124.387084,155.80592 L131.855839,155.80592 L131.855839,156.933702 L124.387084,156.933702 Z M139.324594,156.933702 L139.324594,155.80592 L146.79335,155.80592 L146.79335,156.933702 L139.324594,156.933702 Z M154.262105,156.933702 L154.262105,155.80592 L161.73086,155.80592 L161.73086,156.933702 L154.262105,156.933702 Z M169.199615,156.933702 L169.199615,155.80592 L176.668371,155.80592 L176.668371,156.933702 L169.199615,156.933702 Z M184.137126,156.933702 L184.137126,155.80592 L191.605881,155.80592 L191.605881,156.933702 L184.137126,156.933702 Z M199.074636,156.933702 L199.074636,155.80592 L206.543392,155.80592 L206.543392,156.933702 L199.074636,156.933702 Z M214.012147,156.933702 L214.012147,155.80592 L221.480902,155.80592 L221.480902,156.933702 L214.012147,156.933702 Z M228.949657,156.933702 L228.949657,155.80592 L236.418413,155.80592 L236.418413,156.933702 L228.949657,156.933702 Z M243.887168,156.933702 L243.887168,155.80592 L251.355923,155.80592 L251.355923,156.933702 L243.887168,156.933702 Z M258.824678,156.933702 L258.824678,155.80592 L266.293434,155.80592 L266.293434,156.933702 L258.824678,156.933702 Z M273.762189,156.933702 L273.762189,155.80592 L281.230944,155.80592 L281.230944,156.933702 L273.762189,156.933702 Z M288.699699,156.933702 L288.699699,155.80592 L294.54325,155.80592 L294.54325,156.933702 L288.699699,156.933702 Z" id="Path-2" fill="#15212D" fill-rule="nonzero"></path>
                <polygon id="Shape-4" fill="#C2C2C2" fill-rule="nonzero" points="2.794 35.4358286 2.794 33.023794 296.63625 33.023794 296.63625 35.4358286"></polygon>
                <path d="M21.9184493,117.693023 C21.0058223,118.099477 19.9364962,117.689142 19.5300426,116.776515 C19.123589,115.863888 19.5339236,114.794562 20.4465507,114.388109 L56.1920007,98.4682786 C56.8186454,98.1891919 57.5492377,98.2885757 58.0785624,98.7249108 L83.037108,119.298844 L125.345574,64.0442066 C126.251105,62.8615879 128.117921,63.2189352 128.522685,64.6523714 L158.357145,170.308559 L174.71164,108.34568 C174.807525,107.982395 175.014153,107.657982 175.302829,107.41749 L202.657592,84.6286784 C203.541532,83.8922823 204.879278,84.1572972 205.415706,85.1750762 L242.790706,156.087642 C243.256521,156.971445 242.917675,158.065528 242.033871,158.531343 C241.150068,158.997158 240.055985,158.658312 239.59017,157.774508 L203.256822,88.8382966 L178.062305,109.827443 L160.16506,177.635396 C159.695113,179.415903 157.175582,179.437512 156.675165,177.665327 L126.022408,69.1112111 L84.7696381,122.987114 C84.1467836,123.800559 82.9733241,123.934871 82.1827751,123.283202 L56.6412045,102.228668 L21.9184493,117.693023 Z" id="Shape-5" fill="#2A3052" fill-rule="nonzero"></path>
                <g opacity="0.6" transform="translate(232.725000, 146.962264)" fill="#FFFFFF" id="Oval">
                    <ellipse cx="8.110375" cy="9.2588679" rx="8.110375" ry="8.40037736"></ellipse>
                </g>
                <path d="M240.835375,165.827527 C235.680409,165.827527 231.518983,161.517301 231.518983,156.221132 C231.518983,150.924963 235.680409,146.614737 240.835375,146.614737 C245.990341,146.614737 250.151767,150.924963 250.151767,156.221132 C250.151767,161.517301 245.990341,165.827527 240.835375,165.827527 Z M240.835375,163.415492 C244.638882,163.415492 247.739733,160.203764 247.739733,156.221132 C247.739733,152.2385 244.638882,149.026772 240.835375,149.026772 C237.031868,149.026772 233.931017,152.2385 233.931017,156.221132 C233.931017,160.203764 237.031868,163.415492 240.835375,163.415492 Z" id="Oval-2" fill="#E88024" fill-rule="nonzero"></path>
                <g id="Group-2" opacity="0.6" transform="translate(117.862500, 56.754717)" fill="#FFFFFF">
                    <ellipse id="Oval-3" cx="8.979125" cy="8.40037736" rx="8.110375" ry="8.40037736"></ellipse>
                </g>
                <path d="M126.841625,74.7614889 C121.686659,74.7614889 117.525233,70.4512631 117.525233,65.1550943 C117.525233,59.8589255 121.686659,55.5486997 126.841625,55.5486997 C131.996591,55.5486997 136.158017,59.8589255 136.158017,65.1550943 C136.158017,70.4512631 131.996591,74.7614889 126.841625,74.7614889 Z M126.841625,72.3494544 C130.645132,72.3494544 133.745983,69.1377262 133.745983,65.1550943 C133.745983,61.1724624 130.645132,57.9607342 126.841625,57.9607342 C123.038118,57.9607342 119.937267,61.1724624 119.937267,65.1550943 C119.937267,69.1377262 123.038118,72.3494544 126.841625,72.3494544 Z" id="Oval-4" fill="#E88024" fill-rule="nonzero"></path>
            </g>
            <path d="M20.194,17.818 L20.231,17.818 L22.562,11.13 L24.937,11.13 L24.937,20.206 L23.117,20.206 L23.117,14.01 L23.08,14.004 L20.836,20.206 L19.602,20.206 L17.358,13.991 L17.32,13.998 L17.32,20.206 L15.5,20.206 L15.5,11.13 L17.888,11.13 L20.194,17.818 Z M30.447,20.206 C30.3791506,20.048024 30.3220213,19.8856563 30.276,19.72 C30.2279086,19.5483213 30.1934679,19.3731085 30.173,19.196 C29.986,19.524 29.739,19.796 29.431,20.013 C29.124,20.229 28.758,20.337 28.334,20.337 C27.628,20.337 27.084,20.155 26.701,19.791 C26.319,19.428 26.128,18.932 26.128,18.305 C26.128,17.644 26.382,17.132 26.891,16.768 C27.401,16.405 28.143,16.223 29.12,16.223 L30.142,16.223 L30.142,15.687 C30.142,15.363 30.057,15.111 29.886,14.933 C29.716,14.753 29.462,14.664 29.126,14.664 C28.831,14.664 28.603,14.736 28.443,14.88 C28.283,15.023 28.203,15.22 28.203,15.469 L26.452,15.469 L26.439,15.431 C26.41,14.861 26.659,14.371 27.184,13.957 C27.71,13.544 28.397,13.337 29.244,13.337 C30.054,13.337 30.71,13.54 31.211,13.947 C31.711,14.355 31.962,14.939 31.962,15.699 L31.962,18.485 C31.962,18.801 31.986,19.098 32.034,19.377 C32.081,19.655 32.157,19.931 32.261,20.206 L30.447,20.206 Z M28.783,18.99 C29.099,18.99 29.381,18.911 29.631,18.753 C29.881,18.596 30.051,18.413 30.141,18.205 L30.141,17.251 L29.12,17.251 C28.733,17.251 28.441,17.347 28.244,17.538 C28.050368,17.7203537 27.9428517,17.9760682 27.948,18.242 C27.948,18.471 28.022,18.652 28.169,18.788 C28.317,18.923 28.521,18.99 28.783,18.99 Z M35.951,17.681 L35.253,17.681 L35.253,20.206 L33.433,20.206 L33.433,13.461 L35.253,13.461 L35.253,16.03 L35.795,16.03 L37.341,13.461 L39.641,13.461 L37.41,16.591 L39.84,20.206 L37.416,20.206 L35.951,17.681 Z M43.319,18.941 C43.635,18.941 43.886,18.846 44.073,18.657 C44.26,18.467 44.353,18.215 44.353,17.899 L46.011,17.899 L46.024,17.937 C46.041,18.618 45.787,19.189 45.264,19.647 C44.74,20.107 44.092,20.337 43.319,20.337 C42.321,20.337 41.551,20.017 41.006,19.38 C40.462,18.742 40.19,17.926 40.19,16.933 L40.19,16.746 C40.19,15.757 40.46,14.942 41.003,14.3 C41.545,13.658 42.313,13.337 43.306,13.337 C44.129,13.337 44.792,13.574 45.295,14.047 C45.797,14.521 46.041,15.144 46.024,15.917 L46.011,15.955 L44.353,15.955 C44.353,15.605 44.261,15.315 44.076,15.085 C43.891,14.855 43.635,14.739 43.306,14.739 C42.836,14.739 42.503,14.927 42.306,15.303 C42.108,15.679 42.01,16.16 42.01,16.746 L42.01,16.933 C42.01,17.532 42.108,18.016 42.306,18.386 C42.503,18.756 42.841,18.94 43.319,18.94 L43.319,18.941 Z M48.134,18.278 C48.415,18.278 48.644,18.368 48.849,18.572 C49.0405396,18.7601768 49.1467657,19.0185158 49.143,19.287 C49.143,19.567 49.041,19.797 48.849,20.001 C48.645,20.181 48.415,20.282 48.134,20.282 C47.8718303,20.2870724 47.6187111,20.1861132 47.432,20.002 C47.2378639,19.8156567 47.1314551,19.5559902 47.139,19.287 C47.139,19.006 47.228,18.763 47.432,18.572 C47.611,18.368 47.853,18.278 48.134,18.278 Z M50.534,16.3 L56.981,16.3 L56.981,17.5 L50.534,17.5 L50.534,16.3 Z M61.777,14.895 C62.346,14.895 62.767,14.783 63.042,14.559 C63.316,14.334 63.453,14.02 63.453,13.617 C63.453,13.268 63.302,12.978 62.998,12.747 C62.695,12.517 62.254,12.402 61.677,12.402 C61.224,12.402 60.847,12.511 60.549,12.729 C60.249,12.947 60.099,13.227 60.099,13.567 L58.336,13.567 L58.33,13.53 C58.305,12.778 58.618,12.168 59.27,11.7 C59.923,11.233 60.725,11 61.677,11 C62.782,11 63.657,11.224 64.301,11.673 C64.945,12.121 65.267,12.761 65.267,13.593 C65.267,14.008 65.132,14.388 64.862,14.733 C64.592,15.078 64.22,15.348 63.746,15.543 C64.282,15.722 64.694,15.99 64.98,16.347 C65.267,16.705 65.41,17.143 65.41,17.663 C65.41,18.498 65.066,19.153 64.376,19.626 C63.686,20.1 62.786,20.336 61.676,20.336 C60.721,20.336 59.896,20.114 59.202,19.67 C58.508,19.225 58.174,18.577 58.199,17.725 L58.205,17.688 L59.975,17.688 C59.975,18.041 60.135,18.338 60.452,18.578 C60.77,18.82 61.178,18.94 61.677,18.94 C62.267,18.94 62.733,18.819 63.077,18.576 C63.419,18.333 63.59,18.022 63.59,17.644 C63.59,17.166 63.438,16.816 63.132,16.594 C62.827,16.371 62.375,16.26 61.777,16.26 L60.549,16.26 L60.549,14.896 L61.777,14.896 L61.777,14.895 Z M70.677,20.205 C70.6091928,20.0473492 70.5520639,19.885317 70.506,19.72 C70.4579086,19.5483213 70.4234679,19.3731085 70.403,19.196 C70.216,19.524 69.969,19.796 69.661,20.013 C69.354,20.229 68.988,20.337 68.564,20.337 C67.858,20.337 67.314,20.155 66.931,19.791 C66.549,19.428 66.358,18.932 66.358,18.305 C66.358,17.644 66.612,17.132 67.121,16.768 C67.631,16.405 68.373,16.223 69.35,16.223 L70.372,16.223 L70.372,15.687 C70.372,15.363 70.287,15.111 70.116,14.933 C69.946,14.753 69.693,14.664 69.356,14.664 C69.061,14.664 68.833,14.736 68.673,14.88 C68.513,15.023 68.433,15.22 68.433,15.469 L66.682,15.469 L66.67,15.431 C66.64,14.861 66.889,14.371 67.414,13.957 C67.94,13.544 68.627,13.337 69.474,13.337 C70.284,13.337 70.94,13.54 71.441,13.947 C71.941,14.355 72.192,14.939 72.192,15.699 L72.192,18.485 C72.192,18.801 72.216,19.098 72.264,19.377 C72.312,19.655 72.387,19.931 72.491,20.206 L70.677,20.206 L70.677,20.205 Z M69.013,18.99 C69.329,18.99 69.612,18.911 69.861,18.753 C70.111,18.596 70.281,18.413 70.372,18.205 L70.372,17.251 L69.35,17.251 C68.963,17.251 68.671,17.347 68.474,17.538 C68.280368,17.7203537 68.1728517,17.9760682 68.178,18.242 C68.178,18.471 68.252,18.652 68.399,18.788 C68.547,18.923 68.751,18.99 69.013,18.99 Z M76.181,17.681 L75.483,17.681 L75.483,20.206 L73.663,20.206 L73.663,13.461 L75.483,13.461 L75.483,16.03 L76.025,16.03 L77.571,13.461 L79.871,13.461 L77.64,16.591 L80.07,20.206 L77.646,20.206 L76.181,17.681 Z M86.915,17.021 C86.915,18.018 86.685,18.82 86.223,19.427 C85.762,20.033 85.118,20.337 84.291,20.337 C83.9661807,20.3430097 83.6441895,20.2756719 83.349,20.14 C83.0718564,20.006733 82.830508,19.8092661 82.645,19.564 L82.645,22.799 L80.831,22.799 L80.831,13.461 L82.471,13.461 L82.576,14.259 C82.776,13.964 83.016,13.737 83.296,13.577 C83.576,13.417 83.904,13.337 84.278,13.337 C85.113,13.337 85.762,13.663 86.223,14.315 C86.684,14.968 86.915,15.825 86.915,16.89 L86.915,17.02 L86.915,17.021 Z M85.095,16.89 C85.095,16.254 84.989,15.739 84.777,15.344 C84.565,14.949 84.241,14.752 83.804,14.752 C83.53,14.752 83.296,14.808 83.104,14.92 C82.9088892,15.0336317 82.7497955,15.2000042 82.645,15.4 L82.645,18.355 C82.757,18.545 82.91,18.691 83.103,18.791 C83.296,18.891 83.534,18.941 83.817,18.941 C84.257,18.941 84.58,18.768 84.787,18.423 C84.992,18.078 85.095,17.611 85.095,17.021 L85.095,16.89 Z M90.094,15.643 L91.359,15.643 C92.265,15.643 92.977,15.852 93.497,16.27 C94.017,16.687 94.277,17.235 94.277,17.912 C94.277,18.598 94.017,19.152 93.497,19.573 C92.977,19.995 92.265,20.206 91.359,20.206 L88.267,20.206 L88.267,13.461 L90.094,13.461 L90.094,15.643 Z M96.732,20.206 L94.912,20.206 L94.912,13.461 L96.732,13.461 L96.732,20.206 Z M90.094,17.039 L90.094,18.816 L91.359,18.816 C91.729,18.816 92.005,18.733 92.188,18.566 C92.369482,18.4028366 92.4697414,18.1679222 92.462,17.924 C92.4673273,17.6834315 92.3672317,17.452554 92.188,17.292 C92.005,17.123 91.728,17.039 91.359,17.039 L90.094,17.039 Z M104.361,14.851 L102.205,14.851 L102.205,20.206 L100.378,20.206 L100.378,14.851 L98.253,14.851 L98.253,13.461 L104.361,13.461 L104.361,14.851 Z M109.348,13.461 L111.162,13.461 L111.162,20.206 L109.348,20.206 L109.348,16.092 L109.31,16.086 L107.11,20.206 L105.29,20.206 L105.29,13.461 L107.11,13.461 L107.11,17.563 L107.147,17.569 L109.347,13.461 L109.348,13.461 Z M115.45,20.337 C114.444,20.337 113.659,20.028 113.094,19.411 C112.529,18.794 112.246,17.999 112.246,17.027 L112.246,16.777 C112.246,15.767 112.52,14.941 113.069,14.297 C113.617,13.653 114.372,13.333 115.332,13.337 C116.237,13.337 116.932,13.614 117.417,14.169 C117.901,14.724 118.143,15.471 118.143,16.409 L118.143,17.351 L114.123,17.351 L114.103,17.388 C114.133,17.85 114.273,18.224 114.524,18.51 C114.776,18.797 115.149,18.94 115.644,18.94 C116.05,18.94 116.396,18.899 116.681,18.816 C116.966,18.733 117.26,18.606 117.563,18.436 L118.055,19.557 C117.785,19.777 117.42,19.963 116.958,20.112 C116.498,20.262 115.994,20.337 115.45,20.337 Z M115.332,14.739 C114.966,14.739 114.684,14.865 114.487,15.116 C114.29,15.368 114.17,15.701 114.129,16.116 L114.141,16.148 L116.36,16.148 L116.36,16.011 C116.36,15.616 116.279,15.305 116.117,15.079 C115.955,14.853 115.693,14.739 115.332,14.739 Z" id="Shape" fill="#020202" fill-rule="nonzero"></path>
            <path d="M117.16,48.979 L117.192,48.979 L119.408,43.085 L121.039,43.085 L121.039,50.747 L119.76,50.747 L119.76,45.243 L119.729,45.237 L117.619,50.747 L116.739,50.747 L114.593,45.132 L114.561,45.142 L114.561,50.747 L113.282,50.747 L113.282,43.086 L114.961,43.086 L117.161,48.98 L117.16,48.979 Z M125.954,50.747 C125.9099,50.6088107 125.872193,50.468662 125.841,50.327 C125.81156,50.191545 125.791512,50.0542181 125.781,49.916 C125.609,50.182 125.379,50.406 125.091,50.586 C124.804,50.767 124.483,50.858 124.128,50.858 C123.535,50.858 123.08,50.705 122.763,50.4 C122.445,50.095 122.286,49.675 122.286,49.142 C122.286,48.592 122.504,48.162 122.939,47.856 C123.374,47.549 123.986,47.395 124.776,47.395 L125.77,47.395 L125.77,46.895 C125.77,46.597 125.683,46.364 125.51,46.195 C125.336,46.027 125.084,45.943 124.755,45.943 C124.463,45.943 124.232,46.012 124.06,46.15 C123.892643,46.2784245 123.796759,46.479112 123.802,46.69 L122.571,46.695 L122.565,46.664 C122.541,46.214 122.742,45.816 123.168,45.469 C123.594,45.122 124.149,44.948 124.834,44.948 C125.497,44.948 126.032,45.116 126.439,45.453 C126.846,45.79 127.049,46.274 127.049,46.906 L127.049,49.436 C127.049,49.672 127.065,49.897 127.096,50.113 C127.128,50.329 127.179,50.54 127.249,50.747 L125.954,50.747 Z M124.391,49.832 C124.711,49.832 124.999,49.751 125.257,49.59 C125.515,49.428 125.687,49.244 125.77,49.037 L125.77,48.195 L124.755,48.195 C124.383,48.195 124.092,48.287 123.881,48.471 C123.671,48.655 123.565,48.872 123.565,49.121 C123.565,49.339 123.636,49.511 123.778,49.64 C123.92,49.768 124.125,49.832 124.391,49.832 Z M130.311,48.495 L129.733,48.495 L129.733,50.747 L128.459,50.747 L128.459,45.053 L129.733,45.053 L129.733,47.327 L130.18,47.327 L131.87,45.053 L133.454,45.053 L131.307,47.769 L133.627,50.747 L131.964,50.747 L130.312,48.495 L130.311,48.495 Z M136.637,49.837 C136.929,49.837 137.175,49.746 137.377,49.563 C137.575226,49.3876248 137.685775,49.1335832 137.679,48.869 L138.837,48.869 L138.847,48.9 C138.862,49.433 138.65,49.893 138.214,50.279 C137.777,50.665 137.251,50.858 136.637,50.858 C135.817,50.858 135.183,50.587 134.737,50.045 C134.292,49.503 134.069,48.819 134.069,47.995 L134.069,47.811 C134.069,46.99 134.292,46.307 134.738,45.764 C135.183,45.22 135.815,44.948 136.632,44.948 C137.295,44.948 137.834,45.147 138.248,45.545 C138.662,45.943 138.862,46.45 138.848,47.063 L138.838,47.095 L137.679,47.095 C137.679,46.783 137.583,46.518 137.39,46.3 C137.198873,46.0833436 136.920728,45.9637192 136.632,45.974 C136.176,45.974 135.848,46.15 135.648,46.503 C135.448,46.856 135.348,47.292 135.348,47.811 L135.348,47.995 C135.348,48.525 135.448,48.965 135.645,49.313 C135.844,49.663 136.175,49.837 136.637,49.837 Z M140.724,49.12 C140.961,49.12 141.155,49.195 141.328,49.368 C141.489459,49.5267564 141.579047,49.7445861 141.576,49.971 C141.577264,50.1973642 141.48797,50.4148377 141.328,50.575 C141.16393,50.7276159 140.948077,50.8123134 140.724,50.812 C140.502794,50.8159926 140.289339,50.7305387 140.132,50.575 C139.967729,50.4177352 139.87764,50.1983254 139.884,49.971 C139.875998,49.7436695 139.966375,49.5239218 140.132,49.368 C140.282,49.195 140.487,49.12 140.724,49.12 Z" id="Shape" fill="#2A3052" fill-rule="nonzero"></path>
            <path d="M18.652,132.929 C18.622,132.777 18.622,132.656 18.622,132.504 C18.4020879,132.808944 18.1232577,133.066691 17.802,133.262 C17.4753803,133.467533 17.0958403,133.573193 16.71,133.566 C16.073,133.566 15.587,133.414 15.253,133.05 C14.9010781,132.684615 14.7145435,132.190805 14.737,131.684 C14.737,131.078 14.98,130.622 15.466,130.289 C15.951,129.955 16.588,129.773 17.408,129.773 L18.622,129.773 L18.622,129.166 C18.622,128.802 18.5,128.498 18.288,128.286 C18.075,128.073 17.742,127.952 17.348,127.952 C16.983,127.952 16.679,128.042 16.467,128.225 C16.2636434,128.388357 16.1416713,128.632301 16.133,128.893 L15.071,128.893 L15.071,128.863 C15.041,128.407 15.253,127.983 15.708,127.618 C16.164,127.254 16.74,127.041 17.438,127.041 C18.136,127.041 18.713,127.223 19.138,127.588 C19.562,127.952 19.775,128.468 19.775,129.135 L19.775,132.14 C19.775,132.352 19.775,132.565 19.805,132.777 C19.835,132.989 19.865,133.202 19.927,133.384 L18.743,133.384 L18.743,133.444 C18.713,133.262 18.683,133.08 18.652,132.929 Z M16.815,132.565 C17.21,132.565 17.605,132.473 17.908,132.261 C18.241,132.049 18.454,131.806 18.545,131.533 L18.545,130.531 L17.3,130.531 C16.844,130.531 16.48,130.653 16.207,130.865 C15.954045,131.061183 15.8081018,131.364922 15.813,131.685 C15.8094256,131.92944 15.8955158,132.166721 16.055,132.352 C16.238,132.473 16.48,132.565 16.815,132.565 Z M31.433,132.899 C31.403,132.747 31.403,132.626 31.403,132.474 C31.1830879,132.778944 30.9042577,133.036691 30.583,133.232 C30.2563803,133.437533 29.8768403,133.543193 29.491,133.536 C28.854,133.536 28.368,133.384 28.034,133.02 C27.6824428,132.654449 27.4962774,132.160659 27.519,131.654 C27.519,131.048 27.761,130.592 28.247,130.258 C28.732,129.925 29.37,129.743 30.189,129.743 L31.403,129.743 L31.403,129.136 C31.403,128.771 31.282,128.468 31.069,128.256 C30.857,128.043 30.523,127.922 30.129,127.922 C29.764,127.922 29.461,128.012 29.249,128.195 C29.0456434,128.358357 28.9236713,128.602301 28.915,128.863 L27.852,128.863 L27.852,128.833 C27.822,128.377 28.034,127.953 28.49,127.588 C28.945,127.224 29.521,127.011 30.22,127.011 C30.917,127.011 31.494,127.193 31.919,127.558 C32.344,127.922 32.556,128.438 32.556,129.105 L32.556,132.11 C32.556,132.322 32.556,132.534 32.586,132.747 C32.616,132.959 32.647,133.172 32.708,133.354 L31.524,133.354 L31.524,133.414 C31.494,133.232 31.464,133.05 31.434,132.899 L31.433,132.899 Z M29.596,132.534 C29.991,132.534 30.386,132.444 30.689,132.231 C31.023,132.019 31.235,131.776 31.326,131.503 L31.326,130.501 L30.082,130.501 C29.627,130.501 29.262,130.623 28.989,130.835 C28.736045,131.031183 28.5901018,131.334922 28.595,131.655 C28.5917029,131.899569 28.6781545,132.136866 28.838,132.322 C29.02,132.443 29.263,132.534 29.596,132.534 Z M42.84,127.174 C43.524,127.137 44.39,127.374 44.875,127.866 C45.412,128.41 45.795,129.086 45.795,130.204 C45.795,131.193 45.597,131.908 45.129,132.486 C44.601,133.138 43.777,133.437 43.109,133.437 C42.416,133.437 41.665,133.328 41.033,132.745 C40.516,132.267 40.038,131.448 40.086,130.305 C40.139,129.043 40.545,128.323 41.033,127.866 C41.527,127.405 42.107,127.214 42.84,127.174 Z M43.086,128 C42.301,128 41.351,128.512 41.351,130.1 C41.351,131.689 41.937,132.634 42.99,132.634 C44.042,132.634 44.733,131.564 44.626,130.1 C44.52,128.636 43.871,128 43.086,128 Z M12.1,125.144 L13.204,125.144 L13.204,133.317 L12.1,133.317 L12.1,129.697 L8.104,129.697 L8.104,133.317 L7,133.317 L7,125.144 L8.104,125.144 L8.104,128.859 L12.1,128.859 L12.1,125.144 Z M21.242,127.218 L22.312,127.218 L22.312,129.065 C22.311,130.317 23.192,130.722 24.957,130.277 L24.977,127.273 L26.064,127.273 L26.064,133.286 L24.977,133.286 C24.983,132.41 24.983,131.688 24.977,131.12 C23.829,131.431 22.117,131.452 21.513,130.28 C21.266,129.801 21.246,129.347 21.242,128.912 C21.2353144,128.347353 21.2353144,127.782647 21.242,127.218 Z M33.418,132.376 C33.427,132.636 33.389,132.852 33.389,133.318 C35.891,133.476 35.922,131.298 35.817,128.124 L37.847,128.121 L37.847,133.362 L38.94,133.362 L38.94,127.26 C37.224,127.236 35.81,127.236 34.697,127.26 C34.62,129.629 35.18,132.507 33.418,132.377 L33.418,132.376 Z" id="Shape" fill="#2A3052" fill-rule="nonzero"></path>
            <path d="M247.221,170.006 C247.723,170.006 248.093,169.911 248.333,169.723 C248.573,169.534 248.693,169.273 248.693,168.942 C248.693,168.638 248.561,168.386 248.299,168.185 C248.037,167.983 247.653,167.883 247.145,167.883 C246.742,167.883 246.406,167.979 246.136,168.173 C245.866,168.366 245.731,168.609 245.731,168.903 L244.611,168.903 L244.601,168.875 C244.581,168.303 244.819,167.839 245.314,167.483 C245.81,167.127 246.42,166.949 247.144,166.949 C247.982,166.949 248.642,167.121 249.126,167.466 C249.61,167.811 249.852,168.303 249.852,168.942 C249.852,169.261 249.746,169.553 249.535,169.818 C249.325,170.084 249.034,170.291 248.663,170.441 C249.082,170.579 249.403,170.785 249.627,171.061 C249.85,171.338 249.962,171.674 249.962,172.071 C249.962,172.712 249.702,173.215 249.181,173.579 C248.661,173.944 247.981,174.126 247.145,174.126 C246.42,174.126 245.794,173.955 245.267,173.613 C244.74,173.271 244.484,172.773 244.5,172.118 L244.51,172.089 L245.63,172.089 C245.63,172.402 245.772,172.665 246.055,172.878 C246.337,173.09 246.701,173.196 247.145,173.196 C247.655,173.196 248.059,173.092 248.355,172.882 C248.65,172.673 248.798,172.404 248.798,172.075 C248.798,171.685 248.665,171.397 248.4,171.21 C248.135,171.023 247.742,170.93 247.221,170.93 L246.316,170.93 L246.316,170.005 L247.221,170.005 L247.221,170.006 Z M254.264,174.026 C254.223759,173.899658 254.189389,173.771521 254.161,173.642 C254.134078,173.518748 254.115701,173.393784 254.106,173.268 C253.94465,173.515173 253.730513,173.723504 253.479,173.878 C253.216538,174.043149 252.91208,174.129244 252.602,174.126 C252.062,174.126 251.648,173.986 251.359,173.709 C251.069,173.431 250.925,173.049 250.925,172.564 C250.925,172.062 251.123,171.672 251.519,171.392 C251.915,171.112 252.472,170.973 253.191,170.973 L254.097,170.973 L254.097,170.518 C254.097,170.246 254.017,170.034 253.86,169.881 C253.701,169.727 253.472,169.651 253.172,169.651 C252.907,169.651 252.696,169.714 252.54,169.84 C252.387919,169.956883 252.30064,170.139242 252.305,170.331 L251.184,170.336 L251.179,170.307 C251.156,169.898 251.339,169.536 251.727,169.22 C252.116,168.903 252.621,168.745 253.244,168.745 C253.848,168.745 254.334,168.899 254.705,169.205 C255.075,169.512 255.261,169.953 255.261,170.528 L255.261,172.832 C255.261,173.046 255.275,173.252 255.304,173.448 C255.333,173.644 255.379,173.837 255.443,174.025 L254.264,174.025 L254.264,174.026 Z M252.841,173.191 C253.132,173.191 253.395,173.118 253.63,172.971 C253.864,172.824 254.02,172.656 254.097,172.468 L254.097,171.701 L253.172,171.701 C252.833,171.701 252.568,171.785 252.377,171.953 C252.185,172.121 252.089,172.318 252.089,172.545 C252.089,172.743 252.154,172.9 252.283,173.017 C252.413,173.133 252.599,173.191 252.841,173.191 Z M258.231,171.974 L257.704,171.974 L257.704,174.025 L256.545,174.025 L256.545,168.841 L257.705,168.841 L257.705,170.911 L258.112,170.911 L259.65,168.841 L261.092,168.841 L259.137,171.313 L261.25,174.025 L259.736,174.025 L258.231,171.975 L258.231,171.974 Z M266.496,171.606 C266.496,172.359 266.319,172.968 265.964,173.431 C265.61,173.894 265.116,174.126 264.484,174.126 C264.19,174.126 263.93,174.073 263.703,173.968 C263.474169,173.861123 263.273751,173.701816 263.118,173.503 L263.118,176.018 L261.954,176.018 L261.954,168.841 L262.936,168.841 L263.051,169.493 C263.217,169.25 263.418,169.065 263.653,168.937 C263.887,168.809 264.16,168.745 264.47,168.745 C265.108,168.745 265.606,168.998 265.962,169.505 C266.318,170.011 266.496,170.678 266.496,171.505 L266.496,171.605 L266.496,171.606 Z M265.336,171.505 C265.336,170.975 265.236,170.541 265.037,170.205 C264.85956,169.880453 264.513598,169.684421 264.144,169.699 C263.927571,169.691971 263.713495,169.745663 263.526,169.854 C263.356,169.958 263.221,170.103 263.118,170.288 L263.118,172.631 C263.221,172.813 263.356,172.953 263.526,173.051 C263.695,173.147 263.904,173.196 264.153,173.196 C264.549,173.196 264.846,173.05 265.043,172.758 C265.239,172.466 265.337,172.081 265.337,171.606 L265.337,171.505 L265.336,171.505 Z M268.839,170.647 L269.975,170.647 C270.626,170.647 271.136,170.802 271.505,171.112 C271.875,171.422 272.059,171.826 272.059,172.324 C272.059,172.826 271.873,173.234 271.503,173.551 C271.133,173.867 270.623,174.025 269.975,174.025 L267.675,174.025 L267.675,168.841 L268.839,168.841 L268.839,170.647 Z M273.932,174.025 L272.768,174.025 L272.768,168.841 L273.932,168.841 L273.932,174.025 Z M268.839,171.582 L268.839,173.096 L269.975,173.096 C270.288,173.096 270.519,173.024 270.669,172.882 C270.81785,172.74293 270.899796,172.546625 270.894,172.343 C270.89604,172.140564 270.813809,171.946397 270.667,171.807 C270.515,171.657 270.284,171.582 269.975,171.582 L268.839,171.582 Z M279.639,169.766 L277.952,169.766 L277.952,174.026 L276.788,174.026 L276.788,169.766 L275.13,169.766 L275.13,168.841 L279.638,168.841 L279.638,169.766 L279.639,169.766 Z M283.706,168.841 L284.866,168.841 L284.866,174.025 L283.706,174.025 L283.706,170.585 L283.677,170.575 L281.675,174.025 L280.515,174.025 L280.515,168.841 L281.675,168.841 L281.675,172.276 L281.703,172.286 L283.706,168.841 Z M288.282,174.126 C287.525,174.126 286.932,173.886 286.506,173.409 C286.08,172.932 285.866,172.313 285.866,171.553 L285.866,171.361 C285.866,170.601 286.08,169.974 286.506,169.481 C286.933,168.987 287.483,168.742 288.157,168.745 C288.853,168.745 289.38,168.96 289.738,169.39 C290.096,169.82 290.275,170.393 290.275,171.112 L290.275,171.74 L287.069,171.74 L287.059,171.764 C287.073,172.188 287.184,172.534 287.395,172.799 C287.606,173.064 287.924,173.196 288.349,173.196 C288.665,173.196 288.939,173.158 289.17,173.081 C289.402,173.005 289.617,172.894 289.815,172.751 L290.193,173.512 C289.995,173.685 289.733,173.83 289.408,173.948 C289.045869,174.072343 288.664827,174.132579 288.282,174.126 Z M288.157,169.679 C287.876289,169.669055 287.607031,169.790739 287.429,170.008 C287.247,170.226 287.133,170.512 287.089,170.863 L287.099,170.887 L289.125,170.887 L289.125,170.796 C289.125,170.464 289.047,170.195 288.892,169.988 C288.738,169.782 288.492,169.679 288.157,169.679 Z" id="Shape" fill="#2A3052" fill-rule="nonzero"></path>
        </g>
    </g>
</svg>