<svg width="300" height="199" viewBox="0 0 300 199" xmlns="http://www.w3.org/2000/svg"><title>Russian higher</title><g fill="none" fill-rule="evenodd"><path fill="#F1F2F2" d="M0 0h300v199H0z"/><path d="M39.125 55.375V74.75H75.25V55.375H39.125zm0-1H75.25V34h1v20.375h36.125V34h1v20.375H149.5V34h1v20.375h36.125V34h1v20.375h36.125V34h1v20.375h36.125V34h1v20.375H299.5v1h-37.625V74.75H299.5v1h-37.625v19.375H299.5v1h-37.625V115.5H299.5v1h-37.625v19.375H299.5v1h-37.625v19.375H299.5v1h-37.625v19.375H299.5v1h-37.625V199h-1v-21.375H224.75V199h-1v-21.375h-36.125V199h-1v-21.375H150.5V199h-1v-21.375h-36.125V199h-1v-21.375H76.25V199h-1v-21.375H39.125V199h-1v-21.375H1.5v-1h36.625V157.25H1.5v-1h36.625v-19.375H1.5v-1h36.625V116.5H1.5v-1h36.625V96.125H1.5v-1h36.625V75.75H1.5v-1h36.625V55.375H1.5v-1h36.625V34h1v20.375zm221.75 1H224.75V74.75h36.125V55.375zm-37.125 0h-36.125V74.75h36.125V55.375zm-37.125 0H150.5V74.75h36.125V55.375zm-37.125 0h-36.125V74.75H149.5V55.375zm-37.125 0H76.25V74.75h36.125V55.375zM39.125 75.75v19.375H75.25V75.75H39.125zm221.75 0H224.75v19.375h36.125V75.75zm-37.125 0h-36.125v19.375h36.125V75.75zm-37.125 0H150.5v19.375h36.125V75.75zm-37.125 0h-36.125v19.375H149.5V75.75zm-37.125 0H76.25v19.375h36.125V75.75zm-73.25 20.375V115.5H75.25V96.125H39.125zm221.75 0H224.75V115.5h36.125V96.125zm-37.125 0h-36.125V115.5h36.125V96.125zm-37.125 0H150.5V115.5h36.125V96.125zm-37.125 0h-36.125V115.5H149.5V96.125zm-37.125 0H76.25V115.5h36.125V96.125zM39.125 116.5v19.375H75.25V116.5H39.125zm221.75 0H224.75v19.375h36.125V116.5zm-37.125 0h-36.125v19.375h36.125V116.5zm-37.125 0H150.5v19.375h36.125V116.5zm-37.125 0h-36.125v19.375H149.5V116.5zm-37.125 0H76.25v19.375h36.125V116.5zm-73.25 20.375v19.375H75.25v-19.375H39.125zm221.75 0H224.75v19.375h36.125v-19.375zm-37.125 0h-36.125v19.375h36.125v-19.375zm-37.125 0H150.5v19.375h36.125v-19.375zm-37.125 0h-36.125v19.375H149.5v-19.375zm-37.125 0H76.25v19.375h36.125v-19.375zm-73.25 20.375v19.375H75.25V157.25H39.125zm221.75 0H224.75v19.375h36.125V157.25zm-37.125 0h-36.125v19.375h36.125V157.25zm-37.125 0H150.5v19.375h36.125V157.25zm-37.125 0h-36.125v19.375H149.5V157.25zm-37.125 0H76.25v19.375h36.125V157.25z" fill="#DFDEDE"/><path stroke="#C2C2C2" stroke-width="2" d="M1 1h298v197H1z"/><path fill="#C2C2C2" d="M0 33h300v2H0z"/><g transform="translate(4 54.702)"><path d="M.9 64.063h290.625" stroke="#2A3052" stroke-width="1.211" stroke-linejoin="round"/><path stroke="#2A3052" stroke-width="3.633" stroke-linecap="round" stroke-linejoin="round" d="M36 104.75L67.2 46.7l31.725 33.938 45.225-57.226 45.225 63.375L222.412.837l34.2 22.576"/><path d="M184.613 95H149.55l-5.4-8.213-5.4 8.213h-35.063c-2.624 0-4.724 2.138-4.724 4.8v24.788c0 2.662 2.137 4.8 4.725 4.8h80.962c2.625 0 4.725-2.138 4.725-4.8V99.8c0-2.662-2.137-4.8-4.762-4.8z" fill="#E88024" fill-rule="nonzero"/><ellipse cx="8.363" cy="11.662" rx="8.137" ry="8.475" opacity=".6" transform="translate(248.25 11.75)" fill="#FFF" fill-rule="nonzero"/><ellipse stroke="#E88024" stroke-width="2.422" cx="256.613" cy="23.413" rx="8.137" ry="8.475"/><ellipse cx="9" cy="10.5" rx="8.137" ry="8.475" opacity=".6" transform="translate(27 94.25)" fill="#FFF" fill-rule="nonzero"/><ellipse stroke="#E88024" stroke-width="2.422" cx="36" cy="104.75" rx="8.137" ry="8.475"/></g><g fill="#2A3052"><path d="M30.707 185.555c-.033-.164-.033-.295-.033-.46-.23.329-.526.592-.887.822-.361.23-.756.328-1.183.328-.69 0-1.215-.164-1.576-.558a2.004 2.004 0 0 1-.559-1.479c0-.656.263-1.15.789-1.51.525-.362 1.215-.559 2.102-.559h1.314v-.657c0-.394-.131-.723-.361-.953-.23-.23-.592-.36-1.019-.36-.394 0-.722.098-.952.295-.23.197-.362.46-.362.722h-1.15v-.032c-.032-.493.198-.953.69-1.347.493-.394 1.117-.624 1.873-.624.755 0 1.38.197 1.84.59.46.395.69.954.69 1.676v3.252c0 .23 0 .46.032.69.033.23.066.46.131.657h-1.28v.066c-.034-.197-.066-.394-.1-.559zm-1.989-.394c.427 0 .855-.098 1.183-.328.361-.23.591-.493.69-.789v-1.084h-1.347c-.493 0-.887.132-1.183.362-.295.23-.427.558-.427.886 0 .296.099.526.263.723.197.132.46.23.821.23zM44.542 185.523c-.033-.164-.033-.296-.033-.46-.23.328-.526.591-.887.821-.361.23-.755.329-1.182.329-.69 0-1.216-.165-1.577-.559a2.004 2.004 0 0 1-.559-1.478c0-.657.263-1.15.789-1.511.525-.361 1.215-.558 2.102-.558h1.314v-.657c0-.395-.131-.723-.361-.953-.23-.23-.592-.361-1.019-.361-.394 0-.722.098-.952.295-.23.197-.362.46-.362.723h-1.15v-.033c-.032-.493.198-.953.69-1.347.493-.394 1.117-.624 1.873-.624.755 0 1.38.197 1.84.591.46.395.69.953.69 1.676v3.252c0 .23 0 .46.032.69.033.23.066.46.132.657H44.64v.065a18.742 18.742 0 0 0-.098-.558zm-1.988-.394c.427 0 .854-.099 1.182-.329.361-.23.591-.493.69-.788v-1.084h-1.347c-.493 0-.887.131-1.182.361-.296.23-.427.559-.427.887 0 .296.098.526.262.723.197.131.46.23.822.23zM56.889 179.326c.74-.04 1.679.217 2.203.75.58.588.996 1.32.996 2.53 0 1.07-.214 1.844-.72 2.47-.573.706-1.464 1.03-2.188 1.03-.75 0-1.563-.118-2.247-.75-.56-.517-1.077-1.403-1.025-2.64.057-1.367.497-2.147 1.025-2.64.535-.5 1.162-.707 1.956-.75zm.266.894c-.85 0-1.877.555-1.877 2.274 0 1.719.634 2.742 1.773 2.742 1.14 0 1.887-1.157 1.772-2.742-.116-1.585-.818-2.274-1.668-2.274zM23.615 177.13h1.195v8.846h-1.195v-3.92H19.29v3.92h-1.195v-8.847h1.195v4.021h4.326zM33.51 179.374h1.159v1.999c-.002 1.356.952 1.793 2.863 1.312l.021-3.251h1.177v6.508h-1.177c.007-.948.007-1.73 0-2.345-1.243.337-3.095.36-3.75-.909-.267-.518-.288-1.01-.293-1.48a77.439 77.439 0 0 1 0-1.834zM46.69 184.958c.01.28-.03.515-.03 1.018 2.707.172 2.741-2.187 2.627-5.621l2.197-.004v5.673h1.184v-6.604a132.824 132.824 0 0 0-4.593 0c-.083 2.563.523 5.679-1.384 5.538z"/></g><g fill="#2A3052"><path d="M269.456 101.521h-4.474c0 .83.17 1.43.508 1.801.446.487.915.663 1.558.6 1.124-.113 1.34-.414 1.805-.68l.474.813c-.553.572-1.439.858-2.656.858-1.826 0-2.939-1.513-3.011-3.314-.073-1.801.646-3.89 3.011-3.979 2.005.054 2.933 1.354 2.785 3.901zm-1.256-.99c-.013-1.267-.522-1.9-1.528-1.9-1.005 0-1.555.633-1.648 1.9h3.176zM251.79 97.625c.77-.042 1.744.225 2.29.778.603.612 1.034 1.374 1.034 2.63 0 1.114-.222 1.918-.748 2.568-.595.735-1.522 1.071-2.273 1.071-.78 0-1.626-.123-2.336-.78-.582-.537-1.12-1.458-1.066-2.744.06-1.42.516-2.23 1.066-2.745.555-.519 1.208-.733 2.032-.778zm.276.93c-.883 0-1.951.575-1.951 2.362 0 1.788.659 2.85 1.843 2.85s1.962-1.202 1.842-2.85c-.12-1.647-.85-2.363-1.734-2.363zM270.817 97.759h1.208v5.927h3.043v-5.927h1.254v5.927h.832v3.217h-1.21v-2.222h-5.127zM241.281 95.386h1.213v3.99h.764l3.358-3.99h1.388l-3.699 4.373 4.031 4.89h-1.526l-3.552-4.205h-.764v4.205h-1.213zM256.567 97.788h1.268v2.934h3.017v-2.934h1.192v6.785h-1.192v-2.854h-3.017v2.854h-1.268z"/></g><g fill="#6D6E71"><path d="M259.698 134.688c.068.168.148.346.333.742-1.404 1.07-3.019.924-3.773.482-1.137-.666-1.137-1.903-1.13-2.86.007-1.22.904-3.49 3.4-3.49 2.498 0 2.088 2.697 1.967 3.49-.256 0-1.633.025-4.132.075-.232 2.966 2.01 2.303 3.335 1.561zm-.15-2.385c.145-1.171-.215-1.757-1.08-1.757-1.298 0-1.752 1.375-1.898 1.757h2.977z"/><path stroke="#979797" stroke-width=".5" d="M247.211 127.385h1.173l-1.173 7.859h4.268l1.17-7.859h1.325l-1.326 7.859h1.122l-.422 3.099h-1.193l.283-2.129H245.9zM265.603 136.147h1.176l.938-6.456c-1.487.02-3.001.02-4.544 0-.505 3.086-.695 5.718-2.227 5.451l-.168 1.005c1.002 0 1.672-.205 2.01-.614 1.237-1.5 1.177-3.625 1.39-4.948h2.232l-.807 5.562zM269.373 129.645h1.114c-.192 1.471-.311 2.303-.358 2.495h2.042c.86 0 1.848.728 1.793 1.754-.08 1.502-1.434 2.28-2.5 2.28h-3.088c.206-1.704.539-3.88.997-6.529zm.308 5.602h1.73c.263 0 1.176-.179 1.32-1.1.143-.92-.765-1.099-.995-1.099h-1.724l-.33 2.2z"/></g><g fill="#FFF"><path d="M183.394 168.304h-1.965v-6.502h1.965zM183.394 171.725h-1.965v-1.747h1.965z"/><g><path d="M113.021 161.345h4.173c.756 0 2.711.57 2.843 2.341.088 1.18-.392 2.015-1.44 2.502 1.339.325 2.033 1.163 2.081 2.512.073 2.024-1.852 3.008-3.069 3.008h-4.588v-10.363zm1.645 8.958h2.358c.563 0 1.912-.104 1.912-1.67 0-1.568-1.663-1.671-1.912-1.671h-2.358v3.34zm.04-7.632v2.973h1.936c1.012 0 1.741-.52 1.679-1.626-.063-1.105-1.013-1.322-1.679-1.347h-1.936zM122.385 163.959h1.7v2.684h2.037c.49 0 2.92.38 2.804 2.575-.117 2.196-2.044 2.461-2.927 2.461h-3.614v-7.72zm1.72 4.09v2.287h1.672c.417 0 1.445-.159 1.445-1.143 0-.985-1.05-1.143-1.445-1.143h-1.672zM157.002 163.809h1.701v2.684h2.036c.491 0 2.92.38 2.804 2.575-.116 2.196-2.043 2.461-2.926 2.461h-3.615v-7.72zm1.72 4.09v2.287h1.672c.418 0 1.446-.159 1.446-1.143 0-.985-1.05-1.143-1.446-1.143h-1.672zM130.051 163.952h1.645v7.752h-1.645zM164.728 163.793h1.644v7.752h-1.644zM134.065 163.955h1.659v5.19l3.115-5.19h1.66v7.714h-1.66v-5.16l-3.051 5.16h-1.723zM147.463 163.989v1.347h-3.288v6.338h-1.793v-7.685zM148.52 163.945l1.477.015.14.976c.774-1.113 2.183-1.403 3.415-.863 1.006.441 1.652 2.036 1.709 3.02.102 1.783.071 3.17-1.2 4.187-1.273 1.017-2.894.658-3.852-.362v3.725h-1.69v-10.698zm1.748 2.165c.02.988.006 2.208 0 3.523.872 1.227 2.022.855 2.568.518.571-.352.782-1.547.714-2.622-.048-.755-.427-1.97-1.202-2.222-.78-.254-1.456-.113-2.08.803zM168.802 163.947v7.719h10.052v-7.719h-1.752v6.326h-2.354v-6.326h-1.726v6.326h-2.49c-.02-3.694-.02-5.803 0-6.326h-1.73z"/></g></g><g fill="#020202"><path d="M55.342 20.558c.19 2.081 1.622 2.551 4.298 1.41.245.555.454 1.044.625 1.465-5.4 2.466-7.232-1.11-7.275-2.875-.043-1.765.043-5.081 3.917-5.081 2.583 0 3.761 1.694 3.534 5.08h-5.099zm2.864-1.551c-.007-.28.18-1.763-1.286-1.763-1.465 0-1.482 1.383-1.56 1.763h2.846zM17.271 12.883h4.2c.869 0 3.233.179 3.594 2.3.24 1.413-.251 2.42-1.474 3.02.899.247 1.81.488 2.088 2.418.13.896-.325 2.04-1.113 2.637-.907.687-2.187.759-2.382.759h-4.913V12.883zm2.209 1.713c-.001.72.023 1.566 0 2.925 1.508-.015 3.383.361 3.383-1.485 0-1.847-2.596-1.42-3.383-1.44zm.017 4.487v3.225c1.599.071 2.615.025 3.048-.14.703-.265.86-.844.86-1.473 0-.593-.234-1.15-.86-1.42-.434-.188-1.45-.252-3.048-.192zM27.57 15.716h2.293v2.675c2.845-.106 5.15.414 5.15 2.737 0 2.324-2.197 2.854-3.17 2.91-.86 0-2.285.01-4.274.029v-8.351zm2.281 6.612h1.768c.545-.008 1.154-.31 1.154-1.178 0-.866-.973-1.017-1.206-1.024a106.1 106.1 0 0 0-1.716-.006v2.208zM35.816 15.695h2.255v8.325h-2.255zM40.415 15.702h2.217v6.66h2.313v-6.66h2.22v6.66h2.315v-6.66h2.236v8.315h-11.3z"/></g></g></svg>