<svg width="299" height="197" xmlns="http://www.w3.org/2000/svg" xmlns:xlink="http://www.w3.org/1999/xlink"><defs><path d="M115.9 20h-1.036v-6.972h-3.857V20h-1.03v-7.82h5.923V20zm6.628-2.841c0 .884-.202 1.597-.607 2.137-.404.541-.952.811-1.643.811-.706 0-1.26-.223-1.665-.671v2.798h-.994v-8.046h.908l.048.645c.405-.501.967-.752 1.687-.752.698 0 1.25.263 1.657.79.406.526.61 1.258.61 2.196v.092zm-.993-.113c0-.655-.14-1.173-.42-1.552-.279-.38-.662-.57-1.149-.57-.601 0-1.052.267-1.353.8v2.777c.297.53.752.795 1.364.795.476 0 .855-.188 1.136-.566.281-.378.422-.94.422-1.684zm1.992-.005c0-.57.112-1.082.336-1.537.224-.454.535-.805.935-1.052.399-.247.854-.37 1.367-.37.79 0 1.43.273 1.92.82.488.549.733 1.277.733 2.187v.07c0 .565-.108 1.073-.325 1.522-.217.45-.526.8-.93 1.05-.402.251-.865.376-1.388.376-.787 0-1.426-.274-1.915-.821-.488-.548-.733-1.273-.733-2.176v-.07zm1 .118c0 .644.149 1.162.448 1.552.299.39.699.585 1.2.585.505 0 .906-.197 1.203-.593.298-.396.446-.95.446-1.662 0-.638-.151-1.154-.454-1.55a1.443 1.443 0 0 0-1.205-.594c-.491 0-.887.196-1.187.586-.301.39-.452.949-.452 1.676zm9.291-2.149h-2.68V20h-.999v-5.812h3.68v.822zm5.608 4.99h-.994v-2.481h-2.67V20h-.998v-5.812h.999v2.52h2.67v-2.52h.993V20zm1.332-2.96c0-.569.112-1.08.335-1.536.224-.454.536-.805.935-1.052.4-.247.855-.37 1.367-.37.791 0 1.431.273 1.92.82.489.549.733 1.277.733 2.187v.07c0 .565-.108 1.073-.325 1.522-.216.45-.526.8-.929 1.05-.403.251-.865.376-1.388.376-.788 0-1.426-.274-1.915-.821-.489-.548-.733-1.273-.733-2.176v-.07zm.999.119c0 .644.15 1.162.448 1.552.3.39.7.585 1.2.585.506 0 .907-.197 1.204-.593.297-.396.446-.95.446-1.662 0-.638-.152-1.154-.454-1.55a1.443 1.443 0 0 0-1.206-.594c-.49 0-.886.196-1.187.586-.3.39-.451.949-.451 1.676zm8.733-1.38a.773.773 0 0 0-.311-.648c-.208-.16-.493-.239-.854-.239-.351 0-.644.091-.878.274-.235.183-.352.397-.352.645h-.989c0-.505.212-.919.634-1.241.423-.322.95-.484 1.585-.484.68 0 1.21.146 1.59.438.38.292.569.708.569 1.249 0 .261-.079.501-.236.72a1.61 1.61 0 0 1-.672.52c.677.23 1.015.681 1.015 1.354 0 .534-.206.956-.617 1.268-.412.311-.962.467-1.65.467-.669 0-1.221-.164-1.656-.491-.435-.328-.653-.771-.653-1.33h.988c0 .283.127.526.38.728.252.202.566.303.942.303.38 0 .685-.087.918-.263a.817.817 0 0 0 .35-.682c0-.326-.098-.56-.293-.7-.196-.142-.5-.213-.91-.213h-.995v-.838h1.08c.677-.018 1.015-.297 1.015-.838zM160.357 20h-.994v-4.99h-2.675V20h-.999v-5.812h4.668V20zm1.332-2.96c0-.569.112-1.08.336-1.536.223-.454.535-.805.934-1.052.4-.247.855-.37 1.367-.37.791 0 1.432.273 1.92.82.49.549.733 1.277.733 2.187v.07c0 .565-.108 1.073-.324 1.522-.217.45-.527.8-.93 1.05-.403.251-.865.376-1.388.376-.788 0-1.426-.274-1.915-.821-.489-.548-.733-1.273-.733-2.176v-.07zm.999.119c0 .644.15 1.162.448 1.552.3.39.7.585 1.2.585.506 0 .907-.197 1.204-.593.297-.396.446-.95.446-1.662 0-.638-.151-1.154-.454-1.55a1.443 1.443 0 0 0-1.206-.594c-.49 0-.886.196-1.187.586-.3.39-.451.949-.451 1.676zm7.869 2.137c.354 0 .664-.107.929-.322.265-.215.412-.483.44-.806h.94c-.018.333-.132.65-.344.951-.21.3-.493.54-.846.72a2.44 2.44 0 0 1-1.12.268c-.79 0-1.42-.264-1.887-.792-.468-.528-.701-1.25-.701-2.167v-.167c0-.565.104-1.068.311-1.509.208-.44.506-.782.895-1.026.388-.243.847-.365 1.377-.365.652 0 1.194.195 1.625.586.431.39.662.896.69 1.52h-.94a1.37 1.37 0 0 0-.427-.927 1.328 1.328 0 0 0-.948-.363c-.505 0-.896.182-1.173.546-.278.363-.417.889-.417 1.576v.188c0 .67.138 1.185.414 1.547.276.362.67.542 1.182.542zm8.19-5.108V20h-.998v-4.99h-1.977l-.118 2.176c-.065.999-.232 1.713-.502 2.143-.27.43-.7.653-1.287.671h-.397v-.875l.284-.022c.323-.036.554-.222.693-.559.14-.336.23-.96.269-1.869l.107-2.487h3.927zm4.007 5.92c-.787 0-1.428-.26-1.922-.777-.495-.517-.742-1.21-.742-2.076v-.182c0-.577.11-1.091.33-1.544.22-.453.529-.808.924-1.064a2.323 2.323 0 0 1 1.287-.384c.755 0 1.343.249 1.762.747.419.497.628 1.21.628 2.137v.414h-3.937c.014.573.182 1.036.502 1.388.32.353.728.53 1.222.53.351 0 .648-.072.892-.215a2.24 2.24 0 0 0 .639-.57l.607.473c-.487.748-1.218 1.122-2.192 1.122zm-.123-5.21c-.401 0-.738.145-1.01.437-.272.292-.44.701-.505 1.227h2.911v-.075c-.028-.505-.164-.896-.408-1.173-.243-.278-.573-.417-.988-.417zm3.491 4.291l.344-.424c.387-.502.607-1.254.66-2.256l.092-2.32h3.743v5h.747v2.519h-.994V20h-4.055v1.708h-.993l.005-2.519h.451zm1.176 0h2.67v-4.082h-1.789l-.059 1.386c-.06 1.156-.335 2.055-.822 2.696zm10.26.811h-.995v-2.481h-2.669V20h-.999v-5.812h.999v2.52h2.67v-2.52h.993V20zm4.006.107c-.788 0-1.429-.258-1.923-.776-.494-.517-.741-1.21-.741-2.076v-.182c0-.577.11-1.091.33-1.544.22-.453.528-.808.924-1.064a2.323 2.323 0 0 1 1.286-.384c.756 0 1.343.249 1.762.747.42.497.629 1.21.629 2.137v.414h-3.937c.014.573.181 1.036.502 1.388.32.353.728.53 1.222.53.35 0 .648-.072.891-.215a2.24 2.24 0 0 0 .64-.57l.606.473c-.487.748-1.217 1.122-2.191 1.122zm-.124-5.21c-.4 0-.737.146-1.01.438-.271.292-.44.701-.504 1.227h2.91v-.075c-.028-.505-.164-.896-.407-1.173-.244-.278-.573-.417-.989-.417zm7.3-.709h.993V20h-.993v-4.238L206.06 20h-.994v-5.812h.994v4.244l2.68-4.244zm.268-2.116c0 .434-.147.782-.443 1.045-.295.263-.683.395-1.163.395s-.868-.133-1.165-.398c-.297-.265-.446-.612-.446-1.042h.811c0 .25.068.447.204.588.136.142.335.213.596.213.251 0 .447-.07.588-.21.142-.14.213-.337.213-.59h.805zm4.995 7.117l.344-.424c.387-.502.607-1.254.66-2.256l.092-2.32h3.744v5h.746v2.519h-.993V20h-4.055v1.708h-.994l.005-2.519h.451zm1.177 0h2.67v-4.082h-1.79l-.059 1.386c-.06 1.156-.334 2.055-.821 2.696zm7.922.918c-.788 0-1.429-.258-1.923-.776-.494-.517-.741-1.21-.741-2.076v-.182c0-.577.11-1.091.33-1.544.22-.453.528-.808.924-1.064a2.323 2.323 0 0 1 1.286-.384c.756 0 1.343.249 1.762.747.42.497.629 1.21.629 2.137v.414h-3.937c.014.573.181 1.036.502 1.388.32.353.728.53 1.222.53.35 0 .648-.072.891-.215a2.24 2.24 0 0 0 .64-.57l.606.473c-.487.748-1.217 1.122-2.191 1.122zm-.124-5.21c-.4 0-.737.146-1.01.438-.271.292-.44.701-.504 1.227h2.911v-.075c-.029-.505-.165-.896-.408-1.173-.244-.278-.573-.417-.989-.417zm5.871 4.4c.355 0 .664-.108.93-.323.264-.215.411-.483.44-.806h.94c-.018.333-.133.65-.344.951-.211.3-.493.54-.846.72a2.44 2.44 0 0 1-1.12.268c-.791 0-1.42-.264-1.888-.792-.467-.528-.7-1.25-.7-2.167v-.167c0-.565.103-1.068.31-1.509.208-.44.507-.782.895-1.026.389-.243.848-.365 1.378-.365.651 0 1.193.195 1.624.586.432.39.662.896.69 1.52h-.94a1.37 1.37 0 0 0-.426-.927 1.328 1.328 0 0 0-.948-.363c-.505 0-.896.182-1.174.546-.277.363-.416.889-.416 1.576v.188c0 .67.138 1.185.413 1.547.276.362.67.542 1.182.542zm7.869-5.109V20h-1v-2.261h-1.498L232.85 20h-1.074l1.461-2.412c-.372-.136-.658-.346-.856-.63a1.697 1.697 0 0 1-.298-.997c0-.53.198-.957.596-1.281.397-.324.929-.488 1.595-.492h2.444zm-3.636 1.784c0 .283.096.51.29.684.193.174.449.263.768.266h1.579v-1.928h-1.429c-.369 0-.662.09-.88.271a.874.874 0 0 0-.328.707zm9.55-.978h-1.95V20h-.994v-5.006h-1.912v-.806h4.855v.806zm4.726-.806h.994V20h-.994v-4.238L244.678 20h-.994v-5.812h.994v4.244l2.68-4.244zM254.335 20h-1v-2.105a5.27 5.27 0 0 1-1.342.171c-.727 0-1.28-.186-1.662-.558-.382-.373-.576-.903-.583-1.59v-1.735h.994v1.767c.018.867.435 1.3 1.251 1.3a5.27 5.27 0 0 0 1.343-.172v-2.89h.999V20zm6.338 0h-.994v-2.481h-2.67V20h-.998v-5.812h.999v2.52h2.67v-2.52h.993V20zm1.332-2.96c0-.569.112-1.08.336-1.536.223-.454.535-.805.934-1.052.4-.247.855-.37 1.367-.37.791 0 1.431.273 1.92.82.489.549.733 1.277.733 2.187v.07c0 .565-.108 1.073-.325 1.522-.216.45-.526.8-.929 1.05-.403.251-.865.376-1.388.376-.788 0-1.426-.274-1.915-.821-.489-.548-.733-1.273-.733-2.176v-.07zm.999.119c0 .644.15 1.162.448 1.552.3.39.7.585 1.2.585.506 0 .907-.197 1.204-.593.297-.396.446-.95.446-1.662 0-.638-.152-1.154-.454-1.55a1.443 1.443 0 0 0-1.206-.594c-.49 0-.886.196-1.187.586-.3.39-.451.949-.451 1.676zm9.297-2.97h.994V20h-.994v-4.238L269.621 20h-.994v-5.812h.994v4.244l2.68-4.244zm.269-2.117c0 .434-.148.782-.443 1.045-.296.263-.683.395-1.163.395s-.868-.133-1.166-.398c-.297-.265-.445-.612-.445-1.042h.81c0 .25.069.447.205.588.136.142.334.213.596.213.25 0 .447-.07.588-.21.141-.14.212-.337.212-.59h.806zm6.386 3.534h.747c.469-.007.838-.13 1.106-.37.269-.24.403-.564.403-.972 0-.917-.457-1.375-1.37-1.375-.43 0-.772.122-1.028.368-.256.245-.384.57-.384.974h-.994c0-.619.226-1.134.68-1.544.452-.41 1.028-.615 1.726-.615.738 0 1.316.195 1.735.586.42.39.629.932.629 1.627 0 .34-.11.67-.33.988-.221.32-.52.557-.9.715.43.136.761.361.996.677.234.315.352.7.352 1.154 0 .702-.23 1.259-.688 1.67-.458.413-1.054.618-1.788.618s-1.331-.198-1.792-.596c-.46-.397-.69-.922-.69-1.573h1c0 .411.133.74.402.988.269.247.628.37 1.08.37.48 0 .846-.125 1.1-.376.255-.25.382-.61.382-1.08 0-.454-.14-.803-.419-1.047-.28-.243-.682-.368-1.208-.376h-.747v-.81z" id="a"/><path d="M109.836 167v-11.375h3.984c1.38 0 2.427.264 3.14.793.714.529 1.07 1.303 1.07 2.324a2.57 2.57 0 0 1-.429 1.473 2.482 2.482 0 0 1-1.195.933c.583.146 1.043.44 1.379.883.336.443.504.985.504 1.625 0 1.094-.35 1.922-1.047 2.485-.698.562-1.693.849-2.985.859h-4.421zm2.343-4.953v3.07h2.008c.552 0 .983-.131 1.293-.394.31-.263.465-.627.465-1.09 0-1.042-.54-1.57-1.617-1.586h-2.149zm0-1.656h1.735c1.182-.021 1.773-.493 1.773-1.414 0-.516-.15-.887-.449-1.114-.3-.226-.772-.34-1.418-.34h-1.64v2.868zm10.133.632h1.617c.73 0 1.37.123 1.922.368.552.244.976.595 1.27 1.05.294.456.441.986.441 1.59 0 .89-.33 1.608-.988 2.153-.659.544-1.556.816-2.692.816h-3.835v-8.453h2.265v2.476zm8.844 5.977h-2.258v-8.453h2.258V167zm-8.844-4.164v2.36h1.602c.448 0 .791-.105 1.031-.313.24-.209.36-.492.36-.852 0-.364-.118-.655-.352-.87-.235-.217-.58-.325-1.04-.325h-1.6zm15.922-4.29h2.258V167h-2.258v-5.219L135.406 167h-2.266v-8.453h2.266v5.21l2.828-5.21zm9.742 1.829h-3.5V167h-2.258v-8.453h5.758v1.828zm8.555 2.477c0 1.302-.296 2.345-.887 3.128-.59.784-1.39 1.176-2.394 1.176-.854 0-1.545-.297-2.07-.89v3.984h-2.258v-11.703h2.093l.078.828c.547-.656 1.26-.984 2.141-.984 1.042 0 1.852.385 2.43 1.156.578.77.867 1.833.867 3.187v.118zm-2.258-.165c0-.786-.14-1.393-.418-1.82-.278-.427-.683-.64-1.215-.64-.708 0-1.195.27-1.46.812v3.461c.275.557.768.836 1.476.836 1.078 0 1.617-.883 1.617-2.649zm6.07-1.664h1.618c.729 0 1.37.123 1.921.368.553.244.976.595 1.27 1.05.294.456.441.986.441 1.59 0 .89-.329 1.608-.988 2.153-.659.544-1.556.816-2.691.816h-3.836v-8.453h2.265v2.476zm8.844 5.977h-2.258v-8.453h2.258V167zm-8.844-4.164v2.36h1.602c.448 0 .792-.105 1.031-.313.24-.209.36-.492.36-.852 0-.364-.118-.655-.352-.87-.234-.217-.58-.325-1.039-.325h-1.602zm13.086-4.29v6.634h2.32v-6.633h2.266v6.633h2.32v-6.633h2.258V167h-11.421v-8.453h2.257zm13.274 4.962h-1.875l-.266-7.883h2.406l-.265 7.883zm-.938 1.234c.38 0 .687.112.918.336.232.224.348.51.348.86 0 .343-.116.627-.348.851-.231.224-.537.336-.918.336-.375 0-.678-.112-.91-.336a1.134 1.134 0 0 1-.347-.851c0-.344.115-.63.347-.856.232-.227.535-.34.91-.34z" id="b"/><path d="M23.08 16.921c-.071.995-.438 1.778-1.1 2.349-.663.571-1.536.857-2.62.857-1.184 0-2.116-.399-2.795-1.197-.68-.797-1.02-1.892-1.02-3.284v-.565c0-.89.157-1.672.47-2.35.314-.676.761-1.196 1.343-1.557.582-.362 1.258-.543 2.028-.543 1.067 0 1.926.286 2.577.857.652.571 1.029 1.373 1.13 2.406H21.19c-.047-.597-.213-1.03-.498-1.299-.286-.268-.72-.403-1.305-.403-.635 0-1.11.228-1.425.683-.315.455-.477 1.16-.485 2.117v.698c0 .999.15 1.729.453 2.19.303.461.78.692 1.432.692.588 0 1.027-.135 1.317-.403.29-.269.456-.685.498-1.248h1.905zm.845-.419c0-.68.131-1.288.393-1.821.263-.534.64-.946 1.133-1.238.493-.292 1.066-.438 1.717-.438.927 0 1.684.283 2.27.85.586.568.913 1.338.98 2.311l.013.47c0 1.053-.294 1.899-.882 2.536-.588.637-1.378.955-2.368.955s-1.78-.317-2.37-.952c-.591-.635-.886-1.498-.886-2.59v-.083zm1.834.134c0 .651.123 1.15.368 1.495.246.345.597.517 1.054.517.444 0 .791-.17 1.041-.511.25-.34.375-.886.375-1.635 0-.639-.125-1.134-.375-1.485-.25-.351-.6-.527-1.054-.527-.448 0-.795.175-1.04.524-.246.349-.369.89-.369 1.622zM31.682 20v-6.868h2.869c.935 0 1.652.165 2.152.495.499.33.749.804.749 1.422a1.3 1.3 0 0 1-.315.854c-.209.251-.515.445-.917.58.491.093.877.277 1.159.55.281.272.422.608.422 1.006 0 .639-.24 1.125-.72 1.46-.481.334-1.178.501-2.092.501h-3.307zm1.834-2.85v1.384h1.48c.647 0 .97-.227.97-.68 0-.46-.309-.696-.926-.704h-1.524zm0-1.232h1.136c.644-.008.965-.215.965-.622 0-.25-.088-.427-.263-.533-.176-.106-.444-.159-.803-.159h-1.035v1.314zM44.891 20h-1.84v-5.383h-2.299V20h-1.834v-6.868h5.973V20zm5.383 0a2.037 2.037 0 0 1-.184-.616c-.444.495-1.022.743-1.733.743-.673 0-1.23-.195-1.673-.584a1.878 1.878 0 0 1-.663-1.473c0-.728.27-1.286.81-1.675.539-.39 1.319-.587 2.338-.59h.845v-.394c0-.318-.082-.572-.245-.762-.163-.19-.42-.286-.771-.286-.309 0-.551.074-.727.222-.175.149-.263.352-.263.61h-1.835c0-.398.123-.766.369-1.105.245-.338.592-.604 1.04-.796a3.794 3.794 0 0 1 1.511-.29c.847 0 1.518.214 2.016.639.497.425.745 1.023.745 1.793v2.977c.005.652.096 1.145.273 1.48V20h-1.853zm-1.517-1.276c.27 0 .52-.06.749-.18.228-.121.398-.283.508-.486v-1.181h-.686c-.918 0-1.407.317-1.466.952l-.007.108c0 .229.08.417.242.565.16.148.38.222.66.222zm4.602-.203c.415-.44.696-.876.844-1.308.148-.431.23-1.043.248-1.834l.05-2.247h5.053v5.389h.99v3.542H58.71V20h-4.069v2.063H52.77v-3.542h.59zm2.164 0h2.203v-3.872h-1.428l-.013.825c-.038 1.261-.292 2.277-.762 3.047zm9.11 1.606c-1.008 0-1.828-.309-2.46-.927-.633-.618-.95-1.44-.95-2.469v-.178c0-.69.134-1.306.4-1.85a2.935 2.935 0 0 1 1.134-1.257c.488-.294 1.046-.441 1.672-.441.94 0 1.68.296 2.219.889.54.592.809 1.432.809 2.52v.749h-4.374c.06.448.239.808.537 1.079.298.27.676.406 1.133.406.707 0 1.259-.256 1.657-.768l.901 1.01c-.275.388-.647.692-1.117.91-.47.218-.99.327-1.562.327zm-.21-5.637c-.364 0-.66.123-.886.368-.226.246-.371.597-.434 1.054h2.551v-.146c-.008-.406-.118-.72-.33-.943-.211-.222-.512-.333-.901-.333zm9.705.114h-2.202V20h-1.841v-5.396H67.92v-1.472h6.208v1.472z" id="c"/></defs><g fill="none" fill-rule="evenodd"><path fill="#F1F1F2" d="M0 0h299v197H0z"/><path d="M1.987 1.98v193.04h295.026V1.98H1.987zM299 0v197H0V0h299z" fill="#C2C2C2" fill-rule="nonzero"/><g transform="translate(1 32)"><path d="M2.607 22.997v-1.22h292.358v1.22H2.607zm0 20.08v-1.22h292.358v1.22H2.607zm0 60.273v-1.22h292.358v1.22H2.607z" fill="#DEDEDD" fill-rule="nonzero"/><path d="M2.607 123.43v-1.22h3.62v1.22h-3.62zm7.24 0v-1.22h3.62v1.22h-3.62zm7.24 0v-1.22h3.621v1.22h-3.62zm7.241 0v-1.22h3.62v1.22h-3.62zm7.24 0v-1.22h3.62v1.22h-3.62zm7.241 0v-1.22h3.62v1.22h-3.62zm7.24 0v-1.22h3.62v1.22h-3.62zm7.24 0v-1.22h3.62v1.22h-3.62zm7.241 0v-1.22h3.62v1.22h-3.62zm7.24 0v-1.22h3.62v1.22h-3.62zm7.24 0v-1.22h3.621v1.22h-3.62zm7.241 0v-1.22h3.62v1.22h-3.62zm7.24 0v-1.22h3.62v1.22h-3.62zm7.241 0v-1.22h3.62v1.22h-3.62zm7.24 0v-1.22h3.62v1.22h-3.62zm7.24 0v-1.22h3.62v1.22h-3.62zm7.241 0v-1.22h3.62v1.22h-3.62zm7.24 0v-1.22h3.62v1.22h-3.62zm7.24 0v-1.22h3.621v1.22h-3.62zm7.241 0v-1.22h3.62v1.22h-3.62zm7.24 0v-1.22h3.62v1.22h-3.62zm7.241 0v-1.22h3.62v1.22h-3.62zm7.24 0v-1.22h3.62v1.22h-3.62zm7.24 0v-1.22h3.62v1.22h-3.62zm7.241 0v-1.22h3.62v1.22h-3.62zm7.24 0v-1.22h3.62v1.22h-3.62zm7.24 0v-1.22h3.621v1.22h-3.62zm7.241 0v-1.22h3.62v1.22h-3.62zm7.24 0v-1.22h3.62v1.22h-3.62zm7.241 0v-1.22h3.62v1.22h-3.62zm7.24 0v-1.22h3.62v1.22h-3.62zm7.24 0v-1.22h3.621v1.22h-3.62zm7.241 0v-1.22h3.62v1.22h-3.62zm7.24 0v-1.22h3.62v1.22h-3.62zm7.24 0v-1.22h3.621v1.22h-3.62zm7.241 0v-1.22h3.62v1.22h-3.62zm7.24 0v-1.22h3.62v1.22h-3.62zm7.241 0v-1.22h3.62v1.22h-3.62zm7.24 0v-1.22h3.62v1.22h-3.62zm7.24 0v-1.22h3.621v1.22h-3.62zm7.241 0v-1.22h2.743v1.22h-2.743z" fill="#293052" fill-rule="nonzero"/><path d="M2.607 143.508v-1.22h292.358v1.22H2.607zm34.71-141.2h1.22V160.59h-1.22V2.308zm36.998 0h1.22V160.59h-1.22V2.308zm36.997 0h1.22V160.59h-1.22V2.308zm36.96 0h1.219V160.59h-1.22V2.308zm36.996 0h1.22V160.59h-1.22V2.308zm36.998 0h1.22V160.59h-1.22V2.308zm36.997 0h1.219V160.59h-1.22V2.308zM2.607 83.272v-1.22h292.358v1.22H2.607zm0-20.08v-1.22h292.358v1.22H2.607z" fill="#DEDEDD" fill-rule="nonzero"/><path fill="#C2C2C2" fill-rule="nonzero" d="M.511 2.315V-.123h296.587v2.438z"/><path d="M148.162 83.358l41.674-30.607a1.81 1.81 0 0 1 2.71.689l32.272 68.61a1.81 1.81 0 1 1-3.276 1.54l-31.336-66.619-40.94 30.067a1.81 1.81 0 0 1-2.098.031L104.985 57.99 76.137 84.006a1.81 1.81 0 0 1-2.368.05L36.772 53.367a1.81 1.81 0 1 1 2.31-2.786l35.793 29.687 28.748-25.925a1.81 1.81 0 0 1 2.24-.146l42.299 29.16z" fill="#293052" fill-rule="nonzero"/><path d="M187.44 113.159h-35.282l-5.563-8.07-5.334 8.07h-35.283a4.765 4.765 0 0 0-3.366 1.384 4.733 4.733 0 0 0-1.397 3.351v24.512a4.733 4.733 0 0 0 1.397 3.35 4.765 4.765 0 0 0 3.366 1.385h81.462a4.778 4.778 0 0 0 3.442-1.346 4.722 4.722 0 0 0 1.435-3.39v-24.473a4.722 4.722 0 0 0-1.421-3.414 4.778 4.778 0 0 0-3.456-1.36v.001z" fill="#E88024"/><ellipse fill="#FFF" opacity=".6" cx="222.875" cy="122.82" rx="8.192" ry="8.373"/><path d="M222.876 132.411c-5.204 0-9.412-4.3-9.412-9.592 0-5.292 4.208-9.592 9.412-9.592 5.204 0 9.411 4.3 9.411 9.592 0 5.292-4.207 9.592-9.411 9.592zm0-2.438c3.845 0 6.973-3.197 6.973-7.154s-3.128-7.154-6.973-7.154c-3.845 0-6.974 3.197-6.974 7.154s3.129 7.154 6.974 7.154z" fill="#E88024" fill-rule="nonzero"/><path fill="#E88024" d="M245.927 113.424h28.767v18.79h-28.766z"/><path fill="#E88024" d="M249.433 122.82l-3.354 3.333-5.22-3.334 5.22-3.333z"/><path d="M257.32 121.683h1.372c.464.033.923-.132 1.257-.455.295-.348.445-.795.42-1.25a1.624 1.624 0 0 0-.42-1.174 1.608 1.608 0 0 0-1.22-.266 1.682 1.682 0 0 0-1.143.38c-.301.253-.469.63-.457 1.022h-2.363a2.721 2.721 0 0 1 1.068-2.31 4.322 4.322 0 0 1 2.82-.91 4.667 4.667 0 0 1 2.971.871 3.06 3.06 0 0 1 1.105 2.539 2.528 2.528 0 0 1-.496 1.477 3.35 3.35 0 0 1-1.371 1.099 3.05 3.05 0 0 1 1.525 1.098 2.87 2.87 0 0 1 .533 1.705 3.1 3.1 0 0 1-1.22 2.576c-.89.658-1.979.992-3.086.947a4.744 4.744 0 0 1-2.895-.87 2.796 2.796 0 0 1-1.144-2.501h2.515c-.01.432.17.848.496 1.136.346.304.794.467 1.257.455.488.032.967-.132 1.334-.455a1.66 1.66 0 0 0 .494-1.25 1.812 1.812 0 0 0-.456-1.402 1.989 1.989 0 0 0-1.41-.454h-1.486v-2.008z" fill="#FFF"/></g><use fill="#000" xlink:href="#a"/><use fill="#2A3052" xlink:href="#a"/><g><use fill="#000" xlink:href="#b"/><use fill="#FFF" xlink:href="#b"/></g><g fill="#000"><use xlink:href="#c"/><use xlink:href="#c"/></g></g></svg>