<svg width="300" height="199" viewBox="0 0 300 199" xmlns="http://www.w3.org/2000/svg"><title>Group 2</title><g fill="none" fill-rule="evenodd"><path fill="#F1F2F2" fill-rule="nonzero" d="M0 0h300v199H0z"/><path d="M39.125 55.375V74.75H75.25V55.375H39.125zm0-1H75.25V34h1v20.375h36.125V34h1v20.375H149.5V34h1v20.375h36.125V34h1v20.375h36.125V34h1v20.375h36.125V34h1v20.375H299.5v1h-37.625V74.75H299.5v1h-37.625v19.375H299.5v1h-37.625V115.5H299.5v1h-37.625v19.375H299.5v1h-37.625v19.375H299.5v1h-37.625v19.375H299.5v1h-37.625V199h-1v-21.375H224.75V199h-1v-21.375h-36.125V199h-1v-21.375H150.5V199h-1v-21.375h-36.125V199h-1v-21.375H76.25V199h-1v-21.375H39.125V199h-1v-21.375H1.5v-1h36.625V157.25H1.5v-1h36.625v-19.375H1.5v-1h36.625V116.5H1.5v-1h36.625V96.125H1.5v-1h36.625V75.75H1.5v-1h36.625V55.375H1.5v-1h36.625V34h1v20.375zm221.75 1H224.75V74.75h36.125V55.375zm-37.125 0h-36.125V74.75h36.125V55.375zm-37.125 0H150.5V74.75h36.125V55.375zm-37.125 0h-36.125V74.75H149.5V55.375zm-37.125 0H76.25V74.75h36.125V55.375zM39.125 75.75v19.375H75.25V75.75H39.125zm221.75 0H224.75v19.375h36.125V75.75zm-37.125 0h-36.125v19.375h36.125V75.75zm-37.125 0H150.5v19.375h36.125V75.75zm-37.125 0h-36.125v19.375H149.5V75.75zm-37.125 0H76.25v19.375h36.125V75.75zm-73.25 20.375V115.5H75.25V96.125H39.125zm221.75 0H224.75V115.5h36.125V96.125zm-37.125 0h-36.125V115.5h36.125V96.125zm-37.125 0H150.5V115.5h36.125V96.125zm-37.125 0h-36.125V115.5H149.5V96.125zm-37.125 0H76.25V115.5h36.125V96.125zM39.125 116.5v19.375H75.25V116.5H39.125zm221.75 0H224.75v19.375h36.125V116.5zm-37.125 0h-36.125v19.375h36.125V116.5zm-37.125 0H150.5v19.375h36.125V116.5zm-37.125 0h-36.125v19.375H149.5V116.5zm-37.125 0H76.25v19.375h36.125V116.5zm-73.25 20.375v19.375H75.25v-19.375H39.125zm221.75 0H224.75v19.375h36.125v-19.375zm-37.125 0h-36.125v19.375h36.125v-19.375zm-37.125 0H150.5v19.375h36.125v-19.375zm-37.125 0h-36.125v19.375H149.5v-19.375zm-37.125 0H76.25v19.375h36.125v-19.375zm-73.25 20.375v19.375H75.25V157.25H39.125zm221.75 0H224.75v19.375h36.125V157.25zm-37.125 0h-36.125v19.375h36.125V157.25zm-37.125 0H150.5v19.375h36.125V157.25zm-37.125 0h-36.125v19.375H149.5V157.25zm-37.125 0H76.25v19.375h36.125V157.25z" fill="#DFDEDE" fill-rule="nonzero"/><path stroke="#C2C2C2" stroke-width="2" d="M1 1h298v197H1z"/><path fill="#C2C2C2" fill-rule="nonzero" d="M0 33h300v2H0z"/><g transform="translate(2.5 43.721)"><path d="M.62 31.544h1.834" stroke="#293052" stroke-width="1.215" stroke-linejoin="round"/><path d="M6.124 31.544h284.199" stroke="#293052" stroke-width="1.215" stroke-linejoin="round" stroke-dasharray="3.646"/><path d="M292.158 31.544h1.796" stroke="#293052" stroke-width="1.215" stroke-linejoin="round"/><path stroke="#293052" stroke-width="3.608" stroke-linecap="round" stroke-linejoin="round" d="M36.058 72.873l37.12-36.46L110.3 87.676l37.006-22.71 37.197 28.553 74.242-62.56"/><path d="M186.07 104.23h-35.4l-5.581-8.296-5.353 8.297h-35.4c-2.64 0-4.779 2.18-4.779 4.869v25.203c0 2.689 2.14 4.869 4.779 4.869h81.735a4.731 4.731 0 0 0 3.453-1.384 4.915 4.915 0 0 0 1.44-3.485v-25.164a4.916 4.916 0 0 0-1.426-3.51 4.731 4.731 0 0 0-3.467-1.398z" fill="#E88024" fill-rule="nonzero"/><ellipse cx="8.437" cy="9.374" rx="8.219" ry="8.609" opacity=".6" transform="translate(250.308 22.17)" fill="#FFF" fill-rule="nonzero"/><ellipse stroke="#E88024" stroke-width="2.43" cx="258.745" cy="31.544" rx="8.219" ry="8.609"/><ellipse cx="8.481" cy="8.855" rx="8.219" ry="8.609" opacity=".6" transform="translate(27.577 64.018)" fill="#FFF" fill-rule="nonzero"/><ellipse stroke="#E88024" stroke-width="2.43" cx="36.058" cy="72.873" rx="8.219" ry="8.609"/><path fill="#E88024" fill-rule="nonzero" d="M246.053.81h25.346v16.983h-25.346z"/><path fill="#E88024" fill-rule="nonzero" d="M256.31 17.796l2.407-2.406 2.451 2.452-2.406 2.406z"/><path d="M255.954 9.963l.612-5.804h5.2v1.286h-3.824l-.612 3.038c.223-.174.468-.318.727-.428.303-.053.614-.053.917 0a2.765 2.765 0 0 1 2.256.935c.568.742.853 1.67.803 2.61a3.944 3.944 0 0 1-.841 2.57 3.028 3.028 0 0 1-2.447.974 3.286 3.286 0 0 1-2.18-.74 2.556 2.556 0 0 1-.84-2.142h1.261c-.024.493.156.974.497 1.324.344.32.797.488 1.262.468a1.63 1.63 0 0 0 1.376-.624c.356-.51.53-1.128.497-1.753a2.645 2.645 0 0 0-.497-1.675 1.632 1.632 0 0 0-1.376-.662 2.184 2.184 0 0 0-1.185.273c-.26.19-.449.465-.535.779l-1.07-.429z" fill="#FFF" fill-rule="nonzero"/><path fill="#D5D3DA" fill-rule="nonzero" d="M134.728 33.608h25.347v16.984h-25.347z"/><path fill="#D5D3DA" fill-rule="nonzero" d="M144.959 50.574l2.406-2.406 2.451 2.452-2.406 2.406z"/><path d="M150.861 47.437h-6.728v-.896l3.402-3.896a9.646 9.646 0 0 0 1.376-1.597 2.618 2.618 0 0 0 0-1.402 2.01 2.01 0 0 0-.458-1.324 1.48 1.48 0 0 0-1.185-.546 2.04 2.04 0 0 0-1.568.546 2.248 2.248 0 0 0-.497 1.558h-1.223a3.03 3.03 0 0 1 .88-2.299 3.478 3.478 0 0 1 2.56-.934 2.987 2.987 0 0 1 2.218.818c.555.551.86 1.313.84 2.103a3.436 3.436 0 0 1-.496 1.714 11.04 11.04 0 0 1-1.415 1.87l-2.714 3h5.008v1.285z" fill="#293052" fill-rule="nonzero"/><path fill="#D5D3DA" fill-rule="nonzero" d="M23.366 41.788h25.346v16.984H23.366z"/><path fill="#D5D3DA" fill-rule="nonzero" d="M33.623 58.766l2.406-2.406 2.451 2.451-2.406 2.406z"/><path fill="#293052" fill-rule="nonzero" d="M36.822 55.695h-1.414V46.54h-2.14v-1.013l3.516-.39v10.557z"/></g><path d="M26.32 21.707h-1.993V17.58h-4.046v4.128H18.29v-9.934h1.992v4.271h4.046v-4.271h1.993v9.934zm4.878.143c-1.1 0-1.96-.337-2.579-1.013-.618-.675-.928-1.545-.928-2.61v-.273c0-1.105.3-2.01.9-2.715.601-.705 1.427-1.055 2.478-1.05.991 0 1.752.303 2.282.91s.795 1.425.795 2.453v1.03h-4.401l-.02.041c.031.505.185.914.46 1.228.275.314.684.471 1.225.471.446 0 .824-.045 1.136-.136.311-.091.633-.23.965-.417l.54 1.229c-.296.24-.697.443-1.202.607a5.326 5.326 0 0 1-1.65.245zm-.13-6.127c-.4 0-.708.138-.924.413-.216.275-.347.64-.392 1.095l.013.034h2.43v-.15c0-.432-.09-.772-.267-1.02-.177-.248-.464-.372-.86-.372zm10.576 5.984h-1.992v-2.34a4.26 4.26 0 0 1-.515.078c-.175.016-.34.024-.495.024-1.087 0-1.925-.232-2.514-.696-.59-.464-.884-1.173-.884-2.129v-2.32h1.993v2.32c0 .487.107.824.32 1.01.214.187.576.28 1.085.28a4.6 4.6 0 0 0 .502-.027c.166-.018.335-.046.508-.082v-3.5h1.992v7.382zm4.688.143c-1.1 0-1.96-.337-2.58-1.013-.618-.675-.927-1.545-.927-2.61v-.273c0-1.105.3-2.01.9-2.715.6-.705 1.427-1.055 2.477-1.05.992 0 1.753.303 2.283.91s.794 1.425.794 2.453v1.03h-4.4l-.02.041c.031.505.184.914.46 1.228.275.314.683.471 1.224.471.446 0 .825-.045 1.136-.136.312-.091.634-.23.966-.417l.539 1.229c-.296.24-.696.443-1.2.607a5.326 5.326 0 0 1-1.652.245zm-.13-6.127c-.4 0-.708.138-.924.413-.216.275-.347.64-.393 1.095l.014.034h2.43v-.15c0-.432-.09-.772-.267-1.02-.177-.248-.464-.372-.86-.372zm2.457-2.75h-1.815v-1.391h1.815v1.392zm-3.412 0h-1.815v-1.391h1.815v1.392zm11.367 2.873h-2.36v5.861h-2v-5.86h-2.326v-1.522h6.686v1.521zm7.43 5.861h-1.992v-2.866h-2.429v2.866h-1.992v-7.382h1.992v2.988h2.43v-2.988h1.992v7.382zm1.201-3.76c0-1.1.308-2.002.922-2.705.614-.702 1.464-1.054 2.551-1.054 1.092 0 1.947.35 2.566 1.05.619.701.928 1.604.928 2.71v.143c0 1.11-.308 2.014-.925 2.712-.616.698-1.468 1.047-2.555 1.047-1.092 0-1.946-.349-2.562-1.047-.616-.698-.925-1.602-.925-2.712v-.143zm1.986.144c0 .673.118 1.213.355 1.62.236.408.618.611 1.146.611.514 0 .89-.205 1.13-.614.238-.41.358-.948.358-1.617v-.143c0-.655-.121-1.19-.362-1.604-.241-.414-.621-.62-1.14-.62-.514 0-.89.207-1.129.624-.239.416-.358.95-.358 1.6v.143zm9.409 3.76c-1.1 0-1.96-.338-2.58-1.014-.618-.675-.927-1.545-.927-2.61v-.273c0-1.105.3-2.01.9-2.715.601-.705 1.427-1.055 2.477-1.05.992 0 1.753.303 2.283.91s.795 1.425.795 2.453v1.03h-4.401l-.02.041c.031.505.185.914.46 1.228.275.314.683.471 1.225.471.445 0 .824-.045 1.136-.136.311-.091.633-.23.965-.417l.54 1.229c-.297.24-.697.443-1.202.607a5.326 5.326 0 0 1-1.651.245zm-.13-6.128c-.4 0-.708.138-.924.413-.216.275-.347.64-.392 1.095l.013.034h2.43v-.15c0-.432-.09-.772-.267-1.02-.177-.248-.464-.372-.86-.372z" fill="#020202" fill-rule="nonzero"/><g fill="#FFF" fill-rule="nonzero"><path d="M185.219 166.437h-1.99v-6.584h1.99zM185.219 169.902h-1.99v-1.77h1.99z"/><g><path d="M113.955 159.39h4.226c.765 0 2.745.578 2.879 2.371.088 1.195-.398 2.04-1.459 2.534 1.356.33 2.059 1.177 2.108 2.543.074 2.05-1.875 3.047-3.108 3.047h-4.646V159.39zm1.666 9.072h2.388c.57 0 1.935-.105 1.935-1.692s-1.683-1.692-1.935-1.692h-2.388v3.384zm.04-7.729v3.01h1.961c1.024 0 1.763-.526 1.7-1.646-.064-1.12-1.026-1.339-1.7-1.364h-1.96zM123.437 162.037h1.723v2.718h2.061c.497 0 2.958.384 2.84 2.608-.118 2.223-2.07 2.492-2.964 2.492h-3.66v-7.818zm1.742 4.143v2.315h1.693c.423 0 1.464-.16 1.464-1.158 0-.997-1.063-1.157-1.464-1.157h-1.693zM158.493 161.885h1.722v2.718h2.062c.497 0 2.958.384 2.84 2.608-.118 2.223-2.07 2.492-2.964 2.492h-3.66v-7.818zm1.742 4.143v2.315h1.693c.422 0 1.463-.16 1.463-1.158 0-.997-1.063-1.157-1.463-1.157h-1.693zM131.2 162.03h1.666v7.85h-1.665zM166.316 161.87h1.665v7.85h-1.665zM135.265 162.033h1.68v5.255l3.155-5.255h1.681v7.812H140.1v-5.226l-3.09 5.226h-1.745zM148.833 162.068v1.364h-3.33v6.418h-1.816v-7.782zM149.903 162.023l1.496.016.142.988c.783-1.128 2.21-1.421 3.458-.874 1.019.447 1.673 2.062 1.73 3.058.104 1.806.073 3.21-1.215 4.24-1.288 1.03-2.93.667-3.9-.366v3.772h-1.711v-10.834zm1.77 2.192c.021 1 .007 2.236 0 3.569.884 1.242 2.048.865 2.601.524.578-.357.792-1.567.723-2.656-.049-.764-.432-1.994-1.217-2.25-.791-.257-1.475-.114-2.107.813zM170.442 162.025v7.817h10.18v-7.817h-1.775v6.407h-2.384v-6.407h-1.747v6.407h-2.522c-.021-3.742-.021-5.877 0-6.407h-1.752z"/></g></g><g fill="#2A3052" fill-rule="nonzero"><path d="M30.676 138.973c-.03-.154-.03-.277-.03-.43a2.847 2.847 0 0 1-.83.768 2.006 2.006 0 0 1-1.107.307c-.645 0-1.137-.153-1.475-.522a1.875 1.875 0 0 1-.522-1.383c0-.615.245-1.076.737-1.414.492-.338 1.137-.522 1.967-.522h1.23v-.615c0-.368-.124-.676-.339-.89-.215-.216-.553-.339-.953-.339-.368 0-.676.092-.89.277-.216.184-.339.43-.339.676H27.05v-.03c-.031-.462.184-.892.645-1.26.46-.37 1.045-.585 1.752-.585.706 0 1.29.185 1.72.553.43.37.646.892.646 1.568v3.042c0 .215 0 .43.03.645.031.215.062.43.124.615h-1.199v.061c-.03-.184-.061-.368-.092-.522zm-1.86-.369c.4 0 .799-.092 1.106-.307.338-.215.553-.461.645-.738v-1.014h-1.26c-.46 0-.83.123-1.106.338a1.03 1.03 0 0 0-.4.83c0 .277.093.492.246.676.185.123.43.215.769.215zM43.619 138.943c-.03-.154-.03-.277-.03-.43a2.847 2.847 0 0 1-.83.768 2.006 2.006 0 0 1-1.107.307c-.645 0-1.137-.154-1.475-.522a1.875 1.875 0 0 1-.522-1.383c0-.615.246-1.076.737-1.414.492-.338 1.137-.522 1.967-.522h1.23v-.615c0-.369-.124-.676-.339-.891-.215-.215-.553-.338-.952-.338-.37 0-.677.092-.892.276-.215.185-.338.43-.338.676h-1.075v-.03c-.031-.461.184-.892.645-1.26.461-.37 1.045-.584 1.752-.584.707 0 1.29.184 1.72.553.43.369.646.891.646 1.567v3.043c0 .215 0 .43.03.645.031.215.062.43.124.615H43.71v.061c-.03-.184-.061-.369-.092-.522zm-1.86-.37c.4 0 .799-.091 1.106-.306.338-.216.553-.461.645-.738v-1.014h-1.26c-.46 0-.83.123-1.106.338a1.03 1.03 0 0 0-.4.83c0 .276.093.491.247.676.184.123.43.215.768.215zM55.17 133.145c.693-.037 1.57.203 2.061.701.543.551.931 1.236.931 2.368 0 1.001-.2 1.725-.674 2.31-.535.661-1.369.964-2.045.964-.702 0-1.463-.11-2.103-.701-.523-.484-1.007-1.313-.959-2.47.053-1.279.465-2.008.96-2.47.5-.468 1.086-.661 1.829-.702zm.25.837c-.796 0-1.757.519-1.757 2.127 0 1.608.593 2.565 1.659 2.565 1.065 0 1.765-1.082 1.657-2.565-.108-1.483-.765-2.127-1.56-2.127zM24.041 131.09h1.118v8.277h-1.118V135.7h-4.047v3.667h-1.117v-8.277h1.117v3.762h4.047zM33.298 133.19h1.085v1.87c-.002 1.269.89 1.678 2.678 1.228l.02-3.042h1.1v6.09h-1.1c.006-.888.006-1.62 0-2.195-1.163.316-2.896.336-3.508-.85-.25-.485-.27-.945-.275-1.386a72.446 72.446 0 0 1 0-1.715zM45.63 138.414c.008.262-.03.482-.03.953 2.533.16 2.565-2.046 2.458-5.26l2.055-.002v5.307h1.108v-6.18a124.26 124.26 0 0 0-4.297 0c-.078 2.4.49 5.314-1.295 5.182z"/></g><g fill="#2A3052" fill-rule="nonzero"><path d="M270.846 96.868h-3.936c0 .73.15 1.259.447 1.584.392.429.805.584 1.37.527.99-.098 1.18-.363 1.589-.597l.416.715c-.487.503-1.265.755-2.336.755-1.606 0-2.585-1.331-2.65-2.916-.063-1.584.57-3.422 2.65-3.5 1.763.047 2.58 1.191 2.45 3.432zm-1.105-.871c-.012-1.115-.46-1.672-1.344-1.672-.884 0-1.368.557-1.45 1.672h2.794zM255.305 93.44c.677-.037 1.535.199 2.015.685.53.539.91 1.209.91 2.314 0 .98-.196 1.687-.659 2.259-.523.646-1.338.942-2 .942-.685 0-1.43-.108-2.054-.686-.512-.472-.985-1.283-.938-2.414.052-1.25.454-1.963.938-2.415.488-.456 1.062-.645 1.788-.685zm.243.818c-.777 0-1.716.507-1.716 2.079s.58 2.507 1.621 2.507c1.042 0 1.726-1.057 1.62-2.507-.106-1.45-.747-2.079-1.525-2.079zM272.043 93.558h1.063v5.214h2.677v-5.214h1.103v5.214h.732v2.83h-1.064v-1.954h-4.511zM246.06 91.471h1.068v3.51h.672l2.954-3.51h1.221l-3.254 3.847 3.546 4.302h-1.342l-3.125-3.7h-.672v3.7h-1.067zM259.508 93.584h1.115v2.581h2.654v-2.581h1.048v5.969h-1.048v-2.511h-2.654v2.511h-1.115z"/></g></g></svg>