<svg width="299" height="197" xmlns="http://www.w3.org/2000/svg"><g fill="none" fill-rule="evenodd"><path fill="#F1F1F2" d="M0 0h299v197H0z"/><path d="M1.987 1.98v193.04h295.026V1.98H1.987zM299 0v197H0V0h299z" fill="#C2C2C2" fill-rule="nonzero"/><path d="M4.58 54.993v-1.211h290.408v1.21H4.58zm0 40.195v-1.21h290.408v1.21H4.58zm0 40.158v-1.211h290.408v1.211H4.58zm0 20.079v-1.211h290.408v1.211H4.58zm0 20.079v-1.211h290.408v1.21H4.58zM39.06 34.308h1.21V192.59h-1.21V34.308zm36.75 0h1.21V192.59h-1.21V34.308zm36.75 0h1.211V192.59h-1.21V34.308zm36.713 0h1.211V192.59h-1.211V34.308zm36.75 0h1.212V192.59h-1.212V34.308zm36.75 0h1.212V192.59h-1.211V34.308zm36.751 0h1.212V192.59h-1.212V34.308zM4.58 115.268v-1.212h290.408v1.211H4.58z" fill="#DEDEDD" fill-rule="nonzero"/><path fill="#293052" fill-rule="nonzero" d="M4.58 75.072V73.86h1.816v1.21zM10.03 75.072V73.86h3.633v1.21H10.03zm7.267 0V73.86h3.633v1.21h-3.633zm7.266 0V73.86h3.634v1.21h-3.634zm7.267 0V73.86h3.634v1.21H31.83zm7.267 0V73.86h3.634v1.21h-3.634zm7.267 0V73.86h3.633v1.21h-3.633zm7.267 0V73.86h3.633v1.21h-3.633zm7.267 0V73.86h3.633v1.21h-3.633zm7.266 0V73.86h3.634v1.21h-3.634zm7.267 0V73.86h3.634v1.21H75.43zm7.267 0V73.86h3.634v1.21h-3.634zm7.267 0V73.86h3.633v1.21h-3.633zm7.267 0V73.86h3.633v1.21h-3.633zm7.267 0V73.86h3.633v1.21h-3.633zm7.266 0V73.86h3.634v1.21h-3.634zm7.267 0V73.86h3.634v1.21h-3.634zm7.267 0V73.86h3.634v1.21h-3.634zm7.267 0V73.86h3.633v1.21h-3.633zm7.267 0V73.86h3.633v1.21h-3.633zm7.267 0V73.86h3.633v1.21H148.1zm7.266 0V73.86H159v1.21h-3.634zm7.267 0V73.86h3.634v1.21h-3.634zm7.267 0V73.86h3.634v1.21H169.9zm7.267 0V73.86h3.633v1.21h-3.633zm7.267 0V73.86h3.633v1.21h-3.633zm7.267 0V73.86h3.633v1.21h-3.633zm7.266 0V73.86h3.634v1.21h-3.634zm7.267 0V73.86h3.634v1.21h-3.634zm7.267 0V73.86h3.634v1.21H213.5zm7.267 0V73.86h3.633v1.21h-3.633zm7.267 0V73.86h3.633v1.21h-3.633zm7.267 0V73.86h3.633v1.21h-3.633zm7.266 0V73.86h3.634v1.21h-3.634zm7.267 0V73.86h3.634v1.21h-3.634zm7.267 0V73.86h3.634v1.21h-3.634zm7.267 0V73.86h3.633v1.21h-3.633zm7.267 0V73.86h3.633v1.21h-3.633zm7.267 0V73.86h3.633v1.21h-3.633zm7.266 0V73.86h3.634v1.21h-3.634zM293.21 75.072V73.86h1.778v1.21z"/><path fill="#C2C2C2" fill-rule="nonzero" d="M2.498 34.307v-2.422h294.61v2.422z"/><path d="M76.186 81.92l-35.273 34.035a1.798 1.798 0 0 1-2.496-2.587l36.75-35.46a1.798 1.798 0 0 1 2.695.227l35.779 48.537 35.234-21.24a1.798 1.798 0 0 1 2.01.104l35.692 26.914 72.407-59.937a1.798 1.798 0 1 1 2.292 2.77l-73.5 60.842a1.798 1.798 0 0 1-2.23.051l-35.856-27.038-35.596 21.46a1.798 1.798 0 0 1-2.375-.473L76.186 81.92z" fill="#293052" fill-rule="nonzero"/><path d="M188.18 145.159h-35.047l-5.525-8.07-5.3 8.07h-35.046a4.733 4.733 0 0 0-4.731 4.735v24.512a4.733 4.733 0 0 0 4.73 4.735h80.92a4.729 4.729 0 0 0 3.419-1.346 4.738 4.738 0 0 0 1.425-3.39v-24.473a4.738 4.738 0 0 0-1.412-3.414 4.729 4.729 0 0 0-3.432-1.36z" fill="#E88024"/><ellipse cx="8.333" cy="9.062" rx="8.137" ry="8.373" opacity=".6" transform="translate(251.797 65.404)" fill="#FFF"/><path d="M260.13 84.05c-5.17 0-9.348-4.299-9.348-9.584 0-5.285 4.177-9.583 9.348-9.583 5.17 0 9.348 4.298 9.348 9.583s-4.177 9.584-9.348 9.584zm0-2.422c3.817 0 6.926-3.2 6.926-7.162 0-3.963-3.109-7.161-6.926-7.161s-6.926 3.198-6.926 7.161c0 3.963 3.109 7.162 6.926 7.162z" fill="#E88024" fill-rule="nonzero"/><ellipse cx="8.386" cy="8.585" rx="8.137" ry="8.373" opacity=".6" transform="translate(31.278 106.077)" fill="#FFF"/><path d="M39.665 124.245c-5.171 0-9.349-4.298-9.349-9.583 0-5.286 4.178-9.584 9.349-9.584 5.17 0 9.348 4.298 9.348 9.584 0 5.285-4.177 9.583-9.348 9.583zm0-2.422c3.817 0 6.926-3.199 6.926-7.161 0-3.963-3.109-7.162-6.926-7.162-3.818 0-6.926 3.199-6.926 7.162 0 3.962 3.108 7.161 6.926 7.161z" fill="#E88024" fill-rule="nonzero"/><path fill="#E88024" d="M247.564 44.575h25.094v16.518h-25.094z"/><path fill="#E88024" d="M257.745 61.12l2.382-2.383 2.382 2.384-2.382 2.384z"/><path d="M257.367 53.478l.606-5.645h5.147v1.25h-3.785l-.605 2.955c.22-.169.462-.31.719-.416.3-.052.607-.052.908 0a2.762 2.762 0 0 1 2.233.909 3.79 3.79 0 0 1 .795 2.538 3.79 3.79 0 0 1-.833 2.5 3.026 3.026 0 0 1-2.422.948 3.29 3.29 0 0 1-2.157-.72 2.464 2.464 0 0 1-.833-2.084h1.249c-.025.48.154.948.492 1.288.34.311.789.475 1.249.455a1.627 1.627 0 0 0 1.363-.606 2.692 2.692 0 0 0 .492-1.705 2.54 2.54 0 0 0-.492-1.629 1.627 1.627 0 0 0-1.363-.644 2.193 2.193 0 0 0-1.173.265 1.402 1.402 0 0 0-.53.758l-1.06-.417z" fill="#FFF"/><path fill="#D5D3DA" d="M137.35 76.474h25.094v16.518h-25.093z"/><path fill="#D5D3DA" d="M147.505 93l2.382-2.385L152.268 93l-2.381 2.385z"/><path d="M153.323 89.923h-6.662v-.871l3.369-3.789a9.43 9.43 0 0 0 1.362-1.553 2.503 2.503 0 0 0 0-1.364c.01-.47-.15-.928-.454-1.288a1.475 1.475 0 0 0-1.173-.53 2.043 2.043 0 0 0-1.552.53 2.16 2.16 0 0 0-.492 1.515h-1.211a2.919 2.919 0 0 1 .87-2.235 3.48 3.48 0 0 1 2.536-.909 2.988 2.988 0 0 1 2.196.796c.549.536.85 1.277.832 2.045a3.298 3.298 0 0 1-.492 1.667c-.4.655-.87 1.264-1.4 1.819l-2.687 2.917h4.958v1.25z" fill="#293052"/><path fill="#D5D3DA" d="M27.1 84.43h25.093v16.517H27.099z"/><path fill="#D5D3DA" d="M37.28 100.966l2.381-2.384 2.382 2.384-2.382 2.384z"/><path fill="#293052" d="M40.422 97.955h-1.4v-8.903h-2.12v-.985l3.482-.38v10.268z"/><path d="M22.32 21.125h-1.993v-4.127h-4.046v4.128H14.29v-9.934h1.992v4.271h4.046v-4.271h1.993v9.934l-.001-.001zm4.878.143c-1.1 0-1.96-.337-2.579-1.013-.618-.675-.928-1.545-.928-2.61v-.273c0-1.105.3-2.01.9-2.715.601-.705 1.427-1.055 2.478-1.05.991 0 1.752.303 2.282.91s.795 1.425.795 2.453V18h-4.401l-.02.041c.031.505.185.914.46 1.228.275.314.684.471 1.225.471.446 0 .824-.045 1.136-.136.311-.091.633-.23.965-.417l.54 1.229c-.296.24-.697.443-1.202.607-.534.168-1.09.25-1.65.245h-.001zm-.13-6.127c-.4 0-.708.138-.924.413-.216.275-.347.64-.392 1.095l.013.034h2.43v-.15c0-.432-.09-.772-.267-1.02-.177-.248-.464-.372-.86-.372zm10.576 5.984h-1.992v-2.34a4.26 4.26 0 0 1-.515.078 5.45 5.45 0 0 1-.495.024c-1.087 0-1.925-.232-2.514-.696-.59-.464-.884-1.173-.884-2.129v-2.32h1.993v2.32c0 .487.107.824.32 1.01.214.187.576.28 1.085.28a4.6 4.6 0 0 0 1.01-.109v-3.5h1.992v7.382zm4.688.143c-1.1 0-1.96-.337-2.58-1.013-.618-.675-.927-1.545-.927-2.61v-.273c0-1.105.3-2.01.9-2.715.6-.705 1.427-1.055 2.477-1.05.992 0 1.753.303 2.283.91s.794 1.425.794 2.453V18h-4.4l-.02.041c.031.505.184.914.46 1.228.275.314.683.471 1.224.471.446 0 .825-.045 1.136-.136.312-.091.634-.23.966-.417l.539 1.229c-.296.24-.696.443-1.2.607a5.326 5.326 0 0 1-1.652.245zm-.13-6.127c-.4 0-.708.138-.924.413-.216.275-.347.64-.393 1.095l.014.034h2.43v-.15c0-.432-.09-.772-.267-1.02-.177-.248-.464-.372-.86-.372zm2.457-2.75h-1.815V11h1.815v1.392-.001zm-3.412 0h-1.815V11h1.815v1.392-.001zm11.367 2.873h-2.36v5.861h-2v-5.86h-2.326v-1.522h6.686v1.521zm7.43 5.861h-1.992v-2.866h-2.429v2.866h-1.992v-7.382h1.992v2.988h2.43v-2.988h1.992v7.382h-.001zm1.201-3.76c0-1.1.308-2.002.922-2.705.614-.702 1.464-1.054 2.551-1.054 1.092 0 1.947.35 2.566 1.05.619.701.928 1.604.928 2.71v.143c0 1.11-.308 2.014-.925 2.712-.616.698-1.468 1.047-2.555 1.047-1.092 0-1.946-.349-2.562-1.047-.616-.698-.925-1.602-.925-2.712v-.144zm1.986.144c0 .673.118 1.213.355 1.62.236.408.618.611 1.146.611.514 0 .89-.205 1.13-.614.238-.41.358-.948.358-1.617v-.143c0-.655-.121-1.19-.362-1.604-.241-.414-.621-.62-1.14-.62-.514 0-.89.207-1.129.624-.239.416-.358.95-.358 1.6v.143zm9.409 3.76c-1.1 0-1.96-.338-2.58-1.014-.618-.675-.927-1.545-.927-2.61v-.273c0-1.105.3-2.01.9-2.715.601-.705 1.427-1.055 2.477-1.05.992 0 1.753.303 2.283.91s.795 1.425.795 2.453V18h-4.401l-.02.041c.031.505.185.914.46 1.228.275.314.683.471 1.225.471.445 0 .824-.045 1.136-.136.311-.091.633-.23.965-.417l.54 1.229c-.297.24-.697.443-1.202.607a5.326 5.326 0 0 1-1.651.245v.001zm-.13-6.128c-.4 0-.708.138-.924.413-.216.275-.347.64-.392 1.095l.013.034h2.43v-.15c0-.432-.09-.772-.267-1.02-.177-.248-.464-.372-.86-.372z" fill="#020202" fill-rule="nonzero"/><g fill="#FFF" fill-rule="nonzero"><path d="M185.219 162.855h-1.99v-6.584h1.99v6.584zm0 3.465h-1.99v-1.77h1.99v1.77zM113.955 155.808h4.226c.765 0 2.745.578 2.879 2.371.088 1.195-.398 2.04-1.459 2.534 1.356.33 2.059 1.177 2.108 2.543.074 2.05-1.875 3.047-3.108 3.047h-4.646v-10.495zm1.666 9.072h2.388c.57 0 1.935-.105 1.935-1.692s-1.683-1.692-1.935-1.692h-2.388v3.384zm.04-7.729v3.01h1.961c1.024 0 1.763-.526 1.7-1.646-.064-1.12-1.026-1.339-1.7-1.364H115.661zm7.776 1.304h1.723v2.718h2.061c.497 0 2.958.384 2.84 2.608-.118 2.223-2.07 2.492-2.964 2.492h-3.66v-7.818zm1.742 4.143v2.315h1.693c.423 0 1.464-.16 1.464-1.158 0-.997-1.063-1.157-1.464-1.157h-1.693zm33.314-4.295h1.722v2.718h2.062c.497 0 2.958.384 2.84 2.608-.118 2.223-2.07 2.492-2.964 2.492h-3.66v-7.818zm1.742 4.143v2.315h1.693c.422 0 1.463-.16 1.463-1.158 0-.997-1.063-1.157-1.463-1.157h-1.693zm-29.035-3.998h1.666v7.85h-1.665l-.001-7.85zm35.116-.16h1.665v7.85h-1.665v-7.85zm-31.051.163h1.68v5.255l3.155-5.255h1.681v7.812H140.1v-5.226l-3.09 5.226h-1.745v-7.812zm13.568.035v1.364h-3.33v6.418h-1.816v-7.782h5.146zm1.07-.045l1.496.016.142.988c.783-1.128 2.21-1.421 3.458-.874 1.019.447 1.673 2.062 1.73 3.058.104 1.806.073 3.21-1.215 4.24-1.288 1.03-2.93.667-3.9-.366v3.772h-1.711v-10.834zm1.77 2.192c.021 1 .007 2.236 0 3.569.884 1.242 2.048.865 2.601.524.578-.357.792-1.567.723-2.656-.049-.764-.432-1.994-1.217-2.25-.791-.257-1.475-.114-2.107.813zm18.769-2.19v7.817h10.18v-7.817h-1.775v6.407h-2.384v-6.407h-1.747v6.407h-2.522c-.021-3.742-.021-5.877 0-6.407h-1.752z"/></g><g fill="#2A3052" fill-rule="nonzero"><path d="M30.676 135.391c-.03-.154-.03-.277-.03-.43-.223.309-.505.57-.83.768a2.006 2.006 0 0 1-1.107.307c-.645 0-1.137-.153-1.475-.522a1.875 1.875 0 0 1-.522-1.383c0-.615.245-1.076.737-1.414.492-.338 1.137-.522 1.967-.522h1.23v-.615c0-.368-.124-.676-.339-.89-.215-.216-.553-.339-.953-.339-.368 0-.676.092-.89.277a.903.903 0 0 0-.339.676H27.05v-.03c-.031-.462.184-.892.645-1.26.46-.37 1.045-.585 1.752-.585.706 0 1.29.185 1.72.553.43.37.646.892.646 1.568v3.042c0 .215 0 .43.03.645.031.215.062.43.124.615h-1.199v.061a15.1 15.1 0 0 0-.092-.522zm-1.86-.369c.4 0 .799-.092 1.106-.307.338-.215.553-.461.645-.738v-1.014h-1.26c-.46 0-.83.123-1.106.338a1.03 1.03 0 0 0-.4.83c0 .277.093.492.246.676.185.123.43.215.769.215zm14.803.339c-.03-.154-.03-.277-.03-.43-.223.309-.505.57-.83.768a2.006 2.006 0 0 1-1.107.307c-.645 0-1.137-.154-1.475-.522a1.875 1.875 0 0 1-.522-1.383c0-.615.246-1.076.737-1.414.492-.338 1.137-.522 1.967-.522h1.23v-.615c0-.369-.124-.676-.339-.891-.215-.215-.553-.338-.952-.338-.37 0-.677.092-.892.276-.215.185-.338.43-.338.676h-1.075v-.03c-.031-.461.184-.892.645-1.26.461-.37 1.045-.584 1.752-.584.707 0 1.29.184 1.72.553.43.369.646.891.646 1.567v3.043c0 .215 0 .43.03.645.031.215.062.43.124.615h-1.2v.061c-.03-.184-.061-.369-.092-.522h.001zm-1.86-.37c.4 0 .799-.091 1.106-.306.338-.216.553-.461.645-.738v-1.014h-1.26c-.46 0-.83.123-1.106.338a1.03 1.03 0 0 0-.4.83c0 .276.093.491.247.676.184.123.43.215.768.215v-.001zm13.411-5.428c.693-.037 1.57.203 2.061.701.543.551.931 1.236.931 2.368 0 1.001-.2 1.725-.674 2.31-.535.661-1.369.964-2.045.964-.702 0-1.463-.11-2.103-.701-.523-.484-1.007-1.313-.959-2.47.053-1.279.465-2.008.96-2.47.5-.468 1.086-.661 1.829-.702zm.25.837c-.796 0-1.757.519-1.757 2.127 0 1.608.593 2.565 1.659 2.565 1.065 0 1.765-1.082 1.657-2.565-.108-1.483-.765-2.127-1.56-2.127h.001zm-31.379-2.892h1.118v8.277h-1.118v-3.667h-4.047v3.667h-1.117v-8.277h1.117v3.762h4.047v-3.762zm9.257 2.1h1.085v1.87c-.002 1.269.89 1.678 2.678 1.228l.02-3.042h1.1v6.09h-1.1c.006-.888.006-1.62 0-2.195-1.163.316-2.896.336-3.508-.85-.25-.485-.27-.945-.275-1.386a72.446 72.446 0 0 1 0-1.715zm12.332 5.224c.008.262-.03.482-.03.953 2.533.16 2.565-2.046 2.458-5.26l2.055-.002v5.307h1.108v-6.18a124.26 124.26 0 0 0-4.297 0c-.078 2.4.49 5.314-1.295 5.182h.001z"/></g><g fill="#2A3052" fill-rule="nonzero"><path d="M270.846 93.286h-3.936c0 .73.15 1.259.447 1.584.392.429.805.584 1.37.527.99-.098 1.18-.363 1.589-.597l.416.715c-.487.503-1.265.755-2.336.755-1.606 0-2.585-1.331-2.65-2.916-.063-1.584.57-3.422 2.65-3.5 1.763.047 2.58 1.191 2.45 3.432zm-1.105-.871c-.012-1.115-.46-1.672-1.344-1.672-.884 0-1.368.557-1.45 1.672h2.794zm-14.436-2.557c.677-.037 1.535.199 2.015.685.53.539.91 1.209.91 2.314 0 .98-.196 1.687-.659 2.259-.523.646-1.338.942-2 .942-.685 0-1.43-.108-2.054-.686-.512-.472-.985-1.283-.938-2.414.052-1.25.454-1.963.938-2.415.488-.456 1.062-.645 1.788-.685zm.243.818c-.777 0-1.716.507-1.716 2.079s.58 2.507 1.621 2.507c1.042 0 1.726-1.057 1.62-2.507-.106-1.45-.747-2.079-1.525-2.079zm16.495-.7h1.063v5.214h2.677v-5.214h1.103v5.214h.732v2.83h-1.064v-1.954h-4.511v-6.09zm-25.983-2.087h1.068v3.51h.672l2.954-3.51h1.221l-3.254 3.847 3.546 4.302h-1.342l-3.125-3.7h-.672v3.7h-1.067l-.001-8.149zm13.448 2.113h1.115v2.581h2.654v-2.581h1.048v5.969h-1.048V93.46h-2.654v2.511h-1.115v-5.969z"/></g></g></svg>