<?xml version="1.0" encoding="UTF-8"?>
<svg width="299px" height="197px" viewBox="0 0 299 197" version="1.1" xmlns="http://www.w3.org/2000/svg" xmlns:xlink="http://www.w3.org/1999/xlink">
    <!-- Generator: Sketch 52.6 (67491) - http://www.bohemiancoding.com/sketch -->
    <title>odd</title>
    <desc>Created with Sketch.</desc>
    <g id="Page-1" stroke="none" stroke-width="1" fill="none" fill-rule="evenodd">
        <g id="odd">
            <g>
                <polygon id="Path" fill="#F1F1F2" points="0 0 299 0 299 197 0 197"></polygon>
                <path d="M1.98671096,1.9798995 L1.98671096,195.020101 L297.013289,195.020101 L297.013289,1.9798995 L1.98671096,1.9798995 Z M299,0 L299,197 L0,197 L0,0 L299,0 Z" id="Path" fill="#C2C2C2" fill-rule="nonzero"></path>
                <g id="Group-8" transform="translate(2.000000, 32.000000)">
                    <path d="M2.57962025,22.9928773 L2.57962025,21.7817381 L292.988101,21.7817381 L292.988101,22.9928773 L2.57962025,22.9928773 Z M2.57962025,63.1884542 L2.57962025,61.977315 L292.988101,61.977315 L292.988101,63.1884542 L2.57962025,63.1884542 Z M2.57962025,103.346147 L2.57962025,102.135007 L292.988101,102.135007 L292.988101,103.346147 L2.57962025,103.346147 Z M2.57962025,123.424993 L2.57962025,122.213853 L292.988101,122.213853 L292.988101,123.424993 L2.57962025,123.424993 Z M2.57962025,143.503839 L2.57962025,142.292699 L292.988101,142.292699 L292.988101,143.503839 L2.57962025,143.503839 Z M37.0592405,2.30846154 L38.2703797,2.30846154 L38.2703797,160.590385 L37.0592405,160.590385 L37.0592405,2.30846154 Z M73.8097469,2.30846154 L75.0208861,2.30846154 L75.0208861,160.590385 L73.8097469,160.590385 L73.8097469,2.30846154 Z M110.560253,2.30846154 L111.771393,2.30846154 L111.771393,160.590385 L110.560253,160.590385 L110.560253,2.30846154 Z M147.272911,2.30846154 L148.484051,2.30846154 L148.484051,160.590385 L147.272911,160.590385 L147.272911,2.30846154 Z M184.023417,2.30846154 L185.234557,2.30846154 L185.234557,160.590385 L184.023417,160.590385 L184.023417,2.30846154 Z M220.773924,2.30846154 L221.985064,2.30846154 L221.985064,160.590385 L220.773924,160.590385 L220.773924,2.30846154 Z M257.52443,2.30846154 L258.73557,2.30846154 L258.73557,160.590385 L257.52443,160.590385 L257.52443,2.30846154 Z M2.57962025,83.2673004 L2.57962025,82.0561612 L292.988101,82.0561612 L292.988101,83.2673004 L2.57962025,83.2673004 Z" id="Shape" fill="#DEDEDD" fill-rule="nonzero"></path>
                    <polygon id="Path" fill="#293052" fill-rule="nonzero" points="2.57962025 43.0717234 2.57962025 41.8605842 4.39632911 41.8605842 4.39632911 43.0717234"></polygon>
                    <path d="M8.02974684,43.0717234 L8.02974684,41.8605842 L11.6631644,41.8605842 L11.6631644,43.0717234 L8.02974684,43.0717234 Z M15.2965821,43.0717234 L15.2965821,41.8605842 L18.9299997,41.8605842 L18.9299997,43.0717234 L15.2965821,43.0717234 Z M22.5634173,43.0717234 L22.5634173,41.8605842 L26.1968349,41.8605842 L26.1968349,43.0717234 L22.5634173,43.0717234 Z M29.8302525,43.0717234 L29.8302525,41.8605842 L33.4636701,41.8605842 L33.4636701,43.0717234 L29.8302525,43.0717234 Z M37.0970877,43.0717234 L37.0970877,41.8605842 L40.7305053,41.8605842 L40.7305053,43.0717234 L37.0970877,43.0717234 Z M44.3639229,43.0717234 L44.3639229,41.8605842 L47.9973405,41.8605842 L47.9973405,43.0717234 L44.3639229,43.0717234 Z M51.6307581,43.0717234 L51.6307581,41.8605842 L55.2641757,41.8605842 L55.2641757,43.0717234 L51.6307581,43.0717234 Z M58.8975933,43.0717234 L58.8975933,41.8605842 L62.5310109,41.8605842 L62.5310109,43.0717234 L58.8975933,43.0717234 Z M66.1644285,43.0717234 L66.1644285,41.8605842 L69.7978461,41.8605842 L69.7978461,43.0717234 L66.1644285,43.0717234 Z M73.4312638,43.0717234 L73.4312638,41.8605842 L77.0646814,41.8605842 L77.0646814,43.0717234 L73.4312638,43.0717234 Z M80.698099,43.0717234 L80.698099,41.8605842 L84.3315166,41.8605842 L84.3315166,43.0717234 L80.698099,43.0717234 Z M87.9649342,43.0717234 L87.9649342,41.8605842 L91.5983518,41.8605842 L91.5983518,43.0717234 L87.9649342,43.0717234 Z M95.2317694,43.0717234 L95.2317694,41.8605842 L98.865187,41.8605842 L98.865187,43.0717234 L95.2317694,43.0717234 Z M102.498605,43.0717234 L102.498605,41.8605842 L106.132022,41.8605842 L106.132022,43.0717234 L102.498605,43.0717234 Z M109.76544,43.0717234 L109.76544,41.8605842 L113.398857,41.8605842 L113.398857,43.0717234 L109.76544,43.0717234 Z M117.032275,43.0717234 L117.032275,41.8605842 L120.665693,41.8605842 L120.665693,43.0717234 L117.032275,43.0717234 Z M124.29911,43.0717234 L124.29911,41.8605842 L127.932528,41.8605842 L127.932528,43.0717234 L124.29911,43.0717234 Z M131.565945,43.0717234 L131.565945,41.8605842 L135.199363,41.8605842 L135.199363,43.0717234 L131.565945,43.0717234 Z M138.832781,43.0717234 L138.832781,41.8605842 L142.466198,41.8605842 L142.466198,43.0717234 L138.832781,43.0717234 Z M146.099616,43.0717234 L146.099616,41.8605842 L149.733033,41.8605842 L149.733033,43.0717234 L146.099616,43.0717234 Z M153.366451,43.0717234 L153.366451,41.8605842 L156.999869,41.8605842 L156.999869,43.0717234 L153.366451,43.0717234 Z M160.633286,43.0717234 L160.633286,41.8605842 L164.266704,41.8605842 L164.266704,43.0717234 L160.633286,43.0717234 Z M167.900122,43.0717234 L167.900122,41.8605842 L171.533539,41.8605842 L171.533539,43.0717234 L167.900122,43.0717234 Z M175.166957,43.0717234 L175.166957,41.8605842 L178.800374,41.8605842 L178.800374,43.0717234 L175.166957,43.0717234 Z M182.433792,43.0717234 L182.433792,41.8605842 L186.06721,41.8605842 L186.06721,43.0717234 L182.433792,43.0717234 Z M189.700627,43.0717234 L189.700627,41.8605842 L193.334045,41.8605842 L193.334045,43.0717234 L189.700627,43.0717234 Z M196.967462,43.0717234 L196.967462,41.8605842 L200.60088,41.8605842 L200.60088,43.0717234 L196.967462,43.0717234 Z M204.234298,43.0717234 L204.234298,41.8605842 L207.867715,41.8605842 L207.867715,43.0717234 L204.234298,43.0717234 Z M211.501133,43.0717234 L211.501133,41.8605842 L215.13455,41.8605842 L215.13455,43.0717234 L211.501133,43.0717234 Z M218.767968,43.0717234 L218.767968,41.8605842 L222.401386,41.8605842 L222.401386,43.0717234 L218.767968,43.0717234 Z M226.034803,43.0717234 L226.034803,41.8605842 L229.668221,41.8605842 L229.668221,43.0717234 L226.034803,43.0717234 Z M233.301638,43.0717234 L233.301638,41.8605842 L236.935056,41.8605842 L236.935056,43.0717234 L233.301638,43.0717234 Z M240.568474,43.0717234 L240.568474,41.8605842 L244.201891,41.8605842 L244.201891,43.0717234 L240.568474,43.0717234 Z M247.835309,43.0717234 L247.835309,41.8605842 L251.468726,41.8605842 L251.468726,43.0717234 L247.835309,43.0717234 Z M255.102144,43.0717234 L255.102144,41.8605842 L258.735562,41.8605842 L258.735562,43.0717234 L255.102144,43.0717234 Z M262.368979,43.0717234 L262.368979,41.8605842 L266.002397,41.8605842 L266.002397,43.0717234 L262.368979,43.0717234 Z M269.635814,43.0717234 L269.635814,41.8605842 L273.269232,41.8605842 L273.269232,43.0717234 L269.635814,43.0717234 Z M276.90265,43.0717234 L276.90265,41.8605842 L280.536067,41.8605842 L280.536067,43.0717234 L276.90265,43.0717234 Z M284.169485,43.0717234 L284.169485,41.8605842 L287.802903,41.8605842 L287.802903,43.0717234 L284.169485,43.0717234 Z" id="Path" fill="#293052" fill-rule="nonzero"></path>
                    <polygon id="Path" fill="#293052" fill-rule="nonzero" points="291.209241 43.0717234 291.209241 41.8605842 292.988101 41.8605842 292.988101 43.0717234"></polygon>
                    <polygon id="Path" fill="#C2C2C2" fill-rule="nonzero" points="0.497974684 2.30729309 0.497974684 -0.11498539 295.107595 -0.11498539 295.107595 2.30729309"></polygon>
                    <path d="M74.1862917,49.9209243 L38.913118,83.9554687 C38.1986062,84.6448901 37.0604936,84.6245504 36.3710722,83.9100387 C35.6816508,83.1955269 35.7019905,82.0574143 36.4165022,81.3679929 L73.1670086,45.9079929 C73.9493243,45.1531485 75.2173979,45.2599523 75.8624341,46.1350158 L111.640793,94.6723434 L146.874604,73.4315079 C147.503231,73.0525374 148.299115,73.0937946 148.885188,73.535733 L184.57703,100.449773 L256.983631,40.5130134 C257.748474,39.8798913 258.881749,39.9866723 259.514871,40.7515155 C260.147993,41.5163587 260.041212,42.6496336 259.276369,43.2827558 L185.775356,104.125448 C185.133819,104.6565 184.211537,104.677417 183.546584,104.175998 L147.690456,77.1380755 L112.094004,98.5975305 C111.298898,99.0768634 110.26958,98.8719223 109.718705,98.1245996 L74.1862917,49.9209243 Z" id="Path" fill="#293052" fill-rule="nonzero"></path>
                    <path d="M186.180759,113.158846 L151.133418,113.158846 L145.607595,105.089423 L140.308861,113.158846 L105.261519,113.158846 C102.648653,113.158846 100.530506,115.279036 100.530506,117.894423 L100.530506,142.405769 C100.530506,145.021156 102.648653,147.141346 105.261519,147.141346 L186.180759,147.141346 C187.455058,147.171968 188.687787,146.686593 189.599735,145.79516 C190.511683,144.903726 191.025684,143.681664 191.025316,142.405769 L191.025316,117.932308 C191.035937,116.649854 190.526447,115.417929 189.613353,114.518235 C188.700259,113.61854 187.461651,113.128022 186.180759,113.158846 Z" id="Path" fill="#E88024"></path>
                    <g id="Group" opacity="0.6" transform="translate(249.797468, 33.403846)" fill="#FFFFFF">
                        <ellipse id="Oval" cx="8.3325316" cy="9.0623077" rx="8.13734177" ry="8.3725"></ellipse>
                    </g>
                    <path d="M258.13,52.049793 C252.959133,52.049793 248.781519,47.7514515 248.781519,42.4661538 C248.781519,37.1808561 252.959133,32.8825146 258.13,32.8825146 C263.300867,32.8825146 267.478481,37.1808561 267.478481,42.4661538 C267.478481,47.7514515 263.300867,52.049793 258.13,52.049793 Z M258.13,49.6275146 C261.947393,49.6275146 265.056203,46.4288642 265.056203,42.4661538 C265.056203,38.5034434 261.947393,35.304793 258.13,35.304793 C254.312607,35.304793 251.203797,38.5034434 251.203797,42.4661538 C251.203797,46.4288642 254.312607,49.6275146 258.13,49.6275146 Z" id="Oval" fill="#E88024" fill-rule="nonzero"></path>
                    <g id="Group" opacity="0.6" transform="translate(29.278481, 74.076923)" fill="#FFFFFF">
                        <ellipse id="Oval" cx="8.38632911" cy="8.58480769" rx="8.13734177" ry="8.3725"></ellipse>
                    </g>
                    <path d="M37.6648101,92.24537 C32.4939432,92.24537 28.3163291,87.9470285 28.3163291,82.6617308 C28.3163291,77.3764331 32.4939432,73.0780916 37.6648101,73.0780916 C42.835677,73.0780916 47.0132911,77.3764331 47.0132911,82.6617308 C47.0132911,87.9470285 42.835677,92.24537 37.6648101,92.24537 Z M37.6648101,89.8230916 C41.4822027,89.8230916 44.5910126,86.6244412 44.5910126,82.6617308 C44.5910126,78.6990204 41.4822027,75.50037 37.6648101,75.50037 C33.8474175,75.50037 30.7386076,78.6990204 30.7386076,82.6617308 C30.7386076,86.6244412 33.8474175,89.8230916 37.6648101,89.8230916 Z" id="Oval" fill="#E88024" fill-rule="nonzero"></path>
                    <polygon id="Path" fill="#E88024" points="245.56443 12.5751923 270.657722 12.5751923 270.657722 29.0928846 245.56443 29.0928846"></polygon>
                    <polygon id="Path" fill="#E88024" transform="translate(258.127323, 29.120783) rotate(-45.000000) translate(-258.127323, -29.120783) " points="256.443083 27.4365426 259.813189 27.4349177 259.811564 30.8050236 256.441458 30.8066485"></polygon>
                    <path d="M255.367089,21.4780769 L255.972658,15.8332692 L261.12,15.8332692 L261.12,17.0834615 L257.33519,17.0834615 L256.72962,20.0384615 C256.95032,19.8690188 257.19204,19.7289404 257.448734,19.6217308 C257.749325,19.5701354 258.056498,19.5701354 258.357089,19.6217308 C259.201243,19.5666407 260.024091,19.9016814 260.590127,20.5309615 C261.152859,21.2530777 261.435214,22.1547919 261.384937,23.0692308 C261.415306,23.9755835 261.119861,24.8627724 260.552278,25.5696154 C259.928305,26.2339888 259.038654,26.5818442 258.13,26.5167308 C257.348306,26.5408491 256.583556,26.2856865 255.972658,25.7969231 C255.376681,25.2766883 255.066867,24.5014063 255.14,23.7132692 L256.388987,23.7132692 C256.364447,24.1928278 256.543094,24.6605084 256.881013,25.0013462 C257.220907,25.3122361 257.669994,25.4756978 258.13,25.4559615 C258.655372,25.4862946 259.162972,25.2604769 259.492532,24.8498077 C259.844479,24.3536105 260.017931,23.7526194 259.984557,23.145 C260.012718,22.5614916 259.838936,21.9861199 259.492532,21.5159615 C259.170972,21.0910809 258.66209,20.8505438 258.13,20.8719231 C257.721864,20.8492524 257.315511,20.9410981 256.956709,21.1371154 C256.699531,21.3224002 256.512734,21.5895117 256.426835,21.8948077 L255.367089,21.4780769 Z" id="Path" fill="#FFFFFF"></path>
                    <polygon id="Path" fill="#D5D3DA" points="135.350759 44.4740385 160.444051 44.4740385 160.444051 60.9917308 135.350759 60.9917308"></polygon>
                    <polygon id="Path" fill="#D5D3DA" transform="translate(147.886510, 60.999498) rotate(-45.000000) translate(-147.886510, -60.999498) " points="146.202269 59.3152579 149.572375 59.313633 149.57075 62.6837389 146.200644 62.6853638"></polygon>
                    <path d="M151.322658,57.9230769 L144.661392,57.9230769 L144.661392,57.0517308 L148.029873,53.2632692 C148.539522,52.7970349 148.996442,52.2761522 149.392405,51.71 C149.518665,51.264168 149.518665,50.7919858 149.392405,50.3461538 C149.402746,49.8757634 149.241254,49.4177604 148.938228,49.0580769 C148.648817,48.7108858 148.21651,48.5154624 147.764937,48.5276923 C147.196394,48.4799342 146.633789,48.6722286 146.213165,49.0580769 C145.862162,49.4819531 145.68616,50.02402 145.721139,50.5734615 L144.51,50.5734615 C144.466505,49.7379156 144.783528,48.9238979 145.380506,48.3382692 C146.069699,47.7069567 146.983426,47.3793359 147.916329,47.4290385 C148.725532,47.3855084 149.517731,47.6726156 150.111519,48.2246154 C150.660918,48.7611607 150.96257,49.5022933 150.944177,50.2703846 C150.93213,50.8600837 150.762213,51.435743 150.452152,51.9373077 C150.051494,52.5917238 149.582028,53.2013478 149.051772,53.7557692 L146.364557,56.6728846 L151.322658,56.6728846 L151.322658,57.9230769 Z" id="Path" fill="#293052"></path>
                    <polygon id="Path" fill="#D5D3DA" points="25.0992405 52.4298077 50.1925316 52.4298077 50.1925316 68.9475 25.0992405 68.9475"></polygon>
                    <polygon id="Path" fill="#D5D3DA" transform="translate(37.661484, 68.966252) rotate(-45.000000) translate(-37.661484, -68.966252) " points="35.9772438 67.2820111 39.3473497 67.2803862 39.3457248 70.6504921 35.9756189 70.652117"></polygon>
                    <polygon id="Path" fill="#293052" points="38.4217722 65.9546154 37.0213924 65.9546154 37.0213924 57.0517308 34.9018987 57.0517308 34.9018987 56.0667308 38.3839241 55.6878846 38.3839241 65.9546154"></polygon>
                </g>
            </g>
            <path d="M22.32,21.125 L20.327,21.125 L20.327,16.998 L16.281,16.998 L16.281,21.126 L14.29,21.126 L14.29,11.192 L16.282,11.192 L16.282,15.463 L20.328,15.463 L20.328,11.192 L22.321,11.192 L22.321,21.126 L22.32,21.125 Z M27.198,21.268 C26.098,21.268 25.238,20.931 24.619,20.255 C24.001,19.58 23.691,18.71 23.691,17.645 L23.691,17.372 C23.691,16.267 23.991,15.362 24.591,14.657 C25.192,13.952 26.018,13.602 27.069,13.607 C28.06,13.607 28.821,13.91 29.351,14.517 C29.881,15.124 30.146,15.942 30.146,16.97 L30.146,18 L25.745,18 L25.725,18.041 C25.756,18.546 25.91,18.955 26.185,19.269 C26.46,19.583 26.869,19.74 27.41,19.74 C27.856,19.74 28.234,19.695 28.546,19.604 C28.857,19.513 29.179,19.374 29.511,19.187 L30.051,20.416 C29.755,20.656 29.354,20.859 28.849,21.023 C28.3152822,21.1908237 27.7584544,21.2735042 27.199,21.268 L27.198,21.268 Z M27.068,15.141 C26.668,15.141 26.36,15.279 26.144,15.554 C25.928,15.829 25.797,16.194 25.752,16.649 L25.765,16.683 L28.195,16.683 L28.195,16.533 C28.195,16.101 28.105,15.761 27.928,15.513 C27.751,15.265 27.464,15.141 27.068,15.141 Z M37.644,21.125 L35.652,21.125 L35.652,18.785 C35.482085,18.8214804 35.310097,18.8475291 35.137,18.863 C34.962,18.879 34.797,18.887 34.642,18.887 C33.555,18.887 32.717,18.655 32.128,18.191 C31.538,17.727 31.244,17.018 31.244,16.062 L31.244,13.742 L33.237,13.742 L33.237,16.062 C33.237,16.549 33.344,16.886 33.557,17.072 C33.771,17.259 34.133,17.352 34.642,17.352 C34.8097004,17.3521573 34.9772839,17.3431439 35.144,17.325 C35.31,17.307 35.479,17.279 35.652,17.243 L35.652,13.743 L37.644,13.743 L37.644,21.125 Z M42.332,21.268 C41.232,21.268 40.372,20.931 39.752,20.255 C39.134,19.58 38.825,18.71 38.825,17.645 L38.825,17.372 C38.825,16.267 39.125,15.362 39.725,14.657 C40.325,13.952 41.152,13.602 42.202,13.607 C43.194,13.607 43.955,13.91 44.485,14.517 C45.015,15.124 45.279,15.942 45.279,16.97 L45.279,18 L40.879,18 L40.859,18.041 C40.89,18.546 41.043,18.955 41.319,19.269 C41.594,19.583 42.002,19.74 42.543,19.74 C42.989,19.74 43.368,19.695 43.679,19.604 C43.991,19.513 44.313,19.374 44.645,19.187 L45.184,20.416 C44.888,20.656 44.488,20.859 43.984,21.023 C43.4496433,21.1910317 42.8921241,21.2737147 42.332,21.268 Z M42.202,15.141 C41.802,15.141 41.494,15.279 41.278,15.554 C41.062,15.829 40.931,16.194 40.885,16.649 L40.899,16.683 L43.329,16.683 L43.329,16.533 C43.329,16.101 43.239,15.761 43.062,15.513 C42.885,15.265 42.598,15.141 42.202,15.141 Z M44.659,12.391 L42.844,12.391 L42.844,11 L44.659,11 L44.659,12.392 L44.659,12.391 Z M41.247,12.391 L39.432,12.391 L39.432,11 L41.247,11 L41.247,12.392 L41.247,12.391 Z M52.614,15.264 L50.254,15.264 L50.254,21.125 L48.254,21.125 L48.254,15.265 L45.928,15.265 L45.928,13.743 L52.614,13.743 L52.614,15.264 Z M60.044,21.125 L58.052,21.125 L58.052,18.259 L55.623,18.259 L55.623,21.125 L53.631,21.125 L53.631,13.743 L55.623,13.743 L55.623,16.731 L58.053,16.731 L58.053,13.743 L60.045,13.743 L60.045,21.125 L60.044,21.125 Z M61.245,17.365 C61.245,16.265 61.553,15.363 62.167,14.66 C62.781,13.958 63.631,13.606 64.718,13.606 C65.81,13.606 66.665,13.956 67.284,14.656 C67.903,15.357 68.212,16.26 68.212,17.366 L68.212,17.509 C68.212,18.619 67.904,19.523 67.287,20.221 C66.671,20.919 65.819,21.268 64.732,21.268 C63.64,21.268 62.786,20.919 62.17,20.221 C61.554,19.523 61.245,18.619 61.245,17.509 L61.245,17.366 L61.245,17.365 Z M63.231,17.509 C63.231,18.182 63.349,18.722 63.586,19.129 C63.822,19.537 64.204,19.74 64.732,19.74 C65.246,19.74 65.622,19.535 65.862,19.126 C66.1,18.716 66.22,18.178 66.22,17.509 L66.22,17.366 C66.22,16.711 66.099,16.176 65.858,15.762 C65.617,15.348 65.237,15.142 64.718,15.142 C64.204,15.142 63.828,15.349 63.589,15.766 C63.35,16.182 63.231,16.716 63.231,17.366 L63.231,17.509 Z M72.64,21.269 C71.54,21.269 70.68,20.931 70.06,20.255 C69.442,19.58 69.133,18.71 69.133,17.645 L69.133,17.372 C69.133,16.267 69.433,15.362 70.033,14.657 C70.634,13.952 71.46,13.602 72.51,13.607 C73.502,13.607 74.263,13.91 74.793,14.517 C75.323,15.124 75.588,15.942 75.588,16.97 L75.588,18 L71.187,18 L71.167,18.041 C71.198,18.546 71.352,18.955 71.627,19.269 C71.902,19.583 72.31,19.74 72.852,19.74 C73.297,19.74 73.676,19.695 73.988,19.604 C74.299,19.513 74.621,19.374 74.953,19.187 L75.493,20.416 C75.196,20.656 74.796,20.859 74.291,21.023 C73.7569628,21.1909277 73.1997892,21.2736094 72.64,21.268 L72.64,21.269 Z M72.51,15.141 C72.11,15.141 71.802,15.279 71.586,15.554 C71.37,15.829 71.239,16.194 71.194,16.649 L71.207,16.683 L73.637,16.683 L73.637,16.533 C73.637,16.101 73.547,15.761 73.37,15.513 C73.193,15.265 72.906,15.141 72.51,15.141 Z" id="Shape" fill="#020202" fill-rule="nonzero"></path>
            <g id="Group" transform="translate(113.000000, 155.418000)" fill="#FFFFFF" fill-rule="nonzero">
                <path d="M72.219,7.437 L70.229,7.437 L70.229,0.853 L72.219,0.853 L72.219,7.437 Z M72.219,10.902 L70.229,10.902 L70.229,9.132 L72.219,9.132 L72.219,10.902 Z" id="Shape"></path>
                <path d="M0.955,0.39 L5.181,0.39 C5.946,0.39 7.926,0.968 8.06,2.761 C8.148,3.956 7.662,4.801 6.601,5.295 C7.957,5.625 8.66,6.472 8.709,7.838 C8.783,9.888 6.834,10.885 5.601,10.885 L0.955,10.885 L0.955,0.39 Z M2.621,9.462 L5.009,9.462 C5.579,9.462 6.944,9.357 6.944,7.77 C6.944,6.183 5.261,6.078 5.009,6.078 L2.621,6.078 L2.621,9.462 Z M2.661,1.733 L2.661,4.743 L4.622,4.743 C5.646,4.743 6.385,4.217 6.322,3.097 C6.258,1.977 5.296,1.758 4.622,1.733 L2.662,1.733 L2.661,1.733 Z M10.437,3.037 L12.16,3.037 L12.16,5.755 L14.221,5.755 C14.718,5.755 17.179,6.139 17.061,8.363 C16.943,10.586 14.991,10.855 14.097,10.855 L10.437,10.855 L10.437,3.037 Z M12.179,7.18 L12.179,9.495 L13.872,9.495 C14.295,9.495 15.336,9.335 15.336,8.337 C15.336,7.34 14.273,7.18 13.872,7.18 L12.179,7.18 Z M45.493,2.885 L47.215,2.885 L47.215,5.603 L49.277,5.603 C49.774,5.603 52.235,5.987 52.117,8.211 C51.999,10.434 50.047,10.703 49.153,10.703 L45.493,10.703 L45.493,2.885 Z M47.235,7.028 L47.235,9.343 L48.928,9.343 C49.35,9.343 50.391,9.183 50.391,8.185 C50.391,7.188 49.328,7.028 48.928,7.028 L47.235,7.028 Z M18.2,3.03 L19.866,3.03 L19.866,10.88 L18.201,10.88 L18.2,3.03 Z M53.316,2.87 L54.981,2.87 L54.981,10.72 L53.316,10.72 L53.316,2.87 Z M22.265,3.033 L23.945,3.033 L23.945,8.288 L27.1,3.033 L28.781,3.033 L28.781,10.845 L27.1,10.845 L27.1,5.619 L24.01,10.845 L22.265,10.845 L22.265,3.033 Z M35.833,3.068 L35.833,4.432 L32.503,4.432 L32.503,10.85 L30.687,10.85 L30.687,3.068 L35.833,3.068 Z M36.903,3.023 L38.399,3.039 L38.541,4.027 C39.324,2.899 40.751,2.606 41.999,3.153 C43.018,3.6 43.672,5.215 43.729,6.211 C43.833,8.017 43.802,9.421 42.514,10.451 C41.226,11.481 39.584,11.118 38.614,10.085 L38.614,13.857 L36.903,13.857 L36.903,3.023 Z M38.673,5.215 C38.694,6.215 38.68,7.451 38.673,8.784 C39.557,10.026 40.721,9.649 41.274,9.308 C41.852,8.951 42.066,7.741 41.997,6.652 C41.948,5.888 41.565,4.658 40.78,4.402 C39.989,4.145 39.305,4.288 38.673,5.215 Z M57.442,3.025 L57.442,10.842 L67.622,10.842 L67.622,3.025 L65.847,3.025 L65.847,9.432 L63.463,9.432 L63.463,3.025 L61.716,3.025 L61.716,9.432 L59.194,9.432 C59.173,5.69 59.173,3.555 59.194,3.025 L57.442,3.025 Z" id="Shape"></path>
            </g>
            <g id="Group" transform="translate(18.000000, 127.418000)" fill="#2A3052" fill-rule="nonzero">
                <path d="M12.676,7.973 C12.646,7.819 12.646,7.696 12.646,7.543 C12.4234685,7.85192244 12.1412356,8.1130729 11.816,8.311 C11.4848187,8.51906251 11.100038,8.62577224 10.709,8.618 C10.064,8.618 9.572,8.465 9.234,8.096 C8.87794996,7.72593608 8.68926609,7.22603226 8.712,6.713 C8.712,6.098 8.957,5.637 9.449,5.299 C9.941,4.961 10.586,4.777 11.416,4.777 L12.646,4.777 L12.646,4.162 C12.646,3.794 12.522,3.486 12.307,3.272 C12.092,3.056 11.754,2.933 11.354,2.933 C10.986,2.933 10.678,3.025 10.464,3.21 C10.248,3.394 10.125,3.64 10.125,3.886 L9.05,3.886 L9.05,3.856 C9.019,3.394 9.234,2.964 9.695,2.596 C10.155,2.226 10.74,2.011 11.447,2.011 C12.153,2.011 12.737,2.196 13.167,2.564 C13.597,2.934 13.813,3.456 13.813,4.132 L13.813,7.174 C13.813,7.389 13.813,7.604 13.843,7.819 C13.874,8.034 13.905,8.249 13.967,8.434 L12.768,8.434 L12.768,8.495 C12.738,8.311 12.707,8.127 12.676,7.973 Z M10.816,7.604 C11.216,7.604 11.615,7.512 11.922,7.297 C12.26,7.082 12.475,6.836 12.567,6.559 L12.567,5.545 L11.307,5.545 C10.847,5.545 10.477,5.668 10.201,5.883 C9.94445907,6.08128598 9.79626139,6.38879617 9.801,6.713 C9.801,6.99 9.894,7.205 10.047,7.389 C10.232,7.512 10.477,7.604 10.816,7.604 Z M25.619,7.943 C25.589,7.789 25.589,7.666 25.589,7.513 C25.3664685,7.82192244 25.0842356,8.0830729 24.759,8.281 C24.4278187,8.48906251 24.043038,8.59577224 23.652,8.588 C23.007,8.588 22.515,8.434 22.177,8.066 C21.82095,7.69593608 21.6322661,7.19603226 21.655,6.683 C21.655,6.068 21.901,5.607 22.392,5.269 C22.884,4.931 23.529,4.747 24.359,4.747 L25.589,4.747 L25.589,4.132 C25.589,3.763 25.465,3.456 25.25,3.241 C25.035,3.026 24.697,2.903 24.298,2.903 C23.928,2.903 23.621,2.995 23.406,3.179 C23.191,3.364 23.068,3.609 23.068,3.855 L21.993,3.855 L21.993,3.825 C21.962,3.364 22.177,2.933 22.638,2.565 C23.099,2.195 23.683,1.981 24.39,1.981 C25.097,1.981 25.68,2.165 26.11,2.534 C26.54,2.903 26.756,3.425 26.756,4.101 L26.756,7.144 C26.756,7.359 26.756,7.574 26.786,7.789 C26.817,8.004 26.848,8.219 26.91,8.404 L25.71,8.404 L25.71,8.465 C25.68,8.281 25.649,8.096 25.618,7.943 L25.619,7.943 Z M23.759,7.573 C24.159,7.573 24.558,7.482 24.865,7.267 C25.203,7.051 25.418,6.806 25.51,6.529 L25.51,5.515 L24.25,5.515 C23.79,5.515 23.42,5.638 23.144,5.853 C22.8874591,6.05128598 22.7392614,6.35879617 22.744,6.683 C22.744,6.959 22.837,7.174 22.991,7.359 C23.175,7.482 23.421,7.574 23.759,7.574 L23.759,7.573 Z M37.17,2.145 C37.863,2.108 38.74,2.348 39.231,2.846 C39.774,3.397 40.162,4.082 40.162,5.214 C40.162,6.215 39.962,6.939 39.488,7.524 C38.953,8.185 38.119,8.488 37.443,8.488 C36.741,8.488 35.98,8.378 35.34,7.787 C34.817,7.303 34.333,6.474 34.381,5.317 C34.434,4.038 34.846,3.309 35.341,2.847 C35.841,2.379 36.427,2.186 37.17,2.145 Z M37.42,2.982 C36.624,2.982 35.663,3.501 35.663,5.109 C35.663,6.717 36.256,7.674 37.322,7.674 C38.387,7.674 39.087,6.592 38.979,5.109 C38.871,3.626 38.214,2.982 37.419,2.982 L37.42,2.982 Z M6.041,0.09 L7.159,0.09 L7.159,8.367 L6.041,8.367 L6.041,4.7 L1.994,4.7 L1.994,8.367 L0.877,8.367 L0.877,0.09 L1.994,0.09 L1.994,3.852 L6.041,3.852 L6.041,0.09 Z M15.298,2.19 L16.383,2.19 L16.383,4.06 C16.381,5.329 17.273,5.738 19.061,5.288 L19.081,2.246 L20.181,2.246 L20.181,8.336 L19.081,8.336 C19.087,7.448 19.087,6.716 19.081,6.141 C17.918,6.457 16.185,6.477 15.573,5.291 C15.323,4.806 15.303,4.346 15.298,3.905 C15.2912333,3.33335336 15.2912333,2.76164664 15.298,2.19 Z M27.63,7.414 C27.638,7.676 27.6,7.896 27.6,8.367 C30.133,8.527 30.165,6.321 30.058,3.107 L32.113,3.105 L32.113,8.412 L33.221,8.412 L33.221,2.232 C31.7887737,2.20723259 30.3562263,2.20723259 28.924,2.232 C28.846,4.632 29.414,7.546 27.629,7.414 L27.63,7.414 Z" id="Shape"></path>
            </g>
            <g id="Group" transform="translate(246.000000, 87.418000)" fill="#2A3052" fill-rule="nonzero">
                <path d="M24.846,5.868 L20.91,5.868 C20.91,6.598 21.06,7.127 21.357,7.452 C21.749,7.881 22.162,8.036 22.727,7.979 C23.717,7.881 23.907,7.616 24.316,7.382 L24.732,8.097 C24.245,8.6 23.467,8.852 22.396,8.852 C20.79,8.852 19.811,7.521 19.746,5.936 C19.683,4.352 20.316,2.514 22.396,2.436 C24.159,2.483 24.976,3.627 24.846,5.868 Z M23.741,4.997 C23.729,3.882 23.281,3.325 22.397,3.325 C21.513,3.325 21.029,3.882 20.947,4.997 L23.741,4.997 Z M9.305,2.44 C9.982,2.403 10.84,2.639 11.32,3.125 C11.85,3.664 12.23,4.334 12.23,5.439 C12.23,6.419 12.034,7.126 11.571,7.698 C11.048,8.344 10.233,8.64 9.571,8.64 C8.886,8.64 8.141,8.532 7.517,7.954 C7.005,7.482 6.532,6.671 6.579,5.54 C6.631,4.29 7.033,3.577 7.517,3.125 C8.005,2.669 8.579,2.48 9.305,2.44 Z M9.548,3.258 C8.771,3.258 7.832,3.765 7.832,5.337 C7.832,6.909 8.412,7.844 9.453,7.844 C10.495,7.844 11.179,6.787 11.073,5.337 C10.967,3.887 10.326,3.258 9.548,3.258 Z M26.043,2.558 L27.106,2.558 L27.106,7.772 L29.783,7.772 L29.783,2.558 L30.886,2.558 L30.886,7.772 L31.618,7.772 L31.618,10.602 L30.554,10.602 L30.554,8.648 L26.043,8.648 L26.043,2.558 Z M0.06,0.471 L1.128,0.471 L1.128,3.981 L1.8,3.981 L4.754,0.471 L5.975,0.471 L2.721,4.318 L6.267,8.62 L4.925,8.62 L1.8,4.92 L1.128,4.92 L1.128,8.62 L0.061,8.62 L0.06,0.471 Z M13.508,2.584 L14.623,2.584 L14.623,5.165 L17.277,5.165 L17.277,2.584 L18.325,2.584 L18.325,8.553 L17.277,8.553 L17.277,6.042 L14.623,6.042 L14.623,8.553 L13.508,8.553 L13.508,2.584 Z" id="Shape"></path>
            </g>
        </g>
    </g>
</svg>