<?xml version="1.0" encoding="UTF-8"?>
<svg width="299px" height="197px" viewBox="0 0 299 197" version="1.1" xmlns="http://www.w3.org/2000/svg" xmlns:xlink="http://www.w3.org/1999/xlink">
    <!-- Generator: Sketch 52.6 (67491) - http://www.bohemiancoding.com/sketch -->
    <title>Run low</title>
    <desc>Created with Sketch.</desc>
    <defs>
        <path d="M24.4050293,17.4477539 C24.322021,18.5952206 23.8984413,19.4985319 23.1342773,20.1577148 C22.3701133,20.8168978 21.3630433,21.1464844 20.1130371,21.1464844 C18.7458427,21.1464844 17.670414,20.6862839 16.8867187,19.7658691 C16.1030234,18.8454544 15.7111816,17.5820393 15.7111816,15.9755859 L15.7111816,15.3237305 C15.7111816,14.2983347 15.8918439,13.3950234 16.2531738,12.6137695 C16.6145037,11.8325156 17.130856,11.2331564 17.8022461,10.8156738 C18.4736361,10.3981913 19.2536576,10.1894531 20.142334,10.1894531 C21.3728089,10.1894531 22.3640099,10.5190397 23.1159668,11.1782227 C23.8679237,11.8374056 24.3024896,12.7626894 24.4196777,13.9541016 L22.2224121,13.9541016 C22.1687009,13.2656216 21.9770524,12.766359 21.6474609,12.4562988 C21.3178694,12.1462387 20.8161655,11.9912109 20.142334,11.9912109 C19.4099084,11.9912109 18.8618182,12.2536595 18.4980468,12.7785645 C18.1342755,13.3034694 17.9475098,14.1176703 17.9377441,15.2211914 L17.9377441,16.0268555 C17.9377441,17.179205 18.1123029,18.0214817 18.4614258,18.5537109 C18.8105486,19.0859402 19.3610802,19.3520508 20.1130371,19.3520508 C20.7917514,19.3520508 21.2983381,19.197023 21.6328125,18.8869629 C21.9672868,18.5769027 22.1589353,18.0971712 22.2077636,17.4477539 L24.4050293,17.4477539 Z M32.60083,21 L30.4768066,21 L30.4768066,14.7890625 L27.8254394,14.7890625 L27.8254394,21 L25.7087402,21 L25.7087402,13.0751953 L32.60083,13.0751953 L32.60083,21 Z M38.8117675,21 C38.7141108,20.8095694 38.6433107,20.5727553 38.5993652,20.2895508 C38.0866673,20.8608427 37.4201701,21.1464844 36.5998535,21.1464844 C35.8234824,21.1464844 35.1801783,20.9218772 34.6699218,20.4726562 C34.1596654,20.0234353 33.904541,19.4570347 33.904541,18.7734375 C33.904541,17.9335896 34.2158172,17.2890647 34.8383789,16.8398438 C35.4609406,16.3906228 36.3605898,16.1635742 37.5373535,16.1586914 L38.5114746,16.1586914 L38.5114746,15.7045898 C38.5114746,15.3383771 38.4174814,15.0454113 38.2294922,14.8256836 C38.0415029,14.6059559 37.744875,14.4960938 37.3395996,14.4960938 C36.9831525,14.4960938 36.7036143,14.5815421 36.5009765,14.7524414 C36.2983388,14.9233407 36.1970215,15.1577134 36.1970215,15.4555664 L34.0803222,15.4555664 C34.0803222,14.9965797 34.2219224,14.5717793 34.5051269,14.1811523 C34.7883315,13.7905254 35.1887181,13.484132 35.7062988,13.2619629 C36.2238795,13.0397938 36.8049284,12.9287109 37.4494629,12.9287109 C38.4260302,12.9287109 39.201169,13.1740698 39.7749023,13.6647949 C40.3486357,14.15552 40.635498,14.8452104 40.635498,15.7338867 L40.635498,19.1689453 C40.6403809,19.9209022 40.7453603,20.4897442 40.9504394,20.8754883 L40.9504394,21 L38.8117675,21 Z M37.0612793,19.527832 C37.3737808,19.527832 37.6618639,19.4582526 37.9255371,19.3190918 C38.1892103,19.1799309 38.3845208,18.9931652 38.5114746,18.7587891 L38.5114746,17.3964844 L37.720459,17.3964844 C36.6608833,17.3964844 36.0969241,17.7626917 36.0285644,18.4951172 L36.0212402,18.6196289 C36.0212402,18.8833021 36.1140127,19.1005851 36.2995605,19.2714844 C36.4851083,19.4423837 36.739012,19.527832 37.0612793,19.527832 Z M42.3713379,19.293457 C42.8498559,18.785642 43.1745597,18.2827173 43.345459,17.784668 C43.5163582,17.2866186 43.6115721,16.5810593 43.6311035,15.6679688 L43.6896972,13.0751953 L49.5197754,13.0751953 L49.5197754,19.293457 L50.6623535,19.293457 L50.6623535,23.3803711 L48.5456543,23.3803711 L48.5456543,21 L43.85083,21 L43.85083,23.3803711 L41.6901855,23.3803711 L41.6901855,19.293457 L42.3713379,19.293457 Z M44.8688965,19.293457 L47.4104004,19.293457 L47.4104004,14.8256836 L45.7624511,14.8256836 L45.7478027,15.777832 C45.7038572,17.2329174 45.4108914,18.4047807 44.8688965,19.293457 Z" id="path-1"></path>
    </defs>
    <g id="Page-1" stroke="none" stroke-width="1" fill="none" fill-rule="evenodd">
        <g id="Run-low">
            <polygon id="Path" fill="#F1F2F2" points="0 0 299 0 299 197 0 197"></polygon>
            <path d="M1.98671096,1.9798995 L1.98671096,195.020101 L297.013289,195.020101 L297.013289,1.9798995 L1.98671096,1.9798995 Z M299,0 L299,197 L0,197 L0,0 L299,0 Z" id="Path" fill="#C2C2C2" fill-rule="nonzero"></path>
            <path d="M5,53.8937051 L5,52.6865475 L295,52.6865475 L295,53.8937051 L5,53.8937051 Z M5,74.2212672 L5,73.0141095 L295,73.0141095 L295,74.2212672 L5,74.2212672 Z M5,94.5113934 L5,93.3042358 L295,93.3042358 L295,94.5113934 L5,94.5113934 Z M5,135.129081 L5,133.921924 L295,133.921924 L295,135.129081 L5,135.129081 Z M5,155.419208 L5,154.21205 L295,154.21205 L295,155.419208 L5,155.419208 Z M5,175.709335 L5,174.502177 L295,174.502177 L295,175.709335 L5,175.709335 Z M39.4203806,33 L40.6286516,33 L40.6286516,193 L39.4203806,193 L39.4203806,33 Z M76.1287678,33 L77.3370388,33 L77.3370388,193 L76.1287678,193 L76.1287678,33 Z M112.799735,33 L114.008006,33 L114.008006,193 L112.799735,193 L112.799735,33 Z M149.508122,33 L150.716393,33 L150.716393,193 L149.508122,193 L149.508122,33 Z M186.17909,33 L187.387361,33 L187.387361,193 L186.17909,193 L186.17909,33 Z M222.850058,33 L224.058329,33 L224.058329,193 L222.850058,193 L222.850058,33 Z M259.558445,33 L260.766716,33 L260.766716,193 L259.558445,193 L259.558445,33 Z" id="Shape" fill="#DFDEDE" fill-rule="nonzero"></path>
            <polygon id="Path" fill="#C2C2C2" fill-rule="nonzero" points="0.804766102 33.9510902 0.804766102 31.504306 298.631318 31.504306 298.631318 33.9510902"></polygon>
            <g id="Спад" fill="#000000">
                <use xlink:href="#path-1"></use>
                <use xlink:href="#path-1"></use>
            </g>
            <path d="M125.443646,89.3568677 L88.0816107,116.146679 C87.9376869,116.249878 87.7689387,116.313003 87.5926197,116.329601 L52.6337332,119.620598 C52.0838795,119.672361 51.5961731,119.268578 51.5444104,118.718725 C51.4926477,118.168871 51.8964302,117.681165 52.4462839,117.629402 L87.1359422,114.36375 L124.440364,87.6152494 C124.547408,87.5384952 124.668561,87.4836446 124.796865,87.4538481 L161.335859,78.9682268 L197.684572,55.2864603 C197.812297,55.2032458 197.957355,55.1503335 198.108661,55.1317674 L235.548618,50.5376741 C236.096791,50.4704101 236.595702,50.8602642 236.662966,51.4084376 C236.73023,51.9566109 236.340376,52.4555214 235.792202,52.5227853 L198.58221,57.0886607 L162.279803,80.7402578 C162.182013,80.8039695 162.073825,80.8500702 161.960137,80.8764725 L125.443646,89.3568677 Z M161.507708,78.9283175 L161.188041,79.0645323 L161.335859,78.9682268 L161.507708,78.9283175 Z M87.4051704,114.338405 L86.9161794,114.521327 L87.1359422,114.36375 L87.4051704,114.338405 Z" id="Shape" fill="#2A3052" fill-rule="nonzero" transform="translate(144.105227, 85.077597) scale(-1, 1) rotate(-180.000000) translate(-144.105227, -85.077597) "></path>
            <path d="M190.2625,150.5625 L155.1625,150.5625 L149.7625,142.35 L144.3625,150.5625 L109.2625,150.5625 C106.6375,150.5625 104.5375,152.7 104.5375,155.3625 L104.5375,180.15 C104.5375,182.8125 106.675,184.95 109.2625,184.95 L190.2625,184.95 C192.8875,184.95 194.9875,182.8125 194.9875,180.15 L194.9875,155.3625 C194.9875,152.7 192.85,150.5625 190.2625,150.5625 Z" id="Shape" fill="#E88024"></path>
            <g id="Group" transform="translate(226.750000, 109.750000)">
                <g id="Oval" opacity="0.6" fill="#FFFFFF">
                    <ellipse cx="8.5125" cy="9.225" rx="8.1375" ry="8.475"></ellipse>
                </g>
                <path d="M8.5125,18.02305 C3.83686418,18.02305 0.05195,14.0811578 0.05195,9.225 C0.05195,4.36884218 3.83686418,0.42695 8.5125,0.42695 C13.1881358,0.42695 16.97305,4.36884218 16.97305,9.225 C16.97305,14.0811578 13.1881358,18.02305 8.5125,18.02305 Z M8.5125,17.37695 C12.8252985,17.37695 16.32695,13.7300687 16.32695,9.225 C16.32695,4.71993131 12.8252985,1.07305 8.5125,1.07305 C4.19970152,1.07305 0.69805,4.71993131 0.69805,9.225 C0.69805,13.7300687 4.19970152,17.37695 8.5125,17.37695 Z" id="Oval" fill="#E88024" fill-rule="nonzero"></path>
            </g>
            <g id="Group" transform="translate(79.500000, 47.000000)">
                <g id="Oval" opacity="0.6" fill="#FFFFFF">
                    <ellipse cx="8.1375" cy="8.475" rx="8.1375" ry="8.475"></ellipse>
                </g>
                <path d="M8.1375,17.27305 C3.46186418,17.27305 -0.32305,13.3311578 -0.32305,8.475 C-0.32305,3.61884218 3.46186418,-0.32305 8.1375,-0.32305 C12.8131358,-0.32305 16.59805,3.61884218 16.59805,8.475 C16.59805,13.3311578 12.8131358,17.27305 8.1375,17.27305 Z M8.1375,16.62695 C12.4502985,16.62695 15.95195,12.9800687 15.95195,8.475 C15.95195,3.96993131 12.4502985,0.32305 8.1375,0.32305 C3.82470152,0.32305 0.32305,3.96993131 0.32305,8.475 C0.32305,12.9800687 3.82470152,16.62695 8.1375,16.62695 Z" id="Oval" fill="#E88024" fill-rule="nonzero"></path>
            </g>
            <polygon id="Shape" fill="#2A3052" fill-rule="nonzero" points="5 135 5 134 294.283847 134 294.283847 135"></polygon>
            <g id="Group" transform="translate(24.000000, 61.000000)" fill="#2A3052" fill-rule="nonzero">
                <path d="M13.234,9.2 C13.202,9.038 13.202,8.908 13.202,8.746 C12.974,9.071 12.682,9.33 12.326,9.557 C11.9766521,9.77682945 11.5706842,9.88979142 11.158,9.882 C10.476,9.882 9.958,9.719 9.6,9.33 C9.22410962,8.93934711 9.0249371,8.41159416 9.049,7.87 C9.049,7.221 9.309,6.735 9.827,6.378 C10.347,6.021 11.027,5.826 11.904,5.826 L13.202,5.826 L13.202,5.177 C13.202,4.788 13.072,4.464 12.845,4.237 C12.618,4.009 12.261,3.88 11.839,3.88 C11.449,3.88 11.125,3.977 10.899,4.172 C10.671,4.366 10.541,4.626 10.541,4.885 L9.406,4.885 L9.406,4.853 C9.373,4.366 9.6,3.913 10.087,3.523 C10.574,3.133 11.19,2.906 11.937,2.906 C12.682,2.906 13.299,3.101 13.753,3.49 C14.207,3.88 14.434,4.431 14.434,5.145 L14.434,8.357 C14.434,8.584 14.434,8.811 14.467,9.038 C14.499,9.265 14.532,9.492 14.597,9.687 L13.33,9.687 L13.33,9.752 C13.298,9.557 13.265,9.362 13.233,9.2 L13.234,9.2 Z M11.27,8.811 C11.692,8.811 12.114,8.714 12.438,8.487 C12.795,8.259 13.022,8 13.12,7.707 L13.12,6.637 L11.79,6.637 C11.303,6.637 10.913,6.767 10.621,6.994 C10.3507951,7.20360971 10.1948647,7.52806357 10.2,7.87 C10.2,8.162 10.297,8.39 10.46,8.584 C10.654,8.714 10.913,8.811 11.27,8.811 Z M26.898,9.168 C26.866,9.006 26.866,8.876 26.866,8.714 C26.639,9.038 26.346,9.298 25.99,9.525 C25.6406521,9.74482945 25.2346842,9.85779142 24.822,9.85 C24.141,9.85 23.622,9.687 23.265,9.298 C22.8887449,8.90751284 22.6892033,8.37973963 22.713,7.838 C22.713,7.189 22.973,6.703 23.492,6.346 C24.011,5.989 24.692,5.794 25.568,5.794 L26.866,5.794 L26.866,5.145 C26.866,4.755 26.736,4.431 26.509,4.205 C26.282,3.977 25.925,3.848 25.503,3.848 C25.114,3.848 24.79,3.945 24.563,4.14 C24.335,4.334 24.206,4.594 24.206,4.853 L23.07,4.853 L23.07,4.821 C23.038,4.334 23.265,3.88 23.751,3.491 C24.238,3.101 24.854,2.874 25.601,2.874 C26.347,2.874 26.963,3.069 27.417,3.458 C27.872,3.848 28.099,4.399 28.099,5.113 L28.099,8.325 C28.099,8.552 28.099,8.779 28.131,9.006 C28.164,9.233 28.196,9.46 28.261,9.655 L26.996,9.655 L26.996,9.72 C26.963,9.525 26.931,9.33 26.898,9.168 Z M24.935,8.778 C25.356,8.778 25.778,8.682 26.103,8.454 C26.459,8.227 26.687,7.968 26.783,7.676 L26.783,6.606 L25.453,6.606 C24.967,6.606 24.578,6.735 24.286,6.962 C24.0154195,7.1714033 23.8591031,7.49588953 23.864,7.838 C23.864,8.13 23.961,8.358 24.124,8.552 C24.318,8.682 24.578,8.779 24.934,8.779 L24.935,8.778 Z M39.093,3.048 C39.825,3.008 40.751,3.262 41.269,3.788 C41.842,4.369 42.252,5.093 42.252,6.288 C42.252,7.345 42.041,8.108 41.541,8.727 C40.975,9.425 40.095,9.744 39.381,9.744 C38.641,9.744 37.837,9.628 37.161,9.004 C36.609,8.494 36.098,7.618 36.149,6.396 C36.205,5.046 36.639,4.276 37.162,3.788 C37.689,3.295 38.309,3.091 39.092,3.048 L39.093,3.048 Z M39.356,3.931 C38.516,3.931 37.502,4.479 37.502,6.177 C37.502,7.875 38.128,8.885 39.253,8.885 C40.378,8.885 41.117,7.742 41.003,6.177 C40.889,4.611 40.196,3.931 39.356,3.931 Z M6.23,0.878 L7.41,0.878 L7.41,9.616 L6.23,9.616 L6.23,5.746 L1.957,5.746 L1.957,9.616 L0.777,9.616 L0.777,0.878 L1.957,0.878 L1.957,4.849 L6.23,4.849 L6.23,0.878 Z M16.003,3.095 C16.297,3.097 16.679,3.097 17.147,3.095 L17.147,5.069 C17.145,6.409 18.088,6.841 19.975,6.366 L19.995,3.154 L21.158,3.154 L21.158,9.583 L19.996,9.583 C20.003,8.646 20.003,7.873 19.996,7.267 C18.768,7.599 16.939,7.621 16.293,6.368 C16.029,5.857 16.008,5.372 16.003,4.906 C15.9958607,4.30268779 15.9958607,3.69931221 16.003,3.096 L16.003,3.095 Z M29.02,8.61 C29.03,8.887 28.99,9.119 28.99,9.616 C31.664,9.786 31.698,7.456 31.585,4.064 L33.755,4.061 L33.755,9.664 L34.924,9.664 L34.924,3.14 C33.412113,3.11385754 31.899887,3.11385754 30.388,3.14 C30.306,5.672 30.904,8.75 29.021,8.61 L29.02,8.61 Z" id="Shape"></path>
            </g>
            <g id="Group" transform="translate(234.000000, 92.000000)" fill="#2A3052" fill-rule="nonzero">
                <path d="M27.958,6.249 L23.539,6.249 C23.539,7.069 23.707,7.662 24.041,8.028 C24.481,8.508 24.945,8.682 25.58,8.619 C26.69,8.509 26.904,8.211 27.363,7.949 L27.831,8.751 C27.284,9.316 26.41,9.598 25.207,9.598 C23.404,9.598 22.305,8.104 22.233,6.325 C22.162,4.547 22.872,2.483 25.207,2.396 C27.187,2.449 28.104,3.733 27.957,6.249 L27.958,6.249 Z M26.718,5.271 C26.705,4.019 26.202,3.394 25.208,3.394 C24.216,3.394 23.673,4.019 23.58,5.271 L26.717,5.271 L26.718,5.271 Z M10.51,2.4 C11.27,2.359 12.233,2.623 12.772,3.17 C13.368,3.774 13.793,4.526 13.793,5.767 C13.793,6.867 13.573,7.661 13.053,8.303 C12.466,9.029 11.552,9.361 10.809,9.361 C10.039,9.361 9.204,9.24 8.502,8.591 C7.928,8.061 7.396,7.151 7.449,5.881 C7.508,4.477 7.959,3.677 8.502,3.17 C9.051,2.657 9.695,2.445 10.509,2.4 L10.51,2.4 Z M10.783,3.318 C9.911,3.318 8.855,3.888 8.855,5.652 C8.855,7.418 9.506,8.468 10.676,8.468 C11.846,8.468 12.613,7.28 12.495,5.652 C12.376,4.025 11.655,3.318 10.783,3.318 Z M29.302,2.533 L30.496,2.533 L30.496,8.387 L33.501,8.387 L33.501,2.533 L34.74,2.533 L34.74,8.387 L35.561,8.387 L35.561,11.564 L34.366,11.564 L34.366,9.37 L29.302,9.37 L29.302,2.533 Z M0.131,0.19 L1.329,0.19 L1.329,4.13 L2.084,4.13 L5.4,0.19 L6.771,0.19 L3.118,4.508 L7.098,9.338 L5.592,9.338 L2.084,5.185 L1.329,5.185 L1.329,9.338 L0.131,9.338 L0.131,0.19 Z M15.228,2.562 L16.48,2.562 L16.48,5.46 L19.46,5.46 L19.46,2.562 L20.637,2.562 L20.637,9.263 L19.46,9.263 L19.46,6.444 L16.48,6.444 L16.48,9.264 L15.228,9.264 L15.228,2.562 Z" id="Shape"></path>
            </g>
            <g id="Group" transform="translate(115.000000, 161.000000)" fill="#FFFFFF" fill-rule="nonzero">
                <path d="M70.123,7.755 L68.182,7.755 L68.182,1.333 L70.122,1.333 L70.123,7.755 Z M70.123,11.134 L68.182,11.134 L68.182,9.409 L70.122,9.409 L70.123,11.134 Z" id="Shape"></path>
                <path d="M0.619,0.882 L4.74,0.882 C5.486,0.882 7.418,1.446 7.548,3.194 C7.634,4.36 7.16,5.184 6.125,5.666 C7.448,5.986 8.133,6.814 8.181,8.146 C8.253,10.146 6.352,11.118 5.151,11.118 L0.619,11.118 L0.619,0.882 Z M2.243,9.73 L4.572,9.73 C5.128,9.73 6.46,9.627 6.46,8.08 C6.46,6.532 4.818,6.43 4.572,6.43 L2.242,6.43 L2.242,9.73 L2.243,9.73 Z M2.283,2.192 L2.283,5.128 L4.195,5.128 C5.194,5.128 5.915,4.614 5.853,3.522 C5.791,2.43 4.852,2.216 4.195,2.192 L2.283,2.192 Z M9.866,3.464 L11.546,3.464 L11.546,6.114 L13.557,6.114 C14.042,6.114 16.442,6.489 16.327,8.658 C16.212,10.827 14.308,11.088 13.437,11.088 L9.867,11.088 L9.867,3.464 L9.866,3.464 Z M11.566,7.504 L11.566,9.762 L13.216,9.762 C13.629,9.762 14.644,9.606 14.644,8.633 C14.644,7.66 13.607,7.504 13.217,7.504 L11.565,7.504 L11.566,7.504 Z M44.056,3.316 L45.736,3.316 L45.736,5.966 L47.747,5.966 C48.232,5.966 50.632,6.341 50.517,8.51 C50.402,10.678 48.499,10.94 47.627,10.94 L44.057,10.94 L44.057,3.316 L44.056,3.316 Z M45.756,7.356 L45.756,9.614 L47.406,9.614 C47.819,9.614 48.834,9.458 48.834,8.485 C48.834,7.512 47.797,7.356 47.407,7.356 L45.755,7.356 L45.756,7.356 Z M17.438,3.457 L19.063,3.457 L19.063,11.113 L17.438,11.113 L17.438,3.457 Z M51.687,3.3 L53.311,3.3 L53.311,10.956 L51.687,10.956 L51.687,3.3 Z M21.402,3.46 L23.041,3.46 L23.041,8.585 L26.118,3.46 L27.758,3.46 L27.758,11.079 L26.118,11.079 L26.118,5.982 L23.104,11.079 L21.402,11.079 L21.402,3.46 Z M34.635,3.494 L34.635,4.824 L31.388,4.824 L31.388,11.084 L29.617,11.084 L29.617,3.494 L34.635,3.494 Z M35.679,3.45 L37.137,3.465 L37.277,4.429 C38.04,3.329 39.432,3.043 40.649,3.576 C41.643,4.012 42.28,5.588 42.336,6.56 C42.438,8.32 42.407,9.69 41.151,10.695 C39.895,11.699 38.294,11.345 37.347,10.338 L37.347,14.017 L35.679,14.017 L35.679,3.45 Z M37.405,5.588 C37.426,6.564 37.412,7.768 37.405,9.068 C38.267,10.28 39.402,9.913 39.942,9.579 C40.506,9.232 40.714,8.051 40.647,6.989 C40.599,6.244 40.225,5.044 39.46,4.795 C38.689,4.545 38.022,4.684 37.405,5.588 Z M55.71,3.452 L55.71,11.075 L65.638,11.075 L65.638,3.452 L63.908,3.452 L63.908,9.7 L61.583,9.7 L61.583,3.452 L59.879,3.452 L59.879,9.7 L57.419,9.7 C57.399,6.051 57.399,3.968 57.419,3.452 L55.71,3.452 Z" id="Shape"></path>
            </g>
        </g>
    </g>
</svg>