<?xml version="1.0" encoding="UTF-8"?>
<svg width="299px" height="197px" viewBox="0 0 299 197" version="1.1" xmlns="http://www.w3.org/2000/svg" xmlns:xlink="http://www.w3.org/1999/xlink">
    <!-- Generator: Sketch 52.6 (67491) - http://www.bohemiancoding.com/sketch -->
    <title>touch</title>
    <desc>Created with Sketch.</desc>
    <g id="Page-1" stroke="none" stroke-width="1" fill="none" fill-rule="evenodd">
        <g id="touch">
            <g id="Group">
                <polygon id="Path" fill="#F1F2F2" points="0 0 299 0 299 197 0 197"></polygon>
                <path d="M1.98671096,1.9798995 L1.98671096,195.020101 L297.013289,195.020101 L297.013289,1.9798995 L1.98671096,1.9798995 Z M299,0 L299,197 L0,197 L0,0 L299,0 Z" id="Path" fill="#C2C2C2" fill-rule="nonzero"></path>
                <g id="Group-2" transform="translate(2.000000, 33.000000)">
                    <path d="M2.887,23.4456836 L2.887,22.2388448 L292.54325,22.2388448 L292.54325,23.4456836 L2.887,23.4456836 Z M2.887,63.9796458 L2.887,62.772807 L292.54325,62.772807 L292.54325,63.9796458 L2.887,63.9796458 Z M2.887,104.513608 L2.887,103.30677 L292.54325,103.30677 L292.54325,104.513608 L2.887,104.513608 Z M2.887,145.010211 L2.887,143.803373 L292.54325,143.803373 L292.54325,145.010211 L2.887,145.010211 Z M37.2665806,2.59396226 L38.4734194,2.59396226 L38.4734194,162.264151 L37.2665806,162.264151 L37.2665806,2.59396226 Z M73.9314556,2.59396226 L75.1382944,2.59396226 L75.1382944,162.264151 L73.9314556,162.264151 L73.9314556,2.59396226 Z M110.558956,2.59396226 L111.765794,2.59396226 L111.765794,162.264151 L110.558956,162.264151 L110.558956,2.59396226 Z M147.223831,2.59396226 L148.430669,2.59396226 L148.430669,162.264151 L147.223831,162.264151 L147.223831,2.59396226 Z M183.851331,2.59396226 L185.058169,2.59396226 L185.058169,162.264151 L183.851331,162.264151 L183.851331,2.59396226 Z M220.478831,2.59396226 L221.685669,2.59396226 L221.685669,162.264151 L220.478831,162.264151 L220.478831,2.59396226 Z M2.887,84.2279477 L2.887,83.0211089 L292.54325,83.0211089 L292.54325,84.2279477 L2.887,84.2279477 Z" id="Shape" fill="#DFDEDE" fill-rule="nonzero"></path>
                    <polygon id="Path" fill="#2A3052" fill-rule="nonzero" points="2.887 43.7313439 2.887 42.5245051 292.54325 42.5245051 292.54325 43.7313439"></polygon>
                    <polygon id="Path" fill="#DFDEDE" fill-rule="nonzero" points="2.887 124.76191 2.887 123.555072 292.54325 123.555072 292.54325 124.76191"></polygon>
                    <polygon id="Path" fill="#2A3052" fill-rule="nonzero" points="257.143706 2.59396226 258.350544 2.59396226 258.350544 162.264151 257.143706 162.264151"></polygon>
                    <polygon id="Path" fill="#C2C2C2" fill-rule="nonzero" points="0.794 2.60551619 0.794 0.191464945 294.63625 0.191464945 294.63625 2.60551619"></polygon>
                    <path d="M39.0869303,105.250634 C38.3466232,105.922726 37.2016474,105.867426 36.5295554,105.127119 C35.8574633,104.386812 35.9127626,103.241836 36.6530697,102.569744 L73.3179447,69.283329 C74.0311337,68.6358563 75.1264314,68.6601974 75.8101526,69.338714 L100.514722,93.8552281 L130.675074,60.5178463 C131.351131,59.7705752 132.50724,59.7191333 133.246994,60.4034068 L177.337008,101.186717 L219.609617,42.0748031 C220.19124,41.2614907 221.322059,41.0736691 222.135371,41.655292 C222.948684,42.2369149 223.136505,43.3677334 222.554883,44.1810459 L179.087758,104.96331 C178.45376,105.849861 177.185865,105.979337 176.385756,105.239235 L132.132071,64.3045294 L101.927801,97.6904556 C101.234985,98.4562508 100.042975,98.4883312 99.3099724,97.7609087 L74.4794148,73.1193652 L39.0869303,105.250634 Z" id="Path" fill="#2A3052" fill-rule="nonzero"></path>
                    <path d="M185.987125,114.445283 L151.0415,114.445283 L145.6595,106.263774 L140.2775,114.445283 L105.331875,114.445283 C102.715625,114.445283 100.622625,116.574717 100.622625,119.22717 L100.622625,143.921132 C100.622625,146.573585 102.753,148.703019 105.331875,148.703019 L186.0245,148.703019 C188.64075,148.703019 190.73375,146.573585 190.73375,143.921132 L190.73375,119.22717 C190.73375,116.574717 188.603375,114.445283 185.987125,114.445283 Z" id="Path" fill="#E88024"></path>
                    <g id="Group" opacity="0.6" transform="translate(212.037500, 34.509434)" fill="#FFFFFF">
                        <ellipse id="Oval" cx="9.04475" cy="8.6184906" rx="8.110375" ry="8.44301887"></ellipse>
                    </g>
                    <path d="M221.08225,52.777969 C215.925296,52.777969 211.764849,48.4468836 211.764849,43.1279245 C211.764849,37.8089654 215.925296,33.47788 221.08225,33.47788 C226.239204,33.47788 230.399651,37.8089654 230.399651,43.1279245 C230.399651,48.4468836 226.239204,52.777969 221.08225,52.777969 Z M221.08225,50.3639177 C224.883769,50.3639177 227.985599,47.1348665 227.985599,43.1279245 C227.985599,39.1209825 224.883769,35.8919313 221.08225,35.8919313 C217.280731,35.8919313 214.178901,39.1209825 214.178901,43.1279245 C214.178901,47.1348665 217.280731,50.3639177 221.08225,50.3639177 Z" id="Oval" fill="#E88024" fill-rule="nonzero"></path>
                    <g id="Group" opacity="0.6" transform="translate(28.900000, 95.018868)" fill="#FFFFFF">
                        <ellipse id="Oval" cx="8.97" cy="8.89132075" rx="8.110375" ry="8.44301887"></ellipse>
                    </g>
                    <path d="M37.87,113.560233 C32.7130457,113.560233 28.5525994,109.229148 28.5525994,103.910189 C28.5525994,98.5912299 32.7130457,94.2601445 37.87,94.2601445 C43.0269543,94.2601445 47.1874006,98.5912299 47.1874006,103.910189 C47.1874006,109.229148 43.0269543,113.560233 37.87,113.560233 Z M37.87,111.146182 C41.6715185,111.146182 44.7733494,107.917131 44.7733494,103.910189 C44.7733494,99.903247 41.6715185,96.6741958 37.87,96.6741958 C34.0684815,96.6741958 30.9666506,99.903247 30.9666506,103.910189 C30.9666506,107.917131 34.0684815,111.146182 37.87,111.146182 Z" id="Oval" fill="#E88024" fill-rule="nonzero"></path>
                </g>
            </g>
            <path d="M18.111,17.842 L17.277,17.842 L17.277,22.748 L15,22.748 L15,11 L17.277,11 L17.277,15.801 L17.916,15.801 L21.026,11 L23.841,11 L19.911,16.463 L24.145,22.748 L21.245,22.748 L18.111,17.842 Z M29.976,22.748 C29.8909959,22.5432359 29.8195093,22.3331185 29.762,22.119 C29.7017607,21.8966232 29.6586347,21.6699609 29.633,21.441 C29.406109,21.8579527 29.0890795,22.219052 28.705,22.498 C28.321,22.778 27.863,22.918 27.333,22.918 C26.45,22.918 25.769,22.683 25.291,22.212 C24.813,21.742 24.574,21.1 24.574,20.287 C24.574,19.432 24.892,18.769 25.529,18.298 C26.165,17.828 27.094,17.592 28.316,17.592 L29.594,17.592 L29.594,16.898 C29.594,16.478 29.488,16.153 29.274,15.922 C29.061,15.691 28.744,15.575 28.324,15.575 C27.954,15.575 27.67,15.668 27.47,15.853 C27.27,16.039 27.17,16.293 27.17,16.616 L24.979,16.616 L24.963,16.568 C24.927,15.831 25.238,15.194 25.895,14.659 C26.552,14.124 27.411,13.856 28.471,13.856 C29.485,13.856 30.305,14.12 30.931,14.647 C31.557,15.174 31.871,15.93 31.871,16.914 L31.871,20.521 C31.871,20.931 31.901,21.315 31.961,21.675 C32.02,22.035 32.115,22.393 32.245,22.748 L29.976,22.748 Z M27.895,21.175 C28.2710066,21.1803973 28.6400759,21.0735064 28.955,20.868 C29.267,20.664 29.48,20.428 29.595,20.158 L29.595,18.924 L28.315,18.924 C27.832,18.924 27.467,19.047 27.22,19.294 C26.973,19.542 26.85,19.846 26.85,20.207 C26.85,20.503 26.942,20.737 27.127,20.913 C27.311,21.088 27.567,21.175 27.895,21.175 Z M37.102,21.11 C37.497,21.11 37.811,20.988 38.045,20.743 C38.279,20.498 38.395,20.172 38.395,19.763 L40.469,19.763 L40.485,19.811 C40.505,20.693 40.189,21.431 39.534,22.026 C38.879,22.621 38.068,22.918 37.102,22.918 C35.854,22.918 34.89,22.505 34.209,21.679 C33.529,20.854 33.188,19.798 33.188,18.512 L33.188,18.27 C33.188,16.99 33.528,15.934 34.205,15.103 C34.884,14.272 35.844,13.856 37.085,13.856 C38.115,13.856 38.944,14.163 39.573,14.776 C40.202,15.389 40.506,16.196 40.485,17.196 L40.469,17.246 L38.396,17.246 C38.396,16.793 38.28,16.418 38.049,16.12 C37.817,15.821 37.497,15.672 37.086,15.672 C36.499,15.672 36.082,15.915 35.835,16.402 C35.588,16.889 35.465,17.512 35.465,18.27 L35.465,18.512 C35.465,19.287 35.588,19.913 35.835,20.392 C36.082,20.871 36.504,21.11 37.102,21.11 Z M46.784,22.748 C46.6989959,22.5432359 46.6275093,22.3331185 46.57,22.119 C46.5097607,21.8966232 46.4666347,21.6699609 46.441,21.441 C46.214109,21.8579527 45.8970795,22.219052 45.513,22.498 C45.129,22.778 44.671,22.918 44.141,22.918 C43.258,22.918 42.577,22.683 42.099,22.212 C41.621,21.742 41.381,21.1 41.381,20.287 C41.381,19.432 41.7,18.769 42.336,18.298 C42.973,17.828 43.902,17.592 45.123,17.592 L46.402,17.592 L46.402,16.898 C46.402,16.478 46.295,16.153 46.082,15.922 C45.869,15.691 45.552,15.575 45.132,15.575 C44.762,15.575 44.478,15.668 44.278,15.853 C44.078,16.039 43.978,16.293 43.978,16.616 L41.787,16.616 L41.771,16.568 C41.735,15.831 42.045,15.194 42.703,14.659 C43.36,14.124 44.219,13.856 45.279,13.856 C46.293,13.856 47.113,14.12 47.739,14.647 C48.365,15.174 48.679,15.93 48.679,16.914 L48.679,20.521 C48.679,20.931 48.709,21.315 48.769,21.675 C48.828,22.035 48.923,22.393 49.053,22.748 L46.784,22.748 Z M44.703,21.175 C45.0790066,21.1803973 45.4480759,21.0735064 45.763,20.868 C46.075,20.664 46.288,20.428 46.402,20.158 L46.402,18.924 L45.123,18.924 C44.64,18.924 44.275,19.047 44.028,19.294 C43.781,19.542 43.658,19.846 43.658,20.207 C43.658,20.503 43.75,20.737 43.935,20.913 C44.119,21.088 44.375,21.175 44.703,21.175 Z M57.675,22.748 L55.398,22.748 L55.398,19.359 L52.624,19.359 L52.624,22.749 L50.348,22.749 L50.348,14.018 L52.624,14.018 L52.624,17.552 L55.399,17.552 L55.399,14.018 L57.676,14.018 L57.676,22.748 L57.675,22.748 Z M64.434,14.018 L66.702,14.018 L66.702,22.748 L64.434,22.748 L64.434,17.423 L64.387,17.415 L61.635,22.748 L59.359,22.748 L59.359,14.018 L61.635,14.018 L61.635,19.328 L61.682,19.335 L64.434,14.018 Z M72.066,22.918 C70.808,22.918 69.826,22.518 69.119,21.72 C68.412,20.92 68.059,19.892 68.059,18.633 L68.059,18.31 C68.059,17.003 68.402,15.933 69.088,15.099 C69.774,14.265 70.718,13.851 71.918,13.856 C73.051,13.856 73.92,14.216 74.526,14.934 C75.131,15.652 75.434,16.619 75.434,17.834 L75.434,19.053 L70.406,19.053 L70.382,19.101 C70.419,19.698 70.594,20.182 70.908,20.554 C71.223,20.924 71.689,21.11 72.308,21.11 C72.817,21.11 73.25,21.057 73.606,20.949 C73.991519,20.8283734 74.3616789,20.6632613 74.709,20.457 L75.325,21.909 C74.987,22.194 74.53,22.434 73.953,22.627 C73.3439355,22.8255551 72.7065789,22.923506 72.066,22.917 L72.066,22.918 Z M71.918,15.672 C71.461,15.672 71.108,15.835 70.862,16.16 C70.615,16.485 70.465,16.917 70.413,17.455 L70.429,17.495 L73.204,17.495 L73.204,17.318 C73.204,16.807 73.103,16.405 72.9,16.112 C72.697,15.818 72.37,15.672 71.918,15.672 Z" id="Shape" fill="#000000" fill-rule="nonzero"></path>
            <g id="Group" transform="translate(16.944000, 151.292000)" fill="#2A3052" fill-rule="nonzero">
                <path d="M13.344,8.782 C13.311,8.612 13.311,8.477 13.311,8.307 C13.081,8.647 12.787,8.917 12.426,9.155 C12.066,9.393 11.672,9.495 11.246,9.495 C10.557,9.495 10.033,9.325 9.672,8.918 C9.28969605,8.50384783 9.08879334,7.95406568 9.114,7.391 C9.114,6.712 9.377,6.203 9.901,5.83 C10.426,5.456 11.115,5.253 12,5.253 L13.311,5.253 L13.311,4.573 C13.311,4.167 13.181,3.827 12.951,3.59 C12.721,3.352 12.361,3.216 11.934,3.216 C11.541,3.216 11.213,3.318 10.984,3.522 C10.754,3.726 10.623,3.997 10.623,4.269 L9.475,4.269 L9.475,4.235 C9.442,3.725 9.672,3.25 10.164,2.843 C10.655,2.436 11.278,2.198 12.033,2.198 C12.787,2.198 13.41,2.402 13.869,2.809 C14.328,3.216 14.557,3.793 14.557,4.54 L14.557,7.9 C14.557,8.137 14.557,8.375 14.59,8.612 C14.623,8.85 14.656,9.088 14.721,9.292 L13.442,9.292 L13.442,9.359 C13.4121521,9.16619854 13.3794819,8.97384457 13.344,8.782 Z M11.359,8.375 C11.786,8.375 12.212,8.273 12.539,8.035 C12.901,7.798 13.13,7.526 13.229,7.221 L13.229,6.101 L11.884,6.101 C11.392,6.101 10.999,6.237 10.704,6.474 C10.4281459,6.69767771 10.270647,7.03591288 10.277,7.391 C10.277,7.696 10.376,7.934 10.54,8.137 C10.736,8.273 10.999,8.375 11.36,8.375 L11.359,8.375 Z M27.154,8.749 C27.121,8.579 27.121,8.443 27.121,8.273 C26.891,8.613 26.596,8.884 26.236,9.122 C25.875,9.359 25.482,9.462 25.056,9.462 C24.366,9.462 23.842,9.292 23.481,8.884 C23.0990592,8.46968808 22.8985233,7.91992458 22.924,7.357 C22.924,6.678 23.186,6.169 23.711,5.796 C24.236,5.423 24.924,5.219 25.809,5.219 L27.121,5.219 L27.121,4.54 C27.121,4.133 26.99,3.794 26.761,3.556 C26.531,3.319 26.171,3.183 25.744,3.183 C25.35,3.183 25.023,3.285 24.793,3.488 C24.563,3.692 24.433,3.963 24.433,4.235 L23.285,4.235 L23.285,4.201 C23.252,3.691 23.481,3.217 23.973,2.81 C24.465,2.402 25.088,2.165 25.843,2.165 C26.596,2.165 27.219,2.368 27.678,2.775 C28.138,3.183 28.367,3.76 28.367,4.506 L28.367,7.866 C28.367,8.104 28.367,8.341 28.4,8.579 C28.433,8.816 28.465,9.054 28.53,9.258 L27.252,9.258 L27.252,9.326 C27.219,9.122 27.187,8.918 27.154,8.749 Z M25.169,8.341 C25.595,8.341 26.022,8.24 26.349,8.002 C26.71,7.764 26.939,7.492 27.038,7.187 L27.038,6.067 L25.694,6.067 C25.202,6.067 24.808,6.203 24.514,6.441 C24.2384251,6.66446004 24.0809565,7.00226153 24.087,7.357 C24.087,7.663 24.185,7.9 24.349,8.104 C24.546,8.24 24.809,8.341 25.169,8.341 Z M39.478,2.346 C40.218,2.305 41.154,2.57 41.678,3.121 C42.257,3.729 42.671,4.486 42.671,5.735 C42.671,6.841 42.457,7.641 41.951,8.287 C41.4187206,8.94930125 40.6186064,9.33945773 39.769,9.351 C39.021,9.351 38.209,9.229 37.526,8.576 C36.968,8.042 36.451,7.126 36.503,5.849 C36.56,4.437 36.998,3.631 37.526,3.121 C38.06,2.605 38.686,2.391 39.478,2.346 Z M39.744,3.27 C38.896,3.27 37.87,3.843 37.87,5.62 C37.87,7.395 38.503,8.452 39.64,8.452 C40.777,8.452 41.523,7.257 41.408,5.619 C41.293,3.981 40.592,3.27 39.744,3.27 Z M6.265,0.077 L7.458,0.077 L7.458,9.217 L6.265,9.217 L6.265,5.167 L1.947,5.167 L1.947,9.217 L0.755,9.217 L0.755,0.077 L1.947,0.077 L1.947,4.231 L6.265,4.231 L6.265,0.077 Z M16.142,2.396 L17.3,2.396 L17.3,4.461 C17.298,5.862 18.25,6.314 20.158,5.817 L20.178,2.457 L21.353,2.457 L21.353,9.182 L20.179,9.182 C20.186,8.202 20.186,7.394 20.179,6.759 C18.939,7.108 17.089,7.13 16.436,5.819 C16.17,5.285 16.148,4.777 16.143,4.29 C16.1357797,3.65868731 16.1357797,3.02731269 16.143,2.396 L16.142,2.396 Z M29.299,8.165 C29.308,8.455 29.267,8.697 29.267,9.217 C31.97,9.394 32.004,6.957 31.89,3.409 L34.083,3.406 L34.083,9.266 L35.265,9.266 L35.265,2.443 C33.7367891,2.41564478 32.2082109,2.41564478 30.68,2.443 C30.597,5.092 31.202,8.311 29.299,8.165 Z" id="Shape"></path>
            </g>
            <g id="Group" transform="translate(262.944000, 119.292000)" fill="#2A3052" fill-rule="nonzero">
                <path d="M24.67,5.963 L20.835,5.963 C20.835,6.7 20.98,7.233 21.27,7.561 C21.652,7.993 22.055,8.149 22.606,8.092 C23.569,7.992 23.754,7.726 24.153,7.49 L24.559,8.211 C24.084,8.718 23.325,8.971 22.282,8.971 C20.718,8.971 19.764,7.63 19.702,6.032 C19.639,4.434 20.255,2.581 22.282,2.502 C24,2.55 24.796,3.704 24.669,5.963 L24.67,5.963 Z M23.592,5.085 C23.582,3.961 23.145,3.399 22.283,3.399 C21.422,3.399 20.951,3.961 20.87,5.085 L23.592,5.085 Z M9.528,2.507 C10.188,2.469 11.023,2.707 11.491,3.197 C12.008,3.74 12.377,4.416 12.377,5.531 C12.377,6.518 12.187,7.231 11.736,7.808 C11.226,8.46 10.432,8.758 9.788,8.758 C9.119,8.758 8.395,8.65 7.786,8.068 C7.287,7.59 6.826,6.773 6.872,5.632 C6.923,4.372 7.315,3.653 7.786,3.197 C8.262,2.737 8.821,2.547 9.528,2.507 Z M9.765,3.331 C9.008,3.331 8.092,3.842 8.092,5.428 C8.092,7.013 8.657,7.956 9.672,7.956 C10.687,7.956 11.353,6.889 11.251,5.428 C11.148,3.966 10.522,3.331 9.765,3.331 Z M25.835,2.626 L26.871,2.626 L26.871,7.884 L29.479,7.884 L29.479,2.626 L30.554,2.626 L30.554,7.884 L31.267,7.884 L31.267,10.737 L30.23,10.737 L30.23,8.767 L25.835,8.767 L25.835,2.626 Z M0.522,0.521 L1.561,0.521 L1.561,4.059 L2.216,4.059 L5.094,0.521 L6.284,0.521 L3.114,4.4 L6.568,8.738 L5.26,8.738 L2.216,5.008 L1.561,5.008 L1.561,8.738 L0.521,8.738 L0.522,0.521 Z M13.623,2.651 L14.709,2.651 L14.709,5.254 L17.295,5.254 L17.295,2.651 L18.316,2.651 L18.316,8.671 L17.295,8.671 L17.295,6.139 L14.709,6.139 L14.709,8.671 L13.623,8.671 L13.623,2.651 Z" id="Shape"></path>
            </g>
            <g id="Group" transform="translate(26.944000, 59.292000)" fill="#6D6E71" fill-rule="nonzero">
                <path d="M11.49,6.522 C11.545,6.66 11.608,6.806 11.755,7.131 C10.643,8.008 9.363,7.888 8.765,7.526 C7.865,6.98 7.865,5.966 7.87,5.181 C7.876,4.181 8.586,2.32 10.565,2.32 C12.543,2.32 12.218,4.53 12.122,5.181 C11.92,5.181 10.829,5.201 8.849,5.243 C8.666,7.675 10.441,7.131 11.491,6.523 L11.49,6.522 Z M11.371,4.567 C11.487,3.607 11.201,3.127 10.516,3.127 C9.488,3.127 9.128,4.253 9.013,4.567 L11.371,4.567 Z M1.599,0.534 L2.528,0.534 L1.598,6.978 L4.98,6.978 L5.906,0.534 L6.956,0.534 L5.906,6.978 L6.795,6.978 L6.461,9.519 L5.515,9.519 L5.74,7.774 L0.56,7.774 L1.599,0.534 Z M16.168,7.719 L17.101,7.719 L17.844,2.425 C16.666,2.441 15.466,2.441 14.244,2.425 C13.844,4.955 13.693,7.113 12.48,6.895 L12.347,7.719 C13.14,7.719 13.671,7.551 13.939,7.215 C14.919,5.985 14.871,4.242 15.039,3.158 L16.808,3.158 L16.168,7.718 L16.168,7.719 Z M19.155,2.388 L20.038,2.388 C19.886,3.594 19.791,4.276 19.754,4.433 L21.372,4.433 C22.053,4.433 22.836,5.03 22.792,5.872 C22.729,7.103 21.657,7.74 20.812,7.74 L18.366,7.74 C18.529,6.343 18.792,4.56 19.156,2.388 L19.155,2.388 Z M19.399,6.981 L20.77,6.981 C20.978,6.981 21.701,6.834 21.815,6.079 C21.929,5.324 21.21,5.178 21.027,5.178 L19.661,5.178 L19.4,6.98 L19.399,6.981 Z" id="Shape"></path>
            </g>
            <g id="Group" transform="translate(112.944000, 157.292000)" fill="#FFFFFF" fill-rule="nonzero">
                <path d="M70.994,7.851 L69.034,7.851 L69.034,1.141 L70.994,1.141 L70.994,7.851 Z M70.994,11.382 L69.034,11.382 L69.034,9.579 L70.994,9.579 L70.994,11.382 Z" id="Shape"></path>
                <path d="M0.828,0.67 L4.988,0.67 C5.741,0.67 7.692,1.258 7.823,3.086 C7.91,4.304 7.432,5.165 6.387,5.668 C7.722,6.003 8.414,6.868 8.462,8.26 C8.534,10.349 6.616,11.365 5.402,11.365 L0.828,11.365 L0.828,0.67 Z M2.468,9.914 L4.818,9.914 C5.38,9.914 6.725,9.807 6.725,8.19 C6.725,6.573 5.067,6.466 4.819,6.466 L2.468,6.466 L2.468,9.914 Z M2.508,2.038 L2.508,5.106 L4.438,5.106 C5.447,5.106 6.174,4.569 6.112,3.428 C6.049,2.288 5.102,2.064 4.438,2.038 L2.508,2.038 Z M10.164,3.367 L11.86,3.367 L11.86,6.137 L13.89,6.137 C14.379,6.137 16.802,6.528 16.685,8.794 C16.569,11.06 14.648,11.334 13.767,11.334 L10.164,11.334 L10.164,3.367 Z M11.879,7.589 L11.879,9.949 L13.546,9.949 C13.962,9.949 14.986,9.785 14.986,8.769 C14.986,7.752 13.94,7.589 13.546,7.589 L11.879,7.589 Z M44.68,3.213 L46.375,3.213 L46.375,5.983 L48.405,5.983 C48.895,5.983 51.317,6.373 51.201,8.64 C51.085,10.906 49.164,11.18 48.283,11.18 L44.679,11.18 L44.679,3.213 L44.68,3.213 Z M46.395,7.434 L46.395,9.794 L48.062,9.794 C48.478,9.794 49.502,9.63 49.502,8.614 C49.502,7.598 48.456,7.434 48.062,7.434 L46.395,7.434 Z M17.808,3.36 L19.448,3.36 L19.448,11.36 L17.808,11.36 L17.808,3.36 Z M52.382,3.196 L54.022,3.196 L54.022,11.196 L52.382,11.196 L52.382,3.196 Z M21.81,3.363 L23.464,3.363 L23.464,8.718 L26.57,3.363 L28.225,3.363 L28.225,11.323 L26.57,11.323 L26.57,6 L23.527,11.325 L21.809,11.325 L21.81,3.363 Z M35.168,3.398 L35.168,4.788 L31.89,4.788 L31.89,11.329 L30.102,11.329 L30.102,3.399 L35.168,3.398 Z M36.222,3.353 L37.694,3.369 L37.834,4.376 C38.606,3.226 40.011,2.927 41.239,3.485 C42.243,3.94 42.886,5.586 42.943,6.602 C43.045,8.442 43.015,9.874 41.746,10.922 C40.478,11.972 38.862,11.602 37.906,10.549 L37.906,14.394 L36.222,14.394 L36.222,3.353 Z M37.965,5.587 C37.985,6.607 37.971,7.865 37.965,9.223 C38.835,10.489 39.981,10.105 40.525,9.757 C41.095,9.394 41.305,8.161 41.237,7.051 C41.189,6.272 40.812,5.019 40.039,4.758 C39.26,4.496 38.587,4.642 37.965,5.587 Z M56.444,3.355 L56.444,11.32 L66.467,11.32 L66.467,3.355 L64.72,3.355 L64.72,9.884 L62.373,9.884 L62.373,3.355 L60.653,3.355 L60.653,9.884 L58.17,9.884 C58.149,6.071 58.149,3.894 58.17,3.355 L56.444,3.355 Z" id="Shape"></path>
            </g>
        </g>
    </g>
</svg>