<svg width="299" height="199" xmlns="http://www.w3.org/2000/svg"><g transform="translate(2 2)" fill="none" fill-rule="evenodd"><path stroke="#C2C2C2" stroke-width="2.423" fill="#F1F2F2" d="M0 0h295v195H0z"/><path d="M2 54.29h291M2 74.618h291M2 94.908h291M2 135.526h291M2 155.816h291M2 176.106h291M37.127 34v160M73.943 34v160M110.76 34v160m36.816-160v160m36.816-160v160m36.816-160v160m36.816-160v160" stroke="#DFDEDE" stroke-width="1.211"/><path d="M2 115.5h291" stroke="#2A3052" stroke-width="1.211" stroke-linejoin="round"/><path d="M0 32.5h295" stroke="#C2C2C2" stroke-width="2.423"/><path stroke="#2A3052" stroke-width="3.634" stroke-linecap="round" stroke-linejoin="round" d="M38 114.479l28.385-26.24 38.636 38.911 35.369-51.021L190.627 131l42.165-73L259 73.96"/><path d="M186.298 146.29h-34.925L146 138l-5.373 8.29h-34.925a4.69 4.69 0 0 0-3.345 1.43 4.829 4.829 0 0 0-1.357 3.415v25.02c-.016 2.653 2.086 4.82 4.702 4.845h80.596a4.69 4.69 0 0 0 3.345-1.43 4.829 4.829 0 0 0 1.357-3.415v-25.02c.016-2.654-2.086-4.82-4.702-4.845z" fill="#E88024"/><ellipse cx="8.512" cy="8.677" rx="8.137" ry="8.486" opacity=".6" transform="translate(250 66)" fill="#FFF"/><ellipse stroke="#E88024" stroke-width="2.423" cx="258" cy="74.5" rx="8" ry="8.5"/><ellipse cx="9.037" cy="9.076" rx="8.137" ry="8.486" opacity=".6" transform="translate(28 106)" fill="#FFF"/><ellipse stroke="#E88024" stroke-width="2.423" cx="37" cy="115.5" rx="8" ry="8.5"/><path d="M21.582 23v-9.953h3.363c1.172 0 2.085.228 2.742.683.656.456.984 1.138.984 2.044 0 .46-.122.872-.366 1.234-.244.363-.598.635-1.063.817.597.128 1.045.401 1.343.82.299.42.448.905.448 1.457 0 .952-.314 1.673-.943 2.163-.63.49-1.52.735-2.673.735h-3.835zm1.996-4.402v2.87h1.839c.529 0 .932-.114 1.21-.344.278-.23.417-.571.417-1.022 0-.488-.119-.86-.356-1.118-.237-.258-.61-.386-1.12-.386h-1.99zm0-1.381h1.436c.533 0 .943-.11 1.23-.328.287-.22.43-.538.43-.957 0-.46-.144-.8-.433-1.019-.29-.219-.721-.328-1.296-.328h-1.367v2.632zM30.503 23v-7.396h3.09c.984 0 1.75.173 2.3.519.55.346.824.861.824 1.545 0 .346-.115.654-.345.923-.23.269-.558.474-.981.615.56.11.985.316 1.275.619.289.303.434.657.434 1.063 0 .697-.261 1.223-.783 1.579-.522.355-1.27.533-2.246.533h-3.568zm1.996-3.083v1.565h1.572c.351 0 .611-.065.78-.194.168-.13.253-.323.253-.578 0-.255-.081-.451-.243-.588-.162-.137-.425-.205-.79-.205H32.5zm0-1.299h1.148c.37 0 .642-.06.817-.178.176-.118.264-.296.264-.533 0-.269-.094-.466-.28-.591-.188-.125-.472-.188-.855-.188h-1.094v1.49zm9.078 4.526c-1.066 0-1.918-.342-2.556-1.026-.639-.683-.958-1.552-.958-2.604v-.274c0-1.098.302-2.003.906-2.714.604-.71 1.414-1.064 2.43-1.06.998 0 1.773.302 2.325.903.551.602.827 1.415.827 2.44v1.087h-4.416l-.014.041c.037.488.2.89.489 1.204.29.314.682.471 1.18.471.441 0 .808-.044 1.1-.133.291-.089.61-.229.957-.42l.54 1.23c-.301.246-.695.45-1.183.612a5.146 5.146 0 0 1-1.627.243zm-.178-6.14c-.369 0-.66.142-.875.425-.214.282-.346.654-.396 1.114l.02.034h2.448V18.4c0-.423-.1-.762-.298-1.015-.198-.253-.498-.38-.899-.38zm10.986 2.503c0 1.094-.253 1.973-.759 2.639-.506.665-1.212.998-2.12.998-.387 0-.73-.072-1.031-.216a2.12 2.12 0 0 1-.773-.632v3.548h-1.99v-10.24h1.799l.116.875a2.37 2.37 0 0 1 .79-.749 2.136 2.136 0 0 1 1.076-.263c.916 0 1.627.358 2.133 1.073.506.716.759 1.657.759 2.823v.144zm-1.996-.144c0-.697-.117-1.262-.349-1.695-.232-.433-.588-.65-1.066-.65-.301 0-.557.062-.77.185-.211.123-.379.299-.502.526v3.24c.123.21.29.37.503.48.212.109.472.163.782.163.483 0 .838-.189 1.063-.567.226-.378.339-.891.339-1.538v-.144zm6.008-1.408h.041l1.135-2.351h2.256l-2.228 3.657L59.904 23h-2.249l-1.21-2.454L55.235 23H52.98l2.304-3.74-2.235-3.656h2.242l1.107 2.351z" fill="#000" fill-rule="nonzero"/><path d="M248.238 126.469h1.131l-1.523 7.629h3.767l1.524-7.63h1.13l-1.517 7.6h.832l-.715 2.989h-1.002l.41-2.057h-5.742l1.705-8.531zm8.918 8.654c-.797 0-1.4-.296-1.807-.888-.409-.591-.538-1.352-.39-2.282l.041-.258c.148-.937.519-1.697 1.11-2.279.592-.582 1.232-.873 1.92-.873.777 0 1.333.26 1.67.78.335.519.437 1.204.304 2.056l-.117.72h-3.82c-.087.65-.027 1.165.178 1.547.205.383.556.575 1.052.575a2.714 2.714 0 0 0 1.752-.627l.322.75a2.9 2.9 0 0 1-.914.556c-.371.149-.805.223-1.3.223zm.733-5.672c-.328 0-.646.164-.952.492a2.857 2.857 0 0 0-.66 1.22l.018.034h2.607l.024-.152c.074-.473.03-.857-.135-1.151-.164-.295-.465-.443-.902-.443zm8.87-.79L265.495 135h-1.137l1.084-5.426h-1.927l-.358 1.793c-.265 1.328-.605 2.266-1.02 2.813-.413.547-1.007.82-1.78.82h-.317l.223-.984.217-.006c.359 0 .66-.206.902-.618.242-.413.457-1.087.644-2.025l.54-2.707h4.195zm2.42 2.179h1.436c.653 0 1.146.193 1.48.58.334.387.442.879.325 1.476-.133.649-.429 1.162-.888 1.539s-1.042.565-1.749.565h-2.566l1.265-6.34h1.137l-.44 2.18zm-.175.902l-.469 2.356h1.43c.344 0 .63-.114.861-.34.23-.227.38-.5.445-.82.067-.336.037-.62-.09-.85-.127-.23-.376-.346-.747-.346h-1.43z" fill="#6D6E71" fill-rule="nonzero"/><path d="M27.941 151h-1.346v-4.396h-4.833V151h-1.347v-9.953h1.347v4.498h4.833v-4.498h1.346V151zm6.754 0c-.045-.223-.08-.42-.106-.591a4.34 4.34 0 0 1-.044-.516 3.14 3.14 0 0 1-.981.892c-.403.239-.837.359-1.302.359-.77 0-1.357-.198-1.76-.592-.404-.394-.606-.937-.606-1.63 0-.707.286-1.26.858-1.658.572-.399 1.348-.598 2.328-.598h1.463v-.731c0-.433-.132-.776-.397-1.03-.264-.252-.638-.379-1.12-.379-.434 0-.786.11-1.057.332-.271.22-.407.486-.407.796H30.28l-.013-.04c-.028-.538.226-1.03.762-1.477.535-.447 1.227-.67 2.075-.67.838 0 1.513.213 2.023.639.51.426.766 1.04.766 1.842v3.562c0 .264.013.52.04.765.028.246.078.488.151.725h-1.388zm-2.235-.984c.488 0 .927-.126 1.32-.376.391-.251.646-.538.765-.862v-1.203h-1.51c-.543 0-.977.137-1.303.41-.326.274-.489.595-.489.964 0 .328.103.588.308.78.205.19.508.287.909.287zm11.163.984h-1.347v-2.646c-.26.069-.526.12-.8.154a7.064 7.064 0 0 1-.874.052c-.894 0-1.594-.235-2.102-.705-.509-.469-.763-1.164-.763-2.084v-2.174h1.347v2.174c0 .592.128 1.027.383 1.305s.633.417 1.135.417a6.642 6.642 0 0 0 1.675-.205v-3.684h1.346V151zm6.501 0c-.046-.223-.08-.42-.106-.591a4.34 4.34 0 0 1-.044-.516 3.14 3.14 0 0 1-.981.892c-.404.239-.838.359-1.303.359-.77 0-1.357-.198-1.76-.592-.403-.394-.605-.937-.605-1.63 0-.707.286-1.26.858-1.658.572-.399 1.348-.598 2.328-.598h1.463v-.731c0-.433-.133-.776-.397-1.03-.264-.252-.638-.379-1.12-.379-.434 0-.786.11-1.057.332-.271.22-.407.486-.407.796h-1.285l-.014-.04c-.027-.538.227-1.03.763-1.477.535-.447 1.227-.67 2.074-.67.839 0 1.513.213 2.024.639.51.426.765 1.04.765 1.842v3.562c0 .264.014.52.041.765.028.246.078.488.15.725h-1.387zm-2.235-.984c.487 0 .927-.126 1.319-.376.392-.251.647-.538.766-.862v-1.203h-1.511c-.542 0-.977.137-1.302.41-.326.274-.49.595-.49.964 0 .328.103.588.308.78.206.19.509.287.91.287zm11.382-6.412V151h-1.347v-6.33h-2.502v2.092c0 1.458-.194 2.529-.581 3.213-.388.683-1.048 1.025-1.983 1.025h-.382l.027-1.148.28-.007c.479 0 .813-.234 1.002-.701.189-.467.283-1.261.283-2.382v-3.158h5.203zm1.435 3.63c0-1.094.296-1.996.889-2.704.592-.709 1.397-1.063 2.413-1.063 1.025 0 1.835.353 2.43 1.06.595.706.892 1.608.892 2.706v.15c0 1.104-.296 2.006-.889 2.708-.592.702-1.399 1.053-2.42 1.053-1.02 0-1.828-.352-2.423-1.057-.595-.704-.892-1.605-.892-2.703v-.15zm1.347.15c0 .784.165 1.43.495 1.941.33.51.822.766 1.473.766.643 0 1.13-.255 1.463-.766.333-.51.5-1.157.5-1.941v-.15c0-.775-.168-1.42-.503-1.935-.335-.515-.826-.773-1.473-.773-.643 0-1.13.258-1.46.773-.33.515-.495 1.16-.495 1.934v.15zM241.093 96.009h-1.162v4.491h-1.347v-9.953h1.347v4.402h1.039l3.561-4.402h1.49l.021.034-3.862 4.778 4.142 5.107-.02.034h-1.607l-3.602-4.491zm5.927.724c0-1.093.296-1.995.888-2.703.593-.709 1.397-1.063 2.413-1.063 1.026 0 1.836.353 2.43 1.06.595.706.893 1.608.893 2.706v.15c0 1.104-.297 2.006-.89 2.708-.592.702-1.398 1.053-2.419 1.053-1.02 0-1.829-.352-2.423-1.057-.595-.704-.892-1.605-.892-2.703v-.15zm1.346.15c0 .785.165 1.432.496 1.942.33.51.821.766 1.473.766.643 0 1.13-.255 1.463-.766.333-.51.499-1.157.499-1.941v-.15c0-.775-.168-1.42-.503-1.935-.335-.515-.826-.773-1.473-.773-.642 0-1.129.258-1.46.773-.33.515-.495 1.16-.495 1.934v.15zm12.913 3.617h-1.346v-3.145h-3.295v3.145h-1.347v-7.396h1.347v3.199h3.295v-3.2h1.346v7.397zm5.038.144c-1.03 0-1.849-.343-2.457-1.03-.609-.685-.913-1.575-.913-2.669v-.3c0-1.053.314-1.93.94-2.629.627-.7 1.369-1.05 2.225-1.05.998 0 1.753.302 2.263.903.51.602.766 1.404.766 2.406v.841h-4.8l-.02.034c.014.711.194 1.296.54 1.754.347.458.832.687 1.456.687.456 0 .856-.065 1.2-.195s.642-.309.892-.537l.527.875c-.265.26-.613.477-1.046.65-.433.173-.957.26-1.573.26zm-.205-6.618c-.45 0-.836.19-1.155.571-.319.38-.515.858-.588 1.432l.014.034h3.41v-.177c0-.529-.14-.971-.423-1.326-.282-.356-.702-.534-1.258-.534zm4.54-.922h1.346v6.343h3.302v-6.343h1.346v6.343h.903v3.473h-1.347v-2.42h-5.55v-7.396z" fill="#2A3052" fill-rule="nonzero"/><path d="M106.014 172v-12.797h4.324c1.506 0 2.68.293 3.524.879.844.586 1.266 1.462 1.266 2.628 0 .592-.157 1.12-.47 1.586-.314.466-.77.816-1.367 1.05.768.165 1.343.516 1.727 1.055.384.54.576 1.163.576 1.872 0 1.225-.405 2.152-1.213 2.782-.809.63-1.954.945-3.437.945h-4.93zm2.566-5.66v3.691h2.364c.68 0 1.199-.148 1.556-.444.357-.295.536-.733.536-1.314 0-.627-.152-1.106-.457-1.437-.305-.33-.785-.496-1.441-.496h-2.558zm0-1.776h1.846c.685 0 1.213-.14 1.582-.421.369-.282.554-.692.554-1.23 0-.593-.187-1.03-.559-1.31-.372-.282-.927-.422-1.665-.422h-1.758v3.383zm11.672 1.002h1.784c1.277 0 2.282.295 3.015.884.732.589 1.098 1.36 1.098 2.316 0 .966-.366 1.747-1.098 2.342-.733.595-1.738.892-3.015.892h-4.36v-9.51h2.576v3.076zm9.36 6.434h-2.566v-9.51h2.566V172zm-9.36-4.465v2.505h1.784c.522 0 .911-.117 1.17-.352.257-.234.386-.536.386-.905 0-.357-.13-.655-.387-.892-.258-.237-.647-.356-1.169-.356h-1.784zm17.745-5.045h2.558V172h-2.558v-5.8l-.053-.01-3.102 5.81h-2.567v-9.51h2.567v5.783l.053.01 3.102-5.793zm10.934 1.987h-3.929V172h-2.566v-9.51h6.495v1.987zm9.641 3.032c0 1.406-.325 2.537-.975 3.392-.65.856-1.559 1.284-2.725 1.284-.498 0-.94-.093-1.327-.277a2.726 2.726 0 0 1-.993-.813v4.561h-2.558V162.49h2.312l.15 1.125c.28-.416.619-.737 1.014-.962.396-.226.857-.339 1.384-.339 1.178 0 2.092.46 2.743 1.38.65.92.975 2.13.975 3.63v.185zm-2.566-.185c0-.896-.15-1.623-.448-2.18-.3-.556-.756-.834-1.371-.834-.387 0-.717.079-.99.237a1.693 1.693 0 0 0-.645.677v4.166c.158.27.373.474.646.615.272.14.608.21 1.006.21.621 0 1.077-.242 1.367-.729.29-.486.435-1.145.435-1.977v-.185zm7.049-1.758h1.784c1.277 0 2.282.295 3.015.884.732.589 1.098 1.36 1.098 2.316 0 .966-.366 1.747-1.098 2.342-.733.595-1.738.892-3.015.892h-4.36v-9.51h2.576v3.076zm9.36 6.434h-2.566v-9.51h2.566V172zm-9.36-4.465v2.505h1.784c.521 0 .911-.117 1.169-.352.258-.234.387-.536.387-.905 0-.357-.13-.655-.387-.892-.258-.237-.648-.356-1.17-.356h-1.783zm14.59-5.045v7.541h2.584v-7.54h2.575v7.54h2.584v-7.54h2.566V172h-12.876v-9.51h2.567z" fill="#FFF" fill-rule="nonzero"/></g></svg>