<?xml version="1.0" encoding="UTF-8"?>
<svg width="299px" height="199px" viewBox="0 0 299 199" version="1.1" xmlns="http://www.w3.org/2000/svg" xmlns:xlink="http://www.w3.org/1999/xlink">
    <!-- Generator: Sketch 52.3 (67297) - http://www.bohemiancoding.com/sketch -->
    <title>RUSSIAN  up</title>
    <desc>Created with Sketch.</desc>
    <g id="RUSSIAN--up" stroke="none" stroke-width="1" fill="none" fill-rule="evenodd">
        <g transform="translate(2.000000, 2.000000)">
            <polygon id="Path" stroke="#C2C2C2" stroke-width="2.422875" fill="#F1F2F2" points="0 0 295 0 295 195 0 195"></polygon>
            <path d="M2,54.2901264 L293,54.2901264 M2,74.6176884 L293,74.6176884 M2,94.9078147 L293,94.9078147 M2,135.525503 L293,135.525503 M2,155.81563 L293,155.81563 M2,176.105756 L293,176.105756 M37.1271602,34 L37.1271602,194 M73.9431261,34 L73.9431261,194 M110.759092,34 L110.759092,194 M147.575058,34 L147.575058,194 M184.391024,34 L184.391024,194 M221.20699,34 L221.20699,194 M258.022956,34 L258.022956,194" id="Shape" stroke="#DFDEDE" stroke-width="1.21125"></path>
            <path d="M2,115.5 L293,115.5" id="Path" stroke="#2A3052" stroke-width="1.21125" stroke-linejoin="round"></path>
            <path d="M0,32.5 L295,32.5" id="Path" stroke="#C2C2C2" stroke-width="2.422875"></path>
            <polyline id="Path" stroke="#2A3052" stroke-width="3.634125" stroke-linecap="round" stroke-linejoin="round" points="38 114.478751 66.3853211 88.2391192 105.020897 127.150025 140.389908 76.1285201 190.627421 131 232.792389 58 259 73.9605734"></polyline>
            <path d="M186.298248,146.289613 L151.3731,146.289613 L146,138 L140.6269,146.289613 L105.701752,146.289613 C104.443691,146.295584 103.239948,146.810394 102.357388,147.719913 C101.474826,148.629432 100.986364,149.858516 101.00029,151.134683 L101.00029,176.15493 C100.983724,178.808221 103.086301,180.975022 105.701752,181 L186.298248,181 C187.556309,180.99403 188.760052,180.47922 189.642612,179.5697 C190.525174,178.660181 191.013636,177.431097 190.99971,176.15493 L190.99971,151.134683 C191.016276,148.481393 188.913699,146.314592 186.298248,146.289613 Z" id="Path" fill="#E88024"></path>
            <g id="Group" opacity="0.6" transform="translate(250.000000, 66.000000)" fill="#FFFFFF">
                <ellipse id="Oval" cx="8.5125" cy="8.6771698" rx="8.1375" ry="8.48566038"></ellipse>
            </g>
            <ellipse id="Oval" stroke="#E88024" stroke-width="2.422875" cx="258" cy="74.5" rx="8" ry="8.5"></ellipse>
            <g id="Group" opacity="0.6" transform="translate(28.000000, 106.000000)" fill="#FFFFFF">
                <ellipse id="Oval" cx="9.0375" cy="9.0764151" rx="8.1375" ry="8.48566038"></ellipse>
            </g>
            <ellipse id="Oval" stroke="#E88024" stroke-width="2.422875" cx="37" cy="115.5" rx="8" ry="8.5"></ellipse>
            <path d="M21.5820312,23 L21.5820312,13.046875 L24.9453125,13.046875 C26.1165423,13.046875 27.0302702,13.2747373 27.6865234,13.7304688 C28.3427767,14.1862002 28.6708984,14.8675085 28.6708984,15.7744141 C28.6708984,16.2347028 28.5489921,16.6459943 28.3051758,17.0083008 C28.0613595,17.3706073 27.7070336,17.6429027 27.2421875,17.8251953 C27.8391957,17.9528001 28.2869451,18.2262349 28.5854492,18.6455078 C28.8839533,19.0647807 29.0332031,19.5501275 29.0332031,20.1015625 C29.0332031,21.0540412 28.7187531,21.7752254 28.0898438,22.2651367 C27.4609344,22.755048 26.5699927,23 25.4169922,23 L21.5820312,23 Z M23.578125,18.5976562 L23.578125,21.46875 L25.4169922,21.46875 C25.9456407,21.46875 26.3489569,21.3536795 26.6269531,21.1235352 C26.9049493,20.8933908 27.0439453,20.5527366 27.0439453,20.1015625 C27.0439453,19.6139299 26.9254569,19.241375 26.6884766,18.9838867 C26.4514962,18.7263985 26.077802,18.5976562 25.5673828,18.5976562 L23.578125,18.5976562 Z M23.578125,17.2167969 L25.0136719,17.2167969 C25.5468777,17.2167969 25.9570298,17.107423 26.2441406,16.8886719 C26.5312514,16.6699208 26.6748047,16.3509136 26.6748047,15.9316406 C26.6748047,15.4713519 26.5301121,15.131837 26.2407227,14.9130859 C25.9513332,14.6943348 25.5195341,14.5849609 24.9453125,14.5849609 L23.578125,14.5849609 L23.578125,17.2167969 Z M30.5029297,23 L30.5029297,15.6035156 L33.5927734,15.6035156 C34.5771534,15.6035156 35.34391,15.776691 35.8930664,16.1230469 C36.4422228,16.4694028 36.7167969,16.9843716 36.7167969,17.6679688 C36.7167969,18.0143246 36.6017264,18.3219388 36.371582,18.5908203 C36.1414377,18.8597019 35.8144552,19.0647779 35.390625,19.2060547 C35.9511747,19.3154302 36.3761379,19.5216456 36.6655273,19.824707 C36.9549168,20.1277684 37.0996094,20.4820943 37.0996094,20.8876953 C37.0996094,21.5849644 36.838707,22.1113263 36.3168945,22.4667969 C35.795082,22.8222674 35.0465544,23 34.0712891,23 L30.5029297,23 Z M32.4990234,19.9169922 L32.4990234,21.4824219 L34.0712891,21.4824219 C34.4222023,21.4824219 34.6819653,21.4174811 34.8505859,21.2875977 C35.0192066,21.1577142 35.1035156,20.9651705 35.1035156,20.7099609 C35.1035156,20.4547513 35.0226245,20.2587897 34.8608398,20.1220703 C34.6990552,19.9853509 34.4358742,19.9169922 34.0712891,19.9169922 L32.4990234,19.9169922 Z M32.4990234,18.6181641 L33.6474609,18.6181641 C34.0166034,18.6181641 34.2888989,18.5589199 34.4643555,18.4404297 C34.6398121,18.3219395 34.7275391,18.1442069 34.7275391,17.9072266 C34.7275391,17.638345 34.6341155,17.4412441 34.4472656,17.315918 C34.2604157,17.1905918 33.9755879,17.1279297 33.5927734,17.1279297 L32.4990234,17.1279297 L32.4990234,18.6181641 Z M41.5771484,23.1435547 C40.5107369,23.1435547 39.6585318,22.8017612 39.0205078,22.1181641 C38.3824838,21.4345669 38.0634766,20.5664115 38.0634766,19.5136719 L38.0634766,19.2402344 C38.0634766,18.1419216 38.3653941,17.2373082 38.9692383,16.5263672 C39.5730824,15.8154261 40.3831329,15.4622396 41.3994141,15.4667969 C42.3974659,15.4667969 43.1721978,15.7675751 43.7236328,16.3691406 C44.2750679,16.9707061 44.5507812,17.7841746 44.5507812,18.8095703 L44.5507812,19.8964844 L40.1347656,19.8964844 L40.1210938,19.9375 C40.1575523,20.4251326 40.3204738,20.8261703 40.6098633,21.140625 C40.8992527,21.4550797 41.2923152,21.6123047 41.7890625,21.6123047 C42.231122,21.6123047 42.5979803,21.5678715 42.8896484,21.4790039 C43.1813166,21.3901363 43.5003238,21.250001 43.8466797,21.0585938 L44.3867188,22.2890625 C44.085936,22.5351575 43.6917342,22.7390942 43.2041016,22.9008789 C42.7164689,23.0626636 42.1741566,23.1435547 41.5771484,23.1435547 Z M41.3994141,17.0048828 C41.0302716,17.0048828 40.7386078,17.1461574 40.5244141,17.4287109 C40.3102203,17.7112644 40.1780601,18.08268 40.1279297,18.5429688 L40.1484375,18.5771484 L42.5957031,18.5771484 L42.5957031,18.3994141 C42.5957031,17.9755838 42.496583,17.6372083 42.2983398,17.3842773 C42.1000967,17.1313464 41.8004577,17.0048828 41.3994141,17.0048828 Z M52.3847656,19.5068359 C52.3847656,20.6005914 52.1318385,21.4801399 51.6259766,22.1455078 C51.1201147,22.8108757 50.4137415,23.1435547 49.5068359,23.1435547 C49.1194642,23.1435547 48.7753921,23.0717781 48.4746094,22.9282227 C48.1738266,22.7846673 47.9163422,22.5738946 47.7021484,22.2958984 L47.7021484,25.84375 L45.7128906,25.84375 L45.7128906,15.6035156 L47.5107422,15.6035156 L47.6269531,16.4785156 C47.8457042,16.1549463 48.1088852,15.9054371 48.4165039,15.7299805 C48.7241226,15.5545239 49.0830058,15.4667969 49.4931641,15.4667969 C50.4091843,15.4667969 51.1201147,15.8245407 51.6259766,16.5400391 C52.1318385,17.2555374 52.3847656,18.1966087 52.3847656,19.3632812 L52.3847656,19.5068359 Z M50.3886719,19.3632812 C50.3886719,18.6660121 50.2724621,18.1009136 50.0400391,17.6679688 C49.807616,17.2350239 49.4521508,17.0185547 48.9736328,17.0185547 C48.6728501,17.0185547 48.416505,17.0800775 48.2045898,17.203125 C47.9926747,17.3261725 47.8251959,17.5016265 47.7021484,17.7294922 L47.7021484,20.9697266 C47.8251959,21.179363 47.9926747,21.3388666 48.2045898,21.4482422 C48.416505,21.5576177 48.6774073,21.6123047 48.9873047,21.6123047 C49.47038,21.6123047 49.8247059,21.423179 50.050293,21.0449219 C50.27588,20.6666648 50.3886719,20.1539746 50.3886719,19.5068359 L50.3886719,19.3632812 Z M56.3974609,17.9550781 L56.4384766,17.9550781 L57.5732422,15.6035156 L59.8291016,15.6035156 L57.6005859,19.2607422 L59.9042969,23 L57.6552734,23 L56.4453125,20.5458984 L55.2353516,23 L52.9794922,23 L55.2832031,19.2607422 L53.0478516,15.6035156 L55.2900391,15.6035156 L56.3974609,17.9550781 Z" id="Вверх" fill="#000000" fill-rule="nonzero"></path>
            <path d="M248.238281,126.46875 L249.369141,126.46875 L247.845703,134.097656 L251.613281,134.097656 L253.136719,126.46875 L254.267578,126.46875 L252.75,134.068359 L253.582031,134.068359 L252.867188,137.056641 L251.865234,137.056641 L252.275391,135 L246.533203,135 L248.238281,126.46875 Z M257.15625,135.123047 C256.359371,135.123047 255.756838,134.827151 255.348633,134.235352 C254.940428,133.643552 254.810546,132.882817 254.958984,131.953125 L255,131.695312 C255.148438,130.757808 255.518552,129.99805 256.110352,129.416016 C256.702151,128.833981 257.341793,128.542969 258.029297,128.542969 C258.806645,128.542969 259.36328,128.802732 259.699219,129.322266 C260.035158,129.841799 260.136719,130.527339 260.003906,131.378906 L259.886719,132.099609 L256.066406,132.099609 C255.980468,132.74805 256.040038,133.26367 256.245117,133.646484 C256.450196,134.029299 256.800779,134.220703 257.296875,134.220703 C257.640627,134.220703 257.962889,134.163087 258.263672,134.047852 C258.564455,133.932617 258.826171,133.781251 259.048828,133.59375 L259.371094,134.34375 C259.132811,134.566407 258.828127,134.751952 258.457031,134.900391 C258.085936,135.048829 257.652346,135.123047 257.15625,135.123047 Z M257.888672,129.451172 C257.560545,129.451172 257.243166,129.615233 256.936523,129.943359 C256.629881,130.271486 256.410157,130.677732 256.277344,131.162109 L256.294922,131.197266 L258.902344,131.197266 L258.925781,131.044922 C259,130.572263 258.955079,130.188478 258.791016,129.893555 C258.626952,129.598631 258.326174,129.451172 257.888672,129.451172 Z M266.759766,128.660156 L265.494141,135 L264.357422,135 L265.441406,129.574219 L263.513672,129.574219 L263.15625,131.367188 C262.890624,132.695319 262.550783,133.63281 262.136719,134.179688 C261.722654,134.726565 261.12891,135 260.355469,135 L260.039062,135 L260.261719,134.015625 L260.478516,134.009766 C260.837892,134.009766 261.138671,133.803713 261.380859,133.391602 C261.623048,132.97949 261.83789,132.304692 262.025391,131.367188 L262.564453,128.660156 L266.759766,128.660156 Z M269.179688,130.839844 L270.615234,130.839844 C271.267581,130.839844 271.760741,131.033201 272.094727,131.419922 C272.428713,131.806643 272.53711,132.298825 272.419922,132.896484 C272.287109,133.544925 271.991213,134.057615 271.532227,134.43457 C271.07324,134.811525 270.490238,135 269.783203,135 L267.216797,135 L268.482422,128.660156 L269.619141,128.660156 L269.179688,130.839844 Z M269.003906,131.742188 L268.535156,134.097656 L269.964844,134.097656 C270.308595,134.097656 270.595702,133.984376 270.826172,133.757812 C271.056642,133.531249 271.205078,133.257814 271.271484,132.9375 C271.337891,132.601561 271.307618,132.318361 271.180664,132.087891 C271.05371,131.857421 270.804689,131.742188 270.433594,131.742188 L269.003906,131.742188 Z" id="Цель" fill="#6D6E71" fill-rule="nonzero"></path>
            <path d="M27.9414062,151 L26.5947266,151 L26.5947266,146.604492 L21.7617188,146.604492 L21.7617188,151 L20.4150391,151 L20.4150391,141.046875 L21.7617188,141.046875 L21.7617188,145.544922 L26.5947266,145.544922 L26.5947266,141.046875 L27.9414062,141.046875 L27.9414062,151 Z M34.6953125,151 C34.6497394,150.776692 34.6144207,150.579591 34.5893555,150.408691 C34.5642902,150.237792 34.5494792,150.065756 34.5449219,149.892578 C34.2942696,150.248049 33.9672872,150.545409 33.5639648,150.784668 C33.1606425,151.023927 32.7265648,151.143555 32.2617188,151.143555 C31.4915326,151.143555 30.9047872,150.946454 30.5014648,150.552246 C30.0981425,150.158038 29.8964844,149.614587 29.8964844,148.921875 C29.8964844,148.215491 30.1824516,147.662925 30.7543945,147.26416 C31.3263375,146.865395 32.1022086,146.666016 33.0820312,146.666016 L34.5449219,146.666016 L34.5449219,145.93457 C34.5449219,145.501625 34.4127617,145.158693 34.1484375,144.905762 C33.8841133,144.652831 33.5104191,144.526367 33.0273438,144.526367 C32.5943989,144.526367 32.2423516,144.63688 31.9711914,144.85791 C31.7000312,145.07894 31.5644531,145.344399 31.5644531,145.654297 L30.2792969,145.654297 L30.265625,145.613281 C30.2382811,145.075518 30.4923476,144.583336 31.027832,144.136719 C31.5633165,143.690102 32.2548786,143.466797 33.1025391,143.466797 C33.9410849,143.466797 34.6155573,143.679848 35.1259766,144.105957 C35.6363958,144.532066 35.8916016,145.146155 35.8916016,145.948242 L35.8916016,149.509766 C35.8916016,149.77409 35.9052733,150.029296 35.9326172,150.275391 C35.9599611,150.521486 36.0100908,150.76302 36.0830078,151 L34.6953125,151 Z M32.4599609,150.015625 C32.9475936,150.015625 33.3873678,149.890301 33.7792969,149.639648 C34.1712259,149.388996 34.4264317,149.10189 34.5449219,148.77832 L34.5449219,147.575195 L33.0341797,147.575195 C32.4918593,147.575195 32.0577816,147.711913 31.7319336,147.985352 C31.4060856,148.25879 31.2431641,148.580076 31.2431641,148.949219 C31.2431641,149.277345 31.3457021,149.537108 31.5507812,149.728516 C31.7558604,149.919923 32.0589173,150.015625 32.4599609,150.015625 Z M43.6230469,151 L42.2763672,151 L42.2763672,148.354492 C42.0166003,148.422852 41.7500014,148.474121 41.4765625,148.508301 C41.2031236,148.542481 40.9114599,148.55957 40.6015625,148.55957 C39.7083289,148.55957 39.0076523,148.324872 38.4995117,147.855469 C37.9913712,147.386065 37.7373047,146.691085 37.7373047,145.770508 L37.7373047,143.59668 L39.0839844,143.59668 L39.0839844,145.770508 C39.0839844,146.362959 39.2115873,146.798176 39.4667969,147.076172 C39.7220065,147.354168 40.1002579,147.493164 40.6015625,147.493164 C40.9023453,147.493164 41.1894518,147.476074 41.4628906,147.441895 C41.7363295,147.407715 42.0074856,147.356446 42.2763672,147.288086 L42.2763672,143.603516 L43.6230469,143.603516 L43.6230469,151 Z M50.1240234,151 C50.0784503,150.776692 50.0431316,150.579591 50.0180664,150.408691 C49.9930012,150.237792 49.9781901,150.065756 49.9736328,149.892578 C49.7229805,150.248049 49.3959981,150.545409 48.9926758,150.784668 C48.5893535,151.023927 48.1552758,151.143555 47.6904297,151.143555 C46.9202435,151.143555 46.3334981,150.946454 45.9301758,150.552246 C45.5268535,150.158038 45.3251953,149.614587 45.3251953,148.921875 C45.3251953,148.215491 45.6111625,147.662925 46.1831055,147.26416 C46.7550484,146.865395 47.5309196,146.666016 48.5107422,146.666016 L49.9736328,146.666016 L49.9736328,145.93457 C49.9736328,145.501625 49.8414727,145.158693 49.5771484,144.905762 C49.3128242,144.652831 48.93913,144.526367 48.4560547,144.526367 C48.0231098,144.526367 47.6710626,144.63688 47.3999023,144.85791 C47.1287421,145.07894 46.9931641,145.344399 46.9931641,145.654297 L45.7080078,145.654297 L45.6943359,145.613281 C45.6669921,145.075518 45.9210585,144.583336 46.456543,144.136719 C46.9920274,143.690102 47.6835895,143.466797 48.53125,143.466797 C49.3697959,143.466797 50.0442683,143.679848 50.5546875,144.105957 C51.0651067,144.532066 51.3203125,145.146155 51.3203125,145.948242 L51.3203125,149.509766 C51.3203125,149.77409 51.3339842,150.029296 51.3613281,150.275391 C51.388672,150.521486 51.4388017,150.76302 51.5117188,151 L50.1240234,151 Z M47.8886719,150.015625 C48.3763045,150.015625 48.8160788,149.890301 49.2080078,149.639648 C49.5999369,149.388996 49.8551426,149.10189 49.9736328,148.77832 L49.9736328,147.575195 L48.4628906,147.575195 C47.9205702,147.575195 47.4864925,147.711913 47.1606445,147.985352 C46.8347965,148.25879 46.671875,148.580076 46.671875,148.949219 C46.671875,149.277345 46.774413,149.537108 46.9794922,149.728516 C47.1845713,149.919923 47.4876282,150.015625 47.8886719,150.015625 Z M59.2705078,143.603516 L59.2705078,151 L57.9238281,151 L57.9238281,144.669922 L55.421875,144.669922 L55.421875,146.761719 C55.421875,148.220059 55.228192,149.291012 54.8408203,149.974609 C54.4534486,150.658207 53.7926479,151 52.8583984,151 L52.4755859,151 L52.5029297,149.851562 L52.7832031,149.844727 C53.2617211,149.844727 53.5955394,149.611168 53.784668,149.144043 C53.9737965,148.676918 54.0683594,147.882818 54.0683594,146.761719 L54.0683594,143.603516 L59.2705078,143.603516 Z M60.7060547,147.233398 C60.7060547,146.139643 61.0022757,145.238448 61.5947266,144.529785 C62.1871774,143.821123 62.9915314,143.466797 64.0078125,143.466797 C65.0332083,143.466797 65.8432587,143.819983 66.4379883,144.526367 C67.0327178,145.232751 67.3300781,146.135086 67.3300781,147.233398 L67.3300781,147.383789 C67.3300781,148.486659 67.0338571,149.388994 66.4414062,150.09082 C65.8489554,150.792647 65.0423228,151.143555 64.0214844,151.143555 C63.0006459,151.143555 62.1928741,150.791507 61.5981445,150.087402 C61.003415,149.383297 60.7060547,148.482102 60.7060547,147.383789 L60.7060547,147.233398 Z M62.0527344,147.383789 C62.0527344,148.167647 62.2179345,148.814776 62.5483398,149.325195 C62.8787451,149.835615 63.3697884,150.09082 64.0214844,150.09082 C64.6640657,150.09082 65.151691,149.835615 65.484375,149.325195 C65.817059,148.814776 65.9833984,148.167647 65.9833984,147.383789 L65.9833984,147.233398 C65.9833984,146.458655 65.8159196,145.813805 65.480957,145.298828 C65.1459944,144.783852 64.6549512,144.526367 64.0078125,144.526367 C63.3652312,144.526367 62.8787451,144.783852 62.5483398,145.298828 C62.2179345,145.813805 62.0527344,146.458655 62.0527344,147.233398 L62.0527344,147.383789 Z" id="Начало" fill="#2A3052" fill-rule="nonzero"></path>
            <path d="M241.092773,96.0087891 L239.930664,96.0087891 L239.930664,100.5 L238.583984,100.5 L238.583984,90.546875 L239.930664,90.546875 L239.930664,94.9492188 L240.969727,94.9492188 L244.53125,90.546875 L246.021484,90.546875 L246.041992,90.5810547 L242.179688,95.359375 L246.322266,100.46582 L246.301758,100.5 L244.695312,100.5 L241.092773,96.0087891 Z M247.019531,96.7333984 C247.019531,95.639643 247.315752,94.7384476 247.908203,94.0297852 C248.500654,93.3211228 249.305008,92.9667969 250.321289,92.9667969 C251.346685,92.9667969 252.156735,93.3199834 252.751465,94.0263672 C253.346194,94.7327509 253.643555,95.6350857 253.643555,96.7333984 L253.643555,96.8837891 C253.643555,97.9866592 253.347334,98.8889939 252.754883,99.59082 C252.162432,100.292647 251.355799,100.643555 250.334961,100.643555 C249.314122,100.643555 248.506351,100.291507 247.911621,99.587402 C247.316892,98.8832973 247.019531,97.9821018 247.019531,96.8837891 L247.019531,96.7333984 Z M248.366211,96.8837891 C248.366211,97.6676471 248.531411,98.3147761 248.861816,98.8251953 C249.192222,99.335615 249.683265,99.59082 250.334961,99.59082 C250.977542,99.59082 251.465168,99.335615 251.797852,98.8251953 C252.130536,98.3147761 252.296875,97.6676471 252.296875,96.8837891 L252.296875,96.7333984 C252.296875,95.958655 252.129396,95.3138047 251.794434,94.7988281 C251.459471,94.2838516 250.968428,94.0263672 250.321289,94.0263672 C249.678708,94.0263672 249.192222,94.2838516 248.861816,94.7988281 C248.531411,95.3138047 248.366211,95.958655 248.366211,96.7333984 L248.366211,96.8837891 Z M261.279297,100.5 L259.932617,100.5 L259.932617,97.3554688 L256.637695,97.3554688 L256.637695,100.5 L255.291016,100.5 L255.291016,93.1035156 L256.637695,93.1035156 L256.637695,96.3027344 L259.932617,96.3027344 L259.932617,93.1035156 L261.279297,93.1035156 L261.279297,100.5 Z M266.317383,100.643555 C265.28743,100.643555 264.468265,100.300622 263.859863,99.614746 C263.251462,98.9288703 262.947266,98.039068 262.947266,96.9453125 L262.947266,96.6445312 C262.947266,95.5917916 263.260576,94.715661 263.887207,94.0161133 C264.513838,93.3165655 265.25553,92.9667969 266.112305,92.9667969 C267.110357,92.9667969 267.864581,93.2675751 268.375,93.8691406 C268.885419,94.4707061 269.140625,95.2727814 269.140625,96.2753906 L269.140625,97.1162109 L264.341797,97.1162109 L264.321289,97.1503906 C264.334961,97.8613317 264.514972,98.4457985 264.861328,98.9038086 C265.207684,99.361819 265.693031,99.59082 266.317383,99.59082 C266.773114,99.59082 267.173013,99.52588 267.51709,99.395996 C267.861167,99.266113 268.158527,99.087241 268.40918,98.859375 L268.935547,99.734375 C268.671223,99.994142 268.322593,100.210611 267.889648,100.383789 C267.456704,100.556967 266.93262,100.643555 266.317383,100.643555 Z M266.112305,94.0263672 C265.661131,94.0263672 265.276043,94.2166322 264.957031,94.597168 C264.638019,94.9777037 264.442058,95.4550753 264.369141,96.0292969 L264.382812,96.0634766 L267.793945,96.0634766 L267.793945,95.8857422 C267.793945,95.3570937 267.652671,94.9150408 267.370117,94.5595703 C267.087564,94.2040998 266.668297,94.0263672 266.112305,94.0263672 Z M270.651367,93.1035156 L271.998047,93.1035156 L271.998047,99.447266 L275.299805,99.447266 L275.299805,93.1035156 L276.646484,93.1035156 L276.646484,99.447266 L277.548828,99.447266 L277.548828,102.919922 L276.202148,102.919922 L276.202148,100.5 L270.651367,100.5 L270.651367,93.1035156 Z" id="Конец" fill="#2A3052" fill-rule="nonzero"></path>
            <path d="M106.013672,172 L106.013672,159.203125 L110.337891,159.203125 C111.843758,159.203125 113.01855,159.496091 113.862305,160.082031 C114.706059,160.667972 115.12793,161.543939 115.12793,162.709961 C115.12793,163.301761 114.971193,163.830564 114.657715,164.296387 C114.344237,164.762209 113.888675,165.112304 113.291016,165.34668 C114.058598,165.510743 114.634275,165.862302 115.018066,166.401367 C115.401857,166.940432 115.59375,167.56445 115.59375,168.273438 C115.59375,169.498053 115.189457,170.42529 114.380859,171.055176 C113.572262,171.685062 112.426765,172 110.944336,172 L106.013672,172 Z M108.580078,166.339844 L108.580078,170.03125 L110.944336,170.03125 C111.624027,170.03125 112.142576,169.883302 112.5,169.587402 C112.857424,169.291502 113.036133,168.853519 113.036133,168.273438 C113.036133,167.646481 112.883791,167.167482 112.579102,166.836426 C112.274413,166.505369 111.793949,166.339844 111.137695,166.339844 L108.580078,166.339844 Z M108.580078,164.564453 L110.425781,164.564453 C111.111332,164.564453 111.63867,164.42383 112.007812,164.142578 C112.376955,163.861327 112.561523,163.451175 112.561523,162.912109 C112.561523,162.32031 112.37549,161.88379 112.003418,161.602539 C111.631346,161.321288 111.076176,161.180664 110.337891,161.180664 L108.580078,161.180664 L108.580078,164.564453 Z M120.251953,165.566406 L122.036133,165.566406 C123.313483,165.566406 124.318356,165.860837 125.050781,166.449707 C125.783207,167.038577 126.149414,167.810542 126.149414,168.765625 C126.149414,169.732427 125.783207,170.513181 125.050781,171.10791 C124.318356,171.70264 123.313483,172 122.036133,172 L117.676758,172 L117.676758,162.490234 L120.251953,162.490234 L120.251953,165.566406 Z M129.612305,172 L127.045898,172 L127.045898,162.490234 L129.612305,162.490234 L129.612305,172 Z M120.251953,167.535156 L120.251953,170.040039 L122.036133,170.040039 C122.55762,170.040039 122.947264,169.922853 123.205078,169.688477 C123.462892,169.4541 123.591797,169.152346 123.591797,168.783203 C123.591797,168.425779 123.462892,168.128419 123.205078,167.891113 C122.947264,167.653807 122.55762,167.535156 122.036133,167.535156 L120.251953,167.535156 Z M137.99707,162.490234 L140.554688,162.490234 L140.554688,172 L137.99707,172 L137.99707,166.199219 L137.944336,166.19043 L134.841797,172 L132.275391,172 L132.275391,162.490234 L134.841797,162.490234 L134.841797,168.273438 L134.894531,168.282227 L137.99707,162.490234 Z M148.930664,164.476562 L145.001953,164.476562 L145.001953,172 L142.435547,172 L142.435547,162.490234 L148.930664,162.490234 L148.930664,164.476562 Z M158.572266,167.508789 C158.572266,168.915046 158.247074,170.045894 157.59668,170.901367 C156.946286,171.75684 156.038092,172.18457 154.87207,172.18457 C154.374021,172.18457 153.931643,172.092286 153.544922,171.907715 C153.158201,171.723144 152.82715,171.45215 152.551758,171.094727 L152.551758,175.65625 L149.994141,175.65625 L149.994141,162.490234 L152.305664,162.490234 L152.455078,163.615234 C152.73633,163.199217 153.074705,162.878419 153.470215,162.652832 C153.865725,162.427245 154.327146,162.314453 154.854492,162.314453 C156.032232,162.314453 156.946286,162.774409 157.59668,163.694336 C158.247074,164.614262 158.572266,165.824211 158.572266,167.324219 L158.572266,167.508789 Z M156.005859,167.324219 C156.005859,166.42773 155.856447,165.701175 155.557617,165.144531 C155.258788,164.587888 154.801761,164.30957 154.186523,164.30957 C153.799803,164.30957 153.470216,164.388671 153.197754,164.546875 C152.925292,164.705079 152.709962,164.930663 152.551758,165.223633 L152.551758,169.389648 C152.709962,169.659181 152.925292,169.864257 153.197754,170.004883 C153.470216,170.145509 153.805662,170.21582 154.204102,170.21582 C154.825198,170.21582 155.28076,169.972659 155.570801,169.486328 C155.860841,168.999998 156.005859,168.340824 156.005859,167.508789 L156.005859,167.324219 Z M163.054688,165.566406 L164.838867,165.566406 C166.116217,165.566406 167.12109,165.860837 167.853516,166.449707 C168.585941,167.038577 168.952148,167.810542 168.952148,168.765625 C168.952148,169.732427 168.585941,170.513181 167.853516,171.10791 C167.12109,171.70264 166.116217,172 164.838867,172 L160.479492,172 L160.479492,162.490234 L163.054688,162.490234 L163.054688,165.566406 Z M172.415039,172 L169.848633,172 L169.848633,162.490234 L172.415039,162.490234 L172.415039,172 Z M163.054688,167.535156 L163.054688,170.040039 L164.838867,170.040039 C165.360354,170.040039 165.749999,169.922853 166.007812,169.688477 C166.265626,169.4541 166.394531,169.152346 166.394531,168.783203 C166.394531,168.425779 166.265626,168.128419 166.007812,167.891113 C165.749999,167.653807 165.360354,167.535156 164.838867,167.535156 L163.054688,167.535156 Z M177.644531,162.490234 L177.644531,170.03125 L180.228516,170.03125 L180.228516,162.490234 L182.803711,162.490234 L182.803711,170.03125 L185.387695,170.03125 L185.387695,162.490234 L187.954102,162.490234 L187.954102,172 L175.078125,172 L175.078125,162.490234 L177.644531,162.490234 Z" id="Выигрыш" fill="#FFFFFF" fill-rule="nonzero"></path>
        </g>
    </g>
</svg>