<svg width="999" height="420" xmlns="http://www.w3.org/2000/svg"><g fill="none" fill-rule="evenodd"><path d="M.5.5h998v419H.5V.5z" stroke="#95989A" fill="#FFF" fill-rule="nonzero"/><text font-family="Helvetica" font-size="12" fill="#000" transform="translate(401 366)"><tspan x="35" y="11">Number of active clients</tspan></text><path d="M402 367h23a1 1 0 011 1v12h-25v-12a1 1 0 011-1z" fill="#E98024"/><path d="M92 310h867v2H92v-2zm0-44h867v2H92v-2zm0-44h867v2H92v-2zm0-44h867v2H92v-2zm0-44h867v2H92v-2zm0-44h867v2H92v-2zm0-44h867v2H92v-2z" fill="#DEDEDE" fill-rule="nonzero"/><path d="M216 309h23a1 1 0 011 1h-25a1 1 0 011-1zM253 308h23a1 1 0 011 1v1h-25v-1a1 1 0 011-1zM290 308h23a1 1 0 011 1v1h-25v-1a1 1 0 011-1zM327 308h23a1 1 0 011 1v1h-25v-1a1 1 0 011-1zM364 306h23a1 1 0 011 1v3h-25v-3a1 1 0 011-1zM401 307h23a1 1 0 011 1v2h-25v-2a1 1 0 011-1zM438 307h23a1 1 0 011 1v2h-25v-2a1 1 0 011-1zM475 306h23a1 1 0 011 1v3h-25v-3a1 1 0 011-1zM512 306h23a1 1 0 011 1v3h-25v-3a1 1 0 011-1zM549 305h23a1 1 0 011 1v4h-25v-4a1 1 0 011-1zM586 304h23a1 1 0 011 1v5h-25v-5a1 1 0 011-1zM623 298h23a1 1 0 011 1v11h-25v-11a1 1 0 011-1zM660 296h23a1 1 0 011 1v13h-25v-13a1 1 0 011-1zM697 289h23a1 1 0 011 1v20h-25v-20a1 1 0 011-1zM734 289h23a1 1 0 011 1v20h-25v-20a1 1 0 011-1zM771 286h23a1 1 0 011 1v23h-25v-23a1 1 0 011-1zM808 284h23a1 1 0 011 1v25h-25v-25a1 1 0 011-1zM845 260h23a1 1 0 011 1v49h-25v-49a1 1 0 011-1zM882 187h23a1 1 0 011 1v122h-25V188a1 1 0 011-1z" fill="#E98024"/><path d="M919 78h23a1 1 0 011 1v231h-25V79a1 1 0 011-1z" fill="#F4BF91"/><text transform="rotate(-90 862 47.5)" font-family="Helvetica" font-size="12" fill="#FFF"><tspan x="690" y="120">Projected</tspan></text><g fill="#000" font-family="Helvetica" font-size="12"><text transform="translate(103 320)"><tspan x="0" y="11">1999</tspan></text><text transform="translate(103 320)"><tspan x="37" y="11">2000</tspan></text><text transform="translate(103 320)"><tspan x="74" y="11">2001</tspan></text><text transform="translate(103 320)"><tspan x="111" y="11">2002</tspan></text><text transform="translate(103 320)"><tspan x="148" y="11">2003</tspan></text><text transform="translate(103 320)"><tspan x="185" y="11">2004</tspan></text><text transform="translate(103 320)"><tspan x="222" y="11">2005</tspan></text><text transform="translate(103 320)"><tspan x="259" y="11">2006</tspan></text><text transform="translate(103 320)"><tspan x="296" y="11">2007</tspan></text><text transform="translate(103 320)"><tspan x="333" y="11">2008</tspan></text><text transform="translate(103 320)"><tspan x="370" y="11">2009</tspan></text><text transform="translate(103 320)"><tspan x="407" y="11">2010</tspan></text><text transform="translate(103 320)"><tspan x="444" y="11">2011</tspan></text><text transform="translate(103 320)"><tspan x="480" y="11">2012</tspan></text><text transform="translate(103 320)"><tspan x="517" y="11">2013</tspan></text><text transform="translate(103 320)"><tspan x="554" y="11">2014</tspan></text><text transform="translate(103 320)"><tspan x="591" y="11">2015</tspan></text><text transform="translate(103 320)"><tspan x="628" y="11">2016</tspan></text><text transform="translate(103 320)"><tspan x="665" y="11">2017</tspan></text><text transform="translate(103 320)"><tspan x="702" y="11">2018</tspan></text><text transform="translate(103 320)"><tspan x="739" y="11">2019</tspan></text><text transform="translate(103 320)"><tspan x="776" y="11">2020</tspan></text><text transform="translate(103 320)"><tspan x="813" y="11">2021</tspan></text></g><g fill="#000" font-family="Helvetica" font-size="12"><text fill-rule="nonzero" transform="translate(40 40)"><tspan x=".623" y="11">900,000</tspan></text><text fill-rule="nonzero" transform="translate(40 40)"><tspan x=".623" y="55">750,000</tspan></text><text fill-rule="nonzero" transform="translate(40 40)"><tspan x=".623" y="99">600,000</tspan></text><text fill-rule="nonzero" transform="translate(40 40)"><tspan x=".623" y="143">450,000</tspan></text><text fill-rule="nonzero" transform="translate(40 40)"><tspan x=".623" y="187">300,000</tspan></text><text fill-rule="nonzero" transform="translate(40 40)"><tspan x=".623" y="231">150,000</tspan></text><text transform="translate(40 40)"><tspan x="37.326" y="275">0</tspan></text></g></g></svg>