<svg xmlns="http://www.w3.org/2000/svg" xmlns:xlink="http://www.w3.org/1999/xlink" width="64" height="64" viewBox="0 0 64 64"><defs><circle id="a" cx="32" cy="32" r="32"/></defs><g fill="none" fill-rule="evenodd"><use fill="#F2F2F2" xlink:href="#a"/><circle cx="32" cy="32" r="31" stroke="#2A3052" stroke-width="2"/><path fill="#E98024" d="M45.144 33.143C46.722 33.143 48 39.795 48 48h2.286c0-8.837-2.303-16-5.143-16-1.616 0-3.058 2.153-4 5.52-.943-3.367-2.385-5.52-4-5.52C34.303 32 32 39.163 32 48h2.286c0-8.205 1.28-14.857 2.857-14.857 1.578 0 2.858 6.14 2.858 13.714h2.285c0-7.574 1.28-13.714 2.858-13.714"/><path fill="#2A3052" fill-rule="nonzero" d="M44.898 21.501c-.02-2.026 1.653-2.998 1.728-3.046-.94-1.375-2.404-1.564-2.926-1.585-1.246-.127-2.431.733-3.064.733-.63 0-1.606-.715-2.64-.696-1.357.02-2.61.79-3.309 2.006-1.411 2.448-.361 6.076 1.014 8.061.672.972 1.473 2.064 2.525 2.025 1.013-.04 1.397-.656 2.622-.656 1.224 0 1.569.656 2.64.636 1.091-.02 1.782-.99 2.45-1.966.77-1.127 1.089-2.219 1.107-2.275-.024-.011-2.126-.816-2.147-3.237zm-2.014-5.946c.558-.677.935-1.617.832-2.555-.804.033-1.78.536-2.356 1.212-.518.6-.971 1.556-.85 2.475.898.07 1.815-.456 2.374-1.132z"/><path fill="#2A3052" d="M22.762 26.228v-2.474c0-1.187.806-1.47 1.39-1.47h3.551V17h-4.89c-5.438 0-6.656 3.912-6.656 6.453v2.775H13v6.169h3.191V47.81h6.331V32.397h4.684l.206-2.424.377-3.745h-5.027"/></g></svg>