<?xml version="1.0" encoding="UTF-8"?>
<svg width="301px" height="199px" viewBox="0 0 301 199" version="1.1" xmlns="http://www.w3.org/2000/svg" xmlns:xlink="http://www.w3.org/1999/xlink">
    <!-- Generator: Sketch 52.6 (67491) - http://www.bohemiancoding.com/sketch -->
    <title>ends-between</title>
    <desc>Created with Sketch.</desc>
    <g id="Page-1" stroke="none" stroke-width="1" fill="none" fill-rule="evenodd">
        <g id="ends-between" transform="translate(1.000000, 1.000000)">
            <polygon id="Path" fill="#F1F2F2" points="0 0 299 0 299 197 0 197"></polygon>
            <polygon id="Path" stroke="#C2C2C2" stroke-width="2.00671141" points="0 0 299 0 299 197 0 197"></polygon>
            <path d="M41.6149329,55.8568182 L41.6149329,74.7621212 L76.7701342,74.7621212 L76.7701342,55.8568182 L41.6149329,55.8568182 Z M41.6149329,54.8810606 L76.7701342,54.8810606 L76.7701342,35 L77.7432886,35 L77.7432886,54.8810606 L112.89849,54.8810606 L112.89849,35 L113.871644,35 L113.871644,54.8810606 L149.026846,54.8810606 L149.026846,35 L150,35 L150,54.8810606 L185.155201,54.8810606 L185.155201,35 L186.128356,35 L186.128356,54.8810606 L221.283557,54.8810606 L221.283557,35 L222.256711,35 L222.256711,54.8810606 L257.411913,54.8810606 L257.411913,35 L258.385067,35 L258.385067,54.8810606 L295,54.8810606 L295,55.8568182 L258.385067,55.8568182 L258.385067,74.7621212 L295,74.7621212 L295,75.7378788 L258.385067,75.7378788 L258.385067,94.6431818 L295,94.6431818 L295,95.6189394 L258.385067,95.6189394 L258.385067,114.524242 L295,114.524242 L295,115.5 L258.385067,115.5 L258.385067,134.405303 L295,134.405303 L295,135.381061 L258.385067,135.381061 L258.385067,154.286364 L295,154.286364 L295,155.262121 L258.385067,155.262121 L258.385067,174.167424 L295,174.167424 L295,175.143182 L258.385067,175.143182 L258.385067,196 L257.411913,196 L257.411913,175.143182 L222.256711,175.143182 L222.256711,196 L221.283557,196 L221.283557,175.143182 L186.128356,175.143182 L186.128356,196 L185.155201,196 L185.155201,175.143182 L150,175.143182 L150,196 L149.026846,196 L149.026846,175.143182 L113.871644,175.143182 L113.871644,196 L112.89849,196 L112.89849,175.143182 L77.7432886,175.143182 L77.7432886,196 L76.7701342,196 L76.7701342,175.143182 L41.6149329,175.143182 L41.6149329,196 L40.6417785,196 L40.6417785,175.143182 L5,175.143182 L5,174.167424 L40.6417785,174.167424 L40.6417785,155.262121 L5,155.262121 L5,154.286364 L40.6417785,154.286364 L40.6417785,135.381061 L5,135.381061 L5,134.405303 L40.6417785,134.405303 L40.6417785,115.5 L5,115.5 L5,114.524242 L40.6417785,114.524242 L40.6417785,95.6189394 L5,95.6189394 L5,94.6431818 L40.6417785,94.6431818 L40.6417785,75.7378788 L5,75.7378788 L5,74.7621212 L40.6417785,74.7621212 L40.6417785,55.8568182 L5,55.8568182 L5,54.8810606 L40.6417785,54.8810606 L40.6417785,35 L41.6149329,35 L41.6149329,54.8810606 Z M257.411913,55.8568182 L222.256711,55.8568182 L222.256711,74.7621212 L257.411913,74.7621212 L257.411913,55.8568182 Z M221.283557,55.8568182 L186.128356,55.8568182 L186.128356,74.7621212 L221.283557,74.7621212 L221.283557,55.8568182 Z M185.155201,55.8568182 L150,55.8568182 L150,74.7621212 L185.155201,74.7621212 L185.155201,55.8568182 Z M149.026846,55.8568182 L113.871644,55.8568182 L113.871644,74.7621212 L149.026846,74.7621212 L149.026846,55.8568182 Z M112.89849,55.8568182 L77.7432886,55.8568182 L77.7432886,74.7621212 L112.89849,74.7621212 L112.89849,55.8568182 Z M41.6149329,75.7378788 L41.6149329,94.6431818 L76.7701342,94.6431818 L76.7701342,75.7378788 L41.6149329,75.7378788 Z M257.411913,75.7378788 L222.256711,75.7378788 L222.256711,94.6431818 L257.411913,94.6431818 L257.411913,75.7378788 Z M221.283557,75.7378788 L186.128356,75.7378788 L186.128356,94.6431818 L221.283557,94.6431818 L221.283557,75.7378788 Z M185.155201,75.7378788 L150,75.7378788 L150,94.6431818 L185.155201,94.6431818 L185.155201,75.7378788 Z M149.026846,75.7378788 L113.871644,75.7378788 L113.871644,94.6431818 L149.026846,94.6431818 L149.026846,75.7378788 Z M112.89849,75.7378788 L77.7432886,75.7378788 L77.7432886,94.6431818 L112.89849,94.6431818 L112.89849,75.7378788 Z M41.6149329,95.6189394 L41.6149329,114.524242 L76.7701342,114.524242 L76.7701342,95.6189394 L41.6149329,95.6189394 Z M257.411913,95.6189394 L222.256711,95.6189394 L222.256711,114.524242 L257.411913,114.524242 L257.411913,95.6189394 Z M221.283557,95.6189394 L186.128356,95.6189394 L186.128356,114.524242 L221.283557,114.524242 L221.283557,95.6189394 Z M185.155201,95.6189394 L150,95.6189394 L150,114.524242 L185.155201,114.524242 L185.155201,95.6189394 Z M149.026846,95.6189394 L113.871644,95.6189394 L113.871644,114.524242 L149.026846,114.524242 L149.026846,95.6189394 Z M112.89849,95.6189394 L77.7432886,95.6189394 L77.7432886,114.524242 L112.89849,114.524242 L112.89849,95.6189394 Z M41.6149329,115.5 L41.6149329,134.405303 L76.7701342,134.405303 L76.7701342,115.5 L41.6149329,115.5 Z M257.411913,115.5 L222.256711,115.5 L222.256711,134.405303 L257.411913,134.405303 L257.411913,115.5 Z M221.283557,115.5 L186.128356,115.5 L186.128356,134.405303 L221.283557,134.405303 L221.283557,115.5 Z M185.155201,115.5 L150,115.5 L150,134.405303 L185.155201,134.405303 L185.155201,115.5 Z M149.026846,115.5 L113.871644,115.5 L113.871644,134.405303 L149.026846,134.405303 L149.026846,115.5 Z M112.89849,115.5 L77.7432886,115.5 L77.7432886,134.405303 L112.89849,134.405303 L112.89849,115.5 Z M41.6149329,135.381061 L41.6149329,154.286364 L76.7701342,154.286364 L76.7701342,135.381061 L41.6149329,135.381061 Z M257.411913,135.381061 L222.256711,135.381061 L222.256711,154.286364 L257.411913,154.286364 L257.411913,135.381061 Z M221.283557,135.381061 L186.128356,135.381061 L186.128356,154.286364 L221.283557,154.286364 L221.283557,135.381061 Z M185.155201,135.381061 L150,135.381061 L150,154.286364 L185.155201,154.286364 L185.155201,135.381061 Z M149.026846,135.381061 L113.871644,135.381061 L113.871644,154.286364 L149.026846,154.286364 L149.026846,135.381061 Z M112.89849,135.381061 L77.7432886,135.381061 L77.7432886,154.286364 L112.89849,154.286364 L112.89849,135.381061 Z M41.6149329,155.262121 L41.6149329,174.167424 L76.7701342,174.167424 L76.7701342,155.262121 L41.6149329,155.262121 Z M257.411913,155.262121 L222.256711,155.262121 L222.256711,174.167424 L257.411913,174.167424 L257.411913,155.262121 Z M221.283557,155.262121 L186.128356,155.262121 L186.128356,174.167424 L221.283557,174.167424 L221.283557,155.262121 Z M185.155201,155.262121 L150,155.262121 L150,174.167424 L185.155201,174.167424 L185.155201,155.262121 Z M149.026846,155.262121 L113.871644,155.262121 L113.871644,174.167424 L149.026846,174.167424 L149.026846,155.262121 Z M112.89849,155.262121 L77.7432886,155.262121 L77.7432886,174.167424 L112.89849,174.167424 L112.89849,155.262121 Z" id="Shape" fill="#DFDEDE" fill-rule="nonzero"></path>
            <polygon id="Path" fill="#C2C2C2" points="3 32 293 32 293 34 3 34"></polygon>
            <g id="Group" transform="translate(3.000000, 33.108000)">
                <path d="M254.0075,0.725 L255.2185,0.725 L255.2185,161 L254.0075,161 L254.0075,0.725 Z M0.9,43.0175 L0.9,41.8065 L291.525,41.8065 L291.525,43.0175 L0.9,43.0175 Z M0.9,122.3555 L0.9,121.1445 L291.525,121.1445 L291.525,122.3555 L0.9,122.3555 Z" id="Shape" fill="#2A3052" fill-rule="nonzero"></path>
                <path d="M36.7970655,83.6952864 C35.8955787,84.1354935 34.8079208,83.7615524 34.3677136,82.8600655 C33.9275065,81.9585787 34.3014476,80.8709208 35.2029345,80.4307136 L76.8279345,60.1047136 C77.3844187,59.8329756 78.0410015,59.8634656 78.5699074,60.1856064 L117.071483,83.6357638 L144.936963,56.132173 C145.607349,55.470493 146.672301,55.4310207 147.38983,56.0412577 L183.156601,86.4597987 L218.748511,60.2738379 C219.194564,59.9456644 219.765953,59.8388834 220.30042,59.9838177 L257.08842,69.9598177 C258.056676,70.2223848 258.628749,71.220164 258.366182,72.1884199 C258.103615,73.1566757 257.105836,73.7287495 256.13758,73.4661823 L220.195503,63.7195758 L184.151489,90.2381621 C183.472854,90.7374531 182.539969,90.7045729 181.89817,90.1587423 L146.304262,59.8872156 L118.614037,87.217827 C118.020749,87.8034099 117.105039,87.9100186 116.393093,87.4763936 L77.5289485,63.8054064 L36.7970655,83.6952864 Z" id="Path" fill="#2A3052" fill-rule="nonzero"></path>
                <path d="M184.613,113 L149.55,113 L144.15,104.787 L138.75,113 L103.687,113 C102.422772,113.006047 101.213182,113.516142 100.32639,114.417201 C99.4395975,115.31826 98.9488703,116.535837 98.963,117.8 L98.963,142.588 C98.9463511,145.216609 101.059455,147.363254 103.688,147.388 L184.65,147.388 C185.914402,147.382219 187.124249,146.87224 188.011258,145.971152 C188.898266,145.070064 189.38913,143.852336 189.375,142.588 L189.375,117.8 C189.381113,116.531676 188.882581,115.312986 187.989302,114.412578 C187.096022,113.51217 185.881333,113.003968 184.613,113 Z" id="Path" fill="#E88024"></path>
                <ellipse id="Oval" fill="#FFFFFF" opacity="0.6" cx="256.613" cy="73.1" rx="8.137" ry="8.475"></ellipse>
                <path d="M256.613,82.786 C251.438967,82.786 247.265,78.4386517 247.265,73.1 C247.265,67.7613483 251.438967,63.414 256.613,63.414 C261.787033,63.414 265.961,67.7613483 265.961,73.1 C265.961,78.4386517 261.787033,82.786 256.613,82.786 Z M256.613,80.364 C260.426849,80.364 263.539,77.1225748 263.539,73.1 C263.539,69.0774252 260.426849,65.836 256.613,65.836 C252.799151,65.836 249.687,69.0774252 249.687,73.1 C249.687,77.1225748 252.799151,80.364 256.613,80.364 Z" id="Oval" fill="#E88024" fill-rule="nonzero"></path>
                <ellipse id="Oval" fill="#FFFFFF" opacity="0.6" cx="36" cy="82.063" rx="8.137" ry="8.475"></ellipse>
                <path d="M36,91.749 C30.8259673,91.749 26.652,87.4016517 26.652,82.063 C26.652,76.7243483 30.8259673,72.377 36,72.377 C41.1740327,72.377 45.348,76.7243483 45.348,82.063 C45.348,87.4016517 41.1740327,91.749 36,91.749 Z M36,89.327 C39.8138493,89.327 42.926,86.0855748 42.926,82.063 C42.926,78.0404252 39.8138493,74.799 36,74.799 C32.1861507,74.799 29.074,78.0404252 29.074,82.063 C29.074,86.0855748 32.1861507,89.327 36,89.327 Z" id="Oval" fill="#E88024" fill-rule="nonzero"></path>
            </g>
            <path d="M21.32,17.946 L16.876,17.946 L16.876,22.756 L14.554,22.756 L14.554,11.18 L22.131,11.18 L22.131,12.97 L16.876,12.97 L16.876,16.157 L21.32,16.157 L21.32,17.947 L21.32,17.946 Z M25.876,22.756 L23.554,22.756 L23.554,14.154 L25.876,14.154 L25.876,22.756 Z M25.876,12.094 L23.554,12.094 L23.554,10.354 L25.876,10.354 L25.876,12.094 Z M29.907,14.154 L30.01,15.386 C30.297,14.946 30.65,14.604 31.068,14.36 C31.4956806,14.1141119 31.9817222,13.9880243 32.475,13.995 C33.345,13.995 34.023,14.275 34.511,14.834 C34.998,15.393 35.242,16.277 35.242,17.485 L35.242,22.756 L32.912,22.756 L32.912,17.493 C32.912,16.878 32.805,16.443 32.59,16.185 C32.376,15.928 32.054,15.8 31.624,15.8 C31.28,15.8 30.976,15.864 30.714,15.994 C30.452,16.124 30.236,16.304 30.066,16.531 L30.066,22.756 L27.744,22.756 L27.744,14.154 L29.907,14.154 Z M39.417,22.756 L37.095,22.756 L37.095,14.154 L39.416,14.154 L39.416,22.756 L39.417,22.756 Z M39.417,12.094 L37.095,12.094 L37.095,10.354 L39.416,10.354 L39.416,12.094 L39.417,12.094 Z M45.976,20.371 C45.976,20.117 45.852,19.898 45.606,19.715 C45.359,19.532 44.902,19.372 44.234,19.235 C43.227,19.033 42.463,18.728 41.941,18.32 C41.418,17.912 41.157,17.358 41.157,16.658 C41.157,15.921 41.47,15.293 42.096,14.774 C42.721,14.254 43.553,13.994 44.592,13.994 C45.679,13.994 46.549,14.254 47.204,14.774 C47.859,15.294 48.173,15.94 48.146,16.714 L48.13,16.762 L45.888,16.762 C45.888,16.417 45.777,16.136 45.554,15.919 C45.332,15.701 45.011,15.593 44.592,15.593 C44.222,15.593 43.927,15.686 43.71,15.871 C43.5019411,16.0367451 43.3817132,16.2890024 43.384,16.555 C43.384,16.82 43.496,17.035 43.722,17.203 C43.947,17.37 44.404,17.52 45.093,17.653 C46.148,17.864 46.933,18.176 47.45,18.586 C47.967,18.997 48.226,19.563 48.226,20.284 C48.226,21.058 47.894,21.691 47.232,22.184 C46.569,22.677 45.695,22.924 44.608,22.924 C43.463,22.924 42.558,22.634 41.893,22.053 C41.228,21.473 40.911,20.811 40.943,20.069 L40.959,20.021 L43.081,20.021 C43.097,20.483 43.248,20.817 43.535,21.023 C43.821,21.23 44.195,21.333 44.655,21.333 C45.085,21.333 45.412,21.247 45.638,21.075 C45.8598069,20.9103806 45.9862448,20.6470306 45.976,20.371 Z M53.314,21.142 C53.717,21.142 54.038,21.022 54.276,20.781 C54.515,20.54 54.634,20.218 54.634,19.815 L56.749,19.815 L56.765,19.862 C56.786,20.732 56.463,21.459 55.795,22.045 C55.127,22.631 54.3,22.923 53.315,22.923 C52.042,22.923 51.059,22.517 50.365,21.703 C49.67,20.889 49.323,19.849 49.323,18.583 L49.323,18.343 C49.323,17.083 49.669,16.043 50.36,15.223 C51.052,14.404 52.031,13.995 53.298,13.995 C54.348,13.995 55.193,14.297 55.835,14.901 C56.475,15.505 56.786,16.301 56.765,17.286 L56.749,17.334 L54.634,17.334 C54.634,16.889 54.516,16.519 54.28,16.224 C54.044,15.931 53.717,15.784 53.298,15.784 C52.699,15.784 52.274,16.024 52.022,16.504 C51.77,16.983 51.644,17.596 51.644,18.344 L51.644,18.582 C51.644,19.346 51.77,19.963 52.022,20.435 C52.274,20.907 52.705,21.142 53.314,21.142 Z M61.845,22.923 C60.563,22.923 59.561,22.53 58.84,21.743 C58.12,20.956 57.759,19.942 57.759,18.702 L57.759,18.384 C57.759,17.096 58.109,16.041 58.809,15.219 C59.508,14.398 60.469,13.989 61.694,13.995 C62.85,13.995 63.736,14.349 64.354,15.056 C64.971,15.764 65.28,16.716 65.28,17.914 L65.28,19.115 L60.152,19.115 L60.128,19.163 C60.165,19.751 60.344,20.228 60.665,20.593 C60.985,20.96 61.461,21.143 62.092,21.143 C62.612,21.143 63.052,21.089 63.416,20.983 C63.8081808,20.8645243 64.1856082,20.7018111 64.541,20.498 L65.169,21.93 C64.824,22.21 64.358,22.446 63.769,22.637 C63.181,22.828 62.539,22.923 61.845,22.923 Z M61.695,15.783 C61.228,15.783 60.869,15.944 60.617,16.265 C60.365,16.585 60.213,17.011 60.16,17.541 L60.176,17.581 L63.006,17.581 L63.006,17.406 C63.006,16.902 62.903,16.506 62.696,16.217 C62.489,15.928 62.156,15.784 61.694,15.784 L61.695,15.783 Z M83.88,16.149 L83.029,16.126 C82.684,16.126 82.401,16.197 82.179,16.34 C81.9529455,16.4863951 81.7754456,16.6966107 81.669,16.944 L81.669,22.756 L79.356,22.756 L79.356,14.154 L81.51,14.154 L81.614,15.426 C81.815,14.976 82.076,14.624 82.397,14.372 C82.717,14.121 83.087,13.995 83.506,13.995 C83.622,13.995 83.73,14.004 83.828,14.023 C83.926,14.041 84.025,14.063 84.126,14.09 L83.88,16.15 L83.88,16.149 Z M90.16,22.756 C90.0734922,22.5544635 90.0006607,22.3473279 89.942,22.136 C89.8808063,21.9171315 89.8370033,21.6937696 89.811,21.468 C89.5773931,21.8815881 89.2541545,22.2376289 88.865,22.51 C88.472,22.786 88.006,22.923 87.465,22.923 C86.565,22.923 85.87,22.692 85.382,22.228 C84.895,21.764 84.651,21.132 84.651,20.332 C84.651,19.489 84.975,18.835 85.625,18.372 C86.274,17.908 87.221,17.676 88.467,17.676 L89.771,17.676 L89.771,16.992 C89.771,16.579 89.662,16.258 89.445,16.03 C89.228,15.802 88.905,15.688 88.475,15.688 C88.099,15.688 87.809,15.78 87.605,15.963 C87.4,16.145 87.298,16.396 87.298,16.713 L85.064,16.713 L85.048,16.666 C85.011,15.94 85.328,15.313 85.998,14.786 C86.668,14.258 87.545,13.995 88.626,13.995 C89.66,13.995 90.496,14.255 91.135,14.774 C91.773,15.294 92.093,16.038 92.093,17.008 L92.093,20.562 C92.093,20.965 92.123,21.344 92.184,21.699 C92.245,22.054 92.342,22.407 92.474,22.756 L90.161,22.756 L90.16,22.756 Z M88.038,21.206 C88.441,21.206 88.801,21.106 89.119,20.904 C89.437,20.703 89.654,20.469 89.771,20.204 L89.771,18.988 L88.467,18.988 C87.974,18.988 87.602,19.11 87.35,19.354 C87.1028935,19.5865589 86.9655966,19.9127299 86.972,20.252 C86.972,20.544 87.066,20.775 87.255,20.948 C87.443,21.12 87.704,21.206 88.038,21.206 Z" id="Shape" fill="#000000" fill-rule="nonzero"></path>
            <path d="M22.27,59.166 L19.252,59.166 L18.025,67.349 L16.786,67.349 L18.013,59.166 L15.03,59.166 L15.175,58.191 L22.415,58.191 L22.27,59.166 Z M25.649,67.349 C25.6414168,67.159088 25.6370828,66.9690602 25.636,66.779 C25.636,66.635 25.644,66.487 25.661,66.336 C25.370003,66.6671399 25.0217864,66.9432066 24.633,67.151 C24.2533301,67.3645664 23.8256049,67.4781218 23.39,67.481 C22.707,67.481 22.2,67.298 21.871,66.931 C21.542,66.564 21.426,66.066 21.522,65.437 C21.5997215,64.7946702 21.9719276,64.2250875 22.529,63.896 C23.103,63.539 23.848,63.361 24.762,63.361 L26.108,63.361 L26.208,62.688 C26.271,62.273 26.198,61.953 25.991,61.728 C25.784,61.504 25.456,61.392 25.007,61.392 C24.625,61.392 24.29,61.492 24.001,61.694 C23.711,61.895 23.548,62.137 23.51,62.418 L22.327,62.43 L22.321,62.392 C22.371,61.877 22.671,61.419 23.221,61.018 C23.77,60.618 24.437,60.418 25.221,60.418 C25.963,60.418 26.546,60.615 26.969,61.012 C27.393,61.408 27.552,61.971 27.447,62.701 L26.957,65.978 C26.9171449,66.2141335 26.8930914,66.4526634 26.885,66.692 C26.878,66.912 26.892,67.131 26.925,67.349 L25.65,67.349 L25.649,67.349 Z M23.73,66.443 C24.1694538,66.440015 24.5999443,66.3183998 24.976,66.091 C25.378,65.856 25.657,65.591 25.812,65.298 L25.982,64.198 L24.592,64.198 C24.11,64.198 23.694,64.326 23.346,64.581 C22.998,64.837 22.801,65.131 22.756,65.461 C22.705,65.776 22.76,66.019 22.922,66.188 C23.083,66.358 23.352,66.443 23.73,66.443 Z M32.624,61.638 L31.995,61.6 C31.672,61.6 31.387,61.68 31.14,61.842 C30.8795076,62.0168817 30.6637167,62.2504839 30.51,62.524 L29.787,67.349 L28.548,67.349 L29.568,60.543 L30.674,60.543 L30.649,61.506 C30.8682894,61.1850393 31.1507058,60.9121502 31.479,60.704 C31.8634807,60.4670487 32.3191847,60.3732168 32.766,60.439 C32.852,60.454 32.92,60.469 32.97,60.487 L32.624,61.637 L32.624,61.638 Z M33.209,64.072 C33.377,62.935 33.742,62.042 34.304,61.392 C34.865,60.742 35.57,60.417 36.417,60.417 C36.84,60.417 37.203,60.507 37.505,60.687 C37.807,60.868 38.046,61.128 38.222,61.467 L38.512,60.543 L39.499,60.543 L38.474,67.387 C38.335,68.292 37.982,68.971 37.414,69.421 C36.846,69.872 36.077,70.098 35.109,70.098 C34.794,70.098 34.45,70.051 34.077,69.959 C33.743078,69.8818311 33.4213847,69.7590089 33.121,69.594 L33.454,68.632 C33.677,68.758 33.95,68.86 34.275,68.937 C34.5953228,69.0138869 34.9235789,69.0528212 35.253,69.053 C35.832,69.053 36.286,68.914 36.615,68.635 C36.945,68.356 37.151,67.94 37.235,67.387 L37.348,66.613 C37.0972746,66.8885436 36.7922017,67.1091767 36.452,67.261 C36.1034555,67.4107992 35.7273423,67.4857493 35.348,67.481 C34.551,67.481 33.956,67.177 33.561,66.569 C33.167,65.961 33.043,65.173 33.191,64.204 L33.209,64.072 Z M34.429,64.204 C34.32,64.913 34.376,65.468 34.596,65.871 C34.816,66.273 35.222,66.475 35.813,66.475 C36.173,66.475 36.495,66.388 36.775,66.214 C37.0716683,66.0248994 37.324897,65.7750788 37.518,65.481 L37.989,62.367 C37.879962,62.0938362 37.6984403,61.8556105 37.464,61.678 C37.236,61.508 36.941,61.424 36.581,61.424 C36.014,61.424 35.546,61.674 35.175,62.172 C34.804,62.672 34.561,63.304 34.448,64.072 L34.429,64.204 Z M43.059,67.481 C42.119,67.481 41.414,67.164 40.943,66.531 C40.471,65.898 40.31,65.081 40.461,64.078 L40.505,63.801 C40.652,62.787 41.052,61.969 41.704,61.348 C42.356,60.728 43.094,60.418 43.921,60.418 C44.797,60.418 45.428,60.705 45.814,61.279 C46.2,61.854 46.324,62.602 46.185,63.525 L46.091,64.179 L41.688,64.179 C41.592,64.9 41.663,65.469 41.902,65.886 C42.141,66.304 42.575,66.512 43.204,66.512 C43.606,66.512 43.981,66.452 44.327,66.33 C44.673,66.208 44.971,66.045 45.223,65.84 L45.588,66.644 C45.2741932,66.9003242 44.9191493,67.1015157 44.538,67.239 C44.114,67.4 43.621,67.481 43.059,67.481 Z M43.776,61.392 C43.361,61.392 42.985,61.56 42.647,61.895 C42.31,62.231 42.067,62.655 41.921,63.166 L41.933,63.204 L44.996,63.204 L45.009,63.104 C45.085,62.596 45.026,62.184 44.833,61.867 C44.64,61.551 44.288,61.392 43.776,61.392 Z M49.991,58.902 L49.745,60.543 L51.035,60.543 L50.896,61.461 L49.607,61.461 L48.991,65.594 C48.941,65.925 48.971,66.153 49.081,66.276 C49.193,66.4 49.36,66.462 49.581,66.462 C49.7417242,66.4553203 49.9006669,66.425687 50.053,66.374 L50.098,67.224 C49.993,67.299 49.848,67.36 49.66,67.409 C49.482444,67.4559232 49.2996495,67.4801166 49.116,67.481 C48.63,67.481 48.256,67.328 47.994,67.021 C47.732,66.716 47.651,66.24 47.751,65.594 L48.368,61.461 L47.286,61.461 L47.424,60.543 L48.506,60.543 L48.752,58.901 L49.991,58.901 L49.991,58.902 Z M58.727,67.349 C58.7197502,67.1590823 58.7157496,66.9690545 58.715,66.779 C58.715,66.635 58.723,66.487 58.74,66.336 C58.449003,66.6671399 58.1007864,66.9432066 57.712,67.151 C57.3323301,67.3645664 56.9046049,67.4781218 56.469,67.481 C55.786,67.481 55.279,67.298 54.95,66.931 C54.621,66.564 54.505,66.066 54.601,65.437 C54.6787215,64.7946702 55.0509276,64.2250875 55.608,63.896 C56.182,63.539 56.926,63.361 57.841,63.361 L59.187,63.361 L59.287,62.688 C59.35,62.273 59.277,61.953 59.07,61.728 C58.863,61.504 58.535,61.392 58.086,61.392 C57.704,61.392 57.369,61.492 57.079,61.694 C56.79,61.895 56.627,62.137 56.589,62.418 L55.406,62.43 L55.4,62.392 C55.45,61.877 55.75,61.419 56.3,61.018 C56.849,60.618 57.516,60.418 58.3,60.418 C59.042,60.418 59.625,60.615 60.048,61.012 C60.472,61.408 60.631,61.971 60.526,62.701 L60.036,65.978 C59.9958097,66.214111 59.9714222,66.452641 59.963,66.692 C59.957,66.912 59.971,67.131 60.004,67.349 L58.727,67.349 Z M56.809,66.443 C57.2481138,66.4398353 57.6782354,66.3182266 58.054,66.091 C58.457,65.856 58.736,65.591 58.891,65.298 L59.061,64.198 L57.671,64.198 C57.188,64.198 56.773,64.326 56.425,64.581 C56.077,64.837 55.88,65.131 55.834,65.461 C55.784,65.776 55.839,66.019 56.001,66.188 C56.162,66.358 56.431,66.443 56.809,66.443 Z M62.967,67.349 L61.727,67.349 L63.2,57.537 L64.439,57.537 L62.967,67.349 Z M67.86,58.9 L67.615,60.542 L68.905,60.542 L68.766,61.46 L67.476,61.46 L66.86,65.593 C66.81,65.924 66.84,66.152 66.952,66.275 C67.062,66.399 67.229,66.461 67.452,66.461 C67.6127242,66.4543203 67.7716669,66.424687 67.924,66.373 L67.967,67.223 C67.863,67.298 67.717,67.359 67.53,67.408 C67.352444,67.4549232 67.1696495,67.4791166 66.986,67.48 C66.5,67.48 66.126,67.327 65.863,67.02 C65.601,66.715 65.521,66.239 65.621,65.593 L66.238,61.46 L65.156,61.46 L65.294,60.542 L66.376,60.542 L66.621,58.9 L67.861,58.9 L67.86,58.9 Z M69.446,63.882 C69.601,62.838 69.996,61.999 70.631,61.366 C71.266,60.733 72.056,60.416 72.999,60.416 C73.905,60.416 74.592,60.744 75.059,61.401 C75.527,62.057 75.687,62.884 75.54,63.882 L75.515,64.021 C75.356,65.073 74.96,65.913 74.327,66.54 C73.693,67.167 72.903,67.48 71.955,67.48 C71.049,67.48 70.363,67.153 69.895,66.499 C69.428,65.845 69.269,65.019 69.42,64.021 L69.446,63.882 Z M70.659,64.021 C70.546,64.767 70.607,65.369 70.842,65.826 C71.077,66.283 71.496,66.511 72.1,66.511 C72.666,66.511 73.143,66.273 73.53,65.797 C73.919,65.321 74.167,64.729 74.276,64.021 L74.301,63.882 C74.411,63.144 74.346,62.544 74.11,62.083 C73.873,61.622 73.454,61.391 72.855,61.391 C72.285,61.391 71.805,61.631 71.417,62.111 C71.03,62.591 70.785,63.181 70.685,63.882 L70.659,64.021 Z M19.342,163.101 L16.372,163.101 L15.165,171.153 L13.945,171.153 L15.152,163.101 L12.22,163.101 L12.362,162.142 L19.486,162.142 L19.343,163.102 L19.342,163.101 Z M22.666,171.153 C22.6584787,170.966421 22.6541447,170.779727 22.653,170.593 C22.653,170.451 22.662,170.305 22.678,170.157 C22.3914311,170.482528 22.0486387,170.753849 21.666,170.958 C21.2927413,171.168019 20.8722759,171.279845 20.444,171.283 C19.771,171.283 19.274,171.103 18.949,170.742 C18.625,170.381 18.511,169.891 18.606,169.272 C18.701,168.612 19.031,168.106 19.596,167.756 C20.161,167.405 20.894,167.229 21.793,167.229 L23.118,167.229 L23.217,166.567 C23.279,166.159 23.207,165.844 23.003,165.623 C22.799,165.403 22.476,165.293 22.035,165.293 C21.68219,165.285888 21.3360035,165.389394 21.045,165.589 C20.76,165.787 20.599,166.025 20.562,166.301 L19.398,166.313 L19.392,166.276 C19.442,165.769 19.736,165.318 20.277,164.924 C20.817,164.53 21.473,164.333 22.245,164.333 C22.975,164.333 23.549,164.528 23.965,164.918 C24.382,165.308 24.539,165.862 24.435,166.58 L23.953,169.804 C23.9137103,170.036492 23.8899908,170.271347 23.882,170.507 C23.876,170.723 23.889,170.939 23.922,171.153 L22.666,171.153 Z M20.778,170.263 C21.199,170.263 21.608,170.147 22.004,169.916 C22.4,169.684 22.674,169.425 22.827,169.136 L22.994,168.053 L21.626,168.053 C21.152,168.053 20.743,168.178 20.401,168.43 C20.058,168.682 19.864,168.97 19.819,169.297 C19.769,169.607 19.824,169.844 19.983,170.011 C20.142,170.179 20.407,170.262 20.778,170.262 L20.778,170.263 Z M29.53,165.533 L28.91,165.497 C28.593,165.497 28.312,165.576 28.069,165.735 C27.825,165.894 27.619,166.117 27.45,166.406 L26.738,171.153 L25.52,171.153 L26.523,164.457 L27.612,164.457 L27.587,165.404 C27.827,165.065 28.099,164.802 28.404,164.614 C28.7823035,164.381176 29.2305562,164.289118 29.67,164.354 C29.754,164.369 29.821,164.384 29.87,164.401 L29.53,165.534 L29.53,165.533 Z M30.105,167.929 C30.27,166.811 30.629,165.932 31.182,165.292 C31.735,164.652 32.428,164.333 33.262,164.333 C33.678,164.333 34.035,164.422 34.332,164.599 C34.629,164.777 34.865,165.032 35.038,165.367 L35.323,164.457 L36.294,164.457 L35.285,171.19 C35.149,172.082 34.802,172.75 34.243,173.193 C33.683,173.636 32.927,173.858 31.974,173.858 C31.664,173.858 31.326,173.813 30.959,173.722 C30.6306194,173.645743 30.3143117,173.524604 30.019,173.362 L30.346,172.416 C30.566,172.54 30.834,172.64 31.154,172.716 C31.474,172.792 31.794,172.831 32.117,172.831 C32.686,172.831 33.133,172.693 33.457,172.419 C33.78,172.145 33.984,171.735 34.067,171.19 L34.177,170.43 C33.917,170.71 33.624,170.922 33.296,171.067 C32.968,171.211 32.606,171.283 32.209,171.283 C31.425,171.283 30.839,170.984 30.452,170.386 C30.064,169.788 29.942,169.012 30.087,168.059 L30.105,167.929 Z M31.305,168.059 C31.199,168.756 31.253,169.303 31.47,169.699 C31.686,170.095 32.086,170.293 32.667,170.293 C33.022,170.293 33.337,170.207 33.614,170.036 C33.905392,169.850174 34.1541726,169.604801 34.344,169.316 L34.809,166.252 C34.701606,165.983147 34.5228451,165.748717 34.292,165.574 C34.067,165.407 33.777,165.324 33.422,165.324 C32.865,165.324 32.404,165.569 32.039,166.06 C31.674,166.55 31.436,167.174 31.324,167.929 L31.306,168.059 L31.305,168.059 Z M39.797,171.283 C38.873,171.283 38.179,170.972 37.715,170.349 C37.25,169.726 37.093,168.921 37.241,167.935 L37.284,167.663 C37.429,166.664 37.822,165.86 38.464,165.249 C39.105,164.639 39.832,164.333 40.645,164.333 C41.507,164.333 42.128,164.616 42.508,165.181 C42.888,165.746 43.009,166.483 42.873,167.391 L42.78,168.034 L38.448,168.034 C38.353,168.744 38.423,169.304 38.658,169.714 C38.894,170.124 39.321,170.33 39.94,170.33 C40.336,170.33 40.704,170.27 41.044,170.15 C41.3638139,170.041895 41.662296,169.878779 41.926,169.668 L42.286,170.46 C41.9769341,170.712127 41.6272973,170.909939 41.252,171.045 C40.835,171.204 40.35,171.283 39.797,171.283 Z M40.503,165.293 C40.094,165.293 39.724,165.457 39.392,165.787 C39.049504,166.134767 38.803138,166.565477 38.677,167.037 L38.689,167.075 L41.703,167.075 L41.716,166.975 C41.79,166.476 41.732,166.071 41.543,165.76 C41.353,165.448 41.006,165.292 40.503,165.292 L40.503,165.293 Z M46.618,162.841 L46.376,164.457 L47.645,164.457 L47.509,165.36 L46.24,165.36 L45.634,169.427 C45.584,169.753 45.614,169.977 45.724,170.098 C45.833,170.22 45.997,170.281 46.215,170.281 C46.3730215,170.274253 46.5292678,170.244957 46.679,170.194 L46.723,171.03 C46.5918886,171.116239 46.4461836,171.17791 46.293,171.212 C46.1180621,171.258275 45.9379528,171.282133 45.757,171.283 C45.279,171.283 44.91,171.133 44.653,170.832 C44.395,170.53 44.315,170.062 44.414,169.427 L45.021,165.36 L43.956,165.36 L44.092,164.457 L45.157,164.457 L45.398,162.841 L46.618,162.841 Z M57.281,168.059 C57.129,169.061 56.781,169.849 56.235,170.423 C55.691,170.997 55.008,171.283 54.187,171.283 C53.754,171.283 53.387,171.193 53.085,171.011 C52.7761745,170.820668 52.5308082,170.542934 52.38,170.213 L52.033,171.153 L51.1,171.153 L52.548,161.498 L53.767,161.498 L53.204,165.248 C53.464,164.952 53.761,164.725 54.095,164.568 C54.4462995,164.407618 54.828863,164.327348 55.215,164.333 C56.007,164.333 56.592,164.666 56.97,165.333 C57.347,165.999 57.458,166.864 57.301,167.929 L57.282,168.059 L57.281,168.059 Z M56.081,167.929 C56.201,167.132 56.155,166.499 55.945,166.029 C55.735,165.559 55.338,165.323 54.756,165.323 C54.393,165.323 54.066,165.417 53.776,165.605 C53.484,165.793 53.238,166.045 53.036,166.363 L52.602,169.247 C52.71,169.577 52.877,169.834 53.104,170.017 C53.331,170.201 53.638,170.293 54.026,170.293 C54.579,170.293 55.032,170.086 55.384,169.671 C55.737,169.256 55.964,168.719 56.062,168.059 L56.081,167.929 Z M62.418,171.153 C62.4108121,170.966415 62.4068116,170.779721 62.406,170.593 C62.406,170.451 62.414,170.305 62.431,170.157 C62.1444311,170.482528 61.8016387,170.753849 61.419,170.958 C61.0454454,171.168183 60.6246152,171.280014 60.196,171.283 C59.524,171.283 59.026,171.103 58.702,170.742 C58.378,170.381 58.263,169.891 58.358,169.272 C58.453,168.612 58.783,168.106 59.348,167.756 C59.914,167.405 60.646,167.229 61.546,167.229 L62.87,167.229 L62.97,166.567 C63.031,166.159 62.96,165.844 62.756,165.623 C62.551,165.403 62.229,165.293 61.787,165.293 C61.43419,165.285888 61.0880035,165.389394 60.797,165.589 C60.512,165.787 60.351,166.025 60.314,166.301 L59.151,166.313 L59.144,166.276 C59.194,165.769 59.489,165.318 60.029,164.924 C60.569,164.53 61.226,164.333 61.998,164.333 C62.728,164.333 63.301,164.528 63.718,164.918 C64.135,165.308 64.292,165.862 64.188,166.58 L63.706,169.804 C63.6667103,170.036492 63.6429908,170.271347 63.635,170.507 C63.628,170.723 63.642,170.939 63.675,171.153 L62.418,171.153 Z M60.531,170.263 C60.951,170.263 61.36,170.147 61.756,169.916 C62.152,169.684 62.426,169.425 62.579,169.136 L62.746,168.053 L61.38,168.053 C60.905,168.053 60.497,168.178 60.154,168.43 C59.812,168.682 59.618,168.97 59.572,169.297 C59.522,169.607 59.578,169.844 59.736,170.011 C59.896,170.179 60.16,170.262 60.532,170.262 L60.531,170.263 Z M69.449,169.353 C69.486,169.076 69.416,168.855 69.239,168.69 C69.061,168.525 68.694,168.379 68.137,168.25 C67.37,168.081 66.795,167.844 66.413,167.539 C66.032,167.234 65.878,166.825 65.953,166.313 C66.031,165.744 66.327,165.272 66.84,164.896 C67.354,164.521 67.984,164.333 68.731,164.333 C69.457,164.333 70.035,164.541 70.464,164.958 C70.894,165.375 71.06,165.853 70.966,166.394 L70.953,166.431 L69.783,166.431 C69.82623,166.13964 69.7273386,165.845197 69.517,165.639 C69.299,165.408 68.993,165.292 68.601,165.292 C68.189,165.292 67.858,165.39 67.608,165.586 C67.358,165.782 67.215,166.012 67.178,166.276 C67.141,166.549 67.203,166.755 67.363,166.896 C67.524,167.036 67.887,167.166 68.453,167.286 C69.249,167.458 69.837,167.704 70.217,168.022 C70.597,168.339 70.751,168.754 70.681,169.266 C70.594,169.88 70.287,170.37 69.759,170.736 C69.23,171.101 68.574,171.283 67.79,171.283 C66.974,171.283 66.341,171.065 65.894,170.627 C65.446,170.19 65.274,169.687 65.377,169.117 L65.389,169.08 L66.559,169.08 C66.522,169.513 66.639,169.83 66.912,170.03 C67.184,170.23 67.522,170.33 67.927,170.33 C68.343,170.33 68.69,170.237 68.967,170.052 C69.243,169.866 69.404,169.632 69.449,169.352 L69.449,169.353 Z M76.078,169.353 C76.115,169.076 76.045,168.855 75.868,168.69 C75.69,168.525 75.323,168.379 74.766,168.25 C73.998,168.081 73.424,167.844 73.042,167.539 C72.66,167.234 72.507,166.825 72.581,166.313 C72.659,165.744 72.955,165.272 73.469,164.896 C73.983,164.521 74.613,164.333 75.359,164.333 C76.086,164.333 76.664,164.541 77.093,164.958 C77.522,165.375 77.689,165.853 77.594,166.394 L77.582,166.431 L76.412,166.431 C76.45523,166.13964 76.3563386,165.845197 76.146,165.639 C75.927,165.408 75.622,165.292 75.23,165.292 C74.817,165.292 74.486,165.39 74.236,165.586 C73.986,165.782 73.843,166.012 73.806,166.276 C73.769,166.549 73.831,166.755 73.992,166.896 C74.152,167.036 74.516,167.166 75.082,167.286 C75.878,167.458 76.466,167.704 76.845,168.022 C77.225,168.339 77.379,168.754 77.309,169.266 C77.223,169.88 76.915,170.37 76.387,170.736 C75.859,171.101 75.203,171.283 74.419,171.283 C73.602,171.283 72.969,171.065 72.522,170.627 C72.074,170.19 71.902,169.687 72.005,169.117 L72.018,169.08 L73.188,169.08 C73.15,169.513 73.268,169.83 73.54,170.03 C73.812,170.23 74.15,170.33 74.555,170.33 C74.972,170.33 75.318,170.237 75.595,170.052 C75.871,169.866 76.032,169.632 76.078,169.352 L76.078,169.353 Z M78.758,167.743 C78.91,166.716 79.299,165.891 79.924,165.268 C80.549,164.644 81.326,164.333 82.254,164.333 C83.146,164.333 83.821,164.656 84.281,165.302 C84.741,165.947 84.899,166.762 84.755,167.743 L84.73,167.879 C84.573,168.915 84.183,169.741 83.56,170.358 C82.937,170.975 82.16,171.283 81.227,171.283 C80.336,171.283 79.66,170.961 79.2,170.318 C78.74,169.674 78.584,168.861 78.733,167.879 L78.758,167.743 Z M79.952,167.879 C79.841,168.614 79.9,169.206 80.132,169.656 C80.362,170.106 80.775,170.33 81.369,170.33 C81.926,170.33 82.396,170.096 82.777,169.628 C83.159,169.159 83.404,168.577 83.511,167.879 L83.536,167.743 C83.643,167.017 83.58,166.427 83.346,165.973 C83.114,165.519 82.702,165.293 82.112,165.293 C81.551,165.293 81.08,165.528 80.698,166.001 C80.316,166.473 80.076,167.054 79.977,167.743 L79.952,167.879 Z" id="Shape" fill="#6D6E71" fill-rule="nonzero"></path>
            <g id="Group" transform="translate(24.000000, 128.000000)" fill="#2A3052" fill-rule="nonzero">
                <path d="M5.16,3.552 L5.267,4.659 C5.70547835,3.89278885 6.52737578,3.4271876 7.41,3.445 C8.195,3.445 8.802,3.659 9.23,4.159 C9.659,4.623 9.873,5.337 9.873,6.301 L9.873,10.942 L8.552,10.942 L8.552,6.337 C8.552,5.694 8.409,5.23 8.159,4.944 C7.909,4.659 7.517,4.552 7.017,4.552 C6.624,4.552 6.303,4.659 6.017,4.837 C5.71907877,5.02219652 5.47332968,5.28033632 5.303,5.587 L5.303,10.942 L3.983,10.942 L3.983,3.588 L5.16,3.552 Z M0.486,0.92 L1.72,0.92 L1.72,10.671 L0.486,10.671 L0.486,0.92 Z M22.284,3.489 L23.587,3.489 L23.587,10.666 L22.284,10.666 L22.284,3.489 Z M22.301,0.23 L22.301,1.524 L23.63,1.524 L23.63,0.229 L22.301,0.23 Z M11.917,3.5 L13.222,3.5 L13.222,10.678 L11.917,10.678 L11.917,3.5 Z M11.935,0.24 L11.935,1.534 L13.264,1.534 L13.264,0.24 L11.935,0.24 Z" id="Shape"></path>
                <path d="M11.893,3.5 L13.197,3.5 L13.197,10.678 L11.893,10.678 L11.893,3.5 Z M11.91,0.24 L11.91,1.534 L13.239,1.534 L13.239,0.24 L11.91,0.24 Z M15.002,4.475 L15.002,3.445 L20.492,3.445 L20.492,4.314 L16.525,9.694 L20.702,9.694 L20.702,10.671 L15.002,10.671 L15.002,9.837 L18.922,4.475 L15.002,4.475 Z M28.677,3.28 C30.834,3.28 31.797,4.855 31.96,6.673 C32.122,8.491 31.357,10.674 28.972,10.861 C26.586,11.047 25.394,9.121 25.394,7.088 C25.394,5.056 26.519,3.281 28.677,3.281 L28.677,3.28 Z M28.625,4.318 C27.822,4.318 26.871,4.801 26.749,6.772 C26.628,8.742 27.422,9.824 28.688,9.824 C29.954,9.824 30.623,8.674 30.623,6.772 C30.623,4.869 29.428,4.318 28.625,4.318 Z" id="Shape"></path>
            </g>
            <g id="Group" transform="translate(180.000000, 157.000000)" fill="#FFFFFF" fill-rule="nonzero">
                <path d="M2.728,8.038 L0.508,8.038 L0.508,0.69 L2.728,0.69 L2.728,8.038 Z M2.728,11.904 L0.508,11.904 L0.508,9.93 L2.728,9.93 L2.728,11.904 Z" id="Shape"></path>
            </g>
            <path d="M163.643,160.745 L165.24,160.745 L165.32,161.908 C165.975,160.933 166.823,160.499 167.866,160.608 C168.47,160.67 169.743,160.868 170.123,162.582 C170.263,163.211 170.233,164.273 170.223,165.717 C170.218,166.277 170.218,167.247 170.223,168.627 L168.47,168.627 L168.47,163.69 C168.47,163.11 168.308,162.461 167.82,162.216 C167.151,161.879 165.891,162.02 165.386,162.87 L165.386,168.628 L163.643,168.628 L163.643,160.745 Z M116.411,164.463 L116.411,163.169 L120.325,163.169 C120.369,165.424 120.369,166.739 120.325,167.113 C119.995,168.101 116.086,169.896 113.562,167.619 C112.81,166.94 112.456,166.189 112.262,165.05 C112.254,163.888 112.233,162.797 112.242,161.766 C112.432,160.502 112.856,159.784 113.197,159.376 C114.437,157.893 116.415,157.574 118.154,158.175 C119.892,158.775 120.118,160.025 120.259,161.245 C119.856,161.245 119.644,161.228 118.556,161.245 C118.666,160.559 118.041,159.23 116.41,159.303 C114.778,159.376 114.008,160.717 114.008,161.833 C114.008,162.95 113.95,162.575 114.008,164.793 C114.083,167.343 117.137,168.026 118.556,166.665 L118.608,164.495 L116.411,164.463 Z M175.197,160.605 C177.381,160.605 178.566,161.937 178.865,163.932 C179.165,165.926 178.088,168.744 175.351,168.744 C172.614,168.744 171.728,166.663 171.728,164.509 C171.728,162.356 173.013,160.605 175.197,160.605 Z M175.217,162.003 C174.567,162.064 173.417,162.519 173.484,164.673 C173.551,166.826 174.493,167.332 175.217,167.332 C175.94,167.332 177.161,167.132 177.161,164.682 C177.161,162.232 175.866,161.942 175.217,162.002 L175.217,162.003 Z" id="Shape" fill="#FFFFFF" fill-rule="nonzero"></path>
            <path d="M175.217,162.003 C174.567,162.064 173.417,162.519 173.484,164.673 C173.551,166.826 174.493,167.332 175.217,167.332 C175.94,167.332 177.161,167.132 177.161,164.682 C177.161,162.232 175.866,161.942 175.217,162.002 L175.217,162.003 Z" id="Path"></path>
            <path d="M122.251,160.807 C122.961,160.828 123.523,160.828 123.938,160.807 L123.938,165.241 C123.938,167.001 124.584,167.303 125.212,167.363 C125.936962,167.427849 126.639749,167.092933 127.046,166.489 C127.061,164.465 127.061,162.571 127.046,160.807 L128.854,160.807 L128.854,168.637 L127.308,168.637 L127.143,167.487 C126.597,168.427 125.741,168.846 124.575,168.743 C122.825,168.588 122.251,167.096 122.251,165.708 C122.251,163.288 122.213,162.027 122.251,160.807 Z M132.546,162.967 C132.011,162.963 131.45,162.963 130.863,162.967 C130.863,162.123 131.467,160.591 133.884,160.591 C136.302,160.591 136.882,162.252 136.948,162.609 C137.013,162.967 136.779,167.981 137.285,168.551 L135.489,168.553 C135.341,168.045 135.267,167.67 135.267,167.427 C134.987,167.769 134.505,168.394 133.764,168.624 C133.024,168.854 131.341,168.977 130.653,167.363 C130.198,166.299 130.488,165.103 131.341,164.554 C132.751,163.649 134.689,163.951 135.267,163.951 C135.341,162.336 134.859,161.96 133.764,161.96 C133.034,161.96 132.628,162.296 132.546,162.967 Z M135.266,165.056 C134.736,165.046 134.377,165.043 133.492,165.07 C132.787,165.133 132.16,165.654 132.213,166.396 C132.277,167.282 133.283,167.445 134.072,167.189 C134.733,166.975 135.194,166.421 135.266,166.186 L135.266,165.056 Z M148.856,162.967 C148.321,162.963 147.759,162.963 147.173,162.967 C147.173,162.123 147.777,160.591 150.194,160.591 C152.612,160.591 153.192,162.252 153.258,162.609 C153.323,162.967 153.089,167.981 153.595,168.551 L151.799,168.553 C151.651,168.045 151.576,167.67 151.576,167.427 C151.296,167.769 150.814,168.394 150.074,168.624 C149.334,168.854 147.651,168.977 146.962,167.363 C146.508,166.299 146.798,165.103 147.652,164.554 C149.061,163.649 150.998,163.951 151.576,163.951 C151.651,162.336 151.169,161.96 150.074,161.96 C149.344,161.96 148.938,162.296 148.856,162.967 Z M151.576,165.056 C151.045,165.046 150.687,165.043 149.802,165.07 C149.097,165.133 148.469,165.654 148.523,166.396 C148.587,167.282 149.593,167.445 150.382,167.189 C151.042,166.975 151.504,166.421 151.576,166.186 L151.576,165.056 Z M143.528,157.353 L145.232,157.353 L145.232,168.639 L143.831,168.639 C143.752871,168.307225 143.681855,167.973815 143.618,167.639 C143.338,168.419 140.491,169.794 139.082,167.466 C137.904,165.521 138.552,162.907 139.152,161.961 C139.602,161.251 141.428,159.427 143.528,161.658 C143.531,159.038 143.531,157.602 143.528,157.353 Z M143.538,163.045 C143.266,162.184 141.441,161.64 140.708,162.693 C139.976,163.747 140.01,165.098 140.428,166.333 C140.848,167.569 142.64,167.804 143.538,166.446 L143.538,163.045 Z M160.182,161.797 L160.358,160.805 L161.792,160.805 L161.792,168.749 C161.797,171.518 158.688,172.579 155.832,171.195 C155.995,170.379 156.085,169.922 156.102,169.825 C157.346,170.241 160.443,171.282 160.049,167.835 C158.271,169.656 156.259,168.552 155.562,167.336 C154.794,165.993 154.294,161.988 156.766,160.907 C158.19,160.285 159.329,160.581 160.182,161.797 Z M160.033,163.009 C159.695,162.497 159.478,162.069 158.343,162.069 C157.206,162.069 156.495,163.464 156.742,165.604 C156.988,167.744 159.311,167.744 160.033,166.39 L160.033,163.009 Z" id="Shape" fill="#FFFFFF" fill-rule="nonzero"></path>
            <g id="Group" transform="translate(265.000000, 120.000000)" fill="#2A3052" fill-rule="nonzero">
                <path d="M11.365,3.851 L11.459,4.821 C11.8437049,4.15009706 12.5637802,3.7425145 13.337,3.758 C14.025,3.758 14.557,3.945 14.933,4.383 C15.308,4.79 15.496,5.416 15.496,6.261 L15.496,10.33 L14.338,10.33 L14.338,6.293 C14.338,5.729 14.213,5.323 13.994,5.072 C13.774,4.822 13.43,4.728 12.992,4.728 C12.648,4.728 12.366,4.822 12.116,4.978 C11.866,5.135 11.646,5.354 11.49,5.635 L11.49,10.33 L10.332,10.33 L10.332,3.883 L11.365,3.851 Z M5.888,1.516 L5.888,2.426 L1.523,2.426 L1.523,5.516 L5.241,5.516 L5.241,6.453 L1.523,6.453 L1.523,10.41 L0.241,10.41 L0.241,1.516 L5.888,1.516 Z M22.257,7.28 L18.106,7.28 C18.106,8.05 18.263,8.607 18.578,8.95 C18.991,9.402 19.427,9.566 20.023,9.506 C21.065,9.402 21.267,9.123 21.698,8.876 L22.138,9.631 C21.624,10.161 20.802,10.426 19.673,10.426 C17.979,10.426 16.947,9.023 16.879,7.352 C16.812,5.681 17.479,3.742 19.673,3.661 C21.533,3.711 22.393,4.917 22.257,7.28 Z M21.091,6.361 C21.079,5.186 20.607,4.598 19.674,4.598 C18.742,4.598 18.232,5.186 18.144,6.361 L21.091,6.361 Z M7.237,3.86 L8.403,3.86 L8.403,10.276 L7.237,10.276 L7.237,3.86 Z M7.253,0.947 L7.253,2.104 L8.44,2.104 L8.44,0.947 L7.253,0.947 Z" id="Shape"></path>
            </g>
            <polygon id="Path" fill="#000000" points="79.358 13.61 76.31 13.61 76.31 22.627 74.171 22.627 74.171 13.611 71.17 13.611 71.17 11.963 79.359 11.963"></polygon>
        </g>
    </g>
</svg>