<?xml version="1.0" encoding="UTF-8"?>
<svg width="299px" height="197px" viewBox="0 0 299 197" version="1.1" xmlns="http://www.w3.org/2000/svg" xmlns:xlink="http://www.w3.org/1999/xlink">
    <!-- Generator: Sketch 52.6 (67491) - http://www.bohemiancoding.com/sketch -->
    <title>ends-outside</title>
    <desc>Created with Sketch.</desc>
    <g id="Page-1" stroke="none" stroke-width="1" fill="none" fill-rule="evenodd">
        <g id="ends-outside">
            <polygon id="Path" fill="#F1F2F2" points="0 0 299 0 299 197 0 197"></polygon>
            <path d="M1.99333333,1.9798995 L1.99333333,195.020101 L297.006667,195.020101 L297.006667,1.9798995 L1.99333333,1.9798995 Z M299,0 L299,197 L0,197 L0,0 L299,0 Z" id="Path" fill="#C2C2C2" fill-rule="nonzero"></path>
            <path d="M40.6149329,54.8568182 L40.6149329,73.7621212 L75.7701342,73.7621212 L75.7701342,54.8568182 L40.6149329,54.8568182 Z M40.6149329,53.8810606 L75.7701342,53.8810606 L75.7701342,34 L76.7432886,34 L76.7432886,53.8810606 L111.89849,53.8810606 L111.89849,34 L112.871644,34 L112.871644,53.8810606 L148.026846,53.8810606 L148.026846,34 L149,34 L149,53.8810606 L184.155201,53.8810606 L184.155201,34 L185.128356,34 L185.128356,53.8810606 L220.283557,53.8810606 L220.283557,34 L221.256711,34 L221.256711,53.8810606 L256.411913,53.8810606 L256.411913,34 L257.385067,34 L257.385067,53.8810606 L294,53.8810606 L294,54.8568182 L257.385067,54.8568182 L257.385067,73.7621212 L294,73.7621212 L294,74.7378788 L257.385067,74.7378788 L257.385067,93.6431818 L294,93.6431818 L294,94.6189394 L257.385067,94.6189394 L257.385067,113.524242 L294,113.524242 L294,114.5 L257.385067,114.5 L257.385067,133.405303 L294,133.405303 L294,134.381061 L257.385067,134.381061 L257.385067,153.286364 L294,153.286364 L294,154.262121 L257.385067,154.262121 L257.385067,173.167424 L294,173.167424 L294,174.143182 L257.385067,174.143182 L257.385067,195 L256.411913,195 L256.411913,174.143182 L221.256711,174.143182 L221.256711,195 L220.283557,195 L220.283557,174.143182 L185.128356,174.143182 L185.128356,195 L184.155201,195 L184.155201,174.143182 L149,174.143182 L149,195 L148.026846,195 L148.026846,174.143182 L112.871644,174.143182 L112.871644,195 L111.89849,195 L111.89849,174.143182 L76.7432886,174.143182 L76.7432886,195 L75.7701342,195 L75.7701342,174.143182 L40.6149329,174.143182 L40.6149329,195 L39.6417785,195 L39.6417785,174.143182 L4,174.143182 L4,173.167424 L39.6417785,173.167424 L39.6417785,154.262121 L4,154.262121 L4,153.286364 L39.6417785,153.286364 L39.6417785,134.381061 L4,134.381061 L4,133.405303 L39.6417785,133.405303 L39.6417785,114.5 L4,114.5 L4,113.524242 L39.6417785,113.524242 L39.6417785,94.6189394 L4,94.6189394 L4,93.6431818 L39.6417785,93.6431818 L39.6417785,74.7378788 L4,74.7378788 L4,73.7621212 L39.6417785,73.7621212 L39.6417785,54.8568182 L4,54.8568182 L4,53.8810606 L39.6417785,53.8810606 L39.6417785,34 L40.6149329,34 L40.6149329,53.8810606 Z M256.411913,54.8568182 L221.256711,54.8568182 L221.256711,73.7621212 L256.411913,73.7621212 L256.411913,54.8568182 Z M220.283557,54.8568182 L185.128356,54.8568182 L185.128356,73.7621212 L220.283557,73.7621212 L220.283557,54.8568182 Z M184.155201,54.8568182 L149,54.8568182 L149,73.7621212 L184.155201,73.7621212 L184.155201,54.8568182 Z M148.026846,54.8568182 L112.871644,54.8568182 L112.871644,73.7621212 L148.026846,73.7621212 L148.026846,54.8568182 Z M111.89849,54.8568182 L76.7432886,54.8568182 L76.7432886,73.7621212 L111.89849,73.7621212 L111.89849,54.8568182 Z M40.6149329,74.7378788 L40.6149329,93.6431818 L75.7701342,93.6431818 L75.7701342,74.7378788 L40.6149329,74.7378788 Z M256.411913,74.7378788 L221.256711,74.7378788 L221.256711,93.6431818 L256.411913,93.6431818 L256.411913,74.7378788 Z M220.283557,74.7378788 L185.128356,74.7378788 L185.128356,93.6431818 L220.283557,93.6431818 L220.283557,74.7378788 Z M184.155201,74.7378788 L149,74.7378788 L149,93.6431818 L184.155201,93.6431818 L184.155201,74.7378788 Z M148.026846,74.7378788 L112.871644,74.7378788 L112.871644,93.6431818 L148.026846,93.6431818 L148.026846,74.7378788 Z M111.89849,74.7378788 L76.7432886,74.7378788 L76.7432886,93.6431818 L111.89849,93.6431818 L111.89849,74.7378788 Z M40.6149329,94.6189394 L40.6149329,113.524242 L75.7701342,113.524242 L75.7701342,94.6189394 L40.6149329,94.6189394 Z M256.411913,94.6189394 L221.256711,94.6189394 L221.256711,113.524242 L256.411913,113.524242 L256.411913,94.6189394 Z M220.283557,94.6189394 L185.128356,94.6189394 L185.128356,113.524242 L220.283557,113.524242 L220.283557,94.6189394 Z M184.155201,94.6189394 L149,94.6189394 L149,113.524242 L184.155201,113.524242 L184.155201,94.6189394 Z M148.026846,94.6189394 L112.871644,94.6189394 L112.871644,113.524242 L148.026846,113.524242 L148.026846,94.6189394 Z M111.89849,94.6189394 L76.7432886,94.6189394 L76.7432886,113.524242 L111.89849,113.524242 L111.89849,94.6189394 Z M40.6149329,114.5 L40.6149329,133.405303 L75.7701342,133.405303 L75.7701342,114.5 L40.6149329,114.5 Z M256.411913,114.5 L221.256711,114.5 L221.256711,133.405303 L256.411913,133.405303 L256.411913,114.5 Z M220.283557,114.5 L185.128356,114.5 L185.128356,133.405303 L220.283557,133.405303 L220.283557,114.5 Z M184.155201,114.5 L149,114.5 L149,133.405303 L184.155201,133.405303 L184.155201,114.5 Z M148.026846,114.5 L112.871644,114.5 L112.871644,133.405303 L148.026846,133.405303 L148.026846,114.5 Z M111.89849,114.5 L76.7432886,114.5 L76.7432886,133.405303 L111.89849,133.405303 L111.89849,114.5 Z M40.6149329,134.381061 L40.6149329,153.286364 L75.7701342,153.286364 L75.7701342,134.381061 L40.6149329,134.381061 Z M256.411913,134.381061 L221.256711,134.381061 L221.256711,153.286364 L256.411913,153.286364 L256.411913,134.381061 Z M220.283557,134.381061 L185.128356,134.381061 L185.128356,153.286364 L220.283557,153.286364 L220.283557,134.381061 Z M184.155201,134.381061 L149,134.381061 L149,153.286364 L184.155201,153.286364 L184.155201,134.381061 Z M148.026846,134.381061 L112.871644,134.381061 L112.871644,153.286364 L148.026846,153.286364 L148.026846,134.381061 Z M111.89849,134.381061 L76.7432886,134.381061 L76.7432886,153.286364 L111.89849,153.286364 L111.89849,134.381061 Z M40.6149329,154.262121 L40.6149329,173.167424 L75.7701342,173.167424 L75.7701342,154.262121 L40.6149329,154.262121 Z M256.411913,154.262121 L221.256711,154.262121 L221.256711,173.167424 L256.411913,173.167424 L256.411913,154.262121 Z M220.283557,154.262121 L185.128356,154.262121 L185.128356,173.167424 L220.283557,173.167424 L220.283557,154.262121 Z M184.155201,154.262121 L149,154.262121 L149,173.167424 L184.155201,173.167424 L184.155201,154.262121 Z M148.026846,154.262121 L112.871644,154.262121 L112.871644,173.167424 L148.026846,173.167424 L148.026846,154.262121 Z M111.89849,154.262121 L76.7432886,154.262121 L76.7432886,173.167424 L111.89849,173.167424 L111.89849,154.262121 Z" id="Shape" fill="#DFDEDE" fill-rule="nonzero"></path>
            <polygon id="Path" fill="#C2C2C2" points="2 33 297 33 297 35 2 35"></polygon>
            <g id="Group" transform="translate(3.000000, 33.983000)">
                <path d="M253.0075,0.725 L254.2185,0.725 L254.2185,161 L253.0075,161 L253.0075,0.725 Z M0.9,41.0175 L0.9,39.8065 L291.525,39.8065 L291.525,41.0175 L0.9,41.0175 Z M0.9,120.3555 L0.9,119.1445 L291.525,119.1445 L291.525,120.3555 L0.9,120.3555 Z" id="Shape" fill="#2A3052" fill-rule="nonzero"></path>
                <path d="M72.5987683,62.9341447 L36.9114201,83.6343006 C36.0436148,84.137664 34.9320628,83.8422255 34.4286994,82.9744201 C33.925336,82.1066148 34.2207745,80.9950628 35.0885799,80.4916994 L71.8755799,59.1536994 C72.5358645,58.7707067 73.3651487,58.8413664 73.9511192,59.3305471 L106.501204,86.5040556 L145.306652,60.2327924 C145.988454,59.7712133 146.89545,59.8259354 147.51681,60.3661386 L182.996264,91.2115413 L255.336482,19.7576479 C256.050228,19.0526464 257.200351,19.0597356 257.905352,19.773482 C258.610354,20.4872284 258.603264,21.6373507 257.889518,22.3423521 L184.351518,94.9793521 C183.675793,95.6467976 182.599964,95.6810162 181.88319,95.0578614 L146.187015,64.024044 L107.405348,90.2792076 C106.734729,90.7332159 105.844568,90.6884503 105.222881,90.1694529 L72.5987683,62.9341447 Z" id="Path" fill="#2A3052" fill-rule="nonzero"></path>
                <path d="M149.55,113 L144.15,104.787 L138.75,113 L103.687,113 C102.422772,113.006047 101.213182,113.516142 100.32639,114.417201 C99.4395975,115.31826 98.9488703,116.535837 98.963,117.8 L98.963,142.588 C98.9463511,145.216609 101.059455,147.363254 103.688,147.388 L184.65,147.388 C185.914402,147.382219 187.124249,146.87224 188.011258,145.971152 C188.898266,145.070064 189.38913,143.852336 189.375,142.588 L189.375,117.8 C189.381113,116.531676 188.882581,115.312986 187.989302,114.412578 C187.096022,113.51217 185.881333,113.003968 184.613,113 L149.55,113 Z" id="Path" fill="#E88024"></path>
                <ellipse id="Oval" fill="#FFFFFF" opacity="0.6" cx="256.613" cy="20.262" rx="8.137" ry="8.475"></ellipse>
                <path d="M256.613,29.948 C251.438967,29.948 247.265,25.6006517 247.265,20.262 C247.265,14.9233483 251.438967,10.576 256.613,10.576 C261.787033,10.576 265.961,14.9233483 265.961,20.262 C265.961,25.6006517 261.787033,29.948 256.613,29.948 Z M256.613,27.526 C260.426849,27.526 263.539,24.2845748 263.539,20.262 C263.539,16.2394252 260.426849,12.998 256.613,12.998 C252.799151,12.998 249.687,16.2394252 249.687,20.262 C249.687,24.2845748 252.799151,27.526 256.613,27.526 Z" id="Oval" fill="#E88024" fill-rule="nonzero"></path>
                <ellipse id="Oval" fill="#FFFFFF" opacity="0.6" cx="36" cy="82.063" rx="8.137" ry="8.475"></ellipse>
                <path d="M36,91.749 C30.8259673,91.749 26.652,87.4016517 26.652,82.063 C26.652,76.7243483 30.8259673,72.377 36,72.377 C41.1740327,72.377 45.348,76.7243483 45.348,82.063 C45.348,87.4016517 41.1740327,91.749 36,91.749 Z M36,89.327 C39.8138493,89.327 42.926,86.0855748 42.926,82.063 C42.926,78.0404252 39.8138493,74.799 36,74.799 C32.1861507,74.799 29.074,78.0404252 29.074,82.063 C29.074,86.0855748 32.1861507,89.327 36,89.327 Z" id="Oval" fill="#E88024" fill-rule="nonzero"></path>
            </g>
            <path d="M25.628,12.883 L22.473,12.883 L22.473,22.219 L20.26,22.219 L20.26,12.883 L17.15,12.883 L17.15,11.177 L25.63,11.177 L25.63,12.883 L25.628,12.883 Z M29.557,22.378 C28.333,22.378 27.377,22.003 26.69,21.252 C26.002,20.502 25.659,19.534 25.659,18.352 L25.659,18.048 C25.659,16.819 25.992,15.813 26.659,15.03 C27.327,14.246 28.245,13.857 29.413,13.862 C30.515,13.862 31.36,14.199 31.949,14.874 C32.539,15.549 32.833,16.458 32.833,17.601 L32.833,18.746 L27.94,18.746 L27.918,18.791 C27.953,19.352 28.124,19.807 28.429,20.156 C28.735,20.506 29.189,20.68 29.791,20.68 C30.286,20.68 30.707,20.629 31.053,20.528 C31.4270694,20.4148623 31.7870514,20.25953 32.126,20.065 L32.726,21.43 C32.397,21.698 31.952,21.923 31.391,22.105 C30.7974818,22.2918715 30.1782128,22.3840025 29.556,22.378 L29.557,22.378 Z M29.413,15.568 C28.968,15.568 28.625,15.721 28.385,16.027 C28.145,16.333 27.999,16.739 27.949,17.244 L27.964,17.282 L30.664,17.282 L30.664,17.115 C30.664,16.635 30.565,16.257 30.368,15.981 C30.171,15.706 29.852,15.568 29.413,15.568 Z M38.437,15.917 L37.626,15.894 C37.297,15.894 37.026,15.962 36.814,16.099 C36.5989699,16.2388591 36.4302003,16.4392947 36.329,16.675 L36.329,22.219 L34.122,22.219 L34.122,14.013 L36.177,14.013 L36.276,15.227 C36.468,14.797 36.716,14.462 37.023,14.222 C37.329,13.982 37.681,13.862 38.081,13.862 C38.191,13.862 38.294,13.871 38.388,13.888 C38.481,13.906 38.576,13.928 38.672,13.953 L38.437,15.917 Z M41.645,14.013 L41.736,15.098 C41.999,14.704 42.329,14.398 42.726,14.184 C43.123,13.969 43.581,13.862 44.102,13.862 C44.628,13.862 45.078,13.978 45.452,14.211 C45.826,14.443 46.109,14.795 46.302,15.265 C46.554,14.825 46.882,14.481 47.287,14.233 C47.692,13.986 48.167,13.862 48.713,13.862 C49.522,13.862 50.16,14.149 50.628,14.722 C51.096,15.296 51.329,16.172 51.329,17.35 L51.329,22.219 L49.115,22.219 L49.115,17.343 C49.115,16.685 49.014,16.228 48.812,15.97 C48.609,15.712 48.309,15.583 47.909,15.583 C47.596,15.583 47.324,15.653 47.094,15.792 C46.862206,15.9328038 46.6723065,16.1330615 46.544,16.372 C46.544,16.468 46.547,16.55 46.552,16.618 C46.557,16.687 46.559,16.756 46.559,16.827 L46.559,22.219 L44.352,22.219 L44.352,17.343 C44.352,16.701 44.252,16.247 44.049,15.981 C43.847,15.716 43.544,15.583 43.139,15.583 C42.841,15.583 42.579,15.64 42.354,15.753 C42.129,15.868 41.944,16.028 41.797,16.235 L41.797,22.219 L39.59,22.219 L39.59,14.013 L41.645,14.013 Z M55.356,22.219 L53.142,22.219 L53.142,14.013 L55.356,14.013 L55.356,22.219 Z M55.356,12.049 L53.142,12.049 L53.142,10.389 L55.356,10.389 L55.356,12.049 Z M59.201,14.013 L59.3,15.189 C59.573,14.769 59.91,14.443 60.309,14.211 C60.708,13.978 61.155,13.861 61.651,13.861 C62.48,13.861 63.127,14.128 63.592,14.661 C64.057,15.195 64.29,16.038 64.29,17.191 L64.29,22.219 L62.068,22.219 L62.068,17.199 C62.068,16.612 61.966,16.196 61.761,15.951 C61.556,15.706 61.249,15.583 60.839,15.583 C60.511,15.583 60.221,15.645 59.971,15.769 C59.721,15.893 59.515,16.064 59.353,16.281 L59.353,22.219 L57.139,22.219 L57.139,14.013 L59.2,14.013 L59.201,14.013 Z M70.781,22.219 C70.698439,22.0265662 70.6289481,21.8287843 70.573,21.627 C70.515,21.42 70.473,21.207 70.448,20.99 C70.22,21.39 69.92,21.721 69.546,21.984 C69.171,22.247 68.726,22.378 68.211,22.378 C67.351,22.378 66.689,22.158 66.224,21.715 C65.759,21.272 65.526,20.669 65.526,19.906 C65.526,19.102 65.836,18.479 66.456,18.036 C67.074,17.594 67.978,17.373 69.166,17.373 L70.41,17.373 L70.41,16.721 C70.41,16.326 70.306,16.021 70.1,15.803 C69.892,15.586 69.583,15.477 69.174,15.477 C68.815,15.477 68.538,15.564 68.344,15.739 C68.149,15.913 68.052,16.152 68.052,16.455 L65.92,16.455 L65.904,16.41 C65.869,15.717 66.171,15.12 66.811,14.616 C67.451,14.113 68.286,13.862 69.317,13.862 C70.303,13.862 71.1,14.109 71.71,14.605 C72.319,15.1 72.624,15.811 72.624,16.736 L72.624,20.126 C72.624,20.51 72.653,20.872 72.711,21.21 C72.769,21.55 72.861,21.885 72.988,22.219 L70.781,22.219 Z M68.757,20.74 C69.141,20.74 69.485,20.644 69.788,20.452 C70.092,20.26 70.298,20.037 70.41,19.785 L70.41,18.625 L69.166,18.625 C68.696,18.625 68.341,18.741 68.101,18.973 C67.861,19.206 67.741,19.491 67.741,19.83 C67.741,20.108 67.831,20.33 68.01,20.494 C68.19,20.658 68.438,20.74 68.757,20.74 Z M91.596,21.006 C91.343,21.446 91.022,21.784 90.633,22.022 C90.243,22.259 89.791,22.378 89.275,22.378 C88.411,22.378 87.735,22.085 87.247,21.498 C86.759,20.912 86.515,20.002 86.515,18.768 L86.515,14.013 L88.722,14.013 L88.722,18.783 C88.722,19.502 88.819,19.993 89.014,20.259 C89.208,20.524 89.51,20.657 89.92,20.657 C90.274,20.657 90.577,20.6 90.83,20.487 C91.083,20.372 91.29,20.204 91.452,19.982 L91.452,14.013 L93.666,14.013 L93.666,22.219 L91.831,22.219 L91.596,21.006 Z M94.993,18.04 C94.993,16.817 95.335,15.815 96.017,15.033 C96.7,14.253 97.645,13.862 98.853,13.862 C100.067,13.862 101.017,14.251 101.705,15.03 C102.392,15.808 102.736,16.812 102.736,18.04 L102.736,18.2 C102.736,19.433 102.394,20.438 101.709,21.214 C101.024,21.99 100.077,22.378 98.869,22.378 C97.655,22.378 96.706,21.99 96.021,21.214 C95.336,20.438 94.993,19.434 94.993,18.2 L94.993,18.04 Z M97.2,18.2 C97.2,18.948 97.332,19.548 97.595,20 C97.857,20.453 98.282,20.68 98.869,20.68 C99.439,20.68 99.859,20.452 100.124,19.997 C100.389,19.542 100.522,18.943 100.522,18.2 L100.522,18.04 C100.522,17.312 100.388,16.718 100.12,16.258 C99.852,15.798 99.43,15.568 98.853,15.568 C98.283,15.568 97.863,15.799 97.598,16.262 C97.333,16.725 97.2,17.317 97.2,18.04 L97.2,18.2 Z M108.416,15.917 L107.605,15.894 C107.276,15.894 107.005,15.962 106.794,16.099 C106.578599,16.2387097 106.409469,16.4391605 106.308,16.675 L106.308,22.219 L104.101,22.219 L104.101,14.013 L106.157,14.013 L106.255,15.227 C106.447,14.797 106.696,14.462 107.002,14.222 C107.308,13.982 107.661,13.862 108.06,13.862 C108.171,13.862 108.274,13.871 108.367,13.888 C108.461,13.906 108.556,13.928 108.652,13.953 L108.416,15.917 Z M111.897,22.219 L109.683,22.219 L109.683,14.013 L111.897,14.013 L111.897,22.219 Z M111.897,12.049 L109.683,12.049 L109.683,10.389 L111.897,10.389 L111.897,12.049 Z" id="Shape" fill="#000000" fill-rule="nonzero"></path>
            <path d="M24.39,60.042 L21.37,60.042 L20.144,68.225 L18.904,68.225 L20.131,60.042 L17.15,60.042 L17.294,59.067 L24.534,59.067 L24.389,60.042 L24.39,60.042 Z M27.767,68.225 C27.7597502,68.0350823 27.7557496,67.8450545 27.755,67.655 C27.755,67.511 27.763,67.363 27.78,67.212 C27.4887054,67.5432347 27.1401433,67.8193068 26.751,68.027 C26.3716259,68.2404027 25.9442656,68.3539526 25.509,68.357 C24.825,68.357 24.319,68.173 23.99,67.807 C23.66,67.44 23.544,66.942 23.64,66.313 C23.7177215,65.6706702 24.0899276,65.1010875 24.647,64.772 C25.222,64.415 25.967,64.237 26.88,64.237 L28.226,64.237 L28.326,63.564 C28.39,63.149 28.317,62.829 28.11,62.604 C27.902,62.38 27.574,62.268 27.126,62.268 C26.744,62.268 26.408,62.368 26.119,62.57 C25.829,62.771 25.666,63.012 25.629,63.293 L24.446,63.306 L24.44,63.268 C24.49,62.753 24.79,62.294 25.34,61.894 C25.889,61.494 26.555,61.294 27.34,61.294 C28.082,61.294 28.664,61.491 29.088,61.888 C29.512,62.284 29.671,62.847 29.566,63.576 L29.076,66.854 C29.0358539,67.089781 29.0114665,67.3279755 29.003,67.567 C28.997,67.787 29.01,68.007 29.044,68.225 L27.767,68.225 Z M25.849,67.319 C26.2881138,67.3158353 26.7182354,67.1942266 27.094,66.967 C27.497,66.732 27.775,66.467 27.931,66.174 L28.101,65.074 L26.711,65.074 C26.228,65.074 25.813,65.201 25.465,65.457 C25.117,65.713 24.92,66.007 24.874,66.337 C24.824,66.652 24.879,66.894 25.04,67.064 C25.202,67.234 25.471,67.319 25.849,67.319 Z M34.743,62.513 L34.113,62.476 C33.791,62.476 33.506,62.556 33.258,62.718 C32.9978721,62.8930017 32.7824324,63.1265945 32.629,63.4 L31.906,68.225 L30.666,68.225 L31.686,61.419 L32.793,61.419 L32.768,62.381 C32.9872894,62.0600393 33.2697058,61.7871502 33.598,61.579 C33.9823305,61.3426287 34.4376295,61.2491614 34.884,61.315 C34.97,61.33 35.038,61.345 35.089,61.362 L34.743,62.513 Z M35.328,64.948 C35.495,63.811 35.86,62.918 36.422,62.268 C36.984,61.618 37.688,61.293 38.535,61.293 C38.959,61.293 39.322,61.383 39.624,61.563 C39.926,61.744 40.164,62.004 40.341,62.343 L40.631,61.419 L41.618,61.419 L40.592,68.263 C40.454,69.168 40.101,69.847 39.532,70.297 C38.964,70.748 38.196,70.973 37.227,70.973 C36.913,70.973 36.569,70.927 36.196,70.835 C35.862078,70.7578311 35.5403847,70.6350089 35.24,70.47 L35.573,69.508 C35.795,69.634 36.069,69.735 36.393,69.813 C36.713648,69.8899648 37.0422444,69.9288996 37.372,69.929 C37.951,69.929 38.404,69.789 38.734,69.511 C39.063,69.232 39.269,68.816 39.354,68.263 L39.466,67.489 C39.2152746,67.7645436 38.9102017,67.9851767 38.57,68.137 C38.2214555,68.2867992 37.8453423,68.3617493 37.466,68.357 C36.669,68.357 36.074,68.053 35.68,67.445 C35.286,66.837 35.162,66.048 35.309,65.08 L35.328,64.948 Z M36.548,65.08 C36.438,65.788 36.494,66.344 36.715,66.747 C36.935,67.149 37.34,67.35 37.932,67.35 C38.292,67.35 38.613,67.263 38.894,67.09 C39.1903064,66.9007884 39.4431867,66.6509754 39.636,66.357 L40.108,63.243 C39.998962,62.9698362 39.8174403,62.7316105 39.583,62.554 C39.354,62.384 39.06,62.3 38.699,62.3 C38.133,62.3 37.664,62.55 37.293,63.048 C36.923,63.548 36.68,64.18 36.567,64.948 L36.547,65.08 L36.548,65.08 Z M45.178,68.357 C44.238,68.357 43.533,68.04 43.061,67.407 C42.589,66.774 42.429,65.957 42.58,64.954 L42.624,64.677 C42.771,63.662 43.17,62.845 43.822,62.224 C44.474,61.604 45.213,61.294 46.039,61.294 C46.916,61.294 47.547,61.58 47.933,62.155 C48.318,62.729 48.443,63.478 48.303,64.4 L48.209,65.055 L43.806,65.055 C43.71,65.775 43.781,66.345 44.02,66.762 C44.26,67.18 44.693,67.388 45.322,67.388 C45.725,67.388 46.099,67.328 46.445,67.206 C46.791,67.084 47.09,66.921 47.341,66.716 L47.706,67.52 C47.3921932,67.7763242 47.0371493,67.9775157 46.656,68.115 C46.232,68.276 45.74,68.357 45.178,68.357 Z M45.895,62.268 C45.48,62.268 45.103,62.436 44.765,62.771 C44.428,63.107 44.186,63.531 44.039,64.042 L44.052,64.08 L47.115,64.08 L47.128,63.98 C47.203,63.472 47.144,63.06 46.951,62.743 C46.759,62.426 46.406,62.268 45.895,62.268 Z M52.109,59.778 L51.864,61.419 L53.154,61.419 L53.015,62.337 L51.725,62.337 L51.109,66.47 C51.059,66.801 51.089,67.029 51.2,67.152 C51.311,67.276 51.478,67.338 51.7,67.338 C51.8607242,67.3313203 52.0196669,67.301687 52.172,67.25 L52.216,68.099 C52.111,68.174 51.966,68.236 51.779,68.285 C51.601444,68.3319232 51.4186495,68.3561166 51.235,68.357 C50.748,68.357 50.375,68.204 50.112,67.897 C49.85,67.592 49.769,67.116 49.87,66.47 L50.486,62.337 L49.405,62.337 L49.543,61.419 L50.625,61.419 L50.87,59.777 L52.11,59.777 L52.109,59.778 Z M60.846,68.225 C60.8384168,68.035088 60.8340828,67.8450602 60.833,67.655 C60.833,67.511 60.842,67.363 60.859,67.212 C60.5677054,67.5432347 60.2191433,67.8193068 59.83,68.027 C59.4506259,68.2404027 59.0232656,68.3539526 58.588,68.357 C57.904,68.357 57.398,68.173 57.068,67.807 C56.74,67.44 56.623,66.942 56.72,66.313 C56.7974977,65.670859 57.1693101,65.1013134 57.726,64.772 C58.301,64.415 59.045,64.237 59.959,64.237 L61.305,64.237 L61.405,63.564 C61.469,63.149 61.396,62.829 61.189,62.604 C60.981,62.38 60.653,62.268 60.204,62.268 C59.823,62.268 59.487,62.368 59.198,62.57 C58.908,62.771 58.745,63.012 58.708,63.293 L57.525,63.306 L57.519,63.268 C57.569,62.753 57.869,62.294 58.418,61.894 C58.968,61.494 59.634,61.294 60.418,61.294 C61.16,61.294 61.743,61.491 62.167,61.888 C62.59,62.284 62.75,62.847 62.645,63.576 L62.155,66.854 C62.1148539,67.089781 62.0904665,67.3279755 62.082,67.567 C62.076,67.787 62.089,68.007 62.122,68.225 L60.846,68.225 Z M58.928,67.319 C59.3671138,67.3158353 59.7972354,67.1942266 60.173,66.967 C60.575,66.732 60.854,66.467 61.009,66.174 L61.179,65.074 L59.789,65.074 C59.307,65.074 58.892,65.201 58.544,65.457 C58.196,65.713 57.999,66.007 57.953,66.337 C57.903,66.652 57.958,66.894 58.119,67.064 C58.281,67.234 58.55,67.319 58.928,67.319 Z M65.085,68.225 L63.846,68.225 L65.318,58.412 L66.558,58.412 L65.085,68.225 Z M69.979,59.777 L69.734,61.419 L71.024,61.419 L70.884,62.337 L69.595,62.337 L68.979,66.47 C68.929,66.801 68.959,67.029 69.07,67.152 C69.181,67.276 69.348,67.338 69.57,67.338 C69.7307242,67.3313203 69.8896669,67.301687 70.042,67.25 L70.086,68.099 C69.981,68.174 69.836,68.236 69.649,68.285 C69.471444,68.3319232 69.2886495,68.3561166 69.105,68.357 C68.618,68.357 68.244,68.204 67.982,67.897 C67.72,67.592 67.639,67.116 67.74,66.47 L68.356,62.337 L67.274,62.337 L67.413,61.419 L68.495,61.419 L68.74,59.777 L69.979,59.777 Z M71.564,64.759 C71.719,63.715 72.114,62.876 72.75,62.243 C73.385,61.61 74.174,61.293 75.118,61.293 C76.024,61.293 76.71,61.621 77.178,62.278 C77.645,62.934 77.806,63.761 77.659,64.759 L77.634,64.897 C77.474,65.95 77.078,66.79 76.445,67.417 C75.812,68.043 75.021,68.357 74.074,68.357 C73.168,68.357 72.481,68.03 72.014,67.376 C71.546,66.721 71.388,65.896 71.539,64.897 L71.564,64.759 Z M72.778,64.897 C72.665,65.644 72.726,66.246 72.96,66.703 C73.195,67.16 73.615,67.388 74.218,67.388 C74.784,67.388 75.261,67.15 75.649,66.674 C76.037,66.198 76.286,65.606 76.395,64.897 L76.42,64.759 C76.529,64.021 76.465,63.421 76.228,62.96 C75.991,62.499 75.573,62.268 74.973,62.268 C74.403,62.268 73.923,62.508 73.536,62.988 C73.148,63.468 72.904,64.058 72.803,64.759 L72.778,64.897 Z M21.46,163.977 L18.49,163.977 L17.283,172.029 L16.063,172.029 L17.271,163.977 L14.337,163.977 L14.48,163.017 L21.603,163.017 L21.461,163.977 L21.46,163.977 Z M24.784,172.029 C24.7768123,171.842415 24.7728118,171.655721 24.772,171.469 C24.772,171.327 24.78,171.181 24.797,171.033 C24.5104311,171.358528 24.1676387,171.629849 23.785,171.834 C23.4114454,172.044183 22.9906152,172.156014 22.562,172.159 C21.89,172.159 21.392,171.979 21.068,171.618 C20.744,171.257 20.629,170.767 20.724,170.148 C20.819,169.488 21.149,168.982 21.714,168.631 C22.28,168.281 23.012,168.105 23.912,168.105 L25.236,168.105 L25.336,167.443 C25.397,167.035 25.326,166.72 25.122,166.499 C24.917,166.279 24.595,166.169 24.153,166.169 C23.80019,166.161888 23.4540035,166.265394 23.163,166.465 C22.878,166.663 22.717,166.901 22.68,167.177 L21.517,167.189 L21.51,167.152 C21.56,166.645 21.855,166.194 22.395,165.8 C22.935,165.406 23.592,165.209 24.363,165.209 C25.093,165.209 25.667,165.404 26.084,165.794 C26.501,166.184 26.658,166.738 26.554,167.455 L26.072,170.68 C26.0327545,170.912162 26.0090352,171.146682 26.001,171.382 C25.994,171.599 26.008,171.815 26.041,172.029 L24.784,172.029 Z M22.897,171.138 C23.317,171.138 23.726,171.022 24.122,170.791 C24.518,170.561 24.792,170.301 24.945,170.011 L25.112,168.928 L23.745,168.928 C23.27,168.928 22.862,169.054 22.519,169.306 C22.177,169.558 21.983,169.846 21.937,170.172 C21.887,170.482 21.943,170.72 22.101,170.887 C22.261,171.054 22.525,171.138 22.897,171.138 Z M31.648,166.41 L31.029,166.372 C30.711,166.372 30.431,166.452 30.187,166.611 C29.944,166.77 29.737,166.993 29.569,167.282 L28.857,172.029 L27.637,172.029 L28.64,165.333 L29.73,165.333 L29.705,166.28 C29.944,165.941 30.216,165.678 30.522,165.49 C30.9000264,165.257409 31.3478827,165.16536 31.787,165.23 C31.872,165.245 31.939,165.26 31.988,165.277 L31.648,166.41 Z M32.224,168.805 C32.389,167.687 32.748,166.808 33.301,166.168 C33.853,165.528 34.547,165.208 35.381,165.208 C35.797,165.208 36.154,165.298 36.451,165.475 C36.748,165.652 36.983,165.908 37.156,166.242 L37.441,165.332 L38.413,165.332 L37.403,172.066 C37.268,172.958 36.92,173.625 36.361,174.069 C35.802,174.512 35.046,174.734 34.093,174.734 C33.783,174.734 33.445,174.688 33.078,174.598 C32.749275,174.52183 32.4326252,174.400689 32.137,174.238 L32.465,173.292 C32.684,173.416 32.953,173.516 33.273,173.592 C33.593,173.668 33.913,173.706 34.235,173.706 C34.805,173.706 35.251,173.569 35.575,173.295 C35.899,173.021 36.102,172.611 36.185,172.066 L36.296,171.306 C36.036,171.586 35.742,171.798 35.414,171.943 C35.086,172.087 34.724,172.159 34.328,172.159 C33.544,172.159 32.958,171.86 32.57,171.262 C32.182,170.663 32.06,169.888 32.205,168.935 L32.224,168.805 Z M33.424,168.935 C33.317,169.632 33.372,170.179 33.588,170.575 C33.805,170.971 34.204,171.169 34.786,171.169 C35.141,171.169 35.456,171.083 35.733,170.912 C36.024392,170.726174 36.2731726,170.480801 36.463,170.192 L36.927,167.127 C36.819726,166.858631 36.6413327,166.624576 36.411,166.45 C36.186,166.283 35.896,166.2 35.541,166.2 C34.984,166.2 34.523,166.445 34.158,166.936 C33.793,167.426 33.554,168.05 33.443,168.805 L33.424,168.935 Z M41.916,172.159 C40.992,172.159 40.297,171.848 39.833,171.225 C39.369,170.602 39.211,169.797 39.36,168.811 L39.403,168.539 C39.547,167.54 39.94,166.735 40.582,166.125 C41.224,165.515 41.951,165.209 42.764,165.209 C43.626,165.209 44.247,165.491 44.627,166.057 C45.007,166.622 45.127,167.359 44.992,168.267 L44.899,168.91 L40.567,168.91 C40.472,169.62 40.542,170.18 40.777,170.59 C41.012,171 41.439,171.206 42.058,171.206 C42.454,171.206 42.822,171.146 43.163,171.026 C43.4828139,170.917895 43.781296,170.754779 44.045,170.544 L44.404,171.336 C44.0949341,171.588127 43.7452973,171.785939 43.37,171.921 C42.953,172.08 42.469,172.159 41.916,172.159 Z M42.621,166.169 C42.213,166.169 41.843,166.333 41.511,166.663 C41.168504,167.010767 40.922138,167.441477 40.796,167.913 L40.808,167.951 L43.822,167.951 L43.834,167.851 C43.909,167.352 43.851,166.947 43.661,166.635 C43.471,166.324 43.125,166.168 42.621,166.168 L42.621,166.169 Z M48.736,163.717 L48.495,165.333 L49.764,165.333 L49.627,166.236 L48.36,166.236 L47.753,170.302 C47.703,170.628 47.733,170.852 47.843,170.974 C47.953,171.096 48.116,171.157 48.335,171.157 C48.4930215,171.150253 48.6492678,171.120957 48.799,171.07 L48.842,171.905 C48.7109607,171.991591 48.5652517,172.053602 48.412,172.088 C48.2373858,172.134191 48.0576179,172.158048 47.877,172.159 C47.398,172.159 47.03,172.009 46.772,171.707 C46.514,171.407 46.435,170.937 46.534,170.302 L47.14,166.236 L46.076,166.236 L46.212,165.333 L47.277,165.333 L47.517,163.717 L48.737,163.717 L48.736,163.717 Z M59.4,168.935 C59.247,169.937 58.899,170.725 58.354,171.299 C57.809,171.872 57.126,172.159 56.305,172.159 C55.872,172.159 55.505,172.069 55.204,171.887 C54.8946543,171.696554 54.6489112,171.41844 54.498,171.088 L54.152,172.029 L53.217,172.029 L54.665,162.374 L55.885,162.374 L55.321,166.124 C55.581,165.828 55.878,165.601 56.213,165.444 C56.5642995,165.283618 56.946863,165.203348 57.333,165.209 C58.125,165.209 58.71,165.542 59.087,166.209 C59.465,166.875 59.575,167.74 59.419,168.805 L59.399,168.935 L59.4,168.935 Z M58.2,168.805 C58.319,168.008 58.274,167.375 58.063,166.905 C57.853,166.435 57.457,166.199 56.875,166.199 C56.512,166.199 56.185,166.293 55.894,166.481 C55.603,166.668 55.356,166.921 55.154,167.239 L54.721,170.123 C54.828,170.453 54.995,170.71 55.222,170.893 C55.449,171.077 55.757,171.169 56.144,171.169 C56.697,171.169 57.15,170.962 57.503,170.547 C57.856,170.132 58.082,169.595 58.181,168.935 L58.199,168.805 L58.2,168.805 Z M64.537,172.029 C64.5298123,171.842415 64.5258118,171.655721 64.525,171.469 C64.525,171.327 64.533,171.181 64.549,171.033 C64.2624311,171.358528 63.9196387,171.629849 63.537,171.834 C63.1637413,172.044019 62.7432759,172.155845 62.315,172.159 C61.642,172.159 61.145,171.979 60.82,171.618 C60.496,171.257 60.382,170.767 60.477,170.148 C60.572,169.488 60.902,168.982 61.467,168.631 C62.032,168.281 62.765,168.105 63.664,168.105 L64.989,168.105 L65.088,167.443 C65.15,167.035 65.078,166.72 64.874,166.499 C64.67,166.279 64.347,166.169 63.906,166.169 C63.55319,166.161888 63.2070035,166.265394 62.916,166.465 C62.631,166.663 62.47,166.901 62.433,167.177 L61.269,167.189 L61.263,167.152 C61.313,166.645 61.607,166.194 62.148,165.8 C62.688,165.406 63.344,165.209 64.116,165.209 C64.846,165.209 65.42,165.404 65.836,165.794 C66.253,166.184 66.41,166.738 66.307,167.455 L65.824,170.68 C65.7850897,170.912184 65.7617045,171.146704 65.754,171.382 C65.747,171.599 65.76,171.815 65.794,172.029 L64.537,172.029 Z M62.649,171.138 C63.07,171.138 63.479,171.022 63.875,170.791 C64.271,170.561 64.545,170.301 64.698,170.011 L64.865,168.928 L63.497,168.928 C63.023,168.928 62.614,169.054 62.272,169.306 C61.929,169.558 61.735,169.846 61.69,170.172 C61.64,170.482 61.695,170.72 61.854,170.887 C62.013,171.054 62.278,171.138 62.649,171.138 Z M71.568,170.228 C71.605,169.952 71.535,169.731 71.358,169.566 C71.18,169.401 70.813,169.254 70.256,169.126 C69.488,168.957 68.914,168.72 68.532,168.415 C68.15,168.109 67.997,167.701 68.071,167.189 C68.149,166.62 68.445,166.148 68.959,165.772 C69.473,165.397 70.103,165.209 70.849,165.209 C71.576,165.209 72.154,165.417 72.583,165.834 C73.012,166.251 73.179,166.729 73.084,167.27 L73.072,167.307 L71.902,167.307 C71.94523,167.01564 71.8463386,166.721197 71.636,166.515 C71.417,166.284 71.112,166.168 70.72,166.168 C70.307,166.168 69.976,166.266 69.726,166.462 C69.476,166.658 69.333,166.888 69.296,167.152 C69.259,167.425 69.321,167.631 69.482,167.772 C69.642,167.912 70.006,168.042 70.572,168.161 C71.368,168.334 71.956,168.58 72.335,168.898 C72.715,169.215 72.869,169.63 72.799,170.142 C72.713,170.756 72.405,171.246 71.877,171.612 C71.349,171.977 70.693,172.159 69.909,172.159 C69.092,172.159 68.459,171.941 68.012,171.503 C67.564,171.066 67.392,170.563 67.495,169.993 L67.508,169.956 L68.678,169.956 C68.64,170.389 68.758,170.706 69.03,170.906 C69.302,171.106 69.64,171.206 70.045,171.206 C70.462,171.206 70.809,171.113 71.085,170.928 C71.361,170.742 71.522,170.508 71.568,170.228 Z M78.196,170.228 C78.233,169.952 78.163,169.731 77.986,169.566 C77.808,169.401 77.441,169.254 76.884,169.126 C76.117,168.957 75.542,168.72 75.16,168.415 C74.779,168.109 74.625,167.701 74.7,167.189 C74.778,166.62 75.074,166.148 75.588,165.772 C76.101,165.397 76.731,165.209 77.478,165.209 C78.204,165.209 78.782,165.417 79.211,165.834 C79.641,166.251 79.807,166.729 79.713,167.27 L79.7,167.307 L78.53,167.307 C78.57323,167.01564 78.4743386,166.721197 78.264,166.515 C78.046,166.284 77.74,166.168 77.348,166.168 C76.936,166.168 76.605,166.266 76.355,166.462 C76.105,166.658 75.962,166.888 75.925,167.152 C75.888,167.425 75.95,167.631 76.11,167.772 C76.271,167.912 76.635,168.042 77.2,168.161 C77.996,168.334 78.584,168.58 78.964,168.898 C79.344,169.215 79.498,169.63 79.428,170.142 C79.341,170.756 79.034,171.246 78.506,171.612 C77.978,171.977 77.322,172.159 76.538,172.159 C75.721,172.159 75.088,171.941 74.641,171.503 C74.193,171.066 74.021,170.563 74.124,169.993 L74.136,169.956 L75.306,169.956 C75.269,170.389 75.386,170.706 75.659,170.906 C75.931,171.106 76.269,171.206 76.674,171.206 C77.09,171.206 77.437,171.113 77.714,170.928 C77.99,170.742 78.151,170.508 78.196,170.228 Z M80.876,168.619 C81.029,167.592 81.418,166.766 82.043,166.143 C82.668,165.52 83.445,165.209 84.373,165.209 C85.264,165.209 85.94,165.532 86.4,166.177 C86.86,166.823 87.018,167.637 86.873,168.619 L86.849,168.755 C86.692,169.791 86.302,170.617 85.679,171.234 C85.056,171.851 84.278,172.159 83.346,172.159 C82.454,172.159 81.779,171.837 81.319,171.194 C80.859,170.55 80.703,169.737 80.851,168.755 L80.876,168.619 Z M82.071,168.755 C81.959,169.49 82.019,170.082 82.251,170.531 C82.481,170.981 82.894,171.206 83.488,171.206 C84.045,171.206 84.514,170.972 84.896,170.504 C85.278,170.035 85.522,169.452 85.629,168.755 L85.654,168.619 C85.761,167.893 85.698,167.303 85.465,166.849 C85.232,166.395 84.821,166.169 84.231,166.169 C83.669,166.169 83.198,166.404 82.816,166.877 C82.435,167.349 82.194,167.93 82.096,168.619 L82.071,168.755 Z" id="Shape" fill="#6D6E71" fill-rule="nonzero"></path>
            <g id="Group" transform="translate(24.000000, 129.000000)" fill="#2A3052" fill-rule="nonzero">
                <path d="M4.899,3.428 L5.006,4.535 C5.44430548,3.76910769 6.26573108,3.30355648 7.148,3.321 C7.933,3.321 8.54,3.535 8.968,4.035 C9.398,4.499 9.611,5.213 9.611,6.177 L9.611,10.818 L8.291,10.818 L8.291,6.213 C8.291,5.57 8.148,5.106 7.898,4.82 C7.648,4.535 7.255,4.427 6.755,4.427 C6.363,4.427 6.041,4.535 5.755,4.713 C5.45744523,4.89832888 5.21205096,5.15645749 5.042,5.463 L5.042,10.818 L3.72,10.818 L3.72,3.464 L4.898,3.428 L4.899,3.428 Z M0.224,0.795 L1.458,0.795 L1.458,10.547 L0.224,10.547 L0.224,0.795 Z M22.022,3.365 L23.326,3.365 L23.326,10.542 L22.022,10.542 L22.022,3.365 Z M22.04,0.105 L22.04,1.4 L23.368,1.4 L23.368,0.105 L22.04,0.105 Z M11.656,3.376 L12.96,3.376 L12.96,10.554 L11.656,10.554 L11.656,3.376 Z M11.674,0.116 L11.674,1.41 L13.002,1.41 L13.002,0.116 L11.674,0.116 Z" id="Shape"></path>
                <path d="M11.631,3.376 L12.935,3.376 L12.935,10.554 L11.631,10.554 L11.631,3.376 Z M11.649,0.116 L11.649,1.41 L12.977,1.41 L12.977,0.116 L11.649,0.116 Z M14.74,4.351 L14.74,3.321 L20.231,3.321 L20.231,4.19 L16.264,9.569 L20.441,9.569 L20.441,10.547 L14.741,10.547 L14.741,9.713 L18.661,4.351 L14.74,4.351 Z M28.415,3.157 C30.573,3.157 31.536,4.731 31.698,6.549 C31.86,8.367 31.096,10.55 28.71,10.736 C26.325,10.923 25.132,8.996 25.132,6.964 C25.132,4.932 26.258,3.157 28.415,3.157 Z M28.364,4.194 C27.56,4.194 26.61,4.677 26.488,6.648 C26.366,8.618 27.16,9.7 28.426,9.7 C29.692,9.7 30.361,8.55 30.361,6.648 C30.361,4.745 29.167,4.194 28.364,4.194 Z" id="Shape"></path>
            </g>
            <g id="Group" transform="translate(180.000000, 158.000000)" fill="#FFFFFF" fill-rule="nonzero">
                <path d="M2.62,7.914 L0.4,7.914 L0.4,0.566 L2.62,0.566 L2.62,7.914 Z M2.62,11.78 L0.4,11.78 L0.4,9.806 L2.62,9.806 L2.62,11.78 Z" id="Shape"></path>
            </g>
            <path d="M163.535,161.621 L165.132,161.621 L165.212,162.784 C165.867,161.809 166.715,161.375 167.758,161.483 C168.362,161.546 169.635,161.743 170.015,163.458 C170.155,164.087 170.125,165.149 170.115,166.593 C170.11,167.153 170.11,168.123 170.115,169.503 L168.362,169.503 L168.362,164.566 C168.362,163.986 168.199,163.337 167.712,163.092 C167.043,162.754 165.783,162.896 165.278,163.746 L165.278,169.504 L163.535,169.504 L163.535,161.621 Z M116.303,165.339 L116.303,164.045 L120.217,164.045 C120.261,166.3 120.261,167.615 120.217,167.989 C119.887,168.977 115.978,170.771 113.454,168.495 C112.702,167.816 112.348,167.065 112.154,165.926 C112.146,164.764 112.125,163.673 112.134,162.642 C112.324,161.378 112.748,160.66 113.089,160.252 C114.329,158.769 116.307,158.45 118.046,159.05 C119.784,159.651 120.01,160.9 120.151,162.122 C119.748,162.122 119.536,162.104 118.448,162.122 C118.558,161.434 117.933,160.106 116.302,160.179 C114.67,160.252 113.9,161.592 113.9,162.709 C113.9,163.826 113.842,163.451 113.9,165.669 C113.974,168.218 117.029,168.902 118.448,167.541 L118.5,165.371 L116.303,165.339 Z M175.089,161.48 C177.273,161.48 178.458,162.812 178.757,164.807 C179.057,166.802 177.98,169.62 175.243,169.62 C172.505,169.62 171.62,167.539 171.62,165.385 C171.62,163.231 172.905,161.481 175.089,161.481 L175.089,161.48 Z M175.109,162.879 C174.459,162.94 173.309,163.395 173.376,165.549 C173.443,167.702 174.385,168.208 175.109,168.208 C175.832,168.208 177.053,168.008 177.053,165.558 C177.053,163.108 175.758,162.818 175.109,162.878 L175.109,162.879 Z" id="Shape" fill="#FFFFFF" fill-rule="nonzero"></path>
            <path d="M175.109,162.879 C174.459,162.94 173.309,163.395 173.376,165.549 C173.443,167.702 174.385,168.208 175.109,168.208 C175.832,168.208 177.053,168.008 177.053,165.558 C177.053,163.108 175.758,162.818 175.109,162.878 L175.109,162.879 Z" id="Path"></path>
            <path d="M122.143,161.682 C122.853,161.704 123.415,161.704 123.83,161.682 L123.83,166.117 C123.83,167.877 124.476,168.179 125.104,168.239 C125.828962,168.303849 126.531749,167.968933 126.938,167.365 C126.953,165.341 126.953,163.447 126.938,161.682 L128.746,161.682 L128.746,169.512 L127.2,169.512 L127.035,168.362 C126.489,169.303 125.633,169.722 124.467,169.619 C122.717,169.464 122.143,167.971 122.143,166.584 C122.143,164.164 122.105,162.903 122.143,161.682 Z M132.438,163.843 C131.903,163.839 131.342,163.839 130.755,163.843 C130.755,162.998 131.359,161.467 133.776,161.467 C136.194,161.467 136.774,163.127 136.84,163.485 C136.905,163.843 136.671,168.857 137.177,169.427 L135.381,169.429 C135.233,168.921 135.159,168.546 135.159,168.303 C134.879,168.645 134.396,169.27 133.656,169.5 C132.916,169.73 131.233,169.853 130.544,168.238 C130.09,167.175 130.38,165.978 131.234,165.43 C132.643,164.524 134.58,164.827 135.159,164.827 C135.233,163.212 134.751,162.836 133.656,162.836 C132.926,162.836 132.52,163.171 132.438,163.843 Z M135.158,165.932 C134.628,165.921 134.269,165.919 133.384,165.946 C132.679,166.008 132.052,166.53 132.105,167.272 C132.169,168.158 133.175,168.32 133.964,168.065 C134.625,167.851 135.086,167.297 135.158,167.062 L135.158,165.932 Z M148.748,163.843 C148.212,163.839 147.651,163.839 147.065,163.843 C147.065,162.998 147.669,161.467 150.086,161.467 C152.504,161.467 153.084,163.127 153.15,163.485 C153.215,163.843 152.981,168.857 153.487,169.427 L151.691,169.429 C151.543,168.921 151.468,168.546 151.468,168.303 C151.188,168.645 150.706,169.27 149.966,169.5 C149.226,169.73 147.543,169.853 146.854,168.238 C146.4,167.175 146.69,165.978 147.544,165.43 C148.953,164.524 150.89,164.827 151.468,164.827 C151.543,163.212 151.061,162.836 149.966,162.836 C149.236,162.836 148.83,163.171 148.748,163.843 Z M151.468,165.932 C150.937,165.921 150.579,165.919 149.694,165.946 C148.989,166.008 148.361,166.53 148.414,167.272 C148.479,168.158 149.485,168.32 150.274,168.065 C150.934,167.851 151.396,167.297 151.468,167.062 L151.468,165.932 Z M143.42,158.23 L145.123,158.23 L145.123,169.515 L143.723,169.515 C143.644871,169.183225 143.573855,168.849815 143.51,168.515 C143.23,169.295 140.383,170.67 138.974,168.342 C137.796,166.397 138.444,163.783 139.044,162.837 C139.494,162.127 141.32,160.303 143.42,162.534 C143.423,159.913 143.423,158.478 143.42,158.229 L143.42,158.23 Z M143.43,163.92 C143.158,163.06 141.333,162.516 140.6,163.57 C139.868,164.623 139.902,165.974 140.32,167.209 C140.74,168.444 142.532,168.68 143.43,167.321 L143.43,163.921 L143.43,163.92 Z M160.074,162.673 L160.25,161.681 L161.684,161.681 L161.684,169.625 C161.689,172.394 158.58,173.455 155.724,172.071 C155.887,171.255 155.977,170.798 155.994,170.701 C157.238,171.117 160.335,172.157 159.941,168.711 C158.163,170.532 156.151,169.428 155.454,168.211 C154.686,166.869 154.186,162.863 156.658,161.783 C158.082,161.161 159.221,161.457 160.074,162.673 Z M159.925,163.884 C159.587,163.373 159.37,162.946 158.235,162.946 C157.098,162.946 156.387,164.34 156.634,166.479 C156.88,168.619 159.203,168.619 159.925,167.266 L159.925,163.884 Z" id="Shape" fill="#FFFFFF" fill-rule="nonzero"></path>
            <g id="Group" transform="translate(267.000000, 61.000000)" fill="#2A3052" fill-rule="nonzero">
                <path d="M11.767,3.709 L11.861,4.679 C12.2452725,4.00803039 12.9649262,3.60008607 13.738,3.615 C14.427,3.615 14.959,3.803 15.335,4.241 C15.71,4.648 15.898,5.274 15.898,6.119 L15.898,10.187 L14.74,10.187 L14.74,6.15 C14.74,5.587 14.615,5.18 14.396,4.93 C14.176,4.68 13.832,4.585 13.394,4.585 C13.05,4.585 12.768,4.679 12.518,4.835 C12.268,4.992 12.048,5.211 11.892,5.493 L11.892,10.187 L10.734,10.187 L10.734,3.74 L11.767,3.709 Z M6.29,1.373 L6.29,2.283 L1.925,2.283 L1.925,5.374 L5.643,5.374 L5.643,6.311 L1.925,6.311 L1.925,10.268 L0.643,10.268 L0.643,1.373 L6.29,1.373 Z M22.659,7.137 L18.508,7.137 C18.508,7.907 18.665,8.465 18.98,8.808 C19.393,9.26 19.828,9.423 20.425,9.364 C21.467,9.26 21.669,8.981 22.1,8.734 L22.54,9.488 C22.026,10.018 21.204,10.284 20.075,10.284 C18.381,10.284 17.349,8.88 17.281,7.209 C17.214,5.539 17.881,3.599 20.075,3.519 C21.935,3.568 22.795,4.774 22.659,7.137 Z M21.493,6.219 C21.481,5.043 21.009,4.456 20.076,4.456 C19.143,4.456 18.634,5.043 18.546,6.219 L21.493,6.219 Z M7.64,3.718 L8.805,3.718 L8.805,10.133 L7.639,10.133 L7.64,3.718 Z M7.655,0.805 L7.655,1.962 L8.842,1.962 L8.842,0.805 L7.655,0.805 Z" id="Shape"></path>
            </g>
            <polygon id="Path" fill="#000000" points="84.738 17.54 80.432 17.54 80.432 22.2 78.182 22.2 78.182 10.985 85.523 10.985 85.523 12.718 80.432 12.718 80.432 15.807 84.738 15.807"></polygon>
        </g>
    </g>
</svg>