<svg width="301" height="200" viewBox="0 0 301 200" xmlns="http://www.w3.org/2000/svg"><title>Italian falls</title><g fill="none" fill-rule="evenodd"><path fill="#F1F2F2" fill-rule="nonzero" d="M.395.406h300v199h-300z"/><path d="M39.52 55.781v19.375h36.125V55.781H39.52zm0-1h36.125V34.406h1v20.375h36.125V34.406h1v20.375h36.125V34.406h1v20.375h36.125V34.406h1v20.375h36.125V34.406h1v20.375h36.125V34.406h1v20.375h37.625v1H262.27v19.375h37.625v1H262.27v19.375h37.625v1H262.27v19.375h37.625v1H262.27v19.375h37.625v1H262.27v19.375h37.625v1H262.27v19.375h37.625v1H262.27v21.375h-1v-21.375h-36.125v21.375h-1v-21.375H188.02v21.375h-1v-21.375h-36.125v21.375h-1v-21.375H113.77v21.375h-1v-21.375H76.645v21.375h-1v-21.375H39.52v21.375h-1v-21.375H1.895v-1H38.52v-19.375H1.895v-1H38.52v-19.375H1.895v-1H38.52v-19.375H1.895v-1H38.52V96.531H1.895v-1H38.52V76.156H1.895v-1H38.52V55.781H1.895v-1H38.52V34.406h1v20.375zm221.75 1h-36.125v19.375h36.125V55.781zm-37.125 0H188.02v19.375h36.125V55.781zm-37.125 0h-36.125v19.375h36.125V55.781zm-37.125 0H113.77v19.375h36.125V55.781zm-37.125 0H76.645v19.375h36.125V55.781zM39.52 76.156v19.375h36.125V76.156H39.52zm221.75 0h-36.125v19.375h36.125V76.156zm-37.125 0H188.02v19.375h36.125V76.156zm-37.125 0h-36.125v19.375h36.125V76.156zm-37.125 0H113.77v19.375h36.125V76.156zm-37.125 0H76.645v19.375h36.125V76.156zM39.52 96.531v19.375h36.125V96.531H39.52zm221.75 0h-36.125v19.375h36.125V96.531zm-37.125 0H188.02v19.375h36.125V96.531zm-37.125 0h-36.125v19.375h36.125V96.531zm-37.125 0H113.77v19.375h36.125V96.531zm-37.125 0H76.645v19.375h36.125V96.531zm-73.25 20.375v19.375h36.125v-19.375H39.52zm221.75 0h-36.125v19.375h36.125v-19.375zm-37.125 0H188.02v19.375h36.125v-19.375zm-37.125 0h-36.125v19.375h36.125v-19.375zm-37.125 0H113.77v19.375h36.125v-19.375zm-37.125 0H76.645v19.375h36.125v-19.375zm-73.25 20.375v19.375h36.125v-19.375H39.52zm221.75 0h-36.125v19.375h36.125v-19.375zm-37.125 0H188.02v19.375h36.125v-19.375zm-37.125 0h-36.125v19.375h36.125v-19.375zm-37.125 0H113.77v19.375h36.125v-19.375zm-37.125 0H76.645v19.375h36.125v-19.375zm-73.25 20.375v19.375h36.125v-19.375H39.52zm221.75 0h-36.125v19.375h36.125v-19.375zm-37.125 0H188.02v19.375h36.125v-19.375zm-37.125 0h-36.125v19.375h36.125v-19.375zm-37.125 0H113.77v19.375h36.125v-19.375zm-37.125 0H76.645v19.375h36.125v-19.375z" fill="#DFDEDE" fill-rule="nonzero"/><path stroke="#C2C2C2" stroke-width="2" d="M1.395 1.406h298v197h-298z"/><path fill="#C2C2C2" fill-rule="nonzero" d="M.395 33.406h300v2h-300z"/><g transform="translate(3.395 94.846)"><path d="M.266 22.899h293.202" stroke="#2A3052" stroke-width="1.224" stroke-linejoin="round"/><path stroke="#2A3052" stroke-width="3.672" stroke-linecap="round" stroke-linejoin="round" d="M35.924 22.899L69.95 47.696 105.152 8.62l33.607 36.19L184.025.418l43.785 90.38L258.228 64.1"/><path d="M249.19 34.67h-2.544l-1.557 7.824h-1.14l1.557-7.823h-2.544l.19-.95h6.266l-.228.95zm2.468 7.824V42c0-.152.038-.266.038-.38-.266.304-.57.532-.911.722-.342.19-.684.304-1.026.304-.57 0-1.025-.19-1.29-.532-.266-.342-.342-.836-.228-1.443.113-.646.455-1.177.949-1.481.532-.342 1.177-.494 1.975-.494h1.1l.115-.645c.076-.418.038-.722-.114-.912-.152-.19-.456-.304-.836-.304-.341 0-.645.114-.911.304a1.23 1.23 0 0 0-.494.684h-1.1v-.038c.075-.494.379-.95.872-1.33.532-.38 1.14-.569 1.823-.569.646 0 1.14.19 1.52.57.379.38.493.911.341 1.595l-.608 3.152-.114.683a1.843 1.843 0 0 0 0 .646h-1.1v-.038zm-1.519-.874a2.225 2.225 0 0 0 1.747-.95l.228-1.214h-1.14c-.38 0-.759.114-1.063.38a1.515 1.515 0 0 0-.57.835c-.075.304-.037.532.077.721.114.19.38.228.721.228zm8.127-4.595l-.646-.038c-.258 0-.51.08-.721.228a1.595 1.595 0 0 0-.57.646l-.911 4.633h-1.14l1.292-6.532h1.025l-.076.873c.194-.296.454-.543.76-.721.265-.152.57-.266.91-.266.077 0 .153 0 .267.038.114.038.152.038.19.038l-.38 1.101zm.342 2.203c.227-1.101.57-1.975 1.063-2.544.494-.57 1.101-.836 1.86-.836.342 0 .684.076.95.228.266.152.494.38.684.683l.265-.797h.988l-1.253 6.418c-.19.911-.532 1.595-1.064 2.05-.531.456-1.215.684-2.088.684-.31 0-.618-.052-.912-.152a2.408 2.408 0 0 1-.835-.342l.456-.911c.151.114.38.228.645.304.266.076.532.114.798.114.493 0 .873-.152 1.177-.456.332-.346.557-.782.645-1.253l.076-.456a2.23 2.23 0 0 1-1.633.646c-.683 0-1.215-.304-1.557-.95a3.338 3.338 0 0 1-.265-2.316v-.114zm1.139.152c-.152.683-.114 1.253.076 1.67.19.418.57.646 1.063.646.266 0 .532-.076.76-.228.227-.152.417-.38.607-.683l.608-3.038a1.986 1.986 0 0 0-.456-.646 1.284 1.284 0 0 0-.76-.228c-.455 0-.873.228-1.177.646a4.937 4.937 0 0 0-.683 1.747l-.038.114zm7.519 3.266c-.798 0-1.405-.304-1.823-.912-.418-.607-.532-1.405-.38-2.354l.038-.266c.152-.95.532-1.747 1.14-2.355.607-.607 1.253-.91 1.936-.91.798 0 1.367.265 1.671.797.342.531.456 1.253.304 2.126l-.114.76h-3.873c-.076.645-.038 1.177.19 1.595.19.38.57.57 1.063.57a2.852 2.852 0 0 0 1.785-.646l.341.76c-.228.227-.531.417-.911.569-.418.19-.874.266-1.367.266zm.76-5.849c-.342 0-.646.152-.95.494-.304.342-.532.76-.684 1.253v.038h2.62l.039-.152c.076-.493.038-.873-.152-1.177-.152-.304-.456-.456-.874-.456zm5.847-2.392l-.303 1.557h1.1l-.189.873h-1.101l-.76 3.95c-.076.304-.076.531.038.645.076.114.228.152.418.152.076 0 .19 0 .342-.038a.715.715 0 0 0 .304-.076v.798c-.114.076-.266.114-.494.19-.228.038-.418.076-.646.076-.417 0-.721-.152-.95-.456-.227-.304-.265-.76-.151-1.367l.76-3.95h-.95l.19-.873h.95l.303-1.557h1.14v.076z" fill="#6D6E71" fill-rule="nonzero"/><path d="M185.62 54.19h-35.392l-5.469-8.317-5.468 8.317H103.9c-2.658 0-4.785 2.164-4.785 4.86v25.102c0 2.696 2.127 4.86 4.785 4.86h81.683c2.659 0 4.785-2.164 4.785-4.86V59.05c0-2.659-2.126-4.861-4.747-4.861z" fill="#E88024" fill-rule="nonzero"/><ellipse cx="8.544" cy="8.772" rx="8.203" ry="8.582" opacity=".6" transform="translate(27.38 14.127)" fill="#FFF" fill-rule="nonzero"/><ellipse stroke="#E88024" stroke-width="2.448" cx="35.924" cy="22.899" rx="8.203" ry="8.582"/><ellipse cx="8.595" cy="9.392" rx="8.203" ry="8.582" opacity=".6" transform="translate(249.633 54.101)" fill="#FFF" fill-rule="nonzero"/><ellipse stroke="#E88024" stroke-width="2.448" cx="258.228" cy="63.494" rx="8.203" ry="8.582"/></g><g fill="#2A3052" fill-rule="nonzero"><path d="M27.682 140.165l.109 1.12a2.444 2.444 0 0 1 2.169-1.229c.795 0 1.41.217 1.844.723.434.47.65 1.193.65 2.17v4.7h-1.337v-4.664c0-.651-.145-1.121-.398-1.41-.253-.29-.65-.398-1.157-.398a1.85 1.85 0 0 0-1.012.29c-.29.18-.542.433-.723.759v5.423h-1.338V140.2l1.193-.036zM22.948 137.499h1.25v9.875h-1.25zM45.022 140.101h1.32v7.268h-1.32zM45.04 136.8v1.31h1.345v-1.31zM34.525 140.112h1.32v7.27h-1.32zM34.543 136.81v1.312h1.345v-1.311z"/><path d="M34.5 140.112h1.32v7.27H34.5zM34.518 136.81v1.312h1.345v-1.311zM37.649 141.1v-1.044h5.56v.88l-4.018 5.448h4.23v.99H37.65v-.845l3.97-5.43zM51.496 139.89c2.185 0 3.16 1.594 3.325 3.435.164 1.841-.61 4.052-3.026 4.241-2.416.189-3.623-1.762-3.623-3.82s1.14-3.856 3.324-3.856zm-.052 1.051c-.814 0-1.776.489-1.9 2.484-.122 1.996.682 3.092 1.964 3.092s1.959-1.165 1.959-3.092c0-1.926-1.21-2.484-2.023-2.484z"/></g><g fill="#2A3052" fill-rule="nonzero"><path d="M262.334 179.457l.095.982a2.142 2.142 0 0 1 1.902-1.077c.697 0 1.236.19 1.616.634.38.412.57 1.046.57 1.901v4.12h-1.172v-4.088c0-.57-.127-.983-.349-1.236-.221-.254-.57-.349-1.014-.349-.348 0-.634.095-.887.254a1.83 1.83 0 0 0-.634.665v4.754h-1.173v-6.528l1.046-.032zM256.788 177.092v.921h-4.42v3.13h3.765v.949h-3.765v4.007h-1.298v-9.007zM273.364 182.929h-4.203c0 .78.159 1.344.477 1.692.42.457.86.623 1.464.562 1.056-.105 1.26-.388 1.696-.637l.445.763c-.52.537-1.352.806-2.495.806-1.715 0-2.761-1.421-2.83-3.113-.068-1.692.608-3.656 2.83-3.738 1.883.05 2.755 1.272 2.616 3.665zm-1.18-.93c-.012-1.191-.49-1.786-1.435-1.786-.945 0-1.461.595-1.549 1.785h2.984zM258.155 179.466h1.18v6.496h-1.18zM258.17 176.516v1.171h1.203v-1.171z"/></g><g fill-rule="nonzero"><g fill="#FFF"><path d="M183.537 168.146h-2.249v-7.44h2.25zM183.537 172.06h-2.249v-1.998h2.25z"/></g><path d="M164.21 163.799h1.618l.081 1.178c.662-.988 1.522-1.427 2.578-1.318.611.063 1.9.264 2.285 2 .141.637.111 1.712.1 3.174-.003.568-.003 1.55 0 2.948h-1.774v-5c0-.588-.164-1.244-.657-1.493-.678-.342-1.954-.198-2.466.663v5.83h-1.764V163.8zM116.38 167.563v-1.31h3.964c.045 2.284.045 3.615 0 3.994-.334 1-4.293 2.818-6.849.512-.761-.687-1.12-1.448-1.315-2.6-.01-1.178-.03-2.282-.022-3.327.193-1.28.622-2.007.967-2.42 1.257-1.502 3.26-1.825 5.02-1.216 1.76.608 1.99 1.873 2.132 3.11-.408 0-.623-.018-1.724 0 .111-.696-.522-2.042-2.174-1.968-1.652.074-2.432 1.432-2.432 2.562 0 1.131-.06.752 0 2.999.075 2.58 3.169 3.272 4.606 1.894l.052-2.197-2.225-.033z" fill="#FFF"/><path d="M175.91 163.657c2.212 0 3.412 1.348 3.715 3.368.303 2.02-.787 4.874-3.559 4.874-2.772 0-3.668-2.108-3.668-4.289 0-2.18 1.3-3.953 3.512-3.953zm.02 1.415c-.657.062-1.822.523-1.754 2.703.068 2.181 1.021 2.694 1.754 2.694.733 0 1.97-.203 1.97-2.684 0-2.481-1.312-2.775-1.97-2.713z" fill="#2A3052"/><path d="M175.91 163.657c2.212 0 3.412 1.348 3.715 3.368.303 2.02-.787 4.874-3.559 4.874-2.772 0-3.668-2.108-3.668-4.289 0-2.18 1.3-3.953 3.512-3.953zm.02 1.415c-.657.062-1.822.523-1.754 2.703.068 2.181 1.021 2.694 1.754 2.694.733 0 1.97-.203 1.97-2.684 0-2.481-1.312-2.775-1.97-2.713zM122.295 163.86c.718.023 1.287.023 1.708 0v4.491c0 1.782.654 2.088 1.29 2.15a2.02 2.02 0 0 0 1.857-.885c.015-2.05.015-3.968 0-5.755h1.83v7.929h-1.565l-.167-1.165c-.553.953-1.42 1.377-2.6 1.273-1.772-.157-2.353-1.669-2.353-3.073 0-2.452-.04-3.728 0-4.964zM132.72 166.048c-.543-.003-1.11-.003-1.705 0 0-.855.612-2.405 3.06-2.405s3.036 1.682 3.102 2.043c.066.362-.17 5.44.342 6.017l-1.82.002c-.15-.514-.224-.894-.224-1.14-.284.347-.772.98-1.522 1.212-.75.233-2.453.357-3.15-1.277-.46-1.077-.167-2.29.697-2.844 1.427-.917 3.39-.61 3.975-.61.075-1.636-.413-2.017-1.522-2.017-.74 0-1.15.34-1.234 1.02zm2.754 2.116c-.538-.011-.9-.013-1.796.015-.714.063-1.35.59-1.296 1.342.065.897 1.085 1.062 1.883.803.67-.217 1.136-.777 1.209-1.016v-1.144zM149.236 166.048c-.542-.003-1.11-.003-1.705 0 0-.855.612-2.405 3.06-2.405 2.449 0 3.036 1.682 3.102 2.043.067.362-.17 5.44.342 6.017l-1.819.002c-.15-.514-.225-.894-.225-1.14-.284.347-.772.98-1.522 1.212-.75.233-2.453.357-3.15-1.277-.46-1.077-.167-2.29.697-2.844 1.428-.917 3.39-.61 3.975-.61.075-1.636-.413-2.017-1.522-2.017-.739 0-1.15.34-1.233 1.02zm2.754 2.116c-.537-.011-.9-.013-1.796.015-.714.063-1.35.59-1.295 1.342.064.897 1.084 1.062 1.882.803.67-.217 1.137-.777 1.21-1.016v-1.144zM143.84 160.364h1.726v11.428h-1.419a24.18 24.18 0 0 1-.215-1.013c-.284.79-3.167 2.183-4.594-.174-1.192-1.97-.537-4.617.07-5.575.456-.719 2.306-2.566 4.433-.306.002-2.655.002-4.108 0-4.36zm.01 5.763c-.275-.871-2.122-1.422-2.864-.355-.742 1.066-.708 2.434-.284 3.685.425 1.251 2.24 1.49 3.149.114v-3.444zM160.706 164.864l.178-1.005h1.452v8.045c.005 2.804-3.144 3.878-6.037 2.477.166-.827.258-1.29.274-1.387 1.26.421 4.397 1.474 3.998-2.017-1.8 1.846-3.84.728-4.544-.504-.778-1.36-1.285-5.416 1.219-6.51 1.442-.63 2.595-.33 3.46.901zm-.151 1.227c-.343-.519-.562-.951-1.713-.951-1.15 0-1.87 1.412-1.62 3.579.25 2.167 2.601 2.167 3.333.796v-3.424z" fill="#FFF"/></g><path d="M19.64 24.438h-2.424V12.351h2.424v12.085zm4.432-8.982l.108 1.287c.3-.46.667-.817 1.104-1.071a2.866 2.866 0 0 1 1.47-.382c.907 0 1.615.285 2.124.855.51.57.764 1.464.764 2.681v5.611H27.21v-5.603c0-.603-.122-1.03-.365-1.282-.244-.252-.612-.378-1.104-.378a1.774 1.774 0 0 0-1.502.747v6.517h-2.424v-8.982h2.257zm8.01 8.982v-7.28h-1.336v-1.702h1.337v-.996c0-1.007.29-1.783.871-2.328.581-.545 1.397-.818 2.449-.818.205 0 .414.015.627.046.213.03.446.073.701.128l-.208 1.802a11.985 11.985 0 0 0-.385-.059 3.34 3.34 0 0 0-.436-.024c-.393 0-.69.107-.893.323-.202.216-.303.526-.303.93v.996h1.785v1.702h-1.785v7.28h-2.423zm9.422.174c-1.295 0-2.33-.415-3.105-1.245-.774-.83-1.162-1.885-1.162-3.163v-.332c0-1.334.367-2.432 1.1-3.295.733-.864 1.717-1.292 2.951-1.287 1.212 0 2.153.365 2.822 1.096.67.73 1.005 1.718 1.005 2.963v1.32h-5.362l-.017.05c.044.592.242 1.079.593 1.46.352.383.83.573 1.432.573.537 0 .983-.054 1.337-.161a6.142 6.142 0 0 0 1.162-.51l.656 1.493c-.366.299-.844.547-1.436.743a6.249 6.249 0 0 1-1.976.295zm-.216-7.454c-.448 0-.802.171-1.062.514-.26.343-.42.794-.482 1.353l.025.042h2.972v-.216c0-.515-.12-.925-.361-1.233-.241-.307-.605-.46-1.092-.46zm9.961.382l-.888-.025c-.36 0-.656.074-.888.224-.233.15-.41.36-.532.63v6.069h-2.415v-8.982h2.25l.107 1.328c.21-.47.483-.837.818-1.1.335-.263.72-.394 1.158-.394.122 0 .234.01.336.03.103.018.206.042.311.07l-.257 2.15zm3.777 6.898h-2.424v-8.982h2.424v8.982zm0-11.132h-2.424v-1.818h2.424v1.818zm1.619 6.558c0-1.34.373-2.437 1.12-3.291.747-.855 1.782-1.283 3.105-1.283 1.328 0 2.368.426 3.12 1.278.753.853 1.13 1.951 1.13 3.296v.174c0 1.35-.375 2.45-1.125 3.3-.75.85-1.786 1.274-3.109 1.274-1.328 0-2.367-.425-3.117-1.274-.75-.85-1.124-1.95-1.124-3.3v-.174zm2.415.174c0 .82.144 1.476.432 1.972.288.495.752.742 1.394.742.626 0 1.084-.249 1.374-.747.29-.498.436-1.153.436-1.967v-.174c0-.797-.147-1.447-.44-1.95-.293-.504-.755-.756-1.386-.756-.626 0-1.084.253-1.374.76-.29.506-.436 1.154-.436 1.946v.174zm12.277-2.498l-.888-.025c-.36 0-.656.074-.888.224-.233.15-.41.36-.532.63v6.069h-2.415v-8.982h2.25l.107 1.328c.21-.47.483-.837.818-1.1.335-.263.72-.394 1.158-.394.122 0 .234.01.336.03.102.018.206.042.311.07l-.257 2.15zm5.205 7.072c-1.295 0-2.33-.415-3.105-1.245-.775-.83-1.162-1.885-1.162-3.163v-.332c0-1.334.367-2.432 1.1-3.295.733-.864 1.717-1.292 2.95-1.287 1.213 0 2.153.365 2.823 1.096.67.73 1.004 1.718 1.004 2.963v1.32H74.79l-.017.05c.045.592.243 1.079.594 1.46.351.383.829.573 1.432.573.537 0 .982-.054 1.336-.161a6.142 6.142 0 0 0 1.162-.51l.656 1.493c-.365.299-.844.547-1.436.743a6.249 6.249 0 0 1-1.975.295zm-.216-7.454c-.448 0-.803.171-1.063.514-.26.343-.42.794-.481 1.353l.025.042h2.971v-.216c0-.515-.12-.925-.36-1.233-.241-.307-.605-.46-1.092-.46z" fill="#000"/></g></svg>