<?xml version="1.0" encoding="UTF-8"?>
<svg width="299px" height="197px" viewBox="0 0 299 197" version="1.1" xmlns="http://www.w3.org/2000/svg" xmlns:xlink="http://www.w3.org/1999/xlink">
    <!-- Generator: Sketch 52.6 (67491) - http://www.bohemiancoding.com/sketch -->
    <title>goes-outside</title>
    <desc>Created with Sketch.</desc>
    <g id="Page-1" stroke="none" stroke-width="1" fill="none" fill-rule="evenodd">
        <g id="goes-outside">
            <polygon id="Path" fill="#F1F2F2" points="0 0 299 0 299 197 0 197"></polygon>
            <path d="M1.99333333,1.9798995 L1.99333333,195.020101 L297.006667,195.020101 L297.006667,1.9798995 L1.99333333,1.9798995 Z M299,0 L299,197 L0,197 L0,0 L299,0 Z" id="Path" fill="#C2C2C2" fill-rule="nonzero"></path>
            <path d="M41.6149329,54.8568182 L41.6149329,73.7621212 L76.7701342,73.7621212 L76.7701342,54.8568182 L41.6149329,54.8568182 Z M41.6149329,53.8810606 L76.7701342,53.8810606 L76.7701342,34 L77.7432886,34 L77.7432886,53.8810606 L112.89849,53.8810606 L112.89849,34 L113.871644,34 L113.871644,53.8810606 L149.026846,53.8810606 L149.026846,34 L150,34 L150,53.8810606 L185.155201,53.8810606 L185.155201,34 L186.128356,34 L186.128356,53.8810606 L221.283557,53.8810606 L221.283557,34 L222.256711,34 L222.256711,53.8810606 L257.411913,53.8810606 L257.411913,34 L258.385067,34 L258.385067,53.8810606 L295,53.8810606 L295,54.8568182 L258.385067,54.8568182 L258.385067,73.7621212 L295,73.7621212 L295,74.7378788 L258.385067,74.7378788 L258.385067,93.6431818 L295,93.6431818 L295,94.6189394 L258.385067,94.6189394 L258.385067,113.524242 L295,113.524242 L295,114.5 L258.385067,114.5 L258.385067,133.405303 L295,133.405303 L295,134.381061 L258.385067,134.381061 L258.385067,153.286364 L295,153.286364 L295,154.262121 L258.385067,154.262121 L258.385067,173.167424 L295,173.167424 L295,174.143182 L258.385067,174.143182 L258.385067,195 L257.411913,195 L257.411913,174.143182 L222.256711,174.143182 L222.256711,195 L221.283557,195 L221.283557,174.143182 L186.128356,174.143182 L186.128356,195 L185.155201,195 L185.155201,174.143182 L150,174.143182 L150,195 L149.026846,195 L149.026846,174.143182 L113.871644,174.143182 L113.871644,195 L112.89849,195 L112.89849,174.143182 L77.7432886,174.143182 L77.7432886,195 L76.7701342,195 L76.7701342,174.143182 L41.6149329,174.143182 L41.6149329,195 L40.6417785,195 L40.6417785,174.143182 L5,174.143182 L5,173.167424 L40.6417785,173.167424 L40.6417785,154.262121 L5,154.262121 L5,153.286364 L40.6417785,153.286364 L40.6417785,134.381061 L5,134.381061 L5,133.405303 L40.6417785,133.405303 L40.6417785,114.5 L5,114.5 L5,113.524242 L40.6417785,113.524242 L40.6417785,94.6189394 L5,94.6189394 L5,93.6431818 L40.6417785,93.6431818 L40.6417785,74.7378788 L5,74.7378788 L5,73.7621212 L40.6417785,73.7621212 L40.6417785,54.8568182 L5,54.8568182 L5,53.8810606 L40.6417785,53.8810606 L40.6417785,34 L41.6149329,34 L41.6149329,53.8810606 Z M257.411913,54.8568182 L222.256711,54.8568182 L222.256711,73.7621212 L257.411913,73.7621212 L257.411913,54.8568182 Z M221.283557,54.8568182 L186.128356,54.8568182 L186.128356,73.7621212 L221.283557,73.7621212 L221.283557,54.8568182 Z M185.155201,54.8568182 L150,54.8568182 L150,73.7621212 L185.155201,73.7621212 L185.155201,54.8568182 Z M149.026846,54.8568182 L113.871644,54.8568182 L113.871644,73.7621212 L149.026846,73.7621212 L149.026846,54.8568182 Z M112.89849,54.8568182 L77.7432886,54.8568182 L77.7432886,73.7621212 L112.89849,73.7621212 L112.89849,54.8568182 Z M41.6149329,74.7378788 L41.6149329,93.6431818 L76.7701342,93.6431818 L76.7701342,74.7378788 L41.6149329,74.7378788 Z M257.411913,74.7378788 L222.256711,74.7378788 L222.256711,93.6431818 L257.411913,93.6431818 L257.411913,74.7378788 Z M221.283557,74.7378788 L186.128356,74.7378788 L186.128356,93.6431818 L221.283557,93.6431818 L221.283557,74.7378788 Z M185.155201,74.7378788 L150,74.7378788 L150,93.6431818 L185.155201,93.6431818 L185.155201,74.7378788 Z M149.026846,74.7378788 L113.871644,74.7378788 L113.871644,93.6431818 L149.026846,93.6431818 L149.026846,74.7378788 Z M112.89849,74.7378788 L77.7432886,74.7378788 L77.7432886,93.6431818 L112.89849,93.6431818 L112.89849,74.7378788 Z M41.6149329,94.6189394 L41.6149329,113.524242 L76.7701342,113.524242 L76.7701342,94.6189394 L41.6149329,94.6189394 Z M257.411913,94.6189394 L222.256711,94.6189394 L222.256711,113.524242 L257.411913,113.524242 L257.411913,94.6189394 Z M221.283557,94.6189394 L186.128356,94.6189394 L186.128356,113.524242 L221.283557,113.524242 L221.283557,94.6189394 Z M185.155201,94.6189394 L150,94.6189394 L150,113.524242 L185.155201,113.524242 L185.155201,94.6189394 Z M149.026846,94.6189394 L113.871644,94.6189394 L113.871644,113.524242 L149.026846,113.524242 L149.026846,94.6189394 Z M112.89849,94.6189394 L77.7432886,94.6189394 L77.7432886,113.524242 L112.89849,113.524242 L112.89849,94.6189394 Z M41.6149329,114.5 L41.6149329,133.405303 L76.7701342,133.405303 L76.7701342,114.5 L41.6149329,114.5 Z M257.411913,114.5 L222.256711,114.5 L222.256711,133.405303 L257.411913,133.405303 L257.411913,114.5 Z M221.283557,114.5 L186.128356,114.5 L186.128356,133.405303 L221.283557,133.405303 L221.283557,114.5 Z M185.155201,114.5 L150,114.5 L150,133.405303 L185.155201,133.405303 L185.155201,114.5 Z M149.026846,114.5 L113.871644,114.5 L113.871644,133.405303 L149.026846,133.405303 L149.026846,114.5 Z M112.89849,114.5 L77.7432886,114.5 L77.7432886,133.405303 L112.89849,133.405303 L112.89849,114.5 Z M41.6149329,134.381061 L41.6149329,153.286364 L76.7701342,153.286364 L76.7701342,134.381061 L41.6149329,134.381061 Z M257.411913,134.381061 L222.256711,134.381061 L222.256711,153.286364 L257.411913,153.286364 L257.411913,134.381061 Z M221.283557,134.381061 L186.128356,134.381061 L186.128356,153.286364 L221.283557,153.286364 L221.283557,134.381061 Z M185.155201,134.381061 L150,134.381061 L150,153.286364 L185.155201,153.286364 L185.155201,134.381061 Z M149.026846,134.381061 L113.871644,134.381061 L113.871644,153.286364 L149.026846,153.286364 L149.026846,134.381061 Z M112.89849,134.381061 L77.7432886,134.381061 L77.7432886,153.286364 L112.89849,153.286364 L112.89849,134.381061 Z M41.6149329,154.262121 L41.6149329,173.167424 L76.7701342,173.167424 L76.7701342,154.262121 L41.6149329,154.262121 Z M257.411913,154.262121 L222.256711,154.262121 L222.256711,173.167424 L257.411913,173.167424 L257.411913,154.262121 Z M221.283557,154.262121 L186.128356,154.262121 L186.128356,173.167424 L221.283557,173.167424 L221.283557,154.262121 Z M185.155201,154.262121 L150,154.262121 L150,173.167424 L185.155201,173.167424 L185.155201,154.262121 Z M149.026846,154.262121 L113.871644,154.262121 L113.871644,173.167424 L149.026846,173.167424 L149.026846,154.262121 Z M112.89849,154.262121 L77.7432886,154.262121 L77.7432886,173.167424 L112.89849,173.167424 L112.89849,154.262121 Z" id="Shape" fill="#DFDEDE" fill-rule="nonzero"></path>
            <polygon id="Path" fill="#C2C2C2" points="4 32 294 32 294 34 4 34"></polygon>
            <g id="Group" transform="translate(3.000000, 11.044000)">
                <path d="M254.0075,23.725 L255.2185,23.725 L255.2185,184 L254.0075,184 L254.0075,23.725 Z M0.9,64.0175 L0.9,62.8065 L291.525,62.8065 L291.525,64.0175 L0.9,64.0175 Z M0.9,143.3555 L0.9,142.1445 L291.525,142.1445 L291.525,143.3555 L0.9,143.3555 Z" id="Shape" fill="#2A3052" fill-rule="nonzero"></path>
                <path d="M72.5987683,85.9341447 L36.9114201,106.634301 C36.0436148,107.137664 34.9320628,106.842225 34.4286994,105.97442 C33.925336,105.106615 34.2207745,103.995063 35.0885799,103.491699 L71.8755799,82.1536994 C72.5358645,81.7707067 73.3651487,81.8413664 73.9511192,82.3305471 L106.501204,109.504056 L145.306652,83.2327924 C145.988454,82.7712133 146.89545,82.8259354 147.51681,83.3661386 L182.747101,113.994922 L218.338972,63.3673029 C218.915942,62.5465921 220.048986,62.3490014 220.869697,62.9259717 C221.690408,63.5029419 221.887999,64.6359863 221.311028,65.4566971 L184.561028,117.731697 C183.941616,118.612779 182.695988,118.764498 181.88319,118.057861 L146.187015,87.024044 L107.405348,113.279208 C106.734729,113.733216 105.844568,113.68845 105.222881,113.169453 L72.5987683,85.9341447 Z" id="Path" fill="#2A3052" fill-rule="nonzero"></path>
                <path d="M184.613,136 L149.55,136 L144.15,127.787 L138.75,136 L103.687,136 C102.422772,136.006047 101.213182,136.516142 100.32639,137.417201 C99.4395975,138.31826 98.9488703,139.535837 98.963,140.8 L98.963,165.587 C98.9463511,168.215609 101.059455,170.362254 103.688,170.387 L184.65,170.387 C185.914402,170.381219 187.124249,169.87124 188.011258,168.970152 C188.898266,168.069064 189.38913,166.851336 189.375,165.587 L189.375,140.8 C189.381113,139.531676 188.882581,138.312986 187.989302,137.412578 C187.096022,136.51217 185.881333,136.003968 184.613,136 Z" id="Path" fill="#E88024"></path>
                <ellipse id="Oval" fill="#FFFFFF" opacity="0.6" cx="219.825" cy="64.412" rx="8.137" ry="8.475"></ellipse>
                <path d="M219.825,74.098 C214.650967,74.098 210.477,69.7506517 210.477,64.412 C210.477,59.0733483 214.650967,54.726 219.825,54.726 C224.999033,54.726 229.173,59.0733483 229.173,64.412 C229.173,69.7506517 224.999033,74.098 219.825,74.098 Z M219.825,71.676 C223.638849,71.676 226.751,68.4345748 226.751,64.412 C226.751,60.3894252 223.638849,57.148 219.825,57.148 C216.011151,57.148 212.899,60.3894252 212.899,64.412 C212.899,68.4345748 216.011151,71.676 219.825,71.676 Z" id="Oval" fill="#E88024" fill-rule="nonzero"></path>
                <ellipse id="Oval" fill="#FFFFFF" opacity="0.6" cx="36" cy="105.063" rx="8.137" ry="8.475"></ellipse>
                <path d="M36,114.749 C30.8259673,114.749 26.652,110.401652 26.652,105.063 C26.652,99.7243483 30.8259673,95.377 36,95.377 C41.1740327,95.377 45.348,99.7243483 45.348,105.063 C45.348,110.401652 41.1740327,114.749 36,114.749 Z M36,112.327 C39.8138493,112.327 42.926,109.085575 42.926,105.063 C42.926,101.040425 39.8138493,97.799 36,97.799 C32.1861507,97.799 29.074,101.040425 29.074,105.063 C29.074,109.085575 32.1861507,112.327 36,112.327 Z" id="Oval" fill="#E88024" fill-rule="nonzero"></path>
                <path d="M18.934,7.568 L15.017,7.568 L15.017,10.586 L19.674,10.586 L19.674,12.211 L12.898,12.211 L12.898,1.648 L19.66,1.648 L19.66,3.281 L15.017,3.281 L15.017,5.936 L18.934,5.936 L18.934,7.568 Z M25.246,10.035 C25.246,9.803 25.133,9.603 24.909,9.436 C24.684,9.27 24.267,9.123 23.657,8.998 C22.738,8.814 22.041,8.536 21.564,8.163 C21.088,7.791 20.85,7.285 20.85,6.647 C20.85,5.975 21.135,5.402 21.706,4.927 C22.276,4.454 23.036,4.217 23.984,4.217 C24.975,4.217 25.769,4.454 26.367,4.927 C26.964,5.402 27.251,5.992 27.227,6.697 L27.212,6.741 L25.166,6.741 C25.166,6.427 25.065,6.171 24.861,5.972 C24.658,5.774 24.366,5.675 23.984,5.675 C23.645,5.675 23.377,5.76 23.178,5.929 C22.9884485,6.08037069 22.8789476,6.31043322 22.881,6.553 C22.881,6.795 22.984,6.992 23.189,7.144 C23.395,7.296 23.812,7.433 24.441,7.554 C25.403,7.747 26.121,8.031 26.591,8.406 C27.063,8.781 27.299,9.297 27.299,9.956 C27.299,10.661 26.997,11.239 26.392,11.689 C25.788,12.139 24.99,12.364 23.998,12.364 C22.953,12.364 22.128,12.099 21.521,11.569 C20.914,11.039 20.625,10.436 20.654,9.759 L20.668,9.716 L22.605,9.716 C22.62,10.136 22.758,10.441 23.019,10.63 C23.279,10.819 23.621,10.913 24.042,10.913 C24.433,10.913 24.732,10.834 24.938,10.677 C25.1400746,10.5267366 25.2552565,10.2866497 25.246,10.035 Z M31.942,10.739 C32.31,10.739 32.602,10.629 32.82,10.409 C33.038,10.189 33.146,9.895 33.146,9.527 L35.076,9.527 L35.091,9.571 C35.11,10.364 34.815,11.028 34.206,11.562 C33.596,12.097 32.842,12.364 31.942,12.364 C30.782,12.364 29.884,11.993 29.251,11.25 C28.617,10.508 28.301,9.559 28.301,8.403 L28.301,8.185 C28.301,7.034 28.616,6.085 29.247,5.338 C29.878,4.59 30.772,4.217 31.927,4.217 C32.885,4.217 33.657,4.492 34.242,5.044 C34.827,5.595 35.11,6.321 35.091,7.22 L35.076,7.264 L33.146,7.264 C33.146,6.857 33.039,6.52 32.824,6.252 C32.608,5.983 32.31,5.849 31.928,5.849 C31.381,5.849 30.993,6.068 30.763,6.506 C30.533,6.943 30.419,7.503 30.419,8.185 L30.419,8.403 C30.419,9.099 30.533,9.663 30.763,10.093 C30.993,10.523 31.386,10.739 31.943,10.739 L31.942,10.739 Z M39.726,12.364 C38.556,12.364 37.642,12.004 36.984,11.286 C36.326,10.568 35.997,9.643 35.997,8.511 L35.997,8.221 C35.997,7.046 36.317,6.084 36.955,5.334 C37.594,4.584 38.471,4.212 39.589,4.217 C40.643,4.217 41.452,4.54 42.015,5.185 C42.579,5.831 42.86,6.7 42.86,7.793 L42.86,8.89 L38.181,8.89 L38.159,8.933 C38.193,9.47 38.356,9.905 38.649,10.239 C38.942,10.573 39.376,10.739 39.951,10.739 C40.425,10.739 40.828,10.691 41.159,10.595 C41.5170328,10.486778 41.8615838,10.3381547 42.186,10.152 L42.759,11.458 C42.445,11.714 42.019,11.929 41.482,12.104 C40.9139778,12.2824549 40.3213629,12.3701997 39.726,12.364 Z M39.589,5.849 C39.163,5.849 38.835,5.995 38.606,6.288 C38.376,6.581 38.236,6.968 38.188,7.452 L38.203,7.489 L40.786,7.489 L40.786,7.329 C40.786,6.869 40.691,6.508 40.503,6.244 C40.314,5.981 40.009,5.849 39.589,5.849 Z M62.784,11.051 C62.542,11.471 62.234,11.795 61.862,12.023 C61.49,12.25 61.057,12.363 60.564,12.363 C59.737,12.363 59.09,12.083 58.623,11.523 C58.156,10.961 57.923,10.091 57.923,8.911 L57.923,4.36 L60.034,4.36 L60.034,8.924 C60.034,9.611 60.127,10.081 60.314,10.335 C60.5,10.589 60.788,10.715 61.18,10.715 C61.519,10.715 61.809,10.662 62.05,10.553 C62.293,10.443 62.49,10.283 62.646,10.07 L62.646,4.36 L64.764,4.36 L64.764,12.21 L63.008,12.21 L62.784,11.05 L62.784,11.051 Z M66.034,8.214 C66.034,7.044 66.36,6.084 67.014,5.338 C67.666,4.59 68.57,4.217 69.726,4.217 C70.887,4.217 71.796,4.589 72.454,5.334 C73.112,6.079 73.441,7.039 73.441,8.214 L73.441,8.366 C73.441,9.546 73.113,10.508 72.458,11.25 C71.802,11.993 70.897,12.364 69.741,12.364 C68.581,12.364 67.672,11.993 67.017,11.25 C66.361,10.508 66.034,9.547 66.034,8.366 L66.034,8.214 Z M68.144,8.366 C68.144,9.082 68.271,9.656 68.522,10.089 C68.774,10.522 69.18,10.739 69.741,10.739 C70.287,10.739 70.688,10.521 70.941,10.086 C71.195,9.65 71.322,9.077 71.322,8.366 L71.322,8.214 C71.322,7.518 71.194,6.949 70.938,6.509 C70.682,6.069 70.278,5.849 69.726,5.849 C69.18,5.849 68.78,6.07 68.526,6.513 C68.272,6.955 68.145,7.523 68.145,8.214 L68.145,8.366 L68.144,8.366 Z M78.874,6.183 L78.098,6.161 C77.784,6.161 77.525,6.226 77.322,6.357 C77.119,6.487 76.964,6.671 76.858,6.908 L76.858,12.211 L74.747,12.211 L74.747,4.361 L76.713,4.361 L76.807,5.523 C76.991,5.111 77.229,4.791 77.522,4.561 C77.814,4.331 78.152,4.217 78.534,4.217 C78.64,4.217 78.738,4.225 78.827,4.242 C78.917,4.259 79.007,4.28 79.1,4.304 L78.875,6.183 L78.874,6.183 Z M82.204,12.211 L80.086,12.211 L80.086,4.361 L82.205,4.361 L82.205,12.211 L82.204,12.211 Z M82.204,2.483 L80.086,2.483 L80.086,0.894 L82.205,0.894 L82.205,2.483 L82.204,2.483 Z" id="Shape" fill="#020202" fill-rule="nonzero"></path>
                <path d="M21.614,51.325 L18.714,51.325 L17.536,59.185 L16.346,59.185 L17.524,51.325 L14.66,51.325 L14.8,50.388 L21.753,50.388 L21.613,51.325 L21.614,51.325 Z M24.858,59.185 C24.8508725,59.0024152 24.8468719,58.8197218 24.846,58.637 C24.846,58.499 24.854,58.357 24.87,58.212 C24.6,58.522 24.27,58.782 23.882,58.994 C23.5175884,59.1989742 23.1070927,59.3080497 22.689,59.311 C22.033,59.311 21.546,59.135 21.23,58.782 C20.914,58.43 20.802,57.952 20.895,57.348 C20.96944,56.7313296 21.3264511,56.184356 21.861,55.868 C22.413,55.525 23.128,55.354 24.006,55.354 L25.299,55.354 L25.396,54.708 C25.456,54.308 25.386,54.002 25.187,53.786 C24.987,53.571 24.673,53.463 24.242,53.463 C23.8972845,53.4562611 23.5591176,53.5576761 23.275,53.753 C22.997,53.946 22.84,54.178 22.804,54.448 L21.668,54.46 L21.662,54.424 C21.71,53.928 21.998,53.488 22.526,53.104 C23.054,52.719 23.694,52.527 24.447,52.527 C25.16,52.527 25.72,52.717 26.127,53.097 C26.533,53.478 26.687,54.019 26.586,54.72 L26.114,57.867 C26.0757614,58.0938766 26.0527101,58.3230527 26.045,58.553 C26.039,58.764 26.052,58.975 26.085,59.184 L24.858,59.184 L24.858,59.185 Z M23.015,58.315 C23.426,58.315 23.825,58.202 24.211,57.976 C24.598,57.75 24.866,57.496 25.015,57.215 L25.178,56.158 L23.843,56.158 C23.38,56.158 22.981,56.28 22.647,56.526 C22.312,56.772 22.123,57.054 22.079,57.372 C22.031,57.674 22.084,57.907 22.239,58.07 C22.394,58.233 22.653,58.314 23.015,58.314 L23.015,58.315 Z M31.558,53.699 L30.953,53.663 C30.643,53.663 30.369,53.74 30.132,53.895 C29.8820975,54.0633784 29.675214,54.288073 29.528,54.551 L28.833,59.184 L27.643,59.184 L28.622,52.648 L29.685,52.648 L29.661,53.572 C29.894,53.242 30.16,52.985 30.458,52.802 C30.8273109,52.5746181 31.2649499,52.4846826 31.694,52.548 C31.776,52.562 31.842,52.578 31.89,52.593 L31.558,53.699 Z M32.119,56.037 C32.281,54.945 32.631,54.087 33.171,53.463 C33.711,52.839 34.387,52.527 35.201,52.527 C35.607,52.527 35.956,52.613 36.246,52.787 C36.536,52.96 36.766,53.209 36.934,53.536 L37.212,52.648 L38.161,52.648 L37.176,59.22 C37.043,60.09 36.704,60.742 36.158,61.175 C35.612,61.608 34.874,61.825 33.944,61.825 C33.642,61.825 33.312,61.78 32.954,61.691 C32.6326882,61.6172257 32.3230992,61.4994473 32.034,61.341 L32.355,60.417 C32.568,60.537 32.831,60.635 33.143,60.71 C33.456,60.784 33.769,60.821 34.083,60.821 C34.639,60.821 35.075,60.687 35.391,60.42 C35.707,60.152 35.905,59.752 35.986,59.22 L36.095,58.477 C35.841,58.751 35.554,58.959 35.234,59.1 C34.914,59.24 34.56,59.311 34.174,59.311 C33.408,59.311 32.836,59.019 32.458,58.435 C32.079,57.851 31.96,57.094 32.101,56.164 L32.119,56.037 Z M33.291,56.164 C33.187,56.844 33.241,57.378 33.451,57.764 C33.663,58.151 34.053,58.344 34.621,58.344 C34.967,58.344 35.275,58.261 35.545,58.094 C35.815,57.927 36.052,57.692 36.258,57.39 L36.711,54.4 C36.6061062,54.1374552 36.4314885,53.9085504 36.206,53.738 C35.986,53.575 35.704,53.493 35.358,53.493 C34.814,53.493 34.364,53.733 34.008,54.213 C33.651,54.692 33.418,55.3 33.31,56.037 L33.291,56.164 Z M41.58,59.311 C40.678,59.311 40,59.007 39.547,58.399 C39.094,57.791 38.94,57.005 39.085,56.043 L39.127,55.777 C39.268,54.802 39.652,54.017 40.278,53.421 C40.904,52.825 41.614,52.527 42.408,52.527 C43.249,52.527 43.856,52.803 44.226,53.354 C44.596,53.906 44.716,54.625 44.583,55.511 L44.492,56.139 L40.263,56.139 C40.17,56.832 40.239,57.379 40.468,57.779 C40.698,58.18 41.115,58.381 41.719,58.381 C42.0856617,58.3842779 42.4502047,58.3250989 42.797,58.206 C43.10931,58.1000372 43.4006949,57.9403001 43.658,57.734 L44.008,58.508 C43.7066343,58.7536107 43.3658035,58.9463425 43,59.078 C42.593,59.234 42.12,59.311 41.58,59.311 Z M42.269,53.463 C41.87,53.463 41.509,53.624 41.184,53.946 C40.8500542,54.2855346 40.6098991,54.705892 40.487,55.166 L40.499,55.203 L43.441,55.203 L43.453,55.106 C43.525,54.619 43.469,54.223 43.283,53.919 C43.098,53.615 42.76,53.463 42.269,53.463 Z M48.237,51.071 L48.002,52.648 L49.24,52.648 L49.107,53.53 L47.87,53.53 L47.278,57.499 C47.23,57.817 47.258,58.035 47.365,58.154 C47.472,58.273 47.632,58.332 47.845,58.332 C47.9992794,58.3254017 48.1518229,58.2967788 48.298,58.247 L48.341,59.063 C48.241,59.136 48.101,59.195 47.921,59.242 C47.742,59.288 47.568,59.312 47.399,59.312 C46.932,59.312 46.572,59.164 46.32,58.87 C46.069,58.576 45.991,58.119 46.088,57.499 L46.68,53.529 L45.64,53.529 L45.774,52.648 L46.813,52.648 L47.048,51.071 L48.238,51.071 L48.237,51.071 Z M56.629,59.184 C56.6218839,59.0017483 56.6178833,58.8193884 56.617,58.637 C56.617,58.499 56.625,58.357 56.641,58.212 C56.371,58.522 56.041,58.782 55.653,58.994 C55.2885884,59.1989742 54.8780927,59.3080497 54.46,59.311 C53.803,59.311 53.317,59.135 53.001,58.782 C52.685,58.43 52.573,57.952 52.666,57.348 C52.74044,56.7313296 53.0974511,56.184356 53.632,55.868 C54.184,55.525 54.899,55.354 55.777,55.354 L57.07,55.354 L57.166,54.708 C57.226,54.308 57.157,54.002 56.958,53.786 C56.758,53.571 56.443,53.463 56.013,53.463 C55.6682845,53.4562611 55.3301176,53.5576761 55.046,53.753 C54.768,53.946 54.611,54.178 54.575,54.448 L53.439,54.46 L53.433,54.424 C53.481,53.928 53.769,53.488 54.297,53.104 C54.824,52.719 55.465,52.527 56.217,52.527 C56.931,52.527 57.491,52.717 57.897,53.097 C58.304,53.478 58.457,54.019 58.357,54.72 L57.885,57.867 C57.8464262,58.0938541 57.8230408,58.3230303 57.815,58.553 C57.81,58.764 57.823,58.975 57.855,59.184 L56.63,59.184 L56.629,59.184 Z M54.786,58.314 C55.197,58.314 55.596,58.202 55.982,57.976 C56.369,57.75 56.637,57.496 56.786,57.215 L56.949,56.158 L55.614,56.158 C55.151,56.158 54.752,56.28 54.418,56.526 C54.083,56.772 53.894,57.054 53.85,57.372 C53.801,57.674 53.855,57.907 54.01,58.07 C54.165,58.233 54.424,58.314 54.786,58.314 Z M60.701,59.184 L59.511,59.184 L60.924,49.76 L62.114,49.76 L60.701,59.184 Z M65.401,51.071 L65.165,52.648 L66.403,52.648 L66.271,53.53 L65.032,53.53 L64.44,57.499 C64.392,57.817 64.42,58.035 64.528,58.154 C64.634,58.273 64.794,58.332 65.008,58.332 C65.1622794,58.3254017 65.3148229,58.2967788 65.461,58.247 L65.503,59.063 C65.403,59.136 65.263,59.195 65.083,59.242 C64.904,59.288 64.73,59.312 64.561,59.312 C64.094,59.312 63.734,59.164 63.483,58.87 C63.231,58.576 63.153,58.119 63.25,57.499 L63.842,53.529 L62.802,53.529 L62.936,52.648 L63.975,52.648 L64.211,51.071 L65.401,51.071 Z M66.923,55.856 C67.072,54.853 67.452,54.047 68.062,53.439 C68.672,52.831 69.43,52.527 70.336,52.527 C71.206,52.527 71.866,52.842 72.315,53.472 C72.764,54.102 72.918,54.897 72.777,55.856 L72.753,55.988 C72.6,56.999 72.219,57.806 71.611,58.408 C71.003,59.01 70.244,59.311 69.333,59.311 C68.463,59.311 67.804,58.997 67.355,58.369 C66.905,57.74 66.754,56.947 66.899,55.989 L66.923,55.856 Z M68.089,55.988 C67.98,56.705 68.039,57.283 68.264,57.722 C68.49,58.162 68.892,58.381 69.472,58.381 C70.016,58.381 70.474,58.152 70.847,57.695 C71.219,57.238 71.458,56.669 71.563,55.988 L71.587,55.856 C71.692,55.146 71.63,54.571 71.403,54.128 C71.175,53.685 70.773,53.463 70.197,53.463 C69.65,53.463 69.189,53.693 68.817,54.155 C68.444,54.616 68.21,55.183 68.113,55.855 L68.089,55.988 Z M18.569,155.11 L15.803,155.11 L14.679,162.606 L13.544,162.606 L14.668,155.109 L11.937,155.109 L12.069,154.216 L18.701,154.216 L18.569,155.109 L18.569,155.11 Z M21.663,162.606 C21.6560246,162.432081 21.6520241,162.258056 21.651,162.084 C21.651,161.952 21.659,161.816 21.674,161.678 C21.4072862,161.981154 21.0882029,162.233847 20.732,162.424 C20.362,162.626 19.982,162.727 19.594,162.727 C18.968,162.727 18.504,162.559 18.203,162.222 C17.901,161.886 17.795,161.43 17.883,160.854 C17.954076,160.26558 18.2948429,159.743711 18.805,159.442 C19.331,159.116 20.013,158.952 20.85,158.952 L22.084,158.952 L22.176,158.336 C22.233,157.956 22.167,157.663 21.976,157.457 C21.786,157.252 21.486,157.149 21.076,157.149 C20.726,157.149 20.418,157.241 20.153,157.426 C19.888,157.61 19.738,157.831 19.703,158.088 L18.621,158.1 L18.615,158.065 C18.661,157.593 18.935,157.173 19.439,156.806 C19.942,156.439 20.553,156.256 21.271,156.256 C21.951,156.256 22.485,156.437 22.873,156.8 C23.261,157.163 23.407,157.68 23.311,158.347 L22.861,161.35 C22.8244752,161.566289 22.8024262,161.784774 22.795,162.004 C22.789,162.205 22.802,162.406 22.833,162.606 L21.663,162.606 Z M19.905,161.776 C20.297,161.776 20.678,161.668 21.046,161.453 C21.416,161.238 21.671,160.996 21.813,160.727 L21.968,159.719 L20.695,159.719 C20.253,159.719 19.873,159.836 19.554,160.07 C19.235,160.305 19.054,160.574 19.012,160.877 C18.966,161.165 19.017,161.387 19.165,161.543 C19.313,161.698 19.56,161.776 19.905,161.776 Z M28.053,157.374 L27.477,157.339 C27.181,157.339 26.92,157.413 26.693,157.561 C26.4547572,157.721412 26.2574713,157.935481 26.117,158.186 L25.454,162.606 L24.32,162.606 L25.254,156.371 L26.268,156.371 L26.245,157.253 C26.4457539,156.9589 26.7043517,156.708808 27.005,156.518 C27.3572852,156.301126 27.7747678,156.215434 28.184,156.276 C28.262,156.289 28.324,156.304 28.371,156.319 L28.054,157.374 L28.053,157.374 Z M28.589,159.604 C28.743,158.563 29.077,157.744 29.591,157.149 C30.106,156.554 30.751,156.256 31.527,156.256 C31.915,156.256 32.247,156.338 32.524,156.504 C32.801,156.669 33.02,156.907 33.181,157.218 L33.446,156.371 L34.351,156.371 L33.411,162.641 C33.285,163.47 32.961,164.091 32.441,164.504 C31.921,164.917 31.216,165.124 30.329,165.124 C30.0100346,165.119883 29.6927351,165.07724 29.384,164.997 C29.0780375,164.926456 28.7832621,164.814064 28.508,164.663 L28.814,163.781 C29.017,163.896 29.268,163.989 29.566,164.061 C29.863,164.131 30.162,164.167 30.462,164.167 C30.992,164.167 31.407,164.039 31.709,163.784 C32.011,163.529 32.199,163.147 32.277,162.64 L32.38,161.931 C32.1505797,162.183458 31.8713905,162.3857 31.56,162.525 C31.2405448,162.662492 30.8957601,162.731313 30.548,162.727 C29.818,162.727 29.273,162.448 28.912,161.891 C28.55,161.334 28.437,160.612 28.572,159.725 L28.589,159.604 Z M29.707,159.724 C29.607,160.374 29.657,160.883 29.859,161.252 C30.061,161.62 30.433,161.805 30.974,161.805 C31.304,161.805 31.599,161.725 31.856,161.565 C32.1274051,161.392152 32.3591506,161.163815 32.536,160.895 L32.968,158.042 C32.8679286,157.792173 32.7016309,157.574361 32.487,157.412 C32.277,157.256 32.007,157.178 31.677,157.178 C31.159,157.178 30.729,157.406 30.389,157.863 C30.049,158.321 29.828,158.901 29.724,159.603 L29.707,159.725 L29.707,159.724 Z M37.612,162.727 C36.752,162.727 36.105,162.437 35.673,161.857 C35.241,161.277 35.094,160.527 35.233,159.609 L35.273,159.356 C35.407,158.426 35.773,157.677 36.37,157.109 C36.968,156.54 37.645,156.256 38.402,156.256 C39.204,156.256 39.782,156.519 40.136,157.046 C40.489,157.572 40.603,158.257 40.476,159.102 L40.39,159.702 L36.356,159.702 C36.268,160.362 36.333,160.884 36.552,161.266 C36.771,161.648 37.169,161.839 37.745,161.839 C38.0946621,161.842092 38.4422976,161.785618 38.773,161.672 C39.0707836,161.570954 39.3486265,161.418665 39.594,161.222 L39.929,161.96 C39.6411805,162.194892 39.3155478,162.37918 38.966,162.505 C38.578,162.653 38.127,162.727 37.612,162.727 Z M38.269,157.149 C37.889,157.149 37.544,157.303 37.235,157.609 C36.925,157.917 36.704,158.305 36.569,158.774 L36.581,158.808 L39.387,158.808 L39.398,158.716 C39.468,158.251 39.414,157.874 39.238,157.584 C39.06,157.294 38.738,157.149 38.269,157.149 Z M43.962,154.867 L43.737,156.371 L44.918,156.371 L44.792,157.212 L43.61,157.212 L43.045,160.998 C42.999,161.302 43.027,161.51 43.128,161.623 C43.23,161.737 43.383,161.793 43.586,161.793 C43.7330757,161.787048 43.8785461,161.760109 44.018,161.713 L44.058,162.49 C43.963,162.56 43.829,162.616 43.658,162.66 C43.488,162.705 43.321,162.727 43.16,162.727 C42.714,162.727 42.372,162.587 42.132,162.306 C41.892,162.026 41.818,161.59 41.91,160.998 L42.474,157.212 L41.484,157.212 L41.61,156.372 L42.601,156.372 L42.826,154.867 L43.961,154.867 L43.962,154.867 Z M53.89,159.725 C53.748,160.658 53.423,161.392 52.916,161.925 C52.409,162.46 51.773,162.727 51.009,162.727 C50.606,162.727 50.264,162.642 49.983,162.473 C49.703,162.304 49.483,162.056 49.326,161.73 L49.004,162.606 L48.134,162.606 L49.482,153.616 L50.617,153.616 L50.093,157.109 C50.3223556,156.842023 50.605094,156.626052 50.923,156.475 C51.2497514,156.325394 51.6056592,156.250251 51.965,156.255 C52.703,156.255 53.248,156.566 53.599,157.186 C53.95,157.806 54.053,158.613 53.907,159.604 L53.89,159.724 L53.89,159.725 Z M52.772,159.604 C52.884,158.862 52.842,158.273 52.645,157.834 C52.449,157.397 52.081,157.178 51.539,157.178 C51.201,157.178 50.897,157.265 50.626,157.44 C50.355,157.615 50.126,157.85 49.937,158.146 L49.534,160.831 C49.634,161.138 49.789,161.377 50.001,161.548 C50.211,161.719 50.498,161.805 50.859,161.805 C51.374,161.805 51.795,161.612 52.124,161.225 C52.452,160.84 52.663,160.339 52.754,159.725 L52.772,159.604 Z M58.672,162.606 C58.6653581,162.432075 58.6616909,162.25805 58.661,162.084 C58.661,161.952 58.669,161.816 58.684,161.678 C58.4172862,161.981154 58.0982029,162.233847 57.742,162.424 C57.372,162.626 56.992,162.727 56.604,162.727 C55.978,162.727 55.514,162.559 55.212,162.222 C54.911,161.886 54.804,161.43 54.892,160.854 C54.9632997,160.265391 55.3044604,159.743485 55.815,159.442 C56.341,159.116 57.023,158.952 57.86,158.952 L59.093,158.952 L59.185,158.336 C59.243,157.956 59.177,157.663 58.987,157.457 C58.797,157.252 58.496,157.149 58.085,157.149 C57.735,157.149 57.428,157.241 57.163,157.426 C56.898,157.61 56.748,157.831 56.713,158.088 L55.63,158.1 L55.624,158.065 C55.67,157.593 55.945,157.173 56.448,156.806 C56.952,156.439 57.562,156.256 58.281,156.256 C58.961,156.256 59.495,156.437 59.883,156.8 C60.271,157.163 60.416,157.68 60.32,158.347 L59.871,161.35 C59.8344752,161.566289 59.8124262,161.784774 59.805,162.004 C59.799,162.205 59.811,162.406 59.842,162.606 L58.672,162.606 Z M56.915,161.776 C57.307,161.776 57.687,161.668 58.056,161.453 C58.425,161.238 58.68,160.996 58.822,160.727 L58.978,159.719 L57.704,159.719 C57.263,159.719 56.882,159.836 56.564,160.07 C56.244,160.305 56.064,160.574 56.022,160.877 C55.976,161.165 56.027,161.387 56.175,161.543 C56.323,161.698 56.569,161.776 56.915,161.776 Z M65.218,160.929 C65.253,160.672 65.188,160.466 65.022,160.312 C64.857,160.159 64.515,160.022 63.997,159.903 C63.282,159.746 62.747,159.525 62.392,159.241 C62.037,158.956 61.893,158.576 61.962,158.1 C62.036,157.57 62.312,157.13 62.789,156.78 C63.268,156.43 63.854,156.256 64.549,156.256 C65.226,156.256 65.764,156.45 66.163,156.838 C66.563,157.226 66.718,157.671 66.63,158.175 L66.618,158.209 L65.53,158.209 C65.5702145,157.937974 65.4784134,157.664057 65.283,157.472 C65.079,157.257 64.795,157.149 64.43,157.149 C64.046,157.149 63.737,157.24 63.505,157.423 C63.273,157.605 63.139,157.819 63.105,158.065 C63.07,158.319 63.128,158.511 63.277,158.641 C63.427,158.772 63.765,158.893 64.291,159.004 C65.033,159.166 65.581,159.394 65.934,159.69 C66.287,159.986 66.431,160.372 66.366,160.848 C66.286,161.421 65.999,161.877 65.507,162.217 C65.016,162.557 64.405,162.727 63.675,162.727 C62.915,162.727 62.325,162.523 61.909,162.116 C61.492,161.709 61.332,161.24 61.428,160.71 L61.439,160.675 L62.529,160.675 C62.494,161.079 62.603,161.374 62.857,161.56 C63.11,161.746 63.425,161.84 63.802,161.84 C64.19,161.84 64.512,161.753 64.77,161.58 C65.027,161.407 65.177,161.19 65.22,160.929 L65.218,160.929 Z M71.389,160.929 C71.424,160.672 71.359,160.466 71.193,160.312 C71.028,160.159 70.686,160.022 70.168,159.903 C69.453,159.746 68.918,159.525 68.563,159.241 C68.208,158.956 68.065,158.576 68.133,158.1 C68.207,157.57 68.483,157.13 68.961,156.78 C69.439,156.43 70.026,156.256 70.721,156.256 C71.397,156.256 71.935,156.45 72.334,156.838 C72.734,157.226 72.889,157.671 72.801,158.175 L72.79,158.209 L71.7,158.209 C71.7402145,157.937974 71.6484134,157.664057 71.453,157.472 C71.249,157.257 70.965,157.149 70.6,157.149 C70.216,157.149 69.908,157.24 69.675,157.423 C69.443,157.605 69.309,157.819 69.275,158.065 C69.24,158.319 69.298,158.511 69.448,158.641 C69.598,158.772 69.935,158.893 70.462,159.004 C71.203,159.166 71.75,159.394 72.104,159.69 C72.457,159.986 72.601,160.372 72.536,160.848 C72.456,161.421 72.169,161.877 71.677,162.217 C71.186,162.557 70.575,162.727 69.845,162.727 C69.085,162.727 68.495,162.523 68.079,162.116 C67.662,161.709 67.502,161.24 67.598,160.71 L67.609,160.675 L68.699,160.675 C68.664,161.079 68.773,161.374 69.027,161.56 C69.28,161.746 69.595,161.84 69.972,161.84 C70.36,161.84 70.682,161.753 70.94,161.58 C71.197,161.407 71.347,161.19 71.39,160.929 L71.389,160.929 Z M73.884,159.431 C74.026,158.474 74.388,157.706 74.97,157.126 C75.552,156.546 76.276,156.256 77.14,156.256 C77.97,156.256 78.599,156.556 79.027,157.158 C79.455,157.758 79.602,158.517 79.467,159.431 L79.445,159.558 C79.299,160.522 78.935,161.291 78.355,161.865 C77.775,162.44 77.052,162.727 76.183,162.727 C75.353,162.727 74.725,162.427 74.296,161.827 C73.868,161.229 73.723,160.472 73.861,159.557 L73.884,159.431 Z M74.996,159.558 C74.893,160.241 74.948,160.793 75.163,161.211 C75.379,161.63 75.763,161.839 76.316,161.839 C76.834,161.839 77.271,161.621 77.626,161.185 C77.982,160.749 78.21,160.207 78.31,159.558 L78.333,159.431 C78.433,158.755 78.373,158.205 78.157,157.783 C77.94,157.36 77.557,157.149 77.007,157.149 C76.485,157.149 76.046,157.369 75.691,157.809 C75.335,158.249 75.111,158.789 75.019,159.431 L74.996,159.558 Z" id="Shape" fill="#6D6E71" fill-rule="nonzero"></path>
                <g transform="translate(16.000000, 121.000000)" fill="#2A3052" fill-rule="nonzero" id="Shape">
                    <path d="M5.59,3.395 L5.698,4.501 C6.13656496,3.73549295 6.95794055,3.27035355 7.84,3.288 C8.625,3.288 9.232,3.502 9.66,4.002 C10.09,4.466 10.303,5.18 10.303,6.144 L10.303,10.784 L8.983,10.784 L8.983,6.179 C8.983,5.537 8.84,5.073 8.59,4.787 C8.34,4.501 7.947,4.394 7.447,4.394 C7.055,4.394 6.733,4.501 6.447,4.68 C6.14944523,4.86532888 5.90405096,5.12345749 5.734,5.43 L5.734,10.785 L4.413,10.785 L4.413,3.43 L5.591,3.395 L5.59,3.395 Z M0.916,0.762 L2.15,0.762 L2.15,10.514 L0.916,10.514 L0.916,0.762 Z M22.714,3.332 L24.018,3.332 L24.018,10.509 L22.714,10.509 L22.714,3.332 Z M22.732,0.072 L22.732,1.366 L24.06,1.366 L24.06,0.072 L22.732,0.072 Z M12.348,3.343 L13.652,3.343 L13.652,10.521 L12.348,10.521 L12.348,3.343 Z M12.365,0.083 L12.365,1.377 L13.694,1.377 L13.694,0.083 L12.365,0.083 Z"></path>
                    <path d="M12.323,3.343 L13.627,3.343 L13.627,10.521 L12.323,10.521 L12.323,3.343 Z M12.34,0.083 L12.34,1.377 L13.67,1.377 L13.67,0.083 L12.34,0.083 Z M15.433,4.318 L15.433,3.288 L20.923,3.288 L20.923,4.157 L16.956,9.536 L21.133,9.536 L21.133,10.514 L15.433,10.514 L15.433,9.68 L19.353,4.318 L15.433,4.318 Z M29.107,3.124 C31.265,3.124 32.227,4.698 32.39,6.516 C32.552,8.334 31.788,10.516 29.402,10.703 C27.017,10.89 25.824,8.963 25.824,6.931 C25.824,4.899 26.949,3.124 29.107,3.124 Z M29.055,4.161 C28.252,4.161 27.301,4.644 27.18,6.615 C27.058,8.585 27.852,9.667 29.118,9.667 C30.384,9.667 31.053,8.517 31.053,6.615 C31.053,4.712 29.859,4.161 29.055,4.161 Z"></path>
                </g>
                <g transform="translate(176.000000, 147.000000)" fill="#FFFFFF" fill-rule="nonzero" id="Shape">
                    <path d="M2.506,7.865 L0.286,7.865 L0.286,0.517 L2.506,0.517 L2.506,7.865 Z M2.506,11.73 L0.286,11.73 L0.286,9.757 L2.506,9.757 L2.506,11.73 Z"></path>
                </g>
                <path d="M159.421,150.572 L161.018,150.572 L161.098,151.735 C161.753,150.76 162.601,150.326 163.644,150.435 C164.248,150.497 165.521,150.695 165.901,152.409 C166.041,153.038 166.011,154.1 166.001,155.544 C165.996,156.104 165.996,157.074 166.001,158.454 L164.248,158.454 L164.248,153.517 C164.248,152.937 164.085,152.288 163.598,152.043 C162.929,151.706 161.669,151.847 161.164,152.697 L161.164,158.455 L159.421,158.455 L159.421,150.572 Z M112.189,154.29 L112.189,152.996 L116.103,152.996 C116.147,155.251 116.147,156.566 116.103,156.94 C115.773,157.928 111.864,159.723 109.34,157.446 C108.588,156.767 108.234,156.016 108.04,154.877 C108.032,153.715 108.011,152.624 108.02,151.593 C108.21,150.329 108.634,149.611 108.975,149.203 C110.215,147.72 112.193,147.401 113.932,148.002 C115.67,148.602 115.896,149.852 116.037,151.072 C115.634,151.072 115.422,151.055 114.334,151.072 C114.444,150.386 113.819,149.057 112.188,149.13 C110.556,149.203 109.786,150.544 109.786,151.66 C109.786,152.777 109.728,152.402 109.786,154.62 C109.86,157.169 112.915,157.853 114.334,156.492 L114.386,154.322 L112.189,154.29 Z M170.975,150.432 C173.159,150.432 174.344,151.763 174.643,153.758 C174.943,155.753 173.866,158.571 171.129,158.571 C168.391,158.571 167.506,156.49 167.506,154.336 C167.506,152.182 168.791,150.432 170.975,150.432 Z M170.995,151.83 C170.345,151.891 169.195,152.346 169.262,154.5 C169.329,156.653 170.271,157.159 170.995,157.159 C171.718,157.159 172.939,156.959 172.939,154.509 C172.939,152.059 171.644,151.769 170.995,151.829 L170.995,151.83 Z" id="Shape" fill="#FFFFFF" fill-rule="nonzero"></path>
                <path d="M170.995,151.83 C170.345,151.891 169.195,152.346 169.262,154.5 C169.329,156.653 170.271,157.159 170.995,157.159 C171.718,157.159 172.939,156.959 172.939,154.509 C172.939,152.059 171.644,151.769 170.995,151.829 L170.995,151.83 Z" id="Path"></path>
                <path d="M118.03,150.634 C118.739,150.655 119.301,150.655 119.716,150.634 L119.716,155.068 C119.716,156.828 120.362,157.13 120.99,157.19 C121.714962,157.254849 122.417749,156.919933 122.824,156.316 C122.839,154.292 122.839,152.398 122.824,150.634 L124.632,150.634 L124.632,158.464 L123.086,158.464 L122.921,157.314 C122.375,158.254 121.519,158.673 120.353,158.57 C118.603,158.415 118.029,156.922 118.029,155.535 C118.029,153.115 117.991,151.854 118.029,150.634 L118.03,150.634 Z M128.324,152.794 C127.789,152.79 127.228,152.79 126.641,152.794 C126.641,151.949 127.245,150.418 129.662,150.418 C132.08,150.418 132.66,152.079 132.726,152.436 C132.791,152.794 132.557,157.808 133.063,158.378 L131.267,158.38 C131.119,157.872 131.045,157.497 131.045,157.254 C130.765,157.596 130.282,158.221 129.542,158.451 C128.802,158.681 127.119,158.804 126.43,157.19 C125.976,156.126 126.266,154.93 127.12,154.381 C128.529,153.475 130.466,153.778 131.045,153.778 C131.119,152.163 130.637,151.787 129.542,151.787 C128.812,151.787 128.406,152.122 128.324,152.794 Z M131.044,154.883 C130.514,154.872 130.155,154.87 129.27,154.897 C128.565,154.96 127.938,155.481 127.991,156.223 C128.055,157.109 129.061,157.272 129.85,157.016 C130.51,156.802 130.972,156.248 131.044,156.013 L131.044,154.883 Z M144.634,152.794 C144.098,152.79 143.537,152.79 142.951,152.794 C142.951,151.949 143.555,150.418 145.972,150.418 C148.39,150.418 148.97,152.079 149.036,152.436 C149.101,152.794 148.867,157.808 149.373,158.378 L147.577,158.38 C147.429,157.872 147.354,157.497 147.354,157.254 C147.074,157.596 146.592,158.221 145.852,158.451 C145.112,158.681 143.429,158.804 142.74,157.19 C142.286,156.126 142.576,154.93 143.43,154.381 C144.839,153.475 146.776,153.778 147.354,153.778 C147.429,152.163 146.947,151.787 145.852,151.787 C145.122,151.787 144.716,152.122 144.634,152.794 Z M147.354,154.883 C146.823,154.872 146.465,154.87 145.58,154.897 C144.875,154.96 144.247,155.481 144.3,156.223 C144.365,157.109 145.371,157.272 146.16,157.016 C146.82,156.802 147.282,156.248 147.354,156.013 L147.354,154.883 Z M139.306,147.18 L141.009,147.18 L141.009,158.466 L139.609,158.466 C139.530871,158.134225 139.459855,157.800815 139.396,157.466 C139.116,158.246 136.269,159.621 134.86,157.293 C133.682,155.348 134.33,152.734 134.93,151.788 C135.38,151.078 137.206,149.254 139.306,151.485 C139.309,148.865 139.309,147.429 139.306,147.18 Z M139.316,152.872 C139.044,152.011 137.219,151.467 136.486,152.52 C135.754,153.574 135.788,154.925 136.206,156.16 C136.626,157.396 138.418,157.631 139.316,156.273 L139.316,152.872 Z M155.96,151.624 L156.136,150.632 L157.57,150.632 L157.57,158.576 C157.575,161.345 154.466,162.406 151.61,161.022 C151.773,160.206 151.863,159.749 151.88,159.652 C153.124,160.068 156.221,161.109 155.827,157.662 C154.049,159.483 152.037,158.379 151.34,157.163 C150.572,155.82 150.072,151.815 152.544,150.734 C153.968,150.112 155.107,150.408 155.96,151.624 Z M155.811,152.835 C155.473,152.324 155.256,151.897 154.121,151.897 C152.984,151.897 152.273,153.291 152.52,155.431 C152.766,157.571 155.089,157.571 155.811,156.217 L155.811,152.835 Z" id="Shape" fill="#FFFFFF" fill-rule="nonzero"></path>
                <g transform="translate(262.000000, 110.000000)" fill="#2A3052" fill-rule="nonzero" id="Shape">
                    <path d="M11.848,3.422 L11.942,4.392 C12.3264456,3.72071182 13.0465708,3.31271753 13.82,3.328 C14.508,3.328 15.04,3.515 15.416,3.954 C15.792,4.36 15.979,4.986 15.979,5.831 L15.979,9.9 L14.821,9.9 L14.821,5.863 C14.821,5.299 14.696,4.893 14.477,4.643 C14.258,4.392 13.914,4.298 13.476,4.298 C13.131,4.298 12.85,4.392 12.599,4.548 C12.349,4.705 12.129,4.924 11.973,5.205 L11.973,9.9 L10.815,9.9 L10.815,3.453 L11.848,3.422 Z M6.372,1.086 L6.372,1.996 L2.007,1.996 L2.007,5.086 L5.725,5.086 L5.725,6.024 L2.007,6.024 L2.007,9.98 L0.725,9.98 L0.725,1.086 L6.372,1.086 Z M22.74,6.85 L18.59,6.85 C18.59,7.62 18.747,8.177 19.061,8.52 C19.475,8.972 19.91,9.136 20.507,9.076 C21.549,8.972 21.75,8.693 22.181,8.447 L22.621,9.201 C22.107,9.731 21.286,9.996 20.157,9.996 C18.463,9.996 17.43,8.593 17.363,6.922 C17.295,5.251 17.963,3.312 20.157,3.231 C22.017,3.281 22.877,4.487 22.74,6.85 Z M21.575,5.931 C21.563,4.756 21.091,4.168 20.158,4.168 C19.225,4.168 18.715,4.756 18.628,5.931 L21.575,5.931 Z M7.72,3.43 L8.886,3.43 L8.886,9.846 L7.721,9.846 L7.72,3.43 Z M7.737,0.517 L7.737,1.674 L8.924,1.674 L8.924,0.517 L7.737,0.517 Z"></path>
                </g>
            </g>
            <polygon id="Path" fill="#000000" points="59.214 18.569 55.12 18.569 55.12 23 52.981 23 52.981 12.336 59.961 12.336 59.961 13.984 55.121 13.984 55.121 16.921 59.214 16.921"></polygon>
        </g>
    </g>
</svg>