<svg width="300" height="199" viewBox="0 0 300 199" xmlns="http://www.w3.org/2000/svg"><title>Italian higher</title><g fill="none" fill-rule="evenodd"><path fill="#F1F2F2" fill-rule="nonzero" d="M0 0h300v199H0z"/><path d="M39.125 55.375V74.75H75.25V55.375H39.125zm0-1H75.25V34h1v20.375h36.125V34h1v20.375H149.5V34h1v20.375h36.125V34h1v20.375h36.125V34h1v20.375h36.125V34h1v20.375H299.5v1h-37.625V74.75H299.5v1h-37.625v19.375H299.5v1h-37.625V115.5H299.5v1h-37.625v19.375H299.5v1h-37.625v19.375H299.5v1h-37.625v19.375H299.5v1h-37.625V199h-1v-21.375H224.75V199h-1v-21.375h-36.125V199h-1v-21.375H150.5V199h-1v-21.375h-36.125V199h-1v-21.375H76.25V199h-1v-21.375H39.125V199h-1v-21.375H1.5v-1h36.625V157.25H1.5v-1h36.625v-19.375H1.5v-1h36.625V116.5H1.5v-1h36.625V96.125H1.5v-1h36.625V75.75H1.5v-1h36.625V55.375H1.5v-1h36.625V34h1v20.375zm221.75 1H224.75V74.75h36.125V55.375zm-37.125 0h-36.125V74.75h36.125V55.375zm-37.125 0H150.5V74.75h36.125V55.375zm-37.125 0h-36.125V74.75H149.5V55.375zm-37.125 0H76.25V74.75h36.125V55.375zM39.125 75.75v19.375H75.25V75.75H39.125zm221.75 0H224.75v19.375h36.125V75.75zm-37.125 0h-36.125v19.375h36.125V75.75zm-37.125 0H150.5v19.375h36.125V75.75zm-37.125 0h-36.125v19.375H149.5V75.75zm-37.125 0H76.25v19.375h36.125V75.75zm-73.25 20.375V115.5H75.25V96.125H39.125zm221.75 0H224.75V115.5h36.125V96.125zm-37.125 0h-36.125V115.5h36.125V96.125zm-37.125 0H150.5V115.5h36.125V96.125zm-37.125 0h-36.125V115.5H149.5V96.125zm-37.125 0H76.25V115.5h36.125V96.125zM39.125 116.5v19.375H75.25V116.5H39.125zm221.75 0H224.75v19.375h36.125V116.5zm-37.125 0h-36.125v19.375h36.125V116.5zm-37.125 0H150.5v19.375h36.125V116.5zm-37.125 0h-36.125v19.375H149.5V116.5zm-37.125 0H76.25v19.375h36.125V116.5zm-73.25 20.375v19.375H75.25v-19.375H39.125zm221.75 0H224.75v19.375h36.125v-19.375zm-37.125 0h-36.125v19.375h36.125v-19.375zm-37.125 0H150.5v19.375h36.125v-19.375zm-37.125 0h-36.125v19.375H149.5v-19.375zm-37.125 0H76.25v19.375h36.125v-19.375zm-73.25 20.375v19.375H75.25V157.25H39.125zm221.75 0H224.75v19.375h36.125V157.25zm-37.125 0h-36.125v19.375h36.125V157.25zm-37.125 0H150.5v19.375h36.125V157.25zm-37.125 0h-36.125v19.375H149.5V157.25zm-37.125 0H76.25v19.375h36.125V157.25z" fill="#DFDEDE" fill-rule="nonzero"/><path stroke="#C2C2C2" stroke-width="2" d="M1 1h298v197H1z"/><path fill="#C2C2C2" fill-rule="nonzero" d="M0 33h300v2H0z"/><g transform="translate(4 51.46)"><path d="M.9 64.063h290.625" stroke="#2A3052" stroke-width="1.211" stroke-linejoin="round"/><path stroke="#2A3052" stroke-width="3.633" stroke-linecap="round" stroke-linejoin="round" d="M36 104.75L67.2 46.7l31.725 33.938 45.225-57.226 45.225 63.375L222.412.837l34.2 22.576"/><path d="M184.613 95H149.55l-5.4-8.213-5.4 8.213h-35.063c-2.624 0-4.724 2.138-4.724 4.8v24.788c0 2.662 2.137 4.8 4.725 4.8h80.962c2.625 0 4.725-2.138 4.725-4.8V99.8c0-2.662-2.137-4.8-4.762-4.8z" fill="#E88024" fill-rule="nonzero"/><path d="M246.037 72.875h-2.55L241.95 80.6h-1.125l1.538-7.725h-2.513l.188-.938h6.187l-.188.938zm2.438 7.763v-.488c0-.113.037-.263.037-.375-.262.3-.562.525-.9.712a2.1 2.1 0 0 1-1.012.3c-.563 0-1.012-.187-1.275-.525-.262-.337-.337-.825-.225-1.424.113-.638.45-1.163.938-1.463.524-.338 1.162-.487 1.95-.487h1.087l.113-.638c.075-.412.037-.713-.113-.9-.15-.188-.45-.3-.825-.3-.338 0-.637.112-.9.3a1.214 1.214 0 0 0-.487.675h-1.088v-.038c.075-.487.375-.937.862-1.312.525-.375 1.125-.563 1.838-.563.638 0 1.125.188 1.5.563.375.375.488.9.338 1.575l-.6 3.112-.113.675a1.82 1.82 0 0 0 0 .638h-1.125v-.037zm-1.5-.863c.3 0 .638-.075.975-.263.338-.187.6-.412.75-.674l.225-1.2H247.8c-.375 0-.75.112-1.05.374-.3.263-.488.525-.563.826-.075.3-.037.525.075.712.113.188.375.225.713.225zm8.063-4.538l-.638-.037c-.255 0-.504.078-.713.225a1.575 1.575 0 0 0-.562.638l-.9 4.575H251.1l1.275-6.45h1.012l-.075.862a2.25 2.25 0 0 1 .75-.712c.263-.15.563-.263.9-.263.076 0 .15 0 .263.037.113.038.15.038.188.038l-.376 1.087zm.337 2.175c.225-1.087.563-1.95 1.05-2.512.488-.563 1.087-.825 1.837-.825.338 0 .675.075.938.225.262.15.488.375.675.675l.262-.787h.976l-1.238 6.337c-.188.9-.525 1.575-1.05 2.025-.525.45-1.238.675-2.063.675-.306 0-.61-.051-.9-.15a2.378 2.378 0 0 1-.825-.338l.45-.9c.15.113.376.225.638.3.262.076.525.113.788.113.487 0 .862-.15 1.162-.45.328-.342.55-.772.637-1.237l.076-.45a2.201 2.201 0 0 1-1.613.637c-.675 0-1.2-.3-1.538-.938a3.296 3.296 0 0 1-.262-2.287v-.113zm1.125.113c-.15.675-.113 1.237.075 1.65.188.413.563.638 1.088.638.262 0 .524-.076.75-.225.224-.15.45-.375.637-.675l.6-3a1.616 1.616 0 0 0-.487-.638 1.305 1.305 0 0 0-.788-.225c-.488 0-.863.225-1.163.638-.3.45-.562 1.012-.674 1.724l-.038.113zm7.462 3.225c-.787 0-1.387-.3-1.8-.9-.412-.6-.524-1.387-.374-2.325l.037-.263c.15-.937.525-1.725 1.125-2.325.6-.6 1.238-.9 1.913-.9.787 0 1.35.263 1.687.788.337.525.45 1.237.3 2.1l-.113.75h-3.862c-.075.638-.038 1.163.188 1.575.225.375.562.563 1.05.563a2.816 2.816 0 0 0 1.762-.638l.337.75c-.224.225-.562.413-.9.563-.412.187-.862.262-1.35.262zm.713-5.737c-.338 0-.637.15-.938.487-.3.338-.525.75-.675 1.237v.038h2.625l.038-.15c.075-.487.037-.862-.15-1.162-.188-.3-.45-.45-.9-.45zm5.813-2.363l-.3 1.537h1.087l-.188.863H270l-.788 3.9c-.075.3-.075.525.038.638.075.112.225.15.413.15.075 0 .187 0 .337-.038a.706.706 0 0 0 .3-.075v.787c-.113.075-.262.113-.488.188-.225.038-.412.075-.637.075-.413 0-.713-.15-.938-.45-.225-.3-.262-.75-.15-1.35l.788-3.9h-.938l.188-.862h.938l.3-1.538h1.125v.075z" fill="#6D6E71" fill-rule="nonzero"/><ellipse cx="8.363" cy="8.662" rx="8.137" ry="8.475" opacity=".6" transform="translate(248.25 14.75)" fill="#FFF" fill-rule="nonzero"/><ellipse stroke="#E88024" stroke-width="2.422" cx="256.613" cy="23.413" rx="8.137" ry="8.475"/><ellipse cx="9" cy="8.5" rx="8.137" ry="8.475" opacity=".6" transform="translate(27 96.25)" fill="#FFF" fill-rule="nonzero"/><ellipse stroke="#E88024" stroke-width="2.422" cx="36" cy="104.75" rx="8.137" ry="8.475"/></g><g fill="#020202" fill-rule="nonzero"><path d="M23.052 12.816h-1.764v4.305c0 .446.113 1.444.848 2.02.66.519 2.248.888 3.242-.62l.199.909h1.512v-6.614h-1.825v4.852c-.239.508-1.737.928-2.1 0-.142-.736-.18-2.354-.112-4.852zM42.435 12.704h1.633l.105.99c.433-.942 1.07-1.296 1.911-1.063-.032.4-.087.92-.165 1.558-.607-.01-1.353-.178-1.746.617l.042 4.499h-1.78v-6.6zM58.457 12.704h1.632l.106.99c.433-.942 1.07-1.296 1.91-1.063-.031.4-.086.92-.164 1.558-.607-.01-1.353-.178-1.746.617l.041 4.499h-1.779v-6.6zM18.268 13.18c.936.017 1.373.017 1.788 0 .02-.953-.68-2.861-3.465-2.713-2.785.148-2.978 1.843-2.978 2.782 0 .83.697 1.579 1.857 2.054 1.435.588 2.798.6 2.908 1.825.144 1.604-3.329 1.616-3.236-.4-.655.014-1.222.014-1.7 0 0 .4-.287 3.023 4 2.859 1.767-.068 2.703-1.28 2.703-2.459 0-1.104-.74-1.717-1.299-2.116-.798-.57-2.617-.763-3.244-1.499-.584-.685.056-1.618.917-1.69 1.437-.118 1.846.814 1.749 1.358zM30.274 21.752h-1.82v-9.187h1.628c.02.252.056.514.11.786.798-1.185 2.376-1.173 3.325-.242.949.93.949 2.566.949 3.415 0 .393-.284 1.695-.949 2.24-1.02.833-2.7.753-3.243-.171-.01.93-.01 1.983 0 3.16zm.005-4.35c.559.917 1.954.693 2.231-.243a4.076 4.076 0 0 0-.14-2.736c-.35-.841-1.846-.712-2.091.073v2.906zM37.295 16.428c.147 1.612 1.256 1.976 3.328 1.092.19.43.351.808.484 1.134-4.182 1.91-5.6-.859-5.634-2.226-.033-1.367.034-3.934 3.034-3.934 2 0 2.912 1.311 2.736 3.934h-3.948zm2.218-1.2c-.006-.218.138-1.366-.996-1.366-1.135 0-1.147 1.07-1.209 1.365h2.205zM64.544 16.428c.146 1.612 1.256 1.976 3.328 1.092.19.43.351.808.484 1.134-4.182 1.91-5.6-.859-5.634-2.226-.033-1.367.033-3.934 3.034-3.934 2 0 2.912 1.311 2.736 3.934h-3.948zm2.218-1.2c-.006-.218.138-1.366-.996-1.366-1.135 0-1.148 1.07-1.209 1.365h2.205zM53.81 12.27c.785-.044 1.778.229 2.333.792.614.623 1.053 1.399 1.053 2.678 0 1.133-.226 1.953-.762 2.615-.606.748-1.549 1.09-2.315 1.09-.793 0-1.654-.125-2.378-.793-.592-.548-1.14-1.486-1.085-2.795.06-1.447.526-2.272 1.085-2.795.566-.528 1.23-.747 2.07-.793zm.183 1.429c-.61 0-1.437.286-1.437 2.084 0 1.797.667 2.232 1.437 2.232s1.413-.715 1.358-2.318c-.055-1.603-.748-1.998-1.358-1.998z"/><g><path d="M47.67 13.632h1.645v5.746h-1.646zM47.703 10.883v1.292h1.576v-1.292z"/></g></g><g fill="#2A3052" fill-rule="nonzero"><path d="M27.938 175.785l.108 1.107a2.413 2.413 0 0 1 2.142-1.214c.785 0 1.392.214 1.82.714.429.464.643 1.178.643 2.142v4.641h-1.32v-4.605c0-.643-.144-1.107-.394-1.393-.25-.285-.642-.392-1.142-.392-.393 0-.714.107-1 .285a2.062 2.062 0 0 0-.714.75v5.355h-1.32v-7.354l1.177-.036zM23.264 173.152h1.234v9.752h-1.234zM45.062 175.722h1.304v7.177h-1.304zM45.08 172.462v1.295h1.328v-1.295zM34.696 175.733H36v7.178h-1.304zM34.713 172.473v1.294h1.329v-1.294z"/><path d="M34.67 175.733h1.305v7.178H34.67zM34.688 172.473v1.294h1.329v-1.294zM37.78 176.708v-1.03h5.49v.869l-3.967 5.379h4.177v.978h-5.7v-.834l3.92-5.362zM51.455 175.514c2.157 0 3.12 1.574 3.283 3.392.162 1.818-.603 4.001-2.988 4.188-2.386.186-3.578-1.74-3.578-3.773 0-2.032 1.125-3.807 3.283-3.807zm-.052 1.037c-.803 0-1.754.483-1.875 2.454-.122 1.97.672 3.052 1.938 3.052s1.935-1.15 1.935-3.052c0-1.903-1.194-2.454-1.998-2.454z"/></g><g fill="#2A3052" fill-rule="nonzero"><path d="M261.412 93.526l.094.97a2.116 2.116 0 0 1 1.877-1.064c.689 0 1.221.188 1.597.626.375.407.563 1.032.563 1.877v4.07h-1.158v-4.038c0-.564-.125-.97-.344-1.22-.22-.251-.564-.345-1.002-.345-.344 0-.626.094-.876.25-.25.157-.47.376-.626.658v4.694h-1.158v-6.447l1.033-.031zM255.935 91.19v.91h-4.365v3.091h3.718v.937h-3.718v3.956h-1.282V91.19zM272.304 96.954h-4.151c0 .77.157 1.327.472 1.67.413.452.849.616 1.445.556 1.042-.104 1.244-.383 1.675-.629l.44.754c-.514.53-1.336.795-2.465.795-1.694 0-2.726-1.403-2.794-3.074-.067-1.67.6-3.61 2.794-3.691 1.86.05 2.72 1.256 2.584 3.619zm-1.166-.919c-.012-1.175-.484-1.763-1.417-1.763-.932 0-1.442.588-1.53 1.763h2.947zM257.284 93.535h1.166v6.415h-1.166zM257.3 90.621v1.157h1.187v-1.157z"/></g><g fill="#FFF" fill-rule="nonzero"><path d="M183.728 166.08h-2.22v-7.348h2.22zM183.728 169.946h-2.22v-1.974h2.22z"/></g><path d="M164.643 161.787h1.597l.08 1.163c.655-.975 1.503-1.409 2.546-1.3.604.062 1.877.26 2.257 1.974.14.629.11 1.691.1 3.135-.005.56-.005 1.53 0 2.91h-1.753v-4.937c0-.58-.162-1.229-.65-1.474-.669-.337-1.929-.196-2.434.654v5.758h-1.743v-7.883zM117.411 165.505v-1.294h3.914c.044 2.255.044 3.57 0 3.944-.33.988-4.239 2.783-6.763.506-.752-.679-1.106-1.43-1.3-2.569-.008-1.162-.029-2.253-.02-3.284.19-1.264.614-1.982.955-2.39 1.24-1.483 3.218-1.802 4.957-1.201 1.738.6 1.964 1.85 2.105 3.07-.403 0-.615-.017-1.703 0 .11-.686-.515-2.015-2.146-1.942-1.632.073-2.402 1.414-2.402 2.53 0 1.117-.058.742 0 2.96.075 2.55 3.129 3.233 4.548 1.872l.052-2.17-2.197-.032zM176.197 161.647c2.184 0 3.369 1.332 3.668 3.326.3 1.995-.777 4.813-3.514 4.813-2.737 0-3.623-2.081-3.623-4.235 0-2.153 1.285-3.904 3.469-3.904zm.02 1.398c-.65.061-1.8.516-1.733 2.67.067 2.153 1.009 2.659 1.733 2.659.723 0 1.944-.2 1.944-2.65 0-2.45-1.295-2.74-1.944-2.68z" fill="#FFF" fill-rule="nonzero"/><path d="M176.217 163.045c-.65.061-1.8.516-1.733 2.67.067 2.153 1.009 2.659 1.733 2.659.723 0 1.944-.2 1.944-2.65 0-2.45-1.295-2.74-1.944-2.68z"/><path d="M123.251 161.849c.71.021 1.272.021 1.687 0v4.434c0 1.76.646 2.062 1.274 2.122a1.996 1.996 0 0 0 1.834-.874c.015-2.024.015-3.918 0-5.682h1.808v7.83h-1.546l-.165-1.15c-.546.94-1.402 1.359-2.568 1.256-1.75-.155-2.324-1.647-2.324-3.035 0-2.42-.038-3.681 0-4.901zM133.546 164.009c-.535-.004-1.096-.004-1.683 0 0-.844.604-2.376 3.021-2.376 2.418 0 2.998 1.661 3.064 2.018.065.358-.169 5.372.337 5.942l-1.796.002c-.148-.508-.222-.883-.222-1.126-.28.342-.762.967-1.503 1.197-.74.23-2.423.353-3.111-1.261-.455-1.064-.165-2.26.688-2.809 1.41-.905 3.348-.603 3.926-.603.074-1.615-.408-1.991-1.503-1.991-.73 0-1.136.335-1.218 1.007zm2.72 2.089c-.53-.01-.889-.013-1.774.014-.705.063-1.332.584-1.279 1.326.064.886 1.07 1.049 1.859.793.661-.214 1.122-.768 1.194-1.003v-1.13zM149.856 164.009c-.535-.004-1.097-.004-1.683 0 0-.844.604-2.376 3.021-2.376 2.418 0 2.998 1.661 3.064 2.018.065.358-.169 5.372.337 5.942l-1.796.002c-.148-.508-.223-.883-.223-1.126-.28.342-.762.967-1.502 1.197-.74.23-2.423.353-3.112-1.261-.454-1.064-.164-2.26.69-2.809 1.409-.905 3.346-.603 3.924-.603.075-1.615-.407-1.991-1.502-1.991-.73 0-1.136.335-1.218 1.007zm2.72 2.089c-.531-.01-.889-.013-1.774.014-.705.063-1.333.584-1.279 1.326.064.886 1.07 1.049 1.859.793.66-.214 1.122-.768 1.194-1.003v-1.13zM144.528 158.395h1.704v11.286h-1.401a23.878 23.878 0 0 1-.213-1c-.28.78-3.127 2.155-4.536-.173-1.178-1.945-.53-4.559.07-5.505.45-.71 2.276-2.534 4.376-.303.003-2.62.003-4.056 0-4.305zm.01 5.692c-.272-.861-2.097-1.405-2.83-.352-.732 1.054-.698 2.405-.28 3.64.42 1.236 2.212 1.471 3.11.113v-3.401zM161.182 162.84l.176-.993h1.434v7.944c.005 2.769-3.104 3.83-5.96 2.446.163-.816.253-1.273.27-1.37 1.244.416 4.341 1.457 3.947-1.99-1.778 1.821-3.79.717-4.487-.499-.768-1.343-1.268-5.348 1.204-6.429 1.424-.622 2.563-.326 3.416.89zm-.149 1.21c-.338-.511-.555-.938-1.69-.938-1.137 0-1.848 1.394-1.601 3.534.246 2.14 2.569 2.14 3.291.786v-3.381z" fill="#FFF" fill-rule="nonzero"/></g></svg>