<?xml version="1.0" encoding="UTF-8"?>
<svg width="299px" height="197px" viewBox="0 0 299 197" version="1.1" xmlns="http://www.w3.org/2000/svg" xmlns:xlink="http://www.w3.org/1999/xlink">
    <!-- Generator: Sketch 52.6 (67491) - http://www.bohemiancoding.com/sketch -->
    <title>low-tick</title>
    <desc>Created with Sketch.</desc>
    <g id="Page-1" stroke="none" stroke-width="1" fill="none" fill-rule="evenodd">
        <g id="low-tick">
            <polygon id="Path" fill="#F1F2F2" points="299 0 299 197 0 197 0 0"></polygon>
            <path d="M296.573044,2.40070984 L2.42695608,2.40070984 L2.42695608,194.59929 L296.573044,194.59929 L296.573044,2.40070984 Z M299,197 L0,197 L0,0 L299,0 L299,197 Z" id="Path" fill="#C2C2C2" fill-rule="nonzero"></path>
            <path d="M2.954,52.0555 L2.954,50.8285 L297.507,50.8285 L297.507,52.0555 L2.954,52.0555 Z M2.954,93.5035 L2.954,92.2765 L297.507,92.2765 L297.507,93.5035 L2.954,93.5035 Z M2.954,134.9475 L2.954,133.7205 L297.507,133.7205 L297.507,134.9475 L2.954,134.9475 Z M2.954,176.3535 L2.954,175.1265 L297.507,175.1265 L297.507,176.3535 L2.954,176.3535 Z M37.9155,30.739 L39.1425,30.739 L39.1425,194 L37.9155,194 L37.9155,30.739 Z M75.2015,30.739 L76.4285,30.739 L76.4285,194 L75.2015,194 L75.2015,30.739 Z M112.4465,30.739 L113.6735,30.739 L113.6735,194 L112.4465,194 L112.4465,30.739 Z M149.7305,30.739 L150.9575,30.739 L150.9575,194 L149.7305,194 L149.7305,30.739 Z M186.9775,30.739 L188.2045,30.739 L188.2045,194 L186.9775,194 L186.9775,30.739 Z M224.2265,30.739 L225.4535,30.739 L225.4535,194 L224.2265,194 L224.2265,30.739 Z M2.954,114.2055 L2.954,112.9785 L297.507,112.9785 L297.507,114.2055 L2.954,114.2055 Z" id="Shape" fill="#DFDEDE" fill-rule="nonzero"></path>
            <polygon id="Path" fill="#C2C2C2" fill-rule="nonzero" points="4 30 4 28 294 28 294 30"></polygon>
            <polygon id="Path" fill="#15212D" fill-rule="nonzero" points="4.448 164.412 4.448 163.264 294.448 163.264 294.448 164.412"></polygon>
            <path d="M135.159919,109.248094 L89.8355119,145.119588 C89.2311046,145.59794 88.3926862,145.649125 87.7345783,145.247849 L37.0655783,114.352849 C36.1974701,113.823527 35.9228295,112.690686 36.4521512,111.822578 C36.9814729,110.95447 38.1143136,110.679829 38.9824217,111.209151 L88.5562737,141.436394 L134.179488,105.328412 C134.92036,104.742056 135.984833,104.811735 136.642947,105.489666 L184.701059,154.994868 L244.485659,68.8701881 C245.065454,68.0349451 246.212569,67.8278637 247.047812,68.4076588 C247.883055,68.9874539 248.090136,70.1345689 247.510341,70.9698119 L186.450341,158.931812 C185.789558,159.883725 184.424193,159.995777 183.617053,159.164334 L135.159919,109.248094 Z" id="Path" fill="#2A3052" fill-rule="nonzero"></path>
            <ellipse id="Oval" fill="#FFFFFF" opacity="0.6" cx="185.376" cy="158.21" rx="8.247" ry="8.633"></ellipse>
            <path d="M185.376,168.0705 C180.1305,168.0705 175.9015,163.643562 175.9015,158.21 C175.9015,152.776438 180.1305,148.3495 185.376,148.3495 C190.6215,148.3495 194.8505,152.776438 194.8505,158.21 C194.8505,163.643562 190.6215,168.0705 185.376,168.0705 Z M185.376,165.6155 C189.239885,165.6155 192.3955,162.312187 192.3955,158.21 C192.3955,154.107813 189.239885,150.8045 185.376,150.8045 C181.512115,150.8045 178.3565,154.107813 178.3565,158.21 C178.3565,162.312187 181.512115,165.6155 185.376,165.6155 Z" id="Oval" fill="#E88024" fill-rule="nonzero"></path>
            <path d="M138.39,176.111 L135.813,176.111 L135.813,183.5 L134.389,183.5 L134.389,176.111 L131.811,176.111 L131.811,174.969 L138.391,174.969 L138.391,176.111 L138.39,176.111 Z M140.84,183.5 L139.416,183.5 L139.416,177.16 L140.84,177.16 L140.84,183.5 Z M140.84,175.607 L139.416,175.607 L139.416,174.359 L140.84,174.359 L140.84,175.607 Z M145.053,182.487 C145.373984,182.496421 145.687097,182.386707 145.932,182.179 C146.162331,181.99031 146.293817,181.706714 146.289,181.409 L147.579,181.409 L147.59,181.443 C147.61,182.037 147.368,182.549 146.866,182.979 C146.364,183.409 145.76,183.623 145.053,183.623 C144.119,183.623 143.403,183.323 142.905,182.721 C142.407,182.119 142.158,181.357 142.158,180.436 L142.158,180.23 C142.158,179.312 142.408,178.552 142.905,177.948 C143.403,177.345 144.119,177.043 145.053,177.043 C145.815,177.043 146.433,177.265 146.907,177.708 C147.382,178.151 147.611,178.715 147.596,179.398 L147.584,179.434 L146.289,179.434 C146.289,179.086 146.175,178.791 145.946,178.549 C145.718,178.307 145.42,178.186 145.053,178.186 C144.518,178.186 144.139,178.38 143.916,178.769 C143.694,179.157 143.582,179.645 143.582,180.23 L143.582,180.436 C143.582,181.033 143.694,181.524 143.916,181.909 C144.139,182.294 144.518,182.486 145.053,182.486 L145.053,182.487 Z M150.795,180.729 L150.156,180.729 L150.156,183.5 L148.738,183.5 L148.738,174.36 L150.156,174.36 L150.156,179.586 L150.748,179.586 L152.348,177.16 L154.024,177.16 L151.932,180.043 L154.334,183.5 L152.682,183.5 L150.795,180.729 Z M162.695,180.459 L163.774,180.459 L163.774,181.607 L162.695,181.607 L162.695,183.5 L161.277,183.5 L161.277,181.607 L157.615,181.607 L157.58,180.734 L161.23,174.969 L162.695,174.969 L162.695,180.459 Z M158.986,180.459 L161.277,180.459 L161.277,176.996 L161.242,176.984 L161.125,177.236 L158.986,180.459 Z M166.386,183.5 L164.969,183.5 L164.969,182.135 L166.387,182.135 L166.387,183.5 L166.386,183.5 Z M166.386,178.367 L164.969,178.367 L164.969,177.002 L166.387,177.002 L166.387,178.367 L166.386,178.367 Z M177.039,176.111 L174.461,176.111 L174.461,183.5 L173.037,183.5 L173.037,176.111 L170.459,176.111 L170.459,174.969 L177.039,174.969 L177.039,176.111 Z M179.489,183.5 L178.065,183.5 L178.065,177.16 L179.488,177.16 L179.488,183.5 L179.489,183.5 Z M179.489,175.607 L178.065,175.607 L178.065,174.359 L179.488,174.359 L179.488,175.607 L179.489,175.607 Z M183.701,182.487 C184.022326,182.49667 184.335838,182.386941 184.581,182.179 C184.811331,181.99031 184.942817,181.706714 184.938,181.409 L186.227,181.409 L186.238,181.443 C186.258,182.037 186.017,182.549 185.515,182.979 C185.013,183.409 184.408,183.623 183.701,183.623 C182.768,183.623 182.051,183.323 181.554,182.721 C181.056,182.119 180.807,181.357 180.807,180.436 L180.807,180.23 C180.807,179.312 181.056,178.552 181.554,177.948 C182.052,177.345 182.768,177.043 183.701,177.043 C184.463,177.043 185.081,177.265 185.556,177.708 C186.03,178.151 186.26,178.715 186.244,179.398 L186.233,179.434 L184.938,179.434 C184.938,179.086 184.823,178.791 184.595,178.549 C184.366,178.307 184.069,178.186 183.701,178.186 C183.166,178.186 182.787,178.38 182.565,178.769 C182.342,179.157 182.231,179.645 182.231,180.23 L182.231,180.436 C182.231,181.033 182.341,181.524 182.565,181.909 C182.787,182.294 183.166,182.486 183.701,182.486 L183.701,182.487 Z M189.444,180.729 L188.804,180.729 L188.804,183.5 L187.387,183.5 L187.387,174.36 L188.805,174.36 L188.805,179.586 L189.397,179.586 L190.997,177.16 L192.672,177.16 L190.58,180.043 L192.983,183.5 L191.33,183.5 L189.444,180.729 Z M197.951,177.16 L198.027,177.986 C198.235,177.686 198.494,177.453 198.807,177.289 C199.142758,177.119529 199.51498,177.035058 199.891,177.043 C200.305,177.043 200.661,177.137 200.957,177.324 C201.254,177.512 201.477,177.793 201.625,178.168 C201.82,177.816 202.078,177.541 202.399,177.342 C202.719,177.142 203.094,177.043 203.524,177.043 C204.16,177.043 204.664,177.261 205.032,177.696 C205.402,178.132 205.586,178.793 205.586,179.68 L205.586,183.5 L204.162,183.5 L204.162,179.674 C204.162,179.134 204.069,178.756 203.884,178.537 C203.698,178.318 203.42,178.209 203.049,178.209 C202.744,178.209 202.486,178.291 202.276,178.455 C202.065,178.619 201.912,178.84 201.819,179.117 C201.819,179.176 201.82,179.227 201.824,179.27 C201.828,179.312 201.83,179.354 201.83,179.393 L201.83,183.5 L200.406,183.5 L200.406,179.674 C200.406,179.154 200.312,178.78 200.122,178.552 C199.932,178.323 199.654,178.209 199.287,178.209 C199.031779,178.201201 198.778793,178.258682 198.552,178.376 C198.351,178.487 198.192,178.645 198.074,178.848 L198.074,183.5 L196.651,183.5 L196.651,177.16 L197.951,177.16 Z M208.604,183.5 L207.18,183.5 L207.18,177.16 L208.604,177.16 L208.604,183.5 Z M208.604,175.607 L207.18,175.607 L207.18,174.359 L208.604,174.359 L208.604,175.607 Z M211.486,177.16 L211.569,178.074 C211.776,177.75 212.036,177.497 212.351,177.315 C212.67473,177.131143 213.041748,177.03723 213.414,177.043 C214.074,177.043 214.589,177.243 214.958,177.643 C215.328,178.043 215.512,178.668 215.512,179.516 L215.512,183.5 L214.088,183.5 L214.088,179.527 C214.088,179.051 213.989,178.712 213.792,178.511 C213.595,178.31 213.295,178.209 212.892,178.209 C212.37359,178.200767 211.888124,178.462434 211.61,178.9 L211.61,183.5 L210.186,183.5 L210.186,177.16 L211.486,177.16 Z M218.512,183.5 L217.088,183.5 L217.088,177.16 L218.512,177.16 L218.512,183.5 Z M218.512,175.607 L217.088,175.607 L217.088,174.359 L218.512,174.359 L218.512,175.607 Z M221.406,177.16 L221.483,177.986 C221.69,177.686 221.949,177.453 222.262,177.289 C222.597758,177.119529 222.96998,177.035058 223.346,177.043 C223.76,177.043 224.116,177.137 224.412,177.324 C224.709,177.512 224.932,177.793 225.08,178.168 C225.276,177.816 225.533,177.541 225.854,177.342 C226.174,177.142 226.549,177.043 226.979,177.043 C227.615,177.043 228.119,177.261 228.487,177.696 C228.857,178.132 229.041,178.793 229.041,179.68 L229.041,183.5 L227.617,183.5 L227.617,179.674 C227.617,179.134 227.525,178.756 227.339,178.537 C227.153,178.318 226.875,178.209 226.504,178.209 C226.199,178.209 225.942,178.291 225.731,178.455 C225.52,178.619 225.367,178.84 225.274,179.117 C225.274,179.176 225.276,179.227 225.279,179.27 C225.283,179.312 225.285,179.354 225.285,179.393 L225.285,183.5 L223.861,183.5 L223.861,179.674 C223.861,179.154 223.767,178.78 223.577,178.552 C223.387,178.323 223.11,178.209 222.742,178.209 C222.486779,178.201201 222.233793,178.258682 222.007,178.376 C221.806,178.487 221.647,178.645 221.529,178.848 L221.529,183.5 L220.106,183.5 L220.106,177.16 L221.406,177.16 Z M230.277,180.271 C230.277,179.331 230.535,178.557 231.051,177.951 C231.574,177.346 232.283,177.043 233.178,177.043 C234.088,177.043 234.801,177.346 235.317,177.951 C235.837,178.553 236.096,179.326 236.096,180.271 L236.096,180.395 C236.096,181.348 235.836,182.125 235.316,182.727 C234.801,183.324 234.092,183.623 233.19,183.623 C232.283,183.623 231.57,183.323 231.05,182.721 C230.535,182.119 230.277,181.344 230.277,180.395 L230.277,180.271 Z M231.701,180.395 C231.701,181.012 231.822,181.515 232.065,181.906 C232.303,182.293 232.678,182.486 233.19,182.486 C233.686,182.486 234.057,182.293 234.303,181.906 C234.553,181.516 234.678,181.012 234.678,180.395 L234.678,180.271 C234.678,179.666 234.553,179.168 234.303,178.777 C234.057,178.383 233.682,178.186 233.178,178.186 C232.682,178.186 232.311,178.383 232.065,178.777 C231.822,179.172 231.701,179.67 231.701,180.271 L231.701,180.395 Z M212.355,54.461 L209.777,54.461 L209.777,61.85 L208.354,61.85 L208.354,54.46 L205.775,54.46 L205.775,53.32 L212.355,53.32 L212.355,54.462 L212.355,54.461 Z M214.805,61.85 L213.381,61.85 L213.381,55.51 L214.805,55.51 L214.805,61.85 Z M214.805,53.957 L213.381,53.957 L213.381,52.71 L214.805,52.71 L214.805,53.958 L214.805,53.957 Z M219.018,60.837 C219.338773,60.8458945 219.651502,60.735834 219.896,60.528 C220.126705,60.3395073 220.258573,60.0558817 220.254,59.758 L221.543,59.758 L221.555,59.793 C221.575,60.387 221.333,60.899 220.831,61.328 C220.329,61.758 219.725,61.973 219.018,61.973 C218.084,61.973 217.368,61.672 216.87,61.07 C216.372,60.469 216.123,59.707 216.123,58.785 L216.123,58.58 C216.123,57.662 216.373,56.902 216.87,56.298 C217.368,55.694 218.084,55.393 219.018,55.393 C219.779,55.393 220.398,55.614 220.872,56.058 C221.347,56.501 221.576,57.065 221.561,57.748 L221.549,57.783 L220.254,57.783 C220.254,57.436 220.14,57.141 219.911,56.899 C219.683,56.656 219.385,56.535 219.018,56.535 C218.482,56.535 218.104,56.73 217.881,57.118 C217.658,57.507 217.547,57.994 217.547,58.58 L217.547,58.785 C217.547,59.383 217.658,59.875 217.881,60.259 C218.104,60.644 218.482,60.836 219.018,60.836 L219.018,60.837 Z M224.76,59.078 L224.121,59.078 L224.121,61.85 L222.703,61.85 L222.703,52.71 L224.121,52.71 L224.121,57.936 L224.713,57.936 L226.313,55.51 L227.988,55.51 L225.896,58.393 L228.299,61.85 L226.646,61.85 L224.76,59.078 Z M231.703,58.768 C231.703,57.756 231.92,56.941 232.353,56.321 C232.787,55.702 233.396,55.393 234.182,55.393 C234.501538,55.3876739 234.817699,55.4589988 235.104,55.601 C235.376,55.739 235.611,55.938 235.811,56.195 L235.811,52.71 L237.234,52.71 L237.234,61.85 L236.039,61.85 L235.899,61.066 C235.712634,61.3470427 235.461178,61.5789441 235.166,61.742 C234.858763,61.9017821 234.516219,61.9815717 234.17,61.974 C233.393,61.974 232.787,61.691 232.354,61.124 C231.92,60.558 231.704,59.814 231.704,58.892 L231.704,58.769 L231.703,58.768 Z M233.127,58.891 C233.127,59.477 233.239,59.944 233.464,60.291 C233.688,60.639 234.044,60.813 234.534,60.813 C234.834,60.813 235.089,60.748 235.298,60.619 C235.507,60.49 235.678,60.307 235.811,60.069 L235.811,57.303 C235.688372,57.079446 235.51078,56.8908414 235.295,56.755 C235.084,56.625 234.834,56.559 234.545,56.559 C234.061,56.559 233.703,56.763 233.473,57.171 C233.243,57.579 233.127,58.111 233.127,58.768 L233.127,58.891 Z M240.281,61.85 L238.857,61.85 L238.857,55.51 L240.281,55.51 L240.281,61.85 Z M240.281,53.957 L238.857,53.957 L238.857,52.71 L240.281,52.71 L240.281,53.958 L240.281,53.957 Z M248.812,60.924 C248.629941,61.2423026 248.370189,61.5092788 248.057,61.7 C247.736984,61.8859314 247.372036,61.9803682 247.002,61.973 C246.322,61.973 245.791,61.756 245.408,61.323 C245.025,60.889 244.834,60.215 244.834,59.301 L244.834,55.51 L246.252,55.51 L246.252,59.313 C246.252,59.867 246.342,60.256 246.522,60.479 C246.702,60.701 246.972,60.813 247.336,60.813 C247.68,60.813 247.968,60.751 248.2,60.628 C248.430963,60.5065073 248.621424,60.320217 248.748,60.092 L248.748,55.51 L250.172,55.51 L250.172,61.85 L248.93,61.85 L248.812,60.924 Z M255.222,60.127 C255.222,59.908 255.129,59.727 254.942,59.582 C254.754,59.438 254.404,59.311 253.892,59.202 C253.135,59.042 252.562,58.814 252.172,58.519 C251.784,58.224 251.59,57.822 251.59,57.315 C251.59,56.783 251.814,56.33 252.264,55.955 C252.713,55.58 253.304,55.393 254.039,55.393 C254.813,55.393 255.427,55.583 255.882,55.964 C256.337,56.344 256.555,56.817 256.535,57.379 L256.523,57.414 L255.158,57.414 C255.158,57.152 255.058,56.928 254.859,56.74 C254.66,56.553 254.387,56.46 254.039,56.46 C253.695,56.46 253.434,56.536 253.254,56.69 C253.082011,56.8273156 252.982499,57.0359241 252.984,57.256 C252.984,57.479 253.069,57.656 253.239,57.786 C253.409,57.917 253.754,58.033 254.273,58.135 C255.07,58.299 255.661,58.53 256.046,58.829 C256.431,59.129 256.623,59.535 256.623,60.051 C256.623,60.621 256.388,61.084 255.917,61.44 C255.447,61.795 254.827,61.973 254.057,61.973 C253.232,61.973 252.582,61.762 252.105,61.34 C251.629,60.918 251.402,60.434 251.425,59.887 L251.437,59.852 L252.762,59.852 C252.777,60.219 252.91,60.486 253.16,60.654 C253.41,60.822 253.715,60.906 254.074,60.906 C254.441,60.906 254.724,60.836 254.924,60.696 C255.123,60.555 255.223,60.366 255.223,60.127 L255.222,60.127 Z M260.52,60.837 C260.840773,60.8458945 261.153502,60.735834 261.398,60.528 C261.628705,60.3395073 261.760573,60.0558817 261.756,59.758 L263.045,59.758 L263.057,59.793 C263.077,60.387 262.835,60.899 262.333,61.328 C261.831,61.758 261.227,61.973 260.52,61.973 C259.586,61.973 258.87,61.672 258.372,61.07 C257.874,60.469 257.625,59.707 257.625,58.785 L257.625,58.58 C257.625,57.662 257.874,56.902 258.372,56.298 C258.87,55.694 259.586,55.393 260.52,55.393 C261.281,55.393 261.9,55.614 262.374,56.058 C262.849,56.501 263.078,57.065 263.062,57.748 L263.051,57.783 L261.756,57.783 C261.756,57.436 261.642,57.141 261.413,56.899 C261.185,56.656 260.887,56.535 260.52,56.535 C259.984,56.535 259.605,56.73 259.383,57.118 C259.16,57.507 259.049,57.994 259.049,58.58 L259.049,58.785 C259.049,59.383 259.16,59.875 259.383,60.259 C259.605,60.644 259.984,60.836 260.52,60.836 L260.52,60.837 Z M265.717,61.85 L264.293,61.85 L264.293,55.51 L265.717,55.51 L265.717,61.85 Z M265.717,53.957 L264.293,53.957 L264.293,52.71 L265.717,52.71 L265.717,53.958 L265.717,53.957 Z M269.08,53.969 L269.08,55.509 L270.217,55.509 L270.217,56.565 L269.08,56.565 L269.08,60.069 C269.08,60.33 269.137,60.517 269.25,60.629 C269.371658,60.743112 269.534392,60.8030096 269.701,60.795 C269.851023,60.7960851 270.000033,60.770347 270.141,60.719 L270.293,61.762 C270.156388,61.8339227 270.010266,61.8861089 269.859,61.917 C269.687885,61.9545473 269.513186,61.9733249 269.338,61.973 C268.814,61.973 268.404,61.819 268.108,61.513 C267.811,61.206 267.662,60.725 267.662,60.069 L267.662,56.565 L266.695,56.565 L266.695,55.51 L267.662,55.51 L267.662,53.969 L269.08,53.969 Z M275.297,61.849 C275.247825,61.6950209 275.20578,61.5388548 275.171,61.381 C275.138179,61.2303895 275.115793,61.0776934 275.104,60.924 C274.903733,61.225567 274.640747,61.4803662 274.333,61.671 C274.01296,61.8728359 273.64134,61.977723 273.263,61.973 C272.603,61.973 272.097,61.803 271.743,61.463 C271.39,61.123 271.213,60.656 271.213,60.063 C271.213,59.449 271.455,58.972 271.939,58.63 C272.424,58.288 273.105,58.117 273.984,58.117 L275.092,58.117 L275.092,57.561 C275.092,57.229 274.994,56.969 274.799,56.781 C274.604,56.594 274.324,56.501 273.961,56.501 C273.637,56.501 273.379,56.578 273.187,56.735 C273.001431,56.8793625 272.895017,57.1029434 272.9,57.338 L271.53,57.338 L271.523,57.303 C271.496,56.803 271.72,56.36 272.194,55.973 C272.669,55.586 273.287,55.393 274.049,55.393 C274.787,55.393 275.383,55.58 275.836,55.955 C276.289,56.33 276.516,56.869 276.516,57.572 L276.516,60.391 C276.516,60.652 276.533,60.903 276.568,61.144 C276.604,61.384 276.66,61.619 276.738,61.85 L275.297,61.85 L275.297,61.849 Z M273.551,60.83 C273.911,60.83 274.233,60.74 274.521,60.56 C274.808,60.381 274.998,60.176 275.091,59.945 L275.091,59.008 L273.961,59.008 C273.547,59.008 273.223,59.111 272.988,59.316 C272.754,59.521 272.637,59.762 272.637,60.039 C272.637,60.281 272.716,60.474 272.874,60.616 C273.032,60.759 273.258,60.83 273.551,60.83 Z M17.431,102.406 L16.126,102.406 L16.126,94.586 L17.431,94.586 L17.431,102.406 Z M20.229,96.594 L20.305,97.432 C20.495,97.135 20.733,96.903 21.022,96.737 C21.31,96.57 21.635,96.487 21.997,96.487 C22.602,96.487 23.073,96.67 23.412,97.037 C23.75,97.404 23.919,97.977 23.919,98.753 L23.919,102.406 L22.614,102.406 L22.614,98.764 C22.614,98.327 22.524,98.017 22.343,97.832 C22.163,97.648 21.887,97.556 21.518,97.556 C21.0425902,97.5481206 20.5972374,97.7878386 20.342,98.189 L20.342,102.406 L19.037,102.406 L19.037,96.594 L20.229,96.594 Z M26.669,102.406 L25.364,102.406 L25.364,96.594 L26.669,96.594 L26.669,102.406 Z M26.669,95.171 L25.364,95.171 L25.364,94.027 L26.669,94.027 L26.669,95.171 Z M29.516,101.364 L32.621,101.364 L32.621,102.406 L27.899,102.406 L27.899,101.552 L30.832,97.647 L27.958,97.647 L27.958,96.594 L32.481,96.594 L32.481,97.421 L29.516,101.364 Z M35.096,102.406 L33.791,102.406 L33.791,96.594 L35.097,96.594 L35.097,102.406 L35.096,102.406 Z M35.096,95.171 L33.791,95.171 L33.791,94.027 L35.097,94.027 L35.097,95.171 L35.096,95.171 Z M36.316,99.446 C36.316,98.583 36.552,97.874 37.025,97.319 C37.505,96.764 38.155,96.487 38.975,96.487 C39.809,96.487 40.462,96.764 40.935,97.319 C41.411,97.871 41.649,98.579 41.649,99.446 L41.649,99.559 C41.649,100.433 41.411,101.145 40.935,101.697 C40.462,102.245 39.812,102.519 38.985,102.519 C38.155,102.519 37.501,102.243 37.025,101.691 C36.552,101.14 36.315,100.429 36.315,99.559 L36.315,99.446 L36.316,99.446 Z M37.621,99.559 C37.621,100.125 37.732,100.587 37.954,100.945 C38.172,101.299 38.516,101.477 38.985,101.477 C39.44,101.477 39.78,101.299 40.005,100.945 C40.235,100.587 40.35,100.125 40.35,99.559 L40.35,99.446 C40.35,98.891 40.235,98.435 40.006,98.076 C39.78,97.715 39.436,97.534 38.975,97.534 C38.52,97.534 38.18,97.715 37.954,98.077 C37.732,98.438 37.621,98.895 37.621,99.447 L37.621,99.559 Z" id="Shape" fill="#2A3052" fill-rule="nonzero"></path>
            <path d="M28.328,10.892 L25.105,10.892 L25.105,20.128 L23.325,20.128 L23.325,10.892 L20.103,10.892 L20.103,9.463 L28.328,9.463 L28.328,10.892 Z M31.389,20.128 L29.609,20.128 L29.609,12.203 L31.389,12.203 L31.389,20.128 Z M31.389,10.262 L29.609,10.262 L29.609,8.702 L31.389,8.702 L31.389,10.262 Z M36.656,18.86 C37.09,18.86 37.456,18.732 37.754,18.476 C38.052,18.22 38.201,17.899 38.201,17.513 L39.812,17.513 L39.827,17.557 C39.851,18.299 39.55,18.939 38.922,19.476 C38.295,20.013 37.539,20.281 36.656,20.281 C35.489,20.281 34.594,19.905 33.971,19.153 C33.349,18.401 33.037,17.449 33.037,16.297 L33.037,16.041 C33.037,14.893 33.349,13.942 33.971,13.188 C34.594,12.433 35.489,12.056 36.656,12.056 C37.608,12.056 38.38,12.333 38.974,12.888 C39.567,13.442 39.854,14.146 39.834,15.001 L39.82,15.045 L38.2,15.045 C38.2,14.61 38.058,14.241 37.772,13.939 C37.487,13.636 37.115,13.484 36.656,13.484 C35.986,13.484 35.513,13.727 35.235,14.214 C34.956,14.699 34.817,15.308 34.817,16.041 L34.817,16.297 C34.817,17.044 34.957,17.658 35.235,18.139 C35.513,18.62 35.987,18.86 36.655,18.86 L36.656,18.86 Z M43.833,16.663 L43.035,16.663 L43.035,20.128 L41.262,20.128 L41.262,8.702 L43.035,8.702 L43.035,15.235 L43.775,15.235 L45.775,12.203 L47.869,12.203 L45.254,15.806 L48.257,20.128 L46.192,20.128 L43.833,16.663 Z M53.069,20.128 L53.069,9.463 L56.614,9.463 C57.796,9.463 58.719,9.706 59.383,10.193 C60.047,10.678 60.379,11.404 60.379,12.371 C60.379,12.855 60.239,13.287 59.961,13.668 C59.683,14.048 59.297,14.332 58.804,14.518 C59.439,14.658 59.927,14.964 60.269,15.433 C60.611,15.901 60.782,16.446 60.782,17.066 C60.782,18.067 60.454,18.828 59.8,19.348 C59.146,19.868 58.242,20.128 57.09,20.128 L53.07,20.128 L53.069,20.128 Z M54.849,15.278 L54.849,18.707 L57.09,18.707 C57.705,18.707 58.179,18.567 58.511,18.286 C58.843,18.005 59.009,17.598 59.009,17.066 C59.009,16.5 58.869,16.06 58.592,15.748 C58.313,15.435 57.879,15.278 57.288,15.278 L54.848,15.278 L54.849,15.278 Z M54.849,13.953 L56.812,13.953 C57.364,13.953 57.799,13.823 58.119,13.561 C58.439,13.301 58.599,12.931 58.599,12.451 C58.599,11.924 58.43,11.533 58.094,11.276 C57.757,11.02 57.264,10.892 56.614,10.892 L54.849,10.892 L54.849,13.953 Z M67.219,20.128 C67.1576686,19.9351892 67.1052794,19.7396473 67.062,19.542 C67.021,19.352 66.992,19.161 66.978,18.97 C66.7279346,19.3469901 66.3994578,19.6655751 66.015,19.904 C65.6150392,20.1560261 65.1507053,20.2869564 64.678,20.281 C63.853,20.281 63.219,20.069 62.778,19.644 C62.335,19.219 62.115,18.636 62.115,17.894 C62.115,17.127 62.417,16.53 63.023,16.103 C63.628,15.676 64.48,15.462 65.579,15.462 L66.963,15.462 L66.963,14.766 C66.963,14.351 66.841,14.026 66.597,13.792 C66.353,13.558 66.004,13.441 65.55,13.441 C65.144,13.441 64.822,13.538 64.583,13.734 C64.3504977,13.9142471 64.2169889,14.1938738 64.223,14.488 L62.51,14.488 L62.503,14.444 C62.469,13.819 62.748,13.264 63.341,12.781 C63.935,12.298 64.707,12.056 65.659,12.056 C66.582,12.056 67.327,12.291 67.893,12.759 C68.46,13.229 68.743,13.902 68.743,14.781 L68.743,18.304 C68.743,18.631 68.765,18.944 68.809,19.245 C68.853,19.545 68.924,19.839 69.021,20.128 L67.22,20.128 L67.219,20.128 Z M65.037,18.853 C65.487,18.853 65.89,18.741 66.249,18.516 C66.608,18.292 66.846,18.036 66.963,17.747 L66.963,16.575 L65.55,16.575 C65.032,16.575 64.627,16.703 64.334,16.96 C64.041,17.216 63.894,17.518 63.894,17.864 C63.894,18.167 63.994,18.408 64.191,18.586 C64.389,18.764 64.671,18.853 65.037,18.853 Z M75.064,17.974 C75.064,17.701 74.947,17.474 74.712,17.294 C74.478,17.112 74.041,16.954 73.402,16.817 C72.454,16.617 71.737,16.332 71.252,15.964 C70.766,15.595 70.522,15.094 70.522,14.459 C70.522,13.795 70.803,13.229 71.365,12.759 C71.927,12.291 72.666,12.056 73.585,12.056 C74.551,12.056 75.319,12.294 75.888,12.77 C76.457,13.246 76.728,13.836 76.704,14.54 L76.69,14.583 L74.983,14.583 C74.983,14.256 74.859,13.975 74.61,13.741 C74.36,13.506 74.019,13.389 73.584,13.389 C73.154,13.389 72.827,13.486 72.603,13.679 C72.3886758,13.8504649 72.2645363,14.1105315 72.266,14.385 C72.266,14.664 72.372,14.885 72.584,15.048 C72.797,15.212 73.228,15.358 73.877,15.484 C74.873,15.689 75.612,15.978 76.093,16.352 C76.573,16.725 76.814,17.234 76.814,17.879 C76.814,18.592 76.52,19.171 75.932,19.615 C75.343,20.059 74.568,20.281 73.606,20.281 C72.576,20.281 71.763,20.018 71.167,19.491 C70.572,18.963 70.288,18.358 70.317,17.674 L70.332,17.63 L71.988,17.63 C72.008,18.089 72.173,18.423 72.486,18.633 C72.798,18.843 73.179,18.948 73.628,18.948 C74.088,18.948 74.441,18.86 74.69,18.685 C74.9288323,18.5287274 75.070204,18.260348 75.064,17.975 L75.064,17.974 Z M82.864,17.974 C82.864,17.701 82.747,17.474 82.512,17.294 C82.278,17.112 81.842,16.954 81.202,16.817 C80.254,16.617 79.538,16.332 79.052,15.964 C78.566,15.595 78.323,15.094 78.323,14.459 C78.323,13.795 78.603,13.229 79.165,12.759 C79.727,12.291 80.467,12.056 81.385,12.056 C82.351,12.056 83.119,12.294 83.688,12.77 C84.257,13.246 84.529,13.836 84.505,14.54 L84.49,14.583 L82.783,14.583 C82.783,14.256 82.659,13.975 82.41,13.741 C82.16,13.506 81.82,13.389 81.385,13.389 C80.955,13.389 80.628,13.486 80.403,13.679 C80.1886758,13.8504649 80.0645363,14.1105315 80.066,14.385 C80.066,14.664 80.172,14.885 80.385,15.048 C80.597,15.212 81.028,15.358 81.678,15.484 C82.674,15.689 83.412,15.978 83.893,16.352 C84.374,16.725 84.615,17.234 84.615,17.879 C84.615,18.592 84.32,19.171 83.732,19.615 C83.144,20.059 82.368,20.281 81.407,20.281 C80.377,20.281 79.563,20.018 78.967,19.491 C78.372,18.963 78.089,18.358 78.117,17.674 L78.133,17.63 L79.788,17.63 C79.808,18.089 79.973,18.423 80.286,18.633 C80.598,18.843 80.979,18.948 81.428,18.948 C81.888,18.948 82.241,18.86 82.49,18.685 C82.7288323,18.5287274 82.870204,18.260348 82.864,17.975 L82.864,17.974 Z M85.882,16.092 C85.882,14.915 86.204,13.948 86.848,13.192 C87.503,12.435 88.388,12.056 89.508,12.056 C90.645,12.056 91.536,12.435 92.18,13.192 C92.83,13.943 93.155,14.91 93.155,16.092 L93.155,16.246 C93.155,17.437 92.83,18.409 92.18,19.161 C91.536,19.908 90.65,20.281 89.522,20.281 C88.389,20.281 87.498,19.905 86.848,19.153 C86.204,18.401 85.882,17.433 85.882,16.246 L85.882,16.092 Z M87.662,16.246 C87.662,17.017 87.812,17.647 88.115,18.136 C88.413,18.619 88.882,18.86 89.522,18.86 C90.142,18.86 90.606,18.619 90.913,18.135 C91.226,17.647 91.383,17.017 91.383,16.245 L91.383,16.092 C91.383,15.335 91.226,14.712 90.913,14.224 C90.606,13.731 90.137,13.484 89.507,13.484 C88.887,13.484 88.423,13.731 88.115,14.224 C87.813,14.717 87.661,15.34 87.661,16.092 L87.661,16.246 L87.662,16.246 Z" id="Shape" fill="#000000" fill-rule="nonzero"></path>
        </g>
    </g>
</svg>