<svg width="299" height="197" xmlns="http://www.w3.org/2000/svg" xmlns:xlink="http://www.w3.org/1999/xlink"><defs><path d="M117.78 18.382V22h-1.22v-9.242h3.41c1.01 0 1.803.258 2.377.774.573.517.86 1.2.86 2.05 0 .898-.28 1.588-.841 2.073-.561.485-1.364.727-2.41.727h-2.176zm0-.997h2.19c.651 0 1.15-.153 1.497-.46.347-.307.521-.75.521-1.33 0-.55-.174-.99-.52-1.32-.348-.33-.824-.502-1.429-.514h-2.26v3.624zm10.118-1.2a3.519 3.519 0 0 0-.578-.044c-.77 0-1.293.328-1.568.984V22h-1.174v-6.868h1.142l.02.793c.385-.613.93-.92 1.637-.92.229 0 .402.03.52.089v1.092zm3.808 5.942c-.93 0-1.688-.306-2.272-.917-.584-.612-.876-1.43-.876-2.454v-.215c0-.682.13-1.29.39-1.825.26-.536.624-.955 1.092-1.257a2.745 2.745 0 0 1 1.52-.454c.893 0 1.587.294 2.082.882.495.588.743 1.43.743 2.527v.488h-4.653c.017.677.215 1.224.594 1.641.378.417.86.625 1.444.625.414 0 .766-.084 1.053-.253.288-.17.54-.394.756-.673l.717.558c-.575.885-1.439 1.327-2.59 1.327zm-.146-6.157c-.474 0-.871.172-1.193.517-.322.345-.52.828-.597 1.45h3.44v-.088c-.033-.597-.194-1.06-.482-1.387-.288-.328-.677-.492-1.168-.492zm6.367 4.437l1.701-5.275h1.2L138.365 22h-.895l-2.488-6.868h1.2l1.745 5.275zM143.234 22h-1.175v-6.868h1.175V22zm-1.27-8.69c0-.19.058-.351.175-.482.116-.132.288-.197.517-.197.228 0 .402.065.52.197a.694.694 0 0 1 .178.482c0 .19-.059.35-.178.476-.118.127-.292.19-.52.19-.229 0-.401-.063-.517-.19a.678.678 0 0 1-.175-.476zm7.148 6.868c0-.317-.12-.564-.36-.74-.238-.175-.655-.326-1.25-.453-.594-.127-1.066-.28-1.415-.457-.35-.178-.607-.39-.775-.635a1.518 1.518 0 0 1-.25-.876c0-.563.238-1.039.714-1.428.476-.39 1.084-.584 1.825-.584.778 0 1.41.2 1.895.603.484.402.726.916.726 1.542h-1.18c0-.321-.137-.598-.41-.831-.273-.233-.616-.35-1.031-.35-.428 0-.762.094-1.003.28a.88.88 0 0 0-.362.73c0 .284.112.497.336.641.225.144.63.282 1.216.413.586.13 1.061.287 1.425.47.364.181.634.4.81.656.175.256.263.569.263.937 0 .613-.246 1.105-.736 1.476-.491.37-1.128.555-1.911.555-.55 0-1.037-.097-1.46-.292a2.374 2.374 0 0 1-.993-.816 1.966 1.966 0 0 1-.36-1.133h1.175c.021.394.179.706.473.937.294.23.682.345 1.165.345.444 0 .8-.09 1.07-.27.268-.18.403-.42.403-.72zm3.98 1.822h-1.175v-6.868h1.175V22zm-1.27-8.69c0-.19.058-.351.175-.482.116-.132.288-.197.517-.197.228 0 .402.065.52.197a.694.694 0 0 1 .178.482c0 .19-.06.35-.178.476-.118.127-.292.19-.52.19-.229 0-.401-.063-.517-.19a.678.678 0 0 1-.175-.476zm2.837 5.192c0-.672.133-1.278.397-1.815a2.96 2.96 0 0 1 1.105-1.244 3.007 3.007 0 0 1 1.615-.438c.935 0 1.692.324 2.27.971.577.648.866 1.509.866 2.584v.082c0 .669-.128 1.269-.384 1.8a2.916 2.916 0 0 1-1.098 1.24c-.476.297-1.023.445-1.641.445-.931 0-1.686-.324-2.263-.971-.578-.648-.867-1.505-.867-2.571v-.083zm1.181.14c0 .762.177 1.373.53 1.835.353.46.826.691 1.419.691.596 0 1.07-.233 1.422-.701.35-.468.527-1.122.527-1.965 0-.753-.18-1.363-.537-1.83a1.705 1.705 0 0 0-1.425-.702c-.58 0-1.047.23-1.403.692-.355.46-.533 1.121-.533 1.98zm7.655-3.51l.038.863c.525-.66 1.21-.99 2.057-.99 1.452 0 2.184.819 2.196 2.456V22h-1.174v-4.545c-.004-.495-.117-.861-.34-1.098-.222-.237-.568-.356-1.037-.356-.381 0-.716.102-1.003.305-.288.203-.512.47-.673.8V22h-1.175v-6.868h1.111zm8.912 6.995c-.93 0-1.688-.306-2.272-.917-.584-.612-.876-1.43-.876-2.454v-.215c0-.682.13-1.29.39-1.825.26-.536.625-.955 1.092-1.257a2.745 2.745 0 0 1 1.52-.454c.893 0 1.587.294 2.082.882.496.588.743 1.43.743 2.527v.488h-4.653c.017.677.215 1.224.594 1.641.379.417.86.625 1.444.625.415 0 .766-.084 1.054-.253.287-.17.54-.394.755-.673l.717.558c-.575.885-1.439 1.327-2.59 1.327zm-.146-6.157c-.474 0-.871.172-1.193.517-.322.345-.52.828-.597 1.45h3.44v-.088c-.033-.597-.194-1.06-.482-1.387-.287-.328-.677-.492-1.168-.492zm7.116 2.539c0-1.054.25-1.901.75-2.542.499-.642 1.152-.962 1.96-.962.805 0 1.442.275 1.911.825v-3.58h1.175V22h-1.08l-.057-.736c-.47.575-1.123.863-1.961.863-.796 0-1.444-.326-1.946-.978-.501-.651-.752-1.502-.752-2.551v-.09zm1.174.133c0 .779.161 1.388.483 1.828.322.44.766.66 1.333.66.745 0 1.288-.334 1.631-1.003v-3.154c-.351-.648-.89-.972-1.618-.972-.576 0-1.024.223-1.346.667-.322.444-.483 1.102-.483 1.974zm9.293 3.485c-.93 0-1.688-.306-2.272-.917-.584-.612-.876-1.43-.876-2.454v-.215c0-.682.13-1.29.39-1.825.26-.536.625-.955 1.092-1.257a2.745 2.745 0 0 1 1.52-.454c.893 0 1.587.294 2.082.882.496.588.743 1.43.743 2.527v.488h-4.653c.017.677.215 1.224.594 1.641.379.417.86.625 1.444.625.415 0 .766-.084 1.054-.253.287-.17.54-.394.755-.673l.717.558c-.575.885-1.439 1.327-2.59 1.327zm-.146-6.157c-.474 0-.871.172-1.193.517-.322.345-.52.828-.597 1.45h3.44v-.088c-.033-.597-.194-1.06-.482-1.387-.287-.328-.677-.492-1.168-.492zm5.46 6.03h-1.175v-9.75h1.174V22zm3.154 0h-1.174v-9.75h1.174V22zm2.596-9.045l-.133 2.336h-.819l.007-3.041h.945v.705zm5.79 8.366c-.458.537-1.128.806-2.013.806-.732 0-1.29-.213-1.672-.638-.383-.425-.577-1.055-.581-1.888v-4.47h1.174v4.438c0 1.04.423 1.561 1.27 1.561.897 0 1.494-.334 1.79-1.003v-4.995h1.174V22h-1.117l-.026-.68zM210.9 22h-1.175v-9.75h1.175V22zm3.472-8.531v1.663h1.282v.908h-1.282v4.259c0 .275.057.481.171.619.114.137.31.206.584.206.136 0 .322-.025.559-.076V22c-.31.085-.61.127-.902.127-.524 0-.92-.159-1.187-.476-.266-.318-.4-.768-.4-1.352v-4.26h-1.25v-.907h1.25v-1.663h1.175zM218.3 22h-1.174v-6.868h1.174V22zm-1.27-8.69c0-.19.059-.351.175-.482.116-.132.289-.197.517-.197.229 0 .402.065.52.197a.694.694 0 0 1 .179.482c0 .19-.06.35-.178.476-.119.127-.292.19-.52.19-.23 0-.402-.063-.518-.19a.678.678 0 0 1-.175-.476zm4.253 1.822l.032.762c.504-.593 1.183-.89 2.038-.89.96 0 1.614.369 1.961 1.105.229-.33.526-.596.892-.8.366-.203.799-.304 1.298-.304 1.507 0 2.273.798 2.298 2.393V22h-1.174v-4.532c0-.491-.113-.858-.337-1.102-.224-.243-.6-.365-1.13-.365-.436 0-.797.13-1.085.39-.288.261-.455.611-.502 1.051V22h-1.18v-4.5c0-1-.489-1.499-1.467-1.499-.77 0-1.297.328-1.58.984V22h-1.174v-6.868h1.11zM235.814 22c-.068-.135-.123-.377-.165-.724-.546.567-1.197.851-1.955.851-.677 0-1.232-.192-1.666-.575a1.859 1.859 0 0 1-.65-1.456c0-.715.271-1.27.815-1.667.544-.395 1.309-.593 2.295-.593h1.142v-.54c0-.41-.123-.737-.368-.98-.246-.244-.607-.365-1.086-.365-.418 0-.77.105-1.053.317-.284.212-.426.468-.426.768h-1.18c0-.343.121-.674.365-.993.243-.32.573-.573.99-.759.417-.186.875-.28 1.374-.28.792 0 1.412.199 1.86.594.449.396.681.94.698 1.635v3.161c0 .63.08 1.132.242 1.504V22h-1.232zm-1.949-.895c.369 0 .718-.095 1.048-.286.33-.19.569-.438.717-.742v-1.41h-.92c-1.44 0-2.159.422-2.159 1.264 0 .368.123.656.369.863.245.207.56.311.945.311zm10.753.063c.42 0 .785-.126 1.099-.38a1.34 1.34 0 0 0 .52-.953h1.11a2.13 2.13 0 0 1-.405 1.124c-.25.355-.583.639-1 .85a2.885 2.885 0 0 1-1.324.318c-.935 0-1.679-.312-2.23-.936-.553-.625-.83-1.478-.83-2.562v-.196c0-.669.124-1.264.369-1.784s.598-.925 1.057-1.212c.459-.288 1.002-.432 1.628-.432.77 0 1.41.23 1.92.692.51.461.782 1.06.816 1.796h-1.111a1.618 1.618 0 0 0-.505-1.095 1.57 1.57 0 0 0-1.12-.428c-.597 0-1.059.214-1.387.644-.328.43-.492 1.05-.492 1.863v.222c0 .792.163 1.4.489 1.828.326.428.791.641 1.396.641zm5.326.832h-1.174v-6.868h1.174V22zm-1.27-8.69c0-.19.059-.351.175-.482.116-.132.289-.197.517-.197.229 0 .402.065.52.197a.694.694 0 0 1 .179.482c0 .19-.06.35-.178.476-.119.127-.292.19-.52.19-.23 0-.402-.063-.518-.19a.678.678 0 0 1-.174-.476zm3.727 8.69v-5.96h-1.086v-.908h1.086v-.705c0-.736.196-1.305.59-1.707.393-.402.95-.603 1.67-.603.27 0 .539.036.806.108l-.064.952a3.373 3.373 0 0 0-.635-.057c-.38 0-.675.11-.882.333-.207.222-.311.54-.311.955v.724h1.466v.908h-1.466V22H252.4zm7.255-5.814a3.519 3.519 0 0 0-.578-.045c-.77 0-1.292.328-1.568.984V22h-1.174v-6.868h1.143l.019.793c.385-.613.93-.92 1.637-.92.229 0 .402.03.521.089v1.092zM264.721 22c-.067-.135-.122-.377-.165-.724-.546.567-1.197.851-1.955.851-.677 0-1.232-.192-1.666-.575a1.859 1.859 0 0 1-.65-1.456c0-.715.271-1.27.815-1.667.544-.395 1.309-.593 2.295-.593h1.142v-.54c0-.41-.122-.737-.368-.98-.245-.244-.607-.365-1.085-.365-.42 0-.77.105-1.054.317-.284.212-.425.468-.425.768h-1.181c0-.343.122-.674.365-.993.243-.32.573-.573.99-.759.417-.186.875-.28 1.375-.28.79 0 1.41.199 1.86.594.448.396.68.94.698 1.635v3.161c0 .63.08 1.132.24 1.504V22h-1.23zm-1.948-.895c.368 0 .717-.095 1.047-.286.33-.19.57-.438.717-.742v-1.41h-.92c-1.439 0-2.158.422-2.158 1.264 0 .368.122.656.368.863.245.207.56.311.946.311zm9.585-4.297h.882c.554-.009.99-.155 1.308-.438.317-.284.476-.667.476-1.15 0-1.083-.54-1.624-1.619-1.624-.508 0-.913.145-1.216.435-.302.29-.453.673-.453 1.152h-1.175c0-.732.268-1.34.803-1.825.536-.485 1.216-.727 2.041-.727.872 0 1.555.23 2.05.692.495.461.743 1.102.743 1.923 0 .402-.13.791-.39 1.168-.26.377-.615.658-1.064.844.508.161.9.428 1.178.8.277.373.416.827.416 1.365 0 .83-.271 1.487-.813 1.974-.542.487-1.246.73-2.114.73-.867 0-1.573-.235-2.117-.705-.543-.47-.815-1.09-.815-1.86h1.18c0 .487.16.876.476 1.168.318.292.743.438 1.276.438.567 0 1.001-.148 1.302-.444.3-.296.45-.721.45-1.276 0-.537-.165-.95-.495-1.238-.33-.287-.806-.435-1.428-.444h-.882v-.958z" id="a"/><path d="M119.59 166.383c-.474.568-1.145 1.01-2.012 1.323-.867.313-1.828.47-2.883.47-1.107 0-2.079-.242-2.914-.725-.834-.484-1.479-1.185-1.933-2.105-.454-.92-.687-2.001-.699-3.243v-.87c0-1.278.216-2.384.646-3.318.43-.935 1.052-1.65 1.863-2.145.812-.495 1.763-.743 2.852-.743 1.518 0 2.705.362 3.56 1.086.856.723 1.362 1.777 1.52 3.16h-2.566c-.117-.733-.376-1.27-.778-1.609-.401-.34-.953-.51-1.656-.51-.897 0-1.58.337-2.048 1.011-.469.674-.706 1.676-.712 3.006v.817c0 1.342.255 2.356.764 3.041.51.686 1.257 1.029 2.242 1.029.99 0 1.696-.211 2.118-.633v-2.206h-2.4v-1.943h5.037v5.107zm7.665.65c-.627.762-1.494 1.143-2.602 1.143-1.02 0-1.797-.293-2.333-.88-.537-.585-.81-1.443-.822-2.574v-6.232h2.54v6.144c0 .99.451 1.485 1.353 1.485.862 0 1.453-.299 1.776-.896v-6.733h2.549V168h-2.391l-.07-.967zm9.887.967a2.82 2.82 0 0 1-.255-.853c-.615.686-1.415 1.029-2.399 1.029-.932 0-1.704-.27-2.316-.809-.612-.539-.918-1.219-.918-2.039 0-1.008.373-1.781 1.12-2.32.747-.54 1.827-.812 3.239-.818h1.169v-.544c0-.44-.113-.792-.338-1.055-.226-.264-.582-.396-1.068-.396-.428 0-.763.103-1.007.308-.243.205-.364.486-.364.844h-2.54c0-.551.17-1.06.51-1.53.34-.468.82-.836 1.44-1.103.622-.266 1.32-.4 2.093-.4 1.171 0 2.102.295 2.79.884.689.589 1.033 1.416 1.033 2.483v4.122c.006.902.132 1.585.378 2.048V168h-2.567zm-2.1-1.767c.375 0 .72-.083 1.037-.25.316-.167.55-.391.703-.672v-1.635h-.95c-1.27 0-1.947.44-2.03 1.318l-.008.15c0 .316.111.577.334.782.222.205.527.307.914.307zm5.844-3.058c0-1.483.333-2.663.998-3.542.665-.88 1.575-1.319 2.729-1.319.926 0 1.69.346 2.294 1.038V154.5h2.549V168h-2.294l-.123-1.01c-.633.79-1.447 1.186-2.444 1.186-1.119 0-2.017-.441-2.693-1.323-.677-.882-1.016-2.108-1.016-3.678zm2.54.184c0 .891.156 1.574.466 2.048.31.475.762.712 1.354.712.785 0 1.339-.33 1.661-.993v-3.753c-.316-.662-.864-.993-1.644-.993-1.224 0-1.836.993-1.836 2.98zm13.51 4.641a2.82 2.82 0 0 1-.256-.853c-.615.686-1.415 1.029-2.399 1.029-.932 0-1.704-.27-2.316-.809-.612-.539-.918-1.219-.918-2.039 0-1.008.373-1.781 1.12-2.32.747-.54 1.827-.812 3.239-.818h1.169v-.544c0-.44-.113-.792-.338-1.055-.226-.264-.582-.396-1.068-.396-.428 0-.763.103-1.007.308-.243.205-.364.486-.364.844h-2.54c0-.551.17-1.06.51-1.53.34-.468.82-.836 1.44-1.103.622-.266 1.32-.4 2.093-.4 1.171 0 2.102.295 2.79.884.689.589 1.033 1.416 1.033 2.483v4.122c.006.902.132 1.585.378 2.048V168h-2.567zm-2.101-1.767c.375 0 .72-.083 1.037-.25.316-.167.55-.391.703-.672v-1.635h-.95c-1.27 0-1.948.44-2.03 1.318l-.008.15c0 .316.111.577.334.782.222.205.527.307.914.307zm5.87-3.058c0-1.46.348-2.634 1.042-3.525.695-.89 1.63-1.336 2.808-1.336 1.043 0 1.855.358 2.435 1.073l.105-.897h2.303v9.194c0 .832-.189 1.555-.567 2.17a3.64 3.64 0 0 1-1.595 1.407c-.685.322-1.488.483-2.408.483-.697 0-1.377-.139-2.04-.417-.661-.279-1.162-.638-1.502-1.077l1.125-1.547c.633.71 1.4 1.064 2.303 1.064.673 0 1.198-.18 1.573-.54.375-.361.562-.873.562-1.535v-.51c-.586.663-1.356.994-2.311.994-1.143 0-2.067-.447-2.773-1.34-.706-.894-1.06-2.08-1.06-3.556v-.105zm2.54.184c0 .862.174 1.537.52 2.026.345.49.82.734 1.423.734.774 0 1.327-.29 1.661-.87v-3.999c-.34-.58-.887-.87-1.643-.87-.61 0-1.089.249-1.437.747-.349.498-.523 1.242-.523 2.232zm10.442-4.869l.08 1.099c.68-.85 1.59-1.275 2.733-1.275 1.008 0 1.758.296 2.25.888.492.592.744 1.477.756 2.654V168h-2.54v-6.082c0-.54-.118-.93-.352-1.173-.234-.244-.624-.365-1.169-.365-.715 0-1.25.305-1.608.914V168h-2.54v-9.51h2.39zm13.254 9.51a2.82 2.82 0 0 1-.255-.853c-.615.686-1.415 1.029-2.4 1.029-.93 0-1.703-.27-2.315-.809-.612-.539-.919-1.219-.919-2.039 0-1.008.374-1.781 1.121-2.32.747-.54 1.827-.812 3.239-.818h1.169v-.544c0-.44-.113-.792-.339-1.055-.225-.264-.581-.396-1.067-.396-.428 0-.764.103-1.007.308-.243.205-.365.486-.365.844h-2.54c0-.551.17-1.06.51-1.53.34-.468.82-.836 1.442-1.103.62-.266 1.318-.4 2.091-.4 1.172 0 2.102.295 2.79.884.69.589 1.034 1.416 1.034 2.483v4.122c.006.902.131 1.585.378 2.048V168h-2.567zm-2.1-1.767c.375 0 .72-.083 1.037-.25.316-.167.55-.391.703-.672v-1.635h-.95c-1.27 0-1.948.44-2.03 1.318l-.008.15c0 .316.11.577.334.782.222.205.527.307.914.307z" id="b"/><path d="M30.702 18.685c-.077 1.07-.473 1.914-1.186 2.529s-1.653.923-2.82.923c-1.276 0-2.28-.43-3.01-1.289-.732-.859-1.098-2.038-1.098-3.537v-.609c0-.957.169-1.8.506-2.53.337-.728.819-1.288 1.446-1.677.626-.39 1.354-.585 2.184-.585 1.148 0 2.073.308 2.775.923s1.107 1.479 1.217 2.59h-2.051c-.05-.642-.229-1.108-.537-1.397-.307-.29-.775-.434-1.404-.434-.684 0-1.196.245-1.535.735-.34.49-.514 1.25-.523 2.28v.751c0 1.076.163 1.862.489 2.359.326.497.84.745 1.541.745.634 0 1.107-.145 1.419-.434.312-.29.49-.737.536-1.343h2.051zm.91-.452c0-.733.14-1.387.423-1.962a3.103 3.103 0 0 1 1.22-1.333c.531-.314 1.148-.471 1.85-.471.998 0 1.812.305 2.443.916.632.61.984 1.44 1.056 2.488l.014.506c0 1.135-.317 2.045-.95 2.73-.633.687-1.483 1.03-2.55 1.03-1.066 0-1.917-.342-2.553-1.026-.636-.683-.954-1.613-.954-2.789v-.089zm1.975.144c0 .702.132 1.238.396 1.61.265.371.643.557 1.135.557.479 0 .852-.183 1.121-.55.27-.367.404-.954.404-1.76 0-.689-.135-1.222-.404-1.6-.269-.378-.647-.568-1.135-.568-.483 0-.856.188-1.12.564-.265.376-.397.959-.397 1.747zm8.1-3.773l.062.827c.524-.643 1.233-.964 2.126-.964.952 0 1.606.376 1.962 1.128.52-.752 1.26-1.128 2.222-1.128.802 0 1.399.233 1.79.7.393.468.589 1.17.589 2.11V22h-1.983v-4.717c0-.42-.082-.726-.246-.92-.164-.193-.453-.29-.868-.29-.593 0-1.003.283-1.23.848L46.116 22h-1.975v-4.71c0-.428-.085-.738-.253-.93-.169-.191-.456-.287-.862-.287-.56 0-.966.233-1.216.698V22h-1.976v-7.396h1.852zM58.62 18.37c0 1.185-.253 2.109-.759 2.772-.506.663-1.212.995-2.119.995-.802 0-1.442-.308-1.92-.923l-.09.786h-1.777V11.5h1.976v3.767c.455-.534 1.055-.8 1.798-.8.902 0 1.61.331 2.122.994.513.664.77 1.597.77 2.8v.11zm-1.975-.143c0-.748-.119-1.294-.356-1.638-.237-.344-.59-.516-1.06-.516-.628 0-1.061.258-1.298.773v2.919c.241.52.679.779 1.312.779.638 0 1.057-.315 1.258-.943.096-.301.144-.76.144-1.374zM64.123 22a2.194 2.194 0 0 1-.198-.663c-.479.533-1.1.8-1.866.8-.725 0-1.325-.21-1.802-.63a2.023 2.023 0 0 1-.714-1.585c0-.784.29-1.386.872-1.805.58-.42 1.42-.631 2.519-.636h.909v-.423c0-.342-.088-.616-.263-.82-.176-.206-.453-.308-.831-.308-.333 0-.594.08-.783.239-.189.16-.283.378-.283.656h-1.976c0-.428.132-.825.397-1.19.264-.364.638-.65 1.12-.857a4.086 4.086 0 0 1 1.628-.311c.911 0 1.634.229 2.17.687.535.458.803 1.102.803 1.931v3.206c.005.702.103 1.233.294 1.593V22h-1.996zm-1.634-1.374c.292 0 .56-.065.807-.195a1.28 1.28 0 0 0 .547-.523v-1.271h-.739c-.988 0-1.515.342-1.579 1.025l-.006.116a.79.79 0 0 0 .26.609c.172.16.41.239.71.239zm7.93-.082c.365 0 .66-.1.889-.3.227-.201.346-.468.355-.8h1.853c-.005.5-.142.96-.41 1.377-.27.417-.637.74-1.105.97-.467.23-.983.346-1.548.346-1.057 0-1.891-.336-2.502-1.009-.61-.672-.916-1.6-.916-2.785v-.13c0-1.14.303-2.049.91-2.728.605-.679 1.437-1.018 2.494-1.018.926 0 1.667.263 2.226.79.558.526.842 1.226.85 2.101h-1.852c-.009-.382-.128-.693-.355-.933-.228-.239-.529-.359-.903-.359-.46 0-.808.168-1.042.503-.235.335-.352.878-.352 1.63v.205c0 .761.116 1.308.348 1.64.233.334.586.5 1.06.5zM76.729 22h-1.983v-7.396h1.983V22zm-2.1-9.31c0-.297.1-.54.298-.732.198-.191.469-.287.81-.287.338 0 .606.096.807.287.2.191.3.435.3.731a.97.97 0 0 1-.303.739c-.203.191-.471.287-.804.287-.332 0-.6-.096-.803-.287a.97.97 0 0 1-.304-.739zM82.643 22a2.194 2.194 0 0 1-.199-.663c-.478.533-1.1.8-1.866.8-.724 0-1.325-.21-1.801-.63a2.023 2.023 0 0 1-.714-1.585c0-.784.29-1.386.871-1.805.581-.42 1.42-.631 2.52-.636h.908v-.423c0-.342-.087-.616-.263-.82-.175-.206-.452-.308-.83-.308-.333 0-.594.08-.783.239-.19.16-.284.378-.284.656h-1.975c0-.428.132-.825.396-1.19.264-.364.638-.65 1.121-.857a4.086 4.086 0 0 1 1.627-.311c.912 0 1.635.229 2.17.687.536.458.804 1.102.804 1.931v3.206c.004.702.102 1.233.294 1.593V22h-1.996zm-1.634-1.374c.291 0 .56-.065.806-.195a1.28 1.28 0 0 0 .547-.523v-1.271h-.738c-.989 0-1.515.342-1.58 1.025l-.006.116a.79.79 0 0 0 .26.609c.173.16.41.239.71.239z" id="c"/></defs><g fill="none" fill-rule="evenodd"><path fill="#F1F1F2" d="M0 0h299v197H0z"/><path d="M2.438 2.454v192.092h294.124V2.454H2.438zM299 0v197H0V0h299z" fill="#C2C2C2" fill-rule="nonzero"/><path d="M4.595 54.995V53.78h291.38v1.215H4.595zm0 20.08v-1.216h291.38v1.216H4.595zm0 60.272v-1.215h291.38v1.215H4.595z" fill="#DEDEDD" fill-rule="nonzero"/><path d="M4.595 155.428v-1.215h3.608v1.215H4.595zm7.216 0v-1.215h3.608v1.215h-3.608zm7.216 0v-1.215h3.608v1.215h-3.608zm7.216 0v-1.215h3.608v1.215h-3.608zm7.216 0v-1.215h3.608v1.215h-3.608zm7.216 0v-1.215h3.608v1.215h-3.608zm7.216 0v-1.215h3.608v1.215h-3.608zm7.216 0v-1.215h3.608v1.215h-3.608zm7.216 0v-1.215h3.608v1.215h-3.608zm7.216 0v-1.215h3.608v1.215h-3.608zm7.216 0v-1.215h3.608v1.215h-3.608zm7.216 0v-1.215h3.608v1.215h-3.608zm7.216 0v-1.215h3.608v1.215h-3.608zm7.216 0v-1.215h3.608v1.215h-3.608zm7.216 0v-1.215h3.608v1.215h-3.608zm7.216 0v-1.215h3.608v1.215h-3.608zm7.216 0v-1.215h3.608v1.215h-3.608zm7.216 0v-1.215h3.608v1.215h-3.608zm7.216 0v-1.215h3.608v1.215h-3.608zm7.216 0v-1.215h3.608v1.215h-3.608zm7.216 0v-1.215h3.608v1.215h-3.608zm7.216 0v-1.215h3.608v1.215h-3.608zm7.216 0v-1.215h3.608v1.215h-3.608zm7.216 0v-1.215h3.608v1.215h-3.608zm7.216 0v-1.215h3.608v1.215h-3.608zm7.216 0v-1.215h3.608v1.215h-3.608zm7.216 0v-1.215h3.608v1.215h-3.608zm7.216 0v-1.215h3.608v1.215h-3.608zm7.216 0v-1.215h3.608v1.215h-3.608zm7.216 0v-1.215h3.608v1.215h-3.608zm7.216 0v-1.215h3.608v1.215h-3.608zm7.216 0v-1.215h3.608v1.215h-3.608zm7.216 0v-1.215h3.608v1.215h-3.608zm7.216 0v-1.215h3.608v1.215h-3.608zm7.216 0v-1.215h3.608v1.215h-3.608zm7.216 0v-1.215h3.608v1.215h-3.608zm7.216 0v-1.215h3.608v1.215h-3.608zm7.216 0v-1.215h3.608v1.215h-3.608zm7.216 0v-1.215h3.608v1.215h-3.608zm7.216 0v-1.215h3.608v1.215h-3.608zm7.216 0v-1.215h2.74v1.215h-2.74z" fill="#293052" fill-rule="nonzero"/><path d="M4.595 175.506v-1.215h291.38v1.215H4.595zM39.19 34.308h1.215V192.59H39.19V34.308zm36.874 0h1.215V192.59h-1.215V34.308zm36.873 0h1.215V192.59h-1.216V34.308zm36.836 0h1.215V192.59h-1.215V34.308zm36.873 0h1.215V192.59h-1.215V34.308zm36.874 0h1.214V192.59h-1.215V34.308zm36.872 0h1.216V192.59h-1.216V34.308zM4.595 115.27v-1.215h291.38v1.214H4.595zm0-20.08v-1.215h291.38v1.215H4.595z" fill="#DEDEDD" fill-rule="nonzero"/><path fill="#C2C2C2" fill-rule="nonzero" d="M2.506 34.311v-2.43h295.595v2.43z"/><path d="M149.663 115.363l41.533-30.605a1.804 1.804 0 0 1 2.703.686l32.164 68.61a1.804 1.804 0 1 1-3.266 1.532l-31.231-66.62-40.8 30.065c-.62.457-1.462.47-2.096.032L106.63 89.985 77.881 116a1.804 1.804 0 0 1-2.364.049L38.643 85.362a1.804 1.804 0 1 1 2.308-2.774l35.67 29.686 28.65-25.924a1.804 1.804 0 0 1 2.236-.146l42.156 29.159z" fill="#293052" fill-rule="nonzero"/><path d="M188.937 145.07h-35.165l-5.544-8.07-5.317 8.07h-35.164a4.741 4.741 0 0 0-4.747 4.735v24.511a4.741 4.741 0 0 0 4.747 4.736h81.19a4.753 4.753 0 0 0 3.43-1.346 4.73 4.73 0 0 0 1.43-3.39v-24.473a4.73 4.73 0 0 0-1.416-3.414 4.753 4.753 0 0 0-3.444-1.36v.001z" fill="#E88024"/><ellipse fill="#FFF" opacity=".6" cx="224.126" cy="154.82" rx="8.165" ry="8.373"/><path d="M224.127 164.407c-5.187 0-9.38-4.3-9.38-9.588 0-5.289 4.193-9.588 9.38-9.588 5.187 0 9.38 4.3 9.38 9.588 0 5.289-4.193 9.588-9.38 9.588zm0-2.43c3.831 0 6.95-3.198 6.95-7.158 0-3.96-3.119-7.158-6.95-7.158s-6.95 3.198-6.95 7.158c0 3.96 3.119 7.158 6.95 7.158z" fill="#E88024" fill-rule="nonzero"/><path fill="#E88024" d="M247.101 145.424h28.671v18.79h-28.67z"/><path fill="#E88024" d="M250.595 154.82l-3.342 3.333-5.202-3.334 5.202-3.333z"/><path d="M258.456 153.683h1.367c.463.033.92-.132 1.253-.455a1.78 1.78 0 0 0 .418-1.25 1.627 1.627 0 0 0-.418-1.174 1.598 1.598 0 0 0-1.215-.266 1.673 1.673 0 0 0-1.14.38c-.3.253-.467.63-.455 1.022h-2.355a2.725 2.725 0 0 1 1.064-2.31 4.298 4.298 0 0 1 2.81-.91 4.64 4.64 0 0 1 2.962.871 3.065 3.065 0 0 1 1.101 2.539 2.534 2.534 0 0 1-.494 1.477 3.34 3.34 0 0 1-1.367 1.099 3.04 3.04 0 0 1 1.52 1.098c.353.498.54 1.095.531 1.705a3.104 3.104 0 0 1-1.215 2.576 4.83 4.83 0 0 1-3.076.947 4.717 4.717 0 0 1-2.886-.87 2.8 2.8 0 0 1-1.14-2.501h2.507c-.01.432.17.848.494 1.136.345.304.792.467 1.253.455.486.032.964-.132 1.329-.455.333-.329.512-.783.493-1.25a1.816 1.816 0 0 0-.455-1.402 1.978 1.978 0 0 0-1.405-.454h-1.481v-2.008z" fill="#FFF"/><use fill="#000" xlink:href="#a"/><use fill="#2A3052" xlink:href="#a"/><use fill="#000" xlink:href="#b"/><use fill="#FFF" xlink:href="#b"/><g fill="#000"><use xlink:href="#c"/><use xlink:href="#c"/></g></g></svg>