<svg width="300" height="199" viewBox="0 0 300 199" xmlns="http://www.w3.org/2000/svg"><title>italian no touch</title><g fill="none" fill-rule="evenodd"><path fill="#F1F2F2" d="M0 0h300v199H0z"/><path d="M39.125 55.375V74.75H75.25V55.375H39.125zm0-1H75.25V34h1v20.375h36.125V34h1v20.375H149.5V34h1v20.375h36.125V34h1v20.375h36.125V34h1v20.375h36.125V34h1v20.375H299.5v1h-37.625V74.75H299.5v1h-37.625v19.375H299.5v1h-37.625V115.5H299.5v1h-37.625v19.375H299.5v1h-37.625v19.375H299.5v1h-37.625v19.375H299.5v1h-37.625V199h-1v-21.375H224.75V199h-1v-21.375h-36.125V199h-1v-21.375H150.5V199h-1v-21.375h-36.125V199h-1v-21.375H76.25V199h-1v-21.375H39.125V199h-1v-21.375H1.5v-1h36.625V157.25H1.5v-1h36.625v-19.375H1.5v-1h36.625V116.5H1.5v-1h36.625V96.125H1.5v-1h36.625V75.75H1.5v-1h36.625V55.375H1.5v-1h36.625V34h1v20.375zm221.75 1H224.75V74.75h36.125V55.375zm-37.125 0h-36.125V74.75h36.125V55.375zm-37.125 0H150.5V74.75h36.125V55.375zm-37.125 0h-36.125V74.75H149.5V55.375zm-37.125 0H76.25V74.75h36.125V55.375zM39.125 75.75v19.375H75.25V75.75H39.125zm221.75 0H224.75v19.375h36.125V75.75zm-37.125 0h-36.125v19.375h36.125V75.75zm-37.125 0H150.5v19.375h36.125V75.75zm-37.125 0h-36.125v19.375H149.5V75.75zm-37.125 0H76.25v19.375h36.125V75.75zm-73.25 20.375V115.5H75.25V96.125H39.125zm221.75 0H224.75V115.5h36.125V96.125zm-37.125 0h-36.125V115.5h36.125V96.125zm-37.125 0H150.5V115.5h36.125V96.125zm-37.125 0h-36.125V115.5H149.5V96.125zm-37.125 0H76.25V115.5h36.125V96.125zM39.125 116.5v19.375H75.25V116.5H39.125zm221.75 0H224.75v19.375h36.125V116.5zm-37.125 0h-36.125v19.375h36.125V116.5zm-37.125 0H150.5v19.375h36.125V116.5zm-37.125 0h-36.125v19.375H149.5V116.5zm-37.125 0H76.25v19.375h36.125V116.5zm-73.25 20.375v19.375H75.25v-19.375H39.125zm221.75 0H224.75v19.375h36.125v-19.375zm-37.125 0h-36.125v19.375h36.125v-19.375zm-37.125 0H150.5v19.375h36.125v-19.375zm-37.125 0h-36.125v19.375H149.5v-19.375zm-37.125 0H76.25v19.375h36.125v-19.375zm-73.25 20.375v19.375H75.25V157.25H39.125zm221.75 0H224.75v19.375h36.125V157.25zm-37.125 0h-36.125v19.375h36.125V157.25zm-37.125 0H150.5v19.375h36.125V157.25zm-37.125 0h-36.125v19.375H149.5V157.25zm-37.125 0H76.25v19.375h36.125V157.25z" fill="#DFDEDE"/><path stroke="#C2C2C2" stroke-width="2" d="M1 1h298v197H1z"/><path fill="#C2C2C2" d="M0 33h300v2H0z"/><g transform="translate(2 33.7)"><path d="M.94 41.551h294.552M260.107.241V162.97" stroke="#293152" stroke-width="1.211" stroke-linejoin="round"/><path stroke="#293152" stroke-width="3.633" stroke-linecap="round" stroke-linejoin="round" d="M36.514 103.498l37.284-33.924 33.636 26.347 34.168-26.347 35.346 28.86 37.21-33.239 45.95 12.641"/><path d="M187.134 114.235h-35.536l-5.473-8.339-5.473 8.339h-35.536c-2.66 0-4.79 2.17-4.79 4.873v25.167c0 2.703 2.167 4.874 4.79 4.874h82.056c2.66 0 4.79-2.17 4.79-4.874v-25.167c0-2.703-2.167-4.873-4.828-4.873z" fill="#E88124" fill-rule="nonzero"/><ellipse cx="8.476" cy="10.052" rx="8.247" ry="8.605" opacity=".6" transform="translate(251.632 67.784)" fill="#FFF" fill-rule="nonzero"/><ellipse stroke="#E88124" stroke-width="2.422" cx="260.107" cy="77.836" rx="8.247" ry="8.605"/><ellipse cx="9.122" cy="9.062" rx="8.247" ry="8.605" opacity=".6" transform="translate(27.392 94.436)" fill="#FFF" fill-rule="nonzero"/><ellipse stroke="#E88124" stroke-width="2.422" cx="36.514" cy="103.498" rx="8.247" ry="8.605"/></g><path d="M29.32 61.722h-2.587l-1.521 7.887H24.07l1.56-7.849h-2.587l.19-.952h6.276l-.19.914zm2.472 7.887v-.495c0-.115.038-.267.038-.381-.266.305-.57.533-.913.724-.31.187-.664.292-1.027.304-.57 0-1.027-.19-1.293-.533s-.342-.838-.228-1.448c.114-.648.456-1.181.95-1.486.533-.343 1.18-.495 1.979-.495H32.4l.114-.648c.076-.419.038-.724-.114-.914-.152-.229-.457-.305-.837-.305-.342 0-.647.114-.913.305-.266.19-.418.419-.494.686h-1.065v-.039c.076-.495.38-.952.912-1.333.533-.381 1.141-.572 1.864-.572.647 0 1.141.19 1.522.572.38.38.494.914.342 1.6l-.609 3.163-.114.685a1.85 1.85 0 0 0 0 .648h-1.217v-.038zm-1.521-.876c.304 0 .646-.076.989-.267.342-.19.608-.42.76-.686l.229-1.22h-1.142c-.38 0-.76.115-1.065.382a1.52 1.52 0 0 0-.57.838c-.076.305-.038.534.076.686.152.19.38.267.723.267zm8.14-4.61l-.647-.039c-.259 0-.511.08-.723.229a1.896 1.896 0 0 0-.57.648l-.913 4.648h-1.141l1.293-6.553h1.027l-.076.876c.194-.297.454-.545.76-.724a1.516 1.516 0 0 1 1.18-.229c.076 0 .152.039.19.039l-.38 1.104zm.342 2.21c.228-1.106.57-1.982 1.065-2.553.494-.572 1.103-.839 1.864-.839.342 0 .684.077.95.229.267.152.495.38.685.686l.267-.8h.988l-1.255 6.439c-.19.914-.532 1.6-1.065 2.057-.532.457-1.255.686-2.092.686-.266 0-.57-.038-.913-.114a2.41 2.41 0 0 1-.836-.343l.456-.915c.152.115.38.229.647.305.266.076.532.115.798.115.495 0 .875-.153 1.18-.458.332-.347.557-.784.646-1.257l.076-.457a2.23 2.23 0 0 1-1.635.647c-.685 0-1.218-.304-1.56-.952a3.354 3.354 0 0 1-.266-2.324v-.153zm1.141.114c-.152.685-.114 1.257.076 1.676.19.42.57.648 1.103.648.266 0 .533-.076.76-.229.229-.152.457-.38.647-.686l.609-3.048a1.642 1.642 0 0 0-.494-.647c-.229-.191-.457-.23-.8-.23-.494 0-.874.23-1.178.649a4.958 4.958 0 0 0-.685 1.752l-.038.115zm7.57 3.276c-.8 0-1.408-.304-1.826-.914-.419-.61-.533-1.41-.38-2.362l.037-.267c.152-.953.533-1.753 1.141-2.362.609-.61 1.255-.915 1.94-.915.799 0 1.37.267 1.712.8.342.534.456 1.258.304 2.134l-.114.762h-3.88c-.076.648-.038 1.181.19 1.6.229.42.571.572 1.065.572a2.854 2.854 0 0 0 1.788-.648l.343.762a3.435 3.435 0 0 1-2.32.838zm.76-5.83c-.342 0-.647.153-.95.496a3.344 3.344 0 0 0-.686 1.257v.039h2.663l.038-.153c.076-.495.038-.876-.152-1.18-.152-.306-.457-.458-.913-.458zm5.858-2.4l-.305 1.563h1.103l-.19.876h-1.103l-.799 3.962c-.076.343-.076.534.038.648.077.115.229.19.419.19.076 0 .19 0 .342-.037.114 0 .228-.038.304-.038v.8c-.114.076-.266.114-.494.19-.228.038-.418.076-.647.076a1.102 1.102 0 0 1-.95-.457c-.229-.305-.267-.762-.153-1.372l.8-3.962h-.952l.19-.876h.951l.305-1.563h1.14z" fill="#6E6F71" fill-rule="nonzero"/><g fill="#2A3052"><path d="M29.203 157.232l.097 1a2.183 2.183 0 0 1 1.937-1.097c.71 0 1.26.193 1.647.645.387.42.581 1.066.581 1.938v4.197H32.27v-4.165c0-.581-.129-1.001-.355-1.26-.226-.258-.58-.354-1.033-.354-.355 0-.646.096-.904.258a1.865 1.865 0 0 0-.646.678v4.843h-1.194v-6.651l1.065-.032zM24.976 154.85h1.116v8.82h-1.116zM44.688 157.175h1.18v6.49h-1.18zM44.704 154.227v1.17h1.201v-1.17zM35.314 157.185h1.18v6.491h-1.18zM35.33 154.236v1.17h1.201v-1.17z"/><path d="M35.291 157.185h1.18v6.491h-1.18zM35.307 154.236v1.17h1.202v-1.17zM38.104 158.067v-.933h4.965v.787l-3.588 4.864h3.777v.885h-5.154v-.755l3.545-4.848zM50.47 156.986c1.951 0 2.822 1.424 2.969 3.068.146 1.644-.545 3.618-2.702 3.787-2.158.169-3.236-1.574-3.236-3.411 0-1.838 1.018-3.444 2.969-3.444zm-.047.939c-.727 0-1.586.436-1.696 2.218-.11 1.782.608 2.761 1.753 2.761s1.75-1.04 1.75-2.76c0-1.721-1.08-2.22-1.807-2.22z"/></g><g fill="#2A3052"><path d="M280.564 125.707l.1 1.037a2.26 2.26 0 0 1 2.007-1.137c.735 0 1.304.2 1.705.669.401.434.602 1.103.602 2.006v4.348h-1.237v-4.314c0-.602-.134-1.037-.368-1.305-.234-.267-.602-.367-1.07-.367-.368 0-.67.1-.937.267a1.931 1.931 0 0 0-.668.702v5.017h-1.238v-6.89l1.104-.033zM274.712 123.211v.973h-4.664v3.303h3.973v1h-3.973v4.228h-1.37v-9.504zM292.202 129.37h-4.435c0 .824.168 1.419.504 1.786.442.482.907.657 1.544.594 1.114-.112 1.33-.41 1.79-.673l.47.805c-.55.567-1.427.85-2.633.85-1.81 0-2.914-1.5-2.986-3.285-.072-1.785.64-3.856 2.986-3.943 1.987.052 2.907 1.341 2.76 3.867zm-1.245-.981c-.013-1.256-.518-1.884-1.514-1.884-.997 0-1.542.628-1.634 1.884h3.148zM276.154 125.717h1.245v6.855h-1.245zM276.17 122.604v1.236h1.27v-1.236z"/></g><g fill="#FFF"><path d="M187.053 166.463h-2.342v-7.75h2.342zM187.053 170.54h-2.342v-2.082h2.342z"/></g><path d="M166.922 161.935h1.685l.084 1.227c.69-1.03 1.585-1.487 2.685-1.373.637.066 1.98.275 2.38 2.083.148.664.116 1.784.105 3.307a355.08 355.08 0 0 0 0 3.07h-1.848v-5.208c0-.612-.171-1.296-.685-1.555-.706-.356-2.035-.207-2.568.69v6.074h-1.838v-8.315zM117.1 165.856v-1.365h4.128c.047 2.38.047 3.766 0 4.161-.348 1.042-4.471 2.935-7.133.533-.794-.716-1.167-1.509-1.371-2.71-.01-1.225-.031-2.376-.023-3.463.202-1.334.648-2.091 1.008-2.521 1.31-1.565 3.395-1.902 5.229-1.268 1.834.634 2.072 1.951 2.22 3.24-.424 0-.648-.019-1.795 0 .116-.725-.544-2.127-2.264-2.05-1.721.078-2.534 1.492-2.534 2.67 0 1.177-.062.782 0 3.122.079 2.688 3.3 3.41 4.798 1.974l.054-2.289-2.317-.034zM179.109 161.787c2.304 0 3.553 1.404 3.87 3.509.315 2.104-.82 5.076-3.708 5.076-2.887 0-3.82-2.195-3.82-4.467s1.354-4.118 3.658-4.118zm.02 1.474c-.684.065-1.898.544-1.827 2.816.071 2.272 1.064 2.805 1.828 2.805.763 0 2.05-.211 2.05-2.795s-1.365-2.89-2.05-2.826z" fill="#FFF"/><path d="M179.13 163.261c-.685.065-1.899.544-1.828 2.816.071 2.272 1.064 2.805 1.828 2.805.763 0 2.05-.211 2.05-2.795s-1.365-2.89-2.05-2.826z"/><path d="M123.26 162c.749.022 1.342.022 1.78 0v4.677c0 1.856.681 2.175 1.343 2.239a2.105 2.105 0 0 0 1.934-.922c.016-2.135.016-4.133 0-5.995h1.908v8.26h-1.63l-.175-1.213c-.576.992-1.479 1.434-2.709 1.325-1.845-.163-2.45-1.738-2.45-3.201 0-2.554-.041-3.883 0-5.17zM134.12 164.278c-.565-.004-1.157-.004-1.776 0 0-.89.637-2.506 3.187-2.506s3.162 1.752 3.232 2.13c.069.376-.178 5.665.355 6.266l-1.894.002c-.157-.535-.235-.93-.235-1.187-.296.361-.804 1.02-1.585 1.262-.781.242-2.555.372-3.282-1.33-.479-1.122-.173-2.384.727-2.963 1.487-.955 3.53-.635 4.14-.635.079-1.704-.43-2.101-1.585-2.101-.77 0-1.198.354-1.285 1.062zm2.869 2.204a30.74 30.74 0 0 0-1.871.015c-.744.066-1.406.615-1.35 1.399.068.934 1.13 1.105 1.96.836.698-.226 1.185-.81 1.26-1.058v-1.192zM151.323 164.278c-.564-.004-1.156-.004-1.775 0 0-.89.637-2.506 3.187-2.506s3.163 1.752 3.232 2.13c.069.376-.178 5.665.356 6.266l-1.895.002c-.156-.535-.235-.93-.235-1.187-.295.361-.804 1.02-1.585 1.262-.78.242-2.555.372-3.282-1.33-.479-1.122-.173-2.384.727-2.963 1.487-.955 3.53-.635 4.14-.635.079-1.704-.43-2.101-1.585-2.101-.77 0-1.198.354-1.285 1.062zm2.87 2.204a30.74 30.74 0 0 0-1.871.015c-.744.066-1.406.615-1.35 1.399.068.934 1.13 1.105 1.961.836.697-.226 1.184-.81 1.26-1.058v-1.192zM145.703 158.357h1.797v11.904h-1.477c-.078-.329-.153-.68-.224-1.055-.296.823-3.299 2.274-4.785-.182-1.242-2.052-.56-4.809.073-5.807.475-.748 2.401-2.673 4.616-.319a974.42 974.42 0 0 0 0-4.541zm.011 6.003c-.287-.908-2.212-1.482-2.984-.37-.773 1.111-.738 2.536-.295 3.839.442 1.303 2.332 1.552 3.28.119v-3.588zM163.27 163.045l.187-1.047h1.512v8.38c.005 2.92-3.274 4.039-6.288 2.58.173-.861.268-1.343.285-1.445 1.313.438 4.58 1.536 4.164-2.1-1.875 1.921-3.998.757-4.732-.526-.81-1.416-1.339-5.642 1.27-6.782 1.501-.656 2.703-.343 3.603.94zm-.156 1.277c-.357-.54-.586-.99-1.784-.99s-1.948 1.47-1.688 3.727c.26 2.258 2.71 2.258 3.472.83v-3.567z" fill="#FFF"/><path d="M27.946 22.29h-2.139l-4.3-7.193-.043.007v7.185h-2.139V11.625h2.139l4.3 7.185.043-.007v-7.178h2.139v10.664zm1.472-4.037c0-1.181.33-2.15.989-2.904s1.572-1.131 2.739-1.131c1.172 0 2.09.376 2.754 1.128.664.752.996 1.72.996 2.907v.154c0 1.192-.33 2.162-.992 2.912-.662.75-1.576 1.124-2.743 1.124-1.172 0-2.089-.375-2.75-1.124-.662-.75-.993-1.72-.993-2.912v-.154zm2.131.154c0 .723.127 1.303.381 1.74.254.437.664.655 1.23.655.552 0 .956-.22 1.213-.659.256-.44.384-1.018.384-1.736v-.154c0-.703-.13-1.276-.388-1.72-.259-.445-.666-.667-1.223-.667-.552 0-.956.223-1.212.67-.257.447-.385 1.02-.385 1.717v.154zm8.62-4.043l.096 1.136c.264-.406.589-.72.974-.945a2.529 2.529 0 0 1 1.297-.337c.8 0 1.425.257 1.875.772.449.516.673 1.33.673 2.443v4.856h-2.146V17.44c0-.566-.098-.968-.296-1.204-.198-.237-.495-.356-.89-.356-.317 0-.597.06-.839.18-.241.12-.44.284-.597.494v5.735h-2.138v-7.925h1.992zm17.843-1.091h-3.047v9.016h-2.139v-9.016h-3.003v-1.648h8.189v1.648zm.102 4.98c0-1.181.33-2.15.989-2.904.66-.754 1.572-1.131 2.74-1.131 1.171 0 2.09.376 2.753 1.128.664.752.996 1.72.996 2.907v.154c0 1.192-.33 2.162-.992 2.912-.662.75-1.576 1.124-2.743 1.124-1.172 0-2.089-.375-2.75-1.124-.662-.75-.993-1.72-.993-2.912v-.154zm2.132.154c0 .723.127 1.303.38 1.74.254.437.665.655 1.23.655.553 0 .957-.22 1.213-.659.256-.44.385-1.018.385-1.736v-.154c0-.703-.13-1.276-.389-1.72-.258-.445-.666-.667-1.223-.667-.551 0-.956.223-1.212.67-.256.447-.384 1.02-.384 1.717v.154zm9.975 2.395c.371 0 .667-.11.886-.333.22-.222.33-.519.33-.89h1.948l.015.044c.02.8-.278 1.471-.894 2.01-.615.54-1.377.81-2.285.81-1.172 0-2.077-.375-2.717-1.124-.64-.75-.96-1.708-.96-2.875v-.22c0-1.162.319-2.12.956-2.875.637-.754 1.54-1.131 2.707-1.131.966 0 1.745.278 2.336.835.59.556.876 1.289.857 2.197l-.015.044h-1.948c0-.41-.109-.75-.326-1.022-.217-.27-.519-.406-.904-.406-.552 0-.944.22-1.176.663-.232.441-.348 1.007-.348 1.695v.22c0 .703.116 1.272.348 1.706.232.435.629.652 1.19.652zm7.735 0c.37 0 .666-.11.886-.333.22-.222.33-.519.33-.89h1.948l.014.044c.02.8-.278 1.471-.893 2.01-.616.54-1.377.81-2.285.81-1.172 0-2.078-.375-2.718-1.124-.64-.75-.96-1.708-.96-2.875v-.22c0-1.162.32-2.12.957-2.875.637-.754 1.539-1.131 2.706-1.131.967 0 1.746.278 2.336.835.591.556.877 1.289.857 2.197l-.014.044H79.17c0-.41-.108-.75-.326-1.022-.217-.27-.518-.406-.904-.406-.552 0-.944.22-1.176.663-.232.441-.348 1.007-.348 1.695v.22c0 .703.116 1.272.348 1.706.232.435.629.652 1.19.652zm9.096 1.487a4.498 4.498 0 0 1-.201-.571 3.974 3.974 0 0 1-.121-.615c-.22.385-.51.705-.872.959-.36.254-.79.38-1.289.38-.83 0-1.47-.213-1.919-.64-.449-.427-.673-1.01-.673-1.747 0-.776.299-1.378.897-1.805.598-.427 1.47-.641 2.618-.641h1.201v-.63c0-.38-.1-.676-.3-.886-.2-.21-.498-.315-.893-.315-.347 0-.615.084-.802.253-.188.168-.282.399-.282.692h-2.059l-.014-.044c-.034-.67.257-1.247.875-1.732.618-.486 1.425-.73 2.42-.73.953 0 1.723.24 2.311.719.589.478.883 1.164.883 2.058v3.274c0 .37.028.72.084 1.047.056.327.146.652.268.974h-2.132zm-1.955-1.428c.37 0 .703-.093.996-.278.293-.186.493-.4.6-.645v-1.12h-1.2c-.455 0-.798.112-1.03.336-.232.225-.348.5-.348.828 0 .268.087.482.26.64.174.16.414.239.722.239z" fill="#000"/></g></svg>