<svg width="299" height="197" xmlns="http://www.w3.org/2000/svg"><g fill="none" fill-rule="evenodd"><path fill="#F1F2F2" d="M0 0h299v197H0z"/><path d="M1.993 1.98v193.04h295.014V1.98H1.993zM299 0v197H0V0h299z" fill="#C2C2C2" fill-rule="nonzero"/><path d="M41.615 54.857v18.905H76.77V54.857H41.615zm0-.976H76.77V34h.973v19.881h35.155V34h.974v19.881h35.155V34H150v19.881h35.155V34h.973v19.881h35.156V34h.973v19.881h35.155V34h.973v19.881H295v.976h-36.615v18.905H295v.976h-36.615v18.905H295v.976h-36.615v18.905H295v.976h-36.615v18.905H295v.976h-36.615v18.905H295v.976h-36.615v18.905H295v.976h-36.615V195h-.973v-20.857h-35.155V195h-.973v-20.857h-35.156V195h-.973v-20.857H150V195h-.973v-20.857h-35.155V195h-.974v-20.857H77.743V195h-.973v-20.857H41.615V195h-.973v-20.857H5v-.976h35.642v-18.905H5v-.976h35.642v-18.905H5v-.976h35.642V114.5H5v-.976h35.642V94.62H5v-.976h35.642V74.738H5v-.976h35.642V54.857H5v-.976h35.642V34h.973v19.881zm215.797.976h-35.155v18.905h35.155V54.857zm-36.128 0h-35.156v18.905h35.156V54.857zm-36.129 0H150v18.905h35.155V54.857zm-36.128 0h-35.155v18.905h35.155V54.857zm-36.129 0H77.743v18.905h35.155V54.857zm-71.283 19.88v18.906H76.77V74.738H41.615zm215.797 0h-35.155v18.906h35.155V74.738zm-36.128 0h-35.156v18.906h35.156V74.738zm-36.129 0H150v18.906h35.155V74.738zm-36.128 0h-35.155v18.906h35.155V74.738zm-36.129 0H77.743v18.906h35.155V74.738zM41.615 94.62v18.905H76.77V94.62H41.615zm215.797 0h-35.155v18.905h35.155V94.62zm-36.128 0h-35.156v18.905h35.156V94.62zm-36.129 0H150v18.905h35.155V94.62zm-36.128 0h-35.155v18.905h35.155V94.62zm-36.129 0H77.743v18.905h35.155V94.62zM41.615 114.5v18.905H76.77V114.5H41.615zm215.797 0h-35.155v18.905h35.155V114.5zm-36.128 0h-35.156v18.905h35.156V114.5zm-36.129 0H150v18.905h35.155V114.5zm-36.128 0h-35.155v18.905h35.155V114.5zm-36.129 0H77.743v18.905h35.155V114.5zm-71.283 19.881v18.905H76.77v-18.905H41.615zm215.797 0h-35.155v18.905h35.155v-18.905zm-36.128 0h-35.156v18.905h35.156v-18.905zm-36.129 0H150v18.905h35.155v-18.905zm-36.128 0h-35.155v18.905h35.155v-18.905zm-36.129 0H77.743v18.905h35.155v-18.905zm-71.283 19.881v18.905H76.77v-18.905H41.615zm215.797 0h-35.155v18.905h35.155v-18.905zm-36.128 0h-35.156v18.905h35.156v-18.905zm-36.129 0H150v18.905h35.155v-18.905zm-36.128 0h-35.155v18.905h35.155v-18.905zm-36.129 0H77.743v18.905h35.155v-18.905z" fill="#DFDEDE" fill-rule="nonzero"/><path fill="#C2C2C2" d="M4 31h290v2H4z"/><g transform="translate(1 46.372)"><path fill="#293052" fill-rule="nonzero" d="M.62 47.836V46.62h1.834v1.215zM6.124 47.836V46.62H9.77v1.215H6.124zm7.292 0V46.62h3.646v1.215h-3.646zm7.292 0V46.62h3.646v1.215h-3.646zm7.292 0V46.62h3.646v1.215H28zm7.292 0V46.62h3.646v1.215h-3.646zm7.292 0V46.62h3.646v1.215h-3.646zm7.292 0V46.62h3.646v1.215h-3.646zm7.292 0V46.62h3.646v1.215h-3.646zm7.292 0V46.62h3.646v1.215H64.46zm7.292 0V46.62h3.646v1.215h-3.646zm7.292 0V46.62h3.646v1.215h-3.646zm7.292 0V46.62h3.646v1.215h-3.646zm7.292 0V46.62h3.646v1.215h-3.646zm7.292 0V46.62h3.646v1.215h-3.646zm7.292 0V46.62h3.646v1.215h-3.646zm7.292 0V46.62h3.646v1.215h-3.646zm7.292 0V46.62h3.646v1.215h-3.646zm7.292 0V46.62h3.646v1.215h-3.646zm7.292 0V46.62h3.646v1.215h-3.646zm7.292 0V46.62h3.646v1.215h-3.646zm7.292 0V46.62h3.646v1.215h-3.646zm7.292 0V46.62h3.646v1.215h-3.646zm7.292 0V46.62h3.646v1.215h-3.646zm7.292 0V46.62h3.646v1.215h-3.646zm7.292 0V46.62h3.646v1.215h-3.646zm7.292 0V46.62h3.646v1.215h-3.646zm7.292 0V46.62h3.646v1.215h-3.646zm7.292 0V46.62h3.646v1.215h-3.646zm7.292 0V46.62h3.646v1.215H210.3zm7.292 0V46.62h3.646v1.215h-3.646zm7.292 0V46.62h3.646v1.215h-3.646zm7.292 0V46.62h3.646v1.215h-3.646zm7.292 0V46.62h3.646v1.215h-3.646zm7.292 0V46.62h3.646v1.215h-3.646zm7.292 0V46.62h3.646v1.215h-3.646zm7.292 0V46.62h3.646v1.215h-3.646zm7.292 0V46.62h3.646v1.215h-3.646zm7.292 0V46.62h3.646v1.215h-3.646zm7.292 0V46.62h3.646v1.215h-3.646zM292.158 47.836V46.62h1.796v1.215z"/><path d="M189.2 78.105l31.128-32.132a1.804 1.804 0 1 1 2.592 2.51l-32.075 33.11a1.804 1.804 0 0 1-2.147.335l-41.962-22.464-42.632 25.078a1.804 1.804 0 0 1-1.726.056l-30.01-15.114a1.804 1.804 0 0 1-.357-.236L34.89 37.696a1.804 1.804 0 0 1 2.336-2.75L74.183 66.36l28.939 14.574 42.657-25.093a1.804 1.804 0 0 1 1.766-.035l41.655 22.3z" fill="#293052" fill-rule="nonzero"/><path d="M254.349 69.704l.688-6.778h6.04v1.48h-4.626l-.382 3.467c.26-.19.542-.348.84-.467a3.083 3.083 0 0 1 1.071-.195 3.22 3.22 0 0 1 2.638 1.09 4.536 4.536 0 0 1 .956 3.04 4.378 4.378 0 0 1-.956 2.96 3.558 3.558 0 0 1-2.829 1.13 3.777 3.777 0 0 1-2.561-.858 2.989 2.989 0 0 1-.994-2.532h1.49c-.032.576.175 1.14.574 1.558.406.377.943.573 1.491.546a1.897 1.897 0 0 0 1.606-.74c.36-.636.496-1.379.382-2.104a3.119 3.119 0 0 0-.573-1.948 1.897 1.897 0 0 0-1.606-.74 2.522 2.522 0 0 0-1.376.312c-.31.218-.539.534-.65.896l-1.223-.117zm6.078 21.152h1.644v1.324h-1.644v2.844h-1.644V92.14h-5.428v-.935l5.314-8.53h1.72v8.18h.038v.001zm-5.314 0h3.823v-5.804.428l-3.823 5.376zm.841 18.23h1.415a1.89 1.89 0 0 0 1.529-.545c.331-.447.494-1 .459-1.559a2.288 2.288 0 0 0-.497-1.597 1.966 1.966 0 0 0-1.53-.545 2.08 2.08 0 0 0-1.529.584c-.39.403-.599.954-.573 1.52h-1.415c-.04-.9.325-1.772.994-2.377a3.78 3.78 0 0 1 2.715-.973 3.777 3.777 0 0 1 2.676.895 3.345 3.345 0 0 1 .994 2.61 2.96 2.96 0 0 1-1.797 2.688 2.68 2.68 0 0 1 1.53 1.13 3.713 3.713 0 0 1-.65 4.401 4.006 4.006 0 0 1-2.753.974 4.115 4.115 0 0 1-2.753-.896 2.947 2.947 0 0 1-1.032-2.454h1.567c-.036.58.172 1.147.574 1.558a2.193 2.193 0 0 0 1.605.585 2.23 2.23 0 0 0 1.644-.585c.517-.501.76-1.229.65-1.947a1.932 1.932 0 0 0-.518-1.693 1.851 1.851 0 0 0-1.66-.528h-1.645v-1.246zm5.773 27.073h-7.837v-1.169l3.823-4.48a11.35 11.35 0 0 0 1.452-1.908c.244-.441.375-.936.383-1.442a2.325 2.325 0 0 0-.535-1.558 1.744 1.744 0 0 0-1.415-.623 2.382 2.382 0 0 0-1.835.662 2.641 2.641 0 0 0-.612 1.83H253.7a3.502 3.502 0 0 1 1.032-2.687 4.045 4.045 0 0 1 2.982-1.09 3.517 3.517 0 0 1 2.6.973c.638.648.984 1.537.955 2.454a3.95 3.95 0 0 1-.573 2.026c-.47.783-1.02 1.514-1.644 2.181l-3.173 3.506h5.81v1.325h.039-.001zm0-113.705a17.38 17.38 0 0 0-2.944 4.713 21.452 21.452 0 0 0-1.108 4.986v1.324h-1.72v-1.324c.204-1.827.68-3.613 1.414-5.298a20.24 20.24 0 0 1 2.752-4.48h-6.575V21.13h8.18v1.325l.001-.001zm-.459-18.114a2.761 2.761 0 0 1-.535 1.675c-.369.501-.874.88-1.453 1.09.657.23 1.238.634 1.682 1.17.408.518.624 1.166.612 1.83.058 1-.354 1.969-1.109 2.61a4.969 4.969 0 0 1-5.696 0 3.224 3.224 0 0 1-1.07-2.61c-.01-.664.207-1.31.611-1.83.424-.54.995-.947 1.644-1.17a3.065 3.065 0 0 1-1.414-1.09 2.842 2.842 0 0 1-.497-1.675c-.05-.94.314-1.855.994-2.493a3.778 3.778 0 0 1 2.6-.896c.945-.04 1.871.28 2.599.896a3.145 3.145 0 0 1 1.032 2.493zm-1.3 5.726a2.243 2.243 0 0 0-2.293-2.337 2.233 2.233 0 0 0-1.644.662 2.282 2.282 0 0 0-.65 1.675 2.163 2.163 0 0 0 .65 1.636 2.637 2.637 0 0 0 3.326 0c.427-.428.65-1.026.611-1.636zm-.19-5.687a2.126 2.126 0 0 0-.574-1.519 2 2 0 0 0-2.83 0c-.367.42-.558.964-.534 1.52a2.08 2.08 0 0 0 .535 1.518 2.074 2.074 0 0 0 2.829 0c.387-.405.594-.954.573-1.519h.001z" fill="#808184" fill-rule="nonzero"/><path d="M186.07 99.23h-35.4l-5.581-8.296-5.353 8.297h-35.4c-2.64 0-4.779 2.18-4.779 4.869v25.203c0 2.689 2.14 4.869 4.779 4.869h81.735c1.292.03 2.54-.47 3.453-1.384a4.915 4.915 0 0 0 1.44-3.485v-25.164a4.916 4.916 0 0 0-1.426-3.51 4.731 4.731 0 0 0-3.467-1.398l-.001-.001z" fill="#E88024"/><ellipse fill="#FFF" opacity=".6" cx="221.624" cy="47.228" rx="8.219" ry="8.609"/><path d="M221.624 57.052c-5.223 0-9.434-4.41-9.434-9.824 0-5.413 4.21-9.824 9.434-9.824 5.223 0 9.434 4.41 9.434 9.824 0 5.413-4.21 9.824-9.434 9.824zm0-2.43c3.855 0 7.004-3.298 7.004-7.394s-3.149-7.394-7.004-7.394c-3.855 0-7.004 3.298-7.004 7.394s3.149 7.394 7.004 7.394z" fill="#E88024" fill-rule="nonzero"/><path fill="#E88024" d="M244.753 38.152h28.863v19.32h-28.863z"/><path d="M258.592 41.385c.42-.047.842-.047 1.262 0 .393.094.777.224 1.147.39l-.421 1.791-.994-.272h-.994a2.164 2.164 0 0 0-1.759.857 3.476 3.476 0 0 0-.611 2.337c.29-.295.643-.52 1.032-.662a3.759 3.759 0 0 1 1.415-.234c.98-.041 1.92.394 2.523 1.168.636.862.96 1.922.917 3a4.292 4.292 0 0 1-1.147 3.077 3.787 3.787 0 0 1-2.943 1.208 4.015 4.015 0 0 1-3.135-1.325 5.245 5.245 0 0 1-1.185-3.661v-2.415a5.318 5.318 0 0 1 1.376-3.896 4.616 4.616 0 0 1 3.517-1.363zm-.573 6.116a2.708 2.708 0 0 0-1.147.233c-.29.126-.54.327-.727.585v.818c-.051.79.136 1.579.536 2.259a1.6 1.6 0 0 0 1.376.779c.49-.002.94-.27 1.185-.701.346-.502.533-1.1.535-1.714.03-.593-.13-1.18-.459-1.675a1.443 1.443 0 0 0-1.3-.623v.039h.001z" fill="#FFF" fill-rule="nonzero"/><path fill="#E88024" d="M248.27 47.812l-3.364 3.428-5.238-3.428 5.238-3.389z"/><path fill="#293052" fill-rule="nonzero" d="M246.053 79.817v-1.215h23.129v1.215z"/></g><path d="M21.697 18.273l.012.035c.016.921-.265 1.642-.842 2.164-.577.522-1.373.782-2.388.782-1.036 0-1.872-.333-2.508-.998-.636-.666-.954-1.527-.954-2.582v-1.713c0-1.051.31-1.912.93-2.581.62-.67 1.435-1.005 2.443-1.005 1.05 0 1.873.257 2.466.77.592.514.88 1.237.865 2.17l-.012.035h-1.683c0-.553-.134-.965-.4-1.235-.267-.271-.68-.406-1.236-.406-.518 0-.922.208-1.213.625-.29.417-.435.955-.435 1.615v1.725c0 .664.153 1.205.46 1.624.305.42.731.629 1.277.629.517 0 .904-.136 1.158-.406.255-.271.383-.687.383-1.248h1.677zm2.94 2.857h-1.73v-6.414h1.73v6.414zm0-7.95h-1.73v-1.297h1.73v1.298-.001zm1.873 7.95v-5.2h-.954v-1.215h.954v-.711c0-.72.208-1.274.623-1.663.415-.39.998-.584 1.749-.584.146 0 .295.011.447.033.152.022.32.052.5.092l-.147 1.286a8.558 8.558 0 0 0-.276-.041 2.385 2.385 0 0 0-.311-.018c-.28 0-.493.077-.637.231-.145.154-.217.375-.217.664v.711h1.233v1.215h-1.233v5.199h-1.73l-.001.001zm7.155-4.926l-.634-.018c-.257 0-.468.054-.634.16-.168.11-.3.266-.38.45v4.334h-1.725v-6.414H31.9l.077.949c.15-.336.345-.598.584-.786.239-.188.514-.281.826-.281.087 0 .167.007.24.02.074.014.148.031.223.05l-.184 1.536h-.001zm4.683 4.926a3.64 3.64 0 0 1-.163-.462 3.216 3.216 0 0 1-.098-.498 2.372 2.372 0 0 1-.705.776c-.293.206-.64.308-1.044.308-.671 0-1.189-.173-1.553-.518-.363-.346-.545-.817-.545-1.414 0-.628.242-1.115.726-1.461.484-.346 1.19-.519 2.12-.519h.971v-.51c0-.308-.08-.547-.243-.717-.162-.17-.403-.255-.723-.255-.28 0-.497.068-.649.205-.152.136-.228.323-.228.56h-1.666l-.012-.036c-.027-.541.209-1.008.709-1.402.5-.393 1.153-.59 1.959-.59.77 0 1.394.194 1.87.582.476.387.714.942.714 1.665v2.65c0 .3.023.583.068.847.046.265.118.528.217.789h-1.725zm-1.583-1.156c.3 0 .57-.075.806-.225.237-.15.4-.324.486-.522v-.907h-.972c-.367 0-.645.091-.833.273a.896.896 0 0 0-.281.67c0 .217.07.39.21.518.14.129.335.193.584.193zm11.974-1.097c0-.332-.116-.598-.347-.8-.231-.201-.637-.391-1.218-.569-.996-.3-1.752-.654-2.267-1.06-.516-.408-.774-.963-.774-1.667 0-.707.29-1.285.872-1.733.58-.449 1.321-.673 2.222-.673.957 0 1.726.24 2.31.723.582.482.864 1.114.844 1.897l-.012.035h-1.677c0-.43-.13-.761-.392-.993-.26-.23-.626-.346-1.096-.346-.427 0-.757.102-.99.308-.233.205-.35.468-.35.788 0 .293.127.533.38.72.252.188.689.387 1.31.596.948.269 1.671.62 2.169 1.052.498.433.747 1.003.747 1.71 0 .74-.289 1.322-.866 1.75-.577.426-1.34.64-2.288.64-.928 0-1.726-.232-2.391-.694-.666-.463-.99-1.152-.97-2.069l.012-.035h1.678c0 .51.15.885.45 1.126.3.24.708.361 1.221.361.463 0 .815-.096 1.058-.29a.942.942 0 0 0 .365-.777zm6.805 1.304c-.18.325-.438.598-.753.795-.32.19-.688.286-1.061.278-.676 0-1.204-.229-1.586-.687-.38-.459-.572-1.17-.572-2.134v-3.717h1.725v3.729c0 .56.076.945.229 1.153.152.207.388.31.708.31.276 0 .514-.044.711-.133.198-.089.36-.22.486-.394v-4.665h1.731v6.414h-1.434l-.184-.949zm8.708-2.08c0 .948-.22 1.711-.658 2.288-.44.577-1.052.865-1.838.865a2.06 2.06 0 0 1-.895-.186 1.838 1.838 0 0 1-.67-.549v3.077h-1.725v-8.88h1.56l.1.759c.19-.28.418-.497.685-.65.266-.151.577-.227.933-.227.794 0 1.41.31 1.85.93.438.62.658 1.437.658 2.448v.125zm-1.731-.125c0-.604-.101-1.094-.303-1.47-.201-.375-.51-.563-.924-.563-.261 0-.483.054-.667.16a1.142 1.142 0 0 0-.436.457v2.81c.107.181.252.32.436.414.184.095.41.143.679.143.418 0 .726-.164.921-.492.196-.328.294-.773.294-1.334v-.125zm5.578 3.278c-.957 0-1.704-.293-2.241-.88-.538-.587-.806-1.343-.806-2.267v-.237c0-.96.26-1.747.782-2.36.522-.612 1.24-.916 2.152-.912.861 0 1.522.263 1.983.791.46.528.69 1.238.69 2.131v.895h-3.823l-.018.036c.028.438.161.794.4 1.067.24.272.594.409 1.064.409.388 0 .717-.04.987-.119.27-.079.55-.2.839-.362l.468 1.067c-.257.21-.604.386-1.043.528a4.627 4.627 0 0 1-1.434.213zm-.113-5.323c-.348 0-.616.12-.803.359-.188.24-.302.556-.341.951l.012.03h2.11v-.13c0-.376-.077-.671-.231-.887-.154-.215-.403-.323-.747-.323zm7.054.273l-.634-.018c-.257 0-.469.054-.635.16-.168.11-.3.266-.38.45v4.334h-1.724v-6.414h1.606l.077.949c.15-.336.345-.598.584-.786.24-.188.515-.281.827-.281.087 0 .167.007.24.02.073.014.147.031.223.05l-.184 1.536zm2.72 4.926h-1.73v-6.414h1.73v6.414zm0-7.95h-1.73v-1.297h1.73v1.298-.001zm1.156 4.684c0-.957.267-1.74.8-2.35.534-.611 1.273-.916 2.218-.916.948 0 1.69.304 2.228.912.538.61.806 1.393.806 2.354v.124c0 .964-.267 1.75-.803 2.356-.535.607-1.275.91-2.22.91-.948 0-1.69-.303-2.225-.91-.536-.606-.804-1.392-.804-2.356v-.124zm1.725.124c0 .585.103 1.054.309 1.408.205.354.537.53.995.53.447 0 .774-.177.981-.533.208-.356.312-.824.312-1.405v-.124c0-.57-.105-1.034-.315-1.393-.209-.36-.539-.54-.99-.54-.446 0-.773.181-.98.543-.208.361-.312.825-.312 1.39v.124zm8.767-1.784l-.634-.018c-.257 0-.468.054-.634.16-.168.11-.3.266-.38.45v4.334h-1.725v-6.414h1.607l.077.949c.15-.336.345-.598.584-.786.239-.188.514-.281.827-.281.087 0 .167.007.24.02.073.014.147.031.222.05l-.184 1.536zm3.569 5.05c-.957 0-1.704-.293-2.241-.88-.537-.587-.806-1.343-.806-2.267v-.237c0-.96.26-1.747.782-2.36.522-.612 1.24-.916 2.152-.912.862 0 1.522.263 1.983.791.46.528.69 1.238.69 2.131v.895h-3.823l-.018.036c.028.438.161.794.4 1.067.24.272.594.409 1.064.409.388 0 .717-.04.987-.119.271-.079.55-.2.84-.362l.467 1.067c-.256.21-.604.386-1.043.528a4.627 4.627 0 0 1-1.434.213zm-.113-5.323c-.348 0-.615.12-.803.359-.188.24-.301.556-.341.951l.012.03h2.11v-.13c0-.376-.077-.671-.231-.887-.154-.215-.403-.323-.747-.323z" fill="#020202" fill-rule="nonzero"/><path d="M266.019 16.67h-1.312v-1.385h1.348v1.385h-.036zm0 5.94h-1.312v-1.385h1.348v1.385h-.036zm5.72-4.446l.584-5.43h4.955v1.203h-3.644l-.327 2.77c.214-.151.446-.274.692-.365.29-.05.585-.05.874 0a2.66 2.66 0 0 1 2.15.875c.542.694.814 1.561.765 2.441a3.644 3.644 0 0 1-.801 2.405 2.952 2.952 0 0 1-2.332.91 3.17 3.17 0 0 1-2.332-.91 2.369 2.369 0 0 1-.802-2.004h1.202a1.64 1.64 0 0 0 .474 1.239c.341.354.821.54 1.312.51a1.567 1.567 0 0 0 1.458-.692 2.55 2.55 0 0 0 .473-1.64 2.478 2.478 0 0 0-.473-1.567 1.57 1.57 0 0 0-1.312-.62c-.39-.032-.78.043-1.13.22a1.348 1.348 0 0 0-.51.728l-1.275-.073h-.001z" fill="#293052" fill-rule="nonzero"/><path d="M202.613 12.555v6.167c0 1.02-.331 1.818-.995 2.392-.663.574-1.518.86-2.563.86-1.008 0-1.833-.287-2.475-.863-.642-.576-.963-1.372-.963-2.389v-6.167h1.257v6.167c0 .71.203 1.266.609 1.668.406.402.93.603 1.572.603.68 0 1.234-.201 1.66-.603.428-.402.642-.958.642-1.668v-6.167h1.256zm3.176 9.286h-1.256v-9.949h1.256v9.949zm3.68-8.565v1.665h1.307v.93h-1.307v4.19c0 .324.067.551.2.683a.726.726 0 0 0 .533.198c.073 0 .153-.01.243-.029.089-.02.163-.04.223-.06l.172.86a1.11 1.11 0 0 1-.415.189 2.092 2.092 0 0 1-.542.073c-.51 0-.916-.154-1.218-.462-.302-.309-.452-.792-.452-1.451v-4.19h-1.097v-.931h1.097v-1.665h1.256zm4.011 8.565h-1.256v-6.9h1.256v6.9zm0-8.667h-1.256v-1.282h1.256v1.282zm3.055 1.767l.09.905a2.34 2.34 0 0 1 .857-.762c.347-.18.75-.27 1.209-.27.459 0 .853.105 1.183.318.33.213.577.531.743.957.22-.396.509-.707.864-.935.355-.227.77-.34 1.246-.34.702 0 1.257.24 1.665.723.408.482.612 1.208.612 2.178v4.126h-1.256v-4.139c0-.68-.117-1.162-.35-1.444-.235-.283-.583-.425-1.047-.425-.43 0-.777.15-1.043.447-.265.298-.421.674-.468 1.129v4.432h-1.263v-4.139c0-.646-.12-1.12-.36-1.419-.24-.3-.586-.45-1.037-.45-.382 0-.697.08-.943.236-.25.161-.448.392-.568.664v5.108h-1.256v-6.9h1.122zm14.534 6.9a10.208 10.208 0 0 1-.099-.552 4.049 4.049 0 0 1-.041-.481 2.93 2.93 0 0 1-.915.832 2.34 2.34 0 0 1-1.215.335c-.719 0-1.266-.184-1.642-.552-.377-.368-.565-.875-.565-1.52 0-.66.267-1.175.8-1.547.534-.372 1.258-.558 2.172-.558h1.365v-.683c0-.404-.124-.724-.37-.96-.247-.235-.595-.353-1.046-.353-.408 0-.738.102-.988.306-.251.204-.377.448-.377.733l-1.192.013-.013-.038c-.03-.502.205-.961.705-1.378.5-.417 1.144-.625 1.935-.625.782 0 1.412.199 1.888.596.476.398.714.97.714 1.72v3.322c0 .246.013.484.038.714.026.23.073.455.14.676h-1.294zm-2.085-.918a2.23 2.23 0 0 0 1.23-.351c.366-.234.604-.502.715-.804v-1.122h-1.41c-.506 0-.91.127-1.215.383-.304.255-.456.554-.456.899 0 .306.096.548.287.727.192.178.475.268.849.268zm11.013.07c.387 0 .725-.129 1.014-.386a1.22 1.22 0 0 0 .434-.947h1.135l.02.038c.016.595-.239 1.124-.766 1.585-.504.453-1.16.7-1.837.692-.969 0-1.717-.33-2.244-.989-.528-.659-.791-1.48-.791-2.461v-.268c0-.974.264-1.791.794-2.452s1.276-.992 2.241-.992c.77 0 1.4.238 1.891.714.491.477.728 1.061.711 1.754l-.012.038h-1.142c0-.42-.137-.779-.411-1.074a1.354 1.354 0 0 0-1.037-.443c-.616 0-1.066.239-1.348.717-.283.478-.424 1.058-.424 1.738v.268c0 .693.139 1.277.417 1.754.279.476.73.714 1.355.714zm5.453.848h-1.256v-6.9h1.256v6.9zm0-8.667h-1.256v-1.282h1.256v1.282zm2.455 8.667v-5.97h-1.077v-.93h1.077v-.874c0-.736.193-1.304.578-1.706.384-.402.921-.603 1.61-.603.144 0 .29.012.437.035.146.024.309.057.488.1l-.154.956a2.823 2.823 0 0 0-.618-.064c-.366 0-.638.11-.816.329-.179.218-.268.536-.268.953v.874h1.25v.93h-1.25v5.97h-1.257zm7.041-5.79l-.644-.039c-.332 0-.611.079-.839.236a1.514 1.514 0 0 0-.526.663v4.93h-1.256v-6.9h1.122l.121 1.007c.196-.357.437-.635.724-.835.287-.2.618-.3.992-.3.162.001.323.025.478.07l-.172 1.167v.001zm5.548 5.79a10.21 10.21 0 0 1-.099-.552 4.049 4.049 0 0 1-.041-.481 2.93 2.93 0 0 1-.915.832 2.34 2.34 0 0 1-1.215.335c-.719 0-1.266-.184-1.642-.552-.376-.368-.565-.875-.565-1.52 0-.66.267-1.175.8-1.547.534-.372 1.258-.558 2.172-.558h1.365v-.683c0-.404-.123-.724-.37-.96-.246-.235-.595-.353-1.046-.353-.408 0-.737.102-.988.306-.251.204-.377.448-.377.733l-1.192.013-.013-.038c-.03-.502.205-.961.705-1.378.5-.417 1.145-.625 1.935-.625.783 0 1.412.199 1.888.596.476.398.714.97.714 1.72v3.322c0 .246.013.484.039.714.025.23.072.455.14.676h-1.295zm-2.085-.918a2.23 2.23 0 0 0 1.23-.351c.366-.234.604-.502.715-.804v-1.122h-1.41c-.505 0-.91.127-1.214.383-.304.255-.456.554-.456.899 0 .306.095.548.287.727.191.178.474.268.848.268z" fill="#2A3052" fill-rule="nonzero"/><path d="M182.415 165.672h-2.25v-7.44h2.25v7.44zm0 3.915h-2.25v-1.999h2.25v1.999zM163.088 161.325h1.618l.08 1.178c.663-.988 1.522-1.427 2.578-1.318.612.064 1.901.264 2.286 2 .14.637.11 1.713.1 3.175-.004.567-.004 1.55 0 2.948h-1.774v-5c0-.588-.165-1.245-.658-1.493-.677-.342-1.953-.199-2.465.662v5.83h-1.765v-7.982zm-47.83 3.765v-1.31h3.964c.045 2.283.045 3.615 0 3.994-.334 1-4.293 2.818-6.849.512-.762-.687-1.12-1.448-1.316-2.601-.009-1.177-.03-2.282-.022-3.326.194-1.28.623-2.007.968-2.42 1.257-1.502 3.259-1.825 5.02-1.217 1.76.609 1.99 1.873 2.131 3.11-.407 0-.622-.017-1.723 0 .111-.696-.522-2.041-2.174-1.967-1.652.074-2.432 1.431-2.432 2.562 0 1.13-.06.751 0 2.998.075 2.58 3.168 3.273 4.606 1.895l.052-2.197-2.225-.033zm59.53-3.907c2.212 0 3.411 1.349 3.715 3.369.303 2.02-.788 4.873-3.56 4.873-2.771 0-3.668-2.107-3.668-4.288s1.301-3.954 3.513-3.954zm.02 1.416c-.658.062-1.823.522-1.755 2.703.069 2.18 1.022 2.693 1.755 2.693.733 0 1.969-.203 1.969-2.684 0-2.48-1.311-2.774-1.969-2.712z" fill="#FFF" fill-rule="nonzero"/><path d="M174.808 162.599c-.658.062-1.823.522-1.755 2.703.069 2.18 1.022 2.693 1.755 2.693.733 0 1.969-.203 1.969-2.684 0-2.48-1.311-2.774-1.969-2.712z"/><path d="M121.172 161.387c.719.022 1.288.022 1.708 0v4.49c0 1.783.655 2.089 1.29 2.15a2.02 2.02 0 0 0 1.857-.885c.016-2.05.016-3.968 0-5.755h1.831v7.93h-1.565l-.168-1.165c-.552.953-1.419 1.377-2.6 1.272-1.771-.157-2.353-1.668-2.353-3.073 0-2.451-.039-3.728 0-4.964zm10.425 2.188c-.542-.004-1.11-.004-1.704 0 0-.855.611-2.406 3.06-2.406 2.448 0 3.035 1.682 3.102 2.044.066.362-.17 5.44.341 6.017l-1.818.002c-.15-.514-.226-.894-.226-1.14-.284.346-.771.98-1.521 1.212-.75.232-2.454.357-3.151-1.278-.46-1.077-.167-2.289.697-2.844 1.428-.917 3.39-.61 3.975-.61.076-1.636-.413-2.017-1.521-2.017-.74 0-1.15.34-1.234 1.02zm2.755 2.115c-.538-.01-.9-.013-1.796.015-.714.063-1.35.59-1.296 1.343.065.897 1.084 1.061 1.882.803.67-.217 1.137-.778 1.21-1.016v-1.145zm13.761-2.115c-.542-.004-1.11-.004-1.704 0 0-.855.612-2.406 3.06-2.406s3.036 1.682 3.102 2.044c.066.362-.17 5.44.342 6.017l-1.82.002c-.15-.514-.224-.894-.224-1.14-.284.346-.772.98-1.522 1.212-.75.232-2.453.357-3.15-1.278-.46-1.077-.167-2.289.697-2.844 1.427-.917 3.39-.61 3.975-.61.075-1.636-.413-2.017-1.522-2.017-.74 0-1.15.34-1.234 1.02zm2.755 2.115c-.538-.01-.9-.013-1.796.015-.714.063-1.35.59-1.296 1.343.065.897 1.085 1.061 1.883.803.67-.217 1.136-.778 1.209-1.016v-1.145zm-8.15-7.8h1.725v11.43h-1.418a24.18 24.18 0 0 1-.216-1.014c-.283.79-3.166 2.183-4.593-.175-1.192-1.97-.538-4.616.07-5.575.456-.718 2.305-2.565 4.432-.306a875.79 875.79 0 0 0 0-4.36zm.01 5.764c-.275-.872-2.123-1.423-2.865-.356-.741 1.067-.707 2.435-.283 3.686s2.239 1.49 3.149.114v-3.444h-.001zm16.855-1.264l.179-1.004h1.451v8.044c.005 2.804-3.143 3.878-6.036 2.478.166-.827.257-1.29.274-1.388 1.26.422 4.397 1.475 3.997-2.016-1.8 1.845-3.838.727-4.543-.504-.778-1.36-1.285-5.417 1.219-6.51 1.442-.631 2.595-.33 3.46.9h-.001zm-.15 1.227c-.343-.518-.563-.95-1.713-.95-1.15 0-1.87 1.411-1.62 3.578.249 2.167 2.6 2.167 3.332.796v-3.424h.001z" fill="#FFF" fill-rule="nonzero"/></g></svg>