<?xml version="1.0" encoding="UTF-8"?>
<svg width="299px" height="197px" viewBox="0 0 299 197" version="1.1" xmlns="http://www.w3.org/2000/svg" xmlns:xlink="http://www.w3.org/1999/xlink">
    <!-- Generator: Sketch 52.6 (67491) - http://www.bohemiancoding.com/sketch -->
    <title>put-spread</title>
    <desc>Created with Sketch.</desc>
    <g id="Page-1" stroke="none" stroke-width="1" fill="none" fill-rule="evenodd">
        <g id="put-spread">
            <polygon id="Path" fill="#F1F2F2" points="299 0 299 197 0 197 0 0"></polygon>
            <path d="M296.573044,2.40070984 L2.42695608,2.40070984 L2.42695608,194.59929 L296.573044,194.59929 L296.573044,2.40070984 Z M299,197 L0,197 L0,0 L299,0 L299,197 Z" id="Path" fill="#C2C2C2" fill-rule="nonzero"></path>
            <path d="M1.954,52.056 L1.954,50.83 L296.507,50.83 L296.507,52.057 L1.954,52.057 L1.954,52.056 Z M1.954,93.503 L1.954,92.276 L296.507,92.276 L296.507,93.503 L1.954,93.503 Z M1.954,134.947 L1.954,133.72 L296.507,133.72 L296.507,134.947 L1.954,134.947 Z M1.954,176.355 L1.954,175.127 L296.507,175.127 L296.507,176.355 L1.954,176.355 Z M36.914,30.739 L38.142,30.739 L38.142,194 L36.915,194 L36.915,30.739 L36.914,30.739 Z M74.201,30.739 L75.428,30.739 L75.428,194 L74.201,194 L74.201,30.739 Z M111.448,30.739 L112.675,30.739 L112.675,194 L111.448,194 L111.448,30.739 Z M148.732,30.739 L149.959,30.739 L149.959,194 L148.732,194 L148.732,30.739 Z M185.978,30.739 L187.206,30.739 L187.206,194 L185.978,194 L185.978,30.739 Z M223.225,30.739 L224.452,30.739 L224.452,194 L223.225,194 L223.225,30.739 Z M1.954,114.206 L1.954,112.979 L296.507,112.979 L296.507,114.206 L1.954,114.206 Z" id="Shape" fill="#DFDEDE" fill-rule="nonzero"></path>
            <polygon id="Path" fill="#2A3052" fill-rule="nonzero" points="247.314 42.14 248.328 42.14 248.328 180.031 247.314 180.031"></polygon>
            <path d="M1.954,70.47 L1.954,69.322 L296.507,69.322 L296.507,70.47 L1.954,70.47 Z M1.954,151.96 L1.954,150.812 L296.507,150.812 L296.507,151.96 L1.954,151.96 Z" id="Shape" fill="#15212D" fill-rule="nonzero"></path>
            <polygon id="Path" fill="#C2C2C2" fill-rule="nonzero" points="1.826 31.1415 1.826 28.6865 296.826 28.6865 296.826 31.1415"></polygon>
            <path d="M20.5563662,113.002521 C20.180525,113.189395 19.7243539,113.036207 19.5374794,112.660366 C19.3506049,112.284525 19.5037926,111.828354 19.8796338,111.641479 L28.9547347,107.129188 C29.3305758,106.942313 29.786747,107.095501 29.9736215,107.471342 C30.160496,107.847184 30.0073082,108.303355 29.6314671,108.490229 L20.5563662,113.002521 Z M38.706568,103.977938 C38.3307268,104.164812 37.8745556,104.011625 37.6876811,103.635783 C37.5008066,103.259942 37.6539944,102.803771 38.0298356,102.616897 L47.1049364,98.1046052 C47.4807776,97.9177307 47.9369488,98.0709185 48.1238233,98.4467596 C48.3106978,98.8226008 48.15751,99.2787719 47.7816688,99.4656464 L38.706568,103.977938 Z M56.8567697,94.953355 C56.4809286,95.1402295 56.0247574,94.9870418 55.8378829,94.6112006 C55.6510084,94.2353594 55.8041962,93.7791883 56.1800373,93.5923138 L65.2551382,89.0800224 C65.6309794,88.8931479 66.0871505,89.0463357 66.274025,89.4221768 C66.4608995,89.798018 66.3077118,90.2541892 65.9318706,90.4410636 L56.8567697,94.953355 Z M75.0069715,85.9287722 C74.6311303,86.1156467 74.1749592,85.962459 73.9880847,85.5866178 C73.8012102,85.2107767 73.9543979,84.7546055 74.3302391,84.567731 L83.40534,80.0554396 C83.7811811,79.8685651 84.2373523,80.0217529 84.4242268,80.397594 C84.6111013,80.7734352 84.4579135,81.2296064 84.0820724,81.4164808 L75.0069715,85.9287722 Z M93.1423791,79.1928734 C92.7248494,79.1498899 92.4212197,78.7765702 92.4642032,78.3590404 C92.5071867,77.9415107 92.8805064,77.637881 93.2980362,77.6808645 L103.379754,78.7187487 C103.797283,78.7617322 104.100913,79.1350519 104.05793,79.5525816 C104.014946,79.9701114 103.641626,80.2737411 103.224097,80.2307576 L93.1423791,79.1928734 Z M113.305814,81.2686417 C112.888284,81.2256582 112.584655,80.8523385 112.627638,80.4348088 C112.670622,80.0172791 113.043941,79.7136493 113.461471,79.7566328 L123.543188,80.794517 C123.960718,80.8375005 124.264348,81.2108202 124.221364,81.62835 C124.178381,82.0458797 123.805061,82.3495094 123.387531,82.3065259 L113.305814,81.2686417 Z M133.469249,83.3444101 C133.051719,83.3014266 132.748089,82.9281068 132.791073,82.5105771 C132.834056,82.0930474 133.207376,81.7894177 133.624906,81.8324012 L143.706623,82.8702853 C144.124153,82.9132688 144.427783,83.2865886 144.384799,83.7041183 C144.341816,84.121648 143.968496,84.4252777 143.550966,84.3822942 L133.469249,83.3444101 Z M153.632684,85.4201784 C153.215154,85.3771949 152.911524,85.0038752 152.954508,84.5863454 C152.997491,84.1688157 153.370811,83.865186 153.788341,83.9081695 L163.870058,84.9460537 C164.287588,84.9890372 164.591218,85.3623569 164.548234,85.7798866 C164.505251,86.1974164 164.131931,86.5010461 163.714401,86.4580626 L153.632684,85.4201784 Z M183.184949,83.9621311 C183.570991,83.7973582 184.017515,83.9767323 184.182287,84.3627745 C184.34706,84.7488166 184.167686,85.1953404 183.781644,85.3601134 L177.80963,87.9091263 L173.796118,87.4959467 C173.378589,87.4529632 173.074959,87.0796435 173.117943,86.6621138 C173.160926,86.2445841 173.534246,85.9409543 173.951776,85.9839378 L177.57437,86.3568737 L183.184949,83.9621311 Z M193.103059,81.3814882 C192.717017,81.5462612 192.270493,81.3668871 192.10572,80.9808449 C191.940947,80.5948028 192.120321,80.1482789 192.506363,79.983506 L201.827778,76.0048808 C202.21382,75.8401079 202.660344,76.019482 202.825117,76.4055241 C202.98989,76.7915663 202.810516,77.2380901 202.424474,77.4028631 L193.103059,81.3814882 Z M211.745888,73.4242379 C211.359846,73.5890109 210.913322,73.4096367 210.748549,73.0235946 C210.583776,72.6375525 210.76315,72.1910286 211.149193,72.0262557 L220.470607,68.0476305 C220.856649,67.8828576 221.303173,68.0622317 221.467946,68.4482738 C221.632719,68.834316 221.453345,69.2808398 221.067303,69.4456128 L211.745888,73.4242379 Z M230.388718,65.4669876 C230.002675,65.6317606 229.556152,65.4523864 229.391379,65.0663443 C229.226606,64.6803022 229.40598,64.2337783 229.792022,64.0690054 L239.113437,60.0903802 C239.499479,59.9256073 239.946003,60.1049814 240.110776,60.4910235 C240.275548,60.8770657 240.096174,61.3235895 239.710132,61.4883625 L230.388718,65.4669876 Z" id="Path" fill="#6E7287" fill-rule="nonzero"></path>
            <path d="M19.7188266,113.141175 C19.3111441,113.241042 18.8996932,112.991509 18.7998254,112.583827 C18.6999576,112.176144 18.9494908,111.764693 19.3571734,111.664825 L29.2011202,109.253407 C29.6088028,109.153539 30.0202537,109.403072 30.1201215,109.810755 C30.2199893,110.218437 29.9704561,110.629888 29.5627735,110.729756 L19.7188266,113.141175 Z M39.4067204,108.318338 C38.9990379,108.418205 38.587587,108.168672 38.4877192,107.76099 C38.3878514,107.353307 38.6373846,106.941856 39.0450671,106.841988 L48.889014,104.43057 C49.2966966,104.330702 49.7081475,104.580235 49.8080153,104.987918 C49.9078831,105.3956 49.6583499,105.807051 49.2506673,105.906919 L39.4067204,108.318338 Z M59.0946142,103.495501 C58.6869316,103.595368 58.2754808,103.345835 58.175613,102.938153 C58.0757452,102.53047 58.3252783,102.119019 58.7329609,102.019151 L68.5769078,99.6077328 C68.9845904,99.507865 69.3960412,99.7573982 69.495909,100.165081 C69.5957768,100.572763 69.3462437,100.984214 68.9385611,101.084082 L59.0946142,103.495501 Z M78.782508,98.6726635 C78.3748254,98.7725313 77.9633745,98.5229981 77.8635068,98.1153155 C77.763639,97.707633 78.0131721,97.2961821 78.4208547,97.1963143 L88.2648016,94.7848958 C88.6724842,94.685028 89.083935,94.9345612 89.1838028,95.3422437 C89.2836706,95.7499263 89.0341374,96.1613772 88.6264549,96.261245 L78.782508,98.6726635 Z M98.1554965,98.3784132 C97.7463085,98.2849047 97.4903997,97.8773887 97.5839082,97.4682007 C97.6774168,97.0590127 98.0849328,96.8031039 98.4941208,96.8966124 L108.374418,99.1544791 C108.783606,99.2479876 109.039515,99.6555036 108.946006,100.064692 C108.852497,100.47388 108.444981,100.729788 108.035793,100.63628 L98.1554965,98.3784132 Z M117.91609,102.894146 C117.506902,102.800638 117.250994,102.393122 117.344502,101.983934 C117.438011,101.574746 117.845527,101.318837 118.254715,101.412346 L128.135012,103.670212 C128.5442,103.763721 128.800108,104.171237 128.7066,104.580425 C128.613091,104.989613 128.205575,105.245522 127.796387,105.152013 L117.91609,102.894146 Z M137.676684,107.40988 C137.267496,107.316371 137.011588,106.908855 137.105096,106.499667 C137.198605,106.090479 137.606121,105.83457 138.015309,105.928079 L147.895606,108.185946 C148.304794,108.279454 148.560702,108.68697 148.467194,109.096158 C148.373685,109.505346 147.966169,109.761255 147.556981,109.667746 L137.676684,107.40988 Z M157.437278,111.925613 C157.02809,111.832104 156.772181,111.424588 156.86569,111.0154 C156.959198,110.606212 157.366715,110.350304 157.775903,110.443812 L167.656199,112.701679 C168.065387,112.795187 168.321296,113.202703 168.227788,113.611891 C168.134279,114.021079 167.726763,114.276988 167.317575,114.18348 L157.437278,111.925613 Z M187.172799,116.809591 C187.589282,116.757431 187.969192,117.052773 188.021352,117.469256 C188.073512,117.885739 187.77817,118.265649 187.361687,118.317809 L186.100401,118.475771 L177.197872,116.441346 C176.788684,116.347838 176.532775,115.940322 176.626284,115.531134 C176.719792,115.121946 177.127308,114.866037 177.536496,114.959545 L186.177599,116.934229 L187.172799,116.809591 Z M197.418127,117.058347 C197.001644,117.110507 196.621734,116.815165 196.569574,116.398683 C196.517414,115.9822 196.812756,115.60229 197.229239,115.55013 L207.285679,114.290668 C207.702162,114.238508 208.082072,114.53385 208.134232,114.950333 C208.186392,115.366816 207.89105,115.746726 207.474567,115.798886 L197.418127,117.058347 Z M217.531007,114.539425 C217.114524,114.591585 216.734614,114.296243 216.682454,113.87976 C216.630294,113.463277 216.925636,113.083367 217.342119,113.031207 L227.398559,111.771746 C227.815042,111.719586 228.194952,112.014928 228.247112,112.431411 C228.299272,112.847894 228.00393,113.227804 227.587447,113.279964 L217.531007,114.539425 Z M237.643887,112.020503 C237.227405,112.072663 236.847494,111.777321 236.795334,111.360838 C236.743174,110.944355 237.038516,110.564445 237.454999,110.512285 L247.511439,109.252824 C247.927922,109.200664 248.307832,109.496006 248.359992,109.912489 C248.412152,110.328971 248.11681,110.708882 247.700327,110.761042 L237.643887,112.020503 Z M20.1066838,113.198812 C19.7135611,113.051729 19.5141061,112.613806 19.6611885,112.220684 C19.8082709,111.827561 20.2461936,111.628106 20.6393162,111.775188 L30.1316979,115.326656 C30.5248205,115.473738 30.7242756,115.911661 30.5771932,116.304784 C30.4301108,116.697906 29.9921881,116.897361 29.5990654,116.750279 L20.1066838,113.198812 Z M39.0914471,120.301746 C38.6983244,120.154664 38.4988694,119.716741 38.6459518,119.323618 C38.7930342,118.930496 39.2309569,118.731041 39.6240795,118.878123 L49.1164612,122.42959 C49.5095839,122.576673 49.7090389,123.014596 49.5619565,123.407718 C49.4148741,123.800841 48.9769514,124.000296 48.5838287,123.853214 L39.0914471,120.301746 Z M58.0762104,127.404681 C57.6830877,127.257598 57.4836327,126.819676 57.6307151,126.426553 C57.7777975,126.03343 58.2157202,125.833975 58.6088428,125.981058 L68.1012245,129.532525 C68.4943472,129.679608 68.6938022,130.11753 68.5467198,130.510653 C68.3996374,130.903776 67.9617147,131.103231 67.568592,130.956148 L58.0762104,127.404681 Z M77.0609737,134.507616 C76.667851,134.360533 76.468396,133.92261 76.6154784,133.529488 C76.7625608,133.136365 77.2004835,132.93691 77.5936062,133.083992 L87.0859878,136.63546 C87.4791105,136.782542 87.6785655,137.220465 87.5314831,137.613588 C87.3844007,138.00671 86.946478,138.206165 86.5533553,138.059083 L77.0609737,134.507616 Z M101.331316,141.965188 L101.01777,141.918469 L101.179525,141.908397 L101.331316,141.965188 Z M106.068276,141.604001 C106.487202,141.577916 106.847953,141.896377 106.874037,142.315302 C106.900121,142.734227 106.581661,143.094978 106.162736,143.121063 L100.950475,143.445603 L96.045737,141.61055 C95.6526143,141.463468 95.4531593,141.025545 95.6002417,140.632422 C95.7473241,140.2393 96.1852468,140.039845 96.5783695,140.186927 L101.179525,141.908397 L106.068276,141.604001 Z M116.278147,142.491229 C115.859222,142.517314 115.49847,142.198853 115.472386,141.779928 C115.446302,141.361003 115.764762,141.000251 116.183687,140.974167 L126.299098,140.344334 C126.718023,140.31825 127.078775,140.63671 127.104859,141.055635 C127.130943,141.47456 126.812483,141.835312 126.393558,141.861396 L116.278147,142.491229 Z M136.508969,141.231563 C136.090044,141.257647 135.729292,140.939186 135.703208,140.520261 C135.677124,140.101336 135.995584,139.740585 136.414509,139.7145 L146.52992,139.084667 C146.948845,139.058583 147.309597,139.377043 147.335681,139.795968 C147.361765,140.214894 147.043305,140.575645 146.62438,140.601729 L136.508969,141.231563 Z M156.739791,139.971896 C156.320866,139.99798 155.960114,139.67952 155.93403,139.260595 C155.907946,138.841669 156.226406,138.480918 156.645331,138.454834 L166.760742,137.825 C167.179667,137.798916 167.540419,138.117377 167.566503,138.536302 C167.592587,138.955227 167.274127,139.315978 166.855202,139.342063 L156.739791,139.971896 Z M176.970613,138.712229 C176.551688,138.738313 176.190936,138.419853 176.164852,138.000928 C176.138768,137.582003 176.457228,137.221251 176.876153,137.195167 L185.674365,136.647349 L187.219377,137.301094 C187.605933,137.464658 187.786703,137.910618 187.623139,138.297174 C187.459575,138.68373 187.013614,138.8645 186.627058,138.700936 L185.411635,138.186651 L176.970613,138.712229 Z M195.960876,142.650376 C195.57432,142.486812 195.39355,142.040852 195.557114,141.654296 C195.720678,141.26774 196.166639,141.08697 196.553194,141.250534 L205.887012,145.199975 C206.273568,145.363539 206.454338,145.809499 206.290774,146.196055 C206.12721,146.582611 205.681249,146.763381 205.294693,146.599817 L195.960876,142.650376 Z M214.628511,150.549258 C214.241955,150.385693 214.061185,149.939733 214.224749,149.553177 C214.388313,149.166621 214.834274,148.985851 215.220829,149.149415 L224.554647,153.098856 C224.941203,153.26242 225.121973,153.70838 224.958409,154.094936 C224.794845,154.481492 224.348884,154.662262 223.962328,154.498698 L214.628511,150.549258 Z M233.296146,158.448139 C232.90959,158.284574 232.72882,157.838614 232.892384,157.452058 C233.055948,157.065502 233.501909,156.884732 233.888465,157.048296 L243.222282,160.997737 C243.608838,161.161301 243.789608,161.607261 243.626044,161.993817 C243.46248,162.380373 243.016519,162.561143 242.629963,162.397579 L233.296146,158.448139 Z" id="Shape" fill="#6E7287" fill-rule="nonzero"></path>
            <polygon id="Path" fill="#2A3052" points="259.224 109.619 259.224 108.099 294.19 108.099 294.19 109.619"></polygon>
            <ellipse id="Oval" fill="#FFFFFF" opacity="0.6" cx="247.454" cy="56.883" rx="8.247" ry="8.633"></ellipse>
            <ellipse id="Oval" fill="#FFFFFF" opacity="0.6" cx="247.454" cy="109.852" rx="8.247" ry="8.633"></ellipse>
            <ellipse id="Oval" fill="#FFFFFF" opacity="0.6" cx="248.467" cy="163.839" rx="8.247" ry="8.633"></ellipse>
            <path d="M247.454,66.7435 C242.2085,66.7435 237.9795,62.3165617 237.9795,56.883 C237.9795,51.4494383 242.2085,47.0225 247.454,47.0225 C252.6995,47.0225 256.9285,51.4494383 256.9285,56.883 C256.9285,62.3165617 252.6995,66.7435 247.454,66.7435 Z M247.454,64.2885 C251.317885,64.2885 254.4735,60.9851868 254.4735,56.883 C254.4735,52.7808132 251.317885,49.4775 247.454,49.4775 C243.590115,49.4775 240.4345,52.7808132 240.4345,56.883 C240.4345,60.9851868 243.590115,64.2885 247.454,64.2885 Z" id="Oval" fill="#E88024" fill-rule="nonzero"></path>
            <path d="M247.454,119.7125 C242.2085,119.7125 237.9795,115.285562 237.9795,109.852 C237.9795,104.418438 242.2085,99.9915 247.454,99.9915 C252.6995,99.9915 256.9285,104.418438 256.9285,109.852 C256.9285,115.285562 252.6995,119.7125 247.454,119.7125 Z M247.454,117.2575 C251.317885,117.2575 254.4735,113.954187 254.4735,109.852 C254.4735,105.749813 251.317885,102.4465 247.454,102.4465 C243.590115,102.4465 240.4345,105.749813 240.4345,109.852 C240.4345,113.954187 243.590115,117.2575 247.454,117.2575 Z" id="Oval" fill="#E88024" fill-rule="nonzero"></path>
            <path d="M248.467,173.6995 C243.2215,173.6995 238.9925,169.272562 238.9925,163.839 C238.9925,158.405438 243.2215,153.9785 248.467,153.9785 C253.7125,153.9785 257.9415,158.405438 257.9415,163.839 C257.9415,169.272562 253.7125,173.6995 248.467,173.6995 Z M248.467,171.2445 C252.330885,171.2445 255.4865,167.941187 255.4865,163.839 C255.4865,159.736813 252.330885,156.4335 248.467,156.4335 C244.603115,156.4335 241.4475,159.736813 241.4475,163.839 C241.4475,167.941187 244.603115,171.2445 248.467,171.2445 Z" id="Oval" fill="#E88024" fill-rule="nonzero"></path>
            <ellipse id="Oval" fill="#FFFFFF" opacity="0.916" cx="20.467" cy="109.87" rx="8.247" ry="8.633"></ellipse>
            <path d="M20.467,119.7305 C15.2215003,119.7305 10.9925,115.303562 10.9925,109.87 C10.9925,104.436438 15.2215003,100.0095 20.467,100.0095 C25.7124997,100.0095 29.9415,104.436438 29.9415,109.87 C29.9415,115.303562 25.7124997,119.7305 20.467,119.7305 Z M20.467,117.2755 C24.330885,117.2755 27.4865,113.972187 27.4865,109.87 C27.4865,105.767813 24.330885,102.4645 20.467,102.4645 C16.603115,102.4645 13.4475,105.767813 13.4475,109.87 C13.4475,113.972187 16.603115,117.2755 20.467,117.2755 Z" id="Oval" fill="#E88024" fill-rule="nonzero"></path>
            <path d="M277.408,121.261 L272.234,121.261 L272.364,120.471 L275.457,117.365 C276.007,116.81 276.39,116.368 276.603,116.038 C276.816,115.708 276.951,115.371 277.01,115.027 C277.08,114.589 277.027,114.228 276.852,113.943 C276.676,113.658 276.404,113.515 276.037,113.515 C275.517,113.515 275.101,113.668 274.787,113.975 C274.472,114.282 274.272,114.705 274.186,115.244 L273.108,115.244 L273.096,115.209 C273.201,114.447 273.527,113.823 274.074,113.336 C274.621,112.85 275.322,112.607 276.178,112.607 C276.865,112.607 277.393,112.833 277.76,113.284 C278.127,113.734 278.256,114.302 278.147,114.986 C278.059156,115.493188 277.855548,115.973291 277.552,116.389 C277.233,116.84 276.795,117.339 276.236,117.886 L273.776,120.324 L273.787,120.359 L277.555,120.359 L277.408,121.261 Z M268.88,57.769 C268.934,57.439 268.875,57.163 268.705,56.939 C268.535,56.715 268.226,56.514 267.779,56.335 C267.142,56.116 266.679,55.825 266.393,55.459 C266.107,55.094 266.012,54.607 266.108,53.999 C266.205,53.386 266.438,52.899 266.809,52.535 C267.18,52.171 267.649,51.954 268.214,51.882 L268.402,50.695 L269.229,50.695 L269.036,51.893 C269.562,51.986 269.947,52.248 270.191,52.677 C270.434,53.107 270.501,53.674 270.389,54.38 L269.358,54.38 C269.437,53.875 269.401,53.477 269.251,53.185 C269.101,52.893 268.842,52.747 268.477,52.747 C268.115,52.747 267.818,52.859 267.586,53.083 C267.353,53.307 267.208,53.606 267.15,53.983 C267.093,54.34 267.146,54.624 267.309,54.833 C267.472,55.043 267.795,55.245 268.279,55.438 C268.923,55.674 269.381,55.968 269.653,56.321 C269.926,56.674 270.013,57.153 269.917,57.758 C269.813,58.396 269.563,58.892 269.167,59.246 C268.772,59.601 268.266,59.81 267.65,59.874 L267.489,60.906 L266.662,60.906 L266.822,59.874 C266.282,59.803 265.858,59.573 265.55,59.184 C265.242,58.796 265.149,58.229 265.27,57.484 L266.307,57.484 C266.214,58.057 266.27,58.456 266.477,58.679 C266.682,58.903 266.971,59.015 267.344,59.015 C267.748,59.015 268.09,58.903 268.367,58.679 C268.645,58.456 268.816,58.152 268.88,57.769 Z M275.9,56.808 C275.685,57.871 275.326,58.653 274.823,59.152 C274.32,59.652 273.701,59.902 272.967,59.902 C272.297,59.902 271.796,59.63 271.461,59.088 C271.126,58.545 271.057,57.785 271.254,56.808 L271.624,54.955 C271.836,53.895 272.196,53.113 272.704,52.61 C273.193994,52.1141745 273.866044,51.8412331 274.563,51.855 C275.236,51.855 275.737,52.128 276.066,52.672 C276.396,53.216 276.464,53.977 276.271,54.955 L275.9,56.808 Z M275.277,54.729 C275.42,54.009 275.416,53.489 275.264,53.169 C275.111,52.849 274.822,52.688 274.396,52.688 C274.006,52.688 273.659,52.862 273.356,53.212 C273.054,53.561 272.836,54.067 272.704,54.729 L272.248,57.022 C272.104,57.742 272.11,58.264 272.264,58.588 C272.418,58.912 272.708,59.074 273.134,59.074 C273.524,59.074 273.869,58.899 274.168,58.548 C274.467,58.197 274.684,57.688 274.82,57.022 L275.277,54.729 Z" id="Shape" fill="#2A3052" fill-rule="nonzero"></path>
            <path d="M22.482,17.957 L22.482,22 L20.702,22 L20.702,11.336 L24.87,11.336 C26.046,11.336 26.968,11.64 27.635,12.248 C28.301,12.856 28.635,13.655 28.635,14.646 C28.635,15.647 28.301,16.449 27.635,17.052 C26.968,17.656 26.046,17.957 24.87,17.957 L22.482,17.957 Z M22.482,16.529 L24.87,16.529 C25.529,16.529 26.025,16.353 26.357,16.001 C26.689,15.65 26.855,15.203 26.855,14.661 C26.855,14.119 26.689,13.667 26.357,13.306 C26.025,12.945 25.529,12.764 24.87,12.764 L22.482,12.764 L22.482,16.529 Z M35.102,20.843 C34.852,21.263 34.538,21.586 34.157,21.813 C33.776,22.04 33.337,22.153 32.838,22.153 C31.988,22.153 31.325,21.883 30.846,21.341 C30.368,20.799 30.129,19.957 30.129,18.814 L30.129,14.075 L31.9,14.075 L31.9,18.829 C31.9,19.522 32.012,20.008 32.237,20.286 C32.462,20.564 32.801,20.704 33.255,20.704 C33.685,20.704 34.045,20.627 34.335,20.473 C34.625,20.319 34.855,20.096 35.02,19.803 L35.02,14.075 L36.8,14.075 L36.8,22 L35.247,22 L35.101,20.843 L35.102,20.843 Z M40.873,12.149 L40.873,14.075 L42.294,14.075 L42.294,15.394 L40.874,15.394 L40.874,19.774 C40.874,20.101 40.944,20.334 41.086,20.473 C41.227,20.613 41.416,20.682 41.65,20.682 C41.8372573,20.6802054 42.0229906,20.6481242 42.2,20.587 L42.39,21.89 C42.2190927,21.9800373 42.0362687,22.0453557 41.847,22.084 C41.637,22.131 41.42,22.154 41.195,22.154 C40.541,22.154 40.028,21.962 39.657,21.579 C39.287,21.196 39.101,20.594 39.101,19.773 L39.101,15.393 L37.892,15.393 L37.892,14.075 L39.101,14.075 L39.101,12.15 L40.873,12.15 L40.873,12.149 Z M53.617,19.261 C53.617,18.816 53.452,18.453 53.123,18.169 C52.793,17.886 52.211,17.632 51.376,17.408 C50.185,17.095 49.268,16.681 48.626,16.166 C47.984,15.651 47.663,14.976 47.663,14.141 C47.663,13.281 48.018,12.574 48.728,12.017 C49.438,11.46 50.356,11.182 51.478,11.182 C52.65,11.182 53.592,11.497 54.302,12.127 C55.012,12.757 55.356,13.514 55.332,14.397 L55.317,14.441 L53.61,14.441 C53.61,13.895 53.424,13.451 53.053,13.112 C52.683,12.772 52.153,12.603 51.464,12.603 C50.814,12.603 50.315,12.745 49.966,13.028 C49.6269652,13.2900899 49.4324992,13.697578 49.442,14.126 C49.442,14.532 49.632,14.869 50.01,15.137 C50.389,15.406 51.015,15.66 51.889,15.899 C53.036,16.207 53.908,16.631 54.504,17.173 C55.099,17.715 55.397,18.406 55.397,19.246 C55.397,20.135 55.042,20.842 54.331,21.366 C53.621,21.891 52.687,22.154 51.53,22.154 C50.417,22.154 49.44,21.86 48.6,21.271 C47.76,20.683 47.353,19.876 47.377,18.851 L47.392,18.807 L49.106,18.807 C49.106,19.457 49.33,19.941 49.779,20.26 C50.229,20.58 50.812,20.74 51.529,20.74 C52.189,20.74 52.702,20.607 53.068,20.341 C53.434,20.075 53.618,19.715 53.618,19.261 L53.617,19.261 Z M63.988,18.301 C63.988,19.454 63.718,20.384 63.175,21.091 C62.633,21.8 61.879,22.154 60.912,22.154 C60.463,22.154 60.065,22.074 59.718,21.912 C59.3687497,21.7486761 59.0628372,21.5054533 58.825,21.202 L58.825,25.047 L57.045,25.047 L57.045,14.075 L58.546,14.075 L58.722,15.071 C58.976,14.701 59.282,14.417 59.642,14.221 C60,14.026 60.417,13.929 60.89,13.929 C61.867,13.929 62.627,14.316 63.172,15.089 C63.716,15.864 63.988,16.883 63.988,18.147 L63.988,18.301 Z M62.216,18.147 C62.216,17.337 62.063,16.674 61.758,16.159 C61.453,15.644 60.998,15.386 60.392,15.386 C60.022,15.386 59.706,15.466 59.447,15.624 C59.189,15.783 58.981,16.004 58.825,16.287 L58.825,19.869 C58.981,20.147 59.189,20.361 59.447,20.509 C59.707,20.659 60.026,20.733 60.407,20.733 C61.012,20.733 61.465,20.51 61.765,20.063 C62.065,19.616 62.215,19.029 62.215,18.301 L62.215,18.147 L62.216,18.147 Z M69.489,15.679 L68.727,15.649 C68.38,15.649 68.091,15.723 67.859,15.869 C67.6231356,16.0202036 67.4362389,16.2366286 67.321,16.492 L67.321,22 L65.541,22 L65.541,14.075 L67.167,14.075 L67.284,15.225 C67.484,14.82 67.742,14.502 68.057,14.273 C68.372,14.043 68.734,13.929 69.145,13.929 C69.252,13.929 69.352,13.937 69.445,13.954 C69.538,13.971 69.623,13.992 69.701,14.017 L69.489,15.679 Z M74.132,22.154 C73.009,22.154 72.115,21.786 71.448,21.052 C70.782,20.317 70.448,19.373 70.448,18.221 L70.448,17.928 C70.448,16.775 70.779,15.82 71.441,15.06 C72.102,14.301 72.931,13.924 73.927,13.929 C74.997,13.929 75.816,14.252 76.385,14.899 C76.953,15.546 77.238,16.414 77.238,17.503 L77.238,18.55 L72.294,18.55 L72.279,18.587 C72.309,19.217 72.493,19.732 72.832,20.132 C73.172,20.532 73.642,20.732 74.242,20.732 C74.721,20.732 75.131,20.674 75.472,20.557 C75.815,20.44 76.144,20.271 76.462,20.052 L77.032,21.216 C76.735,21.48 76.339,21.702 75.846,21.883 C75.353,22.063 74.782,22.153 74.132,22.153 L74.132,22.154 Z M73.927,15.357 C73.487,15.357 73.127,15.531 72.843,15.881 C72.56,16.23 72.384,16.673 72.316,17.21 L72.331,17.247 L75.473,17.247 L75.473,17.063 C75.473,16.561 75.345,16.15 75.088,15.833 C74.832,15.516 74.445,15.357 73.928,15.357 L73.927,15.357 Z M83.442,22 C83.3803316,21.8072057 83.3276087,21.6116636 83.284,21.414 C83.243,21.224 83.214,21.034 83.2,20.843 C82.9499346,21.2199901 82.6214578,21.5385751 82.237,21.777 C81.8370392,22.0290261 81.3727053,22.1599564 80.9,22.154 C80.075,22.154 79.441,21.941 79,21.517 C78.557,21.092 78.337,20.508 78.337,19.767 C78.337,19 78.639,18.403 79.245,17.975 C79.85,17.548 80.702,17.335 81.801,17.335 L83.185,17.335 L83.185,16.639 C83.185,16.224 83.063,15.899 82.819,15.665 C82.575,15.43 82.226,15.313 81.772,15.313 C81.366,15.313 81.044,15.411 80.805,15.606 C80.5724977,15.7862471 80.4389889,16.0658738 80.445,16.36 L78.732,16.36 L78.725,16.316 C78.691,15.691 78.97,15.137 79.563,14.654 C80.157,14.17 80.929,13.929 81.881,13.929 C82.804,13.929 83.549,14.163 84.115,14.632 C84.682,15.101 84.965,15.774 84.965,16.653 L84.965,20.176 C84.965,20.503 84.987,20.817 85.031,21.117 C85.075,21.417 85.146,21.712 85.243,22 L83.442,22 Z M81.259,20.726 C81.709,20.726 82.112,20.613 82.471,20.389 C82.83,20.164 83.068,19.908 83.185,19.619 L83.185,18.448 L81.772,18.448 C81.254,18.448 80.849,18.576 80.556,18.832 C80.263,19.089 80.116,19.39 80.116,19.737 C80.116,20.04 80.216,20.28 80.413,20.458 C80.611,20.636 80.893,20.726 81.259,20.726 Z M86.503,18.147 C86.503,16.883 86.774,15.864 87.316,15.09 C87.858,14.316 88.62,13.929 89.601,13.929 C90.0009271,13.9221018 90.3966715,14.0112643 90.755,14.189 C91.095,14.362 91.388,14.609 91.637,14.932 L91.637,10.574 L93.417,10.574 L93.417,22 L91.923,22 L91.747,21.019 C91.5144799,21.3704862 91.200602,21.6606946 90.832,21.865 C90.475,22.057 90.06,22.154 89.587,22.154 C88.615,22.154 87.858,21.8 87.316,21.092 C86.774,20.384 86.503,19.454 86.503,18.302 L86.503,18.147 Z M88.283,18.301 C88.283,19.034 88.423,19.617 88.704,20.051 C88.984,20.486 89.43,20.704 90.041,20.704 C90.417,20.704 90.735,20.623 90.996,20.462 C91.2657786,20.2917796 91.4866698,20.0543473 91.637,19.773 L91.637,16.316 C91.4838923,16.0370178 91.2622615,15.801621 90.993,15.632 C90.7099191,15.4628724 90.384648,15.3775668 90.055,15.386 C89.45,15.386 89.003,15.641 88.715,16.152 C88.427,16.662 88.283,17.327 88.283,18.147 L88.283,18.301 Z" id="Shape" fill="#000000" fill-rule="nonzero"></path>
            <path d="M262.207,165.018 L261.643,167.856 L260.705,167.856 L262.119,160.781 L264.671,160.781 C265.325,160.781 265.82,160.979 266.155,161.374 C266.49,161.769 266.596,162.278 266.473,162.9 C266.334,163.583 266.037,164.107 265.582,164.472 C265.126,164.836 264.541,165.018 263.825,165.018 L262.207,165.018 Z M262.357,164.27 L263.976,164.27 C264.377,164.27 264.718,164.139 264.999,163.876 C265.279,163.614 265.458,163.292 265.535,162.909 C265.616,162.495 265.577,162.162 265.416,161.911 C265.256,161.66 264.957,161.534 264.52,161.534 L262.906,161.534 L262.357,164.27 Z M269.481,167.856 C269.481,167.698 269.485,167.567 269.491,167.466 C269.498,167.363 269.509,167.259 269.525,167.152 C269.308,167.382 269.059,167.574 268.779,167.728 C268.499,167.881 268.218,167.958 267.936,167.958 C267.456,167.958 267.103,167.815 266.874,167.528 C266.646,167.242 266.582,166.858 266.682,166.379 C266.786,165.845 267.049,165.444 267.472,165.176 C267.895,164.909 268.437,164.776 269.098,164.776 L269.997,164.776 L270.099,164.256 C270.163,163.928 270.128,163.68 269.992,163.51 C269.856,163.34 269.629,163.254 269.312,163.254 C269.039,163.254 268.793,163.334 268.572,163.494 C268.352,163.655 268.222,163.842 268.179,164.056 L267.289,164.056 L267.28,164.027 C267.345,163.622 267.588,163.267 268.009,162.96 C268.43,162.654 268.932,162.501 269.515,162.501 C270.037,162.501 270.449,162.656 270.752,162.965 C271.055,163.275 271.152,163.708 271.042,164.265 L270.536,166.797 C270.496262,166.978516 270.466881,167.162146 270.448,167.347 C270.431818,167.516615 270.431818,167.687385 270.448,167.857 L269.481,167.857 L269.481,167.856 Z M268.237,167.156 C268.5,167.156 268.767,167.08 269.039,166.928 C269.311,166.776 269.522,166.596 269.671,166.388 L269.865,165.422 L268.937,165.422 C268.617,165.422 268.328,165.521 268.072,165.718 C267.816,165.916 267.664,166.143 267.615,166.398 C267.564,166.648 267.588,166.837 267.688,166.965 C267.788,167.093 267.972,167.157 268.238,167.157 L268.237,167.156 Z M273.467,165.908 L273.491,166.505 L273.52,166.51 L275.473,162.598 L276.518,162.598 L273.262,168.663 C273.062,169.016 272.818,169.323 272.533,169.586 C272.260341,169.843618 271.89808,169.984935 271.523,169.98 C271.342575,169.97125 271.163413,169.945129 270.988,169.902 L271.236,169.149 L271.376,169.159 C271.516,169.169 271.602,169.173 271.634,169.173 C271.803,169.173 271.972,169.076 272.142,168.882 C272.312,168.687 272.449,168.492 272.552,168.299 L272.873,167.749 L272.091,162.599 L273.141,162.599 L273.466,165.908 L273.467,165.908 Z M276.523,165.178 C276.653,164.368 276.95,163.72 277.415,163.233 C277.858206,162.754395 278.48483,162.488025 279.137,162.501 C279.792,162.501 280.282,162.755 280.607,163.261 C280.933,163.769 281.034,164.408 280.911,165.179 L280.896,165.286 C280.764,166.099 280.465,166.748 280,167.232 C279.554894,167.707799 278.928394,167.97178 278.277,167.958 C277.623,167.958 277.133,167.706 276.807,167.2 C276.482,166.695 276.382,166.057 276.508,165.286 L276.523,165.179 L276.523,165.178 Z M277.446,165.286 C277.352,165.866 277.381,166.331 277.531,166.683 C277.681,167.034 277.969,167.21 278.394,167.21 C278.789,167.21 279.126,167.026 279.404,166.658 C279.684,166.291 279.866,165.833 279.954,165.286 L279.968,165.179 C280.059,164.609 280.028,164.145 279.876,163.789 C279.724,163.433 279.439,163.254 279.021,163.254 C278.622,163.254 278.284,163.439 278.007,163.808 C277.73,164.178 277.548,164.634 277.461,165.178 L277.446,165.286 Z M284.696,167.856 L284.779,167.137 C284.590328,167.389694 284.349123,167.598487 284.072,167.749 C283.804747,167.889446 283.506898,167.96159 283.205,167.959 C282.703,167.959 282.331,167.772 282.089,167.399 C281.849,167.027 281.804,166.46 281.956,165.699 L282.573,162.599 L283.511,162.599 L282.889,165.709 C282.769,166.305 282.762,166.699 282.869,166.892 C282.976,167.084 283.192,167.181 283.516,167.181 C283.804,167.181 284.066,167.11 284.301,166.967 C284.542406,166.817858 284.746046,166.614902 284.896,166.374 L285.649,162.598 L286.587,162.598 L285.537,167.856 L284.697,167.856 L284.696,167.856 Z M289.42,161.33 L289.162,162.598 L290.072,162.598 L289.93,163.308 L289.022,163.308 L288.385,166.501 C288.33,166.763 288.338,166.941 288.409,167.033 C288.481,167.125 288.596,167.171 288.754,167.171 C288.829,167.171 288.919,167.164 289.024,167.149 C289.129,167.135 289.213,167.119 289.274,167.103 L289.269,167.759 C289.144556,167.828808 289.009384,167.87747 288.869,167.903 C288.70043,167.939449 288.528465,167.957886 288.356,167.958 C288.016,167.958 287.754,167.838 287.571,167.598 C287.388,167.359 287.347,166.993 287.447,166.501 L288.084,163.308 L287.316,163.308 L287.456,162.598 L288.225,162.598 L288.482,161.33 L289.42,161.33 Z M258.893,180.781 C259.171,180.781 259.438,180.683 259.692,180.485 C259.946,180.287 260.096,180.048 260.142,179.765 L260.982,179.765 L260.992,179.795 C260.927,180.268 260.674,180.675 260.234,181.017 C259.794,181.359 259.307,181.53 258.776,181.53 C258.089,181.53 257.589,181.277 257.274,180.772 C256.96,180.266 256.863,179.642 256.983,178.901 L257.017,178.697 C257.137,177.922 257.424,177.291 257.879,176.804 C258.335,176.316 258.923,176.072 259.646,176.072 C260.203,176.072 260.64,176.255 260.956,176.619 C261.271,176.984 261.381,177.429 261.283,177.958 L261.273,177.982 L260.423,177.982 C260.478,177.645 260.423,177.368 260.258,177.152 C260.093,176.934 259.85,176.826 259.529,176.826 C259.089,176.826 258.737,177.009 258.475,177.375 C258.212,177.741 258.04,178.181 257.96,178.697 L257.925,178.901 C257.838,179.458 257.861,179.911 257.994,180.259 C258.126,180.607 258.426,180.781 258.893,180.781 Z M261.988,178.751 C262.118,177.941 262.415,177.291 262.88,176.804 C263.323206,176.325395 263.94983,176.059025 264.602,176.072 C265.257,176.072 265.747,176.326 266.072,176.833 C266.398,177.34 266.499,177.979 266.376,178.75 L266.362,178.857 C266.229,179.67 265.93,180.319 265.465,180.803 C265.020071,181.279168 264.393548,181.543522 263.742,181.53 C263.088,181.53 262.598,181.277 262.272,180.772 C261.947,180.266 261.847,179.628 261.973,178.857 L261.988,178.75 L261.988,178.751 Z M262.911,178.857 C262.817,179.437 262.846,179.903 262.996,180.254 C263.147,180.606 263.435,180.781 263.859,180.781 C264.254,180.781 264.591,180.597 264.869,180.23 C265.149,179.862 265.331,179.404 265.419,178.857 L265.433,178.75 C265.524,178.18 265.493,177.717 265.341,177.36 C265.189,177.004 264.904,176.826 264.486,176.826 C264.087,176.826 263.75,177.01 263.473,177.38 C263.196,177.749 263.013,178.206 262.926,178.75 L262.911,178.857 Z M268.835,176.797 C269.039,176.563 269.275,176.384 269.545,176.26 C269.813,176.135 270.11,176.072 270.434,176.072 C270.729,176.072 270.977,176.152 271.18,176.311 C271.382,176.469 271.516,176.706 271.58,177.021 C271.788,176.722 272.034,176.49 272.32,176.323 C272.604,176.156 272.919,176.073 273.262,176.073 C273.725,176.073 274.072,176.26 274.302,176.633 C274.532,177.008 274.576,177.558 274.433,178.283 L273.806,181.428 L272.864,181.428 L273.495,178.274 C273.602,177.717 273.599,177.34 273.485,177.144 C273.372,176.948 273.15,176.85 272.82,176.85 C272.554,176.85 272.303,176.967 272.067,177.202 C271.823122,177.446301 271.644345,177.747816 271.547,178.079 L271.547,178.089 L270.881,181.428 L269.938,181.428 L270.57,178.274 C270.674,177.746 270.667,177.376 270.55,177.166 C270.434,176.956 270.214,176.85 269.89,176.85 C269.643,176.85 269.423,176.912 269.229,177.037 C269.026194,177.170706 268.855453,177.347594 268.729,177.555 L267.951,181.428 L267.013,181.428 L268.063,176.17 L268.898,176.17 L268.835,176.797 Z M279.793,179.095 C279.631,179.905 279.358,180.513 278.974,180.92 C278.591,181.326 278.096,181.53 277.49,181.53 C277.208,181.53 276.955,181.476 276.73,181.37 C276.507061,181.265138 276.315142,181.104229 276.173,180.903 L275.663,183.449 L274.725,183.449 L276.178,176.169 L276.985,176.169 L276.951,176.689 C277.145,176.489 277.363,176.336 277.604,176.23 C277.8502,176.123717 278.115847,176.069907 278.384,176.072 C278.951,176.072 279.371,176.352 279.645,176.913 C279.919,177.473 279.975,178.167 279.813,178.993 L279.793,179.095 Z M278.875,178.993 C278.998,178.365 278.979,177.85 278.819,177.45 C278.659,177.05 278.366,176.85 277.942,176.85 C277.725,176.85 277.524,176.913 277.339,177.04 C277.155,177.166 276.988,177.34 276.839,177.56 L276.324,180.13 C276.408,180.334 276.534,180.494 276.703,180.609 C276.871,180.724 277.087,180.781 277.349,180.781 C277.735,180.781 278.055,180.63 278.311,180.327 C278.567,180.024 278.749,179.613 278.855,179.095 L278.875,178.993 Z M281.465,181.428 L280.527,181.428 L282.043,173.847 L282.981,173.847 L281.465,181.427 L281.465,181.428 Z M284.978,181.53 C284.318,181.53 283.818,181.284 283.479,180.793 C283.141,180.303 283.033,179.672 283.156,178.901 L283.19,178.687 C283.313,177.909 283.62,177.279 284.111,176.797 C284.601,176.314 285.132,176.072 285.702,176.072 C286.347,176.072 286.809,176.288 287.087,176.719 C287.367,177.149 287.45,177.719 287.34,178.424 L287.243,179.022 L284.075,179.022 C284.003,179.56 284.053,179.988 284.223,180.305 C284.393,180.623 284.683,180.781 285.095,180.781 C285.625476,180.784294 286.140071,180.60013 286.548,180.261 L286.815,180.883 C286.618,181.068 286.365,181.222 286.057,181.345 C285.712385,181.474776 285.346163,181.537567 284.978,181.53 Z M285.586,176.826 C285.314,176.826 285.051,176.962 284.796,177.234 C284.533609,177.520722 284.345759,177.867574 284.249,178.244 L284.264,178.274 L286.427,178.274 L286.446,178.147 C286.508,177.755 286.47,177.437 286.334,177.193 C286.198,176.948 285.949,176.826 285.586,176.826 Z M290.377,174.901 L290.12,176.17 L291.029,176.17 L290.888,176.88 L289.978,176.88 L289.342,180.072 C289.287,180.334 289.295,180.512 289.367,180.604 C289.437,180.696 289.553,180.742 289.712,180.742 C289.786,180.742 289.876,180.735 289.982,180.721 C290.087,180.706 290.17,180.691 290.232,180.674 L290.227,181.33 C290.102247,181.399912 289.966729,181.448577 289.826,181.474 C289.657466,181.510785 289.485501,181.529557 289.313,181.53 C288.973,181.53 288.711,181.41 288.528,181.17 C288.345,180.93 288.304,180.564 288.404,180.072 L289.041,176.879 L288.273,176.879 L288.414,176.169 L289.182,176.169 L289.439,174.901 L290.377,174.901 Z M291.359,178.751 C291.489,177.941 291.786,177.291 292.251,176.804 C292.694206,176.325395 293.32083,176.059025 293.973,176.072 C294.628,176.072 295.118,176.326 295.443,176.833 C295.769,177.34 295.87,177.979 295.747,178.75 L295.733,178.857 C295.6,179.67 295.301,180.319 294.836,180.803 C294.391071,181.279168 293.764548,181.543522 293.113,181.53 C292.459,181.53 291.969,181.277 291.643,180.772 C291.318,180.266 291.218,179.628 291.344,178.857 L291.359,178.75 L291.359,178.751 Z M292.282,178.857 C292.188,179.437 292.217,179.903 292.367,180.254 C292.518,180.606 292.805,180.781 293.23,180.781 C293.625,180.781 293.962,180.597 294.24,180.23 C294.52,179.862 294.702,179.404 294.79,178.857 L294.804,178.75 C294.895,178.18 294.864,177.717 294.712,177.36 C294.56,177.004 294.275,176.826 293.857,176.826 C293.458,176.826 293.121,177.01 292.844,177.38 C292.567,177.749 292.384,178.206 292.297,178.75 L292.282,178.857 Z M261.372,99.269 L260.749,102.406 L259.712,102.406 L261.275,94.586 L264.095,94.586 C264.818,94.586 265.365,94.804 265.735,95.241 C266.106,95.678 266.224,96.24 266.087,96.927 C265.934,97.683 265.605,98.262 265.102,98.665 C264.599,99.068 263.952,99.269 263.16,99.269 L261.372,99.269 Z M261.538,98.442 L263.327,98.442 C263.771,98.442 264.147,98.297 264.457,98.007 C264.767,97.717 264.965,97.361 265.051,96.938 C265.141,96.48 265.097,96.112 264.919,95.834 C264.742,95.557 264.412,95.418 263.929,95.418 L262.145,95.418 L261.538,98.442 Z M269.412,102.406 C269.412,102.23 269.416,102.086 269.422,101.973 C269.43,101.861 269.442,101.745 269.461,101.627 C269.221067,101.880966 268.942661,102.095592 268.636,102.263 C268.326,102.433 268.016,102.519 267.704,102.519 C267.174,102.519 266.784,102.36 266.531,102.043 C266.278,101.726 266.207,101.303 266.318,100.773 C266.433,100.183 266.724,99.739 267.191,99.443 C267.659,99.148 268.257,99 268.988,99 L269.982,99 L270.094,98.426 C270.166,98.064 270.127,97.789 269.976,97.601 C269.826,97.413 269.576,97.319 269.224,97.319 C268.924,97.319 268.651,97.408 268.408,97.585 C268.164,97.762 268.019,97.969 267.973,98.205 L266.99,98.205 L266.98,98.173 C267.05,97.726 267.32,97.333 267.785,96.994 C268.25,96.656 268.805,96.487 269.45,96.487 C270.026,96.487 270.482,96.657 270.817,97 C271.152,97.342 271.258,97.82 271.137,98.437 L270.577,101.235 C270.531,101.453 270.499,101.655 270.481,101.842 C270.463091,102.029573 270.463091,102.218427 270.481,102.406 L269.412,102.406 Z M268.037,101.632 C268.327,101.632 268.623,101.548 268.923,101.38 C269.224,101.212 269.457,101.013 269.622,100.784 L269.837,99.714 L268.811,99.714 C268.456,99.714 268.137,99.824 267.855,100.042 C267.572,100.261 267.403,100.512 267.35,100.794 C267.292,101.07 267.32,101.279 267.43,101.42 C267.541,101.562 267.744,101.632 268.037,101.632 Z M273.817,100.252 L273.843,100.912 L273.876,100.918 L276.035,96.594 L277.19,96.594 L273.59,103.297 C273.369,103.687 273.1,104.027 272.785,104.317 C272.47,104.607 272.098,104.753 271.668,104.753 C271.469031,104.743313 271.271455,104.714514 271.078,104.667 L271.351,103.834 L271.507,103.845 C271.661,103.856 271.756,103.861 271.792,103.861 C271.978,103.861 272.165,103.754 272.352,103.539 C272.541,103.324 272.692,103.109 272.807,102.895 L273.161,102.288 L272.296,96.594 L273.456,96.594 L273.816,100.252 L273.817,100.252 Z M277.195,99.446 C277.338,98.551 277.667,97.834 278.181,97.296 C278.694,96.756 279.329,96.486 280.085,96.486 C280.808,96.486 281.349,96.767 281.709,97.327 C282.069,97.887 282.181,98.594 282.045,99.447 L282.029,99.564 C281.882,100.464 281.552,101.18 281.038,101.716 C280.524,102.251 279.889,102.519 279.134,102.519 C278.411,102.519 277.869,102.239 277.509,101.681 C277.149,101.122 277.039,100.417 277.179,99.564 L277.195,99.446 Z M278.215,99.564 C278.112,100.205 278.143,100.72 278.309,101.109 C278.476,101.497 278.794,101.691 279.263,101.691 C279.7,101.691 280.072,101.488 280.38,101.081 C280.688,100.675 280.89,100.17 280.987,99.564 L281.003,99.446 C281.103,98.816 281.069,98.304 280.901,97.91 C280.733,97.516 280.418,97.32 279.956,97.32 C279.516,97.32 279.142,97.523 278.836,97.932 C278.53,98.34 278.328,98.845 278.232,99.446 L278.215,99.564 Z M286.229,102.406 L286.32,101.611 C286.091,101.908 285.83,102.134 285.539,102.288 C285.243201,102.442603 284.913745,102.521618 284.58,102.518 C284.025,102.518 283.614,102.313 283.348,101.901 C283.081,101.489 283.032,100.862 283.2,100.021 L283.882,96.594 L284.919,96.594 L284.231,100.032 C284.099,100.691 284.091,101.127 284.21,101.34 C284.328,101.553 284.566,101.66 284.924,101.66 C285.243,101.66 285.532,101.58 285.791,101.423 C286.051,101.265 286.271,101.047 286.449,100.768 L287.282,96.594 L288.318,96.594 L287.158,102.406 L286.229,102.406 Z M291.449,95.192 L291.165,96.594 L292.17,96.594 L292.014,97.378 L291.009,97.378 L290.306,100.908 C290.245,101.198 290.254,101.393 290.333,101.495 C290.411,101.597 290.539,101.648 290.714,101.648 C290.796,101.648 290.896,101.64 291.012,101.624 C291.128,101.608 291.221,101.591 291.289,101.574 L291.283,102.298 C291.145175,102.375206 290.995464,102.42894 290.84,102.457 C290.654058,102.497632 290.464329,102.518415 290.274,102.519 C289.898,102.519 289.608,102.386 289.406,102.121 C289.204,101.856 289.158,101.451 289.269,100.907 L289.973,97.378 L289.124,97.378 L289.28,96.594 L290.129,96.594 L290.413,95.192 L291.45,95.192 L291.449,95.192 Z M32.462,60 L34.025,52.18 L36.431,52.18 C37.144,52.18 37.691,52.359 38.075,52.717 C38.458,53.075 38.58,53.601 38.44,54.296 C38.3703542,54.6536663 38.1988018,54.9835748 37.946,55.246 C37.6859188,55.5147388 37.3653343,55.7173757 37.011,55.837 C37.431,55.937 37.728,56.17 37.906,56.533 C38.083,56.896 38.123,57.316 38.026,57.793 C37.872,58.555 37.548,59.113 37.054,59.468 C36.56,59.823 35.934,60 35.174,60 L32.462,60 Z M34.229,56.332 L33.665,59.172 L35.341,59.172 C35.745,59.172 36.099,59.052 36.401,58.81 C36.704,58.569 36.901,58.233 36.99,57.803 C37.083,57.316 37.057,56.949 36.912,56.703 C36.767,56.455 36.483,56.332 36.061,56.332 L34.229,56.332 Z M34.396,55.504 L35.98,55.504 C36.302,55.504 36.602,55.394 36.88,55.174 C37.157,54.954 37.333,54.654 37.409,54.274 C37.499,53.827 37.445,53.504 37.25,53.308 C37.055,53.111 36.727,53.012 36.265,53.012 L34.895,53.012 L34.395,55.504 L34.396,55.504 Z M42.206,60 C42.206,59.825 42.209,59.68 42.216,59.568 C42.223,59.455 42.236,59.339 42.253,59.221 C42.0134443,59.4752381 41.7353774,59.6902001 41.429,59.858 C41.119,60.028 40.809,60.113 40.497,60.113 C39.967,60.113 39.576,59.954 39.323,59.637 C39.071,59.321 39,58.897 39.111,58.367 C39.226,57.777 39.517,57.333 39.984,57.037 C40.451,56.742 41.05,56.595 41.781,56.595 L42.774,56.595 L42.887,56.02 C42.959,55.658 42.919,55.384 42.769,55.196 C42.619,55.008 42.368,54.914 42.017,54.914 C41.717,54.914 41.444,55.002 41.201,55.179 C40.957,55.357 40.812,55.563 40.766,55.799 L39.783,55.799 L39.772,55.768 C39.844,55.32 40.112,54.927 40.578,54.588 C41.043,54.25 41.598,54.081 42.243,54.081 C42.819,54.081 43.275,54.252 43.61,54.594 C43.944,54.936 44.05,55.414 43.93,56.031 L43.37,58.829 C43.324,59.048 43.292,59.249 43.274,59.436 C43.2560909,59.6235735 43.2560909,59.8124265 43.274,60 L42.205,60 L42.206,60 Z M40.83,59.227 C41.12,59.227 41.416,59.142 41.716,58.974 C42.017,58.806 42.25,58.607 42.415,58.378 L42.629,57.309 L41.604,57.309 C41.249,57.309 40.93,57.419 40.647,57.637 C40.365,57.855 40.197,58.106 40.143,58.389 C40.085,58.664 40.113,58.873 40.223,59.014 C40.334,59.156 40.536,59.227 40.83,59.227 Z M48.194,55.123 L47.624,55.091 C47.388,55.091 47.171,55.158 46.972,55.292 C46.7599603,55.4408603 46.5831413,55.6344054 46.454,55.859 L45.626,60 L44.59,60 L45.75,54.188 L46.68,54.188 L46.615,54.968 C46.815,54.684 47.042,54.466 47.295,54.312 C47.6629941,54.0833797 48.1104617,54.0209086 48.527,54.14 L48.194,55.123 Z M51.841,55.123 L51.271,55.091 C51.035,55.091 50.818,55.158 50.619,55.292 C50.4069603,55.4408603 50.2301413,55.6344054 50.101,55.859 L49.273,60 L48.237,60 L49.397,54.188 L50.327,54.188 L50.262,54.968 C50.462,54.684 50.689,54.466 50.942,54.312 C51.3099941,54.0833797 51.7574617,54.0209086 52.174,54.14 L51.841,55.123 Z M53,60 L51.963,60 L53.123,54.188 L54.16,54.188 L53.001,60 L53,60 Z M54.46,52.7 L53.424,52.7 L53.639,51.621 L54.676,51.621 L54.461,52.701 L54.46,52.7 Z M56.883,60.113 C56.153,60.113 55.6,59.842 55.226,59.299 C54.852,58.757 54.733,58.059 54.869,57.207 L54.907,56.971 C55.043,56.111 55.382,55.415 55.925,54.881 C56.467,54.348 57.053,54.081 57.684,54.081 C58.396,54.081 58.906,54.319 59.214,54.795 C59.522,55.272 59.615,55.9 59.494,56.681 L59.386,57.341 L55.884,57.341 C55.805,57.936 55.86,58.408 56.048,58.759 C56.236,59.11 56.558,59.286 57.012,59.286 C57.327,59.286 57.622,59.233 57.898,59.127 C58.174,59.022 58.414,58.883 58.618,58.711 L58.914,59.398 C58.6687289,59.618521 58.3845567,59.7914659 58.076,59.908 C57.736,60.045 57.338,60.113 56.883,60.113 Z M57.555,54.913 C57.254,54.913 56.963,55.064 56.682,55.365 C56.401,55.665 56.199,56.038 56.078,56.482 L56.094,56.514 L58.484,56.514 L58.505,56.374 C58.573,55.941 58.532,55.589 58.382,55.319 C58.232,55.049 57.956,54.914 57.555,54.914 L57.555,54.913 Z M63.635,55.123 L63.065,55.091 C62.829,55.091 62.612,55.158 62.413,55.292 C62.2009603,55.4408603 62.0241413,55.6344054 61.895,55.859 L61.068,60 L60.032,60 L61.192,54.188 L62.122,54.188 L62.057,54.968 C62.257,54.684 62.484,54.466 62.737,54.312 C63.1049941,54.0833797 63.5524617,54.0209086 63.969,54.14 L63.636,55.123 L63.635,55.123 Z M66.987,60 C66.987,59.825 66.991,59.68 66.998,59.568 C67.005,59.455 67.018,59.339 67.036,59.221 C66.7961414,59.4753218 66.5177317,59.6902878 66.211,59.858 C65.901,60.028 65.591,60.113 65.279,60.113 C64.749,60.113 64.359,59.954 64.106,59.637 C63.853,59.321 63.783,58.897 63.894,58.367 C64.008,57.777 64.299,57.333 64.766,57.037 C65.234,56.742 65.833,56.595 66.563,56.595 L67.557,56.595 L67.669,56.02 C67.741,55.658 67.702,55.384 67.551,55.196 C67.401,55.008 67.151,54.914 66.799,54.914 C66.499,54.914 66.226,55.002 65.983,55.179 C65.739,55.357 65.594,55.563 65.548,55.799 L64.565,55.799 L64.555,55.768 C64.625,55.32 64.895,54.927 65.36,54.588 C65.825,54.25 66.38,54.081 67.025,54.081 C67.601,54.081 68.057,54.252 68.392,54.594 C68.727,54.936 68.833,55.414 68.712,56.031 L68.152,58.829 C68.106,59.048 68.074,59.249 68.056,59.436 C68.0380909,59.6235735 68.0380909,59.8124265 68.056,60 L66.987,60 Z M65.612,59.227 C65.902,59.227 66.198,59.142 66.499,58.974 C66.799,58.806 67.032,58.607 67.197,58.378 L67.412,57.309 L66.386,57.309 C66.031,57.309 65.713,57.419 65.43,57.637 C65.147,57.855 64.979,58.106 64.925,58.389 C64.868,58.664 64.895,58.873 65.005,59.014 C65.116,59.156 65.319,59.227 65.612,59.227 Z M75.436,58.458 C75.476,58.218 75.427,58.025 75.291,57.878 C75.155,57.732 74.872,57.603 74.442,57.492 C73.809,57.338 73.344,57.128 73.049,56.863 C72.753,56.598 72.643,56.24 72.719,55.789 C72.797,55.299 73.049,54.891 73.476,54.567 C73.902,54.243 74.419,54.081 75.028,54.081 C75.637,54.081 76.106,54.257 76.435,54.607 C76.765,54.958 76.883,55.379 76.79,55.87 L76.773,55.902 L75.78,55.902 C75.8272276,55.6578894 75.7642833,55.4053804 75.608,55.212 C75.45,55.012 75.214,54.914 74.898,54.914 C74.577,54.914 74.315,54.997 74.115,55.164 C73.9264107,55.3100844 73.7996832,55.5217728 73.76,55.757 C73.72,55.997 73.763,56.179 73.886,56.305 C74.01,56.43 74.29,56.546 74.727,56.654 C75.389,56.811 75.866,57.025 76.156,57.296 C76.446,57.566 76.555,57.929 76.483,58.383 C76.4100385,58.8957394 76.1257138,59.3545031 75.699,59.648 C75.262,59.958 74.725,60.113 74.088,60.113 C73.422,60.113 72.913,59.923 72.563,59.543 C72.212,59.163 72.086,58.727 72.187,58.233 L72.197,58.201 L73.191,58.201 C73.144,58.577 73.225,58.851 73.433,59.025 C73.64,59.199 73.902,59.285 74.217,59.285 C74.543,59.285 74.817,59.209 75.041,59.055 C75.2516776,58.9213329 75.3953607,58.7041715 75.436,58.458 Z M80.888,60 L80.979,59.205 C80.749,59.502 80.489,59.728 80.198,59.882 C79.9019022,60.0367638 79.572083,60.115783 79.238,60.112 C78.684,60.112 78.273,59.907 78.006,59.495 C77.739,59.083 77.69,58.457 77.858,57.615 L78.541,54.188 L79.577,54.188 L78.89,57.626 C78.757,58.285 78.75,58.721 78.868,58.934 C78.986,59.147 79.224,59.254 79.583,59.254 C79.901,59.254 80.19,59.174 80.45,59.017 C80.71,58.86 80.929,58.641 81.108,58.362 L81.94,54.188 L82.977,54.188 L81.817,60 L80.887,60 L80.888,60 Z M88.445,57.422 C88.265,58.317 87.965,58.989 87.54,59.439 C87.115,59.889 86.569,60.113 85.899,60.113 C85.587,60.113 85.307,60.053 85.059,59.936 C84.8124807,59.8201934 84.6002305,59.6423994 84.443,59.42 L83.879,62.234 L82.843,62.234 L84.449,54.188 L85.34,54.188 L85.303,54.763 C85.518,54.541 85.758,54.372 86.025,54.256 C86.292,54.139 86.579,54.081 86.887,54.081 C87.514,54.081 87.978,54.391 88.281,55.011 C88.584,55.63 88.645,56.396 88.466,57.309 L88.445,57.422 Z M87.43,57.309 C87.566,56.614 87.545,56.046 87.368,55.604 C87.191,55.162 86.868,54.94 86.398,54.94 C86.158,54.94 85.937,55.01 85.732,55.15 C85.528,55.29 85.344,55.481 85.179,55.725 L84.609,58.565 C84.703,58.792 84.843,58.968 85.029,59.095 C85.215,59.222 85.453,59.285 85.743,59.285 C86.169,59.285 86.523,59.118 86.807,58.783 C87.09,58.449 87.29,57.995 87.408,57.422 L87.43,57.309 Z M91.512,60.113 C90.782,60.113 90.229,59.842 89.855,59.299 C89.481,58.757 89.361,58.059 89.498,57.207 L89.535,56.971 C89.671,56.111 90.01,55.415 90.553,54.881 C91.095,54.348 91.682,54.081 92.312,54.081 C93.025,54.081 93.535,54.319 93.842,54.795 C94.151,55.272 94.244,55.9 94.122,56.681 L94.015,57.341 L90.513,57.341 C90.433,57.936 90.489,58.408 90.677,58.759 C90.865,59.11 91.186,59.286 91.641,59.286 C91.956,59.286 92.251,59.233 92.527,59.127 C92.803,59.022 93.042,58.883 93.247,58.711 L93.542,59.398 C93.2967289,59.618521 93.0125567,59.7914659 92.704,59.908 C92.364,60.045 91.966,60.113 91.512,60.113 Z M92.183,54.913 C91.883,54.913 91.591,55.064 91.31,55.365 C91.03,55.665 90.828,56.038 90.706,56.482 L90.722,56.514 L93.112,56.514 L93.134,56.374 C93.202,55.941 93.161,55.589 93.01,55.319 C92.86,55.049 92.584,54.914 92.183,54.914 L92.183,54.913 Z M98.263,55.123 L97.693,55.091 C97.458,55.091 97.24,55.158 97.041,55.292 C96.8289603,55.4408603 96.6521413,55.6344054 96.523,55.859 L95.696,60 L94.659,60 L95.819,54.188 L96.749,54.188 L96.684,54.968 C96.884,54.684 97.111,54.466 97.364,54.312 C97.7319941,54.0833797 98.1794617,54.0209086 98.596,54.14 L98.263,55.123 Z M99.423,60 L98.387,60 L99.547,54.188 L100.583,54.188 L99.423,60 Z M100.884,52.7 L99.848,52.7 L100.063,51.621 L101.099,51.621 L100.884,52.701 L100.884,52.7 Z M101.309,57.04 C101.452,56.145 101.78,55.428 102.294,54.89 C102.808,54.35 103.443,54.081 104.198,54.081 C104.922,54.081 105.463,54.361 105.823,54.921 C106.183,55.482 106.295,56.188 106.159,57.041 L106.143,57.159 C105.996,58.057 105.665,58.774 105.152,59.309 C104.638,59.845 104.003,60.113 103.248,60.113 C102.524,60.113 101.983,59.833 101.623,59.275 C101.263,58.716 101.153,58.011 101.293,57.159 L101.309,57.041 L101.309,57.04 Z M102.329,57.159 C102.225,57.799 102.257,58.314 102.423,58.703 C102.59,59.091 102.907,59.286 103.376,59.286 C103.813,59.286 104.186,59.082 104.494,58.676 C104.802,58.27 105.004,57.764 105.101,57.159 L105.117,57.041 C105.217,56.411 105.183,55.898 105.015,55.504 C104.846,55.111 104.531,54.914 104.069,54.914 C103.629,54.914 103.256,55.118 102.949,55.526 C102.643,55.934 102.442,56.439 102.345,57.041 L102.329,57.159 Z M110.461,55.123 L109.891,55.091 C109.655,55.091 109.438,55.158 109.239,55.292 C109.02696,55.4408603 108.850141,55.6344054 108.721,55.859 L107.894,60 L106.857,60 L108.017,54.188 L108.947,54.188 L108.882,54.968 C109.082,54.684 109.309,54.466 109.562,54.312 C109.929994,54.0833797 110.377462,54.0209086 110.794,54.14 L110.461,55.123 Z M112.738,60.113 C112.008,60.113 111.455,59.842 111.081,59.299 C110.707,58.757 110.588,58.059 110.724,57.207 L110.762,56.971 C110.898,56.111 111.237,55.415 111.78,54.881 C112.322,54.348 112.908,54.081 113.539,54.081 C114.251,54.081 114.761,54.319 115.069,54.795 C115.377,55.272 115.47,55.9 115.349,56.681 L115.241,57.341 L111.739,57.341 C111.66,57.936 111.715,58.408 111.903,58.759 C112.091,59.11 112.413,59.286 112.867,59.286 C113.182,59.286 113.477,59.233 113.753,59.127 C114.029,59.022 114.269,58.883 114.473,58.711 L114.769,59.398 C114.523729,59.618521 114.239557,59.7914659 113.931,59.908 C113.591,60.045 113.193,60.113 112.738,60.113 Z M113.41,54.913 C113.109,54.913 112.818,55.064 112.537,55.365 C112.256,55.665 112.054,56.038 111.933,56.482 L111.949,56.514 L114.339,56.514 L114.36,56.374 C114.428,55.941 114.387,55.589 114.237,55.319 C114.087,55.049 113.811,54.914 113.41,54.914 L113.41,54.913 Z M34.962,169.601 L36.525,161.781 L38.931,161.781 C39.644,161.781 40.191,161.96 40.575,162.318 C40.958,162.676 41.08,163.202 40.94,163.898 C40.8703542,164.255666 40.6988018,164.585575 40.446,164.848 C40.1858113,165.116376 39.8652356,165.318664 39.511,165.438 C39.931,165.538 40.228,165.771 40.406,166.134 C40.583,166.498 40.623,166.917 40.526,167.394 C40.372,168.156 40.048,168.715 39.554,169.069 C39.06,169.424 38.434,169.601 37.674,169.601 L34.962,169.601 Z M36.729,165.933 L36.165,168.774 L37.841,168.774 C38.245,168.774 38.599,168.654 38.901,168.412 C39.204,168.17 39.401,167.834 39.49,167.404 C39.583,166.917 39.557,166.55 39.412,166.304 C39.267,166.056 38.983,165.933 38.561,165.933 L36.729,165.933 Z M36.896,165.106 L38.48,165.106 C38.802,165.106 39.102,164.996 39.38,164.776 C39.657,164.556 39.833,164.256 39.909,163.876 C39.999,163.428 39.945,163.106 39.75,162.909 C39.555,162.712 39.227,162.613 38.765,162.613 L37.395,162.613 L36.895,165.106 L36.896,165.106 Z M44.706,169.601 C44.706,169.426 44.709,169.281 44.716,169.169 C44.723,169.056 44.736,168.941 44.753,168.822 C44.5134443,169.076238 44.2353774,169.2912 43.929,169.459 C43.619,169.629 43.309,169.714 42.997,169.714 C42.467,169.714 42.076,169.556 41.823,169.239 C41.571,168.922 41.5,168.499 41.611,167.969 C41.726,167.378 42.017,166.934 42.484,166.639 C42.951,166.344 43.55,166.196 44.281,166.196 L45.274,166.196 L45.387,165.621 C45.459,165.26 45.419,164.985 45.269,164.797 C45.119,164.609 44.868,164.515 44.517,164.515 C44.217,164.515 43.944,164.603 43.701,164.781 C43.457,164.958 43.312,165.165 43.266,165.401 L42.283,165.401 L42.272,165.369 C42.344,164.921 42.612,164.529 43.078,164.189 C43.543,163.851 44.098,163.682 44.743,163.682 C45.319,163.682 45.775,163.853 46.11,164.195 C46.444,164.537 46.55,165.016 46.43,165.632 L45.87,168.43 C45.824,168.649 45.792,168.851 45.774,169.037 C45.7560909,169.224573 45.7560909,169.413427 45.774,169.601 L44.705,169.601 L44.706,169.601 Z M43.33,168.828 C43.62,168.828 43.916,168.744 44.216,168.575 C44.517,168.407 44.75,168.208 44.915,167.979 L45.129,166.91 L44.104,166.91 C43.749,166.91 43.43,167.02 43.147,167.238 C42.865,167.456 42.697,167.707 42.643,167.99 C42.585,168.266 42.613,168.474 42.723,168.616 C42.834,168.757 43.036,168.828 43.33,168.828 Z M50.694,164.724 L50.124,164.692 C49.888,164.692 49.671,164.759 49.472,164.893 C49.2599603,165.04186 49.0831413,165.235405 48.954,165.46 L48.126,169.601 L47.09,169.601 L48.25,163.79 L49.18,163.79 L49.115,164.568 C49.315,164.286 49.542,164.068 49.795,163.913 C50.1629941,163.68438 50.6104617,163.621909 51.027,163.741 L50.694,164.724 Z M54.341,164.724 L53.771,164.692 C53.535,164.692 53.318,164.759 53.119,164.893 C52.9069603,165.04186 52.7301413,165.235405 52.601,165.46 L51.773,169.601 L50.737,169.601 L51.897,163.79 L52.827,163.79 L52.762,164.568 C52.962,164.286 53.189,164.068 53.442,163.913 C53.8099941,163.68438 54.2574617,163.621909 54.674,163.741 L54.341,164.724 Z M55.501,169.601 L54.464,169.601 L55.624,163.79 L56.661,163.79 L55.501,169.601 Z M56.961,162.301 L55.925,162.301 L56.14,161.222 L57.177,161.222 L56.962,162.302 L56.961,162.301 Z M59.384,169.714 C58.654,169.714 58.101,169.443 57.727,168.9 C57.353,168.358 57.234,167.66 57.37,166.808 L57.408,166.572 C57.544,165.712 57.883,165.016 58.426,164.482 C58.968,163.949 59.554,163.682 60.185,163.682 C60.897,163.682 61.407,163.92 61.715,164.397 C62.023,164.873 62.116,165.501 61.995,166.282 L61.887,166.942 L58.385,166.942 C58.306,167.537 58.361,168.01 58.549,168.36 C58.737,168.711 59.059,168.887 59.513,168.887 C59.828,168.887 60.123,168.834 60.399,168.728 C60.675,168.623 60.915,168.484 61.119,168.312 L61.415,169 C61.1697289,169.220521 60.8855567,169.393466 60.577,169.51 C60.237,169.646 59.839,169.714 59.384,169.714 Z M60.056,164.514 C59.755,164.514 59.464,164.665 59.183,164.966 C58.902,165.266 58.7,165.639 58.579,166.083 L58.595,166.115 L60.985,166.115 L61.006,165.975 C61.074,165.542 61.033,165.191 60.883,164.92 C60.733,164.65 60.457,164.515 60.056,164.515 L60.056,164.514 Z M66.136,164.724 L65.566,164.692 C65.33,164.692 65.113,164.759 64.914,164.893 C64.7019603,165.04186 64.5251413,165.235405 64.396,165.46 L63.568,169.601 L62.532,169.601 L63.692,163.79 L64.622,163.79 L64.557,164.568 C64.757,164.286 64.984,164.068 65.237,163.913 C65.6049941,163.68438 66.0524617,163.621909 66.469,163.741 L66.136,164.724 Z M69.487,169.601 C69.487,169.426 69.491,169.281 69.498,169.169 C69.505,169.056 69.518,168.941 69.536,168.822 C69.2961414,169.076322 69.0177317,169.291288 68.711,169.459 C68.401,169.629 68.091,169.714 67.779,169.714 C67.249,169.714 66.859,169.556 66.606,169.239 C66.353,168.922 66.283,168.499 66.394,167.969 C66.508,167.378 66.799,166.934 67.266,166.639 C67.734,166.344 68.333,166.196 69.063,166.196 L70.057,166.196 L70.169,165.621 C70.241,165.26 70.202,164.985 70.051,164.797 C69.901,164.609 69.651,164.515 69.299,164.515 C68.999,164.515 68.726,164.603 68.483,164.781 C68.239,164.958 68.094,165.165 68.048,165.401 L67.065,165.401 L67.055,165.369 C67.125,164.921 67.395,164.529 67.86,164.189 C68.325,163.851 68.88,163.682 69.525,163.682 C70.101,163.682 70.557,163.853 70.892,164.195 C71.227,164.537 71.333,165.016 71.212,165.632 L70.652,168.43 C70.606,168.649 70.574,168.851 70.556,169.037 C70.5380909,169.224573 70.5380909,169.413427 70.556,169.601 L69.487,169.601 Z M68.112,168.828 C68.402,168.828 68.698,168.744 68.999,168.575 C69.299,168.407 69.532,168.208 69.697,167.979 L69.912,166.91 L68.886,166.91 C68.531,166.91 68.213,167.02 67.93,167.238 C67.647,167.456 67.479,167.707 67.425,167.99 C67.368,168.266 67.395,168.474 67.505,168.616 C67.616,168.757 67.819,168.828 68.112,168.828 Z M75.594,169.601 L74.558,169.601 L75.718,163.79 L76.754,163.79 L75.594,169.601 Z M77.055,162.301 L76.02,162.301 L76.234,161.222 L77.271,161.222 L77.056,162.302 L77.055,162.301 Z M79.139,164.59 C79.375,164.296 79.643,164.072 79.942,163.916 C80.242,163.76 80.562,163.682 80.906,163.682 C81.454,163.682 81.861,163.868 82.126,164.241 C82.39,164.613 82.448,165.177 82.297,165.933 L81.562,169.601 L80.525,169.601 L81.255,165.954 C81.363,165.41 81.348,165.038 81.212,164.84 C81.076,164.641 80.812,164.542 80.417,164.542 C80.167,164.542 79.918,164.618 79.671,164.77 C79.4166269,164.929 79.1958139,165.136224 79.021,165.38 L78.178,169.601 L77.14,169.601 L78.3,163.79 L79.23,163.79 L79.138,164.59 L79.139,164.59 Z M83.489,169.601 L84.494,164.574 L83.656,164.574 L83.812,163.79 L84.65,163.79 L84.8,163.054 C84.93,162.395 85.175,161.906 85.539,161.588 C85.902,161.268 86.363,161.11 86.922,161.11 C87.029,161.11 87.14,161.12 87.255,161.142 C87.369,161.163 87.493,161.19 87.625,161.222 L87.346,162.028 C87.1930088,161.991639 87.0362519,161.973513 86.879,161.974 C86.6260786,161.968765 86.382855,162.07129 86.21,162.256 C86.03,162.444 85.905,162.71 85.837,163.054 L85.687,163.79 L86.787,163.79 L86.632,164.574 L85.53,164.574 L84.525,169.601 L83.49,169.601 L83.489,169.601 Z M88.845,169.714 C88.115,169.714 87.562,169.443 87.188,168.9 C86.814,168.358 86.694,167.66 86.831,166.808 L86.868,166.572 C87.004,165.712 87.344,165.016 87.886,164.482 C88.428,163.949 89.015,163.682 89.645,163.682 C90.358,163.682 90.868,163.92 91.175,164.397 C91.484,164.873 91.577,165.501 91.455,166.282 L91.348,166.942 L87.846,166.942 C87.766,167.537 87.822,168.01 88.01,168.36 C88.198,168.711 88.519,168.887 88.974,168.887 C89.289,168.887 89.584,168.834 89.86,168.728 C90.136,168.623 90.375,168.484 90.58,168.312 L90.875,169 C90.6297289,169.220521 90.3455567,169.393466 90.037,169.51 C89.697,169.646 89.299,169.714 88.845,169.714 Z M89.516,164.514 C89.216,164.514 88.924,164.665 88.643,164.966 C88.363,165.266 88.161,165.639 88.039,166.083 L88.055,166.115 L90.445,166.115 L90.467,165.975 C90.535,165.542 90.494,165.191 90.343,164.92 C90.193,164.65 89.917,164.515 89.516,164.515 L89.516,164.514 Z M95.596,164.724 L95.026,164.692 C94.791,164.692 94.573,164.759 94.374,164.893 C94.1619603,165.04186 93.9851413,165.235405 93.856,165.46 L93.029,169.601 L91.992,169.601 L93.152,163.79 L94.082,163.79 L94.017,164.568 C94.217,164.286 94.444,164.068 94.697,163.913 C95.0649941,163.68438 95.5124617,163.621909 95.929,163.741 L95.596,164.724 Z M96.756,169.601 L95.72,169.601 L96.88,163.79 L97.917,163.79 L96.757,169.601 L96.756,169.601 Z M98.217,162.301 L97.181,162.301 L97.396,161.222 L98.432,161.222 L98.217,162.302 L98.217,162.301 Z M98.642,166.641 C98.785,165.747 99.113,165.03 99.627,164.491 C100.141,163.951 100.776,163.682 101.531,163.682 C102.255,163.682 102.796,163.962 103.156,164.522 C103.516,165.083 103.628,165.79 103.492,166.642 L103.476,166.76 C103.329,167.659 102.998,168.376 102.485,168.911 C101.971,169.446 101.336,169.714 100.581,169.714 C99.857,169.714 99.316,169.434 98.956,168.876 C98.596,168.318 98.486,167.612 98.626,166.76 L98.642,166.642 L98.642,166.641 Z M99.662,166.76 C99.558,167.4 99.59,167.916 99.756,168.304 C99.923,168.693 100.24,168.887 100.709,168.887 C101.146,168.887 101.519,168.684 101.827,168.277 C102.135,167.871 102.337,167.365 102.434,166.76 L102.45,166.642 C102.55,166.012 102.516,165.499 102.348,165.106 C102.179,164.712 101.864,164.515 101.402,164.515 C100.962,164.515 100.589,164.719 100.282,165.127 C99.976,165.535 99.775,166.04 99.678,166.642 L99.662,166.76 Z M107.794,164.724 L107.224,164.692 C106.988,164.692 106.771,164.759 106.572,164.893 C106.35996,165.04186 106.183141,165.235405 106.054,165.46 L105.227,169.601 L104.19,169.601 L105.35,163.79 L106.28,163.79 L106.215,164.568 C106.415,164.286 106.642,164.068 106.895,163.913 C107.262994,163.68438 107.710462,163.621909 108.127,163.741 L107.794,164.724 Z M110.071,169.714 C109.341,169.714 108.788,169.443 108.414,168.9 C108.04,168.358 107.921,167.66 108.057,166.808 L108.095,166.572 C108.231,165.712 108.57,165.016 109.113,164.482 C109.655,163.949 110.241,163.682 110.872,163.682 C111.584,163.682 112.094,163.92 112.402,164.397 C112.71,164.873 112.803,165.501 112.682,166.282 L112.574,166.942 L109.072,166.942 C108.993,167.537 109.048,168.01 109.236,168.36 C109.424,168.711 109.746,168.887 110.2,168.887 C110.515,168.887 110.81,168.834 111.086,168.728 C111.362,168.623 111.602,168.484 111.806,168.312 L112.102,169 C111.856729,169.220521 111.572557,169.393466 111.264,169.51 C110.924,169.646 110.526,169.714 110.071,169.714 Z M110.743,164.514 C110.442,164.514 110.151,164.665 109.87,164.966 C109.589,165.266 109.387,165.639 109.266,166.083 L109.282,166.115 L111.672,166.115 L111.693,165.975 C111.761,165.542 111.72,165.191 111.57,164.92 C111.42,164.65 111.144,164.515 110.743,164.515 L110.743,164.514 Z M226.293,178.836 L222.867,178.836 L222.867,182.172 L221.561,182.172 L221.561,174.352 L226.841,174.352 L226.841,175.399 L222.867,175.399 L222.867,177.789 L226.293,177.789 L226.293,178.836 Z M229.167,182.172 L227.862,182.172 L227.862,176.36 L229.167,176.36 L229.167,182.172 Z M229.167,174.937 L227.862,174.937 L227.862,173.793 L229.167,173.793 L229.167,174.937 Z M231.81,176.36 L231.885,177.198 C232.075,176.901 232.314,176.669 232.602,176.503 C232.89,176.336 233.215,176.253 233.577,176.253 C234.182,176.253 234.654,176.436 234.992,176.803 C235.33,177.17 235.499,177.743 235.499,178.52 L235.499,182.172 L234.194,182.172 L234.194,178.53 C234.194,178.093 234.104,177.783 233.924,177.598 C233.742,177.414 233.467,177.322 233.099,177.322 C232.62304,177.313986 232.177184,177.55415 231.922,177.956 L231.922,182.172 L230.617,182.172 L230.617,176.36 L231.81,176.36 Z M239.35,182.285 C238.527,182.285 237.87,182.015 237.382,181.476 C236.893,180.937 236.649,180.246 236.649,179.4 L236.649,179.186 C236.649,178.34 236.891,177.64 237.377,177.083 C237.862,176.526 238.47,176.249 239.2,176.253 C239.984,176.253 240.585,176.49 241.002,176.965 C241.419,177.439 241.628,178.075 241.628,178.874 L241.628,179.642 L238.002,179.642 L237.992,179.669 C238.013,180.131 238.148,180.509 238.397,180.802 C238.646,181.096 238.991,181.242 239.431,181.242 C239.782,181.242 240.083,181.2 240.333,181.114 C240.584,181.028 240.826,180.904 241.059,180.744 L241.478,181.597 C241.259,181.791 240.969,181.953 240.608,182.086 C240.246,182.218 239.827,182.285 239.351,182.285 L239.35,182.285 Z M239.2,177.3 C238.889085,177.294621 238.594069,177.43712 238.405,177.684 C238.198,177.94 238.069,178.265 238.019,178.659 L238.029,178.686 L240.333,178.686 L240.333,178.552 C240.333,178.182 240.239,177.882 240.051,177.649 C239.863,177.417 239.58,177.3 239.201,177.3 L239.2,177.3 Z M10.067,135.261 L8.762,135.261 L8.762,127.441 L10.067,127.441 L10.067,135.261 Z M12.865,129.45 L12.94,130.288 C13.13,129.99 13.369,129.758 13.657,129.592 C13.946,129.426 14.27,129.342 14.632,129.342 C15.237,129.342 15.709,129.526 16.047,129.892 C16.386,130.26 16.555,130.832 16.555,131.609 L16.555,135.261 L15.25,135.261 L15.25,131.62 C15.25,131.183 15.16,130.872 14.979,130.688 C14.798,130.503 14.523,130.411 14.154,130.411 C13.6783931,130.403336 13.2329969,130.643456 12.978,131.045 L12.978,135.261 L11.673,135.261 L11.673,129.45 L12.865,129.45 Z M19.305,135.261 L18,135.261 L18,129.45 L19.305,129.45 L19.305,135.261 Z M19.305,128.026 L18,128.026 L18,126.882 L19.305,126.882 L19.305,128.026 Z M22.152,134.219 L25.256,134.219 L25.256,135.261 L20.535,135.261 L20.535,134.407 L23.468,130.502 L20.594,130.502 L20.594,129.45 L25.117,129.45 L25.117,130.277 L22.152,134.219 Z M27.732,135.261 L26.427,135.261 L26.427,129.45 L27.732,129.45 L27.732,135.261 Z M27.732,128.026 L26.427,128.026 L26.427,126.882 L27.732,126.882 L27.732,128.026 Z M28.952,132.302 C28.952,131.439 29.188,130.73 29.66,130.175 C30.14,129.62 30.79,129.342 31.61,129.342 C32.444,129.342 33.098,129.62 33.57,130.175 C34.047,130.726 34.285,131.435 34.285,132.302 L34.285,132.415 C34.285,133.288 34.047,134.001 33.571,134.552 C33.098,135.1 32.448,135.374 31.621,135.374 C30.791,135.374 30.137,135.098 29.661,134.547 C29.188,133.995 28.951,133.285 28.951,132.415 L28.951,132.302 L28.952,132.302 Z M30.257,132.415 C30.257,132.98 30.367,133.442 30.59,133.8 C30.808,134.155 31.152,134.332 31.62,134.332 C32.076,134.332 32.416,134.155 32.641,133.8 C32.871,133.442 32.985,132.98 32.985,132.415 L32.985,132.302 C32.985,131.747 32.871,131.29 32.641,130.932 C32.416,130.571 32.072,130.39 31.611,130.39 C31.155,130.39 30.815,130.57 30.59,130.932 C30.368,131.294 30.257,131.75 30.257,132.302 L30.257,132.415 Z" id="Shape" fill="#2A3052" fill-rule="nonzero"></path>
        </g>
    </g>
</svg>