<?xml version="1.0" encoding="UTF-8"?>
<svg width="299px" height="197px" viewBox="0 0 299 197" version="1.1" xmlns="http://www.w3.org/2000/svg" xmlns:xlink="http://www.w3.org/1999/xlink">
    <!-- Generator: Sketch 52.6 (67491) - http://www.bohemiancoding.com/sketch -->
    <title>reset-call</title>
    <desc>Created with Sketch.</desc>
    <g id="Page-1" stroke="none" stroke-width="1" fill="none" fill-rule="evenodd">
        <g id="reset-call">
            <polygon id="Path" fill="#F1F2F2" points="299 0 299 197 0 197 0 0"></polygon>
            <path d="M296.573044,2.40070984 L2.42695608,2.40070984 L2.42695608,194.59929 L296.573044,194.59929 L296.573044,2.40070984 Z M299,197 L0,197 L0,0 L299,0 L299,197 Z" id="Path" fill="#C2C2C2" fill-rule="nonzero"></path>
            <path d="M1.954,51.0555 L1.954,49.8285 L296.507,49.8285 L296.507,51.0555 L1.954,51.0555 Z M1.954,92.5035 L1.954,91.2765 L296.507,91.2765 L296.507,92.5035 L1.954,92.5035 Z M1.954,133.9475 L1.954,132.7205 L296.507,132.7205 L296.507,133.9475 L1.954,133.9475 Z M1.954,175.3535 L1.954,174.1265 L296.507,174.1265 L296.507,175.3535 L1.954,175.3535 Z M36.9155,29.739 L38.1425,29.739 L38.1425,193 L36.9155,193 L36.9155,29.739 Z M74.2015,29.739 L75.4285,29.739 L75.4285,193 L74.2015,193 L74.2015,29.739 Z M111.4465,29.739 L112.6735,29.739 L112.6735,193 L111.4465,193 L111.4465,29.739 Z M148.7305,29.739 L149.9575,29.739 L149.9575,193 L148.7305,193 L148.7305,29.739 Z M185.9775,29.739 L187.2045,29.739 L187.2045,193 L185.9775,193 L185.9775,29.739 Z M223.2265,29.739 L224.4535,29.739 L224.4535,193 L223.2265,193 L223.2265,29.739 Z M1.954,113.2055 L1.954,111.9785 L296.507,111.9785 L296.507,113.2055 L1.954,113.2055 Z" id="Shape" fill="#DFDEDE" fill-rule="nonzero"></path>
            <polygon id="Path" fill="#C2C2C2" fill-rule="nonzero" points="3.826 31.1415 3.826 28.6865 293.826 28.6865 293.826 31.1415"></polygon>
            <path d="M148.2485,32.887 L149.4635,32.887 L149.4635,38.9980001 L148.2485,38.9980001 L148.2485,32.887 Z M148.2485,45.1090001 L149.4635,45.1090001 L149.4635,51.2200002 L148.2485,51.2200002 L148.2485,45.1090001 Z M148.2485,57.3310002 L149.4635,57.3310002 L149.4635,63.4420003 L148.2485,63.4420003 L148.2485,57.3310002 Z M148.2485,69.5530004 L149.4635,69.5530004 L149.4635,75.6640004 L148.2485,75.6640004 L148.2485,69.5530004 Z M148.2485,81.7750005 L149.4635,81.7750005 L149.4635,87.8860005 L148.2485,87.8860005 L148.2485,81.7750005 Z M148.2485,93.9970006 L149.4635,93.9970006 L149.4635,100.108001 L148.2485,100.108001 L148.2485,93.9970006 Z M148.2485,106.219001 L149.4635,106.219001 L149.4635,112.330001 L148.2485,112.330001 L148.2485,106.219001 Z M148.2485,118.441001 L149.4635,118.441001 L149.4635,124.552001 L148.2485,124.552001 L148.2485,118.441001 Z M148.2485,130.663001 L149.4635,130.663001 L149.4635,136.774001 L148.2485,136.774001 L148.2485,130.663001 Z M148.2485,142.885001 L149.4635,142.885001 L149.4635,148.996001 L148.2485,148.996001 L148.2485,142.885001 Z M148.2485,155.107001 L149.4635,155.107001 L149.4635,161.218001 L148.2485,161.218001 L148.2485,155.107001 Z M148.2485,167.329001 L149.4635,167.329001 L149.4635,173.440001 L148.2485,173.440001 L148.2485,167.329001 Z M148.2485,179.551001 L149.4635,179.551001 L149.4635,185.662002 L148.2485,185.662002 L148.2485,179.551001 Z M148.2485,191.773002 L149.4635,191.773002 L149.4635,193.635 L148.2485,193.635 L148.2485,191.773002 Z" id="Path" fill="#E98024" fill-rule="nonzero"></path>
            <polygon id="Path" fill="#2A3052" fill-rule="nonzero" points="258.8595 32.887 260.0745 32.887 260.0745 193.635 258.8595 193.635"></polygon>
            <polygon id="Path" fill="#E98024" fill-rule="nonzero" points="3 74.3015 3 73.0865 6.056 73.0865 6.056 74.3015"></polygon>
            <path d="M12.13,74.3015 L12.13,73.0865 L18.2000002,73.0865 L18.2000002,74.3015 L12.13,74.3015 Z M24.2700003,74.3015 L24.2700003,73.0865 L30.3400005,73.0865 L30.3400005,74.3015 L24.2700003,74.3015 Z M36.4100007,74.3015 L36.4100007,73.0865 L42.4800009,73.0865 L42.4800009,74.3015 L36.4100007,74.3015 Z M48.550001,74.3015 L48.550001,73.0865 L54.6200012,73.0865 L54.6200012,74.3015 L48.550001,74.3015 Z M60.6900014,74.3015 L60.6900014,73.0865 L66.7600015,73.0865 L66.7600015,74.3015 L60.6900014,74.3015 Z M72.8300017,74.3015 L72.8300017,73.0865 L78.9000019,73.0865 L78.9000019,74.3015 L72.8300017,74.3015 Z M84.9700021,74.3015 L84.9700021,73.0865 L91.0400022,73.0865 L91.0400022,74.3015 L84.9700021,74.3015 Z M97.1100024,74.3015 L97.1100024,73.0865 L103.180003,73.0865 L103.180003,74.3015 L97.1100024,74.3015 Z M109.250003,74.3015 L109.250003,73.0865 L115.320003,73.0865 L115.320003,74.3015 L109.250003,74.3015 Z M121.390003,74.3015 L121.390003,73.0865 L127.460003,73.0865 L127.460003,74.3015 L121.390003,74.3015 Z M133.530003,74.3015 L133.530003,73.0865 L139.600004,73.0865 L139.600004,74.3015 L133.530003,74.3015 Z M145.670004,74.3015 L145.670004,73.0865 L151.740004,73.0865 L151.740004,74.3015 L145.670004,74.3015 Z M157.810004,74.3015 L157.810004,73.0865 L163.880004,73.0865 L163.880004,74.3015 L157.810004,74.3015 Z M169.950004,74.3015 L169.950004,73.0865 L176.020005,73.0865 L176.020005,74.3015 L169.950004,74.3015 Z M182.090005,74.3015 L182.090005,73.0865 L188.160005,73.0865 L188.160005,74.3015 L182.090005,74.3015 Z M194.230005,74.3015 L194.230005,73.0865 L200.300005,73.0865 L200.300005,74.3015 L194.230005,74.3015 Z M206.370005,74.3015 L206.370005,73.0865 L212.440006,73.0865 L212.440006,74.3015 L206.370005,74.3015 Z M218.510006,74.3015 L218.510006,73.0865 L224.580006,73.0865 L224.580006,74.3015 L218.510006,74.3015 Z M230.650006,74.3015 L230.650006,73.0865 L236.720006,73.0865 L236.720006,74.3015 L230.650006,74.3015 Z M242.790007,74.3015 L242.790007,73.0865 L248.860007,73.0865 L248.860007,74.3015 L242.790007,74.3015 Z M254.930007,74.3015 L254.930007,73.0865 L261.000007,73.0865 L261.000007,74.3015 L254.930007,74.3015 Z M267.070007,74.3015 L267.070007,73.0865 L273.140007,73.0865 L273.140007,74.3015 L267.070007,74.3015 Z M279.210008,74.3015 L279.210008,73.0865 L285.280008,73.0865 L285.280008,74.3015 L279.210008,74.3015 Z" id="Path" fill="#E98024" fill-rule="nonzero"></path>
            <polygon id="Path" fill="#E98024" fill-rule="nonzero" points="291.426 74.3015 291.426 73.0865 294.481 73.0865 294.481 74.3015"></polygon>
            <polygon id="Path" fill="#2A3052" fill-rule="nonzero" points="3 155.8795 3 154.6645 294.481 154.6645 294.481 155.8795"></polygon>
            <path d="M80.382155,114.864494 C79.7841241,115.009791 79.15316,114.843369 78.7045858,114.422022 L36.9565858,75.2080218 C36.2231396,74.519094 36.1870504,73.366032 36.8759782,72.6325858 C37.564906,71.8991396 38.717968,71.8630504 39.4514142,72.5519782 L80.4804092,111.090615 L119.351845,101.646506 C120.147668,101.453154 120.974707,101.814548 121.373454,102.529894 L149.25812,152.554555 L184.538834,122.907112 C184.893657,122.608944 185.348773,122.457202 185.811536,122.482776 L222.110873,124.488792 L258.526034,102.526786 C259.387716,102.007105 260.507533,102.284352 261.027214,103.146034 C261.546895,104.007716 261.269648,105.127533 260.407966,105.647214 L223.511966,127.899214 C223.198677,128.088159 222.835762,128.178412 222.470464,128.158224 L186.330828,126.161034 L149.913166,156.763888 C149.036943,157.500204 147.706796,157.255805 147.149546,156.256106 L118.865358,105.514709 L80.382155,114.864494 Z" id="Path" fill="#2A3052" fill-rule="nonzero"></path>
            <circle id="Oval" fill="#FFFFFF" opacity="0.6" cx="259.467" cy="105.476" r="8.163"></circle>
            <path d="M259.467,114.8295 C254.301205,114.8295 250.1135,110.641795 250.1135,105.476 C250.1135,100.310205 254.301205,96.1225 259.467,96.1225 C264.632795,96.1225 268.8205,100.310205 268.8205,105.476 C268.8205,110.641795 264.632795,114.8295 259.467,114.8295 Z M259.467,112.4485 C263.317805,112.4485 266.4395,109.326805 266.4395,105.476 C266.4395,101.625195 263.317805,98.5035 259.467,98.5035 C255.616195,98.5035 252.4945,101.625195 252.4945,105.476 C252.4945,109.326805 255.616195,112.4485 259.467,112.4485 Z" id="Oval" fill="#E88024" fill-rule="nonzero"></path>
            <circle id="Oval" fill="#FFFFFF" opacity="0.6" cx="38.203" cy="73.721" r="8.163"></circle>
            <path d="M38.204,83.0735 C33.0382046,83.0735 28.8505,78.8857954 28.8505,73.72 C28.8505,68.5542046 33.0382046,64.3665 38.204,64.3665 C43.3697954,64.3665 47.5575,68.5542046 47.5575,73.72 C47.5575,78.8857954 43.3697954,83.0735 38.204,83.0735 Z M38.204,80.6925 C42.0548054,80.6925 45.1765,77.5708054 45.1765,73.72 C45.1765,69.8691946 42.0548054,66.7475 38.204,66.7475 C34.3531946,66.7475 31.2315,69.8691946 31.2315,73.72 C31.2315,77.5708054 34.3531946,80.6925 38.204,80.6925 Z" id="Oval" fill="#E88024" fill-rule="nonzero"></path>
            <circle id="Oval" fill="#FFFFFF" opacity="0.6" cx="148.215" cy="154.19" r="8.163"></circle>
            <path d="M148.215,163.5445 C143.049205,163.5445 138.8615,159.356795 138.8615,154.191 C138.8615,149.025205 143.049205,144.8375 148.215,144.8375 C153.380795,144.8375 157.5685,149.025205 157.5685,154.191 C157.5685,159.356795 153.380795,163.5445 148.215,163.5445 Z M148.215,161.1635 C152.065805,161.1635 155.1875,158.041805 155.1875,154.191 C155.1875,150.340195 152.065805,147.2185 148.215,147.2185 C144.364195,147.2185 141.2425,150.340195 141.2425,154.191 C141.2425,158.041805 144.364195,161.1635 148.215,161.1635 Z" id="Oval" fill="#E88024" fill-rule="nonzero"></path>
            <path d="M259.819,151.09 L221.14,151.09 L215.64,142.865 L210.14,151.095 L171.466,151.095 C168.807139,151.095 166.651552,153.250139 166.651,155.909 L166.651,180.779 C166.651,183.438251 168.806749,185.594 171.466,185.594 L259.818,185.594 C262.47647,185.593448 264.631448,183.43847 264.632,180.78 L264.632,155.906 C264.632,153.247139 262.476861,151.091552 259.818,151.091 L259.819,151.09 Z" id="Path" fill="#E88024"></path>
            <path d="M59.122,165.469 L60.212,172.395 L60.242,172.4 L64.102,165.469 L65.544,165.469 L63.839,174 L62.708,174 L63.382,170.625 L64.167,167.268 L64.137,167.256 L60.277,174 L59.527,174 L58.367,167.273 L58.331,167.273 L57.774,170.625 L57.101,174 L55.97,174 L57.675,165.469 L59.122,165.469 Z M66.012,170.771 C66.169,169.795 66.527,169.013 67.088,168.425 C67.648,167.837 68.341,167.543 69.165,167.543 C69.955,167.543 70.545,167.849 70.937,168.46 C71.33,169.071 71.452,169.842 71.304,170.771 L71.286,170.901 C71.126,171.881 70.766,172.663 70.206,173.247 C69.645,173.831 68.952,174.123 68.128,174.123 C67.338,174.123 66.748,173.818 66.355,173.209 C65.963,172.599 65.843,171.83 65.995,170.9 L66.013,170.771 L66.012,170.771 Z M67.126,170.901 C67.013,171.6 67.046,172.161 67.229,172.585 C67.41,173.009 67.757,173.221 68.269,173.221 C68.745,173.221 69.151,172.999 69.487,172.556 C69.823,172.112 70.044,171.561 70.149,170.9 L70.167,170.771 C70.277,170.084 70.239,169.525 70.056,169.096 C69.872,168.666 69.528,168.451 69.024,168.451 C68.544,168.451 68.137,168.674 67.803,169.119 C67.469,169.564 67.249,170.115 67.143,170.771 L67.126,170.901 Z M74.269,168.416 C74.5051345,168.142398 74.7965247,167.921896 75.124,167.769 C75.448,167.619 75.806,167.543 76.196,167.543 C76.552,167.543 76.852,167.639 77.096,167.83 C77.34,168.021 77.501,168.307 77.579,168.686 C77.829,168.326 78.126,168.046 78.469,167.845 C78.8137535,167.643455 79.2066755,167.539091 79.606,167.543 C80.165,167.543 80.583,167.769 80.86,168.22 C81.138,168.67 81.19,169.334 81.019,170.209 L80.263,174 L79.126,174 L79.888,170.197 C80.017,169.525 80.013,169.071 79.876,168.835 C79.739,168.599 79.472,168.48 79.073,168.48 C78.753,168.48 78.45,168.622 78.165,168.905 C77.8708927,169.199746 77.6553284,169.56349 77.538,169.963 L77.538,169.975 L76.735,174 L75.6,174 L76.361,170.197 C76.486,169.561 76.479,169.115 76.338,168.861 C76.198,168.607 75.932,168.481 75.541,168.481 C75.244,168.481 74.979,168.556 74.744,168.706 C74.51,168.856 74.309,169.064 74.141,169.33 L73.203,174 L72.073,174 L73.338,167.66 L74.346,167.66 L74.27,168.416 L74.269,168.416 Z M84.405,174.123 C83.608,174.123 83.005,173.827 82.598,173.235 C82.189,172.644 82.06,171.883 82.208,170.953 L82.249,170.695 C82.397,169.758 82.768,168.998 83.359,168.416 C83.951,167.834 84.591,167.543 85.279,167.543 C86.056,167.543 86.612,167.803 86.949,168.323 C87.284,168.842 87.386,169.527 87.253,170.379 L87.136,171.099 L83.316,171.099 C83.229,171.749 83.289,172.264 83.494,172.646 C83.699,173.029 84.05,173.221 84.546,173.221 C85.1856401,173.224992 85.8061352,173.002931 86.298,172.594 L86.62,173.344 C86.3524509,173.584413 86.0425113,173.772953 85.706,173.9 C85.335,174.049 84.901,174.123 84.406,174.123 L84.405,174.123 Z M85.138,168.451 C84.81,168.451 84.492,168.615 84.186,168.943 C83.8691224,169.289276 83.6424419,169.708291 83.526,170.163 L83.544,170.197 L86.151,170.197 L86.175,170.045 C86.249,169.572 86.205,169.188 86.04,168.894 C85.876,168.599 85.575,168.451 85.138,168.451 Z M90.018,168.533 C90.276,168.213 90.568,167.968 90.895,167.798 C91.221,167.628 91.571,167.543 91.946,167.543 C92.544,167.543 92.987,167.746 93.276,168.153 C93.566,168.559 93.628,169.173 93.464,169.998 L92.66,174 L91.53,174 L92.326,170.021 C92.443,169.428 92.428,169.022 92.279,168.806 C92.131,168.589 91.842,168.48 91.412,168.48 C91.1225626,168.485171 90.8404433,168.571817 90.598,168.73 C90.3202316,168.903245 90.0790358,169.129153 89.888,169.395 L88.97,174 L87.84,174 L89.105,167.66 L90.119,167.66 L90.019,168.533 L90.018,168.533 Z M97.337,166.131 L97.027,167.661 L98.122,167.661 L97.952,168.516 L96.856,168.516 L96.089,172.366 C96.022,172.682 96.032,172.896 96.119,173.006 C96.204,173.118 96.343,173.174 96.534,173.174 C96.624,173.174 96.732,173.165 96.859,173.147 C96.986,173.13 97.087,173.111 97.161,173.092 L97.155,173.882 C97.042,173.953 96.881,174.011 96.672,174.056 C96.4689513,174.100139 96.2617905,174.122599 96.054,174.123 C95.644,174.123 95.328,173.979 95.107,173.689 C94.887,173.4 94.837,172.959 94.958,172.365 L95.726,168.515 L94.8,168.515 L94.97,167.66 L95.896,167.66 L96.206,166.13 L97.336,166.13 L97.337,166.131 Z M98.521,170.771 C98.677,169.795 99.035,169.013 99.596,168.425 C100.156,167.837 100.849,167.543 101.673,167.543 C102.462,167.543 103.053,167.849 103.445,168.46 C103.838,169.071 103.96,169.842 103.812,170.771 L103.794,170.901 C103.634,171.881 103.274,172.663 102.713,173.247 C102.153,173.831 101.46,174.123 100.636,174.123 C99.846,174.123 99.256,173.818 98.863,173.209 C98.471,172.599 98.351,171.83 98.503,170.9 L98.521,170.771 Z M99.634,170.901 C99.521,171.6 99.554,172.161 99.736,172.585 C99.918,173.009 100.265,173.221 100.776,173.221 C101.253,173.221 101.659,172.999 101.996,172.556 C102.331,172.112 102.552,171.561 102.657,170.9 L102.675,170.771 C102.785,170.084 102.747,169.525 102.563,169.096 C102.38,168.666 102.036,168.451 101.533,168.451 C101.052,168.451 100.645,168.674 100.311,169.119 C99.977,169.564 99.757,170.115 99.651,170.771 L99.634,170.901 Z M107.802,170.831 C108.017,169.741 108.362,168.92 108.836,168.369 C109.311,167.819 109.921,167.543 110.667,167.543 C110.991,167.543 111.285,167.61 111.549,167.745 C111.813,167.88 112.029,168.07 112.196,168.316 L112.888,164.859 L114.018,164.859 L112.19,174 L111.218,174 L111.258,173.39 C110.822252,173.861981 110.207346,174.127847 109.565,174.122 C108.885,174.123 108.373,173.818 108.027,173.209 C107.682,172.599 107.599,171.848 107.778,170.953 L107.802,170.83 L107.802,170.831 Z M108.915,170.953 C108.778,171.625 108.804,172.165 108.991,172.573 C109.179,172.981 109.531,173.186 110.046,173.186 C110.323,173.186 110.572,173.108 110.793,172.954 C111.035968,172.775468 111.241806,172.551288 111.399,172.294 L111.997,169.301 C111.903956,169.061808 111.744323,168.854285 111.537,168.703 C111.332,168.555 111.077,168.48 110.772,168.48 C110.304,168.48 109.916,168.692 109.609,169.116 C109.303,169.54 109.079,170.111 108.939,170.83 L108.915,170.953 Z M115.055,174 L113.925,174 L115.19,167.66 L116.321,167.66 L115.056,174 L115.055,174 Z M116.649,166.037 L115.519,166.037 L115.753,164.859 L116.883,164.859 L116.649,166.037 Z M123.517,168.68 L122.896,168.645 C122.638,168.645 122.4,168.718 122.184,168.865 C121.952543,169.02687 121.75935,169.237471 121.618,169.482 L120.716,174 L119.585,174 L120.851,167.66 L121.864,167.66 L121.794,168.51 C122.013,168.201 122.26,167.963 122.535,167.795 C122.936679,167.545239 123.425232,167.476951 123.88,167.607 L123.517,168.68 Z M126.001,174.123 C125.204,174.123 124.601,173.827 124.193,173.235 C123.785,172.644 123.655,171.883 123.803,170.953 L123.845,170.695 C123.993,169.758 124.363,168.998 124.955,168.416 C125.547,167.834 126.187,167.543 126.874,167.543 C127.651,167.543 128.208,167.803 128.544,168.323 C128.88,168.842 128.981,169.527 128.849,170.379 L128.731,171.099 L124.911,171.099 C124.825,171.749 124.885,172.264 125.09,172.646 C125.295,173.029 125.646,173.221 126.142,173.221 C126.78164,173.224992 127.402135,173.002931 127.894,172.594 L128.216,173.344 C127.948451,173.584413 127.638511,173.772953 127.302,173.9 C126.931,174.049 126.497,174.123 126.001,174.123 Z M126.733,168.451 C126.405,168.451 126.088,168.615 125.781,168.943 C125.464484,169.289382 125.238151,169.708388 125.122,170.163 L125.14,170.197 L127.747,170.197 L127.771,170.045 C127.845,169.572 127.8,169.188 127.636,168.894 C127.472,168.599 127.171,168.451 126.733,168.451 Z M133.208,172.318 C133.251,172.057 133.198,171.846 133.05,171.686 C132.901,171.526 132.593,171.385 132.124,171.264 C131.433,171.096 130.926,170.867 130.604,170.578 C130.281,170.289 130.161,169.898 130.244,169.406 C130.329,168.871 130.604,168.426 131.069,168.073 C131.534,167.72 132.099,167.543 132.763,167.543 C133.427,167.543 133.938,167.734 134.298,168.117 C134.658,168.5 134.786,168.959 134.685,169.494 L134.667,169.529 L133.583,169.529 C133.63473,169.262706 133.5663,168.987155 133.396,168.776 C133.224,168.56 132.966,168.451 132.622,168.451 C132.271,168.451 131.985,168.542 131.767,168.724 C131.561322,168.88341 131.423166,169.114384 131.38,169.371 C131.337,169.633 131.383,169.832 131.518,169.969 C131.652,170.105 131.958,170.232 132.435,170.349 C133.157,170.521 133.677,170.755 133.993,171.049 C134.31,171.345 134.429,171.74 134.351,172.236 C134.271273,172.79549 133.960814,173.295996 133.495,173.616 C133.019,173.954 132.433,174.123 131.737,174.123 C131.011,174.123 130.457,173.916 130.073,173.502 C129.69,173.088 129.553,172.612 129.663,172.072 L129.675,172.037 L130.759,172.037 C130.708,172.447 130.796,172.747 131.022,172.937 C131.249,173.126 131.534,173.221 131.878,173.221 C132.233,173.221 132.533,173.137 132.778,172.969 C133.007152,172.823246 133.163499,172.586908 133.208,172.319 L133.208,172.318 Z M137.901,174.123 C137.104,174.123 136.502,173.827 136.094,173.235 C135.686,172.644 135.556,171.883 135.704,170.953 L135.745,170.695 C135.894,169.758 136.264,168.998 136.855,168.416 C137.447,167.834 138.087,167.543 138.775,167.543 C139.552,167.543 140.108,167.803 140.445,168.323 C140.78,168.842 140.882,169.527 140.749,170.379 L140.632,171.099 L136.812,171.099 C136.726,171.749 136.785,172.264 136.99,172.646 C137.195,173.029 137.546,173.221 138.042,173.221 C138.68164,173.224992 139.302135,173.002931 139.794,172.594 L140.116,173.344 C139.848451,173.584413 139.538511,173.772953 139.202,173.9 C138.832,174.049 138.397,174.123 137.902,174.123 L137.901,174.123 Z M138.634,168.451 C138.306,168.451 137.988,168.615 137.682,168.943 C137.365122,169.289276 137.138442,169.708291 137.022,170.163 L137.04,170.197 L139.647,170.197 L139.671,170.045 C139.745,169.572 139.701,169.188 139.536,168.894 C139.372,168.599 139.071,168.451 138.634,168.451 Z M144.411,166.131 L144.101,167.661 L145.196,167.661 L145.026,168.516 L143.931,168.516 L143.163,172.366 C143.097,172.682 143.106,172.896 143.193,173.006 C143.278,173.118 143.417,173.174 143.608,173.174 C143.698,173.174 143.807,173.165 143.934,173.147 C144.061,173.13 144.161,173.111 144.235,173.092 L144.229,173.882 C144.116,173.953 143.955,174.011 143.746,174.056 C143.542951,174.100139 143.335791,174.122599 143.128,174.123 C142.718,174.123 142.402,173.979 142.182,173.689 C141.961,173.4 141.912,172.959 142.032,172.365 L142.8,168.515 L141.874,168.515 L142.044,167.66 L142.97,167.66 L143.28,166.13 L144.411,166.13 L144.411,166.131 Z" id="Shape" fill="#6D6E70" fill-rule="nonzero"></path>
            <path d="M25.513,59.055 L23.733,59.055 L23.733,48.391 L25.513,48.391 L25.513,59.055 Z M29.329,51.13 L29.431,52.273 C29.69,51.868 30.016,51.551 30.409,51.324 C30.802,51.097 31.245,50.984 31.739,50.984 C32.563,50.984 33.207,51.234 33.669,51.734 C34.129,52.235 34.36,53.015 34.36,54.074 L34.36,59.055 L32.58,59.055 L32.58,54.09 C32.58,53.495 32.457,53.071 32.21,52.82 C31.964,52.568 31.59,52.442 31.086,52.442 C30.4372226,52.4315023 29.8296691,52.7591419 29.482,53.307 L29.482,59.057 L27.702,59.057 L27.702,51.13 L29.329,51.13 Z M38.11,59.055 L36.33,59.055 L36.33,51.13 L38.11,51.13 L38.11,59.055 Z M38.11,49.189 L36.33,49.189 L36.33,47.629 L38.11,47.629 L38.11,49.189 Z M41.992,57.634 L46.226,57.634 L46.226,59.055 L39.788,59.055 L39.788,57.891 L43.787,52.566 L39.868,52.566 L39.868,51.13 L46.035,51.13 L46.035,52.258 L41.992,57.634 Z M49.602,59.055 L47.822,59.055 L47.822,51.13 L49.602,51.13 L49.602,59.055 Z M49.602,49.189 L47.822,49.189 L47.822,47.629 L49.602,47.629 L49.602,49.189 Z M51.265,55.019 C51.265,53.843 51.587,52.876 52.231,52.119 C52.886,51.362 53.772,50.984 54.891,50.984 C56.028,50.984 56.919,51.362 57.563,52.119 C58.213,52.871 58.538,53.838 58.538,55.019 L58.538,55.173 C58.538,56.365 58.213,57.336 57.563,58.088 C56.919,58.835 56.033,59.208 54.905,59.208 C53.772,59.208 52.881,58.833 52.231,58.081 C51.587,57.329 51.265,56.36 51.265,55.173 L51.265,55.019 Z M53.045,55.173 C53.045,55.945 53.195,56.575 53.499,57.063 C53.796,57.546 54.265,57.788 54.905,57.788 C55.525,57.788 55.989,57.546 56.296,57.063 C56.609,56.575 56.766,55.945 56.766,55.173 L56.766,55.019 C56.766,54.263 56.609,53.64 56.296,53.152 C55.989,52.659 55.52,52.412 54.89,52.412 C54.27,52.412 53.806,52.659 53.499,53.152 C53.196,53.645 53.044,54.267 53.044,55.019 L53.044,55.173 L53.045,55.173 Z M270.617,86.798 L265.944,86.798 L265.944,91.346 L264.164,91.346 L264.164,80.682 L271.364,80.682 L271.364,82.11 L265.944,82.11 L265.944,85.37 L270.617,85.37 L270.617,86.798 Z M274.536,91.346 L272.756,91.346 L272.756,83.421 L274.536,83.421 L274.536,91.346 Z M274.536,81.481 L272.756,81.481 L272.756,79.921 L274.536,79.921 L274.536,81.481 Z M278.139,83.421 L278.242,84.564 C278.5,84.159 278.826,83.843 279.219,83.616 C279.613,83.389 280.056,83.275 280.549,83.275 C281.374,83.275 282.017,83.525 282.479,84.025 C282.94,84.526 283.171,85.306 283.171,86.365 L283.171,91.346 L281.391,91.346 L281.391,86.38 C281.391,85.785 281.268,85.361 281.021,85.11 C280.775,84.858 280.4,84.733 279.897,84.733 C279.24842,84.7222868 278.64091,85.0495241 278.293,85.597 L278.293,91.347 L276.513,91.347 L276.513,83.42 L278.139,83.42 L278.139,83.421 Z M288.422,91.501 C287.299,91.501 286.405,91.133 285.738,90.398 C285.072,89.663 284.738,88.719 284.738,87.567 L284.738,87.274 C284.738,86.122 285.069,85.166 285.731,84.407 C286.392,83.647 287.221,83.27 288.217,83.275 C289.287,83.275 290.106,83.598 290.675,84.245 C291.243,84.892 291.528,85.76 291.528,86.849 L291.528,87.897 L286.584,87.897 L286.569,87.933 C286.599,88.563 286.783,89.078 287.122,89.479 C287.462,89.879 287.932,90.079 288.532,90.079 C289.011,90.079 289.421,90.021 289.762,89.903 C290.104,89.786 290.434,89.618 290.752,89.398 L291.322,90.563 C291.025,90.826 290.629,91.048 290.136,91.229 C289.643,91.409 289.072,91.5 288.422,91.5 L288.422,91.501 Z M288.217,84.703 C287.777,84.703 287.417,84.878 287.133,85.227 C286.85,85.576 286.674,86.019 286.606,86.557 L286.621,86.593 L289.763,86.593 L289.763,86.41 C289.763,85.907 289.635,85.497 289.378,85.18 C289.122,84.862 288.735,84.703 288.218,84.703 L288.217,84.703 Z" id="Shape" fill="#2A3052" fill-rule="nonzero"></path>
            <path d="M268.937,141.693 L266.577,141.693 L265.156,148.811 L264.1,148.811 L265.522,141.693 L263.17,141.693 L263.34,140.845 L269.107,140.845 L268.937,141.693 Z M271.2,148.811 L271.2,148.367 C271.2,148.252 271.222,148.137 271.24,148.019 C270.995259,148.276116 270.711839,148.493404 270.4,148.663 C270.111637,148.830167 269.785272,148.920709 269.452,148.926 C268.999075,148.96252 268.555563,148.782668 268.256,148.441 C267.989091,148.06504 267.908444,147.587787 268.037,147.145 C268.127,146.587 268.452,146.095 268.93,145.793 C269.48467,145.471534 270.119446,145.314748 270.76,145.341 L271.77,145.341 L271.885,144.756 C271.970711,144.472241 271.927574,144.165162 271.767,143.916 C271.569293,143.707224 271.286132,143.601638 271,143.63 C270.7,143.627 270.409,143.72 270.167,143.897 C269.943638,144.043806 269.784532,144.27013 269.722,144.53 L268.722,144.53 L268.722,144.497 C268.822,144.001 269.118,143.567 269.544,143.297 C270.038925,142.945999 270.634475,142.765264 271.241,142.782 C271.757539,142.753957 272.262266,142.94323 272.633,143.304 C272.993,143.707 273.117,144.269 272.959,144.786 L272.389,147.634 C272.344,147.838 272.311,148.044 272.289,148.252 C272.270465,148.444221 272.270465,148.637779 272.289,148.83 L271.2,148.811 Z M269.8,148.023 C270.119,148.015 270.43,147.926 270.704,147.763 C270.984,147.618 271.227,147.41 271.414,147.156 L271.634,146.066989 L270.589,146.067 C270.236188,146.065701 269.89317,146.182975 269.615,146.4 C269.355,146.584 269.171,146.857 269.1,147.167 C269.029844,147.381198 269.061134,147.615692 269.185,147.804 C269.346551,147.97045 269.576802,148.05152 269.807,148.023 L269.8,148.023 Z M277.3,143.845 L276.722,143.808 C276.483866,143.805999 276.251044,143.878362 276.056,144.015 C275.83997,144.166272 275.660297,144.363707 275.53,144.593 L274.685,148.811 L273.63,148.811 L274.815,142.886 L275.759,142.886 L275.693,143.682 C275.876,143.414 276.112,143.186 276.385,143.012 C276.635,142.858 276.922,142.777 277.215,142.778 L277.452,142.778 C277.516113,142.787867 277.57932,142.802916 277.641,142.823 L277.3,143.845 Z M277.619,145.852 C277.74108,145.015181 278.07766,144.224201 278.596,143.556 C279.022395,143.048941 279.656733,142.763986 280.319,142.782 C280.622,142.777 280.921,142.85 281.189,142.993 C281.445,143.136 281.658,143.346 281.804,143.6 L282.034,142.89 L282.934,142.89 L281.767,148.734 C281.664306,149.4483 281.313899,150.103808 280.777,150.586 C280.232669,151.018285 279.550401,151.239196 278.856,151.208 C278.575492,151.202619 278.29672,151.16265 278.026,151.089 C277.764582,151.021294 277.515038,150.914058 277.286,150.771 L277.715,149.934 C277.895,150.056 278.095,150.147 278.307,150.2 C278.549,150.267 278.797,150.3 279.048,150.3 C279.458,150.318 279.859,150.17 280.159,149.89 C280.468,149.576 280.671,149.175 280.741,148.741 L280.826,148.337 C280.421801,148.722035 279.884231,148.93563 279.326,148.933 C278.718141,148.949578 278.154842,148.615411 277.878,148.074 C277.537998,147.427752 277.450663,146.678101 277.633,145.971 L277.619,145.852 Z M278.656,145.963 C278.516,146.463 278.545,146.993 278.737,147.474 C278.914551,147.856501 279.312971,148.086513 279.733,148.049 C279.985,148.05 280.232,147.972 280.437,147.826 C280.667,147.656 280.862,147.442 281.011,147.196 L281.563,144.437 C281.473627,144.210896 281.32213,144.014678 281.126,143.871 C280.917774,143.722699 280.666485,143.647137 280.411,143.656 C279.963,143.656 279.545,143.881 279.3,144.256 C278.974036,144.73489 278.757886,145.279874 278.667,145.852 L278.656,145.963 Z M285.615,148.926 C284.945447,148.963095 284.304968,148.64854 283.925,148.096 C283.524888,147.461736 283.39188,146.694964 283.555,145.963 L283.593,145.723 C283.698726,144.919388 284.062658,144.171872 284.63,143.593 C285.093222,143.091649 285.739626,142.799108 286.422,142.782 C287.037457,142.72897 287.633712,143.011809 287.982,143.522 C288.312,144.105 288.412,144.788 288.267,145.442 L288.156,146.119 L284.589,146.119 C284.492,146.604 284.55,147.106 284.756,147.556 C284.95,147.91 285.334,148.118 285.737,148.086 C286.046,148.09 286.352,148.036 286.641,147.926 C286.91,147.828 287.161,147.686 287.381,147.504 L287.681,148.204 C287.433159,148.430599 287.144317,148.607774 286.83,148.726 C286.441,148.87 286.029,148.938 285.615,148.926 Z M286.296,143.63 C285.948,143.65 285.626,143.817 285.407,144.09 C285.112835,144.412986 284.902055,144.802964 284.793,145.226 L284.811,145.26 L287.244,145.26 L287.267,145.115 C287.344,144.753 287.3,144.375 287.141,144.041 C286.962,143.752688 286.633316,143.59282 286.296,143.63 Z M291.693,141.463 L291.403,142.889 L292.426,142.889 L292.266,143.689 L291.244,143.689 L290.526,147.282 C290.457015,147.479565 290.467777,147.696243 290.556,147.886 C290.650728,147.988871 290.786344,148.044217 290.926,148.037 C291.028,148.036 291.129,148.029 291.23,148.015 C291.348,148.015 291.44,147.982 291.511,147.963 L291.511,148.704 C291.371,148.783 291.218,148.836 291.059,148.864 C290.869,148.907 290.676,148.93 290.481,148.93 C290.138156,148.948065 289.808487,148.795766 289.6,148.523 C289.378753,148.149603 289.3278,147.699399 289.46,147.286 L290.178,143.693 L289.326,143.693 L289.481,142.893 L290.344,142.893 L290.637,141.467 L291.693,141.463 Z" id="Shape" fill="#6D6E70" fill-rule="nonzero"></path>
            <path d="M184.598,172.348 C184.238,172.824 183.678,173.248 182.918,173.618 C182.156,173.988 181.195,174.174 180.033,174.174 C178.555,174.174 177.349,173.715 176.413,172.796 C175.478,171.878 175.011,170.686 175.011,169.219 L175.011,166.695 C175.011,165.235 175.461,164.043 176.36,163.122 C177.259,162.2 178.417,161.74 179.833,161.74 C181.305,161.74 182.433,162.098 183.216,162.815 C183.999,163.531 184.399,164.473 184.416,165.641 L184.399,165.691 L182.116,165.691 C182.072,165.049 181.867,164.541 181.502,164.168 C181.137,163.794 180.602,163.608 179.9,163.608 C179.158,163.608 178.56,163.894 178.107,164.467 C177.653,165.039 177.427,165.777 177.427,166.679 L177.427,169.219 C177.427,170.137 177.661,170.883 178.132,171.456 C178.602,172.029 179.236,172.315 180.032,172.315 C180.597,172.315 181.051,172.257 181.394,172.141 C181.737,172.024 181.997,171.881 182.174,171.709 L182.174,169.468 L180.033,169.468 L180.033,167.791 L184.598,167.791 L184.598,172.348 Z M191.969,172.705 C191.692,173.175 191.341,173.538 190.915,173.792 C190.489,174.047 189.999,174.174 189.445,174.174 C188.499,174.174 187.759,173.871 187.225,173.265 C186.691,172.659 186.425,171.717 186.425,170.439 L186.425,165.019 L188.84,165.019 L188.84,170.456 C188.84,171.109 188.95,171.578 189.172,171.863 C189.393,172.148 189.72,172.29 190.152,172.29 C190.539,172.29 190.871,172.228 191.147,172.103 C191.418851,171.98251 191.653852,171.792025 191.828,171.551 L191.828,165.019 L194.252,165.019 L194.252,174 L192.185,174 L191.969,172.705 Z M201.349,174 C201.258559,173.789697 201.182387,173.573541 201.121,173.353 C201.057003,173.124309 201.011194,172.890915 200.984,172.655 C200.740681,173.086106 200.404575,173.457736 200,173.743 C199.593,174.03 199.108,174.174 198.543,174.174 C197.603,174.174 196.878,173.932 196.369,173.448 C195.859,172.964 195.605,172.304 195.605,171.468 C195.605,170.588 195.944,169.906 196.622,169.422 C197.3,168.938 198.289,168.696 199.589,168.696 L200.942,168.696 L200.942,167.982 C200.942,167.55 200.829,167.215 200.602,166.978 C200.375,166.74 200.04,166.621 199.598,166.621 C199.205,166.621 198.902,166.716 198.688,166.907 C198.476,167.097 198.369,167.362 198.369,167.7 L196.029,167.691 L196.019,167.641 C195.981,166.883 196.31,166.229 197.008,165.678 C197.705,165.128 198.621,164.853 199.755,164.853 C200.829,164.853 201.7,165.125 202.37,165.67 C203.04,166.215 203.374,166.991 203.374,167.999 L203.374,171.709 C203.374,172.129 203.406,172.525 203.47,172.896 C203.534,173.266 203.635,173.635 203.773,174 L201.349,174 Z M199.133,172.381 C199.534459,172.387943 199.929348,172.278541 200.27,172.066 C200.602,171.856 200.826,171.612 200.942,171.336 L200.942,170.066 L199.589,170.066 C199.075,170.066 198.684,170.194 198.419,170.451 C198.160021,170.691983 198.015075,171.031279 198.02,171.385 C198.02,171.685 198.12,171.925 198.32,172.107 C198.518,172.29 198.79,172.381 199.133,172.381 Z M204.835,169.584 C204.835,168.167 205.141,167.024 205.753,166.156 C206.364,165.286 207.226,164.853 208.338,164.853 C208.787,164.853 209.191,164.949 209.55,165.143 C209.91,165.337 210.225,165.613 210.497,165.973 L210.497,161.051 L212.929,161.051 L212.929,174 L210.845,174 L210.645,172.904 C210.364,173.319 210.03,173.634 209.645,173.851 C209.239517,174.071689 208.783562,174.183007 208.322,174.174 C207.22,174.174 206.364,173.77 205.752,172.962 C205.142,172.154 204.835,171.086 204.835,169.758 L204.835,169.584 Z M207.251,169.758 C207.251,170.544 207.384,171.163 207.649,171.614 C207.915,172.064 208.347,172.29 208.944,172.29 C209.293,172.29 209.597,172.22 209.857,172.078 C210.117,171.938 210.33,171.731 210.497,171.46 L210.497,167.633 C210.343203,167.36352 210.124601,167.136669 209.861,166.973 C209.589012,166.811624 209.277178,166.729854 208.961,166.737 C208.369,166.737 207.936,167 207.661,167.525 C207.388,168.051 207.251,168.737 207.251,169.584 L207.251,169.758 Z M220.076,174 C219.98522,173.789722 219.908713,173.573566 219.847,173.353 C219.783003,173.124309 219.737194,172.890915 219.71,172.655 C219.466969,173.086002 219.131212,173.457623 218.727,173.743 C218.32,174.03 217.834,174.174 217.27,174.174 C216.33,174.174 215.604,173.932 215.095,173.448 C214.586,172.964 214.331,172.304 214.331,171.468 C214.331,170.588 214.671,169.906 215.348,169.422 C216.026,168.938 217.015,168.696 218.316,168.696 L219.669,168.696 L219.669,167.982 C219.669,167.55 219.555,167.215 219.329,166.978 C219.102,166.74 218.767,166.621 218.324,166.621 C217.931,166.621 217.628,166.716 217.415,166.907 C217.202,167.097 217.095,167.362 217.095,167.7 L214.755,167.691 L214.747,167.641 C214.707,166.883 215.037,166.229 215.734,165.678 C216.432,165.128 217.347,164.853 218.482,164.853 C219.555,164.853 220.427,165.125 221.097,165.67 C221.767,166.215 222.101,166.991 222.101,167.999 L222.101,171.709 C222.101,172.129 222.133,172.525 222.196,172.896 C222.26,173.266 222.361,173.635 222.499,174 L220.076,174 Z M217.859,172.381 C218.260798,172.388137 218.656061,172.278728 218.997,172.066 C219.329,171.856 219.553,171.612 219.669,171.336 L219.669,170.066 L218.316,170.066 C217.801,170.066 217.411,170.194 217.146,170.451 C216.887021,170.691983 216.742075,171.031279 216.747,171.385 C216.747,171.685 216.847,171.925 217.046,172.107 C217.245,172.29 217.516,172.381 217.859,172.381 Z M223.562,169.584 C223.562,168.167 223.87,167.024 224.487,166.156 C225.105,165.286 225.969,164.853 227.081,164.853 C227.585,164.853 228.028,164.966 228.41,165.193 C228.791,165.42 229.118,165.743 229.39,166.164 L229.58,165.019 L231.672,165.019 L231.672,173.959 C231.672,175.126 231.289,176.029 230.522,176.669 C229.756,177.308 228.689,177.627 227.322,177.627 C226.868,177.627 226.387,177.565 225.878,177.441 C225.390073,177.324307 224.916779,177.153237 224.467,176.931 L224.915,175.121 C225.285,175.298 225.663,175.431 226.048,175.523 C226.460576,175.617449 226.882765,175.663427 227.306,175.66 C227.97,175.66 228.458,175.522 228.771,175.245 C229.083,174.968 229.24,174.537 229.24,173.95 L229.24,173.137 C228.989759,173.461977 228.669041,173.725937 228.302,173.909 C227.942,174.086 227.53,174.174 227.065,174.174 C225.964,174.174 225.105,173.769 224.487,172.958 C223.87,172.148 223.562,171.081 223.562,169.758 L223.562,169.584 Z M225.986,169.758 C225.986,170.544 226.119,171.163 226.384,171.614 C226.65,172.064 227.081,172.29 227.679,172.29 C228.049,172.29 228.364,172.222 228.621,172.087 C228.879,171.951 229.085,171.753 229.24,171.493 L229.24,167.592 C229.094007,167.329947 228.880202,167.111997 228.621,166.961 C228.364,166.811 228.055,166.737 227.696,166.737 C227.104,166.737 226.671,167 226.396,167.525 C226.123,168.051 225.986,168.737 225.986,169.584 L225.986,169.758 Z M235.747,165.018 L235.855,166.305 C236.155,165.845 236.522,165.489 236.959,165.235 C237.40573,164.977785 237.913563,164.845817 238.429,164.853 C239.336,164.853 240.045,165.138 240.554,165.708 C241.063,166.278 241.317,167.171 241.317,168.388 L241.317,174 L238.885,174 L238.885,168.397 C238.885,167.794 238.763,167.367 238.52,167.115 C238.276,166.863 237.908,166.737 237.416,166.737 C236.821795,166.718602 236.257876,166.99906 235.914,167.484 L235.914,174 L233.49,174 L233.49,165.019 L235.747,165.019 L235.747,165.018 Z M248.397,174 C248.306899,173.789672 248.231061,173.573517 248.17,173.353 C248.106003,173.124309 248.060194,172.890915 248.033,172.655 C247.789681,173.086106 247.453575,173.457736 247.049,173.743 C246.642,174.03 246.157,174.174 245.592,174.174 C244.652,174.174 243.927,173.932 243.417,173.448 C242.908,172.964 242.654,172.304 242.654,171.468 C242.654,170.588 242.993,169.906 243.671,169.422 C244.348,168.938 245.338,168.696 246.638,168.696 L247.991,168.696 L247.991,167.982 C247.991,167.55 247.878,167.215 247.651,166.978 C247.424,166.74 247.089,166.621 246.646,166.621 C246.254,166.621 245.951,166.716 245.737,166.907 C245.524,167.097 245.417,167.362 245.417,167.7 L243.077,167.691 L243.069,167.641 C243.03,166.883 243.359,166.229 244.057,165.678 C244.754,165.128 245.67,164.853 246.804,164.853 C247.878,164.853 248.749,165.125 249.419,165.67 C250.089,166.215 250.423,166.991 250.423,167.999 L250.423,171.709 C250.423,172.129 250.455,172.525 250.519,172.896 C250.582,173.266 250.683,173.635 250.822,174 L248.398,174 L248.397,174 Z M246.182,172.381 C246.583459,172.387943 246.978348,172.278541 247.319,172.066 C247.651,171.856 247.875,171.612 247.991,171.336 L247.991,170.066 L246.638,170.066 C246.123,170.066 245.733,170.194 245.468,170.451 C245.209021,170.691983 245.064075,171.031279 245.069,171.385 C245.069,171.685 245.169,171.925 245.369,172.107 C245.567,172.29 245.839,172.381 246.182,172.381 Z M254.864,169.833 L252.44,169.833 L252.44,161.914 L254.864,161.914 L254.864,169.833 Z M254.864,174 L252.44,174 L252.44,171.875 L254.864,171.875 L254.864,174 Z" id="Shape" fill="#FFFFFF" fill-rule="nonzero"></path>
            <path d="M20.13,16.786 L20.13,20.834 L18.094,20.834 L18.094,10.697 L21.924,10.697 C22.8905158,10.6395803 23.84708,10.9187402 24.631,11.487 C25.295,12.027 25.66,12.853 25.612,13.708 C25.622,14.19 25.479,14.663 25.202,15.057 C24.8900585,15.463764 24.4735977,15.7782697 23.997,15.967 C24.5210584,16.0942427 24.9801262,16.4095404 25.287,16.853 C25.563,17.314 25.7,17.845 25.683,18.383 L25.683,19.123 C25.684,19.423 25.722,19.721 25.793,20.013 C25.847,20.278 25.986,20.519 26.19,20.697 L26.19,20.842 L24.094,20.842 C23.882667,20.6501305 23.7506958,20.3861881 23.724,20.102 C23.6724242,19.7722018 23.647344,19.4388026 23.649,19.105 L23.649,18.383 C23.6751482,17.9513344 23.5275115,17.527149 23.239,17.205 C22.9241626,16.9101481 22.5014705,16.7585145 22.071,16.786 L20.131,16.786 L20.13,16.786 Z M20.13,15.216 L21.886,15.216 C22.343,15.25 22.796,15.118 23.164,14.846 C23.461,14.572 23.616,14.178 23.586,13.776 C23.6068911,13.3626509 23.4538657,12.959418 23.164,12.664 C22.8212919,12.368393 22.3754235,12.2206092 21.924,12.253 L20.13,12.253 L20.13,15.216 Z M30.686,20.979 C29.7126788,21.0210055 28.7683551,20.6421102 28.094,19.939 C27.4319994,19.2163666 27.0807224,18.2623872 27.116,17.283 L27.116,17.005 C27.0759135,16.0016811 27.405408,15.0185348 28.042,14.242 C28.6556372,13.5190499 29.5685881,13.1197722 30.516,13.16 C31.4019664,13.1070133 32.2667762,13.4442416 32.883,14.083 C33.473,14.771 33.776,15.662 33.727,16.568 L33.727,17.678 L29.223,17.678 L29.223,17.72 C29.245,18.172 29.422,18.604 29.723,18.942 C30.0347841,19.2566088 30.465608,19.4238485 30.908,19.402 C31.284,19.41 31.658,19.364 32.02,19.264 C32.359,19.156 32.685,19.012 32.994,18.834 L33.546,20.094 C33.1838047,20.3729071 32.7747182,20.5849007 32.338,20.72 C31.8049734,20.8951455 31.2470528,20.9826161 30.686,20.979 Z M30.512,14.731 C30.1624739,14.7169831 29.8289984,14.8782817 29.623,15.161 C29.3829647,15.4946146 29.2384474,15.8873697 29.205,16.297 L29.227,16.331 L31.72,16.331 L31.72,16.149 C31.738415,15.778953 31.6312915,15.4135351 31.416,15.112 C31.1900905,14.851635 30.8561224,14.7108808 30.512,14.731 Z M38.979,18.761 C38.9742455,18.5276357 38.8534864,18.3119944 38.657,18.186 C38.2873687,17.9645456 37.8786232,17.8161886 37.453,17.749 C36.7295181,17.6379956 36.0405987,17.3644792 35.438,16.949 C34.99,16.602 34.738,16.059 34.76,15.494 C34.7616139,14.8471353 35.0643753,14.2379158 35.579,13.846 C36.2050548,13.3669529 36.9806411,13.125313 37.768,13.164 C38.5869576,13.1220557 39.3956534,13.3612772 40.06,13.842 C40.6036005,14.2366754 40.9127522,14.8778927 40.883,15.549 L40.883,15.586 L38.916,15.586 C38.9278868,15.3104584 38.8246424,15.0423851 38.631,14.846 C38.397571,14.6417647 38.0924415,14.5388554 37.783,14.56 C37.5033815,14.5462358 37.2278737,14.6315795 37.005,14.801 C36.8242081,14.949104 36.7204659,15.1713034 36.723,15.405 C36.7211841,15.6325357 36.8324736,15.8461216 37.02,15.975 C37.39,16.185 37.797,16.32 38.22,16.371 C38.9577288,16.4798174 39.6607161,16.7562231 40.275,17.179 C40.724,17.537 40.974,18.087 40.949,18.66 C40.957194,19.3253852 40.6302699,19.9502988 40.079,20.323 C39.4034481,20.7800391 38.5975998,21.0050168 37.783,20.964 C36.9237762,21.0122527 36.076981,20.7416201 35.405,20.204 C34.8667069,19.7909221 34.5570591,19.1463793 34.571,18.468 L34.571,18.427 L36.423,18.427 C36.408,18.765 36.555,19.09 36.82,19.301 C37.11,19.493 37.454,19.588 37.801,19.571 C38.104,19.593 38.405,19.516 38.661,19.353 C38.8592001,19.22068 38.9784476,18.9983098 38.979,18.76 L38.979,18.761 Z M45.597,20.979 C44.6238354,21.0200901 43.6798746,20.6413404 43.005,19.939 C42.3454776,19.2151152 41.9958232,18.2616427 42.031,17.283 L42.031,17.005 C41.9911912,16.0023929 42.3190819,15.0197876 42.953,14.242 C44.2479032,12.86339 46.413946,12.7918444 47.797,14.082 C48.385,14.772 48.687,15.662 48.638,16.568 L48.638,17.678 L44.127,17.678 L44.127,17.72 C44.147,18.172 44.323,18.603 44.623,18.942 C44.937,19.268 45.376,19.442 45.827,19.42 C46.202,19.429 46.577,19.383 46.938,19.283 C47.278,19.175 47.606,19.031 47.916,18.853 L48.464,20.113 C48.104,20.391 47.696,20.603 47.26,20.738 C46.723,20.908 46.161,20.99 45.597,20.978 L45.597,20.979 Z M45.412,14.731 C45.0626234,14.7176994 44.7294671,14.8788436 44.523,15.161 C44.2883013,15.4962001 44.1490136,15.8888324 44.12,16.297 L44.142,16.331 L46.631,16.331 L46.631,16.149 C46.6487905,15.7796264 46.5432542,15.4148226 46.331,15.112 C46.10182,14.8472792 45.7612563,14.706088 45.412,14.731 Z M52.223,11.457 L52.223,13.308 L53.49,13.308 L53.49,14.738 L52.223,14.738 L52.223,18.564 C52.203,18.789 52.268,19.014 52.405,19.194 C52.535,19.332 52.719,19.407 52.908,19.401 C53,19.408 53.091,19.408 53.183,19.401 C53.273,19.386 53.362,19.365 53.449,19.338 L53.627,20.82 C53.4303062,20.8837104 53.2299407,20.9354715 53.027,20.975 C52.817,21.011 52.606,21.027 52.394,21.023 C51.798188,21.0637058 51.2121114,20.8559183 50.775,20.449 C50.3477356,19.9312428 50.1428057,19.2654005 50.205,18.597 L50.205,14.731 L49.094,14.731 L49.094,13.3 L50.204,13.3 L50.204,11.45 L52.224,11.458 L52.223,11.457 Z M66.157,17.383 L66.157,17.427 C66.2206528,18.3962496 65.8549674,19.344472 65.157,20.02 C64.3677425,20.6968597 63.3457447,21.0394388 62.308,20.975 C61.1997555,21.016143 60.1251304,20.5902113 59.346,19.801 C58.571662,18.9881518 58.158725,17.8968442 58.201,16.775 L58.201,14.765 C58.1571203,13.6479858 58.5564548,12.5588917 59.312,11.735 C60.0624861,10.9425098 61.1172238,10.5105626 62.208,10.549 C63.2757018,10.485082 64.327564,10.830934 65.149,11.516 C65.8682741,12.1945814 66.2461427,13.1594303 66.179,14.146 L66.179,14.186 L64.2,14.186 C64.238354,13.631933 64.0678219,13.0835901 63.722,12.649 C63.3212436,12.2652325 62.7748941,12.072189 62.222,12.119 C61.6445199,12.1027691 61.0986262,12.3821249 60.774,12.86 C60.3993551,13.4170527 60.2125988,14.0792841 60.241,14.75 L60.241,16.771 C60.211182,17.4494392 60.4093841,18.1183273 60.804,18.671 C61.1568857,19.0987662 61.6681544,19.3651459 62.2209357,19.4092478 C62.7737171,19.4533497 63.3207541,19.2714035 63.737,18.905 C64.073,18.471 64.237,17.929 64.197,17.383 L66.156,17.383 L66.157,17.383 Z M71.875,20.834 C71.7993722,20.6583483 71.7352371,20.4779684 71.683,20.294 C71.631839,20.1014042 71.5934225,19.9056469 71.568,19.708 C71.364,20.069 71.083,20.38 70.746,20.62 C70.3873102,20.8687183 69.9594085,20.9981735 69.523,20.99 C68.8581844,21.0357379 68.2021247,20.8176501 67.697,20.383 C67.257094,19.9459975 67.024308,19.3422089 67.057,18.723 C67.0298149,18.0428271 67.3504501,17.3955283 67.908,17.005 C68.6565249,16.5530257 69.5254067,16.340865 70.398,16.397 L71.534,16.397 L71.534,15.787 C71.5535322,15.4800638 71.4511091,15.1778258 71.249,14.946 C70.7852209,14.5736887 70.1322508,14.549309 69.642,14.886 C69.4585596,15.0577842 69.3607654,15.3020865 69.375,15.553 L67.412,15.553 L67.412,15.508 C67.3880573,14.8548 67.6996288,14.2346748 68.238,13.864 C68.9052962,13.3752765 69.7197644,13.1296657 70.546,13.168 C71.3347294,13.1344748 72.1102905,13.3782529 72.738,13.857 C73.313,14.337 73.626,15.061 73.583,15.808 L73.583,18.923 C73.578,19.253 73.6,19.583 73.649,19.908 C73.703,20.225 73.789,20.535 73.905,20.834 L71.875,20.834 Z M70.023,19.479 C70.361,19.484 70.693,19.392 70.979,19.212 C71.2252343,19.0717826 71.4219328,18.8586635 71.542,18.602 L71.542,17.549 L70.405,17.549 C70.0473336,17.5227111 69.6939351,17.6400308 69.423,17.875 C69.2061736,18.0779342 69.085222,18.3630604 69.09,18.66 C69.0800017,18.8887899 69.1723607,19.1101582 69.342,19.264 C69.532,19.418 69.772,19.494 70.016,19.479 L70.023,19.479 Z M77.249,20.834 L75.216,20.834 L75.216,9.975 L77.249,9.975 L77.249,20.835 L77.249,20.834 Z M81.057,20.834 L79.023,20.834 L79.023,9.975 L81.057,9.975 L81.057,20.835 L81.057,20.834 Z" id="Shape" fill="#000000" fill-rule="nonzero"></path>
        </g>
    </g>
</svg>