<svg width="299" height="197" xmlns="http://www.w3.org/2000/svg"><g fill="none" fill-rule="evenodd"><path fill="#F1F2F2" d="M0 0h299v197H0z"/><path d="M1.987 1.98v193.04h295.026V1.98H1.987zM299 0v197H0V0h299z" fill="#C2C2C2" fill-rule="nonzero"/><path d="M5 54.894v-1.207h290v1.207H5zM5 75.22v-1.207h290v1.207H5zm0 20.29v-1.207h290v1.207H5zm0 40.618v-1.207h290v1.207H5zm0 20.29v-1.207h290v1.207H5zm0 20.29v-1.207h290v1.207H5zM39.42 34h1.209v160H39.42V34zm36.709 0h1.208v160h-1.208V34zm36.67 0h1.209v160H112.8V34zm36.71 0h1.207v160h-1.208V34zm36.67 0h1.208v160h-1.208V34zm36.671 0h1.208v160h-1.208V34zm36.708 0h1.209v160h-1.209V34z" fill="#DFDEDE" fill-rule="nonzero"/><path fill="#C2C2C2" fill-rule="nonzero" d="M.805 33.951v-2.447H298.63v2.447z"/><path d="M125.444 80.798l-37.362-26.79a1 1 0 0 0-.49-.182l-34.958-3.291a1 1 0 1 0-.188 1.99l34.69 3.266L124.44 82.54a1 1 0 0 0 .357.161l36.539 8.486 36.349 23.682a1 1 0 0 0 .424.154l37.44 4.595a1 1 0 1 0 .243-1.986l-37.21-4.565-36.302-23.652a1 1 0 0 0-.32-.136l-36.516-8.48zm36.064 10.429l-.32-.136.148.096.172.04zm-74.103-35.41l-.489-.183.22.157.27.026z" fill="#2A3052" fill-rule="nonzero"/><path d="M190.262 150.563h-35.1l-5.4-8.213-5.4 8.213h-35.1c-2.624 0-4.725 2.137-4.725 4.8v24.787c0 2.662 2.138 4.8 4.725 4.8h81c2.625 0 4.726-2.137 4.726-4.8v-24.787c0-2.663-2.138-4.8-4.726-4.8z" fill="#E88024"/><ellipse cx="8.512" cy="9.225" rx="8.137" ry="8.475" opacity=".6" fill="#FFF" transform="translate(226.75 109.75)"/><path d="M235.262 127.773c-4.675 0-8.46-3.942-8.46-8.798s3.785-8.798 8.46-8.798c4.676 0 8.461 3.942 8.461 8.798s-3.785 8.798-8.46 8.798zm0-.646c4.313 0 7.815-3.647 7.815-8.152 0-4.505-3.502-8.152-7.815-8.152-4.312 0-7.814 3.647-7.814 8.152 0 4.505 3.502 8.152 7.814 8.152z" fill="#E88024" fill-rule="nonzero"/><g transform="translate(79.5 47)"><ellipse cx="8.137" cy="8.475" rx="8.137" ry="8.475" opacity=".6" fill="#FFF"/><ellipse stroke="#E88024" stroke-width=".646" cx="8.137" cy="8.475" rx="8.137" ry="8.475"/></g><path fill="#2A3052" fill-rule="nonzero" d="M5 137v-1h289.284v1z"/><path d="M24.428 13.116h-3.266V22h-2.198v-8.884h-3.222v-1.78h8.686v1.78zm4.11 9.03c-1.163 0-2.109-.356-2.839-1.069s-1.095-1.662-1.095-2.849v-.205c0-.796.154-1.508.461-2.135a3.386 3.386 0 0 1 1.308-1.45c.564-.34 1.207-.51 1.93-.51 1.084 0 1.937.343 2.56 1.026.622.684.933 1.653.933 2.908v.864H26.75c.068.518.275.933.619 1.245.344.313.78.469 1.307.469.816 0 1.453-.295 1.912-.886l1.04 1.164c-.317.45-.747.8-1.29 1.051a4.23 4.23 0 0 1-1.8.377zm-.243-6.503c-.42 0-.76.141-1.021.424-.262.284-.429.689-.502 1.216h2.944v-.168c-.01-.469-.136-.832-.38-1.088-.245-.256-.591-.384-1.04-.384zm6.65-1.568l.067.916c.566-.708 1.325-1.062 2.278-1.062.84 0 1.464.246 1.875.74.41.493.62 1.23.63 2.211V22h-2.117v-5.068c0-.45-.098-.776-.293-.978-.196-.203-.52-.304-.974-.304-.596 0-1.043.254-1.34.762V22h-2.117v-7.925h1.992zm6.124 3.904c0-1.235.277-2.22.831-2.952.554-.732 1.312-1.098 2.274-1.098.772 0 1.409.288 1.912.864V10.75h2.124V22h-1.912l-.102-.842c-.528.659-1.206.988-2.036.988-.933 0-1.681-.367-2.245-1.102-.564-.735-.846-1.756-.846-3.065zm2.117.154c0 .742.129 1.31.388 1.706.259.396.634.594 1.128.594.654 0 1.115-.276 1.384-.828v-3.127c-.264-.552-.72-.828-1.37-.828-1.02 0-1.53.828-1.53 2.483zm10.312 4.013c-1.162 0-2.108-.356-2.838-1.069s-1.095-1.662-1.095-2.849v-.205c0-.796.154-1.508.461-2.135a3.386 3.386 0 0 1 1.308-1.45c.564-.34 1.207-.51 1.93-.51 1.084 0 1.937.343 2.56 1.026.622.684.933 1.653.933 2.908v.864h-5.046c.068.518.275.933.619 1.245.344.313.78.469 1.307.469.816 0 1.453-.295 1.912-.886l1.04 1.164c-.318.45-.747.8-1.29 1.051a4.23 4.23 0 0 1-1.801.377zm-.242-6.503c-.42 0-.76.141-1.021.424-.262.284-.429.689-.502 1.216h2.944v-.168c-.01-.469-.136-.832-.38-1.088-.245-.256-.591-.384-1.04-.384zm6.65-1.568l.067.916c.566-.708 1.325-1.062 2.277-1.062.84 0 1.465.246 1.875.74.41.493.62 1.23.63 2.211V22H62.64v-5.068c0-.45-.098-.776-.293-.978-.196-.203-.52-.304-.974-.304-.596 0-1.043.254-1.34.762V22h-2.117v-7.925h1.992zm8.885 6.218h3.875V22h-6.578v-1.29l3.728-4.92h-3.618v-1.715h6.35v1.253l-3.757 4.965zM78.583 22a2.35 2.35 0 0 1-.212-.71c-.513.57-1.18.856-2 .856-.776 0-1.42-.224-1.93-.673a2.167 2.167 0 0 1-.765-1.7c0-.84.312-1.484.934-1.933.623-.45 1.522-.676 2.7-.681h.973v-.454c0-.367-.094-.66-.282-.88-.188-.219-.484-.329-.89-.329-.356 0-.636.086-.838.256-.203.171-.304.406-.304.704h-2.117c0-.46.142-.884.425-1.275.283-.39.683-.697 1.201-.919.518-.222 1.099-.333 1.743-.333.977 0 1.752.245 2.326.736.573.49.86 1.18.86 2.069v3.435c.005.752.11 1.32.315 1.706V22h-2.139zm-1.75-1.472c.313 0 .6-.07.864-.209.264-.14.46-.326.586-.56v-1.363h-.79c-1.06 0-1.624.367-1.693 1.1l-.007.124c0 .263.093.48.278.651.186.171.44.257.762.257zM90.361 22a2.35 2.35 0 0 1-.213-.71c-.512.57-1.179.856-2 .856-.775 0-1.419-.224-1.929-.673a2.167 2.167 0 0 1-.765-1.7c0-.84.31-1.484.933-1.933.623-.45 1.523-.676 2.7-.681h.974v-.454c0-.367-.094-.66-.282-.88-.188-.219-.485-.329-.89-.329-.357 0-.636.086-.839.256-.203.171-.304.406-.304.704H85.63c0-.46.142-.884.425-1.275.283-.39.684-.697 1.201-.919.518-.222 1.099-.333 1.744-.333.976 0 1.751.245 2.325.736.574.49.86 1.18.86 2.069v3.435c.005.752.11 1.32.316 1.706V22h-2.14zm-1.75-1.472c.312 0 .6-.07.864-.209.263-.14.459-.326.586-.56v-1.363h-.791c-1.06 0-1.624.367-1.692 1.1l-.008.124c0 .263.093.48.279.651.185.171.44.257.761.257zM96.043 22H93.92V10.75h2.124V22zm9.932-5.94a5.75 5.75 0 0 0-.762-.059c-.8 0-1.325.271-1.574.813V22h-2.117v-7.925h2l.058.945c.425-.728 1.013-1.091 1.765-1.091.235 0 .454.031.66.095l-.03 2.036zm3.252 5.94h-2.124v-7.925h2.124V22zm-2.249-9.976c0-.317.107-.578.32-.783.211-.205.5-.308.867-.308.361 0 .65.103.864.308.215.205.323.466.323.783 0 .323-.11.586-.326.791-.218.206-.505.308-.861.308s-.643-.102-.86-.308a1.04 1.04 0 0 1-.327-.79zm11.133 6.087c0 1.27-.27 2.26-.813 2.97-.542.71-1.299 1.065-2.27 1.065-.86 0-1.546-.33-2.058-.988l-.096.842h-1.904V10.75h2.117v4.036c.488-.572 1.13-.857 1.926-.857.967 0 1.725.355 2.274 1.065.55.71.824 1.71.824 3v.117zm-2.116-.154c0-.8-.127-1.385-.381-1.754s-.633-.553-1.136-.553c-.673 0-1.137.276-1.391.828v3.127c.259.557.727.835 1.406.835.684 0 1.133-.337 1.348-1.01.102-.323.154-.814.154-1.473zM124.008 22a2.35 2.35 0 0 1-.212-.71c-.513.57-1.18.856-2 .856-.776 0-1.42-.224-1.93-.673a2.167 2.167 0 0 1-.765-1.7c0-.84.311-1.484.934-1.933.622-.45 1.522-.676 2.699-.681h.974v-.454c0-.367-.094-.66-.282-.88-.188-.219-.485-.329-.89-.329-.356 0-.636.086-.838.256-.203.171-.304.406-.304.704h-2.117c0-.46.141-.884.425-1.275.283-.39.683-.697 1.2-.919.518-.222 1.1-.333 1.744-.333.977 0 1.752.245 2.325.736.574.49.861 1.18.861 2.069v3.435c.005.752.11 1.32.315 1.706V22h-2.139zm-1.75-1.472c.312 0 .6-.07.864-.209.264-.14.46-.326.586-.56v-1.363h-.791c-1.06 0-1.624.367-1.692 1.1l-.007.124c0 .263.093.48.278.651.186.171.44.257.762.257zm9.492-.718c0-.259-.128-.463-.385-.612-.256-.148-.667-.281-1.234-.399-1.884-.395-2.827-1.196-2.827-2.402 0-.703.292-1.29.875-1.762.584-.47 1.347-.706 2.29-.706 1.005 0 1.81.237 2.413.71.603.474.904 1.089.904 1.846h-2.117c0-.303-.097-.553-.293-.75-.195-.199-.5-.297-.915-.297-.357 0-.632.08-.828.241a.763.763 0 0 0-.293.615c0 .235.111.424.334.568.222.144.597.269 1.124.374.527.105.972.223 1.333.355 1.118.41 1.677 1.12 1.677 2.131 0 .723-.31 1.308-.93 1.754-.62.447-1.421.67-2.402.67-.664 0-1.254-.118-1.77-.355-.514-.237-.918-.561-1.211-.974a2.263 2.263 0 0 1-.44-1.337h2.007c.02.376.159.665.417.865.26.2.606.3 1.04.3.406 0 .712-.077.92-.23a.718.718 0 0 0 .311-.605zm7.712 0c0-.259-.128-.463-.384-.612-.256-.148-.668-.281-1.234-.399-1.885-.395-2.827-1.196-2.827-2.402 0-.703.291-1.29.875-1.762.583-.47 1.346-.706 2.289-.706 1.006 0 1.81.237 2.413.71.603.474.905 1.089.905 1.846h-2.117c0-.303-.098-.553-.293-.75-.195-.199-.5-.297-.916-.297-.356 0-.632.08-.827.241a.763.763 0 0 0-.293.615c0 .235.11.424.333.568.222.144.597.269 1.124.374.528.105.972.223 1.333.355 1.118.41 1.678 1.12 1.678 2.131 0 .723-.31 1.308-.93 1.754-.62.447-1.422.67-2.403.67-.664 0-1.254-.118-1.769-.355-.515-.237-.919-.561-1.212-.974a2.263 2.263 0 0 1-.44-1.337h2.007c.02.376.16.665.418.865.259.2.605.3 1.04.3.405 0 .712-.077.92-.23a.718.718 0 0 0 .31-.605zm3.091-1.846c0-.786.152-1.486.454-2.102a3.324 3.324 0 0 1 1.308-1.428c.569-.337 1.229-.505 1.98-.505 1.07 0 1.943.327 2.62.981.676.654 1.053 1.543 1.13 2.666l.016.542c0 1.216-.34 2.191-1.019 2.926-.678.735-1.589 1.102-2.731 1.102-1.143 0-2.055-.366-2.736-1.098-.681-.733-1.022-1.729-1.022-2.988v-.096zm2.117.154c0 .752.142 1.327.425 1.725.283.398.688.597 1.216.597.512 0 .913-.197 1.2-.59.289-.393.433-1.021.433-1.886 0-.737-.144-1.308-.432-1.714-.288-.405-.694-.607-1.216-.607-.518 0-.918.201-1.201.604-.283.403-.425 1.026-.425 1.871z" fill="#000" fill-rule="nonzero"/><g fill="#2A3052" fill-rule="nonzero"><path d="M37.16 64.552l.107 1.107a2.413 2.413 0 0 1 2.143-1.214c.785 0 1.392.214 1.82.714.429.464.643 1.178.643 2.142v4.641h-1.321v-4.605c0-.643-.143-1.107-.393-1.393-.25-.285-.642-.392-1.142-.392-.393 0-.714.107-1 .285a2.062 2.062 0 0 0-.714.75v5.355h-1.32v-7.354l1.177-.036zm-4.674-2.632h1.234v9.751h-1.234V61.92zm21.798 2.569h1.303v7.177h-1.303v-7.177zm.017-3.259v1.294h1.329v-1.295l-1.329.001zM43.917 64.5h1.305v7.178h-1.305V64.5zm.018-3.26v1.294h1.329V61.24h-1.329z"/><path d="M43.893 64.5h1.304v7.178h-1.304V64.5zm.017-3.26v1.294h1.329V61.24H43.91zm3.092 4.235v-1.03h5.49v.869l-3.967 5.38h4.177v.977h-5.7v-.834l3.92-5.362h-3.92zm13.675-1.195c2.157 0 3.12 1.575 3.283 3.393.162 1.818-.603 4.001-2.988 4.188-2.386.186-3.578-1.74-3.578-3.773 0-2.032 1.125-3.807 3.283-3.807v-.001zm-.052 1.038c-.803 0-1.754.483-1.876 2.454-.121 1.97.673 3.052 1.939 3.052s1.935-1.15 1.935-3.052c0-1.903-1.195-2.454-1.998-2.454z"/></g><path d="M185.728 169.038h-2.22v-7.348h2.22v7.348zm0 3.866h-2.22v-1.974h2.22v1.974zm-19.085-8.159h1.597l.08 1.163c.655-.975 1.503-1.409 2.546-1.3.604.062 1.877.26 2.257 1.974.14.629.11 1.691.1 3.135-.005.56-.005 1.53 0 2.91h-1.753v-4.937c0-.58-.162-1.229-.65-1.474-.669-.337-1.929-.196-2.434.654v5.758h-1.743v-7.883zm-47.232 3.718v-1.294h3.914c.044 2.255.044 3.57 0 3.944-.33.988-4.239 2.783-6.763.506-.752-.679-1.106-1.43-1.3-2.569-.008-1.162-.029-2.253-.02-3.284.19-1.264.614-1.982.955-2.39 1.24-1.483 3.218-1.802 4.957-1.201 1.738.6 1.964 1.85 2.105 3.07-.403 0-.615-.017-1.703 0 .11-.686-.515-2.015-2.146-1.942-1.632.073-2.402 1.414-2.402 2.53 0 1.117-.058.742 0 2.96.075 2.55 3.129 3.233 4.548 1.872l.052-2.17-2.197-.032zm58.786-3.858c2.184 0 3.369 1.332 3.668 3.327.3 1.994-.777 4.812-3.514 4.812-2.737 0-3.623-2.081-3.623-4.235 0-2.153 1.285-3.904 3.469-3.904zm.02 1.398c-.65.061-1.8.516-1.733 2.67.067 2.153 1.009 2.659 1.733 2.659.723 0 1.944-.2 1.944-2.65 0-2.45-1.295-2.74-1.944-2.68v.001zm-52.966-1.196c.71.021 1.272.021 1.687 0v4.434c0 1.76.646 2.062 1.274 2.122a1.996 1.996 0 0 0 1.834-.874c.015-2.024.015-3.918 0-5.682h1.808v7.83h-1.546l-.165-1.15c-.546.94-1.402 1.359-2.568 1.256-1.75-.155-2.324-1.647-2.324-3.035 0-2.42-.038-3.681 0-4.901zm10.295 2.16c-.535-.004-1.096-.004-1.683 0 0-.844.604-2.376 3.021-2.376 2.418 0 2.998 1.661 3.064 2.018.065.358-.169 5.372.337 5.942l-1.796.002c-.148-.508-.222-.883-.222-1.126-.28.342-.762.967-1.503 1.197-.74.23-2.423.353-3.111-1.261-.455-1.064-.165-2.26.688-2.809 1.41-.905 3.348-.603 3.926-.603.074-1.615-.408-1.991-1.503-1.991-.73 0-1.136.336-1.218 1.007zm2.72 2.089c-.53-.01-.889-.013-1.774.014-.705.063-1.332.584-1.279 1.326.064.886 1.07 1.049 1.859.793.661-.214 1.122-.768 1.194-1.003v-1.13zm13.59-2.089a117.96 117.96 0 0 0-1.683 0c0-.844.604-2.376 3.021-2.376 2.418 0 2.998 1.661 3.064 2.018.065.358-.169 5.372.337 5.942l-1.796.002c-.148-.508-.223-.883-.223-1.126-.28.342-.762.967-1.502 1.197-.74.23-2.423.353-3.112-1.261-.454-1.064-.164-2.26.69-2.809 1.409-.905 3.346-.603 3.924-.603.075-1.615-.407-1.991-1.502-1.991-.73 0-1.136.336-1.218 1.007zm2.72 2.089a29.99 29.99 0 0 0-1.774.014c-.705.063-1.333.584-1.279 1.326.064.886 1.07 1.049 1.859.793.66-.214 1.122-.768 1.194-1.003v-1.13zm-8.048-7.703h1.704v11.286h-1.401c-.078-.332-.15-.665-.213-1-.28.78-3.127 2.155-4.536-.173-1.178-1.945-.53-4.559.07-5.505.45-.71 2.276-2.534 4.376-.303.003-2.62.003-4.056 0-4.305zm.01 5.692c-.272-.861-2.097-1.405-2.83-.352-.732 1.054-.698 2.405-.28 3.64.42 1.236 2.212 1.471 3.11.113v-3.401zm16.644-1.248l.176-.992h1.434v7.944c.005 2.769-3.104 3.83-5.96 2.446.163-.816.253-1.273.27-1.37 1.244.416 4.341 1.457 3.947-1.99-1.778 1.821-3.79.717-4.487-.499-.768-1.343-1.268-5.348 1.204-6.429 1.424-.622 2.563-.326 3.416.89zm-.149 1.212c-.338-.512-.555-.94-1.69-.94-1.137 0-1.848 1.395-1.601 3.535.246 2.14 2.569 2.14 3.291.786v-3.381z" fill="#FFF" fill-rule="nonzero"/><path d="M242.365 95.851l.094.97a2.116 2.116 0 0 1 1.878-1.063c.688 0 1.22.187 1.596.625.375.407.563 1.033.563 1.878v4.069h-1.158v-4.037c0-.564-.125-.97-.344-1.221-.22-.25-.564-.344-1.002-.344-.344 0-.626.094-.876.25-.25.157-.47.376-.626.657v4.695h-1.158v-6.447l1.033-.032zm-5.477-2.335v.91h-4.365v3.09h3.718v.937h-3.718v3.957h-1.282v-8.894h5.647zm16.369 5.764h-4.151c0 .77.157 1.327.472 1.67.413.452.849.616 1.445.556 1.042-.104 1.244-.383 1.675-.63l.44.755c-.514.53-1.336.795-2.465.795-1.694 0-2.726-1.403-2.794-3.074-.067-1.671.6-3.61 2.794-3.691 1.86.05 2.72 1.256 2.584 3.619zm-1.166-.919c-.012-1.175-.484-1.763-1.417-1.763-.932 0-1.442.588-1.53 1.763h2.947zm-13.854-2.501h1.166v6.416h-1.166V95.86zm.016-2.913v1.157h1.187v-1.157h-1.187z" fill="#2A3052" fill-rule="nonzero"/></g></svg>