<svg width="300" height="199" viewBox="0 0 300 199" xmlns="http://www.w3.org/2000/svg"><title>italian touch</title><g fill="none" fill-rule="evenodd"><path fill="#F1F2F2" d="M0 0h300v199H0z"/><path d="M39.125 55.375V74.75H75.25V55.375H39.125zm0-1H75.25V34h1v20.375h36.125V34h1v20.375H149.5V34h1v20.375h36.125V34h1v20.375h36.125V34h1v20.375h36.125V34h1v20.375H299.5v1h-37.625V74.75H299.5v1h-37.625v19.375H299.5v1h-37.625V115.5H299.5v1h-37.625v19.375H299.5v1h-37.625v19.375H299.5v1h-37.625v19.375H299.5v1h-37.625V199h-1v-21.375H224.75V199h-1v-21.375h-36.125V199h-1v-21.375H150.5V199h-1v-21.375h-36.125V199h-1v-21.375H76.25V199h-1v-21.375H39.125V199h-1v-21.375H1.5v-1h36.625V157.25H1.5v-1h36.625v-19.375H1.5v-1h36.625V116.5H1.5v-1h36.625V96.125H1.5v-1h36.625V75.75H1.5v-1h36.625V55.375H1.5v-1h36.625V34h1v20.375zm221.75 1H224.75V74.75h36.125V55.375zm-37.125 0h-36.125V74.75h36.125V55.375zm-37.125 0H150.5V74.75h36.125V55.375zm-37.125 0h-36.125V74.75H149.5V55.375zm-37.125 0H76.25V74.75h36.125V55.375zM39.125 75.75v19.375H75.25V75.75H39.125zm221.75 0H224.75v19.375h36.125V75.75zm-37.125 0h-36.125v19.375h36.125V75.75zm-37.125 0H150.5v19.375h36.125V75.75zm-37.125 0h-36.125v19.375H149.5V75.75zm-37.125 0H76.25v19.375h36.125V75.75zm-73.25 20.375V115.5H75.25V96.125H39.125zm221.75 0H224.75V115.5h36.125V96.125zm-37.125 0h-36.125V115.5h36.125V96.125zm-37.125 0H150.5V115.5h36.125V96.125zm-37.125 0h-36.125V115.5H149.5V96.125zm-37.125 0H76.25V115.5h36.125V96.125zM39.125 116.5v19.375H75.25V116.5H39.125zm221.75 0H224.75v19.375h36.125V116.5zm-37.125 0h-36.125v19.375h36.125V116.5zm-37.125 0H150.5v19.375h36.125V116.5zm-37.125 0h-36.125v19.375H149.5V116.5zm-37.125 0H76.25v19.375h36.125V116.5zm-73.25 20.375v19.375H75.25v-19.375H39.125zm221.75 0H224.75v19.375h36.125v-19.375zm-37.125 0h-36.125v19.375h36.125v-19.375zm-37.125 0H150.5v19.375h36.125v-19.375zm-37.125 0h-36.125v19.375H149.5v-19.375zm-37.125 0H76.25v19.375h36.125v-19.375zm-73.25 20.375v19.375H75.25V157.25H39.125zm221.75 0H224.75v19.375h36.125V157.25zm-37.125 0h-36.125v19.375h36.125V157.25zm-37.125 0H150.5v19.375h36.125V157.25zm-37.125 0h-36.125v19.375H149.5V157.25zm-37.125 0H76.25v19.375h36.125V157.25z" fill="#DFDEDE"/><path stroke="#C2C2C2" stroke-width="2" d="M1 1h298v197H1z"/><path fill="#C2C2C2" d="M0 33h300v2H0z"/><path d="M2.248 75.285h295.125M261.92 33.967v162.757" stroke="#2A3052" stroke-width="1.23" stroke-linejoin="round"/><path stroke="#2A3052" stroke-width="3.689" stroke-linecap="round" stroke-linejoin="round" d="M37.891 137.242l37.358-33.93 26.542 26.352 32.026-35.415 46.458 42.993 44.288-61.957"/><path d="M188.805 147.98H153.2l-5.484-8.339-5.483 8.34h-35.606c-2.666 0-4.798 2.17-4.798 4.874v25.171c0 2.704 2.17 4.875 4.798 4.875h82.216c2.666 0 4.799-2.17 4.799-4.875v-25.171c0-2.704-2.171-4.874-4.837-4.874z" fill="#E88024" fill-rule="nonzero"/><ellipse cx="9.216" cy="8.843" rx="8.264" ry="8.606" opacity=".6" transform="translate(215.348 66.441)" fill="#FFF" fill-rule="nonzero"/><ellipse stroke="#E88024" stroke-width="2.46" cx="224.563" cy="75.285" rx="8.264" ry="8.606"/><ellipse cx="9.139" cy="9.063" rx="8.264" ry="8.606" opacity=".6" transform="translate(28.752 128.179)" fill="#FFF" fill-rule="nonzero"/><ellipse stroke="#E88024" stroke-width="2.46" cx="37.891" cy="137.242" rx="8.264" ry="8.606"/><path d="M25.318 13.192h-3.27v9.675h-2.295v-9.675h-3.222v-1.768h8.787v1.768zm.11 5.345c0-1.268.353-2.307 1.06-3.116.708-.81 1.688-1.215 2.94-1.215 1.258 0 2.243.404 2.955 1.21.713.808 1.07 1.848 1.07 3.12v.166c0 1.278-.356 2.32-1.066 3.124-.71.804-1.69 1.206-2.943 1.206-1.258 0-2.241-.402-2.951-1.206-.71-.804-1.065-1.846-1.065-3.124v-.165zm2.287.165c0 .775.136 1.397.408 1.866.273.47.713.704 1.32.704.593 0 1.026-.236 1.302-.707.275-.472.412-1.093.412-1.863v-.165c0-.755-.139-1.37-.416-1.847-.278-.477-.716-.715-1.313-.715-.592 0-1.026.24-1.3.719-.276.48-.413 1.094-.413 1.843v.165zm10.704 2.57c.398 0 .715-.12.951-.358s.354-.556.354-.955h2.09l.016.047c.021.86-.299 1.579-.959 2.158-.66.579-1.477.868-2.452.868-1.257 0-2.23-.402-2.916-1.206-.686-.804-1.03-1.833-1.03-3.085v-.236c0-1.247.343-2.275 1.026-3.084.684-.81 1.652-1.215 2.904-1.215 1.038 0 1.874.299 2.508.896.634.598.94 1.384.92 2.358l-.017.047h-2.09c0-.44-.117-.805-.35-1.096-.233-.291-.557-.436-.97-.436-.593 0-1.013.237-1.262.71-.249.475-.373 1.082-.373 1.82v.236c0 .755.124 1.365.373 1.831.249.467.675.7 1.277.7zm8.3 0c.398 0 .715-.12.95-.358.236-.238.354-.556.354-.955h2.09l.017.047c.02.86-.3 1.579-.96 2.158-.66.579-1.477.868-2.451.868-1.258 0-2.23-.402-2.916-1.206-.687-.804-1.03-1.833-1.03-3.085v-.236c0-1.247.342-2.275 1.026-3.084.684-.81 1.652-1.215 2.904-1.215 1.037 0 1.873.299 2.507.896.634.598.94 1.384.92 2.358l-.016.047h-2.09c0-.44-.117-.805-.35-1.096-.234-.291-.557-.436-.971-.436-.592 0-1.013.237-1.262.71-.248.475-.373 1.082-.373 1.82v.236c0 .755.125 1.365.373 1.831.25.467.675.7 1.278.7zm9.761 1.595a4.827 4.827 0 0 1-.216-.613 4.264 4.264 0 0 1-.13-.66 3.146 3.146 0 0 1-.935 1.03c-.388.272-.849.408-1.383.408-.891 0-1.577-.229-2.06-.687-.482-.459-.723-1.084-.723-1.875 0-.833.321-1.479.963-1.937.642-.459 1.579-.688 2.81-.688h1.289v-.676c0-.408-.108-.725-.322-.95-.215-.226-.535-.339-.96-.339-.371 0-.658.09-.86.271-.202.181-.302.429-.302.743h-2.209l-.016-.047c-.036-.718.277-1.337.94-1.859.662-.521 1.528-.782 2.597-.782 1.022 0 1.848.257 2.48.77.631.514.947 1.25.947 2.209v3.513c0 .398.03.773.09 1.124.06.351.156.7.287 1.045H56.48zm-2.098-1.532c.398 0 .754-.1 1.068-.299.315-.199.53-.43.645-.692v-1.202h-1.29c-.486 0-.854.12-1.103.361a1.188 1.188 0 0 0-.374.889c0 .288.093.517.28.687.185.17.443.256.774.256z" fill="#000"/><g fill="#2A3052"><path d="M26.474 158.438l.109 1.124a2.451 2.451 0 0 1 2.175-1.233c.798 0 1.415.218 1.85.726.435.471.652 1.196.652 2.175v4.714H29.92v-4.677c0-.653-.145-1.125-.4-1.415-.253-.29-.652-.398-1.16-.398-.398 0-.725.108-1.015.29-.29.18-.544.435-.725.761v5.44h-1.342v-7.47l1.197-.037zM21.726 155.764h1.253v9.905h-1.253zM43.866 158.374h1.324v7.29h-1.324zM43.883 155.064v1.314h1.35v-1.314zM33.337 158.385h1.324v7.291h-1.324zM33.355 155.074v1.315h1.35v-1.315z"/><path d="M33.312 158.385h1.324v7.291h-1.324zM33.33 155.074v1.315h1.349v-1.315zM36.47 159.376v-1.047h5.577v.883l-4.03 5.464h4.243v.993h-5.79v-.847l3.982-5.446zM50.359 158.163c2.191 0 3.17 1.599 3.334 3.445.165 1.847-.612 4.064-3.034 4.253-2.423.19-3.635-1.767-3.635-3.831s1.143-3.867 3.335-3.867zm-.053 1.054c-.816 0-1.781.49-1.905 2.492-.123 2.001.683 3.1 1.97 3.1 1.285 0 1.964-1.168 1.964-3.1 0-1.933-1.213-2.492-2.029-2.492z"/></g><g fill="#2A3052"><path d="M280.254 103.225l.111 1.145a2.495 2.495 0 0 1 2.215-1.256c.812 0 1.44.222 1.882.739.443.48.665 1.218.665 2.215v4.798h-1.366v-4.761c0-.665-.148-1.145-.406-1.44-.258-.295-.664-.406-1.181-.406-.406 0-.738.11-1.034.295a2.132 2.132 0 0 0-.738.775v5.537h-1.366v-7.604l1.218-.037zM273.795 100.47v1.074h-5.149v3.645h4.386v1.105h-4.386v4.667h-1.512v-10.49zM293.101 107.269h-4.896c0 .908.186 1.565.557 1.97.487.533 1.001.726 1.705.656 1.229-.123 1.466-.452 1.975-.742l.518.889c-.606.625-1.574.938-2.906.938-1.998 0-3.216-1.655-3.295-3.626-.08-1.971.707-4.258 3.295-4.354 2.193.059 3.209 1.482 3.047 4.269zm-1.375-1.084c-.014-1.386-.57-2.08-1.67-2.08-1.101 0-1.702.694-1.805 2.08h3.475zM275.386 103.236h1.375v7.566h-1.375zM275.405 99.8v1.364h1.4V99.8z"/></g><g fill="#FFF"><path d="M184.813 165.73h-2.29v-7.574h2.29zM184.813 169.714h-2.29v-2.035h2.29z"/></g><path d="M165.142 161.304h1.646l.082 1.2c.674-1.006 1.549-1.453 2.624-1.342.622.065 1.935.268 2.326 2.036.144.648.113 1.743.103 3.23-.005.578-.005 1.579 0 3.001h-1.807v-5.09c0-.598-.167-1.266-.669-1.519-.69-.347-1.988-.202-2.51.675v5.934h-1.795v-8.125zM116.458 165.136v-1.333h4.035c.045 2.324.045 3.68 0 4.065-.34 1.018-4.37 2.868-6.971.521-.776-.7-1.14-1.474-1.34-2.647-.009-1.198-.03-2.322-.022-3.385.197-1.303.634-2.043.985-2.464 1.28-1.529 3.317-1.858 5.11-1.238 1.792.62 2.024 1.906 2.17 3.165-.416 0-.635-.018-1.756 0 .114-.708-.53-2.078-2.212-2.002-1.682.075-2.475 1.457-2.475 2.608 0 1.15-.06.764 0 3.051.076 2.627 3.224 3.332 4.687 1.929l.054-2.237-2.265-.033zM177.05 161.16c2.251 0 3.472 1.372 3.781 3.429.309 2.056-.801 4.96-3.623 4.96-2.82 0-3.733-2.145-3.733-4.365s1.324-4.024 3.575-4.024zm.02 1.44c-.669.064-1.855.532-1.785 2.752.069 2.22 1.04 2.741 1.785 2.741.746 0 2.004-.206 2.004-2.731 0-2.526-1.334-2.825-2.004-2.761z" fill="#FFF"/><path d="M177.07 162.6c-.669.064-1.855.532-1.785 2.752.069 2.22 1.04 2.741 1.785 2.741.746 0 2.004-.206 2.004-2.731 0-2.526-1.334-2.825-2.004-2.761z"/><path d="M122.478 161.368c.731.022 1.31.022 1.739 0v4.57c0 1.814.666 2.125 1.313 2.188.659.064 1.436-.22 1.89-.9.015-2.087.015-4.04 0-5.858h1.863v8.07h-1.593l-.17-1.185c-.563.97-1.445 1.401-2.647 1.295-1.803-.16-2.395-1.698-2.395-3.128 0-2.495-.04-3.795 0-5.052zM133.089 163.594a132.27 132.27 0 0 0-1.735 0c0-.87.622-2.449 3.114-2.449s3.09 1.713 3.158 2.08c.067.37-.174 5.537.348 6.125l-1.852.002c-.153-.523-.229-.91-.229-1.16-.289.352-.785.997-1.549 1.233-.763.237-2.497.364-3.207-1.3-.468-1.096-.17-2.33.71-2.895 1.453-.933 3.45-.621 4.046-.621.077-1.665-.42-2.053-1.549-2.053-.752 0-1.17.346-1.255 1.038zm2.803 2.153c-.547-.01-.915-.013-1.828.016-.726.064-1.373.6-1.318 1.366.065.913 1.103 1.08 1.915.817.682-.22 1.157-.791 1.231-1.034v-1.165zM149.9 163.594a132.27 132.27 0 0 0-1.735 0c0-.87.622-2.449 3.114-2.449s3.09 1.713 3.158 2.08c.067.37-.174 5.537.348 6.125l-1.852.002c-.153-.523-.229-.91-.229-1.16-.289.352-.786.997-1.549 1.233-.763.237-2.497.364-3.207-1.3-.468-1.096-.17-2.33.71-2.895 1.453-.933 3.45-.621 4.046-.621.077-1.665-.42-2.053-1.549-2.053-.752 0-1.17.346-1.255 1.038zm2.803 2.153c-.547-.01-.916-.013-1.828.016-.726.064-1.374.6-1.318 1.366.065.913 1.103 1.08 1.915.817.682-.22 1.157-.791 1.231-1.034v-1.165zM144.408 157.808h1.756v11.633h-1.444c-.076-.322-.149-.666-.219-1.032-.289.804-3.223 2.222-4.675-.177-1.214-2.005-.548-4.7.071-5.675.464-.731 2.346-2.611 4.511-.311.003-2.702.003-4.181 0-4.438zm.01 5.866c-.28-.887-2.16-1.447-2.916-.362-.754 1.086-.72 2.479-.288 3.752.432 1.273 2.279 1.516 3.205.116v-3.506zM161.574 162.389l.182-1.023h1.477v8.188c.005 2.854-3.2 3.947-6.144 2.522.17-.842.262-1.313.279-1.413 1.283.43 4.475 1.501 4.069-2.052-1.833 1.878-3.908.74-4.625-.513-.792-1.384-1.308-5.513 1.24-6.627 1.468-.641 2.642-.335 3.522.918zm-.154 1.248c-.348-.527-.572-.967-1.742-.967-1.171 0-1.904 1.436-1.65 3.642s2.648 2.206 3.392.81v-3.485z" fill="#FFF"/></g></svg>