<?xml version="1.0" encoding="UTF-8"?>
<svg width="299px" height="197px" viewBox="0 0 299 197" version="1.1" xmlns="http://www.w3.org/2000/svg" xmlns:xlink="http://www.w3.org/1999/xlink">
    <!-- Generator: Sketch 52.6 (67491) - http://www.bohemiancoding.com/sketch -->
    <title>touch</title>
    <desc>Created with Sketch.</desc>
    <g id="Page-1" stroke="none" stroke-width="1" fill="none" fill-rule="evenodd">
        <g id="touch">
            <polygon id="Path" fill="#F1F2F2" points="0 0 299 0 299 197 0 197"></polygon>
            <path d="M1.99333333,1.9798995 L1.99333333,195.020101 L297.006667,195.020101 L297.006667,1.9798995 L1.99333333,1.9798995 Z M299,0 L299,197 L0,197 L0,0 L299,0 Z" id="Path" fill="#C2C2C2" fill-rule="nonzero"></path>
            <path d="M41.6149329,54.8568182 L41.6149329,73.7621212 L76.7701342,73.7621212 L76.7701342,54.8568182 L41.6149329,54.8568182 Z M41.6149329,53.8810606 L76.7701342,53.8810606 L76.7701342,34 L77.7432886,34 L77.7432886,53.8810606 L112.89849,53.8810606 L112.89849,34 L113.871644,34 L113.871644,53.8810606 L149.026846,53.8810606 L149.026846,34 L150,34 L150,53.8810606 L185.155201,53.8810606 L185.155201,34 L186.128356,34 L186.128356,53.8810606 L221.283557,53.8810606 L221.283557,34 L222.256711,34 L222.256711,53.8810606 L257.411913,53.8810606 L257.411913,34 L258.385067,34 L258.385067,53.8810606 L295,53.8810606 L295,54.8568182 L258.385067,54.8568182 L258.385067,73.7621212 L295,73.7621212 L295,74.7378788 L258.385067,74.7378788 L258.385067,93.6431818 L295,93.6431818 L295,94.6189394 L258.385067,94.6189394 L258.385067,113.524242 L295,113.524242 L295,114.5 L258.385067,114.5 L258.385067,133.405303 L295,133.405303 L295,134.381061 L258.385067,134.381061 L258.385067,153.286364 L295,153.286364 L295,154.262121 L258.385067,154.262121 L258.385067,173.167424 L295,173.167424 L295,174.143182 L258.385067,174.143182 L258.385067,195 L257.411913,195 L257.411913,174.143182 L222.256711,174.143182 L222.256711,195 L221.283557,195 L221.283557,174.143182 L186.128356,174.143182 L186.128356,195 L185.155201,195 L185.155201,174.143182 L150,174.143182 L150,195 L149.026846,195 L149.026846,174.143182 L113.871644,174.143182 L113.871644,195 L112.89849,195 L112.89849,174.143182 L77.7432886,174.143182 L77.7432886,195 L76.7701342,195 L76.7701342,174.143182 L41.6149329,174.143182 L41.6149329,195 L40.6417785,195 L40.6417785,174.143182 L5,174.143182 L5,173.167424 L40.6417785,173.167424 L40.6417785,154.262121 L5,154.262121 L5,153.286364 L40.6417785,153.286364 L40.6417785,134.381061 L5,134.381061 L5,133.405303 L40.6417785,133.405303 L40.6417785,114.5 L5,114.5 L5,113.524242 L40.6417785,113.524242 L40.6417785,94.6189394 L5,94.6189394 L5,93.6431818 L40.6417785,93.6431818 L40.6417785,74.7378788 L5,74.7378788 L5,73.7621212 L40.6417785,73.7621212 L40.6417785,54.8568182 L5,54.8568182 L5,53.8810606 L40.6417785,53.8810606 L40.6417785,34 L41.6149329,34 L41.6149329,53.8810606 Z M257.411913,54.8568182 L222.256711,54.8568182 L222.256711,73.7621212 L257.411913,73.7621212 L257.411913,54.8568182 Z M221.283557,54.8568182 L186.128356,54.8568182 L186.128356,73.7621212 L221.283557,73.7621212 L221.283557,54.8568182 Z M185.155201,54.8568182 L150,54.8568182 L150,73.7621212 L185.155201,73.7621212 L185.155201,54.8568182 Z M149.026846,54.8568182 L113.871644,54.8568182 L113.871644,73.7621212 L149.026846,73.7621212 L149.026846,54.8568182 Z M112.89849,54.8568182 L77.7432886,54.8568182 L77.7432886,73.7621212 L112.89849,73.7621212 L112.89849,54.8568182 Z M41.6149329,74.7378788 L41.6149329,93.6431818 L76.7701342,93.6431818 L76.7701342,74.7378788 L41.6149329,74.7378788 Z M257.411913,74.7378788 L222.256711,74.7378788 L222.256711,93.6431818 L257.411913,93.6431818 L257.411913,74.7378788 Z M221.283557,74.7378788 L186.128356,74.7378788 L186.128356,93.6431818 L221.283557,93.6431818 L221.283557,74.7378788 Z M185.155201,74.7378788 L150,74.7378788 L150,93.6431818 L185.155201,93.6431818 L185.155201,74.7378788 Z M149.026846,74.7378788 L113.871644,74.7378788 L113.871644,93.6431818 L149.026846,93.6431818 L149.026846,74.7378788 Z M112.89849,74.7378788 L77.7432886,74.7378788 L77.7432886,93.6431818 L112.89849,93.6431818 L112.89849,74.7378788 Z M41.6149329,94.6189394 L41.6149329,113.524242 L76.7701342,113.524242 L76.7701342,94.6189394 L41.6149329,94.6189394 Z M257.411913,94.6189394 L222.256711,94.6189394 L222.256711,113.524242 L257.411913,113.524242 L257.411913,94.6189394 Z M221.283557,94.6189394 L186.128356,94.6189394 L186.128356,113.524242 L221.283557,113.524242 L221.283557,94.6189394 Z M185.155201,94.6189394 L150,94.6189394 L150,113.524242 L185.155201,113.524242 L185.155201,94.6189394 Z M149.026846,94.6189394 L113.871644,94.6189394 L113.871644,113.524242 L149.026846,113.524242 L149.026846,94.6189394 Z M112.89849,94.6189394 L77.7432886,94.6189394 L77.7432886,113.524242 L112.89849,113.524242 L112.89849,94.6189394 Z M41.6149329,114.5 L41.6149329,133.405303 L76.7701342,133.405303 L76.7701342,114.5 L41.6149329,114.5 Z M257.411913,114.5 L222.256711,114.5 L222.256711,133.405303 L257.411913,133.405303 L257.411913,114.5 Z M221.283557,114.5 L186.128356,114.5 L186.128356,133.405303 L221.283557,133.405303 L221.283557,114.5 Z M185.155201,114.5 L150,114.5 L150,133.405303 L185.155201,133.405303 L185.155201,114.5 Z M149.026846,114.5 L113.871644,114.5 L113.871644,133.405303 L149.026846,133.405303 L149.026846,114.5 Z M112.89849,114.5 L77.7432886,114.5 L77.7432886,133.405303 L112.89849,133.405303 L112.89849,114.5 Z M41.6149329,134.381061 L41.6149329,153.286364 L76.7701342,153.286364 L76.7701342,134.381061 L41.6149329,134.381061 Z M257.411913,134.381061 L222.256711,134.381061 L222.256711,153.286364 L257.411913,153.286364 L257.411913,134.381061 Z M221.283557,134.381061 L186.128356,134.381061 L186.128356,153.286364 L221.283557,153.286364 L221.283557,134.381061 Z M185.155201,134.381061 L150,134.381061 L150,153.286364 L185.155201,153.286364 L185.155201,134.381061 Z M149.026846,134.381061 L113.871644,134.381061 L113.871644,153.286364 L149.026846,153.286364 L149.026846,134.381061 Z M112.89849,134.381061 L77.7432886,134.381061 L77.7432886,153.286364 L112.89849,153.286364 L112.89849,134.381061 Z M41.6149329,154.262121 L41.6149329,173.167424 L76.7701342,173.167424 L76.7701342,154.262121 L41.6149329,154.262121 Z M257.411913,154.262121 L222.256711,154.262121 L222.256711,173.167424 L257.411913,173.167424 L257.411913,154.262121 Z M221.283557,154.262121 L186.128356,154.262121 L186.128356,173.167424 L221.283557,173.167424 L221.283557,154.262121 Z M185.155201,154.262121 L150,154.262121 L150,173.167424 L185.155201,173.167424 L185.155201,154.262121 Z M149.026846,154.262121 L113.871644,154.262121 L113.871644,173.167424 L149.026846,173.167424 L149.026846,154.262121 Z M112.89849,154.262121 L77.7432886,154.262121 L77.7432886,173.167424 L112.89849,173.167424 L112.89849,154.262121 Z" id="Shape" fill="#DFDEDE" fill-rule="nonzero"></path>
            <polygon id="Path" fill="#C2C2C2" points="4 31 294 31 294 33 4 33"></polygon>
            <path d="M2.248,74.9 L2.248,73.67 L297.373,73.67 L297.373,74.9 L2.248,74.9 Z M257.305,33.967 L258.535,33.967 L258.535,196.724 L257.305,196.724 L257.305,33.967 Z" id="Shape" fill="#2A3052" fill-rule="nonzero"></path>
            <path d="M38.1311081,138.607398 C37.3770195,139.292291 36.2104947,139.236197 35.5256019,138.482108 C34.840709,137.72802 34.8968033,136.561495 35.6508919,135.876602 L73.0088919,101.946602 C73.735589,101.286587 74.851919,101.311406 75.5485651,102.003065 L100.719144,126.993461 L131.448927,93.0118433 C132.137749,92.2501303 133.31605,92.1977049 134.069797,92.8952347 L178.991608,134.466621 L222.062447,74.212377 C222.65484,73.3836443 223.80689,73.1920534 224.635623,73.7844467 C225.464356,74.3768401 225.655947,75.5288903 225.063553,76.357623 L180.775553,138.314623 C180.129631,139.218241 178.837427,139.350187 178.022203,138.595765 L132.933616,96.8700428 L102.159073,130.901157 C101.453177,131.68175 100.238286,131.71444 99.4914349,130.972935 L74.1924615,105.855063 L38.1311081,138.607398 Z" id="Path" fill="#2A3052" fill-rule="nonzero"></path>
            <path d="M187.805,147.98 L152.2,147.98 L146.716,139.641 L141.233,147.981 L105.627,147.981 C102.961,147.981 100.829,150.151 100.829,152.855 L100.829,178.026 C100.829,180.73 102.999,182.901 105.627,182.901 L187.843,182.901 C190.509,182.901 192.642,180.731 192.642,178.026 L192.642,152.855 C192.642,150.151 190.471,147.981 187.805,147.981 L187.805,147.98 Z" id="Path" fill="#E88024"></path>
            <ellipse id="Oval" fill="#FFFFFF" opacity="0.6" cx="223.564" cy="75.284" rx="8.264" ry="8.606"></ellipse>
            <path d="M223.563,85.121 C218.308199,85.121 214.069,80.7063642 214.069,75.285 C214.069,69.8636358 218.308199,65.449 223.563,65.449 C228.817801,65.449 233.057,69.8636358 233.057,75.285 C233.057,80.7063642 228.817801,85.121 223.563,85.121 Z M223.563,82.661 C227.436362,82.661 230.597,79.3695609 230.597,75.285 C230.597,71.2004391 227.436362,67.909 223.563,67.909 C219.689638,67.909 216.529,71.2004391 216.529,75.285 C216.529,79.3695609 219.689638,82.661 223.563,82.661 Z" id="Oval" fill="#E88024" fill-rule="nonzero"></path>
            <ellipse id="Oval" fill="#FFFFFF" opacity="0.6" cx="36.891" cy="137.242" rx="8.264" ry="8.606"></ellipse>
            <path d="M36.891,147.078 C31.6361994,147.078 27.397,142.663364 27.397,137.242 C27.397,131.820636 31.6361994,127.406 36.891,127.406 C42.1458006,127.406 46.385,131.820636 46.385,137.242 C46.385,142.663364 42.1458006,147.078 36.891,147.078 Z M36.891,144.618 C40.7643617,144.618 43.925,141.326561 43.925,137.242 C43.925,133.157439 40.7643617,129.866 36.891,129.866 C33.0176383,129.866 29.857,133.157439 29.857,137.242 C29.857,141.326561 33.0176383,144.618 36.891,144.618 Z" id="Oval" fill="#E88024" fill-rule="nonzero"></path>
            <path d="M24.318,13.192 L21.048,13.192 L21.048,22.867 L18.753,22.867 L18.753,13.192 L15.531,13.192 L15.531,11.424 L24.318,11.424 L24.318,13.192 Z M24.428,18.537 C24.428,17.269 24.781,16.23 25.488,15.421 C26.196,14.611 27.176,14.206 28.428,14.206 C29.686,14.206 30.671,14.61 31.383,15.416 C32.096,16.224 32.453,17.264 32.453,18.536 L32.453,18.702 C32.453,19.98 32.097,21.022 31.387,21.826 C30.677,22.63 29.697,23.032 28.444,23.032 C27.186,23.032 26.203,22.63 25.493,21.826 C24.783,21.022 24.428,19.98 24.428,18.702 L24.428,18.537 Z M26.715,18.702 C26.715,19.477 26.851,20.099 27.123,20.568 C27.396,21.038 27.836,21.272 28.443,21.272 C29.036,21.272 29.469,21.036 29.745,20.565 C30.02,20.093 30.157,19.472 30.157,18.702 L30.157,18.537 C30.157,17.782 30.018,17.167 29.741,16.69 C29.463,16.213 29.025,15.975 28.428,15.975 C27.836,15.975 27.402,16.215 27.128,16.694 C26.852,17.174 26.715,17.788 26.715,18.537 L26.715,18.702 Z M37.419,21.272 C37.817,21.272 38.134,21.152 38.37,20.914 C38.606,20.676 38.724,20.358 38.724,19.959 L40.814,19.959 L40.83,20.006 C40.851,20.866 40.531,21.585 39.871,22.164 C39.211,22.743 38.394,23.032 37.419,23.032 C36.162,23.032 35.189,22.63 34.503,21.826 C33.817,21.022 33.473,19.993 33.473,18.741 L33.473,18.505 C33.473,17.258 33.816,16.23 34.499,15.421 C35.183,14.611 36.151,14.206 37.403,14.206 C38.441,14.206 39.277,14.505 39.911,15.102 C40.545,15.7 40.851,16.486 40.831,17.46 L40.814,17.507 L38.724,17.507 C38.724,17.067 38.607,16.702 38.374,16.411 C38.141,16.12 37.817,15.975 37.404,15.975 C36.811,15.975 36.391,16.212 36.142,16.685 C35.893,17.16 35.769,17.767 35.769,18.505 L35.769,18.741 C35.769,19.496 35.893,20.106 36.142,20.572 C36.391,21.039 36.817,21.272 37.419,21.272 Z M45.719,21.272 C46.117,21.272 46.434,21.152 46.669,20.914 C46.905,20.676 47.023,20.358 47.023,19.959 L49.113,19.959 L49.13,20.006 C49.15,20.866 48.83,21.585 48.17,22.164 C47.51,22.743 46.693,23.032 45.719,23.032 C44.461,23.032 43.489,22.63 42.803,21.826 C42.116,21.022 41.773,19.993 41.773,18.741 L41.773,18.505 C41.773,17.258 42.115,16.23 42.799,15.421 C43.483,14.611 44.451,14.206 45.703,14.206 C46.74,14.206 47.576,14.505 48.21,15.102 C48.844,15.7 49.15,16.486 49.13,17.46 L49.114,17.507 L47.024,17.507 C47.024,17.067 46.907,16.702 46.674,16.411 C46.44,16.12 46.117,15.975 45.703,15.975 C45.111,15.975 44.69,16.212 44.441,16.685 C44.193,17.16 44.068,17.767 44.068,18.505 L44.068,18.741 C44.068,19.496 44.193,20.106 44.441,20.572 C44.691,21.039 45.116,21.272 45.719,21.272 Z M55.48,22.867 C55.3943097,22.6677515 55.3221461,22.4629541 55.264,22.254 C55.2033538,22.0377667 55.1598852,21.8170802 55.134,21.594 C54.9030959,22.0028011 54.58362,22.3547371 54.199,22.624 C53.811,22.896 53.35,23.032 52.816,23.032 C51.925,23.032 51.239,22.803 50.756,22.345 C50.274,21.886 50.033,21.261 50.033,20.47 C50.033,19.637 50.354,18.991 50.996,18.533 C51.638,18.074 52.575,17.845 53.806,17.845 L55.095,17.845 L55.095,17.169 C55.095,16.761 54.987,16.444 54.773,16.219 C54.558,15.993 54.238,15.88 53.813,15.88 C53.442,15.88 53.155,15.97 52.953,16.151 C52.751,16.332 52.651,16.58 52.651,16.894 L50.442,16.894 L50.426,16.847 C50.39,16.129 50.703,15.51 51.366,14.988 C52.028,14.467 52.894,14.206 53.963,14.206 C54.985,14.206 55.811,14.463 56.443,14.976 C57.074,15.49 57.39,16.226 57.39,17.185 L57.39,20.698 C57.39,21.096 57.42,21.471 57.48,21.822 C57.54,22.173 57.636,22.522 57.767,22.867 L55.48,22.867 Z M53.382,21.335 C53.78,21.335 54.136,21.235 54.45,21.036 C54.765,20.837 54.98,20.606 55.095,20.344 L55.095,19.142 L53.805,19.142 C53.319,19.142 52.951,19.262 52.702,19.503 C52.4572425,19.7331226 52.3213603,20.0561153 52.328,20.392 C52.328,20.68 52.421,20.909 52.608,21.079 C52.793,21.249 53.051,21.335 53.382,21.335 Z" id="Shape" fill="#000000" fill-rule="nonzero"></path>
            <g id="Group" transform="translate(20.000000, 155.000000)" fill="#2A3052" fill-rule="nonzero">
                <path d="M5.474,3.438 L5.583,4.562 C6.02811192,3.78432526 6.86212203,3.31152781 7.758,3.329 C8.556,3.329 9.173,3.547 9.608,4.055 C10.043,4.526 10.26,5.251 10.26,6.23 L10.26,10.944 L8.92,10.944 L8.92,6.267 C8.92,5.614 8.775,5.142 8.52,4.852 C8.267,4.562 7.868,4.454 7.36,4.454 C6.962,4.454 6.635,4.562 6.345,4.744 C6.055,4.924 5.801,5.179 5.62,5.505 L5.62,10.945 L4.278,10.945 L4.278,3.475 L5.475,3.438 L5.474,3.438 Z M0.726,0.764 L1.979,0.764 L1.979,10.669 L0.726,10.669 L0.726,0.764 Z M22.866,3.374 L24.19,3.374 L24.19,10.664 L22.866,10.664 L22.866,3.374 Z M22.883,0.064 L22.883,1.378 L24.233,1.378 L24.233,0.064 L22.883,0.064 Z M12.337,3.385 L13.661,3.385 L13.661,10.676 L12.337,10.676 L12.337,3.385 Z M12.355,0.074 L12.355,1.389 L13.705,1.389 L13.705,0.074 L12.355,0.074 Z" id="Shape"></path>
                <path d="M12.312,3.385 L13.636,3.385 L13.636,10.676 L12.312,10.676 L12.312,3.385 Z M12.33,0.074 L12.33,1.389 L13.679,1.389 L13.679,0.074 L12.33,0.074 Z M15.47,4.376 L15.47,3.329 L21.047,3.329 L21.047,4.212 L17.017,9.676 L21.26,9.676 L21.26,10.669 L15.47,10.669 L15.47,9.822 L19.452,4.376 L15.47,4.376 Z M29.359,3.163 C31.55,3.163 32.529,4.762 32.693,6.608 C32.858,8.455 32.081,10.672 29.659,10.861 C27.236,11.051 26.024,9.094 26.024,7.03 C26.024,4.966 27.167,3.163 29.359,3.163 Z M29.306,4.217 C28.49,4.217 27.525,4.707 27.401,6.709 C27.278,8.71 28.084,9.809 29.371,9.809 C30.656,9.809 31.335,8.641 31.335,6.709 C31.335,4.776 30.122,4.217 29.306,4.217 Z" id="Shape"></path>
            </g>
            <g id="Group" transform="translate(266.000000, 99.000000)" fill="#2A3052" fill-rule="nonzero">
                <path d="M13.254,4.225 L13.365,5.37 C13.818043,4.57772687 14.6675188,4.09603766 15.58,4.114 C16.392,4.114 17.02,4.336 17.462,4.853 C17.905,5.333 18.127,6.071 18.127,7.068 L18.127,11.866 L16.761,11.866 L16.761,7.105 C16.761,6.44 16.613,5.96 16.355,5.665 C16.097,5.37 15.691,5.259 15.174,5.259 C14.768,5.259 14.436,5.369 14.14,5.554 C13.8321103,5.74538695 13.5781085,6.01212332 13.402,6.329 L13.402,11.866 L12.036,11.866 L12.036,4.262 L13.254,4.225 Z M6.795,1.47 L6.795,2.544 L1.646,2.544 L1.646,6.189 L6.032,6.189 L6.032,7.294 L1.646,7.294 L1.646,11.961 L0.134,11.961 L0.134,1.471 L6.795,1.47 Z M26.101,8.269 L21.205,8.269 C21.205,9.177 21.391,9.834 21.762,10.239 C22.249,10.772 22.763,10.965 23.467,10.895 C24.696,10.772 24.933,10.443 25.442,10.153 L25.96,11.042 C25.354,11.667 24.386,11.98 23.054,11.98 C21.056,11.98 19.838,10.325 19.759,8.354 C19.679,6.383 20.466,4.096 23.054,4 C25.247,4.059 26.263,5.482 26.101,8.269 Z M24.726,7.185 C24.712,5.799 24.156,5.105 23.056,5.105 C21.955,5.105 21.354,5.799 21.251,7.185 L24.726,7.185 Z M8.386,4.236 L9.761,4.236 L9.761,11.802 L8.386,11.802 L8.386,4.236 Z M8.405,0.8 L8.405,2.164 L9.805,2.164 L9.805,0.8 L8.405,0.8 Z" id="Shape"></path>
            </g>
            <g id="Group" transform="translate(181.000000, 158.000000)" fill="#FFFFFF" fill-rule="nonzero">
                <path d="M2.813,7.73 L0.523,7.73 L0.523,0.156 L2.813,0.156 L2.813,7.73 Z M2.813,11.714 L0.523,11.714 L0.523,9.679 L2.813,9.679 L2.813,11.714 Z" id="Shape"></path>
            </g>
            <path d="M164.142,161.304 L165.788,161.304 L165.87,162.504 C166.544,161.498 167.419,161.051 168.494,161.162 C169.116,161.227 170.429,161.43 170.82,163.198 C170.964,163.846 170.933,164.941 170.923,166.428 C170.918,167.006 170.918,168.007 170.923,169.429 L169.116,169.429 L169.116,164.339 C169.116,163.741 168.949,163.073 168.447,162.82 C167.757,162.473 166.459,162.618 165.937,163.495 L165.937,169.429 L164.142,169.429 L164.142,161.304 Z M115.458,165.136 L115.458,163.803 L119.493,163.803 C119.538,166.127 119.538,167.483 119.493,167.868 C119.153,168.886 115.123,170.736 112.522,168.389 C111.746,167.689 111.382,166.915 111.182,165.742 C111.173,164.544 111.152,163.42 111.16,162.357 C111.357,161.054 111.794,160.314 112.145,159.893 C113.425,158.364 115.462,158.035 117.255,158.655 C119.047,159.275 119.279,160.561 119.425,161.82 C119.009,161.82 118.79,161.802 117.669,161.82 C117.783,161.112 117.139,159.742 115.457,159.818 C113.775,159.893 112.982,161.275 112.982,162.426 C112.982,163.576 112.922,163.19 112.982,165.477 C113.058,168.104 116.206,168.809 117.669,167.406 L117.723,165.169 L115.458,165.136 Z M176.05,161.16 C178.301,161.16 179.522,162.532 179.831,164.589 C180.14,166.645 179.03,169.549 176.208,169.549 C173.388,169.549 172.475,167.404 172.475,165.184 C172.475,162.964 173.799,161.16 176.05,161.16 Z M176.07,162.6 C175.401,162.664 174.215,163.132 174.285,165.352 C174.354,167.572 175.325,168.093 176.07,168.093 C176.816,168.093 178.074,167.887 178.074,165.362 C178.074,162.836 176.74,162.537 176.07,162.601 L176.07,162.6 Z" id="Shape" fill="#FFFFFF" fill-rule="nonzero"></path>
            <path d="M176.07,162.6 C175.401,162.664 174.215,163.132 174.285,165.352 C174.354,167.572 175.325,168.093 176.07,168.093 C176.816,168.093 178.074,167.887 178.074,165.362 C178.074,162.836 176.74,162.537 176.07,162.601 L176.07,162.6 Z" id="Path"></path>
            <path d="M121.478,161.368 C122.209,161.39 122.788,161.39 123.217,161.368 L123.217,165.938 C123.217,167.752 123.883,168.063 124.53,168.126 C125.189,168.19 125.966,167.906 126.42,167.226 C126.435,165.139 126.435,163.186 126.42,161.368 L128.283,161.368 L128.283,169.438 L126.69,169.438 L126.52,168.253 C125.957,169.223 125.075,169.654 123.873,169.548 C122.07,169.388 121.478,167.85 121.478,166.42 C121.478,163.925 121.438,162.625 121.478,161.368 Z M132.089,163.594 C131.510673,163.590207 130.932327,163.590207 130.354,163.594 C130.354,162.724 130.976,161.145 133.468,161.145 C135.96,161.145 136.558,162.858 136.626,163.225 C136.693,163.595 136.452,168.762 136.974,169.35 L135.122,169.352 C134.969,168.829 134.893,168.442 134.893,168.192 C134.604,168.544 134.108,169.189 133.344,169.425 C132.581,169.662 130.847,169.789 130.137,168.125 C129.669,167.029 129.967,165.795 130.847,165.23 C132.3,164.297 134.297,164.609 134.893,164.609 C134.97,162.944 134.473,162.556 133.344,162.556 C132.592,162.556 132.174,162.902 132.089,163.594 Z M134.892,165.747 C134.345,165.737 133.977,165.734 133.064,165.763 C132.338,165.827 131.691,166.363 131.746,167.129 C131.811,168.042 132.849,168.209 133.661,167.946 C134.343,167.726 134.818,167.155 134.892,166.912 L134.892,165.747 Z M148.9,163.594 C148.321673,163.590207 147.743327,163.590207 147.165,163.594 C147.165,162.724 147.787,161.145 150.279,161.145 C152.771,161.145 153.369,162.858 153.437,163.225 C153.504,163.595 153.263,168.762 153.785,169.35 L151.933,169.352 C151.78,168.829 151.704,168.442 151.704,168.192 C151.415,168.544 150.918,169.189 150.155,169.425 C149.392,169.662 147.658,169.789 146.948,168.125 C146.48,167.029 146.778,165.795 147.658,165.23 C149.111,164.297 151.108,164.609 151.704,164.609 C151.781,162.944 151.284,162.556 150.155,162.556 C149.403,162.556 148.985,162.902 148.9,163.594 Z M151.703,165.747 C151.156,165.737 150.787,165.734 149.875,165.763 C149.149,165.827 148.501,166.363 148.557,167.129 C148.622,168.042 149.66,168.209 150.472,167.946 C151.154,167.726 151.629,167.155 151.703,166.912 L151.703,165.747 Z M143.408,157.808 L145.164,157.808 L145.164,169.441 L143.72,169.441 C143.644,169.119 143.571,168.775 143.501,168.409 C143.212,169.213 140.278,170.631 138.826,168.232 C137.612,166.227 138.278,163.532 138.897,162.557 C139.361,161.826 141.243,159.946 143.408,162.246 C143.411,159.544 143.411,158.065 143.408,157.808 Z M143.418,163.674 C143.138,162.787 141.258,162.227 140.502,163.312 C139.748,164.398 139.782,165.791 140.214,167.064 C140.646,168.337 142.493,168.58 143.419,167.18 L143.419,163.674 L143.418,163.674 Z M160.574,162.389 L160.756,161.366 L162.233,161.366 L162.233,169.554 C162.238,172.408 159.033,173.501 156.089,172.076 C156.259,171.234 156.351,170.763 156.368,170.663 C157.651,171.093 160.843,172.164 160.437,168.611 C158.604,170.489 156.529,169.351 155.812,168.098 C155.02,166.714 154.504,162.585 157.052,161.471 C158.52,160.83 159.694,161.136 160.574,162.389 Z M160.42,163.637 C160.072,163.11 159.848,162.67 158.678,162.67 C157.507,162.67 156.774,164.106 157.028,166.312 C157.282,168.518 159.676,168.518 160.42,167.122 L160.42,163.637 Z" id="Shape" fill="#FFFFFF" fill-rule="nonzero"></path>
        </g>
    </g>
</svg>