<?xml version="1.0" encoding="UTF-8"?>
<svg width="16px" height="16px" viewBox="0 0 16 16" version="1.1" xmlns="http://www.w3.org/2000/svg" xmlns:xlink="http://www.w3.org/1999/xlink">
    <!-- Generator: Sketch 50.2 (55047) - http://www.bohemiancoding.com/sketch -->
    <title>icons/system/light/deposit/ic-deposit</title>
    <desc>Created with Sketch.</desc>
    <defs></defs>
    <g id="icons/system/light/deposit/ic-deposit" stroke="none" stroke-width="1" fill="none" fill-rule="evenodd">
        <g id="Group" transform="translate(1.000000, 1.000000)" fill="#4CAF50" fill-rule="nonzero">
            <path d="M7.5,10.4128897 L10.1746043,8.1203717 C10.3842672,7.94066062 10.6999172,7.96494139 10.8796283,8.17460431 C11.0593394,8.38426723 11.0350586,8.69991723 10.8253957,8.8796283 L7.32751246,11.8778139 C7.23977947,11.9539322 7.12526958,12 7,12 C6.87473042,12 6.76022053,11.9539322 6.67248754,11.8778139 L3.17460431,8.8796283 C2.96494139,8.69991723 2.94066062,8.38426723 3.1203717,8.17460431 C3.30008277,7.96494139 3.61573277,7.94066062 3.82539569,8.1203717 L6.5,10.4128897 L6.5,0.5 C6.5,0.223857625 6.72385763,0 7,0 C7.27614237,0 7.5,0.223857625 7.5,0.5 L7.5,10.4128897 Z M13,13 L13,10.5 C13,10.2238576 13.2238576,10 13.5,10 C13.7761424,10 14,10.2238576 14,10.5 L14,13.5 C14,13.7761424 13.7761424,14 13.5,14 L0.5,14 C0.223857625,14 0,13.7761424 0,13.5 L0,10.5 C0,10.2238576 0.223857625,10 0.5,10 C0.776142375,10 1,10.2238576 1,10.5 L1,13 L13,13 Z" id="Combined-Shape"></path>
        </g>
    </g>
</svg>