<?xml version="1.0" encoding="UTF-8"?>
<svg width="16px" height="16px" viewBox="0 0 16 16" version="1.1" xmlns="http://www.w3.org/2000/svg" xmlns:xlink="http://www.w3.org/1999/xlink">
    <!-- Generator: Sketch 50.2 (55047) - http://www.bohemiancoding.com/sketch -->
    <title>icons/system/light/withdrawal/ic-withdrawal</title>
    <desc>Created with Sketch.</desc>
    <defs></defs>
    <g id="icons/system/light/withdrawal/ic-withdrawal" stroke="none" stroke-width="1" fill="none" fill-rule="evenodd">
        <g id="Group" transform="translate(1.000000, 1.000000)" fill="#F44336" fill-rule="nonzero">
            <path d="M6.67248754,0.122186074 C6.76022053,0.046067755 6.87473042,0 7,0 C7.12526958,0 7.23977947,0.0460677551 7.32751246,0.122186074 L10.8253957,3.1203717 C11.0350586,3.30008277 11.0593394,3.61573277 10.8796283,3.82539569 C10.6999172,4.03505861 10.3842672,4.05933938 10.1746043,3.8796283 L7.5,1.58711032 L7.5,11.5 C7.5,11.7761424 7.27614237,12 7,12 C6.72385763,12 6.5,11.7761424 6.5,11.5 L6.5,1.58711032 L3.82539569,3.8796283 C3.61573277,4.05933938 3.30008277,4.03505861 3.1203717,3.82539569 C2.94066062,3.61573277 2.96494139,3.30008277 3.17460431,3.1203717 L6.67248754,0.122186074 Z M13,13 L13,10.5 C13,10.2238576 13.2238576,10 13.5,10 C13.7761424,10 14,10.2238576 14,10.5 L14,13.5 C14,13.7761424 13.7761424,14 13.5,14 L0.5,14 C0.223857625,14 0,13.7761424 0,13.5 L0,10.5 C0,10.2238576 0.223857625,10 0.5,10 C0.776142375,10 1,10.2238576 1,10.5 L1,13 L13,13 Z" id="Combined-Shape"></path>
        </g>
    </g>
</svg>