<svg xmlns="http://www.w3.org/2000/svg" width="140" height="140" viewBox="0 0 140 140"><path fill="#C2C2C1" d="M138 2v136H2V2h136m2-2H0v140h140V0z"/><path fill="#2A3052" d="M61.1 39.7c-.9-2.1-2.4-4.3-4.5-6.5l1.7-.8c2.6-1.2 4.6-1.4 6-.8 1.4.6 2.7 2.3 4 5.2 1.8 4 2.4 7.2 1.8 9.7-.6 2.5-2.4 4.3-5.5 5.7l-1.4.6c.3-4.7-.3-9.1-2.1-13.1zm25.8 59.9c-1.9-4.3-4.6-7.9-8.2-10.7l1.8-.8c5.5-2.4 10 .2 13.5 7.9 1.2 2.8 1.6 4.9 1.2 6.3-.5 1.4-1.9 2.7-4.2 3.7l-1.9.9c-.4-2.5-1.1-4.9-2.2-7.3zm-24.4-4.8c-3.3-5-6.3-10.6-8.9-16.5-2.6-5.9-4.6-11.7-6.1-17.4-1.5-5.8-2.4-11.5-2.7-17.3 2.8-3.8 6.2-7 10-9.6 1.8 1.9 3.2 4 4.3 6.3 1.7 4 2.3 8.4 1.8 13.5l-.9.4c-3.8 1.7-3.1 8.6 2.3 20.8 5.2 11.7 9.7 16.7 13.6 15l.8-.4c3.8 3.3 6.6 6.9 8.2 10.7 1 2.3 1.8 4.6 2.3 7.2-4.8 1.2-9.4 1.5-13.8.9-3.9-4-7.6-8.6-10.9-13.6zM70 17.2c29.1 0 52.8 23.7 52.8 52.8S99.1 122.8 70 122.8 17.2 99.1 17.2 70 40.9 17.2 70 17.2m0-3c-30.8 0-55.8 25-55.8 55.8 0 30.8 25 55.8 55.8 55.8 30.8 0 55.8-25 55.8-55.8 0-30.8-25-55.8-55.8-55.8z"/></svg>