<svg width="64" height="64" xmlns="http://www.w3.org/2000/svg"><path d="M50 4a6 6 0 016 6v44a6 6 0 01-6 6H14a6 6 0 01-6-6V10a6 6 0 016-6zm0 4H14a2 2 0 00-2 2v44a2 2 0 002 2h36a2 2 0 002-2V10a2 2 0 00-2-2zm-8 32a2 2 0 110 4H30a2 2 0 110-4h12zm-20 0a2 2 0 110 4 2 2 0 010-4zm20-8a2 2 0 110 4H30a2 2 0 110-4h12zm-20 0a2 2 0 110 4 2 2 0 010-4zm20-8a2 2 0 110 4H30a2 2 0 110-4h12zm-20 0a2 2 0 110 4 2 2 0 010-4zm25.2-12a.8.8 0 01.8.8v5.269a.8.8 0 01-1.366.565l-5.268-5.268A.8.8 0 0141.93 12h5.27z" fill="#2A3052"/></svg>