<svg id="Layer_1" data-name="Layer 1" xmlns="http://www.w3.org/2000/svg" viewBox="0 0 140 140"><defs><style>.cls-1{fill:#f3f3f3;}.cls-2{fill:#cdcccc;}.cls-3{fill:none;stroke:#293052;stroke-miterlimit:10;stroke-width:2px;}.cls-4{fill:#293052;}</style></defs><title>application</title><rect class="cls-1" x="1" y="1" width="138" height="138"/><path class="cls-2" d="M138,2V138H2V2H138m2-2H0V140H140V0h0Z" transform="translate(0 0)"/><rect class="cls-3" x="20" y="28.33" width="100" height="83.33"/><line class="cls-3" x1="20" y1="47.74" x2="120" y2="47.74"/><circle class="cls-4" cx="109.89" cy="37.85" r="3.23"/><circle class="cls-4" cx="99.48" cy="37.85" r="3.23"/><rect class="cls-4" x="60.82" y="84.71" width="17.67" height="17.67" rx="2.29" ry="2.29"/><rect class="cls-4" x="33.85" y="84.71" width="17.67" height="17.67" rx="2.29" ry="2.29"/><rect class="cls-4" x="60.82" y="58.84" width="17.67" height="17.67" rx="2.29" ry="2.29"/><rect class="cls-4" x="88.48" y="84.71" width="17.67" height="17.67" rx="2.29" ry="2.29"/><rect class="cls-4" x="88.48" y="58.84" width="17.67" height="17.67" rx="2.29" ry="2.29"/><rect class="cls-4" x="33.85" y="58.84" width="17.67" height="17.67" rx="2.29" ry="2.29"/></svg>
