<?xml version="1.0" encoding="utf-8"?>
<!-- Generator: Adobe Illustrator 14.0.0, SVG Export Plug-In . SVG Version: 6.00 Build 43363)  -->
<!DOCTYPE svg PUBLIC "-//W3C//DTD SVG 1.1//EN" "http://www.w3.org/Graphics/SVG/1.1/DTD/svg11.dtd">
<svg version="1.1" id="Layer_1" xmlns="http://www.w3.org/2000/svg" xmlns:xlink="http://www.w3.org/1999/xlink" x="0" y="0"
	 width="140px" height="140px" viewBox="0 0 140 140" enable-background="new 0 0 140 140" xml:space="preserve">
<g>
	<g>
		<rect x="1" y="1" fill="#F3F3F3" width="138" height="138"/>
		<g>
			<path fill="#CDCCCC" d="M138,2v136H2V2H138 M140,0H0v140h140V0L140,0z"/>
		</g>
	</g>
	<g>
		<g>
			<path fill="#2A3052" d="M91.463,63.042l-11.688-4.125c-0.584-0.206-1.117-0.959-1.117-1.581v-2.844
				c0-0.499,0.418-0.918,0.916-0.918h4.463c1.516,0,2.752-1.234,2.752-2.75v-7.43h0.795c1.488,0,2.701-1.233,2.701-2.75v-3.472
				c0-1.516-1.213-2.749-2.701-2.749h-0.795V22.75c0-1.516-1.236-2.75-2.752-2.75H55.961c-1.518,0-2.75,1.234-2.75,2.75v11.674
				h-0.932c-1.492,0-2.701,1.233-2.701,2.749v3.472c0,1.517,1.209,2.75,2.701,2.75h0.932v7.43c0,1.516,1.232,2.75,2.75,2.75h4.465
				c0.498,0,0.918,0.419,0.918,0.918v2.844c0,0.622-0.537,1.375-1.119,1.581l-11.689,4.125c-1.311,0.461-2.34,1.916-2.34,3.31v8.36
				c0,1.518,1.232,2.752,2.75,2.752h42.107c1.518,0,2.752-1.234,2.752-2.752v-8.36C93.805,64.958,92.777,63.502,91.463,63.042z
				 M87.584,36.256c0.477,0,0.867,0.412,0.867,0.916v3.472c0,0.505-0.391,0.917-0.867,0.917h-0.795v-5.305H87.584z M55.961,21.833
				h28.076c0.504,0,0.918,0.412,0.918,0.916v7.69c-5.283-1.482-9.926-5.755-9.977-5.8c-0.344-0.323-0.877-0.331-1.227-0.021
				c-5.307,4.641-15.926,5.886-18.707,6.139V22.75C55.045,22.246,55.455,21.833,55.961,21.833z M52.279,41.561
				c-0.475,0-0.867-0.412-0.867-0.917v-3.472c0-0.504,0.393-0.916,0.867-0.916h0.932v5.305H52.279z M91.973,74.711
				c0,0.504-0.412,0.918-0.92,0.918H48.945c-0.504,0-0.918-0.414-0.918-0.918v-8.36c0-0.622,0.533-1.373,1.117-1.579l11.689-4.126
				c1.316-0.463,2.344-1.917,2.344-3.311v-2.844c0-1.517-1.236-2.751-2.752-2.751h-4.465c-0.506,0-0.916-0.411-0.916-0.917V32.601
				c2.582-0.212,13.244-1.353,19.291-6.086c1.539,1.312,5.797,4.624,10.619,5.818v2.65c-0.049,0.109-0.07,0.229-0.07,0.355
				c0,0.125,0.021,0.244,0.07,0.354v6.43c-0.049,0.109-0.07,0.229-0.07,0.355c0,0.124,0.021,0.245,0.07,0.354v7.991
				c0,0.506-0.414,0.917-0.918,0.917h-4.463c-1.518,0-2.752,1.234-2.752,2.751v2.844c0,1.394,1.029,2.848,2.344,3.311l11.686,4.126
				c0.588,0.206,1.121,0.957,1.121,1.579V74.711z"/>
		</g>
		<g>
			<g>
				<path fill="#2A3052" d="M44.633,96.912h-7.662c-1.215,0-2.199-0.986-2.199-2.199c0-1.215,0.984-2.199,2.199-2.199h7.662
					c1.215,0,2.197,0.984,2.197,2.199C46.83,95.926,45.848,96.912,44.633,96.912L44.633,96.912z"/>
			</g>
			<g>
				<path fill="#2A3052" d="M103.029,96.779c-0.002,0-0.004,0-0.006,0H54.627c-1.215-0.004-2.197-0.99-2.195-2.205
					c0.006-1.213,0.99-2.193,2.201-2.193c0.002,0,0.004,0,0.004,0h48.398c1.213,0.004,2.195,0.979,2.193,2.193
					C105.225,95.787,104.242,96.779,103.029,96.779L103.029,96.779z"/>
			</g>
		</g>
		<g>
			<g>
				<path fill="#2A3052" d="M44.633,108.455h-7.662c-1.215,0-2.199-0.984-2.199-2.197c0-1.215,0.984-2.201,2.199-2.201h7.662
					c1.215,0,2.197,0.986,2.197,2.201C46.83,107.471,45.848,108.455,44.633,108.455L44.633,108.455z"/>
			</g>
			<g>
				<path fill="#2A3052" d="M103.029,108.324c-0.002,0-0.004,0-0.006,0H54.627c-1.215-0.004-2.197-0.99-2.195-2.207
					c0.006-1.211,0.99-2.191,2.201-2.191c0.002,0,0.004,0,0.004,0h48.398c1.213,0.002,2.195,0.977,2.193,2.191
					C105.225,107.33,104.242,108.324,103.029,108.324L103.029,108.324z"/>
			</g>
		</g>
		<g>
			<g>
				<path fill="#2A3052" d="M44.633,120h-7.662c-1.215,0-2.199-0.986-2.199-2.199c0-1.215,0.984-2.199,2.199-2.199h7.662
					c1.215,0,2.197,0.984,2.197,2.199C46.83,119.014,45.848,120,44.633,120L44.633,120z"/>
			</g>
			<g>
				<path fill="#2A3052" d="M103.029,119.867c-0.002,0-0.004,0-0.006,0H54.627c-1.215-0.002-2.197-0.99-2.195-2.205
					c0.006-1.211,0.99-2.193,2.201-2.193c0.002,0,0.004,0,0.004,0h48.398c1.213,0.004,2.195,0.98,2.193,2.193
					C105.225,118.875,104.242,119.867,103.029,119.867L103.029,119.867z"/>
			</g>
		</g>
	</g>
</g>
</svg>
