<svg id="Layer_1" data-name="Layer 1" xmlns="http://www.w3.org/2000/svg" viewBox="0 0 140 140"><defs><style>.cls-1{fill:#f2f2f2;}.cls-2{fill:#cdcccc;}.cls-3{fill:none;stroke:#293052;stroke-miterlimit:10;stroke-width:2px;}.cls-4{fill:#293052;}</style></defs><title>login_history</title><g id="_Group_" data-name="&lt;Group&gt;"><g id="_Rectangle_" data-name="&lt;Rectangle&gt;"><rect class="cls-1" x="1" y="1" width="138" height="138"/><path class="cls-2" d="M138,2V138H2V2H138m2-2H0V140H140V0h0Z"/></g><polyline class="cls-3" points="75.02 124 64.98 113.97 75.02 103.94"/><path class="cls-3" d="M32.77,96.82A49,49,0,1,1,70,114"/><path class="cls-3" d="M53.38,52.78V43.66a6,6,0,0,1,6-6H80.64a6,6,0,0,1,6,6v3.84"/><rect class="cls-3" x="45.83" y="52.78" width="48.35" height="33.24" rx="6.04" ry="6.04"/><path class="cls-4" d="M73.28,65.81a3.28,3.28,0,1,0-4.58,3V75a1.3,1.3,0,1,0,2.6,0V68.82A3.28,3.28,0,0,0,73.28,65.81Z"/></g></svg>