<svg id="Layer_1" data-name="Layer 1" xmlns="http://www.w3.org/2000/svg" viewBox="0 0 140 140"><defs><style>.cls-1{fill:#f3f2f2;}.cls-2{fill:#cdcccb;}.cls-3{fill:#293052;}.cls-4{fill:#e88024;}</style></defs><title>limits</title><rect class="cls-1" x="1" y="1" width="138" height="138"/><path class="cls-2" d="M138,2V138H2V2H138m2-2H0V140H140V0Z"/><g id="_Group_" data-name="&lt;Group&gt;"><g id="_Group_2" data-name="&lt;Group&gt;"><path class="cls-3" d="M70,120a50,50,0,1,1,50-50A50.06,50.06,0,0,1,70,120Zm0-97a47,47,0,1,0,47,47A47,47,0,0,0,70,23Z"/></g><g id="_Group_3" data-name="&lt;Group&gt;"><g id="_Group_4" data-name="&lt;Group&gt;"><path class="cls-3" d="M70,110.3A40.3,40.3,0,1,1,110.31,70,40.35,40.35,0,0,1,70,110.3Zm0-77.58A37.27,37.27,0,1,0,107.28,70,37.32,37.32,0,0,0,70,32.73Z"/></g><g id="_Group_5" data-name="&lt;Group&gt;"><path class="cls-3" d="M66.93,77.08a4.81,4.81,0,0,1-3.4-8.21l.1-.09a1.33,1.33,0,0,1,.25-.24L82.31,54.78a1.51,1.51,0,0,1,2.12,2.12L70.67,75.32a1.5,1.5,0,0,1-.25.27l-.07.08A4.82,4.82,0,0,1,66.93,77.08Zm-1-6.29-.15.15a1.77,1.77,0,1,0,2.41,2.6l.15-.16,7.4-9.91Z"/></g><g id="_Group_6" data-name="&lt;Group&gt;"><g id="_Group_7" data-name="&lt;Group&gt;"><g id="_Group_8" data-name="&lt;Group&gt;"><rect class="cls-3" x="66.96" y="37.85" width="6.05" height="3.03" transform="translate(30.28 109.16) rotate(-89.72)"/></g></g><g id="_Group_9" data-name="&lt;Group&gt;"><g id="_Group_10" data-name="&lt;Group&gt;"><rect class="cls-4" x="98.05" y="66.38" width="5.17" height="3.03"/></g><g id="_Group_11" data-name="&lt;Group&gt;"><rect class="cls-3" x="36.73" y="66.38" width="5.26" height="3.03"/></g></g><g id="_Group_12" data-name="&lt;Group&gt;"><g id="_Group_13" data-name="&lt;Group&gt;"><rect class="cls-4" x="88.56" y="46.26" width="5.28" height="3.03" transform="translate(-6.44 80.44) rotate(-46.15)"/></g></g><g id="_Group_14" data-name="&lt;Group&gt;"><g id="_Group_15" data-name="&lt;Group&gt;"><rect class="cls-3" x="47.4" y="45.09" width="3.03" height="5.57" transform="translate(-19.52 47.59) rotate(-44.15)"/></g></g><g id="_Group_16" data-name="&lt;Group&gt;"><g id="_Group_17" data-name="&lt;Group&gt;"><rect class="cls-3" x="78.22" y="40.02" width="5.98" height="3.03" transform="translate(13.07 102.17) rotate(-68.75)"/></g></g><g id="_Group_18" data-name="&lt;Group&gt;"><g id="_Group_19" data-name="&lt;Group&gt;"><rect class="cls-3" x="40.75" y="55.03" width="3.03" height="5.27" transform="translate(-27.58 72.95) rotate(-66.11)"/></g></g><g id="_Group_20" data-name="&lt;Group&gt;"><g id="_Group_21" data-name="&lt;Group&gt;"><rect class="cls-4" x="95.29" y="55.66" width="4.9" height="3.03" transform="translate(-14.2 40.1) rotate(-21.66)"/></g></g><g id="_Group_22" data-name="&lt;Group&gt;"><g id="_Group_23" data-name="&lt;Group&gt;"><rect class="cls-3" x="56.99" y="38.64" width="3.03" height="5.55" transform="translate(-11.77 27.3) rotate(-23.93)"/></g></g></g><g id="_Group_24" data-name="&lt;Group&gt;"><g id="_Group_25" data-name="&lt;Group&gt;"><circle class="cls-3" cx="70.07" cy="95.4" r="1.94"/></g><g id="_Group_26" data-name="&lt;Group&gt;"><circle class="cls-3" cx="82.26" cy="92.14" r="1.94"/></g><g id="_Group_27" data-name="&lt;Group&gt;"><circle class="cls-3" cx="57.46" cy="92.14" r="1.94"/></g><g id="_Group_28" data-name="&lt;Group&gt;"><circle class="cls-3" cx="48.32" cy="83.41" r="1.94"/></g><g id="_Group_29" data-name="&lt;Group&gt;"><circle class="cls-3" cx="91.68" cy="83.41" r="1.94"/></g></g><g id="_Group_30" data-name="&lt;Group&gt;"><path class="cls-3" d="M77.61,89H62.39V80.54H77.61Zm-12.19-3h9.16V83.57H65.42Z"/></g><g id="_Group_31" data-name="&lt;Group&gt;"><path class="cls-3" d="M104.76,70h-3a31.73,31.73,0,0,0-63.46,0h-3a34.76,34.76,0,1,1,69.53,0Z"/></g><g id="_Group_32" data-name="&lt;Group&gt;"><path class="cls-3" d="M99.41,70.09h-3a26.38,26.38,0,0,0-52.75,0h-3a29.41,29.41,0,0,1,58.81,0Z"/></g></g></g></svg>