<?xml version="1.0" encoding="utf-8"?>
<!-- Generator: Adobe Illustrator 14.0.0, SVG Export Plug-In . SVG Version: 6.00 Build 43363)  -->
<!DOCTYPE svg PUBLIC "-//W3C//DTD SVG 1.1//EN" "http://www.w3.org/Graphics/SVG/1.1/DTD/svg11.dtd">
<svg version="1.1" id="Layer_1" xmlns="http://www.w3.org/2000/svg" xmlns:xlink="http://www.w3.org/1999/xlink" x="0px" y="0px"
	 width="140px" height="140px" viewBox="0 0 140 140" enable-background="new 0 0 140 140" xml:space="preserve">
<g>
	<g>
		<rect x="1" y="1" fill="#F3F3F3" width="138" height="138"/>
		<g>
			<path fill="#CDCCCC" d="M138,2v136H2V2H138 M140,0H0v140h140V0L140,0z"/>
		</g>
	</g>
	<g>
		<circle fill="none" stroke="#2A3052" stroke-width="2" cx="70" cy="70" r="50"/>
		<g>
			<circle fill="none" stroke="#2A3052" stroke-width="2" cx="70" cy="70" r="40"/>
			<path fill="none" stroke="#2A3052" stroke-width="2" stroke-linecap="round" stroke-linejoin="round" d="M69.438,74.551
				l14.188-18.994L64.631,69.745l0.02,0.02c-0.07,0.062-0.15,0.111-0.219,0.179c-1.326,1.327-1.326,3.479,0,4.807
				c1.328,1.326,3.48,1.326,4.807,0c0.068-0.068,0.119-0.148,0.178-0.219L69.438,74.551z"/>
			<g>
				<g>
					<line fill="none" stroke="#2A3052" stroke-width="2" x1="70" y1="35.286" x2="69.971" y2="41.523"/>
				</g>
				<g>
					<line fill="none" stroke="#E88024" stroke-width="2" x1="98.922" y1="68.862" x2="104.256" y2="68.862"/>
					<line fill="none" stroke="#2A3052" stroke-width="2" x1="41.113" y1="68.862" x2="35.686" y2="68.862"/>
				</g>
				<g>
					<line fill="none" stroke="#E88024" stroke-width="2" x1="93.742" y1="45.12" x2="89.971" y2="49.047"/>
				</g>
				<g>
					<line fill="none" stroke="#2A3052" stroke-width="2" x1="50.256" y1="49.237" x2="46.258" y2="45.12"/>
				</g>
				<g>
					<line fill="none" stroke="#2A3052" stroke-width="2" x1="82.682" y1="37.772" x2="80.445" y2="43.523"/>
				</g>
				<g>
					<line fill="none" stroke="#2A3052" stroke-width="2" x1="43.875" y1="58.38" x2="38.908" y2="56.18"/>
				</g>
				<g>
					<line fill="none" stroke="#E88024" stroke-width="2" x1="100.951" y1="55.846" x2="96.256" y2="57.713"/>
				</g>
				<g>
					<line fill="none" stroke="#2A3052" stroke-width="2" x1="59.305" y1="43.142" x2="56.984" y2="37.912"/>
				</g>
			</g>
			<g>
				<circle fill="none" stroke="#2A3052" stroke-width="2" cx="70.07" cy="96.189" r="2"/>
				<circle fill="none" stroke="#2A3052" stroke-width="2" cx="82.643" cy="92.834" r="2"/>
				<circle fill="none" stroke="#2A3052" stroke-width="2" cx="57.07" cy="92.834" r="2"/>
				<circle fill="none" stroke="#2A3052" stroke-width="2" cx="47.643" cy="83.834" r="2"/>
				<circle fill="none" stroke="#2A3052" stroke-width="2" cx="92.357" cy="83.834" r="2"/>
			</g>
			<rect x="63.713" y="82.428" fill="none" stroke="#2A3052" stroke-width="2" width="12.572" height="5.572"/>
			<path fill="none" stroke="#2A3052" stroke-width="2" d="M35.713,70c0-18.936,15.352-34.286,34.287-34.286
				S104.285,51.064,104.285,70"/>
			<path fill="none" stroke="#2A3052" stroke-width="2" d="M41.236,70.094c0-15.885,12.879-28.762,28.764-28.762
				s28.762,12.877,28.762,28.762"/>
		</g>
	</g>
</g>
</svg>
