<svg id="Layer_1" data-name="Layer 1" xmlns="http://www.w3.org/2000/svg" viewBox="0 0 140 140"><defs><style>.cls-1{fill:#f3f2f2;}.cls-2{fill:#cdcccb;}.cls-3{fill:#293052;}</style></defs><title>self_exclusion</title><rect class="cls-1" x="1" y="1" width="138" height="138"/><path class="cls-2" d="M138,2V138H2V2H138m2-2H0V140H140V0Z"/><path id="_Compound_Path_" data-name="&lt;Compound Path&gt;" class="cls-3" d="M106.07,73a8.37,8.37,0,0,0-15.16-3L89.66,71.9V38.81a8.34,8.34,0,0,0-13.42-6.65v-3.8a8.37,8.37,0,1,0-16.74,0v1.71a8.34,8.34,0,0,0-13.42,6.65v2.71A8.33,8.33,0,0,0,41,37.68c-4.3,0-7.19,3.36-7.19,8.37V90.59c0,.29.93,29.42,29.36,29.42,15.39,0,20-5.85,28.12-18.08l13.56-22.63A8.3,8.3,0,0,0,106.07,73Zm-4,4.54L88.51,100.19c-7.86,11.79-11.6,16.58-25.39,16.58C37.89,116.76,37,91.59,37,90.55V46c0-1.2.29-5.13,3.95-5.13A5.14,5.14,0,0,1,46.09,46V66.78a1.62,1.62,0,0,0,3.24,0V36.72a5.12,5.12,0,0,1,10.18-.82v24a1.62,1.62,0,0,0,3.24,0V28.37a5.13,5.13,0,1,1,10.26,0V61.32a1.62,1.62,0,1,0,3.24,0V38a5.12,5.12,0,0,1,10.18.82V77.39a1.62,1.62,0,0,0,3,.88l4.22-6.52a5.14,5.14,0,0,1,4.27-2.26,5.1,5.1,0,0,1,5,4.14A5.16,5.16,0,0,1,102.08,77.54Z"/></svg>