<svg width="140" height="140" xmlns="http://www.w3.org/2000/svg"><g fill-rule="nonzero" fill="none"><path fill="#F3F2F2" d="M1 1h138v138H1z"/><path d="M138 2v136H2V2h136zm2-2H0v140h140V0z" fill="#CDCCCB"/><g fill="#2A3052"><path d="M107.258 21.758H31.742c-.5 0-.981.199-1.335.554a1.897 1.897 0 0 0-.553 1.34V82.14c0 .148.017.296.051.44 1.136 4.772 8.359 29.003 39.102 37.352.322.089.663.089.986 0 30.831-8.366 37.982-32.582 39.102-37.352.034-.142.051-.288.05-.435V23.652c.001-.503-.198-.985-.552-1.34a1.884 1.884 0 0 0-1.335-.554zm-1.888 60.164c-1.18 4.83-7.951 26.413-35.87 34.218-27.836-7.79-34.673-29.388-35.87-34.228V53.955h71.74v27.967zm0-31.755H33.63V25.545h71.74v24.622z"/><path d="M58.173 105.09h22.654c3.127-.002 5.66-2.544 5.664-5.68V80.47c-.003-3.137-2.537-5.679-5.664-5.682v-7.576c-.006-5.227-4.228-9.463-9.44-9.47h-3.775c-5.21.007-9.433 4.243-9.44 9.47v7.576c-3.126.003-5.66 2.545-5.663 5.682v18.94c.003 3.136 2.537 5.678 5.664 5.68zm3.775-37.878c.004-3.136 2.538-5.678 5.664-5.682h3.776c3.127.004 5.66 2.546 5.664 5.682v7.576H61.948v-7.576zM56.285 80.47a1.893 1.893 0 0 1 1.888-1.894h22.654a1.893 1.893 0 0 1 1.888 1.894v18.94a1.893 1.893 0 0 1-1.888 1.893H58.173a1.893 1.893 0 0 1-1.888-1.894V80.47z"/><path d="M67.612 93.378v2.243a1.89 1.89 0 0 0 1.888 1.894 1.89 1.89 0 0 0 1.888-1.894v-2.243a5.67 5.67 0 0 0 3.694-6.307 5.655 5.655 0 0 0-5.582-4.707 5.655 5.655 0 0 0-5.582 4.707 5.67 5.67 0 0 0 3.694 6.307zm1.888-7.226a1.89 1.89 0 0 1 1.888 1.893A1.893 1.893 0 0 1 69.5 89.94a1.89 1.89 0 0 1-1.888-1.894 1.89 1.89 0 0 1 1.888-1.893zM50.774 45.23c.297.697.98 1.149 1.735 1.149.755 0 1.438-.452 1.735-1.149l5.664-13.257a1.896 1.896 0 0 0-2.438-2.508 1.88 1.88 0 0 0-1.032 1.017l-3.93 9.194-3.928-9.194a1.885 1.885 0 1 0-3.25-.393 1.898 1.898 0 0 0-.22 1.884l5.664 13.257zM65.724 46.379a1.89 1.89 0 0 0 1.888-1.894v-3.788H69.5c3.128 0 5.664-2.544 5.664-5.682 0-3.138-2.536-5.682-5.664-5.682h-3.776c-.5 0-.98.2-1.335.555a1.897 1.897 0 0 0-.553 1.34v13.257c0 1.046.846 1.894 1.888 1.894zm1.888-13.258H69.5a1.89 1.89 0 0 1 1.888 1.894 1.89 1.89 0 0 1-1.888 1.894h-1.888V33.12zM80.827 46.379a1.89 1.89 0 0 0 1.888-1.894v-7.348l6.015 8.449c.477.67 1.331.954 2.113.703a1.894 1.894 0 0 0 1.312-1.804V31.227c0-.502-.199-.984-.553-1.34a1.885 1.885 0 0 0-2.67 0 1.897 1.897 0 0 0-.553 1.34v7.348l-6.015-8.448a1.885 1.885 0 0 0-2.112-.703 1.894 1.894 0 0 0-1.313 1.803v13.258c0 1.046.846 1.894 1.888 1.894z"/></g></g></svg>