<svg id="Layer_1" data-name="Layer 1" xmlns="http://www.w3.org/2000/svg" viewBox="0 0 140 140"><defs><style>.cls-1{fill:#f3f2f2;}.cls-2{fill:#c2c2c2;}.cls-3{fill:#2a3052;}</style></defs><title>android_ol</title><rect class="cls-1" x="1" y="1" width="138" height="138"/><path class="cls-2" d="M138,2V138H2V2H138m2-2H0V140H140Z"/><g id="Group_25" data-name="Group 25"><g id="Path_28" data-name="Path 28"><path class="cls-3" d="M36.44,86.44A7.25,7.25,0,0,1,29.2,79.2V54.8a7.28,7.28,0,0,1,7.24-7.25h0a7.28,7.28,0,0,1,7.24,7.24V79.2A7.25,7.25,0,0,1,36.44,86.44Zm0-36.6a5,5,0,0,0-5,5V79.2a5,5,0,1,0,9.91,0V54.8A5,5,0,0,0,36.44,49.84Z"/></g><g id="Path_29" data-name="Path 29"><path class="cls-3" d="M103.55,86.44a7.25,7.25,0,0,1-7.25-7.25V54.8a7.28,7.28,0,0,1,7.24-7.25h0a7.28,7.28,0,0,1,7.24,7.24V79.2A7.26,7.26,0,0,1,103.55,86.44Zm0-36.6a5,5,0,0,0-5,5V79.2a5,5,0,0,0,9.91,0V54.8A5,5,0,0,0,103.55,49.84Z"/></g><g id="Path_30" data-name="Path 30"><path class="cls-3" d="M82.2,120A7.25,7.25,0,0,1,75,112.75V98.65H65v14.11a7.25,7.25,0,0,1-14.49,0V98.65h-6.1v-48h51.1v48h-6.1v14.11A7.25,7.25,0,0,1,82.2,120ZM62.75,96.36H77.25v16.4a5,5,0,0,0,9.91,0V96.36h6.1V52.89H46.74V96.36h6.1v16.4a5,5,0,0,0,9.91,0Z"/></g><g id="Path_31" data-name="Path 31"><path class="cls-3" d="M95.55,49.84H44.46V48.7a25.34,25.34,0,0,1,9.43-19.84l-2.57-4.63a2.93,2.93,0,0,1,1-3.62,2.2,2.2,0,0,1,.85-.44,2.45,2.45,0,0,1,3,1.67l2.38,4A27.83,27.83,0,0,1,70,23.15a26.78,26.78,0,0,1,11.48,2.69l2.49-4.28a2.51,2.51,0,0,1,3.26-1.37,2.78,2.78,0,0,1,1.19,3.72l-2.58,4.65A25.79,25.79,0,0,1,95.55,48.7ZM46.76,47.55H93.23a23.49,23.49,0,0,0-9.57-17.76l-.82-.6,3.54-6.38a.46.46,0,0,0-.19-.59s-.09.08-.13.19l-.13.32-3.61,6.13-1-.52A24.43,24.43,0,0,0,70,25.44a25.45,25.45,0,0,0-11.36,2.92l-1,.51-3.92-6.5c-.4.29-.49.6-.38.86l3.49,6.27-.81.6A23,23,0,0,0,46.76,47.55ZM79,40.7a4,4,0,0,1-4-3.78,3.61,3.61,0,0,1,0-.49,4.2,4.2,0,0,1,8.39.05,4,4,0,0,1-3.78,4.22,2.74,2.74,0,0,1-.41,0Zm.17-6a1.91,1.91,0,0,0-1.9,1.87,1.81,1.81,0,0,0,1.84,1.88h.36a1.74,1.74,0,0,0,1.62-1.84,1.92,1.92,0,0,0-1.87-1.91ZM61,40.69h-.21a4.2,4.2,0,0,1,0-8.39A4,4,0,0,1,65,36.08c0,.16,0,.32,0,.48a4,4,0,0,1-3.78,4.13Zm0-6.11h-.11a1.91,1.91,0,0,0,0,3.81h.26a1.74,1.74,0,0,0,1.62-1.84v-.35A1.74,1.74,0,0,0,61,34.58Z"/></g></g></svg>