<svg xmlns="http://www.w3.org/2000/svg" viewBox="-21022 -21205.457 66.494 52.457"><defs><style>.a{fill:#2a3052;}</style></defs><path class="a" d="M10.344,4.876a1.108,1.108,0,1,1-2.216,0A1.136,1.136,0,0,1,9.235,3.768,1.088,1.088,0,0,1,10.344,4.876Zm-4.8-1.108A1.136,1.136,0,0,0,4.433,4.876,1.136,1.136,0,0,0,5.541,5.985,1.136,1.136,0,0,0,6.649,4.876,1.088,1.088,0,0,0,5.541,3.768Zm60.954.665V48.024a4.446,4.446,0,0,1-4.433,4.433H4.433A4.446,4.446,0,0,1,0,48.024V4.433A4.446,4.446,0,0,1,4.433,0H62.062A4.446,4.446,0,0,1,66.495,4.433ZM65.017,9.679H1.478V48.024a2.964,2.964,0,0,0,2.955,2.955H62.062a2.964,2.964,0,0,0,2.955-2.955Zm0-5.246a2.964,2.964,0,0,0-2.955-2.955H4.433A2.964,2.964,0,0,0,1.478,4.433V8.2h63.54ZM12.93,3.768a1.136,1.136,0,0,0-1.108,1.108,1.108,1.108,0,1,0,2.216,0A1.088,1.088,0,0,0,12.93,3.768Z" transform="translate(-21022 -21205.457)"/></svg>