<svg id="Layer_1" data-name="Layer 1" xmlns="http://www.w3.org/2000/svg" viewBox="0 0 140 140"><defs><style>.cls-1{fill:#f3f2f2;}.cls-2{fill:#c2c2c2;}.cls-3{fill:#2a3052;}</style></defs><title>chrome_ol</title><rect class="cls-1" x="1" y="1" width="138" height="138"/><path class="cls-2" d="M138,2V138H2V2H138m2-2H0V140H140Z"/><g id="Group_79" data-name="Group 79"><g id="Group_26" data-name="Group 26"><g id="Path_36" data-name="Path 36"><path class="cls-3" d="M63.54,119.5l-1-.12a46.75,46.75,0,0,1-30.37-16.6A48.46,48.46,0,0,1,20,70a50.39,50.39,0,0,1,6.25-25l1.3-2.36L48.88,79.85a25.72,25.72,0,0,0,8.62,9.8A21.26,21.26,0,0,0,70,93.33a22.32,22.32,0,0,0,6.23-1.14L80,90.93ZM27.65,48.93A47.42,47.42,0,0,0,23,70a45.51,45.51,0,0,0,11.43,30.83,43.79,43.79,0,0,0,27.45,15.43L73.56,96a25.3,25.3,0,0,1-3.51.38h0a24.69,24.69,0,0,1-14.21-4.2,28.65,28.65,0,0,1-9.59-10.88Z"/></g><g id="Path_37" data-name="Path 37"><path class="cls-3" d="M46.27,67.8,30,40.21l.59-.8A46.47,46.47,0,0,1,48.14,25,47.76,47.76,0,0,1,70,20a50.65,50.65,0,0,1,25,6.56A49,49,0,0,1,113.13,45l1.26,2.25H70a22.23,22.23,0,0,0-14.24,4.24,24.66,24.66,0,0,0-8.54,12.83ZM33.64,40.41,45.39,60.34a27.74,27.74,0,0,1,8.52-11.23l0,0a25.24,25.24,0,0,1,16.12-4.84h39.07A45.9,45.9,0,0,0,93.47,29.19,46.37,46.37,0,0,0,70,23a44.42,44.42,0,0,0-20.55,4.69A43.49,43.49,0,0,0,33.64,40.41Z"/></g><g id="Path_38" data-name="Path 38"><path class="cls-3" d="M71.23,120h-.65L68,120,89.29,83.48a24.67,24.67,0,0,0,4-13.48,24.33,24.33,0,0,0-7.71-17.07L82.83,50.3h33l.4.89A43.33,43.33,0,0,1,120,70a47.58,47.58,0,0,1-14.4,35A46.92,46.92,0,0,1,71.23,120ZM90.15,53.33A27.35,27.35,0,0,1,96.35,70a27.61,27.61,0,0,1-4.49,15.11l-18.6,31.86a43.94,43.94,0,0,0,30.16-14A44.63,44.63,0,0,0,117,70a40.41,40.41,0,0,0-3.12-16.7Z"/></g><g id="Ellipse_1" data-name="Ellipse 1"><path class="cls-3" d="M70,89.69A19.7,19.7,0,1,1,89.69,70,19.72,19.72,0,0,1,70,89.69Zm0-36.36A16.66,16.66,0,1,0,86.66,70,16.69,16.69,0,0,0,70,53.33Z"/></g></g></g></svg>