<svg xmlns="http://www.w3.org/2000/svg" viewBox="-21037 -21919.457 62.277 51.678"><defs><style>.a{fill:#2a3052;}</style></defs><g transform="translate(-21297 -22225)"><g transform="translate(260 305.543)"><path class="a" d="M60.026,0H2.253A2.291,2.291,0,0,0,0,2.319V41.806a2.234,2.234,0,0,0,2.253,2.253H23.387l-1.921,6.1H18.949a.735.735,0,0,0-.729.729.806.806,0,0,0,.8.8H43.33a.729.729,0,0,0,0-1.458H40.812l-1.921-6.1H60.026a2.234,2.234,0,0,0,2.253-2.253V2.319A2.291,2.291,0,0,0,60.026,0ZM2.253,1.524H60.026a.735.735,0,0,1,.729.729v32H1.524V2.319A.752.752,0,0,1,2.253,1.524Zm36.969,48.63H23.056l1.921-6.1H37.234Zm20.8-7.619H2.253a.735.735,0,0,1-.729-.729V35.843H60.754v5.963A.735.735,0,0,1,60.026,42.535Z"/></g></g></svg>