<svg id="Layer_1" data-name="Layer 1" xmlns="http://www.w3.org/2000/svg" viewBox="0 0 140 140"><defs><style>.cls-1{fill:#f3f2f2;}.cls-2{fill:#c2c2c2;}.cls-3{fill:#2a3052;}</style></defs><title>window_ol</title><rect class="cls-1" x="1" y="1" width="138" height="138"/><path class="cls-2" d="M138,2V138H2V2H138m2-2H0V140H140Z"/><g id="Layer_1-2" data-name="Layer_1"><g id="Path_5" data-name="Path 5"><path class="cls-3" d="M63.12,112.12l-2.88-.38-39.82-5.47V70.62h42.7Zm-39.68-8.47,36.66,5v-35H23.44Z"/></g><g id="Path_6" data-name="Path 6"><path class="cls-3" d="M119.6,120l-2.87-.39-52.4-7.37V70.62h55.28ZM67.35,109.62l49.24,6.92V73.64H67.35Z"/></g><g id="Path_7" data-name="Path 7"><path class="cls-3" d="M119.61,69.41H64.33V28.06L119.61,20Zm-52.26-3h49.24V23.5L67.35,30.66Z"/></g><g id="Path_8" data-name="Path 8"><path class="cls-3" d="M63.12,69.41H20.43l0-35.34,2.18-.31,40.55-5.5Zm-39.67-3H60.1V31.71l-36.7,5Z"/></g></g></svg>