<?xml version="1.0" encoding="utf-8"?>
<!-- Generator: Adobe Illustrator 19.1.0, SVG Export Plug-In . SVG Version: 6.00 Build 0)  -->
<svg version="1.1" id="Layer_1" xmlns="http://www.w3.org/2000/svg" xmlns:xlink="http://www.w3.org/1999/xlink" x="0" y="0"
	 viewBox="0 0 123.9 123.9" style="enable-background:new 0 0 123.9 123.9;" xml:space="preserve">
<style type="text/css">
	.st0{fill:#EFEFF0;}
	.st1{fill:#DFDFDE;}
	.st2{fill:#293051;}
	.st3{fill:none;stroke:#293051;stroke-width:2;stroke-linejoin:round;stroke-miterlimit:10;}
	.st4{fill:none;stroke:#293051;stroke-width:2;stroke-miterlimit:10;}
	.st5{fill:none;stroke:#293051;stroke-linejoin:round;stroke-miterlimit:10;}
	.st6{fill:none;stroke:#E98025;stroke-width:1.8504;stroke-miterlimit:10;}
	.st7{fill:#FFFFFF;stroke:#E98025;stroke-width:1.8504;stroke-miterlimit:10;}
</style>
<g>
	<circle class="st0" cx="61.9" cy="61.9" r="61.9"/>
	<g>
		<ellipse class="st1" cx="61" cy="103.8" rx="45.5" ry="2.2"/>
		<g>
			<g>
				<path class="st2" d="M69.4,45.6c0.9-0.4,1.6-1.3,1.7-2.3c0.1-0.9-0.2-1.9-0.9-2.5c-0.1-5.9-4.3-10.6-9.5-10.6
					c-5.1,0-9.3,4.7-9.5,10.5c-0.7,0.6-1.1,1.6-1,2.6c0.1,1.1,0.9,2,1.9,2.4c1.6,4,4.9,6.6,8.6,6.6C64.4,52.3,67.8,49.6,69.4,45.6z
					 M60.8,32.3c3.4,0,6.3,2.8,7.1,6.6c-2.9-0.7-4.5-3.7-4.5-3.7l-1-1.9l-0.9,2c-1.6,3.6-6,4.1-8,4.1C54.2,35.3,57.2,32.3,60.8,32.3
					z M60.8,50.2c-2.9,0-5.6-2.3-6.8-5.7l-0.2-0.6l-0.7-0.1c-0.4,0-0.7-0.3-0.7-0.7c0-0.4,0.1-0.7,0.5-0.9l0.6-0.3l0-0.4
					c2.1,0,6.6-0.4,9.1-3.8c1,1.3,2.9,3.1,5.6,3.4c0,0,0,0,0,0l0,0.7l0.5,0.3c0.3,0.2,0.4,0.5,0.4,0.9c0,0.4-0.3,0.7-0.7,0.7
					l-0.6,0.1l-0.2,0.6C66.4,47.9,63.7,50.2,60.8,50.2z"/>
				<path class="st2" d="M49.5,67c0-5.2,3.3-9.2,8.6-10.6l0.8-0.2v-3.4h-2.1v1.8c-5.8,1.8-9.4,6.6-9.4,12.5H49.5z"/>
				<path class="st2" d="M74.5,67c0-5.9-3.6-10.6-9.4-12.5v-1.8H63v3.4l0.8,0.2c5.3,1.4,8.6,5.5,8.6,10.6H74.5z"/>
			</g>
			<rect x="21" y="21.9" class="st3" width="80" height="63.7"/>
			<rect x="27.7" y="27.5" class="st4" width="66.5" height="38.9"/>
			<polygon class="st3" points="71.2,101.9 50.8,101.9 57.2,85.6 64.8,85.6 			"/>
			<line class="st3" x1="101" y1="101.9" x2="21" y2="101.9"/>
			<line class="st3" x1="101" y1="72.3" x2="21" y2="72.3"/>
			<circle class="st5" cx="61" cy="79.4" r="2.9"/>
		</g>
	</g>
	<polyline class="st6" points="58.1,85.2 62.3,76.5 66.1,78.3 69.4,73.4 74.6,72.7 80.6,69.9 84.4,62.8 88.7,62.8 93,58.1 
		97.3,58.1 102.1,55.6 107.4,53.8 	"/>
	<rect x="63.9" y="84.1" class="st7" width="10.7" height="19.9"/>
	<rect x="79.1" y="74.3" class="st7" width="10.7" height="29.7"/>
	<rect x="93.6" y="63.3" class="st7" width="10.7" height="40.7"/>
</g>
</svg>
