<svg id="Layer_1" xmlns="http://www.w3.org/2000/svg" viewBox="0 0 123.9 123.9"><style>.st0{fill:#efeff0}.st1{fill:#dfdfde}.st2{fill:#293051}.st3{fill:none;stroke-linejoin:round;stroke-miterlimit:10}.st3,.st4{stroke:#293051;stroke-width:2}.st4,.st5,.st6,.st7{fill:none;stroke-miterlimit:10}.st5{stroke-linejoin:round;stroke:#293051}.st6,.st7{stroke:#e98025;stroke-width:1.8504}.st7{fill:#fff}</style><circle class="st0" cx="61.9" cy="61.9" r="61.9"/><ellipse class="st1" cx="61" cy="103.8" rx="45.5" ry="2.2"/><path class="st2" d="M69.4 45.6c.9-.4 1.6-1.3 1.7-2.3.1-.9-.2-1.9-.9-2.5-.1-5.9-4.3-10.6-9.5-10.6-5.1 0-9.3 4.7-9.5 10.5-.7.6-1.1 1.6-1 2.6.1 1.1.9 2 1.9 2.4 1.6 4 4.9 6.6 8.6 6.6 3.7 0 7.1-2.7 8.7-6.7zm-8.6-13.3c3.4 0 6.3 2.8 7.1 6.6-2.9-.7-4.5-3.7-4.5-3.7l-1-1.9-.9 2c-1.6 3.6-6 4.1-8 4.1.7-4.1 3.7-7.1 7.3-7.1zm0 17.9c-2.9 0-5.6-2.3-6.8-5.7l-.2-.6-.7-.1c-.4 0-.7-.3-.7-.7 0-.4.1-.7.5-.9l.6-.3v-.4c2.1 0 6.6-.4 9.1-3.8 1 1.3 2.9 3.1 5.6 3.4v.7l.5.3c.3.2.4.5.4.9s-.3.7-.7.7l-.6.1-.2.6c-1.2 3.5-3.9 5.8-6.8 5.8zM49.5 67c0-5.2 3.3-9.2 8.6-10.6l.8-.2v-3.4h-2.1v1.8c-5.8 1.8-9.4 6.6-9.4 12.5h2.1zM74.5 67c0-5.9-3.6-10.6-9.4-12.5v-1.8H63v3.4l.8.2c5.3 1.4 8.6 5.5 8.6 10.6h2.1z"/><path class="st3" d="M21 21.9h80v63.7H21z"/><path class="st4" d="M27.7 27.5h66.5v38.9H27.7z"/><path class="st3" d="M71.2 101.9H50.8l6.4-16.3h7.6zM101 101.9H21M101 72.3H21"/><circle class="st5" cx="61" cy="79.4" r="2.9"/><path class="st6" d="M58.1 85.2l4.2-8.7 3.8 1.8 3.3-4.9 5.2-.7 6-2.8 3.8-7.1h4.3l4.3-4.7h4.3l4.8-2.5 5.3-1.8"/><path class="st7" d="M63.9 84.1h10.7V104H63.9zM79.1 74.3h10.7V104H79.1zM93.6 63.3h10.7V104H93.6z"/></svg>