<?xml version="1.0" encoding="utf-8"?>
<!-- Generator: Adobe Illustrator 19.1.0, SVG Export Plug-In . SVG Version: 6.00 Build 0)  -->
<svg version="1.1" id="Layer_1" xmlns="http://www.w3.org/2000/svg" xmlns:xlink="http://www.w3.org/1999/xlink" x="0" y="0"
	 viewBox="433.1 -116.19 240 227.74" style="enable-background:new 433.1 -116.19 240 227.74;" xml:space="preserve">
<style type="text/css">
	.st0{fill:#2BA9E0;}
	.st1{enable-background:new    ;}
	.st2{fill:#222222;}
	.st3{fill:#FFFFFF;}
	.st4{fill:#EB272A;}
	.st5{fill:none;}
	.st6{fill:#1A1A1A;}
</style>
<g>
	<path class="st0" d="M433.25-37.64h89.45v75.05h-89.45L433.25-37.64z"/>
	<path class="st4" d="M433.1,37.57h89.45v73.98H433.1V37.57z"/>
	<path class="st5" d="M435.12-9.07h85.7V8.84h-85.7V-9.07z"/>
	<g class="st1">
		<path class="st3" d="M471.56-9.3c-0.06,0.15-0.21,0.25-0.42,0.31c-0.95,2.33-2.71,5.08-4.43,6.78c-0.55-0.44-1.66-1.09-2.35-1.43
			c1.32-1.09,2.56-2.83,3.11-4.14h-13.58v-2.5H469l0.29-0.19L471.56-9.3z M463.54-5.23c-0.02,0.21-0.23,0.38-0.57,0.44
			c-0.52,4.6-2.27,9.34-6.49,11.88c-0.57-0.46-1.58-1.28-2.29-1.68c3.99-2.14,5.63-6.3,5.92-11L463.54-5.23z"/>
		<path class="st3" d="M474.92-5.8c0.59,1.26,1.22,3.19,1.49,4.45l-2.04,0.57c-0.27-1.3-0.84-3.15-1.43-4.45L474.92-5.8z
			 M487.14-5.32c-0.06,0.17-0.25,0.29-0.52,0.27c-1.72,6.19-4.98,9.85-9.76,11.78c-0.27-0.42-0.94-1.26-1.43-1.66
			c4.49-1.68,7.64-5.02,9.05-11.25L487.14-5.32z M479.94-6.68c0.44,1.28,0.84,3.3,1.01,4.62l-2.14,0.44
			c-0.17-1.38-0.59-3.3-1.03-4.64L479.94-6.68z"/>
		<path class="st3" d="M489.41-8.93h13.12l0.19-0.1l2.33,1.66c-0.1,0.1-0.21,0.21-0.38,0.29c-1.87,7.85-5.44,11.65-11.86,14.17
			c-0.38-0.67-1.16-1.66-1.68-2.2c5.69-2.12,9.24-5.77,10.33-11.25h-12.05V-8.93z M505.49-12.43c1.26,0,2.27,1.01,2.27,2.27
			c0,1.24-1.01,2.27-2.27,2.27c-1.24,0-2.27-1.03-2.27-2.27C503.23-11.47,504.3-12.43,505.49-12.43z M506.96-10.17
			c0-0.82-0.65-1.47-1.47-1.47c-0.8,0-1.47,0.65-1.47,1.47s0.67,1.47,1.47,1.47C506.35-8.7,506.96-9.39,506.96-10.17z"/>
	</g>
	<path class="st5" d="M435.12,65.6h85.7v17.91h-85.7V65.6z"/>
	<g>
		<g>
			<path class="st3" d="M467.72,67.32c-0.06,0.15-0.17,0.23-0.34,0.32c-0.76,2.35-1.72,4.62-2.88,6.47
				c0.76,0.44,1.76,1.07,2.35,1.51l-1.53,2.5c-0.63-0.48-1.7-1.22-2.44-1.7c-1.85,2.39-4.18,4.28-7.03,5.67
				c-0.4-0.61-1.41-1.6-2.08-2c2.67-1.16,4.98-2.88,6.8-5.02c-1.11-0.67-2.52-1.32-3.61-1.78l1.49-1.97
				c1.15,0.42,2.52,0.97,3.74,1.6c0.73-1.11,1.47-2.86,1.85-4.03h-5.73c-1.32,2.04-2.86,3.86-4.41,5.14
				c-0.5-0.48-1.53-1.26-2.18-1.66c2.96-2.16,5.08-5.52,6.32-9.05l3.28,0.88c-0.08,0.21-0.32,0.34-0.69,0.34
				c-0.21,0.57-0.57,1.3-0.86,1.89h5.54l0.23-0.06L467.72,67.32z M465.25,62.66c0.88,0.76,1.91,2.04,2.46,2.86l-1.22,0.95
				c-0.5-0.76-1.66-2.21-2.42-2.88L465.25,62.66z M468.27,62.14c0.86,0.76,1.95,1.97,2.5,2.79l-1.26,0.95
				c-0.46-0.78-1.64-2.14-2.37-2.81L468.27,62.14z"/>
			<path class="st3" d="M477.99,63.19l3.38,0.19c-0.02,0.23-0.25,0.48-0.67,0.52v2.96h4.33l0.48-0.21l2.31,0.94
				c-0.06,0.11-0.19,0.25-0.36,0.34c-1.24,7.58-4.14,11.63-10.73,13.96c-0.36-0.61-1.22-1.64-1.78-2.25
				c5.84-1.95,8.52-5.35,9.24-10.29h-9.91v4.49h-2.58v-6.99h6.3V63.19z"/>
			<path class="st3" d="M490.53,64.7c2.1,0.65,4.62,1.76,6.15,2.77l-1.39,2.39c-1.51-1.01-3.99-2.16-6-2.88L490.53,64.7z
				 M489.82,78.91c7.08-2.18,11.95-6.3,14.38-12.07c0.78,0.63,1.68,1.13,2.46,1.55c-2.6,5.73-7.62,10.2-14.57,12.66
				c-0.04,0.23-0.17,0.46-0.36,0.55L489.82,78.91z"/>
		</g>
	</g>
	<circle class="st2" cx="557.1" cy="-94.19" r="22"/>
	<g class="st1">
		<path class="st3" d="M561.23-88.99v2.8h-10.58c0.11-1.06,0.46-2.06,1.03-3.01c0.57-0.95,1.7-2.21,3.39-3.78
			c1.36-1.27,2.2-2.13,2.5-2.58c0.42-0.62,0.62-1.24,0.62-1.85c0-0.67-0.18-1.19-0.54-1.55c-0.36-0.36-0.86-0.54-1.5-0.54
			c-0.63,0-1.13,0.19-1.5,0.57s-0.59,1.01-0.64,1.89l-3.01-0.3c0.18-1.66,0.74-2.85,1.69-3.58s2.13-1.08,3.54-1.08
			c1.55,0,2.78,0.42,3.66,1.26s1.33,1.88,1.33,3.13c0,0.71-0.13,1.38-0.38,2.03c-0.25,0.64-0.66,1.31-1.21,2.01
			c-0.37,0.47-1.02,1.13-1.98,2.01s-1.56,1.45-1.81,1.74c-0.25,0.29-0.46,0.57-0.62,0.84H561.23z"/>
	</g>
	<g>
		<g>
			<path class="st6" d="M673.1,25.08c0,1.95-1.6,3.55-3.55,3.55H548.44c-1.96,0-3.55-1.6-3.55-3.55V5.83c0-1.96,1.6-3.56,3.55-3.56
				h121.1c1.96,0,3.55,1.6,3.55,3.56L673.1,25.08L673.1,25.08z"/>
			<g class="st1">
				<path class="st3" d="M598.44,18.83l1.32-0.56c0.51,0.77,1.07,1.79,1.3,2.45c-0.43,0.21-0.85,0.42-1.39,0.67
					c-0.21-0.69-0.75-1.75-1.25-2.54c-0.04,0.08-0.17,0.13-0.32,0.12c-0.38,1.07-1.02,2.28-1.72,3.04
					c-0.31-0.25-0.88-0.64-1.26-0.84c0.66-0.67,1.23-1.8,1.53-2.88l1.8,0.51L598.44,18.83z M600.54,8.44v9.76h-4.61V8.44H600.54z
					 M598.95,11.26V9.86h-1.49v1.39H598.95z M598.95,14.02v-1.41h-1.49v1.41H598.95z M598.95,16.76v-1.42h-1.49v1.42H598.95z
					 M609.4,18.28v1.32h-0.88v0.81c0,1.47-0.69,1.63-2.85,1.63c-0.06-0.43-0.27-1.05-0.47-1.45c0.58,0.03,1.25,0.03,1.43,0.03
					c0.19,0,0.25-0.06,0.25-0.24V19.6h-3.63v2.44h-1.58V19.6h-0.95v-1.32h0.95v-3.6h2.59v-0.62h-3.39V12.8h1.81v-0.57h-1.08v-1.21
					h1.08v-0.55h-1.54V9.19h1.54v-1.3l1.94,0.11c-0.02,0.13-0.11,0.22-0.36,0.27v0.93h1.54v-1.3L607.8,8
					c-0.02,0.13-0.12,0.21-0.38,0.25v0.93h1.71v1.28h-1.71v0.55h1.27v1.21h-1.27v0.57h1.96v1.26h-3.55v0.62h2.68v3.6H609.4z
					 M604.27,15.95h-1.02v0.57h1.02V15.95z M603.25,17.71v0.57h1.02v-0.57H603.25z M604.27,10.46v0.55h1.54v-0.55H604.27z
					 M604.27,12.23v0.57h1.54v-0.57H604.27z M606.88,15.95h-1.05v0.57h1.05V15.95z M605.83,18.28h1.05v-0.57h-1.05V18.28z"/>
				<path class="st3" d="M613.24,8.72h5.25c0,2.87,0.41,8.4,5.99,11.68c-0.41,0.32-1.14,1.11-1.46,1.58
					c-3.15-1.91-4.77-4.8-5.59-7.53c-1.11,3.37-2.92,6-5.64,7.57c-0.32-0.39-1.05-1.08-1.51-1.41c3.06-1.54,4.89-4.62,5.71-8.59
					l0.93,0.21c-0.09-0.58-0.17-1.15-0.21-1.68h-3.46V8.72z"/>
			</g>
		</g>
		<g>
			<path d="M562.08-20.45h2.31v12.34c0,1.52-0.48,2.73-1.45,3.63s-2.22,1.34-3.76,1.34c-1.64,0-2.95-0.42-3.91-1.25
				s-1.43-2.05-1.39-3.63l0.02-0.07h2.21c0,1.05,0.27,1.84,0.8,2.36s1.29,0.78,2.27,0.78c0.85,0,1.55-0.29,2.09-0.86
				c0.54-0.57,0.81-1.34,0.81-2.3V-20.45z"/>
			<path d="M570.76-10.23v6.84h-2.31v-17.06h6.53c1.82,0,3.23,0.47,4.24,1.41s1.51,2.17,1.51,3.7c0,1.55-0.5,2.79-1.51,3.72
				s-2.42,1.39-4.24,1.39H570.76z M570.76-12.05h4.22c1.16,0,2.02-0.31,2.59-0.93s0.86-1.4,0.86-2.35s-0.29-1.73-0.86-2.36
				s-1.44-0.95-2.58-0.95h-4.22V-12.05z"/>
			<path d="M589.04-11.78l4.45-8.67h2.64l-5.99,11.06v6h-2.3v-6.15l-5.89-10.91h2.64L589.04-11.78z"/>
			<path d="M604.5-14.73l1.48-14.26h14.27v4.11h-10.07l-0.7,5.91c0.47-0.35,1.04-0.64,1.71-0.87s1.41-0.35,2.21-0.36
				c2.46-0.04,4.37,0.71,5.72,2.23s2.03,3.64,2.03,6.36c0,2.46-0.74,4.51-2.22,6.13s-3.62,2.44-6.41,2.44
				c-2.36,0-4.37-0.64-6.05-1.93s-2.48-3.06-2.43-5.31l0.04-0.09l4.94-0.25c0,1.14,0.32,2.02,0.97,2.66s1.49,0.96,2.53,0.96
				c1.2,0,2.08-0.42,2.65-1.27c0.57-0.85,0.85-1.96,0.85-3.33c0-1.47-0.3-2.66-0.91-3.54c-0.61-0.89-1.51-1.33-2.71-1.33
				c-0.98,0-1.74,0.18-2.26,0.54s-0.89,0.86-1.12,1.48L604.5-14.73z"/>
			<path d="M641.75-13.36c0,3.39-0.78,5.96-2.33,7.71s-3.65,2.63-6.3,2.63c-2.67,0-4.79-0.88-6.35-2.63s-2.34-4.32-2.34-7.71V-19
				c0-3.38,0.78-5.94,2.33-7.71s3.66-2.65,6.32-2.65c2.65,0,4.75,0.88,6.32,2.65s2.35,4.33,2.35,7.71V-13.36z M636.63-19.53
				c0-2.03-0.3-3.51-0.91-4.45s-1.49-1.41-2.64-1.41c-1.16,0-2.04,0.47-2.64,1.41s-0.9,2.42-0.9,4.46v6.66c0,2.06,0.3,3.56,0.91,4.5
				s1.49,1.41,2.66,1.41c1.15,0,2.02-0.47,2.62-1.41s0.9-2.43,0.9-4.5V-19.53z"/>
			<path d="M662.56-25.03c-2.74,3.21-4.61,6.21-5.62,8.98s-1.72,6.13-2.15,10.05l-0.25,2.6h-5.13l0.25-2.6
				c0.4-3.76,1.25-7.22,2.57-10.36s3.11-6.04,5.4-8.67h-13.15v-3.96h18.09V-25.03z"/>
		</g>
	</g>
	<g>
		<g>
			<path class="st6" d="M673.1,99.09c0,1.95-1.6,3.55-3.55,3.55H548.44c-1.96,0-3.55-1.6-3.55-3.55V79.84c0-1.96,1.6-3.56,3.55-3.56
				h121.1c1.96,0,3.55,1.6,3.55,3.56L673.1,99.09L673.1,99.09z"/>
			<g class="st1">
				<path class="st3" d="M598.44,92.84l1.32-0.56c0.51,0.77,1.07,1.79,1.3,2.45c-0.43,0.21-0.85,0.42-1.39,0.67
					c-0.21-0.69-0.75-1.75-1.25-2.54c-0.04,0.08-0.17,0.13-0.32,0.12c-0.38,1.07-1.02,2.28-1.72,3.04
					c-0.31-0.25-0.88-0.64-1.26-0.84c0.66-0.67,1.23-1.8,1.53-2.88l1.8,0.51L598.44,92.84z M600.54,82.45v9.76h-4.61v-9.76H600.54z
					 M598.95,85.27v-1.39h-1.49v1.39H598.95z M598.95,88.03v-1.41h-1.49v1.41H598.95z M598.95,90.77v-1.42h-1.49v1.42H598.95z
					 M609.4,92.29v1.32h-0.88v0.81c0,1.47-0.69,1.63-2.85,1.63c-0.06-0.43-0.27-1.05-0.47-1.45c0.58,0.03,1.25,0.03,1.43,0.03
					c0.19,0,0.25-0.06,0.25-0.24v-0.78h-3.63v2.44h-1.58v-2.44h-0.95v-1.32h0.95v-3.6h2.59v-0.62h-3.39v-1.26h1.81v-0.57h-1.08
					v-1.21h1.08v-0.55h-1.54V83.2h1.54v-1.3l1.94,0.11c-0.02,0.13-0.11,0.22-0.36,0.27v0.93h1.54v-1.3l1.98,0.12
					c-0.02,0.13-0.12,0.21-0.38,0.25v0.93h1.71v1.28h-1.71v0.55h1.27v1.21h-1.27v0.57h1.96v1.26h-3.55v0.62h2.68v3.6H609.4z
					 M604.27,89.96h-1.02v0.57h1.02V89.96z M603.25,91.72v0.57h1.02v-0.57H603.25z M604.27,84.47v0.55h1.54v-0.55H604.27z
					 M604.27,86.24v0.57h1.54v-0.57H604.27z M606.88,89.96h-1.05v0.57h1.05V89.96z M605.83,92.29h1.05v-0.57h-1.05V92.29z"/>
				<path class="st3" d="M613.24,82.73h5.25c0,2.87,0.41,8.4,5.99,11.68c-0.41,0.32-1.14,1.11-1.46,1.58
					c-3.15-1.91-4.77-4.8-5.59-7.53c-1.11,3.37-2.92,6-5.64,7.57c-0.32-0.39-1.05-1.08-1.51-1.41c3.06-1.54,4.89-4.62,5.71-8.59
					l0.93,0.21c-0.09-0.58-0.17-1.15-0.21-1.68h-3.46V82.73z"/>
			</g>
		</g>
		<g>
			<path d="M562.08,53.56h2.31V65.9c0,1.52-0.48,2.73-1.45,3.63s-2.22,1.34-3.76,1.34c-1.64,0-2.95-0.42-3.91-1.25
				s-1.43-2.05-1.39-3.63l0.02-0.07h2.21c0,1.05,0.27,1.84,0.8,2.36s1.29,0.78,2.27,0.78c0.85,0,1.55-0.29,2.09-0.86
				c0.54-0.57,0.81-1.34,0.81-2.3V53.56z"/>
			<path d="M570.76,63.77v6.84h-2.31V53.56h6.53c1.82,0,3.23,0.47,4.24,1.41s1.51,2.17,1.51,3.7c0,1.55-0.5,2.79-1.51,3.72
				s-2.42,1.39-4.24,1.39H570.76z M570.76,61.96h4.22c1.16,0,2.02-0.31,2.59-0.93s0.86-1.4,0.86-2.35s-0.29-1.73-0.86-2.36
				s-1.44-0.95-2.58-0.95h-4.22V61.96z"/>
			<path d="M589.04,62.23l4.45-8.67h2.64l-5.99,11.06v6h-2.3v-6.15l-5.89-10.91h2.64L589.04,62.23z"/>
			<path d="M604.5,59.28l1.48-14.26h14.27v4.11h-10.07l-0.7,5.91c0.47-0.35,1.04-0.64,1.71-0.87s1.41-0.35,2.21-0.36
				c2.46-0.04,4.37,0.71,5.72,2.23s2.03,3.64,2.03,6.36c0,2.46-0.74,4.51-2.22,6.13s-3.62,2.44-6.41,2.44
				c-2.36,0-4.37-0.64-6.05-1.93s-2.48-3.06-2.43-5.31l0.04-0.09l4.94-0.25c0,1.14,0.32,2.02,0.97,2.66s1.49,0.96,2.53,0.96
				c1.2,0,2.08-0.42,2.65-1.27c0.57-0.85,0.85-1.96,0.85-3.33c0-1.47-0.3-2.66-0.91-3.54c-0.61-0.89-1.51-1.33-2.71-1.33
				c-0.98,0-1.74,0.18-2.26,0.54s-0.89,0.86-1.12,1.48L604.5,59.28z"/>
			<path d="M625.15,59.28l1.48-14.26h14.27v4.11h-10.07l-0.7,5.91c0.47-0.35,1.04-0.64,1.71-0.87s1.41-0.35,2.21-0.36
				c2.46-0.04,4.37,0.71,5.72,2.23s2.03,3.64,2.03,6.36c0,2.46-0.74,4.51-2.22,6.13s-3.62,2.44-6.41,2.44
				c-2.36,0-4.37-0.64-6.05-1.93s-2.48-3.06-2.43-5.31l0.04-0.09l4.94-0.25c0,1.14,0.32,2.02,0.97,2.66s1.49,0.96,2.53,0.96
				c1.2,0,2.08-0.42,2.65-1.27c0.57-0.85,0.85-1.96,0.85-3.33c0-1.47-0.3-2.66-0.91-3.54c-0.61-0.89-1.51-1.33-2.71-1.33
				c-0.98,0-1.74,0.18-2.26,0.54s-0.89,0.86-1.12,1.48L625.15,59.28z"/>
			<path d="M656.76,70.62h-5.13V49.56h-5.2v-3.62l10.34-0.91V70.62z"/>
		</g>
	</g>
</g>
</svg>
