<svg id="Layer_1" xmlns="http://www.w3.org/2000/svg" viewBox="80 -62 240 180"><style>.st0{fill:#2ba9e0}.st1{enable-background:new}.st2{fill:#222}.st3{fill:#fff}.st4{fill:#eb272a}.st5{fill:none}.st6{fill:#1a1a1a}</style><path class="st0" d="M120.33 48.81H117l5.99 8.69 5.99-8.69h-3.62c.19-9.01 7.58-16.28 16.65-16.28V27.5c-11.84 0-21.51 9.5-21.71 21.3m145.03-17.97V27.5l-8.69 5.99 8.69 5.99v-3.62c9.01.2 16.3 7.6 16.3 16.65h5.03C286.64 40.7 277.1 31 265.3 30.8m-126.98 77.5v3.33l8.69-5.99-8.69-5.99v3.62c-9.02-.2-16.29-7.58-16.29-16.64H117c0 11.87 9.5 21.47 21.3 21.67m145.01-17.99h3.33l-5.99-8.69-5.99 8.69h3.62c-.19 9.02-7.58 16.29-16.64 16.29v5.03c11.83-.03 21.45-9.53 21.65-21.33"/><g class="st1"><path d="M178.12 30.88h7.04V33h-16.28v-2.12h6.93V27.6h-5.19v-2.09h5.19v-3.02h-6.1v-2.12h8.41c-1.35-.76-3.42-1.64-5.02-2.16l1.57-1.71c1.84.52 4.47 1.55 5.83 2.38l-1.3 1.49h5.11v2.12h-6.19v3.02h5.29v2.09h-5.29v3.28zM203.36 28.27h-3.55c-.47.85-1.01 1.57-1.66 2.16 1.75.49 3.33.97 4.54 1.4l-1.3 1.76c-1.39-.56-3.22-1.17-5.28-1.76-2.02 1.01-4.68 1.49-8.25 1.76-.16-.61-.5-1.39-.83-1.85 2.38-.09 4.36-.31 5.96-.74-.58-.14-1.17-.27-1.75-.41l-.2.27-2.09-.65c.43-.54.92-1.22 1.42-1.94h-3.75v-1.75h4.92l.83-1.3h-4.21v-5.1H192v-1.03h-5.22v-1.87h16.46v1.87h-5.36v1.03h3.96v5.1h-6.9l.27.07c-.07.16-.22.23-.54.22l-.63 1.01h9.33v1.75zm-13.15-6.42v1.69H192v-1.69h-1.79zm2.67 6.42l-.52.77c1.13.23 2.29.5 3.42.77.61-.41 1.13-.94 1.57-1.55h-4.47zm1.15-9.16v1.03h1.78v-1.03h-1.78zm0 4.43h1.78v-1.69h-1.78v1.69zm5.65-1.69h-1.82v1.69h1.82v-1.69zM204.31 25.88c1.31-1.33 3.78-4.14 4.95-5.44.59-.63 1.22-.92 1.82-.92.61 0 1.26.38 1.93.95 2.14 1.89 5.96 6 8.35 9.02l-1.93 1.85c-2.16-3.06-6-7.36-7.47-8.79-.38-.34-.59-.54-.81-.54-.2.02-.41.22-.74.56-.61.72-2.79 3.37-3.92 4.66.04.2-.04.45-.23.63l-1.95-1.98zm13.59-8.93c1.08 0 1.94.86 1.94 1.94s-.86 1.96-1.94 1.96-1.96-.88-1.96-1.96c0-1.11.92-1.94 1.96-1.94zm1.26 1.94c0-.7-.56-1.28-1.26-1.28s-1.28.58-1.28 1.28.58 1.28 1.28 1.28c.74 0 1.26-.61 1.26-1.28zM237.2 18.91c-.05.13-.18.22-.36.27-.81 2-2.32 4.36-3.8 5.82-.47-.38-1.42-.94-2.02-1.22 1.13-.94 2.2-2.43 2.66-3.55h-11.65v-2.14H235l.25-.16 1.95.98zm-6.88 3.49c-.02.18-.2.32-.49.38-.45 3.94-1.95 8.01-5.56 10.19-.49-.4-1.35-1.1-1.96-1.44 3.42-1.84 4.83-5.4 5.08-9.43l2.93.3z"/></g><path d="M101.89 62.98l1.28.41c-.02.14-.11.27-.18.38-.38 3.6-1.19 6.57-2.47 8.93.88 1.31 1.96 2.41 3.29 3.17-.49.4-1.19 1.22-1.51 1.78-1.22-.77-2.23-1.78-3.08-2.97a12.86 12.86 0 0 1-3.28 2.97c-.29-.49-.81-1.19-1.26-1.62v1.62h-2.11v-3.24c-1.85.34-3.67.68-4.93.88-.04.18-.18.29-.32.31l-.74-2.36 1.48-.18v-9.69h-1.4v-2h9.47v1.67h5.38l.38-.06zm-9.31.4h-2.45v1.78h2.45v-1.78zm-2.45 3.71v1.8h2.45v-1.8h-2.45zm0 3.74v1.98l2.45-.32v-1.66h-2.45zm4.56-7.45V75.8c1.28-.74 2.38-1.84 3.3-3.21-.99-2.02-1.67-4.38-2.18-7l1.94-.38c.34 1.82.81 3.53 1.48 5.08.65-1.51 1.13-3.24 1.44-5.13h-5.19v-1.78h-.79zM111.59 69.36l.49-.04 1.28.22c-.02.18-.04.43-.09.63-.52 7.15-1.01 7.49-4.45 7.49-.47 0-.99-.02-1.51-.04-.05-.68-.36-1.62-.81-2.25 1.12.11 2.29.13 2.77.13.38 0 .59-.04.83-.22.38-.32.63-1.49.83-3.92h-3.29l-.16.85-2.18-.34c.38-1.66.79-4.2.99-6.23h4.83v-2.25h-5.65v-2h7.8v6.68h-2.14v-.43h-2.88l-.27 1.73h3.61zm5.83-8.41l2.66.14c-.02.18-.16.29-.49.34v16.22h-2.18v-16.7zM127.18 74.25c-.05.11-.22.2-.45.16-.59 1.12-1.58 2.39-2.54 3.24-.4-.36-1.12-.9-1.6-1.21.88-.7 1.76-1.89 2.27-2.99l2.32.8zm4.55-2.81v1.89h-9.13v-1.89h1.64v-6.75h-1.42V62.8h1.42v-1.93l2.39.14c-.02.16-.14.25-.45.31v1.48h2.27v-1.93l2.43.14c-.02.16-.14.27-.45.31v1.48h1.22v1.89h-1.22v6.75h1.3zm-3.27-6.75h-2.27v1.08h2.27v-1.08zm-2.27 2.74v1.13h2.27v-1.13h-2.27zm0 2.79v1.22h2.27v-1.22h-2.27zm12.87-8.75V75.3c0 1.98-.76 2.39-3.75 2.36-.07-.56-.34-1.51-.61-2.05.47.04.97.04 1.35.04.85 0 .94 0 .94-.38v-3.64h-2.86c-.23 2.2-.79 4.48-2.02 6.1-.31-.34-1.06-.92-1.53-1.19l-.86.5c-.38-.72-1.24-1.91-1.96-2.75l1.64-.9c.54.59 1.21 1.39 1.67 2.05 1.12-2.21 1.22-5.06 1.22-7.31v-6.66h6.77zm-4.75 6.66c0 .49 0 1.03-.04 1.57h2.72v-2.2h-2.68v.63zm2.68-4.7h-2.68v2.16h2.68v-2.16zM148.45 67.93h-4.83v9.72h-2.14V61.36h6.97v6.57zm-2.01-5h-2.81v.96h2.81v-.96zm-2.81 3.45h2.81v-1.04h-2.81v1.04zm13.2-5.02v13.72c0 2.21-.9 2.57-4.29 2.57-.05-.45-.25-1.13-.47-1.69h-4.52v.94h-1.96v-7.87h7v6.45c.36 0 .7.02.99.02.95 0 1.06 0 1.06-.43v-7.09h-4.95v-6.61h7.14zm-6.27 9.26h-3.01v1.1h3.01v-1.1zm-3.01 3.76h3.01v-1.13h-3.01v1.13zm7.1-11.45h-2.9v.96h2.9v-.96zm-2.9 3.49h2.9v-1.08h-2.9v1.08z"/><g><path d="M174.47 99.96c-.05.16-.22.31-.52.34-.67 4.23-2.11 8.71-4.16 11.45a12.6 12.6 0 0 0-2.21-1.17c2.02-2.54 3.4-6.72 3.91-11.22l2.98.6zm7.47 11.69c-.81-2.92-2.66-7.85-4.43-11.4l2.16-1.01c1.8 3.31 3.75 8.21 4.68 11.36l-2.41 1.05zm.81-15.49c1.08 0 1.94.86 1.94 1.96 0 1.06-.86 1.94-1.94 1.94s-1.96-.88-1.96-1.94c0-1.13.92-1.96 1.96-1.96zm1.28 1.96c0-.72-.58-1.3-1.28-1.3s-1.28.58-1.28 1.3c0 .7.58 1.28 1.28 1.28.74 0 1.28-.61 1.28-1.28zM200.54 98.52c-.11.14-.29.22-.58.2-1.4 1.37-3.15 2.83-4.86 4.09.2.05.4.14.58.2-.05.16-.22.31-.52.34v9.4h-2.39v-8.46c-1.6 1.08-4 2.41-5.98 3.37-.29-.5-.9-1.33-1.37-1.75 4.7-2.09 10.1-5.83 12.86-9.04l2.26 1.65zM216.76 98.61c-.05.13-.18.22-.36.27-.81 2-2.32 4.36-3.8 5.82-.47-.38-1.42-.94-2.02-1.22 1.13-.94 2.2-2.43 2.66-3.55H201.6v-2.14h12.96l.25-.16 1.95.98zm-6.88 3.49c-.02.18-.2.32-.49.38-.45 3.94-1.95 8.01-5.56 10.19-.49-.4-1.35-1.1-1.96-1.44 3.42-1.84 4.83-5.4 5.08-9.43l2.93.3zM223.4 96.74l2.9.16c-.02.2-.22.41-.58.45v2.54h3.71l.41-.18 1.98.81c-.05.09-.16.22-.31.29-1.06 6.5-3.55 9.97-9.2 11.97-.31-.52-1.04-1.4-1.53-1.93 5.01-1.67 7.31-4.59 7.92-8.82h-8.5v3.85H218v-6h5.4v-3.14zM243.52 106.95c-1.5-.86-3.85-1.98-5.64-2.7v8.43h-2.41V96.85l2.95.14c-.02.22-.16.4-.54.45v5.08l.45-.61c1.98.7 4.68 1.89 6.46 2.83l-1.27 2.21z"/></g><g><path d="M263.47 64.33c-.05.16-.22.31-.52.34-.67 4.23-2.11 8.71-4.16 11.45a12.6 12.6 0 0 0-2.21-1.17c2.02-2.54 3.4-6.72 3.91-11.22l2.98.6zm7.47 11.69c-.81-2.92-2.67-7.85-4.43-11.4l2.16-1.01c1.8 3.31 3.75 8.21 4.68 11.36l-2.41 1.05zm-1.53-15.07c.72.7 1.53 1.8 1.94 2.52l-1.06.77c-.41-.7-1.33-1.94-1.96-2.56l1.08-.73zm2.51-.63c.7.72 1.53 1.76 1.98 2.48l-1.1.79c-.4-.72-1.33-1.89-1.94-2.54l1.06-.73zM275.89 71.32v-8.86l2.83.14c-.02.2-.18.32-.52.38v8.34h-2.31zm10.68-9.63c-.02.18-.16.31-.52.36v5.64c0 3.82-1.26 7.36-6.32 9.45-.34-.45-1.19-1.3-1.73-1.67 4.77-1.82 5.71-4.81 5.71-7.8v-6.14l2.86.16zM303.78 62.98c-.05.13-.18.22-.36.27-.81 2-2.32 4.36-3.8 5.82-.47-.38-1.42-.94-2.02-1.22 1.13-.94 2.2-2.43 2.67-3.55h-11.65v-2.14h12.96l.25-.16 1.95.98zm-6.88 3.5c-.02.18-.2.32-.49.38-.45 3.94-1.94 8.01-5.56 10.19-.49-.4-1.35-1.1-1.96-1.44 3.42-1.84 4.83-5.4 5.08-9.43l2.93.3z"/></g><circle class="st2" cx="204" cy="-40" r="22"/><g class="st1"><path class="st3" d="M205.66-32h-3.02v-11.38c-1.1 1.03-2.4 1.79-3.9 2.29v-2.74c.79-.26 1.64-.75 2.57-1.47.92-.72 1.56-1.56 1.9-2.52h2.45V-32z"/></g></svg>