<svg xmlns="http://www.w3.org/2000/svg" viewBox="0 0 240 180"><path fill="#2BA9E0" d="M40.332 110.806h-3.328l5.99 8.695 5.987-8.693h-3.62c.195-9.012 7.582-16.284 16.645-16.284v-5.027C50.17 89.5 40.5 99 40.3 110.8m145.028-17.975v-3.33l-8.692 5.988 8.692 5.987v-3.622c9.013.2 16.3 7.6 16.3 16.646h5.027C206.64 102.7 197.1 93 185.3 92.8M58.32 170.302v3.326l8.69-5.986-8.69-5.992v3.625c-9.017-.195-16.29-7.584-16.29-16.643h-5.027C37.003 160.5 46.5 170.1 58.3 170.3m145.013-17.986h3.327l-5.987-8.69-5.99 8.69h3.623c-.194 9.016-7.584 16.285-16.64 16.285v5.027c11.83-.028 21.454-9.528 21.654-21.328"/><text transform="translate(88 93.929)" font-style="italic" font-weight="bold" font-family="Arial" font-size="18">Market</text><g font-style="italic" font-weight="bold" font-family="Arial" font-size="18"><text transform="translate(.1 138)">Duration</text><text transform="translate(88 173.629)">Payout</text><text transform="translate(168 138)">Barrier</text></g><circle fill="#222" cx="124" cy="22" r="22"/><text transform="translate(117 30)" fill="#fff" font-family="Arial" font-weight="bold" font-size="22">1</text></svg>