<?xml version="1.0" encoding="utf-8"?>
<!-- Generator: Adobe Illustrator 19.1.0, SVG Export Plug-In . SVG Version: 6.00 Build 0)  -->
<svg version="1.1" id="Layer_1" xmlns="http://www.w3.org/2000/svg" xmlns:xlink="http://www.w3.org/1999/xlink" x="0" y="0"
	 viewBox="80 -62 240 180" style="enable-background:new 80 -62 240 180;" xml:space="preserve">
<style type="text/css">
	.st0{fill:#2BA9E0;}
	.st1{enable-background:new    ;}
	.st2{fill:#222222;}
	.st3{fill:#FFFFFF;}
	.st4{fill:#EB272A;}
	.st5{fill:none;}
	.st6{fill:#1A1A1A;}
</style>
<path class="st0" d="M120.33,48.81H117l5.99,8.69l5.99-8.69h-3.62c0.19-9.01,7.58-16.28,16.65-16.28V27.5
	c-11.84,0-21.51,9.5-21.71,21.3 M265.33,30.83V27.5l-8.69,5.99l8.69,5.99v-3.62c9.01,0.2,16.3,7.6,16.3,16.65h5.03
	C286.64,40.7,277.1,31,265.3,30.8 M138.32,108.3v3.33l8.69-5.99l-8.69-5.99v3.62c-9.02-0.2-16.29-7.58-16.29-16.64H117
	c0,11.87,9.5,21.47,21.3,21.67 M283.31,90.31h3.33l-5.99-8.69l-5.99,8.69h3.62c-0.19,9.02-7.58,16.29-16.64,16.29v5.03
	c11.83-0.03,21.45-9.53,21.65-21.33"/>
<g class="st1">
	<path d="M178.12,30.88h7.04v2.12h-16.28v-2.12h6.93v-3.28h-5.19v-2.09h5.19v-3.02h-6.1v-2.12h8.41c-1.35-0.76-3.42-1.64-5.02-2.16
		l1.57-1.71c1.84,0.52,4.47,1.55,5.83,2.38l-1.3,1.49h5.11v2.12h-6.19v3.02h5.29v2.09h-5.29V30.88z"/>
	<path d="M203.36,28.27h-3.55c-0.47,0.85-1.01,1.57-1.66,2.16c1.75,0.49,3.33,0.97,4.54,1.4l-1.3,1.76
		c-1.39-0.56-3.22-1.17-5.28-1.76c-2.02,1.01-4.68,1.49-8.25,1.76c-0.16-0.61-0.5-1.39-0.83-1.85c2.38-0.09,4.36-0.31,5.96-0.74
		c-0.58-0.14-1.17-0.27-1.75-0.41l-0.2,0.27l-2.09-0.65c0.43-0.54,0.92-1.22,1.42-1.94h-3.75v-1.75h4.92l0.83-1.3h-4.21v-5.1H192
		v-1.03h-5.22v-1.87h16.46v1.87h-5.36v1.03h3.96v5.1h-6.9l0.27,0.07c-0.07,0.16-0.22,0.23-0.54,0.22l-0.63,1.01h9.33V28.27z
		 M190.21,21.85v1.69H192v-1.69H190.21z M192.88,28.27l-0.52,0.77c1.13,0.23,2.29,0.5,3.42,0.77c0.61-0.41,1.13-0.94,1.57-1.55
		H192.88z M194.03,19.11v1.03h1.78v-1.03H194.03z M194.03,23.54h1.78v-1.69h-1.78V23.54z M199.68,21.85h-1.82v1.69h1.82V21.85z"/>
	<path d="M204.31,25.88c1.31-1.33,3.78-4.14,4.95-5.44c0.59-0.63,1.22-0.92,1.82-0.92c0.61,0,1.26,0.38,1.93,0.95
		c2.14,1.89,5.96,6,8.35,9.02l-1.93,1.85c-2.16-3.06-6-7.36-7.47-8.79c-0.38-0.34-0.59-0.54-0.81-0.54
		c-0.2,0.02-0.41,0.22-0.74,0.56c-0.61,0.72-2.79,3.37-3.92,4.66c0.04,0.2-0.04,0.45-0.23,0.63L204.31,25.88z M217.9,16.95
		c1.08,0,1.94,0.86,1.94,1.94c0,1.08-0.86,1.96-1.94,1.96s-1.96-0.88-1.96-1.96C215.94,17.78,216.86,16.95,217.9,16.95z
		 M219.16,18.89c0-0.7-0.56-1.28-1.26-1.28s-1.28,0.58-1.28,1.28s0.58,1.28,1.28,1.28C218.64,20.17,219.16,19.56,219.16,18.89z"/>
	<path d="M237.2,18.91c-0.05,0.13-0.18,0.22-0.36,0.27c-0.81,2-2.32,4.36-3.8,5.82c-0.47-0.38-1.42-0.94-2.02-1.22
		c1.13-0.94,2.2-2.43,2.66-3.55h-11.65v-2.14H235l0.25-0.16L237.2,18.91z M230.32,22.4c-0.02,0.18-0.2,0.32-0.49,0.38
		c-0.45,3.94-1.95,8.01-5.56,10.19c-0.49-0.4-1.35-1.1-1.96-1.44c3.42-1.84,4.83-5.4,5.08-9.43L230.32,22.4z"/>
</g>
<g>
	<g>
		<g>
			<path d="M101.89,62.98l1.28,0.41c-0.02,0.14-0.11,0.27-0.18,0.38c-0.38,3.6-1.19,6.57-2.47,8.93c0.88,1.31,1.96,2.41,3.29,3.17
				c-0.49,0.4-1.19,1.22-1.51,1.78c-1.22-0.77-2.23-1.78-3.08-2.97c-0.94,1.19-2.02,2.18-3.28,2.97c-0.29-0.49-0.81-1.19-1.26-1.62
				v1.62h-2.11v-3.24c-1.85,0.34-3.67,0.68-4.93,0.88c-0.04,0.18-0.18,0.29-0.32,0.31l-0.74-2.36l1.48-0.18v-9.69h-1.4v-2h9.47v1.67
				h5.38L101.89,62.98z M92.58,63.38h-2.45v1.78h2.45V63.38z M90.13,67.09v1.8h2.45v-1.8H90.13z M90.13,70.83v1.98l2.45-0.32v-1.66
				H90.13z M94.69,63.38V75.8c1.28-0.74,2.38-1.84,3.3-3.21c-0.99-2.02-1.67-4.38-2.18-7l1.94-0.38c0.34,1.82,0.81,3.53,1.48,5.08
				c0.65-1.51,1.13-3.24,1.44-5.13h-5.19v-1.78H94.69z"/>
			<path d="M111.59,69.36l0.49-0.04l1.28,0.22c-0.02,0.18-0.04,0.43-0.09,0.63c-0.52,7.15-1.01,7.49-4.45,7.49
				c-0.47,0-0.99-0.02-1.51-0.04c-0.05-0.68-0.36-1.62-0.81-2.25c1.12,0.11,2.29,0.13,2.77,0.13c0.38,0,0.59-0.04,0.83-0.22
				c0.38-0.32,0.63-1.49,0.83-3.92h-3.29l-0.16,0.85l-2.18-0.34c0.38-1.66,0.79-4.2,0.99-6.23h4.83v-2.25h-5.65v-2h7.8v6.68h-2.14
				v-0.43h-2.88l-0.27,1.73H111.59z M117.42,60.95l2.66,0.14c-0.02,0.18-0.16,0.29-0.49,0.34v16.22h-2.18V60.95z"/>
			<path d="M127.18,74.25c-0.05,0.11-0.22,0.2-0.45,0.16c-0.59,1.12-1.58,2.39-2.54,3.24c-0.4-0.36-1.12-0.9-1.6-1.21
				c0.88-0.7,1.76-1.89,2.27-2.99L127.18,74.25z M131.73,71.44v1.89h-9.13v-1.89h1.64v-6.75h-1.42V62.8h1.42v-1.93l2.39,0.14
				c-0.02,0.16-0.14,0.25-0.45,0.31v1.48h2.27v-1.93l2.43,0.14c-0.02,0.16-0.14,0.27-0.45,0.31v1.48h1.22v1.89h-1.22v6.75H131.73z
				 M128.46,64.69h-2.27v1.08h2.27V64.69z M126.19,67.43v1.13h2.27v-1.13H126.19z M126.19,70.22v1.22h2.27v-1.22H126.19z
				 M139.06,61.47V75.3c0,1.98-0.76,2.39-3.75,2.36c-0.07-0.56-0.34-1.51-0.61-2.05c0.47,0.04,0.97,0.04,1.35,0.04
				c0.85,0,0.94,0,0.94-0.38v-3.64h-2.86c-0.23,2.2-0.79,4.48-2.02,6.1c-0.31-0.34-1.06-0.92-1.53-1.19l-0.86,0.5
				c-0.38-0.72-1.24-1.91-1.96-2.75l1.64-0.9c0.54,0.59,1.21,1.39,1.67,2.05c1.12-2.21,1.22-5.06,1.22-7.31v-6.66H139.06z
				 M134.31,68.13c0,0.49,0,1.03-0.04,1.57h2.72v-2.2h-2.68V68.13z M136.99,63.43h-2.68v2.16h2.68V63.43z"/>
			<path d="M148.45,67.93h-4.83v9.72h-2.14V61.36h6.97V67.93z M146.44,62.93h-2.81v0.96h2.81V62.93z M143.63,66.38h2.81v-1.04h-2.81
				V66.38z M156.83,61.36v13.72c0,2.21-0.9,2.57-4.29,2.57c-0.05-0.45-0.25-1.13-0.47-1.69h-4.52v0.94h-1.96v-7.87h7v6.45
				c0.36,0,0.7,0.02,0.99,0.02c0.95,0,1.06,0,1.06-0.43v-7.09h-4.95v-6.61H156.83z M150.56,70.62h-3.01v1.1h3.01V70.62z
				 M147.55,74.38h3.01v-1.13h-3.01V74.38z M154.65,62.93h-2.9v0.96h2.9V62.93z M151.75,66.42h2.9v-1.08h-2.9V66.42z"/>
		</g>
	</g>
	<g>
		<g>
			<path d="M174.47,99.96c-0.05,0.16-0.22,0.31-0.52,0.34c-0.67,4.23-2.11,8.71-4.16,11.45c-0.63-0.43-1.49-0.88-2.21-1.17
				c2.02-2.54,3.4-6.72,3.91-11.22L174.47,99.96z M181.94,111.65c-0.81-2.92-2.66-7.85-4.43-11.4l2.16-1.01
				c1.8,3.31,3.75,8.21,4.68,11.36L181.94,111.65z M182.75,96.16c1.08,0,1.94,0.86,1.94,1.96c0,1.06-0.86,1.94-1.94,1.94
				c-1.08,0-1.96-0.88-1.96-1.94C180.79,96.99,181.71,96.16,182.75,96.16z M184.03,98.12c0-0.72-0.58-1.3-1.28-1.3
				s-1.28,0.58-1.28,1.3c0,0.7,0.58,1.28,1.28,1.28C183.49,99.4,184.03,98.79,184.03,98.12z"/>
			<path d="M200.54,98.52c-0.11,0.14-0.29,0.22-0.58,0.2c-1.4,1.37-3.15,2.83-4.86,4.09c0.2,0.05,0.4,0.14,0.58,0.2
				c-0.05,0.16-0.22,0.31-0.52,0.34v9.4h-2.39v-8.46c-1.6,1.08-4,2.41-5.98,3.37c-0.29-0.5-0.9-1.33-1.37-1.75
				c4.7-2.09,10.1-5.83,12.86-9.04L200.54,98.52z"/>
			<path d="M216.76,98.61c-0.05,0.13-0.18,0.22-0.36,0.27c-0.81,2-2.32,4.36-3.8,5.82c-0.47-0.38-1.42-0.94-2.02-1.22
				c1.13-0.94,2.2-2.43,2.66-3.55H201.6v-2.14h12.96l0.25-0.16L216.76,98.61z M209.88,102.1c-0.02,0.18-0.2,0.32-0.49,0.38
				c-0.45,3.94-1.95,8.01-5.56,10.19c-0.49-0.4-1.35-1.1-1.96-1.44c3.42-1.84,4.83-5.4,5.08-9.43L209.88,102.1z"/>
			<path d="M223.4,96.74l2.9,0.16c-0.02,0.2-0.22,0.41-0.58,0.45v2.54h3.71l0.41-0.18l1.98,0.81c-0.05,0.09-0.16,0.22-0.31,0.29
				c-1.06,6.5-3.55,9.97-9.2,11.97c-0.31-0.52-1.04-1.4-1.53-1.93c5.01-1.67,7.31-4.59,7.92-8.82h-8.5v3.85H218v-6h5.4V96.74z"/>
			<path d="M243.52,106.95c-1.5-0.86-3.85-1.98-5.64-2.7v8.43h-2.41V96.85l2.95,0.14c-0.02,0.22-0.16,0.4-0.54,0.45v5.08l0.45-0.61
				c1.98,0.7,4.68,1.89,6.46,2.83L243.52,106.95z"/>
		</g>
	</g>
	<g>
		<g>
			<path d="M263.47,64.33c-0.05,0.16-0.22,0.31-0.52,0.34c-0.67,4.23-2.11,8.71-4.16,11.45c-0.63-0.43-1.49-0.88-2.21-1.17
				c2.02-2.54,3.4-6.72,3.91-11.22L263.47,64.33z M270.94,76.02c-0.81-2.92-2.67-7.85-4.43-11.4l2.16-1.01
				c1.8,3.31,3.75,8.21,4.68,11.36L270.94,76.02z M269.41,60.95c0.72,0.7,1.53,1.8,1.94,2.52l-1.06,0.77
				c-0.41-0.7-1.33-1.94-1.96-2.56L269.41,60.95z M271.92,60.32c0.7,0.72,1.53,1.76,1.98,2.48l-1.1,0.79
				c-0.4-0.72-1.33-1.89-1.94-2.54L271.92,60.32z"/>
			<path d="M275.89,71.32v-8.86l2.83,0.14c-0.02,0.2-0.18,0.32-0.52,0.38v8.34H275.89z M286.57,61.69
				c-0.02,0.18-0.16,0.31-0.52,0.36v5.64c0,3.82-1.26,7.36-6.32,9.45c-0.34-0.45-1.19-1.3-1.73-1.67c4.77-1.82,5.71-4.81,5.71-7.8
				v-6.14L286.57,61.69z"/>
			<path d="M303.78,62.98c-0.05,0.13-0.18,0.22-0.36,0.27c-0.81,2-2.32,4.36-3.8,5.82c-0.47-0.38-1.42-0.94-2.02-1.22
				c1.13-0.94,2.2-2.43,2.67-3.55h-11.65v-2.14h12.96l0.25-0.16L303.78,62.98z M296.9,66.48c-0.02,0.18-0.2,0.32-0.49,0.38
				c-0.45,3.94-1.94,8.01-5.56,10.19c-0.49-0.4-1.35-1.1-1.96-1.44c3.42-1.84,4.83-5.4,5.08-9.43L296.9,66.48z"/>
		</g>
	</g>
</g>
<circle class="st2" cx="204" cy="-40" r="22"/>
<g class="st1">
	<path class="st3" d="M205.66-32h-3.02v-11.38c-1.1,1.03-2.4,1.79-3.9,2.29v-2.74c0.79-0.26,1.64-0.75,2.57-1.47
		c0.92-0.72,1.56-1.56,1.9-2.52h2.45V-32z"/>
</g>
</svg>
