<?xml version="1.0" encoding="utf-8"?>
<!-- Generator: Adobe Illustrator 19.1.0, SVG Export Plug-In . SVG Version: 6.00 Build 0)  -->
<svg version="1.1" id="Layer_1" xmlns="http://www.w3.org/2000/svg" xmlns:xlink="http://www.w3.org/1999/xlink" x="0" y="0"
	 viewBox="738.94 -81.81 240 156.85" style="enable-background:new 738.94 -81.81 240 156.85;" xml:space="preserve">
<style type="text/css">
	.st0{fill:#2BA9E0;}
	.st1{enable-background:new    ;}
	.st2{fill:#222222;}
	.st3{fill:#FFFFFF;}
	.st4{fill:#EB272A;}
	.st5{fill:none;}
	.st6{fill:#1A1A1A;}
</style>
<g>
	<g>
		<g class="st1">
			<path d="M799.22,45.24h-4.52c2.75,0.88,5.82,2.02,7.67,2.85l-3.27,1.5c-1.55-0.82-4.32-2-7.07-2.92l2.22-1.42h-7.5l2.72,1.38
				c-0.07,0.1-0.25,0.17-0.45,0.17c-0.08,0-0.15,0-0.23-0.03c-2.02,1.05-5.12,2.17-7.75,2.85c-0.47-0.58-1.42-1.58-2.02-2.07
				c2.5-0.5,5.37-1.38,7.15-2.3h-3.82V34.27h16.87V45.24z M800.64,27.02v6.27H780.7v-6.27H800.64z M786.5,31.05v-1.78h-3.02v1.78
				H786.5z M785.25,36.17v1.2h10.92v-1.2H785.25z M785.25,39.14v1.2h10.92v-1.2H785.25z M785.25,42.14v1.2h10.92v-1.2H785.25z
				 M792.07,31.05v-1.78H789v1.78H792.07z M797.74,31.05v-1.78h-3.17v1.78H797.74z"/>
			<path d="M809.4,29.5c-0.08,0.22-0.35,0.4-0.65,0.42c-0.38,1.95-0.65,4.57-0.65,6.87c0,5.5,1.6,7.47,3,7.47
				c0.85,0,1.9-2.5,2.45-4.57c0.6,0.6,1.83,1.58,2.55,2c-1.2,4.1-2.82,6-5.12,6c-3.87,0-5.77-4.82-6.02-8.9
				c-0.05-0.9-0.1-1.88-0.1-2.9c0-2.27,0.15-4.77,0.45-7.15L809.4,29.5z M823.37,41.57c-0.75-4.5-2.82-7.17-5.9-9l1.97-2.35
				c3.52,1.9,6.45,5.35,7.22,10.25L823.37,41.57z"/>
		</g>
		<g>
			<g>
				<path d="M904.75,40.04c-0.05,0.25-0.27,0.42-0.65,0.45c-0.65,4.15-1.62,7.32-8.22,9.07c-0.3-0.78-1.05-1.97-1.67-2.58
					c5.85-1.3,6.52-3.62,6.87-7.3L904.75,40.04z M904.27,32.5v-1.52h-9.52v-2.75h9.52v-2.25l3.8,0.2c-0.02,0.25-0.22,0.4-0.67,0.5
					v1.55h9.82v2.75h-9.82v1.52h7.37v2.62h-17.52V32.5H904.27z M916.74,41.79h-3.02v-2.72h-15.65v2.72h-2.9v-5.4h21.57V41.79z
					 M910.3,45.67c0,0.8,0.15,0.9,1.05,0.9h2.52c0.85,0,1-0.42,1.1-3c0.6,0.47,1.88,0.92,2.7,1.12c-0.33,3.62-1.12,4.57-3.5,4.57
					h-3.25c-2.92,0-3.65-0.88-3.65-3.57v-5.97l3.67,0.2c-0.02,0.25-0.2,0.4-0.65,0.5V45.67z"/>
				<path d="M920.9,40.87c-0.48-1.75-0.65-3.95-0.67-5.42c0-1.85,0.2-4.57,0.72-7.6l3.9,0.52c-0.07,0.3-0.37,0.4-0.62,0.45
					c-0.55,2.05-0.98,5.65-0.88,7.07c0.47-1.1,1.3-2.5,1.87-3.4c0.33,0.58,1.05,1.6,1.42,2c-1.6,2.37-2.7,4.22-2.7,5.27
					c0,0.17,0.03,0.38,0.08,0.6L920.9,40.87z M935.27,27.2c-0.02,0.3-0.22,0.47-0.62,0.6c0.2,1.97,0.43,5.3,0.43,8.47
					c-0.03,4.82-1.58,9.37-9.52,12.65c-0.42-0.65-1.6-1.9-2.25-2.5c6.85-2.65,8.3-6.7,8.3-10.1c0-3.47-0.33-6.97-0.6-9.3
					L935.27,27.2z"/>
			</g>
		</g>
	</g>
	<path class="st4" d="M828.3,23.5l18.92,21.2l18.92-21.2h-8.39V-3.26h-21.07V23.5L828.3,23.5z"/>
	<path class="st0" d="M891.1,48.28l-18.92-21.2l-18.93,21.2h8.39v26.76h21.07V48.28H891.1z"/>
	<circle class="st2" cx="864.1" cy="-59.81" r="22"/>
	<g class="st1">
		<path class="st3" d="M857.93-55.99l2.92-0.35c0.09,0.75,0.34,1.31,0.75,1.71s0.9,0.59,1.48,0.59c0.62,0,1.15-0.24,1.57-0.71
			c0.43-0.47,0.64-1.11,0.64-1.91c0-0.76-0.2-1.36-0.61-1.8s-0.91-0.67-1.49-0.67c-0.39,0-0.85,0.08-1.39,0.23l0.33-2.46
			c0.82,0.02,1.44-0.16,1.87-0.53c0.43-0.38,0.64-0.88,0.64-1.5c0-0.53-0.16-0.95-0.47-1.27s-0.73-0.47-1.26-0.47
			c-0.52,0-0.96,0.18-1.32,0.54s-0.59,0.88-0.67,1.57l-2.78-0.47c0.19-0.95,0.49-1.71,0.88-2.28c0.39-0.57,0.93-1.02,1.63-1.34
			c0.7-0.33,1.48-0.49,2.35-0.49c1.48,0,2.67,0.47,3.57,1.42c0.74,0.77,1.11,1.65,1.11,2.62c0,1.38-0.76,2.49-2.27,3.31
			c0.9,0.19,1.62,0.63,2.17,1.3c0.54,0.67,0.81,1.49,0.81,2.44c0,1.38-0.5,2.56-1.51,3.53s-2.27,1.46-3.77,1.46
			c-1.42,0-2.61-0.41-3.54-1.23C858.62-53.59,858.08-54.67,857.93-55.99z"/>
	</g>
</g>
</svg>
