<svg xmlns="http://www.w3.org/2000/svg" viewBox="-19633 -23808.15 62.762 20.283"><defs><style>.cls-1 {fill: #41479b;}.cls-2 {fill: #f5f5f5;}.cls-3 {fill: #ff4b55;}.cls-4 {fill: #f8f8f8;stroke: #95989a;stroke-width: 0.3px;}</style></defs><g transform="translate(-19633 -23808)"><path class="cls-1" d="M29.982,20H.524A.525.525,0,0,1,0,19.475V.525A.529.529,0,0,1,.524,0H29.976A.525.525,0,0,1,30.5.525V19.475A.517.517,0,0,1,29.982,20Z" transform="translate(0 0)"/><path class="cls-2" d="M14.729,0h-.912L8.943,3.2V0H6.316V3.2L1.442,0H.524A.529.529,0,0,0,0,.525V.942L4.183,3.685H0v2.63H4.183L0,9.058v.417A.525.525,0,0,0,.524,10h.912L6.31,6.8V10H8.937V6.8L13.811,10h.912a.525.525,0,0,0,.524-.525V9.058L11.064,6.315h4.189V3.685H11.07L15.253.942V.525A.529.529,0,0,0,14.729,0Z" transform="translate(0 0)"/><g transform="translate(0 0)"><path class="cls-3" d="M15.253,4.21H8.413V0H6.84V4.21H0V5.79H6.84V10H8.413V5.79h6.84Z" transform="translate(0 0)"/><path class="cls-3" d="M5.785,5.1.25,1.5A.516.516,0,0,0,0,1.935v.03L4.82,5.1Z" transform="translate(0 -1.411)"/><path class="cls-3" d="M151.065,3.685,156.332.262A.511.511,0,0,0,155.885,0h-.113L150.1,3.685h.965Z" transform="translate(-141.157 0)"/><path class="cls-3" d="M6.555,105.9,1.3,109.317a.514.514,0,0,0,.453.268h.1L7.526,105.9Z" transform="translate(-1.223 -99.585)"/><path class="cls-3" d="M162.893,109.1l-4.927-3.2H157l5.595,3.631A.514.514,0,0,0,162.893,109.1Z" transform="translate(-147.646 -99.585)"/></g><g transform="translate(5.301 3.503)"><path class="cls-2" d="M91.456,214.56l.4,1.312,1.275-.507a.121.121,0,0,1,.143.179l-.775,1.127,1.192.68a.118.118,0,0,1-.048.221l-1.364.1.209,1.354a.117.117,0,0,1-.2.1l-.924-1.008-.924,1.008a.117.117,0,0,1-.2-.1l.209-1.354-1.364-.1a.117.117,0,0,1-.048-.221l1.192-.68-.775-1.127a.12.12,0,0,1,.143-.179l1.275.507.4-1.312C91.26,214.447,91.421,214.447,91.456,214.56Z" transform="translate(-88.97 -205.189)"/><path class="cls-2" d="M373.933,58.795l.2.638.62-.25a.058.058,0,0,1,.072.083l-.381.549.584.334a.058.058,0,0,1-.024.107l-.667.048.1.662a.059.059,0,0,1-.1.048l-.453-.495-.453.495a.06.06,0,0,1-.1-.048l.1-.662-.667-.048a.057.057,0,0,1-.024-.107l.584-.334-.381-.549a.057.057,0,0,1,.072-.083l.62.25.2-.638A.055.055,0,0,1,373.933,58.795Z" transform="translate(-355.801 -58.75)"/><path class="cls-2" d="M301.333,141.287l.2.638.62-.25a.058.058,0,0,1,.072.083l-.381.549.584.334a.058.058,0,0,1-.024.107l-.667.048.1.662a.059.059,0,0,1-.1.048l-.453-.495-.453.495a.06.06,0,0,1-.1-.048l.1-.662-.667-.048a.057.057,0,0,1-.024-.107l.584-.334-.381-.537a.057.057,0,0,1,.072-.083l.62.25.2-.638A.055.055,0,0,1,301.333,141.287Z" transform="translate(-287.526 -136.329)"/><path class="cls-2" d="M442.533,105.965l.2.638.62-.25a.058.058,0,0,1,.071.083l-.381.549.584.334a.058.058,0,0,1-.024.107l-.667.048.1.662a.059.059,0,0,1-.1.048l-.453-.495-.453.495a.06.06,0,0,1-.1-.048l.1-.662-.667-.048a.057.057,0,0,1-.024-.107l.584-.334-.381-.549a.057.057,0,0,1,.072-.083l.62.25.2-.638A.056.056,0,0,1,442.533,105.965Z" transform="translate(-420.314 -103.112)"/><path class="cls-2" d="M373.933,247.195l.2.638.62-.25a.058.058,0,0,1,.072.083l-.381.549.584.334a.058.058,0,0,1-.024.107l-.667.048.1.662a.059.059,0,0,1-.1.048l-.453-.495-.453.495a.06.06,0,0,1-.1-.048l.1-.662-.667-.048a.057.057,0,0,1-.024-.107l.584-.334-.381-.549a.057.057,0,0,1,.072-.083l.62.25.2-.638A.055.055,0,0,1,373.933,247.195Z" transform="translate(-355.801 -235.916)"/><path class="cls-2" d="M407.2,160.495l-.155.465-.495.006a.067.067,0,0,0-.042.119l.393.292-.149.471a.065.065,0,0,0,.1.072l.4-.286.4.286a.065.065,0,0,0,.1-.072l-.149-.471.393-.292a.066.066,0,0,0-.042-.119l-.495-.006-.155-.465C407.3,160.435,407.213,160.435,407.2,160.495Z" transform="translate(-387.561 -154.386)"/></g></g><g transform="translate(-19600.889 -23808)"><g transform="translate(0 0)"><g transform="translate(0 0)"><path class="cls-4" d="M29.982,19.984H.524A.525.525,0,0,1,0,19.459V.524A.529.529,0,0,1,.524,0H29.976A.525.525,0,0,1,30.5.524V19.459A.516.516,0,0,1,29.982,19.984Z" transform="translate(0)"/><ellipse class="cls-3" cx="5.785" cy="5.785" rx="5.785" ry="5.785" transform="translate(9.468 4.206)"/></g></g></g></svg>
