<svg xmlns="http://www.w3.org/2000/svg" viewBox="-13551 -13138 62.5 20">
  <defs>
    <style>
      .cls-1 {
        fill: #41479b;
      }

      .cls-2 {
        fill: #ffe15a;
      }

      .cls-3 {
        fill: #f5f5f5;
      }

      .cls-4 {
        fill: #ff4b55;
      }
    </style>
  </defs>
  <g id="Group_2914" data-name="Group 2914" transform="translate(6082 10580)">
    <g id="Group_2910" data-name="Group 2910" transform="translate(-19633 -23718)">
      <path id="Path_11630" data-name="Path 11630" class="cls-1" d="M29.982,20H.524A.525.525,0,0,1,0,19.475V.525A.529.529,0,0,1,.524,0H29.976A.525.525,0,0,1,30.5.525V19.475A.517.517,0,0,1,29.982,20Z"/>
      <g id="Group_2909" data-name="Group 2909" transform="translate(7.547 2.227)">
        <path id="Path_11631" data-name="Path 11631" class="cls-2" d="M241.7,37.413l.209.632.667.006a.091.091,0,0,1,.054.161l-.536.394.2.638a.09.09,0,0,1-.137.1l-.542-.388-.542.388a.09.09,0,0,1-.137-.1l.2-.638-.536-.394a.088.088,0,0,1,.054-.161l.667-.006.209-.632A.087.087,0,0,1,241.7,37.413Z" transform="translate(-233.775 -37.35)"/>
        <path id="Path_11632" data-name="Path 11632" class="cls-2" d="M241.7,265.313l.209.632.667.006a.091.091,0,0,1,.054.161l-.536.394.2.638a.09.09,0,0,1-.137.1l-.542-.388-.542.388a.09.09,0,0,1-.137-.1l.2-.638-.536-.394a.088.088,0,0,1,.054-.161l.667-.006.209-.632A.087.087,0,0,1,241.7,265.313Z" transform="translate(-233.775 -251.66)"/>
        <path id="Path_11633" data-name="Path 11633" class="cls-2" d="M355.6,151.383l.209.632.667.006a.091.091,0,0,1,.054.161l-.536.394.2.638a.09.09,0,0,1-.137.1l-.542-.388-.542.388a.09.09,0,0,1-.137-.1l.2-.638-.536-.394a.088.088,0,0,1,.054-.161l.667-.006.209-.632A.089.089,0,0,1,355.6,151.383Z" transform="translate(-340.889 -144.529)"/>
        <path id="Path_11634" data-name="Path 11634" class="cls-2" d="M127.8,151.383l.209.632.667.006a.091.091,0,0,1,.054.161l-.536.394.2.638a.09.09,0,0,1-.137.1l-.542-.388-.542.388a.09.09,0,0,1-.137-.1l.2-.638-.536-.394a.088.088,0,0,1,.054-.161l.667-.006.209-.632A.089.089,0,0,1,127.8,151.383Z" transform="translate(-126.662 -144.529)"/>
        <path id="Path_11635" data-name="Path 11635" class="cls-2" d="M144.9,91.883l.209.632.667.006a.091.091,0,0,1,.054.161l-.536.394.2.638a.09.09,0,0,1-.137.1l-.542-.388-.542.388a.09.09,0,0,1-.137-.1l.2-.638-.536-.394a.088.088,0,0,1,.054-.161l.667-.006.209-.632A.089.089,0,0,1,144.9,91.883Z" transform="translate(-142.743 -88.577)"/>
        <path id="Path_11636" data-name="Path 11636" class="cls-2" d="M342.2,205.813l.209.632.667.006a.091.091,0,0,1,.054.161l-.536.394.2.638a.09.09,0,0,1-.137.1l-.542-.388-.542.388a.09.09,0,0,1-.137-.1l.2-.638-.536-.394a.088.088,0,0,1,.054-.161l.667-.006.209-.632A.087.087,0,0,1,342.2,205.813Z" transform="translate(-328.287 -195.708)"/>
        <path id="Path_11637" data-name="Path 11637" class="cls-2" d="M300.5,50.183l.209.632.667.006a.091.091,0,0,1,.054.161l-.536.394.2.638a.09.09,0,0,1-.137.1l-.542-.388-.542.388a.089.089,0,0,1-.137-.1l.2-.638-.536-.394a.088.088,0,0,1,.054-.161l.667-.006.209-.632A.089.089,0,0,1,300.5,50.183Z" transform="translate(-289.072 -49.363)"/>
        <path id="Path_11638" data-name="Path 11638" class="cls-2" d="M186.6,247.513l.209.632.667.006a.091.091,0,0,1,.054.161l-.536.394.2.638a.09.09,0,0,1-.137.1l-.542-.388-.542.388a.09.09,0,0,1-.137-.1l.2-.638-.536-.394a.088.088,0,0,1,.054-.161l.667-.006.209-.632A.087.087,0,0,1,186.6,247.513Z" transform="translate(-181.958 -234.922)"/>
        <path id="Path_11639" data-name="Path 11639" class="cls-2" d="M341.994,91.883l-.209.632-.667.006a.091.091,0,0,0-.054.161l.536.394-.2.638a.09.09,0,0,0,.137.1l.542-.388.542.388a.09.09,0,0,0,.137-.1l-.2-.638.536-.394a.088.088,0,0,0-.054-.161l-.667-.006-.209-.632A.089.089,0,0,0,341.994,91.883Z" transform="translate(-328.258 -88.577)"/>
        <path id="Path_11640" data-name="Path 11640" class="cls-2" d="M144.694,205.813l-.209.632-.667.006a.091.091,0,0,0-.054.161l.536.394-.2.638a.09.09,0,0,0,.137.1l.542-.388.542.388a.09.09,0,0,0,.137-.1l-.2-.638.536-.394a.088.088,0,0,0-.054-.161l-.667-.006-.209-.632A.087.087,0,0,0,144.694,205.813Z" transform="translate(-142.714 -195.708)"/>
        <path id="Path_11641" data-name="Path 11641" class="cls-2" d="M186.394,50.195l-.209.632-.667.006a.091.091,0,0,0-.054.161l.536.394-.2.638a.09.09,0,0,0,.137.1l.542-.388.542.388a.09.09,0,0,0,.137-.1l-.2-.638.536-.394a.088.088,0,0,0-.054-.161h-.661l-.209-.632A.092.092,0,0,0,186.394,50.195Z" transform="translate(-181.929 -49.375)"/>
        <path id="Path_11642" data-name="Path 11642" class="cls-2" d="M300.294,247.513l-.209.632-.667.006a.091.091,0,0,0-.054.161l.536.394-.2.638a.09.09,0,0,0,.137.1l.542-.388.542.388a.089.089,0,0,0,.137-.1l-.2-.638.536-.394a.088.088,0,0,0-.054-.161l-.667-.006-.209-.632A.087.087,0,0,0,300.294,247.513Z" transform="translate(-289.043 -234.922)"/>
      </g>
    </g>
    <g id="Group_2917" data-name="Group 2917" transform="translate(-19601 -23718)">
      <path id="Path_11644" data-name="Path 11644" class="cls-1" d="M29.982,20H.524A.525.525,0,0,1,0,19.475V.525A.529.529,0,0,1,.524,0H29.976A.525.525,0,0,1,30.5.525V19.475A.517.517,0,0,1,29.982,20Z" transform="translate(0 0)"/>
      <path id="Path_11645" data-name="Path 11645" class="cls-3" d="M14.729,0h-.912L8.943,3.2V0H6.316V3.2L1.442,0H.524A.529.529,0,0,0,0,.525V.942L4.183,3.685H0v2.63H4.183L0,9.058v.417A.525.525,0,0,0,.524,10h.912L6.31,6.8V10H8.937V6.8L13.811,10h.912a.525.525,0,0,0,.524-.525V9.058L11.064,6.315h4.189V3.685H11.07L15.253.942V.525A.529.529,0,0,0,14.729,0Z" transform="translate(0 0)"/>
      <g id="Group_2915" data-name="Group 2915" transform="translate(0 0)">
        <path id="Path_11646" data-name="Path 11646" class="cls-4" d="M15.253,4.21H8.413V0H6.84V4.21H0V5.79H6.84V10H8.413V5.79h6.84Z" transform="translate(0 0)"/>
        <path id="Path_11647" data-name="Path 11647" class="cls-4" d="M5.785,5.1.25,1.5A.516.516,0,0,0,0,1.935v.03L4.82,5.1Z" transform="translate(0 -1.411)"/>
        <path id="Path_11648" data-name="Path 11648" class="cls-4" d="M151.065,3.685,156.332.262A.511.511,0,0,0,155.885,0h-.113L150.1,3.685h.965Z" transform="translate(-141.157 0)"/>
        <path id="Path_11649" data-name="Path 11649" class="cls-4" d="M6.555,105.9,1.3,109.317a.514.514,0,0,0,.453.268h.1L7.526,105.9Z" transform="translate(-1.223 -99.585)"/>
        <path id="Path_11650" data-name="Path 11650" class="cls-4" d="M162.893,109.1l-4.927-3.2H157l5.595,3.631A.514.514,0,0,0,162.893,109.1Z" transform="translate(-147.646 -99.585)"/>
      </g>
      <g id="Group_2916" data-name="Group 2916" transform="translate(5.301 3.503)">
        <path id="Path_11651" data-name="Path 11651" class="cls-3" d="M91.456,214.56l.4,1.312,1.275-.507a.121.121,0,0,1,.143.179l-.775,1.127,1.192.68a.118.118,0,0,1-.048.221l-1.364.1.209,1.354a.117.117,0,0,1-.2.1l-.924-1.008-.924,1.008a.117.117,0,0,1-.2-.1l.209-1.354-1.364-.1a.117.117,0,0,1-.048-.221l1.192-.68-.775-1.127a.12.12,0,0,1,.143-.179l1.275.507.4-1.312C91.26,214.447,91.421,214.447,91.456,214.56Z" transform="translate(-88.97 -205.189)"/>
        <path id="Path_11652" data-name="Path 11652" class="cls-3" d="M373.933,58.795l.2.638.62-.25a.058.058,0,0,1,.072.083l-.381.549.584.334a.058.058,0,0,1-.024.107l-.667.048.1.662a.059.059,0,0,1-.1.048l-.453-.495-.453.495a.06.06,0,0,1-.1-.048l.1-.662-.667-.048a.057.057,0,0,1-.024-.107l.584-.334-.381-.549a.057.057,0,0,1,.072-.083l.62.25.2-.638A.055.055,0,0,1,373.933,58.795Z" transform="translate(-355.801 -58.75)"/>
        <path id="Path_11653" data-name="Path 11653" class="cls-3" d="M301.333,141.287l.2.638.62-.25a.058.058,0,0,1,.072.083l-.381.549.584.334a.058.058,0,0,1-.024.107l-.667.048.1.662a.059.059,0,0,1-.1.048l-.453-.495-.453.495a.06.06,0,0,1-.1-.048l.1-.662-.667-.048a.057.057,0,0,1-.024-.107l.584-.334-.381-.537a.057.057,0,0,1,.072-.083l.62.25.2-.638A.055.055,0,0,1,301.333,141.287Z" transform="translate(-287.526 -136.329)"/>
        <path id="Path_11654" data-name="Path 11654" class="cls-3" d="M442.533,105.965l.2.638.62-.25a.058.058,0,0,1,.071.083l-.381.549.584.334a.058.058,0,0,1-.024.107l-.667.048.1.662a.059.059,0,0,1-.1.048l-.453-.495-.453.495a.06.06,0,0,1-.1-.048l.1-.662-.667-.048a.057.057,0,0,1-.024-.107l.584-.334-.381-.549a.057.057,0,0,1,.072-.083l.62.25.2-.638A.056.056,0,0,1,442.533,105.965Z" transform="translate(-420.314 -103.112)"/>
        <path id="Path_11655" data-name="Path 11655" class="cls-3" d="M373.933,247.195l.2.638.62-.25a.058.058,0,0,1,.072.083l-.381.549.584.334a.058.058,0,0,1-.024.107l-.667.048.1.662a.059.059,0,0,1-.1.048l-.453-.495-.453.495a.06.06,0,0,1-.1-.048l.1-.662-.667-.048a.057.057,0,0,1-.024-.107l.584-.334-.381-.549a.057.057,0,0,1,.072-.083l.62.25.2-.638A.055.055,0,0,1,373.933,247.195Z" transform="translate(-355.801 -235.916)"/>
        <path id="Path_11656" data-name="Path 11656" class="cls-3" d="M407.2,160.495l-.155.465-.495.006a.067.067,0,0,0-.042.119l.393.292-.149.471a.065.065,0,0,0,.1.072l.4-.286.4.286a.065.065,0,0,0,.1-.072l-.149-.471.393-.292a.066.066,0,0,0-.042-.119l-.495-.006-.155-.465C407.3,160.435,407.213,160.435,407.2,160.495Z" transform="translate(-387.561 -154.386)"/>
      </g>
    </g>
  </g>
</svg>
