<svg id="Layer_1" data-name="Layer 1" xmlns="http://www.w3.org/2000/svg" viewBox="0 0 92.1 92"><defs><style>.cls-1,.cls-4{isolation:isolate;}.cls-2{fill:#41479b;}.cls-3{fill:#ffe15a;}.cls-4{fill:#13163e;opacity:0.4;}.cls-5{fill:#f5f5f5;}.cls-6{fill:#ff4b55;}</style></defs><title>eurjpy</title><g class="cls-1"><path d="M16.3,85H10.4v4.6h6.8V91H8.7V78.2h8.4v1.4H10.4v4.1h5.9V85Z"/><path d="M28.6,78.1v8.7A3.87,3.87,0,0,1,27.2,90a5.63,5.63,0,0,1-3.5,1.1A5.34,5.34,0,0,1,20.3,90,3.81,3.81,0,0,1,19,86.8V78.1h1.7v8.7a3,3,0,0,0,.8,2.2,3.3,3.3,0,0,0,2.2.8A3.09,3.09,0,0,0,26,89a2.66,2.66,0,0,0,.9-2.2V78.1Z"/><path d="M33.1,85.4v5.5H31.4V78.1H36a4.88,4.88,0,0,1,3.2.9,3.39,3.39,0,0,1,1.1,2.7,3.07,3.07,0,0,1-2,2.9,2.49,2.49,0,0,1,1.5,1.1,3.55,3.55,0,0,1,.5,1.9v1.2a3.76,3.76,0,0,0,.1,1.1,1.38,1.38,0,0,0,.5.8v.2H39.1a1.27,1.27,0,0,1-.4-.9,4.89,4.89,0,0,1-.1-1.2V87.6a2.52,2.52,0,0,0-.6-1.7,2.11,2.11,0,0,0-1.6-.6H33.1Zm0-1.4h2.7a2.93,2.93,0,0,0,2.1-.6,2.2,2.2,0,0,0,.6-1.7,2.35,2.35,0,0,0-.6-1.7,2.81,2.81,0,0,0-2-.6H33V84Z"/><path d="M43.4,92H41.9l5.3-13.9h1.5Z"/><path d="M56,78.1h1.7v9.3a3.54,3.54,0,0,1-1.1,2.7,3.86,3.86,0,0,1-2.8,1,4.38,4.38,0,0,1-2.9-.9,3,3,0,0,1-1-2.7v-.1h1.7a2.44,2.44,0,0,0,.6,1.8,2.35,2.35,0,0,0,1.7.6,2.27,2.27,0,0,0,1.6-.6,2.35,2.35,0,0,0,.6-1.7V78.1Z"/><path d="M62.5,85.8v5.1H60.8V78.1h4.9a4.59,4.59,0,0,1,3.2,1.1A3.42,3.42,0,0,1,70,82a3.77,3.77,0,0,1-1.1,2.8,4.56,4.56,0,0,1-3.2,1Zm0-1.4h3.2a2.23,2.23,0,0,0,1.9-.7,3,3,0,0,0,0-3.6,2.35,2.35,0,0,0-1.9-.7H62.5Z"/><path d="M76.2,84.6l3.3-6.5h2L77,86.4v4.5H75.3V86.3l-4.4-8.2h2Z"/></g><g id="Group_567" data-name="Group 567"><g id="Group_565" data-name="Group 565"><path id="Path_2397" data-name="Path 2397" class="cls-2" d="M65,43.3H1.1A1.11,1.11,0,0,1,0,42.2V1.1A1.11,1.11,0,0,1,1.1,0H65a1.11,1.11,0,0,1,1.1,1.1V42.2A1.18,1.18,0,0,1,65,43.3Z"/><g id="Group_564" data-name="Group 564"><path id="Path_2398" data-name="Path 2398" class="cls-3" d="M33.48,4.83l.5,1.4h1.4a.21.21,0,0,1,.2.2c0,.1,0,.1-.1.1l-1.2.9.4,1.4c0,.1,0,.2-.1.2h-.2l-1.2-.8L32,9c-.1.1-.2,0-.3,0s-.1-.1,0-.2l.4-1.4-1.2-.9a.19.19,0,0,1,0-.3c0-.1.1-.1.2-.1h1.4l.5-1.4c0-.1.1-.2.2-.1A1.28,1.28,0,0,1,33.48,4.83Z"/><path id="Path_2399" data-name="Path 2399" class="cls-3" d="M33.48,34.33l.5,1.4h1.4a.21.21,0,0,1,.2.2c0,.1,0,.1-.1.1l-1.2.9.4,1.4c0,.1,0,.2-.1.2h-.2l-1.2-.8-1.2.8c-.1.1-.2,0-.3,0s-.1-.1,0-.2l.4-1.4-1.2-.9a.19.19,0,0,1,0-.3c0-.1.1-.1.2-.1h1.4l.5-1.4c0-.1.1-.2.2-.1S33.48,34.23,33.48,34.33Z"/><path id="Path_2400" data-name="Path 2400" class="cls-3" d="M48.18,19.63l.5,1.4h1.4a.21.21,0,0,1,.2.2c0,.1,0,.1-.1.1l-1.2.9.4,1.4c0,.1,0,.2-.1.2h-.2l-1.2-.8-1.2.8c-.1.1-.2,0-.3,0s-.1-.1,0-.2l.4-1.4-1.2-.9a.19.19,0,0,1,0-.3c0-.1.1-.1.2-.1h1.4l.5-1.4c0-.1.1-.2.2-.1S48.18,19.53,48.18,19.63Z"/><path id="Path_2401" data-name="Path 2401" class="cls-3" d="M18.78,19.63l.5,1.4h1.4a.21.21,0,0,1,.2.2c0,.1,0,.1-.1.1l-1.2.9.4,1.4c0,.1,0,.2-.1.2h-.2l-1.2-.8-1.2.8c-.1.1-.2,0-.3,0s-.1-.1,0-.2l.4-1.4-1.2-.9a.19.19,0,0,1,0-.3c0-.1.1-.1.2-.1h1.4l.5-1.4c0-.1.1-.2.2-.1A.79.79,0,0,1,18.78,19.63Z"/><path id="Path_2402" data-name="Path 2402" class="cls-3" d="M21,11.93l.5,1.4h1.4a.21.21,0,0,1,.2.2c0,.1,0,.1-.1.1l-1.2.9.4,1.4c0,.1,0,.2-.1.2h-.2l-1.2-.8-1.2.8c-.1.1-.2,0-.3,0s-.1-.1,0-.2l.4-1.4-1.2-.9a.19.19,0,0,1,0-.3c0-.1.1-.1.2-.1H20l.5-1.4c0-.1.1-.2.2-.1S21,11.83,21,11.93Z"/><path id="Path_2403" data-name="Path 2403" class="cls-3" d="M46.48,26.63,47,28h1.4a.21.21,0,0,1,.2.2c0,.1,0,.1-.1.1l-1.2.9.4,1.4c0,.1,0,.2-.1.2h-.2l-1.2-.8-1.2.8c-.1.1-.2,0-.3,0s-.1-.1,0-.2l.4-1.4-1.2-.9a.19.19,0,0,1,0-.3c0-.1.1-.1.2-.1h1.4l.5-1.4c0-.1.1-.2.2-.1S46.48,26.53,46.48,26.63Z"/><path id="Path_2404" data-name="Path 2404" class="cls-3" d="M41.08,6.53l.5,1.4H43a.21.21,0,0,1,.2.2c0,.1,0,.1-.1.1l-1.2.9.4,1.4c0,.1,0,.2-.1.2H42l-1.2-.8-1.2.8c-.1.1-.2,0-.3,0v-.2l.4-1.4-1.2-.9a.19.19,0,0,1,0-.3c0-.1.1-.1.2-.1h1.4l.5-1.4c0-.1.1-.2.2-.1S41.08,6.43,41.08,6.53Z"/><path id="Path_2405" data-name="Path 2405" class="cls-3" d="M26.38,32l.5,1.4h1.4a.21.21,0,0,1,.2.2c0,.1,0,.1-.1.1l-1.2.9.4,1.4c0,.1,0,.2-.1.2h-.2l-1.2-.8-1.2.8c-.1.1-.2,0-.3,0s-.1-.1,0-.2l.4-1.4-1.2-.9a.19.19,0,0,1,0-.3c0-.1.1-.1.2-.1h1.4l.5-1.4c0-.1.1-.2.2-.1A.75.75,0,0,1,26.38,32Z"/><path id="Path_2406" data-name="Path 2406" class="cls-3" d="M46.08,11.93l-.5,1.4h-1.4a.21.21,0,0,0-.2.2c0,.1,0,.1.1.1l1.2.9-.4,1.4c0,.1,0,.2.1.2h.2l1.2-.8,1.2.8c.1.1.2,0,.3,0s.1-.1,0-.2l-.4-1.4,1.2-.9a.19.19,0,0,0,0-.3c0-.1-.1-.1-.2-.1h-1.4l-.5-1.4c0-.1-.1-.2-.2-.1S46.08,11.83,46.08,11.93Z"/><path id="Path_2407" data-name="Path 2407" class="cls-3" d="M20.58,26.63l-.5,1.4h-1.4a.21.21,0,0,0-.2.2c0,.1,0,.1.1.1l1.2.9-.4,1.4c0,.1,0,.2.1.2h.2l1.2-.8,1.2.8c.1.1.2,0,.3,0v-.2l-.4-1.4,1.2-.9a.19.19,0,0,0,0-.3c0-.1-.1-.1-.2-.1h-1.4l-.5-1.4c0-.1-.1-.2-.2-.1S20.58,26.53,20.58,26.63Z"/><path id="Path_2408" data-name="Path 2408" class="cls-3" d="M26,6.53l-.5,1.4h-1.4a.21.21,0,0,0-.2.2c0,.1,0,.1.1.1l1.2.9-.4,1.4c0,.1,0,.2.1.2h.2l1.2-.8,1.2.8c.1.1.2,0,.3,0s.1-.1,0-.2l-.4-1.4,1.2-.9a.19.19,0,0,0,0-.3c0-.1-.1-.1-.2-.1H27l-.5-1.4c0-.1-.1-.2-.2-.1S26,6.43,26,6.53Z"/><path id="Path_2409" data-name="Path 2409" class="cls-3" d="M40.68,32l-.5,1.4h-1.4a.21.21,0,0,0-.2.2c0,.1,0,.1.1.1l1.2.9-.4,1.4c0,.1,0,.2.1.2h.2l1.2-.8,1.2.8c.1.1.2,0,.3,0s.1-.1,0-.2l-.4-1.4,1.2-.9a.19.19,0,0,0,0-.3c0-.1-.1-.1-.2-.1h-1.4l-.5-1.4c0-.1-.1-.2-.2-.1S40.68,31.93,40.68,32Z"/></g></g><rect id="Rectangle_229" data-name="Rectangle 229" class="cls-4" x="23.9" y="17.9" width="42" height="25"/><g id="Group_566" data-name="Group 566"><path id="Path_2410" data-name="Path 2410" class="cls-5" d="M91,63.3H27.1A1.11,1.11,0,0,1,26,62.2V21.1A1.11,1.11,0,0,1,27.1,20H91a1.11,1.11,0,0,1,1.1,1.1V62.2A1.18,1.18,0,0,1,91,63.3Z"/><circle id="Ellipse_51" data-name="Ellipse 51" class="cls-6" cx="59" cy="41.6" r="12.6"/></g></g></svg>