<svg xmlns="http://www.w3.org/2000/svg" viewBox="-13498 -13055 40.353 27">
  <defs>
    <style>
      .cls-1 {
        fill: #41479b;
      }

      .cls-2 {
        fill: #ffe15a;
      }

      .cls-3 {
        fill: #f5f5f5;
      }

      .cls-4 {
        fill: #ff4b55;
      }
    </style>
  </defs>
  <g id="Group_3016" data-name="Group 3016" transform="translate(6135 10753)">
    <g id="Group_3012" data-name="Group 3012" transform="translate(-19633 -23808)">
      <path id="Path_12091" data-name="Path 12091" class="cls-1" d="M27.524,18.361H.481A.482.482,0,0,1,0,17.879V.482A.486.486,0,0,1,.481,0H27.519A.482.482,0,0,1,28,.482v17.4A.474.474,0,0,1,27.524,18.361Z"/>
      <g id="Group_3011" data-name="Group 3011" transform="translate(6.928 2.045)">
        <path id="Path_12092" data-name="Path 12092" class="cls-2" d="M241.6,37.407l.191.58.613.005a.083.083,0,0,1,.049.148l-.492.361.186.586a.083.083,0,0,1-.126.093l-.5-.356-.5.356a.082.082,0,0,1-.126-.093l.186-.586-.492-.361a.081.081,0,0,1,.049-.148l.613-.005.191-.58A.08.08,0,0,1,241.6,37.407Z" transform="translate(-234.332 -37.35)"/>
        <path id="Path_12093" data-name="Path 12093" class="cls-2" d="M241.6,265.307l.191.58.613.005a.083.083,0,0,1,.049.148l-.492.361.186.586a.083.083,0,0,1-.126.093l-.5-.356-.5.356a.082.082,0,0,1-.126-.093l.186-.586-.492-.361a.081.081,0,0,1,.049-.148l.613-.005.191-.58A.08.08,0,0,1,241.6,265.307Z" transform="translate(-234.332 -252.774)"/>
        <path id="Path_12094" data-name="Path 12094" class="cls-2" d="M355.5,151.378l.191.58.613.005a.083.083,0,0,1,.049.148l-.492.361.186.586a.083.083,0,0,1-.126.093l-.5-.356-.5.356a.082.082,0,0,1-.126-.093l.186-.586-.492-.361a.081.081,0,0,1,.049-.148l.613-.005.191-.58A.082.082,0,0,1,355.5,151.378Z" transform="translate(-342.001 -145.086)"/>
        <path id="Path_12095" data-name="Path 12095" class="cls-2" d="M127.7,151.378l.191.58.613.005a.083.083,0,0,1,.049.148l-.492.361.186.586a.083.083,0,0,1-.126.093l-.5-.356-.5.356a.082.082,0,0,1-.126-.093l.186-.586-.492-.361a.081.081,0,0,1,.049-.148l.613-.005.191-.58A.082.082,0,0,1,127.7,151.378Z" transform="translate(-126.662 -145.086)"/>
        <path id="Path_12096" data-name="Path 12096" class="cls-2" d="M144.8,91.878l.191.58.613.005a.083.083,0,0,1,.049.148l-.492.361.186.586a.083.083,0,0,1-.126.093l-.5-.356-.5.356a.082.082,0,0,1-.126-.093l.186-.586-.492-.361a.081.081,0,0,1,.049-.148l.613-.005.191-.58A.082.082,0,0,1,144.8,91.878Z" transform="translate(-142.826 -88.843)"/>
        <path id="Path_12097" data-name="Path 12097" class="cls-2" d="M342.1,205.807l.191.58.613.005a.083.083,0,0,1,.049.148l-.492.361.186.586a.083.083,0,0,1-.126.093l-.5-.356-.5.356a.082.082,0,0,1-.126-.093l.186-.586-.492-.361a.081.081,0,0,1,.049-.148l.613-.005.191-.58A.08.08,0,0,1,342.1,205.807Z" transform="translate(-329.334 -196.531)"/>
        <path id="Path_12098" data-name="Path 12098" class="cls-2" d="M300.4,50.178l.191.58.613.005a.083.083,0,0,1,.049.148l-.492.361.186.586a.083.083,0,0,1-.126.093l-.5-.356-.5.356a.082.082,0,0,1-.126-.093l.186-.586-.492-.361a.081.081,0,0,1,.049-.148l.613-.005.191-.58A.082.082,0,0,1,300.4,50.178Z" transform="translate(-289.915 -49.426)"/>
        <path id="Path_12099" data-name="Path 12099" class="cls-2" d="M186.5,247.507l.191.58.613.005a.083.083,0,0,1,.049.148l-.492.361.186.586a.083.083,0,0,1-.126.093l-.5-.356-.5.356a.082.082,0,0,1-.126-.093l.186-.586-.492-.361a.081.081,0,0,1,.049-.148l.613-.005.191-.58A.08.08,0,0,1,186.5,247.507Z" transform="translate(-182.245 -235.949)"/>
        <path id="Path_12100" data-name="Path 12100" class="cls-2" d="M341.915,91.878l-.191.58-.613.005a.083.083,0,0,0-.049.148l.492.361-.186.586a.083.083,0,0,0,.126.093l.5-.356.5.356a.082.082,0,0,0,.126-.093l-.186-.586.492-.361a.081.081,0,0,0-.049-.148l-.613-.005-.191-.58A.082.082,0,0,0,341.915,91.878Z" transform="translate(-329.305 -88.843)"/>
        <path id="Path_12101" data-name="Path 12101" class="cls-2" d="M144.615,205.807l-.191.58-.613.005a.083.083,0,0,0-.049.148l.492.361-.186.586a.083.083,0,0,0,.126.093l.5-.356.5.356a.082.082,0,0,0,.126-.093l-.186-.586.492-.361a.081.081,0,0,0-.049-.148l-.613-.005-.191-.58A.08.08,0,0,0,144.615,205.807Z" transform="translate(-142.797 -196.531)"/>
        <path id="Path_12102" data-name="Path 12102" class="cls-2" d="M186.315,50.19l-.191.58-.613.005a.083.083,0,0,0-.049.148l.492.361-.186.586a.083.083,0,0,0,.126.093l.5-.356.5.356a.082.082,0,0,0,.126-.093l-.186-.586.492-.361a.081.081,0,0,0-.049-.148h-.607l-.191-.58A.085.085,0,0,0,186.315,50.19Z" transform="translate(-182.216 -49.437)"/>
        <path id="Path_12103" data-name="Path 12103" class="cls-2" d="M300.215,247.507l-.191.58-.613.005a.083.083,0,0,0-.049.148l.492.361-.186.586a.083.083,0,0,0,.126.093l.5-.356.5.356a.082.082,0,0,0,.126-.093l-.186-.586.492-.361a.081.081,0,0,0-.049-.148l-.613-.005-.191-.58A.08.08,0,0,0,300.215,247.507Z" transform="translate(-289.886 -235.949)"/>
      </g>
    </g>
    <g id="Group_3019" data-name="Group 3019" transform="translate(-19621 -23800)">
      <path id="Path_12105" data-name="Path 12105" class="cls-3" d="M27.866,19H.487A.494.494,0,0,1,0,18.5V.5A.5.5,0,0,1,.487,0H27.86a.494.494,0,0,1,.487.5v18A.486.486,0,0,1,27.866,19Z" transform="translate(0)"/>
      <g id="Group_3017" data-name="Group 3017" transform="translate(0)">
        <path id="Path_12106" data-name="Path 12106" class="cls-4" d="M28.353,1.462H0V.5A.5.5,0,0,1,.487,0H27.86a.494.494,0,0,1,.487.5l.006.963Z"/>
        <rect id="Rectangle_2189" data-name="Rectangle 2189" class="cls-4" width="28.353" height="1.462" transform="translate(0 5.846)"/>
        <rect id="Rectangle_2190" data-name="Rectangle 2190" class="cls-4" width="28.353" height="1.462" transform="translate(0 2.923)"/>
        <path id="Path_12107" data-name="Path 12107" class="cls-4" d="M28.353,156.262H.487a.494.494,0,0,1-.487-.5V154.8H28.353Z" transform="translate(0 -146.031)"/>
        <rect id="Rectangle_2191" data-name="Rectangle 2191" class="cls-4" width="28.353" height="1.462" transform="translate(0 14.615)"/>
        <path id="Path_12108" data-name="Path 12108" class="cls-4" d="M27.866,311.062H.487a.494.494,0,0,1-.487-.5V309.6H28.353v.963A.494.494,0,0,1,27.866,311.062Z" transform="translate(0 -292.062)"/>
        <rect id="Rectangle_2192" data-name="Rectangle 2192" class="cls-4" width="28.353" height="1.462" transform="translate(0 11.692)"/>
      </g>
      <path id="Path_12109" data-name="Path 12109" class="cls-1" d="M12.709,0H.487A.5.5,0,0,0,0,.5V9.732a.494.494,0,0,0,.487.5H12.709a.494.494,0,0,0,.487-.5V.5A.494.494,0,0,0,12.709,0Z" transform="translate(0)"/>
      <g id="Group_3018" data-name="Group 3018" transform="translate(0.797 1.116)">
        <path id="Path_12110" data-name="Path 12110" class="cls-3" d="M14.96,19.734l.111.334h.343a.048.048,0,0,1,.028.085l-.277.21.105.334a.046.046,0,0,1-.072.051l-.277-.2-.277.2a.047.047,0,0,1-.072-.051l.105-.334-.277-.21a.048.048,0,0,1,.028-.085h.343l.111-.334C14.888,19.689,14.943,19.689,14.96,19.734Z" transform="translate(-14.383 -19.7)"/>
        <path id="Path_12111" data-name="Path 12111" class="cls-3" d="M14.96,50.4l.111.334h.343a.048.048,0,0,1,.028.085l-.277.21.105.334a.046.046,0,0,1-.072.051l-.277-.2-.277.2a.047.047,0,0,1-.072-.051l.105-.334-.277-.21a.048.048,0,0,1,.028-.085h.343l.111-.334C14.888,50.365,14.943,50.365,14.96,50.4Z" transform="translate(-14.383 -48.637)"/>
        <path id="Path_12112" data-name="Path 12112" class="cls-3" d="M14.96,81.034l.111.334h.343a.048.048,0,0,1,.028.085l-.277.21L15.27,82a.046.046,0,0,1-.072.051l-.277-.2-.277.2A.047.047,0,0,1,14.572,82l.105-.334-.277-.21a.048.048,0,0,1,.028-.085h.343l.111-.334C14.888,80.989,14.943,80.989,14.96,81.034Z" transform="translate(-14.383 -77.527)"/>
        <path id="Path_12113" data-name="Path 12113" class="cls-3" d="M14.96,111.7l.111.334h.343a.048.048,0,0,1,.028.085l-.277.21.105.334a.046.046,0,0,1-.072.051l-.277-.2-.277.2a.047.047,0,0,1-.072-.051l.105-.334-.277-.21a.048.048,0,0,1,.028-.085h.343l.111-.334C14.888,111.665,14.943,111.665,14.96,111.7Z" transform="translate(-14.383 -106.465)"/>
        <path id="Path_12114" data-name="Path 12114" class="cls-3" d="M14.96,142.334l.111.334h.343a.048.048,0,0,1,.028.085l-.277.21.105.334a.046.046,0,0,1-.072.051l-.277-.2-.277.2a.047.047,0,0,1-.072-.051l.105-.334-.277-.21a.048.048,0,0,1,.028-.085h.343l.111-.334C14.888,142.289,14.943,142.289,14.96,142.334Z" transform="translate(-14.383 -135.355)"/>
        <path id="Path_12115" data-name="Path 12115" class="cls-3" d="M38.76,34.734l.111.334h.343a.048.048,0,0,1,.028.085l-.277.21.105.334a.046.046,0,0,1-.072.051l-.277-.2-.277.2a.047.047,0,0,1-.072-.051l.105-.334-.277-.21a.048.048,0,0,1,.028-.085h.343l.111-.334C38.688,34.689,38.743,34.689,38.76,34.734Z" transform="translate(-36.865 -33.85)"/>
        <path id="Path_12116" data-name="Path 12116" class="cls-3" d="M38.76,65.4l.111.334h.343a.048.048,0,0,1,.028.085l-.277.21.105.334a.046.046,0,0,1-.072.051l-.277-.2-.277.2a.047.047,0,0,1-.072-.051l.105-.334-.277-.21a.048.048,0,0,1,.028-.085h.343l.111-.334C38.688,65.365,38.743,65.365,38.76,65.4Z" transform="translate(-36.865 -62.788)"/>
        <path id="Path_12117" data-name="Path 12117" class="cls-3" d="M38.76,96.034l.111.334h.343a.048.048,0,0,1,.028.085l-.277.21L39.07,97a.046.046,0,0,1-.072.051l-.277-.2-.277.2A.047.047,0,0,1,38.372,97l.105-.334-.277-.21a.048.048,0,0,1,.028-.085h.343l.111-.334C38.688,95.989,38.743,95.989,38.76,96.034Z" transform="translate(-36.865 -91.678)"/>
        <path id="Path_12118" data-name="Path 12118" class="cls-3" d="M38.76,126.734l.111.334h.343a.048.048,0,0,1,.028.085l-.277.21.105.334a.046.046,0,0,1-.072.051l-.277-.2-.277.2a.047.047,0,0,1-.072-.051l.105-.334-.277-.21a.048.048,0,0,1,.028-.085h.343l.111-.334C38.688,126.689,38.743,126.689,38.76,126.734Z" transform="translate(-36.865 -120.639)"/>
        <path id="Path_12119" data-name="Path 12119" class="cls-3" d="M62.56,19.734l.111.334h.343a.048.048,0,0,1,.028.085l-.277.21.105.334a.046.046,0,0,1-.072.051l-.277-.2-.277.2a.047.047,0,0,1-.072-.051l.105-.334L62,20.153a.048.048,0,0,1,.028-.085h.343l.111-.334C62.483,19.689,62.543,19.689,62.56,19.734Z" transform="translate(-59.347 -19.7)"/>
        <path id="Path_12120" data-name="Path 12120" class="cls-3" d="M62.466,50.4l.111.334h.343a.048.048,0,0,1,.028.085l-.282.21.105.334a.046.046,0,0,1-.072.051l-.277-.2-.277.2a.047.047,0,0,1-.072-.051l.105-.334-.277-.21a.048.048,0,0,1,.028-.085h.343l.111-.334C62.388,50.365,62.449,50.365,62.466,50.4Z" transform="translate(-59.253 -48.637)"/>
        <path id="Path_12121" data-name="Path 12121" class="cls-3" d="M62.56,81.034l.111.334h.343a.048.048,0,0,1,.028.085l-.277.21L62.87,82a.046.046,0,0,1-.072.051l-.277-.2-.277.2A.047.047,0,0,1,62.172,82l.105-.334L62,81.453a.048.048,0,0,1,.028-.085h.343l.111-.334C62.483,80.989,62.543,80.989,62.56,81.034Z" transform="translate(-59.347 -77.527)"/>
        <path id="Path_12122" data-name="Path 12122" class="cls-3" d="M62.56,111.7l.111.334h.343a.048.048,0,0,1,.028.085l-.277.21.105.334a.046.046,0,0,1-.072.051l-.277-.2-.277.2a.047.047,0,0,1-.072-.051l.105-.334-.277-.21a.048.048,0,0,1,.028-.085h.343l.111-.334C62.483,111.665,62.543,111.665,62.56,111.7Z" transform="translate(-59.347 -106.465)"/>
        <path id="Path_12123" data-name="Path 12123" class="cls-3" d="M62.56,142.334l.111.334h.343a.048.048,0,0,1,.028.085l-.277.21.105.334a.046.046,0,0,1-.072.051l-.277-.2-.277.2a.047.047,0,0,1-.072-.051l.105-.334-.277-.21a.048.048,0,0,1,.028-.085h.343l.111-.334C62.483,142.289,62.543,142.289,62.56,142.334Z" transform="translate(-59.347 -135.355)"/>
        <path id="Path_12124" data-name="Path 12124" class="cls-3" d="M86.36,34.734l.111.334h.343a.048.048,0,0,1,.028.085l-.277.21.105.334a.046.046,0,0,1-.072.051l-.277-.2-.277.2a.047.047,0,0,1-.072-.051l.105-.334-.277-.21a.048.048,0,0,1,.028-.085h.343l.111-.334C86.283,34.689,86.343,34.689,86.36,34.734Z" transform="translate(-81.829 -33.85)"/>
        <path id="Path_12125" data-name="Path 12125" class="cls-3" d="M86.36,65.4l.111.334h.343a.048.048,0,0,1,.028.085l-.277.21.105.334a.046.046,0,0,1-.072.051l-.277-.2-.277.2a.047.047,0,0,1-.072-.051l.105-.334-.277-.21a.048.048,0,0,1,.028-.085h.343l.111-.334C86.283,65.365,86.343,65.365,86.36,65.4Z" transform="translate(-81.829 -62.788)"/>
        <path id="Path_12126" data-name="Path 12126" class="cls-3" d="M86.36,96.034l.111.334h.343a.048.048,0,0,1,.028.085l-.277.21L86.67,97a.046.046,0,0,1-.072.051l-.277-.2-.277.2A.047.047,0,0,1,85.972,97l.105-.334-.277-.21a.048.048,0,0,1,.028-.085h.343l.111-.334C86.283,95.989,86.343,95.989,86.36,96.034Z" transform="translate(-81.829 -91.678)"/>
        <path id="Path_12127" data-name="Path 12127" class="cls-3" d="M86.36,126.734l.111.334h.343a.048.048,0,0,1,.028.085l-.277.21.105.334a.046.046,0,0,1-.072.051l-.277-.2-.277.2a.047.047,0,0,1-.072-.051l.105-.334-.277-.21a.048.048,0,0,1,.028-.085h.343l.111-.334C86.283,126.689,86.343,126.689,86.36,126.734Z" transform="translate(-81.829 -120.639)"/>
        <path id="Path_12128" data-name="Path 12128" class="cls-3" d="M110.16,19.734l.111.334h.343a.048.048,0,0,1,.028.085l-.277.21.105.334a.046.046,0,0,1-.072.051l-.277-.2-.277.2a.047.047,0,0,1-.072-.051l.105-.334-.277-.21a.048.048,0,0,1,.028-.085h.343l.111-.334C110.083,19.689,110.143,19.689,110.16,19.734Z" transform="translate(-104.311 -19.7)"/>
        <path id="Path_12129" data-name="Path 12129" class="cls-3" d="M110.16,50.4l.111.334h.343a.048.048,0,0,1,.028.085l-.277.21.105.334a.046.046,0,0,1-.072.051l-.277-.2-.277.2a.047.047,0,0,1-.072-.051l.105-.334-.277-.21a.048.048,0,0,1,.028-.085h.343l.111-.334C110.083,50.365,110.143,50.365,110.16,50.4Z" transform="translate(-104.311 -48.637)"/>
        <path id="Path_12130" data-name="Path 12130" class="cls-3" d="M110.16,81.034l.111.334h.343a.048.048,0,0,1,.028.085l-.277.21.105.334a.046.046,0,0,1-.072.051l-.277-.2-.277.2a.047.047,0,0,1-.072-.051l.105-.334-.277-.21a.048.048,0,0,1,.028-.085h.343l.111-.334C110.083,80.989,110.143,80.989,110.16,81.034Z" transform="translate(-104.311 -77.527)"/>
        <path id="Path_12131" data-name="Path 12131" class="cls-3" d="M110.16,111.7l.111.334h.343a.048.048,0,0,1,.028.085l-.277.21.105.334a.046.046,0,0,1-.072.051l-.277-.2-.277.2a.047.047,0,0,1-.072-.051l.105-.334-.277-.21a.048.048,0,0,1,.028-.085h.343l.111-.334C110.083,111.665,110.143,111.665,110.16,111.7Z" transform="translate(-104.311 -106.465)"/>
        <path id="Path_12132" data-name="Path 12132" class="cls-3" d="M110.16,142.334l.111.334h.343a.048.048,0,0,1,.028.085l-.277.21.105.334a.046.046,0,0,1-.072.051l-.277-.2-.277.2a.047.047,0,0,1-.072-.051l.105-.334-.277-.21a.048.048,0,0,1,.028-.085h.343l.111-.334C110.083,142.289,110.143,142.289,110.16,142.334Z" transform="translate(-104.311 -135.355)"/>
        <path id="Path_12133" data-name="Path 12133" class="cls-3" d="M133.96,34.734l.111.334h.343a.048.048,0,0,1,.028.085l-.277.21.105.334a.046.046,0,0,1-.072.051l-.277-.2-.277.2a.047.047,0,0,1-.072-.051l.105-.334-.277-.21a.048.048,0,0,1,.028-.085h.343l.111-.334C133.883,34.689,133.943,34.689,133.96,34.734Z" transform="translate(-126.793 -33.85)"/>
        <path id="Path_12134" data-name="Path 12134" class="cls-3" d="M133.96,65.4l.111.334h.343a.048.048,0,0,1,.028.085l-.277.21.105.334a.046.046,0,0,1-.072.051l-.277-.2-.277.2a.047.047,0,0,1-.072-.051l.105-.334-.277-.21a.048.048,0,0,1,.028-.085h.343l.111-.334C133.883,65.365,133.943,65.365,133.96,65.4Z" transform="translate(-126.793 -62.788)"/>
        <path id="Path_12135" data-name="Path 12135" class="cls-3" d="M133.96,96.034l.111.334h.343a.048.048,0,0,1,.028.085l-.277.21.105.334a.046.046,0,0,1-.072.051l-.277-.2-.277.2a.047.047,0,0,1-.072-.051l.105-.334-.277-.21a.048.048,0,0,1,.028-.085h.343l.111-.334C133.883,95.989,133.943,95.989,133.96,96.034Z" transform="translate(-126.793 -91.678)"/>
        <path id="Path_12136" data-name="Path 12136" class="cls-3" d="M133.96,126.734l.111.334h.343a.048.048,0,0,1,.028.085l-.277.21.105.334a.046.046,0,0,1-.072.051l-.277-.2-.277.2a.047.047,0,0,1-.072-.051l.105-.334-.277-.21a.048.048,0,0,1,.028-.085h.343l.111-.334C133.883,126.689,133.943,126.689,133.96,126.734Z" transform="translate(-126.793 -120.639)"/>
        <path id="Path_12137" data-name="Path 12137" class="cls-3" d="M157.66,19.734l.111.334h.343a.048.048,0,0,1,.028.085l-.277.21.105.334a.046.046,0,0,1-.072.051l-.277-.2-.277.2a.047.047,0,0,1-.072-.051l.105-.334-.277-.21a.048.048,0,0,1,.028-.085h.343l.111-.334A.039.039,0,0,1,157.66,19.734Z" transform="translate(-149.181 -19.7)"/>
        <path id="Path_12138" data-name="Path 12138" class="cls-3" d="M157.66,50.4l.111.334h.343a.048.048,0,0,1,.028.085l-.277.21.105.334a.046.046,0,0,1-.072.051l-.277-.2-.277.2a.047.047,0,0,1-.072-.051l.105-.334-.277-.21a.048.048,0,0,1,.028-.085h.343l.111-.334C157.588,50.365,157.649,50.365,157.66,50.4Z" transform="translate(-149.181 -48.637)"/>
        <path id="Path_12139" data-name="Path 12139" class="cls-3" d="M157.66,81.034l.111.334h.343a.048.048,0,0,1,.028.085l-.277.21.105.334a.046.046,0,0,1-.072.051l-.277-.2-.277.2a.047.047,0,0,1-.072-.051l.105-.334-.277-.21a.048.048,0,0,1,.028-.085h.343l.111-.334A.039.039,0,0,1,157.66,81.034Z" transform="translate(-149.181 -77.527)"/>
        <path id="Path_12140" data-name="Path 12140" class="cls-3" d="M157.66,111.7l.111.334h.343a.048.048,0,0,1,.028.085l-.277.21.105.334a.046.046,0,0,1-.072.051l-.277-.2-.277.2a.047.047,0,0,1-.072-.051l.105-.334-.277-.21a.048.048,0,0,1,.028-.085h.343l.111-.334C157.588,111.665,157.649,111.665,157.66,111.7Z" transform="translate(-149.181 -106.465)"/>
        <path id="Path_12141" data-name="Path 12141" class="cls-3" d="M157.66,142.334l.111.334h.343a.048.048,0,0,1,.028.085l-.277.21.105.334a.046.046,0,0,1-.072.051l-.277-.2-.277.2a.047.047,0,0,1-.072-.051l.105-.334-.277-.21a.048.048,0,0,1,.028-.085h.343l.111-.334A.039.039,0,0,1,157.66,142.334Z" transform="translate(-149.181 -135.355)"/>
        <path id="Path_12142" data-name="Path 12142" class="cls-3" d="M181.46,34.734l.111.334h.343a.048.048,0,0,1,.028.085l-.277.21.105.334a.046.046,0,0,1-.072.051l-.277-.2-.277.2a.047.047,0,0,1-.072-.051l.105-.334-.277-.21a.048.048,0,0,1,.028-.085h.343l.111-.334A.039.039,0,0,1,181.46,34.734Z" transform="translate(-171.663 -33.85)"/>
        <path id="Path_12143" data-name="Path 12143" class="cls-3" d="M181.46,65.4l.111.334h.343a.048.048,0,0,1,.028.085l-.277.21.105.334a.046.046,0,0,1-.072.051l-.277-.2-.277.2a.047.047,0,0,1-.072-.051l.105-.334-.277-.21a.048.048,0,0,1,.028-.085h.343l.111-.334C181.388,65.365,181.449,65.365,181.46,65.4Z" transform="translate(-171.663 -62.788)"/>
        <path id="Path_12144" data-name="Path 12144" class="cls-3" d="M181.46,96.034l.111.334h.343a.048.048,0,0,1,.028.085l-.277.21.105.334a.046.046,0,0,1-.072.051l-.277-.2-.277.2a.047.047,0,0,1-.072-.051l.105-.334-.277-.21a.048.048,0,0,1,.028-.085h.343l.111-.334A.039.039,0,0,1,181.46,96.034Z" transform="translate(-171.663 -91.678)"/>
        <path id="Path_12145" data-name="Path 12145" class="cls-3" d="M181.46,126.734l.111.334h.343a.048.048,0,0,1,.028.085l-.277.21.105.334a.046.046,0,0,1-.072.051l-.277-.2-.277.2a.047.047,0,0,1-.072-.051l.105-.334-.277-.21a.048.048,0,0,1,.028-.085h.343l.111-.334A.039.039,0,0,1,181.46,126.734Z" transform="translate(-171.663 -120.639)"/>
        <path id="Path_12146" data-name="Path 12146" class="cls-3" d="M205.26,19.734l.111.334h.343a.048.048,0,0,1,.028.085l-.277.21.105.334a.046.046,0,0,1-.072.051l-.277-.2-.277.2a.047.047,0,0,1-.072-.051l.105-.334-.277-.21a.048.048,0,0,1,.028-.085h.343l.111-.334A.039.039,0,0,1,205.26,19.734Z" transform="translate(-194.145 -19.7)"/>
        <path id="Path_12147" data-name="Path 12147" class="cls-3" d="M205.26,50.4l.111.334h.343a.048.048,0,0,1,.028.085l-.277.21.105.334a.046.046,0,0,1-.072.051l-.277-.2-.277.2a.047.047,0,0,1-.072-.051l.105-.334-.277-.21a.048.048,0,0,1,.028-.085h.343l.111-.334C205.188,50.365,205.249,50.365,205.26,50.4Z" transform="translate(-194.145 -48.637)"/>
        <path id="Path_12148" data-name="Path 12148" class="cls-3" d="M205.26,81.034l.111.334h.343a.048.048,0,0,1,.028.085l-.277.21.105.334a.046.046,0,0,1-.072.051l-.277-.2-.277.2a.047.047,0,0,1-.072-.051l.105-.334-.277-.21a.048.048,0,0,1,.028-.085h.343l.111-.334A.039.039,0,0,1,205.26,81.034Z" transform="translate(-194.145 -77.527)"/>
        <path id="Path_12149" data-name="Path 12149" class="cls-3" d="M205.26,111.7l.111.334h.343a.048.048,0,0,1,.028.085l-.277.21.105.334a.046.046,0,0,1-.072.051l-.277-.2-.277.2a.047.047,0,0,1-.072-.051l.105-.334-.277-.21a.048.048,0,0,1,.028-.085h.343l.111-.334C205.188,111.665,205.249,111.665,205.26,111.7Z" transform="translate(-194.145 -106.465)"/>
        <path id="Path_12150" data-name="Path 12150" class="cls-3" d="M205.26,142.334l.111.334h.343a.048.048,0,0,1,.028.085l-.277.21.105.334a.046.046,0,0,1-.072.051l-.277-.2-.277.2a.047.047,0,0,1-.072-.051l.105-.334-.277-.21a.048.048,0,0,1,.028-.085h.343l.111-.334A.039.039,0,0,1,205.26,142.334Z" transform="translate(-194.145 -135.355)"/>
      </g>
    </g>
  </g>
</svg>
