<svg xmlns="http://www.w3.org/2000/svg" viewBox="-19633 -23838.15 62.762 20.283"><defs><style>.cls-1 {fill: #f5f5f5;}.cls-2 {fill: #ff4b55;}.cls-3 {fill: #41479b;}.cls-4 {fill: #f8f8f8;stroke: #95989a;stroke-width: 0.3px;}</style></defs><g transform="translate(-19633 -23838)"><path class="cls-1" d="M29.976,20H.524A.525.525,0,0,1,0,19.474V.525A.529.529,0,0,1,.524,0H29.97a.525.525,0,0,1,.524.525v18.95A.516.516,0,0,1,29.976,20Z" transform="translate(0 0)"/><g transform="translate(0 0)"><path class="cls-2" d="M30.5,1.538H0V.525A.529.529,0,0,1,.524,0H29.97a.525.525,0,0,1,.524.525L30.5,1.538Z"/><rect class="cls-2" width="30.5" height="1.538" transform="translate(0 6.154)"/><rect class="cls-2" width="30.5" height="1.538" transform="translate(0 3.077)"/><path class="cls-2" d="M30.5,156.338H.524A.525.525,0,0,1,0,155.814V154.8H30.5Z" transform="translate(0 -145.57)"/><rect class="cls-2" width="30.5" height="1.538" transform="translate(0 15.384)"/><path class="cls-2" d="M29.976,311.138H.524A.525.525,0,0,1,0,310.614V309.6H30.5v1.014A.525.525,0,0,1,29.976,311.138Z" transform="translate(0 -291.139)"/><rect class="cls-2" width="30.5" height="1.538" transform="translate(0 12.307)"/></g><path class="cls-3" d="M13.671,0H.524A.529.529,0,0,0,0,.525v9.719a.525.525,0,0,0,.524.525H13.671a.525.525,0,0,0,.524-.525V.525A.525.525,0,0,0,13.671,0Z" transform="translate(0 0)"/><g transform="translate(0.857 1.175)"><path class="cls-1" d="M15,19.736l.119.352h.369a.05.05,0,0,1,.03.089l-.3.221.113.352a.049.049,0,0,1-.077.054l-.3-.215-.3.215a.05.05,0,0,1-.077-.054L14.7,20.4l-.3-.221a.05.05,0,0,1,.03-.089H14.8l.119-.352C14.926,19.688,14.986,19.688,15,19.736Z" transform="translate(-14.383 -19.7)"/><path class="cls-1" d="M15,50.406l.119.352h.369a.05.05,0,0,1,.03.089l-.3.221.113.352a.049.049,0,0,1-.077.054l-.3-.215-.3.215a.05.05,0,0,1-.077-.054l.113-.352-.3-.221a.05.05,0,0,1,.03-.089H14.8l.119-.352C14.926,50.365,14.986,50.365,15,50.406Z" transform="translate(-14.383 -48.546)"/><path class="cls-1" d="M15,81.036l.119.352h.369a.05.05,0,0,1,.03.089l-.3.221.113.352a.049.049,0,0,1-.077.054l-.3-.215-.3.215a.05.05,0,0,1-.077-.054L14.7,81.7l-.3-.221a.05.05,0,0,1,.03-.089H14.8l.119-.352C14.926,80.988,14.986,80.988,15,81.036Z" transform="translate(-14.383 -77.345)"/><path class="cls-1" d="M15,111.706l.119.352h.369a.05.05,0,0,1,.03.089l-.3.221.113.352a.049.049,0,0,1-.077.054l-.3-.215-.3.215a.05.05,0,0,1-.077-.054l.113-.352-.3-.221a.05.05,0,0,1,.03-.089H14.8l.119-.352C14.926,111.665,14.986,111.665,15,111.706Z" transform="translate(-14.383 -106.191)"/><path class="cls-1" d="M15,142.336l.119.352h.369a.05.05,0,0,1,.03.089l-.3.221.113.352a.049.049,0,0,1-.077.054l-.3-.215-.3.215a.05.05,0,0,1-.077-.054L14.7,143l-.3-.221a.05.05,0,0,1,.03-.089H14.8l.119-.352C14.926,142.288,14.986,142.288,15,142.336Z" transform="translate(-14.383 -134.99)"/><path class="cls-1" d="M38.8,34.736l.119.352h.369a.05.05,0,0,1,.03.089l-.3.221.113.352a.049.049,0,0,1-.077.054l-.3-.215-.3.215a.05.05,0,0,1-.077-.054L38.5,35.4l-.3-.221a.05.05,0,0,1,.03-.089H38.6l.119-.352C38.726,34.688,38.786,34.688,38.8,34.736Z" transform="translate(-36.765 -33.806)"/><path class="cls-1" d="M38.8,65.406l.119.352h.369a.05.05,0,0,1,.03.089l-.3.221.113.352a.049.049,0,0,1-.077.054l-.3-.215-.3.215a.05.05,0,0,1-.077-.054l.113-.352-.3-.221a.05.05,0,0,1,.03-.089H38.6l.119-.352C38.726,65.365,38.786,65.365,38.8,65.406Z" transform="translate(-36.765 -62.652)"/><path class="cls-1" d="M38.8,96.036l.119.352h.369a.05.05,0,0,1,.03.089l-.3.221.113.352a.049.049,0,0,1-.077.054l-.3-.215-.3.215a.05.05,0,0,1-.077-.054L38.5,96.7l-.3-.221a.05.05,0,0,1,.03-.089H38.6l.119-.352C38.726,95.988,38.786,95.988,38.8,96.036Z" transform="translate(-36.765 -91.45)"/><path class="cls-1" d="M38.8,126.736l.119.352h.369a.05.05,0,0,1,.03.089l-.3.221.113.352a.049.049,0,0,1-.077.054l-.3-.215-.3.215a.05.05,0,0,1-.077-.054l.113-.352-.3-.221a.05.05,0,0,1,.03-.089H38.6l.119-.352C38.726,126.688,38.786,126.688,38.8,126.736Z" transform="translate(-36.765 -120.32)"/><path class="cls-1" d="M62.6,19.736l.119.352h.369a.05.05,0,0,1,.03.089l-.3.221.113.352a.049.049,0,0,1-.077.054l-.3-.215-.3.215a.05.05,0,0,1-.077-.054L62.3,20.4l-.3-.221a.05.05,0,0,1,.03-.089H62.4l.119-.352C62.52,19.688,62.586,19.688,62.6,19.736Z" transform="translate(-59.148 -19.7)"/><path class="cls-1" d="M62.51,50.406l.119.352H63a.05.05,0,0,1,.03.089l-.3.221.113.352a.049.049,0,0,1-.077.054l-.3-.215-.3.215a.05.05,0,0,1-.077-.054l.113-.352-.3-.221a.05.05,0,0,1,.03-.089H62.3l.119-.352C62.426,50.365,62.492,50.365,62.51,50.406Z" transform="translate(-59.054 -48.546)"/><path class="cls-1" d="M62.6,81.036l.119.352h.369a.05.05,0,0,1,.03.089l-.3.221.113.352a.049.049,0,0,1-.077.054l-.3-.215-.3.215a.05.05,0,0,1-.077-.054L62.3,81.7l-.3-.221a.05.05,0,0,1,.03-.089H62.4l.119-.352C62.52,80.988,62.586,80.988,62.6,81.036Z" transform="translate(-59.148 -77.345)"/><path class="cls-1" d="M62.6,111.706l.119.352h.369a.05.05,0,0,1,.03.089l-.3.221.113.352a.049.049,0,0,1-.077.054l-.3-.215-.3.215a.05.05,0,0,1-.077-.054l.113-.352-.3-.221a.05.05,0,0,1,.03-.089H62.4l.119-.352C62.52,111.665,62.586,111.665,62.6,111.706Z" transform="translate(-59.148 -106.191)"/><path class="cls-1" d="M62.6,142.336l.119.352h.369a.05.05,0,0,1,.03.089l-.3.221.113.352a.049.049,0,0,1-.077.054l-.3-.215-.3.215a.05.05,0,0,1-.077-.054L62.3,143l-.3-.221a.05.05,0,0,1,.03-.089H62.4l.119-.352C62.52,142.288,62.586,142.288,62.6,142.336Z" transform="translate(-59.148 -134.99)"/><path class="cls-1" d="M86.4,34.736l.119.352h.369a.05.05,0,0,1,.03.089l-.3.221.113.352a.049.049,0,0,1-.077.054l-.3-.215-.3.215a.05.05,0,0,1-.077-.054L86.1,35.4l-.3-.221a.05.05,0,0,1,.03-.089H86.2l.119-.352C86.32,34.688,86.386,34.688,86.4,34.736Z" transform="translate(-81.53 -33.806)"/><path class="cls-1" d="M86.4,65.406l.119.352h.369a.05.05,0,0,1,.03.089l-.3.221.113.352a.049.049,0,0,1-.077.054l-.3-.215-.3.215a.05.05,0,0,1-.077-.054l.113-.352-.3-.221a.05.05,0,0,1,.03-.089H86.2l.119-.352C86.32,65.365,86.386,65.365,86.4,65.406Z" transform="translate(-81.53 -62.652)"/><path class="cls-1" d="M86.4,96.036l.119.352h.369a.05.05,0,0,1,.03.089l-.3.221.113.352a.049.049,0,0,1-.077.054l-.3-.215-.3.215a.05.05,0,0,1-.077-.054L86.1,96.7l-.3-.221a.05.05,0,0,1,.03-.089H86.2l.119-.352C86.32,95.988,86.386,95.988,86.4,96.036Z" transform="translate(-81.53 -91.45)"/><path class="cls-1" d="M86.4,126.736l.119.352h.369a.05.05,0,0,1,.03.089l-.3.221.113.352a.049.049,0,0,1-.077.054l-.3-.215-.3.215a.05.05,0,0,1-.077-.054l.113-.352-.3-.221a.05.05,0,0,1,.03-.089H86.2l.119-.352C86.32,126.688,86.386,126.688,86.4,126.736Z" transform="translate(-81.53 -120.32)"/><path class="cls-1" d="M110.2,19.736l.119.352h.369a.05.05,0,0,1,.03.089l-.3.221.113.352a.049.049,0,0,1-.077.054l-.3-.215-.3.215a.05.05,0,0,1-.077-.054l.113-.352-.3-.221a.05.05,0,0,1,.03-.089H110l.119-.352C110.12,19.688,110.186,19.688,110.2,19.736Z" transform="translate(-103.912 -19.7)"/><path class="cls-1" d="M110.2,50.406l.119.352h.369a.05.05,0,0,1,.03.089l-.3.221.113.352a.049.049,0,0,1-.077.054l-.3-.215-.3.215a.05.05,0,0,1-.077-.054l.113-.352-.3-.221a.05.05,0,0,1,.03-.089H110l.119-.352C110.12,50.365,110.186,50.365,110.2,50.406Z" transform="translate(-103.912 -48.546)"/><path class="cls-1" d="M110.2,81.036l.119.352h.369a.05.05,0,0,1,.03.089l-.3.221.113.352a.049.049,0,0,1-.077.054l-.3-.215-.3.215a.05.05,0,0,1-.077-.054l.113-.352-.3-.221a.05.05,0,0,1,.03-.089H110l.119-.352C110.12,80.988,110.186,80.988,110.2,81.036Z" transform="translate(-103.912 -77.345)"/><path class="cls-1" d="M110.2,111.706l.119.352h.369a.05.05,0,0,1,.03.089l-.3.221.113.352a.049.049,0,0,1-.077.054l-.3-.215-.3.215a.05.05,0,0,1-.077-.054l.113-.352-.3-.221a.05.05,0,0,1,.03-.089H110l.119-.352C110.12,111.665,110.186,111.665,110.2,111.706Z" transform="translate(-103.912 -106.191)"/><path class="cls-1" d="M110.2,142.336l.119.352h.369a.05.05,0,0,1,.03.089l-.3.221.113.352a.049.049,0,0,1-.077.054l-.3-.215-.3.215a.05.05,0,0,1-.077-.054L109.9,143l-.3-.221a.05.05,0,0,1,.03-.089H110l.119-.352C110.12,142.288,110.186,142.288,110.2,142.336Z" transform="translate(-103.912 -134.99)"/><path class="cls-1" d="M134,34.736l.119.352h.369a.05.05,0,0,1,.03.089l-.3.221.113.352a.049.049,0,0,1-.077.054l-.3-.215-.3.215a.05.05,0,0,1-.077-.054l.113-.352-.3-.221a.05.05,0,0,1,.03-.089h.369l.119-.352C133.92,34.688,133.986,34.688,134,34.736Z" transform="translate(-126.294 -33.806)"/><path class="cls-1" d="M134,65.406l.119.352h.369a.05.05,0,0,1,.03.089l-.3.221.113.352a.049.049,0,0,1-.077.054l-.3-.215-.3.215a.05.05,0,0,1-.077-.054l.113-.352-.3-.221a.05.05,0,0,1,.03-.089h.369l.119-.352C133.92,65.365,133.986,65.365,134,65.406Z" transform="translate(-126.294 -62.652)"/><path class="cls-1" d="M134,96.036l.119.352h.369a.05.05,0,0,1,.03.089l-.3.221.113.352a.049.049,0,0,1-.077.054l-.3-.215-.3.215a.05.05,0,0,1-.077-.054l.113-.352-.3-.221a.05.05,0,0,1,.03-.089h.369l.119-.352C133.92,95.988,133.986,95.988,134,96.036Z" transform="translate(-126.294 -91.45)"/><path class="cls-1" d="M134,126.736l.119.352h.369a.05.05,0,0,1,.03.089l-.3.221.113.352a.049.049,0,0,1-.077.054l-.3-.215-.3.215a.05.05,0,0,1-.077-.054l.113-.352-.3-.221a.05.05,0,0,1,.03-.089h.369l.119-.352C133.92,126.688,133.986,126.688,134,126.736Z" transform="translate(-126.294 -120.32)"/><path class="cls-1" d="M157.7,19.736l.119.352h.369a.05.05,0,0,1,.03.089l-.3.221.113.352a.049.049,0,0,1-.077.054l-.3-.215-.3.215a.05.05,0,0,1-.077-.054l.113-.352-.3-.221a.05.05,0,0,1,.03-.089h.369l.119-.352A.042.042,0,0,1,157.7,19.736Z" transform="translate(-148.583 -19.7)"/><path class="cls-1" d="M157.7,50.406l.119.352h.369a.05.05,0,0,1,.03.089l-.3.221.113.352a.049.049,0,0,1-.077.054l-.3-.215-.3.215a.05.05,0,0,1-.077-.054l.113-.352-.3-.221a.05.05,0,0,1,.03-.089h.369l.119-.352C157.626,50.365,157.692,50.365,157.7,50.406Z" transform="translate(-148.583 -48.546)"/><path class="cls-1" d="M157.7,81.036l.119.352h.369a.05.05,0,0,1,.03.089l-.3.221.113.352a.049.049,0,0,1-.077.054l-.3-.215-.3.215a.05.05,0,0,1-.077-.054l.113-.352-.3-.221a.05.05,0,0,1,.03-.089h.369l.119-.352A.042.042,0,0,1,157.7,81.036Z" transform="translate(-148.583 -77.345)"/><path class="cls-1" d="M157.7,111.706l.119.352h.369a.05.05,0,0,1,.03.089l-.3.221.113.352a.049.049,0,0,1-.077.054l-.3-.215-.3.215a.05.05,0,0,1-.077-.054l.113-.352-.3-.221a.05.05,0,0,1,.03-.089h.369l.119-.352C157.626,111.665,157.692,111.665,157.7,111.706Z" transform="translate(-148.583 -106.191)"/><path class="cls-1" d="M157.7,142.336l.119.352h.369a.05.05,0,0,1,.03.089l-.3.221.113.352a.049.049,0,0,1-.077.054l-.3-.215-.3.215a.05.05,0,0,1-.077-.054L157.4,143l-.3-.221a.05.05,0,0,1,.03-.089h.369l.119-.352A.042.042,0,0,1,157.7,142.336Z" transform="translate(-148.583 -134.99)"/><path class="cls-1" d="M181.5,34.736l.119.352h.369a.05.05,0,0,1,.03.089l-.3.221.113.352a.049.049,0,0,1-.077.054l-.3-.215-.3.215a.05.05,0,0,1-.077-.054l.113-.352-.3-.221a.05.05,0,0,1,.03-.089h.369l.119-.352A.042.042,0,0,1,181.5,34.736Z" transform="translate(-170.965 -33.806)"/><path class="cls-1" d="M181.5,65.406l.119.352h.369a.05.05,0,0,1,.03.089l-.3.221.113.352a.049.049,0,0,1-.077.054l-.3-.215-.3.215a.05.05,0,0,1-.077-.054l.113-.352-.3-.221a.05.05,0,0,1,.03-.089h.369l.119-.352C181.426,65.365,181.492,65.365,181.5,65.406Z" transform="translate(-170.965 -62.652)"/><path class="cls-1" d="M181.5,96.036l.119.352h.369a.05.05,0,0,1,.03.089l-.3.221.113.352a.049.049,0,0,1-.077.054l-.3-.215-.3.215a.05.05,0,0,1-.077-.054l.113-.352-.3-.221a.05.05,0,0,1,.03-.089h.369l.119-.352A.042.042,0,0,1,181.5,96.036Z" transform="translate(-170.965 -91.45)"/><path class="cls-1" d="M181.5,126.736l.119.352h.369a.05.05,0,0,1,.03.089l-.3.221.113.352a.049.049,0,0,1-.077.054l-.3-.215-.3.215a.05.05,0,0,1-.077-.054l.113-.352-.3-.221a.05.05,0,0,1,.03-.089h.369l.119-.352A.042.042,0,0,1,181.5,126.736Z" transform="translate(-170.965 -120.32)"/><path class="cls-1" d="M205.3,19.736l.119.352h.369a.05.05,0,0,1,.03.089l-.3.221.113.352a.049.049,0,0,1-.077.054l-.3-.215-.3.215a.05.05,0,0,1-.077-.054L205,20.4l-.3-.221a.05.05,0,0,1,.03-.089h.369l.119-.352A.042.042,0,0,1,205.3,19.736Z" transform="translate(-193.347 -19.7)"/><path class="cls-1" d="M205.3,50.406l.119.352h.369a.05.05,0,0,1,.03.089l-.3.221.113.352a.049.049,0,0,1-.077.054l-.3-.215-.3.215a.05.05,0,0,1-.077-.054l.113-.352-.3-.221a.05.05,0,0,1,.03-.089h.369l.119-.352C205.226,50.365,205.292,50.365,205.3,50.406Z" transform="translate(-193.347 -48.546)"/><path class="cls-1" d="M205.3,81.036l.119.352h.369a.05.05,0,0,1,.03.089l-.3.221.113.352a.049.049,0,0,1-.077.054l-.3-.215-.3.215a.05.05,0,0,1-.077-.054L205,81.7l-.3-.221a.05.05,0,0,1,.03-.089h.369l.119-.352A.042.042,0,0,1,205.3,81.036Z" transform="translate(-193.347 -77.345)"/><path class="cls-1" d="M205.3,111.706l.119.352h.369a.05.05,0,0,1,.03.089l-.3.221.113.352a.049.049,0,0,1-.077.054l-.3-.215-.3.215a.05.05,0,0,1-.077-.054l.113-.352-.3-.221a.05.05,0,0,1,.03-.089h.369l.119-.352C205.226,111.665,205.292,111.665,205.3,111.706Z" transform="translate(-193.347 -106.191)"/><path class="cls-1" d="M205.3,142.336l.119.352h.369a.05.05,0,0,1,.03.089l-.3.221.113.352a.049.049,0,0,1-.077.054l-.3-.215-.3.215a.05.05,0,0,1-.077-.054L205,143l-.3-.221a.05.05,0,0,1,.03-.089h.369l.119-.352A.042.042,0,0,1,205.3,142.336Z" transform="translate(-193.347 -134.99)"/></g></g><g transform="translate(-19600.889 -23838)"><g transform="translate(0 0)"><g transform="translate(0 0)"><path class="cls-4" d="M29.982,19.984H.524A.525.525,0,0,1,0,19.459V.524A.529.529,0,0,1,.524,0H29.976A.525.525,0,0,1,30.5.524V19.459A.516.516,0,0,1,29.982,19.984Z" transform="translate(0)"/><ellipse class="cls-2" cx="5.785" cy="5.785" rx="5.785" ry="5.785" transform="translate(9.468 4.206)"/></g></g></g></svg>
