<svg width="939" height="464" xmlns="http://www.w3.org/2000/svg"><g fill="none" fill-rule="evenodd"><path d="M938.5.5v463H.5V.5h938z" stroke="#95989A" fill="#FFF" fill-rule="nonzero"/><text font-family="Helvetica" font-size="12" fill="#000" transform="translate(348 410)"><tspan x="35" y="11">Number of Employees and Contractors</tspan></text><path d="M349 411h23a1 1 0 011 1v12h-25v-12a1 1 0 011-1z" fill="#E98024"/><path d="M69 354h830v2H69v-2zm0-44h830v2H69v-2zm0-44h830v2H69v-2zm0-44h830v2H69v-2zm0-44h830v2H69v-2zm0-44h830v2H69v-2zm0-44h830v2H69v-2zm0-44h830v2H69v-2z" fill="#DEDEDE" fill-rule="nonzero"/><g fill="#E98024"><path d="M119 353h23a1 1 0 011 1h-25a1 1 0 011-1zM156 342h23a1 1 0 011 1v11h-25v-11a1 1 0 011-1zM193 341h23a1 1 0 011 1v12h-25v-12a1 1 0 011-1zM230 336h23a1 1 0 011 1v17h-25v-17a1 1 0 011-1zM267 327h23a1 1 0 011 1v26h-25v-26a1 1 0 011-1zM304 333h23a1 1 0 011 1v20h-25v-20a1 1 0 011-1zM341 335h23a1 1 0 011 1v18h-25v-18a1 1 0 011-1zM378 326h23a1 1 0 011 1v27h-25v-27a1 1 0 011-1zM415 321h23a1 1 0 011 1v32h-25v-32a1 1 0 011-1zM452 318h23a1 1 0 011 1v35h-25v-35a1 1 0 011-1zM489 321h23a1 1 0 011 1v32h-25v-32a1 1 0 011-1zM526 323h23a1 1 0 011 1v30h-25v-30a1 1 0 011-1zM563 326h23a1 1 0 011 1v27h-25v-27a1 1 0 011-1zM600 315h23a1 1 0 011 1v38h-25v-38a1 1 0 011-1zM637 302h23a1 1 0 011 1v51h-25v-51a1 1 0 011-1zM674 277h23a1 1 0 011 1v76h-25v-76a1 1 0 011-1zM711 242h23a1 1 0 011 1v111h-25V243a1 1 0 011-1zM748 237h23a1 1 0 011 1v116h-25V238a1 1 0 011-1zM785 166h23a1 1 0 011 1v187h-25V167a1 1 0 011-1zM822 118h23a1 1 0 011 1v235h-25V119a1 1 0 011-1zM859 53h23a1 1 0 011 1v300h-25V54a1 1 0 011-1z"/></g><g fill="#000" font-family="Helvetica" font-size="12"><text transform="translate(80 364)"><tspan x="0" y="11">1999</tspan></text><text transform="translate(80 364)"><tspan x="37" y="11">2000</tspan></text><text transform="translate(80 364)"><tspan x="74" y="11">2001</tspan></text><text transform="translate(80 364)"><tspan x="111" y="11">2002</tspan></text><text transform="translate(80 364)"><tspan x="148" y="11">2003</tspan></text><text transform="translate(80 364)"><tspan x="185" y="11">2004</tspan></text><text transform="translate(80 364)"><tspan x="222" y="11">2005</tspan></text><text transform="translate(80 364)"><tspan x="259" y="11">2006</tspan></text><text transform="translate(80 364)"><tspan x="296" y="11">2007</tspan></text><text transform="translate(80 364)"><tspan x="333" y="11">2008</tspan></text><text transform="translate(80 364)"><tspan x="370" y="11">2009</tspan></text><text transform="translate(80 364)"><tspan x="407" y="11">2010</tspan></text><text transform="translate(80 364)"><tspan x="444" y="11">2011</tspan></text><text transform="translate(80 364)"><tspan x="480" y="11">2012</tspan></text><text transform="translate(80 364)"><tspan x="517" y="11">2013</tspan></text><text transform="translate(80 364)"><tspan x="554" y="11">2014</tspan></text><text transform="translate(80 364)"><tspan x="591" y="11">2015</tspan></text><text transform="translate(80 364)"><tspan x="628" y="11">2016</tspan></text><text transform="translate(80 364)"><tspan x="665" y="11">2017</tspan></text><text transform="translate(80 364)"><tspan x="702" y="11">2018</tspan></text><text transform="translate(80 364)"><tspan x="739" y="11">2019</tspan></text><text transform="translate(80 364)"><tspan x="776" y="11">2020</tspan></text></g><g fill="#000" font-family="Helvetica" font-size="12"><text fill-rule="nonzero" transform="translate(40 40)"><tspan x=".979" y="11">400</tspan></text><text fill-rule="nonzero" transform="translate(40 40)"><tspan x=".979" y="55">300</tspan></text><text fill-rule="nonzero" transform="translate(40 40)"><tspan x=".979" y="99">250</tspan></text><text fill-rule="nonzero" transform="translate(40 40)"><tspan x=".979" y="143">200</tspan></text><text fill-rule="nonzero" transform="translate(40 40)"><tspan x=".979" y="187">150</tspan></text><text fill-rule="nonzero" transform="translate(40 40)"><tspan x=".979" y="231">100</tspan></text><text fill-rule="nonzero" transform="translate(40 40)"><tspan x="7.652" y="275">50</tspan></text><text transform="translate(40 40)"><tspan x="14.326" y="319">0</tspan></text></g></g></svg>