<svg width="1032" height="508" xmlns="http://www.w3.org/2000/svg"><g fill="none" fill-rule="evenodd"><path d="M1031.5.5v507H.5V.5h1031z" stroke="#95989A" fill="#FFF" fill-rule="nonzero"/><text font-family="Helvetica" font-size="12" fill="#000" transform="translate(397 454)"><tspan x="35" y="11">Number of transactions on Binary.com</tspan></text><path d="M398 455h23a1 1 0 011 1v12h-25v-12a1 1 0 011-1z" fill="#E98024"/><path d="M125 398h867v2H125v-2zm0-44h867v2H125v-2zm0-44h867v2H125v-2zm0-44h867v2H125v-2zm0-44h867v2H125v-2zm0-44h867v2H125v-2zm0-44h867v2H125v-2zm0-44h867v2H125v-2zm0-44h867v2H125v-2z" fill="#DEDEDE" fill-rule="nonzero"/><path d="M360 397h23a1 1 0 011 1h-25a1 1 0 011-1zM397 397h23a1 1 0 011 1h-25a1 1 0 011-1zM434 397h23a1 1 0 011 1h-25a1 1 0 011-1zM471 397h23a1 1 0 011 1h-25a1 1 0 011-1zM508 397h23a1 1 0 011 1h-25a1 1 0 011-1zM545 397h23a1 1 0 011 1h-25a1 1 0 011-1zM582 396h23a1 1 0 011 1v1h-25v-1a1 1 0 011-1zM619 395h23a1 1 0 011 1v2h-25v-2a1 1 0 011-1zM656 388h23a1 1 0 011 1v9h-25v-9a1 1 0 011-1zM693 382h23a1 1 0 011 1v15h-25v-15a1 1 0 011-1zM730 358h23a1 1 0 011 1v39h-25v-39a1 1 0 011-1zM767 360h23a1 1 0 011 1v37h-25v-37a1 1 0 011-1zM804 342h23a1 1 0 011 1v55h-25v-55a1 1 0 011-1zM841 344h23a1 1 0 011 1v53h-25v-53a1 1 0 011-1zM878 303h23a1 1 0 011 1v94h-25v-94a1 1 0 011-1zM915 200h23a1 1 0 011 1v197h-25V201a1 1 0 011-1z" fill="#E98024"/><path d="M952 58h23a1 1 0 011 1v339h-25V59a1 1 0 011-1z" fill="#F4BF91"/><text transform="rotate(-90 813 19.5)" font-family="Helvetica" font-size="12" fill="#FFF"><tspan x="579" y="174">Projected</tspan></text><g fill="#000" font-family="Helvetica" font-size="12"><text transform="translate(136 408)"><tspan x="0" y="11">1999</tspan></text><text transform="translate(136 408)"><tspan x="37" y="11">2000</tspan></text><text transform="translate(136 408)"><tspan x="74" y="11">2001</tspan></text><text transform="translate(136 408)"><tspan x="111" y="11">2002</tspan></text><text transform="translate(136 408)"><tspan x="148" y="11">2003</tspan></text><text transform="translate(136 408)"><tspan x="185" y="11">2004</tspan></text><text transform="translate(136 408)"><tspan x="222" y="11">2005</tspan></text><text transform="translate(136 408)"><tspan x="259" y="11">2006</tspan></text><text transform="translate(136 408)"><tspan x="296" y="11">2007</tspan></text><text transform="translate(136 408)"><tspan x="333" y="11">2008</tspan></text><text transform="translate(136 408)"><tspan x="370" y="11">2009</tspan></text><text transform="translate(136 408)"><tspan x="407" y="11">2010</tspan></text><text transform="translate(136 408)"><tspan x="444" y="11">2011</tspan></text><text transform="translate(136 408)"><tspan x="480" y="11">2012</tspan></text><text transform="translate(136 408)"><tspan x="517" y="11">2013</tspan></text><text transform="translate(136 408)"><tspan x="554" y="11">2014</tspan></text><text transform="translate(136 408)"><tspan x="591" y="11">2015</tspan></text><text transform="translate(136 408)"><tspan x="628" y="11">2016</tspan></text><text transform="translate(136 408)"><tspan x="665" y="11">2017</tspan></text><text transform="translate(136 408)"><tspan x="702" y="11">2018</tspan></text><text transform="translate(136 408)"><tspan x="739" y="11">2019</tspan></text><text transform="translate(136 408)"><tspan x="776" y="11">2020</tspan></text><text transform="translate(136 408)"><tspan x="813" y="11">2021</tspan></text></g><g fill="#000" font-family="Helvetica" font-size="12"><text fill-rule="nonzero" transform="translate(40 40)"><tspan x=".26" y="11">1,200,000,000</tspan></text><text fill-rule="nonzero" transform="translate(40 40)"><tspan x=".26" y="55">1,050,000,000</tspan></text><text fill-rule="nonzero" transform="translate(40 40)"><tspan x="10.268" y="99">900,000,000</tspan></text><text fill-rule="nonzero" transform="translate(40 40)"><tspan x="10.268" y="143">750,000,000</tspan></text><text fill-rule="nonzero" transform="translate(40 40)"><tspan x="10.268" y="187">600,000,000</tspan></text><text fill-rule="nonzero" transform="translate(40 40)"><tspan x="10.268" y="231">450,000,000</tspan></text><text fill-rule="nonzero" transform="translate(40 40)"><tspan x="10.268" y="275">300,000,000</tspan></text><text fill-rule="nonzero" transform="translate(40 40)"><tspan x="10.268" y="319">150,000,000</tspan></text><text transform="translate(40 40)"><tspan x="70.326" y="363">0</tspan></text></g></g></svg>