<svg xmlns="http://www.w3.org/2000/svg" width="155" height="92" viewBox="0 0 155 92"><path fill="#F6F6F6" d="M3.333 3.434h148.333v77.27H3.333z"/><text transform="translate(34.715 29.437)" fill="#E98025" font-family="'ProximaNova-Bold'" font-size="24.837">Affiliate</text><path fill="#2F8942" d="M139.16 65.582c0 2.2-1.8 4-4 4H21.336c-2.2 0-4-1.8-4-4v-23.91c0-2.2 1.8-4 4-4H135.16c2.2 0 4 1.8 4 4v23.91z"/><text transform="translate(35.141 58.684)" fill="#fff" font-family="'ProximaNova-Bold'" font-size="15.308">SIGN ME UP</text><path fill="#fff" d="M144.37 87.61l.567-2.493.114-.066.296-.536.694-3.133.118-.083.206-.518-.005-8-.202-.07L144.9 71.6l-1.932-.717-.4-.398-.627-.253-2.933-.847-.54-.29-2.302-.556-.158-1.578-.478-3.5-.127-.157-1.684-.502-.785.503-.315.35-.538 10.538-.875-.044-.207-.244-2.493-.398-.375.576.135 2.025.25.33 1.097 1.227.934 2.088.173.38.822 1.915.286.523.904 2.168.203.315.844 2.657 10.59.074z"/><path fill="#414042" d="M145.05 88.566h-12.115V85.05h1.107v2.41h9.902v-2.41h1.107v3.516zM132.935 85.05h-1.107V82.57h1.107v2.483zM131.828 82.568h-1.107V80.13h1.108v2.438zM130.72 80.13h-1.106v-2.468h1.107v2.47zM129.614 77.662h-1.107v-1.226h1.107v1.226zM128.517 76.436h-1.107V72.8H131v1.108h-2.483v2.528zM132.885 75.01H131v-1.108h1.885v1.108zM132.935 76.81h-1.107V63.302h1.107V76.81zM136.51 74.313h-1.107v-11.01h1.107v11.01zM135.403 63.303h-2.468v-1.108h2.468v1.108zM139.007 69.383h-3.215v-1.108h3.215v1.108zM140.115 74.19h-1.108v-4.807h3.576v1.107h-2.468v3.7zM143.69 75.277h-1.107V70.49h2.318v1.108h-1.21v3.68zM146.158 72.71H144.9v-1.106h1.258v1.107zM147.264 81.297h-1.106V72.71h1.106v8.587zM146.158 85.05h-1.107v-3.753h1.108v3.754z"/></svg>