<svg xmlns="http://www.w3.org/2000/svg" width="148" height="131.322" viewBox="0 0 148 131.322"><path fill="#E6E7E8" d="M10.41 2.834H111.15V103.57H10.41z"/><path fill="#2A3052" d="M10.41 2.834H111.15v9.86H10.41zM10.41 87.154H111.15v16.416H10.41z"/><path fill="none" stroke="#D1D3D4" d="M15.52 15.98h19.436M15.52 18.41h19.436M15.52 20.84h19.436M15.52 23.27h19.436M89.4 50.21h14.188M89.4 52.64h14.188M89.4 55.07h14.188M89.4 57.498h14.188M15.52 25.698h19.436"/><g fill="none" stroke="#D1D3D4"><path stroke-width=".5" d="M16.158 72.988h19.436"/><path stroke-width="3" d="M16.158 76.707h19.436"/><path stroke-width=".5" d="M16.158 80.037h19.436M16.158 80.857h19.436"/></g><g fill="none" stroke="#D1D3D4"><path stroke-width=".5" d="M38.287 72.988h19.435"/><path stroke-width="3" d="M38.287 76.707h19.435"/><path stroke-width=".5" d="M38.287 80.037h19.435M38.287 80.857h19.435"/></g><g fill="none" stroke="#D1D3D4"><path stroke-width=".5" d="M62.024 72.988H81.46"/><path stroke-width="3" d="M62.024 76.707H81.46"/><path stroke-width=".5" d="M62.024 80.037H81.46M62.024 80.857H81.46"/></g><g fill="none" stroke="#D1D3D4"><path stroke-width=".5" d="M84.152 72.988h19.436"/><path stroke-width="3" d="M84.152 76.707h19.436"/><path stroke-width=".5" d="M84.152 80.037h19.436M84.152 80.857h19.436"/></g><path fill="#D1D3D4" d="M74.378 16.523v22.454H41.065V16.523h33.313m1-1H40.065v24.454h35.313V15.523zM47.506 48.233v17.322H33.674V48.233h13.832m1-1H32.674v19.322h15.832V47.233zM65.71 48.233v17.322H51.878V48.233H65.71m1-1H50.878v19.322H66.71V47.233zM84.05 48.233v17.322H70.22V48.233h13.83m1-1H69.22v19.322h15.83V47.233zM30.266 48.233v7.056H16.52v-7.057h13.746m1-1H15.52v9.056h15.746v-9.057zM30.266 58.498v7.057H16.52v-7.057h13.746m1-1H15.52v9.057h15.746v-9.057z"/><path fill="#E88024" d="M79.758 12.695h23.725v18.432H79.758z"/><path fill="#2F8942" d="M95.818 6.673h7.664v2.28h-7.664zM91.77 60.47h9.445v3.113H91.77zM29.997 82.643h12.99v3.113h-12.99zM76.41 82.643H89.4v3.113H76.41z"/><path fill="#F1F2F2" d="M86.967 6.673h7.665v2.28h-7.665zM78.663 6.673h7.665v2.28h-7.665z"/><path fill="none" stroke="#D1D3D4" stroke-width=".5" d="M10.41 45.682H111.15"/><path fill="none" stroke="#D1D3D4" stroke-width="2" d="M10.41 69.77H111.15M15.52 7.765h10.95"/><path fill="#F1F2F2" d="M44.263 27.75H145V128.49H44.263z"/><path fill="#8DC63F" d="M44.263 27.75H145v9.862H44.263z"/><path fill="#6D6E71" d="M44.263 112.072H145v16.416H44.263z"/><path fill="none" stroke="#D1D3D4" d="M49.373 40.897h19.435M49.373 43.327h19.435M49.373 45.756h19.435M49.373 48.186h19.435M123.25 75.127h14.19M123.25 77.557h14.19M123.25 79.984h14.19M123.25 82.414h14.19M49.373 50.615h19.435"/><g fill="none" stroke="#D1D3D4"><path stroke-width=".5" d="M50.01 97.904h19.436"/><path stroke-width="3" d="M50.01 101.623h19.436"/><path stroke-width=".5" d="M50.01 104.953h19.436M50.01 105.775h19.436"/></g><g fill="none" stroke="#D1D3D4"><path stroke-width=".5" d="M72.14 97.904h19.433"/><path stroke-width="3" d="M72.14 101.623h19.433"/><path stroke-width=".5" d="M72.14 104.953h19.433M72.14 105.775h19.433"/></g><g fill="none" stroke="#D1D3D4"><path stroke-width=".5" d="M95.876 97.904h19.436"/><path stroke-width="3" d="M95.876 101.623h19.436"/><path stroke-width=".5" d="M95.876 104.953h19.436M95.876 105.775h19.436"/></g><g fill="none" stroke="#D1D3D4"><path stroke-width=".5" d="M118.004 97.904h19.435"/><path stroke-width="3" d="M118.004 101.623h19.435"/><path stroke-width=".5" d="M118.004 104.953h19.435M118.004 105.775h19.435"/></g><path fill="#D1D3D4" d="M73.917 40.44h35.313v24.455H73.917z"/><path fill="#E6E7E8" d="M49.807 72.15H65.64v19.32H49.806zM73.94 72.15h15.832v19.32H73.94zM97.68 72.15h15.83v19.32H97.68z"/><path fill="#00AEEF" d="M113.61 37.612h23.725v18.432H113.61zM129.67 31.59h7.665v2.28h-7.664z"/><path fill="#EF4136" d="M125.623 85.387h9.444V88.5h-9.444z"/><path fill="#00AEEF" d="M63.85 107.56h12.987v3.114H63.85zM110.262 107.56h12.988v3.114h-12.988z"/><path fill="#F1F2F2" d="M120.82 31.59h7.664v2.28h-7.665zM112.516 31.59h7.665v2.28h-7.664z"/><path fill="none" stroke="#E6E7E8" stroke-width=".25" d="M44.263 68.174H145"/><path fill="none" stroke="#D1D3D4" stroke-width="2" d="M44.263 94.688H145M49.373 32.682h10.95"/><g fill="none" stroke="#E98025" stroke-width="5"><path d="M5.903 53.324S-12.22 88.05 42.098 95.48M36.927 84.77l8.532 10.666-10.665 8.53"/></g></svg>