<svg xmlns="http://www.w3.org/2000/svg" width="69" height="57" viewBox="0 0 69 57"><g fill="none" fill-rule="evenodd" transform="translate(3 4)"><ellipse cx="47.758" cy="19" fill="#2A3052" fill-rule="nonzero" rx="3.048" ry="3"/><path stroke="#2A3052" stroke-width="4.032" d="M40.645 6l10.161-6v7.52A19.13 19.13 0 0 1 57.574 16H63v14h-5.446a19.144 19.144 0 0 1-8.78 9.74V50H38.613v-8H26.419v8H16.26V39.74c-6.686-3.517-10.66-10.557-10.164-18a16.918 16.918 0 0 1 5.446-12.1A15.68 15.68 0 0 1 21.948 6h18.697z"/><path stroke="#2A3052" stroke-width="4.032" d="M6.34 20c-2.688.008-5.147-1.49-6.34-3.86V16m30.484 20V12m8.129 8c0-2.21-1.82-4-4.065-4H26.42c-2.244 0-4.064 1.79-4.064 4s1.82 4 4.064 4h8.13c2.244 0 4.064 1.79 4.064 4s-1.82 4-4.065 4H26.42c-2.244 0-4.064-1.79-4.064-4"/></g></svg>