<svg xmlns="http://www.w3.org/2000/svg" width="134" height="98" viewBox="0 0 134 98"><g fill="none" fill-rule="evenodd"><path stroke="#2A3052" stroke-width="2.565" d="M8.75 27.099h7.67v18.47h6.872V2.472H16.42v18.47H8.75V2.472H2V45.57h6.75V27.1zm19.45 18.47h6.75V2.472H28.2V45.57zm21.783-17.855h3.068v7.942c0 3.079-1.35 4.187-3.497 4.187-2.148 0-3.498-1.108-3.498-4.187V12.384c0-3.078 1.35-4.248 3.498-4.248 2.147 0 3.497 1.17 3.497 4.248v4.618h6.382v-4.187c0-6.895-3.436-10.835-10.063-10.835-6.627 0-10.064 3.94-10.064 10.835v22.41c0 6.896 3.437 10.836 10.064 10.836 6.627 0 10.063-3.94 10.063-10.835V21.558h-9.45v6.156zM70.54 27.1h7.67v18.47h6.873V2.472H78.21v18.47h-7.67V2.472h-6.75V45.57h6.75V27.1z"/><path stroke="#C03" stroke-width="2.612" d="M123.601 25.706a.325.325 0 0 0-.182.294v20.06h-19.005V26a.325.325 0 0 0-.183-.293.312.312 0 0 0-.336.043l-8.06 6.846V22.033l18.082-15.155L132 22.033v10.563l-8.062-6.846a.314.314 0 0 0-.337-.044z"/><path stroke="#2A3052" stroke-width="2.565" d="M5.91 95.528h17.849V89.37H12.657V52.43H5.91v43.097zm26.988-33.184v23.272c0 3.078 1.349 4.248 3.496 4.248 2.147 0 3.496-1.17 3.496-4.248V62.344c0-3.079-1.35-4.249-3.496-4.249-2.147 0-3.496 1.17-3.496 4.249zm-6.747 22.84v-22.41c0-6.895 3.618-10.835 10.243-10.835 6.624 0 10.243 3.94 10.243 10.835v22.41c0 6.896-3.619 10.836-10.243 10.836-6.625 0-10.243-3.94-10.243-10.835zm42.26 10.344h8.955L82.15 52.43h-5.888l-3.435 34.231h-.122l-3.313-34.23h-6.501L59.7 86.415h-.122L56.02 52.431h-6.563l4.785 43.097h9.261l2.392-22.964h.123l2.392 22.964z"/><path stroke="#29ABE2" stroke-width="2.612" d="M119.692 72.294a.325.325 0 0 1-.183-.294V51.94h-19.005V72c0 .126-.07.24-.182.293a.312.312 0 0 1-.337-.043l-8.06-6.846v10.562l18.083 15.155 18.082-15.155V65.404l-8.062 6.846a.314.314 0 0 1-.337.044z"/><path fill="#29ABE2" d="M91.925 94.061h37.143V97H91.925z"/><path fill="#C03" d="M94.857 1H132v2.939H94.857z"/></g></svg>