<svg xmlns="http://www.w3.org/2000/svg" width="248" height="162" viewBox="0 0 248 162"><g fill="none" fill-rule="evenodd" transform="translate(1 1)"><path fill="#F4F4F6" fill-rule="nonzero" stroke="#D2D3DB" stroke-width="2" d="M.75 0h245v160H.75z"/><path stroke="#D2D3DB" d="M3 44.188h241.5M3 77.563h241.5M3 110.938h241.5M3 144.313h241.5M32.164 27.5V159M62.719 27.5V159M93.273 27.5V159m30.555-131.5V159m30.555-131.5V159M3 94.25h241.5M215.492 27.5V159"/><path stroke="#293052" stroke-linejoin="round" d="M3 60.875h241.5M3 127.625h241.5M184.937 27.5V159"/><path fill="#F1F1F2" fill-rule="nonzero" stroke="#D2D3DB" stroke-width="2" d="M1.25 26.5h245"/><path fill="#231F20" fill-rule="nonzero" d="M19.541 14h-3.533v2.432h4.131v1.318H14.3V9.219h5.83v1.318h-4.122v2.145h3.533V14zm3.07-2.59l.076.908c.196-.31.463-.57.779-.756a2.023 2.023 0 0 1 1.037-.27 1.907 1.907 0 0 1 1.5.6c.404.544.596 1.217.539 1.893v3.965h-1.716v-3.964a1.288 1.288 0 0 0-.258-.907 1.036 1.036 0 0 0-.779-.267 1.254 1.254 0 0 0-1.06.528v4.61h-1.711v-6.34h1.593zm4.946 3.223a4.12 4.12 0 0 1 .647-2.42 2.1 2.1 0 0 1 1.825-.92c.298-.004.592.066.855.205.263.144.49.344.668.586V8.609h1.718v9.141H31.8l-.141-.773a2.1 2.1 0 0 1-.706.668 1.877 1.877 0 0 1-.935.229 2.144 2.144 0 0 1-1.813-.855 3.653 3.653 0 0 1-.647-2.262l-.001-.124zm1.705.124c-.023.456.074.91.281 1.317a.98.98 0 0 0 .914.48c.224.005.446-.046.645-.15a1.2 1.2 0 0 0 .451-.439v-2.717a1.322 1.322 0 0 0-.448-.469 1.188 1.188 0 0 0-.636-.168.965.965 0 0 0-.917.56c-.211.457-.31.959-.29 1.462v.124zm8.638.005h-3.3v-1.319h3.3v1.319zm3.344 2.988h-1.711V9.219h1.711v8.531zm3.129-6.34l.076.908c.196-.31.463-.57.779-.756a2.023 2.023 0 0 1 1.037-.27 1.907 1.907 0 0 1 1.5.6c.404.544.596 1.217.539 1.893v3.965h-1.716v-3.964a1.288 1.288 0 0 0-.258-.907 1.036 1.036 0 0 0-.779-.267 1.254 1.254 0 0 0-1.06.528v4.61h-1.712v-6.34h1.594zM215.2 14.307h2.288v.968H215.2v3.333h-.99v-3.334h-2.332v-.968h2.332v-1.375h-2.05v-.957h2.046V8.52h.99v3.455h2.058v.957H215.2v1.375zm-2.311-2.7a10.2 10.2 0 0 0-.748-2.233l.836-.264c.35.702.623 1.44.814 2.2l-.902.297zm4.563-2.307c-.316.788-.672 1.56-1.067 2.311l-.8-.242c.359-.75.65-1.53.869-2.333l.998.264zm1.386 6.612h-.99V9.84h.99v6.072zM221.5 8.74v8.581c0 .638-.153.935-.539 1.122a6.43 6.43 0 0 1-2.068.176 4.751 4.751 0 0 0-.362-1.045c.748.033 1.44.022 1.661.022.221 0 .286-.077.286-.275V8.74h1.022zm6.952 8.625c.514.069 1.032.102 1.551.1.473 0 2.321 0 2.948-.022-.19.319-.32.669-.385 1.034h-2.618c-2.156 0-3.741-.363-4.742-2.09a5.61 5.61 0 0 1-1.551 2.289 5.546 5.546 0 0 0-.848-.7c1.21-.9 1.771-2.442 2-4.368l1.056.1c-.062.485-.15.966-.264 1.441.285.877.94 1.585 1.793 1.937V12.81h-2.541v-.979h6.193v.979h-2.6v1.618h3.156v.957h-3.146l-.002 1.98zm-4.1-5.126h-1V9.708h4.027V8.531h1.089v1.177h4.07v2.53h-1.045v-1.562h-7.141v1.563z"/><path stroke="#293052" stroke-linecap="round" stroke-linejoin="round" stroke-width="3" d="M32.164 94.25L56.75 77.563 75.5 89.417 100 39.094l28.25 60.656 26.133-22.187 30.804 8.187"/><path fill="#293052" fill-rule="nonzero" d="M206.343 75.223h-3.11v2.246h3.608v.952h-4.795v-7.109h4.761v.952h-3.574v2.007h3.11v.952zm2.422-2.085l.068.762a1.9 1.9 0 0 1 .651-.633c.27-.153.576-.231.887-.227.481-.027.95.155 1.287.5.343.445.507 1.001.461 1.561v3.32h-1.187v-3.31a1.185 1.185 0 0 0-.247-.848 1.008 1.008 0 0 0-.749-.251 1.25 1.25 0 0 0-.62.153 1.3 1.3 0 0 0-.449.423v3.833h-1.187v-5.283h1.085zm4.37 2.715a3.488 3.488 0 0 1 .542-2.039c.34-.504.916-.797 1.523-.773.267-.005.53.055.769.174.231.12.433.291.589.5V70.8h1.187v7.617h-1l-.117-.654a1.762 1.762 0 0 1-.61.564 1.725 1.725 0 0 1-.83.192 1.8 1.8 0 0 1-1.514-.708 2.978 2.978 0 0 1-.542-1.86l.003-.098zm1.187.1c-.02.408.077.813.28 1.167a.983.983 0 0 0 .892.435c.224.007.445-.049.638-.161.18-.113.327-.272.427-.459v-2.3a1.251 1.251 0 0 0-.43-.457 1.166 1.166 0 0 0-.625-.163.956.956 0 0 0-.894.511 2.7 2.7 0 0 0-.288 1.33v.097zm6.978-.08h-2.56v-.953h2.56v.953zm2.406 2.548h-1.186v-7.109h1.187l-.001 7.109zm2.544-5.283l.068.762a1.89 1.89 0 0 1 .652-.633c.27-.153.576-.231.886-.227.48-.027.95.155 1.286.5.342.444.506 1.001.458 1.56v3.32h-1.187v-3.309a1.19 1.19 0 0 0-.246-.848 1.011 1.011 0 0 0-.75-.251c-.216-.003-.43.05-.62.153a1.292 1.292 0 0 0-.449.423v3.833h-1.187v-5.283h1.089z"/><path fill="#231F20" fill-rule="nonzero" d="M17.67 54.275v.74h-8.9v-.74h3.728v-7.754h.779v3.058h3.718v.74h-3.722v3.957l4.397-.001zm4.454-7.215c-.31.84-.719 1.859-1.1 2.639a2.91 2.91 0 0 1 .989 2.148c.07.43-.087.865-.413 1.153-.17.105-.361.17-.56.19a4.516 4.516 0 0 1-.74.01 1.622 1.622 0 0 0-.19-.68c.216.026.433.033.65.021a.917.917 0 0 0 .35-.09.8.8 0 0 0 .23-.68 2.773 2.773 0 0 0-1-1.979c.32-.72.649-1.639.89-2.318h-1.465v8.016h-.7v-8.7h2.449l.12-.03.49.3zm5.437 4.8a13.9 13.9 0 0 1-1.609 1.309 4.293 4.293 0 0 0 1.859 1.68 2.4 2.4 0 0 0-.49.609 6.118 6.118 0 0 1-2.858-4.247h-1.08v3.078c.61-.12 1.259-.25 1.9-.38l.05.64c-1.25.29-2.579.579-3.548.8l-.24-.72c.32-.061.7-.13 1.12-.21V46.8h4.478v4.408H25.1c.132.497.316.98.55 1.438.474-.364.918-.765 1.329-1.2l.582.414zm-4.178-4.4v1.219H26.4V47.46h-3.017zm0 3.088H26.4v-1.239h-3.017v1.239zm7.681-2.528l.89.18c-.06.22-.14.51-.18.729a22.2 22.2 0 0 1-.909 3.118c-.388.968-.88 1.89-1.465 2.753l-.85-.36a13.09 13.09 0 0 0 1.539-2.719c.479-1.188.806-2.431.975-3.701zm2.489.159l.81-.27a32.2 32.2 0 0 1 1.459 3.158c.41.989.939 2.519 1.2 3.418l-.889.29A29.928 29.928 0 0 0 35 51.338a25.625 25.625 0 0 0-1.447-3.159zm2.818.131l-.54.239a11.475 11.475 0 0 0-.81-1.389l.53-.221c.305.438.578.896.82 1.371zm1.12-.41l-.54.24a9.465 9.465 0 0 0-.83-1.38l.53-.22c.311.433.592.888.84 1.36zm2.583-.68c-.02.189-.03.479-.03.72v3.338c0 .25.01.58.03.76h-.919c.01-.15.04-.47.04-.77v-3.329c0-.18-.02-.53-.04-.72l.919.001zm4.627-.07c-.02.24-.04.53-.04.859v1.619c0 2.4-.32 3.188-1.04 4.048a5.334 5.334 0 0 1-2.378 1.46l-.65-.69a4.6 4.6 0 0 0 2.4-1.329c.719-.829.839-1.639.839-3.527v-1.58c0-.329-.03-.619-.05-.859l.919-.001zm10.099.82c-.07.1-.2.249-.27.359a9.648 9.648 0 0 1-2.489 2.759l-.66-.53a6.741 6.741 0 0 0 2.179-2.238h-5.685c-.38 0-.761.02-1.14.06v-.9c.378.047.759.074 1.14.08h5.737c.234-.004.468-.024.7-.06l.488.47zm-3.988 1.318c0 2.709-.24 4.538-2.788 5.808l-.73-.6c.314-.108.613-.256.89-.44 1.549-.949 1.769-2.378 1.769-4.048a5.968 5.968 0 0 0-.04-.72h.899zm-37.399 88.139v1.778l.13-.149a24.657 24.657 0 0 1 3.548 2.068l-.52.67a22.877 22.877 0 0 0-3.158-1.989v5.258h-.79v-7.636H8.806v-.74h8.825v.74h-4.218zm8.711-.781c-.31.84-.719 1.859-1.1 2.639a2.91 2.91 0 0 1 .989 2.148c.069.428-.086.861-.41 1.149-.17.105-.361.17-.56.19a4.516 4.516 0 0 1-.74.01 1.622 1.622 0 0 0-.19-.68c.216.026.433.033.65.021a.917.917 0 0 0 .35-.09.8.8 0 0 0 .23-.68 2.773 2.773 0 0 0-1-1.979c.32-.72.649-1.639.89-2.318h-1.468v8.016h-.7v-8.7h2.449l.12-.03.49.304zm5.437 4.8a13.9 13.9 0 0 1-1.609 1.309 4.293 4.293 0 0 0 1.859 1.68 2.4 2.4 0 0 0-.49.609 6.118 6.118 0 0 1-2.858-4.247h-1.08v3.078c.61-.12 1.259-.25 1.9-.38l.05.64c-1.25.29-2.579.579-3.548.8l-.24-.72c.32-.061.7-.13 1.12-.21v-7.616h4.478v4.408H25.1c.132.497.316.98.55 1.438.474-.364.918-.765 1.329-1.2l.582.411zm-4.178-4.4v1.219H26.4v-1.219h-3.017zm0 3.088H26.4V138.9h-3.017v1.234zm7.681-2.528l.89.18c-.06.22-.14.51-.18.729a22.2 22.2 0 0 1-.909 3.118c-.39.966-.882 1.888-1.469 2.749l-.85-.36a13.09 13.09 0 0 0 1.539-2.719c.48-1.186.809-2.429.979-3.697zm2.489.159l.81-.27a32.2 32.2 0 0 1 1.459 3.158c.41.989.939 2.519 1.2 3.418l-.889.29A29.928 29.928 0 0 0 35 140.925a25.625 25.625 0 0 0-1.447-3.159v-.001zm2.818.131l-.54.239a11.475 11.475 0 0 0-.81-1.389l.53-.221c.305.439.579.898.82 1.375v-.004zm1.12-.41l-.54.24a9.465 9.465 0 0 0-.83-1.38l.53-.22c.311.433.592.888.84 1.36zm2.583-.679c-.02.189-.03.479-.03.72v3.338c0 .25.01.58.03.76h-.919c.01-.15.04-.47.04-.77v-3.328c0-.18-.02-.53-.04-.72h.919zm4.627-.07c-.02.24-.04.53-.04.859v1.619c0 2.4-.32 3.188-1.04 4.048a5.334 5.334 0 0 1-2.378 1.46l-.65-.69a4.6 4.6 0 0 0 2.4-1.329c.719-.829.839-1.639.839-3.527V137.6c0-.329-.03-.619-.05-.859l.919-.004zm10.099.82c-.07.1-.2.249-.27.359a9.648 9.648 0 0 1-2.489 2.759l-.66-.53a6.741 6.741 0 0 0 2.179-2.238h-5.685c-.38 0-.761.02-1.14.06v-.9c.378.047.759.074 1.14.08h5.737c.234-.004.468-.024.7-.06l.488.47zm-3.988 1.318c0 2.709-.24 4.538-2.788 5.808l-.73-.6c.314-.108.613-.256.89-.44 1.549-.949 1.769-2.378 1.769-4.048a5.968 5.968 0 0 0-.04-.72h.899zm-37.085-30.529v7.785h-.719v-1.809c-1.259.21-2.539.4-3.488.56l-.13-.75c.28-.029.61-.069.969-.119v-5.667h-.78v-.689h4.847v.689h-.699zm-.719 0h-1.95v1.329h1.949l.001-1.329zm0 1.988h-1.95v1.39h1.949l.001-1.39zm-1.949 3.578c.61-.08 1.279-.18 1.949-.279V112.4h-1.95l.001 1.512zm7.306-5.406a12.15 12.15 0 0 1-1.619 5.066 5.552 5.552 0 0 0 2.059 1.859 3.09 3.09 0 0 0-.53.609 6.256 6.256 0 0 1-1.989-1.809 7.151 7.151 0 0 1-2.039 1.779 2.87 2.87 0 0 0-.49-.6 6.091 6.091 0 0 0 2.1-1.849 13.937 13.937 0 0 1-1.489-4.268l.71-.13c.22 1.289.634 2.536 1.229 3.7a10.947 10.947 0 0 0 1.239-3.738h-3.369v-.725h3.568l.14-.03.48.136zm5.741 3.328s-.01.239-.02.34c-.18 2.358-.35 3.288-.709 3.628a.963.963 0 0 1-.79.319c-.526.022-1.053.015-1.579-.02a1.689 1.689 0 0 0-.26-.76c.66.06 1.319.069 1.569.069a.582.582 0 0 0 .44-.109c.24-.21.41-.979.54-2.778h-2.629c-.04.17-.08.329-.11.479l-.729-.12c.2-.829.439-2.148.58-3.158h2.918v-1.579h-3.258v-.7h3.988v2.979h-3.009c-.08.47-.16.959-.25 1.409l3.308.001zm3.418-4.7v9.016h-.74v-9.016h.74zM32.7 114.2h-2.152v.81h-.68v-7.326H32.7v6.516zm-2.149-5.847v2.219H32v-2.219h-1.449zM32 113.532v-2.309h-1.452v2.309H32zm5.4-2.732v1.13h1.159v.659H37.4v2.679c0 .42-.11.64-.41.75a5.739 5.739 0 0 1-1.619.12 2.285 2.285 0 0 0-.24-.69c.62.021 1.169.021 1.329.011.16-.01.22-.051.22-.2v-2.669h-3.773v-.659h3.778V110.8h-3.828v-.659h2.508v-1.27h-2.078v-.659h2.079v-1.189h.73v1.189h2.148v.659H36.1v1.27h2.578v.659H37.4zm-3.288 2.14a7.06 7.06 0 0 1 1.3 1.7l-.63.4a7.688 7.688 0 0 0-1.269-1.759l.599-.341zm6.556 2.131a1.1 1.1 0 0 0 .1-.489v-5.717a7.731 7.731 0 0 0-.08-.909h.979a6.438 6.438 0 0 0-.07.909v5.667a10.782 10.782 0 0 0 5.467-3.408l.45.7a11.626 11.626 0 0 1-5.847 3.568c-.149.037-.29.098-.42.18l-.579-.501zm8.161-4.007c.3.02.83.05 1.389.05H55.7c.5 0 .859-.03 1.079-.05v.979c-.2-.01-.62-.05-1.069-.05h-5.492c-.55 0-1.08.021-1.389.05v-.979zm15.536 1.759a26.163 26.163 0 0 0-3.928-1.609l.01 3.3c0 .394.02.788.06 1.18h-.959c.041-.392.061-.786.06-1.18V108.7a6.289 6.289 0 0 0-.08-1.039h.979c-.03.31-.07.739-.07 1.039v1.629c1.46.449 2.886 1 4.268 1.649l-.34.845z"/><ellipse cx="7.187" cy="7.364" fill="#FFF" fill-rule="nonzero" opacity=".6" rx="6.756" ry="6.943" transform="translate(178 78)"/><ellipse cx="185.187" cy="85.364" stroke="#E88024" stroke-width="2" rx="6.756" ry="6.943"/><ellipse cx="7.164" cy="7.25" fill="#FFF" fill-rule="nonzero" opacity=".6" rx="6.756" ry="6.943" transform="translate(25 87)"/><ellipse cx="32.164" cy="94.25" stroke="#E88024" stroke-width="2" rx="6.756" ry="6.943"/><path fill="#231F20" fill-rule="nonzero" d="M193.392 104.252c.46-.47 1.29-1.52 1.949-2.3.56-.66 1.029-.729 1.789-.09a23.42 23.42 0 0 1 2.059 2.049c.67.72 1.709 1.829 2.429 2.678l-.829.9c-.67-.86-1.579-1.919-2.2-2.639a26.455 26.455 0 0 0-1.909-2.009c-.379-.32-.539-.32-.849.069-.45.55-1.24 1.6-1.67 2.149-.21.289-.439.609-.6.839l-.929-.939c.268-.228.468-.428.76-.707zm6.587-3.878a1.25 1.25 0 1 1 0 2.5 1.25 1.25 0 0 1 0-2.5zm0 1.948a.689.689 0 1 0 0-1.378.689.689 0 0 0 0 1.378zm7.951 4.548a7.5 7.5 0 0 0 .069 1.18h-1.239c.04-.392.061-.786.061-1.18v-3.558a19.166 19.166 0 0 1-3.618 1.469l-.57-.97a15.7 15.7 0 0 0 4.508-1.818 10.926 10.926 0 0 0 2.608-2.239l.85.77a16.643 16.643 0 0 1-2.668 2.149l-.001 4.197zm12.187-5.946c-.09.109-.25.3-.33.419a9.887 9.887 0 0 1-2.448 2.759l-.83-.67a6.213 6.213 0 0 0 2.039-2.068h-5.486c-.391 0-.74.03-1.17.06v-1.109a8.81 8.81 0 0 0 1.17.09h5.587c.281 0 .562-.023.839-.069l.629.588zm-4.038 1.329c0 2.608-.149 4.527-2.778 5.877l-.919-.75a3.81 3.81 0 0 0 .959-.49c1.43-.919 1.659-2.179 1.659-3.838a4.45 4.45 0 0 0-.06-.8l1.139.001zm12.889-.63a3.824 3.824 0 0 0-.17.68 9.3 9.3 0 0 1-.959 2.929 6.375 6.375 0 0 1-4.008 2.908l-.819-.949c.41-.07.812-.181 1.2-.33a5.138 5.138 0 0 0 2.519-1.879 6.932 6.932 0 0 0 .919-2.759h-5.316v1.639c-.003.22.01.441.04.66h-1.09c.021-.21.04-.5.04-.72v-1.749c.002-.27-.012-.54-.04-.81.322.033.646.05.97.05h2.179v-.859a4.544 4.544 0 0 0-.07-.829h1.21a7.287 7.287 0 0 0-.061.829v.859h2.02a2.2 2.2 0 0 0 .749-.1l.687.43zm7.041 3.608a26.526 26.526 0 0 0-3.778-1.56v3.088c.003.427.03.854.08 1.279h-1.229c.053-.424.08-.851.08-1.279v-5.776a7.276 7.276 0 0 0-.09-1.119h1.228c-.03.329-.07.77-.07 1.119v1.56c1.443.44 2.855.975 4.228 1.6l-.449 1.088z"/><path fill="#6D6E70" fill-rule="nonzero" d="M194.327 40.9c.479-.49 1.349-1.6 1.979-2.339.53-.63.939-.7 1.659-.1.73.649 1.42 1.34 2.069 2.068.669.72 1.688 1.81 2.418 2.669l-.649.709c-.7-.9-1.609-1.929-2.249-2.658a26.822 26.822 0 0 0-1.948-2.028c-.42-.351-.56-.34-.9.079-.48.58-1.319 1.68-1.77 2.229-.21.26-.43.569-.579.77l-.73-.74c.25-.221.44-.4.7-.659zm6.536-3.928a1.214 1.214 0 1 1-.012 2.43 1.214 1.214 0 0 1 .012-2.431v.001zm0 1.948a.73.73 0 1 0-.018-1.458.73.73 0 0 0 .018 1.457v.001zm10.537-1.939a15.74 15.74 0 0 1-2.679 2.169v4.277c-.005.357.015.715.06 1.069h-.981c.041-.355.061-.712.061-1.069V39.65a20.059 20.059 0 0 1-3.759 1.559l-.459-.779c1.575-.38 3.081-1 4.467-1.839a11.023 11.023 0 0 0 2.629-2.209l.661.599zm9.522.45c-.069.1-.2.249-.27.359a9.645 9.645 0 0 1-2.488 2.759l-.66-.53a6.731 6.731 0 0 0 2.179-2.238H214c-.38 0-.761.02-1.14.06v-.9c.378.047.759.074 1.14.08h5.737c.234-.004.468-.024.7-.06l.485.47zm-3.987 1.318c0 2.709-.24 4.538-2.788 5.808l-.73-.6c.314-.108.614-.256.89-.44 1.55-.949 1.77-2.378 1.77-4.048a5.968 5.968 0 0 0-.04-.72h.898zm12.828-.628a6.4 6.4 0 0 0-.15.6 9.165 9.165 0 0 1-.979 3 6.325 6.325 0 0 1-3.957 2.839l-.65-.75a5.38 5.38 0 0 0 1.04-.279 5.274 5.274 0 0 0 2.708-2.01c.518-.895.842-1.89.95-2.918h-5.587v1.789c-.003.197.01.395.04.59h-.87c.02-.21.03-.42.03-.63V38.59a6.624 6.624 0 0 0-.03-.77c.31.03.62.043.93.04h2.209v-.93c0-.25-.017-.501-.05-.75h.959a4.486 4.486 0 0 0-.06.75v.93h2.238a1.98 1.98 0 0 0 .689-.08l.54.341zm7.171 3.498a26.184 26.184 0 0 0-3.928-1.609l.01 3.3c0 .394.02.788.06 1.18h-.959c.041-.392.061-.786.06-1.18v-5.819a6.236 6.236 0 0 0-.08-1.039h.979c-.029.31-.069.739-.069 1.039v1.629c1.46.449 2.886 1 4.268 1.649l-.341.85zm-24.86 8.571c-.586.166-1.184.287-1.789.36a17.78 17.78 0 0 1-2.159 4.188l-.779-.4a14.236 14.236 0 0 0 2.119-3.7c-.29.02-.58.03-.87.03-.369 0-.779-.011-1.149-.03l-.06-.75c.405.05.812.074 1.22.07.35 0 .719-.02 1.1-.05.164-.557.269-1.13.311-1.709l.889.08c-.1.359-.229.959-.39 1.528a9.976 9.976 0 0 0 1.539-.359l.018.742zm1.159 1.149a9.61 9.61 0 0 0-.01 1.069c.01.36.05 1.01.069 1.609a6.668 6.668 0 0 1 2.049 1.239l-.43.68a6.855 6.855 0 0 0-1.589-1.129c.01.149.01.289.01.4 0 .79-.52 1.439-1.738 1.439-1.09 0-1.979-.45-1.979-1.43 0-.909.859-1.5 1.979-1.5.315-.001.63.029.939.09-.03-.81-.08-1.779-.1-2.469l.8.002zm-.67 3.169a3.6 3.6 0 0 0-1-.141c-.729 0-1.209.33-1.209.78s.369.77 1.139.77c.81 0 1.08-.45 1.08-.939.001-.13.001-.29-.01-.47zm2.639-2.9c-.7-.536-1.458-.992-2.259-1.359l.39-.62c.81.37 1.587.812 2.319 1.319l-.45.66zm3.613-3.177c-.05.32-.08.67-.1.989-.04 1.12-.12 3.458-.12 4.938 0 1.09.7 1.47 1.619 1.47a4.135 4.135 0 0 0 3.558-2.049l.55.689a4.932 4.932 0 0 1-4.128 2.179c-1.419 0-2.4-.6-2.4-2.209 0-1.469.1-3.968.1-5.018a5.043 5.043 0 0 0-.09-1l1.011.011zM194.327 138.9c.479-.49 1.349-1.6 1.979-2.339.53-.63.939-.7 1.659-.1.73.649 1.42 1.34 2.069 2.068.669.72 1.688 1.81 2.418 2.669l-.649.709c-.7-.9-1.609-1.929-2.249-2.658a26.822 26.822 0 0 0-1.948-2.028c-.42-.351-.56-.34-.9.079-.48.58-1.319 1.68-1.77 2.229-.21.26-.43.569-.579.77l-.73-.74c.25-.22.44-.4.7-.659zm6.536-3.928a1.214 1.214 0 1 1-.012 2.428 1.214 1.214 0 0 1 .012-2.428zm0 1.948a.73.73 0 1 0-.018-1.46.73.73 0 0 0 .018 1.46zm10.537-1.939a15.74 15.74 0 0 1-2.679 2.169v4.277c-.005.357.015.715.06 1.069h-.981c.041-.355.061-.712.061-1.069v-3.777a20.059 20.059 0 0 1-3.759 1.559l-.459-.779c1.575-.38 3.081-1 4.467-1.839a11.023 11.023 0 0 0 2.629-2.209l.661.599zm9.522.451c-.069.1-.2.249-.27.359a9.645 9.645 0 0 1-2.488 2.759l-.66-.53a6.731 6.731 0 0 0 2.179-2.238H214c-.38 0-.761.02-1.14.06v-.9c.378.047.759.074 1.14.08h5.737c.234-.004.468-.024.7-.06l.485.47zm-3.987 1.318c0 2.709-.24 4.538-2.788 5.808l-.73-.6c.314-.108.614-.256.89-.44 1.55-.949 1.77-2.378 1.77-4.048a5.968 5.968 0 0 0-.04-.72h.898zm12.828-.629a6.4 6.4 0 0 0-.15.6 9.165 9.165 0 0 1-.979 3 6.325 6.325 0 0 1-3.957 2.839l-.65-.75a5.38 5.38 0 0 0 1.04-.279 5.274 5.274 0 0 0 2.708-2.01c.518-.895.842-1.89.95-2.918h-5.587v1.789c-.003.197.01.395.04.59h-.87c.02-.21.03-.42.03-.63v-1.759a6.624 6.624 0 0 0-.03-.77c.31.03.62.043.93.04h2.209v-.93c0-.25-.017-.501-.05-.75h.959a4.486 4.486 0 0 0-.06.75v.93h2.238a1.98 1.98 0 0 0 .689-.08l.54.338zm7.171 3.498a26.184 26.184 0 0 0-3.928-1.609l.01 3.3c0 .394.02.788.06 1.18h-.959c.041-.392.061-.786.06-1.18v-5.816a6.236 6.236 0 0 0-.08-1.039h.979c-.029.31-.069.739-.069 1.039v1.629c1.46.449 2.886 1 4.268 1.649l-.341.847zm-24.86 8.571c-.586.166-1.184.287-1.789.36a17.78 17.78 0 0 1-2.159 4.188l-.779-.4a14.236 14.236 0 0 0 2.119-3.7c-.29.02-.58.03-.87.03-.369 0-.779-.011-1.149-.03l-.06-.75c.405.05.812.074 1.22.07.35 0 .719-.02 1.1-.05.164-.557.269-1.13.311-1.709l.889.08c-.1.359-.229.959-.39 1.528a9.976 9.976 0 0 0 1.539-.359l.018.742zm1.159 1.149a9.61 9.61 0 0 0-.01 1.069c.01.36.05 1.01.069 1.609a6.668 6.668 0 0 1 2.049 1.239l-.43.68a6.855 6.855 0 0 0-1.589-1.129c.01.149.01.289.01.4 0 .79-.52 1.439-1.738 1.439-1.09 0-1.979-.45-1.979-1.43 0-.909.859-1.5 1.979-1.5.315-.001.63.029.939.09-.03-.81-.08-1.779-.1-2.469l.8.002zm-.67 3.169a3.6 3.6 0 0 0-1-.141c-.729 0-1.209.33-1.209.78s.369.77 1.139.77c.81 0 1.08-.45 1.08-.939a6.67 6.67 0 0 0-.01-.469v-.001zm2.639-2.9c-.7-.536-1.458-.992-2.259-1.359l.39-.62c.81.37 1.587.812 2.319 1.319l-.45.66zm3.613-3.176c-.05.32-.08.67-.1.989-.04 1.12-.12 3.458-.12 4.938 0 1.09.7 1.47 1.619 1.47a4.135 4.135 0 0 0 3.558-2.049l.55.689a4.932 4.932 0 0 1-4.128 2.179c-1.419 0-2.4-.6-2.4-2.209 0-1.469.1-3.968.1-5.018a5.043 5.043 0 0 0-.09-1l1.011.011z"/></g></svg>