<svg xmlns="http://www.w3.org/2000/svg" width="185" height="50" viewBox="0 0 185 50"><g fill="none" fill-rule="evenodd"><path fill="#FEFEFE" d="M42 7.855c-9.596-9.618-25.206-9.618-34.803-.003-9.596 9.613-9.596 25.257 0 34.87 9.597 9.618 25.212 9.616 34.802-.001 9.608-9.612 9.608-25.256 0-34.866"/><path fill="#293052" d="M17.74 31.754s.282 2.115 2.06 3.095l-.473-.884s.905-2.38-1.587-2.21"/><path fill="#293052" d="M25.6 17.048c1.912.682 2.527 2.722 2.527 2.722-2.432.555-1.92-1.931-1.92-1.931l-.606-.791zm12.793 22.06c-.25.245-.494.483-.746.712-5.49 4.482-9.717 2.252-9.766 2.252-2.866-.574-4.288-.582-5.092-1.12-.202-.136-.85-.485-1-.4-.585.348-1.39.528-2.217-.132a3.131 3.131 0 0 1-.206-.188c-.913-.911-.603-1.85-.3-2.177.21-.214-.16-.815-.16-.815s-1.076-1.6-1.81-2.564c-.81-1.058-.921-3.156-.93-3.185l-.011-.03c-.818-.972-.903-1.272-1.186-1.746-.165-.28-.418-.543-.633-.77a4.008 4.008 0 0 1-.382-.419c-.02-.028-.026-.069-.018-.133.075-.455 1.05-1.457 1.26-1.596.26-.168 1.37-.844 1.37-.844s.625-.985 1.689-.985c.96.006 1.545-.053 3.2.488l.688.218c1.153.37 2.17.807 2.978 1.157.686.296 1.235.535 1.656.646 1.427.375 3.945-.782 4.476-1.27.87-.794 1.247-1.326 1.252-1.762.007-.245-.1-.459-.348-.718-.129-.118-.294-.339-.501-.55-.033-.032-.068-.07-.11-.1-2.416-2.57-1.998-4.183-1.995-4.209.103-1.156-.558-1.898-1.27-2.668l-.116-.144a.882.882 0 0 1-.082-.093c1.028.168 1.729.583 3.739.807 1.14.123.78.112 1.692.09 1.257-.04 2.252-.15 2.32-.436-.122-.104-.678.03-3.345-.99-1.236-.475-1.431-.545-2.216-.805a32.135 32.135 0 0 1-2.103-.813c4.351 1.143 5.775 1.591 7.766 1.619a6.255 6.255 0 0 0 1.497-.134c.283-.051 1.162-.25 1.262-.555.03-.053-.843.143-2.458-.39-5.08-1.682-5.512-2.523-8.328-3.62-.983-.382-1.302-.592-4.268-1.36-1.36-.35-3.415-.148-3.695.028-3.85-.907-4.725-.809-5.855-.565C21.625 4 31.8 4.872 38.393 11.474a19.946 19.946 0 0 1 2.378 2.885l.093.14c2.114 3.171 3.243 6.894 3.243 10.791 0 5.22-2.03 10.123-5.714 13.819zm2.362-30.006C31.843.172 17.353.172 8.443 9.1c-8.909 8.926-8.909 23.451 0 32.379 8.91 8.927 23.405 8.924 32.312-.002 8.92-8.926 8.92-23.451 0-32.375z"/><text fill="#2A3052" font-family="PingFangSC-Regular, PingFang SC" font-size="8.5" transform="translate(63.386 9.09)"><tspan x=".114" y="31.159">店頭通貨バイナリーオプション</tspan></text><path fill="#2A3052" d="M91.035 13.636c1.38 0 2.465.45 3.221 1.334.754.875 1.138 2.062 1.138 3.523v7.87h-3.18v-7.037c0-.865-.196-1.533-.579-1.984-.377-.45-.908-.668-1.621-.668-.7 0-1.253.228-1.684.698-.43.467-.647 1.14-.647 2v6.992h-3.177V13.886h3.177v1.36c.061-.072.123-.144.185-.21a4.227 4.227 0 0 1 1.877-1.215 4.204 4.204 0 0 1 1.29-.185zm11.239 10.181c-.57 0-1.054-.136-1.436-.403-.352-.248-.526-.602-.526-1.08v-.045c0-.48.192-.849.583-1.127.419-.295 1.02-.444 1.789-.444a7.057 7.057 0 0 1 2.372.39v.49c0 .33-.066.632-.196.896-.135.269-.33.504-.569.696a2.96 2.96 0 0 1-.892.463 3.727 3.727 0 0 1-1.125.164m.542-10.18c-.96 0-1.791.09-2.47.274-.676.183-1.349.428-1.992.729l-.208.1.873 2.648.25-.107a11.413 11.413 0 0 1 1.503-.525 6.606 6.606 0 0 1 1.674-.192c.84 0 1.49.195 1.926.585.407.361.618.869.638 1.554a10.895 10.895 0 0 0-1.104-.264c-.495-.091-1.103-.137-1.81-.137-.681 0-1.328.08-1.915.242-.6.163-1.125.42-1.562.758-.441.344-.791.78-1.038 1.297-.248.52-.372 1.131-.372 1.822v.046c0 .632.121 1.203.362 1.69a3.6 3.6 0 0 0 .955 1.224c.39.323.854.572 1.373.737a5.429 5.429 0 0 0 1.638.246c.903 0 1.684-.175 2.325-.52a5.49 5.49 0 0 0 1.129-.8v1.073h3.106v-7.243c0-1.64-.44-2.938-1.31-3.854-.868-.92-2.203-1.384-3.97-1.384m22.691 8.477l-3.123-8.477h-3.4l4.958 12.36c-.191.434-.387.735-.586.891-.207.165-.465.245-.794.245-.251 0-.495-.04-.728-.114a4.18 4.18 0 0 1-.718-.314l-.239-.132-1.114 2.547.21.116c.42.239.866.425 1.317.562a5.56 5.56 0 0 0 1.56.203 4.3 4.3 0 0 0 1.333-.194 3.326 3.326 0 0 0 1.102-.634 4.42 4.42 0 0 0 .892-1.109c.255-.438.506-.984.746-1.623l4.764-12.803h-3.33l-2.85 8.476z"/><path fill="#E37F26" d="M146.711 22.132c-.42.411-.876.752-1.347 1.012-.447.25-.984.378-1.59.378-.49 0-.942-.093-1.347-.276a3.346 3.346 0 0 1-1.055-.749 3.352 3.352 0 0 1-.69-1.113 3.884 3.884 0 0 1-.244-1.374v-.045c0-.468.08-.921.243-1.35a3.43 3.43 0 0 1 .67-1.105c.28-.304.62-.553 1.013-.739.385-.18.815-.272 1.273-.272.65 0 1.198.126 1.633.374.458.26.89.602 1.3 1.01l.196.195 2.063-2.165-.163-.174a6.973 6.973 0 0 0-2.049-1.52c-.785-.386-1.781-.583-2.955-.583a6.67 6.67 0 0 0-2.602.509 6.571 6.571 0 0 0-2.074 1.375 6.342 6.342 0 0 0-1.854 4.491v.045c0 .857.168 1.68.49 2.448a6.188 6.188 0 0 0 1.364 2.011 6.577 6.577 0 0 0 2.064 1.35c.79.33 1.66.499 2.589.499 1.21 0 2.227-.217 3.023-.641a7.835 7.835 0 0 0 2.096-1.641l.17-.181-2.034-1.946-.183.177zm9.485 1.392c-.463 0-.895-.092-1.284-.276a3.237 3.237 0 0 1-1.019-.76 3.674 3.674 0 0 1-.913-2.476v-.046c0-.47.075-.925.222-1.355.147-.423.363-.79.638-1.096a3.153 3.153 0 0 1 1.008-.74 3.03 3.03 0 0 1 1.304-.275c.482 0 .921.092 1.31.276.395.183.735.436 1.021.75.284.314.512.69.67 1.114.16.43.241.888.241 1.37v.046c0 .469-.073.921-.22 1.342a3.4 3.4 0 0 1-.64 1.102c-.28.311-.617.56-1.005.747a3.097 3.097 0 0 1-1.333.277m4.547-8.026a6.113 6.113 0 0 0-2.012-1.364 6.384 6.384 0 0 0-2.535-.498c-.912 0-1.762.173-2.534.509a6.296 6.296 0 0 0-3.34 3.393 6.343 6.343 0 0 0-.487 2.473v.045c0 .857.16 1.68.472 2.447a6.13 6.13 0 0 0 1.328 2.012 6.294 6.294 0 0 0 2.009 1.354c.77.326 1.615.495 2.508.495.91 0 1.77-.172 2.55-.51a6.29 6.29 0 0 0 2.018-1.372 6.438 6.438 0 0 0 1.333-2.021 6.245 6.245 0 0 0 .485-2.45v-.045c0-.873-.16-1.701-.473-2.462a6.303 6.303 0 0 0-1.322-2.006m20.609-.591c-.761-.842-1.834-1.27-3.178-1.27-.92 0-1.726.207-2.404.618a6.02 6.02 0 0 0-1.494 1.301 3.983 3.983 0 0 0-1.226-1.293c-.61-.415-1.37-.626-2.247-.626-.458 0-.885.062-1.265.185a3.76 3.76 0 0 0-1.029.502 4.63 4.63 0 0 0-.799.699c-.062.066-.116.133-.172.2v-1.337h-3.185v12.478h3.185V19.39c0-.86.205-1.54.614-2.016.406-.472.93-.7 1.6-.7.669 0 1.172.213 1.53.65.368.445.554 1.111.554 1.977v7.06h3.185V19.37c0-.89.206-1.573.618-2.023.412-.455.934-.674 1.597-.674.668 0 1.172.214 1.53.651.364.445.553 1.12.553 2v7.037h3.181V18.47c-.001-1.526-.384-2.723-1.148-3.563"/><path fill="#2A3052" d="M79.969 26.364h2.722V13.636h-2.722zM81.328 9.09a1.815 1.815 0 0 0-1.813 1.82 1.814 1.814 0 1 0 3.63 0 1.817 1.817 0 0 0-1.817-1.82zm54.443 15.457a1.815 1.815 0 1 0-3.63 0c0 1 .815 1.817 1.818 1.817a1.818 1.818 0 0 0 1.812-1.817m-60.937-3.313c0 .716-.263 1.24-.8 1.595-.549.365-1.328.551-2.303.551h-4.775v-4.294h4.557c1.135 0 1.99.191 2.532.565.528.36.79.864.79 1.535v.048zm-7.878-5.116v-4.04h4.121c.922 0 1.634.176 2.11.531.468.347.694.82.694 1.445v.047c0 .72-.257 1.235-.792 1.582-.549.362-1.3.542-2.235.542h-3.898v-.107zm10.217 2.604a4.747 4.747 0 0 0-1.104-.87 8.77 8.77 0 0 0-.856-.417l-.187-.077.169-.109a5.6 5.6 0 0 0 .428-.301 3.97 3.97 0 0 0 .81-.822c.228-.31.415-.676.557-1.084a4.34 4.34 0 0 0 .215-1.423v-.048c0-1.155-.403-2.141-1.198-2.928-1.03-1.03-2.567-1.552-4.564-1.552h-7.807v17.273h8.047c.954 0 1.833-.104 2.619-.31.796-.206 1.486-.51 2.05-.906a4.248 4.248 0 0 0 1.333-1.514c.307-.602.47-1.306.47-2.089v-.047c0-.597-.086-1.13-.257-1.581a3.519 3.519 0 0 0-.725-1.195zm40.676-5.08c-1.078-.048-1.989.221-2.705.806a5.083 5.083 0 0 0-1.145 1.31v-1.89h-3.18v12.496h3.18v-4.818c0-.757.09-1.425.272-1.996.178-.556.43-1.023.753-1.388a3.14 3.14 0 0 1 1.16-.818 3.957 3.957 0 0 1 1.503-.276h.39v-3.416l-.228-.01z"/></g></svg>