<svg xmlns="http://www.w3.org/2000/svg" viewBox="0 0 524 40"><g fill="none"><path fill="#FFF" d="M491.054 36.602h-2.538v1.979h2.925v.602h-3.656v-5.506h3.613v.603h-2.882v1.763h2.538v.56zm5.29-2.968v3.742c0 .602-.215 1.076-.602 1.377-.387.3-.903.473-1.505.473-.603 0-1.076-.172-1.463-.473s-.559-.775-.559-1.377v-3.742h.731v3.742c0 .43.13.732.344.947.258.215.56.344.947.344.387 0 .73-.086.989-.344.258-.215.387-.517.387-.947v-3.742h.731zm1.936 3.14v2.366h-.732v-5.506h1.979c.602 0 1.075.13 1.376.388.301.258.473.645.473 1.16 0 .302-.086.517-.215.732-.129.215-.344.387-.645.516.301.086.516.258.645.473.13.215.215.473.215.817v.517c0 .172 0 .344.043.473s.086.258.215.344v.086h-.774a.545.545 0 0 1-.172-.387c-.043-.172-.043-.344-.043-.516v-.517c0-.3-.086-.516-.258-.73-.172-.173-.387-.259-.688-.259h-1.42v.043zm0-.602h1.16c.431 0 .732-.086.904-.258.172-.172.258-.387.258-.731 0-.301-.086-.56-.258-.731-.172-.172-.473-.258-.86-.258h-1.247v1.978h.043zm4.43 3.44h-.645l2.28-5.978h.644l-2.28 5.979zm5.419-5.978h.731v4c0 .474-.172.904-.473 1.162-.301.3-.731.43-1.204.43-.516 0-.946-.13-1.248-.387-.3-.258-.473-.645-.43-1.162v-.043h.732c0 .344.086.603.258.775.172.172.43.258.73.258.259 0 .517-.086.689-.258.172-.172.258-.43.258-.732v-4.043h-.043zm2.796 3.312v2.194h-.731v-5.506h2.107c.602 0 1.032.172 1.376.474.345.3.474.688.474 1.204s-.173.903-.474 1.204c-.344.301-.774.43-1.376.43h-1.376zm0-.602h1.376c.387 0 .645-.086.817-.301a1.2 1.2 0 0 0 .258-.774 1.2 1.2 0 0 0-.258-.774c-.172-.215-.473-.301-.817-.301h-1.376v2.15zm5.892.086l1.42-2.796h.86l-1.936 3.57v1.936h-.73v-1.98l-1.893-3.527h.86l1.42 2.796z"/><path fill="#41479B" d="M512 18.667h-27.484a.477.477 0 0 1-.473-.473V.516c0-.258.215-.473.473-.473H512c.258 0 .473.215.473.473v17.678c0 .215-.215.473-.473.473z"/><path d="M498.442 2.12l.215.602h.602c.043 0 .086.043.086.086s0 .043-.043.043l-.516.387.172.602c0 .043 0 .086-.043.086h-.086l-.516-.344-.516.344c-.043.043-.086 0-.129 0 0-.043-.043-.043 0-.086l.172-.602-.516-.387c-.043-.043-.043-.086 0-.129 0-.043.043-.043.086-.043h.602l.215-.602c0-.043.043-.086.086-.043a.532.532 0 0 1 .13.086zm0 12.688l.215.602h.602c.043 0 .086.043.086.086s0 .043-.043.043l-.516.387.172.603c0 .043 0 .086-.043.086h-.086l-.516-.344-.516.344c-.043.043-.086 0-.129 0 0-.043-.043-.043 0-.086l.172-.603-.516-.387c-.043-.043-.043-.086 0-.129 0-.043.043-.043.086-.043h.602l.215-.602c0-.043.043-.086.086-.043.086.043.13.043.13.086zm6.323-6.322l.215.602h.602c.043 0 .086.043.086.086s0 .043-.043.043l-.516.387.172.602c0 .043 0 .086-.043.086h-.086l-.516-.344-.516.344c-.043.043-.086 0-.13 0 0-.043-.042-.043 0-.086l.173-.602-.517-.387c-.043-.043-.043-.086 0-.13 0-.042.043-.042.086-.042h.603l.215-.602c0-.043.043-.086.086-.043.086.043.129.043.129.086zm-12.645 0l.215.602h.602c.043 0 .086.043.086.086s0 .043-.043.043l-.516.387.172.602c0 .043 0 .086-.043.086h-.086l-.516-.344-.517.344c-.043.043-.086 0-.129 0 0-.043-.043-.043 0-.086l.172-.602-.516-.387c-.043-.043-.043-.086 0-.13 0-.042.043-.042.086-.042h.602l.216-.602c0-.043.043-.086.086-.043.086.043.086.043.129.086zm.946-3.312l.215.602h.602c.043 0 .086.043.086.086s0 .043-.043.043l-.516.387.172.602c0 .043 0 .086-.043.086h-.086l-.516-.344-.516.344c-.043.043-.086 0-.13 0 0-.043-.042-.043 0-.086l.173-.602-.516-.387c-.043-.043-.043-.086 0-.13 0-.042.043-.042.086-.042h.602l.215-.602c0-.043.043-.086.086-.043.086.043.129.043.129.086zm10.968 6.322l.215.602h.602c.043 0 .086.044.086.087s0 .043-.043.043l-.516.387.172.602c0 .043 0 .086-.043.086h-.086l-.516-.344-.517.344c-.043.043-.086 0-.129 0 0-.043-.043-.043 0-.086l.172-.602-.516-.387c-.043-.043-.043-.086 0-.13 0-.043.043-.043.086-.043h.602l.215-.602c0-.043.044-.086.087-.043.086.043.129.043.129.086zm-2.323-8.645l.215.602h.602c.043 0 .086.043.086.086s0 .043-.043.043l-.516.387.172.603c0 .043 0 .086-.043.086h-.086l-.516-.344-.516.344c-.043.043-.086 0-.13 0v-.086l.173-.603-.516-.387c-.043-.043-.043-.086 0-.129 0-.043.043-.043.086-.043h.602l.215-.602c0-.043.043-.086.086-.043.086.043.129.043.129.086zm-6.323 10.968l.215.602h.603c.043 0 .086.043.086.086s0 .043-.043.043l-.517.387.173.602c0 .043 0 .086-.043.086h-.087l-.516-.344-.516.344c-.043.043-.086 0-.129 0 0-.043-.043-.043 0-.086l.172-.602-.516-.387c-.043-.043-.043-.086 0-.129 0-.043.043-.043.086-.043h.602l.215-.602c0-.043.043-.086.086-.043.086.043.086.043.13.086zm8.474-8.645l-.216.602h-.602a.093.093 0 0 0-.086.086c0 .043 0 .043.043.043l.516.387-.172.602c0 .043 0 .086.043.086h.086l.517-.344.516.344c.043.043.086 0 .129 0 0-.043.043-.043 0-.086l-.172-.602.516-.387c.043-.043.043-.086 0-.13 0-.042-.043-.042-.086-.042h-.602l-.215-.602c0-.043-.043-.086-.086-.043-.086.043-.13.043-.13.086zm-10.968 6.322l-.215.602h-.602a.093.093 0 0 0-.086.087c0 .043 0 .043.043.043l.516.387-.172.602c0 .043 0 .086.043.086h.086l.516-.344.516.344c.043.043.086 0 .129 0v-.086l-.172-.602.516-.387c.043-.043.043-.086 0-.13 0-.043-.043-.043-.086-.043h-.602l-.215-.602c0-.043-.043-.086-.086-.043-.086.043-.13.043-.13.086zm2.322-8.645l-.215.602h-.602a.093.093 0 0 0-.086.086c0 .043 0 .043.043.043l.516.387-.172.603c0 .043 0 .086.043.086h.086l.516-.344.517.344c.043.043.086 0 .129 0 0-.043.043-.043 0-.086l-.173-.603.517-.387c.043-.043.043-.086 0-.129 0-.043-.043-.043-.086-.043h-.603l-.215-.602c0-.043-.043-.086-.086-.043-.086.043-.129.043-.129.086zm6.323 10.968l-.215.602h-.602a.093.093 0 0 0-.086.086c0 .043 0 .043.043.043l.516.387-.172.602c0 .043 0 .086.043.086h.086l.516-.344.516.344c.043.043.086 0 .13 0 0-.043.042-.043 0-.086l-.173-.602.516-.387c.043-.043.043-.086 0-.129 0-.043-.043-.043-.086-.043h-.602l-.215-.602c0-.043-.043-.086-.086-.043-.086.043-.13.043-.13.086z" fill="#FFE15A"/><path fill="#13163E" d="M494.323 7.742h18.064v10.753h-18.064z" opacity=".4"/><g transform="translate(495.183 8.602)"><path fill="#F5F5F5" d="M28 18.667H.516a.477.477 0 0 1-.473-.473V.516c0-.258.215-.473.473-.473H28c.258 0 .473.215.473.473v17.678c0 .215-.215.473-.473.473z"/><circle cx="14.237" cy="9.333" r="5.419" fill="#FF4B55"/></g><path fill="#FFF" d="M430.452 36.602h-2.538v1.979h2.925v.602h-3.656v-5.506h3.613v.603h-2.882v1.763h2.538v.56zm5.247-2.968v3.742c0 .602-.215 1.076-.602 1.377-.387.3-.903.473-1.506.473-.602 0-1.075-.172-1.462-.473s-.56-.775-.56-1.377v-3.742h.732v3.742c0 .43.13.732.344.947.258.215.56.344.946.344.387 0 .732-.086.99-.344.258-.215.387-.517.387-.947v-3.742h.73zm1.978 3.14v2.366h-.73v-5.506h1.978c.602 0 1.075.13 1.376.388.301.258.473.645.473 1.16 0 .302-.086.517-.215.732-.129.215-.344.387-.645.516.301.086.516.258.645.473.13.215.215.473.215.817v.517c0 .172 0 .344.043.473s.086.258.215.344v.086h-.774a.545.545 0 0 1-.172-.387c-.043-.172-.043-.344-.043-.516v-.517c0-.3-.086-.516-.258-.73-.172-.173-.387-.259-.688-.259h-1.42v.043zm0-.602h1.162c.43 0 .73-.086.903-.258.172-.172.258-.387.258-.731 0-.301-.086-.56-.258-.731-.172-.172-.473-.258-.86-.258h-1.248v1.978h.043zm4.388 3.44h-.646l2.28-5.978h.645l-2.28 5.979zm7.225-1.203c-.129.215-.344.387-.688.559-.344.172-.731.258-1.247.258-.645 0-1.204-.215-1.635-.645-.43-.43-.645-.947-.645-1.635v-1.118c0-.688.215-1.204.602-1.634.388-.43.904-.646 1.549-.646.645 0 1.118.172 1.505.474.387.3.56.688.56 1.204v.043h-.732c-.043-.301-.129-.602-.344-.774-.215-.215-.56-.301-.946-.301-.43 0-.774.172-1.032.473-.259.3-.388.73-.388 1.204v1.161c0 .473.13.903.43 1.205.302.3.646.473 1.076.473.3 0 .559-.043.774-.13.215-.085.344-.171.43-.3v-1.248h-1.204v-.602h1.935v1.979zm1.248.73v-5.505h1.806c.56 0 1.032.13 1.333.388.345.258.474.602.474 1.118 0 .258-.086.473-.216.645-.172.172-.344.344-.602.43.344.086.602.215.775.473.172.258.3.56.3.903 0 .517-.171.904-.473 1.162-.344.258-.774.387-1.333.387h-2.064zm.774-3.182h1.204c.258 0 .516-.086.688-.215.172-.172.258-.344.258-.645 0-.301-.086-.516-.3-.688-.173-.13-.474-.215-.818-.215h-1.032v1.763zm0 .602v1.979h1.29c.344 0 .602-.086.774-.258a.963.963 0 0 0 .301-.732c0-.3-.086-.559-.215-.774-.172-.172-.387-.258-.73-.258h-1.42v.043zm4.946.387v2.194h-.731v-5.506h2.107c.603 0 1.033.172 1.377.474.344.3.473.688.473 1.204s-.172.903-.473 1.204c-.344.301-.774.43-1.377.43h-1.376zm0-.602h1.376c.388 0 .646-.086.818-.301a1.2 1.2 0 0 0 .258-.774 1.2 1.2 0 0 0-.258-.774c-.172-.215-.474-.301-.818-.301h-1.376v2.15z"/><path fill="#41479B" d="M452 18.667h-27.484a.477.477 0 0 1-.473-.473V.516c0-.258.215-.473.473-.473H452c.258 0 .473.215.473.473v17.678c0 .215-.215.473-.473.473z"/><path d="M438.442 2.12l.215.602h.602c.043 0 .086.043.086.086s0 .043-.043.043l-.516.387.172.602c0 .043 0 .086-.043.086h-.086l-.516-.344-.516.344c-.043.043-.086 0-.129 0 0-.043-.043-.043 0-.086l.172-.602-.516-.387c-.043-.043-.043-.086 0-.129 0-.043.043-.043.086-.043h.602l.215-.602c0-.043.043-.086.086-.043a.532.532 0 0 1 .13.086zm0 12.688l.215.602h.602c.043 0 .086.043.086.086s0 .043-.043.043l-.516.387.172.603c0 .043 0 .086-.043.086h-.086l-.516-.344-.516.344c-.043.043-.086 0-.129 0 0-.043-.043-.043 0-.086l.172-.603-.516-.387c-.043-.043-.043-.086 0-.129 0-.043.043-.043.086-.043h.602l.215-.602c0-.043.043-.086.086-.043.086.043.13.043.13.086zm6.323-6.322l.215.602h.602c.043 0 .086.043.086.086s0 .043-.043.043l-.516.387.172.602c0 .043 0 .086-.043.086h-.086l-.516-.344-.516.344c-.043.043-.086 0-.13 0 0-.043-.042-.043 0-.086l.173-.602-.517-.387c-.043-.043-.043-.086 0-.13 0-.042.043-.042.086-.042h.603l.215-.602c0-.043.043-.086.086-.043.086.043.129.043.129.086zm-12.645 0l.215.602h.602c.043 0 .086.043.086.086s0 .043-.043.043l-.516.387.172.602c0 .043 0 .086-.043.086h-.086l-.516-.344-.517.344c-.043.043-.086 0-.129 0 0-.043-.043-.043 0-.086l.172-.602-.516-.387c-.043-.043-.043-.086 0-.13 0-.042.043-.042.086-.042h.602l.216-.602c0-.043.043-.086.086-.043.086.043.086.043.129.086zm.946-3.312l.215.602h.602c.043 0 .086.043.086.086s0 .043-.043.043l-.516.387.172.602c0 .043 0 .086-.043.086h-.086l-.516-.344-.516.344c-.043.043-.086 0-.13 0 0-.043-.042-.043 0-.086l.173-.602-.516-.387c-.043-.043-.043-.086 0-.13 0-.042.043-.042.086-.042h.602l.215-.602c0-.043.043-.086.086-.043.086.043.129.043.129.086zm10.968 6.322l.215.602h.602c.043 0 .086.044.086.087s0 .043-.043.043l-.516.387.172.602c0 .043 0 .086-.043.086h-.086l-.516-.344-.517.344c-.043.043-.086 0-.129 0 0-.043-.043-.043 0-.086l.172-.602-.516-.387c-.043-.043-.043-.086 0-.13 0-.043.043-.043.086-.043h.602l.215-.602c0-.043.044-.086.087-.043.086.043.129.043.129.086zm-2.323-8.645l.215.602h.602c.043 0 .086.043.086.086s0 .043-.043.043l-.516.387.172.603c0 .043 0 .086-.043.086h-.086l-.516-.344-.516.344c-.043.043-.086 0-.13 0v-.086l.173-.603-.516-.387c-.043-.043-.043-.086 0-.129 0-.043.043-.043.086-.043h.602l.215-.602c0-.043.043-.086.086-.043.086.043.129.043.129.086zm-6.323 10.968l.215.602h.603c.043 0 .086.043.086.086s0 .043-.043.043l-.517.387.173.602c0 .043 0 .086-.043.086h-.087l-.516-.344-.516.344c-.043.043-.086 0-.129 0 0-.043-.043-.043 0-.086l.172-.602-.516-.387c-.043-.043-.043-.086 0-.129 0-.043.043-.043.086-.043h.602l.215-.602c0-.043.043-.086.086-.043.086.043.086.043.13.086zm8.474-8.645l-.216.602h-.602a.093.093 0 0 0-.086.086c0 .043 0 .043.043.043l.516.387-.172.602c0 .043 0 .086.043.086h.086l.517-.344.516.344c.043.043.086 0 .129 0 0-.043.043-.043 0-.086l-.172-.602.516-.387c.043-.043.043-.086 0-.13 0-.042-.043-.042-.086-.042h-.602l-.215-.602c0-.043-.043-.086-.086-.043-.086.043-.13.043-.13.086zm-10.968 6.322l-.215.602h-.602a.093.093 0 0 0-.086.087c0 .043 0 .043.043.043l.516.387-.172.602c0 .043 0 .086.043.086h.086l.516-.344.516.344c.043.043.086 0 .129 0v-.086l-.172-.602.516-.387c.043-.043.043-.086 0-.13 0-.043-.043-.043-.086-.043h-.602l-.215-.602c0-.043-.043-.086-.086-.043-.086.043-.13.043-.13.086zm2.322-8.645l-.215.602h-.602a.093.093 0 0 0-.086.086c0 .043 0 .043.043.043l.516.387-.172.603c0 .043 0 .086.043.086h.086l.516-.344.517.344c.043.043.086 0 .129 0 0-.043.043-.043 0-.086l-.173-.603.517-.387c.043-.043.043-.086 0-.129 0-.043-.043-.043-.086-.043h-.603l-.215-.602c0-.043-.043-.086-.086-.043-.086.043-.129.043-.129.086zm6.323 10.968l-.215.602h-.602a.093.093 0 0 0-.086.086c0 .043 0 .043.043.043l.516.387-.172.602c0 .043 0 .086.043.086h.086l.516-.344.516.344c.043.043.086 0 .13 0 0-.043.042-.043 0-.086l-.173-.602.516-.387c.043-.043.043-.086 0-.129 0-.043-.043-.043-.086-.043h-.602l-.215-.602c0-.043-.043-.086-.086-.043-.086.043-.13.043-.13.086z" fill="#FFE15A"/><path fill="#13163E" d="M434.323 7.742h18.064v10.753h-18.064z" opacity=".4"/><path fill="#41479B" d="M463.183 27.269h-27.484a.477.477 0 0 1-.473-.473V9.118c0-.258.215-.473.473-.473h27.484c.258 0 .473.215.473.473v17.678c0 .215-.215.43-.473.473z"/><path fill="#F5F5F5" d="M463.656 9.075a.477.477 0 0 0-.473-.473h-2.194l-9.075 5.936V8.602h-4.903v5.936l-9.076-5.936h-2.193a.477.477 0 0 0-.473.473v1.248l7.785 5.118h-7.785v4.903h7.785l-7.785 5.118v1.248c0 .258.215.473.473.473h2.193l9.076-5.936v5.936h4.903v-5.936l9.075 5.936h2.194a.477.477 0 0 0 .473-.473v-1.248l-7.785-5.118h7.828v-4.903h-7.785l7.785-5.118V9.075h-.043z"/><g fill="#FF4B55"><path d="M463.656 16.473h-12.774v-7.87h-2.968v7.87H435.14v2.968h12.774v7.87h2.968v-7.87h12.774z"/><path d="M445.118 20.387l-9.935 6.452c.043.258.215.43.473.43h.688l10.58-6.882h-1.806zm9.334 0h-1.807l10.58 6.882c.259-.043.43-.215.43-.473v-.387l-9.203-6.022zM435.183 9.634l8.989 5.85h1.806l-10.494-6.839c-.172.086-.301.258-.301.43v.56zm18.494 5.85l9.979-6.452a.504.504 0 0 0-.473-.387h-.688l-10.581 6.882h1.763v-.043z"/></g><path fill="#FFF" d="M372.465 38.409c-.131.215-.349.387-.698.559-.349.172-.741.258-1.265.258-.654 0-1.221-.215-1.657-.645-.436-.43-.655-.947-.655-1.635v-1.118c0-.688.219-1.204.611-1.634.393-.43.916-.646 1.57-.646.655 0 1.134.172 1.527.474.392.3.567.688.567 1.204v.043h-.742c-.043-.301-.13-.602-.349-.774-.218-.215-.567-.301-.96-.301-.435 0-.784.172-1.046.473-.262.3-.392.73-.392 1.204v1.161c0 .473.13.903.436 1.205.305.3.654.473 1.09.473.305 0 .567-.043.785-.13.218-.085.35-.171.436-.3v-1.248h-1.22v-.602h1.962v1.979zm1.308.73v-5.505h1.832c.567 0 1.047.13 1.352.388.35.258.48.602.48 1.118 0 .258-.087.473-.218.645-.174.172-.349.344-.61.43.348.086.61.215.785.473.174.258.305.56.305.903 0 .517-.175.904-.48 1.162-.349.258-.785.387-1.352.387h-2.094zm.786-3.182h1.22c.262 0 .524-.086.699-.215.174-.172.261-.344.261-.645 0-.301-.087-.516-.305-.688-.174-.13-.48-.215-.829-.215h-1.046v1.763zm0 .602v1.979h1.308c.349 0 .61-.086.785-.258a.957.957 0 0 0 .305-.732c0-.3-.087-.559-.218-.774-.174-.172-.392-.258-.741-.258h-1.44v.043zm5.015.387v2.194h-.741v-5.506h2.137c.61 0 1.047.172 1.396.474.349.3.48.688.48 1.204s-.175.903-.48 1.204c-.349.301-.785.43-1.396.43h-1.396zm0-.602h1.396c.393 0 .654-.086.829-.301a1.19 1.19 0 0 0 .262-.774c0-.301-.088-.56-.262-.774-.175-.215-.48-.301-.829-.301h-1.396v2.15zm4.275 3.269h-.654l2.311-5.979h.655l-2.312 5.979zm5.496-5.979h.741v4c0 .474-.174.904-.48 1.162-.305.3-.741.43-1.22.43-.524 0-.96-.13-1.266-.387-.305-.258-.48-.645-.436-1.162v-.043h.742c0 .344.087.603.261.775.175.172.436.258.742.258.261 0 .523-.086.698-.258.174-.172.261-.43.261-.732v-4.043h-.043zm2.835 3.312v2.194h-.742v-5.506h2.138c.61 0 1.046.172 1.395.474.35.3.48.688.48 1.204s-.174.903-.48 1.204c-.349.301-.785.43-1.395.43h-1.396zm0-.602h1.396c.392 0 .654-.086.828-.301a1.19 1.19 0 0 0 .262-.774c0-.301-.087-.56-.262-.774-.174-.215-.48-.301-.828-.301h-1.396v2.15zm5.975.086l1.44-2.796h.872l-1.963 3.57v1.936h-.741v-1.98l-1.92-3.527h.873l1.44 2.796z"/><path fill="#41479B" d="M391.83 18.667h-27.87a.48.48 0 0 1-.48-.473V.516a.48.48 0 0 1 .48-.473h27.87a.48.48 0 0 1 .48.473v17.678c0 .215-.217.43-.48.473z"/><path fill="#F5F5F5" d="M392.31.473a.48.48 0 0 0-.48-.473h-2.224l-9.203 5.935V0h-4.972v5.935L366.228 0h-2.225a.48.48 0 0 0-.48.473V1.72l7.895 5.119h-7.895v4.903h7.895l-7.895 5.118v1.248a.48.48 0 0 0 .48.473h2.225l9.203-5.936v5.936h4.972v-5.936l9.203 5.936h2.225a.48.48 0 0 0 .48-.473V16.86l-7.895-5.118h7.938V6.839h-7.894l7.894-5.119V.473h-.043z"/><g fill="#FF4B55"><path d="M392.31 7.871h-12.954V0h-3.01v7.871h-12.953v2.968h12.954v7.87h3.01v-7.87h12.954z"/><path d="M373.512 11.785l-10.076 6.452c.044.258.218.43.48.43h.698l10.73-6.882h-1.832zm9.465 0h-1.832l10.73 6.882c.261-.043.436-.215.436-.473v-.388l-9.334-6.021zM363.436 1.032l9.116 5.85h1.832L363.741.043c-.174.086-.305.258-.305.43v.56zm18.755 5.85L392.311.43a.51.51 0 0 0-.48-.387h-.698l-10.73 6.882h1.788v-.043z"/></g><path fill="#13163E" d="M373.904 7.742h18.32v10.753h-18.32z" opacity=".4"/><g transform="translate(374.777 8.602)"><path fill="#F5F5F5" d="M28.395 18.667H.523a.48.48 0 0 1-.48-.473V.516a.48.48 0 0 1 .48-.473h27.872a.48.48 0 0 1 .48.473v17.678c0 .215-.219.473-.48.473z"/><ellipse cx="14.437" cy="9.333" fill="#FF4B55" rx="5.496" ry="5.419"/></g><path fill="#FFF" d="M308.935 37.72h-2.322l-.516 1.42h-.774l2.107-5.506h.645l2.108 5.506h-.774l-.474-1.42zm-2.064-.602h1.85l-.904-2.494h-.043l-.903 2.494zM315 33.634v3.742c0 .602-.215 1.076-.602 1.377-.387.3-.903.473-1.506.473-.602 0-1.075-.172-1.462-.473s-.559-.775-.559-1.377v-3.742h.731v3.742c0 .43.13.732.344.947.258.215.56.344.946.344.388 0 .732-.086.99-.344.258-.215.387-.517.387-.947v-3.742H315zm1.204 5.506v-5.506h1.678c.73 0 1.29.215 1.72.646.43.43.645 1.032.645 1.72v.774c0 .688-.215 1.29-.645 1.72-.43.43-1.032.646-1.72.646h-1.678zm.731-4.903v4.344h.947c.516 0 .903-.172 1.204-.516.301-.345.43-.775.43-1.29V36c0-.516-.129-.946-.43-1.29-.301-.344-.688-.516-1.204-.516h-.947v.043zm4.388 5.376h-.646l2.28-5.979h.645l-2.28 5.979zm7.225-5.979v3.742c0 .602-.215 1.076-.602 1.377-.387.3-.903.473-1.505.473-.602 0-1.075-.172-1.463-.473-.387-.301-.559-.775-.559-1.377v-3.742h.732v3.742c0 .43.129.732.344.947.258.215.559.344.946.344.387 0 .731-.086.99-.344.257-.215.386-.517.386-.947v-3.742h.731zm4.215 4.13a.774.774 0 0 0-.3-.646c-.173-.172-.517-.3-.99-.43-.602-.129-1.032-.344-1.376-.602-.344-.258-.473-.602-.473-1.032 0-.43.172-.774.516-1.076.344-.3.817-.43 1.376-.43.602 0 1.075.172 1.42.517.344.344.516.73.516 1.16v.044h-.732c0-.344-.086-.602-.3-.774-.216-.215-.517-.301-.904-.301s-.645.086-.86.258a.774.774 0 0 0-.301.645c0 .258.086.43.3.602.216.172.56.301 1.033.43.56.13 1.032.344 1.334.645.3.301.473.645.473 1.032 0 .43-.172.818-.56 1.076-.387.258-.817.387-1.419.387-.559 0-1.032-.13-1.462-.43-.43-.301-.645-.688-.602-1.205v-.043h.73c0 .344.13.603.388.818.258.215.559.258.946.258.387 0 .688-.086.903-.258.215-.172.344-.387.344-.646zm1.807 1.376v-5.506h1.677c.731 0 1.29.215 1.72.646.43.43.646 1.032.646 1.72v.774c0 .688-.215 1.29-.645 1.72-.43.43-1.033.646-1.72.646h-1.678zm.774-4.903v4.344h.946c.516 0 .904-.172 1.205-.516.3-.345.43-.775.43-1.29V36c0-.516-.13-.946-.43-1.29-.301-.344-.689-.516-1.205-.516h-.946v.043z"/><path fill="#41479B" d="M331 18.667h-27.484a.477.477 0 0 1-.473-.473V.516c0-.258.215-.473.473-.473H331c.258 0 .473.215.473.473v17.678c0 .215-.215.473-.473.473z"/><path fill="#F5F5F5" d="M316.763 0h-.86l-4.559 2.968V0h-2.452v2.968L304.333 0h-.86a.477.477 0 0 0-.473.473V.86l3.914 2.538H303v2.451h3.914L303 8.43v.387c0 .258.215.473.473.473h.86l4.56-2.967V9.29h2.451V6.323l4.56 2.967h.86a.477.477 0 0 0 .473-.473V8.43l-3.914-2.538h3.914V3.441h-3.914l3.914-2.538V.516c0-.3-.215-.516-.474-.516z"/><g fill="#FF4B55"><path d="M317.237 3.914h-6.366V0h-1.462v3.914h-6.366v1.462h6.366V9.29h1.462V5.376h6.366z"/><path d="M308.42 3.44L303.257.087a.513.513 0 0 0-.215.387v.043l4.516 2.925h.86zm3.827 0l4.904-3.182a.473.473 0 0 0-.43-.258h-.087l-5.29 3.44h.903zm-4.257 2.452l-4.904 3.183a.473.473 0 0 0 .43.258h.086l5.29-3.44h-.903zm9.247 2.968l-4.603-2.968h-.903l5.204 3.398c.173-.086.302-.258.302-.43z"/></g><path d="M310.27 11.998l.388 1.205 1.204-.474c.043 0 .129 0 .129.086v.087l-.731 1.032 1.118.645c.043.043.086.086.043.129 0 .043-.043.043-.086.043l-1.29.086.215 1.247c0 .043-.043.13-.086.13s-.086 0-.086-.044l-.86-.946-.86.946a.13.13 0 0 1-.173 0c-.043-.043-.043-.043-.043-.086l.215-1.247-1.29-.086c-.043 0-.086-.043-.086-.13 0-.042.043-.085.043-.085l1.118-.645-.73-1.033c-.044-.043-.044-.129.042-.172.043 0 .086-.043.086 0l1.204.474.388-1.205c-.044-.043.086-.043.129.043zm14.581-8.688l.172.602.56-.215c.042 0 .042 0 .085.043v.043l-.344.516.56.301c.042 0 .042.043 0 .086l-.044.043-.602.043.086.603c0 .043 0 .043-.043.043h-.043l-.43-.473-.43.473c-.043.043-.043.043-.086 0v-.043l.086-.603-.602-.043c-.043 0-.043-.043-.043-.043s0-.043.043-.043l.56-.3-.345-.517V3.74h.043l.56.215.171-.602c0-.043.043-.043.043-.043.043-.043.043-.043.043 0zm-4 4.602l.172.602.56-.215c.042 0 .042 0 .085.043v.043l-.344.517.56.3c.042 0 .042.044 0 .087l-.044.043-.602.043.086.602c0 .043 0 .043-.043.043h-.043l-.43-.473-.43.473c-.043.043-.043.043-.086 0v-.043l.086-.602-.602-.043c-.043 0-.043-.043-.043-.043s0-.043.043-.043l.56-.301-.345-.517v-.086h.043l.56.215.171-.602c0-.043.043-.043.043-.043 0-.043 0-.043.043 0zm7.829-1.978l.171.602.56-.215c.042 0 .042 0 .085.043v.043l-.344.516.56.301c.042 0 .042.043 0 .086l-.044.043-.602.043.086.602c0 .043 0 .043-.043.043h-.043l-.43-.473-.43.473c-.043.043-.043.043-.086 0v-.043l.086-.602-.602-.043c-.043 0-.043-.043-.043-.043s0-.043.043-.043l.559-.301-.344-.516v-.086h.043l.56.215.171-.602c0-.086.043-.086.086-.043 0-.043 0-.043 0 0zm-3.829 7.871l.172.602.56-.215c.042 0 .042 0 .085.043v.043l-.344.516.56.301c.042 0 .042.043 0 .086l-.044.043-.602.043.086.602c0 .043 0 .043-.043.043h-.043l-.43-.473-.43.473c-.043.043-.043.043-.086 0v-.043l.086-.602-.602-.043c-.043 0-.043-.043-.043-.043s0-.043.043-.043l.56-.301-.345-.516v-.086h.043l.56.215.171-.602c0-.043.043-.043.043-.043.043-.043.043-.043.043 0zm1.419-4.86l-.128.43h-.474c-.043 0-.043.043-.043.043s0 .043.043.043l.387.258-.129.43c0 .043 0 .086.043.086h.043l.388-.258.387.258h.086v-.043l-.13-.43.388-.258c.043 0 .043-.043 0-.086l-.043-.043h-.473l-.13-.43c-.128-.043-.214-.043-.214 0z" fill="#F5F5F5"/><path fill="#13163E" d="M313.323 7.742h18.064v10.753h-18.064z" opacity=".4"/><path fill="#F5F5F5" d="M342.183 27.269h-27.484a.477.477 0 0 1-.473-.473V9.118c0-.258.215-.473.473-.473h27.484c.258 0 .473.215.473.473v17.678c0 .215-.215.43-.473.473z"/><path d="M342.656 10.022h-28.473v-.947c0-.258.215-.473.473-.473h27.484c.258 0 .473.215.473.473l.043.947zm-28.473 4.301h28.473v1.419h-28.473zm0-2.839h28.473v1.42h-28.473zm28.473 7.14h-28a.477.477 0 0 1-.473-.473v-.947h28.473v1.42zm-28.473 4.344h28.473v1.42h-28.473zm28 4.301h-27.484a.477.477 0 0 1-.473-.473v-.947h28.473v.947c-.043.215-.258.473-.516.473zm-28-7.183h28.473v1.42h-28.473z" fill="#FF4B55"/><path fill="#41479B" d="M326.957 8.602h-12.258a.477.477 0 0 0-.473.473v9.076c0 .258.215.473.473.473h12.258a.477.477 0 0 0 .473-.473V9.075a.477.477 0 0 0-.473-.473z"/><path d="M315.542 9.74l.129.345h.344c.043 0 .043.043.043.043v.043l-.258.215.086.344c0 .043 0 .043-.043.043h-.043l-.258-.215-.259.215h-.086v-.043l.086-.344-.258-.215s-.043-.043 0-.086h.387l.13-.344c-.044-.043 0-.043 0 0zm0 1.678l.129.344h.344c.043 0 .043.043.043.043v.043l-.258.215.086.344c0 .043 0 .043-.043.043h-.043l-.258-.215-.259.215h-.086v-.043l.086-.344-.258-.215s-.043-.043 0-.086h.387l.13-.344c-.044-.043 0-.043 0 0zm0 1.72l.129.345h.344c.043 0 .043.043.043.043v.043l-.258.215.086.344c0 .043 0 .043-.043.043h-.043l-.258-.215-.259.215h-.086v-.043l.086-.344-.258-.215s-.043-.043 0-.086h.387l.13-.345c-.044-.043 0-.043 0 0zm0 1.721l.129.344h.344c.043 0 .043 0 .043.043v.043l-.258.215.086.344c0 .043 0 .043-.043.043h-.043l-.258-.215-.259.215h-.086v-.043l.086-.344-.258-.215s-.043-.043 0-.086h.387l.13-.344c-.044-.043 0-.043 0 0zm0 1.677l.129.344h.344c.043 0 .043 0 .043.043v.043l-.258.216.086.344c0 .043 0 .043-.043.043h-.043l-.258-.215-.259.215h-.086v-.043l.086-.344-.258-.216s-.043-.043 0-.086h.387l.13-.344c-.044-.043 0-.043 0 0zm1.333-5.978l.129.344h.344c.043 0 .043.043.043.043v.043l-.258.215.086.344c0 .043 0 .043-.043.043h-.043l-.258-.215-.258.215h-.086v-.043l.086-.344-.258-.215s-.043-.043 0-.086h.387l.129-.344c-.043-.043 0-.043 0 0zm0 1.72l.129.344h.344c.043 0 .043.043.043.043v.043l-.258.215.086.345c0 .043 0 .043-.043.043h-.043l-.258-.216-.258.216h-.086v-.043l.086-.345-.258-.215s-.043-.043 0-.086h.387l.129-.344c-.043-.043 0-.043 0 0zm0 1.678l.129.344h.344c.043 0 .043.043.043.043v.043l-.258.215.086.344c0 .043 0 .043-.043.043h-.043l-.258-.215-.258.215h-.086v-.043l.086-.344-.258-.215s-.043-.043 0-.086h.387l.129-.344c-.043-.043 0-.043 0 0zm0 1.72l.129.344h.344c.043 0 .043.043.043.043v.043l-.258.215.086.344c0 .043 0 .043-.043.043h-.043l-.258-.215-.258.215h-.086v-.043l.086-.344-.258-.215s-.043-.043 0-.086h.387l.129-.344c-.043-.043 0-.043 0 0zm1.333-5.936l.13.345h.343c.043 0 .043.043.043.043v.043l-.258.215.086.344c0 .043 0 .043-.043.043h-.043l-.258-.215-.258.215h-.086v-.043l.086-.344-.258-.215s-.043-.043 0-.086h.387l.13-.344c-.087-.043 0-.043 0 0zm0 1.678l.13.344h.343c.043 0 .043.043.043.043v.043l-.3.215.085.344c0 .043 0 .043-.043.043h-.043l-.258-.215-.258.215h-.086v-.043l.086-.344-.258-.215s-.043-.043 0-.086h.387l.13-.344c-.044-.043.042-.043.042 0zm0 1.72l.13.345h.343c.043 0 .043.043.043.043v.043l-.258.215.086.344c0 .043 0 .043-.043.043h-.043l-.258-.215-.258.215h-.086v-.043l.086-.344-.258-.215s-.043-.043 0-.086h.387l.13-.345c-.087-.043 0-.043 0 0zm0 1.721l.13.344h.343c.043 0 .043.043.043.043v.043l-.258.215.086.344c0 .043 0 .043-.043.043h-.043l-.258-.215-.258.215h-.086v-.043l.086-.344-.258-.215s-.043-.043 0-.086h.387l.13-.344c-.087-.043 0-.043 0 0zm0 1.677l.13.344h.343c.043 0 .043 0 .043.043v.043l-.258.216.086.344c0 .043 0 .043-.043.043h-.043l-.258-.215-.258.215h-.086v-.043l.086-.344-.258-.216s-.043-.043 0-.086h.387l.13-.344c-.087-.043 0-.043 0 0zm1.334-5.978l.129.344h.344c.043 0 .043.043.043.043v.043l-.258.215.086.344c0 .043 0 .043-.043.043h-.043l-.258-.215-.259.215h-.086v-.043l.086-.344-.258-.215s-.043-.043 0-.086h.387l.13-.344c-.087-.043-.044-.043 0 0zm0 1.72l.129.344h.344c.043 0 .043.043.043.043v.043l-.258.215.086.345c0 .043 0 .043-.043.043h-.043l-.258-.216-.259.216h-.086v-.043l.086-.345-.258-.215s-.043-.043 0-.086h.387l.13-.344c-.087-.043-.044-.043 0 0zm0 1.678l.129.344h.344c.043 0 .043.043.043.043v.043l-.258.215.086.344c0 .043 0 .043-.043.043h-.043l-.258-.215-.259.215h-.086v-.043l.086-.344-.258-.215s-.043-.043 0-.086h.387l.13-.344c-.087-.043-.044-.043 0 0zm0 1.72l.129.344h.344c.043 0 .043.043.043.043v.043l-.258.215.086.344c0 .043 0 .043-.043.043h-.043l-.258-.215-.259.215h-.086v-.043l.086-.344-.258-.215s-.043-.043 0-.086h.387l.13-.344c-.087-.043-.044-.043 0 0zm1.333-5.936l.129.345h.344c.043 0 .043.043.043.043v.043l-.258.215.086.344c0 .043 0 .043-.043.043h-.043l-.258-.215-.258.215h-.086v-.043l.086-.344-.258-.215s-.043-.043 0-.086h.387l.129-.344c-.086-.043-.043-.043 0 0zm0 1.678l.129.344h.344c.043 0 .043.043.043.043v.043l-.258.215.086.344c0 .043 0 .043-.043.043h-.043l-.258-.215-.258.215h-.086v-.043l.086-.344-.258-.215s-.043-.043 0-.086h.387l.129-.344c-.086-.043-.043-.043 0 0zm0 1.72l.129.345h.344c.043 0 .043.043.043.043v.043l-.258.215.086.344c0 .043 0 .043-.043.043h-.043l-.258-.215-.258.215h-.086v-.043l.086-.344-.258-.215s-.043-.043 0-.086h.387l.129-.345c-.086-.043-.043-.043 0 0zm0 1.721l.129.344h.344c.043 0 .043.043.043.043v.043l-.258.215.086.344c0 .043 0 .043-.043.043h-.043l-.258-.215-.258.215h-.086v-.043l.086-.344-.258-.215s-.043-.043 0-.086h.387l.129-.344c-.086-.043-.043-.043 0 0zm0 1.677l.129.344h.344c.043 0 .043 0 .043.043v.043l-.258.216.086.344c0 .043 0 .043-.043.043h-.043l-.258-.215-.258.215h-.086v-.043l.086-.344-.258-.216s-.043-.043 0-.086h.387l.129-.344c-.086-.043-.043-.043 0 0zm1.29-5.978l.13.344h.343c.043 0 .043.043.043.043v.043l-.258.215.086.344c0 .043 0 .043-.043.043h-.043l-.258-.215-.258.215h-.086v-.043l.086-.344-.258-.215s-.043-.043 0-.086h.387l.13-.344c-.044-.043 0-.043 0 0zm0 1.72l.13.344h.343c.043 0 .043.043.043.043v.043l-.258.215.086.345c0 .043 0 .043-.043.043h-.043l-.258-.216-.258.216h-.086v-.043l.086-.345-.258-.215s-.043-.043 0-.086h.387l.13-.344c-.044-.043 0-.043 0 0zm0 1.678l.13.344h.343c.043 0 .043.043.043.043v.043l-.258.215.086.344c0 .043 0 .043-.043.043h-.043l-.258-.215-.258.215h-.086v-.043l.086-.344-.258-.215s-.043-.043 0-.086h.387l.13-.344c-.044-.043 0-.043 0 0zm0 1.72l.13.344h.343c.043 0 .043.043.043.043v.043l-.258.215.086.344c0 .043 0 .043-.043.043h-.043l-.258-.215-.258.215h-.086v-.043l.086-.344-.258-.215s-.043-.043 0-.086h.387l.13-.344c-.044-.043 0-.043 0 0zm1.333-5.936l.13.345h.344c.043 0 .043.043.043.043v.043l-.258.215.086.344c0 .043 0 .043-.043.043h-.043l-.259-.215-.258.215h-.086v-.043l.086-.344-.258-.215s-.043-.043 0-.086h.387l.13-.344c-.087-.043-.044-.043 0 0 0-.043 0-.043 0 0zm0 1.678l.13.344h.344c.043 0 .043.043.043.043v.043l-.258.215.086.344c0 .043 0 .043-.043.043h-.043l-.259-.215-.258.215h-.086v-.043l.086-.344-.258-.215s-.043-.043 0-.086h.387l.13-.344c-.087-.043 0-.043 0 0zm0 1.72l.13.345h.344c.043 0 .043.043.043.043v.043l-.258.215.086.344c0 .043 0 .043-.043.043h-.043l-.259-.215-.258.215h-.086v-.043l.086-.344-.258-.215s-.043-.043 0-.086h.387l.13-.345c-.087 0-.044-.043 0 0 0-.043 0 0 0 0zm0 1.721l.13.344h.344c.043 0 .043.043.043.043v.043l-.258.215.086.344c0 .043 0 .043-.043.043h-.043l-.259-.215-.258.215h-.086v-.043l.086-.344-.258-.215s-.043-.043 0-.086h.387l.13-.344c-.087-.043 0-.043 0 0zm0 1.677l.13.344h.344c.043 0 .043 0 .043.043v.043l-.258.216.086.344c0 .043 0 .043-.043.043h-.043l-.259-.215-.258.215h-.086v-.043l.086-.344-.258-.216s-.043-.043 0-.086h.387l.13-.344c-.087 0-.044-.043 0 0zm1.334-5.978l.129.344h.344c.043 0 .043.043.043.043v.043l-.258.215.086.344c0 .043 0 .043-.043.043h-.043l-.258-.215-.258.215h-.086v-.043l.086-.344-.258-.215s-.043-.043 0-.086h.387l.129-.344c-.086 0-.043-.043 0 0-.043 0 0 0 0 0zm0 1.72l.129.344h.344c.043 0 .043.043.043.043v.043l-.258.215.086.345c0 .043 0 .043-.043.043h-.043l-.258-.216-.258.216h-.086v-.043l.086-.345-.258-.215s-.043-.043 0-.086h.387l.129-.344c-.086-.043-.043-.043 0 0zm0 1.678l.129.344h.344c.043 0 .043.043.043.043v.043l-.258.215.086.344c0 .043 0 .043-.043.043h-.043l-.258-.215-.258.215h-.086v-.043l.086-.344-.258-.215s-.043-.043 0-.086h.387l.129-.344c-.086 0-.043 0 0 0-.043 0 0 0 0 0zm0 1.72l.129.344h.344c.043 0 .043.043.043.043v.043l-.258.215.086.344c0 .043 0 .043-.043.043h-.043l-.258-.215-.258.215h-.086v-.043l.086-.344-.258-.215s-.043-.043 0-.086h.387l.129-.344c-.086 0-.043-.043 0 0-.043-.043 0 0 0 0zm1.29-5.936l.13.345h.343c.043 0 .043.043.043.043v.043l-.258.215.086.344c0 .043 0 .043-.043.043h-.043l-.258-.215-.258.215h-.086v-.043l.086-.344-.258-.215s-.043-.043 0-.086h.387l.13-.344c-.044-.043-.044-.043 0 0 0-.043 0-.043 0 0zm0 1.678l.13.344h.343c.043 0 .043.043.043.043v.043l-.258.215.086.344c0 .043 0 .043-.043.043h-.043l-.258-.215-.258.215h-.086v-.043l.086-.344-.258-.215s-.043-.043 0-.086h.387l.13-.344c-.044-.043 0-.043 0 0zm0 1.72l.13.345h.343c.043 0 .043.043.043.043v.043l-.258.215.086.344c0 .043 0 .043-.043.043h-.043l-.258-.215-.258.215h-.086v-.043l.086-.344-.258-.215s-.043-.043 0-.086h.387l.13-.345c-.044 0-.044-.043 0 0 0-.043 0 0 0 0zm0 1.721l.13.344h.343c.043 0 .043 0 .043.043v.043l-.258.215.086.344c0 .043 0 .043-.043.043h-.043l-.258-.215-.258.215h-.086v-.043l.086-.344-.258-.215s-.043-.043 0-.086h.387l.13-.344c-.044-.043 0-.043 0 0zm0 1.677l.13.344h.343c.043 0 .043 0 .043.043v.043l-.258.216.086.344c0 .043 0 .043-.043.043h-.043l-.258-.215-.258.215h-.086v-.043l.086-.344-.258-.216s-.043-.043 0-.086h.387l.13-.344c-.044 0-.044-.043 0 0z" fill="#F5F5F5"/><path fill="#FFF" d="M249.538 37.72h-2.323l-.516 1.42h-.774l2.107-5.506h.645l2.108 5.506h-.774l-.473-1.42zm-2.065-.602h1.85l-.904-2.494h-.043l-.903 2.494zm8.13-3.484v3.742c0 .602-.216 1.076-.603 1.377-.387.3-.903.473-1.505.473-.603 0-1.076-.172-1.463-.473s-.559-.775-.559-1.377v-3.742h.731v3.742c0 .43.13.732.344.947.258.215.56.344.947.344.387 0 .73-.086.989-.344.258-.215.387-.517.387-.947v-3.742h.731zm1.203 5.506v-5.506h1.678c.731 0 1.29.215 1.72.646.43.43.645 1.032.645 1.72v.774c0 .688-.215 1.29-.645 1.72-.43.43-1.032.646-1.72.646h-1.678zm.732-4.903v4.344h.946c.516 0 .903-.172 1.204-.516.301-.345.43-.775.43-1.29V36c0-.516-.129-.946-.43-1.29-.3-.344-.688-.516-1.204-.516h-.946v.043zm4.387 5.376h-.645l2.28-5.979h.644l-2.28 5.979zm5.42-5.979h.73v4c0 .474-.172.904-.473 1.162-.3.3-.731.43-1.204.43-.516 0-.946-.13-1.247-.387-.302-.258-.474-.645-.43-1.162v-.043h.73c0 .344.087.603.259.775.172.172.43.258.73.258.259 0 .517-.086.689-.258.172-.172.258-.43.258-.732v-4.043h-.043zm2.795 3.312v2.194h-.731v-5.506h2.107c.602 0 1.032.172 1.376.474.345.3.474.688.474 1.204s-.172.903-.474 1.204c-.344.301-.774.43-1.376.43h-1.376zm0-.602h1.376c.387 0 .645-.086.817-.301a1.2 1.2 0 0 0 .258-.774 1.2 1.2 0 0 0-.258-.774c-.172-.215-.473-.301-.817-.301h-1.376v2.15zm5.892.086l1.42-2.796h.86l-1.936 3.57v1.936h-.73v-1.98l-1.893-3.527h.86l1.42 2.796z"/><path fill="#41479B" d="M271 18.667h-27.484a.477.477 0 0 1-.473-.473V.516c0-.258.215-.473.473-.473H271c.258 0 .473.215.473.473v17.678c0 .215-.215.473-.473.473z"/><path fill="#F5F5F5" d="M256.763 0h-.86l-4.559 2.968V0h-2.452v2.968L244.333 0h-.86a.477.477 0 0 0-.473.473V.86l3.914 2.538H243v2.451h3.914L243 8.43v.387c0 .258.215.473.473.473h.86l4.56-2.967V9.29h2.451V6.323l4.56 2.967h.86a.477.477 0 0 0 .473-.473V8.43l-3.914-2.538h3.914V3.441h-3.914l3.914-2.538V.516c0-.3-.215-.516-.474-.516z"/><g fill="#FF4B55"><path d="M257.237 3.914h-6.366V0h-1.462v3.914h-6.366v1.462h6.366V9.29h1.462V5.376h6.366z"/><path d="M248.42 3.44L243.257.087a.513.513 0 0 0-.215.387v.043l4.516 2.925h.86zm3.827 0l4.904-3.182a.473.473 0 0 0-.43-.258h-.087l-5.29 3.44h.903zm-4.257 2.452l-4.904 3.183a.473.473 0 0 0 .43.258h.086l5.29-3.44h-.903zm9.247 2.968l-4.603-2.968h-.903l5.204 3.398c.173-.086.302-.258.302-.43z"/></g><path d="M250.27 11.998l.388 1.205 1.204-.474c.043 0 .129 0 .129.086v.087l-.731 1.032 1.118.645c.043.043.086.086.043.129 0 .043-.043.043-.086.043l-1.29.086.215 1.247c0 .043-.043.13-.086.13s-.086 0-.086-.044l-.86-.946-.86.946a.13.13 0 0 1-.173 0c-.043-.043-.043-.043-.043-.086l.215-1.247-1.29-.086c-.043 0-.086-.043-.086-.13 0-.042.043-.085.043-.085l1.118-.645-.73-1.033c-.044-.043-.044-.129.042-.172.043 0 .086-.043.086 0l1.204.474.388-1.205c-.044-.043.086-.043.129.043zm14.581-8.688l.172.602.56-.215c.042 0 .042 0 .085.043v.043l-.344.516.56.301c.042 0 .042.043 0 .086l-.044.043-.602.043.086.603c0 .043 0 .043-.043.043h-.043l-.43-.473-.43.473c-.043.043-.043.043-.086 0v-.043l.086-.603-.602-.043c-.043 0-.043-.043-.043-.043s0-.043.043-.043l.56-.3-.345-.517V3.74h.043l.56.215.171-.602c0-.043.043-.043.043-.043.043-.043.043-.043.043 0zm-4 4.602l.172.602.56-.215c.042 0 .042 0 .085.043v.043l-.344.517.56.3c.042 0 .042.044 0 .087l-.044.043-.602.043.086.602c0 .043 0 .043-.043.043h-.043l-.43-.473-.43.473c-.043.043-.043.043-.086 0v-.043l.086-.602-.602-.043c-.043 0-.043-.043-.043-.043s0-.043.043-.043l.56-.301-.345-.517v-.086h.043l.56.215.171-.602c0-.043.043-.043.043-.043 0-.043 0-.043.043 0zm7.829-1.978l.171.602.56-.215c.042 0 .042 0 .085.043v.043l-.344.516.56.301c.042 0 .042.043 0 .086l-.044.043-.602.043.086.602c0 .043 0 .043-.043.043h-.043l-.43-.473-.43.473c-.043.043-.043.043-.086 0v-.043l.086-.602-.602-.043c-.043 0-.043-.043-.043-.043s0-.043.043-.043l.559-.301-.344-.516v-.086h.043l.56.215.171-.602c0-.086.043-.086.086-.043 0-.043 0-.043 0 0zm-3.829 7.871l.172.602.56-.215c.042 0 .042 0 .085.043v.043l-.344.516.56.301c.042 0 .042.043 0 .086l-.044.043-.602.043.086.602c0 .043 0 .043-.043.043h-.043l-.43-.473-.43.473c-.043.043-.043.043-.086 0v-.043l.086-.602-.602-.043c-.043 0-.043-.043-.043-.043s0-.043.043-.043l.56-.301-.345-.516v-.086h.043l.56.215.171-.602c0-.043.043-.043.043-.043.043-.043.043-.043.043 0zm1.419-4.86l-.128.43h-.474c-.043 0-.043.043-.043.043s0 .043.043.043l.387.258-.129.43c0 .043 0 .086.043.086h.043l.388-.258.387.258h.086v-.043l-.13-.43.388-.258c.043 0 .043-.043 0-.086l-.043-.043h-.473l-.13-.43c-.128-.043-.214-.043-.214 0z" fill="#F5F5F5"/><path fill="#13163E" d="M253.323 7.742h18.064v10.753h-18.064z" opacity=".4"/><g transform="translate(254.183 8.602)"><path fill="#F5F5F5" d="M28 18.667H.516a.477.477 0 0 1-.473-.473V.516c0-.258.215-.473.473-.473H28c.258 0 .473.215.473.473v17.678c0 .215-.215.473-.473.473z"/><circle cx="14.237" cy="9.333" r="5.419" fill="#FF4B55"/></g><path fill="#FFF" d="M191.946 33.634v3.742c0 .602-.215 1.076-.602 1.377-.387.3-.903.473-1.505.473-.602 0-1.076-.172-1.463-.473s-.559-.775-.559-1.377v-3.742h.731v3.742c0 .43.13.732.344.947.259.215.56.344.947.344.387 0 .73-.086.989-.344.258-.215.387-.517.387-.947v-3.742h.731zm4.215 4.13a.774.774 0 0 0-.3-.646c-.173-.172-.517-.3-.99-.43-.602-.129-1.032-.344-1.376-.602-.344-.258-.473-.602-.473-1.032 0-.43.172-.774.516-1.076.344-.3.817-.43 1.376-.43.602 0 1.075.172 1.42.517.343.344.515.73.515 1.16v.044h-.73c0-.344-.087-.602-.302-.774-.215-.215-.516-.301-.903-.301s-.645.086-.86.258a.774.774 0 0 0-.301.645c0 .258.086.43.3.602.216.172.56.301 1.033.43.56.13 1.032.344 1.333.645.301.301.473.645.473 1.032 0 .43-.172.818-.559 1.076-.387.258-.817.387-1.419.387-.56 0-1.032-.13-1.462-.43-.43-.301-.646-.688-.603-1.205v-.043h.732a1 1 0 0 0 .387.818c.258.172.559.258.946.258.387 0 .688-.086.903-.258.215-.172.344-.387.344-.646zm1.85 1.376v-5.506h1.677c.731 0 1.29.215 1.72.646.43.43.646 1.032.646 1.72v.774c0 .688-.215 1.29-.645 1.72-.43.43-1.033.646-1.72.646h-1.678zm.73-4.903v4.344h.947c.516 0 .903-.172 1.204-.516.302-.345.43-.775.43-1.29V36c0-.516-.128-.946-.43-1.29-.3-.344-.688-.516-1.204-.516h-.946v.043zm4.388 5.376h-.645l2.28-5.979h.645l-2.28 5.979zm5.42-5.979h.73v4c0 .474-.171.904-.473 1.162-.3.3-.73.43-1.204.43-.516 0-.946-.13-1.247-.387-.301-.258-.473-.645-.43-1.162v-.043h.73c0 .344.087.603.259.775.172.172.43.258.731.258.258 0 .516-.086.688-.258.172-.172.258-.43.258-.732v-4.043h-.043zm2.795 3.312v2.194h-.731v-5.506h2.107c.603 0 1.033.172 1.377.474.344.3.473.688.473 1.204s-.172.903-.473 1.204c-.344.301-.774.43-1.377.43h-1.376zm0-.602h1.376c.388 0 .646-.086.818-.301a1.2 1.2 0 0 0 .258-.774 1.2 1.2 0 0 0-.258-.774c-.172-.215-.473-.301-.818-.301h-1.376v2.15zm5.893.086l1.419-2.796h.86l-1.935 3.57v1.936h-.732v-1.98l-1.892-3.527h.86l1.42 2.796z"/><path fill="#F5F5F5" d="M211 18.667h-27.484a.477.477 0 0 1-.473-.473V.516c0-.258.215-.473.473-.473H211c.258 0 .473.215.473.473v17.678c0 .215-.215.43-.473.473z"/><path d="M211.473 1.42H183V.472c0-.258.215-.473.473-.473h27.484c.258 0 .473.215.473.473l.043.946zM183 5.72h28.473v1.42H183zm0-2.838h28.473v1.42H183zm28.473 7.14h-28a.477.477 0 0 1-.473-.474v-.946h28.473v1.42zM183 14.366h28.473v1.419H183zm28 4.301h-27.484a.477.477 0 0 1-.473-.473v-.947h28.473v.947c-.043.215-.258.473-.516.473zm-28-7.183h28.473v1.42H183z" fill="#FF4B55"/><path fill="#41479B" d="M195.774 0h-12.258a.477.477 0 0 0-.473.473v9.075c0 .258.215.474.473.474h12.258a.477.477 0 0 0 .473-.474V.473a.477.477 0 0 0-.473-.473z"/><path d="M184.359 1.138l.129.345h.344c.043 0 .043.043.043.043v.043l-.258.215.086.344c0 .043 0 .043-.043.043h-.043l-.258-.215-.258.215h-.086v-.043l.086-.344-.258-.215s-.043-.043 0-.086h.387l.129-.345c-.043-.043 0-.043 0 0zm0 1.678l.129.344h.344c.043 0 .043.043.043.043v.043l-.258.215.086.344c0 .043 0 .043-.043.043h-.043l-.258-.215-.258.215h-.086v-.043l.086-.344-.258-.215s-.043-.043 0-.086h.387l.129-.344c-.043-.043 0-.043 0 0zm0 1.72l.129.344h.344c.043 0 .043.043.043.043v.043l-.258.216.086.344c0 .043 0 .043-.043.043h-.043l-.258-.215-.258.215h-.086v-.043l.086-.344-.258-.216s-.043-.043 0-.086h.387l.129-.344c-.043-.043 0-.043 0 0zm0 1.721l.129.344h.344c.043 0 .043 0 .043.043v.043l-.258.215.086.344c0 .043 0 .043-.043.043h-.043l-.258-.215-.258.215h-.086v-.043l.086-.344-.258-.215s-.043-.043 0-.086h.387l.129-.344c-.043-.043 0-.043 0 0zm0 1.677l.129.344h.344c.043 0 .043 0 .043.043v.043l-.258.215.086.344c0 .043 0 .043-.043.043h-.043l-.258-.215-.258.215h-.086v-.043l.086-.344-.258-.215s-.043-.043 0-.086h.387l.129-.344c-.043-.043 0-.043 0 0zm1.333-5.978l.13.344h.343c.043 0 .043.043.043.043v.043l-.258.215.086.344c0 .043 0 .043-.043.043h-.043l-.258-.215-.258.215h-.086v-.043l.086-.344-.258-.215s-.043-.043 0-.086h.387l.129-.344c-.043-.043 0-.043 0 0zm0 1.72l.13.344h.343c.043 0 .043.043.043.043v.043l-.258.215.086.344c0 .043 0 .043-.043.043h-.043l-.258-.215-.258.215h-.086v-.043l.086-.344-.258-.215s-.043-.043 0-.086h.387l.129-.344c-.043-.043 0-.043 0 0zm0 1.678l.13.344h.343c.043 0 .043.043.043.043v.043l-.258.215.086.344c0 .043 0 .043-.043.043h-.043l-.258-.215-.258.215h-.086v-.043l.086-.344-.258-.215s-.043-.043 0-.086h.387l.129-.344c-.043-.043 0-.043 0 0zm0 1.72l.13.344h.343c.043 0 .043.043.043.043v.043l-.258.215.086.344c0 .043 0 .043-.043.043h-.043l-.258-.215-.258.215h-.086v-.043l.086-.344-.258-.215s-.043-.043 0-.086h.387l.129-.344c-.043-.043 0-.043 0 0zm1.333-5.936l.13.345h.343c.044 0 .044.043.044.043v.043l-.259.215.086.344c0 .043 0 .043-.043.043h-.043l-.258-.215-.258.215h-.086v-.043l.086-.344-.258-.215s-.043-.043 0-.086h.387l.13-.345c-.087-.043 0-.043 0 0zm0 1.678l.13.344h.343c.044 0 .044.043.044.043v.043l-.302.215.086.344c0 .043 0 .043-.043.043h-.043l-.258-.215-.258.215h-.086v-.043l.086-.344-.258-.215s-.043-.043 0-.086h.387l.13-.344c-.044-.043.042-.043.042 0zm0 1.72l.13.344h.343c.044 0 .044.043.044.043v.043l-.259.216.086.344c0 .043 0 .043-.043.043h-.043l-.258-.215-.258.215h-.086v-.043l.086-.344-.258-.216s-.043-.043 0-.086h.387l.13-.344c-.087-.043 0-.043 0 0zm0 1.721l.13.344h.343c.044 0 .044.043.044.043v.043l-.259.215.086.344c0 .043 0 .043-.043.043h-.043l-.258-.215-.258.215h-.086v-.043l.086-.344-.258-.215s-.043-.043 0-.086h.387l.13-.344c-.087-.043 0-.043 0 0zm0 1.677l.13.344h.343c.044 0 .044 0 .044.043v.043l-.259.215.086.344c0 .043 0 .043-.043.043h-.043l-.258-.215-.258.215h-.086v-.043l.086-.344-.258-.215s-.043-.043 0-.086h.387l.13-.344c-.087-.043 0-.043 0 0zm1.334-5.978l.129.344h.344c.043 0 .043.043.043.043v.043l-.258.215.086.344c0 .043 0 .043-.043.043h-.043l-.258-.215-.258.215h-.086v-.043l.086-.344-.258-.215s-.043-.043 0-.086h.387l.129-.344c-.086-.043-.043-.043 0 0zm0 1.72l.129.344h.344c.043 0 .043.043.043.043v.043l-.258.215.086.344c0 .043 0 .043-.043.043h-.043l-.258-.215-.258.215h-.086v-.043l.086-.344-.258-.215s-.043-.043 0-.086h.387l.129-.344c-.086-.043-.043-.043 0 0zm0 1.678l.129.344h.344c.043 0 .043.043.043.043v.043l-.258.215.086.344c0 .043 0 .043-.043.043h-.043l-.258-.215-.258.215h-.086v-.043l.086-.344-.258-.215s-.043-.043 0-.086h.387l.129-.344c-.086-.043-.043-.043 0 0zm0 1.72l.129.344h.344c.043 0 .043.043.043.043v.043l-.258.215.086.344c0 .043 0 .043-.043.043h-.043l-.258-.215-.258.215h-.086v-.043l.086-.344-.258-.215s-.043-.043 0-.086h.387l.129-.344c-.086-.043-.043-.043 0 0zm1.333-5.936l.13.345h.343c.043 0 .043.043.043.043v.043l-.258.215.086.344c0 .043 0 .043-.043.043h-.043l-.258-.215-.258.215h-.086v-.043l.086-.344-.258-.215s-.043-.043 0-.086h.387l.129-.345c-.086-.043-.043-.043 0 0zm0 1.678l.13.344h.343c.043 0 .043.043.043.043v.043l-.258.215.086.344c0 .043 0 .043-.043.043h-.043l-.258-.215-.258.215h-.086v-.043l.086-.344-.258-.215s-.043-.043 0-.086h.387l.129-.344c-.086-.043-.043-.043 0 0zm0 1.72l.13.344h.343c.043 0 .043.043.043.043v.043l-.258.216.086.344c0 .043 0 .043-.043.043h-.043l-.258-.215-.258.215h-.086v-.043l.086-.344-.258-.216s-.043-.043 0-.086h.387l.129-.344c-.086-.043-.043-.043 0 0zm0 1.721l.13.344h.343c.043 0 .043.043.043.043v.043l-.258.215.086.344c0 .043 0 .043-.043.043h-.043l-.258-.215-.258.215h-.086v-.043l.086-.344-.258-.215s-.043-.043 0-.086h.387l.129-.344c-.086-.043-.043-.043 0 0zm0 1.677l.13.344h.343c.043 0 .043 0 .043.043v.043l-.258.215.086.344c0 .043 0 .043-.043.043h-.043l-.258-.215-.258.215h-.086v-.043l.086-.344-.258-.215s-.043-.043 0-.086h.387l.129-.344c-.086-.043-.043-.043 0 0zm1.29-5.978l.13.344h.343c.043 0 .043.043.043.043v.043l-.258.215.086.344c0 .043 0 .043-.043.043h-.043l-.258-.215-.258.215h-.086v-.043l.086-.344-.258-.215s-.043-.043 0-.086h.387l.13-.344c-.044-.043 0-.043 0 0zm0 1.72l.13.344h.343c.043 0 .043.043.043.043v.043l-.258.215.086.344c0 .043 0 .043-.043.043h-.043l-.258-.215-.258.215h-.086v-.043l.086-.344-.258-.215s-.043-.043 0-.086h.387l.13-.344c-.044-.043 0-.043 0 0zm0 1.678l.13.344h.343c.043 0 .043.043.043.043v.043l-.258.215.086.344c0 .043 0 .043-.043.043h-.043l-.258-.215-.258.215h-.086v-.043l.086-.344-.258-.215s-.043-.043 0-.086h.387l.13-.344c-.044-.043 0-.043 0 0zm0 1.72l.13.344h.343c.043 0 .043.043.043.043v.043l-.258.215.086.344c0 .043 0 .043-.043.043h-.043l-.258-.215-.258.215h-.086v-.043l.086-.344-.258-.215s-.043-.043 0-.086h.387l.13-.344c-.044-.043 0-.043 0 0zm1.334-5.936l.129.345h.344c.043 0 .043.043.043.043v.043l-.258.215.086.344c0 .043 0 .043-.043.043h-.043l-.258-.215-.258.215h-.086v-.043l.086-.344-.258-.215s-.043-.043 0-.086h.387l.129-.345c-.086-.043-.043-.043 0 0 0-.043 0-.043 0 0zm0 1.678l.129.344h.344c.043 0 .043.043.043.043v.043l-.258.215.086.344c0 .043 0 .043-.043.043h-.043l-.258-.215-.258.215h-.086v-.043l.086-.344-.258-.215s-.043-.043 0-.086h.387l.129-.344c-.086-.043 0-.043 0 0zm0 1.72l.129.344h.344c.043 0 .043.043.043.043v.043l-.258.216.086.344c0 .043 0 .043-.043.043h-.043l-.258-.215-.258.215h-.086v-.043l.086-.344-.258-.216s-.043-.043 0-.086h.387l.129-.344c-.086 0-.043-.043 0 0 0-.043 0 0 0 0zm0 1.721l.129.344h.344c.043 0 .043.043.043.043v.043l-.258.215.086.344c0 .043 0 .043-.043.043h-.043l-.258-.215-.258.215h-.086v-.043l.086-.344-.258-.215s-.043-.043 0-.086h.387l.129-.344c-.086-.043 0-.043 0 0zm0 1.677l.129.344h.344c.043 0 .043 0 .043.043v.043l-.258.215.086.344c0 .043 0 .043-.043.043h-.043l-.258-.215-.258.215h-.086v-.043l.086-.344-.258-.215s-.043-.043 0-.086h.387l.129-.344c-.086 0-.043-.043 0 0zm1.333-5.978l.13.344h.343c.043 0 .043.043.043.043v.043l-.258.215.086.344c0 .043 0 .043-.043.043h-.043l-.258-.215-.258.215h-.086v-.043l.086-.344-.258-.215s-.043-.043 0-.086h.387l.129-.344c-.086 0-.043-.043 0 0-.043 0 0 0 0 0zm0 1.72l.13.344h.343c.043 0 .043.043.043.043v.043l-.258.215.086.344c0 .043 0 .043-.043.043h-.043l-.258-.215-.258.215h-.086v-.043l.086-.344-.258-.215s-.043-.043 0-.086h.387l.129-.344c-.086-.043-.043-.043 0 0zm0 1.678l.13.344h.343c.043 0 .043.043.043.043v.043l-.258.215.086.344c0 .043 0 .043-.043.043h-.043l-.258-.215-.258.215h-.086v-.043l.086-.344-.258-.215s-.043-.043 0-.086h.387l.129-.344c-.086 0-.043 0 0 0-.043 0 0 0 0 0zm0 1.72l.13.344h.343c.043 0 .043.043.043.043v.043l-.258.215.086.344c0 .043 0 .043-.043.043h-.043l-.258-.215-.258.215h-.086v-.043l.086-.344-.258-.215s-.043-.043 0-.086h.387l.129-.344c-.086 0-.043-.043 0 0-.043-.043 0 0 0 0zm1.291-5.936l.128.345h.344c.043 0 .043.043.043.043v.043l-.258.215.086.344c0 .043 0 .043-.043.043h-.043l-.258-.215-.258.215h-.086v-.043l.086-.344-.258-.215s-.043-.043 0-.086h.387l.13-.345c-.044-.043-.044-.043 0 0 0-.043 0-.043 0 0zm0 1.678l.128.344h.344c.043 0 .043.043.043.043v.043l-.258.215.086.344c0 .043 0 .043-.043.043h-.043l-.258-.215-.258.215h-.086v-.043l.086-.344-.258-.215s-.043-.043 0-.086h.387l.13-.344c-.044-.043 0-.043 0 0zm0 1.72l.128.344h.344c.043 0 .043.043.043.043v.043l-.258.216.086.344c0 .043 0 .043-.043.043h-.043l-.258-.215-.258.215h-.086v-.043l.086-.344-.258-.216s-.043-.043 0-.086h.387l.13-.344c-.044 0-.044-.043 0 0 0-.043 0 0 0 0zm0 1.721l.128.344h.344c.043 0 .043 0 .043.043v.043l-.258.215.086.344c0 .043 0 .043-.043.043h-.043l-.258-.215-.258.215h-.086v-.043l.086-.344-.258-.215s-.043-.043 0-.086h.387l.13-.344c-.044-.043 0-.043 0 0zm0 1.677l.128.344h.344c.043 0 .043 0 .043.043v.043l-.258.215.086.344c0 .043 0 .043-.043.043h-.043l-.258-.215-.258.215h-.086v-.043l.086-.344-.258-.215s-.043-.043 0-.086h.387l.13-.344c-.044 0-.044-.043 0 0z" fill="#F5F5F5"/><path fill="#7B7B7B" d="M193.323 7.742h18.064v10.753h-18.064z" opacity=".278"/><g transform="translate(194.183 8.602)"><path fill="#F5F5F5" d="M28 18.667H.516a.477.477 0 0 1-.473-.473V.516c0-.258.215-.473.473-.473H28c.258 0 .473.215.473.473v17.678c0 .215-.215.473-.473.473z"/><circle cx="14.237" cy="9.333" r="5.419" fill="#FF4B55"/></g><path fill="#FFF" d="M128.543 36.602h-2.574v1.979h2.966v.602h-3.707v-5.506h3.663v.603h-2.922v1.763h2.574v.56zm5.364-2.968v3.742c0 .602-.218 1.076-.61 1.377-.393.3-.916.473-1.527.473-.61 0-1.09-.172-1.483-.473-.392-.301-.567-.775-.567-1.377v-3.742h.742v3.742c0 .43.13.732.349.947.261.215.567.344.96.344.392 0 .74-.086 1.002-.344.262-.215.393-.517.393-.947v-3.742h.741zm1.963 3.14v2.366h-.741v-5.506h2.006c.61 0 1.09.13 1.396.388.305.258.48.645.48 1.16 0 .302-.088.517-.218.732-.131.215-.35.387-.655.516.306.086.524.258.655.473.13.215.218.473.218.817v.517c0 .172 0 .344.043.473.044.129.087.258.218.344v.086h-.785a.542.542 0 0 1-.174-.387c-.044-.172-.044-.344-.044-.516v-.517c0-.3-.087-.516-.262-.73-.174-.173-.392-.259-.697-.259h-1.44v.043zm0-.602h1.178c.436 0 .741-.086.916-.258.174-.172.262-.387.262-.731 0-.301-.088-.56-.262-.731-.175-.172-.48-.258-.873-.258h-1.264v1.978h.043zm4.493 3.44h-.654l2.311-5.978h.654l-2.311 5.979zm7.327-5.978v3.742c0 .602-.218 1.076-.61 1.377-.393.3-.916.473-1.527.473-.61 0-1.09-.172-1.483-.473-.392-.301-.567-.775-.567-1.377v-3.742h.742v3.742c0 .43.13.732.349.947.261.215.567.344.96.344.392 0 .74-.086 1.002-.344.262-.215.393-.517.393-.947v-3.742h.741zm4.275 4.13a.77.77 0 0 0-.305-.646c-.175-.172-.524-.3-1.004-.43-.61-.129-1.046-.344-1.395-.602-.35-.258-.48-.602-.48-1.032 0-.43.174-.774.523-1.076.35-.3.829-.43 1.396-.43.61 0 1.09.172 1.44.517.348.344.523.73.523 1.16v.044h-.742c0-.344-.087-.602-.305-.774-.218-.215-.523-.301-.916-.301s-.654.086-.872.258a.77.77 0 0 0-.306.645c0 .258.088.43.306.602s.567.301 1.046.43c.567.13 1.047.344 1.353.645.305.301.48.645.48 1.032 0 .43-.175.818-.568 1.076-.392.258-.828.387-1.439.387-.567 0-1.047-.13-1.483-.43-.436-.301-.654-.688-.61-1.205v-.043h.74c0 .344.132.603.393.818.262.172.611.258.96.258.393 0 .698-.086.916-.258.218-.172.349-.387.349-.646zm1.832 1.376v-5.506h1.7c.742 0 1.31.215 1.746.646.436.43.654 1.032.654 1.72v.774c0 .688-.218 1.29-.654 1.72-.437.43-1.047.646-1.745.646h-1.701zm.741-4.903v4.344h.96c.523 0 .916-.172 1.221-.516.305-.345.436-.775.436-1.29V36c0-.516-.13-.946-.436-1.29-.305-.344-.698-.516-1.221-.516h-.96v.043z"/><path fill="#41479B" d="M150.395 18.667h-27.872a.48.48 0 0 1-.48-.473V.516a.48.48 0 0 1 .48-.473h27.872a.48.48 0 0 1 .48.473v17.678c0 .215-.219.473-.48.473z"/><path d="M136.646 2.12l.218.602h.61c.044 0 .088.043.088.086s0 .043-.044.043l-.523.387.174.602c0 .043 0 .086-.043.086h-.088l-.523-.344-.524.344c-.043.043-.087 0-.13 0 0-.043-.044-.043 0-.086l.174-.602-.523-.387c-.044-.043-.044-.086 0-.129 0-.043.043-.043.087-.043h.61l.219-.602c0-.043.043-.086.087-.043a.54.54 0 0 1 .13.086zm0 12.688l.218.602h.61c.044 0 .088.043.088.086s0 .043-.044.043l-.523.387.174.603c0 .043 0 .086-.043.086h-.088l-.523-.344-.524.344c-.043.043-.087 0-.13 0 0-.043-.044-.043 0-.086l.174-.603-.523-.387c-.044-.043-.044-.086 0-.129 0-.043.043-.043.087-.043h.61l.219-.602c0-.043.043-.086.087-.043.087.043.13.043.13.086zm6.411-6.322l.219.602h.61c.044 0 .087.043.087.086s0 .043-.043.043l-.524.387.175.602c0 .043 0 .086-.044.086h-.087l-.523-.344-.524.344c-.043.043-.087 0-.13 0 0-.043-.044-.043 0-.086l.174-.602-.524-.387c-.043-.043-.043-.086 0-.13 0-.042.044-.042.088-.042h.61l.218-.602c0-.043.044-.086.088-.043.087.043.13.043.13.086zm-12.823 0l.218.602h.61c.044 0 .088.043.088.086s0 .043-.044.043l-.523.387.174.602c0 .043 0 .086-.043.086h-.087l-.524-.344-.523.344c-.044.043-.087 0-.131 0 0-.043-.044-.043 0-.086l.174-.602-.523-.387c-.044-.043-.044-.086 0-.13 0-.042.044-.042.087-.042h.61l.219-.602c0-.043.044-.086.087-.043.087.043.087.043.131.086zm.96-3.312l.218.602h.61c.044 0 .088.043.088.086s0 .043-.044.043l-.523.387.174.602c0 .043 0 .086-.044.086h-.087l-.523-.344-.524.344c-.043.043-.087 0-.13 0 0-.043-.044-.043 0-.086l.174-.602-.523-.387c-.044-.043-.044-.086 0-.13 0-.042.043-.042.087-.042h.61l.219-.602c0-.043.043-.086.087-.043.087.043.13.043.13.086zm11.122 6.322l.218.602h.61c.044 0 .088.044.088.087s0 .043-.044.043l-.523.387.174.602c0 .043 0 .086-.043.086h-.088l-.523-.344-.523.344c-.044.043-.088 0-.131 0 0-.043-.044-.043 0-.086l.174-.602-.523-.387c-.044-.043-.044-.086 0-.13 0-.043.044-.043.087-.043h.61l.219-.602c0-.043.043-.086.087-.043.087.043.13.043.13.086zm-2.356-8.645l.219.602h.61c.044 0 .088.043.088.086s0 .043-.044.043l-.523.387.174.603c0 .043 0 .086-.044.086h-.087l-.523-.344-.524.344c-.043.043-.087 0-.13 0v-.086l.174-.603-.523-.387c-.044-.043-.044-.086 0-.129 0-.043.043-.043.087-.043h.61l.219-.602c0-.043.043-.086.087-.043.087.043.13.043.13.086zm-6.411 10.968l.218.602h.61c.044 0 .088.043.088.086s0 .043-.044.043l-.523.387.174.602c0 .043 0 .086-.043.086h-.088l-.523-.344-.523.344c-.044.043-.088 0-.131 0 0-.043-.044-.043 0-.086l.174-.602-.523-.387c-.044-.043-.044-.086 0-.129 0-.043.043-.043.087-.043h.61l.219-.602c0-.043.043-.086.087-.043.087.043.087.043.13.086zm8.592-8.645l-.218.602h-.61c-.044 0-.087.043-.087.086s0 .043.043.043l.524.387-.175.602c0 .043 0 .086.044.086h.087l.523-.344.524.344c.043.043.087 0 .13 0 0-.043.044-.043 0-.086l-.174-.602.524-.387c.043-.043.043-.086 0-.13 0-.042-.044-.042-.088-.042h-.61l-.218-.602c0-.043-.044-.086-.088-.043-.087.043-.13.043-.13.086zm-11.121 6.322l-.219.602h-.61c-.044 0-.088.044-.088.087s0 .043.044.043l.523.387-.174.602c0 .043 0 .086.043.086h.088l.523-.344.523.344c.044.043.088 0 .131 0v-.086l-.174-.602.523-.387c.044-.043.044-.086 0-.13 0-.043-.043-.043-.087-.043h-.61l-.219-.602c0-.043-.043-.086-.087-.043-.087.043-.13.043-.13.086zm2.354-8.645l-.218.602h-.61c-.044 0-.088.043-.088.086s0 .043.044.043l.524.387-.175.603c0 .043 0 .086.044.086h.087l.523-.344.524.344c.043.043.087 0 .13 0 0-.043.044-.043 0-.086l-.174-.603.523-.387c.044-.043.044-.086 0-.129 0-.043-.043-.043-.087-.043h-.61l-.218-.602c0-.043-.044-.086-.088-.043-.087.043-.13.043-.13.086zm6.412 10.968l-.218.602h-.61c-.044 0-.088.043-.088.086s0 .043.044.043l.523.387-.174.602c0 .043 0 .086.043.086h.088l.523-.344.523.344c.044.043.088 0 .131 0 0-.043.044-.043 0-.086l-.174-.602.523-.387c.044-.043.044-.086 0-.129 0-.043-.043-.043-.087-.043h-.61l-.219-.602c0-.043-.043-.086-.087-.043-.087.043-.13.043-.13.086z" fill="#FFE15A"/><path fill="#13163E" d="M132.468 7.742h18.32v10.753h-18.32z" opacity=".4"/><path fill="#F5F5F5" d="M161.841 27.174H133.97a.48.48 0 0 1-.48-.473V9.024a.48.48 0 0 1 .48-.473h27.871a.48.48 0 0 1 .48.473V26.7c0 .215-.218.43-.48.473z"/><path d="M162.32 9.927h-28.874V8.98a.48.48 0 0 1 .48-.473h27.871a.48.48 0 0 1 .48.473l.044.946zm-28.874 4.301h28.875v1.42h-28.875zm0-2.838h28.875v1.419h-28.875zm28.874 7.139h-28.394a.48.48 0 0 1-.48-.473v-.946h28.875v1.419zm-28.874 4.344h28.875v1.42h-28.875zm28.395 4.301H133.97a.48.48 0 0 1-.48-.473v-.946h28.875v.946c-.044.215-.262.473-.524.473zm-28.395-7.183h28.875v1.42h-28.875z" fill="#FF4B55"/><path fill="#41479B" d="M146.4 8.508h-12.43a.48.48 0 0 0-.48.473v9.075a.48.48 0 0 0 .48.473h12.43a.48.48 0 0 0 .48-.473V8.98a.48.48 0 0 0-.48-.473z"/><path d="M134.824 9.646l.131.344h.35c.043 0 .043.043.043.043v.043l-.262.215.087.344c0 .043 0 .043-.043.043h-.044l-.262-.215-.261.215h-.088v-.043l.088-.344-.262-.215s-.044-.043 0-.086h.392l.131-.344c-.043-.043 0-.043 0 0zm0 1.677l.131.345h.35c.043 0 .043.043.043.043v.043l-.262.215.087.344c0 .043 0 .043-.043.043h-.044l-.262-.215-.261.215h-.088v-.043l.088-.344-.262-.215s-.044-.043 0-.086h.392l.131-.345c-.043-.043 0-.043 0 0zm0 1.721l.131.344h.35c.043 0 .043.043.043.043v.043l-.262.215.087.344c0 .043 0 .043-.043.043h-.044l-.262-.215-.261.215h-.088v-.043l.088-.344-.262-.215s-.044-.043 0-.086h.392l.131-.344c-.043-.043 0-.043 0 0zm0 1.72l.131.344h.35c.043 0 .043 0 .043.043v.043l-.262.215.087.345c0 .043 0 .043-.043.043h-.044l-.262-.215-.261.215h-.088v-.043l.088-.345-.262-.215s-.044-.043 0-.086h.392l.131-.344c-.043-.043 0-.043 0 0zm0 1.678l.131.344h.35c.043 0 .043 0 .043.043v.043l-.262.215.087.344c0 .043 0 .043-.043.043h-.044l-.262-.215-.261.215h-.088v-.043l.088-.344-.262-.215s-.044-.043 0-.086h.392l.131-.344c-.043-.043 0-.043 0 0zm1.352-5.979l.131.344h.35c.043 0 .043.043.043.043v.043l-.262.215.087.344c0 .043 0 .043-.043.043h-.044l-.262-.215-.261.215h-.088v-.043l.088-.344-.262-.215s-.044-.043 0-.086h.393l.13-.344c-.043-.043 0-.043 0 0zm0 1.721l.131.344h.35c.043 0 .043.043.043.043v.043l-.262.215.087.344c0 .043 0 .043-.043.043h-.044l-.262-.215-.261.215h-.088v-.043l.088-.344-.262-.215s-.044-.043 0-.086h.393l.13-.344c-.043-.043 0-.043 0 0zm0 1.677l.131.344h.35c.043 0 .043.043.043.043v.043l-.262.215.087.344c0 .043 0 .043-.043.043h-.044l-.262-.215-.261.215h-.088v-.043l.088-.344-.262-.215s-.044-.043 0-.086h.393l.13-.344c-.043-.043 0-.043 0 0zm0 1.721l.131.344h.35c.043 0 .043.043.043.043v.043l-.262.215.087.344c0 .043 0 .043-.043.043h-.044l-.262-.215-.261.215h-.088v-.043l.088-.344-.262-.215s-.044-.043 0-.086h.393l.13-.344c-.043-.044 0-.044 0 0zm1.353-5.936l.13.344h.35c.043 0 .043.043.043.043v.043l-.262.215.087.344c0 .043 0 .043-.043.043h-.044l-.261-.215-.262.215h-.087v-.043l.087-.344-.262-.215s-.043-.043 0-.086h.393l.13-.344c-.087-.043 0-.043 0 0zm0 1.677l.13.345h.35c.043 0 .043.043.043.043v.043l-.305.215.087.344c0 .043 0 .043-.044.043h-.043l-.262-.215-.262.215h-.087v-.043l.087-.344-.261-.215s-.044-.043 0-.086h.392l.13-.345c-.043-.043.045-.043.045 0zm0 1.721l.13.344h.35c.043 0 .043.043.043.043v.043l-.262.215.087.344c0 .043 0 .043-.043.043h-.044l-.261-.215-.262.215h-.087v-.043l.087-.344-.262-.215s-.043-.043 0-.086h.393l.13-.344c-.087-.043 0-.043 0 0zm0 1.72l.13.344h.35c.043 0 .043.043.043.043v.043l-.262.215.087.345c0 .043 0 .043-.043.043h-.044l-.261-.215-.262.215h-.087v-.043l.087-.345-.262-.215s-.043-.043 0-.086h.393l.13-.344c-.087-.043 0-.043 0 0zm0 1.678l.13.344h.35c.043 0 .043 0 .043.043v.043l-.262.215.087.344c0 .043 0 .043-.043.043h-.044l-.261-.215-.262.215h-.087v-.043l.087-.344-.262-.215s-.043-.043 0-.086h.393l.13-.344c-.087-.043 0-.043 0 0zm1.351-5.979l.132.344h.348c.044 0 .044.043.044.043v.043l-.262.215.088.344c0 .043 0 .043-.044.043h-.044l-.261-.215-.262.215h-.087v-.043l.087-.344-.262-.215s-.043-.043 0-.086h.393l.13-.344c-.087-.043-.043-.043 0 0zm0 1.721l.132.344h.348c.044 0 .044.043.044.043v.043l-.262.215.088.344c0 .043 0 .043-.044.043h-.044l-.261-.215-.262.215h-.087v-.043l.087-.344-.262-.215s-.043-.043 0-.086h.393l.13-.344c-.087-.043-.043-.043 0 0zm0 1.677l.132.344h.348c.044 0 .044.043.044.043v.043l-.262.215.088.344c0 .043 0 .043-.044.043h-.044l-.261-.215-.262.215h-.087v-.043l.087-.344-.262-.215s-.043-.043 0-.086h.393l.13-.344c-.087-.043-.043-.043 0 0zm0 1.721l.132.344h.348c.044 0 .044.043.044.043v.043l-.262.215.088.344c0 .043 0 .043-.044.043h-.044l-.261-.215-.262.215h-.087v-.043l.087-.344-.262-.215s-.043-.043 0-.086h.393l.13-.344c-.087-.044-.043-.044 0 0zm1.353-5.936l.13.344h.35c.043 0 .043.043.043.043v.043l-.262.215.088.344c0 .043 0 .043-.044.043h-.044l-.261-.215-.262.215h-.087v-.043l.087-.344-.262-.215s-.043-.043 0-.086h.393l.13-.344c-.086-.043-.043-.043 0 0zm0 1.677l.13.345h.35c.043 0 .043.043.043.043v.043l-.262.215.088.344c0 .043 0 .043-.044.043h-.044l-.261-.215-.262.215h-.087v-.043l.087-.344-.262-.215s-.043-.043 0-.086h.393l.13-.345c-.086-.043-.043-.043 0 0zm0 1.721l.13.344h.35c.043 0 .043.043.043.043v.043l-.262.215.088.344c0 .043 0 .043-.044.043h-.044l-.261-.215-.262.215h-.087v-.043l.087-.344-.262-.215s-.043-.043 0-.086h.393l.13-.344c-.086-.043-.043-.043 0 0zm0 1.72l.13.344h.35c.043 0 .043.043.043.043v.043l-.262.215.088.345c0 .043 0 .043-.044.043h-.044l-.261-.215-.262.215h-.087v-.043l.087-.345-.262-.215s-.043-.043 0-.086h.393l.13-.344c-.086-.043-.043-.043 0 0zm0 1.678l.13.344h.35c.043 0 .043 0 .043.043v.043l-.262.215.088.344c0 .043 0 .043-.044.043h-.044l-.261-.215-.262.215h-.087v-.043l.087-.344-.262-.215s-.043-.043 0-.086h.393l.13-.344c-.086-.043-.043-.043 0 0zm1.308-5.979l.131.344h.35c.043 0 .043.043.043.043v.043l-.262.215.087.344c0 .043 0 .043-.043.043h-.044l-.262-.215-.261.215h-.088v-.043l.088-.344-.262-.215s-.044-.043 0-.086h.392l.131-.344c-.043-.043 0-.043 0 0zm0 1.721l.131.344h.35c.043 0 .043.043.043.043v.043l-.262.215.087.344c0 .043 0 .043-.043.043h-.044l-.262-.215-.261.215h-.088v-.043l.088-.344-.262-.215s-.044-.043 0-.086h.392l.131-.344c-.043-.043 0-.043 0 0zm0 1.677l.131.344h.35c.043 0 .043.043.043.043v.043l-.262.215.087.344c0 .043 0 .043-.043.043h-.044l-.262-.215-.261.215h-.088v-.043l.088-.344-.262-.215s-.044-.043 0-.086h.392l.131-.344c-.043-.043 0-.043 0 0zm0 1.721l.131.344h.35c.043 0 .043.043.043.043v.043l-.262.215.087.344c0 .043 0 .043-.043.043h-.044l-.262-.215-.261.215h-.088v-.043l.088-.344-.262-.215s-.044-.043 0-.086h.392l.131-.344c-.043-.044 0-.044 0 0zm1.352-5.936l.131.344h.35c.043 0 .043.043.043.043v.043l-.262.215.087.344c0 .043 0 .043-.043.043h-.044l-.262-.215-.261.215h-.088v-.043l.088-.344-.262-.215s-.044-.043 0-.086h.393l.13-.344c-.087-.043-.043-.043 0 0 0-.043 0-.043 0 0zm0 1.677l.131.345h.35c.043 0 .043.043.043.043v.043l-.262.215.087.344c0 .043 0 .043-.043.043h-.044l-.262-.215-.261.215h-.088v-.043l.088-.344-.262-.215s-.044-.043 0-.086h.393l.13-.345c-.087-.043 0-.043 0 0zm0 1.721l.131.344h.35c.043 0 .043.043.043.043v.043l-.262.215.087.344c0 .043 0 .043-.043.043h-.044l-.262-.215-.261.215h-.088v-.043l.088-.344-.262-.215s-.044-.043 0-.086h.393l.13-.344c-.087 0-.043-.043 0 0 0-.043 0 0 0 0zm0 1.72l.131.344h.35c.043 0 .043.043.043.043v.043l-.262.215.087.345c0 .043 0 .043-.043.043h-.044l-.262-.215-.261.215h-.088v-.043l.088-.345-.262-.215s-.044-.043 0-.086h.393l.13-.344c-.087-.043 0-.043 0 0zm0 1.678l.131.344h.35c.043 0 .043 0 .043.043v.043l-.262.215.087.344c0 .043 0 .043-.043.043h-.044l-.262-.215-.261.215h-.088v-.043l.088-.344-.262-.215s-.044-.043 0-.086h.393l.13-.344c-.087 0-.043-.043 0 0zm1.353-5.979l.13.344h.35c.043 0 .043.043.043.043v.043l-.262.215.087.344c0 .043 0 .043-.043.043h-.044l-.261-.215-.262.215h-.087v-.043l.087-.344-.262-.215s-.043-.043 0-.086h.393l.13-.344c-.087 0-.043-.043 0 0-.043 0 0 0 0 0zm0 1.721l.13.344h.35c.043 0 .043.043.043.043v.043l-.262.215.087.344c0 .043 0 .043-.043.043h-.044l-.261-.215-.262.215h-.087v-.043l.087-.344-.262-.215s-.043-.043 0-.086h.393l.13-.344c-.087-.043-.043-.043 0 0zm0 1.677l.13.344h.35c.043 0 .043.043.043.043v.043l-.262.215.087.344c0 .043 0 .043-.043.043h-.044l-.261-.215-.262.215h-.087v-.043l.087-.344-.262-.215s-.043-.043 0-.086h.393l.13-.344c-.087 0-.043 0 0 0-.043 0 0 0 0 0zm0 1.721l.13.344h.35c.043 0 .043.043.043.043v.043l-.262.215.087.344c0 .043 0 .043-.043.043h-.044l-.261-.215-.262.215h-.087v-.043l.087-.344-.262-.215s-.043-.043 0-.086h.393l.13-.344c-.087 0-.043-.044 0 0-.043-.044 0 0 0 0zm1.308-5.936l.13.344h.35c.043 0 .043.043.043.043v.043l-.261.215.087.344c0 .043 0 .043-.044.043h-.043l-.262-.215-.262.215h-.087v-.043l.087-.344-.261-.215s-.044-.043 0-.086h.392l.131-.344c-.044-.043-.044-.043 0 0 0-.043 0-.043 0 0zm0 1.677l.13.345h.35c.043 0 .043.043.043.043v.043l-.261.215.087.344c0 .043 0 .043-.044.043h-.043l-.262-.215-.262.215h-.087v-.043l.087-.344-.261-.215s-.044-.043 0-.086h.392l.131-.345c-.044-.043 0-.043 0 0zm0 1.721l.13.344h.35c.043 0 .043.043.043.043v.043l-.261.215.087.344c0 .043 0 .043-.044.043h-.043l-.262-.215-.262.215h-.087v-.043l.087-.344-.261-.215s-.044-.043 0-.086h.392l.131-.344c-.044 0-.044-.043 0 0 0-.043 0 0 0 0zm0 1.72l.13.344h.35c.043 0 .043 0 .043.043v.043l-.261.215.087.345c0 .043 0 .043-.044.043h-.043l-.262-.215-.262.215h-.087v-.043l.087-.345-.261-.215s-.044-.043 0-.086h.392l.131-.344c-.044-.043 0-.043 0 0zm0 1.678l.13.344h.35c.043 0 .043 0 .043.043v.043l-.261.215.087.344c0 .043 0 .043-.044.043h-.043l-.262-.215-.262.215h-.087v-.043l.087-.344-.261-.215s-.044-.043 0-.086h.392l.131-.344c-.044 0-.044-.043 0 0z" fill="#F5F5F5"/><path fill="#FFF" d="M68.677 33.634v3.742c0 .602-.218 1.076-.611 1.377-.393.3-.916.473-1.527.473-.61 0-1.09-.172-1.483-.473-.392-.301-.567-.775-.567-1.377v-3.742h.742v3.742c0 .43.13.732.349.947.261.215.567.344.96.344.392 0 .74-.086 1.003-.344.261-.215.392-.517.392-.947v-3.742h.742zm4.274 4.13a.77.77 0 0 0-.305-.646c-.175-.172-.524-.3-1.003-.43-.611-.129-1.047-.344-1.396-.602-.35-.258-.48-.602-.48-1.032 0-.43.174-.774.523-1.076.35-.3.83-.43 1.396-.43.61 0 1.09.172 1.44.517.348.344.523.73.523 1.16v.044h-.742c0-.344-.087-.602-.305-.774-.218-.215-.523-.301-.916-.301-.392 0-.654.086-.872.258a.77.77 0 0 0-.305.645c0 .258.087.43.305.602s.567.301 1.047.43c.567.13 1.046.344 1.352.645.305.301.48.645.48 1.032 0 .43-.175.818-.567 1.076-.393.258-.83.387-1.44.387-.567 0-1.047-.13-1.483-.43-.436-.301-.654-.688-.61-1.205v-.043h.741c0 .344.13.603.393.818.261.172.61.258.96.258.392 0 .697-.086.915-.258.218-.172.35-.387.35-.646zm1.876 1.376v-5.506h1.7c.742 0 1.31.215 1.745.646.437.43.655 1.032.655 1.72v.774c0 .688-.218 1.29-.655 1.72-.436.43-1.046.646-1.744.646h-1.701zm.741-4.903v4.344h.96c.523 0 .916-.172 1.22-.516.306-.345.437-.775.437-1.29V36c0-.516-.13-.946-.436-1.29-.305-.344-.698-.516-1.221-.516h-.96v.043zm4.449 5.376h-.654l2.311-5.979h.655l-2.312 5.979zm7.153-2.237c0 .56-.174.99-.523 1.334-.393.344-.873.516-1.483.516-.61 0-1.134-.215-1.527-.645-.392-.43-.61-.99-.61-1.678v-.989c0-.688.218-1.247.61-1.677.393-.43.916-.646 1.527-.646.61 0 1.134.172 1.526.517.393.344.567.774.524 1.333v.043h-.742c0-.387-.13-.688-.349-.903-.218-.215-.567-.344-.96-.344-.435 0-.74.172-1.002.516-.262.344-.393.73-.393 1.247v.99c0 .515.13.902.393 1.247.261.344.567.516 1.003.516.436 0 .741-.13.96-.344.217-.215.348-.517.348-.947h.698v-.086zm4.057.344H88.87l-.523 1.42h-.785l2.137-5.506h.654l2.137 5.506h-.785l-.48-1.42zm-2.094-.602h1.876l-.916-2.494h-.044l-.916 2.494zm4.144 2.022v-5.506h1.7c.742 0 1.31.215 1.745.646.437.43.655 1.032.655 1.72v.774c0 .688-.218 1.29-.655 1.72-.436.43-1.046.646-1.744.646h-1.701zm.785-4.903v4.344h.96c.523 0 .915-.172 1.22-.516.306-.345.437-.775.437-1.29V36c0-.516-.131-.946-.436-1.29-.306-.344-.698-.516-1.222-.516h-.96v.043z"/><path fill="#F5F5F5" d="M89.83 18.667H61.96a.48.48 0 0 1-.48-.473V.516a.48.48 0 0 1 .48-.473h27.87a.48.48 0 0 1 .48.473v17.678c0 .215-.218.43-.48.473z"/><path d="M90.31 1.42H61.436V.472a.48.48 0 0 1 .48-.473h27.87a.48.48 0 0 1 .48.473l.044.946zm-28.874 4.3H90.31v1.42H61.436zm0-2.838H90.31v1.42H61.436zm28.874 7.14H61.916a.48.48 0 0 1-.48-.474v-.946H90.31v1.42zm-28.874 4.344H90.31v1.419H61.436zm28.394 4.301H61.96a.48.48 0 0 1-.48-.473v-.947h28.874v.947c-.044.215-.262.473-.524.473zm-28.394-7.183H90.31v1.42H61.436z" fill="#FF4B55"/><path fill="#41479B" d="M74.39 0H61.96a.48.48 0 0 0-.48.473v9.075a.48.48 0 0 0 .48.474h12.43a.48.48 0 0 0 .48-.474V.473A.48.48 0 0 0 74.39 0z"/><path d="M62.814 1.138l.13.345h.35c.043 0 .043.043.043.043v.043l-.262.215.088.344c0 .043 0 .043-.044.043h-.044l-.261-.215-.262.215h-.087v-.043l.087-.344-.262-.215s-.043-.043 0-.086h.393l.13-.345c-.043-.043 0-.043 0 0zm0 1.678l.13.344h.35c.043 0 .043.043.043.043v.043l-.262.215.088.344c0 .043 0 .043-.044.043h-.044l-.261-.215-.262.215h-.087v-.043l.087-.344-.262-.215s-.043-.043 0-.086h.393l.13-.344c-.043-.043 0-.043 0 0zm0 1.72l.13.344h.35c.043 0 .043.043.043.043v.043l-.262.216.088.344c0 .043 0 .043-.044.043h-.044l-.261-.215-.262.215h-.087v-.043l.087-.344-.262-.216s-.043-.043 0-.086h.393l.13-.344c-.043-.043 0-.043 0 0zm0 1.721l.13.344h.35c.043 0 .043 0 .043.043v.043l-.262.215.088.344c0 .043 0 .043-.044.043h-.044l-.261-.215-.262.215h-.087v-.043l.087-.344-.262-.215s-.043-.043 0-.086h.393l.13-.344c-.043-.043 0-.043 0 0zm0 1.677l.13.344h.35c.043 0 .043 0 .043.043v.043l-.262.215.088.344c0 .043 0 .043-.044.043h-.044l-.261-.215-.262.215h-.087v-.043l.087-.344-.262-.215s-.043-.043 0-.086h.393l.13-.344c-.043-.043 0-.043 0 0zm1.352-5.978l.13.344h.35c.043 0 .043.043.043.043v.043l-.262.215.088.344c0 .043 0 .043-.044.043h-.044l-.261-.215-.262.215h-.087v-.043l.087-.344-.262-.215s-.043-.043 0-.086h.393l.13-.344c-.043-.043 0-.043 0 0zm0 1.72l.13.344h.35c.043 0 .043.043.043.043v.043l-.262.215.088.344c0 .043 0 .043-.044.043h-.044l-.261-.215-.262.215h-.087v-.043l.087-.344-.262-.215s-.043-.043 0-.086h.393l.13-.344c-.043-.043 0-.043 0 0zm0 1.678l.13.344h.35c.043 0 .043.043.043.043v.043l-.262.215.088.344c0 .043 0 .043-.044.043h-.044l-.261-.215-.262.215h-.087v-.043l.087-.344-.262-.215s-.043-.043 0-.086h.393l.13-.344c-.043-.043 0-.043 0 0zm0 1.72l.13.344h.35c.043 0 .043.043.043.043v.043l-.262.215.088.344c0 .043 0 .043-.044.043h-.044l-.261-.215-.262.215h-.087v-.043l.087-.344-.262-.215s-.043-.043 0-.086h.393l.13-.344c-.043-.043 0-.043 0 0zm1.352-5.936l.13.345h.35c.043 0 .043.043.043.043v.043l-.261.215.087.344c0 .043 0 .043-.044.043h-.043l-.262-.215-.262.215h-.087v-.043l.087-.344-.262-.215s-.043-.043 0-.086h.393l.13-.345c-.086-.043 0-.043 0 0zm0 1.678l.13.344h.35c.043 0 .043.043.043.043v.043l-.305.215.087.344c0 .043 0 .043-.043.043h-.044l-.262-.215-.261.215h-.088v-.043l.088-.344-.262-.215s-.044-.043 0-.086h.392l.131-.344c-.043-.043.044-.043.044 0zm0 1.72l.13.344h.35c.043 0 .043.043.043.043v.043l-.261.216.087.344c0 .043 0 .043-.044.043h-.043l-.262-.215-.262.215h-.087v-.043l.087-.344-.262-.216s-.043-.043 0-.086h.393l.13-.344c-.086-.043 0-.043 0 0zm0 1.721l.13.344h.35c.043 0 .043.043.043.043v.043l-.261.215.087.344c0 .043 0 .043-.044.043h-.043l-.262-.215-.262.215h-.087v-.043l.087-.344-.262-.215s-.043-.043 0-.086h.393l.13-.344c-.086-.043 0-.043 0 0zm0 1.677l.13.344h.35c.043 0 .043 0 .043.043v.043l-.261.215.087.344c0 .043 0 .043-.044.043h-.043l-.262-.215-.262.215h-.087v-.043l.087-.344-.262-.215s-.043-.043 0-.086h.393l.13-.344c-.086-.043 0-.043 0 0zm1.352-5.978L67 2.3h.35c.043 0 .043.043.043.043v.043l-.261.215.087.344c0 .043 0 .043-.044.043h-.043l-.262-.215-.262.215h-.087v-.043l.087-.344-.261-.215s-.044-.043 0-.086h.392l.131-.344c-.087-.043-.044-.043 0 0zm0 1.72l.13.344h.35c.043 0 .043.043.043.043v.043l-.261.215.087.344c0 .043 0 .043-.044.043h-.043l-.262-.215-.262.215h-.087v-.043l.087-.344-.261-.215s-.044-.043 0-.086h.392l.131-.344c-.087-.043-.044-.043 0 0zm0 1.678l.13.344h.35c.043 0 .043.043.043.043v.043l-.261.215.087.344c0 .043 0 .043-.044.043h-.043l-.262-.215-.262.215h-.087v-.043l.087-.344-.261-.215s-.044-.043 0-.086h.392l.131-.344c-.087-.043-.044-.043 0 0zm0 1.72l.13.344h.35c.043 0 .043.043.043.043v.043l-.261.215.087.344c0 .043 0 .043-.044.043h-.043l-.262-.215-.262.215h-.087v-.043l.087-.344-.261-.215s-.044-.043 0-.086h.392l.131-.344c-.087-.043-.044-.043 0 0zm1.352-5.936l.131.345h.349c.044 0 .044.043.044.043v.043l-.262.215.087.344c0 .043 0 .043-.044.043h-.043l-.262-.215-.262.215h-.087v-.043l.087-.344-.261-.215s-.044-.043 0-.086h.392l.131-.345c-.087-.043-.044-.043 0 0zm0 1.678l.131.344h.349c.044 0 .044.043.044.043v.043l-.262.215.087.344c0 .043 0 .043-.044.043h-.043l-.262-.215-.262.215h-.087v-.043l.087-.344-.261-.215s-.044-.043 0-.086h.392l.131-.344c-.087-.043-.044-.043 0 0zm0 1.72l.131.344h.349c.044 0 .044.043.044.043v.043l-.262.216.087.344c0 .043 0 .043-.044.043h-.043l-.262-.215-.262.215h-.087v-.043l.087-.344-.261-.216s-.044-.043 0-.086h.392l.131-.344c-.087-.043-.044-.043 0 0zm0 1.721l.131.344h.349c.044 0 .044.043.044.043v.043l-.262.215.087.344c0 .043 0 .043-.044.043h-.043l-.262-.215-.262.215h-.087v-.043l.087-.344-.261-.215s-.044-.043 0-.086h.392l.131-.344c-.087-.043-.044-.043 0 0zm0 1.677l.131.344h.349c.044 0 .044 0 .044.043v.043l-.262.215.087.344c0 .043 0 .043-.044.043h-.043l-.262-.215-.262.215h-.087v-.043l.087-.344-.261-.215s-.044-.043 0-.086h.392l.131-.344c-.087-.043-.044-.043 0 0zm1.308-5.978l.131.344h.35c.043 0 .043.043.043.043v.043l-.262.215.088.344c0 .043 0 .043-.044.043h-.044l-.261-.215-.262.215h-.087v-.043l.087-.344-.262-.215s-.043-.043 0-.086h.393l.13-.344c-.043-.043 0-.043 0 0zm0 1.72l.131.344h.35c.043 0 .043.043.043.043v.043l-.262.215.088.344c0 .043 0 .043-.044.043h-.044l-.261-.215-.262.215h-.087v-.043l.087-.344-.262-.215s-.043-.043 0-.086h.393l.13-.344c-.043-.043 0-.043 0 0zm0 1.678l.131.344h.35c.043 0 .043.043.043.043v.043l-.262.215.088.344c0 .043 0 .043-.044.043h-.044l-.261-.215-.262.215h-.087v-.043l.087-.344-.262-.215s-.043-.043 0-.086h.393l.13-.344c-.043-.043 0-.043 0 0zm0 1.72l.131.344h.35c.043 0 .043.043.043.043v.043l-.262.215.088.344c0 .043 0 .043-.044.043h-.044l-.261-.215-.262.215h-.087v-.043l.087-.344-.262-.215s-.043-.043 0-.086h.393l.13-.344c-.043-.043 0-.043 0 0zm1.353-5.936l.13.345h.35c.043 0 .043.043.043.043v.043l-.262.215.088.344c0 .043 0 .043-.044.043h-.044l-.261-.215-.262.215h-.087v-.043l.087-.344-.262-.215s-.043-.043 0-.086h.393l.13-.345c-.086-.043-.043-.043 0 0 0-.043 0-.043 0 0zm0 1.678l.13.344h.35c.043 0 .043.043.043.043v.043l-.262.215.088.344c0 .043 0 .043-.044.043h-.044l-.261-.215-.262.215h-.087v-.043l.087-.344-.262-.215s-.043-.043 0-.086h.393l.13-.344c-.086-.043 0-.043 0 0zm0 1.72l.13.344h.35c.043 0 .043.043.043.043v.043l-.262.216.088.344c0 .043 0 .043-.044.043h-.044l-.261-.215-.262.215h-.087v-.043l.087-.344-.262-.216s-.043-.043 0-.086h.393l.13-.344c-.086 0-.043-.043 0 0 0-.043 0 0 0 0zm0 1.721l.13.344h.35c.043 0 .043.043.043.043v.043l-.262.215.088.344c0 .043 0 .043-.044.043h-.044l-.261-.215-.262.215h-.087v-.043l.087-.344-.262-.215s-.043-.043 0-.086h.393l.13-.344c-.086-.043 0-.043 0 0zm0 1.677l.13.344h.35c.043 0 .043 0 .043.043v.043l-.262.215.088.344c0 .043 0 .043-.044.043h-.044l-.261-.215-.262.215h-.087v-.043l.087-.344-.262-.215s-.043-.043 0-.086h.393l.13-.344c-.086 0-.043-.043 0 0zm1.352-5.978l.13.344h.35c.043 0 .043.043.043.043v.043l-.261.215.087.344c0 .043 0 .043-.044.043h-.043l-.262-.215-.262.215h-.087v-.043l.087-.344-.262-.215s-.043-.043 0-.086h.393l.13-.344c-.086 0-.043-.043 0 0-.043 0 0 0 0 0zm0 1.72l.13.344h.35c.043 0 .043.043.043.043v.043l-.261.215.087.344c0 .043 0 .043-.044.043h-.043l-.262-.215-.262.215h-.087v-.043l.087-.344-.262-.215s-.043-.043 0-.086h.393l.13-.344c-.086-.043-.043-.043 0 0zm0 1.678l.13.344h.35c.043 0 .043.043.043.043v.043l-.261.215.087.344c0 .043 0 .043-.044.043h-.043l-.262-.215-.262.215h-.087v-.043l.087-.344-.262-.215s-.043-.043 0-.086h.393l.13-.344c-.086 0-.043 0 0 0-.043 0 0 0 0 0zm0 1.72l.13.344h.35c.043 0 .043.043.043.043v.043l-.261.215.087.344c0 .043 0 .043-.044.043h-.043l-.262-.215-.262.215h-.087v-.043l.087-.344-.262-.215s-.043-.043 0-.086h.393l.13-.344c-.086 0-.043-.043 0 0-.043-.043 0 0 0 0zm1.308-5.936l.131.345h.35c.043 0 .043.043.043.043v.043l-.262.215.087.344c0 .043 0 .043-.043.043h-.044l-.262-.215-.261.215h-.088v-.043l.088-.344-.262-.215s-.044-.043 0-.086h.393l.13-.345c-.043-.043-.043-.043 0 0 0-.043 0-.043 0 0zm0 1.678l.131.344h.35c.043 0 .043.043.043.043v.043l-.262.215.087.344c0 .043 0 .043-.043.043h-.044l-.262-.215-.261.215h-.088v-.043l.088-.344-.262-.215s-.044-.043 0-.086h.393l.13-.344c-.043-.043 0-.043 0 0zm0 1.72l.131.344h.35c.043 0 .043.043.043.043v.043l-.262.216.087.344c0 .043 0 .043-.043.043h-.044l-.262-.215-.261.215h-.088v-.043l.088-.344-.262-.216s-.044-.043 0-.086h.393l.13-.344c-.043 0-.043-.043 0 0 0-.043 0 0 0 0zm0 1.721l.131.344h.35c.043 0 .043 0 .043.043v.043l-.262.215.087.344c0 .043 0 .043-.043.043h-.044l-.262-.215-.261.215h-.088v-.043l.088-.344-.262-.215s-.044-.043 0-.086h.393l.13-.344c-.043-.043 0-.043 0 0zm0 1.677l.131.344h.35c.043 0 .043 0 .043.043v.043l-.262.215.087.344c0 .043 0 .043-.043.043h-.044l-.262-.215-.261.215h-.088v-.043l.088-.344-.262-.215s-.044-.043 0-.086h.393l.13-.344c-.043 0-.043-.043 0 0z" fill="#F5F5F5"/><path fill="#13163E" d="M71.904 7.742h18.32v10.753h-18.32z" opacity=".4"/><g fill="#F5F5F5"><path d="M101.171 27.269H73.3a.48.48 0 0 1-.48-.473V9.118a.48.48 0 0 1 .48-.473h27.871a.48.48 0 0 1 .48.473v17.678c0 .215-.218.473-.48.473z"/><path d="M79.232 8.602h15.92V27.27h-15.92z"/></g><path d="M73.256 8.602a.48.48 0 0 0-.48.473v17.678a.48.48 0 0 0 .48.473h5.976V8.559h-5.976v.043zm27.915 0h-5.975V27.27h5.975a.48.48 0 0 0 .48-.473V9.118c0-.3-.218-.516-.48-.516zM90.223 20.086l2.966-1.677-.698-.344a.489.489 0 0 1-.261-.517l.218-1.634-1.265.344c-.262.086-.523-.086-.61-.344v-.043l-.132-.516-1.177 1.376c-.087.086-.262.13-.35.043-.086-.043-.086-.129-.086-.215l.523-2.882-.785.215c-.218.043-.48-.043-.567-.258l-.829-1.505-.785 1.505a.528.528 0 0 1-.567.258l-.785-.215.523 2.882c.044.13-.043.258-.174.301-.087 0-.175 0-.218-.086l-1.178-1.376-.13.516c-.044.258-.35.43-.611.387H83.2l-1.265-.344.218 1.634a.489.489 0 0 1-.261.517l-.698.344 2.966 1.677a.68.68 0 0 1 .305.86l-.262.688 2.53-.215c.13 0 .262.086.262.215v.043l-.087 2.667h.48L87.3 21.72c0-.129.087-.215.218-.258h.044l2.53.215-.262-.688c-.044-.387.087-.73.392-.903z" fill="#FF4B55"/><path fill="#FFF" d="M8.761 38.409c-.13.215-.345.387-.69.559-.346.172-.734.258-1.252.258-.647 0-1.208-.215-1.64-.645-.432-.43-.647-.947-.647-1.635v-1.118c0-.688.215-1.204.604-1.634.388-.43.906-.646 1.553-.646.648 0 1.123.172 1.511.474.388.3.561.688.561 1.204v.043h-.734c-.043-.301-.13-.602-.345-.774-.216-.215-.56-.301-.95-.301-.43 0-.776.172-1.035.473-.26.3-.389.73-.389 1.204v1.161c0 .473.13.903.432 1.205.302.3.647.473 1.079.473.302 0 .561-.043.777-.13.216-.085.345-.171.431-.3v-1.248H6.82v-.602h1.94v1.979zm1.295.73v-5.505h1.812c.561 0 1.036.13 1.338.388.346.258.475.602.475 1.118 0 .258-.086.473-.216.645-.172.172-.345.344-.604.43.345.086.604.215.777.473.173.258.302.56.302.903 0 .517-.173.904-.475 1.162-.345.258-.777.387-1.338.387h-2.071zm.777-3.182h1.208c.259 0 .518-.086.69-.215.173-.172.26-.344.26-.645 0-.301-.087-.516-.303-.688-.172-.13-.474-.215-.82-.215h-1.035v1.763zm0 .602v1.979h1.294c.346 0 .605-.086.777-.258a.962.962 0 0 0 .302-.732c0-.3-.086-.559-.215-.774-.173-.172-.389-.258-.734-.258h-1.424v.043zm4.963.387v2.194h-.734v-5.506h2.115c.604 0 1.036.172 1.38.474.346.3.476.688.476 1.204s-.173.903-.475 1.204c-.345.301-.777.43-1.381.43h-1.381zm0-.602h1.38c.39 0 .648-.086.82-.301.173-.215.26-.473.26-.774 0-.301-.087-.56-.26-.774-.172-.215-.474-.301-.82-.301h-1.38v2.15zm4.23 3.269h-.648l2.287-5.979h.648l-2.288 5.979zm7.25-5.979v3.742c0 .602-.216 1.076-.604 1.377-.389.3-.907.473-1.51.473-.605 0-1.08-.172-1.468-.473-.389-.301-.561-.775-.561-1.377v-3.742h.733v3.742c0 .43.13.732.346.947.259.215.56.344.95.344.387 0 .733-.086.992-.344.259-.215.388-.517.388-.947v-3.742h.734zm4.23 4.13a.773.773 0 0 0-.303-.646c-.172-.172-.518-.3-.992-.43-.605-.129-1.036-.344-1.382-.602-.345-.258-.474-.602-.474-1.032 0-.43.172-.774.518-1.076.345-.3.82-.43 1.38-.43.605 0 1.08.172 1.425.517.345.344.518.73.518 1.16v.044h-.734c0-.344-.086-.602-.302-.774-.216-.215-.518-.301-.906-.301-.389 0-.648.086-.863.258a.773.773 0 0 0-.303.645c0 .258.087.43.303.602.215.172.56.301 1.035.43.561.13 1.036.344 1.338.645.302.301.475.645.475 1.032 0 .43-.173.818-.561 1.076-.389.258-.82.387-1.424.387-.561 0-1.036-.13-1.468-.43-.431-.301-.647-.688-.604-1.205v-.043h.734c0 .344.13.603.388.818.26.215.604.258.95.258.388 0 .69-.086.906-.258.216-.172.345-.387.345-.646zm1.812 1.376v-5.506H35c.734 0 1.295.215 1.726.646.432.43.648 1.032.648 1.72v.774c0 .688-.216 1.29-.648 1.72-.431.43-1.035.646-1.726.646h-1.683zm.777-4.903v4.344h.95c.517 0 .906-.172 1.208-.516.302-.345.431-.775.431-1.29V36c0-.516-.13-.946-.431-1.29-.302-.344-.69-.516-1.209-.516h-.95v.043z"/><path fill="#41479B" d="M28.527 18.667H.95a.478.478 0 0 1-.474-.473V.516A.476.476 0 0 1 .949.043h27.578c.26 0 .475.215.475.473v17.678c0 .215-.216.43-.475.473z"/><path fill="#F5F5F5" d="M29.002.473A.478.478 0 0 0 28.527 0h-2.2L17.22 5.935V0H12.3v5.935L3.194 0H.993a.478.478 0 0 0-.475.473V1.72l7.811 5.12H.518v4.903h7.811L.518 16.86v1.248c0 .258.216.473.475.473h2.2l9.107-5.936v5.936h4.92v-5.936l9.106 5.936h2.201a.478.478 0 0 0 .475-.473V16.86l-7.811-5.118h7.854V6.839h-7.811l7.811-5.119V.473h-.043z"/><g fill="#FF4B55"><path d="M29.002 7.871H16.184V0h-2.978v7.871H.388v2.968h12.818v7.87h2.978v-7.87h12.818z"/><path d="M10.401 11.785l-9.97 6.452c.044.258.216.43.475.43h.69l10.618-6.882H10.4zm9.365 0h-1.812l10.617 6.882c.258-.043.431-.215.431-.473v-.388l-9.236-6.021zM.432 1.032l9.02 5.85h1.812L.734.043C.56.129.432.301.432.473v.56zm18.558 5.85L29.001.43a.505.505 0 0 0-.475-.387h-.69L17.22 6.925h1.77v-.043z"/></g><path fill="#13163E" d="M10.79 7.742h18.126v10.753H10.789z" opacity=".4"/><path fill="#F5F5F5" d="M39.853 27.174H12.275a.478.478 0 0 1-.474-.473V9.024c0-.258.215-.473.474-.473h27.578c.26 0 .475.215.475.473V26.7c0 .215-.216.43-.475.473z"/><path d="M40.328 9.927h-28.57V8.98c0-.258.215-.473.474-.473H39.81c.26 0 .475.215.475.473l.043.946zm-28.57 4.301h28.57v1.42h-28.57zm0-2.838h28.57v1.419h-28.57zm28.57 7.139H12.232a.478.478 0 0 1-.474-.473v-.946h28.57v1.419zm-28.57 4.344h28.57v1.42h-28.57zm28.095 4.301H12.275a.478.478 0 0 1-.474-.473v-.946h28.57v.946c-.043.215-.259.473-.518.473zm-28.095-7.183h28.57v1.42h-28.57z" fill="#FF4B55"/><path fill="#41479B" d="M24.575 8.508h-12.3a.478.478 0 0 0-.474.473v9.075c0 .258.215.473.474.473h12.3a.478.478 0 0 0 .475-.473V8.98a.478.478 0 0 0-.475-.473z"/><path d="M13.12 9.646l.13.344h.346c.043 0 .043.043.043.043v.043l-.26.215.087.344c0 .043 0 .043-.043.043h-.043l-.26-.215-.258.215h-.086v-.043l.086-.344-.259-.215s-.043-.043 0-.086h.388l.13-.344c-.043-.043 0-.043 0 0zm0 1.677l.13.345h.346c.043 0 .043.043.043.043v.043l-.26.215.087.344c0 .043 0 .043-.043.043h-.043l-.26-.215-.258.215h-.086v-.043l.086-.344-.259-.215s-.043-.043 0-.086h.388l.13-.345c-.043-.043 0-.043 0 0zm0 1.721l.13.344h.346c.043 0 .043.043.043.043v.043l-.26.215.087.344c0 .043 0 .043-.043.043h-.043l-.26-.215-.258.215h-.086v-.043l.086-.344-.259-.215s-.043-.043 0-.086h.388l.13-.344c-.043-.043 0-.043 0 0zm0 1.72l.13.344h.346c.043 0 .043 0 .043.043v.043l-.26.215.087.345c0 .043 0 .043-.043.043h-.043l-.26-.215-.258.215h-.086v-.043l.086-.345-.259-.215s-.043-.043 0-.086h.388l.13-.344c-.043-.043 0-.043 0 0zm0 1.678l.13.344h.346c.043 0 .043 0 .043.043v.043l-.26.215.087.344c0 .043 0 .043-.043.043h-.043l-.26-.215-.258.215h-.086v-.043l.086-.344-.259-.215s-.043-.043 0-.086h.388l.13-.344c-.043-.043 0-.043 0 0zm1.339-5.979l.13.344h.344c.044 0 .044.043.044.043v.043l-.26.215.087.344c0 .043 0 .043-.043.043h-.043l-.26-.215-.258.215h-.087v-.043l.087-.344-.26-.215s-.042-.043 0-.086h.39l.129-.344c-.043-.043 0-.043 0 0zm0 1.721l.13.344h.344c.044 0 .044.043.044.043v.043l-.26.215.087.344c0 .043 0 .043-.043.043h-.043l-.26-.215-.258.215h-.087v-.043l.087-.344-.26-.215s-.042-.043 0-.086h.39l.129-.344c-.043-.043 0-.043 0 0zm0 1.677l.13.344h.344c.044 0 .044.043.044.043v.043l-.26.215.087.344c0 .043 0 .043-.043.043h-.043l-.26-.215-.258.215h-.087v-.043l.087-.344-.26-.215s-.042-.043 0-.086h.39l.129-.344c-.043-.043 0-.043 0 0zm0 1.721l.13.344h.344c.044 0 .044.043.044.043v.043l-.26.215.087.344c0 .043 0 .043-.043.043h-.043l-.26-.215-.258.215h-.087v-.043l.087-.344-.26-.215s-.042-.043 0-.086h.39l.129-.344c-.043-.044 0-.044 0 0zm1.338-5.936l.13.344h.344c.044 0 .044.043.044.043v.043l-.26.215.087.344c0 .043 0 .043-.043.043h-.043l-.26-.215-.258.215h-.087v-.043l.087-.344-.26-.215s-.042-.043 0-.086h.39l.129-.344c-.087-.043 0-.043 0 0zm0 1.677l.13.345h.344c.044 0 .044.043.044.043v.043l-.303.215.087.344c0 .043 0 .043-.043.043h-.044l-.259-.215-.258.215h-.087v-.043l.087-.344-.26-.215s-.043-.043 0-.086h.389l.13-.345c-.044-.043.043-.043.043 0zm0 1.721l.13.344h.344c.044 0 .044.043.044.043v.043l-.26.215.087.344c0 .043 0 .043-.043.043h-.043l-.26-.215-.258.215h-.087v-.043l.087-.344-.26-.215s-.042-.043 0-.086h.39l.129-.344c-.087-.043 0-.043 0 0zm0 1.72l.13.344h.344c.044 0 .044.043.044.043v.043l-.26.215.087.345c0 .043 0 .043-.043.043h-.043l-.26-.215-.258.215h-.087v-.043l.087-.345-.26-.215s-.042-.043 0-.086h.39l.129-.344c-.087-.043 0-.043 0 0zm0 1.678l.13.344h.344c.044 0 .044 0 .044.043v.043l-.26.215.087.344c0 .043 0 .043-.043.043h-.043l-.26-.215-.258.215h-.087v-.043l.087-.344-.26-.215s-.042-.043 0-.086h.39l.129-.344c-.087-.043 0-.043 0 0zm1.338-5.979l.129.344h.345c.043 0 .043.043.043.043v.043l-.259.215.087.344c0 .043 0 .043-.043.043h-.044l-.258-.215-.26.215h-.086v-.043l.087-.344-.26-.215s-.043-.043 0-.086h.39l.129-.344c-.087-.043-.044-.043 0 0zm0 1.721l.129.344h.345c.043 0 .043.043.043.043v.043l-.259.215.087.344c0 .043 0 .043-.043.043h-.044L17.135 13l-.26.215h-.086v-.043l.087-.344-.26-.215s-.043-.043 0-.086h.39l.129-.344c-.087-.043-.044-.043 0 0zm0 1.677l.129.344h.345c.043 0 .043.043.043.043v.043l-.259.215.087.344c0 .043 0 .043-.043.043h-.044l-.258-.215-.26.215h-.086v-.043l.087-.344-.26-.215s-.043-.043 0-.086h.39l.129-.344c-.087-.043-.044-.043 0 0zm0 1.721l.129.344h.345c.043 0 .043.043.043.043v.043l-.259.215.087.344c0 .043 0 .043-.043.043h-.044l-.258-.215-.26.215h-.086v-.043l.087-.344-.26-.215s-.043-.043 0-.086h.39l.129-.344c-.087-.044-.044-.044 0 0zm1.337-5.936l.13.344h.345c.043 0 .043.043.043.043v.043l-.259.215.087.344c0 .043 0 .043-.043.043h-.044l-.259-.215-.259.215h-.086v-.043l.086-.344-.258-.215s-.044-.043 0-.086h.388l.13-.344c-.087-.043-.044-.043 0 0zm0 1.677l.13.345h.345c.043 0 .043.043.043.043v.043l-.259.215.087.344c0 .043 0 .043-.043.043h-.044l-.259-.215-.259.215h-.086v-.043l.086-.344-.258-.215s-.044-.043 0-.086h.388l.13-.345c-.087-.043-.044-.043 0 0zm0 1.721l.13.344h.345c.043 0 .043.043.043.043v.043l-.259.215.087.344c0 .043 0 .043-.043.043h-.044l-.259-.215-.259.215h-.086v-.043l.086-.344-.258-.215s-.044-.043 0-.086h.388l.13-.344c-.087-.043-.044-.043 0 0zm0 1.72l.13.344h.345c.043 0 .043.043.043.043v.043l-.259.215.087.345c0 .043 0 .043-.043.043h-.044l-.259-.215-.259.215h-.086v-.043l.086-.345-.258-.215s-.044-.043 0-.086h.388l.13-.344c-.087-.043-.044-.043 0 0zm0 1.678l.13.344h.345c.043 0 .043 0 .043.043v.043l-.259.215.087.344c0 .043 0 .043-.043.043h-.044l-.259-.215-.259.215h-.086v-.043l.086-.344-.258-.215s-.044-.043 0-.086h.388l.13-.344c-.087-.043-.044-.043 0 0zm1.295-5.979l.13.344h.345c.043 0 .043.043.043.043v.043l-.259.215.086.344c0 .043 0 .043-.043.043h-.043l-.259-.215-.259.215h-.086v-.043l.086-.344-.259-.215s-.043-.043 0-.086h.389l.13-.344c-.044-.043 0-.043 0 0zm0 1.721l.13.344h.345c.043 0 .043.043.043.043v.043l-.259.215.086.344c0 .043 0 .043-.043.043h-.043L19.767 13l-.259.215h-.086v-.043l.086-.344-.259-.215s-.043-.043 0-.086h.389l.13-.344c-.044-.043 0-.043 0 0zm0 1.677l.13.344h.345c.043 0 .043.043.043.043v.043l-.259.215.086.344c0 .043 0 .043-.043.043h-.043l-.259-.215-.259.215h-.086v-.043l.086-.344-.259-.215s-.043-.043 0-.086h.389l.13-.344c-.044-.043 0-.043 0 0zm0 1.721l.13.344h.345c.043 0 .043.043.043.043v.043l-.259.215.086.344c0 .043 0 .043-.043.043h-.043l-.259-.215-.259.215h-.086v-.043l.086-.344-.259-.215s-.043-.043 0-.086h.389l.13-.344c-.044-.044 0-.044 0 0zm1.338-5.936l.13.344h.345c.043 0 .043.043.043.043v.043l-.259.215.086.344c0 .043 0 .043-.043.043h-.043l-.259-.215-.259.215h-.086v-.043l.086-.344-.259-.215s-.043-.043 0-.086h.389l.13-.344c-.087-.043-.044-.043 0 0 0-.043 0-.043 0 0zm0 1.677l.13.345h.345c.043 0 .043.043.043.043v.043l-.259.215.086.344c0 .043 0 .043-.043.043h-.043l-.259-.215-.259.215h-.086v-.043l.086-.344-.259-.215s-.043-.043 0-.086h.389l.13-.345c-.087-.043 0-.043 0 0zm0 1.721l.13.344h.345c.043 0 .043.043.043.043v.043l-.259.215.086.344c0 .043 0 .043-.043.043h-.043l-.259-.215-.259.215h-.086v-.043l.086-.344-.259-.215s-.043-.043 0-.086h.389l.13-.344c-.087 0-.044-.043 0 0 0-.043 0 0 0 0zm0 1.72l.13.344h.345c.043 0 .043.043.043.043v.043l-.259.215.086.345c0 .043 0 .043-.043.043h-.043l-.259-.215-.259.215h-.086v-.043l.086-.345-.259-.215s-.043-.043 0-.086h.389l.13-.344c-.087-.043 0-.043 0 0zm0 1.678l.13.344h.345c.043 0 .043 0 .043.043v.043l-.259.215.086.344c0 .043 0 .043-.043.043h-.043l-.259-.215-.259.215h-.086v-.043l.086-.344-.259-.215s-.043-.043 0-.086h.389l.13-.344c-.087 0-.044-.043 0 0zm1.338-5.979l.13.344h.345c.043 0 .043.043.043.043v.043l-.26.215.087.344c0 .043 0 .043-.043.043h-.043l-.259-.215-.259.215h-.086v-.043l.086-.344-.259-.215s-.043-.043 0-.086h.388l.13-.344c-.086 0-.043-.043 0 0-.043 0 0 0 0 0zm0 1.721l.13.344h.345c.043 0 .043.043.043.043v.043l-.26.215.087.344c0 .043 0 .043-.043.043h-.043L22.443 13l-.259.215h-.086v-.043l.086-.344-.259-.215s-.043-.043 0-.086h.388l.13-.344c-.086-.043-.043-.043 0 0zm0 1.677l.13.344h.345c.043 0 .043.043.043.043v.043l-.26.215.087.344c0 .043 0 .043-.043.043h-.043l-.259-.215-.259.215h-.086v-.043l.086-.344-.259-.215s-.043-.043 0-.086h.388l.13-.344c-.086 0-.043 0 0 0-.043 0 0 0 0 0zm0 1.721l.13.344h.345c.043 0 .043.043.043.043v.043l-.26.215.087.344c0 .043 0 .043-.043.043h-.043l-.259-.215-.259.215h-.086v-.043l.086-.344-.259-.215s-.043-.043 0-.086h.388l.13-.344c-.086 0-.043-.044 0 0-.043-.044 0 0 0 0zm1.295-5.936l.13.344h.344c.044 0 .044.043.044.043v.043l-.26.215.087.344c0 .043 0 .043-.043.043h-.043l-.26-.215-.258.215h-.087v-.043l.087-.344-.26-.215s-.042-.043 0-.086h.39l.129-.344c-.043-.043-.043-.043 0 0 0-.043 0-.043 0 0zm0 1.677l.13.345h.344c.044 0 .044.043.044.043v.043l-.26.215.087.344c0 .043 0 .043-.043.043h-.043l-.26-.215-.258.215h-.087v-.043l.087-.344-.26-.215s-.042-.043 0-.086h.39l.129-.345c-.043-.043 0-.043 0 0zm0 1.721l.13.344h.344c.044 0 .044.043.044.043v.043l-.26.215.087.344c0 .043 0 .043-.043.043h-.043l-.26-.215-.258.215h-.087v-.043l.087-.344-.26-.215s-.042-.043 0-.086h.39l.129-.344c-.043 0-.043-.043 0 0 0-.043 0 0 0 0zm0 1.72l.13.344h.344c.044 0 .044 0 .044.043v.043l-.26.215.087.345c0 .043 0 .043-.043.043h-.043l-.26-.215-.258.215h-.087v-.043l.087-.345-.26-.215s-.042-.043 0-.086h.39l.129-.344c-.043-.043 0-.043 0 0zm0 1.678l.13.344h.344c.044 0 .044 0 .044.043v.043l-.26.215.087.344c0 .043 0 .043-.043.043h-.043l-.26-.215-.258.215h-.087v-.043l.087-.344-.26-.215s-.042-.043 0-.086h.39l.129-.344c-.043 0-.043-.043 0 0z" fill="#F5F5F5"/></g></svg>