<svg xmlns="http://www.w3.org/2000/svg" width="330" height="188" viewBox="0 0 330 188"><g fill="none"><g transform="translate(135.882 122.103)"><ellipse cx="32.444" cy="33.203" fill="#F2F2F2" rx="32.286" ry="32.241"/><path d="M16.996 47.741a4.316 4.316 0 0 1-1.588 1.74 8.88 8.88 0 0 0 2.567.67 1.94 1.94 0 0 0-.314.479 8.117 8.117 0 0 1-2.769-.859 9.351 9.351 0 0 1-2.798.859 1.918 1.918 0 0 0-.307-.46c.9-.106 1.781-.34 2.616-.694a4.888 4.888 0 0 1-1.401-1.429l.07-.026h-.298v-.478h3.785l.105-.018.332.216zm-4.574-.026h-.485v-1.41h1.12a4.849 4.849 0 0 0-.459-.915l.445-.123c.202.28.367.585.493.907l-.411.13h3.02a8.58 8.58 0 0 0 .646-1.179l.52.16c-.188.34-.43.714-.64 1.02h1.188v1.406h-.534v-.947h-4.903v.951zm5.034-2.985a36.527 36.527 0 0 1-5.333.533 1.584 1.584 0 0 0-.12-.436 36.265 36.265 0 0 0 5.09-.515l.363.418zm-3.909 3.314c.358.494.823.902 1.36 1.194a3.792 3.792 0 0 0 1.32-1.194h-2.68zm1.215-1.762a4.012 4.012 0 0 0-.348-1.019l.463-.104c.168.317.293.655.374 1.004l-.49.12zm8.213-.06a5.449 5.449 0 0 0 2.096 1.94c-.136.121-.256.26-.355.411a5.09 5.09 0 0 1-.68-.451v1.866h.93v.459H18.7v-.467h.957v-1.825a6.02 6.02 0 0 1-.695.515 2.655 2.655 0 0 0-.396-.373 5.512 5.512 0 0 0 2.04-2.052h-1.73v-.46h1.737a7.006 7.006 0 0 0-.747-1.227l.437-.186c.32.381.589.803.8 1.253l-.314.16h2.119l-.374-.13c.325-.413.61-.856.848-1.324l.535.164c-.274.452-.58.883-.916 1.29H24.8v.46l-1.824-.023zm.93 1.795a6.491 6.491 0 0 1-1.472-1.795h-1.23a6.602 6.602 0 0 1-1.393 1.795h4.095zm-2.955.444h-.826v1.493h.826v-1.493zm1.304 0h-.819v1.493h.834l-.015-1.493zm1.304 1.493v-1.493h-.84v1.493h.84zm5.687-2.955c-.373.257-.747.5-1.12.72h2.865v2.9h-.527v-.195h-2.81v.22h-.508v-2.399c-.415.202-.848.373-1.27.549a3.027 3.027 0 0 0-.325-.426 13.692 13.692 0 0 0 2.855-1.373h-2.702v-.467h2.373v-.888h-1.783v-.459h1.771v-.865h.509v.865h1.715v.284c.286-.285.551-.59.792-.914l.437.235a10.515 10.515 0 0 1-1.685 1.739h2v.466L29.244 47zm1.222 1.156h-2.81v.687h2.81v-.687zm0 1.818v-.72h-2.81v.72h2.81zm-1.394-3.437c.37-.273.722-.57 1.054-.888h-1.54v.888h.486zm5.837-1.986a9.349 9.349 0 0 1-.747 1.4v4.687h-.52v-3.944a7.84 7.84 0 0 1-.93 1.018 3.358 3.358 0 0 0-.299-.5 7.77 7.77 0 0 0 2.007-2.813l.49.153zm1.831 2.344c.236 1.836.688 3.079 1.431 3.15.202 0 .314-.396.374-1.194.132.106.276.196.43.268-.153 1.187-.43 1.545-.792 1.526-1.121-.082-1.693-1.518-1.958-3.679l-1.667.21-.071-.486 1.682-.209a40.748 40.748 0 0 1-.131-2.052h.515c.023.701.064 1.373.131 1.981l2.078-.261.07.485-2.092.261zm1.562-1.04a7.397 7.397 0 0 0-1.12-1.12l.373-.25c.421.33.805.705 1.143 1.119l-.396.25zm3.423 3.361c-.747.25-1.536.519-2.152.72l-.12-.518c.258-.075.576-.172.93-.291V47.26h-.788v-.485h.792v-1.493h-.86v-.485h2.153v.485h-.814v1.493h.702v.485h-.702v1.713l.747-.25.112.492zm4.144.747v.47h-4.484v-.47h2.111v-.952H41.92v-.47h1.577v-.81h-1.494v-3.086h3.527v3.086h-1.495v.81h1.618v.47h-1.618v.952h1.835zm-3.363-3.993h1.054v-.873h-1.054v.873zm0 1.31h1.054v-.889h-1.054v.889zm2.56-2.183h-1.061v.873h1.06v-.873zm0 1.294h-1.061v.889h1.06v-.889zm4.749-1.858v.317a6.238 6.238 0 0 0 3.05 5.31 1.54 1.54 0 0 0-.374.426 5.687 5.687 0 0 1-2.889-4.008 5.74 5.74 0 0 1-2.776 4.008 1.908 1.908 0 0 0-.415-.396 6.21 6.21 0 0 0 2.859-5.657h.545zM26.902 55.805a4.605 4.605 0 0 1 1.383-3.298l.415.216a4.333 4.333 0 0 0 0 6.168l-.415.213a4.602 4.602 0 0 1-1.383-3.299zm7.938-2.746v4.105h-.569v-.355h-1.737v2.15h-.56v-2.15h-1.757v.373h-.56V53.06h5.182zm-4.623.507v1.12h1.756v-1.12h-1.756zm1.756 2.732v-1.12h-1.756v1.12h1.756zm2.298-2.732h-1.737v1.12h1.733l.004-1.12zm0 2.732v-1.12h-1.737v1.12h1.737zm3.311-.493a4.602 4.602 0 0 1-1.383 3.3l-.414-.214a4.333 4.333 0 0 0 0-6.168l.414-.216a4.605 4.605 0 0 1 1.383 3.298z" fill="#000"/><g fill="#293052"><path d="M36.255 25.56c.34-.306.65-.643.927-1.007a8.451 8.451 0 0 0 1.05-1.817c.03-.075.067-.15.097-.228a2.05 2.05 0 0 0 .867-.746c.294-.439.406-.974.314-1.493a2.1 2.1 0 0 0-.587-1.15 8.571 8.571 0 0 0-.074-.929 8.603 8.603 0 0 0-.553-2.104 7.76 7.76 0 0 0-.34-.72 6.196 6.196 0 0 0-5.66-3.67 6.196 6.196 0 0 0-5.659 3.67 8.36 8.36 0 0 0-.333.701 8.235 8.235 0 0 0-.403 1.273 8.572 8.572 0 0 0-.228 1.686l-.026.026a2.125 2.125 0 0 0-.684 1.818c.022.17.065.336.127.496a2.04 2.04 0 0 0 1.196 1.194c.173.437.383.86.628 1.261.158.259.331.508.519.747.277.36.587.696.927 1 .19.168.39.325.598.47a5.578 5.578 0 0 0 6.707-.022 6.8 6.8 0 0 0 .59-.456zm-8.759-8.49c.089-.263.193-.521.314-.772a4.772 4.772 0 0 1 4.484-3.135 4.772 4.772 0 0 1 4.485 3.135c.123.262.229.531.317.806.076.23.14.462.19.698a3.673 3.673 0 0 1-.6-.198 4.254 4.254 0 0 1-.7-.373 6.097 6.097 0 0 1-1.842-2.011l-.691-1.362-.635 1.392a5.022 5.022 0 0 1-3.767 2.66 9.698 9.698 0 0 1-1.812.198c.06-.352.147-.699.261-1.037h-.004zm7.254 7.811a4.115 4.115 0 0 1-4.948-.022 5.357 5.357 0 0 1-.58-.474 6.085 6.085 0 0 1-.832-.974 6.915 6.915 0 0 1-.815-1.597l-.041-.105-.15-.44-.463-.052a.582.582 0 0 1-.504-.523.615.615 0 0 1 .32-.623l.408-.209v-.269h.434c.443-.017.885-.06 1.322-.13.247-.041.501-.09.748-.153a6.645 6.645 0 0 0 3.856-2.359 7.096 7.096 0 0 0 1.73 1.59 5.166 5.166 0 0 0 1.917.746l.28.045v.538l.352.22c.2.13.307.364.276.6a.586.586 0 0 1-.452.497l-.415.086-.134.399a6.852 6.852 0 0 1-.878 1.746 6.022 6.022 0 0 1-.841.97 5.3 5.3 0 0 1-.587.493h-.003zm-5.224 3.844c-.75.235-1.47.553-2.15.948a9.054 9.054 0 0 0-1.924 1.508 8.018 8.018 0 0 0-.549.615 8.81 8.81 0 0 0-1.947 5.638v1.683h1.469v-1.683a7.33 7.33 0 0 1 1.988-5.123 7.59 7.59 0 0 1 .575-.545c.363-.31.754-.585 1.166-.825a9.56 9.56 0 0 1 2.298-.952l.55-.145V27.46h-1.473l-.003 1.265zm10.47 3.063a9.114 9.114 0 0 0-2.474-2.123 10.69 10.69 0 0 0-2.148-.948V27.46H33.9v2.38l.55.146a9.56 9.56 0 0 1 2.298.952 7.967 7.967 0 0 1 1.741 1.37 7.327 7.327 0 0 1 1.988 5.123v1.683h1.469V37.43a8.814 8.814 0 0 0-1.951-5.643zm-5.953-1.097l-1.6 1.598-1.602-1.598"/><path d="M34.043 37.14l-1.6 1.6-1.602-1.6 1.603-6.038z"/></g></g><path fill="#000" d="M136.695 108.242a14.19 14.19 0 0 1-.99 2v6.602h-.68v-5.56a10.39 10.39 0 0 1-1.08 1.28 4.297 4.297 0 0 0-.408-.698 10.839 10.839 0 0 0 2.489-3.825l.669.201zm5.926 1.564v.6h-6.278v-.6h6.278zm-5.605 4.008h4.936v3.03h-.702v-.43h-3.513v.456h-.699l-.022-3.056zm4.858-2.075h-4.735v-.594h4.746l-.011.594zm-4.742.746h4.723v.582h-4.716l-.007-.582zm4.566-3.414h-4.44v-.594h4.451l-.01.594zm-3.96 5.325v1.433h3.512v-1.426l-3.513-.007zm9.532-4.165h-3.827v-.593h3.83l-.003.593zm-.374 6.105h-2.35v.444h-.643v-3.25h2.99l.003 2.806zm-2.99-5.385h3.012v.571h-3.011v-.57zm0 1.28h3.012v.583h-3.011v-.583zm3.012-3.28h-2.963v-.586h2.963v.586zm-2.38 5.172v1.631h1.7v-1.63h-1.7zm6.823 1.978c.303 0 .374-.302.4-1.493.197.148.422.253.662.31-.079 1.396-.262 1.866-1.01 1.866h-1.274c-.788 0-1.008-.243-1.008-1.172v-2.854l-1.869.29-.108-.679 1.973-.302v-2.582c-.527.116-1.05.213-1.547.291a2.774 2.774 0 0 0-.232-.612 18.876 18.876 0 0 0 3.976-1.049l.602.564c-.677.266-1.373.48-2.082.642v2.612l2.41-.373.128.679-2.538.373v2.985c0 .407.068.485.374.485l1.143.02zm3.812-8.109h.71v8.86h-.71v-3.56a47.447 47.447 0 0 1-1.663 1.552l-.407-.612a45.45 45.45 0 0 0 2.07-1.814v-4.426zm-.691 3.415a10.791 10.791 0 0 0-1.226-1.795l.564-.351c.476.543.896 1.132 1.256 1.758l-.594.388zm4.809.156a6.716 6.716 0 0 0 2.877 4.687 2.833 2.833 0 0 0-.523.601 6.817 6.817 0 0 1-2.69-4.075 6.88 6.88 0 0 1-2.43 4.075 3.516 3.516 0 0 0-.582-.455 6.766 6.766 0 0 0 2.477-4.851h-2.223v-.71h2.242v-2.832h.71v2.833h2.787v.709l-2.645.018zm1.797-1.201a12.388 12.388 0 0 0-1.158-1.72l.545-.31c.447.519.843 1.079 1.185 1.672l-.572.358zm3.737 1.888a8.6 8.6 0 0 0-1.943-.952l.374-.552a8.518 8.518 0 0 1 1.954.885l-.385.62zm.923 1.28a45.174 45.174 0 0 1-1.868 3.232l-.602-.467a28.507 28.507 0 0 0 1.973-3.213l.497.448zm-.456-3.91a7.054 7.054 0 0 0-1.79-1.008l.374-.534a7.029 7.029 0 0 1 1.808.933l-.392.608zm5.568 6.53c.243 0 .291-.224.321-1.467.19.135.405.231.632.284-.068 1.436-.254 1.813-.893 1.813h-.953c-.718 0-.893-.224-.893-.97v-3.414h-1.121c-.109 2.239-.467 3.686-2.422 4.478a2.299 2.299 0 0 0-.437-.583c1.79-.668 2.051-1.91 2.149-3.9h-1.032v-3.932h5.026v3.937H169.8v3.407c0 .29.037.347.28.347h.78zm-3.954-4.426h3.588v-2.612h-3.588v2.612zm9.843 3.933c.278-.02.553-.058.826-.116a2.882 2.882 0 0 0 2.44-2.843 2.662 2.662 0 0 0-2.556-2.784 20.295 20.295 0 0 1-.572 2.765c-.594 1.97-1.36 2.986-2.242 2.986-.882 0-1.719-.99-1.719-2.572a4.108 4.108 0 0 1 4.197-3.907 3.497 3.497 0 0 1 2.616.965c.7.67 1.09 1.6 1.076 2.57a3.648 3.648 0 0 1-3.625 3.667l-.441-.73zm-.632-3.146c.252-.846.43-1.713.535-2.59a3.36 3.36 0 0 0-2.99 3.105c0 1.213.565 1.747.983 1.747.419 0 .983-.638 1.484-2.258l-.012-.004zm14.738 3.941h-3.976v.418h-.68v-4.601c-.164.164-.34.31-.515.455a4.66 4.66 0 0 0-.438-.455v3.414h-1.868v.747h-.594v-3.124a6.32 6.32 0 0 1-.546.94 4.477 4.477 0 0 0-.407-.667 10.584 10.584 0 0 0 1.371-4.262h-1.098v-.66h3.411v.66h-1.629a18.077 18.077 0 0 1-.437 2.153h1.797v.66a6.681 6.681 0 0 0 1.973-2.522h-1.05v1.03h-.631V109h1.943c.127-.323.235-.653.321-.99l.692.139c-.086.291-.176.582-.273.855h2.586v1.649h-.65v-1.03h-2.198a8.58 8.58 0 0 1-.788 1.448h1.184c.17-.373.315-.755.438-1.146l.68.164c-.157.333-.322.68-.467.982h1.535v.612h-1.681v.989h1.524v.545h-1.524v1.03h1.524v.563h-1.524v1.008h1.984l.011.634zm-6.221-4.355h-1.256v2.952h1.256v-2.952zm3.557-.425h-1.312v.989h1.312v-.99zm0 1.552h-1.312v1.03h1.312v-1.03zm-1.312 2.612h1.312v-1.007h-1.312v1.007zm8.251-5.605h-3.434v-.593h3.442l-.008.593zm-.261 6.105h-2.15v.444h-.612v-3.25h2.762v2.806zm0-4.814h-2.74v-.57h2.74v.57zm-2.74.71h2.74v.582h-2.74v-.583zm2.713-3.28h-2.664v-.587h2.664v.586zm-2.107 5.171v1.631h1.524v-1.63h-1.524zm2.216 1.903c.46-.617.728-1.357.77-2.127l.582.146c-.03.84-.319 1.65-.825 2.321l-.527-.34zm3.441-4.504a9.718 9.718 0 0 0-1.001-.62 3.824 3.824 0 0 1-1.768 1.755 2.314 2.314 0 0 0-.426-.504 3.294 3.294 0 0 0 1.596-1.549c-.41-.198-.832-.372-1.263-.522l.374-.504c.373.116.747.28 1.12.448a6.63 6.63 0 0 0 .225-.963h-1.633v-.62h4.637v.303c-.086 2.28-.183 3.123-.426 3.407a.692.692 0 0 1-.571.28 8.835 8.835 0 0 1-1.122 0 1.562 1.562 0 0 0-.183-.65c.438.038.845.038 1.002.038.157 0 .254 0 .31-.097.164-.175.254-.855.329-2.65h-1.644a7.764 7.764 0 0 1-.303 1.25c.386.192.76.406 1.121.642l-.374.556zm.135 4.657c.254 0 .303-.138.329-1.119.18.133.384.23.601.284-.067 1.164-.243 1.455-.855 1.455h-1.08c-.718 0-.893-.194-.893-.914v-2.333h.672v2.329c0 .243.038.284.322.284l.904.014zm-1.3-3.91a6.88 6.88 0 0 1 1.73 1.261l-.449.478a7.51 7.51 0 0 0-1.7-1.31l.418-.43zm2.41 1.455a6.642 6.642 0 0 1 1.098 2.31l-.631.261a7.119 7.119 0 0 0-1.05-2.34l.583-.23z"/><path fill="#E98024" d="M169.283 95.82V77.16h4.406l-5.49-5.481-5.49 5.481h4.407v18.66h-4.406l5.49 5.481 5.489-5.481h-3.621z"/><path fill="#000" d="M245.954 108.242a14.19 14.19 0 0 1-.99 2v6.602h-.68v-5.56a10.39 10.39 0 0 1-1.08 1.28 4.297 4.297 0 0 0-.408-.698 10.839 10.839 0 0 0 2.489-3.825l.669.201zm5.926 1.564v.6h-6.277v-.6h6.277zm-5.605 4.008h4.936v3.03h-.698v-.43H247v.456h-.699l-.026-3.056zm4.858-2.075h-4.73v-.594h4.741l-.011.594zm-4.742.746h4.72v.582h-4.709l-.01-.582zm4.566-3.414h-4.439v-.594h4.45l-.01.594zM247 114.396v1.433h3.516v-1.426l-3.516-.007zm9.529-4.165h-3.83v-.593h3.83v.593zm-.374 6.105h-2.35v.444h-.643v-3.25h2.99l.003 2.806zm-2.99-5.385h3.013v.571h-3.012v-.57zm0 1.28h3.013v.583h-3.012v-.583zm3.013-3.28h-2.964v-.586h2.964v.586zm-2.38 5.172v1.631h1.7v-1.63h-1.7zm6.823 1.978c.302 0 .373-.302.4-1.493.196.148.421.253.66.31-.078 1.396-.26 1.866-1.008 1.866h-1.274c-.789 0-1.01-.243-1.01-1.172v-2.854l-1.868.29-.108-.679 1.973-.302v-2.582c-.527.116-1.05.213-1.547.291a2.774 2.774 0 0 0-.232-.612 18.876 18.876 0 0 0 3.976-1.049l.602.564a14.55 14.55 0 0 1-2.081.642v2.612l2.41-.373.127.679-2.537.373v2.985c0 .407.067.485.373.485l1.144.02zm3.811-8.109h.71v8.86h-.71v-3.56a47.447 47.447 0 0 1-1.663 1.552l-.407-.612a45.45 45.45 0 0 0 2.07-1.814v-4.426zm-.691 3.415a10.791 10.791 0 0 0-1.226-1.795l.564-.351c.476.543.897 1.132 1.256 1.758l-.594.388zm4.81.156a6.716 6.716 0 0 0 2.876 4.687 2.833 2.833 0 0 0-.523.601 6.817 6.817 0 0 1-2.69-4.075 6.88 6.88 0 0 1-2.43 4.075 3.516 3.516 0 0 0-.582-.455 6.766 6.766 0 0 0 2.477-4.851h-2.204v-.71h2.242v-2.832h.71v2.833h2.787v.709l-2.664.018zm1.796-1.201a12.388 12.388 0 0 0-1.158-1.72l.546-.31c.446.519.842 1.079 1.184 1.672l-.572.358zm3.737 1.888a8.6 8.6 0 0 0-1.943-.952l.374-.552a8.518 8.518 0 0 1 1.954.885l-.385.62zm.923 1.28a45.174 45.174 0 0 1-1.868 3.232l-.602-.467a28.507 28.507 0 0 0 1.973-3.213l.497.448zm-.456-3.91a7.054 7.054 0 0 0-1.79-1.008l.374-.534a7.029 7.029 0 0 1 1.809.933l-.393.608zm5.568 6.53c.243 0 .292-.224.321-1.467.19.135.405.231.632.284-.067 1.436-.254 1.813-.893 1.813h-.953c-.717 0-.893-.224-.893-.97v-3.414h-1.121c-.108 2.239-.467 3.686-2.422 4.478a2.299 2.299 0 0 0-.437-.583c1.79-.668 2.052-1.91 2.149-3.9h-1.031v-3.932h5.026v3.937h-1.44v3.407c0 .29.038.347.281.347h.781zm-3.972-4.426h3.587v-2.612h-3.587v2.612zm9.873 3.933c.277-.02.553-.058.825-.116a2.882 2.882 0 0 0 2.44-2.843 2.662 2.662 0 0 0-2.556-2.784 20.295 20.295 0 0 1-.571 2.765c-.594 1.97-1.36 2.986-2.242 2.986-.882 0-1.72-.99-1.72-2.572a4.108 4.108 0 0 1 4.22-3.91 3.497 3.497 0 0 1 2.616.964c.7.67 1.09 1.601 1.075 2.57a3.648 3.648 0 0 1-3.624 3.668l-.464-.728zm-.632-3.146c.252-.846.43-1.713.534-2.59a3.36 3.36 0 0 0-2.99 3.105c0 1.213.565 1.747.984 1.747.418 0 .975-.638 1.472-2.258v-.004zm8.378-1.907h1.79v.62h-1.01l.468.127c-.176.448-.374.914-.535 1.254h.96v.612h-1.67v1.048h1.544v.612h-1.544v1.97h-.68v-1.97h-1.591v-.612h1.591v-1.048H291.4v-.631h.953a5.365 5.365 0 0 0-.407-1.254l.475-.127h-1.155v-.6h1.827v-.963h-1.495v-.62h1.495v-.992h.68v.981h1.42v.62h-1.42l-.007.973zm.145 1.892c.186-.414.345-.839.479-1.272h-1.895c.21.403.362.834.449 1.28l-.34.097h1.681l-.374-.105zm5.95-.62a8.922 8.922 0 0 1-1.178 3.191c.423.511.945.93 1.536 1.232-.188.174-.355.37-.497.582a5.379 5.379 0 0 1-1.438-1.231 5.684 5.684 0 0 1-1.3 1.253 2.614 2.614 0 0 0-.457-.477v.466h-.661v-8.433h3.77v1.866c0 .373-.067.552-.373.66a5.744 5.744 0 0 1-1.518.108 2.237 2.237 0 0 0-.224-.63c.602.018 1.121.018 1.256 0 .134-.02.194-.038.194-.153v-1.198h-2.44v2.612h2.761l.127-.03.441.183zm-3.334 4.512c.52-.35.975-.79 1.342-1.298a9.614 9.614 0 0 1-1.256-2.747h-.086v4.045zm.699-4.048a8.55 8.55 0 0 0 1.02 2.145 8.005 8.005 0 0 0 .837-2.145h-1.857zm12.44-.75v.679h-8.483v-.68h4.073v-1.522h-2.391a7.919 7.919 0 0 1-.923 1.299 5.94 5.94 0 0 0-.65-.374 7.495 7.495 0 0 0 1.681-2.873l.718.164c-.14.382-.3.755-.479 1.12h2.033v-1.41h.747v1.395h2.956v.66h-2.956v1.523l3.674.019zm-7.298 1.63h6.162v3.732h-.748v-.522h-4.693v.54h-.717l-.004-3.75zm.717.668v1.866h4.712v-1.866h-4.712z"/><path fill="#E98024" d="M206.707 134.297l66.5-66.409L276.322 71v-7.754h-7.765l3.116 3.112-66.5 66.409-.553-.556-2.56-2.557v7.755h7.762l-2.56-2.56z"/><g transform="translate(264)"><ellipse cx="33.114" cy="32.684" fill="#F2F2F2" rx="32.286" ry="32.241"/><path d="M28.454 44.274v5.747h-.542v-.422h-3.434v.452h-.52v-5.777h4.496zm-3.983.508v1.866h3.441v-1.866h-3.441zm3.441 4.31v-1.926h-3.434V49.1l3.434-.007zm4.529-3.709h-2.507v-.422h2.507v.422zm-.209 4.422h-1.536v.313h-.452v-2.314h1.984l.004 2zm-.03-3.482H30.26v-.41h1.943v.41zm-1.943.534h1.943v.41H30.26v-.41zm1.936-2.407H30.3v-.415h1.895v.415zM30.7 48.222v1.15h1.084v-1.15H30.7zm5.605 1.172v.493h-3.864v-.482h.52v-3.444h.485v3.444h.834v-4.702h-1.61v-.477h3.527v.477H34.78v1.907h1.376v.485H34.78v2.31l1.525-.01zm3.987.052h2.713v.46H37.12v-.46h2.638v-1.712h-2.324v-.452h2.324v-.93h-1.431v-.395a9.262 9.262 0 0 1-1.144.72 1.66 1.66 0 0 0-.314-.403 7.777 7.777 0 0 0 2.874-2.489h.512a8.17 8.17 0 0 0 3.012 2.4c-.13.139-.24.293-.333.459a8.824 8.824 0 0 1-1.158-.72v.429H40.28v.929h2.38v.452h-2.38l.011 1.712zm-1.868-1.526c.283.375.504.792.658 1.235l-.445.202a4.848 4.848 0 0 0-.632-1.276l.419-.16zm3.31-2.022a8.13 8.13 0 0 1-1.707-1.609 7.573 7.573 0 0 1-1.626 1.609h3.334zm-.866 3.283a8.04 8.04 0 0 0 .747-1.276l.486.187c-.254.439-.538.86-.848 1.261l-.385-.172zm-19.226 3.101a10.07 10.07 0 0 1-.706 1.43v4.713h-.486V54.45a7.54 7.54 0 0 1-.77.914 3.089 3.089 0 0 0-.291-.5 7.738 7.738 0 0 0 1.778-2.732l.475.15zm4.234 1.12v.43h-4.484v-.434l4.484.004zm-3.991 2.862h3.527v2.164H24.9v-.306h-2.514v.325h-.501v-2.183zm3.464-1.493h-3.39v-.421h3.39v.421zm-3.39.534h3.364v.418H21.96v-.418zm3.263-2.44h-3.18v-.422h3.184l-.004.422zm-2.84 3.806v1.019h2.511v-1.02h-2.511zm6.816-2.981h-2.736v-.422h2.736v.421zm-.277 4.358H27.24v.313h-.46v-2.313h2.138l.003 2zm-2.13-3.848h2.153v.43H26.79v-.43zm0 .915h2.153v.418H26.79v-.418zm2.153-2.344h-2.12v-.414h2.12v.414zm-1.7 3.695v1.164h1.214v-1.164h-1.215zM32.1 57.88c.217 0 .258-.217.284-1.075.14.105.3.18.471.22-.056.997-.187 1.336-.721 1.336h-.908c-.56 0-.721-.171-.721-.84v-2.037l-1.334.21-.075-.486 1.409-.216V53.17c-.374.082-.748.153-1.121.209a1.98 1.98 0 0 0-.169-.437 13.467 13.467 0 0 0 2.84-.746l.43.403c-.486.19-.985.344-1.495.459v1.865l1.723-.265.09.486-1.813.276v2.12c0 .29.049.346.277.346l.833-.007zm4.16-.183c-.938.202-1.943.396-2.672.541l-.12-.466c.333-.056.748-.138 1.223-.22v-2.109H33.57v-.44h1.12v-.747h-.784v-.298c-.09.09-.187.18-.284.261a1.867 1.867 0 0 0-.325-.332 5.024 5.024 0 0 0 1.353-1.776h.46c.464.385.89.815 1.27 1.283l-.348.396a8.15 8.15 0 0 0-1.09-1.202 6.21 6.21 0 0 1-.901 1.236h1.943v.432h-.856v.747h1.035v.451h-1.035v2.023l1.084-.21.048.43zm-2.2-1.866c.152.41.257.835.313 1.269l-.373.112a5.296 5.296 0 0 0-.284-1.287l.343-.094zm1.296 1.18c.135-.414.246-.835.333-1.262l.403.123c-.13.422-.291.93-.418 1.254l-.318-.116zm4.346-1.02a9.23 9.23 0 0 1-1.05.81c.273.525.703.951 1.23 1.22a2.053 2.053 0 0 0-.34.43 4.369 4.369 0 0 1-1.888-3.097h-.631v2.28l1.285-.306.049.47c-.785.209-1.618.414-2.242.56l-.146-.493.583-.123V52.39h2.873v2.985h-1.308c.086.362.2.716.34 1.06.316-.234.613-.49.89-.769l.355.325zm-2.68-3.126v.768h1.91v-.768h-1.91zm0 2.037h1.91v-.817h-1.91v.817zm5.658-1.131a8.699 8.699 0 0 1-.747 1.049v3.646h-.516v-3.09a8.041 8.041 0 0 1-.785.72 4.808 4.808 0 0 0-.373-.429 7.572 7.572 0 0 0 1.943-2.086l.478.19zm-.265-1.459a8.51 8.51 0 0 1-1.779 1.72 4.441 4.441 0 0 0-.306-.41 6.913 6.913 0 0 0 1.588-1.493l.497.183zm4.256 2.612h-1.05v2.863c0 .317-.075.477-.307.56-.43.078-.868.103-1.304.074a1.823 1.823 0 0 0-.168-.5h1.084c.134 0 .172-.034.172-.153v-2.855h-2.31v-.492h3.887l-.004.503zm-.202-1.899h-3.39v-.485h3.39v.485z" fill="#000"/><path fill="#293052" d="M27.901 21.172h2.904v3.153c.309-.274.664-.49 1.05-.638v-3.564h-5v14.968h1.315v-1.049h-.269v-12.87zm3.416 6.008v.798h.538v-1.922c-.332.281-.528.69-.538 1.124zm4.372-7.053h-1.05v3.53c.386.143.742.357 1.05.63V21.16h2.903v12.87h-.288v1.05h1.346V20.127h-3.961zm-1.039 7.851h.508v-.798a1.566 1.566 0 0 0-.508-1.12v1.918z"/><path fill="#293052" d="M46.985 21.172v-4.624l-13.733-5.683-13.732 5.683v4.624h3.49v12.87h-3.49v4.542h27.46V34.03h-3.49V21.17h3.494zm-3.49 13.919h2.44v2.455H20.57v-2.455h3.49V20.127h-3.49V17.25L33.252 12l12.683 5.25v2.877h-3.49v14.967l1.05-.003z"/><path fill="#E88024" d="M37.183 28.97H36.4v-1.79a3.043 3.043 0 0 0-3.042-3.038h-.213a3.043 3.043 0 0 0-3.042 3.038v1.79h-.766a.448.448 0 0 0-.448.449v6.127a.447.447 0 0 0 .448.448h7.847c.248 0 .449-.2.449-.448v-6.127a.447.447 0 0 0-.449-.448zm-3.68 3.61v1.387h-.501V32.58a.746.746 0 1 1 .5 0zm2.268-3.61h-5.037v-1.79a2.412 2.412 0 0 1 2.41-2.404h.213a2.412 2.412 0 0 1 2.414 2.411v1.784z"/></g><path fill="#000" d="M226.448 3.293a14.19 14.19 0 0 1-.99 2v6.598h-.68v-5.56a10.39 10.39 0 0 1-1.08 1.28 4.35 4.35 0 0 0-.408-.698 10.82 10.82 0 0 0 2.49-3.825l.668.205zm5.926 1.564v.6h-6.3v-.6h6.3zm-5.605 4.008h4.937v3.026h-.718v-.425h-3.516v.455h-.699l-.004-3.056zm4.858-2.075h-4.75v-.593h4.743l.007.593zm-4.742.746h4.723v.582h-4.73l.007-.582zm4.566-3.414h-4.457v-.594h4.45l.007.594zm-3.975 5.329v1.425h3.516V9.451h-3.516zm9.528-4.187h-3.83V4.67h3.83v.594zm-.373 6.105h-2.35v.447h-.658v-3.25h2.989l.019 2.803zm-2.99-5.385h3.012v.57h-3.012v-.57zm0 1.28h3.012v.582h-3.012v-.582zm3.012-3.28h-2.963v-.582h2.963v.582zm-2.38 5.172v1.63h1.7v-1.63h-1.7zm6.823 1.978c.303 0 .374-.303.4-1.493.197.147.422.253.661.31-.078 1.395-.261 1.865-1.009 1.865h-1.285c-.789 0-1.009-.242-1.009-1.175V7.786l-1.868.291-.109-.679 1.973-.302V4.543c-.527.116-1.05.213-1.547.291a2.781 2.781 0 0 0-.231-.612 18.85 18.85 0 0 0 3.975-1.048l.602.563a14.14 14.14 0 0 1-2.081.642v2.612l2.41-.373.127.68-2.537.373v2.985c0 .407.067.485.373.485l1.155-.007zm-15.608 47.022a2.943 2.943 0 0 0 2.507 1.086c1.057.037 3.236 0 4.383-.067-.11.238-.192.489-.243.746-1.057.037-3.071.06-4.14.019a3.541 3.541 0 0 1-2.818-1.146c-.437.407-.893.825-1.378 1.243l-.374-.717a15 15 0 0 0 1.379-1.12v-2.45h-1.233v-.68h1.935l-.018 3.086zm-.284-4.646a7.069 7.069 0 0 0-1.566-1.59l.534-.425a6.894 6.894 0 0 1 1.585 1.552l-.553.463zm2.264.903a7.142 7.142 0 0 1-1.121 4.105 1.868 1.868 0 0 0-.583-.4 6.74 6.74 0 0 0 1.031-4.141v-2.24h5.21v.669h-4.526v1.358h3.606l.135-.03.46.15a6.949 6.949 0 0 1-1.604 3.104c.654.568 1.428.98 2.265 1.205a2.24 2.24 0 0 0-.467.62 6.104 6.104 0 0 1-2.295-1.329 6.807 6.807 0 0 1-2.077 1.243 3.15 3.15 0 0 0-.408-.6 5.607 5.607 0 0 0 1.992-1.158 7.602 7.602 0 0 1-1.39-2.57l-.228.014zm.904 0a6.3 6.3 0 0 0 1.207 2.097 6.062 6.062 0 0 0 1.226-2.097h-2.433zm6.798 3.762c.58.751 1.5 1.16 2.447 1.086 1.069.048 3.303.018 4.484-.06a2.61 2.61 0 0 0-.231.709c-1.088.048-3.14.067-4.227.019a3.391 3.391 0 0 1-2.75-1.146c-.426.418-.874.825-1.349 1.243l-.374-.69c.468-.35.916-.723 1.342-1.12v-2.467h-1.233v-.679h1.913l-.022 3.105zm-.296-4.665a7.165 7.165 0 0 0-1.535-1.62l.553-.406c.6.444 1.128.977 1.565 1.582l-.583.444zm7.067.855h-6.443v-.545h6.443v.545zm-3.685 4.578v-1.739a9.303 9.303 0 0 1-2.178 1.3 4.386 4.386 0 0 0-.438-.535 8.048 8.048 0 0 0 2.46-1.406h-1.78v-1.736h4.813v1.553l.03-.03.516.35c-.41.354-.845.678-1.3.97.49.237 1.009.41 1.543.516a2.874 2.874 0 0 0-.419.552 6.165 6.165 0 0 1-2.567-1.358v1.582l-.68-.019zm3.169-5.597h-5.403V51.51h5.403v1.836zm-3.82-1.329h-.96v.904h.96v-.904zm-.612 4.105h3.43v-.824h-3.43v.824zm2.197-4.105h-1.001v.904h1.001v-.904zm-.254 4.602c.276.317.6.589.96.806.364-.264.71-.55 1.04-.855h-1.992l-.008.049zm1.839-4.602h-1.01v.904h1.01v-.904z"/><path fill="#E98024" d="M222.039 23.997v-4.4l-5.49 5.482 5.49 5.481v-4.4h25.996v-2.163zm20.578 15.255v-4.4l5.493 5.482-5.493 5.481v-4.4h-25.993v-2.163z"/><g transform="translate(135.882)"><ellipse cx="32.444" cy="32.684" fill="#F2F2F2" rx="32.286" ry="32.241"/><g fill="#2A3052"><path d="M41.214 38.584H23.678v-27.72h17.54l-.004 27.72zm-16.158-1.381h14.78V12.242H25.052l.003 24.96z"/><path d="M27.433 25.668h3.845v3.84h-3.845zm6.177 0h3.845v3.84H33.61zm-6.177 5.714h3.845v3.84h-3.845zm6.177 0h3.845v3.84H33.61zm-6.177-17.14h3.845v3.84h-3.845zm6.177 0h3.845v3.84H33.61zm-6.177 5.713h3.845v3.84h-3.845zm6.177 0h3.845v3.84H33.61z"/></g><path d="M22.93 49.6v-4.93h1.61c.43-.025.855.091 1.211.332.301.242.464.615.438 1a.906.906 0 0 1-.21.586 1.244 1.244 0 0 1-.553.373c.28.053.531.209.703.437.171.229.262.508.258.795.024.394-.14.777-.441 1.033-.342.26-.763.392-1.192.373H22.93zm.669-2.833h1.08c.22.01.436-.064.605-.205a.824.824 0 0 0-.018-1.168 1.156 1.156 0 0 0-.725-.198h-.942v1.571zm0 .526v1.784h1.155c.256.016.509-.064.71-.224a.802.802 0 0 0 .254-.634 1.003 1.003 0 0 0-.213-.68.815.815 0 0 0-.654-.246h-1.252zm4.35-2.295h-.67v-.679h.67V45zm0 4.601h-.67v-3.664h.67v3.664zm1.621-3.664l.049.545a1.33 1.33 0 0 1 .46-.452c.19-.109.407-.164.627-.16a1.2 1.2 0 0 1 .92.347c.24.303.356.686.325 1.07V49.6h-.67v-2.298a.992.992 0 0 0-.19-.687.77.77 0 0 0-.586-.201.939.939 0 0 0-.512.138 1 1 0 0 0-.355.373v2.672h-.67v-3.661h.602zm5.606 3.665a5.37 5.37 0 0 1-.053-.292 2.076 2.076 0 0 1-.022-.257 1.55 1.55 0 0 1-.486.44 1.25 1.25 0 0 1-.646.18 1.197 1.197 0 0 1-.875-.296 1.078 1.078 0 0 1-.299-.806.947.947 0 0 1 .426-.82 1.99 1.99 0 0 1 1.155-.295h.725v-.373a.671.671 0 0 0-.198-.508.77.77 0 0 0-.557-.187.8.8 0 0 0-.523.165.492.492 0 0 0-.202.395h-.639v-.018a.888.888 0 0 1 .374-.747c.291-.23.656-.347 1.027-.332.361-.017.717.095 1.002.317.258.23.396.566.373.91v1.766c0 .124.006.249.02.373.012.127.037.251.074.373l-.676.011zm-1.122-.49c.232.003.46-.062.654-.186a.881.881 0 0 0 .374-.425v-.586h-.747a.972.972 0 0 0-.647.201.604.604 0 0 0-.243.478.5.5 0 0 0 .154.373.64.64 0 0 0 .467.142l-.012.004zm4.421-2.586l-.344-.022a.767.767 0 0 0-.444.127.81.81 0 0 0-.28.35v2.613h-.65v-3.657h.597l.064.534c.088-.175.216-.327.373-.445a.905.905 0 0 1 .527-.16.82.82 0 0 1 .142 0l.112.026-.097.634zm1.824 1.717l.12.459h.018l.9-2.765h.748l-1.543 4.217a1.895 1.895 0 0 1-.4.641.916.916 0 0 1-.7.273 1.497 1.497 0 0 1-.205 0l-.194-.034.067-.526h.3a.411.411 0 0 0 .336-.179c.093-.13.17-.272.228-.422l.16-.373-1.364-3.59h.748l.78 2.299zM20.8 55.846c-.097-.235-.34-.686-.542-1.052v3.653h-.504v-3.38a7.715 7.715 0 0 1-.867 1.98 2.5 2.5 0 0 0-.284-.5 7.342 7.342 0 0 0 1.099-2.611h-.938v-.486h.994v-1.332h.508v1.332h.882v.486h-.882v.227c.187.258.747 1.12.856 1.325l-.322.358zm2.84-.269c.33.8.841 1.512 1.495 2.079a1.85 1.85 0 0 0-.374.396 6.537 6.537 0 0 1-1.416-2.157v2.552h-.508v-2.489a5.972 5.972 0 0 1-1.686 2.15 1.883 1.883 0 0 0-.355-.396 5.293 5.293 0 0 0 1.75-2.135h-1.353v-.47h1.644v-1.224h-.86c-.106.358-.258.7-.452 1.019a1.95 1.95 0 0 0-.426-.272 5.465 5.465 0 0 0 .71-2.206l.478.082c-.048.306-.112.605-.179.888h.747v-1.29h.509v1.29h1.352v.49h-1.375v1.22h1.596v.47l-1.297.003zm6.18-1.664c.176 2.329.714 4.012 1.402 4.012.187 0 .27-.373.314-1.303.134.123.29.22.46.284-.09 1.198-.284 1.552-.811 1.552-1.121 0-1.7-1.989-1.887-4.549h-3.584v-.507h3.546c-.022-.41-.026-.832-.033-1.254h.541c0 .43 0 .847.03 1.254h2.056v.507l-2.033.004zm-2.122 3.426c.486-.105.987-.202 1.495-.314l.041.46c-1.173.275-2.444.567-3.326.746l-.16-.508 1.45-.29V55.42H25.96v-.5h3.041v.5h-1.296l-.008 1.918zm3.505-4.012a6.006 6.006 0 0 0-.986-.865l.347-.284c.361.239.696.515.998.825l-.359.324zm4.72-1.197a7.472 7.472 0 0 0 3.027 2.369 2.762 2.762 0 0 0-.333.459 8.514 8.514 0 0 1-2.93-2.336 7.938 7.938 0 0 1-2.866 2.362 1.62 1.62 0 0 0-.299-.41 7.299 7.299 0 0 0 2.874-2.448l.527.003zm-3.042 3.444h5.706v.477h-3.255c-.242.515-.541 1.12-.818 1.594.86-.026 1.839-.064 2.81-.105-.286-.33-.591-.643-.915-.936l.437-.235a9.24 9.24 0 0 1 1.63 1.81l-.464.283a4.437 4.437 0 0 0-.318-.466c-1.7.082-3.498.16-4.686.201l-.07-.507c.298 0 .646 0 1.02-.03.285-.521.535-1.061.747-1.616H32.88v-.47zm4.462-1.318v.47h-3.285v-.47h3.285zm4.723 2.198c-.18-.201-.56-.59-.874-.88v2.87h-.508v-2.695a6.9 6.9 0 0 1-1.062.858 2.343 2.343 0 0 0-.269-.466 6.008 6.008 0 0 0 2.171-2.273h-1.928v-.47h1.091v-1.291h.508v1.291h.606l.09-.022.291.194a6.443 6.443 0 0 1-.897 1.493c.318.257.93.79 1.121.944l-.34.447zm3.827 1.288v.507h-3.905v-.507h1.756v-2.877h-1.495v-.497h1.495V52.17h.516v2.198h1.494v.5H44.26v2.878l1.633-.004z" fill="#000"/></g><path fill="#000" d="M88.875 8.357a3.66 3.66 0 0 0-.194 1.086c0 .746.747 1.232 2.276 1.232a12.53 12.53 0 0 0 3.295-.374v.825c-1.076.247-2.18.36-3.284.34-1.955 0-3.09-.65-3.09-1.866a5.33 5.33 0 0 1 .205-1.34l.792.097zm-.4-3.88c.845.092 1.695.134 2.545.126a28.3 28.3 0 0 0 2.593-.134v.795c-.65.048-1.7.115-2.593.115-.96 0-1.779-.037-2.545-.108v-.795zm6.24.242l-.522.242a10.26 10.26 0 0 0-.796-1.358l.523-.213c.29.431.556.879.796 1.34v-.011zm1.1-.4l-.535.232c-.23-.47-.5-.918-.807-1.34l.516-.224c.3.432.576.88.825 1.344V4.32zm4.928-.667a8.304 8.304 0 0 0 4.032 7.638 3.443 3.443 0 0 0-.583.601 8.374 8.374 0 0 1-3.856-5.4 8.583 8.583 0 0 1-3.879 5.415 4.662 4.662 0 0 0-.65-.571 7.859 7.859 0 0 0 3.935-5.784l.426.067a12.864 12.864 0 0 1-.127-1.243h-2.392V3.66l3.094-.007zm9.585 7.318h3.8v.641h-8.243v-.642h3.692V8.574h-3.255v-.631h3.255V6.64h-2.003v-.553c-.51.375-1.045.711-1.603 1.008-.116-.21-.263-.4-.437-.564a10.888 10.888 0 0 0 4.024-3.485h.718a11.45 11.45 0 0 0 4.218 3.359 3.34 3.34 0 0 0-.467.641 12.297 12.297 0 0 1-1.621-1.007v.6h-2.078v1.303h3.333v.63h-3.333v2.396zm-2.616-2.135c.397.524.708 1.107.923 1.728l-.62.28a6.743 6.743 0 0 0-.886-1.788l.583-.22zm4.638-2.833a11.424 11.424 0 0 1-2.392-2.239 10.632 10.632 0 0 1-2.276 2.24h4.668zm-1.219 4.594c.4-.563.748-1.161 1.04-1.787l.68.26a16.007 16.007 0 0 1-1.185 1.766l-.535-.239zM88.875 56.563a3.66 3.66 0 0 0-.194 1.086c0 .746.747 1.231 2.276 1.231 1.11.022 2.218-.103 3.295-.373v.825c-1.076.246-2.18.36-3.284.34-1.955 0-3.09-.65-3.09-1.867.011-.453.08-.903.205-1.34l.792.098zm-.4-3.881c.845.092 1.695.135 2.545.127.923 0 1.906-.068 2.593-.135v.795c-.65.049-1.7.116-2.593.116a27.6 27.6 0 0 1-2.545-.108v-.795zm6.24.242l-.522.243c-.23-.473-.496-.927-.796-1.358l.523-.213c.29.427.556.87.796 1.328zm1.1-.399l-.528.239c-.229-.47-.5-.918-.807-1.34l.516-.224c.297.426.57.869.818 1.325zm8.25 3.597V60.1h-.747v-.582h-6.054v.6h-.717v-3.996h.717v2.687h2.594V55.5h-2.945v-3.317h.717v2.612h2.243v-3.486h.747v3.486h2.332v-2.612h.747V55.5h-3.08v3.31h2.732v-2.687zm6.263 3.042h3.8v.641h-8.243v-.641h3.692v-2.396h-3.255v-.646h3.255V54.82h-2.003v-.552c-.51.374-1.045.71-1.603 1.007a2.32 2.32 0 0 0-.437-.563 10.888 10.888 0 0 0 4.024-3.486h.718a11.45 11.45 0 0 0 4.218 3.359c-.18.194-.338.41-.467.642a12.297 12.297 0 0 1-1.621-1.008v.6h-2.078v1.303h3.333v.63h-3.333v2.412zm-2.616-2.135c.397.524.708 1.107.923 1.728l-.62.28a6.743 6.743 0 0 0-.886-1.788l.583-.22zm4.638-2.832a11.424 11.424 0 0 1-2.392-2.24 10.632 10.632 0 0 1-2.276 2.24h4.668zm-1.215 4.6c.4-.562.748-1.16 1.039-1.787l.68.262a16.007 16.007 0 0 1-1.185 1.765l-.534-.24z"/><path fill="#E98024" d="M89.9 23.997v-4.4l-5.49 5.482 5.49 5.481v-4.4h25.992v-2.163zm20.577 15.255v-4.4l5.49 5.482-5.49 5.481v-4.4H84.485v-2.163z"/><ellipse cx="32.286" cy="32.684" fill="#F2F2F2" rx="32.286" ry="32.241"/><path d="M36.097 25.041c.34-.306.65-.643.927-1.007a8.451 8.451 0 0 0 1.05-1.817c.03-.075.067-.15.097-.228a2.05 2.05 0 0 0 .867-.746c.293-.439.406-.974.314-1.493a2.1 2.1 0 0 0-.587-1.15 8.571 8.571 0 0 0-.075-.929 8.603 8.603 0 0 0-.553-2.104 7.76 7.76 0 0 0-.34-.72 6.502 6.502 0 0 0-5.66-3.665 6.506 6.506 0 0 0-5.662 3.665 8.36 8.36 0 0 0-.333.701 8.235 8.235 0 0 0-.403 1.273 8.572 8.572 0 0 0-.228 1.686l-.026.026a2.125 2.125 0 0 0-.684 1.818c.022.17.065.336.127.496a2.04 2.04 0 0 0 1.196 1.194c.173.437.383.86.627 1.261.159.26.332.508.52.747.277.361.587.696.927 1 .19.168.39.325.598.47a5.578 5.578 0 0 0 6.703.004 6.8 6.8 0 0 0 .598-.482zm-8.755-8.474a6.55 6.55 0 0 1 .314-.773 5.093 5.093 0 0 1 4.484-3.127 5.074 5.074 0 0 1 4.484 3.131 7.057 7.057 0 0 1 .508 1.504 3.673 3.673 0 0 1-.601-.198 4.254 4.254 0 0 1-.7-.373 6.097 6.097 0 0 1-1.841-2.011l-.692-1.362-.635 1.391a5.022 5.022 0 0 1-3.767 2.661 9.698 9.698 0 0 1-1.812.198c.059-.353.145-.701.258-1.041zm7.253 7.81a4.115 4.115 0 0 1-4.948-.022 5.357 5.357 0 0 1-.579-.474 6.085 6.085 0 0 1-.833-.974 6.915 6.915 0 0 1-.815-1.597l-.04-.105-.15-.44-.464-.052a.582.582 0 0 1-.504-.523.615.615 0 0 1 .321-.623l.408-.209v-.269h.433c.443-.017.885-.06 1.323-.13.247-.041.5-.09.747-.153a6.645 6.645 0 0 0 3.857-2.359 7.096 7.096 0 0 0 1.73 1.59 5.166 5.166 0 0 0 1.917.746l.28.045v.538l.351.22c.2.13.307.364.277.6a.586.586 0 0 1-.452.497l-.415.086-.135.399a6.852 6.852 0 0 1-.878 1.746 6.022 6.022 0 0 1-.84.97 5.324 5.324 0 0 1-.591.478v.015zm-5.228 3.829a10.53 10.53 0 0 0-2.148.948 9.054 9.054 0 0 0-1.924 1.508 8.018 8.018 0 0 0-.55.615 8.81 8.81 0 0 0-1.95 5.635v1.672h1.468V36.9a7.33 7.33 0 0 1 1.988-5.124c.182-.191.374-.373.575-.545A8.531 8.531 0 0 1 28.773 30c.483-.22.982-.4 1.495-.538l.55-.145V26.94h-1.45v1.265zm10.471 3.071a9.114 9.114 0 0 0-2.47-2.123c-.68-.395-1.4-.713-2.149-.948V26.94h-1.491v2.38l.55.146a9.56 9.56 0 0 1 2.297.952 7.967 7.967 0 0 1 1.742 1.37 7.327 7.327 0 0 1 1.988 5.123v1.672h1.468V36.9a8.814 8.814 0 0 0-1.935-5.624z" fill="#293052"/><path d="M21.808 46.957a5.103 5.103 0 0 1 1.494-.25c.998 0 1.723.549 1.723 1.366 0 .817-.52 1.358-1.465 1.586a4.472 4.472 0 0 1-.848.09l-.194-.549c.269.011.538-.005.803-.048.606-.112 1.151-.437 1.151-1.075 0-.638-.527-.896-1.18-.896a4.433 4.433 0 0 0-1.495.269c0 .582.026 1.187.026 1.493 0 .638-.243.84-.61.84-.541 0-1.438-.52-1.438-1.12 0-.601.714-1.157 1.495-1.493v-1.276c-.187 0-.374.022-.509.022a8.535 8.535 0 0 1-.874-.033v-.527c.29.04.582.058.874.056.161 0 .34 0 .527-.022v-.784a2.672 2.672 0 0 0-.04-.485h.605c0 .127-.027.314-.034.47-.008.157 0 .437-.022.747a8.98 8.98 0 0 0 1.408-.276v.548c-.472.103-.95.182-1.43.235v.93l.033.182zm-.479 1.915c0-.25 0-.713-.022-1.213-.557.265-.964.653-.964.963 0 .31.47.582.747.582.154 0 .236-.12.236-.332h.003zm2.706-4.034c.55.292 1.074.627 1.57 1.004l-.277.444a8.872 8.872 0 0 0-1.54-1.027l.247-.421zm7.152.884c-.362.53-.827.984-1.368 1.332a9.292 9.292 0 0 0 2.695.747c-.131.148-.24.314-.326.492a11.76 11.76 0 0 1-.937-.186v2.022h-.524v-.239h-2.806v.228h-.49v-1.963c-.354.112-.71.202-1.053.276a1.701 1.701 0 0 0-.258-.451 9.957 9.957 0 0 0 2.743-.907 4.624 4.624 0 0 1-.938-.81 5.902 5.902 0 0 1-1.084.68 1.576 1.576 0 0 0-.347-.374 4.584 4.584 0 0 0 1.969-1.56l.557.105a4.39 4.39 0 0 1-.318.41h2.048l.09-.022.347.22zm-4.282 0h-.494v-1.295h2.616v-.62h.52v.617h2.656v1.294h-.497v-.817h-4.801v.821zm4.062 2.295a7.797 7.797 0 0 1-1.63-.653 9.531 9.531 0 0 1-1.457.653h3.087zm-.236 1.437V48.45h-2.81v1.004h2.81zm-2.444-3.482c.3.338.657.622 1.054.84a4.584 4.584 0 0 0 1.054-.866h-2.089l-.019.026zm10.127-.545a13.31 13.31 0 0 1-1.297.284c.25.549.624 1.343.923 1.918l-.317.332c-.3-.063-.98-.16-1.424-.201l.056-.452c.262.023.747.075.972.097-.195-.422-.542-1.12-.748-1.616-.971.098-1.95.098-2.922 0l-.026-.537c.904.12 1.82.134 2.728.041l-.228-.507a5.594 5.594 0 0 0-.292-.575l.617-.12c.168.46.291.747.445 1.12.477-.083.947-.199 1.408-.347l.105.563zm-3.879 2.06a2.74 2.74 0 0 0-.194.866c0 .6.41.963 1.439.963a7.3 7.3 0 0 0 1.804-.187v.575a8.949 8.949 0 0 1-1.804.16c-1.278 0-1.985-.51-1.985-1.373a3.98 3.98 0 0 1 .187-1.052l.553.048zm9.933 2.027a5.102 5.102 0 0 0-1.66-1.034v.429c0 .47-.317.963-1.214.963-.987 0-1.536-.355-1.536-1.019 0-.664.605-1.049 1.596-1.049.192 0 .385.014.575.041 0-.306-.026-.63-.033-.914h-.374c-.471 0-1.237-.04-1.73-.097v-.526c.573.084 1.15.128 1.73.13h.374v-.984h-.344a16.61 16.61 0 0 1-1.618-.105v-.515c.533.083 1.07.127 1.61.13h.355v-.45c0-.138-.007-.275-.022-.411h.59a3.455 3.455 0 0 0-.033.459v.373c.59-.022 1.18-.078 1.763-.168v.507c-.541.056-1.12.112-1.778.146v1a18.55 18.55 0 0 0 1.91-.18v.52c-.647.082-1.256.13-1.91.16 0 .355.033.713.048 1.041.732.217 1.412.58 2 1.067l-.3.486zm-2.201-1.187a3.495 3.495 0 0 0-.666-.064c-.654 0-1.005.25-1.005.56 0 .31.27.556.95.556.395 0 .747-.12.747-.59a1.833 1.833 0 0 1-.041-.458l.015-.004z" fill="#000"/></g></svg>