<svg xmlns="http://www.w3.org/2000/svg" xmlns:xlink="http://www.w3.org/1999/xlink" width="1435" height="1421" viewBox="0 0 1435 1421"><defs><path id="a" d="M0 0h1440v1421H0z"/></defs><g fill="none" fill-rule="evenodd" opacity=".5"><mask id="b" fill="#fff"><use xlink:href="#a"/></mask><path fill="#F4F4F6" d="M1365.836-11h16.587l1.033 4.591 51.31 12.742v16.472l-64.51-16.013-4.42-17.792zm-71.076 0h16.53l15.266 61.526 75.358 18.767 18.767 75.3 14.12 3.501v16.472l-27.205-6.83-18.94-75.3-75.3-18.767L1294.76-11zm35.383 0h16.415l8.207 32.829 75.3 18.653 4.706 19.17v65.715l-17.906-71.685-75.243-18.767L1330.143-11zm-177.07 0h16.53l6.026 24.277 75.3 18.825 18.71 75.243 75.358 18.768 18.825 75.415 70.995 17.62v50.047l-8.838-35.757-75.3-18.767-18.825-75.358-75.3-18.767-18.826-75.3-75.414-18.768-9.24-37.478zm35.28 0h33.288l57.336 14.348 18.883 75.243 75.3 18.825 18.71 75.243 42.93 10.79v16.472l-56.13-14.004-18.653-75.3-75.358-18.768-18.825-75.3-75.185-18.768-2.296-8.781zm-176.967 0h65.027l23.474 5.854 18.825 75.358 75.3 18.767 18.71 75.3 75.358 18.71 18.767 75.416 75.3 18.767 18.826 75.243 33.804 8.494v16.472l-47.005-11.766-18.768-75.242-75.3-18.825-18.767-75.3-75.358-18.768-18.71-75.3-75.3-18.883-18.883-75.242-75.185-18.768-.115-.287zm105.891 0h16.472l13.086 52.4 75.414 18.825 18.71 75.358 75.243 18.767 18.825 75.3 75.358 18.768 18.768 75.358 5.624 1.377v16.415l-18.71-4.65-18.94-75.3-75.3-18.767-18.768-75.358-75.3-18.71-18.825-75.357-75.357-18.825-16.3-65.601zM940.31-11h16.415l10.904 44.02 75.358 18.711 18.825 75.357 75.243 18.768 18.767 75.358 75.3 18.767 18.94 75.3 75.243 18.768 18.653 75.243 75.472 18.882 15.382 61.928v28.983l-9.815-2.468-18.825-75.3-75.242-18.767-18.825-75.3-75.3-18.768-18.826-75.3-75.3-18.768-18.767-75.357-75.3-18.825-18.768-75.243-75.358-18.768L940.31-11zm35.177 0h16.644l3.788 15.267 75.242 18.767 18.768 75.3 75.243 18.825 18.882 75.3 75.243 18.826 18.71 75.185 75.472 18.882 18.768 75.358 62.559 15.553v18.08l-.402-1.78-75.357-18.71-18.825-75.358-75.358-18.825-18.71-75.3-75.243-18.71-18.825-75.357-75.3-18.71-18.825-75.3-75.3-18.768L975.487-11zm-176.915 0h16.471l1.665 6.83 75.3 18.767 18.825 75.358 75.185 18.71 18.883 75.3 75.3 18.768 18.71 75.357 75.358 18.768 18.825 75.3 75.357 18.768 18.653 75.3 75.3 18.882 18.825 75.3 53.548 13.316v16.414l-66.69-16.644-18.826-75.243-75.3-18.767-18.768-75.358-75.3-18.71-18.825-75.415-75.357-18.71-18.71-75.3-75.243-18.825-18.883-75.3-75.3-18.768-18.71-75.3-75.358-18.825L798.572-11zm68.131 0h54.294l17.964 72.143 75.3 18.826 18.883 75.3 75.243 18.767 18.767 75.3 75.3 18.768 18.826 75.3 75.357 18.825 18.653 75.358 75.3 18.71 18.825 75.3 25.368 6.313v16.53l-38.626-9.642-18.767-75.3-75.186-18.768-18.94-75.3-75.3-18.883-18.71-75.242-75.357-18.768-18.768-75.3-75.243-18.768-18.767-75.3-75.3-18.825-18.826-75.3L866.703-11zm-145.25 0h22.497l15.898 63.707 75.243 18.767 18.882 75.3L929.16 165.6l18.825 75.3 75.3 18.768 18.825 75.3 75.243 18.768 18.882 75.357 75.243 18.825 18.71 75.243 75.415 18.768 18.825 75.3 75.185 18.768 18.94 75.357 16.242 4.075V731.9l-29.615-7.404-18.767-75.3-75.243-18.768-18.768-75.3-75.357-18.767-18.768-75.3-75.242-18.768-18.883-75.415-75.3-18.71-18.71-75.3-75.358-18.768-18.825-75.357-75.185-18.768-18.825-75.3-75.3-18.768-18.768-75.3L721.452-11zm41.374 0h16.357l8.839 35.01 75.3 18.768 18.767 75.3 75.243 18.767 18.825 75.3 75.358 18.826 18.71 75.3 75.3 18.71 18.71 75.357 75.415 18.768 18.768 75.358 75.357 18.652 18.71 75.358 75.415 18.825 6.888 27.893v60.837l-1.378-.344-18.71-75.186-75.358-18.767-18.825-75.358-75.242-18.71-18.825-75.358-75.3-18.825-18.825-75.242-75.3-18.825-18.653-75.243-75.358-18.882-18.768-75.243-75.357-18.768-18.825-75.357-75.185-18.71L762.827-11zm-177.07 0h16.472l6.6 26.516 75.358 18.825 18.652 75.242 75.358 18.826 18.825 75.3 75.185 18.767 18.883 75.243 75.3 18.882 18.882 75.3 75.243 18.768 18.825 75.3 75.3 18.768 18.768 75.3 75.242 18.768 18.825 75.357 75.3 18.71 18.71 75.3 73.292 18.252v58.484l-11.134-44.71-75.185-18.825-18.883-75.243-75.357-18.825-18.768-75.242-75.358-18.883-18.71-75.243-75.243-18.767-18.882-75.3-75.243-18.825-18.825-75.243-75.3-18.825-18.825-75.3-75.3-18.768-18.71-75.3-75.358-18.825-18.767-75.243-75.243-18.825L585.756-11zm35.28 0h24.966l66.29 16.587 18.824 75.3 75.243 18.825 18.767 75.3 75.3 18.768 18.883 75.242 75.3 18.825 18.768 75.358 75.3 18.71 18.71 75.3 75.415 18.768 18.768 75.357 75.242 18.71 18.825 75.358 75.358 18.825 18.71 75.185 45.111 11.25v16.529l-58.311-14.52-18.825-75.3-75.186-18.768-18.94-75.358-75.185-18.71-18.767-75.3-75.473-18.883-18.653-75.242-75.3-18.768-18.767-75.358-75.358-18.767-18.768-75.243-75.242-18.825-18.71-75.357-75.473-18.71-18.653-75.358L623.791.02 621.037-11zM444.07-11h56.532l32.542 8.092 18.768 75.3L627.27 91.16l18.71 75.3 75.3 18.825 18.825 75.358 75.3 18.768 18.825 75.242 75.3 18.825 18.825 75.358 75.3 18.71 18.71 75.358 75.358 18.71 18.768 75.357 75.242 18.768 18.825 75.243 75.3 18.825 18.826 75.357 75.185 18.653 18.94 75.358 35.985 8.953v16.53l-49.358-12.283-18.653-75.3-75.357-18.768-18.768-75.415-75.243-18.71-18.882-75.243-75.3-18.825-18.653-75.3-75.358-18.71-18.882-75.357-75.128-18.826-18.882-75.3-75.358-18.71-18.825-75.357-75.243-18.71-18.767-75.358-75.3-18.768-18.768-75.3-75.3-18.825-18.825-75.243-75.3-18.882L444.07-11zm105.89 0h16.473l13.66 54.696 75.357 18.768 18.71 75.357 75.357 18.768 18.768 75.3 75.358 18.767 18.71 75.358 75.3 18.71 18.71 75.3 75.3 18.768 18.883 75.3 75.242 18.825 18.94 75.358 75.186 18.71 18.825 75.3 75.357 18.882 18.653 75.186 75.358 18.825 18.825 75.3 7.862 1.951v16.53l-21.063-5.28-18.768-75.358-75.357-18.825-18.768-75.186-75.242-18.882-18.883-75.243-75.3-18.71-18.71-75.357-75.358-18.825-18.825-75.243-75.185-18.825-18.825-75.3-75.3-18.768-18.825-75.3-75.3-18.825-18.825-75.3-75.243-18.768-18.825-75.3-75.243-18.768L549.961-11zm-177.018 0h16.472l11.536 46.202 75.243 18.825 18.882 75.3 75.3 18.767 18.71 75.3 75.358 18.826 18.768 75.242 75.357 18.825 18.653 75.3 75.358 18.768 18.825 75.3 75.242 18.768 18.826 75.415 75.3 18.71 18.825 75.3 75.3 18.768 18.825 75.243 75.243 18.825 18.71 75.3 75.357 18.825 18.768 75.242 75.3 18.768 17.677 70.88v20.662l-12.052-2.984-18.71-75.243-75.416-18.882-18.767-75.358-75.243-18.652-18.768-75.358-75.3-18.768-18.825-75.3-75.415-18.767-18.652-75.3-75.3-18.768-18.71-75.358-75.358-18.767-18.768-75.3-75.415-18.768-18.768-75.358-75.242-18.767-18.825-75.3-75.3-18.71-18.825-75.358-75.243-18.768L463.05 67.17l-75.358-18.768L372.942-11zm35.332 0h16.471l4.42 17.505 75.242 18.825 18.826 75.243 75.3 18.825 18.71 75.357 75.357 18.653 18.768 75.358 75.243 18.825 18.825 75.3 75.3 18.767 18.768 75.3 75.3 18.768 18.882 75.3 75.243 18.825 18.882 75.3 75.186 18.71 18.767 75.358 75.473 18.768 18.595 75.185 75.357 18.883 18.883 75.3 64.74 16.127v26.63l-2.755-10.79-75.3-18.767-18.768-75.3-75.358-18.825-18.595-75.243-75.415-18.825-18.768-75.357-75.357-18.653-18.768-75.358-75.415-18.767-18.652-75.3-75.358-18.768-18.71-75.3-75.3-18.825-18.883-75.3-75.185-18.768-18.825-75.3-75.3-18.768-18.768-75.3-75.3-18.825-18.825-75.357-75.243-18.71L408.274-11zm-177.019 0h16.472l2.238 9.068 75.3 18.768 18.768 75.3 75.358 18.768 18.767 75.357 75.3 18.768 18.71 75.3 75.358 18.767 18.768 75.3 75.3 18.768 18.768 75.358 75.3 18.767 18.882 75.3 75.243 18.71 18.825 75.358 75.3 18.768 18.768 75.3 75.415 18.768 18.595 75.3 75.358 18.767 18.767 75.358 75.358 18.768 18.767 75.3 75.3 18.825 18.653 75.242 55.901 13.89v16.472l-68.929-17.219-18.825-75.185-75.243-18.882-18.882-75.3-75.3-18.71-18.768-75.416-75.243-18.71-18.767-75.243-75.358-18.882-18.767-75.243-75.3-18.767-18.768-75.3-75.3-18.768-18.825-75.3-75.3-18.825-18.826-75.3-75.242-18.768-18.825-75.3-75.3-18.825-18.768-75.243-75.3-18.825-18.825-75.3-75.243-18.768-18.825-75.3-75.3-18.825L231.255-11zm59.816 0h62.616l18.595 74.44 75.243 18.767 18.768 75.243 75.357 18.825 18.768 75.357 75.242 18.71 18.825 75.3 75.3 18.826 18.768 75.242 75.3 18.825 18.883 75.3 75.128 18.825 18.825 75.186 75.415 18.882 18.767 75.3 75.186 18.71 18.94 75.3 75.242 18.883 18.768 75.243 75.3 18.767 18.825 75.358 75.3 18.768 18.71 75.185 27.664 6.945v16.471l-40.807-10.1-18.71-75.3-75.3-18.826-18.883-75.3-75.3-18.768-18.71-75.3-75.357-18.825-18.825-75.357-75.186-18.71-18.825-75.3-75.357-18.768-18.825-75.358-75.3-18.71-18.71-75.358-75.3-18.71-18.826-75.3-75.3-18.768-18.825-75.357-75.243-18.768-18.767-75.3-75.358-18.768-18.71-75.357-75.358-18.768-18.767-75.3L291.07-11zm-145.252 0h30.82l16.473 65.888 75.3 18.825 18.71 75.3 75.357 18.825 18.71 75.243 75.3 18.825 18.826 75.3 75.3 18.825 18.825 75.3 75.243 18.71 18.825 75.358 75.3 18.71 18.825 75.357 75.3 18.768 18.768 75.243 75.415 18.825 18.595 75.3 75.415 18.825 18.71 75.3 75.3 18.653 18.883 75.415 75.3 18.767 18.653 75.358 75.415 18.71 18.652 75.415 75.3 18.595 18.883 75.415 18.595 4.592v16.53l-31.796-7.921-18.825-75.3-75.357-18.883-18.653-75.242-75.357-18.768-18.825-75.358-75.186-18.652-18.825-75.358-75.3-18.825-18.825-75.3-75.243-18.768-18.882-75.357-75.243-18.653-18.768-75.358-75.357-18.767-18.71-75.3-75.358-18.825-18.767-75.243-75.358-18.768-18.71-75.357-75.358-18.825-18.71-75.243-75.357-18.768-18.768-75.357-75.358-18.71-18.71-75.358-75.3-18.768-18.825-75.3L145.819-11zm49.64 0h16.53l9.24 37.19 75.3 18.826 18.767 75.357 75.3 18.71 18.825 75.358 75.3 18.71 18.826 75.3 75.242 18.768 18.825 75.358 75.358 18.825 18.653 75.242 75.415 18.768 18.767 75.358 75.3 18.767 18.71 75.243 75.358 18.825L974 778.963l75.185 18.652 18.94 75.473 75.243 18.71 18.653 75.243 75.472 18.767 18.71 75.358 75.358 18.825 18.653 75.3 75.357 18.768 9.24 36.846v52.515l-3.558-.918-18.825-75.3-75.357-18.768-18.653-75.3-75.358-18.768-18.882-75.3-75.3-18.882-18.71-75.186-75.358-18.767-18.768-75.415-75.242-18.71-18.825-75.358-75.3-18.825-18.883-75.243-75.3-18.767-18.653-75.3-75.357-18.768-18.768-75.3-75.243-18.825-18.882-75.243-75.243-18.825-18.768-75.3-75.357-18.768-18.825-75.3-75.243-18.825-18.767-75.3-75.358-18.768L195.458-11zM18.492-11h16.472l7.117 28.754 75.3 18.768 18.768 75.3 75.357 18.825 18.71 75.243 75.3 18.882 18.883 75.243 75.243 18.767 18.825 75.358 75.3 18.71 18.767 75.358 75.3 18.767 18.768 75.3 75.358 18.768 18.71 75.3 75.3 18.825 18.882 75.3 75.186 18.768 18.825 75.243 75.357 18.882 18.71 75.243 75.3 18.767 18.883 75.358 75.3 18.768 18.71 75.242 75.358 18.883 18.768 75.242 75.185 18.71 18.882 75.416 75.243 18.767.23.919v66.06l-13.373-53.836-75.243-18.767-18.882-75.3-75.3-18.768-18.71-75.3-75.358-18.825-18.825-75.243-75.243-18.882-18.767-75.243-75.358-18.825-18.653-75.3-75.357-18.768-18.825-75.3-75.3-18.71-18.825-75.415-75.243-18.71-18.883-75.243-75.242-18.825-18.768-75.358-75.357-18.767-18.768-75.3-75.243-18.768-18.767-75.3-75.358-18.768-18.768-75.357-75.3-18.768-18.825-75.3-75.242-18.71-18.768-75.415-75.358-18.71L18.492-11zm35.228 0h16.53v.057l75.242 18.768 18.825 75.3 75.3 18.768 18.883 75.3 75.185 18.768 18.825 75.357 75.3 18.768 18.768 75.3 75.357 18.767 18.768 75.3 75.3 18.826 18.71 75.242 75.3 18.825 18.883 75.3 75.3 18.768 18.71 75.243 75.358 18.825 18.767 75.357 75.243 18.653 18.825 75.358 75.415 18.825 18.596 75.243 75.357 18.825 18.825 75.3 75.3 18.882 18.768 75.185 75.3 18.883 18.825 75.185 47.292 11.823v16.53l-60.435-15.095-18.825-75.3-75.3-18.768-18.768-75.357-75.243-18.768-18.825-75.3-75.414-18.825-18.653-75.243-75.415-18.767-18.825-75.415-75.128-18.71-18.825-75.243-75.358-18.94-18.825-75.185-75.3-18.768-18.768-75.3-75.3-18.825-18.71-75.3-75.357-18.768-18.768-75.3-75.3-18.71-18.825-75.358-75.3-18.825-18.768-75.3-75.3-18.768-18.768-75.3-75.357-18.767-18.768-75.3L57.05 2.2 53.72-11zM0 94.787V78.373l60.493 15.094 18.767 75.3 75.3 18.768 18.768 75.3 75.358 18.71 18.71 75.358 75.357 18.825 18.71 75.3 75.358 18.71 18.825 75.358 75.243 18.768 18.825 75.3 75.243 18.825 18.882 75.242L719.082 752l18.825 75.358 75.357 18.71 18.653 75.3 75.415 18.882 18.768 75.243 75.242 18.71 18.825 75.415 75.3 18.71 18.768 75.243 75.3 18.94 18.883 75.243 75.242 18.767 18.768 75.358 75.358 18.71 3.271 13.258h-16.53l-75.3-18.825-18.824-75.3-75.358-18.768-18.71-75.3-75.3-18.767-18.768-75.358-75.243-18.71-18.882-75.358-75.243-18.767-18.71-75.243-75.415-18.825-18.768-75.3L724.65 840.5l-18.768-75.3-75.242-18.768-18.826-75.243-75.3-18.825-18.767-75.357-75.3-18.71-18.768-75.3-75.358-18.826-18.767-75.242-75.3-18.825-18.768-75.3-75.3-18.826-18.825-75.242-75.3-18.825-18.768-75.3L0 94.787zm0-36.312V-7.872l13.373 53.778L88.615 64.73l18.883 75.242 75.243 18.883 18.767 75.242 75.358 18.768 18.767 75.3 75.3 18.825 18.768 75.3 75.3 18.768 18.768 75.358 75.357 18.71 18.71 75.3 75.3 18.825 18.826 75.243 75.3 18.767 18.767 75.186 75.358 18.94 18.882 75.242 75.186 18.883 18.825 75.242 75.3 18.883 18.71 75.128 75.3 18.882 18.883 75.3 75.242 18.768 18.768 75.3 75.415 18.882 18.653 75.186 75.3 18.825 10.503 41.954h-16.472l-7.174-28.811-75.3-18.71-18.768-75.3-75.357-18.768-18.71-75.415-75.358-18.653-18.825-75.415-75.3-18.767-18.768-75.243-75.3-18.825-18.825-75.358-75.243-18.653-18.71-75.415-75.415-18.71-18.71-75.357-75.358-18.653-18.767-75.415-75.3-18.71-18.768-75.3-75.3-18.825-18.825-75.358-75.3-18.653-18.71-75.415-75.416-18.767-18.71-75.3-75.357-18.768-18.71-75.358-75.358-18.65-18.71-75.416L.172 59.164 0 58.473zm0 143.34v-52.4l3.558.918 18.883 75.3 75.243 18.825 18.767 75.3 75.358 18.71 18.71 75.358 75.3 18.825 18.768 75.243 75.357 18.825 18.768 75.3 75.3 18.767 18.825 75.243 75.243 18.883 18.825 75.242 75.3 18.768 18.825 75.415 75.185 18.71 18.883 75.243 75.3 18.825 18.71 75.243 75.3 18.825 18.883 75.357 75.242 18.825 18.768 75.185 75.357 18.825 18.768 75.186 75.128 18.882 12.684 50.392h-16.472l-9.298-37.306-75.242-18.596-18.71-75.414-75.416-18.768-18.652-75.3-75.3-18.768-18.883-75.357-75.185-18.71-18.883-75.3-75.357-18.883-18.768-75.243-75.243-18.768-18.767-75.414-75.358-18.653-18.767-75.415-75.3-18.653-18.826-75.358-75.242-18.767-18.825-75.3-75.243-18.825-18.825-75.243-75.3-18.768-18.825-75.3-75.3-18.882-18.768-75.186L9.24 238.776 0 201.815zm0-71.644v-16.415l31.739 7.92 18.767 75.243 75.243 18.825 18.825 75.3 75.3 18.768 18.825 75.243 75.243 18.882 18.882 75.3 75.243 18.768 18.768 75.3 75.357 18.825 18.768 75.243 75.242 18.825 18.826 75.242 75.3 18.768 18.767 75.3 75.3 18.71 18.883 75.473 75.128 18.652 18.882 75.358 75.358 18.825 18.653 75.185 75.3 18.825 18.882 75.358 75.3 18.825 18.71 75.185 75.358 18.883 18.825 75.357 14.865 3.673h-30.419l-16.357-66.002-75.3-18.653-18.882-75.357-75.243-18.71-18.768-75.358-75.472-18.825-18.595-75.3-75.3-18.653-18.883-75.53-75.243-18.595-18.767-75.415-75.358-18.768-18.767-75.3-75.3-18.71-18.768-75.358-75.358-18.767-18.71-75.3-75.415-18.71-18.71-75.416-75.3-18.71-18.768-75.3-75.357-18.768-18.71-75.357-75.358-18.71-18.71-75.415-75.358-18.768-18.768-75.243L0 130.171zm0 177.483v-16.53l40.75 10.16 18.824 75.357 75.243 18.767 18.882 75.3 75.3 18.768 18.768 75.3 75.3 18.825 18.71 75.3 75.358 18.825 18.768 75.186 75.357 18.825 18.768 75.3 75.243 18.767 18.882 75.358 75.243 18.71 18.825 75.3 75.3 18.768 18.71 75.357 75.3 18.768 18.825 75.243 75.358 18.882 18.653 75.243 75.3 18.825 18.882 75.3 49.244 12.282h-62.731l-18.538-74.381-75.3-18.768-18.825-75.3-75.3-18.768-18.768-75.357-75.3-18.71-18.768-75.3-75.3-18.826-18.768-75.243-75.357-18.825-18.768-75.3-75.243-18.825-18.882-75.242-75.243-18.883-18.767-75.243-75.358-18.767-18.768-75.3-75.242-18.768-18.883-75.3-75.242-18.768-18.768-75.3-75.358-18.825-18.767-75.243L0 307.654zm0-35.745v-16.586l68.93 17.275 18.824 75.3 75.3 18.768 18.826 75.3 75.242 18.767 18.825 75.358 75.3 18.768 18.768 75.3 75.3 18.767 18.825 75.243 75.243 18.825 18.825 75.243 75.3 18.825 18.768 75.243 75.243 18.825 18.882 75.357 75.243 18.768 18.767 75.242 75.3 18.826 18.825 75.3 75.3 18.71 18.826 75.415 75.3 18.767 18.767 75.243 75.358 18.883 5.51 22.21h-16.53l-2.295-9.01-75.358-18.825-18.71-75.243-75.3-18.767-18.825-75.415-75.358-18.768-18.653-75.185-75.357-18.883-18.883-75.3-75.128-18.767-18.825-75.3-75.357-18.826-18.768-75.3-75.242-18.71-18.883-75.357-75.243-18.768-18.767-75.243-75.3-18.825-18.768-75.3-75.357-18.768-18.768-75.3-75.3-18.825-18.768-75.3L74.611 361.1l-18.882-75.3L0 271.908zm0 177.329v-26.401l2.64 10.675 75.3 18.882 18.768 75.243 75.357 18.825 18.768 75.243 75.243 18.825 18.825 75.242 75.3 18.825 18.768 75.3 75.3 18.768 18.825 75.358 75.242 18.653 18.825 75.414 75.243 18.825 18.825 75.186 75.3 18.882 18.768 75.3 75.3 18.653 18.882 75.415 75.3 18.768 18.653 75.3 75.415 18.768 7.576 30.648h-16.3l-4.476-17.563-75.3-18.767-18.768-75.3-75.3-18.71-18.882-75.416-75.186-18.71-18.767-75.3-75.358-18.825-18.71-75.243-75.3-18.825-18.825-75.3-75.3-18.825-18.825-75.243-75.243-18.825-18.825-75.3-75.3-18.71-18.768-75.3-75.3-18.825-18.825-75.3-75.3-18.768-18.71-75.3L0 449.238zm0-102.172v-20.547l12.053 2.984 18.767 75.3 75.358 18.768 18.71 75.3 75.3 18.883 18.825 75.3 75.243 18.768 18.882 75.242 75.243 18.768 18.825 75.357 75.243 18.768 18.825 75.243 75.3 18.825 18.71 75.243 75.358 18.825 18.825 75.357 75.242 18.653 18.768 75.357 75.3 18.825 18.825 75.243 75.3 18.825 18.768 75.358 75.3 18.71 14.808 59.402h-16.472l-11.422-46.202-75.357-18.825-18.768-75.242-75.357-18.883-18.71-75.128-75.3-18.882-18.94-75.3-75.128-18.825-18.883-75.3-75.3-18.825-18.768-75.243-75.3-18.768-18.825-75.242-75.242-18.883-18.768-75.243-75.358-18.825-18.767-75.242-75.243-18.825-18.825-75.3-75.3-18.71-18.768-75.358-75.357-18.768L0 347.066zm0 173.35v-16.528l21.12 5.337 18.768 75.3 75.3 18.768 18.826 75.243 75.242 18.825 18.768 75.242 75.3 18.768 18.768 75.357 75.357 18.826 18.768 75.3 75.3 18.652 18.825 75.415 75.243 18.825 18.825 75.186 75.3 18.882 18.825 75.3 75.243 18.71 18.767 75.358 75.358 18.768 16.816 67.896h-16.414l-13.603-54.581-75.357-18.882-18.825-75.3-75.243-18.883-18.768-75.185-75.3-18.825-18.825-75.243-75.243-18.768-18.882-75.415-75.243-18.767-18.825-75.243-75.3-18.825-18.767-75.3-75.3-18.825-18.826-75.186-75.242-18.882-18.825-75.243-75.3-18.825-18.71-75.3L0 520.417zm0-35.744v-16.414l49.186 12.225 18.825 75.3 75.3 18.825 18.825 75.242 75.243 18.825 18.768 75.3 75.357 18.826 18.768 75.185 75.357 18.825 18.768 75.357 75.243 18.71 18.825 75.3 75.242 18.883 18.883 75.243 75.243 18.71 18.71 75.415 75.415 18.768 18.71 75.185 75.415 18.94 18.71 75.243 75.3 18.825.632 2.468h-56.648l-32.427-8.093-18.768-75.357-75.357-18.825-18.768-75.243-75.357-18.768-18.768-75.357-75.185-18.71-18.883-75.3-75.3-18.883-18.825-75.185-75.243-18.825-18.767-75.3-75.358-18.883-18.71-75.243-75.357-18.767-18.768-75.3-75.243-18.768-18.825-75.3-75.3-18.768-18.882-75.3L0 484.673zm0 177.432v-16.357l58.197 14.52 18.825 75.186 75.3 18.825 18.768 75.357 75.357 18.71 18.768 75.3 75.243 18.826 18.825 75.242 75.3 18.825 18.825 75.3 75.3 18.825 18.71 75.243 75.358 18.825 18.767 75.3 75.186 18.768 18.94 75.3 75.242 18.768 2.698 10.962h-24.852l-66.29-16.644-18.767-75.243-75.3-18.768-18.767-75.357-75.358-18.71-18.768-75.3-75.242-18.825-18.883-75.243-75.243-18.825-18.825-75.3-75.3-18.825-18.825-75.243-75.3-18.768-18.71-75.357-75.358-18.768-18.71-75.243L0 662.104zm0-35.693v-58.484l11.077 44.767 75.357 18.768 18.768 75.242 75.3 18.825 18.825 75.243 75.243 18.882 18.825 75.243 75.243 18.768 18.882 75.357 75.243 18.768 18.767 75.243 75.358 18.882 18.825 75.3 75.243 18.71 18.767 75.358 75.358 18.825 18.653 75.185 75.357 18.768 9.872 39.774H832.49l-6.658-26.516-75.3-18.768-18.71-75.243-75.3-18.825-18.883-75.3-75.185-18.71-18.767-75.357-75.415-18.825-18.71-75.3-75.3-18.768-18.768-75.358-75.3-18.71-18.826-75.3-75.242-18.768-18.883-75.357-75.242-18.768-18.768-75.243L0 626.411zm0 151.191v-60.894l1.377.402 18.71 75.242 75.3 18.883 18.883 75.243 75.186 18.71 18.882 75.3 75.3 18.882 18.825 75.3 75.243 18.825 18.767 75.243 75.358 18.768 18.71 75.243 75.3 18.882 18.825 75.3 75.243 18.825 12.053 48.096H655.49l-8.781-35.01-75.186-18.768-18.825-75.243-75.3-18.825-18.767-75.3-75.3-18.825-18.826-75.3-75.242-18.767-18.825-75.3-75.3-18.71-18.768-75.416-75.3-18.71-18.825-75.357-75.3-18.768L0 777.603zm0-80.218v-16.358l29.558 7.29 18.767 75.414 75.3 18.653 18.768 75.358 75.357 18.767 18.653 75.243 75.358 18.882 18.767 75.358 75.358 18.653 18.71 75.357 75.358 18.768 18.825 75.415 75.243 18.71 18.767 75.3 75.415 18.825 18.653 75.243 6.256 1.607h-22.269l-15.84-63.707-75.358-18.825-18.825-75.357-75.243-18.653-18.767-75.415-75.358-18.71-18.71-75.415-75.358-18.653-18.71-75.357-75.415-18.71-18.71-75.358-75.3-18.768-18.825-75.357-75.3-18.71-18.768-75.358L0 697.384zm0 177.483v-16.472l38.511 9.642 18.882 75.3 75.243 18.768 18.768 75.3 75.3 18.825 18.825 75.243 75.243 18.825 18.825 75.415 75.3 18.71 18.767 75.243 75.358 18.825 18.768 75.242 40.29 10.102h-54.352l-17.907-72.144-75.357-18.768-18.768-75.357-75.3-18.653-18.825-75.53-75.3-18.652-18.71-75.3-75.358-18.768-18.767-75.358-75.243-18.767-18.825-75.358L0 874.867zm0-35.693v-16.472l66.749 16.644 18.767 75.3 75.358 18.768 18.71 75.185 75.3 18.883 18.825 75.357 75.243 18.768 18.825 75.243 75.3 18.825 18.882 75.3 75.186 18.71 18.825 75.357 75.357 18.825 4.936 19.973h-16.587l-1.664-6.772-75.3-18.71-18.768-75.473-75.243-18.652-18.825-75.358-75.3-18.825-18.825-75.3-75.242-18.71-18.825-75.3-75.3-18.826-18.768-75.242-75.358-18.883-18.767-75.357L0 839.174zm0 177.483v-18.136l.402 1.837 75.242 18.652 18.826 75.415 75.357 18.653 18.768 75.358 75.3 18.767 18.825 75.358 75.3 18.767 18.71 75.358 75.415 18.653 7.002 28.524h-16.472l-3.73-15.324-75.415-18.71-18.71-75.415-75.3-18.653-18.768-75.357-75.358-18.768-18.71-75.357-75.358-18.71-18.71-75.416L0 1016.657zm0-93.804v-29.098l9.757 2.468 18.882 75.357 75.243 18.768 18.768 75.3 75.357 18.71 18.768 75.358 75.3 18.768 18.71 75.357 75.358 18.768 18.825 75.357 75.185 18.71 14.348 57.164H478.03l-11.019-44.02-75.243-18.71L373 1285.693l-75.358-18.767-18.768-75.243-75.242-18.768-18.883-75.357-75.242-18.768-18.825-75.242-75.243-18.883L0 922.853zm0 164.829v-16.472l18.882 4.763 18.768 75.3 75.243 18.768 18.882 75.3 75.243 18.71 18.825 75.358 75.3 18.768 16.3 65.658H300.97l-13.028-52.4-75.358-18.768-18.768-75.3-75.3-18.825-18.767-75.3-75.3-18.883-18.883-75.243L0 1087.682zm0-35.745v-16.415l47.005 11.709 18.768 75.3 75.3 18.825 18.825 75.243 75.243 18.825 18.767 75.242 75.358 18.825 18.825 75.358 75.243 18.653.057.344h-64.97l-23.473-5.911-18.883-75.3-75.3-18.826-18.825-75.242-75.243-18.768-18.767-75.3-75.358-18.825-18.767-75.243L0 1051.937zm0 177.432v-16.358l56.073 13.947 18.71 75.3 75.3 18.825 18.826 75.243 75.242 18.768 2.181 8.78h-33.46l-57.106-14.348-18.883-75.3-75.243-18.825-18.825-75.3L0 1229.37zm0-35.693v-50.047l8.896 35.813 75.3 18.768 18.825 75.3 75.243 18.71 18.825 75.3 75.3 18.883 9.355 37.42h-16.53l-6.083-24.277-75.3-18.768-18.768-75.243-75.3-18.882-18.825-75.243L0 1193.676zm0 159.507v-65.83l17.907 71.8 75.3 18.767 11.421 45.915H88.156l-8.15-32.715-75.242-18.825L0 1353.183zm0-88.483v-16.357l27.204 6.83 18.825 75.3 75.3 18.71 18.653 74.669h-16.529l-15.266-61.526-75.358-18.71-18.71-75.415L0 1264.7zm0 141.79v-16.529l64.453 16.128 4.476 17.734H52.4l-1.148-4.534L0 1406.49z" mask="url(#b)"/></g></svg>