<svg id="Layer_1" xmlns="http://www.w3.org/2000/svg" viewBox="0 0 245 160"><style>.st0,.st1,.st2{stroke-miterlimit:10}.st0{stroke-width:2;fill:#f1f1f2;stroke:#c2c2c2}.st1,.st2{fill:none;stroke:#dededd}.st2{stroke:#293052;stroke-linejoin:round}.st3{fill:#231f20}.st4{fill:none;stroke:#293052;stroke-width:3;stroke-linecap:round;stroke-linejoin:round;stroke-miterlimit:10}.st5{opacity:.6}.st6{fill:#fff}.st7{fill:none;stroke:#e88024;stroke-width:2;stroke-miterlimit:10}.st8{fill:#293052}.st9{fill:#6d6e70}</style><title>breakout</title><path class="st0" d="M-.2 0h245v160H-.2z"/><path class="st1" d="M2 44.2h241.5M2 77.6h241.5M2 110.9h241.5M2 144.3h241.5M31.2 27.5V159M61.7 27.5V159M92.3 27.5V159M122.8 27.5V159M153.4 27.5V159M2 94.2h241.5M214.5 27.5V159"/><path class="st2" d="M2 60.9h241.5M2 127.6h241.5M183.9 27.5V159"/><path class="st0" d="M.2 26.5h245"/><g><path class="st3" d="M13.3 17.8V9.2h2.9c1 0 1.8.2 2.3.6s.8 1 .8 1.8c0 .4-.1.7-.3 1.1s-.5.5-.9.7c.5.1.9.3 1.2.7s.4.8.4 1.2c0 .8-.3 1.4-.8 1.9s-1.3.6-2.3.6h-3.3zm1.7-5h1.2c.5 0 .8-.1 1.1-.3s.4-.5.4-.8c0-.4-.1-.7-.4-.9s-.6-.3-1.1-.3H15v2.3zm0 1.2v2.5h1.6c.5 0 .8-.1 1-.3.2-.2.4-.5.4-.9s-.1-.7-.3-1-.5-.3-1-.3H15zM24.2 12.9h-.6c-.3 0-.5.1-.6.2l-.4.4v4.3h-1.7v-6.3h1.6l.1.9c.1-.3.3-.6.6-.8s.5-.3.8-.3h.4l-.2 1.6zM27.9 17.9c-.9 0-1.6-.3-2.2-.9s-.8-1.3-.8-2.2v-.2c0-.9.3-1.7.8-2.3s1.2-.9 2.1-.9c.9 0 1.5.3 2 .8s.7 1.2.7 2.1v.9h-3.8c0 .4.2.8.4 1 .2.3.6.4 1 .4s.7 0 .9-.1.5-.2.8-.4l.5 1.1c-.3.2-.6.4-1 .5-.5.1-.9.2-1.4.2zm-.2-5.3c-.3 0-.6.1-.8.4s-.3.6-.3 1h2.1v-.2c0-.4-.1-.7-.3-.9s-.3-.3-.7-.3zM35.1 17.8c-.1-.1-.1-.3-.2-.5s-.1-.3-.1-.5c-.2.3-.4.6-.7.8s-.6.3-1 .3c-.7 0-1.2-.2-1.5-.5s-.5-.8-.5-1.4c0-.6.2-1.1.7-1.4s1.2-.6 2.1-.6h1v-.5c0-.3-.1-.5-.2-.7s-.4-.3-.7-.3c-.3 0-.5.1-.6.2s-.4.4-.4.6h-1.7c0-.5.2-1 .7-1.4s1.1-.6 1.9-.6c.8 0 1.4.2 1.8.6s.7.9.7 1.6v2.6c0 .3 0 .6.1.8s.1.5.2.8h-1.6zm-1.5-1.2c.3 0 .6-.1.8-.2s.4-.3.5-.5V15h-1c-.4 0-.6.1-.8.3s-.3.4-.3.7c0 .2.1.4.2.5s.3.1.6.1zM40 15.1h-.5v2.7h-1.7V8.6h1.7v5.2h.5l1.5-2.4h2l-2 2.9 2.3 3.5h-2L40 15.1zM47.6 14.8h-3.3v-1.3h3.3v1.3zM56 14.3c0 1-.3 1.9-1 2.6s-1.5 1-2.6 1-1.9-.3-2.6-1-1-1.5-1-2.6v-1.5c0-1 .3-1.9 1-2.6s1.5-1 2.6-1 1.9.3 2.6 1 1 1.5 1 2.6v1.5zm-1.7-1.6c0-.7-.2-1.2-.5-1.6s-.8-.6-1.4-.6-1 .2-1.4.6-.5 1-.5 1.6v1.5c0 .7.2 1.2.5 1.7.3.4.8.6 1.4.6.6 0 1-.2 1.4-.6.3-.4.5-1 .5-1.7v-1.5zM61 16.8c-.2.3-.4.6-.7.8s-.6.3-1 .3c-.7 0-1.2-.2-1.6-.6s-.6-1.1-.6-2v-3.8h1.7v3.8c0 .5.1.8.2 1 .2.2.4.3.7.3.3 0 .5 0 .7-.1.2-.1.4-.2.5-.4v-4.6h1.7v6.3h-1.5l-.1-1zM66 9.9v1.6h1v1.2h-1v3.2c0 .2.1.4.2.5s.2.2.4.2h.4l.1 1.2c-.2.1-.3.1-.5.1h-.5c-.6 0-1-.2-1.4-.5s-.5-.8-.5-1.5v-3.2h-.9v-1.2h.9V9.9H66z"/></g><g><path class="st3" d="M214.2 14.3h2.3v1h-2.3v3.3h-1v-3.3h-2.3v-1h2.3v-1.4h-2v-1h2V8.5h1V12h2.1v1h-2.1v1.3zm-2.3-2.7c-.1-.6-.4-1.5-.7-2.2l.8-.3c.4.7.7 1.6.8 2.2l-.9.3zm4.6-2.3c-.3.8-.7 1.7-1.1 2.3l-.8-.2c.3-.6.7-1.6.9-2.3l1 .2zm1.3 6.6h-1V9.8h1v6.1zm2.7-7.2v8.6c0 .6-.2.9-.5 1.1-.4.2-1.1.2-2.1.2-.1-.3-.2-.7-.4-1h1.7c.2 0 .3-.1.3-.3V8.7h1zM227.5 17.4c.5.1 1 .1 1.6.1h2.9c-.2.2-.3.7-.4 1H229c-2.2 0-3.7-.4-4.7-2.1-.4.9-.9 1.7-1.6 2.3-.2-.2-.6-.5-.8-.7 1.2-.9 1.8-2.4 2-4.4l1.1.1c-.1.5-.2 1-.3 1.4.4 1 1 1.6 1.8 1.9v-4.3H224v-1h6.2v1h-2.6v1.6h3.1v1h-3.1v2.1zm-4.2-5.2h-1V9.7h4V8.5h1.1v1.2h4.1v2.5h-1v-1.6h-7.1v1.6z"/></g><path class="st4" d="M31.2 94.2L57 77.6l24.3 19.8 25-23.4 22.2 25.8 31.1-53.3 15.9-3.2"/><g><g class="st5"><ellipse class="st6" cx="151.9" cy="60.9" rx="6.8" ry="6.9"/></g><ellipse class="st7" cx="151.9" cy="60.9" rx="6.8" ry="6.9"/></g><g><g class="st5"><ellipse class="st6" cx="31.2" cy="94.2" rx="6.8" ry="6.9"/></g><ellipse class="st7" cx="31.2" cy="94.2" rx="6.8" ry="6.9"/></g><g><path class="st8" d="M192.4 46.5v-7.1h2.4c.8 0 1.4.2 1.8.5.4.3.7.8.7 1.5 0 .3-.1.6-.3.9s-.4.4-.8.6c.4.1.7.3 1 .6.2.3.3.7.3 1.1 0 .7-.2 1.2-.7 1.5-.4.3-1 .5-1.8.5h-2.6zm1.2-4.1h1.3c.4 0 .7-.1.9-.3.2-.2.3-.4.3-.7 0-.4-.1-.6-.3-.8-.2-.2-.6-.3-1-.3h-1.2v2.1zm0 .9v2.3h1.5c.4 0 .7-.1.9-.3.2-.2.3-.5.3-.8 0-.4-.1-.7-.3-.9s-.5-.3-.9-.3h-1.5zM201.3 42.3h-.5c-.2 0-.4 0-.6.1-.2.1-.3.2-.4.4v3.7h-1.2v-5.3h1.1l.1.8c.1-.3.3-.5.5-.6s.5-.2.7-.2h.4l-.1 1.1zM204.4 46.6c-.7 0-1.3-.2-1.8-.7-.4-.5-.7-1.1-.7-1.9v-.2c0-.8.2-1.4.7-1.9.4-.5 1-.8 1.7-.8s1.3.2 1.6.6c.4.4.6 1 .6 1.7v.7h-3.3c0 .4.1.8.4 1 .2.3.5.4.9.4.3 0 .6 0 .8-.1.2-.1.4-.2.7-.3l.4.8c-.2.2-.5.3-.8.4-.4.2-.8.3-1.2.3zm-.2-4.5c-.3 0-.5.1-.7.3-.2.2-.3.5-.4.9h2.1v-.1c0-.3-.1-.6-.3-.8s-.3-.3-.7-.3zM210.6 46.5c0-.1-.1-.3-.1-.4 0-.1 0-.3-.1-.4-.2.2-.4.5-.6.6-.3.2-.6.3-.9.3-.5 0-1-.1-1.3-.4-.3-.3-.4-.7-.4-1.2s.2-.9.6-1.2c.4-.3 1-.4 1.7-.4h.9v-.5c0-.3-.1-.5-.2-.6-.2-.2-.4-.2-.7-.2-.3 0-.5.1-.6.2-.2.1-.2.3-.2.5h-1.1c0-.4.2-.8.6-1.1s.9-.5 1.5-.5 1.1.2 1.5.5c.4.3.6.8.6 1.3v2.9c0 .2.1.4.1.6h-1.3zm-1.5-.9c.3 0 .6-.1.8-.2s.4-.3.5-.5v-.8h-.9c-.3 0-.6.1-.8.3-.2.2-.3.4-.3.6 0 .2.1.4.2.5.1.1.3.1.5.1zM214.6 44.2h-.6v2.3h-1.2v-7.6h1.2v4.4h.5l1.3-2h1.4l-1.7 2.4 2 2.9h-1.4l-1.5-2.4zM220.4 43.9h-2.6v-1h2.6v1zM227.1 43.6c0 .9-.3 1.6-.8 2.2-.5.6-1.3.9-2.1.9-.9 0-1.5-.3-2.1-.9-.5-.6-.8-1.3-.8-2.2v-1.3c0-.9.3-1.6.8-2.2s1.2-.9 2.1-.9c.9 0 1.6.3 2.1.9s.8 1.3.8 2.2v1.3zm-1.2-1.3c0-.6-.2-1.1-.5-1.5s-.7-.6-1.3-.6c-.5 0-.9.2-1.2.6s-.5.9-.5 1.5v1.3c0 .6.2 1.1.5 1.5.3.4.7.6 1.2.6s1-.2 1.3-.6c.3-.4.5-.9.5-1.5v-1.3zM231.5 45.7c-.2.3-.4.5-.6.6-.3.2-.5.2-.9.2-.6 0-1-.2-1.3-.5-.3-.4-.5-.9-.5-1.7v-3.2h1.2v3.2c0 .5.1.8.2 1 .2.2.4.3.7.3.3 0 .5-.1.7-.2.2-.1.3-.3.5-.4v-3.8h1.2v5.3h-1l-.2-.8zM235.3 39.9v1.3h.9v.9h-.9V45c0 .2 0 .4.1.5.1.1.2.1.4.1h.4l.1.9c-.1.1-.2.1-.4.1h-.4c-.4 0-.8-.1-1-.4-.2-.3-.4-.7-.4-1.2v-2.9h-.8v-.9h.8v-1.3h1.2z"/></g><g><path class="st3" d="M98.6 50.5c.5-.5 1.3-1.5 1.9-2.3.6-.7 1-.7 1.8-.1.6.5 1.4 1.4 2.1 2 .7.7 1.7 1.8 2.4 2.7l-.8.9c-.7-.9-1.6-1.9-2.2-2.6-.7-.8-1.5-1.7-1.9-2-.4-.3-.5-.3-.8.1-.5.5-1.2 1.6-1.7 2.1-.2.3-.4.6-.6.8l-.9-.9.7-.7zm6.6-3.9c.7 0 1.3.6 1.3 1.3 0 .7-.6 1.2-1.3 1.2-.7 0-1.2-.5-1.2-1.2s.5-1.3 1.2-1.3zm0 2c.4 0 .7-.3.7-.7s-.3-.7-.7-.7-.7.3-.7.7.3.7.7.7zM113.2 53.1c0 .4 0 1 .1 1.2H112c0-.2.1-.8.1-1.2v-3.6c-1 .6-2.4 1.1-3.6 1.5l-.6-1c1.7-.4 3.4-1.1 4.5-1.8 1-.6 2-1.5 2.6-2.2l.8.8c-.7.7-1.7 1.5-2.7 2.1v4.2zM125.3 47.2c-.1.1-.2.3-.3.4-.4.7-1.4 2-2.4 2.8l-.8-.7c.9-.5 1.7-1.5 2-2.1h-5.5c-.4 0-.7 0-1.2.1v-1.1c.4 0 .8.1 1.2.1h5.6c.2 0 .7 0 .8-.1l.6.6zm-4 1.3c0 2.6-.1 4.5-2.8 5.9l-.9-.8c.3-.1.6-.3 1-.5 1.4-.9 1.7-2.2 1.7-3.8 0-.3 0-.5-.1-.8h1.1zM134.2 47.9c-.1.2-.1.5-.2.7-.1.9-.4 2-1 2.9-.8 1.4-2.2 2.4-4 2.9l-.8-.9 1.2-.3c.9-.3 1.9-1 2.5-1.9.5-.8.8-1.9.9-2.8h-5.3v2.3h-1.1v-2.4-.8h3.2v-.9c0-.2 0-.5-.1-.8h1.2c0 .4-.1.6-.1.8v.9h2c.4 0 .6 0 .7-.1l.9.4zM141.2 51.5c-1.1-.6-2.7-1.2-3.8-1.6V53c0 .3 0 .9.1 1.3h-1.2c0-.3.1-.9.1-1.3v-5.8c0-.3 0-.8-.1-1.1h1.2c0 .3-.1.8-.1 1.1v1.6c1.3.4 3.2 1.1 4.2 1.6l-.4 1.1z"/></g><g><path class="st9" d="M192.7 93.3c.5-.5 1.3-1.6 2-2.3.5-.6.9-.7 1.7-.1.6.5 1.4 1.4 2.1 2.1.7.7 1.7 1.8 2.4 2.7l-.6.7c-.7-.9-1.6-1.9-2.2-2.7-.7-.8-1.5-1.7-1.9-2-.4-.4-.6-.3-.9.1-.5.6-1.3 1.7-1.8 2.2-.2.3-.4.6-.6.8l-.9-.8c.3-.3.5-.4.7-.7zm6.6-3.9c.7 0 1.2.5 1.2 1.2s-.5 1.2-1.2 1.2-1.2-.5-1.2-1.2.5-1.2 1.2-1.2zm0 1.9c.4 0 .7-.3.7-.7 0-.4-.3-.7-.7-.7-.4 0-.7.3-.7.7-.1.4.3.7.7.7zM209.8 89.4c-.7.7-1.6 1.5-2.7 2.2v4.3c0 .4 0 .9.1 1.1h-1c0-.2.1-.7.1-1.1V92c-1.1.6-2.4 1.2-3.8 1.6l-.5-.8c1.7-.4 3.4-1.1 4.5-1.8 1-.6 2.1-1.5 2.6-2.2l.7.6zM219.3 89.8c-.1.1-.2.2-.3.4-.4.7-1.3 2-2.5 2.8l-.7-.5c.9-.5 1.9-1.6 2.2-2.2h-5.7c-.4 0-.7 0-1.1.1v-.9c.4 0 .8.1 1.1.1h5.7c.2 0 .5 0 .7-.1l.6.3zm-3.9 1.3c0 2.7-.2 4.5-2.8 5.8l-.7-.6c.3-.1.6-.2.9-.4 1.5-.9 1.8-2.4 1.8-4v-.7h.8zM228.2 90.5c0 .1-.1.4-.2.6-.1.8-.4 2-1 3-.7 1.3-2.1 2.3-4 2.8l-.7-.8c.3 0 .7-.2 1-.3 1-.3 2.1-1.1 2.7-2 .5-.8.9-2.1 1-2.9h-5.6v2.4h-.9V91v-.8h3.1v-.9-.8h1c0 .3-.1.5-.1.8v.9h2.2c.4 0 .6 0 .7-.1l.8.4zM235.4 94c-1.1-.6-2.8-1.3-3.9-1.6v3.3c0 .3 0 .8.1 1.2h-1c0-.3.1-.8.1-1.2v-5.8c0-.3 0-.7-.1-1h1c0 .3-.1.7-.1 1v1.6c1.3.4 3.2 1.1 4.3 1.6l-.4.9zM210.5 102.6c-.5.2-1.1.3-1.8.4-.5 1.4-1.4 3.1-2.2 4.2l-.8-.4c.8-1 1.7-2.5 2.1-3.7h-2l-.1-.8c.4.1.8.1 1.2.1h1.1c.2-.5.3-1.2.3-1.7l.9.1c-.1.4-.2 1-.4 1.5.5-.1 1-.2 1.5-.4l.2.7zm1.2 1.1v1.1c0 .4 0 1 .1 1.6.8.3 1.5.8 2 1.2l-.4.7a5 5 0 0 0-1.6-1.1v.4c0 .8-.5 1.4-1.7 1.4-1.1 0-2-.5-2-1.4 0-.9.9-1.5 2-1.5.3 0 .6 0 .9.1 0-.8-.1-1.8-.1-2.5h.8zm-.7 3.2c-.3-.1-.6-.1-1-.1-.7 0-1.2.3-1.2.8s.4.8 1.1.8c.8 0 1.1-.5 1.1-.9v-.6zm2.6-2.9c-.5-.5-1.6-1.1-2.3-1.4l.4-.6c.7.3 1.8 1 2.3 1.3l-.4.7zM217.2 100.8c0 .3-.1.7-.1 1 0 1.1-.1 3.5-.1 4.9 0 1.1.7 1.5 1.6 1.5 1.8 0 2.8-1 3.6-2l.5.7c-.7.9-1.9 2.2-4.1 2.2-1.4 0-2.4-.6-2.4-2.2 0-1.5.1-4 .1-5 0-.4 0-.7-.1-1l1-.1z"/></g><g><path class="st9" d="M192.1 146.3v-7.1h2.4c.8 0 1.4.2 1.8.5.4.3.7.8.7 1.5 0 .3-.1.6-.3.9s-.4.4-.8.6c.4.1.7.3 1 .6.2.3.3.7.3 1.1 0 .7-.2 1.2-.7 1.5-.4.3-1 .5-1.8.5h-2.6zm1.2-4.2h1.3c.4 0 .7-.1.9-.3.2-.2.3-.4.3-.7 0-.4-.1-.6-.3-.8-.2-.2-.6-.3-1-.3h-1.2v2.1zm0 .9v2.3h1.5c.4 0 .7-.1.9-.3.2-.2.3-.5.3-.8 0-.4-.1-.7-.3-.9s-.5-.3-.9-.3h-1.5zM201 142h-.5c-.2 0-.4 0-.6.1-.2.1-.3.2-.4.4v3.7h-1.2V141h1.1l.1.8c.1-.3.3-.5.5-.6s.5-.2.7-.2h.4l-.1 1zM204.1 146.4c-.7 0-1.3-.2-1.8-.7-.4-.5-.7-1.1-.7-1.9v-.2c0-.8.2-1.4.7-1.9.4-.5 1-.8 1.7-.8s1.3.2 1.6.6c.4.4.6 1 .6 1.7v.7h-3.3c0 .4.1.8.4 1 .2.3.5.4.9.4.3 0 .6 0 .8-.1.2-.1.4-.2.7-.3l.4.8c-.2.2-.5.3-.8.4-.4.2-.7.3-1.2.3zm-.1-4.6c-.3 0-.5.1-.7.3-.2.2-.3.5-.4.9h2.1c0-.3-.1-.6-.3-.8s-.4-.4-.7-.4zM210.3 146.3c0-.1-.1-.3-.1-.4 0-.1 0-.3-.1-.4-.2.2-.4.5-.6.6-.3.2-.6.3-.9.3-.6 0-1-.1-1.3-.4-.3-.3-.4-.7-.4-1.2s.2-.9.6-1.2c.4-.3 1-.4 1.7-.4h.9v-.5c0-.3-.1-.5-.2-.6-.2-.2-.4-.2-.7-.2-.3 0-.5.1-.6.2-.2.1-.2.3-.2.5h-1.1c0-.4.2-.8.6-1.1s.9-.5 1.5-.5 1.1.2 1.5.5c.4.3.6.8.6 1.3v2.9c0 .2.1.4.1.6h-1.3zm-1.4-.9c.3 0 .6-.1.8-.2s.4-.3.5-.5v-.8h-.9c-.3 0-.6.1-.8.3-.2.2-.3.4-.3.6 0 .2.1.4.2.5.1 0 .2.1.5.1zM214.3 143.9h-.5v2.3h-1.2v-7.6h1.2v4.4h.5l1.3-2h1.4l-1.7 2.4 2 2.9h-1.4l-1.6-2.4zM220.1 143.7h-2.6v-1h2.6v1zM226.8 143.3c0 .9-.3 1.6-.8 2.2-.5.6-1.3.9-2.1.9-.9 0-1.5-.3-2.1-.9-.5-.6-.8-1.3-.8-2.2V142c0-.9.3-1.6.8-2.2s1.2-.9 2.1-.9c.9 0 1.6.3 2.1.9s.8 1.3.8 2.2v1.3zm-1.2-1.3c0-.6-.2-1.1-.5-1.5s-.7-.6-1.3-.6c-.5 0-.9.2-1.2.6s-.5.9-.5 1.5v1.3c0 .6.2 1.1.5 1.5.3.4.7.6 1.2.6s1-.2 1.3-.6c.3-.4.5-.9.5-1.5V142zM231.2 145.5c-.2.3-.4.5-.6.6-.3.2-.5.2-.9.2-.6 0-1-.2-1.3-.5-.3-.4-.5-.9-.5-1.7V141h1.2v3.2c0 .5.1.8.2 1 .1.2.4.3.7.3.3 0 .5-.1.7-.2.2-.1.3-.3.5-.4V141h1.2v5.3h-1l-.2-.8zM235.1 139.7v1.3h.9v.9h-.9v2.9c0 .2 0 .4.1.5.1.1.2.1.4.1h.4l.1.9c-.1.1-.2.1-.4.1h-.4c-.4 0-.8-.1-1-.4-.2-.3-.4-.7-.4-1.2v-2.9h-.8v-.9h.8v-1.3h1.2z"/></g><g><path class="st3" d="M16.1 54.5v.7H7.2v-.7h3.7v-7.8h.8v3.1h3.7v.7h-3.7v4h4.4zM20.5 47.3c-.3.8-.7 1.9-1.1 2.6.8.8 1 1.5 1 2.1 0 .5-.1 1-.4 1.1-.2.1-.3.2-.6.2h-.7c0-.2-.1-.5-.2-.7h.6c.1 0 .2 0 .3-.1.2-.1.2-.4.2-.7 0-.5-.2-1.2-1-2 .3-.7.6-1.6.9-2.3H18v8h-.7V47h2.5l.7.3zm5.5 4.8c-.5.5-1.1.9-1.6 1.3.5.8 1.1 1.3 1.9 1.7-.2.1-.4.4-.5.6-1.5-.7-2.4-2.3-2.9-4.2h-1.1v3.1c.6-.1 1.3-.2 1.9-.4v.6c-1.2.3-2.6.6-3.5.8l-.2-.7c.3-.1.7-.1 1.1-.2V47h4.5v4.4h-2c.1.5.3 1 .5 1.4.5-.4 1-.8 1.3-1.2l.6.5zm-4.2-4.4v1.2h3v-1.2h-3zm0 3.1h3v-1.2h-3v1.2zM29.5 48.3l.9.2c-.1.2-.1.5-.2.7-.1.6-.5 2.1-.9 3.1-.4.9-.9 1.9-1.5 2.7l-.8-.3c.6-.8 1.2-1.9 1.5-2.7.4-1.1.9-2.6 1-3.7zm2.5.1l.8-.3c.4.7 1 2.1 1.5 3.2.4 1 .9 2.5 1.2 3.4l-.9.3c-.2-1-.7-2.4-1.1-3.4-.5-1.1-1.1-2.5-1.5-3.2zm2.8.1l-.5.2c-.2-.4-.5-1-.8-1.4l.5-.2c.2.4.6 1 .8 1.4zm1.1-.4l-.5.2c-.2-.4-.5-1-.8-1.4l.5-.2c.2.4.6 1.1.8 1.4zM38.5 47.5v4.8h-.9v-4.1-.7h.9zm4.6-.1v2.5c0 2.4-.3 3.2-1 4-.6.8-1.6 1.2-2.4 1.5l-.7-.7c.9-.2 1.8-.6 2.4-1.3.7-.8.8-1.6.8-3.5v-1.6-.9h.9zM53.2 48.2c-.1.1-.2.2-.3.4-.4.7-1.3 2-2.5 2.8l-.7-.5c.9-.5 1.9-1.6 2.2-2.2h-5.7c-.4 0-.7 0-1.1.1v-.9c.4 0 .8.1 1.1.1H52c.2 0 .5 0 .7-.1l.5.3zm-4 1.3c0 2.7-.2 4.5-2.8 5.8l-.7-.6c.3-.1.6-.2.9-.4 1.5-.9 1.8-2.4 1.8-4v-.7h.8z"/></g><g><path class="st3" d="M11.8 137.7v1.8l.1-.1c1.2.6 2.8 1.5 3.5 2.1l-.4.5c-.7-.6-2-1.4-3.2-2v5.3H11v-7.6H7.2v-.7H16v.7h-4.2zM20.5 136.9c-.3.8-.7 1.9-1.1 2.6.8.8 1 1.5 1 2.1 0 .5-.1 1-.4 1.1-.2.1-.3.2-.6.2h-.7c0-.2-.1-.5-.2-.7h.6c.1 0 .2 0 .3-.1.2-.1.2-.4.2-.7 0-.5-.2-1.2-1-2 .3-.7.6-1.6.9-2.3H18v8h-.7v-8.7h2.5l.7.5zm5.5 4.8c-.5.5-1.1.9-1.6 1.3.5.8 1.1 1.3 1.9 1.7-.2.1-.4.4-.5.6-1.5-.7-2.4-2.3-2.9-4.2h-1.1v3.1c.6-.1 1.3-.2 1.9-.4v.6c-1.2.3-2.6.6-3.5.8l-.2-.7c.3-.1.7-.1 1.1-.2v-7.6h4.5v4.4h-2c.1.5.3 1 .5 1.4.5-.4 1-.8 1.3-1.2l.6.4zm-4.2-4.4v1.2h3v-1.2h-3zm0 3.1h3v-1.2h-3v1.2zM29.5 137.8l.9.2c-.1.2-.1.5-.2.7-.1.6-.5 2.1-.9 3.1-.4.9-.9 1.9-1.5 2.7l-.8-.4c.6-.8 1.2-1.9 1.5-2.7.4-.9.9-2.4 1-3.6zm2.5.2l.8-.3c.4.7 1 2.1 1.5 3.2.4 1 .9 2.5 1.2 3.4l-.9.3c-.2-1-.7-2.4-1.1-3.4-.5-1.1-1.1-2.5-1.5-3.2zm2.8.1l-.5.2c-.2-.4-.5-1-.8-1.4l.5-.2c.2.4.6 1 .8 1.4zm1.1-.4l-.5.2c-.2-.4-.5-1-.8-1.4l.5-.2c.2.4.6 1 .8 1.4zM38.5 137v4.8h-.9v-4.1-.7h.9zm4.6 0v2.5c0 2.4-.3 3.2-1 4-.6.8-1.6 1.2-2.4 1.5l-.7-.7c.9-.2 1.8-.6 2.4-1.3.7-.8.8-1.6.8-3.5v-1.6-.9h.9zM53.2 137.8c-.1.1-.2.2-.3.4-.4.7-1.3 2-2.5 2.8l-.7-.5c.9-.5 1.9-1.6 2.2-2.2h-5.7c-.4 0-.7 0-1.1.1v-.9c.4 0 .8.1 1.1.1H52c.2 0 .5 0 .7-.1l.5.3zm-4 1.3c0 2.7-.2 4.5-2.8 5.8l-.7-.6c.3-.1.6-.2.9-.4 1.5-.9 1.8-2.4 1.8-4v-.7h.8z"/></g><g><path class="st3" d="M12.1 108.6v7.8h-.7v-1.8c-1.3.2-2.5.4-3.5.6l-.1-.8c.3 0 .6-.1 1-.1v-5.7H8v-.7h4.8v.7h-.7zm-.7 0H9.5v1.3h1.9v-1.3zm0 2H9.5v1.4h1.9v-1.4zm-1.9 3.5c.6-.1 1.3-.2 1.9-.3v-1.2H9.5v1.5zm7.3-5.4c-.3 2.1-.8 3.8-1.6 5.1.5.8 1.2 1.4 2.1 1.9-.2.1-.4.4-.5.6-.8-.4-1.4-1.1-2-1.8-.6.7-1.3 1.3-2 1.8-.1-.2-.3-.5-.5-.6.8-.4 1.5-1 2.1-1.8-.7-1.2-1.2-2.6-1.5-4.3l.7-.1c.3 1.4.7 2.6 1.2 3.7.6-1 1-2.3 1.2-3.7h-3.4v-.7h3.7l.5-.1zM22.5 112.1v.3c-.2 2.4-.3 3.3-.7 3.6-.2.2-.4.3-.8.3h-1.6c0-.2-.1-.5-.3-.8.7.1 1.3.1 1.6.1.2 0 .3 0 .4-.1.2-.2.4-1 .5-2.8H19c0 .2-.1.3-.1.5l-.7-.1c.2-.8.4-2.1.6-3.2h2.9v-1.6h-3.3v-.7h4v3h-3c-.1.5-.2 1-.2 1.4h3.3zm3.4-4.7v9h-.7v-9h.7zM31.1 114.4H29v.8h-.7v-7.3h2.8v6.5zm-2.1-5.8v2.2h1.4v-2.2H29zm1.4 5.2v-2.3H29v2.3h1.4zm5.4-2.8v1.1H37v.7h-1.2v2.7c0 .4-.1.6-.4.8-.3.1-.8.1-1.6.1 0-.2-.1-.5-.2-.7h1.3c.2 0 .2-.1.2-.2v-2.7h-3.8v-.7h3.8V111h-3.8v-.7h2.5V109h-2.1v-.7h2.1v-1.2h.7v1.2h2.1v.7h-2.1v1.3h2.6v.7h-1.3zm-3.3 2.2c.5.5 1.1 1.2 1.3 1.7l-.6.4c-.2-.5-.8-1.2-1.3-1.8l.6-.3zM39.1 115.3c.1-.2.1-.3.1-.5v-5.7c0-.3-.1-.7-.1-.9h1c0 .2-.1.6-.1.9v5.7c1.9-.5 4.2-1.8 5.5-3.4l.5.7c-1.3 1.6-3.4 2.8-5.8 3.6-.1 0-.3.1-.4.2l-.7-.6zM47.3 111.3h8v1h-8v-1zM62.8 113.1c-1.1-.6-2.8-1.3-3.9-1.6v3.3c0 .3 0 .8.1 1.2h-1c0-.3.1-.8.1-1.2V109c0-.3 0-.7-.1-1h1c0 .3-.1.7-.1 1v1.6c1.3.4 3.2 1.1 4.3 1.6l-.4.9z"/></g></svg>