<svg id="Layer_1" data-name="Layer 1" xmlns="http://www.w3.org/2000/svg" viewBox="0 0 245 160"><defs><style>.cls-1{fill:#f1f1f2;stroke:#c2c2c2;}.cls-1,.cls-2,.cls-9{stroke-miterlimit:10;}.cls-1,.cls-9{stroke-width:2px;}.cls-2,.cls-3,.cls-5,.cls-9{fill:none;}.cls-2{stroke:#dededd;}.cls-3,.cls-5{stroke:#293052;stroke-linejoin:round;}.cls-4{fill:#231f20;}.cls-5{stroke-linecap:round;stroke-width:3px;}.cls-6{fill:#6d6e70;}.cls-7{opacity:0.6;}.cls-8{fill:#fff;}.cls-9{stroke:#e88024;}.cls-10{fill:#293052;}</style></defs><title>high</title><rect class="cls-1" x="-0.25" width="245" height="160"/><line class="cls-2" x1="2" y1="44.188" x2="243.5" y2="44.188"/><line class="cls-2" x1="2" y1="60.875" x2="243.5" y2="60.875"/><line class="cls-2" x1="2" y1="77.563" x2="243.5" y2="77.563"/><line class="cls-2" x1="2" y1="110.938" x2="243.5" y2="110.938"/><line class="cls-2" x1="2" y1="127.625" x2="243.5" y2="127.625"/><line class="cls-2" x1="2" y1="144.313" x2="243.5" y2="144.313"/><line class="cls-2" x1="31.164" y1="27.5" x2="31.164" y2="159"/><line class="cls-2" x1="61.719" y1="27.5" x2="61.719" y2="159"/><line class="cls-2" x1="92.273" y1="27.5" x2="92.273" y2="159"/><line class="cls-2" x1="122.828" y1="27.5" x2="122.828" y2="159"/><line class="cls-2" x1="153.383" y1="27.5" x2="153.383" y2="159"/><line class="cls-3" x1="183.937" y1="27.5" x2="183.937" y2="159"/><line class="cls-2" x1="214.492" y1="27.5" x2="214.492" y2="159"/><line class="cls-3" x1="2" y1="94.25" x2="243.5" y2="94.25"/><line class="cls-1" x1="0.25" y1="26.5" x2="245.25" y2="26.5"/><path class="cls-4" d="M22.286,12.005a3.522,3.522,0,0,0-.18.408,8.608,8.608,0,0,1-1.763,3.37,8.865,8.865,0,0,1-4.293,2.555l-.936-1.08a8.118,8.118,0,0,0,4.2-2.159,5.656,5.656,0,0,0,1.331-2.4h-6.1c-.288,0-.816.012-1.271.048V11.5c.468.048.923.084,1.271.084h6.141a2.379,2.379,0,0,0,.768-.108Zm-7.928-3.3a11.054,11.054,0,0,0,1.14.06h4.677a11.411,11.411,0,0,0,1.175-.06V9.942c-.3-.024-.779-.036-1.187-.036H15.5c-.372,0-.8.012-1.14.036Z"/><path class="cls-4" d="M32.271,9.93l.708.432a4.081,4.081,0,0,0-.336.731,12.685,12.685,0,0,1-1.7,3.442c.444.288.852.564,1.151.78l-.852,1.091c-.288-.24-.684-.528-1.127-.839a11.224,11.224,0,0,1-4.582,3.106l-1.079-.947a10.3,10.3,0,0,0,4.605-2.854c-.876-.576-1.8-1.127-2.447-1.487l.792-.9c.671.348,1.6.864,2.471,1.391a9.613,9.613,0,0,0,1.4-2.914h-3.8a13.536,13.536,0,0,1-3.166,3.13l-1.02-.792a10.78,10.78,0,0,0,3.838-4.078,4.813,4.813,0,0,0,.456-1.091l1.367.432c-.24.36-.492.828-.624,1.067l-.144.252H31.1a2.763,2.763,0,0,0,.9-.12l.048.024a12.407,12.407,0,0,0-.852-1.463L31.959,8a17.338,17.338,0,0,1,.971,1.643ZM33.314,7.5a14.163,14.163,0,0,1,1,1.631l-.78.348a12.01,12.01,0,0,0-.983-1.655Z"/><path class="cls-4" d="M34.939,12.4c.384.036,1.127.072,1.775.072h6.513c.587,0,1.055-.048,1.343-.072v1.475c-.264-.012-.8-.048-1.332-.048H36.714c-.671,0-1.379.024-1.775.048Z"/><path class="cls-4" d="M53.361,17.75H51.656V14.205h-3.48V17.75H46.465V9.219h1.711v3.668h3.48V9.219h1.705Z"/><path class="cls-4" d="M56.619,9.893H54.908V8.609h1.711Zm0,7.857H54.908V11.41h1.711Z"/><path class="cls-4" d="M57.762,14.633a4.092,4.092,0,0,1,.653-2.42,2.117,2.117,0,0,1,1.831-.92,1.8,1.8,0,0,1,.938.24,2.1,2.1,0,0,1,.691.686l.135-.809h1.477v6.311a2.352,2.352,0,0,1-.812,1.913,3.426,3.426,0,0,1-2.259.677,4.3,4.3,0,0,1-1.02-.132,4.734,4.734,0,0,1-1-.36l.316-1.277a3.992,3.992,0,0,0,.8.284,3.84,3.84,0,0,0,.888.1,1.531,1.531,0,0,0,1.034-.293,1.16,1.16,0,0,0,.331-.914v-.574a1.914,1.914,0,0,1-.662.545,1.952,1.952,0,0,1-.873.188,2.157,2.157,0,0,1-1.819-.858,3.632,3.632,0,0,1-.653-2.259Zm1.711.124a2.61,2.61,0,0,0,.281,1.317.978.978,0,0,0,.914.48,1.4,1.4,0,0,0,.665-.145,1.1,1.1,0,0,0,.437-.421V13.218a1.184,1.184,0,0,0-.437-.448,1.275,1.275,0,0,0-.653-.159.965.965,0,0,0-.917.56,3.181,3.181,0,0,0-.29,1.462Z"/><path class="cls-4" d="M66.469,12.213a2.178,2.178,0,0,1,.732-.677,2.111,2.111,0,0,1,2.517.416,3.076,3.076,0,0,1,.565,2.036V17.75H68.572V13.968a1.634,1.634,0,0,0-.261-1.048.96.96,0,0,0-.776-.309,1.444,1.444,0,0,0-.621.126,1.187,1.187,0,0,0-.445.355V17.75H64.758V8.609h1.711Z"/><path class="cls-4" d="M214.2,14.307h2.288v.968H214.2v3.333h-.99V15.274h-2.333v-.968h2.333V12.931H211.16v-.957h2.046V8.52h.99v3.455h2.057v.957H214.2Zm-2.311-2.7a10.25,10.25,0,0,0-.748-2.233l.836-.264a10.933,10.933,0,0,1,.814,2.2ZM216.452,9.3a24.577,24.577,0,0,1-1.067,2.311l-.8-.242a13.972,13.972,0,0,0,.869-2.333Zm1.386,6.612h-.99V9.84h.99ZM220.5,8.74v8.581c0,.638-.154.935-.539,1.122a6.436,6.436,0,0,1-2.068.176,4.729,4.729,0,0,0-.363-1.045c.748.033,1.441.022,1.661.022s.286-.077.286-.275V8.74Z"/><path class="cls-4" d="M227.452,17.365a11.427,11.427,0,0,0,1.551.1c.473,0,2.321,0,2.948-.022a3.087,3.087,0,0,0-.385,1.034h-2.618c-2.156,0-3.741-.363-4.742-2.09a5.606,5.606,0,0,1-1.551,2.289,5.541,5.541,0,0,0-.847-.7c1.21-.9,1.771-2.442,2-4.368l1.056.1a13.465,13.465,0,0,1-.264,1.441,3.149,3.149,0,0,0,1.793,1.937V12.81h-2.542v-.979h6.194v.979h-2.6v1.618H230.6v.957h-3.146Zm-4.1-5.126h-1V9.708h4.027V8.531h1.089V9.708h4.071v2.53h-1.045V10.676h-7.14Z"/><polyline class="cls-5" points="31.164 127.625 57.083 80 73.297 107.833 92.273 60.875 122.828 112.875 153.383 42.37 183.937 60.875"/><path class="cls-4" d="M12.3,140.788v7.785h-.719v-1.809c-1.259.21-2.539.4-3.488.56l-.13-.75c.28-.029.61-.069.969-.119v-5.667H8.149V140.1H13v.689Zm-.719,0H9.628v1.329h1.949Zm0,1.988H9.628v1.39h1.949Zm-1.949,3.578c.61-.08,1.279-.18,1.949-.279v-1.229H9.628Zm7.306-5.406a12.143,12.143,0,0,1-1.619,5.066,5.552,5.552,0,0,0,2.059,1.859,3.09,3.09,0,0,0-.53.609,6.256,6.256,0,0,1-1.989-1.809,7.151,7.151,0,0,1-2.039,1.779,2.87,2.87,0,0,0-.49-.6,6.091,6.091,0,0,0,2.1-1.849,13.937,13.937,0,0,1-1.489-4.268l.71-.13a12.887,12.887,0,0,0,1.229,3.7,10.958,10.958,0,0,0,1.24-3.738H12.747v-.729h3.568l.14-.03Z"/><path class="cls-4" d="M22.677,144.276s-.01.239-.02.34c-.18,2.358-.35,3.288-.709,3.628a.963.963,0,0,1-.79.319,14.624,14.624,0,0,1-1.579-.02,1.689,1.689,0,0,0-.26-.76c.66.06,1.319.069,1.569.069a.582.582,0,0,0,.44-.109c.24-.21.41-.979.54-2.778H19.239c-.04.17-.08.329-.11.479l-.729-.12c.2-.829.439-2.148.58-3.158H21.9v-1.579H18.639v-.7h3.988v2.979H19.619c-.08.47-.16.959-.25,1.409Zm3.418-4.7v9.016h-.74v-9.016Z"/><path class="cls-4" d="M31.268,146.644H29.119v.81h-.679v-7.326h2.828ZM29.119,140.8v2.219h1.449V140.8Zm1.449,5.177v-2.309H29.119v2.309Zm5.407-2.729v1.13h1.159v.659H35.975v2.679c0,.42-.11.64-.41.75a5.739,5.739,0,0,1-1.619.12,2.285,2.285,0,0,0-.24-.69c.62.021,1.169.021,1.329.011s.22-.051.22-.2v-2.669H31.478v-.659h3.778v-1.13H31.428v-.659h2.508v-1.27H31.857v-.659h2.079v-1.189h.73v1.189h2.148v.659H34.666v1.27h2.578v.659Zm-3.288,2.14a7.06,7.06,0,0,1,1.3,1.7l-.63.4a7.7,7.7,0,0,0-1.269-1.759Z"/><path class="cls-4" d="M39.238,147.513a1.1,1.1,0,0,0,.1-.489v-5.717a7.731,7.731,0,0,0-.08-.909h.979a6.438,6.438,0,0,0-.07.909v5.667a10.782,10.782,0,0,0,5.467-3.408l.45.7a11.626,11.626,0,0,1-5.847,3.568,1.442,1.442,0,0,0-.42.18Z"/><path class="cls-4" d="M47.4,143.506c.3.02.83.05,1.389.05h5.477c.5,0,.859-.03,1.079-.05v.979c-.2-.01-.62-.05-1.069-.05H48.789c-.55,0-1.08.021-1.389.05Z"/><path class="cls-4" d="M62.936,145.265a26.163,26.163,0,0,0-3.928-1.609l.01,3.3a11.784,11.784,0,0,0,.06,1.18h-.959a10.923,10.923,0,0,0,.06-1.18v-5.816a6.289,6.289,0,0,0-.08-1.039h.979c-.03.31-.07.739-.07,1.039v1.629a32.492,32.492,0,0,1,4.268,1.649Z"/><path class="cls-4" d="M13.818,80.627l.89.18c-.06.22-.14.51-.18.729a22.2,22.2,0,0,1-.909,3.118A14.519,14.519,0,0,1,12.149,87.4l-.85-.36a13.09,13.09,0,0,0,1.539-2.719A15.271,15.271,0,0,0,13.818,80.627Zm2.489.159.81-.27a32.2,32.2,0,0,1,1.459,3.158c.41.989.939,2.519,1.2,3.418l-.889.29a29.928,29.928,0,0,0-1.129-3.437A25.625,25.625,0,0,0,16.307,80.787Zm2.818.131-.54.239a11.475,11.475,0,0,0-.81-1.389l.53-.221A11.6,11.6,0,0,1,19.125,80.917Zm1.12-.41-.54.24a9.465,9.465,0,0,0-.83-1.38l.53-.22A11.548,11.548,0,0,1,20.245,80.507Z"/><path class="cls-4" d="M22.829,79.828c-.02.189-.03.479-.03.72v3.338c0,.25.01.58.03.76h-.919c.01-.15.04-.47.04-.77V80.547c0-.18-.02-.53-.04-.72Zm4.627-.07c-.02.24-.04.53-.04.859v1.619c0,2.4-.32,3.188-1.04,4.048A5.334,5.334,0,0,1,24,87.744l-.65-.69a4.6,4.6,0,0,0,2.4-1.329c.719-.829.839-1.639.839-3.527v-1.58c0-.329-.03-.619-.05-.859Z"/><path class="cls-4" d="M37.555,80.578c-.07.1-.2.249-.27.359A9.648,9.648,0,0,1,34.8,83.7l-.66-.53a6.741,6.741,0,0,0,2.179-2.238H30.629a11.3,11.3,0,0,0-1.14.06v-.9a10.53,10.53,0,0,0,1.14.08h5.737a5.035,5.035,0,0,0,.7-.06ZM33.567,81.9c0,2.709-.24,4.538-2.788,5.808l-.73-.6a3.877,3.877,0,0,0,.89-.44c1.549-.949,1.769-2.378,1.769-4.048a5.968,5.968,0,0,0-.04-.72Z"/><path class="cls-4" d="M193.513,76.711c.48-.49,1.349-1.6,1.979-2.339.53-.63.939-.7,1.659-.1a25.167,25.167,0,0,1,2.069,2.068c.669.72,1.689,1.81,2.418,2.669l-.649.709c-.7-.9-1.609-1.929-2.249-2.658a26.812,26.812,0,0,0-1.949-2.028c-.42-.351-.56-.34-.9.079-.48.58-1.319,1.68-1.769,2.229-.21.26-.43.569-.58.77l-.73-.74C193.063,77.151,193.253,76.971,193.513,76.711Zm6.537-3.928A1.214,1.214,0,1,1,198.83,74,1.215,1.215,0,0,1,200.049,72.784Zm0,1.948a.73.73,0,1,0-.74-.729A.733.733,0,0,0,200.049,74.732Z"/><path class="cls-4" d="M210.589,72.793a15.705,15.705,0,0,1-2.679,2.169V79.24a7.522,7.522,0,0,0,.06,1.069h-.979a9.3,9.3,0,0,0,.06-1.069V75.462a20.027,20.027,0,0,1-3.758,1.559l-.459-.779A15.772,15.772,0,0,0,207.3,74.4a11.033,11.033,0,0,0,2.629-2.209Z"/><path class="cls-4" d="M220.108,73.244c-.07.1-.2.249-.27.359a9.648,9.648,0,0,1-2.489,2.759l-.66-.53a6.741,6.741,0,0,0,2.179-2.238h-5.687a11.3,11.3,0,0,0-1.14.06v-.9a10.53,10.53,0,0,0,1.14.08h5.737a5.035,5.035,0,0,0,.7-.06Zm-3.988,1.318c0,2.709-.24,4.538-2.788,5.808l-.73-.6a3.877,3.877,0,0,0,.89-.44c1.549-.949,1.769-2.378,1.769-4.048a5.968,5.968,0,0,0-.04-.72Z"/><path class="cls-4" d="M228.949,73.933c-.05.149-.11.409-.15.6a9.176,9.176,0,0,1-.979,3,6.327,6.327,0,0,1-3.958,2.839l-.65-.75a5.366,5.366,0,0,0,1.04-.279,5.273,5.273,0,0,0,2.708-2.01,7.365,7.365,0,0,0,.95-2.918h-5.587V76.2a3.621,3.621,0,0,0,.04.59h-.87c.02-.17.03-.44.03-.63V74.4a6.732,6.732,0,0,0-.03-.77,9.037,9.037,0,0,0,.929.04h2.209v-.93a5.687,5.687,0,0,0-.05-.75h.959a4.442,4.442,0,0,0-.06.75v.93h2.239a1.967,1.967,0,0,0,.689-.08Z"/><path class="cls-4" d="M236.119,77.431a26.163,26.163,0,0,0-3.928-1.609l.01,3.3a11.784,11.784,0,0,0,.06,1.18H231.3a10.923,10.923,0,0,0,.06-1.18V73.3a6.289,6.289,0,0,0-.08-1.039h.979c-.03.31-.07.739-.07,1.039v1.629a32.492,32.492,0,0,1,4.268,1.649Z"/><path class="cls-6" d="M193.327,107.672c.48-.49,1.349-1.6,1.979-2.339.53-.63.939-.7,1.659-.1a25.167,25.167,0,0,1,2.069,2.068c.669.72,1.689,1.81,2.418,2.669l-.649.709c-.7-.9-1.609-1.929-2.249-2.658a26.812,26.812,0,0,0-1.949-2.028c-.42-.351-.56-.34-.9.079-.48.58-1.319,1.68-1.769,2.229-.21.26-.43.569-.58.77l-.73-.74C192.877,108.112,193.067,107.932,193.327,107.672Zm6.537-3.928a1.214,1.214,0,1,1-1.22,1.219A1.215,1.215,0,0,1,199.864,103.745Zm0,1.948a.73.73,0,1,0-.74-.729A.733.733,0,0,0,199.864,105.693Z"/><path class="cls-6" d="M210.4,103.754a15.705,15.705,0,0,1-2.679,2.169V110.2a7.522,7.522,0,0,0,.06,1.069h-.979a9.3,9.3,0,0,0,.06-1.069v-3.777a20.04,20.04,0,0,1-3.758,1.559l-.459-.779a15.772,15.772,0,0,0,4.467-1.839,11.033,11.033,0,0,0,2.629-2.209Z"/><path class="cls-6" d="M219.922,104.2c-.07.1-.2.249-.27.359a9.648,9.648,0,0,1-2.489,2.759l-.66-.53a6.741,6.741,0,0,0,2.179-2.238H213a11.3,11.3,0,0,0-1.14.06v-.9a10.53,10.53,0,0,0,1.14.08h5.737a5.035,5.035,0,0,0,.7-.06Zm-3.988,1.318c0,2.709-.24,4.538-2.788,5.808l-.73-.6a3.877,3.877,0,0,0,.89-.44c1.549-.949,1.769-2.378,1.769-4.048a5.968,5.968,0,0,0-.04-.72Z"/><path class="cls-6" d="M228.763,104.894c-.05.149-.11.409-.15.6a9.176,9.176,0,0,1-.979,3,6.327,6.327,0,0,1-3.958,2.839l-.65-.75a5.366,5.366,0,0,0,1.04-.279,5.273,5.273,0,0,0,2.708-2.01,7.365,7.365,0,0,0,.95-2.918h-5.587v1.789a3.621,3.621,0,0,0,.04.59h-.87c.02-.17.03-.44.03-.63v-1.759a6.732,6.732,0,0,0-.03-.77,9.037,9.037,0,0,0,.929.04h2.209v-.93a5.687,5.687,0,0,0-.05-.75h.959a4.442,4.442,0,0,0-.06.75v.93h2.239a1.967,1.967,0,0,0,.689-.08Z"/><path class="cls-6" d="M235.934,108.392a26.163,26.163,0,0,0-3.928-1.609l.01,3.3a11.784,11.784,0,0,0,.06,1.18h-.959a10.923,10.923,0,0,0,.06-1.18v-5.816a6.289,6.289,0,0,0-.08-1.039h.979c-.03.31-.07.739-.07,1.039v1.629a32.492,32.492,0,0,1,4.268,1.649Z"/><path class="cls-6" d="M211.074,116.963a11.719,11.719,0,0,1-1.789.36,17.779,17.779,0,0,1-2.159,4.188l-.78-.4a14.208,14.208,0,0,0,2.119-3.7c-.29.02-.58.03-.87.03-.37,0-.779-.011-1.149-.03l-.06-.75a9.187,9.187,0,0,0,1.22.07c.35,0,.719-.02,1.1-.05a8.121,8.121,0,0,0,.31-1.709l.889.08c-.1.359-.229.959-.39,1.528a9.989,9.989,0,0,0,1.539-.359Zm1.16,1.149a9.615,9.615,0,0,0-.01,1.069c.01.36.05,1.01.07,1.609a6.674,6.674,0,0,1,2.049,1.239l-.43.68a6.865,6.865,0,0,0-1.589-1.129c.01.149.01.289.01.4,0,.79-.52,1.439-1.739,1.439-1.089,0-1.979-.45-1.979-1.43,0-.909.859-1.5,1.979-1.5a4.716,4.716,0,0,1,.939.09c-.03-.81-.08-1.779-.1-2.469Zm-.67,3.169a3.606,3.606,0,0,0-1-.141c-.729,0-1.209.33-1.209.78s.37.77,1.139.77c.81,0,1.08-.45,1.08-.939C211.574,121.622,211.574,121.461,211.564,121.282Zm2.639-2.9a11.866,11.866,0,0,0-2.259-1.359l.39-.62a15.039,15.039,0,0,1,2.319,1.319Z"/><path class="cls-6" d="M217.815,115.2c-.05.32-.08.67-.1.989-.04,1.12-.12,3.458-.12,4.938,0,1.09.7,1.47,1.619,1.47a4.136,4.136,0,0,0,3.558-2.049l.55.689a4.932,4.932,0,0,1-4.128,2.179c-1.419,0-2.4-.6-2.4-2.209,0-1.469.1-3.968.1-5.018a5.08,5.08,0,0,0-.09-1Z"/><g class="cls-7"><ellipse class="cls-8" cx="183.937" cy="60.875" rx="6.756" ry="6.943"/></g><ellipse class="cls-9" cx="183.937" cy="60.875" rx="6.756" ry="6.943"/><g class="cls-7"><ellipse class="cls-8" cx="31.164" cy="127.625" rx="6.756" ry="6.943"/></g><ellipse class="cls-9" cx="31.164" cy="127.625" rx="6.756" ry="6.943"/><path class="cls-10" d="M210.3,46.87h-1.182V43.838h-3.184V46.87h-1.187V39.761h1.187v3.125h3.184V39.761H210.3Z"/><path class="cls-10" d="M212.976,40.293h-1.187v-1.04h1.187Zm0,6.577h-1.187V41.587h1.187Z"/><path class="cls-10" d="M214.089,44.3a3.438,3.438,0,0,1,.552-2.036,1.776,1.776,0,0,1,1.533-.776,1.663,1.663,0,0,1,.833.2,1.762,1.762,0,0,1,.607.583l.117-.688h.986V46.87a1.993,1.993,0,0,1-.63,1.577A2.612,2.612,0,0,1,216.3,49a3.464,3.464,0,0,1-.833-.11,3.852,3.852,0,0,1-.808-.29l.254-.933a2.87,2.87,0,0,0,.647.236,3.057,3.057,0,0,0,.729.086,1.357,1.357,0,0,0,.942-.275,1.1,1.1,0,0,0,.3-.848v-.542a1.66,1.66,0,0,1-.589.481,1.777,1.777,0,0,1-.778.163,1.826,1.826,0,0,1-1.523-.708,2.939,2.939,0,0,1-.552-1.86Zm1.187.1a2.079,2.079,0,0,0,.29,1.165,1.007,1.007,0,0,0,.9.437,1.207,1.207,0,0,0,.642-.159,1.166,1.166,0,0,0,.423-.456V43.076a1.268,1.268,0,0,0-.427-.452,1.167,1.167,0,0,0-.628-.163.974.974,0,0,0-.905.513,2.636,2.636,0,0,0-.3,1.328Z"/><path class="cls-10" d="M221.14,42.271a1.882,1.882,0,0,1,.643-.576,1.727,1.727,0,0,1,.837-.205,1.667,1.667,0,0,1,1.312.529,2.41,2.41,0,0,1,.471,1.634V46.87h-1.187V43.643a1.337,1.337,0,0,0-.249-.9.951.951,0,0,0-.747-.278,1.325,1.325,0,0,0-.622.144,1.284,1.284,0,0,0-.457.4V46.87h-1.187V39.253h1.187Z"/><path class="cls-10" d="M207.183,145.168h3.267v.952H206v-7.109h1.187Z"/><path class="cls-10" d="M211.035,143.43a2.879,2.879,0,0,1,.645-1.934,2.465,2.465,0,0,1,3.555,0,2.853,2.853,0,0,1,.649,1.934v.1a2.869,2.869,0,0,1-.649,1.943,2.482,2.482,0,0,1-3.555,0,2.873,2.873,0,0,1-.645-1.938Zm1.187.1a2.353,2.353,0,0,0,.3,1.259,1.143,1.143,0,0,0,1.865,0,2.3,2.3,0,0,0,.313-1.259v-.1a2.271,2.271,0,0,0-.312-1.244,1.13,1.13,0,0,0-1.865,0,2.339,2.339,0,0,0-.3,1.244Z"/><path class="cls-10" d="M221.567,144.6l.029,0,.825-3.755h1.138l-1.445,5.283h-.972l-1.123-3.608-.01-.049,0,.049-1.113,3.608h-.972l-1.445-5.283h1.138l.845,3.7.029,0,1.1-3.706h.864Z"/></svg>