<svg id="Layer_1" data-name="Layer 1" xmlns="http://www.w3.org/2000/svg" viewBox="0 0 245 160"><defs><style>.cls-1{fill:#f1f1f2;stroke:#c2c2c2}.cls-1,.cls-2,.cls-9{stroke-miterlimit:10}.cls-1,.cls-9{stroke-width:2px}.cls-2,.cls-3,.cls-6,.cls-9{fill:none}.cls-2{stroke:#dededd}.cls-3,.cls-6{stroke:#293052;stroke-linejoin:round}.cls-4{fill:#231f20}.cls-5{fill:#6d6e70}.cls-6{stroke-linecap:round;stroke-width:3px}.cls-7{opacity:.6}.cls-8{fill:#fff}.cls-9{stroke:#e88024}.cls-10{fill:#293052}</style></defs><title>low</title><path class="cls-1" d="M-.25 0h245v160h-245z"/><path class="cls-2" d="M2 44.188h241.5M2 60.875h241.5M2 77.563h241.5M2 110.938h241.5M2 127.625h241.5M2 144.313h241.5M31.164 27.5V159M61.719 27.5V159M92.273 27.5V159M122.828 27.5V159M153.383 27.5V159"/><path class="cls-3" d="M183.937 27.5V159"/><path class="cls-2" d="M214.492 27.5V159"/><path class="cls-3" d="M2 94.25h241.5"/><path class="cls-1" d="M.25 26.5h245"/><path class="cls-4" d="M22.286 12.005a3.522 3.522 0 0 0-.18.408 8.608 8.608 0 0 1-1.763 3.37 8.865 8.865 0 0 1-4.293 2.555l-.936-1.08a8.118 8.118 0 0 0 4.2-2.159 5.656 5.656 0 0 0 1.331-2.4h-6.1a18 18 0 0 0-1.271.048V11.5c.468.048.923.084 1.271.084h6.141a2.379 2.379 0 0 0 .768-.108zm-7.928-3.3a11.054 11.054 0 0 0 1.14.06h4.677a11.411 11.411 0 0 0 1.175-.06v1.237c-.3-.024-.779-.036-1.187-.036H15.5c-.372 0-.8.012-1.14.036zM32.271 9.93l.708.432a4.081 4.081 0 0 0-.336.731 12.685 12.685 0 0 1-1.7 3.442c.444.288.852.564 1.151.78l-.852 1.091a18.34 18.34 0 0 0-1.127-.839 11.224 11.224 0 0 1-4.582 3.106l-1.079-.947a10.3 10.3 0 0 0 4.605-2.854 41.361 41.361 0 0 0-2.447-1.487l.792-.9a46.1 46.1 0 0 1 2.471 1.391 9.613 9.613 0 0 0 1.4-2.914h-3.8a13.536 13.536 0 0 1-3.166 3.13l-1.02-.792a10.78 10.78 0 0 0 3.838-4.078 4.813 4.813 0 0 0 .456-1.091l1.367.432c-.24.36-.492.828-.624 1.067l-.144.252H31.1a2.763 2.763 0 0 0 .9-.12l.048.024a12.407 12.407 0 0 0-.852-1.463L31.959 8a17.338 17.338 0 0 1 .971 1.643zm1.043-2.43a14.163 14.163 0 0 1 1 1.631l-.78.348a12.01 12.01 0 0 0-.983-1.655zM34.939 12.4c.384.036 1.127.072 1.775.072h6.513c.587 0 1.055-.048 1.343-.072v1.475c-.264-.012-.8-.048-1.332-.048h-6.524c-.671 0-1.379.024-1.775.048zM48.176 16.432h3.8v1.318h-5.511V9.219h1.711zM52.553 14.521a3.4 3.4 0 0 1 .791-2.323 2.757 2.757 0 0 1 2.191-.905 2.787 2.787 0 0 1 2.2.9 3.384 3.384 0 0 1 .8 2.326v.123a3.389 3.389 0 0 1-.794 2.329 3.134 3.134 0 0 1-4.395 0 3.389 3.389 0 0 1-.794-2.329zm1.705.12a2.751 2.751 0 0 0 .3 1.39 1.172 1.172 0 0 0 1.954 0 2.733 2.733 0 0 0 .308-1.387v-.123a2.705 2.705 0 0 0-.311-1.375 1.052 1.052 0 0 0-.979-.532 1.039 1.039 0 0 0-.97.535 2.73 2.73 0 0 0-.308 1.372zM65.1 15.482h.035l.826-4.072h1.609l-1.611 6.34h-1.43l-1.178-3.773h-.035l-1.177 3.773h-1.424L59.1 11.41h1.605l.838 4.061h.035l1.184-4.061h1.143zM214.2 14.307h2.288v.968H214.2v3.333h-.99v-3.334h-2.332v-.968h2.332v-1.375h-2.05v-.957h2.046V8.52h.99v3.455h2.058v.957H214.2zm-2.311-2.7a10.2 10.2 0 0 0-.748-2.233l.836-.264a10.873 10.873 0 0 1 .814 2.2zm4.563-2.307a24.577 24.577 0 0 1-1.067 2.311l-.8-.242a13.886 13.886 0 0 0 .869-2.333zm1.386 6.612h-.99V9.84h.99zM220.5 8.74v8.581c0 .638-.153.935-.539 1.122a6.435 6.435 0 0 1-2.068.176 4.751 4.751 0 0 0-.362-1.045c.748.033 1.44.022 1.661.022s.286-.077.286-.275V8.74zM227.452 17.365a11.419 11.419 0 0 0 1.551.1c.473 0 2.321 0 2.948-.022a3.086 3.086 0 0 0-.385 1.034h-2.618c-2.156 0-3.741-.363-4.742-2.09a5.61 5.61 0 0 1-1.551 2.289 5.546 5.546 0 0 0-.848-.7c1.21-.9 1.771-2.442 2-4.368l1.056.1a13.467 13.467 0 0 1-.264 1.441 3.148 3.148 0 0 0 1.793 1.937V12.81h-2.541v-.979h6.193v.979h-2.6v1.618h3.156v.957h-3.146zm-4.1-5.126h-1V9.708h4.027V8.531h1.089v1.177h4.07v2.53h-1.045v-1.562h-7.141zM12.3 38.2v7.79h-.719v-1.809c-1.259.21-2.539.4-3.488.56l-.13-.75c.28-.029.61-.069.969-.119V38.2h-.783v-.689H13v.689zm-.719 0H9.628v1.329h1.949zm0 1.988H9.628v1.39h1.949zm-1.953 3.583c.61-.08 1.279-.18 1.949-.279v-1.23H9.628zm7.306-5.406a12.143 12.143 0 0 1-1.619 5.066 5.552 5.552 0 0 0 2.059 1.859 3.09 3.09 0 0 0-.53.609 6.256 6.256 0 0 1-1.989-1.809 7.151 7.151 0 0 1-2.039 1.779 2.87 2.87 0 0 0-.49-.6 6.091 6.091 0 0 0 2.1-1.849 13.937 13.937 0 0 1-1.489-4.268l.71-.13a12.887 12.887 0 0 0 1.229 3.7 10.958 10.958 0 0 0 1.24-3.738h-3.369v-.729h3.568l.14-.03zM22.677 41.693s-.01.239-.02.34c-.18 2.358-.35 3.288-.709 3.628a.963.963 0 0 1-.79.319 14.624 14.624 0 0 1-1.579-.02 1.689 1.689 0 0 0-.26-.76c.66.06 1.319.069 1.569.069a.582.582 0 0 0 .44-.109c.24-.21.41-.979.54-2.778h-2.629c-.04.17-.08.329-.11.479l-.729-.12c.2-.829.439-2.148.58-3.158h2.92V38h-3.261v-.7h3.988v2.979h-3.008c-.08.47-.16.959-.25 1.409zm3.418-4.7v9.017h-.74v-9.015zM31.268 44.061h-2.149v.81h-.679v-7.327h2.828zm-2.149-5.847v2.219h1.449v-2.219zm1.449 5.177v-2.308h-1.449v2.309zm5.407-2.729v1.13h1.159v.659h-1.159v2.679c0 .42-.11.64-.41.75a5.739 5.739 0 0 1-1.619.12 2.285 2.285 0 0 0-.24-.69c.62.021 1.169.021 1.329.011s.22-.051.22-.2v-2.669h-3.777v-.659h3.778v-1.13h-3.828V40h2.508v-1.27h-2.079v-.659h2.079v-1.186h.73v1.189h2.148v.659h-2.148V40h2.578v.659zM32.687 42.8a7.06 7.06 0 0 1 1.3 1.7l-.63.4a7.7 7.7 0 0 0-1.269-1.759zM39.238 44.93a1.1 1.1 0 0 0 .1-.489v-5.717a7.731 7.731 0 0 0-.08-.909h.979a6.438 6.438 0 0 0-.07.909v5.667a10.782 10.782 0 0 0 5.467-3.408l.45.7a11.626 11.626 0 0 1-5.847 3.568 1.442 1.442 0 0 0-.42.18zM47.4 40.923c.3.02.83.05 1.389.05h5.477c.5 0 .859-.03 1.079-.05v.977c-.2-.01-.62-.05-1.069-.05h-5.487c-.55 0-1.08.021-1.389.05zM62.936 42.682a26.163 26.163 0 0 0-3.928-1.609l.01 3.3a11.784 11.784 0 0 0 .06 1.18h-.959a10.923 10.923 0 0 0 .06-1.18v-5.819a6.289 6.289 0 0 0-.08-1.039h.979c-.03.31-.07.739-.07 1.039v1.629a32.492 32.492 0 0 1 4.268 1.649zM13.818 102.413l.89.18c-.06.22-.14.51-.18.729a22.2 22.2 0 0 1-.909 3.118 14.519 14.519 0 0 1-1.469 2.749l-.85-.36a13.09 13.09 0 0 0 1.539-2.719 15.271 15.271 0 0 0 .979-3.697zm2.489.159l.81-.27a32.2 32.2 0 0 1 1.459 3.158c.41.989.939 2.519 1.2 3.418l-.889.29a29.928 29.928 0 0 0-1.129-3.437 25.625 25.625 0 0 0-1.451-3.159zm2.818.131l-.54.239a11.475 11.475 0 0 0-.81-1.389l.53-.221a11.6 11.6 0 0 1 .82 1.368zm1.12-.41l-.54.24a9.465 9.465 0 0 0-.83-1.38l.53-.22a11.548 11.548 0 0 1 .84 1.36zM22.829 101.613c-.02.189-.03.479-.03.72v3.338c0 .25.01.58.03.76h-.919c.01-.15.04-.47.04-.77v-3.328c0-.18-.02-.53-.04-.72zm4.627-.07c-.02.24-.04.53-.04.859v1.619c0 2.4-.32 3.188-1.04 4.048a5.334 5.334 0 0 1-2.376 1.46l-.65-.69a4.6 4.6 0 0 0 2.4-1.329c.719-.829.839-1.639.839-3.527V102.4c0-.329-.03-.619-.05-.859zM37.555 102.363c-.07.1-.2.249-.27.359a9.648 9.648 0 0 1-2.489 2.759l-.66-.53a6.741 6.741 0 0 0 2.179-2.238h-5.686a11.3 11.3 0 0 0-1.14.06v-.9a10.53 10.53 0 0 0 1.14.08h5.737a5.035 5.035 0 0 0 .7-.06zm-3.988 1.318c0 2.709-.24 4.538-2.788 5.808l-.73-.6a3.877 3.877 0 0 0 .89-.44c1.549-.949 1.769-2.378 1.769-4.048a5.968 5.968 0 0 0-.04-.72zM193.513 107.673c.479-.49 1.349-1.6 1.979-2.339.53-.63.939-.7 1.659-.1a25.169 25.169 0 0 1 2.069 2.068c.669.72 1.688 1.81 2.418 2.669l-.649.709c-.7-.9-1.609-1.929-2.249-2.658a26.822 26.822 0 0 0-1.948-2.028c-.42-.351-.56-.34-.9.079-.48.58-1.319 1.68-1.77 2.229-.21.26-.43.569-.579.77l-.73-.74c.25-.22.44-.399.7-.659zm6.536-3.928a1.214 1.214 0 1 1-1.219 1.219 1.215 1.215 0 0 1 1.219-1.219zm0 1.948a.73.73 0 1 0-.739-.729.733.733 0 0 0 .739.729zM210.589 103.755a15.725 15.725 0 0 1-2.679 2.169v4.276a7.534 7.534 0 0 0 .06 1.069h-.979a9.174 9.174 0 0 0 .061-1.069v-3.777a20.032 20.032 0 0 1-3.759 1.559l-.459-.779a15.763 15.763 0 0 0 4.467-1.839 11.023 11.023 0 0 0 2.629-2.209zM220.107 104.205c-.069.1-.2.249-.27.359a9.645 9.645 0 0 1-2.488 2.759l-.66-.53a6.731 6.731 0 0 0 2.179-2.238h-5.687a11.306 11.306 0 0 0-1.14.06v-.9a10.538 10.538 0 0 0 1.14.08h5.737a5.048 5.048 0 0 0 .7-.06zm-3.987 1.318c0 2.709-.24 4.538-2.788 5.808l-.73-.6a3.858 3.858 0 0 0 .89-.44c1.55-.949 1.77-2.378 1.77-4.048a5.968 5.968 0 0 0-.04-.72zM228.948 104.895c-.05.149-.109.409-.149.6a9.188 9.188 0 0 1-.979 3 6.33 6.33 0 0 1-3.958 2.839l-.649-.75a5.352 5.352 0 0 0 1.039-.279 5.272 5.272 0 0 0 2.709-2.01 7.364 7.364 0 0 0 .949-2.918h-5.587v1.789a3.621 3.621 0 0 0 .04.59h-.869c.02-.17.029-.44.029-.63v-1.759a6.844 6.844 0 0 0-.029-.77 9.021 9.021 0 0 0 .929.04h2.209v-.93a5.6 5.6 0 0 0-.05-.75h.96a4.4 4.4 0 0 0-.061.75v.93h2.239a1.969 1.969 0 0 0 .689-.08zM236.119 108.393a26.184 26.184 0 0 0-3.928-1.609l.01 3.3a11.782 11.782 0 0 0 .06 1.18h-.961a10.928 10.928 0 0 0 .06-1.18v-5.816a6.236 6.236 0 0 0-.08-1.039h.979c-.029.31-.069.739-.069 1.039v1.629a32.492 32.492 0 0 1 4.268 1.649z"/><path class="cls-5" d="M193.327 69.339c.479-.49 1.349-1.6 1.979-2.339.53-.63.939-.7 1.659-.1a25.169 25.169 0 0 1 2.069 2.068c.669.72 1.688 1.81 2.418 2.669l-.649.709c-.7-.9-1.609-1.929-2.249-2.658a26.822 26.822 0 0 0-1.948-2.028c-.42-.351-.56-.34-.9.079-.48.58-1.319 1.68-1.77 2.229-.21.26-.43.569-.579.77l-.73-.74c.25-.219.44-.398.7-.659zm6.536-3.928a1.214 1.214 0 1 1-1.22 1.219 1.215 1.215 0 0 1 1.22-1.218zm0 1.948a.73.73 0 1 0-.739-.729.733.733 0 0 0 .739.73zM210.4 65.421a15.725 15.725 0 0 1-2.679 2.169v4.277a7.534 7.534 0 0 0 .06 1.069h-.981a9.174 9.174 0 0 0 .061-1.069V68.09a20.059 20.059 0 0 1-3.759 1.559l-.459-.779a15.763 15.763 0 0 0 4.467-1.839 11.023 11.023 0 0 0 2.629-2.209zM219.922 65.872c-.069.1-.2.249-.27.359a9.645 9.645 0 0 1-2.488 2.759l-.66-.53a6.731 6.731 0 0 0 2.179-2.238H213a11.306 11.306 0 0 0-1.14.06v-.9a10.538 10.538 0 0 0 1.14.08h5.737a5.048 5.048 0 0 0 .7-.06zm-3.987 1.318c0 2.709-.24 4.538-2.788 5.808l-.73-.6a3.858 3.858 0 0 0 .89-.44c1.55-.949 1.77-2.378 1.77-4.048a5.968 5.968 0 0 0-.04-.72zM228.763 66.561a6.4 6.4 0 0 0-.15.6 9.165 9.165 0 0 1-.979 3A6.325 6.325 0 0 1 223.676 73l-.65-.75a5.38 5.38 0 0 0 1.04-.279 5.274 5.274 0 0 0 2.708-2.01 7.366 7.366 0 0 0 .95-2.918h-5.587v1.787a3.621 3.621 0 0 0 .04.59h-.87a6.189 6.189 0 0 0 .03-.63v-1.759a6.624 6.624 0 0 0-.03-.77 9.053 9.053 0 0 0 .93.04h2.209v-.93a5.773 5.773 0 0 0-.05-.75h.959a4.486 4.486 0 0 0-.06.75v.93h2.238a1.965 1.965 0 0 0 .689-.08zM235.934 70.059a26.184 26.184 0 0 0-3.928-1.609l.01 3.3a11.782 11.782 0 0 0 .06 1.18h-.959a10.928 10.928 0 0 0 .06-1.18v-5.819a6.236 6.236 0 0 0-.08-1.039h.979c-.029.31-.069.739-.069 1.039v1.629a32.492 32.492 0 0 1 4.268 1.649zM211.074 78.63a11.731 11.731 0 0 1-1.789.36 17.78 17.78 0 0 1-2.159 4.188l-.779-.4a14.236 14.236 0 0 0 2.119-3.7c-.29.02-.58.03-.87.03-.369 0-.779-.011-1.149-.03l-.06-.75a9.182 9.182 0 0 0 1.22.07c.35 0 .719-.02 1.1-.05a8.123 8.123 0 0 0 .311-1.709l.889.08c-.1.359-.229.959-.39 1.528a9.976 9.976 0 0 0 1.539-.359zm1.159 1.149a9.61 9.61 0 0 0-.01 1.069c.01.36.05 1.01.069 1.609a6.668 6.668 0 0 1 2.049 1.239l-.43.68a6.855 6.855 0 0 0-1.589-1.129c.01.149.01.289.01.4 0 .79-.52 1.439-1.738 1.439-1.09 0-1.979-.45-1.979-1.43 0-.909.859-1.5 1.979-1.5a4.72 4.72 0 0 1 .939.09c-.03-.81-.08-1.779-.1-2.469zm-.67 3.169a3.6 3.6 0 0 0-1-.141c-.729 0-1.209.33-1.209.78s.369.77 1.139.77c.81 0 1.08-.45 1.08-.939a6.67 6.67 0 0 0-.01-.469zm2.639-2.9a11.835 11.835 0 0 0-2.259-1.359l.39-.62a15.046 15.046 0 0 1 2.319 1.319zM217.815 76.872c-.05.32-.08.67-.1.989-.04 1.12-.12 3.458-.12 4.938 0 1.09.7 1.47 1.619 1.47a4.135 4.135 0 0 0 3.558-2.049l.55.689a4.932 4.932 0 0 1-4.128 2.179c-1.419 0-2.4-.6-2.4-2.209 0-1.469.1-3.968.1-5.018a5.043 5.043 0 0 0-.09-1z"/><path class="cls-6" d="M31.164 58.625l25.919 38.312 16.214-27.833 18.976 46.958 30.555-52 30.555 70.506 30.554-18.506"/><g class="cls-7"><ellipse class="cls-8" cx="183.937" cy="116.062" rx="6.756" ry="6.943"/></g><ellipse class="cls-9" cx="183.937" cy="116.062" rx="6.756" ry="6.943"/><g class="cls-7"><ellipse class="cls-8" cx="31.164" cy="58.625" rx="6.756" ry="6.943"/></g><ellipse class="cls-9" cx="31.164" cy="58.625" rx="6.756" ry="6.943"/><path class="cls-10" d="M210.3 46.87h-1.182v-3.032h-3.184v3.032h-1.187v-7.109h1.187v3.125h3.184v-3.125h1.182zM212.976 40.293h-1.187v-1.04h1.187zm0 6.577h-1.187v-5.283h1.187zM214.089 44.3a3.438 3.438 0 0 1 .552-2.036 1.776 1.776 0 0 1 1.533-.776 1.663 1.663 0 0 1 .833.2 1.762 1.762 0 0 1 .607.583l.117-.688h.986v5.287a1.993 1.993 0 0 1-.63 1.577A2.612 2.612 0 0 1 216.3 49a3.464 3.464 0 0 1-.833-.11 3.852 3.852 0 0 1-.808-.29l.254-.933a2.87 2.87 0 0 0 .647.236 3.057 3.057 0 0 0 .729.086 1.357 1.357 0 0 0 .942-.275 1.1 1.1 0 0 0 .3-.848v-.542a1.66 1.66 0 0 1-.589.481 1.777 1.777 0 0 1-.778.163 1.826 1.826 0 0 1-1.523-.708 2.939 2.939 0 0 1-.552-1.86zm1.187.1a2.079 2.079 0 0 0 .29 1.165 1.007 1.007 0 0 0 .9.437 1.207 1.207 0 0 0 .642-.159 1.166 1.166 0 0 0 .423-.456v-2.311a1.268 1.268 0 0 0-.427-.452 1.167 1.167 0 0 0-.628-.163.974.974 0 0 0-.905.513 2.636 2.636 0 0 0-.3 1.328zM221.14 42.271a1.882 1.882 0 0 1 .643-.576 1.727 1.727 0 0 1 .837-.205 1.667 1.667 0 0 1 1.312.529 2.41 2.41 0 0 1 .471 1.634v3.217h-1.187v-3.227a1.337 1.337 0 0 0-.249-.9.951.951 0 0 0-.747-.278 1.325 1.325 0 0 0-.622.144 1.284 1.284 0 0 0-.457.4v3.861h-1.187v-7.617h1.187zM207.183 139.834h3.267v.952H206v-7.109h1.187zM211.035 138.1a2.879 2.879 0 0 1 .645-1.934 2.465 2.465 0 0 1 3.555 0 2.853 2.853 0 0 1 .649 1.934v.1a2.869 2.869 0 0 1-.649 1.943 2.482 2.482 0 0 1-3.555 0 2.873 2.873 0 0 1-.645-1.938zm1.187.1a2.353 2.353 0 0 0 .3 1.259 1.143 1.143 0 0 0 1.865 0 2.3 2.3 0 0 0 .313-1.259v-.1a2.271 2.271 0 0 0-.312-1.244 1.13 1.13 0 0 0-1.865 0 2.339 2.339 0 0 0-.3 1.244zM221.567 139.263h.029l.825-3.755h1.138l-1.445 5.283h-.972l-1.123-3.608-.01-.049v.049l-1.113 3.608h-.972l-1.445-5.283h1.138l.845 3.7h.029l1.1-3.706h.864z"/></svg>