<svg id="Layer_1" data-name="Layer 1" xmlns="http://www.w3.org/2000/svg" viewBox="0 0 245 160"><defs><style>.cls-1{fill:#f1f1f2;stroke:#c2c2c2}.cls-1,.cls-2,.cls-8{stroke-miterlimit:10}.cls-1,.cls-8{stroke-width:2px}.cls-2,.cls-3,.cls-5,.cls-8{fill:none}.cls-2{stroke:#dededd}.cls-3,.cls-5{stroke:#293052;stroke-linejoin:round}.cls-4{fill:#231f20}.cls-5{stroke-linecap:round;stroke-width:3px}.cls-6{opacity:.6}.cls-7{fill:#fff}.cls-8{stroke:#e88024}.cls-9{fill:#293052}.cls-10{fill:#6d6e70}</style></defs><title>stayin</title><path class="cls-1" d="M0 0h245v160H0z"/><path class="cls-2" d="M2.25 44.188h241.5M2.25 77.563h241.5M2.25 110.938h241.5M2.25 144.313h241.5M31.414 27.5V159M61.969 27.5V159M92.523 27.5V159M123.078 27.5V159M153.633 27.5V159M2.25 94.25h241.5M214.742 27.5V159"/><path class="cls-3" d="M2.25 60.875h241.5M2.25 127.625h241.5M184.187 27.5V159"/><path class="cls-1" d="M.5 26.5h245"/><path class="cls-4" d="M18.152 15.523a.99.99 0 0 0-.349-.791 3.527 3.527 0 0 0-1.222-.562 6.957 6.957 0 0 1-2.3-1.043 1.976 1.976 0 0 1-.779-1.652 2.047 2.047 0 0 1 .894-1.714 3.721 3.721 0 0 1 2.28-.661 3.43 3.43 0 0 1 2.291.747 2.236 2.236 0 0 1 .855 1.843l-.012.035h-1.658a1.245 1.245 0 0 0-.4-.958 1.573 1.573 0 0 0-1.11-.366 1.641 1.641 0 0 0-1.061.3.96.96 0 0 0-.375.779.836.836 0 0 0 .4.712 5.551 5.551 0 0 0 1.394.589 5.378 5.378 0 0 1 2.139 1.037 2.155 2.155 0 0 1 .727 1.693A2.028 2.028 0 0 1 19 17.24a3.775 3.775 0 0 1-2.282.633 4.166 4.166 0 0 1-2.432-.718 2.242 2.242 0 0 1-1.008-2.013l.012-.035h1.664a1.313 1.313 0 0 0 .466 1.116 2.1 2.1 0 0 0 1.3.354 1.708 1.708 0 0 0 1.066-.287.923.923 0 0 0 .366-.767zM23.051 9.857v1.553h1.066v1.2h-1.066v3.23a.746.746 0 0 0 .152.527.543.543 0 0 0 .41.158 1.572 1.572 0 0 0 .231-.015 2.03 2.03 0 0 0 .226-.05l.146 1.236a3.433 3.433 0 0 1-.5.132 3.037 3.037 0 0 1-.533.044 1.824 1.824 0 0 1-1.362-.486 2.132 2.132 0 0 1-.478-1.541v-3.234h-.926v-1.2h.926V9.857zM28.928 17.75a3.6 3.6 0 0 1-.161-.457 3.179 3.179 0 0 1-.1-.492 2.358 2.358 0 0 1-.694.768 1.734 1.734 0 0 1-1.028.3 2.141 2.141 0 0 1-1.535-.513 1.837 1.837 0 0 1-.539-1.4 1.672 1.672 0 0 1 .718-1.444 3.585 3.585 0 0 1 2.095-.513h.955v-.5a.986.986 0 0 0-.24-.709 1.122 1.122 0 0 0-1.351-.05.713.713 0 0 0-.226.56h-1.65l-.006-.035a1.61 1.61 0 0 1 .7-1.386 3.039 3.039 0 0 1 1.939-.583 2.831 2.831 0 0 1 1.846.577 2 2 0 0 1 .709 1.644v2.619a4.954 4.954 0 0 0 .067.838 4.2 4.2 0 0 0 .214.779zm-1.564-1.143a1.468 1.468 0 0 0 .8-.223 1.159 1.159 0 0 0 .475-.516v-.9h-.955a1.142 1.142 0 0 0-.826.272.884.884 0 0 0-.281.659.659.659 0 0 0 .211.51.817.817 0 0 0 .575.198zM33.838 15.09l.07.352h.035l1.213-4.031H37L34.424 18.7a3.356 3.356 0 0 1-.732 1.146 1.879 1.879 0 0 1-1.389.466 2.147 2.147 0 0 1-.4-.035q-.185-.035-.448-.1l.2-1.248.164.023a1.208 1.208 0 0 0 .158.012.933.933 0 0 0 .65-.208 1.372 1.372 0 0 0 .352-.519l.2-.492-2.25-6.334h1.84zM40.992 14.762h-3.3v-1.319h3.3zM44.332 17.75h-1.711V9.219h1.711zM47.461 11.41l.076.908a2.319 2.319 0 0 1 .779-.756 2.023 2.023 0 0 1 1.037-.27 1.907 1.907 0 0 1 1.5.6 2.786 2.786 0 0 1 .539 1.893v3.965h-1.716v-3.965a1.29 1.29 0 0 0-.258-.907 1.038 1.038 0 0 0-.779-.267 1.32 1.32 0 0 0-.609.138 1.255 1.255 0 0 0-.451.391v4.61h-1.712v-6.34zM214.446 14.307h2.288v.968h-2.288v3.333h-.99v-3.334h-2.333v-.968h2.333v-1.375h-2.046v-.957h2.046V8.52h.99v3.454h2.054v.957h-2.057zm-2.311-2.7a10.241 10.241 0 0 0-.748-2.233l.836-.265a10.933 10.933 0 0 1 .814 2.2zM216.7 9.3a24.693 24.693 0 0 1-1.067 2.311l-.8-.242a13.961 13.961 0 0 0 .869-2.333zm1.386 6.611h-.99V9.84h.99zm2.662-7.173v8.582c0 .639-.154.936-.539 1.122a6.433 6.433 0 0 1-2.068.177 4.72 4.72 0 0 0-.363-1.045c.748.032 1.441.021 1.661.021s.286-.077.286-.275V8.739zM227.7 17.364a11.424 11.424 0 0 0 1.551.1c.473 0 2.321 0 2.948-.022a3.087 3.087 0 0 0-.385 1.034H229.2c-2.156 0-3.741-.362-4.742-2.09a5.6 5.6 0 0 1-1.551 2.288 5.57 5.57 0 0 0-.847-.7c1.21-.9 1.771-2.442 2-4.367l1.056.1a13.487 13.487 0 0 1-.264 1.441 3.149 3.149 0 0 0 1.793 1.937V12.81H224.1v-.979h6.2v.979h-2.6v1.618h3.146v.957H227.7zm-4.1-5.126h-1v-2.53h4.027V8.53h1.089v1.178h4.071v2.53h-1.045v-1.562H223.6z"/><path class="cls-5" d="M31.414 94.25l25.883-16.687 24.25 19.854 25-23.408 25.75 25.741 21.336-22.187 30.554 8.187"/><g class="cls-6"><ellipse class="cls-7" cx="184.187" cy="86.307" rx="6.756" ry="6.943"/></g><ellipse class="cls-8" cx="184.187" cy="86.307" rx="6.756" ry="6.943"/><g class="cls-6"><ellipse class="cls-7" cx="31.414" cy="94.25" rx="6.756" ry="6.943"/></g><ellipse class="cls-8" cx="31.414" cy="94.25" rx="6.756" ry="6.943"/><path class="cls-9" d="M203.035 76.652a.908.908 0 0 0-.33-.724 3.1 3.1 0 0 0-1.165-.506 4.931 4.931 0 0 1-1.833-.827 1.649 1.649 0 0 1-.642-1.351 1.724 1.724 0 0 1 .71-1.416 2.886 2.886 0 0 1 1.833-.557 2.729 2.729 0 0 1 1.882.632 1.889 1.889 0 0 1 .686 1.517l-.01.029h-1.136a1.143 1.143 0 0 0-.371-.886 1.514 1.514 0 0 0-1.06-.34 1.551 1.551 0 0 0-1 .282.9.9 0 0 0-.349.731.8.8 0 0 0 .378.672 4.2 4.2 0 0 0 1.252.507 4.169 4.169 0 0 1 1.743.85 1.787 1.787 0 0 1 .6 1.382 1.669 1.669 0 0 1-.71 1.414 3.07 3.07 0 0 1-1.868.524 3.306 3.306 0 0 1-1.953-.593 1.823 1.823 0 0 1-.815-1.619l.01-.029h1.143a1.11 1.11 0 0 0 .449.969 1.962 1.962 0 0 0 1.167.32 1.724 1.724 0 0 0 1.025-.265.841.841 0 0 0 .364-.716zM206.794 71.917V73.2h.947v.879h-.947V77a.641.641 0 0 0 .142.467.517.517 0 0 0 .376.139 1.023 1.023 0 0 0 .19-.018 1.077 1.077 0 0 0 .176-.046l.127.869a1.361 1.361 0 0 1-.361.13 2.05 2.05 0 0 1-.435.046 1.36 1.36 0 0 1-1.025-.384 1.675 1.675 0 0 1-.371-1.2V74.08h-.806v-.88h.806v-1.283zM211.975 78.484a3.258 3.258 0 0 1-.1-.391 2.767 2.767 0 0 1-.056-.381 2.105 2.105 0 0 1-.642.623 1.639 1.639 0 0 1-.891.251 1.756 1.756 0 0 1-1.267-.425 1.543 1.543 0 0 1-.447-1.161 1.38 1.38 0 0 1 .605-1.194 2.929 2.929 0 0 1 1.7-.427h.923v-.469a.859.859 0 0 0-.244-.649.968.968 0 0 0-.7-.234.991.991 0 0 0-.645.2.619.619 0 0 0-.239.5h-1.143v-.029a1.308 1.308 0 0 1 .559-1.108 2.369 2.369 0 0 1 1.545-.483 2.26 2.26 0 0 1 1.489.469 1.65 1.65 0 0 1 .566 1.348v2.349a4.351 4.351 0 0 0 .044.628 3.369 3.369 0 0 0 .142.588zm-1.455-.85a1.5 1.5 0 0 0 .808-.225 1.128 1.128 0 0 0 .476-.513v-.781h-.942a1.185 1.185 0 0 0-.811.257.776.776 0 0 0-.293.6.616.616 0 0 0 .2.481.817.817 0 0 0 .562.182zM215.911 76.365l.117.527h.029l1.157-3.691h1.3l-2.187 6.084a2.715 2.715 0 0 1-.591.942 1.437 1.437 0 0 1-1.079.391 1.844 1.844 0 0 1-.315-.029 4.893 4.893 0 0 1-.325-.068l.132-.918.181.015c.078.007.137.01.176.01a.651.651 0 0 0 .515-.22 1.87 1.87 0 0 0 .315-.508l.2-.479-1.919-5.22h1.283zM221.511 75.936h-2.563v-.952h2.563zM223.914 78.484h-1.187v-7.109h1.187zM226.458 73.2l.068.762a1.894 1.894 0 0 1 .652-.633 1.75 1.75 0 0 1 .886-.227 1.665 1.665 0 0 1 1.287.5 2.247 2.247 0 0 1 .461 1.561v3.32h-1.187v-3.309a1.187 1.187 0 0 0-.247-.848 1.01 1.01 0 0 0-.75-.251 1.253 1.253 0 0 0-.62.153 1.3 1.3 0 0 0-.449.423v3.833h-1.187V73.2z"/><path class="cls-4" d="M192.064 104.315c.46-.47 1.29-1.52 1.949-2.3.56-.66 1.029-.729 1.789-.09a23.3 23.3 0 0 1 2.059 2.049c.669.72 1.709 1.829 2.429 2.678l-.83.9c-.669-.86-1.579-1.919-2.2-2.639a26.552 26.552 0 0 0-1.909-2.009c-.379-.32-.54-.32-.849.069-.45.55-1.24 1.6-1.669 2.149-.21.289-.439.609-.6.839l-.929-.939c.27-.227.47-.427.76-.707zm6.586-3.878a1.249 1.249 0 1 1 0 2.5 1.249 1.249 0 1 1 0-2.5zm0 1.948a.689.689 0 1 0-.689-.689.691.691 0 0 0 .689.69zM206.6 106.934a7.539 7.539 0 0 0 .07 1.18h-1.239a11.634 11.634 0 0 0 .06-1.18v-3.558a19.166 19.166 0 0 1-3.618 1.469l-.57-.97a15.7 15.7 0 0 0 4.508-1.818 10.936 10.936 0 0 0 2.608-2.239l.85.77a16.627 16.627 0 0 1-2.668 2.149zM218.79 100.987c-.09.109-.25.3-.33.419a9.889 9.889 0 0 1-2.449 2.759l-.83-.67a6.218 6.218 0 0 0 2.039-2.068h-5.487c-.39 0-.74.03-1.169.06v-1.109a8.96 8.96 0 0 0 1.169.09h5.587a5.17 5.17 0 0 0 .839-.069zm-4.038 1.329c0 2.608-.15 4.527-2.778 5.877l-.919-.75a3.772 3.772 0 0 0 .959-.49c1.429-.919 1.659-2.179 1.659-3.838a4.451 4.451 0 0 0-.06-.8zM227.64 101.687a3.742 3.742 0 0 0-.17.68 9.3 9.3 0 0 1-.959 2.929 6.375 6.375 0 0 1-4.011 2.904l-.819-.949a6.337 6.337 0 0 0 1.2-.33 5.136 5.136 0 0 0 2.519-1.879 6.941 6.941 0 0 0 .919-2.759H221v1.639a4.55 4.55 0 0 0 .04.66h-1.089c.02-.21.04-.5.04-.72v-1.749a7.486 7.486 0 0 0-.04-.81 9.411 9.411 0 0 0 .969.05h2.18v-.853a4.581 4.581 0 0 0-.07-.829h1.209a7.27 7.27 0 0 0-.06.829v.859h2.021a2.2 2.2 0 0 0 .75-.1zM234.681 105.295a26.526 26.526 0 0 0-3.778-1.56v3.088a11.736 11.736 0 0 0 .08 1.279h-1.229a10.485 10.485 0 0 0 .08-1.279v-5.776a7.216 7.216 0 0 0-.09-1.119h1.229c-.03.329-.07.77-.07 1.119v1.56a34.515 34.515 0 0 1 4.228 1.6z"/><path class="cls-10" d="M193 40.962c.48-.49 1.349-1.6 1.979-2.339.53-.63.939-.7 1.659-.1a25.167 25.167 0 0 1 2.069 2.068c.669.72 1.689 1.81 2.418 2.669l-.649.709c-.7-.9-1.609-1.929-2.249-2.658a26.812 26.812 0 0 0-1.949-2.028c-.42-.351-.56-.34-.9.079-.48.58-1.319 1.68-1.769 2.229-.21.26-.43.569-.58.77l-.73-.74c.25-.221.44-.399.701-.659zm6.537-3.928a1.214 1.214 0 1 1-1.22 1.219 1.215 1.215 0 0 1 1.219-1.219zm0 1.948a.73.73 0 1 0-.74-.729.733.733 0 0 0 .739.729zM210.075 37.044a15.705 15.705 0 0 1-2.679 2.169v4.277a7.522 7.522 0 0 0 .06 1.069h-.979a9.3 9.3 0 0 0 .06-1.069v-3.777a20.04 20.04 0 0 1-3.758 1.559l-.459-.779a15.772 15.772 0 0 0 4.467-1.839 11.033 11.033 0 0 0 2.629-2.209zM219.594 37.494c-.07.1-.2.249-.27.359a9.648 9.648 0 0 1-2.489 2.759l-.66-.53a6.741 6.741 0 0 0 2.179-2.238h-5.687a11.3 11.3 0 0 0-1.14.06V37a10.53 10.53 0 0 0 1.14.08h5.737a5.035 5.035 0 0 0 .7-.06zm-3.988 1.318c0 2.709-.24 4.538-2.788 5.808l-.73-.6a3.877 3.877 0 0 0 .89-.44c1.549-.949 1.769-2.378 1.769-4.048a5.968 5.968 0 0 0-.04-.72zM228.435 38.184a6.4 6.4 0 0 0-.15.6 9.176 9.176 0 0 1-.979 3 6.327 6.327 0 0 1-3.958 2.839l-.65-.75a5.366 5.366 0 0 0 1.04-.279 5.273 5.273 0 0 0 2.708-2.01 7.365 7.365 0 0 0 .95-2.918h-5.587v1.789a3.621 3.621 0 0 0 .04.59h-.87c.02-.17.03-.44.03-.63v-1.762a6.732 6.732 0 0 0-.03-.77 9.037 9.037 0 0 0 .929.04h2.209v-.93a5.687 5.687 0 0 0-.05-.75h.959a4.442 4.442 0 0 0-.06.75v.93h2.239a1.967 1.967 0 0 0 .689-.08zM235.605 41.682a26.163 26.163 0 0 0-3.928-1.609l.01 3.3a11.784 11.784 0 0 0 .06 1.18h-.959a10.923 10.923 0 0 0 .06-1.18v-5.819a6.289 6.289 0 0 0-.08-1.039h.979c-.03.31-.07.739-.07 1.039v1.629a32.492 32.492 0 0 1 4.268 1.649zM210.746 50.253a11.719 11.719 0 0 1-1.789.36A17.779 17.779 0 0 1 206.8 54.8l-.78-.4a14.208 14.208 0 0 0 2.119-3.7c-.29.02-.58.03-.87.03-.37 0-.779-.011-1.149-.03l-.06-.75a9.187 9.187 0 0 0 1.22.07c.35 0 .719-.02 1.1-.05a8.121 8.121 0 0 0 .31-1.709l.889.08c-.1.359-.229.959-.39 1.528a9.989 9.989 0 0 0 1.539-.359zm1.16 1.149a9.615 9.615 0 0 0-.01 1.069c.01.36.05 1.01.07 1.609a6.674 6.674 0 0 1 2.049 1.239l-.43.68A6.865 6.865 0 0 0 212 54.871c.01.149.01.289.01.4 0 .79-.52 1.439-1.739 1.439-1.089 0-1.979-.45-1.979-1.43 0-.909.859-1.5 1.979-1.5a4.716 4.716 0 0 1 .939.09c-.03-.81-.08-1.779-.1-2.469zm-.67 3.169a3.606 3.606 0 0 0-1-.141c-.729 0-1.209.33-1.209.78s.37.77 1.139.77c.81 0 1.08-.45 1.08-.939 0-.13 0-.29-.01-.47zm2.639-2.9a11.866 11.866 0 0 0-2.259-1.359l.39-.62a15.039 15.039 0 0 1 2.319 1.319zM217.487 48.494c-.05.32-.08.67-.1.989-.04 1.12-.12 3.458-.12 4.938 0 1.09.7 1.47 1.619 1.47a4.136 4.136 0 0 0 3.558-2.049l.55.689a4.932 4.932 0 0 1-4.128 2.179c-1.419 0-2.4-.6-2.4-2.209 0-1.469.1-3.968.1-5.018a5.08 5.08 0 0 0-.09-1zM193 138.962c.48-.49 1.349-1.6 1.979-2.339.53-.63.939-.7 1.659-.1a25.167 25.167 0 0 1 2.069 2.068c.669.72 1.689 1.81 2.418 2.669l-.649.709c-.7-.9-1.609-1.929-2.249-2.658a26.812 26.812 0 0 0-1.949-2.028c-.42-.351-.56-.34-.9.079-.48.58-1.319 1.68-1.769 2.229-.21.26-.43.569-.58.77l-.73-.74c.25-.221.44-.399.701-.659zm6.537-3.928a1.214 1.214 0 1 1-1.22 1.219 1.215 1.215 0 0 1 1.219-1.219zm0 1.948a.73.73 0 1 0-.74-.729.733.733 0 0 0 .739.729zM210.075 135.044a15.705 15.705 0 0 1-2.679 2.169v4.277a7.522 7.522 0 0 0 .06 1.069h-.979a9.3 9.3 0 0 0 .06-1.069v-3.777a20.04 20.04 0 0 1-3.758 1.559l-.459-.779a15.772 15.772 0 0 0 4.467-1.839 11.033 11.033 0 0 0 2.629-2.209zM219.594 135.494c-.07.1-.2.249-.27.359a9.648 9.648 0 0 1-2.489 2.759l-.66-.53a6.741 6.741 0 0 0 2.179-2.238h-5.687a11.3 11.3 0 0 0-1.14.06V135a10.53 10.53 0 0 0 1.14.08h5.737a5.035 5.035 0 0 0 .7-.06zm-3.988 1.318c0 2.709-.24 4.538-2.788 5.808l-.73-.6a3.877 3.877 0 0 0 .89-.44c1.549-.949 1.769-2.378 1.769-4.048a5.968 5.968 0 0 0-.04-.72zM228.435 136.184a6.4 6.4 0 0 0-.15.6 9.176 9.176 0 0 1-.979 3 6.327 6.327 0 0 1-3.958 2.839l-.65-.75a5.366 5.366 0 0 0 1.04-.279 5.273 5.273 0 0 0 2.708-2.01 7.365 7.365 0 0 0 .95-2.918h-5.587v1.789a3.621 3.621 0 0 0 .04.59h-.87c.02-.17.03-.44.03-.63v-1.759a6.732 6.732 0 0 0-.03-.77 9.037 9.037 0 0 0 .929.04h2.209v-.93a5.687 5.687 0 0 0-.05-.75h.959a4.442 4.442 0 0 0-.06.75v.93h2.239a1.967 1.967 0 0 0 .689-.08zM235.605 139.682a26.163 26.163 0 0 0-3.928-1.609l.01 3.3a11.784 11.784 0 0 0 .06 1.18h-.959a10.923 10.923 0 0 0 .06-1.18v-5.816a6.289 6.289 0 0 0-.08-1.039h.979c-.03.31-.07.739-.07 1.039v1.629a32.492 32.492 0 0 1 4.268 1.649zM210.746 148.253a11.719 11.719 0 0 1-1.789.36 17.779 17.779 0 0 1-2.157 4.187l-.78-.4a14.208 14.208 0 0 0 2.119-3.7c-.29.02-.58.03-.87.03-.37 0-.779-.011-1.149-.03l-.06-.75a9.187 9.187 0 0 0 1.22.07c.35 0 .719-.02 1.1-.05a8.121 8.121 0 0 0 .31-1.709l.889.08c-.1.359-.229.959-.39 1.528a9.989 9.989 0 0 0 1.539-.359zm1.16 1.149a9.615 9.615 0 0 0-.01 1.069c.01.36.05 1.01.07 1.609a6.674 6.674 0 0 1 2.049 1.239l-.43.68a6.865 6.865 0 0 0-1.585-1.128c.01.149.01.289.01.4 0 .79-.52 1.439-1.739 1.439-1.089 0-1.979-.45-1.979-1.43 0-.909.859-1.5 1.979-1.5a4.716 4.716 0 0 1 .939.09c-.03-.81-.08-1.779-.1-2.469zm-.67 3.169a3.606 3.606 0 0 0-1-.141c-.729 0-1.209.33-1.209.78s.37.77 1.139.77c.81 0 1.08-.45 1.08-.939 0-.13 0-.29-.01-.47zm2.639-2.9a11.866 11.866 0 0 0-2.259-1.359l.39-.62a15.039 15.039 0 0 1 2.319 1.319zM217.487 146.494c-.05.32-.08.67-.1.989-.04 1.12-.12 3.458-.12 4.938 0 1.09.7 1.47 1.619 1.47a4.136 4.136 0 0 0 3.558-2.049l.55.689a4.932 4.932 0 0 1-4.128 2.179c-1.419 0-2.4-.6-2.4-2.209 0-1.469.1-3.968.1-5.018a5.08 5.08 0 0 0-.09-1z"/><path class="cls-4" d="M16.342 54.506v.74h-8.9v-.74h3.728v-7.755h.779v3.058h3.718v.74h-3.722v3.957zM20.8 47.29c-.31.84-.719 1.859-1.1 2.639a2.913 2.913 0 0 1 .989 2.148 1.268 1.268 0 0 1-.41 1.149 1.321 1.321 0 0 1-.56.19 4.516 4.516 0 0 1-.74.01 1.622 1.622 0 0 0-.19-.68 3.732 3.732 0 0 0 .65.021.917.917 0 0 0 .35-.09.8.8 0 0 0 .23-.68 2.773 2.773 0 0 0-1-1.979c.32-.72.649-1.639.89-2.318h-1.472v8.016h-.7v-8.7h2.449l.12-.03zm5.437 4.8a13.9 13.9 0 0 1-1.613 1.31 4.293 4.293 0 0 0 1.859 1.68 2.4 2.4 0 0 0-.49.609 6.118 6.118 0 0 1-2.858-4.247h-1.08v3.078c.61-.12 1.259-.25 1.9-.38l.05.64c-1.25.29-2.579.579-3.548.8l-.24-.72c.32-.061.7-.13 1.12-.21v-7.62h4.478v4.408h-2.041a7.292 7.292 0 0 0 .55 1.438 11.288 11.288 0 0 0 1.329-1.2zm-4.178-4.4v1.219h3.019V47.69zm0 3.088h3.019v-1.239h-3.023zM29.736 48.25l.89.18c-.06.22-.14.51-.18.729a22.2 22.2 0 0 1-.909 3.118 14.519 14.519 0 0 1-1.469 2.749l-.85-.36a13.09 13.09 0 0 0 1.539-2.719 15.271 15.271 0 0 0 .979-3.697zm2.489.159l.81-.27a32.2 32.2 0 0 1 1.458 3.161c.41.989.939 2.519 1.2 3.418l-.889.29a29.928 29.928 0 0 0-1.129-3.437 25.625 25.625 0 0 0-1.45-3.162zm2.818.131l-.54.239a11.475 11.475 0 0 0-.81-1.389l.53-.221a11.6 11.6 0 0 1 .82 1.371zm1.12-.41l-.54.24a9.465 9.465 0 0 0-.83-1.38l.53-.22a11.548 11.548 0 0 1 .84 1.36zM38.746 47.45c-.02.189-.03.479-.03.72v3.338c0 .25.01.58.03.76h-.919c.01-.15.04-.47.04-.77V48.17c0-.18-.02-.53-.04-.72zm4.627-.07c-.02.24-.04.53-.04.859v1.619c0 2.4-.32 3.188-1.04 4.048a5.334 5.334 0 0 1-2.378 1.46l-.65-.69a4.6 4.6 0 0 0 2.4-1.329c.719-.829.839-1.639.839-3.527v-1.58c0-.329-.03-.619-.05-.859zM53.473 48.2c-.07.1-.2.249-.27.359a9.648 9.648 0 0 1-2.489 2.759l-.66-.53a6.741 6.741 0 0 0 2.179-2.238h-5.686a11.3 11.3 0 0 0-1.14.06v-.9a10.53 10.53 0 0 0 1.14.08h5.737a5.035 5.035 0 0 0 .7-.06zm-3.988 1.318c0 2.709-.24 4.538-2.788 5.808l-.73-.6a3.877 3.877 0 0 0 .89-.44c1.549-.949 1.769-2.378 1.769-4.048a5.968 5.968 0 0 0-.04-.72zM12.085 137.658v1.778l.13-.149a24.657 24.657 0 0 1 3.548 2.068l-.52.67a22.877 22.877 0 0 0-3.158-1.989v5.258H11.3v-7.636H7.478v-.74H16.3v.74zM20.8 136.878c-.31.84-.719 1.859-1.1 2.639a2.913 2.913 0 0 1 .989 2.148 1.268 1.268 0 0 1-.41 1.149 1.321 1.321 0 0 1-.56.19 4.516 4.516 0 0 1-.74.01 1.622 1.622 0 0 0-.19-.68 3.732 3.732 0 0 0 .65.021.917.917 0 0 0 .35-.09.8.8 0 0 0 .23-.68 2.773 2.773 0 0 0-1-1.979c.32-.72.649-1.639.89-2.318h-1.472v8.012h-.7v-8.7h2.449l.12-.03zm5.437 4.8a13.9 13.9 0 0 1-1.609 1.309 4.293 4.293 0 0 0 1.859 1.68 2.4 2.4 0 0 0-.49.609 6.118 6.118 0 0 1-2.858-4.247h-1.08v3.071c.61-.12 1.259-.25 1.9-.38l.05.64c-1.25.29-2.579.579-3.548.8l-.24-.72c.32-.061.7-.13 1.12-.21v-7.616h4.478v4.408h-2.045a7.292 7.292 0 0 0 .55 1.438 11.288 11.288 0 0 0 1.329-1.2zm-4.178-4.4v1.222h3.019v-1.219zm0 3.088h3.019v-1.239h-3.023zM29.736 137.838l.89.18c-.06.22-.14.51-.18.729a22.2 22.2 0 0 1-.909 3.118 14.519 14.519 0 0 1-1.469 2.749l-.85-.36a13.09 13.09 0 0 0 1.539-2.719 15.271 15.271 0 0 0 .979-3.697zm2.489.159l.81-.27a32.2 32.2 0 0 1 1.459 3.158c.41.989.939 2.519 1.2 3.418l-.889.29a29.928 29.928 0 0 0-1.129-3.437A25.625 25.625 0 0 0 32.225 138zm2.818.131l-.54.239a11.475 11.475 0 0 0-.81-1.389l.53-.221a11.6 11.6 0 0 1 .82 1.371zm1.12-.41l-.54.24a9.465 9.465 0 0 0-.83-1.38l.53-.22a11.548 11.548 0 0 1 .84 1.36zM38.746 137.038c-.02.189-.03.479-.03.72v3.342c0 .25.01.58.03.76h-.919c.01-.15.04-.47.04-.77v-3.328c0-.18-.02-.53-.04-.72zm4.627-.07c-.02.24-.04.53-.04.859v1.619c0 2.4-.32 3.188-1.04 4.048a5.334 5.334 0 0 1-2.378 1.46l-.65-.69a4.6 4.6 0 0 0 2.4-1.329c.719-.829.839-1.639.839-3.527v-1.58c0-.329-.03-.619-.05-.859zM53.473 137.788c-.07.1-.2.249-.27.359a9.648 9.648 0 0 1-2.489 2.759l-.66-.53a6.741 6.741 0 0 0 2.179-2.238h-5.686a11.3 11.3 0 0 0-1.14.06v-.9a10.53 10.53 0 0 0 1.14.08h5.737a5.035 5.035 0 0 0 .7-.06zm-3.988 1.318c0 2.709-.24 4.538-2.788 5.808l-.73-.6a3.877 3.877 0 0 0 .89-.44c1.549-.949 1.769-2.378 1.769-4.048a5.968 5.968 0 0 0-.04-.72zM12.4 108.577v7.785h-.719v-1.809c-1.259.21-2.539.4-3.488.56l-.13-.75c.28-.029.61-.069.969-.119v-5.667h-.781v-.689H13.1v.689zm-.719 0H9.73v1.329h1.949zm0 1.988H9.73v1.39h1.949zm-1.951 3.579c.61-.08 1.279-.18 1.949-.279v-1.229H9.73zm7.306-5.406a12.15 12.15 0 0 1-1.619 5.066 5.552 5.552 0 0 0 2.059 1.859 3.09 3.09 0 0 0-.53.609 6.256 6.256 0 0 1-1.989-1.809 7.151 7.151 0 0 1-2.039 1.779 2.87 2.87 0 0 0-.49-.6 6.091 6.091 0 0 0 2.1-1.849 13.937 13.937 0 0 1-1.489-4.268l.71-.13a12.887 12.887 0 0 0 1.229 3.7 10.947 10.947 0 0 0 1.239-3.738h-3.368v-.729h3.568l.14-.03zM22.778 112.065s-.01.239-.02.34c-.18 2.358-.35 3.288-.709 3.628a.963.963 0 0 1-.79.319 14.624 14.624 0 0 1-1.579-.02 1.689 1.689 0 0 0-.26-.76c.66.06 1.319.069 1.569.069a.582.582 0 0 0 .44-.109c.24-.21.41-.979.54-2.778H19.34c-.04.17-.08.329-.11.479l-.729-.12c.2-.829.439-2.148.58-3.158H22v-1.579h-3.259v-.7h3.988v2.979H19.72c-.08.47-.16.959-.25 1.409zm3.418-4.7v9.016h-.74v-9.016zM31.369 114.434H29.22v.81h-.68v-7.326h2.829zm-2.149-5.847v2.219h1.449v-2.219zm1.449 5.177v-2.309H29.22v2.309zm5.407-2.729v1.13h1.159v.659h-1.158v2.676c0 .42-.11.64-.41.75a5.739 5.739 0 0 1-1.619.12 2.285 2.285 0 0 0-.24-.69c.62.021 1.169.021 1.329.011s.22-.051.22-.2v-2.669h-3.778v-.659h3.778v-1.13h-3.828v-.659h2.508v-1.27h-2.078v-.659h2.079v-1.189h.73v1.189h2.148v.659h-2.148v1.27h2.578v.659zm-3.288 2.14a7.06 7.06 0 0 1 1.3 1.7l-.63.4a7.688 7.688 0 0 0-1.269-1.759zM39.34 115.3a1.1 1.1 0 0 0 .1-.489V109.1a7.731 7.731 0 0 0-.08-.909h.979a6.438 6.438 0 0 0-.07.909v5.667a10.782 10.782 0 0 0 5.467-3.408l.45.7a11.626 11.626 0 0 1-5.847 3.568 1.442 1.442 0 0 0-.42.18zM47.5 111.3c.3.02.83.05 1.389.05h5.477c.5 0 .859-.03 1.079-.05v.979c-.2-.01-.62-.05-1.069-.05H48.89c-.55 0-1.08.021-1.389.05zM63.037 113.055a26.163 26.163 0 0 0-3.928-1.609l.01 3.3a11.784 11.784 0 0 0 .06 1.18h-.959a10.923 10.923 0 0 0 .06-1.18v-5.816a6.289 6.289 0 0 0-.08-1.039h.979c-.03.31-.07.739-.07 1.039v1.629a32.492 32.492 0 0 1 4.268 1.649z"/></svg>