<?xml version="1.0" encoding="utf-8"?>
<!-- Generator: Adobe Illustrator 20.0.0, SVG Export Plug-In . SVG Version: 6.00 Build 0)  -->
<svg version="1.1" id="Layer_1" xmlns="http://www.w3.org/2000/svg" xmlns:xlink="http://www.w3.org/1999/xlink" x="0" y="0"
	 viewBox="0 0 245 160" style="enable-background:new 0 0 245 160;" xml:space="preserve">
<style type="text/css">
	.st0{fill:#F1F1F2;stroke:#C2C2C2;stroke-width:2;stroke-miterlimit:10;}
	.st1{fill:none;stroke:#DEDEDD;stroke-miterlimit:10;}
	.st2{fill:none;stroke:#293052;stroke-linejoin:round;stroke-miterlimit:10;}
	.st3{fill:#231F20;}
	.st4{fill:#6D6E70;}
	.st5{fill:none;stroke:#293052;stroke-width:3;stroke-linecap:round;stroke-linejoin:round;stroke-miterlimit:10;}
	.st6{fill:#293052;}
	.st7{opacity:0.6;}
	.st8{fill:#FFFFFF;}
	.st9{fill:none;stroke:#E88024;stroke-width:2;stroke-miterlimit:10;}
</style>
<g>
	<title>touch</title>
	<g>
		<rect x="-0.2" class="st0" width="245" height="160"/>
		<g>
			<line class="st1" x1="2" y1="44.2" x2="243.5" y2="44.2"/>
			<line class="st1" x1="2" y1="77.6" x2="243.5" y2="77.6"/>
			<line class="st1" x1="2" y1="110.9" x2="243.5" y2="110.9"/>
			<line class="st1" x1="2" y1="144.3" x2="243.5" y2="144.3"/>
			<line class="st1" x1="31.2" y1="27.5" x2="31.2" y2="159"/>
			<line class="st1" x1="61.7" y1="27.5" x2="61.7" y2="159"/>
			<line class="st1" x1="92.3" y1="27.5" x2="92.3" y2="159"/>
			<line class="st1" x1="122.8" y1="27.5" x2="122.8" y2="159"/>
			<line class="st1" x1="153.4" y1="27.5" x2="153.4" y2="159"/>
			<line class="st1" x1="2" y1="94.2" x2="243.5" y2="94.2"/>
			<line class="st1" x1="214.5" y1="27.5" x2="214.5" y2="159"/>
			<line class="st2" x1="2" y1="60.9" x2="243.5" y2="60.9"/>
			<line class="st1" x1="2" y1="127.6" x2="243.5" y2="127.6"/>
			<line class="st2" x1="183.9" y1="27.5" x2="183.9" y2="159"/>
		</g>
		<line class="st0" x1="0.2" y1="26.5" x2="245.2" y2="26.5"/>
		<g>
			<path class="st3" d="M19.2,10.5h-2.4v7.2h-1.7v-7.2h-2.4V9.2h6.5V10.5z"/>
			<path class="st3" d="M19.2,14.5c0-0.9,0.3-1.7,0.8-2.3s1.3-0.9,2.2-0.9c0.9,0,1.7,0.3,2.2,0.9s0.8,1.4,0.8,2.3v0.1
				c0,1-0.3,1.7-0.8,2.3s-1.3,0.9-2.2,0.9c-0.9,0-1.7-0.3-2.2-0.9s-0.8-1.4-0.8-2.3V14.5z M20.9,14.6c0,0.6,0.1,1,0.3,1.4
				s0.5,0.5,1,0.5c0.4,0,0.8-0.2,1-0.5s0.3-0.8,0.3-1.4v-0.1c0-0.6-0.1-1-0.3-1.4c-0.2-0.4-0.5-0.5-1-0.5c-0.4,0-0.8,0.2-1,0.5
				c-0.2,0.4-0.3,0.8-0.3,1.4V14.6z"/>
			<path class="st3" d="M30.1,16.8c-0.2,0.3-0.4,0.6-0.7,0.8s-0.6,0.3-1,0.3c-0.7,0-1.2-0.2-1.6-0.6s-0.6-1.1-0.6-2v-3.8h1.7v3.8
				c0,0.5,0.1,0.8,0.2,1s0.4,0.3,0.7,0.3c0.3,0,0.5,0,0.7-0.1c0.2-0.1,0.4-0.2,0.5-0.4v-4.6h1.7v6.3h-1.5L30.1,16.8z"/>
			<path class="st3" d="M35.7,16.6c0.3,0,0.5-0.1,0.7-0.3c0.2-0.2,0.3-0.4,0.3-0.7h1.6l0,0c0,0.6-0.2,1.2-0.7,1.6s-1.1,0.6-1.9,0.6
				c-0.9,0-1.7-0.3-2.2-0.9s-0.8-1.4-0.8-2.3v-0.2c0-0.9,0.3-1.7,0.8-2.3s1.2-0.9,2.2-0.9c0.8,0,1.4,0.2,1.9,0.7s0.7,1,0.7,1.8l0,0
				h-1.6c0-0.3-0.1-0.6-0.3-0.8s-0.4-0.3-0.7-0.3c-0.5,0-0.8,0.2-1,0.5c-0.2,0.4-0.3,0.8-0.3,1.4v0.2c0,0.6,0.1,1,0.3,1.4
				S35.2,16.6,35.7,16.6z"/>
			<path class="st3" d="M40.9,12.2c0.2-0.3,0.4-0.5,0.7-0.7s0.6-0.2,1-0.2c0.7,0,1.2,0.2,1.6,0.7s0.6,1.1,0.6,2v3.8H43V14
				c0-0.5-0.1-0.8-0.3-1c-0.2-0.2-0.4-0.3-0.8-0.3c-0.2,0-0.4,0-0.6,0.1c-0.2,0.1-0.3,0.2-0.4,0.4v4.7h-1.7V8.6h1.7V12.2z"/>
		</g>
		<g>
			<g>
				<path class="st3" d="M214.2,14.3h2.3v1h-2.3v3.3h-1v-3.3h-2.3v-1h2.3v-1.4h-2v-1h2V8.5h1V12h2.1v1h-2.1V14.3z M211.9,11.6
					c-0.1-0.6-0.4-1.5-0.7-2.2l0.8-0.3c0.4,0.7,0.7,1.6,0.8,2.2L211.9,11.6z M216.5,9.3c-0.3,0.8-0.7,1.7-1.1,2.3l-0.8-0.2
					c0.3-0.6,0.7-1.6,0.9-2.3L216.5,9.3z M217.8,15.9h-1V9.8h1V15.9z M220.5,8.7v8.6c0,0.6-0.2,0.9-0.5,1.1
					c-0.4,0.2-1.1,0.2-2.1,0.2c-0.1-0.3-0.2-0.7-0.4-1c0.7,0,1.4,0,1.7,0c0.2,0,0.3-0.1,0.3-0.3V8.7H220.5z"/>
				<path class="st3" d="M227.5,17.4c0.5,0.1,1,0.1,1.6,0.1c0.5,0,2.3,0,2.9,0c-0.2,0.2-0.3,0.7-0.4,1h-2.6c-2.2,0-3.7-0.4-4.7-2.1
					c-0.4,0.9-0.9,1.7-1.6,2.3c-0.2-0.2-0.6-0.5-0.8-0.7c1.2-0.9,1.8-2.4,2-4.4l1.1,0.1c-0.1,0.5-0.2,1-0.3,1.4c0.4,1,1,1.6,1.8,1.9
					v-4.3h-2.5v-1h6.2v1h-2.6v1.6h3.1v1h-3.1V17.4z M223.3,12.2h-1V9.7h4V8.5h1.1v1.2h4.1v2.5h-1v-1.6h-7.1V12.2z"/>
			</g>
		</g>
	</g>
	<g>
		<g>
			<path class="st4" d="M195.1,127.3c0.5-0.5,1.3-1.6,2-2.3c0.5-0.6,0.9-0.7,1.7-0.1c0.6,0.5,1.4,1.4,2.1,2.1
				c0.7,0.7,1.7,1.8,2.4,2.7l-0.6,0.7c-0.7-0.9-1.6-1.9-2.2-2.7c-0.7-0.8-1.5-1.7-1.9-2c-0.4-0.4-0.6-0.3-0.9,0.1
				c-0.5,0.6-1.3,1.7-1.8,2.2c-0.2,0.3-0.4,0.6-0.6,0.8l-0.7-0.7C194.6,127.8,194.8,127.6,195.1,127.3z M201.6,123.4
				c0.7,0,1.2,0.5,1.2,1.2c0,0.7-0.5,1.2-1.2,1.2c-0.7,0-1.2-0.5-1.2-1.2C200.4,123.9,200.9,123.4,201.6,123.4z M201.6,125.3
				c0.4,0,0.7-0.3,0.7-0.7c0-0.4-0.3-0.7-0.7-0.7c-0.4,0-0.7,0.3-0.7,0.7C200.9,125,201.2,125.3,201.6,125.3z"/>
			<path class="st4" d="M212.2,123.4c-0.7,0.7-1.6,1.5-2.7,2.2v4.3c0,0.4,0,0.9,0.1,1.1h-1c0-0.2,0.1-0.7,0.1-1.1v-3.8
				c-1.1,0.6-2.4,1.2-3.8,1.6l-0.5-0.8c1.7-0.4,3.4-1.1,4.5-1.8c1-0.6,2.1-1.5,2.6-2.2L212.2,123.4z"/>
			<path class="st4" d="M221.7,123.8c-0.1,0.1-0.2,0.2-0.3,0.4c-0.4,0.7-1.3,2-2.5,2.8l-0.7-0.5c0.9-0.5,1.9-1.6,2.2-2.2h-5.7
				c-0.4,0-0.7,0-1.1,0.1v-0.9c0.4,0,0.8,0.1,1.1,0.1h5.7c0.2,0,0.5,0,0.7-0.1L221.7,123.8z M217.7,125.2c0,2.7-0.2,4.5-2.8,5.8
				l-0.7-0.6c0.3-0.1,0.6-0.2,0.9-0.4c1.5-0.9,1.8-2.4,1.8-4c0-0.2,0-0.5,0-0.7H217.7z"/>
			<path class="st4" d="M230.5,124.5c0,0.1-0.1,0.4-0.2,0.6c-0.1,0.8-0.4,2-1,3c-0.7,1.3-2.1,2.3-4,2.8l-0.7-0.8
				c0.3,0,0.7-0.2,1-0.3c1-0.3,2.1-1.1,2.7-2c0.5-0.8,0.9-2.1,1-2.9h-5.6v1.8c0,0.2,0,0.4,0,0.6h-0.9c0-0.2,0-0.4,0-0.6V125
				c0-0.2,0-0.5,0-0.8c0.3,0,0.6,0,0.9,0h2.2v-0.9c0-0.2,0-0.4,0-0.8h1c0,0.3-0.1,0.5-0.1,0.8v0.9h2.2c0.4,0,0.6,0,0.7-0.1
				L230.5,124.5z"/>
			<path class="st4" d="M237.7,128c-1.1-0.6-2.8-1.3-3.9-1.6l0,3.3c0,0.3,0,0.8,0.1,1.2h-1c0-0.3,0.1-0.8,0.1-1.2v-5.8
				c0-0.3,0-0.7-0.1-1h1c0,0.3-0.1,0.7-0.1,1v1.6c1.3,0.4,3.2,1.1,4.3,1.6L237.7,128z"/>
			<path class="st4" d="M212.8,136.6c-0.5,0.2-1.1,0.3-1.8,0.4c-0.5,1.4-1.4,3.1-2.2,4.2l-0.8-0.4c0.8-1,1.7-2.5,2.1-3.7
				c-0.3,0-0.6,0-0.9,0c-0.4,0-0.8,0-1.1,0l-0.1-0.8c0.4,0.1,0.8,0.1,1.2,0.1c0.3,0,0.7,0,1.1,0c0.2-0.5,0.3-1.2,0.3-1.7l0.9,0.1
				c-0.1,0.4-0.2,1-0.4,1.5c0.5-0.1,1-0.2,1.5-0.4L212.8,136.6z M214,137.8c0,0.4,0,0.7,0,1.1c0,0.4,0,1,0.1,1.6
				c0.8,0.3,1.5,0.8,2,1.2l-0.4,0.7c-0.4-0.4-0.9-0.8-1.6-1.1c0,0.1,0,0.3,0,0.4c0,0.8-0.5,1.4-1.7,1.4c-1.1,0-2-0.5-2-1.4
				c0-0.9,0.9-1.5,2-1.5c0.3,0,0.6,0,0.9,0.1c0-0.8-0.1-1.8-0.1-2.5H214z M213.3,140.9c-0.3-0.1-0.6-0.1-1-0.1
				c-0.7,0-1.2,0.3-1.2,0.8c0,0.5,0.4,0.8,1.1,0.8c0.8,0,1.1-0.5,1.1-0.9C213.3,141.3,213.3,141.1,213.3,140.9z M216,138
				c-0.5-0.5-1.6-1.1-2.3-1.4l0.4-0.6c0.7,0.3,1.8,1,2.3,1.3L216,138z"/>
			<path class="st4" d="M219.6,134.8c0,0.3-0.1,0.7-0.1,1c0,1.1-0.1,3.5-0.1,4.9c0,1.1,0.7,1.5,1.6,1.5c1.8,0,2.8-1,3.6-2l0.5,0.7
				c-0.7,0.9-1.9,2.2-4.1,2.2c-1.4,0-2.4-0.6-2.4-2.2c0-1.5,0.1-4,0.1-5c0-0.4,0-0.7-0.1-1L219.6,134.8z"/>
		</g>
	</g>
	<polyline class="st5" points="31.2,110.9 61.7,83.5 83.4,104.8 109.6,76.2 133.6,110.9 164.6,60.9 	"/>
	<g>
		<path class="st6" d="M206.3,41.3h-2.1v6.2H203v-6.2h-2.1v-1h5.5V41.3z"/>
		<path class="st6" d="M206.5,44.8c0-0.8,0.2-1.4,0.6-1.9c0.4-0.5,1-0.8,1.8-0.8c0.8,0,1.4,0.3,1.8,0.8c0.4,0.5,0.6,1.1,0.6,1.9v0.1
			c0,0.8-0.2,1.4-0.6,1.9c-0.4,0.5-1,0.7-1.8,0.7c-0.8,0-1.3-0.3-1.8-0.8c-0.4-0.5-0.6-1.1-0.6-1.9V44.8z M207.6,44.9
			c0,0.5,0.1,0.9,0.3,1.3c0.2,0.3,0.5,0.5,0.9,0.5c0.4,0,0.7-0.2,0.9-0.5c0.2-0.3,0.3-0.7,0.3-1.3v-0.1c0-0.5-0.1-0.9-0.3-1.2
			c-0.2-0.3-0.5-0.5-0.9-0.5c-0.4,0-0.7,0.2-0.9,0.5c-0.2,0.3-0.3,0.7-0.3,1.2V44.9z"/>
		<path class="st6" d="M215.6,46.7c-0.2,0.3-0.4,0.5-0.6,0.6c-0.3,0.2-0.5,0.2-0.9,0.2c-0.6,0-1-0.2-1.3-0.5
			c-0.3-0.4-0.5-0.9-0.5-1.7v-3.2h1.2v3.2c0,0.5,0.1,0.8,0.2,1c0.2,0.2,0.4,0.3,0.7,0.3c0.3,0,0.5-0.1,0.7-0.2
			c0.2-0.1,0.3-0.3,0.5-0.4v-3.8h1.2v5.3h-1L215.6,46.7z"/>
		<path class="st6" d="M220.2,46.6c0.3,0,0.5-0.1,0.7-0.3c0.2-0.2,0.3-0.4,0.3-0.6h1.1l0,0c0,0.5-0.2,0.9-0.6,1.3
			c-0.4,0.4-0.9,0.5-1.5,0.5c-0.8,0-1.4-0.3-1.8-0.8s-0.6-1.1-0.6-1.9v-0.2c0-0.8,0.2-1.4,0.6-1.9c0.4-0.5,1-0.8,1.8-0.8
			c0.6,0,1.2,0.2,1.5,0.6c0.4,0.4,0.6,0.8,0.6,1.4l0,0h-1.1c0-0.3-0.1-0.5-0.3-0.7s-0.4-0.3-0.7-0.3c-0.4,0-0.8,0.2-0.9,0.5
			s-0.3,0.7-0.3,1.2v0.2c0,0.5,0.1,0.9,0.3,1.2S219.7,46.6,220.2,46.6z"/>
		<path class="st6" d="M224.4,42.9c0.2-0.2,0.4-0.4,0.6-0.6c0.3-0.1,0.5-0.2,0.8-0.2c0.6,0,1,0.2,1.3,0.5c0.3,0.4,0.5,0.9,0.5,1.6
			v3.2h-1.2v-3.2c0-0.4-0.1-0.7-0.2-0.9s-0.4-0.3-0.7-0.3c-0.2,0-0.4,0-0.6,0.1c-0.2,0.1-0.3,0.2-0.5,0.4v3.9h-1.2v-7.6h1.2V42.9z"
			/>
	</g>
	<g>
		<path class="st6" d="M199,88.7h-1.2l-3.2-5.2l0,0v5.2h-1.2v-7.1h1.2l3.2,5.2l0,0v-5.2h1.2V88.7z"/>
		<path class="st6" d="M200.2,86c0-0.8,0.2-1.4,0.6-1.9c0.4-0.5,1-0.8,1.8-0.8c0.8,0,1.4,0.3,1.8,0.8c0.4,0.5,0.6,1.1,0.6,1.9v0.1
			c0,0.8-0.2,1.4-0.6,1.9c-0.4,0.5-1,0.7-1.8,0.7c-0.8,0-1.3-0.3-1.8-0.8c-0.4-0.5-0.6-1.1-0.6-1.9V86z M201.4,86.1
			c0,0.5,0.1,0.9,0.3,1.3c0.2,0.3,0.5,0.5,0.9,0.5c0.4,0,0.7-0.2,0.9-0.5c0.2-0.3,0.3-0.7,0.3-1.3V86c0-0.5-0.1-0.9-0.3-1.2
			c-0.2-0.3-0.5-0.5-0.9-0.5c-0.4,0-0.7,0.2-0.9,0.5c-0.2,0.3-0.3,0.7-0.3,1.2V86.1z"/>
		<path class="st6" d="M208.3,86.2h-2.6v-1h2.6V86.2z"/>
		<path class="st6" d="M214.3,82.5h-2.1v6.2H211v-6.2h-2.1v-1h5.5V82.5z"/>
		<path class="st6" d="M214.5,86c0-0.8,0.2-1.4,0.6-1.9c0.4-0.5,1-0.8,1.8-0.8c0.8,0,1.4,0.3,1.8,0.8c0.4,0.5,0.6,1.1,0.6,1.9v0.1
			c0,0.8-0.2,1.4-0.6,1.9c-0.4,0.5-1,0.7-1.8,0.7c-0.8,0-1.3-0.3-1.8-0.8c-0.4-0.5-0.6-1.1-0.6-1.9V86z M215.7,86.1
			c0,0.5,0.1,0.9,0.3,1.3c0.2,0.3,0.5,0.5,0.9,0.5c0.4,0,0.7-0.2,0.9-0.5c0.2-0.3,0.3-0.7,0.3-1.3V86c0-0.5-0.1-0.9-0.3-1.2
			c-0.2-0.3-0.5-0.5-0.9-0.5c-0.4,0-0.7,0.2-0.9,0.5c-0.2,0.3-0.3,0.7-0.3,1.2V86.1z"/>
		<path class="st6" d="M223.7,87.9c-0.2,0.3-0.4,0.5-0.6,0.6c-0.3,0.2-0.5,0.2-0.9,0.2c-0.6,0-1-0.2-1.3-0.5
			c-0.3-0.4-0.5-0.9-0.5-1.7v-3.2h1.2v3.2c0,0.5,0.1,0.8,0.2,1c0.2,0.2,0.4,0.3,0.7,0.3c0.3,0,0.5-0.1,0.7-0.2
			c0.2-0.1,0.3-0.3,0.5-0.4v-3.8h1.2v5.3h-1L223.7,87.9z"/>
		<path class="st6" d="M228.2,87.9c0.3,0,0.5-0.1,0.7-0.3c0.2-0.2,0.3-0.4,0.3-0.6h1.1l0,0c0,0.5-0.2,0.9-0.6,1.3
			c-0.4,0.4-0.9,0.5-1.5,0.5c-0.8,0-1.4-0.3-1.8-0.8s-0.6-1.1-0.6-1.9V86c0-0.8,0.2-1.4,0.6-1.9c0.4-0.5,1-0.8,1.8-0.8
			c0.6,0,1.2,0.2,1.5,0.6c0.4,0.4,0.6,0.8,0.6,1.4l0,0h-1.1c0-0.3-0.1-0.5-0.3-0.7s-0.4-0.3-0.7-0.3c-0.4,0-0.8,0.2-0.9,0.5
			S227,85.5,227,86v0.2c0,0.5,0.1,0.9,0.3,1.2S227.8,87.9,228.2,87.9z"/>
		<path class="st6" d="M232.5,84.1c0.2-0.2,0.4-0.4,0.6-0.6c0.3-0.1,0.5-0.2,0.8-0.2c0.6,0,1,0.2,1.3,0.5c0.3,0.4,0.5,0.9,0.5,1.6
			v3.2h-1.2v-3.2c0-0.4-0.1-0.7-0.2-0.9s-0.4-0.3-0.7-0.3c-0.2,0-0.4,0-0.6,0.1c-0.2,0.1-0.3,0.2-0.5,0.4v3.9h-1.2v-7.6h1.2V84.1z"
			/>
	</g>
	<g>
		<g>
			<path class="st3" d="M11.9,48l0.9,0.2c-0.1,0.2-0.1,0.5-0.2,0.7c-0.1,0.6-0.5,2.1-0.9,3.1c-0.4,0.9-0.9,1.9-1.5,2.7l-0.8-0.4
				c0.6-0.8,1.2-1.9,1.5-2.7C11.3,50.7,11.8,49.2,11.9,48z M14.4,48.2l0.8-0.3c0.4,0.7,1,2.1,1.5,3.2c0.4,1,0.9,2.5,1.2,3.4L17,54.8
				c-0.2-1-0.7-2.4-1.1-3.4C15.4,50.3,14.8,48.9,14.4,48.2z M17.2,48.3l-0.5,0.2c-0.2-0.4-0.5-1-0.8-1.4l0.5-0.2
				C16.6,47.3,17,47.9,17.2,48.3z M18.3,47.9l-0.5,0.2c-0.2-0.4-0.5-1-0.8-1.4l0.5-0.2C17.8,46.9,18.1,47.5,18.3,47.9z"/>
			<path class="st3" d="M20.9,47.2c0,0.2,0,0.5,0,0.7v3.3c0,0.2,0,0.6,0,0.8H20c0-0.2,0-0.5,0-0.8v-3.3c0-0.2,0-0.5,0-0.7H20.9z
				 M25.5,47.1c0,0.2,0,0.5,0,0.9v1.6c0,2.4-0.3,3.2-1,4c-0.6,0.8-1.6,1.2-2.4,1.5l-0.6-0.7c0.9-0.2,1.8-0.6,2.4-1.3
				c0.7-0.8,0.8-1.6,0.8-3.5V48c0-0.3,0-0.6,0-0.9H25.5z"/>
			<path class="st3" d="M35.6,48c-0.1,0.1-0.2,0.2-0.3,0.4c-0.4,0.7-1.3,2-2.5,2.8l-0.7-0.5c0.9-0.5,1.9-1.6,2.2-2.2h-5.7
				c-0.4,0-0.7,0-1.1,0.1v-0.9c0.4,0,0.8,0.1,1.1,0.1h5.7c0.2,0,0.5,0,0.7-0.1L35.6,48z M31.6,49.3c0,2.7-0.2,4.5-2.8,5.8l-0.7-0.6
				c0.3-0.1,0.6-0.2,0.9-0.4c1.5-0.9,1.8-2.4,1.8-4c0-0.2,0-0.5,0-0.7H31.6z"/>
		</g>
	</g>
	<g>
		<g>
			<path class="st3" d="M102.8,51.3c0.5-0.5,1.3-1.5,1.9-2.3c0.6-0.7,1-0.7,1.8-0.1c0.6,0.5,1.4,1.4,2.1,2c0.7,0.7,1.7,1.8,2.4,2.7
				l-0.8,0.9c-0.7-0.9-1.6-1.9-2.2-2.6c-0.7-0.8-1.5-1.7-1.9-2c-0.4-0.3-0.5-0.3-0.8,0.1c-0.5,0.5-1.2,1.6-1.7,2.1
				c-0.2,0.3-0.4,0.6-0.6,0.8L102,52C102.3,51.8,102.5,51.6,102.8,51.3z M109.4,47.4c0.7,0,1.3,0.6,1.3,1.3c0,0.7-0.6,1.2-1.3,1.2
				c-0.7,0-1.2-0.5-1.2-1.2C108.1,48,108.7,47.4,109.4,47.4z M109.4,49.4c0.4,0,0.7-0.3,0.7-0.7s-0.3-0.7-0.7-0.7s-0.7,0.3-0.7,0.7
				S109,49.4,109.4,49.4z"/>
			<path class="st3" d="M117.3,53.9c0,0.4,0,1,0.1,1.2h-1.2c0-0.2,0.1-0.8,0.1-1.2v-3.6c-1,0.6-2.4,1.1-3.6,1.5l-0.6-1
				c1.7-0.4,3.4-1.1,4.5-1.8c1-0.6,2-1.5,2.6-2.2l0.8,0.8c-0.7,0.7-1.7,1.5-2.7,2.1V53.9z"/>
			<path class="st3" d="M129.5,48c-0.1,0.1-0.2,0.3-0.3,0.4c-0.4,0.7-1.4,2-2.4,2.8l-0.8-0.7c0.9-0.5,1.7-1.5,2-2.1h-5.5
				c-0.4,0-0.7,0-1.2,0.1v-1.1c0.4,0,0.8,0.1,1.2,0.1h5.6c0.2,0,0.7,0,0.8-0.1L129.5,48z M125.5,49.3c0,2.6-0.2,4.5-2.8,5.9
				l-0.9-0.8c0.3-0.1,0.6-0.3,1-0.5c1.4-0.9,1.7-2.2,1.7-3.8c0-0.3,0-0.5-0.1-0.8H125.5z"/>
			<path class="st3" d="M138.4,48.7c-0.1,0.2-0.1,0.5-0.2,0.7c-0.2,0.9-0.4,2-1,2.9c-0.8,1.4-2.2,2.4-4,2.9l-0.8-0.9
				c0.4-0.1,0.8-0.2,1.2-0.3c0.9-0.3,1.9-1,2.5-1.9c0.5-0.8,0.8-1.9,0.9-2.8h-5.3v1.6c0,0.2,0,0.5,0,0.7h-1.1c0-0.2,0-0.5,0-0.7
				v-1.7c0-0.2,0-0.6,0-0.8c0.3,0,0.6,0,1,0h2.2v-0.9c0-0.2,0-0.5-0.1-0.8h1.2c0,0.4-0.1,0.6-0.1,0.8v0.9h2c0.4,0,0.6,0,0.8-0.1
				L138.4,48.7z"/>
			<path class="st3" d="M145.4,52.3c-1.1-0.6-2.7-1.2-3.8-1.6v3.1c0,0.3,0,0.9,0.1,1.3h-1.2c0-0.3,0.1-0.9,0.1-1.3V48
				c0-0.3,0-0.8-0.1-1.1h1.2c0,0.3-0.1,0.8-0.1,1.1v1.6c1.3,0.4,3.2,1.1,4.2,1.6L145.4,52.3z"/>
		</g>
	</g>
	<g>
		<g class="st7">
			<ellipse class="st8" cx="164.6" cy="60.9" rx="6.8" ry="6.9"/>
		</g>
		<g>
			<ellipse class="st9" cx="164.6" cy="60.9" rx="6.8" ry="6.9"/>
		</g>
	</g>
	<g>
		<g class="st7">
			<ellipse class="st8" cx="31.2" cy="110.9" rx="6.8" ry="6.9"/>
		</g>
		<g>
			<ellipse class="st9" cx="31.2" cy="110.9" rx="6.8" ry="6.9"/>
		</g>
	</g>
</g>
</svg>
