<svg id="Layer_1" xmlns="http://www.w3.org/2000/svg" viewBox="0 0 245 160"><style>.st0,.st1,.st2{stroke-miterlimit:10}.st0{stroke-width:2;fill:#f1f1f2;stroke:#c2c2c2}.st1,.st2{fill:none;stroke:#dededd}.st2{stroke:#293052;stroke-linejoin:round}.st3{fill:#231f20}.st4{fill:#6d6e70}.st5{fill:none;stroke:#293052;stroke-width:3;stroke-linecap:round;stroke-linejoin:round;stroke-miterlimit:10}.st6{fill:#293052}.st7{opacity:.6}.st8{fill:#fff}.st9{fill:none;stroke:#e88024;stroke-width:2;stroke-miterlimit:10}</style><title>touch</title><path class="st0" d="M-.2 0h245v160H-.2z"/><path class="st1" d="M2 44.2h241.5M2 77.6h241.5M2 110.9h241.5M2 144.3h241.5M31.2 27.5V159M61.7 27.5V159M92.3 27.5V159M122.8 27.5V159M153.4 27.5V159M2 94.2h241.5M214.5 27.5V159"/><path class="st2" d="M2 60.9h241.5"/><path class="st1" d="M2 127.6h241.5"/><path class="st2" d="M183.9 27.5V159"/><path class="st0" d="M.2 26.5h245"/><g><path class="st3" d="M19.2 10.5h-2.4v7.2h-1.7v-7.2h-2.4V9.2h6.5v1.3zM19.2 14.5c0-.9.3-1.7.8-2.3s1.3-.9 2.2-.9c.9 0 1.7.3 2.2.9s.8 1.4.8 2.3v.1c0 1-.3 1.7-.8 2.3s-1.3.9-2.2.9c-.9 0-1.7-.3-2.2-.9s-.8-1.4-.8-2.3v-.1zm1.7.1c0 .6.1 1 .3 1.4s.5.5 1 .5c.4 0 .8-.2 1-.5s.3-.8.3-1.4v-.1c0-.6-.1-1-.3-1.4-.2-.4-.5-.5-1-.5-.4 0-.8.2-1 .5-.2.4-.3.8-.3 1.4v.1zM30.1 16.8c-.2.3-.4.6-.7.8s-.6.3-1 .3c-.7 0-1.2-.2-1.6-.6s-.6-1.1-.6-2v-3.8h1.7v3.8c0 .5.1.8.2 1s.4.3.7.3c.3 0 .5 0 .7-.1.2-.1.4-.2.5-.4v-4.6h1.7v6.3h-1.5l-.1-1zM35.7 16.6c.3 0 .5-.1.7-.3.2-.2.3-.4.3-.7h1.6c0 .6-.2 1.2-.7 1.6s-1.1.6-1.9.6c-.9 0-1.7-.3-2.2-.9s-.8-1.4-.8-2.3v-.2c0-.9.3-1.7.8-2.3s1.2-.9 2.2-.9c.8 0 1.4.2 1.9.7s.7 1 .7 1.8h-1.6c0-.3-.1-.6-.3-.8s-.4-.3-.7-.3c-.5 0-.8.2-1 .5-.2.4-.3.8-.3 1.4v.2c0 .6.1 1 .3 1.4s.5.5 1 .5zM40.9 12.2c.2-.3.4-.5.7-.7s.6-.2 1-.2c.7 0 1.2.2 1.6.7s.6 1.1.6 2v3.8H43V14c0-.5-.1-.8-.3-1-.2-.2-.4-.3-.8-.3-.2 0-.4 0-.6.1-.2.1-.3.2-.4.4v4.7h-1.7V8.6h1.7v3.6z"/></g><g><path class="st3" d="M214.2 14.3h2.3v1h-2.3v3.3h-1v-3.3h-2.3v-1h2.3v-1.4h-2v-1h2V8.5h1V12h2.1v1h-2.1v1.3zm-2.3-2.7c-.1-.6-.4-1.5-.7-2.2l.8-.3c.4.7.7 1.6.8 2.2l-.9.3zm4.6-2.3c-.3.8-.7 1.7-1.1 2.3l-.8-.2c.3-.6.7-1.6.9-2.3l1 .2zm1.3 6.6h-1V9.8h1v6.1zm2.7-7.2v8.6c0 .6-.2.9-.5 1.1-.4.2-1.1.2-2.1.2-.1-.3-.2-.7-.4-1h1.7c.2 0 .3-.1.3-.3V8.7h1zM227.5 17.4c.5.1 1 .1 1.6.1h2.9c-.2.2-.3.7-.4 1H229c-2.2 0-3.7-.4-4.7-2.1-.4.9-.9 1.7-1.6 2.3-.2-.2-.6-.5-.8-.7 1.2-.9 1.8-2.4 2-4.4l1.1.1c-.1.5-.2 1-.3 1.4.4 1 1 1.6 1.8 1.9v-4.3H224v-1h6.2v1h-2.6v1.6h3.1v1h-3.1v2.1zm-4.2-5.2h-1V9.7h4V8.5h1.1v1.2h4.1v2.5h-1v-1.6h-7.1v1.6z"/></g><g><path class="st4" d="M195.1 127.3c.5-.5 1.3-1.6 2-2.3.5-.6.9-.7 1.7-.1.6.5 1.4 1.4 2.1 2.1.7.7 1.7 1.8 2.4 2.7l-.6.7c-.7-.9-1.6-1.9-2.2-2.7-.7-.8-1.5-1.7-1.9-2-.4-.4-.6-.3-.9.1-.5.6-1.3 1.7-1.8 2.2-.2.3-.4.6-.6.8l-.7-.7c0-.3.2-.5.5-.8zm6.5-3.9c.7 0 1.2.5 1.2 1.2s-.5 1.2-1.2 1.2-1.2-.5-1.2-1.2.5-1.2 1.2-1.2zm0 1.9c.4 0 .7-.3.7-.7 0-.4-.3-.7-.7-.7-.4 0-.7.3-.7.7 0 .4.3.7.7.7zM212.2 123.4c-.7.7-1.6 1.5-2.7 2.2v4.3c0 .4 0 .9.1 1.1h-1c0-.2.1-.7.1-1.1v-3.8c-1.1.6-2.4 1.2-3.8 1.6l-.5-.8c1.7-.4 3.4-1.1 4.5-1.8 1-.6 2.1-1.5 2.6-2.2l.7.5zM221.7 123.8c-.1.1-.2.2-.3.4-.4.7-1.3 2-2.5 2.8l-.7-.5c.9-.5 1.9-1.6 2.2-2.2h-5.7c-.4 0-.7 0-1.1.1v-.9c.4 0 .8.1 1.1.1h5.7c.2 0 .5 0 .7-.1l.6.3zm-4 1.4c0 2.7-.2 4.5-2.8 5.8l-.7-.6c.3-.1.6-.2.9-.4 1.5-.9 1.8-2.4 1.8-4v-.7h.8zM230.5 124.5c0 .1-.1.4-.2.6-.1.8-.4 2-1 3-.7 1.3-2.1 2.3-4 2.8l-.7-.8c.3 0 .7-.2 1-.3 1-.3 2.1-1.1 2.7-2 .5-.8.9-2.1 1-2.9h-5.6v2.4h-.9V125v-.8h3.1v-.9-.8h1c0 .3-.1.5-.1.8v.9h2.2c.4 0 .6 0 .7-.1l.8.4zM237.7 128c-1.1-.6-2.8-1.3-3.9-1.6v3.3c0 .3 0 .8.1 1.2h-1c0-.3.1-.8.1-1.2v-5.8c0-.3 0-.7-.1-1h1c0 .3-.1.7-.1 1v1.6c1.3.4 3.2 1.1 4.3 1.6l-.4.9zM212.8 136.6c-.5.2-1.1.3-1.8.4-.5 1.4-1.4 3.1-2.2 4.2l-.8-.4c.8-1 1.7-2.5 2.1-3.7h-2l-.1-.8c.4.1.8.1 1.2.1h1.1c.2-.5.3-1.2.3-1.7l.9.1c-.1.4-.2 1-.4 1.5.5-.1 1-.2 1.5-.4l.2.7zm1.2 1.2v1.1c0 .4 0 1 .1 1.6.8.3 1.5.8 2 1.2l-.4.7a5 5 0 0 0-1.6-1.1v.4c0 .8-.5 1.4-1.7 1.4-1.1 0-2-.5-2-1.4 0-.9.9-1.5 2-1.5.3 0 .6 0 .9.1 0-.8-.1-1.8-.1-2.5h.8zm-.7 3.1c-.3-.1-.6-.1-1-.1-.7 0-1.2.3-1.2.8s.4.8 1.1.8c.8 0 1.1-.5 1.1-.9v-.6zm2.7-2.9c-.5-.5-1.6-1.1-2.3-1.4l.4-.6c.7.3 1.8 1 2.3 1.3l-.4.7zM219.6 134.8c0 .3-.1.7-.1 1 0 1.1-.1 3.5-.1 4.9 0 1.1.7 1.5 1.6 1.5 1.8 0 2.8-1 3.6-2l.5.7c-.7.9-1.9 2.2-4.1 2.2-1.4 0-2.4-.6-2.4-2.2 0-1.5.1-4 .1-5 0-.4 0-.7-.1-1l1-.1z"/></g><path class="st5" d="M31.2 110.9l30.5-27.4 21.7 21.3 26.2-28.6 24 34.7 31-50"/><g><path class="st6" d="M206.3 41.3h-2.1v6.2H203v-6.2h-2.1v-1h5.5v1zM206.5 44.8c0-.8.2-1.4.6-1.9.4-.5 1-.8 1.8-.8s1.4.3 1.8.8c.4.5.6 1.1.6 1.9v.1c0 .8-.2 1.4-.6 1.9-.4.5-1 .7-1.8.7s-1.3-.3-1.8-.8c-.4-.5-.6-1.1-.6-1.9zm1.1.1c0 .5.1.9.3 1.3.2.3.5.5.9.5s.7-.2.9-.5c.2-.3.3-.7.3-1.3v-.1c0-.5-.1-.9-.3-1.2-.2-.3-.5-.5-.9-.5s-.7.2-.9.5c-.2.3-.3.7-.3 1.2v.1zM215.6 46.7c-.2.3-.4.5-.6.6-.3.2-.5.2-.9.2-.6 0-1-.2-1.3-.5-.3-.4-.5-.9-.5-1.7v-3.2h1.2v3.2c0 .5.1.8.2 1 .2.2.4.3.7.3.3 0 .5-.1.7-.2.2-.1.3-.3.5-.4v-3.8h1.2v5.3h-1l-.2-.8zM220.2 46.6c.3 0 .5-.1.7-.3.2-.2.3-.4.3-.6h1.1c0 .5-.2.9-.6 1.3-.4.4-.9.5-1.5.5-.8 0-1.4-.3-1.8-.8s-.6-1.1-.6-1.9v-.2c0-.8.2-1.4.6-1.9.4-.5 1-.8 1.8-.8.6 0 1.2.2 1.5.6.4.4.6.8.6 1.4h-1.1c0-.3-.1-.5-.3-.7s-.4-.3-.7-.3c-.4 0-.8.2-.9.5s-.3.7-.3 1.2v.2c0 .5.1.9.3 1.2s.4.6.9.6zM224.4 42.9l.6-.6c.3-.1.5-.2.8-.2.6 0 1 .2 1.3.5.3.4.5.9.5 1.6v3.2h-1.2v-3.2c0-.4-.1-.7-.2-.9s-.4-.3-.7-.3c-.2 0-.4 0-.6.1-.2.1-.3.2-.5.4v3.9h-1.2v-7.6h1.2v3.1z"/></g><g><path class="st6" d="M199 88.7h-1.2l-3.2-5.2v5.2h-1.2v-7.1h1.2l3.2 5.2v-5.2h1.2v7.1zM200.2 86c0-.8.2-1.4.6-1.9.4-.5 1-.8 1.8-.8s1.4.3 1.8.8c.4.5.6 1.1.6 1.9v.1c0 .8-.2 1.4-.6 1.9-.4.5-1 .7-1.8.7s-1.3-.3-1.8-.8c-.4-.5-.6-1.1-.6-1.9zm1.2.1c0 .5.1.9.3 1.3.2.3.5.5.9.5s.7-.2.9-.5c.2-.3.3-.7.3-1.3V86c0-.5-.1-.9-.3-1.2-.2-.3-.5-.5-.9-.5s-.7.2-.9.5c-.2.3-.3.7-.3 1.2v.1zM208.3 86.2h-2.6v-1h2.6v1zM214.3 82.5h-2.1v6.2H211v-6.2h-2.1v-1h5.5v1zM214.5 86c0-.8.2-1.4.6-1.9.4-.5 1-.8 1.8-.8s1.4.3 1.8.8c.4.5.6 1.1.6 1.9v.1c0 .8-.2 1.4-.6 1.9-.4.5-1 .7-1.8.7s-1.3-.3-1.8-.8c-.4-.5-.6-1.1-.6-1.9zm1.2.1c0 .5.1.9.3 1.3.2.3.5.5.9.5s.7-.2.9-.5c.2-.3.3-.7.3-1.3V86c0-.5-.1-.9-.3-1.2-.2-.3-.5-.5-.9-.5s-.7.2-.9.5c-.2.3-.3.7-.3 1.2v.1zM223.7 87.9c-.2.3-.4.5-.6.6-.3.2-.5.2-.9.2-.6 0-1-.2-1.3-.5-.3-.4-.5-.9-.5-1.7v-3.2h1.2v3.2c0 .5.1.8.2 1 .2.2.4.3.7.3.3 0 .5-.1.7-.2.2-.1.3-.3.5-.4v-3.8h1.2v5.3h-1l-.2-.8zM228.2 87.9c.3 0 .5-.1.7-.3.2-.2.3-.4.3-.6h1.1c0 .5-.2.9-.6 1.3-.4.4-.9.5-1.5.5-.8 0-1.4-.3-1.8-.8s-.6-1.1-.6-1.9V86c0-.8.2-1.4.6-1.9.4-.5 1-.8 1.8-.8.6 0 1.2.2 1.5.6.4.4.6.8.6 1.4h-1.1c0-.3-.1-.5-.3-.7s-.4-.3-.7-.3c-.4 0-.8.2-.9.5s-.3.7-.3 1.2v.2c0 .5.1.9.3 1.2s.5.5.9.5zM232.5 84.1l.6-.6c.3-.1.5-.2.8-.2.6 0 1 .2 1.3.5.3.4.5.9.5 1.6v3.2h-1.2v-3.2c0-.4-.1-.7-.2-.9s-.4-.3-.7-.3c-.2 0-.4 0-.6.1-.2.1-.3.2-.5.4v3.9h-1.2V81h1.2v3.1z"/></g><g><path class="st3" d="M11.9 48l.9.2c-.1.2-.1.5-.2.7-.1.6-.5 2.1-.9 3.1-.4.9-.9 1.9-1.5 2.7l-.8-.4c.6-.8 1.2-1.9 1.5-2.7.4-.9.9-2.4 1-3.6zm2.5.2l.8-.3c.4.7 1 2.1 1.5 3.2.4 1 .9 2.5 1.2 3.4l-.9.3c-.2-1-.7-2.4-1.1-3.4-.5-1.1-1.1-2.5-1.5-3.2zm2.8.1l-.5.2c-.2-.4-.5-1-.8-1.4l.5-.2c.2.4.6 1 .8 1.4zm1.1-.4l-.5.2c-.2-.4-.5-1-.8-1.4l.5-.2c.3.4.6 1 .8 1.4zM20.9 47.2V52H20v-4.1-.7h.9zm4.6-.1v2.5c0 2.4-.3 3.2-1 4-.6.8-1.6 1.2-2.4 1.5l-.6-.7c.9-.2 1.8-.6 2.4-1.3.7-.8.8-1.6.8-3.5V48v-.9h.8zM35.6 48c-.1.1-.2.2-.3.4-.4.7-1.3 2-2.5 2.8l-.7-.5c.9-.5 1.9-1.6 2.2-2.2h-5.7c-.4 0-.7 0-1.1.1v-.9c.4 0 .8.1 1.1.1h5.7c.2 0 .5 0 .7-.1l.6.3zm-4 1.3c0 2.7-.2 4.5-2.8 5.8l-.7-.6c.3-.1.6-.2.9-.4 1.5-.9 1.8-2.4 1.8-4v-.7h.8z"/></g><g><path class="st3" d="M102.8 51.3c.5-.5 1.3-1.5 1.9-2.3.6-.7 1-.7 1.8-.1.6.5 1.4 1.4 2.1 2 .7.7 1.7 1.8 2.4 2.7l-.8.9c-.7-.9-1.6-1.9-2.2-2.6-.7-.8-1.5-1.7-1.9-2-.4-.3-.5-.3-.8.1-.5.5-1.2 1.6-1.7 2.1-.2.3-.4.6-.6.8l-1-.9c.3-.2.5-.4.8-.7zm6.6-3.9c.7 0 1.3.6 1.3 1.3 0 .7-.6 1.2-1.3 1.2-.7 0-1.2-.5-1.2-1.2-.1-.7.5-1.3 1.2-1.3zm0 2c.4 0 .7-.3.7-.7s-.3-.7-.7-.7-.7.3-.7.7.3.7.7.7zM117.3 53.9c0 .4 0 1 .1 1.2h-1.2c0-.2.1-.8.1-1.2v-3.6c-1 .6-2.4 1.1-3.6 1.5l-.6-1c1.7-.4 3.4-1.1 4.5-1.8 1-.6 2-1.5 2.6-2.2l.8.8c-.7.7-1.7 1.5-2.7 2.1v4.2zM129.5 48c-.1.1-.2.3-.3.4-.4.7-1.4 2-2.4 2.8l-.8-.7c.9-.5 1.7-1.5 2-2.1h-5.5c-.4 0-.7 0-1.2.1v-1.1c.4 0 .8.1 1.2.1h5.6c.2 0 .7 0 .8-.1l.6.6zm-4 1.3c0 2.6-.2 4.5-2.8 5.9l-.9-.8c.3-.1.6-.3 1-.5 1.4-.9 1.7-2.2 1.7-3.8 0-.3 0-.5-.1-.8h1.1zM138.4 48.7c-.1.2-.1.5-.2.7-.2.9-.4 2-1 2.9-.8 1.4-2.2 2.4-4 2.9l-.8-.9 1.2-.3c.9-.3 1.9-1 2.5-1.9.5-.8.8-1.9.9-2.8h-5.3v2.3h-1.1v-2.4-.8h3.2v-.9c0-.2 0-.5-.1-.8h1.2c0 .4-.1.6-.1.8v.9h2c.4 0 .6 0 .8-.1l.8.4zM145.4 52.3c-1.1-.6-2.7-1.2-3.8-1.6v3.1c0 .3 0 .9.1 1.3h-1.2c0-.3.1-.9.1-1.3V48c0-.3 0-.8-.1-1.1h1.2c0 .3-.1.8-.1 1.1v1.6c1.3.4 3.2 1.1 4.2 1.6l-.4 1.1z"/></g><g><g class="st7"><ellipse class="st8" cx="164.6" cy="60.9" rx="6.8" ry="6.9"/></g><ellipse class="st9" cx="164.6" cy="60.9" rx="6.8" ry="6.9"/></g><g><g class="st7"><ellipse class="st8" cx="31.2" cy="110.9" rx="6.8" ry="6.9"/></g><ellipse class="st9" cx="31.2" cy="110.9" rx="6.8" ry="6.9"/></g></svg>